MFile 1 9 480
MTrk
0 TimeSig 4/2 48 8
0 KeySig 3 major
0 Tempo 288462
53760 TimeSig 12/8 12 8
53760 Tempo 576923
65280 TimeSig 4/4 24 8
72960 KeySig 0 major
78720 Tempo 652174
90240 Tempo 625000
92160 Tempo 600000
94080 Tempo 576923
96000 TimeSig 6/4 24 8
96000 KeySig 3 major
119040 TimeSig 4/4 24 8
140160 TimeSig 4/2 48 8
140160 Tempo 288462
174720 TimeSig 4/4 24 8
174720 Tempo 576923
176640 Tempo 555556
178560 Tempo 535714
180480 Tempo 517241
182400 Tempo 500000
184320 Tempo 476190
186240 TimeSig 3/4 24 8
186240 Tempo 576923
187680 TimeSig 4/4 24 8
187680 Meta TrkEnd
TrkEnd
MTrk
0 SeqSpec 43 00 01 00
0 Meta TrkName "Right Treble"
0 Meta 0x21 00
16680 On ch=1 n=d6 v=60
16800 On ch=1 n=d6 v=0
16800 On ch=1 n=c6 v=70
16920 On ch=1 n=c6 v=0
16920 On ch=1 n=a5 v=70
17040 On ch=1 n=a5 v=0
17040 On ch=1 n=f#5 v=70
17160 On ch=1 n=f#5 v=0
17160 On ch=1 n=c5 v=70
17280 On ch=1 n=c5 v=0
17640 On ch=1 n=d7 v=80
17760 On ch=1 n=d7 v=0
17760 On ch=1 n=c7 v=90
17880 On ch=1 n=c7 v=0
17880 On ch=1 n=a6 v=90
18000 On ch=1 n=a6 v=0
18000 On ch=1 n=f#6 v=90
18120 On ch=1 n=f#6 v=0
18120 On ch=1 n=c6 v=90
18240 On ch=1 n=c6 v=0
18600 On ch=1 n=d8 v=100
18720 On ch=1 n=d8 v=0
18720 On ch=1 n=c8 v=110
18840 On ch=1 n=c8 v=0
18840 On ch=1 n=a7 v=110
18960 On ch=1 n=a7 v=0
18960 On ch=1 n=f#7 v=110
19080 On ch=1 n=f#7 v=0
19080 On ch=1 n=c7 v=110
19200 On ch=1 n=c7 v=0
19560 On ch=1 n=d7 v=100
19680 On ch=1 n=d7 v=0
19680 On ch=1 n=c7 v=100
19800 On ch=1 n=c7 v=0
19800 On ch=1 n=a6 v=100
19920 On ch=1 n=a6 v=0
19920 On ch=1 n=f#6 v=100
20040 On ch=1 n=f#6 v=0
20040 On ch=1 n=c6 v=100
20160 On ch=1 n=c6 v=0
20520 On ch=1 n=d6 v=100
20640 On ch=1 n=d6 v=0
20640 On ch=1 n=c6 v=100
20760 On ch=1 n=c6 v=0
20760 On ch=1 n=a5 v=100
20880 On ch=1 n=a5 v=0
20880 On ch=1 n=f#5 v=100
21000 On ch=1 n=f#5 v=0
21000 On ch=1 n=c5 v=100
21120 On ch=1 n=c5 v=0
36480 On ch=1 n=d#6 v=60
36480 On ch=1 n=c#6 v=60
36480 On ch=1 n=c#5 v=60
36480 On ch=1 n=d#5 v=60
39360 On ch=1 n=d#5 v=0
39360 On ch=1 n=c#5 v=0
39360 On ch=1 n=c#6 v=0
39360 On ch=1 n=d#6 v=0
39360 On ch=1 n=a4 v=60
39360 On ch=1 n=g4 v=60
39360 On ch=1 n=a5 v=60
39360 On ch=1 n=g5 v=60
42000 On ch=1 n=g5 v=0
42000 On ch=1 n=a5 v=0
42000 On ch=1 n=g4 v=0
42000 On ch=1 n=a4 v=0
42000 On ch=1 n=g6 v=60
42000 On ch=1 n=f6 v=60
42000 On ch=1 n=g5 v=60
42000 On ch=1 n=f5 v=60
42240 On ch=1 n=f5 v=0
42240 On ch=1 n=g5 v=0
42240 On ch=1 n=f6 v=0
42240 On ch=1 n=g6 v=0
42240 On ch=1 n=d#6 v=60
42240 On ch=1 n=c#6 v=60
42240 On ch=1 n=c#5 v=60
42240 On ch=1 n=d#5 v=60
43200 On ch=1 n=d#5 v=0
43200 On ch=1 n=c#5 v=0
43200 On ch=1 n=c#6 v=0
43200 On ch=1 n=d#6 v=0
43200 On ch=1 n=g4 v=60
43200 On ch=1 n=a4 v=60
43200 On ch=1 n=a5 v=60
43200 On ch=1 n=g5 v=60
45120 On ch=1 n=g5 v=0
45120 On ch=1 n=a5 v=0
45120 On ch=1 n=a4 v=0
45120 On ch=1 n=g4 v=0
59520 On ch=1 n=f#5 v=80
59520 On ch=1 n=f#4 v=80
60240 On ch=1 n=f#4 v=0
60900 On ch=1 n=f#5 v=0
60900 On ch=1 n=g4 v=80
60900 On ch=1 n=g5 v=80
60960 On ch=1 n=g5 v=0
60960 On ch=1 n=g4 v=0
60960 On ch=1 n=f#5 v=80
60960 On ch=1 n=f#4 v=80
61680 On ch=1 n=f#4 v=0
62340 On ch=1 n=f#5 v=0
62340 On ch=1 n=a#4 v=80
62340 On ch=1 n=a#5 v=80
62400 On ch=1 n=a#5 v=0
62400 On ch=1 n=a#4 v=0
62400 On ch=1 n=f#5 v=90
62400 On ch=1 n=f#4 v=90
63120 On ch=1 n=f#4 v=0
63780 On ch=1 n=f#5 v=0
63780 On ch=1 n=c#5 v=90
63780 On ch=1 n=c#6 v=90
63840 On ch=1 n=c#6 v=0
63840 On ch=1 n=c#5 v=0
63840 On ch=1 n=f#4 v=90
63840 On ch=1 n=f#5 v=90
65280 On ch=1 n=f#5 v=0
65280 On ch=1 n=f#4 v=0
65280 On ch=1 n=c6 v=80
65280 On ch=1 n=a#5 v=80
65280 On ch=1 n=f#5 v=80
65280 On ch=1 n=c5 v=80
66000 On ch=1 n=d5 v=60
66060 On ch=1 n=d5 v=0
66060 On ch=1 n=e5 v=70
66120 On ch=1 n=e5 v=0
66120 On ch=1 n=c5 v=0
66120 On ch=1 n=f#5 v=0
66120 On ch=1 n=a#5 v=0
66120 On ch=1 n=c6 v=0
66120 On ch=1 n=d5 v=70
66120 On ch=1 n=a5 v=70
66120 On ch=1 n=c#6 v=70
66120 On ch=1 n=d6 v=70
66240 On ch=1 n=d6 v=0
66240 On ch=1 n=c#6 v=0
66240 On ch=1 n=a5 v=0
66240 On ch=1 n=d5 v=0
66240 On ch=1 n=c6 v=80
66240 On ch=1 n=a#5 v=80
66240 On ch=1 n=f#5 v=80
66240 On ch=1 n=c5 v=80
66960 On ch=1 n=d5 v=60
67020 On ch=1 n=d5 v=0
67020 On ch=1 n=e5 v=70
67080 On ch=1 n=e5 v=0
67080 On ch=1 n=c5 v=0
67080 On ch=1 n=f#5 v=0
67080 On ch=1 n=a#5 v=0
67080 On ch=1 n=c6 v=0
67080 On ch=1 n=e5 v=70
67080 On ch=1 n=a5 v=70
67080 On ch=1 n=c6 v=70
67080 On ch=1 n=e6 v=70
67200 On ch=1 n=e6 v=0
67200 On ch=1 n=c6 v=0
67200 On ch=1 n=a5 v=0
67200 On ch=1 n=e5 v=0
67200 On ch=1 n=c6 v=80
67200 On ch=1 n=a#5 v=80
67200 On ch=1 n=f#5 v=80
67200 On ch=1 n=c5 v=80
67920 On ch=1 n=d5 v=60
67980 On ch=1 n=d5 v=0
67980 On ch=1 n=e5 v=60
68040 On ch=1 n=e5 v=0
68040 On ch=1 n=c5 v=0
68040 On ch=1 n=f#5 v=0
68040 On ch=1 n=a#5 v=0
68040 On ch=1 n=c6 v=0
68040 On ch=1 n=e6 v=70
68040 On ch=1 n=g#5 v=70
68040 On ch=1 n=c#6 v=70
68040 On ch=1 n=g#6 v=70
68160 On ch=1 n=g#6 v=0
68160 On ch=1 n=c#6 v=0
68160 On ch=1 n=g#5 v=0
68160 On ch=1 n=e6 v=0
68160 On ch=1 n=c6 v=80
68160 On ch=1 n=a#5 v=80
68160 On ch=1 n=f#5 v=80
68160 On ch=1 n=c5 v=80
68880 On ch=1 n=d5 v=60
68940 On ch=1 n=d5 v=0
68940 On ch=1 n=e5 v=70
69000 On ch=1 n=e5 v=0
69000 On ch=1 n=c5 v=0
69000 On ch=1 n=f#5 v=0
69000 On ch=1 n=a#5 v=0
69000 On ch=1 n=c6 v=0
69000 On ch=1 n=g#6 v=70
69000 On ch=1 n=c7 v=70
69000 On ch=1 n=c6 v=70
69120 On ch=1 n=c6 v=0
69120 On ch=1 n=c7 v=0
69120 On ch=1 n=g#6 v=0
69120 On ch=1 n=a#6 v=100
69120 On ch=1 n=f6 v=100
69120 On ch=1 n=d6 v=100
69120 On ch=1 n=a#5 v=100
69200 On ch=1 n=a#4 v=80
69280 On ch=1 n=a#4 v=0
69280 On ch=1 n=a#5 v=80
69360 On ch=1 n=a#5 v=0
69360 On ch=1 n=a#5 v=80
69440 On ch=1 n=a#5 v=0
69440 On ch=1 n=a#6 v=80
69520 On ch=1 n=a#6 v=0
69520 On ch=1 n=a#6 v=80
69600 On ch=1 n=a#6 v=0
69600 On ch=1 n=a#7 v=80
69680 On ch=1 n=a#7 v=0
69680 On ch=1 n=a#6 v=80
69760 On ch=1 n=a#6 v=0
69760 On ch=1 n=a#6 v=80
69840 On ch=1 n=a#6 v=0
69840 On ch=1 n=a#6 v=0
69840 On ch=1 n=a#5 v=0
69840 On ch=1 n=d6 v=0
69840 On ch=1 n=f6 v=0
69840 On ch=1 n=f#6 v=100
69840 On ch=1 n=c#6 v=100
69840 On ch=1 n=a#5 v=100
69840 On ch=1 n=f#5 v=100
70080 On ch=1 n=f#5 v=0
70080 On ch=1 n=a#5 v=0
70080 On ch=1 n=c#6 v=0
70080 On ch=1 n=f#6 v=0
70080 On ch=1 n=g#6 v=100
70080 On ch=1 n=d#6 v=100
70080 On ch=1 n=c6 v=100
70080 On ch=1 n=g#5 v=100
70440 On ch=1 n=g#5 v=0
70440 On ch=1 n=c6 v=0
70440 On ch=1 n=d#6 v=0
70440 On ch=1 n=g#6 v=0
70440 On ch=1 n=a#6 v=100
70440 On ch=1 n=f6 v=100
70440 On ch=1 n=d6 v=100
70440 On ch=1 n=a#5 v=100
70560 On ch=1 n=a#5 v=0
70560 On ch=1 n=d6 v=0
70560 On ch=1 n=f6 v=0
70560 On ch=1 n=a#6 v=0
70560 On ch=1 n=c7 v=100
70560 On ch=1 n=g#6 v=100
70560 On ch=1 n=e6 v=100
70560 On ch=1 n=c6 v=100
70800 On ch=1 n=c6 v=0
70800 On ch=1 n=e6 v=0
70800 On ch=1 n=g#6 v=0
70800 On ch=1 n=c7 v=0
70800 On ch=1 n=g#5 v=100
70800 On ch=1 n=c6 v=100
70800 On ch=1 n=d#6 v=100
70800 On ch=1 n=g#6 v=100
71040 On ch=1 n=g#6 v=0
71040 On ch=1 n=d#6 v=0
71040 On ch=1 n=c6 v=0
71040 On ch=1 n=g#5 v=0
71040 On ch=1 n=a#6 v=100
71040 On ch=1 n=f6 v=100
71040 On ch=1 n=d6 v=100
71040 On ch=1 n=a#5 v=100
71280 On ch=1 n=a#5 v=0
71280 On ch=1 n=d6 v=0
71280 On ch=1 n=f6 v=0
71280 On ch=1 n=a#6 v=0
71280 On ch=1 n=f#6 v=100
71280 On ch=1 n=d6 v=100
71280 On ch=1 n=a#5 v=100
71280 On ch=1 n=f#5 v=100
71520 On ch=1 n=f#5 v=0
71520 On ch=1 n=a#5 v=0
71520 On ch=1 n=d6 v=0
71520 On ch=1 n=f#6 v=0
71520 On ch=1 n=d5 v=100
71520 On ch=1 n=f#5 v=100
71520 On ch=1 n=a#5 v=100
71520 On ch=1 n=d6 v=100
71600 On ch=1 n=a#4 v=80
71680 On ch=1 n=a#4 v=0
71680 On ch=1 n=a#5 v=80
71760 On ch=1 n=a#5 v=0
71760 On ch=1 n=a#5 v=80
71840 On ch=1 n=a#5 v=0
71840 On ch=1 n=a#6 v=80
71920 On ch=1 n=a#6 v=0
71920 On ch=1 n=a#6 v=80
72000 On ch=1 n=a#6 v=0
72000 On ch=1 n=a#7 v=80
72120 On ch=1 n=a#7 v=0
72480 On ch=1 n=a#5 v=0
72480 On ch=1 n=d6 v=0
72480 On ch=1 n=f#5 v=0
72480 On ch=1 n=d5 v=0
72480 On ch=1 n=f6 v=100
72480 On ch=1 n=c#6 v=100
72480 On ch=1 n=a5 v=100
72480 On ch=1 n=f5 v=100
72960 On ch=1 n=f5 v=0
72960 On ch=1 n=a5 v=0
72960 On ch=1 n=c#6 v=0
72960 On ch=1 n=f6 v=0
72960 On ch=1 n=c5 v=110
72960 On ch=1 n=e5 v=110
72960 On ch=1 n=g#5 v=110
72960 On ch=1 n=c6 v=110
73040 On ch=1 n=a#4 v=90
73120 On ch=1 n=a#4 v=0
73120 On ch=1 n=a#5 v=90
73200 On ch=1 n=a#5 v=0
73200 On ch=1 n=a#5 v=90
73280 On ch=1 n=a#5 v=0
73280 On ch=1 n=a#6 v=90
73360 On ch=1 n=a#6 v=0
73360 On ch=1 n=a#6 v=90
73440 On ch=1 n=a#6 v=0
73440 On ch=1 n=a#7 v=90
73520 On ch=1 n=a#7 v=0
73520 On ch=1 n=a#6 v=90
73600 On ch=1 n=a#6 v=0
73600 On ch=1 n=a#6 v=90
73680 On ch=1 n=a#6 v=0
73680 On ch=1 n=a#5 v=90
73760 On ch=1 n=a#5 v=0
73760 On ch=1 n=a#5 v=90
73840 On ch=1 n=a#5 v=0
73840 On ch=1 n=a#4 v=90
73920 On ch=1 n=a#4 v=0
74000 On ch=1 n=d5 v=90
74080 On ch=1 n=d5 v=0
74160 On ch=1 n=d5 v=90
74240 On ch=1 n=d5 v=0
74320 On ch=1 n=d5 v=90
74400 On ch=1 n=d5 v=0
74480 On ch=1 n=d5 v=90
74560 On ch=1 n=d5 v=0
74640 On ch=1 n=d5 v=90
74720 On ch=1 n=d5 v=0
74800 On ch=1 n=d5 v=90
74880 On ch=1 n=d5 v=0
74880 On ch=1 n=c6 v=0
74880 On ch=1 n=g#5 v=0
74880 On ch=1 n=e5 v=0
74880 On ch=1 n=c5 v=0
74880 On ch=1 n=c5 v=110
74880 On ch=1 n=e5 v=110
74880 On ch=1 n=g#5 v=110
74880 On ch=1 n=c6 v=110
74960 On ch=1 n=a#4 v=90
75040 On ch=1 n=a#4 v=0
75040 On ch=1 n=a#5 v=90
75120 On ch=1 n=a#5 v=0
75120 On ch=1 n=a#5 v=90
75200 On ch=1 n=a#5 v=0
75200 On ch=1 n=a#6 v=90
75280 On ch=1 n=a#6 v=0
75280 On ch=1 n=a#6 v=90
75360 On ch=1 n=a#6 v=0
75360 On ch=1 n=a#7 v=90
75440 On ch=1 n=a#7 v=0
75440 On ch=1 n=a#6 v=90
75520 On ch=1 n=a#6 v=0
75520 On ch=1 n=a#6 v=90
75600 On ch=1 n=a#6 v=0
75600 On ch=1 n=a#5 v=90
75680 On ch=1 n=a#5 v=0
75680 On ch=1 n=a#5 v=90
75760 On ch=1 n=a#5 v=0
75760 On ch=1 n=a#4 v=90
75840 On ch=1 n=a#4 v=0
75920 On ch=1 n=d5 v=90
76000 On ch=1 n=d5 v=0
76080 On ch=1 n=d5 v=90
76160 On ch=1 n=d5 v=0
76240 On ch=1 n=d5 v=90
76320 On ch=1 n=d5 v=0
76400 On ch=1 n=d5 v=90
76480 On ch=1 n=d5 v=0
76560 On ch=1 n=d5 v=90
76640 On ch=1 n=d5 v=0
76720 On ch=1 n=d5 v=90
76800 On ch=1 n=d5 v=0
76800 On ch=1 n=c6 v=0
76800 On ch=1 n=g#5 v=0
76800 On ch=1 n=e5 v=0
76800 On ch=1 n=c5 v=0
76880 On ch=1 n=d5 v=80
76960 On ch=1 n=d5 v=0
77040 On ch=1 n=d5 v=80
77120 On ch=1 n=d5 v=0
77200 On ch=1 n=d5 v=80
77280 On ch=1 n=d5 v=0
77360 On ch=1 n=d5 v=70
77440 On ch=1 n=d5 v=0
77520 On ch=1 n=d5 v=70
77600 On ch=1 n=d5 v=0
77680 On ch=1 n=d5 v=70
77760 On ch=1 n=d5 v=0
77840 On ch=1 n=d5 v=60
77920 On ch=1 n=d5 v=0
78000 On ch=1 n=d5 v=60
78080 On ch=1 n=d5 v=0
78160 On ch=1 n=d5 v=60
78240 On ch=1 n=d5 v=0
78320 On ch=1 n=d5 v=50
78400 On ch=1 n=d5 v=0
78480 On ch=1 n=d5 v=50
78560 On ch=1 n=d5 v=0
78640 On ch=1 n=d5 v=50
78720 On ch=1 n=d5 v=0
78800 On ch=1 n=d5 v=40
78880 On ch=1 n=d5 v=0
78960 On ch=1 n=d5 v=40
79040 On ch=1 n=d5 v=0
79120 On ch=1 n=d5 v=40
79200 On ch=1 n=d5 v=0
79200 On ch=1 n=a#5 v=60
79280 On ch=1 n=d5 v=40
79360 On ch=1 n=d5 v=0
79440 On ch=1 n=a#4 v=60
79600 On ch=1 n=d5 v=40
79680 On ch=1 n=d5 v=0
79680 On ch=1 n=a#4 v=0
79680 On ch=1 n=a#5 v=0
79760 On ch=1 n=d5 v=40
79840 On ch=1 n=d5 v=0
79920 On ch=1 n=d5 v=40
80000 On ch=1 n=d5 v=0
80080 On ch=1 n=d5 v=40
80160 On ch=1 n=d5 v=0
80160 On ch=1 n=f#5 v=60
80240 On ch=1 n=d5 v=40
80320 On ch=1 n=d5 v=0
80400 On ch=1 n=f#4 v=60
80560 On ch=1 n=d5 v=40
80640 On ch=1 n=d5 v=0
80640 On ch=1 n=f#4 v=0
80640 On ch=1 n=f#5 v=0
80720 On ch=1 n=d5 v=40
80800 On ch=1 n=d5 v=0
80880 On ch=1 n=d5 v=40
80960 On ch=1 n=d5 v=0
81040 On ch=1 n=d5 v=40
81120 On ch=1 n=d5 v=0
81200 On ch=1 n=d5 v=40
81280 On ch=1 n=d5 v=0
81360 On ch=1 n=d5 v=40
81440 On ch=1 n=d5 v=0
81520 On ch=1 n=d5 v=40
81600 On ch=1 n=d5 v=0
81680 On ch=1 n=d5 v=40
81760 On ch=1 n=d5 v=0
81840 On ch=1 n=d5 v=40
81920 On ch=1 n=d5 v=0
82000 On ch=1 n=d5 v=40
82080 On ch=1 n=d5 v=0
82080 On ch=1 n=a5 v=60
82160 On ch=1 n=d5 v=40
82240 On ch=1 n=d5 v=0
82320 On ch=1 n=a4 v=60
82480 On ch=1 n=d5 v=40
82560 On ch=1 n=d5 v=0
82560 On ch=1 n=a4 v=0
82560 On ch=1 n=a5 v=0
82560 On ch=1 n=a#5 v=60
82640 On ch=1 n=d5 v=40
82720 On ch=1 n=d5 v=0
82800 On ch=1 n=a#4 v=60
82960 On ch=1 n=d5 v=40
83040 On ch=1 n=d5 v=0
83040 On ch=1 n=a#4 v=0
83040 On ch=1 n=a#5 v=0
83040 On ch=1 n=f#5 v=60
83120 On ch=1 n=d5 v=40
83200 On ch=1 n=d5 v=0
83280 On ch=1 n=f#4 v=60
83440 On ch=1 n=d5 v=40
83520 On ch=1 n=d5 v=0
83520 On ch=1 n=f#4 v=0
83520 On ch=1 n=f#5 v=0
83600 On ch=1 n=d5 v=40
83680 On ch=1 n=d5 v=0
83760 On ch=1 n=d5 v=40
83840 On ch=1 n=d5 v=0
83920 On ch=1 n=d5 v=40
84000 On ch=1 n=d5 v=0
84000 On ch=1 n=a#5 v=60
84080 On ch=1 n=d5 v=40
84160 On ch=1 n=d5 v=0
84240 On ch=1 n=a#4 v=60
84400 On ch=1 n=d5 v=40
84480 On ch=1 n=d5 v=0
84480 On ch=1 n=a#4 v=0
84480 On ch=1 n=a#5 v=0
84480 On ch=1 n=b5 v=60
84560 On ch=1 n=d5 v=40
84640 On ch=1 n=d5 v=0
84720 On ch=1 n=b4 v=60
84880 On ch=1 n=d5 v=40
84960 On ch=1 n=d5 v=0
84960 On ch=1 n=b4 v=0
84960 On ch=1 n=b5 v=0
84960 On ch=1 n=f#5 v=60
85040 On ch=1 n=d5 v=40
85120 On ch=1 n=d5 v=0
85200 On ch=1 n=f#4 v=60
85360 On ch=1 n=d5 v=40
85440 On ch=1 n=d5 v=0
85440 On ch=1 n=f#4 v=0
85440 On ch=1 n=f#5 v=0
85520 On ch=1 n=d5 v=50
85600 On ch=1 n=d5 v=0
85680 On ch=1 n=d5 v=50
85760 On ch=1 n=d5 v=0
85840 On ch=1 n=d5 v=50
85920 On ch=1 n=d5 v=0
86000 On ch=1 n=d5 v=60
86080 On ch=1 n=d5 v=0
86160 On ch=1 n=d5 v=60
86240 On ch=1 n=d5 v=0
86320 On ch=1 n=d5 v=60
86400 On ch=1 n=d5 v=0
86480 On ch=1 n=d5 v=70
86560 On ch=1 n=d5 v=0
86640 On ch=1 n=d5 v=70
86720 On ch=1 n=d5 v=0
86800 On ch=1 n=d5 v=70
86880 On ch=1 n=d5 v=0
86960 On ch=1 n=d5 v=80
87040 On ch=1 n=d5 v=0
87120 On ch=1 n=d5 v=80
87200 On ch=1 n=d5 v=0
87280 On ch=1 n=d5 v=80
87360 On ch=1 n=d5 v=0
87420 On ch=1 n=d5 v=90
87480 On ch=1 n=d5 v=0
87540 On ch=1 n=d5 v=90
87600 On ch=1 n=d5 v=0
87660 On ch=1 n=d#5 v=90
87720 On ch=1 n=d#5 v=0
87780 On ch=1 n=d#5 v=90
87840 On ch=1 n=d#5 v=0
87900 On ch=1 n=e5 v=100
87960 On ch=1 n=e5 v=0
88020 On ch=1 n=e5 v=100
88080 On ch=1 n=e5 v=0
88140 On ch=1 n=f5 v=100
88200 On ch=1 n=f5 v=0
88260 On ch=1 n=f5 v=100
88320 On ch=1 n=f5 v=0
88320 On ch=1 n=d#6 v=100
88400 On ch=1 n=f5 v=60
88480 On ch=1 n=f5 v=0
88560 On ch=1 n=d#5 v=100
88720 On ch=1 n=f5 v=60
88800 On ch=1 n=f5 v=0
88800 On ch=1 n=d#5 v=0
88800 On ch=1 n=d#6 v=0
88800 On ch=1 n=a#5 v=100
88880 On ch=1 n=f5 v=60
88960 On ch=1 n=f5 v=0
89040 On ch=1 n=a#4 v=100
89200 On ch=1 n=f5 v=60
89280 On ch=1 n=f5 v=0
89280 On ch=1 n=a#4 v=0
89280 On ch=1 n=a#5 v=0
89280 On ch=1 n=c#6 v=100
89360 On ch=1 n=f5 v=60
89440 On ch=1 n=f5 v=0
89520 On ch=1 n=c#5 v=100
89680 On ch=1 n=f5 v=60
89760 On ch=1 n=f5 v=0
89760 On ch=1 n=c#5 v=0
89760 On ch=1 n=c#6 v=0
89760 On ch=1 n=d#6 v=100
89840 On ch=1 n=f5 v=60
89920 On ch=1 n=f5 v=0
90000 On ch=1 n=d#5 v=100
90160 On ch=1 n=f5 v=60
90240 On ch=1 n=f5 v=0
90240 On ch=1 n=d#5 v=0
90240 On ch=1 n=d#6 v=0
90240 On ch=1 n=a#5 v=100
90320 On ch=1 n=f5 v=60
90400 On ch=1 n=f5 v=0
90480 On ch=1 n=a#4 v=100
90640 On ch=1 n=f5 v=60
90720 On ch=1 n=f5 v=0
90720 On ch=1 n=a#4 v=0
90720 On ch=1 n=a#5 v=0
90720 On ch=1 n=c#6 v=100
90800 On ch=1 n=f5 v=60
90880 On ch=1 n=f5 v=0
90960 On ch=1 n=c#5 v=100
91120 On ch=1 n=f5 v=60
91200 On ch=1 n=f5 v=0
91200 On ch=1 n=c#5 v=0
91280 On ch=1 n=f5 v=60
91360 On ch=1 n=f5 v=0
91440 On ch=1 n=f5 v=60
91520 On ch=1 n=f5 v=0
91600 On ch=1 n=f5 v=60
91680 On ch=1 n=f5 v=0
91680 On ch=1 n=c#6 v=0
91680 On ch=1 n=d6 v=100
91760 On ch=1 n=f5 v=60
91840 On ch=1 n=f5 v=0
91920 On ch=1 n=d5 v=100
92080 On ch=1 n=f5 v=60
92160 On ch=1 n=f5 v=0
92160 On ch=1 n=d5 v=0
92160 On ch=1 n=d6 v=0
92160 On ch=1 n=d#6 v=100
92240 On ch=1 n=g5 v=60
92320 On ch=1 n=g5 v=0
92400 On ch=1 n=d#5 v=60
92480 On ch=1 n=d#5 v=0
92560 On ch=1 n=g5 v=60
92640 On ch=1 n=g5 v=0
92640 On ch=1 n=d#6 v=0
92640 On ch=1 n=e6 v=100
92720 On ch=1 n=g#5 v=60
92800 On ch=1 n=g#5 v=0
92880 On ch=1 n=e5 v=60
92960 On ch=1 n=e5 v=0
93040 On ch=1 n=g#5 v=60
93120 On ch=1 n=g#5 v=0
93120 On ch=1 n=e6 v=0
93120 On ch=1 n=f6 v=100
93200 On ch=1 n=a5 v=60
93280 On ch=1 n=a5 v=0
93360 On ch=1 n=f5 v=60
93440 On ch=1 n=f5 v=0
93520 On ch=1 n=a5 v=60
93600 On ch=1 n=a5 v=0
93600 On ch=1 n=f6 v=0
93600 On ch=1 n=f#6 v=100
93680 On ch=1 n=a#5 v=60
93760 On ch=1 n=a#5 v=0
93840 On ch=1 n=f#5 v=60
93920 On ch=1 n=f#5 v=0
94000 On ch=1 n=a#5 v=60
94080 On ch=1 n=a#5 v=0
94080 On ch=1 n=f#6 v=0
94080 On ch=1 n=g6 v=100
94160 On ch=1 n=b5 v=60
94240 On ch=1 n=b5 v=0
94320 On ch=1 n=g5 v=60
94400 On ch=1 n=g5 v=0
94480 On ch=1 n=b5 v=60
94560 On ch=1 n=b5 v=0
94560 On ch=1 n=g6 v=0
94560 On ch=1 n=g#6 v=100
94640 On ch=1 n=c6 v=60
94720 On ch=1 n=c6 v=0
94800 On ch=1 n=g#5 v=60
94880 On ch=1 n=g#5 v=0
94960 On ch=1 n=c6 v=60
95040 On ch=1 n=c6 v=0
95040 On ch=1 n=g#6 v=0
95040 On ch=1 n=a6 v=100
95120 On ch=1 n=c#6 v=60
95200 On ch=1 n=c#6 v=0
95280 On ch=1 n=a5 v=60
95360 On ch=1 n=a5 v=0
95440 On ch=1 n=c#6 v=60
95520 On ch=1 n=c#6 v=0
95520 On ch=1 n=a6 v=0
95520 On ch=1 n=a#6 v=100
95600 On ch=1 n=d6 v=60
95680 On ch=1 n=d6 v=0
95760 On ch=1 n=a#5 v=60
95840 On ch=1 n=a#5 v=0
95920 On ch=1 n=d6 v=60
96000 On ch=1 n=d6 v=0
96000 On ch=1 n=a#6 v=0
96000 On ch=1 n=c#8 v=100
96080 On ch=1 n=c#8 v=0
96080 On ch=1 n=c#7 v=100
96160 On ch=1 n=c#7 v=0
96160 On ch=1 n=c#7 v=100
96240 On ch=1 n=c#7 v=0
96240 On ch=1 n=c#6 v=100
96320 On ch=1 n=c#6 v=0
96320 On ch=1 n=c#7 v=100
96400 On ch=1 n=c#7 v=0
96400 On ch=1 n=c#7 v=100
96480 On ch=1 n=c#7 v=0
96480 On ch=1 n=c#8 v=100
96560 On ch=1 n=c#8 v=0
96560 On ch=1 n=c#7 v=100
96640 On ch=1 n=c#7 v=0
96640 On ch=1 n=c#7 v=100
96720 On ch=1 n=c#7 v=0
96720 On ch=1 n=c#6 v=100
96800 On ch=1 n=c#6 v=0
96800 On ch=1 n=c#7 v=100
96880 On ch=1 n=c#7 v=0
96880 On ch=1 n=c#7 v=100
96960 On ch=1 n=c#7 v=0
96960 On ch=1 n=c#8 v=100
97040 On ch=1 n=c#8 v=0
97040 On ch=1 n=c#7 v=100
97120 On ch=1 n=c#7 v=0
97120 On ch=1 n=c#7 v=100
97200 On ch=1 n=c#7 v=0
97200 On ch=1 n=c#6 v=100
97280 On ch=1 n=c#6 v=0
97280 On ch=1 n=c#7 v=100
97360 On ch=1 n=c#7 v=0
97360 On ch=1 n=c#7 v=100
97440 On ch=1 n=c#7 v=0
97440 On ch=1 n=c#8 v=100
97520 On ch=1 n=c#8 v=0
97520 On ch=1 n=c#7 v=100
97600 On ch=1 n=c#7 v=0
97600 On ch=1 n=c#7 v=100
97680 On ch=1 n=c#7 v=0
97680 On ch=1 n=c#6 v=100
97760 On ch=1 n=c#6 v=0
97760 On ch=1 n=c#7 v=100
97840 On ch=1 n=c#7 v=0
97840 On ch=1 n=c#7 v=100
97920 On ch=1 n=c#7 v=0
97920 On ch=1 n=c#8 v=100
98000 On ch=1 n=c#8 v=0
98000 On ch=1 n=c#7 v=100
98080 On ch=1 n=c#7 v=0
98080 On ch=1 n=c#7 v=100
98160 On ch=1 n=c#7 v=0
98160 On ch=1 n=c#6 v=100
98240 On ch=1 n=c#6 v=0
98240 On ch=1 n=c#7 v=100
98320 On ch=1 n=c#7 v=0
98320 On ch=1 n=c#7 v=100
98400 On ch=1 n=c#7 v=0
98400 On ch=1 n=c#8 v=100
98480 On ch=1 n=c#8 v=0
98480 On ch=1 n=c#7 v=100
98560 On ch=1 n=c#7 v=0
98560 On ch=1 n=c#7 v=100
98640 On ch=1 n=c#7 v=0
98640 On ch=1 n=c#6 v=100
98720 On ch=1 n=c#6 v=0
98720 On ch=1 n=c#7 v=100
98800 On ch=1 n=c#7 v=0
98800 On ch=1 n=c#7 v=100
98880 On ch=1 n=c#7 v=0
98880 On ch=1 n=c#8 v=100
98960 On ch=1 n=c#8 v=0
98960 On ch=1 n=c#7 v=100
99040 On ch=1 n=c#7 v=0
99040 On ch=1 n=c#7 v=100
99120 On ch=1 n=c#7 v=0
99120 On ch=1 n=c#6 v=100
99200 On ch=1 n=c#6 v=0
99200 On ch=1 n=c#7 v=100
99280 On ch=1 n=c#7 v=0
99280 On ch=1 n=c#7 v=100
99360 On ch=1 n=c#7 v=0
99360 On ch=1 n=c#8 v=100
99440 On ch=1 n=c#8 v=0
99440 On ch=1 n=c#7 v=100
99520 On ch=1 n=c#7 v=0
99520 On ch=1 n=c#7 v=100
99600 On ch=1 n=c#7 v=0
99600 On ch=1 n=c#6 v=100
99680 On ch=1 n=c#6 v=0
99680 On ch=1 n=c#7 v=100
99760 On ch=1 n=c#7 v=0
99760 On ch=1 n=c#7 v=100
99840 On ch=1 n=c#7 v=0
99840 On ch=1 n=c#8 v=100
99920 On ch=1 n=c#8 v=0
99920 On ch=1 n=c#7 v=100
100000 On ch=1 n=c#7 v=0
100000 On ch=1 n=c#7 v=100
100080 On ch=1 n=c#7 v=0
100080 On ch=1 n=c#6 v=100
100160 On ch=1 n=c#6 v=0
100160 On ch=1 n=c#7 v=100
100240 On ch=1 n=c#7 v=0
100240 On ch=1 n=c#7 v=100
100320 On ch=1 n=c#7 v=0
100320 On ch=1 n=c#8 v=100
100400 On ch=1 n=c#8 v=0
100400 On ch=1 n=c#7 v=100
100480 On ch=1 n=c#7 v=0
100480 On ch=1 n=c#7 v=100
100560 On ch=1 n=c#7 v=0
100560 On ch=1 n=c#6 v=100
100640 On ch=1 n=c#6 v=0
100640 On ch=1 n=c#7 v=100
100720 On ch=1 n=c#7 v=0
100720 On ch=1 n=c#7 v=100
100800 On ch=1 n=c#7 v=0
100800 On ch=1 n=c#8 v=100
100880 On ch=1 n=c#8 v=0
100880 On ch=1 n=c#7 v=100
100960 On ch=1 n=c#7 v=0
100960 On ch=1 n=c#7 v=100
101040 On ch=1 n=c#7 v=0
101040 On ch=1 n=c#6 v=100
101120 On ch=1 n=c#6 v=0
101120 On ch=1 n=c#7 v=100
101200 On ch=1 n=c#7 v=0
101200 On ch=1 n=c#7 v=100
101280 On ch=1 n=c#7 v=0
101280 On ch=1 n=c#8 v=100
101360 On ch=1 n=c#8 v=0
101360 On ch=1 n=c#7 v=100
101440 On ch=1 n=c#7 v=0
101440 On ch=1 n=c#7 v=100
101520 On ch=1 n=c#7 v=0
101520 On ch=1 n=c#6 v=100
101600 On ch=1 n=c#6 v=0
101600 On ch=1 n=c#7 v=100
101680 On ch=1 n=c#7 v=0
101680 On ch=1 n=c#7 v=100
101760 On ch=1 n=c#7 v=0
101760 On ch=1 n=c#8 v=100
101840 On ch=1 n=c#8 v=0
101840 On ch=1 n=c#7 v=100
101920 On ch=1 n=c#7 v=0
101920 On ch=1 n=c#7 v=100
102000 On ch=1 n=c#7 v=0
102000 On ch=1 n=c#6 v=100
102080 On ch=1 n=c#6 v=0
102080 On ch=1 n=c#7 v=100
102160 On ch=1 n=c#7 v=0
102160 On ch=1 n=c#7 v=100
102240 On ch=1 n=c#7 v=0
102240 On ch=1 n=c#8 v=100
102320 On ch=1 n=c#8 v=0
102320 On ch=1 n=c#7 v=100
102400 On ch=1 n=c#7 v=0
102400 On ch=1 n=c#7 v=100
102480 On ch=1 n=c#7 v=0
102480 On ch=1 n=c#6 v=100
102560 On ch=1 n=c#6 v=0
102560 On ch=1 n=c#7 v=100
102640 On ch=1 n=c#7 v=0
102640 On ch=1 n=c#7 v=100
102720 On ch=1 n=c#7 v=0
102720 On ch=1 n=c#8 v=100
102800 On ch=1 n=c#8 v=0
102800 On ch=1 n=c#7 v=100
102880 On ch=1 n=c#7 v=0
102880 On ch=1 n=c#7 v=100
102960 On ch=1 n=c#7 v=0
102960 On ch=1 n=c#6 v=100
103040 On ch=1 n=c#6 v=0
103040 On ch=1 n=c#7 v=100
103120 On ch=1 n=c#7 v=0
103120 On ch=1 n=c#7 v=100
103200 On ch=1 n=c#7 v=0
103200 On ch=1 n=c#8 v=100
103280 On ch=1 n=c#8 v=0
103280 On ch=1 n=c#7 v=100
103360 On ch=1 n=c#7 v=0
103360 On ch=1 n=c#7 v=100
103440 On ch=1 n=c#7 v=0
103440 On ch=1 n=c#6 v=100
103520 On ch=1 n=c#6 v=0
103520 On ch=1 n=c#7 v=100
103600 On ch=1 n=c#7 v=0
103600 On ch=1 n=c#7 v=100
103680 On ch=1 n=c#7 v=0
103680 On ch=1 n=c#8 v=100
103760 On ch=1 n=c#8 v=0
103760 On ch=1 n=c#7 v=100
103840 On ch=1 n=c#7 v=0
103840 On ch=1 n=c#7 v=100
103920 On ch=1 n=c#7 v=0
103920 On ch=1 n=c#6 v=100
104000 On ch=1 n=c#6 v=0
104000 On ch=1 n=c#7 v=100
104080 On ch=1 n=c#7 v=0
104080 On ch=1 n=c#7 v=100
104160 On ch=1 n=c#7 v=0
104160 On ch=1 n=c#8 v=100
104240 On ch=1 n=c#8 v=0
104240 On ch=1 n=c#7 v=100
104320 On ch=1 n=c#7 v=0
104320 On ch=1 n=c#7 v=100
104400 On ch=1 n=c#7 v=0
104400 On ch=1 n=c#6 v=100
104480 On ch=1 n=c#6 v=0
104480 On ch=1 n=c#7 v=100
104560 On ch=1 n=c#7 v=0
104560 On ch=1 n=c#7 v=100
104640 On ch=1 n=c#7 v=0
104640 On ch=1 n=d#5 v=120
104640 On ch=1 n=f5 v=120
107520 On ch=1 n=f5 v=0
107520 On ch=1 n=d#5 v=0
107520 On ch=1 n=c#8 v=100
107600 On ch=1 n=c#8 v=0
107600 On ch=1 n=c#7 v=100
107680 On ch=1 n=c#7 v=0
107680 On ch=1 n=c#7 v=100
107760 On ch=1 n=c#7 v=0
107760 On ch=1 n=c#6 v=100
107840 On ch=1 n=c#6 v=0
107840 On ch=1 n=c#7 v=100
107920 On ch=1 n=c#7 v=0
107920 On ch=1 n=c#7 v=100
108000 On ch=1 n=c#7 v=0
108000 On ch=1 n=c#8 v=100
108080 On ch=1 n=c#8 v=0
108080 On ch=1 n=c#7 v=100
108160 On ch=1 n=c#7 v=0
108160 On ch=1 n=c#7 v=100
108240 On ch=1 n=c#7 v=0
108240 On ch=1 n=c#6 v=100
108320 On ch=1 n=c#6 v=0
108320 On ch=1 n=c#7 v=100
108400 On ch=1 n=c#7 v=0
108400 On ch=1 n=c#7 v=100
108480 On ch=1 n=c#7 v=0
108480 On ch=1 n=c#8 v=100
108560 On ch=1 n=c#8 v=0
108560 On ch=1 n=c#7 v=100
108640 On ch=1 n=c#7 v=0
108640 On ch=1 n=c#7 v=100
108720 On ch=1 n=c#7 v=0
108720 On ch=1 n=c#6 v=100
108800 On ch=1 n=c#6 v=0
108800 On ch=1 n=c#7 v=100
108880 On ch=1 n=c#7 v=0
108880 On ch=1 n=c#7 v=100
108960 On ch=1 n=c#7 v=0
108960 On ch=1 n=c#8 v=100
109040 On ch=1 n=c#8 v=0
109040 On ch=1 n=c#7 v=100
109120 On ch=1 n=c#7 v=0
109120 On ch=1 n=c#7 v=100
109200 On ch=1 n=c#7 v=0
109200 On ch=1 n=c#6 v=100
109280 On ch=1 n=c#6 v=0
109280 On ch=1 n=c#7 v=100
109360 On ch=1 n=c#7 v=0
109360 On ch=1 n=c#7 v=100
109440 On ch=1 n=c#7 v=0
109440 On ch=1 n=c#8 v=100
109520 On ch=1 n=c#8 v=0
109520 On ch=1 n=c#7 v=100
109600 On ch=1 n=c#7 v=0
109600 On ch=1 n=c#7 v=100
109680 On ch=1 n=c#7 v=0
109680 On ch=1 n=c#6 v=100
109760 On ch=1 n=c#6 v=0
109760 On ch=1 n=c#7 v=100
109840 On ch=1 n=c#7 v=0
109840 On ch=1 n=c#7 v=100
109920 On ch=1 n=c#7 v=0
109920 On ch=1 n=c#8 v=100
110000 On ch=1 n=c#8 v=0
110000 On ch=1 n=c#7 v=100
110080 On ch=1 n=c#7 v=0
110080 On ch=1 n=c#7 v=100
110160 On ch=1 n=c#7 v=0
110160 On ch=1 n=c#6 v=100
110240 On ch=1 n=c#6 v=0
110240 On ch=1 n=c#7 v=100
110320 On ch=1 n=c#7 v=0
110320 On ch=1 n=c#7 v=100
110400 On ch=1 n=c#7 v=0
110400 On ch=1 n=c#8 v=100
110480 On ch=1 n=c#8 v=0
110480 On ch=1 n=c#7 v=100
110560 On ch=1 n=c#7 v=0
110560 On ch=1 n=c#7 v=100
110640 On ch=1 n=c#7 v=0
110640 On ch=1 n=c#6 v=100
110720 On ch=1 n=c#6 v=0
110720 On ch=1 n=c#7 v=100
110800 On ch=1 n=c#7 v=0
110800 On ch=1 n=c#7 v=100
110880 On ch=1 n=c#7 v=0
110880 On ch=1 n=c#8 v=100
110960 On ch=1 n=c#8 v=0
110960 On ch=1 n=c#7 v=100
111040 On ch=1 n=c#7 v=0
111040 On ch=1 n=c#7 v=100
111120 On ch=1 n=c#7 v=0
111120 On ch=1 n=c#6 v=100
111200 On ch=1 n=c#6 v=0
111200 On ch=1 n=c#7 v=100
111280 On ch=1 n=c#7 v=0
111280 On ch=1 n=c#7 v=100
111360 On ch=1 n=c#7 v=0
111360 On ch=1 n=c#8 v=100
111440 On ch=1 n=c#8 v=0
111440 On ch=1 n=c#7 v=100
111520 On ch=1 n=c#7 v=0
111520 On ch=1 n=c#7 v=100
111600 On ch=1 n=c#7 v=0
111600 On ch=1 n=c#6 v=100
111680 On ch=1 n=c#6 v=0
111680 On ch=1 n=c#7 v=100
111760 On ch=1 n=c#7 v=0
111760 On ch=1 n=c#7 v=100
111840 On ch=1 n=c#7 v=0
111840 On ch=1 n=c#8 v=100
111920 On ch=1 n=c#8 v=0
111920 On ch=1 n=c#7 v=100
112000 On ch=1 n=c#7 v=0
112000 On ch=1 n=c#7 v=100
112080 On ch=1 n=c#7 v=0
112080 On ch=1 n=c#6 v=100
112160 On ch=1 n=c#6 v=0
112160 On ch=1 n=c#7 v=100
112240 On ch=1 n=c#7 v=0
112240 On ch=1 n=c#7 v=100
112320 On ch=1 n=c#7 v=0
112320 On ch=1 n=c#8 v=100
112400 On ch=1 n=c#8 v=0
112400 On ch=1 n=c#7 v=100
112480 On ch=1 n=c#7 v=0
112480 On ch=1 n=c#7 v=100
112560 On ch=1 n=c#7 v=0
112560 On ch=1 n=c#6 v=100
112640 On ch=1 n=c#6 v=0
112640 On ch=1 n=c#7 v=100
112720 On ch=1 n=c#7 v=0
112720 On ch=1 n=c#7 v=100
112800 On ch=1 n=c#7 v=0
112800 On ch=1 n=c#8 v=100
112880 On ch=1 n=c#8 v=0
112880 On ch=1 n=c#7 v=100
112960 On ch=1 n=c#7 v=0
112960 On ch=1 n=c#7 v=100
113040 On ch=1 n=c#7 v=0
113040 On ch=1 n=c#6 v=100
113120 On ch=1 n=c#6 v=0
113120 On ch=1 n=c#7 v=100
113200 On ch=1 n=c#7 v=0
113200 On ch=1 n=c#7 v=100
113280 On ch=1 n=c#7 v=0
113280 On ch=1 n=c#8 v=100
113360 On ch=1 n=c#8 v=0
113360 On ch=1 n=c#7 v=100
113440 On ch=1 n=c#7 v=0
113440 On ch=1 n=c#7 v=100
113520 On ch=1 n=c#7 v=0
113520 On ch=1 n=c#6 v=100
113600 On ch=1 n=c#6 v=0
113600 On ch=1 n=c#7 v=100
113680 On ch=1 n=c#7 v=0
113680 On ch=1 n=c#7 v=100
113760 On ch=1 n=c#7 v=0
113760 On ch=1 n=c#8 v=100
113840 On ch=1 n=c#8 v=0
113840 On ch=1 n=c#7 v=100
113920 On ch=1 n=c#7 v=0
113920 On ch=1 n=c#7 v=100
114000 On ch=1 n=c#7 v=0
114000 On ch=1 n=c#6 v=100
114080 On ch=1 n=c#6 v=0
114080 On ch=1 n=c#7 v=100
114160 On ch=1 n=c#7 v=0
114160 On ch=1 n=c#7 v=100
114240 On ch=1 n=c#7 v=0
114240 On ch=1 n=c#8 v=100
114320 On ch=1 n=c#8 v=0
114320 On ch=1 n=c#7 v=100
114400 On ch=1 n=c#7 v=0
114400 On ch=1 n=c#7 v=100
114480 On ch=1 n=c#7 v=0
114480 On ch=1 n=c#6 v=100
114560 On ch=1 n=c#6 v=0
114560 On ch=1 n=c#7 v=100
114640 On ch=1 n=c#7 v=0
114640 On ch=1 n=c#7 v=100
114720 On ch=1 n=c#7 v=0
114720 On ch=1 n=c#8 v=100
114800 On ch=1 n=c#8 v=0
114800 On ch=1 n=c#7 v=100
114880 On ch=1 n=c#7 v=0
114880 On ch=1 n=c#7 v=100
114960 On ch=1 n=c#7 v=0
114960 On ch=1 n=c#6 v=100
115040 On ch=1 n=c#6 v=0
115040 On ch=1 n=c#7 v=100
115120 On ch=1 n=c#7 v=0
115120 On ch=1 n=c#7 v=100
115200 On ch=1 n=c#7 v=0
115200 On ch=1 n=c#8 v=100
115280 On ch=1 n=c#8 v=0
115280 On ch=1 n=c#7 v=100
115360 On ch=1 n=c#7 v=0
115360 On ch=1 n=c#7 v=100
115440 On ch=1 n=c#7 v=0
115440 On ch=1 n=c#6 v=100
115520 On ch=1 n=c#6 v=0
115520 On ch=1 n=c#7 v=100
115600 On ch=1 n=c#7 v=0
115600 On ch=1 n=c#7 v=100
115680 On ch=1 n=c#7 v=0
115680 On ch=1 n=c#8 v=100
115760 On ch=1 n=c#8 v=0
115760 On ch=1 n=c#7 v=100
115840 On ch=1 n=c#7 v=0
115840 On ch=1 n=c#7 v=100
115920 On ch=1 n=c#7 v=0
115920 On ch=1 n=c#6 v=100
116000 On ch=1 n=c#6 v=0
116000 On ch=1 n=c#7 v=100
116080 On ch=1 n=c#7 v=0
116080 On ch=1 n=c#7 v=100
116160 On ch=1 n=c#7 v=0
116160 On ch=1 n=d#5 v=120
116160 On ch=1 n=f5 v=120
119040 On ch=1 n=f5 v=0
119040 On ch=1 n=d#5 v=0
121040 On ch=1 n=f#5 v=70
121040 On ch=1 n=d#5 v=70
121040 On ch=1 n=b4 v=70
121120 On ch=1 n=b4 v=0
121120 On ch=1 n=d#5 v=0
121120 On ch=1 n=f#5 v=0
121200 On ch=1 n=f5 v=70
121200 On ch=1 n=d#5 v=70
121200 On ch=1 n=b4 v=70
121280 On ch=1 n=b4 v=0
121280 On ch=1 n=d#5 v=0
121280 On ch=1 n=f5 v=0
121360 On ch=1 n=a#5 v=70
121360 On ch=1 n=d#5 v=70
121360 On ch=1 n=b4 v=70
121440 On ch=1 n=b4 v=0
121440 On ch=1 n=d#5 v=0
121440 On ch=1 n=a#5 v=0
121520 On ch=1 n=g#5 v=70
121520 On ch=1 n=d#5 v=70
121520 On ch=1 n=b4 v=70
121600 On ch=1 n=b4 v=0
121600 On ch=1 n=d#5 v=0
121600 On ch=1 n=g#5 v=0
121680 On ch=1 n=f#5 v=70
121680 On ch=1 n=d#5 v=70
121680 On ch=1 n=b4 v=70
121760 On ch=1 n=b4 v=0
121760 On ch=1 n=d#5 v=0
121760 On ch=1 n=f#5 v=0
121840 On ch=1 n=f5 v=70
121840 On ch=1 n=d#5 v=70
121840 On ch=1 n=b4 v=70
121920 On ch=1 n=b4 v=0
121920 On ch=1 n=d#5 v=0
121920 On ch=1 n=f5 v=0
122000 On ch=1 n=a#5 v=70
122000 On ch=1 n=f#5 v=70
122000 On ch=1 n=d#5 v=70
122080 On ch=1 n=d#5 v=0
122080 On ch=1 n=f#5 v=0
122080 On ch=1 n=a#5 v=0
122160 On ch=1 n=g#5 v=70
122160 On ch=1 n=f#5 v=70
122160 On ch=1 n=d#5 v=70
122240 On ch=1 n=d#5 v=0
122240 On ch=1 n=f#5 v=0
122240 On ch=1 n=g#5 v=0
122320 On ch=1 n=c#6 v=70
122320 On ch=1 n=f#5 v=70
122320 On ch=1 n=d#5 v=70
122400 On ch=1 n=d#5 v=0
122400 On ch=1 n=f#5 v=0
122400 On ch=1 n=c#6 v=0
122480 On ch=1 n=b5 v=80
122480 On ch=1 n=f#5 v=80
122480 On ch=1 n=d#5 v=80
122560 On ch=1 n=d#5 v=0
122560 On ch=1 n=f#5 v=0
122560 On ch=1 n=b5 v=0
122640 On ch=1 n=a#5 v=80
122640 On ch=1 n=f#5 v=80
122640 On ch=1 n=d#5 v=80
122720 On ch=1 n=d#5 v=0
122720 On ch=1 n=f#5 v=0
122720 On ch=1 n=a#5 v=0
122800 On ch=1 n=g#5 v=80
122800 On ch=1 n=f#5 v=80
122800 On ch=1 n=d#5 v=80
122880 On ch=1 n=d#5 v=0
122880 On ch=1 n=f#5 v=0
122880 On ch=1 n=g#5 v=0
122960 On ch=1 n=f#6 v=80
122960 On ch=1 n=d#6 v=80
122960 On ch=1 n=b5 v=80
123040 On ch=1 n=b5 v=0
123040 On ch=1 n=d#6 v=0
123040 On ch=1 n=f#6 v=0
123120 On ch=1 n=f6 v=80
123120 On ch=1 n=d#6 v=80
123120 On ch=1 n=b5 v=80
123200 On ch=1 n=b5 v=0
123200 On ch=1 n=d#6 v=0
123200 On ch=1 n=f6 v=0
123280 On ch=1 n=a#6 v=80
123280 On ch=1 n=d#6 v=80
123280 On ch=1 n=b5 v=80
123360 On ch=1 n=b5 v=0
123360 On ch=1 n=d#6 v=0
123360 On ch=1 n=a#6 v=0
123440 On ch=1 n=g#6 v=80
123440 On ch=1 n=d#6 v=80
123440 On ch=1 n=b5 v=80
123520 On ch=1 n=b5 v=0
123520 On ch=1 n=d#6 v=0
123520 On ch=1 n=g#6 v=0
123600 On ch=1 n=f#6 v=80
123600 On ch=1 n=d#6 v=80
123600 On ch=1 n=b5 v=80
123680 On ch=1 n=b5 v=0
123680 On ch=1 n=d#6 v=0
123680 On ch=1 n=f#6 v=0
123760 On ch=1 n=f6 v=80
123760 On ch=1 n=d#6 v=80
123760 On ch=1 n=b5 v=80
123840 On ch=1 n=b5 v=0
123840 On ch=1 n=d#6 v=0
123840 On ch=1 n=f6 v=0
123920 On ch=1 n=a#6 v=90
123920 On ch=1 n=f#6 v=90
123920 On ch=1 n=d#6 v=90
124000 On ch=1 n=d#6 v=0
124000 On ch=1 n=f#6 v=0
124000 On ch=1 n=a#6 v=0
124080 On ch=1 n=g#6 v=90
124080 On ch=1 n=f#6 v=90
124080 On ch=1 n=d#6 v=90
124160 On ch=1 n=d#6 v=0
124160 On ch=1 n=f#6 v=0
124160 On ch=1 n=g#6 v=0
124240 On ch=1 n=c#7 v=90
124240 On ch=1 n=f#6 v=90
124240 On ch=1 n=d#6 v=90
124320 On ch=1 n=d#6 v=0
124320 On ch=1 n=f#6 v=0
124320 On ch=1 n=c#7 v=0
124400 On ch=1 n=b6 v=90
124400 On ch=1 n=f#6 v=90
124400 On ch=1 n=d#6 v=90
124480 On ch=1 n=d#6 v=0
124480 On ch=1 n=f#6 v=0
124480 On ch=1 n=b6 v=0
124560 On ch=1 n=a#6 v=90
124560 On ch=1 n=f#6 v=90
124560 On ch=1 n=d#6 v=90
124640 On ch=1 n=d#6 v=0
124640 On ch=1 n=f#6 v=0
124640 On ch=1 n=a#6 v=0
124720 On ch=1 n=g#6 v=90
124720 On ch=1 n=f#6 v=90
124720 On ch=1 n=d#6 v=90
124800 On ch=1 n=d#6 v=0
124800 On ch=1 n=f#6 v=0
124800 On ch=1 n=g#6 v=0
124880 On ch=1 n=c#7 v=100
124880 On ch=1 n=g#6 v=100
124880 On ch=1 n=f6 v=100
124880 On ch=1 n=c#6 v=100
124960 On ch=1 n=c#6 v=0
124960 On ch=1 n=f6 v=0
124960 On ch=1 n=g#6 v=0
124960 On ch=1 n=c#7 v=0
125040 On ch=1 n=a6 v=100
125040 On ch=1 n=f#6 v=100
125040 On ch=1 n=d6 v=100
125040 On ch=1 n=d7 v=100
125120 On ch=1 n=d7 v=0
125120 On ch=1 n=d6 v=0
125120 On ch=1 n=f#6 v=0
125120 On ch=1 n=a6 v=0
125200 On ch=1 n=d#7 v=100
125200 On ch=1 n=a#6 v=100
125200 On ch=1 n=g6 v=100
125200 On ch=1 n=d#6 v=100
125280 On ch=1 n=d#6 v=0
125280 On ch=1 n=g6 v=0
125280 On ch=1 n=a#6 v=0
125280 On ch=1 n=d#7 v=0
125360 On ch=1 n=e7 v=105
125360 On ch=1 n=b6 v=105
125360 On ch=1 n=g#6 v=105
125360 On ch=1 n=e6 v=105
125440 On ch=1 n=e6 v=0
125440 On ch=1 n=g#6 v=0
125440 On ch=1 n=b6 v=0
125440 On ch=1 n=e7 v=0
125520 On ch=1 n=c7 v=105
125520 On ch=1 n=a6 v=105
125520 On ch=1 n=f6 v=105
125520 On ch=1 n=f7 v=105
125600 On ch=1 n=f7 v=0
125600 On ch=1 n=f6 v=0
125600 On ch=1 n=a6 v=0
125600 On ch=1 n=c7 v=0
125680 On ch=1 n=f#7 v=105
125680 On ch=1 n=c#7 v=105
125680 On ch=1 n=a#6 v=105
125680 On ch=1 n=f#6 v=105
125760 On ch=1 n=f#6 v=0
125760 On ch=1 n=a#6 v=0
125760 On ch=1 n=c#7 v=0
125760 On ch=1 n=f#7 v=0
125840 On ch=1 n=g7 v=110
125840 On ch=1 n=d7 v=110
125840 On ch=1 n=b6 v=110
125840 On ch=1 n=g6 v=110
125920 On ch=1 n=g6 v=0
125920 On ch=1 n=b6 v=0
125920 On ch=1 n=d7 v=0
125920 On ch=1 n=g7 v=0
126000 On ch=1 n=d#7 v=110
126000 On ch=1 n=c7 v=110
126000 On ch=1 n=g#6 v=110
126000 On ch=1 n=g#7 v=110
126080 On ch=1 n=g#7 v=0
126080 On ch=1 n=g#6 v=0
126080 On ch=1 n=c7 v=0
126080 On ch=1 n=d#7 v=0
126160 On ch=1 n=a7 v=110
126160 On ch=1 n=e7 v=110
126160 On ch=1 n=c#7 v=110
126160 On ch=1 n=a6 v=110
126240 On ch=1 n=a6 v=0
126240 On ch=1 n=c#7 v=0
126240 On ch=1 n=e7 v=0
126240 On ch=1 n=a7 v=0
126320 On ch=1 n=a#7 v=115
126320 On ch=1 n=f7 v=115
126320 On ch=1 n=d7 v=115
126320 On ch=1 n=a#6 v=115
126400 On ch=1 n=a#6 v=0
126400 On ch=1 n=d7 v=0
126400 On ch=1 n=f7 v=0
126400 On ch=1 n=a#7 v=0
126480 On ch=1 n=f#7 v=115
126480 On ch=1 n=d#7 v=115
126480 On ch=1 n=b6 v=115
126480 On ch=1 n=b7 v=115
126560 On ch=1 n=b7 v=0
126560 On ch=1 n=b6 v=0
126560 On ch=1 n=d#7 v=0
126560 On ch=1 n=f#7 v=0
126640 On ch=1 n=c8 v=115
126640 On ch=1 n=g7 v=115
126640 On ch=1 n=e7 v=115
126640 On ch=1 n=c7 v=115
126720 On ch=1 n=c7 v=0
126720 On ch=1 n=e7 v=0
126720 On ch=1 n=g7 v=0
126720 On ch=1 n=c8 v=0
126720 On ch=1 n=d#8 v=100
126780 On ch=1 n=d#8 v=0
126780 On ch=1 n=d#7 v=100
126840 On ch=1 n=d#7 v=0
126840 On ch=1 n=d#8 v=100
126900 On ch=1 n=d#8 v=0
126900 On ch=1 n=d#7 v=100
126960 On ch=1 n=d#7 v=0
126960 On ch=1 n=d#8 v=100
127020 On ch=1 n=d#8 v=0
127020 On ch=1 n=d#7 v=100
127080 On ch=1 n=d#7 v=0
127080 On ch=1 n=d#8 v=100
127140 On ch=1 n=d#8 v=0
127140 On ch=1 n=d#7 v=100
127200 On ch=1 n=d#7 v=0
127200 On ch=1 n=d#8 v=100
127260 On ch=1 n=d#8 v=0
127260 On ch=1 n=d#7 v=100
127320 On ch=1 n=d#7 v=0
127320 On ch=1 n=d#8 v=100
127380 On ch=1 n=d#8 v=0
127380 On ch=1 n=d#7 v=100
127440 On ch=1 n=d#7 v=0
127440 On ch=1 n=d#8 v=100
127500 On ch=1 n=d#8 v=0
127500 On ch=1 n=d#7 v=100
127560 On ch=1 n=d#7 v=0
127560 On ch=1 n=d#8 v=100
127620 On ch=1 n=d#8 v=0
127620 On ch=1 n=d#7 v=100
127680 On ch=1 n=d#7 v=0
127680 On ch=1 n=d#8 v=100
127740 On ch=1 n=d#8 v=0
127740 On ch=1 n=d#7 v=100
127800 On ch=1 n=d#7 v=0
127800 On ch=1 n=d#8 v=100
127860 On ch=1 n=d#8 v=0
127860 On ch=1 n=d#7 v=100
127920 On ch=1 n=d#7 v=0
127920 On ch=1 n=d#8 v=100
127980 On ch=1 n=d#8 v=0
127980 On ch=1 n=d#7 v=100
128040 On ch=1 n=d#7 v=0
128040 On ch=1 n=d#8 v=100
128100 On ch=1 n=d#8 v=0
128100 On ch=1 n=d#7 v=100
128160 On ch=1 n=d#7 v=0
128160 On ch=1 n=d#8 v=100
128220 On ch=1 n=d#8 v=0
128220 On ch=1 n=d#7 v=100
128280 On ch=1 n=d#7 v=0
128280 On ch=1 n=d#8 v=100
128340 On ch=1 n=d#8 v=0
128340 On ch=1 n=d#7 v=100
128400 On ch=1 n=d#7 v=0
128400 On ch=1 n=d#8 v=100
128460 On ch=1 n=d#8 v=0
128460 On ch=1 n=d#7 v=100
128520 On ch=1 n=d#7 v=0
128520 On ch=1 n=d#8 v=100
128580 On ch=1 n=d#8 v=0
128580 On ch=1 n=d#7 v=100
128640 On ch=1 n=d#7 v=0
128640 On ch=1 n=d#8 v=100
128700 On ch=1 n=d#8 v=0
128700 On ch=1 n=d#7 v=100
128760 On ch=1 n=d#7 v=0
128760 On ch=1 n=d#8 v=100
128820 On ch=1 n=d#8 v=0
128820 On ch=1 n=d#7 v=100
128880 On ch=1 n=d#7 v=0
128880 On ch=1 n=d#8 v=100
128940 On ch=1 n=d#8 v=0
128940 On ch=1 n=d#7 v=100
129000 On ch=1 n=d#7 v=0
129000 On ch=1 n=d#8 v=100
129060 On ch=1 n=d#8 v=0
129060 On ch=1 n=d#7 v=100
129120 On ch=1 n=d#7 v=0
129120 On ch=1 n=g8 v=100
129180 On ch=1 n=g8 v=0
129180 On ch=1 n=g7 v=100
129240 On ch=1 n=g7 v=0
129240 On ch=1 n=g8 v=100
129300 On ch=1 n=g8 v=0
129300 On ch=1 n=g7 v=100
129360 On ch=1 n=g7 v=0
129360 On ch=1 n=g8 v=100
129420 On ch=1 n=g8 v=0
129420 On ch=1 n=g7 v=100
129480 On ch=1 n=g7 v=0
129480 On ch=1 n=g8 v=100
129540 On ch=1 n=g8 v=0
129540 On ch=1 n=g7 v=100
129600 On ch=1 n=g7 v=0
129600 On ch=1 n=g8 v=100
129660 On ch=1 n=g8 v=0
129660 On ch=1 n=g7 v=100
129720 On ch=1 n=g7 v=0
129720 On ch=1 n=g8 v=100
129780 On ch=1 n=g8 v=0
129780 On ch=1 n=g7 v=100
129840 On ch=1 n=g7 v=0
129840 On ch=1 n=f#8 v=100
129900 On ch=1 n=f#8 v=0
129900 On ch=1 n=f#7 v=100
129960 On ch=1 n=f#7 v=0
129960 On ch=1 n=f#8 v=100
130020 On ch=1 n=f#8 v=0
130020 On ch=1 n=f#7 v=100
130080 On ch=1 n=f#7 v=0
130080 On ch=1 n=f8 v=100
130140 On ch=1 n=f8 v=0
130140 On ch=1 n=f7 v=100
130200 On ch=1 n=f7 v=0
130200 On ch=1 n=f8 v=100
130260 On ch=1 n=f8 v=0
130260 On ch=1 n=f7 v=100
130320 On ch=1 n=f7 v=0
130320 On ch=1 n=e8 v=100
130380 On ch=1 n=e8 v=0
130380 On ch=1 n=e7 v=100
130440 On ch=1 n=e7 v=0
130440 On ch=1 n=e8 v=100
130500 On ch=1 n=e8 v=0
130500 On ch=1 n=e7 v=100
130560 On ch=1 n=e7 v=0
130560 On ch=1 n=d#8 v=100
130620 On ch=1 n=d#8 v=0
130620 On ch=1 n=d#7 v=100
130680 On ch=1 n=d#7 v=0
130680 On ch=1 n=d#7 v=100
130740 On ch=1 n=d#7 v=0
130740 On ch=1 n=d#6 v=100
130800 On ch=1 n=d#6 v=0
130800 On ch=1 n=d#6 v=120
130800 On ch=1 n=c#6 v=120
130800 On ch=1 n=a#5 v=120
130800 On ch=1 n=g5 v=120
131280 On ch=1 n=g5 v=0
131280 On ch=1 n=a#5 v=0
131280 On ch=1 n=c#6 v=0
131280 On ch=1 n=d#6 v=0
131280 On ch=1 n=b5 v=120
131280 On ch=1 n=a5 v=120
131280 On ch=1 n=f#5 v=120
131280 On ch=1 n=d#5 v=120
131520 On ch=1 n=d#5 v=0
131520 On ch=1 n=f#5 v=0
131520 On ch=1 n=a5 v=0
131520 On ch=1 n=b5 v=0
131520 On ch=1 n=c#6 v=120
131520 On ch=1 n=b5 v=120
131520 On ch=1 n=g#5 v=120
131520 On ch=1 n=f5 v=120
131880 On ch=1 n=f5 v=0
131880 On ch=1 n=g#5 v=0
131880 On ch=1 n=b5 v=0
131880 On ch=1 n=c#6 v=0
131880 On ch=1 n=d#6 v=120
131880 On ch=1 n=b5 v=120
131880 On ch=1 n=a5 v=120
131880 On ch=1 n=f#5 v=120
132000 On ch=1 n=f#5 v=0
132000 On ch=1 n=a5 v=0
132000 On ch=1 n=b5 v=0
132000 On ch=1 n=d#6 v=0
132000 On ch=1 n=f6 v=120
132000 On ch=1 n=c#6 v=120
132000 On ch=1 n=b5 v=120
132000 On ch=1 n=g#5 v=120
132240 On ch=1 n=g#5 v=0
132240 On ch=1 n=b5 v=0
132240 On ch=1 n=c#6 v=0
132240 On ch=1 n=f6 v=0
132240 On ch=1 n=c#6 v=120
132240 On ch=1 n=b5 v=120
132240 On ch=1 n=g#5 v=120
132240 On ch=1 n=f5 v=120
132480 On ch=1 n=f5 v=0
132480 On ch=1 n=g#5 v=0
132480 On ch=1 n=b5 v=0
132480 On ch=1 n=c#6 v=0
132480 On ch=1 n=d#6 v=120
132480 On ch=1 n=b5 v=120
132480 On ch=1 n=a5 v=120
132480 On ch=1 n=f#5 v=120
132720 On ch=1 n=f#5 v=0
132720 On ch=1 n=a5 v=0
132720 On ch=1 n=b5 v=0
132720 On ch=1 n=d#6 v=0
132720 On ch=1 n=b5 v=120
132720 On ch=1 n=a5 v=120
132720 On ch=1 n=f#5 v=120
132720 On ch=1 n=d#5 v=120
132960 On ch=1 n=d#5 v=0
132960 On ch=1 n=f#5 v=0
132960 On ch=1 n=a5 v=0
132960 On ch=1 n=b5 v=0
132960 On ch=1 n=g5 v=120
132960 On ch=1 n=b4 v=120
132960 On ch=1 n=d5 v=120
132960 On ch=1 n=f5 v=120
133040 On ch=1 n=d#5 v=100
133120 On ch=1 n=d#5 v=0
133120 On ch=1 n=d#6 v=100
133200 On ch=1 n=d#6 v=0
133200 On ch=1 n=d#6 v=100
133280 On ch=1 n=d#6 v=0
133280 On ch=1 n=d#7 v=100
133360 On ch=1 n=d#7 v=0
133360 On ch=1 n=d#7 v=100
133440 On ch=1 n=d#7 v=0
133440 On ch=1 n=d#8 v=100
133560 On ch=1 n=d#8 v=0
133920 On ch=1 n=f5 v=0
133920 On ch=1 n=d5 v=0
133920 On ch=1 n=b4 v=0
133920 On ch=1 n=g5 v=0
133920 On ch=1 n=a#5 v=120
133920 On ch=1 n=g#5 v=120
133920 On ch=1 n=e5 v=120
133920 On ch=1 n=c#5 v=120
134400 On ch=1 n=c#5 v=0
134400 On ch=1 n=e5 v=0
134400 On ch=1 n=g#5 v=0
134400 On ch=1 n=a#5 v=0
134400 On ch=1 n=f5 v=120
134400 On ch=1 n=d#5 v=120
134400 On ch=1 n=b4 v=120
134400 On ch=1 n=a4 v=120
134480 On ch=1 n=d#7 v=90
134560 On ch=1 n=d#7 v=0
134560 On ch=1 n=d#6 v=90
134640 On ch=1 n=d#6 v=0
134640 On ch=1 n=d#7 v=90
134720 On ch=1 n=d#7 v=0
134720 On ch=1 n=d#6 v=90
134800 On ch=1 n=d#6 v=0
134800 On ch=1 n=d#6 v=90
134880 On ch=1 n=d#6 v=0
134880 On ch=1 n=d#5 v=90
134960 On ch=1 n=d#5 v=0
135840 On ch=1 n=d#5 v=0
135840 On ch=1 n=a4 v=0
135840 On ch=1 n=b4 v=0
135840 On ch=1 n=f5 v=0
135840 On ch=1 n=g#5 v=120
135840 On ch=1 n=f#5 v=120
135840 On ch=1 n=d5 v=120
135840 On ch=1 n=c5 v=120
136320 On ch=1 n=c5 v=0
136320 On ch=1 n=d5 v=0
136320 On ch=1 n=f#5 v=0
136320 On ch=1 n=g#5 v=0
153000 On ch=1 n=d6 v=105
153120 On ch=1 n=d6 v=0
153120 On ch=1 n=c6 v=105
153240 On ch=1 n=c6 v=0
153240 On ch=1 n=a5 v=105
153360 On ch=1 n=a5 v=0
153360 On ch=1 n=f#5 v=105
153480 On ch=1 n=f#5 v=0
153480 On ch=1 n=c5 v=105
153600 On ch=1 n=c5 v=0
153960 On ch=1 n=d7 v=110
154080 On ch=1 n=d7 v=0
154080 On ch=1 n=c7 v=110
154200 On ch=1 n=c7 v=0
154200 On ch=1 n=a6 v=110
154320 On ch=1 n=a6 v=0
154320 On ch=1 n=f#6 v=110
154440 On ch=1 n=f#6 v=0
154440 On ch=1 n=c6 v=110
154560 On ch=1 n=c6 v=0
154920 On ch=1 n=d8 v=115
155040 On ch=1 n=d8 v=0
155040 On ch=1 n=c8 v=115
155160 On ch=1 n=c8 v=0
155160 On ch=1 n=a7 v=115
155280 On ch=1 n=a7 v=0
155280 On ch=1 n=f#7 v=115
155400 On ch=1 n=f#7 v=0
155400 On ch=1 n=c7 v=115
155520 On ch=1 n=c7 v=0
155880 On ch=1 n=d7 v=120
156000 On ch=1 n=d7 v=0
156000 On ch=1 n=c7 v=120
156120 On ch=1 n=c7 v=0
156120 On ch=1 n=a6 v=120
156240 On ch=1 n=a6 v=0
156240 On ch=1 n=f#6 v=120
156360 On ch=1 n=f#6 v=0
156360 On ch=1 n=c6 v=120
156480 On ch=1 n=c6 v=0
156840 On ch=1 n=d6 v=120
156960 On ch=1 n=d6 v=0
156960 On ch=1 n=c6 v=120
157080 On ch=1 n=c6 v=0
157080 On ch=1 n=a5 v=120
157200 On ch=1 n=a5 v=0
157200 On ch=1 n=f#5 v=120
157320 On ch=1 n=f#5 v=0
157320 On ch=1 n=c5 v=120
157440 On ch=1 n=c5 v=0
164160 On ch=1 n=g#4 v=60
164160 On ch=1 n=c5 v=60
164160 On ch=1 n=d#5 v=60
164160 On ch=1 n=g#5 v=60
165120 On ch=1 n=g#5 v=0
165120 On ch=1 n=d#5 v=0
165120 On ch=1 n=c5 v=0
165120 On ch=1 n=g#4 v=0
165120 On ch=1 n=d6 v=60
165120 On ch=1 n=a5 v=60
165120 On ch=1 n=f#5 v=60
165120 On ch=1 n=d5 v=60
166080 On ch=1 n=d5 v=0
166080 On ch=1 n=f#5 v=0
166080 On ch=1 n=a5 v=0
166080 On ch=1 n=d6 v=0
166080 On ch=1 n=g#4 v=60
166080 On ch=1 n=c5 v=60
166080 On ch=1 n=d#5 v=60
166080 On ch=1 n=g#5 v=60
167040 On ch=1 n=g#5 v=0
167040 On ch=1 n=d#5 v=0
167040 On ch=1 n=c5 v=0
167040 On ch=1 n=g#4 v=0
183520 On ch=1 n=a4 v=80
183520 On ch=1 n=c5 v=80
183520 On ch=1 n=d5 v=80
183800 On ch=1 n=d5 v=0
183800 On ch=1 n=e5 v=80
183840 On ch=1 n=e5 v=0
183840 On ch=1 n=c5 v=0
183840 On ch=1 n=c5 v=90
184000 On ch=1 n=c5 v=0
184000 On ch=1 n=d5 v=90
184160 On ch=1 n=d5 v=0
184160 On ch=1 n=e5 v=90
184320 On ch=1 n=e5 v=0
184320 On ch=1 n=a4 v=0
184480 On ch=1 n=a5 v=100
184480 On ch=1 n=c6 v=100
184480 On ch=1 n=d6 v=100
184760 On ch=1 n=d6 v=0
184760 On ch=1 n=e6 v=100
184800 On ch=1 n=e6 v=0
184800 On ch=1 n=c6 v=0
184800 On ch=1 n=c6 v=105
184960 On ch=1 n=c6 v=0
184960 On ch=1 n=d6 v=105
185120 On ch=1 n=d6 v=0
185120 On ch=1 n=e6 v=105
185280 On ch=1 n=e6 v=0
185280 On ch=1 n=a5 v=0
185440 On ch=1 n=a6 v=110
185440 On ch=1 n=c7 v=110
185440 On ch=1 n=d7 v=110
185720 On ch=1 n=d7 v=0
185720 On ch=1 n=e7 v=110
185760 On ch=1 n=e7 v=0
185760 On ch=1 n=c7 v=0
185760 On ch=1 n=c7 v=115
185920 On ch=1 n=c7 v=0
185920 On ch=1 n=d7 v=115
186080 On ch=1 n=d7 v=0
186080 On ch=1 n=e7 v=115
186240 On ch=1 n=e7 v=0
186240 On ch=1 n=a6 v=0
186240 On ch=1 n=d#8 v=120
186240 On ch=1 n=c#8 v=120
186240 On ch=1 n=d#7 v=120
186240 On ch=1 n=c#7 v=120
186720 On ch=1 n=c#7 v=0
186720 On ch=1 n=d#7 v=0
186720 On ch=1 n=c#8 v=0
186720 On ch=1 n=d#8 v=0
186720 Meta TrkEnd
TrkEnd
MTrk
0 SeqSpec 43 00 01 00
0 Meta TrkName "Right Bass"
0 Meta 0x21 00
600 On ch=1 n=c4 v=40
720 On ch=1 n=c4 v=0
720 On ch=1 n=f#4 v=40
840 On ch=1 n=f#4 v=0
840 On ch=1 n=a4 v=40
960 On ch=1 n=a4 v=0
960 On ch=1 n=c5 v=40
1080 On ch=1 n=c5 v=0
1080 On ch=1 n=d5 v=40
1200 On ch=1 n=d5 v=0
1200 On ch=1 n=c5 v=40
1320 On ch=1 n=c5 v=0
1320 On ch=1 n=a4 v=40
1440 On ch=1 n=a4 v=0
1440 On ch=1 n=f#4 v=40
1560 On ch=1 n=f#4 v=0
1560 On ch=1 n=c4 v=40
1680 On ch=1 n=c4 v=0
2520 On ch=1 n=c4 v=40
2640 On ch=1 n=c4 v=0
2640 On ch=1 n=f#4 v=40
2760 On ch=1 n=f#4 v=0
2760 On ch=1 n=a4 v=40
2880 On ch=1 n=a4 v=0
2880 On ch=1 n=c5 v=40
3000 On ch=1 n=c5 v=0
3000 On ch=1 n=d5 v=40
3120 On ch=1 n=d5 v=0
3120 On ch=1 n=c5 v=40
3240 On ch=1 n=c5 v=0
3240 On ch=1 n=a4 v=40
3360 On ch=1 n=a4 v=0
3360 On ch=1 n=f#4 v=40
3480 On ch=1 n=f#4 v=0
3480 On ch=1 n=c4 v=40
3600 On ch=1 n=c4 v=0
4440 On ch=1 n=c4 v=40
4560 On ch=1 n=c4 v=0
4560 On ch=1 n=f#4 v=40
4680 On ch=1 n=f#4 v=0
4680 On ch=1 n=a4 v=40
4800 On ch=1 n=a4 v=0
4800 On ch=1 n=c5 v=40
4920 On ch=1 n=c5 v=0
4920 On ch=1 n=d5 v=40
5040 On ch=1 n=d5 v=0
5040 On ch=1 n=c5 v=40
5160 On ch=1 n=c5 v=0
5160 On ch=1 n=a4 v=40
5280 On ch=1 n=a4 v=0
5280 On ch=1 n=f#4 v=40
5400 On ch=1 n=f#4 v=0
5400 On ch=1 n=c4 v=40
5520 On ch=1 n=c4 v=0
6360 On ch=1 n=c4 v=40
6480 On ch=1 n=c4 v=0
6480 On ch=1 n=f#4 v=40
6600 On ch=1 n=f#4 v=0
6600 On ch=1 n=a4 v=40
6720 On ch=1 n=a4 v=0
6720 On ch=1 n=c5 v=40
6840 On ch=1 n=c5 v=0
6840 On ch=1 n=d5 v=40
6960 On ch=1 n=d5 v=0
6960 On ch=1 n=c5 v=40
7080 On ch=1 n=c5 v=0
7080 On ch=1 n=a4 v=40
7200 On ch=1 n=a4 v=0
7200 On ch=1 n=f#4 v=40
7320 On ch=1 n=f#4 v=0
7320 On ch=1 n=c4 v=40
7440 On ch=1 n=c4 v=0
8280 On ch=1 n=c4 v=40
8400 On ch=1 n=c4 v=0
8400 On ch=1 n=f#4 v=40
8520 On ch=1 n=f#4 v=0
8520 On ch=1 n=a4 v=40
8640 On ch=1 n=a4 v=0
8640 On ch=1 n=d#5 v=80
8640 On ch=1 n=c5 v=40
8760 On ch=1 n=c5 v=0
8760 On ch=1 n=d5 v=40
8880 On ch=1 n=d5 v=0
8880 On ch=1 n=c5 v=40
9000 On ch=1 n=c5 v=0
9000 On ch=1 n=a4 v=40
9120 On ch=1 n=a4 v=0
9120 On ch=1 n=d#5 v=0
9120 On ch=1 n=f#4 v=40
9240 On ch=1 n=f#4 v=0
9240 On ch=1 n=c4 v=40
9360 On ch=1 n=c4 v=0
10200 On ch=1 n=c4 v=40
10320 On ch=1 n=c4 v=0
10320 On ch=1 n=f#4 v=40
10440 On ch=1 n=f#4 v=0
10440 On ch=1 n=g#5 v=60
10440 On ch=1 n=a4 v=40
10500 On ch=1 n=g#5 v=0
10500 On ch=1 n=f#5 v=60
10560 On ch=1 n=f#5 v=0
10560 On ch=1 n=a4 v=0
10560 On ch=1 n=d#5 v=80
10560 On ch=1 n=c5 v=40
10680 On ch=1 n=c5 v=0
10680 On ch=1 n=d5 v=40
10800 On ch=1 n=d5 v=0
10800 On ch=1 n=c5 v=40
10920 On ch=1 n=c5 v=0
10920 On ch=1 n=a4 v=40
11040 On ch=1 n=a4 v=0
11040 On ch=1 n=d#5 v=0
11040 On ch=1 n=f#4 v=40
11160 On ch=1 n=f#4 v=0
11160 On ch=1 n=c4 v=40
11280 On ch=1 n=c4 v=0
12120 On ch=1 n=c4 v=40
12240 On ch=1 n=c4 v=0
12240 On ch=1 n=f#4 v=40
12360 On ch=1 n=f#4 v=0
12360 On ch=1 n=a4 v=40
12480 On ch=1 n=a4 v=0
12480 On ch=1 n=d#5 v=80
12480 On ch=1 n=c5 v=40
12600 On ch=1 n=c5 v=0
12600 On ch=1 n=d5 v=40
12720 On ch=1 n=d5 v=0
12720 On ch=1 n=c5 v=40
12840 On ch=1 n=c5 v=0
12840 On ch=1 n=a4 v=40
12960 On ch=1 n=a4 v=0
12960 On ch=1 n=d#5 v=0
12960 On ch=1 n=f#4 v=40
13080 On ch=1 n=f#4 v=0
13080 On ch=1 n=c4 v=40
13200 On ch=1 n=c4 v=0
14040 On ch=1 n=c4 v=40
14160 On ch=1 n=c4 v=0
14160 On ch=1 n=f#4 v=40
14280 On ch=1 n=f#4 v=0
14280 On ch=1 n=g#5 v=60
14280 On ch=1 n=a4 v=40
14340 On ch=1 n=g#5 v=0
14340 On ch=1 n=f#5 v=60
14400 On ch=1 n=f#5 v=0
14400 On ch=1 n=a4 v=0
14400 On ch=1 n=d#5 v=80
14400 On ch=1 n=c5 v=40
14520 On ch=1 n=c5 v=0
14520 On ch=1 n=d5 v=40
14640 On ch=1 n=d5 v=0
14640 On ch=1 n=c5 v=40
14760 On ch=1 n=c5 v=0
14760 On ch=1 n=a4 v=40
14880 On ch=1 n=a4 v=0
14880 On ch=1 n=d#5 v=0
14880 On ch=1 n=f#4 v=40
15000 On ch=1 n=f#4 v=0
15000 On ch=1 n=c4 v=40
15120 On ch=1 n=c4 v=0
15920 On ch=1 n=c4 v=50
16000 On ch=1 n=c4 v=0
16000 On ch=1 n=f#4 v=50
16080 On ch=1 n=f#4 v=0
16080 On ch=1 n=a4 v=50
16160 On ch=1 n=a4 v=0
16160 On ch=1 n=c5 v=50
16240 On ch=1 n=c5 v=0
16240 On ch=1 n=d5 v=50
16320 On ch=1 n=d5 v=0
21480 On ch=1 n=d5 v=90
21600 On ch=1 n=d5 v=0
21600 On ch=1 n=c5 v=80
21720 On ch=1 n=c5 v=0
21720 On ch=1 n=a4 v=80
21840 On ch=1 n=a4 v=0
21840 On ch=1 n=f#4 v=80
21960 On ch=1 n=f#4 v=0
21960 On ch=1 n=c4 v=80
22080 On ch=1 n=c4 v=0
22440 On ch=1 n=d4 v=70
22560 On ch=1 n=d4 v=0
22560 On ch=1 n=c4 v=60
22640 On ch=1 n=c4 v=0
22640 On ch=1 n=a3 v=60
22720 On ch=1 n=a3 v=0
22720 On ch=1 n=f#3 v=60
22800 On ch=1 n=f#3 v=0
22800 On ch=1 n=c3 v=60
22880 On ch=1 n=c3 v=0
24000 On ch=1 n=f#4 v=60
24000 On ch=1 n=c#4 v=60
24000 On ch=1 n=a#3 v=60
24000 On ch=1 n=f#3 v=60
27840 On ch=1 n=f#3 v=0
27840 On ch=1 n=a#3 v=0
27840 On ch=1 n=c#4 v=0
27840 On ch=1 n=f#4 v=0
27840 On ch=1 n=d#5 v=60
27840 On ch=1 n=a#4 v=60
27840 On ch=1 n=g4 v=60
27840 On ch=1 n=d#4 v=60
28800 On ch=1 n=d#4 v=0
28800 On ch=1 n=g4 v=0
28800 On ch=1 n=a#4 v=0
28800 On ch=1 n=d#5 v=0
28800 On ch=1 n=a5 v=60
28800 On ch=1 n=e5 v=60
28800 On ch=1 n=c#5 v=60
28800 On ch=1 n=a4 v=60
29760 On ch=1 n=a4 v=0
29760 On ch=1 n=c#5 v=0
29760 On ch=1 n=e5 v=0
29760 On ch=1 n=a5 v=0
29760 On ch=1 n=d#5 v=60
29760 On ch=1 n=a#4 v=60
29760 On ch=1 n=g4 v=60
29760 On ch=1 n=d#4 v=60
30720 On ch=1 n=d#4 v=0
30720 On ch=1 n=g4 v=0
30720 On ch=1 n=a#4 v=0
30720 On ch=1 n=d#5 v=0
30720 On ch=1 n=f#4 v=60
30720 On ch=1 n=c#4 v=60
30720 On ch=1 n=a#3 v=60
30720 On ch=1 n=f#3 v=60
31680 On ch=1 n=f#3 v=0
31680 On ch=1 n=a#3 v=0
31680 On ch=1 n=c#4 v=0
31680 On ch=1 n=f#4 v=0
31680 On ch=1 n=d#5 v=60
31680 On ch=1 n=a#4 v=60
31680 On ch=1 n=g4 v=60
31680 On ch=1 n=d#4 v=60
33600 On ch=1 n=d#4 v=0
33600 On ch=1 n=g4 v=0
33600 On ch=1 n=a#4 v=0
33600 On ch=1 n=d#5 v=0
33600 On ch=1 n=a5 v=60
33600 On ch=1 n=e5 v=60
33600 On ch=1 n=c#5 v=60
33600 On ch=1 n=a4 v=60
34560 On ch=1 n=a4 v=0
34560 On ch=1 n=c#5 v=0
34560 On ch=1 n=e5 v=0
34560 On ch=1 n=a5 v=0
34560 On ch=1 n=c#5 v=125
34620 On ch=1 n=c#5 v=0
34620 On ch=1 n=f#4 v=125
34680 On ch=1 n=f#4 v=0
34680 On ch=1 n=c#4 v=125
34740 On ch=1 n=c#4 v=0
45120 On ch=1 n=c#5 v=60
45120 On ch=1 n=d#5 v=60
45120 On ch=1 n=d#4 v=60
45120 On ch=1 n=c#4 v=60
46080 On ch=1 n=c#4 v=0
46080 On ch=1 n=d#4 v=0
46080 On ch=1 n=d#5 v=0
46080 On ch=1 n=c#5 v=0
46080 On ch=1 n=c#5 v=125
46140 On ch=1 n=c#5 v=0
46140 On ch=1 n=f#4 v=125
46200 On ch=1 n=f#4 v=0
46200 On ch=1 n=c#4 v=125
46260 On ch=1 n=c#4 v=0
47040 On ch=1 n=a4 v=50
47040 On ch=1 n=g4 v=50
47040 On ch=1 n=g3 v=50
47040 On ch=1 n=a3 v=50
51840 On ch=1 n=a3 v=0
51840 On ch=1 n=g3 v=0
51840 On ch=1 n=g4 v=0
51840 On ch=1 n=a4 v=0
51840 On ch=1 n=d#3 v=50
51840 On ch=1 n=c#3 v=50
51840 On ch=1 n=d#4 v=50
51840 On ch=1 n=c#4 v=50
53760 On ch=1 n=c#4 v=0
53760 On ch=1 n=d#4 v=0
53760 On ch=1 n=c#3 v=0
53760 On ch=1 n=d#3 v=0
54000 On ch=1 n=c4 v=40
54080 On ch=1 n=c4 v=0
54080 On ch=1 n=a3 v=40
54160 On ch=1 n=a3 v=0
54160 On ch=1 n=f3 v=40
54240 On ch=1 n=f3 v=0
54240 On ch=1 n=c#4 v=40
54320 On ch=1 n=c#4 v=0
54320 On ch=1 n=a#3 v=40
54400 On ch=1 n=a#3 v=0
54400 On ch=1 n=f#3 v=40
54480 On ch=1 n=f#3 v=0
54480 On ch=1 n=d4 v=40
54560 On ch=1 n=d4 v=0
54560 On ch=1 n=b3 v=40
54640 On ch=1 n=b3 v=0
54640 On ch=1 n=g3 v=40
54720 On ch=1 n=g3 v=0
54720 On ch=1 n=d#4 v=40
54800 On ch=1 n=d#4 v=0
54800 On ch=1 n=c4 v=40
54880 On ch=1 n=c4 v=0
54880 On ch=1 n=g#3 v=40
54960 On ch=1 n=g#3 v=0
54960 On ch=1 n=e4 v=40
55040 On ch=1 n=e4 v=0
55040 On ch=1 n=c#4 v=40
55120 On ch=1 n=c#4 v=0
55120 On ch=1 n=a3 v=40
55200 On ch=1 n=a3 v=0
55440 On ch=1 n=c4 v=40
55520 On ch=1 n=c4 v=0
55520 On ch=1 n=a3 v=40
55600 On ch=1 n=a3 v=0
55600 On ch=1 n=f3 v=40
55680 On ch=1 n=f3 v=0
55680 On ch=1 n=c#4 v=40
55760 On ch=1 n=c#4 v=0
55760 On ch=1 n=a#3 v=40
55840 On ch=1 n=a#3 v=0
55840 On ch=1 n=f#3 v=40
55920 On ch=1 n=f#3 v=0
55920 On ch=1 n=d4 v=40
56000 On ch=1 n=d4 v=0
56000 On ch=1 n=b3 v=40
56080 On ch=1 n=b3 v=0
56080 On ch=1 n=g3 v=40
56160 On ch=1 n=g3 v=0
56160 On ch=1 n=d#4 v=40
56240 On ch=1 n=d#4 v=0
56240 On ch=1 n=c4 v=40
56320 On ch=1 n=c4 v=0
56320 On ch=1 n=g#3 v=40
56400 On ch=1 n=g#3 v=0
56400 On ch=1 n=e4 v=40
56480 On ch=1 n=e4 v=0
56480 On ch=1 n=c#4 v=40
56560 On ch=1 n=c#4 v=0
56560 On ch=1 n=a3 v=40
56640 On ch=1 n=a3 v=0
56880 On ch=1 n=c4 v=40
56960 On ch=1 n=c4 v=0
56960 On ch=1 n=a3 v=40
57040 On ch=1 n=a3 v=0
57040 On ch=1 n=f3 v=40
57120 On ch=1 n=f3 v=0
57120 On ch=1 n=c#4 v=40
57200 On ch=1 n=c#4 v=0
57200 On ch=1 n=a#3 v=40
57280 On ch=1 n=a#3 v=0
57280 On ch=1 n=f#3 v=40
57360 On ch=1 n=f#3 v=0
57360 On ch=1 n=d4 v=40
57440 On ch=1 n=d4 v=0
57440 On ch=1 n=b3 v=40
57520 On ch=1 n=b3 v=0
57520 On ch=1 n=g3 v=40
57600 On ch=1 n=g3 v=0
57600 On ch=1 n=d#4 v=40
57680 On ch=1 n=d#4 v=0
57680 On ch=1 n=c4 v=40
57760 On ch=1 n=c4 v=0
57760 On ch=1 n=g#3 v=40
57840 On ch=1 n=g#3 v=0
57840 On ch=1 n=e4 v=40
57920 On ch=1 n=e4 v=0
57920 On ch=1 n=c#4 v=40
58000 On ch=1 n=c#4 v=0
58000 On ch=1 n=a3 v=40
58080 On ch=1 n=a3 v=0
58320 On ch=1 n=c4 v=40
58400 On ch=1 n=c4 v=0
58400 On ch=1 n=a3 v=40
58480 On ch=1 n=a3 v=0
58480 On ch=1 n=f3 v=40
58560 On ch=1 n=f3 v=0
58560 On ch=1 n=c#4 v=40
58640 On ch=1 n=c#4 v=0
58640 On ch=1 n=a#3 v=40
58720 On ch=1 n=a#3 v=0
58720 On ch=1 n=f#3 v=40
58800 On ch=1 n=f#3 v=0
58800 On ch=1 n=d4 v=40
58880 On ch=1 n=d4 v=0
58880 On ch=1 n=b3 v=40
58960 On ch=1 n=b3 v=0
58960 On ch=1 n=g3 v=40
59040 On ch=1 n=g3 v=0
59040 On ch=1 n=d#4 v=40
59120 On ch=1 n=d#4 v=0
59120 On ch=1 n=c4 v=40
59200 On ch=1 n=c4 v=0
59200 On ch=1 n=g#3 v=40
59280 On ch=1 n=g#3 v=0
59280 On ch=1 n=e4 v=40
59360 On ch=1 n=e4 v=0
59360 On ch=1 n=c#4 v=40
59440 On ch=1 n=c#4 v=0
59440 On ch=1 n=a3 v=40
59520 On ch=1 n=a3 v=0
119120 On ch=1 n=f#4 v=60
119120 On ch=1 n=d#4 v=60
119120 On ch=1 n=b3 v=60
119200 On ch=1 n=b3 v=0
119200 On ch=1 n=d#4 v=0
119200 On ch=1 n=f#4 v=0
119280 On ch=1 n=f4 v=60
119280 On ch=1 n=d#4 v=60
119280 On ch=1 n=b3 v=60
119360 On ch=1 n=b3 v=0
119360 On ch=1 n=d#4 v=0
119360 On ch=1 n=f4 v=0
119440 On ch=1 n=a#4 v=60
119440 On ch=1 n=d#4 v=60
119440 On ch=1 n=b3 v=60
119520 On ch=1 n=b3 v=0
119520 On ch=1 n=d#4 v=0
119520 On ch=1 n=a#4 v=0
119600 On ch=1 n=g#4 v=60
119600 On ch=1 n=d#4 v=60
119600 On ch=1 n=b3 v=60
119680 On ch=1 n=b3 v=0
119680 On ch=1 n=d#4 v=0
119680 On ch=1 n=g#4 v=0
119760 On ch=1 n=f#4 v=60
119760 On ch=1 n=d#4 v=60
119760 On ch=1 n=b3 v=60
119840 On ch=1 n=b3 v=0
119840 On ch=1 n=d#4 v=0
119840 On ch=1 n=f#4 v=0
119920 On ch=1 n=f4 v=60
119920 On ch=1 n=d#4 v=60
119920 On ch=1 n=b3 v=60
120000 On ch=1 n=b3 v=0
120000 On ch=1 n=d#4 v=0
120000 On ch=1 n=f4 v=0
120080 On ch=1 n=a#4 v=60
120080 On ch=1 n=f#4 v=60
120080 On ch=1 n=d#4 v=60
120160 On ch=1 n=d#4 v=0
120160 On ch=1 n=f#4 v=0
120160 On ch=1 n=a#4 v=0
120240 On ch=1 n=g#4 v=60
120240 On ch=1 n=f#4 v=60
120240 On ch=1 n=d#4 v=60
120320 On ch=1 n=d#4 v=0
120320 On ch=1 n=f#4 v=0
120320 On ch=1 n=g#4 v=0
120400 On ch=1 n=c#5 v=60
120400 On ch=1 n=f#4 v=60
120400 On ch=1 n=d#4 v=60
120480 On ch=1 n=d#4 v=0
120480 On ch=1 n=f#4 v=0
120480 On ch=1 n=c#5 v=0
120560 On ch=1 n=b4 v=60
120560 On ch=1 n=f#4 v=60
120560 On ch=1 n=d#4 v=60
120640 On ch=1 n=d#4 v=0
120640 On ch=1 n=f#4 v=0
120640 On ch=1 n=b4 v=0
120720 On ch=1 n=a#4 v=60
120720 On ch=1 n=f#4 v=60
120720 On ch=1 n=d#4 v=60
120800 On ch=1 n=d#4 v=0
120800 On ch=1 n=f#4 v=0
120800 On ch=1 n=a#4 v=0
120880 On ch=1 n=g#4 v=60
120880 On ch=1 n=f#4 v=60
120880 On ch=1 n=d#4 v=60
120960 On ch=1 n=d#4 v=0
120960 On ch=1 n=f#4 v=0
120960 On ch=1 n=g#4 v=0
136320 On ch=1 n=g4 v=120
136320 On ch=1 n=a4 v=120
136320 On ch=1 n=d#5 v=120
136320 On ch=1 n=c#5 v=120
138720 On ch=1 n=c#5 v=0
138720 On ch=1 n=d#5 v=0
138720 On ch=1 n=a4 v=0
138720 On ch=1 n=g4 v=0
144240 On ch=1 n=d5 v=80
144300 On ch=1 n=d5 v=0
144300 On ch=1 n=c5 v=80
144360 On ch=1 n=c5 v=0
144360 On ch=1 n=a4 v=80
144420 On ch=1 n=a4 v=0
144420 On ch=1 n=f#4 v=80
144480 On ch=1 n=f#4 v=0
144480 On ch=1 n=c4 v=100
144720 On ch=1 n=c4 v=0
145200 On ch=1 n=d#4 v=80
145260 On ch=1 n=d#4 v=0
145260 On ch=1 n=c4 v=80
145320 On ch=1 n=c4 v=0
145320 On ch=1 n=a3 v=80
145380 On ch=1 n=a3 v=0
145380 On ch=1 n=f#3 v=80
145440 On ch=1 n=f#3 v=0
145440 On ch=1 n=c3 v=100
145680 On ch=1 n=c3 v=0
146160 On ch=1 n=d5 v=80
146220 On ch=1 n=d5 v=0
146220 On ch=1 n=c5 v=80
146280 On ch=1 n=c5 v=0
146280 On ch=1 n=a4 v=80
146340 On ch=1 n=a4 v=0
146340 On ch=1 n=f#4 v=80
146400 On ch=1 n=f#4 v=0
146400 On ch=1 n=c4 v=100
146640 On ch=1 n=c4 v=0
147120 On ch=1 n=d#4 v=80
147180 On ch=1 n=d#4 v=0
147180 On ch=1 n=c4 v=80
147240 On ch=1 n=c4 v=0
147240 On ch=1 n=a3 v=80
147300 On ch=1 n=a3 v=0
147300 On ch=1 n=f#3 v=80
147360 On ch=1 n=f#3 v=0
147360 On ch=1 n=c3 v=100
147600 On ch=1 n=c3 v=0
148080 On ch=1 n=d5 v=80
148140 On ch=1 n=d5 v=0
148140 On ch=1 n=c5 v=80
148200 On ch=1 n=c5 v=0
148200 On ch=1 n=a4 v=80
148260 On ch=1 n=a4 v=0
148260 On ch=1 n=f#4 v=80
148320 On ch=1 n=f#4 v=0
148320 On ch=1 n=c4 v=100
148560 On ch=1 n=c4 v=0
148560 On ch=1 n=d#4 v=80
148620 On ch=1 n=d#4 v=0
148620 On ch=1 n=c4 v=80
148680 On ch=1 n=c4 v=0
148680 On ch=1 n=a3 v=80
148740 On ch=1 n=a3 v=0
148740 On ch=1 n=f#3 v=80
148800 On ch=1 n=f#3 v=0
148800 On ch=1 n=c3 v=100
149040 On ch=1 n=c3 v=0
149160 On ch=1 n=g#5 v=80
149220 On ch=1 n=g#5 v=0
149220 On ch=1 n=f#5 v=80
149280 On ch=1 n=f#5 v=0
149280 On ch=1 n=d#5 v=100
149520 On ch=1 n=d#5 v=0
150000 On ch=1 n=d5 v=80
150060 On ch=1 n=d5 v=0
150060 On ch=1 n=c5 v=80
150120 On ch=1 n=c5 v=0
150120 On ch=1 n=a4 v=80
150180 On ch=1 n=a4 v=0
150180 On ch=1 n=f#4 v=80
150240 On ch=1 n=f#4 v=0
150240 On ch=1 n=c4 v=100
150480 On ch=1 n=c4 v=0
150480 On ch=1 n=d#4 v=80
150540 On ch=1 n=d#4 v=0
150540 On ch=1 n=c4 v=80
150600 On ch=1 n=c4 v=0
150600 On ch=1 n=a3 v=80
150660 On ch=1 n=a3 v=0
150660 On ch=1 n=f#3 v=80
150720 On ch=1 n=f#3 v=0
150720 On ch=1 n=c3 v=100
150960 On ch=1 n=c3 v=0
151080 On ch=1 n=g#5 v=80
151140 On ch=1 n=g#5 v=0
151140 On ch=1 n=f#5 v=80
151200 On ch=1 n=f#5 v=0
151200 On ch=1 n=d#5 v=100
151440 On ch=1 n=d#5 v=0
152240 On ch=1 n=c4 v=100
152320 On ch=1 n=c4 v=0
152320 On ch=1 n=f#4 v=100
152400 On ch=1 n=f#4 v=0
152400 On ch=1 n=a4 v=100
152480 On ch=1 n=a4 v=0
152480 On ch=1 n=c5 v=100
152560 On ch=1 n=c5 v=0
152560 On ch=1 n=d5 v=100
152640 On ch=1 n=d5 v=0
157800 On ch=1 n=d5 v=110
157920 On ch=1 n=d5 v=0
157920 On ch=1 n=c5 v=105
158040 On ch=1 n=c5 v=0
158040 On ch=1 n=a4 v=105
158160 On ch=1 n=a4 v=0
158160 On ch=1 n=f#4 v=100
158280 On ch=1 n=f#4 v=0
158280 On ch=1 n=c4 v=100
158400 On ch=1 n=c4 v=0
158760 On ch=1 n=d4 v=90
158880 On ch=1 n=d4 v=0
158880 On ch=1 n=c4 v=85
158960 On ch=1 n=c4 v=0
158960 On ch=1 n=a3 v=85
159040 On ch=1 n=a3 v=0
159040 On ch=1 n=f#3 v=80
159120 On ch=1 n=f#3 v=0
159120 On ch=1 n=c3 v=80
159200 On ch=1 n=c3 v=0
160320 On ch=1 n=c5 v=60
160320 On ch=1 n=g4 v=60
160320 On ch=1 n=e4 v=60
160320 On ch=1 n=c4 v=60
164160 On ch=1 n=c4 v=0
164160 On ch=1 n=e4 v=0
164160 On ch=1 n=g4 v=0
164160 On ch=1 n=c5 v=0
167040 On ch=1 n=c5 v=60
167040 On ch=1 n=g4 v=60
167040 On ch=1 n=e4 v=60
167040 On ch=1 n=c4 v=60
170880 On ch=1 n=c4 v=0
170880 On ch=1 n=e4 v=0
170880 On ch=1 n=g4 v=0
170880 On ch=1 n=c5 v=0
170880 On ch=1 n=f#4 v=50
170880 On ch=1 n=c#4 v=50
170880 On ch=1 n=a#3 v=50
170880 On ch=1 n=f#3 v=50
171840 On ch=1 n=f#3 v=0
171840 On ch=1 n=a#3 v=0
171840 On ch=1 n=c#4 v=0
171840 On ch=1 n=f#4 v=0
171840 On ch=1 n=d#5 v=50
171840 On ch=1 n=a#4 v=50
171840 On ch=1 n=g4 v=50
171840 On ch=1 n=d#4 v=50
172800 On ch=1 n=d#4 v=0
172800 On ch=1 n=g4 v=0
172800 On ch=1 n=a#4 v=0
172800 On ch=1 n=d#5 v=0
172800 On ch=1 n=a5 v=50
172800 On ch=1 n=e5 v=50
172800 On ch=1 n=c#5 v=50
172800 On ch=1 n=a4 v=50
173760 On ch=1 n=a4 v=0
173760 On ch=1 n=c#5 v=0
173760 On ch=1 n=e5 v=0
173760 On ch=1 n=a5 v=0
173760 On ch=1 n=d#5 v=50
173760 On ch=1 n=a#4 v=50
173760 On ch=1 n=g4 v=50
173760 On ch=1 n=d#4 v=50
174720 On ch=1 n=d#4 v=0
174720 On ch=1 n=g4 v=0
174720 On ch=1 n=a#4 v=0
174720 On ch=1 n=d#5 v=0
174720 On ch=1 n=a3 v=40
174740 On ch=1 n=c4 v=40
174760 On ch=1 n=d4 v=40
174780 On ch=1 n=f#4 v=40
174840 On ch=1 n=a3 v=0
174860 On ch=1 n=c4 v=0
174880 On ch=1 n=d4 v=0
174900 On ch=1 n=f#4 v=0
175680 On ch=1 n=f#3 v=60
175760 On ch=1 n=f#3 v=0
175840 On ch=1 n=g#3 v=60
175920 On ch=1 n=g#3 v=0
176640 On ch=1 n=a3 v=40
176660 On ch=1 n=c4 v=40
176680 On ch=1 n=d4 v=40
176700 On ch=1 n=f#4 v=40
176760 On ch=1 n=a3 v=0
176780 On ch=1 n=c4 v=0
176800 On ch=1 n=d4 v=0
176820 On ch=1 n=f#4 v=0
177600 On ch=1 n=f#3 v=60
177680 On ch=1 n=f#3 v=0
177760 On ch=1 n=g#3 v=60
177840 On ch=1 n=g#3 v=0
178560 On ch=1 n=a3 v=40
178580 On ch=1 n=c4 v=40
178600 On ch=1 n=d4 v=40
178620 On ch=1 n=f#4 v=60
178680 On ch=1 n=a3 v=0
178700 On ch=1 n=c4 v=0
178720 On ch=1 n=d4 v=0
178740 On ch=1 n=f#4 v=0
179040 On ch=1 n=f#3 v=40
179060 On ch=1 n=a3 v=40
179080 On ch=1 n=c4 v=40
179100 On ch=1 n=d4 v=40
179160 On ch=1 n=f#3 v=0
179180 On ch=1 n=a3 v=0
179200 On ch=1 n=c4 v=0
179220 On ch=1 n=d4 v=0
179520 On ch=1 n=f#3 v=60
179600 On ch=1 n=f#3 v=0
179680 On ch=1 n=g#3 v=60
179760 On ch=1 n=g#3 v=0
180480 On ch=1 n=a3 v=40
180500 On ch=1 n=c4 v=40
180520 On ch=1 n=d4 v=40
180540 On ch=1 n=f#4 v=40
180600 On ch=1 n=a3 v=0
180620 On ch=1 n=c4 v=0
180640 On ch=1 n=d4 v=0
180660 On ch=1 n=f#4 v=0
180960 On ch=1 n=f#3 v=40
180980 On ch=1 n=a3 v=40
181000 On ch=1 n=c4 v=40
181020 On ch=1 n=d4 v=40
181080 On ch=1 n=f#3 v=0
181100 On ch=1 n=a3 v=0
181120 On ch=1 n=c4 v=0
181140 On ch=1 n=d4 v=0
181440 On ch=1 n=f#3 v=60
181520 On ch=1 n=f#3 v=0
181600 On ch=1 n=g#3 v=60
181680 On ch=1 n=g#3 v=0
182560 On ch=1 n=a3 v=60
182560 On ch=1 n=c4 v=60
182560 On ch=1 n=d4 v=60
182840 On ch=1 n=d4 v=0
182840 On ch=1 n=e4 v=60
182880 On ch=1 n=e4 v=0
182880 On ch=1 n=c4 v=0
182880 On ch=1 n=c4 v=70
183040 On ch=1 n=c4 v=0
183040 On ch=1 n=d4 v=70
183200 On ch=1 n=d4 v=0
183200 On ch=1 n=e4 v=70
183360 On ch=1 n=e4 v=0
183360 On ch=1 n=a3 v=0
186720 On ch=1 n=a3 v=120
186720 On ch=1 n=a4 v=120
186720 On ch=1 n=g4 v=120
187440 On ch=1 n=g4 v=0
187440 On ch=1 n=a4 v=0
187440 On ch=1 n=a3 v=0
187440 On ch=1 n=g5 v=120
187440 On ch=1 n=f5 v=120
187440 On ch=1 n=g4 v=120
187680 On ch=1 n=g4 v=0
187680 On ch=1 n=f5 v=0
187680 On ch=1 n=g5 v=0
187680 On ch=1 n=d#5 v=120
187680 On ch=1 n=c#5 v=120
187680 On ch=1 n=d#4 v=120
187680 On ch=1 n=c#4 v=120
188640 On ch=1 n=c#4 v=0
188640 On ch=1 n=d#4 v=0
188640 On ch=1 n=c#5 v=0
188640 On ch=1 n=d#5 v=0
188960 On ch=1 n=d#4 v=120
188960 On ch=1 n=c#4 v=120
189280 On ch=1 n=c#4 v=0
189280 On ch=1 n=d#4 v=0
189280 On ch=1 n=d#4 v=120
189280 On ch=1 n=c#4 v=120
189600 On ch=1 n=c#4 v=0
189600 On ch=1 n=d#4 v=0
189600 On ch=1 n=d#4 v=127
189600 On ch=1 n=c#4 v=127
189600 On ch=1 n=a#3 v=127
189600 On ch=1 n=f#3 v=127
189720 On ch=1 n=f#3 v=0
189720 On ch=1 n=a#3 v=0
189720 On ch=1 n=c#4 v=0
189720 On ch=1 n=d#4 v=0
189720 Meta TrkEnd
TrkEnd
MTrk
0 SeqSpec 43 00 01 00
0 Meta TrkName "Left Treble"
0 Meta 0x21 00
16320 On ch=1 n=g#5 v=60
16440 On ch=1 n=g#5 v=0
16440 On ch=1 n=f#5 v=60
16560 On ch=1 n=f#5 v=0
16560 On ch=1 n=d#5 v=60
16680 On ch=1 n=d#5 v=0
17280 On ch=1 n=g#6 v=80
17400 On ch=1 n=g#6 v=0
17400 On ch=1 n=f#6 v=80
17520 On ch=1 n=f#6 v=0
17520 On ch=1 n=d#6 v=80
17640 On ch=1 n=d#6 v=0
18240 On ch=1 n=g#7 v=100
18360 On ch=1 n=g#7 v=0
18360 On ch=1 n=f#7 v=100
18480 On ch=1 n=f#7 v=0
18480 On ch=1 n=d#7 v=100
18600 On ch=1 n=d#7 v=0
19200 On ch=1 n=g#6 v=100
19320 On ch=1 n=g#6 v=0
19320 On ch=1 n=f#6 v=100
19440 On ch=1 n=f#6 v=0
19440 On ch=1 n=d#6 v=100
19560 On ch=1 n=d#6 v=0
20160 On ch=1 n=g#5 v=100
20280 On ch=1 n=g#5 v=0
20280 On ch=1 n=f#5 v=100
20400 On ch=1 n=f#5 v=0
20400 On ch=1 n=d#5 v=100
20520 On ch=1 n=d#5 v=0
92160 On ch=1 n=f5 v=60
92240 On ch=1 n=f5 v=0
92320 On ch=1 n=f5 v=60
92400 On ch=1 n=f5 v=0
92480 On ch=1 n=f5 v=60
92560 On ch=1 n=f5 v=0
92640 On ch=1 n=f#5 v=60
92720 On ch=1 n=f#5 v=0
92800 On ch=1 n=f#5 v=60
92880 On ch=1 n=f#5 v=0
92960 On ch=1 n=f#5 v=60
93040 On ch=1 n=f#5 v=0
93120 On ch=1 n=g5 v=60
93200 On ch=1 n=g5 v=0
93280 On ch=1 n=g5 v=60
93360 On ch=1 n=g5 v=0
93440 On ch=1 n=g5 v=60
93520 On ch=1 n=g5 v=0
93600 On ch=1 n=g#5 v=60
93680 On ch=1 n=g#5 v=0
93760 On ch=1 n=g#5 v=60
93840 On ch=1 n=g#5 v=0
93920 On ch=1 n=g#5 v=60
94000 On ch=1 n=g#5 v=0
94080 On ch=1 n=a5 v=60
94160 On ch=1 n=a5 v=0
94240 On ch=1 n=a5 v=60
94320 On ch=1 n=a5 v=0
94400 On ch=1 n=a5 v=60
94480 On ch=1 n=a5 v=0
94560 On ch=1 n=a#5 v=60
94640 On ch=1 n=a#5 v=0
94720 On ch=1 n=a#5 v=60
94800 On ch=1 n=a#5 v=0
94880 On ch=1 n=a#5 v=60
94960 On ch=1 n=a#5 v=0
95040 On ch=1 n=b5 v=60
95120 On ch=1 n=b5 v=0
95200 On ch=1 n=b5 v=60
95280 On ch=1 n=b5 v=0
95360 On ch=1 n=b5 v=60
95440 On ch=1 n=b5 v=0
95520 On ch=1 n=c6 v=60
95600 On ch=1 n=c6 v=0
95680 On ch=1 n=c6 v=60
95760 On ch=1 n=c6 v=0
95840 On ch=1 n=c6 v=60
95920 On ch=1 n=c6 v=0
122880 On ch=1 n=a#5 v=80
122880 On ch=1 n=d#5 v=100
122960 On ch=1 n=a#5 v=0
123040 On ch=1 n=g#5 v=80
123120 On ch=1 n=g#5 v=0
123200 On ch=1 n=f#5 v=80
123280 On ch=1 n=f#5 v=0
123360 On ch=1 n=f5 v=80
123440 On ch=1 n=f5 v=0
123520 On ch=1 n=a#5 v=80
123600 On ch=1 n=a#5 v=0
123680 On ch=1 n=g#5 v=80
123760 On ch=1 n=g#5 v=0
123840 On ch=1 n=c#6 v=90
123920 On ch=1 n=c#6 v=0
124000 On ch=1 n=b5 v=90
124080 On ch=1 n=b5 v=0
124160 On ch=1 n=a#5 v=90
124240 On ch=1 n=a#5 v=0
124320 On ch=1 n=g#5 v=90
124400 On ch=1 n=g#5 v=0
124480 On ch=1 n=c#6 v=90
124560 On ch=1 n=c#6 v=0
124640 On ch=1 n=b5 v=90
124720 On ch=1 n=b5 v=0
124800 On ch=1 n=d#5 v=0
124800 On ch=1 n=c6 v=100
124880 On ch=1 n=c6 v=0
124960 On ch=1 n=c#6 v=100
125040 On ch=1 n=c#6 v=0
125120 On ch=1 n=d6 v=100
125200 On ch=1 n=d6 v=0
125280 On ch=1 n=d#6 v=105
125360 On ch=1 n=d#6 v=0
125440 On ch=1 n=e6 v=105
125520 On ch=1 n=e6 v=0
125600 On ch=1 n=f6 v=105
125680 On ch=1 n=f6 v=0
125760 On ch=1 n=f#6 v=110
125840 On ch=1 n=f#6 v=0
125920 On ch=1 n=g6 v=110
126000 On ch=1 n=g6 v=0
126080 On ch=1 n=g#6 v=110
126160 On ch=1 n=g#6 v=0
126240 On ch=1 n=a6 v=115
126320 On ch=1 n=a6 v=0
126400 On ch=1 n=a#6 v=115
126480 On ch=1 n=a#6 v=0
126560 On ch=1 n=b6 v=115
126640 On ch=1 n=b6 v=0
126720 On ch=1 n=d#6 v=120
126720 On ch=1 n=c#6 v=120
126720 On ch=1 n=a#5 v=120
126720 On ch=1 n=g5 v=120
127440 On ch=1 n=g5 v=0
127440 On ch=1 n=a#5 v=0
127440 On ch=1 n=c#6 v=0
127440 On ch=1 n=d#6 v=0
127440 On ch=1 n=b5 v=120
127440 On ch=1 n=a5 v=120
127440 On ch=1 n=f#5 v=120
127440 On ch=1 n=d#5 v=120
127680 On ch=1 n=d#5 v=0
127680 On ch=1 n=f#5 v=0
127680 On ch=1 n=a5 v=0
127680 On ch=1 n=b5 v=0
127680 On ch=1 n=c#6 v=120
127680 On ch=1 n=b5 v=120
127680 On ch=1 n=g#5 v=120
127680 On ch=1 n=f5 v=120
128040 On ch=1 n=f5 v=0
128040 On ch=1 n=g#5 v=0
128040 On ch=1 n=b5 v=0
128040 On ch=1 n=c#6 v=0
128040 On ch=1 n=d#6 v=120
128040 On ch=1 n=b5 v=120
128040 On ch=1 n=a5 v=120
128040 On ch=1 n=f#5 v=120
128160 On ch=1 n=f#5 v=0
128160 On ch=1 n=a5 v=0
128160 On ch=1 n=b5 v=0
128160 On ch=1 n=d#6 v=0
128160 On ch=1 n=f6 v=120
128160 On ch=1 n=c#6 v=120
128160 On ch=1 n=b5 v=120
128160 On ch=1 n=g#5 v=120
128400 On ch=1 n=g#5 v=0
128400 On ch=1 n=b5 v=0
128400 On ch=1 n=c#6 v=0
128400 On ch=1 n=f6 v=0
128400 On ch=1 n=c#6 v=120
128400 On ch=1 n=b5 v=120
128400 On ch=1 n=g#5 v=120
128400 On ch=1 n=f5 v=120
128640 On ch=1 n=f5 v=0
128640 On ch=1 n=g#5 v=0
128640 On ch=1 n=b5 v=0
128640 On ch=1 n=c#6 v=0
128640 On ch=1 n=d#6 v=120
128640 On ch=1 n=b5 v=120
128640 On ch=1 n=a5 v=120
128640 On ch=1 n=f#5 v=120
128880 On ch=1 n=f#5 v=0
128880 On ch=1 n=a5 v=0
128880 On ch=1 n=b5 v=0
128880 On ch=1 n=d#6 v=0
128880 On ch=1 n=b5 v=120
128880 On ch=1 n=a5 v=120
128880 On ch=1 n=f#5 v=120
128880 On ch=1 n=d#5 v=120
129120 On ch=1 n=d#5 v=0
129120 On ch=1 n=f#5 v=0
129120 On ch=1 n=a5 v=0
129120 On ch=1 n=b5 v=0
129120 On ch=1 n=g5 v=120
129120 On ch=1 n=b4 v=120
129120 On ch=1 n=d5 v=120
129120 On ch=1 n=f5 v=120
130080 On ch=1 n=f5 v=0
130080 On ch=1 n=d5 v=0
130080 On ch=1 n=b4 v=0
130080 On ch=1 n=g5 v=0
130080 On ch=1 n=c#6 v=120
130080 On ch=1 n=b5 v=120
130080 On ch=1 n=g#5 v=120
130080 On ch=1 n=f5 v=120
130320 On ch=1 n=f5 v=0
130320 On ch=1 n=g#5 v=0
130320 On ch=1 n=b5 v=0
130320 On ch=1 n=c#6 v=0
130320 On ch=1 n=f#6 v=120
130320 On ch=1 n=e6 v=120
130320 On ch=1 n=c#6 v=120
130320 On ch=1 n=a#5 v=120
130560 On ch=1 n=a#5 v=0
130560 On ch=1 n=c#6 v=0
130560 On ch=1 n=e6 v=0
130560 On ch=1 n=f#6 v=0
130560 On ch=1 n=d#6 v=120
130560 On ch=1 n=c#6 v=120
130560 On ch=1 n=a#5 v=120
130560 On ch=1 n=g5 v=120
130800 On ch=1 n=g5 v=0
130800 On ch=1 n=a#5 v=0
130800 On ch=1 n=c#6 v=0
130800 On ch=1 n=d#6 v=0
152640 On ch=1 n=g#5 v=105
152760 On ch=1 n=g#5 v=0
152760 On ch=1 n=f#5 v=105
152880 On ch=1 n=f#5 v=0
152880 On ch=1 n=d#5 v=105
153000 On ch=1 n=d#5 v=0
153600 On ch=1 n=g#6 v=110
153720 On ch=1 n=g#6 v=0
153720 On ch=1 n=f#6 v=110
153840 On ch=1 n=f#6 v=0
153840 On ch=1 n=d#6 v=110
153960 On ch=1 n=d#6 v=0
154560 On ch=1 n=g#7 v=115
154680 On ch=1 n=g#7 v=0
154680 On ch=1 n=f#7 v=115
154800 On ch=1 n=f#7 v=0
154800 On ch=1 n=d#7 v=115
154920 On ch=1 n=d#7 v=0
155520 On ch=1 n=g#6 v=120
155640 On ch=1 n=g#6 v=0
155640 On ch=1 n=f#6 v=120
155760 On ch=1 n=f#6 v=0
155760 On ch=1 n=d#6 v=120
155880 On ch=1 n=d#6 v=0
156480 On ch=1 n=g#5 v=120
156600 On ch=1 n=g#5 v=0
156600 On ch=1 n=f#5 v=120
156720 On ch=1 n=f#5 v=0
156720 On ch=1 n=d#5 v=120
156840 On ch=1 n=d#5 v=0
183840 On ch=1 n=f#5 v=90
183900 On ch=1 n=f#5 v=0
183900 On ch=1 n=g#5 v=90
183960 On ch=1 n=g#5 v=0
183960 On ch=1 n=f#5 v=90
184020 On ch=1 n=f#5 v=0
184020 On ch=1 n=g#5 v=90
184080 On ch=1 n=g#5 v=0
184080 On ch=1 n=f#5 v=90
184200 On ch=1 n=f#5 v=0
184320 On ch=1 n=f#5 v=100
184380 On ch=1 n=f#5 v=0
184380 On ch=1 n=g#5 v=100
184440 On ch=1 n=g#5 v=0
184440 On ch=1 n=f#5 v=100
184500 On ch=1 n=f#5 v=0
184500 On ch=1 n=g#5 v=100
184560 On ch=1 n=g#5 v=0
184560 On ch=1 n=f#5 v=100
184680 On ch=1 n=f#5 v=0
184800 On ch=1 n=f#6 v=105
184860 On ch=1 n=f#6 v=0
184860 On ch=1 n=g#6 v=105
184920 On ch=1 n=g#6 v=0
184920 On ch=1 n=f#6 v=105
184980 On ch=1 n=f#6 v=0
184980 On ch=1 n=g#6 v=105
185040 On ch=1 n=g#6 v=0
185040 On ch=1 n=f#6 v=105
185160 On ch=1 n=f#6 v=0
185280 On ch=1 n=f#6 v=110
185340 On ch=1 n=f#6 v=0
185340 On ch=1 n=g#6 v=110
185400 On ch=1 n=g#6 v=0
185400 On ch=1 n=f#6 v=110
185460 On ch=1 n=f#6 v=0
185460 On ch=1 n=g#6 v=110
185520 On ch=1 n=g#6 v=0
185520 On ch=1 n=f#6 v=110
185640 On ch=1 n=f#6 v=0
185760 On ch=1 n=f#7 v=115
185820 On ch=1 n=f#7 v=0
185820 On ch=1 n=g#7 v=115
185880 On ch=1 n=g#7 v=0
185880 On ch=1 n=f#7 v=115
185940 On ch=1 n=f#7 v=0
185940 On ch=1 n=g#7 v=115
186000 On ch=1 n=g#7 v=0
186000 On ch=1 n=f#7 v=115
186120 On ch=1 n=f#7 v=0
186240 On ch=1 n=d#6 v=120
186240 On ch=1 n=c#6 v=120
186720 On ch=1 n=c#6 v=0
186720 On ch=1 n=d#6 v=0
186720 Meta TrkEnd
TrkEnd
MTrk
0 SeqSpec 43 00 01 00
0 Meta TrkName "Left Bass"
0 Meta 0x21 00
0 On ch=1 n=f#2 v=40
360 On ch=1 n=d3 v=40
480 On ch=1 n=d3 v=0
480 On ch=1 n=a3 v=40
600 On ch=1 n=a3 v=0
1680 On ch=1 n=a3 v=40
1800 On ch=1 n=a3 v=0
1800 On ch=1 n=d3 v=40
1920 On ch=1 n=d3 v=0
1920 On ch=1 n=f#2 v=0
1920 On ch=1 n=f#2 v=40
2280 On ch=1 n=d3 v=40
2400 On ch=1 n=d3 v=0
2400 On ch=1 n=a3 v=40
2520 On ch=1 n=a3 v=0
3600 On ch=1 n=a3 v=40
3720 On ch=1 n=a3 v=0
3720 On ch=1 n=d3 v=40
3840 On ch=1 n=d3 v=0
3840 On ch=1 n=f#2 v=0
3840 On ch=1 n=f#2 v=40
4200 On ch=1 n=d3 v=40
4320 On ch=1 n=d3 v=0
4320 On ch=1 n=a3 v=40
4440 On ch=1 n=a3 v=0
5520 On ch=1 n=a3 v=40
5640 On ch=1 n=a3 v=0
5640 On ch=1 n=d3 v=40
5760 On ch=1 n=d3 v=0
5760 On ch=1 n=f#2 v=0
5760 On ch=1 n=f#2 v=40
6120 On ch=1 n=d3 v=40
6240 On ch=1 n=d3 v=0
6240 On ch=1 n=a3 v=40
6360 On ch=1 n=a3 v=0
7440 On ch=1 n=a3 v=40
7560 On ch=1 n=a3 v=0
7560 On ch=1 n=d3 v=40
7680 On ch=1 n=d3 v=0
7680 On ch=1 n=f#2 v=0
7680 On ch=1 n=f#2 v=40
8040 On ch=1 n=d3 v=40
8160 On ch=1 n=d3 v=0
8160 On ch=1 n=a3 v=40
8280 On ch=1 n=a3 v=0
9360 On ch=1 n=a3 v=40
9480 On ch=1 n=a3 v=0
9480 On ch=1 n=d3 v=40
9600 On ch=1 n=d3 v=0
9600 On ch=1 n=f#2 v=0
9600 On ch=1 n=f#2 v=40
9960 On ch=1 n=d3 v=40
10080 On ch=1 n=d3 v=0
10080 On ch=1 n=a3 v=40
10200 On ch=1 n=a3 v=0
11280 On ch=1 n=a3 v=40
11400 On ch=1 n=a3 v=0
11400 On ch=1 n=d3 v=40
11520 On ch=1 n=d3 v=0
11520 On ch=1 n=f#2 v=0
11520 On ch=1 n=f#2 v=40
11880 On ch=1 n=d3 v=40
12000 On ch=1 n=d3 v=0
12000 On ch=1 n=a3 v=40
12120 On ch=1 n=a3 v=0
13200 On ch=1 n=a3 v=40
13320 On ch=1 n=a3 v=0
13320 On ch=1 n=d3 v=40
13440 On ch=1 n=d3 v=0
13440 On ch=1 n=f#2 v=0
13440 On ch=1 n=f#2 v=40
13800 On ch=1 n=d3 v=40
13920 On ch=1 n=d3 v=0
13920 On ch=1 n=a3 v=40
14040 On ch=1 n=a3 v=0
15120 On ch=1 n=a3 v=40
15240 On ch=1 n=a3 v=0
15240 On ch=1 n=d3 v=40
15360 On ch=1 n=d3 v=0
15360 On ch=1 n=f#2 v=0
15360 On ch=1 n=f#2 v=40
15720 On ch=1 n=d3 v=40
15840 On ch=1 n=d3 v=0
15840 On ch=1 n=a3 v=50
15920 On ch=1 n=a3 v=0
19200 On ch=1 n=f#2 v=0
21120 On ch=1 n=g#4 v=90
21240 On ch=1 n=g#4 v=0
21240 On ch=1 n=f#4 v=90
21360 On ch=1 n=f#4 v=0
21360 On ch=1 n=d#4 v=90
21480 On ch=1 n=d#4 v=0
22080 On ch=1 n=g#3 v=70
22200 On ch=1 n=g#3 v=0
22200 On ch=1 n=f#3 v=70
22320 On ch=1 n=f#3 v=0
22320 On ch=1 n=d#3 v=70
22440 On ch=1 n=d#3 v=0
22880 On ch=1 n=d3 v=60
22960 On ch=1 n=d3 v=0
22960 On ch=1 n=c3 v=60
23040 On ch=1 n=c3 v=0
23040 On ch=1 n=f#2 v=40
23160 On ch=1 n=f#2 v=0
23160 On ch=1 n=c#3 v=40
23280 On ch=1 n=c#3 v=0
23280 On ch=1 n=f#2 v=40
23400 On ch=1 n=f#2 v=0
23400 On ch=1 n=c#3 v=40
23520 On ch=1 n=c#3 v=0
23520 On ch=1 n=f#2 v=40
23640 On ch=1 n=f#2 v=0
23640 On ch=1 n=c#3 v=40
23760 On ch=1 n=c#3 v=0
23760 On ch=1 n=f#2 v=40
23880 On ch=1 n=f#2 v=0
23880 On ch=1 n=c#3 v=40
24000 On ch=1 n=c#3 v=0
24000 On ch=1 n=f#2 v=40
24120 On ch=1 n=f#2 v=0
24120 On ch=1 n=c#3 v=40
24240 On ch=1 n=c#3 v=0
24240 On ch=1 n=f#2 v=40
24360 On ch=1 n=f#2 v=0
24360 On ch=1 n=c#3 v=40
24480 On ch=1 n=c#3 v=0
24480 On ch=1 n=f#2 v=40
24600 On ch=1 n=f#2 v=0
24600 On ch=1 n=c#3 v=40
24720 On ch=1 n=c#3 v=0
24720 On ch=1 n=f#2 v=40
24840 On ch=1 n=f#2 v=0
24840 On ch=1 n=c#3 v=40
24960 On ch=1 n=c#3 v=0
24960 On ch=1 n=f#2 v=40
25080 On ch=1 n=f#2 v=0
25080 On ch=1 n=c#3 v=40
25200 On ch=1 n=c#3 v=0
25200 On ch=1 n=f#2 v=40
25320 On ch=1 n=f#2 v=0
25320 On ch=1 n=c#3 v=40
25440 On ch=1 n=c#3 v=0
25440 On ch=1 n=f#2 v=40
25560 On ch=1 n=f#2 v=0
25560 On ch=1 n=c#3 v=40
25680 On ch=1 n=c#3 v=0
25680 On ch=1 n=f#2 v=40
25800 On ch=1 n=f#2 v=0
25800 On ch=1 n=c#3 v=40
25920 On ch=1 n=c#3 v=0
25920 On ch=1 n=f#2 v=40
26040 On ch=1 n=f#2 v=0
26040 On ch=1 n=c#3 v=40
26160 On ch=1 n=c#3 v=0
26160 On ch=1 n=f#2 v=40
26280 On ch=1 n=f#2 v=0
26280 On ch=1 n=c#3 v=40
26400 On ch=1 n=c#3 v=0
26400 On ch=1 n=f#2 v=40
26520 On ch=1 n=f#2 v=0
26520 On ch=1 n=c#3 v=40
26640 On ch=1 n=c#3 v=0
26640 On ch=1 n=f#2 v=40
26760 On ch=1 n=f#2 v=0
26760 On ch=1 n=c#3 v=40
26880 On ch=1 n=c#3 v=0
26880 On ch=1 n=f#2 v=40
27000 On ch=1 n=f#2 v=0
27000 On ch=1 n=c#3 v=40
27120 On ch=1 n=c#3 v=0
27120 On ch=1 n=f#2 v=40
27240 On ch=1 n=f#2 v=0
27240 On ch=1 n=c#3 v=40
27360 On ch=1 n=c#3 v=0
27360 On ch=1 n=f#2 v=40
27480 On ch=1 n=f#2 v=0
27480 On ch=1 n=c#3 v=40
27600 On ch=1 n=c#3 v=0
27600 On ch=1 n=f#2 v=40
27720 On ch=1 n=f#2 v=0
27720 On ch=1 n=c#3 v=40
27840 On ch=1 n=c#3 v=0
27840 On ch=1 n=d#3 v=40
27960 On ch=1 n=d#3 v=0
27960 On ch=1 n=a#3 v=40
28080 On ch=1 n=a#3 v=0
28080 On ch=1 n=d#3 v=40
28200 On ch=1 n=d#3 v=0
28200 On ch=1 n=a#3 v=40
28320 On ch=1 n=a#3 v=0
28320 On ch=1 n=d#3 v=40
28440 On ch=1 n=d#3 v=0
28440 On ch=1 n=a#3 v=40
28560 On ch=1 n=a#3 v=0
28560 On ch=1 n=d#3 v=40
28680 On ch=1 n=d#3 v=0
28680 On ch=1 n=a#3 v=40
28800 On ch=1 n=a#3 v=0
28800 On ch=1 n=a3 v=40
28920 On ch=1 n=a3 v=0
28920 On ch=1 n=e4 v=40
29040 On ch=1 n=e4 v=0
29040 On ch=1 n=a3 v=40
29160 On ch=1 n=a3 v=0
29160 On ch=1 n=e4 v=40
29280 On ch=1 n=e4 v=0
29280 On ch=1 n=a3 v=40
29400 On ch=1 n=a3 v=0
29400 On ch=1 n=e4 v=40
29520 On ch=1 n=e4 v=0
29520 On ch=1 n=a3 v=40
29640 On ch=1 n=a3 v=0
29640 On ch=1 n=e4 v=40
29760 On ch=1 n=e4 v=0
29760 On ch=1 n=a#3 v=40
29880 On ch=1 n=a#3 v=0
29880 On ch=1 n=d#3 v=40
30000 On ch=1 n=d#3 v=0
30000 On ch=1 n=a#3 v=40
30120 On ch=1 n=a#3 v=0
30120 On ch=1 n=d#3 v=40
30240 On ch=1 n=d#3 v=0
30240 On ch=1 n=a#3 v=40
30360 On ch=1 n=a#3 v=0
30360 On ch=1 n=d#3 v=40
30480 On ch=1 n=d#3 v=0
30480 On ch=1 n=a#3 v=40
30600 On ch=1 n=a#3 v=0
30600 On ch=1 n=d#3 v=40
30720 On ch=1 n=d#3 v=0
30720 On ch=1 n=f#2 v=40
30840 On ch=1 n=f#2 v=0
30840 On ch=1 n=c#3 v=40
30960 On ch=1 n=c#3 v=0
30960 On ch=1 n=f#2 v=40
31080 On ch=1 n=f#2 v=0
31080 On ch=1 n=c#3 v=40
31200 On ch=1 n=c#3 v=0
31200 On ch=1 n=f#2 v=40
31320 On ch=1 n=f#2 v=0
31320 On ch=1 n=c#3 v=40
31440 On ch=1 n=c#3 v=0
31440 On ch=1 n=f#2 v=40
31560 On ch=1 n=f#2 v=0
31560 On ch=1 n=c#3 v=40
31680 On ch=1 n=c#3 v=0
31680 On ch=1 n=d#3 v=40
31800 On ch=1 n=d#3 v=0
31800 On ch=1 n=a#3 v=40
31920 On ch=1 n=a#3 v=0
31920 On ch=1 n=d#3 v=40
32040 On ch=1 n=d#3 v=0
32040 On ch=1 n=a#3 v=40
32160 On ch=1 n=a#3 v=0
32160 On ch=1 n=d#3 v=40
32280 On ch=1 n=d#3 v=0
32280 On ch=1 n=a#3 v=40
32400 On ch=1 n=a#3 v=0
32400 On ch=1 n=d#3 v=40
32520 On ch=1 n=d#3 v=0
32520 On ch=1 n=a#3 v=40
32640 On ch=1 n=a#3 v=0
32640 On ch=1 n=d#3 v=40
32760 On ch=1 n=d#3 v=0
32760 On ch=1 n=a#3 v=40
32880 On ch=1 n=a#3 v=0
32880 On ch=1 n=d#3 v=40
33000 On ch=1 n=d#3 v=0
33000 On ch=1 n=a#3 v=40
33120 On ch=1 n=a#3 v=0
33120 On ch=1 n=d#3 v=40
33240 On ch=1 n=d#3 v=0
33240 On ch=1 n=a#3 v=40
33360 On ch=1 n=a#3 v=0
33360 On ch=1 n=d#3 v=40
33480 On ch=1 n=d#3 v=0
33480 On ch=1 n=a#3 v=40
33600 On ch=1 n=a#3 v=0
33600 On ch=1 n=a3 v=40
33720 On ch=1 n=a3 v=0
33720 On ch=1 n=e4 v=40
33840 On ch=1 n=e4 v=0
33840 On ch=1 n=a3 v=40
33960 On ch=1 n=a3 v=0
33960 On ch=1 n=e4 v=40
34080 On ch=1 n=e4 v=0
34080 On ch=1 n=a3 v=40
34200 On ch=1 n=a3 v=0
34200 On ch=1 n=e4 v=40
34320 On ch=1 n=e4 v=0
34320 On ch=1 n=a3 v=40
34440 On ch=1 n=a3 v=0
34440 On ch=1 n=e4 v=40
34560 On ch=1 n=e4 v=0
34560 On ch=1 n=f#2 v=40
34680 On ch=1 n=f#2 v=0
34680 On ch=1 n=g2 v=40
34740 On ch=1 n=g3 v=125
34800 On ch=1 n=g3 v=0
34800 On ch=1 n=g2 v=0
34800 On ch=1 n=f#3 v=125
34800 On ch=1 n=f#2 v=40
34860 On ch=1 n=f#3 v=0
34860 On ch=1 n=c#3 v=125
34920 On ch=1 n=c#3 v=0
34920 On ch=1 n=f#2 v=0
34920 On ch=1 n=g2 v=40
35040 On ch=1 n=g2 v=0
35040 On ch=1 n=f#2 v=40
35160 On ch=1 n=f#2 v=0
35160 On ch=1 n=g2 v=40
35280 On ch=1 n=g2 v=0
35280 On ch=1 n=f#2 v=40
35400 On ch=1 n=f#2 v=0
35400 On ch=1 n=g2 v=40
35520 On ch=1 n=g2 v=0
35520 On ch=1 n=f#2 v=40
35640 On ch=1 n=f#2 v=0
35640 On ch=1 n=g2 v=40
35760 On ch=1 n=g2 v=0
35760 On ch=1 n=f#2 v=40
35880 On ch=1 n=f#2 v=0
35880 On ch=1 n=g2 v=40
36000 On ch=1 n=g2 v=0
36000 On ch=1 n=f#2 v=40
36120 On ch=1 n=f#2 v=0
36120 On ch=1 n=g2 v=40
36240 On ch=1 n=g2 v=0
36240 On ch=1 n=f#2 v=40
36360 On ch=1 n=f#2 v=0
36360 On ch=1 n=g2 v=40
36480 On ch=1 n=g2 v=0
36480 On ch=1 n=f#2 v=40
36600 On ch=1 n=f#2 v=0
36600 On ch=1 n=g2 v=40
36720 On ch=1 n=g2 v=0
36720 On ch=1 n=f#2 v=40
36840 On ch=1 n=f#2 v=0
36840 On ch=1 n=g2 v=40
36960 On ch=1 n=g2 v=0
36960 On ch=1 n=f#2 v=40
37080 On ch=1 n=f#2 v=0
37080 On ch=1 n=g2 v=40
37200 On ch=1 n=g2 v=0
37200 On ch=1 n=f#2 v=40
37320 On ch=1 n=f#2 v=0
37320 On ch=1 n=g2 v=40
37440 On ch=1 n=g2 v=0
37440 On ch=1 n=f#2 v=40
37560 On ch=1 n=f#2 v=0
37560 On ch=1 n=g2 v=40
37680 On ch=1 n=g2 v=0
37680 On ch=1 n=f#2 v=40
37800 On ch=1 n=f#2 v=0
37800 On ch=1 n=g2 v=40
37920 On ch=1 n=g2 v=0
37920 On ch=1 n=f#2 v=40
38040 On ch=1 n=f#2 v=0
38040 On ch=1 n=g2 v=40
38160 On ch=1 n=g2 v=0
38160 On ch=1 n=f#2 v=40
38280 On ch=1 n=f#2 v=0
38280 On ch=1 n=g2 v=40
38400 On ch=1 n=g2 v=0
38400 On ch=1 n=f#2 v=40
38520 On ch=1 n=f#2 v=0
38520 On ch=1 n=g2 v=40
38640 On ch=1 n=g2 v=0
38640 On ch=1 n=f#2 v=40
38760 On ch=1 n=f#2 v=0
38760 On ch=1 n=g2 v=40
38880 On ch=1 n=g2 v=0
38880 On ch=1 n=f#2 v=40
39000 On ch=1 n=f#2 v=0
39000 On ch=1 n=g2 v=40
39120 On ch=1 n=g2 v=0
39120 On ch=1 n=f#2 v=40
39240 On ch=1 n=f#2 v=0
39240 On ch=1 n=g2 v=40
39360 On ch=1 n=g2 v=0
39360 On ch=1 n=f#2 v=40
39480 On ch=1 n=f#2 v=0
39480 On ch=1 n=g2 v=40
39600 On ch=1 n=g2 v=0
39600 On ch=1 n=f#2 v=40
39720 On ch=1 n=f#2 v=0
39720 On ch=1 n=g2 v=40
39840 On ch=1 n=g2 v=0
39840 On ch=1 n=f#2 v=40
39960 On ch=1 n=f#2 v=0
39960 On ch=1 n=g2 v=40
40080 On ch=1 n=g2 v=0
40080 On ch=1 n=f#2 v=40
40200 On ch=1 n=f#2 v=0
40200 On ch=1 n=g2 v=40
40320 On ch=1 n=g2 v=0
40320 On ch=1 n=f#2 v=40
40440 On ch=1 n=f#2 v=0
40440 On ch=1 n=g2 v=40
40560 On ch=1 n=g2 v=0
40560 On ch=1 n=f#2 v=40
40680 On ch=1 n=f#2 v=0
40680 On ch=1 n=g2 v=40
40800 On ch=1 n=g2 v=0
40800 On ch=1 n=f#2 v=40
40920 On ch=1 n=f#2 v=0
40920 On ch=1 n=g2 v=40
41040 On ch=1 n=g2 v=0
41040 On ch=1 n=f#2 v=40
41160 On ch=1 n=f#2 v=0
41160 On ch=1 n=g2 v=40
41280 On ch=1 n=g2 v=0
41280 On ch=1 n=f#2 v=40
41400 On ch=1 n=f#2 v=0
41400 On ch=1 n=g2 v=40
41520 On ch=1 n=g2 v=0
41520 On ch=1 n=f#2 v=40
41640 On ch=1 n=f#2 v=0
41640 On ch=1 n=g2 v=40
41760 On ch=1 n=g2 v=0
41760 On ch=1 n=f#2 v=40
41880 On ch=1 n=f#2 v=0
41880 On ch=1 n=g2 v=40
42000 On ch=1 n=g2 v=0
42000 On ch=1 n=f#2 v=40
42120 On ch=1 n=f#2 v=0
42120 On ch=1 n=g2 v=40
42240 On ch=1 n=g2 v=0
42240 On ch=1 n=f#2 v=40
42360 On ch=1 n=f#2 v=0
42360 On ch=1 n=g2 v=40
42480 On ch=1 n=g2 v=0
42480 On ch=1 n=f#2 v=40
42600 On ch=1 n=f#2 v=0
42600 On ch=1 n=g2 v=40
42720 On ch=1 n=g2 v=0
42720 On ch=1 n=f#2 v=40
42840 On ch=1 n=f#2 v=0
42840 On ch=1 n=g2 v=40
42960 On ch=1 n=g2 v=0
42960 On ch=1 n=f#2 v=40
43080 On ch=1 n=f#2 v=0
43080 On ch=1 n=g2 v=40
43200 On ch=1 n=g2 v=0
43200 On ch=1 n=f#2 v=40
43320 On ch=1 n=f#2 v=0
43320 On ch=1 n=g2 v=40
43440 On ch=1 n=g2 v=0
43440 On ch=1 n=f#2 v=40
43560 On ch=1 n=f#2 v=0
43560 On ch=1 n=g2 v=40
43680 On ch=1 n=g2 v=0
43680 On ch=1 n=f#2 v=40
43800 On ch=1 n=f#2 v=0
43800 On ch=1 n=g2 v=40
43920 On ch=1 n=g2 v=0
43920 On ch=1 n=f#2 v=40
44040 On ch=1 n=f#2 v=0
44040 On ch=1 n=g2 v=40
44160 On ch=1 n=g2 v=0
44160 On ch=1 n=f#2 v=40
44280 On ch=1 n=f#2 v=0
44280 On ch=1 n=g2 v=40
44400 On ch=1 n=g2 v=0
44400 On ch=1 n=f#2 v=40
44520 On ch=1 n=f#2 v=0
44520 On ch=1 n=g2 v=40
44640 On ch=1 n=g2 v=0
44640 On ch=1 n=f#2 v=40
44760 On ch=1 n=f#2 v=0
44760 On ch=1 n=g2 v=40
44880 On ch=1 n=g2 v=0
44880 On ch=1 n=f#2 v=40
45000 On ch=1 n=f#2 v=0
45000 On ch=1 n=g2 v=40
45120 On ch=1 n=g2 v=0
45120 On ch=1 n=f#2 v=40
45240 On ch=1 n=f#2 v=0
45240 On ch=1 n=g2 v=40
45360 On ch=1 n=g2 v=0
45360 On ch=1 n=f#2 v=40
45480 On ch=1 n=f#2 v=0
45480 On ch=1 n=g2 v=40
45600 On ch=1 n=g2 v=0
45600 On ch=1 n=f#2 v=40
45720 On ch=1 n=f#2 v=0
45720 On ch=1 n=g2 v=40
45840 On ch=1 n=g2 v=0
45840 On ch=1 n=f#2 v=40
45960 On ch=1 n=f#2 v=0
45960 On ch=1 n=g2 v=40
46080 On ch=1 n=g2 v=0
46080 On ch=1 n=f#2 v=40
46200 On ch=1 n=f#2 v=0
46200 On ch=1 n=g2 v=40
46260 On ch=1 n=g3 v=125
46320 On ch=1 n=g3 v=0
46320 On ch=1 n=g2 v=0
46320 On ch=1 n=f#3 v=125
46320 On ch=1 n=f#2 v=40
46380 On ch=1 n=f#3 v=0
46380 On ch=1 n=c#3 v=125
46440 On ch=1 n=c#3 v=0
46440 On ch=1 n=f#2 v=0
46440 On ch=1 n=g2 v=40
46560 On ch=1 n=g2 v=0
46560 On ch=1 n=f#2 v=40
46680 On ch=1 n=f#2 v=0
46680 On ch=1 n=g2 v=40
46800 On ch=1 n=g2 v=0
46800 On ch=1 n=f#2 v=40
46920 On ch=1 n=f#2 v=0
46920 On ch=1 n=g2 v=40
47040 On ch=1 n=g2 v=0
47040 On ch=1 n=f#2 v=40
47160 On ch=1 n=f#2 v=0
47160 On ch=1 n=g2 v=40
47280 On ch=1 n=g2 v=0
47280 On ch=1 n=f#2 v=40
47400 On ch=1 n=f#2 v=0
47400 On ch=1 n=g2 v=40
47520 On ch=1 n=g2 v=0
47520 On ch=1 n=f#2 v=40
47640 On ch=1 n=f#2 v=0
47640 On ch=1 n=g2 v=40
47760 On ch=1 n=g2 v=0
47760 On ch=1 n=f#2 v=40
47880 On ch=1 n=f#2 v=0
47880 On ch=1 n=g2 v=40
48000 On ch=1 n=g2 v=0
48000 On ch=1 n=f#2 v=40
48120 On ch=1 n=f#2 v=0
48120 On ch=1 n=g2 v=40
48240 On ch=1 n=g2 v=0
48240 On ch=1 n=f#2 v=40
48360 On ch=1 n=f#2 v=0
48360 On ch=1 n=g2 v=40
48480 On ch=1 n=g2 v=0
48480 On ch=1 n=f#2 v=40
48600 On ch=1 n=f#2 v=0
48600 On ch=1 n=g2 v=40
48720 On ch=1 n=g2 v=0
48720 On ch=1 n=f#2 v=40
48840 On ch=1 n=f#2 v=0
48840 On ch=1 n=g2 v=40
48960 On ch=1 n=g2 v=0
48960 On ch=1 n=f#2 v=40
49080 On ch=1 n=f#2 v=0
49080 On ch=1 n=g2 v=40
49200 On ch=1 n=g2 v=0
49200 On ch=1 n=f#2 v=40
49320 On ch=1 n=f#2 v=0
49320 On ch=1 n=g2 v=40
49440 On ch=1 n=g2 v=0
49440 On ch=1 n=f#2 v=40
49560 On ch=1 n=f#2 v=0
49560 On ch=1 n=g2 v=40
49680 On ch=1 n=g2 v=0
49680 On ch=1 n=f#2 v=40
49800 On ch=1 n=f#2 v=0
49800 On ch=1 n=g2 v=40
49920 On ch=1 n=g2 v=0
49920 On ch=1 n=f#2 v=40
50040 On ch=1 n=f#2 v=0
50040 On ch=1 n=g2 v=40
50160 On ch=1 n=g2 v=0
50160 On ch=1 n=f#2 v=40
50280 On ch=1 n=f#2 v=0
50280 On ch=1 n=g2 v=40
50400 On ch=1 n=g2 v=0
50400 On ch=1 n=f#2 v=40
50520 On ch=1 n=f#2 v=0
50520 On ch=1 n=g2 v=40
50640 On ch=1 n=g2 v=0
50640 On ch=1 n=f#2 v=40
50760 On ch=1 n=f#2 v=0
50760 On ch=1 n=g2 v=40
50880 On ch=1 n=g2 v=0
50880 On ch=1 n=f#2 v=40
51000 On ch=1 n=f#2 v=0
51000 On ch=1 n=g2 v=40
51120 On ch=1 n=g2 v=0
51120 On ch=1 n=f#2 v=40
51240 On ch=1 n=f#2 v=0
51240 On ch=1 n=g2 v=40
51360 On ch=1 n=g2 v=0
51360 On ch=1 n=f#2 v=40
51480 On ch=1 n=f#2 v=0
51480 On ch=1 n=g2 v=40
51600 On ch=1 n=g2 v=0
51600 On ch=1 n=f#2 v=40
51720 On ch=1 n=f#2 v=0
51720 On ch=1 n=g2 v=40
51840 On ch=1 n=g2 v=0
51840 On ch=1 n=f#2 v=40
51960 On ch=1 n=f#2 v=0
51960 On ch=1 n=g2 v=40
52080 On ch=1 n=g2 v=0
52080 On ch=1 n=f#2 v=40
52200 On ch=1 n=f#2 v=0
52200 On ch=1 n=g2 v=40
52320 On ch=1 n=g2 v=0
52320 On ch=1 n=f#2 v=40
52440 On ch=1 n=f#2 v=0
52440 On ch=1 n=g2 v=40
52560 On ch=1 n=g2 v=0
52560 On ch=1 n=f#2 v=40
52680 On ch=1 n=f#2 v=0
52680 On ch=1 n=g2 v=40
52800 On ch=1 n=g2 v=0
52800 On ch=1 n=f#2 v=40
52920 On ch=1 n=f#2 v=0
52920 On ch=1 n=g2 v=40
53040 On ch=1 n=g2 v=0
53040 On ch=1 n=f#2 v=40
53160 On ch=1 n=f#2 v=0
53160 On ch=1 n=g2 v=40
53280 On ch=1 n=g2 v=0
53280 On ch=1 n=f#2 v=40
53400 On ch=1 n=f#2 v=0
53400 On ch=1 n=g2 v=40
53520 On ch=1 n=g2 v=0
53520 On ch=1 n=f#2 v=40
53640 On ch=1 n=f#2 v=0
53640 On ch=1 n=g2 v=40
53760 On ch=1 n=g2 v=0
53760 On ch=1 n=f#2 v=60
54000 On ch=1 n=c3 v=60
54240 On ch=1 n=c3 v=0
54240 On ch=1 n=c#3 v=60
54480 On ch=1 n=c#3 v=0
54480 On ch=1 n=d3 v=60
54720 On ch=1 n=d3 v=0
54720 On ch=1 n=d#3 v=60
54960 On ch=1 n=d#3 v=0
54960 On ch=1 n=e3 v=60
55140 On ch=1 n=f#2 v=0
55140 On ch=1 n=g2 v=60
55200 On ch=1 n=g2 v=0
55200 On ch=1 n=e3 v=0
55200 On ch=1 n=f#2 v=60
55440 On ch=1 n=c3 v=60
55680 On ch=1 n=c3 v=0
55680 On ch=1 n=c#3 v=60
55920 On ch=1 n=c#3 v=0
55920 On ch=1 n=d3 v=60
56160 On ch=1 n=d3 v=0
56160 On ch=1 n=d#3 v=60
56400 On ch=1 n=d#3 v=0
56400 On ch=1 n=e3 v=60
56580 On ch=1 n=f#2 v=0
56580 On ch=1 n=g2 v=60
56640 On ch=1 n=g2 v=0
56640 On ch=1 n=e3 v=0
56640 On ch=1 n=f#2 v=70
56880 On ch=1 n=c3 v=70
57120 On ch=1 n=c3 v=0
57120 On ch=1 n=c#3 v=70
57360 On ch=1 n=c#3 v=0
57360 On ch=1 n=d3 v=70
57600 On ch=1 n=d3 v=0
57600 On ch=1 n=d#3 v=70
57840 On ch=1 n=d#3 v=0
57840 On ch=1 n=e3 v=70
58020 On ch=1 n=f#2 v=0
58020 On ch=1 n=g2 v=70
58080 On ch=1 n=g2 v=0
58080 On ch=1 n=e3 v=0
58080 On ch=1 n=f#2 v=70
58320 On ch=1 n=c3 v=70
58560 On ch=1 n=c3 v=0
58560 On ch=1 n=c#3 v=70
58800 On ch=1 n=c#3 v=0
58800 On ch=1 n=d3 v=70
59040 On ch=1 n=d3 v=0
59040 On ch=1 n=d#3 v=70
59280 On ch=1 n=d#3 v=0
59280 On ch=1 n=e3 v=70
59520 On ch=1 n=e3 v=0
59520 On ch=1 n=f#2 v=0
59520 On ch=1 n=f#2 v=80
59520 On ch=1 n=f#3 v=80
59760 On ch=1 n=c4 v=80
59760 On ch=1 n=c5 v=50
59840 On ch=1 n=c5 v=0
59840 On ch=1 n=a4 v=50
59920 On ch=1 n=a4 v=0
59920 On ch=1 n=f4 v=50
60000 On ch=1 n=f4 v=0
60000 On ch=1 n=c4 v=0
60000 On ch=1 n=c#4 v=80
60000 On ch=1 n=c#5 v=50
60080 On ch=1 n=c#5 v=0
60080 On ch=1 n=a#4 v=50
60160 On ch=1 n=a#4 v=0
60160 On ch=1 n=f#4 v=50
60240 On ch=1 n=f#4 v=0
60240 On ch=1 n=c#4 v=0
60240 On ch=1 n=f#3 v=0
60240 On ch=1 n=d4 v=80
60240 On ch=1 n=d5 v=50
60320 On ch=1 n=d5 v=0
60320 On ch=1 n=b4 v=50
60400 On ch=1 n=b4 v=0
60400 On ch=1 n=g4 v=50
60480 On ch=1 n=g4 v=0
60480 On ch=1 n=d4 v=0
60480 On ch=1 n=d#4 v=80
60480 On ch=1 n=d#5 v=50
60560 On ch=1 n=d#5 v=0
60560 On ch=1 n=c5 v=50
60640 On ch=1 n=c5 v=0
60640 On ch=1 n=g#4 v=50
60720 On ch=1 n=g#4 v=0
60720 On ch=1 n=d#4 v=0
60720 On ch=1 n=e4 v=80
60720 On ch=1 n=e5 v=50
60800 On ch=1 n=e5 v=0
60800 On ch=1 n=c#5 v=50
60880 On ch=1 n=c#5 v=0
60880 On ch=1 n=a4 v=50
60900 On ch=1 n=f#2 v=0
60900 On ch=1 n=g2 v=80
60900 On ch=1 n=g3 v=80
60960 On ch=1 n=g3 v=0
60960 On ch=1 n=g2 v=0
60960 On ch=1 n=a4 v=0
60960 On ch=1 n=e4 v=0
60960 On ch=1 n=f#2 v=80
60960 On ch=1 n=f#3 v=80
61200 On ch=1 n=c4 v=80
61200 On ch=1 n=c5 v=50
61280 On ch=1 n=c5 v=0
61280 On ch=1 n=a4 v=50
61360 On ch=1 n=a4 v=0
61360 On ch=1 n=f4 v=50
61440 On ch=1 n=f4 v=0
61440 On ch=1 n=c4 v=0
61440 On ch=1 n=c#4 v=80
61440 On ch=1 n=c#5 v=50
61520 On ch=1 n=c#5 v=0
61520 On ch=1 n=a#4 v=50
61600 On ch=1 n=a#4 v=0
61600 On ch=1 n=f#4 v=50
61680 On ch=1 n=f#4 v=0
61680 On ch=1 n=c#4 v=0
61680 On ch=1 n=f#3 v=0
61680 On ch=1 n=d4 v=80
61680 On ch=1 n=d5 v=50
61760 On ch=1 n=d5 v=0
61760 On ch=1 n=b4 v=50
61840 On ch=1 n=b4 v=0
61840 On ch=1 n=g4 v=50
61920 On ch=1 n=g4 v=0
61920 On ch=1 n=d4 v=0
61920 On ch=1 n=d#4 v=80
61920 On ch=1 n=d#5 v=50
62000 On ch=1 n=d#5 v=0
62000 On ch=1 n=c5 v=50
62080 On ch=1 n=c5 v=0
62080 On ch=1 n=g#4 v=50
62160 On ch=1 n=g#4 v=0
62160 On ch=1 n=d#4 v=0
62160 On ch=1 n=e4 v=80
62160 On ch=1 n=e5 v=50
62240 On ch=1 n=e5 v=0
62240 On ch=1 n=c#5 v=50
62320 On ch=1 n=c#5 v=0
62320 On ch=1 n=a4 v=50
62340 On ch=1 n=f#2 v=0
62340 On ch=1 n=a#2 v=80
62340 On ch=1 n=a#3 v=80
62400 On ch=1 n=a#3 v=0
62400 On ch=1 n=a#2 v=0
62400 On ch=1 n=a4 v=0
62400 On ch=1 n=e4 v=0
62400 On ch=1 n=f#2 v=90
62400 On ch=1 n=f#3 v=90
62640 On ch=1 n=c4 v=90
62640 On ch=1 n=c5 v=50
62720 On ch=1 n=c5 v=0
62720 On ch=1 n=a4 v=50
62800 On ch=1 n=a4 v=0
62800 On ch=1 n=f4 v=50
62880 On ch=1 n=f4 v=0
62880 On ch=1 n=c4 v=0
62880 On ch=1 n=c#4 v=90
62880 On ch=1 n=c#5 v=50
62960 On ch=1 n=c#5 v=0
62960 On ch=1 n=a#4 v=50
63040 On ch=1 n=a#4 v=0
63040 On ch=1 n=f#4 v=50
63120 On ch=1 n=f#4 v=0
63120 On ch=1 n=c#4 v=0
63120 On ch=1 n=f#3 v=0
63120 On ch=1 n=d4 v=90
63120 On ch=1 n=d5 v=50
63200 On ch=1 n=d5 v=0
63200 On ch=1 n=b4 v=50
63280 On ch=1 n=b4 v=0
63280 On ch=1 n=g4 v=50
63360 On ch=1 n=g4 v=0
63360 On ch=1 n=d4 v=0
63360 On ch=1 n=d#4 v=90
63360 On ch=1 n=d#5 v=50
63440 On ch=1 n=d#5 v=0
63440 On ch=1 n=c5 v=50
63520 On ch=1 n=c5 v=0
63520 On ch=1 n=g#4 v=50
63600 On ch=1 n=g#4 v=0
63600 On ch=1 n=d#4 v=0
63600 On ch=1 n=e4 v=90
63600 On ch=1 n=e5 v=50
63680 On ch=1 n=e5 v=0
63680 On ch=1 n=c#5 v=50
63760 On ch=1 n=c#5 v=0
63760 On ch=1 n=a4 v=50
63780 On ch=1 n=f#2 v=0
63780 On ch=1 n=c#3 v=90
63780 On ch=1 n=c#4 v=90
63840 On ch=1 n=c#4 v=0
63840 On ch=1 n=c#3 v=0
63840 On ch=1 n=a4 v=0
63840 On ch=1 n=e4 v=0
63840 On ch=1 n=f#2 v=90
63840 On ch=1 n=f#3 v=90
64080 On ch=1 n=c#4 v=90
64080 On ch=1 n=c#5 v=50
64160 On ch=1 n=c#5 v=0
64160 On ch=1 n=a#4 v=50
64240 On ch=1 n=a#4 v=0
64240 On ch=1 n=f#4 v=50
64320 On ch=1 n=f#4 v=0
64320 On ch=1 n=c#4 v=0
64320 On ch=1 n=d4 v=90
64320 On ch=1 n=d5 v=50
64400 On ch=1 n=d5 v=0
64400 On ch=1 n=b4 v=50
64480 On ch=1 n=b4 v=0
64480 On ch=1 n=g4 v=50
64560 On ch=1 n=g4 v=0
64560 On ch=1 n=d4 v=0
64560 On ch=1 n=d#4 v=90
64560 On ch=1 n=d#5 v=50
64640 On ch=1 n=d#5 v=0
64640 On ch=1 n=c5 v=50
64720 On ch=1 n=c5 v=0
64720 On ch=1 n=g#4 v=50
64800 On ch=1 n=g#4 v=0
64800 On ch=1 n=d#4 v=0
64800 On ch=1 n=e4 v=90
64800 On ch=1 n=e5 v=50
64880 On ch=1 n=e5 v=0
64880 On ch=1 n=c#5 v=50
64960 On ch=1 n=c#5 v=0
64960 On ch=1 n=a4 v=50
65040 On ch=1 n=a4 v=0
65040 On ch=1 n=e4 v=0
65040 On ch=1 n=f4 v=90
65040 On ch=1 n=f5 v=50
65120 On ch=1 n=f5 v=0
65120 On ch=1 n=d5 v=50
65200 On ch=1 n=d5 v=0
65200 On ch=1 n=a#4 v=50
65280 On ch=1 n=a#4 v=0
65280 On ch=1 n=f4 v=0
65280 On ch=1 n=f#3 v=0
65280 On ch=1 n=f#2 v=0
65280 On ch=1 n=e5 v=80
65280 On ch=1 n=a#4 v=80
65280 On ch=1 n=f#4 v=80
65520 On ch=1 n=f#2 v=80
65520 On ch=1 n=f#3 v=80
65520 On ch=1 n=c4 v=50
65640 On ch=1 n=c4 v=0
65640 On ch=1 n=d4 v=50
65700 On ch=1 n=d4 v=0
65700 On ch=1 n=e4 v=50
65760 On ch=1 n=e4 v=0
65760 On ch=1 n=f#4 v=50
65820 On ch=1 n=f#4 v=0
65820 On ch=1 n=g#4 v=60
65880 On ch=1 n=g#4 v=0
65880 On ch=1 n=a#4 v=60
65940 On ch=1 n=a#4 v=0
65940 On ch=1 n=c5 v=60
66000 On ch=1 n=c5 v=0
66120 On ch=1 n=a#4 v=0
66120 On ch=1 n=f#4 v=0
66120 On ch=1 n=e5 v=0
66120 On ch=1 n=f#5 v=70
66120 On ch=1 n=g#4 v=70
66120 On ch=1 n=c5 v=70
66240 On ch=1 n=c5 v=0
66240 On ch=1 n=g#4 v=0
66240 On ch=1 n=f#5 v=0
66240 On ch=1 n=f#3 v=0
66240 On ch=1 n=f#2 v=0
66240 On ch=1 n=e5 v=80
66240 On ch=1 n=a#4 v=80
66240 On ch=1 n=f#4 v=80
66480 On ch=1 n=f#2 v=80
66480 On ch=1 n=f#3 v=80
66480 On ch=1 n=c4 v=50
66600 On ch=1 n=c4 v=0
66600 On ch=1 n=d4 v=50
66660 On ch=1 n=d4 v=0
66660 On ch=1 n=e4 v=50
66720 On ch=1 n=e4 v=0
66720 On ch=1 n=f#4 v=50
66780 On ch=1 n=f#4 v=0
66780 On ch=1 n=g#4 v=60
66840 On ch=1 n=g#4 v=0
66840 On ch=1 n=a#4 v=60
66900 On ch=1 n=a#4 v=0
66900 On ch=1 n=c5 v=60
66960 On ch=1 n=c5 v=0
67080 On ch=1 n=a#4 v=0
67080 On ch=1 n=f#4 v=0
67080 On ch=1 n=e5 v=0
67080 On ch=1 n=f#5 v=70
67080 On ch=1 n=c5 v=70
67080 On ch=1 n=g#4 v=70
67200 On ch=1 n=g#4 v=0
67200 On ch=1 n=c5 v=0
67200 On ch=1 n=f#5 v=0
67200 On ch=1 n=f#3 v=0
67200 On ch=1 n=f#2 v=0
67200 On ch=1 n=e5 v=80
67200 On ch=1 n=a#4 v=80
67200 On ch=1 n=f#4 v=80
67440 On ch=1 n=c4 v=80
67440 On ch=1 n=f#2 v=80
67440 On ch=1 n=f#3 v=80
67560 On ch=1 n=c4 v=0
67560 On ch=1 n=d4 v=50
67620 On ch=1 n=d4 v=0
67620 On ch=1 n=e4 v=50
67680 On ch=1 n=e4 v=0
67680 On ch=1 n=f#4 v=50
67740 On ch=1 n=f#4 v=0
67740 On ch=1 n=g#4 v=50
67800 On ch=1 n=g#4 v=0
67800 On ch=1 n=a#4 v=60
67860 On ch=1 n=a#4 v=0
67860 On ch=1 n=c5 v=60
67920 On ch=1 n=c5 v=0
68040 On ch=1 n=a#4 v=0
68040 On ch=1 n=f#4 v=0
68040 On ch=1 n=e5 v=0
68040 On ch=1 n=g#4 v=70
68040 On ch=1 n=c5 v=70
68040 On ch=1 n=f#5 v=70
68160 On ch=1 n=f#5 v=0
68160 On ch=1 n=c5 v=0
68160 On ch=1 n=g#4 v=0
68160 On ch=1 n=f#3 v=0
68160 On ch=1 n=f#2 v=0
68160 On ch=1 n=e5 v=80
68160 On ch=1 n=a#4 v=80
68160 On ch=1 n=f#4 v=80
68400 On ch=1 n=f#2 v=80
68400 On ch=1 n=f#3 v=80
68400 On ch=1 n=c4 v=50
68520 On ch=1 n=c4 v=0
68520 On ch=1 n=d4 v=50
68580 On ch=1 n=d4 v=0
68580 On ch=1 n=e4 v=50
68640 On ch=1 n=e4 v=0
68640 On ch=1 n=f#4 v=50
68700 On ch=1 n=f#4 v=0
68700 On ch=1 n=g#4 v=60
68760 On ch=1 n=g#4 v=0
68760 On ch=1 n=a#4 v=60
68820 On ch=1 n=a#4 v=0
68820 On ch=1 n=c5 v=60
68880 On ch=1 n=c5 v=0
69000 On ch=1 n=a#4 v=0
69000 On ch=1 n=f#4 v=0
69000 On ch=1 n=e5 v=0
69000 On ch=1 n=f#5 v=70
69000 On ch=1 n=c5 v=70
69000 On ch=1 n=g#4 v=70
69120 On ch=1 n=g#4 v=0
69120 On ch=1 n=c5 v=0
69120 On ch=1 n=f#5 v=0
69120 On ch=1 n=f#3 v=0
69120 On ch=1 n=f#2 v=0
69120 On ch=1 n=f5 v=100
69120 On ch=1 n=d5 v=100
69120 On ch=1 n=a#4 v=100
69120 On ch=1 n=g#4 v=100
69360 On ch=1 n=f#2 v=100
69360 On ch=1 n=f#3 v=100
69840 On ch=1 n=g#4 v=0
69840 On ch=1 n=a#4 v=0
69840 On ch=1 n=d5 v=0
69840 On ch=1 n=f5 v=0
69840 On ch=1 n=e5 v=100
69840 On ch=1 n=a#4 v=100
69840 On ch=1 n=f#4 v=100
69840 On ch=1 n=e4 v=100
70080 On ch=1 n=e4 v=0
70080 On ch=1 n=f#4 v=0
70080 On ch=1 n=a#4 v=0
70080 On ch=1 n=e5 v=0
70080 On ch=1 n=f#5 v=100
70080 On ch=1 n=c5 v=100
70080 On ch=1 n=g#4 v=100
70080 On ch=1 n=f#4 v=100
70440 On ch=1 n=f#4 v=0
70440 On ch=1 n=g#4 v=0
70440 On ch=1 n=c5 v=0
70440 On ch=1 n=f#5 v=0
70440 On ch=1 n=g#5 v=100
70440 On ch=1 n=d5 v=100
70440 On ch=1 n=a#4 v=100
70440 On ch=1 n=g#4 v=100
70560 On ch=1 n=g#4 v=0
70560 On ch=1 n=a#4 v=0
70560 On ch=1 n=d5 v=0
70560 On ch=1 n=g#5 v=0
70560 On ch=1 n=a#5 v=100
70560 On ch=1 n=e5 v=100
70560 On ch=1 n=c5 v=100
70560 On ch=1 n=a#4 v=100
70800 On ch=1 n=a#4 v=0
70800 On ch=1 n=c5 v=0
70800 On ch=1 n=e5 v=0
70800 On ch=1 n=a#5 v=0
70800 On ch=1 n=f#5 v=100
70800 On ch=1 n=c5 v=100
70800 On ch=1 n=g#4 v=100
70800 On ch=1 n=f#4 v=100
71040 On ch=1 n=f#4 v=0
71040 On ch=1 n=g#4 v=0
71040 On ch=1 n=c5 v=0
71040 On ch=1 n=f#5 v=0
71040 On ch=1 n=f#3 v=0
71040 On ch=1 n=f#2 v=0
71040 On ch=1 n=g#5 v=100
71040 On ch=1 n=d5 v=100
71040 On ch=1 n=a#4 v=100
71040 On ch=1 n=g#4 v=100
71280 On ch=1 n=g#4 v=0
71280 On ch=1 n=a#4 v=0
71280 On ch=1 n=d5 v=0
71280 On ch=1 n=g#5 v=0
71280 On ch=1 n=e5 v=100
71280 On ch=1 n=a#4 v=100
71280 On ch=1 n=f#4 v=100
71280 On ch=1 n=e4 v=100
71520 On ch=1 n=e4 v=0
71520 On ch=1 n=f#4 v=0
71520 On ch=1 n=a#4 v=0
71520 On ch=1 n=e5 v=0
71520 On ch=1 n=c5 v=100
71520 On ch=1 n=f#4 v=100
71520 On ch=1 n=d4 v=100
71520 On ch=1 n=c4 v=100
71760 On ch=1 n=f#2 v=100
71760 On ch=1 n=f#3 v=100
72480 On ch=1 n=c4 v=0
72480 On ch=1 n=d4 v=0
72480 On ch=1 n=f#4 v=0
72480 On ch=1 n=c5 v=0
72480 On ch=1 n=d#5 v=100
72480 On ch=1 n=a4 v=100
72480 On ch=1 n=f4 v=100
72480 On ch=1 n=d#4 v=100
72960 On ch=1 n=d#4 v=0
72960 On ch=1 n=f4 v=0
72960 On ch=1 n=a4 v=0
72960 On ch=1 n=d#5 v=0
72960 On ch=1 n=f#3 v=0
72960 On ch=1 n=f#2 v=0
72960 On ch=1 n=a#3 v=110
72960 On ch=1 n=c4 v=110
72960 On ch=1 n=e4 v=110
72960 On ch=1 n=a#4 v=110
73200 On ch=1 n=f#2 v=110
73200 On ch=1 n=f#3 v=110
73920 On ch=1 n=c5 v=90
74000 On ch=1 n=c5 v=0
74080 On ch=1 n=c5 v=90
74160 On ch=1 n=c5 v=0
74240 On ch=1 n=c5 v=90
74320 On ch=1 n=c5 v=0
74400 On ch=1 n=c5 v=90
74480 On ch=1 n=c5 v=0
74560 On ch=1 n=c5 v=90
74640 On ch=1 n=c5 v=0
74720 On ch=1 n=c5 v=90
74800 On ch=1 n=c5 v=0
74880 On ch=1 n=f#3 v=0
74880 On ch=1 n=f#2 v=0
74880 On ch=1 n=a#4 v=0
74880 On ch=1 n=e4 v=0
74880 On ch=1 n=c4 v=0
74880 On ch=1 n=a#3 v=0
74880 On ch=1 n=a#3 v=110
74880 On ch=1 n=c4 v=110
74880 On ch=1 n=e4 v=110
74880 On ch=1 n=a#4 v=110
75120 On ch=1 n=f#2 v=110
75120 On ch=1 n=f#3 v=110
75840 On ch=1 n=c5 v=90
75920 On ch=1 n=c5 v=0
76000 On ch=1 n=c5 v=90
76080 On ch=1 n=c5 v=0
76160 On ch=1 n=c5 v=90
76240 On ch=1 n=c5 v=0
76320 On ch=1 n=c5 v=90
76400 On ch=1 n=c5 v=0
76480 On ch=1 n=c5 v=90
76560 On ch=1 n=c5 v=0
76640 On ch=1 n=c5 v=90
76720 On ch=1 n=c5 v=0
76800 On ch=1 n=f#3 v=0
76800 On ch=1 n=f#2 v=0
76800 On ch=1 n=a#4 v=0
76800 On ch=1 n=e4 v=0
76800 On ch=1 n=c4 v=0
76800 On ch=1 n=a#3 v=0
76800 On ch=1 n=c5 v=80
76880 On ch=1 n=c5 v=0
76960 On ch=1 n=c5 v=80
77040 On ch=1 n=c5 v=0
77120 On ch=1 n=c5 v=80
77200 On ch=1 n=c5 v=0
77280 On ch=1 n=c5 v=70
77360 On ch=1 n=c5 v=0
77440 On ch=1 n=c5 v=70
77520 On ch=1 n=c5 v=0
77600 On ch=1 n=c5 v=70
77680 On ch=1 n=c5 v=0
77760 On ch=1 n=c5 v=60
77840 On ch=1 n=c5 v=0
77920 On ch=1 n=c5 v=60
78000 On ch=1 n=c5 v=0
78080 On ch=1 n=c5 v=60
78160 On ch=1 n=c5 v=0
78240 On ch=1 n=c5 v=50
78320 On ch=1 n=c5 v=0
78400 On ch=1 n=c5 v=50
78480 On ch=1 n=c5 v=0
78560 On ch=1 n=c5 v=50
78640 On ch=1 n=c5 v=0
78720 On ch=1 n=c5 v=40
78800 On ch=1 n=c5 v=0
78880 On ch=1 n=c5 v=40
78960 On ch=1 n=c5 v=0
79040 On ch=1 n=c5 v=40
79120 On ch=1 n=c5 v=0
79200 On ch=1 n=c5 v=40
79280 On ch=1 n=c5 v=0
79360 On ch=1 n=c5 v=40
79440 On ch=1 n=c5 v=0
79520 On ch=1 n=c5 v=40
79600 On ch=1 n=c5 v=0
79680 On ch=1 n=c5 v=40
79760 On ch=1 n=c5 v=0
79840 On ch=1 n=c5 v=40
79920 On ch=1 n=c5 v=0
80000 On ch=1 n=c5 v=40
80080 On ch=1 n=c5 v=0
80160 On ch=1 n=c5 v=40
80240 On ch=1 n=c5 v=0
80320 On ch=1 n=c5 v=40
80400 On ch=1 n=c5 v=0
80480 On ch=1 n=c5 v=40
80560 On ch=1 n=c5 v=0
80640 On ch=1 n=c5 v=40
80720 On ch=1 n=c5 v=0
80800 On ch=1 n=c5 v=40
80880 On ch=1 n=c5 v=0
80960 On ch=1 n=c5 v=40
81040 On ch=1 n=c5 v=0
81120 On ch=1 n=c5 v=40
81200 On ch=1 n=c5 v=0
81280 On ch=1 n=c5 v=40
81360 On ch=1 n=c5 v=0
81440 On ch=1 n=c5 v=40
81520 On ch=1 n=c5 v=0
81600 On ch=1 n=c5 v=40
81680 On ch=1 n=c5 v=0
81760 On ch=1 n=c5 v=40
81840 On ch=1 n=c5 v=0
81920 On ch=1 n=c5 v=40
82000 On ch=1 n=c5 v=0
82080 On ch=1 n=c5 v=40
82160 On ch=1 n=c5 v=0
82240 On ch=1 n=c5 v=40
82320 On ch=1 n=c5 v=0
82400 On ch=1 n=c5 v=40
82480 On ch=1 n=c5 v=0
82560 On ch=1 n=c5 v=40
82640 On ch=1 n=c5 v=0
82720 On ch=1 n=c5 v=40
82800 On ch=1 n=c5 v=0
82880 On ch=1 n=c5 v=40
82960 On ch=1 n=c5 v=0
83040 On ch=1 n=c5 v=40
83120 On ch=1 n=c5 v=0
83200 On ch=1 n=c5 v=40
83280 On ch=1 n=c5 v=0
83360 On ch=1 n=c5 v=40
83440 On ch=1 n=c5 v=0
83520 On ch=1 n=c5 v=40
83600 On ch=1 n=c5 v=0
83680 On ch=1 n=c5 v=40
83760 On ch=1 n=c5 v=0
83840 On ch=1 n=c5 v=40
83920 On ch=1 n=c5 v=0
84000 On ch=1 n=c5 v=40
84080 On ch=1 n=c5 v=0
84160 On ch=1 n=c5 v=40
84240 On ch=1 n=c5 v=0
84320 On ch=1 n=c5 v=40
84400 On ch=1 n=c5 v=0
84480 On ch=1 n=c5 v=40
84560 On ch=1 n=c5 v=0
84640 On ch=1 n=c5 v=40
84720 On ch=1 n=c5 v=0
84800 On ch=1 n=c5 v=40
84880 On ch=1 n=c5 v=0
84960 On ch=1 n=c5 v=40
85040 On ch=1 n=c5 v=0
85120 On ch=1 n=c5 v=40
85200 On ch=1 n=c5 v=0
85280 On ch=1 n=c5 v=40
85360 On ch=1 n=c5 v=0
85440 On ch=1 n=c5 v=50
85520 On ch=1 n=c5 v=0
85600 On ch=1 n=c5 v=50
85680 On ch=1 n=c5 v=0
85760 On ch=1 n=c5 v=50
85840 On ch=1 n=c5 v=0
85920 On ch=1 n=c5 v=60
86000 On ch=1 n=c5 v=0
86080 On ch=1 n=c5 v=60
86160 On ch=1 n=c5 v=0
86240 On ch=1 n=c5 v=60
86320 On ch=1 n=c5 v=0
86400 On ch=1 n=c5 v=70
86480 On ch=1 n=c5 v=0
86560 On ch=1 n=c5 v=70
86640 On ch=1 n=c5 v=0
86720 On ch=1 n=c5 v=70
86800 On ch=1 n=c5 v=0
86880 On ch=1 n=c5 v=80
86960 On ch=1 n=c5 v=0
87040 On ch=1 n=c5 v=80
87120 On ch=1 n=c5 v=0
87200 On ch=1 n=c5 v=80
87280 On ch=1 n=c5 v=0
87360 On ch=1 n=c5 v=90
87420 On ch=1 n=c5 v=0
87480 On ch=1 n=c5 v=90
87540 On ch=1 n=c5 v=0
87600 On ch=1 n=c#5 v=90
87660 On ch=1 n=c#5 v=0
87720 On ch=1 n=c#5 v=90
87780 On ch=1 n=c#5 v=0
87840 On ch=1 n=d5 v=100
87900 On ch=1 n=d5 v=0
87960 On ch=1 n=d5 v=100
88020 On ch=1 n=d5 v=0
88080 On ch=1 n=d#5 v=100
88140 On ch=1 n=d#5 v=0
88200 On ch=1 n=d#5 v=100
88260 On ch=1 n=d#5 v=0
88320 On ch=1 n=e5 v=60
88400 On ch=1 n=e5 v=0
88480 On ch=1 n=e5 v=60
88560 On ch=1 n=e5 v=0
88640 On ch=1 n=e5 v=60
88720 On ch=1 n=e5 v=0
88800 On ch=1 n=e5 v=60
88880 On ch=1 n=e5 v=0
88960 On ch=1 n=e5 v=60
89040 On ch=1 n=e5 v=0
89120 On ch=1 n=e5 v=60
89200 On ch=1 n=e5 v=0
89280 On ch=1 n=e5 v=60
89360 On ch=1 n=e5 v=0
89440 On ch=1 n=e5 v=60
89520 On ch=1 n=e5 v=0
89600 On ch=1 n=e5 v=60
89680 On ch=1 n=e5 v=0
89760 On ch=1 n=e5 v=60
89840 On ch=1 n=e5 v=0
89920 On ch=1 n=e5 v=60
90000 On ch=1 n=e5 v=0
90080 On ch=1 n=e5 v=60
90160 On ch=1 n=e5 v=0
90240 On ch=1 n=e5 v=60
90320 On ch=1 n=e5 v=0
90400 On ch=1 n=e5 v=60
90480 On ch=1 n=e5 v=0
90560 On ch=1 n=e5 v=60
90640 On ch=1 n=e5 v=0
90720 On ch=1 n=e5 v=60
90800 On ch=1 n=e5 v=0
90880 On ch=1 n=e5 v=60
90960 On ch=1 n=e5 v=0
91040 On ch=1 n=e5 v=60
91120 On ch=1 n=e5 v=0
91200 On ch=1 n=e5 v=60
91280 On ch=1 n=e5 v=0
91360 On ch=1 n=e5 v=60
91440 On ch=1 n=e5 v=0
91520 On ch=1 n=e5 v=60
91600 On ch=1 n=e5 v=0
91680 On ch=1 n=e5 v=60
91760 On ch=1 n=e5 v=0
91840 On ch=1 n=e5 v=60
91920 On ch=1 n=e5 v=0
92000 On ch=1 n=e5 v=60
92080 On ch=1 n=e5 v=0
96000 On ch=1 n=d#5 v=120
96000 On ch=1 n=c#5 v=120
96000 On ch=1 n=d#4 v=120
96000 On ch=1 n=c#4 v=120
96480 On ch=1 n=b1 v=120
96480 On ch=1 n=b2 v=120
96960 On ch=1 n=c#4 v=0
96960 On ch=1 n=d#4 v=0
96960 On ch=1 n=c#5 v=0
96960 On ch=1 n=d#5 v=0
96960 On ch=1 n=g3 v=120
96960 On ch=1 n=a3 v=120
96960 On ch=1 n=a4 v=120
96960 On ch=1 n=g4 v=120
98400 On ch=1 n=g4 v=0
98400 On ch=1 n=a4 v=0
98400 On ch=1 n=a3 v=0
98400 On ch=1 n=g3 v=0
98400 On ch=1 n=g5 v=120
98400 On ch=1 n=f5 v=120
98400 On ch=1 n=g4 v=120
98400 On ch=1 n=f4 v=120
98880 On ch=1 n=f4 v=0
98880 On ch=1 n=g4 v=0
98880 On ch=1 n=f5 v=0
98880 On ch=1 n=g5 v=0
98880 On ch=1 n=c#5 v=120
98880 On ch=1 n=d#5 v=120
98880 On ch=1 n=d#4 v=120
98880 On ch=1 n=c#4 v=120
99360 On ch=1 n=b2 v=0
99360 On ch=1 n=b1 v=0
99360 On ch=1 n=b1 v=120
99360 On ch=1 n=b2 v=120
99840 On ch=1 n=c#4 v=0
99840 On ch=1 n=d#4 v=0
99840 On ch=1 n=d#5 v=0
99840 On ch=1 n=c#5 v=0
99840 On ch=1 n=a3 v=120
99840 On ch=1 n=g3 v=120
99840 On ch=1 n=a4 v=120
99840 On ch=1 n=g4 v=120
101280 On ch=1 n=g4 v=0
101280 On ch=1 n=a4 v=0
101280 On ch=1 n=g3 v=0
101280 On ch=1 n=a3 v=0
101280 On ch=1 n=g5 v=120
101280 On ch=1 n=f5 v=120
101280 On ch=1 n=g4 v=120
101280 On ch=1 n=f4 v=120
101760 On ch=1 n=f4 v=0
101760 On ch=1 n=g4 v=0
101760 On ch=1 n=f5 v=0
101760 On ch=1 n=g5 v=0
101760 On ch=1 n=d#5 v=120
101760 On ch=1 n=c#5 v=120
101760 On ch=1 n=d#4 v=120
101760 On ch=1 n=c#4 v=120
102240 On ch=1 n=b2 v=0
102240 On ch=1 n=b1 v=0
102240 On ch=1 n=b1 v=120
102240 On ch=1 n=b2 v=120
102720 On ch=1 n=c#4 v=0
102720 On ch=1 n=d#4 v=0
102720 On ch=1 n=c#5 v=0
102720 On ch=1 n=d#5 v=0
102720 On ch=1 n=a3 v=120
102720 On ch=1 n=g3 v=120
102720 On ch=1 n=a4 v=120
102720 On ch=1 n=g4 v=120
103680 On ch=1 n=g4 v=0
103680 On ch=1 n=a4 v=0
103680 On ch=1 n=g3 v=0
103680 On ch=1 n=a3 v=0
103680 On ch=1 n=g5 v=120
103680 On ch=1 n=f5 v=120
103680 On ch=1 n=g4 v=120
103680 On ch=1 n=f4 v=120
104640 On ch=1 n=f4 v=0
104640 On ch=1 n=g4 v=0
104640 On ch=1 n=f5 v=0
104640 On ch=1 n=g5 v=0
104640 On ch=1 n=b2 v=0
104640 On ch=1 n=b1 v=0
104640 On ch=1 n=d#3 v=120
104640 On ch=1 n=f3 v=120
104640 On ch=1 n=d#4 v=120
104640 On ch=1 n=f4 v=120
104800 On ch=1 n=g#3 v=60
104880 On ch=1 n=g#3 v=0
104880 On ch=1 n=d#4 v=60
104880 On ch=1 n=b3 v=60
104880 On ch=1 n=f4 v=60
104960 On ch=1 n=b3 v=0
104960 On ch=1 n=f4 v=0
104960 On ch=1 n=d#4 v=0
104960 On ch=1 n=a#3 v=60
105040 On ch=1 n=a#3 v=0
105040 On ch=1 n=b3 v=60
105040 On ch=1 n=d#4 v=60
105040 On ch=1 n=f#4 v=60
105120 On ch=1 n=f#4 v=0
105120 On ch=1 n=b3 v=0
105120 On ch=1 n=d#4 v=0
105120 On ch=1 n=g#3 v=60
105200 On ch=1 n=g#3 v=0
105200 On ch=1 n=f4 v=60
105200 On ch=1 n=d#4 v=60
105200 On ch=1 n=b3 v=60
105280 On ch=1 n=b3 v=0
105280 On ch=1 n=d#4 v=0
105280 On ch=1 n=f4 v=0
105280 On ch=1 n=a#3 v=60
105360 On ch=1 n=a#3 v=0
105360 On ch=1 n=b3 v=60
105360 On ch=1 n=f#4 v=60
105360 On ch=1 n=d#4 v=60
105440 On ch=1 n=f#4 v=0
105440 On ch=1 n=b3 v=0
105440 On ch=1 n=d#4 v=0
105440 On ch=1 n=g#3 v=60
105520 On ch=1 n=g#3 v=0
105520 On ch=1 n=b3 v=60
105520 On ch=1 n=f4 v=60
105520 On ch=1 n=d#4 v=60
105600 On ch=1 n=b3 v=0
105600 On ch=1 n=d#4 v=0
105600 On ch=1 n=f4 v=0
105600 On ch=1 n=a#3 v=60
105680 On ch=1 n=a#3 v=0
105680 On ch=1 n=b3 v=60
105680 On ch=1 n=f#4 v=60
105680 On ch=1 n=d#4 v=60
105760 On ch=1 n=f#4 v=0
105760 On ch=1 n=b3 v=0
105760 On ch=1 n=d#4 v=0
105760 On ch=1 n=g#3 v=60
105840 On ch=1 n=g#3 v=0
105840 On ch=1 n=d#4 v=60
105840 On ch=1 n=b3 v=60
105840 On ch=1 n=f4 v=60
105920 On ch=1 n=b3 v=0
105920 On ch=1 n=d#4 v=0
105920 On ch=1 n=f4 v=0
105920 On ch=1 n=a#3 v=60
106000 On ch=1 n=a#3 v=0
106000 On ch=1 n=b3 v=60
106000 On ch=1 n=d#4 v=60
106000 On ch=1 n=f#4 v=60
106080 On ch=1 n=f#4 v=0
106080 On ch=1 n=b3 v=0
106080 On ch=1 n=d#4 v=0
106080 On ch=1 n=g#3 v=60
106160 On ch=1 n=g#3 v=0
106160 On ch=1 n=f4 v=60
106160 On ch=1 n=d#4 v=60
106160 On ch=1 n=b3 v=60
106240 On ch=1 n=b3 v=0
106240 On ch=1 n=d#4 v=0
106240 On ch=1 n=f4 v=0
106240 On ch=1 n=a#3 v=60
106320 On ch=1 n=a#3 v=0
106320 On ch=1 n=b3 v=60
106320 On ch=1 n=f#4 v=60
106320 On ch=1 n=d#4 v=60
106400 On ch=1 n=f#4 v=0
106400 On ch=1 n=b3 v=0
106400 On ch=1 n=d#4 v=0
106400 On ch=1 n=g#3 v=60
106480 On ch=1 n=g#3 v=0
106480 On ch=1 n=b3 v=60
106480 On ch=1 n=f4 v=60
106480 On ch=1 n=d#4 v=60
106560 On ch=1 n=b3 v=0
106560 On ch=1 n=d#4 v=0
106560 On ch=1 n=f4 v=0
106560 On ch=1 n=c#4 v=60
106640 On ch=1 n=c#4 v=0
106640 On ch=1 n=a#4 v=60
106640 On ch=1 n=f#4 v=60
106640 On ch=1 n=d#4 v=60
106720 On ch=1 n=f#4 v=0
106720 On ch=1 n=a#4 v=0
106720 On ch=1 n=d#4 v=0
106720 On ch=1 n=b3 v=60
106800 On ch=1 n=b3 v=0
106800 On ch=1 n=d#4 v=60
106800 On ch=1 n=f#4 v=60
106800 On ch=1 n=g#4 v=60
106880 On ch=1 n=g#4 v=0
106880 On ch=1 n=f#4 v=0
106880 On ch=1 n=d#4 v=0
106880 On ch=1 n=a#3 v=60
106960 On ch=1 n=a#3 v=0
106960 On ch=1 n=b3 v=60
106960 On ch=1 n=d#4 v=60
106960 On ch=1 n=f#4 v=60
107040 On ch=1 n=f#4 v=0
107040 On ch=1 n=b3 v=0
107040 On ch=1 n=d#4 v=0
107040 On ch=1 n=g#3 v=60
107120 On ch=1 n=g#3 v=0
107120 On ch=1 n=f4 v=60
107120 On ch=1 n=d#4 v=60
107120 On ch=1 n=b3 v=60
107200 On ch=1 n=b3 v=0
107200 On ch=1 n=d#4 v=0
107200 On ch=1 n=f4 v=0
107200 On ch=1 n=c#4 v=60
107280 On ch=1 n=c#4 v=0
107280 On ch=1 n=a#4 v=60
107280 On ch=1 n=f#4 v=60
107280 On ch=1 n=d#4 v=60
107360 On ch=1 n=f#4 v=0
107360 On ch=1 n=a#4 v=0
107360 On ch=1 n=d#4 v=0
107360 On ch=1 n=b3 v=60
107440 On ch=1 n=b3 v=0
107440 On ch=1 n=g#4 v=60
107440 On ch=1 n=f4 v=60
107440 On ch=1 n=d#4 v=60
107520 On ch=1 n=d#4 v=0
107520 On ch=1 n=f4 v=0
107520 On ch=1 n=g#4 v=0
107520 On ch=1 n=d#4 v=0
107520 On ch=1 n=f4 v=0
107520 On ch=1 n=f3 v=0
107520 On ch=1 n=d#3 v=0
107520 On ch=1 n=d#5 v=120
107520 On ch=1 n=c#5 v=120
107520 On ch=1 n=d#4 v=120
107520 On ch=1 n=c#4 v=120
108000 On ch=1 n=b1 v=120
108000 On ch=1 n=b2 v=120
108480 On ch=1 n=c#4 v=0
108480 On ch=1 n=d#4 v=0
108480 On ch=1 n=c#5 v=0
108480 On ch=1 n=d#5 v=0
108480 On ch=1 n=g3 v=120
108480 On ch=1 n=a3 v=120
108480 On ch=1 n=a4 v=120
108480 On ch=1 n=g4 v=120
109920 On ch=1 n=g4 v=0
109920 On ch=1 n=a4 v=0
109920 On ch=1 n=a3 v=0
109920 On ch=1 n=g3 v=0
109920 On ch=1 n=g5 v=120
109920 On ch=1 n=f5 v=120
109920 On ch=1 n=g4 v=120
109920 On ch=1 n=f4 v=120
110400 On ch=1 n=f4 v=0
110400 On ch=1 n=g4 v=0
110400 On ch=1 n=f5 v=0
110400 On ch=1 n=g5 v=0
110400 On ch=1 n=c#5 v=120
110400 On ch=1 n=d#5 v=120
110400 On ch=1 n=d#4 v=120
110400 On ch=1 n=c#4 v=120
110880 On ch=1 n=b2 v=0
110880 On ch=1 n=b1 v=0
110880 On ch=1 n=b1 v=120
110880 On ch=1 n=b2 v=120
111360 On ch=1 n=c#4 v=0
111360 On ch=1 n=d#4 v=0
111360 On ch=1 n=d#5 v=0
111360 On ch=1 n=c#5 v=0
111360 On ch=1 n=a3 v=120
111360 On ch=1 n=g3 v=120
111360 On ch=1 n=a4 v=120
111360 On ch=1 n=g4 v=120
112800 On ch=1 n=g4 v=0
112800 On ch=1 n=a4 v=0
112800 On ch=1 n=g3 v=0
112800 On ch=1 n=a3 v=0
112800 On ch=1 n=g5 v=120
112800 On ch=1 n=f5 v=120
112800 On ch=1 n=g4 v=120
112800 On ch=1 n=f4 v=120
113280 On ch=1 n=f4 v=0
113280 On ch=1 n=g4 v=0
113280 On ch=1 n=f5 v=0
113280 On ch=1 n=g5 v=0
113280 On ch=1 n=d#5 v=120
113280 On ch=1 n=c#5 v=120
113280 On ch=1 n=d#4 v=120
113280 On ch=1 n=c#4 v=120
113760 On ch=1 n=b2 v=0
113760 On ch=1 n=b1 v=0
114240 On ch=1 n=c#4 v=0
114240 On ch=1 n=d#4 v=0
114240 On ch=1 n=c#5 v=0
114240 On ch=1 n=d#5 v=0
114240 On ch=1 n=a3 v=120
114240 On ch=1 n=g3 v=120
114240 On ch=1 n=a4 v=120
114240 On ch=1 n=g4 v=120
115200 On ch=1 n=g4 v=0
115200 On ch=1 n=a4 v=0
115200 On ch=1 n=g3 v=0
115200 On ch=1 n=a3 v=0
115200 On ch=1 n=g5 v=120
115200 On ch=1 n=f5 v=120
115200 On ch=1 n=g4 v=120
115200 On ch=1 n=f4 v=120
116160 On ch=1 n=f4 v=0
116160 On ch=1 n=g4 v=0
116160 On ch=1 n=f5 v=0
116160 On ch=1 n=g5 v=0
116160 On ch=1 n=d#3 v=120
116160 On ch=1 n=f3 v=120
116160 On ch=1 n=d#4 v=120
116160 On ch=1 n=f4 v=120
116320 On ch=1 n=g#3 v=60
116400 On ch=1 n=g#3 v=0
116400 On ch=1 n=d#4 v=60
116400 On ch=1 n=b3 v=60
116400 On ch=1 n=f4 v=60
116480 On ch=1 n=b3 v=0
116480 On ch=1 n=f4 v=0
116480 On ch=1 n=d#4 v=0
116480 On ch=1 n=a#3 v=60
116560 On ch=1 n=a#3 v=0
116560 On ch=1 n=b3 v=60
116560 On ch=1 n=d#4 v=60
116560 On ch=1 n=f#4 v=60
116640 On ch=1 n=f#4 v=0
116640 On ch=1 n=b3 v=0
116640 On ch=1 n=d#4 v=0
116640 On ch=1 n=g#3 v=60
116720 On ch=1 n=g#3 v=0
116720 On ch=1 n=f4 v=60
116720 On ch=1 n=d#4 v=60
116720 On ch=1 n=b3 v=60
116800 On ch=1 n=b3 v=0
116800 On ch=1 n=d#4 v=0
116800 On ch=1 n=f4 v=0
116800 On ch=1 n=a#3 v=60
116880 On ch=1 n=a#3 v=0
116880 On ch=1 n=b3 v=60
116880 On ch=1 n=f#4 v=60
116880 On ch=1 n=d#4 v=60
116960 On ch=1 n=f#4 v=0
116960 On ch=1 n=b3 v=0
116960 On ch=1 n=d#4 v=0
116960 On ch=1 n=g#3 v=60
117040 On ch=1 n=g#3 v=0
117040 On ch=1 n=b3 v=60
117040 On ch=1 n=f4 v=60
117040 On ch=1 n=d#4 v=60
117120 On ch=1 n=b3 v=0
117120 On ch=1 n=d#4 v=0
117120 On ch=1 n=f4 v=0
117120 On ch=1 n=a#3 v=60
117200 On ch=1 n=a#3 v=0
117200 On ch=1 n=b3 v=60
117200 On ch=1 n=f#4 v=60
117200 On ch=1 n=d#4 v=60
117280 On ch=1 n=f#4 v=0
117280 On ch=1 n=b3 v=0
117280 On ch=1 n=d#4 v=0
117280 On ch=1 n=g#3 v=60
117360 On ch=1 n=g#3 v=0
117360 On ch=1 n=d#4 v=60
117360 On ch=1 n=b3 v=60
117360 On ch=1 n=f4 v=60
117440 On ch=1 n=b3 v=0
117440 On ch=1 n=d#4 v=0
117440 On ch=1 n=f4 v=0
117440 On ch=1 n=a#3 v=60
117520 On ch=1 n=a#3 v=0
117520 On ch=1 n=b3 v=60
117520 On ch=1 n=d#4 v=60
117520 On ch=1 n=f#4 v=60
117600 On ch=1 n=f#4 v=0
117600 On ch=1 n=b3 v=0
117600 On ch=1 n=d#4 v=0
117600 On ch=1 n=g#3 v=60
117680 On ch=1 n=g#3 v=0
117680 On ch=1 n=f4 v=60
117680 On ch=1 n=d#4 v=60
117680 On ch=1 n=b3 v=60
117760 On ch=1 n=b3 v=0
117760 On ch=1 n=d#4 v=0
117760 On ch=1 n=f4 v=0
117760 On ch=1 n=a#3 v=60
117840 On ch=1 n=a#3 v=0
117840 On ch=1 n=b3 v=60
117840 On ch=1 n=f#4 v=60
117840 On ch=1 n=d#4 v=60
117920 On ch=1 n=f#4 v=0
117920 On ch=1 n=b3 v=0
117920 On ch=1 n=d#4 v=0
117920 On ch=1 n=g#3 v=60
118000 On ch=1 n=g#3 v=0
118000 On ch=1 n=b3 v=60
118000 On ch=1 n=f4 v=60
118000 On ch=1 n=d#4 v=60
118080 On ch=1 n=b3 v=0
118080 On ch=1 n=d#4 v=0
118080 On ch=1 n=f4 v=0
118080 On ch=1 n=c#4 v=60
118160 On ch=1 n=c#4 v=0
118160 On ch=1 n=a#4 v=60
118160 On ch=1 n=f#4 v=60
118160 On ch=1 n=d#4 v=60
118240 On ch=1 n=f#4 v=0
118240 On ch=1 n=a#4 v=0
118240 On ch=1 n=d#4 v=0
118240 On ch=1 n=b3 v=60
118320 On ch=1 n=b3 v=0
118320 On ch=1 n=d#4 v=60
118320 On ch=1 n=f#4 v=60
118320 On ch=1 n=g#4 v=60
118400 On ch=1 n=g#4 v=0
118400 On ch=1 n=f#4 v=0
118400 On ch=1 n=d#4 v=0
118400 On ch=1 n=a#3 v=60
118480 On ch=1 n=a#3 v=0
118480 On ch=1 n=b3 v=60
118480 On ch=1 n=d#4 v=60
118480 On ch=1 n=f#4 v=60
118560 On ch=1 n=f#4 v=0
118560 On ch=1 n=b3 v=0
118560 On ch=1 n=d#4 v=0
118560 On ch=1 n=g#3 v=60
118640 On ch=1 n=g#3 v=0
118640 On ch=1 n=f4 v=60
118640 On ch=1 n=d#4 v=60
118640 On ch=1 n=b3 v=60
118720 On ch=1 n=b3 v=0
118720 On ch=1 n=d#4 v=0
118720 On ch=1 n=f4 v=0
118720 On ch=1 n=c#4 v=60
118800 On ch=1 n=c#4 v=0
118800 On ch=1 n=a#4 v=60
118800 On ch=1 n=f#4 v=60
118800 On ch=1 n=d#4 v=60
118880 On ch=1 n=f#4 v=0
118880 On ch=1 n=a#4 v=0
118880 On ch=1 n=d#4 v=0
118880 On ch=1 n=b3 v=60
118960 On ch=1 n=b3 v=0
118960 On ch=1 n=g#4 v=60
118960 On ch=1 n=f4 v=60
118960 On ch=1 n=d#4 v=60
119040 On ch=1 n=d#4 v=0
119040 On ch=1 n=f4 v=0
119040 On ch=1 n=g#4 v=0
119040 On ch=1 n=d#4 v=0
119040 On ch=1 n=f4 v=0
119040 On ch=1 n=f3 v=0
119040 On ch=1 n=d#3 v=0
119040 On ch=1 n=a#3 v=60
119040 On ch=1 n=d#3 v=60
119120 On ch=1 n=a#3 v=0
119200 On ch=1 n=g#3 v=60
119280 On ch=1 n=g#3 v=0
119360 On ch=1 n=f#3 v=60
119440 On ch=1 n=f#3 v=0
119520 On ch=1 n=f3 v=60
119600 On ch=1 n=f3 v=0
119680 On ch=1 n=a#3 v=60
119760 On ch=1 n=a#3 v=0
119840 On ch=1 n=g#3 v=60
119920 On ch=1 n=g#3 v=0
120000 On ch=1 n=c#4 v=60
120080 On ch=1 n=c#4 v=0
120160 On ch=1 n=b3 v=60
120240 On ch=1 n=b3 v=0
120320 On ch=1 n=a#3 v=60
120400 On ch=1 n=a#3 v=0
120480 On ch=1 n=g#3 v=60
120560 On ch=1 n=g#3 v=0
120640 On ch=1 n=c#4 v=60
120720 On ch=1 n=c#4 v=0
120800 On ch=1 n=b3 v=60
120880 On ch=1 n=b3 v=0
120960 On ch=1 n=d#3 v=0
120960 On ch=1 n=a#4 v=70
120960 On ch=1 n=d#4 v=60
121040 On ch=1 n=a#4 v=0
121120 On ch=1 n=g#4 v=70
121200 On ch=1 n=g#4 v=0
121280 On ch=1 n=f#4 v=70
121360 On ch=1 n=f#4 v=0
121440 On ch=1 n=f4 v=70
121520 On ch=1 n=f4 v=0
121600 On ch=1 n=a#4 v=70
121680 On ch=1 n=a#4 v=0
121760 On ch=1 n=g#4 v=70
121840 On ch=1 n=g#4 v=0
121920 On ch=1 n=c#5 v=70
122000 On ch=1 n=c#5 v=0
122080 On ch=1 n=b4 v=70
122160 On ch=1 n=b4 v=0
122240 On ch=1 n=a#4 v=70
122320 On ch=1 n=a#4 v=0
122400 On ch=1 n=g#4 v=80
122480 On ch=1 n=g#4 v=0
122560 On ch=1 n=c#5 v=80
122640 On ch=1 n=c#5 v=0
122720 On ch=1 n=b4 v=80
122800 On ch=1 n=b4 v=0
122880 On ch=1 n=d#4 v=0
130800 On ch=1 n=d#5 v=120
130800 On ch=1 n=c#5 v=120
130800 On ch=1 n=a#4 v=120
130800 On ch=1 n=g4 v=120
131040 On ch=1 n=d#2 v=120
131040 On ch=1 n=d#3 v=120
131280 On ch=1 n=g4 v=0
131280 On ch=1 n=a#4 v=0
131280 On ch=1 n=c#5 v=0
131280 On ch=1 n=d#5 v=0
131280 On ch=1 n=b4 v=120
131280 On ch=1 n=a4 v=120
131280 On ch=1 n=f#4 v=120
131280 On ch=1 n=d#4 v=120
131520 On ch=1 n=d#4 v=0
131520 On ch=1 n=f#4 v=0
131520 On ch=1 n=a4 v=0
131520 On ch=1 n=b4 v=0
131520 On ch=1 n=c#5 v=120
131520 On ch=1 n=b4 v=120
131520 On ch=1 n=g#4 v=120
131520 On ch=1 n=f4 v=120
131880 On ch=1 n=f4 v=0
131880 On ch=1 n=g#4 v=0
131880 On ch=1 n=b4 v=0
131880 On ch=1 n=c#5 v=0
131880 On ch=1 n=d#5 v=120
131880 On ch=1 n=b4 v=120
131880 On ch=1 n=a4 v=120
131880 On ch=1 n=f#4 v=120
132000 On ch=1 n=f#4 v=0
132000 On ch=1 n=a4 v=0
132000 On ch=1 n=b4 v=0
132000 On ch=1 n=d#5 v=0
132000 On ch=1 n=f5 v=120
132000 On ch=1 n=c#5 v=120
132000 On ch=1 n=b4 v=120
132000 On ch=1 n=g#4 v=120
132240 On ch=1 n=g#4 v=0
132240 On ch=1 n=b4 v=0
132240 On ch=1 n=c#5 v=0
132240 On ch=1 n=f5 v=0
132240 On ch=1 n=c#5 v=120
132240 On ch=1 n=b4 v=120
132240 On ch=1 n=g#4 v=120
132240 On ch=1 n=f4 v=120
132480 On ch=1 n=f4 v=0
132480 On ch=1 n=g#4 v=0
132480 On ch=1 n=b4 v=0
132480 On ch=1 n=c#5 v=0
132480 On ch=1 n=d#3 v=0
132480 On ch=1 n=d#2 v=0
132480 On ch=1 n=d#5 v=120
132480 On ch=1 n=b4 v=120
132480 On ch=1 n=a4 v=120
132480 On ch=1 n=f#4 v=120
132720 On ch=1 n=f#4 v=0
132720 On ch=1 n=a4 v=0
132720 On ch=1 n=b4 v=0
132720 On ch=1 n=d#5 v=0
132720 On ch=1 n=b4 v=120
132720 On ch=1 n=a4 v=120
132720 On ch=1 n=f#4 v=120
132720 On ch=1 n=d#4 v=120
132960 On ch=1 n=d#4 v=0
132960 On ch=1 n=f#4 v=0
132960 On ch=1 n=a4 v=0
132960 On ch=1 n=b4 v=0
132960 On ch=1 n=g4 v=120
132960 On ch=1 n=b3 v=120
132960 On ch=1 n=d4 v=120
132960 On ch=1 n=f4 v=120
133200 On ch=1 n=d#2 v=120
133200 On ch=1 n=d#3 v=120
133920 On ch=1 n=d#3 v=0
133920 On ch=1 n=d#2 v=0
133920 On ch=1 n=f4 v=0
133920 On ch=1 n=d4 v=0
133920 On ch=1 n=b3 v=0
133920 On ch=1 n=g4 v=0
133920 On ch=1 n=a#4 v=120
133920 On ch=1 n=g#4 v=120
133920 On ch=1 n=e4 v=120
133920 On ch=1 n=c#4 v=120
134400 On ch=1 n=c#4 v=0
134400 On ch=1 n=e4 v=0
134400 On ch=1 n=g#4 v=0
134400 On ch=1 n=a#4 v=0
134400 On ch=1 n=f4 v=120
134400 On ch=1 n=d#4 v=120
134400 On ch=1 n=b3 v=120
134400 On ch=1 n=a3 v=120
134960 On ch=1 n=d#5 v=90
135040 On ch=1 n=d#5 v=0
135040 On ch=1 n=d#4 v=90
135120 On ch=1 n=d#4 v=0
135120 On ch=1 n=d#4 v=90
135200 On ch=1 n=d#4 v=0
135200 On ch=1 n=d#3 v=90
135280 On ch=1 n=d#3 v=0
135280 On ch=1 n=d#3 v=90
135360 On ch=1 n=d#3 v=0
135360 On ch=1 n=d#2 v=90
135840 On ch=1 n=d#2 v=0
135840 On ch=1 n=d#4 v=0
135840 On ch=1 n=a3 v=0
135840 On ch=1 n=b3 v=0
135840 On ch=1 n=f4 v=0
135840 On ch=1 n=g#4 v=120
135840 On ch=1 n=f#4 v=120
135840 On ch=1 n=d4 v=120
135840 On ch=1 n=c4 v=120
136320 On ch=1 n=c4 v=0
136320 On ch=1 n=d4 v=0
136320 On ch=1 n=f#4 v=0
136320 On ch=1 n=g#4 v=0
136320 On ch=1 n=g3 v=120
136320 On ch=1 n=a3 v=120
136320 On ch=1 n=d#4 v=120
136320 On ch=1 n=c#4 v=120
136560 On ch=1 n=d#2 v=100
136620 On ch=1 n=d#2 v=0
136620 On ch=1 n=d#3 v=100
136680 On ch=1 n=d#3 v=0
136680 On ch=1 n=d#2 v=100
136740 On ch=1 n=d#2 v=0
136740 On ch=1 n=d#3 v=100
136800 On ch=1 n=d#3 v=0
136800 On ch=1 n=d#2 v=100
136860 On ch=1 n=d#2 v=0
136860 On ch=1 n=d#3 v=100
136920 On ch=1 n=d#3 v=0
136920 On ch=1 n=d#2 v=100
136980 On ch=1 n=d#2 v=0
136980 On ch=1 n=d#3 v=100
137040 On ch=1 n=d#3 v=0
137040 On ch=1 n=d#2 v=100
137100 On ch=1 n=d#2 v=0
137100 On ch=1 n=d#3 v=100
137160 On ch=1 n=d#3 v=0
137160 On ch=1 n=d#2 v=100
137220 On ch=1 n=d#2 v=0
137220 On ch=1 n=d#3 v=100
137280 On ch=1 n=d#3 v=0
137280 On ch=1 n=d#2 v=100
137340 On ch=1 n=d#2 v=0
137340 On ch=1 n=d#3 v=100
137400 On ch=1 n=d#3 v=0
137400 On ch=1 n=d#2 v=100
137460 On ch=1 n=d#2 v=0
137460 On ch=1 n=d#3 v=100
137520 On ch=1 n=d#3 v=0
137520 On ch=1 n=d#2 v=100
137580 On ch=1 n=d#2 v=0
137580 On ch=1 n=d#3 v=100
137640 On ch=1 n=d#3 v=0
137640 On ch=1 n=d#2 v=100
137700 On ch=1 n=d#2 v=0
137700 On ch=1 n=d#3 v=100
137760 On ch=1 n=d#3 v=0
137760 On ch=1 n=d#2 v=100
137820 On ch=1 n=d#2 v=0
137820 On ch=1 n=d#3 v=100
137880 On ch=1 n=d#3 v=0
137880 On ch=1 n=d#2 v=100
137940 On ch=1 n=d#2 v=0
137940 On ch=1 n=d#3 v=100
138000 On ch=1 n=d#3 v=0
138000 On ch=1 n=d#2 v=100
138060 On ch=1 n=d#2 v=0
138060 On ch=1 n=d#3 v=100
138120 On ch=1 n=d#3 v=0
138120 On ch=1 n=d#2 v=100
138180 On ch=1 n=d#2 v=0
138180 On ch=1 n=d#3 v=100
138240 On ch=1 n=d#3 v=0
138240 On ch=1 n=d#2 v=90
138300 On ch=1 n=d#2 v=0
138300 On ch=1 n=d#3 v=90
138360 On ch=1 n=d#3 v=0
138360 On ch=1 n=d#2 v=90
138420 On ch=1 n=d#2 v=0
138420 On ch=1 n=d#3 v=90
138480 On ch=1 n=d#3 v=0
138480 On ch=1 n=d#2 v=90
138540 On ch=1 n=d#2 v=0
138540 On ch=1 n=d#3 v=90
138600 On ch=1 n=d#3 v=0
138600 On ch=1 n=d#2 v=90
138660 On ch=1 n=d#2 v=0
138660 On ch=1 n=d#3 v=90
138720 On ch=1 n=d#3 v=0
138720 On ch=1 n=c#4 v=0
138720 On ch=1 n=d#4 v=0
138720 On ch=1 n=a3 v=0
138720 On ch=1 n=g3 v=0
138720 On ch=1 n=d#2 v=80
138780 On ch=1 n=d#2 v=0
138780 On ch=1 n=d#3 v=80
138840 On ch=1 n=d#3 v=0
138840 On ch=1 n=d#2 v=80
138900 On ch=1 n=d#2 v=0
138900 On ch=1 n=d#3 v=80
138960 On ch=1 n=d#3 v=0
138960 On ch=1 n=d#2 v=80
139020 On ch=1 n=d#2 v=0
139020 On ch=1 n=d#3 v=80
139080 On ch=1 n=d#3 v=0
139080 On ch=1 n=d#2 v=80
139140 On ch=1 n=d#2 v=0
139140 On ch=1 n=d#3 v=80
139200 On ch=1 n=d#3 v=0
139200 On ch=1 n=d#2 v=70
139260 On ch=1 n=d#2 v=0
139260 On ch=1 n=d#3 v=70
139320 On ch=1 n=d#3 v=0
139320 On ch=1 n=d#2 v=70
139380 On ch=1 n=d#2 v=0
139380 On ch=1 n=d#3 v=70
139440 On ch=1 n=d#3 v=0
139440 On ch=1 n=d#2 v=70
139500 On ch=1 n=d#2 v=0
139500 On ch=1 n=d#3 v=70
139560 On ch=1 n=d#3 v=0
139560 On ch=1 n=d#2 v=70
139620 On ch=1 n=d#2 v=0
139620 On ch=1 n=d#3 v=70
139680 On ch=1 n=d#3 v=0
139680 On ch=1 n=d#2 v=60
139740 On ch=1 n=d#2 v=0
139740 On ch=1 n=d#3 v=60
139800 On ch=1 n=d#3 v=0
139800 On ch=1 n=d#2 v=60
139860 On ch=1 n=d#2 v=0
139860 On ch=1 n=d#3 v=60
139920 On ch=1 n=d#3 v=0
139920 On ch=1 n=d#2 v=60
139980 On ch=1 n=d#2 v=0
139980 On ch=1 n=d#3 v=60
140040 On ch=1 n=d#3 v=0
140040 On ch=1 n=d#2 v=60
140100 On ch=1 n=d#2 v=0
140100 On ch=1 n=d#3 v=60
140160 On ch=1 n=d#3 v=0
140160 On ch=1 n=f#2 v=40
140280 On ch=1 n=f#2 v=0
140280 On ch=1 n=g2 v=40
140400 On ch=1 n=g2 v=0
140400 On ch=1 n=f#2 v=40
140520 On ch=1 n=f#2 v=0
140520 On ch=1 n=g2 v=40
140640 On ch=1 n=g2 v=0
140640 On ch=1 n=f#2 v=40
140760 On ch=1 n=f#2 v=0
140760 On ch=1 n=g2 v=40
140880 On ch=1 n=g2 v=0
140880 On ch=1 n=f#2 v=40
141000 On ch=1 n=f#2 v=0
141000 On ch=1 n=g2 v=40
141120 On ch=1 n=g2 v=0
141120 On ch=1 n=f#2 v=40
141240 On ch=1 n=f#2 v=0
141240 On ch=1 n=g#2 v=40
141360 On ch=1 n=g#2 v=0
141360 On ch=1 n=f#2 v=40
141480 On ch=1 n=f#2 v=0
141480 On ch=1 n=g#2 v=40
141600 On ch=1 n=g#2 v=0
141600 On ch=1 n=f#2 v=40
141720 On ch=1 n=f#2 v=0
141720 On ch=1 n=g#2 v=40
141840 On ch=1 n=g#2 v=0
141840 On ch=1 n=f#2 v=40
141960 On ch=1 n=f#2 v=0
141960 On ch=1 n=g#2 v=40
142080 On ch=1 n=g#2 v=0
142080 On ch=1 n=f#2 v=40
142200 On ch=1 n=f#2 v=0
142200 On ch=1 n=g2 v=40
142320 On ch=1 n=g2 v=0
142320 On ch=1 n=f#2 v=40
142440 On ch=1 n=f#2 v=0
142440 On ch=1 n=g2 v=40
142560 On ch=1 n=g2 v=0
142560 On ch=1 n=f#2 v=40
142680 On ch=1 n=f#2 v=0
142680 On ch=1 n=g2 v=40
142800 On ch=1 n=g2 v=0
142800 On ch=1 n=f#2 v=40
142920 On ch=1 n=f#2 v=0
142920 On ch=1 n=g2 v=40
143040 On ch=1 n=g2 v=0
143040 On ch=1 n=f#2 v=40
143160 On ch=1 n=f#2 v=0
143160 On ch=1 n=g#2 v=40
143280 On ch=1 n=g#2 v=0
143280 On ch=1 n=f#2 v=40
143400 On ch=1 n=f#2 v=0
143400 On ch=1 n=g#2 v=40
143520 On ch=1 n=g#2 v=0
143520 On ch=1 n=f#2 v=40
143640 On ch=1 n=f#2 v=0
143640 On ch=1 n=g#2 v=40
143760 On ch=1 n=g#2 v=0
143760 On ch=1 n=f#2 v=40
143880 On ch=1 n=f#2 v=0
143880 On ch=1 n=g#2 v=40
144000 On ch=1 n=g#2 v=0
144000 On ch=1 n=f#2 v=40
144120 On ch=1 n=f#2 v=0
144120 On ch=1 n=g2 v=40
144240 On ch=1 n=g2 v=0
144240 On ch=1 n=f#2 v=40
144360 On ch=1 n=f#2 v=0
144360 On ch=1 n=g2 v=40
144480 On ch=1 n=g2 v=0
144480 On ch=1 n=f#2 v=40
144600 On ch=1 n=f#2 v=0
144600 On ch=1 n=g2 v=40
144720 On ch=1 n=g2 v=0
144720 On ch=1 n=f#2 v=40
144840 On ch=1 n=f#2 v=0
144840 On ch=1 n=g2 v=40
144960 On ch=1 n=g2 v=0
144960 On ch=1 n=f#2 v=40
145080 On ch=1 n=f#2 v=0
145080 On ch=1 n=g#2 v=40
145200 On ch=1 n=g#2 v=0
145200 On ch=1 n=f#2 v=40
145320 On ch=1 n=f#2 v=0
145320 On ch=1 n=g#2 v=40
145440 On ch=1 n=g#2 v=0
145440 On ch=1 n=f#2 v=40
145560 On ch=1 n=f#2 v=0
145560 On ch=1 n=g#2 v=40
145680 On ch=1 n=g#2 v=0
145680 On ch=1 n=f#2 v=40
145800 On ch=1 n=f#2 v=0
145800 On ch=1 n=g#2 v=40
145920 On ch=1 n=g#2 v=0
145920 On ch=1 n=f#2 v=40
146040 On ch=1 n=f#2 v=0
146040 On ch=1 n=g2 v=40
146160 On ch=1 n=g2 v=0
146160 On ch=1 n=f#2 v=40
146280 On ch=1 n=f#2 v=0
146280 On ch=1 n=g2 v=40
146400 On ch=1 n=g2 v=0
146400 On ch=1 n=f#2 v=40
146520 On ch=1 n=f#2 v=0
146520 On ch=1 n=g2 v=40
146640 On ch=1 n=g2 v=0
146640 On ch=1 n=f#2 v=40
146760 On ch=1 n=f#2 v=0
146760 On ch=1 n=g2 v=40
146880 On ch=1 n=g2 v=0
146880 On ch=1 n=f#2 v=40
147000 On ch=1 n=f#2 v=0
147000 On ch=1 n=g#2 v=40
147120 On ch=1 n=g#2 v=0
147120 On ch=1 n=f#2 v=40
147240 On ch=1 n=f#2 v=0
147240 On ch=1 n=g#2 v=40
147360 On ch=1 n=g#2 v=0
147360 On ch=1 n=f#2 v=40
147480 On ch=1 n=f#2 v=0
147480 On ch=1 n=g#2 v=40
147600 On ch=1 n=g#2 v=0
147600 On ch=1 n=f#2 v=40
147720 On ch=1 n=f#2 v=0
147720 On ch=1 n=g#2 v=40
147840 On ch=1 n=g#2 v=0
147840 On ch=1 n=f#2 v=40
147960 On ch=1 n=f#2 v=0
147960 On ch=1 n=g2 v=40
148080 On ch=1 n=g2 v=0
148080 On ch=1 n=f#2 v=40
148200 On ch=1 n=f#2 v=0
148200 On ch=1 n=g2 v=40
148320 On ch=1 n=g2 v=0
148320 On ch=1 n=f#2 v=40
148440 On ch=1 n=f#2 v=0
148440 On ch=1 n=g2 v=40
148560 On ch=1 n=g2 v=0
148560 On ch=1 n=f#2 v=40
148680 On ch=1 n=f#2 v=0
148680 On ch=1 n=g2 v=40
148800 On ch=1 n=g2 v=0
148800 On ch=1 n=f#2 v=40
148920 On ch=1 n=f#2 v=0
148920 On ch=1 n=g#2 v=40
149040 On ch=1 n=g#2 v=0
149040 On ch=1 n=f#2 v=40
149160 On ch=1 n=f#2 v=0
149160 On ch=1 n=g#2 v=40
149280 On ch=1 n=g#2 v=0
149280 On ch=1 n=f#2 v=40
149400 On ch=1 n=f#2 v=0
149400 On ch=1 n=g#2 v=40
149520 On ch=1 n=g#2 v=0
149520 On ch=1 n=f#2 v=40
149640 On ch=1 n=f#2 v=0
149640 On ch=1 n=g#2 v=40
149760 On ch=1 n=g#2 v=0
149760 On ch=1 n=f#2 v=40
149880 On ch=1 n=f#2 v=0
149880 On ch=1 n=g2 v=40
150000 On ch=1 n=g2 v=0
150000 On ch=1 n=f#2 v=40
150120 On ch=1 n=f#2 v=0
150120 On ch=1 n=g2 v=40
150240 On ch=1 n=g2 v=0
150240 On ch=1 n=f#2 v=40
150360 On ch=1 n=f#2 v=0
150360 On ch=1 n=g2 v=40
150480 On ch=1 n=g2 v=0
150480 On ch=1 n=f#2 v=40
150600 On ch=1 n=f#2 v=0
150600 On ch=1 n=g2 v=40
150720 On ch=1 n=g2 v=0
150720 On ch=1 n=f#2 v=40
150840 On ch=1 n=f#2 v=0
150840 On ch=1 n=g#2 v=40
150960 On ch=1 n=g#2 v=0
150960 On ch=1 n=f#2 v=40
151080 On ch=1 n=f#2 v=0
151080 On ch=1 n=g#2 v=40
151200 On ch=1 n=g#2 v=0
151200 On ch=1 n=f#2 v=40
151320 On ch=1 n=f#2 v=0
151320 On ch=1 n=g#2 v=40
151440 On ch=1 n=g#2 v=0
151440 On ch=1 n=f#2 v=40
151560 On ch=1 n=f#2 v=0
151560 On ch=1 n=g#2 v=40
151680 On ch=1 n=g#2 v=0
151680 On ch=1 n=f#2 v=100
152040 On ch=1 n=d3 v=100
152160 On ch=1 n=d3 v=0
152160 On ch=1 n=a3 v=100
152240 On ch=1 n=a3 v=0
155520 On ch=1 n=f#2 v=0
157440 On ch=1 n=g#4 v=115
157560 On ch=1 n=g#4 v=0
157560 On ch=1 n=f#4 v=115
157680 On ch=1 n=f#4 v=0
157680 On ch=1 n=d#4 v=110
157800 On ch=1 n=d#4 v=0
158400 On ch=1 n=g#3 v=95
158520 On ch=1 n=g#3 v=0
158520 On ch=1 n=f#3 v=95
158640 On ch=1 n=f#3 v=0
158640 On ch=1 n=d#3 v=90
158760 On ch=1 n=d#3 v=0
159200 On ch=1 n=g#2 v=70
159280 On ch=1 n=g#2 v=0
159280 On ch=1 n=f#2 v=70
159360 On ch=1 n=f#2 v=0
159360 On ch=1 n=c2 v=40
159480 On ch=1 n=c2 v=0
159480 On ch=1 n=g2 v=40
159600 On ch=1 n=g2 v=0
159600 On ch=1 n=c2 v=40
159720 On ch=1 n=c2 v=0
159720 On ch=1 n=g2 v=40
159840 On ch=1 n=g2 v=0
159840 On ch=1 n=c2 v=40
159960 On ch=1 n=c2 v=0
159960 On ch=1 n=g2 v=40
160080 On ch=1 n=g2 v=0
160080 On ch=1 n=c2 v=40
160200 On ch=1 n=c2 v=0
160200 On ch=1 n=g2 v=40
160320 On ch=1 n=g2 v=0
160320 On ch=1 n=c2 v=40
160440 On ch=1 n=c2 v=0
160440 On ch=1 n=g2 v=40
160560 On ch=1 n=g2 v=0
160560 On ch=1 n=c2 v=40
160680 On ch=1 n=c2 v=0
160680 On ch=1 n=g2 v=40
160800 On ch=1 n=g2 v=0
160800 On ch=1 n=c2 v=40
160920 On ch=1 n=c2 v=0
160920 On ch=1 n=g2 v=40
161040 On ch=1 n=g2 v=0
161040 On ch=1 n=c2 v=40
161160 On ch=1 n=c2 v=0
161160 On ch=1 n=g2 v=40
161280 On ch=1 n=g2 v=0
161280 On ch=1 n=c2 v=40
161400 On ch=1 n=c2 v=0
161400 On ch=1 n=g2 v=40
161520 On ch=1 n=g2 v=0
161520 On ch=1 n=c2 v=40
161640 On ch=1 n=c2 v=0
161640 On ch=1 n=g2 v=40
161760 On ch=1 n=g2 v=0
161760 On ch=1 n=c2 v=40
161880 On ch=1 n=c2 v=0
161880 On ch=1 n=g2 v=40
162000 On ch=1 n=g2 v=0
162000 On ch=1 n=c2 v=40
162120 On ch=1 n=c2 v=0
162120 On ch=1 n=g2 v=40
162240 On ch=1 n=g2 v=0
162240 On ch=1 n=c2 v=40
162360 On ch=1 n=c2 v=0
162360 On ch=1 n=g2 v=40
162480 On ch=1 n=g2 v=0
162480 On ch=1 n=c2 v=40
162600 On ch=1 n=c2 v=0
162600 On ch=1 n=g2 v=40
162720 On ch=1 n=g2 v=0
162720 On ch=1 n=c2 v=40
162840 On ch=1 n=c2 v=0
162840 On ch=1 n=g2 v=40
162960 On ch=1 n=g2 v=0
162960 On ch=1 n=c2 v=40
163080 On ch=1 n=c2 v=0
163080 On ch=1 n=g2 v=40
163200 On ch=1 n=g2 v=0
163200 On ch=1 n=c2 v=40
163320 On ch=1 n=c2 v=0
163320 On ch=1 n=g2 v=40
163440 On ch=1 n=g2 v=0
163440 On ch=1 n=c2 v=40
163560 On ch=1 n=c2 v=0
163560 On ch=1 n=g2 v=40
163680 On ch=1 n=g2 v=0
163680 On ch=1 n=c2 v=40
163800 On ch=1 n=c2 v=0
163800 On ch=1 n=g2 v=40
163920 On ch=1 n=g2 v=0
163920 On ch=1 n=c2 v=40
164040 On ch=1 n=c2 v=0
164040 On ch=1 n=g2 v=40
164160 On ch=1 n=g2 v=0
164160 On ch=1 n=g#2 v=40
164280 On ch=1 n=g#2 v=0
164280 On ch=1 n=d#3 v=40
164400 On ch=1 n=d#3 v=0
164400 On ch=1 n=g#2 v=40
164520 On ch=1 n=g#2 v=0
164520 On ch=1 n=d#3 v=40
164640 On ch=1 n=d#3 v=0
164640 On ch=1 n=g#2 v=40
164760 On ch=1 n=g#2 v=0
164760 On ch=1 n=d#3 v=40
164880 On ch=1 n=d#3 v=0
164880 On ch=1 n=g#2 v=40
165000 On ch=1 n=g#2 v=0
165000 On ch=1 n=d#3 v=40
165120 On ch=1 n=d#3 v=0
165120 On ch=1 n=d3 v=40
165240 On ch=1 n=d3 v=0
165240 On ch=1 n=a3 v=40
165360 On ch=1 n=a3 v=0
165360 On ch=1 n=d3 v=40
165480 On ch=1 n=d3 v=0
165480 On ch=1 n=a3 v=40
165600 On ch=1 n=a3 v=0
165600 On ch=1 n=d3 v=40
165720 On ch=1 n=d3 v=0
165720 On ch=1 n=a3 v=40
165840 On ch=1 n=a3 v=0
165840 On ch=1 n=d3 v=40
165960 On ch=1 n=d3 v=0
165960 On ch=1 n=a3 v=40
166080 On ch=1 n=a3 v=0
166080 On ch=1 n=d#3 v=40
166200 On ch=1 n=d#3 v=0
166200 On ch=1 n=g#2 v=40
166320 On ch=1 n=g#2 v=0
166320 On ch=1 n=d#3 v=40
166440 On ch=1 n=d#3 v=0
166440 On ch=1 n=g#2 v=40
166560 On ch=1 n=g#2 v=0
166560 On ch=1 n=d#3 v=40
166680 On ch=1 n=d#3 v=0
166680 On ch=1 n=g#2 v=40
166800 On ch=1 n=g#2 v=0
166800 On ch=1 n=d#3 v=40
166920 On ch=1 n=d#3 v=0
166920 On ch=1 n=g#2 v=40
167040 On ch=1 n=g#2 v=0
167040 On ch=1 n=c2 v=40
167160 On ch=1 n=c2 v=0
167160 On ch=1 n=g2 v=40
167280 On ch=1 n=g2 v=0
167280 On ch=1 n=c2 v=40
167400 On ch=1 n=c2 v=0
167400 On ch=1 n=g2 v=40
167520 On ch=1 n=g2 v=0
167520 On ch=1 n=c2 v=40
167640 On ch=1 n=c2 v=0
167640 On ch=1 n=g2 v=40
167760 On ch=1 n=g2 v=0
167760 On ch=1 n=c2 v=40
167880 On ch=1 n=c2 v=0
167880 On ch=1 n=g2 v=40
168000 On ch=1 n=g2 v=0
168000 On ch=1 n=c2 v=40
168120 On ch=1 n=c2 v=0
168120 On ch=1 n=g2 v=40
168240 On ch=1 n=g2 v=0
168240 On ch=1 n=c2 v=40
168360 On ch=1 n=c2 v=0
168360 On ch=1 n=g2 v=40
168480 On ch=1 n=g2 v=0
168480 On ch=1 n=c2 v=40
168600 On ch=1 n=c2 v=0
168600 On ch=1 n=g2 v=40
168720 On ch=1 n=g2 v=0
168720 On ch=1 n=c2 v=40
168840 On ch=1 n=c2 v=0
168840 On ch=1 n=g2 v=40
168960 On ch=1 n=g2 v=0
168960 On ch=1 n=c2 v=40
169080 On ch=1 n=c2 v=0
169080 On ch=1 n=g2 v=40
169200 On ch=1 n=g2 v=0
169200 On ch=1 n=c2 v=40
169320 On ch=1 n=c2 v=0
169320 On ch=1 n=g2 v=40
169440 On ch=1 n=g2 v=0
169440 On ch=1 n=c2 v=40
169560 On ch=1 n=c2 v=0
169560 On ch=1 n=g2 v=40
169680 On ch=1 n=g2 v=0
169680 On ch=1 n=c2 v=40
169800 On ch=1 n=c2 v=0
169800 On ch=1 n=g2 v=40
169920 On ch=1 n=g2 v=0
169920 On ch=1 n=d2 v=40
170040 On ch=1 n=d2 v=0
170040 On ch=1 n=g2 v=40
170160 On ch=1 n=g2 v=0
170160 On ch=1 n=d2 v=40
170280 On ch=1 n=d2 v=0
170280 On ch=1 n=g2 v=40
170400 On ch=1 n=g2 v=0
170400 On ch=1 n=e2 v=40
170520 On ch=1 n=e2 v=0
170520 On ch=1 n=g2 v=40
170640 On ch=1 n=g2 v=0
170640 On ch=1 n=e2 v=40
170760 On ch=1 n=e2 v=0
170760 On ch=1 n=g2 v=40
170880 On ch=1 n=g2 v=0
170880 On ch=1 n=f#2 v=30
171000 On ch=1 n=f#2 v=0
171000 On ch=1 n=c#3 v=30
171120 On ch=1 n=c#3 v=0
171120 On ch=1 n=f#2 v=30
171240 On ch=1 n=f#2 v=0
171240 On ch=1 n=c#3 v=30
171360 On ch=1 n=c#3 v=0
171360 On ch=1 n=f#2 v=30
171480 On ch=1 n=f#2 v=0
171480 On ch=1 n=c#3 v=30
171600 On ch=1 n=c#3 v=0
171600 On ch=1 n=f#2 v=30
171720 On ch=1 n=f#2 v=0
171720 On ch=1 n=c#3 v=30
171840 On ch=1 n=c#3 v=0
171840 On ch=1 n=d#3 v=30
171960 On ch=1 n=d#3 v=0
171960 On ch=1 n=a#3 v=30
172080 On ch=1 n=a#3 v=0
172080 On ch=1 n=d#3 v=30
172200 On ch=1 n=d#3 v=0
172200 On ch=1 n=a#3 v=30
172320 On ch=1 n=a#3 v=0
172320 On ch=1 n=d#3 v=30
172440 On ch=1 n=d#3 v=0
172440 On ch=1 n=a#3 v=30
172560 On ch=1 n=a#3 v=0
172560 On ch=1 n=d#3 v=30
172680 On ch=1 n=d#3 v=0
172680 On ch=1 n=a#3 v=30
172800 On ch=1 n=a#3 v=0
172800 On ch=1 n=a3 v=30
172920 On ch=1 n=a3 v=0
172920 On ch=1 n=e4 v=30
173040 On ch=1 n=e4 v=0
173040 On ch=1 n=a3 v=30
173160 On ch=1 n=a3 v=0
173160 On ch=1 n=e4 v=30
173280 On ch=1 n=e4 v=0
173280 On ch=1 n=a3 v=30
173400 On ch=1 n=a3 v=0
173400 On ch=1 n=e4 v=30
173520 On ch=1 n=e4 v=0
173520 On ch=1 n=a3 v=30
173640 On ch=1 n=a3 v=0
173640 On ch=1 n=e4 v=30
173760 On ch=1 n=e4 v=0
173760 On ch=1 n=a#3 v=30
173880 On ch=1 n=a#3 v=0
173880 On ch=1 n=d#3 v=30
174000 On ch=1 n=d#3 v=0
174000 On ch=1 n=a#3 v=30
174120 On ch=1 n=a#3 v=0
174120 On ch=1 n=d#3 v=30
174240 On ch=1 n=d#3 v=0
174240 On ch=1 n=a#3 v=30
174360 On ch=1 n=a#3 v=0
174360 On ch=1 n=d#3 v=30
174480 On ch=1 n=d#3 v=0
174480 On ch=1 n=a#3 v=30
174600 On ch=1 n=a#3 v=0
174600 On ch=1 n=d#3 v=30
174720 On ch=1 n=d#3 v=0
174720 On ch=1 n=f#3 v=60
174720 On ch=1 n=f#2 v=60
174880 On ch=1 n=f#3 v=0
174880 On ch=1 n=d3 v=60
175160 On ch=1 n=d3 v=0
175160 On ch=1 n=e3 v=60
175200 On ch=1 n=e3 v=0
175200 On ch=1 n=c3 v=60
175280 On ch=1 n=c3 v=0
175360 On ch=1 n=d3 v=60
175440 On ch=1 n=d3 v=0
175520 On ch=1 n=e3 v=60
175600 On ch=1 n=e3 v=0
176000 On ch=1 n=e3 v=60
176080 On ch=1 n=e3 v=0
176160 On ch=1 n=f#3 v=60
176240 On ch=1 n=f#3 v=0
176320 On ch=1 n=d3 v=60
176400 On ch=1 n=d3 v=0
176480 On ch=1 n=e3 v=60
176560 On ch=1 n=e3 v=0
176640 On ch=1 n=f#2 v=0
176640 On ch=1 n=f#3 v=60
176640 On ch=1 n=f#2 v=60
176800 On ch=1 n=f#3 v=0
176800 On ch=1 n=d3 v=60
177080 On ch=1 n=d3 v=0
177080 On ch=1 n=e3 v=60
177120 On ch=1 n=e3 v=0
177120 On ch=1 n=c3 v=60
177200 On ch=1 n=c3 v=0
177280 On ch=1 n=d3 v=60
177360 On ch=1 n=d3 v=0
177440 On ch=1 n=e3 v=60
177520 On ch=1 n=e3 v=0
177920 On ch=1 n=e3 v=60
178000 On ch=1 n=e3 v=0
178080 On ch=1 n=f#3 v=60
178160 On ch=1 n=f#3 v=0
178240 On ch=1 n=d3 v=60
178320 On ch=1 n=d3 v=0
178400 On ch=1 n=e3 v=60
178480 On ch=1 n=e3 v=0
178560 On ch=1 n=f#2 v=0
178560 On ch=1 n=f#3 v=60
178560 On ch=1 n=f#2 v=40
178720 On ch=1 n=f#3 v=0
178720 On ch=1 n=d3 v=60
179000 On ch=1 n=d3 v=0
179000 On ch=1 n=e3 v=60
179040 On ch=1 n=e3 v=0
179040 On ch=1 n=c3 v=60
179120 On ch=1 n=c3 v=0
179200 On ch=1 n=d3 v=60
179280 On ch=1 n=d3 v=0
179360 On ch=1 n=e3 v=60
179440 On ch=1 n=e3 v=0
179840 On ch=1 n=e3 v=60
179920 On ch=1 n=e3 v=0
180000 On ch=1 n=f#3 v=60
180080 On ch=1 n=f#3 v=0
180160 On ch=1 n=d3 v=60
180240 On ch=1 n=d3 v=0
180320 On ch=1 n=e3 v=60
180400 On ch=1 n=e3 v=0
180480 On ch=1 n=f#2 v=0
180480 On ch=1 n=f#3 v=60
180480 On ch=1 n=f#2 v=60
180640 On ch=1 n=f#3 v=0
180640 On ch=1 n=d3 v=60
180920 On ch=1 n=d3 v=0
180920 On ch=1 n=e3 v=60
180960 On ch=1 n=e3 v=0
180960 On ch=1 n=c3 v=60
181040 On ch=1 n=c3 v=0
181120 On ch=1 n=d3 v=60
181200 On ch=1 n=d3 v=0
181280 On ch=1 n=e3 v=60
181360 On ch=1 n=e3 v=0
181760 On ch=1 n=e3 v=60
181840 On ch=1 n=e3 v=0
181920 On ch=1 n=f#3 v=60
182000 On ch=1 n=f#3 v=0
182080 On ch=1 n=d3 v=60
182160 On ch=1 n=d3 v=0
182240 On ch=1 n=e3 v=60
182320 On ch=1 n=e3 v=0
182400 On ch=1 n=f#2 v=0
182400 On ch=1 n=f#3 v=60
182400 On ch=1 n=f#2 v=60
182460 On ch=1 n=f#3 v=0
182460 On ch=1 n=g#3 v=60
182520 On ch=1 n=g#3 v=0
182520 On ch=1 n=f#3 v=60
182580 On ch=1 n=f#3 v=0
182580 On ch=1 n=g#3 v=60
182640 On ch=1 n=g#3 v=0
182640 On ch=1 n=f#3 v=60
182760 On ch=1 n=f#3 v=0
182880 On ch=1 n=f#4 v=70
182940 On ch=1 n=f#4 v=0
182940 On ch=1 n=g#4 v=70
183000 On ch=1 n=g#4 v=0
183000 On ch=1 n=f#4 v=70
183060 On ch=1 n=f#4 v=0
183060 On ch=1 n=g#4 v=70
183120 On ch=1 n=g#4 v=0
183120 On ch=1 n=f#4 v=70
183240 On ch=1 n=f#4 v=0
183360 On ch=1 n=f#4 v=80
183420 On ch=1 n=f#4 v=0
183420 On ch=1 n=g#4 v=80
183480 On ch=1 n=g#4 v=0
183480 On ch=1 n=f#4 v=80
183540 On ch=1 n=f#4 v=0
183540 On ch=1 n=g#4 v=80
183600 On ch=1 n=g#4 v=0
183600 On ch=1 n=f#4 v=80
183720 On ch=1 n=f#4 v=0
184320 On ch=1 n=f#2 v=0
186720 On ch=1 n=g2 v=120
186720 On ch=1 n=a2 v=120
186720 On ch=1 n=g3 v=120
187200 On ch=1 n=c#2 v=120
187440 On ch=1 n=g3 v=0
187440 On ch=1 n=a2 v=0
187440 On ch=1 n=g2 v=0
187440 On ch=1 n=f3 v=120
187440 On ch=1 n=g3 v=120
187440 On ch=1 n=f4 v=120
187680 On ch=1 n=f4 v=0
187680 On ch=1 n=g3 v=0
187680 On ch=1 n=f3 v=0
187680 On ch=1 n=c#2 v=0
187680 On ch=1 n=f#2 v=120
187680 On ch=1 n=c#3 v=120
187740 On ch=1 n=c#3 v=0
187740 On ch=1 n=f#2 v=0
187740 On ch=1 n=d#3 v=120
187800 On ch=1 n=d#3 v=0
187800 On ch=1 n=f#2 v=120
187800 On ch=1 n=c#3 v=120
187860 On ch=1 n=c#3 v=0
187860 On ch=1 n=f#2 v=0
187860 On ch=1 n=d#3 v=120
187920 On ch=1 n=d#3 v=0
187920 On ch=1 n=f#2 v=120
187920 On ch=1 n=c#3 v=120
187980 On ch=1 n=c#3 v=0
187980 On ch=1 n=f#2 v=0
187980 On ch=1 n=d#3 v=120
188040 On ch=1 n=d#3 v=0
188040 On ch=1 n=f#2 v=120
188040 On ch=1 n=c#3 v=120
188100 On ch=1 n=c#3 v=0
188100 On ch=1 n=f#2 v=0
188100 On ch=1 n=d#3 v=120
188160 On ch=1 n=d#3 v=0
188160 On ch=1 n=f#2 v=120
188160 On ch=1 n=c#3 v=120
188220 On ch=1 n=c#3 v=0
188220 On ch=1 n=f#2 v=0
188220 On ch=1 n=d#3 v=120
188280 On ch=1 n=d#3 v=0
188280 On ch=1 n=f#2 v=120
188280 On ch=1 n=c#3 v=120
188340 On ch=1 n=c#3 v=0
188340 On ch=1 n=f#2 v=0
188340 On ch=1 n=d#3 v=120
188400 On ch=1 n=d#3 v=0
188400 On ch=1 n=f#2 v=120
188400 On ch=1 n=c#3 v=120
188460 On ch=1 n=c#3 v=0
188460 On ch=1 n=f#2 v=0
188460 On ch=1 n=d#3 v=120
188520 On ch=1 n=d#3 v=0
188520 On ch=1 n=f#2 v=120
188520 On ch=1 n=c#3 v=120
188580 On ch=1 n=c#3 v=0
188580 On ch=1 n=f#2 v=0
188580 On ch=1 n=d#3 v=120
188640 On ch=1 n=d#3 v=0
188640 On ch=1 n=f#2 v=120
188640 On ch=1 n=c#3 v=120
188700 On ch=1 n=c#3 v=0
188700 On ch=1 n=f#2 v=0
188700 On ch=1 n=d#3 v=120
188760 On ch=1 n=d#3 v=0
188760 On ch=1 n=f#2 v=120
188760 On ch=1 n=c#3 v=120
188820 On ch=1 n=c#3 v=0
188820 On ch=1 n=f#2 v=0
188820 On ch=1 n=d#3 v=120
188880 On ch=1 n=d#3 v=0
188880 On ch=1 n=f#2 v=120
188880 On ch=1 n=c#3 v=120
188940 On ch=1 n=c#3 v=0
188940 On ch=1 n=f#2 v=0
188940 On ch=1 n=d#3 v=120
189000 On ch=1 n=d#3 v=0
189000 On ch=1 n=f#2 v=120
189000 On ch=1 n=c#3 v=120
189060 On ch=1 n=c#3 v=0
189060 On ch=1 n=f#2 v=0
189060 On ch=1 n=d#3 v=120
189120 On ch=1 n=d#3 v=0
189120 On ch=1 n=f#2 v=120
189120 On ch=1 n=c#3 v=120
189180 On ch=1 n=c#3 v=0
189180 On ch=1 n=f#2 v=0
189180 On ch=1 n=d#3 v=120
189240 On ch=1 n=d#3 v=0
189240 On ch=1 n=f#2 v=120
189240 On ch=1 n=c#3 v=120
189300 On ch=1 n=c#3 v=0
189300 On ch=1 n=f#2 v=0
189300 On ch=1 n=d#3 v=120
189360 On ch=1 n=d#3 v=0
189360 On ch=1 n=f#2 v=120
189360 On ch=1 n=c#3 v=120
189420 On ch=1 n=c#3 v=0
189420 On ch=1 n=f#2 v=0
189420 On ch=1 n=d#3 v=120
189480 On ch=1 n=d#3 v=0
189480 On ch=1 n=f#2 v=120
189480 On ch=1 n=c#3 v=120
189540 On ch=1 n=c#3 v=0
189540 On ch=1 n=f#2 v=0
189540 On ch=1 n=d#3 v=120
189600 On ch=1 n=d#3 v=0
189600 On ch=1 n=f#2 v=127
189600 On ch=1 n=c#3 v=127
189720 On ch=1 n=c#3 v=0
189720 On ch=1 n=f#2 v=0
189720 Meta TrkEnd
TrkEnd
MTrk
0 SeqSpec 43 00 01 00
0 Meta TrkName "Pedal"
0 Meta 0x21 00
0 Par ch=1 c=64 v=127
1860 Par ch=1 c=64 v=0
1920 Par ch=1 c=64 v=127
3780 Par ch=1 c=64 v=0
3840 Par ch=1 c=64 v=127
5700 Par ch=1 c=64 v=0
5760 Par ch=1 c=64 v=127
7620 Par ch=1 c=64 v=0
7680 Par ch=1 c=64 v=127
9540 Par ch=1 c=64 v=0
9600 Par ch=1 c=64 v=127
11460 Par ch=1 c=64 v=0
11520 Par ch=1 c=64 v=127
13380 Par ch=1 c=64 v=0
13440 Par ch=1 c=64 v=127
15300 Par ch=1 c=64 v=0
15360 Par ch=1 c=64 v=127
16260 Par ch=1 c=64 v=0
16320 Par ch=1 c=64 v=127
17220 Par ch=1 c=64 v=0
17280 Par ch=1 c=64 v=127
18180 Par ch=1 c=64 v=0
18240 Par ch=1 c=64 v=127
19140 Par ch=1 c=64 v=0
19200 Par ch=1 c=64 v=127
20100 Par ch=1 c=64 v=0
20160 Par ch=1 c=64 v=127
21060 Par ch=1 c=64 v=0
21120 Par ch=1 c=64 v=127
22020 Par ch=1 c=64 v=0
22080 Par ch=1 c=64 v=127
22980 Par ch=1 c=64 v=0
23040 Par ch=1 c=64 v=127
23940 Par ch=1 c=64 v=0
24000 Par ch=1 c=64 v=127
24900 Par ch=1 c=64 v=0
24960 Par ch=1 c=64 v=127
25860 Par ch=1 c=64 v=0
25920 Par ch=1 c=64 v=127
26820 Par ch=1 c=64 v=0
26880 Par ch=1 c=64 v=127
27780 Par ch=1 c=64 v=0
27840 Par ch=1 c=64 v=127
28740 Par ch=1 c=64 v=0
28800 Par ch=1 c=64 v=127
29700 Par ch=1 c=64 v=0
29760 Par ch=1 c=64 v=127
30660 Par ch=1 c=64 v=0
30720 Par ch=1 c=64 v=127
31620 Par ch=1 c=64 v=0
31680 Par ch=1 c=64 v=127
32580 Par ch=1 c=64 v=0
32640 Par ch=1 c=64 v=127
33540 Par ch=1 c=64 v=0
33600 Par ch=1 c=64 v=127
34500 Par ch=1 c=64 v=0
34560 Par ch=1 c=64 v=127
35460 Par ch=1 c=64 v=0
35520 Par ch=1 c=64 v=127
36420 Par ch=1 c=64 v=0
36480 Par ch=1 c=64 v=127
37380 Par ch=1 c=64 v=0
37440 Par ch=1 c=64 v=127
38340 Par ch=1 c=64 v=0
38400 Par ch=1 c=64 v=127
39300 Par ch=1 c=64 v=0
39360 Par ch=1 c=64 v=127
40260 Par ch=1 c=64 v=0
40320 Par ch=1 c=64 v=127
41220 Par ch=1 c=64 v=0
41280 Par ch=1 c=64 v=127
42180 Par ch=1 c=64 v=0
42240 Par ch=1 c=64 v=127
43140 Par ch=1 c=64 v=0
43200 Par ch=1 c=64 v=127
44100 Par ch=1 c=64 v=0
44160 Par ch=1 c=64 v=127
45060 Par ch=1 c=64 v=0
45120 Par ch=1 c=64 v=127
46020 Par ch=1 c=64 v=0
46080 Par ch=1 c=64 v=127
46980 Par ch=1 c=64 v=0
47040 Par ch=1 c=64 v=127
47940 Par ch=1 c=64 v=0
48000 Par ch=1 c=64 v=127
48900 Par ch=1 c=64 v=0
48960 Par ch=1 c=64 v=127
49860 Par ch=1 c=64 v=0
49920 Par ch=1 c=64 v=127
50820 Par ch=1 c=64 v=0
50880 Par ch=1 c=64 v=127
51780 Par ch=1 c=64 v=0
51840 Par ch=1 c=64 v=127
52740 Par ch=1 c=64 v=0
52800 Par ch=1 c=64 v=127
53700 Par ch=1 c=64 v=0
53760 Par ch=1 c=64 v=127
53940 Par ch=1 c=64 v=0
54000 Par ch=1 c=64 v=127
54180 Par ch=1 c=64 v=0
54240 Par ch=1 c=64 v=127
54420 Par ch=1 c=64 v=0
54480 Par ch=1 c=64 v=127
54660 Par ch=1 c=64 v=0
54720 Par ch=1 c=64 v=127
54900 Par ch=1 c=64 v=0
54960 Par ch=1 c=64 v=127
55140 Par ch=1 c=64 v=0
55200 Par ch=1 c=64 v=127
55380 Par ch=1 c=64 v=0
55440 Par ch=1 c=64 v=127
55620 Par ch=1 c=64 v=0
55680 Par ch=1 c=64 v=127
55860 Par ch=1 c=64 v=0
55920 Par ch=1 c=64 v=127
56100 Par ch=1 c=64 v=0
56160 Par ch=1 c=64 v=127
56340 Par ch=1 c=64 v=0
56400 Par ch=1 c=64 v=127
56580 Par ch=1 c=64 v=0
56640 Par ch=1 c=64 v=127
56820 Par ch=1 c=64 v=0
56880 Par ch=1 c=64 v=127
57060 Par ch=1 c=64 v=0
57120 Par ch=1 c=64 v=127
57300 Par ch=1 c=64 v=0
57360 Par ch=1 c=64 v=127
57540 Par ch=1 c=64 v=0
57600 Par ch=1 c=64 v=127
57780 Par ch=1 c=64 v=0
57840 Par ch=1 c=64 v=127
58020 Par ch=1 c=64 v=0
58080 Par ch=1 c=64 v=127
58260 Par ch=1 c=64 v=0
58320 Par ch=1 c=64 v=127
58500 Par ch=1 c=64 v=0
58560 Par ch=1 c=64 v=127
58740 Par ch=1 c=64 v=0
58800 Par ch=1 c=64 v=127
58980 Par ch=1 c=64 v=0
59040 Par ch=1 c=64 v=127
59220 Par ch=1 c=64 v=0
59280 Par ch=1 c=64 v=127
59460 Par ch=1 c=64 v=0
59520 Par ch=1 c=64 v=127
59700 Par ch=1 c=64 v=0
59760 Par ch=1 c=64 v=127
59940 Par ch=1 c=64 v=0
60000 Par ch=1 c=64 v=127
60180 Par ch=1 c=64 v=0
60240 Par ch=1 c=64 v=127
60420 Par ch=1 c=64 v=0
60480 Par ch=1 c=64 v=127
60660 Par ch=1 c=64 v=0
60720 Par ch=1 c=64 v=127
60900 Par ch=1 c=64 v=0
60960 Par ch=1 c=64 v=127
61140 Par ch=1 c=64 v=0
61200 Par ch=1 c=64 v=127
61380 Par ch=1 c=64 v=0
61440 Par ch=1 c=64 v=127
61620 Par ch=1 c=64 v=0
61680 Par ch=1 c=64 v=127
61860 Par ch=1 c=64 v=0
61920 Par ch=1 c=64 v=127
62100 Par ch=1 c=64 v=0
62160 Par ch=1 c=64 v=127
62340 Par ch=1 c=64 v=0
62400 Par ch=1 c=64 v=127
62580 Par ch=1 c=64 v=0
62640 Par ch=1 c=64 v=127
62820 Par ch=1 c=64 v=0
62880 Par ch=1 c=64 v=127
63060 Par ch=1 c=64 v=0
63120 Par ch=1 c=64 v=127
63300 Par ch=1 c=64 v=0
63360 Par ch=1 c=64 v=127
63540 Par ch=1 c=64 v=0
63600 Par ch=1 c=64 v=127
63780 Par ch=1 c=64 v=0
63840 Par ch=1 c=64 v=127
64020 Par ch=1 c=64 v=0
64080 Par ch=1 c=64 v=127
64260 Par ch=1 c=64 v=0
64320 Par ch=1 c=64 v=127
64500 Par ch=1 c=64 v=0
64560 Par ch=1 c=64 v=127
64740 Par ch=1 c=64 v=0
64800 Par ch=1 c=64 v=127
64980 Par ch=1 c=64 v=0
65040 Par ch=1 c=64 v=127
65220 Par ch=1 c=64 v=0
65280 Par ch=1 c=64 v=127
66180 Par ch=1 c=64 v=0
66240 Par ch=1 c=64 v=127
67140 Par ch=1 c=64 v=0
67200 Par ch=1 c=64 v=127
68100 Par ch=1 c=64 v=0
68160 Par ch=1 c=64 v=127
69060 Par ch=1 c=64 v=0
72960 Par ch=1 c=64 v=127
73380 Par ch=1 c=64 v=0
73440 Par ch=1 c=64 v=127
73860 Par ch=1 c=64 v=0
73920 Par ch=1 c=64 v=127
74340 Par ch=1 c=64 v=0
74400 Par ch=1 c=64 v=127
74820 Par ch=1 c=64 v=0
74880 Par ch=1 c=64 v=127
75300 Par ch=1 c=64 v=0
75360 Par ch=1 c=64 v=127
75780 Par ch=1 c=64 v=0
75840 Par ch=1 c=64 v=127
76260 Par ch=1 c=64 v=0
76320 Par ch=1 c=64 v=127
76740 Par ch=1 c=64 v=0
76800 Par ch=1 c=64 v=127
77220 Par ch=1 c=64 v=0
77280 Par ch=1 c=64 v=127
77700 Par ch=1 c=64 v=0
77760 Par ch=1 c=64 v=127
78180 Par ch=1 c=64 v=0
78240 Par ch=1 c=64 v=127
78660 Par ch=1 c=64 v=0
78720 Par ch=1 c=64 v=127
79140 Par ch=1 c=64 v=0
79200 Par ch=1 c=64 v=127
79620 Par ch=1 c=64 v=0
79680 Par ch=1 c=64 v=127
80100 Par ch=1 c=64 v=0
80160 Par ch=1 c=64 v=127
80580 Par ch=1 c=64 v=0
80640 Par ch=1 c=64 v=127
81060 Par ch=1 c=64 v=0
81120 Par ch=1 c=64 v=127
81540 Par ch=1 c=64 v=0
81600 Par ch=1 c=64 v=127
82020 Par ch=1 c=64 v=0
82080 Par ch=1 c=64 v=127
82500 Par ch=1 c=64 v=0
82560 Par ch=1 c=64 v=127
82980 Par ch=1 c=64 v=0
83040 Par ch=1 c=64 v=127
83460 Par ch=1 c=64 v=0
83520 Par ch=1 c=64 v=127
83940 Par ch=1 c=64 v=0
84000 Par ch=1 c=64 v=127
84420 Par ch=1 c=64 v=0
84480 Par ch=1 c=64 v=127
84900 Par ch=1 c=64 v=0
84960 Par ch=1 c=64 v=127
85380 Par ch=1 c=64 v=0
85440 Par ch=1 c=64 v=127
85860 Par ch=1 c=64 v=0
85920 Par ch=1 c=64 v=127
86340 Par ch=1 c=64 v=0
86400 Par ch=1 c=64 v=127
86820 Par ch=1 c=64 v=0
86880 Par ch=1 c=64 v=127
87300 Par ch=1 c=64 v=0
87360 Par ch=1 c=64 v=127
87780 Par ch=1 c=64 v=0
87840 Par ch=1 c=64 v=127
88260 Par ch=1 c=64 v=0
88320 Par ch=1 c=64 v=127
88740 Par ch=1 c=64 v=0
88800 Par ch=1 c=64 v=127
89220 Par ch=1 c=64 v=0
89280 Par ch=1 c=64 v=127
89700 Par ch=1 c=64 v=0
89760 Par ch=1 c=64 v=127
90180 Par ch=1 c=64 v=0
90240 Par ch=1 c=64 v=127
90660 Par ch=1 c=64 v=0
90720 Par ch=1 c=64 v=127
91140 Par ch=1 c=64 v=0
91200 Par ch=1 c=64 v=127
91620 Par ch=1 c=64 v=0
91680 Par ch=1 c=64 v=127
92100 Par ch=1 c=64 v=0
92160 Par ch=1 c=64 v=127
92580 Par ch=1 c=64 v=0
92640 Par ch=1 c=64 v=127
93060 Par ch=1 c=64 v=0
93120 Par ch=1 c=64 v=127
93540 Par ch=1 c=64 v=0
93600 Par ch=1 c=64 v=127
94020 Par ch=1 c=64 v=0
94080 Par ch=1 c=64 v=127
94500 Par ch=1 c=64 v=0
94560 Par ch=1 c=64 v=127
94980 Par ch=1 c=64 v=0
95040 Par ch=1 c=64 v=127
95460 Par ch=1 c=64 v=0
95520 Par ch=1 c=64 v=127
95940 Par ch=1 c=64 v=0
96000 Par ch=1 c=64 v=127
96420 Par ch=1 c=64 v=0
96480 Par ch=1 c=64 v=127
96900 Par ch=1 c=64 v=0
96960 Par ch=1 c=64 v=127
97380 Par ch=1 c=64 v=0
97440 Par ch=1 c=64 v=127
97860 Par ch=1 c=64 v=0
97920 Par ch=1 c=64 v=127
98340 Par ch=1 c=64 v=0
98400 Par ch=1 c=64 v=127
98820 Par ch=1 c=64 v=0
98880 Par ch=1 c=64 v=127
99300 Par ch=1 c=64 v=0
99360 Par ch=1 c=64 v=127
99780 Par ch=1 c=64 v=0
99840 Par ch=1 c=64 v=127
100260 Par ch=1 c=64 v=0
100320 Par ch=1 c=64 v=127
100740 Par ch=1 c=64 v=0
100800 Par ch=1 c=64 v=127
101220 Par ch=1 c=64 v=0
101280 Par ch=1 c=64 v=127
101700 Par ch=1 c=64 v=0
101760 Par ch=1 c=64 v=127
102180 Par ch=1 c=64 v=0
102240 Par ch=1 c=64 v=127
102660 Par ch=1 c=64 v=0
102720 Par ch=1 c=64 v=127
103140 Par ch=1 c=64 v=0
103200 Par ch=1 c=64 v=127
103620 Par ch=1 c=64 v=0
103680 Par ch=1 c=64 v=127
104100 Par ch=1 c=64 v=0
104160 Par ch=1 c=64 v=127
104580 Par ch=1 c=64 v=0
104640 Par ch=1 c=64 v=127
105060 Par ch=1 c=64 v=0
105120 Par ch=1 c=64 v=127
105540 Par ch=1 c=64 v=0
105600 Par ch=1 c=64 v=127
106020 Par ch=1 c=64 v=0
106080 Par ch=1 c=64 v=127
106500 Par ch=1 c=64 v=0
106560 Par ch=1 c=64 v=127
106980 Par ch=1 c=64 v=0
107040 Par ch=1 c=64 v=127
107460 Par ch=1 c=64 v=0
107520 Par ch=1 c=64 v=127
107940 Par ch=1 c=64 v=0
108000 Par ch=1 c=64 v=127
108420 Par ch=1 c=64 v=0
108480 Par ch=1 c=64 v=127
108900 Par ch=1 c=64 v=0
108960 Par ch=1 c=64 v=127
109380 Par ch=1 c=64 v=0
109440 Par ch=1 c=64 v=127
109860 Par ch=1 c=64 v=0
109920 Par ch=1 c=64 v=127
110340 Par ch=1 c=64 v=0
110400 Par ch=1 c=64 v=127
110820 Par ch=1 c=64 v=0
110880 Par ch=1 c=64 v=127
111300 Par ch=1 c=64 v=0
111360 Par ch=1 c=64 v=127
111780 Par ch=1 c=64 v=0
111840 Par ch=1 c=64 v=127
112260 Par ch=1 c=64 v=0
112320 Par ch=1 c=64 v=127
112740 Par ch=1 c=64 v=0
112800 Par ch=1 c=64 v=127
113220 Par ch=1 c=64 v=0
113280 Par ch=1 c=64 v=127
113700 Par ch=1 c=64 v=0
113760 Par ch=1 c=64 v=127
114180 Par ch=1 c=64 v=0
114240 Par ch=1 c=64 v=127
114660 Par ch=1 c=64 v=0
114720 Par ch=1 c=64 v=127
115140 Par ch=1 c=64 v=0
115200 Par ch=1 c=64 v=127
115620 Par ch=1 c=64 v=0
115680 Par ch=1 c=64 v=127
116100 Par ch=1 c=64 v=0
116160 Par ch=1 c=64 v=127
116580 Par ch=1 c=64 v=0
116640 Par ch=1 c=64 v=127
117060 Par ch=1 c=64 v=0
117120 Par ch=1 c=64 v=127
117540 Par ch=1 c=64 v=0
117600 Par ch=1 c=64 v=127
118020 Par ch=1 c=64 v=0
118080 Par ch=1 c=64 v=127
118500 Par ch=1 c=64 v=0
118560 Par ch=1 c=64 v=127
118980 Par ch=1 c=64 v=0
126720 Par ch=1 c=64 v=127
127140 Par ch=1 c=64 v=0
127200 Par ch=1 c=64 v=127
127620 Par ch=1 c=64 v=0
127680 Par ch=1 c=64 v=127
128100 Par ch=1 c=64 v=0
128160 Par ch=1 c=64 v=127
128580 Par ch=1 c=64 v=0
128640 Par ch=1 c=64 v=127
129060 Par ch=1 c=64 v=0
129120 Par ch=1 c=64 v=127
129540 Par ch=1 c=64 v=0
129600 Par ch=1 c=64 v=127
130020 Par ch=1 c=64 v=0
130080 Par ch=1 c=64 v=127
130500 Par ch=1 c=64 v=0
130560 Par ch=1 c=64 v=127
130980 Par ch=1 c=64 v=0
131040 Par ch=1 c=64 v=127
131460 Par ch=1 c=64 v=0
131520 Par ch=1 c=64 v=127
131940 Par ch=1 c=64 v=0
132000 Par ch=1 c=64 v=127
132420 Par ch=1 c=64 v=0
132480 Par ch=1 c=64 v=127
132900 Par ch=1 c=64 v=0
132960 Par ch=1 c=64 v=127
133380 Par ch=1 c=64 v=0
133440 Par ch=1 c=64 v=127
133860 Par ch=1 c=64 v=0
133920 Par ch=1 c=64 v=127
134340 Par ch=1 c=64 v=0
134400 Par ch=1 c=64 v=127
134820 Par ch=1 c=64 v=0
134880 Par ch=1 c=64 v=127
135300 Par ch=1 c=64 v=0
135360 Par ch=1 c=64 v=127
135780 Par ch=1 c=64 v=0
135840 Par ch=1 c=64 v=127
136260 Par ch=1 c=64 v=0
136320 Par ch=1 c=64 v=127
136740 Par ch=1 c=64 v=0
136800 Par ch=1 c=64 v=127
137220 Par ch=1 c=64 v=0
137280 Par ch=1 c=64 v=127
137700 Par ch=1 c=64 v=0
137760 Par ch=1 c=64 v=127
138180 Par ch=1 c=64 v=0
138240 Par ch=1 c=64 v=127
138660 Par ch=1 c=64 v=0
138720 Par ch=1 c=64 v=127
139140 Par ch=1 c=64 v=0
139200 Par ch=1 c=64 v=127
139620 Par ch=1 c=64 v=0
139680 Par ch=1 c=64 v=127
140100 Par ch=1 c=64 v=0
151680 Par ch=1 c=64 v=127
152580 Par ch=1 c=64 v=0
152640 Par ch=1 c=64 v=127
153540 Par ch=1 c=64 v=0
153600 Par ch=1 c=64 v=127
154500 Par ch=1 c=64 v=0
154560 Par ch=1 c=64 v=127
155460 Par ch=1 c=64 v=0
155520 Par ch=1 c=64 v=127
156420 Par ch=1 c=64 v=0
156480 Par ch=1 c=64 v=127
157380 Par ch=1 c=64 v=0
157440 Par ch=1 c=64 v=127
158340 Par ch=1 c=64 v=0
158400 Par ch=1 c=64 v=127
159300 Par ch=1 c=64 v=0
159360 Par ch=1 c=64 v=127
160260 Par ch=1 c=64 v=0
160320 Par ch=1 c=64 v=127
161220 Par ch=1 c=64 v=0
161280 Par ch=1 c=64 v=127
162180 Par ch=1 c=64 v=0
162240 Par ch=1 c=64 v=127
163140 Par ch=1 c=64 v=0
163200 Par ch=1 c=64 v=127
164100 Par ch=1 c=64 v=0
164160 Par ch=1 c=64 v=127
165060 Par ch=1 c=64 v=0
165120 Par ch=1 c=64 v=127
166020 Par ch=1 c=64 v=0
166080 Par ch=1 c=64 v=127
166980 Par ch=1 c=64 v=0
167040 Par ch=1 c=64 v=127
167940 Par ch=1 c=64 v=0
168000 Par ch=1 c=64 v=127
168900 Par ch=1 c=64 v=0
168960 Par ch=1 c=64 v=127
169860 Par ch=1 c=64 v=0
169920 Par ch=1 c=64 v=127
170820 Par ch=1 c=64 v=0
170880 Par ch=1 c=64 v=127
171780 Par ch=1 c=64 v=0
171840 Par ch=1 c=64 v=127
172740 Par ch=1 c=64 v=0
172800 Par ch=1 c=64 v=127
173700 Par ch=1 c=64 v=0
173760 Par ch=1 c=64 v=127
174660 Par ch=1 c=64 v=0
182400 Par ch=1 c=64 v=127
182820 Par ch=1 c=64 v=0
182880 Par ch=1 c=64 v=127
183300 Par ch=1 c=64 v=0
183360 Par ch=1 c=64 v=127
183780 Par ch=1 c=64 v=0
183840 Par ch=1 c=64 v=127
184260 Par ch=1 c=64 v=0
184320 Par ch=1 c=64 v=127
184740 Par ch=1 c=64 v=0
184800 Par ch=1 c=64 v=127
185220 Par ch=1 c=64 v=0
185280 Par ch=1 c=64 v=127
185700 Par ch=1 c=64 v=0
185760 Par ch=1 c=64 v=127
186180 Par ch=1 c=64 v=0
186240 Par ch=1 c=64 v=127
186660 Par ch=1 c=64 v=0
186720 Par ch=1 c=64 v=127
187140 Par ch=1 c=64 v=0
187200 Par ch=1 c=64 v=127
187620 Par ch=1 c=64 v=0
187680 Par ch=1 c=64 v=127
188100 Par ch=1 c=64 v=0
188160 Par ch=1 c=64 v=127
188580 Par ch=1 c=64 v=0
188640 Par ch=1 c=64 v=127
189060 Par ch=1 c=64 v=0
189120 Par ch=1 c=64 v=127
189540 Par ch=1 c=64 v=0
190080 Par ch=1 c=64 v=127
190560 Par ch=1 c=64 v=0
190560 Meta TrkEnd
TrkEnd
MTrk
0 SeqSpec 43 00 01 00
0 Meta TrkName "Debussy, Claude"
0 Meta 0x21 00
0 Meta TrkEnd
TrkEnd
MTrk
0 SeqSpec 43 00 01 00
0 Meta TrkName "Prelude Book 1 No. 07 Ce qu'a vu le vent d'Ouest"
0 Meta 0x21 00
0 Meta TrkEnd
TrkEnd
MTrk
0 SeqSpec 43 00 01 00
0 Meta TrkName "Jeruen E. Dery jawjaw@hotmail.com"
0 Meta 0x21 00
0 Meta TrkEnd
TrkEnd
