MFile 1 8 480
MTrk
0 TimeSig 3/4 24 8
0 KeySig -2 major
0 Tempo 1363636
4320 TimeSig 4/4 24 8
6240 TimeSig 3/4 24 8
12000 TimeSig 4/4 24 8
15840 TimeSig 3/4 24 8
23040 TimeSig 4/4 24 8
24960 TimeSig 3/4 24 8
29280 TimeSig 4/4 24 8
31200 TimeSig 3/4 24 8
31200 Meta TrkEnd
TrkEnd
MTrk
0 SeqSpec 43 00 01 00
0 Meta TrkName "Upper Right"
0 Meta 0x21 00
0 On ch=1 n=d5 v=60
0 On ch=1 n=f5 v=60
480 On ch=1 n=f5 v=0
480 On ch=1 n=d5 v=0
480 On ch=1 n=g5 v=60
480 On ch=1 n=d#5 v=60
960 On ch=1 n=d#5 v=0
960 On ch=1 n=g5 v=0
960 On ch=1 n=a5 v=60
960 On ch=1 n=f5 v=60
1440 On ch=1 n=f5 v=0
1440 On ch=1 n=a5 v=0
1440 On ch=1 n=d5 v=60
1440 On ch=1 n=f5 v=60
1920 On ch=1 n=f5 v=0
1920 On ch=1 n=d5 v=0
1920 On ch=1 n=g5 v=60
1920 On ch=1 n=d#5 v=60
2400 On ch=1 n=d#5 v=0
2400 On ch=1 n=g5 v=0
2400 On ch=1 n=a5 v=60
2400 On ch=1 n=f5 v=60
2880 On ch=1 n=f5 v=0
2880 On ch=1 n=a5 v=0
2880 On ch=1 n=d5 v=60
3360 On ch=1 n=d5 v=0
3360 On ch=1 n=d5 v=60
3840 On ch=1 n=d5 v=0
3840 On ch=1 n=d5 v=60
4320 On ch=1 n=d5 v=0
4320 On ch=1 n=e5 v=60
4800 On ch=1 n=e5 v=0
4800 On ch=1 n=f5 v=60
5040 On ch=1 n=f5 v=0
5040 On ch=1 n=f5 v=40
5040 On ch=1 n=d5 v=40
5040 On ch=1 n=d6 v=40
5040 On ch=1 n=a#5 v=40
5280 On ch=1 n=a#5 v=0
5280 On ch=1 n=d6 v=0
5280 On ch=1 n=d5 v=0
5280 On ch=1 n=f5 v=0
5280 On ch=1 n=f5 v=40
5280 On ch=1 n=a4 v=40
5280 On ch=1 n=d5 v=40
5280 On ch=1 n=a5 v=40
5520 On ch=1 n=a5 v=0
5520 On ch=1 n=d5 v=0
5520 On ch=1 n=a4 v=0
5520 On ch=1 n=f5 v=0
6240 On ch=1 n=e5 v=40
6240 On ch=1 n=g5 v=40
6240 On ch=1 n=c6 v=40
6240 On ch=1 n=e6 v=40
6480 On ch=1 n=e6 v=0
6480 On ch=1 n=c6 v=0
6480 On ch=1 n=g5 v=0
6480 On ch=1 n=e5 v=0
6480 On ch=1 n=f5 v=40
6480 On ch=1 n=a5 v=40
6480 On ch=1 n=d5 v=40
6480 On ch=1 n=d6 v=40
6720 On ch=1 n=d6 v=0
6720 On ch=1 n=d5 v=0
6720 On ch=1 n=a5 v=0
6720 On ch=1 n=f5 v=0
6720 On ch=1 n=f5 v=40
6720 On ch=1 n=a#5 v=40
6720 On ch=1 n=d5 v=40
6720 On ch=1 n=d6 v=40
6960 On ch=1 n=d6 v=0
6960 On ch=1 n=d5 v=0
6960 On ch=1 n=a#5 v=0
6960 On ch=1 n=f5 v=0
6960 On ch=1 n=e5 v=40
6960 On ch=1 n=c5 v=40
6960 On ch=1 n=c6 v=40
6960 On ch=1 n=g5 v=40
7200 On ch=1 n=g5 v=0
7200 On ch=1 n=c6 v=0
7200 On ch=1 n=c5 v=0
7200 On ch=1 n=e5 v=0
7200 On ch=1 n=f6 v=40
7200 On ch=1 n=c6 v=40
7200 On ch=1 n=f5 v=40
7200 On ch=1 n=a5 v=40
7680 On ch=1 n=a5 v=0
7680 On ch=1 n=f5 v=0
7680 On ch=1 n=c6 v=0
7680 On ch=1 n=f6 v=0
7920 On ch=1 n=d6 v=60
7920 On ch=1 n=f5 v=60
7920 On ch=1 n=a#5 v=60
7920 On ch=1 n=f6 v=60
8400 On ch=1 n=f6 v=0
8400 On ch=1 n=a#5 v=0
8400 On ch=1 n=f5 v=0
8400 On ch=1 n=d6 v=0
8400 On ch=1 n=d#6 v=60
8400 On ch=1 n=g6 v=60
8400 On ch=1 n=b5 v=60
8400 On ch=1 n=g5 v=60
8880 On ch=1 n=g5 v=0
8880 On ch=1 n=b5 v=0
8880 On ch=1 n=g6 v=0
8880 On ch=1 n=d#6 v=0
8880 On ch=1 n=c#6 v=60
8880 On ch=1 n=a6 v=60
8880 On ch=1 n=a5 v=60
8880 On ch=1 n=f6 v=60
9120 On ch=1 n=f6 v=0
9120 On ch=1 n=a5 v=0
9120 On ch=1 n=a6 v=0
9120 On ch=1 n=c#6 v=0
9360 On ch=1 n=f6 v=60
9360 On ch=1 n=d6 v=60
9360 On ch=1 n=a#5 v=60
9360 On ch=1 n=f5 v=60
9840 On ch=1 n=f5 v=0
9840 On ch=1 n=a#5 v=0
9840 On ch=1 n=d6 v=0
9840 On ch=1 n=f6 v=0
9840 On ch=1 n=b5 v=60
9840 On ch=1 n=d#6 v=60
9840 On ch=1 n=g6 v=60
9840 On ch=1 n=g5 v=60
10320 On ch=1 n=g5 v=0
10320 On ch=1 n=g6 v=0
10320 On ch=1 n=d#6 v=0
10320 On ch=1 n=b5 v=0
10320 On ch=1 n=a6 v=60
10320 On ch=1 n=f6 v=60
10320 On ch=1 n=c#6 v=60
10320 On ch=1 n=a5 v=60
10560 On ch=1 n=a5 v=0
10560 On ch=1 n=c#6 v=0
10560 On ch=1 n=f6 v=0
10560 On ch=1 n=a6 v=0
10800 On ch=1 n=g7 v=60
10800 On ch=1 n=g6 v=60
10800 On ch=1 n=f6 v=60
11280 On ch=1 n=f6 v=0
11280 On ch=1 n=g6 v=0
11280 On ch=1 n=g7 v=0
11280 On ch=1 n=f6 v=60
11280 On ch=1 n=g7 v=60
11280 On ch=1 n=g6 v=60
11760 On ch=1 n=g6 v=0
11760 On ch=1 n=g7 v=0
11760 On ch=1 n=f6 v=0
11760 On ch=1 n=g7 v=60
11760 On ch=1 n=f6 v=60
11760 On ch=1 n=g6 v=60
12000 On ch=1 n=g6 v=0
12000 On ch=1 n=f6 v=0
12000 On ch=1 n=g7 v=0
12240 On ch=1 n=f6 v=60
12240 On ch=1 n=g7 v=60
12240 On ch=1 n=g6 v=60
12720 On ch=1 n=g6 v=0
12720 On ch=1 n=g7 v=0
12720 On ch=1 n=f6 v=0
12720 On ch=1 n=f7 v=80
12720 On ch=1 n=a#6 v=80
12720 On ch=1 n=f6 v=80
12960 On ch=1 n=f6 v=0
12960 On ch=1 n=a#6 v=0
12960 On ch=1 n=f7 v=0
12960 On ch=1 n=a6 v=80
12960 On ch=1 n=d7 v=80
12960 On ch=1 n=d6 v=80
13200 On ch=1 n=d6 v=0
13200 On ch=1 n=d7 v=0
13200 On ch=1 n=a6 v=0
13200 On ch=1 n=a6 v=80
13200 On ch=1 n=d6 v=80
13200 On ch=1 n=a5 v=80
13440 On ch=1 n=a5 v=0
13440 On ch=1 n=d6 v=0
13440 On ch=1 n=a6 v=0
13440 On ch=1 n=f6 v=80
13440 On ch=1 n=d6 v=80
13440 On ch=1 n=a5 v=80
13440 On ch=1 n=f5 v=80
13680 On ch=1 n=f5 v=0
13680 On ch=1 n=a5 v=0
13680 On ch=1 n=d6 v=0
13680 On ch=1 n=f6 v=0
13680 On ch=1 n=g6 v=80
13680 On ch=1 n=d6 v=80
13680 On ch=1 n=g5 v=80
13680 On ch=1 n=a#5 v=80
13920 On ch=1 n=a#5 v=0
13920 On ch=1 n=g5 v=0
13920 On ch=1 n=d6 v=0
13920 On ch=1 n=g6 v=0
15840 On ch=1 n=g6 v=40
15840 On ch=1 n=g7 v=40
16320 On ch=1 n=g7 v=0
16320 On ch=1 n=g6 v=0
16320 On ch=1 n=f6 v=40
16320 On ch=1 n=f7 v=40
16680 On ch=1 n=f7 v=0
16680 On ch=1 n=f6 v=0
16680 On ch=1 n=d7 v=40
16680 On ch=1 n=d6 v=40
16800 On ch=1 n=d6 v=0
16800 On ch=1 n=d7 v=0
16800 On ch=1 n=c6 v=40
16800 On ch=1 n=c7 v=40
17160 On ch=1 n=c7 v=0
17160 On ch=1 n=c6 v=0
17160 On ch=1 n=a#6 v=40
17160 On ch=1 n=a#5 v=40
17280 On ch=1 n=a#5 v=0
17280 On ch=1 n=a#6 v=0
17280 On ch=1 n=g6 v=40
17280 On ch=1 n=g5 v=40
17640 On ch=1 n=g5 v=0
17640 On ch=1 n=g6 v=0
17640 On ch=1 n=f6 v=40
17640 On ch=1 n=f5 v=40
17760 On ch=1 n=f5 v=0
17760 On ch=1 n=f6 v=0
17760 On ch=1 n=d6 v=40
17760 On ch=1 n=d5 v=40
18720 On ch=1 n=d5 v=0
18720 On ch=1 n=d6 v=0
18720 On ch=1 n=c7 v=40
18720 On ch=1 n=c8 v=40
19200 On ch=1 n=c8 v=0
19200 On ch=1 n=c7 v=0
19200 On ch=1 n=a#6 v=40
19200 On ch=1 n=a#7 v=40
19560 On ch=1 n=a#7 v=0
19560 On ch=1 n=a#6 v=0
19560 On ch=1 n=g7 v=40
19560 On ch=1 n=g6 v=40
19680 On ch=1 n=g6 v=0
19680 On ch=1 n=g7 v=0
19680 On ch=1 n=f7 v=40
19680 On ch=1 n=f6 v=40
20040 On ch=1 n=f6 v=0
20040 On ch=1 n=f7 v=0
20040 On ch=1 n=d#7 v=40
20040 On ch=1 n=d#6 v=40
20160 On ch=1 n=d#6 v=0
20160 On ch=1 n=d#7 v=0
20160 On ch=1 n=c6 v=40
20160 On ch=1 n=c7 v=40
20520 On ch=1 n=c7 v=0
20520 On ch=1 n=c6 v=0
20520 On ch=1 n=a#6 v=40
20520 On ch=1 n=a#5 v=40
20640 On ch=1 n=a#5 v=0
20640 On ch=1 n=a#6 v=0
20640 On ch=1 n=g5 v=40
20640 On ch=1 n=g6 v=40
21600 On ch=1 n=g6 v=0
21600 On ch=1 n=g5 v=0
21840 On ch=1 n=c7 v=80
21840 On ch=1 n=e7 v=80
21840 On ch=1 n=e6 v=80
22320 On ch=1 n=e6 v=0
22320 On ch=1 n=e7 v=0
22320 On ch=1 n=c7 v=0
22320 On ch=1 n=c#7 v=80
22320 On ch=1 n=a6 v=80
22320 On ch=1 n=c#6 v=80
22800 On ch=1 n=c#6 v=0
22800 On ch=1 n=a6 v=0
22800 On ch=1 n=c#7 v=0
22800 On ch=1 n=d#6 v=80
22800 On ch=1 n=d#7 v=80
22800 On ch=1 n=b6 v=80
23040 On ch=1 n=b6 v=0
23040 On ch=1 n=d#7 v=0
23040 On ch=1 n=d#6 v=0
23280 On ch=1 n=e7 v=100
23280 On ch=1 n=c7 v=100
23280 On ch=1 n=e6 v=100
23520 On ch=1 n=e6 v=0
23520 On ch=1 n=c7 v=0
23520 On ch=1 n=e7 v=0
23760 On ch=1 n=a5 v=100
23760 On ch=1 n=g6 v=100
23760 On ch=1 n=a6 v=100
23760 On ch=1 n=a7 v=100
23760 On ch=1 n=g5 v=100
24240 On ch=1 n=g5 v=0
24240 On ch=1 n=a5 v=0
24480 On ch=1 n=a7 v=0
24480 On ch=1 n=a6 v=0
24480 On ch=1 n=g6 v=0
24720 On ch=1 n=d5 v=100
24720 On ch=1 n=c5 v=100
24720 On ch=1 n=c7 v=100
24720 On ch=1 n=c6 v=100
24960 On ch=1 n=c6 v=0
24960 On ch=1 n=c7 v=0
24960 On ch=1 n=c5 v=0
24960 On ch=1 n=d5 v=0
25200 On ch=1 n=a7 v=100
25200 On ch=1 n=a6 v=100
25200 On ch=1 n=a5 v=100
25200 On ch=1 n=g5 v=100
25200 On ch=1 n=g6 v=100
25680 On ch=1 n=g6 v=0
25680 On ch=1 n=g5 v=0
25680 On ch=1 n=a5 v=0
25680 On ch=1 n=a6 v=0
25680 On ch=1 n=a7 v=0
25680 On ch=1 n=c5 v=100
25680 On ch=1 n=c7 v=100
25680 On ch=1 n=d5 v=100
25680 On ch=1 n=d6 v=100
25680 On ch=1 n=c6 v=100
26160 On ch=1 n=c6 v=0
26160 On ch=1 n=d6 v=0
26160 On ch=1 n=d5 v=0
26160 On ch=1 n=c7 v=0
26160 On ch=1 n=c5 v=0
26640 On ch=1 n=g#6 v=40
26640 On ch=1 n=g#7 v=40
26640 On ch=1 n=d#7 v=40
26640 On ch=1 n=c7 v=40
27600 On ch=1 n=c7 v=0
27600 On ch=1 n=d#7 v=0
27600 On ch=1 n=g#7 v=0
27600 On ch=1 n=g#6 v=0
28080 On ch=1 n=g6 v=40
28080 On ch=1 n=a#6 v=40
28080 On ch=1 n=g7 v=40
28080 On ch=1 n=d7 v=40
29040 On ch=1 n=d7 v=0
29040 On ch=1 n=g7 v=0
29040 On ch=1 n=a#6 v=0
29040 On ch=1 n=g6 v=0
29520 On ch=1 n=a6 v=30
29520 On ch=1 n=f6 v=30
29520 On ch=1 n=c7 v=30
29520 On ch=1 n=f7 v=30
30960 On ch=1 n=f7 v=0
30960 On ch=1 n=c7 v=0
30960 On ch=1 n=f6 v=0
30960 On ch=1 n=a6 v=0
31200 On ch=1 n=d5 v=60
31680 On ch=1 n=d5 v=0
31680 On ch=1 n=f5 v=60
32160 On ch=1 n=f5 v=0
32160 On ch=1 n=c5 v=60
32640 On ch=1 n=c5 v=0
32640 On ch=1 n=d#5 v=60
33600 On ch=1 n=d#5 v=0
33600 On ch=1 n=g5 v=60
34080 On ch=1 n=g5 v=0
34080 On ch=1 n=d6 v=60
34080 On ch=1 n=d5 v=60
34560 On ch=1 n=d5 v=0
34560 On ch=1 n=d6 v=0
34560 On ch=1 n=f6 v=60
34560 On ch=1 n=f5 v=60
35040 On ch=1 n=f5 v=0
35040 On ch=1 n=f6 v=0
35040 On ch=1 n=a6 v=60
35040 On ch=1 n=a5 v=60
35520 On ch=1 n=a5 v=0
35520 On ch=1 n=a6 v=0
35520 On ch=1 n=c#7 v=60
35520 On ch=1 n=c#6 v=60
36000 On ch=1 n=c#6 v=0
36000 On ch=1 n=c#7 v=0
36000 On ch=1 n=d#6 v=60
36000 On ch=1 n=d#7 v=60
36480 On ch=1 n=d#7 v=0
36480 On ch=1 n=d#6 v=0
36480 On ch=1 n=g#7 v=60
36480 On ch=1 n=g#6 v=60
36960 On ch=1 n=g#6 v=0
36960 On ch=1 n=g#7 v=0
38160 On ch=1 n=f7 v=60
38160 On ch=1 n=c#7 v=60
38160 On ch=1 n=f6 v=60
38160 On ch=1 n=a6 v=60
38640 On ch=1 n=a6 v=0
38640 On ch=1 n=f6 v=0
38640 On ch=1 n=c#7 v=0
38640 On ch=1 n=f7 v=0
39600 On ch=1 n=f7 v=60
39600 On ch=1 n=c#7 v=60
39600 On ch=1 n=a6 v=60
39600 On ch=1 n=f6 v=60
40080 On ch=1 n=f6 v=0
40080 On ch=1 n=a6 v=0
40080 On ch=1 n=c#7 v=0
40080 On ch=1 n=f7 v=0
40800 On ch=1 n=f7 v=40
40800 On ch=1 n=f6 v=40
41280 On ch=1 n=f6 v=0
41280 On ch=1 n=f7 v=0
42240 On ch=1 n=f6 v=40
42240 On ch=1 n=f7 v=40
42720 On ch=1 n=f7 v=0
42720 On ch=1 n=f6 v=0
42720 Meta TrkEnd
TrkEnd
MTrk
0 SeqSpec 43 00 01 00
0 Meta TrkName "Lower Right"
0 Meta 0x21 00
0 On ch=1 n=a#4 v=60
480 On ch=1 n=a#4 v=0
480 On ch=1 n=b4 v=60
840 On ch=1 n=b4 v=0
840 On ch=1 n=c5 v=60
960 On ch=1 n=c5 v=0
960 On ch=1 n=c#5 v=60
1440 On ch=1 n=c#5 v=0
1440 On ch=1 n=a#4 v=60
1920 On ch=1 n=a#4 v=0
1920 On ch=1 n=b4 v=60
2280 On ch=1 n=b4 v=0
2280 On ch=1 n=c5 v=60
2400 On ch=1 n=c5 v=0
2400 On ch=1 n=c#5 v=60
2760 On ch=1 n=c#5 v=0
2760 On ch=1 n=f5 v=60
2880 On ch=1 n=f5 v=0
2880 On ch=1 n=g5 v=60
3240 On ch=1 n=g5 v=0
3240 On ch=1 n=a5 v=60
3360 On ch=1 n=a5 v=0
3360 On ch=1 n=g5 v=60
3720 On ch=1 n=g5 v=0
3720 On ch=1 n=a5 v=60
3840 On ch=1 n=a5 v=0
3840 On ch=1 n=g5 v=60
4200 On ch=1 n=g5 v=0
4200 On ch=1 n=a5 v=60
4320 On ch=1 n=a5 v=0
4320 On ch=1 n=g5 v=60
4680 On ch=1 n=g5 v=0
4680 On ch=1 n=a#5 v=60
4800 On ch=1 n=a#5 v=0
5040 On ch=1 n=f7 v=40
5040 On ch=1 n=f6 v=40
5040 On ch=1 n=a#6 v=40
5280 On ch=1 n=a#6 v=0
5280 On ch=1 n=f6 v=0
5280 On ch=1 n=f7 v=0
5280 On ch=1 n=d6 v=40
5280 On ch=1 n=a6 v=40
5280 On ch=1 n=d7 v=40
5520 On ch=1 n=d7 v=0
5520 On ch=1 n=a6 v=0
5520 On ch=1 n=d6 v=0
5520 On ch=1 n=a5 v=40
5520 On ch=1 n=a6 v=40
5520 On ch=1 n=d6 v=40
5760 On ch=1 n=d6 v=0
5760 On ch=1 n=a6 v=0
5760 On ch=1 n=a5 v=0
5760 On ch=1 n=a5 v=40
5760 On ch=1 n=f6 v=40
5760 On ch=1 n=f5 v=40
5760 On ch=1 n=d6 v=40
6000 On ch=1 n=d6 v=0
6000 On ch=1 n=f5 v=0
6000 On ch=1 n=f6 v=0
6000 On ch=1 n=a5 v=0
6000 On ch=1 n=g5 v=40
6000 On ch=1 n=g6 v=40
6000 On ch=1 n=d6 v=40
6000 On ch=1 n=a#5 v=40
6240 On ch=1 n=a#5 v=0
6240 On ch=1 n=d6 v=0
6240 On ch=1 n=g6 v=0
6240 On ch=1 n=g5 v=0
7680 On ch=1 n=a#4 v=60
8160 On ch=1 n=a#4 v=0
8160 On ch=1 n=b4 v=60
8520 On ch=1 n=b4 v=0
8520 On ch=1 n=c5 v=60
8640 On ch=1 n=c5 v=0
8640 On ch=1 n=c#5 v=60
9120 On ch=1 n=c#5 v=0
9120 On ch=1 n=a#4 v=60
9600 On ch=1 n=a#4 v=0
9600 On ch=1 n=a#4 v=60
9960 On ch=1 n=a#4 v=0
9960 On ch=1 n=c5 v=60
10080 On ch=1 n=c5 v=0
10080 On ch=1 n=c#5 v=60
10440 On ch=1 n=c#5 v=0
10440 On ch=1 n=f5 v=60
10560 On ch=1 n=f5 v=0
10560 On ch=1 n=g5 v=60
10560 On ch=1 n=d5 v=60
10920 On ch=1 n=d5 v=0
10920 On ch=1 n=g5 v=0
10920 On ch=1 n=a5 v=60
11040 On ch=1 n=a5 v=0
11040 On ch=1 n=g5 v=60
11040 On ch=1 n=d5 v=60
11400 On ch=1 n=d5 v=0
11400 On ch=1 n=g5 v=0
11400 On ch=1 n=a5 v=60
11520 On ch=1 n=a5 v=0
11520 On ch=1 n=g5 v=60
11520 On ch=1 n=d#5 v=60
11880 On ch=1 n=d#5 v=0
11880 On ch=1 n=g5 v=0
11880 On ch=1 n=a5 v=60
12000 On ch=1 n=a5 v=0
12000 On ch=1 n=g5 v=60
12000 On ch=1 n=e5 v=60
12360 On ch=1 n=e5 v=0
12360 On ch=1 n=g5 v=0
12360 On ch=1 n=a#5 v=60
12480 On ch=1 n=a#5 v=0
12480 On ch=1 n=f5 v=60
12720 On ch=1 n=f5 v=0
12720 On ch=1 n=f5 v=80
12720 On ch=1 n=d5 v=80
12720 On ch=1 n=a#5 v=80
12720 On ch=1 n=d6 v=80
12960 On ch=1 n=d6 v=0
12960 On ch=1 n=a#5 v=0
12960 On ch=1 n=d5 v=0
12960 On ch=1 n=f5 v=0
12960 On ch=1 n=d5 v=80
12960 On ch=1 n=f5 v=80
12960 On ch=1 n=a5 v=80
13200 On ch=1 n=a5 v=0
13200 On ch=1 n=f5 v=0
13200 On ch=1 n=d5 v=0
13920 On ch=1 n=e6 v=70
13920 On ch=1 n=c6 v=70
13920 On ch=1 n=g5 v=70
13920 On ch=1 n=e5 v=70
14160 On ch=1 n=e5 v=0
14160 On ch=1 n=g5 v=0
14160 On ch=1 n=c6 v=0
14160 On ch=1 n=e6 v=0
14160 On ch=1 n=d6 v=70
14160 On ch=1 n=a5 v=70
14160 On ch=1 n=f5 v=70
14160 On ch=1 n=d5 v=70
14400 On ch=1 n=d5 v=0
14400 On ch=1 n=f5 v=0
14400 On ch=1 n=a5 v=0
14400 On ch=1 n=d6 v=0
14400 On ch=1 n=d6 v=70
14400 On ch=1 n=a#5 v=70
14400 On ch=1 n=f5 v=70
14400 On ch=1 n=d5 v=70
14640 On ch=1 n=d5 v=0
14640 On ch=1 n=f5 v=0
14640 On ch=1 n=a#5 v=0
14640 On ch=1 n=d6 v=0
14640 On ch=1 n=g5 v=70
14640 On ch=1 n=c5 v=70
14640 On ch=1 n=e5 v=70
14640 On ch=1 n=c6 v=70
14880 On ch=1 n=c6 v=0
14880 On ch=1 n=e5 v=0
14880 On ch=1 n=c5 v=0
14880 On ch=1 n=g5 v=0
14880 On ch=1 n=f6 v=70
14880 On ch=1 n=c6 v=70
14880 On ch=1 n=a5 v=70
14880 On ch=1 n=f5 v=70
15840 On ch=1 n=f5 v=0
15840 On ch=1 n=a5 v=0
15840 On ch=1 n=c6 v=0
15840 On ch=1 n=f6 v=0
16080 On ch=1 n=g5 v=40
16080 On ch=1 n=c5 v=40
16080 On ch=1 n=d#5 v=40
16080 On ch=1 n=c6 v=40
16560 On ch=1 n=c6 v=0
16560 On ch=1 n=d#5 v=0
16560 On ch=1 n=c5 v=0
16560 On ch=1 n=g5 v=0
16560 On ch=1 n=d6 v=40
16560 On ch=1 n=f5 v=40
16560 On ch=1 n=d5 v=40
16560 On ch=1 n=a5 v=40
17040 On ch=1 n=a5 v=0
17040 On ch=1 n=d5 v=0
17040 On ch=1 n=f5 v=0
17040 On ch=1 n=d6 v=0
17040 On ch=1 n=d#6 v=40
17040 On ch=1 n=a#5 v=40
17040 On ch=1 n=g5 v=40
17040 On ch=1 n=d#5 v=40
17520 On ch=1 n=d#5 v=0
17520 On ch=1 n=g5 v=0
17520 On ch=1 n=a#5 v=0
17520 On ch=1 n=d#6 v=0
17520 On ch=1 n=f5 v=40
17520 On ch=1 n=f6 v=40
17520 On ch=1 n=c6 v=40
17520 On ch=1 n=a5 v=40
17760 On ch=1 n=a5 v=0
17760 On ch=1 n=c6 v=0
17760 On ch=1 n=f6 v=0
17760 On ch=1 n=f5 v=0
17760 On ch=1 n=d6 v=40
17760 On ch=1 n=g5 v=40
17760 On ch=1 n=a#5 v=40
17760 On ch=1 n=g6 v=40
18000 On ch=1 n=g6 v=0
18000 On ch=1 n=a#5 v=0
18000 On ch=1 n=g5 v=0
18000 On ch=1 n=d6 v=0
18000 On ch=1 n=e6 v=40
18000 On ch=1 n=c6 v=40
18000 On ch=1 n=a5 v=40
18000 On ch=1 n=a6 v=40
18240 On ch=1 n=a6 v=0
18240 On ch=1 n=a5 v=0
18240 On ch=1 n=c6 v=0
18240 On ch=1 n=e6 v=0
18240 On ch=1 n=a#6 v=40
18240 On ch=1 n=a#5 v=40
18240 On ch=1 n=f6 v=40
18240 On ch=1 n=d6 v=40
18480 On ch=1 n=d6 v=0
18480 On ch=1 n=f6 v=0
18480 On ch=1 n=a#5 v=0
18480 On ch=1 n=a#6 v=0
18480 On ch=1 n=g6 v=40
18480 On ch=1 n=d#6 v=40
18480 On ch=1 n=c6 v=40
18480 On ch=1 n=c7 v=40
18720 On ch=1 n=c7 v=0
18720 On ch=1 n=c6 v=0
18720 On ch=1 n=d#6 v=0
18720 On ch=1 n=g6 v=0
18960 On ch=1 n=g#5 v=40
18960 On ch=1 n=d#5 v=40
18960 On ch=1 n=c5 v=40
18960 On ch=1 n=g#4 v=40
19440 On ch=1 n=g#4 v=0
19440 On ch=1 n=c5 v=0
19440 On ch=1 n=d#5 v=0
19440 On ch=1 n=g#5 v=0
19440 On ch=1 n=a#5 v=40
19440 On ch=1 n=f5 v=40
19440 On ch=1 n=d5 v=40
19440 On ch=1 n=a#4 v=40
19920 On ch=1 n=a#4 v=0
19920 On ch=1 n=d5 v=0
19920 On ch=1 n=f5 v=0
19920 On ch=1 n=a#5 v=0
19920 On ch=1 n=c6 v=40
19920 On ch=1 n=g5 v=40
19920 On ch=1 n=d#5 v=40
19920 On ch=1 n=c5 v=40
20400 On ch=1 n=c5 v=0
20400 On ch=1 n=d#5 v=0
20400 On ch=1 n=g5 v=0
20400 On ch=1 n=c6 v=0
20400 On ch=1 n=c#6 v=40
20400 On ch=1 n=g#5 v=40
20400 On ch=1 n=f5 v=40
20400 On ch=1 n=c#5 v=40
20640 On ch=1 n=c#5 v=0
20640 On ch=1 n=f5 v=0
20640 On ch=1 n=g#5 v=0
20640 On ch=1 n=c#6 v=0
20640 On ch=1 n=d#6 v=40
20640 On ch=1 n=g5 v=40
20640 On ch=1 n=a#5 v=40
20880 On ch=1 n=a#5 v=0
20880 On ch=1 n=g5 v=0
20880 On ch=1 n=d#6 v=0
20880 On ch=1 n=c6 v=50
20880 On ch=1 n=f6 v=50
20880 On ch=1 n=g#5 v=50
21120 On ch=1 n=g#5 v=0
21120 On ch=1 n=f6 v=0
21120 On ch=1 n=c6 v=0
21120 On ch=1 n=b5 v=60
21120 On ch=1 n=g5 v=60
21120 On ch=1 n=g6 v=60
21120 On ch=1 n=d6 v=60
21360 On ch=1 n=d6 v=0
21360 On ch=1 n=g6 v=0
21360 On ch=1 n=g5 v=0
21360 On ch=1 n=b5 v=0
21360 On ch=1 n=a#6 v=70
21360 On ch=1 n=f6 v=70
21360 On ch=1 n=a#5 v=70
21360 On ch=1 n=c#6 v=70
21600 On ch=1 n=c#6 v=0
21600 On ch=1 n=a#5 v=0
21600 On ch=1 n=f6 v=0
21600 On ch=1 n=a#6 v=0
21600 On ch=1 n=g4 v=80
21600 On ch=1 n=g5 v=80
22080 On ch=1 n=g5 v=0
22080 On ch=1 n=g4 v=0
22080 On ch=1 n=e4 v=80
22080 On ch=1 n=e5 v=80
22440 On ch=1 n=e5 v=0
22440 On ch=1 n=e4 v=0
22440 On ch=1 n=f5 v=80
22440 On ch=1 n=f4 v=80
22560 On ch=1 n=f4 v=0
22560 On ch=1 n=f5 v=0
22560 On ch=1 n=f#5 v=80
22560 On ch=1 n=f#4 v=80
22920 On ch=1 n=f#4 v=0
22920 On ch=1 n=f#5 v=0
22920 On ch=1 n=b4 v=80
22920 On ch=1 n=b5 v=80
23040 On ch=1 n=b5 v=0
23040 On ch=1 n=b4 v=0
23040 On ch=1 n=g4 v=100
23040 On ch=1 n=g5 v=100
23400 On ch=1 n=g5 v=0
23400 On ch=1 n=g4 v=0
23400 On ch=1 n=c5 v=100
23400 On ch=1 n=c6 v=100
23520 On ch=1 n=c6 v=0
23520 On ch=1 n=c5 v=0
23520 On ch=1 n=d5 v=100
23520 On ch=1 n=c5 v=100
23520 On ch=1 n=c6 v=100
23520 On ch=1 n=d6 v=100
24240 On ch=1 n=d6 v=0
24240 On ch=1 n=c6 v=0
24240 On ch=1 n=c5 v=0
24240 On ch=1 n=d5 v=0
24240 On ch=1 n=d#6 v=100
24240 On ch=1 n=d#5 v=100
24480 On ch=1 n=d#5 v=0
24480 On ch=1 n=d#6 v=0
24480 On ch=1 n=a4 v=100
24480 On ch=1 n=g5 v=100
24480 On ch=1 n=g4 v=100
24840 On ch=1 n=g4 v=0
24840 On ch=1 n=g5 v=0
24840 On ch=1 n=a4 v=0
24840 On ch=1 n=c5 v=100
24840 On ch=1 n=c6 v=100
24960 On ch=1 n=c6 v=0
24960 On ch=1 n=c5 v=0
24960 On ch=1 n=c5 v=100
24960 On ch=1 n=c6 v=100
24960 On ch=1 n=d5 v=100
24960 On ch=1 n=d6 v=100
25320 On ch=1 n=d6 v=0
25320 On ch=1 n=d5 v=0
25320 On ch=1 n=c6 v=0
25320 On ch=1 n=c5 v=0
25320 On ch=1 n=e5 v=100
25320 On ch=1 n=e6 v=100
25440 On ch=1 n=e6 v=0
25440 On ch=1 n=e5 v=0
25440 On ch=1 n=g4 v=100
25440 On ch=1 n=a4 v=100
25440 On ch=1 n=g5 v=100
25920 On ch=1 n=g5 v=0
25920 On ch=1 n=a4 v=0
25920 On ch=1 n=g4 v=0
25920 On ch=1 n=c5 v=100
25920 On ch=1 n=c6 v=100
26880 On ch=1 n=c6 v=0
26880 On ch=1 n=c5 v=0
27120 On ch=1 n=d5 v=40
27120 On ch=1 n=d6 v=40
27600 On ch=1 n=d6 v=0
27600 On ch=1 n=d5 v=0
27600 On ch=1 n=f6 v=40
27600 On ch=1 n=f5 v=40
27840 On ch=1 n=f5 v=0
27840 On ch=1 n=f6 v=0
27840 On ch=1 n=c5 v=40
27840 On ch=1 n=c6 v=40
28560 On ch=1 n=c6 v=0
28560 On ch=1 n=c5 v=0
28560 On ch=1 n=d6 v=40
28560 On ch=1 n=d5 v=40
29040 On ch=1 n=d5 v=0
29040 On ch=1 n=d6 v=0
29040 On ch=1 n=f6 v=40
29040 On ch=1 n=f5 v=40
29280 On ch=1 n=f5 v=0
29280 On ch=1 n=f6 v=0
29280 On ch=1 n=c5 v=40
29280 On ch=1 n=c6 v=40
31200 On ch=1 n=c6 v=0
31200 On ch=1 n=c5 v=0
34320 On ch=1 n=f5 v=60
34320 On ch=1 n=a#5 v=60
34800 On ch=1 n=a#5 v=0
34800 On ch=1 n=f5 v=0
34800 On ch=1 n=c#6 v=60
34800 On ch=1 n=g#5 v=60
35280 On ch=1 n=g#5 v=0
35280 On ch=1 n=c#6 v=0
35280 On ch=1 n=f6 v=60
35280 On ch=1 n=c6 v=60
35520 On ch=1 n=c6 v=0
35520 On ch=1 n=f6 v=0
35760 On ch=1 n=e5 v=60
35760 On ch=1 n=d#6 v=60
35760 On ch=1 n=a4 v=60
35760 On ch=1 n=a5 v=60
35760 On ch=1 n=a6 v=60
36240 On ch=1 n=a6 v=0
36240 On ch=1 n=a5 v=0
36240 On ch=1 n=a4 v=0
36240 On ch=1 n=d#6 v=0
36240 On ch=1 n=e5 v=0
36240 On ch=1 n=c6 v=60
36240 On ch=1 n=g5 v=60
36240 On ch=1 n=c5 v=60
36240 On ch=1 n=c7 v=60
36240 On ch=1 n=g6 v=60
36712 On ch=1 n=b5 v=60
36720 On ch=1 n=g6 v=0
36720 On ch=1 n=c7 v=0
36720 On ch=1 n=c5 v=0
36720 On ch=1 n=g5 v=0
36720 On ch=1 n=c6 v=0
36720 On ch=1 n=e6 v=60
36720 On ch=1 n=g7 v=60
36720 On ch=1 n=d7 v=60
36720 On ch=1 n=e5 v=60
36952 On ch=1 n=b5 v=0
36960 On ch=1 n=e5 v=0
36960 On ch=1 n=d7 v=0
36960 On ch=1 n=g7 v=0
36960 On ch=1 n=e6 v=0
37200 On ch=1 n=d6 v=60
37200 On ch=1 n=f5 v=60
37200 On ch=1 n=f6 v=60
37200 On ch=1 n=a#5 v=60
37440 On ch=1 n=a#5 v=0
37440 On ch=1 n=f6 v=0
37440 On ch=1 n=f5 v=0
37440 On ch=1 n=d6 v=0
37440 On ch=1 n=d#6 v=60
37440 On ch=1 n=g5 v=60
37440 On ch=1 n=b5 v=60
37440 On ch=1 n=g6 v=60
37800 On ch=1 n=g6 v=0
37800 On ch=1 n=b5 v=0
37800 On ch=1 n=g5 v=0
37800 On ch=1 n=d#6 v=0
37800 On ch=1 n=e6 v=60
37800 On ch=1 n=g#5 v=60
37800 On ch=1 n=g#6 v=60
37800 On ch=1 n=c6 v=60
37920 On ch=1 n=c6 v=0
37920 On ch=1 n=g#6 v=0
37920 On ch=1 n=g#5 v=0
37920 On ch=1 n=e6 v=0
37920 On ch=1 n=a6 v=60
37920 On ch=1 n=f6 v=60
37920 On ch=1 n=a5 v=60
37920 On ch=1 n=c#6 v=60
38400 On ch=1 n=c#6 v=0
38400 On ch=1 n=a5 v=0
38400 On ch=1 n=f6 v=0
38400 On ch=1 n=a6 v=0
38640 On ch=1 n=f6 v=60
38640 On ch=1 n=d6 v=60
38640 On ch=1 n=a#5 v=60
38640 On ch=1 n=f5 v=60
38880 On ch=1 n=f5 v=0
38880 On ch=1 n=a#5 v=0
38880 On ch=1 n=d6 v=0
38880 On ch=1 n=f6 v=0
38880 On ch=1 n=g5 v=60
38880 On ch=1 n=g6 v=60
38880 On ch=1 n=b5 v=60
38880 On ch=1 n=d#6 v=60
39240 On ch=1 n=d#6 v=0
39240 On ch=1 n=b5 v=0
39240 On ch=1 n=g6 v=0
39240 On ch=1 n=g5 v=0
39240 On ch=1 n=e6 v=60
39240 On ch=1 n=c6 v=60
39240 On ch=1 n=g#6 v=60
39240 On ch=1 n=g#5 v=60
39360 On ch=1 n=g#5 v=0
39360 On ch=1 n=g#6 v=0
39360 On ch=1 n=c6 v=0
39360 On ch=1 n=e6 v=0
39360 On ch=1 n=a6 v=60
39360 On ch=1 n=c#6 v=60
39360 On ch=1 n=a5 v=60
39360 On ch=1 n=f6 v=60
39840 On ch=1 n=f6 v=0
39840 On ch=1 n=a5 v=0
39840 On ch=1 n=c#6 v=0
39840 On ch=1 n=a6 v=0
40080 On ch=1 n=a6 v=40
40080 On ch=1 n=g5 v=40
40080 On ch=1 n=a5 v=40
41520 On ch=1 n=a5 v=0
41520 On ch=1 n=g5 v=0
41520 On ch=1 n=a6 v=0
41520 On ch=1 n=g5 v=40
41520 On ch=1 n=a5 v=40
41520 On ch=1 n=a6 v=40
42960 On ch=1 n=a6 v=0
42960 On ch=1 n=a5 v=0
42960 On ch=1 n=g5 v=0
42960 Meta TrkEnd
TrkEnd
MTrk
0 SeqSpec 43 00 01 00
0 Meta TrkName "Lower Left"
0 Meta 0x21 00
0 On ch=1 n=d3 v=60
0 On ch=1 n=a#3 v=60
0 On ch=1 n=f4 v=60
480 On ch=1 n=f4 v=0
480 On ch=1 n=a#3 v=0
480 On ch=1 n=d3 v=0
480 On ch=1 n=a2 v=60
480 On ch=1 n=a3 v=60
480 On ch=1 n=g4 v=60
960 On ch=1 n=g4 v=0
960 On ch=1 n=a3 v=0
960 On ch=1 n=a2 v=0
960 On ch=1 n=f2 v=60
960 On ch=1 n=a4 v=60
960 On ch=1 n=f3 v=60
1440 On ch=1 n=f3 v=0
1440 On ch=1 n=a4 v=0
1440 On ch=1 n=f2 v=0
1440 On ch=1 n=d3 v=60
1440 On ch=1 n=a#3 v=60
1440 On ch=1 n=f4 v=60
1920 On ch=1 n=f4 v=0
1920 On ch=1 n=a#3 v=0
1920 On ch=1 n=d3 v=0
1920 On ch=1 n=a2 v=60
1920 On ch=1 n=g4 v=60
1920 On ch=1 n=a3 v=60
2400 On ch=1 n=a3 v=0
2400 On ch=1 n=g4 v=0
2400 On ch=1 n=a2 v=0
2400 On ch=1 n=f2 v=60
2400 On ch=1 n=a4 v=60
2400 On ch=1 n=f3 v=60
2880 On ch=1 n=f3 v=0
2880 On ch=1 n=a4 v=0
2880 On ch=1 n=f2 v=0
2880 On ch=1 n=a#2 v=60
2880 On ch=1 n=a#3 v=60
2880 On ch=1 n=g4 v=60
2880 On ch=1 n=f4 v=60
3360 On ch=1 n=f4 v=0
3360 On ch=1 n=g4 v=0
3360 On ch=1 n=a#3 v=0
3360 On ch=1 n=a#2 v=0
3360 On ch=1 n=g4 v=60
3360 On ch=1 n=b2 v=60
3360 On ch=1 n=b3 v=60
3360 On ch=1 n=f4 v=60
3840 On ch=1 n=f4 v=0
3840 On ch=1 n=b3 v=0
3840 On ch=1 n=b2 v=0
3840 On ch=1 n=g4 v=0
3840 On ch=1 n=g4 v=60
3840 On ch=1 n=c3 v=60
3840 On ch=1 n=c4 v=60
3840 On ch=1 n=f4 v=60
4320 On ch=1 n=f4 v=0
4320 On ch=1 n=c4 v=0
4320 On ch=1 n=c3 v=0
4320 On ch=1 n=g4 v=0
4320 On ch=1 n=f4 v=60
4320 On ch=1 n=c#3 v=60
4320 On ch=1 n=g4 v=60
4320 On ch=1 n=c#4 v=60
4800 On ch=1 n=c#4 v=0
4800 On ch=1 n=g4 v=0
4800 On ch=1 n=c#3 v=0
4800 On ch=1 n=f4 v=0
4800 On ch=1 n=d4 v=60
4800 On ch=1 n=a#4 v=60
4800 On ch=1 n=d3 v=60
5040 On ch=1 n=a#4 v=0
5520 On ch=1 n=f5 v=40
5520 On ch=1 n=d5 v=40
5520 On ch=1 n=a4 v=40
5520 On ch=1 n=f4 v=40
5760 On ch=1 n=f4 v=0
5760 On ch=1 n=a4 v=0
5760 On ch=1 n=d5 v=0
5760 On ch=1 n=f5 v=0
5760 On ch=1 n=d3 v=0
5760 On ch=1 n=d4 v=0
5760 On ch=1 n=a4 v=40
5760 On ch=1 n=d5 v=40
5760 On ch=1 n=d4 v=40
6000 On ch=1 n=d4 v=0
6000 On ch=1 n=d5 v=0
6000 On ch=1 n=a4 v=0
6000 On ch=1 n=g4 v=40
6000 On ch=1 n=d5 v=40
6000 On ch=1 n=a#4 v=40
6240 On ch=1 n=a#4 v=0
6240 On ch=1 n=d5 v=0
6240 On ch=1 n=g4 v=0
6240 On ch=1 n=c5 v=40
6240 On ch=1 n=c4 v=40
6240 On ch=1 n=g4 v=40
6480 On ch=1 n=g4 v=0
6480 On ch=1 n=c4 v=0
6480 On ch=1 n=c5 v=0
6480 On ch=1 n=d4 v=40
6480 On ch=1 n=a4 v=40
6720 On ch=1 n=a4 v=0
6720 On ch=1 n=d4 v=0
6720 On ch=1 n=a#3 v=40
6720 On ch=1 n=a#4 v=40
6720 On ch=1 n=f4 v=40
6960 On ch=1 n=f4 v=0
6960 On ch=1 n=a#4 v=0
6960 On ch=1 n=a#3 v=0
6960 On ch=1 n=c4 v=40
6960 On ch=1 n=g4 v=40
7200 On ch=1 n=g4 v=0
7200 On ch=1 n=c4 v=0
7200 On ch=1 n=a4 v=40
7200 On ch=1 n=f3 v=40
7200 On ch=1 n=c4 v=40
7680 On ch=1 n=c4 v=0
7680 On ch=1 n=f3 v=0
7680 On ch=1 n=a4 v=0
7680 On ch=1 n=a#2 v=60
7680 On ch=1 n=a#3 v=60
8160 On ch=1 n=a#3 v=0
8160 On ch=1 n=a#2 v=0
8160 On ch=1 n=b3 v=60
8160 On ch=1 n=a2 v=60
8160 On ch=1 n=a3 v=60
8520 On ch=1 n=b3 v=0
8520 On ch=1 n=c4 v=60
8640 On ch=1 n=c4 v=0
8640 On ch=1 n=a3 v=0
8640 On ch=1 n=a2 v=0
8640 On ch=1 n=c#4 v=60
8640 On ch=1 n=f2 v=60
8640 On ch=1 n=f3 v=60
9120 On ch=1 n=f3 v=0
9120 On ch=1 n=f2 v=0
9120 On ch=1 n=c#4 v=0
9120 On ch=1 n=a#3 v=60
9120 On ch=1 n=a#2 v=60
9600 On ch=1 n=a#2 v=0
9600 On ch=1 n=a#3 v=0
9600 On ch=1 n=a2 v=60
9600 On ch=1 n=a3 v=60
9600 On ch=1 n=b3 v=60
9960 On ch=1 n=b3 v=0
9960 On ch=1 n=c4 v=60
10080 On ch=1 n=c4 v=0
10080 On ch=1 n=a3 v=0
10080 On ch=1 n=a2 v=0
10080 On ch=1 n=f3 v=60
10080 On ch=1 n=c#4 v=60
10080 On ch=1 n=f2 v=60
10440 On ch=1 n=c#4 v=0
10440 On ch=1 n=f4 v=60
10560 On ch=1 n=f4 v=0
10560 On ch=1 n=f2 v=0
10560 On ch=1 n=f3 v=0
10560 On ch=1 n=f4 v=60
10560 On ch=1 n=g4 v=60
10560 On ch=1 n=a#2 v=60
10560 On ch=1 n=a#3 v=60
10920 On ch=1 n=g4 v=0
10920 On ch=1 n=f4 v=0
10920 On ch=1 n=a4 v=60
11040 On ch=1 n=a4 v=0
11040 On ch=1 n=a#3 v=0
11040 On ch=1 n=a#2 v=0
11040 On ch=1 n=g4 v=60
11040 On ch=1 n=f4 v=60
11040 On ch=1 n=b2 v=60
11040 On ch=1 n=b3 v=60
11400 On ch=1 n=f4 v=0
11400 On ch=1 n=g4 v=0
11400 On ch=1 n=a4 v=60
11520 On ch=1 n=a4 v=0
11520 On ch=1 n=b3 v=0
11520 On ch=1 n=b2 v=0
11520 On ch=1 n=f4 v=60
11520 On ch=1 n=c4 v=60
11520 On ch=1 n=c3 v=60
11520 On ch=1 n=g4 v=60
11880 On ch=1 n=g4 v=0
11880 On ch=1 n=f4 v=0
11880 On ch=1 n=a4 v=60
12000 On ch=1 n=a4 v=0
12000 On ch=1 n=c3 v=0
12000 On ch=1 n=c4 v=0
12000 On ch=1 n=f4 v=60
12000 On ch=1 n=g4 v=60
12360 On ch=1 n=g4 v=0
12360 On ch=1 n=f4 v=0
12360 On ch=1 n=a#4 v=60
12480 On ch=1 n=a#4 v=0
12480 On ch=1 n=f4 v=60
12480 On ch=1 n=a#4 v=60
12720 On ch=1 n=a#4 v=0
12720 On ch=1 n=f4 v=0
12960 On ch=1 n=a4 v=80
13200 On ch=1 n=a4 v=0
13200 On ch=1 n=a4 v=80
13200 On ch=1 n=f4 v=80
13200 On ch=1 n=f5 v=80
13200 On ch=1 n=d5 v=80
13440 On ch=1 n=d5 v=0
13440 On ch=1 n=f5 v=0
13440 On ch=1 n=f4 v=0
13440 On ch=1 n=a4 v=0
13440 On ch=1 n=d4 v=80
13440 On ch=1 n=d5 v=80
13440 On ch=1 n=f4 v=80
13440 On ch=1 n=a4 v=80
13680 On ch=1 n=a4 v=0
13680 On ch=1 n=f4 v=0
13680 On ch=1 n=d5 v=0
13680 On ch=1 n=d4 v=0
13680 On ch=1 n=g4 v=80
13680 On ch=1 n=a#4 v=80
13680 On ch=1 n=d5 v=80
13920 On ch=1 n=d5 v=0
13920 On ch=1 n=a#4 v=0
13920 On ch=1 n=g4 v=0
15840 On ch=1 n=f2 v=40
15840 On ch=1 n=f3 v=40
18720 On ch=1 n=f3 v=0
18720 On ch=1 n=f2 v=0
18720 On ch=1 n=f3 v=40
18720 On ch=1 n=f2 v=40
21600 On ch=1 n=f2 v=0
21600 On ch=1 n=f3 v=0
21840 On ch=1 n=c4 v=80
21840 On ch=1 n=c3 v=80
22320 On ch=1 n=c3 v=0
22320 On ch=1 n=c4 v=0
22320 On ch=1 n=a3 v=80
22320 On ch=1 n=a2 v=80
22800 On ch=1 n=a2 v=0
22800 On ch=1 n=a3 v=0
22800 On ch=1 n=b3 v=80
22800 On ch=1 n=b2 v=80
23040 On ch=1 n=b2 v=0
23040 On ch=1 n=b3 v=0
23280 On ch=1 n=c3 v=100
23520 On ch=1 n=c3 v=0
23520 On ch=1 n=f3 v=100
24480 On ch=1 n=f3 v=0
24480 On ch=1 n=a3 v=100
24480 On ch=1 n=e3 v=100
24960 On ch=1 n=e3 v=0
24960 On ch=1 n=a3 v=0
24960 On ch=1 n=f3 v=100
25440 On ch=1 n=f3 v=0
25440 On ch=1 n=e3 v=100
25920 On ch=1 n=e3 v=0
26640 On ch=1 n=g#3 v=40
26640 On ch=1 n=g#2 v=40
26640 On ch=1 n=d#3 v=40
27600 On ch=1 n=d#3 v=0
27600 On ch=1 n=g#2 v=0
27600 On ch=1 n=g#3 v=0
28080 On ch=1 n=g3 v=40
28080 On ch=1 n=d3 v=40
28080 On ch=1 n=g2 v=40
29040 On ch=1 n=g2 v=0
29040 On ch=1 n=d3 v=0
29040 On ch=1 n=g3 v=0
29520 On ch=1 n=f3 v=30
29520 On ch=1 n=g2 v=30
29520 On ch=1 n=c3 v=30
30960 On ch=1 n=c3 v=0
30960 On ch=1 n=g2 v=0
30960 On ch=1 n=f3 v=0
31440 On ch=1 n=a#4 v=60
31440 On ch=1 n=f4 v=60
31440 On ch=1 n=a#3 v=60
31920 On ch=1 n=a#3 v=0
31920 On ch=1 n=f4 v=0
31920 On ch=1 n=a#4 v=0
31920 On ch=1 n=c#5 v=60
31920 On ch=1 n=g#4 v=60
31920 On ch=1 n=c#4 v=60
32400 On ch=1 n=c#4 v=0
32400 On ch=1 n=g#4 v=0
32400 On ch=1 n=c#5 v=0
32400 On ch=1 n=g#4 v=60
32400 On ch=1 n=g#3 v=60
32400 On ch=1 n=d#4 v=60
32640 On ch=1 n=d#4 v=0
32640 On ch=1 n=g#3 v=0
32640 On ch=1 n=g#4 v=0
32880 On ch=1 n=b3 v=60
32880 On ch=1 n=f#4 v=60
32880 On ch=1 n=b4 v=60
33600 On ch=1 n=b4 v=0
33600 On ch=1 n=f#4 v=0
33600 On ch=1 n=b3 v=0
33840 On ch=1 n=d#5 v=60
33840 On ch=1 n=d#4 v=60
33840 On ch=1 n=a#4 v=60
34080 On ch=1 n=a#4 v=0
34080 On ch=1 n=d#4 v=0
34080 On ch=1 n=d#5 v=0
34320 On ch=1 n=a#4 v=60
34320 On ch=1 n=a#3 v=60
34320 On ch=1 n=f4 v=60
34800 On ch=1 n=f4 v=0
34800 On ch=1 n=a#3 v=0
34800 On ch=1 n=a#4 v=0
34800 On ch=1 n=c#5 v=60
34800 On ch=1 n=c#4 v=60
34800 On ch=1 n=g#4 v=60
35280 On ch=1 n=g#4 v=0
35280 On ch=1 n=c#4 v=0
35280 On ch=1 n=c#5 v=0
35280 On ch=1 n=f4 v=60
35280 On ch=1 n=c5 v=60
35280 On ch=1 n=f5 v=60
35520 On ch=1 n=f5 v=0
35520 On ch=1 n=c5 v=0
35520 On ch=1 n=f4 v=0
36960 On ch=1 n=a#1 v=60
36960 On ch=1 n=a#2 v=60
37440 On ch=1 n=a#2 v=0
37440 On ch=1 n=a#1 v=0
38160 On ch=1 n=f2 v=60
38160 On ch=1 n=f3 v=60
38400 On ch=1 n=f3 v=0
38400 On ch=1 n=f2 v=0
38400 On ch=1 n=a#2 v=60
38400 On ch=1 n=a#3 v=60
38880 On ch=1 n=a#3 v=0
38880 On ch=1 n=a#2 v=0
39600 On ch=1 n=f2 v=60
39600 On ch=1 n=f3 v=60
39840 On ch=1 n=f3 v=0
39840 On ch=1 n=f2 v=0
39840 On ch=1 n=a#2 v=40
39840 On ch=1 n=a#3 v=40
40800 On ch=1 n=a#3 v=0
40800 On ch=1 n=a#2 v=0
40800 On ch=1 n=f2 v=40
40800 On ch=1 n=f3 v=40
41280 On ch=1 n=f3 v=0
41280 On ch=1 n=f2 v=0
41280 On ch=1 n=a#2 v=40
41280 On ch=1 n=a#3 v=40
42240 On ch=1 n=a#3 v=0
42240 On ch=1 n=a#2 v=0
42240 On ch=1 n=f2 v=40
42240 On ch=1 n=f3 v=40
42720 On ch=1 n=f3 v=0
42720 On ch=1 n=f2 v=0
42720 On ch=1 n=d5 v=120
42720 On ch=1 n=a#4 v=120
42720 On ch=1 n=f4 v=120
42720 On ch=1 n=d4 v=120
44160 On ch=1 n=d4 v=0
44160 On ch=1 n=f4 v=0
44160 On ch=1 n=a#4 v=0
44160 On ch=1 n=d5 v=0
44160 On ch=1 n=d5 v=40
44160 On ch=1 n=a#4 v=40
44160 On ch=1 n=f4 v=40
44160 On ch=1 n=d4 v=40
45600 On ch=1 n=a#1 v=40
46080 On ch=1 n=a#1 v=0
47040 On ch=1 n=d4 v=0
47040 On ch=1 n=f4 v=0
47040 On ch=1 n=a#4 v=0
47040 On ch=1 n=d5 v=0
47040 Meta TrkEnd
TrkEnd
MTrk
0 SeqSpec 43 00 01 00
0 Meta TrkName "Upper Left"
0 Meta 0x21 00
7920 On ch=1 n=d5 v=60
7920 On ch=1 n=a#4 v=60
7920 On ch=1 n=f4 v=60
8400 On ch=1 n=f4 v=0
8400 On ch=1 n=a#4 v=0
8400 On ch=1 n=d5 v=0
8400 On ch=1 n=d#5 v=60
8400 On ch=1 n=b4 v=60
8400 On ch=1 n=g4 v=60
8880 On ch=1 n=g4 v=0
8880 On ch=1 n=b4 v=0
8880 On ch=1 n=d#5 v=0
8880 On ch=1 n=f5 v=60
8880 On ch=1 n=c#5 v=60
8880 On ch=1 n=a4 v=60
9120 On ch=1 n=a4 v=0
9120 On ch=1 n=c#5 v=0
9120 On ch=1 n=f5 v=0
9360 On ch=1 n=d5 v=60
9360 On ch=1 n=a#4 v=60
9360 On ch=1 n=f4 v=60
9840 On ch=1 n=f4 v=0
9840 On ch=1 n=a#4 v=0
9840 On ch=1 n=d5 v=0
9840 On ch=1 n=d#5 v=60
9840 On ch=1 n=g4 v=60
9840 On ch=1 n=b4 v=60
10320 On ch=1 n=b4 v=0
10320 On ch=1 n=g4 v=0
10320 On ch=1 n=d#5 v=0
10320 On ch=1 n=c#5 v=60
10320 On ch=1 n=a4 v=60
10320 On ch=1 n=f5 v=60
10560 On ch=1 n=f5 v=0
10560 On ch=1 n=a4 v=0
10560 On ch=1 n=c#5 v=0
12000 On ch=1 n=c#4 v=60
12000 On ch=1 n=c#3 v=60
12480 On ch=1 n=c#3 v=0
12480 On ch=1 n=c#4 v=0
12480 On ch=1 n=d3 v=60
12480 On ch=1 n=d4 v=60
13440 On ch=1 n=d4 v=0
13440 On ch=1 n=d3 v=0
13920 On ch=1 n=c4 v=70
13920 On ch=1 n=g4 v=70
13920 On ch=1 n=c5 v=70
14160 On ch=1 n=c5 v=0
14160 On ch=1 n=g4 v=0
14160 On ch=1 n=c4 v=0
14160 On ch=1 n=a4 v=70
14160 On ch=1 n=d4 v=70
14400 On ch=1 n=d4 v=0
14400 On ch=1 n=a4 v=0
14400 On ch=1 n=a#3 v=70
14400 On ch=1 n=f4 v=70
14400 On ch=1 n=a#4 v=70
14640 On ch=1 n=a#4 v=0
14640 On ch=1 n=f4 v=0
14640 On ch=1 n=a#3 v=0
14640 On ch=1 n=c4 v=70
14640 On ch=1 n=g4 v=70
14880 On ch=1 n=g4 v=0
14880 On ch=1 n=c4 v=0
14880 On ch=1 n=a4 v=70
14880 On ch=1 n=c4 v=70
14880 On ch=1 n=f3 v=70
15840 On ch=1 n=f3 v=0
15840 On ch=1 n=c4 v=0
15840 On ch=1 n=a4 v=0
16080 On ch=1 n=d#4 v=40
16080 On ch=1 n=c4 v=40
16080 On ch=1 n=g4 v=40
16560 On ch=1 n=g4 v=0
16560 On ch=1 n=c4 v=0
16560 On ch=1 n=d#4 v=0
16560 On ch=1 n=d4 v=40
16560 On ch=1 n=f4 v=40
16560 On ch=1 n=a4 v=40
17040 On ch=1 n=a4 v=0
17040 On ch=1 n=f4 v=0
17040 On ch=1 n=d4 v=0
17040 On ch=1 n=a#4 v=40
17040 On ch=1 n=d#4 v=40
17040 On ch=1 n=g4 v=40
17520 On ch=1 n=g4 v=0
17520 On ch=1 n=d#4 v=0
17520 On ch=1 n=a#4 v=0
17520 On ch=1 n=c5 v=40
17520 On ch=1 n=a4 v=40
17520 On ch=1 n=f4 v=40
17760 On ch=1 n=f4 v=0
17760 On ch=1 n=a4 v=0
17760 On ch=1 n=c5 v=0
17760 On ch=1 n=d5 v=40
17760 On ch=1 n=a#4 v=40
17760 On ch=1 n=g4 v=40
18000 On ch=1 n=g4 v=0
18000 On ch=1 n=a#4 v=0
18000 On ch=1 n=d5 v=0
18000 On ch=1 n=e5 v=40
18000 On ch=1 n=c5 v=40
18000 On ch=1 n=a4 v=40
18240 On ch=1 n=a4 v=0
18240 On ch=1 n=c5 v=0
18240 On ch=1 n=e5 v=0
18240 On ch=1 n=f5 v=40
18240 On ch=1 n=a#4 v=40
18240 On ch=1 n=d5 v=40
18480 On ch=1 n=d5 v=0
18480 On ch=1 n=a#4 v=0
18480 On ch=1 n=f5 v=0
18480 On ch=1 n=d#5 v=40
18480 On ch=1 n=c5 v=40
18480 On ch=1 n=g5 v=40
18720 On ch=1 n=g5 v=0
18720 On ch=1 n=c5 v=0
18720 On ch=1 n=d#5 v=0
18960 On ch=1 n=c4 v=40
18960 On ch=1 n=d#4 v=40
18960 On ch=1 n=g#3 v=40
19440 On ch=1 n=g#3 v=0
19440 On ch=1 n=d#4 v=0
19440 On ch=1 n=c4 v=0
19440 On ch=1 n=a#3 v=40
19440 On ch=1 n=f4 v=40
19440 On ch=1 n=d4 v=40
19920 On ch=1 n=d4 v=0
19920 On ch=1 n=f4 v=0
19920 On ch=1 n=a#3 v=0
19920 On ch=1 n=d#4 v=40
19920 On ch=1 n=c4 v=40
19920 On ch=1 n=g4 v=40
20400 On ch=1 n=g4 v=0
20400 On ch=1 n=c4 v=0
20400 On ch=1 n=d#4 v=0
20400 On ch=1 n=g#4 v=40
20400 On ch=1 n=f4 v=40
20400 On ch=1 n=c#4 v=40
20640 On ch=1 n=c#4 v=0
20640 On ch=1 n=f4 v=0
20640 On ch=1 n=g#4 v=0
20640 On ch=1 n=d#5 v=40
20640 On ch=1 n=a#4 v=40
20640 On ch=1 n=g4 v=40
20640 On ch=1 n=d#4 v=40
20880 On ch=1 n=d#4 v=0
20880 On ch=1 n=g4 v=0
20880 On ch=1 n=a#4 v=0
20880 On ch=1 n=d#5 v=0
20880 On ch=1 n=f5 v=50
20880 On ch=1 n=g#4 v=50
20880 On ch=1 n=c5 v=50
20880 On ch=1 n=f4 v=50
21120 On ch=1 n=f4 v=0
21120 On ch=1 n=c5 v=0
21120 On ch=1 n=g#4 v=0
21120 On ch=1 n=f5 v=0
21120 On ch=1 n=b4 v=60
21120 On ch=1 n=g4 v=60
21120 On ch=1 n=d5 v=60
21360 On ch=1 n=d5 v=0
21360 On ch=1 n=g4 v=0
21360 On ch=1 n=b4 v=0
21360 On ch=1 n=f5 v=70
21360 On ch=1 n=c#5 v=70
21360 On ch=1 n=a#4 v=70
21600 On ch=1 n=a#4 v=0
21600 On ch=1 n=c#5 v=0
21600 On ch=1 n=f5 v=0
21600 On ch=1 n=g3 v=80
22080 On ch=1 n=g3 v=0
22080 On ch=1 n=e3 v=80
22440 On ch=1 n=e3 v=0
22440 On ch=1 n=f3 v=80
22560 On ch=1 n=f3 v=0
22560 On ch=1 n=f#3 v=80
22920 On ch=1 n=f#3 v=0
22920 On ch=1 n=b3 v=80
23040 On ch=1 n=b3 v=0
23040 On ch=1 n=g3 v=100
23400 On ch=1 n=g3 v=0
23400 On ch=1 n=c4 v=100
23520 On ch=1 n=c4 v=0
23520 On ch=1 n=c4 v=100
23520 On ch=1 n=d4 v=100
24240 On ch=1 n=d4 v=0
24240 On ch=1 n=c4 v=0
24240 On ch=1 n=e4 v=100
24480 On ch=1 n=e4 v=0
24480 On ch=1 n=g3 v=100
24840 On ch=1 n=g3 v=0
24840 On ch=1 n=c4 v=100
24960 On ch=1 n=c4 v=0
24960 On ch=1 n=d4 v=100
24960 On ch=1 n=c4 v=100
25320 On ch=1 n=c4 v=0
25320 On ch=1 n=d4 v=0
25320 On ch=1 n=e4 v=100
25440 On ch=1 n=e4 v=0
25440 On ch=1 n=g3 v=100
25440 On ch=1 n=a3 v=100
25920 On ch=1 n=a3 v=0
25920 On ch=1 n=g3 v=0
25920 On ch=1 n=c4 v=100
26880 On ch=1 n=c4 v=0
27120 On ch=1 n=d4 v=40
27600 On ch=1 n=d4 v=0
27600 On ch=1 n=f4 v=40
27840 On ch=1 n=f4 v=0
27840 On ch=1 n=c4 v=40
28560 On ch=1 n=c4 v=0
28560 On ch=1 n=d4 v=40
29040 On ch=1 n=d4 v=0
29040 On ch=1 n=f4 v=40
29280 On ch=1 n=f4 v=0
29280 On ch=1 n=c4 v=40
31200 On ch=1 n=c4 v=0
31200 On ch=1 n=d4 v=60
31680 On ch=1 n=d4 v=0
31680 On ch=1 n=f4 v=60
32160 On ch=1 n=f4 v=0
32160 On ch=1 n=c4 v=60
32640 On ch=1 n=c4 v=0
32640 On ch=1 n=d#4 v=60
33600 On ch=1 n=d#4 v=0
33600 On ch=1 n=g4 v=60
34080 On ch=1 n=g4 v=0
34080 On ch=1 n=d4 v=60
34560 On ch=1 n=d4 v=0
34560 On ch=1 n=f4 v=60
35040 On ch=1 n=f4 v=0
35040 On ch=1 n=a4 v=60
35520 On ch=1 n=a4 v=0
35520 On ch=1 n=c#5 v=60
36000 On ch=1 n=c#5 v=0
36000 On ch=1 n=d#5 v=60
36480 On ch=1 n=d#5 v=0
36480 On ch=1 n=g#5 v=60
36960 On ch=1 n=g#5 v=0
37200 On ch=1 n=d5 v=60
37200 On ch=1 n=f4 v=60
37200 On ch=1 n=a#4 v=60
37440 On ch=1 n=a#4 v=0
37440 On ch=1 n=f4 v=0
37440 On ch=1 n=d5 v=0
37440 On ch=1 n=d#5 v=60
37440 On ch=1 n=b4 v=60
37440 On ch=1 n=g4 v=60
37800 On ch=1 n=g4 v=0
37800 On ch=1 n=b4 v=0
37800 On ch=1 n=d#5 v=0
37800 On ch=1 n=e5 v=60
37800 On ch=1 n=c5 v=60
37800 On ch=1 n=g#4 v=60
37920 On ch=1 n=g#4 v=0
37920 On ch=1 n=c5 v=0
37920 On ch=1 n=e5 v=0
37920 On ch=1 n=f5 v=60
37920 On ch=1 n=c#5 v=60
37920 On ch=1 n=a4 v=60
38400 On ch=1 n=a4 v=0
38400 On ch=1 n=c#5 v=0
38400 On ch=1 n=f5 v=0
38640 On ch=1 n=d5 v=60
38640 On ch=1 n=a#4 v=60
38640 On ch=1 n=f4 v=60
38880 On ch=1 n=f4 v=0
38880 On ch=1 n=a#4 v=0
38880 On ch=1 n=d5 v=0
38880 On ch=1 n=d#5 v=60
38880 On ch=1 n=b4 v=60
38880 On ch=1 n=g4 v=60
39240 On ch=1 n=g4 v=0
39240 On ch=1 n=b4 v=0
39240 On ch=1 n=d#5 v=0
39240 On ch=1 n=g#4 v=60
39240 On ch=1 n=e5 v=60
39240 On ch=1 n=c5 v=60
39360 On ch=1 n=c5 v=0
39360 On ch=1 n=e5 v=0
39360 On ch=1 n=g#4 v=0
39360 On ch=1 n=f5 v=60
39360 On ch=1 n=c#5 v=60
39360 On ch=1 n=a4 v=60
39840 On ch=1 n=a4 v=0
39840 On ch=1 n=c#5 v=0
39840 On ch=1 n=f5 v=0
40080 On ch=1 n=f5 v=40
40080 On ch=1 n=c#5 v=40
40080 On ch=1 n=g4 v=40
41520 On ch=1 n=g4 v=0
41520 On ch=1 n=c#5 v=0
41520 On ch=1 n=f5 v=0
41520 On ch=1 n=f5 v=40
41520 On ch=1 n=c#5 v=40
41520 On ch=1 n=g4 v=40
42720 On ch=1 n=a#2 v=120
42720 On ch=1 n=f3 v=120
42720 On ch=1 n=a#3 v=120
42960 On ch=1 n=g4 v=0
42960 On ch=1 n=c#5 v=0
42960 On ch=1 n=f5 v=0
44160 On ch=1 n=a#3 v=0
44160 On ch=1 n=f3 v=0
44160 On ch=1 n=a#2 v=0
44160 On ch=1 n=a#2 v=40
44160 On ch=1 n=f3 v=40
44160 On ch=1 n=a#3 v=40
47040 On ch=1 n=a#3 v=0
47040 On ch=1 n=f3 v=0
47040 On ch=1 n=a#2 v=0
47040 Meta TrkEnd
TrkEnd
MTrk
0 SeqSpec 43 00 01 00
0 Meta TrkName "Debussy, Claude"
0 Meta 0x21 00
0 Meta TrkEnd
TrkEnd
MTrk
0 SeqSpec 43 00 01 00
0 Meta TrkName "Prelude Book 1 No. 01 Danseuses de Delphes"
0 Meta 0x21 00
0 Meta TrkEnd
TrkEnd
MTrk
0 SeqSpec 43 00 01 00
0 Meta TrkName "Jeruen E. Dery jawjaw@hotmail.com"
0 Meta 0x21 00
0 Meta TrkEnd
TrkEnd
