MFile 1 9 480
MTrk
0 TimeSig 2/2 48 8
0 KeySig 0 major
0 Tempo 681818
49440 Tempo 672957
51840 Tempo 681818
59520 Tempo 672957
61440 Tempo 789474
74880 Tempo 750000
75840 Tempo 681818
76800 Tempo 750000
78720 KeySig -5 major
78720 Tempo 681818
83520 Tempo 789474
84480 Tempo 672957
86400 Tempo 952381
90240 KeySig 0 major
90240 Tempo 681818
109440 Tempo 714286
117120 TimeSig 4/2 48 8
120000 Tempo 1333333
120900 Tempo 681818
120960 TimeSig 3/2 48 8
123840 TimeSig 2/2 48 8
123840 Meta TrkEnd
TrkEnd
MTrk
0 SeqSpec 43 00 01 00
0 Meta TrkName "Right Treble"
0 Meta 0x21 00
960 On ch=1 n=g#6 v=60
960 On ch=1 n=e6 v=60
1560 On ch=1 n=e6 v=0
1560 On ch=1 n=g#6 v=0
1560 On ch=1 n=d6 v=60
1560 On ch=1 n=f#6 v=60
1680 On ch=1 n=f#6 v=0
1680 On ch=1 n=d6 v=0
1680 On ch=1 n=c6 v=60
1680 On ch=1 n=e6 v=60
1800 On ch=1 n=e6 v=0
1800 On ch=1 n=c6 v=0
1800 On ch=1 n=a#5 v=60
1800 On ch=1 n=d6 v=60
1920 On ch=1 n=d6 v=0
1920 On ch=1 n=a#5 v=0
1920 On ch=1 n=g#5 v=60
1920 On ch=1 n=c6 v=60
2760 On ch=1 n=c6 v=0
2760 On ch=1 n=g#5 v=0
2760 On ch=1 n=c7 v=60
2760 On ch=1 n=g#6 v=60
2880 On ch=1 n=g#6 v=0
2880 On ch=1 n=c7 v=0
2880 On ch=1 n=f#6 v=60
2880 On ch=1 n=a#6 v=60
3840 On ch=1 n=a#6 v=0
3840 On ch=1 n=f#6 v=0
4800 On ch=1 n=g#6 v=60
4800 On ch=1 n=e6 v=60
5400 On ch=1 n=e6 v=0
5400 On ch=1 n=g#6 v=0
5400 On ch=1 n=d6 v=60
5400 On ch=1 n=f#6 v=60
5520 On ch=1 n=f#6 v=0
5520 On ch=1 n=d6 v=0
5520 On ch=1 n=c6 v=60
5520 On ch=1 n=e6 v=60
5640 On ch=1 n=e6 v=0
5640 On ch=1 n=c6 v=0
5640 On ch=1 n=a#5 v=60
5640 On ch=1 n=d6 v=60
5760 On ch=1 n=d6 v=0
5760 On ch=1 n=a#5 v=0
5760 On ch=1 n=g#5 v=50
5760 On ch=1 n=c6 v=50
6960 On ch=1 n=c6 v=0
6960 On ch=1 n=g#5 v=0
6960 On ch=1 n=f#5 v=50
6960 On ch=1 n=a#5 v=50
7200 On ch=1 n=a#5 v=0
7200 On ch=1 n=f#5 v=0
7200 On ch=1 n=e5 v=50
7200 On ch=1 n=g#5 v=50
7440 On ch=1 n=g#5 v=0
7440 On ch=1 n=e5 v=0
7440 On ch=1 n=d5 v=50
7440 On ch=1 n=f#5 v=50
7680 On ch=1 n=f#5 v=0
7680 On ch=1 n=d5 v=0
7680 On ch=1 n=c5 v=40
7680 On ch=1 n=e5 v=40
10560 On ch=1 n=e5 v=0
10560 On ch=1 n=c5 v=0
18240 On ch=1 n=g#6 v=60
18240 On ch=1 n=e6 v=60
18840 On ch=1 n=e6 v=0
18840 On ch=1 n=g#6 v=0
18840 On ch=1 n=d6 v=60
18840 On ch=1 n=f#6 v=60
18960 On ch=1 n=f#6 v=0
18960 On ch=1 n=d6 v=0
18960 On ch=1 n=c6 v=60
18960 On ch=1 n=e6 v=60
19080 On ch=1 n=e6 v=0
19080 On ch=1 n=c6 v=0
19080 On ch=1 n=a#5 v=60
19080 On ch=1 n=d6 v=60
19200 On ch=1 n=d6 v=0
19200 On ch=1 n=a#5 v=0
19200 On ch=1 n=g#5 v=60
19200 On ch=1 n=c6 v=60
20160 On ch=1 n=c6 v=0
20160 On ch=1 n=g#5 v=0
21120 On ch=1 n=g#6 v=60
21120 On ch=1 n=e6 v=60
21720 On ch=1 n=e6 v=0
21720 On ch=1 n=g#6 v=0
21720 On ch=1 n=d6 v=60
21720 On ch=1 n=f#6 v=60
21840 On ch=1 n=f#6 v=0
21840 On ch=1 n=d6 v=0
21840 On ch=1 n=c6 v=60
21840 On ch=1 n=e6 v=60
21960 On ch=1 n=e6 v=0
21960 On ch=1 n=c6 v=0
21960 On ch=1 n=a#5 v=60
21960 On ch=1 n=d6 v=60
22080 On ch=1 n=d6 v=0
22080 On ch=1 n=a#5 v=0
22080 On ch=1 n=g#5 v=60
22080 On ch=1 n=c6 v=60
23280 On ch=1 n=c6 v=0
23280 On ch=1 n=g#5 v=0
23280 On ch=1 n=f#5 v=50
23280 On ch=1 n=a#5 v=50
23520 On ch=1 n=a#5 v=0
23520 On ch=1 n=f#5 v=0
23520 On ch=1 n=e5 v=50
23520 On ch=1 n=g#5 v=50
23760 On ch=1 n=g#5 v=0
23760 On ch=1 n=e5 v=0
23760 On ch=1 n=d5 v=50
23760 On ch=1 n=f#5 v=50
24000 On ch=1 n=f#5 v=0
24000 On ch=1 n=d5 v=0
24000 On ch=1 n=c5 v=50
24000 On ch=1 n=e5 v=50
25920 On ch=1 n=e5 v=0
25920 On ch=1 n=c5 v=0
26880 On ch=1 n=g#6 v=40
26880 On ch=1 n=e6 v=40
27480 On ch=1 n=e6 v=0
27480 On ch=1 n=g#6 v=0
27480 On ch=1 n=d6 v=40
27480 On ch=1 n=f#6 v=40
27600 On ch=1 n=f#6 v=0
27600 On ch=1 n=d6 v=0
27600 On ch=1 n=c6 v=40
27600 On ch=1 n=e6 v=40
27720 On ch=1 n=e6 v=0
27720 On ch=1 n=c6 v=0
27720 On ch=1 n=a#5 v=40
27720 On ch=1 n=d6 v=40
27840 On ch=1 n=d6 v=0
27840 On ch=1 n=a#5 v=0
27840 On ch=1 n=g#5 v=40
27840 On ch=1 n=c6 v=40
29640 On ch=1 n=c6 v=0
29640 On ch=1 n=g#5 v=0
29640 On ch=1 n=c7 v=40
29640 On ch=1 n=g#6 v=40
29760 On ch=1 n=g#6 v=0
29760 On ch=1 n=c7 v=0
29760 On ch=1 n=f#6 v=40
29760 On ch=1 n=a#6 v=40
30720 On ch=1 n=a#6 v=0
30720 On ch=1 n=f#6 v=0
30720 On ch=1 n=g#6 v=40
30720 On ch=1 n=e6 v=40
31320 On ch=1 n=e6 v=0
31320 On ch=1 n=g#6 v=0
31320 On ch=1 n=d6 v=40
31320 On ch=1 n=f#6 v=40
31440 On ch=1 n=f#6 v=0
31440 On ch=1 n=d6 v=0
31440 On ch=1 n=c6 v=40
31440 On ch=1 n=e6 v=40
31560 On ch=1 n=e6 v=0
31560 On ch=1 n=c6 v=0
31560 On ch=1 n=a#5 v=40
31560 On ch=1 n=d6 v=40
31680 On ch=1 n=d6 v=0
31680 On ch=1 n=a#5 v=0
31680 On ch=1 n=g#5 v=40
31680 On ch=1 n=c6 v=40
33480 On ch=1 n=c6 v=0
33480 On ch=1 n=g#5 v=0
33480 On ch=1 n=a#5 v=50
33480 On ch=1 n=d6 v=50
33600 On ch=1 n=d6 v=0
33600 On ch=1 n=a#5 v=0
33600 On ch=1 n=a#5 v=50
33600 On ch=1 n=d6 v=50
34440 On ch=1 n=d6 v=0
34440 On ch=1 n=a#5 v=0
34440 On ch=1 n=e6 v=50
34440 On ch=1 n=c6 v=50
34560 On ch=1 n=c6 v=0
34560 On ch=1 n=e6 v=0
34560 On ch=1 n=c6 v=60
34560 On ch=1 n=e6 v=60
35400 On ch=1 n=e6 v=0
35400 On ch=1 n=c6 v=0
35400 On ch=1 n=d6 v=60
35400 On ch=1 n=f#6 v=60
35520 On ch=1 n=f#6 v=0
35520 On ch=1 n=d6 v=0
35520 On ch=1 n=d6 v=60
35520 On ch=1 n=f#6 v=60
36960 On ch=1 n=f#6 v=0
36960 On ch=1 n=d6 v=0
36960 On ch=1 n=c6 v=50
36960 On ch=1 n=e6 v=50
37440 On ch=1 n=e6 v=0
37440 On ch=1 n=c6 v=0
37440 On ch=1 n=d6 v=50
37440 On ch=1 n=f#6 v=50
38160 On ch=1 n=f#6 v=0
38160 On ch=1 n=d6 v=0
38160 On ch=1 n=g#6 v=50
38160 On ch=1 n=e6 v=50
38400 On ch=1 n=e6 v=0
38400 On ch=1 n=g#6 v=0
38400 On ch=1 n=g#6 v=40
38400 On ch=1 n=e6 v=40
39360 On ch=1 n=d5 v=40
39360 On ch=1 n=d7 v=40
39360 On ch=1 n=d6 v=40
39840 On ch=1 n=d6 v=0
39840 On ch=1 n=d7 v=0
39840 On ch=1 n=d5 v=0
40320 On ch=1 n=e6 v=0
40320 On ch=1 n=g#6 v=0
40320 On ch=1 n=d8 v=40
40320 On ch=1 n=d7 v=40
40320 On ch=1 n=d6 v=40
40800 On ch=1 n=d6 v=0
40800 On ch=1 n=d7 v=0
40800 On ch=1 n=d8 v=0
41280 On ch=1 n=d5 v=40
41760 On ch=1 n=g#5 v=40
41880 On ch=1 n=g#5 v=0
41880 On ch=1 n=a#5 v=40
42000 On ch=1 n=a#5 v=0
42000 On ch=1 n=g#5 v=40
42120 On ch=1 n=g#5 v=0
42120 On ch=1 n=f#5 v=40
42240 On ch=1 n=f#5 v=0
42240 On ch=1 n=g#5 v=50
42480 On ch=1 n=g#5 v=0
42480 On ch=1 n=e5 v=50
42480 On ch=1 n=c6 v=50
42720 On ch=1 n=c6 v=0
42720 On ch=1 n=e5 v=0
42720 On ch=1 n=a#5 v=50
42720 On ch=1 n=f#5 v=50
42960 On ch=1 n=d5 v=0
43440 On ch=1 n=f#5 v=0
43440 On ch=1 n=a#5 v=0
43680 On ch=1 n=g#5 v=40
43800 On ch=1 n=g#5 v=0
43800 On ch=1 n=a#5 v=40
43920 On ch=1 n=a#5 v=0
43920 On ch=1 n=g#5 v=40
44040 On ch=1 n=g#5 v=0
44040 On ch=1 n=f#5 v=40
44160 On ch=1 n=f#5 v=0
44160 On ch=1 n=g#5 v=50
44160 On ch=1 n=d5 v=50
44400 On ch=1 n=g#5 v=0
44400 On ch=1 n=e5 v=50
44400 On ch=1 n=c6 v=50
44640 On ch=1 n=c6 v=0
44640 On ch=1 n=e5 v=0
44640 On ch=1 n=f#5 v=50
44640 On ch=1 n=a#5 v=50
44880 On ch=1 n=d5 v=0
45360 On ch=1 n=a#5 v=0
45360 On ch=1 n=f#5 v=0
45600 On ch=1 n=g#5 v=50
45720 On ch=1 n=g#5 v=0
45720 On ch=1 n=c6 v=50
45840 On ch=1 n=c6 v=0
45840 On ch=1 n=e6 v=50
45960 On ch=1 n=e6 v=0
45960 On ch=1 n=g#6 v=50
46080 On ch=1 n=g#6 v=0
46080 On ch=1 n=d6 v=50
46080 On ch=1 n=f#6 v=50
46200 On ch=1 n=f#6 v=0
46200 On ch=1 n=d6 v=0
46200 On ch=1 n=c6 v=50
46200 On ch=1 n=e6 v=50
46320 On ch=1 n=e6 v=0
46320 On ch=1 n=c6 v=0
46320 On ch=1 n=a#5 v=50
46320 On ch=1 n=d6 v=50
47520 On ch=1 n=d6 v=0
47520 On ch=1 n=a#5 v=0
47520 On ch=1 n=c6 v=50
47520 On ch=1 n=g#5 v=50
47680 On ch=1 n=g#5 v=0
47680 On ch=1 n=c6 v=0
47680 On ch=1 n=d6 v=50
47680 On ch=1 n=a#5 v=50
47840 On ch=1 n=a#5 v=0
47840 On ch=1 n=d6 v=0
47840 On ch=1 n=c6 v=50
47840 On ch=1 n=g#5 v=50
47940 On ch=1 n=a#5 v=50
47940 On ch=1 n=f#5 v=50
48000 On ch=1 n=f#5 v=0
48000 On ch=1 n=a#5 v=0
48000 On ch=1 n=g#5 v=0
48000 On ch=1 n=c6 v=0
48000 On ch=1 n=g#5 v=50
48000 On ch=1 n=e5 v=50
48000 On ch=1 n=d5 v=50
48720 On ch=1 n=d5 v=0
49440 On ch=1 n=e5 v=0
49440 On ch=1 n=g#5 v=0
49440 On ch=1 n=a#5 v=50
49440 On ch=1 n=f#5 v=50
49600 On ch=1 n=f#5 v=0
49600 On ch=1 n=a#5 v=0
49600 On ch=1 n=a#5 v=50
49600 On ch=1 n=f#5 v=50
49760 On ch=1 n=f#5 v=0
49760 On ch=1 n=a#5 v=0
49760 On ch=1 n=g#5 v=50
49760 On ch=1 n=e5 v=50
49860 On ch=1 n=f#5 v=50
49860 On ch=1 n=a#5 v=50
49920 On ch=1 n=a#5 v=0
49920 On ch=1 n=f#5 v=0
49920 On ch=1 n=e5 v=0
49920 On ch=1 n=g#5 v=0
49920 On ch=1 n=e5 v=40
49920 On ch=1 n=g#5 v=40
49920 On ch=1 n=d5 v=40
50640 On ch=1 n=d5 v=0
52800 On ch=1 n=g#5 v=0
52800 On ch=1 n=e5 v=0
53280 On ch=1 n=g#5 v=60
53400 On ch=1 n=g#5 v=0
53400 On ch=1 n=a#5 v=60
53520 On ch=1 n=a#5 v=0
53520 On ch=1 n=g#5 v=60
53520 On ch=1 n=c5 v=60
53640 On ch=1 n=g#5 v=0
53640 On ch=1 n=f#5 v=60
53760 On ch=1 n=f#5 v=0
53760 On ch=1 n=c5 v=0
53760 On ch=1 n=d5 v=60
53760 On ch=1 n=g#5 v=60
54000 On ch=1 n=g#5 v=0
54000 On ch=1 n=d5 v=0
54000 On ch=1 n=e5 v=60
54000 On ch=1 n=c6 v=60
54240 On ch=1 n=c6 v=0
54240 On ch=1 n=e5 v=0
54240 On ch=1 n=a#5 v=60
54360 On ch=1 n=d6 v=60
54480 On ch=1 n=d6 v=0
54480 On ch=1 n=c6 v=60
54600 On ch=1 n=c6 v=0
54600 On ch=1 n=e6 v=60
54720 On ch=1 n=e6 v=0
54720 On ch=1 n=a#5 v=0
54720 On ch=1 n=g#6 v=60
55200 On ch=1 n=g#6 v=0
55200 On ch=1 n=g#5 v=60
55320 On ch=1 n=g#5 v=0
55320 On ch=1 n=a#5 v=60
55440 On ch=1 n=a#5 v=0
55440 On ch=1 n=g#5 v=60
55560 On ch=1 n=g#5 v=0
55560 On ch=1 n=f#5 v=60
55680 On ch=1 n=f#5 v=0
55680 On ch=1 n=d5 v=70
55680 On ch=1 n=g#5 v=70
55800 On ch=1 n=g#5 v=0
55800 On ch=1 n=d5 v=0
55920 On ch=1 n=e5 v=70
55920 On ch=1 n=c6 v=70
56040 On ch=1 n=c6 v=0
56040 On ch=1 n=e5 v=0
56160 On ch=1 n=a#5 v=70
56280 On ch=1 n=d6 v=70
56400 On ch=1 n=d6 v=0
56400 On ch=1 n=c6 v=70
56520 On ch=1 n=c6 v=0
56520 On ch=1 n=e6 v=70
56640 On ch=1 n=e6 v=0
56640 On ch=1 n=a#5 v=0
56640 On ch=1 n=g#6 v=70
57240 On ch=1 n=g#6 v=0
57240 On ch=1 n=a#6 v=70
57360 On ch=1 n=a#6 v=0
57360 On ch=1 n=g#6 v=70
57480 On ch=1 n=g#6 v=0
57480 On ch=1 n=a#6 v=70
57600 On ch=1 n=a#6 v=0
57600 On ch=1 n=f#6 v=70
57600 On ch=1 n=c7 v=70
57720 On ch=1 n=f#6 v=0
57720 On ch=1 n=g6 v=70
57840 On ch=1 n=g6 v=0
57840 On ch=1 n=g#6 v=70
58080 On ch=1 n=c7 v=0
58080 On ch=1 n=d7 v=70
58140 On ch=1 n=d7 v=0
58140 On ch=1 n=c#7 v=70
58200 On ch=1 n=c#7 v=0
58200 On ch=1 n=g#6 v=0
58200 On ch=1 n=c7 v=70
58560 On ch=1 n=c7 v=0
58560 On ch=1 n=c7 v=70
58560 On ch=1 n=f#6 v=70
58680 On ch=1 n=f#6 v=0
58680 On ch=1 n=g6 v=70
58800 On ch=1 n=g6 v=0
58800 On ch=1 n=g#6 v=70
59040 On ch=1 n=c7 v=0
59040 On ch=1 n=d7 v=70
59100 On ch=1 n=d7 v=0
59100 On ch=1 n=c#7 v=70
59160 On ch=1 n=c#7 v=0
59160 On ch=1 n=g#6 v=0
59160 On ch=1 n=c7 v=70
59520 On ch=1 n=c7 v=0
59520 On ch=1 n=c7 v=60
59520 On ch=1 n=g#6 v=60
60000 On ch=1 n=d7 v=60
60120 On ch=1 n=d7 v=0
60240 On ch=1 n=e6 v=60
60360 On ch=1 n=e6 v=0
60960 On ch=1 n=d7 v=60
61080 On ch=1 n=d7 v=0
61200 On ch=1 n=e6 v=60
61320 On ch=1 n=e6 v=0
61440 On ch=1 n=g#6 v=0
61440 On ch=1 n=c7 v=0
61440 On ch=1 n=d6 v=40
61560 On ch=1 n=d6 v=0
61680 On ch=1 n=e6 v=40
61800 On ch=1 n=e6 v=0
61920 On ch=1 n=g#6 v=40
61920 On ch=1 n=d7 v=40
62040 On ch=1 n=d7 v=0
62160 On ch=1 n=e6 v=40
62280 On ch=1 n=e6 v=0
62400 On ch=1 n=g#6 v=0
62400 On ch=1 n=a#6 v=40
62400 On ch=1 n=d6 v=40
62520 On ch=1 n=d6 v=0
62640 On ch=1 n=e6 v=40
62760 On ch=1 n=e6 v=0
62880 On ch=1 n=a#6 v=0
62880 On ch=1 n=c7 v=40
62880 On ch=1 n=d7 v=40
63000 On ch=1 n=d7 v=0
63120 On ch=1 n=e6 v=40
63240 On ch=1 n=e6 v=0
63360 On ch=1 n=d6 v=40
63480 On ch=1 n=d6 v=0
63600 On ch=1 n=e6 v=40
63720 On ch=1 n=e6 v=0
63840 On ch=1 n=d7 v=40
63960 On ch=1 n=d7 v=0
64080 On ch=1 n=e6 v=40
64200 On ch=1 n=e6 v=0
64320 On ch=1 n=c7 v=0
64320 On ch=1 n=d7 v=40
64320 On ch=1 n=d6 v=40
64440 On ch=1 n=d6 v=0
64560 On ch=1 n=e6 v=40
64680 On ch=1 n=e6 v=0
64800 On ch=1 n=d7 v=40
64920 On ch=1 n=d7 v=0
65040 On ch=1 n=e6 v=40
65160 On ch=1 n=e6 v=0
65280 On ch=1 n=d6 v=40
65400 On ch=1 n=d6 v=0
65520 On ch=1 n=e6 v=40
65640 On ch=1 n=e6 v=0
65760 On ch=1 n=d7 v=0
65760 On ch=1 n=e7 v=40
65760 On ch=1 n=d7 v=40
65880 On ch=1 n=d7 v=0
66000 On ch=1 n=e6 v=40
66120 On ch=1 n=e6 v=0
66240 On ch=1 n=e7 v=0
66240 On ch=1 n=d7 v=40
66240 On ch=1 n=d6 v=40
66360 On ch=1 n=d6 v=0
66480 On ch=1 n=e6 v=40
66600 On ch=1 n=e6 v=0
66720 On ch=1 n=d7 v=0
66720 On ch=1 n=c7 v=40
66720 On ch=1 n=d7 v=40
66840 On ch=1 n=d7 v=0
66960 On ch=1 n=e6 v=40
67080 On ch=1 n=e6 v=0
67200 On ch=1 n=c7 v=0
67200 On ch=1 n=a#6 v=40
67200 On ch=1 n=d6 v=40
67320 On ch=1 n=d6 v=0
67440 On ch=1 n=a#6 v=0
67440 On ch=1 n=g#6 v=40
67440 On ch=1 n=e6 v=40
67560 On ch=1 n=e6 v=0
67680 On ch=1 n=g#6 v=0
67680 On ch=1 n=a#6 v=40
67680 On ch=1 n=d7 v=40
67800 On ch=1 n=d7 v=0
67920 On ch=1 n=e6 v=40
68040 On ch=1 n=e6 v=0
68160 On ch=1 n=d6 v=30
68280 On ch=1 n=d6 v=0
68400 On ch=1 n=e6 v=30
68520 On ch=1 n=e6 v=0
68640 On ch=1 n=a#6 v=0
68640 On ch=1 n=g#6 v=30
68640 On ch=1 n=d7 v=30
68760 On ch=1 n=d7 v=0
68880 On ch=1 n=e6 v=30
69000 On ch=1 n=e6 v=0
69120 On ch=1 n=g#6 v=0
69120 On ch=1 n=g#6 v=40
69120 On ch=1 n=d6 v=40
69240 On ch=1 n=d6 v=0
69360 On ch=1 n=e6 v=40
69480 On ch=1 n=e6 v=0
69600 On ch=1 n=d7 v=40
69720 On ch=1 n=d7 v=0
69840 On ch=1 n=e6 v=40
69960 On ch=1 n=e6 v=0
70080 On ch=1 n=d6 v=40
70200 On ch=1 n=d6 v=0
70320 On ch=1 n=e6 v=40
70440 On ch=1 n=e6 v=0
70560 On ch=1 n=d7 v=40
70680 On ch=1 n=d7 v=0
70800 On ch=1 n=e6 v=40
70920 On ch=1 n=e6 v=0
71040 On ch=1 n=g#6 v=0
71040 On ch=1 n=g#4 v=60
71040 On ch=1 n=f#5 v=60
71040 On ch=1 n=d5 v=60
71280 On ch=1 n=d5 v=0
71280 On ch=1 n=f#5 v=0
71280 On ch=1 n=g#4 v=0
71280 On ch=1 n=a#4 v=60
71280 On ch=1 n=f#5 v=60
71280 On ch=1 n=a#5 v=60
71520 On ch=1 n=a#5 v=0
71520 On ch=1 n=f#5 v=0
71520 On ch=1 n=a#4 v=0
71520 On ch=1 n=g#5 v=60
71520 On ch=1 n=c5 v=60
71520 On ch=1 n=f#5 v=60
72240 On ch=1 n=c5 v=0
72240 On ch=1 n=g#5 v=0
72240 On ch=1 n=c6 v=60
72480 On ch=1 n=c6 v=0
72480 On ch=1 n=a#5 v=60
72720 On ch=1 n=a#5 v=0
72720 On ch=1 n=d6 v=60
72960 On ch=1 n=d6 v=0
72960 On ch=1 n=f#5 v=0
72960 On ch=1 n=g#4 v=60
72960 On ch=1 n=f#5 v=60
72960 On ch=1 n=d5 v=60
73200 On ch=1 n=d5 v=0
73200 On ch=1 n=f#5 v=0
73200 On ch=1 n=g#4 v=0
73200 On ch=1 n=a#4 v=60
73200 On ch=1 n=f#5 v=60
73200 On ch=1 n=a#5 v=60
73440 On ch=1 n=a#5 v=0
73440 On ch=1 n=f#5 v=0
73440 On ch=1 n=a#4 v=0
73440 On ch=1 n=g#5 v=60
73440 On ch=1 n=c5 v=60
73440 On ch=1 n=f#5 v=60
74160 On ch=1 n=c5 v=0
74160 On ch=1 n=g#5 v=0
74160 On ch=1 n=c6 v=60
74400 On ch=1 n=c6 v=0
74400 On ch=1 n=a#5 v=60
74640 On ch=1 n=a#5 v=0
74640 On ch=1 n=d6 v=60
74880 On ch=1 n=d6 v=0
74880 On ch=1 n=f#5 v=0
74880 On ch=1 n=g#5 v=70
74880 On ch=1 n=f#5 v=70
75120 On ch=1 n=g#5 v=0
75120 On ch=1 n=c6 v=70
75360 On ch=1 n=c6 v=0
75360 On ch=1 n=a#5 v=70
75600 On ch=1 n=a#5 v=0
75600 On ch=1 n=d6 v=70
75840 On ch=1 n=d6 v=0
75840 On ch=1 n=f#5 v=0
75840 On ch=1 n=g#5 v=80
75840 On ch=1 n=f#5 v=80
76080 On ch=1 n=c6 v=80
76320 On ch=1 n=c6 v=0
76320 On ch=1 n=a#5 v=80
76560 On ch=1 n=a#5 v=0
76560 On ch=1 n=d6 v=80
77280 On ch=1 n=d6 v=0
77280 On ch=1 n=f#5 v=0
77280 On ch=1 n=g#5 v=0
79380 On ch=1 n=d#5 v=80
79416 On ch=1 n=d#5 v=0
79416 On ch=1 n=f#5 v=80
79452 On ch=1 n=f#5 v=0
79452 On ch=1 n=g#5 v=80
79488 On ch=1 n=g#5 v=0
79488 On ch=1 n=a#5 v=80
79520 On ch=1 n=a#5 v=0
79520 On ch=1 n=c#6 v=90
79552 On ch=1 n=c#6 v=0
79552 On ch=1 n=d#6 v=90
79584 On ch=1 n=d#6 v=0
79584 On ch=1 n=f#6 v=90
79616 On ch=1 n=f#6 v=0
79616 On ch=1 n=g#6 v=90
79648 On ch=1 n=g#6 v=0
79648 On ch=1 n=a#6 v=100
79680 On ch=1 n=a#6 v=0
79680 On ch=1 n=c#7 v=100
79920 On ch=1 n=c#7 v=0
79920 On ch=1 n=a#6 v=100
80160 On ch=1 n=a#6 v=0
80160 On ch=1 n=g#5 v=80
80280 On ch=1 n=g#5 v=0
80280 On ch=1 n=a#5 v=80
80400 On ch=1 n=a#5 v=0
80400 On ch=1 n=g#5 v=80
80520 On ch=1 n=g#5 v=0
80520 On ch=1 n=f#5 v=80
80640 On ch=1 n=f#5 v=0
80640 On ch=1 n=g#5 v=80
80760 On ch=1 n=g#5 v=0
80760 On ch=1 n=a#5 v=80
80880 On ch=1 n=a#5 v=0
80880 On ch=1 n=g#5 v=80
81000 On ch=1 n=g#5 v=0
81000 On ch=1 n=f#5 v=80
81120 On ch=1 n=f#5 v=0
81232 On ch=1 n=d#5 v=80
81264 On ch=1 n=d#5 v=0
81268 On ch=1 n=f#5 v=90
81288 On ch=1 n=g#5 v=90
81300 On ch=1 n=f#5 v=0
81304 On ch=1 n=a#5 v=90
81320 On ch=1 n=g#5 v=0
81324 On ch=1 n=c#6 v=100
81336 On ch=1 n=a#5 v=0
81356 On ch=1 n=c#6 v=0
81492 On ch=1 n=d#7 v=115
81512 On ch=1 n=f#7 v=115
81524 On ch=1 n=d#7 v=0
81540 On ch=1 n=g#7 v=115
81544 On ch=1 n=f#7 v=0
81568 On ch=1 n=a#7 v=120
81572 On ch=1 n=g#7 v=0
81600 On ch=1 n=a#7 v=0
81600 On ch=1 n=c#8 v=120
81840 On ch=1 n=c#8 v=0
81840 On ch=1 n=a#7 v=120
82080 On ch=1 n=a#7 v=0
82080 On ch=1 n=g#6 v=80
82080 On ch=1 n=g#5 v=80
82080 On ch=1 n=d#6 v=80
82200 On ch=1 n=g#5 v=0
82200 On ch=1 n=g#6 v=0
82200 On ch=1 n=a#6 v=80
82200 On ch=1 n=a#5 v=80
82320 On ch=1 n=a#5 v=0
82320 On ch=1 n=a#6 v=0
82320 On ch=1 n=d#6 v=0
82320 On ch=1 n=g#6 v=80
82320 On ch=1 n=g#5 v=80
82320 On ch=1 n=c#6 v=80
82440 On ch=1 n=g#5 v=0
82440 On ch=1 n=g#6 v=0
82440 On ch=1 n=f#6 v=80
82440 On ch=1 n=f#5 v=80
82560 On ch=1 n=f#5 v=0
82560 On ch=1 n=f#6 v=0
82560 On ch=1 n=c#6 v=0
82560 On ch=1 n=g#6 v=90
82560 On ch=1 n=g#5 v=90
82560 On ch=1 n=d#6 v=90
82680 On ch=1 n=g#5 v=0
82680 On ch=1 n=g#6 v=0
82680 On ch=1 n=a#6 v=90
82680 On ch=1 n=a#5 v=90
82800 On ch=1 n=a#5 v=0
82800 On ch=1 n=a#6 v=0
82800 On ch=1 n=d#6 v=0
82800 On ch=1 n=c#7 v=90
82800 On ch=1 n=c#6 v=90
82800 On ch=1 n=f#6 v=90
82920 On ch=1 n=c#6 v=0
82920 On ch=1 n=c#7 v=0
82920 On ch=1 n=d#7 v=90
82920 On ch=1 n=d#6 v=90
83040 On ch=1 n=d#6 v=0
83040 On ch=1 n=d#7 v=0
83040 On ch=1 n=f#6 v=0
83040 On ch=1 n=g#7 v=100
83040 On ch=1 n=c#7 v=100
83040 On ch=1 n=g#6 v=100
83040 On ch=1 n=d#5 v=100
83040 On ch=1 n=g#5 v=100
83040 On ch=1 n=c#6 v=100
83760 On ch=1 n=g#6 v=0
83760 On ch=1 n=c#7 v=0
83760 On ch=1 n=g#7 v=0
83760 On ch=1 n=d#7 v=80
83760 On ch=1 n=d#6 v=80
83880 On ch=1 n=d#6 v=0
83880 On ch=1 n=d#7 v=0
84000 On ch=1 n=c#6 v=70
84000 On ch=1 n=c#7 v=70
84120 On ch=1 n=c#7 v=0
84120 On ch=1 n=c#6 v=0
84240 On ch=1 n=a#6 v=60
84240 On ch=1 n=a#5 v=60
84360 On ch=1 n=a#5 v=0
84360 On ch=1 n=a#6 v=0
84480 On ch=1 n=c#6 v=0
84480 On ch=1 n=g#5 v=0
84480 On ch=1 n=d#5 v=0
84480 On ch=1 n=c#5 v=50
84480 On ch=1 n=c#6 v=50
84480 On ch=1 n=g#5 v=50
84600 On ch=1 n=c#6 v=0
84600 On ch=1 n=c#5 v=0
84600 On ch=1 n=d#6 v=50
84720 On ch=1 n=d#6 v=0
84720 On ch=1 n=g#5 v=0
84720 On ch=1 n=d#5 v=50
84720 On ch=1 n=d#6 v=50
84720 On ch=1 n=f#5 v=50
85200 On ch=1 n=d#6 v=0
85200 On ch=1 n=d#5 v=0
85200 On ch=1 n=f#6 v=50
85200 On ch=1 n=f#5 v=50
85440 On ch=1 n=f#5 v=0
85440 On ch=1 n=f#6 v=0
85440 On ch=1 n=f#5 v=0
85440 On ch=1 n=c#5 v=50
85440 On ch=1 n=c#6 v=50
85440 On ch=1 n=g#5 v=50
85560 On ch=1 n=c#6 v=0
85560 On ch=1 n=c#5 v=0
85560 On ch=1 n=d#6 v=50
85680 On ch=1 n=d#6 v=0
85680 On ch=1 n=g#5 v=0
85680 On ch=1 n=c#5 v=50
85680 On ch=1 n=d#6 v=50
85680 On ch=1 n=f#5 v=50
86400 On ch=1 n=f#5 v=0
86400 On ch=1 n=d#6 v=0
86400 On ch=1 n=c#5 v=0
86400 On ch=1 n=c#5 v=40
86400 On ch=1 n=c#6 v=40
86400 On ch=1 n=g#5 v=40
86520 On ch=1 n=c#6 v=0
86520 On ch=1 n=c#5 v=0
86520 On ch=1 n=d#6 v=40
86640 On ch=1 n=d#6 v=0
86640 On ch=1 n=g#5 v=0
86640 On ch=1 n=d#5 v=40
86640 On ch=1 n=d#6 v=40
86640 On ch=1 n=f#5 v=40
87120 On ch=1 n=d#6 v=0
87120 On ch=1 n=d#5 v=0
87120 On ch=1 n=a#6 v=40
87120 On ch=1 n=a#5 v=40
87360 On ch=1 n=a#5 v=0
87360 On ch=1 n=a#6 v=0
87360 On ch=1 n=f#5 v=0
87360 On ch=1 n=c#5 v=40
87360 On ch=1 n=c#6 v=40
87360 On ch=1 n=g#5 v=40
87480 On ch=1 n=c#6 v=0
87480 On ch=1 n=c#5 v=0
87480 On ch=1 n=d#6 v=40
87600 On ch=1 n=d#6 v=0
87600 On ch=1 n=g#5 v=0
87600 On ch=1 n=d#5 v=40
87600 On ch=1 n=d#6 v=40
87600 On ch=1 n=f#5 v=40
89280 On ch=1 n=f#5 v=0
89280 On ch=1 n=d#6 v=0
89280 On ch=1 n=d#5 v=0
91040 On ch=1 n=f#5 v=30
91080 On ch=1 n=f#5 v=0
91080 On ch=1 n=g#5 v=30
91120 On ch=1 n=g#5 v=0
91120 On ch=1 n=a#5 v=30
91160 On ch=1 n=a#5 v=0
91160 On ch=1 n=c6 v=30
91200 On ch=1 n=c6 v=0
91200 On ch=1 n=d6 v=40
91440 On ch=1 n=d6 v=0
92960 On ch=1 n=g#5 v=30
93000 On ch=1 n=g#5 v=0
93000 On ch=1 n=a#5 v=30
93040 On ch=1 n=a#5 v=0
93040 On ch=1 n=c6 v=30
93080 On ch=1 n=c6 v=0
93080 On ch=1 n=d6 v=30
93120 On ch=1 n=d6 v=0
93120 On ch=1 n=e6 v=40
93360 On ch=1 n=e6 v=0
94560 On ch=1 n=g#6 v=40
94840 On ch=1 n=f#5 v=30
94880 On ch=1 n=f#5 v=0
94880 On ch=1 n=g#5 v=30
94920 On ch=1 n=g#5 v=0
94920 On ch=1 n=a#5 v=30
94960 On ch=1 n=a#5 v=0
94960 On ch=1 n=c6 v=30
95000 On ch=1 n=c6 v=0
95000 On ch=1 n=d6 v=30
95040 On ch=1 n=d6 v=0
95040 On ch=1 n=g#6 v=0
95040 On ch=1 n=a#6 v=40
95520 On ch=1 n=a#6 v=0
95520 On ch=1 n=c7 v=40
96760 On ch=1 n=g#5 v=30
96800 On ch=1 n=g#5 v=0
96800 On ch=1 n=a#5 v=30
96840 On ch=1 n=a#5 v=0
96840 On ch=1 n=c6 v=30
96880 On ch=1 n=c6 v=0
96880 On ch=1 n=d6 v=30
96920 On ch=1 n=d6 v=0
96920 On ch=1 n=e6 v=30
96960 On ch=1 n=e6 v=0
96960 On ch=1 n=c7 v=0
96960 On ch=1 n=d7 v=40
98400 On ch=1 n=d7 v=0
98400 On ch=1 n=e7 v=40
98680 On ch=1 n=f#5 v=30
98720 On ch=1 n=f#5 v=0
98720 On ch=1 n=g#5 v=30
98760 On ch=1 n=g#5 v=0
98760 On ch=1 n=a#5 v=30
98800 On ch=1 n=a#5 v=0
98800 On ch=1 n=c6 v=30
98840 On ch=1 n=c6 v=0
98840 On ch=1 n=d6 v=30
98880 On ch=1 n=d6 v=0
98880 On ch=1 n=e7 v=0
98880 On ch=1 n=d7 v=40
99360 On ch=1 n=d7 v=0
99360 On ch=1 n=c7 v=40
99840 On ch=1 n=c7 v=0
99840 On ch=1 n=a#6 v=40
100080 On ch=1 n=a#6 v=0
100080 On ch=1 n=g#6 v=40
100320 On ch=1 n=g#6 v=0
100320 On ch=1 n=a#6 v=40
100600 On ch=1 n=g#5 v=30
100640 On ch=1 n=g#5 v=0
100640 On ch=1 n=a#5 v=30
100680 On ch=1 n=a#5 v=0
100680 On ch=1 n=c6 v=30
100720 On ch=1 n=c6 v=0
100720 On ch=1 n=d6 v=30
100760 On ch=1 n=d6 v=0
100760 On ch=1 n=e6 v=30
100800 On ch=1 n=e6 v=0
101280 On ch=1 n=a#6 v=0
101280 On ch=1 n=g#6 v=40
101760 On ch=1 n=g#7 v=40
101760 On ch=1 n=c7 v=40
101760 On ch=1 n=a#6 v=40
102240 On ch=1 n=a#6 v=0
102240 On ch=1 n=c7 v=0
102240 On ch=1 n=g#7 v=0
102240 On ch=1 n=e7 v=40
102240 On ch=1 n=g#6 v=40
102240 On ch=1 n=f#6 v=40
102720 On ch=1 n=f#6 v=0
102720 On ch=1 n=e7 v=0
102720 On ch=1 n=g#6 v=0
102720 On ch=1 n=g#6 v=40
102720 On ch=1 n=c6 v=40
102720 On ch=1 n=a#5 v=40
103200 On ch=1 n=a#5 v=0
103200 On ch=1 n=c6 v=0
103200 On ch=1 n=g#6 v=0
103200 On ch=1 n=g#7 v=40
103200 On ch=1 n=c7 v=40
103200 On ch=1 n=a#6 v=40
103680 On ch=1 n=a#6 v=0
103680 On ch=1 n=c7 v=0
103680 On ch=1 n=g#7 v=0
103680 On ch=1 n=g#6 v=0
104480 On ch=1 n=f#5 v=30
104520 On ch=1 n=f#5 v=0
104520 On ch=1 n=g#5 v=30
104560 On ch=1 n=g#5 v=0
104560 On ch=1 n=a#5 v=30
104600 On ch=1 n=a#5 v=0
104600 On ch=1 n=c6 v=30
104640 On ch=1 n=c6 v=0
104640 On ch=1 n=d6 v=40
104880 On ch=1 n=d6 v=0
105600 On ch=1 n=a#7 v=40
105600 On ch=1 n=d7 v=40
105600 On ch=1 n=c7 v=40
106080 On ch=1 n=c7 v=0
106080 On ch=1 n=d7 v=0
106080 On ch=1 n=a#7 v=0
106080 On ch=1 n=f#7 v=40
106080 On ch=1 n=a#6 v=40
106080 On ch=1 n=g#6 v=40
106560 On ch=1 n=g#6 v=0
106560 On ch=1 n=a#6 v=0
106560 On ch=1 n=f#7 v=0
106560 On ch=1 n=c6 v=40
106560 On ch=1 n=d6 v=40
106560 On ch=1 n=a#6 v=40
107040 On ch=1 n=a#6 v=0
107040 On ch=1 n=d6 v=0
107040 On ch=1 n=c6 v=0
107040 On ch=1 n=a#7 v=40
107040 On ch=1 n=d7 v=40
107040 On ch=1 n=c7 v=40
107520 On ch=1 n=c7 v=0
107520 On ch=1 n=d7 v=0
107520 On ch=1 n=a#7 v=0
108320 On ch=1 n=g#5 v=30
108360 On ch=1 n=g#5 v=0
108360 On ch=1 n=a#5 v=30
108400 On ch=1 n=a#5 v=0
108400 On ch=1 n=c6 v=30
108440 On ch=1 n=c6 v=0
108440 On ch=1 n=d6 v=30
108480 On ch=1 n=d6 v=0
108480 On ch=1 n=e6 v=40
108720 On ch=1 n=e6 v=0
109440 On ch=1 n=g#7 v=40
109440 On ch=1 n=c7 v=40
109440 On ch=1 n=a#6 v=40
109920 On ch=1 n=a#6 v=0
109920 On ch=1 n=c7 v=0
109920 On ch=1 n=g#7 v=0
109920 On ch=1 n=e7 v=40
109920 On ch=1 n=g#6 v=40
109920 On ch=1 n=f#6 v=40
110400 On ch=1 n=f#6 v=0
110400 On ch=1 n=g#6 v=0
110400 On ch=1 n=e7 v=0
110400 On ch=1 n=g#6 v=40
110400 On ch=1 n=e6 v=40
111000 On ch=1 n=e6 v=0
111000 On ch=1 n=g#6 v=0
111000 On ch=1 n=d6 v=40
111000 On ch=1 n=f#6 v=40
111120 On ch=1 n=f#6 v=0
111120 On ch=1 n=d6 v=0
111120 On ch=1 n=c6 v=40
111120 On ch=1 n=e6 v=40
111240 On ch=1 n=e6 v=0
111240 On ch=1 n=c6 v=0
111240 On ch=1 n=a#5 v=40
111240 On ch=1 n=d6 v=40
111360 On ch=1 n=d6 v=0
111360 On ch=1 n=a#5 v=0
111360 On ch=1 n=g#5 v=40
111360 On ch=1 n=c6 v=40
112200 On ch=1 n=c6 v=0
112200 On ch=1 n=g#5 v=0
112200 On ch=1 n=c7 v=40
112200 On ch=1 n=g#6 v=40
112320 On ch=1 n=g#6 v=0
112320 On ch=1 n=c7 v=0
112320 On ch=1 n=f#6 v=40
112320 On ch=1 n=a#6 v=40
113280 On ch=1 n=a#6 v=0
113280 On ch=1 n=f#6 v=0
113280 On ch=1 n=g#7 v=40
113280 On ch=1 n=c7 v=40
113280 On ch=1 n=a#6 v=40
113760 On ch=1 n=a#6 v=0
113760 On ch=1 n=c7 v=0
113760 On ch=1 n=g#7 v=0
113760 On ch=1 n=e7 v=40
113760 On ch=1 n=g#6 v=40
113760 On ch=1 n=f#6 v=40
114240 On ch=1 n=f#6 v=0
114240 On ch=1 n=g#6 v=0
114240 On ch=1 n=e7 v=0
114240 On ch=1 n=g#6 v=40
114240 On ch=1 n=e6 v=40
114840 On ch=1 n=e6 v=0
114840 On ch=1 n=g#6 v=0
114840 On ch=1 n=d6 v=40
114840 On ch=1 n=f#6 v=40
114960 On ch=1 n=f#6 v=0
114960 On ch=1 n=d6 v=0
114960 On ch=1 n=c6 v=40
114960 On ch=1 n=e6 v=40
115080 On ch=1 n=e6 v=0
115080 On ch=1 n=c6 v=0
115080 On ch=1 n=a#5 v=40
115080 On ch=1 n=d6 v=40
115200 On ch=1 n=d6 v=0
115200 On ch=1 n=a#5 v=0
115200 On ch=1 n=g#5 v=40
115200 On ch=1 n=c6 v=40
116400 On ch=1 n=c6 v=0
116400 On ch=1 n=g#5 v=0
116400 On ch=1 n=f#5 v=40
116400 On ch=1 n=a#5 v=40
116880 On ch=1 n=a#5 v=0
116880 On ch=1 n=f#5 v=0
116880 On ch=1 n=e5 v=40
116880 On ch=1 n=g#5 v=40
117060 On ch=1 n=d5 v=40
117060 On ch=1 n=f#5 v=40
117120 On ch=1 n=f#5 v=0
117120 On ch=1 n=d5 v=0
117120 On ch=1 n=g#5 v=0
117120 On ch=1 n=e5 v=0
117120 On ch=1 n=e5 v=40
117120 On ch=1 n=c5 v=40
117880 On ch=1 n=f#5 v=30
117920 On ch=1 n=f#5 v=0
117920 On ch=1 n=g#5 v=30
117960 On ch=1 n=g#5 v=0
117960 On ch=1 n=a#5 v=30
118000 On ch=1 n=a#5 v=0
118000 On ch=1 n=c6 v=30
118040 On ch=1 n=c6 v=0
118040 On ch=1 n=d6 v=30
118080 On ch=1 n=d6 v=0
118080 On ch=1 n=c5 v=0
118080 On ch=1 n=e5 v=0
118980 On ch=1 n=d5 v=40
118980 On ch=1 n=f#5 v=40
119040 On ch=1 n=f#5 v=0
119040 On ch=1 n=d5 v=0
119040 On ch=1 n=c5 v=40
119040 On ch=1 n=e5 v=40
119760 On ch=1 n=e5 v=0
119760 On ch=1 n=c5 v=0
119800 On ch=1 n=f#5 v=30
119840 On ch=1 n=f#5 v=0
119840 On ch=1 n=g#5 v=30
119880 On ch=1 n=g#5 v=0
119880 On ch=1 n=a#5 v=30
119920 On ch=1 n=a#5 v=0
119920 On ch=1 n=c6 v=30
119960 On ch=1 n=c6 v=0
119960 On ch=1 n=d6 v=30
120000 On ch=1 n=d6 v=0
120480 On ch=1 n=f#5 v=40
120480 On ch=1 n=d5 v=40
120640 On ch=1 n=d5 v=0
120640 On ch=1 n=f#5 v=0
120640 On ch=1 n=f#5 v=40
120640 On ch=1 n=d5 v=40
120800 On ch=1 n=d5 v=0
120800 On ch=1 n=f#5 v=0
120800 On ch=1 n=e5 v=40
120800 On ch=1 n=c5 v=40
120900 On ch=1 n=d5 v=40
120900 On ch=1 n=f#5 v=40
120960 On ch=1 n=f#5 v=0
120960 On ch=1 n=d5 v=0
120960 On ch=1 n=c5 v=0
120960 On ch=1 n=e5 v=0
120960 On ch=1 n=e5 v=40
120960 On ch=1 n=c5 v=40
121720 On ch=1 n=f#5 v=30
121760 On ch=1 n=f#5 v=0
121760 On ch=1 n=g#5 v=30
121800 On ch=1 n=g#5 v=0
121800 On ch=1 n=a#5 v=30
121840 On ch=1 n=a#5 v=0
121840 On ch=1 n=c6 v=30
121880 On ch=1 n=c6 v=0
121880 On ch=1 n=d6 v=30
121920 On ch=1 n=d6 v=0
121920 On ch=1 n=c5 v=0
121920 On ch=1 n=e5 v=0
122880 On ch=1 n=c5 v=40
122880 On ch=1 n=e5 v=40
125760 On ch=1 n=e5 v=0
125760 On ch=1 n=c5 v=0
125760 Meta TrkEnd
TrkEnd
MTrk
0 SeqSpec 43 00 01 00
0 Meta TrkName "Right Bass"
0 Meta 0x21 00
12000 On ch=1 n=g#4 v=40
12480 On ch=1 n=g#4 v=0
12480 On ch=1 n=a#4 v=40
12960 On ch=1 n=a#4 v=0
12960 On ch=1 n=c4 v=40
12960 On ch=1 n=c5 v=40
14880 On ch=1 n=c5 v=0
14880 On ch=1 n=c4 v=0
15840 On ch=1 n=g#4 v=40
16320 On ch=1 n=g#4 v=0
16320 On ch=1 n=a#4 v=40
16800 On ch=1 n=a#4 v=0
16800 On ch=1 n=c4 v=40
16800 On ch=1 n=c5 v=40
18240 On ch=1 n=c5 v=0
18240 On ch=1 n=c4 v=0
78080 On ch=1 n=a#4 v=60
78400 On ch=1 n=a#4 v=0
78400 On ch=1 n=g#4 v=60
78840 On ch=1 n=g#4 v=0
78840 On ch=1 n=a#4 v=60
78960 On ch=1 n=a#4 v=0
78960 On ch=1 n=g#4 v=60
79080 On ch=1 n=g#4 v=0
79080 On ch=1 n=f#4 v=60
79200 On ch=1 n=f#4 v=0
79200 Meta TrkEnd
TrkEnd
MTrk
0 SeqSpec 43 00 01 00
0 Meta TrkName "Left Treble"
0 Meta 0x21 00
27360 On ch=1 n=g#4 v=40
27360 On ch=1 n=c5 v=40
27360 On ch=1 n=e5 v=40
27360 On ch=1 n=g#5 v=40
27840 On ch=1 n=g#5 v=0
27840 On ch=1 n=e5 v=0
27840 On ch=1 n=c5 v=0
27840 On ch=1 n=g#4 v=0
27840 On ch=1 n=a#4 v=40
27840 On ch=1 n=d5 v=40
27840 On ch=1 n=f#5 v=40
27840 On ch=1 n=a#5 v=40
28320 On ch=1 n=a#5 v=0
28320 On ch=1 n=f#5 v=0
28320 On ch=1 n=d5 v=0
28320 On ch=1 n=a#4 v=0
28320 On ch=1 n=c5 v=40
28320 On ch=1 n=e5 v=40
28320 On ch=1 n=g#5 v=40
28320 On ch=1 n=c6 v=40
28800 On ch=1 n=c6 v=0
28800 On ch=1 n=g#5 v=0
28800 On ch=1 n=e5 v=0
28800 On ch=1 n=c5 v=0
31200 On ch=1 n=g#4 v=40
31200 On ch=1 n=c5 v=40
31200 On ch=1 n=e5 v=40
31200 On ch=1 n=g#5 v=40
31680 On ch=1 n=g#5 v=0
31680 On ch=1 n=e5 v=0
31680 On ch=1 n=c5 v=0
31680 On ch=1 n=g#4 v=0
31680 On ch=1 n=a#4 v=40
31680 On ch=1 n=d5 v=40
31680 On ch=1 n=f#5 v=40
31680 On ch=1 n=a#5 v=40
32160 On ch=1 n=a#5 v=0
32160 On ch=1 n=f#5 v=0
32160 On ch=1 n=d5 v=0
32160 On ch=1 n=a#4 v=0
32160 On ch=1 n=c5 v=40
32160 On ch=1 n=e5 v=40
32160 On ch=1 n=g#5 v=40
32160 On ch=1 n=c6 v=40
32640 On ch=1 n=c6 v=0
32640 On ch=1 n=g#5 v=0
32640 On ch=1 n=e5 v=0
32640 On ch=1 n=c5 v=0
35040 On ch=1 n=g#4 v=60
35040 On ch=1 n=c5 v=60
35040 On ch=1 n=e5 v=60
35040 On ch=1 n=g#5 v=60
35520 On ch=1 n=g#5 v=0
35520 On ch=1 n=e5 v=0
35520 On ch=1 n=c5 v=0
35520 On ch=1 n=g#4 v=0
35520 On ch=1 n=a#4 v=60
35520 On ch=1 n=d5 v=60
35520 On ch=1 n=f#5 v=60
35520 On ch=1 n=a#5 v=60
36000 On ch=1 n=a#5 v=0
36000 On ch=1 n=f#5 v=0
36000 On ch=1 n=d5 v=0
36000 On ch=1 n=a#4 v=0
36000 On ch=1 n=c5 v=60
36000 On ch=1 n=e5 v=60
36000 On ch=1 n=g#5 v=60
36000 On ch=1 n=c6 v=60
36480 On ch=1 n=c6 v=0
36480 On ch=1 n=g#5 v=0
36480 On ch=1 n=e5 v=0
36480 On ch=1 n=c5 v=0
54240 On ch=1 n=f#5 v=60
54360 On ch=1 n=f#5 v=0
54480 On ch=1 n=g#5 v=60
54600 On ch=1 n=g#5 v=0
54720 On ch=1 n=a#5 v=60
54840 On ch=1 n=a#5 v=0
54960 On ch=1 n=c6 v=60
55080 On ch=1 n=c6 v=0
55200 On ch=1 n=d6 v=60
55320 On ch=1 n=d6 v=0
55440 On ch=1 n=e6 v=60
55560 On ch=1 n=e6 v=0
56160 On ch=1 n=f#5 v=70
56280 On ch=1 n=f#5 v=0
56400 On ch=1 n=g#5 v=70
56520 On ch=1 n=g#5 v=0
56640 On ch=1 n=a#5 v=70
56760 On ch=1 n=a#5 v=0
56880 On ch=1 n=c6 v=70
57000 On ch=1 n=c6 v=0
57120 On ch=1 n=d6 v=70
57240 On ch=1 n=d6 v=0
57360 On ch=1 n=e6 v=70
57480 On ch=1 n=e6 v=0
57600 On ch=1 n=d6 v=70
57840 On ch=1 n=d6 v=0
57840 On ch=1 n=e6 v=70
58320 On ch=1 n=e6 v=0
58320 On ch=1 n=e6 v=70
58440 On ch=1 n=e6 v=0
58560 On ch=1 n=d6 v=70
58800 On ch=1 n=d6 v=0
58800 On ch=1 n=e6 v=70
59280 On ch=1 n=e6 v=0
59280 On ch=1 n=e6 v=70
59400 On ch=1 n=e6 v=0
59520 On ch=1 n=d6 v=60
59640 On ch=1 n=d6 v=0
59760 On ch=1 n=e6 v=60
59880 On ch=1 n=e6 v=0
60480 On ch=1 n=d6 v=60
60600 On ch=1 n=d6 v=0
60720 On ch=1 n=e6 v=60
60840 On ch=1 n=e6 v=0
61920 On ch=1 n=g#4 v=40
61920 On ch=1 n=c5 v=40
61920 On ch=1 n=e5 v=40
61920 On ch=1 n=g#5 v=40
62400 On ch=1 n=g#5 v=0
62400 On ch=1 n=e5 v=0
62400 On ch=1 n=c5 v=0
62400 On ch=1 n=g#4 v=0
62400 On ch=1 n=a#4 v=40
62400 On ch=1 n=d5 v=40
62400 On ch=1 n=f#5 v=40
62400 On ch=1 n=a#5 v=40
62880 On ch=1 n=a#5 v=0
62880 On ch=1 n=f#5 v=0
62880 On ch=1 n=d5 v=0
62880 On ch=1 n=a#4 v=0
62880 On ch=1 n=c5 v=40
62880 On ch=1 n=e5 v=40
62880 On ch=1 n=g#5 v=40
62880 On ch=1 n=c6 v=40
64320 On ch=1 n=c6 v=0
64320 On ch=1 n=g#5 v=0
64320 On ch=1 n=e5 v=0
64320 On ch=1 n=c5 v=0
64320 On ch=1 n=d5 v=40
64320 On ch=1 n=f#5 v=40
64320 On ch=1 n=a#5 v=40
64320 On ch=1 n=d6 v=40
65760 On ch=1 n=d6 v=0
65760 On ch=1 n=a#5 v=0
65760 On ch=1 n=f#5 v=0
65760 On ch=1 n=d5 v=0
65760 On ch=1 n=e5 v=40
65760 On ch=1 n=g#5 v=40
65760 On ch=1 n=c6 v=40
65760 On ch=1 n=e6 v=40
66240 On ch=1 n=e6 v=0
66240 On ch=1 n=c6 v=0
66240 On ch=1 n=g#5 v=0
66240 On ch=1 n=e5 v=0
66240 On ch=1 n=d5 v=40
66240 On ch=1 n=f#5 v=40
66240 On ch=1 n=a#5 v=40
66240 On ch=1 n=d6 v=40
66720 On ch=1 n=d6 v=0
66720 On ch=1 n=a#5 v=0
66720 On ch=1 n=f#5 v=0
66720 On ch=1 n=d5 v=0
66720 On ch=1 n=c5 v=40
66720 On ch=1 n=e5 v=40
66720 On ch=1 n=g#5 v=40
66720 On ch=1 n=c6 v=40
67200 On ch=1 n=c6 v=0
67200 On ch=1 n=g#5 v=0
67200 On ch=1 n=e5 v=0
67200 On ch=1 n=c5 v=0
67200 On ch=1 n=a#4 v=40
67200 On ch=1 n=d5 v=40
67200 On ch=1 n=f#5 v=40
67200 On ch=1 n=a#5 v=40
67320 On ch=1 n=a#5 v=0
67320 On ch=1 n=f#5 v=0
67320 On ch=1 n=d5 v=0
67320 On ch=1 n=a#4 v=0
67440 On ch=1 n=g#4 v=40
67440 On ch=1 n=c5 v=40
67440 On ch=1 n=e5 v=40
67440 On ch=1 n=g#5 v=40
67560 On ch=1 n=g#5 v=0
67560 On ch=1 n=e5 v=0
67560 On ch=1 n=c5 v=0
67560 On ch=1 n=g#4 v=0
67680 On ch=1 n=a#4 v=40
67680 On ch=1 n=d5 v=40
67680 On ch=1 n=f#5 v=40
67680 On ch=1 n=a#5 v=40
68640 On ch=1 n=a#5 v=0
68640 On ch=1 n=f#5 v=0
68640 On ch=1 n=d5 v=0
68640 On ch=1 n=a#4 v=0
68640 On ch=1 n=g#4 v=30
68640 On ch=1 n=c5 v=30
68640 On ch=1 n=e5 v=30
68640 On ch=1 n=g#5 v=30
69120 On ch=1 n=g#5 v=0
69120 On ch=1 n=e5 v=0
69120 On ch=1 n=c5 v=0
69120 On ch=1 n=g#4 v=0
69120 On ch=1 n=g#4 v=40
69120 On ch=1 n=c5 v=40
69120 On ch=1 n=e5 v=40
69120 On ch=1 n=g#5 v=40
71040 On ch=1 n=g#5 v=0
71040 On ch=1 n=e5 v=0
71040 On ch=1 n=c5 v=0
71040 On ch=1 n=g#4 v=0
81356 On ch=1 n=d#6 v=100
81388 On ch=1 n=d#6 v=0
81388 On ch=1 n=f#6 v=100
81420 On ch=1 n=f#6 v=0
81420 On ch=1 n=g#6 v=110
81448 On ch=1 n=a#6 v=110
81452 On ch=1 n=g#6 v=0
81468 On ch=1 n=c#7 v=110
81480 On ch=1 n=a#6 v=0
81500 On ch=1 n=c#7 v=0
81500 Meta TrkEnd
TrkEnd
MTrk
0 SeqSpec 43 00 01 00
0 Meta TrkName "Left Bass"
0 Meta 0x21 00
8640 On ch=1 n=a#2 v=40
9600 On ch=1 n=a#2 v=0
9600 On ch=1 n=a#2 v=40
10080 On ch=1 n=a#2 v=0
10080 On ch=1 n=a#2 v=40
10560 On ch=1 n=a#2 v=0
11040 On ch=1 n=a#2 v=40
11520 On ch=1 n=a#2 v=0
11520 On ch=1 n=a#2 v=40
12000 On ch=1 n=g#3 v=40
12480 On ch=1 n=g#3 v=0
12480 On ch=1 n=a#2 v=0
12480 On ch=1 n=a#3 v=40
12960 On ch=1 n=a#3 v=0
13440 On ch=1 n=a#2 v=40
13920 On ch=1 n=a#2 v=0
13920 On ch=1 n=a#2 v=40
14400 On ch=1 n=a#2 v=0
14880 On ch=1 n=a#2 v=40
15360 On ch=1 n=a#2 v=0
15360 On ch=1 n=a#2 v=40
15840 On ch=1 n=g#3 v=40
16320 On ch=1 n=g#3 v=0
16320 On ch=1 n=a#2 v=0
16320 On ch=1 n=a#3 v=40
16800 On ch=1 n=a#3 v=0
17280 On ch=1 n=a#2 v=50
17760 On ch=1 n=a#2 v=0
17760 On ch=1 n=a#2 v=50
18240 On ch=1 n=a#2 v=0
18240 On ch=1 n=d5 v=60
18240 On ch=1 n=d4 v=60
18720 On ch=1 n=a#2 v=60
19200 On ch=1 n=a#2 v=0
19200 On ch=1 n=a#2 v=60
19680 On ch=1 n=d4 v=0
19680 On ch=1 n=d5 v=0
19680 On ch=1 n=e4 v=60
19680 On ch=1 n=e5 v=60
20160 On ch=1 n=e5 v=0
20160 On ch=1 n=e4 v=0
20160 On ch=1 n=a#2 v=0
20160 On ch=1 n=d4 v=60
20160 On ch=1 n=d5 v=60
20640 On ch=1 n=d5 v=0
20640 On ch=1 n=d4 v=0
20640 On ch=1 n=c4 v=60
20640 On ch=1 n=c5 v=60
21120 On ch=1 n=c5 v=0
21120 On ch=1 n=c4 v=0
21120 On ch=1 n=a#3 v=60
21120 On ch=1 n=a#4 v=60
21360 On ch=1 n=a#4 v=0
21360 On ch=1 n=a#3 v=0
21360 On ch=1 n=g#3 v=60
21360 On ch=1 n=g#4 v=60
21600 On ch=1 n=g#4 v=0
21600 On ch=1 n=g#3 v=0
21600 On ch=1 n=a#3 v=60
21600 On ch=1 n=a#4 v=60
22560 On ch=1 n=a#4 v=0
22560 On ch=1 n=a#3 v=0
22560 On ch=1 n=g#3 v=60
22560 On ch=1 n=g#4 v=60
23040 On ch=1 n=g#4 v=0
23040 On ch=1 n=g#3 v=0
23040 On ch=1 n=g#3 v=60
23040 On ch=1 n=g#4 v=50
23520 On ch=1 n=a#2 v=50
24480 On ch=1 n=a#2 v=0
24480 On ch=1 n=a#2 v=50
24960 On ch=1 n=a#2 v=0
24960 On ch=1 n=g#4 v=0
24960 On ch=1 n=g#3 v=0
24960 On ch=1 n=g#3 v=50
24960 On ch=1 n=g#4 v=50
25440 On ch=1 n=a#2 v=50
26400 On ch=1 n=a#2 v=0
26400 On ch=1 n=a#2 v=50
26880 On ch=1 n=a#2 v=0
26880 On ch=1 n=g#4 v=0
26880 On ch=1 n=g#3 v=0
26880 On ch=1 n=a#2 v=40
27840 On ch=1 n=a#2 v=0
28800 On ch=1 n=a#2 v=40
29280 On ch=1 n=a#2 v=0
29280 On ch=1 n=a#2 v=40
29760 On ch=1 n=a#2 v=0
30240 On ch=1 n=a#2 v=40
30720 On ch=1 n=a#2 v=0
30720 On ch=1 n=a#2 v=40
31200 On ch=1 n=a#2 v=0
32640 On ch=1 n=a#2 v=50
33120 On ch=1 n=a#2 v=0
33120 On ch=1 n=a#2 v=50
33600 On ch=1 n=a#2 v=0
34080 On ch=1 n=a#2 v=50
34560 On ch=1 n=a#2 v=0
34560 On ch=1 n=a#2 v=60
35520 On ch=1 n=a#2 v=0
36480 On ch=1 n=a#2 v=50
36960 On ch=1 n=a#2 v=0
36960 On ch=1 n=a#2 v=50
37440 On ch=1 n=a#2 v=0
37920 On ch=1 n=a#2 v=50
38400 On ch=1 n=a#2 v=0
38400 On ch=1 n=a#2 v=40
42240 On ch=1 n=a#2 v=0
42240 On ch=1 n=a#2 v=50
42960 On ch=1 n=c5 v=50
43200 On ch=1 n=c5 v=0
43200 On ch=1 n=f#4 v=40
43920 On ch=1 n=f#4 v=0
43920 On ch=1 n=c5 v=40
44160 On ch=1 n=c5 v=0
44160 On ch=1 n=a#2 v=0
44160 On ch=1 n=a#2 v=50
44880 On ch=1 n=c5 v=50
45120 On ch=1 n=c5 v=0
45120 On ch=1 n=f#4 v=50
45840 On ch=1 n=f#4 v=0
45840 On ch=1 n=c5 v=50
46080 On ch=1 n=c5 v=0
46080 On ch=1 n=d5 v=50
46800 On ch=1 n=d5 v=0
46800 On ch=1 n=c5 v=50
47040 On ch=1 n=c5 v=0
47040 On ch=1 n=f#4 v=50
47760 On ch=1 n=f#4 v=0
47760 On ch=1 n=c5 v=50
48000 On ch=1 n=c5 v=0
48000 On ch=1 n=a#2 v=0
48000 On ch=1 n=a#2 v=50
48720 On ch=1 n=c5 v=50
48960 On ch=1 n=c5 v=0
48960 On ch=1 n=f#4 v=50
49680 On ch=1 n=f#4 v=0
49680 On ch=1 n=c5 v=50
49920 On ch=1 n=c5 v=0
49920 On ch=1 n=a#2 v=0
49920 On ch=1 n=a#2 v=40
50640 On ch=1 n=c5 v=40
50880 On ch=1 n=c5 v=0
50880 On ch=1 n=f#4 v=40
51600 On ch=1 n=f#4 v=0
51600 On ch=1 n=c5 v=40
51840 On ch=1 n=c5 v=0
51840 On ch=1 n=d5 v=40
52560 On ch=1 n=d5 v=0
52560 On ch=1 n=c5 v=40
52800 On ch=1 n=c5 v=0
52800 On ch=1 n=f#4 v=40
53520 On ch=1 n=f#4 v=0
53760 On ch=1 n=a#2 v=0
53760 On ch=1 n=a#2 v=60
55680 On ch=1 n=a#2 v=0
55680 On ch=1 n=a#2 v=70
57600 On ch=1 n=a#2 v=0
61440 On ch=1 n=a#2 v=40
65280 On ch=1 n=a#2 v=0
65280 On ch=1 n=a#2 v=40
69120 On ch=1 n=a#2 v=0
70080 On ch=1 n=a#2 v=40
71760 On ch=1 n=d4 v=60
72000 On ch=1 n=d4 v=0
72000 On ch=1 n=d5 v=60
72480 On ch=1 n=d5 v=0
72480 On ch=1 n=c5 v=60
72720 On ch=1 n=c5 v=0
72720 On ch=1 n=a#4 v=60
72960 On ch=1 n=a#4 v=0
72960 On ch=1 n=a#2 v=0
72960 On ch=1 n=a#2 v=60
73680 On ch=1 n=d4 v=60
73920 On ch=1 n=d4 v=0
73920 On ch=1 n=d5 v=60
74400 On ch=1 n=d5 v=0
74400 On ch=1 n=c5 v=60
74640 On ch=1 n=c5 v=0
74640 On ch=1 n=a#4 v=60
74880 On ch=1 n=a#4 v=0
74880 On ch=1 n=d5 v=70
75120 On ch=1 n=d5 v=0
75120 On ch=1 n=c5 v=70
75360 On ch=1 n=c5 v=0
75360 On ch=1 n=a#4 v=70
75520 On ch=1 n=a#4 v=0
75520 On ch=1 n=g#4 v=70
75680 On ch=1 n=g#4 v=0
75680 On ch=1 n=f#4 v=70
75840 On ch=1 n=f#4 v=0
75840 On ch=1 n=d5 v=80
76080 On ch=1 n=d5 v=0
76080 On ch=1 n=c5 v=80
76320 On ch=1 n=c5 v=0
76320 On ch=1 n=a#4 v=80
76480 On ch=1 n=a#4 v=0
76480 On ch=1 n=g#4 v=80
76640 On ch=1 n=g#4 v=0
76640 On ch=1 n=f#4 v=80
76800 On ch=1 n=f#4 v=0
76800 On ch=1 n=a#2 v=0
76800 On ch=1 n=d5 v=70
76800 On ch=1 n=a#2 v=70
77040 On ch=1 n=d5 v=0
77040 On ch=1 n=c5 v=70
77280 On ch=1 n=c5 v=0
77280 On ch=1 n=a#4 v=70
77520 On ch=1 n=a#4 v=0
77520 On ch=1 n=g#4 v=70
78080 On ch=1 n=g#4 v=0
78720 On ch=1 n=a#2 v=0
78720 On ch=1 n=a#2 v=60
79200 On ch=1 n=d#4 v=60
79236 On ch=1 n=f#4 v=70
79272 On ch=1 n=f#4 v=0
79272 On ch=1 n=g#4 v=70
79308 On ch=1 n=g#4 v=0
79308 On ch=1 n=a#4 v=70
79344 On ch=1 n=a#4 v=0
79344 On ch=1 n=c#5 v=70
79380 On ch=1 n=c#5 v=0
80160 On ch=1 n=g#4 v=80
80280 On ch=1 n=g#4 v=0
80280 On ch=1 n=a#4 v=80
80400 On ch=1 n=a#4 v=0
80400 On ch=1 n=g#4 v=80
80520 On ch=1 n=g#4 v=0
80520 On ch=1 n=f#4 v=80
80640 On ch=1 n=f#4 v=0
80640 On ch=1 n=d#4 v=0
80640 On ch=1 n=a#2 v=0
80640 On ch=1 n=g#4 v=80
80640 On ch=1 n=a#2 v=80
80760 On ch=1 n=g#4 v=0
80760 On ch=1 n=a#4 v=80
80880 On ch=1 n=a#4 v=0
80880 On ch=1 n=g#4 v=80
81000 On ch=1 n=g#4 v=0
81000 On ch=1 n=f#4 v=80
81120 On ch=1 n=f#4 v=0
81120 On ch=1 n=d#4 v=70
81120 On ch=1 n=f#4 v=70
81140 On ch=1 n=g#4 v=70
81152 On ch=1 n=f#4 v=0
81152 On ch=1 n=d#4 v=0
81172 On ch=1 n=g#4 v=0
81172 On ch=1 n=a#4 v=80
81204 On ch=1 n=a#4 v=0
81204 On ch=1 n=c#5 v=80
81236 On ch=1 n=c#5 v=0
82080 On ch=1 n=d#4 v=80
82080 On ch=1 n=a#4 v=80
82320 On ch=1 n=a#4 v=0
82320 On ch=1 n=d#4 v=0
82320 On ch=1 n=c#5 v=80
82320 On ch=1 n=f#4 v=80
82560 On ch=1 n=f#4 v=0
82560 On ch=1 n=c#5 v=0
82560 On ch=1 n=a#2 v=0
82560 On ch=1 n=d#5 v=90
82560 On ch=1 n=a#4 v=90
82800 On ch=1 n=a#4 v=0
82800 On ch=1 n=d#5 v=0
82800 On ch=1 n=f#5 v=90
82800 On ch=1 n=c#5 v=90
83040 On ch=1 n=c#5 v=0
83040 On ch=1 n=f#5 v=0
84480 On ch=1 n=c#4 v=50
84480 On ch=1 n=g#4 v=50
84720 On ch=1 n=g#4 v=0
84720 On ch=1 n=c#4 v=0
84720 On ch=1 n=d#4 v=50
84720 On ch=1 n=f#4 v=50
84960 On ch=1 n=a#2 v=50
85080 On ch=1 n=a#2 v=0
85440 On ch=1 n=f#4 v=0
85440 On ch=1 n=d#4 v=0
85440 On ch=1 n=c#4 v=50
85440 On ch=1 n=g#4 v=50
85680 On ch=1 n=g#4 v=0
85680 On ch=1 n=c#4 v=0
85680 On ch=1 n=d#4 v=50
85680 On ch=1 n=f#4 v=50
85920 On ch=1 n=a#2 v=50
86040 On ch=1 n=a#2 v=0
86400 On ch=1 n=f#4 v=0
86400 On ch=1 n=d#4 v=0
86400 On ch=1 n=c#4 v=40
86400 On ch=1 n=g#4 v=40
86640 On ch=1 n=g#4 v=0
86640 On ch=1 n=c#4 v=0
86640 On ch=1 n=d#4 v=40
86640 On ch=1 n=f#4 v=40
86880 On ch=1 n=a#2 v=40
87000 On ch=1 n=a#2 v=0
87360 On ch=1 n=f#4 v=0
87360 On ch=1 n=d#4 v=0
87360 On ch=1 n=c#4 v=40
87360 On ch=1 n=g#4 v=40
87600 On ch=1 n=g#4 v=0
87600 On ch=1 n=c#4 v=0
87600 On ch=1 n=d#4 v=40
87600 On ch=1 n=f#4 v=40
87840 On ch=1 n=a#2 v=40
87960 On ch=1 n=a#2 v=0
88800 On ch=1 n=a#2 v=30
88920 On ch=1 n=a#2 v=0
89280 On ch=1 n=f#4 v=0
89280 On ch=1 n=d#4 v=0
89760 On ch=1 n=a#2 v=30
89880 On ch=1 n=a#2 v=0
90240 On ch=1 n=a#2 v=40
90720 On ch=1 n=f#4 v=40
90880 On ch=1 n=g#4 v=30
90920 On ch=1 n=g#4 v=0
90920 On ch=1 n=a#4 v=30
90960 On ch=1 n=a#4 v=0
90960 On ch=1 n=c5 v=30
91000 On ch=1 n=c5 v=0
91000 On ch=1 n=d5 v=30
91040 On ch=1 n=d5 v=0
91440 On ch=1 n=f#4 v=0
91680 On ch=1 n=a#2 v=0
91680 On ch=1 n=a#3 v=40
92160 On ch=1 n=a#3 v=0
92160 On ch=1 n=a#2 v=40
92640 On ch=1 n=g#4 v=40
92800 On ch=1 n=a#4 v=30
92840 On ch=1 n=a#4 v=0
92840 On ch=1 n=c5 v=30
92880 On ch=1 n=c5 v=0
92880 On ch=1 n=d5 v=30
92920 On ch=1 n=d5 v=0
92920 On ch=1 n=e5 v=30
92960 On ch=1 n=e5 v=0
93360 On ch=1 n=g#4 v=0
93600 On ch=1 n=a#2 v=0
93600 On ch=1 n=a#3 v=40
94080 On ch=1 n=a#3 v=0
94080 On ch=1 n=a#2 v=40
94560 On ch=1 n=f#4 v=30
94680 On ch=1 n=f#4 v=0
94680 On ch=1 n=g#4 v=30
94720 On ch=1 n=g#4 v=0
94720 On ch=1 n=a#4 v=30
94760 On ch=1 n=a#4 v=0
94760 On ch=1 n=c5 v=30
94800 On ch=1 n=c5 v=0
94800 On ch=1 n=d5 v=30
94840 On ch=1 n=d5 v=0
95520 On ch=1 n=a#2 v=0
95520 On ch=1 n=a#3 v=40
96000 On ch=1 n=a#3 v=0
96000 On ch=1 n=a#2 v=40
96480 On ch=1 n=g#4 v=30
96600 On ch=1 n=g#4 v=0
96600 On ch=1 n=a#4 v=30
96640 On ch=1 n=a#4 v=0
96640 On ch=1 n=c5 v=30
96680 On ch=1 n=c5 v=0
96680 On ch=1 n=d5 v=30
96720 On ch=1 n=d5 v=0
96720 On ch=1 n=e5 v=30
96760 On ch=1 n=e5 v=0
97440 On ch=1 n=a#2 v=0
97440 On ch=1 n=a#3 v=40
97920 On ch=1 n=a#3 v=0
97920 On ch=1 n=a#2 v=40
98400 On ch=1 n=f#4 v=30
98520 On ch=1 n=f#4 v=0
98520 On ch=1 n=g#4 v=30
98560 On ch=1 n=g#4 v=0
98560 On ch=1 n=a#4 v=30
98600 On ch=1 n=a#4 v=0
98600 On ch=1 n=c5 v=30
98640 On ch=1 n=c5 v=0
98640 On ch=1 n=d5 v=30
98680 On ch=1 n=d5 v=0
99360 On ch=1 n=a#2 v=0
99360 On ch=1 n=a#3 v=40
99840 On ch=1 n=a#3 v=0
99840 On ch=1 n=a#2 v=40
100320 On ch=1 n=g#4 v=30
100440 On ch=1 n=g#4 v=0
100440 On ch=1 n=a#4 v=30
100480 On ch=1 n=a#4 v=0
100480 On ch=1 n=c5 v=30
100520 On ch=1 n=c5 v=0
100520 On ch=1 n=d5 v=30
100560 On ch=1 n=d5 v=0
100560 On ch=1 n=e5 v=30
100600 On ch=1 n=e5 v=0
101280 On ch=1 n=a#2 v=0
101280 On ch=1 n=a#3 v=40
101760 On ch=1 n=a#3 v=0
101760 On ch=1 n=a#2 v=40
102240 On ch=1 n=a#4 v=40
102240 On ch=1 n=f#4 v=40
102240 On ch=1 n=c4 v=40
102720 On ch=1 n=c4 v=0
102720 On ch=1 n=f#4 v=0
102720 On ch=1 n=a#4 v=0
102720 On ch=1 n=d5 v=40
102720 On ch=1 n=a#4 v=40
102720 On ch=1 n=e4 v=40
103200 On ch=1 n=e4 v=0
103200 On ch=1 n=a#4 v=0
103200 On ch=1 n=d5 v=0
103200 On ch=1 n=e5 v=40
103200 On ch=1 n=c5 v=40
103200 On ch=1 n=f#4 v=40
103680 On ch=1 n=f#4 v=0
103680 On ch=1 n=c5 v=0
103680 On ch=1 n=e5 v=0
103680 On ch=1 n=a#2 v=0
103680 On ch=1 n=a#2 v=40
104160 On ch=1 n=f#4 v=40
104320 On ch=1 n=g#4 v=30
104360 On ch=1 n=g#4 v=0
104360 On ch=1 n=a#4 v=30
104400 On ch=1 n=a#4 v=0
104400 On ch=1 n=c5 v=30
104440 On ch=1 n=c5 v=0
104440 On ch=1 n=d5 v=30
104480 On ch=1 n=d5 v=0
104880 On ch=1 n=f#4 v=0
105120 On ch=1 n=a#2 v=0
105120 On ch=1 n=a#3 v=40
105600 On ch=1 n=a#3 v=0
105600 On ch=1 n=a#2 v=40
106080 On ch=1 n=c5 v=40
106080 On ch=1 n=g#4 v=40
106080 On ch=1 n=d4 v=40
106560 On ch=1 n=d4 v=0
106560 On ch=1 n=g#4 v=0
106560 On ch=1 n=c5 v=0
106560 On ch=1 n=e5 v=40
106560 On ch=1 n=c5 v=40
106560 On ch=1 n=f#4 v=40
107040 On ch=1 n=f#4 v=0
107040 On ch=1 n=c5 v=0
107040 On ch=1 n=e5 v=0
107040 On ch=1 n=f#5 v=40
107040 On ch=1 n=d5 v=40
107040 On ch=1 n=g#4 v=40
107520 On ch=1 n=g#4 v=0
107520 On ch=1 n=d5 v=0
107520 On ch=1 n=f#5 v=0
107520 On ch=1 n=a#2 v=0
107520 On ch=1 n=a#2 v=40
108000 On ch=1 n=g#4 v=40
108160 On ch=1 n=a#4 v=30
108200 On ch=1 n=a#4 v=0
108200 On ch=1 n=c5 v=30
108240 On ch=1 n=c5 v=0
108240 On ch=1 n=d5 v=30
108280 On ch=1 n=d5 v=0
108280 On ch=1 n=e5 v=30
108320 On ch=1 n=e5 v=0
108720 On ch=1 n=g#4 v=0
108960 On ch=1 n=a#2 v=0
108960 On ch=1 n=a#3 v=40
109440 On ch=1 n=a#3 v=0
109440 On ch=1 n=a#2 v=40
109920 On ch=1 n=a#4 v=40
109920 On ch=1 n=f#4 v=40
109920 On ch=1 n=c4 v=40
110400 On ch=1 n=c4 v=0
110400 On ch=1 n=f#4 v=0
110400 On ch=1 n=a#4 v=0
110400 On ch=1 n=a#2 v=0
110400 On ch=1 n=d5 v=40
110400 On ch=1 n=a#4 v=40
110400 On ch=1 n=e4 v=40
110880 On ch=1 n=e4 v=0
110880 On ch=1 n=a#4 v=0
110880 On ch=1 n=d5 v=0
110880 On ch=1 n=e5 v=40
110880 On ch=1 n=c5 v=40
110880 On ch=1 n=f#4 v=40
111360 On ch=1 n=f#4 v=0
111360 On ch=1 n=c5 v=0
111360 On ch=1 n=e5 v=0
111360 On ch=1 n=a#2 v=40
111840 On ch=1 n=c5 v=40
111840 On ch=1 n=g#4 v=40
111840 On ch=1 n=d4 v=40
112320 On ch=1 n=d4 v=0
112320 On ch=1 n=g#4 v=0
112320 On ch=1 n=c5 v=0
112320 On ch=1 n=a#2 v=0
112320 On ch=1 n=e5 v=40
112320 On ch=1 n=c5 v=40
112320 On ch=1 n=f#4 v=40
112800 On ch=1 n=f#4 v=0
112800 On ch=1 n=c5 v=0
112800 On ch=1 n=e5 v=0
112800 On ch=1 n=f#5 v=40
112800 On ch=1 n=d5 v=40
112800 On ch=1 n=g#4 v=40
113280 On ch=1 n=g#4 v=0
113280 On ch=1 n=d5 v=0
113280 On ch=1 n=f#5 v=0
113280 On ch=1 n=a#2 v=40
113760 On ch=1 n=a#4 v=40
113760 On ch=1 n=f#4 v=40
113760 On ch=1 n=c4 v=40
114240 On ch=1 n=c4 v=0
114240 On ch=1 n=f#4 v=0
114240 On ch=1 n=a#4 v=0
114240 On ch=1 n=a#2 v=0
114240 On ch=1 n=d5 v=40
114240 On ch=1 n=a#4 v=40
114240 On ch=1 n=e4 v=40
114720 On ch=1 n=e4 v=0
114720 On ch=1 n=a#4 v=0
114720 On ch=1 n=d5 v=0
114720 On ch=1 n=e5 v=40
114720 On ch=1 n=c5 v=40
114720 On ch=1 n=f#4 v=40
115200 On ch=1 n=f#4 v=0
115200 On ch=1 n=c5 v=0
115200 On ch=1 n=e5 v=0
115200 On ch=1 n=a#2 v=40
115680 On ch=1 n=c5 v=40
115680 On ch=1 n=g#4 v=40
115680 On ch=1 n=d4 v=40
116160 On ch=1 n=d4 v=0
116160 On ch=1 n=g#4 v=0
116160 On ch=1 n=c5 v=0
116160 On ch=1 n=a#2 v=0
116160 On ch=1 n=e5 v=40
116160 On ch=1 n=c5 v=40
116160 On ch=1 n=f#4 v=40
116640 On ch=1 n=f#4 v=0
116640 On ch=1 n=c5 v=0
116640 On ch=1 n=e5 v=0
117120 On ch=1 n=f#4 v=40
117640 On ch=1 n=f#4 v=0
117680 On ch=1 n=g#4 v=30
117720 On ch=1 n=g#4 v=0
117720 On ch=1 n=a#4 v=30
117760 On ch=1 n=a#4 v=0
117760 On ch=1 n=c5 v=30
117800 On ch=1 n=c5 v=0
117800 On ch=1 n=d5 v=30
117840 On ch=1 n=d5 v=0
117840 On ch=1 n=e5 v=30
117880 On ch=1 n=e5 v=0
119040 On ch=1 n=f#4 v=40
119560 On ch=1 n=f#4 v=0
119600 On ch=1 n=g#4 v=30
119640 On ch=1 n=g#4 v=0
119640 On ch=1 n=a#4 v=30
119680 On ch=1 n=a#4 v=0
119680 On ch=1 n=c5 v=30
119720 On ch=1 n=c5 v=0
119720 On ch=1 n=d5 v=30
119760 On ch=1 n=d5 v=0
119760 On ch=1 n=e5 v=30
119800 On ch=1 n=e5 v=0
120960 On ch=1 n=f#4 v=40
121480 On ch=1 n=f#4 v=0
121520 On ch=1 n=g#4 v=30
121560 On ch=1 n=g#4 v=0
121560 On ch=1 n=a#4 v=30
121600 On ch=1 n=a#4 v=0
121600 On ch=1 n=c5 v=30
121640 On ch=1 n=c5 v=0
121640 On ch=1 n=d5 v=30
121680 On ch=1 n=d5 v=0
121680 On ch=1 n=e5 v=30
121720 On ch=1 n=e5 v=0
121720 Meta TrkEnd
TrkEnd
MTrk
0 SeqSpec 43 00 01 00
0 Meta TrkName "Pedal"
0 Meta 0x21 00
960 Par ch=1 c=64 v=127
3780 Par ch=1 c=64 v=0
4800 Par ch=1 c=64 v=127
7620 Par ch=1 c=64 v=0
7680 Par ch=1 c=64 v=127
11460 Par ch=1 c=64 v=0
11520 Par ch=1 c=64 v=127
15300 Par ch=1 c=64 v=0
15360 Par ch=1 c=64 v=127
18180 Par ch=1 c=64 v=0
18240 Par ch=1 c=64 v=127
21060 Par ch=1 c=64 v=0
21120 Par ch=1 c=64 v=127
24900 Par ch=1 c=64 v=0
24960 Par ch=1 c=64 v=127
26820 Par ch=1 c=64 v=0
26880 Par ch=1 c=64 v=127
30660 Par ch=1 c=64 v=0
30720 Par ch=1 c=64 v=127
32580 Par ch=1 c=64 v=0
32640 Par ch=1 c=64 v=127
34500 Par ch=1 c=64 v=0
34560 Par ch=1 c=64 v=127
36420 Par ch=1 c=64 v=0
36480 Par ch=1 c=64 v=127
38340 Par ch=1 c=64 v=0
38400 Par ch=1 c=64 v=127
41220 Par ch=1 c=64 v=0
42240 Par ch=1 c=64 v=127
44100 Par ch=1 c=64 v=0
44160 Par ch=1 c=64 v=127
46020 Par ch=1 c=64 v=0
46080 Par ch=1 c=64 v=127
47940 Par ch=1 c=64 v=0
48000 Par ch=1 c=64 v=127
49860 Par ch=1 c=64 v=0
49920 Par ch=1 c=64 v=127
51780 Par ch=1 c=64 v=0
51840 Par ch=1 c=64 v=127
53700 Par ch=1 c=64 v=0
53760 Par ch=1 c=64 v=127
55620 Par ch=1 c=64 v=0
55680 Par ch=1 c=64 v=127
57540 Par ch=1 c=64 v=0
57600 Par ch=1 c=64 v=127
59460 Par ch=1 c=64 v=0
59520 Par ch=1 c=64 v=127
61380 Par ch=1 c=64 v=0
61440 Par ch=1 c=64 v=127
63300 Par ch=1 c=64 v=0
63360 Par ch=1 c=64 v=127
65220 Par ch=1 c=64 v=0
65280 Par ch=1 c=64 v=127
67140 Par ch=1 c=64 v=0
67200 Par ch=1 c=64 v=127
69060 Par ch=1 c=64 v=0
69120 Par ch=1 c=64 v=127
70980 Par ch=1 c=64 v=0
71040 Par ch=1 c=64 v=127
72900 Par ch=1 c=64 v=0
72960 Par ch=1 c=64 v=127
74820 Par ch=1 c=64 v=0
74880 Par ch=1 c=64 v=127
76740 Par ch=1 c=64 v=0
76800 Par ch=1 c=64 v=127
78660 Par ch=1 c=64 v=0
78720 Par ch=1 c=64 v=127
80580 Par ch=1 c=64 v=0
80640 Par ch=1 c=64 v=127
82500 Par ch=1 c=64 v=0
82560 Par ch=1 c=64 v=127
84420 Par ch=1 c=64 v=0
84480 Par ch=1 c=64 v=127
86340 Par ch=1 c=64 v=0
86400 Par ch=1 c=64 v=127
88260 Par ch=1 c=64 v=0
88320 Par ch=1 c=64 v=127
90180 Par ch=1 c=64 v=0
90240 Par ch=1 c=64 v=127
92100 Par ch=1 c=64 v=0
92160 Par ch=1 c=64 v=127
94020 Par ch=1 c=64 v=0
94080 Par ch=1 c=64 v=127
95940 Par ch=1 c=64 v=0
96000 Par ch=1 c=64 v=127
97860 Par ch=1 c=64 v=0
97920 Par ch=1 c=64 v=127
99780 Par ch=1 c=64 v=0
99840 Par ch=1 c=64 v=127
101700 Par ch=1 c=64 v=0
101760 Par ch=1 c=64 v=127
103620 Par ch=1 c=64 v=0
103680 Par ch=1 c=64 v=127
105540 Par ch=1 c=64 v=0
105600 Par ch=1 c=64 v=127
107460 Par ch=1 c=64 v=0
107520 Par ch=1 c=64 v=127
109380 Par ch=1 c=64 v=0
109440 Par ch=1 c=64 v=127
111300 Par ch=1 c=64 v=0
111360 Par ch=1 c=64 v=127
113220 Par ch=1 c=64 v=0
113280 Par ch=1 c=64 v=127
115140 Par ch=1 c=64 v=0
115200 Par ch=1 c=64 v=127
117060 Par ch=1 c=64 v=0
117120 Par ch=1 c=64 v=127
118980 Par ch=1 c=64 v=0
119040 Par ch=1 c=64 v=127
120900 Par ch=1 c=64 v=0
120960 Par ch=1 c=64 v=127
122820 Par ch=1 c=64 v=0
122880 Par ch=1 c=64 v=127
124800 Par ch=1 c=64 v=0
124800 Meta TrkEnd
TrkEnd
MTrk
0 SeqSpec 43 00 01 00
0 Meta TrkName "Debussy, Claude"
0 Meta 0x21 00
0 Meta TrkEnd
TrkEnd
MTrk
0 SeqSpec 43 00 01 00
0 Meta TrkName "Prelude Book 1 No. 02 Voiles"
0 Meta 0x21 00
0 Meta TrkEnd
TrkEnd
MTrk
0 SeqSpec 43 00 01 00
0 Meta TrkName "Jeruen E. Dery jawjaw@hotmail.com"
0 Meta 0x21 00
0 Meta TrkEnd
TrkEnd
