MFile 1 9 480
MTrk
0 TimeSig 2/2 48 8
0 KeySig -3 major
0 Tempo 434783
10560 Tempo 454545
11520 Tempo 476190
12480 Tempo 434783
13440 TimeSig 3/2 48 8
13440 Tempo 240000
14400 Tempo 434783
16320 Tempo 240000
17280 Tempo 434783
19200 Tempo 240000
20160 Tempo 434783
22080 Tempo 240000
23040 Tempo 434783
24960 Tempo 240000
25920 Tempo 434783
27840 TimeSig 2/2 48 8
29760 Tempo 425532
31680 Tempo 416667
35520 Tempo 425532
36480 Tempo 434783
60480 TimeSig 2/4 24 8
60480 Tempo 672957
62400 TimeSig 3/4 24 8
71040 TimeSig 2/4 24 8
72960 TimeSig 3/4 24 8
74400 TimeSig 2/4 24 8
81120 Tempo 952381
81600 Tempo 1034483
82080 Tempo 672957
85920 TimeSig 2/2 48 8
85920 KeySig 0 major
85920 Tempo 434783
104160 Tempo 476190
105120 KeySig -3 major
105120 Tempo 434783
120480 Tempo 454545
121440 Tempo 465116
122400 Tempo 476190
123360 Tempo 487805
124320 Tempo 434783
131040 Tempo 517241
132000 TimeSig 2/4 24 8
132000 KeySig 0 major
132000 Tempo 672957
139680 Tempo 952381
140640 Tempo 1000000
141600 TimeSig 2/2 48 8
141600 KeySig -3 major
141600 Tempo 434783
143520 Tempo 444444
145440 Tempo 454545
147360 Tempo 465116
149280 Tempo 476190
153120 Tempo 500000
156960 Tempo 416667
156960 Meta TrkEnd
TrkEnd
MTrk
0 SeqSpec 43 00 01 00
0 Meta TrkName "Right Treble"
0 Meta 0x21 00
0 On ch=1 n=f5 v=60
360 On ch=1 n=f5 v=0
360 On ch=1 n=g5 v=60
480 On ch=1 n=g5 v=0
480 On ch=1 n=c6 v=60
840 On ch=1 n=c6 v=0
840 On ch=1 n=g#5 v=60
960 On ch=1 n=g#5 v=0
960 On ch=1 n=g5 v=60
1320 On ch=1 n=g5 v=0
1320 On ch=1 n=f5 v=60
1440 On ch=1 n=f5 v=0
1440 On ch=1 n=d#5 v=60
1800 On ch=1 n=d#5 v=0
1800 On ch=1 n=d5 v=60
1920 On ch=1 n=d5 v=0
1920 On ch=1 n=c5 v=60
2280 On ch=1 n=c5 v=0
2280 On ch=1 n=d5 v=60
2400 On ch=1 n=d5 v=0
2400 On ch=1 n=g5 v=60
2760 On ch=1 n=g5 v=0
2760 On ch=1 n=d#5 v=60
2880 On ch=1 n=d#5 v=0
2880 On ch=1 n=c5 v=60
3040 On ch=1 n=c5 v=0
3040 On ch=1 n=d5 v=60
3200 On ch=1 n=d5 v=0
3200 On ch=1 n=d#5 v=60
3360 On ch=1 n=d#5 v=0
3360 On ch=1 n=f5 v=60
3520 On ch=1 n=f5 v=0
3520 On ch=1 n=g5 v=60
3680 On ch=1 n=g5 v=0
3680 On ch=1 n=d#5 v=60
3840 On ch=1 n=d#5 v=0
3840 On ch=1 n=f5 v=60
4200 On ch=1 n=f5 v=0
4200 On ch=1 n=g5 v=60
4320 On ch=1 n=g5 v=0
4320 On ch=1 n=c6 v=60
4680 On ch=1 n=c6 v=0
4680 On ch=1 n=g#5 v=60
4800 On ch=1 n=g#5 v=0
4800 On ch=1 n=f5 v=65
4860 On ch=1 n=f5 v=0
4860 On ch=1 n=g5 v=65
4920 On ch=1 n=g5 v=0
4920 On ch=1 n=g#5 v=65
4980 On ch=1 n=g#5 v=0
4980 On ch=1 n=a#5 v=65
5040 On ch=1 n=a#5 v=0
5040 On ch=1 n=c6 v=70
5100 On ch=1 n=c6 v=0
5100 On ch=1 n=d6 v=70
5160 On ch=1 n=d6 v=0
5160 On ch=1 n=d#6 v=70
5220 On ch=1 n=d#6 v=0
5220 On ch=1 n=f6 v=70
5280 On ch=1 n=f6 v=0
5280 On ch=1 n=g6 v=65
5640 On ch=1 n=g6 v=0
5640 On ch=1 n=f6 v=65
5760 On ch=1 n=f6 v=0
5760 On ch=1 n=c6 v=60
6120 On ch=1 n=c6 v=0
6120 On ch=1 n=a#5 v=60
6240 On ch=1 n=a#5 v=0
6240 On ch=1 n=g5 v=60
6600 On ch=1 n=g5 v=0
6600 On ch=1 n=f5 v=60
6720 On ch=1 n=f5 v=0
6720 On ch=1 n=c5 v=60
6880 On ch=1 n=c5 v=0
6880 On ch=1 n=d5 v=60
7040 On ch=1 n=d5 v=0
7040 On ch=1 n=d#5 v=60
7200 On ch=1 n=d#5 v=0
7200 On ch=1 n=f5 v=60
7360 On ch=1 n=f5 v=0
7360 On ch=1 n=g5 v=60
7520 On ch=1 n=g5 v=0
7520 On ch=1 n=d#5 v=60
7680 On ch=1 n=d#5 v=0
7680 On ch=1 n=f5 v=65
7740 On ch=1 n=f5 v=0
7740 On ch=1 n=g5 v=65
7800 On ch=1 n=g5 v=0
7800 On ch=1 n=g#5 v=65
7860 On ch=1 n=g#5 v=0
7860 On ch=1 n=a#5 v=65
7920 On ch=1 n=a#5 v=0
7920 On ch=1 n=c6 v=70
7980 On ch=1 n=c6 v=0
7980 On ch=1 n=d6 v=70
8040 On ch=1 n=d6 v=0
8040 On ch=1 n=d#6 v=70
8100 On ch=1 n=d#6 v=0
8100 On ch=1 n=f6 v=70
8160 On ch=1 n=f6 v=0
8160 On ch=1 n=g6 v=65
8520 On ch=1 n=g6 v=0
8520 On ch=1 n=f6 v=65
8640 On ch=1 n=f6 v=0
8640 On ch=1 n=c6 v=60
9000 On ch=1 n=c6 v=0
9000 On ch=1 n=a#5 v=60
9120 On ch=1 n=a#5 v=0
9120 On ch=1 n=g5 v=60
9480 On ch=1 n=g5 v=0
9480 On ch=1 n=f5 v=60
9600 On ch=1 n=f5 v=0
9600 On ch=1 n=c5 v=60
9760 On ch=1 n=c5 v=0
9760 On ch=1 n=d5 v=60
9920 On ch=1 n=d5 v=0
9920 On ch=1 n=d#5 v=60
10080 On ch=1 n=d#5 v=0
10080 On ch=1 n=f5 v=60
10240 On ch=1 n=f5 v=0
10240 On ch=1 n=g5 v=60
10400 On ch=1 n=g5 v=0
10400 On ch=1 n=d#5 v=60
12960 On ch=1 n=d#5 v=0
12960 On ch=1 n=d5 v=70
13040 On ch=1 n=d5 v=0
13120 On ch=1 n=c#5 v=70
13200 On ch=1 n=c#5 v=0
13280 On ch=1 n=c5 v=70
13360 On ch=1 n=c5 v=0
13920 On ch=1 n=f5 v=60
14040 On ch=1 n=f5 v=0
14040 On ch=1 n=g#5 v=60
14160 On ch=1 n=g#5 v=0
14160 On ch=1 n=b5 v=60
14280 On ch=1 n=b5 v=0
14280 On ch=1 n=d#6 v=60
14400 On ch=1 n=d#6 v=0
14400 On ch=1 n=g6 v=60
14760 On ch=1 n=d#6 v=60
14880 On ch=1 n=d#6 v=0
14880 On ch=1 n=g6 v=0
14880 On ch=1 n=b5 v=60
15240 On ch=1 n=b5 v=0
15240 On ch=1 n=g#5 v=60
15360 On ch=1 n=g#5 v=0
16800 On ch=1 n=g5 v=60
16920 On ch=1 n=g5 v=0
16920 On ch=1 n=a#5 v=60
17040 On ch=1 n=a#5 v=0
17040 On ch=1 n=c#6 v=60
17160 On ch=1 n=c#6 v=0
17160 On ch=1 n=f6 v=60
17280 On ch=1 n=f6 v=0
17280 On ch=1 n=a6 v=60
17640 On ch=1 n=f6 v=60
17760 On ch=1 n=f6 v=0
17760 On ch=1 n=a6 v=0
17760 On ch=1 n=c#6 v=60
18120 On ch=1 n=c#6 v=0
18120 On ch=1 n=a#5 v=60
18240 On ch=1 n=a#5 v=0
19680 On ch=1 n=f5 v=60
19800 On ch=1 n=f5 v=0
19800 On ch=1 n=g#5 v=60
19920 On ch=1 n=g#5 v=0
19920 On ch=1 n=b5 v=60
20040 On ch=1 n=b5 v=0
20040 On ch=1 n=d#6 v=60
20160 On ch=1 n=d#6 v=0
20160 On ch=1 n=g6 v=60
20520 On ch=1 n=d#6 v=60
20640 On ch=1 n=d#6 v=0
20640 On ch=1 n=g6 v=0
20640 On ch=1 n=b5 v=60
21000 On ch=1 n=b5 v=0
21000 On ch=1 n=g#5 v=60
21120 On ch=1 n=g#5 v=0
22560 On ch=1 n=g5 v=60
22680 On ch=1 n=g5 v=0
22680 On ch=1 n=a#5 v=60
22800 On ch=1 n=a#5 v=0
22800 On ch=1 n=c#6 v=60
22920 On ch=1 n=c#6 v=0
22920 On ch=1 n=f6 v=60
23040 On ch=1 n=f6 v=0
23040 On ch=1 n=a6 v=60
23400 On ch=1 n=f6 v=60
23520 On ch=1 n=f6 v=0
23520 On ch=1 n=a6 v=0
23520 On ch=1 n=c#6 v=60
23880 On ch=1 n=c#6 v=0
23880 On ch=1 n=a#5 v=60
24000 On ch=1 n=a#5 v=0
25440 On ch=1 n=g5 v=80
25560 On ch=1 n=g5 v=0
25560 On ch=1 n=a#5 v=80
25680 On ch=1 n=a#5 v=0
25680 On ch=1 n=c#6 v=80
25800 On ch=1 n=c#6 v=0
25800 On ch=1 n=f6 v=80
25920 On ch=1 n=f6 v=0
25920 On ch=1 n=a6 v=100
26400 On ch=1 n=a6 v=0
26400 On ch=1 n=a6 v=100
26460 On ch=1 n=a6 v=0
26460 On ch=1 n=a#6 v=100
26520 On ch=1 n=a#6 v=0
26520 On ch=1 n=a6 v=100
26580 On ch=1 n=a6 v=0
26580 On ch=1 n=a#6 v=100
26640 On ch=1 n=a#6 v=0
26640 On ch=1 n=a6 v=100
26700 On ch=1 n=a6 v=0
26700 On ch=1 n=a#6 v=100
26760 On ch=1 n=a#6 v=0
26760 On ch=1 n=a6 v=100
26820 On ch=1 n=a6 v=0
26820 On ch=1 n=a#6 v=100
26880 On ch=1 n=a#6 v=0
26880 On ch=1 n=a6 v=100
26940 On ch=1 n=a6 v=0
26940 On ch=1 n=a#6 v=100
27000 On ch=1 n=a#6 v=0
27000 On ch=1 n=a6 v=100
27060 On ch=1 n=a6 v=0
27060 On ch=1 n=a#6 v=100
27120 On ch=1 n=a#6 v=0
27120 On ch=1 n=a6 v=100
27180 On ch=1 n=a6 v=0
27180 On ch=1 n=a#6 v=100
27240 On ch=1 n=a#6 v=0
27240 On ch=1 n=a6 v=100
27300 On ch=1 n=a6 v=0
27300 On ch=1 n=a#6 v=100
27360 On ch=1 n=a#6 v=0
27360 On ch=1 n=a6 v=100
27420 On ch=1 n=a6 v=0
27420 On ch=1 n=a#6 v=100
27480 On ch=1 n=a#6 v=0
27480 On ch=1 n=a6 v=100
27540 On ch=1 n=a6 v=0
27540 On ch=1 n=a#6 v=100
27600 On ch=1 n=a#6 v=0
27600 On ch=1 n=a6 v=100
27660 On ch=1 n=a6 v=0
27660 On ch=1 n=a#6 v=100
27720 On ch=1 n=a#6 v=0
27720 On ch=1 n=a6 v=100
27780 On ch=1 n=a6 v=0
27780 On ch=1 n=a#6 v=100
27840 On ch=1 n=a#6 v=0
27840 On ch=1 n=a6 v=100
27900 On ch=1 n=a6 v=0
27900 On ch=1 n=a#6 v=100
27960 On ch=1 n=a#6 v=0
27960 On ch=1 n=a6 v=100
28020 On ch=1 n=a6 v=0
28020 On ch=1 n=a#6 v=100
28080 On ch=1 n=a#6 v=0
28080 On ch=1 n=a6 v=100
28140 On ch=1 n=a6 v=0
28140 On ch=1 n=a#6 v=100
28200 On ch=1 n=a#6 v=0
28200 On ch=1 n=a6 v=100
28260 On ch=1 n=a6 v=0
28260 On ch=1 n=a#6 v=100
28320 On ch=1 n=a#6 v=0
28320 On ch=1 n=a6 v=100
28380 On ch=1 n=a6 v=0
28380 On ch=1 n=a#6 v=100
28440 On ch=1 n=a#6 v=0
28440 On ch=1 n=a6 v=100
28500 On ch=1 n=a6 v=0
28500 On ch=1 n=a#6 v=100
28560 On ch=1 n=a#6 v=0
28560 On ch=1 n=a6 v=100
28620 On ch=1 n=a6 v=0
28620 On ch=1 n=a#6 v=100
28680 On ch=1 n=a#6 v=0
28680 On ch=1 n=a6 v=100
28740 On ch=1 n=a6 v=0
28740 On ch=1 n=a#6 v=100
28800 On ch=1 n=a#6 v=0
28800 On ch=1 n=a6 v=100
28860 On ch=1 n=a6 v=0
28860 On ch=1 n=a#6 v=100
28920 On ch=1 n=a#6 v=0
28920 On ch=1 n=a6 v=100
28980 On ch=1 n=a6 v=0
28980 On ch=1 n=a#6 v=100
29040 On ch=1 n=a#6 v=0
29040 On ch=1 n=a6 v=100
29100 On ch=1 n=a6 v=0
29100 On ch=1 n=a#6 v=100
29160 On ch=1 n=a#6 v=0
29160 On ch=1 n=a6 v=100
29220 On ch=1 n=a6 v=0
29220 On ch=1 n=a#6 v=100
29280 On ch=1 n=a#6 v=0
29280 On ch=1 n=a6 v=100
29340 On ch=1 n=a6 v=0
29340 On ch=1 n=a#6 v=100
29400 On ch=1 n=a#6 v=0
29400 On ch=1 n=a6 v=100
29460 On ch=1 n=a6 v=0
29460 On ch=1 n=a#6 v=100
29520 On ch=1 n=a#6 v=0
29520 On ch=1 n=a6 v=100
29580 On ch=1 n=a6 v=0
29580 On ch=1 n=a#6 v=100
29640 On ch=1 n=a#6 v=0
29640 On ch=1 n=a6 v=100
29700 On ch=1 n=a6 v=0
29700 On ch=1 n=a#6 v=100
29760 On ch=1 n=a#6 v=0
29880 On ch=1 n=a#6 v=100
30000 On ch=1 n=a#6 v=0
30000 On ch=1 n=a6 v=100
30120 On ch=1 n=a6 v=0
30120 On ch=1 n=a#6 v=100
30240 On ch=1 n=a#6 v=0
30360 On ch=1 n=a#6 v=100
30480 On ch=1 n=a#6 v=0
30480 On ch=1 n=g#6 v=100
30600 On ch=1 n=g#6 v=0
30600 On ch=1 n=a#6 v=100
30720 On ch=1 n=a#6 v=0
30840 On ch=1 n=a#6 v=100
30960 On ch=1 n=a#6 v=0
30960 On ch=1 n=g6 v=100
31080 On ch=1 n=g6 v=0
31080 On ch=1 n=a#6 v=100
31200 On ch=1 n=a#6 v=0
31320 On ch=1 n=a#6 v=100
31440 On ch=1 n=a#6 v=0
31440 On ch=1 n=f#6 v=100
31560 On ch=1 n=f#6 v=0
31560 On ch=1 n=a#6 v=100
31680 On ch=1 n=a#6 v=0
31800 On ch=1 n=a#5 v=100
31920 On ch=1 n=a#5 v=0
31920 On ch=1 n=a5 v=100
32040 On ch=1 n=a5 v=0
32040 On ch=1 n=a#5 v=100
32160 On ch=1 n=a#5 v=0
32280 On ch=1 n=a#5 v=100
32400 On ch=1 n=a#5 v=0
32400 On ch=1 n=g#5 v=100
32520 On ch=1 n=g#5 v=0
32520 On ch=1 n=a#5 v=100
32640 On ch=1 n=a#5 v=0
32760 On ch=1 n=a#5 v=100
32880 On ch=1 n=a#5 v=0
32880 On ch=1 n=g5 v=100
33000 On ch=1 n=g5 v=0
33000 On ch=1 n=a#5 v=100
33120 On ch=1 n=a#5 v=0
33240 On ch=1 n=a#5 v=100
33360 On ch=1 n=a#5 v=0
33360 On ch=1 n=f#5 v=100
33480 On ch=1 n=f#5 v=0
33480 On ch=1 n=a#5 v=100
33600 On ch=1 n=a#5 v=0
33600 On ch=1 n=a4 v=90
33660 On ch=1 n=a4 v=0
33660 On ch=1 n=a#4 v=90
33720 On ch=1 n=a#4 v=0
33720 On ch=1 n=a4 v=90
33780 On ch=1 n=a4 v=0
33780 On ch=1 n=a#4 v=90
33840 On ch=1 n=a#4 v=0
33840 On ch=1 n=a4 v=90
33900 On ch=1 n=a4 v=0
33900 On ch=1 n=a#4 v=90
33960 On ch=1 n=a#4 v=0
33960 On ch=1 n=a4 v=90
34020 On ch=1 n=a4 v=0
34020 On ch=1 n=a#4 v=90
34080 On ch=1 n=a#4 v=0
34080 On ch=1 n=a4 v=90
34140 On ch=1 n=a4 v=0
34140 On ch=1 n=a#4 v=90
34200 On ch=1 n=a#4 v=0
34200 On ch=1 n=a4 v=90
34260 On ch=1 n=a4 v=0
34260 On ch=1 n=a#4 v=90
34320 On ch=1 n=a#4 v=0
34320 On ch=1 n=a4 v=90
34380 On ch=1 n=a4 v=0
34380 On ch=1 n=a#4 v=90
34440 On ch=1 n=a#4 v=0
34440 On ch=1 n=a4 v=90
34500 On ch=1 n=a4 v=0
34500 On ch=1 n=a#4 v=90
34560 On ch=1 n=a#4 v=0
34560 On ch=1 n=a4 v=80
34620 On ch=1 n=a4 v=0
34620 On ch=1 n=a#4 v=80
34680 On ch=1 n=a#4 v=0
34680 On ch=1 n=a4 v=80
34740 On ch=1 n=a4 v=0
34740 On ch=1 n=a#4 v=80
34800 On ch=1 n=a#4 v=0
34800 On ch=1 n=a4 v=80
34860 On ch=1 n=a4 v=0
34860 On ch=1 n=a#4 v=80
34920 On ch=1 n=a#4 v=0
34920 On ch=1 n=a4 v=80
34980 On ch=1 n=a4 v=0
34980 On ch=1 n=a#4 v=80
35040 On ch=1 n=a#4 v=0
35040 On ch=1 n=a4 v=80
35100 On ch=1 n=a4 v=0
35100 On ch=1 n=a#4 v=80
35160 On ch=1 n=a#4 v=0
35160 On ch=1 n=a4 v=80
35220 On ch=1 n=a4 v=0
35220 On ch=1 n=a#4 v=80
35280 On ch=1 n=a#4 v=0
35280 On ch=1 n=a4 v=80
35340 On ch=1 n=a4 v=0
35340 On ch=1 n=a#4 v=80
35400 On ch=1 n=a#4 v=0
35400 On ch=1 n=a4 v=80
35460 On ch=1 n=a4 v=0
35460 On ch=1 n=a#4 v=80
35520 On ch=1 n=a#4 v=0
35520 On ch=1 n=a4 v=70
35580 On ch=1 n=a4 v=0
35580 On ch=1 n=a#4 v=70
35640 On ch=1 n=a#4 v=0
35640 On ch=1 n=a4 v=70
35700 On ch=1 n=a4 v=0
35700 On ch=1 n=a#4 v=70
35760 On ch=1 n=a#4 v=0
35760 On ch=1 n=a4 v=70
35820 On ch=1 n=a4 v=0
35820 On ch=1 n=a#4 v=70
35880 On ch=1 n=a#4 v=0
35880 On ch=1 n=a4 v=70
35940 On ch=1 n=a4 v=0
35940 On ch=1 n=a#4 v=70
36000 On ch=1 n=a#4 v=0
36000 On ch=1 n=a4 v=70
36060 On ch=1 n=a4 v=0
36060 On ch=1 n=a#4 v=70
36120 On ch=1 n=a#4 v=0
36120 On ch=1 n=a4 v=70
36180 On ch=1 n=a4 v=0
36180 On ch=1 n=a#4 v=70
36240 On ch=1 n=a#4 v=0
36240 On ch=1 n=a4 v=70
36300 On ch=1 n=a4 v=0
36300 On ch=1 n=a#4 v=70
36360 On ch=1 n=a#4 v=0
36360 On ch=1 n=a4 v=70
36420 On ch=1 n=a4 v=0
36420 On ch=1 n=a#4 v=70
36480 On ch=1 n=a#4 v=0
36480 On ch=1 n=a4 v=60
36640 On ch=1 n=a4 v=0
36800 On ch=1 n=a#4 v=60
36960 On ch=1 n=a#4 v=0
37120 On ch=1 n=b4 v=60
37280 On ch=1 n=b4 v=0
37380 On ch=1 n=c5 v=60
37440 On ch=1 n=c5 v=0
37440 On ch=1 n=f4 v=40
37440 On ch=1 n=a#4 v=40
37440 On ch=1 n=c#5 v=40
37680 On ch=1 n=c#5 v=0
37680 On ch=1 n=a#4 v=0
37680 On ch=1 n=f4 v=0
38340 On ch=1 n=c6 v=40
38400 On ch=1 n=c6 v=0
38400 On ch=1 n=c#6 v=40
38400 On ch=1 n=a#5 v=40
38400 On ch=1 n=f5 v=40
38640 On ch=1 n=f5 v=0
38640 On ch=1 n=a#5 v=0
38640 On ch=1 n=c#6 v=0
39300 On ch=1 n=d5 v=40
39360 On ch=1 n=d5 v=0
39360 On ch=1 n=g4 v=40
39360 On ch=1 n=c#5 v=40
39360 On ch=1 n=d#5 v=40
39600 On ch=1 n=d#5 v=0
39600 On ch=1 n=c#5 v=0
39600 On ch=1 n=g4 v=0
40260 On ch=1 n=d6 v=40
40320 On ch=1 n=d6 v=0
40320 On ch=1 n=d#6 v=40
40320 On ch=1 n=c#6 v=40
40320 On ch=1 n=g5 v=40
40560 On ch=1 n=g5 v=0
40560 On ch=1 n=c#6 v=0
40560 On ch=1 n=d#6 v=0
41220 On ch=1 n=e5 v=40
41280 On ch=1 n=e5 v=0
41280 On ch=1 n=g#4 v=40
41280 On ch=1 n=c5 v=40
41280 On ch=1 n=f5 v=40
41520 On ch=1 n=f5 v=0
41520 On ch=1 n=c5 v=0
41520 On ch=1 n=g#4 v=0
41700 On ch=1 n=e6 v=40
41760 On ch=1 n=e6 v=0
41760 On ch=1 n=f6 v=40
41760 On ch=1 n=c6 v=40
41760 On ch=1 n=g#5 v=40
42000 On ch=1 n=g#5 v=0
42000 On ch=1 n=c6 v=0
42000 On ch=1 n=f6 v=0
42720 On ch=1 n=c6 v=40
42720 On ch=1 n=f5 v=40
42960 On ch=1 n=f5 v=0
42960 On ch=1 n=c6 v=0
43200 On ch=1 n=c7 v=40
43200 On ch=1 n=f6 v=40
43440 On ch=1 n=f6 v=0
43440 On ch=1 n=c7 v=0
45060 On ch=1 n=f#5 v=40
45120 On ch=1 n=f#5 v=0
45120 On ch=1 n=b4 v=40
45120 On ch=1 n=d5 v=40
45120 On ch=1 n=f5 v=40
45120 On ch=1 n=g5 v=40
46080 On ch=1 n=d7 v=40
46080 On ch=1 n=g6 v=40
46320 On ch=1 n=g6 v=0
46320 On ch=1 n=d7 v=0
46560 On ch=1 n=g5 v=40
46560 On ch=1 n=d6 v=40
46800 On ch=1 n=d6 v=0
46800 On ch=1 n=g5 v=0
47040 On ch=1 n=g5 v=0
47040 On ch=1 n=f5 v=0
47040 On ch=1 n=d5 v=0
47040 On ch=1 n=b4 v=0
48900 On ch=1 n=b4 v=40
48900 On ch=1 n=d5 v=40
48960 On ch=1 n=d5 v=0
48960 On ch=1 n=b4 v=0
48960 On ch=1 n=g#4 v=40
48960 On ch=1 n=c5 v=40
48960 On ch=1 n=d#5 v=40
49440 On ch=1 n=c5 v=0
49440 On ch=1 n=g#4 v=0
49440 On ch=1 n=g4 v=40
49440 On ch=1 n=a#4 v=40
49860 On ch=1 n=b4 v=40
49860 On ch=1 n=d5 v=40
49920 On ch=1 n=d5 v=0
49920 On ch=1 n=b4 v=0
49920 On ch=1 n=a#4 v=0
49920 On ch=1 n=g4 v=0
49920 On ch=1 n=d#5 v=0
49920 On ch=1 n=g#4 v=40
49920 On ch=1 n=c5 v=40
49920 On ch=1 n=d#5 v=40
50400 On ch=1 n=c5 v=0
50400 On ch=1 n=g#4 v=0
50400 On ch=1 n=g4 v=40
50400 On ch=1 n=a#4 v=40
50820 On ch=1 n=d5 v=40
50820 On ch=1 n=f#5 v=40
50880 On ch=1 n=f#5 v=0
50880 On ch=1 n=d5 v=0
50880 On ch=1 n=a#4 v=0
50880 On ch=1 n=g4 v=0
50880 On ch=1 n=d#5 v=0
50880 On ch=1 n=b4 v=40
50880 On ch=1 n=d#5 v=40
50880 On ch=1 n=g5 v=40
51360 On ch=1 n=d#5 v=0
51360 On ch=1 n=b4 v=0
51360 On ch=1 n=a4 v=40
51360 On ch=1 n=c#5 v=40
51780 On ch=1 n=d5 v=40
51780 On ch=1 n=f#5 v=40
51840 On ch=1 n=f#5 v=0
51840 On ch=1 n=d5 v=0
51840 On ch=1 n=c#5 v=0
51840 On ch=1 n=a4 v=0
51840 On ch=1 n=g5 v=0
51840 On ch=1 n=b4 v=40
51840 On ch=1 n=d#5 v=40
51840 On ch=1 n=g5 v=40
52320 On ch=1 n=d#5 v=0
52320 On ch=1 n=b4 v=0
52320 On ch=1 n=a4 v=40
52320 On ch=1 n=c#5 v=40
52740 On ch=1 n=b4 v=40
52740 On ch=1 n=d5 v=40
52800 On ch=1 n=d5 v=0
52800 On ch=1 n=b4 v=0
52800 On ch=1 n=c#5 v=0
52800 On ch=1 n=a4 v=0
52800 On ch=1 n=g5 v=0
52800 On ch=1 n=g#4 v=40
52800 On ch=1 n=c5 v=40
52800 On ch=1 n=d#5 v=40
53280 On ch=1 n=c5 v=0
53280 On ch=1 n=g#4 v=0
53280 On ch=1 n=g4 v=40
53280 On ch=1 n=a#4 v=40
53700 On ch=1 n=b4 v=40
53700 On ch=1 n=d5 v=40
53760 On ch=1 n=d5 v=0
53760 On ch=1 n=b4 v=0
53760 On ch=1 n=a#4 v=0
53760 On ch=1 n=g4 v=0
53760 On ch=1 n=d#5 v=0
53760 On ch=1 n=g#4 v=40
53760 On ch=1 n=c5 v=40
53760 On ch=1 n=d#5 v=40
54240 On ch=1 n=c5 v=0
54240 On ch=1 n=g#4 v=0
54240 On ch=1 n=g4 v=40
54240 On ch=1 n=a#4 v=40
54660 On ch=1 n=d5 v=40
54660 On ch=1 n=f#5 v=40
54720 On ch=1 n=f#5 v=0
54720 On ch=1 n=d5 v=0
54720 On ch=1 n=a#4 v=0
54720 On ch=1 n=g4 v=0
54720 On ch=1 n=d#5 v=0
54720 On ch=1 n=b4 v=40
54720 On ch=1 n=d#5 v=40
54720 On ch=1 n=g5 v=40
55200 On ch=1 n=d#5 v=0
55200 On ch=1 n=b4 v=0
55200 On ch=1 n=a4 v=40
55200 On ch=1 n=c#5 v=40
55620 On ch=1 n=d5 v=40
55620 On ch=1 n=f#5 v=40
55680 On ch=1 n=f#5 v=0
55680 On ch=1 n=d5 v=0
55680 On ch=1 n=c#5 v=0
55680 On ch=1 n=a4 v=0
55680 On ch=1 n=g5 v=0
55680 On ch=1 n=b4 v=40
55680 On ch=1 n=d#5 v=40
55680 On ch=1 n=g5 v=40
56160 On ch=1 n=d#5 v=0
56160 On ch=1 n=b4 v=0
56160 On ch=1 n=a4 v=40
56160 On ch=1 n=c#5 v=40
56580 On ch=1 n=g#5 v=40
56640 On ch=1 n=g#5 v=0
56640 On ch=1 n=c#5 v=0
56640 On ch=1 n=a4 v=0
56640 On ch=1 n=g5 v=0
56640 On ch=1 n=g5 v=40
56640 On ch=1 n=g4 v=40
56640 On ch=1 n=a4 v=40
56640 On ch=1 n=c#5 v=40
56640 On ch=1 n=a5 v=40
57000 On ch=1 n=g5 v=0
57000 On ch=1 n=f#5 v=40
57120 On ch=1 n=f#5 v=0
57120 On ch=1 n=f5 v=40
57480 On ch=1 n=f5 v=0
57480 On ch=1 n=f#5 v=40
57600 On ch=1 n=f#5 v=0
57600 On ch=1 n=g5 v=40
57960 On ch=1 n=g5 v=0
57960 On ch=1 n=f#5 v=40
58080 On ch=1 n=f#5 v=0
58080 On ch=1 n=f5 v=40
58440 On ch=1 n=f5 v=0
58440 On ch=1 n=f#5 v=40
58560 On ch=1 n=f#5 v=0
58560 On ch=1 n=a5 v=0
58560 On ch=1 n=c#5 v=0
58560 On ch=1 n=a4 v=0
58560 On ch=1 n=g4 v=0
58560 On ch=1 n=g5 v=40
58560 On ch=1 n=d5 v=40
58560 On ch=1 n=a#5 v=40
58920 On ch=1 n=g5 v=0
58920 On ch=1 n=f#5 v=40
59040 On ch=1 n=f#5 v=0
59040 On ch=1 n=f5 v=40
59400 On ch=1 n=f5 v=0
59400 On ch=1 n=f#5 v=40
59520 On ch=1 n=a#5 v=0
59520 On ch=1 n=c7 v=40
59520 On ch=1 n=d6 v=40
59520 On ch=1 n=c6 v=40
60480 On ch=1 n=c6 v=0
60480 On ch=1 n=d6 v=0
60480 On ch=1 n=c7 v=0
60480 On ch=1 n=f#5 v=0
60480 On ch=1 n=d5 v=0
60480 On ch=1 n=d#7 v=40
60480 On ch=1 n=c#7 v=40
60660 On ch=1 n=c#7 v=0
60660 On ch=1 n=d#7 v=0
60660 On ch=1 n=c#6 v=40
60660 On ch=1 n=d#6 v=40
60690 On ch=1 n=d#6 v=0
60690 On ch=1 n=c#6 v=0
60720 On ch=1 n=d#7 v=40
60720 On ch=1 n=c#7 v=40
60900 On ch=1 n=c#7 v=0
60900 On ch=1 n=d#7 v=0
60900 On ch=1 n=c#6 v=40
60900 On ch=1 n=d#6 v=40
60930 On ch=1 n=d#6 v=0
60930 On ch=1 n=c#6 v=0
60960 On ch=1 n=c#7 v=40
60960 On ch=1 n=d#7 v=40
61140 On ch=1 n=d#7 v=0
61140 On ch=1 n=c#7 v=0
61140 On ch=1 n=c#6 v=40
61140 On ch=1 n=d#6 v=40
61170 On ch=1 n=d#6 v=0
61170 On ch=1 n=c#6 v=0
61200 On ch=1 n=d#7 v=40
61200 On ch=1 n=c#7 v=40
61380 On ch=1 n=c#7 v=0
61380 On ch=1 n=d#7 v=0
61380 On ch=1 n=c#6 v=40
61380 On ch=1 n=d#6 v=40
61410 On ch=1 n=d#6 v=0
61410 On ch=1 n=c#6 v=0
61440 On ch=1 n=d#7 v=40
61440 On ch=1 n=c#7 v=40
61620 On ch=1 n=c#7 v=0
61620 On ch=1 n=d#7 v=0
61620 On ch=1 n=c#6 v=40
61620 On ch=1 n=d#6 v=40
61650 On ch=1 n=d#6 v=0
61650 On ch=1 n=c#6 v=0
61680 On ch=1 n=d#7 v=40
61680 On ch=1 n=c#7 v=40
61860 On ch=1 n=c#7 v=0
61860 On ch=1 n=d#7 v=0
61860 On ch=1 n=c#6 v=40
61860 On ch=1 n=d#6 v=40
61890 On ch=1 n=d#6 v=0
61890 On ch=1 n=c#6 v=0
61920 On ch=1 n=c#7 v=40
61920 On ch=1 n=d#7 v=40
62100 On ch=1 n=d#7 v=0
62100 On ch=1 n=c#7 v=0
62100 On ch=1 n=c#6 v=40
62100 On ch=1 n=d#6 v=40
62130 On ch=1 n=d#6 v=0
62130 On ch=1 n=c#6 v=0
62160 On ch=1 n=d#7 v=40
62160 On ch=1 n=c#7 v=40
62340 On ch=1 n=c#7 v=0
62340 On ch=1 n=d#7 v=0
62340 On ch=1 n=c#6 v=40
62340 On ch=1 n=d#6 v=40
62370 On ch=1 n=d#6 v=0
62370 On ch=1 n=c#6 v=0
62400 On ch=1 n=d#7 v=40
62400 On ch=1 n=c#7 v=40
62580 On ch=1 n=c#7 v=0
62580 On ch=1 n=d#7 v=0
62580 On ch=1 n=c#6 v=40
62580 On ch=1 n=d#6 v=40
62610 On ch=1 n=d#6 v=0
62610 On ch=1 n=c#6 v=0
62640 On ch=1 n=d#7 v=40
62640 On ch=1 n=c#7 v=40
62820 On ch=1 n=c#7 v=0
62820 On ch=1 n=d#7 v=0
62820 On ch=1 n=c#6 v=40
62820 On ch=1 n=d#6 v=40
62850 On ch=1 n=d#6 v=0
62850 On ch=1 n=c#6 v=0
62880 On ch=1 n=c#7 v=40
62880 On ch=1 n=d#7 v=40
63060 On ch=1 n=d#7 v=0
63060 On ch=1 n=c#7 v=0
63060 On ch=1 n=c#6 v=40
63060 On ch=1 n=d#6 v=40
63090 On ch=1 n=d#6 v=0
63090 On ch=1 n=c#6 v=0
63120 On ch=1 n=d#7 v=40
63120 On ch=1 n=c#7 v=40
63300 On ch=1 n=c#7 v=0
63300 On ch=1 n=d#7 v=0
63300 On ch=1 n=c#6 v=40
63300 On ch=1 n=d#6 v=40
63330 On ch=1 n=d#6 v=0
63330 On ch=1 n=c#6 v=0
63360 On ch=1 n=d#7 v=40
63360 On ch=1 n=c#7 v=40
63540 On ch=1 n=c#7 v=0
63540 On ch=1 n=d#7 v=0
63540 On ch=1 n=c#6 v=40
63540 On ch=1 n=d#6 v=40
63570 On ch=1 n=d#6 v=0
63570 On ch=1 n=c#6 v=0
63600 On ch=1 n=d#7 v=40
63600 On ch=1 n=c#7 v=40
63780 On ch=1 n=c#7 v=0
63780 On ch=1 n=d#7 v=0
63780 On ch=1 n=c#6 v=40
63780 On ch=1 n=d#6 v=40
63810 On ch=1 n=d#6 v=0
63810 On ch=1 n=c#6 v=0
63840 On ch=1 n=d#7 v=40
63840 On ch=1 n=c#7 v=40
64020 On ch=1 n=c#7 v=0
64020 On ch=1 n=d#7 v=0
64020 On ch=1 n=c#6 v=40
64020 On ch=1 n=d#6 v=40
64050 On ch=1 n=d#6 v=0
64050 On ch=1 n=c#6 v=0
64080 On ch=1 n=d#7 v=40
64080 On ch=1 n=c#7 v=40
64260 On ch=1 n=c#7 v=0
64260 On ch=1 n=d#7 v=0
64260 On ch=1 n=c#6 v=40
64260 On ch=1 n=d#6 v=40
64290 On ch=1 n=d#6 v=0
64290 On ch=1 n=c#6 v=0
64320 On ch=1 n=c#7 v=40
64320 On ch=1 n=d#7 v=40
64500 On ch=1 n=d#7 v=0
64500 On ch=1 n=c#7 v=0
64500 On ch=1 n=c#6 v=40
64500 On ch=1 n=d#6 v=40
64530 On ch=1 n=d#6 v=0
64530 On ch=1 n=c#6 v=0
64560 On ch=1 n=d#7 v=40
64560 On ch=1 n=c#7 v=40
64740 On ch=1 n=c#7 v=0
64740 On ch=1 n=d#7 v=0
64740 On ch=1 n=c#6 v=40
64740 On ch=1 n=d#6 v=40
64770 On ch=1 n=d#6 v=0
64770 On ch=1 n=c#6 v=0
64800 On ch=1 n=d#7 v=40
64800 On ch=1 n=c#7 v=40
64980 On ch=1 n=c#7 v=0
64980 On ch=1 n=d#7 v=0
64980 On ch=1 n=c#6 v=40
64980 On ch=1 n=d#6 v=40
65010 On ch=1 n=d#6 v=0
65010 On ch=1 n=c#6 v=0
65040 On ch=1 n=d#7 v=40
65040 On ch=1 n=c#7 v=40
65220 On ch=1 n=c#7 v=0
65220 On ch=1 n=d#7 v=0
65220 On ch=1 n=c#6 v=40
65220 On ch=1 n=d#6 v=40
65250 On ch=1 n=d#6 v=0
65250 On ch=1 n=c#6 v=0
65280 On ch=1 n=d#7 v=40
65280 On ch=1 n=c#7 v=40
65460 On ch=1 n=c#7 v=0
65460 On ch=1 n=d#7 v=0
65460 On ch=1 n=c#6 v=40
65460 On ch=1 n=d#6 v=40
65490 On ch=1 n=d#6 v=0
65490 On ch=1 n=c#6 v=0
65520 On ch=1 n=d#7 v=40
65520 On ch=1 n=c#7 v=40
65700 On ch=1 n=c#7 v=0
65700 On ch=1 n=d#7 v=0
65700 On ch=1 n=c#6 v=40
65700 On ch=1 n=d#6 v=40
65730 On ch=1 n=d#6 v=0
65730 On ch=1 n=c#6 v=0
65760 On ch=1 n=c#7 v=40
65760 On ch=1 n=d#7 v=40
65940 On ch=1 n=d#7 v=0
65940 On ch=1 n=c#7 v=0
65940 On ch=1 n=c#6 v=40
65940 On ch=1 n=d#6 v=40
65970 On ch=1 n=d#6 v=0
65970 On ch=1 n=c#6 v=0
66000 On ch=1 n=d#7 v=40
66000 On ch=1 n=c#7 v=40
66180 On ch=1 n=c#7 v=0
66180 On ch=1 n=d#7 v=0
66180 On ch=1 n=c#6 v=40
66180 On ch=1 n=d#6 v=40
66210 On ch=1 n=d#6 v=0
66210 On ch=1 n=c#6 v=0
66240 On ch=1 n=d#7 v=40
66240 On ch=1 n=c#7 v=40
66420 On ch=1 n=c#7 v=0
66420 On ch=1 n=d#7 v=0
66420 On ch=1 n=c#6 v=40
66420 On ch=1 n=d#6 v=40
66450 On ch=1 n=d#6 v=0
66450 On ch=1 n=c#6 v=0
66480 On ch=1 n=d#7 v=40
66480 On ch=1 n=c#7 v=40
66660 On ch=1 n=c#7 v=0
66660 On ch=1 n=d#7 v=0
66660 On ch=1 n=c#6 v=40
66660 On ch=1 n=d#6 v=40
66690 On ch=1 n=d#6 v=0
66690 On ch=1 n=c#6 v=0
66720 On ch=1 n=d#7 v=40
66720 On ch=1 n=c#7 v=40
66900 On ch=1 n=c#7 v=0
66900 On ch=1 n=d#7 v=0
66900 On ch=1 n=c#6 v=40
66900 On ch=1 n=d#6 v=40
66930 On ch=1 n=d#6 v=0
66930 On ch=1 n=c#6 v=0
66960 On ch=1 n=d#7 v=40
66960 On ch=1 n=c#7 v=40
67140 On ch=1 n=c#7 v=0
67140 On ch=1 n=d#7 v=0
67140 On ch=1 n=c#6 v=40
67140 On ch=1 n=d#6 v=40
67170 On ch=1 n=d#6 v=0
67170 On ch=1 n=c#6 v=0
67200 On ch=1 n=c#7 v=40
67200 On ch=1 n=d#7 v=40
67380 On ch=1 n=d#7 v=0
67380 On ch=1 n=c#7 v=0
67380 On ch=1 n=c#6 v=40
67380 On ch=1 n=d#6 v=40
67410 On ch=1 n=d#6 v=0
67410 On ch=1 n=c#6 v=0
67440 On ch=1 n=d#7 v=40
67440 On ch=1 n=c#7 v=40
67620 On ch=1 n=c#7 v=0
67620 On ch=1 n=d#7 v=0
67620 On ch=1 n=c#6 v=40
67620 On ch=1 n=d#6 v=40
67650 On ch=1 n=d#6 v=0
67650 On ch=1 n=c#6 v=0
67680 On ch=1 n=d#7 v=40
67680 On ch=1 n=c#7 v=40
67860 On ch=1 n=c#7 v=0
67860 On ch=1 n=d#7 v=0
67860 On ch=1 n=c#6 v=40
67860 On ch=1 n=d#6 v=40
67890 On ch=1 n=d#6 v=0
67890 On ch=1 n=c#6 v=0
67920 On ch=1 n=d#7 v=40
67920 On ch=1 n=c#7 v=40
68100 On ch=1 n=c#7 v=0
68100 On ch=1 n=d#7 v=0
68100 On ch=1 n=c#6 v=40
68100 On ch=1 n=d#6 v=40
68130 On ch=1 n=d#6 v=0
68130 On ch=1 n=c#6 v=0
68160 On ch=1 n=d#7 v=40
68160 On ch=1 n=c#7 v=40
68340 On ch=1 n=c#7 v=0
68340 On ch=1 n=d#7 v=0
68340 On ch=1 n=c#6 v=40
68340 On ch=1 n=d#6 v=40
68370 On ch=1 n=d#6 v=0
68370 On ch=1 n=c#6 v=0
68400 On ch=1 n=d#7 v=40
68400 On ch=1 n=c#7 v=40
68580 On ch=1 n=c#7 v=0
68580 On ch=1 n=d#7 v=0
68580 On ch=1 n=c#6 v=40
68580 On ch=1 n=d#6 v=40
68610 On ch=1 n=d#6 v=0
68610 On ch=1 n=c#6 v=0
68640 On ch=1 n=c#7 v=40
68640 On ch=1 n=d#7 v=40
68820 On ch=1 n=d#7 v=0
68820 On ch=1 n=c#7 v=0
68820 On ch=1 n=c#6 v=40
68820 On ch=1 n=d#6 v=40
68850 On ch=1 n=d#6 v=0
68850 On ch=1 n=c#6 v=0
68880 On ch=1 n=d#7 v=40
68880 On ch=1 n=c#7 v=40
69060 On ch=1 n=c#7 v=0
69060 On ch=1 n=d#7 v=0
69060 On ch=1 n=c#6 v=40
69060 On ch=1 n=d#6 v=40
69090 On ch=1 n=d#6 v=0
69090 On ch=1 n=c#6 v=0
69120 On ch=1 n=d#7 v=40
69120 On ch=1 n=c#7 v=40
69300 On ch=1 n=c#7 v=0
69300 On ch=1 n=d#7 v=0
69300 On ch=1 n=c#6 v=40
69300 On ch=1 n=d#6 v=40
69330 On ch=1 n=d#6 v=0
69330 On ch=1 n=c#6 v=0
69360 On ch=1 n=d#7 v=40
69360 On ch=1 n=c#7 v=40
69540 On ch=1 n=c#7 v=0
69540 On ch=1 n=d#7 v=0
69540 On ch=1 n=c#6 v=40
69540 On ch=1 n=d#6 v=40
69570 On ch=1 n=d#6 v=0
69570 On ch=1 n=c#6 v=0
69600 On ch=1 n=d#7 v=40
69600 On ch=1 n=c#7 v=40
69780 On ch=1 n=c#7 v=0
69780 On ch=1 n=d#7 v=0
69780 On ch=1 n=c#6 v=40
69780 On ch=1 n=d#6 v=40
69810 On ch=1 n=d#6 v=0
69810 On ch=1 n=c#6 v=0
69840 On ch=1 n=d#7 v=40
69840 On ch=1 n=c#7 v=40
70020 On ch=1 n=c#7 v=0
70020 On ch=1 n=d#7 v=0
70020 On ch=1 n=c#6 v=40
70020 On ch=1 n=d#6 v=40
70050 On ch=1 n=d#6 v=0
70050 On ch=1 n=c#6 v=0
70080 On ch=1 n=c#7 v=40
70080 On ch=1 n=d#7 v=40
70260 On ch=1 n=d#7 v=0
70260 On ch=1 n=c#7 v=0
70260 On ch=1 n=c#6 v=40
70260 On ch=1 n=d#6 v=40
70290 On ch=1 n=d#6 v=0
70290 On ch=1 n=c#6 v=0
70320 On ch=1 n=d#7 v=40
70320 On ch=1 n=c#7 v=40
70500 On ch=1 n=c#7 v=0
70500 On ch=1 n=d#7 v=0
70500 On ch=1 n=c#6 v=40
70500 On ch=1 n=d#6 v=40
70530 On ch=1 n=d#6 v=0
70530 On ch=1 n=c#6 v=0
70560 On ch=1 n=d#7 v=40
70560 On ch=1 n=c#7 v=40
70740 On ch=1 n=c#7 v=0
70740 On ch=1 n=d#7 v=0
70740 On ch=1 n=c#6 v=40
70740 On ch=1 n=d#6 v=40
70770 On ch=1 n=d#6 v=0
70770 On ch=1 n=c#6 v=0
70800 On ch=1 n=d#7 v=40
70800 On ch=1 n=c#7 v=40
70980 On ch=1 n=c#7 v=0
70980 On ch=1 n=d#7 v=0
70980 On ch=1 n=c#6 v=40
70980 On ch=1 n=d#6 v=40
71010 On ch=1 n=d#6 v=0
71010 On ch=1 n=c#6 v=0
71040 On ch=1 n=d#7 v=40
71040 On ch=1 n=c#7 v=40
71220 On ch=1 n=c#7 v=0
71220 On ch=1 n=d#7 v=0
71220 On ch=1 n=c#6 v=40
71220 On ch=1 n=d#6 v=40
71250 On ch=1 n=d#6 v=0
71250 On ch=1 n=c#6 v=0
71280 On ch=1 n=d#7 v=40
71280 On ch=1 n=c#7 v=40
71460 On ch=1 n=c#7 v=0
71460 On ch=1 n=d#7 v=0
71460 On ch=1 n=c#6 v=40
71460 On ch=1 n=d#6 v=40
71490 On ch=1 n=d#6 v=0
71490 On ch=1 n=c#6 v=0
71520 On ch=1 n=c#7 v=40
71520 On ch=1 n=d#7 v=40
71700 On ch=1 n=d#7 v=0
71700 On ch=1 n=c#7 v=0
71700 On ch=1 n=c#6 v=40
71700 On ch=1 n=d#6 v=40
71730 On ch=1 n=d#6 v=0
71730 On ch=1 n=c#6 v=0
71760 On ch=1 n=d#7 v=40
71760 On ch=1 n=c#7 v=40
71940 On ch=1 n=c#7 v=0
71940 On ch=1 n=d#7 v=0
71940 On ch=1 n=c#6 v=40
71940 On ch=1 n=d#6 v=40
71970 On ch=1 n=d#6 v=0
71970 On ch=1 n=c#6 v=0
72000 On ch=1 n=d#7 v=40
72000 On ch=1 n=c#7 v=40
72180 On ch=1 n=c#7 v=0
72180 On ch=1 n=d#7 v=0
72180 On ch=1 n=c#6 v=40
72180 On ch=1 n=d#6 v=40
72210 On ch=1 n=d#6 v=0
72210 On ch=1 n=c#6 v=0
72240 On ch=1 n=d#7 v=40
72240 On ch=1 n=c#7 v=40
72420 On ch=1 n=c#7 v=0
72420 On ch=1 n=d#7 v=0
72420 On ch=1 n=c#6 v=40
72420 On ch=1 n=d#6 v=40
72450 On ch=1 n=d#6 v=0
72450 On ch=1 n=c#6 v=0
72480 On ch=1 n=d#7 v=40
72480 On ch=1 n=c#7 v=40
72660 On ch=1 n=c#7 v=0
72660 On ch=1 n=d#7 v=0
72660 On ch=1 n=c#6 v=40
72660 On ch=1 n=d#6 v=40
72690 On ch=1 n=d#6 v=0
72690 On ch=1 n=c#6 v=0
72720 On ch=1 n=d#7 v=40
72720 On ch=1 n=c#7 v=40
72900 On ch=1 n=c#7 v=0
72900 On ch=1 n=d#7 v=0
72900 On ch=1 n=c#6 v=40
72900 On ch=1 n=d#6 v=40
72930 On ch=1 n=d#6 v=0
72930 On ch=1 n=c#6 v=0
72960 On ch=1 n=d#7 v=40
72960 On ch=1 n=c#7 v=40
73140 On ch=1 n=c#7 v=0
73140 On ch=1 n=d#7 v=0
73140 On ch=1 n=c#6 v=40
73140 On ch=1 n=d#6 v=40
73170 On ch=1 n=d#6 v=0
73170 On ch=1 n=c#6 v=0
73200 On ch=1 n=d#7 v=40
73200 On ch=1 n=c#7 v=40
73380 On ch=1 n=c#7 v=0
73380 On ch=1 n=d#7 v=0
73380 On ch=1 n=c#6 v=40
73380 On ch=1 n=d#6 v=40
73410 On ch=1 n=d#6 v=0
73410 On ch=1 n=c#6 v=0
73440 On ch=1 n=c#7 v=40
73440 On ch=1 n=d#7 v=40
73620 On ch=1 n=d#7 v=0
73620 On ch=1 n=c#7 v=0
73620 On ch=1 n=c#6 v=40
73620 On ch=1 n=d#6 v=40
73650 On ch=1 n=d#6 v=0
73650 On ch=1 n=c#6 v=0
73680 On ch=1 n=d#7 v=40
73680 On ch=1 n=c#7 v=40
73860 On ch=1 n=c#7 v=0
73860 On ch=1 n=d#7 v=0
73860 On ch=1 n=c#6 v=40
73860 On ch=1 n=d#6 v=40
73890 On ch=1 n=d#6 v=0
73890 On ch=1 n=c#6 v=0
73920 On ch=1 n=d#7 v=40
73920 On ch=1 n=c#7 v=40
74100 On ch=1 n=c#7 v=0
74100 On ch=1 n=d#7 v=0
74100 On ch=1 n=c#6 v=40
74100 On ch=1 n=d#6 v=40
74130 On ch=1 n=d#6 v=0
74130 On ch=1 n=c#6 v=0
74160 On ch=1 n=d#7 v=40
74160 On ch=1 n=c#7 v=40
74340 On ch=1 n=c#7 v=0
74340 On ch=1 n=d#7 v=0
74340 On ch=1 n=c#6 v=40
74340 On ch=1 n=d#6 v=40
74370 On ch=1 n=d#6 v=0
74370 On ch=1 n=c#6 v=0
74400 On ch=1 n=d#7 v=40
74400 On ch=1 n=c#7 v=40
74580 On ch=1 n=c#7 v=0
74580 On ch=1 n=d#7 v=0
74580 On ch=1 n=c#6 v=40
74580 On ch=1 n=d#6 v=40
74610 On ch=1 n=d#6 v=0
74610 On ch=1 n=c#6 v=0
74640 On ch=1 n=d#7 v=40
74640 On ch=1 n=c#7 v=40
74820 On ch=1 n=c#7 v=0
74820 On ch=1 n=d#7 v=0
74820 On ch=1 n=c#6 v=40
74820 On ch=1 n=d#6 v=40
74850 On ch=1 n=d#6 v=0
74850 On ch=1 n=c#6 v=0
74880 On ch=1 n=c#7 v=40
74880 On ch=1 n=d#7 v=40
75060 On ch=1 n=d#7 v=0
75060 On ch=1 n=c#7 v=0
75060 On ch=1 n=c#6 v=40
75060 On ch=1 n=d#6 v=40
75090 On ch=1 n=d#6 v=0
75090 On ch=1 n=c#6 v=0
75120 On ch=1 n=d#7 v=40
75120 On ch=1 n=c#7 v=40
75300 On ch=1 n=c#7 v=0
75300 On ch=1 n=d#7 v=0
75300 On ch=1 n=c#6 v=40
75300 On ch=1 n=d#6 v=40
75330 On ch=1 n=d#6 v=0
75330 On ch=1 n=c#6 v=0
75360 On ch=1 n=g#6 v=60
75360 On ch=1 n=d#7 v=70
75360 On ch=1 n=c#7 v=70
75440 On ch=1 n=g#6 v=0
75440 On ch=1 n=g6 v=60
75520 On ch=1 n=g6 v=0
75520 On ch=1 n=f#6 v=60
75600 On ch=1 n=f#6 v=0
75840 On ch=1 n=c#7 v=0
75840 On ch=1 n=d#7 v=0
75840 On ch=1 n=d#7 v=70
75840 On ch=1 n=c#7 v=70
75840 On ch=1 n=g#6 v=60
75920 On ch=1 n=g#6 v=0
75920 On ch=1 n=g6 v=60
76000 On ch=1 n=g6 v=0
76000 On ch=1 n=f#6 v=60
76080 On ch=1 n=f#6 v=0
76320 On ch=1 n=c#7 v=0
76320 On ch=1 n=d#7 v=0
76320 On ch=1 n=d#7 v=40
76320 On ch=1 n=c#7 v=40
76500 On ch=1 n=c#7 v=0
76500 On ch=1 n=d#7 v=0
76500 On ch=1 n=c#6 v=40
76500 On ch=1 n=d#6 v=40
76530 On ch=1 n=d#6 v=0
76530 On ch=1 n=c#6 v=0
76560 On ch=1 n=d#7 v=40
76560 On ch=1 n=c#7 v=40
76740 On ch=1 n=c#7 v=0
76740 On ch=1 n=d#7 v=0
76740 On ch=1 n=c#6 v=40
76740 On ch=1 n=d#6 v=40
76770 On ch=1 n=d#6 v=0
76770 On ch=1 n=c#6 v=0
76800 On ch=1 n=c#7 v=40
76800 On ch=1 n=d#7 v=40
76980 On ch=1 n=d#7 v=0
76980 On ch=1 n=c#7 v=0
76980 On ch=1 n=c#6 v=40
76980 On ch=1 n=d#6 v=40
77010 On ch=1 n=d#6 v=0
77010 On ch=1 n=c#6 v=0
77040 On ch=1 n=d#7 v=40
77040 On ch=1 n=c#7 v=40
77220 On ch=1 n=c#7 v=0
77220 On ch=1 n=d#7 v=0
77220 On ch=1 n=c#6 v=40
77220 On ch=1 n=d#6 v=40
77250 On ch=1 n=d#6 v=0
77250 On ch=1 n=c#6 v=0
77280 On ch=1 n=g#6 v=60
77280 On ch=1 n=d#7 v=70
77280 On ch=1 n=c#7 v=70
77360 On ch=1 n=g#6 v=0
77360 On ch=1 n=g6 v=60
77440 On ch=1 n=g6 v=0
77440 On ch=1 n=f#6 v=60
77520 On ch=1 n=f#6 v=0
77760 On ch=1 n=c#7 v=0
77760 On ch=1 n=d#7 v=0
77760 On ch=1 n=d#7 v=70
77760 On ch=1 n=c#7 v=70
77760 On ch=1 n=g#6 v=60
77840 On ch=1 n=g#6 v=0
77840 On ch=1 n=g6 v=60
77920 On ch=1 n=g6 v=0
77920 On ch=1 n=f#6 v=60
78000 On ch=1 n=f#6 v=0
78240 On ch=1 n=c#7 v=0
78240 On ch=1 n=d#7 v=0
78240 On ch=1 n=d#7 v=70
78240 On ch=1 n=c#7 v=70
78240 On ch=1 n=g#6 v=60
78320 On ch=1 n=g#6 v=0
78320 On ch=1 n=g6 v=60
78400 On ch=1 n=g6 v=0
78400 On ch=1 n=f#6 v=60
78480 On ch=1 n=f#6 v=0
78720 On ch=1 n=c#7 v=0
78720 On ch=1 n=d#7 v=0
78720 On ch=1 n=c#6 v=60
78720 On ch=1 n=g#6 v=70
78720 On ch=1 n=f#6 v=70
78800 On ch=1 n=c#6 v=0
78800 On ch=1 n=c6 v=60
78880 On ch=1 n=c6 v=0
78880 On ch=1 n=b5 v=60
78960 On ch=1 n=b5 v=0
79200 On ch=1 n=f#6 v=0
79200 On ch=1 n=g#6 v=0
79200 On ch=1 n=d#7 v=70
79200 On ch=1 n=c#7 v=70
79200 On ch=1 n=g#6 v=60
79280 On ch=1 n=g#6 v=0
79280 On ch=1 n=g6 v=60
79360 On ch=1 n=g6 v=0
79360 On ch=1 n=f#6 v=60
79440 On ch=1 n=f#6 v=0
79680 On ch=1 n=c#7 v=0
79680 On ch=1 n=d#7 v=0
79680 On ch=1 n=c#6 v=60
79680 On ch=1 n=g#6 v=70
79680 On ch=1 n=f#6 v=70
79760 On ch=1 n=c#6 v=0
79760 On ch=1 n=c6 v=60
79840 On ch=1 n=c6 v=0
79840 On ch=1 n=b5 v=60
79920 On ch=1 n=b5 v=0
80160 On ch=1 n=f#6 v=0
80160 On ch=1 n=g#6 v=0
80160 On ch=1 n=d#6 v=70
80160 On ch=1 n=c#6 v=70
80160 On ch=1 n=g#5 v=60
80240 On ch=1 n=g#5 v=0
80240 On ch=1 n=g5 v=60
80320 On ch=1 n=g5 v=0
80320 On ch=1 n=f#5 v=60
80400 On ch=1 n=f#5 v=0
80640 On ch=1 n=c#6 v=0
80640 On ch=1 n=d#6 v=0
80640 On ch=1 n=d#6 v=70
80640 On ch=1 n=c#6 v=70
80640 On ch=1 n=g#5 v=60
80720 On ch=1 n=g#5 v=0
80720 On ch=1 n=g5 v=60
80800 On ch=1 n=g5 v=0
80800 On ch=1 n=f#5 v=60
80880 On ch=1 n=f#5 v=0
81120 On ch=1 n=c#6 v=0
81120 On ch=1 n=d#6 v=0
81120 On ch=1 n=d#6 v=70
81120 On ch=1 n=c#6 v=70
81120 On ch=1 n=g#5 v=60
81200 On ch=1 n=g#5 v=0
81200 On ch=1 n=g5 v=60
81280 On ch=1 n=g5 v=0
81280 On ch=1 n=f#5 v=60
81360 On ch=1 n=f#5 v=0
81600 On ch=1 n=c#6 v=0
81600 On ch=1 n=d#6 v=0
81600 On ch=1 n=d#6 v=70
81600 On ch=1 n=c#6 v=70
81600 On ch=1 n=g#5 v=60
81680 On ch=1 n=g#5 v=0
81680 On ch=1 n=g5 v=60
81760 On ch=1 n=g5 v=0
81760 On ch=1 n=f#5 v=60
81840 On ch=1 n=f#5 v=0
82020 On ch=1 n=c6 v=60
82080 On ch=1 n=c6 v=0
82080 On ch=1 n=c#6 v=0
82080 On ch=1 n=d#6 v=0
82080 On ch=1 n=c#6 v=40
82080 On ch=1 n=a#5 v=40
82080 On ch=1 n=f5 v=40
82200 On ch=1 n=f5 v=0
82200 On ch=1 n=a#5 v=0
82200 On ch=1 n=c#6 v=0
82500 On ch=1 n=c7 v=40
82560 On ch=1 n=c7 v=0
82560 On ch=1 n=c#7 v=40
82560 On ch=1 n=a#6 v=40
82560 On ch=1 n=f6 v=40
82680 On ch=1 n=f6 v=0
82680 On ch=1 n=a#6 v=0
82680 On ch=1 n=c#7 v=0
82980 On ch=1 n=d6 v=40
83040 On ch=1 n=d6 v=0
83040 On ch=1 n=d#6 v=40
83040 On ch=1 n=c#6 v=40
83040 On ch=1 n=g5 v=40
83160 On ch=1 n=g5 v=0
83160 On ch=1 n=c#6 v=0
83160 On ch=1 n=d#6 v=0
83460 On ch=1 n=d7 v=40
83520 On ch=1 n=d7 v=0
83520 On ch=1 n=d#7 v=40
83520 On ch=1 n=c#7 v=40
83520 On ch=1 n=g6 v=40
83640 On ch=1 n=g6 v=0
83640 On ch=1 n=c#7 v=0
83640 On ch=1 n=d#7 v=0
83940 On ch=1 n=d#6 v=40
84000 On ch=1 n=d#6 v=0
84000 On ch=1 n=f6 v=40
84000 On ch=1 n=c6 v=40
84000 On ch=1 n=g#5 v=40
84120 On ch=1 n=g#5 v=0
84120 On ch=1 n=c6 v=0
84120 On ch=1 n=f6 v=0
84420 On ch=1 n=d#7 v=40
84480 On ch=1 n=d#7 v=0
84480 On ch=1 n=f7 v=40
84480 On ch=1 n=c7 v=40
84480 On ch=1 n=g#6 v=40
84600 On ch=1 n=g#6 v=0
84600 On ch=1 n=c7 v=0
84600 On ch=1 n=f7 v=0
85860 On ch=1 n=f#5 v=40
85920 On ch=1 n=f#5 v=0
85920 On ch=1 n=b4 v=125
85920 On ch=1 n=d5 v=125
85920 On ch=1 n=f5 v=125
85920 On ch=1 n=g5 v=125
88800 On ch=1 n=g5 v=0
88800 On ch=1 n=f5 v=0
88800 On ch=1 n=d5 v=0
88800 On ch=1 n=b4 v=0
89760 On ch=1 n=f5 v=60
89880 On ch=1 n=f5 v=0
89880 On ch=1 n=g5 v=60
90000 On ch=1 n=g5 v=0
90000 On ch=1 n=a5 v=60
90120 On ch=1 n=a5 v=0
90120 On ch=1 n=b5 v=60
90240 On ch=1 n=b5 v=0
90240 On ch=1 n=f6 v=70
90360 On ch=1 n=f6 v=0
90360 On ch=1 n=g6 v=70
90480 On ch=1 n=g6 v=0
90480 On ch=1 n=a6 v=70
90600 On ch=1 n=a6 v=0
90600 On ch=1 n=b6 v=70
90720 On ch=1 n=b6 v=0
90840 On ch=1 n=d#7 v=80
90960 On ch=1 n=d#7 v=0
90960 On ch=1 n=b6 v=80
91080 On ch=1 n=b6 v=0
91080 On ch=1 n=g#6 v=80
91200 On ch=1 n=g#6 v=0
91200 On ch=1 n=f6 v=70
91320 On ch=1 n=f6 v=0
91320 On ch=1 n=d#6 v=70
91440 On ch=1 n=d#6 v=0
91440 On ch=1 n=b5 v=70
91560 On ch=1 n=b5 v=0
91560 On ch=1 n=g#5 v=70
91680 On ch=1 n=g#5 v=0
91680 On ch=1 n=f5 v=60
91800 On ch=1 n=f5 v=0
91800 On ch=1 n=g5 v=60
91920 On ch=1 n=g5 v=0
91920 On ch=1 n=a5 v=60
92040 On ch=1 n=a5 v=0
92040 On ch=1 n=b5 v=60
92160 On ch=1 n=b5 v=0
92160 On ch=1 n=f6 v=70
92280 On ch=1 n=f6 v=0
92280 On ch=1 n=g6 v=70
92400 On ch=1 n=g6 v=0
92400 On ch=1 n=a6 v=70
92520 On ch=1 n=a6 v=0
92520 On ch=1 n=b6 v=70
92640 On ch=1 n=b6 v=0
92760 On ch=1 n=d#7 v=80
92880 On ch=1 n=d#7 v=0
92880 On ch=1 n=b6 v=80
93000 On ch=1 n=b6 v=0
93000 On ch=1 n=g#6 v=80
93120 On ch=1 n=g#6 v=0
93120 On ch=1 n=f6 v=70
93240 On ch=1 n=f6 v=0
93240 On ch=1 n=d#6 v=70
93360 On ch=1 n=d#6 v=0
93360 On ch=1 n=b5 v=70
93480 On ch=1 n=b5 v=0
93480 On ch=1 n=g#5 v=70
93600 On ch=1 n=g#5 v=0
93600 On ch=1 n=a5 v=40
93780 On ch=1 n=a4 v=40
93840 On ch=1 n=e5 v=40
93900 On ch=1 n=g5 v=40
93960 On ch=1 n=a5 v=0
93960 On ch=1 n=b5 v=40
94080 On ch=1 n=b5 v=0
94080 On ch=1 n=e6 v=40
94440 On ch=1 n=e6 v=0
94440 On ch=1 n=c#6 v=40
94560 On ch=1 n=c#6 v=0
94560 On ch=1 n=b5 v=40
94920 On ch=1 n=b5 v=0
94920 On ch=1 n=a7 v=40
95040 On ch=1 n=a7 v=0
95040 On ch=1 n=g7 v=40
95400 On ch=1 n=g7 v=0
95400 On ch=1 n=f#7 v=40
95520 On ch=1 n=f#7 v=0
95520 On ch=1 n=e7 v=40
95880 On ch=1 n=e7 v=0
95880 On ch=1 n=f#7 v=40
96000 On ch=1 n=f#7 v=0
96000 On ch=1 n=b7 v=40
96360 On ch=1 n=b7 v=0
96360 On ch=1 n=g7 v=40
96480 On ch=1 n=g7 v=0
96480 On ch=1 n=e7 v=40
96600 On ch=1 n=e7 v=0
96960 On ch=1 n=a5 v=40
97120 On ch=1 n=a5 v=0
97120 On ch=1 n=b5 v=40
97280 On ch=1 n=b5 v=0
97280 On ch=1 n=g5 v=40
97440 On ch=1 n=g5 v=0
97440 On ch=1 n=g5 v=0
97440 On ch=1 n=e5 v=0
97440 On ch=1 n=a4 v=0
97440 On ch=1 n=f5 v=60
97560 On ch=1 n=f5 v=0
97560 On ch=1 n=g5 v=60
97680 On ch=1 n=g5 v=0
97680 On ch=1 n=a5 v=60
97800 On ch=1 n=a5 v=0
97800 On ch=1 n=b5 v=60
97920 On ch=1 n=b5 v=0
97920 On ch=1 n=f6 v=70
98040 On ch=1 n=f6 v=0
98040 On ch=1 n=g6 v=70
98160 On ch=1 n=g6 v=0
98160 On ch=1 n=a6 v=70
98280 On ch=1 n=a6 v=0
98280 On ch=1 n=b6 v=70
98400 On ch=1 n=b6 v=0
98520 On ch=1 n=d#7 v=80
98640 On ch=1 n=d#7 v=0
98640 On ch=1 n=b6 v=80
98760 On ch=1 n=b6 v=0
98760 On ch=1 n=g#6 v=80
98880 On ch=1 n=g#6 v=0
98880 On ch=1 n=f6 v=70
99000 On ch=1 n=f6 v=0
99000 On ch=1 n=d#6 v=70
99120 On ch=1 n=d#6 v=0
99120 On ch=1 n=b5 v=70
99240 On ch=1 n=b5 v=0
99240 On ch=1 n=g#5 v=70
99360 On ch=1 n=g#5 v=0
99360 On ch=1 n=f5 v=60
99480 On ch=1 n=f5 v=0
99480 On ch=1 n=g5 v=60
99600 On ch=1 n=g5 v=0
99600 On ch=1 n=a5 v=60
99720 On ch=1 n=a5 v=0
99720 On ch=1 n=b5 v=60
99840 On ch=1 n=b5 v=0
99840 On ch=1 n=f6 v=70
99960 On ch=1 n=f6 v=0
99960 On ch=1 n=g6 v=70
100080 On ch=1 n=g6 v=0
100080 On ch=1 n=a6 v=70
100200 On ch=1 n=a6 v=0
100200 On ch=1 n=b6 v=70
100320 On ch=1 n=b6 v=0
100440 On ch=1 n=d#7 v=80
100560 On ch=1 n=d#7 v=0
100560 On ch=1 n=b6 v=80
100680 On ch=1 n=b6 v=0
100680 On ch=1 n=g#6 v=80
100800 On ch=1 n=g#6 v=0
100800 On ch=1 n=f6 v=70
100920 On ch=1 n=f6 v=0
100920 On ch=1 n=d#6 v=70
101040 On ch=1 n=d#6 v=0
101040 On ch=1 n=b5 v=70
101160 On ch=1 n=b5 v=0
101160 On ch=1 n=g#5 v=70
101280 On ch=1 n=g#5 v=0
101280 On ch=1 n=a5 v=40
101460 On ch=1 n=a4 v=40
101520 On ch=1 n=e5 v=40
101580 On ch=1 n=g5 v=40
101640 On ch=1 n=a5 v=0
101640 On ch=1 n=b5 v=40
101760 On ch=1 n=b5 v=0
101760 On ch=1 n=e6 v=40
102120 On ch=1 n=e6 v=0
102120 On ch=1 n=c#6 v=40
102240 On ch=1 n=c#6 v=0
102240 On ch=1 n=b5 v=40
102600 On ch=1 n=b5 v=0
102600 On ch=1 n=a7 v=40
102720 On ch=1 n=a7 v=0
102720 On ch=1 n=g7 v=40
103080 On ch=1 n=g7 v=0
103080 On ch=1 n=f#7 v=40
103200 On ch=1 n=f#7 v=0
103200 On ch=1 n=e7 v=40
103560 On ch=1 n=e7 v=0
103560 On ch=1 n=f#7 v=40
103680 On ch=1 n=f#7 v=0
103680 On ch=1 n=b7 v=40
104040 On ch=1 n=b7 v=0
104040 On ch=1 n=g7 v=40
104160 On ch=1 n=g7 v=0
104160 On ch=1 n=e7 v=40
104280 On ch=1 n=e7 v=0
104640 On ch=1 n=b5 v=40
104800 On ch=1 n=b5 v=0
104800 On ch=1 n=c#6 v=40
104960 On ch=1 n=c#6 v=0
104960 On ch=1 n=e6 v=40
105120 On ch=1 n=e6 v=0
105120 On ch=1 n=g5 v=0
105120 On ch=1 n=e5 v=0
105120 On ch=1 n=a4 v=0
105120 On ch=1 n=f6 v=60
105480 On ch=1 n=f6 v=0
105480 On ch=1 n=g6 v=60
105600 On ch=1 n=g6 v=0
105600 On ch=1 n=c7 v=60
105960 On ch=1 n=c7 v=0
105960 On ch=1 n=g#6 v=60
106080 On ch=1 n=g#6 v=0
106080 On ch=1 n=g6 v=60
106440 On ch=1 n=g6 v=0
106440 On ch=1 n=f6 v=60
106560 On ch=1 n=f6 v=0
106560 On ch=1 n=d#6 v=60
106920 On ch=1 n=d#6 v=0
106920 On ch=1 n=d6 v=60
107040 On ch=1 n=d6 v=0
107040 On ch=1 n=c6 v=60
107400 On ch=1 n=c6 v=0
107400 On ch=1 n=d6 v=60
107520 On ch=1 n=d6 v=0
107520 On ch=1 n=g6 v=60
107880 On ch=1 n=g6 v=0
107880 On ch=1 n=d#6 v=60
108000 On ch=1 n=d#6 v=0
108000 On ch=1 n=c6 v=60
108160 On ch=1 n=c6 v=0
108160 On ch=1 n=d6 v=60
108320 On ch=1 n=d6 v=0
108320 On ch=1 n=d#6 v=60
108480 On ch=1 n=d#6 v=0
108480 On ch=1 n=f6 v=60
108640 On ch=1 n=f6 v=0
108640 On ch=1 n=g6 v=60
108800 On ch=1 n=g6 v=0
108800 On ch=1 n=d#6 v=60
108960 On ch=1 n=d#6 v=0
108960 On ch=1 n=f6 v=60
109320 On ch=1 n=f6 v=0
109320 On ch=1 n=g6 v=60
109440 On ch=1 n=g6 v=0
109440 On ch=1 n=c7 v=60
109800 On ch=1 n=c7 v=0
109800 On ch=1 n=g#6 v=60
109920 On ch=1 n=g#6 v=0
109920 On ch=1 n=g6 v=60
110280 On ch=1 n=g6 v=0
110280 On ch=1 n=f6 v=60
110400 On ch=1 n=f6 v=0
110400 On ch=1 n=d#6 v=60
110760 On ch=1 n=d#6 v=0
110760 On ch=1 n=d6 v=60
110880 On ch=1 n=d6 v=0
110880 On ch=1 n=c6 v=60
111240 On ch=1 n=c6 v=0
111240 On ch=1 n=d6 v=60
111360 On ch=1 n=d6 v=0
111360 On ch=1 n=g6 v=60
111720 On ch=1 n=g6 v=0
111720 On ch=1 n=d#6 v=60
111840 On ch=1 n=d#6 v=0
111840 On ch=1 n=c6 v=60
112000 On ch=1 n=c6 v=0
112000 On ch=1 n=d6 v=60
112160 On ch=1 n=d6 v=0
112160 On ch=1 n=d#6 v=60
112320 On ch=1 n=d#6 v=0
112320 On ch=1 n=f6 v=60
112480 On ch=1 n=f6 v=0
112480 On ch=1 n=g6 v=60
112640 On ch=1 n=g6 v=0
112640 On ch=1 n=d#6 v=60
112800 On ch=1 n=d#6 v=0
112800 On ch=1 n=f6 v=60
113160 On ch=1 n=f6 v=0
113160 On ch=1 n=g6 v=60
113280 On ch=1 n=g6 v=0
113280 On ch=1 n=a#6 v=60
113640 On ch=1 n=a#6 v=0
113640 On ch=1 n=g#6 v=60
113760 On ch=1 n=g#6 v=0
113760 On ch=1 n=e6 v=60
114120 On ch=1 n=e6 v=0
114120 On ch=1 n=f#6 v=60
114240 On ch=1 n=f#6 v=0
114240 On ch=1 n=a#6 v=60
114600 On ch=1 n=a#6 v=0
114600 On ch=1 n=g#6 v=60
114720 On ch=1 n=g#6 v=0
114720 On ch=1 n=f6 v=40
115080 On ch=1 n=f6 v=0
115080 On ch=1 n=g6 v=40
115200 On ch=1 n=g6 v=0
115200 On ch=1 n=a#6 v=40
115560 On ch=1 n=a#6 v=0
115560 On ch=1 n=g#6 v=40
115680 On ch=1 n=g#6 v=0
115680 On ch=1 n=e6 v=40
116040 On ch=1 n=e6 v=0
116040 On ch=1 n=f#6 v=40
116160 On ch=1 n=f#6 v=0
116160 On ch=1 n=a#6 v=40
116520 On ch=1 n=a#6 v=0
116520 On ch=1 n=g#6 v=40
116640 On ch=1 n=g#6 v=0
120480 On ch=1 n=f5 v=60
120840 On ch=1 n=f5 v=0
120840 On ch=1 n=g5 v=60
120960 On ch=1 n=g5 v=0
120960 On ch=1 n=c6 v=60
121320 On ch=1 n=c6 v=0
121320 On ch=1 n=g#5 v=60
121440 On ch=1 n=g#5 v=0
121440 On ch=1 n=f5 v=60
121500 On ch=1 n=f5 v=0
121500 On ch=1 n=g5 v=60
121560 On ch=1 n=g5 v=0
121560 On ch=1 n=g#5 v=60
121620 On ch=1 n=g#5 v=0
121620 On ch=1 n=a#5 v=60
121680 On ch=1 n=a#5 v=0
121680 On ch=1 n=c6 v=60
121740 On ch=1 n=c6 v=0
121740 On ch=1 n=d6 v=60
121800 On ch=1 n=d6 v=0
121800 On ch=1 n=d#6 v=60
121860 On ch=1 n=d#6 v=0
121860 On ch=1 n=f6 v=60
121920 On ch=1 n=f6 v=0
121920 On ch=1 n=g6 v=60
122280 On ch=1 n=g6 v=0
122280 On ch=1 n=f6 v=60
122400 On ch=1 n=f6 v=0
122400 On ch=1 n=c6 v=60
122760 On ch=1 n=c6 v=0
122760 On ch=1 n=a#5 v=60
122880 On ch=1 n=a#5 v=0
122880 On ch=1 n=g5 v=60
123240 On ch=1 n=g5 v=0
123240 On ch=1 n=f5 v=60
123360 On ch=1 n=f5 v=0
123360 On ch=1 n=c5 v=60
123520 On ch=1 n=c5 v=0
123520 On ch=1 n=d5 v=60
123680 On ch=1 n=d5 v=0
123680 On ch=1 n=d#5 v=60
123840 On ch=1 n=d#5 v=0
123840 On ch=1 n=f5 v=60
124000 On ch=1 n=f5 v=0
124000 On ch=1 n=g5 v=60
124160 On ch=1 n=g5 v=0
124160 On ch=1 n=d#5 v=60
124320 On ch=1 n=d#5 v=0
125680 On ch=1 n=e5 v=40
125760 On ch=1 n=e5 v=0
125760 On ch=1 n=g5 v=40
125840 On ch=1 n=g5 v=0
125840 On ch=1 n=a5 v=40
125920 On ch=1 n=a5 v=0
125920 On ch=1 n=b5 v=40
126000 On ch=1 n=b5 v=0
126000 On ch=1 n=e6 v=40
126080 On ch=1 n=e6 v=0
126080 On ch=1 n=g6 v=40
126160 On ch=1 n=g6 v=0
126160 On ch=1 n=a6 v=40
126240 On ch=1 n=a6 v=0
126240 On ch=1 n=e5 v=40
126240 On ch=1 n=b6 v=40
126360 On ch=1 n=b6 v=0
126600 On ch=1 n=e5 v=0
126600 On ch=1 n=f#5 v=40
126720 On ch=1 n=f#5 v=0
126720 On ch=1 n=b5 v=40
127080 On ch=1 n=b5 v=0
127080 On ch=1 n=g5 v=40
127200 On ch=1 n=g5 v=0
127200 On ch=1 n=e5 v=60
128160 On ch=1 n=e5 v=0
129520 On ch=1 n=g#5 v=40
129600 On ch=1 n=g#5 v=0
129600 On ch=1 n=b5 v=40
129680 On ch=1 n=b5 v=0
129680 On ch=1 n=c#6 v=40
129760 On ch=1 n=c#6 v=0
129760 On ch=1 n=d#6 v=40
129840 On ch=1 n=d#6 v=0
129840 On ch=1 n=g#6 v=40
129920 On ch=1 n=g#6 v=0
129920 On ch=1 n=b6 v=40
130000 On ch=1 n=b6 v=0
130000 On ch=1 n=c#7 v=40
130080 On ch=1 n=c#7 v=0
130080 On ch=1 n=d#7 v=40
130200 On ch=1 n=d#7 v=0
131520 On ch=1 n=d#6 v=40
131880 On ch=1 n=d#6 v=0
131880 On ch=1 n=c#6 v=40
131940 On ch=1 n=a#5 v=40
132000 On ch=1 n=a#5 v=0
132000 On ch=1 n=c#6 v=0
132000 On ch=1 n=b5 v=60
132000 On ch=1 n=a5 v=60
132420 On ch=1 n=a#6 v=60
132480 On ch=1 n=a#6 v=0
132480 On ch=1 n=a5 v=0
132480 On ch=1 n=b5 v=0
132480 On ch=1 n=b6 v=60
132480 On ch=1 n=a6 v=60
132960 On ch=1 n=a6 v=0
132960 On ch=1 n=b6 v=0
133380 On ch=1 n=b5 v=60
133440 On ch=1 n=b5 v=0
133440 On ch=1 n=c6 v=60
133440 On ch=1 n=a#5 v=60
133560 On ch=1 n=a#5 v=0
133560 On ch=1 n=c6 v=0
133620 On ch=1 n=b6 v=60
133680 On ch=1 n=b6 v=0
133680 On ch=1 n=c7 v=60
133680 On ch=1 n=a#6 v=60
133800 On ch=1 n=a#6 v=0
133800 On ch=1 n=c7 v=0
136080 On ch=1 n=f5 v=40
136140 On ch=1 n=f5 v=0
136140 On ch=1 n=a5 v=40
136200 On ch=1 n=a5 v=0
136200 On ch=1 n=f5 v=40
136260 On ch=1 n=f5 v=0
136260 On ch=1 n=a5 v=40
136320 On ch=1 n=a5 v=0
136560 On ch=1 n=f5 v=40
136620 On ch=1 n=f5 v=0
136620 On ch=1 n=a5 v=40
136680 On ch=1 n=a5 v=0
136680 On ch=1 n=f5 v=40
136740 On ch=1 n=f5 v=0
136740 On ch=1 n=a5 v=40
136800 On ch=1 n=a5 v=0
137040 On ch=1 n=f5 v=40
137100 On ch=1 n=f5 v=0
137100 On ch=1 n=a5 v=40
137160 On ch=1 n=a5 v=0
137160 On ch=1 n=f5 v=40
137220 On ch=1 n=f5 v=0
137220 On ch=1 n=a5 v=40
137280 On ch=1 n=a5 v=0
137520 On ch=1 n=a5 v=40
137580 On ch=1 n=a5 v=0
137580 On ch=1 n=c6 v=40
137640 On ch=1 n=c6 v=0
137640 On ch=1 n=a5 v=40
137700 On ch=1 n=a5 v=0
137700 On ch=1 n=c6 v=40
137760 On ch=1 n=c6 v=0
138000 On ch=1 n=f5 v=40
138060 On ch=1 n=f5 v=0
138060 On ch=1 n=a5 v=40
138120 On ch=1 n=a5 v=0
138120 On ch=1 n=f5 v=40
138180 On ch=1 n=f5 v=0
138180 On ch=1 n=a5 v=40
138240 On ch=1 n=a5 v=0
138480 On ch=1 n=f5 v=40
138540 On ch=1 n=f5 v=0
138540 On ch=1 n=a5 v=40
138600 On ch=1 n=a5 v=0
138600 On ch=1 n=f5 v=40
138660 On ch=1 n=f5 v=0
138660 On ch=1 n=a5 v=40
138720 On ch=1 n=a5 v=0
138960 On ch=1 n=f5 v=40
139020 On ch=1 n=f5 v=0
139020 On ch=1 n=a5 v=40
139080 On ch=1 n=a5 v=0
139080 On ch=1 n=f5 v=40
139140 On ch=1 n=f5 v=0
139140 On ch=1 n=a5 v=40
139200 On ch=1 n=a5 v=0
139440 On ch=1 n=a5 v=40
139500 On ch=1 n=a5 v=0
139500 On ch=1 n=c6 v=40
139560 On ch=1 n=c6 v=0
139560 On ch=1 n=a5 v=40
139620 On ch=1 n=a5 v=0
139620 On ch=1 n=c6 v=40
139680 On ch=1 n=c6 v=0
139920 On ch=1 n=f5 v=40
139980 On ch=1 n=f5 v=0
139980 On ch=1 n=a5 v=40
140040 On ch=1 n=a5 v=0
140040 On ch=1 n=f5 v=40
140100 On ch=1 n=f5 v=0
140100 On ch=1 n=a5 v=40
140160 On ch=1 n=a5 v=0
140400 On ch=1 n=a5 v=40
140460 On ch=1 n=a5 v=0
140460 On ch=1 n=c6 v=40
140520 On ch=1 n=c6 v=0
140520 On ch=1 n=a5 v=40
140580 On ch=1 n=a5 v=0
140580 On ch=1 n=c6 v=40
140640 On ch=1 n=c6 v=0
140880 On ch=1 n=f5 v=40
140940 On ch=1 n=f5 v=0
140940 On ch=1 n=a5 v=40
141000 On ch=1 n=a5 v=0
141000 On ch=1 n=f5 v=40
141060 On ch=1 n=f5 v=0
141060 On ch=1 n=a5 v=40
141120 On ch=1 n=a5 v=0
141360 On ch=1 n=a5 v=40
141420 On ch=1 n=a5 v=0
141420 On ch=1 n=c6 v=40
141480 On ch=1 n=c6 v=0
141480 On ch=1 n=a5 v=40
141540 On ch=1 n=a5 v=0
141540 On ch=1 n=c6 v=40
141600 On ch=1 n=c6 v=0
141600 On ch=1 n=f6 v=60
141960 On ch=1 n=f6 v=0
141960 On ch=1 n=g6 v=60
142080 On ch=1 n=g6 v=0
142080 On ch=1 n=c7 v=60
142440 On ch=1 n=c7 v=0
142440 On ch=1 n=g#6 v=60
142560 On ch=1 n=g#6 v=0
142560 On ch=1 n=g6 v=60
142920 On ch=1 n=g6 v=0
142920 On ch=1 n=f6 v=60
143040 On ch=1 n=f6 v=0
143040 On ch=1 n=d#6 v=60
143400 On ch=1 n=d#6 v=0
143400 On ch=1 n=d6 v=60
143520 On ch=1 n=d6 v=0
143520 On ch=1 n=c6 v=60
143880 On ch=1 n=c6 v=0
143880 On ch=1 n=d6 v=60
144000 On ch=1 n=d6 v=0
144000 On ch=1 n=g6 v=60
144360 On ch=1 n=g6 v=0
144360 On ch=1 n=d#6 v=60
144480 On ch=1 n=d#6 v=0
144480 On ch=1 n=c6 v=60
144640 On ch=1 n=c6 v=0
144640 On ch=1 n=d6 v=60
144800 On ch=1 n=d6 v=0
144800 On ch=1 n=d#6 v=60
144960 On ch=1 n=d#6 v=0
144960 On ch=1 n=f6 v=60
145120 On ch=1 n=f6 v=0
145120 On ch=1 n=g6 v=60
145280 On ch=1 n=g6 v=0
145280 On ch=1 n=d#6 v=60
145440 On ch=1 n=d#6 v=0
145440 On ch=1 n=f6 v=60
145800 On ch=1 n=f6 v=0
145800 On ch=1 n=g6 v=60
145920 On ch=1 n=g6 v=0
145920 On ch=1 n=c7 v=60
146280 On ch=1 n=c7 v=0
146280 On ch=1 n=g#6 v=60
146400 On ch=1 n=g#6 v=0
146400 On ch=1 n=g6 v=60
146760 On ch=1 n=g6 v=0
146760 On ch=1 n=f6 v=60
146880 On ch=1 n=f6 v=0
146880 On ch=1 n=d#6 v=60
147240 On ch=1 n=d#6 v=0
147240 On ch=1 n=d6 v=60
147360 On ch=1 n=d6 v=0
147360 On ch=1 n=c6 v=50
147720 On ch=1 n=c6 v=0
147720 On ch=1 n=d6 v=50
147840 On ch=1 n=d6 v=0
147840 On ch=1 n=g6 v=50
148200 On ch=1 n=g6 v=0
148200 On ch=1 n=d#6 v=50
148320 On ch=1 n=d#6 v=0
148320 On ch=1 n=c6 v=50
148480 On ch=1 n=c6 v=0
148480 On ch=1 n=d6 v=50
148640 On ch=1 n=d6 v=0
148640 On ch=1 n=d#6 v=50
148800 On ch=1 n=d#6 v=0
148800 On ch=1 n=f6 v=50
148960 On ch=1 n=f6 v=0
148960 On ch=1 n=g6 v=50
149120 On ch=1 n=g6 v=0
149120 On ch=1 n=d#6 v=50
149280 On ch=1 n=d#6 v=0
149280 On ch=1 n=f6 v=40
149640 On ch=1 n=f6 v=0
149640 On ch=1 n=g6 v=40
149760 On ch=1 n=g6 v=0
149760 On ch=1 n=c7 v=40
150120 On ch=1 n=c7 v=0
150120 On ch=1 n=g#6 v=40
150240 On ch=1 n=g#6 v=0
150240 On ch=1 n=f6 v=40
151680 On ch=1 n=c#7 v=40
151680 On ch=1 n=d#7 v=40
152040 On ch=1 n=d#7 v=0
152040 On ch=1 n=c#7 v=0
152040 On ch=1 n=c#6 v=40
152040 On ch=1 n=d#6 v=40
152160 On ch=1 n=d#6 v=0
152160 On ch=1 n=c#6 v=0
152160 On ch=1 n=d#7 v=40
152160 On ch=1 n=c#7 v=40
152400 On ch=1 n=c#7 v=0
152400 On ch=1 n=d#7 v=0
153120 On ch=1 n=f6 v=0
153120 On ch=1 n=f6 v=40
153480 On ch=1 n=f6 v=0
153480 On ch=1 n=g6 v=40
153600 On ch=1 n=g6 v=0
153600 On ch=1 n=c7 v=40
153960 On ch=1 n=c7 v=0
153960 On ch=1 n=g#6 v=40
154080 On ch=1 n=g#6 v=0
154080 On ch=1 n=f6 v=40
155520 On ch=1 n=c#7 v=40
155520 On ch=1 n=d#7 v=40
155880 On ch=1 n=d#7 v=0
155880 On ch=1 n=c#7 v=0
155880 On ch=1 n=c#6 v=40
155880 On ch=1 n=d#6 v=40
156000 On ch=1 n=d#6 v=0
156000 On ch=1 n=c#6 v=0
156000 On ch=1 n=d#7 v=40
156000 On ch=1 n=c#7 v=40
156240 On ch=1 n=c#7 v=0
156240 On ch=1 n=d#7 v=0
156960 On ch=1 n=f6 v=0
157440 On ch=1 n=e6 v=40
157536 On ch=1 n=e6 v=0
157536 On ch=1 n=f#6 v=40
157632 On ch=1 n=f#6 v=0
157632 On ch=1 n=g#6 v=40
157728 On ch=1 n=g#6 v=0
157728 On ch=1 n=a6 v=40
157824 On ch=1 n=a6 v=0
157824 On ch=1 n=b6 v=40
157920 On ch=1 n=b6 v=0
158400 On ch=1 n=e7 v=40
158496 On ch=1 n=e7 v=0
158496 On ch=1 n=f#7 v=40
158592 On ch=1 n=f#7 v=0
158592 On ch=1 n=g#7 v=40
158688 On ch=1 n=g#7 v=0
158688 On ch=1 n=a7 v=40
158784 On ch=1 n=a7 v=0
158784 On ch=1 n=b7 v=40
158880 On ch=1 n=b7 v=0
158880 On ch=1 n=c8 v=40
159000 On ch=1 n=c8 v=0
159000 On ch=1 n=d8 v=40
159120 On ch=1 n=d8 v=0
159120 On ch=1 n=d#8 v=40
159240 On ch=1 n=d#8 v=0
159240 On ch=1 n=f8 v=40
159360 On ch=1 n=f8 v=0
159360 On ch=1 n=g8 v=40
159600 On ch=1 n=g8 v=0
159600 Meta TrkEnd
TrkEnd
MTrk
0 SeqSpec 43 00 01 00
0 Meta TrkName "Right Bass"
0 Meta 0x21 00
124320 On ch=1 n=f4 v=60
124320 On ch=1 n=a#4 v=60
124320 On ch=1 n=c5 v=60
125280 On ch=1 n=c5 v=0
125280 On ch=1 n=a#4 v=0
125280 On ch=1 n=f4 v=0
125280 On ch=1 n=e4 v=60
125280 On ch=1 n=g4 v=60
125280 On ch=1 n=a4 v=60
125280 On ch=1 n=b4 v=60
128160 On ch=1 n=b4 v=0
128160 On ch=1 n=a4 v=0
128160 On ch=1 n=g4 v=0
128160 On ch=1 n=e4 v=0
128160 On ch=1 n=e5 v=60
128160 On ch=1 n=d5 v=60
128160 On ch=1 n=a4 v=60
129120 On ch=1 n=a4 v=0
129120 On ch=1 n=d5 v=0
129120 On ch=1 n=e5 v=0
129120 On ch=1 n=d#5 v=60
129120 On ch=1 n=c#5 v=60
129120 On ch=1 n=b4 v=60
129120 On ch=1 n=g#4 v=60
131040 On ch=1 n=g#4 v=0
131040 On ch=1 n=b4 v=0
131040 On ch=1 n=c#5 v=0
131040 On ch=1 n=d#5 v=0
133860 On ch=1 n=c5 v=60
133920 On ch=1 n=c5 v=0
133920 On ch=1 n=c#5 v=125
133920 On ch=1 n=a4 v=125
133920 On ch=1 n=f#4 v=125
135840 On ch=1 n=f#4 v=0
135840 On ch=1 n=a4 v=0
135840 On ch=1 n=c#5 v=0
135840 Meta TrkEnd
TrkEnd
MTrk
0 SeqSpec 43 00 01 00
0 Meta TrkName "Left Treble"
0 Meta 0x21 00
10560 On ch=1 n=b5 v=80
10880 On ch=1 n=b5 v=0
10880 On ch=1 n=b4 v=80
11440 On ch=1 n=b4 v=0
11440 On ch=1 n=f#5 v=80
11520 On ch=1 n=f#5 v=0
11520 On ch=1 n=f#5 v=70
13440 On ch=1 n=f#5 v=0
29760 On ch=1 n=a6 v=110
30000 On ch=1 n=a6 v=0
30240 On ch=1 n=g#6 v=110
30480 On ch=1 n=g#6 v=0
30720 On ch=1 n=g6 v=110
30960 On ch=1 n=g6 v=0
31200 On ch=1 n=f#6 v=110
31440 On ch=1 n=f#6 v=0
31680 On ch=1 n=a5 v=110
31920 On ch=1 n=a5 v=0
32160 On ch=1 n=g#5 v=110
32400 On ch=1 n=g#5 v=0
32640 On ch=1 n=g5 v=110
32880 On ch=1 n=g5 v=0
33120 On ch=1 n=f#5 v=110
33360 On ch=1 n=f#5 v=0
62400 On ch=1 n=c#5 v=60
62400 On ch=1 n=e5 v=60
62400 On ch=1 n=a5 v=60
62880 On ch=1 n=a5 v=0
62880 On ch=1 n=e5 v=0
62880 On ch=1 n=c#5 v=0
62880 On ch=1 n=d#5 v=60
62880 On ch=1 n=f#5 v=60
62880 On ch=1 n=b5 v=60
63360 On ch=1 n=b5 v=0
63360 On ch=1 n=f#5 v=0
63360 On ch=1 n=d#5 v=0
63360 On ch=1 n=c#5 v=60
63360 On ch=1 n=e5 v=60
63360 On ch=1 n=a5 v=60
63600 On ch=1 n=a5 v=0
63600 On ch=1 n=e5 v=0
63600 On ch=1 n=c#5 v=0
63600 On ch=1 n=b4 v=60
63600 On ch=1 n=d#5 v=60
63600 On ch=1 n=g#5 v=60
63840 On ch=1 n=g#5 v=0
63840 On ch=1 n=d#5 v=0
63840 On ch=1 n=b4 v=0
63840 On ch=1 n=a4 v=60
63840 On ch=1 n=c#5 v=60
63840 On ch=1 n=f#5 v=60
64080 On ch=1 n=f#5 v=0
64080 On ch=1 n=c#5 v=0
64080 On ch=1 n=a4 v=0
64080 On ch=1 n=b4 v=60
64080 On ch=1 n=d#5 v=60
64080 On ch=1 n=g#5 v=60
64320 On ch=1 n=g#5 v=0
64320 On ch=1 n=d#5 v=0
64320 On ch=1 n=b4 v=0
64320 On ch=1 n=f#4 v=60
64320 On ch=1 n=a4 v=60
64320 On ch=1 n=d#5 v=60
64800 On ch=1 n=d#5 v=0
64800 On ch=1 n=a4 v=0
64800 On ch=1 n=f#4 v=0
64800 On ch=1 n=a4 v=60
64800 On ch=1 n=c#5 v=60
64800 On ch=1 n=f#5 v=60
65280 On ch=1 n=f#5 v=0
65280 On ch=1 n=c#5 v=0
65280 On ch=1 n=a4 v=0
65280 On ch=1 n=a#4 v=60
65280 On ch=1 n=d#5 v=60
65280 On ch=1 n=g5 v=60
65340 On ch=1 n=g5 v=0
65340 On ch=1 n=d#5 v=0
65340 On ch=1 n=a#4 v=0
65340 On ch=1 n=d#5 v=60
65340 On ch=1 n=g5 v=60
65340 On ch=1 n=a#5 v=60
66720 On ch=1 n=a#5 v=0
66720 On ch=1 n=g5 v=0
66720 On ch=1 n=d#5 v=0
66720 On ch=1 n=a#4 v=60
66720 On ch=1 n=d#5 v=60
66720 On ch=1 n=g5 v=60
66780 On ch=1 n=g5 v=0
66780 On ch=1 n=d#5 v=0
66780 On ch=1 n=a#4 v=0
66780 On ch=1 n=d#5 v=60
66780 On ch=1 n=g5 v=60
66780 On ch=1 n=c6 v=60
66960 On ch=1 n=c6 v=0
66960 On ch=1 n=g5 v=0
66960 On ch=1 n=d#5 v=0
66960 On ch=1 n=d#5 v=60
66960 On ch=1 n=g5 v=60
66960 On ch=1 n=a#5 v=60
68160 On ch=1 n=a#5 v=0
68160 On ch=1 n=g5 v=0
68160 On ch=1 n=d#5 v=0
68160 On ch=1 n=c#5 v=60
68160 On ch=1 n=e5 v=60
68160 On ch=1 n=a5 v=60
68640 On ch=1 n=a5 v=0
68640 On ch=1 n=e5 v=0
68640 On ch=1 n=c#5 v=0
68640 On ch=1 n=d#5 v=60
68640 On ch=1 n=f#5 v=60
68640 On ch=1 n=b5 v=60
69120 On ch=1 n=b5 v=0
69120 On ch=1 n=f#5 v=0
69120 On ch=1 n=d#5 v=0
69120 On ch=1 n=c#5 v=60
69120 On ch=1 n=e5 v=60
69120 On ch=1 n=a5 v=60
69360 On ch=1 n=a5 v=0
69360 On ch=1 n=e5 v=0
69360 On ch=1 n=c#5 v=0
69360 On ch=1 n=b4 v=60
69360 On ch=1 n=d#5 v=60
69360 On ch=1 n=g#5 v=60
69600 On ch=1 n=g#5 v=0
69600 On ch=1 n=d#5 v=0
69600 On ch=1 n=b4 v=0
69600 On ch=1 n=a4 v=60
69600 On ch=1 n=c#5 v=60
69600 On ch=1 n=f#5 v=60
69840 On ch=1 n=f#5 v=0
69840 On ch=1 n=c#5 v=0
69840 On ch=1 n=a4 v=0
69840 On ch=1 n=b4 v=60
69840 On ch=1 n=d#5 v=60
69840 On ch=1 n=g#5 v=60
70080 On ch=1 n=g#5 v=0
70080 On ch=1 n=d#5 v=0
70080 On ch=1 n=b4 v=0
70080 On ch=1 n=f#4 v=60
70080 On ch=1 n=a4 v=60
70080 On ch=1 n=d#5 v=60
70560 On ch=1 n=d#5 v=0
70560 On ch=1 n=a4 v=0
70560 On ch=1 n=f#4 v=0
70560 On ch=1 n=a4 v=60
70560 On ch=1 n=c#5 v=60
70560 On ch=1 n=f#5 v=60
71040 On ch=1 n=f#5 v=0
71040 On ch=1 n=c#5 v=0
71040 On ch=1 n=a4 v=0
74400 On ch=1 n=d#5 v=80
74400 On ch=1 n=f#5 v=80
74400 On ch=1 n=b5 v=80
74560 On ch=1 n=b5 v=0
74560 On ch=1 n=f#5 v=0
74560 On ch=1 n=d#5 v=0
74560 On ch=1 n=b4 v=80
74560 On ch=1 n=f#4 v=80
74560 On ch=1 n=d#4 v=80
74680 On ch=1 n=d#4 v=0
74680 On ch=1 n=f#4 v=0
74680 On ch=1 n=b4 v=0
74800 On ch=1 n=b4 v=80
74800 On ch=1 n=d#5 v=80
74800 On ch=1 n=f#5 v=80
74840 On ch=1 n=f#5 v=0
74840 On ch=1 n=d#5 v=0
74840 On ch=1 n=b4 v=0
74880 On ch=1 n=b4 v=80
74880 On ch=1 n=d#5 v=80
74880 On ch=1 n=f#5 v=80
75360 On ch=1 n=f#5 v=0
75360 On ch=1 n=d#5 v=0
75360 On ch=1 n=b4 v=0
75600 On ch=1 n=b6 v=60
75680 On ch=1 n=b6 v=0
75680 On ch=1 n=d#6 v=60
75760 On ch=1 n=d#6 v=0
75760 On ch=1 n=b5 v=60
75840 On ch=1 n=b5 v=0
76080 On ch=1 n=b6 v=60
76160 On ch=1 n=b6 v=0
76160 On ch=1 n=d#6 v=60
76240 On ch=1 n=d#6 v=0
76240 On ch=1 n=b5 v=60
76320 On ch=1 n=b5 v=0
76320 On ch=1 n=d#5 v=80
76320 On ch=1 n=f#5 v=80
76320 On ch=1 n=b5 v=80
76480 On ch=1 n=b5 v=0
76480 On ch=1 n=f#5 v=0
76480 On ch=1 n=d#5 v=0
76480 On ch=1 n=b4 v=80
76480 On ch=1 n=f#4 v=80
76480 On ch=1 n=d#4 v=80
76600 On ch=1 n=d#4 v=0
76600 On ch=1 n=f#4 v=0
76600 On ch=1 n=b4 v=0
76720 On ch=1 n=b4 v=80
76720 On ch=1 n=d#5 v=80
76720 On ch=1 n=f#5 v=80
76760 On ch=1 n=f#5 v=0
76760 On ch=1 n=d#5 v=0
76760 On ch=1 n=b4 v=0
76800 On ch=1 n=b4 v=80
76800 On ch=1 n=d#5 v=80
76800 On ch=1 n=f#5 v=80
77280 On ch=1 n=f#5 v=0
77280 On ch=1 n=d#5 v=0
77280 On ch=1 n=b4 v=0
77520 On ch=1 n=b6 v=60
77600 On ch=1 n=b6 v=0
77600 On ch=1 n=d#6 v=60
77680 On ch=1 n=d#6 v=0
77680 On ch=1 n=b5 v=60
77760 On ch=1 n=b5 v=0
78000 On ch=1 n=b6 v=60
78080 On ch=1 n=b6 v=0
78080 On ch=1 n=d#6 v=60
78160 On ch=1 n=d#6 v=0
78160 On ch=1 n=b5 v=60
78240 On ch=1 n=b5 v=0
78480 On ch=1 n=b6 v=60
78560 On ch=1 n=b6 v=0
78560 On ch=1 n=d#6 v=60
78640 On ch=1 n=d#6 v=0
78640 On ch=1 n=b5 v=60
78720 On ch=1 n=b5 v=0
78960 On ch=1 n=e6 v=60
79040 On ch=1 n=e6 v=0
79040 On ch=1 n=g#5 v=60
79120 On ch=1 n=g#5 v=0
79120 On ch=1 n=e5 v=60
79200 On ch=1 n=e5 v=0
79440 On ch=1 n=b6 v=60
79520 On ch=1 n=b6 v=0
79520 On ch=1 n=d#6 v=60
79600 On ch=1 n=d#6 v=0
79600 On ch=1 n=b5 v=60
79680 On ch=1 n=b5 v=0
79920 On ch=1 n=e6 v=60
80000 On ch=1 n=e6 v=0
80000 On ch=1 n=g#5 v=60
80080 On ch=1 n=g#5 v=0
80080 On ch=1 n=e5 v=60
80160 On ch=1 n=e5 v=0
80400 On ch=1 n=b5 v=60
80480 On ch=1 n=b5 v=0
80480 On ch=1 n=c#5 v=60
80560 On ch=1 n=c#5 v=0
80560 On ch=1 n=b4 v=60
80640 On ch=1 n=b4 v=0
80880 On ch=1 n=b5 v=60
80960 On ch=1 n=b5 v=0
80960 On ch=1 n=c#5 v=60
81040 On ch=1 n=c#5 v=0
81040 On ch=1 n=b4 v=60
81120 On ch=1 n=b4 v=0
81360 On ch=1 n=b5 v=60
81440 On ch=1 n=b5 v=0
81440 On ch=1 n=c#5 v=60
81520 On ch=1 n=c#5 v=0
81520 On ch=1 n=b4 v=60
81600 On ch=1 n=b4 v=0
81840 On ch=1 n=b5 v=60
81920 On ch=1 n=b5 v=0
81920 On ch=1 n=b4 v=60
82000 On ch=1 n=b4 v=0
82000 On ch=1 n=c#5 v=60
82080 On ch=1 n=c#5 v=0
131040 On ch=1 n=g#5 v=40
131400 On ch=1 n=g#5 v=0
131400 On ch=1 n=a#5 v=40
131520 On ch=1 n=a#5 v=0
132000 On ch=1 n=d#5 v=60
132000 On ch=1 n=f#5 v=60
132720 On ch=1 n=f#5 v=0
132720 On ch=1 n=d#5 v=0
132720 On ch=1 n=d#6 v=60
132720 On ch=1 n=f#6 v=60
132960 On ch=1 n=f#6 v=0
132960 On ch=1 n=d#6 v=0
132960 On ch=1 n=d#5 v=60
132960 On ch=1 n=f#5 v=60
133920 On ch=1 n=f#5 v=0
133920 On ch=1 n=d#5 v=0
133920 On ch=1 n=d#5 v=125
133920 On ch=1 n=f#5 v=125
134160 On ch=1 n=f#5 v=0
134160 On ch=1 n=d#5 v=0
134160 On ch=1 n=d#5 v=110
134220 On ch=1 n=d#5 v=0
134220 On ch=1 n=f#5 v=110
134280 On ch=1 n=f#5 v=0
134280 On ch=1 n=d#5 v=110
134340 On ch=1 n=d#5 v=0
134340 On ch=1 n=f#5 v=110
134400 On ch=1 n=f#5 v=0
134400 On ch=1 n=d#5 v=100
134460 On ch=1 n=d#5 v=0
134460 On ch=1 n=f#5 v=100
134520 On ch=1 n=f#5 v=0
134520 On ch=1 n=d#5 v=100
134580 On ch=1 n=d#5 v=0
134580 On ch=1 n=f#5 v=100
134640 On ch=1 n=f#5 v=0
134640 On ch=1 n=d#5 v=90
134700 On ch=1 n=d#5 v=0
134700 On ch=1 n=f#5 v=90
134760 On ch=1 n=f#5 v=0
134760 On ch=1 n=d#5 v=90
134820 On ch=1 n=d#5 v=0
134820 On ch=1 n=f#5 v=90
134880 On ch=1 n=f#5 v=0
134880 On ch=1 n=d#5 v=80
134940 On ch=1 n=d#5 v=0
134940 On ch=1 n=f#5 v=80
135000 On ch=1 n=f#5 v=0
135000 On ch=1 n=d#5 v=80
135060 On ch=1 n=d#5 v=0
135060 On ch=1 n=f#5 v=80
135120 On ch=1 n=f#5 v=0
135120 On ch=1 n=d#5 v=70
135180 On ch=1 n=d#5 v=0
135180 On ch=1 n=f#5 v=70
135240 On ch=1 n=f#5 v=0
135240 On ch=1 n=d#5 v=70
135300 On ch=1 n=d#5 v=0
135300 On ch=1 n=f#5 v=70
135360 On ch=1 n=f#5 v=0
135360 On ch=1 n=d#5 v=60
135420 On ch=1 n=d#5 v=0
135420 On ch=1 n=f#5 v=60
135480 On ch=1 n=f#5 v=0
135480 On ch=1 n=d#5 v=60
135540 On ch=1 n=d#5 v=0
135540 On ch=1 n=f#5 v=60
135600 On ch=1 n=f#5 v=0
135600 On ch=1 n=d#5 v=50
135660 On ch=1 n=d#5 v=0
135660 On ch=1 n=f#5 v=50
135720 On ch=1 n=f#5 v=0
135720 On ch=1 n=d#5 v=50
135780 On ch=1 n=d#5 v=0
135780 On ch=1 n=f#5 v=50
135840 On ch=1 n=f#5 v=0
135840 On ch=1 n=d#5 v=40
135900 On ch=1 n=d#5 v=0
135900 On ch=1 n=f#5 v=40
135960 On ch=1 n=f#5 v=0
135960 On ch=1 n=d#5 v=40
136020 On ch=1 n=d#5 v=0
136020 On ch=1 n=f#5 v=40
136080 On ch=1 n=f#5 v=0
136320 On ch=1 n=g#5 v=40
136380 On ch=1 n=g#5 v=0
136380 On ch=1 n=b5 v=40
136440 On ch=1 n=b5 v=0
136440 On ch=1 n=g#5 v=40
136500 On ch=1 n=g#5 v=0
136500 On ch=1 n=b5 v=40
136560 On ch=1 n=b5 v=0
136800 On ch=1 n=d#5 v=40
136860 On ch=1 n=d#5 v=0
136860 On ch=1 n=f#5 v=40
136920 On ch=1 n=f#5 v=0
136920 On ch=1 n=d#5 v=40
136980 On ch=1 n=d#5 v=0
136980 On ch=1 n=f#5 v=40
137040 On ch=1 n=f#5 v=0
137280 On ch=1 n=g#5 v=40
137340 On ch=1 n=g#5 v=0
137340 On ch=1 n=b5 v=40
137400 On ch=1 n=b5 v=0
137400 On ch=1 n=g#5 v=40
137460 On ch=1 n=g#5 v=0
137460 On ch=1 n=b5 v=40
137520 On ch=1 n=b5 v=0
137760 On ch=1 n=d#5 v=40
137820 On ch=1 n=d#5 v=0
137820 On ch=1 n=f#5 v=40
137880 On ch=1 n=f#5 v=0
137880 On ch=1 n=d#5 v=40
137940 On ch=1 n=d#5 v=0
137940 On ch=1 n=f#5 v=40
138000 On ch=1 n=f#5 v=0
138240 On ch=1 n=g#5 v=40
138300 On ch=1 n=g#5 v=0
138300 On ch=1 n=b5 v=40
138360 On ch=1 n=b5 v=0
138360 On ch=1 n=g#5 v=40
138420 On ch=1 n=g#5 v=0
138420 On ch=1 n=b5 v=40
138480 On ch=1 n=b5 v=0
138720 On ch=1 n=d#5 v=40
138780 On ch=1 n=d#5 v=0
138780 On ch=1 n=f#5 v=40
138840 On ch=1 n=f#5 v=0
138840 On ch=1 n=d#5 v=40
138900 On ch=1 n=d#5 v=0
138900 On ch=1 n=f#5 v=40
138960 On ch=1 n=f#5 v=0
139200 On ch=1 n=g#5 v=40
139260 On ch=1 n=g#5 v=0
139260 On ch=1 n=b5 v=40
139320 On ch=1 n=b5 v=0
139320 On ch=1 n=g#5 v=40
139380 On ch=1 n=g#5 v=0
139380 On ch=1 n=b5 v=40
139440 On ch=1 n=b5 v=0
139680 On ch=1 n=d#5 v=40
139740 On ch=1 n=d#5 v=0
139740 On ch=1 n=f#5 v=40
139800 On ch=1 n=f#5 v=0
139800 On ch=1 n=d#5 v=40
139860 On ch=1 n=d#5 v=0
139860 On ch=1 n=f#5 v=40
139920 On ch=1 n=f#5 v=0
140160 On ch=1 n=g#5 v=40
140220 On ch=1 n=g#5 v=0
140220 On ch=1 n=b5 v=40
140280 On ch=1 n=b5 v=0
140280 On ch=1 n=g#5 v=40
140340 On ch=1 n=g#5 v=0
140340 On ch=1 n=b5 v=40
140400 On ch=1 n=b5 v=0
140640 On ch=1 n=d#5 v=40
140700 On ch=1 n=d#5 v=0
140700 On ch=1 n=f#5 v=40
140760 On ch=1 n=f#5 v=0
140760 On ch=1 n=d#5 v=40
140820 On ch=1 n=d#5 v=0
140820 On ch=1 n=f#5 v=40
140880 On ch=1 n=f#5 v=0
141120 On ch=1 n=g#5 v=40
141180 On ch=1 n=g#5 v=0
141180 On ch=1 n=b5 v=40
141240 On ch=1 n=b5 v=0
141240 On ch=1 n=g#5 v=40
141300 On ch=1 n=g#5 v=0
141300 On ch=1 n=b5 v=40
141360 On ch=1 n=b5 v=0
141600 On ch=1 n=g#5 v=40
141600 On ch=1 n=c5 v=40
141660 On ch=1 n=g#5 v=0
141660 On ch=1 n=a#5 v=40
141720 On ch=1 n=a#5 v=0
141720 On ch=1 n=g#5 v=40
141780 On ch=1 n=g#5 v=0
141780 On ch=1 n=a#5 v=40
141840 On ch=1 n=a#5 v=0
141840 On ch=1 n=g#5 v=40
141900 On ch=1 n=g#5 v=0
141900 On ch=1 n=a#5 v=40
141960 On ch=1 n=a#5 v=0
141960 On ch=1 n=g#5 v=40
142020 On ch=1 n=g#5 v=0
142020 On ch=1 n=a#5 v=40
142080 On ch=1 n=a#5 v=0
142080 On ch=1 n=g#5 v=40
142140 On ch=1 n=g#5 v=0
142140 On ch=1 n=a#5 v=40
142200 On ch=1 n=a#5 v=0
142200 On ch=1 n=g#5 v=40
142260 On ch=1 n=g#5 v=0
142260 On ch=1 n=a#5 v=40
142320 On ch=1 n=a#5 v=0
142320 On ch=1 n=g#5 v=40
142380 On ch=1 n=g#5 v=0
142380 On ch=1 n=a#5 v=40
142440 On ch=1 n=a#5 v=0
142440 On ch=1 n=g#5 v=40
142500 On ch=1 n=g#5 v=0
142500 On ch=1 n=a#5 v=40
142560 On ch=1 n=a#5 v=0
142560 On ch=1 n=c5 v=0
142560 On ch=1 n=d5 v=40
142560 On ch=1 n=g#5 v=40
142620 On ch=1 n=g#5 v=0
142620 On ch=1 n=a#5 v=40
142680 On ch=1 n=a#5 v=0
142680 On ch=1 n=g#5 v=40
142740 On ch=1 n=g#5 v=0
142740 On ch=1 n=a#5 v=40
142800 On ch=1 n=a#5 v=0
142800 On ch=1 n=g#5 v=40
142860 On ch=1 n=g#5 v=0
142860 On ch=1 n=a#5 v=40
142920 On ch=1 n=a#5 v=0
142920 On ch=1 n=g#5 v=40
142980 On ch=1 n=g#5 v=0
142980 On ch=1 n=a#5 v=40
143040 On ch=1 n=a#5 v=0
143040 On ch=1 n=g#5 v=40
143100 On ch=1 n=g#5 v=0
143100 On ch=1 n=a#5 v=40
143160 On ch=1 n=a#5 v=0
143160 On ch=1 n=g#5 v=40
143220 On ch=1 n=g#5 v=0
143220 On ch=1 n=a#5 v=40
143280 On ch=1 n=a#5 v=0
143280 On ch=1 n=g#5 v=40
143340 On ch=1 n=g#5 v=0
143340 On ch=1 n=a#5 v=40
143400 On ch=1 n=a#5 v=0
143400 On ch=1 n=g#5 v=40
143460 On ch=1 n=g#5 v=0
143460 On ch=1 n=a#5 v=40
143520 On ch=1 n=a#5 v=0
143520 On ch=1 n=d5 v=0
143520 On ch=1 n=g5 v=40
143520 On ch=1 n=g#5 v=40
143580 On ch=1 n=g#5 v=0
143580 On ch=1 n=a#5 v=40
143640 On ch=1 n=a#5 v=0
143640 On ch=1 n=g#5 v=40
143700 On ch=1 n=g#5 v=0
143700 On ch=1 n=a#5 v=40
143760 On ch=1 n=a#5 v=0
143760 On ch=1 n=g#5 v=40
143820 On ch=1 n=g#5 v=0
143820 On ch=1 n=a#5 v=40
143880 On ch=1 n=a#5 v=0
143880 On ch=1 n=g#5 v=40
143940 On ch=1 n=g#5 v=0
143940 On ch=1 n=a#5 v=40
144000 On ch=1 n=a#5 v=0
144000 On ch=1 n=g#5 v=40
144060 On ch=1 n=g#5 v=0
144060 On ch=1 n=a#5 v=40
144120 On ch=1 n=a#5 v=0
144120 On ch=1 n=g#5 v=40
144180 On ch=1 n=g#5 v=0
144180 On ch=1 n=a#5 v=40
144240 On ch=1 n=a#5 v=0
144240 On ch=1 n=g#5 v=40
144300 On ch=1 n=g#5 v=0
144300 On ch=1 n=a#5 v=40
144360 On ch=1 n=a#5 v=0
144360 On ch=1 n=g#5 v=40
144420 On ch=1 n=g#5 v=0
144420 On ch=1 n=a#5 v=40
144480 On ch=1 n=a#5 v=0
144480 On ch=1 n=g5 v=0
144480 On ch=1 n=f5 v=40
144480 On ch=1 n=g#5 v=40
144540 On ch=1 n=g#5 v=0
144540 On ch=1 n=a#5 v=40
144600 On ch=1 n=a#5 v=0
144600 On ch=1 n=g#5 v=40
144660 On ch=1 n=g#5 v=0
144660 On ch=1 n=a#5 v=40
144720 On ch=1 n=a#5 v=0
144720 On ch=1 n=g#5 v=40
144780 On ch=1 n=g#5 v=0
144780 On ch=1 n=a#5 v=40
144840 On ch=1 n=a#5 v=0
144840 On ch=1 n=g#5 v=40
144900 On ch=1 n=g#5 v=0
144900 On ch=1 n=a#5 v=40
144960 On ch=1 n=a#5 v=0
144960 On ch=1 n=f5 v=0
144960 On ch=1 n=d5 v=40
144960 On ch=1 n=g#5 v=40
145020 On ch=1 n=g#5 v=0
145020 On ch=1 n=a#5 v=40
145080 On ch=1 n=a#5 v=0
145080 On ch=1 n=g#5 v=40
145140 On ch=1 n=g#5 v=0
145140 On ch=1 n=a#5 v=40
145200 On ch=1 n=a#5 v=0
145200 On ch=1 n=g#5 v=40
145260 On ch=1 n=g#5 v=0
145260 On ch=1 n=a#5 v=40
145320 On ch=1 n=a#5 v=0
145320 On ch=1 n=g#5 v=40
145380 On ch=1 n=g#5 v=0
145380 On ch=1 n=a#5 v=40
145440 On ch=1 n=a#5 v=0
145440 On ch=1 n=d5 v=0
145440 On ch=1 n=c5 v=40
145440 On ch=1 n=g#5 v=40
145500 On ch=1 n=g#5 v=0
145500 On ch=1 n=a#5 v=40
145560 On ch=1 n=a#5 v=0
145560 On ch=1 n=g#5 v=40
145620 On ch=1 n=g#5 v=0
145620 On ch=1 n=a#5 v=40
145680 On ch=1 n=a#5 v=0
145680 On ch=1 n=g#5 v=40
145740 On ch=1 n=g#5 v=0
145740 On ch=1 n=a#5 v=40
145800 On ch=1 n=a#5 v=0
145800 On ch=1 n=g#5 v=40
145860 On ch=1 n=g#5 v=0
145860 On ch=1 n=a#5 v=40
145920 On ch=1 n=a#5 v=0
145920 On ch=1 n=g#5 v=40
145980 On ch=1 n=g#5 v=0
145980 On ch=1 n=a#5 v=40
146040 On ch=1 n=a#5 v=0
146040 On ch=1 n=g#5 v=40
146100 On ch=1 n=g#5 v=0
146100 On ch=1 n=a#5 v=40
146160 On ch=1 n=a#5 v=0
146160 On ch=1 n=g#5 v=40
146220 On ch=1 n=g#5 v=0
146220 On ch=1 n=a#5 v=40
146280 On ch=1 n=a#5 v=0
146280 On ch=1 n=g#5 v=40
146340 On ch=1 n=g#5 v=0
146340 On ch=1 n=a#5 v=40
146400 On ch=1 n=a#5 v=0
146400 On ch=1 n=g#5 v=40
146460 On ch=1 n=g#5 v=0
146460 On ch=1 n=a#5 v=40
146520 On ch=1 n=a#5 v=0
146520 On ch=1 n=g#5 v=40
146580 On ch=1 n=g#5 v=0
146580 On ch=1 n=a#5 v=40
146640 On ch=1 n=a#5 v=0
146640 On ch=1 n=g#5 v=40
146700 On ch=1 n=g#5 v=0
146700 On ch=1 n=a#5 v=40
146760 On ch=1 n=a#5 v=0
146760 On ch=1 n=g#5 v=40
146820 On ch=1 n=g#5 v=0
146820 On ch=1 n=a#5 v=40
146880 On ch=1 n=a#5 v=0
146880 On ch=1 n=g#5 v=40
146940 On ch=1 n=g#5 v=0
146940 On ch=1 n=a#5 v=40
147000 On ch=1 n=a#5 v=0
147000 On ch=1 n=g#5 v=40
147060 On ch=1 n=g#5 v=0
147060 On ch=1 n=a#5 v=40
147120 On ch=1 n=a#5 v=0
147120 On ch=1 n=g#5 v=40
147180 On ch=1 n=g#5 v=0
147180 On ch=1 n=a#5 v=40
147240 On ch=1 n=a#5 v=0
147240 On ch=1 n=g#5 v=40
147300 On ch=1 n=g#5 v=0
147300 On ch=1 n=a#5 v=40
147360 On ch=1 n=a#5 v=0
147360 On ch=1 n=c5 v=0
147360 On ch=1 n=a#4 v=40
147360 On ch=1 n=g#5 v=40
147420 On ch=1 n=g#5 v=0
147420 On ch=1 n=a#5 v=40
147480 On ch=1 n=a#5 v=0
147480 On ch=1 n=g#5 v=40
147540 On ch=1 n=g#5 v=0
147540 On ch=1 n=a#5 v=40
147600 On ch=1 n=a#5 v=0
147600 On ch=1 n=g#5 v=40
147660 On ch=1 n=g#5 v=0
147660 On ch=1 n=a#5 v=40
147720 On ch=1 n=a#5 v=0
147720 On ch=1 n=g#5 v=40
147780 On ch=1 n=g#5 v=0
147780 On ch=1 n=a#5 v=40
147840 On ch=1 n=a#5 v=0
147840 On ch=1 n=g#5 v=40
147900 On ch=1 n=g#5 v=0
147900 On ch=1 n=a#5 v=40
147960 On ch=1 n=a#5 v=0
147960 On ch=1 n=g#5 v=40
148020 On ch=1 n=g#5 v=0
148020 On ch=1 n=a#5 v=40
148080 On ch=1 n=a#5 v=0
148080 On ch=1 n=g#5 v=40
148140 On ch=1 n=g#5 v=0
148140 On ch=1 n=a#5 v=40
148200 On ch=1 n=a#5 v=0
148200 On ch=1 n=g#5 v=40
148260 On ch=1 n=g#5 v=0
148260 On ch=1 n=a#5 v=40
148320 On ch=1 n=a#5 v=0
148320 On ch=1 n=g#5 v=40
148380 On ch=1 n=g#5 v=0
148380 On ch=1 n=a#5 v=40
148440 On ch=1 n=a#5 v=0
148440 On ch=1 n=g#5 v=40
148500 On ch=1 n=g#5 v=0
148500 On ch=1 n=a#5 v=40
148560 On ch=1 n=a#5 v=0
148560 On ch=1 n=g#5 v=40
148620 On ch=1 n=g#5 v=0
148620 On ch=1 n=a#5 v=40
148680 On ch=1 n=a#5 v=0
148680 On ch=1 n=g#5 v=40
148740 On ch=1 n=g#5 v=0
148740 On ch=1 n=a#5 v=40
148800 On ch=1 n=a#5 v=0
148800 On ch=1 n=g#5 v=40
148860 On ch=1 n=g#5 v=0
148860 On ch=1 n=a#5 v=40
148920 On ch=1 n=a#5 v=0
148920 On ch=1 n=g#5 v=40
148980 On ch=1 n=g#5 v=0
148980 On ch=1 n=a#5 v=40
149040 On ch=1 n=a#5 v=0
149040 On ch=1 n=g#5 v=40
149100 On ch=1 n=g#5 v=0
149100 On ch=1 n=a#5 v=40
149160 On ch=1 n=a#5 v=0
149160 On ch=1 n=g#5 v=40
149220 On ch=1 n=g#5 v=0
149220 On ch=1 n=a#5 v=40
149280 On ch=1 n=a#5 v=0
149280 On ch=1 n=a#4 v=0
156960 On ch=1 n=g#5 v=40
157056 On ch=1 n=g#5 v=0
157056 On ch=1 n=a#5 v=40
157152 On ch=1 n=a#5 v=0
157152 On ch=1 n=c6 v=40
157248 On ch=1 n=c6 v=0
157248 On ch=1 n=c#6 v=40
157344 On ch=1 n=c#6 v=0
157344 On ch=1 n=d#6 v=40
157440 On ch=1 n=d#6 v=0
157920 On ch=1 n=g#6 v=40
158016 On ch=1 n=g#6 v=0
158016 On ch=1 n=a#6 v=40
158112 On ch=1 n=a#6 v=0
158112 On ch=1 n=c7 v=40
158208 On ch=1 n=c7 v=0
158208 On ch=1 n=c#7 v=40
158304 On ch=1 n=c#7 v=0
158304 On ch=1 n=d#7 v=40
158400 On ch=1 n=d#7 v=0
158400 Meta TrkEnd
TrkEnd
MTrk
0 SeqSpec 43 00 01 00
0 Meta TrkName "Left Bass"
0 Meta 0x21 00
13440 On ch=1 n=f4 v=60
13560 On ch=1 n=f4 v=0
13560 On ch=1 n=g#4 v=60
13680 On ch=1 n=g#4 v=0
13680 On ch=1 n=b4 v=60
13800 On ch=1 n=b4 v=0
13800 On ch=1 n=d#5 v=60
13920 On ch=1 n=d#5 v=0
15360 On ch=1 n=f5 v=60
15720 On ch=1 n=f5 v=0
15720 On ch=1 n=d#5 v=60
15840 On ch=1 n=d#5 v=0
15840 On ch=1 n=b4 v=60
16200 On ch=1 n=b4 v=0
16200 On ch=1 n=g#4 v=60
16320 On ch=1 n=g#4 v=0
16320 On ch=1 n=g4 v=60
16440 On ch=1 n=g4 v=0
16440 On ch=1 n=a#4 v=60
16560 On ch=1 n=a#4 v=0
16560 On ch=1 n=c#5 v=60
16680 On ch=1 n=c#5 v=0
16680 On ch=1 n=f5 v=60
16800 On ch=1 n=f5 v=0
18240 On ch=1 n=g5 v=60
18600 On ch=1 n=g5 v=0
18600 On ch=1 n=f5 v=60
18720 On ch=1 n=f5 v=0
18720 On ch=1 n=c#5 v=60
19080 On ch=1 n=c#5 v=0
19080 On ch=1 n=a#4 v=60
19200 On ch=1 n=a#4 v=0
19200 On ch=1 n=f4 v=60
19320 On ch=1 n=f4 v=0
19320 On ch=1 n=g#4 v=60
19440 On ch=1 n=g#4 v=0
19440 On ch=1 n=b4 v=60
19560 On ch=1 n=b4 v=0
19560 On ch=1 n=d#5 v=60
19680 On ch=1 n=d#5 v=0
21120 On ch=1 n=f5 v=60
21480 On ch=1 n=f5 v=0
21480 On ch=1 n=d#5 v=60
21600 On ch=1 n=d#5 v=0
21600 On ch=1 n=b4 v=60
21960 On ch=1 n=b4 v=0
21960 On ch=1 n=g#4 v=60
22080 On ch=1 n=g#4 v=0
22080 On ch=1 n=g4 v=60
22200 On ch=1 n=g4 v=0
22200 On ch=1 n=a#4 v=60
22320 On ch=1 n=a#4 v=0
22320 On ch=1 n=c#5 v=60
22440 On ch=1 n=c#5 v=0
22440 On ch=1 n=f5 v=60
22560 On ch=1 n=f5 v=0
24000 On ch=1 n=g5 v=60
24360 On ch=1 n=g5 v=0
24360 On ch=1 n=f5 v=60
24480 On ch=1 n=f5 v=0
24480 On ch=1 n=c#5 v=60
24840 On ch=1 n=c#5 v=0
24840 On ch=1 n=a#4 v=60
24960 On ch=1 n=a#4 v=0
24960 On ch=1 n=g4 v=70
25080 On ch=1 n=g4 v=0
25080 On ch=1 n=a#4 v=70
25200 On ch=1 n=a#4 v=0
25200 On ch=1 n=c#5 v=70
25320 On ch=1 n=c#5 v=0
25320 On ch=1 n=f5 v=70
25440 On ch=1 n=f5 v=0
37440 On ch=1 n=d#3 v=40
37680 On ch=1 n=d#3 v=0
37920 On ch=1 n=a#3 v=40
38160 On ch=1 n=a#3 v=0
38880 On ch=1 n=d#3 v=40
39120 On ch=1 n=d#3 v=0
39360 On ch=1 n=d#3 v=40
39600 On ch=1 n=d#3 v=0
39840 On ch=1 n=a#3 v=40
40080 On ch=1 n=a#3 v=0
40800 On ch=1 n=d#3 v=40
41040 On ch=1 n=d#3 v=0
41280 On ch=1 n=d#3 v=40
41520 On ch=1 n=d#3 v=0
41760 On ch=1 n=a#3 v=40
42000 On ch=1 n=a#3 v=0
42240 On ch=1 n=c5 v=40
42240 On ch=1 n=f4 v=40
42480 On ch=1 n=f4 v=0
42480 On ch=1 n=c5 v=0
43200 On ch=1 n=d#3 v=40
44160 On ch=1 n=a#3 v=40
44400 On ch=1 n=a#3 v=0
44640 On ch=1 n=d#3 v=40
44880 On ch=1 n=d#3 v=0
45120 On ch=1 n=d#3 v=0
45120 On ch=1 n=d#3 v=40
45360 On ch=1 n=d#3 v=0
45600 On ch=1 n=a#3 v=40
45840 On ch=1 n=a#3 v=0
47040 On ch=1 n=d#3 v=40
47040 On ch=1 n=d5 v=40
47040 On ch=1 n=g4 v=40
47280 On ch=1 n=g4 v=0
47280 On ch=1 n=d5 v=0
48960 On ch=1 n=d#3 v=0
48960 On ch=1 n=d#3 v=40
49020 On ch=1 n=d#3 v=0
49020 On ch=1 n=a#3 v=40
49080 On ch=1 n=a#3 v=0
49080 On ch=1 n=d#3 v=40
49140 On ch=1 n=d#3 v=0
49140 On ch=1 n=a#3 v=40
49200 On ch=1 n=a#3 v=0
49200 On ch=1 n=d#3 v=40
49260 On ch=1 n=d#3 v=0
49260 On ch=1 n=a#3 v=40
49320 On ch=1 n=a#3 v=0
49320 On ch=1 n=d#3 v=40
49380 On ch=1 n=d#3 v=0
49380 On ch=1 n=a#3 v=40
49440 On ch=1 n=a#3 v=0
49440 On ch=1 n=d#3 v=40
49500 On ch=1 n=d#3 v=0
49500 On ch=1 n=a#3 v=40
49560 On ch=1 n=a#3 v=0
49560 On ch=1 n=d#3 v=40
49620 On ch=1 n=d#3 v=0
49620 On ch=1 n=a#3 v=40
49680 On ch=1 n=a#3 v=0
49680 On ch=1 n=d#3 v=40
49740 On ch=1 n=d#3 v=0
49740 On ch=1 n=a#3 v=40
49800 On ch=1 n=a#3 v=0
49800 On ch=1 n=d#3 v=40
49860 On ch=1 n=d#3 v=0
49860 On ch=1 n=a#3 v=40
49920 On ch=1 n=a#3 v=0
49920 On ch=1 n=d#3 v=40
49980 On ch=1 n=d#3 v=0
49980 On ch=1 n=a#3 v=40
50040 On ch=1 n=a#3 v=0
50040 On ch=1 n=d#3 v=40
50100 On ch=1 n=d#3 v=0
50100 On ch=1 n=a#3 v=40
50160 On ch=1 n=a#3 v=0
50160 On ch=1 n=d#3 v=40
50220 On ch=1 n=d#3 v=0
50220 On ch=1 n=a#3 v=40
50280 On ch=1 n=a#3 v=0
50280 On ch=1 n=d#3 v=40
50340 On ch=1 n=d#3 v=0
50340 On ch=1 n=a#3 v=40
50400 On ch=1 n=a#3 v=0
50400 On ch=1 n=d#3 v=40
50460 On ch=1 n=d#3 v=0
50460 On ch=1 n=a#3 v=40
50520 On ch=1 n=a#3 v=0
50520 On ch=1 n=d#3 v=40
50580 On ch=1 n=d#3 v=0
50580 On ch=1 n=a#3 v=40
50640 On ch=1 n=a#3 v=0
50640 On ch=1 n=d#3 v=40
50700 On ch=1 n=d#3 v=0
50700 On ch=1 n=a#3 v=40
50760 On ch=1 n=a#3 v=0
50760 On ch=1 n=d#3 v=40
50820 On ch=1 n=d#3 v=0
50820 On ch=1 n=a#3 v=40
50880 On ch=1 n=a#3 v=0
50880 On ch=1 n=b3 v=40
50940 On ch=1 n=b3 v=0
50940 On ch=1 n=b2 v=40
51000 On ch=1 n=b2 v=0
51000 On ch=1 n=b3 v=40
51060 On ch=1 n=b3 v=0
51060 On ch=1 n=b2 v=40
51120 On ch=1 n=b2 v=0
51120 On ch=1 n=b3 v=40
51180 On ch=1 n=b3 v=0
51180 On ch=1 n=b2 v=40
51240 On ch=1 n=b2 v=0
51240 On ch=1 n=b3 v=40
51300 On ch=1 n=b3 v=0
51300 On ch=1 n=b2 v=40
51360 On ch=1 n=b2 v=0
51360 On ch=1 n=b3 v=40
51420 On ch=1 n=b3 v=0
51420 On ch=1 n=b2 v=40
51480 On ch=1 n=b2 v=0
51480 On ch=1 n=b3 v=40
51540 On ch=1 n=b3 v=0
51540 On ch=1 n=b2 v=40
51600 On ch=1 n=b2 v=0
51600 On ch=1 n=b3 v=40
51660 On ch=1 n=b3 v=0
51660 On ch=1 n=b2 v=40
51720 On ch=1 n=b2 v=0
51720 On ch=1 n=b3 v=40
51780 On ch=1 n=b3 v=0
51780 On ch=1 n=b2 v=40
51840 On ch=1 n=b2 v=0
51840 On ch=1 n=b3 v=40
51900 On ch=1 n=b3 v=0
51900 On ch=1 n=b2 v=40
51960 On ch=1 n=b2 v=0
51960 On ch=1 n=b3 v=40
52020 On ch=1 n=b3 v=0
52020 On ch=1 n=b2 v=40
52080 On ch=1 n=b2 v=0
52080 On ch=1 n=b3 v=40
52140 On ch=1 n=b3 v=0
52140 On ch=1 n=b2 v=40
52200 On ch=1 n=b2 v=0
52200 On ch=1 n=b3 v=40
52260 On ch=1 n=b3 v=0
52260 On ch=1 n=b2 v=40
52320 On ch=1 n=b2 v=0
52320 On ch=1 n=b3 v=40
52380 On ch=1 n=b3 v=0
52380 On ch=1 n=b2 v=40
52440 On ch=1 n=b2 v=0
52440 On ch=1 n=b3 v=40
52500 On ch=1 n=b3 v=0
52500 On ch=1 n=b2 v=40
52560 On ch=1 n=b2 v=0
52560 On ch=1 n=b3 v=40
52620 On ch=1 n=b3 v=0
52620 On ch=1 n=b2 v=40
52680 On ch=1 n=b2 v=0
52680 On ch=1 n=b3 v=40
52740 On ch=1 n=b3 v=0
52740 On ch=1 n=b2 v=40
52800 On ch=1 n=b2 v=0
52800 On ch=1 n=d#3 v=40
52860 On ch=1 n=d#3 v=0
52860 On ch=1 n=a#3 v=40
52920 On ch=1 n=a#3 v=0
52920 On ch=1 n=d#3 v=40
52980 On ch=1 n=d#3 v=0
52980 On ch=1 n=a#3 v=40
53040 On ch=1 n=a#3 v=0
53040 On ch=1 n=d#3 v=40
53100 On ch=1 n=d#3 v=0
53100 On ch=1 n=a#3 v=40
53160 On ch=1 n=a#3 v=0
53160 On ch=1 n=d#3 v=40
53220 On ch=1 n=d#3 v=0
53220 On ch=1 n=a#3 v=40
53280 On ch=1 n=a#3 v=0
53280 On ch=1 n=d#3 v=40
53340 On ch=1 n=d#3 v=0
53340 On ch=1 n=a#3 v=40
53400 On ch=1 n=a#3 v=0
53400 On ch=1 n=d#3 v=40
53460 On ch=1 n=d#3 v=0
53460 On ch=1 n=a#3 v=40
53520 On ch=1 n=a#3 v=0
53520 On ch=1 n=d#3 v=40
53580 On ch=1 n=d#3 v=0
53580 On ch=1 n=a#3 v=40
53640 On ch=1 n=a#3 v=0
53640 On ch=1 n=d#3 v=40
53700 On ch=1 n=d#3 v=0
53700 On ch=1 n=a#3 v=40
53760 On ch=1 n=a#3 v=0
53760 On ch=1 n=d#3 v=40
53820 On ch=1 n=d#3 v=0
53820 On ch=1 n=a#3 v=40
53880 On ch=1 n=a#3 v=0
53880 On ch=1 n=d#3 v=40
53940 On ch=1 n=d#3 v=0
53940 On ch=1 n=a#3 v=40
54000 On ch=1 n=a#3 v=0
54000 On ch=1 n=d#3 v=40
54060 On ch=1 n=d#3 v=0
54060 On ch=1 n=a#3 v=40
54120 On ch=1 n=a#3 v=0
54120 On ch=1 n=d#3 v=40
54180 On ch=1 n=d#3 v=0
54180 On ch=1 n=a#3 v=40
54240 On ch=1 n=a#3 v=0
54240 On ch=1 n=d#3 v=40
54300 On ch=1 n=d#3 v=0
54300 On ch=1 n=a#3 v=40
54360 On ch=1 n=a#3 v=0
54360 On ch=1 n=d#3 v=40
54420 On ch=1 n=d#3 v=0
54420 On ch=1 n=a#3 v=40
54480 On ch=1 n=a#3 v=0
54480 On ch=1 n=d#3 v=40
54540 On ch=1 n=d#3 v=0
54540 On ch=1 n=a#3 v=40
54600 On ch=1 n=a#3 v=0
54600 On ch=1 n=d#3 v=40
54660 On ch=1 n=d#3 v=0
54660 On ch=1 n=a#3 v=40
54720 On ch=1 n=a#3 v=0
54720 On ch=1 n=b3 v=40
54780 On ch=1 n=b3 v=0
54780 On ch=1 n=b2 v=40
54840 On ch=1 n=b2 v=0
54840 On ch=1 n=b3 v=40
54900 On ch=1 n=b3 v=0
54900 On ch=1 n=b2 v=40
54960 On ch=1 n=b2 v=0
54960 On ch=1 n=b3 v=40
55020 On ch=1 n=b3 v=0
55020 On ch=1 n=b2 v=40
55080 On ch=1 n=b2 v=0
55080 On ch=1 n=b3 v=40
55140 On ch=1 n=b3 v=0
55140 On ch=1 n=b2 v=40
55200 On ch=1 n=b2 v=0
55200 On ch=1 n=b3 v=40
55260 On ch=1 n=b3 v=0
55260 On ch=1 n=b2 v=40
55320 On ch=1 n=b2 v=0
55320 On ch=1 n=b3 v=40
55380 On ch=1 n=b3 v=0
55380 On ch=1 n=b2 v=40
55440 On ch=1 n=b2 v=0
55440 On ch=1 n=b3 v=40
55500 On ch=1 n=b3 v=0
55500 On ch=1 n=b2 v=40
55560 On ch=1 n=b2 v=0
55560 On ch=1 n=b3 v=40
55620 On ch=1 n=b3 v=0
55620 On ch=1 n=b2 v=40
55680 On ch=1 n=b2 v=0
55680 On ch=1 n=b3 v=40
55740 On ch=1 n=b3 v=0
55740 On ch=1 n=b2 v=40
55800 On ch=1 n=b2 v=0
55800 On ch=1 n=b3 v=40
55860 On ch=1 n=b3 v=0
55860 On ch=1 n=b2 v=40
55920 On ch=1 n=b2 v=0
55920 On ch=1 n=b3 v=40
55980 On ch=1 n=b3 v=0
55980 On ch=1 n=b2 v=40
56040 On ch=1 n=b2 v=0
56040 On ch=1 n=b3 v=40
56100 On ch=1 n=b3 v=0
56100 On ch=1 n=b2 v=40
56160 On ch=1 n=b2 v=0
56160 On ch=1 n=b3 v=40
56220 On ch=1 n=b3 v=0
56220 On ch=1 n=b2 v=40
56280 On ch=1 n=b2 v=0
56280 On ch=1 n=b3 v=40
56340 On ch=1 n=b3 v=0
56340 On ch=1 n=b2 v=40
56400 On ch=1 n=b2 v=0
56400 On ch=1 n=b3 v=40
56460 On ch=1 n=b3 v=0
56460 On ch=1 n=b2 v=40
56520 On ch=1 n=b2 v=0
56520 On ch=1 n=b3 v=40
56580 On ch=1 n=b3 v=0
56580 On ch=1 n=b2 v=40
56640 On ch=1 n=b2 v=0
56640 On ch=1 n=d#3 v=40
56700 On ch=1 n=d#3 v=0
56700 On ch=1 n=a#3 v=40
56760 On ch=1 n=a#3 v=0
56760 On ch=1 n=d#3 v=40
56820 On ch=1 n=d#3 v=0
56820 On ch=1 n=a#3 v=40
56880 On ch=1 n=a#3 v=0
56880 On ch=1 n=d#3 v=40
56940 On ch=1 n=d#3 v=0
56940 On ch=1 n=a#3 v=40
57000 On ch=1 n=a#3 v=0
57000 On ch=1 n=d#3 v=40
57060 On ch=1 n=d#3 v=0
57060 On ch=1 n=a#3 v=40
57120 On ch=1 n=a#3 v=0
57120 On ch=1 n=d#3 v=40
57180 On ch=1 n=d#3 v=0
57180 On ch=1 n=a#3 v=40
57240 On ch=1 n=a#3 v=0
57240 On ch=1 n=d#3 v=40
57300 On ch=1 n=d#3 v=0
57300 On ch=1 n=a#3 v=40
57360 On ch=1 n=a#3 v=0
57360 On ch=1 n=d#3 v=40
57420 On ch=1 n=d#3 v=0
57420 On ch=1 n=a#3 v=40
57480 On ch=1 n=a#3 v=0
57480 On ch=1 n=d#3 v=40
57540 On ch=1 n=d#3 v=0
57540 On ch=1 n=a#3 v=40
57600 On ch=1 n=a#3 v=0
57600 On ch=1 n=d#3 v=40
57660 On ch=1 n=d#3 v=0
57660 On ch=1 n=a#3 v=40
57720 On ch=1 n=a#3 v=0
57720 On ch=1 n=d#3 v=40
57780 On ch=1 n=d#3 v=0
57780 On ch=1 n=a#3 v=40
57840 On ch=1 n=a#3 v=0
57840 On ch=1 n=d#3 v=40
57900 On ch=1 n=d#3 v=0
57900 On ch=1 n=a#3 v=40
57960 On ch=1 n=a#3 v=0
57960 On ch=1 n=d#3 v=40
58020 On ch=1 n=d#3 v=0
58020 On ch=1 n=a#3 v=40
58080 On ch=1 n=a#3 v=0
58080 On ch=1 n=d#3 v=40
58140 On ch=1 n=d#3 v=0
58140 On ch=1 n=a#3 v=40
58200 On ch=1 n=a#3 v=0
58200 On ch=1 n=d#3 v=40
58260 On ch=1 n=d#3 v=0
58260 On ch=1 n=a#3 v=40
58320 On ch=1 n=a#3 v=0
58320 On ch=1 n=d#3 v=40
58380 On ch=1 n=d#3 v=0
58380 On ch=1 n=a#3 v=40
58440 On ch=1 n=a#3 v=0
58440 On ch=1 n=d#3 v=40
58500 On ch=1 n=d#3 v=0
58500 On ch=1 n=a#3 v=40
58560 On ch=1 n=a#3 v=0
58560 On ch=1 n=g#4 v=40
58560 On ch=1 n=a#4 v=40
58560 On ch=1 n=d#3 v=40
58620 On ch=1 n=d#3 v=0
58620 On ch=1 n=a#3 v=40
58680 On ch=1 n=a#3 v=0
58680 On ch=1 n=d#3 v=40
58740 On ch=1 n=d#3 v=0
58740 On ch=1 n=a#3 v=40
58800 On ch=1 n=a#3 v=0
58800 On ch=1 n=d#3 v=40
58860 On ch=1 n=d#3 v=0
58860 On ch=1 n=a#3 v=40
58920 On ch=1 n=a#3 v=0
58920 On ch=1 n=d#3 v=40
58980 On ch=1 n=d#3 v=0
58980 On ch=1 n=a#3 v=40
59040 On ch=1 n=a#3 v=0
59040 On ch=1 n=d#3 v=40
59100 On ch=1 n=d#3 v=0
59100 On ch=1 n=a#3 v=40
59160 On ch=1 n=a#3 v=0
59160 On ch=1 n=d#3 v=40
59220 On ch=1 n=d#3 v=0
59220 On ch=1 n=a#3 v=40
59280 On ch=1 n=a#3 v=0
59280 On ch=1 n=d#3 v=40
59340 On ch=1 n=d#3 v=0
59340 On ch=1 n=a#3 v=40
59400 On ch=1 n=a#3 v=0
59400 On ch=1 n=d#3 v=40
59460 On ch=1 n=d#3 v=0
59460 On ch=1 n=a#3 v=40
59520 On ch=1 n=a#3 v=0
59520 On ch=1 n=d#3 v=40
59580 On ch=1 n=d#3 v=0
59580 On ch=1 n=a#3 v=40
59640 On ch=1 n=a#3 v=0
59640 On ch=1 n=d#3 v=40
59700 On ch=1 n=d#3 v=0
59700 On ch=1 n=a#3 v=40
59760 On ch=1 n=a#3 v=0
59760 On ch=1 n=d#3 v=40
59820 On ch=1 n=d#3 v=0
59820 On ch=1 n=a#3 v=40
59880 On ch=1 n=a#3 v=0
59880 On ch=1 n=d#3 v=40
59940 On ch=1 n=d#3 v=0
59940 On ch=1 n=a#3 v=40
60000 On ch=1 n=a#3 v=0
60000 On ch=1 n=d#3 v=40
60060 On ch=1 n=d#3 v=0
60060 On ch=1 n=a#3 v=40
60120 On ch=1 n=a#3 v=0
60120 On ch=1 n=d#3 v=40
60180 On ch=1 n=d#3 v=0
60180 On ch=1 n=a#3 v=40
60240 On ch=1 n=a#3 v=0
60240 On ch=1 n=d#3 v=40
60300 On ch=1 n=d#3 v=0
60300 On ch=1 n=a#3 v=40
60360 On ch=1 n=a#3 v=0
60360 On ch=1 n=d#3 v=40
60420 On ch=1 n=d#3 v=0
60420 On ch=1 n=a#3 v=40
60480 On ch=1 n=a#3 v=0
60480 On ch=1 n=a#4 v=0
60480 On ch=1 n=g#4 v=0
60480 On ch=1 n=d#2 v=40
62400 On ch=1 n=d#2 v=0
65760 On ch=1 n=d#2 v=40
66480 On ch=1 n=d#2 v=0
67200 On ch=1 n=d#2 v=40
67920 On ch=1 n=d#2 v=0
71040 On ch=1 n=c#5 v=50
71040 On ch=1 n=g#4 v=50
71040 On ch=1 n=e4 v=50
71520 On ch=1 n=e4 v=0
71520 On ch=1 n=g#4 v=0
71520 On ch=1 n=c#5 v=0
71520 On ch=1 n=c#4 v=50
71520 On ch=1 n=f#4 v=50
71520 On ch=1 n=a#4 v=50
72000 On ch=1 n=a#4 v=0
72000 On ch=1 n=f#4 v=0
72000 On ch=1 n=c#4 v=0
72000 On ch=1 n=a#3 v=50
72000 On ch=1 n=d#4 v=50
72000 On ch=1 n=g4 v=50
72480 On ch=1 n=d#2 v=50
72600 On ch=1 n=d#2 v=0
72720 On ch=1 n=g4 v=0
72720 On ch=1 n=d#4 v=0
72720 On ch=1 n=a#3 v=0
72720 On ch=1 n=c#4 v=50
72720 On ch=1 n=f#4 v=50
72720 On ch=1 n=a#4 v=50
72960 On ch=1 n=a#4 v=0
72960 On ch=1 n=f#4 v=0
72960 On ch=1 n=c#4 v=0
72960 On ch=1 n=c#5 v=60
72960 On ch=1 n=g#4 v=60
72960 On ch=1 n=f4 v=60
73440 On ch=1 n=f4 v=0
73440 On ch=1 n=g#4 v=0
73440 On ch=1 n=c#5 v=0
73440 On ch=1 n=f5 v=70
73440 On ch=1 n=c#5 v=70
73440 On ch=1 n=g#4 v=70
73920 On ch=1 n=g#4 v=0
73920 On ch=1 n=c#5 v=0
73920 On ch=1 n=f5 v=0
73920 On ch=1 n=g#5 v=80
73920 On ch=1 n=f5 v=80
73920 On ch=1 n=c#5 v=80
74400 On ch=1 n=c#5 v=0
74400 On ch=1 n=f5 v=0
74400 On ch=1 n=g#5 v=0
75120 On ch=1 n=d#2 v=80
75360 On ch=1 n=d#2 v=0
77040 On ch=1 n=d#2 v=40
77280 On ch=1 n=d#2 v=0
82020 On ch=1 n=d5 v=40
82080 On ch=1 n=d5 v=0
82080 On ch=1 n=c#5 v=40
82080 On ch=1 n=g#4 v=40
82080 On ch=1 n=f4 v=40
82320 On ch=1 n=d#4 v=40
82440 On ch=1 n=d#4 v=0
82560 On ch=1 n=a#3 v=40
82680 On ch=1 n=a#3 v=0
82800 On ch=1 n=d#3 v=40
82920 On ch=1 n=d#3 v=0
83040 On ch=1 n=f4 v=0
83040 On ch=1 n=g#4 v=0
83040 On ch=1 n=c#5 v=0
83040 On ch=1 n=d#5 v=40
83040 On ch=1 n=c#5 v=40
83040 On ch=1 n=g4 v=40
83280 On ch=1 n=d#4 v=40
83400 On ch=1 n=d#4 v=0
83520 On ch=1 n=a#3 v=40
83640 On ch=1 n=a#3 v=0
83760 On ch=1 n=d#3 v=40
83880 On ch=1 n=d#3 v=0
83940 On ch=1 n=g5 v=40
84000 On ch=1 n=g5 v=0
84000 On ch=1 n=g4 v=0
84000 On ch=1 n=c#5 v=0
84000 On ch=1 n=d#5 v=0
84000 On ch=1 n=f5 v=40
84000 On ch=1 n=c5 v=40
84000 On ch=1 n=g#4 v=40
84240 On ch=1 n=d#4 v=40
84360 On ch=1 n=d#4 v=0
84480 On ch=1 n=a#3 v=40
84600 On ch=1 n=a#3 v=0
84720 On ch=1 n=d#3 v=40
84840 On ch=1 n=d#3 v=0
84960 On ch=1 n=a#3 v=40
85080 On ch=1 n=a#3 v=0
85200 On ch=1 n=d#4 v=40
85320 On ch=1 n=d#4 v=0
85440 On ch=1 n=a#4 v=40
85560 On ch=1 n=a#4 v=0
85680 On ch=1 n=d#5 v=40
85800 On ch=1 n=d#5 v=0
85800 On ch=1 n=c#3 v=40
85860 On ch=1 n=c#3 v=0
85860 On ch=1 n=c#4 v=40
85920 On ch=1 n=c#4 v=0
85920 On ch=1 n=g#4 v=0
85920 On ch=1 n=c5 v=0
85920 On ch=1 n=f5 v=0
85920 On ch=1 n=c#5 v=40
85980 On ch=1 n=c#5 v=0
85980 On ch=1 n=d5 v=40
86040 On ch=1 n=d5 v=0
86040 On ch=1 n=c#5 v=40
86100 On ch=1 n=c#5 v=0
86100 On ch=1 n=d5 v=40
86160 On ch=1 n=d5 v=0
86160 On ch=1 n=c#5 v=40
86220 On ch=1 n=c#5 v=0
86220 On ch=1 n=d5 v=40
86280 On ch=1 n=d5 v=0
86280 On ch=1 n=c#5 v=40
86340 On ch=1 n=c#5 v=0
86340 On ch=1 n=d5 v=40
86400 On ch=1 n=d5 v=0
86400 On ch=1 n=c#5 v=40
86460 On ch=1 n=c#5 v=0
86460 On ch=1 n=d5 v=40
86520 On ch=1 n=d5 v=0
86520 On ch=1 n=c#5 v=40
86580 On ch=1 n=c#5 v=0
86580 On ch=1 n=d5 v=40
86640 On ch=1 n=d5 v=0
86640 On ch=1 n=c#5 v=40
86700 On ch=1 n=c#5 v=0
86700 On ch=1 n=d5 v=40
86760 On ch=1 n=d5 v=0
86760 On ch=1 n=c#5 v=40
86820 On ch=1 n=c#5 v=0
86820 On ch=1 n=d5 v=40
86880 On ch=1 n=d5 v=0
86880 On ch=1 n=c#5 v=40
86940 On ch=1 n=c#5 v=0
86940 On ch=1 n=d5 v=40
87000 On ch=1 n=d5 v=0
87000 On ch=1 n=c#5 v=40
87060 On ch=1 n=c#5 v=0
87060 On ch=1 n=d5 v=40
87120 On ch=1 n=d5 v=0
87120 On ch=1 n=c#5 v=40
87180 On ch=1 n=c#5 v=0
87180 On ch=1 n=d5 v=40
87240 On ch=1 n=d5 v=0
87240 On ch=1 n=c#5 v=40
87300 On ch=1 n=c#5 v=0
87300 On ch=1 n=d5 v=40
87360 On ch=1 n=d5 v=0
87360 On ch=1 n=c#5 v=40
87420 On ch=1 n=c#5 v=0
87420 On ch=1 n=d5 v=40
87480 On ch=1 n=d5 v=0
87480 On ch=1 n=c#5 v=40
87540 On ch=1 n=c#5 v=0
87540 On ch=1 n=d5 v=40
87600 On ch=1 n=d5 v=0
87600 On ch=1 n=c#5 v=40
87660 On ch=1 n=c#5 v=0
87660 On ch=1 n=d5 v=40
87720 On ch=1 n=d5 v=0
87720 On ch=1 n=c#5 v=40
87780 On ch=1 n=c#5 v=0
87780 On ch=1 n=d5 v=40
87840 On ch=1 n=d5 v=0
87840 On ch=1 n=c#5 v=40
87900 On ch=1 n=c#5 v=0
87900 On ch=1 n=d5 v=40
87960 On ch=1 n=d5 v=0
87960 On ch=1 n=c#5 v=40
88020 On ch=1 n=c#5 v=0
88020 On ch=1 n=d5 v=40
88080 On ch=1 n=d5 v=0
88080 On ch=1 n=c#5 v=40
88140 On ch=1 n=c#5 v=0
88140 On ch=1 n=d5 v=40
88200 On ch=1 n=d5 v=0
88200 On ch=1 n=c#5 v=40
88260 On ch=1 n=c#5 v=0
88260 On ch=1 n=d5 v=40
88320 On ch=1 n=d5 v=0
88320 On ch=1 n=c#5 v=40
88380 On ch=1 n=c#5 v=0
88380 On ch=1 n=d5 v=40
88440 On ch=1 n=d5 v=0
88440 On ch=1 n=c#5 v=40
88500 On ch=1 n=c#5 v=0
88500 On ch=1 n=d5 v=40
88560 On ch=1 n=d5 v=0
88560 On ch=1 n=c#5 v=40
88620 On ch=1 n=c#5 v=0
88620 On ch=1 n=d5 v=40
88680 On ch=1 n=d5 v=0
88680 On ch=1 n=c#5 v=40
88740 On ch=1 n=c#5 v=0
88740 On ch=1 n=d5 v=40
88800 On ch=1 n=d5 v=0
88800 On ch=1 n=c#5 v=40
88860 On ch=1 n=c#5 v=0
88860 On ch=1 n=d5 v=40
88920 On ch=1 n=d5 v=0
88920 On ch=1 n=c#5 v=40
88980 On ch=1 n=c#5 v=0
88980 On ch=1 n=d5 v=40
89040 On ch=1 n=d5 v=0
89040 On ch=1 n=c#5 v=40
89100 On ch=1 n=c#5 v=0
89100 On ch=1 n=d5 v=40
89160 On ch=1 n=d5 v=0
89160 On ch=1 n=c#5 v=40
89220 On ch=1 n=c#5 v=0
89220 On ch=1 n=d5 v=40
89280 On ch=1 n=d5 v=0
89280 On ch=1 n=c#5 v=40
89340 On ch=1 n=c#5 v=0
89340 On ch=1 n=d5 v=40
89400 On ch=1 n=d5 v=0
89400 On ch=1 n=c#5 v=40
89460 On ch=1 n=c#5 v=0
89460 On ch=1 n=d5 v=40
89520 On ch=1 n=d5 v=0
89520 On ch=1 n=c#5 v=40
89580 On ch=1 n=c#5 v=0
89580 On ch=1 n=d5 v=40
89640 On ch=1 n=d5 v=0
89640 On ch=1 n=c#5 v=40
89700 On ch=1 n=c#5 v=0
89700 On ch=1 n=d5 v=40
89760 On ch=1 n=d5 v=0
89760 On ch=1 n=c#5 v=40
89820 On ch=1 n=c#5 v=0
89820 On ch=1 n=d5 v=40
89880 On ch=1 n=d5 v=0
89880 On ch=1 n=c#5 v=40
89940 On ch=1 n=c#5 v=0
89940 On ch=1 n=d5 v=40
90000 On ch=1 n=d5 v=0
90000 On ch=1 n=c#5 v=40
90060 On ch=1 n=c#5 v=0
90060 On ch=1 n=d5 v=40
90120 On ch=1 n=d5 v=0
90120 On ch=1 n=c#5 v=40
90180 On ch=1 n=c#5 v=0
90180 On ch=1 n=d5 v=40
90240 On ch=1 n=d5 v=0
90240 On ch=1 n=c#5 v=40
90300 On ch=1 n=c#5 v=0
90300 On ch=1 n=d5 v=40
90360 On ch=1 n=d5 v=0
90360 On ch=1 n=c#5 v=40
90420 On ch=1 n=c#5 v=0
90420 On ch=1 n=d5 v=40
90480 On ch=1 n=d5 v=0
90480 On ch=1 n=c#5 v=40
90540 On ch=1 n=c#5 v=0
90540 On ch=1 n=d5 v=40
90600 On ch=1 n=d5 v=0
90600 On ch=1 n=c#5 v=40
90660 On ch=1 n=c#5 v=0
90660 On ch=1 n=d5 v=40
90720 On ch=1 n=d5 v=0
90720 On ch=1 n=c#5 v=40
90780 On ch=1 n=c#5 v=0
90780 On ch=1 n=d5 v=40
90840 On ch=1 n=d5 v=0
90840 On ch=1 n=c#5 v=40
90900 On ch=1 n=c#5 v=0
90900 On ch=1 n=d5 v=40
90960 On ch=1 n=d5 v=0
90960 On ch=1 n=c#5 v=40
91020 On ch=1 n=c#5 v=0
91020 On ch=1 n=d5 v=40
91080 On ch=1 n=d5 v=0
91080 On ch=1 n=c#5 v=40
91140 On ch=1 n=c#5 v=0
91140 On ch=1 n=d5 v=40
91200 On ch=1 n=d5 v=0
91200 On ch=1 n=c#5 v=40
91260 On ch=1 n=c#5 v=0
91260 On ch=1 n=d5 v=40
91320 On ch=1 n=d5 v=0
91320 On ch=1 n=c#5 v=40
91380 On ch=1 n=c#5 v=0
91380 On ch=1 n=d5 v=40
91440 On ch=1 n=d5 v=0
91440 On ch=1 n=c#5 v=40
91500 On ch=1 n=c#5 v=0
91500 On ch=1 n=d5 v=40
91560 On ch=1 n=d5 v=0
91560 On ch=1 n=c#5 v=40
91620 On ch=1 n=c#5 v=0
91620 On ch=1 n=d5 v=40
91680 On ch=1 n=d5 v=0
91680 On ch=1 n=c#5 v=40
91740 On ch=1 n=c#5 v=0
91740 On ch=1 n=d5 v=40
91800 On ch=1 n=d5 v=0
91800 On ch=1 n=c#5 v=40
91860 On ch=1 n=c#5 v=0
91860 On ch=1 n=d5 v=40
91920 On ch=1 n=d5 v=0
91920 On ch=1 n=c#5 v=40
91980 On ch=1 n=c#5 v=0
91980 On ch=1 n=d5 v=40
92040 On ch=1 n=d5 v=0
92040 On ch=1 n=c#5 v=40
92100 On ch=1 n=c#5 v=0
92100 On ch=1 n=d5 v=40
92160 On ch=1 n=d5 v=0
92160 On ch=1 n=c#5 v=40
92220 On ch=1 n=c#5 v=0
92220 On ch=1 n=d5 v=40
92280 On ch=1 n=d5 v=0
92280 On ch=1 n=c#5 v=40
92340 On ch=1 n=c#5 v=0
92340 On ch=1 n=d5 v=40
92400 On ch=1 n=d5 v=0
92400 On ch=1 n=c#5 v=40
92460 On ch=1 n=c#5 v=0
92460 On ch=1 n=d5 v=40
92520 On ch=1 n=d5 v=0
92520 On ch=1 n=c#5 v=40
92580 On ch=1 n=c#5 v=0
92580 On ch=1 n=d5 v=40
92640 On ch=1 n=d5 v=0
92640 On ch=1 n=c#5 v=40
92700 On ch=1 n=c#5 v=0
92700 On ch=1 n=d5 v=40
92760 On ch=1 n=d5 v=0
92760 On ch=1 n=c#5 v=40
92820 On ch=1 n=c#5 v=0
92820 On ch=1 n=d5 v=40
92880 On ch=1 n=d5 v=0
92880 On ch=1 n=c#5 v=40
92940 On ch=1 n=c#5 v=0
92940 On ch=1 n=d5 v=40
93000 On ch=1 n=d5 v=0
93000 On ch=1 n=c#5 v=40
93060 On ch=1 n=c#5 v=0
93060 On ch=1 n=d5 v=40
93120 On ch=1 n=d5 v=0
93120 On ch=1 n=c#5 v=40
93180 On ch=1 n=c#5 v=0
93180 On ch=1 n=d5 v=40
93240 On ch=1 n=d5 v=0
93240 On ch=1 n=c#5 v=40
93300 On ch=1 n=c#5 v=0
93300 On ch=1 n=d5 v=40
93360 On ch=1 n=d5 v=0
93360 On ch=1 n=c#5 v=40
93420 On ch=1 n=c#5 v=0
93420 On ch=1 n=d5 v=40
93480 On ch=1 n=d5 v=0
93480 On ch=1 n=c#5 v=40
93540 On ch=1 n=c#5 v=0
93540 On ch=1 n=d5 v=40
93600 On ch=1 n=d5 v=0
93600 On ch=1 n=c#3 v=40
93660 On ch=1 n=a3 v=40
93720 On ch=1 n=e4 v=40
94920 On ch=1 n=a5 v=40
95040 On ch=1 n=a5 v=0
95040 On ch=1 n=g5 v=40
95400 On ch=1 n=g5 v=0
95400 On ch=1 n=f#5 v=40
95520 On ch=1 n=f#5 v=0
95520 On ch=1 n=e5 v=40
95880 On ch=1 n=e5 v=0
95880 On ch=1 n=f#5 v=40
96000 On ch=1 n=f#5 v=0
96000 On ch=1 n=b5 v=40
96360 On ch=1 n=b5 v=0
96360 On ch=1 n=g5 v=40
96480 On ch=1 n=g5 v=0
96480 On ch=1 n=e5 v=40
96640 On ch=1 n=e5 v=0
96640 On ch=1 n=f#5 v=40
96800 On ch=1 n=f#5 v=0
96800 On ch=1 n=g5 v=40
96960 On ch=1 n=g5 v=0
97440 On ch=1 n=e4 v=0
97440 On ch=1 n=a3 v=0
97440 On ch=1 n=c#3 v=0
97440 On ch=1 n=c#5 v=40
97500 On ch=1 n=c#5 v=0
97500 On ch=1 n=d5 v=40
97560 On ch=1 n=d5 v=0
97560 On ch=1 n=c#5 v=40
97620 On ch=1 n=c#5 v=0
97620 On ch=1 n=d5 v=40
97680 On ch=1 n=d5 v=0
97680 On ch=1 n=c#5 v=40
97740 On ch=1 n=c#5 v=0
97740 On ch=1 n=d5 v=40
97800 On ch=1 n=d5 v=0
97800 On ch=1 n=c#5 v=40
97860 On ch=1 n=c#5 v=0
97860 On ch=1 n=d5 v=40
97920 On ch=1 n=d5 v=0
97920 On ch=1 n=c#5 v=40
97980 On ch=1 n=c#5 v=0
97980 On ch=1 n=d5 v=40
98040 On ch=1 n=d5 v=0
98040 On ch=1 n=c#5 v=40
98100 On ch=1 n=c#5 v=0
98100 On ch=1 n=d5 v=40
98160 On ch=1 n=d5 v=0
98160 On ch=1 n=c#5 v=40
98220 On ch=1 n=c#5 v=0
98220 On ch=1 n=d5 v=40
98280 On ch=1 n=d5 v=0
98280 On ch=1 n=c#5 v=40
98340 On ch=1 n=c#5 v=0
98340 On ch=1 n=d5 v=40
98400 On ch=1 n=d5 v=0
98400 On ch=1 n=c#5 v=40
98460 On ch=1 n=c#5 v=0
98460 On ch=1 n=d5 v=40
98520 On ch=1 n=d5 v=0
98520 On ch=1 n=c#5 v=40
98580 On ch=1 n=c#5 v=0
98580 On ch=1 n=d5 v=40
98640 On ch=1 n=d5 v=0
98640 On ch=1 n=c#5 v=40
98700 On ch=1 n=c#5 v=0
98700 On ch=1 n=d5 v=40
98760 On ch=1 n=d5 v=0
98760 On ch=1 n=c#5 v=40
98820 On ch=1 n=c#5 v=0
98820 On ch=1 n=d5 v=40
98880 On ch=1 n=d5 v=0
98880 On ch=1 n=c#5 v=40
98940 On ch=1 n=c#5 v=0
98940 On ch=1 n=d5 v=40
99000 On ch=1 n=d5 v=0
99000 On ch=1 n=c#5 v=40
99060 On ch=1 n=c#5 v=0
99060 On ch=1 n=d5 v=40
99120 On ch=1 n=d5 v=0
99120 On ch=1 n=c#5 v=40
99180 On ch=1 n=c#5 v=0
99180 On ch=1 n=d5 v=40
99240 On ch=1 n=d5 v=0
99240 On ch=1 n=c#5 v=40
99300 On ch=1 n=c#5 v=0
99300 On ch=1 n=d5 v=40
99360 On ch=1 n=d5 v=0
99360 On ch=1 n=c#5 v=40
99420 On ch=1 n=c#5 v=0
99420 On ch=1 n=d5 v=40
99480 On ch=1 n=d5 v=0
99480 On ch=1 n=c#5 v=40
99540 On ch=1 n=c#5 v=0
99540 On ch=1 n=d5 v=40
99600 On ch=1 n=d5 v=0
99600 On ch=1 n=c#5 v=40
99660 On ch=1 n=c#5 v=0
99660 On ch=1 n=d5 v=40
99720 On ch=1 n=d5 v=0
99720 On ch=1 n=c#5 v=40
99780 On ch=1 n=c#5 v=0
99780 On ch=1 n=d5 v=40
99840 On ch=1 n=d5 v=0
99840 On ch=1 n=c#5 v=40
99900 On ch=1 n=c#5 v=0
99900 On ch=1 n=d5 v=40
99960 On ch=1 n=d5 v=0
99960 On ch=1 n=c#5 v=40
100020 On ch=1 n=c#5 v=0
100020 On ch=1 n=d5 v=40
100080 On ch=1 n=d5 v=0
100080 On ch=1 n=c#5 v=40
100140 On ch=1 n=c#5 v=0
100140 On ch=1 n=d5 v=40
100200 On ch=1 n=d5 v=0
100200 On ch=1 n=c#5 v=40
100260 On ch=1 n=c#5 v=0
100260 On ch=1 n=d5 v=40
100320 On ch=1 n=d5 v=0
100320 On ch=1 n=c#5 v=40
100380 On ch=1 n=c#5 v=0
100380 On ch=1 n=d5 v=40
100440 On ch=1 n=d5 v=0
100440 On ch=1 n=c#5 v=40
100500 On ch=1 n=c#5 v=0
100500 On ch=1 n=d5 v=40
100560 On ch=1 n=d5 v=0
100560 On ch=1 n=c#5 v=40
100620 On ch=1 n=c#5 v=0
100620 On ch=1 n=d5 v=40
100680 On ch=1 n=d5 v=0
100680 On ch=1 n=c#5 v=40
100740 On ch=1 n=c#5 v=0
100740 On ch=1 n=d5 v=40
100800 On ch=1 n=d5 v=0
100800 On ch=1 n=c#5 v=40
100860 On ch=1 n=c#5 v=0
100860 On ch=1 n=d5 v=40
100920 On ch=1 n=d5 v=0
100920 On ch=1 n=c#5 v=40
100980 On ch=1 n=c#5 v=0
100980 On ch=1 n=d5 v=40
101040 On ch=1 n=d5 v=0
101040 On ch=1 n=c#5 v=40
101100 On ch=1 n=c#5 v=0
101100 On ch=1 n=d5 v=40
101160 On ch=1 n=d5 v=0
101160 On ch=1 n=c#5 v=40
101220 On ch=1 n=c#5 v=0
101220 On ch=1 n=d5 v=40
101280 On ch=1 n=d5 v=0
101280 On ch=1 n=c#3 v=40
101340 On ch=1 n=a3 v=40
101400 On ch=1 n=e4 v=40
102600 On ch=1 n=a5 v=40
102720 On ch=1 n=a5 v=0
102720 On ch=1 n=g5 v=40
103080 On ch=1 n=g5 v=0
103080 On ch=1 n=f#5 v=40
103200 On ch=1 n=f#5 v=0
103200 On ch=1 n=e5 v=40
103560 On ch=1 n=e5 v=0
103560 On ch=1 n=f#5 v=40
103680 On ch=1 n=f#5 v=0
103680 On ch=1 n=b5 v=40
104040 On ch=1 n=b5 v=0
104040 On ch=1 n=g5 v=40
104160 On ch=1 n=g5 v=0
104160 On ch=1 n=e5 v=40
104320 On ch=1 n=e5 v=0
104320 On ch=1 n=g5 v=40
104480 On ch=1 n=g5 v=0
104480 On ch=1 n=a5 v=40
104640 On ch=1 n=a5 v=0
104880 On ch=1 n=a#2 v=40
104940 On ch=1 n=a#3 v=40
105000 On ch=1 n=a#3 v=0
105000 On ch=1 n=f4 v=40
105060 On ch=1 n=f4 v=0
105060 On ch=1 n=g#4 v=40
105120 On ch=1 n=g#4 v=0
105120 On ch=1 n=e4 v=0
105120 On ch=1 n=a3 v=0
105120 On ch=1 n=c#3 v=0
105120 On ch=1 n=f4 v=40
105120 On ch=1 n=c5 v=40
105240 On ch=1 n=f4 v=0
105240 On ch=1 n=g#4 v=40
105360 On ch=1 n=g#4 v=0
105360 On ch=1 n=f4 v=40
105480 On ch=1 n=f4 v=0
105480 On ch=1 n=g#4 v=40
105600 On ch=1 n=g#4 v=0
105600 On ch=1 n=f4 v=40
105720 On ch=1 n=f4 v=0
105720 On ch=1 n=g#4 v=40
105840 On ch=1 n=g#4 v=0
105840 On ch=1 n=f4 v=40
105960 On ch=1 n=f4 v=0
105960 On ch=1 n=g#4 v=40
106080 On ch=1 n=g#4 v=0
106080 On ch=1 n=c5 v=0
106080 On ch=1 n=f4 v=40
106080 On ch=1 n=d5 v=40
106200 On ch=1 n=f4 v=0
106200 On ch=1 n=g#4 v=40
106320 On ch=1 n=g#4 v=0
106320 On ch=1 n=f4 v=40
106440 On ch=1 n=f4 v=0
106440 On ch=1 n=g#4 v=40
106560 On ch=1 n=g#4 v=0
106560 On ch=1 n=f4 v=40
106680 On ch=1 n=f4 v=0
106680 On ch=1 n=g#4 v=40
106800 On ch=1 n=g#4 v=0
106800 On ch=1 n=f4 v=40
106920 On ch=1 n=f4 v=0
106920 On ch=1 n=g#4 v=40
107040 On ch=1 n=g#4 v=0
107040 On ch=1 n=d5 v=0
107040 On ch=1 n=f4 v=40
107040 On ch=1 n=d#5 v=40
107160 On ch=1 n=f4 v=0
107160 On ch=1 n=g#4 v=40
107280 On ch=1 n=g#4 v=0
107280 On ch=1 n=f4 v=40
107400 On ch=1 n=f4 v=0
107400 On ch=1 n=g#4 v=40
107520 On ch=1 n=g#4 v=0
107520 On ch=1 n=f4 v=40
107640 On ch=1 n=f4 v=0
107640 On ch=1 n=g#4 v=40
107760 On ch=1 n=g#4 v=0
107760 On ch=1 n=f4 v=40
107880 On ch=1 n=f4 v=0
107880 On ch=1 n=g#4 v=40
108000 On ch=1 n=g#4 v=0
108000 On ch=1 n=d#5 v=0
108000 On ch=1 n=f4 v=40
108000 On ch=1 n=f5 v=40
108120 On ch=1 n=f4 v=0
108120 On ch=1 n=g#4 v=40
108240 On ch=1 n=g#4 v=0
108240 On ch=1 n=f4 v=40
108360 On ch=1 n=f4 v=0
108360 On ch=1 n=g#4 v=40
108480 On ch=1 n=g#4 v=0
108480 On ch=1 n=f4 v=40
108600 On ch=1 n=f4 v=0
108600 On ch=1 n=g#4 v=40
108720 On ch=1 n=g#4 v=0
108720 On ch=1 n=f4 v=40
108840 On ch=1 n=f4 v=0
108840 On ch=1 n=g#4 v=40
108960 On ch=1 n=g#4 v=0
108960 On ch=1 n=f5 v=0
108960 On ch=1 n=f4 v=40
108960 On ch=1 n=g5 v=40
109080 On ch=1 n=f4 v=0
109080 On ch=1 n=g#4 v=40
109200 On ch=1 n=g#4 v=0
109200 On ch=1 n=f4 v=40
109320 On ch=1 n=f4 v=0
109320 On ch=1 n=g#4 v=40
109440 On ch=1 n=g#4 v=0
109440 On ch=1 n=f4 v=40
109560 On ch=1 n=f4 v=0
109560 On ch=1 n=g#4 v=40
109680 On ch=1 n=g#4 v=0
109680 On ch=1 n=f4 v=40
109800 On ch=1 n=f4 v=0
109800 On ch=1 n=g#4 v=40
109920 On ch=1 n=g#4 v=0
109920 On ch=1 n=g5 v=0
109920 On ch=1 n=f4 v=40
109920 On ch=1 n=f5 v=40
110040 On ch=1 n=f4 v=0
110040 On ch=1 n=g#4 v=40
110160 On ch=1 n=g#4 v=0
110160 On ch=1 n=f4 v=40
110280 On ch=1 n=f4 v=0
110280 On ch=1 n=g#4 v=40
110400 On ch=1 n=g#4 v=0
110400 On ch=1 n=f4 v=40
110520 On ch=1 n=f4 v=0
110520 On ch=1 n=g#4 v=40
110640 On ch=1 n=g#4 v=0
110640 On ch=1 n=f4 v=40
110760 On ch=1 n=f4 v=0
110760 On ch=1 n=g#4 v=40
110880 On ch=1 n=g#4 v=0
110880 On ch=1 n=f5 v=0
110880 On ch=1 n=f4 v=40
110880 On ch=1 n=d#5 v=40
111000 On ch=1 n=f4 v=0
111000 On ch=1 n=g#4 v=40
111120 On ch=1 n=g#4 v=0
111120 On ch=1 n=f4 v=40
111240 On ch=1 n=f4 v=0
111240 On ch=1 n=g#4 v=40
111360 On ch=1 n=g#4 v=0
111360 On ch=1 n=f4 v=40
111480 On ch=1 n=f4 v=0
111480 On ch=1 n=g#4 v=40
111600 On ch=1 n=g#4 v=0
111600 On ch=1 n=f4 v=40
111720 On ch=1 n=f4 v=0
111720 On ch=1 n=g#4 v=40
111840 On ch=1 n=g#4 v=0
111840 On ch=1 n=d#5 v=0
111840 On ch=1 n=f4 v=40
111840 On ch=1 n=d5 v=40
111960 On ch=1 n=f4 v=0
111960 On ch=1 n=g#4 v=40
112080 On ch=1 n=g#4 v=0
112080 On ch=1 n=f4 v=40
112200 On ch=1 n=f4 v=0
112200 On ch=1 n=g#4 v=40
112320 On ch=1 n=g#4 v=0
112320 On ch=1 n=f4 v=40
112440 On ch=1 n=f4 v=0
112440 On ch=1 n=g#4 v=40
112560 On ch=1 n=g#4 v=0
112560 On ch=1 n=f4 v=40
112680 On ch=1 n=f4 v=0
112680 On ch=1 n=g#4 v=40
112800 On ch=1 n=g#4 v=0
112800 On ch=1 n=d5 v=0
112800 On ch=1 n=a#2 v=0
112800 On ch=1 n=c#5 v=40
112800 On ch=1 n=g#4 v=40
112800 On ch=1 n=f4 v=40
113250 On ch=1 n=a#2 v=40
113280 On ch=1 n=a#3 v=40
113400 On ch=1 n=a#3 v=0
113400 On ch=1 n=a#2 v=0
113760 On ch=1 n=f4 v=0
113760 On ch=1 n=g#4 v=0
113760 On ch=1 n=c#5 v=0
113760 On ch=1 n=b4 v=40
113760 On ch=1 n=g#4 v=40
113820 On ch=1 n=g#4 v=0
113820 On ch=1 n=b4 v=0
113820 On ch=1 n=d5 v=40
113880 On ch=1 n=d5 v=0
113880 On ch=1 n=b4 v=40
113880 On ch=1 n=g#4 v=40
113940 On ch=1 n=g#4 v=0
113940 On ch=1 n=b4 v=0
113940 On ch=1 n=d5 v=40
114000 On ch=1 n=d5 v=0
114000 On ch=1 n=b4 v=40
114000 On ch=1 n=g#4 v=40
114060 On ch=1 n=g#4 v=0
114060 On ch=1 n=b4 v=0
114060 On ch=1 n=d5 v=40
114120 On ch=1 n=d5 v=0
114120 On ch=1 n=b4 v=40
114120 On ch=1 n=g#4 v=40
114180 On ch=1 n=g#4 v=0
114180 On ch=1 n=b4 v=0
114180 On ch=1 n=d5 v=40
114240 On ch=1 n=d5 v=0
114240 On ch=1 n=b4 v=40
114240 On ch=1 n=g#4 v=40
114300 On ch=1 n=g#4 v=0
114300 On ch=1 n=b4 v=0
114300 On ch=1 n=d5 v=40
114360 On ch=1 n=d5 v=0
114360 On ch=1 n=b4 v=40
114360 On ch=1 n=g#4 v=40
114420 On ch=1 n=g#4 v=0
114420 On ch=1 n=b4 v=0
114420 On ch=1 n=d5 v=40
114480 On ch=1 n=d5 v=0
114480 On ch=1 n=b4 v=40
114480 On ch=1 n=g#4 v=40
114540 On ch=1 n=g#4 v=0
114540 On ch=1 n=b4 v=0
114540 On ch=1 n=d5 v=40
114600 On ch=1 n=d5 v=0
114600 On ch=1 n=b4 v=40
114600 On ch=1 n=g#4 v=40
114660 On ch=1 n=g#4 v=0
114660 On ch=1 n=b4 v=0
114660 On ch=1 n=d5 v=40
114720 On ch=1 n=d5 v=0
114720 On ch=1 n=c#5 v=40
114720 On ch=1 n=g#4 v=40
114720 On ch=1 n=f4 v=40
115170 On ch=1 n=a#2 v=40
115200 On ch=1 n=a#3 v=40
115320 On ch=1 n=a#3 v=0
115320 On ch=1 n=a#2 v=0
115680 On ch=1 n=f4 v=0
115680 On ch=1 n=g#4 v=0
115680 On ch=1 n=c#5 v=0
115680 On ch=1 n=b4 v=40
115680 On ch=1 n=g#4 v=40
115740 On ch=1 n=g#4 v=0
115740 On ch=1 n=b4 v=0
115740 On ch=1 n=d5 v=40
115800 On ch=1 n=d5 v=0
115800 On ch=1 n=b4 v=40
115800 On ch=1 n=g#4 v=40
115860 On ch=1 n=g#4 v=0
115860 On ch=1 n=b4 v=0
115860 On ch=1 n=d5 v=40
115920 On ch=1 n=d5 v=0
115920 On ch=1 n=b4 v=40
115920 On ch=1 n=g#4 v=40
115980 On ch=1 n=g#4 v=0
115980 On ch=1 n=b4 v=0
115980 On ch=1 n=d5 v=40
116040 On ch=1 n=d5 v=0
116040 On ch=1 n=b4 v=40
116040 On ch=1 n=g#4 v=40
116100 On ch=1 n=g#4 v=0
116100 On ch=1 n=b4 v=0
116100 On ch=1 n=d5 v=40
116160 On ch=1 n=d5 v=0
116160 On ch=1 n=b4 v=40
116160 On ch=1 n=g#4 v=40
116220 On ch=1 n=g#4 v=0
116220 On ch=1 n=b4 v=0
116220 On ch=1 n=d5 v=40
116280 On ch=1 n=d5 v=0
116280 On ch=1 n=b4 v=40
116280 On ch=1 n=g#4 v=40
116340 On ch=1 n=g#4 v=0
116340 On ch=1 n=b4 v=0
116340 On ch=1 n=d5 v=40
116400 On ch=1 n=d5 v=0
116400 On ch=1 n=b4 v=40
116400 On ch=1 n=g#4 v=40
116460 On ch=1 n=g#4 v=0
116460 On ch=1 n=b4 v=0
116460 On ch=1 n=d5 v=40
116520 On ch=1 n=d5 v=0
116520 On ch=1 n=b4 v=40
116520 On ch=1 n=g#4 v=40
116580 On ch=1 n=g#4 v=0
116580 On ch=1 n=b4 v=0
116580 On ch=1 n=d5 v=40
116640 On ch=1 n=d5 v=0
116640 On ch=1 n=g#5 v=80
116960 On ch=1 n=g#5 v=0
116960 On ch=1 n=g#4 v=80
117520 On ch=1 n=g#4 v=0
117520 On ch=1 n=c#5 v=80
117600 On ch=1 n=c#5 v=0
117600 On ch=1 n=c#5 v=80
121440 On ch=1 n=c#5 v=0
121440 On ch=1 n=d5 v=60
122400 On ch=1 n=d5 v=0
122400 On ch=1 n=d#5 v=60
123240 On ch=1 n=d#5 v=0
123240 On ch=1 n=d5 v=60
123360 On ch=1 n=d5 v=0
123360 On ch=1 n=c5 v=60
124320 On ch=1 n=c5 v=0
124320 On ch=1 n=c#3 v=60
124320 On ch=1 n=g#3 v=60
125280 On ch=1 n=g#3 v=0
125280 On ch=1 n=c#3 v=0
125280 On ch=1 n=d3 v=60
125280 On ch=1 n=a3 v=60
125360 On ch=1 n=e4 v=40
125440 On ch=1 n=e4 v=0
125440 On ch=1 n=g4 v=40
125520 On ch=1 n=g4 v=0
125520 On ch=1 n=a4 v=40
125600 On ch=1 n=a4 v=0
125600 On ch=1 n=b4 v=40
125680 On ch=1 n=b4 v=0
128160 On ch=1 n=a3 v=0
128160 On ch=1 n=d3 v=0
128160 On ch=1 n=f3 v=60
128160 On ch=1 n=c4 v=60
129120 On ch=1 n=c4 v=0
129120 On ch=1 n=f3 v=0
129120 On ch=1 n=g3 v=60
129120 On ch=1 n=d4 v=60
129200 On ch=1 n=g#4 v=40
129280 On ch=1 n=g#4 v=0
129280 On ch=1 n=b4 v=40
129360 On ch=1 n=b4 v=0
129360 On ch=1 n=c#5 v=40
129440 On ch=1 n=c#5 v=0
129440 On ch=1 n=d#5 v=40
129520 On ch=1 n=d#5 v=0
131040 On ch=1 n=d4 v=0
131040 On ch=1 n=g3 v=0
149280 On ch=1 n=d#2 v=40
150240 On ch=1 n=c#5 v=40
150560 On ch=1 n=c#5 v=0
150560 On ch=1 n=g#4 v=40
151120 On ch=1 n=g#4 v=0
151120 On ch=1 n=g#5 v=40
151200 On ch=1 n=g#5 v=0
151200 On ch=1 n=g#5 v=40
153120 On ch=1 n=g#5 v=0
153120 On ch=1 n=d#2 v=0
153120 On ch=1 n=d#2 v=40
154080 On ch=1 n=c#5 v=40
154400 On ch=1 n=c#5 v=0
154400 On ch=1 n=g#4 v=40
154960 On ch=1 n=g#4 v=0
154960 On ch=1 n=g#5 v=40
155040 On ch=1 n=g#5 v=0
155040 On ch=1 n=g#5 v=40
156960 On ch=1 n=g#5 v=0
156960 On ch=1 n=d#2 v=0
159840 On ch=1 n=d#2 v=40
160080 On ch=1 n=d#2 v=0
160080 Meta TrkEnd
TrkEnd
MTrk
0 SeqSpec 43 00 01 00
0 Meta TrkName "Pedal"
0 Meta 0x21 00
13440 Par ch=1 c=64 v=127
16080 Par ch=1 c=64 v=0
16320 Par ch=1 c=64 v=127
18960 Par ch=1 c=64 v=0
19200 Par ch=1 c=64 v=127
21840 Par ch=1 c=64 v=0
22080 Par ch=1 c=64 v=127
24720 Par ch=1 c=64 v=0
24960 Par ch=1 c=64 v=127
25920 Par ch=1 c=64 v=0
26400 Par ch=1 c=64 v=127
29520 Par ch=1 c=64 v=0
29760 Par ch=1 c=64 v=127
30000 Par ch=1 c=64 v=0
30240 Par ch=1 c=64 v=127
30480 Par ch=1 c=64 v=0
30720 Par ch=1 c=64 v=127
30960 Par ch=1 c=64 v=0
31200 Par ch=1 c=64 v=127
31440 Par ch=1 c=64 v=0
31680 Par ch=1 c=64 v=127
31920 Par ch=1 c=64 v=0
32160 Par ch=1 c=64 v=127
32400 Par ch=1 c=64 v=0
32640 Par ch=1 c=64 v=127
32880 Par ch=1 c=64 v=0
33120 Par ch=1 c=64 v=127
33360 Par ch=1 c=64 v=0
33600 Par ch=1 c=64 v=127
36480 Par ch=1 c=64 v=0
48960 Par ch=1 c=64 v=127
49680 Par ch=1 c=64 v=0
49920 Par ch=1 c=64 v=127
50640 Par ch=1 c=64 v=0
50880 Par ch=1 c=64 v=127
51600 Par ch=1 c=64 v=0
51840 Par ch=1 c=64 v=127
52560 Par ch=1 c=64 v=0
52800 Par ch=1 c=64 v=127
53520 Par ch=1 c=64 v=0
53760 Par ch=1 c=64 v=127
54480 Par ch=1 c=64 v=0
54720 Par ch=1 c=64 v=127
55440 Par ch=1 c=64 v=0
55680 Par ch=1 c=64 v=127
56400 Par ch=1 c=64 v=0
56640 Par ch=1 c=64 v=127
57360 Par ch=1 c=64 v=0
57600 Par ch=1 c=64 v=127
58320 Par ch=1 c=64 v=0
58560 Par ch=1 c=64 v=127
59280 Par ch=1 c=64 v=0
59520 Par ch=1 c=64 v=127
60240 Par ch=1 c=64 v=0
60480 Par ch=1 c=64 v=127
62280 Par ch=1 c=64 v=0
62400 Par ch=1 c=64 v=127
62760 Par ch=1 c=64 v=0
62880 Par ch=1 c=64 v=127
63240 Par ch=1 c=64 v=0
63360 Par ch=1 c=64 v=127
63720 Par ch=1 c=64 v=0
63840 Par ch=1 c=64 v=127
64200 Par ch=1 c=64 v=0
64320 Par ch=1 c=64 v=127
64680 Par ch=1 c=64 v=0
64800 Par ch=1 c=64 v=127
65160 Par ch=1 c=64 v=0
65280 Par ch=1 c=64 v=127
65640 Par ch=1 c=64 v=0
65760 Par ch=1 c=64 v=127
66120 Par ch=1 c=64 v=0
66240 Par ch=1 c=64 v=127
66600 Par ch=1 c=64 v=0
66720 Par ch=1 c=64 v=127
67080 Par ch=1 c=64 v=0
67200 Par ch=1 c=64 v=127
67560 Par ch=1 c=64 v=0
67680 Par ch=1 c=64 v=127
68040 Par ch=1 c=64 v=0
68160 Par ch=1 c=64 v=127
68520 Par ch=1 c=64 v=0
68640 Par ch=1 c=64 v=127
69000 Par ch=1 c=64 v=0
69120 Par ch=1 c=64 v=127
69480 Par ch=1 c=64 v=0
69600 Par ch=1 c=64 v=127
69960 Par ch=1 c=64 v=0
70080 Par ch=1 c=64 v=127
70440 Par ch=1 c=64 v=0
70560 Par ch=1 c=64 v=127
70920 Par ch=1 c=64 v=0
71040 Par ch=1 c=64 v=127
71400 Par ch=1 c=64 v=0
71520 Par ch=1 c=64 v=127
71880 Par ch=1 c=64 v=0
72000 Par ch=1 c=64 v=127
72360 Par ch=1 c=64 v=0
72480 Par ch=1 c=64 v=127
72840 Par ch=1 c=64 v=0
72960 Par ch=1 c=64 v=127
73320 Par ch=1 c=64 v=0
73440 Par ch=1 c=64 v=127
73800 Par ch=1 c=64 v=0
73920 Par ch=1 c=64 v=127
74280 Par ch=1 c=64 v=0
74400 Par ch=1 c=64 v=127
74760 Par ch=1 c=64 v=0
74880 Par ch=1 c=64 v=127
75240 Par ch=1 c=64 v=0
75360 Par ch=1 c=64 v=127
75720 Par ch=1 c=64 v=0
75840 Par ch=1 c=64 v=127
76200 Par ch=1 c=64 v=0
76320 Par ch=1 c=64 v=127
76680 Par ch=1 c=64 v=0
76800 Par ch=1 c=64 v=127
77160 Par ch=1 c=64 v=0
77280 Par ch=1 c=64 v=127
77640 Par ch=1 c=64 v=0
77760 Par ch=1 c=64 v=127
78120 Par ch=1 c=64 v=0
78240 Par ch=1 c=64 v=127
78600 Par ch=1 c=64 v=0
78720 Par ch=1 c=64 v=127
79080 Par ch=1 c=64 v=0
79200 Par ch=1 c=64 v=127
79560 Par ch=1 c=64 v=0
79680 Par ch=1 c=64 v=127
80040 Par ch=1 c=64 v=0
80160 Par ch=1 c=64 v=127
80520 Par ch=1 c=64 v=0
80640 Par ch=1 c=64 v=127
81000 Par ch=1 c=64 v=0
81120 Par ch=1 c=64 v=127
81480 Par ch=1 c=64 v=0
81600 Par ch=1 c=64 v=127
81960 Par ch=1 c=64 v=0
85920 Par ch=1 c=64 v=127
88800 Par ch=1 c=64 v=0
89760 Par ch=1 c=64 v=127
90480 Par ch=1 c=64 v=0
90720 Par ch=1 c=64 v=127
91440 Par ch=1 c=64 v=0
91680 Par ch=1 c=64 v=127
92400 Par ch=1 c=64 v=0
92640 Par ch=1 c=64 v=127
93360 Par ch=1 c=64 v=0
93600 Par ch=1 c=64 v=127
97200 Par ch=1 c=64 v=0
97440 Par ch=1 c=64 v=127
98160 Par ch=1 c=64 v=0
98400 Par ch=1 c=64 v=127
99120 Par ch=1 c=64 v=0
99360 Par ch=1 c=64 v=127
100080 Par ch=1 c=64 v=0
100320 Par ch=1 c=64 v=127
101040 Par ch=1 c=64 v=0
101280 Par ch=1 c=64 v=127
104880 Par ch=1 c=64 v=0
105120 Par ch=1 c=64 v=127
106800 Par ch=1 c=64 v=0
107040 Par ch=1 c=64 v=127
108720 Par ch=1 c=64 v=0
108960 Par ch=1 c=64 v=127
110640 Par ch=1 c=64 v=0
110880 Par ch=1 c=64 v=127
112560 Par ch=1 c=64 v=0
112800 Par ch=1 c=64 v=127
114480 Par ch=1 c=64 v=0
114720 Par ch=1 c=64 v=127
116400 Par ch=1 c=64 v=0
124320 Par ch=1 c=64 v=127
127920 Par ch=1 c=64 v=0
128160 Par ch=1 c=64 v=127
131760 Par ch=1 c=64 v=0
141600 Par ch=1 c=64 v=127
143280 Par ch=1 c=64 v=0
143520 Par ch=1 c=64 v=127
145200 Par ch=1 c=64 v=0
145440 Par ch=1 c=64 v=127
147120 Par ch=1 c=64 v=0
147360 Par ch=1 c=64 v=127
149040 Par ch=1 c=64 v=0
156960 Par ch=1 c=64 v=127
159360 Par ch=1 c=64 v=0
159840 Par ch=1 c=64 v=127
160320 Par ch=1 c=64 v=0
160320 Meta TrkEnd
TrkEnd
MTrk
0 SeqSpec 43 00 01 00
0 Meta TrkName "Debussy, Claude"
0 Meta 0x21 00
0 Meta TrkEnd
TrkEnd
MTrk
0 SeqSpec 43 00 01 00
0 Meta TrkName "Prelude Book 1 No. 11 La Danse de Puck"
0 Meta 0x21 00
0 Meta TrkEnd
TrkEnd
MTrk
0 SeqSpec 43 00 01 00
0 Meta TrkName "Jeruen E. Dery jawjaw@hotmail.com"
0 Meta 0x21 00
0 Meta TrkEnd
TrkEnd
