MFile 1 9 480
MTrk
0 TimeSig 3/2 48 8
0 KeySig 0 major
0 Tempo 833333
54720 Tempo 810811
55680 Tempo 789474
56640 Tempo 769231
57600 Tempo 750000
77760 Tempo 833333
132480 KeySig 4 major
132480 Tempo 672957
198720 Tempo 833333
201600 Tempo 789474
204480 KeySig 0 major
204480 Tempo 750000
239040 Tempo 833333
239040 Meta TrkEnd
TrkEnd
MTrk
0 SeqSpec 43 00 01 00
0 Meta TrkName "Right Treble"
0 Meta 0x21 00
0 On ch=1 n=d8 v=40
0 On ch=1 n=g7 v=40
0 On ch=1 n=d7 v=40
480 On ch=1 n=d5 v=40
480 On ch=1 n=g5 v=40
480 On ch=1 n=d6 v=40
960 On ch=1 n=d6 v=0
960 On ch=1 n=g5 v=0
960 On ch=1 n=d5 v=0
960 On ch=1 n=e6 v=40
960 On ch=1 n=a5 v=40
960 On ch=1 n=e5 v=40
1440 On ch=1 n=e5 v=0
1440 On ch=1 n=a5 v=0
1440 On ch=1 n=e6 v=0
1440 On ch=1 n=b6 v=40
1440 On ch=1 n=e6 v=40
1440 On ch=1 n=b5 v=40
1920 On ch=1 n=b5 v=0
1920 On ch=1 n=e6 v=0
1920 On ch=1 n=b6 v=0
1920 On ch=1 n=d7 v=40
1920 On ch=1 n=g6 v=40
1920 On ch=1 n=d6 v=40
2400 On ch=1 n=d6 v=0
2400 On ch=1 n=g6 v=0
2400 On ch=1 n=d7 v=0
2400 On ch=1 n=e7 v=40
2400 On ch=1 n=a6 v=40
2400 On ch=1 n=e6 v=40
2880 On ch=1 n=e6 v=0
2880 On ch=1 n=a6 v=0
2880 On ch=1 n=e7 v=0
2880 On ch=1 n=d7 v=0
2880 On ch=1 n=g7 v=0
2880 On ch=1 n=d8 v=0
5760 On ch=1 n=d8 v=40
5760 On ch=1 n=g7 v=40
5760 On ch=1 n=d7 v=40
6240 On ch=1 n=d5 v=40
6240 On ch=1 n=g5 v=40
6240 On ch=1 n=d6 v=40
6720 On ch=1 n=d6 v=0
6720 On ch=1 n=g5 v=0
6720 On ch=1 n=d5 v=0
6720 On ch=1 n=e6 v=40
6720 On ch=1 n=a5 v=40
6720 On ch=1 n=e5 v=40
7200 On ch=1 n=e5 v=0
7200 On ch=1 n=a5 v=0
7200 On ch=1 n=e6 v=0
7200 On ch=1 n=b6 v=40
7200 On ch=1 n=e6 v=40
7200 On ch=1 n=b5 v=40
7680 On ch=1 n=b5 v=0
7680 On ch=1 n=e6 v=0
7680 On ch=1 n=b6 v=0
7680 On ch=1 n=d7 v=40
7680 On ch=1 n=g6 v=40
7680 On ch=1 n=d6 v=40
8160 On ch=1 n=d6 v=0
8160 On ch=1 n=g6 v=0
8160 On ch=1 n=d7 v=0
8160 On ch=1 n=e7 v=40
8160 On ch=1 n=a6 v=40
8160 On ch=1 n=e6 v=40
8640 On ch=1 n=e6 v=0
8640 On ch=1 n=a6 v=0
8640 On ch=1 n=e7 v=0
8640 On ch=1 n=d7 v=0
8640 On ch=1 n=g7 v=0
8640 On ch=1 n=d8 v=0
11520 On ch=1 n=d8 v=40
11520 On ch=1 n=g7 v=40
11520 On ch=1 n=d7 v=40
12000 On ch=1 n=d5 v=40
12000 On ch=1 n=g5 v=40
12000 On ch=1 n=d6 v=40
12480 On ch=1 n=d6 v=0
12480 On ch=1 n=g5 v=0
12480 On ch=1 n=d5 v=0
12480 On ch=1 n=e6 v=40
12480 On ch=1 n=a5 v=40
12480 On ch=1 n=e5 v=40
12960 On ch=1 n=e5 v=0
12960 On ch=1 n=a5 v=0
12960 On ch=1 n=e6 v=0
12960 On ch=1 n=b6 v=40
12960 On ch=1 n=b5 v=40
12960 On ch=1 n=e6 v=40
13440 On ch=1 n=e6 v=0
13440 On ch=1 n=b5 v=0
13440 On ch=1 n=b6 v=0
13440 On ch=1 n=d7 v=40
13440 On ch=1 n=g6 v=40
13440 On ch=1 n=d6 v=40
13920 On ch=1 n=d6 v=0
13920 On ch=1 n=g6 v=0
13920 On ch=1 n=d7 v=0
13920 On ch=1 n=e7 v=40
13920 On ch=1 n=e6 v=40
14400 On ch=1 n=d7 v=0
14400 On ch=1 n=g7 v=0
14400 On ch=1 n=d8 v=0
14880 On ch=1 n=e6 v=0
14880 On ch=1 n=e7 v=0
14880 On ch=1 n=e7 v=40
14880 On ch=1 n=e6 v=40
16320 On ch=1 n=e6 v=0
16320 On ch=1 n=e7 v=0
16320 On ch=1 n=e7 v=40
16320 On ch=1 n=e6 v=40
18240 On ch=1 n=e6 v=0
18240 On ch=1 n=e7 v=0
18240 On ch=1 n=e7 v=40
18240 On ch=1 n=e6 v=40
19200 On ch=1 n=c#7 v=40
20160 On ch=1 n=e6 v=0
20160 On ch=1 n=e7 v=0
20160 On ch=1 n=e7 v=40
20160 On ch=1 n=e6 v=40
21120 On ch=1 n=c#7 v=0
21120 On ch=1 n=d#7 v=40
22080 On ch=1 n=d#7 v=0
22080 On ch=1 n=e6 v=0
22080 On ch=1 n=e7 v=0
22080 On ch=1 n=g#7 v=40
22080 On ch=1 n=g#6 v=40
23040 On ch=1 n=g#6 v=0
23040 On ch=1 n=g#7 v=0
23040 On ch=1 n=e7 v=40
23040 On ch=1 n=e6 v=40
24000 On ch=1 n=c#7 v=40
24960 On ch=1 n=c#7 v=0
24960 On ch=1 n=e6 v=0
24960 On ch=1 n=e7 v=0
24960 On ch=1 n=e7 v=40
24960 On ch=1 n=e6 v=40
24960 On ch=1 n=g#6 v=40
26880 On ch=1 n=g#6 v=0
26880 On ch=1 n=e6 v=0
26880 On ch=1 n=e7 v=0
26880 On ch=1 n=a#6 v=40
26880 On ch=1 n=e7 v=40
26880 On ch=1 n=e6 v=40
27840 On ch=1 n=a#6 v=0
27840 On ch=1 n=d#7 v=40
28800 On ch=1 n=d#7 v=0
28800 On ch=1 n=e6 v=0
28800 On ch=1 n=e7 v=0
28800 On ch=1 n=b6 v=50
28800 On ch=1 n=e7 v=50
28800 On ch=1 n=e6 v=50
29760 On ch=1 n=b6 v=0
29760 On ch=1 n=g#6 v=50
30720 On ch=1 n=g#6 v=0
30720 On ch=1 n=e6 v=0
30720 On ch=1 n=e7 v=0
30720 On ch=1 n=a#6 v=60
30720 On ch=1 n=e7 v=60
30720 On ch=1 n=e6 v=60
31680 On ch=1 n=a#6 v=0
31680 On ch=1 n=d#7 v=60
32640 On ch=1 n=d#7 v=0
32640 On ch=1 n=e6 v=0
32640 On ch=1 n=e7 v=0
32640 On ch=1 n=c#7 v=50
32640 On ch=1 n=e7 v=50
32640 On ch=1 n=e6 v=50
33600 On ch=1 n=c#7 v=0
33600 On ch=1 n=d#7 v=50
34560 On ch=1 n=d#7 v=0
34560 On ch=1 n=e6 v=0
34560 On ch=1 n=e7 v=0
34560 On ch=1 n=e7 v=40
34560 On ch=1 n=b6 v=40
34560 On ch=1 n=e6 v=40
36480 On ch=1 n=e6 v=0
36480 On ch=1 n=b6 v=0
36480 On ch=1 n=e7 v=0
37440 On ch=1 n=b7 v=40
37440 On ch=1 n=e7 v=40
37440 On ch=1 n=b6 v=40
37920 On ch=1 n=d5 v=40
37920 On ch=1 n=g5 v=40
37920 On ch=1 n=d6 v=40
38400 On ch=1 n=d6 v=0
38400 On ch=1 n=g5 v=0
38400 On ch=1 n=d5 v=0
38400 On ch=1 n=e6 v=40
38400 On ch=1 n=a5 v=40
38400 On ch=1 n=e5 v=40
38880 On ch=1 n=e5 v=0
38880 On ch=1 n=a5 v=0
38880 On ch=1 n=e6 v=0
38880 On ch=1 n=b6 v=40
38880 On ch=1 n=e6 v=40
38880 On ch=1 n=b5 v=40
39360 On ch=1 n=b5 v=0
39360 On ch=1 n=e6 v=0
39360 On ch=1 n=b6 v=0
39360 On ch=1 n=d7 v=40
39360 On ch=1 n=g6 v=40
39360 On ch=1 n=d6 v=40
39840 On ch=1 n=d6 v=0
39840 On ch=1 n=g6 v=0
39840 On ch=1 n=d7 v=0
39840 On ch=1 n=e7 v=40
39840 On ch=1 n=a6 v=40
39840 On ch=1 n=e6 v=40
40320 On ch=1 n=e6 v=0
40320 On ch=1 n=a6 v=0
40320 On ch=1 n=e7 v=0
40320 On ch=1 n=b6 v=0
40320 On ch=1 n=e7 v=0
40320 On ch=1 n=b7 v=0
40320 On ch=1 n=b7 v=40
40320 On ch=1 n=e7 v=40
40320 On ch=1 n=b6 v=40
40800 On ch=1 n=b6 v=0
40800 On ch=1 n=e7 v=0
40800 On ch=1 n=b7 v=0
40800 On ch=1 n=e7 v=40
40800 On ch=1 n=a6 v=40
40800 On ch=1 n=e6 v=40
41280 On ch=1 n=e6 v=0
41280 On ch=1 n=a6 v=0
41280 On ch=1 n=e7 v=0
41280 On ch=1 n=d7 v=40
41280 On ch=1 n=g6 v=40
41280 On ch=1 n=d6 v=40
41760 On ch=1 n=d6 v=0
41760 On ch=1 n=g6 v=0
41760 On ch=1 n=d7 v=0
41760 On ch=1 n=b6 v=40
41760 On ch=1 n=e6 v=40
41760 On ch=1 n=b5 v=40
42240 On ch=1 n=b5 v=0
42240 On ch=1 n=e6 v=0
42240 On ch=1 n=b6 v=0
42240 On ch=1 n=e6 v=40
42240 On ch=1 n=a5 v=40
42240 On ch=1 n=e5 v=40
42720 On ch=1 n=e5 v=0
42720 On ch=1 n=a5 v=0
42720 On ch=1 n=e6 v=0
42720 On ch=1 n=d6 v=40
42720 On ch=1 n=g5 v=40
42720 On ch=1 n=d5 v=40
43200 On ch=1 n=d5 v=0
43200 On ch=1 n=g5 v=0
43200 On ch=1 n=d6 v=0
44640 On ch=1 n=d#6 v=50
44640 On ch=1 n=b5 v=50
44640 On ch=1 n=f#5 v=50
44640 On ch=1 n=d#5 v=50
45120 On ch=1 n=d#5 v=0
45120 On ch=1 n=f#5 v=0
45120 On ch=1 n=b5 v=0
45120 On ch=1 n=d#6 v=0
46080 On ch=1 n=g#7 v=70
46080 On ch=1 n=d#7 v=70
46080 On ch=1 n=g#6 v=70
46080 On ch=1 n=f#6 v=70
47520 On ch=1 n=d#6 v=50
47520 On ch=1 n=b5 v=50
47520 On ch=1 n=f#5 v=50
47520 On ch=1 n=d#5 v=50
48000 On ch=1 n=d#5 v=0
48000 On ch=1 n=f#5 v=0
48000 On ch=1 n=b5 v=0
48000 On ch=1 n=d#6 v=0
48960 On ch=1 n=f#6 v=0
48960 On ch=1 n=g#6 v=0
48960 On ch=1 n=d#7 v=0
48960 On ch=1 n=g#7 v=0
48960 On ch=1 n=g#7 v=70
48960 On ch=1 n=d#7 v=70
48960 On ch=1 n=g#6 v=70
48960 On ch=1 n=f#6 v=70
50400 On ch=1 n=d#6 v=50
50400 On ch=1 n=b5 v=50
50400 On ch=1 n=f#5 v=50
50400 On ch=1 n=d#5 v=50
50880 On ch=1 n=d#5 v=0
50880 On ch=1 n=f#5 v=0
50880 On ch=1 n=b5 v=0
50880 On ch=1 n=d#6 v=0
51840 On ch=1 n=f#6 v=0
51840 On ch=1 n=g#6 v=0
51840 On ch=1 n=d#7 v=0
51840 On ch=1 n=g#7 v=0
51840 On ch=1 n=d#7 v=70
51840 On ch=1 n=a#6 v=70
51840 On ch=1 n=d#6 v=70
52320 On ch=1 n=a#4 v=70
52320 On ch=1 n=g5 v=70
52320 On ch=1 n=f5 v=70
52320 On ch=1 n=a#5 v=70
52800 On ch=1 n=a#5 v=0
52800 On ch=1 n=f5 v=0
52800 On ch=1 n=g5 v=0
52800 On ch=1 n=a#4 v=0
52800 On ch=1 n=c6 v=70
52800 On ch=1 n=g5 v=70
52800 On ch=1 n=d#5 v=70
52800 On ch=1 n=c5 v=70
53280 On ch=1 n=c5 v=0
53280 On ch=1 n=d#5 v=0
53280 On ch=1 n=g5 v=0
53280 On ch=1 n=c6 v=0
53280 On ch=1 n=f6 v=70
53280 On ch=1 n=a#5 v=70
53280 On ch=1 n=g5 v=70
53280 On ch=1 n=f5 v=70
53760 On ch=1 n=f5 v=0
53760 On ch=1 n=g5 v=0
53760 On ch=1 n=a#5 v=0
53760 On ch=1 n=f6 v=0
53760 On ch=1 n=a#4 v=70
53760 On ch=1 n=f5 v=70
53760 On ch=1 n=g5 v=70
53760 On ch=1 n=a#5 v=70
54240 On ch=1 n=a#5 v=0
54240 On ch=1 n=g5 v=0
54240 On ch=1 n=f5 v=0
54240 On ch=1 n=a#4 v=0
54240 On ch=1 n=c6 v=70
54240 On ch=1 n=g5 v=70
54240 On ch=1 n=d#5 v=70
54240 On ch=1 n=c5 v=70
54720 On ch=1 n=c5 v=0
54720 On ch=1 n=d#5 v=0
54720 On ch=1 n=g5 v=0
54720 On ch=1 n=c6 v=0
54720 On ch=1 n=d#6 v=0
54720 On ch=1 n=a#6 v=0
54720 On ch=1 n=d#7 v=0
54720 On ch=1 n=g6 v=70
54720 On ch=1 n=d#6 v=70
54720 On ch=1 n=a#5 v=70
54720 On ch=1 n=g5 v=70
55200 On ch=1 n=g5 v=0
55200 On ch=1 n=a#5 v=0
55200 On ch=1 n=d#6 v=0
55200 On ch=1 n=g6 v=0
55200 On ch=1 n=a#5 v=70
55200 On ch=1 n=g5 v=70
55200 On ch=1 n=f5 v=70
55200 On ch=1 n=a#4 v=70
55680 On ch=1 n=a#4 v=0
55680 On ch=1 n=f5 v=0
55680 On ch=1 n=g5 v=0
55680 On ch=1 n=a#5 v=0
55680 On ch=1 n=c6 v=70
55680 On ch=1 n=g5 v=70
55680 On ch=1 n=d#5 v=70
55680 On ch=1 n=c5 v=70
56160 On ch=1 n=c5 v=0
56160 On ch=1 n=d#5 v=0
56160 On ch=1 n=g5 v=0
56160 On ch=1 n=c6 v=0
56160 On ch=1 n=f6 v=70
56160 On ch=1 n=a#5 v=70
56160 On ch=1 n=g5 v=70
56160 On ch=1 n=f5 v=70
56640 On ch=1 n=f5 v=0
56640 On ch=1 n=g5 v=0
56640 On ch=1 n=a#5 v=0
56640 On ch=1 n=f6 v=0
56640 On ch=1 n=a#5 v=70
56640 On ch=1 n=g5 v=70
56640 On ch=1 n=f5 v=70
56640 On ch=1 n=a#4 v=70
57120 On ch=1 n=a#4 v=0
57120 On ch=1 n=f5 v=0
57120 On ch=1 n=g5 v=0
57120 On ch=1 n=a#5 v=0
57120 On ch=1 n=c6 v=70
57120 On ch=1 n=g5 v=70
57120 On ch=1 n=d#5 v=70
57120 On ch=1 n=c5 v=70
57600 On ch=1 n=c5 v=0
57600 On ch=1 n=d#5 v=0
57600 On ch=1 n=g5 v=0
57600 On ch=1 n=c6 v=0
57600 On ch=1 n=g6 v=70
57600 On ch=1 n=a#5 v=70
57600 On ch=1 n=g5 v=70
58080 On ch=1 n=g5 v=0
58080 On ch=1 n=a#5 v=0
58080 On ch=1 n=g6 v=0
58080 On ch=1 n=a#5 v=70
58080 On ch=1 n=g5 v=70
58080 On ch=1 n=f5 v=70
58080 On ch=1 n=a#4 v=70
58560 On ch=1 n=a#4 v=0
58560 On ch=1 n=f5 v=0
58560 On ch=1 n=g5 v=0
58560 On ch=1 n=a#5 v=0
58560 On ch=1 n=c6 v=70
58560 On ch=1 n=g5 v=70
58560 On ch=1 n=d#5 v=70
58560 On ch=1 n=c5 v=70
59040 On ch=1 n=c5 v=0
59040 On ch=1 n=d#5 v=0
59040 On ch=1 n=g5 v=0
59040 On ch=1 n=c6 v=0
59040 On ch=1 n=g6 v=70
59040 On ch=1 n=a#5 v=70
59040 On ch=1 n=g5 v=70
59520 On ch=1 n=g5 v=0
59520 On ch=1 n=a#5 v=0
59520 On ch=1 n=g6 v=0
59520 On ch=1 n=a#5 v=70
59520 On ch=1 n=g5 v=70
59520 On ch=1 n=f5 v=70
59520 On ch=1 n=a#4 v=70
60000 On ch=1 n=a#4 v=0
60000 On ch=1 n=f5 v=0
60000 On ch=1 n=g5 v=0
60000 On ch=1 n=a#5 v=0
60000 On ch=1 n=c6 v=70
60000 On ch=1 n=g5 v=70
60000 On ch=1 n=d#5 v=70
60000 On ch=1 n=c5 v=70
60480 On ch=1 n=c5 v=0
60480 On ch=1 n=d#5 v=0
60480 On ch=1 n=g5 v=0
60480 On ch=1 n=c6 v=0
60480 On ch=1 n=g7 v=70
60480 On ch=1 n=d7 v=70
60480 On ch=1 n=g6 v=70
61440 On ch=1 n=g6 v=100
61440 On ch=1 n=g5 v=100
61440 On ch=1 n=d6 v=100
61440 On ch=1 n=c6 v=100
62400 On ch=1 n=g5 v=0
62400 On ch=1 n=g6 v=0
62400 On ch=1 n=a6 v=100
62400 On ch=1 n=a5 v=100
63360 On ch=1 n=a5 v=0
63360 On ch=1 n=a6 v=0
63360 On ch=1 n=c6 v=0
63360 On ch=1 n=d6 v=0
63360 On ch=1 n=g6 v=0
63360 On ch=1 n=d7 v=0
63360 On ch=1 n=g7 v=0
63360 On ch=1 n=d7 v=100
63360 On ch=1 n=c7 v=100
63360 On ch=1 n=g6 v=100
63360 On ch=1 n=d6 v=100
64800 On ch=1 n=d8 v=100
64800 On ch=1 n=d7 v=100
65280 On ch=1 n=d8 v=0
65280 On ch=1 n=d7 v=0
65280 On ch=1 n=c8 v=100
65280 On ch=1 n=c7 v=100
65280 On ch=1 n=a7 v=100
65280 On ch=1 n=f7 v=100
65760 On ch=1 n=c8 v=0
65760 On ch=1 n=c7 v=0
65760 On ch=1 n=b7 v=100
65760 On ch=1 n=b6 v=100
66240 On ch=1 n=b6 v=0
66240 On ch=1 n=b7 v=0
66240 On ch=1 n=f7 v=0
66240 On ch=1 n=a7 v=0
66240 On ch=1 n=c7 v=0
66240 On ch=1 n=d7 v=0
66240 On ch=1 n=d6 v=0
66240 On ch=1 n=g6 v=0
66240 On ch=1 n=d7 v=100
66240 On ch=1 n=f7 v=100
66240 On ch=1 n=a7 v=100
66240 On ch=1 n=a6 v=100
66720 On ch=1 n=a6 v=0
66720 On ch=1 n=a7 v=0
66720 On ch=1 n=b7 v=100
66720 On ch=1 n=b6 v=100
67200 On ch=1 n=b6 v=0
67200 On ch=1 n=b7 v=0
67200 On ch=1 n=a7 v=100
67200 On ch=1 n=a6 v=100
67680 On ch=1 n=a6 v=0
67680 On ch=1 n=a7 v=0
67680 On ch=1 n=g7 v=100
67680 On ch=1 n=g6 v=100
68160 On ch=1 n=g6 v=0
68160 On ch=1 n=g7 v=0
68160 On ch=1 n=f7 v=0
68160 On ch=1 n=d7 v=0
68160 On ch=1 n=f7 v=100
68160 On ch=1 n=f6 v=100
68640 On ch=1 n=f6 v=0
68640 On ch=1 n=f7 v=0
68640 On ch=1 n=e7 v=100
68640 On ch=1 n=e6 v=100
69120 On ch=1 n=e6 v=0
69120 On ch=1 n=e7 v=0
69120 On ch=1 n=d7 v=100
69120 On ch=1 n=a6 v=100
69120 On ch=1 n=d6 v=100
70080 On ch=1 n=d6 v=0
70080 On ch=1 n=a6 v=0
70080 On ch=1 n=d7 v=0
70080 On ch=1 n=g4 v=110
70080 On ch=1 n=g5 v=110
70080 On ch=1 n=a4 v=110
70080 On ch=1 n=d5 v=110
70080 On ch=1 n=f5 v=110
71040 On ch=1 n=g5 v=0
71040 On ch=1 n=g4 v=0
71040 On ch=1 n=a5 v=110
71040 On ch=1 n=a4 v=110
72000 On ch=1 n=a4 v=0
72000 On ch=1 n=a5 v=0
72000 On ch=1 n=f5 v=0
72000 On ch=1 n=d5 v=0
72000 On ch=1 n=a4 v=0
72000 On ch=1 n=d6 v=110
72000 On ch=1 n=a5 v=110
72000 On ch=1 n=g5 v=110
72000 On ch=1 n=f5 v=110
72000 On ch=1 n=d5 v=110
72000 On ch=1 n=c5 v=110
72960 On ch=1 n=c5 v=0
72960 On ch=1 n=d5 v=0
72960 On ch=1 n=f5 v=0
72960 On ch=1 n=g5 v=0
72960 On ch=1 n=a5 v=0
72960 On ch=1 n=d6 v=0
72960 On ch=1 n=g4 v=110
72960 On ch=1 n=g5 v=110
72960 On ch=1 n=a4 v=110
72960 On ch=1 n=c5 v=110
72960 On ch=1 n=d5 v=110
72960 On ch=1 n=f5 v=110
73920 On ch=1 n=g5 v=0
73920 On ch=1 n=g4 v=0
73920 On ch=1 n=a5 v=110
73920 On ch=1 n=a4 v=110
74880 On ch=1 n=a4 v=0
74880 On ch=1 n=a5 v=0
74880 On ch=1 n=f5 v=0
74880 On ch=1 n=d5 v=0
74880 On ch=1 n=c5 v=0
74880 On ch=1 n=a4 v=0
74880 On ch=1 n=d6 v=110
74880 On ch=1 n=a5 v=110
74880 On ch=1 n=g5 v=110
74880 On ch=1 n=f5 v=110
74880 On ch=1 n=d5 v=110
74880 On ch=1 n=c5 v=110
75840 On ch=1 n=c5 v=0
75840 On ch=1 n=d5 v=0
75840 On ch=1 n=f5 v=0
75840 On ch=1 n=g5 v=0
75840 On ch=1 n=a5 v=0
75840 On ch=1 n=d6 v=0
78720 On ch=1 n=c5 v=120
78720 On ch=1 n=e5 v=120
78720 On ch=1 n=g5 v=120
78720 On ch=1 n=c6 v=120
79680 On ch=1 n=c6 v=0
79680 On ch=1 n=g5 v=0
79680 On ch=1 n=e5 v=0
79680 On ch=1 n=c5 v=0
79680 On ch=1 n=d6 v=120
79680 On ch=1 n=a5 v=120
79680 On ch=1 n=f5 v=120
79680 On ch=1 n=d5 v=120
80640 On ch=1 n=d5 v=0
80640 On ch=1 n=f5 v=0
80640 On ch=1 n=a5 v=0
80640 On ch=1 n=d6 v=0
80640 On ch=1 n=g5 v=120
80640 On ch=1 n=b5 v=120
80640 On ch=1 n=d6 v=120
80640 On ch=1 n=g6 v=120
82080 On ch=1 n=g6 v=0
82080 On ch=1 n=d6 v=0
82080 On ch=1 n=b5 v=0
82080 On ch=1 n=g5 v=0
82080 On ch=1 n=f6 v=120
82080 On ch=1 n=a5 v=120
82080 On ch=1 n=c6 v=120
82080 On ch=1 n=f5 v=120
82560 On ch=1 n=f5 v=0
82560 On ch=1 n=c6 v=0
82560 On ch=1 n=a5 v=0
82560 On ch=1 n=f6 v=0
82560 On ch=1 n=e5 v=120
82560 On ch=1 n=g5 v=120
82560 On ch=1 n=b5 v=120
82560 On ch=1 n=e6 v=120
83040 On ch=1 n=e6 v=0
83040 On ch=1 n=b5 v=0
83040 On ch=1 n=g5 v=0
83040 On ch=1 n=e5 v=0
83040 On ch=1 n=d6 v=120
83040 On ch=1 n=a5 v=120
83040 On ch=1 n=f5 v=120
83040 On ch=1 n=d5 v=120
83520 On ch=1 n=d5 v=0
83520 On ch=1 n=f5 v=0
83520 On ch=1 n=a5 v=0
83520 On ch=1 n=d6 v=0
83520 On ch=1 n=d5 v=120
83520 On ch=1 n=f5 v=120
83520 On ch=1 n=a5 v=120
83520 On ch=1 n=d6 v=120
84480 On ch=1 n=d6 v=0
84480 On ch=1 n=a5 v=0
84480 On ch=1 n=f5 v=0
84480 On ch=1 n=d5 v=0
84480 On ch=1 n=a5 v=120
84480 On ch=1 n=e5 v=120
84480 On ch=1 n=c5 v=120
84480 On ch=1 n=a4 v=120
85440 On ch=1 n=a4 v=0
85440 On ch=1 n=c5 v=0
85440 On ch=1 n=e5 v=0
85440 On ch=1 n=a5 v=0
85440 On ch=1 n=e6 v=120
85440 On ch=1 n=b5 v=120
85440 On ch=1 n=g5 v=120
85440 On ch=1 n=e5 v=120
86880 On ch=1 n=e5 v=0
86880 On ch=1 n=g5 v=0
86880 On ch=1 n=b5 v=0
86880 On ch=1 n=e6 v=0
86880 On ch=1 n=f6 v=120
86880 On ch=1 n=c6 v=120
86880 On ch=1 n=f5 v=120
86880 On ch=1 n=a5 v=120
87360 On ch=1 n=a5 v=0
87360 On ch=1 n=f5 v=0
87360 On ch=1 n=c6 v=0
87360 On ch=1 n=f6 v=0
87360 On ch=1 n=d5 v=120
87360 On ch=1 n=f5 v=120
87360 On ch=1 n=a5 v=120
87360 On ch=1 n=d6 v=120
88800 On ch=1 n=d6 v=0
88800 On ch=1 n=a5 v=0
88800 On ch=1 n=f5 v=0
88800 On ch=1 n=d5 v=0
88800 On ch=1 n=c6 v=120
88800 On ch=1 n=g5 v=120
88800 On ch=1 n=e5 v=120
88800 On ch=1 n=c5 v=120
89280 On ch=1 n=c5 v=0
89280 On ch=1 n=e5 v=0
89280 On ch=1 n=g5 v=0
89280 On ch=1 n=c6 v=0
89280 On ch=1 n=c5 v=120
89280 On ch=1 n=e5 v=120
89280 On ch=1 n=g5 v=120
89280 On ch=1 n=c6 v=120
91200 On ch=1 n=c6 v=0
91200 On ch=1 n=g5 v=0
91200 On ch=1 n=e5 v=0
91200 On ch=1 n=c5 v=0
91200 On ch=1 n=a4 v=120
91200 On ch=1 n=c5 v=120
91200 On ch=1 n=e5 v=120
91200 On ch=1 n=a5 v=120
92160 On ch=1 n=a5 v=0
92160 On ch=1 n=e5 v=0
92160 On ch=1 n=c5 v=0
92160 On ch=1 n=a4 v=0
92160 On ch=1 n=a#5 v=120
92160 On ch=1 n=f5 v=120
92160 On ch=1 n=d5 v=120
92160 On ch=1 n=a#4 v=120
93120 On ch=1 n=a#4 v=0
93120 On ch=1 n=d5 v=0
93120 On ch=1 n=f5 v=0
93120 On ch=1 n=a#5 v=0
93120 On ch=1 n=d6 v=120
93120 On ch=1 n=a5 v=120
93120 On ch=1 n=f5 v=120
93120 On ch=1 n=d5 v=120
94080 On ch=1 n=d5 v=0
94080 On ch=1 n=f5 v=0
94080 On ch=1 n=a5 v=0
94080 On ch=1 n=d6 v=0
94080 On ch=1 n=f6 v=120
94080 On ch=1 n=c6 v=120
94080 On ch=1 n=a5 v=120
94080 On ch=1 n=f5 v=120
95040 On ch=1 n=f5 v=0
95040 On ch=1 n=a5 v=0
95040 On ch=1 n=c6 v=0
95040 On ch=1 n=f6 v=0
95040 On ch=1 n=c6 v=120
95040 On ch=1 n=g5 v=120
95040 On ch=1 n=e5 v=120
95040 On ch=1 n=c5 v=120
96960 On ch=1 n=c5 v=0
96960 On ch=1 n=e5 v=0
96960 On ch=1 n=g5 v=0
96960 On ch=1 n=c6 v=0
96960 On ch=1 n=a4 v=120
96960 On ch=1 n=c5 v=120
96960 On ch=1 n=e5 v=120
96960 On ch=1 n=a5 v=120
97920 On ch=1 n=a5 v=0
97920 On ch=1 n=e5 v=0
97920 On ch=1 n=c5 v=0
97920 On ch=1 n=a4 v=0
97920 On ch=1 n=a#5 v=120
97920 On ch=1 n=f5 v=120
97920 On ch=1 n=d5 v=120
97920 On ch=1 n=a#4 v=120
98880 On ch=1 n=a#4 v=0
98880 On ch=1 n=d5 v=0
98880 On ch=1 n=f5 v=0
98880 On ch=1 n=a#5 v=0
98880 On ch=1 n=d6 v=120
98880 On ch=1 n=a5 v=120
98880 On ch=1 n=f5 v=120
98880 On ch=1 n=d5 v=120
99840 On ch=1 n=d5 v=0
99840 On ch=1 n=f5 v=0
99840 On ch=1 n=a5 v=0
99840 On ch=1 n=d6 v=0
99840 On ch=1 n=f6 v=120
99840 On ch=1 n=c6 v=120
99840 On ch=1 n=a5 v=120
99840 On ch=1 n=f5 v=120
100800 On ch=1 n=f5 v=0
100800 On ch=1 n=a5 v=0
100800 On ch=1 n=c6 v=0
100800 On ch=1 n=f6 v=0
100800 On ch=1 n=g6 v=122
100800 On ch=1 n=d6 v=122
100800 On ch=1 n=a#5 v=122
100800 On ch=1 n=g5 v=122
102240 On ch=1 n=g5 v=0
102240 On ch=1 n=a#5 v=0
102240 On ch=1 n=d6 v=0
102240 On ch=1 n=g6 v=0
102240 On ch=1 n=f6 v=122
102240 On ch=1 n=c6 v=122
102240 On ch=1 n=a5 v=122
102240 On ch=1 n=f5 v=122
102720 On ch=1 n=f5 v=0
102720 On ch=1 n=a5 v=0
102720 On ch=1 n=c6 v=0
102720 On ch=1 n=f6 v=0
102720 On ch=1 n=g6 v=122
102720 On ch=1 n=d6 v=122
102720 On ch=1 n=a#5 v=122
102720 On ch=1 n=g5 v=122
103200 On ch=1 n=g5 v=0
103200 On ch=1 n=a#5 v=0
103200 On ch=1 n=d6 v=0
103200 On ch=1 n=g6 v=0
103200 On ch=1 n=a#6 v=122
103200 On ch=1 n=f6 v=122
103200 On ch=1 n=d6 v=122
103200 On ch=1 n=a#5 v=122
103680 On ch=1 n=a#5 v=0
103680 On ch=1 n=d6 v=0
103680 On ch=1 n=f6 v=0
103680 On ch=1 n=a#6 v=0
103680 On ch=1 n=g6 v=122
103680 On ch=1 n=d6 v=122
103680 On ch=1 n=a#5 v=122
103680 On ch=1 n=g5 v=122
105600 On ch=1 n=g5 v=0
105600 On ch=1 n=a#5 v=0
105600 On ch=1 n=d6 v=0
105600 On ch=1 n=g6 v=0
105600 On ch=1 n=a6 v=125
105600 On ch=1 n=e6 v=125
105600 On ch=1 n=c6 v=125
105600 On ch=1 n=a5 v=125
106560 On ch=1 n=a5 v=0
106560 On ch=1 n=c6 v=0
106560 On ch=1 n=e6 v=0
106560 On ch=1 n=a6 v=0
106560 On ch=1 n=f6 v=125
106560 On ch=1 n=c6 v=125
106560 On ch=1 n=a5 v=125
106560 On ch=1 n=f5 v=125
108480 On ch=1 n=f5 v=0
108480 On ch=1 n=a5 v=0
108480 On ch=1 n=c6 v=0
108480 On ch=1 n=f6 v=0
108480 On ch=1 n=f6 v=125
108480 On ch=1 n=c6 v=125
108480 On ch=1 n=a5 v=125
108480 On ch=1 n=f5 v=125
110400 On ch=1 n=f5 v=0
110400 On ch=1 n=a5 v=0
110400 On ch=1 n=c6 v=0
110400 On ch=1 n=f6 v=0
110400 On ch=1 n=d6 v=122
110400 On ch=1 n=a5 v=122
110400 On ch=1 n=f5 v=122
110400 On ch=1 n=d5 v=122
111360 On ch=1 n=d5 v=0
111360 On ch=1 n=f5 v=0
111360 On ch=1 n=a5 v=0
111360 On ch=1 n=d6 v=0
111360 On ch=1 n=e6 v=122
111360 On ch=1 n=b5 v=122
111360 On ch=1 n=g5 v=122
111360 On ch=1 n=e5 v=122
112320 On ch=1 n=e5 v=0
112320 On ch=1 n=g5 v=0
112320 On ch=1 n=b5 v=0
112320 On ch=1 n=e6 v=0
112320 On ch=1 n=c6 v=120
112320 On ch=1 n=g5 v=120
112320 On ch=1 n=e5 v=120
112320 On ch=1 n=c5 v=120
113280 On ch=1 n=c5 v=127
114240 On ch=1 n=c5 v=0
114240 On ch=1 n=d5 v=127
115200 On ch=1 n=d5 v=0
115200 On ch=1 n=g5 v=120
116160 On ch=1 n=g5 v=0
116160 On ch=1 n=c6 v=110
117120 On ch=1 n=c6 v=0
117120 On ch=1 n=d6 v=100
118080 On ch=1 n=d6 v=0
118080 On ch=1 n=c6 v=0
118080 On ch=1 n=g5 v=0
118080 On ch=1 n=c5 v=0
118080 On ch=1 n=e5 v=0
118080 On ch=1 n=g6 v=60
118080 On ch=1 n=d6 v=60
118080 On ch=1 n=c6 v=60
118080 On ch=1 n=g5 v=60
119040 On ch=1 n=d8 v=60
119040 On ch=1 n=c8 v=60
119040 On ch=1 n=d7 v=60
119040 On ch=1 n=c7 v=60
120480 On ch=1 n=c7 v=0
120480 On ch=1 n=d7 v=0
120480 On ch=1 n=c8 v=0
120480 On ch=1 n=d8 v=0
120960 On ch=1 n=g5 v=0
120960 On ch=1 n=c6 v=0
120960 On ch=1 n=d6 v=0
120960 On ch=1 n=g6 v=0
120960 On ch=1 n=g6 v=50
120960 On ch=1 n=d6 v=50
120960 On ch=1 n=c6 v=50
120960 On ch=1 n=g5 v=50
121920 On ch=1 n=d8 v=50
121920 On ch=1 n=c8 v=50
121920 On ch=1 n=d7 v=50
121920 On ch=1 n=c7 v=50
123360 On ch=1 n=c7 v=0
123360 On ch=1 n=d7 v=0
123360 On ch=1 n=c8 v=0
123360 On ch=1 n=d8 v=0
123840 On ch=1 n=g5 v=0
123840 On ch=1 n=c6 v=0
123840 On ch=1 n=d6 v=0
123840 On ch=1 n=g6 v=0
123840 On ch=1 n=g6 v=40
123840 On ch=1 n=d6 v=40
123840 On ch=1 n=c6 v=40
123840 On ch=1 n=g5 v=40
124800 On ch=1 n=d8 v=40
124800 On ch=1 n=c8 v=40
124800 On ch=1 n=d7 v=40
124800 On ch=1 n=c7 v=40
126240 On ch=1 n=c7 v=0
126240 On ch=1 n=d7 v=0
126240 On ch=1 n=c8 v=0
126240 On ch=1 n=d8 v=0
126720 On ch=1 n=g5 v=0
126720 On ch=1 n=c6 v=0
126720 On ch=1 n=d6 v=0
126720 On ch=1 n=g6 v=0
126720 On ch=1 n=g6 v=30
126720 On ch=1 n=d6 v=30
126720 On ch=1 n=c6 v=30
126720 On ch=1 n=g5 v=30
127680 On ch=1 n=d8 v=30
127680 On ch=1 n=c8 v=30
127680 On ch=1 n=d7 v=30
127680 On ch=1 n=c7 v=30
129120 On ch=1 n=c7 v=0
129120 On ch=1 n=d7 v=0
129120 On ch=1 n=c8 v=0
129120 On ch=1 n=d8 v=0
129600 On ch=1 n=g5 v=0
129600 On ch=1 n=c6 v=0
129600 On ch=1 n=d6 v=0
129600 On ch=1 n=g6 v=0
150720 On ch=1 n=g#5 v=40
150720 On ch=1 n=g#6 v=40
150720 On ch=1 n=e6 v=40
151680 On ch=1 n=g#6 v=0
151680 On ch=1 n=g#5 v=0
151680 On ch=1 n=a#5 v=40
151680 On ch=1 n=a#6 v=40
152640 On ch=1 n=a#6 v=0
152640 On ch=1 n=a#5 v=0
152640 On ch=1 n=e6 v=0
152640 On ch=1 n=d#7 v=40
152640 On ch=1 n=d#6 v=40
152640 On ch=1 n=a#6 v=40
152640 On ch=1 n=g#6 v=40
153600 On ch=1 n=d#6 v=0
153600 On ch=1 n=d#7 v=0
153600 On ch=1 n=c#7 v=40
153600 On ch=1 n=c#6 v=40
154560 On ch=1 n=c#6 v=0
154560 On ch=1 n=c#7 v=0
154560 On ch=1 n=g#6 v=0
154560 On ch=1 n=a#6 v=0
154560 On ch=1 n=d#7 v=40
154560 On ch=1 n=d#6 v=40
155520 On ch=1 n=d#6 v=0
155520 On ch=1 n=d#7 v=0
155520 On ch=1 n=f#7 v=40
155520 On ch=1 n=c#7 v=40
155520 On ch=1 n=a6 v=40
155520 On ch=1 n=f#6 v=40
156480 On ch=1 n=f#6 v=0
156480 On ch=1 n=a6 v=0
156480 On ch=1 n=c#7 v=0
156480 On ch=1 n=f#7 v=0
156480 On ch=1 n=f#6 v=40
156480 On ch=1 n=a6 v=40
156480 On ch=1 n=d#7 v=40
156480 On ch=1 n=d#6 v=40
157440 On ch=1 n=d#6 v=0
157440 On ch=1 n=d#7 v=0
157440 On ch=1 n=c#7 v=40
157440 On ch=1 n=c#6 v=40
158880 On ch=1 n=c#6 v=0
158880 On ch=1 n=c#7 v=0
158880 On ch=1 n=d#7 v=50
158880 On ch=1 n=d#6 v=50
159360 On ch=1 n=d#6 v=0
159360 On ch=1 n=d#7 v=0
159360 On ch=1 n=a6 v=0
159360 On ch=1 n=f#6 v=0
159360 On ch=1 n=f#7 v=50
159360 On ch=1 n=c#7 v=50
159360 On ch=1 n=a6 v=50
159360 On ch=1 n=f#6 v=50
160320 On ch=1 n=f#6 v=0
160320 On ch=1 n=a6 v=0
160320 On ch=1 n=c#7 v=0
160320 On ch=1 n=f#7 v=0
160320 On ch=1 n=d#7 v=50
160320 On ch=1 n=d#6 v=50
160320 On ch=1 n=a6 v=50
160320 On ch=1 n=f#6 v=50
160800 On ch=1 n=d#6 v=0
160800 On ch=1 n=d#7 v=0
160800 On ch=1 n=f#7 v=50
160800 On ch=1 n=f#6 v=50
161280 On ch=1 n=f#6 v=0
161280 On ch=1 n=f#7 v=0
161280 On ch=1 n=f#6 v=0
161280 On ch=1 n=a6 v=0
161280 On ch=1 n=g#7 v=60
161280 On ch=1 n=c#7 v=60
161280 On ch=1 n=g#6 v=60
162240 On ch=1 n=g#6 v=0
162240 On ch=1 n=c#7 v=0
162240 On ch=1 n=g#7 v=0
162240 On ch=1 n=d#7 v=60
162240 On ch=1 n=d#6 v=60
162240 On ch=1 n=a6 v=60
162240 On ch=1 n=f#6 v=60
163200 On ch=1 n=d#6 v=0
163200 On ch=1 n=d#7 v=0
163200 On ch=1 n=c#7 v=80
163200 On ch=1 n=c#6 v=80
164640 On ch=1 n=c#6 v=0
164640 On ch=1 n=c#7 v=0
164640 On ch=1 n=d#6 v=80
164640 On ch=1 n=d#7 v=80
165120 On ch=1 n=d#7 v=0
165120 On ch=1 n=d#6 v=0
165120 On ch=1 n=f#6 v=0
165120 On ch=1 n=a6 v=0
165120 On ch=1 n=g#7 v=90
165120 On ch=1 n=c#7 v=90
165120 On ch=1 n=g#6 v=90
166080 On ch=1 n=g#6 v=0
166080 On ch=1 n=c#7 v=0
166080 On ch=1 n=g#7 v=0
166080 On ch=1 n=f#7 v=90
166080 On ch=1 n=f#6 v=90
166080 On ch=1 n=d#7 v=90
166560 On ch=1 n=f#6 v=0
166560 On ch=1 n=f#7 v=0
166560 On ch=1 n=g#7 v=90
166560 On ch=1 n=g#6 v=90
167040 On ch=1 n=g#6 v=0
167040 On ch=1 n=g#7 v=0
167040 On ch=1 n=d#7 v=0
167040 On ch=1 n=c#8 v=100
167040 On ch=1 n=c#7 v=100
167040 On ch=1 n=d#7 v=100
167040 On ch=1 n=f#7 v=100
168000 On ch=1 n=f#7 v=0
168000 On ch=1 n=d#7 v=0
168000 On ch=1 n=c#7 v=0
168000 On ch=1 n=c#8 v=0
168000 On ch=1 n=d#7 v=100
168000 On ch=1 n=c#7 v=100
168000 On ch=1 n=g#6 v=100
168000 On ch=1 n=g#7 v=100
168960 On ch=1 n=g#7 v=0
168960 On ch=1 n=g#6 v=0
168960 On ch=1 n=f#6 v=100
168960 On ch=1 n=f#7 v=100
169920 On ch=1 n=f#7 v=0
169920 On ch=1 n=f#6 v=0
169920 On ch=1 n=c#7 v=0
169920 On ch=1 n=d#7 v=0
169920 On ch=1 n=b7 v=110
169920 On ch=1 n=d#7 v=110
169920 On ch=1 n=c#7 v=110
169920 On ch=1 n=b6 v=110
171840 On ch=1 n=b6 v=0
171840 On ch=1 n=c#7 v=0
171840 On ch=1 n=d#7 v=0
171840 On ch=1 n=b7 v=0
171840 On ch=1 n=f#7 v=110
171840 On ch=1 n=f#6 v=110
171840 On ch=1 n=d#7 v=110
171840 On ch=1 n=c#7 v=110
172320 On ch=1 n=f#6 v=0
172320 On ch=1 n=f#7 v=0
172320 On ch=1 n=a7 v=110
172320 On ch=1 n=a6 v=110
172800 On ch=1 n=a6 v=0
172800 On ch=1 n=a7 v=0
172800 On ch=1 n=c#7 v=0
172800 On ch=1 n=d#7 v=0
172800 On ch=1 n=c#8 v=120
172800 On ch=1 n=c#7 v=120
172800 On ch=1 n=d#7 v=120
172800 On ch=1 n=f#7 v=120
173760 On ch=1 n=f#7 v=0
173760 On ch=1 n=d#7 v=0
173760 On ch=1 n=c#7 v=0
173760 On ch=1 n=c#8 v=0
173760 On ch=1 n=d#7 v=120
173760 On ch=1 n=c#7 v=120
173760 On ch=1 n=g#6 v=120
173760 On ch=1 n=g#7 v=120
174720 On ch=1 n=g#7 v=0
174720 On ch=1 n=g#6 v=0
174720 On ch=1 n=f#6 v=120
174720 On ch=1 n=f#7 v=120
175680 On ch=1 n=f#7 v=0
175680 On ch=1 n=f#6 v=0
175680 On ch=1 n=c#7 v=0
175680 On ch=1 n=d#7 v=0
175680 On ch=1 n=b7 v=110
175680 On ch=1 n=b6 v=110
175680 On ch=1 n=d#7 v=110
175680 On ch=1 n=c#7 v=110
176640 On ch=1 n=b6 v=0
176640 On ch=1 n=b7 v=0
176640 On ch=1 n=f#6 v=110
176640 On ch=1 n=f#7 v=110
177600 On ch=1 n=f#7 v=0
177600 On ch=1 n=f#6 v=0
177600 On ch=1 n=c#7 v=0
177600 On ch=1 n=d#7 v=0
177600 On ch=1 n=d#6 v=110
177600 On ch=1 n=c#6 v=110
177600 On ch=1 n=a#5 v=110
177600 On ch=1 n=g5 v=110
177600 On ch=1 n=d#5 v=110
178560 On ch=1 n=d#5 v=0
178560 On ch=1 n=g5 v=0
178560 On ch=1 n=a#5 v=0
178560 On ch=1 n=c#6 v=0
178560 On ch=1 n=d#6 v=0
178560 On ch=1 n=c#6 v=100
178560 On ch=1 n=b5 v=100
178560 On ch=1 n=g#5 v=100
178560 On ch=1 n=f5 v=100
178560 On ch=1 n=c#5 v=100
179520 On ch=1 n=c#5 v=0
179520 On ch=1 n=f5 v=0
179520 On ch=1 n=g#5 v=0
179520 On ch=1 n=b5 v=0
179520 On ch=1 n=c#6 v=0
179520 On ch=1 n=b5 v=90
179520 On ch=1 n=a5 v=90
179520 On ch=1 n=f#5 v=90
179520 On ch=1 n=d#5 v=90
179520 On ch=1 n=b4 v=90
180480 On ch=1 n=b4 v=0
180480 On ch=1 n=d#5 v=0
180480 On ch=1 n=f#5 v=0
180480 On ch=1 n=a5 v=0
180480 On ch=1 n=b5 v=0
180480 On ch=1 n=a5 v=80
180480 On ch=1 n=g5 v=80
180480 On ch=1 n=e5 v=80
180480 On ch=1 n=c#5 v=80
180480 On ch=1 n=a4 v=80
180960 On ch=1 n=a4 v=0
180960 On ch=1 n=c#5 v=0
180960 On ch=1 n=e5 v=0
180960 On ch=1 n=g5 v=0
180960 On ch=1 n=a5 v=0
180960 On ch=1 n=b5 v=70
180960 On ch=1 n=c#6 v=70
180960 On ch=1 n=g#5 v=70
180960 On ch=1 n=f5 v=70
180960 On ch=1 n=c#5 v=70
181440 On ch=1 n=c#5 v=0
181440 On ch=1 n=f5 v=0
181440 On ch=1 n=g#5 v=0
181440 On ch=1 n=c#6 v=0
181440 On ch=1 n=b5 v=0
181440 On ch=1 n=g#4 v=70
181440 On ch=1 n=c5 v=70
181440 On ch=1 n=d#5 v=70
181440 On ch=1 n=f#5 v=70
181440 On ch=1 n=g#5 v=70
183360 On ch=1 n=g#5 v=0
183360 On ch=1 n=f#5 v=0
183360 On ch=1 n=d#5 v=0
183360 On ch=1 n=c5 v=0
183360 On ch=1 n=g#4 v=0
184320 On ch=1 n=g#4 v=50
184320 On ch=1 n=c5 v=50
184320 On ch=1 n=d#5 v=50
184320 On ch=1 n=f#5 v=50
184320 On ch=1 n=g#5 v=50
186240 On ch=1 n=g#5 v=0
186240 On ch=1 n=f#5 v=0
186240 On ch=1 n=d#5 v=0
186240 On ch=1 n=c5 v=0
186240 On ch=1 n=g#4 v=0
186240 On ch=1 n=c#6 v=60
186240 On ch=1 n=c#5 v=60
186240 On ch=1 n=f5 v=60
186240 On ch=1 n=g#5 v=60
186240 On ch=1 n=b5 v=60
187200 On ch=1 n=b5 v=0
187200 On ch=1 n=g#5 v=0
187200 On ch=1 n=f5 v=0
187200 On ch=1 n=c#5 v=0
187200 On ch=1 n=c#6 v=0
187200 On ch=1 n=g#4 v=50
187200 On ch=1 n=c5 v=50
187200 On ch=1 n=d#5 v=50
187200 On ch=1 n=g#5 v=50
187200 On ch=1 n=f#5 v=50
192960 On ch=1 n=f#5 v=0
192960 On ch=1 n=g#5 v=0
192960 On ch=1 n=d#5 v=0
192960 On ch=1 n=c5 v=0
192960 On ch=1 n=g#4 v=0
239520 On ch=1 n=d6 v=40
239520 On ch=1 n=c6 v=40
239520 On ch=1 n=g5 v=40
239520 On ch=1 n=d5 v=40
240000 On ch=1 n=d5 v=0
240000 On ch=1 n=g5 v=0
240000 On ch=1 n=c6 v=0
240000 On ch=1 n=d6 v=0
240000 On ch=1 n=e6 v=40
240000 On ch=1 n=d6 v=40
240000 On ch=1 n=a5 v=40
240000 On ch=1 n=e5 v=40
240480 On ch=1 n=e5 v=0
240480 On ch=1 n=a5 v=0
240480 On ch=1 n=d6 v=0
240480 On ch=1 n=e6 v=0
240480 On ch=1 n=b6 v=40
240480 On ch=1 n=e6 v=40
240480 On ch=1 n=c6 v=40
240480 On ch=1 n=b5 v=40
240960 On ch=1 n=b5 v=0
240960 On ch=1 n=c6 v=0
240960 On ch=1 n=e6 v=0
240960 On ch=1 n=b6 v=0
240960 On ch=1 n=d7 v=40
240960 On ch=1 n=c7 v=40
240960 On ch=1 n=g6 v=40
240960 On ch=1 n=d6 v=40
241440 On ch=1 n=d6 v=0
241440 On ch=1 n=g6 v=0
241440 On ch=1 n=c7 v=0
241440 On ch=1 n=d7 v=0
241440 On ch=1 n=e7 v=40
241440 On ch=1 n=d7 v=40
241440 On ch=1 n=a6 v=40
241440 On ch=1 n=e6 v=40
241920 On ch=1 n=e6 v=0
241920 On ch=1 n=a6 v=0
241920 On ch=1 n=d7 v=0
241920 On ch=1 n=e7 v=0
241920 On ch=1 n=g8 v=40
241920 On ch=1 n=d8 v=40
241920 On ch=1 n=c8 v=40
241920 On ch=1 n=g7 v=40
242400 On ch=1 n=d6 v=40
242400 On ch=1 n=c6 v=40
242400 On ch=1 n=g5 v=40
242400 On ch=1 n=d5 v=40
242880 On ch=1 n=d5 v=0
242880 On ch=1 n=g5 v=0
242880 On ch=1 n=c6 v=0
242880 On ch=1 n=d6 v=0
242880 On ch=1 n=e6 v=40
242880 On ch=1 n=d6 v=40
242880 On ch=1 n=a5 v=40
242880 On ch=1 n=e5 v=40
243360 On ch=1 n=e5 v=0
243360 On ch=1 n=a5 v=0
243360 On ch=1 n=d6 v=0
243360 On ch=1 n=e6 v=0
243360 On ch=1 n=b6 v=40
243360 On ch=1 n=e6 v=40
243360 On ch=1 n=c6 v=40
243360 On ch=1 n=b5 v=40
243840 On ch=1 n=b5 v=0
243840 On ch=1 n=c6 v=0
243840 On ch=1 n=e6 v=0
243840 On ch=1 n=b6 v=0
243840 On ch=1 n=d7 v=40
243840 On ch=1 n=c7 v=40
243840 On ch=1 n=g6 v=40
243840 On ch=1 n=d6 v=40
244320 On ch=1 n=d6 v=0
244320 On ch=1 n=g6 v=0
244320 On ch=1 n=c7 v=0
244320 On ch=1 n=d7 v=0
244320 On ch=1 n=e7 v=40
244320 On ch=1 n=d7 v=40
244320 On ch=1 n=a6 v=40
244320 On ch=1 n=e6 v=40
244800 On ch=1 n=e6 v=0
244800 On ch=1 n=a6 v=0
244800 On ch=1 n=d7 v=0
244800 On ch=1 n=e7 v=0
244800 On ch=1 n=g7 v=0
244800 On ch=1 n=c8 v=0
244800 On ch=1 n=d8 v=0
244800 On ch=1 n=g8 v=0
244800 On ch=1 n=g8 v=40
244800 On ch=1 n=d8 v=40
244800 On ch=1 n=c8 v=40
244800 On ch=1 n=g7 v=40
245760 On ch=1 n=g7 v=0
245760 On ch=1 n=c8 v=0
245760 On ch=1 n=d8 v=0
245760 On ch=1 n=g8 v=0
245760 On ch=1 n=g5 v=40
245760 On ch=1 n=c6 v=40
245760 On ch=1 n=e6 v=40
245760 On ch=1 n=g6 v=40
247680 On ch=1 n=g6 v=0
247680 On ch=1 n=e6 v=0
247680 On ch=1 n=c6 v=0
247680 On ch=1 n=g5 v=0
247680 On ch=1 n=g8 v=40
247680 On ch=1 n=d8 v=40
247680 On ch=1 n=c8 v=40
247680 On ch=1 n=g7 v=40
248640 On ch=1 n=g7 v=0
248640 On ch=1 n=c8 v=0
248640 On ch=1 n=d8 v=0
248640 On ch=1 n=g8 v=0
248640 On ch=1 n=g5 v=40
248640 On ch=1 n=c6 v=40
248640 On ch=1 n=e6 v=40
248640 On ch=1 n=g6 v=40
253920 On ch=1 n=g6 v=0
253920 On ch=1 n=e6 v=0
253920 On ch=1 n=c6 v=0
253920 On ch=1 n=g5 v=0
253920 Meta TrkEnd
TrkEnd
MTrk
0 SeqSpec 43 00 01 00
0 Meta TrkName "Right Bass"
0 Meta 0x21 00
43680 On ch=1 n=f#5 v=50
43680 On ch=1 n=d#5 v=50
43680 On ch=1 n=b4 v=50
43680 On ch=1 n=d#4 v=50
44160 On ch=1 n=d#4 v=0
44160 On ch=1 n=b4 v=0
44160 On ch=1 n=d#5 v=0
44160 On ch=1 n=f#5 v=0
44160 On ch=1 n=g#5 v=50
44160 On ch=1 n=d#5 v=50
44160 On ch=1 n=c#5 v=50
44160 On ch=1 n=f#4 v=50
44640 On ch=1 n=f#4 v=0
44640 On ch=1 n=c#5 v=0
44640 On ch=1 n=d#5 v=0
44640 On ch=1 n=g#5 v=0
45120 On ch=1 n=g#5 v=50
45120 On ch=1 n=c#5 v=50
45120 On ch=1 n=d#5 v=50
45120 On ch=1 n=f#4 v=50
45600 On ch=1 n=f#4 v=0
45600 On ch=1 n=d#5 v=0
45600 On ch=1 n=c#5 v=0
45600 On ch=1 n=g#5 v=0
45600 On ch=1 n=f#5 v=50
45600 On ch=1 n=d#5 v=50
45600 On ch=1 n=b4 v=50
45600 On ch=1 n=d#4 v=50
46080 On ch=1 n=d#4 v=0
46080 On ch=1 n=b4 v=0
46080 On ch=1 n=d#5 v=0
46080 On ch=1 n=f#5 v=0
46560 On ch=1 n=f#5 v=50
46560 On ch=1 n=d#5 v=50
46560 On ch=1 n=b4 v=50
46560 On ch=1 n=d#4 v=50
47040 On ch=1 n=d#4 v=0
47040 On ch=1 n=b4 v=0
47040 On ch=1 n=d#5 v=0
47040 On ch=1 n=f#5 v=0
47040 On ch=1 n=g#5 v=50
47040 On ch=1 n=d#5 v=50
47040 On ch=1 n=c#5 v=50
47040 On ch=1 n=f#4 v=50
47520 On ch=1 n=f#4 v=0
47520 On ch=1 n=c#5 v=0
47520 On ch=1 n=d#5 v=0
47520 On ch=1 n=g#5 v=0
48000 On ch=1 n=g#5 v=50
48000 On ch=1 n=c#5 v=50
48000 On ch=1 n=d#5 v=50
48000 On ch=1 n=f#4 v=50
48480 On ch=1 n=f#4 v=0
48480 On ch=1 n=d#5 v=0
48480 On ch=1 n=c#5 v=0
48480 On ch=1 n=g#5 v=0
48480 On ch=1 n=f#5 v=50
48480 On ch=1 n=d#5 v=50
48480 On ch=1 n=b4 v=50
48480 On ch=1 n=d#4 v=50
48960 On ch=1 n=d#4 v=0
48960 On ch=1 n=b4 v=0
48960 On ch=1 n=d#5 v=0
48960 On ch=1 n=f#5 v=0
49440 On ch=1 n=f#5 v=50
49440 On ch=1 n=d#5 v=50
49440 On ch=1 n=b4 v=50
49440 On ch=1 n=d#4 v=50
49920 On ch=1 n=d#4 v=0
49920 On ch=1 n=b4 v=0
49920 On ch=1 n=d#5 v=0
49920 On ch=1 n=f#5 v=0
49920 On ch=1 n=g#5 v=50
49920 On ch=1 n=d#5 v=50
49920 On ch=1 n=c#5 v=50
49920 On ch=1 n=f#4 v=50
50400 On ch=1 n=f#4 v=0
50400 On ch=1 n=c#5 v=0
50400 On ch=1 n=d#5 v=0
50400 On ch=1 n=g#5 v=0
50880 On ch=1 n=f#5 v=50
50880 On ch=1 n=d#5 v=50
50880 On ch=1 n=b4 v=50
50880 On ch=1 n=d#4 v=50
51360 On ch=1 n=d#4 v=0
51360 On ch=1 n=b4 v=0
51360 On ch=1 n=d#5 v=0
51360 On ch=1 n=f#5 v=0
51360 On ch=1 n=g#5 v=50
51360 On ch=1 n=d#5 v=50
51360 On ch=1 n=c#5 v=50
51360 On ch=1 n=f#4 v=50
51840 On ch=1 n=f#4 v=0
51840 On ch=1 n=c#5 v=0
51840 On ch=1 n=d#5 v=0
51840 On ch=1 n=g#5 v=0
76800 On ch=1 n=g3 v=127
77760 On ch=1 n=g3 v=0
132480 On ch=1 n=e4 v=40
134400 On ch=1 n=e4 v=0
134400 On ch=1 n=c#4 v=40
136320 On ch=1 n=c#4 v=0
136320 On ch=1 n=d#4 v=40
137280 On ch=1 n=d#4 v=0
137280 On ch=1 n=g#4 v=40
138240 On ch=1 n=g#4 v=0
138240 On ch=1 n=e4 v=40
139200 On ch=1 n=e4 v=0
139200 On ch=1 n=c#4 v=40
140160 On ch=1 n=c#4 v=0
140160 On ch=1 n=g#3 v=40
142080 On ch=1 n=g#3 v=0
142080 On ch=1 n=a#3 v=40
143040 On ch=1 n=a#3 v=0
143040 On ch=1 n=d#4 v=40
144000 On ch=1 n=d#4 v=0
144000 On ch=1 n=b3 v=40
144960 On ch=1 n=b3 v=0
144960 On ch=1 n=g#4 v=40
144960 On ch=1 n=e4 v=40
145920 On ch=1 n=g#4 v=0
145920 On ch=1 n=a#4 v=40
146880 On ch=1 n=a#4 v=0
146880 On ch=1 n=e4 v=0
146880 On ch=1 n=d#5 v=50
146880 On ch=1 n=a#4 v=50
146880 On ch=1 n=g#4 v=50
146880 On ch=1 n=e4 v=50
147840 On ch=1 n=d#5 v=0
147840 On ch=1 n=c#5 v=50
148800 On ch=1 n=c#5 v=0
148800 On ch=1 n=d#5 v=50
149760 On ch=1 n=d#5 v=0
149760 On ch=1 n=e4 v=0
149760 On ch=1 n=g#4 v=0
149760 On ch=1 n=a#4 v=0
149760 On ch=1 n=b3 v=60
149760 On ch=1 n=e4 v=60
149760 On ch=1 n=g#4 v=60
149760 On ch=1 n=b4 v=60
150720 On ch=1 n=b4 v=0
150720 On ch=1 n=g#4 v=0
150720 On ch=1 n=e4 v=0
150720 On ch=1 n=b3 v=0
183360 On ch=1 n=d#5 v=60
183360 On ch=1 n=c#5 v=60
183360 On ch=1 n=a#4 v=60
183360 On ch=1 n=g4 v=60
183360 On ch=1 n=d#4 v=60
184320 On ch=1 n=d#4 v=0
184320 On ch=1 n=g4 v=0
184320 On ch=1 n=a#4 v=0
184320 On ch=1 n=c#5 v=0
184320 On ch=1 n=d#5 v=0
193920 On ch=1 n=c3 v=50
195840 On ch=1 n=c3 v=0
196800 On ch=1 n=c3 v=50
198960 On ch=1 n=c3 v=0
198960 On ch=1 n=d3 v=40
199200 On ch=1 n=d3 v=0
199200 On ch=1 n=c3 v=40
199440 On ch=1 n=c3 v=0
199440 On ch=1 n=d3 v=40
199680 On ch=1 n=d3 v=0
199680 On ch=1 n=c3 v=40
199920 On ch=1 n=c3 v=0
199920 On ch=1 n=d3 v=40
200160 On ch=1 n=d3 v=0
200160 On ch=1 n=c3 v=40
200400 On ch=1 n=c3 v=0
200400 On ch=1 n=d3 v=40
200640 On ch=1 n=d3 v=0
200640 On ch=1 n=c3 v=40
200880 On ch=1 n=c3 v=0
200880 On ch=1 n=d3 v=40
201120 On ch=1 n=d3 v=0
201120 On ch=1 n=c3 v=40
201360 On ch=1 n=c3 v=0
201360 On ch=1 n=d3 v=40
201600 On ch=1 n=d3 v=0
205440 On ch=1 n=c5 v=40
205440 On ch=1 n=g4 v=40
205440 On ch=1 n=e4 v=40
205440 On ch=1 n=c4 v=40
206400 On ch=1 n=c4 v=0
206400 On ch=1 n=e4 v=0
206400 On ch=1 n=g4 v=0
206400 On ch=1 n=c5 v=0
206400 On ch=1 n=d5 v=40
206400 On ch=1 n=a4 v=40
206400 On ch=1 n=f4 v=40
206400 On ch=1 n=d4 v=40
207360 On ch=1 n=d4 v=0
207360 On ch=1 n=f4 v=0
207360 On ch=1 n=a4 v=0
207360 On ch=1 n=d5 v=0
207360 On ch=1 n=g5 v=40
207360 On ch=1 n=d5 v=40
207360 On ch=1 n=b4 v=40
207360 On ch=1 n=g4 v=40
208800 On ch=1 n=g4 v=0
208800 On ch=1 n=b4 v=0
208800 On ch=1 n=d5 v=0
208800 On ch=1 n=g5 v=0
208800 On ch=1 n=f5 v=40
208800 On ch=1 n=c5 v=40
208800 On ch=1 n=a4 v=40
208800 On ch=1 n=f4 v=40
209280 On ch=1 n=f4 v=0
209280 On ch=1 n=a4 v=0
209280 On ch=1 n=c5 v=0
209280 On ch=1 n=f5 v=0
209280 On ch=1 n=e5 v=40
209280 On ch=1 n=b4 v=40
209280 On ch=1 n=g4 v=40
209280 On ch=1 n=e4 v=40
209760 On ch=1 n=e4 v=0
209760 On ch=1 n=g4 v=0
209760 On ch=1 n=b4 v=0
209760 On ch=1 n=e5 v=0
209760 On ch=1 n=d5 v=40
209760 On ch=1 n=a4 v=40
209760 On ch=1 n=f4 v=40
209760 On ch=1 n=d4 v=40
210240 On ch=1 n=d4 v=0
210240 On ch=1 n=f4 v=0
210240 On ch=1 n=a4 v=0
210240 On ch=1 n=d5 v=0
210240 On ch=1 n=d5 v=40
210240 On ch=1 n=a4 v=40
210240 On ch=1 n=f4 v=40
210240 On ch=1 n=d4 v=40
211200 On ch=1 n=d4 v=0
211200 On ch=1 n=f4 v=0
211200 On ch=1 n=a4 v=0
211200 On ch=1 n=d5 v=0
211200 On ch=1 n=a4 v=40
211200 On ch=1 n=e4 v=40
211200 On ch=1 n=c4 v=40
211200 On ch=1 n=a3 v=40
212160 On ch=1 n=a3 v=0
212160 On ch=1 n=c4 v=0
212160 On ch=1 n=e4 v=0
212160 On ch=1 n=a4 v=0
212160 On ch=1 n=e5 v=40
212160 On ch=1 n=b4 v=40
212160 On ch=1 n=g4 v=40
212160 On ch=1 n=e4 v=40
213600 On ch=1 n=e4 v=0
213600 On ch=1 n=g4 v=0
213600 On ch=1 n=b4 v=0
213600 On ch=1 n=e5 v=0
213600 On ch=1 n=f5 v=40
213600 On ch=1 n=c5 v=40
213600 On ch=1 n=a4 v=40
213600 On ch=1 n=f4 v=40
214080 On ch=1 n=f4 v=0
214080 On ch=1 n=a4 v=0
214080 On ch=1 n=c5 v=0
214080 On ch=1 n=f5 v=0
214080 On ch=1 n=d5 v=40
214080 On ch=1 n=a4 v=40
214080 On ch=1 n=f4 v=40
214080 On ch=1 n=d4 v=40
215520 On ch=1 n=d4 v=0
215520 On ch=1 n=f4 v=0
215520 On ch=1 n=a4 v=0
215520 On ch=1 n=d5 v=0
215520 On ch=1 n=c5 v=40
215520 On ch=1 n=g4 v=40
215520 On ch=1 n=e4 v=40
215520 On ch=1 n=c4 v=40
216000 On ch=1 n=c4 v=0
216000 On ch=1 n=e4 v=0
216000 On ch=1 n=g4 v=0
216000 On ch=1 n=c5 v=0
216000 On ch=1 n=c5 v=40
216000 On ch=1 n=g4 v=40
216000 On ch=1 n=e4 v=40
216000 On ch=1 n=c4 v=40
217920 On ch=1 n=c4 v=0
217920 On ch=1 n=e4 v=0
217920 On ch=1 n=g4 v=0
217920 On ch=1 n=c5 v=0
217920 On ch=1 n=a4 v=40
217920 On ch=1 n=e4 v=40
217920 On ch=1 n=c4 v=40
217920 On ch=1 n=a3 v=40
218880 On ch=1 n=a3 v=0
218880 On ch=1 n=c4 v=0
218880 On ch=1 n=e4 v=0
218880 On ch=1 n=a4 v=0
218880 On ch=1 n=a#4 v=40
218880 On ch=1 n=f4 v=40
218880 On ch=1 n=d4 v=40
218880 On ch=1 n=a#3 v=40
219840 On ch=1 n=a#3 v=0
219840 On ch=1 n=d4 v=0
219840 On ch=1 n=f4 v=0
219840 On ch=1 n=a#4 v=0
219840 On ch=1 n=d5 v=40
219840 On ch=1 n=a4 v=40
219840 On ch=1 n=f4 v=40
219840 On ch=1 n=d4 v=40
220800 On ch=1 n=d4 v=0
220800 On ch=1 n=f4 v=0
220800 On ch=1 n=a4 v=0
220800 On ch=1 n=d5 v=0
220800 On ch=1 n=f5 v=40
220800 On ch=1 n=c5 v=40
220800 On ch=1 n=a4 v=40
220800 On ch=1 n=f4 v=40
221760 On ch=1 n=f4 v=0
221760 On ch=1 n=a4 v=0
221760 On ch=1 n=c5 v=0
221760 On ch=1 n=f5 v=0
221760 On ch=1 n=c5 v=40
221760 On ch=1 n=g4 v=40
221760 On ch=1 n=e4 v=40
221760 On ch=1 n=c4 v=40
223680 On ch=1 n=c4 v=0
223680 On ch=1 n=e4 v=0
223680 On ch=1 n=g4 v=0
223680 On ch=1 n=c5 v=0
223680 On ch=1 n=a4 v=40
223680 On ch=1 n=e4 v=40
223680 On ch=1 n=c4 v=40
223680 On ch=1 n=a3 v=40
224640 On ch=1 n=a3 v=0
224640 On ch=1 n=c4 v=0
224640 On ch=1 n=e4 v=0
224640 On ch=1 n=a4 v=0
224640 On ch=1 n=a#4 v=40
224640 On ch=1 n=f4 v=40
224640 On ch=1 n=d4 v=40
224640 On ch=1 n=a#3 v=40
225600 On ch=1 n=a#3 v=0
225600 On ch=1 n=d4 v=0
225600 On ch=1 n=f4 v=0
225600 On ch=1 n=a#4 v=0
225600 On ch=1 n=d5 v=40
225600 On ch=1 n=a4 v=40
225600 On ch=1 n=f4 v=40
225600 On ch=1 n=d4 v=40
226560 On ch=1 n=d4 v=0
226560 On ch=1 n=f4 v=0
226560 On ch=1 n=a4 v=0
226560 On ch=1 n=d5 v=0
226560 On ch=1 n=f5 v=40
226560 On ch=1 n=c5 v=40
226560 On ch=1 n=a4 v=40
226560 On ch=1 n=f4 v=40
227520 On ch=1 n=f4 v=0
227520 On ch=1 n=a4 v=0
227520 On ch=1 n=c5 v=0
227520 On ch=1 n=f5 v=0
227520 On ch=1 n=g5 v=40
227520 On ch=1 n=d5 v=40
227520 On ch=1 n=a#4 v=40
227520 On ch=1 n=g4 v=40
228960 On ch=1 n=g4 v=0
228960 On ch=1 n=a#4 v=0
228960 On ch=1 n=d5 v=0
228960 On ch=1 n=g5 v=0
228960 On ch=1 n=f5 v=40
228960 On ch=1 n=c5 v=40
228960 On ch=1 n=a4 v=40
228960 On ch=1 n=f4 v=40
229440 On ch=1 n=f4 v=0
229440 On ch=1 n=a4 v=0
229440 On ch=1 n=c5 v=0
229440 On ch=1 n=f5 v=0
229440 On ch=1 n=g5 v=40
229440 On ch=1 n=d5 v=40
229440 On ch=1 n=a#4 v=40
229440 On ch=1 n=g4 v=40
229920 On ch=1 n=g4 v=0
229920 On ch=1 n=a#4 v=0
229920 On ch=1 n=d5 v=0
229920 On ch=1 n=g5 v=0
229920 On ch=1 n=a#5 v=40
229920 On ch=1 n=f5 v=40
229920 On ch=1 n=d5 v=40
229920 On ch=1 n=a#4 v=40
230400 On ch=1 n=a#4 v=0
230400 On ch=1 n=d5 v=0
230400 On ch=1 n=f5 v=0
230400 On ch=1 n=a#5 v=0
230400 On ch=1 n=g5 v=40
230400 On ch=1 n=d5 v=40
230400 On ch=1 n=a#4 v=40
230400 On ch=1 n=g4 v=40
232320 On ch=1 n=g4 v=0
232320 On ch=1 n=a#4 v=0
232320 On ch=1 n=d5 v=0
232320 On ch=1 n=g5 v=0
232320 On ch=1 n=a5 v=40
232320 On ch=1 n=e5 v=40
232320 On ch=1 n=c5 v=40
232320 On ch=1 n=a4 v=40
233280 On ch=1 n=a4 v=0
233280 On ch=1 n=c5 v=0
233280 On ch=1 n=e5 v=0
233280 On ch=1 n=a5 v=0
233280 On ch=1 n=f5 v=40
233280 On ch=1 n=c5 v=40
233280 On ch=1 n=a4 v=40
233280 On ch=1 n=f4 v=40
236160 On ch=1 n=f4 v=0
236160 On ch=1 n=a4 v=0
236160 On ch=1 n=c5 v=0
236160 On ch=1 n=f5 v=0
236160 On ch=1 n=d5 v=40
236160 On ch=1 n=a4 v=40
236160 On ch=1 n=f4 v=40
236160 On ch=1 n=d4 v=40
237600 On ch=1 n=d4 v=0
237600 On ch=1 n=f4 v=0
237600 On ch=1 n=a4 v=0
237600 On ch=1 n=d5 v=0
237600 On ch=1 n=e5 v=40
237600 On ch=1 n=b4 v=40
237600 On ch=1 n=g4 v=40
237600 On ch=1 n=e4 v=40
239040 On ch=1 n=e4 v=0
239040 On ch=1 n=g4 v=0
239040 On ch=1 n=b4 v=0
239040 On ch=1 n=e5 v=0
239040 Meta TrkEnd
TrkEnd
MTrk
0 SeqSpec 43 00 01 00
0 Meta TrkName "Left Treble"
0 Meta 0x21 00
13440 On ch=1 n=d5 v=40
13440 On ch=1 n=g5 v=40
13920 On ch=1 n=g5 v=0
13920 On ch=1 n=d5 v=0
13920 On ch=1 n=e5 v=40
14880 On ch=1 n=e5 v=0
14880 On ch=1 n=e5 v=40
16320 On ch=1 n=e5 v=0
16320 On ch=1 n=e5 v=40
18240 On ch=1 n=e5 v=0
18240 On ch=1 n=e5 v=40
19200 On ch=1 n=c#6 v=40
19200 On ch=1 n=c#5 v=40
20160 On ch=1 n=c#6 v=0
20160 On ch=1 n=e5 v=0
20160 On ch=1 n=e5 v=40
21120 On ch=1 n=c#5 v=0
21120 On ch=1 n=d#6 v=40
21120 On ch=1 n=d#5 v=40
22080 On ch=1 n=d#5 v=0
22080 On ch=1 n=d#6 v=0
22080 On ch=1 n=e5 v=0
22080 On ch=1 n=g#5 v=40
23040 On ch=1 n=g#5 v=0
23040 On ch=1 n=e5 v=40
24000 On ch=1 n=c#5 v=40
24000 On ch=1 n=c#6 v=40
24960 On ch=1 n=c#6 v=0
24960 On ch=1 n=c#5 v=0
24960 On ch=1 n=e5 v=0
24960 On ch=1 n=g#5 v=40
24960 On ch=1 n=g#4 v=40
24960 On ch=1 n=e5 v=40
25920 On ch=1 n=g#4 v=0
25920 On ch=1 n=g#5 v=0
25920 On ch=1 n=g#4 v=40
25920 On ch=1 n=g#5 v=40
26880 On ch=1 n=g#5 v=0
26880 On ch=1 n=g#4 v=0
26880 On ch=1 n=e5 v=0
26880 On ch=1 n=a#4 v=40
26880 On ch=1 n=a#5 v=40
26880 On ch=1 n=e5 v=40
27840 On ch=1 n=a#5 v=0
27840 On ch=1 n=a#4 v=0
27840 On ch=1 n=d#6 v=40
27840 On ch=1 n=d#5 v=40
28800 On ch=1 n=d#5 v=0
28800 On ch=1 n=d#6 v=0
28800 On ch=1 n=e5 v=0
28800 On ch=1 n=b4 v=50
28800 On ch=1 n=b5 v=50
28800 On ch=1 n=e5 v=50
29760 On ch=1 n=b5 v=0
29760 On ch=1 n=b4 v=0
29760 On ch=1 n=g#4 v=50
29760 On ch=1 n=g#5 v=50
30720 On ch=1 n=g#5 v=0
30720 On ch=1 n=g#4 v=0
30720 On ch=1 n=e5 v=0
30720 On ch=1 n=a#4 v=60
30720 On ch=1 n=a#5 v=60
30720 On ch=1 n=e5 v=60
31680 On ch=1 n=a#5 v=0
31680 On ch=1 n=a#4 v=0
31680 On ch=1 n=d#5 v=60
31680 On ch=1 n=d#6 v=60
32640 On ch=1 n=d#6 v=0
32640 On ch=1 n=d#5 v=0
32640 On ch=1 n=e5 v=0
32640 On ch=1 n=c#5 v=50
32640 On ch=1 n=c#6 v=50
32640 On ch=1 n=e5 v=50
33600 On ch=1 n=c#6 v=0
33600 On ch=1 n=c#5 v=0
33600 On ch=1 n=d#6 v=50
33600 On ch=1 n=d#5 v=50
34560 On ch=1 n=d#5 v=0
34560 On ch=1 n=d#6 v=0
34560 On ch=1 n=e5 v=0
34560 On ch=1 n=b4 v=40
34560 On ch=1 n=e5 v=40
34560 On ch=1 n=b5 v=40
36480 On ch=1 n=b5 v=0
36480 On ch=1 n=e5 v=0
36480 On ch=1 n=b4 v=0
63360 On ch=1 n=d5 v=100
63360 On ch=1 n=c6 v=100
63360 On ch=1 n=a5 v=100
63360 On ch=1 n=g5 v=100
63360 On ch=1 n=f5 v=100
64320 On ch=1 n=f5 v=0
64320 On ch=1 n=g5 v=0
64320 On ch=1 n=a5 v=0
64320 On ch=1 n=c6 v=0
64320 On ch=1 n=d5 v=0
64320 On ch=1 n=c5 v=100
64320 On ch=1 n=d5 v=100
64320 On ch=1 n=f5 v=100
64320 On ch=1 n=g4 v=100
64320 On ch=1 n=g5 v=100
65280 On ch=1 n=g5 v=0
65280 On ch=1 n=g4 v=0
65280 On ch=1 n=a4 v=100
65280 On ch=1 n=a5 v=100
66240 On ch=1 n=a5 v=0
66240 On ch=1 n=a4 v=0
66240 On ch=1 n=f5 v=0
66240 On ch=1 n=d5 v=0
66240 On ch=1 n=c5 v=0
66240 On ch=1 n=d6 v=100
66240 On ch=1 n=c6 v=100
66240 On ch=1 n=a5 v=100
66240 On ch=1 n=g5 v=100
66240 On ch=1 n=f5 v=100
66240 On ch=1 n=d5 v=100
67200 On ch=1 n=d5 v=0
67200 On ch=1 n=f5 v=0
67200 On ch=1 n=g5 v=0
67200 On ch=1 n=a5 v=0
67200 On ch=1 n=c6 v=0
67200 On ch=1 n=d6 v=0
67200 On ch=1 n=g4 v=100
67200 On ch=1 n=g5 v=100
67200 On ch=1 n=c5 v=100
67200 On ch=1 n=d5 v=100
67200 On ch=1 n=f5 v=100
68160 On ch=1 n=g5 v=0
68160 On ch=1 n=g4 v=0
68160 On ch=1 n=a4 v=100
68160 On ch=1 n=a5 v=100
69120 On ch=1 n=a5 v=0
69120 On ch=1 n=a4 v=0
69120 On ch=1 n=f5 v=0
69120 On ch=1 n=d5 v=0
69120 On ch=1 n=c5 v=0
69120 On ch=1 n=c6 v=100
69120 On ch=1 n=a5 v=100
69120 On ch=1 n=f5 v=100
69120 On ch=1 n=g5 v=100
69120 On ch=1 n=d5 v=100
70080 On ch=1 n=d5 v=0
70080 On ch=1 n=g5 v=0
70080 On ch=1 n=f5 v=0
70080 On ch=1 n=a5 v=0
70080 On ch=1 n=c6 v=0
152640 On ch=1 n=a#5 v=40
152640 On ch=1 n=g#5 v=40
152640 On ch=1 n=e5 v=40
152640 On ch=1 n=d#5 v=40
153600 On ch=1 n=d#5 v=0
153600 On ch=1 n=c#5 v=40
154560 On ch=1 n=c#5 v=0
154560 On ch=1 n=e5 v=0
154560 On ch=1 n=g#5 v=0
154560 On ch=1 n=a#5 v=0
154560 On ch=1 n=d#5 v=40
155520 On ch=1 n=d#5 v=0
167040 On ch=1 n=c#5 v=100
167040 On ch=1 n=d#5 v=100
167040 On ch=1 n=c#6 v=100
167040 On ch=1 n=a5 v=100
167040 On ch=1 n=f#5 v=100
168000 On ch=1 n=f#5 v=0
168000 On ch=1 n=a5 v=0
168000 On ch=1 n=c#6 v=0
168000 On ch=1 n=d#5 v=0
168000 On ch=1 n=c#5 v=0
168000 On ch=1 n=a4 v=100
168000 On ch=1 n=c#5 v=100
168000 On ch=1 n=d#5 v=100
168000 On ch=1 n=g#4 v=100
168000 On ch=1 n=g#5 v=100
168960 On ch=1 n=g#5 v=0
168960 On ch=1 n=g#4 v=0
168960 On ch=1 n=f#4 v=100
168960 On ch=1 n=f#5 v=100
169920 On ch=1 n=f#5 v=0
169920 On ch=1 n=f#4 v=0
169920 On ch=1 n=d#5 v=0
169920 On ch=1 n=c#5 v=0
169920 On ch=1 n=a4 v=0
169920 On ch=1 n=b5 v=110
169920 On ch=1 n=b4 v=110
169920 On ch=1 n=c#5 v=110
169920 On ch=1 n=d#5 v=110
169920 On ch=1 n=f#5 v=110
171840 On ch=1 n=f#5 v=0
171840 On ch=1 n=d#5 v=0
171840 On ch=1 n=c#5 v=0
171840 On ch=1 n=b4 v=0
171840 On ch=1 n=b5 v=0
172800 On ch=1 n=c#5 v=120
172800 On ch=1 n=c#6 v=120
172800 On ch=1 n=a5 v=120
172800 On ch=1 n=f#5 v=120
172800 On ch=1 n=d#5 v=120
173760 On ch=1 n=d#5 v=0
173760 On ch=1 n=f#5 v=0
173760 On ch=1 n=a5 v=0
173760 On ch=1 n=c#6 v=0
173760 On ch=1 n=c#5 v=0
173760 On ch=1 n=a4 v=120
173760 On ch=1 n=c#5 v=120
173760 On ch=1 n=d#5 v=120
173760 On ch=1 n=g#4 v=120
173760 On ch=1 n=g#5 v=120
174720 On ch=1 n=g#5 v=0
174720 On ch=1 n=g#4 v=0
174720 On ch=1 n=f#4 v=120
174720 On ch=1 n=f#5 v=120
175680 On ch=1 n=f#5 v=0
175680 On ch=1 n=f#4 v=0
175680 On ch=1 n=d#5 v=0
175680 On ch=1 n=c#5 v=0
175680 On ch=1 n=a4 v=0
175680 On ch=1 n=b5 v=110
175680 On ch=1 n=b4 v=110
175680 On ch=1 n=c#5 v=110
175680 On ch=1 n=f#5 v=110
175680 On ch=1 n=d#5 v=110
176640 On ch=1 n=b4 v=0
176640 On ch=1 n=b5 v=0
176640 On ch=1 n=f#4 v=110
176640 On ch=1 n=f#5 v=110
177600 On ch=1 n=f#5 v=0
177600 On ch=1 n=f#4 v=0
177600 On ch=1 n=d#5 v=0
177600 On ch=1 n=f#5 v=0
177600 On ch=1 n=c#5 v=0
240960 On ch=1 n=c6 v=40
240960 On ch=1 n=g5 v=40
240960 On ch=1 n=d5 v=40
241440 On ch=1 n=d5 v=0
241440 On ch=1 n=g5 v=0
241440 On ch=1 n=c6 v=0
241440 On ch=1 n=d6 v=40
241440 On ch=1 n=a5 v=40
241440 On ch=1 n=e5 v=40
241920 On ch=1 n=e5 v=0
241920 On ch=1 n=a5 v=0
241920 On ch=1 n=d6 v=0
243840 On ch=1 n=c6 v=40
243840 On ch=1 n=g5 v=40
243840 On ch=1 n=d5 v=40
244320 On ch=1 n=d5 v=0
244320 On ch=1 n=g5 v=0
244320 On ch=1 n=c6 v=0
244320 On ch=1 n=d6 v=40
244320 On ch=1 n=a5 v=40
244320 On ch=1 n=e5 v=40
244800 On ch=1 n=e5 v=0
244800 On ch=1 n=a5 v=0
244800 On ch=1 n=d6 v=0
244800 Meta TrkEnd
TrkEnd
MTrk
0 SeqSpec 43 00 01 00
0 Meta TrkName "Left Bass"
0 Meta 0x21 00
0 On ch=1 n=g2 v=40
0 On ch=1 n=d3 v=40
0 On ch=1 n=g3 v=40
480 On ch=1 n=d4 v=40
480 On ch=1 n=g4 v=40
960 On ch=1 n=g4 v=0
960 On ch=1 n=d4 v=0
960 On ch=1 n=e4 v=40
960 On ch=1 n=a4 v=40
1440 On ch=1 n=a4 v=0
1440 On ch=1 n=e4 v=0
1440 On ch=1 n=e5 v=40
1440 On ch=1 n=b4 v=40
1920 On ch=1 n=b4 v=0
1920 On ch=1 n=e5 v=0
1920 On ch=1 n=g5 v=40
1920 On ch=1 n=d5 v=40
2400 On ch=1 n=d5 v=0
2400 On ch=1 n=g5 v=0
2400 On ch=1 n=a5 v=40
2400 On ch=1 n=e5 v=40
2880 On ch=1 n=e5 v=0
2880 On ch=1 n=a5 v=0
3360 On ch=1 n=d3 v=40
3840 On ch=1 n=d3 v=0
3840 On ch=1 n=g2 v=40
4800 On ch=1 n=g2 v=0
4800 On ch=1 n=d3 v=40
5760 On ch=1 n=d3 v=0
5760 On ch=1 n=g2 v=0
5760 On ch=1 n=d3 v=0
5760 On ch=1 n=g3 v=0
5760 On ch=1 n=f2 v=40
5760 On ch=1 n=c3 v=40
5760 On ch=1 n=f3 v=40
6240 On ch=1 n=d4 v=40
6240 On ch=1 n=g4 v=40
6720 On ch=1 n=g4 v=0
6720 On ch=1 n=d4 v=0
6720 On ch=1 n=e4 v=40
6720 On ch=1 n=a4 v=40
7200 On ch=1 n=a4 v=0
7200 On ch=1 n=e4 v=0
7200 On ch=1 n=e5 v=40
7200 On ch=1 n=b4 v=40
7680 On ch=1 n=b4 v=0
7680 On ch=1 n=e5 v=0
7680 On ch=1 n=g5 v=40
7680 On ch=1 n=d5 v=40
8160 On ch=1 n=d5 v=0
8160 On ch=1 n=g5 v=0
8160 On ch=1 n=a5 v=40
8160 On ch=1 n=e5 v=40
8640 On ch=1 n=e5 v=0
8640 On ch=1 n=a5 v=0
9120 On ch=1 n=c3 v=40
9600 On ch=1 n=c3 v=0
9600 On ch=1 n=f2 v=40
10560 On ch=1 n=f2 v=0
10560 On ch=1 n=c3 v=40
11520 On ch=1 n=c3 v=0
11520 On ch=1 n=f2 v=0
11520 On ch=1 n=c3 v=0
11520 On ch=1 n=f3 v=0
11520 On ch=1 n=e2 v=40
11520 On ch=1 n=b2 v=40
11520 On ch=1 n=e3 v=40
12000 On ch=1 n=d4 v=40
12000 On ch=1 n=g4 v=40
12480 On ch=1 n=g4 v=0
12480 On ch=1 n=d4 v=0
12480 On ch=1 n=a4 v=40
12480 On ch=1 n=e4 v=40
12960 On ch=1 n=e4 v=0
12960 On ch=1 n=a4 v=0
12960 On ch=1 n=e5 v=40
12960 On ch=1 n=b4 v=40
13440 On ch=1 n=b4 v=0
13440 On ch=1 n=e5 v=0
14400 On ch=1 n=e3 v=0
14400 On ch=1 n=b2 v=0
14400 On ch=1 n=e2 v=0
35520 On ch=1 n=e2 v=40
35520 On ch=1 n=e3 v=40
36000 On ch=1 n=b3 v=40
36480 On ch=1 n=e3 v=0
36480 On ch=1 n=e2 v=0
36480 On ch=1 n=d2 v=40
36480 On ch=1 n=d3 v=40
37440 On ch=1 n=d3 v=0
37440 On ch=1 n=d2 v=0
37440 On ch=1 n=b3 v=0
37440 On ch=1 n=c2 v=40
37440 On ch=1 n=g2 v=40
37440 On ch=1 n=c3 v=40
37920 On ch=1 n=a4 v=40
37920 On ch=1 n=d4 v=40
37920 On ch=1 n=g3 v=40
38400 On ch=1 n=g3 v=0
38400 On ch=1 n=d4 v=0
38400 On ch=1 n=a4 v=0
38400 On ch=1 n=b4 v=40
38400 On ch=1 n=e4 v=40
38400 On ch=1 n=a3 v=40
39360 On ch=1 n=a3 v=0
39360 On ch=1 n=e4 v=0
39360 On ch=1 n=b4 v=0
39360 On ch=1 n=a4 v=40
39360 On ch=1 n=d4 v=40
39360 On ch=1 n=g3 v=40
39840 On ch=1 n=g3 v=0
39840 On ch=1 n=d4 v=0
39840 On ch=1 n=a4 v=0
39840 On ch=1 n=b4 v=40
39840 On ch=1 n=e4 v=40
39840 On ch=1 n=a3 v=40
40320 On ch=1 n=c3 v=0
40320 On ch=1 n=g2 v=0
40320 On ch=1 n=c2 v=0
40320 On ch=1 n=c2 v=40
40320 On ch=1 n=g2 v=40
40320 On ch=1 n=c3 v=40
40800 On ch=1 n=a3 v=0
40800 On ch=1 n=e4 v=0
40800 On ch=1 n=b4 v=0
40800 On ch=1 n=a4 v=40
40800 On ch=1 n=d4 v=40
40800 On ch=1 n=g3 v=40
41280 On ch=1 n=g3 v=0
41280 On ch=1 n=d4 v=0
41280 On ch=1 n=a4 v=0
41280 On ch=1 n=b4 v=40
41280 On ch=1 n=e4 v=40
41280 On ch=1 n=a3 v=40
42240 On ch=1 n=a3 v=0
42240 On ch=1 n=e4 v=0
42240 On ch=1 n=b4 v=0
42240 On ch=1 n=a4 v=40
42240 On ch=1 n=d4 v=40
42240 On ch=1 n=g3 v=40
42720 On ch=1 n=g3 v=0
42720 On ch=1 n=d4 v=0
42720 On ch=1 n=a4 v=0
42720 On ch=1 n=b4 v=40
42720 On ch=1 n=e4 v=40
42720 On ch=1 n=a3 v=40
43200 On ch=1 n=a3 v=0
43200 On ch=1 n=e4 v=0
43200 On ch=1 n=b4 v=0
43200 On ch=1 n=c3 v=0
43200 On ch=1 n=g2 v=0
43200 On ch=1 n=c2 v=0
43200 On ch=1 n=b2 v=40
43200 On ch=1 n=b1 v=40
43360 On ch=1 n=b2 v=0
43360 On ch=1 n=f#3 v=40
43520 On ch=1 n=f#3 v=0
43520 On ch=1 n=b2 v=40
43680 On ch=1 n=b2 v=0
43680 On ch=1 n=f#3 v=40
43840 On ch=1 n=f#3 v=0
43840 On ch=1 n=b2 v=40
44000 On ch=1 n=b2 v=0
44000 On ch=1 n=f#3 v=40
44160 On ch=1 n=f#3 v=0
44160 On ch=1 n=b2 v=40
44320 On ch=1 n=b2 v=0
44320 On ch=1 n=f#3 v=40
44480 On ch=1 n=f#3 v=0
44480 On ch=1 n=f#4 v=40
44640 On ch=1 n=f#4 v=0
44640 On ch=1 n=b4 v=40
44640 On ch=1 n=g#4 v=40
44800 On ch=1 n=g#4 v=0
44800 On ch=1 n=f#4 v=40
44960 On ch=1 n=f#4 v=0
44960 On ch=1 n=b3 v=40
45120 On ch=1 n=b4 v=0
45280 On ch=1 n=b3 v=0
45280 On ch=1 n=f#3 v=40
45440 On ch=1 n=f#3 v=0
45440 On ch=1 n=b2 v=40
45600 On ch=1 n=b2 v=0
45600 On ch=1 n=f#3 v=40
45760 On ch=1 n=f#3 v=0
45760 On ch=1 n=b2 v=40
45920 On ch=1 n=b2 v=0
45920 On ch=1 n=f#3 v=40
46080 On ch=1 n=f#3 v=0
46080 On ch=1 n=b1 v=0
46080 On ch=1 n=g#5 v=70
46080 On ch=1 n=f#5 v=70
46080 On ch=1 n=b4 v=70
46080 On ch=1 n=g#4 v=70
46080 On ch=1 n=f#4 v=70
46240 On ch=1 n=b1 v=40
46400 On ch=1 n=b1 v=0
46400 On ch=1 n=b2 v=40
46560 On ch=1 n=b2 v=0
46560 On ch=1 n=f#3 v=40
46720 On ch=1 n=f#3 v=0
46720 On ch=1 n=b2 v=40
46880 On ch=1 n=b2 v=0
46880 On ch=1 n=f#3 v=40
47040 On ch=1 n=f#3 v=0
47040 On ch=1 n=b2 v=40
47200 On ch=1 n=b2 v=0
47200 On ch=1 n=f#3 v=40
47360 On ch=1 n=f#3 v=0
47360 On ch=1 n=f#4 v=40
47520 On ch=1 n=f#4 v=0
47520 On ch=1 n=b4 v=40
47520 On ch=1 n=g#4 v=40
47680 On ch=1 n=g#4 v=0
47680 On ch=1 n=f#4 v=40
47840 On ch=1 n=f#4 v=0
47840 On ch=1 n=b3 v=40
48000 On ch=1 n=b4 v=0
48160 On ch=1 n=b3 v=0
48160 On ch=1 n=f#3 v=40
48320 On ch=1 n=f#3 v=0
48320 On ch=1 n=b2 v=40
48480 On ch=1 n=b2 v=0
48480 On ch=1 n=f#3 v=40
48640 On ch=1 n=f#3 v=0
48640 On ch=1 n=b2 v=40
48800 On ch=1 n=b2 v=0
48800 On ch=1 n=f#3 v=40
48960 On ch=1 n=f#3 v=0
48960 On ch=1 n=f#4 v=0
48960 On ch=1 n=g#4 v=0
48960 On ch=1 n=b4 v=0
48960 On ch=1 n=f#5 v=0
48960 On ch=1 n=g#5 v=0
48960 On ch=1 n=g#5 v=70
48960 On ch=1 n=f#5 v=70
48960 On ch=1 n=b4 v=70
48960 On ch=1 n=g#4 v=70
48960 On ch=1 n=f#4 v=70
49120 On ch=1 n=b1 v=40
49280 On ch=1 n=b1 v=0
49280 On ch=1 n=b2 v=40
49440 On ch=1 n=b2 v=0
49440 On ch=1 n=f#3 v=40
49600 On ch=1 n=f#3 v=0
49600 On ch=1 n=b2 v=40
49760 On ch=1 n=b2 v=0
49760 On ch=1 n=f#3 v=40
49920 On ch=1 n=f#3 v=0
49920 On ch=1 n=b2 v=40
50080 On ch=1 n=b2 v=0
50080 On ch=1 n=f#3 v=40
50240 On ch=1 n=f#3 v=0
50240 On ch=1 n=f#4 v=40
50400 On ch=1 n=f#4 v=0
50400 On ch=1 n=b4 v=40
50400 On ch=1 n=g#4 v=40
50560 On ch=1 n=g#4 v=0
50560 On ch=1 n=f#4 v=40
50720 On ch=1 n=f#4 v=0
50720 On ch=1 n=b3 v=40
50880 On ch=1 n=b4 v=0
51040 On ch=1 n=b3 v=0
51040 On ch=1 n=f#3 v=40
51200 On ch=1 n=f#3 v=0
51200 On ch=1 n=b2 v=40
51360 On ch=1 n=b2 v=0
51360 On ch=1 n=f#3 v=40
51520 On ch=1 n=f#3 v=0
51520 On ch=1 n=b2 v=40
51680 On ch=1 n=b2 v=0
51680 On ch=1 n=f#3 v=40
51840 On ch=1 n=f#3 v=0
51840 On ch=1 n=f#4 v=0
51840 On ch=1 n=g#4 v=0
51840 On ch=1 n=b4 v=0
51840 On ch=1 n=f#5 v=0
51840 On ch=1 n=g#5 v=0
51840 On ch=1 n=d#2 v=60
52000 On ch=1 n=d#3 v=60
52160 On ch=1 n=d#3 v=0
52160 On ch=1 n=a#3 v=60
52480 On ch=1 n=a#3 v=0
52480 On ch=1 n=a#3 v=60
52640 On ch=1 n=a#3 v=0
52640 On ch=1 n=d#4 v=60
52960 On ch=1 n=d#4 v=0
52960 On ch=1 n=d#4 v=60
53120 On ch=1 n=d#4 v=0
53120 On ch=1 n=a#4 v=60
53280 On ch=1 n=a#4 v=0
53280 On ch=1 n=d5 v=60
53280 On ch=1 n=d#4 v=60
53280 On ch=1 n=g4 v=60
53400 On ch=1 n=d5 v=0
53400 On ch=1 n=c5 v=60
53520 On ch=1 n=c5 v=0
53520 On ch=1 n=a#4 v=60
53760 On ch=1 n=a#4 v=0
53760 On ch=1 n=g4 v=0
53760 On ch=1 n=d#4 v=0
53760 On ch=1 n=d#2 v=0
53920 On ch=1 n=a#3 v=60
54080 On ch=1 n=a#3 v=0
54080 On ch=1 n=d#3 v=60
54400 On ch=1 n=d#3 v=0
54400 On ch=1 n=a#2 v=60
54560 On ch=1 n=a#2 v=0
54560 On ch=1 n=d#2 v=60
54720 On ch=1 n=f5 v=60
54720 On ch=1 n=g4 v=60
54720 On ch=1 n=a#4 v=60
54800 On ch=1 n=f5 v=0
54800 On ch=1 n=d#5 v=60
54880 On ch=1 n=d#5 v=0
54880 On ch=1 n=d5 v=60
54960 On ch=1 n=d5 v=0
54960 On ch=1 n=c5 v=60
55200 On ch=1 n=c5 v=0
55200 On ch=1 n=a#4 v=0
55200 On ch=1 n=g4 v=0
55360 On ch=1 n=d#4 v=60
55520 On ch=1 n=d#4 v=0
55520 On ch=1 n=a#3 v=60
55840 On ch=1 n=a#3 v=0
55840 On ch=1 n=d#3 v=60
56000 On ch=1 n=d#3 v=0
56000 On ch=1 n=a#2 v=60
56100 On ch=1 n=e2 v=60
56160 On ch=1 n=e2 v=0
56160 On ch=1 n=a#2 v=0
56160 On ch=1 n=d5 v=60
56160 On ch=1 n=d#4 v=60
56160 On ch=1 n=g4 v=60
56280 On ch=1 n=d5 v=0
56280 On ch=1 n=c5 v=60
56400 On ch=1 n=c5 v=0
56400 On ch=1 n=a#4 v=60
56640 On ch=1 n=a#4 v=0
56640 On ch=1 n=g4 v=0
56640 On ch=1 n=d#4 v=0
56640 On ch=1 n=d#2 v=0
56800 On ch=1 n=a#3 v=60
56960 On ch=1 n=a#3 v=0
56960 On ch=1 n=d#3 v=60
57280 On ch=1 n=d#3 v=0
57280 On ch=1 n=a#2 v=60
57440 On ch=1 n=a#2 v=0
57440 On ch=1 n=d#2 v=60
57600 On ch=1 n=d#2 v=0
57600 On ch=1 n=f5 v=60
57600 On ch=1 n=f4 v=60
57600 On ch=1 n=a#4 v=60
57600 On ch=1 n=g4 v=60
57720 On ch=1 n=f4 v=0
57720 On ch=1 n=f5 v=0
57720 On ch=1 n=d#5 v=60
57720 On ch=1 n=d#4 v=60
57840 On ch=1 n=d#4 v=0
57840 On ch=1 n=d#5 v=0
57840 On ch=1 n=d5 v=60
57840 On ch=1 n=d4 v=60
57960 On ch=1 n=d4 v=0
57960 On ch=1 n=d5 v=0
57960 On ch=1 n=c5 v=60
57960 On ch=1 n=c4 v=60
58080 On ch=1 n=c4 v=0
58080 On ch=1 n=c5 v=0
58080 On ch=1 n=g4 v=0
58080 On ch=1 n=a#4 v=0
58240 On ch=1 n=a#3 v=60
58240 On ch=1 n=a#4 v=60
58400 On ch=1 n=a#4 v=0
58400 On ch=1 n=a#3 v=0
58400 On ch=1 n=d#3 v=60
58400 On ch=1 n=d#4 v=60
58720 On ch=1 n=d#4 v=0
58720 On ch=1 n=d#3 v=0
58720 On ch=1 n=a#2 v=60
58720 On ch=1 n=a#3 v=60
58880 On ch=1 n=a#3 v=0
58880 On ch=1 n=a#2 v=0
58880 On ch=1 n=d#2 v=60
58880 On ch=1 n=d#3 v=60
59040 On ch=1 n=d#3 v=0
59040 On ch=1 n=d#2 v=0
59040 On ch=1 n=f5 v=60
59040 On ch=1 n=f4 v=60
59040 On ch=1 n=a#4 v=60
59040 On ch=1 n=g4 v=60
59160 On ch=1 n=f4 v=0
59160 On ch=1 n=f5 v=0
59160 On ch=1 n=d#5 v=60
59160 On ch=1 n=d#4 v=60
59280 On ch=1 n=d#4 v=0
59280 On ch=1 n=d#5 v=0
59280 On ch=1 n=d5 v=60
59280 On ch=1 n=d4 v=60
59400 On ch=1 n=d4 v=0
59400 On ch=1 n=d5 v=0
59400 On ch=1 n=c5 v=60
59400 On ch=1 n=c4 v=60
59520 On ch=1 n=c4 v=0
59520 On ch=1 n=c5 v=0
59520 On ch=1 n=g4 v=0
59520 On ch=1 n=a#4 v=0
59680 On ch=1 n=a#3 v=60
59680 On ch=1 n=a#4 v=60
59840 On ch=1 n=a#4 v=0
59840 On ch=1 n=a#3 v=0
59840 On ch=1 n=d#3 v=60
59840 On ch=1 n=d#4 v=60
60160 On ch=1 n=d#4 v=0
60160 On ch=1 n=d#3 v=0
60160 On ch=1 n=a#2 v=60
60160 On ch=1 n=a#3 v=60
60320 On ch=1 n=a#3 v=0
60320 On ch=1 n=a#2 v=0
60320 On ch=1 n=d#2 v=60
60320 On ch=1 n=d#3 v=60
60480 On ch=1 n=d#3 v=0
60480 On ch=1 n=d#2 v=0
60480 On ch=1 n=g2 v=70
60480 On ch=1 n=d3 v=70
60480 On ch=1 n=g3 v=70
61440 On ch=1 n=g4 v=100
61440 On ch=1 n=d5 v=100
61440 On ch=1 n=c5 v=100
62400 On ch=1 n=g4 v=0
62400 On ch=1 n=a4 v=100
63360 On ch=1 n=a4 v=0
63360 On ch=1 n=c5 v=0
63360 On ch=1 n=d5 v=0
63360 On ch=1 n=g3 v=0
63360 On ch=1 n=d3 v=0
63360 On ch=1 n=g2 v=0
70560 On ch=1 n=d3 v=110
70560 On ch=1 n=d4 v=110
71040 On ch=1 n=d4 v=0
71040 On ch=1 n=d3 v=0
71040 On ch=1 n=c3 v=110
71040 On ch=1 n=c4 v=110
71520 On ch=1 n=c4 v=0
71520 On ch=1 n=c3 v=0
71520 On ch=1 n=b2 v=110
71520 On ch=1 n=b3 v=110
72000 On ch=1 n=b3 v=0
72000 On ch=1 n=b2 v=0
72000 On ch=1 n=a2 v=110
72000 On ch=1 n=a3 v=110
72480 On ch=1 n=a3 v=0
72480 On ch=1 n=a2 v=0
72480 On ch=1 n=b2 v=110
72480 On ch=1 n=b3 v=110
72960 On ch=1 n=b3 v=0
72960 On ch=1 n=b2 v=0
72960 On ch=1 n=a2 v=110
72960 On ch=1 n=a3 v=110
73440 On ch=1 n=a3 v=0
73440 On ch=1 n=a2 v=0
73440 On ch=1 n=g2 v=110
73440 On ch=1 n=g3 v=110
73920 On ch=1 n=g3 v=0
73920 On ch=1 n=g2 v=0
73920 On ch=1 n=f2 v=110
73920 On ch=1 n=f3 v=110
74400 On ch=1 n=f3 v=0
74400 On ch=1 n=f2 v=0
74400 On ch=1 n=e2 v=110
74400 On ch=1 n=e3 v=110
74880 On ch=1 n=e3 v=0
74880 On ch=1 n=e2 v=0
74880 On ch=1 n=d2 v=110
74880 On ch=1 n=d3 v=110
75360 On ch=1 n=d3 v=0
75360 On ch=1 n=d2 v=0
75360 On ch=1 n=c3 v=110
75360 On ch=1 n=c4 v=110
75840 On ch=1 n=c4 v=0
75840 On ch=1 n=c3 v=0
75840 On ch=1 n=a2 v=110
75840 On ch=1 n=a3 v=110
76320 On ch=1 n=a3 v=0
76320 On ch=1 n=a2 v=0
76320 On ch=1 n=g2 v=110
76320 On ch=1 n=g3 v=110
76800 On ch=1 n=g3 v=0
76800 On ch=1 n=g2 v=0
76800 On ch=1 n=f2 v=110
76800 On ch=1 n=f3 v=110
77280 On ch=1 n=f3 v=0
77280 On ch=1 n=f2 v=0
77280 On ch=1 n=d2 v=110
77280 On ch=1 n=d3 v=110
77760 On ch=1 n=d3 v=0
77760 On ch=1 n=d2 v=0
77760 On ch=1 n=c2 v=110
78720 On ch=1 n=g3 v=120
78720 On ch=1 n=c4 v=120
78720 On ch=1 n=e4 v=120
78720 On ch=1 n=g4 v=120
79680 On ch=1 n=g4 v=0
79680 On ch=1 n=e4 v=0
79680 On ch=1 n=c4 v=0
79680 On ch=1 n=g3 v=0
79680 On ch=1 n=a4 v=120
79680 On ch=1 n=f4 v=120
79680 On ch=1 n=d4 v=120
79680 On ch=1 n=a3 v=120
80640 On ch=1 n=a3 v=0
80640 On ch=1 n=d4 v=0
80640 On ch=1 n=f4 v=0
80640 On ch=1 n=a4 v=0
80640 On ch=1 n=d4 v=120
80640 On ch=1 n=g4 v=120
80640 On ch=1 n=b4 v=120
80640 On ch=1 n=d5 v=120
82080 On ch=1 n=d5 v=0
82080 On ch=1 n=b4 v=0
82080 On ch=1 n=g4 v=0
82080 On ch=1 n=d4 v=0
82080 On ch=1 n=c5 v=120
82080 On ch=1 n=a4 v=120
82080 On ch=1 n=f4 v=120
82080 On ch=1 n=c4 v=120
82560 On ch=1 n=c4 v=0
82560 On ch=1 n=f4 v=0
82560 On ch=1 n=a4 v=0
82560 On ch=1 n=c5 v=0
82560 On ch=1 n=b3 v=120
82560 On ch=1 n=e4 v=120
82560 On ch=1 n=g4 v=120
82560 On ch=1 n=b4 v=120
83040 On ch=1 n=b4 v=0
83040 On ch=1 n=g4 v=0
83040 On ch=1 n=e4 v=0
83040 On ch=1 n=b3 v=0
83040 On ch=1 n=a4 v=120
83040 On ch=1 n=f4 v=120
83040 On ch=1 n=d4 v=120
83040 On ch=1 n=a3 v=120
83520 On ch=1 n=a3 v=0
83520 On ch=1 n=d4 v=0
83520 On ch=1 n=f4 v=0
83520 On ch=1 n=a4 v=0
83520 On ch=1 n=a3 v=120
83520 On ch=1 n=d4 v=120
83520 On ch=1 n=f4 v=120
83520 On ch=1 n=a4 v=120
84480 On ch=1 n=a4 v=0
84480 On ch=1 n=f4 v=0
84480 On ch=1 n=d4 v=0
84480 On ch=1 n=a3 v=0
84480 On ch=1 n=e4 v=120
84480 On ch=1 n=c4 v=120
84480 On ch=1 n=a3 v=120
84480 On ch=1 n=e3 v=120
85440 On ch=1 n=e3 v=0
85440 On ch=1 n=a3 v=0
85440 On ch=1 n=c4 v=0
85440 On ch=1 n=e4 v=0
85440 On ch=1 n=b3 v=120
85440 On ch=1 n=e4 v=120
85440 On ch=1 n=g4 v=120
85440 On ch=1 n=b4 v=120
86880 On ch=1 n=b4 v=0
86880 On ch=1 n=g4 v=0
86880 On ch=1 n=e4 v=0
86880 On ch=1 n=b3 v=0
86880 On ch=1 n=c5 v=120
86880 On ch=1 n=a4 v=120
86880 On ch=1 n=f4 v=120
86880 On ch=1 n=c4 v=120
87360 On ch=1 n=c4 v=0
87360 On ch=1 n=f4 v=0
87360 On ch=1 n=a4 v=0
87360 On ch=1 n=c5 v=0
87360 On ch=1 n=a3 v=120
87360 On ch=1 n=d4 v=120
87360 On ch=1 n=f4 v=120
87360 On ch=1 n=a4 v=120
88800 On ch=1 n=a4 v=0
88800 On ch=1 n=f4 v=0
88800 On ch=1 n=d4 v=0
88800 On ch=1 n=a3 v=0
88800 On ch=1 n=g4 v=120
88800 On ch=1 n=e4 v=120
88800 On ch=1 n=c4 v=120
88800 On ch=1 n=g3 v=120
89280 On ch=1 n=g3 v=0
89280 On ch=1 n=c4 v=0
89280 On ch=1 n=e4 v=0
89280 On ch=1 n=g4 v=0
89280 On ch=1 n=g3 v=120
89280 On ch=1 n=c4 v=120
89280 On ch=1 n=e4 v=120
89280 On ch=1 n=g4 v=120
90240 On ch=1 n=c2 v=0
90240 On ch=1 n=c2 v=120
91200 On ch=1 n=g4 v=0
91200 On ch=1 n=e4 v=0
91200 On ch=1 n=c4 v=0
91200 On ch=1 n=g3 v=0
91200 On ch=1 n=e3 v=120
91200 On ch=1 n=a3 v=120
91200 On ch=1 n=c4 v=120
91200 On ch=1 n=e4 v=120
92160 On ch=1 n=e4 v=0
92160 On ch=1 n=c4 v=0
92160 On ch=1 n=a3 v=0
92160 On ch=1 n=e3 v=0
92160 On ch=1 n=f4 v=120
92160 On ch=1 n=d4 v=120
92160 On ch=1 n=a#3 v=120
92160 On ch=1 n=f3 v=120
93120 On ch=1 n=f3 v=0
93120 On ch=1 n=a#3 v=0
93120 On ch=1 n=d4 v=0
93120 On ch=1 n=f4 v=0
93120 On ch=1 n=a4 v=120
93120 On ch=1 n=f4 v=120
93120 On ch=1 n=d4 v=120
93120 On ch=1 n=a3 v=120
94080 On ch=1 n=a3 v=0
94080 On ch=1 n=d4 v=0
94080 On ch=1 n=f4 v=0
94080 On ch=1 n=a4 v=0
94080 On ch=1 n=c5 v=120
94080 On ch=1 n=a4 v=120
94080 On ch=1 n=f4 v=120
94080 On ch=1 n=c4 v=120
95040 On ch=1 n=c4 v=0
95040 On ch=1 n=f4 v=0
95040 On ch=1 n=a4 v=0
95040 On ch=1 n=c5 v=0
95040 On ch=1 n=g3 v=120
95040 On ch=1 n=c4 v=120
95040 On ch=1 n=e4 v=120
95040 On ch=1 n=g4 v=120
96000 On ch=1 n=c2 v=0
96000 On ch=1 n=c2 v=120
96960 On ch=1 n=g4 v=0
96960 On ch=1 n=e4 v=0
96960 On ch=1 n=c4 v=0
96960 On ch=1 n=g3 v=0
96960 On ch=1 n=e3 v=120
96960 On ch=1 n=a3 v=120
96960 On ch=1 n=c4 v=120
96960 On ch=1 n=e4 v=120
97920 On ch=1 n=e4 v=0
97920 On ch=1 n=c4 v=0
97920 On ch=1 n=a3 v=0
97920 On ch=1 n=e3 v=0
97920 On ch=1 n=f4 v=120
97920 On ch=1 n=d4 v=120
97920 On ch=1 n=a#3 v=120
97920 On ch=1 n=f3 v=120
98880 On ch=1 n=f3 v=0
98880 On ch=1 n=a#3 v=0
98880 On ch=1 n=d4 v=0
98880 On ch=1 n=f4 v=0
98880 On ch=1 n=a4 v=120
98880 On ch=1 n=f4 v=120
98880 On ch=1 n=d4 v=120
98880 On ch=1 n=a3 v=120
99840 On ch=1 n=a3 v=0
99840 On ch=1 n=d4 v=0
99840 On ch=1 n=f4 v=0
99840 On ch=1 n=a4 v=0
99840 On ch=1 n=c5 v=120
99840 On ch=1 n=a4 v=120
99840 On ch=1 n=f4 v=120
99840 On ch=1 n=c4 v=120
100800 On ch=1 n=c4 v=0
100800 On ch=1 n=f4 v=0
100800 On ch=1 n=a4 v=0
100800 On ch=1 n=c5 v=0
100800 On ch=1 n=d5 v=122
100800 On ch=1 n=a#4 v=122
100800 On ch=1 n=g4 v=122
100800 On ch=1 n=d4 v=122
101760 On ch=1 n=c2 v=0
101760 On ch=1 n=c2 v=122
102240 On ch=1 n=d4 v=0
102240 On ch=1 n=g4 v=0
102240 On ch=1 n=a#4 v=0
102240 On ch=1 n=d5 v=0
102240 On ch=1 n=c5 v=122
102240 On ch=1 n=a4 v=122
102240 On ch=1 n=f4 v=122
102240 On ch=1 n=c4 v=122
102720 On ch=1 n=c4 v=0
102720 On ch=1 n=f4 v=0
102720 On ch=1 n=a4 v=0
102720 On ch=1 n=c5 v=0
102720 On ch=1 n=d5 v=122
102720 On ch=1 n=a#4 v=122
102720 On ch=1 n=g4 v=122
102720 On ch=1 n=d4 v=122
103200 On ch=1 n=d4 v=0
103200 On ch=1 n=g4 v=0
103200 On ch=1 n=a#4 v=0
103200 On ch=1 n=d5 v=0
103200 On ch=1 n=f5 v=122
103200 On ch=1 n=d5 v=122
103200 On ch=1 n=a#4 v=122
103200 On ch=1 n=f4 v=122
103680 On ch=1 n=f4 v=0
103680 On ch=1 n=a#4 v=0
103680 On ch=1 n=d5 v=0
103680 On ch=1 n=f5 v=0
103680 On ch=1 n=d5 v=122
103680 On ch=1 n=a#4 v=122
103680 On ch=1 n=g4 v=122
103680 On ch=1 n=d4 v=122
104640 On ch=1 n=c2 v=0
104640 On ch=1 n=c2 v=125
105600 On ch=1 n=d4 v=0
105600 On ch=1 n=g4 v=0
105600 On ch=1 n=a#4 v=0
105600 On ch=1 n=d5 v=0
105600 On ch=1 n=e5 v=125
105600 On ch=1 n=c5 v=125
105600 On ch=1 n=a4 v=125
105600 On ch=1 n=e4 v=125
106560 On ch=1 n=e4 v=0
106560 On ch=1 n=a4 v=0
106560 On ch=1 n=c5 v=0
106560 On ch=1 n=e5 v=0
106560 On ch=1 n=c5 v=125
106560 On ch=1 n=a4 v=125
106560 On ch=1 n=f4 v=125
106560 On ch=1 n=c4 v=125
107520 On ch=1 n=c2 v=0
107520 On ch=1 n=c2 v=125
108480 On ch=1 n=c4 v=0
108480 On ch=1 n=f4 v=0
108480 On ch=1 n=a4 v=0
108480 On ch=1 n=c5 v=0
108480 On ch=1 n=c5 v=125
108480 On ch=1 n=a4 v=125
108480 On ch=1 n=f4 v=125
108480 On ch=1 n=c4 v=125
110400 On ch=1 n=c4 v=0
110400 On ch=1 n=f4 v=0
110400 On ch=1 n=a4 v=0
110400 On ch=1 n=c5 v=0
110400 On ch=1 n=a4 v=122
110400 On ch=1 n=f4 v=122
110400 On ch=1 n=d4 v=122
110400 On ch=1 n=a3 v=122
111360 On ch=1 n=a3 v=0
111360 On ch=1 n=d4 v=0
111360 On ch=1 n=f4 v=0
111360 On ch=1 n=a4 v=0
111360 On ch=1 n=b4 v=122
111360 On ch=1 n=g4 v=122
111360 On ch=1 n=e4 v=122
111360 On ch=1 n=b3 v=122
112320 On ch=1 n=b3 v=0
112320 On ch=1 n=e4 v=0
112320 On ch=1 n=g4 v=0
112320 On ch=1 n=b4 v=0
112320 On ch=1 n=g3 v=120
112320 On ch=1 n=c4 v=120
112320 On ch=1 n=e4 v=120
112320 On ch=1 n=g4 v=120
113280 On ch=1 n=c2 v=0
113280 On ch=1 n=c2 v=120
118080 On ch=1 n=c2 v=0
118080 On ch=1 n=g4 v=0
118080 On ch=1 n=e4 v=0
118080 On ch=1 n=c4 v=0
118080 On ch=1 n=g3 v=0
118080 On ch=1 n=g4 v=60
118080 On ch=1 n=d5 v=60
118080 On ch=1 n=c5 v=60
119040 On ch=1 n=a#2 v=60
119040 On ch=1 n=a#3 v=60
120480 On ch=1 n=a#3 v=0
120480 On ch=1 n=a#2 v=0
120960 On ch=1 n=c5 v=0
120960 On ch=1 n=d5 v=0
120960 On ch=1 n=g4 v=0
120960 On ch=1 n=g4 v=50
120960 On ch=1 n=d5 v=50
120960 On ch=1 n=c5 v=50
121920 On ch=1 n=a#2 v=50
121920 On ch=1 n=a#3 v=50
123360 On ch=1 n=a#3 v=0
123360 On ch=1 n=a#2 v=0
123840 On ch=1 n=c5 v=0
123840 On ch=1 n=d5 v=0
123840 On ch=1 n=g4 v=0
123840 On ch=1 n=g4 v=40
123840 On ch=1 n=d5 v=40
123840 On ch=1 n=c5 v=40
124800 On ch=1 n=g#2 v=40
124800 On ch=1 n=g#3 v=40
126240 On ch=1 n=g#3 v=0
126240 On ch=1 n=g#2 v=0
126720 On ch=1 n=c5 v=0
126720 On ch=1 n=d5 v=0
126720 On ch=1 n=g4 v=0
126720 On ch=1 n=g4 v=30
126720 On ch=1 n=d5 v=30
126720 On ch=1 n=c5 v=30
127680 On ch=1 n=g#2 v=30
127680 On ch=1 n=g#3 v=30
129600 On ch=1 n=c5 v=0
129600 On ch=1 n=d5 v=0
129600 On ch=1 n=g4 v=0
130560 On ch=1 n=g#3 v=0
130560 On ch=1 n=g#2 v=0
130560 On ch=1 n=g#2 v=30
130560 On ch=1 n=g#3 v=30
139200 On ch=1 n=g#3 v=0
141120 On ch=1 n=g#2 v=0
141120 On ch=1 n=g#2 v=40
144960 On ch=1 n=g#3 v=40
145920 On ch=1 n=g#3 v=0
145920 On ch=1 n=a#3 v=40
146880 On ch=1 n=a#3 v=0
146880 On ch=1 n=d#4 v=50
147840 On ch=1 n=d#4 v=0
147840 On ch=1 n=c#4 v=50
148800 On ch=1 n=c#4 v=0
148800 On ch=1 n=d#4 v=50
149760 On ch=1 n=d#4 v=0
149760 On ch=1 n=g#2 v=0
149760 On ch=1 n=g#2 v=60
150720 On ch=1 n=g#4 v=40
150720 On ch=1 n=e5 v=40
151680 On ch=1 n=g#4 v=0
151680 On ch=1 n=a#4 v=40
152640 On ch=1 n=a#4 v=0
152640 On ch=1 n=e5 v=0
154560 On ch=1 n=g#2 v=0
155520 On ch=1 n=g#2 v=40
155520 On ch=1 n=g#3 v=40
156480 On ch=1 n=c#4 v=40
156480 On ch=1 n=c#5 v=40
156480 On ch=1 n=f#4 v=40
156480 On ch=1 n=a4 v=40
157440 On ch=1 n=c#5 v=0
157440 On ch=1 n=c#4 v=0
157440 On ch=1 n=d#5 v=40
157440 On ch=1 n=d#4 v=40
158400 On ch=1 n=d#4 v=0
158400 On ch=1 n=d#5 v=0
158400 On ch=1 n=a4 v=0
158400 On ch=1 n=f#4 v=0
158400 On ch=1 n=f#5 v=50
158400 On ch=1 n=c#5 v=50
158400 On ch=1 n=a4 v=50
158400 On ch=1 n=f#4 v=50
159360 On ch=1 n=f#4 v=0
159360 On ch=1 n=a4 v=0
159360 On ch=1 n=c#5 v=0
159360 On ch=1 n=f#5 v=0
159360 On ch=1 n=d#4 v=50
159360 On ch=1 n=d#5 v=50
159360 On ch=1 n=c#5 v=50
159360 On ch=1 n=a4 v=50
159360 On ch=1 n=f#4 v=50
160320 On ch=1 n=d#5 v=0
160320 On ch=1 n=d#4 v=0
160320 On ch=1 n=c#5 v=50
160320 On ch=1 n=c#4 v=50
161280 On ch=1 n=c#4 v=0
161280 On ch=1 n=c#5 v=0
161280 On ch=1 n=f#4 v=0
161280 On ch=1 n=a4 v=0
161280 On ch=1 n=c#5 v=0
161280 On ch=1 n=g#3 v=0
161280 On ch=1 n=g#2 v=0
161280 On ch=1 n=g#2 v=60
161280 On ch=1 n=g#3 v=60
162240 On ch=1 n=f#4 v=60
162240 On ch=1 n=a4 v=60
162240 On ch=1 n=c#4 v=60
162240 On ch=1 n=c#5 v=60
163200 On ch=1 n=c#5 v=0
163200 On ch=1 n=c#4 v=0
163200 On ch=1 n=d#5 v=80
163200 On ch=1 n=d#4 v=80
164160 On ch=1 n=d#4 v=0
164160 On ch=1 n=d#5 v=0
164160 On ch=1 n=a4 v=0
164160 On ch=1 n=f#4 v=0
164160 On ch=1 n=g#3 v=0
164160 On ch=1 n=g#2 v=0
164160 On ch=1 n=g#5 v=80
164160 On ch=1 n=d#5 v=80
164160 On ch=1 n=c#5 v=80
164160 On ch=1 n=a4 v=80
164160 On ch=1 n=g#4 v=80
165120 On ch=1 n=g#4 v=0
165120 On ch=1 n=a4 v=0
165120 On ch=1 n=c#5 v=0
165120 On ch=1 n=d#5 v=0
165120 On ch=1 n=g#5 v=0
165120 On ch=1 n=c#5 v=90
165120 On ch=1 n=a4 v=90
165120 On ch=1 n=f#4 v=90
165120 On ch=1 n=d#4 v=90
165120 On ch=1 n=d#5 v=90
166080 On ch=1 n=d#5 v=0
166080 On ch=1 n=d#4 v=0
166080 On ch=1 n=c#5 v=90
166080 On ch=1 n=c#4 v=90
166980 On ch=1 n=g#2 v=100
167040 On ch=1 n=c#4 v=0
167040 On ch=1 n=c#5 v=0
167040 On ch=1 n=f#4 v=0
167040 On ch=1 n=a4 v=0
167040 On ch=1 n=c#5 v=0
169920 On ch=1 n=g#2 v=0
170400 On ch=1 n=g#2 v=110
170880 On ch=1 n=g#2 v=0
170880 On ch=1 n=g#3 v=110
171360 On ch=1 n=g#3 v=0
171360 On ch=1 n=d#4 v=110
171840 On ch=1 n=d#4 v=0
171840 On ch=1 n=d#5 v=110
171840 On ch=1 n=c#5 v=110
171840 On ch=1 n=a4 v=110
171840 On ch=1 n=f#5 v=110
171840 On ch=1 n=f#4 v=110
172320 On ch=1 n=f#4 v=0
172320 On ch=1 n=f#5 v=0
172320 On ch=1 n=a5 v=110
172320 On ch=1 n=a4 v=110
172740 On ch=1 n=g#2 v=120
172800 On ch=1 n=a4 v=0
172800 On ch=1 n=a5 v=0
172800 On ch=1 n=a4 v=0
172800 On ch=1 n=c#5 v=0
172800 On ch=1 n=d#5 v=0
175680 On ch=1 n=g#2 v=0
177600 On ch=1 n=d#4 v=110
177600 On ch=1 n=a#4 v=110
177600 On ch=1 n=c#5 v=110
178560 On ch=1 n=c#5 v=0
178560 On ch=1 n=a#4 v=0
178560 On ch=1 n=d#4 v=0
178560 On ch=1 n=c#4 v=100
178560 On ch=1 n=g#4 v=100
178560 On ch=1 n=b4 v=100
179520 On ch=1 n=b4 v=0
179520 On ch=1 n=g#4 v=0
179520 On ch=1 n=c#4 v=0
179520 On ch=1 n=b3 v=90
179520 On ch=1 n=f#4 v=90
179520 On ch=1 n=a4 v=90
180480 On ch=1 n=a4 v=0
180480 On ch=1 n=f#4 v=0
180480 On ch=1 n=b3 v=0
180480 On ch=1 n=a3 v=80
180480 On ch=1 n=e4 v=80
180480 On ch=1 n=g4 v=80
180960 On ch=1 n=g4 v=0
180960 On ch=1 n=e4 v=0
180960 On ch=1 n=a3 v=0
180960 On ch=1 n=b4 v=70
180960 On ch=1 n=g#4 v=70
180960 On ch=1 n=c#4 v=70
181440 On ch=1 n=c#4 v=0
181440 On ch=1 n=g#4 v=0
181440 On ch=1 n=b4 v=0
181440 On ch=1 n=g#3 v=70
181440 On ch=1 n=d#4 v=70
181440 On ch=1 n=f#4 v=70
183360 On ch=1 n=f#4 v=0
183360 On ch=1 n=d#4 v=0
183360 On ch=1 n=g#3 v=0
183360 On ch=1 n=d#3 v=60
183360 On ch=1 n=c#4 v=60
183360 On ch=1 n=a#3 v=60
184320 On ch=1 n=a#3 v=0
184320 On ch=1 n=c#4 v=0
184320 On ch=1 n=d#3 v=0
184320 On ch=1 n=f#4 v=50
184320 On ch=1 n=d#4 v=50
184320 On ch=1 n=g#3 v=50
186240 On ch=1 n=g#3 v=0
186240 On ch=1 n=d#4 v=0
186240 On ch=1 n=f#4 v=0
186240 On ch=1 n=b4 v=60
186240 On ch=1 n=g#4 v=60
186240 On ch=1 n=c#4 v=60
187200 On ch=1 n=c#4 v=0
187200 On ch=1 n=g#4 v=0
187200 On ch=1 n=b4 v=0
187200 On ch=1 n=f#4 v=50
187200 On ch=1 n=d#4 v=50
187200 On ch=1 n=g#3 v=50
188160 On ch=1 n=g#2 v=50
191040 On ch=1 n=g#2 v=0
191040 On ch=1 n=g#2 v=50
192960 On ch=1 n=g#2 v=0
192960 On ch=1 n=g#3 v=0
192960 On ch=1 n=d#4 v=0
192960 On ch=1 n=f#4 v=0
192960 On ch=1 n=f#2 v=50
192960 On ch=1 n=g#2 v=50
195840 On ch=1 n=g#2 v=0
195840 On ch=1 n=f#2 v=0
195840 On ch=1 n=f#2 v=50
195840 On ch=1 n=g#2 v=50
198720 On ch=1 n=g#2 v=0
198720 On ch=1 n=f#2 v=0
198720 On ch=1 n=g#2 v=40
198720 On ch=1 n=f#2 v=40
201600 On ch=1 n=f#2 v=0
201600 On ch=1 n=g#2 v=0
201600 On ch=1 n=c3 v=30
201840 On ch=1 n=c3 v=0
201840 On ch=1 n=d3 v=30
202080 On ch=1 n=d3 v=0
202080 On ch=1 n=c3 v=30
202320 On ch=1 n=c3 v=0
202320 On ch=1 n=d3 v=30
202560 On ch=1 n=d3 v=0
202560 On ch=1 n=c3 v=30
202800 On ch=1 n=c3 v=0
202800 On ch=1 n=d3 v=30
203040 On ch=1 n=d3 v=0
203040 On ch=1 n=c3 v=30
203280 On ch=1 n=c3 v=0
203280 On ch=1 n=d3 v=30
203520 On ch=1 n=d3 v=0
203520 On ch=1 n=c3 v=30
203760 On ch=1 n=c3 v=0
203760 On ch=1 n=d3 v=30
204000 On ch=1 n=d3 v=0
204000 On ch=1 n=c3 v=30
204240 On ch=1 n=c3 v=0
204240 On ch=1 n=d3 v=30
204480 On ch=1 n=d3 v=0
204480 On ch=1 n=c3 v=30
204720 On ch=1 n=c3 v=0
204720 On ch=1 n=d3 v=30
204960 On ch=1 n=d3 v=0
204960 On ch=1 n=c3 v=30
205200 On ch=1 n=c3 v=0
205200 On ch=1 n=g2 v=30
205440 On ch=1 n=g2 v=0
205440 On ch=1 n=c2 v=30
205680 On ch=1 n=c2 v=0
205680 On ch=1 n=g2 v=30
205920 On ch=1 n=g2 v=0
205920 On ch=1 n=c3 v=30
206160 On ch=1 n=c3 v=0
206160 On ch=1 n=d3 v=30
206400 On ch=1 n=d3 v=0
206400 On ch=1 n=c3 v=30
206640 On ch=1 n=c3 v=0
206640 On ch=1 n=g2 v=30
206880 On ch=1 n=g2 v=0
206880 On ch=1 n=c2 v=30
207120 On ch=1 n=c2 v=0
207120 On ch=1 n=g2 v=30
207360 On ch=1 n=g2 v=0
207360 On ch=1 n=c3 v=30
207600 On ch=1 n=c3 v=0
207600 On ch=1 n=d3 v=30
207840 On ch=1 n=d3 v=0
207840 On ch=1 n=c3 v=30
208080 On ch=1 n=c3 v=0
208080 On ch=1 n=g2 v=30
208320 On ch=1 n=g2 v=0
208320 On ch=1 n=c2 v=30
208560 On ch=1 n=c2 v=0
208560 On ch=1 n=g2 v=30
208800 On ch=1 n=g2 v=0
208800 On ch=1 n=c3 v=30
209040 On ch=1 n=c3 v=0
209040 On ch=1 n=d3 v=30
209280 On ch=1 n=d3 v=0
209280 On ch=1 n=c3 v=30
209520 On ch=1 n=c3 v=0
209520 On ch=1 n=g2 v=30
209760 On ch=1 n=g2 v=0
209760 On ch=1 n=c2 v=30
210000 On ch=1 n=c2 v=0
210000 On ch=1 n=g2 v=30
210240 On ch=1 n=g2 v=0
210240 On ch=1 n=c3 v=30
210480 On ch=1 n=c3 v=0
210480 On ch=1 n=d3 v=30
210720 On ch=1 n=d3 v=0
210720 On ch=1 n=c3 v=30
210960 On ch=1 n=c3 v=0
210960 On ch=1 n=g2 v=30
211200 On ch=1 n=g2 v=0
211200 On ch=1 n=c2 v=30
211440 On ch=1 n=c2 v=0
211440 On ch=1 n=g2 v=30
211680 On ch=1 n=g2 v=0
211680 On ch=1 n=c3 v=30
211920 On ch=1 n=c3 v=0
211920 On ch=1 n=d3 v=30
212160 On ch=1 n=d3 v=0
212160 On ch=1 n=c3 v=30
212400 On ch=1 n=c3 v=0
212400 On ch=1 n=g2 v=30
212640 On ch=1 n=g2 v=0
212640 On ch=1 n=c2 v=30
212880 On ch=1 n=c2 v=0
212880 On ch=1 n=g2 v=30
213120 On ch=1 n=g2 v=0
213120 On ch=1 n=c3 v=30
213360 On ch=1 n=c3 v=0
213360 On ch=1 n=d3 v=30
213600 On ch=1 n=d3 v=0
213600 On ch=1 n=c3 v=30
213840 On ch=1 n=c3 v=0
213840 On ch=1 n=g2 v=30
214080 On ch=1 n=g2 v=0
214080 On ch=1 n=c2 v=30
214320 On ch=1 n=c2 v=0
214320 On ch=1 n=g2 v=30
214560 On ch=1 n=g2 v=0
214560 On ch=1 n=c3 v=30
214800 On ch=1 n=c3 v=0
214800 On ch=1 n=d3 v=30
215040 On ch=1 n=d3 v=0
215040 On ch=1 n=c3 v=30
215280 On ch=1 n=c3 v=0
215280 On ch=1 n=g2 v=30
215520 On ch=1 n=g2 v=0
215520 On ch=1 n=c2 v=30
215760 On ch=1 n=c2 v=0
215760 On ch=1 n=g2 v=30
216000 On ch=1 n=g2 v=0
216000 On ch=1 n=c3 v=30
216240 On ch=1 n=c3 v=0
216240 On ch=1 n=d3 v=30
216480 On ch=1 n=d3 v=0
216480 On ch=1 n=c3 v=30
216720 On ch=1 n=c3 v=0
216720 On ch=1 n=g2 v=30
216960 On ch=1 n=g2 v=0
216960 On ch=1 n=c2 v=30
217200 On ch=1 n=c2 v=0
217200 On ch=1 n=g2 v=30
217440 On ch=1 n=g2 v=0
217440 On ch=1 n=c3 v=30
217680 On ch=1 n=c3 v=0
217680 On ch=1 n=d3 v=30
217920 On ch=1 n=d3 v=0
217920 On ch=1 n=c3 v=30
218160 On ch=1 n=c3 v=0
218160 On ch=1 n=g2 v=30
218400 On ch=1 n=g2 v=0
218400 On ch=1 n=c2 v=30
218640 On ch=1 n=c2 v=0
218640 On ch=1 n=g2 v=30
218880 On ch=1 n=g2 v=0
218880 On ch=1 n=c3 v=30
219120 On ch=1 n=c3 v=0
219120 On ch=1 n=d3 v=30
219360 On ch=1 n=d3 v=0
219360 On ch=1 n=c3 v=30
219600 On ch=1 n=c3 v=0
219600 On ch=1 n=g2 v=30
219840 On ch=1 n=g2 v=0
219840 On ch=1 n=c2 v=30
220080 On ch=1 n=c2 v=0
220080 On ch=1 n=g2 v=30
220320 On ch=1 n=g2 v=0
220320 On ch=1 n=c3 v=30
220560 On ch=1 n=c3 v=0
220560 On ch=1 n=d3 v=30
220800 On ch=1 n=d3 v=0
220800 On ch=1 n=c3 v=30
221040 On ch=1 n=c3 v=0
221040 On ch=1 n=g2 v=30
221280 On ch=1 n=g2 v=0
221280 On ch=1 n=c2 v=30
221520 On ch=1 n=c2 v=0
221520 On ch=1 n=g2 v=30
221760 On ch=1 n=g2 v=0
221760 On ch=1 n=c3 v=30
222000 On ch=1 n=c3 v=0
222000 On ch=1 n=d3 v=30
222240 On ch=1 n=d3 v=0
222240 On ch=1 n=c3 v=30
222480 On ch=1 n=c3 v=0
222480 On ch=1 n=g2 v=30
222720 On ch=1 n=g2 v=0
222720 On ch=1 n=c2 v=30
222960 On ch=1 n=c2 v=0
222960 On ch=1 n=g2 v=30
223200 On ch=1 n=g2 v=0
223200 On ch=1 n=c3 v=30
223440 On ch=1 n=c3 v=0
223440 On ch=1 n=d3 v=30
223680 On ch=1 n=d3 v=0
223680 On ch=1 n=c3 v=30
223920 On ch=1 n=c3 v=0
223920 On ch=1 n=g2 v=30
224160 On ch=1 n=g2 v=0
224160 On ch=1 n=c2 v=30
224400 On ch=1 n=c2 v=0
224400 On ch=1 n=g2 v=30
224640 On ch=1 n=g2 v=0
224640 On ch=1 n=c3 v=30
224880 On ch=1 n=c3 v=0
224880 On ch=1 n=d3 v=30
225120 On ch=1 n=d3 v=0
225120 On ch=1 n=c3 v=30
225360 On ch=1 n=c3 v=0
225360 On ch=1 n=g2 v=30
225600 On ch=1 n=g2 v=0
225600 On ch=1 n=c2 v=30
225840 On ch=1 n=c2 v=0
225840 On ch=1 n=g2 v=30
226080 On ch=1 n=g2 v=0
226080 On ch=1 n=c3 v=30
226320 On ch=1 n=c3 v=0
226320 On ch=1 n=d3 v=30
226560 On ch=1 n=d3 v=0
226560 On ch=1 n=c3 v=30
226800 On ch=1 n=c3 v=0
226800 On ch=1 n=g2 v=30
227040 On ch=1 n=g2 v=0
227040 On ch=1 n=c2 v=30
227280 On ch=1 n=c2 v=0
227280 On ch=1 n=g2 v=30
227520 On ch=1 n=g2 v=0
227520 On ch=1 n=c3 v=30
227760 On ch=1 n=c3 v=0
227760 On ch=1 n=d3 v=30
228000 On ch=1 n=d3 v=0
228000 On ch=1 n=c3 v=30
228240 On ch=1 n=c3 v=0
228240 On ch=1 n=g2 v=30
228480 On ch=1 n=g2 v=0
228480 On ch=1 n=c2 v=30
228720 On ch=1 n=c2 v=0
228720 On ch=1 n=g2 v=30
228960 On ch=1 n=g2 v=0
228960 On ch=1 n=c3 v=30
229200 On ch=1 n=c3 v=0
229200 On ch=1 n=d3 v=30
229440 On ch=1 n=d3 v=0
229440 On ch=1 n=c3 v=30
229680 On ch=1 n=c3 v=0
229680 On ch=1 n=g2 v=30
229920 On ch=1 n=g2 v=0
229920 On ch=1 n=c2 v=30
230160 On ch=1 n=c2 v=0
230160 On ch=1 n=g2 v=30
230400 On ch=1 n=g2 v=0
230400 On ch=1 n=c3 v=30
230640 On ch=1 n=c3 v=0
230640 On ch=1 n=d3 v=30
230880 On ch=1 n=d3 v=0
230880 On ch=1 n=c3 v=30
231120 On ch=1 n=c3 v=0
231120 On ch=1 n=g2 v=30
231360 On ch=1 n=g2 v=0
231360 On ch=1 n=c2 v=30
231600 On ch=1 n=c2 v=0
231600 On ch=1 n=g2 v=30
231840 On ch=1 n=g2 v=0
231840 On ch=1 n=c3 v=30
232080 On ch=1 n=c3 v=0
232080 On ch=1 n=d3 v=30
232320 On ch=1 n=d3 v=0
232320 On ch=1 n=c3 v=30
232560 On ch=1 n=c3 v=0
232560 On ch=1 n=g2 v=30
232800 On ch=1 n=g2 v=0
232800 On ch=1 n=c2 v=30
233040 On ch=1 n=c2 v=0
233040 On ch=1 n=g2 v=30
233280 On ch=1 n=g2 v=0
233280 On ch=1 n=c3 v=30
233520 On ch=1 n=c3 v=0
233520 On ch=1 n=d3 v=30
233760 On ch=1 n=d3 v=0
233760 On ch=1 n=c3 v=30
234000 On ch=1 n=c3 v=0
234000 On ch=1 n=g2 v=30
234240 On ch=1 n=g2 v=0
234240 On ch=1 n=c2 v=30
234480 On ch=1 n=c2 v=0
234480 On ch=1 n=g2 v=30
234720 On ch=1 n=g2 v=0
234720 On ch=1 n=c3 v=30
234960 On ch=1 n=c3 v=0
234960 On ch=1 n=d3 v=30
235200 On ch=1 n=d3 v=0
235200 On ch=1 n=c3 v=30
235440 On ch=1 n=c3 v=0
235440 On ch=1 n=g2 v=30
235680 On ch=1 n=g2 v=0
235680 On ch=1 n=c2 v=30
235920 On ch=1 n=c2 v=0
235920 On ch=1 n=g2 v=30
236160 On ch=1 n=g2 v=0
236160 On ch=1 n=c3 v=30
236400 On ch=1 n=c3 v=0
236400 On ch=1 n=d3 v=30
236640 On ch=1 n=d3 v=0
236640 On ch=1 n=c3 v=30
236880 On ch=1 n=c3 v=0
236880 On ch=1 n=g2 v=30
237120 On ch=1 n=g2 v=0
237120 On ch=1 n=c2 v=30
237360 On ch=1 n=c2 v=0
237360 On ch=1 n=g2 v=30
237600 On ch=1 n=g2 v=0
237600 On ch=1 n=c3 v=30
237840 On ch=1 n=c3 v=0
237840 On ch=1 n=d3 v=30
238080 On ch=1 n=d3 v=0
238080 On ch=1 n=c3 v=30
238320 On ch=1 n=c3 v=0
238320 On ch=1 n=g2 v=30
238560 On ch=1 n=g2 v=0
238560 On ch=1 n=c2 v=30
238800 On ch=1 n=c2 v=0
238800 On ch=1 n=g2 v=30
239040 On ch=1 n=g2 v=0
239040 On ch=1 n=c2 v=40
239520 On ch=1 n=c5 v=40
239520 On ch=1 n=g4 v=40
239520 On ch=1 n=d4 v=40
240000 On ch=1 n=d4 v=0
240000 On ch=1 n=g4 v=0
240000 On ch=1 n=c5 v=0
240000 On ch=1 n=d5 v=40
240000 On ch=1 n=a4 v=40
240000 On ch=1 n=e4 v=40
240480 On ch=1 n=e4 v=0
240480 On ch=1 n=a4 v=0
240480 On ch=1 n=d5 v=0
240480 On ch=1 n=g5 v=40
240480 On ch=1 n=c5 v=40
240480 On ch=1 n=b4 v=40
240960 On ch=1 n=b4 v=0
240960 On ch=1 n=c5 v=0
240960 On ch=1 n=g5 v=0
240960 On ch=1 n=c2 v=0
241920 On ch=1 n=c2 v=40
241920 On ch=1 n=g2 v=40
241920 On ch=1 n=c3 v=40
242400 On ch=1 n=c5 v=40
242400 On ch=1 n=g4 v=40
242400 On ch=1 n=d4 v=40
242880 On ch=1 n=d4 v=0
242880 On ch=1 n=g4 v=0
242880 On ch=1 n=c5 v=0
242880 On ch=1 n=d5 v=40
242880 On ch=1 n=a4 v=40
242880 On ch=1 n=e4 v=40
243360 On ch=1 n=e4 v=0
243360 On ch=1 n=a4 v=0
243360 On ch=1 n=d5 v=0
243360 On ch=1 n=g5 v=40
243360 On ch=1 n=c5 v=40
243360 On ch=1 n=b4 v=40
243840 On ch=1 n=b4 v=0
243840 On ch=1 n=c5 v=0
243840 On ch=1 n=g5 v=0
244800 On ch=1 n=c3 v=0
244800 On ch=1 n=g2 v=0
244800 On ch=1 n=c2 v=0
244800 On ch=1 n=g5 v=40
244800 On ch=1 n=d5 v=40
244800 On ch=1 n=c5 v=40
244800 On ch=1 n=g4 v=40
245760 On ch=1 n=g4 v=0
245760 On ch=1 n=c5 v=0
245760 On ch=1 n=d5 v=0
245760 On ch=1 n=g5 v=0
245760 On ch=1 n=e5 v=40
245760 On ch=1 n=c5 v=40
245760 On ch=1 n=g4 v=40
245760 On ch=1 n=e4 v=40
246720 On ch=1 n=c2 v=40
246720 On ch=1 n=g2 v=40
246720 On ch=1 n=c3 v=40
247680 On ch=1 n=c3 v=0
247680 On ch=1 n=g2 v=0
247680 On ch=1 n=c2 v=0
247680 On ch=1 n=e4 v=0
247680 On ch=1 n=g4 v=0
247680 On ch=1 n=c5 v=0
247680 On ch=1 n=e5 v=0
247680 On ch=1 n=g5 v=40
247680 On ch=1 n=d5 v=40
247680 On ch=1 n=c5 v=40
247680 On ch=1 n=g4 v=40
248640 On ch=1 n=g4 v=0
248640 On ch=1 n=c5 v=0
248640 On ch=1 n=d5 v=0
248640 On ch=1 n=g5 v=0
248640 On ch=1 n=e5 v=40
248640 On ch=1 n=c5 v=40
248640 On ch=1 n=g4 v=40
248640 On ch=1 n=e4 v=40
249600 On ch=1 n=c2 v=40
249600 On ch=1 n=g2 v=40
249600 On ch=1 n=c3 v=40
253920 On ch=1 n=c3 v=0
253920 On ch=1 n=g2 v=0
253920 On ch=1 n=c2 v=0
253920 On ch=1 n=e4 v=0
253920 On ch=1 n=g4 v=0
253920 On ch=1 n=c5 v=0
253920 On ch=1 n=e5 v=0
253920 Meta TrkEnd
TrkEnd
MTrk
0 SeqSpec 43 00 01 00
0 Meta TrkName "Pedal"
0 Meta 0x21 00
0 Par ch=1 c=64 v=127
3360 Par ch=1 c=64 v=0
5760 Par ch=1 c=64 v=127
9120 Par ch=1 c=64 v=0
11520 Par ch=1 c=64 v=127
14820 Par ch=1 c=64 v=0
14880 Par ch=1 c=64 v=127
18180 Par ch=1 c=64 v=0
18240 Par ch=1 c=64 v=127
19140 Par ch=1 c=64 v=0
19200 Par ch=1 c=64 v=127
20100 Par ch=1 c=64 v=0
20160 Par ch=1 c=64 v=127
21060 Par ch=1 c=64 v=0
21120 Par ch=1 c=64 v=127
22020 Par ch=1 c=64 v=0
22080 Par ch=1 c=64 v=127
22980 Par ch=1 c=64 v=0
23040 Par ch=1 c=64 v=127
23940 Par ch=1 c=64 v=0
24000 Par ch=1 c=64 v=127
24900 Par ch=1 c=64 v=0
24960 Par ch=1 c=64 v=127
25860 Par ch=1 c=64 v=0
25920 Par ch=1 c=64 v=127
26820 Par ch=1 c=64 v=0
26880 Par ch=1 c=64 v=127
27780 Par ch=1 c=64 v=0
27840 Par ch=1 c=64 v=127
28740 Par ch=1 c=64 v=0
28800 Par ch=1 c=64 v=127
29700 Par ch=1 c=64 v=0
29760 Par ch=1 c=64 v=127
30660 Par ch=1 c=64 v=0
30720 Par ch=1 c=64 v=127
31620 Par ch=1 c=64 v=0
31680 Par ch=1 c=64 v=127
32580 Par ch=1 c=64 v=0
32640 Par ch=1 c=64 v=127
33540 Par ch=1 c=64 v=0
33600 Par ch=1 c=64 v=127
34500 Par ch=1 c=64 v=0
34560 Par ch=1 c=64 v=127
37380 Par ch=1 c=64 v=0
37440 Par ch=1 c=64 v=127
37860 Par ch=1 c=64 v=0
37920 Par ch=1 c=64 v=127
38340 Par ch=1 c=64 v=0
38400 Par ch=1 c=64 v=127
38820 Par ch=1 c=64 v=0
38880 Par ch=1 c=64 v=127
39300 Par ch=1 c=64 v=0
39360 Par ch=1 c=64 v=127
39780 Par ch=1 c=64 v=0
39840 Par ch=1 c=64 v=127
40260 Par ch=1 c=64 v=0
40320 Par ch=1 c=64 v=127
40740 Par ch=1 c=64 v=0
40800 Par ch=1 c=64 v=127
41220 Par ch=1 c=64 v=0
41280 Par ch=1 c=64 v=127
41700 Par ch=1 c=64 v=0
41760 Par ch=1 c=64 v=127
42180 Par ch=1 c=64 v=0
42240 Par ch=1 c=64 v=127
42660 Par ch=1 c=64 v=0
42720 Par ch=1 c=64 v=127
43140 Par ch=1 c=64 v=0
43200 Par ch=1 c=64 v=127
43620 Par ch=1 c=64 v=0
43680 Par ch=1 c=64 v=127
44100 Par ch=1 c=64 v=0
44160 Par ch=1 c=64 v=127
44580 Par ch=1 c=64 v=0
44640 Par ch=1 c=64 v=127
45060 Par ch=1 c=64 v=0
45120 Par ch=1 c=64 v=127
45540 Par ch=1 c=64 v=0
45600 Par ch=1 c=64 v=127
46020 Par ch=1 c=64 v=0
46080 Par ch=1 c=64 v=127
46500 Par ch=1 c=64 v=0
46560 Par ch=1 c=64 v=127
46980 Par ch=1 c=64 v=0
47040 Par ch=1 c=64 v=127
47460 Par ch=1 c=64 v=0
47520 Par ch=1 c=64 v=127
47940 Par ch=1 c=64 v=0
48000 Par ch=1 c=64 v=127
48420 Par ch=1 c=64 v=0
48480 Par ch=1 c=64 v=127
48900 Par ch=1 c=64 v=0
48960 Par ch=1 c=64 v=127
49380 Par ch=1 c=64 v=0
49440 Par ch=1 c=64 v=127
49860 Par ch=1 c=64 v=0
49920 Par ch=1 c=64 v=127
50340 Par ch=1 c=64 v=0
50400 Par ch=1 c=64 v=127
50820 Par ch=1 c=64 v=0
50880 Par ch=1 c=64 v=127
51300 Par ch=1 c=64 v=0
51360 Par ch=1 c=64 v=127
51780 Par ch=1 c=64 v=0
51840 Par ch=1 c=64 v=127
52260 Par ch=1 c=64 v=0
52320 Par ch=1 c=64 v=127
52740 Par ch=1 c=64 v=0
52800 Par ch=1 c=64 v=127
53220 Par ch=1 c=64 v=0
53280 Par ch=1 c=64 v=127
53700 Par ch=1 c=64 v=0
53760 Par ch=1 c=64 v=127
54180 Par ch=1 c=64 v=0
54240 Par ch=1 c=64 v=127
54660 Par ch=1 c=64 v=0
54720 Par ch=1 c=64 v=127
55140 Par ch=1 c=64 v=0
55200 Par ch=1 c=64 v=127
55620 Par ch=1 c=64 v=0
55680 Par ch=1 c=64 v=127
56100 Par ch=1 c=64 v=0
56160 Par ch=1 c=64 v=127
56580 Par ch=1 c=64 v=0
56640 Par ch=1 c=64 v=127
57060 Par ch=1 c=64 v=0
57120 Par ch=1 c=64 v=127
57540 Par ch=1 c=64 v=0
57600 Par ch=1 c=64 v=127
58020 Par ch=1 c=64 v=0
58080 Par ch=1 c=64 v=127
58500 Par ch=1 c=64 v=0
58560 Par ch=1 c=64 v=127
58980 Par ch=1 c=64 v=0
59040 Par ch=1 c=64 v=127
59460 Par ch=1 c=64 v=0
59520 Par ch=1 c=64 v=127
59940 Par ch=1 c=64 v=0
60480 Par ch=1 c=64 v=127
60900 Par ch=1 c=64 v=0
60960 Par ch=1 c=64 v=127
61380 Par ch=1 c=64 v=0
61440 Par ch=1 c=64 v=127
61860 Par ch=1 c=64 v=0
61920 Par ch=1 c=64 v=127
62340 Par ch=1 c=64 v=0
62400 Par ch=1 c=64 v=127
62820 Par ch=1 c=64 v=0
62880 Par ch=1 c=64 v=127
63300 Par ch=1 c=64 v=0
63360 Par ch=1 c=64 v=127
63780 Par ch=1 c=64 v=0
63840 Par ch=1 c=64 v=127
64260 Par ch=1 c=64 v=0
64320 Par ch=1 c=64 v=127
64740 Par ch=1 c=64 v=0
64800 Par ch=1 c=64 v=127
65220 Par ch=1 c=64 v=0
65280 Par ch=1 c=64 v=127
65700 Par ch=1 c=64 v=0
65760 Par ch=1 c=64 v=127
66180 Par ch=1 c=64 v=0
66240 Par ch=1 c=64 v=127
66660 Par ch=1 c=64 v=0
66720 Par ch=1 c=64 v=127
67140 Par ch=1 c=64 v=0
67200 Par ch=1 c=64 v=127
67620 Par ch=1 c=64 v=0
67680 Par ch=1 c=64 v=127
68100 Par ch=1 c=64 v=0
68160 Par ch=1 c=64 v=127
68580 Par ch=1 c=64 v=0
68640 Par ch=1 c=64 v=127
69060 Par ch=1 c=64 v=0
69120 Par ch=1 c=64 v=127
69540 Par ch=1 c=64 v=0
69600 Par ch=1 c=64 v=127
70020 Par ch=1 c=64 v=0
70080 Par ch=1 c=64 v=127
70500 Par ch=1 c=64 v=0
70560 Par ch=1 c=64 v=127
70980 Par ch=1 c=64 v=0
71040 Par ch=1 c=64 v=127
71460 Par ch=1 c=64 v=0
71520 Par ch=1 c=64 v=127
71940 Par ch=1 c=64 v=0
72000 Par ch=1 c=64 v=127
72420 Par ch=1 c=64 v=0
72480 Par ch=1 c=64 v=127
72900 Par ch=1 c=64 v=0
72960 Par ch=1 c=64 v=127
73380 Par ch=1 c=64 v=0
73440 Par ch=1 c=64 v=127
73860 Par ch=1 c=64 v=0
73920 Par ch=1 c=64 v=127
74340 Par ch=1 c=64 v=0
74400 Par ch=1 c=64 v=127
74820 Par ch=1 c=64 v=0
74880 Par ch=1 c=64 v=127
75300 Par ch=1 c=64 v=0
75360 Par ch=1 c=64 v=127
75780 Par ch=1 c=64 v=0
75840 Par ch=1 c=64 v=127
76260 Par ch=1 c=64 v=0
76320 Par ch=1 c=64 v=127
76740 Par ch=1 c=64 v=0
76800 Par ch=1 c=64 v=127
77220 Par ch=1 c=64 v=0
77280 Par ch=1 c=64 v=127
77700 Par ch=1 c=64 v=0
77760 Par ch=1 c=64 v=127
78180 Par ch=1 c=64 v=0
78240 Par ch=1 c=64 v=127
78660 Par ch=1 c=64 v=0
78720 Par ch=1 c=64 v=127
79140 Par ch=1 c=64 v=0
79200 Par ch=1 c=64 v=127
79620 Par ch=1 c=64 v=0
79680 Par ch=1 c=64 v=127
80100 Par ch=1 c=64 v=0
80160 Par ch=1 c=64 v=127
80580 Par ch=1 c=64 v=0
80640 Par ch=1 c=64 v=127
81060 Par ch=1 c=64 v=0
81120 Par ch=1 c=64 v=127
81540 Par ch=1 c=64 v=0
81600 Par ch=1 c=64 v=127
82020 Par ch=1 c=64 v=0
82080 Par ch=1 c=64 v=127
82500 Par ch=1 c=64 v=0
82560 Par ch=1 c=64 v=127
82980 Par ch=1 c=64 v=0
83520 Par ch=1 c=64 v=127
83940 Par ch=1 c=64 v=0
84000 Par ch=1 c=64 v=127
84420 Par ch=1 c=64 v=0
84480 Par ch=1 c=64 v=127
84900 Par ch=1 c=64 v=0
84960 Par ch=1 c=64 v=127
85380 Par ch=1 c=64 v=0
85440 Par ch=1 c=64 v=127
85860 Par ch=1 c=64 v=0
85920 Par ch=1 c=64 v=127
86340 Par ch=1 c=64 v=0
86400 Par ch=1 c=64 v=127
86820 Par ch=1 c=64 v=0
86880 Par ch=1 c=64 v=127
87300 Par ch=1 c=64 v=0
87360 Par ch=1 c=64 v=127
87780 Par ch=1 c=64 v=0
87840 Par ch=1 c=64 v=127
88260 Par ch=1 c=64 v=0
88320 Par ch=1 c=64 v=127
88740 Par ch=1 c=64 v=0
88800 Par ch=1 c=64 v=127
89220 Par ch=1 c=64 v=0
89280 Par ch=1 c=64 v=127
89700 Par ch=1 c=64 v=0
89760 Par ch=1 c=64 v=127
90180 Par ch=1 c=64 v=0
90240 Par ch=1 c=64 v=127
90660 Par ch=1 c=64 v=0
90720 Par ch=1 c=64 v=127
91140 Par ch=1 c=64 v=0
91200 Par ch=1 c=64 v=127
91620 Par ch=1 c=64 v=0
92160 Par ch=1 c=64 v=127
92580 Par ch=1 c=64 v=0
92640 Par ch=1 c=64 v=127
93060 Par ch=1 c=64 v=0
93120 Par ch=1 c=64 v=127
93540 Par ch=1 c=64 v=0
93600 Par ch=1 c=64 v=127
94020 Par ch=1 c=64 v=0
94080 Par ch=1 c=64 v=127
94500 Par ch=1 c=64 v=0
94560 Par ch=1 c=64 v=127
94980 Par ch=1 c=64 v=0
95040 Par ch=1 c=64 v=127
95460 Par ch=1 c=64 v=0
95520 Par ch=1 c=64 v=127
95940 Par ch=1 c=64 v=0
96000 Par ch=1 c=64 v=127
96420 Par ch=1 c=64 v=0
96480 Par ch=1 c=64 v=127
96900 Par ch=1 c=64 v=0
96960 Par ch=1 c=64 v=127
97380 Par ch=1 c=64 v=0
97440 Par ch=1 c=64 v=127
97860 Par ch=1 c=64 v=0
97920 Par ch=1 c=64 v=127
98340 Par ch=1 c=64 v=0
98400 Par ch=1 c=64 v=127
98820 Par ch=1 c=64 v=0
98880 Par ch=1 c=64 v=127
99300 Par ch=1 c=64 v=0
99360 Par ch=1 c=64 v=127
99780 Par ch=1 c=64 v=0
99840 Par ch=1 c=64 v=127
100260 Par ch=1 c=64 v=0
100800 Par ch=1 c=64 v=127
101220 Par ch=1 c=64 v=0
101280 Par ch=1 c=64 v=127
101700 Par ch=1 c=64 v=0
101760 Par ch=1 c=64 v=127
102180 Par ch=1 c=64 v=0
102240 Par ch=1 c=64 v=127
102660 Par ch=1 c=64 v=0
102720 Par ch=1 c=64 v=127
103140 Par ch=1 c=64 v=0
103200 Par ch=1 c=64 v=127
103620 Par ch=1 c=64 v=0
103680 Par ch=1 c=64 v=127
104100 Par ch=1 c=64 v=0
104160 Par ch=1 c=64 v=127
104580 Par ch=1 c=64 v=0
104640 Par ch=1 c=64 v=127
105060 Par ch=1 c=64 v=0
105120 Par ch=1 c=64 v=127
105540 Par ch=1 c=64 v=0
105600 Par ch=1 c=64 v=127
106020 Par ch=1 c=64 v=0
106080 Par ch=1 c=64 v=127
106500 Par ch=1 c=64 v=0
106560 Par ch=1 c=64 v=127
106980 Par ch=1 c=64 v=0
107040 Par ch=1 c=64 v=127
107460 Par ch=1 c=64 v=0
107520 Par ch=1 c=64 v=127
107940 Par ch=1 c=64 v=0
108000 Par ch=1 c=64 v=127
108420 Par ch=1 c=64 v=0
108480 Par ch=1 c=64 v=127
108900 Par ch=1 c=64 v=0
109440 Par ch=1 c=64 v=127
109860 Par ch=1 c=64 v=0
109920 Par ch=1 c=64 v=127
110340 Par ch=1 c=64 v=0
110400 Par ch=1 c=64 v=127
110820 Par ch=1 c=64 v=0
110880 Par ch=1 c=64 v=127
111300 Par ch=1 c=64 v=0
111360 Par ch=1 c=64 v=127
111780 Par ch=1 c=64 v=0
112320 Par ch=1 c=64 v=127
112740 Par ch=1 c=64 v=0
112800 Par ch=1 c=64 v=127
113220 Par ch=1 c=64 v=0
113280 Par ch=1 c=64 v=127
113700 Par ch=1 c=64 v=0
113760 Par ch=1 c=64 v=127
114180 Par ch=1 c=64 v=0
114240 Par ch=1 c=64 v=127
114660 Par ch=1 c=64 v=0
114720 Par ch=1 c=64 v=127
115140 Par ch=1 c=64 v=0
115200 Par ch=1 c=64 v=127
115620 Par ch=1 c=64 v=0
115680 Par ch=1 c=64 v=127
116100 Par ch=1 c=64 v=0
116160 Par ch=1 c=64 v=127
116580 Par ch=1 c=64 v=0
116640 Par ch=1 c=64 v=127
117060 Par ch=1 c=64 v=0
117120 Par ch=1 c=64 v=127
117540 Par ch=1 c=64 v=0
117600 Par ch=1 c=64 v=127
118020 Par ch=1 c=64 v=0
118080 Par ch=1 c=64 v=127
118500 Par ch=1 c=64 v=0
118560 Par ch=1 c=64 v=127
118980 Par ch=1 c=64 v=0
119040 Par ch=1 c=64 v=127
119460 Par ch=1 c=64 v=0
119520 Par ch=1 c=64 v=127
119940 Par ch=1 c=64 v=0
120000 Par ch=1 c=64 v=127
120420 Par ch=1 c=64 v=0
120960 Par ch=1 c=64 v=127
121380 Par ch=1 c=64 v=0
121440 Par ch=1 c=64 v=127
121860 Par ch=1 c=64 v=0
121920 Par ch=1 c=64 v=127
122340 Par ch=1 c=64 v=0
122400 Par ch=1 c=64 v=127
122820 Par ch=1 c=64 v=0
122880 Par ch=1 c=64 v=127
123300 Par ch=1 c=64 v=0
123360 Par ch=1 c=64 v=127
123780 Par ch=1 c=64 v=0
123840 Par ch=1 c=64 v=127
124260 Par ch=1 c=64 v=0
124320 Par ch=1 c=64 v=127
124740 Par ch=1 c=64 v=0
124800 Par ch=1 c=64 v=127
125220 Par ch=1 c=64 v=0
125280 Par ch=1 c=64 v=127
125700 Par ch=1 c=64 v=0
125760 Par ch=1 c=64 v=127
126180 Par ch=1 c=64 v=0
126240 Par ch=1 c=64 v=127
126660 Par ch=1 c=64 v=0
126720 Par ch=1 c=64 v=127
127140 Par ch=1 c=64 v=0
127200 Par ch=1 c=64 v=127
127620 Par ch=1 c=64 v=0
127680 Par ch=1 c=64 v=127
128100 Par ch=1 c=64 v=0
128160 Par ch=1 c=64 v=127
128580 Par ch=1 c=64 v=0
128640 Par ch=1 c=64 v=127
129060 Par ch=1 c=64 v=0
129600 Par ch=1 c=64 v=127
130020 Par ch=1 c=64 v=0
130080 Par ch=1 c=64 v=127
130500 Par ch=1 c=64 v=0
130560 Par ch=1 c=64 v=127
130980 Par ch=1 c=64 v=0
131040 Par ch=1 c=64 v=127
131460 Par ch=1 c=64 v=0
131520 Par ch=1 c=64 v=127
131940 Par ch=1 c=64 v=0
132000 Par ch=1 c=64 v=127
132420 Par ch=1 c=64 v=0
132480 Par ch=1 c=64 v=127
133380 Par ch=1 c=64 v=0
133440 Par ch=1 c=64 v=127
134340 Par ch=1 c=64 v=0
134400 Par ch=1 c=64 v=127
135300 Par ch=1 c=64 v=0
135360 Par ch=1 c=64 v=127
136260 Par ch=1 c=64 v=0
136320 Par ch=1 c=64 v=127
137220 Par ch=1 c=64 v=0
137280 Par ch=1 c=64 v=127
138180 Par ch=1 c=64 v=0
138240 Par ch=1 c=64 v=127
139140 Par ch=1 c=64 v=0
139200 Par ch=1 c=64 v=127
140100 Par ch=1 c=64 v=0
140160 Par ch=1 c=64 v=127
141060 Par ch=1 c=64 v=0
141120 Par ch=1 c=64 v=127
142020 Par ch=1 c=64 v=0
142080 Par ch=1 c=64 v=127
142980 Par ch=1 c=64 v=0
143040 Par ch=1 c=64 v=127
143940 Par ch=1 c=64 v=0
144000 Par ch=1 c=64 v=127
144900 Par ch=1 c=64 v=0
144960 Par ch=1 c=64 v=127
145860 Par ch=1 c=64 v=0
145920 Par ch=1 c=64 v=127
146820 Par ch=1 c=64 v=0
146880 Par ch=1 c=64 v=127
147780 Par ch=1 c=64 v=0
147840 Par ch=1 c=64 v=127
148740 Par ch=1 c=64 v=0
148800 Par ch=1 c=64 v=127
149700 Par ch=1 c=64 v=0
149760 Par ch=1 c=64 v=127
150660 Par ch=1 c=64 v=0
150720 Par ch=1 c=64 v=127
151620 Par ch=1 c=64 v=0
151680 Par ch=1 c=64 v=127
152580 Par ch=1 c=64 v=0
152640 Par ch=1 c=64 v=127
153540 Par ch=1 c=64 v=0
153600 Par ch=1 c=64 v=127
154500 Par ch=1 c=64 v=0
154560 Par ch=1 c=64 v=127
155460 Par ch=1 c=64 v=0
155520 Par ch=1 c=64 v=127
156420 Par ch=1 c=64 v=0
156480 Par ch=1 c=64 v=127
157380 Par ch=1 c=64 v=0
157440 Par ch=1 c=64 v=127
158340 Par ch=1 c=64 v=0
158400 Par ch=1 c=64 v=127
159300 Par ch=1 c=64 v=0
159360 Par ch=1 c=64 v=127
160260 Par ch=1 c=64 v=0
160320 Par ch=1 c=64 v=127
161220 Par ch=1 c=64 v=0
161280 Par ch=1 c=64 v=127
162180 Par ch=1 c=64 v=0
162240 Par ch=1 c=64 v=127
163140 Par ch=1 c=64 v=0
163200 Par ch=1 c=64 v=127
164100 Par ch=1 c=64 v=0
164160 Par ch=1 c=64 v=127
165060 Par ch=1 c=64 v=0
165120 Par ch=1 c=64 v=127
166020 Par ch=1 c=64 v=0
166080 Par ch=1 c=64 v=127
166980 Par ch=1 c=64 v=0
167040 Par ch=1 c=64 v=127
167940 Par ch=1 c=64 v=0
168000 Par ch=1 c=64 v=127
168900 Par ch=1 c=64 v=0
168960 Par ch=1 c=64 v=127
169860 Par ch=1 c=64 v=0
169920 Par ch=1 c=64 v=127
170820 Par ch=1 c=64 v=0
170880 Par ch=1 c=64 v=127
171780 Par ch=1 c=64 v=0
171840 Par ch=1 c=64 v=127
172740 Par ch=1 c=64 v=0
172800 Par ch=1 c=64 v=127
173700 Par ch=1 c=64 v=0
173760 Par ch=1 c=64 v=127
174660 Par ch=1 c=64 v=0
174720 Par ch=1 c=64 v=127
175620 Par ch=1 c=64 v=0
175680 Par ch=1 c=64 v=127
176580 Par ch=1 c=64 v=0
176640 Par ch=1 c=64 v=127
177540 Par ch=1 c=64 v=0
177600 Par ch=1 c=64 v=127
178500 Par ch=1 c=64 v=0
178560 Par ch=1 c=64 v=127
179460 Par ch=1 c=64 v=0
179520 Par ch=1 c=64 v=127
180420 Par ch=1 c=64 v=0
180480 Par ch=1 c=64 v=127
181380 Par ch=1 c=64 v=0
181440 Par ch=1 c=64 v=127
182340 Par ch=1 c=64 v=0
182400 Par ch=1 c=64 v=127
183300 Par ch=1 c=64 v=0
183360 Par ch=1 c=64 v=127
184260 Par ch=1 c=64 v=0
184320 Par ch=1 c=64 v=127
185220 Par ch=1 c=64 v=0
185280 Par ch=1 c=64 v=127
186180 Par ch=1 c=64 v=0
186240 Par ch=1 c=64 v=127
187140 Par ch=1 c=64 v=0
187200 Par ch=1 c=64 v=127
188100 Par ch=1 c=64 v=0
188160 Par ch=1 c=64 v=127
189060 Par ch=1 c=64 v=0
189120 Par ch=1 c=64 v=127
190020 Par ch=1 c=64 v=0
190080 Par ch=1 c=64 v=127
190980 Par ch=1 c=64 v=0
191040 Par ch=1 c=64 v=127
191940 Par ch=1 c=64 v=0
192000 Par ch=1 c=64 v=127
192900 Par ch=1 c=64 v=0
192960 Par ch=1 c=64 v=127
193860 Par ch=1 c=64 v=0
193920 Par ch=1 c=64 v=127
194820 Par ch=1 c=64 v=0
194880 Par ch=1 c=64 v=127
195780 Par ch=1 c=64 v=0
195840 Par ch=1 c=64 v=127
196740 Par ch=1 c=64 v=0
196800 Par ch=1 c=64 v=127
197700 Par ch=1 c=64 v=0
197760 Par ch=1 c=64 v=127
198660 Par ch=1 c=64 v=0
204480 Par ch=1 c=64 v=127
205380 Par ch=1 c=64 v=0
205440 Par ch=1 c=64 v=127
206340 Par ch=1 c=64 v=0
206400 Par ch=1 c=64 v=127
207300 Par ch=1 c=64 v=0
207360 Par ch=1 c=64 v=127
208260 Par ch=1 c=64 v=0
208320 Par ch=1 c=64 v=127
209220 Par ch=1 c=64 v=0
209280 Par ch=1 c=64 v=127
210180 Par ch=1 c=64 v=0
210240 Par ch=1 c=64 v=127
211140 Par ch=1 c=64 v=0
211200 Par ch=1 c=64 v=127
212100 Par ch=1 c=64 v=0
212160 Par ch=1 c=64 v=127
213060 Par ch=1 c=64 v=0
213120 Par ch=1 c=64 v=127
214020 Par ch=1 c=64 v=0
214080 Par ch=1 c=64 v=127
214980 Par ch=1 c=64 v=0
215040 Par ch=1 c=64 v=127
215940 Par ch=1 c=64 v=0
216000 Par ch=1 c=64 v=127
216900 Par ch=1 c=64 v=0
216960 Par ch=1 c=64 v=127
217860 Par ch=1 c=64 v=0
217920 Par ch=1 c=64 v=127
218820 Par ch=1 c=64 v=0
218880 Par ch=1 c=64 v=127
219780 Par ch=1 c=64 v=0
219840 Par ch=1 c=64 v=127
220740 Par ch=1 c=64 v=0
220800 Par ch=1 c=64 v=127
221700 Par ch=1 c=64 v=0
221760 Par ch=1 c=64 v=127
222660 Par ch=1 c=64 v=0
222720 Par ch=1 c=64 v=127
223620 Par ch=1 c=64 v=0
223680 Par ch=1 c=64 v=127
224580 Par ch=1 c=64 v=0
224640 Par ch=1 c=64 v=127
225540 Par ch=1 c=64 v=0
225600 Par ch=1 c=64 v=127
226500 Par ch=1 c=64 v=0
226560 Par ch=1 c=64 v=127
227460 Par ch=1 c=64 v=0
227520 Par ch=1 c=64 v=127
228420 Par ch=1 c=64 v=0
228480 Par ch=1 c=64 v=127
229380 Par ch=1 c=64 v=0
229440 Par ch=1 c=64 v=127
230340 Par ch=1 c=64 v=0
230400 Par ch=1 c=64 v=127
231300 Par ch=1 c=64 v=0
231360 Par ch=1 c=64 v=127
232260 Par ch=1 c=64 v=0
232320 Par ch=1 c=64 v=127
233220 Par ch=1 c=64 v=0
233280 Par ch=1 c=64 v=127
234180 Par ch=1 c=64 v=0
234240 Par ch=1 c=64 v=127
235140 Par ch=1 c=64 v=0
235200 Par ch=1 c=64 v=127
236100 Par ch=1 c=64 v=0
236160 Par ch=1 c=64 v=127
237060 Par ch=1 c=64 v=0
237120 Par ch=1 c=64 v=127
238020 Par ch=1 c=64 v=0
238080 Par ch=1 c=64 v=127
238980 Par ch=1 c=64 v=0
239040 Par ch=1 c=64 v=127
239460 Par ch=1 c=64 v=0
239520 Par ch=1 c=64 v=127
239940 Par ch=1 c=64 v=0
240000 Par ch=1 c=64 v=127
240420 Par ch=1 c=64 v=0
240480 Par ch=1 c=64 v=127
240900 Par ch=1 c=64 v=0
240960 Par ch=1 c=64 v=127
241380 Par ch=1 c=64 v=0
241440 Par ch=1 c=64 v=127
241860 Par ch=1 c=64 v=0
241920 Par ch=1 c=64 v=127
242340 Par ch=1 c=64 v=0
242400 Par ch=1 c=64 v=127
242820 Par ch=1 c=64 v=0
242880 Par ch=1 c=64 v=127
243300 Par ch=1 c=64 v=0
243360 Par ch=1 c=64 v=127
243780 Par ch=1 c=64 v=0
243840 Par ch=1 c=64 v=127
244260 Par ch=1 c=64 v=0
244320 Par ch=1 c=64 v=127
244740 Par ch=1 c=64 v=0
244800 Par ch=1 c=64 v=127
247620 Par ch=1 c=64 v=0
247680 Par ch=1 c=64 v=127
253920 Par ch=1 c=64 v=0
253920 Meta TrkEnd
TrkEnd
MTrk
0 SeqSpec 43 00 01 00
0 Meta TrkName "Debussy, Claude"
0 Meta 0x21 00
0 Meta TrkEnd
TrkEnd
MTrk
0 SeqSpec 43 00 01 00
0 Meta TrkName "Prelude Book 1 No. 10 La Cathedrale engloutie"
0 Meta 0x21 00
0 Meta TrkEnd
TrkEnd
MTrk
0 SeqSpec 43 00 01 00
0 Meta TrkName "Jeruen E. Dery jawjaw@hotmail.com"
0 Meta 0x21 00
0 Meta TrkEnd
TrkEnd
