MFile 1 10 480
MTrk
0 TimeSig 4/4 24 8
0 KeySig -1 major
0 Tempo 1363636
6240 Tempo 1500000
6720 Tempo 1666667
7200 Tempo 1875000
7680 Tempo 1363636
30720 Tempo 1111111
47520 Tempo 1875000
48000 Tempo 1363636
54240 Tempo 1500000
54720 Tempo 1666667
55200 Tempo 1875000
55680 Tempo 2142857
59520 Tempo 3000000
59520 Meta TrkEnd
TrkEnd
MTrk
0 SeqSpec 43 00 01 00
0 Meta TrkName "Right Treble"
0 Meta 0x21 00
480 On ch=1 n=d5 v=40
480 On ch=1 n=f5 v=40
480 On ch=1 n=a5 v=40
480 On ch=1 n=d6 v=40
960 On ch=1 n=d6 v=0
960 On ch=1 n=a5 v=0
960 On ch=1 n=f5 v=0
960 On ch=1 n=d5 v=0
960 On ch=1 n=a4 v=40
960 On ch=1 n=c5 v=40
960 On ch=1 n=e5 v=40
960 On ch=1 n=a5 v=40
1440 On ch=1 n=a5 v=0
1440 On ch=1 n=e5 v=0
1440 On ch=1 n=c5 v=0
1440 On ch=1 n=a4 v=0
1440 On ch=1 n=c5 v=40
1440 On ch=1 n=e5 v=40
1440 On ch=1 n=g5 v=40
1440 On ch=1 n=c6 v=40
1920 On ch=1 n=c6 v=0
1920 On ch=1 n=g5 v=0
1920 On ch=1 n=e5 v=0
1920 On ch=1 n=c5 v=0
1920 On ch=1 n=e5 v=40
1920 On ch=1 n=g5 v=40
1920 On ch=1 n=b5 v=40
1920 On ch=1 n=e6 v=40
2400 On ch=1 n=e6 v=0
2400 On ch=1 n=b5 v=0
2400 On ch=1 n=g5 v=0
2400 On ch=1 n=e5 v=0
2400 On ch=1 n=d5 v=40
2400 On ch=1 n=f5 v=40
2400 On ch=1 n=a5 v=40
2400 On ch=1 n=d6 v=40
2880 On ch=1 n=d6 v=0
2880 On ch=1 n=a5 v=0
2880 On ch=1 n=f5 v=0
2880 On ch=1 n=d5 v=0
2880 On ch=1 n=g5 v=40
2880 On ch=1 n=a#5 v=40
2880 On ch=1 n=d6 v=40
2880 On ch=1 n=g6 v=40
3360 On ch=1 n=g6 v=0
3360 On ch=1 n=d6 v=0
3360 On ch=1 n=a#5 v=0
3360 On ch=1 n=g5 v=0
3360 On ch=1 n=c7 v=40
3360 On ch=1 n=g6 v=40
3360 On ch=1 n=e6 v=40
3360 On ch=1 n=c6 v=40
3840 On ch=1 n=c6 v=0
3840 On ch=1 n=e6 v=0
3840 On ch=1 n=g6 v=0
3840 On ch=1 n=c7 v=0
3840 On ch=1 n=a5 v=40
3840 On ch=1 n=c6 v=40
3840 On ch=1 n=e6 v=40
3840 On ch=1 n=a6 v=40
4320 On ch=1 n=a6 v=0
4320 On ch=1 n=e6 v=0
4320 On ch=1 n=c6 v=0
4320 On ch=1 n=a5 v=0
4320 On ch=1 n=d7 v=60
4320 On ch=1 n=a6 v=60
4320 On ch=1 n=f6 v=60
4320 On ch=1 n=d6 v=60
4800 On ch=1 n=d6 v=0
4800 On ch=1 n=f6 v=0
4800 On ch=1 n=a6 v=0
4800 On ch=1 n=d7 v=0
4800 On ch=1 n=a5 v=60
4800 On ch=1 n=c6 v=60
4800 On ch=1 n=e6 v=60
4800 On ch=1 n=a6 v=60
5280 On ch=1 n=a6 v=0
5280 On ch=1 n=e6 v=0
5280 On ch=1 n=c6 v=0
5280 On ch=1 n=a5 v=0
5280 On ch=1 n=g6 v=65
5280 On ch=1 n=d6 v=65
5280 On ch=1 n=a#5 v=65
5280 On ch=1 n=g5 v=65
5760 On ch=1 n=g5 v=0
5760 On ch=1 n=a#5 v=0
5760 On ch=1 n=d6 v=0
5760 On ch=1 n=g6 v=0
5760 On ch=1 n=d5 v=65
5760 On ch=1 n=f5 v=65
5760 On ch=1 n=a5 v=65
5760 On ch=1 n=d6 v=65
6240 On ch=1 n=d6 v=0
6240 On ch=1 n=a5 v=0
6240 On ch=1 n=f5 v=0
6240 On ch=1 n=d5 v=0
6240 On ch=1 n=d#5 v=50
6240 On ch=1 n=g5 v=50
6240 On ch=1 n=a#5 v=50
6240 On ch=1 n=d#6 v=50
6720 On ch=1 n=d#6 v=0
6720 On ch=1 n=a#5 v=0
6720 On ch=1 n=g5 v=0
6720 On ch=1 n=d#5 v=0
6720 On ch=1 n=g#4 v=50
6720 On ch=1 n=c5 v=50
6720 On ch=1 n=d#5 v=50
6720 On ch=1 n=g#5 v=50
7200 On ch=1 n=g#5 v=0
7200 On ch=1 n=d#5 v=0
7200 On ch=1 n=c5 v=0
7200 On ch=1 n=g#4 v=0
7200 On ch=1 n=a#5 v=50
7200 On ch=1 n=f#5 v=50
7200 On ch=1 n=c#5 v=50
7200 On ch=1 n=a#4 v=50
7680 On ch=1 n=a#4 v=0
7680 On ch=1 n=c#5 v=0
7680 On ch=1 n=f#5 v=0
7680 On ch=1 n=a#5 v=0
7680 On ch=1 n=d6 v=40
7680 On ch=1 n=a5 v=40
7680 On ch=1 n=f5 v=40
7680 On ch=1 n=d5 v=40
9600 On ch=1 n=d5 v=0
9600 On ch=1 n=f5 v=0
9600 On ch=1 n=a5 v=0
9600 On ch=1 n=d6 v=0
12000 On ch=1 n=c#5 v=60
12640 On ch=1 n=c#5 v=0
12640 On ch=1 n=c#5 v=65
12720 On ch=1 n=c#5 v=0
12800 On ch=1 n=c#5 v=70
12880 On ch=1 n=c#5 v=0
12960 On ch=1 n=c#5 v=75
13040 On ch=1 n=c#5 v=0
13120 On ch=1 n=c#5 v=80
13200 On ch=1 n=c#5 v=0
13280 On ch=1 n=d5 v=85
13360 On ch=1 n=d5 v=0
13440 On ch=1 n=d#5 v=70
13560 On ch=1 n=d#5 v=0
13620 On ch=1 n=f5 v=70
13680 On ch=1 n=f5 v=0
13680 On ch=1 n=e5 v=70
13920 On ch=1 n=e5 v=0
13920 On ch=1 n=d#5 v=60
14880 On ch=1 n=d#5 v=0
14880 On ch=1 n=d5 v=60
15360 On ch=1 n=d5 v=0
15840 On ch=1 n=c#5 v=60
15840 On ch=1 n=c#6 v=60
16480 On ch=1 n=c#6 v=0
16480 On ch=1 n=c#5 v=0
16480 On ch=1 n=c#5 v=60
16480 On ch=1 n=c#6 v=60
16560 On ch=1 n=c#6 v=0
16560 On ch=1 n=c#5 v=0
16640 On ch=1 n=c#5 v=60
16640 On ch=1 n=c#6 v=60
16720 On ch=1 n=c#6 v=0
16720 On ch=1 n=c#5 v=0
16800 On ch=1 n=c#5 v=60
16800 On ch=1 n=c#6 v=60
16880 On ch=1 n=c#6 v=0
16880 On ch=1 n=c#5 v=0
16960 On ch=1 n=c#5 v=60
16960 On ch=1 n=c#6 v=60
17040 On ch=1 n=c#6 v=0
17040 On ch=1 n=c#5 v=0
17120 On ch=1 n=d5 v=60
17120 On ch=1 n=d6 v=60
17200 On ch=1 n=d6 v=0
17200 On ch=1 n=d5 v=0
17280 On ch=1 n=d#5 v=50
17280 On ch=1 n=d#6 v=50
17400 On ch=1 n=d#6 v=0
17400 On ch=1 n=d#5 v=0
17460 On ch=1 n=g#5 v=50
17460 On ch=1 n=g#6 v=50
17520 On ch=1 n=g#6 v=0
17520 On ch=1 n=g#5 v=0
17520 On ch=1 n=g5 v=50
17520 On ch=1 n=g6 v=50
17760 On ch=1 n=g6 v=0
17760 On ch=1 n=g5 v=0
17760 On ch=1 n=f#6 v=60
17760 On ch=1 n=f#5 v=60
18720 On ch=1 n=f#5 v=0
18720 On ch=1 n=f#6 v=0
18720 On ch=1 n=a6 v=60
18720 On ch=1 n=a5 v=60
19200 On ch=1 n=a5 v=0
19200 On ch=1 n=a6 v=0
19200 On ch=1 n=e7 v=60
19200 On ch=1 n=d6 v=60
19440 On ch=1 n=a6 v=60
19800 On ch=1 n=a6 v=0
19800 On ch=1 n=a#6 v=60
19860 On ch=1 n=a#6 v=0
19920 On ch=1 n=a#6 v=60
20040 On ch=1 n=a#6 v=0
20040 On ch=1 n=a6 v=60
20400 On ch=1 n=a6 v=0
20400 On ch=1 n=g6 v=60
20640 On ch=1 n=g6 v=0
20640 On ch=1 n=f6 v=60
20800 On ch=1 n=f6 v=0
20800 On ch=1 n=e6 v=60
20960 On ch=1 n=e6 v=0
20960 On ch=1 n=d#6 v=60
21120 On ch=1 n=d#6 v=0
21120 On ch=1 n=d6 v=0
21120 On ch=1 n=e7 v=0
21120 On ch=1 n=d6 v=60
21120 On ch=1 n=e7 v=60
21120 On ch=1 n=b6 v=60
22320 On ch=1 n=d6 v=0
22320 On ch=1 n=e6 v=65
22560 On ch=1 n=e6 v=0
22560 On ch=1 n=f6 v=70
22800 On ch=1 n=f6 v=0
22800 On ch=1 n=g6 v=75
23040 On ch=1 n=g6 v=0
23040 On ch=1 n=b6 v=0
23040 On ch=1 n=e7 v=0
23040 On ch=1 n=g5 v=60
23040 On ch=1 n=c#6 v=60
23280 On ch=1 n=a6 v=60
23640 On ch=1 n=a6 v=0
23640 On ch=1 n=a#6 v=60
23700 On ch=1 n=a#6 v=0
23760 On ch=1 n=a#6 v=60
23880 On ch=1 n=a#6 v=0
23880 On ch=1 n=a6 v=60
24240 On ch=1 n=a6 v=0
24240 On ch=1 n=g6 v=60
24480 On ch=1 n=g6 v=0
24480 On ch=1 n=f6 v=60
24640 On ch=1 n=f6 v=0
24640 On ch=1 n=e6 v=60
24800 On ch=1 n=e6 v=0
24800 On ch=1 n=d#6 v=60
24960 On ch=1 n=d#6 v=0
24960 On ch=1 n=c#6 v=0
24960 On ch=1 n=g5 v=0
24960 On ch=1 n=c5 v=60
24960 On ch=1 n=g5 v=60
24960 On ch=1 n=d6 v=60
25920 On ch=1 n=g5 v=0
25920 On ch=1 n=c5 v=0
25920 On ch=1 n=d#5 v=60
25920 On ch=1 n=g5 v=60
26280 On ch=1 n=d6 v=0
26280 On ch=1 n=a6 v=60
26400 On ch=1 n=a6 v=0
26400 On ch=1 n=f6 v=60
26560 On ch=1 n=f6 v=0
26560 On ch=1 n=d6 v=60
26720 On ch=1 n=d6 v=0
26720 On ch=1 n=a5 v=60
26880 On ch=1 n=a5 v=0
26880 On ch=1 n=g5 v=0
26880 On ch=1 n=d#5 v=0
26880 On ch=1 n=c5 v=60
26880 On ch=1 n=g5 v=60
26880 On ch=1 n=d6 v=60
27840 On ch=1 n=g5 v=0
27840 On ch=1 n=c5 v=0
27840 On ch=1 n=d#5 v=60
27840 On ch=1 n=g5 v=60
28200 On ch=1 n=d6 v=0
28200 On ch=1 n=a6 v=60
28320 On ch=1 n=a6 v=0
28320 On ch=1 n=f6 v=60
28480 On ch=1 n=f6 v=0
28480 On ch=1 n=d6 v=60
28640 On ch=1 n=d6 v=0
28640 On ch=1 n=a5 v=60
28740 On ch=1 n=d#7 v=60
28800 On ch=1 n=d#7 v=0
28800 On ch=1 n=a5 v=0
28800 On ch=1 n=d7 v=60
29280 On ch=1 n=g5 v=0
29280 On ch=1 n=d#5 v=0
29700 On ch=1 n=d#7 v=60
29760 On ch=1 n=d#7 v=0
29760 On ch=1 n=d7 v=0
29760 On ch=1 n=d7 v=60
30660 On ch=1 n=a7 v=40
30660 On ch=1 n=d#7 v=40
30720 On ch=1 n=d#7 v=0
30720 On ch=1 n=a7 v=0
30720 On ch=1 n=d7 v=0
30720 On ch=1 n=g7 v=40
30720 On ch=1 n=d7 v=40
31620 On ch=1 n=a6 v=40
31620 On ch=1 n=d#6 v=40
31680 On ch=1 n=d#6 v=0
31680 On ch=1 n=a6 v=0
31680 On ch=1 n=d7 v=0
31680 On ch=1 n=g7 v=0
31680 On ch=1 n=d6 v=40
31680 On ch=1 n=g6 v=40
32640 On ch=1 n=g6 v=0
32640 On ch=1 n=d6 v=0
33120 On ch=1 n=a5 v=40
33760 On ch=1 n=a5 v=0
33760 On ch=1 n=a5 v=40
33920 On ch=1 n=a5 v=0
33920 On ch=1 n=a6 v=40
34080 On ch=1 n=a6 v=0
34080 On ch=1 n=a6 v=40
34160 On ch=1 n=a6 v=0
34240 On ch=1 n=a6 v=40
34400 On ch=1 n=a6 v=0
34400 On ch=1 n=a7 v=40
34500 On ch=1 n=a7 v=40
34500 On ch=1 n=d#7 v=40
34560 On ch=1 n=d#7 v=0
34560 On ch=1 n=a7 v=0
34560 On ch=1 n=a7 v=0
34560 On ch=1 n=g7 v=40
34560 On ch=1 n=d7 v=40
35460 On ch=1 n=a6 v=40
35460 On ch=1 n=d#6 v=40
35520 On ch=1 n=d#6 v=0
35520 On ch=1 n=a6 v=0
35520 On ch=1 n=d7 v=0
35520 On ch=1 n=g7 v=0
35520 On ch=1 n=d6 v=40
35520 On ch=1 n=g6 v=40
36480 On ch=1 n=g6 v=0
36480 On ch=1 n=d6 v=0
36960 On ch=1 n=g5 v=40
36960 On ch=1 n=g6 v=40
36960 On ch=1 n=c#6 v=40
37600 On ch=1 n=c#6 v=0
37600 On ch=1 n=c#6 v=50
37680 On ch=1 n=c#6 v=0
37760 On ch=1 n=c#6 v=55
37840 On ch=1 n=c#6 v=0
37920 On ch=1 n=c#6 v=60
38000 On ch=1 n=c#6 v=0
38080 On ch=1 n=c#6 v=60
38160 On ch=1 n=c#6 v=0
38240 On ch=1 n=d6 v=60
38320 On ch=1 n=d6 v=0
38400 On ch=1 n=d#6 v=70
38520 On ch=1 n=d#6 v=0
38580 On ch=1 n=f6 v=60
38640 On ch=1 n=f6 v=0
38640 On ch=1 n=e6 v=60
38880 On ch=1 n=e6 v=0
38880 On ch=1 n=d#6 v=50
39840 On ch=1 n=d#6 v=0
39840 On ch=1 n=d6 v=50
40320 On ch=1 n=d6 v=0
40320 On ch=1 n=g6 v=0
40320 On ch=1 n=g5 v=0
40800 On ch=1 n=g5 v=40
40800 On ch=1 n=g6 v=40
40800 On ch=1 n=c#6 v=40
41440 On ch=1 n=c#6 v=0
41440 On ch=1 n=c#6 v=40
41520 On ch=1 n=c#6 v=0
41600 On ch=1 n=c#6 v=40
41680 On ch=1 n=c#6 v=0
41760 On ch=1 n=c#6 v=40
41840 On ch=1 n=c#6 v=0
41920 On ch=1 n=c#6 v=40
42000 On ch=1 n=c#6 v=0
42080 On ch=1 n=d6 v=40
42160 On ch=1 n=d6 v=0
42240 On ch=1 n=d#6 v=40
42360 On ch=1 n=d#6 v=0
42420 On ch=1 n=f#6 v=40
42480 On ch=1 n=f#6 v=0
42480 On ch=1 n=f6 v=40
42720 On ch=1 n=f6 v=0
42720 On ch=1 n=e6 v=50
43680 On ch=1 n=e6 v=0
43680 On ch=1 n=g6 v=50
44160 On ch=1 n=g6 v=0
44160 On ch=1 n=g6 v=0
44160 On ch=1 n=g5 v=0
44160 On ch=1 n=g#6 v=60
44220 On ch=1 n=g#6 v=0
44220 On ch=1 n=g6 v=60
44280 On ch=1 n=g6 v=0
44280 On ch=1 n=f#6 v=60
44340 On ch=1 n=f#6 v=0
45540 On ch=1 n=c7 v=40
45600 On ch=1 n=c8 v=40
45720 On ch=1 n=c8 v=0
45720 On ch=1 n=c7 v=0
46080 On ch=1 n=g#6 v=60
46140 On ch=1 n=g#6 v=0
46140 On ch=1 n=g6 v=60
46200 On ch=1 n=g6 v=0
46200 On ch=1 n=f#6 v=60
46260 On ch=1 n=f#6 v=0
47520 On ch=1 n=d#8 v=40
47520 On ch=1 n=d#7 v=40
47640 On ch=1 n=d#7 v=0
47640 On ch=1 n=d#8 v=0
48480 On ch=1 n=d7 v=40
48480 On ch=1 n=a6 v=40
48480 On ch=1 n=f6 v=40
48480 On ch=1 n=d6 v=40
48960 On ch=1 n=d6 v=0
48960 On ch=1 n=f6 v=0
48960 On ch=1 n=a6 v=0
48960 On ch=1 n=d7 v=0
48960 On ch=1 n=a6 v=40
48960 On ch=1 n=e6 v=40
48960 On ch=1 n=c6 v=40
48960 On ch=1 n=a5 v=40
49440 On ch=1 n=a5 v=0
49440 On ch=1 n=c6 v=0
49440 On ch=1 n=e6 v=0
49440 On ch=1 n=a6 v=0
49440 On ch=1 n=c7 v=40
49440 On ch=1 n=g6 v=40
49440 On ch=1 n=e6 v=40
49440 On ch=1 n=c6 v=40
49920 On ch=1 n=c6 v=0
49920 On ch=1 n=e6 v=0
49920 On ch=1 n=g6 v=0
49920 On ch=1 n=c7 v=0
49920 On ch=1 n=e7 v=40
49920 On ch=1 n=b6 v=40
49920 On ch=1 n=g6 v=40
49920 On ch=1 n=e6 v=40
50400 On ch=1 n=e6 v=0
50400 On ch=1 n=g6 v=0
50400 On ch=1 n=b6 v=0
50400 On ch=1 n=e7 v=0
50400 On ch=1 n=d7 v=45
50400 On ch=1 n=a6 v=45
50400 On ch=1 n=f6 v=45
50400 On ch=1 n=d6 v=45
50880 On ch=1 n=d6 v=0
50880 On ch=1 n=f6 v=0
50880 On ch=1 n=a6 v=0
50880 On ch=1 n=d7 v=0
50880 On ch=1 n=g7 v=50
50880 On ch=1 n=d7 v=50
50880 On ch=1 n=a#6 v=50
50880 On ch=1 n=g6 v=50
51360 On ch=1 n=g6 v=0
51360 On ch=1 n=a#6 v=0
51360 On ch=1 n=d7 v=0
51360 On ch=1 n=g7 v=0
51360 On ch=1 n=c8 v=55
51360 On ch=1 n=g7 v=55
51360 On ch=1 n=e7 v=55
51360 On ch=1 n=c7 v=55
51840 On ch=1 n=c7 v=0
51840 On ch=1 n=e7 v=0
51840 On ch=1 n=g7 v=0
51840 On ch=1 n=c8 v=0
51840 On ch=1 n=a7 v=60
51840 On ch=1 n=e7 v=60
51840 On ch=1 n=c7 v=60
51840 On ch=1 n=a6 v=60
52320 On ch=1 n=a6 v=0
52320 On ch=1 n=c7 v=0
52320 On ch=1 n=e7 v=0
52320 On ch=1 n=a7 v=0
55920 On ch=1 n=a6 v=60
56280 On ch=1 n=a6 v=0
56280 On ch=1 n=a#6 v=60
56400 On ch=1 n=a#6 v=0
56400 On ch=1 n=a#6 v=60
56520 On ch=1 n=a#6 v=0
56520 On ch=1 n=a6 v=60
56880 On ch=1 n=a6 v=0
56880 On ch=1 n=g6 v=60
57120 On ch=1 n=g6 v=0
57120 On ch=1 n=f6 v=60
57280 On ch=1 n=f6 v=0
57280 On ch=1 n=e6 v=60
57440 On ch=1 n=e6 v=0
57440 On ch=1 n=d#6 v=60
57600 On ch=1 n=d#6 v=0
57600 On ch=1 n=d6 v=60
58800 On ch=1 n=d6 v=0
58800 On ch=1 n=e6 v=60
59040 On ch=1 n=e6 v=0
59040 On ch=1 n=f6 v=60
59280 On ch=1 n=f6 v=0
59280 On ch=1 n=g6 v=60
59520 On ch=1 n=g6 v=0
59760 On ch=1 n=a6 v=60
60120 On ch=1 n=a6 v=0
60120 On ch=1 n=a#6 v=60
60240 On ch=1 n=a#6 v=0
60240 On ch=1 n=a#6 v=60
60360 On ch=1 n=a#6 v=0
60360 On ch=1 n=a6 v=60
60720 On ch=1 n=a6 v=0
60720 On ch=1 n=g6 v=60
60840 On ch=1 n=g6 v=0
60960 On ch=1 n=f6 v=60
61080 On ch=1 n=f6 v=0
61200 On ch=1 n=e6 v=60
61320 On ch=1 n=e6 v=0
61320 Meta TrkEnd
TrkEnd
MTrk
0 SeqSpec 43 00 01 00
0 Meta TrkName "Middle Tre"
