MFile 0 1 480
MTrk
0 TimeSig 4/4 24 8
0 Tempo 428571
0 Par ch=1 c=0 v=0
0 Par ch=1 c=32 v=0
0 PrCh ch=1 p=0
0 Par ch=1 c=0 v=0
0 Par ch=1 c=32 v=0
0 PrCh ch=1 p=0
260 Par ch=1 c=64 v=127
260 Par ch=1 c=64 v=127
264 Par ch=1 c=64 v=127
1920 Tempo 465116
1920 Par ch=1 c=7 v=64
1920 On ch=1 n=d#4 v=127
1920 On ch=1 n=d#3 v=127
1960 Tempo 454545
1960 Par ch=1 c=7 v=65
2000 Par ch=1 c=7 v=66
2040 Tempo 451128
2040 Par ch=1 c=7 v=68
2080 On ch=1 n=d#3 v=0
2080 On ch=1 n=d#4 v=0
2080 Tempo 447761
2080 Par ch=1 c=7 v=69
2080 On ch=1 n=a#4 v=82
2080 On ch=1 n=a#3 v=82
2120 Par ch=1 c=7 v=70
2160 Par ch=1 c=7 v=72
2200 Par ch=1 c=7 v=73
2240 On ch=1 n=a#3 v=0
2240 On ch=1 n=a#4 v=0
2240 Par ch=1 c=7 v=74
2240 On ch=1 n=f#4 v=82
2240 On ch=1 n=f#3 v=82
2280 Par ch=1 c=7 v=76
2320 Par ch=1 c=7 v=77
2360 Par ch=1 c=7 v=78
2368 Par ch=1 c=64 v=0
2372 Par ch=1 c=64 v=0
2372 Par ch=1 c=64 v=0
2400 On ch=1 n=f#3 v=0
2400 On ch=1 n=f#4 v=0
2400 Par ch=1 c=7 v=80
2400 On ch=1 n=b4 v=127
2400 On ch=1 n=b3 v=127
2440 Par ch=1 c=7 v=81
2480 Par ch=1 c=7 v=82
2496 Par ch=1 c=64 v=127
2496 Par ch=1 c=64 v=127
2496 Par ch=1 c=64 v=127
2520 Par ch=1 c=7 v=84
2560 On ch=1 n=b3 v=0
2560 On ch=1 n=b4 v=0
2560 Par ch=1 c=7 v=85
2560 On ch=1 n=d#4 v=82
2560 On ch=1 n=d#3 v=82
2600 Par ch=1 c=7 v=86
2640 Par ch=1 c=7 v=88
2680 Par ch=1 c=7 v=89
2720 On ch=1 n=d#3 v=0
2720 On ch=1 n=d#4 v=0
2720 Par ch=1 c=7 v=90
2720 On ch=1 n=b4 v=82
2720 On ch=1 n=b3 v=82
2760 Tempo 444444
2760 Par ch=1 c=7 v=92
2764 Par ch=1 c=64 v=0
2764 Par ch=1 c=64 v=0
2764 Par ch=1 c=64 v=0
2800 Tempo 441176
2800 Par ch=1 c=7 v=93
2840 Par ch=1 c=7 v=94
2880 On ch=1 n=b3 v=0
2880 On ch=1 n=b4 v=0
2880 Par ch=1 c=7 v=96
2880 On ch=1 n=d4 v=127
2880 On ch=1 n=d3 v=127
2920 Par ch=1 c=7 v=95
2936 Par ch=1 c=64 v=127
2936 Par ch=1 c=64 v=127
2940 Par ch=1 c=64 v=127
2960 Par ch=1 c=7 v=94
3000 Par ch=1 c=7 v=92
3040 On ch=1 n=d3 v=0
3040 On ch=1 n=d4 v=0
3040 Par ch=1 c=7 v=91
3040 On ch=1 n=b4 v=82
3040 On ch=1 n=b3 v=82
3080 Par ch=1 c=7 v=90
3120 Par ch=1 c=7 v=88
3160 Par ch=1 c=7 v=87
3200 On ch=1 n=b3 v=0
3200 On ch=1 n=b4 v=0
3200 Par ch=1 c=7 v=86
3200 On ch=1 n=f4 v=82
3200 On ch=1 n=f3 v=82
3240 Tempo 437956
3240 Par ch=1 c=7 v=84
3280 Par ch=1 c=7 v=83
3304 Par ch=1 c=64 v=0
3304 Par ch=1 c=64 v=0
3304 Par ch=1 c=64 v=0
3320 Par ch=1 c=7 v=82
3360 On ch=1 n=f3 v=0
3360 On ch=1 n=f4 v=0
3360 Par ch=1 c=7 v=80
3360 On ch=1 n=a#4 v=127
3360 On ch=1 n=a#3 v=127
3400 Par ch=1 c=64 v=127
3400 Par ch=1 c=64 v=127
3400 Par ch=1 c=64 v=127
3400 Par ch=1 c=7 v=79
3440 Par ch=1 c=7 v=78
3480 Par ch=1 c=7 v=76
3520 On ch=1 n=a#3 v=0
3520 On ch=1 n=a#4 v=0
3520 Par ch=1 c=7 v=75
3520 On ch=1 n=d4 v=82
3520 On ch=1 n=d3 v=82
3560 Par ch=1 c=7 v=74
3600 Par ch=1 c=7 v=72
3640 Par ch=1 c=7 v=71
3680 On ch=1 n=d3 v=0
3680 On ch=1 n=d4 v=0
3680 Tempo 434783
3680 Par ch=1 c=7 v=70
3680 On ch=1 n=a#4 v=82
3680 On ch=1 n=a#3 v=82
3720 Tempo 431655
3720 Par ch=1 c=7 v=68
3760 Tempo 428571
3760 Par ch=1 c=64 v=0
3760 Par ch=1 c=64 v=0
3760 Par ch=1 c=7 v=67
3764 Par ch=1 c=64 v=0
3800 Tempo 422535
3800 Par ch=1 c=7 v=66
3840 On ch=1 n=a#3 v=0
3840 On ch=1 n=a#4 v=0
3840 Par ch=1 c=7 v=64
3840 On ch=1 n=d#4 v=127
3840 On ch=1 n=d#3 v=127
3880 Par ch=1 c=64 v=127
3880 Par ch=1 c=64 v=127
3880 Par ch=1 c=64 v=127
3880 Par ch=1 c=7 v=65
3920 Par ch=1 c=7 v=66
3960 Par ch=1 c=7 v=68
4000 On ch=1 n=d#3 v=0
4000 On ch=1 n=d#4 v=0
4000 Par ch=1 c=7 v=69
4000 On ch=1 n=a#4 v=82
4000 On ch=1 n=a#3 v=82
4040 Par ch=1 c=7 v=70
4080 Par ch=1 c=7 v=72
4120 Par ch=1 c=7 v=73
4160 On ch=1 n=a#3 v=0
4160 On ch=1 n=a#4 v=0
4160 Par ch=1 c=7 v=74
4160 On ch=1 n=f#4 v=82
4160 On ch=1 n=f#3 v=82
4200 Par ch=1 c=7 v=76
4228 Par ch=1 c=64 v=0
4232 Par ch=1 c=64 v=0
4232 Par ch=1 c=64 v=0
4240 Tempo 425532
4240 Par ch=1 c=7 v=77
4280 Par ch=1 c=7 v=78
4320 On ch=1 n=f#3 v=0
4320 On ch=1 n=f#4 v=0
4320 Par ch=1 c=7 v=80
4320 On ch=1 n=b4 v=127
4320 On ch=1 n=b3 v=127
4352 Par ch=1 c=64 v=127
4352 Par ch=1 c=64 v=127
4352 Par ch=1 c=64 v=127
4360 Par ch=1 c=7 v=81
4400 Par ch=1 c=7 v=82
4440 Tempo 428571
4440 Par ch=1 c=7 v=84
4480 On ch=1 n=b3 v=0
4480 On ch=1 n=b4 v=0
4480 Par ch=1 c=7 v=85
4480 On ch=1 n=d#4 v=82
4480 On ch=1 n=d#3 v=82
4520 Tempo 431655
4520 Par ch=1 c=7 v=86
4560 Par ch=1 c=7 v=88
4600 Par ch=1 c=7 v=89
4640 On ch=1 n=d#3 v=0
4640 On ch=1 n=d#4 v=0
4640 Par ch=1 c=7 v=90
4640 On ch=1 n=b4 v=82
4640 On ch=1 n=b3 v=82
4664 Par ch=1 c=64 v=0
4664 Par ch=1 c=64 v=0
4668 Par ch=1 c=64 v=0
4680 Par ch=1 c=7 v=92
4720 Par ch=1 c=7 v=93
4760 Par ch=1 c=7 v=94
4800 On ch=1 n=b3 v=0
4800 On ch=1 n=b4 v=0
4800 Par ch=1 c=7 v=96
4800 On ch=1 n=d4 v=127
4800 On ch=1 n=d3 v=127
4824 Par ch=1 c=64 v=127
4824 Par ch=1 c=64 v=127
4824 Par ch=1 c=64 v=127
4840 Par ch=1 c=7 v=95
4880 Par ch=1 c=7 v=94
4920 Par ch=1 c=7 v=92
4960 On ch=1 n=d3 v=0
4960 On ch=1 n=d4 v=0
4960 Par ch=1 c=7 v=91
4960 On ch=1 n=b4 v=82
4960 On ch=1 n=b3 v=82
5000 Par ch=1 c=7 v=90
5040 Par ch=1 c=7 v=88
5080 Tempo 428571
5080 Par ch=1 c=7 v=87
5120 On ch=1 n=b3 v=0
5120 On ch=1 n=b4 v=0
5120 Par ch=1 c=7 v=86
5120 On ch=1 n=f4 v=82
5120 On ch=1 n=f3 v=82
5160 Par ch=1 c=7 v=84
5200 Par ch=1 c=7 v=83
5204 Par ch=1 c=64 v=0
5204 Par ch=1 c=64 v=0
5204 Par ch=1 c=64 v=0
5240 Par ch=1 c=7 v=82
5280 On ch=1 n=f3 v=0
5280 On ch=1 n=f4 v=0
5280 Par ch=1 c=7 v=80
5280 On ch=1 n=a#4 v=127
5280 On ch=1 n=a#3 v=127
5308 Par ch=1 c=64 v=127
5308 Par ch=1 c=64 v=127
5308 Par ch=1 c=64 v=127
5320 Par ch=1 c=7 v=79
5360 Tempo 425532
5360 Par ch=1 c=7 v=78
5400 Par ch=1 c=7 v=76
5440 On ch=1 n=a#3 v=0
5440 On ch=1 n=a#4 v=0
5440 Tempo 422535
5440 Par ch=1 c=7 v=75
5440 On ch=1 n=d4 v=82
5440 On ch=1 n=d3 v=82
5480 Par ch=1 c=7 v=74
5520 Par ch=1 c=7 v=72
5560 Par ch=1 c=7 v=71
5600 On ch=1 n=d3 v=0
5600 On ch=1 n=d4 v=0
5600 Par ch=1 c=7 v=70
5600 On ch=1 n=a#4 v=82
5600 On ch=1 n=a#3 v=82
5616 Par ch=1 c=64 v=0
5616 Par ch=1 c=64 v=0
5616 Par ch=1 c=64 v=0
5640 Par ch=1 c=7 v=68
5680 Par ch=1 c=7 v=67
5720 Par ch=1 c=7 v=66
5756 Par ch=1 c=64 v=127
5756 Par ch=1 c=64 v=127
5760 On ch=1 n=a#3 v=0
5760 On ch=1 n=a#4 v=0
5760 Tempo 419580
5760 Par ch=1 c=64 v=127
5760 Par ch=1 c=7 v=64
5760 On ch=1 n=d#4 v=127
5760 On ch=1 n=d#3 v=127
5840 Par ch=1 c=7 v=65
5880 Tempo 419580
5920 On ch=1 n=d#3 v=0
5920 On ch=1 n=d#4 v=0
5920 Par ch=1 c=7 v=66
5920 On ch=1 n=a#4 v=82
5920 On ch=1 n=a#3 v=82
6000 Tempo 416667
6000 Par ch=1 c=7 v=67
6080 On ch=1 n=a#3 v=0
6080 On ch=1 n=a#4 v=0
6080 Par ch=1 c=7 v=68
6080 On ch=1 n=f#4 v=82
6080 On ch=1 n=f#3 v=82
6160 Tempo 413793
6160 Par ch=1 c=7 v=69
6240 On ch=1 n=f#3 v=0
6240 On ch=1 n=f#4 v=0
6240 Par ch=1 c=7 v=70
6240 On ch=1 n=b4 v=127
6240 On ch=1 n=b3 v=127
6320 Par ch=1 c=7 v=71
6400 On ch=1 n=b3 v=0
6400 On ch=1 n=b4 v=0
6400 Par ch=1 c=7 v=72
6400 On ch=1 n=d#4 v=82
6400 On ch=1 n=d#3 v=82
6480 Par ch=1 c=7 v=73
6560 On ch=1 n=d#3 v=0
6560 On ch=1 n=d#4 v=0
6560 Par ch=1 c=7 v=74
6560 On ch=1 n=c5 v=82
6560 On ch=1 n=c4 v=82
6620 Par ch=1 c=64 v=0
6620 Par ch=1 c=64 v=0
6624 Par ch=1 c=64 v=0
6640 Par ch=1 c=7 v=75
6720 On ch=1 n=c4 v=0
6720 On ch=1 n=c5 v=0
6720 Par ch=1 c=7 v=76
6720 On ch=1 n=f4 v=127
6720 On ch=1 n=f3 v=127
6760 Par ch=1 c=64 v=127
6764 Par ch=1 c=64 v=127
6764 Par ch=1 c=64 v=127
6800 Par ch=1 c=7 v=77
6880 On ch=1 n=f3 v=0
6880 On ch=1 n=f4 v=0
6880 Par ch=1 c=7 v=78
6880 On ch=1 n=c5 v=82
6880 On ch=1 n=c4 v=82
6920 Tempo 416667
6960 Par ch=1 c=7 v=79
7000 Tempo 419580
7040 On ch=1 n=c4 v=0
7040 On ch=1 n=c5 v=0
7040 Par ch=1 c=7 v=80
7040 On ch=1 n=g#4 v=82
7040 On ch=1 n=g#3 v=82
7080 Tempo 422535
7080 Par ch=1 c=7 v=81
7160 Tempo 428571
7160 Par ch=1 c=7 v=82
7200 On ch=1 n=g#3 v=0
7200 On ch=1 n=g#4 v=0
7200 Tempo 434783
7200 On ch=1 n=d#5 v=127
7200 On ch=1 n=d#4 v=127
7240 Par ch=1 c=7 v=83
7320 Tempo 437956
7320 Par ch=1 c=7 v=84
7360 On ch=1 n=d#4 v=0
7360 On ch=1 n=d#5 v=0
7360 On ch=1 n=a4 v=82
7360 On ch=1 n=a3 v=82
7400 Tempo 441176
7400 Par ch=1 c=7 v=85
7440 Tempo 444444
7480 Tempo 447761
7480 Par ch=1 c=7 v=86
7520 On ch=1 n=a3 v=0
7520 On ch=1 n=a4 v=0
7520 On ch=1 n=c#5 v=82
7520 On ch=1 n=c#4 v=82
7560 Par ch=1 c=7 v=87
7604 Par ch=1 c=64 v=0
7608 Par ch=1 c=64 v=0
7608 Par ch=1 c=64 v=0
7640 Tempo 444444
7640 Par ch=1 c=7 v=88
7680 On ch=1 n=c#4 v=0
7680 On ch=1 n=c#5 v=0
7680 Tempo 441176
7680 On ch=1 n=f#4 v=127
7680 On ch=1 n=f#3 v=127
7720 Par ch=1 c=7 v=89
7732 Par ch=1 c=64 v=127
7732 Par ch=1 c=64 v=127
7732 Par ch=1 c=64 v=127
7800 Par ch=1 c=7 v=90
7840 On ch=1 n=f#3 v=0
7840 On ch=1 n=f#4 v=0
7840 On ch=1 n=c#5 v=82
7840 On ch=1 n=c#4 v=82
7880 Par ch=1 c=7 v=91
7960 Par ch=1 c=7 v=92
8000 On ch=1 n=c#4 v=0
8000 On ch=1 n=c#5 v=0
8000 On ch=1 n=a#4 v=82
8000 On ch=1 n=a#3 v=82
8040 Par ch=1 c=7 v=93
8120 Par ch=1 c=7 v=94
8160 On ch=1 n=a#3 v=0
8160 On ch=1 n=a#4 v=0
8160 On ch=1 n=d#5 v=127
8160 On ch=1 n=d#4 v=127
8200 Par ch=1 c=7 v=95
8280 Tempo 437956
8280 Par ch=1 c=7 v=96
8320 On ch=1 n=d#4 v=0
8320 On ch=1 n=d#5 v=0
8320 Tempo 434783
8320 Par ch=1 c=7 v=97
8320 On ch=1 n=f#4 v=82
8320 On ch=1 n=f#3 v=82
8360 Tempo 431655
8400 Par ch=1 c=7 v=98
8480 On ch=1 n=f#3 v=0
8480 On ch=1 n=f#4 v=0
8480 Tempo 413793
8480 Par ch=1 c=7 v=99
8480 On ch=1 n=e5 v=82
8480 On ch=1 n=e4 v=82
8512 Par ch=1 c=64 v=0
8512 Par ch=1 c=64 v=0
8512 Par ch=1 c=64 v=0
8520 Tempo 410959
8560 Tempo 408163
8560 Par ch=1 c=7 v=100
8640 On ch=1 n=e4 v=0
8640 On ch=1 n=e5 v=0
8640 Par ch=1 c=7 v=101
8640 On ch=1 n=a4 v=127
8640 On ch=1 n=a3 v=127
8656 Par ch=1 c=64 v=127
8656 Par ch=1 c=64 v=127
8656 Par ch=1 c=64 v=127
8720 Par ch=1 c=7 v=102
8800 On ch=1 n=a3 v=0
8800 On ch=1 n=a4 v=0
8800 Par ch=1 c=7 v=103
8800 On ch=1 n=e5 v=82
8800 On ch=1 n=e4 v=82
8880 Par ch=1 c=7 v=104
8960 On ch=1 n=e4 v=0
8960 On ch=1 n=e5 v=0
8960 Tempo 441176
8960 Par ch=1 c=7 v=105
8960 On ch=1 n=c5 v=82
8960 On ch=1 n=c4 v=82
9000 Tempo 444444
9040 Tempo 447761
9040 Par ch=1 c=7 v=106
9080 Tempo 504202
9120 On ch=1 n=c4 v=0
9120 On ch=1 n=c5 v=0
9120 Tempo 508475
9120 Par ch=1 c=7 v=107
9120 On ch=1 n=f#5 v=127
9120 On ch=1 n=f#4 v=127
9160 Tempo 521739
9200 Par ch=1 c=7 v=108
9280 On ch=1 n=f#4 v=0
9280 On ch=1 n=f#5 v=0
9280 Tempo 535714
9280 Par ch=1 c=7 v=109
9280 On ch=1 n=c#5 v=82
9280 On ch=1 n=c#4 v=82
9320 Tempo 576923
9360 Tempo 582524
9360 Par ch=1 c=7 v=110
9400 Tempo 606061
9440 On ch=1 n=c#4 v=0
9440 On ch=1 n=c#5 v=0
9440 Tempo 618557
9440 Par ch=1 c=7 v=111
9440 On ch=1 n=f5 v=82
9440 On ch=1 n=f4 v=82
9520 Par ch=1 c=7 v=112
9560 Tempo 555556
9560 Par ch=1 c=7 v=113
9572 Par ch=1 c=64 v=0
9572 Par ch=1 c=64 v=0
9576 Par ch=1 c=64 v=0
9600 On ch=1 n=f4 v=0
9600 On ch=1 n=f5 v=0
9600 Tempo 550459
9600 Par ch=1 c=7 v=80
9600 On ch=1 n=a#4 v=127
9600 On ch=1 n=a#3 v=127
9680 Tempo 521739
9680 Par ch=1 c=7 v=81
9712 Par ch=1 c=64 v=127
9712 Par ch=1 c=64 v=127
9712 Par ch=1 c=64 v=127
9720 Par ch=1 c=7 v=82
9760 On ch=1 n=a#3 v=0
9760 On ch=1 n=a#4 v=0
9760 Tempo 434783
9760 On ch=1 n=f5 v=82
9760 On ch=1 n=f4 v=82
9800 Par ch=1 c=7 v=83
9840 Par ch=1 c=7 v=84
9920 On ch=1 n=f4 v=0
9920 On ch=1 n=f5 v=0
9920 Par ch=1 c=7 v=85
9920 On ch=1 n=c#5 v=82
9920 On ch=1 n=c#4 v=82
9948 Par ch=1 c=64 v=0
9948 Par ch=1 c=64 v=0
9948 Par ch=1 c=64 v=0
9960 Par ch=1 c=7 v=86
10040 Tempo 428571
10040 Par ch=1 c=7 v=87
10080 On ch=1 n=c#4 v=0
10080 On ch=1 n=c#5 v=0
10080 Par ch=1 c=7 v=88
10080 On ch=1 n=f#5 v=127
10080 On ch=1 n=f#4 v=127
10120 Tempo 425532
10136 Par ch=1 c=64 v=127
10136 Par ch=1 c=64 v=127
10140 Par ch=1 c=64 v=127
10160 Par ch=1 c=7 v=89
10200 Par ch=1 c=7 v=90
10240 On ch=1 n=f#4 v=0
10240 On ch=1 n=f#5 v=0
10240 On ch=1 n=a#4 v=82
10240 On ch=1 n=a#3 v=82
10280 Par ch=1 c=7 v=91
10320 Par ch=1 c=7 v=92
10400 On ch=1 n=a#3 v=0
10400 On ch=1 n=a#4 v=0
10400 Par ch=1 c=7 v=93
10400 On ch=1 n=f#5 v=82
10400 On ch=1 n=f#4 v=82
10440 Par ch=1 c=7 v=94
10468 Par ch=1 c=64 v=0
10468 Par ch=1 c=64 v=0
10468 Par ch=1 c=64 v=0
10520 Par ch=1 c=7 v=95
10560 On ch=1 n=f#4 v=0
10560 On ch=1 n=f#5 v=0
10560 Par ch=1 c=7 v=96
10560 On ch=1 n=a4 v=127
10560 On ch=1 n=a3 v=127
10600 Par ch=1 c=64 v=127
10600 Par ch=1 c=64 v=127
10600 Par ch=1 c=64 v=127
10600 Par ch=1 c=7 v=95
10640 Par ch=1 c=7 v=94
10680 Par ch=1 c=7 v=92
10720 On ch=1 n=a3 v=0
10720 On ch=1 n=a4 v=0
10720 Par ch=1 c=7 v=91
10720 On ch=1 n=f#5 v=82
10720 On ch=1 n=f#4 v=82
10760 Par ch=1 c=7 v=90
10800 Par ch=1 c=7 v=88
10840 Par ch=1 c=7 v=87
10880 On ch=1 n=f#4 v=0
10880 On ch=1 n=f#5 v=0
10880 Par ch=1 c=7 v=86
10880 On ch=1 n=c5 v=82
10880 On ch=1 n=c4 v=82
10920 Par ch=1 c=7 v=84
10932 Par ch=1 c=64 v=0
10936 Par ch=1 c=64 v=0
10936 Par ch=1 c=64 v=0
10960 Par ch=1 c=7 v=83
11000 Par ch=1 c=7 v=82
11040 On ch=1 n=c4 v=0
11040 On ch=1 n=c5 v=0
11040 Par ch=1 c=7 v=80
11040 On ch=1 n=f5 v=127
11040 On ch=1 n=f4 v=127
11080 Par ch=1 c=64 v=127
11080 Par ch=1 c=64 v=127
11080 Par ch=1 c=64 v=127
11080 Par ch=1 c=7 v=79
11120 Par ch=1 c=7 v=78
11160 Par ch=1 c=7 v=76
11200 On ch=1 n=f4 v=0
11200 On ch=1 n=f5 v=0
11200 Par ch=1 c=7 v=75
11200 On ch=1 n=a4 v=82
11200 On ch=1 n=a3 v=82
11240 Par ch=1 c=7 v=74
11280 Par ch=1 c=7 v=72
11320 Par ch=1 c=7 v=71
11360 On ch=1 n=a3 v=0
11360 On ch=1 n=a4 v=0
11360 Par ch=1 c=7 v=70
11360 On ch=1 n=f5 v=82
11360 On ch=1 n=f4 v=82
11400 Par ch=1 c=7 v=68
11440 Par ch=1 c=7 v=67
11452 Par ch=1 c=64 v=0
11452 Par ch=1 c=64 v=0
11452 Par ch=1 c=64 v=0
11480 Par ch=1 c=7 v=66
11520 On ch=1 n=f4 v=0
11520 On ch=1 n=f5 v=0
11520 Tempo 428571
11520 Par ch=1 c=7 v=64
11520 On ch=1 n=a#4 v=127
11520 On ch=1 n=a#3 v=127
11560 Par ch=1 c=7 v=65
11588 Par ch=1 c=64 v=127
11588 Par ch=1 c=64 v=127
11592 Par ch=1 c=64 v=127
11600 Par ch=1 c=7 v=66
11640 Par ch=1 c=7 v=68
11680 On ch=1 n=a#3 v=0
11680 On ch=1 n=a#4 v=0
11680 Par ch=1 c=7 v=69
11680 On ch=1 n=f5 v=82
11680 On ch=1 n=f4 v=82
11720 Par ch=1 c=7 v=70
11760 Tempo 422535
11760 Par ch=1 c=7 v=72
11800 Tempo 419580
11800 Par ch=1 c=7 v=73
11840 On ch=1 n=f4 v=0
11840 On ch=1 n=f5 v=0
11840 Tempo 416667
11840 Par ch=1 c=7 v=74
11840 On ch=1 n=c#5 v=82
11840 On ch=1 n=c#4 v=82
11880 Tempo 413793
11880 Par ch=1 c=7 v=76
11920 Par ch=1 c=7 v=77
11932 Par ch=1 c=64 v=0
11932 Par ch=1 c=64 v=0
11936 Par ch=1 c=64 v=0
11960 Tempo 410959
11960 Par ch=1 c=7 v=78
12000 On ch=1 n=c#4 v=0
12000 On ch=1 n=c#5 v=0
12000 Par ch=1 c=7 v=80
12000 On ch=1 n=f#5 v=127
12000 On ch=1 n=f#4 v=127
12040 Par ch=1 c=7 v=81
12056 Par ch=1 c=64 v=127
12056 Par ch=1 c=64 v=127
12056 Par ch=1 c=64 v=127
12080 Par ch=1 c=7 v=82
12120 Par ch=1 c=7 v=84
12160 On ch=1 n=f#4 v=0
12160 On ch=1 n=f#5 v=0
12160 Par ch=1 c=7 v=85
12160 On ch=1 n=a4 v=82
12160 On ch=1 n=a3 v=82
12200 Par ch=1 c=7 v=86
12240 Par ch=1 c=7 v=88
12280 Par ch=1 c=7 v=89
12320 On ch=1 n=a3 v=0
12320 On ch=1 n=a4 v=0
12320 Par ch=1 c=7 v=90
12320 On ch=1 n=f#5 v=82
12320 On ch=1 n=f#4 v=82
12360 Par ch=1 c=7 v=92
12372 Par ch=1 c=64 v=0
12372 Par ch=1 c=64 v=0
12372 Par ch=1 c=64 v=0
12400 Par ch=1 c=7 v=93
12440 Par ch=1 c=7 v=94
12480 On ch=1 n=f#4 v=0
12480 On ch=1 n=f#5 v=0
12480 Par ch=1 c=7 v=96
12480 On ch=1 n=g#4 v=127
12480 On ch=1 n=g#3 v=127
12536 Par ch=1 c=64 v=127
12536 Par ch=1 c=64 v=127
12536 Par ch=1 c=64 v=127
12560 Par ch=1 c=7 v=95
12600 Par ch=1 c=7 v=94
12640 On ch=1 n=g#3 v=0
12640 On ch=1 n=g#4 v=0
12640 Par ch=1 c=7 v=93
12640 On ch=1 n=f#5 v=82
12640 On ch=1 n=f#4 v=82
12680 Par ch=1 c=7 v=92
12720 Par ch=1 c=7 v=91
12760 Par ch=1 c=7 v=90
12800 On ch=1 n=f#4 v=0
12800 On ch=1 n=f#5 v=0
12800 Par ch=1 c=7 v=89
12800 On ch=1 n=d5 v=82
12800 On ch=1 n=d4 v=82
12840 Par ch=1 c=7 v=88
12860 Par ch=1 c=64 v=0
12860 Par ch=1 c=64 v=0
12864 Par ch=1 c=64 v=0
12880 Par ch=1 c=7 v=87
12920 Par ch=1 c=7 v=86
12960 On ch=1 n=d4 v=0
12960 On ch=1 n=d5 v=0
12960 Par ch=1 c=7 v=85
12960 On ch=1 n=f5 v=127
12960 On ch=1 n=f4 v=127
13004 Par ch=1 c=64 v=127
13008 Par ch=1 c=64 v=127
13008 Par ch=1 c=64 v=127
13040 Par ch=1 c=7 v=84
13080 Tempo 413793
13080 Par ch=1 c=7 v=83
13120 On ch=1 n=f4 v=0
13120 On ch=1 n=f5 v=0
13120 Par ch=1 c=7 v=82
13120 On ch=1 n=b4 v=82
13120 On ch=1 n=b3 v=82
13160 Par ch=1 c=7 v=81
13200 Par ch=1 c=7 v=80
13240 Par ch=1 c=7 v=79
13280 On ch=1 n=b3 v=0
13280 On ch=1 n=b4 v=0
13280 Par ch=1 c=7 v=78
13280 On ch=1 n=f5 v=82
13280 On ch=1 n=f4 v=82
13320 Tempo 416667
13320 Par ch=1 c=7 v=77
13340 Par ch=1 c=64 v=0
13344 Par ch=1 c=64 v=0
13344 Par ch=1 c=64 v=0
13360 Par ch=1 c=7 v=76
13400 Par ch=1 c=7 v=75
13440 On ch=1 n=f4 v=0
13440 On ch=1 n=f5 v=0
13440 Par ch=1 c=7 v=84
13440 On ch=1 n=g#4 v=127
13440 On ch=1 n=g#3 v=127
13488 Par ch=1 c=64 v=127
13488 Par ch=1 c=64 v=127
13488 Par ch=1 c=64 v=127
13520 Par ch=1 c=7 v=83
13560 Par ch=1 c=7 v=82
13600 On ch=1 n=g#3 v=0
13600 On ch=1 n=g#4 v=0
13600 Tempo 419580
13600 Par ch=1 c=7 v=81
13600 On ch=1 n=e5 v=82
13600 On ch=1 n=e4 v=82
13640 Par ch=1 c=7 v=80
13680 Par ch=1 c=7 v=79
13760 On ch=1 n=e4 v=0
13760 On ch=1 n=e5 v=0
13760 Par ch=1 c=7 v=78
13760 On ch=1 n=b4 v=82
13760 On ch=1 n=b3 v=82
13792 Par ch=1 c=64 v=0
13792 Par ch=1 c=64 v=0
13792 Par ch=1 c=64 v=0
13800 Par ch=1 c=7 v=77
13840 Par ch=1 c=7 v=76
13880 Par ch=1 c=7 v=75
13920 On ch=1 n=b3 v=0
13920 On ch=1 n=b4 v=0
13920 Tempo 422535
13920 Par ch=1 c=7 v=74
13920 On ch=1 n=d5 v=127
13920 On ch=1 n=d4 v=127
13940 Par ch=1 c=64 v=127
13944 Par ch=1 c=64 v=127
13944 Par ch=1 c=64 v=127
13960 Tempo 434783
14000 Par ch=1 c=7 v=73
14040 Par ch=1 c=7 v=72
14080 On ch=1 n=d4 v=0
14080 On ch=1 n=d5 v=0
14080 Par ch=1 c=7 v=71
14080 On ch=1 n=g#4 v=82
14080 On ch=1 n=g#3 v=82
14120 Par ch=1 c=7 v=70
14160 Par ch=1 c=7 v=69
14240 On ch=1 n=g#3 v=0
14240 On ch=1 n=g#4 v=0
14240 Par ch=1 c=7 v=68
14240 On ch=1 n=d5 v=82
14240 On ch=1 n=d4 v=82
14280 Par ch=1 c=7 v=67
14316 Par ch=1 c=64 v=0
14320 Par ch=1 c=64 v=0
14320 Par ch=1 c=64 v=0
14320 Par ch=1 c=7 v=66
14360 Par ch=1 c=7 v=65
14400 On ch=1 n=d4 v=0
14400 On ch=1 n=d5 v=0
14400 Par ch=1 c=7 v=64
14400 On ch=1 n=g4 v=127
14400 On ch=1 n=g3 v=127
14436 Par ch=1 c=64 v=127
14440 Par ch=1 c=64 v=127
14440 Par ch=1 c=64 v=127
14480 Par ch=1 c=7 v=65
14520 Par ch=1 c=7 v=66
14560 On ch=1 n=g3 v=0
14560 On ch=1 n=g4 v=0
14560 Par ch=1 c=7 v=67
14560 On ch=1 n=d5 v=82
14560 On ch=1 n=d4 v=82
14600 Par ch=1 c=7 v=68
14640 Par ch=1 c=7 v=69
14720 On ch=1 n=d4 v=0
14720 On ch=1 n=d5 v=0
14720 Par ch=1 c=7 v=70
14720 On ch=1 n=a#4 v=82
14720 On ch=1 n=a#3 v=82
14740 Par ch=1 c=64 v=0
14740 Par ch=1 c=64 v=0
14744 Par ch=1 c=64 v=0
14760 Par ch=1 c=7 v=71
14800 Par ch=1 c=7 v=72
14840 Par ch=1 c=7 v=73
14880 On ch=1 n=a#3 v=0
14880 On ch=1 n=a#4 v=0
14880 Par ch=1 c=7 v=74
14880 On ch=1 n=f5 v=127
14880 On ch=1 n=f4 v=127
14904 Par ch=1 c=64 v=127
14908 Par ch=1 c=64 v=127
14908 Par ch=1 c=64 v=127
14960 Par ch=1 c=7 v=75
15000 Par ch=1 c=7 v=76
15040 On ch=1 n=f4 v=0
15040 On ch=1 n=f5 v=0
15040 Par ch=1 c=7 v=77
15040 On ch=1 n=f#4 v=82
15040 On ch=1 n=f#3 v=82
15080 Par ch=1 c=7 v=78
15120 Par ch=1 c=7 v=79
15200 On ch=1 n=f#3 v=0
15200 On ch=1 n=f#4 v=0
15200 Par ch=1 c=7 v=80
15200 On ch=1 n=d#5 v=82
15200 On ch=1 n=d#4 v=82
15220 Par ch=1 c=64 v=0
15220 Par ch=1 c=64 v=0
15224 Par ch=1 c=64 v=0
15240 Par ch=1 c=7 v=81
15280 Par ch=1 c=7 v=82
15320 Par ch=1 c=7 v=83
15356 Par ch=1 c=64 v=127
15360 On ch=1 n=d#4 v=0
15360 On ch=1 n=d#5 v=0
15360 Tempo 434783
15360 Par ch=1 c=64 v=127
15360 Par ch=1 c=64 v=127
15360 Par ch=1 c=7 v=84
15360 On ch=1 n=f4 v=127
15360 On ch=1 n=f3 v=127
15440 Tempo 437956
15440 Par ch=1 c=7 v=83
15480 Par ch=1 c=7 v=82
15520 On ch=1 n=f3 v=0
15520 On ch=1 n=f4 v=0
15520 Par ch=1 c=7 v=81
15520 On ch=1 n=c#5 v=82
15520 On ch=1 n=c#4 v=82
15560 Par ch=1 c=7 v=80
15600 Par ch=1 c=7 v=79
15680 On ch=1 n=c#4 v=0
15680 On ch=1 n=c#5 v=0
15680 Par ch=1 c=7 v=78
15680 On ch=1 n=g4 v=82
15680 On ch=1 n=g3 v=82
15712 Par ch=1 c=64 v=0
15712 Par ch=1 c=64 v=0
15712 Par ch=1 c=64 v=0
15720 Par ch=1 c=7 v=77
15760 Par ch=1 c=7 v=76
15800 Par ch=1 c=7 v=75
15840 On ch=1 n=g3 v=0
15840 On ch=1 n=g4 v=0
15840 Par ch=1 c=7 v=74
15840 On ch=1 n=b4 v=127
15840 On ch=1 n=b3 v=127
15868 Par ch=1 c=64 v=127
15868 Par ch=1 c=64 v=127
15868 Par ch=1 c=64 v=127
15920 Par ch=1 c=7 v=73
15960 Par ch=1 c=7 v=72
16000 On ch=1 n=b3 v=0
16000 On ch=1 n=b4 v=0
16000 Tempo 444444
16000 Par ch=1 c=7 v=71
16000 On ch=1 n=f4 v=82
16000 On ch=1 n=f3 v=82
16040 Par ch=1 c=7 v=70
16080 Par ch=1 c=7 v=69
16160 On ch=1 n=f3 v=0
16160 On ch=1 n=f4 v=0
16160 Par ch=1 c=7 v=68
16160 On ch=1 n=b4 v=82
16160 On ch=1 n=b3 v=82
16200 Par ch=1 c=64 v=0
16200 Par ch=1 c=64 v=0
16200 Par ch=1 c=64 v=0
16200 Par ch=1 c=7 v=67
16240 Par ch=1 c=7 v=66
16280 Par ch=1 c=7 v=65
16320 On ch=1 n=b3 v=0
16320 On ch=1 n=b4 v=0
16320 Tempo 447761
16320 Par ch=1 c=7 v=63
16320 On ch=1 n=e4 v=127
16320 On ch=1 n=e3 v=127
16344 Par ch=1 c=64 v=127
16344 Par ch=1 c=64 v=127
16348 Par ch=1 c=64 v=127
16400 Par ch=1 c=7 v=64
16440 Par ch=1 c=7 v=65
16480 On ch=1 n=e3 v=0
16480 On ch=1 n=e4 v=0
16480 Par ch=1 c=7 v=66
16480 On ch=1 n=b4 v=82
16480 On ch=1 n=b3 v=82
16520 Par ch=1 c=7 v=67
16560 Par ch=1 c=7 v=68
16600 Par ch=1 c=7 v=69
16640 On ch=1 n=b3 v=0
16640 On ch=1 n=b4 v=0
16640 Par ch=1 c=7 v=70
16640 On ch=1 n=g4 v=82
16640 On ch=1 n=g3 v=82
16684 Par ch=1 c=64 v=0
16688 Par ch=1 c=64 v=0
16688 Par ch=1 c=64 v=0
16720 Par ch=1 c=7 v=71
16760 Par ch=1 c=7 v=72
16800 On ch=1 n=g3 v=0
16800 On ch=1 n=g4 v=0
16800 Par ch=1 c=7 v=73
16800 On ch=1 n=c#5 v=127
16800 On ch=1 n=c#4 v=127
16804 Par ch=1 c=64 v=127
16804 Par ch=1 c=64 v=127
16804 Par ch=1 c=64 v=127
16840 Par ch=1 c=7 v=74
16880 Par ch=1 c=7 v=75
16920 Par ch=1 c=7 v=76
16960 On ch=1 n=c#4 v=0
16960 On ch=1 n=c#5 v=0
16960 Par ch=1 c=7 v=77
16960 On ch=1 n=e4 v=82
16960 On ch=1 n=e3 v=82
17040 Par ch=1 c=7 v=78
17080 Par ch=1 c=7 v=79
17120 On ch=1 n=e3 v=0
17120 On ch=1 n=e4 v=0
17120 Par ch=1 c=7 v=80
17120 On ch=1 n=c5 v=82
17120 On ch=1 n=c4 v=82
17156 Par ch=1 c=64 v=0
17160 Par ch=1 c=64 v=0
17160 Par ch=1 c=64 v=0
17160 Par ch=1 c=7 v=81
17200 Par ch=1 c=7 v=82
17240 Par ch=1 c=7 v=83
17280 On ch=1 n=c4 v=0
17280 On ch=1 n=c5 v=0
17280 Tempo 444444
17280 Par ch=1 c=7 v=84
17280 On ch=1 n=f#4 v=127
17280 On ch=1 n=f#3 v=127
17304 Par ch=1 c=64 v=127
17304 Par ch=1 c=64 v=127
17308 Par ch=1 c=64 v=127
17360 Par ch=1 c=7 v=83
17400 Par ch=1 c=7 v=82
17440 On ch=1 n=f#3 v=0
17440 On ch=1 n=f#4 v=0
17440 Par ch=1 c=7 v=81
17440 On ch=1 n=d5 v=82
17440 On ch=1 n=d4 v=82
17480 Tempo 434783
17480 Par ch=1 c=7 v=80
17520 Tempo 437956
17520 Par ch=1 c=7 v=79
17600 On ch=1 n=d4 v=0
17600 On ch=1 n=d5 v=0
17600 Par ch=1 c=64 v=0
17600 Par ch=1 c=64 v=0
17600 Par ch=1 c=64 v=0
17600 Par ch=1 c=7 v=78
17600 On ch=1 n=a4 v=82
17600 On ch=1 n=a3 v=82
17640 Tempo 441176
17640 Par ch=1 c=7 v=77
17680 Par ch=1 c=7 v=76
17720 Tempo 444444
17720 Par ch=1 c=7 v=75
17752 Par ch=1 c=64 v=127
17752 Par ch=1 c=64 v=127
17752 Par ch=1 c=64 v=127
17760 On ch=1 n=a3 v=0
17760 On ch=1 n=a4 v=0
17760 Par ch=1 c=7 v=74
17760 On ch=1 n=c5 v=127
17760 On ch=1 n=c4 v=127
17840 Par ch=1 c=7 v=73
17880 Par ch=1 c=7 v=72
17920 On ch=1 n=c4 v=0
17920 On ch=1 n=c5 v=0
17920 Par ch=1 c=7 v=71
17920 On ch=1 n=f#4 v=82
17920 On ch=1 n=f#3 v=82
17960 Par ch=1 c=7 v=70
18000 Par ch=1 c=7 v=69
18080 On ch=1 n=f#3 v=0
18080 On ch=1 n=f#4 v=0
18080 Tempo 447761
18080 Par ch=1 c=7 v=68
18080 On ch=1 n=c5 v=82
18080 On ch=1 n=c4 v=82
18112 Par ch=1 c=64 v=0
18112 Par ch=1 c=64 v=0
18112 Par ch=1 c=64 v=0
18120 Par ch=1 c=7 v=67
18160 Par ch=1 c=7 v=66
18200 Par ch=1 c=7 v=65
18240 On ch=1 n=c4 v=0
18240 On ch=1 n=c5 v=0
18240 Tempo 451128
18240 Par ch=1 c=64 v=127
18240 Par ch=1 c=64 v=127
18240 Par ch=1 c=7 v=64
18240 On ch=1 n=f4 v=127
18240 On ch=1 n=f3 v=127
18244 Par ch=1 c=64 v=127
18280 Tempo 454545
18320 Par ch=1 c=7 v=65
18360 Tempo 458015
18360 Par ch=1 c=7 v=66
18400 On ch=1 n=f3 v=0
18400 On ch=1 n=f4 v=0
18400 Par ch=1 c=7 v=67
18400 On ch=1 n=c5 v=82
18400 On ch=1 n=c4 v=82
18440 Par ch=1 c=7 v=68
18480 Tempo 461538
18480 Par ch=1 c=7 v=69
18560 On ch=1 n=c4 v=0
18560 On ch=1 n=c5 v=0
18560 Par ch=1 c=7 v=70
18560 On ch=1 n=g#4 v=82
18560 On ch=1 n=g#3 v=82
18568 Par ch=1 c=64 v=0
18568 Par ch=1 c=64 v=0
18572 Par ch=1 c=64 v=0
18600 Par ch=1 c=7 v=71
18640 Tempo 465116
18640 Par ch=1 c=7 v=72
18680 Par ch=1 c=7 v=73
18712 Par ch=1 c=64 v=127
18712 Par ch=1 c=64 v=127
18716 Par ch=1 c=64 v=127
18720 On ch=1 n=g#3 v=0
18720 On ch=1 n=g#4 v=0
18720 Par ch=1 c=7 v=74
18720 On ch=1 n=d#5 v=127
18720 On ch=1 n=d#4 v=127
18800 Par ch=1 c=7 v=75
18840 Par ch=1 c=7 v=76
18880 On ch=1 n=d#4 v=0
18880 On ch=1 n=d#5 v=0
18880 Tempo 468750
18880 Par ch=1 c=7 v=77
18880 On ch=1 n=f4 v=82
18880 On ch=1 n=f3 v=82
18920 Par ch=1 c=7 v=78
18960 Par ch=1 c=7 v=79
19016 Par ch=1 c=64 v=0
19020 Par ch=1 c=64 v=0
19020 Par ch=1 c=64 v=0
19040 On ch=1 n=f3 v=0
19040 On ch=1 n=f4 v=0
19040 Par ch=1 c=7 v=80
19040 On ch=1 n=c#5 v=82
19040 On ch=1 n=c#4 v=82
19080 Par ch=1 c=7 v=81
19120 Tempo 465116
19120 Par ch=1 c=7 v=82
19160 Par ch=1 c=7 v=83
19164 Par ch=1 c=64 v=127
19164 Par ch=1 c=64 v=127
19164 Par ch=1 c=64 v=127
19200 On ch=1 n=c#4 v=0
19200 On ch=1 n=c#5 v=0
19200 Tempo 461538
19200 Par ch=1 c=7 v=84
19200 On ch=1 n=d#4 v=127
19200 On ch=1 n=d#3 v=127
19240 Tempo 458015
19280 Par ch=1 c=7 v=83
19320 Par ch=1 c=7 v=82
19360 On ch=1 n=d#3 v=0
19360 On ch=1 n=d#4 v=0
19360 Par ch=1 c=7 v=81
19360 On ch=1 n=b4 v=82
19360 On ch=1 n=b3 v=82
19400 Par ch=1 c=7 v=80
19440 Par ch=1 c=7 v=79
19508 Par ch=1 c=64 v=0
19508 Par ch=1 c=64 v=0
19512 Par ch=1 c=64 v=0
19520 On ch=1 n=b3 v=0
19520 On ch=1 n=b4 v=0
19520 Par ch=1 c=7 v=78
19520 On ch=1 n=f4 v=82
19520 On ch=1 n=f3 v=82
19560 Par ch=1 c=7 v=77
19600 Par ch=1 c=7 v=76
19640 Par ch=1 c=7 v=75
19672 Par ch=1 c=64 v=127
19672 Par ch=1 c=64 v=127
19672 Par ch=1 c=64 v=127
19680 On ch=1 n=f3 v=0
19680 On ch=1 n=f4 v=0
19680 Par ch=1 c=7 v=74
19680 On ch=1 n=a4 v=127
19680 On ch=1 n=a3 v=127
19760 Par ch=1 c=7 v=73
19800 Tempo 451128
19800 Par ch=1 c=7 v=72
19840 On ch=1 n=a3 v=0
19840 On ch=1 n=a4 v=0
19840 Tempo 447761
19840 Par ch=1 c=7 v=71
19840 On ch=1 n=d#4 v=82
19840 On ch=1 n=d#3 v=82
19880 Tempo 444444
19880 Par ch=1 c=7 v=70
19916 Par ch=1 c=64 v=0
19920 Par ch=1 c=64 v=0
19920 Par ch=1 c=7 v=69
19928 Par ch=1 c=64 v=0
20000 On ch=1 n=d#3 v=0
20000 On ch=1 n=d#4 v=0
20000 Tempo 437956
20000 Par ch=1 c=7 v=68
20000 On ch=1 n=a4 v=82
20000 On ch=1 n=a3 v=82
20040 Tempo 434783
20040 Par ch=1 c=7 v=67
20080 Tempo 431655
20080 Par ch=1 c=7 v=66
20104 Par ch=1 c=64 v=127
20104 Par ch=1 c=64 v=127
20104 Par ch=1 c=64 v=127
20120 Par ch=1 c=7 v=65
20160 On ch=1 n=a3 v=0
20160 On ch=1 n=a4 v=0
20160 Tempo 431655
20160 Par ch=1 c=7 v=64
20160 On ch=1 n=d4 v=127
20160 On ch=1 n=d3 v=127
20200 Par ch=1 c=7 v=66
20240 Par ch=1 c=7 v=68
20280 Par ch=1 c=7 v=70
20320 On ch=1 n=d3 v=0
20320 On ch=1 n=d4 v=0
20320 Tempo 434783
20320 Par ch=1 c=7 v=72
20320 On ch=1 n=a4 v=82
20320 On ch=1 n=a3 v=82
20360 Tempo 447761
20360 Par ch=1 c=7 v=74
20400 Tempo 476190
20400 Par ch=1 c=7 v=76
20440 Par ch=1 c=7 v=78
20480 On ch=1 n=a3 v=0
20480 On ch=1 n=a4 v=0
20480 Tempo 491803
20480 Par ch=1 c=7 v=80
20480 On ch=1 n=f4 v=82
20480 On ch=1 n=f3 v=82
20520 Tempo 512821
20520 Par ch=1 c=7 v=82
20560 Tempo 521739
20560 Par ch=1 c=7 v=84
20600 Tempo 530973
20600 Par ch=1 c=7 v=86
20640 On ch=1 n=f3 v=0
20640 On ch=1 n=f4 v=0
20640 Tempo 545455
20640 Par ch=1 c=7 v=88
20640 On ch=1 n=a#4 v=127
20640 On ch=1 n=a#3 v=127
20680 Tempo 555556
20680 Par ch=1 c=7 v=90
20720 Tempo 566038
20720 Par ch=1 c=7 v=92
20760 Tempo 571429
20760 Par ch=1 c=7 v=94
20800 On ch=1 n=a#3 v=0
20800 On ch=1 n=a#4 v=0
20800 Tempo 582524
20800 Par ch=1 c=7 v=96
20800 On ch=1 n=f#4 v=82
20800 On ch=1 n=f#3 v=82
20840 Tempo 588235
20840 Par ch=1 c=7 v=98
20880 Par ch=1 c=7 v=100
20920 Tempo 512821
20920 Par ch=1 c=7 v=102
20952 Par ch=1 c=64 v=0
20956 Par ch=1 c=64 v=0
20956 Par ch=1 c=64 v=0
20960 On ch=1 n=f#3 v=0
20960 On ch=1 n=f#4 v=0
20960 Tempo 487805
20960 Par ch=1 c=7 v=104
20960 On ch=1 n=a#4 v=82
20960 On ch=1 n=a#3 v=82
21000 Tempo 480000
21000 Par ch=1 c=7 v=106
21040 Tempo 476190
21040 Par ch=1 c=7 v=108
21080 Tempo 465116
21080 Par ch=1 c=7 v=110
21120 On ch=1 n=a#3 v=0
21120 On ch=1 n=a#4 v=0
21120 Tempo 458015
21120 Par ch=1 c=64 v=127
21120 Par ch=1 c=64 v=127
21120 Par ch=1 c=64 v=127
21120 Par ch=1 c=7 v=112
21120 On ch=1 n=d#4 v=127
21120 On ch=1 n=d#3 v=127
21160 Tempo 431655
21200 Tempo 431655
21280 On ch=1 n=d#3 v=0
21280 On ch=1 n=d#4 v=0
21280 On ch=1 n=a#4 v=82
21280 On ch=1 n=a#3 v=82
21320 Tempo 428571
21360 Tempo 410959
21440 On ch=1 n=a#3 v=0
21440 On ch=1 n=a#4 v=0
21440 On ch=1 n=f#4 v=82
21440 On ch=1 n=f#3 v=82
21520 Tempo 408163
21560 Tempo 402685
21600 On ch=1 n=f#3 v=0
21600 On ch=1 n=f#4 v=0
21600 On ch=1 n=b4 v=127
21600 On ch=1 n=b3 v=127
21640 Tempo 400000
21760 On ch=1 n=b3 v=0
21760 On ch=1 n=b4 v=0
21760 On ch=1 n=d#4 v=82
21760 On ch=1 n=d#3 v=82
21920 On ch=1 n=d#3 v=0
21920 On ch=1 n=d#4 v=0
21920 On ch=1 n=b4 v=82
21920 On ch=1 n=b3 v=82
22012 Par ch=1 c=64 v=0
22012 Par ch=1 c=64 v=0
22012 Par ch=1 c=64 v=0
22080 On ch=1 n=b3 v=0
22080 On ch=1 n=b4 v=0
22080 On ch=1 n=d4 v=127
22080 On ch=1 n=d3 v=127
22132 Par ch=1 c=64 v=127
22132 Par ch=1 c=64 v=127
22136 Par ch=1 c=64 v=127
22240 On ch=1 n=d3 v=0
22240 On ch=1 n=d4 v=0
22240 On ch=1 n=b4 v=82
22240 On ch=1 n=b3 v=82
22400 On ch=1 n=b3 v=0
22400 On ch=1 n=b4 v=0
22400 On ch=1 n=f4 v=82
22400 On ch=1 n=f3 v=82
22560 On ch=1 n=f3 v=0
22560 On ch=1 n=f4 v=0
22560 On ch=1 n=a#4 v=127
22560 On ch=1 n=a#3 v=127
22720 On ch=1 n=a#3 v=0
22720 On ch=1 n=a#4 v=0
22720 On ch=1 n=d4 v=82
22720 On ch=1 n=d3 v=82
22880 On ch=1 n=d3 v=0
22880 On ch=1 n=d4 v=0
22880 On ch=1 n=a#4 v=82
22880 On ch=1 n=a#3 v=82
22984 Par ch=1 c=64 v=0
22988 Par ch=1 c=64 v=0
22988 Par ch=1 c=64 v=0
23040 On ch=1 n=a#3 v=0
23040 On ch=1 n=a#4 v=0
23040 Tempo 400000
23040 Par ch=1 c=7 v=81
23040 On ch=1 n=d#4 v=127
23040 On ch=1 n=d#3 v=127
23080 Tempo 402685
23120 Par ch=1 c=7 v=82
23160 Par ch=1 c=64 v=127
23160 Par ch=1 c=64 v=127
23160 Par ch=1 c=64 v=127
23200 On ch=1 n=d#3 v=0
23200 On ch=1 n=d#4 v=0
23200 Par ch=1 c=7 v=83
23200 On ch=1 n=a#4 v=82
23200 On ch=1 n=a#3 v=82
23240 Tempo 408163
23240 Par ch=1 c=7 v=84
23320 Par ch=1 c=7 v=85
23360 On ch=1 n=a#3 v=0
23360 On ch=1 n=a#4 v=0
23360 Par ch=1 c=7 v=86
23360 On ch=1 n=f#4 v=82
23360 On ch=1 n=f#3 v=82
23400 Tempo 410959
23436 Par ch=1 c=64 v=0
23436 Par ch=1 c=64 v=0
23440 Par ch=1 c=64 v=0
23440 Par ch=1 c=7 v=87
23520 On ch=1 n=f#3 v=0
23520 On ch=1 n=f#4 v=0
23520 Par ch=1 c=7 v=88
23520 On ch=1 n=b4 v=127
23520 On ch=1 n=b3 v=127
23560 Par ch=1 c=7 v=89
23568 Par ch=1 c=64 v=127
23568 Par ch=1 c=64 v=127
23568 Par ch=1 c=64 v=127
23640 Par ch=1 c=7 v=90
23680 On ch=1 n=b3 v=0
23680 On ch=1 n=b4 v=0
23680 Par ch=1 c=7 v=91
23680 On ch=1 n=g4 v=82
23680 On ch=1 n=g3 v=82
23720 Tempo 413793
23760 Par ch=1 c=7 v=92
23840 On ch=1 n=g3 v=0
23840 On ch=1 n=g4 v=0
23840 Tempo 416667
23840 Par ch=1 c=7 v=93
23840 On ch=1 n=b4 v=82
23840 On ch=1 n=b3 v=82
23880 Tempo 419580
23880 Par ch=1 c=7 v=94
23900 Par ch=1 c=64 v=0
23912 Par ch=1 c=64 v=0
23912 Par ch=1 c=64 v=0
23920 Tempo 425532
23960 Tempo 428571
23960 Par ch=1 c=7 v=95
24000 On ch=1 n=b3 v=0
24000 On ch=1 n=b4 v=0
24000 Tempo 431655
24000 Par ch=1 c=7 v=96
24000 On ch=1 n=d4 v=127
24000 On ch=1 n=d3 v=127
24024 Par ch=1 c=64 v=127
24028 Par ch=1 c=64 v=127
24028 Par ch=1 c=64 v=127
24040 Par ch=1 c=7 v=95
24080 Par ch=1 c=7 v=94
24120 Par ch=1 c=7 v=92
24160 On ch=1 n=d3 v=0
24160 On ch=1 n=d4 v=0
24160 Par ch=1 c=7 v=91
24160 On ch=1 n=b4 v=82
24160 On ch=1 n=b3 v=82
24200 Par ch=1 c=7 v=90
24240 Par ch=1 c=7 v=88
24280 Par ch=1 c=7 v=87
24320 On ch=1 n=b3 v=0
24320 On ch=1 n=b4 v=0
24320 Par ch=1 c=7 v=86
24320 On ch=1 n=f#4 v=82
24320 On ch=1 n=f#3 v=82
24340 Par ch=1 c=64 v=0
24340 Par ch=1 c=64 v=0
24340 Par ch=1 c=64 v=0
24360 Par ch=1 c=7 v=84
24400 Par ch=1 c=7 v=83
24440 Par ch=1 c=7 v=82
24480 On ch=1 n=f#3 v=0
24480 On ch=1 n=f#4 v=0
24480 Par ch=1 c=7 v=80
24480 On ch=1 n=a#4 v=127
24480 On ch=1 n=a#3 v=127
24496 Par ch=1 c=64 v=127
24500 Par ch=1 c=64 v=127
24500 Par ch=1 c=64 v=127
24520 Par ch=1 c=7 v=79
24560 Par ch=1 c=7 v=78
24600 Par ch=1 c=7 v=76
24640 On ch=1 n=a#3 v=0
24640 On ch=1 n=a#4 v=0
24640 Par ch=1 c=7 v=75
24640 On ch=1 n=f4 v=82
24640 On ch=1 n=f3 v=82
24680 Par ch=1 c=7 v=74
24720 Par ch=1 c=7 v=72
24760 Par ch=1 c=7 v=71
24800 On ch=1 n=f3 v=0
24800 On ch=1 n=f4 v=0
24800 Par ch=1 c=7 v=70
24800 On ch=1 n=a#4 v=82
24800 On ch=1 n=a#3 v=82
24820 Par ch=1 c=64 v=0
24820 Par ch=1 c=64 v=0
24824 Par ch=1 c=64 v=0
24840 Par ch=1 c=7 v=68
24880 Par ch=1 c=7 v=67
24920 Par ch=1 c=7 v=66
24960 On ch=1 n=a#3 v=0
24960 On ch=1 n=a#4 v=0
24960 Par ch=1 c=7 v=64
24960 On ch=1 n=d#4 v=127
24960 On ch=1 n=d#3 v=127
24964 Par ch=1 c=64 v=127
24964 Par ch=1 c=64 v=127
24964 Par ch=1 c=64 v=127
25080 Par ch=1 c=7 v=65
25120 On ch=1 n=d#3 v=0
25120 On ch=1 n=d#4 v=0
25120 On ch=1 n=a#4 v=82
25120 On ch=1 n=a#3 v=82
25200 Par ch=1 c=7 v=66
25280 On ch=1 n=a#3 v=0
25280 On ch=1 n=a#4 v=0
25280 On ch=1 n=f#4 v=82
25280 On ch=1 n=f#3 v=82
25320 Par ch=1 c=7 v=67
25440 On ch=1 n=f#3 v=0
25440 On ch=1 n=f#4 v=0
25440 Par ch=1 c=7 v=68
25440 On ch=1 n=b4 v=127
25440 On ch=1 n=b3 v=127
25560 Par ch=1 c=7 v=69
25600 On ch=1 n=b3 v=0
25600 On ch=1 n=b4 v=0
25600 On ch=1 n=d#4 v=82
25600 On ch=1 n=d#3 v=82
25680 Par ch=1 c=7 v=70
25760 On ch=1 n=d#3 v=0
25760 On ch=1 n=d#4 v=0
25760 On ch=1 n=b4 v=82
25760 On ch=1 n=b3 v=82
25800 Par ch=1 c=7 v=71
25856 Par ch=1 c=64 v=0
25856 Par ch=1 c=64 v=0
25856 Par ch=1 c=64 v=0
25920 On ch=1 n=b3 v=0
25920 On ch=1 n=b4 v=0
25920 Par ch=1 c=7 v=72
25920 On ch=1 n=f4 v=127
25920 On ch=1 n=f3 v=127
25968 Par ch=1 c=64 v=127
25972 Par ch=1 c=64 v=127
25972 Par ch=1 c=64 v=127
26040 Par ch=1 c=7 v=73
26080 On ch=1 n=f3 v=0
26080 On ch=1 n=f4 v=0
26080 On ch=1 n=c#5 v=82
26080 On ch=1 n=c#4 v=82
26160 Par ch=1 c=7 v=74
26240 On ch=1 n=c#4 v=0
26240 On ch=1 n=c#5 v=0
26240 On ch=1 n=a4 v=82
26240 On ch=1 n=a3 v=82
26280 Par ch=1 c=7 v=75
26400 On ch=1 n=a3 v=0
26400 On ch=1 n=a4 v=0
26400 Par ch=1 c=7 v=76
26400 On ch=1 n=c#5 v=127
26400 On ch=1 n=c#4 v=127
26520 Par ch=1 c=7 v=77
26560 On ch=1 n=c#4 v=0
26560 On ch=1 n=c#5 v=0
26560 On ch=1 n=f4 v=82
26560 On ch=1 n=f3 v=82
26640 Par ch=1 c=7 v=78
26720 On ch=1 n=f3 v=0
26720 On ch=1 n=f4 v=0
26720 On ch=1 n=c#5 v=82
26720 On ch=1 n=c#4 v=82
26760 Par ch=1 c=7 v=79
26804 Par ch=1 c=64 v=0
26804 Par ch=1 c=64 v=0
26808 Par ch=1 c=64 v=0
26880 On ch=1 n=c#4 v=0
26880 On ch=1 n=c#5 v=0
26880 Par ch=1 c=7 v=80
26880 On ch=1 n=f#4 v=127
26880 On ch=1 n=f#3 v=127
26924 Par ch=1 c=64 v=127
26928 Par ch=1 c=64 v=127
26928 Par ch=1 c=64 v=127
27000 Par ch=1 c=7 v=81
27040 On ch=1 n=f#3 v=0
27040 On ch=1 n=f#4 v=0
27040 On ch=1 n=c#5 v=82
27040 On ch=1 n=c#4 v=82
27120 Par ch=1 c=7 v=82
27200 On ch=1 n=c#4 v=0
27200 On ch=1 n=c#5 v=0
27200 On ch=1 n=a4 v=82
27200 On ch=1 n=a3 v=82
27240 Par ch=1 c=7 v=83
27360 On ch=1 n=a3 v=0
27360 On ch=1 n=a4 v=0
27360 Par ch=1 c=7 v=84
27360 On ch=1 n=d5 v=127
27360 On ch=1 n=d4 v=127
27480 Par ch=1 c=7 v=85
27520 On ch=1 n=d4 v=0
27520 On ch=1 n=d5 v=0
27520 On ch=1 n=f#4 v=82
27520 On ch=1 n=f#3 v=82
27600 Par ch=1 c=7 v=86
27680 On ch=1 n=f#3 v=0
27680 On ch=1 n=f#4 v=0
27680 On ch=1 n=d5 v=82
27680 On ch=1 n=d4 v=82
27696 Par ch=1 c=64 v=0
27696 Par ch=1 c=64 v=0
27696 Par ch=1 c=64 v=0
27720 Par ch=1 c=7 v=87
27836 Par ch=1 c=64 v=127
27840 On ch=1 n=d4 v=0
27840 On ch=1 n=d5 v=0
27840 Tempo 431655
27840 Par ch=1 c=64 v=127
27840 Par ch=1 c=64 v=127
27840 Par ch=1 c=7 v=88
27840 On ch=1 n=a#4 v=127
27840 On ch=1 n=a#3 v=127
27920 Tempo 434783
27960 Tempo 437956
27960 Par ch=1 c=7 v=89
28000 On ch=1 n=a#3 v=0
28000 On ch=1 n=a#4 v=0
28000 Tempo 441176
28000 On ch=1 n=d#5 v=82
28000 On ch=1 n=d#4 v=82
28040 Tempo 447761
28080 Par ch=1 c=7 v=90
28120 Tempo 451128
28160 On ch=1 n=d#4 v=0
28160 On ch=1 n=d#5 v=0
28160 On ch=1 n=f#4 v=82
28160 On ch=1 n=f#3 v=82
28200 Tempo 454545
28200 Par ch=1 c=7 v=91
28280 Tempo 461538
28320 On ch=1 n=f#3 v=0
28320 On ch=1 n=f#4 v=0
28320 Par ch=1 c=7 v=92
28320 On ch=1 n=e5 v=127
28320 On ch=1 n=e4 v=127
28360 Tempo 468750
28440 Par ch=1 c=7 v=93
28480 On ch=1 n=e4 v=0
28480 On ch=1 n=e5 v=0
28480 On ch=1 n=g4 v=82
28480 On ch=1 n=g3 v=82
28560 Par ch=1 c=7 v=94
28640 On ch=1 n=g3 v=0
28640 On ch=1 n=g4 v=0
28640 On ch=1 n=f5 v=82
28640 On ch=1 n=f4 v=82
28676 Par ch=1 c=64 v=0
28676 Par ch=1 c=64 v=0
28680 Tempo 465116
28680 Par ch=1 c=64 v=0
28680 Par ch=1 c=7 v=95
28800 On ch=1 n=f4 v=0
28800 On ch=1 n=f5 v=0
28800 Par ch=1 c=7 v=96
28800 On ch=1 n=g#4 v=127
28800 On ch=1 n=g#3 v=127
28828 Par ch=1 c=64 v=127
28828 Par ch=1 c=64 v=127
28828 Par ch=1 c=64 v=127
28960 On ch=1 n=g#3 v=0
28960 On ch=1 n=g#4 v=0
28960 On ch=1 n=b4 v=82
28960 On ch=1 n=b3 v=82
29120 On ch=1 n=b3 v=0
29120 On ch=1 n=b4 v=0
29120 On ch=1 n=f#4 v=82
29120 On ch=1 n=f#3 v=82
29280 On ch=1 n=f#3 v=0
29280 On ch=1 n=f#4 v=0
29280 On ch=1 n=b4 v=127
29280 On ch=1 n=b3 v=127
29440 On ch=1 n=b3 v=0
29440 On ch=1 n=b4 v=0
29440 On ch=1 n=f4 v=82
29440 On ch=1 n=f3 v=82
29600 On ch=1 n=f3 v=0
29600 On ch=1 n=f4 v=0
29600 On ch=1 n=b4 v=82
29600 On ch=1 n=b3 v=82
29676 Par ch=1 c=64 v=0
29680 Par ch=1 c=64 v=0
29680 Par ch=1 c=64 v=0
29760 On ch=1 n=b3 v=0
29760 On ch=1 n=b4 v=0
29760 On ch=1 n=d#4 v=127
29760 On ch=1 n=d#3 v=127
29808 Par ch=1 c=64 v=127
29808 Par ch=1 c=64 v=127
29808 Par ch=1 c=64 v=127
29920 On ch=1 n=d#3 v=0
29920 On ch=1 n=d#4 v=0
29920 On ch=1 n=g#4 v=82
29920 On ch=1 n=g#3 v=82
30080 On ch=1 n=g#3 v=0
30080 On ch=1 n=g#4 v=0
30080 On ch=1 n=d4 v=82
30080 On ch=1 n=d3 v=82
30240 On ch=1 n=d3 v=0
30240 On ch=1 n=d4 v=0
30240 On ch=1 n=f#4 v=127
30240 On ch=1 n=f#3 v=127
30400 On ch=1 n=f#3 v=0
30400 On ch=1 n=f#4 v=0
30400 On ch=1 n=d#4 v=82
30400 On ch=1 n=d#3 v=82
30560 On ch=1 n=d#3 v=0
30560 On ch=1 n=d#4 v=0
30560 On ch=1 n=f#4 v=82
30560 On ch=1 n=f#3 v=82
30688 Par ch=1 c=64 v=0
30692 Par ch=1 c=64 v=0
30692 Par ch=1 c=64 v=0
30720 On ch=1 n=f#3 v=0
30720 On ch=1 n=f#4 v=0
30720 On ch=1 n=g#3 v=127
30720 On ch=1 n=g#2 v=127
30820 Par ch=1 c=64 v=127
30820 Par ch=1 c=64 v=127
30824 Par ch=1 c=64 v=127
30880 On ch=1 n=g#2 v=0
30880 On ch=1 n=g#3 v=0
30880 On ch=1 n=f#4 v=82
30880 On ch=1 n=f#3 v=82
31040 On ch=1 n=f#3 v=0
31040 On ch=1 n=f#4 v=0
31040 On ch=1 n=d#4 v=82
31040 On ch=1 n=d#3 v=82
31200 On ch=1 n=d#3 v=0
31200 On ch=1 n=d#4 v=0
31200 On ch=1 n=f#4 v=127
31200 On ch=1 n=f#3 v=127
31360 On ch=1 n=f#3 v=0
31360 On ch=1 n=f#4 v=0
31360 On ch=1 n=g#3 v=82
31360 On ch=1 n=g#2 v=82
31520 On ch=1 n=g#2 v=0
31520 On ch=1 n=g#3 v=0
31520 On ch=1 n=f#4 v=82
31520 On ch=1 n=f#3 v=82
31600 Par ch=1 c=64 v=0
31600 Par ch=1 c=64 v=0
31600 Par ch=1 c=64 v=0
31680 On ch=1 n=f#3 v=0
31680 On ch=1 n=f#4 v=0
31680 Par ch=1 c=7 v=96
31680 On ch=1 n=a#3 v=127
31680 On ch=1 n=a#2 v=127
31744 Par ch=1 c=64 v=127
31744 Par ch=1 c=64 v=127
31744 Par ch=1 c=64 v=127
31800 Par ch=1 c=7 v=95
31840 On ch=1 n=a#2 v=0
31840 On ch=1 n=a#3 v=0
31840 On ch=1 n=f#4 v=82
31840 On ch=1 n=f#3 v=82
31880 Par ch=1 c=7 v=94
32000 On ch=1 n=f#3 v=0
32000 On ch=1 n=f#4 v=0
32000 Par ch=1 c=7 v=93
32000 On ch=1 n=d#4 v=82
32000 On ch=1 n=d#3 v=82
32068 Par ch=1 c=64 v=0
32072 Par ch=1 c=64 v=0
32072 Par ch=1 c=64 v=0
32080 Par ch=1 c=7 v=92
32160 On ch=1 n=d#3 v=0
32160 On ch=1 n=d#4 v=0
32160 On ch=1 n=f#4 v=127
32160 On ch=1 n=f#3 v=127
32196 Par ch=1 c=64 v=127
32196 Par ch=1 c=64 v=127
32196 Par ch=1 c=64 v=127
32200 Par ch=1 c=7 v=91
32280 Par ch=1 c=7 v=90
32320 On ch=1 n=f#3 v=0
32320 On ch=1 n=f#4 v=0
32320 On ch=1 n=a#3 v=82
32320 On ch=1 n=a#2 v=82
32400 Par ch=1 c=7 v=89
32480 On ch=1 n=a#2 v=0
32480 On ch=1 n=a#3 v=0
32480 Par ch=1 c=7 v=88
32480 On ch=1 n=f#4 v=82
32480 On ch=1 n=f#3 v=82
32580 Par ch=1 c=64 v=0
32580 Par ch=1 c=64 v=0
32580 Par ch=1 c=64 v=0
32600 Par ch=1 c=7 v=87
32640 On ch=1 n=f#3 v=0
32640 On ch=1 n=f#4 v=0
32640 Tempo 461538
32640 On ch=1 n=d#4 v=127
32640 On ch=1 n=d#3 v=127
32680 Par ch=1 c=7 v=86
32684 Par ch=1 c=64 v=127
32684 Par ch=1 c=64 v=127
32688 Par ch=1 c=64 v=127
32800 On ch=1 n=d#3 v=0
32800 On ch=1 n=d#4 v=0
32800 Par ch=1 c=7 v=85
32800 On ch=1 n=a#4 v=82
32800 On ch=1 n=a#3 v=82
32880 Par ch=1 c=7 v=84
32960 On ch=1 n=a#3 v=0
32960 On ch=1 n=a#4 v=0
32960 On ch=1 n=d#4 v=82
32960 On ch=1 n=d#3 v=82
32996 Par ch=1 c=64 v=0
33000 Par ch=1 c=64 v=0
33000 Par ch=1 c=64 v=0
33000 Par ch=1 c=7 v=83
33040 Tempo 458015
33080 Par ch=1 c=7 v=82
33120 On ch=1 n=d#3 v=0
33120 On ch=1 n=d#4 v=0
33120 Tempo 454545
33120 On ch=1 n=b4 v=127
33120 On ch=1 n=b3 v=127
33136 Par ch=1 c=64 v=127
33136 Par ch=1 c=64 v=127
33136 Par ch=1 c=64 v=127
33200 Par ch=1 c=7 v=81
33280 On ch=1 n=b3 v=0
33280 On ch=1 n=b4 v=0
33280 Par ch=1 c=7 v=80
33280 On ch=1 n=d#4 v=82
33280 On ch=1 n=d#3 v=82
33320 Tempo 451128
33400 Par ch=1 c=7 v=79
33440 On ch=1 n=d#3 v=0
33440 On ch=1 n=d#4 v=0
33440 Tempo 444444
33440 On ch=1 n=c#5 v=82
33440 On ch=1 n=c#4 v=82
33460 Par ch=1 c=64 v=0
33460 Par ch=1 c=64 v=0
33460 Par ch=1 c=64 v=0
33480 Par ch=1 c=7 v=78
33600 On ch=1 n=c#4 v=0
33600 On ch=1 n=c#5 v=0
33600 Tempo 437956
33600 Par ch=1 c=7 v=77
33600 On ch=1 n=d#4 v=127
33600 On ch=1 n=d#3 v=127
33604 Par ch=1 c=64 v=127
33604 Par ch=1 c=64 v=127
33604 Par ch=1 c=64 v=127
33680 Par ch=1 c=7 v=76
33760 On ch=1 n=d#3 v=0
33760 On ch=1 n=d#4 v=0
33760 Tempo 434783
33760 On ch=1 n=a#4 v=82
33760 On ch=1 n=a#3 v=82
33800 Par ch=1 c=7 v=75
33840 Tempo 431655
33880 Tempo 428571
33880 Par ch=1 c=7 v=74
33920 On ch=1 n=a#3 v=0
33920 On ch=1 n=a#4 v=0
33920 Par ch=1 c=64 v=0
33920 Par ch=1 c=64 v=0
33920 On ch=1 n=d#4 v=82
33920 On ch=1 n=d#3 v=82
33924 Par ch=1 c=64 v=0
34000 Tempo 425532
34000 Par ch=1 c=7 v=73
34040 Tempo 422535
34080 On ch=1 n=d#3 v=0
34080 On ch=1 n=d#4 v=0
34080 Tempo 416667
34080 Par ch=1 c=7 v=72
34080 On ch=1 n=b4 v=127
34080 On ch=1 n=b3 v=127
34104 Par ch=1 c=64 v=127
34104 Par ch=1 c=64 v=127
34104 Par ch=1 c=64 v=127
34200 Par ch=1 c=7 v=71
34240 On ch=1 n=b3 v=0
34240 On ch=1 n=b4 v=0
34240 Tempo 413793
34240 On ch=1 n=d#4 v=82
34240 On ch=1 n=d#3 v=82
34280 Par ch=1 c=7 v=70
34400 On ch=1 n=d#3 v=0
34400 On ch=1 n=d#4 v=0
34400 Par ch=1 c=7 v=69
34400 On ch=1 n=c#5 v=82
34400 On ch=1 n=c#4 v=82
34432 Par ch=1 c=64 v=0
34432 Par ch=1 c=64 v=0
34432 Par ch=1 c=64 v=0
34440 Tempo 408163
34480 Tempo 405405
34480 Par ch=1 c=7 v=68
34560 On ch=1 n=c#4 v=0
34560 On ch=1 n=c#5 v=0
34560 Tempo 402685
34560 On ch=1 n=d#4 v=127
34560 On ch=1 n=d#3 v=127
34584 Par ch=1 c=64 v=127
34588 Par ch=1 c=64 v=127
34588 Par ch=1 c=64 v=127
34600 Par ch=1 c=7 v=67
34640 Tempo 400000
34680 Par ch=1 c=7 v=66
34720 On ch=1 n=d#3 v=0
34720 On ch=1 n=d#4 v=0
34720 On ch=1 n=c#5 v=82
34720 On ch=1 n=c#4 v=82
34760 Tempo 397351
34800 Tempo 394737
34800 Par ch=1 c=7 v=65
34840 Tempo 392157
34880 On ch=1 n=c#4 v=0
34880 On ch=1 n=c#5 v=0
34880 Par ch=1 c=7 v=64
34880 On ch=1 n=d#4 v=82
34880 On ch=1 n=d#3 v=82
34920 Tempo 389610
34956 Par ch=1 c=64 v=0
34956 Par ch=1 c=64 v=0
34956 Par ch=1 c=64 v=0
35000 Tempo 387097
35000 Par ch=1 c=7 v=63
35040 On ch=1 n=d#3 v=0
35040 On ch=1 n=d#4 v=0
35040 Tempo 382166
35040 On ch=1 n=b4 v=127
35040 On ch=1 n=b3 v=127
35072 Par ch=1 c=64 v=127
35072 Par ch=1 c=64 v=127
35072 Par ch=1 c=64 v=127
35080 Par ch=1 c=7 v=62
35200 On ch=1 n=b3 v=0
35200 On ch=1 n=b4 v=0
35200 Tempo 379747
35200 Par ch=1 c=7 v=61
35200 On ch=1 n=d#4 v=82
35200 On ch=1 n=d#3 v=82
35240 Tempo 377358
35280 Par ch=1 c=7 v=60
35360 On ch=1 n=d#3 v=0
35360 On ch=1 n=d#4 v=0
35360 Tempo 372671
35360 On ch=1 n=a#4 v=82
35360 On ch=1 n=a#3 v=82
35400 Par ch=1 c=7 v=59
35424 Par ch=1 c=64 v=0
35424 Par ch=1 c=64 v=0
35424 Par ch=1 c=64 v=0
35480 Tempo 365854
35480 Par ch=1 c=7 v=58
35520 On ch=1 n=a#3 v=0
35520 On ch=1 n=a#4 v=0
35520 On ch=1 n=d#4 v=127
35520 On ch=1 n=d#3 v=127
35560 Par ch=1 c=64 v=127
35560 Par ch=1 c=64 v=127
35564 Par ch=1 c=64 v=127
35600 Tempo 363636
35600 Par ch=1 c=7 v=57
35680 On ch=1 n=d#3 v=0
35680 On ch=1 n=d#4 v=0
35680 Par ch=1 c=7 v=56
35680 On ch=1 n=g#4 v=82
35680 On ch=1 n=g#3 v=82
35800 Par ch=1 c=7 v=55
35840 On ch=1 n=g#3 v=0
35840 On ch=1 n=g#4 v=0
35840 On ch=1 n=d#4 v=82
35840 On ch=1 n=d#3 v=82
35880 Tempo 365854
35880 Par ch=1 c=7 v=54
35916 Par ch=1 c=64 v=0
35916 Par ch=1 c=64 v=0
35916 Par ch=1 c=64 v=0
35920 Tempo 370370
35960 Tempo 394737
36000 On ch=1 n=d#3 v=0
36000 On ch=1 n=d#4 v=0
36000 Par ch=1 c=7 v=53
36000 On ch=1 n=a#4 v=127
36000 On ch=1 n=a#3 v=127
36040 Tempo 402685
36040 Par ch=1 c=64 v=127
36040 Par ch=1 c=64 v=127
36048 Par ch=1 c=64 v=127
36080 Tempo 444444
36080 Par ch=1 c=7 v=52
36160 On ch=1 n=a#3 v=0
36160 On ch=1 n=a#4 v=0
36160 Tempo 458015
36160 On ch=1 n=d#4 v=82
36160 On ch=1 n=d#3 v=82
36200 Tempo 465116
36200 Par ch=1 c=7 v=51
36240 Tempo 476190
36280 Tempo 512821
36280 Par ch=1 c=7 v=50
36320 On ch=1 n=d#3 v=0
36320 On ch=1 n=d#4 v=0
36320 Tempo 521739
36320 On ch=1 n=a#4 v=82
36320 On ch=1 n=a#3 v=82
36360 Tempo 555556
36400 Tempo 582524
36400 Par ch=1 c=7 v=49
36432 Par ch=1 c=64 v=0
36432 Par ch=1 c=64 v=0
36432 Par ch=1 c=64 v=0
36480 On ch=1 n=a#3 v=0
36480 On ch=1 n=a#4 v=0
36480 Tempo 600000
36480 Par ch=1 c=7 v=48
36480 On ch=1 n=d#4 v=127
36480 On ch=1 n=d#2 v=127
36576 Par ch=1 c=64 v=127
36576 Par ch=1 c=64 v=127
36576 Par ch=1 c=64 v=127
36960 On ch=1 n=d#2 v=0
36960 On ch=1 n=d#4 v=0
37228 Par ch=1 c=64 v=0
37228 Par ch=1 c=64 v=0
37228 Par ch=1 c=64 v=0
37228 Meta TrkEnd
TrkEnd
