MFile 1 11 480
MTrk
0 TimeSig 4/4 24 8
0 KeySig -1 major
0 Tempo 434783
19200 Tempo 428571
21120 Tempo 422535
23040 Tempo 416667
24960 Tempo 400000
28800 Tempo 394737
30720 Tempo 272727
36480 Tempo 476190
46080 Tempo 434783
55680 TimeSig 2/4 24 8
55680 Tempo 535714
56640 TimeSig 4/4 24 8
56640 Tempo 434783
58560 TimeSig 3/4 24 8
60000 TimeSig 4/4 24 8
69600 TimeSig 5/4 24 8
69600 Tempo 652174
70080 Tempo 434783
72000 TimeSig 4/4 24 8
75840 KeySig -5 major
81600 TimeSig 2/4 24 8
81600 Tempo 535714
82560 TimeSig 4/4 24 8
82560 Tempo 434783
86400 KeySig 0 major
90240 Tempo 428571
92160 Tempo 422535
94080 Tempo 416667
96000 Tempo 400000
97920 Tempo 600000
101760 Tempo 652174
102240 Tempo 681818
102720 Tempo 714286
103200 Tempo 750000
103680 Tempo 789474
104160 Tempo 833333
104640 Tempo 685745
105120 Tempo 937500
105600 KeySig 3 major
105600 Tempo 600000
113280 KeySig 0 major
113280 Tempo 535714
120960 KeySig 6 major
120960 Tempo 625000
124800 TimeSig 15/4 24 8
124800 KeySig 0 major
128160 Tempo 500000
131040 Tempo 681818
131520 Tempo 1000000
132000 TimeSig 4/4 24 8
132000 KeySig 6 major
132000 Tempo 625000
136800 Tempo 555556
137760 KeySig 0 major
137760 Tempo 416667
153120 KeySig -1 major
153120 Tempo 652174
156960 TimeSig 6/4 24 8
156960 Tempo 555556
159840 TimeSig 4/4 24 8
159840 Tempo 652174
163680 Tempo 555556
165600 TimeSig 6/8 12 8
168480 TimeSig 4/4 24 8
168480 KeySig 0 major
170400 Tempo 672957
170400 Meta TrkEnd
TrkEnd
MTrk
0 SeqSpec 43 00 01 00
0 Meta TrkName "Right Treble"
0 Meta 0x21 00
3840 On ch=1 n=d7 v=60
3840 On ch=1 n=d6 v=60
3960 On ch=1 n=d6 v=0
3960 On ch=1 n=d7 v=0
5760 On ch=1 n=g#7 v=60
5760 On ch=1 n=g#6 v=60
5880 On ch=1 n=g#6 v=0
5880 On ch=1 n=g#7 v=0
7680 On ch=1 n=d7 v=60
7680 On ch=1 n=d8 v=60
7800 On ch=1 n=d8 v=0
7800 On ch=1 n=d7 v=0
9600 On ch=1 n=g#7 v=60
9600 On ch=1 n=g#6 v=60
9720 On ch=1 n=g#6 v=0
9720 On ch=1 n=g#7 v=0
11520 On ch=1 n=c5 v=80
11520 On ch=1 n=d5 v=80
11640 On ch=1 n=d5 v=0
11640 On ch=1 n=c5 v=0
13440 On ch=1 n=d8 v=60
13440 On ch=1 n=c8 v=60
13440 On ch=1 n=d7 v=60
13560 On ch=1 n=d7 v=0
13560 On ch=1 n=c8 v=0
13560 On ch=1 n=d8 v=0
15360 On ch=1 n=c5 v=80
15360 On ch=1 n=d5 v=80
15480 On ch=1 n=d5 v=0
15480 On ch=1 n=c5 v=0
17280 On ch=1 n=d8 v=60
17280 On ch=1 n=c8 v=60
17280 On ch=1 n=d7 v=60
17400 On ch=1 n=d7 v=0
17400 On ch=1 n=c8 v=0
17400 On ch=1 n=d8 v=0
19680 On ch=1 n=d7 v=60
19680 On ch=1 n=d6 v=60
19800 On ch=1 n=d6 v=0
19800 On ch=1 n=d7 v=0
20640 On ch=1 n=g#7 v=60
20640 On ch=1 n=g#6 v=60
20760 On ch=1 n=g#6 v=0
20760 On ch=1 n=g#7 v=0
21600 On ch=1 n=d8 v=70
21600 On ch=1 n=d7 v=70
21720 On ch=1 n=d7 v=0
21720 On ch=1 n=d8 v=0
22560 On ch=1 n=g#7 v=70
22560 On ch=1 n=g#6 v=70
22680 On ch=1 n=g#6 v=0
22680 On ch=1 n=g#7 v=0
23520 On ch=1 n=d7 v=80
23520 On ch=1 n=d6 v=80
23640 On ch=1 n=d6 v=0
23640 On ch=1 n=d7 v=0
24480 On ch=1 n=g#7 v=80
24480 On ch=1 n=g#6 v=80
24600 On ch=1 n=g#6 v=0
24600 On ch=1 n=g#7 v=0
25440 On ch=1 n=d8 v=90
25440 On ch=1 n=d7 v=90
25560 On ch=1 n=d7 v=0
25560 On ch=1 n=d8 v=0
26400 On ch=1 n=g#7 v=90
26400 On ch=1 n=g#6 v=90
26520 On ch=1 n=g#6 v=0
26520 On ch=1 n=g#7 v=0
28080 On ch=1 n=a#6 v=90
28160 On ch=1 n=a#6 v=0
28160 On ch=1 n=g#6 v=90
28240 On ch=1 n=g#6 v=0
28240 On ch=1 n=f#6 v=90
28320 On ch=1 n=f#6 v=0
28560 On ch=1 n=a#6 v=90
28640 On ch=1 n=a#6 v=0
28640 On ch=1 n=g#6 v=90
28720 On ch=1 n=g#6 v=0
28720 On ch=1 n=f#6 v=90
28800 On ch=1 n=f#6 v=0
29040 On ch=1 n=a#7 v=100
29120 On ch=1 n=a#7 v=0
29120 On ch=1 n=g#7 v=100
29200 On ch=1 n=g#7 v=0
29200 On ch=1 n=f#7 v=100
29280 On ch=1 n=f#7 v=0
29520 On ch=1 n=a#7 v=100
29600 On ch=1 n=a#7 v=0
29600 On ch=1 n=g#7 v=100
29680 On ch=1 n=g#7 v=0
29680 On ch=1 n=f#7 v=100
29760 On ch=1 n=f#7 v=0
30000 On ch=1 n=a#7 v=110
30080 On ch=1 n=a#7 v=0
30080 On ch=1 n=g#7 v=110
30160 On ch=1 n=g#7 v=0
30160 On ch=1 n=f#7 v=110
30240 On ch=1 n=f#7 v=0
30480 On ch=1 n=a#7 v=110
30560 On ch=1 n=a#7 v=0
30560 On ch=1 n=g#7 v=110
30640 On ch=1 n=g#7 v=0
30640 On ch=1 n=f#7 v=110
30720 On ch=1 n=f#7 v=0
30720 On ch=1 n=a#7 v=120
30776 On ch=1 n=g#7 v=120
30804 On ch=1 n=a#7 v=0
30860 On ch=1 n=g#7 v=0
30860 On ch=1 n=f#7 v=120
30924 On ch=1 n=d#7 v=120
30944 On ch=1 n=f#7 v=0
31008 On ch=1 n=d#7 v=0
31008 On ch=1 n=c#7 v=120
31088 On ch=1 n=a#6 v=120
31092 On ch=1 n=c#7 v=0
31164 On ch=1 n=g#6 v=120
31172 On ch=1 n=a#6 v=0
31244 On ch=1 n=f#6 v=120
31248 On ch=1 n=g#6 v=0
31316 On ch=1 n=d#6 v=120
31328 On ch=1 n=f#6 v=0
31392 On ch=1 n=c#6 v=120
31400 On ch=1 n=d#6 v=0
31476 On ch=1 n=c#6 v=0
31476 On ch=1 n=a#5 v=120
31552 On ch=1 n=g#5 v=120
31560 On ch=1 n=a#5 v=0
31632 On ch=1 n=f#5 v=120
31636 On ch=1 n=g#5 v=0
31704 On ch=1 n=d#5 v=120
31716 On ch=1 n=f#5 v=0
31784 On ch=1 n=c#5 v=120
31788 On ch=1 n=d#5 v=0
31868 On ch=1 n=c#5 v=0
45200 On ch=1 n=c#8 v=80
45200 On ch=1 n=c8 v=80
45240 On ch=1 n=c8 v=0
45240 On ch=1 n=c#8 v=0
45360 On ch=1 n=c#8 v=80
45360 On ch=1 n=c8 v=80
45400 On ch=1 n=c8 v=0
45400 On ch=1 n=c#8 v=0
45520 On ch=1 n=d#8 v=80
45520 On ch=1 n=c#8 v=80
45560 On ch=1 n=c#8 v=0
45560 On ch=1 n=d#8 v=0
45680 On ch=1 n=c#8 v=80
45680 On ch=1 n=c8 v=80
45720 On ch=1 n=c8 v=0
45720 On ch=1 n=c#8 v=0
45840 On ch=1 n=c#8 v=80
45840 On ch=1 n=c8 v=80
45880 On ch=1 n=c8 v=0
45880 On ch=1 n=c#8 v=0
46000 On ch=1 n=d#8 v=80
46000 On ch=1 n=c#8 v=80
46040 On ch=1 n=c#8 v=0
46040 On ch=1 n=d#8 v=0
46080 On ch=1 n=e8 v=80
46140 On ch=1 n=e8 v=0
46140 On ch=1 n=d8 v=80
46200 On ch=1 n=d8 v=0
46200 On ch=1 n=c8 v=80
46260 On ch=1 n=c8 v=0
46260 On ch=1 n=a#7 v=80
46320 On ch=1 n=a#7 v=0
46348 On ch=1 n=a7 v=80
46408 On ch=1 n=a7 v=0
46772 On ch=1 n=e6 v=80
46832 On ch=1 n=e6 v=0
46832 On ch=1 n=d6 v=80
46892 On ch=1 n=d6 v=0
46900 On ch=1 n=c6 v=80
46960 On ch=1 n=c6 v=0
46980 On ch=1 n=a#5 v=80
47040 On ch=1 n=a#5 v=0
47040 On ch=1 n=g5 v=80
47100 On ch=1 n=a#5 v=80
47108 On ch=1 n=g5 v=0
47168 On ch=1 n=a#5 v=0
47168 On ch=1 n=c6 v=80
47228 On ch=1 n=d6 v=80
47236 On ch=1 n=c6 v=0
47296 On ch=1 n=d6 v=0
47304 On ch=1 n=e6 v=80
47372 On ch=1 n=e6 v=0
47724 On ch=1 n=g7 v=80
47788 On ch=1 n=a#7 v=80
47792 On ch=1 n=g7 v=0
47856 On ch=1 n=a#7 v=0
47864 On ch=1 n=c8 v=80
47932 On ch=1 n=c8 v=0
47932 On ch=1 n=d8 v=80
48000 On ch=1 n=d8 v=0
48000 On ch=1 n=e8 v=80
48060 On ch=1 n=e8 v=0
48060 On ch=1 n=d8 v=80
48120 On ch=1 n=d8 v=0
48120 On ch=1 n=c8 v=80
48180 On ch=1 n=c8 v=0
48180 On ch=1 n=a#7 v=80
48240 On ch=1 n=a#7 v=0
48268 On ch=1 n=a7 v=80
48328 On ch=1 n=a7 v=0
48692 On ch=1 n=e6 v=80
48752 On ch=1 n=e6 v=0
48752 On ch=1 n=d6 v=80
48812 On ch=1 n=d6 v=0
48820 On ch=1 n=c6 v=80
48880 On ch=1 n=c6 v=0
48900 On ch=1 n=a#5 v=80
48960 On ch=1 n=a#5 v=0
48960 On ch=1 n=g5 v=80
49020 On ch=1 n=a#5 v=80
49028 On ch=1 n=g5 v=0
49088 On ch=1 n=a#5 v=0
49088 On ch=1 n=c6 v=80
49148 On ch=1 n=d6 v=80
49156 On ch=1 n=c6 v=0
49216 On ch=1 n=d6 v=0
49224 On ch=1 n=e6 v=80
49292 On ch=1 n=e6 v=0
49644 On ch=1 n=g7 v=80
49708 On ch=1 n=a#7 v=80
49712 On ch=1 n=g7 v=0
49776 On ch=1 n=a#7 v=0
49784 On ch=1 n=c8 v=80
49852 On ch=1 n=c8 v=0
49852 On ch=1 n=d8 v=80
49920 On ch=1 n=d8 v=0
49920 On ch=1 n=e8 v=80
49980 On ch=1 n=e8 v=0
49980 On ch=1 n=d8 v=80
50040 On ch=1 n=d8 v=0
50040 On ch=1 n=c8 v=80
50100 On ch=1 n=c8 v=0
50100 On ch=1 n=a#7 v=80
50160 On ch=1 n=a#7 v=0
50188 On ch=1 n=a7 v=80
50248 On ch=1 n=a7 v=0
50612 On ch=1 n=e6 v=80
50672 On ch=1 n=e6 v=0
50672 On ch=1 n=d6 v=80
50732 On ch=1 n=d6 v=0
50740 On ch=1 n=c6 v=80
50800 On ch=1 n=c6 v=0
50820 On ch=1 n=a#5 v=80
50880 On ch=1 n=a#5 v=0
50940 On ch=1 n=a#5 v=80
51008 On ch=1 n=a#5 v=0
51008 On ch=1 n=c6 v=80
51068 On ch=1 n=d6 v=80
51076 On ch=1 n=c6 v=0
51136 On ch=1 n=d6 v=0
51144 On ch=1 n=e6 v=80
51212 On ch=1 n=e6 v=0
51564 On ch=1 n=g7 v=80
51628 On ch=1 n=a#7 v=80
51632 On ch=1 n=g7 v=0
51696 On ch=1 n=a#7 v=0
51704 On ch=1 n=c8 v=80
51772 On ch=1 n=c8 v=0
51772 On ch=1 n=d8 v=80
51840 On ch=1 n=d8 v=0
51840 On ch=1 n=e8 v=80
51900 On ch=1 n=e8 v=0
51900 On ch=1 n=d8 v=80
51960 On ch=1 n=d8 v=0
51960 On ch=1 n=c8 v=80
52020 On ch=1 n=c8 v=0
52020 On ch=1 n=a#7 v=80
52080 On ch=1 n=a#7 v=0
52108 On ch=1 n=a7 v=80
52168 On ch=1 n=a7 v=0
52532 On ch=1 n=e6 v=80
52592 On ch=1 n=e6 v=0
52592 On ch=1 n=d6 v=80
52652 On ch=1 n=d6 v=0
52660 On ch=1 n=c6 v=80
52720 On ch=1 n=c6 v=0
52740 On ch=1 n=a#5 v=80
52800 On ch=1 n=a#5 v=0
52800 On ch=1 n=g5 v=80
52860 On ch=1 n=a#5 v=80
52868 On ch=1 n=g5 v=0
52928 On ch=1 n=a#5 v=0
52928 On ch=1 n=c6 v=80
52988 On ch=1 n=d6 v=80
52996 On ch=1 n=c6 v=0
53056 On ch=1 n=d6 v=0
53064 On ch=1 n=e6 v=80
53132 On ch=1 n=e6 v=0
53484 On ch=1 n=g7 v=80
53548 On ch=1 n=a#7 v=80
53552 On ch=1 n=g7 v=0
53616 On ch=1 n=a#7 v=0
53624 On ch=1 n=c8 v=80
53692 On ch=1 n=c8 v=0
53692 On ch=1 n=d8 v=80
53760 On ch=1 n=d8 v=0
53760 On ch=1 n=e8 v=80
53820 On ch=1 n=e8 v=0
53820 On ch=1 n=d8 v=80
53880 On ch=1 n=d8 v=0
53880 On ch=1 n=c8 v=80
53940 On ch=1 n=c8 v=0
53940 On ch=1 n=a#7 v=80
54000 On ch=1 n=a#7 v=0
54028 On ch=1 n=a7 v=80
54088 On ch=1 n=a7 v=0
54452 On ch=1 n=e6 v=80
54512 On ch=1 n=e6 v=0
54512 On ch=1 n=d6 v=80
54572 On ch=1 n=d6 v=0
54580 On ch=1 n=c6 v=80
54640 On ch=1 n=c6 v=0
54660 On ch=1 n=a#5 v=80
54720 On ch=1 n=a#5 v=0
54776 On ch=1 n=a#5 v=80
54836 On ch=1 n=a#5 v=0
54836 On ch=1 n=c6 v=80
54896 On ch=1 n=c6 v=0
54896 On ch=1 n=d6 v=80
54956 On ch=1 n=d6 v=0
54976 On ch=1 n=e6 v=80
55036 On ch=1 n=e6 v=0
55036 On ch=1 n=g6 v=80
55096 On ch=1 n=g6 v=0
55096 On ch=1 n=a#6 v=80
55156 On ch=1 n=a#6 v=0
55172 On ch=1 n=c7 v=80
55232 On ch=1 n=c7 v=0
55232 On ch=1 n=d7 v=80
55292 On ch=1 n=d7 v=0
55292 On ch=1 n=e7 v=80
55352 On ch=1 n=e7 v=0
55372 On ch=1 n=g7 v=80
55432 On ch=1 n=g7 v=0
55432 On ch=1 n=a#7 v=80
55492 On ch=1 n=a#7 v=0
55492 On ch=1 n=c8 v=80
55552 On ch=1 n=c8 v=0
55560 On ch=1 n=d8 v=80
55620 On ch=1 n=d8 v=0
55680 On ch=1 n=f5 v=100
55740 On ch=1 n=f5 v=0
55740 On ch=1 n=b5 v=100
55800 On ch=1 n=b5 v=0
55800 On ch=1 n=c#6 v=100
55860 On ch=1 n=c#6 v=0
55860 On ch=1 n=d#6 v=100
55920 On ch=1 n=d#6 v=0
55920 On ch=1 n=f6 v=100
55980 On ch=1 n=f6 v=0
55980 On ch=1 n=b6 v=100
56040 On ch=1 n=b6 v=0
56040 On ch=1 n=c#7 v=100
56100 On ch=1 n=c#7 v=0
56100 On ch=1 n=d#7 v=100
56160 On ch=1 n=d#7 v=0
56160 On ch=1 n=f#7 v=100
56220 On ch=1 n=f#7 v=0
56220 On ch=1 n=e7 v=100
56280 On ch=1 n=e7 v=0
56280 On ch=1 n=d7 v=100
56340 On ch=1 n=d7 v=0
56340 On ch=1 n=c7 v=100
56400 On ch=1 n=c7 v=0
56400 On ch=1 n=f#6 v=100
56440 On ch=1 n=f#6 v=0
56440 On ch=1 n=e6 v=100
56480 On ch=1 n=e6 v=0
56480 On ch=1 n=d6 v=100
56520 On ch=1 n=d6 v=0
56520 On ch=1 n=c6 v=100
56560 On ch=1 n=c6 v=0
56560 On ch=1 n=f#5 v=100
56600 On ch=1 n=f#5 v=0
56640 On ch=1 n=e8 v=80
56700 On ch=1 n=e8 v=0
56700 On ch=1 n=d8 v=80
56760 On ch=1 n=d8 v=0
56760 On ch=1 n=c8 v=80
56820 On ch=1 n=c8 v=0
56820 On ch=1 n=a#7 v=80
56880 On ch=1 n=a#7 v=0
56908 On ch=1 n=a7 v=80
56968 On ch=1 n=a7 v=0
57332 On ch=1 n=e6 v=80
57392 On ch=1 n=e6 v=0
57392 On ch=1 n=d6 v=80
57452 On ch=1 n=d6 v=0
57460 On ch=1 n=c6 v=80
57520 On ch=1 n=c6 v=0
57540 On ch=1 n=a#5 v=80
57600 On ch=1 n=a#5 v=0
57660 On ch=1 n=a#5 v=80
57728 On ch=1 n=a#5 v=0
57728 On ch=1 n=c6 v=80
57788 On ch=1 n=d6 v=80
57796 On ch=1 n=c6 v=0
57856 On ch=1 n=d6 v=0
57864 On ch=1 n=e6 v=80
57932 On ch=1 n=e6 v=0
58284 On ch=1 n=g7 v=80
58348 On ch=1 n=a#7 v=80
58352 On ch=1 n=g7 v=0
58416 On ch=1 n=a#7 v=0
58424 On ch=1 n=c8 v=80
58492 On ch=1 n=c8 v=0
58492 On ch=1 n=d8 v=80
58560 On ch=1 n=d8 v=0
58560 On ch=1 n=e8 v=70
58608 On ch=1 n=e8 v=0
58608 On ch=1 n=d8 v=70
58656 On ch=1 n=d8 v=0
58656 On ch=1 n=c8 v=70
58704 On ch=1 n=c8 v=0
58704 On ch=1 n=a#7 v=70
58752 On ch=1 n=a#7 v=0
58752 On ch=1 n=g7 v=70
58800 On ch=1 n=g7 v=0
59040 On ch=1 n=e7 v=60
59088 On ch=1 n=e7 v=0
59088 On ch=1 n=d7 v=60
59136 On ch=1 n=d7 v=0
59136 On ch=1 n=c7 v=60
59184 On ch=1 n=c7 v=0
59184 On ch=1 n=a#6 v=60
59232 On ch=1 n=a#6 v=0
59232 On ch=1 n=g6 v=60
59280 On ch=1 n=g6 v=0
59520 On ch=1 n=e6 v=60
59568 On ch=1 n=e6 v=0
59568 On ch=1 n=d6 v=60
59616 On ch=1 n=d6 v=0
59616 On ch=1 n=c6 v=60
59664 On ch=1 n=c6 v=0
59664 On ch=1 n=a#5 v=60
59712 On ch=1 n=a#5 v=0
59712 On ch=1 n=g5 v=60
59760 On ch=1 n=g5 v=0
60000 On ch=1 n=e6 v=60
60048 On ch=1 n=e6 v=0
60048 On ch=1 n=d6 v=60
60096 On ch=1 n=d6 v=0
60096 On ch=1 n=c6 v=60
60144 On ch=1 n=c6 v=0
60144 On ch=1 n=a#5 v=60
60192 On ch=1 n=a#5 v=0
60192 On ch=1 n=g5 v=60
60240 On ch=1 n=g5 v=0
60720 On ch=1 n=g5 v=60
60780 On ch=1 n=g5 v=0
60780 On ch=1 n=a#5 v=60
60840 On ch=1 n=a#5 v=0
60840 On ch=1 n=c#6 v=60
60900 On ch=1 n=c#6 v=0
60900 On ch=1 n=d6 v=60
60960 On ch=1 n=d6 v=0
60960 On ch=1 n=e6 v=60
61008 On ch=1 n=e6 v=0
61008 On ch=1 n=d6 v=60
61056 On ch=1 n=d6 v=0
61056 On ch=1 n=c6 v=60
61104 On ch=1 n=c6 v=0
61104 On ch=1 n=a#5 v=60
61152 On ch=1 n=a#5 v=0
61152 On ch=1 n=g5 v=60
61200 On ch=1 n=g5 v=0
61680 On ch=1 n=g5 v=60
61740 On ch=1 n=g5 v=0
61740 On ch=1 n=a#5 v=60
61800 On ch=1 n=a#5 v=0
61800 On ch=1 n=c#6 v=60
61860 On ch=1 n=c#6 v=0
61860 On ch=1 n=d6 v=60
61920 On ch=1 n=d6 v=0
61920 On ch=1 n=e6 v=60
61968 On ch=1 n=e6 v=0
61968 On ch=1 n=d6 v=60
62016 On ch=1 n=d6 v=0
62016 On ch=1 n=c6 v=60
62064 On ch=1 n=c6 v=0
62064 On ch=1 n=a#5 v=60
62112 On ch=1 n=a#5 v=0
62112 On ch=1 n=g5 v=60
62160 On ch=1 n=g5 v=0
62640 On ch=1 n=g5 v=60
62700 On ch=1 n=g5 v=0
62700 On ch=1 n=a#5 v=60
62760 On ch=1 n=a#5 v=0
62760 On ch=1 n=c#6 v=60
62820 On ch=1 n=c#6 v=0
62820 On ch=1 n=d6 v=60
62880 On ch=1 n=d6 v=0
62880 On ch=1 n=e6 v=50
62928 On ch=1 n=e6 v=0
62928 On ch=1 n=d6 v=50
62976 On ch=1 n=d6 v=0
62976 On ch=1 n=c6 v=50
63024 On ch=1 n=c6 v=0
63024 On ch=1 n=a#5 v=50
63072 On ch=1 n=a#5 v=0
63072 On ch=1 n=g5 v=50
63120 On ch=1 n=g5 v=0
63600 On ch=1 n=g5 v=50
63648 On ch=1 n=g5 v=0
63648 On ch=1 n=a#5 v=50
63696 On ch=1 n=a#5 v=0
63696 On ch=1 n=c6 v=50
63744 On ch=1 n=c6 v=0
63744 On ch=1 n=d6 v=50
63792 On ch=1 n=d6 v=0
63792 On ch=1 n=e6 v=50
63840 On ch=1 n=e6 v=0
63840 On ch=1 n=f6 v=100
63840 On ch=1 n=f5 v=100
63840 On ch=1 n=c#6 v=100
63840 On ch=1 n=b5 v=100
63960 On ch=1 n=f5 v=0
63960 On ch=1 n=f6 v=0
63960 On ch=1 n=b6 v=100
63960 On ch=1 n=b5 v=100
65760 On ch=1 n=b5 v=0
65760 On ch=1 n=b6 v=0
65760 On ch=1 n=b5 v=0
65760 On ch=1 n=c#6 v=0
65760 On ch=1 n=f6 v=100
65760 On ch=1 n=f5 v=100
65760 On ch=1 n=c#6 v=100
65760 On ch=1 n=b5 v=100
65880 On ch=1 n=f5 v=0
65880 On ch=1 n=f6 v=0
65880 On ch=1 n=c#7 v=100
65880 On ch=1 n=c#6 v=100
66000 On ch=1 n=c#7 v=0
66000 On ch=1 n=c#6 v=0
66000 On ch=1 n=b6 v=100
66000 On ch=1 n=b5 v=100
67680 On ch=1 n=b5 v=0
67680 On ch=1 n=b6 v=0
67680 On ch=1 n=c#6 v=0
67680 On ch=1 n=b5 v=0
67680 On ch=1 n=f5 v=100
67680 On ch=1 n=f6 v=100
67680 On ch=1 n=c#6 v=100
67680 On ch=1 n=b5 v=100
68000 On ch=1 n=f6 v=0
68000 On ch=1 n=f5 v=0
68000 On ch=1 n=c#6 v=100
68000 On ch=1 n=c#7 v=100
68320 On ch=1 n=c#7 v=0
68320 On ch=1 n=c#6 v=0
68320 On ch=1 n=b5 v=100
68320 On ch=1 n=b6 v=100
68640 On ch=1 n=b6 v=0
68640 On ch=1 n=b5 v=0
68640 On ch=1 n=c#6 v=0
68640 On ch=1 n=b5 v=0
68640 On ch=1 n=d#7 v=100
68640 On ch=1 n=d#6 v=100
68640 On ch=1 n=b6 v=100
68640 On ch=1 n=f6 v=100
68960 On ch=1 n=d#6 v=0
68960 On ch=1 n=d#7 v=0
68960 On ch=1 n=c#7 v=100
68960 On ch=1 n=c#6 v=100
69280 On ch=1 n=c#6 v=0
69280 On ch=1 n=c#7 v=0
69280 On ch=1 n=g6 v=100
69280 On ch=1 n=g5 v=100
69600 On ch=1 n=g5 v=0
69600 On ch=1 n=g6 v=0
69600 On ch=1 n=f6 v=0
69600 On ch=1 n=b6 v=0
69600 On ch=1 n=f5 v=100
69600 On ch=1 n=f6 v=100
69600 On ch=1 n=c#6 v=100
69600 On ch=1 n=b5 v=100
69720 On ch=1 n=f6 v=0
69720 On ch=1 n=f5 v=0
69720 On ch=1 n=b6 v=100
69720 On ch=1 n=b5 v=100
70560 On ch=1 n=b6 v=0
70560 On ch=1 n=b5 v=0
71220 On ch=1 n=f6 v=90
71280 On ch=1 n=f6 v=0
71280 On ch=1 n=b6 v=90
71340 On ch=1 n=b6 v=0
71340 On ch=1 n=c#7 v=90
71400 On ch=1 n=c#7 v=0
71400 On ch=1 n=d#7 v=90
71460 On ch=1 n=d#7 v=0
71460 On ch=1 n=f7 v=90
71520 On ch=1 n=f7 v=0
71520 On ch=1 n=b5 v=0
71520 On ch=1 n=c#6 v=0
71708 On ch=1 n=f7 v=100
71772 On ch=1 n=f7 v=0
71804 On ch=1 n=b7 v=100
71864 On ch=1 n=c#8 v=100
71868 On ch=1 n=b7 v=0
71928 On ch=1 n=c#8 v=0
71936 On ch=1 n=d#8 v=100
72000 On ch=1 n=d#8 v=0
72000 On ch=1 n=f8 v=120
72032 On ch=1 n=d#8 v=120
72060 On ch=1 n=f8 v=0
72092 On ch=1 n=d#8 v=0
72092 On ch=1 n=c#8 v=120
72148 On ch=1 n=b7 v=120
72152 On ch=1 n=c#8 v=0
72196 On ch=1 n=f7 v=120
72208 On ch=1 n=b7 v=0
72256 On ch=1 n=f7 v=0
72480 On ch=1 n=f7 v=120
72512 On ch=1 n=d#7 v=120
72540 On ch=1 n=f7 v=0
72572 On ch=1 n=d#7 v=0
72572 On ch=1 n=c#7 v=120
72628 On ch=1 n=b6 v=120
72632 On ch=1 n=c#7 v=0
72676 On ch=1 n=f6 v=120
72688 On ch=1 n=b6 v=0
72736 On ch=1 n=f6 v=0
72960 On ch=1 n=f6 v=120
72992 On ch=1 n=d#6 v=120
73020 On ch=1 n=f6 v=0
73052 On ch=1 n=d#6 v=0
73052 On ch=1 n=c#6 v=120
73108 On ch=1 n=b5 v=120
73112 On ch=1 n=c#6 v=0
73156 On ch=1 n=f5 v=120
73168 On ch=1 n=b5 v=0
73216 On ch=1 n=f5 v=0
73440 On ch=1 n=f5 v=120
73472 On ch=1 n=d#5 v=120
73500 On ch=1 n=f5 v=0
73532 On ch=1 n=d#5 v=0
73532 On ch=1 n=c#5 v=120
73588 On ch=1 n=b4 v=120
73592 On ch=1 n=c#5 v=0
73636 On ch=1 n=f4 v=120
73648 On ch=1 n=b4 v=0
73696 On ch=1 n=f4 v=0
73920 On ch=1 n=f5 v=110
73980 On ch=1 n=f5 v=0
73980 On ch=1 n=d#5 v=110
74040 On ch=1 n=d#5 v=0
74040 On ch=1 n=c#5 v=110
74100 On ch=1 n=c#5 v=0
74100 On ch=1 n=b4 v=110
74160 On ch=1 n=b4 v=0
74160 On ch=1 n=f4 v=110
74220 On ch=1 n=f4 v=0
74700 On ch=1 n=b4 v=100
74760 On ch=1 n=b4 v=0
74760 On ch=1 n=c#5 v=100
74820 On ch=1 n=c#5 v=0
74820 On ch=1 n=d#5 v=100
74880 On ch=1 n=d#5 v=0
74880 On ch=1 n=f5 v=90
74940 On ch=1 n=f5 v=0
74940 On ch=1 n=d#5 v=90
75000 On ch=1 n=d#5 v=0
75000 On ch=1 n=c#5 v=90
75060 On ch=1 n=c#5 v=0
75060 On ch=1 n=b4 v=90
75120 On ch=1 n=b4 v=0
75120 On ch=1 n=f4 v=90
75180 On ch=1 n=f4 v=0
75660 On ch=1 n=b4 v=80
75720 On ch=1 n=b4 v=0
75720 On ch=1 n=c#5 v=80
75780 On ch=1 n=c#5 v=0
75780 On ch=1 n=d#5 v=80
75840 On ch=1 n=d#5 v=0
77640 On ch=1 n=a#5 v=50
77700 On ch=1 n=a#5 v=0
77700 On ch=1 n=a#5 v=60
77760 On ch=1 n=a#5 v=0
77760 On ch=1 n=d#6 v=60
78480 On ch=1 n=d#6 v=0
79080 On ch=1 n=a#7 v=60
79140 On ch=1 n=a#7 v=0
79140 On ch=1 n=a#7 v=60
79200 On ch=1 n=a#7 v=0
79200 On ch=1 n=d#8 v=60
79260 On ch=1 n=d#8 v=0
79320 On ch=1 n=a#6 v=60
79380 On ch=1 n=a#6 v=0
79440 On ch=1 n=d#7 v=60
79500 On ch=1 n=d#7 v=0
79560 On ch=1 n=c6 v=60
79620 On ch=1 n=c6 v=0
79680 On ch=1 n=a#5 v=60
79720 On ch=1 n=a#5 v=0
79760 On ch=1 n=a#5 v=60
79800 On ch=1 n=a#5 v=0
79840 On ch=1 n=f6 v=60
79880 On ch=1 n=f6 v=0
79920 On ch=1 n=d#6 v=60
80640 On ch=1 n=d#6 v=0
81000 On ch=1 n=a#7 v=60
81060 On ch=1 n=a#7 v=0
81060 On ch=1 n=a#7 v=60
81120 On ch=1 n=a#7 v=0
81120 On ch=1 n=d#8 v=60
81180 On ch=1 n=d#8 v=0
81240 On ch=1 n=a#6 v=60
81300 On ch=1 n=a#6 v=0
81360 On ch=1 n=d#7 v=60
81420 On ch=1 n=d#7 v=0
81480 On ch=1 n=c6 v=60
81540 On ch=1 n=c6 v=0
81720 On ch=1 n=a#5 v=80
81780 On ch=1 n=a#5 v=0
81840 On ch=1 n=f#6 v=80
81900 On ch=1 n=f#6 v=0
81960 On ch=1 n=e6 v=80
82020 On ch=1 n=e6 v=0
82080 On ch=1 n=g6 v=80
82140 On ch=1 n=g6 v=0
82200 On ch=1 n=f6 v=80
82260 On ch=1 n=f6 v=0
82320 On ch=1 n=b5 v=80
82380 On ch=1 n=b5 v=0
82560 On ch=1 n=g#5 v=80
82560 On ch=1 n=f#5 v=80
82560 On ch=1 n=c5 v=80
82560 On ch=1 n=c6 v=80
82680 On ch=1 n=c6 v=0
82680 On ch=1 n=c5 v=0
82680 On ch=1 n=f#5 v=0
82680 On ch=1 n=g#5 v=0
82680 On ch=1 n=g#6 v=80
82680 On ch=1 n=g#5 v=80
83040 On ch=1 n=g#5 v=0
83040 On ch=1 n=g#6 v=0
83040 On ch=1 n=g#6 v=80
83040 On ch=1 n=f#6 v=80
83040 On ch=1 n=c6 v=80
83040 On ch=1 n=c7 v=80
83160 On ch=1 n=c7 v=0
83160 On ch=1 n=c6 v=0
83160 On ch=1 n=f#6 v=0
83160 On ch=1 n=g#6 v=0
83160 On ch=1 n=g#7 v=80
83160 On ch=1 n=g#6 v=80
83520 On ch=1 n=g#6 v=0
83520 On ch=1 n=g#7 v=0
83520 On ch=1 n=b7 v=100
83520 On ch=1 n=f#7 v=100
83520 On ch=1 n=d#7 v=100
83520 On ch=1 n=b6 v=100
83680 On ch=1 n=b6 v=0
83680 On ch=1 n=d#7 v=0
83680 On ch=1 n=f#7 v=0
83680 On ch=1 n=b7 v=0
83680 On ch=1 n=a7 v=100
83680 On ch=1 n=f#7 v=100
83680 On ch=1 n=d#7 v=100
83680 On ch=1 n=a6 v=100
83840 On ch=1 n=a6 v=0
83840 On ch=1 n=d#7 v=0
83840 On ch=1 n=f#7 v=0
83840 On ch=1 n=a7 v=0
84000 On ch=1 n=b6 v=100
84000 On ch=1 n=f#6 v=100
84000 On ch=1 n=d#6 v=100
84000 On ch=1 n=b5 v=100
84160 On ch=1 n=b5 v=0
84160 On ch=1 n=d#6 v=0
84160 On ch=1 n=f#6 v=0
84160 On ch=1 n=b6 v=0
84160 On ch=1 n=a6 v=100
84160 On ch=1 n=f#6 v=100
84160 On ch=1 n=d#6 v=100
84160 On ch=1 n=a5 v=100
84320 On ch=1 n=a5 v=0
84320 On ch=1 n=d#6 v=0
84320 On ch=1 n=f#6 v=0
84320 On ch=1 n=a6 v=0
84480 On ch=1 n=g#5 v=80
84480 On ch=1 n=f#5 v=80
84480 On ch=1 n=c5 v=80
84480 On ch=1 n=c6 v=80
84600 On ch=1 n=c6 v=0
84600 On ch=1 n=c5 v=0
84600 On ch=1 n=f#5 v=0
84600 On ch=1 n=g#5 v=0
84600 On ch=1 n=g#6 v=80
84600 On ch=1 n=g#5 v=80
84960 On ch=1 n=g#5 v=0
84960 On ch=1 n=g#6 v=0
84960 On ch=1 n=g#6 v=80
84960 On ch=1 n=f#6 v=80
84960 On ch=1 n=c6 v=80
84960 On ch=1 n=c7 v=80
85080 On ch=1 n=c7 v=0
85080 On ch=1 n=c6 v=0
85080 On ch=1 n=f#6 v=0
85080 On ch=1 n=g#6 v=0
85080 On ch=1 n=g#7 v=80
85080 On ch=1 n=g#6 v=80
85440 On ch=1 n=g#6 v=0
85440 On ch=1 n=g#7 v=0
85440 On ch=1 n=b7 v=100
85440 On ch=1 n=f#7 v=100
85440 On ch=1 n=d#7 v=100
85440 On ch=1 n=b6 v=100
85600 On ch=1 n=b6 v=0
85600 On ch=1 n=d#7 v=0
85600 On ch=1 n=f#7 v=0
85600 On ch=1 n=b7 v=0
85600 On ch=1 n=a7 v=100
85600 On ch=1 n=f#7 v=100
85600 On ch=1 n=d#7 v=100
85600 On ch=1 n=a6 v=100
85760 On ch=1 n=a6 v=0
85760 On ch=1 n=d#7 v=0
85760 On ch=1 n=f#7 v=0
85760 On ch=1 n=a7 v=0
85920 On ch=1 n=b6 v=100
85920 On ch=1 n=f#6 v=100
85920 On ch=1 n=d#6 v=100
85920 On ch=1 n=b5 v=100
86080 On ch=1 n=b5 v=0
86080 On ch=1 n=d#6 v=0
86080 On ch=1 n=f#6 v=0
86080 On ch=1 n=b6 v=0
86080 On ch=1 n=a6 v=100
86080 On ch=1 n=f#6 v=100
86080 On ch=1 n=d#6 v=100
86080 On ch=1 n=a5 v=100
86240 On ch=1 n=a5 v=0
86240 On ch=1 n=d#6 v=0
86240 On ch=1 n=f#6 v=0
86240 On ch=1 n=a6 v=0
88320 On ch=1 n=b7 v=80
88320 On ch=1 n=f#7 v=80
88320 On ch=1 n=d#7 v=80
88320 On ch=1 n=b6 v=80
88480 On ch=1 n=b6 v=0
88480 On ch=1 n=d#7 v=0
88480 On ch=1 n=f#7 v=0
88480 On ch=1 n=b7 v=0
88480 On ch=1 n=a7 v=80
88480 On ch=1 n=f#7 v=80
88480 On ch=1 n=d#7 v=80
88480 On ch=1 n=a6 v=80
88640 On ch=1 n=a6 v=0
88640 On ch=1 n=d#7 v=0
88640 On ch=1 n=f#7 v=0
88640 On ch=1 n=a7 v=0
88800 On ch=1 n=b6 v=70
88800 On ch=1 n=f#6 v=70
88800 On ch=1 n=d#6 v=70
88800 On ch=1 n=b5 v=70
88960 On ch=1 n=b5 v=0
88960 On ch=1 n=d#6 v=0
88960 On ch=1 n=f#6 v=0
88960 On ch=1 n=b6 v=0
88960 On ch=1 n=a6 v=70
88960 On ch=1 n=f#6 v=70
88960 On ch=1 n=d#6 v=70
88960 On ch=1 n=a5 v=70
89120 On ch=1 n=a5 v=0
89120 On ch=1 n=d#6 v=0
89120 On ch=1 n=f#6 v=0
89120 On ch=1 n=a6 v=0
96000 On ch=1 n=g6 v=70
96000 On ch=1 n=d#6 v=70
96000 On ch=1 n=c6 v=70
96000 On ch=1 n=g5 v=70
96160 On ch=1 n=g5 v=0
96160 On ch=1 n=c6 v=0
96160 On ch=1 n=d#6 v=0
96160 On ch=1 n=g6 v=0
96160 On ch=1 n=f#6 v=70
96160 On ch=1 n=d#6 v=70
96160 On ch=1 n=c6 v=70
96160 On ch=1 n=f#5 v=70
96240 On ch=1 n=f#5 v=0
96240 On ch=1 n=c6 v=0
96240 On ch=1 n=d#6 v=0
96240 On ch=1 n=f#6 v=0
96480 On ch=1 n=g6 v=80
96480 On ch=1 n=d6 v=80
96480 On ch=1 n=b5 v=80
96480 On ch=1 n=g5 v=80
96640 On ch=1 n=g5 v=0
96640 On ch=1 n=b5 v=0
96640 On ch=1 n=d6 v=0
96640 On ch=1 n=g6 v=0
96640 On ch=1 n=f6 v=80
96640 On ch=1 n=d6 v=80
96640 On ch=1 n=b5 v=80
96640 On ch=1 n=f5 v=80
96720 On ch=1 n=f5 v=0
96720 On ch=1 n=b5 v=0
96720 On ch=1 n=d6 v=0
96720 On ch=1 n=f6 v=0
96960 On ch=1 n=g6 v=90
96960 On ch=1 n=d#6 v=90
96960 On ch=1 n=c6 v=90
96960 On ch=1 n=g5 v=90
97120 On ch=1 n=g5 v=0
97120 On ch=1 n=c6 v=0
97120 On ch=1 n=d#6 v=0
97120 On ch=1 n=g6 v=0
97120 On ch=1 n=f#6 v=90
97120 On ch=1 n=d#6 v=90
97120 On ch=1 n=c6 v=90
97120 On ch=1 n=f#5 v=90
97200 On ch=1 n=f#5 v=0
97200 On ch=1 n=c6 v=0
97200 On ch=1 n=d#6 v=0
97200 On ch=1 n=f#6 v=0
97440 On ch=1 n=g6 v=100
97440 On ch=1 n=d6 v=100
97440 On ch=1 n=b5 v=100
97440 On ch=1 n=g5 v=100
97600 On ch=1 n=g5 v=0
97600 On ch=1 n=b5 v=0
97600 On ch=1 n=d6 v=0
97600 On ch=1 n=g6 v=0
97600 On ch=1 n=f6 v=100
97600 On ch=1 n=d6 v=100
97600 On ch=1 n=b5 v=100
97600 On ch=1 n=f5 v=100
97680 On ch=1 n=f5 v=0
97680 On ch=1 n=b5 v=0
97680 On ch=1 n=d6 v=0
97680 On ch=1 n=f6 v=0
98240 On ch=1 n=a#7 v=100
98240 On ch=1 n=g#7 v=100
98400 On ch=1 n=g#7 v=0
98400 On ch=1 n=a#7 v=0
99040 On ch=1 n=d5 v=40
99040 On ch=1 n=c5 v=40
99200 On ch=1 n=c5 v=0
99200 On ch=1 n=d5 v=0
99200 On ch=1 n=d6 v=40
99200 On ch=1 n=c6 v=40
99360 On ch=1 n=c6 v=0
99360 On ch=1 n=d6 v=0
99520 On ch=1 n=e6 v=40
99520 On ch=1 n=d6 v=40
99680 On ch=1 n=d6 v=0
99680 On ch=1 n=e6 v=0
99680 On ch=1 n=e7 v=40
99680 On ch=1 n=d7 v=40
99840 On ch=1 n=d7 v=0
99840 On ch=1 n=e7 v=0
100160 On ch=1 n=a#7 v=100
100160 On ch=1 n=g#7 v=100
100320 On ch=1 n=g#7 v=0
100320 On ch=1 n=a#7 v=0
100960 On ch=1 n=d5 v=40
100960 On ch=1 n=c5 v=40
101120 On ch=1 n=c5 v=0
101120 On ch=1 n=d5 v=0
101120 On ch=1 n=d6 v=40
101120 On ch=1 n=c6 v=40
101280 On ch=1 n=c6 v=0
101280 On ch=1 n=d6 v=0
101440 On ch=1 n=e6 v=40
101440 On ch=1 n=d6 v=40
101600 On ch=1 n=d6 v=0
101600 On ch=1 n=e6 v=0
101600 On ch=1 n=e7 v=40
101600 On ch=1 n=d7 v=40
101760 On ch=1 n=d7 v=0
101760 On ch=1 n=e7 v=0
101920 On ch=1 n=d5 v=40
101920 On ch=1 n=c5 v=40
102080 On ch=1 n=c5 v=0
102080 On ch=1 n=d5 v=0
102080 On ch=1 n=d6 v=40
102080 On ch=1 n=c6 v=40
102240 On ch=1 n=c6 v=0
102240 On ch=1 n=d6 v=0
102400 On ch=1 n=e6 v=40
102400 On ch=1 n=d6 v=40
102560 On ch=1 n=d6 v=0
102560 On ch=1 n=e6 v=0
102560 On ch=1 n=e7 v=40
102560 On ch=1 n=d7 v=40
102720 On ch=1 n=d7 v=0
102720 On ch=1 n=e7 v=0
102880 On ch=1 n=d5 v=40
102880 On ch=1 n=c5 v=40
103040 On ch=1 n=c5 v=0
103040 On ch=1 n=d5 v=0
103040 On ch=1 n=d6 v=40
103040 On ch=1 n=c6 v=40
103200 On ch=1 n=c6 v=0
103200 On ch=1 n=d6 v=0
103360 On ch=1 n=e6 v=40
103360 On ch=1 n=d6 v=40
103520 On ch=1 n=d6 v=0
103520 On ch=1 n=e6 v=0
103520 On ch=1 n=e7 v=40
103520 On ch=1 n=d7 v=40
103680 On ch=1 n=d7 v=0
103680 On ch=1 n=e7 v=0
103840 On ch=1 n=d5 v=40
103840 On ch=1 n=c5 v=40
104000 On ch=1 n=c5 v=0
104000 On ch=1 n=d5 v=0
104000 On ch=1 n=d6 v=40
104000 On ch=1 n=c6 v=40
104160 On ch=1 n=c6 v=0
104160 On ch=1 n=d6 v=0
104320 On ch=1 n=e6 v=40
104320 On ch=1 n=d6 v=40
104480 On ch=1 n=d6 v=0
104480 On ch=1 n=e6 v=0
104480 On ch=1 n=e7 v=40
104480 On ch=1 n=d7 v=40
104640 On ch=1 n=d7 v=0
104640 On ch=1 n=e7 v=0
104800 On ch=1 n=d5 v=40
104800 On ch=1 n=c5 v=40
104960 On ch=1 n=c5 v=0
104960 On ch=1 n=d5 v=0
104960 On ch=1 n=d6 v=40
104960 On ch=1 n=c6 v=40
105120 On ch=1 n=c6 v=0
105120 On ch=1 n=d6 v=0
105280 On ch=1 n=e6 v=40
105280 On ch=1 n=d6 v=40
105440 On ch=1 n=d6 v=0
105440 On ch=1 n=e6 v=0
105440 On ch=1 n=e7 v=40
105440 On ch=1 n=d7 v=40
105600 On ch=1 n=d7 v=0
105600 On ch=1 n=e7 v=0
105600 On ch=1 n=c#7 v=60
105628 On ch=1 n=g#6 v=40
105660 On ch=1 n=g#6 v=0
105660 On ch=1 n=f#6 v=40
105688 On ch=1 n=d6 v=40
105692 On ch=1 n=f#6 v=0
105720 On ch=1 n=d6 v=0
105840 On ch=1 n=c#7 v=0
106080 On ch=1 n=c#6 v=60
106108 On ch=1 n=g#5 v=40
106140 On ch=1 n=g#5 v=0
106140 On ch=1 n=f#5 v=40
106168 On ch=1 n=d5 v=40
106172 On ch=1 n=f#5 v=0
106200 On ch=1 n=d5 v=0
106320 On ch=1 n=c#6 v=0
106560 On ch=1 n=c6 v=60
106588 On ch=1 n=g#5 v=40
106620 On ch=1 n=g#5 v=0
106620 On ch=1 n=f#5 v=40
106648 On ch=1 n=d5 v=40
106652 On ch=1 n=f#5 v=0
106680 On ch=1 n=d5 v=0
106800 On ch=1 n=c6 v=0
107040 On ch=1 n=b6 v=60
107068 On ch=1 n=g#6 v=40
107100 On ch=1 n=g#6 v=0
107100 On ch=1 n=f#6 v=40
107128 On ch=1 n=d6 v=40
107132 On ch=1 n=f#6 v=0
107160 On ch=1 n=d6 v=0
107280 On ch=1 n=b6 v=0
107520 On ch=1 n=c#7 v=60
107548 On ch=1 n=g#6 v=40
107580 On ch=1 n=g#6 v=0
107580 On ch=1 n=f#6 v=40
107608 On ch=1 n=d6 v=40
107612 On ch=1 n=f#6 v=0
107640 On ch=1 n=d6 v=0
107760 On ch=1 n=c#7 v=0
108000 On ch=1 n=c#6 v=60
108028 On ch=1 n=g#5 v=40
108060 On ch=1 n=g#5 v=0
108060 On ch=1 n=f#5 v=40
108088 On ch=1 n=d5 v=40
108092 On ch=1 n=f#5 v=0
108120 On ch=1 n=d5 v=0
108240 On ch=1 n=c#6 v=0
108480 On ch=1 n=d6 v=60
108508 On ch=1 n=g#5 v=40
108544 On ch=1 n=g#5 v=0
108544 On ch=1 n=f#5 v=40
108572 On ch=1 n=d5 v=40
108580 On ch=1 n=f#5 v=0
108608 On ch=1 n=d5 v=0
108720 On ch=1 n=d6 v=0
108960 On ch=1 n=d7 v=60
108988 On ch=1 n=g#6 v=40
109024 On ch=1 n=g#6 v=0
109024 On ch=1 n=f#6 v=40
109052 On ch=1 n=d6 v=40
109060 On ch=1 n=f#6 v=0
109088 On ch=1 n=d6 v=0
109200 On ch=1 n=d7 v=0
109440 On ch=1 n=f#7 v=60
109468 On ch=1 n=c#7 v=40
109500 On ch=1 n=c#7 v=0
109500 On ch=1 n=g#6 v=40
109528 On ch=1 n=f#6 v=40
109532 On ch=1 n=g#6 v=0
109560 On ch=1 n=f#6 v=0
109680 On ch=1 n=f#7 v=0
109920 On ch=1 n=f#6 v=60
109948 On ch=1 n=c#6 v=40
109980 On ch=1 n=c#6 v=0
109980 On ch=1 n=g#5 v=40
110008 On ch=1 n=f#5 v=40
110012 On ch=1 n=g#5 v=0
110040 On ch=1 n=f#5 v=0
110160 On ch=1 n=f#6 v=0
110400 On ch=1 n=e6 v=60
110428 On ch=1 n=c6 v=40
110460 On ch=1 n=c6 v=0
110460 On ch=1 n=g#5 v=40
110488 On ch=1 n=e5 v=40
110492 On ch=1 n=g#5 v=0
110520 On ch=1 n=e5 v=0
110640 On ch=1 n=e6 v=0
110880 On ch=1 n=e7 v=60
110908 On ch=1 n=c7 v=40
110940 On ch=1 n=c7 v=0
110940 On ch=1 n=g#6 v=40
110968 On ch=1 n=e6 v=40
110972 On ch=1 n=g#6 v=0
111000 On ch=1 n=e6 v=0
111120 On ch=1 n=e7 v=0
111360 On ch=1 n=g#7 v=60
111388 On ch=1 n=d#7 v=40
111420 On ch=1 n=d#7 v=0
111420 On ch=1 n=a#6 v=40
111448 On ch=1 n=g#6 v=40
111452 On ch=1 n=a#6 v=0
111480 On ch=1 n=g#6 v=0
111600 On ch=1 n=g#7 v=0
111840 On ch=1 n=g#6 v=60
111868 On ch=1 n=d#6 v=40
111900 On ch=1 n=d#6 v=0
111900 On ch=1 n=a#5 v=40
111928 On ch=1 n=g#5 v=40
111932 On ch=1 n=a#5 v=0
111960 On ch=1 n=g#5 v=0
112080 On ch=1 n=g#6 v=0
112320 On ch=1 n=f#6 v=60
112348 On ch=1 n=d6 v=40
112380 On ch=1 n=d6 v=0
112380 On ch=1 n=a#5 v=40
112408 On ch=1 n=f#5 v=40
112412 On ch=1 n=a#5 v=0
112440 On ch=1 n=f#5 v=0
112560 On ch=1 n=f#6 v=0
112800 On ch=1 n=f#7 v=60
112828 On ch=1 n=d7 v=40
112860 On ch=1 n=d7 v=0
112860 On ch=1 n=a#6 v=40
112888 On ch=1 n=f#6 v=40
112892 On ch=1 n=a#6 v=0
112920 On ch=1 n=f#6 v=0
113040 On ch=1 n=f#7 v=0
113280 On ch=1 n=c8 v=40
113280 On ch=1 n=g7 v=40
113280 On ch=1 n=e7 v=40
113280 On ch=1 n=c7 v=40
113980 On ch=1 n=c5 v=40
114012 On ch=1 n=c5 v=0
114016 On ch=1 n=d5 v=40
114044 On ch=1 n=e5 v=40
114048 On ch=1 n=d5 v=0
114076 On ch=1 n=e5 v=0
114076 On ch=1 n=f5 v=40
114108 On ch=1 n=f5 v=0
114108 On ch=1 n=g5 v=40
114140 On ch=1 n=g5 v=0
114140 On ch=1 n=a5 v=40
114172 On ch=1 n=a5 v=0
114172 On ch=1 n=b5 v=40
114204 On ch=1 n=b5 v=0
114208 On ch=1 n=c6 v=40
114240 On ch=1 n=c6 v=0
114240 On ch=1 n=c7 v=0
114240 On ch=1 n=e7 v=0
114240 On ch=1 n=g7 v=0
114240 On ch=1 n=c8 v=0
114600 On ch=1 n=e6 v=50
114600 On ch=1 n=b5 v=50
114600 On ch=1 n=g#5 v=50
114600 On ch=1 n=e5 v=50
114720 On ch=1 n=e5 v=0
114720 On ch=1 n=g#5 v=0
114720 On ch=1 n=b5 v=0
114720 On ch=1 n=e6 v=0
114720 On ch=1 n=a#4 v=60
114720 On ch=1 n=d5 v=60
114720 On ch=1 n=f5 v=60
114720 On ch=1 n=a#5 v=60
115200 On ch=1 n=a#5 v=0
115200 On ch=1 n=f5 v=0
115200 On ch=1 n=d5 v=0
115200 On ch=1 n=a#4 v=0
115200 On ch=1 n=c8 v=40
115200 On ch=1 n=g7 v=40
115200 On ch=1 n=e7 v=40
115200 On ch=1 n=c7 v=40
115900 On ch=1 n=c5 v=40
115932 On ch=1 n=c5 v=0
115936 On ch=1 n=d5 v=40
115964 On ch=1 n=e5 v=40
115968 On ch=1 n=d5 v=0
115996 On ch=1 n=e5 v=0
115996 On ch=1 n=f5 v=40
116028 On ch=1 n=f5 v=0
116028 On ch=1 n=g5 v=40
116060 On ch=1 n=g5 v=0
116060 On ch=1 n=a5 v=40
116092 On ch=1 n=a5 v=0
116092 On ch=1 n=b5 v=40
116124 On ch=1 n=b5 v=0
116128 On ch=1 n=c6 v=40
116160 On ch=1 n=c6 v=0
116160 On ch=1 n=c7 v=0
116160 On ch=1 n=e7 v=0
116160 On ch=1 n=g7 v=0
116160 On ch=1 n=c8 v=0
116520 On ch=1 n=e6 v=50
116520 On ch=1 n=b5 v=50
116520 On ch=1 n=g#5 v=50
116520 On ch=1 n=e5 v=50
116640 On ch=1 n=e5 v=0
116640 On ch=1 n=g#5 v=0
116640 On ch=1 n=b5 v=0
116640 On ch=1 n=e6 v=0
116880 On ch=1 n=g6 v=60
116880 On ch=1 n=d6 v=60
116880 On ch=1 n=b5 v=60
116880 On ch=1 n=g5 v=60
117000 On ch=1 n=g5 v=0
117000 On ch=1 n=b5 v=0
117000 On ch=1 n=d6 v=0
117000 On ch=1 n=g6 v=0
117120 On ch=1 n=d#8 v=40
117120 On ch=1 n=a#7 v=40
117120 On ch=1 n=f#7 v=40
117120 On ch=1 n=d#7 v=40
117808 On ch=1 n=d#5 v=40
117852 On ch=1 n=f#5 v=40
117856 On ch=1 n=d#5 v=0
117896 On ch=1 n=g#5 v=40
117900 On ch=1 n=f#5 v=0
117944 On ch=1 n=g#5 v=0
117944 On ch=1 n=a#5 v=40
117984 On ch=1 n=c#6 v=40
117992 On ch=1 n=a#5 v=0
118032 On ch=1 n=c#6 v=0
118032 On ch=1 n=d#6 v=40
118080 On ch=1 n=d#6 v=0
118080 On ch=1 n=d#7 v=0
118080 On ch=1 n=f#7 v=0
118080 On ch=1 n=a#7 v=0
118080 On ch=1 n=d#8 v=0
118440 On ch=1 n=g6 v=50
118440 On ch=1 n=d6 v=50
118440 On ch=1 n=b5 v=50
118440 On ch=1 n=g5 v=50
118560 On ch=1 n=g5 v=0
118560 On ch=1 n=b5 v=0
118560 On ch=1 n=d6 v=0
118560 On ch=1 n=g6 v=0
119040 On ch=1 n=d#8 v=40
119040 On ch=1 n=a#7 v=40
119040 On ch=1 n=f#7 v=40
119040 On ch=1 n=d#7 v=40
119728 On ch=1 n=d#5 v=40
119772 On ch=1 n=f#5 v=40
119776 On ch=1 n=d#5 v=0
119816 On ch=1 n=g#5 v=40
119820 On ch=1 n=f#5 v=0
119864 On ch=1 n=g#5 v=0
119864 On ch=1 n=a#5 v=40
119904 On ch=1 n=c#6 v=40
119912 On ch=1 n=a#5 v=0
119952 On ch=1 n=c#6 v=0
119952 On ch=1 n=d#6 v=40
120000 On ch=1 n=d#6 v=0
120000 On ch=1 n=d#7 v=0
120000 On ch=1 n=f#7 v=0
120000 On ch=1 n=a#7 v=0
120000 On ch=1 n=d#8 v=0
120360 On ch=1 n=g6 v=50
120360 On ch=1 n=d6 v=50
120360 On ch=1 n=b5 v=50
120360 On ch=1 n=g5 v=50
120480 On ch=1 n=g5 v=0
120480 On ch=1 n=b5 v=0
120480 On ch=1 n=d6 v=0
120480 On ch=1 n=g6 v=0
120720 On ch=1 n=c#7 v=60
120720 On ch=1 n=c#8 v=60
120960 On ch=1 n=c#8 v=0
120960 On ch=1 n=c#7 v=0
120960 On ch=1 n=d#8 v=40
120980 On ch=1 n=c#8 v=40
120988 On ch=1 n=d#8 v=0
121008 On ch=1 n=c#8 v=0
121008 On ch=1 n=b7 v=40
121032 On ch=1 n=g#7 v=40
121036 On ch=1 n=b7 v=0
121060 On ch=1 n=g#7 v=0
121064 On ch=1 n=c#7 v=40
121092 On ch=1 n=c#7 v=0
121200 On ch=1 n=d#7 v=40
121220 On ch=1 n=c#7 v=40
121228 On ch=1 n=d#7 v=0
121248 On ch=1 n=c#7 v=0
121248 On ch=1 n=b6 v=40
121272 On ch=1 n=g#6 v=40
121276 On ch=1 n=b6 v=0
121300 On ch=1 n=g#6 v=0
121304 On ch=1 n=c#6 v=40
121332 On ch=1 n=c#6 v=0
121440 On ch=1 n=d#6 v=40
121460 On ch=1 n=c#6 v=40
121468 On ch=1 n=d#6 v=0
121488 On ch=1 n=c#6 v=0
121488 On ch=1 n=b5 v=40
121512 On ch=1 n=g#5 v=40
121516 On ch=1 n=b5 v=0
121540 On ch=1 n=g#5 v=0
121544 On ch=1 n=c#5 v=40
121572 On ch=1 n=c#5 v=0
121920 On ch=1 n=g#6 v=60
121920 On ch=1 n=g#5 v=60
122880 On ch=1 n=g#5 v=0
122880 On ch=1 n=g#6 v=0
122880 On ch=1 n=d#8 v=40
122900 On ch=1 n=c#8 v=40
122908 On ch=1 n=d#8 v=0
122928 On ch=1 n=c#8 v=0
122928 On ch=1 n=b7 v=40
122952 On ch=1 n=g#7 v=40
122956 On ch=1 n=b7 v=0
122980 On ch=1 n=g#7 v=0
122984 On ch=1 n=c#7 v=40
123012 On ch=1 n=c#7 v=0
123120 On ch=1 n=d#7 v=40
123140 On ch=1 n=c#7 v=40
123148 On ch=1 n=d#7 v=0
123168 On ch=1 n=c#7 v=0
123168 On ch=1 n=b6 v=40
123192 On ch=1 n=g#6 v=40
123196 On ch=1 n=b6 v=0
123220 On ch=1 n=g#6 v=0
123224 On ch=1 n=c#6 v=40
123252 On ch=1 n=c#6 v=0
123360 On ch=1 n=d#6 v=40
123380 On ch=1 n=c#6 v=40
123388 On ch=1 n=d#6 v=0
123408 On ch=1 n=c#6 v=0
123408 On ch=1 n=b5 v=40
123432 On ch=1 n=g#5 v=40
123436 On ch=1 n=b5 v=0
123460 On ch=1 n=g#5 v=0
123464 On ch=1 n=c#5 v=40
123492 On ch=1 n=c#5 v=0
123960 On ch=1 n=a#6 v=60
123960 On ch=1 n=a#5 v=60
124080 On ch=1 n=a#5 v=0
124080 On ch=1 n=a#6 v=0
124960 On ch=1 n=a#6 v=110
124960 On ch=1 n=a#5 v=110
125040 On ch=1 n=a#5 v=0
125040 On ch=1 n=a#6 v=0
125120 On ch=1 n=b6 v=110
125120 On ch=1 n=b5 v=110
125200 On ch=1 n=b5 v=0
125200 On ch=1 n=b6 v=0
127260 On ch=1 n=f7 v=110
127320 On ch=1 n=f7 v=0
127320 On ch=1 n=a7 v=110
127380 On ch=1 n=a7 v=0
127380 On ch=1 n=c8 v=110
127440 On ch=1 n=c8 v=0
127440 On ch=1 n=f8 v=110
128220 On ch=1 n=f8 v=0
128220 On ch=1 n=c8 v=40
128280 On ch=1 n=c8 v=0
128280 On ch=1 n=a7 v=40
128340 On ch=1 n=a7 v=0
128340 On ch=1 n=f7 v=40
128400 On ch=1 n=f7 v=0
128400 On ch=1 n=f8 v=40
128460 On ch=1 n=f8 v=0
128460 On ch=1 n=c8 v=40
128520 On ch=1 n=c8 v=0
128520 On ch=1 n=a7 v=40
128580 On ch=1 n=a7 v=0
128580 On ch=1 n=f7 v=40
128640 On ch=1 n=f7 v=0
128640 On ch=1 n=f8 v=40
128700 On ch=1 n=f8 v=0
128700 On ch=1 n=c8 v=40
128760 On ch=1 n=c8 v=0
128760 On ch=1 n=a7 v=40
128820 On ch=1 n=a7 v=0
128820 On ch=1 n=f7 v=40
128880 On ch=1 n=f7 v=0
128880 On ch=1 n=f8 v=40
128940 On ch=1 n=f8 v=0
128940 On ch=1 n=c8 v=40
129000 On ch=1 n=c8 v=0
129000 On ch=1 n=a7 v=40
129060 On ch=1 n=a7 v=0
129060 On ch=1 n=f7 v=40
129120 On ch=1 n=f7 v=0
129120 On ch=1 n=f8 v=60
129180 On ch=1 n=f8 v=0
129180 On ch=1 n=c8 v=60
129240 On ch=1 n=c8 v=0
129240 On ch=1 n=a7 v=60
129300 On ch=1 n=a7 v=0
129300 On ch=1 n=f7 v=60
129360 On ch=1 n=f7 v=0
129360 On ch=1 n=f8 v=60
129420 On ch=1 n=f8 v=0
129420 On ch=1 n=c8 v=60
129480 On ch=1 n=c8 v=0
129480 On ch=1 n=a7 v=60
129540 On ch=1 n=a7 v=0
129540 On ch=1 n=f7 v=60
129600 On ch=1 n=f7 v=0
129600 On ch=1 n=f8 v=70
129660 On ch=1 n=f8 v=0
129660 On ch=1 n=c8 v=70
129720 On ch=1 n=c8 v=0
129720 On ch=1 n=a7 v=70
129780 On ch=1 n=a7 v=0
129780 On ch=1 n=f7 v=70
129840 On ch=1 n=f7 v=0
129840 On ch=1 n=f8 v=70
129900 On ch=1 n=f8 v=0
129900 On ch=1 n=c8 v=70
129960 On ch=1 n=c8 v=0
129960 On ch=1 n=a7 v=70
130020 On ch=1 n=a7 v=0
130020 On ch=1 n=f7 v=70
130080 On ch=1 n=f7 v=0
130080 On ch=1 n=f7 v=80
130140 On ch=1 n=f7 v=0
130140 On ch=1 n=c7 v=80
130200 On ch=1 n=c7 v=0
130200 On ch=1 n=a6 v=80
130260 On ch=1 n=a6 v=0
130260 On ch=1 n=f6 v=80
130320 On ch=1 n=f6 v=0
130320 On ch=1 n=f7 v=80
130380 On ch=1 n=f7 v=0
130380 On ch=1 n=c7 v=80
130440 On ch=1 n=c7 v=0
130440 On ch=1 n=a6 v=80
130500 On ch=1 n=a6 v=0
130500 On ch=1 n=f6 v=80
130560 On ch=1 n=f6 v=0
130560 On ch=1 n=f6 v=90
130620 On ch=1 n=f6 v=0
130620 On ch=1 n=c6 v=90
130680 On ch=1 n=c6 v=0
130680 On ch=1 n=a5 v=90
130740 On ch=1 n=a5 v=0
130740 On ch=1 n=f5 v=90
130800 On ch=1 n=f5 v=0
130800 On ch=1 n=f6 v=90
130860 On ch=1 n=f6 v=0
130860 On ch=1 n=c6 v=90
130920 On ch=1 n=c6 v=0
130920 On ch=1 n=a5 v=90
130980 On ch=1 n=a5 v=0
130980 On ch=1 n=f5 v=90
131040 On ch=1 n=f5 v=0
131040 On ch=1 n=f6 v=100
131072 On ch=1 n=f6 v=0
131072 On ch=1 n=c6 v=100
131104 On ch=1 n=c6 v=0
131104 On ch=1 n=a5 v=100
131136 On ch=1 n=a5 v=0
131136 On ch=1 n=f5 v=100
131168 On ch=1 n=f5 v=0
131172 On ch=1 n=a5 v=100
131204 On ch=1 n=a5 v=0
131208 On ch=1 n=c6 v=110
131240 On ch=1 n=c6 v=0
131244 On ch=1 n=f6 v=110
131276 On ch=1 n=f6 v=0
131276 On ch=1 n=f6 v=110
131308 On ch=1 n=f6 v=0
131312 On ch=1 n=a6 v=110
131344 On ch=1 n=a6 v=0
131344 On ch=1 n=c7 v=110
131376 On ch=1 n=c7 v=0
131380 On ch=1 n=f7 v=120
131412 On ch=1 n=f7 v=0
131412 On ch=1 n=f7 v=120
131444 On ch=1 n=f7 v=0
131456 On ch=1 n=a7 v=120
131488 On ch=1 n=a7 v=0
131488 On ch=1 n=c8 v=120
131520 On ch=1 n=c8 v=0
131520 On ch=1 n=f8 v=120
131760 On ch=1 n=f8 v=0
132000 On ch=1 n=d#8 v=40
132020 On ch=1 n=c#8 v=40
132028 On ch=1 n=d#8 v=0
132048 On ch=1 n=c#8 v=0
132048 On ch=1 n=b7 v=40
132072 On ch=1 n=g#7 v=40
132076 On ch=1 n=b7 v=0
132100 On ch=1 n=g#7 v=0
132104 On ch=1 n=c#7 v=40
132132 On ch=1 n=c#7 v=0
132240 On ch=1 n=d#7 v=40
132260 On ch=1 n=c#7 v=40
132268 On ch=1 n=d#7 v=0
132288 On ch=1 n=c#7 v=0
132288 On ch=1 n=b6 v=40
132312 On ch=1 n=g#6 v=40
132316 On ch=1 n=b6 v=0
132340 On ch=1 n=g#6 v=0
132344 On ch=1 n=c#6 v=40
132372 On ch=1 n=c#6 v=0
132480 On ch=1 n=d#6 v=40
132500 On ch=1 n=c#6 v=40
132508 On ch=1 n=d#6 v=0
132528 On ch=1 n=c#6 v=0
132528 On ch=1 n=b5 v=40
132552 On ch=1 n=g#5 v=40
132556 On ch=1 n=b5 v=0
132580 On ch=1 n=g#5 v=0
132584 On ch=1 n=c#5 v=40
132612 On ch=1 n=c#5 v=0
132960 On ch=1 n=g#6 v=60
132960 On ch=1 n=g#5 v=60
133920 On ch=1 n=g#5 v=0
133920 On ch=1 n=g#6 v=0
133920 On ch=1 n=d#8 v=40
133940 On ch=1 n=c#8 v=40
133948 On ch=1 n=d#8 v=0
133968 On ch=1 n=c#8 v=0
133968 On ch=1 n=b7 v=40
133992 On ch=1 n=g#7 v=40
133996 On ch=1 n=b7 v=0
134020 On ch=1 n=g#7 v=0
134024 On ch=1 n=c#7 v=40
134052 On ch=1 n=c#7 v=0
134160 On ch=1 n=d#7 v=40
134180 On ch=1 n=c#7 v=40
134188 On ch=1 n=d#7 v=0
134208 On ch=1 n=c#7 v=0
134208 On ch=1 n=b6 v=40
134232 On ch=1 n=g#6 v=40
134236 On ch=1 n=b6 v=0
134260 On ch=1 n=g#6 v=0
134264 On ch=1 n=c#6 v=40
134292 On ch=1 n=c#6 v=0
134400 On ch=1 n=d#6 v=40
134420 On ch=1 n=c#6 v=40
134428 On ch=1 n=d#6 v=0
134448 On ch=1 n=c#6 v=0
134448 On ch=1 n=b5 v=40
134472 On ch=1 n=g#5 v=40
134476 On ch=1 n=b5 v=0
134500 On ch=1 n=g#5 v=0
134504 On ch=1 n=c#5 v=40
134532 On ch=1 n=c#5 v=0
135000 On ch=1 n=a#6 v=60
135000 On ch=1 n=a#5 v=60
135120 On ch=1 n=a#5 v=0
135120 On ch=1 n=a#6 v=0
136000 On ch=1 n=a#6 v=100
136000 On ch=1 n=a#5 v=100
136080 On ch=1 n=a#5 v=0
136080 On ch=1 n=a#6 v=0
136160 On ch=1 n=b6 v=100
136160 On ch=1 n=b5 v=100
136240 On ch=1 n=b5 v=0
136240 On ch=1 n=b6 v=0
136960 On ch=1 n=c7 v=110
136960 On ch=1 n=c6 v=110
137040 On ch=1 n=c6 v=0
137040 On ch=1 n=c7 v=0
137120 On ch=1 n=c#7 v=110
137120 On ch=1 n=c#6 v=110
137200 On ch=1 n=c#6 v=0
137200 On ch=1 n=c#7 v=0
137880 On ch=1 n=f5 v=50
138000 On ch=1 n=f5 v=0
138000 On ch=1 n=c#6 v=50
138120 On ch=1 n=c#6 v=0
138120 On ch=1 n=b5 v=50
138240 On ch=1 n=b5 v=0
138240 On ch=1 n=d#6 v=50
138360 On ch=1 n=d#6 v=0
138360 On ch=1 n=d6 v=50
138480 On ch=1 n=d6 v=0
138480 On ch=1 n=f#5 v=50
138600 On ch=1 n=f#5 v=0
138840 On ch=1 n=g5 v=50
138960 On ch=1 n=g5 v=0
138960 On ch=1 n=d#6 v=50
139080 On ch=1 n=d#6 v=0
139080 On ch=1 n=c#6 v=50
139200 On ch=1 n=c#6 v=0
139200 On ch=1 n=f6 v=50
139320 On ch=1 n=f6 v=0
139320 On ch=1 n=e6 v=50
139440 On ch=1 n=e6 v=0
139440 On ch=1 n=g#5 v=50
139560 On ch=1 n=g#5 v=0
139800 On ch=1 n=d6 v=50
139800 On ch=1 n=c6 v=50
139920 On ch=1 n=c6 v=0
139920 On ch=1 n=d6 v=0
139920 On ch=1 n=d7 v=50
139920 On ch=1 n=c7 v=50
140040 On ch=1 n=c7 v=0
140040 On ch=1 n=d7 v=0
140040 On ch=1 n=d6 v=50
140040 On ch=1 n=c6 v=50
140160 On ch=1 n=c6 v=0
140160 On ch=1 n=d6 v=0
140280 On ch=1 n=d7 v=50
140280 On ch=1 n=c7 v=50
140400 On ch=1 n=c7 v=0
140400 On ch=1 n=d7 v=0
140400 On ch=1 n=d8 v=50
140400 On ch=1 n=c8 v=50
140520 On ch=1 n=c8 v=0
140520 On ch=1 n=d8 v=0
140520 On ch=1 n=d7 v=50
140520 On ch=1 n=c7 v=50
140640 On ch=1 n=c7 v=0
140640 On ch=1 n=d7 v=0
140760 On ch=1 n=d7 v=50
140760 On ch=1 n=c7 v=50
140880 On ch=1 n=c7 v=0
140880 On ch=1 n=d7 v=0
140880 On ch=1 n=d8 v=50
140880 On ch=1 n=c8 v=50
141000 On ch=1 n=c8 v=0
141000 On ch=1 n=d8 v=0
141000 On ch=1 n=d7 v=50
141000 On ch=1 n=c7 v=50
141120 On ch=1 n=c7 v=0
141120 On ch=1 n=d7 v=0
141240 On ch=1 n=d6 v=50
141240 On ch=1 n=c6 v=50
141360 On ch=1 n=c6 v=0
141360 On ch=1 n=d6 v=0
141360 On ch=1 n=d7 v=50
141360 On ch=1 n=c7 v=50
141480 On ch=1 n=c7 v=0
141480 On ch=1 n=d7 v=0
141480 On ch=1 n=d6 v=50
141480 On ch=1 n=c6 v=50
141600 On ch=1 n=c6 v=0
141600 On ch=1 n=d6 v=0
141720 On ch=1 n=f5 v=50
141840 On ch=1 n=f5 v=0
141840 On ch=1 n=c#6 v=50
141960 On ch=1 n=c#6 v=0
141960 On ch=1 n=b5 v=50
142080 On ch=1 n=b5 v=0
142080 On ch=1 n=d#6 v=50
142200 On ch=1 n=d#6 v=0
142200 On ch=1 n=d6 v=50
142320 On ch=1 n=d6 v=0
142320 On ch=1 n=f#5 v=50
142440 On ch=1 n=f#5 v=0
142680 On ch=1 n=g5 v=50
142800 On ch=1 n=g5 v=0
142800 On ch=1 n=d#6 v=50
142920 On ch=1 n=d#6 v=0
142920 On ch=1 n=c#6 v=50
143040 On ch=1 n=c#6 v=0
143040 On ch=1 n=f6 v=50
143160 On ch=1 n=f6 v=0
143160 On ch=1 n=e6 v=50
143280 On ch=1 n=e6 v=0
143280 On ch=1 n=g#5 v=50
143400 On ch=1 n=g#5 v=0
143640 On ch=1 n=b5 v=50
143760 On ch=1 n=b5 v=0
143760 On ch=1 n=g6 v=50
143880 On ch=1 n=g6 v=0
143880 On ch=1 n=f6 v=50
144000 On ch=1 n=f6 v=0
144000 On ch=1 n=g#6 v=50
144120 On ch=1 n=g#6 v=0
144120 On ch=1 n=f#6 v=50
144240 On ch=1 n=f#6 v=0
144240 On ch=1 n=a#5 v=50
144360 On ch=1 n=a#5 v=0
144360 On ch=1 n=g#5 v=50
144480 On ch=1 n=g#5 v=0
144480 On ch=1 n=f#5 v=50
144600 On ch=1 n=f#5 v=0
144600 On ch=1 n=a#4 v=50
144720 On ch=1 n=a#4 v=0
144720 On ch=1 n=f#5 v=50
144840 On ch=1 n=f#5 v=0
144840 On ch=1 n=g#5 v=50
144960 On ch=1 n=g#5 v=0
144960 On ch=1 n=a#5 v=50
145080 On ch=1 n=a#5 v=0
145080 On ch=1 n=f#6 v=50
145200 On ch=1 n=f#6 v=0
145200 On ch=1 n=g#6 v=50
145320 On ch=1 n=g#6 v=0
145560 On ch=1 n=b5 v=50
145680 On ch=1 n=b5 v=0
145680 On ch=1 n=g6 v=50
145800 On ch=1 n=g6 v=0
145800 On ch=1 n=f6 v=50
145920 On ch=1 n=f6 v=0
145920 On ch=1 n=g#6 v=50
146040 On ch=1 n=g#6 v=0
146040 On ch=1 n=f#6 v=50
146160 On ch=1 n=f#6 v=0
146160 On ch=1 n=a#5 v=50
146280 On ch=1 n=a#5 v=0
146280 On ch=1 n=g#5 v=50
146400 On ch=1 n=g#5 v=0
146400 On ch=1 n=f#5 v=50
146520 On ch=1 n=f#5 v=0
146520 On ch=1 n=a#4 v=50
146640 On ch=1 n=a#4 v=0
146640 On ch=1 n=f#5 v=50
146760 On ch=1 n=f#5 v=0
146760 On ch=1 n=g#5 v=50
146880 On ch=1 n=g#5 v=0
146880 On ch=1 n=a#5 v=50
147000 On ch=1 n=a#5 v=0
147000 On ch=1 n=f#6 v=50
147120 On ch=1 n=f#6 v=0
147120 On ch=1 n=g#6 v=50
147240 On ch=1 n=g#6 v=0
147240 On ch=1 n=a#5 v=50
147360 On ch=1 n=a#5 v=0
147360 On ch=1 n=g#5 v=50
147480 On ch=1 n=g#5 v=0
147480 On ch=1 n=f#5 v=50
147600 On ch=1 n=f#5 v=0
147600 On ch=1 n=a#4 v=50
147720 On ch=1 n=a#4 v=0
147720 On ch=1 n=f#5 v=50
147840 On ch=1 n=f#5 v=0
147840 On ch=1 n=g#5 v=50
147960 On ch=1 n=g#5 v=0
147960 On ch=1 n=f#5 v=50
148080 On ch=1 n=f#5 v=0
148080 On ch=1 n=a#4 v=50
148200 On ch=1 n=a#4 v=0
148200 On ch=1 n=f#4 v=50
148320 On ch=1 n=f#4 v=0
154080 On ch=1 n=c7 v=115
154200 On ch=1 n=c7 v=0
154200 On ch=1 n=g7 v=115
154200 On ch=1 n=g6 v=115
155040 On ch=1 n=g6 v=0
155040 On ch=1 n=g7 v=0
156000 On ch=1 n=c7 v=115
156120 On ch=1 n=c7 v=0
156120 On ch=1 n=a7 v=115
156120 On ch=1 n=a6 v=115
156240 On ch=1 n=a6 v=0
156240 On ch=1 n=a7 v=0
156240 On ch=1 n=g7 v=115
156240 On ch=1 n=g6 v=115
156960 On ch=1 n=g6 v=0
156960 On ch=1 n=g7 v=0
157040 On ch=1 n=c7 v=120
157040 On ch=1 n=c6 v=120
157120 On ch=1 n=c6 v=0
157120 On ch=1 n=c7 v=0
157200 On ch=1 n=a7 v=120
157200 On ch=1 n=a6 v=120
157280 On ch=1 n=a6 v=0
157280 On ch=1 n=a7 v=0
157360 On ch=1 n=g7 v=120
157360 On ch=1 n=g6 v=120
157440 On ch=1 n=g6 v=0
157440 On ch=1 n=g7 v=0
157520 On ch=1 n=a#7 v=120
157520 On ch=1 n=a#6 v=120
157600 On ch=1 n=a#6 v=0
157600 On ch=1 n=a#7 v=0
157680 On ch=1 n=g#7 v=120
157680 On ch=1 n=g#6 v=120
157760 On ch=1 n=g#6 v=0
157760 On ch=1 n=g#7 v=0
157840 On ch=1 n=c#7 v=120
157840 On ch=1 n=c#6 v=120
157920 On ch=1 n=c#6 v=0
157920 On ch=1 n=c#7 v=0
157920 On ch=1 n=b7 v=125
157920 On ch=1 n=b6 v=125
158480 On ch=1 n=a#5 v=60
158560 On ch=1 n=a#5 v=0
158640 On ch=1 n=g#5 v=60
158720 On ch=1 n=g#5 v=0
158800 On ch=1 n=c#5 v=60
158880 On ch=1 n=c#5 v=0
158880 On ch=1 n=b6 v=0
158880 On ch=1 n=b7 v=0
160800 On ch=1 n=c7 v=115
160920 On ch=1 n=c7 v=0
160920 On ch=1 n=g7 v=115
160920 On ch=1 n=g6 v=115
161760 On ch=1 n=g6 v=0
161760 On ch=1 n=g7 v=0
162720 On ch=1 n=c7 v=115
162840 On ch=1 n=c7 v=0
162840 On ch=1 n=a7 v=115
162840 On ch=1 n=a6 v=115
162960 On ch=1 n=a6 v=0
162960 On ch=1 n=a7 v=0
162960 On ch=1 n=g7 v=115
162960 On ch=1 n=g6 v=115
163680 On ch=1 n=g6 v=0
163680 On ch=1 n=g7 v=0
163760 On ch=1 n=c7 v=120
163760 On ch=1 n=c6 v=120
163840 On ch=1 n=c6 v=0
163840 On ch=1 n=c7 v=0
163920 On ch=1 n=a7 v=120
163920 On ch=1 n=a6 v=120
164000 On ch=1 n=a6 v=0
164000 On ch=1 n=a7 v=0
164080 On ch=1 n=g7 v=120
164080 On ch=1 n=g6 v=120
164160 On ch=1 n=g6 v=0
164160 On ch=1 n=g7 v=0
164240 On ch=1 n=a#7 v=120
164240 On ch=1 n=a#6 v=120
164320 On ch=1 n=a#6 v=0
164320 On ch=1 n=a#7 v=0
164400 On ch=1 n=g#7 v=120
164400 On ch=1 n=g#6 v=120
164480 On ch=1 n=g#6 v=0
164480 On ch=1 n=g#7 v=0
164560 On ch=1 n=c#7 v=120
164560 On ch=1 n=c#6 v=120
164640 On ch=1 n=c#6 v=0
164640 On ch=1 n=c#7 v=0
164720 On ch=1 n=d7 v=120
164720 On ch=1 n=d6 v=120
164800 On ch=1 n=d6 v=0
164800 On ch=1 n=d7 v=0
164880 On ch=1 n=b7 v=120
164880 On ch=1 n=b6 v=120
164960 On ch=1 n=b6 v=0
164960 On ch=1 n=b7 v=0
165040 On ch=1 n=a7 v=120
165040 On ch=1 n=a6 v=120
165120 On ch=1 n=a6 v=0
165120 On ch=1 n=a7 v=0
165200 On ch=1 n=c8 v=120
165200 On ch=1 n=c7 v=120
165280 On ch=1 n=c7 v=0
165280 On ch=1 n=c8 v=0
165360 On ch=1 n=a#6 v=120
165360 On ch=1 n=a#7 v=120
165440 On ch=1 n=a#7 v=0
165440 On ch=1 n=a#6 v=0
165520 On ch=1 n=d#7 v=120
165520 On ch=1 n=d#6 v=120
165600 On ch=1 n=d#6 v=0
165600 On ch=1 n=d#7 v=0
165600 On ch=1 n=c8 v=120
165600 On ch=1 n=g7 v=120
165600 On ch=1 n=d#7 v=120
165600 On ch=1 n=c7 v=120
165840 On ch=1 n=c7 v=0
165840 On ch=1 n=d#7 v=0
165840 On ch=1 n=g7 v=0
165840 On ch=1 n=c8 v=0
165840 On ch=1 n=a#7 v=120
165840 On ch=1 n=g7 v=120
165840 On ch=1 n=d#7 v=120
165840 On ch=1 n=a#6 v=120
166080 On ch=1 n=a#6 v=0
166080 On ch=1 n=d#7 v=0
166080 On ch=1 n=g7 v=0
166080 On ch=1 n=a#7 v=0
166080 On ch=1 n=d#7 v=120
166080 On ch=1 n=a#6 v=120
166080 On ch=1 n=g6 v=120
166080 On ch=1 n=d#6 v=120
166320 On ch=1 n=d#6 v=0
166320 On ch=1 n=g6 v=0
166320 On ch=1 n=a#6 v=0
166320 On ch=1 n=d#7 v=0
166320 On ch=1 n=c#8 v=120
166320 On ch=1 n=g#7 v=120
166320 On ch=1 n=e7 v=120
166320 On ch=1 n=c#7 v=120
166560 On ch=1 n=c#7 v=0
166560 On ch=1 n=e7 v=0
166560 On ch=1 n=g#7 v=0
166560 On ch=1 n=c#8 v=0
166560 On ch=1 n=b7 v=120
166560 On ch=1 n=g#7 v=120
166560 On ch=1 n=e7 v=120
166560 On ch=1 n=b6 v=120
166800 On ch=1 n=b6 v=0
166800 On ch=1 n=e7 v=0
166800 On ch=1 n=g#7 v=0
166800 On ch=1 n=b7 v=0
166800 On ch=1 n=e7 v=120
166800 On ch=1 n=b6 v=120
166800 On ch=1 n=g#6 v=120
166800 On ch=1 n=e6 v=120
167040 On ch=1 n=e6 v=0
167040 On ch=1 n=g#6 v=0
167040 On ch=1 n=b6 v=0
167040 On ch=1 n=e7 v=0
167040 On ch=1 n=d8 v=120
167040 On ch=1 n=a7 v=120
167040 On ch=1 n=f7 v=120
167040 On ch=1 n=d7 v=120
167280 On ch=1 n=d7 v=0
167280 On ch=1 n=f7 v=0
167280 On ch=1 n=a7 v=0
167280 On ch=1 n=d8 v=0
167280 On ch=1 n=c8 v=120
167280 On ch=1 n=a7 v=120
167280 On ch=1 n=f7 v=120
167280 On ch=1 n=c7 v=120
167520 On ch=1 n=c7 v=0
167520 On ch=1 n=f7 v=0
167520 On ch=1 n=a7 v=0
167520 On ch=1 n=c8 v=0
167520 On ch=1 n=f7 v=120
167520 On ch=1 n=c7 v=120
167520 On ch=1 n=a6 v=120
167520 On ch=1 n=f6 v=120
167760 On ch=1 n=f6 v=0
167760 On ch=1 n=a6 v=0
167760 On ch=1 n=c7 v=0
167760 On ch=1 n=f7 v=0
167760 On ch=1 n=d#8 v=120
167760 On ch=1 n=a#7 v=120
167760 On ch=1 n=f#7 v=120
167760 On ch=1 n=d#7 v=120
168000 On ch=1 n=d#7 v=0
168000 On ch=1 n=f#7 v=0
168000 On ch=1 n=a#7 v=0
168000 On ch=1 n=d#8 v=0
168000 On ch=1 n=c#8 v=120
168000 On ch=1 n=a#7 v=120
168000 On ch=1 n=f#7 v=120
168000 On ch=1 n=c#7 v=120
168240 On ch=1 n=c#7 v=0
168240 On ch=1 n=f#7 v=0
168240 On ch=1 n=a#7 v=0
168240 On ch=1 n=c#8 v=0
168240 On ch=1 n=f#7 v=120
168240 On ch=1 n=c#7 v=120
168240 On ch=1 n=a#6 v=120
168240 On ch=1 n=f#6 v=120
168480 On ch=1 n=f#6 v=0
168480 On ch=1 n=a#6 v=0
168480 On ch=1 n=c#7 v=0
168480 On ch=1 n=f#7 v=0
168960 On ch=1 n=g#8 v=100
168960 On ch=1 n=f#8 v=100
168984 On ch=1 n=f#8 v=0
168984 On ch=1 n=g#8 v=0
168984 On ch=1 n=d#8 v=100
169008 On ch=1 n=d#8 v=0
169012 On ch=1 n=c#8 v=100
169036 On ch=1 n=c#8 v=0
169036 On ch=1 n=a#7 v=100
169056 On ch=1 n=g#7 v=100
169060 On ch=1 n=a#7 v=0
169080 On ch=1 n=g#7 v=0
169096 On ch=1 n=f#7 v=100
169120 On ch=1 n=f#7 v=0
169120 On ch=1 n=d#7 v=100
169144 On ch=1 n=d#7 v=0
169152 On ch=1 n=c#7 v=100
169168 On ch=1 n=a#6 v=100
169176 On ch=1 n=c#7 v=0
169192 On ch=1 n=a#6 v=0
169204 On ch=1 n=g#6 v=90
169228 On ch=1 n=g#6 v=0
169236 On ch=1 n=f#6 v=90
169248 On ch=1 n=d#6 v=90
169260 On ch=1 n=f#6 v=0
169264 On ch=1 n=c#6 v=90
169272 On ch=1 n=d#6 v=0
169288 On ch=1 n=c#6 v=0
169296 On ch=1 n=a#5 v=90
169320 On ch=1 n=a#5 v=0
169332 On ch=1 n=g#5 v=90
169356 On ch=1 n=g#5 v=0
169360 On ch=1 n=f#5 v=90
169380 On ch=1 n=d#5 v=90
169384 On ch=1 n=f#5 v=0
169404 On ch=1 n=d#5 v=0
169404 On ch=1 n=c#5 v=90
169428 On ch=1 n=c#5 v=0
169440 On ch=1 n=a#4 v=80
169464 On ch=1 n=a#4 v=0
177960 On ch=1 n=g6 v=50
178080 On ch=1 n=g6 v=0
178080 On ch=1 n=g6 v=50
179280 On ch=1 n=g6 v=0
179280 On ch=1 n=g6 v=50
179520 On ch=1 n=g6 v=0
179520 On ch=1 n=e6 v=50
179880 On ch=1 n=e6 v=0
179880 On ch=1 n=c6 v=50
180000 On ch=1 n=c6 v=0
180000 On ch=1 n=d6 v=50
182400 On ch=1 n=d6 v=0
183360 On ch=1 n=g5 v=50
183840 On ch=1 n=g5 v=0
183840 On ch=1 n=c6 v=50
184800 On ch=1 n=c6 v=0
184800 On ch=1 n=d6 v=50
185760 On ch=1 n=d6 v=0
185760 On ch=1 n=e6 v=50
186720 On ch=1 n=e6 v=0
186720 On ch=1 n=c#7 v=50
186720 On ch=1 n=c#8 v=50
186780 On ch=1 n=c#8 v=0
186780 On ch=1 n=c#7 v=0
188640 On ch=1 n=c#7 v=50
188640 On ch=1 n=c#8 v=50
188700 On ch=1 n=c#8 v=0
188700 On ch=1 n=c#7 v=0
188700 Meta TrkEnd
TrkEnd
MTrk
0 SeqSpec 43 00 01 00
0 Meta TrkName "Right Bass "
0 Meta 0x21 00
31860 On ch=1 n=a#4 v=120
31944 On ch=1 n=a#4 v=0
31944 On ch=1 n=g#4 v=120
32020 On ch=1 n=f#4 v=120
32028 On ch=1 n=g#4 v=0
32096 On ch=1 n=d#4 v=120
32104 On ch=1 n=f#4 v=0
32168 On ch=1 n=c#4 v=120
32180 On ch=1 n=d#4 v=0
32252 On ch=1 n=c#4 v=0
32252 On ch=1 n=a#3 v=120
32316 On ch=1 n=g#3 v=120
32336 On ch=1 n=a#3 v=0
32400 On ch=1 n=g#3 v=0
32408 On ch=1 n=f#3 v=120
32480 On ch=1 n=d#3 v=120
32492 On ch=1 n=f#3 v=0
32556 On ch=1 n=c#3 v=120
32564 On ch=1 n=d#3 v=0
32640 On ch=1 n=c#3 v=0
158960 On ch=1 n=a#4 v=60
159040 On ch=1 n=a#4 v=0
159120 On ch=1 n=g#4 v=60
159200 On ch=1 n=g#4 v=0
159280 On ch=1 n=c#4 v=60
159360 On ch=1 n=c#4 v=0
159440 On ch=1 n=a#3 v=60
159520 On ch=1 n=a#3 v=0
159600 On ch=1 n=g#3 v=60
159680 On ch=1 n=g#3 v=0
159760 On ch=1 n=c#3 v=60
159840 On ch=1 n=c#3 v=0
169468 On ch=1 n=g#4 v=80
169488 On ch=1 n=f#4 v=80
169492 On ch=1 n=g#4 v=0
169512 On ch=1 n=f#4 v=0
169516 On ch=1 n=d#4 v=80
169536 On ch=1 n=c#4 v=80
169540 On ch=1 n=d#4 v=0
169560 On ch=1 n=c#4 v=0
169584 On ch=1 n=a#3 v=80
169608 On ch=1 n=a#3 v=0
169608 On ch=1 n=g#3 v=80
169632 On ch=1 n=g#3 v=0
169632 On ch=1 n=f#3 v=80
169656 On ch=1 n=f#3 v=0
169656 Meta TrkEnd
TrkEnd
MTrk
0 SeqSpec 43 00 01 00
0 Meta TrkName "Middle Tre"
