MFile 0 1 480
MTrk
0 TimeSig 3/4 24 8
0 Tempo 240000
0 Par ch=1 c=0 v=0
0 Par ch=1 c=32 v=0
0 PrCh ch=1 p=0
0 Par ch=1 c=0 v=0
0 Par ch=1 c=32 v=0
0 PrCh ch=1 p=0
1104 Par ch=1 c=91 v=127
1360 Par ch=1 c=64 v=127
1360 Par ch=1 c=64 v=127
1400 Par ch=1 c=91 v=120
1420 Par ch=1 c=91 v=116
1440 Tempo 298507
1440 Par ch=1 c=93 v=127
1440 On ch=1 n=b4 v=108
1440 On ch=1 n=d#5 v=108
1440 Par ch=1 c=7 v=96
1440 On ch=1 n=g#3 v=127
1440 On ch=1 n=d#4 v=127
1440 On ch=1 n=g#4 v=127
1480 Tempo 295567
1500 Par ch=1 c=91 v=122
1560 Par ch=1 c=91 v=127
1680 On ch=1 n=d#5 v=0
1680 On ch=1 n=e5 v=108
1760 Tempo 292683
1800 Tempo 279070
1840 Tempo 275229
1880 Tempo 273973
1920 On ch=1 n=e5 v=0
1920 On ch=1 n=g#4 v=0
1920 On ch=1 n=d#4 v=0
1920 On ch=1 n=g#3 v=0
1920 On ch=1 n=b4 v=0
1920 Tempo 272727
1920 On ch=1 n=b4 v=108
1920 On ch=1 n=e5 v=108
1920 On ch=1 n=g#2 v=87
1920 On ch=1 n=g#3 v=87
1960 Tempo 270270
2000 Tempo 266667
2040 Tempo 264719
2160 On ch=1 n=g#3 v=0
2160 On ch=1 n=g#2 v=0
2160 On ch=1 n=e5 v=0
2160 On ch=1 n=f5 v=108
2240 Tempo 264317
2400 On ch=1 n=f5 v=0
2400 On ch=1 n=b4 v=0
2400 Tempo 263158
2400 On ch=1 n=b4 v=108
2400 On ch=1 n=f5 v=108
2400 On ch=1 n=d#3 v=87
2400 On ch=1 n=d#4 v=87
2440 Tempo 247934
2472 Par ch=1 c=64 v=0
2472 Par ch=1 c=64 v=0
2476 Par ch=1 c=64 v=0
2476 Par ch=1 c=64 v=0
2560 Tempo 246914
2600 Tempo 242915
2640 On ch=1 n=d#4 v=0
2640 On ch=1 n=d#3 v=0
2640 On ch=1 n=f5 v=0
2640 Tempo 241935
2640 On ch=1 n=f#5 v=108
2720 Tempo 240000
2872 Par ch=1 c=64 v=127
2872 Par ch=1 c=64 v=127
2872 Par ch=1 c=64 v=127
2876 Par ch=1 c=64 v=127
2880 On ch=1 n=f#5 v=0
2880 On ch=1 n=b4 v=0
2880 On ch=1 n=d#5 v=108
2880 On ch=1 n=b4 v=108
2880 On ch=1 n=f#5 v=108
2880 On ch=1 n=g#3 v=127
2880 On ch=1 n=d#4 v=127
2880 On ch=1 n=g#4 v=127
3120 On ch=1 n=f#5 v=0
3120 On ch=1 n=g5 v=108
3360 On ch=1 n=g5 v=0
3360 On ch=1 n=g#4 v=0
3360 On ch=1 n=d#4 v=0
3360 On ch=1 n=g#3 v=0
3360 On ch=1 n=b4 v=0
3360 On ch=1 n=d#5 v=0
3360 On ch=1 n=d#5 v=108
3360 On ch=1 n=b4 v=108
3360 On ch=1 n=g5 v=108
3360 On ch=1 n=g#2 v=87
3360 On ch=1 n=g#3 v=87
3600 On ch=1 n=g#3 v=0
3600 On ch=1 n=g#2 v=0
3600 On ch=1 n=g5 v=0
3600 On ch=1 n=g#5 v=108
3840 On ch=1 n=g#5 v=0
3840 On ch=1 n=b4 v=0
3840 On ch=1 n=d#5 v=0
3840 On ch=1 n=d#5 v=108
3840 On ch=1 n=b4 v=108
3840 On ch=1 n=g#5 v=108
3840 On ch=1 n=d#3 v=87
3840 On ch=1 n=d#4 v=87
3840 Par ch=1 c=7 v=96
3960 Par ch=1 c=64 v=0
3960 Par ch=1 c=64 v=0
3964 Par ch=1 c=64 v=0
3964 Par ch=1 c=64 v=0
4080 On ch=1 n=d#4 v=0
4080 On ch=1 n=d#3 v=0
4080 On ch=1 n=g#5 v=0
4080 On ch=1 n=a5 v=108
4080 Par ch=1 c=7 v=97
4320 On ch=1 n=a5 v=0
4320 On ch=1 n=b4 v=0
4320 On ch=1 n=d#5 v=0
4320 On ch=1 n=d#5 v=108
4320 On ch=1 n=a5 v=108
4320 On ch=1 n=d#4 v=127
4320 On ch=1 n=g#4 v=127
4320 On ch=1 n=b4 v=127
4320 Par ch=1 c=7 v=98
4372 Par ch=1 c=64 v=127
4372 Par ch=1 c=64 v=127
4376 Par ch=1 c=64 v=127
4376 Par ch=1 c=64 v=127
4520 Par ch=1 c=7 v=99
4560 On ch=1 n=a5 v=0
4560 On ch=1 n=a#5 v=108
4760 Par ch=1 c=7 v=100
4800 On ch=1 n=a#5 v=0
4800 On ch=1 n=b4 v=0
4800 On ch=1 n=g#4 v=0
4800 On ch=1 n=d#4 v=0
4800 On ch=1 n=d#5 v=0
4800 On ch=1 n=d#5 v=108
4800 On ch=1 n=a#5 v=108
4800 On ch=1 n=g#2 v=87
4800 On ch=1 n=g#3 v=87
4960 Par ch=1 c=7 v=101
5040 On ch=1 n=g#3 v=0
5040 On ch=1 n=g#2 v=0
5040 On ch=1 n=a#5 v=0
5040 On ch=1 n=b5 v=108
5200 Par ch=1 c=7 v=102
5280 On ch=1 n=b5 v=0
5280 On ch=1 n=d#5 v=0
5280 On ch=1 n=g#5 v=108
5280 On ch=1 n=d#5 v=108
5280 On ch=1 n=b5 v=108
5280 On ch=1 n=d#3 v=87
5280 On ch=1 n=d#4 v=87
5392 Par ch=1 c=64 v=0
5392 Par ch=1 c=64 v=0
5392 Par ch=1 c=64 v=0
5396 Par ch=1 c=64 v=0
5440 Par ch=1 c=7 v=103
5520 On ch=1 n=d#4 v=0
5520 On ch=1 n=d#3 v=0
5520 On ch=1 n=b5 v=0
5520 On ch=1 n=c6 v=108
5640 Par ch=1 c=7 v=104
5760 On ch=1 n=c6 v=0
5760 On ch=1 n=d#5 v=0
5760 On ch=1 n=g#5 v=0
5760 On ch=1 n=g#5 v=108
5760 On ch=1 n=d#5 v=108
5760 On ch=1 n=c6 v=108
5760 On ch=1 n=d#4 v=127
5760 On ch=1 n=g#4 v=127
5760 On ch=1 n=b4 v=127
5804 Par ch=1 c=64 v=127
5804 Par ch=1 c=64 v=127
5808 Par ch=1 c=64 v=127
5808 Par ch=1 c=64 v=127
5880 Par ch=1 c=7 v=105
6000 On ch=1 n=c6 v=0
6000 On ch=1 n=c#6 v=108
6080 Par ch=1 c=7 v=106
6240 On ch=1 n=c#6 v=0
6240 On ch=1 n=b4 v=0
6240 On ch=1 n=g#4 v=0
6240 On ch=1 n=d#4 v=0
6240 On ch=1 n=d#5 v=0
6240 On ch=1 n=g#5 v=0
6240 On ch=1 n=g#5 v=108
6240 On ch=1 n=d#5 v=108
6240 On ch=1 n=c#6 v=108
6240 On ch=1 n=g#2 v=87
6240 On ch=1 n=g#3 v=87
6320 Par ch=1 c=7 v=107
6480 On ch=1 n=g#3 v=0
6480 On ch=1 n=g#2 v=0
6480 On ch=1 n=c#6 v=0
6480 On ch=1 n=d6 v=108
6560 Par ch=1 c=7 v=108
6720 On ch=1 n=d6 v=0
6720 On ch=1 n=d#5 v=0
6720 On ch=1 n=g#5 v=0
6720 On ch=1 n=g#5 v=108
6720 On ch=1 n=d#5 v=108
6720 On ch=1 n=d6 v=108
6720 On ch=1 n=d#3 v=87
6720 On ch=1 n=d#4 v=87
6760 Par ch=1 c=7 v=109
6796 Par ch=1 c=64 v=0
6796 Par ch=1 c=64 v=0
6796 Par ch=1 c=64 v=0
6796 Par ch=1 c=64 v=0
6960 On ch=1 n=d#4 v=0
6960 On ch=1 n=d#3 v=0
6960 On ch=1 n=d6 v=0
6960 On ch=1 n=d#6 v=108
7000 Par ch=1 c=7 v=110
7192 Par ch=1 c=64 v=127
7192 Par ch=1 c=64 v=127
7196 Par ch=1 c=64 v=127
7196 Par ch=1 c=64 v=127
7200 On ch=1 n=d#6 v=0
7200 On ch=1 n=d#5 v=0
7200 On ch=1 n=g#5 v=0
7200 On ch=1 n=d#5 v=108
7200 On ch=1 n=a#5 v=108
7200 On ch=1 n=d#6 v=108
7200 On ch=1 n=d#4 v=87
7200 On ch=1 n=a#4 v=87
7200 Par ch=1 c=7 v=111
7440 On ch=1 n=a#4 v=0
7440 On ch=1 n=d#4 v=0
7440 On ch=1 n=d#6 v=0
7440 On ch=1 n=e6 v=108
7680 On ch=1 n=e6 v=0
7680 On ch=1 n=a#5 v=0
7680 On ch=1 n=d#5 v=0
7680 On ch=1 n=a#5 v=108
7680 On ch=1 n=e6 v=108
7680 On ch=1 n=g3 v=87
7680 On ch=1 n=d#4 v=87
7920 On ch=1 n=d#4 v=0
7920 On ch=1 n=g3 v=0
7920 On ch=1 n=e6 v=0
7920 On ch=1 n=d#6 v=108
8160 On ch=1 n=d#6 v=0
8160 On ch=1 n=a#5 v=0
8160 On ch=1 n=d#5 v=108
8160 On ch=1 n=a#5 v=108
8160 On ch=1 n=d#6 v=108
8160 On ch=1 n=d#4 v=87
8160 On ch=1 n=a#4 v=87
8200 Par ch=1 c=64 v=0
8200 Par ch=1 c=64 v=0
8200 Par ch=1 c=64 v=0
8204 Par ch=1 c=64 v=0
8400 On ch=1 n=a#4 v=0
8400 On ch=1 n=d#4 v=0
8400 On ch=1 n=d#6 v=0
8400 On ch=1 n=c#6 v=108
8640 On ch=1 n=c#6 v=0
8640 On ch=1 n=a#5 v=0
8640 On ch=1 n=d#5 v=0
8640 On ch=1 n=g#5 v=108
8640 On ch=1 n=d#5 v=108
8640 On ch=1 n=c#6 v=108
8640 On ch=1 n=d#4 v=87
8640 On ch=1 n=g#3 v=87
8652 Par ch=1 c=64 v=127
8652 Par ch=1 c=64 v=127
8652 Par ch=1 c=64 v=127
8656 Par ch=1 c=64 v=127
8880 On ch=1 n=g#3 v=0
8880 On ch=1 n=d#4 v=0
8880 On ch=1 n=c#6 v=0
8880 On ch=1 n=b5 v=108
9120 On ch=1 n=b5 v=0
9120 On ch=1 n=d#5 v=0
9120 On ch=1 n=g#5 v=0
9120 On ch=1 n=d#5 v=108
9120 On ch=1 n=g#5 v=108
9120 On ch=1 n=b5 v=108
9120 On ch=1 n=b4 v=87
9120 On ch=1 n=d#4 v=87
9360 On ch=1 n=d#4 v=0
9360 On ch=1 n=b4 v=0
9360 On ch=1 n=b5 v=0
9360 On ch=1 n=c#6 v=108
9600 On ch=1 n=c#6 v=0
9600 On ch=1 n=g#5 v=0
9600 On ch=1 n=d#5 v=0
9600 On ch=1 n=d#5 v=108
9600 On ch=1 n=g#5 v=108
9600 On ch=1 n=c#6 v=108
9600 On ch=1 n=d#4 v=87
9600 On ch=1 n=g#3 v=87
9656 Par ch=1 c=64 v=0
9656 Par ch=1 c=64 v=0
9656 Par ch=1 c=64 v=0
9660 Par ch=1 c=64 v=0
9840 On ch=1 n=g#3 v=0
9840 On ch=1 n=d#4 v=0
9840 On ch=1 n=c#6 v=0
9840 On ch=1 n=d#6 v=108
10052 Par ch=1 c=64 v=127
10052 Par ch=1 c=64 v=127
10052 Par ch=1 c=64 v=127
10056 Par ch=1 c=64 v=127
10080 On ch=1 n=d#6 v=0
10080 On ch=1 n=g#5 v=0
10080 On ch=1 n=d#5 v=0
10080 On ch=1 n=g#5 v=108
10080 On ch=1 n=e5 v=108
10080 On ch=1 n=d#6 v=108
10080 On ch=1 n=c#4 v=87
10080 On ch=1 n=g#4 v=87
10320 On ch=1 n=g#4 v=0
10320 On ch=1 n=c#4 v=0
10320 On ch=1 n=d#6 v=0
10320 On ch=1 n=c#6 v=108
10560 On ch=1 n=c#6 v=0
10560 On ch=1 n=e5 v=0
10560 On ch=1 n=g#5 v=0
10560 On ch=1 n=g#5 v=108
10560 On ch=1 n=e5 v=108
10560 On ch=1 n=c#6 v=108
10560 On ch=1 n=c#3 v=87
10560 On ch=1 n=c#4 v=87
10800 On ch=1 n=c#4 v=0
10800 On ch=1 n=c#3 v=0
10800 On ch=1 n=c#6 v=0
10800 On ch=1 n=b5 v=108
11040 On ch=1 n=b5 v=0
11040 On ch=1 n=e5 v=0
11040 On ch=1 n=g#5 v=0
11040 On ch=1 n=c#5 v=108
11040 On ch=1 n=e5 v=108
11040 On ch=1 n=b5 v=108
11040 On ch=1 n=g#4 v=87
11040 On ch=1 n=c#4 v=87
11108 Par ch=1 c=64 v=0
11108 Par ch=1 c=64 v=0
11112 Par ch=1 c=64 v=0
11112 Par ch=1 c=64 v=0
11280 On ch=1 n=c#4 v=0
11280 On ch=1 n=g#4 v=0
11280 On ch=1 n=b5 v=0
11280 On ch=1 n=a#5 v=108
11480 Tempo 240000
11520 On ch=1 n=a#5 v=0
11520 On ch=1 n=e5 v=0
11520 On ch=1 n=c#5 v=0
11520 Tempo 240964
11520 On ch=1 n=c#5 v=108
11520 On ch=1 n=d#4 v=87
11520 On ch=1 n=g4 v=87
11520 Par ch=1 c=7 v=110
11556 Par ch=1 c=64 v=127
11556 Par ch=1 c=64 v=127
11560 Par ch=1 c=64 v=127
11560 Par ch=1 c=64 v=127
11600 Par ch=1 c=7 v=109
11640 Par ch=1 c=7 v=108
11680 Par ch=1 c=7 v=107
11720 Par ch=1 c=7 v=106
11760 On ch=1 n=g4 v=0
11760 On ch=1 n=d#4 v=0
11760 Tempo 242915
11760 On ch=1 n=b5 v=108
11760 Par ch=1 c=7 v=105
11800 Par ch=1 c=7 v=104
11840 Par ch=1 c=7 v=103
11880 Par ch=1 c=7 v=102
11960 Par ch=1 c=7 v=101
12000 On ch=1 n=b5 v=0
12000 On ch=1 n=c#5 v=0
12000 On ch=1 n=c#5 v=108
12000 On ch=1 n=b5 v=108
12000 On ch=1 n=d#3 v=87
12000 On ch=1 n=d#4 v=87
12000 Par ch=1 c=7 v=100
12040 Tempo 243902
12040 Par ch=1 c=7 v=99
12080 Tempo 245902
12080 Par ch=1 c=7 v=98
12120 Par ch=1 c=7 v=97
12160 Tempo 246914
12160 Par ch=1 c=7 v=96
12200 Par ch=1 c=7 v=95
12240 On ch=1 n=d#4 v=0
12240 On ch=1 n=d#3 v=0
12240 On ch=1 n=b5 v=0
12240 On ch=1 n=a#5 v=108
12240 Par ch=1 c=7 v=94
12280 Tempo 247934
12320 Tempo 248963
12320 Par ch=1 c=7 v=93
12360 Tempo 250000
12360 Par ch=1 c=7 v=92
12400 Tempo 251046
12400 Par ch=1 c=7 v=91
12440 Par ch=1 c=7 v=90
12480 On ch=1 n=a#5 v=0
12480 On ch=1 n=c#5 v=0
12480 Tempo 253165
12480 On ch=1 n=c#5 v=108
12480 On ch=1 n=a#5 v=108
12480 On ch=1 n=d#4 v=87
12480 On ch=1 n=g4 v=87
12480 Par ch=1 c=7 v=89
12520 Par ch=1 c=7 v=88
12560 Tempo 254237
12560 Par ch=1 c=7 v=87
12584 Par ch=1 c=64 v=0
12584 Par ch=1 c=64 v=0
12588 Par ch=1 c=64 v=0
12588 Par ch=1 c=64 v=0
12600 Par ch=1 c=7 v=86
12680 Par ch=1 c=7 v=85
12720 On ch=1 n=g4 v=0
12720 On ch=1 n=d#4 v=0
12720 On ch=1 n=a#5 v=0
12720 On ch=1 n=d#5 v=108
12720 Par ch=1 c=7 v=84
12760 Par ch=1 c=7 v=83
12800 Par ch=1 c=7 v=82
12840 Par ch=1 c=7 v=81
12880 Par ch=1 c=7 v=80
12920 Tempo 251046
12920 Par ch=1 c=7 v=79
12960 On ch=1 n=d#5 v=0
12960 On ch=1 n=c#5 v=0
12960 On ch=1 n=b4 v=108
12960 On ch=1 n=d#5 v=108
12960 Par ch=1 c=7 v=78
12960 On ch=1 n=g#3 v=127
12960 On ch=1 n=d#4 v=127
12960 On ch=1 n=g#4 v=127
12964 Par ch=1 c=64 v=127
12964 Par ch=1 c=64 v=127
12964 Par ch=1 c=64 v=127
12968 Par ch=1 c=64 v=127
13000 Tempo 250000
13160 Tempo 247934
13200 On ch=1 n=d#5 v=0
13200 On ch=1 n=e5 v=108
13240 Tempo 246914
13280 Tempo 243902
13320 Tempo 242915
13360 Tempo 241935
13440 On ch=1 n=e5 v=0
13440 On ch=1 n=g#4 v=0
13440 On ch=1 n=d#4 v=0
13440 On ch=1 n=g#3 v=0
13440 On ch=1 n=b4 v=0
13440 On ch=1 n=b4 v=108
13440 On ch=1 n=e5 v=108
13440 On ch=1 n=g#2 v=87
13440 On ch=1 n=g#3 v=87
13480 Tempo 240964
13680 On ch=1 n=g#3 v=0
13680 On ch=1 n=g#2 v=0
13680 On ch=1 n=e5 v=0
13680 On ch=1 n=f5 v=108
13900 Par ch=1 c=64 v=0
13900 Par ch=1 c=64 v=0
13900 Par ch=1 c=64 v=0
13904 Par ch=1 c=64 v=0
13920 On ch=1 n=f5 v=0
13920 On ch=1 n=b4 v=0
13920 On ch=1 n=b4 v=108
13920 On ch=1 n=f5 v=108
13920 On ch=1 n=d#3 v=87
13920 On ch=1 n=d#4 v=87
14160 On ch=1 n=d#4 v=0
14160 On ch=1 n=d#3 v=0
14160 On ch=1 n=f5 v=0
14160 Tempo 240000
14160 On ch=1 n=f#5 v=108
14400 On ch=1 n=f#5 v=0
14400 On ch=1 n=b4 v=0
14400 Par ch=1 c=64 v=127
14400 On ch=1 n=d#5 v=108
14400 On ch=1 n=b4 v=108
14400 On ch=1 n=f#5 v=108
14400 Par ch=1 c=64 v=127
14400 On ch=1 n=g#3 v=127
14400 On ch=1 n=d#4 v=127
14400 On ch=1 n=g#4 v=127
14408 Par ch=1 c=64 v=127
14408 Par ch=1 c=64 v=127
14640 On ch=1 n=f#5 v=0
14640 On ch=1 n=g5 v=108
14880 On ch=1 n=g5 v=0
14880 On ch=1 n=g#4 v=0
14880 On ch=1 n=d#4 v=0
14880 On ch=1 n=g#3 v=0
14880 On ch=1 n=b4 v=0
14880 On ch=1 n=d#5 v=0
14880 On ch=1 n=d#5 v=108
14880 On ch=1 n=b4 v=108
14880 On ch=1 n=g5 v=108
14880 Par ch=1 c=7 v=79
14880 On ch=1 n=g#2 v=87
14880 On ch=1 n=g#3 v=87
15120 On ch=1 n=g#3 v=0
15120 On ch=1 n=g#2 v=0
15120 On ch=1 n=g5 v=0
15120 On ch=1 n=g#5 v=108
15120 Par ch=1 c=7 v=80
15360 On ch=1 n=g#5 v=0
15360 On ch=1 n=b4 v=0
15360 On ch=1 n=d#5 v=0
15360 On ch=1 n=d#5 v=108
15360 On ch=1 n=b4 v=108
15360 On ch=1 n=g#5 v=108
15360 Par ch=1 c=7 v=81
15360 On ch=1 n=d#3 v=87
15360 On ch=1 n=d#4 v=87
15396 Par ch=1 c=64 v=0
15396 Par ch=1 c=64 v=0
15396 Par ch=1 c=64 v=0
15396 Par ch=1 c=64 v=0
15560 Par ch=1 c=7 v=82
15600 On ch=1 n=d#4 v=0
15600 On ch=1 n=d#3 v=0
15600 On ch=1 n=g#5 v=0
15600 On ch=1 n=a5 v=108
15800 Par ch=1 c=7 v=83
15820 Par ch=1 c=64 v=127
15820 Par ch=1 c=64 v=127
15824 Par ch=1 c=64 v=127
15824 Par ch=1 c=64 v=127
15840 On ch=1 n=a5 v=0
15840 On ch=1 n=b4 v=0
15840 On ch=1 n=d#5 v=0
15840 On ch=1 n=b4 v=108
15840 On ch=1 n=e5 v=108
15840 On ch=1 n=a5 v=108
15840 On ch=1 n=g3 v=127
15840 On ch=1 n=e4 v=127
15840 On ch=1 n=g4 v=127
16040 Par ch=1 c=7 v=84
16080 On ch=1 n=a5 v=0
16080 On ch=1 n=a#5 v=108
16240 Par ch=1 c=7 v=85
16320 On ch=1 n=a#5 v=0
16320 On ch=1 n=g4 v=0
16320 On ch=1 n=e4 v=0
16320 On ch=1 n=g3 v=0
16320 On ch=1 n=e5 v=0
16320 On ch=1 n=b4 v=0
16320 On ch=1 n=b4 v=108
16320 On ch=1 n=e5 v=108
16320 On ch=1 n=a#5 v=108
16320 On ch=1 n=g2 v=87
16320 On ch=1 n=g3 v=87
16480 Par ch=1 c=7 v=86
16560 On ch=1 n=g3 v=0
16560 On ch=1 n=g2 v=0
16560 On ch=1 n=a#5 v=0
16560 On ch=1 n=b5 v=108
16720 Par ch=1 c=7 v=87
16800 On ch=1 n=b5 v=0
16800 On ch=1 n=e5 v=0
16800 On ch=1 n=b4 v=0
16800 On ch=1 n=b4 v=108
16800 On ch=1 n=e5 v=108
16800 On ch=1 n=b5 v=108
16800 On ch=1 n=e3 v=87
16800 On ch=1 n=e4 v=87
16828 Par ch=1 c=64 v=0
16828 Par ch=1 c=64 v=0
16832 Par ch=1 c=64 v=0
16832 Par ch=1 c=64 v=0
16920 Par ch=1 c=7 v=88
17040 On ch=1 n=e4 v=0
17040 On ch=1 n=e3 v=0
17040 On ch=1 n=b5 v=0
17040 On ch=1 n=c6 v=108
17160 Par ch=1 c=7 v=89
17280 On ch=1 n=c6 v=0
17280 On ch=1 n=e5 v=0
17280 On ch=1 n=b4 v=0
17280 Par ch=1 c=64 v=127
17280 On ch=1 n=f5 v=108
17280 On ch=1 n=c6 v=108
17280 Par ch=1 c=64 v=127
17280 On ch=1 n=d4 v=127
17280 On ch=1 n=g4 v=127
17280 On ch=1 n=b4 v=127
17284 Par ch=1 c=64 v=127
17284 Par ch=1 c=64 v=127
17400 Par ch=1 c=7 v=90
17520 On ch=1 n=c6 v=0
17520 On ch=1 n=c#6 v=108
17600 Par ch=1 c=7 v=91
17760 On ch=1 n=c#6 v=0
17760 On ch=1 n=b4 v=0
17760 On ch=1 n=g4 v=0
17760 On ch=1 n=d4 v=0
17760 On ch=1 n=f5 v=0
17760 On ch=1 n=f5 v=108
17760 On ch=1 n=c#6 v=108
17760 On ch=1 n=g2 v=87
17760 On ch=1 n=g3 v=87
17840 Par ch=1 c=7 v=92
18000 On ch=1 n=g3 v=0
18000 On ch=1 n=g2 v=0
18000 On ch=1 n=c#6 v=0
18000 On ch=1 n=d6 v=108
18080 Par ch=1 c=7 v=93
18240 On ch=1 n=d6 v=0
18240 On ch=1 n=f5 v=0
18240 On ch=1 n=b5 v=108
18240 On ch=1 n=f5 v=108
18240 On ch=1 n=g3 v=87
18240 On ch=1 n=g4 v=87
18280 Par ch=1 c=7 v=94
18324 Par ch=1 c=64 v=0
18324 Par ch=1 c=64 v=0
18324 Par ch=1 c=64 v=0
18328 Par ch=1 c=64 v=0
18480 On ch=1 n=g4 v=0
18480 On ch=1 n=g3 v=0
18480 On ch=1 n=d6 v=108
18520 Par ch=1 c=7 v=95
18720 On ch=1 n=d6 v=0
18720 On ch=1 n=f5 v=0
18720 On ch=1 n=b5 v=0
18720 On ch=1 n=f#5 v=108
18720 On ch=1 n=b5 v=108
18720 On ch=1 n=d#6 v=108
18720 Par ch=1 c=7 v=96
18720 On ch=1 n=f#3 v=87
18720 On ch=1 n=f#4 v=87
18788 Par ch=1 c=64 v=127
18788 Par ch=1 c=64 v=127
18788 Par ch=1 c=64 v=127
18792 Par ch=1 c=64 v=127
18960 On ch=1 n=d#6 v=0
18960 On ch=1 n=e6 v=108
19200 On ch=1 n=e6 v=0
19200 On ch=1 n=f#4 v=0
19200 On ch=1 n=f#3 v=0
19200 On ch=1 n=b5 v=0
19200 On ch=1 n=f#5 v=0
19200 On ch=1 n=f#5 v=108
19200 On ch=1 n=b5 v=108
19200 On ch=1 n=e6 v=108
19200 On ch=1 n=d#5 v=87
19200 On ch=1 n=f#4 v=87
19440 On ch=1 n=e6 v=0
19440 On ch=1 n=d#6 v=108
19680 On ch=1 n=d#6 v=0
19680 On ch=1 n=f#4 v=0
19680 On ch=1 n=d#5 v=0
19680 On ch=1 n=b5 v=0
19680 On ch=1 n=f#5 v=0
19680 On ch=1 n=f#5 v=108
19680 On ch=1 n=b5 v=108
19680 On ch=1 n=d#6 v=108
19680 On ch=1 n=f#3 v=87
19680 On ch=1 n=f#4 v=87
19760 Par ch=1 c=64 v=0
19760 Par ch=1 c=64 v=0
19764 Par ch=1 c=64 v=0
19764 Par ch=1 c=64 v=0
19920 On ch=1 n=d#6 v=0
19920 On ch=1 n=f#6 v=108
20136 Par ch=1 c=64 v=127
20136 Par ch=1 c=64 v=127
20140 Par ch=1 c=64 v=127
20140 Par ch=1 c=64 v=127
20160 On ch=1 n=f#6 v=0
20160 On ch=1 n=f#4 v=0
20160 On ch=1 n=f#3 v=0
20160 On ch=1 n=b5 v=0
20160 On ch=1 n=f#5 v=0
20160 On ch=1 n=f#5 v=108
20160 On ch=1 n=a#5 v=108
20160 On ch=1 n=f#6 v=108
20160 On ch=1 n=f#4 v=87
20160 On ch=1 n=e5 v=87
20400 On ch=1 n=f#6 v=0
20400 On ch=1 n=c#6 v=108
20640 On ch=1 n=c#6 v=0
20640 On ch=1 n=e5 v=0
20640 On ch=1 n=f#4 v=0
20640 On ch=1 n=a#5 v=0
20640 On ch=1 n=f#5 v=0
20640 On ch=1 n=f#5 v=108
20640 On ch=1 n=a#5 v=108
20640 On ch=1 n=c#6 v=108
20640 On ch=1 n=f#3 v=87
20640 On ch=1 n=f#4 v=87
20880 On ch=1 n=c#6 v=0
20880 On ch=1 n=d#6 v=108
21120 On ch=1 n=d#6 v=0
21120 On ch=1 n=f#4 v=0
21120 On ch=1 n=f#3 v=0
21120 On ch=1 n=a#5 v=0
21120 On ch=1 n=f#5 v=0
21120 On ch=1 n=f#5 v=108
21120 On ch=1 n=a#5 v=108
21120 On ch=1 n=d#6 v=108
21120 On ch=1 n=e5 v=87
21120 On ch=1 n=f#4 v=87
21176 Par ch=1 c=64 v=0
21176 Par ch=1 c=64 v=0
21180 Par ch=1 c=64 v=0
21180 Par ch=1 c=64 v=0
21360 On ch=1 n=d#6 v=0
21360 On ch=1 n=e6 v=108
21600 On ch=1 n=e6 v=0
21600 On ch=1 n=f#4 v=0
21600 On ch=1 n=e5 v=0
21600 On ch=1 n=a#5 v=0
21600 On ch=1 n=f#5 v=0
21600 On ch=1 n=f#5 v=108
21600 On ch=1 n=b5 v=108
21600 On ch=1 n=e6 v=108
21600 On ch=1 n=f#4 v=87
21600 On ch=1 n=f#3 v=87
21620 Par ch=1 c=64 v=127
21620 Par ch=1 c=64 v=127
21624 Par ch=1 c=64 v=127
21624 Par ch=1 c=64 v=127
21840 On ch=1 n=e6 v=0
21840 On ch=1 n=d#6 v=108
22080 On ch=1 n=d#6 v=0
22080 On ch=1 n=f#3 v=0
22080 On ch=1 n=f#4 v=0
22080 On ch=1 n=b5 v=0
22080 On ch=1 n=f#5 v=0
22080 On ch=1 n=f#5 v=108
22080 On ch=1 n=b5 v=108
22080 On ch=1 n=d#6 v=108
22080 On ch=1 n=d#5 v=87
22080 On ch=1 n=f#4 v=87
22320 On ch=1 n=d#6 v=0
22320 On ch=1 n=g#6 v=108
22560 On ch=1 n=g#6 v=0
22560 On ch=1 n=f#4 v=0
22560 On ch=1 n=d#5 v=0
22560 On ch=1 n=b5 v=0
22560 On ch=1 n=f#5 v=0
22560 On ch=1 n=f#5 v=108
22560 On ch=1 n=g#6 v=108
22560 On ch=1 n=f#4 v=87
22560 On ch=1 n=f#3 v=87
22600 Par ch=1 c=64 v=0
22600 Par ch=1 c=64 v=0
22604 Par ch=1 c=64 v=0
22604 Par ch=1 c=64 v=0
22800 On ch=1 n=g#6 v=0
22800 On ch=1 n=f#6 v=108
23032 Par ch=1 c=64 v=127
23032 Par ch=1 c=64 v=127
23032 Par ch=1 c=64 v=127
23036 Par ch=1 c=64 v=127
23040 On ch=1 n=f#6 v=0
23040 On ch=1 n=f#3 v=0
23040 On ch=1 n=f#4 v=0
23040 On ch=1 n=f#5 v=0
23040 On ch=1 n=f#5 v=108
23040 On ch=1 n=a#5 v=108
23040 On ch=1 n=f#6 v=108
23040 On ch=1 n=e5 v=87
23040 On ch=1 n=f#4 v=87
23280 On ch=1 n=f#6 v=0
23280 On ch=1 n=c#6 v=108
23520 On ch=1 n=c#6 v=0
23520 On ch=1 n=f#4 v=0
23520 On ch=1 n=e5 v=0
23520 On ch=1 n=a#5 v=0
23520 On ch=1 n=f#5 v=0
23520 On ch=1 n=e5 v=108
23520 On ch=1 n=a#5 v=108
23520 On ch=1 n=c#6 v=108
23520 On ch=1 n=f#4 v=87
23520 On ch=1 n=f#3 v=87
23760 On ch=1 n=c#6 v=0
23760 On ch=1 n=d#6 v=108
23932 Par ch=1 c=64 v=0
23932 Par ch=1 c=64 v=0
23936 Par ch=1 c=64 v=0
23936 Par ch=1 c=64 v=0
24000 On ch=1 n=d#6 v=0
24000 On ch=1 n=f#3 v=0
24000 On ch=1 n=f#4 v=0
24000 On ch=1 n=a#5 v=0
24000 On ch=1 n=e5 v=0
24000 On ch=1 n=e5 v=108
24000 On ch=1 n=a#5 v=108
24000 On ch=1 n=d#6 v=108
24000 Par ch=1 c=7 v=96
24000 On ch=1 n=e5 v=87
24000 On ch=1 n=f#4 v=87
24080 Par ch=1 c=7 v=95
24160 Par ch=1 c=7 v=94
24240 On ch=1 n=d#6 v=0
24240 On ch=1 n=e6 v=108
24240 Par ch=1 c=7 v=93
24280 Par ch=1 c=7 v=92
24360 Par ch=1 c=7 v=91
24440 Par ch=1 c=7 v=90
24480 On ch=1 n=e6 v=0
24480 On ch=1 n=f#4 v=0
24480 On ch=1 n=e5 v=0
24480 On ch=1 n=a#5 v=0
24480 On ch=1 n=e5 v=0
24480 On ch=1 n=d#5 v=108
24480 On ch=1 n=b5 v=108
24480 On ch=1 n=e6 v=108
24480 Par ch=1 c=7 v=89
24480 On ch=1 n=f#4 v=87
24480 On ch=1 n=b3 v=87
24516 Par ch=1 c=64 v=127
24516 Par ch=1 c=64 v=127
24516 Par ch=1 c=64 v=127
24520 Par ch=1 c=64 v=127
24560 Par ch=1 c=7 v=88
24640 Par ch=1 c=7 v=87
24720 On ch=1 n=e6 v=0
24720 On ch=1 n=d#6 v=108
24720 Par ch=1 c=7 v=86
24760 Par ch=1 c=7 v=85
24840 Par ch=1 c=7 v=84
24920 Par ch=1 c=7 v=83
24960 On ch=1 n=d#6 v=0
24960 On ch=1 n=b3 v=0
24960 On ch=1 n=f#4 v=0
24960 On ch=1 n=b5 v=0
24960 On ch=1 n=d#5 v=0
24960 On ch=1 n=d#5 v=108
24960 On ch=1 n=d#6 v=108
24960 Par ch=1 c=7 v=82
24960 On ch=1 n=b4 v=87
24960 On ch=1 n=f#4 v=87
24960 On ch=1 n=b3 v=87
25200 On ch=1 n=d#6 v=0
25200 On ch=1 n=b5 v=108
25432 Par ch=1 c=64 v=0
25432 Par ch=1 c=64 v=0
25432 Par ch=1 c=64 v=0
25436 Par ch=1 c=64 v=0
25440 On ch=1 n=b5 v=0
25440 On ch=1 n=b3 v=0
25440 On ch=1 n=f#4 v=0
25440 On ch=1 n=b4 v=0
25440 On ch=1 n=d#5 v=0
25440 On ch=1 n=e5 v=108
25440 On ch=1 n=b5 v=108
25440 On ch=1 n=b4 v=87
25440 On ch=1 n=g4 v=87
25440 On ch=1 n=b3 v=87
25680 On ch=1 n=b5 v=0
25680 On ch=1 n=g5 v=108
25920 On ch=1 n=g5 v=0
25920 On ch=1 n=b3 v=0
25920 On ch=1 n=g4 v=0
25920 On ch=1 n=b4 v=0
25920 On ch=1 n=e5 v=0
25920 On ch=1 n=d#5 v=108
25920 On ch=1 n=g5 v=108
25920 On ch=1 n=b4 v=87
25920 On ch=1 n=f#4 v=87
25920 On ch=1 n=b3 v=87
26096 Par ch=1 c=64 v=127
26100 Par ch=1 c=64 v=127
26100 Par ch=1 c=64 v=127
26160 On ch=1 n=g5 v=0
26160 On ch=1 n=f#5 v=108
26400 On ch=1 n=f#5 v=0
26400 On ch=1 n=b3 v=0
26400 On ch=1 n=f#4 v=0
26400 On ch=1 n=b4 v=0
26400 On ch=1 n=d#5 v=0
26400 On ch=1 n=d#5 v=108
26400 On ch=1 n=f#5 v=108
26400 On ch=1 n=b4 v=87
26400 On ch=1 n=f#4 v=87
26400 On ch=1 n=b3 v=87
26640 On ch=1 n=f#5 v=0
26640 On ch=1 n=b5 v=108
26880 On ch=1 n=b5 v=0
26880 On ch=1 n=b3 v=0
26880 On ch=1 n=f#4 v=0
26880 On ch=1 n=b4 v=0
26880 On ch=1 n=d#5 v=0
26880 On ch=1 n=e5 v=108
26880 On ch=1 n=b5 v=108
26880 On ch=1 n=b4 v=87
26880 On ch=1 n=g4 v=87
26880 On ch=1 n=b3 v=87
27120 On ch=1 n=b5 v=0
27120 On ch=1 n=g5 v=108
27196 Par ch=1 c=64 v=0
27200 Par ch=1 c=64 v=0
27200 Par ch=1 c=64 v=0
27360 On ch=1 n=g5 v=0
27360 On ch=1 n=b3 v=0
27360 On ch=1 n=g4 v=0
27360 On ch=1 n=b4 v=0
27360 On ch=1 n=e5 v=0
27360 On ch=1 n=f#5 v=108
27360 On ch=1 n=b4 v=87
27360 On ch=1 n=f#4 v=87
27360 On ch=1 n=b3 v=87
27516 Par ch=1 c=64 v=127
27520 Par ch=1 c=64 v=127
27520 Par ch=1 c=64 v=127
27600 On ch=1 n=f#5 v=0
27600 On ch=1 n=b5 v=108
27840 On ch=1 n=b5 v=0
27840 On ch=1 n=b3 v=0
27840 On ch=1 n=f#4 v=0
27840 On ch=1 n=b4 v=0
27840 On ch=1 n=b5 v=108
27840 On ch=1 n=b4 v=87
27840 On ch=1 n=g4 v=87
27840 On ch=1 n=e4 v=87
28080 On ch=1 n=b5 v=0
28080 On ch=1 n=g5 v=108
28320 On ch=1 n=g5 v=0
28320 On ch=1 n=e4 v=0
28320 On ch=1 n=g4 v=0
28320 On ch=1 n=b4 v=0
28320 On ch=1 n=f#5 v=108
28320 On ch=1 n=b4 v=87
28320 On ch=1 n=f#4 v=87
28320 On ch=1 n=b3 v=87
28560 On ch=1 n=f#5 v=0
28560 On ch=1 n=b5 v=108
28580 Par ch=1 c=64 v=0
28580 Par ch=1 c=64 v=0
28584 Par ch=1 c=64 v=0
28760 Tempo 240964
28800 On ch=1 n=b5 v=0
28800 On ch=1 n=b3 v=0
28800 On ch=1 n=f#4 v=0
28800 On ch=1 n=b4 v=0
28800 Tempo 242915
28800 On ch=1 n=b5 v=108
28800 Par ch=1 c=7 v=88
28800 On ch=1 n=b4 v=87
28800 On ch=1 n=g4 v=87
28800 On ch=1 n=e4 v=87
28840 Tempo 243902
28880 Par ch=1 c=7 v=89
28916 Par ch=1 c=64 v=127
28916 Par ch=1 c=64 v=127
28920 Tempo 244898
28920 Par ch=1 c=64 v=127
28960 Par ch=1 c=7 v=90
29000 Par ch=1 c=7 v=91
29040 On ch=1 n=b5 v=0
29040 Tempo 245902
29040 On ch=1 n=g5 v=108
29080 Par ch=1 c=7 v=92
29120 Par ch=1 c=7 v=93
29200 Tempo 247934
29200 Par ch=1 c=7 v=94
29240 Par ch=1 c=7 v=95
29280 On ch=1 n=g5 v=0
29280 On ch=1 n=e4 v=0
29280 On ch=1 n=g4 v=0
29280 On ch=1 n=b4 v=0
29280 On ch=1 n=f#5 v=108
29280 On ch=1 n=b4 v=87
29280 On ch=1 n=f#4 v=87
29280 On ch=1 n=b3 v=87
29320 Tempo 248963
29320 Par ch=1 c=7 v=96
29400 Par ch=1 c=7 v=97
29440 Par ch=1 c=7 v=98
29480 Tempo 250000
29520 On ch=1 n=f#5 v=0
29520 On ch=1 n=b5 v=108
29520 Par ch=1 c=7 v=99
29560 Par ch=1 c=7 v=100
29640 Par ch=1 c=7 v=101
29680 Par ch=1 c=7 v=102
29720 Tempo 253165
29760 On ch=1 n=b5 v=0
29760 On ch=1 n=b3 v=0
29760 On ch=1 n=f#4 v=0
29760 On ch=1 n=b4 v=0
29760 On ch=1 n=b5 v=108
29760 Par ch=1 c=7 v=103
29760 On ch=1 n=b4 v=87
29760 On ch=1 n=g4 v=87
29760 On ch=1 n=e4 v=87
29840 Par ch=1 c=7 v=104
29852 Par ch=1 c=64 v=0
29852 Par ch=1 c=64 v=0
29856 Par ch=1 c=64 v=0
29880 Par ch=1 c=7 v=105
29960 Tempo 254237
29960 Par ch=1 c=7 v=106
30000 On ch=1 n=b5 v=0
30000 On ch=1 n=g5 v=108
30000 Par ch=1 c=7 v=107
30040 Tempo 255319
30080 Par ch=1 c=7 v=108
30120 Par ch=1 c=7 v=109
30200 Par ch=1 c=7 v=110
30240 On ch=1 n=g5 v=0
30240 On ch=1 n=e4 v=0
30240 On ch=1 n=g4 v=0
30240 On ch=1 n=b4 v=0
30240 On ch=1 n=b5 v=108
30240 On ch=1 n=e5 v=108
30240 On ch=1 n=g5 v=108
30240 Par ch=1 c=7 v=111
30240 On ch=1 n=b3 v=127
30240 On ch=1 n=f#4 v=127
30240 On ch=1 n=b4 v=127
30280 Tempo 251046
30320 Tempo 250000
30324 Par ch=1 c=64 v=127
30324 Par ch=1 c=64 v=127
30324 Par ch=1 c=64 v=127
30324 Par ch=1 c=64 v=127
30328 Par ch=1 c=64 v=127
30328 Par ch=1 c=64 v=127
30328 Par ch=1 c=64 v=127
30360 Tempo 248963
30480 On ch=1 n=g5 v=0
30480 On ch=1 n=e5 v=0
30480 Tempo 247934
30480 On ch=1 n=d5 v=108
30480 On ch=1 n=f#5 v=108
30600 Tempo 245902
30640 On ch=1 n=f#5 v=0
30640 On ch=1 n=d5 v=0
30640 On ch=1 n=g5 v=108
30720 On ch=1 n=g5 v=0
30720 On ch=1 n=b4 v=0
30720 On ch=1 n=f#4 v=0
30720 On ch=1 n=b3 v=0
30720 On ch=1 n=d5 v=108
30720 On ch=1 n=f#5 v=108
30720 On ch=1 n=b2 v=87
30720 On ch=1 n=b3 v=87
30800 Tempo 244898
30840 Tempo 243902
30960 On ch=1 n=b3 v=0
30960 On ch=1 n=b2 v=0
30960 On ch=1 n=f#5 v=0
30960 On ch=1 n=d5 v=0
30960 On ch=1 n=c#5 v=108
30960 On ch=1 n=e5 v=108
31200 On ch=1 n=e5 v=0
31200 On ch=1 n=c#5 v=0
31200 On ch=1 n=d5 v=108
31200 On ch=1 n=f#5 v=108
31200 On ch=1 n=b3 v=87
31200 On ch=1 n=f#4 v=87
31448 Par ch=1 c=64 v=0
31448 Par ch=1 c=64 v=0
31448 Par ch=1 c=64 v=0
31452 Par ch=1 c=64 v=0
31480 Tempo 242915
31600 Tempo 241935
31680 On ch=1 n=f#4 v=0
31680 On ch=1 n=f#5 v=0
31680 On ch=1 n=d5 v=0
31680 On ch=1 n=b5 v=0
31680 On ch=1 n=b5 v=108
31680 On ch=1 n=e5 v=108
31680 On ch=1 n=g5 v=108
31680 On ch=1 n=f#4 v=127
31680 On ch=1 n=b4 v=127
31800 Par ch=1 c=64 v=127
31800 Par ch=1 c=64 v=127
31800 Par ch=1 c=64 v=127
31804 Par ch=1 c=64 v=127
31920 On ch=1 n=g5 v=0
31920 On ch=1 n=e5 v=0
31920 On ch=1 n=d5 v=108
31920 On ch=1 n=f#5 v=108
32080 On ch=1 n=f#5 v=0
32080 On ch=1 n=d5 v=0
32080 On ch=1 n=g5 v=108
32160 On ch=1 n=g5 v=0
32160 On ch=1 n=b4 v=0
32160 On ch=1 n=f#4 v=0
32160 On ch=1 n=b3 v=0
32160 On ch=1 n=d5 v=108
32160 On ch=1 n=f#5 v=108
32160 On ch=1 n=b2 v=87
32160 On ch=1 n=b3 v=87
32400 On ch=1 n=b3 v=0
32400 On ch=1 n=b2 v=0
32400 On ch=1 n=f#5 v=0
32400 On ch=1 n=d5 v=0
32400 On ch=1 n=c#5 v=108
32400 On ch=1 n=e5 v=108
32640 On ch=1 n=e5 v=0
32640 On ch=1 n=c#5 v=0
32640 On ch=1 n=d5 v=108
32640 On ch=1 n=f#5 v=108
32640 On ch=1 n=b3 v=87
32640 On ch=1 n=f#4 v=87
32820 Par ch=1 c=64 v=0
32820 Par ch=1 c=64 v=0
32824 Par ch=1 c=64 v=0
32824 Par ch=1 c=64 v=0
32880 On ch=1 n=f#4 v=0
32880 On ch=1 n=b3 v=0
33120 On ch=1 n=f#5 v=0
33120 On ch=1 n=d5 v=0
33120 On ch=1 n=b5 v=0
33120 On ch=1 n=g#5 v=108
33120 On ch=1 n=b5 v=108
33120 On ch=1 n=d5 v=108
33120 On ch=1 n=e4 v=87
33120 On ch=1 n=b4 v=87
33188 Par ch=1 c=64 v=127
33188 Par ch=1 c=64 v=127
33188 Par ch=1 c=64 v=127
33192 Par ch=1 c=64 v=127
33360 On ch=1 n=d5 v=0
33360 On ch=1 n=b5 v=0
33360 On ch=1 n=c#6 v=108
33360 On ch=1 n=e5 v=108
33600 On ch=1 n=e5 v=0
33600 On ch=1 n=c#6 v=0
33600 On ch=1 n=b4 v=0
33600 On ch=1 n=e4 v=0
33600 On ch=1 n=g#5 v=0
33600 On ch=1 n=g#5 v=108
33600 On ch=1 n=c#6 v=108
33600 On ch=1 n=e5 v=108
33600 On ch=1 n=e3 v=87
33600 On ch=1 n=e4 v=87
33840 On ch=1 n=e5 v=0
33840 On ch=1 n=c#6 v=0
33840 On ch=1 n=b5 v=108
33840 On ch=1 n=d5 v=108
34080 On ch=1 n=d5 v=0
34080 On ch=1 n=b5 v=0
34080 On ch=1 n=e4 v=0
34080 On ch=1 n=e3 v=0
34080 On ch=1 n=g#5 v=0
34080 On ch=1 n=g#5 v=108
34080 On ch=1 n=b5 v=108
34080 On ch=1 n=d5 v=108
34080 On ch=1 n=e4 v=87
34080 On ch=1 n=b4 v=87
34244 Par ch=1 c=64 v=0
34244 Par ch=1 c=64 v=0
34244 Par ch=1 c=64 v=0
34248 Par ch=1 c=64 v=0
34320 On ch=1 n=d5 v=0
34320 On ch=1 n=b5 v=0
34320 On ch=1 n=c#6 v=108
34320 On ch=1 n=e5 v=108
34560 On ch=1 n=e5 v=0
34560 On ch=1 n=c#6 v=0
34560 On ch=1 n=b4 v=0
34560 On ch=1 n=e4 v=0
34560 On ch=1 n=g#5 v=0
34560 On ch=1 n=d5 v=108
34560 On ch=1 n=f5 v=108
34560 On ch=1 n=a5 v=108
34560 On ch=1 n=e4 v=127
34560 On ch=1 n=a3 v=127
34560 On ch=1 n=a4 v=127
34628 Par ch=1 c=64 v=127
34628 Par ch=1 c=64 v=127
34632 Par ch=1 c=64 v=127
34632 Par ch=1 c=64 v=127
34800 On ch=1 n=f5 v=0
34800 On ch=1 n=d5 v=0
34800 On ch=1 n=e5 v=108
34800 On ch=1 n=c5 v=108
34960 On ch=1 n=c5 v=0
34960 On ch=1 n=e5 v=0
34960 On ch=1 n=f5 v=108
35040 On ch=1 n=f5 v=0
35040 On ch=1 n=a4 v=0
35040 On ch=1 n=a3 v=0
35040 On ch=1 n=e4 v=0
35040 On ch=1 n=c5 v=108
35040 On ch=1 n=e5 v=108
35040 On ch=1 n=a2 v=87
35040 On ch=1 n=a3 v=87
35280 On ch=1 n=a3 v=0
35280 On ch=1 n=a2 v=0
35280 On ch=1 n=e5 v=0
35280 On ch=1 n=c5 v=0
35280 On ch=1 n=b4 v=108
35280 On ch=1 n=d5 v=108
35520 On ch=1 n=d5 v=0
35520 On ch=1 n=b4 v=0
35520 On ch=1 n=c5 v=108
35520 On ch=1 n=e5 v=108
35520 On ch=1 n=a3 v=87
35520 On ch=1 n=e4 v=87
35736 Par ch=1 c=64 v=0
35736 Par ch=1 c=64 v=0
35740 Par ch=1 c=64 v=0
35740 Par ch=1 c=64 v=0
36000 On ch=1 n=e4 v=0
36000 On ch=1 n=e5 v=0
36000 On ch=1 n=c5 v=0
36000 On ch=1 n=a5 v=0
36000 On ch=1 n=d5 v=108
36000 On ch=1 n=f5 v=108
36000 On ch=1 n=a5 v=108
36000 On ch=1 n=e4 v=127
36000 On ch=1 n=a4 v=127
36064 Par ch=1 c=64 v=127
36064 Par ch=1 c=64 v=127
36064 Par ch=1 c=64 v=127
36072 Par ch=1 c=64 v=127
36240 On ch=1 n=f5 v=0
36240 On ch=1 n=d5 v=0
36240 On ch=1 n=e5 v=108
36240 On ch=1 n=c5 v=108
36400 On ch=1 n=c5 v=0
36400 On ch=1 n=e5 v=0
36400 On ch=1 n=f5 v=108
36480 On ch=1 n=f5 v=0
36480 On ch=1 n=a4 v=0
36480 On ch=1 n=e4 v=0
36480 On ch=1 n=a3 v=0
36480 On ch=1 n=c5 v=108
36480 On ch=1 n=e5 v=108
36480 On ch=1 n=a2 v=87
36480 On ch=1 n=a3 v=87
36720 On ch=1 n=a3 v=0
36720 On ch=1 n=a2 v=0
36720 On ch=1 n=e5 v=0
36720 On ch=1 n=c5 v=0
36720 On ch=1 n=b4 v=108
36720 On ch=1 n=d5 v=108
36960 On ch=1 n=d5 v=0
36960 On ch=1 n=b4 v=0
36960 On ch=1 n=c5 v=108
36960 On ch=1 n=e5 v=108
36960 On ch=1 n=a3 v=87
36960 On ch=1 n=e4 v=87
37080 Par ch=1 c=64 v=0
37080 Par ch=1 c=64 v=0
37080 Par ch=1 c=64 v=0
37084 Par ch=1 c=64 v=0
37400 Tempo 242915
37440 On ch=1 n=e4 v=0
37440 On ch=1 n=e5 v=0
37440 On ch=1 n=c5 v=0
37440 On ch=1 n=a5 v=0
37440 On ch=1 n=d5 v=108
37440 On ch=1 n=f5 v=108
37440 On ch=1 n=a5 v=108
37440 On ch=1 n=e4 v=127
37440 On ch=1 n=a4 v=127
37464 Par ch=1 c=64 v=127
37464 Par ch=1 c=64 v=127
37468 Par ch=1 c=64 v=127
37468 Par ch=1 c=64 v=127
37520 Tempo 243902
37600 Tempo 244898
37680 On ch=1 n=f5 v=0
37680 On ch=1 n=d5 v=0
37680 On ch=1 n=e5 v=108
37680 On ch=1 n=c5 v=108
37840 On ch=1 n=c5 v=0
37840 On ch=1 n=e5 v=0
37840 On ch=1 n=f5 v=108
37880 Tempo 245902
37920 On ch=1 n=f5 v=0
37920 On ch=1 n=a4 v=0
37920 On ch=1 n=e4 v=0
37920 On ch=1 n=a3 v=0
37920 Tempo 247934
37920 On ch=1 n=c5 v=108
37920 On ch=1 n=e5 v=108
37920 On ch=1 n=a2 v=87
37920 On ch=1 n=a3 v=87
38040 Tempo 248963
38160 On ch=1 n=a3 v=0
38160 On ch=1 n=a2 v=0
38160 On ch=1 n=e5 v=0
38160 On ch=1 n=c5 v=0
38160 On ch=1 n=b4 v=108
38160 On ch=1 n=d5 v=108
38400 On ch=1 n=d5 v=0
38400 On ch=1 n=b4 v=0
38400 On ch=1 n=c5 v=108
38400 On ch=1 n=e5 v=108
38400 On ch=1 n=e4 v=87
38400 On ch=1 n=a3 v=87
38520 Par ch=1 c=64 v=0
38520 Par ch=1 c=64 v=0
38520 Par ch=1 c=64 v=0
38524 Par ch=1 c=64 v=0
38640 On ch=1 n=a3 v=0
38640 On ch=1 n=e4 v=0
38720 Tempo 250000
38880 On ch=1 n=e5 v=0
38880 On ch=1 n=c5 v=0
38880 On ch=1 n=a5 v=0
38880 On ch=1 n=f#5 v=108
38880 On ch=1 n=c5 v=108
38880 On ch=1 n=a5 v=108
38880 On ch=1 n=d4 v=87
38880 On ch=1 n=a4 v=87
38900 Par ch=1 c=64 v=127
38900 Par ch=1 c=64 v=127
38904 Par ch=1 c=64 v=127
38908 Par ch=1 c=64 v=127
39080 Tempo 245902
39120 On ch=1 n=a5 v=0
39120 On ch=1 n=c5 v=0
39120 Tempo 244898
39120 On ch=1 n=d5 v=108
39120 On ch=1 n=b5 v=108
39360 On ch=1 n=b5 v=0
39360 On ch=1 n=d5 v=0
39360 On ch=1 n=a4 v=0
39360 On ch=1 n=d4 v=0
39360 On ch=1 n=f#5 v=0
39360 On ch=1 n=f#5 v=108
39360 On ch=1 n=d5 v=108
39360 On ch=1 n=b5 v=108
39360 On ch=1 n=d3 v=87
39360 On ch=1 n=d4 v=87
39600 On ch=1 n=b5 v=0
39600 On ch=1 n=d5 v=0
39600 On ch=1 n=c5 v=108
39600 On ch=1 n=a5 v=108
39640 Tempo 243902
39760 Tempo 242915
39840 On ch=1 n=a5 v=0
39840 On ch=1 n=c5 v=0
39840 On ch=1 n=d4 v=0
39840 On ch=1 n=d3 v=0
39840 On ch=1 n=f#5 v=0
39840 On ch=1 n=f#5 v=108
39840 On ch=1 n=c5 v=108
39840 On ch=1 n=a5 v=108
39840 On ch=1 n=a4 v=87
39840 On ch=1 n=d4 v=87
39960 Par ch=1 c=64 v=0
39960 Par ch=1 c=64 v=0
39960 Par ch=1 c=64 v=0
39964 Par ch=1 c=64 v=0
40080 On ch=1 n=a5 v=0
40080 On ch=1 n=c5 v=0
40080 On ch=1 n=d5 v=108
40080 On ch=1 n=b5 v=108
40320 On ch=1 n=b5 v=0
40320 On ch=1 n=d5 v=0
40320 On ch=1 n=d4 v=0
40320 On ch=1 n=a4 v=0
40320 On ch=1 n=f#5 v=0
40320 Par ch=1 c=64 v=127
40320 Par ch=1 c=64 v=127
40320 Par ch=1 c=64 v=127
40320 On ch=1 n=c5 v=108
40320 On ch=1 n=e5 v=108
40320 On ch=1 n=g5 v=108
40320 Par ch=1 c=64 v=127
40320 On ch=1 n=g3 v=127
40320 On ch=1 n=d4 v=127
40320 On ch=1 n=g4 v=127
40560 On ch=1 n=e5 v=0
40560 On ch=1 n=c5 v=0
40560 On ch=1 n=b4 v=108
40560 On ch=1 n=d5 v=108
40720 On ch=1 n=d5 v=0
40720 On ch=1 n=b4 v=0
40720 On ch=1 n=e5 v=108
40800 On ch=1 n=e5 v=0
40800 On ch=1 n=g4 v=0
40800 On ch=1 n=d4 v=0
40800 On ch=1 n=g3 v=0
40800 On ch=1 n=b4 v=108
40800 On ch=1 n=d5 v=108
40800 On ch=1 n=g2 v=87
40800 On ch=1 n=g3 v=87
41040 On ch=1 n=g3 v=0
41040 On ch=1 n=g2 v=0
41040 On ch=1 n=d5 v=0
41040 On ch=1 n=b4 v=0
41040 On ch=1 n=a4 v=108
41040 On ch=1 n=c5 v=108
41280 On ch=1 n=c5 v=0
41280 On ch=1 n=a4 v=0
41280 On ch=1 n=b4 v=108
41280 On ch=1 n=d5 v=108
41280 On ch=1 n=g4 v=87
41280 On ch=1 n=g3 v=87
41512 Par ch=1 c=64 v=0
41512 Par ch=1 c=64 v=0
41516 Par ch=1 c=64 v=0
41516 Par ch=1 c=64 v=0
41520 On ch=1 n=g3 v=0
41520 On ch=1 n=g4 v=0
41760 On ch=1 n=d5 v=0
41760 On ch=1 n=b4 v=0
41760 On ch=1 n=g5 v=0
41760 On ch=1 n=e5 v=108
41760 On ch=1 n=g5 v=108
41760 Par ch=1 c=7 v=88
41760 On ch=1 n=c4 v=87
41760 On ch=1 n=g4 v=87
41880 Par ch=1 c=7 v=89
42000 On ch=1 n=g5 v=0
42000 On ch=1 n=a5 v=108
42000 Par ch=1 c=7 v=90
42040 Par ch=1 c=64 v=127
42044 Par ch=1 c=64 v=127
42044 Par ch=1 c=64 v=127
42120 Par ch=1 c=7 v=91
42240 On ch=1 n=a5 v=0
42240 On ch=1 n=g4 v=0
42240 On ch=1 n=c4 v=0
42240 On ch=1 n=e5 v=0
42240 On ch=1 n=e5 v=108
42240 On ch=1 n=a5 v=108
42240 Par ch=1 c=7 v=92
42240 On ch=1 n=g4 v=87
42240 On ch=1 n=c5 v=87
42240 On ch=1 n=c4 v=87
42360 Par ch=1 c=7 v=93
42480 On ch=1 n=a5 v=0
42480 On ch=1 n=b5 v=108
42480 Par ch=1 c=7 v=94
42560 Par ch=1 c=7 v=95
42680 Par ch=1 c=7 v=96
42720 On ch=1 n=b5 v=0
42720 On ch=1 n=c4 v=0
42720 On ch=1 n=c5 v=0
42720 On ch=1 n=g4 v=0
42720 On ch=1 n=e5 v=0
42720 On ch=1 n=e5 v=108
42720 On ch=1 n=b5 v=108
42720 On ch=1 n=g4 v=87
42720 On ch=1 n=c5 v=87
42720 On ch=1 n=c4 v=87
42800 Par ch=1 c=7 v=97
42920 Par ch=1 c=7 v=98
42960 On ch=1 n=b5 v=0
42960 On ch=1 n=c6 v=108
43040 Par ch=1 c=7 v=99
43160 Par ch=1 c=7 v=100
43200 On ch=1 n=c6 v=0
43200 On ch=1 n=c4 v=0
43200 On ch=1 n=c5 v=0
43200 On ch=1 n=g4 v=0
43200 On ch=1 n=e5 v=0
43200 Tempo 246914
43200 On ch=1 n=e5 v=108
43200 On ch=1 n=c6 v=108
43200 On ch=1 n=c5 v=87
43200 On ch=1 n=g4 v=87
43200 On ch=1 n=c4 v=87
43280 Par ch=1 c=7 v=101
43320 Tempo 247934
43360 Par ch=1 c=7 v=102
43400 Tempo 248963
43440 On ch=1 n=c6 v=0
43440 On ch=1 n=d6 v=108
43480 Par ch=1 c=7 v=103
43520 Tempo 250000
43600 Par ch=1 c=7 v=104
43680 On ch=1 n=d6 v=0
43680 On ch=1 n=c4 v=0
43680 On ch=1 n=g4 v=0
43680 On ch=1 n=c5 v=0
43680 On ch=1 n=e5 v=0
43680 On ch=1 n=a5 v=108
43680 On ch=1 n=e5 v=108
43680 On ch=1 n=d6 v=108
43680 On ch=1 n=c5 v=87
43680 On ch=1 n=f#4 v=87
43680 On ch=1 n=c4 v=87
43720 Par ch=1 c=7 v=105
43840 Par ch=1 c=7 v=106
43920 On ch=1 n=d6 v=0
43920 Tempo 252101
43920 On ch=1 n=e6 v=108
43960 Par ch=1 c=7 v=107
44080 Par ch=1 c=7 v=108
44160 On ch=1 n=e6 v=0
44160 On ch=1 n=c4 v=0
44160 On ch=1 n=f#4 v=0
44160 On ch=1 n=c5 v=0
44160 On ch=1 n=e5 v=0
44160 On ch=1 n=a5 v=0
44160 Tempo 254237
44160 On ch=1 n=a5 v=108
44160 On ch=1 n=e5 v=108
44160 On ch=1 n=e6 v=108
44160 Par ch=1 c=7 v=109
44160 On ch=1 n=b4 v=87
44160 On ch=1 n=f#4 v=87
44160 On ch=1 n=b3 v=87
44320 Tempo 256410
44360 Tempo 257511
44400 On ch=1 n=e6 v=0
44400 On ch=1 n=e5 v=0
44400 Tempo 258621
44400 On ch=1 n=d#5 v=108
44400 On ch=1 n=d#6 v=108
44520 Tempo 259740
44560 Tempo 258621
44600 Tempo 257511
44604 Par ch=1 c=64 v=0
44604 Par ch=1 c=64 v=0
44604 Par ch=1 c=64 v=0
44640 On ch=1 n=d#6 v=0
44640 On ch=1 n=d#5 v=0
44640 On ch=1 n=b3 v=0
44640 On ch=1 n=f#4 v=0
44640 On ch=1 n=b4 v=0
44640 On ch=1 n=a5 v=0
44640 Tempo 245902
44640 On ch=1 n=e5 v=108
44640 On ch=1 n=g5 v=108
44640 Par ch=1 c=7 v=88
44640 On ch=1 n=b4 v=87
44640 On ch=1 n=e4 v=87
44800 Tempo 244898
44800 Par ch=1 c=7 v=89
44880 On ch=1 n=g5 v=0
44880 On ch=1 n=a5 v=108
44916 Par ch=1 c=64 v=127
44920 Par ch=1 c=64 v=127
44920 Par ch=1 c=64 v=127
44960 Par ch=1 c=7 v=90
45120 On ch=1 n=a5 v=0
45120 On ch=1 n=e4 v=0
45120 On ch=1 n=b4 v=0
45120 On ch=1 n=e5 v=0
45120 On ch=1 n=e5 v=108
45120 On ch=1 n=a5 v=108
45120 Par ch=1 c=7 v=91
45120 On ch=1 n=c5 v=87
45120 On ch=1 n=c4 v=87
45280 Par ch=1 c=7 v=92
45360 On ch=1 n=a5 v=0
45360 On ch=1 n=b5 v=108
45440 Par ch=1 c=7 v=93
45600 On ch=1 n=b5 v=0
45600 On ch=1 n=c4 v=0
45600 On ch=1 n=c5 v=0
45600 On ch=1 n=e5 v=0
45600 On ch=1 n=e5 v=108
45600 On ch=1 n=b5 v=108
45600 Par ch=1 c=7 v=94
45600 On ch=1 n=c5 v=87
45600 On ch=1 n=c4 v=87
45760 Par ch=1 c=7 v=95
45840 On ch=1 n=b5 v=0
45840 On ch=1 n=c6 v=108
45920 Par ch=1 c=7 v=96
46080 On ch=1 n=c6 v=0
46080 On ch=1 n=c4 v=0
46080 On ch=1 n=c5 v=0
46080 On ch=1 n=e5 v=0
46080 On ch=1 n=e5 v=108
46080 On ch=1 n=c6 v=108
46080 Par ch=1 c=7 v=97
46080 On ch=1 n=c5 v=87
46080 On ch=1 n=g4 v=87
46080 On ch=1 n=c4 v=87
46240 Par ch=1 c=7 v=98
46320 On ch=1 n=c6 v=0
46320 On ch=1 n=d6 v=108
46400 Par ch=1 c=7 v=99
46560 On ch=1 n=d6 v=0
46560 On ch=1 n=c4 v=0
46560 On ch=1 n=g4 v=0
46560 On ch=1 n=c5 v=0
46560 On ch=1 n=e5 v=0
46560 On ch=1 n=a5 v=108
46560 On ch=1 n=e5 v=108
46560 On ch=1 n=d6 v=108
46560 Par ch=1 c=7 v=100
46560 On ch=1 n=c5 v=87
46560 On ch=1 n=f#4 v=87
46560 On ch=1 n=c4 v=87
46720 Par ch=1 c=7 v=101
46800 On ch=1 n=d6 v=0
46800 On ch=1 n=e6 v=108
46880 Par ch=1 c=7 v=102
47040 On ch=1 n=e6 v=0
47040 On ch=1 n=c4 v=0
47040 On ch=1 n=f#4 v=0
47040 On ch=1 n=c5 v=0
47040 On ch=1 n=e5 v=0
47040 On ch=1 n=a5 v=0
47040 On ch=1 n=a5 v=108
47040 On ch=1 n=e6 v=108
47040 Par ch=1 c=7 v=103
47040 On ch=1 n=f#4 v=87
47040 On ch=1 n=b4 v=87
47040 On ch=1 n=b3 v=87
47200 Par ch=1 c=7 v=104
47272 Par ch=1 c=64 v=0
47276 Par ch=1 c=64 v=0
47276 Par ch=1 c=64 v=0
47280 On ch=1 n=e6 v=0
47280 On ch=1 n=d#6 v=108
47280 On ch=1 n=f#6 v=108
47360 Par ch=1 c=7 v=105
47520 On ch=1 n=f#6 v=0
47520 On ch=1 n=d#6 v=0
47520 On ch=1 n=b3 v=0
47520 On ch=1 n=b4 v=0
47520 On ch=1 n=f#4 v=0
47520 On ch=1 n=a5 v=0
47520 On ch=1 n=g6 v=108
47520 On ch=1 n=e6 v=108
47520 On ch=1 n=g5 v=108
47520 Par ch=1 c=7 v=106
47520 On ch=1 n=b4 v=87
47520 On ch=1 n=e4 v=87
47632 Par ch=1 c=64 v=127
47636 Par ch=1 c=64 v=127
47636 Par ch=1 c=64 v=127
48000 On ch=1 n=e4 v=0
48000 On ch=1 n=b4 v=0
48000 On ch=1 n=g5 v=0
48000 On ch=1 n=e6 v=0
48000 On ch=1 n=g6 v=0
48000 On ch=1 n=a5 v=108
48000 On ch=1 n=e6 v=108
48000 On ch=1 n=g6 v=108
48000 Par ch=1 c=7 v=87
48000 On ch=1 n=b4 v=87
48000 On ch=1 n=b3 v=87
48200 Par ch=1 c=7 v=88
48240 On ch=1 n=g6 v=0
48240 On ch=1 n=e6 v=0
48240 On ch=1 n=d#6 v=108
48240 On ch=1 n=f#6 v=108
48400 Par ch=1 c=7 v=89
48480 On ch=1 n=f#6 v=0
48480 On ch=1 n=d#6 v=0
48480 On ch=1 n=b3 v=0
48480 On ch=1 n=b4 v=0
48480 On ch=1 n=a5 v=0
48480 On ch=1 n=g5 v=108
48480 On ch=1 n=d#6 v=108
48480 On ch=1 n=f#6 v=108
48480 On ch=1 n=b4 v=87
48480 On ch=1 n=e4 v=87
48600 Par ch=1 c=7 v=90
48720 On ch=1 n=f#6 v=0
48720 On ch=1 n=d#6 v=0
48720 On ch=1 n=e6 v=108
48720 On ch=1 n=g6 v=108
48760 Par ch=1 c=7 v=91
48960 On ch=1 n=g6 v=0
48960 On ch=1 n=e6 v=0
48960 On ch=1 n=e4 v=0
48960 On ch=1 n=b4 v=0
48960 On ch=1 n=g5 v=0
48960 On ch=1 n=a5 v=108
48960 On ch=1 n=g6 v=108
48960 Par ch=1 c=7 v=92
48960 On ch=1 n=b3 v=87
48960 On ch=1 n=b4 v=87
49160 Par ch=1 c=7 v=93
49200 On ch=1 n=g6 v=0
49200 On ch=1 n=f#6 v=108
49320 Par ch=1 c=7 v=94
49440 On ch=1 n=f#6 v=0
49440 On ch=1 n=b4 v=0
49440 On ch=1 n=b3 v=0
49440 On ch=1 n=a5 v=0
49440 On ch=1 n=g5 v=108
49440 On ch=1 n=f#6 v=108
49440 On ch=1 n=e4 v=87
49440 On ch=1 n=b4 v=87
49520 Par ch=1 c=7 v=95
49680 On ch=1 n=f#6 v=0
49680 On ch=1 n=g6 v=108
49720 Par ch=1 c=7 v=96
49920 On ch=1 n=g6 v=0
49920 On ch=1 n=b4 v=0
49920 On ch=1 n=e4 v=0
49920 On ch=1 n=g5 v=0
49920 On ch=1 n=e6 v=108
49920 On ch=1 n=g5 v=108
49920 On ch=1 n=g6 v=108
49920 Par ch=1 c=7 v=97
49920 On ch=1 n=b3 v=87
49920 On ch=1 n=b4 v=87
50036 Par ch=1 c=64 v=0
50040 Par ch=1 c=64 v=0
50040 Par ch=1 c=64 v=0
50080 Par ch=1 c=7 v=98
50160 On ch=1 n=g6 v=0
50160 On ch=1 n=g5 v=0
50160 On ch=1 n=e6 v=0
50160 On ch=1 n=f6 v=108
50160 On ch=1 n=g#5 v=108
50160 On ch=1 n=g#6 v=108
50280 Par ch=1 c=7 v=99
50400 On ch=1 n=g#6 v=0
50400 On ch=1 n=g#5 v=0
50400 On ch=1 n=f6 v=0
50400 On ch=1 n=b4 v=0
50400 On ch=1 n=b3 v=0
50400 On ch=1 n=g#5 v=108
50400 On ch=1 n=f6 v=108
50400 On ch=1 n=g#6 v=108
50400 On ch=1 n=b2 v=87
50400 On ch=1 n=b3 v=87
50436 Par ch=1 c=64 v=127
50436 Par ch=1 c=64 v=127
50436 Par ch=1 c=64 v=127
50440 Par ch=1 c=64 v=127
50480 Par ch=1 c=7 v=100
50640 On ch=1 n=b3 v=0
50640 On ch=1 n=b2 v=0
50640 On ch=1 n=g#6 v=0
50640 On ch=1 n=f6 v=0
50640 On ch=1 n=g#5 v=0
50640 On ch=1 n=a5 v=108
50640 On ch=1 n=f#6 v=108
50640 On ch=1 n=a6 v=108
50640 Par ch=1 c=7 v=101
50840 Par ch=1 c=7 v=102
50880 On ch=1 n=a6 v=0
50880 On ch=1 n=f#6 v=0
50880 On ch=1 n=a5 v=0
50880 On ch=1 n=a5 v=108
50880 On ch=1 n=f#6 v=108
50880 On ch=1 n=a6 v=108
50880 On ch=1 n=d5 v=87
50880 On ch=1 n=b4 v=87
50880 On ch=1 n=f4 v=87
51040 Par ch=1 c=7 v=103
51120 On ch=1 n=a6 v=0
51120 On ch=1 n=f#6 v=0
51120 On ch=1 n=a5 v=0
51120 On ch=1 n=g#5 v=108
51120 On ch=1 n=f6 v=108
51120 On ch=1 n=g#6 v=108
51240 Par ch=1 c=7 v=104
51360 On ch=1 n=g#6 v=0
51360 On ch=1 n=f6 v=0
51360 On ch=1 n=g#5 v=0
51360 On ch=1 n=f4 v=0
51360 On ch=1 n=b4 v=0
51360 On ch=1 n=d5 v=0
51360 On ch=1 n=g#5 v=108
51360 On ch=1 n=f6 v=108
51360 On ch=1 n=g#6 v=108
51360 On ch=1 n=f#4 v=87
51360 On ch=1 n=b4 v=87
51360 On ch=1 n=d#5 v=87
51400 Par ch=1 c=7 v=105
51600 On ch=1 n=g#6 v=0
51600 On ch=1 n=f6 v=0
51600 On ch=1 n=g#5 v=0
51600 On ch=1 n=a5 v=108
51600 On ch=1 n=f#6 v=108
51600 On ch=1 n=a6 v=108
51600 Par ch=1 c=7 v=106
51800 Tempo 242915
51800 Par ch=1 c=7 v=107
51840 On ch=1 n=a6 v=0
51840 On ch=1 n=f#6 v=0
51840 On ch=1 n=a5 v=0
51840 On ch=1 n=d#5 v=0
51840 On ch=1 n=b4 v=0
51840 On ch=1 n=f#4 v=0
51840 Tempo 243902
51840 On ch=1 n=f#6 v=108
51840 On ch=1 n=a5 v=108
51840 On ch=1 n=a6 v=108
51840 On ch=1 n=d5 v=87
51840 On ch=1 n=b4 v=87
51840 On ch=1 n=f4 v=87
51880 Tempo 244898
51960 Par ch=1 c=7 v=108
52068 Par ch=1 c=64 v=0
52068 Par ch=1 c=64 v=0
52068 Par ch=1 c=64 v=0
52072 Par ch=1 c=64 v=0
52080 On ch=1 n=a6 v=0
52080 On ch=1 n=a5 v=0
52080 On ch=1 n=f#6 v=0
52080 On ch=1 n=f6 v=108
52080 On ch=1 n=g#5 v=108
52080 On ch=1 n=g#6 v=108
52120 Tempo 245902
52160 Par ch=1 c=7 v=109
52240 Tempo 246914
52320 On ch=1 n=g#6 v=0
52320 On ch=1 n=g#5 v=0
52320 On ch=1 n=f6 v=0
52320 On ch=1 n=f4 v=0
52320 On ch=1 n=b4 v=0
52320 On ch=1 n=d5 v=0
52320 Tempo 251046
52320 On ch=1 n=f6 v=108
52320 On ch=1 n=g#5 v=108
52320 On ch=1 n=g#6 v=108
52320 On ch=1 n=f#4 v=87
52320 On ch=1 n=b4 v=87
52320 On ch=1 n=d#5 v=87
52360 Tempo 253165
52360 Par ch=1 c=7 v=110
52440 Tempo 276498
52480 Tempo 277778
52520 Tempo 280374
52560 On ch=1 n=g#6 v=0
52560 On ch=1 n=g#5 v=0
52560 On ch=1 n=f6 v=0
52560 Tempo 287081
52560 On ch=1 n=f#6 v=108
52560 On ch=1 n=a5 v=108
52560 On ch=1 n=a6 v=108
52560 Par ch=1 c=7 v=111
52600 Tempo 298507
52720 Par ch=1 c=7 v=112
52800 On ch=1 n=a6 v=0
52800 On ch=1 n=a5 v=0
52800 On ch=1 n=f#6 v=0
52800 On ch=1 n=d#5 v=0
52800 On ch=1 n=b4 v=0
52800 On ch=1 n=f#4 v=0
52800 On ch=1 n=f#6 v=108
52800 On ch=1 n=a5 v=108
52800 On ch=1 n=a6 v=108
52800 On ch=1 n=b2 v=87
52800 On ch=1 n=b3 v=87
52840 Tempo 297030
52920 Tempo 292683
52920 Par ch=1 c=7 v=113
52960 Tempo 277778
53000 Tempo 269058
53040 On ch=1 n=b3 v=0
53040 On ch=1 n=b2 v=0
53040 On ch=1 n=a6 v=0
53040 On ch=1 n=a5 v=0
53040 Tempo 259740
53040 On ch=1 n=a#5 v=108
53040 On ch=1 n=a#6 v=108
53080 Tempo 258621
53120 Tempo 257511
53120 Par ch=1 c=7 v=114
53160 Tempo 255319
53200 Tempo 254237
53240 Tempo 250000
53248 Par ch=1 c=64 v=127
53248 Par ch=1 c=64 v=127
53252 Par ch=1 c=64 v=127
53252 Par ch=1 c=64 v=127
53280 On ch=1 n=a#6 v=0
53280 On ch=1 n=a#5 v=0
53280 On ch=1 n=f#6 v=0
53280 Tempo 248963
53280 On ch=1 n=a#6 v=108
53280 On ch=1 n=a#5 v=108
53280 Par ch=1 c=7 v=127
53280 On ch=1 n=a#2 v=127
53280 On ch=1 n=a#3 v=127
53520 On ch=1 n=a#3 v=0
53520 On ch=1 n=a#2 v=0
53760 On ch=1 n=a#5 v=0
53760 On ch=1 n=a#6 v=0
53760 On ch=1 n=f#6 v=127
53760 On ch=1 n=a#6 v=127
53760 On ch=1 n=a#5 v=127
53760 On ch=1 n=a#6 v=127
53760 On ch=1 n=d#5 v=87
53760 On ch=1 n=a#4 v=87
53760 On ch=1 n=f#4 v=87
54000 On ch=1 n=a#6 v=0
54000 On ch=1 n=f#6 v=0
54000 On ch=1 n=f6 v=108
54000 On ch=1 n=g#6 v=108
54240 On ch=1 n=g#6 v=0
54240 On ch=1 n=f6 v=0
54240 On ch=1 n=f#4 v=0
54240 On ch=1 n=a#4 v=0
54240 On ch=1 n=d#5 v=0
54240 On ch=1 n=a#6 v=0
54240 On ch=1 n=a#5 v=0
54240 On ch=1 n=f6 v=127
54240 On ch=1 n=g#6 v=127
54240 On ch=1 n=a#5 v=127
54240 On ch=1 n=a#6 v=127
54240 On ch=1 n=a#4 v=87
54240 On ch=1 n=f#5 v=87
54240 On ch=1 n=d#5 v=87
54336 Par ch=1 c=64 v=0
54336 Par ch=1 c=64 v=0
54336 Par ch=1 c=64 v=0
54340 Par ch=1 c=64 v=0
54480 On ch=1 n=g#6 v=0
54480 On ch=1 n=f6 v=0
54480 On ch=1 n=d#6 v=108
54480 On ch=1 n=f#6 v=108
54720 On ch=1 n=f#6 v=0
54720 On ch=1 n=d#6 v=0
54720 On ch=1 n=d#5 v=0
54720 On ch=1 n=f#5 v=0
54720 On ch=1 n=a#4 v=0
54720 On ch=1 n=a#6 v=0
54720 On ch=1 n=a#5 v=0
54720 On ch=1 n=f6 v=127
54720 On ch=1 n=g#6 v=127
54720 On ch=1 n=a#5 v=127
54720 On ch=1 n=a#6 v=127
54720 On ch=1 n=a#3 v=127
54720 On ch=1 n=a#4 v=127
54784 Par ch=1 c=64 v=127
54784 Par ch=1 c=64 v=127
54784 Par ch=1 c=64 v=127
54788 Par ch=1 c=64 v=127
54960 On ch=1 n=a#4 v=0
54960 On ch=1 n=a#3 v=0
55200 On ch=1 n=a#6 v=0
55200 On ch=1 n=a#5 v=0
55200 On ch=1 n=g#6 v=0
55200 On ch=1 n=f6 v=0
55200 On ch=1 n=f6 v=127
55200 On ch=1 n=g#6 v=127
55200 On ch=1 n=a#5 v=127
55200 On ch=1 n=a#6 v=127
55200 On ch=1 n=f4 v=87
55200 On ch=1 n=d5 v=87
55440 On ch=1 n=g#6 v=0
55440 On ch=1 n=f6 v=0
55440 On ch=1 n=d#6 v=108
55440 On ch=1 n=f#6 v=108
55680 On ch=1 n=f#6 v=0
55680 On ch=1 n=d#6 v=0
55680 On ch=1 n=d5 v=0
55680 On ch=1 n=f4 v=0
55680 On ch=1 n=a#6 v=0
55680 On ch=1 n=a#5 v=0
55680 On ch=1 n=d#6 v=127
55680 On ch=1 n=f#6 v=127
55680 On ch=1 n=a#5 v=127
55680 On ch=1 n=a#6 v=127
55680 On ch=1 n=g#5 v=87
55680 On ch=1 n=f5 v=87
55680 On ch=1 n=a#4 v=87
55756 Par ch=1 c=64 v=0
55756 Par ch=1 c=64 v=0
55756 Par ch=1 c=64 v=0
55760 Par ch=1 c=64 v=0
55920 On ch=1 n=f#6 v=0
55920 On ch=1 n=d#6 v=0
55920 On ch=1 n=d6 v=108
55920 On ch=1 n=f6 v=108
56160 On ch=1 n=f6 v=0
56160 On ch=1 n=d6 v=0
56160 On ch=1 n=a#4 v=0
56160 On ch=1 n=f5 v=0
56160 On ch=1 n=g#5 v=0
56160 On ch=1 n=a#6 v=0
56160 On ch=1 n=a#5 v=0
56160 Tempo 248963
56160 On ch=1 n=a#6 v=108
56160 On ch=1 n=a#5 v=108
56160 On ch=1 n=d#6 v=108
56160 On ch=1 n=f#6 v=108
56160 Par ch=1 c=7 v=127
56160 On ch=1 n=d#3 v=127
56160 On ch=1 n=d#4 v=127
56216 Par ch=1 c=64 v=127
56216 Par ch=1 c=64 v=127
56216 Par ch=1 c=64 v=127
56220 Par ch=1 c=64 v=127
56240 Par ch=1 c=7 v=126
56280 Par ch=1 c=7 v=125
56320 Par ch=1 c=7 v=124
56400 On ch=1 n=d#4 v=0
56400 On ch=1 n=d#3 v=0
56400 On ch=1 n=a#5 v=0
56400 On ch=1 n=a#6 v=0
56400 Tempo 246914
56400 Par ch=1 c=7 v=123
56440 Tempo 245902
56440 Par ch=1 c=7 v=122
56480 Par ch=1 c=7 v=121
56520 Tempo 244898
56560 Tempo 243902
56560 Par ch=1 c=7 v=120
56600 Par ch=1 c=7 v=119
56640 On ch=1 n=f#6 v=0
56640 On ch=1 n=d#6 v=0
56640 Tempo 242915
56640 On ch=1 n=a#5 v=108
56640 On ch=1 n=f#6 v=108
56640 Par ch=1 c=7 v=118
56640 On ch=1 n=d#4 v=87
56640 On ch=1 n=a#4 v=87
56680 Par ch=1 c=7 v=117
56760 Par ch=1 c=7 v=116
56800 Par ch=1 c=7 v=115
56840 Par ch=1 c=7 v=114
56880 On ch=1 n=f#6 v=0
56880 On ch=1 n=a#5 v=0
56880 On ch=1 n=g#5 v=108
56880 On ch=1 n=f6 v=108
56920 Par ch=1 c=7 v=113
56960 Tempo 241935
56960 Par ch=1 c=7 v=112
57000 Par ch=1 c=7 v=111
57080 Par ch=1 c=7 v=110
57120 On ch=1 n=f6 v=0
57120 On ch=1 n=g#5 v=0
57120 On ch=1 n=a#4 v=0
57120 On ch=1 n=g#5 v=108
57120 On ch=1 n=f6 v=108
57120 Par ch=1 c=7 v=109
57120 On ch=1 n=d5 v=87
57128 Par ch=1 c=64 v=0
57128 Par ch=1 c=64 v=0
57128 Par ch=1 c=64 v=0
57128 Par ch=1 c=64 v=0
57160 Par ch=1 c=7 v=108
57200 Par ch=1 c=7 v=107
57280 Par ch=1 c=7 v=106
57320 Par ch=1 c=7 v=105
57360 On ch=1 n=f6 v=0
57360 On ch=1 n=g#5 v=0
57360 On ch=1 n=g5 v=108
57360 On ch=1 n=d#6 v=108
57360 Par ch=1 c=7 v=104
57440 Par ch=1 c=7 v=103
57480 Par ch=1 c=7 v=102
57520 Par ch=1 c=7 v=101
57600 On ch=1 n=d#6 v=0
57600 On ch=1 n=g5 v=0
57600 On ch=1 n=d5 v=0
57600 On ch=1 n=d#6 v=108
57600 On ch=1 n=g5 v=108
57600 Par ch=1 c=7 v=100
57600 On ch=1 n=d#5 v=87
57620 Par ch=1 c=64 v=127
57620 Par ch=1 c=64 v=127
57624 Par ch=1 c=64 v=127
57624 Par ch=1 c=64 v=127
57640 Tempo 240000
57640 Par ch=1 c=7 v=99
57680 Par ch=1 c=7 v=98
57720 Par ch=1 c=7 v=97
57800 Par ch=1 c=7 v=96
57840 On ch=1 n=g5 v=0
57840 On ch=1 n=d#6 v=0
57840 Par ch=1 c=7 v=95
57880 Par ch=1 c=7 v=94
57960 Par ch=1 c=7 v=93
58000 Par ch=1 c=7 v=92
58040 Par ch=1 c=7 v=91
58080 On ch=1 n=d#5 v=0
58080 On ch=1 n=d#4 v=0
58080 On ch=1 n=f#5 v=108
58080 On ch=1 n=a#5 v=108
58080 Par ch=1 c=7 v=90
58080 On ch=1 n=d#3 v=87
58080 On ch=1 n=d#4 v=87
58240 Par ch=1 c=7 v=91
58320 On ch=1 n=f#5 v=0
58320 On ch=1 n=e5 v=108
58392 Par ch=1 c=64 v=0
58392 Par ch=1 c=64 v=0
58392 Par ch=1 c=64 v=0
58396 Par ch=1 c=64 v=0
58400 Par ch=1 c=7 v=92
58560 On ch=1 n=e5 v=0
58560 On ch=1 n=d#4 v=0
58560 On ch=1 n=d#3 v=0
58560 On ch=1 n=a#5 v=0
58560 On ch=1 n=f#5 v=108
58560 On ch=1 n=e5 v=108
58560 On ch=1 n=b5 v=108
58560 Par ch=1 c=7 v=93
58560 On ch=1 n=c#5 v=127
58560 On ch=1 n=d#4 v=127
58712 Par ch=1 c=64 v=127
58712 Par ch=1 c=64 v=127
58716 Par ch=1 c=64 v=127
58716 Par ch=1 c=64 v=127
58720 Par ch=1 c=7 v=94
58800 On ch=1 n=e5 v=0
58800 On ch=1 n=d#5 v=108
58880 Par ch=1 c=7 v=95
59040 On ch=1 n=d#5 v=0
59040 On ch=1 n=d#4 v=0
59040 On ch=1 n=c#5 v=0
59040 On ch=1 n=b5 v=0
59040 On ch=1 n=f#5 v=0
59040 On ch=1 n=b4 v=108
59040 On ch=1 n=d#5 v=108
59040 Par ch=1 c=7 v=96
59040 On ch=1 n=g#3 v=127
59040 On ch=1 n=d#4 v=127
59040 On ch=1 n=g#4 v=127
59156 Par ch=1 c=64 v=0
59156 Par ch=1 c=64 v=0
59160 Par ch=1 c=64 v=0
59160 Par ch=1 c=64 v=0
59280 On ch=1 n=d#5 v=0
59280 On ch=1 n=e5 v=108
59412 Par ch=1 c=64 v=127
59412 Par ch=1 c=64 v=127
59412 Par ch=1 c=64 v=127
59416 Par ch=1 c=64 v=127
59520 On ch=1 n=e5 v=0
59520 On ch=1 n=g#4 v=0
59520 On ch=1 n=d#4 v=0
59520 On ch=1 n=g#3 v=0
59520 On ch=1 n=b4 v=0
59520 On ch=1 n=b4 v=108
59520 On ch=1 n=e5 v=108
59520 On ch=1 n=g#2 v=87
59520 On ch=1 n=g#3 v=87
59760 On ch=1 n=g#3 v=0
59760 On ch=1 n=g#2 v=0
59760 On ch=1 n=e5 v=0
59760 On ch=1 n=f5 v=108
60000 On ch=1 n=f5 v=0
60000 On ch=1 n=b4 v=0
60000 On ch=1 n=b4 v=108
60000 On ch=1 n=f5 v=108
60000 On ch=1 n=d#3 v=87
60000 On ch=1 n=d#4 v=87
60240 On ch=1 n=d#4 v=0
60240 On ch=1 n=d#3 v=0
60240 On ch=1 n=f5 v=0
60240 On ch=1 n=f#5 v=108
60292 Par ch=1 c=64 v=0
60292 Par ch=1 c=64 v=0
60296 Par ch=1 c=64 v=0
60296 Par ch=1 c=64 v=0
60480 On ch=1 n=f#5 v=0
60480 On ch=1 n=b4 v=0
60480 On ch=1 n=d#5 v=108
60480 On ch=1 n=b4 v=108
60480 On ch=1 n=f#5 v=108
60480 On ch=1 n=g#3 v=127
60480 On ch=1 n=d#4 v=127
60480 On ch=1 n=g#4 v=127
60708 Par ch=1 c=64 v=127
60708 Par ch=1 c=64 v=127
60708 Par ch=1 c=64 v=127
60712 Par ch=1 c=64 v=127
60720 On ch=1 n=f#5 v=0
60720 On ch=1 n=g5 v=108
60960 On ch=1 n=g5 v=0
60960 On ch=1 n=g#4 v=0
60960 On ch=1 n=d#4 v=0
60960 On ch=1 n=g#3 v=0
60960 On ch=1 n=b4 v=0
60960 On ch=1 n=d#5 v=0
60960 On ch=1 n=d#5 v=108
60960 On ch=1 n=b4 v=108
60960 On ch=1 n=g5 v=108
60960 On ch=1 n=g#2 v=87
60960 On ch=1 n=g#3 v=87
61200 On ch=1 n=g#3 v=0
61200 On ch=1 n=g#2 v=0
61200 On ch=1 n=g5 v=0
61200 On ch=1 n=g#5 v=108
61440 On ch=1 n=g#5 v=0
61440 On ch=1 n=b4 v=0
61440 On ch=1 n=d#5 v=0
61440 On ch=1 n=d#5 v=108
61440 On ch=1 n=b4 v=108
61440 On ch=1 n=g#5 v=108
61440 Par ch=1 c=7 v=96
61440 On ch=1 n=d#3 v=87
61440 On ch=1 n=d#4 v=87
61588 Par ch=1 c=64 v=0
61588 Par ch=1 c=64 v=0
61592 Par ch=1 c=64 v=0
61592 Par ch=1 c=64 v=0
61680 On ch=1 n=d#4 v=0
61680 On ch=1 n=d#3 v=0
61680 On ch=1 n=g#5 v=0
61680 On ch=1 n=a5 v=108
61840 Par ch=1 c=7 v=97
61920 On ch=1 n=a5 v=0
61920 On ch=1 n=b4 v=0
61920 On ch=1 n=d#5 v=0
61920 On ch=1 n=d#5 v=108
61920 On ch=1 n=a5 v=108
61920 On ch=1 n=d#4 v=127
61920 On ch=1 n=g#4 v=127
61920 On ch=1 n=b4 v=127
62008 Par ch=1 c=64 v=127
62008 Par ch=1 c=64 v=127
62012 Par ch=1 c=64 v=127
62012 Par ch=1 c=64 v=127
62160 On ch=1 n=a5 v=0
62160 On ch=1 n=a#5 v=108
62200 Par ch=1 c=7 v=98
62400 On ch=1 n=a#5 v=0
62400 On ch=1 n=b4 v=0
62400 On ch=1 n=g#4 v=0
62400 On ch=1 n=d#4 v=0
62400 On ch=1 n=d#5 v=0
62400 On ch=1 n=d#5 v=108
62400 On ch=1 n=a#5 v=108
62400 On ch=1 n=g#2 v=87
62400 On ch=1 n=g#3 v=87
62560 Par ch=1 c=7 v=99
62640 On ch=1 n=g#3 v=0
62640 On ch=1 n=g#2 v=0
62640 On ch=1 n=a#5 v=0
62640 On ch=1 n=b5 v=108
62880 On ch=1 n=b5 v=0
62880 On ch=1 n=d#5 v=0
62880 On ch=1 n=g#5 v=108
62880 On ch=1 n=d#5 v=108
62880 On ch=1 n=b5 v=108
62880 On ch=1 n=d#3 v=87
62880 On ch=1 n=d#4 v=87
62912 Par ch=1 c=64 v=0
62912 Par ch=1 c=64 v=0
62916 Par ch=1 c=64 v=0
62916 Par ch=1 c=64 v=0
62960 Par ch=1 c=7 v=100
63120 On ch=1 n=d#4 v=0
63120 On ch=1 n=d#3 v=0
63120 On ch=1 n=b5 v=0
63120 On ch=1 n=c6 v=108
63320 Par ch=1 c=7 v=101
63360 On ch=1 n=c6 v=0
63360 On ch=1 n=d#5 v=0
63360 On ch=1 n=g#5 v=0
63360 On ch=1 n=g#5 v=108
63360 On ch=1 n=d#5 v=108
63360 On ch=1 n=c6 v=108
63360 On ch=1 n=d#4 v=127
63360 On ch=1 n=g#4 v=127
63360 On ch=1 n=b4 v=127
63368 Par ch=1 c=64 v=127
63368 Par ch=1 c=64 v=127
63368 Par ch=1 c=64 v=127
63368 Par ch=1 c=64 v=127
63600 On ch=1 n=c6 v=0
63600 On ch=1 n=c#6 v=108
63680 Par ch=1 c=7 v=102
63712 Par ch=1 c=64 v=0
63712 Par ch=1 c=64 v=0
63712 Par ch=1 c=64 v=0
63716 Par ch=1 c=64 v=0
63840 On ch=1 n=c#6 v=0
63840 On ch=1 n=b4 v=0
63840 On ch=1 n=g#4 v=0
63840 On ch=1 n=d#4 v=0
63840 On ch=1 n=d#5 v=0
63840 On ch=1 n=g#5 v=0
63840 On ch=1 n=g#5 v=108
63840 On ch=1 n=d#5 v=108
63840 On ch=1 n=c#6 v=108
63840 On ch=1 n=g#2 v=87
63840 On ch=1 n=g#3 v=87
63964 Par ch=1 c=64 v=127
63964 Par ch=1 c=64 v=127
63968 Par ch=1 c=64 v=127
63968 Par ch=1 c=64 v=127
64080 On ch=1 n=g#3 v=0
64080 On ch=1 n=g#2 v=0
64080 On ch=1 n=c#6 v=0
64080 On ch=1 n=d6 v=108
64080 Par ch=1 c=7 v=103
64320 On ch=1 n=d6 v=0
64320 On ch=1 n=d#5 v=0
64320 On ch=1 n=g#5 v=0
64320 On ch=1 n=g#5 v=108
64320 On ch=1 n=d#5 v=108
64320 On ch=1 n=d6 v=108
64320 On ch=1 n=d#3 v=87
64320 On ch=1 n=d#4 v=87
64356 Par ch=1 c=64 v=0
64356 Par ch=1 c=64 v=0
64356 Par ch=1 c=64 v=0
64360 Par ch=1 c=64 v=0
64440 Par ch=1 c=7 v=104
64560 On ch=1 n=d#4 v=0
64560 On ch=1 n=d#3 v=0
64560 On ch=1 n=d6 v=0
64560 On ch=1 n=d#6 v=108
64800 On ch=1 n=d#6 v=0
64800 On ch=1 n=d#5 v=0
64800 On ch=1 n=g#5 v=0
64800 On ch=1 n=d#5 v=108
64800 On ch=1 n=a#5 v=108
64800 On ch=1 n=d#6 v=108
64800 Par ch=1 c=7 v=105
64800 On ch=1 n=d#4 v=87
64800 On ch=1 n=a#4 v=87
64852 Par ch=1 c=64 v=127
64852 Par ch=1 c=64 v=127
64852 Par ch=1 c=64 v=127
64856 Par ch=1 c=64 v=127
65040 On ch=1 n=a#4 v=0
65040 On ch=1 n=d#4 v=0
65040 On ch=1 n=d#6 v=0
65040 On ch=1 n=e6 v=108
65280 On ch=1 n=e6 v=0
65280 On ch=1 n=a#5 v=0
65280 On ch=1 n=d#5 v=0
65280 On ch=1 n=a#5 v=108
65280 On ch=1 n=e6 v=108
65280 On ch=1 n=g3 v=87
65280 On ch=1 n=d#4 v=87
65520 On ch=1 n=d#4 v=0
65520 On ch=1 n=g3 v=0
65520 On ch=1 n=e6 v=0
65520 On ch=1 n=d#6 v=108
65760 On ch=1 n=d#6 v=0
65760 On ch=1 n=a#5 v=0
65760 On ch=1 n=d#5 v=108
65760 On ch=1 n=a#5 v=108
65760 On ch=1 n=d#6 v=108
65760 On ch=1 n=d#4 v=87
65760 On ch=1 n=a#4 v=87
65812 Par ch=1 c=64 v=0
65812 Par ch=1 c=64 v=0
65840 Par ch=1 c=64 v=0
65840 Par ch=1 c=64 v=0
66000 On ch=1 n=a#4 v=0
66000 On ch=1 n=d#4 v=0
66000 On ch=1 n=d#6 v=0
66000 On ch=1 n=c#6 v=108
66240 On ch=1 n=c#6 v=0
66240 On ch=1 n=a#5 v=0
66240 On ch=1 n=d#5 v=0
66240 On ch=1 n=g#5 v=108
66240 On ch=1 n=d#5 v=108
66240 On ch=1 n=c#6 v=108
66240 On ch=1 n=d#4 v=87
66240 On ch=1 n=g#3 v=87
66308 Par ch=1 c=64 v=127
66308 Par ch=1 c=64 v=127
66308 Par ch=1 c=64 v=127
66316 Par ch=1 c=64 v=127
66480 On ch=1 n=g#3 v=0
66480 On ch=1 n=d#4 v=0
66480 On ch=1 n=c#6 v=0
66480 On ch=1 n=b5 v=108
66720 On ch=1 n=b5 v=0
66720 On ch=1 n=d#5 v=0
66720 On ch=1 n=g#5 v=0
66720 On ch=1 n=d#5 v=108
66720 On ch=1 n=g#5 v=108
66720 On ch=1 n=b5 v=108
66720 On ch=1 n=b4 v=87
66720 On ch=1 n=d#4 v=87
66960 On ch=1 n=d#4 v=0
66960 On ch=1 n=b4 v=0
66960 On ch=1 n=b5 v=0
66960 On ch=1 n=c#6 v=108
67200 On ch=1 n=c#6 v=0
67200 On ch=1 n=g#5 v=0
67200 On ch=1 n=d#5 v=0
67200 On ch=1 n=d#5 v=108
67200 On ch=1 n=g#5 v=108
67200 On ch=1 n=c#6 v=108
67200 On ch=1 n=d#4 v=87
67200 On ch=1 n=g#3 v=87
67280 Par ch=1 c=64 v=0
67280 Par ch=1 c=64 v=0
67284 Par ch=1 c=64 v=0
67284 Par ch=1 c=64 v=0
67440 On ch=1 n=g#3 v=0
67440 On ch=1 n=d#4 v=0
67440 On ch=1 n=c#6 v=0
67440 On ch=1 n=d#6 v=108
67680 On ch=1 n=d#6 v=0
67680 On ch=1 n=g#5 v=0
67680 On ch=1 n=d#5 v=0
67680 On ch=1 n=g#5 v=108
67680 On ch=1 n=e5 v=108
67680 On ch=1 n=d#6 v=108
67680 On ch=1 n=c#4 v=87
67680 On ch=1 n=g#4 v=87
67744 Par ch=1 c=64 v=127
67744 Par ch=1 c=64 v=127
67744 Par ch=1 c=64 v=127
67748 Par ch=1 c=64 v=127
67920 On ch=1 n=g#4 v=0
67920 On ch=1 n=c#4 v=0
67920 On ch=1 n=d#6 v=0
67920 On ch=1 n=c#6 v=108
68160 On ch=1 n=c#6 v=0
68160 On ch=1 n=e5 v=0
68160 On ch=1 n=g#5 v=0
68160 On ch=1 n=g#5 v=108
68160 On ch=1 n=e5 v=108
68160 On ch=1 n=c#6 v=108
68160 On ch=1 n=c#3 v=87
68160 On ch=1 n=c#4 v=87
68400 On ch=1 n=c#4 v=0
68400 On ch=1 n=c#3 v=0
68400 On ch=1 n=c#6 v=0
68400 On ch=1 n=b5 v=108
68640 On ch=1 n=b5 v=0
68640 On ch=1 n=e5 v=0
68640 On ch=1 n=g#5 v=0
68640 On ch=1 n=c#5 v=108
68640 On ch=1 n=e5 v=108
68640 On ch=1 n=b5 v=108
68640 On ch=1 n=g#4 v=87
68640 On ch=1 n=c#4 v=87
68768 Par ch=1 c=64 v=0
68768 Par ch=1 c=64 v=0
68768 Par ch=1 c=64 v=0
68768 Par ch=1 c=64 v=0
68880 On ch=1 n=c#4 v=0
68880 On ch=1 n=g#4 v=0
68880 On ch=1 n=b5 v=0
68880 On ch=1 n=a#5 v=108
69120 On ch=1 n=a#5 v=0
69120 On ch=1 n=e5 v=0
69120 On ch=1 n=c#5 v=0
69120 On ch=1 n=c#5 v=108
69120 Par ch=1 c=7 v=108
69120 On ch=1 n=d#4 v=87
69120 On ch=1 n=g4 v=87
69168 Par ch=1 c=64 v=127
69168 Par ch=1 c=64 v=127
69168 Par ch=1 c=64 v=127
69168 Par ch=1 c=64 v=127
69200 Par ch=1 c=7 v=107
69240 Par ch=1 c=7 v=106
69280 Par ch=1 c=7 v=105
69360 On ch=1 n=g4 v=0
69360 On ch=1 n=d#4 v=0
69360 On ch=1 n=b5 v=108
69360 Par ch=1 c=7 v=104
69400 Par ch=1 c=7 v=103
69440 Par ch=1 c=7 v=102
69480 Par ch=1 c=7 v=101
69560 Par ch=1 c=7 v=100
69600 On ch=1 n=b5 v=0
69600 On ch=1 n=c#5 v=0
69600 On ch=1 n=c#5 v=108
69600 On ch=1 n=b5 v=108
69600 Par ch=1 c=7 v=99
69600 On ch=1 n=d#3 v=87
69600 On ch=1 n=d#4 v=87
69640 Par ch=1 c=7 v=98
69720 Par ch=1 c=7 v=97
69760 Par ch=1 c=7 v=96
69800 Par ch=1 c=7 v=95
69840 On ch=1 n=d#4 v=0
69840 On ch=1 n=d#3 v=0
69840 On ch=1 n=b5 v=0
69840 On ch=1 n=a#5 v=108
69840 Par ch=1 c=7 v=94
69920 Par ch=1 c=7 v=93
69960 Par ch=1 c=7 v=92
70000 Par ch=1 c=7 v=91
70080 On ch=1 n=a#5 v=0
70080 On ch=1 n=c#5 v=0
70080 On ch=1 n=c#5 v=108
70080 On ch=1 n=a#5 v=108
70080 Par ch=1 c=7 v=90
70080 On ch=1 n=d#4 v=87
70080 On ch=1 n=g4 v=87
70120 Par ch=1 c=7 v=89
70160 Par ch=1 c=7 v=88
70200 Par ch=1 c=7 v=87
70224 Par ch=1 c=64 v=0
70224 Par ch=1 c=64 v=0
70224 Par ch=1 c=64 v=0
70228 Par ch=1 c=64 v=0
70280 Par ch=1 c=7 v=86
70320 On ch=1 n=g4 v=0
70320 On ch=1 n=d#4 v=0
70320 On ch=1 n=a#5 v=0
70320 On ch=1 n=d#5 v=108
70320 Par ch=1 c=7 v=85
70360 Par ch=1 c=7 v=84
70440 Par ch=1 c=7 v=83
70480 Par ch=1 c=7 v=82
70520 Par ch=1 c=7 v=81
70560 On ch=1 n=d#5 v=0
70560 On ch=1 n=c#5 v=0
70560 On ch=1 n=b4 v=108
70560 On ch=1 n=d#5 v=108
70560 Par ch=1 c=7 v=80
70560 On ch=1 n=g#3 v=127
70560 On ch=1 n=d#4 v=127
70560 On ch=1 n=g#4 v=127
70660 Par ch=1 c=64 v=127
70660 Par ch=1 c=64 v=127
70664 Par ch=1 c=64 v=127
70664 Par ch=1 c=64 v=127
70800 On ch=1 n=d#5 v=0
70800 On ch=1 n=e5 v=108
71040 On ch=1 n=e5 v=0
71040 On ch=1 n=g#4 v=0
71040 On ch=1 n=d#4 v=0
71040 On ch=1 n=g#3 v=0
71040 On ch=1 n=b4 v=0
71040 On ch=1 n=b4 v=108
71040 On ch=1 n=e5 v=108
71040 On ch=1 n=g#2 v=87
71040 On ch=1 n=g#3 v=87
71280 On ch=1 n=g#3 v=0
71280 On ch=1 n=g#2 v=0
71280 On ch=1 n=e5 v=0
71280 On ch=1 n=f5 v=108
71520 On ch=1 n=f5 v=0
71520 On ch=1 n=b4 v=0
71520 On ch=1 n=b4 v=108
71520 On ch=1 n=f5 v=108
71520 Par ch=1 c=7 v=80
71520 On ch=1 n=d#3 v=87
71520 On ch=1 n=d#4 v=87
71640 Par ch=1 c=64 v=0
71640 Par ch=1 c=64 v=0
71640 Par ch=1 c=64 v=0
71644 Par ch=1 c=64 v=0
71720 Par ch=1 c=7 v=81
71760 On ch=1 n=d#4 v=0
71760 On ch=1 n=d#3 v=0
71760 On ch=1 n=f5 v=0
71760 On ch=1 n=f#5 v=108
71880 Par ch=1 c=7 v=82
72000 On ch=1 n=f#5 v=0
72000 On ch=1 n=b4 v=0
72000 On ch=1 n=d#5 v=108
72000 On ch=1 n=b4 v=108
72000 On ch=1 n=f#5 v=108
72000 On ch=1 n=g#3 v=127
72000 On ch=1 n=d#4 v=127
72000 On ch=1 n=g#4 v=127
72048 Par ch=1 c=64 v=127
72048 Par ch=1 c=64 v=127
72052 Par ch=1 c=64 v=127
72052 Par ch=1 c=64 v=127
72080 Par ch=1 c=7 v=83
72240 On ch=1 n=f#5 v=0
72240 On ch=1 n=g5 v=108
72240 Par ch=1 c=7 v=84
72440 Par ch=1 c=7 v=85
72480 On ch=1 n=g5 v=0
72480 On ch=1 n=g#4 v=0
72480 On ch=1 n=d#4 v=0
72480 On ch=1 n=g#3 v=0
72480 On ch=1 n=b4 v=0
72480 On ch=1 n=d#5 v=0
72480 On ch=1 n=d#5 v=108
72480 On ch=1 n=b4 v=108
72480 On ch=1 n=g5 v=108
72480 On ch=1 n=f#2 v=87
72480 On ch=1 n=f#3 v=87
72600 Par ch=1 c=7 v=86
72720 On ch=1 n=f#3 v=0
72720 On ch=1 n=f#2 v=0
72720 On ch=1 n=g5 v=0
72720 On ch=1 n=g#5 v=108
72760 Par ch=1 c=7 v=87
72960 On ch=1 n=g#5 v=0
72960 On ch=1 n=b4 v=0
72960 On ch=1 n=d#5 v=0
72960 On ch=1 n=d#5 v=108
72960 On ch=1 n=b4 v=108
72960 On ch=1 n=g#5 v=108
72960 Par ch=1 c=7 v=88
72960 On ch=1 n=f#3 v=87
72960 On ch=1 n=d#4 v=87
73024 Par ch=1 c=64 v=0
73024 Par ch=1 c=64 v=0
73028 Par ch=1 c=64 v=0
73028 Par ch=1 c=64 v=0
73120 Par ch=1 c=7 v=89
73200 On ch=1 n=d#4 v=0
73200 On ch=1 n=f#3 v=0
73200 On ch=1 n=g#5 v=0
73200 On ch=1 n=a5 v=108
73320 Par ch=1 c=7 v=90
73440 On ch=1 n=a5 v=0
73440 On ch=1 n=b4 v=0
73440 On ch=1 n=d#5 v=0
73440 Tempo 240000
73440 On ch=1 n=b4 v=108
73440 On ch=1 n=e5 v=108
73440 On ch=1 n=a5 v=108
73440 On ch=1 n=e4 v=87
73440 On ch=1 n=g#4 v=87
73464 Par ch=1 c=64 v=127
73464 Par ch=1 c=64 v=127
73464 Par ch=1 c=64 v=127
73468 Par ch=1 c=64 v=127
73480 Par ch=1 c=7 v=91
73520 Tempo 240964
73680 On ch=1 n=a5 v=0
73680 Tempo 241935
73680 On ch=1 n=a#5 v=108
73680 Par ch=1 c=7 v=92
73800 Tempo 242915
73840 Par ch=1 c=7 v=93
73880 Tempo 243902
73920 On ch=1 n=a#5 v=0
73920 On ch=1 n=g#4 v=0
73920 On ch=1 n=e4 v=0
73920 On ch=1 n=e5 v=0
73920 On ch=1 n=b4 v=0
73920 On ch=1 n=b4 v=108
73920 On ch=1 n=e5 v=108
73920 On ch=1 n=a#5 v=108
73920 On ch=1 n=e2 v=87
73920 On ch=1 n=e3 v=87
74000 Tempo 244898
74000 Par ch=1 c=7 v=94
74120 Tempo 246914
74160 On ch=1 n=e3 v=0
74160 On ch=1 n=e2 v=0
74160 On ch=1 n=a#5 v=0
74160 On ch=1 n=b5 v=108
74200 Tempo 247934
74200 Par ch=1 c=7 v=95
74360 Tempo 248963
74360 Par ch=1 c=7 v=96
74400 On ch=1 n=b5 v=0
74400 On ch=1 n=e5 v=0
74400 On ch=1 n=b4 v=0
74400 On ch=1 n=e5 v=108
74400 On ch=1 n=b5 v=108
74400 On ch=1 n=e4 v=87
74400 On ch=1 n=g#4 v=87
74452 Par ch=1 c=64 v=0
74452 Par ch=1 c=64 v=0
74452 Par ch=1 c=64 v=0
74456 Par ch=1 c=64 v=0
74560 Par ch=1 c=7 v=97
74640 On ch=1 n=g#4 v=0
74640 On ch=1 n=e4 v=0
74640 On ch=1 n=b5 v=0
74640 On ch=1 n=c6 v=108
74720 Par ch=1 c=7 v=98
74876 Par ch=1 c=64 v=127
74876 Par ch=1 c=64 v=127
74876 Par ch=1 c=64 v=127
74880 On ch=1 n=c6 v=0
74880 On ch=1 n=e5 v=0
74880 On ch=1 n=d#5 v=108
74880 On ch=1 n=c6 v=108
74880 Par ch=1 c=7 v=99
74880 On ch=1 n=d#4 v=87
74880 On ch=1 n=g#4 v=87
74880 On ch=1 n=b4 v=87
74888 Par ch=1 c=64 v=127
75120 On ch=1 n=c6 v=0
75120 On ch=1 n=c#6 v=108
75360 On ch=1 n=c#6 v=0
75360 On ch=1 n=b4 v=0
75360 On ch=1 n=g#4 v=0
75360 On ch=1 n=d#4 v=0
75360 On ch=1 n=d#5 v=0
75360 Tempo 250000
75360 On ch=1 n=g#5 v=108
75360 On ch=1 n=d#5 v=108
75360 On ch=1 n=c#6 v=108
75360 On ch=1 n=d#2 v=87
75360 On ch=1 n=d#3 v=87
75600 On ch=1 n=d#3 v=0
75600 On ch=1 n=d#2 v=0
75600 On ch=1 n=c#6 v=0
75600 Tempo 251046
75600 On ch=1 n=d6 v=108
75800 Tempo 252101
75840 On ch=1 n=d6 v=0
75840 On ch=1 n=d#5 v=0
75840 On ch=1 n=g#5 v=0
75840 On ch=1 n=g#5 v=108
75840 On ch=1 n=d#5 v=108
75840 On ch=1 n=d6 v=108
75840 On ch=1 n=d#4 v=87
75840 On ch=1 n=g#4 v=87
75840 On ch=1 n=b4 v=87
76020 Par ch=1 c=64 v=0
76020 Par ch=1 c=64 v=0
76024 Par ch=1 c=64 v=0
76024 Par ch=1 c=64 v=0
76080 On ch=1 n=b4 v=0
76080 On ch=1 n=g#4 v=0
76080 On ch=1 n=d#4 v=0
76080 On ch=1 n=d6 v=0
76080 On ch=1 n=d#6 v=108
76320 On ch=1 n=d#6 v=0
76320 On ch=1 n=d#5 v=0
76320 On ch=1 n=g#5 v=0
76320 On ch=1 n=g#5 v=108
76320 On ch=1 n=e5 v=108
76320 On ch=1 n=d#6 v=108
76320 On ch=1 n=c#4 v=127
76320 On ch=1 n=g#4 v=127
76320 On ch=1 n=b4 v=127
76440 Tempo 251046
76560 On ch=1 n=b4 v=0
76560 On ch=1 n=g#4 v=0
76560 On ch=1 n=c#4 v=0
76560 On ch=1 n=d#6 v=0
76560 On ch=1 n=e5 v=0
76560 On ch=1 n=g#5 v=0
76560 On ch=1 n=c#6 v=108
76560 Par ch=1 c=64 v=127
76564 Par ch=1 c=64 v=127
76564 Par ch=1 c=64 v=127
76800 On ch=1 n=c#6 v=0
76800 On ch=1 n=c#6 v=108
76940 Par ch=1 c=64 v=0
76944 Par ch=1 c=64 v=0
76944 Par ch=1 c=64 v=0
77040 On ch=1 n=c#6 v=0
77040 On ch=1 n=b5 v=108
77280 On ch=1 n=b5 v=0
77280 On ch=1 n=b5 v=108
77520 On ch=1 n=b5 v=0
77520 On ch=1 n=a#5 v=108
77760 On ch=1 n=a#5 v=0
77760 On ch=1 n=d#5 v=108
77760 On ch=1 n=g#5 v=108
77760 On ch=1 n=c#6 v=108
77760 On ch=1 n=d#4 v=127
77760 On ch=1 n=g#4 v=127
77760 On ch=1 n=b4 v=127
78000 On ch=1 n=b4 v=0
78000 On ch=1 n=g#4 v=0
78000 On ch=1 n=d#4 v=0
78000 On ch=1 n=c#6 v=0
78000 On ch=1 n=g#5 v=0
78000 On ch=1 n=d#5 v=0
78000 On ch=1 n=b5 v=108
78028 Par ch=1 c=64 v=127
78028 Par ch=1 c=64 v=127
78032 Par ch=1 c=64 v=127
78240 On ch=1 n=b5 v=0
78240 On ch=1 n=b5 v=108
78320 Par ch=1 c=64 v=0
78320 Par ch=1 c=64 v=0
78324 Par ch=1 c=64 v=0
78480 On ch=1 n=b5 v=0
78480 On ch=1 n=a#5 v=108
78720 On ch=1 n=a#5 v=0
78720 On ch=1 n=a#5 v=108
78960 On ch=1 n=a#5 v=0
78960 On ch=1 n=g#5 v=108
79200 On ch=1 n=g#5 v=0
79200 On ch=1 n=g#5 v=108
79200 On ch=1 n=e5 v=108
79200 On ch=1 n=d#6 v=108
79200 On ch=1 n=c#4 v=127
79200 On ch=1 n=g#4 v=127
79200 On ch=1 n=b4 v=127
79340 Par ch=1 c=64 v=127
79340 Par ch=1 c=64 v=127
79344 Par ch=1 c=64 v=127
79440 On ch=1 n=b4 v=0
79440 On ch=1 n=g#4 v=0
79440 On ch=1 n=c#4 v=0
79440 On ch=1 n=d#6 v=0
79440 On ch=1 n=e5 v=0
79440 On ch=1 n=g#5 v=0
79440 On ch=1 n=c#6 v=108
79680 On ch=1 n=c#6 v=0
79680 On ch=1 n=c#6 v=108
79800 Par ch=1 c=64 v=0
79804 Par ch=1 c=64 v=0
79804 Par ch=1 c=64 v=0
79920 On ch=1 n=c#6 v=0
79920 On ch=1 n=b5 v=108
80160 On ch=1 n=b5 v=0
80160 On ch=1 n=b5 v=108
80400 On ch=1 n=b5 v=0
80400 On ch=1 n=a#5 v=108
80640 On ch=1 n=a#5 v=0
80640 On ch=1 n=g#5 v=108
80640 On ch=1 n=d#5 v=108
80640 On ch=1 n=c#6 v=108
80640 On ch=1 n=d#4 v=127
80640 On ch=1 n=g#4 v=127
80640 On ch=1 n=b4 v=127
80800 Par ch=1 c=64 v=127
80800 Par ch=1 c=64 v=127
80800 Par ch=1 c=64 v=127
80880 On ch=1 n=b4 v=0
80880 On ch=1 n=g#4 v=0
80880 On ch=1 n=d#4 v=0
80880 On ch=1 n=c#6 v=0
80880 On ch=1 n=d#5 v=0
80880 On ch=1 n=g#5 v=0
80880 On ch=1 n=b5 v=108
81120 On ch=1 n=b5 v=0
81120 On ch=1 n=b5 v=108
81200 Par ch=1 c=64 v=0
81200 Par ch=1 c=64 v=0
81204 Par ch=1 c=64 v=0
81360 On ch=1 n=b5 v=0
81360 On ch=1 n=a#5 v=108
81600 On ch=1 n=a#5 v=0
81600 On ch=1 n=a#5 v=108
81840 On ch=1 n=a#5 v=0
81840 On ch=1 n=g#5 v=108
82080 On ch=1 n=g#5 v=0
82080 On ch=1 n=b5 v=108
82080 On ch=1 n=c#5 v=108
82080 On ch=1 n=g#5 v=108
82080 On ch=1 n=g#4 v=127
82080 On ch=1 n=e4 v=127
82192 Par ch=1 c=64 v=127
82196 Par ch=1 c=64 v=127
82196 Par ch=1 c=64 v=127
82320 On ch=1 n=e4 v=0
82320 On ch=1 n=g#4 v=0
82320 On ch=1 n=g#5 v=0
82320 On ch=1 n=c#5 v=0
82320 On ch=1 n=b5 v=0
82320 On ch=1 n=a#5 v=108
82480 Par ch=1 c=64 v=0
82480 Par ch=1 c=64 v=0
82480 Par ch=1 c=64 v=0
82520 Par ch=1 c=7 v=101
82560 On ch=1 n=a#5 v=0
82560 On ch=1 n=a#5 v=108
82680 Par ch=1 c=7 v=102
82800 On ch=1 n=a#5 v=0
82800 On ch=1 n=b5 v=108
82840 Par ch=1 c=7 v=103
83000 Par ch=1 c=7 v=104
83040 On ch=1 n=b5 v=0
83040 On ch=1 n=b5 v=108
83136 Par ch=1 c=64 v=127
83136 Par ch=1 c=64 v=127
83140 Par ch=1 c=64 v=127
83160 Par ch=1 c=7 v=105
83280 On ch=1 n=b5 v=0
83280 On ch=1 n=a#5 v=108
83320 Par ch=1 c=7 v=106
83440 Par ch=1 c=7 v=107
83520 On ch=1 n=a#5 v=0
83520 Tempo 252101
83520 On ch=1 n=a#5 v=108
83600 Par ch=1 c=7 v=108
83680 Tempo 251046
83760 On ch=1 n=a#5 v=0
83760 On ch=1 n=b5 v=108
83760 Par ch=1 c=7 v=109
83800 Tempo 250000
83920 Par ch=1 c=7 v=110
84000 On ch=1 n=b5 v=0
84000 On ch=1 n=b5 v=108
84080 Par ch=1 c=7 v=111
84200 Tempo 248963
84200 Par ch=1 c=7 v=112
84240 On ch=1 n=b5 v=0
84240 On ch=1 n=a#5 v=108
84320 Tempo 247934
84360 Par ch=1 c=7 v=113
84480 On ch=1 n=a#5 v=0
84480 On ch=1 n=a#5 v=108
84520 Tempo 246914
84520 Par ch=1 c=7 v=114
84680 Par ch=1 c=7 v=115
84720 On ch=1 n=a#5 v=0
84720 On ch=1 n=b5 v=108
84840 Par ch=1 c=7 v=116
84960 On ch=1 n=b5 v=0
84960 On ch=1 n=b5 v=108
84960 Par ch=1 c=7 v=117
85200 On ch=1 n=b5 v=0
85200 On ch=1 n=a#5 v=108
85240 Tempo 244898
85320 Tempo 243902
85440 On ch=1 n=a#5 v=0
85440 On ch=1 n=a#5 v=108
85680 On ch=1 n=a#5 v=0
85680 Tempo 242915
85680 On ch=1 n=b5 v=108
85920 On ch=1 n=b5 v=0
85920 On ch=1 n=b5 v=108
86160 On ch=1 n=b5 v=0
86160 Tempo 241935
86160 On ch=1 n=a#5 v=108
86280 Tempo 240964
86320 Tempo 240000
86400 On ch=1 n=a#5 v=0
86400 On ch=1 n=a#5 v=108
86400 Par ch=1 c=7 v=118
86480 Par ch=1 c=7 v=117
86560 Par ch=1 c=7 v=116
86600 Par ch=1 c=7 v=115
86640 On ch=1 n=a#5 v=0
86640 On ch=1 n=b5 v=108
86680 Par ch=1 c=7 v=114
86760 Par ch=1 c=7 v=113
86800 Par ch=1 c=7 v=112
86880 On ch=1 n=b5 v=0
86880 On ch=1 n=b5 v=108
86880 Par ch=1 c=7 v=111
86960 Par ch=1 c=7 v=110
87000 Par ch=1 c=7 v=109
87080 Par ch=1 c=7 v=108
87120 On ch=1 n=b5 v=0
87120 On ch=1 n=a#5 v=108
87120 Par ch=1 c=7 v=107
87200 Par ch=1 c=7 v=106
87280 Par ch=1 c=7 v=105
87320 Par ch=1 c=7 v=104
87360 On ch=1 n=a#5 v=0
87360 On ch=1 n=a#5 v=108
87400 Par ch=1 c=7 v=103
87480 Par ch=1 c=7 v=102
87520 Par ch=1 c=7 v=101
87592 Par ch=1 c=64 v=0
87596 Par ch=1 c=64 v=0
87596 Par ch=1 c=64 v=0
87600 On ch=1 n=a#5 v=0
87600 On ch=1 n=b5 v=108
87600 Par ch=1 c=7 v=100
87680 Tempo 240964
87680 Par ch=1 c=7 v=99
87720 Par ch=1 c=7 v=98
87760 Tempo 241935
87800 Par ch=1 c=7 v=97
87840 On ch=1 n=b5 v=0
87840 Tempo 243902
87840 On ch=1 n=a#5 v=127
87840 On ch=1 n=g#5 v=127
87840 Par ch=1 c=7 v=96
87840 On ch=1 n=e5 v=87
87960 Tempo 245902
87972 Par ch=1 c=64 v=127
87972 Par ch=1 c=64 v=127
87976 Par ch=1 c=64 v=127
88000 Par ch=1 c=7 v=95
88040 Tempo 247934
88080 On ch=1 n=e5 v=0
88080 On ch=1 n=d#5 v=87
88160 Par ch=1 c=7 v=94
88320 On ch=1 n=d#5 v=0
88320 Par ch=1 c=7 v=93
88320 On ch=1 n=d#5 v=87
88480 Par ch=1 c=7 v=92
88560 On ch=1 n=d#5 v=0
88560 On ch=1 n=c#5 v=87
88640 Par ch=1 c=7 v=91
88800 On ch=1 n=c#5 v=0
88800 Par ch=1 c=7 v=90
88800 On ch=1 n=c#5 v=87
88960 Par ch=1 c=7 v=89
89040 On ch=1 n=c#5 v=0
89040 On ch=1 n=b4 v=87
89120 Par ch=1 c=7 v=88
89280 On ch=1 n=b4 v=0
89280 Par ch=1 c=7 v=87
89280 On ch=1 n=b4 v=87
89440 Par ch=1 c=7 v=86
89520 On ch=1 n=b4 v=0
89520 On ch=1 n=a#4 v=87
89600 Par ch=1 c=7 v=85
89760 On ch=1 n=a#4 v=0
89760 Tempo 248963
89760 Par ch=1 c=7 v=84
89760 On ch=1 n=a#4 v=87
89920 Par ch=1 c=7 v=83
90000 On ch=1 n=a#4 v=0
90000 On ch=1 n=g#4 v=87
90080 Par ch=1 c=7 v=82
90240 On ch=1 n=g#4 v=0
90240 Tempo 250000
90240 Par ch=1 c=7 v=81
90240 On ch=1 n=g#4 v=87
90400 Par ch=1 c=7 v=80
90480 On ch=1 n=g#4 v=0
90480 Tempo 251046
90480 On ch=1 n=f#4 v=87
90560 Par ch=1 c=7 v=79
90600 Tempo 252101
90720 On ch=1 n=f#4 v=0
90720 Par ch=1 c=7 v=78
90720 On ch=1 n=f#4 v=87
90960 On ch=1 n=f#4 v=0
90960 On ch=1 n=e4 v=87
91200 On ch=1 n=e4 v=0
91200 On ch=1 n=e4 v=87
91440 On ch=1 n=e4 v=0
91440 On ch=1 n=d#4 v=87
91680 On ch=1 n=d#4 v=0
91680 On ch=1 n=d#4 v=87
91920 On ch=1 n=d#4 v=0
91920 On ch=1 n=c#4 v=87
92080 Tempo 251046
92148 Par ch=1 c=64 v=0
92148 Par ch=1 c=64 v=0
92152 Par ch=1 c=64 v=0
92160 On ch=1 n=c#4 v=0
92160 On ch=1 n=g#5 v=0
92160 On ch=1 n=c#5 v=108
92160 On ch=1 n=g5 v=108
92160 On ch=1 n=d#4 v=87
92336 Par ch=1 c=64 v=127
92336 Par ch=1 c=64 v=127
92340 Par ch=1 c=64 v=127
92340 Par ch=1 c=64 v=127
92400 Tempo 252101
92720 Tempo 251046
93120 On ch=1 n=a#5 v=0
93120 On ch=1 n=b5 v=108
93120 On ch=1 n=d#3 v=87
93600 On ch=1 n=d#3 v=0
93600 On ch=1 n=b5 v=0
93600 On ch=1 n=g5 v=0
93600 On ch=1 n=c#5 v=0
93600 On ch=1 n=b4 v=108
93600 On ch=1 n=g#5 v=108
93600 On ch=1 n=g#3 v=87
93640 Tempo 248963
93720 Par ch=1 c=64 v=0
93720 Par ch=1 c=64 v=0
93720 Par ch=1 c=64 v=0
93724 Par ch=1 c=64 v=0
93840 On ch=1 n=g#3 v=0
93840 On ch=1 n=g#5 v=0
93840 On ch=1 n=b4 v=0
93840 On ch=1 n=d#4 v=0
94080 On ch=1 n=g#5 v=108
94080 On ch=1 n=c#5 v=108
94080 On ch=1 n=e5 v=108
94080 On ch=1 n=c#3 v=87
94080 On ch=1 n=c#4 v=87
94320 On ch=1 n=c#4 v=0
94320 On ch=1 n=c#3 v=0
94320 On ch=1 n=g#5 v=0
94320 On ch=1 n=b5 v=108
94560 On ch=1 n=b5 v=0
94560 On ch=1 n=e5 v=0
94560 On ch=1 n=c#5 v=0
94560 Tempo 247934
94560 On ch=1 n=b5 v=108
94560 On ch=1 n=c#5 v=108
94560 On ch=1 n=g5 v=108
94560 On ch=1 n=d#3 v=87
94560 On ch=1 n=d#4 v=87
94800 On ch=1 n=d#4 v=0
94800 On ch=1 n=d#3 v=0
94800 On ch=1 n=b5 v=0
94800 On ch=1 n=a#5 v=108
95040 On ch=1 n=a#5 v=0
95040 On ch=1 n=g5 v=0
95040 On ch=1 n=c#5 v=0
95040 On ch=1 n=a#5 v=108
95040 On ch=1 n=b4 v=108
95040 On ch=1 n=g#3 v=87
95040 On ch=1 n=g#4 v=87
95280 On ch=1 n=g#4 v=0
95280 On ch=1 n=g#3 v=0
95280 On ch=1 n=a#5 v=0
95280 On ch=1 n=g#5 v=108
95520 On ch=1 n=g#5 v=0
95520 On ch=1 n=b4 v=0
95520 On ch=1 n=g#5 v=108
95520 On ch=1 n=e5 v=108
95520 On ch=1 n=c#5 v=108
95520 On ch=1 n=c#3 v=87
95520 On ch=1 n=c#4 v=87
95720 Tempo 246914
95760 On ch=1 n=c#4 v=0
95760 On ch=1 n=c#3 v=0
95760 On ch=1 n=g#5 v=0
95760 On ch=1 n=b5 v=108
95880 Tempo 245902
96000 On ch=1 n=b5 v=0
96000 On ch=1 n=c#5 v=0
96000 On ch=1 n=e5 v=0
96000 On ch=1 n=b5 v=108
96000 On ch=1 n=g5 v=108
96000 On ch=1 n=c#5 v=108
96000 On ch=1 n=d#3 v=87
96000 On ch=1 n=d#4 v=87
96200 Tempo 244898
96240 On ch=1 n=d#4 v=0
96240 On ch=1 n=d#3 v=0
96240 On ch=1 n=b5 v=0
96240 On ch=1 n=a#5 v=108
96400 Tempo 243902
96480 On ch=1 n=a#5 v=0
96480 On ch=1 n=c#5 v=0
96480 On ch=1 n=g5 v=0
96480 On ch=1 n=a#5 v=108
96480 On ch=1 n=b4 v=108
96480 On ch=1 n=e3 v=87
96480 On ch=1 n=e4 v=87
96720 On ch=1 n=e4 v=0
96720 On ch=1 n=e3 v=0
96720 On ch=1 n=a#5 v=0
96720 On ch=1 n=g#5 v=108
96960 On ch=1 n=g#5 v=0
96960 On ch=1 n=b4 v=0
96960 On ch=1 n=f#5 v=108
96960 On ch=1 n=d#5 v=108
96960 On ch=1 n=b2 v=87
96960 On ch=1 n=b3 v=87
97200 On ch=1 n=b3 v=0
97200 On ch=1 n=b2 v=0
97200 On ch=1 n=f#5 v=0
97200 Tempo 242915
97200 On ch=1 n=d#6 v=108
97360 Tempo 241935
97440 On ch=1 n=d#6 v=0
97440 On ch=1 n=d#5 v=0
97440 On ch=1 n=d#6 v=108
97440 On ch=1 n=a#5 v=108
97440 On ch=1 n=e5 v=108
97440 On ch=1 n=c#3 v=87
97440 On ch=1 n=c#4 v=87
97680 On ch=1 n=c#4 v=0
97680 On ch=1 n=c#3 v=0
97680 On ch=1 n=d#6 v=0
97680 On ch=1 n=c#6 v=108
97920 On ch=1 n=c#6 v=0
97920 On ch=1 n=e5 v=0
97920 On ch=1 n=a#5 v=0
97920 On ch=1 n=c#6 v=108
97920 On ch=1 n=g#5 v=108
97920 On ch=1 n=d#5 v=108
97920 On ch=1 n=d#3 v=87
97920 On ch=1 n=d#4 v=87
98000 Tempo 240964
98160 On ch=1 n=d#4 v=0
98160 On ch=1 n=d#3 v=0
98160 On ch=1 n=c#6 v=0
98160 On ch=1 n=b5 v=108
98400 On ch=1 n=b5 v=0
98400 On ch=1 n=d#5 v=0
98400 On ch=1 n=g#5 v=0
98400 On ch=1 n=d#5 v=108
98400 On ch=1 n=d#5 v=108
98400 On ch=1 n=d#4 v=87
98640 On ch=1 n=d#4 v=0
98640 On ch=1 n=d#5 v=0
98640 On ch=1 n=b5 v=108
98880 On ch=1 n=b5 v=0
98880 On ch=1 n=d#5 v=0
98880 On ch=1 n=b5 v=108
98880 On ch=1 n=g5 v=108
98880 On ch=1 n=c#5 v=108
98880 On ch=1 n=d#3 v=87
98880 On ch=1 n=d#4 v=87
99120 On ch=1 n=d#4 v=0
99120 On ch=1 n=d#3 v=0
99120 On ch=1 n=b5 v=0
99120 On ch=1 n=a#5 v=108
99360 On ch=1 n=a#5 v=0
99360 On ch=1 n=c#5 v=0
99360 On ch=1 n=g5 v=0
99360 On ch=1 n=g#5 v=108
99360 On ch=1 n=b4 v=108
99360 On ch=1 n=g#3 v=87
99360 On ch=1 n=d#4 v=87
99384 Par ch=1 c=64 v=127
99388 Par ch=1 c=64 v=127
99388 Par ch=1 c=64 v=127
99600 On ch=1 n=d#4 v=0
99600 On ch=1 n=g#3 v=0
99600 On ch=1 n=b4 v=0
99600 On ch=1 n=g#5 v=0
99840 On ch=1 n=g#5 v=108
99840 On ch=1 n=e5 v=108
99840 On ch=1 n=c#5 v=108
99840 On ch=1 n=c#3 v=87
99840 On ch=1 n=c#4 v=87
99932 Par ch=1 c=64 v=0
99936 Par ch=1 c=64 v=0
99936 Par ch=1 c=64 v=0
100080 On ch=1 n=c#4 v=0
100080 On ch=1 n=c#3 v=0
100080 On ch=1 n=g#5 v=0
100080 On ch=1 n=b5 v=108
100320 On ch=1 n=b5 v=0
100320 On ch=1 n=c#5 v=0
100320 On ch=1 n=e5 v=0
100320 On ch=1 n=b5 v=108
100320 On ch=1 n=g5 v=108
100320 On ch=1 n=c#5 v=108
100320 On ch=1 n=d#3 v=87
100320 On ch=1 n=d#4 v=87
100560 On ch=1 n=d#4 v=0
100560 On ch=1 n=d#3 v=0
100560 On ch=1 n=b5 v=0
100560 On ch=1 n=a#5 v=108
100800 On ch=1 n=a#5 v=0
100800 On ch=1 n=c#5 v=0
100800 On ch=1 n=g5 v=0
100800 On ch=1 n=b4 v=108
100800 On ch=1 n=a#5 v=108
100800 On ch=1 n=g#3 v=87
100800 On ch=1 n=g#4 v=87
100960 Tempo 240000
101040 On ch=1 n=g#4 v=0
101040 On ch=1 n=g#3 v=0
101040 On ch=1 n=a#5 v=0
101040 On ch=1 n=g#5 v=108
101280 On ch=1 n=g#5 v=0
101280 On ch=1 n=b4 v=0
101280 On ch=1 n=e5 v=108
101280 On ch=1 n=c#5 v=108
101280 On ch=1 n=g#5 v=108
101280 On ch=1 n=c#3 v=87
101280 On ch=1 n=c#4 v=87
101520 On ch=1 n=c#4 v=0
101520 On ch=1 n=c#3 v=0
101520 On ch=1 n=g#5 v=0
101520 On ch=1 n=b5 v=108
101760 On ch=1 n=b5 v=0
101760 On ch=1 n=c#5 v=0
101760 On ch=1 n=e5 v=0
101760 On ch=1 n=c#5 v=108
101760 On ch=1 n=g5 v=108
101760 On ch=1 n=b5 v=108
101760 On ch=1 n=d#3 v=87
101760 On ch=1 n=d#4 v=87
102000 On ch=1 n=d#4 v=0
102000 On ch=1 n=d#3 v=0
102000 On ch=1 n=b5 v=0
102000 On ch=1 n=a#5 v=108
102240 On ch=1 n=a#5 v=0
102240 On ch=1 n=g5 v=0
102240 On ch=1 n=c#5 v=0
102240 On ch=1 n=b4 v=108
102240 On ch=1 n=a#5 v=108
102240 On ch=1 n=e3 v=87
102240 On ch=1 n=e4 v=87
102480 On ch=1 n=e4 v=0
102480 On ch=1 n=e3 v=0
102480 On ch=1 n=a#5 v=0
102480 On ch=1 n=g#5 v=108
102720 On ch=1 n=g#5 v=0
102720 On ch=1 n=b4 v=0
102720 On ch=1 n=e5 v=108
102720 On ch=1 n=c#5 v=108
102720 On ch=1 n=e5 v=108
102720 On ch=1 n=a2 v=87
102720 On ch=1 n=a3 v=87
102760 Tempo 240964
102960 On ch=1 n=a3 v=0
102960 On ch=1 n=a2 v=0
102960 On ch=1 n=e5 v=0
102960 On ch=1 n=c#6 v=108
103040 Tempo 241935
103200 On ch=1 n=c#6 v=0
103200 On ch=1 n=e5 v=0
103200 On ch=1 n=c#5 v=0
103200 On ch=1 n=d5 v=108
103200 On ch=1 n=g#5 v=108
103200 On ch=1 n=c#6 v=108
103200 On ch=1 n=b2 v=87
103200 On ch=1 n=b3 v=87
103240 Tempo 242915
103360 Tempo 244898
103440 On ch=1 n=b3 v=0
103440 On ch=1 n=b2 v=0
103440 On ch=1 n=c#6 v=0
103440 On ch=1 n=b5 v=108
103600 Tempo 245902
103680 On ch=1 n=b5 v=0
103680 On ch=1 n=g#5 v=0
103680 On ch=1 n=d5 v=0
103680 On ch=1 n=e5 v=108
103680 On ch=1 n=c#5 v=108
103680 On ch=1 n=b5 v=108
103680 On ch=1 n=c#3 v=87
103680 On ch=1 n=c#4 v=87
103880 Tempo 246914
103920 On ch=1 n=c#4 v=0
103920 On ch=1 n=c#3 v=0
103920 On ch=1 n=b5 v=0
103920 On ch=1 n=a5 v=108
104160 On ch=1 n=a5 v=0
104160 On ch=1 n=c#5 v=0
104160 On ch=1 n=e5 v=0
104160 On ch=1 n=b4 v=108
104160 On ch=1 n=d#5 v=108
104160 On ch=1 n=d#5 v=108
104160 On ch=1 n=d#3 v=87
104160 On ch=1 n=d#4 v=87
104280 Tempo 247934
104400 On ch=1 n=d#4 v=0
104400 On ch=1 n=d#3 v=0
104400 On ch=1 n=d#5 v=0
104400 On ch=1 n=g#5 v=108
104480 Tempo 248963
104560 Tempo 250000
104640 On ch=1 n=g#5 v=0
104640 On ch=1 n=d#5 v=0
104640 On ch=1 n=b4 v=0
104640 Tempo 251046
104640 On ch=1 n=a#4 v=100
104640 On ch=1 n=d#5 v=100
104640 On ch=1 n=g#5 v=100
104640 On ch=1 n=d#2 v=87
104640 On ch=1 n=d#3 v=87
104680 Tempo 252101
104720 Tempo 253165
104880 On ch=1 n=d#3 v=0
104880 On ch=1 n=d#2 v=0
104880 On ch=1 n=g#5 v=0
104880 On ch=1 n=g5 v=100
105120 On ch=1 n=g5 v=0
105120 On ch=1 n=d#5 v=0
105120 On ch=1 n=a#4 v=0
105120 On ch=1 n=b4 v=100
105120 On ch=1 n=d#5 v=100
105120 On ch=1 n=g#5 v=100
105120 On ch=1 n=g#2 v=87
105120 On ch=1 n=g#3 v=87
105240 Par ch=1 c=64 v=127
105240 Par ch=1 c=64 v=127
105244 Par ch=1 c=64 v=127
105280 Tempo 254237
105400 Tempo 255319
105464 Par ch=1 c=64 v=0
105464 Par ch=1 c=64 v=0
105468 Par ch=1 c=64 v=0
105600 On ch=1 n=g#3 v=0
105600 On ch=1 n=g#2 v=0
105600 On ch=1 n=g#5 v=0
105600 On ch=1 n=d#5 v=0
105600 On ch=1 n=b4 v=0
106560 On ch=1 n=d#5 v=127
106560 On ch=1 n=d#4 v=87
106560 On ch=1 n=d#3 v=87
106632 Par ch=1 c=64 v=127
106636 Par ch=1 c=64 v=127
106636 Par ch=1 c=64 v=127
106800 Tempo 256410
107040 On ch=1 n=g#4 v=87
107040 On ch=1 n=b4 v=87
107280 On ch=1 n=b4 v=0
107280 On ch=1 n=g#4 v=0
107280 On ch=1 n=g4 v=87
107280 On ch=1 n=a#4 v=87
107520 On ch=1 n=a#4 v=0
107520 On ch=1 n=g4 v=0
107520 On ch=1 n=g4 v=87
107520 On ch=1 n=a#4 v=87
107760 On ch=1 n=a#4 v=0
107760 On ch=1 n=g4 v=0
107760 On ch=1 n=a#4 v=87
107760 On ch=1 n=c#5 v=87
108000 On ch=1 n=c#5 v=0
108000 On ch=1 n=a#4 v=0
108000 On ch=1 n=d#3 v=0
108000 On ch=1 n=d#4 v=0
108000 Par ch=1 c=7 v=80
108000 On ch=1 n=b4 v=87
108000 On ch=1 n=g#4 v=87
108000 On ch=1 n=g#3 v=87
108000 On ch=1 n=d#4 v=87
108320 Par ch=1 c=7 v=79
108480 On ch=1 n=d#4 v=0
108480 On ch=1 n=g#3 v=0
108480 On ch=1 n=g#4 v=0
108480 On ch=1 n=b4 v=0
108600 Par ch=1 c=7 v=78
108636 Par ch=1 c=64 v=0
108636 Par ch=1 c=64 v=0
108640 Par ch=1 c=64 v=0
108800 Tempo 257511
108880 Par ch=1 c=7 v=77
108960 On ch=1 n=d#5 v=0
108960 On ch=1 n=e5 v=100
109160 Par ch=1 c=7 v=76
109320 Tempo 258621
109440 On ch=1 n=e5 v=0
109440 Tempo 259740
109440 On ch=1 n=d#5 v=127
109440 Par ch=1 c=7 v=75
109440 On ch=1 n=d#4 v=87
109440 On ch=1 n=d#3 v=87
109560 Tempo 260870
109560 Par ch=1 c=64 v=127
109560 Par ch=1 c=64 v=127
109560 Par ch=1 c=64 v=127
109760 Par ch=1 c=7 v=74
109840 Tempo 262009
109920 On ch=1 n=g#4 v=87
109920 On ch=1 n=b4 v=87
110040 Par ch=1 c=7 v=73
110160 On ch=1 n=b4 v=0
110160 On ch=1 n=g#4 v=0
110160 On ch=1 n=g4 v=87
110160 On ch=1 n=a#4 v=87
110320 Par ch=1 c=7 v=72
110400 On ch=1 n=a#4 v=0
110400 On ch=1 n=g4 v=0
110400 On ch=1 n=g4 v=87
110400 On ch=1 n=a#4 v=87
110440 Tempo 263158
110600 Par ch=1 c=7 v=71
110640 On ch=1 n=a#4 v=0
110640 On ch=1 n=g4 v=0
110640 On ch=1 n=a#4 v=87
110640 On ch=1 n=c#5 v=87
110880 On ch=1 n=c#5 v=0
110880 On ch=1 n=a#4 v=0
110880 On ch=1 n=d#3 v=0
110880 On ch=1 n=d#4 v=0
110880 Tempo 263158
110880 Par ch=1 c=7 v=70
110880 On ch=1 n=g#3 v=87
110880 On ch=1 n=d#4 v=87
110880 On ch=1 n=b4 v=87
110880 On ch=1 n=g#4 v=87
110960 Tempo 264317
111160 Tempo 264719
111200 Par ch=1 c=7 v=69
111240 Tempo 267857
111248 Par ch=1 c=64 v=0
111252 Par ch=1 c=64 v=0
111252 Par ch=1 c=64 v=0
111360 On ch=1 n=g#4 v=0
111360 On ch=1 n=b4 v=0
111360 On ch=1 n=d#4 v=0
111360 On ch=1 n=g#3 v=0
111360 On ch=1 n=d#5 v=0
111360 On ch=1 n=f#5 v=100
111480 Par ch=1 c=7 v=68
111640 Tempo 271493
111720 Tempo 272727
111760 Par ch=1 c=7 v=67
111840 On ch=1 n=f#5 v=0
111840 On ch=1 n=e5 v=100
112040 Par ch=1 c=7 v=66
112280 Tempo 273973
112316 Par ch=1 c=64 v=127
112320 On ch=1 n=e5 v=0
112320 On ch=1 n=d#5 v=127
112320 Par ch=1 c=7 v=65
112320 On ch=1 n=d#4 v=87
112320 On ch=1 n=d#3 v=87
112320 Par ch=1 c=64 v=127
112320 Par ch=1 c=64 v=127
112600 Tempo 275229
112640 Par ch=1 c=7 v=64
112760 Tempo 276498
112800 On ch=1 n=g#4 v=87
112800 On ch=1 n=b4 v=87
112920 Par ch=1 c=7 v=63
113040 On ch=1 n=b4 v=0
113040 On ch=1 n=g#4 v=0
113040 On ch=1 n=g4 v=87
113040 On ch=1 n=a#4 v=87
113200 Par ch=1 c=7 v=62
113280 On ch=1 n=a#4 v=0
113280 On ch=1 n=g4 v=0
113280 On ch=1 n=g4 v=87
113280 On ch=1 n=a#4 v=87
113480 Par ch=1 c=7 v=61
113520 On ch=1 n=a#4 v=0
113520 On ch=1 n=g4 v=0
113520 On ch=1 n=a#4 v=87
113520 On ch=1 n=c#5 v=87
113760 On ch=1 n=c#5 v=0
113760 On ch=1 n=a#4 v=0
113760 On ch=1 n=d#3 v=0
113760 On ch=1 n=d#4 v=0
113760 Tempo 277778
113760 Par ch=1 c=7 v=60
113760 On ch=1 n=b4 v=87
113760 On ch=1 n=g#4 v=87
113760 On ch=1 n=d#4 v=87
113760 On ch=1 n=g#3 v=87
113880 Tempo 280374
113920 Tempo 281690
114040 Tempo 283019
114080 Tempo 284360
114080 Par ch=1 c=7 v=59
114120 Tempo 287081
114160 Tempo 288462
114168 Par ch=1 c=64 v=0
114168 Par ch=1 c=64 v=0
114168 Par ch=1 c=64 v=0
114200 Tempo 289855
114240 On ch=1 n=g#3 v=0
114240 On ch=1 n=d#4 v=0
114240 On ch=1 n=g#4 v=0
114240 On ch=1 n=b4 v=0
114240 On ch=1 n=d#5 v=0
114240 Tempo 292683
114240 On ch=1 n=g#5 v=100
114320 Tempo 297030
114360 Par ch=1 c=7 v=58
114400 Tempo 298507
114480 Tempo 300000
114560 Tempo 309278
114600 Tempo 314136
114640 Par ch=1 c=7 v=57
114720 On ch=1 n=g#5 v=0
114720 Tempo 320856
114720 On ch=1 n=f#5 v=100
114800 Tempo 326087
114840 Tempo 329670
114880 Tempo 350877
114920 Tempo 363636
114920 Par ch=1 c=7 v=56
114960 Tempo 363636
115000 Tempo 368098
115080 Tempo 372671
115160 Tempo 375000
115200 On ch=1 n=f#5 v=0
115200 On ch=1 n=e5 v=100
115200 Par ch=1 c=7 v=55
115240 Tempo 377358
115360 Tempo 382166
115400 Tempo 384615
115440 Tempo 413793
115520 Tempo 419580
115600 Tempo 425532
115640 Tempo 431655
115680 On ch=1 n=e5 v=0
115680 Tempo 444444
115680 On ch=1 n=d#5 v=100
115720 Tempo 451128
115800 Tempo 674157
115840 Tempo 769231
115880 Tempo 779221
116000 Tempo 845070
116040 Tempo 660535
116160 On ch=1 n=d#5 v=0
116160 Tempo 281690
116160 Par ch=1 c=7 v=127
116160 On ch=1 n=d#2 v=127
116160 On ch=1 n=d#3 v=127
116160 On ch=1 n=d#4 v=127
116400 On ch=1 n=d#4 v=0
116400 On ch=1 n=d#3 v=0
116400 On ch=1 n=d#2 v=0
116640 On ch=1 n=g#2 v=127
116640 On ch=1 n=g#3 v=127
116640 On ch=1 n=g#4 v=127
116988 Par ch=1 c=64 v=127
116992 Par ch=1 c=64 v=127
116992 Par ch=1 c=64 v=127
117120 On ch=1 n=g#4 v=0
117120 On ch=1 n=g#3 v=0
117120 On ch=1 n=g#2 v=0
117208 Par ch=1 c=64 v=0
117212 Par ch=1 c=64 v=0
117212 Par ch=1 c=64 v=0
117212 Meta TrkEnd
TrkEnd
