MFile 0 1 480
MTrk
0 Tempo 441176
0 TimeSig 4/4 24 8
0 TimeSig 2/4 24 8
0 SysEx f0 f0 41 10 42 12 40 00 7f 00 41 f7
0 SysEx f0 f0 41 10 42 12 40 00 7f 00 41 f7
0 SysEx f0 f0 41 10 42 12 40 00 7f 00 41 f7
0 SysEx f0 f0 41 10 42 12 40 00 7f 00 41 f7
0 SysEx f0 f0 41 10 42 12 40 00 7f 00 41 f7
960 Par ch=1 c=0 v=0
960 Par ch=1 c=32 v=0
960 PrCh ch=1 p=0
960 Par ch=1 c=7 v=110
960 Par ch=2 c=0 v=0
960 Par ch=2 c=32 v=0
960 PrCh ch=2 p=0
960 Par ch=2 c=7 v=110
960 Par ch=3 c=0 v=0
960 Par ch=3 c=32 v=0
960 PrCh ch=3 p=0
960 Par ch=3 c=7 v=110
960 Par ch=4 c=0 v=0
960 Par ch=4 c=32 v=0
960 PrCh ch=4 p=0
960 Par ch=4 c=7 v=110
960 Par ch=5 c=0 v=0
960 Par ch=5 c=32 v=0
960 PrCh ch=5 p=0
960 Par ch=5 c=7 v=110
970 Par ch=1 c=10 v=64
970 Par ch=2 c=10 v=62
970 Par ch=3 c=10 v=64
970 Par ch=4 c=10 v=64
970 Par ch=5 c=10 v=58
980 Par ch=1 c=11 v=100
980 Par ch=2 c=11 v=100
980 Par ch=3 c=11 v=100
980 Par ch=4 c=11 v=100
980 Par ch=5 c=11 v=100
990 Par ch=1 c=1 v=0
990 Par ch=2 c=1 v=0
990 Par ch=3 c=1 v=0
990 Par ch=4 c=1 v=0
990 Par ch=5 c=1 v=0
1000 Par ch=1 c=91 v=80
1000 Par ch=2 c=91 v=80
1000 Par ch=3 c=91 v=80
1000 Par ch=4 c=91 v=80
1000 Par ch=5 c=91 v=80
1010 Par ch=1 c=93 v=10
1010 Par ch=2 c=93 v=10
1010 Par ch=3 c=93 v=10
1010 Par ch=4 c=93 v=10
1010 Par ch=5 c=93 v=10
1020 Par ch=1 c=94 v=20
1020 Par ch=2 c=94 v=20
1020 Par ch=3 c=94 v=20
1020 Par ch=4 c=94 v=20
1020 Par ch=5 c=94 v=20
1920 TimeSig 4/4 24 8
1920 On ch=1 n=c5 v=112
1920 On ch=2 n=c5 v=112
2040 On ch=2 n=c5 v=0
2040 On ch=1 n=c5 v=0
2040 On ch=1 n=c#5 v=113
2040 On ch=2 n=c#5 v=113
2160 On ch=2 n=c#5 v=0
2160 On ch=1 n=c#5 v=0
2160 On ch=1 n=a4 v=111
2160 On ch=2 n=a4 v=111
2280 On ch=2 n=a4 v=0
2280 On ch=1 n=a4 v=0
2280 On ch=1 n=a#4 v=112
2280 On ch=2 n=a#4 v=112
2400 On ch=2 n=a#4 v=0
2400 On ch=1 n=a#4 v=0
2400 On ch=1 n=g4 v=110
2400 On ch=2 n=g4 v=110
2520 On ch=2 n=g4 v=0
2520 On ch=1 n=g4 v=0
2520 On ch=1 n=a#4 v=113
2520 On ch=2 n=a#4 v=113
2640 On ch=2 n=a#4 v=0
2640 On ch=1 n=a#4 v=0
2640 On ch=1 n=g5 v=115
2640 On ch=2 n=g5 v=115
2760 On ch=2 n=g5 v=0
2760 On ch=1 n=g5 v=0
2760 On ch=1 n=f5 v=114
2760 On ch=2 n=f5 v=114
2880 On ch=2 n=f5 v=0
2880 On ch=1 n=f5 v=0
2880 On ch=1 n=f5 v=118
2880 On ch=2 n=f5 v=118
3120 On ch=3 n=a#4 v=116
3120 On ch=3 n=g4 v=114
3120 On ch=5 n=c#4 v=116
3120 On ch=5 n=c3 v=114
3240 On ch=5 n=c3 v=0
3240 On ch=5 n=c#4 v=0
3240 On ch=3 n=g4 v=0
3240 On ch=3 n=a#4 v=0
3360 On ch=3 n=a#4 v=116
3360 On ch=3 n=g4 v=114
3360 On ch=5 n=c#4 v=116
3360 On ch=5 n=c3 v=114
3480 On ch=5 n=c3 v=0
3480 On ch=5 n=c#4 v=0
3480 On ch=3 n=g4 v=0
3480 On ch=3 n=a#4 v=0
3600 On ch=2 n=f5 v=0
3600 On ch=1 n=f5 v=0
3600 On ch=1 n=e5 v=110
3600 On ch=2 n=e5 v=110
3800 On ch=2 n=e5 v=0
3800 On ch=1 n=e5 v=0
3840 On ch=1 n=c5 v=112
3840 On ch=2 n=c5 v=112
3960 On ch=2 n=c5 v=0
3960 On ch=1 n=c5 v=0
3960 On ch=1 n=c#5 v=113
3960 On ch=2 n=c#5 v=113
4080 On ch=2 n=c#5 v=0
4080 On ch=1 n=c#5 v=0
4080 On ch=1 n=a4 v=111
4080 On ch=2 n=a4 v=111
4200 On ch=2 n=a4 v=0
4200 On ch=1 n=a4 v=0
4200 On ch=1 n=a#4 v=112
4200 On ch=2 n=a#4 v=112
4320 On ch=2 n=a#4 v=0
4320 On ch=1 n=a#4 v=0
4320 On ch=1 n=g4 v=110
4320 On ch=2 n=g4 v=110
4440 On ch=2 n=g4 v=0
4440 On ch=1 n=g4 v=0
4440 On ch=1 n=a#4 v=113
4440 On ch=2 n=a#4 v=113
4560 On ch=2 n=a#4 v=0
4560 On ch=1 n=a#4 v=0
4560 On ch=1 n=g5 v=115
4560 On ch=2 n=g5 v=115
4680 On ch=2 n=g5 v=0
4680 On ch=1 n=g5 v=0
4680 On ch=1 n=f5 v=114
4680 On ch=2 n=f5 v=114
4800 On ch=2 n=f5 v=0
4800 On ch=1 n=f5 v=0
4800 On ch=1 n=f5 v=118
4800 On ch=2 n=f5 v=118
5040 On ch=3 n=a#4 v=116
5040 On ch=3 n=g4 v=114
5040 On ch=5 n=c#4 v=116
5040 On ch=5 n=c3 v=114
5160 On ch=5 n=c3 v=0
5160 On ch=5 n=c#4 v=0
5160 On ch=3 n=g4 v=0
5160 On ch=3 n=a#4 v=0
5280 On ch=3 n=a#4 v=116
5280 On ch=3 n=g4 v=114
5280 On ch=5 n=c#4 v=116
5280 On ch=5 n=c3 v=114
5400 On ch=5 n=c3 v=0
5400 On ch=5 n=c#4 v=0
5400 On ch=3 n=g4 v=0
5400 On ch=3 n=a#4 v=0
5520 On ch=2 n=f5 v=0
5520 On ch=1 n=f5 v=0
5520 On ch=1 n=e5 v=110
5520 On ch=2 n=e5 v=110
5720 On ch=2 n=e5 v=0
5720 On ch=1 n=e5 v=0
5760 On ch=1 n=c5 v=112
5760 On ch=2 n=c5 v=112
5880 On ch=2 n=c5 v=0
5880 On ch=1 n=c5 v=0
5880 On ch=1 n=c#5 v=113
5880 On ch=2 n=c#5 v=113
6000 On ch=2 n=c#5 v=0
6000 On ch=1 n=c#5 v=0
6000 On ch=1 n=a4 v=111
6000 On ch=2 n=a4 v=111
6120 On ch=2 n=a4 v=0
6120 On ch=1 n=a4 v=0
6120 On ch=1 n=a#4 v=112
6120 On ch=2 n=a#4 v=112
6240 On ch=2 n=a#4 v=0
6240 On ch=1 n=a#4 v=0
6240 On ch=1 n=g4 v=110
6240 On ch=2 n=g4 v=110
6360 On ch=2 n=g4 v=0
6360 On ch=1 n=g4 v=0
6360 On ch=1 n=a#4 v=113
6360 On ch=2 n=a#4 v=113
6480 On ch=2 n=a#4 v=0
6480 On ch=1 n=a#4 v=0
6480 On ch=1 n=g5 v=115
6480 On ch=2 n=g5 v=115
6600 On ch=2 n=g5 v=0
6600 On ch=1 n=g5 v=0
6600 On ch=1 n=f5 v=114
6600 On ch=2 n=f5 v=114
6720 On ch=2 n=f5 v=0
6720 On ch=1 n=f5 v=0
6720 On ch=1 n=d#5 v=112
6720 On ch=2 n=d#5 v=112
6840 On ch=2 n=d#5 v=0
6840 On ch=1 n=d#5 v=0
6840 On ch=1 n=e5 v=113
6840 On ch=2 n=e5 v=113
6960 On ch=2 n=e5 v=0
6960 On ch=1 n=e5 v=0
6960 On ch=1 n=a#5 v=114
6960 On ch=2 n=a#5 v=114
6960 On ch=4 n=a#4 v=114
7080 On ch=4 n=a#4 v=0
7080 On ch=2 n=a#5 v=0
7080 On ch=1 n=a#5 v=0
7080 On ch=1 n=g#5 v=113
7080 On ch=2 n=g#5 v=113
7080 On ch=4 n=g#4 v=113
7200 On ch=4 n=g#4 v=0
7200 On ch=2 n=g#5 v=0
7200 On ch=1 n=g#5 v=0
7200 On ch=1 n=f#5 v=112
7200 On ch=2 n=f#5 v=112
7200 On ch=4 n=f#4 v=112
7320 On ch=4 n=f#4 v=0
7320 On ch=2 n=f#5 v=0
7320 On ch=1 n=f#5 v=0
7320 On ch=1 n=g5 v=114
7320 On ch=2 n=g5 v=114
7320 On ch=4 n=g4 v=114
7440 On ch=4 n=g4 v=0
7440 On ch=2 n=g5 v=0
7440 On ch=1 n=g5 v=0
7440 On ch=1 n=d#6 v=116
7440 On ch=2 n=d#6 v=116
7440 On ch=4 n=d#5 v=116
7560 On ch=4 n=d#5 v=0
7560 On ch=2 n=d#6 v=0
7560 On ch=1 n=d#6 v=0
7560 On ch=1 n=c6 v=115
7560 On ch=2 n=c6 v=115
7560 On ch=4 n=c5 v=115
7680 On ch=4 n=c5 v=0
7680 On ch=2 n=c6 v=0
7680 On ch=1 n=c6 v=0
7680 On ch=1 n=a5 v=113
7680 On ch=2 n=a5 v=113
7680 On ch=4 n=a4 v=113
7800 On ch=4 n=a4 v=0
7800 On ch=2 n=a5 v=0
7800 On ch=1 n=a5 v=0
7800 On ch=1 n=a#5 v=114
7800 On ch=2 n=a#5 v=114
7800 On ch=4 n=a#4 v=114
7920 On ch=4 n=a#4 v=0
7920 On ch=2 n=a#5 v=0
7920 On ch=1 n=a#5 v=0
7920 On ch=1 n=c#7 v=117
7920 On ch=2 n=c#7 v=117
7920 On ch=4 n=c#6 v=117
8040 On ch=4 n=c#6 v=0
8040 On ch=2 n=c#7 v=0
8040 On ch=1 n=c#7 v=0
8040 On ch=1 n=g6 v=112
8040 On ch=2 n=g6 v=112
8040 On ch=4 n=g5 v=112
8160 On ch=4 n=g5 v=0
8160 On ch=2 n=g6 v=0
8160 On ch=1 n=g6 v=0
8160 On ch=1 n=c7 v=116
8160 On ch=2 n=c7 v=116
8160 On ch=4 n=c6 v=116
8280 On ch=4 n=c6 v=0
8280 On ch=2 n=c7 v=0
8280 On ch=1 n=c7 v=0
8280 On ch=1 n=a#6 v=115
8280 On ch=2 n=a#6 v=115
8280 On ch=4 n=a#5 v=115
8400 On ch=4 n=a#5 v=0
8400 On ch=2 n=a#6 v=0
8400 On ch=1 n=a#6 v=0
8400 On ch=1 n=g#6 v=115
8400 On ch=2 n=g#6 v=115
8400 On ch=4 n=g#5 v=115
8520 On ch=4 n=g#5 v=0
8520 On ch=2 n=g#6 v=0
8520 On ch=1 n=g#6 v=0
8520 On ch=1 n=g6 v=114
8520 On ch=2 n=g6 v=114
8520 On ch=4 n=g5 v=114
8640 On ch=4 n=g5 v=0
8640 On ch=2 n=g6 v=0
8640 On ch=1 n=g6 v=0
8640 On ch=1 n=f6 v=113
8640 On ch=2 n=f6 v=113
8640 On ch=4 n=f5 v=113
8760 On ch=4 n=f5 v=0
8760 On ch=2 n=f6 v=0
8760 On ch=1 n=f6 v=0
8760 On ch=1 n=e6 v=112
8760 On ch=2 n=e6 v=112
8760 On ch=4 n=e5 v=112
8880 On ch=4 n=e5 v=0
8880 On ch=2 n=e6 v=0
8880 On ch=1 n=e6 v=0
8880 On ch=1 n=g6 v=114
8880 On ch=2 n=g6 v=114
8880 On ch=4 n=g5 v=114
9000 On ch=4 n=g5 v=0
9000 On ch=2 n=g6 v=0
9000 On ch=1 n=g6 v=0
9000 On ch=1 n=a#5 v=112
9000 On ch=2 n=a#5 v=112
9000 On ch=4 n=a#4 v=112
9120 On ch=4 n=a#4 v=0
9120 On ch=2 n=a#5 v=0
9120 On ch=1 n=a#5 v=0
9120 On ch=1 n=b5 v=112
9120 On ch=2 n=b5 v=112
9120 On ch=4 n=b4 v=112
9230 On ch=4 n=b4 v=0
9230 On ch=2 n=b5 v=0
9230 On ch=1 n=b5 v=0
9230 On ch=1 n=c6 v=113
9230 On ch=2 n=c6 v=113
9230 On ch=4 n=c5 v=113
9340 On ch=4 n=c5 v=0
9340 On ch=2 n=c6 v=0
9340 On ch=1 n=c6 v=0
9340 On ch=1 n=c#6 v=115
9340 On ch=2 n=c#6 v=115
9340 On ch=4 n=c#5 v=115
9450 On ch=4 n=c#5 v=0
9450 On ch=2 n=c#6 v=0
9450 On ch=1 n=c#6 v=0
9450 On ch=1 n=g5 v=112
9450 On ch=2 n=g5 v=112
9450 On ch=4 n=g4 v=112
9560 On ch=4 n=g4 v=0
9560 On ch=2 n=g5 v=0
9560 On ch=1 n=g5 v=0
9560 On ch=1 n=c6 v=113
9560 On ch=2 n=c6 v=113
9560 On ch=4 n=c5 v=113
9670 On ch=4 n=c5 v=0
9670 On ch=2 n=c6 v=0
9670 On ch=1 n=c6 v=0
9670 On ch=1 n=a#5 v=113
9670 On ch=2 n=a#5 v=113
9670 On ch=4 n=a#4 v=113
9790 On ch=4 n=a#4 v=0
9790 On ch=2 n=a#5 v=0
9790 On ch=1 n=a#5 v=0
9790 On ch=1 n=a5 v=112
9790 On ch=2 n=a5 v=112
9790 On ch=4 n=a4 v=112
9910 On ch=4 n=a4 v=0
9910 On ch=2 n=a5 v=0
9910 On ch=1 n=a5 v=0
9910 On ch=1 n=f5 v=110
9910 On ch=2 n=f5 v=110
10030 On ch=2 n=f5 v=0
10030 On ch=1 n=f5 v=0
10030 On ch=1 n=f#5 v=111
10030 On ch=2 n=f#5 v=111
10150 On ch=2 n=f#5 v=0
10150 On ch=1 n=f#5 v=0
10150 On ch=1 n=d5 v=110
10150 On ch=2 n=d5 v=110
10270 On ch=2 n=d5 v=0
10270 On ch=1 n=d5 v=0
10270 On ch=1 n=d#5 v=112
10270 On ch=2 n=d#5 v=112
10390 On ch=2 n=d#5 v=0
10390 On ch=1 n=d#5 v=0
10390 On ch=1 n=c6 v=115
10390 On ch=2 n=c6 v=115
10510 On ch=2 n=c6 v=0
10510 On ch=1 n=c6 v=0
10510 On ch=1 n=a#5 v=114
10510 On ch=2 n=a#5 v=114
10630 On ch=2 n=a#5 v=0
10630 On ch=1 n=a#5 v=0
10630 On ch=1 n=a#5 v=117
10630 On ch=2 n=a#5 v=117
10870 On ch=3 n=d#5 v=116
10870 On ch=3 n=c5 v=114
10870 On ch=5 n=f#4 v=116
10870 On ch=5 n=f3 v=114
10990 On ch=5 n=f3 v=0
10990 On ch=5 n=f#4 v=0
10990 On ch=3 n=c5 v=0
10990 On ch=3 n=d#5 v=0
11110 On ch=3 n=d#5 v=116
11110 On ch=3 n=c5 v=114
11110 On ch=5 n=f#4 v=116
11110 On ch=5 n=f3 v=114
11230 On ch=5 n=f3 v=0
11230 On ch=5 n=f#4 v=0
11230 On ch=3 n=c5 v=0
11230 On ch=3 n=d#5 v=0
11350 On ch=2 n=a#5 v=0
11350 On ch=1 n=a#5 v=0
11350 On ch=1 n=a5 v=112
11350 On ch=2 n=a5 v=112
11550 On ch=2 n=a5 v=0
11550 On ch=1 n=a5 v=0
11590 On ch=1 n=f5 v=113
11590 On ch=2 n=f5 v=113
11710 On ch=2 n=f5 v=0
11710 On ch=1 n=f5 v=0
11710 On ch=1 n=f#5 v=112
11710 On ch=2 n=f#5 v=112
11830 On ch=2 n=f#5 v=0
11830 On ch=1 n=f#5 v=0
11830 On ch=1 n=d5 v=110
11830 On ch=2 n=d5 v=110
11950 On ch=2 n=d5 v=0
11950 On ch=1 n=d5 v=0
11950 On ch=1 n=d#5 v=111
11950 On ch=2 n=d#5 v=111
12070 On ch=2 n=d#5 v=0
12070 On ch=1 n=d#5 v=0
12070 On ch=1 n=c5 v=110
12070 On ch=2 n=c5 v=110
12190 On ch=2 n=c5 v=0
12190 On ch=1 n=c5 v=0
12190 On ch=1 n=d#5 v=112
12190 On ch=2 n=d#5 v=112
12310 On ch=2 n=d#5 v=0
12310 On ch=1 n=d#5 v=0
12310 On ch=1 n=c6 v=115
12310 On ch=2 n=c6 v=115
12430 On ch=2 n=c6 v=0
12430 On ch=1 n=c6 v=0
12430 On ch=1 n=a#5 v=114
12430 On ch=2 n=a#5 v=114
12550 On ch=2 n=a#5 v=0
12550 On ch=1 n=a#5 v=0
12550 On ch=1 n=a#5 v=117
12550 On ch=2 n=a#5 v=117
12790 On ch=3 n=d#5 v=116
12790 On ch=3 n=c5 v=114
12790 On ch=5 n=f#4 v=116
12790 On ch=5 n=f3 v=114
12910 On ch=5 n=f3 v=0
12910 On ch=5 n=f#4 v=0
12910 On ch=3 n=c5 v=0
12910 On ch=3 n=d#5 v=0
13030 On ch=3 n=d#5 v=116
13030 On ch=3 n=c5 v=114
13030 On ch=5 n=f#4 v=116
13030 On ch=5 n=f3 v=114
13150 On ch=5 n=f3 v=0
13150 On ch=5 n=f#4 v=0
13150 On ch=3 n=c5 v=0
13150 On ch=3 n=d#5 v=0
13270 On ch=2 n=a#5 v=0
13270 On ch=1 n=a#5 v=0
13270 On ch=1 n=a5 v=112
13270 On ch=2 n=a5 v=112
13470 On ch=2 n=a5 v=0
13470 On ch=1 n=a5 v=0
13510 On ch=1 n=f5 v=111
13510 On ch=2 n=f5 v=111
13630 On ch=2 n=f5 v=0
13630 On ch=1 n=f5 v=0
13630 On ch=1 n=f#5 v=112
13630 On ch=2 n=f#5 v=112
13750 On ch=2 n=f#5 v=0
13750 On ch=1 n=f#5 v=0
13750 On ch=1 n=d5 v=110
13750 On ch=2 n=d5 v=110
13870 On ch=2 n=d5 v=0
13870 On ch=1 n=d5 v=0
13870 On ch=1 n=d#5 v=111
13870 On ch=2 n=d#5 v=111
13990 On ch=2 n=d#5 v=0
13990 On ch=1 n=d#5 v=0
13990 On ch=1 n=c5 v=110
13990 On ch=2 n=c5 v=110
14110 On ch=2 n=c5 v=0
14110 On ch=1 n=c5 v=0
14110 On ch=1 n=d#5 v=112
14110 On ch=2 n=d#5 v=112
14230 On ch=2 n=d#5 v=0
14230 On ch=1 n=d#5 v=0
14230 On ch=1 n=c6 v=114
14230 On ch=2 n=c6 v=114
14230 On ch=4 n=c5 v=114
14350 On ch=4 n=c5 v=0
14350 On ch=2 n=c6 v=0
14350 On ch=1 n=c6 v=0
14350 On ch=1 n=a#5 v=113
14350 On ch=2 n=a#5 v=113
14350 On ch=4 n=a#4 v=113
14470 On ch=4 n=a#4 v=0
14470 On ch=2 n=a#5 v=0
14470 On ch=1 n=a#5 v=0
14470 On ch=1 n=g#5 v=111
14470 On ch=2 n=g#5 v=111
14470 On ch=4 n=g#4 v=111
14590 On ch=4 n=g#4 v=0
14590 On ch=2 n=g#5 v=0
14590 On ch=1 n=g#5 v=0
14590 On ch=1 n=a5 v=112
14590 On ch=2 n=a5 v=112
14590 On ch=4 n=a4 v=112
14710 On ch=4 n=a4 v=0
14710 On ch=2 n=a5 v=0
14710 On ch=1 n=a5 v=0
14710 On ch=1 n=f#6 v=115
14710 On ch=2 n=f#6 v=115
14710 On ch=4 n=f#5 v=115
14830 On ch=4 n=f#5 v=0
14830 On ch=2 n=f#6 v=0
14830 On ch=1 n=f#6 v=0
14830 On ch=1 n=f6 v=114
14830 On ch=2 n=f6 v=114
14830 On ch=4 n=f5 v=114
14950 On ch=4 n=f5 v=0
14950 On ch=2 n=f6 v=0
14950 On ch=1 n=f6 v=0
14950 On ch=1 n=d6 v=113
14950 On ch=2 n=d6 v=113
14950 On ch=4 n=d5 v=113
15070 On ch=4 n=d5 v=0
15070 On ch=2 n=d6 v=0
15070 On ch=1 n=d6 v=0
15070 On ch=1 n=d#6 v=115
15070 On ch=2 n=d#6 v=115
15070 On ch=4 n=d#5 v=115
15190 On ch=4 n=d#5 v=0
15190 On ch=2 n=d#6 v=0
15190 On ch=1 n=d#6 v=0
15190 On ch=1 n=c#7 v=117
15190 On ch=2 n=c#7 v=117
15190 On ch=4 n=c#6 v=117
15310 On ch=4 n=c#6 v=0
15310 On ch=2 n=c#7 v=0
15310 On ch=1 n=c#7 v=0
15310 On ch=1 n=c7 v=116
15310 On ch=2 n=c7 v=116
15310 On ch=4 n=c6 v=116
15430 On ch=4 n=c6 v=0
15430 On ch=2 n=c7 v=0
15430 On ch=1 n=c7 v=0
15430 On ch=1 n=a#6 v=115
15430 On ch=2 n=a#6 v=115
15430 On ch=4 n=a#5 v=115
15540 On ch=1 n=a6 v=114
15540 On ch=2 n=a6 v=114
15540 On ch=4 n=a5 v=114
15550 On ch=4 n=a#5 v=0
15550 On ch=2 n=a#6 v=0
15550 On ch=1 n=a#6 v=0
15650 On ch=1 n=d#7 v=117
15650 On ch=2 n=d#7 v=117
15650 On ch=4 n=d#6 v=117
15660 On ch=4 n=a5 v=0
15660 On ch=2 n=a6 v=0
15660 On ch=1 n=a6 v=0
15760 On ch=1 n=e6 v=112
15760 On ch=2 n=e6 v=112
15760 On ch=4 n=e5 v=112
15770 On ch=4 n=d#6 v=0
15770 On ch=2 n=d#7 v=0
15770 On ch=1 n=d#7 v=0
15870 On ch=1 n=f6 v=113
15870 On ch=2 n=f6 v=113
15870 On ch=4 n=f5 v=113
15880 On ch=4 n=e5 v=0
15880 On ch=2 n=e6 v=0
15880 On ch=1 n=e6 v=0
15980 On ch=1 n=f#6 v=114
15980 On ch=2 n=f#6 v=114
15980 On ch=4 n=f#5 v=114
15990 On ch=4 n=f5 v=0
15990 On ch=2 n=f6 v=0
15990 On ch=1 n=f6 v=0
16090 On ch=1 n=c6 v=111
16090 On ch=2 n=c6 v=111
16090 On ch=4 n=c5 v=111
16100 On ch=4 n=f#5 v=0
16100 On ch=2 n=f#6 v=0
16100 On ch=1 n=f#6 v=0
16200 On ch=1 n=c#6 v=112
16200 On ch=2 n=c#6 v=112
16200 On ch=4 n=c#5 v=112
16210 On ch=4 n=c5 v=0
16210 On ch=2 n=c6 v=0
16210 On ch=1 n=c6 v=0
16310 On ch=1 n=f6 v=114
16310 On ch=2 n=f6 v=114
16310 On ch=4 n=f5 v=114
16320 On ch=4 n=c#5 v=0
16320 On ch=2 n=c#6 v=0
16320 On ch=1 n=c#6 v=0
16420 On ch=1 n=d#6 v=113
16420 On ch=2 n=d#6 v=113
16420 On ch=4 n=d#5 v=113
16430 On ch=4 n=f5 v=0
16430 On ch=2 n=f6 v=0
16430 On ch=1 n=f6 v=0
16530 On ch=1 n=c#6 v=112
16530 On ch=2 n=c#6 v=112
16530 On ch=4 n=c#5 v=112
16540 On ch=4 n=d#5 v=0
16540 On ch=2 n=d#6 v=0
16540 On ch=1 n=d#6 v=0
16640 On ch=1 n=c6 v=111
16640 On ch=2 n=c6 v=111
16640 On ch=4 n=c5 v=111
16650 On ch=4 n=c#5 v=0
16650 On ch=2 n=c#6 v=0
16650 On ch=1 n=c#6 v=0
16750 On ch=1 n=a#5 v=111
16750 On ch=2 n=a#5 v=111
16750 On ch=4 n=a#4 v=111
16760 On ch=4 n=c5 v=0
16760 On ch=2 n=c6 v=0
16760 On ch=1 n=c6 v=0
16860 On ch=1 n=a5 v=110
16860 On ch=2 n=a5 v=110
16860 On ch=4 n=a4 v=110
16870 On ch=4 n=a#4 v=0
16870 On ch=2 n=a#5 v=0
16870 On ch=1 n=a#5 v=0
16970 On ch=1 n=c6 v=113
16970 On ch=2 n=c6 v=113
16970 On ch=4 n=c5 v=113
16980 On ch=4 n=a4 v=0
16980 On ch=2 n=a5 v=0
16980 On ch=1 n=a5 v=0
17080 On ch=1 n=e5 v=110
17080 On ch=2 n=e5 v=110
17080 On ch=4 n=e4 v=110
17090 On ch=4 n=c5 v=0
17090 On ch=2 n=c6 v=0
17090 On ch=1 n=c6 v=0
17190 On ch=1 n=f5 v=111
17190 On ch=2 n=f5 v=111
17190 On ch=4 n=f4 v=111
17200 On ch=4 n=e4 v=0
17200 On ch=2 n=e5 v=0
17200 On ch=1 n=e5 v=0
17300 On ch=1 n=f#5 v=111
17300 On ch=2 n=f#5 v=111
17300 On ch=4 n=f#4 v=111
17310 On ch=4 n=f4 v=0
17310 On ch=2 n=f5 v=0
17310 On ch=1 n=f5 v=0
17410 On ch=1 n=c5 v=108
17410 On ch=2 n=c5 v=108
17410 On ch=4 n=c4 v=108
17420 On ch=4 n=f#4 v=0
17420 On ch=2 n=f#5 v=0
17420 On ch=1 n=f#5 v=0
17520 On ch=1 n=f5 v=111
17520 On ch=2 n=f5 v=111
17520 On ch=4 n=f4 v=111
17530 On ch=4 n=c4 v=0
17530 On ch=2 n=c5 v=0
17530 On ch=1 n=c5 v=0
17630 On ch=1 n=e5 v=110
17630 On ch=2 n=e5 v=110
17630 On ch=4 n=e4 v=110
17640 On ch=4 n=f4 v=0
17640 On ch=2 n=f5 v=0
17640 On ch=1 n=f5 v=0
17740 On ch=1 n=c#5 v=110
17740 On ch=2 n=c#5 v=110
17740 On ch=4 n=c#4 v=110
17750 On ch=4 n=e4 v=0
17750 On ch=2 n=e5 v=0
17750 On ch=1 n=e5 v=0
17850 On ch=1 n=c5 v=110
17850 On ch=2 n=c5 v=110
17850 On ch=4 n=c4 v=110
17860 On ch=4 n=c#4 v=0
17860 On ch=2 n=c#5 v=0
17860 On ch=1 n=c#5 v=0
18090 On ch=4 n=c4 v=0
18090 On ch=2 n=c5 v=0
18090 On ch=1 n=c5 v=0
18090 On ch=1 n=a#4 v=109
18090 On ch=2 n=a#4 v=109
18090 On ch=4 n=a#3 v=109
18210 On ch=4 n=a#3 v=0
18210 On ch=2 n=a#4 v=0
18210 On ch=1 n=a#4 v=0
18330 On ch=1 n=f5 v=120
18330 On ch=1 n=c#5 v=120
18330 On ch=1 n=a#4 v=118
18330 On ch=1 n=g4 v=118
18330 On ch=1 n=f4 v=116
18330 On ch=2 n=f5 v=120
18330 On ch=2 n=c#5 v=120
18330 On ch=2 n=a#4 v=118
18330 On ch=2 n=g4 v=118
18330 On ch=2 n=f4 v=116
18330 On ch=3 n=a#5 v=114
18330 On ch=3 n=a#4 v=112
18330 On ch=4 n=a#3 v=120
18330 On ch=4 n=a#2 v=116
18330 On ch=5 n=a#3 v=114
18330 On ch=5 n=a#2 v=112
18450 On ch=5 n=a#2 v=0
18450 On ch=5 n=a#3 v=0
18450 On ch=4 n=a#2 v=0
18450 On ch=4 n=a#3 v=0
18450 On ch=3 n=a#4 v=0
18450 On ch=3 n=a#5 v=0
18450 On ch=2 n=f4 v=0
18450 On ch=2 n=g4 v=0
18450 On ch=2 n=a#4 v=0
18450 On ch=2 n=c#5 v=0
18450 On ch=2 n=f5 v=0
18450 On ch=1 n=f4 v=0
18450 On ch=1 n=g4 v=0
18450 On ch=1 n=a#4 v=0
18450 On ch=1 n=c#5 v=0
18450 On ch=1 n=f5 v=0
18810 On ch=1 n=c#6 v=115
18810 On ch=2 n=c#6 v=115
18810 On ch=4 n=c#5 v=115
18930 On ch=4 n=c#5 v=0
18930 On ch=2 n=c#6 v=0
18930 On ch=1 n=c#6 v=0
18930 On ch=1 n=g5 v=110
18930 On ch=2 n=g5 v=110
18930 On ch=4 n=g4 v=110
19050 On ch=4 n=g4 v=0
19050 On ch=2 n=g5 v=0
19050 On ch=1 n=g5 v=0
19050 On ch=1 n=g#5 v=111
19050 On ch=2 n=g#5 v=111
19050 On ch=4 n=g#4 v=111
19170 On ch=4 n=g#4 v=0
19170 On ch=2 n=g#5 v=0
19170 On ch=1 n=g#5 v=0
19170 On ch=1 n=a5 v=112
19170 On ch=2 n=a5 v=112
19170 On ch=4 n=a4 v=112
19290 On ch=4 n=a4 v=0
19290 On ch=2 n=a5 v=0
19290 On ch=1 n=a5 v=0
19290 On ch=1 n=c6 v=114
19290 On ch=2 n=c6 v=114
19290 On ch=4 n=c5 v=114
19410 On ch=4 n=c5 v=0
19410 On ch=2 n=c6 v=0
19410 On ch=1 n=c6 v=0
19410 On ch=1 n=a#5 v=113
19410 On ch=2 n=a#5 v=113
19410 On ch=4 n=a#4 v=113
19530 On ch=4 n=a#4 v=0
19530 On ch=2 n=a#5 v=0
19530 On ch=1 n=a#5 v=0
19530 On ch=1 n=g#5 v=112
19530 On ch=2 n=g#5 v=112
19530 On ch=4 n=g#4 v=112
19650 On ch=4 n=g#4 v=0
19650 On ch=2 n=g#5 v=0
19650 On ch=1 n=g#5 v=0
19650 On ch=1 n=g5 v=111
19650 On ch=2 n=g5 v=111
19650 On ch=4 n=g4 v=111
19770 On ch=4 n=g4 v=0
19770 On ch=2 n=g5 v=0
19770 On ch=1 n=g5 v=0
19770 On ch=1 n=f5 v=112
19770 On ch=2 n=f5 v=112
19770 On ch=4 n=f4 v=112
19890 On ch=4 n=f4 v=0
19890 On ch=2 n=f5 v=0
19890 On ch=1 n=f5 v=0
19890 On ch=1 n=e5 v=110
19890 On ch=2 n=e5 v=110
19890 On ch=4 n=e4 v=110
20010 On ch=4 n=e4 v=0
20010 On ch=2 n=e5 v=0
20010 On ch=1 n=e5 v=0
20250 On ch=1 n=e5 v=116
20250 On ch=1 n=c#5 v=116
20250 On ch=1 n=a#4 v=114
20250 On ch=1 n=g4 v=113
20250 On ch=2 n=e5 v=116
20250 On ch=2 n=c#5 v=116
20250 On ch=2 n=a#4 v=114
20250 On ch=2 n=g4 v=113
20250 On ch=3 n=a#5 v=114
20250 On ch=3 n=a#4 v=112
20250 On ch=4 n=a#3 v=116
20250 On ch=4 n=a#2 v=113
20250 On ch=5 n=a#3 v=114
20250 On ch=5 n=a#2 v=112
20370 On ch=5 n=a#2 v=0
20370 On ch=5 n=a#3 v=0
20370 On ch=4 n=a#2 v=0
20370 On ch=4 n=a#3 v=0
20370 On ch=3 n=a#4 v=0
20370 On ch=3 n=a#5 v=0
20370 On ch=2 n=g4 v=0
20370 On ch=2 n=a#4 v=0
20370 On ch=2 n=c#5 v=0
20370 On ch=2 n=e5 v=0
20370 On ch=1 n=g4 v=0
20370 On ch=1 n=a#4 v=0
20370 On ch=1 n=c#5 v=0
20370 On ch=1 n=e5 v=0
20730 On ch=1 n=g#6 v=115
20730 On ch=2 n=g#6 v=115
20730 On ch=4 n=g#5 v=115
20850 On ch=4 n=g#5 v=0
20850 On ch=2 n=g#6 v=0
20850 On ch=1 n=g#6 v=0
20850 On ch=1 n=a#5 v=110
20850 On ch=2 n=a#5 v=110
20850 On ch=4 n=a#4 v=110
20970 On ch=4 n=a#4 v=0
20970 On ch=2 n=a#5 v=0
20970 On ch=1 n=a#5 v=0
20970 On ch=1 n=g#6 v=115
20970 On ch=2 n=g#6 v=115
20970 On ch=4 n=g#5 v=115
21090 On ch=4 n=g#5 v=0
21090 On ch=2 n=g#6 v=0
21090 On ch=1 n=g#6 v=0
21090 On ch=1 n=g6 v=114
21090 On ch=2 n=g6 v=114
21090 On ch=4 n=g5 v=114
21210 On ch=4 n=g5 v=0
21210 On ch=2 n=g6 v=0
21210 On ch=1 n=g6 v=0
21210 On ch=1 n=e6 v=113
21210 On ch=2 n=e6 v=113
21210 On ch=4 n=e5 v=113
21330 On ch=4 n=e5 v=0
21330 On ch=2 n=e6 v=0
21330 On ch=1 n=e6 v=0
21330 On ch=1 n=c#6 v=113
21330 On ch=2 n=c#6 v=113
21330 On ch=4 n=c#5 v=113
21450 On ch=4 n=c#5 v=0
21450 On ch=2 n=c#6 v=0
21450 On ch=1 n=c#6 v=0
21450 On ch=1 n=a#5 v=112
21450 On ch=2 n=a#5 v=112
21450 On ch=4 n=a#4 v=112
21570 On ch=4 n=a#4 v=0
21570 On ch=2 n=a#5 v=0
21570 On ch=1 n=a#5 v=0
21570 On ch=1 n=g5 v=111
21570 On ch=2 n=g5 v=111
21570 On ch=4 n=g4 v=111
21690 On ch=4 n=g4 v=0
21690 On ch=2 n=g5 v=0
21690 On ch=1 n=g5 v=0
21690 On ch=1 n=e5 v=110
21690 On ch=2 n=e5 v=110
21690 On ch=4 n=e4 v=110
21810 On ch=4 n=e4 v=0
21810 On ch=2 n=e5 v=0
21810 On ch=1 n=e5 v=0
21810 On ch=1 n=f5 v=112
21810 On ch=2 n=f5 v=112
21810 On ch=4 n=f4 v=112
21930 On ch=4 n=f4 v=0
21930 On ch=2 n=f5 v=0
21930 On ch=1 n=f5 v=0
22170 On ch=1 n=f5 v=114
22170 On ch=1 n=c5 v=113
22170 On ch=1 n=f4 v=112
22170 On ch=2 n=f5 v=114
22170 On ch=2 n=c5 v=113
22170 On ch=2 n=f4 v=112
22170 On ch=3 n=g#5 v=114
22170 On ch=3 n=g#4 v=112
22170 On ch=4 n=g#3 v=114
22170 On ch=4 n=g#2 v=112
22170 On ch=5 n=g#3 v=114
22170 On ch=5 n=g#2 v=112
22290 On ch=5 n=g#2 v=0
22290 On ch=5 n=g#3 v=0
22290 On ch=4 n=g#2 v=0
22290 On ch=4 n=g#3 v=0
22290 On ch=3 n=g#4 v=0
22290 On ch=3 n=g#5 v=0
22290 On ch=2 n=f4 v=0
22290 On ch=2 n=c5 v=0
22290 On ch=2 n=f5 v=0
22290 On ch=1 n=f4 v=0
22290 On ch=1 n=c5 v=0
22290 On ch=1 n=f5 v=0
22650 On ch=1 n=c7 v=115
22650 On ch=2 n=c7 v=115
22650 On ch=4 n=c6 v=115
22770 On ch=4 n=c6 v=0
22770 On ch=2 n=c7 v=0
22770 On ch=1 n=c7 v=0
22770 On ch=1 n=f6 v=112
22770 On ch=2 n=f6 v=112
22770 On ch=4 n=f5 v=112
22890 On ch=4 n=f5 v=0
22890 On ch=2 n=f6 v=0
22890 On ch=1 n=f6 v=0
22890 On ch=1 n=f#6 v=113
22890 On ch=2 n=f#6 v=113
22890 On ch=4 n=f#5 v=113
23010 On ch=4 n=f#5 v=0
23010 On ch=2 n=f#6 v=0
23010 On ch=1 n=f#6 v=0
23010 On ch=1 n=g6 v=115
23010 On ch=2 n=g6 v=115
23010 On ch=4 n=g5 v=115
23130 On ch=4 n=g5 v=0
23130 On ch=2 n=g6 v=0
23130 On ch=1 n=g6 v=0
23130 On ch=1 n=a#6 v=114
23130 On ch=2 n=a#6 v=114
23130 On ch=4 n=a#5 v=114
23240 On ch=4 n=a#5 v=0
23240 On ch=2 n=a#6 v=0
23240 On ch=1 n=a#6 v=0
23240 On ch=1 n=g#6 v=113
23240 On ch=2 n=g#6 v=113
23240 On ch=4 n=g#5 v=113
23350 On ch=4 n=g#5 v=0
23350 On ch=2 n=g#6 v=0
23350 On ch=1 n=g#6 v=0
23350 On ch=1 n=f6 v=112
23350 On ch=2 n=f6 v=112
23350 On ch=4 n=f5 v=112
23460 On ch=4 n=f5 v=0
23460 On ch=2 n=f6 v=0
23460 On ch=1 n=f6 v=0
23460 On ch=1 n=c#6 v=111
23460 On ch=2 n=c#6 v=111
23460 On ch=4 n=c#5 v=111
23570 On ch=4 n=c#5 v=0
23570 On ch=2 n=c#6 v=0
23570 On ch=1 n=c#6 v=0
23570 On ch=1 n=c6 v=110
23570 On ch=2 n=c6 v=110
23570 On ch=4 n=c5 v=110
23680 On ch=4 n=c5 v=0
23680 On ch=2 n=c6 v=0
23680 On ch=1 n=c6 v=0
23680 On ch=1 n=c6 v=113
23680 On ch=2 n=c6 v=113
23680 On ch=4 n=c5 v=113
23800 On ch=4 n=c5 v=0
23800 On ch=2 n=c6 v=0
23800 On ch=1 n=c6 v=0
23800 On ch=1 n=b5 v=110
23800 On ch=2 n=b5 v=110
23800 On ch=4 n=b4 v=110
23920 On ch=4 n=b4 v=0
23920 On ch=2 n=b5 v=0
23920 On ch=1 n=b5 v=0
24160 On ch=1 n=g#5 v=116
24160 On ch=1 n=d5 v=115
24160 On ch=1 n=b4 v=114
24160 On ch=1 n=g#4 v=112
24160 On ch=2 n=g#5 v=116
24160 On ch=2 n=d5 v=115
24160 On ch=2 n=b4 v=114
24160 On ch=2 n=g#4 v=112
24160 On ch=3 n=f5 v=114
24160 On ch=3 n=f4 v=112
24160 On ch=4 n=f3 v=116
24160 On ch=4 n=f2 v=112
24160 On ch=5 n=f3 v=114
24160 On ch=5 n=f2 v=112
24280 On ch=5 n=f2 v=0
24280 On ch=5 n=f3 v=0
24280 On ch=4 n=f2 v=0
24280 On ch=4 n=f3 v=0
24280 On ch=3 n=f4 v=0
24280 On ch=3 n=f5 v=0
24280 On ch=2 n=g#4 v=0
24280 On ch=2 n=b4 v=0
24280 On ch=2 n=d5 v=0
24280 On ch=2 n=g#5 v=0
24280 On ch=1 n=g#4 v=0
24280 On ch=1 n=b4 v=0
24280 On ch=1 n=d5 v=0
24280 On ch=1 n=g#5 v=0
24640 On ch=1 n=g#7 v=115
24640 On ch=2 n=g#7 v=115
24640 On ch=4 n=g#6 v=115
24750 On ch=4 n=g#6 v=0
24750 On ch=2 n=g#7 v=0
24750 On ch=1 n=g#7 v=0
24750 On ch=1 n=d7 v=112
24750 On ch=2 n=d7 v=112
24750 On ch=4 n=d6 v=112
24860 On ch=4 n=d6 v=0
24860 On ch=2 n=d7 v=0
24860 On ch=1 n=d7 v=0
24860 On ch=1 n=d#7 v=113
24860 On ch=2 n=d#7 v=113
24860 On ch=4 n=d#6 v=113
24970 On ch=4 n=d#6 v=0
24970 On ch=2 n=d#7 v=0
24970 On ch=1 n=d#7 v=0
24970 On ch=1 n=e7 v=114
24970 On ch=2 n=e7 v=114
24970 On ch=4 n=e6 v=114
25080 On ch=4 n=e6 v=0
25080 On ch=2 n=e7 v=0
25080 On ch=1 n=e7 v=0
25080 On ch=1 n=g7 v=115
25080 On ch=2 n=g7 v=115
25080 On ch=4 n=g6 v=115
25190 On ch=4 n=g6 v=0
25190 On ch=2 n=g7 v=0
25190 On ch=1 n=g7 v=0
25190 On ch=1 n=f7 v=114
25190 On ch=2 n=f7 v=114
25190 On ch=4 n=f6 v=114
25300 On ch=4 n=f6 v=0
25300 On ch=2 n=f7 v=0
25300 On ch=1 n=f7 v=0
25300 On ch=1 n=c#7 v=112
25300 On ch=2 n=c#7 v=112
25300 On ch=4 n=c#6 v=112
25410 On ch=4 n=c#6 v=0
25410 On ch=2 n=c#7 v=0
25410 On ch=1 n=c#7 v=0
25410 On ch=1 n=b6 v=111
25410 On ch=2 n=b6 v=111
25410 On ch=4 n=b5 v=111
25520 On ch=4 n=b5 v=0
25520 On ch=2 n=b6 v=0
25520 On ch=1 n=b6 v=0
25520 On ch=1 n=g6 v=110
25520 On ch=2 n=g6 v=110
25520 On ch=4 n=g5 v=110
25630 On ch=4 n=g5 v=0
25630 On ch=2 n=g6 v=0
25630 On ch=1 n=g6 v=0
25630 On ch=1 n=g#6 v=112
25630 On ch=2 n=g#6 v=112
25630 On ch=4 n=g#5 v=112
25740 On ch=4 n=g#5 v=0
25740 On ch=2 n=g#6 v=0
25740 On ch=1 n=g#6 v=0
25740 On ch=1 n=f6 v=111
25740 On ch=2 n=f6 v=111
25740 On ch=4 n=f5 v=111
25850 On ch=4 n=f5 v=0
25850 On ch=2 n=f6 v=0
25850 On ch=1 n=f6 v=0
25850 On ch=1 n=d6 v=110
25850 On ch=2 n=d6 v=110
25850 On ch=4 n=d5 v=110
25960 On ch=4 n=d5 v=0
25960 On ch=2 n=d6 v=0
25960 On ch=1 n=d6 v=0
25960 On ch=1 n=b5 v=109
25960 On ch=2 n=b5 v=109
25960 On ch=4 n=b4 v=109
26070 On ch=4 n=b4 v=0
26070 On ch=2 n=b5 v=0
26070 On ch=1 n=b5 v=0
26070 On ch=1 n=g5 v=106
26070 On ch=2 n=g5 v=106
26070 On ch=4 n=g4 v=106
26180 On ch=4 n=g4 v=0
26180 On ch=2 n=g5 v=0
26180 On ch=1 n=g5 v=0
26180 On ch=1 n=g#5 v=108
26180 On ch=2 n=g#5 v=108
26180 On ch=4 n=g#4 v=108
26290 On ch=4 n=g#4 v=0
26290 On ch=2 n=g#5 v=0
26290 On ch=1 n=g#5 v=0
26290 On ch=1 n=f5 v=107
26290 On ch=2 n=f5 v=107
26290 On ch=4 n=f4 v=107
26400 On ch=4 n=f4 v=0
26400 On ch=2 n=f5 v=0
26400 On ch=1 n=f5 v=0
26400 On ch=1 n=d5 v=106
26400 On ch=2 n=d5 v=106
26400 On ch=4 n=d4 v=106
26510 On ch=4 n=d4 v=0
26510 On ch=2 n=d5 v=0
26510 On ch=1 n=d5 v=0
26510 On ch=1 n=b4 v=106
26510 On ch=2 n=b4 v=106
26510 On ch=4 n=b3 v=106
26630 On ch=4 n=b3 v=0
26630 On ch=2 n=b4 v=0
26630 On ch=1 n=b4 v=0
26630 On ch=1 n=c5 v=108
26630 On ch=2 n=c5 v=108
26630 On ch=4 n=c4 v=108
26750 On ch=4 n=c4 v=0
26750 On ch=2 n=c5 v=0
26750 On ch=1 n=c5 v=0
26750 On ch=1 n=f5 v=110
26750 On ch=2 n=f5 v=110
26750 On ch=4 n=f4 v=110
26870 On ch=4 n=f4 v=0
26870 On ch=2 n=f5 v=0
26870 On ch=1 n=f5 v=0
26870 On ch=1 n=d#5 v=109
26870 On ch=2 n=d#5 v=109
26870 On ch=4 n=d#4 v=109
26990 On ch=4 n=d#4 v=0
26990 On ch=2 n=d#5 v=0
26990 On ch=1 n=d#5 v=0
26990 On ch=1 n=c6 v=115
26990 On ch=1 n=g#5 v=114
26990 On ch=1 n=d#5 v=113
26990 On ch=1 n=c5 v=110
26990 On ch=2 n=c6 v=115
26990 On ch=2 n=g#5 v=114
26990 On ch=2 n=d#5 v=113
26990 On ch=2 n=c5 v=110
26990 On ch=3 n=c5 v=115
26990 On ch=3 n=c4 v=110
26990 On ch=4 n=d#4 v=115
26990 On ch=4 n=g#3 v=113
26990 On ch=4 n=d#3 v=110
26990 On ch=5 n=d#4 v=115
26990 On ch=5 n=d#3 v=110
27110 On ch=5 n=d#3 v=0
27110 On ch=5 n=d#4 v=0
27110 On ch=4 n=d#3 v=0
27110 On ch=4 n=g#3 v=0
27110 On ch=4 n=d#4 v=0
27110 On ch=3 n=c4 v=0
27110 On ch=3 n=c5 v=0
27110 On ch=2 n=c5 v=0
27110 On ch=2 n=d#5 v=0
27110 On ch=2 n=g#5 v=0
27110 On ch=2 n=c6 v=0
27110 On ch=1 n=c5 v=0
27110 On ch=1 n=d#5 v=0
27110 On ch=1 n=g#5 v=0
27110 On ch=1 n=c6 v=0
27470 On ch=1 n=d7 v=115
27470 On ch=1 n=d6 v=113
27470 On ch=2 n=d7 v=115
27470 On ch=2 n=d6 v=113
27470 On ch=3 n=d6 v=115
27470 On ch=3 n=d5 v=113
27470 On ch=4 n=d5 v=115
27470 On ch=4 n=d4 v=113
27470 On ch=5 n=d5 v=115
27470 On ch=5 n=d4 v=113
27630 On ch=5 n=d4 v=0
27630 On ch=5 n=d5 v=0
27630 On ch=4 n=d4 v=0
27630 On ch=4 n=d5 v=0
27630 On ch=3 n=d5 v=0
27630 On ch=3 n=d6 v=0
27630 On ch=2 n=d6 v=0
27630 On ch=2 n=d7 v=0
27630 On ch=1 n=d6 v=0
27630 On ch=1 n=d7 v=0
27630 On ch=1 n=c#7 v=115
27630 On ch=1 n=c#6 v=113
27630 On ch=2 n=c#7 v=115
27630 On ch=2 n=c#6 v=113
27630 On ch=3 n=c#6 v=115
27630 On ch=3 n=c#5 v=113
27630 On ch=4 n=c#5 v=115
27630 On ch=4 n=c#4 v=113
27630 On ch=5 n=c#5 v=115
27630 On ch=5 n=c#4 v=113
27790 On ch=5 n=c#4 v=0
27790 On ch=5 n=c#5 v=0
27790 On ch=4 n=c#4 v=0
27790 On ch=4 n=c#5 v=0
27790 On ch=3 n=c#5 v=0
27790 On ch=3 n=c#6 v=0
27790 On ch=2 n=c#6 v=0
27790 On ch=2 n=c#7 v=0
27790 On ch=1 n=c#6 v=0
27790 On ch=1 n=c#7 v=0
27790 On ch=1 n=c7 v=115
27790 On ch=1 n=c6 v=113
27790 On ch=2 n=c7 v=115
27790 On ch=2 n=c6 v=113
27790 On ch=3 n=c6 v=115
27790 On ch=3 n=c5 v=113
27790 On ch=4 n=c5 v=115
27790 On ch=4 n=c4 v=113
27790 On ch=5 n=c5 v=115
27790 On ch=5 n=c4 v=113
27950 On ch=5 n=c4 v=0
27950 On ch=5 n=c5 v=0
27950 On ch=4 n=c4 v=0
27950 On ch=4 n=c5 v=0
27950 On ch=3 n=c5 v=0
27950 On ch=3 n=c6 v=0
27950 On ch=2 n=c6 v=0
27950 On ch=2 n=c7 v=0
27950 On ch=1 n=c6 v=0
27950 On ch=1 n=c7 v=0
27950 On ch=1 n=c7 v=115
27950 On ch=1 n=c6 v=113
27950 On ch=2 n=c7 v=115
27950 On ch=2 n=c6 v=113
27950 On ch=3 n=c6 v=115
27950 On ch=3 n=c5 v=113
27950 On ch=4 n=c5 v=115
27950 On ch=4 n=c4 v=113
27950 On ch=5 n=c5 v=115
27950 On ch=5 n=c4 v=113
28110 On ch=5 n=c4 v=0
28110 On ch=5 n=c5 v=0
28110 On ch=4 n=c4 v=0
28110 On ch=4 n=c5 v=0
28110 On ch=3 n=c5 v=0
28110 On ch=3 n=c6 v=0
28110 On ch=2 n=c6 v=0
28110 On ch=2 n=c7 v=0
28110 On ch=1 n=c6 v=0
28110 On ch=1 n=c7 v=0
28110 On ch=1 n=c7 v=115
28110 On ch=1 n=c6 v=113
28110 On ch=2 n=c7 v=115
28110 On ch=2 n=c6 v=113
28110 On ch=3 n=c6 v=115
28110 On ch=3 n=c5 v=113
28110 On ch=4 n=c5 v=115
28110 On ch=4 n=c4 v=113
28110 On ch=5 n=c5 v=115
28110 On ch=5 n=c4 v=113
28270 On ch=5 n=c4 v=0
28270 On ch=5 n=c5 v=0
28270 On ch=4 n=c4 v=0
28270 On ch=4 n=c5 v=0
28270 On ch=3 n=c5 v=0
28270 On ch=3 n=c6 v=0
28270 On ch=2 n=c6 v=0
28270 On ch=2 n=c7 v=0
28270 On ch=1 n=c6 v=0
28270 On ch=1 n=c7 v=0
28270 On ch=1 n=c7 v=115
28270 On ch=1 n=c6 v=113
28270 On ch=2 n=c7 v=115
28270 On ch=2 n=c6 v=113
28270 On ch=3 n=c6 v=115
28270 On ch=3 n=c5 v=113
28270 On ch=4 n=c5 v=115
28270 On ch=4 n=c4 v=113
28270 On ch=5 n=c5 v=115
28270 On ch=5 n=c4 v=113
28430 On ch=5 n=c4 v=0
28430 On ch=5 n=c5 v=0
28430 On ch=4 n=c4 v=0
28430 On ch=4 n=c5 v=0
28430 On ch=3 n=c5 v=0
28430 On ch=3 n=c6 v=0
28430 On ch=2 n=c6 v=0
28430 On ch=2 n=c7 v=0
28430 On ch=1 n=c6 v=0
28430 On ch=1 n=c7 v=0
28430 On ch=1 n=b4 v=106
28430 On ch=2 n=b4 v=106
28430 On ch=4 n=b3 v=106
28550 On ch=4 n=b3 v=0
28550 On ch=2 n=b4 v=0
28550 On ch=1 n=b4 v=0
28550 On ch=1 n=c5 v=108
28550 On ch=2 n=c5 v=108
28550 On ch=4 n=c4 v=108
28670 On ch=4 n=c4 v=0
28670 On ch=2 n=c5 v=0
28670 On ch=1 n=c5 v=0
28670 On ch=1 n=f5 v=110
28670 On ch=2 n=f5 v=110
28670 On ch=4 n=f4 v=110
28790 On ch=4 n=f4 v=0
28790 On ch=2 n=f5 v=0
28790 On ch=1 n=f5 v=0
28790 On ch=1 n=e5 v=109
28790 On ch=2 n=e5 v=109
28790 On ch=4 n=e4 v=109
28910 On ch=4 n=e4 v=0
28910 On ch=2 n=e5 v=0
28910 On ch=1 n=e5 v=0
28910 On ch=1 n=c6 v=115
28910 On ch=1 n=g#5 v=114
28910 On ch=1 n=d#5 v=113
28910 On ch=1 n=c5 v=110
28910 On ch=2 n=c6 v=115
28910 On ch=2 n=g#5 v=114
28910 On ch=2 n=d#5 v=113
28910 On ch=2 n=c5 v=110
28910 On ch=3 n=c5 v=115
28910 On ch=3 n=c4 v=110
28910 On ch=4 n=e4 v=115
28910 On ch=4 n=c4 v=113
28910 On ch=4 n=e3 v=110
28910 On ch=5 n=d#4 v=115
28910 On ch=5 n=d#3 v=110
29030 On ch=5 n=d#3 v=0
29030 On ch=5 n=d#4 v=0
29030 On ch=4 n=e3 v=0
29030 On ch=4 n=c4 v=0
29030 On ch=4 n=e4 v=0
29030 On ch=3 n=c4 v=0
29030 On ch=3 n=c5 v=0
29030 On ch=2 n=c5 v=0
29030 On ch=2 n=d#5 v=0
29030 On ch=2 n=g#5 v=0
29030 On ch=2 n=c6 v=0
29030 On ch=1 n=c5 v=0
29030 On ch=1 n=d#5 v=0
29030 On ch=1 n=g#5 v=0
29030 On ch=1 n=c6 v=0
29390 On ch=1 n=d7 v=115
29390 On ch=1 n=d6 v=113
29390 On ch=2 n=d7 v=115
29390 On ch=2 n=d6 v=113
29390 On ch=3 n=d6 v=115
29390 On ch=3 n=d5 v=113
29390 On ch=4 n=d5 v=115
29390 On ch=4 n=d4 v=113
29390 On ch=5 n=d5 v=115
29390 On ch=5 n=d4 v=113
29550 On ch=5 n=d4 v=0
29550 On ch=5 n=d5 v=0
29550 On ch=4 n=d4 v=0
29550 On ch=4 n=d5 v=0
29550 On ch=3 n=d5 v=0
29550 On ch=3 n=d6 v=0
29550 On ch=2 n=d6 v=0
29550 On ch=2 n=d7 v=0
29550 On ch=1 n=d6 v=0
29550 On ch=1 n=d7 v=0
29550 On ch=1 n=c#7 v=115
29550 On ch=1 n=c#6 v=113
29550 On ch=2 n=c#7 v=115
29550 On ch=2 n=c#6 v=113
29550 On ch=3 n=c#6 v=115
29550 On ch=3 n=c#5 v=113
29550 On ch=4 n=c#5 v=115
29550 On ch=4 n=c#4 v=113
29550 On ch=5 n=c#5 v=115
29550 On ch=5 n=c#4 v=113
29710 On ch=5 n=c#4 v=0
29710 On ch=5 n=c#5 v=0
29710 On ch=4 n=c#4 v=0
29710 On ch=4 n=c#5 v=0
29710 On ch=3 n=c#5 v=0
29710 On ch=3 n=c#6 v=0
29710 On ch=2 n=c#6 v=0
29710 On ch=2 n=c#7 v=0
29710 On ch=1 n=c#6 v=0
29710 On ch=1 n=c#7 v=0
29710 On ch=1 n=c7 v=115
29710 On ch=1 n=c6 v=113
29710 On ch=2 n=c7 v=115
29710 On ch=2 n=c6 v=113
29710 On ch=3 n=c6 v=115
29710 On ch=3 n=c5 v=113
29710 On ch=4 n=c5 v=115
29710 On ch=4 n=c4 v=113
29710 On ch=5 n=c5 v=115
29710 On ch=5 n=c4 v=113
29870 On ch=5 n=c4 v=0
29870 On ch=5 n=c5 v=0
29870 On ch=4 n=c4 v=0
29870 On ch=4 n=c5 v=0
29870 On ch=3 n=c5 v=0
29870 On ch=3 n=c6 v=0
29870 On ch=2 n=c6 v=0
29870 On ch=2 n=c7 v=0
29870 On ch=1 n=c6 v=0
29870 On ch=1 n=c7 v=0
29870 On ch=1 n=c7 v=115
29870 On ch=1 n=c6 v=113
29870 On ch=2 n=c7 v=115
29870 On ch=2 n=c6 v=113
29870 On ch=3 n=c6 v=115
29870 On ch=3 n=c5 v=113
29870 On ch=4 n=c5 v=115
29870 On ch=4 n=c4 v=113
29870 On ch=5 n=c5 v=115
29870 On ch=5 n=c4 v=113
29990 On ch=5 n=c4 v=0
29990 On ch=5 n=c5 v=0
29990 On ch=4 n=c4 v=0
29990 On ch=4 n=c5 v=0
29990 On ch=3 n=c5 v=0
29990 On ch=3 n=c6 v=0
29990 On ch=2 n=c6 v=0
29990 On ch=2 n=c7 v=0
29990 On ch=1 n=c6 v=0
29990 On ch=1 n=c7 v=0
29990 On ch=1 n=c7 v=115
29990 On ch=1 n=c6 v=113
29990 On ch=2 n=c7 v=115
29990 On ch=2 n=c6 v=113
29990 On ch=3 n=c6 v=115
29990 On ch=3 n=c5 v=113
29990 On ch=4 n=c5 v=115
29990 On ch=4 n=c4 v=113
29990 On ch=5 n=c5 v=115
29990 On ch=5 n=c4 v=113
30110 On ch=5 n=c4 v=0
30110 On ch=5 n=c5 v=0
30110 On ch=4 n=c4 v=0
30110 On ch=4 n=c5 v=0
30110 On ch=3 n=c5 v=0
30110 On ch=3 n=c6 v=0
30110 On ch=2 n=c6 v=0
30110 On ch=2 n=c7 v=0
30110 On ch=1 n=c6 v=0
30110 On ch=1 n=c7 v=0
30110 On ch=1 n=c7 v=115
30110 On ch=1 n=c6 v=113
30110 On ch=2 n=c7 v=115
30110 On ch=2 n=c6 v=113
30110 On ch=3 n=c6 v=115
30110 On ch=3 n=c5 v=113
30110 On ch=4 n=c5 v=115
30110 On ch=4 n=c4 v=113
30110 On ch=5 n=c5 v=115
30110 On ch=5 n=c4 v=113
30230 On ch=5 n=c4 v=0
30230 On ch=5 n=c5 v=0
30230 On ch=4 n=c4 v=0
30230 On ch=4 n=c5 v=0
30230 On ch=3 n=c5 v=0
30230 On ch=3 n=c6 v=0
30230 On ch=2 n=c6 v=0
30230 On ch=2 n=c7 v=0
30230 On ch=1 n=c6 v=0
30230 On ch=1 n=c7 v=0
30230 On ch=1 n=c7 v=115
30230 On ch=1 n=c6 v=113
30230 On ch=2 n=c7 v=115
30230 On ch=2 n=c6 v=113
30230 On ch=3 n=c6 v=115
30230 On ch=3 n=c5 v=113
30230 On ch=4 n=c5 v=115
30230 On ch=4 n=c4 v=113
30230 On ch=5 n=c5 v=115
30230 On ch=5 n=c4 v=113
30350 On ch=5 n=c4 v=0
30350 On ch=5 n=c5 v=0
30350 On ch=4 n=c4 v=0
30350 On ch=4 n=c5 v=0
30350 On ch=3 n=c5 v=0
30350 On ch=3 n=c6 v=0
30350 On ch=2 n=c6 v=0
30350 On ch=2 n=c7 v=0
30350 On ch=1 n=c6 v=0
30350 On ch=1 n=c7 v=0
30350 On ch=1 n=b4 v=106
30350 On ch=2 n=b4 v=106
30350 On ch=4 n=b3 v=106
30470 On ch=4 n=b3 v=0
30470 On ch=2 n=b4 v=0
30470 On ch=1 n=b4 v=0
30470 On ch=1 n=c5 v=108
30470 On ch=2 n=c5 v=108
30470 On ch=4 n=c4 v=108
30590 On ch=4 n=c4 v=0
30590 On ch=2 n=c5 v=0
30590 On ch=1 n=c5 v=0
30590 On ch=1 n=g5 v=110
30590 On ch=2 n=g5 v=110
30590 On ch=4 n=g4 v=110
30710 On ch=4 n=g4 v=0
30710 On ch=2 n=g5 v=0
30710 On ch=1 n=g5 v=0
30710 On ch=1 n=f5 v=109
30710 On ch=2 n=f5 v=109
30710 On ch=4 n=f4 v=109
30830 On ch=4 n=f4 v=0
30830 On ch=2 n=f5 v=0
30830 On ch=1 n=f5 v=0
30830 On ch=1 n=c6 v=115
30830 On ch=1 n=g#5 v=114
30830 On ch=1 n=f5 v=113
30830 On ch=1 n=c5 v=110
30830 On ch=2 n=c6 v=115
30830 On ch=2 n=g#5 v=114
30830 On ch=2 n=f5 v=113
30830 On ch=2 n=c5 v=110
30830 On ch=3 n=c5 v=115
30830 On ch=3 n=c4 v=110
30830 On ch=4 n=g#4 v=115
30830 On ch=4 n=c4 v=113
30830 On ch=4 n=f3 v=110
30830 On ch=5 n=g#4 v=115
30830 On ch=5 n=g#3 v=110
30950 On ch=5 n=g#3 v=0
30950 On ch=5 n=g#4 v=0
30950 On ch=4 n=f3 v=0
30950 On ch=4 n=c4 v=0
30950 On ch=4 n=g#4 v=0
30950 On ch=3 n=c4 v=0
30950 On ch=3 n=c5 v=0
30950 On ch=2 n=c5 v=0
30950 On ch=2 n=f5 v=0
30950 On ch=2 n=g#5 v=0
30950 On ch=2 n=c6 v=0
30950 On ch=1 n=c5 v=0
30950 On ch=1 n=f5 v=0
30950 On ch=1 n=g#5 v=0
30950 On ch=1 n=c6 v=0
31310 On ch=1 n=b4 v=106
31310 On ch=2 n=b4 v=106
31310 On ch=4 n=b3 v=106
31430 On ch=4 n=b3 v=0
31430 On ch=2 n=b4 v=0
31430 On ch=1 n=b4 v=0
31430 On ch=1 n=c5 v=108
31430 On ch=2 n=c5 v=108
31430 On ch=4 n=c4 v=108
31550 On ch=4 n=c4 v=0
31550 On ch=2 n=c5 v=0
31550 On ch=1 n=c5 v=0
31550 On ch=1 n=a#5 v=110
31550 On ch=2 n=a#5 v=110
31550 On ch=4 n=a#4 v=110
31670 On ch=4 n=a#4 v=0
31670 On ch=2 n=a#5 v=0
31670 On ch=1 n=a#5 v=0
31670 On ch=1 n=g#5 v=109
31670 On ch=2 n=g#5 v=109
31670 On ch=4 n=g#4 v=109
31790 On ch=4 n=g#4 v=0
31790 On ch=2 n=g#5 v=0
31790 On ch=1 n=g#5 v=0
31790 On ch=1 n=c5 v=115
31790 On ch=1 n=g#5 v=114
31790 On ch=1 n=d#5 v=113
31790 On ch=2 n=c5 v=115
31790 On ch=2 n=g#5 v=114
31790 On ch=2 n=d#5 v=113
31790 On ch=3 n=c5 v=115
31790 On ch=3 n=c4 v=110
31790 On ch=4 n=f#4 v=115
31790 On ch=4 n=g#3 v=113
31790 On ch=4 n=f#3 v=110
31790 On ch=5 n=f#4 v=115
31790 On ch=5 n=f#3 v=110
31910 On ch=5 n=f#3 v=0
31910 On ch=5 n=f#4 v=0
31910 On ch=4 n=f#3 v=0
31910 On ch=4 n=g#3 v=0
31910 On ch=4 n=f#4 v=0
31910 On ch=3 n=c4 v=0
31910 On ch=3 n=c5 v=0
31910 On ch=2 n=d#5 v=0
31910 On ch=2 n=g#5 v=0
31910 On ch=2 n=c5 v=0
31910 On ch=1 n=d#5 v=0
31910 On ch=1 n=g#5 v=0
31910 On ch=1 n=c5 v=0
32270 On ch=1 n=c6 v=115
32270 On ch=1 n=g#5 v=114
32270 On ch=1 n=d#5 v=113
32270 On ch=1 n=c5 v=112
32270 On ch=2 n=c6 v=115
32270 On ch=2 n=g#5 v=114
32270 On ch=2 n=d#5 v=113
32270 On ch=2 n=c5 v=112
32270 On ch=3 n=c5 v=112
32270 On ch=3 n=c4 v=110
32270 On ch=4 n=f#4 v=115
32270 On ch=4 n=g#3 v=113
32270 On ch=4 n=f#3 v=112
32270 On ch=5 n=f#4 v=112
32270 On ch=5 n=f#3 v=110
32390 On ch=5 n=f#3 v=0
32390 On ch=5 n=f#4 v=0
32390 On ch=4 n=f#3 v=0
32390 On ch=4 n=g#3 v=0
32390 On ch=4 n=f#4 v=0
32390 On ch=3 n=c4 v=0
32390 On ch=3 n=c5 v=0
32390 On ch=2 n=c5 v=0
32390 On ch=2 n=d#5 v=0
32390 On ch=2 n=g#5 v=0
32390 On ch=2 n=c6 v=0
32390 On ch=1 n=c5 v=0
32390 On ch=1 n=d#5 v=0
32390 On ch=1 n=g#5 v=0
32390 On ch=1 n=c6 v=0
32510 On ch=1 n=c7 v=115
32510 On ch=1 n=c6 v=112
32510 On ch=2 n=c7 v=115
32510 On ch=2 n=c6 v=112
32510 On ch=3 n=c6 v=114
32510 On ch=3 n=c5 v=112
32510 On ch=4 n=c5 v=115
32510 On ch=4 n=c4 v=112
32510 On ch=5 n=c5 v=114
32510 On ch=5 n=c4 v=112
32630 On ch=5 n=c4 v=0
32630 On ch=5 n=c5 v=0
32630 On ch=4 n=c4 v=0
32630 On ch=4 n=c5 v=0
32630 On ch=3 n=c5 v=0
32630 On ch=3 n=c6 v=0
32630 On ch=2 n=c6 v=0
32630 On ch=2 n=c7 v=0
32630 On ch=1 n=c6 v=0
32630 On ch=1 n=c7 v=0
32750 On ch=1 n=e6 v=116
32750 On ch=1 n=c#6 v=115
32750 On ch=1 n=a#5 v=114
32750 On ch=1 n=e5 v=113
32750 On ch=2 n=e6 v=116
32750 On ch=2 n=c#6 v=115
32750 On ch=2 n=a#5 v=114
32750 On ch=2 n=e5 v=113
32750 On ch=3 n=e5 v=113
32750 On ch=3 n=e4 v=111
32750 On ch=4 n=g4 v=116
32750 On ch=4 n=g3 v=113
32750 On ch=5 n=g4 v=113
32750 On ch=5 n=g3 v=111
32870 On ch=5 n=g3 v=0
32870 On ch=5 n=g4 v=0
32870 On ch=4 n=g3 v=0
32870 On ch=4 n=g4 v=0
32870 On ch=3 n=e4 v=0
32870 On ch=3 n=e5 v=0
32870 On ch=2 n=e5 v=0
32870 On ch=2 n=a#5 v=0
32870 On ch=2 n=c#6 v=0
32870 On ch=2 n=e6 v=0
32870 On ch=1 n=e5 v=0
32870 On ch=1 n=a#5 v=0
32870 On ch=1 n=c#6 v=0
32870 On ch=1 n=e6 v=0
32990 On ch=1 n=c#7 v=116
32990 On ch=1 n=c#6 v=113
32990 On ch=2 n=c#7 v=116
32990 On ch=2 n=c#6 v=113
32990 On ch=3 n=e6 v=115
32990 On ch=3 n=e5 v=113
32990 On ch=4 n=c#5 v=116
32990 On ch=4 n=c#4 v=113
32990 On ch=5 n=c#5 v=115
32990 On ch=5 n=c#4 v=113
33110 On ch=5 n=c#4 v=0
33110 On ch=5 n=c#5 v=0
33110 On ch=4 n=c#4 v=0
33110 On ch=4 n=c#5 v=0
33110 On ch=3 n=e5 v=0
33110 On ch=3 n=e6 v=0
33110 On ch=2 n=c#6 v=0
33110 On ch=2 n=c#7 v=0
33110 On ch=1 n=c#6 v=0
33110 On ch=1 n=c#7 v=0
33230 On ch=1 n=f6 v=116
33230 On ch=1 n=c#6 v=115
33230 On ch=1 n=g#5 v=114
33230 On ch=1 n=f5 v=113
33230 On ch=2 n=f6 v=116
33230 On ch=2 n=c#6 v=115
33230 On ch=2 n=g#5 v=114
33230 On ch=2 n=f5 v=113
33230 On ch=3 n=f5 v=114
33230 On ch=3 n=f4 v=112
33230 On ch=4 n=g#4 v=116
33230 On ch=4 n=c#4 v=114
33230 On ch=4 n=g#3 v=113
33230 On ch=5 n=g#4 v=114
33230 On ch=5 n=g#3 v=112
33350 On ch=5 n=g#3 v=0
33350 On ch=5 n=g#4 v=0
33350 On ch=4 n=g#3 v=0
33350 On ch=4 n=c#4 v=0
33350 On ch=4 n=g#4 v=0
33350 On ch=3 n=f4 v=0
33350 On ch=3 n=f5 v=0
33350 On ch=2 n=f5 v=0
33350 On ch=2 n=g#5 v=0
33350 On ch=2 n=c#6 v=0
33350 On ch=2 n=f6 v=0
33350 On ch=1 n=f5 v=0
33350 On ch=1 n=g#5 v=0
33350 On ch=1 n=c#6 v=0
33350 On ch=1 n=f6 v=0
33470 On ch=1 n=g#7 v=116
33470 On ch=1 n=g#6 v=113
33470 On ch=2 n=g#7 v=116
33470 On ch=2 n=g#6 v=113
33470 On ch=3 n=f6 v=116
33470 On ch=3 n=f5 v=114
33470 On ch=4 n=g#5 v=116
33470 On ch=4 n=g#4 v=113
33470 On ch=5 n=g#5 v=116
33470 On ch=5 n=g#4 v=114
33590 On ch=5 n=g#4 v=0
33590 On ch=5 n=g#5 v=0
33590 On ch=4 n=g#4 v=0
33590 On ch=4 n=g#5 v=0
33590 On ch=3 n=f5 v=0
33590 On ch=3 n=f6 v=0
33590 On ch=2 n=g#6 v=0
33590 On ch=2 n=g#7 v=0
33590 On ch=1 n=g#6 v=0
33590 On ch=1 n=g#7 v=0
33710 On ch=1 n=g6 v=117
33710 On ch=1 n=f6 v=116
33710 On ch=1 n=c#6 v=115
33710 On ch=1 n=g5 v=114
33710 On ch=2 n=g6 v=117
33710 On ch=2 n=f6 v=116
33710 On ch=2 n=c#6 v=115
33710 On ch=2 n=g5 v=114
33710 On ch=3 n=g5 v=115
33710 On ch=3 n=g4 v=113
33710 On ch=4 n=a#4 v=117
33710 On ch=4 n=c#4 v=115
33710 On ch=4 n=a#3 v=114
33710 On ch=5 n=a#4 v=115
33710 On ch=5 n=a#3 v=113
33830 On ch=5 n=a#3 v=0
33830 On ch=5 n=a#4 v=0
33830 On ch=4 n=a#3 v=0
33830 On ch=4 n=c#4 v=0
33830 On ch=4 n=a#4 v=0
33830 On ch=3 n=g4 v=0
33830 On ch=3 n=g5 v=0
33830 On ch=2 n=g5 v=0
33830 On ch=2 n=c#6 v=0
33830 On ch=2 n=f6 v=0
33830 On ch=2 n=g6 v=0
33830 On ch=1 n=g5 v=0
33830 On ch=1 n=c#6 v=0
33830 On ch=1 n=f6 v=0
33830 On ch=1 n=g6 v=0
33950 On ch=1 n=g7 v=117
33950 On ch=1 n=g6 v=114
33950 On ch=2 n=g7 v=117
33950 On ch=2 n=g6 v=114
33950 On ch=3 n=g6 v=117
33950 On ch=3 n=g5 v=115
33950 On ch=4 n=g5 v=117
33950 On ch=4 n=g4 v=114
33950 On ch=5 n=g5 v=117
33950 On ch=5 n=g4 v=115
34070 On ch=5 n=g4 v=0
34070 On ch=5 n=g5 v=0
34070 On ch=4 n=g4 v=0
34070 On ch=4 n=g5 v=0
34070 On ch=3 n=g5 v=0
34070 On ch=3 n=g6 v=0
34070 On ch=2 n=g6 v=0
34070 On ch=2 n=g7 v=0
34070 On ch=1 n=g6 v=0
34070 On ch=1 n=g7 v=0
34190 On ch=1 n=b5 v=118
34190 On ch=1 n=b4 v=116
34190 On ch=2 n=b5 v=118
34190 On ch=2 n=b4 v=116
34190 On ch=3 n=b4 v=120
34190 On ch=3 n=b3 v=118
34190 On ch=4 n=b3 v=118
34190 On ch=4 n=b2 v=116
34190 On ch=5 n=a#3 v=120
34190 On ch=5 n=b2 v=118
34310 On ch=5 n=b2 v=0
34310 On ch=5 n=a#3 v=0
34310 On ch=4 n=b2 v=0
34310 On ch=4 n=b3 v=0
34310 On ch=3 n=b3 v=0
34310 On ch=3 n=b4 v=0
34310 On ch=2 n=b4 v=0
34310 On ch=2 n=b5 v=0
34310 On ch=1 n=b4 v=0
34310 On ch=1 n=b5 v=0
34670 On ch=1 n=f8 v=120
34670 On ch=1 n=f7 v=118
34670 On ch=2 n=f8 v=120
34670 On ch=2 n=f7 v=118
34670 On ch=3 n=c#6 v=120
34670 On ch=3 n=c#5 v=118
34670 On ch=4 n=b4 v=112
34670 On ch=5 n=c#4 v=120
34670 On ch=5 n=c#3 v=118
34710 On ch=4 n=c#5 v=113
34750 On ch=4 n=f5 v=115
34790 On ch=4 n=c#6 v=117
34920 On ch=2 n=f7 v=0
34920 On ch=1 n=f7 v=0
35030 On ch=2 n=f8 v=0
35030 On ch=1 n=f8 v=0
35030 On ch=1 n=d#8 v=120
35030 On ch=2 n=d#8 v=120
35150 On ch=2 n=d#8 v=0
35150 On ch=1 n=d#8 v=0
35150 On ch=5 n=c#3 v=0
35150 On ch=5 n=c#4 v=0
35150 On ch=3 n=c#5 v=0
35150 On ch=3 n=c#6 v=0
35150 On ch=1 n=c#8 v=120
35150 On ch=2 n=c#8 v=120
35270 On ch=2 n=c#8 v=0
35270 On ch=1 n=c#8 v=0
35270 On ch=4 n=c#6 v=0
35270 On ch=4 n=f5 v=0
35270 On ch=4 n=c#5 v=0
35270 On ch=4 n=b4 v=0
35270 On ch=1 n=g#7 v=119
35270 On ch=2 n=g#7 v=119
35390 On ch=2 n=g#7 v=0
35390 On ch=1 n=g#7 v=0
35390 On ch=1 n=f7 v=118
35390 On ch=2 n=f7 v=118
35510 On ch=2 n=f7 v=0
35510 On ch=1 n=f7 v=0
35510 On ch=1 n=d#7 v=118
35510 On ch=2 n=d#7 v=118
35630 On ch=2 n=d#7 v=0
35630 On ch=1 n=d#7 v=0
35630 On ch=1 n=c#7 v=117
35630 On ch=2 n=c#7 v=117
35750 On ch=2 n=c#7 v=0
35750 On ch=1 n=c#7 v=0
35750 On ch=1 n=g#6 v=117
35750 On ch=2 n=g#6 v=117
35870 On ch=2 n=g#6 v=0
35870 On ch=1 n=g#6 v=0
35870 On ch=1 n=f6 v=116
35870 On ch=2 n=f6 v=116
35990 On ch=2 n=f6 v=0
35990 On ch=1 n=f6 v=0
35990 On ch=1 n=d#6 v=116
35990 On ch=2 n=d#6 v=116
36110 On ch=2 n=d#6 v=0
36110 On ch=1 n=d#6 v=0
36110 On ch=1 n=c#6 v=115
36110 On ch=2 n=c#6 v=115
36230 On ch=2 n=c#6 v=0
36230 On ch=1 n=c#6 v=0
36230 On ch=1 n=g#5 v=115
36230 On ch=2 n=g#5 v=115
36350 On ch=2 n=g#5 v=0
36350 On ch=1 n=g#5 v=0
36350 On ch=1 n=f5 v=114
36350 On ch=2 n=f5 v=114
36470 On ch=2 n=f5 v=0
36470 On ch=1 n=f5 v=0
36470 On ch=1 n=d#5 v=114
36470 On ch=2 n=d#5 v=114
36590 On ch=2 n=d#5 v=0
36590 On ch=1 n=d#5 v=0
36590 On ch=1 n=c#5 v=113
36590 On ch=2 n=c#5 v=113
36710 On ch=2 n=c#5 v=0
36710 On ch=1 n=c#5 v=0
36710 On ch=1 n=g#4 v=113
36710 On ch=2 n=g#4 v=113
36830 On ch=2 n=g#4 v=0
36830 On ch=1 n=g#4 v=0
36830 On ch=1 n=f4 v=112
36830 On ch=2 n=f4 v=112
36950 On ch=2 n=f4 v=0
36950 On ch=1 n=f4 v=0
36950 On ch=1 n=d#4 v=111
36950 On ch=2 n=d#4 v=111
37070 On ch=2 n=d#4 v=0
37070 On ch=1 n=d#4 v=0
37070 On ch=1 n=c#4 v=111
37070 On ch=2 n=c#4 v=111
37190 On ch=2 n=c#4 v=0
37190 On ch=1 n=c#4 v=0
37190 On ch=1 n=g#3 v=110
37190 On ch=2 n=g#3 v=110
37310 On ch=2 n=g#3 v=0
37310 On ch=1 n=g#3 v=0
37310 On ch=1 n=f3 v=108
37310 On ch=2 n=f3 v=108
37310 On ch=4 n=f2 v=108
37360 On ch=1 n=g3 v=109
37360 On ch=2 n=g3 v=109
37360 On ch=4 n=g2 v=109
37370 On ch=4 n=f2 v=0
37370 On ch=2 n=f3 v=0
37370 On ch=1 n=f3 v=0
37410 On ch=1 n=f3 v=108
37410 On ch=2 n=f3 v=108
37410 On ch=4 n=f2 v=108
37420 On ch=4 n=g2 v=0
37420 On ch=2 n=g3 v=0
37420 On ch=1 n=g3 v=0
37460 On ch=1 n=g3 v=109
37460 On ch=2 n=g3 v=109
37460 On ch=4 n=g2 v=109
37470 On ch=4 n=f2 v=0
37470 On ch=2 n=f3 v=0
37470 On ch=1 n=f3 v=0
37510 On ch=1 n=f3 v=108
37510 On ch=2 n=f3 v=108
37510 On ch=4 n=f2 v=108
37520 On ch=4 n=g2 v=0
37520 On ch=2 n=g3 v=0
37520 On ch=1 n=g3 v=0
37560 On ch=1 n=g3 v=109
37560 On ch=2 n=g3 v=109
37560 On ch=4 n=g2 v=109
37570 On ch=4 n=f2 v=0
37570 On ch=2 n=f3 v=0
37570 On ch=1 n=f3 v=0
37610 On ch=1 n=f3 v=108
37610 On ch=2 n=f3 v=108
37610 On ch=4 n=f2 v=108
37620 On ch=4 n=g2 v=0
37620 On ch=2 n=g3 v=0
37620 On ch=1 n=g3 v=0
37660 On ch=1 n=g3 v=109
37660 On ch=2 n=g3 v=109
37660 On ch=4 n=g2 v=109
37670 On ch=4 n=f2 v=0
37670 On ch=2 n=f3 v=0
37670 On ch=1 n=f3 v=0
37710 On ch=1 n=f3 v=108
37710 On ch=2 n=f3 v=108
37710 On ch=4 n=f2 v=108
37720 On ch=4 n=g2 v=0
37720 On ch=2 n=g3 v=0
37720 On ch=1 n=g3 v=0
37760 On ch=1 n=g3 v=109
37760 On ch=2 n=g3 v=109
37760 On ch=4 n=g2 v=109
37770 On ch=4 n=f2 v=0
37770 On ch=2 n=f3 v=0
37770 On ch=1 n=f3 v=0
37810 On ch=1 n=f3 v=108
37810 On ch=2 n=f3 v=108
37810 On ch=4 n=f2 v=108
37820 On ch=4 n=g2 v=0
37820 On ch=2 n=g3 v=0
37820 On ch=1 n=g3 v=0
37860 On ch=1 n=g3 v=109
37860 On ch=2 n=g3 v=109
37860 On ch=4 n=g2 v=109
37870 On ch=4 n=f2 v=0
37870 On ch=2 n=f3 v=0
37870 On ch=1 n=f3 v=0
37910 On ch=1 n=f3 v=108
37910 On ch=2 n=f3 v=108
37910 On ch=4 n=f2 v=108
37920 On ch=4 n=g2 v=0
37920 On ch=2 n=g3 v=0
37920 On ch=1 n=g3 v=0
37960 On ch=1 n=g3 v=109
37960 On ch=2 n=g3 v=109
37960 On ch=4 n=g2 v=109
37970 On ch=4 n=f2 v=0
37970 On ch=2 n=f3 v=0
37970 On ch=1 n=f3 v=0
38010 On ch=1 n=f3 v=108
38010 On ch=2 n=f3 v=108
38010 On ch=4 n=f2 v=108
38020 On ch=4 n=g2 v=0
38020 On ch=2 n=g3 v=0
38020 On ch=1 n=g3 v=0
38060 On ch=1 n=g3 v=109
38060 On ch=2 n=g3 v=109
38060 On ch=4 n=g2 v=109
38070 On ch=4 n=f2 v=0
38070 On ch=2 n=f3 v=0
38070 On ch=1 n=f3 v=0
38110 On ch=1 n=f3 v=108
38110 On ch=2 n=f3 v=108
38110 On ch=4 n=f2 v=108
38120 On ch=4 n=g2 v=0
38120 On ch=2 n=g3 v=0
38120 On ch=1 n=g3 v=0
38160 On ch=1 n=g3 v=109
38160 On ch=2 n=g3 v=109
38160 On ch=4 n=g2 v=109
38170 On ch=4 n=f2 v=0
38170 On ch=2 n=f3 v=0
38170 On ch=1 n=f3 v=0
38210 On ch=1 n=f3 v=108
38210 On ch=2 n=f3 v=108
38210 On ch=4 n=f2 v=108
38220 On ch=4 n=g2 v=0
38220 On ch=2 n=g3 v=0
38220 On ch=1 n=g3 v=0
38260 On ch=1 n=g3 v=108
38260 On ch=2 n=g3 v=108
38260 On ch=4 n=g2 v=108
38270 On ch=4 n=f2 v=0
38270 On ch=2 n=f3 v=0
38270 On ch=1 n=f3 v=0
38310 On ch=1 n=e3 v=112
38310 On ch=2 n=e3 v=112
38310 On ch=4 n=e2 v=112
38320 On ch=4 n=g2 v=0
38320 On ch=2 n=g3 v=0
38320 On ch=1 n=g3 v=0
38370 On ch=4 n=e2 v=0
38370 On ch=2 n=e3 v=0
38370 On ch=1 n=e3 v=0
38400 On ch=1 n=f3 v=113
38400 On ch=2 n=f3 v=113
38400 On ch=4 n=f2 v=113
38460 On ch=4 n=f2 v=0
38460 On ch=2 n=f3 v=0
38460 On ch=1 n=f3 v=0
38490 On ch=1 n=c#4 v=115
38490 On ch=2 n=c#4 v=115
38490 On ch=4 n=c#3 v=115
38550 On ch=4 n=c#3 v=0
38550 On ch=2 n=c#4 v=0
38550 On ch=1 n=c#4 v=0
38580 On ch=1 n=c4 v=113
38580 On ch=2 n=c4 v=113
38580 On ch=4 n=c3 v=113
38640 On ch=4 n=c3 v=0
38640 On ch=2 n=c4 v=0
38640 On ch=1 n=c4 v=0
38680 On ch=1 n=g3 v=114
38680 On ch=2 n=g3 v=114
38680 On ch=4 n=g2 v=114
38740 On ch=4 n=g2 v=0
38740 On ch=2 n=g3 v=0
38740 On ch=1 n=g3 v=0
38780 On ch=1 n=b3 v=112
38780 On ch=2 n=b3 v=112
38780 On ch=4 n=b2 v=112
38840 On ch=4 n=b2 v=0
38840 On ch=2 n=b3 v=0
38840 On ch=1 n=b3 v=0
38880 On ch=1 n=f#3 v=113
38880 On ch=2 n=f#3 v=113
38880 On ch=4 n=f#2 v=113
38940 On ch=4 n=f#2 v=0
38940 On ch=2 n=f#3 v=0
38940 On ch=1 n=f#3 v=0
38980 On ch=1 n=a#3 v=111
38980 On ch=2 n=a#3 v=111
38980 On ch=4 n=a#2 v=111
39040 On ch=4 n=a#2 v=0
39040 On ch=2 n=a#3 v=0
39040 On ch=1 n=a#3 v=0
39080 On ch=1 n=f3 v=112
39080 On ch=2 n=f3 v=112
39080 On ch=4 n=f2 v=112
39140 On ch=4 n=f2 v=0
39140 On ch=2 n=f3 v=0
39140 On ch=1 n=f3 v=0
39180 On ch=1 n=a3 v=114
39180 On ch=2 n=a3 v=114
39180 On ch=4 n=a2 v=114
39240 On ch=4 n=a2 v=0
39240 On ch=2 n=a3 v=0
39240 On ch=1 n=a3 v=0
39280 On ch=1 n=f3 v=112
39280 On ch=2 n=f3 v=112
39280 On ch=4 n=f2 v=112
39340 On ch=4 n=f2 v=0
39340 On ch=2 n=f3 v=0
39340 On ch=1 n=f3 v=0
39380 On ch=1 n=g#3 v=114
39380 On ch=2 n=g#3 v=114
39380 On ch=4 n=g#2 v=114
39440 On ch=4 n=g#2 v=0
39440 On ch=2 n=g#3 v=0
39440 On ch=1 n=g#3 v=0
39480 On ch=1 n=c3 v=115
39480 On ch=2 n=c3 v=115
39480 On ch=3 n=c3 v=115
39480 On ch=4 n=c2 v=115
39480 On ch=5 n=c2 v=115
39720 On ch=5 n=c2 v=0
39720 On ch=4 n=c2 v=0
39720 On ch=3 n=c3 v=0
39720 On ch=2 n=c3 v=0
39720 On ch=1 n=c3 v=0
42360 On ch=1 n=c5 v=120
42360 On ch=1 n=g4 v=118
42360 On ch=1 n=c4 v=116
42360 On ch=2 n=c5 v=120
42360 On ch=2 n=g4 v=118
42360 On ch=2 n=c4 v=116
42360 On ch=3 n=c5 v=120
42360 On ch=3 n=g4 v=118
42360 On ch=3 n=c4 v=116
42360 On ch=4 n=g3 v=118
42360 On ch=4 n=c3 v=116
42360 On ch=5 n=c4 v=120
42360 On ch=5 n=g3 v=118
42360 On ch=5 n=c3 v=116
43320 On ch=5 n=c3 v=0
43320 On ch=5 n=g3 v=0
43320 On ch=5 n=c4 v=0
43320 On ch=4 n=c3 v=0
43320 On ch=4 n=g3 v=0
43320 On ch=3 n=c4 v=0
43320 On ch=3 n=g4 v=0
43320 On ch=3 n=c5 v=0
43320 On ch=2 n=c4 v=0
43320 On ch=2 n=g4 v=0
43320 On ch=2 n=c5 v=0
43320 On ch=1 n=c4 v=0
43320 On ch=1 n=g4 v=0
43320 On ch=1 n=c5 v=0
43320 On ch=1 n=c5 v=120
43320 On ch=1 n=g#4 v=118
43320 On ch=1 n=f4 v=116
43320 On ch=1 n=c4 v=114
43320 On ch=2 n=c5 v=120
43320 On ch=2 n=g#4 v=118
43320 On ch=2 n=f4 v=116
43320 On ch=2 n=c4 v=114
43320 On ch=3 n=c5 v=120
43320 On ch=3 n=g#4 v=118
43320 On ch=3 n=f4 v=116
43320 On ch=3 n=c4 v=114
43320 On ch=4 n=f3 v=116
43320 On ch=4 n=f2 v=116
43320 On ch=5 n=c4 v=120
43320 On ch=5 n=g#3 v=118
43320 On ch=5 n=f3 v=116
43320 On ch=5 n=c3 v=114
45240 On ch=5 n=c3 v=0
45240 On ch=5 n=f3 v=0
45240 On ch=5 n=g#3 v=0
45240 On ch=5 n=c4 v=0
45240 On ch=3 n=c4 v=0
45240 On ch=3 n=f4 v=0
45240 On ch=3 n=g#4 v=0
45240 On ch=3 n=c5 v=0
45240 On ch=2 n=c4 v=0
45240 On ch=2 n=f4 v=0
45240 On ch=2 n=g#4 v=0
45240 On ch=2 n=c5 v=0
45240 On ch=1 n=c4 v=0
45240 On ch=1 n=f4 v=0
45240 On ch=1 n=g#4 v=0
45240 On ch=1 n=c5 v=0
45240 Tempo 1428571
45240 Par ch=1 c=7 v=115
45240 Par ch=2 c=0 v=0
45240 Par ch=2 c=32 v=0
45240 PrCh ch=2 p=50
45240 Par ch=2 c=7 v=115
45240 Par ch=5 c=0 v=0
45240 Par ch=5 c=32 v=0
45240 PrCh ch=5 p=50
45240 Par ch=5 c=7 v=115
45250 On ch=4 n=f2 v=0
45250 On ch=4 n=f3 v=0
47160 On ch=1 n=b4 v=115
47160 On ch=2 n=b4 v=115
47160 On ch=3 n=g#4 v=110
47160 On ch=3 n=e4 v=108
47160 On ch=4 n=e3 v=112
47160 On ch=5 n=e4 v=112
47320 On ch=3 n=e4 v=0
47320 On ch=3 n=g#4 v=0
47320 On ch=3 n=b3 v=110
47480 On ch=3 n=b3 v=0
47480 On ch=3 n=g#4 v=110
47480 On ch=3 n=e4 v=108
47640 On ch=3 n=e4 v=0
47640 On ch=3 n=g#4 v=0
47640 On ch=5 n=e4 v=0
47640 On ch=4 n=e3 v=0
47640 On ch=2 n=b4 v=0
47640 On ch=1 n=b4 v=0
47640 On ch=1 n=b4 v=115
47640 On ch=2 n=b4 v=115
47640 On ch=3 n=f#4 v=110
47640 On ch=3 n=d#4 v=108
47640 On ch=4 n=b2 v=110
47640 On ch=5 n=b3 v=110
47800 On ch=3 n=d#4 v=0
47800 On ch=3 n=f#4 v=0
47800 On ch=3 n=b3 v=110
47960 On ch=3 n=b3 v=0
47960 On ch=3 n=f#4 v=110
47960 On ch=3 n=d#4 v=108
48000 On ch=2 n=b4 v=0
48000 On ch=1 n=b4 v=0
48000 On ch=1 n=b4 v=115
48000 On ch=2 n=b4 v=115
48100 On ch=2 n=b4 v=0
48100 On ch=1 n=b4 v=0
48120 On ch=3 n=d#4 v=0
48120 On ch=3 n=f#4 v=0
48120 On ch=5 n=b3 v=0
48120 On ch=4 n=b2 v=0
48120 On ch=1 n=b4 v=116
48120 On ch=2 n=b4 v=116
48120 On ch=3 n=g#4 v=110
48120 On ch=3 n=e4 v=108
48120 On ch=4 n=e3 v=112
48120 On ch=5 n=e4 v=112
48280 On ch=3 n=e4 v=0
48280 On ch=3 n=g#4 v=0
48280 On ch=3 n=b3 v=110
48440 On ch=3 n=b3 v=0
48440 On ch=3 n=g#4 v=110
48440 On ch=3 n=e4 v=108
48600 On ch=3 n=e4 v=0
48600 On ch=3 n=g#4 v=0
48600 On ch=5 n=e4 v=0
48600 On ch=4 n=e3 v=0
48600 On ch=2 n=b4 v=0
48600 On ch=1 n=b4 v=0
48600 On ch=1 n=c#5 v=117
48600 On ch=2 n=c#5 v=117
48600 On ch=3 n=a4 v=110
48600 On ch=3 n=e4 v=108
48600 On ch=4 n=a3 v=114
48600 On ch=5 n=a4 v=114
48760 On ch=3 n=e4 v=0
48760 On ch=3 n=a4 v=0
48760 On ch=3 n=c#4 v=110
48920 On ch=3 n=c#4 v=0
48920 On ch=3 n=a4 v=110
48920 On ch=3 n=e4 v=108
49020 On ch=5 n=a4 v=0
49020 On ch=4 n=a3 v=0
49020 On ch=4 n=g#3 v=113
49020 On ch=5 n=g#4 v=113
49080 On ch=5 n=g#4 v=0
49080 On ch=4 n=g#3 v=0
49080 On ch=3 n=e4 v=0
49080 On ch=3 n=a4 v=0
49080 On ch=2 n=c#5 v=0
49080 On ch=1 n=c#5 v=0
49080 On ch=1 n=c#5 v=117
49080 On ch=2 n=c#5 v=117
49080 On ch=3 n=a4 v=110
49080 On ch=3 n=f#4 v=108
49080 On ch=4 n=f#3 v=114
49080 On ch=5 n=f#4 v=114
49240 On ch=3 n=f#4 v=0
49240 On ch=3 n=a4 v=0
49240 On ch=3 n=c#4 v=110
49400 On ch=3 n=c#4 v=0
49400 On ch=3 n=a4 v=110
49400 On ch=3 n=f#4 v=108
49560 On ch=3 n=f#4 v=0
49560 On ch=3 n=a4 v=0
49560 On ch=2 n=c#5 v=0
49560 On ch=1 n=c#5 v=0
49560 On ch=1 n=d#5 v=118
49560 On ch=2 n=d#5 v=118
49560 On ch=3 n=a4 v=110
49560 On ch=3 n=f#4 v=108
49720 On ch=3 n=f#4 v=0
49720 On ch=3 n=a4 v=0
49720 On ch=3 n=c#4 v=110
49880 On ch=3 n=c#4 v=0
49880 On ch=3 n=a4 v=110
49880 On ch=3 n=f#4 v=108
49920 On ch=2 n=d#5 v=0
49920 On ch=1 n=d#5 v=0
49920 On ch=1 n=d#5 v=118
49920 On ch=2 n=d#5 v=118
50020 On ch=2 n=d#5 v=0
50020 On ch=1 n=d#5 v=0
50040 On ch=3 n=f#4 v=0
50040 On ch=3 n=a4 v=0
50040 On ch=5 n=f#4 v=0
50040 On ch=4 n=f#3 v=0
50040 On ch=1 n=d#5 v=118
50040 On ch=2 n=d#5 v=118
50040 On ch=3 n=b4 v=110
50040 On ch=3 n=f#4 v=108
50040 On ch=4 n=b2 v=112
50040 On ch=5 n=b3 v=112
50200 On ch=3 n=f#4 v=0
50200 On ch=3 n=b4 v=0
50200 On ch=3 n=d#4 v=110
50360 On ch=3 n=d#4 v=0
50360 On ch=3 n=b4 v=110
50360 On ch=3 n=f#4 v=108
50520 On ch=3 n=f#4 v=0
50520 On ch=3 n=b4 v=0
50520 On ch=5 n=b3 v=0
50520 On ch=4 n=b2 v=0
50520 On ch=2 n=d#5 v=0
50520 On ch=1 n=d#5 v=0
50520 On ch=1 n=d#5 v=118
50520 On ch=2 n=d#5 v=118
50520 On ch=3 n=b4 v=110
50520 On ch=3 n=g#4 v=108
50520 On ch=4 n=b3 v=113
50520 On ch=5 n=b4 v=113
50680 On ch=3 n=g#4 v=0
50680 On ch=3 n=b4 v=0
50680 On ch=3 n=d#4 v=110
50840 On ch=3 n=d#4 v=0
50840 On ch=3 n=b4 v=110
50840 On ch=3 n=g#4 v=108
50940 On ch=5 n=b4 v=0
50940 On ch=4 n=b3 v=0
50940 On ch=4 n=b3 v=113
50940 On ch=5 n=b4 v=113
51000 On ch=5 n=b4 v=0
51000 On ch=4 n=b3 v=0
51000 On ch=3 n=g#4 v=0
51000 On ch=3 n=b4 v=0
51000 On ch=2 n=d#5 v=0
51000 On ch=1 n=d#5 v=0
51000 On ch=1 n=e5 v=119
51000 On ch=2 n=e5 v=119
51000 On ch=3 n=b4 v=110
51000 On ch=3 n=g#4 v=108
51000 On ch=4 n=c#3 v=110
51000 On ch=5 n=c#4 v=110
51160 On ch=3 n=g#4 v=0
51160 On ch=3 n=b4 v=0
51160 On ch=3 n=e4 v=110
51320 On ch=3 n=e4 v=0
51320 On ch=3 n=b4 v=110
51320 On ch=3 n=g#4 v=108
51480 On ch=3 n=g#4 v=0
51480 On ch=3 n=b4 v=0
51480 On ch=5 n=c#4 v=0
51480 On ch=4 n=c#3 v=0
51480 On ch=2 n=e5 v=0
51480 On ch=1 n=e5 v=0
51480 On ch=1 n=e5 v=119
51480 On ch=2 n=e5 v=119
51480 On ch=3 n=c#5 v=110
51480 On ch=3 n=f#4 v=108
51480 On ch=4 n=a3 v=112
51480 On ch=5 n=a4 v=112
51640 On ch=3 n=f#4 v=0
51640 On ch=3 n=c#5 v=0
51640 On ch=3 n=e4 v=110
51800 On ch=3 n=e4 v=0
51800 On ch=3 n=c#5 v=110
51800 On ch=3 n=f#4 v=108
51840 On ch=2 n=e5 v=0
51840 On ch=1 n=e5 v=0
51840 On ch=1 n=e5 v=119
51840 On ch=2 n=e5 v=119
51900 On ch=5 n=a4 v=0
51900 On ch=4 n=a3 v=0
51900 On ch=4 n=a3 v=112
51900 On ch=5 n=a4 v=112
51940 On ch=2 n=e5 v=0
51940 On ch=1 n=e5 v=0
51960 On ch=5 n=a4 v=0
51960 On ch=4 n=a3 v=0
51960 On ch=3 n=f#4 v=0
51960 On ch=3 n=c#5 v=0
51960 On ch=1 n=e5 v=119
51960 On ch=2 n=e5 v=119
51960 On ch=3 n=b4 v=110
51960 On ch=3 n=f#4 v=108
51960 On ch=4 n=b2 v=110
51960 On ch=5 n=b3 v=110
52120 On ch=3 n=f#4 v=0
52120 On ch=3 n=b4 v=0
52120 On ch=3 n=e4 v=110
52280 On ch=3 n=e4 v=0
52280 On ch=3 n=b4 v=110
52280 On ch=3 n=f#4 v=108
52440 On ch=3 n=f#4 v=0
52440 On ch=3 n=b4 v=0
52440 On ch=5 n=b3 v=0
52440 On ch=4 n=b2 v=0
52440 On ch=2 n=e5 v=0
52440 On ch=1 n=e5 v=0
52440 On ch=1 n=d#5 v=117
52440 On ch=2 n=d#5 v=117
52440 On ch=3 n=b4 v=110
52440 On ch=3 n=f#4 v=108
52440 On ch=4 n=a#3 v=108
52440 On ch=5 n=a#4 v=108
52470 On ch=5 n=a#4 v=0
52470 On ch=4 n=a#3 v=0
52470 On ch=4 n=b3 v=109
52470 On ch=5 n=b4 v=109
52500 On ch=5 n=b4 v=0
52500 On ch=4 n=b3 v=0
52500 On ch=4 n=c#4 v=110
52500 On ch=5 n=c#5 v=110
52530 On ch=5 n=c#5 v=0
52530 On ch=4 n=c#4 v=0
52530 On ch=4 n=b3 v=108
52530 On ch=5 n=b4 v=108
52550 On ch=5 n=b4 v=0
52550 On ch=4 n=b3 v=0
52550 On ch=4 n=c#4 v=110
52550 On ch=5 n=c#5 v=110
52570 On ch=5 n=c#5 v=0
52570 On ch=4 n=c#4 v=0
52580 On ch=4 n=b3 v=108
52580 On ch=5 n=b4 v=108
52600 On ch=5 n=b4 v=0
52600 On ch=4 n=b3 v=0
52600 On ch=3 n=f#4 v=0
52600 On ch=3 n=b4 v=0
52600 On ch=3 n=d#4 v=110
52600 On ch=4 n=c#4 v=110
52600 On ch=5 n=c#5 v=110
52620 On ch=5 n=c#5 v=0
52620 On ch=4 n=c#4 v=0
52630 On ch=4 n=b3 v=108
52630 On ch=5 n=b4 v=108
52650 On ch=5 n=b4 v=0
52650 On ch=4 n=b3 v=0
52660 On ch=4 n=c#4 v=110
52660 On ch=5 n=c#5 v=110
52680 On ch=5 n=c#5 v=0
52680 On ch=4 n=c#4 v=0
52690 On ch=4 n=b3 v=108
52690 On ch=5 n=b4 v=108
52710 On ch=5 n=b4 v=0
52710 On ch=4 n=b3 v=0
52720 On ch=4 n=c#4 v=110
52720 On ch=5 n=c#5 v=110
52740 On ch=5 n=c#5 v=0
52740 On ch=4 n=c#4 v=0
52750 On ch=4 n=b3 v=108
52750 On ch=5 n=b4 v=108
52760 On ch=3 n=d#4 v=0
52760 On ch=3 n=b4 v=110
52760 On ch=3 n=f#4 v=108
52770 On ch=5 n=b4 v=0
52770 On ch=4 n=b3 v=0
52770 On ch=4 n=c#4 v=110
52770 On ch=5 n=c#5 v=110
52790 On ch=5 n=c#5 v=0
52790 On ch=4 n=c#4 v=0
52800 On ch=2 n=d#5 v=0
52800 On ch=1 n=d#5 v=0
52800 On ch=1 n=d#5 v=117
52800 On ch=2 n=d#5 v=117
52800 On ch=4 n=b3 v=108
52800 On ch=5 n=b4 v=108
52820 On ch=5 n=b4 v=0
52820 On ch=4 n=b3 v=0
52820 On ch=4 n=c#4 v=110
52820 On ch=5 n=c#5 v=110
52840 On ch=5 n=c#5 v=0
52840 On ch=4 n=c#4 v=0
52850 On ch=4 n=b3 v=108
52850 On ch=5 n=b4 v=108
52870 On ch=5 n=b4 v=0
52870 On ch=4 n=b3 v=0
52870 On ch=4 n=a#3 v=109
52870 On ch=5 n=a#4 v=109
52890 On ch=5 n=a#4 v=0
52890 On ch=4 n=a#3 v=0
52900 On ch=4 n=b3 v=110
52900 On ch=5 n=b4 v=110
52920 On ch=5 n=b4 v=0
52920 On ch=4 n=b3 v=0
52920 On ch=2 n=d#5 v=0
52920 On ch=1 n=d#5 v=0
52920 On ch=3 n=f#4 v=0
52920 On ch=3 n=b4 v=0
52920 On ch=1 n=d#5 v=116
52920 On ch=2 n=d#5 v=116
52920 On ch=3 n=b4 v=110
52920 On ch=3 n=g#4 v=108
52920 On ch=4 n=c#3 v=112
52920 On ch=5 n=c#4 v=112
53080 On ch=3 n=g#4 v=0
53080 On ch=3 n=b4 v=0
53080 On ch=3 n=e4 v=110
53240 On ch=3 n=e4 v=0
53240 On ch=3 n=b4 v=110
53240 On ch=3 n=g#4 v=108
53400 On ch=3 n=g#4 v=0
53400 On ch=3 n=b4 v=0
53400 On ch=5 n=c#4 v=0
53400 On ch=4 n=c#3 v=0
53400 On ch=2 n=d#5 v=0
53400 On ch=1 n=d#5 v=0
53400 On ch=1 n=d#5 v=117
53400 On ch=2 n=d#5 v=117
53400 On ch=3 n=a#4 v=110
53400 On ch=3 n=f#4 v=108
53400 On ch=4 n=f#3 v=110
53400 On ch=5 n=f#4 v=110
53560 On ch=3 n=f#4 v=0
53560 On ch=3 n=a#4 v=0
53560 On ch=3 n=e4 v=110
53720 On ch=3 n=e4 v=0
53720 On ch=3 n=a#4 v=110
53720 On ch=3 n=f#4 v=108
53760 On ch=2 n=d#5 v=0
53760 On ch=1 n=d#5 v=0
53760 On ch=1 n=c#5 v=116
53760 On ch=2 n=c#5 v=116
53820 On ch=5 n=f#4 v=0
53820 On ch=4 n=f#3 v=0
53820 On ch=4 n=f#3 v=110
53820 On ch=5 n=f#4 v=110
53860 On ch=2 n=c#5 v=0
53860 On ch=1 n=c#5 v=0
53880 On ch=5 n=f#4 v=0
53880 On ch=4 n=f#3 v=0
53880 On ch=3 n=f#4 v=0
53880 On ch=3 n=a#4 v=0
53880 On ch=1 n=c#5 v=116
53880 On ch=2 n=c#5 v=116
53880 On ch=3 n=a4 v=110
53880 On ch=3 n=f#4 v=108
53880 On ch=4 n=d#3 v=111
53880 On ch=5 n=d#4 v=111
54040 On ch=3 n=f#4 v=0
54040 On ch=3 n=a4 v=0
54040 On ch=3 n=c#4 v=110
54200 On ch=3 n=c#4 v=0
54200 On ch=3 n=a4 v=110
54200 On ch=3 n=f#4 v=108
54360 On ch=3 n=f#4 v=0
54360 On ch=3 n=a4 v=0
54360 On ch=5 n=d#4 v=0
54360 On ch=4 n=d#3 v=0
54360 On ch=2 n=c#5 v=0
54360 On ch=1 n=c#5 v=0
54360 On ch=1 n=c#5 v=116
54360 On ch=2 n=c#5 v=116
54360 On ch=3 n=a4 v=110
54360 On ch=3 n=f#4 v=108
54360 On ch=4 n=d3 v=111
54360 On ch=5 n=d4 v=111
54390 On ch=5 n=d4 v=0
54390 On ch=4 n=d3 v=0
54390 On ch=4 n=d#3 v=111
54390 On ch=5 n=d#4 v=111
54420 On ch=5 n=d#4 v=0
54420 On ch=4 n=d#3 v=0
54420 On ch=4 n=e3 v=111
54420 On ch=5 n=e4 v=111
54450 On ch=5 n=e4 v=0
54450 On ch=4 n=e3 v=0
54450 On ch=4 n=d#3 v=111
54450 On ch=5 n=d#4 v=111
54480 On ch=5 n=d#4 v=0
54480 On ch=4 n=d#3 v=0
54480 On ch=4 n=e3 v=111
54480 On ch=5 n=e4 v=111
54510 On ch=5 n=e4 v=0
54510 On ch=4 n=e3 v=0
54510 On ch=4 n=d#3 v=111
54510 On ch=5 n=d#4 v=111
54520 On ch=3 n=f#4 v=0
54520 On ch=3 n=a4 v=0
54520 On ch=3 n=b3 v=110
54540 On ch=5 n=d#4 v=0
54540 On ch=4 n=d#3 v=0
54540 On ch=4 n=e3 v=111
54540 On ch=5 n=e4 v=111
54570 On ch=5 n=e4 v=0
54570 On ch=4 n=e3 v=0
54570 On ch=4 n=d#3 v=111
54570 On ch=5 n=d#4 v=111
54600 On ch=5 n=d#4 v=0
54600 On ch=4 n=d#3 v=0
54600 On ch=4 n=e3 v=111
54600 On ch=5 n=e4 v=111
54630 On ch=5 n=e4 v=0
54630 On ch=4 n=e3 v=0
54630 On ch=4 n=d#3 v=111
54630 On ch=5 n=d#4 v=111
54660 On ch=5 n=d#4 v=0
54660 On ch=4 n=d#3 v=0
54660 On ch=4 n=e3 v=111
54660 On ch=5 n=e4 v=111
54680 On ch=3 n=b3 v=0
54680 On ch=3 n=a4 v=110
54680 On ch=3 n=f#4 v=108
54690 On ch=5 n=e4 v=0
54690 On ch=4 n=e3 v=0
54690 On ch=4 n=d#3 v=111
54690 On ch=5 n=d#4 v=111
54720 On ch=5 n=d#4 v=0
54720 On ch=4 n=d#3 v=0
54720 On ch=2 n=c#5 v=0
54720 On ch=1 n=c#5 v=0
54720 On ch=1 n=b4 v=115
54720 On ch=2 n=b4 v=115
54720 On ch=4 n=c#3 v=111
54720 On ch=5 n=c#4 v=111
54750 On ch=5 n=c#4 v=0
54750 On ch=4 n=c#3 v=0
54750 On ch=4 n=d#3 v=111
54750 On ch=5 n=d#4 v=111
54780 On ch=5 n=d#4 v=0
54780 On ch=4 n=d#3 v=0
54780 On ch=4 n=e3 v=111
54780 On ch=5 n=e4 v=111
54810 On ch=5 n=e4 v=0
54810 On ch=4 n=e3 v=0
54810 On ch=4 n=f#3 v=111
54810 On ch=5 n=f#4 v=111
54840 On ch=5 n=f#4 v=0
54840 On ch=4 n=f#3 v=0
54840 On ch=2 n=b4 v=0
54840 On ch=1 n=b4 v=0
54840 On ch=3 n=f#4 v=0
54840 On ch=3 n=a4 v=0
54840 On ch=1 n=b4 v=115
54840 On ch=2 n=b4 v=115
54840 On ch=3 n=g#4 v=110
54840 On ch=3 n=e4 v=108
54840 On ch=4 n=e3 v=112
54840 On ch=5 n=e4 v=112
55000 On ch=3 n=e4 v=0
55000 On ch=3 n=g#4 v=0
55000 On ch=3 n=b3 v=110
55160 On ch=3 n=b3 v=0
55160 On ch=3 n=g#4 v=110
55160 On ch=3 n=e4 v=108
55320 On ch=3 n=e4 v=0
55320 On ch=3 n=g#4 v=0
55320 On ch=5 n=e4 v=0
55320 On ch=4 n=e3 v=0
55320 On ch=2 n=b4 v=0
55320 On ch=1 n=b4 v=0
55320 On ch=1 n=b4 v=115
55320 On ch=2 n=b4 v=115
55320 On ch=3 n=f#4 v=110
55320 On ch=3 n=d#4 v=108
55320 On ch=4 n=b2 v=111
55320 On ch=5 n=b3 v=111
55480 On ch=3 n=d#4 v=0
55480 On ch=3 n=f#4 v=0
55480 On ch=3 n=b3 v=110
55640 On ch=3 n=b3 v=0
55640 On ch=3 n=f#4 v=110
55640 On ch=3 n=d#4 v=108
55680 On ch=2 n=b4 v=0
55680 On ch=1 n=b4 v=0
55680 On ch=1 n=b4 v=115
55680 On ch=2 n=b4 v=115
55780 On ch=2 n=b4 v=0
55780 On ch=1 n=b4 v=0
55800 On ch=3 n=d#4 v=0
55800 On ch=3 n=f#4 v=0
55800 On ch=5 n=b3 v=0
55800 On ch=4 n=b2 v=0
55800 On ch=1 n=b4 v=115
55800 On ch=2 n=b4 v=115
55800 On ch=3 n=g4 v=110
55800 On ch=3 n=d4 v=108
55800 On ch=4 n=g2 v=110
55800 On ch=5 n=g3 v=110
55960 On ch=3 n=d4 v=0
55960 On ch=3 n=g4 v=0
55960 On ch=3 n=b3 v=110
56120 On ch=3 n=b3 v=0
56120 On ch=3 n=g4 v=110
56120 On ch=3 n=d4 v=108
56280 On ch=3 n=d4 v=0
56280 On ch=3 n=g4 v=0
56280 On ch=5 n=g3 v=0
56280 On ch=4 n=g2 v=0
56280 On ch=2 n=b4 v=0
56280 On ch=1 n=b4 v=0
56280 On ch=1 n=b4 v=115
56280 On ch=2 n=b4 v=115
56280 On ch=3 n=g4 v=110
56280 On ch=3 n=d4 v=108
56280 On ch=4 n=g3 v=114
56280 On ch=5 n=g4 v=114
56440 On ch=3 n=d4 v=0
56440 On ch=3 n=g4 v=0
56440 On ch=3 n=b3 v=110
56600 On ch=3 n=b3 v=0
56600 On ch=3 n=g4 v=110
56600 On ch=3 n=d4 v=108
56640 On ch=2 n=b4 v=0
56640 On ch=1 n=b4 v=0
56640 On ch=1 n=b4 v=115
56640 On ch=2 n=b4 v=115
56700 On ch=5 n=g4 v=0
56700 On ch=4 n=g3 v=0
56700 On ch=4 n=f3 v=113
56700 On ch=5 n=f4 v=113
56760 On ch=5 n=f4 v=0
56760 On ch=4 n=f3 v=0
56760 On ch=2 n=b4 v=0
56760 On ch=1 n=b4 v=0
56760 On ch=3 n=d4 v=0
56760 On ch=3 n=g4 v=0
56760 On ch=1 n=c5 v=116
56760 On ch=2 n=c5 v=116
56760 On ch=3 n=g4 v=108
56760 On ch=4 n=e3 v=113
56760 On ch=5 n=e4 v=113
56920 On ch=3 n=g4 v=0
56920 On ch=3 n=c4 v=110
57080 On ch=3 n=c4 v=0
57080 On ch=3 n=g4 v=108
57240 On ch=3 n=g4 v=0
57240 On ch=5 n=e4 v=0
57240 On ch=4 n=e3 v=0
57240 On ch=2 n=c5 v=0
57240 On ch=1 n=c5 v=0
57240 On ch=1 n=d5 v=117
57240 On ch=2 n=d5 v=117
57240 On ch=3 n=a#4 v=110
57240 On ch=3 n=g4 v=108
57240 On ch=4 n=d3 v=112
57240 On ch=5 n=d4 v=112
57400 On ch=3 n=g4 v=0
57400 On ch=3 n=a#4 v=0
57400 On ch=3 n=d4 v=110
57560 On ch=3 n=d4 v=0
57560 On ch=3 n=a#4 v=110
57560 On ch=3 n=g4 v=108
57720 On ch=3 n=g4 v=0
57720 On ch=3 n=a#4 v=0
57720 On ch=5 n=d4 v=0
57720 On ch=4 n=d3 v=0
57720 On ch=2 n=d5 v=0
57720 On ch=1 n=d5 v=0
57720 On ch=1 n=e5 v=118
57720 On ch=2 n=e5 v=118
57720 On ch=3 n=a#4 v=110
57720 On ch=3 n=g4 v=108
57720 On ch=4 n=c3 v=110
57720 On ch=5 n=c4 v=110
57880 On ch=3 n=g4 v=0
57880 On ch=3 n=a#4 v=0
57880 On ch=3 n=e4 v=110
58040 On ch=3 n=e4 v=0
58040 On ch=3 n=a#4 v=110
58040 On ch=3 n=g4 v=108
58200 On ch=3 n=g4 v=0
58200 On ch=3 n=a#4 v=0
58200 On ch=5 n=c4 v=0
58200 On ch=4 n=c3 v=0
58200 On ch=2 n=e5 v=0
58200 On ch=1 n=e5 v=0
58200 On ch=1 n=e5 v=118
58200 On ch=2 n=e5 v=118
58200 On ch=3 n=c5 v=110
58200 On ch=3 n=g4 v=108
58200 On ch=4 n=c4 v=112
58200 On ch=4 n=c3 v=110
58200 On ch=5 n=c5 v=112
58200 On ch=5 n=c4 v=110
58360 On ch=3 n=g4 v=0
58360 On ch=3 n=c5 v=0
58360 On ch=3 n=e4 v=110
58520 On ch=3 n=e4 v=0
58520 On ch=3 n=c5 v=110
58520 On ch=3 n=g4 v=108
58560 On ch=2 n=e5 v=0
58560 On ch=1 n=e5 v=0
58560 On ch=1 n=e5 v=118
58560 On ch=2 n=e5 v=118
58620 On ch=5 n=c4 v=0
58620 On ch=5 n=c5 v=0
58620 On ch=4 n=c3 v=0
58620 On ch=4 n=c4 v=0
58620 On ch=4 n=c4 v=114
58620 On ch=4 n=c3 v=112
58620 On ch=5 n=c5 v=114
58620 On ch=5 n=c4 v=112
58680 On ch=5 n=c4 v=0
58680 On ch=5 n=c5 v=0
58680 On ch=4 n=c3 v=0
58680 On ch=4 n=c4 v=0
58680 On ch=2 n=e5 v=0
58680 On ch=1 n=e5 v=0
58680 On ch=3 n=g4 v=0
58680 On ch=3 n=c5 v=0
58680 On ch=1 n=e5 v=118
58680 On ch=2 n=e5 v=118
58680 On ch=3 n=c#5 v=108
58680 On ch=3 n=a4 v=110
58680 On ch=4 n=a3 v=114
58680 On ch=4 n=a2 v=112
58680 On ch=5 n=a4 v=114
58680 On ch=5 n=a3 v=112
58840 On ch=3 n=a4 v=0
58840 On ch=3 n=c#5 v=0
58840 On ch=3 n=e4 v=108
59000 On ch=3 n=e4 v=0
59000 On ch=3 n=c#5 v=110
59000 On ch=3 n=a4 v=108
59160 On ch=3 n=a4 v=0
59160 On ch=3 n=c#5 v=0
59160 On ch=5 n=a3 v=0
59160 On ch=5 n=a4 v=0
59160 On ch=4 n=a2 v=0
59160 On ch=4 n=a3 v=0
59160 On ch=2 n=e5 v=0
59160 On ch=1 n=e5 v=0
59160 On ch=1 n=e5 v=118
59160 On ch=2 n=e5 v=118
59160 On ch=3 n=c#5 v=110
59160 On ch=3 n=a#4 v=110
59160 On ch=4 n=g3 v=113
59160 On ch=4 n=g2 v=111
59160 On ch=5 n=g4 v=113
59160 On ch=5 n=g3 v=111
59320 On ch=3 n=a#4 v=0
59320 On ch=3 n=c#5 v=0
59320 On ch=3 n=e4 v=108
59480 On ch=3 n=e4 v=0
59480 On ch=3 n=c#5 v=110
59480 On ch=3 n=a#4 v=108
59520 On ch=2 n=e5 v=0
59520 On ch=1 n=e5 v=0
59520 On ch=1 n=e5 v=118
59520 On ch=2 n=e5 v=118
59580 On ch=5 n=g3 v=0
59580 On ch=5 n=g4 v=0
59580 On ch=4 n=g2 v=0
59580 On ch=4 n=g3 v=0
59580 On ch=4 n=g3 v=113
59580 On ch=4 n=g2 v=111
59580 On ch=5 n=g4 v=113
59580 On ch=5 n=g3 v=111
59640 On ch=5 n=g3 v=0
59640 On ch=5 n=g4 v=0
59640 On ch=4 n=g2 v=0
59640 On ch=4 n=g3 v=0
59640 On ch=2 n=e5 v=0
59640 On ch=1 n=e5 v=0
59640 On ch=3 n=a#4 v=0
59640 On ch=3 n=c#5 v=0
59640 On ch=1 n=f5 v=119
59640 On ch=2 n=f5 v=119
59640 On ch=3 n=c#5 v=110
59640 On ch=3 n=a#4 v=110
59640 On ch=4 n=f3 v=113
59640 On ch=4 n=f2 v=111
59640 On ch=5 n=f4 v=113
59640 On ch=5 n=f3 v=111
59800 On ch=3 n=a#4 v=0
59800 On ch=3 n=c#5 v=0
59800 On ch=3 n=f4 v=108
59960 On ch=3 n=f4 v=0
59960 On ch=3 n=c#5 v=110
59960 On ch=3 n=a#4 v=108
60120 On ch=3 n=a#4 v=0
60120 On ch=3 n=c#5 v=0
60120 On ch=5 n=f3 v=0
60120 On ch=5 n=f4 v=0
60120 On ch=4 n=f2 v=0
60120 On ch=4 n=f3 v=0
60120 On ch=2 n=f5 v=0
60120 On ch=1 n=f5 v=0
60120 On ch=1 n=g5 v=120
60120 On ch=2 n=g5 v=120
60120 On ch=3 n=c#5 v=110
60120 On ch=3 n=a#4 v=108
60120 On ch=4 n=e3 v=113
60120 On ch=4 n=e2 v=111
60120 On ch=5 n=e4 v=113
60120 On ch=5 n=e3 v=111
60280 On ch=3 n=a#4 v=0
60280 On ch=3 n=c#5 v=0
60280 On ch=3 n=g4 v=110
60440 On ch=3 n=g4 v=0
60440 On ch=3 n=c#5 v=110
60440 On ch=3 n=a#4 v=108
60600 On ch=3 n=a#4 v=0
60600 On ch=3 n=c#5 v=0
60600 On ch=5 n=e3 v=0
60600 On ch=5 n=e4 v=0
60600 On ch=4 n=e2 v=0
60600 On ch=4 n=e3 v=0
60600 On ch=2 n=g5 v=0
60600 On ch=1 n=g5 v=0
60600 On ch=1 n=g#5 v=121
60600 On ch=2 n=g#5 v=121
60600 On ch=3 n=c5 v=108
60600 On ch=3 n=g#4 v=110
60600 On ch=4 n=d#3 v=112
60600 On ch=4 n=d#2 v=110
60600 On ch=5 n=d#4 v=112
60600 On ch=5 n=d#3 v=110
60760 On ch=3 n=g#4 v=0
60760 On ch=3 n=c5 v=0
60760 On ch=3 n=d#4 v=108
60840 On ch=2 n=g#5 v=0
60840 On ch=1 n=g#5 v=0
60840 On ch=1 n=d#5 v=120
60840 On ch=2 n=d#5 v=120
60920 On ch=3 n=d#4 v=0
60920 On ch=3 n=c5 v=110
60920 On ch=3 n=g#4 v=108
61080 On ch=3 n=g#4 v=0
61080 On ch=3 n=c5 v=0
61080 On ch=2 n=d#5 v=0
61080 On ch=1 n=d#5 v=0
61080 On ch=1 n=d#5 v=120
61080 On ch=2 n=d#5 v=120
61080 On ch=3 n=c5 v=110
61080 On ch=3 n=g4 v=110
61240 On ch=3 n=g4 v=0
61240 On ch=3 n=c5 v=0
61240 On ch=3 n=d#4 v=108
61400 On ch=3 n=d#4 v=0
61400 On ch=3 n=a#4 v=110
61400 On ch=3 n=g4 v=108
61440 On ch=2 n=d#5 v=0
61440 On ch=1 n=d#5 v=0
61440 On ch=1 n=c#5 v=117
61440 On ch=2 n=c#5 v=117
61560 On ch=2 n=c#5 v=0
61560 On ch=1 n=c#5 v=0
61560 On ch=3 n=g4 v=0
61560 On ch=3 n=a#4 v=0
61560 On ch=5 n=d#3 v=0
61560 On ch=5 n=d#4 v=0
61560 On ch=4 n=d#2 v=0
61560 On ch=4 n=d#3 v=0
61560 On ch=1 n=c5 v=117
61560 On ch=2 n=c5 v=117
61560 On ch=3 n=g#4 v=110
61560 On ch=4 n=g#2 v=110
61560 On ch=5 n=g#3 v=110
61720 On ch=3 n=g#4 v=0
61720 On ch=3 n=d#4 v=108
61880 On ch=3 n=d#4 v=0
61880 On ch=3 n=g#4 v=108
61920 On ch=2 n=c5 v=0
61920 On ch=1 n=c5 v=0
61920 On ch=1 n=b4 v=116
61920 On ch=2 n=b4 v=116
62040 On ch=2 n=b4 v=0
62040 On ch=1 n=b4 v=0
62040 On ch=3 n=g#4 v=0
62040 On ch=5 n=g#3 v=0
62040 On ch=4 n=g#2 v=0
62040 On ch=1 n=b4 v=116
62040 On ch=2 n=b4 v=116
62040 On ch=3 n=g#4 v=110
62040 On ch=3 n=d#4 v=108
62040 On ch=4 n=b2 v=112
62040 On ch=5 n=b3 v=112
62200 On ch=3 n=d#4 v=0
62200 On ch=3 n=g#4 v=0
62200 On ch=3 n=b3 v=110
62360 On ch=3 n=b3 v=0
62360 On ch=3 n=a4 v=110
62360 On ch=3 n=d#4 v=108
62400 On ch=2 n=b4 v=0
62400 On ch=1 n=b4 v=0
62400 On ch=1 n=b4 v=115
62400 On ch=2 n=b4 v=115
62520 On ch=2 n=b4 v=0
62520 On ch=1 n=b4 v=0
62520 On ch=3 n=d#4 v=0
62520 On ch=3 n=a4 v=0
62520 On ch=5 n=b3 v=0
62520 On ch=4 n=b2 v=0
62520 On ch=1 n=b4 v=115
62520 On ch=2 n=b4 v=115
62520 On ch=3 n=g#4 v=108
62520 On ch=3 n=e4 v=110
62520 On ch=4 n=e3 v=112
62520 On ch=4 n=e2 v=110
62520 On ch=5 n=e4 v=112
62520 On ch=5 n=e3 v=110
62680 On ch=3 n=e4 v=0
62680 On ch=3 n=g#4 v=0
62680 On ch=3 n=b3 v=108
62840 On ch=3 n=b3 v=0
62840 On ch=3 n=g#4 v=110
62840 On ch=3 n=e4 v=108
63000 On ch=3 n=e4 v=0
63000 On ch=3 n=g#4 v=0
63000 On ch=5 n=e3 v=0
63000 On ch=5 n=e4 v=0
63000 On ch=4 n=e2 v=0
63000 On ch=4 n=e3 v=0
63000 On ch=2 n=b4 v=0
63000 On ch=1 n=b4 v=0
63000 On ch=1 n=b4 v=115
63000 On ch=2 n=b4 v=115
63000 On ch=3 n=f#4 v=110
63000 On ch=3 n=d#4 v=110
63000 On ch=4 n=b2 v=110
63000 On ch=5 n=b3 v=110
63160 On ch=3 n=d#4 v=0
63160 On ch=3 n=f#4 v=0
63160 On ch=3 n=b3 v=108
63320 On ch=3 n=b3 v=0
63320 On ch=3 n=f#4 v=110
63320 On ch=3 n=d#4 v=108
63420 On ch=2 n=b4 v=0
63420 On ch=1 n=b4 v=0
63420 On ch=1 n=b4 v=115
63420 On ch=2 n=b4 v=115
63480 On ch=2 n=b4 v=0
63480 On ch=1 n=b4 v=0
63480 On ch=3 n=d#4 v=0
63480 On ch=3 n=f#4 v=0
63480 On ch=5 n=b3 v=0
63480 On ch=4 n=b2 v=0
63480 On ch=1 n=b4 v=115
63480 On ch=2 n=b4 v=115
63480 On ch=3 n=g#4 v=110
63480 On ch=3 n=e4 v=110
63480 On ch=4 n=e3 v=112
63480 On ch=5 n=e4 v=112
63640 On ch=3 n=e4 v=0
63640 On ch=3 n=g#4 v=0
63640 On ch=3 n=b3 v=108
63800 On ch=3 n=b3 v=0
63800 On ch=3 n=g#4 v=110
63800 On ch=3 n=e4 v=108
63960 On ch=3 n=e4 v=0
63960 On ch=3 n=g#4 v=0
63960 On ch=5 n=e4 v=0
63960 On ch=4 n=e3 v=0
63960 On ch=2 n=b4 v=0
63960 On ch=1 n=b4 v=0
63960 On ch=1 n=c5 v=116
63960 On ch=2 n=c5 v=116
63960 On ch=3 n=a4 v=110
63960 On ch=3 n=e4 v=108
63960 On ch=4 n=a3 v=113
63960 On ch=4 n=a2 v=111
63960 On ch=5 n=a4 v=113
63960 On ch=5 n=a3 v=111
64120 On ch=3 n=e4 v=0
64120 On ch=3 n=a4 v=0
64120 On ch=3 n=c4 v=110
64280 On ch=3 n=c4 v=0
64280 On ch=3 n=a4 v=110
64280 On ch=3 n=e4 v=108
64380 On ch=5 n=a3 v=0
64380 On ch=5 n=a4 v=0
64380 On ch=4 n=a2 v=0
64380 On ch=4 n=a3 v=0
64380 On ch=4 n=a3 v=113
64380 On ch=4 n=a2 v=111
64380 On ch=5 n=a4 v=113
64380 On ch=5 n=a3 v=111
64440 On ch=5 n=a3 v=0
64440 On ch=5 n=a4 v=0
64440 On ch=4 n=a2 v=0
64440 On ch=4 n=a3 v=0
64440 On ch=3 n=e4 v=0
64440 On ch=3 n=a4 v=0
64440 On ch=2 n=c5 v=0
64440 On ch=1 n=c5 v=0
64440 On ch=1 n=c5 v=116
64440 On ch=2 n=c5 v=116
64440 On ch=3 n=a4 v=108
64440 On ch=3 n=f4 v=110
64440 On ch=4 n=f3 v=112
64440 On ch=4 n=f2 v=110
64440 On ch=5 n=f4 v=112
64440 On ch=5 n=f3 v=110
64600 On ch=3 n=f4 v=0
64600 On ch=3 n=a4 v=0
64600 On ch=3 n=c4 v=108
64760 On ch=3 n=c4 v=0
64760 On ch=3 n=a4 v=110
64760 On ch=3 n=f4 v=108
64920 On ch=3 n=f4 v=0
64920 On ch=3 n=a4 v=0
64920 On ch=5 n=f3 v=0
64920 On ch=5 n=f4 v=0
64920 On ch=4 n=f2 v=0
64920 On ch=4 n=f3 v=0
64920 On ch=2 n=c5 v=0
64920 On ch=1 n=c5 v=0
64920 On ch=1 n=c5 v=116
64920 On ch=2 n=c5 v=116
64920 On ch=3 n=g4 v=110
64920 On ch=3 n=e4 v=110
64920 On ch=4 n=c3 v=110
64920 On ch=4 n=c2 v=110
64920 On ch=5 n=c4 v=110
64920 On ch=5 n=c3 v=110
65080 On ch=3 n=e4 v=0
65080 On ch=3 n=g4 v=0
65080 On ch=3 n=c4 v=108
65240 On ch=3 n=c4 v=0
65240 On ch=3 n=g4 v=110
65240 On ch=3 n=e4 v=108
65340 On ch=2 n=c5 v=0
65340 On ch=1 n=c5 v=0
65340 On ch=1 n=c5 v=116
65340 On ch=2 n=c5 v=116
65400 On ch=2 n=c5 v=0
65400 On ch=1 n=c5 v=0
65400 On ch=3 n=e4 v=0
65400 On ch=3 n=g4 v=0
65400 On ch=5 n=c3 v=0
65400 On ch=5 n=c4 v=0
65400 On ch=4 n=c2 v=0
65400 On ch=4 n=c3 v=0
65400 On ch=1 n=c5 v=116
65400 On ch=2 n=c5 v=116
65400 On ch=3 n=a4 v=110
65400 On ch=3 n=f4 v=110
65400 On ch=4 n=f3 v=112
65400 On ch=4 n=f2 v=112
65400 On ch=5 n=f4 v=112
65400 On ch=5 n=f3 v=112
65560 On ch=3 n=f4 v=0
65560 On ch=3 n=a4 v=0
65560 On ch=3 n=c4 v=108
65720 On ch=3 n=c4 v=0
65720 On ch=3 n=a4 v=110
65720 On ch=3 n=f4 v=108
65880 On ch=3 n=f4 v=0
65880 On ch=3 n=a4 v=0
65880 On ch=5 n=f3 v=0
65880 On ch=5 n=f4 v=0
65880 On ch=4 n=f2 v=0
65880 On ch=4 n=f3 v=0
65880 On ch=2 n=c5 v=0
65880 On ch=1 n=c5 v=0
65880 On ch=1 n=d5 v=117
65880 On ch=2 n=d5 v=117
65880 On ch=3 n=a#4 v=110
65880 On ch=3 n=f4 v=108
65880 On ch=4 n=a#3 v=113
65880 On ch=4 n=a#2 v=111
65880 On ch=5 n=a#4 v=113
65880 On ch=5 n=a#3 v=111
66040 On ch=3 n=f4 v=0
66040 On ch=3 n=a#4 v=0
66040 On ch=3 n=d4 v=110
66200 On ch=3 n=d4 v=0
66200 On ch=3 n=a#4 v=110
66200 On ch=3 n=f4 v=108
66300 On ch=5 n=a#3 v=0
66300 On ch=5 n=a#4 v=0
66300 On ch=4 n=a#2 v=0
66300 On ch=4 n=a#3 v=0
66300 On ch=2 n=d5 v=0
66300 On ch=1 n=d5 v=0
66300 On ch=1 n=d5 v=117
66300 On ch=2 n=d5 v=117
66300 On ch=4 n=a#3 v=113
66300 On ch=4 n=a#2 v=111
66300 On ch=5 n=a#4 v=113
66300 On ch=5 n=a#3 v=111
66360 On ch=5 n=a#3 v=0
66360 On ch=5 n=a#4 v=0
66360 On ch=4 n=a#2 v=0
66360 On ch=4 n=a#3 v=0
66360 On ch=2 n=d5 v=0
66360 On ch=1 n=d5 v=0
66360 On ch=3 n=f4 v=0
66360 On ch=3 n=a#4 v=0
66360 On ch=1 n=d5 v=117
66360 On ch=2 n=d5 v=117
66360 On ch=3 n=a#4 v=108
66360 On ch=3 n=g4 v=110
66360 On ch=4 n=g3 v=112
66360 On ch=4 n=g2 v=110
66360 On ch=5 n=g4 v=112
66360 On ch=5 n=g3 v=110
66520 On ch=3 n=g4 v=0
66520 On ch=3 n=a#4 v=0
66520 On ch=3 n=d4 v=108
66680 On ch=3 n=d4 v=0
66680 On ch=3 n=a#4 v=110
66680 On ch=3 n=g4 v=108
66840 On ch=3 n=g4 v=0
66840 On ch=3 n=a#4 v=0
66840 On ch=5 n=g3 v=0
66840 On ch=5 n=g4 v=0
66840 On ch=4 n=g2 v=0
66840 On ch=4 n=g3 v=0
66840 On ch=2 n=d5 v=0
66840 On ch=1 n=d5 v=0
66840 On ch=1 n=d5 v=117
66840 On ch=2 n=d5 v=117
66840 On ch=3 n=a4 v=110
66840 On ch=3 n=f#4 v=110
66840 On ch=4 n=d3 v=110
66840 On ch=4 n=d2 v=110
66840 On ch=5 n=d4 v=110
66840 On ch=5 n=d3 v=110
67000 On ch=3 n=f#4 v=0
67000 On ch=3 n=a4 v=0
67000 On ch=3 n=d4 v=108
67160 On ch=3 n=d4 v=0
67160 On ch=3 n=a4 v=110
67160 On ch=3 n=f#4 v=108
67260 On ch=2 n=d5 v=0
67260 On ch=1 n=d5 v=0
67260 On ch=1 n=d5 v=117
67260 On ch=2 n=d5 v=117
67320 On ch=2 n=d5 v=0
67320 On ch=1 n=d5 v=0
67320 On ch=3 n=f#4 v=0
67320 On ch=3 n=a4 v=0
67320 On ch=5 n=d3 v=0
67320 On ch=5 n=d4 v=0
67320 On ch=4 n=d2 v=0
67320 On ch=4 n=d3 v=0
67320 On ch=1 n=d5 v=117
67320 On ch=2 n=d5 v=117
67320 On ch=3 n=b4 v=110
67320 On ch=3 n=g4 v=110
67320 On ch=4 n=g3 v=112
67320 On ch=4 n=g2 v=112
67320 On ch=5 n=g4 v=112
67320 On ch=5 n=g3 v=112
67480 On ch=3 n=g4 v=0
67480 On ch=3 n=b4 v=0
67480 On ch=3 n=d4 v=108
67640 On ch=3 n=d4 v=0
67640 On ch=3 n=b4 v=110
67640 On ch=3 n=g4 v=108
67800 On ch=3 n=g4 v=0
67800 On ch=3 n=b4 v=0
67800 On ch=5 n=g3 v=0
67800 On ch=5 n=g4 v=0
67800 On ch=4 n=g2 v=0
67800 On ch=4 n=g3 v=0
67800 On ch=2 n=d5 v=0
67800 On ch=1 n=d5 v=0
67800 On ch=1 n=d#5 v=118
67800 On ch=2 n=d#5 v=118
67800 On ch=3 n=b4 v=110
67800 On ch=3 n=f#4 v=108
67800 On ch=4 n=b3 v=113
67800 On ch=4 n=b2 v=111
67800 On ch=5 n=b4 v=113
67800 On ch=5 n=b3 v=111
67960 On ch=3 n=f#4 v=0
67960 On ch=3 n=b4 v=0
67960 On ch=3 n=d#4 v=110
68120 On ch=3 n=d#4 v=0
68120 On ch=3 n=b4 v=110
68120 On ch=3 n=f#4 v=108
68220 On ch=5 n=b3 v=0
68220 On ch=5 n=b4 v=0
68220 On ch=4 n=b2 v=0
68220 On ch=4 n=b3 v=0
68220 On ch=2 n=d#5 v=0
68220 On ch=1 n=d#5 v=0
68220 On ch=1 n=e5 v=118
68220 On ch=2 n=e5 v=118
68220 On ch=4 n=b3 v=113
68220 On ch=4 n=b2 v=111
68220 On ch=5 n=b4 v=113
68220 On ch=5 n=b3 v=111
68280 On ch=5 n=b3 v=0
68280 On ch=5 n=b4 v=0
68280 On ch=4 n=b2 v=0
68280 On ch=4 n=b3 v=0
68280 On ch=2 n=e5 v=0
68280 On ch=1 n=e5 v=0
68280 On ch=3 n=f#4 v=0
68280 On ch=3 n=b4 v=0
68280 On ch=1 n=e5 v=118
68280 On ch=2 n=e5 v=118
68280 On ch=3 n=b4 v=108
68280 On ch=3 n=g#4 v=110
68280 On ch=4 n=e3 v=110
68280 On ch=4 n=e2 v=108
68280 On ch=5 n=e4 v=110
68280 On ch=5 n=e3 v=108
68440 On ch=3 n=g#4 v=0
68440 On ch=3 n=b4 v=0
68440 On ch=3 n=e4 v=108
68600 On ch=3 n=e4 v=0
68600 On ch=3 n=b4 v=110
68600 On ch=3 n=g#4 v=108
68760 On ch=3 n=g#4 v=0
68760 On ch=3 n=b4 v=0
68760 On ch=2 n=e5 v=0
68760 On ch=1 n=e5 v=0
68760 On ch=1 n=e5 v=118
68760 On ch=2 n=e5 v=118
68760 On ch=3 n=b4 v=110
68760 On ch=3 n=g#4 v=110
68760 On ch=4 n=b2 v=110
68760 On ch=5 n=b3 v=110
68770 On ch=5 n=e3 v=0
68770 On ch=4 n=e2 v=0
68920 On ch=3 n=g#4 v=0
68920 On ch=3 n=b4 v=0
68920 On ch=3 n=e4 v=108
69080 On ch=3 n=e4 v=0
69080 On ch=3 n=b4 v=110
69080 On ch=3 n=g#4 v=108
69180 On ch=2 n=e5 v=0
69180 On ch=1 n=e5 v=0
69180 On ch=1 n=e5 v=118
69180 On ch=2 n=e5 v=118
69240 On ch=2 n=e5 v=0
69240 On ch=1 n=e5 v=0
69240 On ch=3 n=g#4 v=0
69240 On ch=3 n=b4 v=0
69240 On ch=1 n=e5 v=118
69240 On ch=2 n=e5 v=118
69240 On ch=3 n=e5 v=110
69240 On ch=3 n=b4 v=109
69240 On ch=3 n=g#4 v=108
69240 On ch=3 n=e4 v=107
69240 On ch=4 n=e2 v=108
69240 On ch=5 n=e3 v=108
69250 On ch=5 n=b3 v=0
69250 On ch=4 n=b2 v=0
71160 On ch=5 n=e3 v=0
71160 On ch=4 n=e2 v=0
71160 On ch=3 n=e4 v=0
71160 On ch=3 n=g#4 v=0
71160 On ch=3 n=b4 v=0
71160 On ch=3 n=e5 v=0
71160 On ch=2 n=e5 v=0
71160 On ch=1 n=e5 v=0
71160 On ch=5 n=e4 v=0
71160 On ch=4 n=e3 v=0
71160 Meta TrkEnd
TrkEnd
