MFile 1 10 480
MTrk
0 TimeSig 6/4 36 8
0 Tempo 750000
480 Tempo 666666
960 Tempo 600000
1440 Tempo 666666
1920 Tempo 750000
2400 Tempo 660534
2880 Tempo 750000
3360 Tempo 666666
3840 Tempo 600000
4320 Tempo 666666
4800 Tempo 750000
5280 Tempo 660534
5760 Tempo 750000
5760 Tempo 750000
6240 Tempo 666666
6240 Tempo 666666
6720 Tempo 600000
6720 Tempo 600000
7200 Tempo 666666
7200 Tempo 666666
7680 Tempo 750000
7680 Tempo 750000
8160 Tempo 660534
8160 Tempo 660534
8640 Tempo 750000
9120 Tempo 666666
9600 Tempo 600000
10080 Tempo 666666
10560 Tempo 750000
11040 Tempo 660534
11520 Tempo 750000
11520 Tempo 750000
12000 Tempo 666666
12000 Tempo 666666
12480 Tempo 600000
12480 Tempo 600000
12960 Tempo 666666
12960 Tempo 666666
13440 Tempo 750000
13440 Tempo 750000
13920 Tempo 660534
13920 Tempo 660534
14400 Tempo 750000
14880 Tempo 666666
15360 Tempo 600000
15840 Tempo 666666
16320 Tempo 750000
16800 Tempo 660534
17280 Tempo 750000
17280 Tempo 750000
17760 Tempo 666666
17760 Tempo 666666
18240 Tempo 600000
18240 Tempo 600000
18720 Tempo 666666
18720 Tempo 666666
19200 Tempo 750000
19200 Tempo 750000
19680 Tempo 660534
19680 Tempo 660534
20160 Tempo 750000
20640 Tempo 666666
21120 Tempo 600000
21600 Tempo 666666
22080 Tempo 750000
22560 Tempo 660534
23040 Tempo 750000
23040 Tempo 750000
23520 Tempo 666666
23520 Tempo 666666
24000 Tempo 600000
24000 Tempo 600000
24480 Tempo 666666
24480 Tempo 666666
24960 Tempo 750000
24960 Tempo 750000
25440 Tempo 660534
25440 Tempo 660534
25920 Tempo 750000
26400 Tempo 666666
26880 Tempo 600000
27360 Tempo 666666
27840 Tempo 750000
28320 Tempo 660534
28800 Tempo 750000
28800 Tempo 750000
29280 Tempo 666666
29280 Tempo 666666
29760 Tempo 600000
29760 Tempo 600000
30240 Tempo 666666
30240 Tempo 666666
30720 Tempo 750000
30720 Tempo 750000
31200 Tempo 660534
31200 Tempo 660534
31680 Tempo 750000
32160 Tempo 666666
32640 Tempo 600000
33120 Tempo 666666
33600 Tempo 750000
34080 Tempo 660534
34560 Tempo 750000
34560 Tempo 750000
35040 Tempo 666666
35040 Tempo 666666
35520 Tempo 600000
35520 Tempo 600000
36000 Tempo 666666
36000 Tempo 666666
36480 Tempo 750000
36480 Tempo 750000
36960 Tempo 660534
36960 Tempo 660534
37440 Tempo 750000
37920 Tempo 666666
38400 Tempo 600000
38880 Tempo 666666
39360 Tempo 750000
39840 Tempo 660534
40320 Tempo 750000
40320 Tempo 750000
40800 Tempo 666666
40800 Tempo 666666
41280 Tempo 600000
41280 Tempo 600000
41760 Tempo 666666
41760 Tempo 666666
42240 Tempo 750000
42240 Tempo 750000
42720 Tempo 660534
42720 Tempo 660534
43200 Tempo 750000
43680 Tempo 666666
44160 Tempo 600000
44640 Tempo 666666
45120 Tempo 750000
45600 Tempo 660534
46080 Tempo 750000
46080 Tempo 750000
46560 Tempo 666666
46560 Tempo 666666
47040 Tempo 600000
47040 Tempo 600000
47520 Tempo 666666
47520 Tempo 666666
48000 Tempo 750000
48000 Tempo 750000
48480 Tempo 660534
48480 Tempo 660534
48960 Tempo 750000
49440 Tempo 666666
49920 Tempo 600000
50400 Tempo 666666
50880 Tempo 750000
51360 Tempo 660534
51840 Tempo 750000
51840 Tempo 750000
52320 Tempo 666666
52320 Tempo 666666
52800 Tempo 600000
52800 Tempo 600000
53280 Tempo 666666
53280 Tempo 666666
53760 Tempo 750000
53760 Tempo 750000
54240 Tempo 660534
54240 Tempo 660534
54720 Tempo 750000
55200 Tempo 666666
55680 Tempo 600000
56160 Tempo 666666
56640 Tempo 750000
57120 Tempo 660534
57600 Tempo 923076
58080 Tempo 800000
58560 Tempo 705882
59040 Tempo 800000
59520 Tempo 923076
60000 Tempo 1090909
60480 Tempo 923076
60960 Tempo 800000
61440 Tempo 705882
61920 Tempo 800000
62400 Tempo 923076
62880 Tempo 1090909
63360 Tempo 923076
63840 Tempo 800000
64320 Tempo 705882
64800 Tempo 800000
65280 Tempo 923076
65760 Tempo 1090909
66240 Tempo 923076
66720 Tempo 800000
67200 Tempo 705882
67680 Tempo 800000
68160 Tempo 923076
68640 Tempo 1090909
69120 Tempo 923076
69600 Tempo 800000
70080 Tempo 705882
70560 Tempo 800000
71040 Tempo 923076
71520 Tempo 1090909
72000 Tempo 923076
72480 Tempo 800000
72960 Tempo 705882
73440 Tempo 800000
73920 Tempo 923076
74400 Tempo 1090909
74880 Tempo 923076
75360 Tempo 800000
75840 Tempo 705882
76320 Tempo 800000
76800 Tempo 923076
77280 Tempo 1090909
77760 Tempo 923076
80640 Tempo 750000
80640 Tempo 750000
81120 Tempo 666666
81120 Tempo 666666
81600 Tempo 600000
81600 Tempo 600000
82080 Tempo 666666
82080 Tempo 666666
82560 Tempo 750000
82560 Tempo 750000
83040 Tempo 660534
83040 Tempo 660534
83520 Tempo 750000
83520 Tempo 750000
84000 Tempo 666666
84000 Tempo 666666
84480 Tempo 600000
84480 Tempo 600000
84960 Tempo 666666
84960 Tempo 666666
85440 Tempo 750000
85440 Tempo 750000
85920 Tempo 660534
85920 Tempo 660534
86400 Tempo 750000
86400 Tempo 750000
86880 Tempo 666666
86880 Tempo 666666
87360 Tempo 600000
87360 Tempo 600000
87840 Tempo 666666
87840 Tempo 666666
88320 Tempo 750000
88320 Tempo 750000
88800 Tempo 660534
88800 Tempo 660534
89280 Tempo 750000
89280 Tempo 750000
89760 Tempo 666666
89760 Tempo 666666
90240 Tempo 600000
90240 Tempo 600000
90720 Tempo 666666
90720 Tempo 666666
91200 Tempo 750000
91200 Tempo 750000
91680 Tempo 660534
91680 Tempo 660534
92160 Tempo 750000
92160 Tempo 750000
92640 Tempo 666666
92640 Tempo 666666
93120 Tempo 600000
93120 Tempo 600000
93600 Tempo 666666
93600 Tempo 666666
94080 Tempo 750000
94080 Tempo 750000
94560 Tempo 660534
94560 Tempo 660534
95040 Tempo 750000
95040 Tempo 750000
95520 Tempo 666666
95520 Tempo 666666
96000 Tempo 600000
96000 Tempo 600000
96480 Tempo 666666
96480 Tempo 666666
96960 Tempo 750000
96960 Tempo 750000
97440 Tempo 660534
97440 Tempo 660534
97920 Tempo 750000
97920 Tempo 750000
98400 Tempo 666666
98400 Tempo 666666
98880 Tempo 600000
98880 Tempo 600000
99360 Tempo 666666
99360 Tempo 666666
99840 Tempo 750000
99840 Tempo 750000
100320 Tempo 660534
100320 Tempo 660534
100800 Tempo 750000
100800 Tempo 750000
101280 Tempo 666666
101280 Tempo 666666
101760 Tempo 600000
101760 Tempo 600000
102240 Tempo 666666
102240 Tempo 666666
102720 Tempo 750000
102720 Tempo 750000
103200 Tempo 660534
103200 Tempo 660534
103680 Tempo 923076
104160 Tempo 800000
104640 Tempo 705882
105120 Tempo 800000
105600 Tempo 923076
106080 Tempo 1090909
106560 Tempo 923076
106560 Meta TrkEnd
TrkEnd
MTrk
0 SeqSpec 43 00 01 00
0 Par ch=1 c=0 v=0
0 Meta TrkEnd
TrkEnd
MTrk
0 SeqSpec 43 00 01 00
0 Meta TrkName "Right Hand"
0 Par ch=1 c=0 v=0
0 PrCh ch=1 p=0
0 On ch=1 n=a#5 v=52
0 Par ch=1 c=64 v=119
0 Par ch=1 c=7 v=99
0 Par ch=1 c=10 v=64
0 Par ch=1 c=93 v=0
0 SeqSpec 4a 41 5a 5a 01 00 00 00 00 00 00 00 00 00 00 00 00 00 00 00
0 On ch=1 n=f#5 v=52
0 Par ch=1 c=91 v=40
0 On ch=1 n=c#5 v=52
1285 Par ch=1 c=64 v=105
1290 Par ch=1 c=64 v=91
1295 Par ch=1 c=64 v=76
1300 Par ch=1 c=64 v=62
1305 Par ch=1 c=64 v=48
1310 Par ch=1 c=64 v=33
1315 Par ch=1 c=64 v=19
1320 Par ch=1 c=64 v=4
1330 Par ch=1 c=64 v=3
1340 Par ch=1 c=64 v=2
1350 Par ch=1 c=64 v=1
1360 Par ch=1 c=64 v=0
1440 On ch=1 n=f#5 v=52
1440 On ch=1 n=c#5 v=52
1440 Par ch=1 c=64 v=119
1440 On ch=1 n=a#5 v=52
1445 On ch=1 n=c#5 v=0
1445 On ch=1 n=f#5 v=0
1445 On ch=1 n=a#5 v=0
2725 Par ch=1 c=64 v=105
2730 Par ch=1 c=64 v=91
2735 Par ch=1 c=64 v=76
2740 Par ch=1 c=64 v=62
2745 Par ch=1 c=64 v=48
2750 Par ch=1 c=64 v=33
2755 Par ch=1 c=64 v=19
2760 Par ch=1 c=64 v=4
2770 Par ch=1 c=64 v=3
2780 Par ch=1 c=64 v=2
2790 Par ch=1 c=64 v=1
2800 Par ch=1 c=64 v=0
2880 On ch=1 n=c#5 v=0
2880 Par ch=1 c=64 v=119
2880 On ch=1 n=f#5 v=52
2880 On ch=1 n=a#5 v=52
2885 On ch=1 n=a#5 v=0
2885 On ch=1 n=f#5 v=0
4165 Par ch=1 c=64 v=105
4170 Par ch=1 c=64 v=91
4175 Par ch=1 c=64 v=76
4180 Par ch=1 c=64 v=62
4185 Par ch=1 c=64 v=48
4190 Par ch=1 c=64 v=33
4195 Par ch=1 c=64 v=19
4200 Par ch=1 c=64 v=4
4210 Par ch=1 c=64 v=3
4220 Par ch=1 c=64 v=2
4230 Par ch=1 c=64 v=1
4240 Par ch=1 c=64 v=0
4320 On ch=1 n=a#5 v=0
4320 On ch=1 n=f#5 v=0
4320 On ch=1 n=b5 v=52
4320 Par ch=1 c=64 v=119
4320 On ch=1 n=f5 v=52
5280 On ch=1 n=b5 v=0
5280 On ch=1 n=g#5 v=52
5565 Par ch=1 c=64 v=2
5570 Par ch=1 c=64 v=4
5575 Par ch=1 c=64 v=7
5580 Par ch=1 c=64 v=9
5585 Par ch=1 c=64 v=11
5590 Par ch=1 c=64 v=14
5595 Par ch=1 c=64 v=16
5600 Par ch=1 c=64 v=19
5605 Par ch=1 c=64 v=17
5610 Par ch=1 c=64 v=15
5615 Par ch=1 c=64 v=10
5620 Par ch=1 c=64 v=10
5625 Par ch=1 c=64 v=8
5630 Par ch=1 c=64 v=6
5635 Par ch=1 c=64 v=4
5640 Par ch=1 c=64 v=1
5680 Par ch=1 c=64 v=0
5725 Par ch=1 c=64 v=14
5730 Par ch=1 c=64 v=29
5735 Par ch=1 c=64 v=44
5740 Par ch=1 c=64 v=59
5745 Par ch=1 c=64 v=74
5750 Par ch=1 c=64 v=89
5755 Par ch=1 c=64 v=104
5760 On ch=1 n=g#5 v=0
5760 On ch=1 n=f5 v=0
5760 On ch=1 n=c#5 v=52
5760 On ch=1 n=a#5 v=52
5760 Par ch=1 c=64 v=119
5760 On ch=1 n=f#5 v=52
7005 Par ch=1 c=64 v=107
7010 Par ch=1 c=64 v=94
7015 Par ch=1 c=64 v=82
7020 Par ch=1 c=64 v=69
7025 Par ch=1 c=64 v=57
7030 Par ch=1 c=64 v=44
7035 Par ch=1 c=64 v=32
7040 Par ch=1 c=64 v=19
7045 Par ch=1 c=64 v=17
7050 Par ch=1 c=64 v=15
7055 Par ch=1 c=64 v=10
7060 Par ch=1 c=64 v=10
7065 Par ch=1 c=64 v=8
7070 Par ch=1 c=64 v=6
7075 Par ch=1 c=64 v=4
7080 Par ch=1 c=64 v=1
7120 Par ch=1 c=64 v=0
7165 Par ch=1 c=64 v=14
7170 Par ch=1 c=64 v=29
7175 Par ch=1 c=64 v=44
7180 Par ch=1 c=64 v=59
7185 Par ch=1 c=64 v=74
7190 Par ch=1 c=64 v=89
7195 Par ch=1 c=64 v=104
7200 On ch=1 n=f#5 v=52
7200 On ch=1 n=a#5 v=52
7200 On ch=1 n=c#5 v=52
7200 Par ch=1 c=64 v=119
7205 On ch=1 n=f#5 v=0
7205 On ch=1 n=a#5 v=0
7205 On ch=1 n=c#5 v=0
8160 On ch=1 n=f#5 v=52
8160 On ch=1 n=a#5 v=52
8165 On ch=1 n=a#5 v=0
8165 On ch=1 n=f#5 v=0
8445 Par ch=1 c=64 v=107
8450 Par ch=1 c=64 v=94
8455 Par ch=1 c=64 v=82
8460 Par ch=1 c=64 v=69
8465 Par ch=1 c=64 v=57
8470 Par ch=1 c=64 v=44
8475 Par ch=1 c=64 v=32
8480 Par ch=1 c=64 v=19
8485 Par ch=1 c=64 v=17
8490 Par ch=1 c=64 v=15
8495 Par ch=1 c=64 v=10
8500 Par ch=1 c=64 v=10
8505 Par ch=1 c=64 v=8
8510 Par ch=1 c=64 v=6
8515 Par ch=1 c=64 v=4
8520 Par ch=1 c=64 v=1
8560 Par ch=1 c=64 v=0
8605 Par ch=1 c=64 v=15
8610 Par ch=1 c=64 v=30
8615 Par ch=1 c=64 v=46
8620 Par ch=1 c=64 v=61
8625 Par ch=1 c=64 v=76
8630 Par ch=1 c=64 v=92
8635 Par ch=1 c=64 v=107
8640 Par ch=1 c=64 v=123
8640 On ch=1 n=a#5 v=52
8640 On ch=1 n=f#5 v=52
8645 On ch=1 n=a#5 v=0
8645 On ch=1 n=f#5 v=0
8930 On ch=1 n=f#5 v=0
8930 On ch=1 n=a#5 v=0
8930 On ch=1 n=b5 v=52
8930 On ch=1 n=g#5 v=52
9200 Par ch=1 c=64 v=122
9215 On ch=1 n=g#5 v=0
9215 On ch=1 n=b5 v=0
9215 On ch=1 n=f#5 v=52
9215 On ch=1 n=a#5 v=52
9505 On ch=1 n=a#5 v=0
9505 On ch=1 n=f#5 v=0
9505 On ch=1 n=g#5 v=52
9720 Par ch=1 c=64 v=123
9790 On ch=1 n=g#5 v=0
9790 On ch=1 n=f#5 v=52
9790 On ch=1 n=a#5 v=52
9885 Par ch=1 c=64 v=108
9890 Par ch=1 c=64 v=93
9895 Par ch=1 c=64 v=77
9900 Par ch=1 c=64 v=62
9905 Par ch=1 c=64 v=47
9910 Par ch=1 c=64 v=31
9915 Par ch=1 c=64 v=16
9920 Par ch=1 c=64 v=0
10045 Par ch=1 c=64 v=14
10050 Par ch=1 c=64 v=29
10055 Par ch=1 c=64 v=44
10060 Par ch=1 c=64 v=59
10065 Par ch=1 c=64 v=74
10070 Par ch=1 c=64 v=89
10075 Par ch=1 c=64 v=104
10080 On ch=1 n=f#5 v=0
10080 On ch=1 n=c#5 v=0
10080 On ch=1 n=c#6 v=52
10080 Par ch=1 c=64 v=119
10080 On ch=1 n=a#5 v=52
10080 On ch=1 n=f5 v=52
10085 On ch=1 n=a#5 v=0
10560 On ch=1 n=a#5 v=0
10560 On ch=1 n=c#6 v=0
10560 On ch=1 n=g#5 v=51
10560 On ch=1 n=b5 v=51
11040 On ch=1 n=b5 v=0
11040 On ch=1 n=g#5 v=0
11040 On ch=1 n=f5 v=0
11280 On ch=1 n=c#5 v=52
11280 On ch=1 n=g#5 v=52
11325 Par ch=1 c=64 v=107
11330 Par ch=1 c=64 v=94
11335 Par ch=1 c=64 v=82
11340 Par ch=1 c=64 v=69
11345 Par ch=1 c=64 v=57
11350 Par ch=1 c=64 v=44
11355 Par ch=1 c=64 v=32
11360 Par ch=1 c=64 v=19
11365 Par ch=1 c=64 v=17
11370 Par ch=1 c=64 v=15
11375 Par ch=1 c=64 v=10
11380 Par ch=1 c=64 v=10
11385 Par ch=1 c=64 v=8
11390 Par ch=1 c=64 v=6
11395 Par ch=1 c=64 v=4
11400 Par ch=1 c=64 v=1
11440 Par ch=1 c=64 v=0
11485 Par ch=1 c=64 v=14
11490 Par ch=1 c=64 v=29
11495 Par ch=1 c=64 v=44
11500 Par ch=1 c=64 v=59
11505 Par ch=1 c=64 v=74
11510 Par ch=1 c=64 v=89
11515 Par ch=1 c=64 v=104
11520 On ch=1 n=g#5 v=0
11520 On ch=1 n=c#5 v=52
11520 On ch=1 n=a#5 v=52
11520 Par ch=1 c=64 v=119
11520 On ch=1 n=f#5 v=52
11525 On ch=1 n=c#5 v=0
12765 Par ch=1 c=64 v=107
12770 Par ch=1 c=64 v=94
12775 Par ch=1 c=64 v=82
12780 Par ch=1 c=64 v=69
12785 Par ch=1 c=64 v=57
12790 Par ch=1 c=64 v=44
12795 Par ch=1 c=64 v=32
12800 Par ch=1 c=64 v=19
12805 Par ch=1 c=64 v=17
12810 Par ch=1 c=64 v=15
12815 Par ch=1 c=64 v=10
12820 Par ch=1 c=64 v=10
12825 Par ch=1 c=64 v=8
12830 Par ch=1 c=64 v=6
12835 Par ch=1 c=64 v=4
12840 Par ch=1 c=64 v=1
12880 Par ch=1 c=64 v=0
12925 Par ch=1 c=64 v=14
12930 Par ch=1 c=64 v=29
12935 Par ch=1 c=64 v=44
12940 Par ch=1 c=64 v=59
12945 Par ch=1 c=64 v=74
12950 Par ch=1 c=64 v=89
12955 Par ch=1 c=64 v=104
12960 On ch=1 n=f#5 v=0
12960 Par ch=1 c=64 v=119
12960 On ch=1 n=a#5 v=74
12960 On ch=1 n=c#5 v=74
12960 On ch=1 n=c#6 v=74
12965 On ch=1 n=a#5 v=0
12965 On ch=1 n=c#5 v=0
14205 Par ch=1 c=64 v=107
14210 Par ch=1 c=64 v=94
14215 Par ch=1 c=64 v=82
14220 Par ch=1 c=64 v=69
14225 Par ch=1 c=64 v=57
14230 Par ch=1 c=64 v=44
14235 Par ch=1 c=64 v=32
14240 Par ch=1 c=64 v=19
14245 Par ch=1 c=64 v=17
14250 Par ch=1 c=64 v=15
14255 Par ch=1 c=64 v=10
14260 Par ch=1 c=64 v=10
14265 Par ch=1 c=64 v=8
14270 Par ch=1 c=64 v=6
14275 Par ch=1 c=64 v=4
14280 Par ch=1 c=64 v=1
14320 Par ch=1 c=64 v=0
14365 Par ch=1 c=64 v=14
14370 Par ch=1 c=64 v=29
14375 Par ch=1 c=64 v=44
14380 Par ch=1 c=64 v=59
14385 Par ch=1 c=64 v=74
14390 Par ch=1 c=64 v=89
14395 Par ch=1 c=64 v=104
14400 On ch=1 n=c#6 v=0
14400 On ch=1 n=c#5 v=0
14400 On ch=1 n=a#5 v=98
14400 On ch=1 n=f#5 v=98
14400 On ch=1 n=f#6 v=98
14400 Par ch=1 c=64 v=119
14405 On ch=1 n=a#5 v=0
15645 Par ch=1 c=64 v=107
15650 Par ch=1 c=64 v=94
15655 Par ch=1 c=64 v=82
15660 Par ch=1 c=64 v=69
15665 Par ch=1 c=64 v=57
15670 Par ch=1 c=64 v=44
15675 Par ch=1 c=64 v=32
15680 Par ch=1 c=64 v=19
15685 Par ch=1 c=64 v=17
15690 Par ch=1 c=64 v=15
15695 Par ch=1 c=64 v=10
15700 Par ch=1 c=64 v=10
15705 Par ch=1 c=64 v=8
15710 Par ch=1 c=64 v=6
15715 Par ch=1 c=64 v=4
15720 Par ch=1 c=64 v=1
15760 Par ch=1 c=64 v=0
15805 Par ch=1 c=64 v=14
15810 Par ch=1 c=64 v=29
15815 Par ch=1 c=64 v=44
15820 Par ch=1 c=64 v=59
15825 Par ch=1 c=64 v=74
15830 Par ch=1 c=64 v=89
15835 Par ch=1 c=64 v=104
15840 On ch=1 n=f#6 v=0
15840 On ch=1 n=f#5 v=0
15840 On ch=1 n=a#5 v=0
15840 On ch=1 n=c#6 v=86
15840 On ch=1 n=g#5 v=86
15840 Par ch=1 c=64 v=119
15840 On ch=1 n=f6 v=86
16045 Par ch=1 c=64 v=105
16050 Par ch=1 c=64 v=90
16055 Par ch=1 c=64 v=75
16060 Par ch=1 c=64 v=60
16065 Par ch=1 c=64 v=45
16070 Par ch=1 c=64 v=30
16075 Par ch=1 c=64 v=15
16080 Par ch=1 c=64 v=0
17125 Par ch=1 c=64 v=105
17130 Par ch=1 c=64 v=91
17135 Par ch=1 c=64 v=76
17140 Par ch=1 c=64 v=62
17145 Par ch=1 c=64 v=48
17150 Par ch=1 c=64 v=33
17155 Par ch=1 c=64 v=19
17160 Par ch=1 c=64 v=4
17170 Par ch=1 c=64 v=3
17180 Par ch=1 c=64 v=2
17190 Par ch=1 c=64 v=1
17200 Par ch=1 c=64 v=0
17280 On ch=1 n=f6 v=0
17280 On ch=1 n=g#5 v=0
17280 On ch=1 n=c#6 v=0
17280 Par ch=1 c=64 v=119
17280 On ch=1 n=f#5 v=81
17340 On ch=1 n=f#5 v=0
17340 On ch=1 n=g#5 v=80
17400 On ch=1 n=g#5 v=0
17400 On ch=1 n=f6 v=79
17460 On ch=1 n=f6 v=0
17460 On ch=1 n=d#6 v=79
18565 Par ch=1 c=64 v=105
18570 Par ch=1 c=64 v=91
18575 Par ch=1 c=64 v=76
18580 Par ch=1 c=64 v=62
18585 Par ch=1 c=64 v=48
18590 Par ch=1 c=64 v=33
18595 Par ch=1 c=64 v=19
18600 Par ch=1 c=64 v=4
18610 Par ch=1 c=64 v=3
18620 Par ch=1 c=64 v=2
18630 Par ch=1 c=64 v=1
18640 Par ch=1 c=64 v=0
18720 On ch=1 n=d#6 v=0
18720 On ch=1 n=g#5 v=51
18720 On ch=1 n=c#6 v=51
18720 Par ch=1 c=64 v=119
18720 On ch=1 n=f5 v=51
19680 On ch=1 n=f5 v=0
19680 On ch=1 n=c#6 v=0
19680 On ch=1 n=g#5 v=0
20005 Par ch=1 c=64 v=105
20010 Par ch=1 c=64 v=91
20015 Par ch=1 c=64 v=76
20020 Par ch=1 c=64 v=62
20025 Par ch=1 c=64 v=48
20030 Par ch=1 c=64 v=33
20035 Par ch=1 c=64 v=19
20040 Par ch=1 c=64 v=4
20050 Par ch=1 c=64 v=3
20060 Par ch=1 c=64 v=2
20070 Par ch=1 c=64 v=1
20080 Par ch=1 c=64 v=0
23040 Par ch=1 c=64 v=119
23040 On ch=1 n=a#4 v=53
23100 On ch=1 n=a#4 v=0
23100 On ch=1 n=f#5 v=53
23100 On ch=1 n=a#5 v=53
23100 On ch=1 n=c#5 v=53
24325 Par ch=1 c=64 v=105
24330 Par ch=1 c=64 v=91
24335 Par ch=1 c=64 v=76
24340 Par ch=1 c=64 v=62
24345 Par ch=1 c=64 v=48
24350 Par ch=1 c=64 v=33
24355 Par ch=1 c=64 v=19
24360 Par ch=1 c=64 v=4
24370 Par ch=1 c=64 v=3
24380 Par ch=1 c=64 v=2
24390 Par ch=1 c=64 v=1
24400 Par ch=1 c=64 v=0
24480 On ch=1 n=c#5 v=54
24480 On ch=1 n=a#5 v=54
24480 On ch=1 n=f#5 v=54
24480 Par ch=1 c=64 v=119
24485 On ch=1 n=c#5 v=0
24485 On ch=1 n=a#5 v=0
24485 On ch=1 n=f#5 v=0
25725 Par ch=1 c=64 v=2
25730 Par ch=1 c=64 v=4
25735 Par ch=1 c=64 v=7
25740 Par ch=1 c=64 v=9
25745 Par ch=1 c=64 v=11
25750 Par ch=1 c=64 v=14
25755 Par ch=1 c=64 v=16
25760 Par ch=1 c=64 v=19
25765 Par ch=1 c=64 v=17
25770 Par ch=1 c=64 v=15
25775 Par ch=1 c=64 v=10
25780 Par ch=1 c=64 v=10
25785 Par ch=1 c=64 v=8
25790 Par ch=1 c=64 v=6
25795 Par ch=1 c=64 v=4
25800 Par ch=1 c=64 v=1
25840 Par ch=1 c=64 v=0
25885 Par ch=1 c=64 v=14
25890 Par ch=1 c=64 v=29
25895 Par ch=1 c=64 v=44
25900 Par ch=1 c=64 v=59
25905 Par ch=1 c=64 v=74
25910 Par ch=1 c=64 v=89
25915 Par ch=1 c=64 v=104
25920 On ch=1 n=c#5 v=0
25920 Par ch=1 c=64 v=119
25920 On ch=1 n=a#5 v=54
25920 On ch=1 n=f#5 v=54
25925 On ch=1 n=f#5 v=0
25925 On ch=1 n=a#5 v=0
27165 Par ch=1 c=64 v=107
27170 Par ch=1 c=64 v=94
27175 Par ch=1 c=64 v=82
27180 Par ch=1 c=64 v=69
27185 Par ch=1 c=64 v=57
27190 Par ch=1 c=64 v=44
27195 Par ch=1 c=64 v=32
27200 Par ch=1 c=64 v=19
27205 Par ch=1 c=64 v=17
27210 Par ch=1 c=64 v=15
27215 Par ch=1 c=64 v=10
27220 Par ch=1 c=64 v=10
27225 Par ch=1 c=64 v=8
27230 Par ch=1 c=64 v=6
27235 Par ch=1 c=64 v=4
27240 Par ch=1 c=64 v=1
27280 Par ch=1 c=64 v=0
27325 Par ch=1 c=64 v=14
27330 Par ch=1 c=64 v=29
27335 Par ch=1 c=64 v=44
27340 Par ch=1 c=64 v=59
27345 Par ch=1 c=64 v=74
27350 Par ch=1 c=64 v=89
27355 Par ch=1 c=64 v=104
27360 On ch=1 n=f#5 v=0
27360 On ch=1 n=a#5 v=0
27360 On ch=1 n=b5 v=54
27360 Par ch=1 c=64 v=119
27360 On ch=1 n=f5 v=54
28605 Par ch=1 c=64 v=107
28610 Par ch=1 c=64 v=94
28615 Par ch=1 c=64 v=82
28620 Par ch=1 c=64 v=69
28625 Par ch=1 c=64 v=57
28630 Par ch=1 c=64 v=44
28635 Par ch=1 c=64 v=32
28640 Par ch=1 c=64 v=19
28645 Par ch=1 c=64 v=17
28650 Par ch=1 c=64 v=15
28655 Par ch=1 c=64 v=10
28660 Par ch=1 c=64 v=10
28665 Par ch=1 c=64 v=8
28670 Par ch=1 c=64 v=6
28675 Par ch=1 c=64 v=4
28680 On ch=1 n=b5 v=0
28680 On ch=1 n=g#5 v=54
28680 Par ch=1 c=64 v=1
28720 Par ch=1 c=64 v=0
28765 Par ch=1 c=64 v=14
28770 Par ch=1 c=64 v=29
28775 Par ch=1 c=64 v=44
28780 Par ch=1 c=64 v=59
28785 Par ch=1 c=64 v=74
28790 Par ch=1 c=64 v=89
28795 Par ch=1 c=64 v=104
28800 On ch=1 n=g#5 v=0
28800 On ch=1 n=f5 v=0
28800 Par ch=1 c=64 v=119
28800 On ch=1 n=f#5 v=56
28800 On ch=1 n=c#5 v=56
28800 On ch=1 n=a#5 v=56
30045 Par ch=1 c=64 v=107
30050 Par ch=1 c=64 v=94
30055 Par ch=1 c=64 v=82
30060 Par ch=1 c=64 v=69
30065 Par ch=1 c=64 v=57
30070 Par ch=1 c=64 v=44
30075 Par ch=1 c=64 v=32
30080 Par ch=1 c=64 v=19
30085 Par ch=1 c=64 v=17
30090 Par ch=1 c=64 v=15
30095 Par ch=1 c=64 v=10
30100 Par ch=1 c=64 v=10
30105 Par ch=1 c=64 v=8
30110 Par ch=1 c=64 v=6
30115 Par ch=1 c=64 v=4
30120 Par ch=1 c=64 v=1
30160 Par ch=1 c=64 v=0
30205 Par ch=1 c=64 v=14
30210 Par ch=1 c=64 v=29
30215 Par ch=1 c=64 v=44
30220 Par ch=1 c=64 v=59
30225 Par ch=1 c=64 v=74
30230 Par ch=1 c=64 v=89
30235 Par ch=1 c=64 v=104
30240 On ch=1 n=c#5 v=57
30240 On ch=1 n=f#5 v=57
30240 On ch=1 n=a#5 v=57
30240 Par ch=1 c=64 v=119
30245 On ch=1 n=a#5 v=0
30245 On ch=1 n=c#5 v=0
30245 On ch=1 n=f#5 v=0
30880 On ch=1 n=f#5 v=62
30880 On ch=1 n=c#5 v=62
30880 On ch=1 n=a#5 v=62
30885 On ch=1 n=a#5 v=0
30885 On ch=1 n=f#5 v=0
30885 On ch=1 n=c#5 v=0
31040 On ch=1 n=a#5 v=63
31040 On ch=1 n=c#5 v=63
31040 On ch=1 n=f#5 v=63
31045 On ch=1 n=a#5 v=0
31045 On ch=1 n=c#5 v=0
31045 On ch=1 n=f#5 v=0
31200 On ch=1 n=c#5 v=65
31200 On ch=1 n=a#5 v=65
31200 On ch=1 n=f#5 v=65
31205 On ch=1 n=f#5 v=0
31205 On ch=1 n=c#5 v=0
31205 On ch=1 n=a#5 v=0
31280 Par ch=1 c=64 v=120
31360 On ch=1 n=f#5 v=67
31360 On ch=1 n=c#5 v=67
31360 On ch=1 n=a#5 v=67
31365 On ch=1 n=f#5 v=0
31365 On ch=1 n=a#5 v=0
31365 On ch=1 n=c#5 v=0
31520 On ch=1 n=a#5 v=69
31520 On ch=1 n=c#5 v=69
31520 On ch=1 n=f#5 v=69
31525 On ch=1 n=a#5 v=0
31525 On ch=1 n=c#5 v=0
31525 On ch=1 n=f#5 v=0
31680 On ch=1 n=f#5 v=71
31680 On ch=1 n=a#5 v=71
31685 On ch=1 n=f#5 v=0
31685 On ch=1 n=a#5 v=0
32045 Par ch=1 c=64 v=105
32050 Par ch=1 c=64 v=90
32055 Par ch=1 c=64 v=75
32060 Par ch=1 c=64 v=60
32065 Par ch=1 c=64 v=45
32070 Par ch=1 c=64 v=30
32075 Par ch=1 c=64 v=15
32080 Par ch=1 c=64 v=0
32160 On ch=1 n=a#5 v=0
32160 On ch=1 n=f#5 v=0
32160 On ch=1 n=b5 v=75
32160 On ch=1 n=g#5 v=75
32400 On ch=1 n=g#5 v=0
32400 On ch=1 n=b5 v=0
32400 On ch=1 n=a#5 v=78
32400 On ch=1 n=f#5 v=78
32640 On ch=1 n=f#5 v=0
32640 On ch=1 n=a#5 v=0
32640 On ch=1 n=g#5 v=81
32880 On ch=1 n=g#5 v=0
32880 On ch=1 n=f#5 v=82
32880 On ch=1 n=a#5 v=82
33085 Par ch=1 c=64 v=14
33090 Par ch=1 c=64 v=29
33095 Par ch=1 c=64 v=44
33100 Par ch=1 c=64 v=59
33105 Par ch=1 c=64 v=74
33110 Par ch=1 c=64 v=89
33115 Par ch=1 c=64 v=104
33120 On ch=1 n=f#5 v=0
33120 On ch=1 n=c#5 v=0
33120 On ch=1 n=a#5 v=85
33120 On ch=1 n=f5 v=85
33120 Par ch=1 c=64 v=119
33120 On ch=1 n=c#6 v=85
33125 On ch=1 n=a#5 v=0
33600 On ch=1 n=c#6 v=0
33600 On ch=1 n=a#5 v=0
33600 On ch=1 n=g#5 v=85
33600 On ch=1 n=b5 v=85
34080 On ch=1 n=b5 v=0
34080 On ch=1 n=g#5 v=0
34080 On ch=1 n=f5 v=0
34320 On ch=1 n=g#5 v=84
34320 On ch=1 n=c#5 v=84
34325 Par ch=1 c=64 v=4
34330 Par ch=1 c=64 v=8
34335 Par ch=1 c=64 v=12
34340 Par ch=1 c=64 v=16
34345 Par ch=1 c=64 v=20
34350 Par ch=1 c=64 v=24
34355 Par ch=1 c=64 v=28
34360 Par ch=1 c=64 v=32
34365 Par ch=1 c=64 v=29
34370 Par ch=1 c=64 v=25
34375 Par ch=1 c=64 v=22
34380 Par ch=1 c=64 v=18
34385 Par ch=1 c=64 v=15
34390 Par ch=1 c=64 v=11
34395 Par ch=1 c=64 v=8
34400 Par ch=1 c=64 v=4
34415 Par ch=1 c=64 v=3
34430 Par ch=1 c=64 v=2
34440 Par ch=1 c=64 v=1
34480 Par ch=1 c=64 v=0
34485 Par ch=1 c=64 v=10
34490 Par ch=1 c=64 v=26
34495 Par ch=1 c=64 v=39
34500 Par ch=1 c=64 v=52
34505 Par ch=1 c=64 v=65
34510 Par ch=1 c=64 v=78
34515 Par ch=1 c=64 v=91
34520 Par ch=1 c=64 v=104
34525 Par ch=1 c=64 v=105
34530 Par ch=1 c=64 v=107
34535 Par ch=1 c=64 v=109
34540 Par ch=1 c=64 v=111
34545 Par ch=1 c=64 v=113
34550 Par ch=1 c=64 v=115
34555 Par ch=1 c=64 v=117
34560 On ch=1 n=g#5 v=0
34560 On ch=1 n=a#5 v=84
34560 Par ch=1 c=64 v=119
34560 On ch=1 n=e5 v=84
35765 Par ch=1 c=64 v=109
35770 Par ch=1 c=64 v=98
35775 Par ch=1 c=64 v=87
35780 Par ch=1 c=64 v=76
35785 Par ch=1 c=64 v=65
35790 Par ch=1 c=64 v=54
35795 Par ch=1 c=64 v=43
35800 Par ch=1 c=64 v=32
35805 Par ch=1 c=64 v=29
35810 Par ch=1 c=64 v=25
35815 Par ch=1 c=64 v=22
35820 Par ch=1 c=64 v=18
35825 Par ch=1 c=64 v=15
35830 Par ch=1 c=64 v=11
35835 Par ch=1 c=64 v=8
35840 Par ch=1 c=64 v=4
35855 Par ch=1 c=64 v=3
35870 Par ch=1 c=64 v=2
35880 Par ch=1 c=64 v=1
35885 Par ch=1 c=64 v=16
35890 Par ch=1 c=64 v=31
35895 Par ch=1 c=64 v=46
35900 Par ch=1 c=64 v=62
35905 Par ch=1 c=64 v=77
35910 Par ch=1 c=64 v=92
35915 Par ch=1 c=64 v=107
35920 Par ch=1 c=64 v=123
36000 On ch=1 n=c#5 v=0
36000 On ch=1 n=e5 v=85
36000 On ch=1 n=a#5 v=85
36005 On ch=1 n=e5 v=0
36005 On ch=1 n=a#5 v=0
36280 Par ch=1 c=64 v=122
37240 Par ch=1 c=64 v=123
37245 Par ch=1 c=64 v=110
37250 Par ch=1 c=64 v=97
37255 Par ch=1 c=64 v=84
37260 Par ch=1 c=64 v=71
37265 Par ch=1 c=64 v=58
37270 Par ch=1 c=64 v=45
37275 Par ch=1 c=64 v=32
37280 Par ch=1 c=64 v=19
37285 Par ch=1 c=64 v=17
37290 Par ch=1 c=64 v=15
37295 Par ch=1 c=64 v=10
37300 Par ch=1 c=64 v=10
37305 Par ch=1 c=64 v=8
37310 Par ch=1 c=64 v=6
37315 Par ch=1 c=64 v=4
37320 On ch=1 n=a#5 v=0
37320 Par ch=1 c=64 v=1
37320 On ch=1 n=b5 v=91
37360 Par ch=1 c=64 v=0
37405 Par ch=1 c=64 v=14
37410 Par ch=1 c=64 v=29
37415 Par ch=1 c=64 v=44
37420 Par ch=1 c=64 v=59
37425 Par ch=1 c=64 v=74
37430 Par ch=1 c=64 v=89
37435 Par ch=1 c=64 v=104
37440 On ch=1 n=b5 v=0
37440 On ch=1 n=a#5 v=96
37440 Par ch=1 c=64 v=119
37440 On ch=1 n=e5 v=96
37440 On ch=1 n=c#6 v=96
37445 On ch=1 n=e5 v=0
38685 Par ch=1 c=64 v=107
38690 Par ch=1 c=64 v=94
38695 Par ch=1 c=64 v=82
38700 Par ch=1 c=64 v=69
38705 Par ch=1 c=64 v=57
38710 Par ch=1 c=64 v=44
38715 Par ch=1 c=64 v=32
38720 Par ch=1 c=64 v=19
38725 Par ch=1 c=64 v=17
38730 Par ch=1 c=64 v=15
38735 Par ch=1 c=64 v=10
38740 Par ch=1 c=64 v=10
38745 Par ch=1 c=64 v=8
38750 Par ch=1 c=64 v=6
38755 Par ch=1 c=64 v=4
38760 Par ch=1 c=64 v=1
38800 Par ch=1 c=64 v=0
38845 Par ch=1 c=64 v=14
38850 Par ch=1 c=64 v=29
38855 Par ch=1 c=64 v=44
38860 Par ch=1 c=64 v=59
38865 Par ch=1 c=64 v=74
38870 Par ch=1 c=64 v=89
38875 Par ch=1 c=64 v=104
38880 On ch=1 n=c#6 v=0
38880 On ch=1 n=d#6 v=108
38880 On ch=1 n=a#5 v=108
38880 On ch=1 n=e5 v=108
38880 Par ch=1 c=64 v=119
38885 On ch=1 n=e5 v=0
38885 On ch=1 n=a#5 v=0
40125 Par ch=1 c=64 v=107
40130 Par ch=1 c=64 v=94
40135 Par ch=1 c=64 v=82
40140 Par ch=1 c=64 v=69
40145 Par ch=1 c=64 v=57
40150 Par ch=1 c=64 v=44
40155 Par ch=1 c=64 v=32
40160 Par ch=1 c=64 v=19
40165 Par ch=1 c=64 v=17
40170 Par ch=1 c=64 v=15
40175 Par ch=1 c=64 v=10
40180 Par ch=1 c=64 v=10
40185 Par ch=1 c=64 v=8
40190 Par ch=1 c=64 v=6
40195 Par ch=1 c=64 v=4
40200 On ch=1 n=d#6 v=0
40200 Par ch=1 c=64 v=1
40200 On ch=1 n=c#6 v=90
40240 Par ch=1 c=64 v=0
40285 Par ch=1 c=64 v=14
40290 Par ch=1 c=64 v=29
40295 Par ch=1 c=64 v=44
40300 Par ch=1 c=64 v=59
40305 Par ch=1 c=64 v=74
40310 Par ch=1 c=64 v=89
40315 Par ch=1 c=64 v=104
40320 On ch=1 n=a#5 v=87
40320 On ch=1 n=c#6 v=87
40320 On ch=1 n=e5 v=87
40320 Par ch=1 c=64 v=119
40325 On ch=1 n=c#6 v=0
40325 On ch=1 n=e5 v=0
40325 On ch=1 n=a#5 v=0
41565 Par ch=1 c=64 v=107
41570 Par ch=1 c=64 v=94
41575 Par ch=1 c=64 v=82
41580 Par ch=1 c=64 v=69
41585 Par ch=1 c=64 v=57
41590 Par ch=1 c=64 v=44
41595 Par ch=1 c=64 v=32
41600 Par ch=1 c=64 v=19
41605 Par ch=1 c=64 v=17
41610 Par ch=1 c=64 v=15
41615 Par ch=1 c=64 v=10
41620 Par ch=1 c=64 v=10
41625 Par ch=1 c=64 v=8
41630 Par ch=1 c=64 v=6
41635 Par ch=1 c=64 v=4
41640 Par ch=1 c=64 v=1
41680 Par ch=1 c=64 v=0
41725 Par ch=1 c=64 v=14
41730 Par ch=1 c=64 v=29
41735 Par ch=1 c=64 v=44
41740 Par ch=1 c=64 v=59
41745 Par ch=1 c=64 v=74
41750 Par ch=1 c=64 v=89
41755 Par ch=1 c=64 v=104
41760 On ch=1 n=e5 v=0
41760 On ch=1 n=c#6 v=0
41760 On ch=1 n=a#5 v=0
41760 Par ch=1 c=64 v=119
41760 On ch=1 n=d#5 v=78
41760 On ch=1 n=g#5 v=78
41760 On ch=1 n=b5 v=78
43000 Par ch=1 c=64 v=32
43005 Par ch=1 c=64 v=29
43010 Par ch=1 c=64 v=25
43015 Par ch=1 c=64 v=22
43020 Par ch=1 c=64 v=18
43025 Par ch=1 c=64 v=15
43030 Par ch=1 c=64 v=11
43035 Par ch=1 c=64 v=8
43040 Par ch=1 c=64 v=4
43055 Par ch=1 c=64 v=3
43070 Par ch=1 c=64 v=2
43080 Par ch=1 c=64 v=1
43120 Par ch=1 c=64 v=0
43125 Par ch=1 c=64 v=10
43130 Par ch=1 c=64 v=26
43135 Par ch=1 c=64 v=39
43140 Par ch=1 c=64 v=52
43145 Par ch=1 c=64 v=65
43150 Par ch=1 c=64 v=78
43155 Par ch=1 c=64 v=91
43160 Par ch=1 c=64 v=104
43165 Par ch=1 c=64 v=105
43170 Par ch=1 c=64 v=107
43175 Par ch=1 c=64 v=109
43180 Par ch=1 c=64 v=111
43185 Par ch=1 c=64 v=113
43190 Par ch=1 c=64 v=115
43195 Par ch=1 c=64 v=117
43200 On ch=1 n=b5 v=0
43200 On ch=1 n=g#5 v=0
43200 On ch=1 n=d#5 v=0
43200 On ch=1 n=g5 v=76
43200 On ch=1 n=a#5 v=76
43200 Par ch=1 c=64 v=119
43200 On ch=1 n=c#5 v=76
44405 Par ch=1 c=64 v=109
44410 Par ch=1 c=64 v=98
44415 Par ch=1 c=64 v=87
44420 Par ch=1 c=64 v=76
44425 Par ch=1 c=64 v=65
44430 Par ch=1 c=64 v=54
44435 Par ch=1 c=64 v=43
44440 Par ch=1 c=64 v=32
44445 Par ch=1 c=64 v=29
44450 Par ch=1 c=64 v=25
44455 Par ch=1 c=64 v=22
44460 Par ch=1 c=64 v=18
44465 Par ch=1 c=64 v=15
44470 Par ch=1 c=64 v=11
44475 Par ch=1 c=64 v=8
44480 Par ch=1 c=64 v=4
44495 Par ch=1 c=64 v=3
44510 Par ch=1 c=64 v=2
44520 Par ch=1 c=64 v=1
44560 Par ch=1 c=64 v=0
44565 Par ch=1 c=64 v=10
44570 Par ch=1 c=64 v=26
44575 Par ch=1 c=64 v=39
44580 Par ch=1 c=64 v=52
44585 Par ch=1 c=64 v=65
44590 Par ch=1 c=64 v=78
44595 Par ch=1 c=64 v=91
44600 Par ch=1 c=64 v=104
44605 Par ch=1 c=64 v=106
44610 Par ch=1 c=64 v=108
44615 Par ch=1 c=64 v=111
44620 Par ch=1 c=64 v=113
44625 Par ch=1 c=64 v=115
44630 Par ch=1 c=64 v=118
44635 Par ch=1 c=64 v=120
44640 On ch=1 n=c#5 v=0
44640 On ch=1 n=a#5 v=0
44640 On ch=1 n=g5 v=0
44640 On ch=1 n=b5 v=75
44640 On ch=1 n=b4 v=75
44640 Par ch=1 c=64 v=123
44640 On ch=1 n=g#5 v=75
45925 Par ch=1 c=64 v=108
45930 Par ch=1 c=64 v=93
45935 Par ch=1 c=64 v=78
45940 Par ch=1 c=64 v=62
45945 Par ch=1 c=64 v=47
45950 Par ch=1 c=64 v=32
45955 Par ch=1 c=64 v=17
45960 On ch=1 n=b5 v=0
45960 On ch=1 n=d#5 v=75
45960 Par ch=1 c=64 v=1
46000 Par ch=1 c=64 v=0
46045 Par ch=1 c=64 v=14
46050 Par ch=1 c=64 v=29
46055 Par ch=1 c=64 v=44
46060 Par ch=1 c=64 v=59
46065 Par ch=1 c=64 v=74
46070 Par ch=1 c=64 v=89
46075 Par ch=1 c=64 v=104
46080 On ch=1 n=d#5 v=0
46080 Par ch=1 c=64 v=119
46080 On ch=1 n=f5 v=75
46080 On ch=1 n=b4 v=75
46080 On ch=1 n=g#5 v=75
46085 On ch=1 n=g#5 v=0
46085 On ch=1 n=b4 v=0
47325 Par ch=1 c=64 v=107
47330 Par ch=1 c=64 v=94
47335 Par ch=1 c=64 v=82
47340 Par ch=1 c=64 v=69
47345 Par ch=1 c=64 v=57
47350 Par ch=1 c=64 v=44
47355 Par ch=1 c=64 v=32
47360 Par ch=1 c=64 v=19
47365 Par ch=1 c=64 v=17
47370 Par ch=1 c=64 v=15
47375 Par ch=1 c=64 v=10
47380 Par ch=1 c=64 v=10
47385 Par ch=1 c=64 v=8
47390 Par ch=1 c=64 v=6
47395 Par ch=1 c=64 v=4
47400 Par ch=1 c=64 v=1
47440 Par ch=1 c=64 v=0
47485 Par ch=1 c=64 v=14
47490 Par ch=1 c=64 v=29
47495 Par ch=1 c=64 v=44
47500 Par ch=1 c=64 v=59
47505 Par ch=1 c=64 v=74
47510 Par ch=1 c=64 v=89
47515 Par ch=1 c=64 v=104
47520 On ch=1 n=g#5 v=0
47520 On ch=1 n=b4 v=0
47520 On ch=1 n=c#5 v=75
47520 Par ch=1 c=64 v=119
47520 On ch=1 n=a#5 v=75
48725 Par ch=1 c=64 v=4
48730 Par ch=1 c=64 v=8
48735 Par ch=1 c=64 v=12
48740 Par ch=1 c=64 v=16
48745 Par ch=1 c=64 v=20
48750 Par ch=1 c=64 v=24
48755 Par ch=1 c=64 v=28
48760 Par ch=1 c=64 v=32
48765 Par ch=1 c=64 v=29
48770 Par ch=1 c=64 v=25
48775 Par ch=1 c=64 v=22
48780 Par ch=1 c=64 v=18
48785 Par ch=1 c=64 v=15
48790 Par ch=1 c=64 v=11
48795 Par ch=1 c=64 v=8
48800 Par ch=1 c=64 v=4
48815 Par ch=1 c=64 v=3
48830 Par ch=1 c=64 v=2
48840 Par ch=1 c=64 v=1
48880 Par ch=1 c=64 v=0
48885 Par ch=1 c=64 v=10
48890 Par ch=1 c=64 v=26
48895 Par ch=1 c=64 v=39
48900 Par ch=1 c=64 v=52
48905 Par ch=1 c=64 v=65
48910 Par ch=1 c=64 v=78
48915 Par ch=1 c=64 v=91
48920 Par ch=1 c=64 v=104
48925 Par ch=1 c=64 v=105
48930 Par ch=1 c=64 v=107
48935 Par ch=1 c=64 v=109
48940 Par ch=1 c=64 v=111
48945 Par ch=1 c=64 v=113
48950 Par ch=1 c=64 v=115
48955 Par ch=1 c=64 v=117
48960 On ch=1 n=a#5 v=0
48960 On ch=1 n=c#5 v=0
48960 On ch=1 n=f5 v=0
48960 Par ch=1 c=64 v=119
48960 On ch=1 n=a#4 v=75
48960 On ch=1 n=f#5 v=75
49920 On ch=1 n=f#5 v=0
49920 On ch=1 n=a#4 v=0
50165 Par ch=1 c=64 v=109
50170 Par ch=1 c=64 v=98
50175 Par ch=1 c=64 v=87
50180 Par ch=1 c=64 v=76
50185 Par ch=1 c=64 v=65
50190 Par ch=1 c=64 v=54
50195 Par ch=1 c=64 v=43
50200 Par ch=1 c=64 v=32
50205 Par ch=1 c=64 v=29
50210 Par ch=1 c=64 v=25
50215 Par ch=1 c=64 v=22
50220 Par ch=1 c=64 v=18
50225 Par ch=1 c=64 v=15
50230 Par ch=1 c=64 v=11
50235 Par ch=1 c=64 v=8
50240 Par ch=1 c=64 v=4
50255 Par ch=1 c=64 v=3
50270 Par ch=1 c=64 v=2
50280 Par ch=1 c=64 v=1
50320 Par ch=1 c=64 v=0
50325 Par ch=1 c=64 v=10
50330 Par ch=1 c=64 v=26
50335 Par ch=1 c=64 v=39
50340 Par ch=1 c=64 v=52
50345 Par ch=1 c=64 v=65
50350 Par ch=1 c=64 v=78
50355 Par ch=1 c=64 v=91
50360 Par ch=1 c=64 v=104
50365 Par ch=1 c=64 v=105
50370 Par ch=1 c=64 v=107
50375 Par ch=1 c=64 v=109
50380 Par ch=1 c=64 v=111
50385 Par ch=1 c=64 v=113
50390 Par ch=1 c=64 v=115
50395 Par ch=1 c=64 v=117
50400 Par ch=1 c=64 v=119
50400 On ch=1 n=d#5 v=71
50400 On ch=1 n=b5 v=71
51605 Par ch=1 c=64 v=109
51610 Par ch=1 c=64 v=98
51615 Par ch=1 c=64 v=87
51620 Par ch=1 c=64 v=76
51625 Par ch=1 c=64 v=65
51630 Par ch=1 c=64 v=54
51635 Par ch=1 c=64 v=43
51640 Par ch=1 c=64 v=32
51645 Par ch=1 c=64 v=29
51650 Par ch=1 c=64 v=25
51655 Par ch=1 c=64 v=22
51660 Par ch=1 c=64 v=18
51665 Par ch=1 c=64 v=15
51670 Par ch=1 c=64 v=11
51675 Par ch=1 c=64 v=8
51680 Par ch=1 c=64 v=4
51695 Par ch=1 c=64 v=3
51710 Par ch=1 c=64 v=2
51720 Par ch=1 c=64 v=1
51760 Par ch=1 c=64 v=0
51765 Par ch=1 c=64 v=10
51770 Par ch=1 c=64 v=26
51775 Par ch=1 c=64 v=39
51780 Par ch=1 c=64 v=52
51785 Par ch=1 c=64 v=65
51790 Par ch=1 c=64 v=78
51795 Par ch=1 c=64 v=91
51800 Par ch=1 c=64 v=104
51805 Par ch=1 c=64 v=105
51810 Par ch=1 c=64 v=107
51815 Par ch=1 c=64 v=109
51820 Par ch=1 c=64 v=111
51825 Par ch=1 c=64 v=113
51830 Par ch=1 c=64 v=115
51835 Par ch=1 c=64 v=117
51840 On ch=1 n=b5 v=0
51840 On ch=1 n=d#5 v=0
51840 On ch=1 n=b4 v=54
51840 On ch=1 n=f5 v=54
51840 Par ch=1 c=64 v=119
51840 On ch=1 n=g#5 v=54
53045 Par ch=1 c=64 v=109
53050 Par ch=1 c=64 v=98
53055 Par ch=1 c=64 v=87
53060 Par ch=1 c=64 v=76
53065 Par ch=1 c=64 v=65
53070 Par ch=1 c=64 v=54
53075 Par ch=1 c=64 v=43
53080 Par ch=1 c=64 v=32
53085 Par ch=1 c=64 v=29
53090 Par ch=1 c=64 v=25
53095 Par ch=1 c=64 v=22
53100 Par ch=1 c=64 v=18
53105 Par ch=1 c=64 v=15
53110 Par ch=1 c=64 v=11
53115 Par ch=1 c=64 v=8
53120 Par ch=1 c=64 v=4
53135 Par ch=1 c=64 v=3
53150 Par ch=1 c=64 v=2
53160 Par ch=1 c=64 v=1
53200 Par ch=1 c=64 v=0
53205 Par ch=1 c=64 v=10
53210 Par ch=1 c=64 v=26
53215 Par ch=1 c=64 v=39
53220 Par ch=1 c=64 v=52
53225 Par ch=1 c=64 v=65
53230 Par ch=1 c=64 v=78
53235 Par ch=1 c=64 v=91
53240 Par ch=1 c=64 v=104
53245 Par ch=1 c=64 v=106
53250 Par ch=1 c=64 v=108
53255 Par ch=1 c=64 v=110
53260 Par ch=1 c=64 v=113
53265 Par ch=1 c=64 v=115
53270 Par ch=1 c=64 v=117
53275 Par ch=1 c=64 v=119
53280 On ch=1 n=g#5 v=0
53280 On ch=1 n=b4 v=0
53280 Par ch=1 c=64 v=122
53280 On ch=1 n=a#5 v=53
54085 Par ch=1 c=64 v=15
54090 Par ch=1 c=64 v=30
54095 Par ch=1 c=64 v=46
54100 Par ch=1 c=64 v=61
54105 Par ch=1 c=64 v=76
54110 Par ch=1 c=64 v=92
54115 Par ch=1 c=64 v=107
54120 Par ch=1 c=64 v=123
54160 Par ch=1 c=64 v=122
54445 Par ch=1 c=64 v=109
54450 Par ch=1 c=64 v=96
54455 Par ch=1 c=64 v=83
54460 Par ch=1 c=64 v=69
54465 Par ch=1 c=64 v=56
54470 Par ch=1 c=64 v=43
54475 Par ch=1 c=64 v=30
54480 Par ch=1 c=64 v=16
54525 Par ch=1 c=64 v=15
54530 Par ch=1 c=64 v=10
54535 Par ch=1 c=64 v=12
54540 Par ch=1 c=64 v=10
54545 Par ch=1 c=64 v=9
54550 Par ch=1 c=64 v=7
54555 Par ch=1 c=64 v=6
54560 Par ch=1 c=64 v=4
54575 Par ch=1 c=64 v=3
54590 Par ch=1 c=64 v=2
54600 Par ch=1 c=64 v=1
54640 Par ch=1 c=64 v=0
54645 Par ch=1 c=64 v=10
54650 Par ch=1 c=64 v=26
54655 Par ch=1 c=64 v=39
54660 Par ch=1 c=64 v=52
54665 Par ch=1 c=64 v=65
54670 Par ch=1 c=64 v=78
54675 Par ch=1 c=64 v=91
54680 Par ch=1 c=64 v=104
54685 Par ch=1 c=64 v=105
54690 Par ch=1 c=64 v=107
54695 Par ch=1 c=64 v=109
54700 Par ch=1 c=64 v=111
54705 Par ch=1 c=64 v=113
54710 Par ch=1 c=64 v=115
54715 Par ch=1 c=64 v=117
54720 On ch=1 n=a#5 v=0
54720 On ch=1 n=f5 v=0
54720 On ch=1 n=a#4 v=45
54720 On ch=1 n=f#5 v=45
54720 Par ch=1 c=64 v=119
55925 Par ch=1 c=64 v=109
55930 Par ch=1 c=64 v=98
55935 Par ch=1 c=64 v=87
55940 Par ch=1 c=64 v=76
55945 Par ch=1 c=64 v=65
55950 Par ch=1 c=64 v=54
55955 Par ch=1 c=64 v=43
55960 Par ch=1 c=64 v=32
55965 Par ch=1 c=64 v=29
55970 Par ch=1 c=64 v=25
55975 Par ch=1 c=64 v=22
55980 Par ch=1 c=64 v=18
55985 Par ch=1 c=64 v=15
55990 Par ch=1 c=64 v=11
55995 Par ch=1 c=64 v=8
56000 Par ch=1 c=64 v=4
56015 Par ch=1 c=64 v=3
56030 Par ch=1 c=64 v=2
56040 Par ch=1 c=64 v=1
56080 Par ch=1 c=64 v=0
56085 Par ch=1 c=64 v=10
56090 Par ch=1 c=64 v=26
56095 Par ch=1 c=64 v=39
56100 Par ch=1 c=64 v=52
56105 Par ch=1 c=64 v=65
56110 Par ch=1 c=64 v=78
56115 Par ch=1 c=64 v=91
56120 Par ch=1 c=64 v=104
56125 Par ch=1 c=64 v=105
56130 Par ch=1 c=64 v=107
56135 Par ch=1 c=64 v=109
56140 Par ch=1 c=64 v=111
56145 Par ch=1 c=64 v=113
56150 Par ch=1 c=64 v=115
56155 Par ch=1 c=64 v=117
56160 Par ch=1 c=64 v=119
56640 On ch=1 n=f#5 v=0
56640 On ch=1 n=a#4 v=0
57325 Par ch=1 c=64 v=108
57330 Par ch=1 c=64 v=97
57335 Par ch=1 c=64 v=86
57340 Par ch=1 c=64 v=74
57345 Par ch=1 c=64 v=63
57350 Par ch=1 c=64 v=52
57355 Par ch=1 c=64 v=41
57360 Par ch=1 c=64 v=29
57365 Par ch=1 c=64 v=27
57370 Par ch=1 c=64 v=24
57375 Par ch=1 c=64 v=21
57380 Par ch=1 c=64 v=18
57385 Par ch=1 c=64 v=15
57390 Par ch=1 c=64 v=12
57395 Par ch=1 c=64 v=9
57400 Par ch=1 c=64 v=6
57410 Par ch=1 c=64 v=5
57420 Par ch=1 c=64 v=4
57430 Par ch=1 c=64 v=3
57440 Par ch=1 c=64 v=2
57480 Par ch=1 c=64 v=1
57485 Par ch=1 c=64 v=12
57490 Par ch=1 c=64 v=23
57495 Par ch=1 c=64 v=35
57500 Par ch=1 c=64 v=46
57505 Par ch=1 c=64 v=57
57510 Par ch=1 c=64 v=69
57515 Par ch=1 c=64 v=80
57520 Par ch=1 c=64 v=92
57525 Par ch=1 c=66 v=15
57525 Par ch=1 c=64 v=95
57530 Par ch=1 c=66 v=30
57530 Par ch=1 c=64 v=99
57535 Par ch=1 c=66 v=45
57535 Par ch=1 c=64 v=103
57540 Par ch=1 c=64 v=107
57540 Par ch=1 c=66 v=60
57545 Par ch=1 c=66 v=75
57545 Par ch=1 c=64 v=111
57550 Par ch=1 c=66 v=90
57550 Par ch=1 c=64 v=115
57555 Par ch=1 c=64 v=119
57555 Par ch=1 c=66 v=105
57560 Par ch=1 c=66 v=120
57560 Par ch=1 c=64 v=123
57600 On ch=1 n=f#6 v=69
57840 On ch=1 n=f#5 v=53
58080 On ch=1 n=f#5 v=53
58085 On ch=1 n=f#5 v=0
58220 Par ch=1 c=66 v=121
58240 Par ch=1 c=66 v=122
58320 On ch=1 n=f#5 v=53
58325 On ch=1 n=f#5 v=0
58560 On ch=1 n=f#5 v=53
58560 Par ch=1 c=66 v=123
58565 On ch=1 n=f#5 v=0
58800 On ch=1 n=f#5 v=53
58805 On ch=1 n=f#5 v=0
59040 On ch=1 n=f#6 v=0
59040 On ch=1 n=f#5 v=62
59040 On ch=1 n=a#5 v=62
59045 On ch=1 n=f#5 v=0
59240 Par ch=1 c=66 v=122
59280 On ch=1 n=f#5 v=53
59285 On ch=1 n=f#5 v=0
59520 On ch=1 n=f#5 v=53
59525 On ch=1 n=f#5 v=0
59760 On ch=1 n=f#5 v=53
59765 On ch=1 n=f#5 v=0
60000 On ch=1 n=a#5 v=0
60000 On ch=1 n=c6 v=54
60000 On ch=1 n=f#5 v=54
60005 On ch=1 n=f#5 v=0
60165 Par ch=1 c=64 v=2
60170 Par ch=1 c=64 v=4
60175 Par ch=1 c=64 v=6
60180 Par ch=1 c=64 v=8
60185 Par ch=1 c=64 v=10
60190 Par ch=1 c=64 v=12
60195 Par ch=1 c=64 v=14
60200 Par ch=1 c=64 v=16
60205 Par ch=1 c=64 v=14
60210 Par ch=1 c=64 v=12
60215 Par ch=1 c=64 v=10
60220 Par ch=1 c=64 v=8
60225 Par ch=1 c=64 v=6
60230 Par ch=1 c=64 v=4
60235 Par ch=1 c=64 v=2
60240 On ch=1 n=f#5 v=54
60240 Par ch=1 c=64 v=0
60245 On ch=1 n=f#5 v=0
60245 Par ch=1 c=64 v=1
60250 Par ch=1 c=64 v=3
60255 Par ch=1 c=64 v=5
60260 Par ch=1 c=64 v=7
60265 Par ch=1 c=64 v=8
60270 Par ch=1 c=64 v=10
60275 Par ch=1 c=64 v=12
60280 Par ch=1 c=64 v=14
60285 Par ch=1 c=64 v=10
60290 Par ch=1 c=64 v=12
60295 Par ch=1 c=64 v=10
60300 Par ch=1 c=64 v=9
60305 Par ch=1 c=64 v=8
60310 Par ch=1 c=64 v=6
60315 Par ch=1 c=64 v=5
60320 Par ch=1 c=64 v=3
60340 Par ch=1 c=64 v=2
60360 Par ch=1 c=64 v=1
60365 Par ch=1 c=64 v=12
60370 Par ch=1 c=64 v=24
60375 Par ch=1 c=64 v=35
60380 Par ch=1 c=64 v=47
60385 Par ch=1 c=64 v=58
60390 Par ch=1 c=64 v=70
60395 Par ch=1 c=64 v=81
60400 Par ch=1 c=64 v=93
60405 Par ch=1 c=64 v=96
60410 Par ch=1 c=64 v=100
60415 Par ch=1 c=64 v=103
60420 Par ch=1 c=64 v=107
60425 Par ch=1 c=64 v=110
60430 Par ch=1 c=64 v=114
60435 Par ch=1 c=64 v=117
60440 Par ch=1 c=64 v=121
60460 Par ch=1 c=64 v=122
60480 On ch=1 n=f#5 v=0
60480 On ch=1 n=f5 v=70
60480 On ch=1 n=c6 v=70
60480 Par ch=1 c=64 v=123
60485 On ch=1 n=c6 v=0
60720 On ch=1 n=f5 v=54
60725 On ch=1 n=f5 v=0
60960 On ch=1 n=f5 v=54
60965 On ch=1 n=f5 v=0
61200 On ch=1 n=f5 v=54
61205 On ch=1 n=f5 v=0
61440 On ch=1 n=f5 v=54
61445 On ch=1 n=f5 v=0
61560 On ch=1 n=c6 v=0
61560 On ch=1 n=c#6 v=54
61680 On ch=1 n=c#6 v=0
61680 On ch=1 n=f5 v=54
61680 On ch=1 n=f6 v=54
61685 On ch=1 n=f5 v=0
61800 On ch=1 n=f6 v=0
61800 On ch=1 n=d#6 v=54
61900 Par ch=1 c=66 v=121
61920 On ch=1 n=d#6 v=0
61920 On ch=1 n=f5 v=54
61920 Par ch=1 c=66 v=120
61920 Par ch=1 c=64 v=122
61920 On ch=1 n=c#6 v=54
61925 On ch=1 n=f5 v=0
62160 On ch=1 n=f5 v=54
62165 On ch=1 n=f5 v=0
62400 On ch=1 n=f5 v=54
62405 On ch=1 n=f5 v=0
62640 On ch=1 n=f5 v=54
62645 On ch=1 n=f5 v=0
62880 On ch=1 n=f5 v=54
62885 On ch=1 n=f5 v=0
63085 Par ch=1 c=64 v=111
63090 Par ch=1 c=64 v=99
63095 Par ch=1 c=64 v=87
63100 Par ch=1 c=64 v=75
63105 Par ch=1 c=64 v=64
63110 Par ch=1 c=64 v=52
63115 Par ch=1 c=64 v=40
63120 Par ch=1 c=64 v=28
63120 On ch=1 n=f5 v=54
63125 On ch=1 n=f5 v=0
63125 Par ch=1 c=64 v=25
63130 Par ch=1 c=64 v=22
63135 Par ch=1 c=64 v=19
63140 Par ch=1 c=64 v=16
63145 Par ch=1 c=64 v=10
63150 Par ch=1 c=64 v=10
63155 Par ch=1 c=64 v=7
63160 Par ch=1 c=64 v=4
63175 Par ch=1 c=64 v=3
63190 Par ch=1 c=64 v=2
63200 Par ch=1 c=64 v=1
63205 Par ch=1 c=64 v=10
63210 Par ch=1 c=64 v=20
63215 Par ch=1 c=64 v=30
63220 Par ch=1 c=64 v=40
63225 Par ch=1 c=64 v=49
63230 Par ch=1 c=64 v=59
63235 Par ch=1 c=64 v=69
63240 Par ch=1 c=64 v=79
63245 Par ch=1 c=64 v=83
63250 Par ch=1 c=64 v=87
63255 Par ch=1 c=64 v=91
63260 Par ch=1 c=64 v=96
63265 Par ch=1 c=64 v=100
63270 Par ch=1 c=64 v=104
63275 Par ch=1 c=64 v=108
63280 Par ch=1 c=64 v=113
63290 Par ch=1 c=64 v=114
63300 Par ch=1 c=64 v=115
63305 Par ch=1 c=64 v=116
63315 Par ch=1 c=64 v=117
63320 Par ch=1 c=64 v=118
63360 On ch=1 n=f5 v=0
63360 On ch=1 n=c#6 v=0
63360 On ch=1 n=e6 v=64
63360 Par ch=1 c=64 v=119
63600 On ch=1 n=e5 v=54
63840 On ch=1 n=e5 v=54
63845 On ch=1 n=e5 v=0
64080 On ch=1 n=e5 v=54
64085 On ch=1 n=e5 v=0
64320 On ch=1 n=e5 v=54
64325 On ch=1 n=e5 v=0
64485 Par ch=1 c=64 v=111
64490 Par ch=1 c=64 v=103
64495 Par ch=1 c=64 v=95
64500 Par ch=1 c=64 v=86
64505 Par ch=1 c=64 v=78
64510 Par ch=1 c=64 v=70
64515 Par ch=1 c=64 v=62
64520 Par ch=1 c=64 v=53
64525 Par ch=1 c=64 v=48
64530 Par ch=1 c=64 v=43
64535 Par ch=1 c=64 v=38
64540 Par ch=1 c=64 v=33
64545 Par ch=1 c=64 v=28
64550 Par ch=1 c=64 v=23
64555 Par ch=1 c=64 v=18
64560 On ch=1 n=e5 v=54
64560 Par ch=1 c=64 v=10
64565 On ch=1 n=e5 v=0
64565 Par ch=1 c=64 v=12
64570 Par ch=1 c=64 v=11
64575 Par ch=1 c=64 v=10
64580 Par ch=1 c=64 v=8
64585 Par ch=1 c=64 v=7
64590 Par ch=1 c=64 v=6
64595 Par ch=1 c=64 v=5
64600 Par ch=1 c=64 v=3
64640 Par ch=1 c=64 v=2
64645 Par ch=1 c=64 v=17
64650 Par ch=1 c=64 v=32
64655 Par ch=1 c=64 v=47
64660 Par ch=1 c=64 v=62
64665 Par ch=1 c=64 v=77
64670 Par ch=1 c=64 v=92
64675 Par ch=1 c=64 v=107
64680 Par ch=1 c=64 v=123
64800 On ch=1 n=e6 v=0
64800 On ch=1 n=e5 v=58
64800 On ch=1 n=g#5 v=58
64805 On ch=1 n=e5 v=0
65040 On ch=1 n=e5 v=54
65045 On ch=1 n=e5 v=0
65280 On ch=1 n=e5 v=54
65285 On ch=1 n=e5 v=0
65400 Par ch=1 c=64 v=122
65520 On ch=1 n=e5 v=54
65525 On ch=1 n=e5 v=0
65760 On ch=1 n=g#5 v=0
65760 On ch=1 n=e5 v=53
65760 On ch=1 n=a#5 v=53
65765 On ch=1 n=e5 v=0
65860 Par ch=1 c=64 v=121
65880 Par ch=1 c=64 v=120
65895 Par ch=1 c=64 v=121
65910 Par ch=1 c=64 v=122
65920 Par ch=1 c=64 v=123
65925 Par ch=1 c=64 v=108
65930 Par ch=1 c=64 v=93
65935 Par ch=1 c=64 v=78
65940 Par ch=1 c=64 v=63
65945 Par ch=1 c=64 v=48
65950 Par ch=1 c=64 v=33
65955 Par ch=1 c=64 v=18
65960 Par ch=1 c=64 v=2
65965 Par ch=1 c=64 v=7
65970 Par ch=1 c=64 v=12
65975 Par ch=1 c=64 v=17
65980 Par ch=1 c=64 v=22
65985 Par ch=1 c=64 v=27
65990 Par ch=1 c=64 v=32
65995 Par ch=1 c=64 v=37
66000 Par ch=1 c=64 v=43
66000 On ch=1 n=e5 v=53
66005 On ch=1 n=e5 v=0
66005 Par ch=1 c=64 v=39
66010 Par ch=1 c=64 v=35
66015 Par ch=1 c=64 v=30
66020 Par ch=1 c=64 v=26
66025 Par ch=1 c=64 v=22
66030 Par ch=1 c=64 v=17
66035 Par ch=1 c=64 v=10
66040 Par ch=1 c=64 v=8
66050 Par ch=1 c=64 v=7
66055 Par ch=1 c=64 v=6
66060 Par ch=1 c=64 v=5
66070 Par ch=1 c=64 v=4
66075 Par ch=1 c=64 v=3
66080 Par ch=1 c=64 v=2
66120 Par ch=1 c=64 v=1
66125 Par ch=1 c=64 v=12
66130 Par ch=1 c=64 v=23
66135 Par ch=1 c=64 v=34
66140 Par ch=1 c=64 v=46
66145 Par ch=1 c=64 v=57
66150 Par ch=1 c=64 v=68
66155 Par ch=1 c=64 v=79
66160 Par ch=1 c=64 v=91
66165 Par ch=1 c=64 v=94
66170 Par ch=1 c=64 v=97
66175 Par ch=1 c=64 v=100
66180 Par ch=1 c=64 v=104
66185 Par ch=1 c=64 v=107
66190 Par ch=1 c=64 v=110
66195 Par ch=1 c=64 v=113
66200 Par ch=1 c=64 v=117
66205 Par ch=1 c=66 v=15
66210 Par ch=1 c=66 v=30
66215 Par ch=1 c=66 v=45
66220 Par ch=1 c=66 v=61
66220 Par ch=1 c=64 v=118
66225 Par ch=1 c=66 v=76
66230 Par ch=1 c=66 v=91
66235 Par ch=1 c=66 v=106
66240 On ch=1 n=e5 v=0
66240 Par ch=1 c=64 v=119
66240 Par ch=1 c=66 v=122
66240 On ch=1 n=a#5 v=59
66245 On ch=1 n=a#5 v=0
66480 On ch=1 n=d#5 v=52
66720 On ch=1 n=d#5 v=52
66725 On ch=1 n=d#5 v=0
66960 On ch=1 n=d#5 v=52
66965 On ch=1 n=d#5 v=0
67200 On ch=1 n=d#5 v=52
67205 On ch=1 n=d#5 v=0
67320 On ch=1 n=a#5 v=0
67320 On ch=1 n=b5 v=57
67405 Par ch=1 c=64 v=110
67410 Par ch=1 c=64 v=100
67415 Par ch=1 c=64 v=91
67420 Par ch=1 c=64 v=81
67425 Par ch=1 c=64 v=72
67430 Par ch=1 c=64 v=62
67435 Par ch=1 c=64 v=53
67440 On ch=1 n=b5 v=0
67440 On ch=1 n=d#6 v=53
67440 Par ch=1 c=64 v=43
67440 On ch=1 n=d#5 v=53
67445 On ch=1 n=d#5 v=0
67445 Par ch=1 c=64 v=39
67450 Par ch=1 c=64 v=35
67455 Par ch=1 c=64 v=30
67460 Par ch=1 c=64 v=26
67465 Par ch=1 c=64 v=22
67470 Par ch=1 c=64 v=17
67475 Par ch=1 c=64 v=10
67480 Par ch=1 c=64 v=8
67490 Par ch=1 c=64 v=7
67495 Par ch=1 c=64 v=6
67500 Par ch=1 c=64 v=5
67510 Par ch=1 c=64 v=4
67515 Par ch=1 c=64 v=3
67520 Par ch=1 c=64 v=2
67560 On ch=1 n=d#6 v=0
67560 Par ch=1 c=64 v=1
67560 On ch=1 n=c#6 v=53
67565 Par ch=1 c=64 v=12
67570 Par ch=1 c=64 v=23
67575 Par ch=1 c=64 v=34
67580 Par ch=1 c=64 v=46
67585 Par ch=1 c=64 v=57
67590 Par ch=1 c=64 v=68
67595 Par ch=1 c=64 v=79
67600 Par ch=1 c=64 v=91
67605 Par ch=1 c=64 v=94
67610 Par ch=1 c=64 v=98
67615 Par ch=1 c=64 v=101
67620 Par ch=1 c=64 v=105
67625 Par ch=1 c=64 v=109
67630 Par ch=1 c=64 v=112
67635 Par ch=1 c=64 v=116
67640 Par ch=1 c=64 v=120
67655 Par ch=1 c=64 v=121
67670 Par ch=1 c=64 v=122
67680 On ch=1 n=c#6 v=0
67680 On ch=1 n=b5 v=53
67680 On ch=1 n=d#5 v=53
67680 Par ch=1 c=64 v=123
67685 On ch=1 n=d#5 v=0
67920 On ch=1 n=d#5 v=53
67925 On ch=1 n=d#5 v=0
68160 On ch=1 n=d#5 v=53
68165 On ch=1 n=d#5 v=0
68400 On ch=1 n=d#5 v=53
68405 On ch=1 n=d#5 v=0
68640 On ch=1 n=b5 v=0
68640 On ch=1 n=a#5 v=53
68640 On ch=1 n=d#5 v=53
68645 On ch=1 n=d#5 v=0
68845 Par ch=1 c=64 v=121
68850 Par ch=1 c=64 v=119
68855 Par ch=1 c=64 v=117
68860 Par ch=1 c=64 v=115
68865 Par ch=1 c=64 v=113
68870 Par ch=1 c=64 v=111
68875 Par ch=1 c=64 v=109
68880 On ch=1 n=d#5 v=0
68880 On ch=1 n=c#5 v=53
68880 Par ch=1 c=64 v=106
68885 Par ch=1 c=64 v=97
68890 Par ch=1 c=64 v=88
68895 Par ch=1 c=64 v=78
68900 Par ch=1 c=64 v=69
68905 Par ch=1 c=64 v=60
68910 Par ch=1 c=64 v=50
68915 Par ch=1 c=64 v=41
68920 Par ch=1 c=64 v=31
68925 Par ch=1 c=64 v=28
68930 Par ch=1 c=64 v=24
68935 Par ch=1 c=64 v=21
68940 Par ch=1 c=64 v=17
68945 Par ch=1 c=64 v=14
68950 Par ch=1 c=64 v=10
68955 Par ch=1 c=64 v=7
68960 Par ch=1 c=64 v=3
68980 Par ch=1 c=64 v=2
69000 Par ch=1 c=64 v=1
69005 Par ch=1 c=64 v=12
69010 Par ch=1 c=64 v=23
69015 Par ch=1 c=64 v=34
69020 Par ch=1 c=64 v=46
69025 Par ch=1 c=64 v=57
69030 Par ch=1 c=64 v=68
69035 Par ch=1 c=64 v=79
69040 Par ch=1 c=64 v=91
69045 Par ch=1 c=64 v=94
69050 Par ch=1 c=64 v=97
69055 Par ch=1 c=64 v=100
69060 Par ch=1 c=64 v=104
69065 Par ch=1 c=64 v=107
69070 Par ch=1 c=64 v=110
69075 Par ch=1 c=64 v=113
69080 Par ch=1 c=64 v=117
69100 Par ch=1 c=64 v=118
69120 On ch=1 n=c#5 v=0
69120 On ch=1 n=b4 v=59
69120 On ch=1 n=a#5 v=59
69120 Par ch=1 c=64 v=119
69125 On ch=1 n=a#5 v=0
69360 On ch=1 n=b4 v=52
69365 On ch=1 n=b4 v=0
69600 On ch=1 n=a#5 v=0
69600 On ch=1 n=b4 v=54
69600 On ch=1 n=g#5 v=54
69605 On ch=1 n=b4 v=0
69840 On ch=1 n=b4 v=56
69845 On ch=1 n=b4 v=0
70045 Par ch=1 c=64 v=118
70050 Par ch=1 c=64 v=117
70055 Par ch=1 c=64 v=116
70060 Par ch=1 c=64 v=114
70065 Par ch=1 c=64 v=113
70070 Par ch=1 c=64 v=112
70075 Par ch=1 c=64 v=111
70080 On ch=1 n=b4 v=0
70080 On ch=1 n=c#5 v=60
70080 Par ch=1 c=64 v=109
70085 Par ch=1 c=64 v=96
70090 Par ch=1 c=64 v=82
70095 Par ch=1 c=64 v=69
70200 On ch=1 n=g#5 v=0
70200 On ch=1 n=a#5 v=62
70285 Par ch=1 c=64 v=5
70290 Par ch=1 c=64 v=10
70295 Par ch=1 c=64 v=16
70300 Par ch=1 c=64 v=21
70305 Par ch=1 c=64 v=26
70310 Par ch=1 c=64 v=32
70315 Par ch=1 c=64 v=37
70320 On ch=1 n=a#5 v=0
70320 Par ch=1 c=64 v=43
70320 On ch=1 n=c#6 v=62
70320 On ch=1 n=c#5 v=62
70325 On ch=1 n=c#5 v=0
70325 Par ch=1 c=64 v=39
70330 Par ch=1 c=64 v=35
70335 Par ch=1 c=64 v=30
70340 Par ch=1 c=64 v=26
70345 Par ch=1 c=64 v=22
70350 Par ch=1 c=64 v=17
70355 Par ch=1 c=64 v=10
70360 Par ch=1 c=64 v=8
70370 Par ch=1 c=64 v=7
70375 Par ch=1 c=64 v=6
70380 Par ch=1 c=64 v=5
70390 Par ch=1 c=64 v=4
70395 Par ch=1 c=64 v=3
70400 Par ch=1 c=64 v=2
70440 On ch=1 n=c#6 v=0
70440 On ch=1 n=b5 v=63
70440 Par ch=1 c=64 v=1
70445 Par ch=1 c=64 v=12
70450 Par ch=1 c=64 v=23
70455 Par ch=1 c=64 v=34
70460 Par ch=1 c=64 v=46
70465 Par ch=1 c=64 v=57
70470 Par ch=1 c=64 v=68
70475 Par ch=1 c=64 v=79
70480 Par ch=1 c=64 v=91
70485 Par ch=1 c=64 v=94
70490 Par ch=1 c=64 v=97
70495 Par ch=1 c=64 v=100
70500 Par ch=1 c=64 v=104
70505 Par ch=1 c=64 v=107
70510 Par ch=1 c=64 v=110
70515 Par ch=1 c=64 v=113
70520 Par ch=1 c=64 v=117
70540 Par ch=1 c=64 v=118
70560 On ch=1 n=b5 v=0
70560 On ch=1 n=c#5 v=0
70560 On ch=1 n=d#5 v=64
70560 Par ch=1 c=64 v=119
70560 On ch=1 n=a#5 v=64
70800 On ch=1 n=d#5 v=68
70805 On ch=1 n=d#5 v=0
71040 On ch=1 n=a#5 v=0
71040 On ch=1 n=g#5 v=70
71040 On ch=1 n=d#5 v=70
71045 On ch=1 n=d#5 v=0
71280 On ch=1 n=d#5 v=71
71285 On ch=1 n=d#5 v=0
71520 On ch=1 n=d#5 v=0
71520 On ch=1 n=c#5 v=74
71640 On ch=1 n=g#5 v=0
71640 On ch=1 n=a#5 v=76
71725 Par ch=1 c=64 v=110
71730 Par ch=1 c=64 v=100
71735 Par ch=1 c=64 v=91
71740 Par ch=1 c=64 v=81
71745 Par ch=1 c=64 v=72
71750 Par ch=1 c=64 v=62
71755 Par ch=1 c=64 v=53
71760 On ch=1 n=a#5 v=0
71760 On ch=1 n=c#6 v=79
71760 On ch=1 n=c#5 v=79
71760 Par ch=1 c=64 v=43
71765 On ch=1 n=c#5 v=0
71765 Par ch=1 c=64 v=39
71770 Par ch=1 c=64 v=35
71775 Par ch=1 c=64 v=30
71780 Par ch=1 c=64 v=26
71785 Par ch=1 c=64 v=22
71790 Par ch=1 c=64 v=17
71795 Par ch=1 c=64 v=10
71800 Par ch=1 c=64 v=8
71810 Par ch=1 c=64 v=7
71815 Par ch=1 c=64 v=6
71820 Par ch=1 c=64 v=5
71830 Par ch=1 c=64 v=4
71835 Par ch=1 c=64 v=3
71840 Par ch=1 c=64 v=2
71880 On ch=1 n=c#6 v=0
71880 On ch=1 n=b5 v=80
71880 Par ch=1 c=64 v=1
71885 Par ch=1 c=64 v=14
71890 Par ch=1 c=64 v=27
71895 Par ch=1 c=64 v=40
71900 Par ch=1 c=64 v=54
71905 Par ch=1 c=64 v=67
71910 Par ch=1 c=64 v=80
71915 Par ch=1 c=64 v=93
71920 Par ch=1 c=64 v=107
71925 Par ch=1 c=64 v=109
71930 Par ch=1 c=64 v=111
71935 Par ch=1 c=64 v=113
71940 Par ch=1 c=64 v=115
71945 Par ch=1 c=64 v=117
71950 Par ch=1 c=64 v=119
71955 Par ch=1 c=64 v=121
71960 Par ch=1 c=64 v=123
72000 On ch=1 n=b5 v=0
72000 On ch=1 n=c#5 v=0
72000 On ch=1 n=b4 v=76
72000 On ch=1 n=a#5 v=76
72240 On ch=1 n=b4 v=70
72245 On ch=1 n=b4 v=0
72480 On ch=1 n=b4 v=0
72480 On ch=1 n=a#5 v=0
72480 On ch=1 n=g#5 v=65
72480 On ch=1 n=d#5 v=65
72720 On ch=1 n=d#5 v=60
72725 On ch=1 n=d#5 v=0
72960 On ch=1 n=d#5 v=0
72960 On ch=1 n=f5 v=56
73200 On ch=1 n=f5 v=0
73200 On ch=1 n=d#5 v=52
73440 On ch=1 n=d#5 v=0
73440 On ch=1 n=f5 v=52
73680 On ch=1 n=f5 v=0
73680 On ch=1 n=d#5 v=52
73805 Par ch=1 c=66 v=15
73810 Par ch=1 c=66 v=30
73815 Par ch=1 c=66 v=46
73820 Par ch=1 c=66 v=61
73825 Par ch=1 c=66 v=76
73830 Par ch=1 c=66 v=92
73835 Par ch=1 c=66 v=107
73840 Par ch=1 c=66 v=123
73920 On ch=1 n=d#5 v=0
73920 On ch=1 n=f5 v=52
74160 On ch=1 n=f5 v=0
74160 On ch=1 n=g#5 v=0
74160 On ch=1 n=a#5 v=53
74160 On ch=1 n=d#5 v=53
74400 On ch=1 n=d#5 v=0
74400 On ch=1 n=a#5 v=0
74400 On ch=1 n=c#6 v=52
74400 On ch=1 n=c#5 v=52
74540 Par ch=1 c=64 v=122
74560 Par ch=1 c=64 v=121
74600 Par ch=1 c=64 v=122
74620 Par ch=1 c=64 v=121
74640 On ch=1 n=c#6 v=0
74640 On ch=1 n=c#5 v=52
74640 On ch=1 n=a#5 v=52
74640 Par ch=1 c=64 v=120
74645 On ch=1 n=c#5 v=0
74645 Par ch=1 c=64 v=109
74650 Par ch=1 c=64 v=98
74655 Par ch=1 c=64 v=87
74660 Par ch=1 c=64 v=76
74665 Par ch=1 c=64 v=65
74670 Par ch=1 c=64 v=54
74675 Par ch=1 c=64 v=43
74680 Par ch=1 c=64 v=32
74685 Par ch=1 c=64 v=29
74690 Par ch=1 c=64 v=25
74695 Par ch=1 c=64 v=22
74700 Par ch=1 c=64 v=18
74705 Par ch=1 c=64 v=15
74710 Par ch=1 c=64 v=11
74715 Par ch=1 c=64 v=8
74720 Par ch=1 c=64 v=4
74735 Par ch=1 c=64 v=3
74750 Par ch=1 c=64 v=2
74760 Par ch=1 c=64 v=1
74800 Par ch=1 c=64 v=0
74805 Par ch=1 c=64 v=15
74810 Par ch=1 c=64 v=30
74815 Par ch=1 c=64 v=46
74820 Par ch=1 c=64 v=61
74825 Par ch=1 c=64 v=76
74830 Par ch=1 c=64 v=92
74835 Par ch=1 c=64 v=107
74840 Par ch=1 c=66 v=122
74840 Par ch=1 c=64 v=123
74880 On ch=1 n=a#5 v=0
74880 On ch=1 n=c#5 v=0
74880 On ch=1 n=f#5 v=60
75360 On ch=1 n=f#5 v=60
75365 On ch=1 n=f#5 v=0
75840 On ch=1 n=d#5 v=75
75840 On ch=1 n=f#5 v=75
75845 On ch=1 n=f#5 v=0
76000 Par ch=1 c=64 v=21
76005 Par ch=1 c=64 v=20
76010 Par ch=1 c=64 v=19
76015 Par ch=1 c=64 v=18
76020 Par ch=1 c=64 v=17
76025 Par ch=1 c=64 v=16
76030 Par ch=1 c=64 v=15
76035 Par ch=1 c=64 v=14
76040 Par ch=1 c=64 v=10
76045 Par ch=1 c=64 v=12
76050 Par ch=1 c=64 v=11
76055 Par ch=1 c=64 v=10
76060 Par ch=1 c=64 v=9
76065 Par ch=1 c=64 v=8
76070 Par ch=1 c=64 v=7
76075 Par ch=1 c=64 v=6
76080 Par ch=1 c=64 v=4
76085 Par ch=1 c=64 v=12
76090 Par ch=1 c=64 v=20
76095 Par ch=1 c=64 v=29
76100 Par ch=1 c=64 v=37
76105 Par ch=1 c=64 v=45
76110 Par ch=1 c=64 v=54
76115 Par ch=1 c=64 v=62
76120 Par ch=1 c=64 v=71
76125 Par ch=1 c=64 v=76
76130 Par ch=1 c=64 v=81
76135 Par ch=1 c=64 v=86
76140 Par ch=1 c=64 v=91
76145 Par ch=1 c=64 v=96
76150 Par ch=1 c=64 v=101
76155 Par ch=1 c=64 v=106
76160 Par ch=1 c=64 v=112
76165 Par ch=1 c=64 v=113
76170 Par ch=1 c=64 v=114
76175 Par ch=1 c=64 v=115
76180 Par ch=1 c=64 v=116
76185 Par ch=1 c=64 v=117
76190 Par ch=1 c=64 v=118
76195 Par ch=1 c=64 v=119
76200 Par ch=1 c=64 v=121
76240 Par ch=1 c=64 v=122
76280 Par ch=1 c=64 v=123
76320 On ch=1 n=d#5 v=91
76320 On ch=1 n=f#5 v=91
76320 On ch=1 n=g#5 v=91
76325 On ch=1 n=f#5 v=0
76325 On ch=1 n=d#5 v=0
76800 On ch=1 n=f#5 v=0
76800 On ch=1 n=d#5 v=0
76800 On ch=1 n=c#5 v=87
76800 On ch=1 n=f5 v=87
77280 On ch=1 n=f5 v=0
77280 On ch=1 n=c#5 v=0
77280 On ch=1 n=d#5 v=80
77280 On ch=1 n=g#5 v=80
77280 Par ch=1 c=66 v=123
77285 On ch=1 n=g#5 v=0
77360 Par ch=1 c=64 v=122
77445 Par ch=1 c=64 v=114
77450 Par ch=1 c=64 v=105
77455 Par ch=1 c=64 v=97
77460 Par ch=1 c=64 v=88
77465 Par ch=1 c=64 v=79
77470 Par ch=1 c=64 v=71
77475 Par ch=1 c=64 v=62
77480 Par ch=1 c=64 v=53
77485 Par ch=1 c=64 v=48
77490 Par ch=1 c=64 v=43
77495 Par ch=1 c=64 v=38
77500 Par ch=1 c=64 v=33
77505 Par ch=1 c=64 v=28
77510 Par ch=1 c=64 v=23
77515 Par ch=1 c=64 v=18
77520 Par ch=1 c=64 v=12
77525 Par ch=1 c=64 v=18
77530 Par ch=1 c=64 v=24
77535 Par ch=1 c=64 v=30
77540 Par ch=1 c=64 v=36
77545 Par ch=1 c=64 v=42
77550 Par ch=1 c=64 v=48
77555 Par ch=1 c=64 v=54
77560 Par ch=1 c=64 v=61
77565 Par ch=1 c=64 v=66
77570 Par ch=1 c=64 v=71
77575 Par ch=1 c=64 v=76
77580 Par ch=1 c=64 v=82
77585 Par ch=1 c=64 v=87
77590 Par ch=1 c=64 v=92
77595 Par ch=1 c=64 v=97
77600 Par ch=1 c=64 v=103
77605 Par ch=1 c=64 v=104
77610 Par ch=1 c=64 v=106
77615 Par ch=1 c=64 v=108
77620 Par ch=1 c=64 v=110
77625 Par ch=1 c=64 v=112
77630 Par ch=1 c=64 v=114
77635 Par ch=1 c=64 v=116
77640 Par ch=1 c=64 v=118
77655 Par ch=1 c=64 v=119
77670 Par ch=1 c=64 v=120
77680 Par ch=1 c=64 v=121
77720 Par ch=1 c=64 v=122
77760 On ch=1 n=b4 v=74
77760 Par ch=1 c=64 v=123
77760 On ch=1 n=d#5 v=74
77760 On ch=1 n=g#5 v=74
77765 On ch=1 n=g#5 v=0
77765 On ch=1 n=d#5 v=0
78045 Par ch=1 c=64 v=112
78050 Par ch=1 c=64 v=101
78055 Par ch=1 c=64 v=89
78060 Par ch=1 c=64 v=78
78065 Par ch=1 c=64 v=67
78070 Par ch=1 c=64 v=55
78075 Par ch=1 c=64 v=44
78080 Par ch=1 c=64 v=32
78085 Par ch=1 c=64 v=30
78090 Par ch=1 c=64 v=27
78095 Par ch=1 c=64 v=25
78100 Par ch=1 c=64 v=22
78105 Par ch=1 c=64 v=20
78110 Par ch=1 c=64 v=17
78115 Par ch=1 c=64 v=15
78120 Par ch=1 c=64 v=12
78130 Par ch=1 c=64 v=11
78135 Par ch=1 c=64 v=10
78140 Par ch=1 c=64 v=9
78145 Par ch=1 c=64 v=8
78150 Par ch=1 c=64 v=7
78155 Par ch=1 c=64 v=6
78160 Par ch=1 c=64 v=5
78165 Par ch=1 c=64 v=17
78170 Par ch=1 c=64 v=30
78175 Par ch=1 c=64 v=43
78180 Par ch=1 c=64 v=56
78185 Par ch=1 c=64 v=69
78190 Par ch=1 c=64 v=82
78195 Par ch=1 c=64 v=95
78200 Par ch=1 c=64 v=108
78205 Par ch=1 c=64 v=109
78210 Par ch=1 c=64 v=111
78215 Par ch=1 c=64 v=113
78220 Par ch=1 c=64 v=115
78225 Par ch=1 c=64 v=117
78230 Par ch=1 c=64 v=119
78235 Par ch=1 c=64 v=121
78240 On ch=1 n=g#5 v=0
78240 On ch=1 n=d#5 v=0
78240 On ch=1 n=b4 v=0
78240 On ch=1 n=c#5 v=67
78240 On ch=1 n=a#4 v=67
78240 On ch=1 n=a#5 v=67
78240 Par ch=1 c=64 v=123
78605 Par ch=1 c=64 v=109
78610 Par ch=1 c=64 v=94
78615 Par ch=1 c=64 v=79
78620 Par ch=1 c=64 v=64
78625 Par ch=1 c=64 v=49
78630 Par ch=1 c=64 v=34
78635 Par ch=1 c=64 v=19
78640 Par ch=1 c=64 v=4
78645 Par ch=1 c=64 v=10
78650 Par ch=1 c=64 v=22
78655 Par ch=1 c=64 v=31
78660 Par ch=1 c=64 v=40
78665 Par ch=1 c=64 v=49
78670 Par ch=1 c=64 v=58
78675 Par ch=1 c=64 v=67
78680 Par ch=1 c=64 v=76
78685 Par ch=1 c=64 v=81
78690 Par ch=1 c=64 v=86
78695 Par ch=1 c=64 v=91
78700 Par ch=1 c=64 v=96
78705 Par ch=1 c=64 v=101
78710 Par ch=1 c=64 v=106
78715 Par ch=1 c=64 v=111
78720 On ch=1 n=a#5 v=0
78720 On ch=1 n=a#4 v=0
78720 On ch=1 n=c#5 v=0
78720 On ch=1 n=g#5 v=59
78720 Par ch=1 c=64 v=117
78720 On ch=1 n=d#5 v=59
78720 On ch=1 n=b4 v=59
78730 Par ch=1 c=64 v=118
78740 Par ch=1 c=64 v=119
78745 Par ch=1 c=64 v=120
78755 Par ch=1 c=64 v=121
78760 Par ch=1 c=64 v=122
78800 Par ch=1 c=64 v=123
78840 Par ch=1 c=64 v=122
78925 Par ch=1 c=64 v=108
78930 Par ch=1 c=64 v=93
78935 Par ch=1 c=64 v=79
78940 Par ch=1 c=64 v=64
78945 Par ch=1 c=64 v=49
78950 Par ch=1 c=64 v=35
78955 Par ch=1 c=64 v=20
78960 Par ch=1 c=64 v=5
78980 Par ch=1 c=64 v=6
79000 Par ch=1 c=64 v=7
79045 Par ch=1 c=64 v=20
79050 Par ch=1 c=64 v=34
79055 Par ch=1 c=64 v=47
79060 Par ch=1 c=64 v=61
79065 Par ch=1 c=64 v=74
79070 Par ch=1 c=64 v=88
79075 Par ch=1 c=64 v=101
79080 Par ch=1 c=64 v=115
79100 Par ch=1 c=64 v=116
79120 Par ch=1 c=64 v=117
79160 Par ch=1 c=64 v=118
79200 On ch=1 n=b4 v=0
79200 On ch=1 n=d#5 v=0
79200 On ch=1 n=g#5 v=0
79200 On ch=1 n=c#5 v=49
79200 On ch=1 n=a#4 v=49
79200 On ch=1 n=a#5 v=49
79200 Par ch=1 c=64 v=119
80325 Par ch=1 c=64 v=112
80330 Par ch=1 c=64 v=105
80335 Par ch=1 c=64 v=98
80340 Par ch=1 c=64 v=91
80345 Par ch=1 c=64 v=84
80350 Par ch=1 c=64 v=77
80355 Par ch=1 c=64 v=70
80360 Par ch=1 c=64 v=63
80365 Par ch=1 c=64 v=58
80370 Par ch=1 c=64 v=53
80375 Par ch=1 c=64 v=48
80380 Par ch=1 c=64 v=43
80385 Par ch=1 c=64 v=38
80390 Par ch=1 c=64 v=33
80395 Par ch=1 c=64 v=28
80400 Par ch=1 c=64 v=22
80405 Par ch=1 c=64 v=21
80410 Par ch=1 c=64 v=19
80415 Par ch=1 c=64 v=18
80420 Par ch=1 c=64 v=16
80425 Par ch=1 c=64 v=15
80430 Par ch=1 c=64 v=10
80435 Par ch=1 c=64 v=12
80440 Par ch=1 c=64 v=10
80445 Par ch=1 c=64 v=17
80450 Par ch=1 c=64 v=25
80455 Par ch=1 c=64 v=32
80460 Par ch=1 c=64 v=40
80465 Par ch=1 c=64 v=48
80470 Par ch=1 c=64 v=55
80475 Par ch=1 c=64 v=63
80480 Par ch=1 c=64 v=71
80485 Par ch=1 c=64 v=75
80490 Par ch=1 c=64 v=80
80495 Par ch=1 c=64 v=84
80500 Par ch=1 c=64 v=89
80505 Par ch=1 c=64 v=94
80510 Par ch=1 c=64 v=98
80515 Par ch=1 c=64 v=103
80520 Par ch=1 c=64 v=108
80525 Par ch=1 c=64 v=109
80530 Par ch=1 c=64 v=111
80535 Par ch=1 c=64 v=112
80540 Par ch=1 c=64 v=114
80545 Par ch=1 c=64 v=115
80550 Par ch=1 c=64 v=117
80555 Par ch=1 c=64 v=118
80560 Par ch=1 c=66 v=122
80560 Par ch=1 c=64 v=120
80565 Par ch=1 c=66 v=107
80570 Par ch=1 c=66 v=92
80575 Par ch=1 c=66 v=77
80580 Par ch=1 c=66 v=61
80580 Par ch=1 c=64 v=121
80585 Par ch=1 c=66 v=46
80590 Par ch=1 c=66 v=31
80595 Par ch=1 c=66 v=16
80600 Par ch=1 c=66 v=0
80600 Par ch=1 c=64 v=122
80640 On ch=1 n=a#4 v=0
80640 On ch=1 n=c#5 v=0
80640 Par ch=1 c=64 v=123
80640 On ch=1 n=e5 v=57
80640 On ch=1 n=a#5 v=57
80645 On ch=1 n=a#5 v=0
81680 Par ch=1 c=64 v=122
81845 Par ch=1 c=64 v=111
81850 Par ch=1 c=64 v=99
81855 Par ch=1 c=64 v=88
81860 Par ch=1 c=64 v=76
81865 Par ch=1 c=64 v=65
81870 Par ch=1 c=64 v=53
81875 Par ch=1 c=64 v=42
81880 Par ch=1 c=64 v=30
81885 Par ch=1 c=64 v=27
81890 Par ch=1 c=64 v=24
81895 Par ch=1 c=64 v=20
81900 Par ch=1 c=64 v=17
81905 Par ch=1 c=64 v=14
81910 Par ch=1 c=64 v=10
81915 Par ch=1 c=64 v=7
81920 Par ch=1 c=64 v=3
81925 Par ch=1 c=64 v=12
81930 Par ch=1 c=64 v=22
81935 Par ch=1 c=64 v=31
81940 Par ch=1 c=64 v=41
81945 Par ch=1 c=64 v=50
81950 Par ch=1 c=64 v=60
81955 Par ch=1 c=64 v=69
81960 Par ch=1 c=64 v=79
81965 Par ch=1 c=64 v=83
81970 Par ch=1 c=64 v=87
81975 Par ch=1 c=64 v=91
81980 Par ch=1 c=64 v=96
81985 Par ch=1 c=64 v=100
81990 Par ch=1 c=64 v=104
81995 Par ch=1 c=64 v=108
82000 Par ch=1 c=64 v=113
82010 Par ch=1 c=64 v=114
82020 Par ch=1 c=64 v=115
82025 Par ch=1 c=64 v=116
82035 Par ch=1 c=64 v=117
82040 Par ch=1 c=64 v=118
82080 On ch=1 n=e5 v=52
82080 Par ch=1 c=64 v=119
82080 On ch=1 n=a#5 v=52
82085 On ch=1 n=a#5 v=0
82085 On ch=1 n=e5 v=0
83205 Par ch=1 c=64 v=111
83210 Par ch=1 c=64 v=103
83215 Par ch=1 c=64 v=95
83220 Par ch=1 c=64 v=86
83225 Par ch=1 c=64 v=78
83230 Par ch=1 c=64 v=70
83235 Par ch=1 c=64 v=62
83240 Par ch=1 c=64 v=53
83245 Par ch=1 c=64 v=48
83250 Par ch=1 c=64 v=43
83255 Par ch=1 c=64 v=38
83260 Par ch=1 c=64 v=33
83265 Par ch=1 c=64 v=28
83270 Par ch=1 c=64 v=23
83275 Par ch=1 c=64 v=18
83280 Par ch=1 c=64 v=10
83285 Par ch=1 c=64 v=12
83290 Par ch=1 c=64 v=11
83295 Par ch=1 c=64 v=10
83300 Par ch=1 c=64 v=8
83305 Par ch=1 c=64 v=7
83310 Par ch=1 c=64 v=6
83315 Par ch=1 c=64 v=5
83320 Par ch=1 c=64 v=3
83360 Par ch=1 c=64 v=2
83365 Par ch=1 c=64 v=11
83370 Par ch=1 c=64 v=21
83375 Par ch=1 c=64 v=30
83380 Par ch=1 c=64 v=40
83385 Par ch=1 c=64 v=50
83390 Par ch=1 c=64 v=59
83395 Par ch=1 c=64 v=69
83400 On ch=1 n=a#5 v=0
83400 Par ch=1 c=64 v=79
83400 On ch=1 n=b5 v=69
83405 Par ch=1 c=64 v=83
83410 Par ch=1 c=64 v=87
83415 Par ch=1 c=64 v=91
83420 Par ch=1 c=64 v=96
83425 Par ch=1 c=64 v=100
83430 Par ch=1 c=64 v=104
83435 Par ch=1 c=64 v=108
83440 Par ch=1 c=64 v=113
83450 Par ch=1 c=64 v=114
83460 Par ch=1 c=64 v=115
83465 Par ch=1 c=64 v=116
83475 Par ch=1 c=64 v=117
83480 Par ch=1 c=64 v=118
83520 On ch=1 n=b5 v=0
83520 On ch=1 n=e5 v=71
83520 On ch=1 n=c#6 v=71
83520 On ch=1 n=a#5 v=71
83520 Par ch=1 c=64 v=119
83525 On ch=1 n=e5 v=0
84645 Par ch=1 c=64 v=111
84650 Par ch=1 c=64 v=103
84655 Par ch=1 c=64 v=95
84660 Par ch=1 c=64 v=86
84665 Par ch=1 c=64 v=78
84670 Par ch=1 c=64 v=70
84675 Par ch=1 c=64 v=62
84680 Par ch=1 c=64 v=53
84685 Par ch=1 c=64 v=48
84690 Par ch=1 c=64 v=43
84695 Par ch=1 c=64 v=38
84700 Par ch=1 c=64 v=33
84705 Par ch=1 c=64 v=28
84710 Par ch=1 c=64 v=23
84715 Par ch=1 c=64 v=18
84720 Par ch=1 c=64 v=10
84725 Par ch=1 c=64 v=12
84730 Par ch=1 c=64 v=11
84735 Par ch=1 c=64 v=10
84740 Par ch=1 c=64 v=8
84745 Par ch=1 c=64 v=7
84750 Par ch=1 c=64 v=6
84755 Par ch=1 c=64 v=5
84760 Par ch=1 c=64 v=3
84800 Par ch=1 c=64 v=2
84805 Par ch=1 c=64 v=11
84810 Par ch=1 c=64 v=21
84815 Par ch=1 c=64 v=30
84820 Par ch=1 c=64 v=40
84825 Par ch=1 c=64 v=50
84830 Par ch=1 c=64 v=59
84835 Par ch=1 c=64 v=69
84840 Par ch=1 c=64 v=79
84845 Par ch=1 c=64 v=83
84850 Par ch=1 c=64 v=87
84855 Par ch=1 c=64 v=91
84860 Par ch=1 c=64 v=96
84865 Par ch=1 c=64 v=100
84870 Par ch=1 c=64 v=104
84875 Par ch=1 c=64 v=108
84880 Par ch=1 c=64 v=113
84890 Par ch=1 c=64 v=114
84900 Par ch=1 c=64 v=115
84905 Par ch=1 c=64 v=116
84915 Par ch=1 c=64 v=117
84920 Par ch=1 c=64 v=118
84960 On ch=1 n=c#6 v=0
84960 On ch=1 n=f#6 v=91
84960 On ch=1 n=a#5 v=91
84960 On ch=1 n=d#6 v=91
84960 Par ch=1 c=64 v=119
84960 On ch=1 n=e5 v=91
84965 On ch=1 n=a#5 v=0
84965 On ch=1 n=e5 v=0
86085 Par ch=1 c=64 v=111
86090 Par ch=1 c=64 v=103
86095 Par ch=1 c=64 v=95
86100 Par ch=1 c=64 v=86
86105 Par ch=1 c=64 v=78
86110 Par ch=1 c=64 v=70
86115 Par ch=1 c=64 v=62
86120 Par ch=1 c=64 v=53
86125 Par ch=1 c=64 v=48
86130 Par ch=1 c=64 v=43
86135 Par ch=1 c=64 v=38
86140 Par ch=1 c=64 v=33
86145 Par ch=1 c=64 v=28
86150 Par ch=1 c=64 v=23
86155 Par ch=1 c=64 v=18
86160 Par ch=1 c=64 v=10
86165 Par ch=1 c=64 v=12
86170 Par ch=1 c=64 v=11
86175 Par ch=1 c=64 v=10
86180 Par ch=1 c=64 v=8
86185 Par ch=1 c=64 v=7
86190 Par ch=1 c=64 v=6
86195 Par ch=1 c=64 v=5
86200 Par ch=1 c=64 v=3
86240 Par ch=1 c=64 v=2
86245 Par ch=1 c=64 v=11
86250 Par ch=1 c=64 v=21
86255 Par ch=1 c=64 v=30
86260 Par ch=1 c=64 v=40
86265 Par ch=1 c=64 v=50
86270 Par ch=1 c=64 v=59
86275 Par ch=1 c=64 v=69
86280 On ch=1 n=d#6 v=0
86280 Par ch=1 c=64 v=79
86280 On ch=1 n=c#6 v=79
86285 Par ch=1 c=64 v=83
86290 Par ch=1 c=64 v=87
86295 Par ch=1 c=64 v=91
86300 Par ch=1 c=64 v=96
86305 Par ch=1 c=64 v=100
86310 Par ch=1 c=64 v=104
86315 Par ch=1 c=64 v=108
86320 Par ch=1 c=64 v=113
86330 Par ch=1 c=64 v=114
86340 Par ch=1 c=64 v=115
86345 Par ch=1 c=64 v=116
86355 Par ch=1 c=64 v=117
86360 Par ch=1 c=64 v=118
86400 On ch=1 n=a#5 v=0
86400 On ch=1 n=f#6 v=76
86400 On ch=1 n=c#6 v=76
86400 On ch=1 n=e5 v=76
86400 Par ch=1 c=64 v=119
86405 On ch=1 n=c#6 v=0
86405 On ch=1 n=e5 v=0
86405 On ch=1 n=f#6 v=0
86925 Par ch=1 c=64 v=110
86930 Par ch=1 c=64 v=100
86935 Par ch=1 c=64 v=91
86940 Par ch=1 c=64 v=81
86945 Par ch=1 c=64 v=71
86950 Par ch=1 c=64 v=62
86955 Par ch=1 c=64 v=52
86960 Par ch=1 c=64 v=42
86965 Par ch=1 c=64 v=38
86970 Par ch=1 c=64 v=34
86975 Par ch=1 c=64 v=30
86980 Par ch=1 c=64 v=25
86985 Par ch=1 c=64 v=21
86990 Par ch=1 c=64 v=17
86995 Par ch=1 c=64 v=10
87000 Par ch=1 c=64 v=8
87010 Par ch=1 c=64 v=7
87020 Par ch=1 c=64 v=6
87025 Par ch=1 c=64 v=5
87035 Par ch=1 c=64 v=4
87040 Par ch=1 c=64 v=3
87080 Par ch=1 c=64 v=2
87685 Par ch=1 c=64 v=105
87690 Par ch=1 c=64 v=91
87695 Par ch=1 c=64 v=76
87700 Par ch=1 c=64 v=62
87705 Par ch=1 c=64 v=48
87710 Par ch=1 c=64 v=33
87715 Par ch=1 c=64 v=19
87720 Par ch=1 c=64 v=4
87730 Par ch=1 c=64 v=3
87740 Par ch=1 c=64 v=2
87750 Par ch=1 c=64 v=1
87760 Par ch=1 c=64 v=0
87840 On ch=1 n=e5 v=0
87840 On ch=1 n=c#6 v=0
87840 On ch=1 n=f#6 v=0
87840 Par ch=1 c=64 v=119
87840 On ch=1 n=d#5 v=52
87840 On ch=1 n=b5 v=52
87840 On ch=1 n=d#6 v=52
89125 Par ch=1 c=64 v=105
89130 Par ch=1 c=64 v=91
89135 Par ch=1 c=64 v=76
89140 Par ch=1 c=64 v=62
89145 Par ch=1 c=64 v=48
89150 Par ch=1 c=64 v=33
89155 Par ch=1 c=64 v=19
89160 Par ch=1 c=64 v=4
89170 Par ch=1 c=64 v=3
89180 Par ch=1 c=64 v=2
89190 Par ch=1 c=64 v=1
89200 Par ch=1 c=64 v=0
89280 On ch=1 n=d#5 v=0
89280 Par ch=1 c=64 v=119
89280 On ch=1 n=g5 v=52
89280 On ch=1 n=b5 v=52
89280 On ch=1 n=c#5 v=52
89280 On ch=1 n=d#6 v=52
89285 On ch=1 n=d#6 v=0
89285 On ch=1 n=b5 v=0
90565 Par ch=1 c=64 v=105
90570 Par ch=1 c=64 v=91
90575 Par ch=1 c=64 v=76
90580 Par ch=1 c=64 v=62
90585 Par ch=1 c=64 v=48
90590 Par ch=1 c=64 v=33
90595 Par ch=1 c=64 v=19
90600 Par ch=1 c=64 v=4
90610 Par ch=1 c=64 v=3
90620 Par ch=1 c=64 v=2
90630 Par ch=1 c=64 v=1
90640 Par ch=1 c=64 v=0
90720 On ch=1 n=d#6 v=0
90720 On ch=1 n=c#5 v=0
90720 On ch=1 n=g5 v=0
90720 On ch=1 n=g#5 v=51
90720 Par ch=1 c=64 v=119
90720 On ch=1 n=b4 v=51
90720 On ch=1 n=b5 v=51
90725 On ch=1 n=b5 v=0
92005 Par ch=1 c=64 v=105
92010 Par ch=1 c=64 v=91
92015 Par ch=1 c=64 v=76
92020 Par ch=1 c=64 v=62
92025 Par ch=1 c=64 v=48
92030 Par ch=1 c=64 v=33
92035 Par ch=1 c=64 v=19
92040 On ch=1 n=b5 v=0
92040 Par ch=1 c=64 v=4
92040 On ch=1 n=d#5 v=52
92050 Par ch=1 c=64 v=3
92060 Par ch=1 c=64 v=2
92070 Par ch=1 c=64 v=1
92080 Par ch=1 c=64 v=0
92160 On ch=1 n=d#5 v=0
92160 Par ch=1 c=64 v=119
92160 On ch=1 n=b4 v=52
92160 On ch=1 n=f5 v=52
92160 On ch=1 n=g#5 v=52
92165 On ch=1 n=b4 v=0
92165 On ch=1 n=g#5 v=0
92400 On ch=1 n=f6 v=59
93445 Par ch=1 c=64 v=105
93450 Par ch=1 c=64 v=91
93455 Par ch=1 c=64 v=76
93460 Par ch=1 c=64 v=62
93465 Par ch=1 c=64 v=48
93470 Par ch=1 c=64 v=33
93475 Par ch=1 c=64 v=19
93480 Par ch=1 c=64 v=4
93490 Par ch=1 c=64 v=3
93500 Par ch=1 c=64 v=2
93510 Par ch=1 c=64 v=1
93520 Par ch=1 c=64 v=0
93600 Par ch=1 c=64 v=119
93600 On ch=1 n=f5 v=52
93600 On ch=1 n=g#5 v=52
93600 On ch=1 n=b4 v=52
93605 On ch=1 n=g#5 v=0
93605 On ch=1 n=f5 v=0
93605 On ch=1 n=b4 v=0
94560 On ch=1 n=b4 v=0
94560 On ch=1 n=g#5 v=0
94560 On ch=1 n=f5 v=0
94560 On ch=1 n=a#5 v=52
94560 On ch=1 n=c#5 v=52
94885 Par ch=1 c=64 v=105
94890 Par ch=1 c=64 v=91
94895 Par ch=1 c=64 v=76
94900 Par ch=1 c=64 v=62
94905 Par ch=1 c=64 v=48
94910 Par ch=1 c=64 v=33
94915 Par ch=1 c=64 v=19
94920 Par ch=1 c=64 v=4
94930 Par ch=1 c=64 v=3
94940 Par ch=1 c=64 v=2
94950 Par ch=1 c=64 v=1
94960 Par ch=1 c=64 v=0
95040 On ch=1 n=c#5 v=0
95040 On ch=1 n=a#5 v=0
95040 On ch=1 n=f6 v=0
95040 Par ch=1 c=64 v=119
95040 On ch=1 n=a#4 v=52
95040 On ch=1 n=f#5 v=52
95280 On ch=1 n=f#6 v=67
96325 Par ch=1 c=64 v=105
96330 Par ch=1 c=64 v=91
96335 Par ch=1 c=64 v=76
96340 Par ch=1 c=64 v=62
96345 Par ch=1 c=64 v=48
96350 Par ch=1 c=64 v=33
96355 Par ch=1 c=64 v=19
96360 Par ch=1 c=64 v=4
96370 Par ch=1 c=64 v=3
96380 Par ch=1 c=64 v=2
96390 Par ch=1 c=64 v=1
96400 Par ch=1 c=64 v=0
96480 On ch=1 n=f#6 v=0
96480 On ch=1 n=f#5 v=0
96480 On ch=1 n=a#4 v=0
96480 On ch=1 n=g#5 v=60
96480 Par ch=1 c=64 v=119
96480 On ch=1 n=d#5 v=60
96480 On ch=1 n=b5 v=60
96720 On ch=1 n=g#6 v=71
97765 Par ch=1 c=64 v=105
97770 Par ch=1 c=64 v=91
97775 Par ch=1 c=64 v=76
97780 Par ch=1 c=64 v=62
97785 Par ch=1 c=64 v=48
97790 Par ch=1 c=64 v=33
97795 Par ch=1 c=64 v=19
97800 Par ch=1 c=64 v=4
97810 Par ch=1 c=64 v=3
97820 Par ch=1 c=64 v=2
97830 Par ch=1 c=64 v=1
97840 Par ch=1 c=64 v=0
97920 On ch=1 n=g#6 v=0
97920 On ch=1 n=b5 v=0
97920 On ch=1 n=d#5 v=0
97920 On ch=1 n=g#5 v=51
97920 Par ch=1 c=64 v=119
97925 On ch=1 n=g#5 v=0
98160 On ch=1 n=f6 v=60
99205 Par ch=1 c=64 v=105
99210 Par ch=1 c=64 v=91
99215 Par ch=1 c=64 v=76
99220 Par ch=1 c=64 v=62
99225 Par ch=1 c=64 v=48
99230 Par ch=1 c=64 v=33
99235 Par ch=1 c=64 v=19
99240 Par ch=1 c=64 v=4
99250 Par ch=1 c=64 v=3
99260 Par ch=1 c=64 v=2
99270 Par ch=1 c=64 v=1
99280 Par ch=1 c=64 v=0
99360 On ch=1 n=g#5 v=0
99360 Par ch=1 c=64 v=119
99360 On ch=1 n=a#5 v=51
100605 Par ch=1 c=64 v=2
100610 Par ch=1 c=64 v=4
100615 Par ch=1 c=64 v=7
100620 Par ch=1 c=64 v=9
100625 Par ch=1 c=64 v=11
100630 Par ch=1 c=64 v=14
100635 Par ch=1 c=64 v=16
100640 Par ch=1 c=64 v=19
100645 Par ch=1 c=64 v=17
100650 Par ch=1 c=64 v=15
100655 Par ch=1 c=64 v=10
100660 Par ch=1 c=64 v=10
100665 Par ch=1 c=64 v=8
100670 Par ch=1 c=64 v=6
100675 Par ch=1 c=64 v=4
100680 On ch=1 n=f6 v=0
100680 Par ch=1 c=64 v=1
100680 On ch=1 n=f#6 v=49
100720 Par ch=1 c=64 v=0
100765 Par ch=1 c=64 v=14
100770 Par ch=1 c=64 v=29
100775 Par ch=1 c=64 v=44
100780 Par ch=1 c=64 v=59
100785 Par ch=1 c=64 v=74
100790 Par ch=1 c=64 v=89
100795 Par ch=1 c=64 v=104
100800 On ch=1 n=f#6 v=0
100800 On ch=1 n=a#5 v=0
100800 Par ch=1 c=64 v=119
100800 On ch=1 n=f#5 v=49
100800 On ch=1 n=a#4 v=49
101040 On ch=1 n=f#6 v=57
102045 Par ch=1 c=64 v=107
102050 Par ch=1 c=64 v=94
102055 Par ch=1 c=64 v=82
102060 Par ch=1 c=64 v=69
102065 Par ch=1 c=64 v=57
102070 Par ch=1 c=64 v=44
102075 Par ch=1 c=64 v=32
102080 Par ch=1 c=64 v=19
102085 Par ch=1 c=64 v=17
102090 Par ch=1 c=64 v=15
102095 Par ch=1 c=64 v=10
102100 Par ch=1 c=64 v=10
102105 Par ch=1 c=64 v=8
102110 Par ch=1 c=64 v=6
102115 Par ch=1 c=64 v=4
102120 Par ch=1 c=64 v=1
102160 Par ch=1 c=64 v=0
102205 Par ch=1 c=64 v=14
102210 Par ch=1 c=64 v=29
102215 Par ch=1 c=64 v=44
102220 Par ch=1 c=64 v=59
102225 Par ch=1 c=64 v=74
102230 Par ch=1 c=64 v=89
102235 Par ch=1 c=64 v=104
102240 Par ch=1 c=64 v=119
103485 Par ch=1 c=64 v=107
103490 Par ch=1 c=64 v=94
103495 Par ch=1 c=64 v=82
103500 Par ch=1 c=64 v=69
103505 Par ch=1 c=64 v=57
103510 Par ch=1 c=64 v=44
103515 Par ch=1 c=64 v=32
103520 Par ch=1 c=64 v=19
103525 Par ch=1 c=64 v=17
103530 Par ch=1 c=64 v=15
103535 Par ch=1 c=64 v=10
103540 Par ch=1 c=64 v=10
103545 Par ch=1 c=64 v=8
103550 Par ch=1 c=64 v=6
103555 Par ch=1 c=64 v=4
103560 Par ch=1 c=64 v=1
103600 Par ch=1 c=64 v=0
103645 Par ch=1 c=66 v=15
103645 Par ch=1 c=64 v=14
103650 Par ch=1 c=64 v=28
103650 Par ch=1 c=66 v=30
103655 Par ch=1 c=64 v=43
103655 Par ch=1 c=66 v=45
103660 Par ch=1 c=64 v=57
103660 Par ch=1 c=66 v=61
103665 Par ch=1 c=64 v=71
103665 Par ch=1 c=66 v=76
103670 Par ch=1 c=64 v=86
103670 Par ch=1 c=66 v=91
103675 Par ch=1 c=64 v=100
103675 Par ch=1 c=66 v=106
103680 On ch=1 n=f#6 v=0
103680 On ch=1 n=a#4 v=0
103680 On ch=1 n=f#5 v=0
103680 Par ch=1 c=64 v=115
103680 Tempo 923076
103680 Par ch=1 c=66 v=122
103720 Par ch=1 c=64 v=114
103920 On ch=1 n=a#4 v=58
104160 On ch=1 n=a#4 v=65
104165 On ch=1 n=a#4 v=0
104400 On ch=1 n=a#4 v=73
104405 On ch=1 n=a#4 v=0
104640 On ch=1 n=a#4 v=0
104880 On ch=1 n=a#4 v=81
105120 On ch=1 n=a#5 v=100
105120 On ch=1 n=a#4 v=100
105125 On ch=1 n=a#4 v=0
105360 On ch=1 n=a#4 v=0
105360 On ch=1 n=c#5 v=85
105400 Par ch=1 c=64 v=115
105600 On ch=1 n=c#5 v=0
105600 On ch=1 n=b4 v=75
105660 Par ch=1 c=64 v=116
105680 Par ch=1 c=64 v=117
105840 On ch=1 n=b4 v=0
105840 On ch=1 n=a#4 v=69
105885 Par ch=1 c=64 v=103
105890 Par ch=1 c=64 v=88
105895 Par ch=1 c=64 v=74
105900 Par ch=1 c=64 v=59
105905 Par ch=1 c=64 v=44
105910 Par ch=1 c=64 v=30
105915 Par ch=1 c=64 v=15
105920 Par ch=1 c=64 v=0
106045 Par ch=1 c=64 v=14
106050 Par ch=1 c=64 v=29
106055 Par ch=1 c=64 v=44
106060 Par ch=1 c=64 v=59
106065 Par ch=1 c=64 v=73
106070 Par ch=1 c=64 v=88
106075 Par ch=1 c=64 v=103
106080 On ch=1 n=a#5 v=0
106080 On ch=1 n=a5 v=74
106080 On ch=1 n=a#4 v=74
106080 Par ch=1 c=64 v=118
106085 On ch=1 n=a#4 v=0
106200 On ch=1 n=a5 v=0
106200 On ch=1 n=a#5 v=62
106320 On ch=1 n=a#5 v=0
106320 On ch=1 n=c#6 v=60
106320 On ch=1 n=a#4 v=60
106325 On ch=1 n=a#4 v=0
106405 Par ch=1 c=64 v=104
106410 Par ch=1 c=64 v=90
106415 Par ch=1 c=64 v=76
106420 Par ch=1 c=64 v=61
106425 Par ch=1 c=64 v=47
106430 Par ch=1 c=64 v=33
106435 Par ch=1 c=64 v=19
106440 On ch=1 n=c#6 v=0
106440 Par ch=1 c=64 v=4
106440 On ch=1 n=b5 v=57
106450 Par ch=1 c=64 v=3
106460 Par ch=1 c=64 v=2
106470 Par ch=1 c=64 v=1
106480 Par ch=1 c=64 v=0
106525 Par ch=1 c=64 v=14
106530 Par ch=1 c=64 v=29
106535 Par ch=1 c=64 v=44
106540 Par ch=1 c=64 v=59
106545 Par ch=1 c=64 v=74
106550 Par ch=1 c=64 v=89
106555 Par ch=1 c=64 v=104
106560 On ch=1 n=b5 v=0
106560 Par ch=1 c=64 v=119
106560 On ch=1 n=a#4 v=51
106560 On ch=1 n=a#5 v=51
106565 On ch=1 n=a#4 v=0
106640 Par ch=1 c=66 v=123
109120 Par ch=1 c=66 v=122
109140 Par ch=1 c=66 v=121
109160 Par ch=1 c=66 v=120
109245 Par ch=1 c=64 v=107
109250 Par ch=1 c=64 v=94
109255 Par ch=1 c=64 v=82
109260 Par ch=1 c=64 v=69
109265 Par ch=1 c=64 v=57
109270 Par ch=1 c=64 v=44
109275 Par ch=1 c=64 v=32
109280 Par ch=1 c=64 v=19
109280 Par ch=1 c=66 v=119
109285 Par ch=1 c=64 v=17
109290 Par ch=1 c=64 v=15
109295 Par ch=1 c=64 v=10
109300 Par ch=1 c=64 v=10
109305 Par ch=1 c=64 v=8
109310 Par ch=1 c=64 v=6
109315 Par ch=1 c=64 v=4
109320 Par ch=1 c=64 v=1
109360 Par ch=1 c=64 v=0
109405 Par ch=1 c=64 v=14
109405 Par ch=1 c=66 v=105
109410 Par ch=1 c=64 v=29
109410 Par ch=1 c=66 v=90
109415 Par ch=1 c=64 v=44
109415 Par ch=1 c=66 v=75
109420 Par ch=1 c=64 v=59
109420 Par ch=1 c=66 v=60
109425 Par ch=1 c=64 v=74
109425 Par ch=1 c=66 v=45
109430 Par ch=1 c=64 v=89
109430 Par ch=1 c=66 v=30
109435 Par ch=1 c=66 v=15
109435 Par ch=1 c=64 v=104
109440 On ch=1 n=a#5 v=0
109440 On ch=1 n=a#4 v=0
109440 Par ch=1 c=66 v=0
109440 Meta TrkEnd
TrkEnd
MTrk
0 SeqSpec 43 00 01 00
0 Meta TrkName "Left Hand"
0 Par ch=2 c=0 v=0
0 PrCh ch=2 p=0
0 Par ch=2 c=7 v=99
0 On ch=2 n=f#3 v=51
0 Par ch=2 c=93 v=0
0 Par ch=2 c=91 v=40
0 Par ch=2 c=10 v=64
0 Par ch=2 c=64 v=119
0 SeqSpec 4a 41 5a 5a 01 00 00 00 00 00 00 00 00 00 00 00 00 00 00 00
240 On ch=2 n=f#3 v=0
240 On ch=2 n=f4 v=51
480 On ch=2 n=f4 v=0
480 On ch=2 n=g#4 v=51
720 On ch=2 n=g#4 v=0
720 On ch=2 n=f#4 v=51
960 On ch=2 n=f#4 v=0
960 On ch=2 n=a#4 v=51
1200 On ch=2 n=a#4 v=0
1200 On ch=2 n=c#4 v=49
1285 Par ch=2 c=64 v=105
1290 Par ch=2 c=64 v=91
1295 Par ch=2 c=64 v=76
1300 Par ch=2 c=64 v=62
1305 Par ch=2 c=64 v=48
1310 Par ch=2 c=64 v=33
1315 Par ch=2 c=64 v=19
1320 Par ch=2 c=64 v=4
1330 Par ch=2 c=64 v=3
1340 Par ch=2 c=64 v=2
1350 Par ch=2 c=64 v=1
1360 Par ch=2 c=64 v=0
1440 On ch=2 n=c#4 v=0
1440 Par ch=2 c=64 v=119
1440 On ch=2 n=f#3 v=49
1680 On ch=2 n=f#3 v=0
1680 On ch=2 n=f4 v=49
1920 On ch=2 n=f4 v=0
1920 On ch=2 n=g#4 v=49
2160 On ch=2 n=g#4 v=0
2160 On ch=2 n=f#4 v=49
2400 On ch=2 n=f#4 v=0
2400 On ch=2 n=a#4 v=51
2640 On ch=2 n=a#4 v=0
2640 On ch=2 n=c#4 v=51
2725 Par ch=2 c=64 v=105
2730 Par ch=2 c=64 v=91
2735 Par ch=2 c=64 v=76
2740 Par ch=2 c=64 v=62
2745 Par ch=2 c=64 v=48
2750 Par ch=2 c=64 v=33
2755 Par ch=2 c=64 v=19
2760 Par ch=2 c=64 v=4
2770 Par ch=2 c=64 v=3
2780 Par ch=2 c=64 v=2
2790 Par ch=2 c=64 v=1
2800 Par ch=2 c=64 v=0
2880 On ch=2 n=c#4 v=0
2880 On ch=2 n=c#5 v=52
2880 Par ch=2 c=64 v=119
2880 On ch=2 n=f#3 v=52
3120 On ch=2 n=f#3 v=0
3120 On ch=2 n=f4 v=52
3360 On ch=2 n=f4 v=0
3360 On ch=2 n=g#4 v=52
3600 On ch=2 n=g#4 v=0
3600 On ch=2 n=f#4 v=52
3840 On ch=2 n=f#4 v=0
3840 On ch=2 n=a#4 v=52
4080 On ch=2 n=a#4 v=0
4080 On ch=2 n=c#4 v=52
4165 Par ch=2 c=64 v=105
4170 Par ch=2 c=64 v=91
4175 Par ch=2 c=64 v=76
4180 Par ch=2 c=64 v=62
4185 Par ch=2 c=64 v=48
4190 Par ch=2 c=64 v=33
4195 Par ch=2 c=64 v=19
4200 Par ch=2 c=64 v=4
4210 Par ch=2 c=64 v=3
4220 Par ch=2 c=64 v=2
4230 Par ch=2 c=64 v=1
4240 Par ch=2 c=64 v=0
4320 On ch=2 n=c#4 v=0
4320 On ch=2 n=c#3 v=52
4320 Par ch=2 c=64 v=119
4560 On ch=2 n=c#3 v=0
4560 On ch=2 n=g4 v=52
4800 On ch=2 n=g4 v=0
4800 On ch=2 n=a#4 v=52
5040 On ch=2 n=a#4 v=0
5040 On ch=2 n=g#4 v=52
5280 On ch=2 n=g#4 v=0
5280 On ch=2 n=b4 v=52
5520 On ch=2 n=b4 v=0
5520 On ch=2 n=c#4 v=52
5565 Par ch=2 c=64 v=2
5570 Par ch=2 c=64 v=4
5575 Par ch=2 c=64 v=7
5580 Par ch=2 c=64 v=9
5585 Par ch=2 c=64 v=11
5590 Par ch=2 c=64 v=14
5595 Par ch=2 c=64 v=16
5600 Par ch=2 c=64 v=19
5605 Par ch=2 c=64 v=17
5610 Par ch=2 c=64 v=15
5615 Par ch=2 c=64 v=10
5620 Par ch=2 c=64 v=10
5625 Par ch=2 c=64 v=8
5630 Par ch=2 c=64 v=6
5635 Par ch=2 c=64 v=4
5640 Par ch=2 c=64 v=1
5680 Par ch=2 c=64 v=0
5725 Par ch=2 c=64 v=14
5730 Par ch=2 c=64 v=29
5735 Par ch=2 c=64 v=44
5740 Par ch=2 c=64 v=59
5745 Par ch=2 c=64 v=74
5750 Par ch=2 c=64 v=89
5755 Par ch=2 c=64 v=104
5760 On ch=2 n=c#4 v=0
5760 On ch=2 n=c#5 v=0
5760 On ch=2 n=f#3 v=52
5760 Par ch=2 c=64 v=119
6000 On ch=2 n=f#3 v=0
6000 On ch=2 n=f4 v=52
6240 On ch=2 n=f4 v=0
6240 On ch=2 n=g#4 v=52
6480 On ch=2 n=g#4 v=0
6480 On ch=2 n=f#4 v=52
6720 On ch=2 n=f#4 v=0
6720 On ch=2 n=a#4 v=52
6960 On ch=2 n=a#4 v=0
6960 On ch=2 n=c#4 v=52
7005 Par ch=2 c=64 v=107
7010 Par ch=2 c=64 v=94
7015 Par ch=2 c=64 v=82
7020 Par ch=2 c=64 v=69
7025 Par ch=2 c=64 v=57
7030 Par ch=2 c=64 v=44
7035 Par ch=2 c=64 v=32
7040 Par ch=2 c=64 v=19
7045 Par ch=2 c=64 v=17
7050 Par ch=2 c=64 v=15
7055 Par ch=2 c=64 v=10
7060 Par ch=2 c=64 v=10
7065 Par ch=2 c=64 v=8
7070 Par ch=2 c=64 v=6
7075 Par ch=2 c=64 v=4
7080 Par ch=2 c=64 v=1
7120 Par ch=2 c=64 v=0
7165 Par ch=2 c=64 v=14
7170 Par ch=2 c=64 v=29
7175 Par ch=2 c=64 v=44
7180 Par ch=2 c=64 v=59
7185 Par ch=2 c=64 v=74
7190 Par ch=2 c=64 v=89
7195 Par ch=2 c=64 v=104
7200 On ch=2 n=c#4 v=0
7200 Par ch=2 c=64 v=119
7200 On ch=2 n=f#3 v=52
7440 On ch=2 n=f#3 v=0
7440 On ch=2 n=f4 v=52
7680 On ch=2 n=f4 v=0
7680 On ch=2 n=g#4 v=51
7920 On ch=2 n=g#4 v=0
7920 On ch=2 n=f#4 v=51
8160 On ch=2 n=f#4 v=0
8160 On ch=2 n=a#4 v=51
8400 On ch=2 n=a#4 v=0
8400 On ch=2 n=c#4 v=51
8445 Par ch=2 c=64 v=107
8450 Par ch=2 c=64 v=94
8455 Par ch=2 c=64 v=82
8460 Par ch=2 c=64 v=69
8465 Par ch=2 c=64 v=57
8470 Par ch=2 c=64 v=44
8475 Par ch=2 c=64 v=32
8480 Par ch=2 c=64 v=19
8485 Par ch=2 c=64 v=17
8490 Par ch=2 c=64 v=15
8495 Par ch=2 c=64 v=10
8500 Par ch=2 c=64 v=10
8505 Par ch=2 c=64 v=8
8510 Par ch=2 c=64 v=6
8515 Par ch=2 c=64 v=4
8520 Par ch=2 c=64 v=1
8560 Par ch=2 c=64 v=0
8605 Par ch=2 c=64 v=15
8610 Par ch=2 c=64 v=30
8615 Par ch=2 c=64 v=46
8620 Par ch=2 c=64 v=61
8625 Par ch=2 c=64 v=76
8630 Par ch=2 c=64 v=92
8635 Par ch=2 c=64 v=107
8640 On ch=2 n=c#4 v=0
8640 Par ch=2 c=64 v=123
8640 On ch=2 n=f#3 v=51
8880 On ch=2 n=f#3 v=0
8880 On ch=2 n=f4 v=52
9120 On ch=2 n=f4 v=0
9120 On ch=2 n=g#4 v=52
9360 On ch=2 n=g#4 v=0
9360 On ch=2 n=f#4 v=52
9600 On ch=2 n=f#4 v=0
9840 On ch=2 n=c#4 v=52
9925 Par ch=2 c=64 v=108
9930 Par ch=2 c=64 v=93
9935 Par ch=2 c=64 v=77
9940 Par ch=2 c=64 v=62
9945 Par ch=2 c=64 v=47
9950 Par ch=2 c=64 v=31
9955 Par ch=2 c=64 v=16
9960 Par ch=2 c=64 v=0
10045 Par ch=2 c=64 v=14
10050 Par ch=2 c=64 v=29
10055 Par ch=2 c=64 v=44
10060 Par ch=2 c=64 v=59
10065 Par ch=2 c=64 v=74
10070 Par ch=2 c=64 v=89
10075 Par ch=2 c=64 v=104
10080 On ch=2 n=c#4 v=0
10080 Par ch=2 c=64 v=119
10080 On ch=2 n=c#3 v=52
10320 On ch=2 n=c#3 v=0
10320 On ch=2 n=g4 v=52
10560 On ch=2 n=g4 v=0
10560 On ch=2 n=a#4 v=52
10800 On ch=2 n=a#4 v=0
10800 On ch=2 n=g#4 v=52
11040 On ch=2 n=g#4 v=0
11040 On ch=2 n=b4 v=52
11280 On ch=2 n=b4 v=0
11280 On ch=2 n=c#4 v=52
11325 Par ch=2 c=64 v=107
11330 Par ch=2 c=64 v=94
11335 Par ch=2 c=64 v=82
11340 Par ch=2 c=64 v=69
11345 Par ch=2 c=64 v=57
11350 Par ch=2 c=64 v=44
11355 Par ch=2 c=64 v=32
11360 Par ch=2 c=64 v=19
11365 Par ch=2 c=64 v=17
11370 Par ch=2 c=64 v=15
11375 Par ch=2 c=64 v=10
11380 Par ch=2 c=64 v=10
11385 Par ch=2 c=64 v=8
11390 Par ch=2 c=64 v=6
11395 Par ch=2 c=64 v=4
11400 Par ch=2 c=64 v=1
11440 Par ch=2 c=64 v=0
11485 Par ch=2 c=64 v=14
11490 Par ch=2 c=64 v=29
11495 Par ch=2 c=64 v=44
11500 Par ch=2 c=64 v=59
11505 Par ch=2 c=64 v=74
11510 Par ch=2 c=64 v=89
11515 Par ch=2 c=64 v=104
11520 On ch=2 n=c#4 v=0
11520 Par ch=2 c=64 v=119
11520 On ch=2 n=f#3 v=52
11760 On ch=2 n=f#3 v=0
11760 On ch=2 n=f4 v=53
12000 On ch=2 n=f4 v=0
12000 On ch=2 n=g#4 v=54
12240 On ch=2 n=g#4 v=0
12240 On ch=2 n=f#4 v=57
12480 On ch=2 n=f#4 v=0
12480 On ch=2 n=a#4 v=58
12720 On ch=2 n=a#4 v=0
12720 On ch=2 n=c#4 v=60
12765 Par ch=2 c=64 v=107
12770 Par ch=2 c=64 v=94
12775 Par ch=2 c=64 v=82
12780 Par ch=2 c=64 v=69
12785 Par ch=2 c=64 v=57
12790 Par ch=2 c=64 v=44
12795 Par ch=2 c=64 v=32
12800 Par ch=2 c=64 v=19
12805 Par ch=2 c=64 v=17
12810 Par ch=2 c=64 v=15
12815 Par ch=2 c=64 v=10
12820 Par ch=2 c=64 v=10
12825 Par ch=2 c=64 v=8
12830 Par ch=2 c=64 v=6
12835 Par ch=2 c=64 v=4
12840 Par ch=2 c=64 v=1
12880 Par ch=2 c=64 v=0
12925 Par ch=2 c=64 v=14
12930 Par ch=2 c=64 v=29
12935 Par ch=2 c=64 v=44
12940 Par ch=2 c=64 v=59
12945 Par ch=2 c=64 v=74
12950 Par ch=2 c=64 v=89
12955 Par ch=2 c=64 v=104
12960 On ch=2 n=c#4 v=0
12960 Par ch=2 c=64 v=119
12960 On ch=2 n=f#3 v=63
13200 On ch=2 n=f#3 v=0
13200 On ch=2 n=f4 v=65
13440 On ch=2 n=f4 v=0
13440 On ch=2 n=g#4 v=68
13680 On ch=2 n=g#4 v=0
13680 On ch=2 n=f#4 v=71
13920 On ch=2 n=f#4 v=0
13920 On ch=2 n=a#4 v=74
14160 On ch=2 n=a#4 v=0
14160 On ch=2 n=c#4 v=78
14205 Par ch=2 c=64 v=107
14210 Par ch=2 c=64 v=94
14215 Par ch=2 c=64 v=82
14220 Par ch=2 c=64 v=69
14225 Par ch=2 c=64 v=57
14230 Par ch=2 c=64 v=44
14235 Par ch=2 c=64 v=32
14240 Par ch=2 c=64 v=19
14245 Par ch=2 c=64 v=17
14250 Par ch=2 c=64 v=15
14255 Par ch=2 c=64 v=10
14260 Par ch=2 c=64 v=10
14265 Par ch=2 c=64 v=8
14270 Par ch=2 c=64 v=6
14275 Par ch=2 c=64 v=4
14280 Par ch=2 c=64 v=1
14320 Par ch=2 c=64 v=0
14365 Par ch=2 c=64 v=14
14370 Par ch=2 c=64 v=29
14375 Par ch=2 c=64 v=44
14380 Par ch=2 c=64 v=59
14385 Par ch=2 c=64 v=74
14390 Par ch=2 c=64 v=89
14395 Par ch=2 c=64 v=104
14400 On ch=2 n=c#4 v=0
14400 Par ch=2 c=64 v=119
14400 On ch=2 n=d#3 v=79
14640 On ch=2 n=d#3 v=0
14640 On ch=2 n=a4 v=80
14880 On ch=2 n=a4 v=0
14880 On ch=2 n=c5 v=80
15120 On ch=2 n=c5 v=0
15120 On ch=2 n=a#4 v=79
15360 On ch=2 n=a#4 v=0
15360 On ch=2 n=d#5 v=79
15600 On ch=2 n=d#5 v=0
15600 On ch=2 n=f#4 v=79
15645 Par ch=2 c=64 v=107
15650 Par ch=2 c=64 v=94
15655 Par ch=2 c=64 v=82
15660 Par ch=2 c=64 v=69
15665 Par ch=2 c=64 v=57
15670 Par ch=2 c=64 v=44
15675 Par ch=2 c=64 v=32
15680 Par ch=2 c=64 v=19
15685 Par ch=2 c=64 v=17
15690 Par ch=2 c=64 v=15
15695 Par ch=2 c=64 v=10
15700 Par ch=2 c=64 v=10
15705 Par ch=2 c=64 v=8
15710 Par ch=2 c=64 v=6
15715 Par ch=2 c=64 v=4
15720 Par ch=2 c=64 v=1
15760 Par ch=2 c=64 v=0
15805 Par ch=2 c=64 v=14
15810 Par ch=2 c=64 v=29
15815 Par ch=2 c=64 v=44
15820 Par ch=2 c=64 v=59
15825 Par ch=2 c=64 v=74
15830 Par ch=2 c=64 v=89
15835 Par ch=2 c=64 v=104
15840 On ch=2 n=f#4 v=0
15840 Par ch=2 c=64 v=119
15840 On ch=2 n=g#3 v=79
16045 Par ch=2 c=64 v=105
16050 Par ch=2 c=64 v=90
16055 Par ch=2 c=64 v=75
16060 Par ch=2 c=64 v=60
16065 Par ch=2 c=64 v=45
16070 Par ch=2 c=64 v=30
16075 Par ch=2 c=64 v=15
16080 On ch=2 n=g#3 v=0
16080 On ch=2 n=g4 v=79
16080 Par ch=2 c=64 v=0
16320 On ch=2 n=g4 v=0
16320 On ch=2 n=a#4 v=80
16560 On ch=2 n=a#4 v=0
16560 On ch=2 n=g#4 v=80
16800 On ch=2 n=g#4 v=0
16800 On ch=2 n=c#5 v=80
17040 On ch=2 n=c#5 v=0
17040 On ch=2 n=f4 v=80
17125 Par ch=2 c=64 v=105
17130 Par ch=2 c=64 v=91
17135 Par ch=2 c=64 v=76
17140 Par ch=2 c=64 v=62
17145 Par ch=2 c=64 v=48
17150 Par ch=2 c=64 v=33
17155 Par ch=2 c=64 v=19
17160 Par ch=2 c=64 v=4
17170 Par ch=2 c=64 v=3
17180 Par ch=2 c=64 v=2
17190 Par ch=2 c=64 v=1
17200 Par ch=2 c=64 v=0
17280 On ch=2 n=f4 v=0
17280 Par ch=2 c=64 v=119
17280 On ch=2 n=g#3 v=81
17520 On ch=2 n=g#3 v=0
17520 On ch=2 n=g4 v=80
17760 On ch=2 n=g4 v=0
17760 On ch=2 n=a#4 v=75
18000 On ch=2 n=a#4 v=0
18000 On ch=2 n=g#4 v=70
18240 On ch=2 n=g#4 v=0
18240 On ch=2 n=c5 v=69
18480 On ch=2 n=c5 v=0
18480 On ch=2 n=d#4 v=67
18565 Par ch=2 c=64 v=105
18570 Par ch=2 c=64 v=91
18575 Par ch=2 c=64 v=76
18580 Par ch=2 c=64 v=62
18585 Par ch=2 c=64 v=48
18590 Par ch=2 c=64 v=33
18595 Par ch=2 c=64 v=19
18600 Par ch=2 c=64 v=4
18610 Par ch=2 c=64 v=3
18620 Par ch=2 c=64 v=2
18630 Par ch=2 c=64 v=1
18640 Par ch=2 c=64 v=0
18720 On ch=2 n=d#4 v=0
18720 Par ch=2 c=64 v=119
18720 On ch=2 n=c#4 v=65
18960 On ch=2 n=c#4 v=0
18960 On ch=2 n=g4 v=63
19200 On ch=2 n=g4 v=0
19200 On ch=2 n=a#4 v=60
19440 On ch=2 n=a#4 v=0
19440 On ch=2 n=g#4 v=57
19680 On ch=2 n=g#4 v=0
19680 On ch=2 n=c#5 v=56
19920 On ch=2 n=c#5 v=0
19920 On ch=2 n=f4 v=54
20005 Par ch=2 c=64 v=105
20010 Par ch=2 c=64 v=91
20015 Par ch=2 c=64 v=76
20020 Par ch=2 c=64 v=62
20025 Par ch=2 c=64 v=48
20030 Par ch=2 c=64 v=33
20035 Par ch=2 c=64 v=19
20040 Par ch=2 c=64 v=4
20050 Par ch=2 c=64 v=3
20060 Par ch=2 c=64 v=2
20070 Par ch=2 c=64 v=1
20080 Par ch=2 c=64 v=0
20160 On ch=2 n=f4 v=0
20160 On ch=2 n=g#4 v=52
20400 On ch=2 n=g#4 v=0
20400 On ch=2 n=f#4 v=52
20640 On ch=2 n=f#4 v=0
20640 On ch=2 n=b4 v=51
20880 On ch=2 n=b4 v=0
20880 On ch=2 n=d#4 v=51
21120 On ch=2 n=d#4 v=0
21120 On ch=2 n=f#4 v=49
21360 On ch=2 n=f#4 v=0
21360 On ch=2 n=f4 v=49
21600 On ch=2 n=f4 v=0
21600 On ch=2 n=a#4 v=49
21840 On ch=2 n=a#4 v=0
21840 On ch=2 n=c#4 v=49
22080 On ch=2 n=c#4 v=0
22080 On ch=2 n=a#4 v=49
22320 On ch=2 n=a#4 v=0
22320 On ch=2 n=b3 v=51
22560 On ch=2 n=b3 v=0
22560 On ch=2 n=a#4 v=51
22800 On ch=2 n=a#4 v=0
22800 On ch=2 n=g#4 v=52
23040 On ch=2 n=g#4 v=0
23040 On ch=2 n=f#3 v=53
23040 Par ch=2 c=64 v=119
23280 On ch=2 n=f#3 v=0
23280 On ch=2 n=f4 v=53
23520 On ch=2 n=f4 v=0
23520 On ch=2 n=g#4 v=53
23760 On ch=2 n=g#4 v=0
23760 On ch=2 n=f#4 v=53
24000 On ch=2 n=f#4 v=0
24000 On ch=2 n=a#4 v=53
24240 On ch=2 n=a#4 v=0
24240 On ch=2 n=c#4 v=53
24325 Par ch=2 c=64 v=105
24330 Par ch=2 c=64 v=91
24335 Par ch=2 c=64 v=76
24340 Par ch=2 c=64 v=62
24345 Par ch=2 c=64 v=48
24350 Par ch=2 c=64 v=33
24355 Par ch=2 c=64 v=19
24360 Par ch=2 c=64 v=4
24370 Par ch=2 c=64 v=3
24380 Par ch=2 c=64 v=2
24390 Par ch=2 c=64 v=1
24400 Par ch=2 c=64 v=0
24480 On ch=2 n=c#4 v=0
24480 Par ch=2 c=64 v=119
24480 On ch=2 n=f#3 v=53
24720 On ch=2 n=f#3 v=0
24720 On ch=2 n=f4 v=52
24960 On ch=2 n=f4 v=0
24960 On ch=2 n=g#4 v=52
25200 On ch=2 n=g#4 v=0
25200 On ch=2 n=f#4 v=52
25440 On ch=2 n=f#4 v=0
25440 On ch=2 n=a#4 v=52
25680 On ch=2 n=a#4 v=0
25680 On ch=2 n=c#4 v=52
25765 Par ch=2 c=64 v=105
25770 Par ch=2 c=64 v=91
25775 Par ch=2 c=64 v=76
25780 Par ch=2 c=64 v=62
25785 Par ch=2 c=64 v=48
25790 Par ch=2 c=64 v=33
25795 Par ch=2 c=64 v=19
25800 Par ch=2 c=64 v=4
25810 Par ch=2 c=64 v=3
25820 Par ch=2 c=64 v=2
25830 Par ch=2 c=64 v=1
25840 Par ch=2 c=64 v=0
25920 On ch=2 n=c#4 v=0
25920 Par ch=2 c=64 v=119
25920 On ch=2 n=c#5 v=52
25920 On ch=2 n=f#3 v=52
26160 On ch=2 n=f#3 v=0
26160 On ch=2 n=f4 v=51
26400 On ch=2 n=f4 v=0
26400 On ch=2 n=g#4 v=51
26640 On ch=2 n=g#4 v=0
26640 On ch=2 n=f#4 v=51
26880 On ch=2 n=f#4 v=0
26880 On ch=2 n=a#4 v=51
27120 On ch=2 n=a#4 v=0
27120 On ch=2 n=c#4 v=52
27205 Par ch=2 c=64 v=105
27210 Par ch=2 c=64 v=91
27215 Par ch=2 c=64 v=76
27220 Par ch=2 c=64 v=62
27225 Par ch=2 c=64 v=48
27230 Par ch=2 c=64 v=33
27235 Par ch=2 c=64 v=19
27240 Par ch=2 c=64 v=4
27250 Par ch=2 c=64 v=3
27260 Par ch=2 c=64 v=2
27270 Par ch=2 c=64 v=1
27280 Par ch=2 c=64 v=0
27360 On ch=2 n=c#4 v=0
27360 On ch=2 n=c#3 v=53
27360 Par ch=2 c=64 v=119
27600 On ch=2 n=c#3 v=0
27600 On ch=2 n=g4 v=54
27840 On ch=2 n=g4 v=0
27840 On ch=2 n=a#4 v=54
28080 On ch=2 n=a#4 v=0
28080 On ch=2 n=g#4 v=54
28320 On ch=2 n=g#4 v=0
28320 On ch=2 n=b4 v=54
28560 On ch=2 n=b4 v=0
28560 On ch=2 n=c#4 v=53
28645 Par ch=2 c=64 v=105
28650 Par ch=2 c=64 v=91
28655 Par ch=2 c=64 v=76
28660 Par ch=2 c=64 v=62
28665 Par ch=2 c=64 v=48
28670 Par ch=2 c=64 v=33
28675 Par ch=2 c=64 v=19
28680 Par ch=2 c=64 v=4
28690 Par ch=2 c=64 v=3
28700 Par ch=2 c=64 v=2
28710 Par ch=2 c=64 v=1
28720 Par ch=2 c=64 v=0
28800 On ch=2 n=c#4 v=0
28800 On ch=2 n=c#5 v=0
28800 On ch=2 n=f#3 v=53
28800 Par ch=2 c=64 v=119
29040 On ch=2 n=f#3 v=0
29040 On ch=2 n=f4 v=53
29280 On ch=2 n=f4 v=0
29280 On ch=2 n=g#4 v=54
29520 On ch=2 n=g#4 v=0
29520 On ch=2 n=f#4 v=54
29760 On ch=2 n=f#4 v=0
29760 On ch=2 n=a#4 v=54
30000 On ch=2 n=a#4 v=0
30000 On ch=2 n=c#4 v=54
30085 Par ch=2 c=64 v=105
30090 Par ch=2 c=64 v=91
30095 Par ch=2 c=64 v=76
30100 Par ch=2 c=64 v=62
30105 Par ch=2 c=64 v=48
30110 Par ch=2 c=64 v=33
30115 Par ch=2 c=64 v=19
30120 Par ch=2 c=64 v=4
30130 Par ch=2 c=64 v=3
30140 Par ch=2 c=64 v=2
30150 Par ch=2 c=64 v=1
30160 Par ch=2 c=64 v=0
30240 On ch=2 n=c#4 v=0
30240 Par ch=2 c=64 v=119
30240 On ch=2 n=f#3 v=52
30480 On ch=2 n=f#3 v=0
30480 On ch=2 n=f4 v=53
30720 On ch=2 n=f4 v=0
30720 On ch=2 n=g#4 v=56
30960 On ch=2 n=g#4 v=0
30960 On ch=2 n=f#4 v=58
31200 On ch=2 n=f#4 v=0
31200 On ch=2 n=a#4 v=62
31440 On ch=2 n=a#4 v=0
31440 On ch=2 n=c#4 v=65
31525 Par ch=2 c=64 v=105
31530 Par ch=2 c=64 v=91
31535 Par ch=2 c=64 v=76
31540 Par ch=2 c=64 v=62
31545 Par ch=2 c=64 v=48
31550 Par ch=2 c=64 v=33
31555 Par ch=2 c=64 v=19
31560 Par ch=2 c=64 v=4
31570 Par ch=2 c=64 v=3
31580 Par ch=2 c=64 v=2
31590 Par ch=2 c=64 v=1
31600 Par ch=2 c=64 v=0
31680 On ch=2 n=c#4 v=0
31680 On ch=2 n=f#3 v=67
31920 On ch=2 n=f#3 v=0
31920 On ch=2 n=f4 v=69
32160 On ch=2 n=f4 v=0
32160 On ch=2 n=g#4 v=74
32400 On ch=2 n=g#4 v=0
32400 On ch=2 n=f#4 v=78
32640 On ch=2 n=f#4 v=0
32880 On ch=2 n=c#4 v=84
33120 On ch=2 n=c#4 v=0
33120 Par ch=2 c=64 v=119
33120 On ch=2 n=c#3 v=86
33360 On ch=2 n=c#3 v=0
33360 On ch=2 n=g4 v=86
33600 On ch=2 n=g4 v=0
33600 On ch=2 n=a#4 v=86
33840 On ch=2 n=a#4 v=0
33840 On ch=2 n=g#4 v=86
34080 On ch=2 n=g#4 v=0
34080 On ch=2 n=b4 v=86
34320 On ch=2 n=b4 v=0
34320 On ch=2 n=c#4 v=86
34405 Par ch=2 c=64 v=105
34410 Par ch=2 c=64 v=91
34415 Par ch=2 c=64 v=76
34420 Par ch=2 c=64 v=62
34425 Par ch=2 c=64 v=48
34430 Par ch=2 c=64 v=33
34435 Par ch=2 c=64 v=19
34440 Par ch=2 c=64 v=4
34450 Par ch=2 c=64 v=3
34460 Par ch=2 c=64 v=2
34470 Par ch=2 c=64 v=1
34480 Par ch=2 c=64 v=0
34560 On ch=2 n=c#4 v=0
34560 On ch=2 n=f#3 v=85
34560 Par ch=2 c=64 v=119
34800 On ch=2 n=f#3 v=0
34800 On ch=2 n=f4 v=85
35040 On ch=2 n=f4 v=0
35040 On ch=2 n=g#4 v=85
35280 On ch=2 n=g#4 v=0
35280 On ch=2 n=f#4 v=85
35520 On ch=2 n=f#4 v=0
35520 On ch=2 n=a#4 v=85
35760 On ch=2 n=a#4 v=0
35760 On ch=2 n=c#4 v=85
35845 Par ch=2 c=64 v=105
35850 Par ch=2 c=64 v=91
35855 Par ch=2 c=64 v=76
35860 Par ch=2 c=64 v=62
35865 Par ch=2 c=64 v=48
35870 Par ch=2 c=64 v=33
35875 Par ch=2 c=64 v=19
35880 Par ch=2 c=64 v=4
35890 Par ch=2 c=64 v=3
35900 Par ch=2 c=64 v=2
35910 Par ch=2 c=64 v=1
35920 Par ch=2 c=64 v=0
36000 On ch=2 n=c#4 v=0
36000 Par ch=2 c=64 v=119
36000 On ch=2 n=f#3 v=85
36240 On ch=2 n=f#3 v=0
36240 On ch=2 n=f4 v=85
36480 On ch=2 n=f4 v=0
36480 On ch=2 n=g#4 v=85
36720 On ch=2 n=g#4 v=0
36720 On ch=2 n=f#4 v=89
36960 On ch=2 n=f#4 v=0
36960 On ch=2 n=a#4 v=91
37200 On ch=2 n=a#4 v=0
37200 On ch=2 n=c#4 v=95
37285 Par ch=2 c=64 v=105
37290 Par ch=2 c=64 v=91
37295 Par ch=2 c=64 v=76
37300 Par ch=2 c=64 v=62
37305 Par ch=2 c=64 v=48
37310 Par ch=2 c=64 v=33
37315 Par ch=2 c=64 v=19
37320 Par ch=2 c=64 v=4
37330 Par ch=2 c=64 v=3
37340 Par ch=2 c=64 v=2
37350 Par ch=2 c=64 v=1
37360 Par ch=2 c=64 v=0
37440 On ch=2 n=c#4 v=0
37440 Par ch=2 c=64 v=119
37440 On ch=2 n=f#3 v=100
37680 On ch=2 n=f#3 v=0
37680 On ch=2 n=f4 v=102
37920 On ch=2 n=f4 v=0
37920 On ch=2 n=g#4 v=104
38160 On ch=2 n=g#4 v=0
38160 On ch=2 n=f#4 v=107
38400 On ch=2 n=f#4 v=0
38400 On ch=2 n=a#4 v=111
38640 On ch=2 n=a#4 v=0
38640 On ch=2 n=c#4 v=113
38725 Par ch=2 c=64 v=105
38730 Par ch=2 c=64 v=91
38735 Par ch=2 c=64 v=76
38740 Par ch=2 c=64 v=62
38745 Par ch=2 c=64 v=48
38750 Par ch=2 c=64 v=33
38755 Par ch=2 c=64 v=19
38760 Par ch=2 c=64 v=4
38770 Par ch=2 c=64 v=3
38780 Par ch=2 c=64 v=2
38790 Par ch=2 c=64 v=1
38800 Par ch=2 c=64 v=0
38880 On ch=2 n=c#4 v=0
38880 On ch=2 n=f#3 v=113
39120 On ch=2 n=f#3 v=0
39120 On ch=2 n=f4 v=111
39360 On ch=2 n=f4 v=0
39360 On ch=2 n=g#4 v=106
39600 On ch=2 n=g#4 v=0
39600 On ch=2 n=f#4 v=101
39840 On ch=2 n=f#4 v=0
39840 On ch=2 n=a#4 v=93
40080 On ch=2 n=a#4 v=0
40080 On ch=2 n=c#4 v=87
40320 On ch=2 n=c#4 v=0
40320 Par ch=2 c=64 v=119
40320 On ch=2 n=b3 v=85
40560 On ch=2 n=b3 v=0
40560 On ch=2 n=f#4 v=81
40800 On ch=2 n=f#4 v=0
40800 On ch=2 n=g#4 v=80
41040 On ch=2 n=g#4 v=0
41040 On ch=2 n=g4 v=78
41280 On ch=2 n=g4 v=0
41280 On ch=2 n=a#4 v=78
41520 On ch=2 n=a#4 v=0
41520 On ch=2 n=c#4 v=78
41605 Par ch=2 c=64 v=105
41610 Par ch=2 c=64 v=91
41615 Par ch=2 c=64 v=76
41620 Par ch=2 c=64 v=62
41625 Par ch=2 c=64 v=48
41630 Par ch=2 c=64 v=33
41635 Par ch=2 c=64 v=19
41640 Par ch=2 c=64 v=4
41650 Par ch=2 c=64 v=3
41660 Par ch=2 c=64 v=2
41670 Par ch=2 c=64 v=1
41680 Par ch=2 c=64 v=0
41760 On ch=2 n=c#4 v=0
41760 On ch=2 n=b3 v=75
41760 Par ch=2 c=64 v=119
42000 On ch=2 n=b3 v=0
42000 On ch=2 n=g4 v=75
42240 On ch=2 n=g4 v=0
42240 On ch=2 n=a#4 v=75
42480 On ch=2 n=a#4 v=0
42480 On ch=2 n=g#4 v=75
42720 On ch=2 n=g#4 v=0
42720 On ch=2 n=b4 v=75
42960 On ch=2 n=b4 v=0
42960 On ch=2 n=d#4 v=76
43045 Par ch=2 c=64 v=105
43050 Par ch=2 c=64 v=91
43055 Par ch=2 c=64 v=76
43060 Par ch=2 c=64 v=62
43065 Par ch=2 c=64 v=48
43070 Par ch=2 c=64 v=33
43075 Par ch=2 c=64 v=19
43080 Par ch=2 c=64 v=4
43090 Par ch=2 c=64 v=3
43100 Par ch=2 c=64 v=2
43110 Par ch=2 c=64 v=1
43120 Par ch=2 c=64 v=0
43200 On ch=2 n=d#4 v=0
43200 On ch=2 n=d#3 v=76
43200 Par ch=2 c=64 v=119
43440 On ch=2 n=d#3 v=0
43440 On ch=2 n=d4 v=76
43680 On ch=2 n=d4 v=0
43680 On ch=2 n=e4 v=76
43920 On ch=2 n=e4 v=0
43920 On ch=2 n=d#4 v=76
44160 On ch=2 n=d#4 v=0
44160 On ch=2 n=g4 v=78
44400 On ch=2 n=g4 v=0
44400 On ch=2 n=a#3 v=78
44485 Par ch=2 c=64 v=105
44490 Par ch=2 c=64 v=91
44495 Par ch=2 c=64 v=76
44500 Par ch=2 c=64 v=62
44505 Par ch=2 c=64 v=48
44510 Par ch=2 c=64 v=33
44515 Par ch=2 c=64 v=19
44520 Par ch=2 c=64 v=4
44530 Par ch=2 c=64 v=3
44540 Par ch=2 c=64 v=2
44550 Par ch=2 c=64 v=1
44560 Par ch=2 c=64 v=0
44640 On ch=2 n=a#3 v=0
44640 On ch=2 n=g#3 v=78
44640 Par ch=2 c=64 v=119
44880 On ch=2 n=g#3 v=0
44880 On ch=2 n=d4 v=78
45120 On ch=2 n=d4 v=0
45120 On ch=2 n=e4 v=78
45360 On ch=2 n=e4 v=0
45360 On ch=2 n=d#4 v=78
45600 On ch=2 n=d#4 v=0
45600 On ch=2 n=g#4 v=78
45840 On ch=2 n=g#4 v=0
45840 On ch=2 n=g#3 v=78
45925 Par ch=2 c=64 v=105
45930 Par ch=2 c=64 v=91
45935 Par ch=2 c=64 v=76
45940 Par ch=2 c=64 v=62
45945 Par ch=2 c=64 v=48
45950 Par ch=2 c=64 v=33
45955 Par ch=2 c=64 v=19
45960 Par ch=2 c=64 v=4
45970 Par ch=2 c=64 v=3
45980 Par ch=2 c=64 v=2
45990 Par ch=2 c=64 v=1
46000 Par ch=2 c=64 v=0
46080 On ch=2 n=g#3 v=0
46080 On ch=2 n=c#3 v=78
46080 Par ch=2 c=64 v=119
46320 On ch=2 n=c#3 v=0
46320 On ch=2 n=c4 v=78
46560 On ch=2 n=c4 v=0
46560 On ch=2 n=d#4 v=78
46800 On ch=2 n=d#4 v=0
46800 On ch=2 n=c#4 v=78
47040 On ch=2 n=c#4 v=0
47040 On ch=2 n=f4 v=78
47280 On ch=2 n=f4 v=0
47280 On ch=2 n=g#3 v=79
47365 Par ch=2 c=64 v=105
47370 Par ch=2 c=64 v=91
47375 Par ch=2 c=64 v=76
47380 Par ch=2 c=64 v=62
47385 Par ch=2 c=64 v=48
47390 Par ch=2 c=64 v=33
47395 Par ch=2 c=64 v=19
47400 Par ch=2 c=64 v=4
47410 Par ch=2 c=64 v=3
47420 Par ch=2 c=64 v=2
47430 Par ch=2 c=64 v=1
47440 Par ch=2 c=64 v=0
47520 On ch=2 n=g#3 v=0
47520 On ch=2 n=c#3 v=80
47520 Par ch=2 c=64 v=119
47760 On ch=2 n=c#3 v=0
47760 On ch=2 n=c4 v=80
48000 On ch=2 n=c4 v=0
48000 On ch=2 n=d#4 v=80
48240 On ch=2 n=d#4 v=0
48240 On ch=2 n=c#4 v=80
48480 On ch=2 n=c#4 v=0
48480 On ch=2 n=f4 v=80
48720 On ch=2 n=f4 v=0
48720 On ch=2 n=g#3 v=80
48805 Par ch=2 c=64 v=105
48810 Par ch=2 c=64 v=91
48815 Par ch=2 c=64 v=76
48820 Par ch=2 c=64 v=62
48825 Par ch=2 c=64 v=48
48830 Par ch=2 c=64 v=33
48835 Par ch=2 c=64 v=19
48840 Par ch=2 c=64 v=4
48850 Par ch=2 c=64 v=3
48860 Par ch=2 c=64 v=2
48870 Par ch=2 c=64 v=1
48880 Par ch=2 c=64 v=0
48960 On ch=2 n=g#3 v=0
48960 On ch=2 n=f#3 v=80
48960 Par ch=2 c=64 v=119
49200 On ch=2 n=f#3 v=0
49200 On ch=2 n=c4 v=80
49440 On ch=2 n=c4 v=0
49440 On ch=2 n=d#4 v=80
49680 On ch=2 n=d#4 v=0
49680 On ch=2 n=c#4 v=80
49920 On ch=2 n=c#4 v=0
49920 On ch=2 n=f#4 v=80
50160 On ch=2 n=f#4 v=0
50160 On ch=2 n=f#3 v=79
50245 Par ch=2 c=64 v=105
50250 Par ch=2 c=64 v=91
50255 Par ch=2 c=64 v=76
50260 Par ch=2 c=64 v=62
50265 Par ch=2 c=64 v=48
50270 Par ch=2 c=64 v=33
50275 Par ch=2 c=64 v=19
50280 Par ch=2 c=64 v=4
50290 Par ch=2 c=64 v=3
50300 Par ch=2 c=64 v=2
50310 Par ch=2 c=64 v=1
50320 Par ch=2 c=64 v=0
50400 On ch=2 n=f#3 v=0
50400 Par ch=2 c=64 v=119
50400 On ch=2 n=b2 v=78
50640 On ch=2 n=b2 v=0
50640 On ch=2 n=f4 v=78
50880 On ch=2 n=f4 v=0
50880 On ch=2 n=g#4 v=78
51120 On ch=2 n=g#4 v=0
51120 On ch=2 n=f#4 v=79
51360 On ch=2 n=f#4 v=0
51360 On ch=2 n=b4 v=79
51600 On ch=2 n=b4 v=0
51600 On ch=2 n=b3 v=79
51685 Par ch=2 c=64 v=105
51690 Par ch=2 c=64 v=91
51695 Par ch=2 c=64 v=76
51700 Par ch=2 c=64 v=62
51705 Par ch=2 c=64 v=48
51710 Par ch=2 c=64 v=33
51715 Par ch=2 c=64 v=19
51720 Par ch=2 c=64 v=4
51730 Par ch=2 c=64 v=3
51740 Par ch=2 c=64 v=2
51750 Par ch=2 c=64 v=1
51760 Par ch=2 c=64 v=0
51840 On ch=2 n=b3 v=0
51840 Par ch=2 c=64 v=119
51840 On ch=2 n=c#3 v=79
52080 On ch=2 n=c#3 v=0
52080 On ch=2 n=c4 v=54
52320 On ch=2 n=c4 v=0
52320 On ch=2 n=d#4 v=54
52560 On ch=2 n=d#4 v=0
52560 On ch=2 n=c#4 v=54
52800 On ch=2 n=c#4 v=0
52800 On ch=2 n=f4 v=54
53040 On ch=2 n=f4 v=0
53040 On ch=2 n=g#3 v=54
53125 Par ch=2 c=64 v=105
53130 Par ch=2 c=64 v=91
53135 Par ch=2 c=64 v=76
53140 Par ch=2 c=64 v=62
53145 Par ch=2 c=64 v=48
53150 Par ch=2 c=64 v=33
53155 Par ch=2 c=64 v=19
53160 Par ch=2 c=64 v=4
53170 Par ch=2 c=64 v=3
53180 Par ch=2 c=64 v=2
53190 Par ch=2 c=64 v=1
53200 Par ch=2 c=64 v=0
53280 On ch=2 n=g#3 v=0
53280 On ch=2 n=c#5 v=54
53280 On ch=2 n=c#3 v=54
53280 Par ch=2 c=64 v=119
53520 On ch=2 n=c#3 v=0
53520 On ch=2 n=c4 v=54
53760 On ch=2 n=c4 v=0
53760 On ch=2 n=d#4 v=54
54000 On ch=2 n=d#4 v=0
54000 On ch=2 n=c#4 v=54
54240 On ch=2 n=c#4 v=0
54240 On ch=2 n=c#5 v=0
54240 On ch=2 n=f4 v=54
54240 On ch=2 n=b4 v=54
54480 On ch=2 n=f4 v=0
54480 On ch=2 n=g#3 v=54
54525 Par ch=2 c=64 v=2
54530 Par ch=2 c=64 v=4
54535 Par ch=2 c=64 v=7
54540 Par ch=2 c=64 v=9
54545 Par ch=2 c=64 v=11
54550 Par ch=2 c=64 v=14
54555 Par ch=2 c=64 v=16
54560 Par ch=2 c=64 v=19
54565 Par ch=2 c=64 v=17
54570 Par ch=2 c=64 v=15
54575 Par ch=2 c=64 v=10
54580 Par ch=2 c=64 v=10
54585 Par ch=2 c=64 v=8
54590 Par ch=2 c=64 v=6
54595 Par ch=2 c=64 v=4
54600 Par ch=2 c=64 v=1
54640 Par ch=2 c=64 v=0
54685 Par ch=2 c=64 v=14
54690 Par ch=2 c=64 v=29
54695 Par ch=2 c=64 v=44
54700 Par ch=2 c=64 v=59
54705 Par ch=2 c=64 v=74
54710 Par ch=2 c=64 v=89
54715 Par ch=2 c=64 v=104
54720 On ch=2 n=g#3 v=0
54720 On ch=2 n=b4 v=0
54720 Par ch=2 c=64 v=119
54720 On ch=2 n=f#3 v=38
54960 On ch=2 n=f#3 v=0
54960 On ch=2 n=c4 v=38
55200 On ch=2 n=c4 v=0
55200 On ch=2 n=d#4 v=38
55440 On ch=2 n=d#4 v=0
55440 On ch=2 n=c#4 v=38
55680 On ch=2 n=c#4 v=0
55680 On ch=2 n=f#4 v=38
55920 On ch=2 n=f#4 v=0
55920 On ch=2 n=c#3 v=38
55965 Par ch=2 c=64 v=107
55970 Par ch=2 c=64 v=94
55975 Par ch=2 c=64 v=82
55980 Par ch=2 c=64 v=69
55985 Par ch=2 c=64 v=57
55990 Par ch=2 c=64 v=44
55995 Par ch=2 c=64 v=32
56000 Par ch=2 c=64 v=19
56005 Par ch=2 c=64 v=17
56010 Par ch=2 c=64 v=15
56015 Par ch=2 c=64 v=10
56020 Par ch=2 c=64 v=10
56025 Par ch=2 c=64 v=8
56030 Par ch=2 c=64 v=6
56035 Par ch=2 c=64 v=4
56040 Par ch=2 c=64 v=1
56080 Par ch=2 c=64 v=0
56125 Par ch=2 c=64 v=14
56130 Par ch=2 c=64 v=29
56135 Par ch=2 c=64 v=44
56140 Par ch=2 c=64 v=59
56145 Par ch=2 c=64 v=74
56150 Par ch=2 c=64 v=89
56155 Par ch=2 c=64 v=104
56160 On ch=2 n=c#3 v=0
56160 On ch=2 n=f#3 v=38
56160 Par ch=2 c=64 v=119
56400 On ch=2 n=f#3 v=0
56400 On ch=2 n=c4 v=38
56640 On ch=2 n=c4 v=0
56640 On ch=2 n=d#4 v=38
56880 On ch=2 n=d#4 v=0
56880 On ch=2 n=c#4 v=38
57120 On ch=2 n=c#4 v=0
57120 On ch=2 n=f#4 v=38
57360 On ch=2 n=f#4 v=0
57360 On ch=2 n=f3 v=38
57365 Par ch=2 c=64 v=107
57370 Par ch=2 c=64 v=94
57375 Par ch=2 c=64 v=81
57380 Par ch=2 c=64 v=68
57385 Par ch=2 c=64 v=55
57390 Par ch=2 c=64 v=42
57395 Par ch=2 c=64 v=29
57400 Par ch=2 c=64 v=16
57405 Par ch=2 c=64 v=15
57410 Par ch=2 c=64 v=10
57415 Par ch=2 c=64 v=12
57420 Par ch=2 c=64 v=10
57425 Par ch=2 c=64 v=9
57430 Par ch=2 c=64 v=7
57435 Par ch=2 c=64 v=6
57440 Par ch=2 c=64 v=4
57455 Par ch=2 c=64 v=3
57470 Par ch=2 c=64 v=2
57480 Par ch=2 c=64 v=1
57520 Par ch=2 c=64 v=0
57525 Par ch=2 c=64 v=10
57525 Par ch=2 c=66 v=15
57530 Par ch=2 c=64 v=26
57530 Par ch=2 c=66 v=30
57535 Par ch=2 c=66 v=46
57535 Par ch=2 c=64 v=39
57540 Par ch=2 c=64 v=52
57540 Par ch=2 c=66 v=61
57545 Par ch=2 c=64 v=65
57545 Par ch=2 c=66 v=76
57550 Par ch=2 c=66 v=92
57550 Par ch=2 c=64 v=78
57555 Par ch=2 c=66 v=107
57555 Par ch=2 c=64 v=91
57560 Par ch=2 c=66 v=123
57560 Par ch=2 c=64 v=104
57565 Par ch=2 c=64 v=106
57570 Par ch=2 c=64 v=108
57575 Par ch=2 c=64 v=111
57580 Par ch=2 c=64 v=113
57585 Par ch=2 c=64 v=115
57590 Par ch=2 c=64 v=118
57595 Par ch=2 c=64 v=120
57600 On ch=2 n=f3 v=0
57600 Par ch=2 c=64 v=123
57600 On ch=2 n=d#3 v=37
57840 On ch=2 n=d#3 v=0
57840 On ch=2 n=a#4 v=53
57840 On ch=2 n=d#4 v=53
58080 On ch=2 n=a#4 v=53
58080 On ch=2 n=d#4 v=53
58085 On ch=2 n=d#4 v=0
58085 On ch=2 n=a#4 v=0
58320 On ch=2 n=d#4 v=53
58320 On ch=2 n=a#4 v=53
58325 On ch=2 n=d#4 v=0
58325 On ch=2 n=a#4 v=0
58560 On ch=2 n=a#4 v=0
58560 On ch=2 n=d#4 v=52
58560 On ch=2 n=d#5 v=52
58565 On ch=2 n=d#4 v=0
58800 On ch=2 n=d#5 v=0
58800 On ch=2 n=d#4 v=52
58800 On ch=2 n=a#4 v=52
58805 On ch=2 n=d#4 v=0
59040 On ch=2 n=d#4 v=52
59040 On ch=2 n=a#4 v=52
59045 On ch=2 n=a#4 v=0
59045 On ch=2 n=d#4 v=0
59280 On ch=2 n=a#4 v=0
59280 On ch=2 n=c#5 v=51
59280 On ch=2 n=d#4 v=51
59285 On ch=2 n=d#4 v=0
59520 On ch=2 n=c#5 v=0
59520 On ch=2 n=d#4 v=51
59520 On ch=2 n=c5 v=51
59525 On ch=2 n=d#4 v=0
59760 On ch=2 n=c5 v=0
59760 On ch=2 n=a#4 v=51
59760 On ch=2 n=d#4 v=51
59765 On ch=2 n=d#4 v=0
60000 On ch=2 n=d#4 v=0
60000 On ch=2 n=a#4 v=51
60000 On ch=2 n=g#3 v=51
60005 On ch=2 n=a#4 v=0
60240 On ch=2 n=a#4 v=0
60240 On ch=2 n=g#3 v=52
60240 On ch=2 n=g#4 v=52
60245 On ch=2 n=g#3 v=0
60285 Par ch=2 c=64 v=2
60290 Par ch=2 c=64 v=4
60295 Par ch=2 c=64 v=6
60300 Par ch=2 c=64 v=8
60305 Par ch=2 c=64 v=10
60310 Par ch=2 c=64 v=12
60315 Par ch=2 c=64 v=14
60320 Par ch=2 c=64 v=16
60325 Par ch=2 c=64 v=15
60330 Par ch=2 c=64 v=14
60335 Par ch=2 c=64 v=10
60340 Par ch=2 c=64 v=11
60345 Par ch=2 c=64 v=10
60350 Par ch=2 c=64 v=9
60355 Par ch=2 c=64 v=8
60360 Par ch=2 c=64 v=6
60365 Par ch=2 c=64 v=17
60370 Par ch=2 c=64 v=28
60375 Par ch=2 c=64 v=39
60380 Par ch=2 c=64 v=50
60385 Par ch=2 c=64 v=61
60390 Par ch=2 c=64 v=72
60395 Par ch=2 c=64 v=83
60400 Par ch=2 c=64 v=95
60405 Par ch=2 c=64 v=98
60410 Par ch=2 c=64 v=101
60415 Par ch=2 c=64 v=104
60420 Par ch=2 c=64 v=108
60425 Par ch=2 c=64 v=111
60430 Par ch=2 c=64 v=114
60435 Par ch=2 c=64 v=117
60440 Par ch=2 c=64 v=121
60460 Par ch=2 c=64 v=122
60480 On ch=2 n=g#4 v=0
60480 On ch=2 n=g#3 v=0
60480 On ch=2 n=c#3 v=52
60480 Par ch=2 c=64 v=123
60720 On ch=2 n=c#3 v=0
60720 On ch=2 n=g#4 v=52
60720 On ch=2 n=g#3 v=52
60960 On ch=2 n=g#3 v=0
60960 On ch=2 n=c#4 v=52
60960 On ch=2 n=g#4 v=52
60965 On ch=2 n=g#4 v=0
61200 On ch=2 n=c#4 v=0
61200 On ch=2 n=g#4 v=52
61200 On ch=2 n=d#4 v=52
61205 On ch=2 n=g#4 v=0
61440 On ch=2 n=d#4 v=0
61440 On ch=2 n=c#4 v=52
61440 On ch=2 n=g#4 v=52
61445 On ch=2 n=g#4 v=0
61680 On ch=2 n=c#4 v=0
61680 On ch=2 n=g#3 v=52
61680 On ch=2 n=g#4 v=52
61685 On ch=2 n=g#4 v=0
61920 On ch=2 n=g#3 v=0
61920 On ch=2 n=c#4 v=52
61920 On ch=2 n=g#4 v=52
61925 On ch=2 n=g#4 v=0
62160 On ch=2 n=c#4 v=0
62160 On ch=2 n=d#4 v=52
62160 On ch=2 n=g#4 v=52
62165 On ch=2 n=g#4 v=0
62400 On ch=2 n=d#4 v=0
62400 On ch=2 n=g#4 v=52
62400 On ch=2 n=c#4 v=52
62405 On ch=2 n=g#4 v=0
62520 Par ch=2 c=66 v=122
62640 On ch=2 n=c#4 v=0
62640 On ch=2 n=g#4 v=49
62640 On ch=2 n=f#4 v=49
62645 On ch=2 n=g#4 v=0
62880 On ch=2 n=f#4 v=0
62880 On ch=2 n=f4 v=49
62880 On ch=2 n=g#4 v=49
62885 On ch=2 n=g#4 v=0
62980 Par ch=2 c=66 v=121
63000 Par ch=2 c=66 v=120
63120 On ch=2 n=f4 v=0
63120 On ch=2 n=g#3 v=52
63120 On ch=2 n=g#4 v=52
63125 On ch=2 n=g#4 v=0
63205 Par ch=2 c=64 v=2
63210 Par ch=2 c=64 v=4
63215 Par ch=2 c=64 v=7
63220 Par ch=2 c=64 v=9
63225 Par ch=2 c=64 v=11
63230 Par ch=2 c=64 v=14
63235 Par ch=2 c=64 v=16
63240 Par ch=2 c=64 v=19
63245 Par ch=2 c=64 v=18
63250 Par ch=2 c=64 v=16
63255 Par ch=2 c=64 v=14
63260 Par ch=2 c=64 v=12
63265 Par ch=2 c=64 v=10
63270 Par ch=2 c=64 v=8
63275 Par ch=2 c=64 v=6
63280 Par ch=2 c=64 v=4
63285 Par ch=2 c=64 v=17
63290 Par ch=2 c=64 v=30
63295 Par ch=2 c=64 v=43
63300 Par ch=2 c=64 v=56
63305 Par ch=2 c=64 v=69
63310 Par ch=2 c=64 v=82
63315 Par ch=2 c=64 v=95
63320 Par ch=2 c=64 v=108
63325 Par ch=2 c=64 v=109
63330 Par ch=2 c=64 v=111
63335 Par ch=2 c=64 v=113
63340 Par ch=2 c=64 v=115
63345 Par ch=2 c=64 v=117
63350 Par ch=2 c=64 v=119
63355 Par ch=2 c=64 v=121
63360 On ch=2 n=g#4 v=0
63360 On ch=2 n=g#3 v=0
63360 Par ch=2 c=64 v=123
63360 On ch=2 n=c#3 v=52
63600 On ch=2 n=c#3 v=0
63600 On ch=2 n=g#4 v=52
63600 On ch=2 n=c#4 v=52
63840 On ch=2 n=g#4 v=52
63840 On ch=2 n=c#4 v=52
63845 On ch=2 n=c#4 v=0
63845 On ch=2 n=g#4 v=0
64080 On ch=2 n=c#4 v=52
64080 On ch=2 n=g#4 v=52
64085 On ch=2 n=c#4 v=0
64085 On ch=2 n=g#4 v=0
64320 On ch=2 n=g#4 v=0
64320 On ch=2 n=c#5 v=52
64320 On ch=2 n=c#4 v=52
64325 On ch=2 n=c#4 v=0
64560 On ch=2 n=c#5 v=0
64560 On ch=2 n=c#4 v=52
64560 On ch=2 n=g#4 v=52
64565 On ch=2 n=c#4 v=0
64605 Par ch=2 c=66 v=15
64610 Par ch=2 c=66 v=30
64615 Par ch=2 c=66 v=45
64620 Par ch=2 c=66 v=60
64625 Par ch=2 c=66 v=75
64630 Par ch=2 c=66 v=90
64635 Par ch=2 c=66 v=105
64640 Par ch=2 c=66 v=121
64680 Par ch=2 c=66 v=120
64800 On ch=2 n=g#4 v=52
64800 On ch=2 n=c#4 v=52
64805 On ch=2 n=g#4 v=0
64805 On ch=2 n=c#4 v=0
65040 On ch=2 n=g#4 v=0
65040 On ch=2 n=b4 v=52
65040 On ch=2 n=c#4 v=52
65045 On ch=2 n=c#4 v=0
65280 On ch=2 n=b4 v=0
65280 On ch=2 n=a#4 v=52
65280 On ch=2 n=c#4 v=52
65285 On ch=2 n=c#4 v=0
65520 On ch=2 n=a#4 v=0
65520 On ch=2 n=c#4 v=52
65520 On ch=2 n=g#4 v=52
65525 On ch=2 n=c#4 v=0
65760 On ch=2 n=c#4 v=0
65760 On ch=2 n=f#3 v=52
65760 On ch=2 n=g#4 v=52
65765 On ch=2 n=g#4 v=0
66000 On ch=2 n=g#4 v=0
66000 On ch=2 n=f#3 v=52
66000 On ch=2 n=f#4 v=52
66005 On ch=2 n=f#3 v=0
66005 Par ch=2 c=64 v=3
66010 Par ch=2 c=64 v=7
66015 Par ch=2 c=64 v=11
66020 Par ch=2 c=64 v=15
66025 Par ch=2 c=64 v=18
66030 Par ch=2 c=64 v=22
66035 Par ch=2 c=64 v=26
66040 Par ch=2 c=64 v=30
66045 Par ch=2 c=64 v=28
66050 Par ch=2 c=64 v=25
66055 Par ch=2 c=64 v=22
66060 Par ch=2 c=64 v=19
66065 Par ch=2 c=64 v=17
66070 Par ch=2 c=64 v=14
66075 Par ch=2 c=64 v=11
66080 Par ch=2 c=64 v=8
66085 Par ch=2 c=64 v=17
66090 Par ch=2 c=64 v=26
66095 Par ch=2 c=64 v=36
66100 Par ch=2 c=64 v=45
66105 Par ch=2 c=64 v=54
66110 Par ch=2 c=64 v=64
66115 Par ch=2 c=64 v=73
66120 Par ch=2 c=64 v=83
66125 Par ch=2 c=64 v=87
66130 Par ch=2 c=64 v=91
66135 Par ch=2 c=64 v=95
66140 Par ch=2 c=64 v=100
66145 Par ch=2 c=64 v=104
66150 Par ch=2 c=64 v=108
66155 Par ch=2 c=64 v=112
66160 Par ch=2 c=64 v=117
66170 Par ch=2 c=64 v=118
66180 Par ch=2 c=64 v=119
66185 Par ch=2 c=64 v=120
66195 Par ch=2 c=64 v=121
66200 Par ch=2 c=64 v=122
66240 On ch=2 n=f#4 v=0
66240 On ch=2 n=f#3 v=0
66240 On ch=2 n=b2 v=53
66240 Par ch=2 c=64 v=123
66480 On ch=2 n=b2 v=0
66480 On ch=2 n=f#4 v=52
66480 On ch=2 n=f#3 v=52
66720 On ch=2 n=f#3 v=0
66720 On ch=2 n=f#4 v=52
66720 On ch=2 n=b3 v=52
66725 On ch=2 n=f#4 v=0
66960 On ch=2 n=b3 v=0
66960 On ch=2 n=f#4 v=52
66960 On ch=2 n=c#4 v=52
66965 On ch=2 n=f#4 v=0
67200 On ch=2 n=c#4 v=0
67200 On ch=2 n=b3 v=51
67200 On ch=2 n=f#4 v=51
67205 On ch=2 n=f#4 v=0
67440 On ch=2 n=b3 v=0
67440 On ch=2 n=f#4 v=51
67440 On ch=2 n=f#3 v=51
67445 On ch=2 n=f#4 v=0
67525 Par ch=2 c=64 v=109
67530 Par ch=2 c=64 v=94
67535 Par ch=2 c=64 v=79
67540 Par ch=2 c=64 v=64
67545 Par ch=2 c=64 v=49
67550 Par ch=2 c=64 v=34
67555 Par ch=2 c=64 v=19
67560 Par ch=2 c=64 v=4
67645 Par ch=2 c=64 v=17
67650 Par ch=2 c=64 v=31
67655 Par ch=2 c=64 v=45
67660 Par ch=2 c=64 v=59
67665 Par ch=2 c=64 v=73
67670 Par ch=2 c=64 v=87
67675 Par ch=2 c=64 v=101
67680 On ch=2 n=f#3 v=0
67680 On ch=2 n=f#4 v=52
67680 On ch=2 n=b3 v=52
67680 Par ch=2 c=64 v=115
67685 On ch=2 n=f#4 v=0
67685 Par ch=2 c=64 v=116
67690 Par ch=2 c=64 v=117
67695 Par ch=2 c=64 v=118
67700 Par ch=2 c=64 v=119
67705 Par ch=2 c=64 v=120
67710 Par ch=2 c=64 v=121
67715 Par ch=2 c=64 v=122
67720 Par ch=2 c=64 v=123
67920 On ch=2 n=b3 v=0
67920 On ch=2 n=c#4 v=53
67920 On ch=2 n=f#4 v=53
67925 On ch=2 n=f#4 v=0
68160 On ch=2 n=c#4 v=0
68160 On ch=2 n=f#4 v=53
68160 On ch=2 n=b3 v=53
68165 On ch=2 n=f#4 v=0
68400 On ch=2 n=b3 v=0
68400 On ch=2 n=f#3 v=53
68400 On ch=2 n=f#4 v=53
68405 On ch=2 n=f#4 v=0
68640 On ch=2 n=f#3 v=0
68640 On ch=2 n=f#4 v=53
68640 On ch=2 n=b3 v=53
68645 On ch=2 n=f#4 v=0
68880 On ch=2 n=b3 v=0
68880 On ch=2 n=f#4 v=54
68880 On ch=2 n=c#4 v=54
68885 On ch=2 n=f#4 v=0
68885 Par ch=2 c=64 v=110
68890 Par ch=2 c=64 v=97
68895 Par ch=2 c=64 v=83
68900 Par ch=2 c=64 v=70
68905 Par ch=2 c=64 v=57
68910 Par ch=2 c=64 v=43
68915 Par ch=2 c=64 v=30
68920 Par ch=2 c=64 v=16
68925 Par ch=2 c=64 v=15
68930 Par ch=2 c=64 v=14
68935 Par ch=2 c=64 v=10
68940 Par ch=2 c=64 v=11
68945 Par ch=2 c=64 v=10
68950 Par ch=2 c=64 v=9
68955 Par ch=2 c=64 v=8
68960 Par ch=2 c=64 v=6
68980 Par ch=2 c=64 v=5
69000 Par ch=2 c=64 v=4
69005 Par ch=2 c=64 v=15
69010 Par ch=2 c=64 v=26
69015 Par ch=2 c=64 v=38
69020 Par ch=2 c=64 v=49
69025 Par ch=2 c=64 v=60
69030 Par ch=2 c=64 v=72
69035 Par ch=2 c=64 v=83
69040 Par ch=2 c=64 v=95
69045 Par ch=2 c=64 v=98
69050 Par ch=2 c=64 v=101
69055 Par ch=2 c=64 v=104
69060 Par ch=2 c=64 v=108
69065 Par ch=2 c=64 v=111
69070 Par ch=2 c=64 v=114
69075 Par ch=2 c=64 v=117
69080 Par ch=2 c=64 v=121
69100 Par ch=2 c=64 v=122
69120 On ch=2 n=c#4 v=0
69120 Par ch=2 c=64 v=123
69120 On ch=2 n=d#4 v=54
69120 On ch=2 n=f#4 v=54
69125 On ch=2 n=f#4 v=0
69360 On ch=2 n=d#4 v=56
69360 On ch=2 n=f#4 v=56
69365 On ch=2 n=f#4 v=0
69365 On ch=2 n=d#4 v=0
69600 On ch=2 n=f#4 v=57
69600 On ch=2 n=d#4 v=57
69605 On ch=2 n=f#4 v=0
69605 On ch=2 n=d#4 v=0
69840 On ch=2 n=d#4 v=59
69840 On ch=2 n=f#4 v=59
69845 On ch=2 n=d#4 v=0
69845 On ch=2 n=f#4 v=0
70080 On ch=2 n=d#4 v=0
70080 On ch=2 n=f#4 v=62
70080 On ch=2 n=c#4 v=62
70085 On ch=2 n=f#4 v=0
70320 On ch=2 n=c#4 v=64
70320 On ch=2 n=f#4 v=64
70325 On ch=2 n=c#4 v=0
70325 On ch=2 n=f#4 v=0
70445 Par ch=2 c=64 v=109
70450 Par ch=2 c=64 v=94
70455 Par ch=2 c=64 v=80
70460 Par ch=2 c=64 v=65
70465 Par ch=2 c=64 v=51
70470 Par ch=2 c=64 v=36
70475 Par ch=2 c=64 v=22
70480 Par ch=2 c=64 v=7
70520 Par ch=2 c=64 v=6
70525 Par ch=2 c=64 v=20
70530 Par ch=2 c=64 v=35
70535 Par ch=2 c=64 v=49
70540 Par ch=2 c=64 v=64
70545 Par ch=2 c=64 v=79
70550 Par ch=2 c=64 v=93
70555 Par ch=2 c=64 v=108
70560 On ch=2 n=c#4 v=0
70560 On ch=2 n=f#4 v=67
70560 Par ch=2 c=64 v=123
70560 On ch=2 n=b3 v=67
70565 On ch=2 n=f#4 v=0
70800 On ch=2 n=f#4 v=69
70800 On ch=2 n=b3 v=69
70805 On ch=2 n=b3 v=0
70805 On ch=2 n=f#4 v=0
71040 On ch=2 n=b3 v=70
71040 On ch=2 n=f#4 v=70
71045 On ch=2 n=b3 v=0
71045 On ch=2 n=f#4 v=0
71280 On ch=2 n=b3 v=71
71280 On ch=2 n=f#4 v=71
71285 On ch=2 n=f#4 v=0
71285 On ch=2 n=b3 v=0
71520 On ch=2 n=b3 v=0
71520 On ch=2 n=c#4 v=74
71520 On ch=2 n=f#4 v=74
71525 On ch=2 n=f#4 v=0
71760 On ch=2 n=c#4 v=75
71760 On ch=2 n=f#4 v=75
71765 On ch=2 n=f#4 v=0
71765 On ch=2 n=c#4 v=0
71805 Par ch=2 c=64 v=4
71810 Par ch=2 c=64 v=8
71815 Par ch=2 c=64 v=12
71820 Par ch=2 c=64 v=16
71825 Par ch=2 c=64 v=20
71830 Par ch=2 c=64 v=24
71835 Par ch=2 c=64 v=28
71840 Par ch=2 c=64 v=32
71845 Par ch=2 c=64 v=29
71850 Par ch=2 c=64 v=26
71855 Par ch=2 c=64 v=23
71860 Par ch=2 c=64 v=19
71865 Par ch=2 c=64 v=16
71870 Par ch=2 c=64 v=10
71875 Par ch=2 c=64 v=10
71880 Par ch=2 c=64 v=6
71885 Par ch=2 c=64 v=17
71890 Par ch=2 c=64 v=28
71895 Par ch=2 c=64 v=39
71900 Par ch=2 c=64 v=50
71905 Par ch=2 c=64 v=61
71910 Par ch=2 c=64 v=72
71915 Par ch=2 c=64 v=83
71920 Par ch=2 c=64 v=95
71925 Par ch=2 c=64 v=98
71930 Par ch=2 c=64 v=101
71935 Par ch=2 c=64 v=104
71940 Par ch=2 c=64 v=108
71945 Par ch=2 c=64 v=111
71950 Par ch=2 c=64 v=114
71955 Par ch=2 c=64 v=117
71960 Par ch=2 c=64 v=121
71980 Par ch=2 c=64 v=122
72000 On ch=2 n=c#4 v=0
72000 Par ch=2 c=64 v=123
72000 On ch=2 n=f#4 v=79
72000 On ch=2 n=d#4 v=79
72005 On ch=2 n=f#4 v=0
72240 On ch=2 n=d#4 v=73
72240 On ch=2 n=f#4 v=73
72245 On ch=2 n=d#4 v=0
72245 On ch=2 n=f#4 v=0
72480 On ch=2 n=d#4 v=0
72480 On ch=2 n=f#4 v=67
72480 On ch=2 n=b3 v=67
72485 On ch=2 n=f#4 v=0
72720 On ch=2 n=f#4 v=60
72720 On ch=2 n=b3 v=60
72725 On ch=2 n=b3 v=0
72725 On ch=2 n=f#4 v=0
72960 On ch=2 n=f#4 v=0
72960 On ch=2 n=g#4 v=53
72960 On ch=2 n=b3 v=53
72965 On ch=2 n=b3 v=0
73200 On ch=2 n=g#4 v=0
73200 On ch=2 n=f#4 v=49
73200 On ch=2 n=b3 v=49
73205 On ch=2 n=b3 v=0
73325 Par ch=2 c=64 v=109
73330 Par ch=2 c=64 v=94
73335 Par ch=2 c=64 v=80
73340 Par ch=2 c=64 v=65
73345 Par ch=2 c=64 v=50
73350 Par ch=2 c=64 v=36
73355 Par ch=2 c=64 v=21
73360 Par ch=2 c=64 v=6
73405 Par ch=2 c=64 v=20
73410 Par ch=2 c=64 v=35
73415 Par ch=2 c=64 v=49
73420 Par ch=2 c=64 v=64
73425 Par ch=2 c=64 v=79
73430 Par ch=2 c=64 v=93
73435 Par ch=2 c=64 v=108
73440 On ch=2 n=f#4 v=0
73440 On ch=2 n=b3 v=43
73440 Par ch=2 c=64 v=123
73440 On ch=2 n=g#4 v=43
73445 On ch=2 n=b3 v=0
73680 On ch=2 n=g#4 v=0
73680 On ch=2 n=b3 v=46
73680 On ch=2 n=f#4 v=46
73685 On ch=2 n=b3 v=0
73920 On ch=2 n=f#4 v=0
73920 On ch=2 n=b3 v=48
73920 On ch=2 n=g#4 v=48
73925 On ch=2 n=b3 v=0
74000 Par ch=2 c=66 v=122
74085 Par ch=2 c=64 v=109
74090 Par ch=2 c=64 v=94
74095 Par ch=2 c=64 v=79
74100 Par ch=2 c=64 v=64
74105 Par ch=2 c=64 v=49
74110 Par ch=2 c=64 v=34
74115 Par ch=2 c=64 v=19
74120 Par ch=2 c=64 v=4
74160 On ch=2 n=g#4 v=0
74160 On ch=2 n=f#4 v=51
74160 On ch=2 n=b3 v=51
74165 On ch=2 n=b3 v=0
74165 Par ch=2 c=64 v=18
74170 Par ch=2 c=64 v=33
74175 Par ch=2 c=64 v=48
74180 Par ch=2 c=64 v=63
74185 Par ch=2 c=64 v=78
74190 Par ch=2 c=64 v=93
74195 Par ch=2 c=64 v=108
74200 Par ch=2 c=64 v=123
74400 On ch=2 n=b3 v=0
74400 On ch=2 n=f#4 v=56
74400 On ch=2 n=a#3 v=56
74405 On ch=2 n=f#4 v=0
74420 Par ch=2 c=66 v=121
74440 Par ch=2 c=66 v=120
74640 On ch=2 n=a#3 v=0
74640 On ch=2 n=c#4 v=60
74640 On ch=2 n=f#4 v=60
74645 On ch=2 n=f#4 v=0
74765 Par ch=2 c=64 v=109
74770 Par ch=2 c=64 v=94
74775 Par ch=2 c=64 v=79
74780 Par ch=2 c=64 v=64
74785 Par ch=2 c=64 v=49
74790 Par ch=2 c=64 v=34
74795 Par ch=2 c=64 v=19
74800 Par ch=2 c=64 v=4
74845 Par ch=2 c=64 v=18
74850 Par ch=2 c=64 v=33
74855 Par ch=2 c=64 v=48
74860 Par ch=2 c=64 v=63
74865 Par ch=2 c=64 v=78
74870 Par ch=2 c=64 v=93
74875 Par ch=2 c=64 v=108
74880 On ch=2 n=c#4 v=0
74880 On ch=2 n=f#4 v=65
74880 On ch=2 n=a#4 v=65
74880 Par ch=2 c=64 v=123
74880 On ch=2 n=d#4 v=65
74885 On ch=2 n=f#4 v=0
75000 Par ch=2 c=64 v=122
75120 On ch=2 n=d#4 v=69
75120 On ch=2 n=f#4 v=69
75120 On ch=2 n=a#4 v=69
75125 On ch=2 n=d#4 v=0
75125 On ch=2 n=a#4 v=0
75125 On ch=2 n=f#4 v=0
75360 On ch=2 n=f#4 v=0
75360 On ch=2 n=a#4 v=71
75360 On ch=2 n=d#5 v=71
75360 On ch=2 n=d#4 v=71
75365 On ch=2 n=a#4 v=0
75365 On ch=2 n=d#4 v=0
75600 On ch=2 n=d#5 v=75
75600 On ch=2 n=d#4 v=75
75600 On ch=2 n=a#4 v=75
75605 On ch=2 n=d#4 v=0
75605 On ch=2 n=d#5 v=0
75605 On ch=2 n=a#4 v=0
75840 On ch=2 n=a#4 v=0
75840 On ch=2 n=d#5 v=0
75840 On ch=2 n=c5 v=79
75840 On ch=2 n=g#3 v=79
75840 On ch=2 n=d#4 v=79
75840 On ch=2 n=g#4 v=79
75845 On ch=2 n=d#4 v=0
76000 Par ch=2 c=64 v=123
76080 On ch=2 n=g#4 v=84
76080 On ch=2 n=g#3 v=84
76080 On ch=2 n=d#4 v=84
76080 On ch=2 n=c5 v=84
76085 On ch=2 n=g#4 v=0
76085 On ch=2 n=d#4 v=0
76085 On ch=2 n=g#3 v=0
76085 On ch=2 n=c5 v=0
76205 Par ch=2 c=64 v=109
76210 Par ch=2 c=64 v=94
76215 Par ch=2 c=64 v=80
76220 Par ch=2 c=64 v=65
76225 Par ch=2 c=64 v=50
76230 Par ch=2 c=64 v=36
76235 Par ch=2 c=64 v=21
76240 Par ch=2 c=64 v=6
76285 Par ch=2 c=64 v=20
76290 Par ch=2 c=64 v=35
76295 Par ch=2 c=64 v=49
76300 Par ch=2 c=64 v=64
76305 Par ch=2 c=64 v=79
76310 Par ch=2 c=64 v=93
76315 Par ch=2 c=64 v=108
76320 On ch=2 n=c5 v=0
76320 On ch=2 n=d#4 v=0
76320 On ch=2 n=g#3 v=0
76320 On ch=2 n=g#4 v=89
76320 On ch=2 n=b4 v=89
76320 On ch=2 n=c#4 v=89
76320 Par ch=2 c=64 v=123
76325 On ch=2 n=g#4 v=0
76420 Par ch=2 c=66 v=121
76440 Par ch=2 c=66 v=122
76560 On ch=2 n=c#4 v=92
76560 On ch=2 n=b4 v=92
76560 On ch=2 n=g#4 v=92
76565 On ch=2 n=c#4 v=0
76565 On ch=2 n=b4 v=0
76565 On ch=2 n=g#4 v=0
76800 On ch=2 n=g#4 v=89
76800 On ch=2 n=b4 v=89
76800 On ch=2 n=c#4 v=89
76805 On ch=2 n=g#4 v=0
76805 On ch=2 n=b4 v=0
76805 On ch=2 n=c#4 v=0
77040 On ch=2 n=c#4 v=84
77040 On ch=2 n=b4 v=84
77040 On ch=2 n=g#4 v=84
77045 On ch=2 n=c#4 v=0
77045 On ch=2 n=b4 v=0
77045 On ch=2 n=g#4 v=0
77280 On ch=2 n=b4 v=80
77280 On ch=2 n=g#4 v=80
77280 On ch=2 n=c#4 v=80
77280 Par ch=2 c=66 v=123
77285 On ch=2 n=g#4 v=0
77285 On ch=2 n=b4 v=0
77285 On ch=2 n=c#4 v=0
77320 Par ch=2 c=64 v=122
77420 Par ch=2 c=64 v=121
77440 Par ch=2 c=64 v=120
77520 On ch=2 n=g#4 v=76
77520 On ch=2 n=c#4 v=76
77520 On ch=2 n=b4 v=76
77525 On ch=2 n=c#4 v=0
77525 On ch=2 n=g#4 v=0
77525 On ch=2 n=b4 v=0
77600 Par ch=2 c=64 v=119
77760 On ch=2 n=b4 v=0
77760 On ch=2 n=g#4 v=69
77760 On ch=2 n=c#4 v=69
77765 On ch=2 n=c#4 v=0
77765 On ch=2 n=g#4 v=0
78000 On ch=2 n=g#4 v=0
78000 On ch=2 n=f#3 v=63
78000 On ch=2 n=c#4 v=63
78005 On ch=2 n=c#4 v=0
78125 Par ch=2 c=64 v=105
78130 Par ch=2 c=64 v=91
78135 Par ch=2 c=64 v=77
78140 Par ch=2 c=64 v=63
78145 Par ch=2 c=64 v=49
78150 Par ch=2 c=64 v=35
78155 Par ch=2 c=64 v=21
78160 Par ch=2 c=64 v=6
78205 Par ch=2 c=64 v=20
78210 Par ch=2 c=64 v=34
78215 Par ch=2 c=64 v=48
78220 Par ch=2 c=64 v=62
78225 Par ch=2 c=64 v=76
78230 Par ch=2 c=64 v=90
78235 Par ch=2 c=64 v=104
78240 On ch=2 n=c#4 v=58
78240 Par ch=2 c=64 v=119
78240 On ch=2 n=f#3 v=58
78245 On ch=2 n=c#4 v=0
78245 On ch=2 n=f#3 v=0
78320 Par ch=2 c=64 v=118
78480 On ch=2 n=f#3 v=54
78480 On ch=2 n=c#4 v=54
78485 On ch=2 n=f#3 v=0
78485 On ch=2 n=c#4 v=0
78645 Par ch=2 c=64 v=104
78650 Par ch=2 c=64 v=90
78655 Par ch=2 c=64 v=76
78660 Par ch=2 c=64 v=61
78665 Par ch=2 c=64 v=47
78670 Par ch=2 c=64 v=33
78675 Par ch=2 c=64 v=19
78680 Par ch=2 c=64 v=4
78720 On ch=2 n=f#3 v=48
78720 On ch=2 n=c#4 v=48
78725 On ch=2 n=c#4 v=0
78725 On ch=2 n=f#3 v=0
78725 Par ch=2 c=64 v=18
78730 Par ch=2 c=64 v=32
78735 Par ch=2 c=64 v=46
78740 Par ch=2 c=64 v=61
78745 Par ch=2 c=64 v=75
78750 Par ch=2 c=64 v=89
78755 Par ch=2 c=64 v=103
78760 Par ch=2 c=64 v=118
78960 On ch=2 n=c#4 v=0
78960 On ch=2 n=f4 v=48
78960 On ch=2 n=f#3 v=48
78965 On ch=2 n=f#3 v=0
79125 Par ch=2 c=64 v=104
79130 Par ch=2 c=64 v=90
79135 Par ch=2 c=64 v=76
79140 Par ch=2 c=64 v=61
79145 Par ch=2 c=64 v=47
79150 Par ch=2 c=64 v=33
79155 Par ch=2 c=64 v=19
79160 Par ch=2 c=64 v=4
79200 On ch=2 n=f4 v=0
79200 On ch=2 n=f#3 v=47
79200 On ch=2 n=f#4 v=47
79205 On ch=2 n=f#3 v=0
79205 Par ch=2 c=64 v=18
79210 Par ch=2 c=64 v=32
79215 Par ch=2 c=64 v=46
79220 Par ch=2 c=64 v=61
79225 Par ch=2 c=64 v=75
79230 Par ch=2 c=64 v=89
79235 Par ch=2 c=64 v=103
79240 Par ch=2 c=64 v=118
79440 On ch=2 n=f#4 v=0
79440 On ch=2 n=f#3 v=0
79440 On ch=2 n=f3 v=47
79600 Par ch=2 c=64 v=119
79680 On ch=2 n=f3 v=0
79680 On ch=2 n=g#3 v=46
79920 On ch=2 n=g#3 v=0
79920 On ch=2 n=f#3 v=46
80160 On ch=2 n=f#3 v=0
80160 On ch=2 n=a#3 v=46
80325 Par ch=2 c=64 v=7
80330 Par ch=2 c=64 v=15
80335 Par ch=2 c=64 v=23
80340 Par ch=2 c=64 v=31
80345 Par ch=2 c=64 v=39
80350 Par ch=2 c=64 v=47
80355 Par ch=2 c=64 v=55
80360 Par ch=2 c=64 v=63
80365 Par ch=2 c=64 v=58
80370 Par ch=2 c=64 v=53
80375 Par ch=2 c=64 v=48
80380 Par ch=2 c=64 v=43
80385 Par ch=2 c=64 v=38
80390 Par ch=2 c=64 v=33
80395 Par ch=2 c=64 v=28
80400 On ch=2 n=a#3 v=0
80400 Par ch=2 c=64 v=22
80400 On ch=2 n=c#3 v=46
80405 Par ch=2 c=64 v=21
80410 Par ch=2 c=64 v=19
80415 Par ch=2 c=64 v=18
80420 Par ch=2 c=64 v=16
80425 Par ch=2 c=64 v=15
80430 Par ch=2 c=64 v=10
80435 Par ch=2 c=64 v=12
80440 Par ch=2 c=64 v=10
80445 Par ch=2 c=64 v=19
80450 Par ch=2 c=64 v=28
80455 Par ch=2 c=64 v=37
80460 Par ch=2 c=64 v=47
80465 Par ch=2 c=64 v=56
80470 Par ch=2 c=64 v=65
80475 Par ch=2 c=64 v=74
80480 Par ch=2 c=64 v=84
80485 Par ch=2 c=64 v=88
80490 Par ch=2 c=64 v=92
80495 Par ch=2 c=64 v=96
80500 Par ch=2 c=64 v=100
80505 Par ch=2 c=64 v=104
80510 Par ch=2 c=64 v=108
80515 Par ch=2 c=64 v=112
80520 Par ch=2 c=64 v=117
80530 Par ch=2 c=64 v=118
80540 Par ch=2 c=64 v=119
80545 Par ch=2 c=64 v=120
80555 Par ch=2 c=64 v=121
80560 Par ch=2 c=64 v=122
80600 Par ch=2 c=64 v=123
80605 Par ch=2 c=66 v=108
80610 Par ch=2 c=66 v=93
80615 Par ch=2 c=66 v=77
80620 Par ch=2 c=66 v=62
80625 Par ch=2 c=66 v=47
80630 Par ch=2 c=66 v=31
80635 Par ch=2 c=66 v=16
80640 On ch=2 n=c#3 v=0
80640 On ch=2 n=f#2 v=46
80640 Par ch=2 c=66 v=0
80880 On ch=2 n=f#2 v=0
80880 On ch=2 n=f4 v=46
81120 On ch=2 n=f4 v=0
81120 On ch=2 n=g#4 v=46
81360 On ch=2 n=g#4 v=0
81360 On ch=2 n=f#4 v=47
81600 On ch=2 n=f#4 v=0
81600 On ch=2 n=a#4 v=47
81840 On ch=2 n=a#4 v=0
81840 On ch=2 n=c#4 v=47
81845 Par ch=2 c=64 v=113
81850 Par ch=2 c=64 v=103
81855 Par ch=2 c=64 v=93
81860 Par ch=2 c=64 v=83
81865 Par ch=2 c=64 v=73
81870 Par ch=2 c=64 v=63
81875 Par ch=2 c=64 v=53
81880 Par ch=2 c=64 v=42
81885 Par ch=2 c=64 v=38
81890 Par ch=2 c=64 v=33
81895 Par ch=2 c=64 v=29
81900 Par ch=2 c=64 v=24
81905 Par ch=2 c=64 v=20
81910 Par ch=2 c=64 v=15
81915 Par ch=2 c=64 v=11
81920 Par ch=2 c=64 v=6
81925 Par ch=2 c=64 v=15
81930 Par ch=2 c=64 v=24
81935 Par ch=2 c=64 v=33
81940 Par ch=2 c=64 v=42
81945 Par ch=2 c=64 v=51
81950 Par ch=2 c=64 v=60
81955 Par ch=2 c=64 v=69
81960 Par ch=2 c=64 v=79
81965 Par ch=2 c=64 v=83
81970 Par ch=2 c=64 v=87
81975 Par ch=2 c=64 v=91
81980 Par ch=2 c=64 v=96
81985 Par ch=2 c=64 v=100
81990 Par ch=2 c=64 v=104
81995 Par ch=2 c=64 v=108
82000 Par ch=2 c=64 v=113
82010 Par ch=2 c=64 v=114
82020 Par ch=2 c=64 v=115
82025 Par ch=2 c=64 v=116
82035 Par ch=2 c=64 v=117
82040 Par ch=2 c=64 v=118
82060 Par ch=2 c=64 v=119
82080 On ch=2 n=c#4 v=0
82080 On ch=2 n=f#3 v=47
82080 Par ch=2 c=64 v=120
82320 On ch=2 n=f#3 v=0
82320 On ch=2 n=f4 v=49
82560 On ch=2 n=f4 v=0
82560 On ch=2 n=g#4 v=52
82800 On ch=2 n=g#4 v=0
82800 On ch=2 n=f#4 v=54
83040 On ch=2 n=f#4 v=0
83040 On ch=2 n=a#4 v=58
83280 On ch=2 n=a#4 v=0
83280 On ch=2 n=c#4 v=62
83325 Par ch=2 c=64 v=106
83330 Par ch=2 c=64 v=91
83335 Par ch=2 c=64 v=76
83340 Par ch=2 c=64 v=61
83345 Par ch=2 c=64 v=47
83350 Par ch=2 c=64 v=32
83355 Par ch=2 c=64 v=17
83360 Par ch=2 c=64 v=2
83400 Par ch=2 c=64 v=1
83405 Par ch=2 c=64 v=12
83410 Par ch=2 c=64 v=23
83415 Par ch=2 c=64 v=34
83420 Par ch=2 c=64 v=46
83425 Par ch=2 c=64 v=57
83430 Par ch=2 c=64 v=68
83435 Par ch=2 c=64 v=79
83440 Par ch=2 c=64 v=91
83445 Par ch=2 c=64 v=94
83450 Par ch=2 c=64 v=97
83455 Par ch=2 c=64 v=100
83460 Par ch=2 c=64 v=104
83465 Par ch=2 c=64 v=107
83470 Par ch=2 c=64 v=110
83475 Par ch=2 c=64 v=113
83480 Par ch=2 c=64 v=117
83500 Par ch=2 c=64 v=118
83520 On ch=2 n=c#4 v=0
83520 On ch=2 n=f#3 v=67
83520 Par ch=2 c=64 v=119
83760 On ch=2 n=f#3 v=0
83760 On ch=2 n=f4 v=71
84000 On ch=2 n=f4 v=0
84000 On ch=2 n=g#4 v=78
84240 On ch=2 n=g#4 v=0
84240 On ch=2 n=f#4 v=81
84480 On ch=2 n=f#4 v=0
84480 On ch=2 n=a#4 v=85
84685 Par ch=2 c=64 v=110
84690 Par ch=2 c=64 v=100
84695 Par ch=2 c=64 v=91
84700 Par ch=2 c=64 v=81
84705 Par ch=2 c=64 v=72
84710 Par ch=2 c=64 v=62
84715 Par ch=2 c=64 v=53
84720 On ch=2 n=a#4 v=0
84720 On ch=2 n=c#4 v=92
84720 Par ch=2 c=64 v=43
84725 Par ch=2 c=64 v=39
84730 Par ch=2 c=64 v=35
84735 Par ch=2 c=64 v=30
84740 Par ch=2 c=64 v=26
84745 Par ch=2 c=64 v=22
84750 Par ch=2 c=64 v=17
84755 Par ch=2 c=64 v=10
84760 Par ch=2 c=64 v=8
84770 Par ch=2 c=64 v=7
84775 Par ch=2 c=64 v=6
84780 Par ch=2 c=64 v=5
84790 Par ch=2 c=64 v=4
84795 Par ch=2 c=64 v=3
84800 Par ch=2 c=64 v=2
84840 Par ch=2 c=64 v=1
84845 Par ch=2 c=64 v=12
84850 Par ch=2 c=64 v=23
84855 Par ch=2 c=64 v=34
84860 Par ch=2 c=64 v=46
84865 Par ch=2 c=64 v=57
84870 Par ch=2 c=64 v=68
84875 Par ch=2 c=64 v=79
84880 Par ch=2 c=64 v=91
84885 Par ch=2 c=64 v=94
84890 Par ch=2 c=64 v=97
84895 Par ch=2 c=64 v=100
84900 Par ch=2 c=64 v=104
84905 Par ch=2 c=64 v=107
84910 Par ch=2 c=64 v=110
84915 Par ch=2 c=64 v=113
84920 Par ch=2 c=64 v=117
84940 Par ch=2 c=64 v=118
84960 On ch=2 n=c#4 v=0
84960 Par ch=2 c=64 v=119
84960 On ch=2 n=f#3 v=96
85200 On ch=2 n=f#3 v=0
85200 On ch=2 n=f4 v=96
85440 On ch=2 n=f4 v=0
85440 On ch=2 n=g#4 v=96
85680 On ch=2 n=g#4 v=0
85680 On ch=2 n=f#4 v=95
85920 On ch=2 n=f#4 v=0
85920 On ch=2 n=a#4 v=95
86125 Par ch=2 c=64 v=110
86130 Par ch=2 c=64 v=100
86135 Par ch=2 c=64 v=91
86140 Par ch=2 c=64 v=81
86145 Par ch=2 c=64 v=72
86150 Par ch=2 c=64 v=62
86155 Par ch=2 c=64 v=53
86160 On ch=2 n=a#4 v=0
86160 On ch=2 n=c#4 v=95
86160 Par ch=2 c=64 v=43
86165 Par ch=2 c=64 v=39
86170 Par ch=2 c=64 v=35
86175 Par ch=2 c=64 v=30
86180 Par ch=2 c=64 v=26
86185 Par ch=2 c=64 v=22
86190 Par ch=2 c=64 v=17
86195 Par ch=2 c=64 v=10
86200 Par ch=2 c=64 v=8
86210 Par ch=2 c=64 v=7
86215 Par ch=2 c=64 v=6
86220 Par ch=2 c=64 v=5
86230 Par ch=2 c=64 v=4
86235 Par ch=2 c=64 v=3
86240 Par ch=2 c=64 v=2
86280 Par ch=2 c=64 v=1
86285 Par ch=2 c=64 v=12
86290 Par ch=2 c=64 v=23
86295 Par ch=2 c=64 v=34
86300 Par ch=2 c=64 v=46
86305 Par ch=2 c=64 v=57
86310 Par ch=2 c=64 v=68
86315 Par ch=2 c=64 v=79
86320 Par ch=2 c=64 v=91
86325 Par ch=2 c=64 v=94
86330 Par ch=2 c=64 v=97
86335 Par ch=2 c=64 v=100
86340 Par ch=2 c=64 v=104
86345 Par ch=2 c=64 v=107
86350 Par ch=2 c=64 v=110
86355 Par ch=2 c=64 v=113
86360 Par ch=2 c=64 v=117
86380 Par ch=2 c=64 v=118
86400 On ch=2 n=c#4 v=0
86400 Par ch=2 c=64 v=119
86400 On ch=2 n=b3 v=91
86640 On ch=2 n=b3 v=0
86640 On ch=2 n=f4 v=85
86880 On ch=2 n=f4 v=0
86880 On ch=2 n=g#4 v=79
87005 Par ch=2 c=64 v=107
87010 Par ch=2 c=64 v=94
87015 Par ch=2 c=64 v=81
87020 Par ch=2 c=64 v=68
87025 Par ch=2 c=64 v=56
87030 Par ch=2 c=64 v=43
87035 Par ch=2 c=64 v=30
87040 Par ch=2 c=64 v=17
87045 Par ch=2 c=64 v=16
87050 Par ch=2 c=64 v=14
87055 Par ch=2 c=64 v=12
87060 Par ch=2 c=64 v=10
87065 Par ch=2 c=64 v=8
87070 Par ch=2 c=64 v=6
87075 Par ch=2 c=64 v=4
87080 Par ch=2 c=64 v=2
87120 On ch=2 n=g#4 v=0
87120 On ch=2 n=f#4 v=69
87360 On ch=2 n=f#4 v=0
87360 On ch=2 n=a#4 v=63
87600 On ch=2 n=a#4 v=0
87600 On ch=2 n=c#4 v=57
87605 Par ch=2 c=64 v=5
87610 Par ch=2 c=64 v=9
87615 Par ch=2 c=64 v=10
87620 Par ch=2 c=64 v=17
87625 Par ch=2 c=64 v=20
87630 Par ch=2 c=64 v=24
87635 Par ch=2 c=64 v=28
87640 Par ch=2 c=64 v=32
87645 Par ch=2 c=64 v=29
87650 Par ch=2 c=64 v=25
87655 Par ch=2 c=64 v=22
87660 Par ch=2 c=64 v=18
87665 Par ch=2 c=64 v=15
87670 Par ch=2 c=64 v=11
87675 Par ch=2 c=64 v=8
87680 Par ch=2 c=64 v=4
87695 Par ch=2 c=64 v=3
87710 Par ch=2 c=64 v=2
87720 Par ch=2 c=64 v=1
87760 Par ch=2 c=64 v=0
87765 Par ch=2 c=64 v=10
87770 Par ch=2 c=64 v=26
87775 Par ch=2 c=64 v=39
87780 Par ch=2 c=64 v=52
87785 Par ch=2 c=64 v=65
87790 Par ch=2 c=64 v=78
87795 Par ch=2 c=64 v=91
87800 Par ch=2 c=64 v=104
87805 Par ch=2 c=64 v=105
87810 Par ch=2 c=64 v=107
87815 Par ch=2 c=64 v=109
87820 Par ch=2 c=64 v=111
87825 Par ch=2 c=64 v=113
87830 Par ch=2 c=64 v=115
87835 Par ch=2 c=64 v=117
87840 On ch=2 n=c#4 v=0
87840 Par ch=2 c=64 v=119
87840 On ch=2 n=b3 v=51
88080 On ch=2 n=b3 v=0
88080 On ch=2 n=f4 v=51
88320 On ch=2 n=f4 v=0
88320 On ch=2 n=g#4 v=49
88560 On ch=2 n=g#4 v=0
88560 On ch=2 n=f#4 v=51
88800 On ch=2 n=f#4 v=0
88800 On ch=2 n=b4 v=51
88965 Par ch=2 c=64 v=114
88970 Par ch=2 c=64 v=109
88975 Par ch=2 c=64 v=104
88980 Par ch=2 c=64 v=98
88985 Par ch=2 c=64 v=93
88990 Par ch=2 c=64 v=88
88995 Par ch=2 c=64 v=83
89000 Par ch=2 c=64 v=77
89005 Par ch=2 c=64 v=73
89010 Par ch=2 c=64 v=69
89015 Par ch=2 c=64 v=65
89020 Par ch=2 c=64 v=60
89025 Par ch=2 c=64 v=56
89030 Par ch=2 c=64 v=52
89035 Par ch=2 c=64 v=48
89040 On ch=2 n=b4 v=0
89040 Par ch=2 c=64 v=43
89040 On ch=2 n=b3 v=51
89045 Par ch=2 c=64 v=41
89050 Par ch=2 c=64 v=38
89055 Par ch=2 c=64 v=36
89060 Par ch=2 c=64 v=33
89065 Par ch=2 c=64 v=30
89070 Par ch=2 c=64 v=28
89075 Par ch=2 c=64 v=25
89080 Par ch=2 c=64 v=22
89085 Par ch=2 c=64 v=20
89090 Par ch=2 c=64 v=18
89095 Par ch=2 c=64 v=16
89100 Par ch=2 c=64 v=10
89105 Par ch=2 c=64 v=11
89110 Par ch=2 c=64 v=9
89115 Par ch=2 c=64 v=7
89120 Par ch=2 c=64 v=4
89135 Par ch=2 c=64 v=3
89150 Par ch=2 c=64 v=2
89160 Par ch=2 c=64 v=1
89200 Par ch=2 c=64 v=0
89205 Par ch=2 c=64 v=10
89210 Par ch=2 c=64 v=26
89215 Par ch=2 c=64 v=39
89220 Par ch=2 c=64 v=52
89225 Par ch=2 c=64 v=65
89230 Par ch=2 c=64 v=78
89235 Par ch=2 c=64 v=91
89240 Par ch=2 c=64 v=104
89245 Par ch=2 c=64 v=105
89250 Par ch=2 c=64 v=107
89255 Par ch=2 c=64 v=109
89260 Par ch=2 c=64 v=111
89265 Par ch=2 c=64 v=113
89270 Par ch=2 c=64 v=115
89275 Par ch=2 c=64 v=117
89280 On ch=2 n=b3 v=0
89280 On ch=2 n=d#3 v=51
89280 Par ch=2 c=64 v=119
89520 On ch=2 n=d#3 v=0
89520 On ch=2 n=d4 v=51
89760 On ch=2 n=d4 v=0
89760 On ch=2 n=e4 v=51
90000 On ch=2 n=e4 v=0
90000 On ch=2 n=d#4 v=51
90045 Par ch=2 c=64 v=114
90050 Par ch=2 c=64 v=108
90055 Par ch=2 c=64 v=103
90060 Par ch=2 c=64 v=97
90065 Par ch=2 c=64 v=92
90070 Par ch=2 c=64 v=86
90075 Par ch=2 c=64 v=81
90080 Par ch=2 c=64 v=75
90240 On ch=2 n=d#4 v=0
90240 On ch=2 n=g4 v=51
90480 On ch=2 n=g4 v=0
90480 On ch=2 n=a#3 v=51
90525 Par ch=2 c=64 v=68
90530 Par ch=2 c=64 v=61
90535 Par ch=2 c=64 v=54
90540 Par ch=2 c=64 v=47
90545 Par ch=2 c=64 v=40
90550 Par ch=2 c=64 v=33
90555 Par ch=2 c=64 v=26
90560 Par ch=2 c=64 v=19
90565 Par ch=2 c=64 v=17
90570 Par ch=2 c=64 v=15
90575 Par ch=2 c=64 v=10
90580 Par ch=2 c=64 v=10
90585 Par ch=2 c=64 v=8
90590 Par ch=2 c=64 v=6
90595 Par ch=2 c=64 v=4
90600 Par ch=2 c=64 v=1
90640 Par ch=2 c=64 v=0
90685 Par ch=2 c=64 v=14
90690 Par ch=2 c=64 v=29
90695 Par ch=2 c=64 v=44
90700 Par ch=2 c=64 v=59
90705 Par ch=2 c=64 v=74
90710 Par ch=2 c=64 v=89
90715 Par ch=2 c=64 v=104
90720 On ch=2 n=a#3 v=0
90720 Par ch=2 c=64 v=119
90720 On ch=2 n=g#3 v=51
90960 On ch=2 n=g#3 v=0
90960 On ch=2 n=d4 v=51
91085 Par ch=2 c=64 v=105
91090 Par ch=2 c=64 v=90
91095 Par ch=2 c=64 v=75
91200 On ch=2 n=d4 v=0
91200 On ch=2 n=e4 v=51
91440 On ch=2 n=e4 v=0
91440 On ch=2 n=d#4 v=51
91680 On ch=2 n=d#4 v=0
91680 On ch=2 n=g#4 v=51
91920 On ch=2 n=g#4 v=0
91920 On ch=2 n=g#3 v=51
92005 Par ch=2 c=64 v=105
92010 Par ch=2 c=64 v=91
92015 Par ch=2 c=64 v=76
92020 Par ch=2 c=64 v=62
92025 Par ch=2 c=64 v=48
92030 Par ch=2 c=64 v=33
92035 Par ch=2 c=64 v=19
92040 Par ch=2 c=64 v=4
92050 Par ch=2 c=64 v=3
92060 Par ch=2 c=64 v=2
92070 Par ch=2 c=64 v=1
92080 Par ch=2 c=64 v=0
92160 On ch=2 n=g#3 v=0
92160 On ch=2 n=c#3 v=51
92160 Par ch=2 c=64 v=119
92400 On ch=2 n=c#3 v=0
92400 On ch=2 n=c4 v=51
92640 On ch=2 n=c4 v=0
92640 On ch=2 n=d#4 v=51
92880 On ch=2 n=d#4 v=0
92880 On ch=2 n=c#4 v=51
93120 On ch=2 n=c#4 v=0
93120 On ch=2 n=f4 v=51
93360 On ch=2 n=f4 v=0
93360 On ch=2 n=g#3 v=51
93445 Par ch=2 c=64 v=105
93450 Par ch=2 c=64 v=91
93455 Par ch=2 c=64 v=76
93460 Par ch=2 c=64 v=62
93465 Par ch=2 c=64 v=48
93470 Par ch=2 c=64 v=33
93475 Par ch=2 c=64 v=19
93480 Par ch=2 c=64 v=4
93490 Par ch=2 c=64 v=3
93500 Par ch=2 c=64 v=2
93510 Par ch=2 c=64 v=1
93520 Par ch=2 c=64 v=0
93600 On ch=2 n=g#3 v=0
93600 Par ch=2 c=64 v=119
93600 On ch=2 n=c#3 v=51
93840 On ch=2 n=c#3 v=0
93840 On ch=2 n=c4 v=49
94080 On ch=2 n=c4 v=0
94080 On ch=2 n=d#4 v=49
94320 On ch=2 n=d#4 v=0
94320 On ch=2 n=c#4 v=49
94560 On ch=2 n=c#4 v=0
94560 On ch=2 n=f4 v=48
94800 On ch=2 n=f4 v=0
94800 On ch=2 n=g#3 v=48
94885 Par ch=2 c=64 v=105
94890 Par ch=2 c=64 v=91
94895 Par ch=2 c=64 v=76
94900 Par ch=2 c=64 v=62
94905 Par ch=2 c=64 v=48
94910 Par ch=2 c=64 v=33
94915 Par ch=2 c=64 v=19
94920 Par ch=2 c=64 v=4
94930 Par ch=2 c=64 v=3
94940 Par ch=2 c=64 v=2
94950 Par ch=2 c=64 v=1
94960 Par ch=2 c=64 v=0
95040 On ch=2 n=g#3 v=0
95040 Par ch=2 c=64 v=119
95040 On ch=2 n=f#3 v=48
95280 On ch=2 n=f#3 v=0
95280 On ch=2 n=c4 v=48
95520 On ch=2 n=c4 v=0
95520 On ch=2 n=d#4 v=48
95760 On ch=2 n=d#4 v=0
95760 On ch=2 n=c#4 v=48
96000 On ch=2 n=c#4 v=0
96000 On ch=2 n=f#4 v=48
96240 On ch=2 n=f#4 v=0
96240 On ch=2 n=f#3 v=48
96325 Par ch=2 c=64 v=105
96330 Par ch=2 c=64 v=91
96335 Par ch=2 c=64 v=76
96340 Par ch=2 c=64 v=62
96345 Par ch=2 c=64 v=48
96350 Par ch=2 c=64 v=33
96355 Par ch=2 c=64 v=19
96360 Par ch=2 c=64 v=4
96370 Par ch=2 c=64 v=3
96380 Par ch=2 c=64 v=2
96390 Par ch=2 c=64 v=1
96400 Par ch=2 c=64 v=0
96480 On ch=2 n=f#3 v=0
96480 Par ch=2 c=64 v=119
96480 On ch=2 n=b2 v=48
96720 On ch=2 n=b2 v=0
96720 On ch=2 n=d4 v=48
96960 On ch=2 n=d4 v=0
96960 On ch=2 n=f4 v=48
97200 On ch=2 n=f4 v=0
97200 On ch=2 n=d#4 v=48
97440 On ch=2 n=d#4 v=0
97440 On ch=2 n=b4 v=48
97680 On ch=2 n=b4 v=0
97680 On ch=2 n=g#3 v=48
97725 Par ch=2 c=64 v=2
97730 Par ch=2 c=64 v=4
97735 Par ch=2 c=64 v=7
97740 Par ch=2 c=64 v=9
97745 Par ch=2 c=64 v=11
97750 Par ch=2 c=64 v=14
97755 Par ch=2 c=64 v=16
97760 Par ch=2 c=64 v=19
97765 Par ch=2 c=64 v=17
97770 Par ch=2 c=64 v=15
97775 Par ch=2 c=64 v=10
97780 Par ch=2 c=64 v=10
97785 Par ch=2 c=64 v=8
97790 Par ch=2 c=64 v=6
97795 Par ch=2 c=64 v=4
97800 Par ch=2 c=64 v=1
97840 Par ch=2 c=64 v=0
97885 Par ch=2 c=64 v=14
97890 Par ch=2 c=64 v=29
97895 Par ch=2 c=64 v=44
97900 Par ch=2 c=64 v=59
97905 Par ch=2 c=64 v=74
97910 Par ch=2 c=64 v=89
97915 Par ch=2 c=64 v=104
97920 On ch=2 n=g#3 v=0
97920 On ch=2 n=c#3 v=49
97920 Par ch=2 c=64 v=119
97920 On ch=2 n=b4 v=49
97920 On ch=2 n=f5 v=49
98160 On ch=2 n=c#3 v=0
98160 On ch=2 n=b3 v=49
98400 On ch=2 n=b3 v=0
98400 On ch=2 n=d#4 v=49
98640 On ch=2 n=d#4 v=0
98640 On ch=2 n=c#4 v=49
98880 On ch=2 n=c#4 v=0
98880 On ch=2 n=f4 v=49
99120 On ch=2 n=f4 v=0
99120 On ch=2 n=g#3 v=49
99165 Par ch=2 c=64 v=107
99170 Par ch=2 c=64 v=94
99175 Par ch=2 c=64 v=82
99180 Par ch=2 c=64 v=69
99185 Par ch=2 c=64 v=57
99190 Par ch=2 c=64 v=44
99195 Par ch=2 c=64 v=32
99200 Par ch=2 c=64 v=19
99205 Par ch=2 c=64 v=17
99210 Par ch=2 c=64 v=15
99215 Par ch=2 c=64 v=10
99220 Par ch=2 c=64 v=10
99225 Par ch=2 c=64 v=8
99230 Par ch=2 c=64 v=6
99235 Par ch=2 c=64 v=4
99240 Par ch=2 c=64 v=1
99280 Par ch=2 c=64 v=0
99325 Par ch=2 c=64 v=14
99330 Par ch=2 c=64 v=29
99335 Par ch=2 c=64 v=44
99340 Par ch=2 c=64 v=59
99345 Par ch=2 c=64 v=74
99350 Par ch=2 c=64 v=89
99355 Par ch=2 c=64 v=104
99360 On ch=2 n=g#3 v=0
99360 Par ch=2 c=64 v=119
99360 On ch=2 n=c#3 v=51
99600 On ch=2 n=c#3 v=0
99600 On ch=2 n=b3 v=51
99840 On ch=2 n=b3 v=0
99840 On ch=2 n=d#4 v=51
100080 On ch=2 n=d#4 v=0
100080 On ch=2 n=c#4 v=51
100320 On ch=2 n=c#4 v=0
100320 On ch=2 n=g#4 v=51
100560 On ch=2 n=g#4 v=0
100560 On ch=2 n=c#3 v=51
100605 Par ch=2 c=64 v=107
100610 Par ch=2 c=64 v=94
100615 Par ch=2 c=64 v=82
100620 Par ch=2 c=64 v=69
100625 Par ch=2 c=64 v=57
100630 Par ch=2 c=64 v=44
100635 Par ch=2 c=64 v=32
100640 Par ch=2 c=64 v=19
100645 Par ch=2 c=64 v=17
100650 Par ch=2 c=64 v=15
100655 Par ch=2 c=64 v=10
100660 Par ch=2 c=64 v=10
100665 Par ch=2 c=64 v=8
100670 Par ch=2 c=64 v=6
100675 Par ch=2 c=64 v=4
100680 Par ch=2 c=64 v=1
100720 Par ch=2 c=64 v=0
100765 Par ch=2 c=64 v=14
100770 Par ch=2 c=64 v=29
100775 Par ch=2 c=64 v=44
100780 Par ch=2 c=64 v=59
100785 Par ch=2 c=64 v=74
100790 Par ch=2 c=64 v=89
100795 Par ch=2 c=64 v=104
100800 On ch=2 n=c#3 v=0
100800 On ch=2 n=f5 v=0
100800 On ch=2 n=b4 v=0
100800 On ch=2 n=f#2 v=51
100800 Par ch=2 c=64 v=119
101040 On ch=2 n=f#2 v=0
101040 On ch=2 n=c4 v=51
101280 On ch=2 n=c4 v=0
101280 On ch=2 n=d#4 v=51
101520 On ch=2 n=d#4 v=0
101520 On ch=2 n=c#4 v=51
101760 On ch=2 n=c#4 v=0
101760 On ch=2 n=f#4 v=51
102000 On ch=2 n=f#4 v=0
102000 On ch=2 n=c#3 v=51
102045 Par ch=2 c=64 v=107
102050 Par ch=2 c=64 v=94
102055 Par ch=2 c=64 v=82
102060 Par ch=2 c=64 v=69
102065 Par ch=2 c=64 v=57
102070 Par ch=2 c=64 v=44
102075 Par ch=2 c=64 v=32
102080 Par ch=2 c=64 v=19
102085 Par ch=2 c=64 v=17
102090 Par ch=2 c=64 v=15
102095 Par ch=2 c=64 v=10
102100 Par ch=2 c=64 v=10
102105 Par ch=2 c=64 v=8
102110 Par ch=2 c=64 v=6
102115 Par ch=2 c=64 v=4
102120 Par ch=2 c=64 v=1
102160 Par ch=2 c=64 v=0
102205 Par ch=2 c=64 v=14
102210 Par ch=2 c=64 v=29
102215 Par ch=2 c=64 v=44
102220 Par ch=2 c=64 v=59
102225 Par ch=2 c=64 v=74
102230 Par ch=2 c=64 v=89
102235 Par ch=2 c=64 v=104
102240 On ch=2 n=c#3 v=0
102240 Par ch=2 c=64 v=119
102240 On ch=2 n=f#3 v=51
102480 On ch=2 n=f#3 v=0
102480 On ch=2 n=c4 v=51
102720 On ch=2 n=c4 v=0
102720 On ch=2 n=d#4 v=49
102960 On ch=2 n=d#4 v=0
102960 On ch=2 n=c#4 v=49
103200 On ch=2 n=c#4 v=0
103200 On ch=2 n=f#4 v=49
103440 On ch=2 n=f#4 v=0
103440 On ch=2 n=c#3 v=49
103485 Par ch=2 c=64 v=107
103490 Par ch=2 c=64 v=94
103495 Par ch=2 c=64 v=82
103500 Par ch=2 c=64 v=69
103505 Par ch=2 c=64 v=57
103510 Par ch=2 c=64 v=44
103515 Par ch=2 c=64 v=32
103520 Par ch=2 c=64 v=19
103525 Par ch=2 c=64 v=17
103530 Par ch=2 c=64 v=15
103535 Par ch=2 c=64 v=10
103540 Par ch=2 c=64 v=10
103545 Par ch=2 c=64 v=8
103550 Par ch=2 c=64 v=6
103555 Par ch=2 c=64 v=4
103560 Par ch=2 c=64 v=1
103600 Par ch=2 c=64 v=0
103605 Par ch=2 c=66 v=15
103610 Par ch=2 c=66 v=30
103615 Par ch=2 c=66 v=46
103620 Par ch=2 c=66 v=61
103625 Par ch=2 c=66 v=76
103630 Par ch=2 c=66 v=92
103635 Par ch=2 c=66 v=107
103640 Par ch=2 c=66 v=123
103645 Par ch=2 c=64 v=14
103650 Par ch=2 c=64 v=29
103655 Par ch=2 c=64 v=44
103660 Par ch=2 c=64 v=59
103665 Par ch=2 c=64 v=73
103670 Par ch=2 c=64 v=88
103675 Par ch=2 c=64 v=103
103680 On ch=2 n=c#3 v=0
103680 Par ch=2 c=64 v=118
103680 On ch=2 n=a#2 v=49
103920 On ch=2 n=a#2 v=0
103920 On ch=2 n=d#4 v=56
103920 On ch=2 n=f#3 v=56
104160 On ch=2 n=d#4 v=60
104160 On ch=2 n=f#3 v=60
104165 On ch=2 n=f#3 v=0
104165 On ch=2 n=d#4 v=0
104400 On ch=2 n=d#4 v=65
104400 On ch=2 n=f#3 v=65
104405 On ch=2 n=f#3 v=0
104405 On ch=2 n=d#4 v=0
104640 On ch=2 n=d#4 v=70
104640 On ch=2 n=f#3 v=70
104645 On ch=2 n=f#3 v=0
104645 On ch=2 n=d#4 v=0
104880 On ch=2 n=f#3 v=75
104880 On ch=2 n=d#4 v=75
104885 On ch=2 n=f#3 v=0
104885 On ch=2 n=d#4 v=0
105120 On ch=2 n=f#3 v=80
105120 On ch=2 n=d#4 v=80
105125 On ch=2 n=d#4 v=0
105125 On ch=2 n=f#3 v=0
105200 Par ch=2 c=64 v=119
105360 On ch=2 n=d#4 v=76
105360 On ch=2 n=f#3 v=76
105365 On ch=2 n=d#4 v=0
105365 On ch=2 n=f#3 v=0
105600 On ch=2 n=d#4 v=71
105600 On ch=2 n=f#3 v=71
105605 On ch=2 n=f#3 v=0
105605 On ch=2 n=d#4 v=0
105640 Par ch=2 c=64 v=120
105840 On ch=2 n=d#4 v=0
105840 On ch=2 n=f#3 v=64
105840 On ch=2 n=c#4 v=64
105845 On ch=2 n=f#3 v=0
105885 Par ch=2 c=64 v=105
105890 Par ch=2 c=64 v=90
105895 Par ch=2 c=64 v=75
105900 Par ch=2 c=64 v=60
105905 Par ch=2 c=64 v=45
105910 Par ch=2 c=64 v=30
105915 Par ch=2 c=64 v=15
105920 Par ch=2 c=64 v=0
106005 Par ch=2 c=64 v=10
106010 Par ch=2 c=64 v=26
106015 Par ch=2 c=64 v=39
106020 Par ch=2 c=64 v=52
106025 Par ch=2 c=64 v=65
106030 Par ch=2 c=64 v=78
106035 Par ch=2 c=64 v=91
106040 Par ch=2 c=64 v=104
106045 Par ch=2 c=64 v=105
106050 Par ch=2 c=64 v=107
106055 Par ch=2 c=64 v=109
106060 Par ch=2 c=64 v=111
106065 Par ch=2 c=64 v=113
106070 Par ch=2 c=64 v=115
106075 Par ch=2 c=64 v=117
106080 On ch=2 n=c#4 v=58
106080 On ch=2 n=f#3 v=58
106080 Par ch=2 c=64 v=119
106085 On ch=2 n=c#4 v=0
106085 On ch=2 n=f#3 v=0
106320 On ch=2 n=f#3 v=51
106320 On ch=2 n=c#4 v=51
106325 On ch=2 n=f#3 v=0
106325 On ch=2 n=c#4 v=0
106365 Par ch=2 c=64 v=106
106370 Par ch=2 c=64 v=93
106375 Par ch=2 c=64 v=80
106380 Par ch=2 c=64 v=67
106385 Par ch=2 c=64 v=54
106390 Par ch=2 c=64 v=41
106395 Par ch=2 c=64 v=28
106400 Par ch=2 c=64 v=15
106405 Par ch=2 c=64 v=14
106410 Par ch=2 c=64 v=12
106415 Par ch=2 c=64 v=10
106420 Par ch=2 c=64 v=8
106425 Par ch=2 c=64 v=6
106430 Par ch=2 c=64 v=4
106435 Par ch=2 c=64 v=2
106440 Par ch=2 c=64 v=0
106485 Par ch=2 c=64 v=10
106490 Par ch=2 c=64 v=26
106495 Par ch=2 c=64 v=39
106500 Par ch=2 c=64 v=52
106505 Par ch=2 c=64 v=65
106510 Par ch=2 c=64 v=78
106515 Par ch=2 c=64 v=91
106520 Par ch=2 c=64 v=104
106525 Par ch=2 c=64 v=105
106530 Par ch=2 c=64 v=107
106535 Par ch=2 c=64 v=109
106540 Par ch=2 c=64 v=111
106545 Par ch=2 c=64 v=113
106550 Par ch=2 c=64 v=115
106555 Par ch=2 c=64 v=117
106560 Par ch=2 c=64 v=119
106560 On ch=2 n=f#3 v=46
106560 On ch=2 n=c#4 v=46
106565 On ch=2 n=c#4 v=0
106565 On ch=2 n=f#3 v=0
107120 Par ch=2 c=66 v=122
109160 Par ch=2 c=66 v=123
109245 Par ch=2 c=64 v=2
109250 Par ch=2 c=64 v=4
109255 Par ch=2 c=64 v=7
109260 Par ch=2 c=64 v=9
109265 Par ch=2 c=64 v=11
109270 Par ch=2 c=64 v=14
109275 Par ch=2 c=64 v=16
109280 Par ch=2 c=64 v=19
109285 Par ch=2 c=64 v=17
109290 Par ch=2 c=64 v=15
109295 Par ch=2 c=64 v=10
109300 Par ch=2 c=64 v=10
109305 Par ch=2 c=64 v=8
109310 Par ch=2 c=64 v=6
109315 Par ch=2 c=64 v=4
109320 Par ch=2 c=64 v=1
109360 Par ch=2 c=64 v=0
109405 Par ch=2 c=66 v=108
109410 Par ch=2 c=66 v=93
109415 Par ch=2 c=66 v=77
109420 Par ch=2 c=66 v=62
109425 Par ch=2 c=66 v=47
109430 Par ch=2 c=66 v=31
109435 Par ch=2 c=66 v=16
109440 On ch=2 n=c#4 v=0
109440 On ch=2 n=f#3 v=0
109440 Par ch=2 c=66 v=0
109440 Meta TrkEnd
TrkEnd
MTrk
0 SeqSpec 43 00 01 00
0 SeqSpec 4a 41 5a 5a 01 00 00 00 00 00 00 00 00 00 00 00 00 00 00 00
0 Meta TrkEnd
TrkEnd
MTrk
0 SeqSpec 43 00 01 00
0 Meta TrkName "Chopin, Op. 28, No. 13"
0 Par ch=1 c=0 v=0
0 SeqSpec 4a 41 5a 5a 01 00 00 00 00 00 00 00 00 00 00 00 00 00 00 00
0 Meta TrkEnd
TrkEnd
MTrk
0 SeqSpec 43 00 01 00
0 Meta TrkName "Prelude in"
