MFile 1 4 480
MTrk
0 TimeSig 4/4 24 8
0 Tempo 800000
170880 TimeSig 5/4 24 8
170880 Meta TrkEnd
TrkEnd
MTrk
0 SeqSpec 43 00 01 00
0 PrCh ch=1 p=0
0 Par ch=1 c=7 v=127
0 Par ch=1 c=10 v=64
0 On ch=1 n=f6 v=34
335 On ch=1 n=f6 v=0
360 On ch=1 n=c#6 v=34
475 On ch=1 n=c#6 v=0
480 On ch=1 n=g#5 v=34
1365 On ch=1 n=g#5 v=0
1440 On ch=1 n=a#5 v=34
1885 On ch=1 n=a#5 v=0
1920 On ch=1 n=c6 v=34
3245 On ch=1 n=c6 v=0
3360 On ch=1 n=c#6 v=34
3805 On ch=1 n=c#6 v=0
3840 On ch=1 n=d#6 v=34
4175 On ch=1 n=d#6 v=0
4200 On ch=1 n=f6 v=34
4315 On ch=1 n=f6 v=0
4320 On ch=1 n=f#6 v=34
5205 On ch=1 n=f#6 v=0
5280 On ch=1 n=f6 v=34
5725 On ch=1 n=f6 v=0
5760 On ch=1 n=f6 v=34
6425 On ch=1 n=f6 v=0
6480 On ch=1 n=d#6 v=34
6705 On ch=1 n=d#6 v=0
6720 On ch=1 n=c#6 v=34
7165 On ch=1 n=c#6 v=0
7200 On ch=1 n=d#6 v=34
7275 On ch=1 n=d#6 v=0
7280 On ch=1 n=f6 v=34
7355 On ch=1 n=f6 v=0
7360 On ch=1 n=d#6 v=34
7435 On ch=1 n=d#6 v=0
7440 On ch=1 n=c#6 v=34
7500 On ch=1 n=c#6 v=0
7500 On ch=1 n=d#6 v=34
7560 On ch=1 n=d#6 v=0
7560 On ch=1 n=f6 v=34
7620 On ch=1 n=f6 v=0
7620 On ch=1 n=f#6 v=34
7680 On ch=1 n=f#6 v=0
7680 On ch=1 n=f6 v=34
8015 On ch=1 n=f6 v=0
8040 On ch=1 n=c#6 v=34
8155 On ch=1 n=c#6 v=0
8160 On ch=1 n=g#5 v=34
9045 On ch=1 n=g#5 v=0
9120 On ch=1 n=a#5 v=34
9565 On ch=1 n=a#5 v=0
9600 On ch=1 n=c6 v=34
10925 On ch=1 n=c6 v=0
11040 On ch=1 n=c#6 v=34
11485 On ch=1 n=c#6 v=0
11520 On ch=1 n=d#6 v=34
11855 On ch=1 n=d#6 v=0
11880 On ch=1 n=f6 v=34
11995 On ch=1 n=f6 v=0
12000 On ch=1 n=f#6 v=34
12885 On ch=1 n=f#6 v=0
12960 On ch=1 n=f6 v=34
13405 On ch=1 n=f6 v=0
13440 On ch=1 n=f6 v=34
14105 On ch=1 n=f6 v=0
14160 On ch=1 n=d#6 v=34
14385 On ch=1 n=d#6 v=0
14400 On ch=1 n=c#6 v=34
14845 On ch=1 n=c#6 v=0
14880 On ch=1 n=c6 v=34
15105 On ch=1 n=c6 v=0
15120 On ch=1 n=c#6 v=34
15345 On ch=1 n=c#6 v=0
15360 On ch=1 n=d#6 v=34
15805 On ch=1 n=d#6 v=0
15840 On ch=1 n=d#6 v=34
16725 On ch=1 n=d#6 v=0
16800 On ch=1 n=f6 v=34
17245 On ch=1 n=f6 v=0
17280 On ch=1 n=f#6 v=34
17505 On ch=1 n=f#6 v=0
17520 On ch=1 n=f6 v=34
17745 On ch=1 n=f6 v=0
17760 On ch=1 n=d#6 v=34
17985 On ch=1 n=d#6 v=0
18000 On ch=1 n=c#6 v=34
18225 On ch=1 n=c#6 v=0
18240 On ch=1 n=f6 v=34
19200 On ch=1 n=f6 v=0
19200 On ch=1 n=d#6 v=34
19425 On ch=1 n=d#6 v=0
19440 On ch=1 n=b5 v=34
19665 On ch=1 n=b5 v=0
19680 On ch=1 n=a#5 v=34
19905 On ch=1 n=a#5 v=0
19920 On ch=1 n=g#5 v=34
20145 On ch=1 n=g#5 v=0
20160 On ch=1 n=a#5 v=34
20385 On ch=1 n=a#5 v=0
20400 On ch=1 n=b5 v=34
20475 On ch=1 n=b5 v=0
20480 On ch=1 n=a#5 v=34
20555 On ch=1 n=a#5 v=0
20560 On ch=1 n=g#5 v=34
20635 On ch=1 n=g#5 v=0
20640 On ch=1 n=a#5 v=34
20975 On ch=1 n=a#5 v=0
21000 On ch=1 n=b5 v=34
21115 On ch=1 n=b5 v=0
21120 On ch=1 n=g#5 v=34
21565 On ch=1 n=g#5 v=0
21600 On ch=1 n=d#6 v=34
22045 On ch=1 n=d#6 v=0
22080 On ch=1 n=c#6 v=34
22525 On ch=1 n=c#6 v=0
22560 On ch=1 n=e6 v=34
23005 On ch=1 n=e6 v=0
23040 On ch=1 n=d#6 v=34
23485 On ch=1 n=d#6 v=0
23520 On ch=1 n=d#6 v=34
24405 On ch=1 n=d#6 v=0
24480 On ch=1 n=f6 v=34
24925 On ch=1 n=f6 v=0
24960 On ch=1 n=f#6 v=34
25185 On ch=1 n=f#6 v=0
25200 On ch=1 n=f6 v=34
25425 On ch=1 n=f6 v=0
25440 On ch=1 n=d#6 v=34
25665 On ch=1 n=d#6 v=0
25680 On ch=1 n=c#6 v=34
25905 On ch=1 n=c#6 v=0
25920 On ch=1 n=f6 v=34
26805 On ch=1 n=f6 v=0
26880 On ch=1 n=f6 v=34
27105 On ch=1 n=f6 v=0
27120 On ch=1 n=c#6 v=34
27345 On ch=1 n=c#6 v=0
27360 On ch=1 n=c6 v=34
27585 On ch=1 n=c6 v=0
27600 On ch=1 n=a#5 v=34
27825 On ch=1 n=a#5 v=0
27840 On ch=1 n=c6 v=34
28065 On ch=1 n=c6 v=0
28080 On ch=1 n=c#6 v=34
28155 On ch=1 n=c#6 v=0
28160 On ch=1 n=c6 v=34
28235 On ch=1 n=c6 v=0
28240 On ch=1 n=a#5 v=34
28315 On ch=1 n=a#5 v=0
28320 On ch=1 n=c6 v=34
28545 On ch=1 n=c6 v=0
28560 On ch=1 n=c#6 v=34
28785 On ch=1 n=c#6 v=0
28800 On ch=1 n=a#5 v=34
29245 On ch=1 n=a#5 v=0
29280 On ch=1 n=f6 v=34
29725 On ch=1 n=f6 v=0
29760 On ch=1 n=d#6 v=34
30205 On ch=1 n=d#6 v=0
30240 On ch=1 n=f#6 v=34
30685 On ch=1 n=f#6 v=0
30720 On ch=1 n=f6 v=34
30945 On ch=1 n=f6 v=0
30960 On ch=1 n=c#6 v=34
31185 On ch=1 n=c#6 v=0
31200 On ch=1 n=c6 v=34
31425 On ch=1 n=c6 v=0
31440 On ch=1 n=a#5 v=34
31665 On ch=1 n=a#5 v=0
31680 On ch=1 n=c6 v=34
31905 On ch=1 n=c6 v=0
31920 On ch=1 n=c#6 v=34
31995 On ch=1 n=c#6 v=0
32000 On ch=1 n=c6 v=34
32075 On ch=1 n=c6 v=0
32080 On ch=1 n=a#5 v=34
32155 On ch=1 n=a#5 v=0
32160 On ch=1 n=c6 v=34
32495 On ch=1 n=c6 v=0
32520 On ch=1 n=c#6 v=34
32635 On ch=1 n=c#6 v=0
32640 On ch=1 n=a#5 v=34
33085 On ch=1 n=a#5 v=0
33120 On ch=1 n=d#6 v=34
33565 On ch=1 n=d#6 v=0
33600 On ch=1 n=f6 v=34
34045 On ch=1 n=f6 v=0
34080 On ch=1 n=d#6 v=34
34525 On ch=1 n=d#6 v=0
34560 On ch=1 n=f6 v=34
35885 On ch=1 n=f6 v=0
36000 On ch=1 n=d#6 v=34
36445 On ch=1 n=d#6 v=0
36480 On ch=1 n=f6 v=34
36815 On ch=1 n=f6 v=0
36840 On ch=1 n=c#6 v=34
36955 On ch=1 n=c#6 v=0
36960 On ch=1 n=g#5 v=34
37845 On ch=1 n=g#5 v=0
37920 On ch=1 n=a#5 v=34
38365 On ch=1 n=a#5 v=0
38400 On ch=1 n=c6 v=34
39725 On ch=1 n=c6 v=0
39840 On ch=1 n=c#6 v=34
40285 On ch=1 n=c#6 v=0
40320 On ch=1 n=d#6 v=34
40655 On ch=1 n=d#6 v=0
40680 On ch=1 n=f6 v=34
40795 On ch=1 n=f6 v=0
40800 On ch=1 n=f#6 v=34
41685 On ch=1 n=f#6 v=0
41760 On ch=1 n=f6 v=34
42205 On ch=1 n=f6 v=0
42240 On ch=1 n=f6 v=34
42905 On ch=1 n=f6 v=0
42960 On ch=1 n=d#6 v=34
43185 On ch=1 n=d#6 v=0
43200 On ch=1 n=c#6 v=34
43645 On ch=1 n=c#6 v=0
43680 On ch=1 n=d#6 v=34
43755 On ch=1 n=d#6 v=0
43760 On ch=1 n=f6 v=34
43835 On ch=1 n=f6 v=0
43840 On ch=1 n=d#6 v=34
43915 On ch=1 n=d#6 v=0
43920 On ch=1 n=c#6 v=34
43980 On ch=1 n=c#6 v=0
43980 On ch=1 n=d#6 v=34
44040 On ch=1 n=d#6 v=0
44040 On ch=1 n=f6 v=34
44100 On ch=1 n=f6 v=0
44100 On ch=1 n=f#6 v=34
44160 On ch=1 n=f#6 v=0
44160 On ch=1 n=f6 v=34
44495 On ch=1 n=f6 v=0
44520 On ch=1 n=c#6 v=34
44635 On ch=1 n=c#6 v=0
44640 On ch=1 n=g#5 v=34
45525 On ch=1 n=g#5 v=0
45600 On ch=1 n=a#5 v=34
46045 On ch=1 n=a#5 v=0
46080 On ch=1 n=c6 v=34
47405 On ch=1 n=c6 v=0
47520 On ch=1 n=c#6 v=34
47965 On ch=1 n=c#6 v=0
48000 On ch=1 n=d#6 v=34
48335 On ch=1 n=d#6 v=0
48360 On ch=1 n=f6 v=34
48475 On ch=1 n=f6 v=0
48480 On ch=1 n=f#6 v=34
49365 On ch=1 n=f#6 v=0
49440 On ch=1 n=c6 v=34
49885 On ch=1 n=c6 v=0
49920 On ch=1 n=d#6 v=34
50805 On ch=1 n=d#6 v=0
51120 On ch=1 n=g#4 v=34
51345 On ch=1 n=g#4 v=0
51360 On ch=1 n=g#4 v=34
51585 On ch=1 n=g#4 v=0
51600 On ch=1 n=g#4 v=34
51825 On ch=1 n=g#4 v=0
51840 On ch=1 n=g#4 v=34
52065 On ch=1 n=g#4 v=0
52080 On ch=1 n=g#4 v=34
52305 On ch=1 n=g#4 v=0
52320 On ch=1 n=g#4 v=34
52545 On ch=1 n=g#4 v=0
52560 On ch=1 n=g#4 v=34
52785 On ch=1 n=g#4 v=0
52800 On ch=1 n=g#4 v=34
53025 On ch=1 n=g#4 v=0
53040 On ch=1 n=g#4 v=34
53265 On ch=1 n=g#4 v=0
53280 On ch=1 n=g#4 v=34
53505 On ch=1 n=g#4 v=0
53520 On ch=1 n=g#4 v=34
53745 On ch=1 n=g#4 v=0
53760 On ch=1 n=g#4 v=34
53985 On ch=1 n=g#4 v=0
54000 On ch=1 n=g#4 v=34
54225 On ch=1 n=g#4 v=0
54240 On ch=1 n=g#4 v=34
54465 On ch=1 n=g#4 v=0
54480 On ch=1 n=g#4 v=34
54705 On ch=1 n=g#4 v=0
54720 On ch=1 n=g#4 v=34
54945 On ch=1 n=g#4 v=0
54960 On ch=1 n=g#4 v=34
55185 On ch=1 n=g#4 v=0
55200 On ch=1 n=g#4 v=34
55425 On ch=1 n=g#4 v=0
55440 On ch=1 n=g#4 v=34
55665 On ch=1 n=g#4 v=0
55680 On ch=1 n=g#4 v=34
55905 On ch=1 n=g#4 v=0
55920 On ch=1 n=g#4 v=34
56145 On ch=1 n=g#4 v=0
56160 On ch=1 n=g#4 v=34
56385 On ch=1 n=g#4 v=0
56400 On ch=1 n=g#4 v=34
56625 On ch=1 n=g#4 v=0
56640 On ch=1 n=g#4 v=34
56865 On ch=1 n=g#4 v=0
56880 On ch=1 n=g#4 v=34
57105 On ch=1 n=g#4 v=0
57120 On ch=1 n=g#4 v=34
57345 On ch=1 n=g#4 v=0
57360 On ch=1 n=g#4 v=34
57585 On ch=1 n=g#4 v=0
57600 On ch=1 n=g#4 v=34
57825 On ch=1 n=g#4 v=0
57840 On ch=1 n=g#4 v=34
58065 On ch=1 n=g#4 v=0
58080 On ch=1 n=g#4 v=34
58305 On ch=1 n=g#4 v=0
58320 On ch=1 n=g#4 v=34
58545 On ch=1 n=g#4 v=0
58560 On ch=1 n=g#4 v=34
58785 On ch=1 n=g#4 v=0
58800 On ch=1 n=g#4 v=34
59025 On ch=1 n=g#4 v=0
59040 On ch=1 n=g#4 v=34
59265 On ch=1 n=g#4 v=0
59280 On ch=1 n=g#4 v=34
59505 On ch=1 n=g#4 v=0
59520 On ch=1 n=g#4 v=34
59745 On ch=1 n=g#4 v=0
59760 On ch=1 n=g#4 v=34
59985 On ch=1 n=g#4 v=0
60000 On ch=1 n=g#4 v=34
60225 On ch=1 n=g#4 v=0
60240 On ch=1 n=g#4 v=34
60465 On ch=1 n=g#4 v=0
60480 On ch=1 n=g#4 v=34
60705 On ch=1 n=g#4 v=0
60720 On ch=1 n=g#4 v=34
60945 On ch=1 n=g#4 v=0
60960 On ch=1 n=g#4 v=34
61185 On ch=1 n=g#4 v=0
61200 On ch=1 n=g#4 v=34
61425 On ch=1 n=g#4 v=0
61440 On ch=1 n=g#4 v=34
61665 On ch=1 n=g#4 v=0
61680 On ch=1 n=g#4 v=34
61905 On ch=1 n=g#4 v=0
61920 On ch=1 n=g#4 v=34
62145 On ch=1 n=g#4 v=0
62160 On ch=1 n=g#4 v=34
62385 On ch=1 n=g#4 v=0
62400 On ch=1 n=g#4 v=34
62625 On ch=1 n=g#4 v=0
62640 On ch=1 n=g#4 v=34
62865 On ch=1 n=g#4 v=0
62880 On ch=1 n=g#4 v=34
63105 On ch=1 n=g#4 v=0
63120 On ch=1 n=g#4 v=34
63345 On ch=1 n=g#4 v=0
63360 On ch=1 n=g#4 v=34
63585 On ch=1 n=g#4 v=0
63600 On ch=1 n=g#4 v=34
63825 On ch=1 n=g#4 v=0
63840 On ch=1 n=g#4 v=34
64065 On ch=1 n=g#4 v=0
64080 On ch=1 n=g#4 v=34
64305 On ch=1 n=g#4 v=0
64320 On ch=1 n=g#4 v=36
64545 On ch=1 n=g#4 v=0
64560 On ch=1 n=g#4 v=39
64785 On ch=1 n=g#4 v=0
64800 On ch=1 n=g#4 v=41
65025 On ch=1 n=g#4 v=0
65040 On ch=1 n=g#4 v=44
65265 On ch=1 n=g#4 v=0
65280 On ch=1 n=g#4 v=46
65505 On ch=1 n=g#4 v=0
65520 On ch=1 n=g#5 v=49
65520 On ch=1 n=g#4 v=49
65745 On ch=1 n=g#4 v=0
65745 On ch=1 n=g#5 v=0
65760 On ch=1 n=g#5 v=49
65760 On ch=1 n=g#4 v=49
65985 On ch=1 n=g#4 v=0
65985 On ch=1 n=g#5 v=0
66000 On ch=1 n=g#5 v=49
66000 On ch=1 n=g#4 v=49
66225 On ch=1 n=g#4 v=0
66225 On ch=1 n=g#5 v=0
66240 On ch=1 n=g#5 v=49
66240 On ch=1 n=g#4 v=49
66465 On ch=1 n=g#4 v=0
66465 On ch=1 n=g#5 v=0
66480 On ch=1 n=g#5 v=49
66480 On ch=1 n=g#4 v=49
66705 On ch=1 n=g#4 v=0
66705 On ch=1 n=g#5 v=0
66720 On ch=1 n=g#5 v=49
66720 On ch=1 n=g#4 v=49
66945 On ch=1 n=g#4 v=0
66945 On ch=1 n=g#5 v=0
66960 On ch=1 n=g#5 v=49
66960 On ch=1 n=g#4 v=49
67185 On ch=1 n=g#4 v=0
67185 On ch=1 n=g#5 v=0
67200 On ch=1 n=g#5 v=49
67200 On ch=1 n=g#4 v=49
67425 On ch=1 n=g#4 v=0
67425 On ch=1 n=g#5 v=0
67440 On ch=1 n=g#5 v=49
67440 On ch=1 n=g#4 v=49
67665 On ch=1 n=g#4 v=0
67665 On ch=1 n=g#5 v=0
67680 On ch=1 n=g#5 v=49
67680 On ch=1 n=g#4 v=49
67905 On ch=1 n=g#4 v=0
67905 On ch=1 n=g#5 v=0
67920 On ch=1 n=g#5 v=49
67920 On ch=1 n=g#4 v=49
68145 On ch=1 n=g#4 v=0
68145 On ch=1 n=g#5 v=0
68160 On ch=1 n=g#5 v=49
68160 On ch=1 n=g#4 v=49
68385 On ch=1 n=g#4 v=0
68385 On ch=1 n=g#5 v=0
68400 On ch=1 n=g#5 v=49
68400 On ch=1 n=g#4 v=49
68625 On ch=1 n=g#4 v=0
68625 On ch=1 n=g#5 v=0
68640 On ch=1 n=g#5 v=49
68640 On ch=1 n=g#4 v=49
68865 On ch=1 n=g#4 v=0
68865 On ch=1 n=g#5 v=0
68880 On ch=1 n=g#5 v=49
68880 On ch=1 n=g#4 v=49
69105 On ch=1 n=g#4 v=0
69105 On ch=1 n=g#5 v=0
69120 On ch=1 n=g#5 v=49
69120 On ch=1 n=g#4 v=49
69345 On ch=1 n=g#4 v=0
69345 On ch=1 n=g#5 v=0
69360 On ch=1 n=g#5 v=49
69360 On ch=1 n=g#4 v=49
69585 On ch=1 n=g#4 v=0
69585 On ch=1 n=g#5 v=0
69600 On ch=1 n=g#5 v=49
69600 On ch=1 n=g#4 v=49
69825 On ch=1 n=g#4 v=0
69825 On ch=1 n=g#5 v=0
69840 On ch=1 n=g#5 v=49
69840 On ch=1 n=g#4 v=49
70065 On ch=1 n=g#4 v=0
70065 On ch=1 n=g#5 v=0
70080 On ch=1 n=g#5 v=49
70080 On ch=1 n=g#4 v=49
70305 On ch=1 n=g#4 v=0
70305 On ch=1 n=g#5 v=0
70320 On ch=1 n=g#5 v=49
70320 On ch=1 n=g#4 v=49
70545 On ch=1 n=g#4 v=0
70545 On ch=1 n=g#5 v=0
70560 On ch=1 n=g#5 v=49
70560 On ch=1 n=g#4 v=49
70785 On ch=1 n=g#4 v=0
70785 On ch=1 n=g#5 v=0
70800 On ch=1 n=g#5 v=49
70800 On ch=1 n=g#4 v=49
71025 On ch=1 n=g#4 v=0
71025 On ch=1 n=g#5 v=0
71040 On ch=1 n=g#5 v=49
71040 On ch=1 n=g#4 v=49
71265 On ch=1 n=g#4 v=0
71265 On ch=1 n=g#5 v=0
71280 On ch=1 n=g#5 v=49
71280 On ch=1 n=g#4 v=49
71505 On ch=1 n=g#4 v=0
71505 On ch=1 n=g#5 v=0
71520 On ch=1 n=g#5 v=49
71520 On ch=1 n=g#4 v=49
71745 On ch=1 n=g#4 v=0
71745 On ch=1 n=g#5 v=0
71760 On ch=1 n=g#5 v=49
71760 On ch=1 n=g#4 v=49
71985 On ch=1 n=g#4 v=0
71985 On ch=1 n=g#5 v=0
72000 On ch=1 n=g#5 v=49
72000 On ch=1 n=g#4 v=49
72225 On ch=1 n=g#4 v=0
72225 On ch=1 n=g#5 v=0
72240 On ch=1 n=g#5 v=49
72240 On ch=1 n=g#4 v=49
72465 On ch=1 n=g#4 v=0
72465 On ch=1 n=g#5 v=0
72480 On ch=1 n=g#5 v=49
72480 On ch=1 n=g#4 v=49
72705 On ch=1 n=g#4 v=0
72705 On ch=1 n=g#5 v=0
72720 On ch=1 n=g#5 v=49
72720 On ch=1 n=g#4 v=49
72945 On ch=1 n=g#4 v=0
72945 On ch=1 n=g#5 v=0
72960 On ch=1 n=g#5 v=49
72960 On ch=1 n=g#4 v=49
73185 On ch=1 n=g#4 v=0
73185 On ch=1 n=g#5 v=0
73200 On ch=1 n=g#5 v=49
73200 On ch=1 n=g#4 v=49
73425 On ch=1 n=g#4 v=0
73425 On ch=1 n=g#5 v=0
73440 On ch=1 n=g#5 v=49
73440 On ch=1 n=g#4 v=49
73665 On ch=1 n=g#4 v=0
73665 On ch=1 n=g#5 v=0
73680 On ch=1 n=g#5 v=49
73680 On ch=1 n=g#4 v=49
73905 On ch=1 n=g#4 v=0
73905 On ch=1 n=g#5 v=0
73920 On ch=1 n=g#5 v=49
73920 On ch=1 n=g#4 v=49
74145 On ch=1 n=g#4 v=0
74145 On ch=1 n=g#5 v=0
74160 On ch=1 n=g#5 v=49
74160 On ch=1 n=g#4 v=49
74385 On ch=1 n=g#4 v=0
74385 On ch=1 n=g#5 v=0
74400 On ch=1 n=g#5 v=49
74400 On ch=1 n=g#4 v=49
74625 On ch=1 n=g#4 v=0
74625 On ch=1 n=g#5 v=0
74640 On ch=1 n=g#5 v=49
74640 On ch=1 n=g#4 v=49
74865 On ch=1 n=g#4 v=0
74865 On ch=1 n=g#5 v=0
74880 On ch=1 n=b5 v=106
74880 On ch=1 n=b4 v=106
75105 On ch=1 n=b4 v=0
75105 On ch=1 n=b5 v=0
75120 On ch=1 n=b5 v=106
75120 On ch=1 n=b4 v=106
75345 On ch=1 n=b4 v=0
75345 On ch=1 n=b5 v=0
75360 On ch=1 n=b5 v=106
75360 On ch=1 n=b4 v=106
75585 On ch=1 n=b4 v=0
75585 On ch=1 n=b5 v=0
75600 On ch=1 n=b5 v=106
75600 On ch=1 n=b4 v=106
75825 On ch=1 n=b4 v=0
75825 On ch=1 n=b5 v=0
75840 On ch=1 n=b5 v=106
75840 On ch=1 n=b4 v=106
76065 On ch=1 n=b4 v=0
76065 On ch=1 n=b5 v=0
76080 On ch=1 n=b5 v=106
76080 On ch=1 n=b4 v=106
76305 On ch=1 n=b4 v=0
76305 On ch=1 n=b5 v=0
76320 On ch=1 n=b5 v=106
76320 On ch=1 n=b4 v=106
76545 On ch=1 n=b4 v=0
76545 On ch=1 n=b5 v=0
76560 On ch=1 n=b5 v=106
76560 On ch=1 n=b4 v=106
76785 On ch=1 n=b4 v=0
76785 On ch=1 n=b5 v=0
76800 On ch=1 n=b5 v=106
76800 On ch=1 n=b4 v=106
77025 On ch=1 n=b4 v=0
77025 On ch=1 n=b5 v=0
77040 On ch=1 n=b5 v=106
77040 On ch=1 n=b4 v=106
77265 On ch=1 n=b4 v=0
77265 On ch=1 n=b5 v=0
77280 On ch=1 n=b5 v=106
77280 On ch=1 n=b4 v=106
77505 On ch=1 n=b4 v=0
77505 On ch=1 n=b5 v=0
77520 On ch=1 n=b5 v=106
77520 On ch=1 n=b4 v=106
77745 On ch=1 n=b4 v=0
77745 On ch=1 n=b5 v=0
77760 On ch=1 n=b5 v=106
77760 On ch=1 n=b4 v=106
77985 On ch=1 n=b4 v=0
77985 On ch=1 n=b5 v=0
78000 On ch=1 n=b5 v=106
78000 On ch=1 n=b4 v=106
78225 On ch=1 n=b4 v=0
78225 On ch=1 n=b5 v=0
78240 On ch=1 n=b5 v=106
78240 On ch=1 n=b4 v=106
78465 On ch=1 n=b4 v=0
78465 On ch=1 n=b5 v=0
78480 On ch=1 n=b5 v=106
78480 On ch=1 n=b4 v=106
78705 On ch=1 n=b4 v=0
78705 On ch=1 n=b5 v=0
78720 On ch=1 n=b5 v=106
78720 On ch=1 n=b4 v=106
78945 On ch=1 n=b4 v=0
78945 On ch=1 n=b5 v=0
78960 On ch=1 n=b5 v=106
78960 On ch=1 n=b4 v=106
79185 On ch=1 n=b4 v=0
79185 On ch=1 n=b5 v=0
79200 On ch=1 n=b5 v=106
79200 On ch=1 n=b4 v=106
79425 On ch=1 n=b4 v=0
79425 On ch=1 n=b5 v=0
79440 On ch=1 n=b5 v=106
79440 On ch=1 n=b4 v=106
79665 On ch=1 n=b4 v=0
79665 On ch=1 n=b5 v=0
79680 On ch=1 n=b5 v=106
79680 On ch=1 n=b4 v=106
79905 On ch=1 n=b4 v=0
79905 On ch=1 n=b5 v=0
79920 On ch=1 n=b5 v=106
79920 On ch=1 n=b4 v=106
80145 On ch=1 n=b4 v=0
80145 On ch=1 n=b5 v=0
80160 On ch=1 n=b5 v=106
80160 On ch=1 n=b4 v=106
80385 On ch=1 n=b4 v=0
80385 On ch=1 n=b5 v=0
80400 On ch=1 n=b5 v=106
80400 On ch=1 n=b4 v=106
80625 On ch=1 n=b4 v=0
80625 On ch=1 n=b5 v=0
80640 On ch=1 n=b5 v=106
80640 On ch=1 n=g#5 v=106
80640 On ch=1 n=d#5 v=106
80640 On ch=1 n=b4 v=106
80865 On ch=1 n=b4 v=0
80865 On ch=1 n=d#5 v=0
80865 On ch=1 n=g#5 v=0
80865 On ch=1 n=b5 v=0
80880 On ch=1 n=g#4 v=106
81105 On ch=1 n=g#4 v=0
81120 On ch=1 n=g#4 v=106
81345 On ch=1 n=g#4 v=0
81360 On ch=1 n=g#4 v=106
81585 On ch=1 n=g#4 v=0
81600 On ch=1 n=g#4 v=106
81825 On ch=1 n=g#4 v=0
81840 On ch=1 n=g#4 v=106
82065 On ch=1 n=g#4 v=0
82080 On ch=1 n=g#4 v=106
82305 On ch=1 n=g#4 v=0
82320 On ch=1 n=g#4 v=106
82545 On ch=1 n=g#4 v=0
82560 On ch=1 n=g#4 v=34
82785 On ch=1 n=g#4 v=0
82800 On ch=1 n=g#4 v=34
83025 On ch=1 n=g#4 v=0
83040 On ch=1 n=g#4 v=34
83265 On ch=1 n=g#4 v=0
83280 On ch=1 n=g#4 v=34
83505 On ch=1 n=g#4 v=0
83520 On ch=1 n=g#4 v=34
83745 On ch=1 n=g#4 v=0
83760 On ch=1 n=g#4 v=34
83985 On ch=1 n=g#4 v=0
84000 On ch=1 n=g#4 v=34
84225 On ch=1 n=g#4 v=0
84240 On ch=1 n=g#4 v=34
84465 On ch=1 n=g#4 v=0
84480 On ch=1 n=g#4 v=34
84705 On ch=1 n=g#4 v=0
84720 On ch=1 n=g#4 v=34
84945 On ch=1 n=g#4 v=0
84960 On ch=1 n=g#4 v=34
85185 On ch=1 n=g#4 v=0
85200 On ch=1 n=g#4 v=34
85425 On ch=1 n=g#4 v=0
85440 On ch=1 n=g#4 v=34
85665 On ch=1 n=g#4 v=0
85680 On ch=1 n=g#4 v=34
85905 On ch=1 n=g#4 v=0
85920 On ch=1 n=g#4 v=34
86145 On ch=1 n=g#4 v=0
86160 On ch=1 n=g#4 v=34
86385 On ch=1 n=g#4 v=0
86400 On ch=1 n=g#4 v=34
86625 On ch=1 n=g#4 v=0
86640 On ch=1 n=g#4 v=34
86865 On ch=1 n=g#4 v=0
86880 On ch=1 n=g#4 v=34
87105 On ch=1 n=g#4 v=0
87120 On ch=1 n=g#4 v=34
87345 On ch=1 n=g#4 v=0
87360 On ch=1 n=g#4 v=34
87585 On ch=1 n=g#4 v=0
87600 On ch=1 n=g#4 v=34
87825 On ch=1 n=g#4 v=0
87840 On ch=1 n=g#4 v=34
88065 On ch=1 n=g#4 v=0
88080 On ch=1 n=g#4 v=34
88305 On ch=1 n=g#4 v=0
88320 On ch=1 n=g#4 v=34
88545 On ch=1 n=g#4 v=0
88560 On ch=1 n=g#4 v=34
88785 On ch=1 n=g#4 v=0
88800 On ch=1 n=g#4 v=34
89025 On ch=1 n=g#4 v=0
89040 On ch=1 n=g#4 v=34
89265 On ch=1 n=g#4 v=0
89280 On ch=1 n=g#4 v=34
89505 On ch=1 n=g#4 v=0
89520 On ch=1 n=g#4 v=34
89745 On ch=1 n=g#4 v=0
89760 On ch=1 n=g#4 v=34
89985 On ch=1 n=g#4 v=0
90000 On ch=1 n=g#4 v=34
90225 On ch=1 n=g#4 v=0
90240 On ch=1 n=g#4 v=34
90465 On ch=1 n=g#4 v=0
90480 On ch=1 n=g#4 v=34
90705 On ch=1 n=g#4 v=0
90720 On ch=1 n=g#4 v=34
90945 On ch=1 n=g#4 v=0
90960 On ch=1 n=g#4 v=34
91185 On ch=1 n=g#4 v=0
91200 On ch=1 n=g#4 v=34
91425 On ch=1 n=g#4 v=0
91440 On ch=1 n=g#4 v=34
91665 On ch=1 n=g#4 v=0
91680 On ch=1 n=g#4 v=34
91905 On ch=1 n=g#4 v=0
91920 On ch=1 n=g#4 v=34
92145 On ch=1 n=g#4 v=0
92160 On ch=1 n=g#4 v=34
92385 On ch=1 n=g#4 v=0
92400 On ch=1 n=g#4 v=34
92625 On ch=1 n=g#4 v=0
92640 On ch=1 n=g#4 v=34
92865 On ch=1 n=g#4 v=0
92880 On ch=1 n=g#4 v=34
93105 On ch=1 n=g#4 v=0
93120 On ch=1 n=g#4 v=34
93345 On ch=1 n=g#4 v=0
93360 On ch=1 n=g#4 v=34
93585 On ch=1 n=g#4 v=0
93600 On ch=1 n=g#4 v=34
93825 On ch=1 n=g#4 v=0
93840 On ch=1 n=g#4 v=34
94065 On ch=1 n=g#4 v=0
94080 On ch=1 n=g#4 v=34
94305 On ch=1 n=g#4 v=0
94320 On ch=1 n=g#4 v=34
94545 On ch=1 n=g#4 v=0
94560 On ch=1 n=g#4 v=34
94785 On ch=1 n=g#4 v=0
94800 On ch=1 n=g#4 v=34
95025 On ch=1 n=g#4 v=0
95040 On ch=1 n=g#4 v=36
95265 On ch=1 n=g#4 v=0
95280 On ch=1 n=g#4 v=39
95505 On ch=1 n=g#4 v=0
95520 On ch=1 n=g#4 v=41
95745 On ch=1 n=g#4 v=0
95760 On ch=1 n=g#4 v=44
95985 On ch=1 n=g#4 v=0
96000 On ch=1 n=g#4 v=46
96225 On ch=1 n=g#4 v=0
96240 On ch=1 n=g#5 v=49
96240 On ch=1 n=g#4 v=49
96465 On ch=1 n=g#4 v=0
96465 On ch=1 n=g#5 v=0
96480 On ch=1 n=g#5 v=49
96480 On ch=1 n=g#4 v=49
96705 On ch=1 n=g#4 v=0
96705 On ch=1 n=g#5 v=0
96720 On ch=1 n=g#5 v=49
96720 On ch=1 n=g#4 v=49
96945 On ch=1 n=g#4 v=0
96945 On ch=1 n=g#5 v=0
96960 On ch=1 n=g#5 v=49
96960 On ch=1 n=g#4 v=49
97185 On ch=1 n=g#4 v=0
97185 On ch=1 n=g#5 v=0
97200 On ch=1 n=g#5 v=49
97200 On ch=1 n=g#4 v=49
97425 On ch=1 n=g#4 v=0
97425 On ch=1 n=g#5 v=0
97440 On ch=1 n=g#5 v=49
97440 On ch=1 n=g#4 v=49
97665 On ch=1 n=g#4 v=0
97665 On ch=1 n=g#5 v=0
97680 On ch=1 n=g#5 v=49
97680 On ch=1 n=g#4 v=49
97905 On ch=1 n=g#4 v=0
97905 On ch=1 n=g#5 v=0
97920 On ch=1 n=g#5 v=49
97920 On ch=1 n=g#4 v=49
98145 On ch=1 n=g#4 v=0
98145 On ch=1 n=g#5 v=0
98160 On ch=1 n=g#5 v=49
98160 On ch=1 n=g#4 v=49
98385 On ch=1 n=g#4 v=0
98385 On ch=1 n=g#5 v=0
98400 On ch=1 n=g#5 v=49
98400 On ch=1 n=g#4 v=49
98625 On ch=1 n=g#4 v=0
98625 On ch=1 n=g#5 v=0
98640 On ch=1 n=g#5 v=49
98640 On ch=1 n=g#4 v=49
98865 On ch=1 n=g#4 v=0
98865 On ch=1 n=g#5 v=0
98880 On ch=1 n=g#5 v=49
98880 On ch=1 n=g#4 v=49
99105 On ch=1 n=g#4 v=0
99105 On ch=1 n=g#5 v=0
99120 On ch=1 n=g#5 v=49
99120 On ch=1 n=g#4 v=49
99345 On ch=1 n=g#4 v=0
99345 On ch=1 n=g#5 v=0
99360 On ch=1 n=g#5 v=49
99360 On ch=1 n=g#4 v=49
99585 On ch=1 n=g#4 v=0
99585 On ch=1 n=g#5 v=0
99600 On ch=1 n=g#5 v=49
99600 On ch=1 n=g#4 v=49
99825 On ch=1 n=g#4 v=0
99825 On ch=1 n=g#5 v=0
99840 On ch=1 n=g#5 v=49
99840 On ch=1 n=g#4 v=49
100065 On ch=1 n=g#4 v=0
100065 On ch=1 n=g#5 v=0
100080 On ch=1 n=g#5 v=49
100080 On ch=1 n=g#4 v=49
100305 On ch=1 n=g#4 v=0
100305 On ch=1 n=g#5 v=0
100320 On ch=1 n=g#5 v=49
100320 On ch=1 n=g#4 v=49
100545 On ch=1 n=g#4 v=0
100545 On ch=1 n=g#5 v=0
100560 On ch=1 n=g#5 v=49
100560 On ch=1 n=g#4 v=49
100785 On ch=1 n=g#4 v=0
100785 On ch=1 n=g#5 v=0
100800 On ch=1 n=g#5 v=49
100800 On ch=1 n=g#4 v=49
101025 On ch=1 n=g#4 v=0
101025 On ch=1 n=g#5 v=0
101040 On ch=1 n=g#5 v=49
101040 On ch=1 n=g#4 v=49
101265 On ch=1 n=g#4 v=0
101265 On ch=1 n=g#5 v=0
101280 On ch=1 n=g#5 v=49
101280 On ch=1 n=g#4 v=49
101505 On ch=1 n=g#4 v=0
101505 On ch=1 n=g#5 v=0
101520 On ch=1 n=g#5 v=49
101520 On ch=1 n=g#4 v=49
101745 On ch=1 n=g#4 v=0
101745 On ch=1 n=g#5 v=0
101760 On ch=1 n=g#5 v=49
101760 On ch=1 n=g#4 v=49
101985 On ch=1 n=g#4 v=0
101985 On ch=1 n=g#5 v=0
102000 On ch=1 n=g#5 v=49
102000 On ch=1 n=g#4 v=49
102225 On ch=1 n=g#4 v=0
102225 On ch=1 n=g#5 v=0
102240 On ch=1 n=g#5 v=49
102240 On ch=1 n=g#4 v=49
102465 On ch=1 n=g#4 v=0
102465 On ch=1 n=g#5 v=0
102480 On ch=1 n=g#5 v=49
102480 On ch=1 n=g#4 v=49
102705 On ch=1 n=g#4 v=0
102705 On ch=1 n=g#5 v=0
102720 On ch=1 n=g#5 v=49
102720 On ch=1 n=g#4 v=49
102945 On ch=1 n=g#4 v=0
102945 On ch=1 n=g#5 v=0
102960 On ch=1 n=g#5 v=49
102960 On ch=1 n=g#4 v=49
103185 On ch=1 n=g#4 v=0
103185 On ch=1 n=g#5 v=0
103200 On ch=1 n=g#5 v=49
103200 On ch=1 n=g#4 v=49
103425 On ch=1 n=g#4 v=0
103425 On ch=1 n=g#5 v=0
103440 On ch=1 n=g#5 v=49
103440 On ch=1 n=g#4 v=49
103665 On ch=1 n=g#4 v=0
103665 On ch=1 n=g#5 v=0
103680 On ch=1 n=g#5 v=49
103680 On ch=1 n=g#4 v=49
103905 On ch=1 n=g#4 v=0
103905 On ch=1 n=g#5 v=0
103920 On ch=1 n=g#5 v=49
103920 On ch=1 n=g#4 v=49
104145 On ch=1 n=g#4 v=0
104145 On ch=1 n=g#5 v=0
104160 On ch=1 n=g#5 v=49
104160 On ch=1 n=g#4 v=49
104385 On ch=1 n=g#4 v=0
104385 On ch=1 n=g#5 v=0
104400 On ch=1 n=g#5 v=49
104400 On ch=1 n=g#4 v=49
104625 On ch=1 n=g#4 v=0
104625 On ch=1 n=g#5 v=0
104640 On ch=1 n=g#5 v=49
104640 On ch=1 n=g#4 v=49
104865 On ch=1 n=g#4 v=0
104865 On ch=1 n=g#5 v=0
104880 On ch=1 n=g#5 v=49
104880 On ch=1 n=g#4 v=49
105105 On ch=1 n=g#4 v=0
105105 On ch=1 n=g#5 v=0
105120 On ch=1 n=g#5 v=49
105120 On ch=1 n=g#4 v=49
105345 On ch=1 n=g#4 v=0
105345 On ch=1 n=g#5 v=0
105360 On ch=1 n=g#5 v=49
105360 On ch=1 n=g#4 v=49
105585 On ch=1 n=g#4 v=0
105585 On ch=1 n=g#5 v=0
105600 On ch=1 n=b5 v=106
105600 On ch=1 n=b4 v=106
105825 On ch=1 n=b4 v=0
105825 On ch=1 n=b5 v=0
105840 On ch=1 n=b5 v=106
105840 On ch=1 n=b4 v=106
106065 On ch=1 n=b4 v=0
106065 On ch=1 n=b5 v=0
106080 On ch=1 n=b5 v=106
106080 On ch=1 n=b4 v=106
106305 On ch=1 n=b4 v=0
106305 On ch=1 n=b5 v=0
106320 On ch=1 n=b5 v=106
106320 On ch=1 n=b4 v=106
106545 On ch=1 n=b4 v=0
106545 On ch=1 n=b5 v=0
106560 On ch=1 n=b5 v=106
106560 On ch=1 n=b4 v=106
106785 On ch=1 n=b4 v=0
106785 On ch=1 n=b5 v=0
106800 On ch=1 n=b5 v=106
106800 On ch=1 n=b4 v=106
107025 On ch=1 n=b4 v=0
107025 On ch=1 n=b5 v=0
107040 On ch=1 n=b5 v=106
107040 On ch=1 n=b4 v=106
107265 On ch=1 n=b4 v=0
107265 On ch=1 n=b5 v=0
107280 On ch=1 n=b5 v=106
107280 On ch=1 n=b4 v=106
107505 On ch=1 n=b4 v=0
107505 On ch=1 n=b5 v=0
107520 On ch=1 n=b5 v=106
107520 On ch=1 n=b4 v=106
107745 On ch=1 n=b4 v=0
107745 On ch=1 n=b5 v=0
107760 On ch=1 n=b5 v=106
107760 On ch=1 n=b4 v=106
107985 On ch=1 n=b4 v=0
107985 On ch=1 n=b5 v=0
108000 On ch=1 n=b5 v=106
108000 On ch=1 n=b4 v=106
108225 On ch=1 n=b4 v=0
108225 On ch=1 n=b5 v=0
108240 On ch=1 n=b5 v=106
108240 On ch=1 n=b4 v=106
108465 On ch=1 n=b4 v=0
108465 On ch=1 n=b5 v=0
108480 On ch=1 n=b5 v=106
108480 On ch=1 n=b4 v=106
108705 On ch=1 n=b4 v=0
108705 On ch=1 n=b5 v=0
108720 On ch=1 n=b5 v=106
108720 On ch=1 n=b4 v=106
108945 On ch=1 n=b4 v=0
108945 On ch=1 n=b5 v=0
108960 On ch=1 n=b5 v=106
108960 On ch=1 n=b4 v=106
109185 On ch=1 n=b4 v=0
109185 On ch=1 n=b5 v=0
109200 On ch=1 n=b5 v=106
109200 On ch=1 n=b4 v=106
109425 On ch=1 n=b4 v=0
109425 On ch=1 n=b5 v=0
109440 On ch=1 n=b5 v=106
109440 On ch=1 n=b4 v=106
109665 On ch=1 n=b4 v=0
109665 On ch=1 n=b5 v=0
109680 On ch=1 n=b5 v=106
109680 On ch=1 n=b4 v=106
109905 On ch=1 n=b4 v=0
109905 On ch=1 n=b5 v=0
109920 On ch=1 n=b5 v=106
109920 On ch=1 n=b4 v=106
110145 On ch=1 n=b4 v=0
110145 On ch=1 n=b5 v=0
110160 On ch=1 n=b5 v=106
110160 On ch=1 n=b4 v=106
110385 On ch=1 n=b4 v=0
110385 On ch=1 n=b5 v=0
110400 On ch=1 n=b5 v=106
110400 On ch=1 n=b4 v=106
110625 On ch=1 n=b4 v=0
110625 On ch=1 n=b5 v=0
110640 On ch=1 n=b5 v=106
110640 On ch=1 n=b4 v=106
110865 On ch=1 n=b4 v=0
110865 On ch=1 n=b5 v=0
110880 On ch=1 n=b5 v=106
110880 On ch=1 n=b4 v=106
111105 On ch=1 n=b4 v=0
111105 On ch=1 n=b5 v=0
111120 On ch=1 n=b5 v=106
111120 On ch=1 n=b4 v=106
111345 On ch=1 n=b4 v=0
111345 On ch=1 n=b5 v=0
111360 On ch=1 n=b5 v=106
111360 On ch=1 n=g#5 v=106
111360 On ch=1 n=d#5 v=106
111360 On ch=1 n=b4 v=106
111585 On ch=1 n=b4 v=0
111585 On ch=1 n=d#5 v=0
111585 On ch=1 n=g#5 v=0
111585 On ch=1 n=b5 v=0
111600 On ch=1 n=g#5 v=106
111825 On ch=1 n=g#5 v=0
111840 On ch=1 n=g#5 v=106
112065 On ch=1 n=g#5 v=0
112080 On ch=1 n=g#5 v=106
112305 On ch=1 n=g#5 v=0
112320 On ch=1 n=g#5 v=106
112545 On ch=1 n=g#5 v=0
112560 On ch=1 n=g#5 v=106
112785 On ch=1 n=g#5 v=0
112800 On ch=1 n=g#5 v=106
113025 On ch=1 n=g#5 v=0
113040 On ch=1 n=g#5 v=106
113265 On ch=1 n=g#5 v=0
113280 On ch=1 n=g#5 v=34
113505 On ch=1 n=g#5 v=0
113520 On ch=1 n=g#5 v=34
113745 On ch=1 n=g#5 v=0
113760 On ch=1 n=g#5 v=34
113985 On ch=1 n=g#5 v=0
114000 On ch=1 n=g#5 v=34
114225 On ch=1 n=g#5 v=0
114240 On ch=1 n=g#5 v=34
114465 On ch=1 n=g#5 v=0
114480 On ch=1 n=g#5 v=34
114705 On ch=1 n=g#5 v=0
114720 On ch=1 n=g#5 v=34
114945 On ch=1 n=g#5 v=0
114960 On ch=1 n=g#5 v=34
115185 On ch=1 n=g#5 v=0
115200 On ch=1 n=g#5 v=34
115425 On ch=1 n=g#5 v=0
115440 On ch=1 n=g#5 v=34
115665 On ch=1 n=g#5 v=0
115680 On ch=1 n=g#5 v=34
115905 On ch=1 n=g#5 v=0
115920 On ch=1 n=g#5 v=34
116145 On ch=1 n=g#5 v=0
116160 On ch=1 n=g#5 v=34
116385 On ch=1 n=g#5 v=0
116400 On ch=1 n=g#5 v=34
116625 On ch=1 n=g#5 v=0
116640 On ch=1 n=g#5 v=34
116865 On ch=1 n=g#5 v=0
116880 On ch=1 n=g#5 v=34
117105 On ch=1 n=g#5 v=0
117120 On ch=1 n=g#5 v=34
117345 On ch=1 n=g#5 v=0
117360 On ch=1 n=g#5 v=34
117585 On ch=1 n=g#5 v=0
117600 On ch=1 n=g#5 v=34
117825 On ch=1 n=g#5 v=0
117840 On ch=1 n=g#5 v=34
118065 On ch=1 n=g#5 v=0
118080 On ch=1 n=g#5 v=34
118305 On ch=1 n=g#5 v=0
118320 On ch=1 n=g#5 v=34
118545 On ch=1 n=g#5 v=0
118560 On ch=1 n=g#5 v=34
118785 On ch=1 n=g#5 v=0
118800 On ch=1 n=g#5 v=34
119025 On ch=1 n=g#5 v=0
119040 On ch=1 n=g#5 v=34
119265 On ch=1 n=g#5 v=0
119280 On ch=1 n=g#5 v=34
119505 On ch=1 n=g#5 v=0
119520 On ch=1 n=f#5 v=34
119745 On ch=1 n=f#5 v=0
119760 On ch=1 n=f#5 v=34
119985 On ch=1 n=f#5 v=0
120000 On ch=1 n=g#5 v=34
120225 On ch=1 n=g#5 v=0
120240 On ch=1 n=g#5 v=34
120465 On ch=1 n=g#5 v=0
120480 On ch=1 n=a5 v=34
120705 On ch=1 n=a5 v=0
120720 On ch=1 n=a5 v=34
120945 On ch=1 n=a5 v=0
120960 On ch=1 n=g#4 v=34
121185 On ch=1 n=g#4 v=0
121200 On ch=1 n=g#4 v=34
121425 On ch=1 n=g#4 v=0
121440 On ch=1 n=g#4 v=34
121665 On ch=1 n=g#4 v=0
121680 On ch=1 n=g#4 v=34
121905 On ch=1 n=g#4 v=0
121920 On ch=1 n=g#4 v=34
122145 On ch=1 n=g#4 v=0
122160 On ch=1 n=g#4 v=34
122385 On ch=1 n=g#4 v=0
122400 On ch=1 n=g#4 v=34
122625 On ch=1 n=g#4 v=0
122640 On ch=1 n=g#4 v=34
122865 On ch=1 n=g#4 v=0
122880 On ch=1 n=g#4 v=34
123105 On ch=1 n=g#4 v=0
123120 On ch=1 n=g#4 v=34
123345 On ch=1 n=g#4 v=0
123360 On ch=1 n=g#4 v=34
123585 On ch=1 n=g#4 v=0
123600 On ch=1 n=g#4 v=34
123825 On ch=1 n=g#4 v=0
123840 On ch=1 n=g#4 v=34
124065 On ch=1 n=g#4 v=0
124080 On ch=1 n=g#4 v=34
124305 On ch=1 n=g#4 v=0
124320 On ch=1 n=g#4 v=34
124545 On ch=1 n=g#4 v=0
124560 On ch=1 n=g#4 v=34
124785 On ch=1 n=g#4 v=0
124800 On ch=1 n=g#4 v=34
125025 On ch=1 n=g#4 v=0
125040 On ch=1 n=g#4 v=34
125265 On ch=1 n=g#4 v=0
125280 On ch=1 n=g#4 v=34
125505 On ch=1 n=g#4 v=0
125520 On ch=1 n=g#4 v=34
125745 On ch=1 n=g#4 v=0
125760 On ch=1 n=g#4 v=34
125985 On ch=1 n=g#4 v=0
126000 On ch=1 n=g#4 v=34
126225 On ch=1 n=g#4 v=0
126240 On ch=1 n=g#4 v=34
126465 On ch=1 n=g#4 v=0
126480 On ch=1 n=g#4 v=34
126705 On ch=1 n=g#4 v=0
126720 On ch=1 n=g#4 v=34
126945 On ch=1 n=g#4 v=0
126960 On ch=1 n=g#4 v=34
127185 On ch=1 n=g#4 v=0
127200 On ch=1 n=g#4 v=34
127425 On ch=1 n=g#4 v=0
127440 On ch=1 n=g#4 v=34
127665 On ch=1 n=g#4 v=0
127680 On ch=1 n=g#4 v=34
127905 On ch=1 n=g#4 v=0
127920 On ch=1 n=g#4 v=34
128145 On ch=1 n=g#4 v=0
128160 On ch=1 n=g#4 v=34
128385 On ch=1 n=g#4 v=0
128400 On ch=1 n=g#4 v=34
128625 On ch=1 n=g#4 v=0
128640 On ch=1 n=g#5 v=34
128865 On ch=1 n=g#5 v=0
128880 On ch=1 n=g#5 v=34
129105 On ch=1 n=g#5 v=0
129120 On ch=1 n=g#5 v=34
129345 On ch=1 n=g#5 v=0
129360 On ch=1 n=g#5 v=34
129585 On ch=1 n=g#5 v=0
129600 On ch=1 n=g#5 v=34
129825 On ch=1 n=g#5 v=0
129840 On ch=1 n=g#5 v=34
130065 On ch=1 n=g#5 v=0
130080 On ch=1 n=g#5 v=34
130305 On ch=1 n=g#5 v=0
130320 On ch=1 n=g#5 v=34
130545 On ch=1 n=g#5 v=0
130560 On ch=1 n=g#5 v=34
130785 On ch=1 n=g#5 v=0
130800 On ch=1 n=g#5 v=34
131025 On ch=1 n=g#5 v=0
131040 On ch=1 n=g#5 v=34
131265 On ch=1 n=g#5 v=0
131280 On ch=1 n=g#5 v=34
131505 On ch=1 n=g#5 v=0
131520 On ch=1 n=g#5 v=34
131745 On ch=1 n=g#5 v=0
131760 On ch=1 n=g#5 v=34
131985 On ch=1 n=g#5 v=0
132000 On ch=1 n=g#5 v=34
132225 On ch=1 n=g#5 v=0
132240 On ch=1 n=g#5 v=34
132465 On ch=1 n=g#5 v=0
132480 On ch=1 n=g#5 v=34
132705 On ch=1 n=g#5 v=0
132720 On ch=1 n=g#5 v=34
132945 On ch=1 n=g#5 v=0
132960 On ch=1 n=g#5 v=34
133185 On ch=1 n=g#5 v=0
133200 On ch=1 n=g#5 v=34
133425 On ch=1 n=g#5 v=0
133440 On ch=1 n=g#5 v=34
133665 On ch=1 n=g#5 v=0
133680 On ch=1 n=g#5 v=34
133905 On ch=1 n=g#5 v=0
133920 On ch=1 n=g#5 v=34
134145 On ch=1 n=g#5 v=0
134160 On ch=1 n=g#5 v=34
134385 On ch=1 n=g#5 v=0
134400 On ch=1 n=c#5 v=85
134625 On ch=1 n=c#5 v=0
134640 On ch=1 n=c#5 v=85
134865 On ch=1 n=c#5 v=0
134880 On ch=1 n=c#5 v=85
135105 On ch=1 n=c#5 v=0
135120 On ch=1 n=c#5 v=85
135345 On ch=1 n=c#5 v=0
135360 On ch=1 n=c#5 v=85
135585 On ch=1 n=c#5 v=0
135600 On ch=1 n=c#5 v=85
135825 On ch=1 n=c#5 v=0
135840 On ch=1 n=c#5 v=85
136065 On ch=1 n=c#5 v=0
136080 On ch=1 n=c#5 v=85
136305 On ch=1 n=c#5 v=0
136320 On ch=1 n=g#4 v=85
136545 On ch=1 n=g#4 v=0
136560 On ch=1 n=g#4 v=85
136785 On ch=1 n=g#4 v=0
136800 On ch=1 n=g#4 v=85
137025 On ch=1 n=g#4 v=0
137040 On ch=1 n=g#4 v=85
137265 On ch=1 n=g#4 v=0
137280 On ch=1 n=g#4 v=85
137505 On ch=1 n=g#4 v=0
137520 On ch=1 n=g#4 v=85
137745 On ch=1 n=g#4 v=0
137760 On ch=1 n=g#4 v=85
137985 On ch=1 n=g#4 v=0
138000 On ch=1 n=g#4 v=85
138225 On ch=1 n=g#4 v=0
138240 On ch=1 n=g#4 v=85
138465 On ch=1 n=g#4 v=0
138480 On ch=1 n=g#4 v=85
138705 On ch=1 n=g#4 v=0
138720 On ch=1 n=g#4 v=85
138945 On ch=1 n=g#4 v=0
138960 On ch=1 n=g#4 v=85
139185 On ch=1 n=g#4 v=0
139200 On ch=1 n=g#4 v=85
139425 On ch=1 n=g#4 v=0
139440 On ch=1 n=g#4 v=85
139665 On ch=1 n=g#4 v=0
139680 On ch=1 n=g#4 v=85
139905 On ch=1 n=g#4 v=0
139920 On ch=1 n=g#4 v=85
140145 On ch=1 n=g#4 v=0
140160 On ch=1 n=g#4 v=85
140385 On ch=1 n=g#4 v=0
140400 On ch=1 n=g#4 v=85
140625 On ch=1 n=g#4 v=0
140640 On ch=1 n=g#4 v=85
140865 On ch=1 n=g#4 v=0
140880 On ch=1 n=g#4 v=85
141105 On ch=1 n=g#4 v=0
141120 On ch=1 n=g#4 v=85
141345 On ch=1 n=g#4 v=0
141360 On ch=1 n=g#4 v=85
141585 On ch=1 n=g#4 v=0
141600 On ch=1 n=g#4 v=85
141825 On ch=1 n=g#4 v=0
141840 On ch=1 n=g#4 v=85
142065 On ch=1 n=g#4 v=0
142080 On ch=1 n=g#4 v=85
142305 On ch=1 n=g#4 v=0
142320 On ch=1 n=g#4 v=85
142545 On ch=1 n=g#4 v=0
142560 On ch=1 n=g#4 v=85
142785 On ch=1 n=g#4 v=0
142800 On ch=1 n=g#4 v=85
143025 On ch=1 n=g#4 v=0
143040 On ch=1 n=g#4 v=85
143265 On ch=1 n=g#4 v=0
143280 On ch=1 n=g#4 v=85
143505 On ch=1 n=g#4 v=0
143520 On ch=1 n=g#4 v=85
143745 On ch=1 n=g#4 v=0
143760 On ch=1 n=g#4 v=85
143985 On ch=1 n=g#4 v=0
144000 On ch=1 n=f6 v=34
144335 On ch=1 n=f6 v=0
144360 On ch=1 n=c#6 v=34
144475 On ch=1 n=c#6 v=0
144480 On ch=1 n=g#5 v=34
145365 On ch=1 n=g#5 v=0
145440 On ch=1 n=a#5 v=34
145885 On ch=1 n=a#5 v=0
145920 On ch=1 n=c6 v=34
147245 On ch=1 n=c6 v=0
147360 On ch=1 n=c#6 v=34
147805 On ch=1 n=c#6 v=0
147840 On ch=1 n=d#6 v=34
148175 On ch=1 n=d#6 v=0
148200 On ch=1 n=f6 v=34
148315 On ch=1 n=f6 v=0
148320 On ch=1 n=f#6 v=34
149205 On ch=1 n=f#6 v=0
149280 On ch=1 n=f6 v=34
149725 On ch=1 n=f6 v=0
149760 On ch=1 n=f6 v=34
150425 On ch=1 n=f6 v=0
150480 On ch=1 n=d#6 v=34
150705 On ch=1 n=d#6 v=0
150720 On ch=1 n=c#6 v=34
151055 On ch=1 n=c#6 v=0
151080 On ch=1 n=d6 v=34
151195 On ch=1 n=d6 v=0
151200 On ch=1 n=d#6 v=34
151250 On ch=1 n=d#6 v=0
151250 On ch=1 n=f6 v=34
151300 On ch=1 n=f6 v=0
151300 On ch=1 n=d#6 v=34
151350 On ch=1 n=d#6 v=0
151350 On ch=1 n=d6 v=34
151400 On ch=1 n=d6 v=0
151400 On ch=1 n=d#6 v=34
151450 On ch=1 n=d#6 v=0
151450 On ch=1 n=e6 v=34
151500 On ch=1 n=e6 v=0
151500 On ch=1 n=f6 v=34
151545 On ch=1 n=f6 v=0
151545 On ch=1 n=g#6 v=34
151590 On ch=1 n=g#6 v=0
151590 On ch=1 n=g6 v=34
151635 On ch=1 n=g6 v=0
151635 On ch=1 n=f#6 v=34
151680 On ch=1 n=f#6 v=0
151680 On ch=1 n=f6 v=34
152015 On ch=1 n=f6 v=0
152040 On ch=1 n=c#6 v=34
152155 On ch=1 n=c#6 v=0
152160 On ch=1 n=g#5 v=34
153045 On ch=1 n=g#5 v=0
153120 On ch=1 n=a#5 v=34
153565 On ch=1 n=a#5 v=0
153600 On ch=1 n=c6 v=34
154045 On ch=1 n=c6 v=0
155040 On ch=1 n=a#6 v=34
155965 On ch=1 n=a#6 v=0
156000 On ch=1 n=g#6 v=34
156445 On ch=1 n=g#6 v=0
156480 On ch=1 n=f#6 v=34
156925 On ch=1 n=f#6 v=0
156960 On ch=1 n=c6 v=34
157405 On ch=1 n=c6 v=0
157440 On ch=1 n=f6 v=34
157885 On ch=1 n=f6 v=0
157920 On ch=1 n=d#6 v=34
158365 On ch=1 n=d#6 v=0
158400 On ch=1 n=c6 v=34
158845 On ch=1 n=c6 v=0
158880 On ch=1 n=a#5 v=34
159325 On ch=1 n=a#5 v=0
159360 On ch=1 n=f#5 v=34
159360 On ch=1 n=d#5 v=34
161130 On ch=1 n=d#5 v=0
161130 On ch=1 n=f#5 v=0
161280 On ch=1 n=c#5 v=34
162465 On ch=1 n=c#5 v=0
162480 On ch=1 n=c#5 v=34
162705 On ch=1 n=c#5 v=0
162720 On ch=1 n=d#5 v=34
163055 On ch=1 n=d#5 v=0
163080 On ch=1 n=c#5 v=34
163195 On ch=1 n=c#5 v=0
163200 On ch=1 n=c#5 v=34
163645 On ch=1 n=c#5 v=0
163680 On ch=1 n=c5 v=34
164125 On ch=1 n=c5 v=0
164160 On ch=1 n=a#5 v=34
164605 On ch=1 n=a#5 v=0
164640 On ch=1 n=c5 v=34
165085 On ch=1 n=c5 v=0
165120 On ch=1 n=f#5 v=34
165120 On ch=1 n=d#5 v=34
165120 On ch=1 n=c5 v=34
166890 On ch=1 n=c5 v=0
166890 On ch=1 n=d#5 v=0
166890 On ch=1 n=f#5 v=0
167040 On ch=1 n=f5 v=34
167040 On ch=1 n=c#5 v=34
168810 On ch=1 n=c#5 v=0
168810 On ch=1 n=f5 v=0
168960 On ch=1 n=f5 v=34
168960 On ch=1 n=c#5 v=34
168960 On ch=1 n=g#4 v=34
170730 On ch=1 n=g#4 v=0
170730 On ch=1 n=c#5 v=0
170730 On ch=1 n=f5 v=0
170730 Meta TrkEnd
TrkEnd
MTrk
0 SeqSpec 43 00 01 00
0 TimeSig 4/4 24 8
0 Tempo 800000
0 KeySig -5 major
0 PrCh ch=1 p=0
0 Par ch=1 c=7 v=127
0 Par ch=1 c=10 v=64
480 On ch=1 n=f5 v=64
480 On ch=1 n=c#5 v=64
1365 On ch=1 n=c#5 v=0
1365 On ch=1 n=f5 v=0
1440 On ch=1 n=f5 v=64
1885 On ch=1 n=f5 v=0
1920 On ch=1 n=f#5 v=64
1920 On ch=1 n=d#5 v=64
3245 On ch=1 n=d#5 v=0
3245 On ch=1 n=f#5 v=0
3360 On ch=1 n=f5 v=64
3805 On ch=1 n=f5 v=0
3840 On ch=1 n=f#5 v=64
4175 On ch=1 n=f#5 v=0
4200 On ch=1 n=g#5 v=64
4315 On ch=1 n=g#5 v=0
4320 On ch=1 n=a#5 v=64
5205 On ch=1 n=a#5 v=0
5280 On ch=1 n=g#5 v=64
5725 On ch=1 n=g#5 v=0
5760 On ch=1 n=g#5 v=64
6205 On ch=1 n=g#5 v=0
6240 On ch=1 n=f#5 v=64
6685 On ch=1 n=f#5 v=0
6720 On ch=1 n=f5 v=64
7165 On ch=1 n=f5 v=0
7200 On ch=1 n=f#5 v=64
7645 On ch=1 n=f#5 v=0
8160 On ch=1 n=f5 v=64
8160 On ch=1 n=c#5 v=64
9485 On ch=1 n=c#5 v=0
9485 On ch=1 n=f5 v=0
9600 On ch=1 n=f#5 v=64
9600 On ch=1 n=d#5 v=64
10925 On ch=1 n=d#5 v=0
10925 On ch=1 n=f#5 v=0
11040 On ch=1 n=f5 v=64
11485 On ch=1 n=f5 v=0
11520 On ch=1 n=f#5 v=64
11855 On ch=1 n=f#5 v=0
11880 On ch=1 n=g#5 v=64
11995 On ch=1 n=g#5 v=0
12000 On ch=1 n=a#5 v=64
12885 On ch=1 n=a#5 v=0
12960 On ch=1 n=g#5 v=64
13405 On ch=1 n=g#5 v=0
13440 On ch=1 n=g#5 v=64
13885 On ch=1 n=g#5 v=0
13920 On ch=1 n=f#5 v=64
14365 On ch=1 n=f#5 v=0
14400 On ch=1 n=f5 v=64
14845 On ch=1 n=f5 v=0
14880 On ch=1 n=f5 v=64
15325 On ch=1 n=f5 v=0
15840 On ch=1 n=d#5 v=64
16285 On ch=1 n=d#5 v=0
16320 On ch=1 n=d#5 v=64
16765 On ch=1 n=d#5 v=0
21600 On ch=1 n=d#5 v=64
21600 On ch=1 n=b4 v=64
22045 On ch=1 n=b4 v=0
22045 On ch=1 n=d#5 v=0
22080 On ch=1 n=c#5 v=64
22080 On ch=1 n=a#4 v=64
22525 On ch=1 n=a#4 v=0
22525 On ch=1 n=c#5 v=0
22560 On ch=1 n=e5 v=64
22560 On ch=1 n=c#5 v=64
23005 On ch=1 n=c#5 v=0
23005 On ch=1 n=e5 v=0
23520 On ch=1 n=d#5 v=64
23520 On ch=1 n=b4 v=64
24405 On ch=1 n=b4 v=0
24405 On ch=1 n=d#5 v=0
24480 On ch=1 n=f5 v=64
24925 On ch=1 n=f5 v=0
29280 On ch=1 n=f5 v=64
29725 On ch=1 n=f5 v=0
29760 On ch=1 n=d#5 v=64
30205 On ch=1 n=d#5 v=0
30240 On ch=1 n=f#5 v=64
30685 On ch=1 n=f#5 v=0
30720 On ch=1 n=f5 v=64
31165 On ch=1 n=f5 v=0
31200 On ch=1 n=f5 v=64
31200 On ch=1 n=c#5 v=64
31645 On ch=1 n=c#5 v=0
31645 On ch=1 n=f5 v=0
31680 On ch=1 n=d#5 v=64
31680 On ch=1 n=a4 v=64
32125 On ch=1 n=a4 v=0
32125 On ch=1 n=d#5 v=0
32160 On ch=1 n=d#5 v=64
32605 On ch=1 n=d#5 v=0
33120 On ch=1 n=d#5 v=64
33120 On ch=1 n=c5 v=64
33565 On ch=1 n=c5 v=0
33565 On ch=1 n=d#5 v=0
33600 On ch=1 n=f5 v=64
33600 On ch=1 n=c#5 v=64
34045 On ch=1 n=c#5 v=0
34045 On ch=1 n=f5 v=0
34080 On ch=1 n=d#5 v=64
34080 On ch=1 n=c5 v=64
34525 On ch=1 n=c5 v=0
34525 On ch=1 n=d#5 v=0
34560 On ch=1 n=f5 v=64
34560 On ch=1 n=c#5 v=64
35445 On ch=1 n=c#5 v=0
35445 On ch=1 n=f5 v=0
35520 On ch=1 n=f5 v=64
35520 On ch=1 n=c#5 v=64
35965 On ch=1 n=c#5 v=0
35965 On ch=1 n=f5 v=0
36000 On ch=1 n=d#5 v=64
36000 On ch=1 n=c5 v=64
36445 On ch=1 n=c5 v=0
36445 On ch=1 n=d#5 v=0
36960 On ch=1 n=f5 v=64
36960 On ch=1 n=c#5 v=64
37845 On ch=1 n=c#5 v=0
37845 On ch=1 n=f5 v=0
37920 On ch=1 n=f5 v=64
38365 On ch=1 n=f5 v=0
38400 On ch=1 n=f#5 v=64
38400 On ch=1 n=d#5 v=64
39725 On ch=1 n=d#5 v=0
39725 On ch=1 n=f#5 v=0
39840 On ch=1 n=f5 v=64
40285 On ch=1 n=f5 v=0
40320 On ch=1 n=f#5 v=64
40655 On ch=1 n=f#5 v=0
40680 On ch=1 n=g#5 v=64
40795 On ch=1 n=g#5 v=0
40800 On ch=1 n=a#5 v=64
41685 On ch=1 n=a#5 v=0
41760 On ch=1 n=g#5 v=64
42205 On ch=1 n=g#5 v=0
42240 On ch=1 n=g#5 v=64
42685 On ch=1 n=g#5 v=0
42720 On ch=1 n=f#5 v=64
43165 On ch=1 n=f#5 v=0
43200 On ch=1 n=f5 v=64
43645 On ch=1 n=f5 v=0
43680 On ch=1 n=f#5 v=64
44125 On ch=1 n=f#5 v=0
44640 On ch=1 n=f5 v=64
44640 On ch=1 n=c#5 v=64
45965 On ch=1 n=c#5 v=0
45965 On ch=1 n=f5 v=0
46080 On ch=1 n=f#5 v=64
46080 On ch=1 n=d#5 v=64
47405 On ch=1 n=d#5 v=0
47405 On ch=1 n=f#5 v=0
47520 On ch=1 n=f5 v=64
47965 On ch=1 n=f5 v=0
48000 On ch=1 n=f#5 v=64
48335 On ch=1 n=f#5 v=0
48360 On ch=1 n=g#5 v=64
48475 On ch=1 n=g#5 v=0
48480 On ch=1 n=a#5 v=64
49365 On ch=1 n=a#5 v=0
49440 On ch=1 n=d#5 v=64
49885 On ch=1 n=d#5 v=0
49920 On ch=1 n=f#5 v=64
50805 On ch=1 n=f#5 v=0
51840 KeySig 4 major
51840 On ch=1 n=g#3 v=64
51840 On ch=1 n=c#3 v=64
52285 On ch=1 n=c#3 v=0
52285 On ch=1 n=g#3 v=0
52320 On ch=1 n=g#3 v=64
52320 On ch=1 n=d#3 v=64
52765 On ch=1 n=d#3 v=0
52765 On ch=1 n=g#3 v=0
52800 On ch=1 n=c#4 v=64
52800 On ch=1 n=e3 v=64
53245 On ch=1 n=e3 v=0
53245 On ch=1 n=c#4 v=0
53280 On ch=1 n=c4 v=64
53280 On ch=1 n=d#3 v=64
53725 On ch=1 n=d#3 v=0
53725 On ch=1 n=c4 v=0
53760 On ch=1 n=g#3 v=64
53760 On ch=1 n=d#3 v=64
54205 On ch=1 n=d#3 v=0
54205 On ch=1 n=g#3 v=0
54240 On ch=1 n=g#3 v=64
54240 On ch=1 n=e3 v=64
54685 On ch=1 n=e3 v=0
54685 On ch=1 n=g#3 v=0
54720 On ch=1 n=d#4 v=64
54720 On ch=1 n=f#3 v=64
55165 On ch=1 n=f#3 v=0
55165 On ch=1 n=d#4 v=0
55200 On ch=1 n=c#4 v=64
55200 On ch=1 n=e3 v=64
55645 On ch=1 n=e3 v=0
55645 On ch=1 n=c#4 v=0
55680 On ch=1 n=c#4 v=64
55680 On ch=1 n=e3 v=64
56125 On ch=1 n=e3 v=0
56125 On ch=1 n=c#4 v=0
56160 On ch=1 n=d#4 v=64
56160 On ch=1 n=g#3 v=64
56605 On ch=1 n=g#3 v=0
56605 On ch=1 n=d#4 v=0
56640 On ch=1 n=e4 v=64
56640 On ch=1 n=c#4 v=64
57085 On ch=1 n=c#4 v=0
57085 On ch=1 n=e4 v=0
57120 On ch=1 n=d#4 v=64
57120 On ch=1 n=g#3 v=64
57565 On ch=1 n=g#3 v=0
57565 On ch=1 n=d#4 v=0
57600 On ch=1 n=d#4 v=80
57600 On ch=1 n=g#3 v=80
59965 On ch=1 n=g#3 v=0
59965 On ch=1 n=d#4 v=0
60000 On ch=1 n=e4 v=64
60000 On ch=1 n=c#4 v=64
60445 On ch=1 n=c#4 v=0
60445 On ch=1 n=e4 v=0
60480 On ch=1 n=d#4 v=64
60480 On ch=1 n=g#3 v=64
60925 On ch=1 n=g#3 v=0
60925 On ch=1 n=d#4 v=0
60960 On ch=1 n=c#4 v=64
60960 On ch=1 n=e3 v=64
61405 On ch=1 n=e3 v=0
61405 On ch=1 n=c#4 v=0
61440 On ch=1 n=d#4 v=64
61440 On ch=1 n=g#3 v=64
61885 On ch=1 n=g#3 v=0
61885 On ch=1 n=d#4 v=0
61920 On ch=1 n=c#4 v=64
61920 On ch=1 n=e3 v=64
62365 On ch=1 n=e3 v=0
62365 On ch=1 n=c#4 v=0
62400 On ch=1 n=c4 v=64
62400 On ch=1 n=d#3 v=64
62845 On ch=1 n=d#3 v=0
62845 On ch=1 n=c4 v=0
62880 On ch=1 n=c#4 v=64
62880 On ch=1 n=e3 v=64
63325 On ch=1 n=e3 v=0
63325 On ch=1 n=c#4 v=0
63360 On ch=1 n=c4 v=64
63360 On ch=1 n=d#3 v=64
63805 On ch=1 n=d#3 v=0
63805 On ch=1 n=c4 v=0
63840 On ch=1 n=c#4 v=64
63840 On ch=1 n=e3 v=64
64285 On ch=1 n=e3 v=0
64285 On ch=1 n=c#4 v=0
64320 On ch=1 n=d#4 v=64
64320 On ch=1 n=d#3 v=64
64765 On ch=1 n=d#3 v=0
64765 On ch=1 n=d#4 v=0
64800 On ch=1 n=e4 v=64
64800 On ch=1 n=c#3 v=64
65245 On ch=1 n=c#3 v=0
65245 On ch=1 n=e4 v=0
65280 On ch=1 n=d#4 v=64
65280 On ch=1 n=g#3 v=64
67050 On ch=1 n=g#3 v=0
67050 On ch=1 n=d#4 v=0
67200 On ch=1 n=g#3 v=64
67200 On ch=1 n=c#3 v=64
67645 On ch=1 n=c#3 v=0
67645 On ch=1 n=g#3 v=0
67680 On ch=1 n=g#3 v=64
67680 On ch=1 n=d#3 v=64
68125 On ch=1 n=d#3 v=0
68125 On ch=1 n=g#3 v=0
68160 On ch=1 n=c#4 v=64
68160 On ch=1 n=e3 v=64
68605 On ch=1 n=e3 v=0
68605 On ch=1 n=c#4 v=0
68640 On ch=1 n=c4 v=64
68640 On ch=1 n=d#3 v=64
69085 On ch=1 n=d#3 v=0
69085 On ch=1 n=c4 v=0
69120 On ch=1 n=g#3 v=64
69120 On ch=1 n=d#3 v=64
69565 On ch=1 n=d#3 v=0
69565 On ch=1 n=g#3 v=0
69600 On ch=1 n=g#3 v=64
69600 On ch=1 n=e3 v=64
70045 On ch=1 n=e3 v=0
70045 On ch=1 n=g#3 v=0
70080 On ch=1 n=d#4 v=64
70080 On ch=1 n=f#3 v=64
70525 On ch=1 n=f#3 v=0
70525 On ch=1 n=d#4 v=0
70560 On ch=1 n=c#4 v=64
70560 On ch=1 n=e3 v=64
71005 On ch=1 n=e3 v=0
71005 On ch=1 n=c#4 v=0
71040 On ch=1 n=c#4 v=64
71040 On ch=1 n=e3 v=64
71485 On ch=1 n=e3 v=0
71485 On ch=1 n=c#4 v=0
71520 On ch=1 n=d#4 v=64
71520 On ch=1 n=g#3 v=64
71965 On ch=1 n=g#3 v=0
71965 On ch=1 n=d#4 v=0
72000 On ch=1 n=e4 v=64
72000 On ch=1 n=c#4 v=64
72445 On ch=1 n=c#4 v=0
72445 On ch=1 n=e4 v=0
72480 On ch=1 n=d#4 v=64
72480 On ch=1 n=g#3 v=64
72925 On ch=1 n=g#3 v=0
72925 On ch=1 n=d#4 v=0
72960 On ch=1 n=d#4 v=80
72960 On ch=1 n=g#3 v=80
74880 On ch=1 n=g#3 v=0
74880 On ch=1 n=d#4 v=0
74880 On ch=1 n=e3 v=106
74880 On ch=1 n=e2 v=106
75765 On ch=1 n=e2 v=0
75765 On ch=1 n=e3 v=0
75840 On ch=1 n=b3 v=106
75840 On ch=1 n=b2 v=106
76725 On ch=1 n=b2 v=0
76725 On ch=1 n=b3 v=0
76800 On ch=1 n=e3 v=106
76800 On ch=1 n=e2 v=106
77685 On ch=1 n=e2 v=0
77685 On ch=1 n=e3 v=0
77760 On ch=1 n=b3 v=106
77760 On ch=1 n=b2 v=106
78425 On ch=1 n=b2 v=0
78425 On ch=1 n=b3 v=0
78480 On ch=1 n=a#3 v=106
78480 On ch=1 n=a#2 v=106
78705 On ch=1 n=a#2 v=0
78705 On ch=1 n=a#3 v=0
78720 On ch=1 n=g#3 v=106
78720 On ch=1 n=g#2 v=106
79605 On ch=1 n=g#2 v=0
79605 On ch=1 n=g#3 v=0
79680 On ch=1 n=d#4 v=106
79680 On ch=1 n=d#3 v=106
80565 On ch=1 n=d#3 v=0
80565 On ch=1 n=d#4 v=0
80640 On ch=1 n=g#3 v=106
80640 On ch=1 n=g#2 v=106
81525 On ch=1 n=g#2 v=0
81525 On ch=1 n=g#3 v=0
82560 On ch=1 n=g#3 v=64
82560 On ch=1 n=c#3 v=64
83005 On ch=1 n=c#3 v=0
83005 On ch=1 n=g#3 v=0
83040 On ch=1 n=g#3 v=64
83040 On ch=1 n=d#3 v=64
83485 On ch=1 n=d#3 v=0
83485 On ch=1 n=g#3 v=0
83520 On ch=1 n=c#4 v=64
83520 On ch=1 n=e3 v=64
83965 On ch=1 n=e3 v=0
83965 On ch=1 n=c#4 v=0
84000 On ch=1 n=c4 v=64
84000 On ch=1 n=d#3 v=64
84445 On ch=1 n=d#3 v=0
84445 On ch=1 n=c4 v=0
84480 On ch=1 n=g#3 v=64
84480 On ch=1 n=d#3 v=64
84925 On ch=1 n=d#3 v=0
84925 On ch=1 n=g#3 v=0
84960 On ch=1 n=g#3 v=64
84960 On ch=1 n=e3 v=64
85405 On ch=1 n=e3 v=0
85405 On ch=1 n=g#3 v=0
85440 On ch=1 n=d#4 v=64
85440 On ch=1 n=f#3 v=64
85885 On ch=1 n=f#3 v=0
85885 On ch=1 n=d#4 v=0
85920 On ch=1 n=c#4 v=64
85920 On ch=1 n=e3 v=64
86365 On ch=1 n=e3 v=0
86365 On ch=1 n=c#4 v=0
86400 On ch=1 n=c#4 v=64
86400 On ch=1 n=e3 v=64
86845 On ch=1 n=e3 v=0
86845 On ch=1 n=c#4 v=0
86880 On ch=1 n=d#4 v=64
86880 On ch=1 n=g#3 v=64
87325 On ch=1 n=g#3 v=0
87325 On ch=1 n=d#4 v=0
87360 On ch=1 n=e4 v=64
87360 On ch=1 n=c#4 v=64
87805 On ch=1 n=c#4 v=0
87805 On ch=1 n=e4 v=0
87840 On ch=1 n=d#4 v=64
87840 On ch=1 n=g#3 v=64
88285 On ch=1 n=g#3 v=0
88285 On ch=1 n=d#4 v=0
88320 On ch=1 n=d#4 v=80
88320 On ch=1 n=g#3 v=80
90685 On ch=1 n=g#3 v=0
90685 On ch=1 n=d#4 v=0
90720 On ch=1 n=e4 v=64
90720 On ch=1 n=c#4 v=64
91165 On ch=1 n=c#4 v=0
91165 On ch=1 n=e4 v=0
91200 On ch=1 n=d#4 v=64
91200 On ch=1 n=g#3 v=64
91645 On ch=1 n=g#3 v=0
91645 On ch=1 n=d#4 v=0
91680 On ch=1 n=c#4 v=64
91680 On ch=1 n=e3 v=64
92125 On ch=1 n=e3 v=0
92125 On ch=1 n=c#4 v=0
92160 On ch=1 n=d#4 v=64
92160 On ch=1 n=g#3 v=64
92605 On ch=1 n=g#3 v=0
92605 On ch=1 n=d#4 v=0
92640 On ch=1 n=c#4 v=64
92640 On ch=1 n=e3 v=64
93085 On ch=1 n=e3 v=0
93085 On ch=1 n=c#4 v=0
93120 On ch=1 n=c4 v=64
93120 On ch=1 n=d#3 v=64
93565 On ch=1 n=d#3 v=0
93565 On ch=1 n=c4 v=0
93600 On ch=1 n=c#4 v=64
93600 On ch=1 n=e3 v=64
94045 On ch=1 n=e3 v=0
94045 On ch=1 n=c#4 v=0
94080 On ch=1 n=c4 v=64
94080 On ch=1 n=d#3 v=64
94525 On ch=1 n=d#3 v=0
94525 On ch=1 n=c4 v=0
94560 On ch=1 n=c#4 v=64
94560 On ch=1 n=e3 v=64
95005 On ch=1 n=e3 v=0
95005 On ch=1 n=c#4 v=0
95040 On ch=1 n=d#4 v=64
95040 On ch=1 n=d#3 v=64
95485 On ch=1 n=d#3 v=0
95485 On ch=1 n=d#4 v=0
95520 On ch=1 n=e4 v=64
95520 On ch=1 n=c#3 v=64
95965 On ch=1 n=c#3 v=0
95965 On ch=1 n=e4 v=0
96000 On ch=1 n=d#4 v=64
96000 On ch=1 n=g#3 v=64
97770 On ch=1 n=g#3 v=0
97770 On ch=1 n=d#4 v=0
97920 On ch=1 n=g#3 v=64
97920 On ch=1 n=c#3 v=64
98365 On ch=1 n=c#3 v=0
98365 On ch=1 n=g#3 v=0
98400 On ch=1 n=g#3 v=64
98400 On ch=1 n=d#3 v=64
98845 On ch=1 n=d#3 v=0
98845 On ch=1 n=g#3 v=0
98880 On ch=1 n=c#4 v=64
98880 On ch=1 n=e3 v=64
99325 On ch=1 n=e3 v=0
99325 On ch=1 n=c#4 v=0
99360 On ch=1 n=c4 v=64
99360 On ch=1 n=d#3 v=64
99805 On ch=1 n=d#3 v=0
99805 On ch=1 n=c4 v=0
99840 On ch=1 n=g#3 v=64
99840 On ch=1 n=d#3 v=64
100285 On ch=1 n=d#3 v=0
100285 On ch=1 n=g#3 v=0
100320 On ch=1 n=g#3 v=64
100320 On ch=1 n=e3 v=64
100765 On ch=1 n=e3 v=0
100765 On ch=1 n=g#3 v=0
100800 On ch=1 n=d#4 v=64
100800 On ch=1 n=f#3 v=64
101245 On ch=1 n=f#3 v=0
101245 On ch=1 n=d#4 v=0
101280 On ch=1 n=c#4 v=64
101280 On ch=1 n=e3 v=64
101725 On ch=1 n=e3 v=0
101725 On ch=1 n=c#4 v=0
101760 On ch=1 n=c#4 v=64
101760 On ch=1 n=e3 v=64
102205 On ch=1 n=e3 v=0
102205 On ch=1 n=c#4 v=0
102240 On ch=1 n=d#4 v=64
102240 On ch=1 n=g#3 v=64
102685 On ch=1 n=g#3 v=0
102685 On ch=1 n=d#4 v=0
102720 On ch=1 n=e4 v=64
102720 On ch=1 n=c#4 v=64
103165 On ch=1 n=c#4 v=0
103165 On ch=1 n=e4 v=0
103200 On ch=1 n=d#4 v=64
103200 On ch=1 n=g#3 v=64
103645 On ch=1 n=g#3 v=0
103645 On ch=1 n=d#4 v=0
103680 On ch=1 n=d#4 v=80
103680 On ch=1 n=g#3 v=80
105600 On ch=1 n=g#3 v=0
105600 On ch=1 n=d#4 v=0
105600 On ch=1 n=e3 v=106
105600 On ch=1 n=e2 v=106
106485 On ch=1 n=e2 v=0
106485 On ch=1 n=e3 v=0
106560 On ch=1 n=b3 v=106
106560 On ch=1 n=b2 v=106
107445 On ch=1 n=b2 v=0
107445 On ch=1 n=b3 v=0
107520 On ch=1 n=e3 v=106
107520 On ch=1 n=e2 v=106
108405 On ch=1 n=e2 v=0
108405 On ch=1 n=e3 v=0
108480 On ch=1 n=b3 v=106
108480 On ch=1 n=b2 v=106
109145 On ch=1 n=b2 v=0
109145 On ch=1 n=b3 v=0
109200 On ch=1 n=a#3 v=106
109200 On ch=1 n=a#2 v=106
109425 On ch=1 n=a#2 v=0
109425 On ch=1 n=a#3 v=0
109440 On ch=1 n=g#3 v=106
109440 On ch=1 n=g#2 v=106
110325 On ch=1 n=g#2 v=0
110325 On ch=1 n=g#3 v=0
110400 On ch=1 n=d#4 v=106
110400 On ch=1 n=d#3 v=106
111285 On ch=1 n=d#3 v=0
111285 On ch=1 n=d#4 v=0
111360 On ch=1 n=g#3 v=106
111360 On ch=1 n=g#2 v=106
112245 On ch=1 n=g#2 v=0
112245 On ch=1 n=g#3 v=0
113280 On ch=1 n=f#4 v=106
113280 On ch=1 n=g#3 v=106
113280 On ch=1 n=f#3 v=106
114165 On ch=1 n=f#3 v=0
114165 On ch=1 n=g#3 v=0
114165 On ch=1 n=f#4 v=0
114240 On ch=1 n=e4 v=106
114240 On ch=1 n=e3 v=106
114685 On ch=1 n=e3 v=0
114685 On ch=1 n=e4 v=0
114720 On ch=1 n=c#4 v=106
114720 On ch=1 n=c#3 v=106
115165 On ch=1 n=c#3 v=0
115165 On ch=1 n=c#4 v=0
115200 On ch=1 n=g#3 v=106
115200 On ch=1 n=g#2 v=106
116525 On ch=1 n=g#2 v=0
116525 On ch=1 n=g#3 v=0
116640 On ch=1 n=g#4 v=106
116640 On ch=1 n=g#3 v=106
117085 On ch=1 n=g#3 v=0
117085 On ch=1 n=g#4 v=0
117120 On ch=1 n=g#4 v=106
117120 On ch=1 n=c#4 v=106
118005 On ch=1 n=c#4 v=0
118005 On ch=1 n=g#4 v=0
118080 On ch=1 n=g#4 v=106
118080 On ch=1 n=g#3 v=106
118965 On ch=1 n=g#3 v=0
118965 On ch=1 n=g#4 v=0
119040 On ch=1 n=a4 v=106
119040 On ch=1 n=a3 v=106
119925 On ch=1 n=a3 v=0
119925 On ch=1 n=a4 v=0
120000 On ch=1 n=g#4 v=106
120000 On ch=1 n=g#3 v=106
120445 On ch=1 n=g#3 v=0
120445 On ch=1 n=g#4 v=0
120480 On ch=1 n=f#4 v=106
120480 On ch=1 n=f#3 v=106
120925 On ch=1 n=f#3 v=0
120925 On ch=1 n=f#4 v=0
120960 On ch=1 n=g#3 v=106
121845 On ch=1 n=g#3 v=0
121920 On ch=1 n=g#3 v=106
121920 On ch=1 n=c#3 v=106
122805 On ch=1 n=c#3 v=0
122805 On ch=1 n=g#3 v=0
122880 On ch=1 n=g#3 v=106
122880 On ch=1 n=g#2 v=106
123325 On ch=1 n=g#2 v=0
123325 On ch=1 n=g#3 v=0
123360 On ch=1 n=g#3 v=106
123360 On ch=1 n=c#3 v=106
125245 On ch=1 n=c#3 v=0
125245 On ch=1 n=g#3 v=0
125280 On ch=1 n=g#3 v=106
125280 On ch=1 n=g#2 v=106
126165 On ch=1 n=g#2 v=0
126165 On ch=1 n=g#3 v=0
126240 On ch=1 n=g#3 v=106
126240 On ch=1 n=c#3 v=106
126685 On ch=1 n=c#3 v=0
126685 On ch=1 n=g#3 v=0
126720 On ch=1 n=g#3 v=106
126720 On ch=1 n=g#2 v=106
128490 On ch=1 n=g#2 v=0
128490 On ch=1 n=g#3 v=0
128640 On ch=1 n=g#3 v=106
128865 On ch=1 n=g#3 v=0
128880 On ch=1 n=g#3 v=106
129105 On ch=1 n=g#3 v=0
129120 On ch=1 n=g#3 v=106
129345 On ch=1 n=g#3 v=0
129360 On ch=1 n=g#3 v=106
129585 On ch=1 n=g#3 v=0
129600 On ch=1 n=e4 v=106
129600 On ch=1 n=g#3 v=106
129600 On ch=1 n=e3 v=106
130045 On ch=1 n=e3 v=0
130045 On ch=1 n=g#3 v=0
130045 On ch=1 n=e4 v=0
130080 On ch=1 n=c#4 v=106
130080 On ch=1 n=c#3 v=106
130525 On ch=1 n=c#3 v=0
130525 On ch=1 n=c#4 v=0
130560 On ch=1 n=g#3 v=106
130560 On ch=1 n=g#2 v=106
132330 On ch=1 n=g#2 v=0
132330 On ch=1 n=g#3 v=0
132480 On ch=1 n=g#3 v=106
132480 On ch=1 n=c#3 v=106
133365 On ch=1 n=c#3 v=0
133365 On ch=1 n=g#3 v=0
133440 On ch=1 n=g#4 v=106
133440 On ch=1 n=g#3 v=106
134325 On ch=1 n=g#3 v=0
134325 On ch=1 n=g#4 v=0
134400 On ch=1 n=f4 v=85
134400 On ch=1 n=f3 v=85
135285 On ch=1 n=f3 v=0
135285 On ch=1 n=f4 v=0
135360 On ch=1 n=f#4 v=85
135360 On ch=1 n=f#3 v=85
136245 On ch=1 n=f#3 v=0
136245 On ch=1 n=f#4 v=0
136320 On ch=1 n=c4 v=85
136320 On ch=1 n=c3 v=85
137205 On ch=1 n=c3 v=0
137205 On ch=1 n=c4 v=0
137280 On ch=1 n=c#4 v=85
137280 On ch=1 n=c#3 v=85
138165 On ch=1 n=c#3 v=0
138165 On ch=1 n=c#4 v=0
138240 On ch=1 n=g#3 v=85
138240 On ch=1 n=g#2 v=85
139565 On ch=1 n=g#2 v=0
139565 On ch=1 n=g#3 v=0
139680 On ch=1 n=g#3 v=85
139680 On ch=1 n=c#3 v=85
140125 On ch=1 n=c#3 v=0
140125 On ch=1 n=g#3 v=0
140160 On ch=1 n=g#3 v=85
140160 On ch=1 n=g#2 v=85
141485 On ch=1 n=g#2 v=0
141485 On ch=1 n=g#3 v=0
141600 On ch=1 n=g#3 v=85
141600 On ch=1 n=c#3 v=85
142045 On ch=1 n=c#3 v=0
142045 On ch=1 n=g#3 v=0
142080 On ch=1 n=g#3 v=85
142525 On ch=1 n=g#3 v=0
142560 On ch=1 n=g#3 v=85
143005 On ch=1 n=g#3 v=0
143040 On ch=1 n=g#4 v=85
143265 On ch=1 n=g#4 v=0
143280 On ch=1 n=f4 v=85
143505 On ch=1 n=f4 v=0
143520 On ch=1 n=g#4 v=85
143745 On ch=1 n=g#4 v=0
143760 On ch=1 n=d#4 v=85
143985 On ch=1 n=d#4 v=0
144000 KeySig -5 major
144480 On ch=1 n=f5 v=85
144480 On ch=1 n=c#5 v=85
145365 On ch=1 n=c#5 v=0
145365 On ch=1 n=f5 v=0
145440 On ch=1 n=f5 v=85
145885 On ch=1 n=f5 v=0
145920 On ch=1 n=f#5 v=85
145920 On ch=1 n=d#5 v=85
147245 On ch=1 n=d#5 v=0
147245 On ch=1 n=f#5 v=0
147360 On ch=1 n=f5 v=85
147805 On ch=1 n=f5 v=0
147840 On ch=1 n=f#5 v=85
148175 On ch=1 n=f#5 v=0
148200 On ch=1 n=g#5 v=85
148315 On ch=1 n=g#5 v=0
148320 On ch=1 n=a#5 v=85
149205 On ch=1 n=a#5 v=0
149280 On ch=1 n=g#5 v=85
149725 On ch=1 n=g#5 v=0
149760 On ch=1 n=g#5 v=85
150205 On ch=1 n=g#5 v=0
150240 On ch=1 n=f#5 v=85
150685 On ch=1 n=f#5 v=0
150720 On ch=1 n=f5 v=85
151165 On ch=1 n=f5 v=0
151200 On ch=1 n=f#5 v=85
151645 On ch=1 n=f#5 v=0
152160 On ch=1 n=f5 v=85
152160 On ch=1 n=c#5 v=85
153485 On ch=1 n=c#5 v=0
153485 On ch=1 n=f5 v=0
153600 On ch=1 n=f#5 v=85
153600 On ch=1 n=d#5 v=85
154045 On ch=1 n=d#5 v=0
154045 On ch=1 n=f#5 v=0
159360 On ch=1 n=g#3 v=85
161130 On ch=1 n=g#3 v=0
161280 On ch=1 n=c#4 v=85
163050 On ch=1 n=c#4 v=0
163200 On ch=1 n=g#3 v=85
164970 On ch=1 n=g#3 v=0
165120 On ch=1 n=g#3 v=85
166890 On ch=1 n=g#3 v=0
167040 On ch=1 n=c#4 v=85
167925 On ch=1 n=c#4 v=0
168000 On ch=1 n=g#3 v=85
168885 On ch=1 n=g#3 v=0
170880 TimeSig 5/4 24 8
170880 Meta TrkEnd
TrkEnd
MTrk
0 SeqSpec 43 00 01 00
0 TimeSig 4/4 24 8
0 Tempo 800000
0 KeySig -5 major
0 PrCh ch=1 p=0
0 Par ch=1 c=7 v=127
0 Par ch=1 c=10 v=64
0 On ch=1 n=c#4 v=64
225 On ch=1 n=c#4 v=0
240 On ch=1 n=g#4 v=64
465 On ch=1 n=g#4 v=0
480 On ch=1 n=c#5 v=64
705 On ch=1 n=c#5 v=0
720 On ch=1 n=g#4 v=64
945 On ch=1 n=g#4 v=0
960 On ch=1 n=g#4 v=64
1185 On ch=1 n=g#4 v=0
1200 On ch=1 n=g#4 v=64
1425 On ch=1 n=g#4 v=0
1440 On ch=1 n=c#5 v=64
1665 On ch=1 n=c#5 v=0
1680 On ch=1 n=g#4 v=64
1905 On ch=1 n=g#4 v=0
1920 On ch=1 n=d#5 v=64
2145 On ch=1 n=d#5 v=0
2160 On ch=1 n=g#4 v=64
2385 On ch=1 n=g#4 v=0
2400 On ch=1 n=g#4 v=64
2625 On ch=1 n=g#4 v=0
2640 On ch=1 n=g#4 v=64
2865 On ch=1 n=g#4 v=0
2880 On ch=1 n=a#4 v=64
3105 On ch=1 n=a#4 v=0
3120 On ch=1 n=g#4 v=64
3345 On ch=1 n=g#4 v=0
3360 On ch=1 n=c#5 v=64
3585 On ch=1 n=c#5 v=0
3600 On ch=1 n=g#4 v=64
3825 On ch=1 n=g#4 v=0
3840 On ch=1 n=c5 v=64
4065 On ch=1 n=c5 v=0
4080 On ch=1 n=g#4 v=64
4305 On ch=1 n=g#4 v=0
4320 On ch=1 n=a#5 v=64
4545 On ch=1 n=a#5 v=0
4560 On ch=1 n=g#4 v=64
4785 On ch=1 n=g#4 v=0
4800 On ch=1 n=g#4 v=64
5025 On ch=1 n=g#4 v=0
5040 On ch=1 n=g#4 v=64
5265 On ch=1 n=g#4 v=0
5280 On ch=1 n=c#5 v=64
5505 On ch=1 n=c#5 v=0
5520 On ch=1 n=g#4 v=64
5745 On ch=1 n=g#4 v=0
5760 On ch=1 n=c5 v=64
5985 On ch=1 n=c5 v=0
6000 On ch=1 n=g#4 v=64
6225 On ch=1 n=g#4 v=0
6240 On ch=1 n=f#5 v=64
6465 On ch=1 n=f#5 v=0
6480 On ch=1 n=g#4 v=64
6705 On ch=1 n=g#4 v=0
6720 On ch=1 n=c#5 v=64
6945 On ch=1 n=c#5 v=0
6960 On ch=1 n=g#4 v=64
7185 On ch=1 n=g#4 v=0
7200 On ch=1 n=c5 v=64
7425 On ch=1 n=c5 v=0
7440 On ch=1 n=g#4 v=64
7665 On ch=1 n=g#4 v=0
7680 On ch=1 n=c#4 v=64
7905 On ch=1 n=c#4 v=0
7920 On ch=1 n=g#4 v=64
8145 On ch=1 n=g#4 v=0
8160 On ch=1 n=c#5 v=64
8385 On ch=1 n=c#5 v=0
8400 On ch=1 n=g#4 v=64
8625 On ch=1 n=g#4 v=0
8640 On ch=1 n=g#4 v=64
8865 On ch=1 n=g#4 v=0
8880 On ch=1 n=g#4 v=64
9105 On ch=1 n=g#4 v=0
9120 On ch=1 n=g#4 v=64
9345 On ch=1 n=g#4 v=0
9360 On ch=1 n=g#4 v=64
9585 On ch=1 n=g#4 v=0
9600 On ch=1 n=d#5 v=64
9825 On ch=1 n=d#5 v=0
9840 On ch=1 n=g#4 v=64
10065 On ch=1 n=g#4 v=0
10080 On ch=1 n=g#4 v=64
10305 On ch=1 n=g#4 v=0
10320 On ch=1 n=g#4 v=64
10545 On ch=1 n=g#4 v=0
10560 On ch=1 n=a#4 v=64
10785 On ch=1 n=a#4 v=0
10800 On ch=1 n=g#4 v=64
11025 On ch=1 n=g#4 v=0
11040 On ch=1 n=c#5 v=64
11265 On ch=1 n=c#5 v=0
11280 On ch=1 n=g#4 v=64
11505 On ch=1 n=g#4 v=0
11520 On ch=1 n=c5 v=64
11745 On ch=1 n=c5 v=0
11760 On ch=1 n=g#4 v=64
11985 On ch=1 n=g#4 v=0
12000 On ch=1 n=a#5 v=64
12225 On ch=1 n=a#5 v=0
12240 On ch=1 n=g#4 v=64
12465 On ch=1 n=g#4 v=0
12480 On ch=1 n=g#4 v=64
12705 On ch=1 n=g#4 v=0
12720 On ch=1 n=g#4 v=64
12945 On ch=1 n=g#4 v=0
12960 On ch=1 n=c#5 v=64
13185 On ch=1 n=c#5 v=0
13200 On ch=1 n=g#4 v=64
13425 On ch=1 n=g#4 v=0
13440 On ch=1 n=c5 v=64
13665 On ch=1 n=c5 v=0
13680 On ch=1 n=g#4 v=64
13905 On ch=1 n=g#4 v=0
13920 On ch=1 n=f#5 v=64
14145 On ch=1 n=f#5 v=0
14160 On ch=1 n=g#4 v=64
14385 On ch=1 n=g#4 v=0
14400 On ch=1 n=c#5 v=64
14625 On ch=1 n=c#5 v=0
14640 On ch=1 n=g#4 v=64
14865 On ch=1 n=g#4 v=0
14880 On ch=1 n=c#5 v=64
15105 On ch=1 n=c#5 v=0
15120 On ch=1 n=g#4 v=64
15345 On ch=1 n=g#4 v=0
15360 On ch=1 n=g#3 v=64
15585 On ch=1 n=g#3 v=0
15600 On ch=1 n=g#4 v=64
15825 On ch=1 n=g#4 v=0
15840 On ch=1 n=c5 v=64
16065 On ch=1 n=c5 v=0
16080 On ch=1 n=g#4 v=64
16305 On ch=1 n=g#4 v=0
16320 On ch=1 n=b4 v=64
16545 On ch=1 n=b4 v=0
16560 On ch=1 n=g#4 v=64
16785 On ch=1 n=g#4 v=0
16800 On ch=1 n=f5 v=64
16800 On ch=1 n=b4 v=64
16800 On ch=1 n=c#4 v=64
17025 On ch=1 n=c#4 v=0
17025 On ch=1 n=b4 v=0
17025 On ch=1 n=f5 v=0
17040 On ch=1 n=c#5 v=64
17265 On ch=1 n=c#5 v=0
17280 On ch=1 n=a#4 v=64
17280 On ch=1 n=f#4 v=64
17505 On ch=1 n=f#4 v=0
17505 On ch=1 n=a#4 v=0
17520 On ch=1 n=c#5 v=64
17745 On ch=1 n=c#5 v=0
17760 On ch=1 n=f#5 v=64
17760 On ch=1 n=a#4 v=64
17985 On ch=1 n=a#4 v=0
17985 On ch=1 n=f#5 v=0
18000 On ch=1 n=c#5 v=64
18225 On ch=1 n=c#5 v=0
18240 On ch=1 n=c#4 v=64
18465 On ch=1 n=c#4 v=0
18480 On ch=1 n=g#4 v=64
18705 On ch=1 n=g#4 v=0
18720 On ch=1 n=f5 v=64
18720 On ch=1 n=c#5 v=64
18945 On ch=1 n=c#5 v=0
18945 On ch=1 n=f5 v=0
18960 On ch=1 n=g#4 v=64
19185 On ch=1 n=g#4 v=0
19200 On ch=1 n=d#4 v=64
19425 On ch=1 n=d#4 v=0
19440 On ch=1 n=g#4 v=64
19665 On ch=1 n=g#4 v=0
19680 On ch=1 n=d#5 v=64
19680 On ch=1 n=b4 v=64
19905 On ch=1 n=b4 v=0
19905 On ch=1 n=d#5 v=0
19920 On ch=1 n=g#4 v=64
20145 On ch=1 n=g#4 v=0
20160 On ch=1 n=d#4 v=64
20385 On ch=1 n=d#4 v=0
20400 On ch=1 n=g4 v=64
20625 On ch=1 n=g4 v=0
20640 On ch=1 n=d#5 v=64
20640 On ch=1 n=c#5 v=64
20865 On ch=1 n=c#5 v=0
20865 On ch=1 n=d#5 v=0
20880 On ch=1 n=g4 v=64
21105 On ch=1 n=g4 v=0
21120 On ch=1 n=g#3 v=64
21345 On ch=1 n=g#3 v=0
21360 On ch=1 n=g#4 v=64
21585 On ch=1 n=g#4 v=0
21600 On ch=1 n=b4 v=64
21825 On ch=1 n=b4 v=0
21840 On ch=1 n=g#4 v=64
22065 On ch=1 n=g#4 v=0
22080 On ch=1 n=a#4 v=64
22305 On ch=1 n=a#4 v=0
22320 On ch=1 n=g#4 v=64
22545 On ch=1 n=g#4 v=0
22560 On ch=1 n=c#5 v=64
22785 On ch=1 n=c#5 v=0
22800 On ch=1 n=g#4 v=64
23025 On ch=1 n=g#4 v=0
23040 On ch=1 n=g#3 v=64
23265 On ch=1 n=g#3 v=0
23280 On ch=1 n=g#4 v=64
23505 On ch=1 n=g#4 v=0
23520 On ch=1 n=b4 v=64
23745 On ch=1 n=b4 v=0
23760 On ch=1 n=g#4 v=64
23985 On ch=1 n=g#4 v=0
24000 On ch=1 n=g#4 v=64
24225 On ch=1 n=g#4 v=0
24240 On ch=1 n=g#4 v=64
24465 On ch=1 n=g#4 v=0
24480 On ch=1 n=b4 v=64
24705 On ch=1 n=b4 v=0
24720 On ch=1 n=g#4 v=64
24945 On ch=1 n=g#4 v=0
24960 On ch=1 n=d#4 v=64
25185 On ch=1 n=d#4 v=0
25200 On ch=1 n=f#4 v=64
25425 On ch=1 n=f#4 v=0
25440 On ch=1 n=f#5 v=64
25440 On ch=1 n=a#4 v=64
25665 On ch=1 n=a#4 v=0
25665 On ch=1 n=f#5 v=0
25680 On ch=1 n=f#4 v=64
25905 On ch=1 n=f#4 v=0
25920 On ch=1 n=a#3 v=64
26145 On ch=1 n=a#3 v=0
26160 On ch=1 n=f4 v=64
26385 On ch=1 n=f4 v=0
26400 On ch=1 n=f5 v=64
26400 On ch=1 n=c#5 v=64
26400 On ch=1 n=a#4 v=64
26625 On ch=1 n=a#4 v=0
26625 On ch=1 n=c#5 v=0
26625 On ch=1 n=f5 v=0
26640 On ch=1 n=f4 v=64
26865 On ch=1 n=f4 v=0
26880 On ch=1 n=f3 v=64
27105 On ch=1 n=f3 v=0
27120 On ch=1 n=f4 v=64
27345 On ch=1 n=f4 v=0
27360 On ch=1 n=f5 v=64
27360 On ch=1 n=c#5 v=64
27360 On ch=1 n=a#4 v=64
27585 On ch=1 n=a#4 v=0
27585 On ch=1 n=c#5 v=0
27585 On ch=1 n=f5 v=0
27600 On ch=1 n=f4 v=64
27825 On ch=1 n=f4 v=0
27840 On ch=1 n=f3 v=64
28065 On ch=1 n=f3 v=0
28080 On ch=1 n=f4 v=64
28305 On ch=1 n=f4 v=0
28320 On ch=1 n=f5 v=64
28320 On ch=1 n=d#5 v=64
28320 On ch=1 n=a4 v=64
28545 On ch=1 n=a4 v=0
28545 On ch=1 n=d#5 v=0
28545 On ch=1 n=f5 v=0
28560 On ch=1 n=f4 v=64
28785 On ch=1 n=f4 v=0
28800 On ch=1 n=a#3 v=64
29025 On ch=1 n=a#3 v=0
29040 On ch=1 n=f4 v=64
29265 On ch=1 n=f4 v=0
29280 On ch=1 n=c#5 v=64
29505 On ch=1 n=c#5 v=0
29520 On ch=1 n=f4 v=64
29745 On ch=1 n=f4 v=0
29760 On ch=1 n=c5 v=64
29985 On ch=1 n=c5 v=0
30000 On ch=1 n=f4 v=64
30225 On ch=1 n=f4 v=0
30240 On ch=1 n=d#5 v=64
30465 On ch=1 n=d#5 v=0
30480 On ch=1 n=f4 v=64
30705 On ch=1 n=f4 v=0
30720 On ch=1 n=c#5 v=64
30945 On ch=1 n=c#5 v=0
30960 On ch=1 n=f4 v=64
31185 On ch=1 n=f4 v=0
31200 On ch=1 n=a#4 v=64
31425 On ch=1 n=a#4 v=0
31440 On ch=1 n=f4 v=64
31665 On ch=1 n=f4 v=0
31680 On ch=1 n=a4 v=64
31905 On ch=1 n=a4 v=0
31920 On ch=1 n=f4 v=64
32145 On ch=1 n=f4 v=0
32160 On ch=1 n=f5 v=64
32385 On ch=1 n=f5 v=0
32400 On ch=1 n=f4 v=64
32625 On ch=1 n=f4 v=0
32640 On ch=1 n=a#3 v=64
32865 On ch=1 n=a#3 v=0
32880 On ch=1 n=f4 v=64
33105 On ch=1 n=f4 v=0
33120 On ch=1 n=c5 v=64
33345 On ch=1 n=c5 v=0
33360 On ch=1 n=f4 v=64
33585 On ch=1 n=f4 v=0
33600 On ch=1 n=c#5 v=64
33825 On ch=1 n=c#5 v=0
33840 On ch=1 n=f4 v=64
34065 On ch=1 n=f4 v=0
34080 On ch=1 n=c5 v=64
34305 On ch=1 n=c5 v=0
34320 On ch=1 n=f4 v=64
34545 On ch=1 n=f4 v=0
34560 On ch=1 n=c#5 v=64
34785 On ch=1 n=c#5 v=0
34800 On ch=1 n=f4 v=64
35025 On ch=1 n=f4 v=0
35040 On ch=1 n=f4 v=64
35265 On ch=1 n=f4 v=0
35280 On ch=1 n=f4 v=64
35505 On ch=1 n=f4 v=0
35520 On ch=1 n=c#5 v=64
35745 On ch=1 n=c#5 v=0
35760 On ch=1 n=f#4 v=64
35985 On ch=1 n=f#4 v=0
36000 On ch=1 n=c5 v=64
36225 On ch=1 n=c5 v=0
36240 On ch=1 n=g#4 v=64
36465 On ch=1 n=g#4 v=0
36480 On ch=1 n=c#4 v=64
36705 On ch=1 n=c#4 v=0
36720 On ch=1 n=g#4 v=64
36945 On ch=1 n=g#4 v=0
36960 On ch=1 n=c#5 v=64
37185 On ch=1 n=c#5 v=0
37200 On ch=1 n=g#4 v=64
37425 On ch=1 n=g#4 v=0
37440 On ch=1 n=g#4 v=64
37665 On ch=1 n=g#4 v=0
37680 On ch=1 n=g#4 v=64
37905 On ch=1 n=g#4 v=0
37920 On ch=1 n=c#5 v=64
38145 On ch=1 n=c#5 v=0
38160 On ch=1 n=g#4 v=64
38385 On ch=1 n=g#4 v=0
38400 On ch=1 n=d#5 v=64
38625 On ch=1 n=d#5 v=0
38640 On ch=1 n=g#4 v=64
38865 On ch=1 n=g#4 v=0
38880 On ch=1 n=g#4 v=64
39105 On ch=1 n=g#4 v=0
39120 On ch=1 n=g#4 v=64
39345 On ch=1 n=g#4 v=0
39360 On ch=1 n=a#4 v=64
39585 On ch=1 n=a#4 v=0
39600 On ch=1 n=g#4 v=64
39825 On ch=1 n=g#4 v=0
39840 On ch=1 n=c#5 v=64
40065 On ch=1 n=c#5 v=0
40080 On ch=1 n=g#4 v=64
40305 On ch=1 n=g#4 v=0
40320 On ch=1 n=c5 v=64
40545 On ch=1 n=c5 v=0
40560 On ch=1 n=g#4 v=64
40785 On ch=1 n=g#4 v=0
40800 On ch=1 n=a#5 v=64
41025 On ch=1 n=a#5 v=0
41040 On ch=1 n=g#4 v=64
41265 On ch=1 n=g#4 v=0
41280 On ch=1 n=g#4 v=64
41505 On ch=1 n=g#4 v=0
41520 On ch=1 n=g#4 v=64
41745 On ch=1 n=g#4 v=0
41760 On ch=1 n=c#5 v=64
41985 On ch=1 n=c#5 v=0
42000 On ch=1 n=g#4 v=64
42225 On ch=1 n=g#4 v=0
42240 On ch=1 n=c5 v=64
42465 On ch=1 n=c5 v=0
42480 On ch=1 n=g#4 v=64
42705 On ch=1 n=g#4 v=0
42720 On ch=1 n=f#5 v=64
42945 On ch=1 n=f#5 v=0
42960 On ch=1 n=g#4 v=64
43185 On ch=1 n=g#4 v=0
43200 On ch=1 n=c#5 v=64
43425 On ch=1 n=c#5 v=0
43440 On ch=1 n=g#4 v=64
43665 On ch=1 n=g#4 v=0
43680 On ch=1 n=c5 v=64
43905 On ch=1 n=c5 v=0
43920 On ch=1 n=g#4 v=64
44145 On ch=1 n=g#4 v=0
44160 On ch=1 n=c#4 v=64
44385 On ch=1 n=c#4 v=0
44400 On ch=1 n=g#4 v=64
44625 On ch=1 n=g#4 v=0
44640 On ch=1 n=c#5 v=64
44865 On ch=1 n=c#5 v=0
44880 On ch=1 n=g#4 v=64
45105 On ch=1 n=g#4 v=0
45120 On ch=1 n=g#4 v=64
45345 On ch=1 n=g#4 v=0
45360 On ch=1 n=g#4 v=64
45585 On ch=1 n=g#4 v=0
45600 On ch=1 n=g#4 v=64
45825 On ch=1 n=g#4 v=0
45840 On ch=1 n=g#4 v=64
46065 On ch=1 n=g#4 v=0
46080 On ch=1 n=d#5 v=64
46305 On ch=1 n=d#5 v=0
46320 On ch=1 n=g#4 v=64
46545 On ch=1 n=g#4 v=0
46560 On ch=1 n=g#4 v=64
46785 On ch=1 n=g#4 v=0
46800 On ch=1 n=g#4 v=64
47025 On ch=1 n=g#4 v=0
47040 On ch=1 n=a#4 v=64
47265 On ch=1 n=a#4 v=0
47280 On ch=1 n=g#4 v=64
47505 On ch=1 n=g#4 v=0
47520 On ch=1 n=c#5 v=64
47745 On ch=1 n=c#5 v=0
47760 On ch=1 n=g#4 v=64
47985 On ch=1 n=g#4 v=0
48000 On ch=1 n=c5 v=64
48225 On ch=1 n=c5 v=0
48240 On ch=1 n=g#4 v=64
48465 On ch=1 n=g#4 v=0
48480 On ch=1 n=a#5 v=64
48705 On ch=1 n=a#5 v=0
48720 On ch=1 n=g#4 v=64
48945 On ch=1 n=g#4 v=0
48960 On ch=1 n=g#4 v=64
49185 On ch=1 n=g#4 v=0
49200 On ch=1 n=g#4 v=64
49425 On ch=1 n=g#4 v=0
49440 On ch=1 n=d#5 v=64
49665 On ch=1 n=d#5 v=0
49680 On ch=1 n=g#4 v=64
49905 On ch=1 n=g#4 v=0
49920 On ch=1 n=f#5 v=64
50145 On ch=1 n=f#5 v=0
50160 On ch=1 n=g#4 v=64
50385 On ch=1 n=g#4 v=0
50400 On ch=1 n=g#4 v=64
50625 On ch=1 n=g#4 v=0
50640 On ch=1 n=g#4 v=64
50865 On ch=1 n=g#4 v=0
50880 On ch=1 n=g#4 v=64
51105 On ch=1 n=g#4 v=0
51840 KeySig 4 major
68160 On ch=1 n=c#5 v=64
68605 On ch=1 n=c#5 v=0
68640 On ch=1 n=c5 v=64
69085 On ch=1 n=c5 v=0
70080 On ch=1 n=d#5 v=64
70525 On ch=1 n=d#5 v=0
70560 On ch=1 n=c#5 v=64
71005 On ch=1 n=c#5 v=0
71040 On ch=1 n=c#5 v=64
71485 On ch=1 n=c#5 v=0
71520 On ch=1 n=d#5 v=64
71965 On ch=1 n=d#5 v=0
72000 On ch=1 n=e5 v=64
72445 On ch=1 n=e5 v=0
72480 On ch=1 n=d#5 v=64
72925 On ch=1 n=d#5 v=0
72960 On ch=1 n=d#5 v=64
74730 On ch=1 n=d#5 v=0
74880 On ch=1 n=g#5 v=106
74880 On ch=1 n=e5 v=106
75765 On ch=1 n=e5 v=0
75765 On ch=1 n=g#5 v=0
75840 On ch=1 n=g#5 v=106
75840 On ch=1 n=d#5 v=106
76725 On ch=1 n=d#5 v=0
76725 On ch=1 n=g#5 v=0
76800 On ch=1 n=g#5 v=106
76800 On ch=1 n=e5 v=106
77685 On ch=1 n=e5 v=0
77685 On ch=1 n=g#5 v=0
77760 On ch=1 n=g#5 v=106
77760 On ch=1 n=d#5 v=106
78645 On ch=1 n=d#5 v=0
78645 On ch=1 n=g#5 v=0
78720 On ch=1 n=g#5 v=106
78720 On ch=1 n=d#5 v=106
79605 On ch=1 n=d#5 v=0
79605 On ch=1 n=g#5 v=0
79680 On ch=1 n=f#5 v=106
79680 On ch=1 n=d#5 v=106
80565 On ch=1 n=d#5 v=0
80565 On ch=1 n=f#5 v=0
98880 On ch=1 n=c#5 v=64
99325 On ch=1 n=c#5 v=0
99360 On ch=1 n=c5 v=64
99805 On ch=1 n=c5 v=0
100800 On ch=1 n=d#5 v=64
101245 On ch=1 n=d#5 v=0
101280 On ch=1 n=c#5 v=64
101725 On ch=1 n=c#5 v=0
101760 On ch=1 n=c#5 v=64
102205 On ch=1 n=c#5 v=0
102240 On ch=1 n=d#5 v=64
102685 On ch=1 n=d#5 v=0
102720 On ch=1 n=e5 v=64
103165 On ch=1 n=e5 v=0
103200 On ch=1 n=d#5 v=64
103645 On ch=1 n=d#5 v=0
103680 On ch=1 n=d#5 v=64
105450 On ch=1 n=d#5 v=0
105600 On ch=1 n=g#5 v=106
105600 On ch=1 n=e5 v=106
106485 On ch=1 n=e5 v=0
106485 On ch=1 n=g#5 v=0
106560 On ch=1 n=g#5 v=106
106560 On ch=1 n=d#5 v=106
107445 On ch=1 n=d#5 v=0
107445 On ch=1 n=g#5 v=0
107520 On ch=1 n=g#5 v=106
107520 On ch=1 n=e5 v=106
108405 On ch=1 n=e5 v=0
108405 On ch=1 n=g#5 v=0
108480 On ch=1 n=g#5 v=106
108480 On ch=1 n=d#5 v=106
109365 On ch=1 n=d#5 v=0
109365 On ch=1 n=g#5 v=0
109440 On ch=1 n=g#5 v=106
109440 On ch=1 n=d#5 v=106
110325 On ch=1 n=d#5 v=0
110325 On ch=1 n=g#5 v=0
110400 On ch=1 n=f#5 v=106
110400 On ch=1 n=d#5 v=106
111285 On ch=1 n=d#5 v=0
111285 On ch=1 n=f#5 v=0
113280 On ch=1 n=c6 v=34
113280 On ch=1 n=c5 v=34
114165 On ch=1 n=c5 v=0
114165 On ch=1 n=c6 v=0
114240 On ch=1 n=c#6 v=34
114240 On ch=1 n=c#5 v=34
115125 On ch=1 n=c#5 v=0
115125 On ch=1 n=c#6 v=0
115200 On ch=1 n=d#6 v=34
115200 On ch=1 n=c#6 v=34
115200 On ch=1 n=d#5 v=34
116605 On ch=1 n=d#5 v=0
116605 On ch=1 n=c#6 v=0
116605 On ch=1 n=d#6 v=0
116640 On ch=1 n=d#6 v=34
116640 On ch=1 n=b5 v=34
116640 On ch=1 n=d#5 v=34
117085 On ch=1 n=d#5 v=0
117085 On ch=1 n=b5 v=0
117085 On ch=1 n=d#6 v=0
117120 On ch=1 n=e6 v=34
117120 On ch=1 n=d#6 v=34
117120 On ch=1 n=e5 v=34
117565 On ch=1 n=e5 v=0
117565 On ch=1 n=d#6 v=0
117565 On ch=1 n=e6 v=0
117600 On ch=1 n=e6 v=34
117600 On ch=1 n=c#6 v=34
117600 On ch=1 n=e5 v=34
118045 On ch=1 n=e5 v=0
118045 On ch=1 n=c#6 v=0
118045 On ch=1 n=e6 v=0
118080 On ch=1 n=d#6 v=34
118080 On ch=1 n=c#6 v=34
118080 On ch=1 n=d#5 v=34
118525 On ch=1 n=d#5 v=0
118525 On ch=1 n=c#6 v=0
118525 On ch=1 n=d#6 v=0
118560 On ch=1 n=d#6 v=34
118560 On ch=1 n=b5 v=34
118560 On ch=1 n=d#5 v=34
119005 On ch=1 n=d#5 v=0
119005 On ch=1 n=b5 v=0
119005 On ch=1 n=d#6 v=0
119040 On ch=1 n=c#6 v=34
119040 On ch=1 n=c#5 v=34
120810 On ch=1 n=c#5 v=0
120810 On ch=1 n=c#6 v=0
120960 On ch=1 n=g#5 v=34
120960 On ch=1 n=d#5 v=34
120960 On ch=1 n=b4 v=34
121845 On ch=1 n=b4 v=0
121845 On ch=1 n=d#5 v=0
121845 On ch=1 n=g#5 v=0
121920 On ch=1 n=g#5 v=34
121920 On ch=1 n=e5 v=34
121920 On ch=1 n=c#5 v=34
122365 On ch=1 n=c#5 v=0
122365 On ch=1 n=e5 v=0
122365 On ch=1 n=g#5 v=0
122400 On ch=1 n=g#5 v=34
122400 On ch=1 n=c#5 v=34
122400 On ch=1 n=a#4 v=34
122845 On ch=1 n=a#4 v=0
122845 On ch=1 n=c#5 v=0
122845 On ch=1 n=g#5 v=0
122880 On ch=1 n=g#5 v=34
122880 On ch=1 n=d#5 v=34
122880 On ch=1 n=c5 v=34
123325 On ch=1 n=c5 v=0
123325 On ch=1 n=d#5 v=0
123325 On ch=1 n=g#5 v=0
123360 On ch=1 n=g#5 v=34
123360 On ch=1 n=e5 v=34
123360 On ch=1 n=c#5 v=34
123805 On ch=1 n=c#5 v=0
123805 On ch=1 n=e5 v=0
123805 On ch=1 n=g#5 v=0
123840 On ch=1 n=g#5 v=34
123840 On ch=1 n=c#5 v=34
123840 On ch=1 n=a4 v=34
124285 On ch=1 n=a4 v=0
124285 On ch=1 n=c#5 v=0
124285 On ch=1 n=g#5 v=0
124320 On ch=1 n=g#5 v=34
124320 On ch=1 n=e5 v=34
124320 On ch=1 n=c#5 v=34
125245 On ch=1 n=c#5 v=0
125245 On ch=1 n=e5 v=0
125245 On ch=1 n=g#5 v=0
125280 On ch=1 n=g#5 v=34
125280 On ch=1 n=d#5 v=34
125280 On ch=1 n=c5 v=34
125725 On ch=1 n=c5 v=0
125725 On ch=1 n=d#5 v=0
125725 On ch=1 n=g#5 v=0
125760 On ch=1 n=g#5 v=34
125760 On ch=1 n=f#5 v=34
125760 On ch=1 n=d#5 v=34
126205 On ch=1 n=d#5 v=0
126205 On ch=1 n=f#5 v=0
126205 On ch=1 n=g#5 v=0
126240 On ch=1 n=g#5 v=34
126240 On ch=1 n=e5 v=34
126240 On ch=1 n=c#5 v=34
126685 On ch=1 n=c#5 v=0
126685 On ch=1 n=e5 v=0
126685 On ch=1 n=g#5 v=0
126720 On ch=1 n=g#5 v=34
126720 On ch=1 n=d#5 v=34
126720 On ch=1 n=c5 v=34
128490 On ch=1 n=c5 v=0
128490 On ch=1 n=d#5 v=0
128490 On ch=1 n=g#5 v=0
128640 On ch=1 n=e6 v=34
128640 On ch=1 n=d#6 v=34
128640 On ch=1 n=e5 v=34
129085 On ch=1 n=e5 v=0
129085 On ch=1 n=d#6 v=0
129085 On ch=1 n=e6 v=0
129120 On ch=1 n=e6 v=34
129120 On ch=1 n=c#6 v=34
129120 On ch=1 n=e5 v=34
129565 On ch=1 n=e5 v=0
129565 On ch=1 n=c#6 v=0
129565 On ch=1 n=e6 v=0
129600 On ch=1 n=d#6 v=34
129600 On ch=1 n=c#6 v=34
129600 On ch=1 n=d#5 v=34
130045 On ch=1 n=d#5 v=0
130045 On ch=1 n=c#6 v=0
130045 On ch=1 n=d#6 v=0
130080 On ch=1 n=d#6 v=34
130080 On ch=1 n=b5 v=34
130080 On ch=1 n=d#5 v=34
130525 On ch=1 n=d#5 v=0
130525 On ch=1 n=b5 v=0
130525 On ch=1 n=d#6 v=0
130560 On ch=1 n=d#6 v=34
130560 On ch=1 n=c#6 v=34
130560 On ch=1 n=d#5 v=34
131965 On ch=1 n=d#5 v=0
131965 On ch=1 n=c#6 v=0
131965 On ch=1 n=d#6 v=0
132000 On ch=1 n=d#6 v=34
132000 On ch=1 n=b5 v=34
132000 On ch=1 n=d#5 v=34
132445 On ch=1 n=d#5 v=0
132445 On ch=1 n=b5 v=0
132445 On ch=1 n=d#6 v=0
132480 On ch=1 n=e6 v=34
132480 On ch=1 n=d#6 v=34
132480 On ch=1 n=e5 v=34
132925 On ch=1 n=e5 v=0
132925 On ch=1 n=d#6 v=0
132925 On ch=1 n=e6 v=0
132960 On ch=1 n=e6 v=34
132960 On ch=1 n=c#6 v=34
132960 On ch=1 n=e5 v=34
133405 On ch=1 n=e5 v=0
133405 On ch=1 n=c#6 v=0
133405 On ch=1 n=e6 v=0
133440 On ch=1 n=d#6 v=34
133440 On ch=1 n=c#6 v=34
133440 On ch=1 n=d#5 v=34
133885 On ch=1 n=d#5 v=0
133885 On ch=1 n=c#6 v=0
133885 On ch=1 n=d#6 v=0
133920 On ch=1 n=d#6 v=34
133920 On ch=1 n=b5 v=34
133920 On ch=1 n=d#5 v=34
134365 On ch=1 n=d#5 v=0
134365 On ch=1 n=b5 v=0
134365 On ch=1 n=d#6 v=0
134400 On ch=1 n=c#6 v=85
134400 On ch=1 n=b5 v=85
134400 On ch=1 n=g#5 v=85
135285 On ch=1 n=g#5 v=0
135285 On ch=1 n=b5 v=0
135285 On ch=1 n=c#6 v=0
135360 On ch=1 n=c#6 v=85
135360 On ch=1 n=a5 v=85
135360 On ch=1 n=g#5 v=85
135805 On ch=1 n=g#5 v=0
135805 On ch=1 n=a5 v=0
135805 On ch=1 n=c#6 v=0
135840 On ch=1 n=c#6 v=85
135840 On ch=1 n=a5 v=85
135840 On ch=1 n=f#5 v=85
136285 On ch=1 n=f#5 v=0
136285 On ch=1 n=a5 v=0
136285 On ch=1 n=c#6 v=0
136320 On ch=1 n=g#5 v=85
136320 On ch=1 n=f#5 v=85
136320 On ch=1 n=d#5 v=85
137205 On ch=1 n=d#5 v=0
137205 On ch=1 n=f#5 v=0
137205 On ch=1 n=g#5 v=0
137280 On ch=1 n=g#5 v=85
137280 On ch=1 n=f#5 v=85
137280 On ch=1 n=c#5 v=85
137725 On ch=1 n=c#5 v=0
137725 On ch=1 n=f#5 v=0
137725 On ch=1 n=g#5 v=0
137760 On ch=1 n=a#5 v=85
137760 On ch=1 n=e5 v=85
137760 On ch=1 n=c#5 v=85
138205 On ch=1 n=c#5 v=0
138205 On ch=1 n=e5 v=0
138205 On ch=1 n=a#5 v=0
138240 On ch=1 n=a#5 v=85
138240 On ch=1 n=e5 v=85
138240 On ch=1 n=c#5 v=85
139125 On ch=1 n=c#5 v=0
139125 On ch=1 n=e5 v=0
139125 On ch=1 n=a#5 v=0
139200 On ch=1 n=g#5 v=85
139200 On ch=1 n=d#5 v=85
139200 On ch=1 n=b4 v=85
139645 On ch=1 n=b4 v=0
139645 On ch=1 n=d#5 v=0
139645 On ch=1 n=g#5 v=0
139680 On ch=1 n=a#5 v=85
139680 On ch=1 n=e5 v=85
139680 On ch=1 n=c#5 v=85
140125 On ch=1 n=c#5 v=0
140125 On ch=1 n=e5 v=0
140125 On ch=1 n=a#5 v=0
140160 On ch=1 n=a#5 v=85
140160 On ch=1 n=e5 v=85
140160 On ch=1 n=c#5 v=85
141045 On ch=1 n=c#5 v=0
141045 On ch=1 n=e5 v=0
141045 On ch=1 n=a#5 v=0
141120 On ch=1 n=g#5 v=85
141120 On ch=1 n=d#5 v=85
141120 On ch=1 n=b4 v=85
141565 On ch=1 n=b4 v=0
141565 On ch=1 n=d#5 v=0
141565 On ch=1 n=g#5 v=0
141600 On ch=1 n=a#5 v=85
141600 On ch=1 n=e5 v=85
141600 On ch=1 n=c#5 v=85
142045 On ch=1 n=c#5 v=0
142045 On ch=1 n=e5 v=0
142045 On ch=1 n=a#5 v=0
142080 On ch=1 n=a#5 v=85
142080 On ch=1 n=e5 v=85
142080 On ch=1 n=c#5 v=85
142525 On ch=1 n=c#5 v=0
142525 On ch=1 n=e5 v=0
142525 On ch=1 n=a#5 v=0
142560 On ch=1 n=g#5 v=85
142560 On ch=1 n=d#5 v=85
142560 On ch=1 n=b4 v=85
143005 On ch=1 n=b4 v=0
143005 On ch=1 n=d#5 v=0
143005 On ch=1 n=g#5 v=0
144000 KeySig -5 major
144000 On ch=1 n=c#4 v=85
144225 On ch=1 n=c#4 v=0
144240 On ch=1 n=g#4 v=85
144465 On ch=1 n=g#4 v=0
144480 On ch=1 n=c#5 v=85
144705 On ch=1 n=c#5 v=0
144720 On ch=1 n=g#4 v=85
144945 On ch=1 n=g#4 v=0
144960 On ch=1 n=g#4 v=85
145185 On ch=1 n=g#4 v=0
145200 On ch=1 n=g#4 v=85
145425 On ch=1 n=g#4 v=0
145440 On ch=1 n=c#5 v=85
145665 On ch=1 n=c#5 v=0
145680 On ch=1 n=g#4 v=85
145905 On ch=1 n=g#4 v=0
145920 On ch=1 n=d#5 v=85
146145 On ch=1 n=d#5 v=0
146160 On ch=1 n=g#4 v=85
146385 On ch=1 n=g#4 v=0
146400 On ch=1 n=g#4 v=85
146625 On ch=1 n=g#4 v=0
146640 On ch=1 n=g#4 v=85
146865 On ch=1 n=g#4 v=0
146880 On ch=1 n=a#4 v=85
147105 On ch=1 n=a#4 v=0
147120 On ch=1 n=g#4 v=85
147345 On ch=1 n=g#4 v=0
147360 On ch=1 n=c#5 v=85
147585 On ch=1 n=c#5 v=0
147600 On ch=1 n=g#4 v=85
147825 On ch=1 n=g#4 v=0
147840 On ch=1 n=c5 v=85
148065 On ch=1 n=c5 v=0
148080 On ch=1 n=g#4 v=85
148305 On ch=1 n=g#4 v=0
148320 On ch=1 n=a#5 v=85
148545 On ch=1 n=a#5 v=0
148560 On ch=1 n=g#4 v=85
148785 On ch=1 n=g#4 v=0
148800 On ch=1 n=g#4 v=85
149025 On ch=1 n=g#4 v=0
149040 On ch=1 n=g#4 v=85
149265 On ch=1 n=g#4 v=0
149280 On ch=1 n=c#5 v=85
149505 On ch=1 n=c#5 v=0
149520 On ch=1 n=g#4 v=85
149745 On ch=1 n=g#4 v=0
149760 On ch=1 n=c5 v=85
149985 On ch=1 n=c5 v=0
150000 On ch=1 n=g#4 v=85
150225 On ch=1 n=g#4 v=0
150240 On ch=1 n=f#5 v=85
150465 On ch=1 n=f#5 v=0
150480 On ch=1 n=g#4 v=85
150705 On ch=1 n=g#4 v=0
150720 On ch=1 n=c#5 v=85
150945 On ch=1 n=c#5 v=0
150960 On ch=1 n=g#4 v=85
151185 On ch=1 n=g#4 v=0
151200 On ch=1 n=c5 v=85
151425 On ch=1 n=c5 v=0
151440 On ch=1 n=g#4 v=85
151665 On ch=1 n=g#4 v=0
151680 On ch=1 n=c#4 v=85
151905 On ch=1 n=c#4 v=0
151920 On ch=1 n=g#4 v=85
152145 On ch=1 n=g#4 v=0
152160 On ch=1 n=c#5 v=85
152385 On ch=1 n=c#5 v=0
152400 On ch=1 n=g#4 v=85
152625 On ch=1 n=g#4 v=0
152640 On ch=1 n=g#4 v=85
152865 On ch=1 n=g#4 v=0
152880 On ch=1 n=g#4 v=85
153105 On ch=1 n=g#4 v=0
153120 On ch=1 n=g#4 v=85
153345 On ch=1 n=g#4 v=0
153360 On ch=1 n=g#4 v=85
153585 On ch=1 n=g#4 v=0
153600 On ch=1 n=d#5 v=85
153825 On ch=1 n=d#5 v=0
153840 On ch=1 n=g#4 v=85
154065 On ch=1 n=g#4 v=0
154080 On ch=1 n=g#4 v=85
154305 On ch=1 n=g#4 v=0
154320 On ch=1 n=g#4 v=85
154545 On ch=1 n=g#4 v=0
154560 On ch=1 n=a#4 v=85
154785 On ch=1 n=a#4 v=0
154800 On ch=1 n=g#4 v=85
155025 On ch=1 n=g#4 v=0
159600 On ch=1 n=g#4 v=85
159825 On ch=1 n=g#4 v=0
159840 On ch=1 n=g#4 v=85
160065 On ch=1 n=g#4 v=0
160080 On ch=1 n=g#4 v=85
160305 On ch=1 n=g#4 v=0
160320 On ch=1 n=g#4 v=85
160545 On ch=1 n=g#4 v=0
160560 On ch=1 n=g#4 v=85
160785 On ch=1 n=g#4 v=0
160800 On ch=1 n=g#4 v=85
161025 On ch=1 n=g#4 v=0
161040 On ch=1 n=g#4 v=85
161265 On ch=1 n=g#4 v=0
161280 On ch=1 n=g#4 v=85
161505 On ch=1 n=g#4 v=0
161520 On ch=1 n=g#4 v=85
161745 On ch=1 n=g#4 v=0
161760 On ch=1 n=g#4 v=85
161985 On ch=1 n=g#4 v=0
162000 On ch=1 n=g#4 v=85
162225 On ch=1 n=g#4 v=0
162240 On ch=1 n=g#4 v=85
162465 On ch=1 n=g#4 v=0
162480 On ch=1 n=g#4 v=85
162705 On ch=1 n=g#4 v=0
162720 On ch=1 n=g#4 v=85
162945 On ch=1 n=g#4 v=0
162960 On ch=1 n=g#4 v=85
163185 On ch=1 n=g#4 v=0
163200 On ch=1 n=g#4 v=85
163425 On ch=1 n=g#4 v=0
163440 On ch=1 n=g#4 v=85
163665 On ch=1 n=g#4 v=0
163680 On ch=1 n=g#4 v=85
163905 On ch=1 n=g#4 v=0
163920 On ch=1 n=g#4 v=85
164145 On ch=1 n=g#4 v=0
164160 On ch=1 n=g#4 v=85
164385 On ch=1 n=g#4 v=0
164400 On ch=1 n=g#4 v=85
164625 On ch=1 n=g#4 v=0
164640 On ch=1 n=g#4 v=85
164865 On ch=1 n=g#4 v=0
164880 On ch=1 n=g#4 v=85
165105 On ch=1 n=g#4 v=0
165120 On ch=1 n=g#4 v=85
165345 On ch=1 n=g#4 v=0
165360 On ch=1 n=g#4 v=85
165585 On ch=1 n=g#4 v=0
165600 On ch=1 n=g#4 v=85
165825 On ch=1 n=g#4 v=0
165840 On ch=1 n=g#4 v=85
166065 On ch=1 n=g#4 v=0
166080 On ch=1 n=g#4 v=85
166305 On ch=1 n=g#4 v=0
166320 On ch=1 n=g#4 v=85
166545 On ch=1 n=g#4 v=0
166560 On ch=1 n=g#4 v=85
166785 On ch=1 n=g#4 v=0
166800 On ch=1 n=g#4 v=85
167025 On ch=1 n=g#4 v=0
167040 On ch=1 n=g#4 v=85
167265 On ch=1 n=g#4 v=0
167280 On ch=1 n=g#4 v=85
167505 On ch=1 n=g#4 v=0
167520 On ch=1 n=g#4 v=85
167745 On ch=1 n=g#4 v=0
167760 On ch=1 n=g#4 v=85
167985 On ch=1 n=g#4 v=0
168000 On ch=1 n=g#4 v=85
168225 On ch=1 n=g#4 v=0
168240 On ch=1 n=g#4 v=85
168465 On ch=1 n=g#4 v=0
168480 On ch=1 n=g#4 v=85
168705 On ch=1 n=g#4 v=0
168720 On ch=1 n=g#4 v=85
168945 On ch=1 n=g#4 v=0
168960 On ch=1 n=g#4 v=85
170730 On ch=1 n=g#4 v=0
170880 TimeSig 5/4 24 8
170880 Meta TrkEnd
TrkEnd
