MFile 1 10 480
MTrk
0 Tempo 600000
0 TimeSig 3/4 24 8
480 Tempo 666666
960 Tempo 750000
1440 Tempo 600000
1920 Tempo 666666
2400 Tempo 750000
2880 Tempo 600000
3360 Tempo 666666
3840 Tempo 750000
4320 Tempo 600000
4800 Tempo 666666
5280 Tempo 750000
5760 Tempo 600000
6240 Tempo 666666
6720 Tempo 750000
7200 Tempo 600000
7680 Tempo 666666
8160 Tempo 750000
8640 Tempo 600000
9120 Tempo 666666
9600 Tempo 750000
10080 Tempo 600000
10560 Tempo 666666
11040 Tempo 750000
11520 Tempo 600000
12000 Tempo 666666
12480 Tempo 750000
12960 Tempo 600000
13440 Tempo 666666
13920 Tempo 750000
14400 Tempo 600000
14880 Tempo 666666
15360 Tempo 750000
15840 Tempo 600000
16320 Tempo 666666
16800 Tempo 750000
17280 Tempo 600000
17760 Tempo 666666
18240 Tempo 750000
18720 Tempo 600000
19200 Tempo 666666
19680 Tempo 750000
20160 Tempo 600000
20640 Tempo 666666
21120 Tempo 750000
21600 Tempo 600000
22080 Tempo 666666
22560 Tempo 750000
23040 Tempo 600000
23770 Tempo 666666
24480 Tempo 750000
25210 Tempo 666666
25920 Tempo 600000
26650 Tempo 666666
27360 Tempo 750000
28090 Tempo 666666
28800 Tempo 600000
29530 Tempo 666666
30240 Tempo 750000
30970 Tempo 666666
31680 Tempo 600000
32410 Tempo 666666
33120 Tempo 750000
33850 Tempo 666666
34560 Tempo 600000
35290 Tempo 666666
36000 Tempo 750000
36730 Tempo 666666
37440 Tempo 600000
38170 Tempo 666666
38880 Tempo 750000
39610 Tempo 666666
40320 Tempo 600000
41050 Tempo 666666
41760 Tempo 750000
42490 Tempo 666666
43200 Tempo 600000
43930 Tempo 666666
44640 Tempo 750000
45370 Tempo 666666
46080 Tempo 600000
46560 Tempo 666666
47040 Tempo 750000
47520 Tempo 600000
48000 Tempo 666666
48480 Tempo 750000
48960 Tempo 600000
49440 Tempo 666666
49920 Tempo 750000
50400 Tempo 600000
50880 Tempo 666666
51360 Tempo 750000
51840 Tempo 600000
52320 Tempo 666666
52800 Tempo 750000
53280 Tempo 600000
53760 Tempo 666666
54240 Tempo 750000
54720 Tempo 600000
55200 Tempo 666666
55680 Tempo 750000
56160 Tempo 600000
56640 Tempo 666666
57120 Tempo 750000
57600 Tempo 600000
58080 Tempo 666666
58560 Tempo 750000
59040 Tempo 600000
59520 Tempo 666666
60000 Tempo 750000
60480 Tempo 600000
60960 Tempo 666666
61440 Tempo 750000
61920 Tempo 600000
62400 Tempo 666666
62880 Tempo 750000
63360 Tempo 600000
63840 Tempo 666666
64320 Tempo 750000
64800 Tempo 600000
65280 Tempo 666666
65760 Tempo 750000
66240 Tempo 600000
66720 Tempo 666666
67200 Tempo 750000
67680 Tempo 600000
68160 Tempo 666666
68640 Tempo 750000
69120 Tempo 600000
69600 Tempo 666666
70080 Tempo 750000
70560 Tempo 600000
71290 Tempo 666666
72000 Tempo 750000
72730 Tempo 666666
73440 Tempo 600000
74170 Tempo 666666
74880 Tempo 750000
75610 Tempo 666666
76320 Tempo 600000
77050 Tempo 666666
77760 Tempo 750000
78490 Tempo 660534
82080 Tempo 1000000
82080 Meta TrkEnd
TrkEnd
MTrk
0 SeqSpec 43 00 01 00
0 Par ch=1 c=0 v=0
0 Par ch=1 c=7 v=103
0 Par ch=1 c=91 v=40
0 Par ch=1 c=93 v=0
0 Par ch=1 c=10 v=64
0 Meta TrkEnd
TrkEnd
MTrk
0 SeqSpec 43 00 01 00
0 Meta TrkName "Right Hand"
0 Par ch=1 c=0 v=0
0 PrCh ch=1 p=0
0 SeqSpec 4a 41 5a 5a 01 00 00 00 00 00 00 00 00 00 00 00 00 00 00 00
0 On ch=1 n=f6 v=64
0 Par ch=1 c=64 v=117
40 Par ch=1 c=64 v=118
80 Par ch=1 c=64 v=117
1440 On ch=1 n=f6 v=0
1440 On ch=1 n=d6 v=64
2160 Par ch=1 c=64 v=118
2165 Par ch=1 c=64 v=107
2170 Par ch=1 c=64 v=96
2175 Par ch=1 c=64 v=85
2180 Par ch=1 c=64 v=73
2185 Par ch=1 c=64 v=62
2190 Par ch=1 c=64 v=51
2195 Par ch=1 c=64 v=40
2200 Par ch=1 c=64 v=28
2205 Par ch=1 c=64 v=25
2210 Par ch=1 c=64 v=22
2215 Par ch=1 c=64 v=19
2220 Par ch=1 c=64 v=15
2225 Par ch=1 c=64 v=12
2230 Par ch=1 c=64 v=9
2235 Par ch=1 c=64 v=6
2240 Par ch=1 c=64 v=2
2260 Par ch=1 c=64 v=1
2280 Par ch=1 c=64 v=0
2400 On ch=1 n=d6 v=0
2400 On ch=1 n=f6 v=64
2460 On ch=1 n=f6 v=0
2460 On ch=1 n=d#6 v=64
2765 Par ch=1 c=64 v=11
2770 Par ch=1 c=64 v=22
2775 Par ch=1 c=64 v=33
2780 Par ch=1 c=64 v=44
2785 Par ch=1 c=64 v=55
2790 Par ch=1 c=64 v=66
2795 Par ch=1 c=64 v=77
2800 Par ch=1 c=64 v=89
2805 Par ch=1 c=64 v=92
2810 Par ch=1 c=64 v=95
2815 Par ch=1 c=64 v=99
2820 Par ch=1 c=64 v=102
2825 Par ch=1 c=64 v=105
2830 Par ch=1 c=64 v=109
2835 Par ch=1 c=64 v=112
2840 Par ch=1 c=64 v=116
2860 Par ch=1 c=64 v=117
2880 On ch=1 n=d#6 v=0
2880 Par ch=1 c=64 v=118
2880 On ch=1 n=d6 v=64
3000 Par ch=1 c=64 v=117
4320 On ch=1 n=d6 v=0
4320 On ch=1 n=g5 v=64
5525 Par ch=1 c=64 v=105
5530 Par ch=1 c=64 v=92
5535 Par ch=1 c=64 v=79
5540 Par ch=1 c=64 v=66
5545 Par ch=1 c=64 v=54
5550 Par ch=1 c=64 v=41
5555 Par ch=1 c=64 v=28
5560 Par ch=1 c=64 v=15
5565 Par ch=1 c=64 v=14
5570 Par ch=1 c=64 v=12
5575 Par ch=1 c=64 v=10
5580 Par ch=1 c=64 v=8
5585 Par ch=1 c=64 v=6
5590 Par ch=1 c=64 v=4
5595 Par ch=1 c=64 v=2
5600 Par ch=1 c=64 v=0
5645 Par ch=1 c=64 v=11
5650 Par ch=1 c=64 v=22
5655 Par ch=1 c=64 v=33
5660 Par ch=1 c=64 v=44
5665 Par ch=1 c=64 v=55
5670 Par ch=1 c=64 v=66
5675 Par ch=1 c=64 v=77
5680 Par ch=1 c=64 v=89
5685 Par ch=1 c=64 v=92
5690 Par ch=1 c=64 v=95
5695 Par ch=1 c=64 v=98
5700 Par ch=1 c=64 v=102
5705 Par ch=1 c=64 v=105
5710 Par ch=1 c=64 v=108
5715 Par ch=1 c=64 v=111
5720 Par ch=1 c=64 v=115
5740 Par ch=1 c=64 v=116
5760 On ch=1 n=g5 v=0
5760 Par ch=1 c=64 v=117
5760 On ch=1 n=a5 v=64
6240 On ch=1 n=a5 v=0
6240 On ch=1 n=d#6 v=65
6560 Par ch=1 c=64 v=118
6685 On ch=1 n=d#6 v=0
6720 On ch=1 n=d#6 v=53
7165 On ch=1 n=d#6 v=0
7200 On ch=1 n=d#6 v=45
7560 Par ch=1 c=64 v=117
7605 Par ch=1 c=64 v=109
7610 Par ch=1 c=64 v=101
7615 Par ch=1 c=64 v=92
7620 Par ch=1 c=64 v=84
7625 Par ch=1 c=64 v=76
7630 Par ch=1 c=64 v=67
7635 Par ch=1 c=64 v=59
7640 Par ch=1 c=64 v=50
7645 On ch=1 n=d#6 v=0
7645 Par ch=1 c=64 v=46
7650 Par ch=1 c=64 v=41
7655 Par ch=1 c=64 v=36
7660 Par ch=1 c=64 v=31
7665 Par ch=1 c=64 v=26
7670 Par ch=1 c=64 v=21
7675 Par ch=1 c=64 v=16
7680 On ch=1 n=d#6 v=64
7680 Par ch=1 c=64 v=11
7685 Par ch=1 c=64 v=10
7690 Par ch=1 c=64 v=9
7695 Par ch=1 c=64 v=8
7700 Par ch=1 c=64 v=7
7705 Par ch=1 c=64 v=6
7710 Par ch=1 c=64 v=5
7715 Par ch=1 c=64 v=4
7720 Par ch=1 c=64 v=2
7740 On ch=1 n=d#6 v=0
7740 On ch=1 n=f6 v=64
7760 Par ch=1 c=64 v=1
7800 On ch=1 n=f6 v=0
7800 On ch=1 n=d#6 v=64
7800 Par ch=1 c=64 v=0
7805 Par ch=1 c=64 v=12
7810 Par ch=1 c=64 v=25
7815 Par ch=1 c=64 v=38
7820 Par ch=1 c=64 v=51
7825 Par ch=1 c=64 v=63
7830 Par ch=1 c=64 v=76
7835 Par ch=1 c=64 v=89
7840 Par ch=1 c=64 v=102
7845 Par ch=1 c=64 v=103
7850 Par ch=1 c=64 v=105
7855 Par ch=1 c=64 v=107
7860 On ch=1 n=d#6 v=0
7860 Par ch=1 c=64 v=109
7860 On ch=1 n=d6 v=64
7865 Par ch=1 c=64 v=111
7870 Par ch=1 c=64 v=113
7875 Par ch=1 c=64 v=115
7880 Par ch=1 c=64 v=117
8160 On ch=1 n=d6 v=0
8160 On ch=1 n=d#6 v=51
8480 Par ch=1 c=64 v=116
8520 Par ch=1 c=64 v=115
8640 On ch=1 n=d#6 v=0
8640 On ch=1 n=g6 v=64
8720 Par ch=1 c=64 v=114
9445 Par ch=1 c=64 v=113
9450 Par ch=1 c=64 v=111
9455 Par ch=1 c=64 v=109
9460 Par ch=1 c=64 v=107
9465 Par ch=1 c=64 v=106
9470 Par ch=1 c=64 v=104
9475 Par ch=1 c=64 v=102
9480 Par ch=1 c=64 v=100
9485 Par ch=1 c=64 v=101
9490 Par ch=1 c=64 v=103
9495 Par ch=1 c=64 v=105
9500 Par ch=1 c=64 v=107
9505 Par ch=1 c=64 v=109
9510 Par ch=1 c=64 v=111
9515 Par ch=1 c=64 v=113
9520 Par ch=1 c=64 v=115
9645 Par ch=1 c=64 v=105
9650 Par ch=1 c=64 v=94
9655 Par ch=1 c=64 v=83
9660 Par ch=1 c=64 v=72
9665 Par ch=1 c=64 v=61
9670 Par ch=1 c=64 v=50
9675 Par ch=1 c=64 v=39
9680 Par ch=1 c=64 v=28
9685 Par ch=1 c=64 v=25
9690 Par ch=1 c=64 v=22
9695 Par ch=1 c=64 v=19
9700 Par ch=1 c=64 v=15
9705 Par ch=1 c=64 v=12
9710 Par ch=1 c=64 v=9
9715 Par ch=1 c=64 v=6
9720 Par ch=1 c=64 v=2
9740 Par ch=1 c=64 v=1
9760 Par ch=1 c=64 v=0
9925 Par ch=1 c=64 v=9
9930 Par ch=1 c=64 v=19
9935 Par ch=1 c=64 v=28
9940 Par ch=1 c=64 v=38
9945 Par ch=1 c=64 v=48
9950 Par ch=1 c=64 v=57
9955 Par ch=1 c=64 v=67
9960 On ch=1 n=g6 v=0
9960 Par ch=1 c=64 v=77
9960 On ch=1 n=f6 v=53
9965 Par ch=1 c=64 v=81
9970 Par ch=1 c=64 v=86
9975 Par ch=1 c=64 v=90
9980 Par ch=1 c=64 v=95
9985 Par ch=1 c=64 v=99
9990 Par ch=1 c=64 v=104
9995 Par ch=1 c=64 v=108
10000 Par ch=1 c=64 v=113
10010 Par ch=1 c=64 v=114
10020 Par ch=1 c=64 v=115
10030 Par ch=1 c=64 v=116
10040 Par ch=1 c=64 v=117
10080 On ch=1 n=f6 v=0
10080 On ch=1 n=d6 v=48
10760 Par ch=1 c=64 v=118
10880 Par ch=1 c=64 v=119
11005 Par ch=1 c=64 v=107
11010 Par ch=1 c=64 v=95
11015 Par ch=1 c=64 v=83
11020 Par ch=1 c=64 v=70
11025 Par ch=1 c=64 v=58
11030 Par ch=1 c=64 v=46
11035 Par ch=1 c=64 v=34
11040 On ch=1 n=d6 v=0
11040 Par ch=1 c=64 v=21
11045 Par ch=1 c=64 v=20
11050 Par ch=1 c=64 v=18
11055 Par ch=1 c=64 v=16
11060 Par ch=1 c=64 v=14
11065 Par ch=1 c=64 v=12
11070 Par ch=1 c=64 v=10
11075 Par ch=1 c=64 v=8
11080 Par ch=1 c=64 v=6
11090 Par ch=1 c=64 v=5
11095 Par ch=1 c=64 v=4
11485 Par ch=1 c=64 v=20
11490 Par ch=1 c=64 v=34
11495 Par ch=1 c=64 v=48
11500 Par ch=1 c=64 v=62
11505 Par ch=1 c=64 v=76
11510 Par ch=1 c=64 v=90
11515 Par ch=1 c=64 v=104
11520 On ch=1 n=a#6 v=79
11520 Par ch=1 c=64 v=118
11800 Par ch=1 c=64 v=117
12960 On ch=1 n=a#6 v=0
12960 On ch=1 n=a#5 v=98
14280 On ch=1 n=a#5 v=64
14285 On ch=1 n=a#5 v=0
14400 On ch=1 n=a#5 v=0
14400 On ch=1 n=g6 v=91
15240 Par ch=1 c=64 v=118
15840 On ch=1 n=g6 v=0
15840 On ch=1 n=g5 v=64
16120 Par ch=1 c=64 v=117
16285 Par ch=1 c=64 v=103
16290 Par ch=1 c=64 v=89
16295 Par ch=1 c=64 v=75
16300 Par ch=1 c=64 v=61
16305 Par ch=1 c=64 v=47
16310 Par ch=1 c=64 v=33
16315 Par ch=1 c=64 v=19
16320 On ch=1 n=g5 v=64
16320 Par ch=1 c=64 v=4
16325 On ch=1 n=g5 v=0
16380 On ch=1 n=g5 v=0
16380 On ch=1 n=a5 v=64
16410 Par ch=1 c=64 v=3
16420 Par ch=1 c=64 v=2
16430 Par ch=1 c=64 v=1
16440 On ch=1 n=a5 v=0
16440 On ch=1 n=g5 v=64
16440 Par ch=1 c=64 v=0
16500 On ch=1 n=g5 v=0
16500 On ch=1 n=f#5 v=64
16560 On ch=1 n=f#5 v=0
16560 On ch=1 n=g5 v=64
16565 Par ch=1 c=64 v=14
16570 Par ch=1 c=64 v=29
16575 Par ch=1 c=64 v=44
16580 Par ch=1 c=64 v=59
16585 Par ch=1 c=64 v=74
16590 Par ch=1 c=64 v=89
16595 Par ch=1 c=64 v=104
16600 Par ch=1 c=64 v=119
16620 On ch=1 n=g5 v=0
16620 On ch=1 n=d#6 v=64
16800 On ch=1 n=d#6 v=0
16800 On ch=1 n=c6 v=64
16880 Par ch=1 c=64 v=120
17280 On ch=1 n=c6 v=0
17280 On ch=1 n=a5 v=62
17520 On ch=1 n=a5 v=0
17520 On ch=1 n=f6 v=59
17520 On ch=1 n=d7 v=59
17725 Par ch=1 c=64 v=105
17730 Par ch=1 c=64 v=90
17735 Par ch=1 c=64 v=75
17740 Par ch=1 c=64 v=60
17745 Par ch=1 c=64 v=45
17750 Par ch=1 c=64 v=30
17755 Par ch=1 c=64 v=15
17760 On ch=1 n=d7 v=0
17760 On ch=1 n=f6 v=0
17760 On ch=1 n=g6 v=57
17760 On ch=1 n=e6 v=57
17760 Par ch=1 c=64 v=0
18000 On ch=1 n=e6 v=0
18000 On ch=1 n=g6 v=0
18000 On ch=1 n=d#6 v=56
18000 On ch=1 n=a6 v=56
18240 On ch=1 n=a6 v=0
18240 On ch=1 n=d#6 v=0
18240 On ch=1 n=d6 v=53
18240 On ch=1 n=a#6 v=53
18480 On ch=1 n=a#6 v=0
18480 On ch=1 n=d6 v=0
18480 On ch=1 n=f6 v=49
18480 On ch=1 n=c#6 v=49
18720 On ch=1 n=c#6 v=0
18720 On ch=1 n=f6 v=0
18720 On ch=1 n=c6 v=48
18720 On ch=1 n=g#6 v=48
18960 On ch=1 n=g#6 v=0
18960 On ch=1 n=c6 v=0
18960 On ch=1 n=f#6 v=46
18960 On ch=1 n=a#5 v=46
19200 On ch=1 n=a#5 v=0
19200 On ch=1 n=f#6 v=0
19200 On ch=1 n=c6 v=45
19200 On ch=1 n=a5 v=45
19440 On ch=1 n=a5 v=0
19440 On ch=1 n=c6 v=0
19440 On ch=1 n=g#5 v=43
19440 On ch=1 n=d6 v=43
19680 On ch=1 n=d6 v=0
19680 On ch=1 n=g#5 v=0
19680 On ch=1 n=g5 v=43
19680 On ch=1 n=d#6 v=43
19920 On ch=1 n=d#6 v=0
19920 On ch=1 n=g5 v=0
19920 On ch=1 n=f#5 v=41
19920 On ch=1 n=a#5 v=41
20005 Par ch=1 c=64 v=8
20010 Par ch=1 c=64 v=16
20015 Par ch=1 c=64 v=24
20020 Par ch=1 c=64 v=32
20025 Par ch=1 c=64 v=40
20030 Par ch=1 c=64 v=48
20035 Par ch=1 c=64 v=56
20040 Par ch=1 c=64 v=64
20045 Par ch=1 c=64 v=62
20050 Par ch=1 c=64 v=60
20055 Par ch=1 c=64 v=58
20060 Par ch=1 c=64 v=56
20065 Par ch=1 c=64 v=54
20070 Par ch=1 c=64 v=52
20075 Par ch=1 c=64 v=50
20080 Par ch=1 c=64 v=47
20160 On ch=1 n=a#5 v=0
20160 On ch=1 n=f#5 v=0
20400 On ch=1 n=d6 v=36
20400 On ch=1 n=f5 v=36
20640 On ch=1 n=f5 v=0
20640 On ch=1 n=d6 v=0
20640 On ch=1 n=g5 v=35
20640 On ch=1 n=e5 v=35
20880 On ch=1 n=e5 v=0
20880 On ch=1 n=g5 v=0
20880 On ch=1 n=a5 v=31
20880 On ch=1 n=d#5 v=31
21120 On ch=1 n=d#5 v=0
21120 On ch=1 n=a5 v=0
21120 On ch=1 n=d5 v=30
21120 On ch=1 n=a#5 v=30
21360 On ch=1 n=a#5 v=0
21360 On ch=1 n=d5 v=0
21360 On ch=1 n=f5 v=27
21600 On ch=1 n=f5 v=0
21600 On ch=1 n=a#4 v=25
21840 On ch=1 n=a#4 v=0
23002 Par ch=1 c=64 v=56
23007 Par ch=1 c=64 v=65
23012 Par ch=1 c=64 v=74
23017 Par ch=1 c=64 v=83
23022 Par ch=1 c=64 v=92
23027 Par ch=1 c=64 v=101
23032 Par ch=1 c=64 v=110
23037 On ch=1 n=c#6 v=101
23037 Par ch=1 c=64 v=119
23037 On ch=1 n=a#6 v=101
23037 On ch=1 n=a#5 v=101
24457 On ch=1 n=a#5 v=0
24477 On ch=1 n=a#6 v=0
24477 On ch=1 n=c#6 v=0
24477 On ch=1 n=a#5 v=87
24477 On ch=1 n=f#6 v=87
24477 On ch=1 n=f#5 v=87
25437 On ch=1 n=f#5 v=0
25437 On ch=1 n=f#6 v=0
25437 On ch=1 n=a#5 v=0
25437 On ch=1 n=b5 v=108
25437 On ch=1 n=d#6 v=108
25437 On ch=1 n=b6 v=108
25722 Par ch=1 c=64 v=105
25727 Par ch=1 c=64 v=90
25732 Par ch=1 c=64 v=75
25737 Par ch=1 c=64 v=60
25742 Par ch=1 c=64 v=45
25747 Par ch=1 c=64 v=30
25752 Par ch=1 c=64 v=15
25757 Par ch=1 c=64 v=0
25842 Par ch=1 c=64 v=2
25847 Par ch=1 c=64 v=5
25852 Par ch=1 c=64 v=7
25857 Par ch=1 c=64 v=10
25862 Par ch=1 c=64 v=12
25867 Par ch=1 c=64 v=15
25872 Par ch=1 c=64 v=17
25877 Par ch=1 c=64 v=20
25882 Par ch=1 c=64 v=32
25887 Par ch=1 c=64 v=44
25892 Par ch=1 c=64 v=57
25897 Par ch=1 c=64 v=69
25902 Par ch=1 c=64 v=81
25907 Par ch=1 c=64 v=94
25912 Par ch=1 c=64 v=106
25917 On ch=1 n=b6 v=0
25917 On ch=1 n=d#6 v=0
25917 On ch=1 n=b5 v=0
25917 On ch=1 n=a#5 v=102
25917 On ch=1 n=c#6 v=102
25917 On ch=1 n=a#6 v=102
25917 Par ch=1 c=64 v=119
27337 On ch=1 n=a#5 v=0
27357 On ch=1 n=a#6 v=0
27357 On ch=1 n=c#6 v=0
27357 On ch=1 n=a#5 v=92
27357 On ch=1 n=f#6 v=92
27357 On ch=1 n=f#5 v=92
28519 Par ch=1 c=64 v=116
28524 Par ch=1 c=64 v=112
28529 Par ch=1 c=64 v=109
28534 Par ch=1 c=64 v=105
28539 Par ch=1 c=64 v=102
28544 Par ch=1 c=64 v=98
28549 Par ch=1 c=64 v=95
28554 Par ch=1 c=64 v=91
28559 Par ch=1 c=64 v=82
28564 Par ch=1 c=64 v=72
28569 Par ch=1 c=64 v=63
28574 Par ch=1 c=64 v=53
28579 Par ch=1 c=64 v=43
28584 Par ch=1 c=64 v=34
28589 Par ch=1 c=64 v=24
28594 Par ch=1 c=64 v=14
28599 Par ch=1 c=64 v=10
28604 Par ch=1 c=64 v=11
28609 Par ch=1 c=64 v=9
28614 Par ch=1 c=64 v=7
28619 Par ch=1 c=64 v=6
28624 Par ch=1 c=64 v=4
28629 Par ch=1 c=64 v=2
28634 Par ch=1 c=64 v=0
28679 Par ch=1 c=64 v=2
28684 Par ch=1 c=64 v=4
28689 Par ch=1 c=64 v=6
28694 Par ch=1 c=64 v=8
28699 Par ch=1 c=64 v=10
28704 Par ch=1 c=64 v=12
28709 Par ch=1 c=64 v=14
28714 Par ch=1 c=64 v=17
28719 Par ch=1 c=64 v=28
28724 Par ch=1 c=64 v=39
28729 Par ch=1 c=64 v=50
28734 Par ch=1 c=64 v=61
28739 Par ch=1 c=64 v=72
28744 Par ch=1 c=64 v=83
28749 Par ch=1 c=64 v=94
28754 Par ch=1 c=64 v=106
28759 Par ch=1 c=64 v=107
28764 Par ch=1 c=64 v=109
28769 Par ch=1 c=64 v=110
28774 On ch=1 n=a#5 v=0
28774 Par ch=1 c=64 v=112
28779 Par ch=1 c=64 v=114
28784 Par ch=1 c=64 v=115
28789 Par ch=1 c=64 v=117
28794 On ch=1 n=f#5 v=0
28794 On ch=1 n=f#6 v=0
28794 Par ch=1 c=64 v=119
28794 On ch=1 n=c#7 v=104
28794 On ch=1 n=c#6 v=104
28794 On ch=1 n=a#6 v=104
29039 Par ch=1 c=64 v=114
29044 Par ch=1 c=64 v=108
29049 Par ch=1 c=64 v=103
29054 Par ch=1 c=64 v=97
29059 Par ch=1 c=64 v=91
29064 Par ch=1 c=64 v=86
29069 Par ch=1 c=64 v=80
29074 Par ch=1 c=64 v=74
29079 Par ch=1 c=64 v=65
29084 Par ch=1 c=64 v=56
29089 Par ch=1 c=64 v=47
29739 On ch=1 n=a#6 v=0
29754 On ch=1 n=c#6 v=0
29754 On ch=1 n=c#7 v=0
29754 On ch=1 n=a#5 v=95
29754 On ch=1 n=a#6 v=95
29754 On ch=1 n=f#6 v=95
30214 On ch=1 n=f#6 v=0
30214 On ch=1 n=a#6 v=0
30234 On ch=1 n=a#5 v=0
30234 On ch=1 n=f#6 v=114
30234 On ch=1 n=f#7 v=114
30234 On ch=1 n=a#6 v=114
31179 On ch=1 n=a#6 v=0
31179 On ch=1 n=f#6 v=0
31194 On ch=1 n=f#7 v=0
31194 On ch=1 n=a#6 v=101
31194 On ch=1 n=c#6 v=101
31194 On ch=1 n=c#7 v=101
31439 Par ch=1 c=64 v=118
31444 Par ch=1 c=64 v=116
31449 Par ch=1 c=64 v=114
31454 Par ch=1 c=64 v=112
31459 Par ch=1 c=64 v=111
31464 Par ch=1 c=64 v=109
31469 Par ch=1 c=64 v=107
31474 Par ch=1 c=64 v=105
31479 Par ch=1 c=64 v=92
31484 Par ch=1 c=64 v=79
31489 Par ch=1 c=64 v=66
31494 Par ch=1 c=64 v=53
31499 Par ch=1 c=64 v=40
31504 Par ch=1 c=64 v=27
31509 Par ch=1 c=64 v=14
31514 Par ch=1 c=64 v=0
31599 Par ch=1 c=64 v=2
31604 Par ch=1 c=64 v=5
31609 Par ch=1 c=64 v=7
31614 Par ch=1 c=64 v=10
31619 Par ch=1 c=64 v=12
31624 Par ch=1 c=64 v=15
31629 Par ch=1 c=64 v=17
31634 Par ch=1 c=64 v=20
31639 Par ch=1 c=64 v=32
31644 Par ch=1 c=64 v=44
31649 Par ch=1 c=64 v=57
31654 On ch=1 n=a#6 v=0
31654 Par ch=1 c=64 v=69
31659 Par ch=1 c=64 v=81
31664 Par ch=1 c=64 v=94
31669 Par ch=1 c=64 v=106
31674 On ch=1 n=c#7 v=0
31674 On ch=1 n=c#6 v=0
31674 On ch=1 n=b5 v=95
31674 On ch=1 n=b6 v=95
31674 On ch=1 n=g#6 v=95
31674 Par ch=1 c=64 v=119
31734 On ch=1 n=g#6 v=96
31734 On ch=1 n=b5 v=96
31734 On ch=1 n=b6 v=96
31739 On ch=1 n=g#6 v=0
31739 On ch=1 n=b6 v=0
31739 On ch=1 n=b5 v=0
32154 On ch=1 n=b6 v=0
32154 On ch=1 n=b5 v=0
32154 On ch=1 n=g#6 v=0
32154 On ch=1 n=f#6 v=89
32154 On ch=1 n=a#5 v=89
32154 On ch=1 n=a#6 v=89
32634 On ch=1 n=a#6 v=0
32634 On ch=1 n=a#5 v=0
32634 On ch=1 n=f#6 v=0
34399 Par ch=1 c=64 v=105
34404 Par ch=1 c=64 v=91
34409 Par ch=1 c=64 v=76
34414 Par ch=1 c=64 v=62
34419 Par ch=1 c=64 v=48
34424 Par ch=1 c=64 v=33
34429 Par ch=1 c=64 v=19
34434 Par ch=1 c=64 v=4
34494 Par ch=1 c=64 v=5
34514 Par ch=1 c=64 v=6
34519 Par ch=1 c=64 v=20
34524 Par ch=1 c=64 v=34
34529 Par ch=1 c=64 v=48
34534 Par ch=1 c=64 v=62
34539 Par ch=1 c=64 v=76
34544 Par ch=1 c=64 v=90
34549 Par ch=1 c=64 v=104
34554 On ch=1 n=a#6 v=52
34554 On ch=1 n=a#5 v=52
34554 On ch=1 n=c#6 v=52
34554 Par ch=1 c=64 v=119
34594 Par ch=1 c=64 v=118
34634 Par ch=1 c=64 v=119
35974 On ch=1 n=a#5 v=0
35994 On ch=1 n=c#6 v=0
35994 On ch=1 n=a#6 v=0
35994 On ch=1 n=a#5 v=47
35994 On ch=1 n=f#6 v=47
35994 On ch=1 n=f#5 v=47
36954 On ch=1 n=f#5 v=0
36954 On ch=1 n=f#6 v=0
36954 On ch=1 n=a#5 v=0
36954 On ch=1 n=b6 v=64
36954 On ch=1 n=d#6 v=64
36954 On ch=1 n=b5 v=64
37239 Par ch=1 c=64 v=105
37244 Par ch=1 c=64 v=90
37249 Par ch=1 c=64 v=75
37254 Par ch=1 c=64 v=60
37259 Par ch=1 c=64 v=45
37264 Par ch=1 c=64 v=30
37269 Par ch=1 c=64 v=15
37274 Par ch=1 c=64 v=0
37399 Par ch=1 c=64 v=14
37404 Par ch=1 c=64 v=29
37409 Par ch=1 c=64 v=44
37414 Par ch=1 c=64 v=59
37419 Par ch=1 c=64 v=74
37424 Par ch=1 c=64 v=89
37429 Par ch=1 c=64 v=104
37434 On ch=1 n=b5 v=0
37434 On ch=1 n=d#6 v=0
37434 On ch=1 n=b6 v=0
37434 On ch=1 n=a#5 v=57
37434 On ch=1 n=a#6 v=57
37434 Par ch=1 c=64 v=119
37434 On ch=1 n=c#6 v=57
38854 On ch=1 n=a#5 v=0
38874 On ch=1 n=c#6 v=0
38874 On ch=1 n=a#6 v=0
38874 On ch=1 n=f#5 v=64
38874 On ch=1 n=a#5 v=64
38874 On ch=1 n=f#6 v=64
40154 Par ch=1 c=64 v=105
40159 Par ch=1 c=64 v=90
40164 Par ch=1 c=64 v=75
40169 Par ch=1 c=64 v=60
40174 Par ch=1 c=64 v=45
40179 Par ch=1 c=64 v=30
40184 Par ch=1 c=64 v=15
40189 Par ch=1 c=64 v=0
40294 On ch=1 n=a#5 v=0
40314 On ch=1 n=f#6 v=0
40314 On ch=1 n=f#5 v=0
40314 Par ch=1 c=64 v=20
40314 On ch=1 n=c#7 v=54
40314 On ch=1 n=c#6 v=54
40314 On ch=1 n=a#6 v=54
40319 Par ch=1 c=64 v=34
40324 Par ch=1 c=64 v=48
40329 Par ch=1 c=64 v=62
40334 Par ch=1 c=64 v=76
40339 Par ch=1 c=64 v=90
40344 Par ch=1 c=64 v=104
40349 Par ch=1 c=64 v=119
41259 On ch=1 n=a#6 v=0
41274 On ch=1 n=c#6 v=0
41274 On ch=1 n=c#7 v=0
41274 On ch=1 n=a#6 v=48
41274 On ch=1 n=f#6 v=48
41274 On ch=1 n=a#5 v=48
41734 On ch=1 n=f#6 v=0
41734 On ch=1 n=a#6 v=0
41754 On ch=1 n=a#5 v=0
41754 On ch=1 n=a#6 v=64
41754 On ch=1 n=f#6 v=64
41754 On ch=1 n=f#7 v=64
42699 On ch=1 n=f#6 v=0
42699 On ch=1 n=a#6 v=0
42714 On ch=1 n=f#7 v=0
42714 On ch=1 n=c#7 v=64
42714 On ch=1 n=a#6 v=64
42714 On ch=1 n=c#6 v=64
43034 Par ch=1 c=64 v=105
43039 Par ch=1 c=64 v=90
43044 Par ch=1 c=64 v=75
43049 Par ch=1 c=64 v=60
43054 Par ch=1 c=64 v=45
43059 Par ch=1 c=64 v=30
43064 Par ch=1 c=64 v=15
43069 Par ch=1 c=64 v=0
43174 On ch=1 n=a#6 v=0
43194 On ch=1 n=a#6 v=56
43194 On ch=1 n=c#6 v=56
43194 On ch=1 n=c#7 v=56
43199 On ch=1 n=c#7 v=0
43199 On ch=1 n=c#6 v=0
43199 On ch=1 n=a#6 v=0
43199 On ch=1 n=c#6 v=0
43199 On ch=1 n=c#7 v=0
43254 On ch=1 n=b5 v=54
43254 On ch=1 n=g#6 v=54
43254 On ch=1 n=b6 v=54
43674 On ch=1 n=b6 v=0
43674 On ch=1 n=g#6 v=0
43674 On ch=1 n=b5 v=0
43674 On ch=1 n=a#5 v=46
43674 On ch=1 n=f#6 v=46
43674 On ch=1 n=a#6 v=46
44154 On ch=1 n=a#6 v=0
44154 On ch=1 n=f#6 v=0
44154 On ch=1 n=a#5 v=0
46074 On ch=1 n=f6 v=87
46074 Par ch=1 c=64 v=114
46314 On ch=1 n=f5 v=45
46554 On ch=1 n=f5 v=0
46554 On ch=1 n=f6 v=0
46554 On ch=1 n=g5 v=47
46554 On ch=1 n=e5 v=47
46639 Par ch=1 c=64 v=100
46644 Par ch=1 c=64 v=86
46649 Par ch=1 c=64 v=72
46654 Par ch=1 c=64 v=57
46659 Par ch=1 c=64 v=43
46664 Par ch=1 c=64 v=29
46669 Par ch=1 c=64 v=15
46674 Par ch=1 c=64 v=0
46794 On ch=1 n=e5 v=0
46794 On ch=1 n=g5 v=0
46794 On ch=1 n=a5 v=49
46794 On ch=1 n=d#5 v=49
47034 On ch=1 n=d#5 v=0
47034 On ch=1 n=a5 v=0
47034 On ch=1 n=d5 v=52
47034 On ch=1 n=a#5 v=52
47274 On ch=1 n=a#5 v=0
47274 On ch=1 n=d5 v=0
47274 On ch=1 n=c6 v=54
47274 On ch=1 n=c5 v=54
47479 Par ch=1 c=64 v=14
47484 Par ch=1 c=64 v=29
47489 Par ch=1 c=64 v=43
47494 Par ch=1 c=64 v=58
47499 Par ch=1 c=64 v=73
47504 Par ch=1 c=64 v=87
47509 Par ch=1 c=64 v=102
47514 On ch=1 n=c5 v=0
47514 On ch=1 n=c6 v=0
47514 On ch=1 n=d6 v=58
47514 Par ch=1 c=64 v=117
47754 On ch=1 n=f5 v=60
47994 On ch=1 n=f5 v=0
47994 On ch=1 n=d6 v=0
47994 On ch=1 n=g5 v=63
47994 On ch=1 n=e5 v=63
48039 Par ch=1 c=64 v=103
48044 Par ch=1 c=64 v=88
48049 Par ch=1 c=64 v=74
48054 Par ch=1 c=64 v=59
48059 Par ch=1 c=64 v=44
48064 Par ch=1 c=64 v=30
48069 Par ch=1 c=64 v=15
48074 Par ch=1 c=64 v=0
48234 On ch=1 n=e5 v=0
48234 On ch=1 n=g5 v=0
48234 On ch=1 n=a5 v=64
48234 On ch=1 n=d#5 v=64
48474 On ch=1 n=d#5 v=0
48474 On ch=1 n=a5 v=0
48474 On ch=1 n=d5 v=65
48474 On ch=1 n=a#5 v=65
48714 On ch=1 n=a#5 v=0
48714 On ch=1 n=d5 v=0
48714 On ch=1 n=d6 v=68
48954 On ch=1 n=d6 v=0
48954 On ch=1 n=g6 v=102
48954 Par ch=1 c=64 v=114
49194 On ch=1 n=g5 v=71
49434 On ch=1 n=g5 v=0
49434 On ch=1 n=g6 v=0
49434 On ch=1 n=f#5 v=73
49434 On ch=1 n=a5 v=73
49519 Par ch=1 c=64 v=100
49524 Par ch=1 c=64 v=86
49529 Par ch=1 c=64 v=72
49534 Par ch=1 c=64 v=57
49539 Par ch=1 c=64 v=43
49544 Par ch=1 c=64 v=29
49549 Par ch=1 c=64 v=15
49554 Par ch=1 c=64 v=0
49674 On ch=1 n=a5 v=0
49674 On ch=1 n=f#5 v=0
49674 On ch=1 n=f5 v=75
49674 On ch=1 n=b5 v=75
49914 On ch=1 n=b5 v=0
49914 On ch=1 n=f5 v=0
49914 On ch=1 n=c6 v=76
49914 On ch=1 n=d#5 v=76
50154 On ch=1 n=d#5 v=0
50154 On ch=1 n=c6 v=0
50154 On ch=1 n=d5 v=78
50154 On ch=1 n=d6 v=78
50394 On ch=1 n=d6 v=0
50394 On ch=1 n=d5 v=0
50394 Par ch=1 c=64 v=114
50394 On ch=1 n=d#6 v=80
50634 On ch=1 n=g5 v=82
50874 On ch=1 n=g5 v=0
50874 On ch=1 n=d#6 v=0
50874 On ch=1 n=a5 v=84
50874 On ch=1 n=f#5 v=84
50959 Par ch=1 c=64 v=100
50964 Par ch=1 c=64 v=86
50969 Par ch=1 c=64 v=72
50974 Par ch=1 c=64 v=57
50979 Par ch=1 c=64 v=43
50984 Par ch=1 c=64 v=29
50989 Par ch=1 c=64 v=15
50994 Par ch=1 c=64 v=0
51114 On ch=1 n=f#5 v=0
51114 On ch=1 n=a5 v=0
51114 On ch=1 n=f5 v=85
51114 On ch=1 n=b5 v=85
51354 On ch=1 n=b5 v=0
51354 On ch=1 n=f5 v=0
51354 On ch=1 n=c6 v=87
51354 On ch=1 n=d#5 v=87
51594 On ch=1 n=d#5 v=0
51594 On ch=1 n=c6 v=0
51594 On ch=1 n=d#6 v=90
51834 On ch=1 n=d#6 v=0
51834 On ch=1 n=a6 v=122
51834 Par ch=1 c=64 v=114
52074 On ch=1 n=a5 v=96
52314 On ch=1 n=a5 v=0
52314 On ch=1 n=a6 v=0
52314 On ch=1 n=g#5 v=97
52314 On ch=1 n=b5 v=97
52359 Par ch=1 c=64 v=1
52364 Par ch=1 c=64 v=3
52369 Par ch=1 c=64 v=5
52374 Par ch=1 c=64 v=7
52379 Par ch=1 c=64 v=9
52384 Par ch=1 c=64 v=11
52389 Par ch=1 c=64 v=10
52394 Par ch=1 c=64 v=15
52399 Par ch=1 c=64 v=14
52404 Par ch=1 c=64 v=12
52409 Par ch=1 c=64 v=10
52414 Par ch=1 c=64 v=8
52419 Par ch=1 c=64 v=6
52424 Par ch=1 c=64 v=4
52429 Par ch=1 c=64 v=2
52434 Par ch=1 c=64 v=0
52554 On ch=1 n=b5 v=0
52554 On ch=1 n=g#5 v=0
52554 On ch=1 n=c#6 v=101
52554 On ch=1 n=g5 v=101
52794 On ch=1 n=g5 v=0
52794 On ch=1 n=c#6 v=0
52794 On ch=1 n=f5 v=103
52794 On ch=1 n=d6 v=103
53034 On ch=1 n=d6 v=0
53034 On ch=1 n=f5 v=0
53034 On ch=1 n=f6 v=106
53199 Par ch=1 c=64 v=12
53204 Par ch=1 c=64 v=24
53209 Par ch=1 c=64 v=37
53214 Par ch=1 c=64 v=49
53219 Par ch=1 c=64 v=61
53224 Par ch=1 c=64 v=74
53229 Par ch=1 c=64 v=86
53234 Par ch=1 c=64 v=99
53239 Par ch=1 c=64 v=100
53244 Par ch=1 c=64 v=102
53249 Par ch=1 c=64 v=104
53254 Par ch=1 c=64 v=106
53259 Par ch=1 c=64 v=108
53264 Par ch=1 c=64 v=110
53269 Par ch=1 c=64 v=112
53274 On ch=1 n=f6 v=0
53274 On ch=1 n=a#6 v=125
53274 Par ch=1 c=64 v=114
53514 On ch=1 n=a#5 v=113
53754 On ch=1 n=a#5 v=0
53754 On ch=1 n=a#6 v=0
53754 On ch=1 n=a5 v=117
53754 On ch=1 n=c6 v=117
53759 Par ch=1 c=64 v=104
53764 Par ch=1 c=64 v=93
53769 Par ch=1 c=64 v=82
53774 Par ch=1 c=64 v=71
53779 Par ch=1 c=64 v=61
53784 Par ch=1 c=64 v=50
53789 Par ch=1 c=64 v=39
53794 Par ch=1 c=64 v=28
53799 Par ch=1 c=64 v=25
53804 Par ch=1 c=64 v=22
53809 Par ch=1 c=64 v=19
53814 Par ch=1 c=64 v=15
53819 Par ch=1 c=64 v=12
53824 Par ch=1 c=64 v=9
53829 Par ch=1 c=64 v=6
53834 Par ch=1 c=64 v=2
53854 Par ch=1 c=64 v=1
53874 Par ch=1 c=64 v=0
53994 On ch=1 n=c6 v=0
53994 On ch=1 n=a5 v=0
53994 On ch=1 n=g#5 v=120
53994 On ch=1 n=d6 v=120
54234 On ch=1 n=d6 v=0
54234 On ch=1 n=g#5 v=0
54234 On ch=1 n=d#6 v=122
54234 On ch=1 n=g5 v=122
54474 On ch=1 n=g5 v=0
54474 On ch=1 n=d#6 v=0
54474 On ch=1 n=f#6 v=125
54474 On ch=1 n=f#5 v=125
54529 Par ch=1 c=64 v=1
54544 Par ch=1 c=64 v=2
54554 Par ch=1 c=64 v=3
54594 Par ch=1 c=64 v=4
54639 Par ch=1 c=64 v=18
54644 Par ch=1 c=64 v=33
54649 Par ch=1 c=64 v=47
54654 Par ch=1 c=64 v=62
54659 Par ch=1 c=64 v=76
54664 Par ch=1 c=64 v=91
54669 Par ch=1 c=64 v=105
54674 Par ch=1 c=64 v=120
54714 On ch=1 n=f#5 v=0
54714 On ch=1 n=f#6 v=0
54954 On ch=1 n=f6 v=112
55194 On ch=1 n=f6 v=0
55194 On ch=1 n=a#6 v=124
55194 On ch=1 n=d#7 v=124
55194 On ch=1 n=f#6 v=124
55434 On ch=1 n=f#6 v=0
55434 On ch=1 n=d#7 v=0
55434 On ch=1 n=a#6 v=0
55434 On ch=1 n=f6 v=111
55674 On ch=1 n=f6 v=0
55674 On ch=1 n=f#6 v=124
55674 On ch=1 n=a#6 v=124
55674 On ch=1 n=d#7 v=124
55914 On ch=1 n=d#7 v=0
55914 On ch=1 n=a#6 v=0
55914 On ch=1 n=f#6 v=0
55914 On ch=1 n=f6 v=109
56154 On ch=1 n=f6 v=0
56154 On ch=1 n=d#7 v=125
56154 On ch=1 n=a#6 v=125
56154 On ch=1 n=f#6 v=125
56394 On ch=1 n=f#6 v=0
56394 On ch=1 n=a#6 v=0
56394 On ch=1 n=d#7 v=0
56394 On ch=1 n=f6 v=109
56634 On ch=1 n=f6 v=0
56634 On ch=1 n=a#6 v=125
56634 On ch=1 n=f#6 v=125
56634 On ch=1 n=d#7 v=125
56874 On ch=1 n=d#7 v=0
56874 On ch=1 n=f#6 v=0
56874 On ch=1 n=a#6 v=0
56874 On ch=1 n=f6 v=109
57114 On ch=1 n=f6 v=0
57114 On ch=1 n=d#7 v=124
57114 On ch=1 n=a#6 v=124
57114 On ch=1 n=f#6 v=124
57354 On ch=1 n=f#6 v=0
57354 On ch=1 n=a#6 v=0
57354 On ch=1 n=d#7 v=0
57354 On ch=1 n=f6 v=109
57474 Par ch=1 c=64 v=119
57479 Par ch=1 c=64 v=105
57484 Par ch=1 c=64 v=91
57489 Par ch=1 c=64 v=77
57494 Par ch=1 c=64 v=63
57499 Par ch=1 c=64 v=49
57504 Par ch=1 c=64 v=35
57509 Par ch=1 c=64 v=21
57514 Par ch=1 c=64 v=6
57534 Par ch=1 c=64 v=5
57554 Par ch=1 c=64 v=4
57594 On ch=1 n=f6 v=0
57594 On ch=1 n=d#7 v=123
57594 On ch=1 n=f#6 v=123
57834 On ch=1 n=f#6 v=0
57834 On ch=1 n=d#7 v=0
57834 On ch=1 n=f6 v=119
57834 On ch=1 n=d7 v=119
58074 On ch=1 n=d7 v=0
58074 On ch=1 n=f6 v=0
58074 On ch=1 n=e6 v=117
58074 On ch=1 n=g6 v=117
58314 On ch=1 n=g6 v=0
58314 On ch=1 n=e6 v=0
58314 On ch=1 n=a6 v=113
58314 On ch=1 n=d#6 v=113
58554 On ch=1 n=d#6 v=0
58554 On ch=1 n=a6 v=0
58554 On ch=1 n=a#6 v=109
58554 On ch=1 n=d6 v=109
58794 On ch=1 n=d6 v=0
58794 On ch=1 n=a#6 v=0
58794 On ch=1 n=c#6 v=106
58794 On ch=1 n=f6 v=106
59034 On ch=1 n=f6 v=0
59034 On ch=1 n=c#6 v=0
59034 On ch=1 n=g#6 v=102
59034 On ch=1 n=c6 v=102
59274 On ch=1 n=c6 v=0
59274 On ch=1 n=g#6 v=0
59274 On ch=1 n=a#5 v=100
59274 On ch=1 n=f#6 v=100
59514 On ch=1 n=f#6 v=0
59514 On ch=1 n=a#5 v=0
59514 On ch=1 n=c6 v=97
59514 On ch=1 n=a5 v=97
59754 On ch=1 n=a5 v=0
59754 On ch=1 n=c6 v=0
59754 On ch=1 n=g#5 v=95
59754 On ch=1 n=d6 v=95
59994 On ch=1 n=d6 v=0
59994 On ch=1 n=g#5 v=0
59994 On ch=1 n=g5 v=93
59994 On ch=1 n=d#6 v=93
60234 On ch=1 n=d#6 v=0
60234 On ch=1 n=g5 v=0
60234 On ch=1 n=a#5 v=87
60234 On ch=1 n=f#5 v=87
60474 On ch=1 n=f#5 v=0
60474 On ch=1 n=a#5 v=0
60474 On ch=1 n=c#6 v=84
60474 On ch=1 n=f5 v=84
60714 On ch=1 n=f5 v=0
60714 On ch=1 n=c#6 v=0
60714 On ch=1 n=c6 v=82
60714 On ch=1 n=e5 v=82
60954 On ch=1 n=e5 v=0
60954 On ch=1 n=c6 v=0
60954 On ch=1 n=d#5 v=80
60954 On ch=1 n=g5 v=80
61194 On ch=1 n=g5 v=0
61194 On ch=1 n=d#5 v=0
61194 On ch=1 n=g#5 v=75
61194 On ch=1 n=d5 v=75
61434 On ch=1 n=d5 v=0
61434 On ch=1 n=g#5 v=0
61434 On ch=1 n=c#5 v=74
61434 On ch=1 n=a5 v=74
61674 On ch=1 n=a5 v=0
61674 On ch=1 n=c#5 v=0
61674 On ch=1 n=c5 v=70
61674 On ch=1 n=d#5 v=70
61914 On ch=1 n=d#5 v=0
61914 On ch=1 n=c5 v=0
61914 On ch=1 n=a#4 v=65
61914 On ch=1 n=f#5 v=65
62154 On ch=1 n=f#5 v=0
62154 On ch=1 n=a#4 v=0
62154 On ch=1 n=a4 v=62
62154 On ch=1 n=f5 v=62
62394 On ch=1 n=f5 v=0
62394 On ch=1 n=a4 v=0
62394 On ch=1 n=g#4 v=57
62394 On ch=1 n=c5 v=57
62634 On ch=1 n=c5 v=0
62634 On ch=1 n=g#4 v=0
62634 On ch=1 n=g4 v=53
62634 On ch=1 n=d5 v=53
62874 On ch=1 n=d5 v=0
62874 On ch=1 n=g4 v=0
62874 On ch=1 n=f#4 v=75
62874 On ch=1 n=d#5 v=75
63114 On ch=1 n=f#4 v=0
63114 On ch=1 n=a4 v=46
63114 On ch=1 n=f4 v=46
63319 Par ch=1 c=64 v=15
63324 Par ch=1 c=64 v=30
63329 Par ch=1 c=64 v=45
63334 On ch=1 n=f4 v=0
63334 Par ch=1 c=64 v=60
63339 Par ch=1 c=64 v=75
63344 Par ch=1 c=64 v=90
63349 Par ch=1 c=64 v=105
63354 On ch=1 n=a4 v=0
63354 On ch=1 n=d#5 v=0
63354 On ch=1 n=d5 v=43
63354 Par ch=1 c=64 v=120
63354 On ch=1 n=a#4 v=43
63354 On ch=1 n=f4 v=43
63394 Par ch=1 c=64 v=119
63574 On ch=1 n=f4 v=0
63594 On ch=1 n=a#4 v=0
63594 On ch=1 n=d5 v=0
63834 Par ch=1 c=64 v=120
63894 Par ch=1 c=64 v=121
63914 Par ch=1 c=64 v=122
64039 Par ch=1 c=64 v=108
64044 Par ch=1 c=64 v=93
64049 Par ch=1 c=64 v=79
64054 Par ch=1 c=64 v=64
64059 Par ch=1 c=64 v=49
64064 Par ch=1 c=64 v=35
64069 Par ch=1 c=64 v=20
64074 Par ch=1 c=64 v=5
64794 Par ch=1 c=64 v=114
65034 On ch=1 n=f#5 v=81
65034 On ch=1 n=d#6 v=81
65274 On ch=1 n=d#6 v=0
65274 On ch=1 n=f#5 v=0
65274 On ch=1 n=a5 v=74
65274 On ch=1 n=f5 v=74
65359 Par ch=1 c=64 v=100
65364 Par ch=1 c=64 v=86
65369 Par ch=1 c=64 v=72
65374 Par ch=1 c=64 v=57
65379 Par ch=1 c=64 v=43
65384 Par ch=1 c=64 v=29
65389 Par ch=1 c=64 v=15
65394 Par ch=1 c=64 v=0
65514 On ch=1 n=f5 v=0
65514 On ch=1 n=a5 v=0
65514 On ch=1 n=e5 v=67
65514 On ch=1 n=a#5 v=67
65754 On ch=1 n=a#5 v=0
65754 On ch=1 n=e5 v=0
65754 On ch=1 n=c6 v=60
65754 On ch=1 n=d#5 v=60
65994 On ch=1 n=d#5 v=0
65994 On ch=1 n=g5 v=53
66234 On ch=1 n=g5 v=0
66234 On ch=1 n=c6 v=0
66234 On ch=1 n=d5 v=47
66234 On ch=1 n=f5 v=47
66234 On ch=1 n=a#5 v=47
66234 Par ch=1 c=64 v=114
66234 On ch=1 n=d6 v=47
66714 On ch=1 n=d6 v=0
66714 On ch=1 n=a#5 v=0
66714 On ch=1 n=f5 v=0
66714 On ch=1 n=d5 v=0
66799 Par ch=1 c=64 v=100
66804 Par ch=1 c=64 v=86
66809 Par ch=1 c=64 v=72
66814 Par ch=1 c=64 v=57
66819 Par ch=1 c=64 v=43
66824 Par ch=1 c=64 v=29
66829 Par ch=1 c=64 v=15
66834 Par ch=1 c=64 v=0
67674 Par ch=1 c=64 v=114
67914 On ch=1 n=f#5 v=78
67914 On ch=1 n=d#6 v=78
68154 On ch=1 n=d#6 v=0
68154 On ch=1 n=f#5 v=0
68154 On ch=1 n=a5 v=70
68154 On ch=1 n=f5 v=70
68239 Par ch=1 c=64 v=100
68244 Par ch=1 c=64 v=86
68249 Par ch=1 c=64 v=72
68254 Par ch=1 c=64 v=57
68259 Par ch=1 c=64 v=43
68264 Par ch=1 c=64 v=29
68269 Par ch=1 c=64 v=15
68274 Par ch=1 c=64 v=0
68394 On ch=1 n=f5 v=0
68394 On ch=1 n=a5 v=0
68394 On ch=1 n=a#5 v=64
68394 On ch=1 n=e5 v=64
68634 On ch=1 n=e5 v=0
68634 On ch=1 n=a#5 v=0
68634 On ch=1 n=d#5 v=58
68634 On ch=1 n=c6 v=58
68874 On ch=1 n=d#5 v=0
68874 On ch=1 n=g5 v=53
69114 On ch=1 n=g5 v=0
69114 On ch=1 n=c6 v=0
69114 On ch=1 n=d6 v=48
69114 On ch=1 n=a#5 v=48
69594 On ch=1 n=a#5 v=0
69594 On ch=1 n=d6 v=0
70554 On ch=1 n=d5 v=84
70554 On ch=1 n=g5 v=84
70554 On ch=1 n=g4 v=84
70554 On ch=1 n=a#4 v=84
70554 Par ch=1 c=64 v=114
71119 Par ch=1 c=64 v=100
71124 Par ch=1 c=64 v=86
71129 Par ch=1 c=64 v=72
71134 Par ch=1 c=64 v=57
71139 Par ch=1 c=64 v=43
71144 Par ch=1 c=64 v=29
71149 Par ch=1 c=64 v=15
71154 Par ch=1 c=64 v=0
71274 On ch=1 n=a#4 v=0
71274 On ch=1 n=d5 v=0
71274 On ch=1 n=c5 v=64
71514 On ch=1 n=c5 v=0
71514 On ch=1 n=d#5 v=64
71754 On ch=1 n=d#5 v=0
71754 On ch=1 n=d5 v=64
71974 On ch=1 n=d5 v=0
71994 On ch=1 n=g4 v=0
71994 On ch=1 n=g5 v=0
71994 On ch=1 n=f5 v=64
71994 On ch=1 n=d5 v=64
71994 On ch=1 n=f4 v=64
71994 On ch=1 n=a#4 v=64
73419 On ch=1 n=a#4 v=0
73419 On ch=1 n=d5 v=0
73434 On ch=1 n=f4 v=0
73434 On ch=1 n=f5 v=0
73434 On ch=1 n=g4 v=80
73434 On ch=1 n=d5 v=80
73434 On ch=1 n=a#4 v=80
73434 Par ch=1 c=64 v=114
73434 On ch=1 n=g5 v=80
73999 Par ch=1 c=64 v=100
74004 Par ch=1 c=64 v=86
74009 Par ch=1 c=64 v=72
74014 Par ch=1 c=64 v=57
74019 Par ch=1 c=64 v=43
74024 Par ch=1 c=64 v=29
74029 Par ch=1 c=64 v=15
74034 Par ch=1 c=64 v=0
74054 Par ch=1 c=64 v=6
74074 Par ch=1 c=64 v=7
74084 Par ch=1 c=64 v=6
74089 Par ch=1 c=64 v=5
74154 On ch=1 n=a#4 v=0
74154 On ch=1 n=d5 v=0
74154 On ch=1 n=c5 v=64
74394 On ch=1 n=c5 v=0
74394 On ch=1 n=d#5 v=64
74634 On ch=1 n=d#5 v=0
74634 On ch=1 n=d5 v=64
74854 On ch=1 n=d5 v=0
74874 On ch=1 n=g5 v=0
74874 On ch=1 n=g4 v=0
74874 On ch=1 n=f4 v=64
74874 On ch=1 n=d5 v=64
74874 On ch=1 n=a#4 v=64
74874 On ch=1 n=f5 v=64
77754 On ch=1 n=f5 v=0
77754 On ch=1 n=a#4 v=0
77754 On ch=1 n=d5 v=0
77754 On ch=1 n=f4 v=0
80559 Par ch=1 c=64 v=12
80564 Par ch=1 c=64 v=24
80569 Par ch=1 c=64 v=37
80574 Par ch=1 c=64 v=49
80579 Par ch=1 c=64 v=61
80584 Par ch=1 c=64 v=74
80589 Par ch=1 c=64 v=86
80594 Par ch=1 c=64 v=99
80599 Par ch=1 c=64 v=100
80604 Par ch=1 c=64 v=102
80609 Par ch=1 c=64 v=104
80614 Par ch=1 c=64 v=106
80619 Par ch=1 c=64 v=108
80624 Par ch=1 c=64 v=110
80629 Par ch=1 c=64 v=112
80634 Par ch=1 c=64 v=114
80634 On ch=1 n=c5 v=114
80634 On ch=1 n=d#5 v=114
80634 On ch=1 n=f4 v=114
80634 On ch=1 n=f5 v=114
80794 Par ch=1 c=64 v=115
81474 Par ch=1 c=64 v=114
81919 Par ch=1 c=64 v=101
81924 Par ch=1 c=64 v=87
81929 Par ch=1 c=64 v=73
81934 Par ch=1 c=64 v=59
81939 Par ch=1 c=64 v=46
81944 Par ch=1 c=64 v=32
81949 Par ch=1 c=64 v=18
81954 Par ch=1 c=64 v=4
81999 Par ch=1 c=64 v=16
82004 Par ch=1 c=64 v=28
82009 Par ch=1 c=64 v=40
82014 Par ch=1 c=64 v=53
82019 Par ch=1 c=64 v=65
82024 Par ch=1 c=64 v=77
82029 Par ch=1 c=64 v=89
82034 Par ch=1 c=64 v=102
82039 Par ch=1 c=64 v=103
82044 Par ch=1 c=64 v=105
82049 Par ch=1 c=64 v=107
82054 On ch=1 n=f5 v=0
82054 On ch=1 n=f4 v=0
82054 Par ch=1 c=64 v=109
82059 Par ch=1 c=64 v=111
82064 Par ch=1 c=64 v=113
82069 Par ch=1 c=64 v=115
82074 On ch=1 n=d#5 v=0
82074 On ch=1 n=c5 v=0
82074 Par ch=1 c=64 v=117
82074 On ch=1 n=d5 v=101
82074 On ch=1 n=f5 v=101
82074 On ch=1 n=a#4 v=101
82074 On ch=1 n=f4 v=101
83354 Par ch=1 c=64 v=118
83399 Par ch=1 c=64 v=106
83404 Par ch=1 c=64 v=93
83409 Par ch=1 c=64 v=80
83414 Par ch=1 c=64 v=67
83419 Par ch=1 c=64 v=54
83424 Par ch=1 c=64 v=41
83429 Par ch=1 c=64 v=28
83434 Par ch=1 c=64 v=15
83439 Par ch=1 c=64 v=14
83444 Par ch=1 c=64 v=12
83449 Par ch=1 c=64 v=10
83454 Par ch=1 c=64 v=8
83459 Par ch=1 c=64 v=6
83464 Par ch=1 c=64 v=4
83469 Par ch=1 c=64 v=2
83474 Par ch=1 c=64 v=0
83494 On ch=1 n=f4 v=0
83494 On ch=1 n=f5 v=0
83514 On ch=1 n=a#4 v=0
83514 On ch=1 n=d5 v=0
83514 Meta TrkEnd
TrkEnd
MTrk
0 SeqSpec 43 00 01 00
0 Meta TrkName "Left Hand"
0 Par ch=2 c=0 v=0
0 PrCh ch=2 p=0
0 SeqSpec 4a 41 5a 5a 01 00 00 00 00 00 00 00 00 00 00 00 00 00 00 00
0 Par ch=2 c=93 v=0
0 Par ch=2 c=7 v=91
0 Par ch=2 c=64 v=117
0 Par ch=2 c=91 v=40
0 Par ch=2 c=10 v=64
0 On ch=2 n=a#2 v=79
240 On ch=2 n=a#2 v=0
240 On ch=2 n=f4 v=42
480 On ch=2 n=f4 v=0
480 On ch=2 n=e4 v=47
480 On ch=2 n=g4 v=47
565 Par ch=2 c=64 v=106
570 Par ch=2 c=64 v=95
575 Par ch=2 c=64 v=84
580 Par ch=2 c=64 v=73
585 Par ch=2 c=64 v=62
590 Par ch=2 c=64 v=51
595 Par ch=2 c=64 v=40
600 Par ch=2 c=64 v=28
605 Par ch=2 c=64 v=25
610 Par ch=2 c=64 v=22
615 Par ch=2 c=64 v=19
620 Par ch=2 c=64 v=15
625 Par ch=2 c=64 v=12
630 Par ch=2 c=64 v=9
635 Par ch=2 c=64 v=6
640 Par ch=2 c=64 v=2
660 Par ch=2 c=64 v=1
680 Par ch=2 c=64 v=0
720 On ch=2 n=g4 v=0
720 On ch=2 n=e4 v=0
720 On ch=2 n=d#4 v=54
720 On ch=2 n=a4 v=54
960 On ch=2 n=a4 v=0
960 On ch=2 n=d#4 v=0
960 On ch=2 n=d4 v=59
960 On ch=2 n=a#4 v=59
1200 On ch=2 n=a#4 v=0
1200 On ch=2 n=d4 v=0
1200 On ch=2 n=c5 v=67
1200 On ch=2 n=c4 v=67
1365 Par ch=2 c=64 v=12
1370 Par ch=2 c=64 v=25
1375 Par ch=2 c=64 v=38
1380 Par ch=2 c=64 v=51
1385 Par ch=2 c=64 v=63
1390 Par ch=2 c=64 v=76
1395 Par ch=2 c=64 v=89
1400 Par ch=2 c=64 v=102
1405 Par ch=2 c=64 v=103
1410 Par ch=2 c=64 v=105
1415 Par ch=2 c=64 v=107
1420 Par ch=2 c=64 v=109
1425 Par ch=2 c=64 v=111
1430 Par ch=2 c=64 v=113
1435 Par ch=2 c=64 v=115
1440 On ch=2 n=c4 v=0
1440 On ch=2 n=c5 v=0
1440 Par ch=2 c=64 v=117
1440 On ch=2 n=a#3 v=78
1680 On ch=2 n=a#3 v=0
1680 On ch=2 n=f4 v=41
1680 On ch=2 n=d5 v=41
1920 On ch=2 n=d5 v=0
1920 On ch=2 n=f4 v=0
1920 On ch=2 n=e4 v=49
1920 On ch=2 n=g4 v=49
1965 Par ch=2 c=64 v=105
1970 Par ch=2 c=64 v=92
1975 Par ch=2 c=64 v=79
1980 Par ch=2 c=64 v=66
1985 Par ch=2 c=64 v=54
1990 Par ch=2 c=64 v=41
1995 Par ch=2 c=64 v=28
2000 Par ch=2 c=64 v=15
2005 Par ch=2 c=64 v=14
2010 Par ch=2 c=64 v=12
2015 Par ch=2 c=64 v=10
2020 Par ch=2 c=64 v=8
2025 Par ch=2 c=64 v=6
2030 Par ch=2 c=64 v=4
2035 Par ch=2 c=64 v=2
2040 Par ch=2 c=64 v=0
2160 On ch=2 n=g4 v=0
2160 On ch=2 n=e4 v=0
2160 On ch=2 n=d#4 v=57
2160 On ch=2 n=a4 v=57
2400 On ch=2 n=a4 v=0
2400 On ch=2 n=d#4 v=0
2400 On ch=2 n=a#4 v=62
2400 On ch=2 n=d4 v=62
2640 On ch=2 n=d4 v=0
2640 On ch=2 n=a#4 v=0
2640 On ch=2 n=a#3 v=67
2880 On ch=2 n=a#3 v=0
2880 Par ch=2 c=64 v=117
2880 On ch=2 n=d#3 v=76
3120 On ch=2 n=d#3 v=0
3120 On ch=2 n=g4 v=37
3360 On ch=2 n=g4 v=0
3360 On ch=2 n=f#4 v=42
3360 On ch=2 n=a4 v=42
3405 Par ch=2 c=64 v=105
3410 Par ch=2 c=64 v=92
3415 Par ch=2 c=64 v=79
3420 Par ch=2 c=64 v=66
3425 Par ch=2 c=64 v=54
3430 Par ch=2 c=64 v=41
3435 Par ch=2 c=64 v=28
3440 Par ch=2 c=64 v=15
3445 Par ch=2 c=64 v=14
3450 Par ch=2 c=64 v=12
3455 Par ch=2 c=64 v=10
3460 Par ch=2 c=64 v=8
3465 Par ch=2 c=64 v=6
3470 Par ch=2 c=64 v=4
3475 Par ch=2 c=64 v=2
3480 Par ch=2 c=64 v=0
3600 On ch=2 n=a4 v=0
3600 On ch=2 n=f#4 v=0
3600 On ch=2 n=f4 v=51
3600 On ch=2 n=b4 v=51
3840 On ch=2 n=b4 v=0
3840 On ch=2 n=f4 v=0
3840 On ch=2 n=d#4 v=56
3840 On ch=2 n=c5 v=56
4080 On ch=2 n=c5 v=0
4080 On ch=2 n=d#4 v=0
4080 On ch=2 n=d5 v=64
4080 On ch=2 n=d4 v=64
4320 On ch=2 n=d4 v=0
4320 On ch=2 n=d5 v=0
4320 Par ch=2 c=64 v=117
4320 On ch=2 n=c4 v=76
4560 On ch=2 n=c4 v=0
4560 On ch=2 n=d#5 v=40
4560 On ch=2 n=g4 v=40
4800 On ch=2 n=g4 v=0
4800 On ch=2 n=d#5 v=0
4800 On ch=2 n=f#4 v=47
4800 On ch=2 n=a4 v=47
4845 Par ch=2 c=64 v=105
4850 Par ch=2 c=64 v=92
4855 Par ch=2 c=64 v=79
4860 Par ch=2 c=64 v=66
4865 Par ch=2 c=64 v=54
4870 Par ch=2 c=64 v=41
4875 Par ch=2 c=64 v=28
4880 Par ch=2 c=64 v=15
4885 Par ch=2 c=64 v=14
4890 Par ch=2 c=64 v=12
4895 Par ch=2 c=64 v=10
4900 Par ch=2 c=64 v=8
4905 Par ch=2 c=64 v=6
4910 Par ch=2 c=64 v=4
4915 Par ch=2 c=64 v=2
4920 Par ch=2 c=64 v=0
5040 On ch=2 n=a4 v=0
5040 On ch=2 n=f#4 v=0
5040 On ch=2 n=b4 v=54
5040 On ch=2 n=f4 v=54
5280 On ch=2 n=f4 v=0
5280 On ch=2 n=b4 v=0
5280 On ch=2 n=c5 v=59
5280 On ch=2 n=d#4 v=59
5520 On ch=2 n=d#4 v=0
5520 On ch=2 n=c5 v=0
5520 On ch=2 n=d#5 v=67
5520 On ch=2 n=c4 v=67
5760 On ch=2 n=c4 v=0
5760 On ch=2 n=d#5 v=0
5760 On ch=2 n=f3 v=74
5760 Par ch=2 c=64 v=117
6000 On ch=2 n=f3 v=0
6000 On ch=2 n=a#4 v=70
6000 On ch=2 n=f#5 v=70
6240 On ch=2 n=f#5 v=0
6240 On ch=2 n=a#4 v=0
6240 On ch=2 n=a4 v=63
6240 On ch=2 n=f5 v=63
6285 Par ch=2 c=64 v=105
6290 Par ch=2 c=64 v=92
6295 Par ch=2 c=64 v=79
6300 Par ch=2 c=64 v=66
6305 Par ch=2 c=64 v=54
6310 Par ch=2 c=64 v=41
6315 Par ch=2 c=64 v=28
6320 Par ch=2 c=64 v=15
6325 Par ch=2 c=64 v=14
6330 Par ch=2 c=64 v=12
6335 Par ch=2 c=64 v=10
6340 Par ch=2 c=64 v=8
6345 Par ch=2 c=64 v=6
6350 Par ch=2 c=64 v=4
6355 Par ch=2 c=64 v=2
6360 Par ch=2 c=64 v=0
6480 On ch=2 n=f5 v=0
6480 On ch=2 n=a4 v=0
6480 On ch=2 n=c5 v=58
6480 On ch=2 n=g#4 v=58
6720 On ch=2 n=g#4 v=0
6720 On ch=2 n=c5 v=0
6720 On ch=2 n=g4 v=51
6720 On ch=2 n=d#5 v=51
6960 On ch=2 n=d#5 v=0
6960 On ch=2 n=g4 v=0
6960 On ch=2 n=a#4 v=45
6960 On ch=2 n=f#4 v=45
7200 On ch=2 n=f#4 v=0
7200 On ch=2 n=a#4 v=0
7200 Par ch=2 c=64 v=117
7200 On ch=2 n=f3 v=80
7440 On ch=2 n=f3 v=0
7440 On ch=2 n=d#5 v=73
7440 On ch=2 n=f#4 v=73
7680 On ch=2 n=f#4 v=0
7680 On ch=2 n=d#5 v=0
7680 On ch=2 n=d5 v=63
7680 On ch=2 n=f4 v=63
7725 Par ch=2 c=64 v=105
7730 Par ch=2 c=64 v=92
7735 Par ch=2 c=64 v=79
7740 Par ch=2 c=64 v=66
7745 Par ch=2 c=64 v=54
7750 Par ch=2 c=64 v=41
7755 Par ch=2 c=64 v=28
7760 Par ch=2 c=64 v=15
7765 Par ch=2 c=64 v=14
7770 Par ch=2 c=64 v=12
7775 Par ch=2 c=64 v=10
7780 Par ch=2 c=64 v=8
7785 Par ch=2 c=64 v=6
7790 Par ch=2 c=64 v=4
7795 Par ch=2 c=64 v=2
7800 Par ch=2 c=64 v=0
7920 On ch=2 n=f4 v=0
7920 On ch=2 n=d5 v=0
7920 On ch=2 n=g4 v=56
7920 On ch=2 n=e4 v=56
8160 On ch=2 n=e4 v=0
8160 On ch=2 n=g4 v=0
8160 On ch=2 n=a4 v=49
8160 On ch=2 n=d#4 v=49
8400 On ch=2 n=d#4 v=0
8400 On ch=2 n=a4 v=0
8400 On ch=2 n=f4 v=40
8640 On ch=2 n=f4 v=0
8640 Par ch=2 c=64 v=117
8640 On ch=2 n=a#3 v=63
8880 On ch=2 n=a#3 v=0
8880 On ch=2 n=f4 v=37
9120 On ch=2 n=f4 v=0
9120 On ch=2 n=e4 v=41
9120 On ch=2 n=g4 v=41
9165 Par ch=2 c=64 v=105
9170 Par ch=2 c=64 v=92
9175 Par ch=2 c=64 v=79
9180 Par ch=2 c=64 v=66
9185 Par ch=2 c=64 v=54
9190 Par ch=2 c=64 v=41
9195 Par ch=2 c=64 v=28
9200 Par ch=2 c=64 v=15
9205 Par ch=2 c=64 v=14
9210 Par ch=2 c=64 v=12
9215 Par ch=2 c=64 v=10
9220 Par ch=2 c=64 v=8
9225 Par ch=2 c=64 v=6
9230 Par ch=2 c=64 v=4
9235 Par ch=2 c=64 v=2
9240 Par ch=2 c=64 v=0
9360 On ch=2 n=g4 v=0
9360 On ch=2 n=e4 v=0
9360 On ch=2 n=a4 v=46
9360 On ch=2 n=d#4 v=46
9600 On ch=2 n=d#4 v=0
9600 On ch=2 n=a4 v=0
9600 On ch=2 n=a#4 v=53
9600 On ch=2 n=d4 v=53
9840 On ch=2 n=d4 v=0
9840 On ch=2 n=a#4 v=0
9840 On ch=2 n=c5 v=62
9840 On ch=2 n=c4 v=62
10080 On ch=2 n=c4 v=0
10080 On ch=2 n=c5 v=0
10080 On ch=2 n=a#3 v=69
10080 Par ch=2 c=64 v=117
10320 On ch=2 n=a#3 v=0
10320 On ch=2 n=f4 v=35
10320 On ch=2 n=d5 v=35
10560 On ch=2 n=d5 v=0
10560 On ch=2 n=f4 v=0
10560 On ch=2 n=e4 v=45
10560 On ch=2 n=g4 v=45
10605 Par ch=2 c=64 v=105
10610 Par ch=2 c=64 v=92
10615 Par ch=2 c=64 v=79
10620 Par ch=2 c=64 v=66
10625 Par ch=2 c=64 v=54
10630 Par ch=2 c=64 v=41
10635 Par ch=2 c=64 v=28
10640 Par ch=2 c=64 v=15
10645 Par ch=2 c=64 v=14
10650 Par ch=2 c=64 v=12
10655 Par ch=2 c=64 v=10
10660 Par ch=2 c=64 v=8
10665 Par ch=2 c=64 v=6
10670 Par ch=2 c=64 v=4
10675 Par ch=2 c=64 v=2
10680 Par ch=2 c=64 v=0
10800 On ch=2 n=g4 v=0
10800 On ch=2 n=e4 v=0
10800 On ch=2 n=a4 v=53
10800 On ch=2 n=d#4 v=53
11040 On ch=2 n=d#4 v=0
11040 On ch=2 n=a4 v=0
11040 On ch=2 n=d4 v=59
11040 On ch=2 n=a#4 v=59
11280 On ch=2 n=a#4 v=0
11280 On ch=2 n=d4 v=0
11280 On ch=2 n=c5 v=65
11280 On ch=2 n=c4 v=65
11520 On ch=2 n=c4 v=0
11520 On ch=2 n=c5 v=0
11520 Par ch=2 c=64 v=117
11520 On ch=2 n=g3 v=75
11760 On ch=2 n=g3 v=0
11760 On ch=2 n=d5 v=37
12000 On ch=2 n=d5 v=0
12000 On ch=2 n=e5 v=42
12000 On ch=2 n=c#5 v=42
12045 Par ch=2 c=64 v=105
12050 Par ch=2 c=64 v=92
12055 Par ch=2 c=64 v=79
12060 Par ch=2 c=64 v=66
12065 Par ch=2 c=64 v=54
12070 Par ch=2 c=64 v=41
12075 Par ch=2 c=64 v=28
12080 Par ch=2 c=64 v=15
12085 Par ch=2 c=64 v=14
12090 Par ch=2 c=64 v=12
12095 Par ch=2 c=64 v=10
12100 Par ch=2 c=64 v=8
12105 Par ch=2 c=64 v=6
12110 Par ch=2 c=64 v=4
12115 Par ch=2 c=64 v=2
12120 Par ch=2 c=64 v=0
12240 On ch=2 n=c#5 v=0
12240 On ch=2 n=e5 v=0
12240 On ch=2 n=f#5 v=52
12240 On ch=2 n=c5 v=52
12480 On ch=2 n=c5 v=0
12480 On ch=2 n=f#5 v=0
12480 On ch=2 n=a#4 v=63
12480 On ch=2 n=g5 v=63
12720 On ch=2 n=g5 v=0
12720 On ch=2 n=a#4 v=0
12720 On ch=2 n=a5 v=73
12720 On ch=2 n=a4 v=73
12960 On ch=2 n=a4 v=0
12960 On ch=2 n=a5 v=0
12960 Par ch=2 c=64 v=117
12960 On ch=2 n=a#3 v=84
13200 On ch=2 n=a#3 v=0
13200 On ch=2 n=a#4 v=64
13440 On ch=2 n=a#4 v=0
13440 On ch=2 n=a4 v=42
13440 On ch=2 n=c5 v=42
13485 Par ch=2 c=64 v=105
13490 Par ch=2 c=64 v=92
13495 Par ch=2 c=64 v=79
13500 Par ch=2 c=64 v=66
13505 Par ch=2 c=64 v=54
13510 Par ch=2 c=64 v=41
13515 Par ch=2 c=64 v=28
13520 Par ch=2 c=64 v=15
13525 Par ch=2 c=64 v=14
13530 Par ch=2 c=64 v=12
13535 Par ch=2 c=64 v=10
13540 Par ch=2 c=64 v=8
13545 Par ch=2 c=64 v=6
13550 Par ch=2 c=64 v=4
13555 Par ch=2 c=64 v=2
13560 Par ch=2 c=64 v=0
13680 On ch=2 n=c5 v=0
13680 On ch=2 n=a4 v=0
13680 On ch=2 n=d5 v=52
13680 On ch=2 n=g#4 v=52
13920 On ch=2 n=g#4 v=0
13920 On ch=2 n=d5 v=0
13920 On ch=2 n=d#5 v=62
13920 On ch=2 n=g4 v=62
14160 On ch=2 n=g4 v=0
14160 On ch=2 n=d#5 v=0
14160 On ch=2 n=f4 v=73
14160 On ch=2 n=f5 v=73
14400 On ch=2 n=f5 v=0
14400 On ch=2 n=f4 v=0
14400 Par ch=2 c=64 v=117
14400 On ch=2 n=d#3 v=82
14640 On ch=2 n=d#3 v=0
14640 On ch=2 n=g4 v=43
14880 On ch=2 n=g4 v=0
14880 On ch=2 n=a4 v=52
14880 On ch=2 n=f#4 v=52
14925 Par ch=2 c=64 v=105
14930 Par ch=2 c=64 v=92
14935 Par ch=2 c=64 v=79
14940 Par ch=2 c=64 v=66
14945 Par ch=2 c=64 v=54
14950 Par ch=2 c=64 v=41
14955 Par ch=2 c=64 v=28
14960 Par ch=2 c=64 v=15
14965 Par ch=2 c=64 v=14
14970 Par ch=2 c=64 v=12
14975 Par ch=2 c=64 v=10
14980 Par ch=2 c=64 v=8
14985 Par ch=2 c=64 v=6
14990 Par ch=2 c=64 v=4
14995 Par ch=2 c=64 v=2
15000 Par ch=2 c=64 v=0
15120 On ch=2 n=f#4 v=0
15120 On ch=2 n=a4 v=0
15120 On ch=2 n=f4 v=60
15120 On ch=2 n=a#4 v=60
15360 On ch=2 n=a#4 v=0
15360 On ch=2 n=f4 v=0
15360 On ch=2 n=d#4 v=71
15360 On ch=2 n=c5 v=71
15600 On ch=2 n=c5 v=0
15600 On ch=2 n=d#4 v=0
15600 On ch=2 n=d4 v=80
15600 On ch=2 n=d5 v=80
15840 On ch=2 n=d5 v=0
15840 On ch=2 n=d4 v=0
15840 On ch=2 n=c4 v=90
15840 Par ch=2 c=64 v=117
16080 On ch=2 n=c4 v=0
16080 On ch=2 n=d#5 v=48
16080 On ch=2 n=g4 v=48
16320 On ch=2 n=g4 v=0
16320 On ch=2 n=d#5 v=0
16320 On ch=2 n=a4 v=56
16320 On ch=2 n=f#4 v=56
16365 Par ch=2 c=64 v=105
16370 Par ch=2 c=64 v=92
16375 Par ch=2 c=64 v=79
16380 Par ch=2 c=64 v=66
16385 Par ch=2 c=64 v=54
16390 Par ch=2 c=64 v=41
16395 Par ch=2 c=64 v=28
16400 Par ch=2 c=64 v=15
16405 Par ch=2 c=64 v=14
16410 Par ch=2 c=64 v=12
16415 Par ch=2 c=64 v=10
16420 Par ch=2 c=64 v=8
16425 Par ch=2 c=64 v=6
16430 Par ch=2 c=64 v=4
16435 Par ch=2 c=64 v=2
16440 Par ch=2 c=64 v=0
16560 On ch=2 n=f#4 v=0
16560 On ch=2 n=a4 v=0
16560 On ch=2 n=f4 v=64
16560 On ch=2 n=b4 v=64
16800 On ch=2 n=b4 v=0
16800 On ch=2 n=f4 v=0
16800 On ch=2 n=c5 v=76
16800 On ch=2 n=d#4 v=76
17040 On ch=2 n=d#4 v=0
17040 On ch=2 n=c5 v=0
17040 On ch=2 n=d#5 v=84
17040 On ch=2 n=c4 v=84
17280 On ch=2 n=c4 v=0
17280 On ch=2 n=d#5 v=0
17280 On ch=2 n=f3 v=92
17520 On ch=2 n=f3 v=0
17520 On ch=2 n=d6 v=89
17520 On ch=2 n=f5 v=89
17760 On ch=2 n=f5 v=0
17760 On ch=2 n=d6 v=0
17760 On ch=2 n=e5 v=86
17760 On ch=2 n=g5 v=86
18000 On ch=2 n=g5 v=0
18000 On ch=2 n=e5 v=0
18000 On ch=2 n=a5 v=85
18000 On ch=2 n=d#5 v=85
18240 On ch=2 n=d#5 v=0
18240 On ch=2 n=a5 v=0
18240 On ch=2 n=d5 v=84
18240 On ch=2 n=a#5 v=84
18480 On ch=2 n=a#5 v=0
18480 On ch=2 n=d5 v=0
18480 On ch=2 n=f5 v=79
18480 On ch=2 n=c#5 v=79
18720 On ch=2 n=c#5 v=0
18720 On ch=2 n=f5 v=0
18720 On ch=2 n=c5 v=75
18720 On ch=2 n=g#5 v=75
18960 On ch=2 n=g#5 v=0
18960 On ch=2 n=c5 v=0
18960 On ch=2 n=f#5 v=75
18960 On ch=2 n=a#4 v=75
19200 On ch=2 n=a#4 v=0
19200 On ch=2 n=f#5 v=0
19200 On ch=2 n=c5 v=71
19200 On ch=2 n=a4 v=71
19440 On ch=2 n=a4 v=0
19440 On ch=2 n=c5 v=0
19440 On ch=2 n=g#4 v=69
19440 On ch=2 n=d5 v=69
19680 On ch=2 n=d5 v=0
19680 On ch=2 n=g#4 v=0
19680 On ch=2 n=d#5 v=67
19680 On ch=2 n=g4 v=67
19920 On ch=2 n=g4 v=0
19920 On ch=2 n=d#5 v=0
19920 On ch=2 n=f#4 v=64
19920 On ch=2 n=a#4 v=64
20160 On ch=2 n=a#4 v=0
20160 On ch=2 n=f#4 v=0
20160 On ch=2 n=a#3 v=62
20400 On ch=2 n=a#3 v=0
20400 On ch=2 n=d5 v=60
20400 On ch=2 n=f4 v=60
20640 On ch=2 n=f4 v=0
20640 On ch=2 n=d5 v=0
20640 On ch=2 n=e4 v=60
20640 On ch=2 n=g4 v=60
20880 On ch=2 n=g4 v=0
20880 On ch=2 n=e4 v=0
20880 On ch=2 n=a4 v=57
20880 On ch=2 n=d#4 v=57
21120 On ch=2 n=d#4 v=0
21120 On ch=2 n=a4 v=0
21120 On ch=2 n=d4 v=56
21120 On ch=2 n=a#4 v=56
21360 On ch=2 n=a#4 v=0
21360 On ch=2 n=d4 v=0
21360 On ch=2 n=f4 v=53
21600 On ch=2 n=f4 v=0
21600 On ch=2 n=a#3 v=51
21840 On ch=2 n=a#3 v=0
21840 On ch=2 n=d5 v=47
21840 On ch=2 n=f4 v=47
22080 On ch=2 n=f4 v=0
22080 On ch=2 n=d5 v=0
22080 On ch=2 n=e4 v=46
22080 On ch=2 n=g4 v=46
22320 On ch=2 n=g4 v=0
22320 On ch=2 n=e4 v=0
22320 On ch=2 n=d#4 v=43
22320 On ch=2 n=a4 v=43
22560 On ch=2 n=a4 v=0
22560 On ch=2 n=d#4 v=0
22560 On ch=2 n=d4 v=41
22560 On ch=2 n=a#4 v=41
22800 On ch=2 n=a#4 v=0
22800 On ch=2 n=d4 v=0
22800 On ch=2 n=a#3 v=40
22890 Par ch=2 c=64 v=1
22895 Par ch=2 c=64 v=2
22900 Par ch=2 c=64 v=3
22910 Par ch=2 c=64 v=4
22915 Par ch=2 c=64 v=5
22920 Par ch=2 c=64 v=6
23040 On ch=2 n=a#3 v=0
23040 On ch=2 n=f#2 v=79
23045 Par ch=2 c=64 v=20
23050 Par ch=2 c=64 v=34
23055 Par ch=2 c=64 v=48
23060 Par ch=2 c=64 v=62
23065 Par ch=2 c=64 v=76
23070 Par ch=2 c=64 v=90
23075 Par ch=2 c=64 v=104
23080 Par ch=2 c=64 v=119
23280 On ch=2 n=f#2 v=0
23280 On ch=2 n=a#4 v=79
23280 On ch=2 n=c#4 v=79
23520 On ch=2 n=c#4 v=0
23520 On ch=2 n=a#4 v=0
23520 On ch=2 n=f#4 v=80
23520 On ch=2 n=c#5 v=80
23760 On ch=2 n=c#5 v=0
23760 On ch=2 n=f#4 v=0
23760 On ch=2 n=a#4 v=80
23760 On ch=2 n=d#5 v=80
24000 On ch=2 n=d#5 v=0
24000 On ch=2 n=a#4 v=0
24000 On ch=2 n=c#5 v=80
24000 On ch=2 n=f#4 v=80
24240 On ch=2 n=f#4 v=0
24240 On ch=2 n=c#5 v=0
24240 On ch=2 n=c#4 v=80
24240 On ch=2 n=a#4 v=80
24480 On ch=2 n=a#4 v=0
24480 On ch=2 n=c#4 v=0
24480 On ch=2 n=c#5 v=79
24480 On ch=2 n=f#4 v=79
24720 On ch=2 n=f#4 v=0
24720 On ch=2 n=c#5 v=0
24720 On ch=2 n=d#5 v=79
24720 On ch=2 n=a#4 v=79
24960 On ch=2 n=a#4 v=0
24960 On ch=2 n=d#5 v=0
24960 On ch=2 n=f#4 v=79
24960 On ch=2 n=c#5 v=79
25200 On ch=2 n=c#5 v=0
25200 On ch=2 n=f#4 v=0
25200 On ch=2 n=a#4 v=79
25200 On ch=2 n=c#4 v=79
25440 On ch=2 n=c#4 v=0
25440 On ch=2 n=a#4 v=0
25440 On ch=2 n=c#5 v=79
25440 On ch=2 n=f#4 v=79
25680 On ch=2 n=f#4 v=0
25680 On ch=2 n=c#5 v=0
25680 On ch=2 n=a#4 v=79
25680 On ch=2 n=d#5 v=79
25765 Par ch=2 c=64 v=105
25770 Par ch=2 c=64 v=90
25775 Par ch=2 c=64 v=75
25780 Par ch=2 c=64 v=60
25785 Par ch=2 c=64 v=45
25790 Par ch=2 c=64 v=30
25795 Par ch=2 c=64 v=15
25800 Par ch=2 c=64 v=0
25920 On ch=2 n=d#5 v=0
25920 On ch=2 n=a#4 v=0
25920 On ch=2 n=f#4 v=79
25920 Par ch=2 c=64 v=20
25920 On ch=2 n=c#5 v=79
25925 Par ch=2 c=64 v=34
25930 Par ch=2 c=64 v=48
25935 Par ch=2 c=64 v=62
25940 Par ch=2 c=64 v=76
25945 Par ch=2 c=64 v=90
25950 Par ch=2 c=64 v=104
25955 Par ch=2 c=64 v=119
26160 On ch=2 n=c#5 v=0
26160 On ch=2 n=f#4 v=0
26160 On ch=2 n=a#4 v=79
26160 On ch=2 n=c#4 v=79
26400 On ch=2 n=c#4 v=0
26400 On ch=2 n=a#4 v=0
26400 On ch=2 n=f#4 v=79
26400 On ch=2 n=c#5 v=79
26640 On ch=2 n=c#5 v=0
26640 On ch=2 n=f#4 v=0
26640 On ch=2 n=d#5 v=79
26640 On ch=2 n=a#4 v=79
26880 On ch=2 n=a#4 v=0
26880 On ch=2 n=d#5 v=0
26880 On ch=2 n=c#5 v=78
26880 On ch=2 n=f#4 v=78
27120 On ch=2 n=f#4 v=0
27120 On ch=2 n=c#5 v=0
27120 On ch=2 n=a#4 v=78
27120 On ch=2 n=c#4 v=78
27360 On ch=2 n=c#4 v=0
27360 On ch=2 n=a#4 v=0
27360 On ch=2 n=f#4 v=78
27360 On ch=2 n=c#5 v=78
27600 On ch=2 n=c#5 v=0
27600 On ch=2 n=f#4 v=0
27600 On ch=2 n=d#5 v=78
27600 On ch=2 n=a#4 v=78
27840 On ch=2 n=a#4 v=0
27840 On ch=2 n=d#5 v=0
27840 On ch=2 n=c#5 v=78
27840 On ch=2 n=f#4 v=78
28080 On ch=2 n=f#4 v=0
28080 On ch=2 n=c#5 v=0
28080 On ch=2 n=a#4 v=78
28080 On ch=2 n=c#4 v=78
28320 On ch=2 n=c#4 v=0
28320 On ch=2 n=a#4 v=0
28320 On ch=2 n=c#5 v=78
28320 On ch=2 n=f#4 v=78
28560 On ch=2 n=f#4 v=0
28560 On ch=2 n=c#5 v=0
28560 On ch=2 n=a#4 v=78
28560 On ch=2 n=d#5 v=78
28640 Par ch=2 c=64 v=105
28645 Par ch=2 c=64 v=90
28650 Par ch=2 c=64 v=75
28655 Par ch=2 c=64 v=60
28660 Par ch=2 c=64 v=45
28665 Par ch=2 c=64 v=30
28670 Par ch=2 c=64 v=15
28675 Par ch=2 c=64 v=0
28800 On ch=2 n=d#5 v=0
28800 On ch=2 n=a#4 v=0
28800 On ch=2 n=f#4 v=78
28800 Par ch=2 c=64 v=20
28800 On ch=2 n=c#5 v=78
28805 Par ch=2 c=64 v=34
28810 Par ch=2 c=64 v=48
28815 Par ch=2 c=64 v=62
28820 Par ch=2 c=64 v=76
28825 Par ch=2 c=64 v=90
28830 Par ch=2 c=64 v=104
28835 Par ch=2 c=64 v=119
29040 On ch=2 n=c#5 v=0
29040 On ch=2 n=f#4 v=0
29040 On ch=2 n=a#4 v=79
29040 On ch=2 n=c#4 v=79
29280 On ch=2 n=c#4 v=0
29280 On ch=2 n=a#4 v=0
29280 On ch=2 n=c#5 v=79
29280 On ch=2 n=f#4 v=79
29520 On ch=2 n=f#4 v=0
29520 On ch=2 n=c#5 v=0
29520 On ch=2 n=a#4 v=79
29520 On ch=2 n=d#5 v=79
29760 On ch=2 n=d#5 v=0
29760 On ch=2 n=a#4 v=0
29760 On ch=2 n=c#5 v=79
29760 On ch=2 n=f#4 v=79
30000 On ch=2 n=f#4 v=0
30000 On ch=2 n=c#5 v=0
30000 On ch=2 n=c#4 v=79
30000 On ch=2 n=a#4 v=79
30240 On ch=2 n=a#4 v=0
30240 On ch=2 n=c#4 v=0
30240 On ch=2 n=f#4 v=79
30240 On ch=2 n=c#5 v=79
30480 On ch=2 n=c#5 v=0
30480 On ch=2 n=f#4 v=0
30480 On ch=2 n=d#5 v=79
30480 On ch=2 n=a#4 v=79
30720 On ch=2 n=a#4 v=0
30720 On ch=2 n=d#5 v=0
30720 On ch=2 n=c#5 v=79
30720 On ch=2 n=f#4 v=79
30960 On ch=2 n=f#4 v=0
30960 On ch=2 n=c#5 v=0
30960 On ch=2 n=a#4 v=79
30960 On ch=2 n=c#4 v=79
31200 On ch=2 n=c#4 v=0
31200 On ch=2 n=a#4 v=0
31200 On ch=2 n=c#5 v=78
31200 On ch=2 n=f#4 v=78
31440 On ch=2 n=f#4 v=0
31440 On ch=2 n=c#5 v=0
31440 On ch=2 n=d#5 v=79
31440 On ch=2 n=a#4 v=79
31520 Par ch=2 c=64 v=105
31525 Par ch=2 c=64 v=90
31530 Par ch=2 c=64 v=75
31535 Par ch=2 c=64 v=60
31540 Par ch=2 c=64 v=45
31545 Par ch=2 c=64 v=30
31550 Par ch=2 c=64 v=15
31555 Par ch=2 c=64 v=0
31680 On ch=2 n=a#4 v=0
31680 On ch=2 n=d#5 v=0
31680 On ch=2 n=c#5 v=79
31680 Par ch=2 c=64 v=20
31680 On ch=2 n=f#4 v=79
31685 Par ch=2 c=64 v=34
31690 Par ch=2 c=64 v=48
31695 Par ch=2 c=64 v=62
31700 Par ch=2 c=64 v=76
31705 Par ch=2 c=64 v=90
31710 Par ch=2 c=64 v=104
31715 Par ch=2 c=64 v=119
31920 On ch=2 n=f#4 v=0
31920 On ch=2 n=c#5 v=0
31920 On ch=2 n=c#4 v=80
31920 On ch=2 n=a#4 v=80
32160 On ch=2 n=a#4 v=0
32160 On ch=2 n=c#4 v=0
32160 On ch=2 n=f#4 v=80
32160 On ch=2 n=c#5 v=80
32400 On ch=2 n=c#5 v=0
32400 On ch=2 n=f#4 v=0
32400 On ch=2 n=a#4 v=80
32400 On ch=2 n=d#5 v=80
32640 On ch=2 n=d#5 v=0
32640 On ch=2 n=a#4 v=0
32640 On ch=2 n=c#5 v=80
32640 On ch=2 n=f#4 v=80
32880 On ch=2 n=f#4 v=0
32880 On ch=2 n=c#5 v=0
32880 On ch=2 n=a#4 v=80
32880 On ch=2 n=c#4 v=80
33120 On ch=2 n=c#4 v=0
33120 On ch=2 n=a#4 v=0
33120 On ch=2 n=f#4 v=80
33120 On ch=2 n=c#5 v=80
33360 On ch=2 n=c#5 v=0
33360 On ch=2 n=f#4 v=0
33360 On ch=2 n=a#4 v=80
33360 On ch=2 n=d#5 v=80
33600 On ch=2 n=d#5 v=0
33600 On ch=2 n=a#4 v=0
33600 On ch=2 n=c#5 v=80
33600 On ch=2 n=f#4 v=80
33840 On ch=2 n=f#4 v=0
33840 On ch=2 n=c#5 v=0
33840 On ch=2 n=c#4 v=80
33840 On ch=2 n=a#4 v=80
34080 On ch=2 n=a#4 v=0
34080 On ch=2 n=c#4 v=0
34080 On ch=2 n=c#5 v=80
34080 On ch=2 n=f#4 v=80
34320 On ch=2 n=f#4 v=0
34320 On ch=2 n=c#5 v=0
34320 On ch=2 n=d#5 v=80
34320 On ch=2 n=a#4 v=80
34400 Par ch=2 c=64 v=105
34405 Par ch=2 c=64 v=90
34410 Par ch=2 c=64 v=75
34415 Par ch=2 c=64 v=60
34420 Par ch=2 c=64 v=45
34425 Par ch=2 c=64 v=30
34430 Par ch=2 c=64 v=15
34435 Par ch=2 c=64 v=0
34560 On ch=2 n=a#4 v=0
34560 On ch=2 n=d#5 v=0
34560 On ch=2 n=e5 v=42
34560 On ch=2 n=f#4 v=42
34800 On ch=2 n=f#4 v=0
34800 On ch=2 n=e5 v=0
34800 On ch=2 n=a#4 v=42
34800 On ch=2 n=c#5 v=42
35040 On ch=2 n=c#5 v=0
35040 On ch=2 n=a#4 v=0
35040 On ch=2 n=f#4 v=42
35040 On ch=2 n=f#5 v=42
35280 On ch=2 n=f#5 v=0
35280 On ch=2 n=f#4 v=0
35280 On ch=2 n=a#4 v=42
35280 On ch=2 n=d#5 v=42
35520 On ch=2 n=d#5 v=0
35520 On ch=2 n=a#4 v=0
35520 On ch=2 n=e5 v=42
35520 On ch=2 n=f#4 v=42
35760 On ch=2 n=f#4 v=0
35760 On ch=2 n=e5 v=0
35760 On ch=2 n=a#4 v=42
35760 On ch=2 n=c#5 v=42
36000 On ch=2 n=c#5 v=0
36000 On ch=2 n=a#4 v=0
36000 On ch=2 n=f#4 v=42
36240 On ch=2 n=f#4 v=0
36240 On ch=2 n=a#4 v=42
36240 On ch=2 n=d#5 v=42
36480 On ch=2 n=d#5 v=0
36480 On ch=2 n=a#4 v=0
36480 On ch=2 n=f#4 v=43
36480 On ch=2 n=e5 v=43
36720 On ch=2 n=e5 v=0
36720 On ch=2 n=f#4 v=0
36720 On ch=2 n=a#4 v=43
36720 On ch=2 n=c#5 v=43
36960 On ch=2 n=c#5 v=0
36960 On ch=2 n=a#4 v=0
36960 On ch=2 n=f#5 v=43
36960 On ch=2 n=f#4 v=43
37200 On ch=2 n=f#4 v=0
37200 On ch=2 n=f#5 v=0
37200 On ch=2 n=a#4 v=43
37200 On ch=2 n=d#5 v=43
37440 On ch=2 n=d#5 v=0
37440 On ch=2 n=a#4 v=0
37440 On ch=2 n=f#4 v=43
37440 On ch=2 n=e5 v=43
37680 On ch=2 n=e5 v=0
37680 On ch=2 n=f#4 v=0
37680 On ch=2 n=c#5 v=43
37680 On ch=2 n=a#4 v=43
37920 On ch=2 n=a#4 v=0
37920 On ch=2 n=c#5 v=0
37920 On ch=2 n=f#4 v=43
37920 On ch=2 n=f#5 v=43
38160 On ch=2 n=f#5 v=0
38160 On ch=2 n=f#4 v=0
38160 On ch=2 n=d#5 v=43
38160 On ch=2 n=a#4 v=43
38400 On ch=2 n=a#4 v=0
38400 On ch=2 n=d#5 v=0
38400 On ch=2 n=f#4 v=42
38400 On ch=2 n=e5 v=42
38640 On ch=2 n=e5 v=0
38640 On ch=2 n=f#4 v=0
38640 On ch=2 n=a#4 v=42
38640 On ch=2 n=c#5 v=42
38880 On ch=2 n=c#5 v=0
38880 On ch=2 n=a#4 v=0
38880 On ch=2 n=f#4 v=42
39120 On ch=2 n=f#4 v=0
39120 On ch=2 n=a#4 v=42
39120 On ch=2 n=d#5 v=42
39360 On ch=2 n=d#5 v=0
39360 On ch=2 n=a#4 v=0
39360 On ch=2 n=e5 v=42
39360 On ch=2 n=f#4 v=42
39600 On ch=2 n=f#4 v=0
39600 On ch=2 n=e5 v=0
39600 On ch=2 n=a#4 v=40
39600 On ch=2 n=c#5 v=40
39840 On ch=2 n=c#5 v=0
39840 On ch=2 n=a#4 v=0
39840 On ch=2 n=f#4 v=40
39840 On ch=2 n=f#5 v=40
40080 On ch=2 n=f#5 v=0
40080 On ch=2 n=f#4 v=0
40080 On ch=2 n=a#4 v=40
40080 On ch=2 n=d#5 v=40
40320 On ch=2 n=d#5 v=0
40320 On ch=2 n=a#4 v=0
40320 On ch=2 n=f#4 v=40
40320 On ch=2 n=e5 v=40
40560 On ch=2 n=e5 v=0
40560 On ch=2 n=f#4 v=0
40560 On ch=2 n=a#4 v=40
40560 On ch=2 n=c#5 v=40
40800 On ch=2 n=c#5 v=0
40800 On ch=2 n=a#4 v=0
40800 On ch=2 n=f#5 v=40
40800 On ch=2 n=f#4 v=40
41040 On ch=2 n=f#4 v=0
41040 On ch=2 n=f#5 v=0
41040 On ch=2 n=d#5 v=40
41040 On ch=2 n=a#4 v=40
41280 On ch=2 n=a#4 v=0
41280 On ch=2 n=d#5 v=0
41280 On ch=2 n=e5 v=40
41280 On ch=2 n=f#4 v=40
41520 On ch=2 n=f#4 v=0
41520 On ch=2 n=e5 v=0
41520 On ch=2 n=a#4 v=41
41520 On ch=2 n=c#5 v=41
41760 On ch=2 n=c#5 v=0
41760 On ch=2 n=a#4 v=0
41760 On ch=2 n=f#4 v=41
41760 On ch=2 n=f#5 v=41
42000 On ch=2 n=f#5 v=0
42000 On ch=2 n=f#4 v=0
42000 On ch=2 n=d#5 v=42
42000 On ch=2 n=a#4 v=42
42240 On ch=2 n=a#4 v=0
42240 On ch=2 n=d#5 v=0
42240 On ch=2 n=f#4 v=42
42240 On ch=2 n=e5 v=42
42480 On ch=2 n=e5 v=0
42480 On ch=2 n=f#4 v=0
42480 On ch=2 n=a#4 v=42
42480 On ch=2 n=c#5 v=42
42720 On ch=2 n=c#5 v=0
42720 On ch=2 n=a#4 v=0
42720 On ch=2 n=f#5 v=42
42720 On ch=2 n=f#4 v=42
42960 On ch=2 n=f#4 v=0
42960 On ch=2 n=f#5 v=0
42960 On ch=2 n=d#5 v=42
42960 On ch=2 n=a#4 v=42
43200 On ch=2 n=a#4 v=0
43200 On ch=2 n=d#5 v=0
43200 On ch=2 n=f#4 v=42
43200 On ch=2 n=e5 v=42
43440 On ch=2 n=e5 v=0
43440 On ch=2 n=f#4 v=0
43440 On ch=2 n=c#5 v=42
43440 On ch=2 n=a#4 v=42
43680 On ch=2 n=a#4 v=0
43680 On ch=2 n=c#5 v=0
43680 On ch=2 n=f#5 v=41
43680 On ch=2 n=f#4 v=41
43920 On ch=2 n=f#4 v=0
43920 On ch=2 n=f#5 v=0
43920 On ch=2 n=a#4 v=40
43920 On ch=2 n=d#5 v=40
44160 On ch=2 n=d#5 v=0
44160 On ch=2 n=a#4 v=0
44160 On ch=2 n=f#4 v=40
44160 On ch=2 n=e5 v=40
44400 On ch=2 n=e5 v=0
44400 On ch=2 n=f#4 v=0
44400 On ch=2 n=a#4 v=45
44400 On ch=2 n=c#5 v=45
44640 On ch=2 n=c#5 v=0
44640 On ch=2 n=a#4 v=0
44640 On ch=2 n=f#4 v=48
44640 On ch=2 n=f#5 v=48
44880 On ch=2 n=f#5 v=0
44880 On ch=2 n=f#4 v=0
44880 On ch=2 n=a#4 v=53
44880 On ch=2 n=d#5 v=53
45120 On ch=2 n=d#5 v=0
45120 On ch=2 n=a#4 v=0
45120 On ch=2 n=f#4 v=58
45120 On ch=2 n=e5 v=58
45360 On ch=2 n=e5 v=0
45360 On ch=2 n=f#4 v=0
45360 On ch=2 n=a#4 v=62
45360 On ch=2 n=c#5 v=62
45600 On ch=2 n=c#5 v=0
45600 On ch=2 n=a#4 v=0
45600 On ch=2 n=e5 v=65
45600 On ch=2 n=g4 v=65
45840 On ch=2 n=g4 v=0
45840 On ch=2 n=e5 v=0
45840 On ch=2 n=a#4 v=71
45840 On ch=2 n=c5 v=71
45970 Par ch=2 c=64 v=1
45980 Par ch=2 c=64 v=2
45990 Par ch=2 c=64 v=3
46000 Par ch=2 c=64 v=4
46045 Par ch=2 c=64 v=17
46050 Par ch=2 c=64 v=31
46055 Par ch=2 c=64 v=45
46060 Par ch=2 c=64 v=59
46065 Par ch=2 c=64 v=72
46070 Par ch=2 c=64 v=86
46075 Par ch=2 c=64 v=100
46080 On ch=2 n=c5 v=0
46080 On ch=2 n=a#4 v=0
46080 On ch=2 n=f2 v=78
46080 Par ch=2 c=64 v=114
46320 On ch=2 n=f2 v=0
46320 On ch=2 n=f3 v=37
46560 On ch=2 n=f3 v=0
46560 On ch=2 n=g4 v=41
46560 On ch=2 n=e4 v=41
46645 Par ch=2 c=64 v=100
46650 Par ch=2 c=64 v=86
46655 Par ch=2 c=64 v=72
46660 Par ch=2 c=64 v=57
46665 Par ch=2 c=64 v=43
46670 Par ch=2 c=64 v=29
46675 Par ch=2 c=64 v=15
46680 Par ch=2 c=64 v=0
46800 On ch=2 n=e4 v=0
46800 On ch=2 n=g4 v=0
46800 On ch=2 n=a4 v=43
46800 On ch=2 n=d#4 v=43
47040 On ch=2 n=d#4 v=0
47040 On ch=2 n=a4 v=0
47040 On ch=2 n=d4 v=47
47040 On ch=2 n=a#4 v=47
47280 On ch=2 n=a#4 v=0
47280 On ch=2 n=d4 v=0
47280 On ch=2 n=c4 v=47
47485 Par ch=2 c=64 v=14
47490 Par ch=2 c=64 v=29
47495 Par ch=2 c=64 v=43
47500 Par ch=2 c=64 v=58
47505 Par ch=2 c=64 v=73
47510 Par ch=2 c=64 v=87
47515 Par ch=2 c=64 v=102
47520 On ch=2 n=c4 v=0
47520 Par ch=2 c=64 v=117
47520 On ch=2 n=f3 v=74
47760 On ch=2 n=f3 v=0
47760 On ch=2 n=f4 v=49
48000 On ch=2 n=f4 v=0
48000 On ch=2 n=e4 v=52
48000 On ch=2 n=g4 v=52
48045 Par ch=2 c=64 v=103
48050 Par ch=2 c=64 v=88
48055 Par ch=2 c=64 v=74
48060 Par ch=2 c=64 v=59
48065 Par ch=2 c=64 v=44
48070 Par ch=2 c=64 v=30
48075 Par ch=2 c=64 v=15
48080 Par ch=2 c=64 v=0
48240 On ch=2 n=g4 v=0
48240 On ch=2 n=e4 v=0
48240 On ch=2 n=a4 v=56
48240 On ch=2 n=d#4 v=56
48480 On ch=2 n=d#4 v=0
48480 On ch=2 n=a4 v=0
48480 On ch=2 n=a#4 v=58
48480 On ch=2 n=d4 v=58
48720 On ch=2 n=d4 v=0
48720 On ch=2 n=a#4 v=0
48720 On ch=2 n=f4 v=60
48960 On ch=2 n=f4 v=0
48960 Par ch=2 c=64 v=114
48960 On ch=2 n=f3 v=89
49200 On ch=2 n=f3 v=0
49200 On ch=2 n=g4 v=63
49440 On ch=2 n=g4 v=0
49440 On ch=2 n=a4 v=64
49440 On ch=2 n=f#4 v=64
49525 Par ch=2 c=64 v=100
49530 Par ch=2 c=64 v=86
49535 Par ch=2 c=64 v=72
49540 Par ch=2 c=64 v=57
49545 Par ch=2 c=64 v=43
49550 Par ch=2 c=64 v=29
49555 Par ch=2 c=64 v=15
49560 Par ch=2 c=64 v=0
49680 On ch=2 n=f#4 v=0
49680 On ch=2 n=a4 v=0
49680 On ch=2 n=f4 v=65
49680 On ch=2 n=b4 v=65
49920 On ch=2 n=b4 v=0
49920 On ch=2 n=f4 v=0
49920 On ch=2 n=c5 v=68
49920 On ch=2 n=d#4 v=68
50160 On ch=2 n=d#4 v=0
50160 On ch=2 n=c5 v=0
50160 On ch=2 n=d4 v=70
50400 On ch=2 n=d4 v=0
50400 On ch=2 n=f3 v=98
50400 Par ch=2 c=64 v=114
50640 On ch=2 n=f3 v=0
50640 On ch=2 n=g4 v=71
50880 On ch=2 n=g4 v=0
50880 On ch=2 n=f#4 v=73
50880 On ch=2 n=a4 v=73
50965 Par ch=2 c=64 v=100
50970 Par ch=2 c=64 v=86
50975 Par ch=2 c=64 v=72
50980 Par ch=2 c=64 v=57
50985 Par ch=2 c=64 v=43
50990 Par ch=2 c=64 v=29
50995 Par ch=2 c=64 v=15
51000 Par ch=2 c=64 v=0
51120 On ch=2 n=a4 v=0
51120 On ch=2 n=f#4 v=0
51120 On ch=2 n=f4 v=74
51120 On ch=2 n=b4 v=74
51360 On ch=2 n=b4 v=0
51360 On ch=2 n=f4 v=0
51360 On ch=2 n=d#4 v=78
51360 On ch=2 n=c5 v=78
51600 On ch=2 n=c5 v=0
51600 On ch=2 n=d#4 v=0
51600 On ch=2 n=g4 v=79
51840 On ch=2 n=g4 v=0
51840 Par ch=2 c=64 v=114
51840 On ch=2 n=f3 v=111
52080 On ch=2 n=f3 v=0
52080 On ch=2 n=a4 v=82
52320 On ch=2 n=a4 v=0
52320 On ch=2 n=b4 v=85
52320 On ch=2 n=g#4 v=85
52365 Par ch=2 c=64 v=1
52370 Par ch=2 c=64 v=3
52375 Par ch=2 c=64 v=5
52380 Par ch=2 c=64 v=7
52385 Par ch=2 c=64 v=9
52390 Par ch=2 c=64 v=11
52395 Par ch=2 c=64 v=10
52400 Par ch=2 c=64 v=15
52405 Par ch=2 c=64 v=14
52410 Par ch=2 c=64 v=12
52415 Par ch=2 c=64 v=10
52420 Par ch=2 c=64 v=8
52425 Par ch=2 c=64 v=6
52430 Par ch=2 c=64 v=4
52435 Par ch=2 c=64 v=2
52440 Par ch=2 c=64 v=0
52560 On ch=2 n=g#4 v=0
52560 On ch=2 n=b4 v=0
52560 On ch=2 n=c#5 v=86
52560 On ch=2 n=g4 v=86
52800 On ch=2 n=g4 v=0
52800 On ch=2 n=c#5 v=0
52800 On ch=2 n=d5 v=89
52800 On ch=2 n=f4 v=89
53040 On ch=2 n=f4 v=0
53040 On ch=2 n=d5 v=0
53040 On ch=2 n=a4 v=90
53245 Par ch=2 c=64 v=14
53250 Par ch=2 c=64 v=28
53255 Par ch=2 c=64 v=42
53260 Par ch=2 c=64 v=57
53265 Par ch=2 c=64 v=71
53270 Par ch=2 c=64 v=85
53275 Par ch=2 c=64 v=99
53280 On ch=2 n=a4 v=0
53280 Par ch=2 c=64 v=114
53280 On ch=2 n=f3 v=124
53520 On ch=2 n=f3 v=0
53520 On ch=2 n=a#4 v=95
53760 On ch=2 n=a#4 v=0
53760 On ch=2 n=c5 v=98
53760 On ch=2 n=a4 v=98
53805 Par ch=2 c=64 v=102
53810 Par ch=2 c=64 v=90
53815 Par ch=2 c=64 v=77
53820 Par ch=2 c=64 v=65
53825 Par ch=2 c=64 v=53
53830 Par ch=2 c=64 v=40
53835 Par ch=2 c=64 v=28
53840 Par ch=2 c=64 v=15
53845 Par ch=2 c=64 v=14
53850 Par ch=2 c=64 v=12
53855 Par ch=2 c=64 v=10
53860 Par ch=2 c=64 v=8
53865 Par ch=2 c=64 v=6
53870 Par ch=2 c=64 v=4
53875 Par ch=2 c=64 v=2
53880 Par ch=2 c=64 v=0
54000 On ch=2 n=a4 v=0
54000 On ch=2 n=c5 v=0
54000 On ch=2 n=g#4 v=101
54000 On ch=2 n=d5 v=101
54240 On ch=2 n=d5 v=0
54240 On ch=2 n=g#4 v=0
54240 On ch=2 n=d#5 v=106
54240 On ch=2 n=g4 v=106
54480 On ch=2 n=g4 v=0
54480 On ch=2 n=d#5 v=0
54480 On ch=2 n=f#4 v=112
54570 Par ch=2 c=64 v=1
54580 Par ch=2 c=64 v=2
54590 Par ch=2 c=64 v=3
54600 Par ch=2 c=64 v=4
54685 Par ch=2 c=64 v=18
54690 Par ch=2 c=64 v=32
54695 Par ch=2 c=64 v=46
54700 Par ch=2 c=64 v=61
54705 Par ch=2 c=64 v=75
54710 Par ch=2 c=64 v=89
54715 Par ch=2 c=64 v=103
54720 On ch=2 n=f#4 v=0
54720 On ch=2 n=f3 v=124
54720 On ch=2 n=f2 v=124
54720 Par ch=2 c=64 v=118
54960 On ch=2 n=f2 v=0
54960 On ch=2 n=f3 v=0
54960 On ch=2 n=f5 v=117
55200 On ch=2 n=f5 v=0
55200 On ch=2 n=d#6 v=117
55200 On ch=2 n=f#5 v=117
55200 On ch=2 n=a#5 v=117
55440 On ch=2 n=a#5 v=0
55440 On ch=2 n=f#5 v=0
55440 On ch=2 n=d#6 v=0
55440 On ch=2 n=f5 v=118
55480 Par ch=2 c=64 v=119
55680 On ch=2 n=f5 v=0
55680 On ch=2 n=f#5 v=118
55680 On ch=2 n=d#6 v=118
55680 On ch=2 n=a#5 v=118
55920 On ch=2 n=a#5 v=0
55920 On ch=2 n=d#6 v=0
55920 On ch=2 n=f#5 v=0
55920 On ch=2 n=f5 v=119
56160 On ch=2 n=f5 v=0
56160 On ch=2 n=f#5 v=119
56160 On ch=2 n=a#5 v=119
56160 On ch=2 n=d#6 v=119
56400 On ch=2 n=d#6 v=0
56400 On ch=2 n=a#5 v=0
56400 On ch=2 n=f#5 v=0
56400 On ch=2 n=f5 v=119
56640 On ch=2 n=f5 v=0
56640 On ch=2 n=d#6 v=119
56640 On ch=2 n=a#5 v=119
56640 On ch=2 n=f#5 v=119
56880 On ch=2 n=f#5 v=0
56880 On ch=2 n=a#5 v=0
56880 On ch=2 n=d#6 v=0
56880 On ch=2 n=f5 v=119
57080 Par ch=2 c=64 v=118
57120 On ch=2 n=f5 v=0
57120 On ch=2 n=a#5 v=119
57120 On ch=2 n=f#5 v=119
57120 On ch=2 n=d#6 v=119
57360 On ch=2 n=d#6 v=0
57360 On ch=2 n=f#5 v=0
57360 On ch=2 n=a#5 v=0
57360 On ch=2 n=f5 v=118
57445 Par ch=2 c=64 v=104
57450 Par ch=2 c=64 v=89
57455 Par ch=2 c=64 v=74
57460 Par ch=2 c=64 v=59
57465 Par ch=2 c=64 v=45
57470 Par ch=2 c=64 v=30
57475 Par ch=2 c=64 v=15
57480 Par ch=2 c=64 v=0
57600 On ch=2 n=f5 v=0
57600 On ch=2 n=f#5 v=117
57600 On ch=2 n=d#6 v=117
57600 On ch=2 n=a5 v=117
57840 On ch=2 n=a5 v=0
57840 On ch=2 n=d#6 v=0
57840 On ch=2 n=f#5 v=0
57840 On ch=2 n=d6 v=115
57840 On ch=2 n=f5 v=115
58080 On ch=2 n=f5 v=0
58080 On ch=2 n=d6 v=0
58080 On ch=2 n=e5 v=111
58080 On ch=2 n=g5 v=111
58320 On ch=2 n=g5 v=0
58320 On ch=2 n=e5 v=0
58320 On ch=2 n=a5 v=106
58320 On ch=2 n=d#5 v=106
58560 On ch=2 n=d#5 v=0
58560 On ch=2 n=a5 v=0
58560 On ch=2 n=d5 v=103
58560 On ch=2 n=a#5 v=103
58800 On ch=2 n=a#5 v=0
58800 On ch=2 n=d5 v=0
58800 On ch=2 n=f5 v=101
58800 On ch=2 n=c#5 v=101
59040 On ch=2 n=c#5 v=0
59040 On ch=2 n=f5 v=0
59040 On ch=2 n=c5 v=95
59040 On ch=2 n=g#5 v=95
59280 On ch=2 n=g#5 v=0
59280 On ch=2 n=c5 v=0
59280 On ch=2 n=a#4 v=90
59280 On ch=2 n=f#5 v=90
59520 On ch=2 n=f#5 v=0
59520 On ch=2 n=a#4 v=0
59520 On ch=2 n=c5 v=87
59520 On ch=2 n=a4 v=87
59760 On ch=2 n=a4 v=0
59760 On ch=2 n=c5 v=0
59760 On ch=2 n=d5 v=81
59760 On ch=2 n=g#4 v=81
60000 On ch=2 n=g#4 v=0
60000 On ch=2 n=d5 v=0
60000 On ch=2 n=g4 v=78
60000 On ch=2 n=d#5 v=78
60240 On ch=2 n=d#5 v=0
60240 On ch=2 n=g4 v=0
60240 On ch=2 n=f#4 v=75
60240 On ch=2 n=a#4 v=75
60480 On ch=2 n=a#4 v=0
60480 On ch=2 n=f#4 v=0
60480 On ch=2 n=f4 v=74
60480 On ch=2 n=c#5 v=74
60720 On ch=2 n=c#5 v=0
60720 On ch=2 n=f4 v=0
60720 On ch=2 n=c5 v=73
60720 On ch=2 n=e4 v=73
60960 On ch=2 n=e4 v=0
60960 On ch=2 n=c5 v=0
60960 On ch=2 n=g4 v=70
60960 On ch=2 n=d#4 v=70
61200 On ch=2 n=d#4 v=0
61200 On ch=2 n=g4 v=0
61200 On ch=2 n=g#4 v=68
61200 On ch=2 n=d4 v=68
61440 On ch=2 n=d4 v=0
61440 On ch=2 n=g#4 v=0
61440 On ch=2 n=c#4 v=68
61440 On ch=2 n=a4 v=68
61680 On ch=2 n=a4 v=0
61680 On ch=2 n=c#4 v=0
61680 On ch=2 n=d#4 v=65
61680 On ch=2 n=c4 v=65
61920 On ch=2 n=c4 v=0
61920 On ch=2 n=d#4 v=0
61920 On ch=2 n=a#3 v=62
61920 On ch=2 n=f#4 v=62
62160 On ch=2 n=f#4 v=0
62160 On ch=2 n=a#3 v=0
62160 On ch=2 n=f4 v=59
62160 On ch=2 n=a3 v=59
62400 On ch=2 n=a3 v=0
62400 On ch=2 n=f4 v=0
62400 On ch=2 n=g#3 v=56
62400 On ch=2 n=c4 v=56
62640 On ch=2 n=c4 v=0
62640 On ch=2 n=g#3 v=0
62640 On ch=2 n=g3 v=51
62640 On ch=2 n=d4 v=51
62880 On ch=2 n=d4 v=0
62880 On ch=2 n=g3 v=0
62880 On ch=2 n=d#4 v=49
62880 On ch=2 n=f#3 v=49
63120 On ch=2 n=f#3 v=0
63120 On ch=2 n=d#4 v=0
63120 On ch=2 n=f3 v=47
63360 On ch=2 n=f3 v=0
63360 On ch=2 n=a#2 v=65
63360 Par ch=2 c=64 v=114
63600 On ch=2 n=a#2 v=0
63600 On ch=2 n=e4 v=64
63840 On ch=2 n=e4 v=0
63840 On ch=2 n=f4 v=64
63925 Par ch=2 c=64 v=100
63930 Par ch=2 c=64 v=86
63935 Par ch=2 c=64 v=72
63940 Par ch=2 c=64 v=57
63945 Par ch=2 c=64 v=43
63950 Par ch=2 c=64 v=29
63955 Par ch=2 c=64 v=15
63960 Par ch=2 c=64 v=0
64080 On ch=2 n=f4 v=0
64080 On ch=2 n=a#4 v=64
64320 On ch=2 n=a#4 v=0
64320 On ch=2 n=a4 v=64
64560 On ch=2 n=a4 v=0
64560 On ch=2 n=g4 v=64
64800 On ch=2 n=g4 v=0
64800 Par ch=2 c=64 v=114
64800 On ch=2 n=f3 v=64
65040 On ch=2 n=f3 v=0
65040 On ch=2 n=f#4 v=84
65040 On ch=2 n=d#5 v=84
65280 On ch=2 n=d#5 v=0
65280 On ch=2 n=f#4 v=0
65280 On ch=2 n=f4 v=78
65280 On ch=2 n=a4 v=78
65365 Par ch=2 c=64 v=100
65370 Par ch=2 c=64 v=86
65375 Par ch=2 c=64 v=72
65380 Par ch=2 c=64 v=57
65385 Par ch=2 c=64 v=43
65390 Par ch=2 c=64 v=29
65395 Par ch=2 c=64 v=15
65400 Par ch=2 c=64 v=0
65520 On ch=2 n=a4 v=0
65520 On ch=2 n=f4 v=0
65520 On ch=2 n=a#4 v=70
65520 On ch=2 n=e4 v=70
65760 On ch=2 n=e4 v=0
65760 On ch=2 n=a#4 v=0
65760 On ch=2 n=d#4 v=65
65760 On ch=2 n=c5 v=65
66000 On ch=2 n=c5 v=0
66000 On ch=2 n=d#4 v=0
66000 On ch=2 n=g4 v=58
66240 On ch=2 n=g4 v=0
66240 On ch=2 n=a#3 v=64
66240 Par ch=2 c=64 v=114
66480 On ch=2 n=a#3 v=0
66480 On ch=2 n=e4 v=64
66720 On ch=2 n=e4 v=0
66720 On ch=2 n=f4 v=64
66805 Par ch=2 c=64 v=100
66810 Par ch=2 c=64 v=86
66815 Par ch=2 c=64 v=72
66820 Par ch=2 c=64 v=57
66825 Par ch=2 c=64 v=43
66830 Par ch=2 c=64 v=29
66835 Par ch=2 c=64 v=15
66840 Par ch=2 c=64 v=0
66960 On ch=2 n=f4 v=0
66960 On ch=2 n=a#4 v=64
67200 On ch=2 n=a#4 v=0
67200 On ch=2 n=a4 v=64
67440 On ch=2 n=a4 v=0
67440 On ch=2 n=g4 v=64
67680 On ch=2 n=g4 v=0
67680 On ch=2 n=f3 v=67
67680 Par ch=2 c=64 v=114
67920 On ch=2 n=f3 v=0
67920 On ch=2 n=f#4 v=82
67920 On ch=2 n=d#5 v=82
68160 On ch=2 n=d#5 v=0
68160 On ch=2 n=f#4 v=0
68160 On ch=2 n=f4 v=76
68160 On ch=2 n=a4 v=76
68245 Par ch=2 c=64 v=100
68250 Par ch=2 c=64 v=86
68255 Par ch=2 c=64 v=72
68260 Par ch=2 c=64 v=57
68265 Par ch=2 c=64 v=43
68270 Par ch=2 c=64 v=29
68275 Par ch=2 c=64 v=15
68280 Par ch=2 c=64 v=0
68400 On ch=2 n=a4 v=0
68400 On ch=2 n=f4 v=0
68400 On ch=2 n=a#4 v=71
68400 On ch=2 n=e4 v=71
68640 On ch=2 n=e4 v=0
68640 On ch=2 n=a#4 v=0
68640 On ch=2 n=c5 v=67
68640 On ch=2 n=d#4 v=67
68880 On ch=2 n=d#4 v=0
68880 On ch=2 n=c5 v=0
68880 On ch=2 n=g4 v=60
69120 On ch=2 n=g4 v=0
69120 On ch=2 n=a#2 v=52
69360 On ch=2 n=a#2 v=0
69360 On ch=2 n=e3 v=56
69600 On ch=2 n=e3 v=0
69600 On ch=2 n=f3 v=59
69840 On ch=2 n=f3 v=0
69840 On ch=2 n=a#3 v=63
70080 On ch=2 n=a#3 v=0
70080 On ch=2 n=a3 v=70
70320 On ch=2 n=a3 v=0
70320 On ch=2 n=g3 v=76
70560 On ch=2 n=g3 v=0
70560 On ch=2 n=g2 v=95
70560 Par ch=2 c=64 v=114
71125 Par ch=2 c=64 v=100
71130 Par ch=2 c=64 v=86
71135 Par ch=2 c=64 v=72
71140 Par ch=2 c=64 v=57
71145 Par ch=2 c=64 v=43
71150 Par ch=2 c=64 v=29
71155 Par ch=2 c=64 v=15
71160 Par ch=2 c=64 v=0
71520 On ch=2 n=g2 v=0
71520 On ch=2 n=a2 v=81
72000 On ch=2 n=a2 v=0
72000 On ch=2 n=a#2 v=86
72240 On ch=2 n=a#2 v=0
72240 On ch=2 n=e3 v=59
72480 On ch=2 n=e3 v=0
72480 On ch=2 n=f3 v=67
72720 On ch=2 n=f3 v=0
72720 On ch=2 n=a#3 v=71
72960 On ch=2 n=a#3 v=0
72960 On ch=2 n=a3 v=79
73200 On ch=2 n=a3 v=0
73200 On ch=2 n=g3 v=86
73440 On ch=2 n=g3 v=0
73440 Par ch=2 c=64 v=114
73440 On ch=2 n=g2 v=97
74005 Par ch=2 c=64 v=100
74010 Par ch=2 c=64 v=86
74015 Par ch=2 c=64 v=72
74020 Par ch=2 c=64 v=57
74025 Par ch=2 c=64 v=43
74030 Par ch=2 c=64 v=29
74035 Par ch=2 c=64 v=15
74040 Par ch=2 c=64 v=0
74400 On ch=2 n=g2 v=0
74400 On ch=2 n=a2 v=86
74880 On ch=2 n=a2 v=0
74880 On ch=2 n=a#2 v=86
75120 On ch=2 n=a#2 v=0
75120 On ch=2 n=e3 v=74
75360 On ch=2 n=e3 v=0
75360 On ch=2 n=f3 v=68
75600 On ch=2 n=f3 v=0
75600 On ch=2 n=a#3 v=64
75840 On ch=2 n=a#3 v=0
75840 On ch=2 n=a3 v=60
76080 On ch=2 n=a3 v=0
76080 On ch=2 n=g3 v=57
76320 On ch=2 n=g3 v=0
76320 On ch=2 n=a#2 v=53
76560 On ch=2 n=a#2 v=0
76560 On ch=2 n=e3 v=45
76800 On ch=2 n=e3 v=0
76800 On ch=2 n=f3 v=47
77040 On ch=2 n=f3 v=0
77040 On ch=2 n=c4 v=54
77280 On ch=2 n=c4 v=0
77280 On ch=2 n=a3 v=59
77520 On ch=2 n=a3 v=0
77520 On ch=2 n=a#3 v=65
77760 On ch=2 n=a#3 v=0
77760 On ch=2 n=d#4 v=70
78000 On ch=2 n=d#4 v=0
78000 On ch=2 n=c#4 v=76
78240 On ch=2 n=c#4 v=0
78240 On ch=2 n=d4 v=81
78480 On ch=2 n=d4 v=0
78480 On ch=2 n=g4 v=90
78720 On ch=2 n=g4 v=0
78720 On ch=2 n=e4 v=95
78960 On ch=2 n=e4 v=0
78960 On ch=2 n=f4 v=101
79200 On ch=2 n=f4 v=0
79200 On ch=2 n=d5 v=122
79680 On ch=2 n=d5 v=0
80565 Par ch=2 c=64 v=12
80570 Par ch=2 c=64 v=24
80575 Par ch=2 c=64 v=37
80580 Par ch=2 c=64 v=49
80585 Par ch=2 c=64 v=61
80590 Par ch=2 c=64 v=74
80595 Par ch=2 c=64 v=86
80600 Par ch=2 c=64 v=99
80605 Par ch=2 c=64 v=100
80610 Par ch=2 c=64 v=102
80615 Par ch=2 c=64 v=104
80620 Par ch=2 c=64 v=106
80625 Par ch=2 c=64 v=108
80630 Par ch=2 c=64 v=110
80635 Par ch=2 c=64 v=112
80640 Par ch=2 c=64 v=114
80640 On ch=2 n=f2 v=112
80640 On ch=2 n=f3 v=112
80800 Par ch=2 c=64 v=115
81480 Par ch=2 c=64 v=114
81885 Par ch=2 c=64 v=101
81890 Par ch=2 c=64 v=87
81895 Par ch=2 c=64 v=74
81900 Par ch=2 c=64 v=60
81905 Par ch=2 c=64 v=47
81910 Par ch=2 c=64 v=33
81915 Par ch=2 c=64 v=20
81920 Par ch=2 c=64 v=6
81970 Par ch=2 c=64 v=5
81980 Par ch=2 c=64 v=4
81985 Par ch=2 c=64 v=3
81995 Par ch=2 c=64 v=2
82000 Par ch=2 c=64 v=1
82005 Par ch=2 c=64 v=10
82010 Par ch=2 c=64 v=26
82015 Par ch=2 c=64 v=38
82020 Par ch=2 c=64 v=51
82025 Par ch=2 c=64 v=64
82030 Par ch=2 c=64 v=76
82035 Par ch=2 c=64 v=89
82040 Par ch=2 c=64 v=102
82045 Par ch=2 c=64 v=103
82050 Par ch=2 c=64 v=105
82055 Par ch=2 c=64 v=107
82060 Par ch=2 c=64 v=109
82065 Par ch=2 c=64 v=111
82070 Par ch=2 c=64 v=113
82075 Par ch=2 c=64 v=115
82080 On ch=2 n=f3 v=0
82080 On ch=2 n=f2 v=0
82080 On ch=2 n=a#2 v=96
82080 Par ch=2 c=64 v=117
82080 On ch=2 n=a#3 v=96
83360 Par ch=2 c=64 v=118
83405 Par ch=2 c=64 v=106
83410 Par ch=2 c=64 v=93
83415 Par ch=2 c=64 v=80
83420 Par ch=2 c=64 v=67
83425 Par ch=2 c=64 v=54
83430 Par ch=2 c=64 v=41
83435 Par ch=2 c=64 v=28
83440 Par ch=2 c=64 v=15
83445 Par ch=2 c=64 v=14
83450 Par ch=2 c=64 v=12
83455 Par ch=2 c=64 v=10
83460 Par ch=2 c=64 v=8
83465 Par ch=2 c=64 v=6
83470 Par ch=2 c=64 v=4
83475 Par ch=2 c=64 v=2
83480 Par ch=2 c=64 v=0
83520 On ch=2 n=a#3 v=0
83520 On ch=2 n=a#2 v=0
83520 Meta TrkEnd
TrkEnd
MTrk
0 SeqSpec 43 00 01 00
0 SeqSpec 4a 41 5a 5a 01 00 00 00 00 00 00 00 00 00 00 00 00 00 00 00
0 Meta TrkEnd
TrkEnd
MTrk
0 SeqSpec 43 00 01 00
0 Meta TrkName "Chopin, Op. 28, No. 21"
0 Par ch=1 c=0 v=0
0 SeqSpec 4a 41 5a 5a 01 00 00 00 00 00 00 00 00 00 00 00 00 00 00 00
0 Meta TrkEnd
TrkEnd
MTrk
0 SeqSpec 43 00 01 00
0 Meta TrkName "Prelude in Bb Major"
0 Par ch=1 c=0 v=0
0 SeqSpec 4a 41 5a 5a 01 00 00 00 00 00 00 00 00 00 00 00 00 00 00 00
0 Meta TrkEnd
TrkEnd
MTrk
0 SeqSpec 43 00 01 00
0 SeqSpec 4a 41 5a 5a 01 00 00 00 00 00 00 00 00 00 00 00 00 00 00 00
0 Meta TrkEnd
TrkEnd
MTrk
0 SeqSpec 43 00 01 00
0 Meta TrkName "Sequenced by Mark J. Walter"
0 Par ch=1 c=0 v=0
0 SeqSpec 4a 41 5a 5a 01 00 00 00 00 00 00 00 00 00 00 00 00 00 00 00
0 Meta TrkEnd
TrkEnd
MTrk
0 SeqSpec 43 00 01 00
0 Meta TrkName "mwalter@bcpl.net"
0 Par ch=1 c=0 v=0
0 SeqSpec 4a 41 5a 5a 01 00 00 00 00 00 00 00 00 00 00 00 00 00 00 00
0 Meta TrkEnd
TrkEnd
