MFile 1 11 480
MTrk
0 TimeSig 4/4 24 8
0 KeySig 0 major
0 Tempo 681818
3840 TimeSig 3/4 24 8
5280 TimeSig 6/4 24 8
8160 TimeSig 4/4 24 8
29280 Tempo 697674
30240 Tempo 714286
31200 Tempo 731707
32160 Tempo 750000
33120 Tempo 681818
44640 TimeSig 6/4 24 8
47520 TimeSig 4/4 24 8
49440 TimeSig 3/4 24 8
50880 TimeSig 4/4 24 8
60480 Tempo 789474
72000 Tempo 681818
79680 Tempo 750000
80640 Tempo 833333
81600 Tempo 681818
95040 Tempo 750000
96960 Tempo 833333
98880 Tempo 712483
98880 Meta TrkEnd
TrkEnd
MTrk
0 SeqSpec 43 00 01 00
0 Meta TrkName "Right Treble"
0 Meta 0x21 00
96 On ch=1 n=a#5 v=40
192 On ch=1 n=a#5 v=0
192 On ch=1 n=f#5 v=40
288 On ch=1 n=f#5 v=0
288 On ch=1 n=d#5 v=40
384 On ch=1 n=d#5 v=0
384 On ch=1 n=c#5 v=40
480 On ch=1 n=c#5 v=0
576 On ch=1 n=g#5 v=40
672 On ch=1 n=g#5 v=0
672 On ch=1 n=e5 v=40
768 On ch=1 n=e5 v=0
768 On ch=1 n=c#5 v=40
864 On ch=1 n=c#5 v=0
864 On ch=1 n=a#4 v=40
960 On ch=1 n=a#4 v=0
1056 On ch=1 n=a#5 v=40
1152 On ch=1 n=a#5 v=0
1152 On ch=1 n=f#5 v=40
1248 On ch=1 n=f#5 v=0
1248 On ch=1 n=d#5 v=40
1344 On ch=1 n=d#5 v=0
1344 On ch=1 n=c#5 v=40
1440 On ch=1 n=c#5 v=0
1536 On ch=1 n=g#5 v=40
1632 On ch=1 n=g#5 v=0
1632 On ch=1 n=e5 v=40
1728 On ch=1 n=e5 v=0
1728 On ch=1 n=c#5 v=40
1824 On ch=1 n=c#5 v=0
1824 On ch=1 n=a#4 v=40
1920 On ch=1 n=a#4 v=0
2480 On ch=1 n=c#7 v=70
2560 On ch=1 n=c#7 v=0
2560 On ch=1 n=c#6 v=70
2640 On ch=1 n=c#6 v=0
2720 On ch=1 n=c#6 v=60
2800 On ch=1 n=c#6 v=0
2800 On ch=1 n=c#5 v=60
2880 On ch=1 n=c#5 v=0
3440 On ch=1 n=c#7 v=70
3520 On ch=1 n=c#7 v=0
3520 On ch=1 n=c#6 v=70
3600 On ch=1 n=c#6 v=0
3680 On ch=1 n=c#6 v=60
3760 On ch=1 n=c#6 v=0
3760 On ch=1 n=c#5 v=60
3840 On ch=1 n=c#5 v=0
3936 On ch=1 n=a#5 v=40
4032 On ch=1 n=a#5 v=0
4032 On ch=1 n=f#5 v=40
4128 On ch=1 n=f#5 v=0
4128 On ch=1 n=d#5 v=40
4224 On ch=1 n=d#5 v=0
4224 On ch=1 n=c#5 v=40
4320 On ch=1 n=c#5 v=0
4416 On ch=1 n=g#5 v=40
4512 On ch=1 n=g#5 v=0
4512 On ch=1 n=e5 v=40
4608 On ch=1 n=e5 v=0
4608 On ch=1 n=c#5 v=40
4704 On ch=1 n=c#5 v=0
4704 On ch=1 n=a#4 v=40
4800 On ch=1 n=a#4 v=0
4896 On ch=1 n=f#5 v=40
4992 On ch=1 n=f#5 v=0
4992 On ch=1 n=d#5 v=40
5088 On ch=1 n=d#5 v=0
5088 On ch=1 n=b4 v=40
5184 On ch=1 n=b4 v=0
5184 On ch=1 n=g#4 v=40
5280 On ch=1 n=g#4 v=0
8880 On ch=1 n=g#5 v=60
8880 On ch=1 n=c#5 v=60
9120 On ch=1 n=c#5 v=0
9120 On ch=1 n=g#5 v=0
9216 On ch=1 n=a#5 v=40
9312 On ch=1 n=a#5 v=0
9312 On ch=1 n=f#5 v=40
9408 On ch=1 n=f#5 v=0
9408 On ch=1 n=d#5 v=40
9504 On ch=1 n=d#5 v=0
9504 On ch=1 n=c#5 v=40
9600 On ch=1 n=c#5 v=0
9696 On ch=1 n=g#5 v=40
9792 On ch=1 n=g#5 v=0
9792 On ch=1 n=e5 v=40
9888 On ch=1 n=e5 v=0
9888 On ch=1 n=c#5 v=40
9984 On ch=1 n=c#5 v=0
9984 On ch=1 n=a#4 v=40
10080 On ch=1 n=a#4 v=0
10800 On ch=1 n=g#5 v=60
10800 On ch=1 n=c#5 v=60
11040 On ch=1 n=c#5 v=0
11040 On ch=1 n=g#5 v=0
11136 On ch=1 n=a#5 v=40
11232 On ch=1 n=a#5 v=0
11232 On ch=1 n=f#5 v=40
11328 On ch=1 n=f#5 v=0
11328 On ch=1 n=d#5 v=40
11424 On ch=1 n=d#5 v=0
11424 On ch=1 n=c#5 v=40
11520 On ch=1 n=c#5 v=0
11616 On ch=1 n=g#5 v=40
11712 On ch=1 n=g#5 v=0
11712 On ch=1 n=e5 v=40
11808 On ch=1 n=e5 v=0
11808 On ch=1 n=c#5 v=40
11904 On ch=1 n=c#5 v=0
11904 On ch=1 n=a#4 v=40
12000 On ch=1 n=a#4 v=0
17760 On ch=1 n=f#6 v=80
19620 On ch=1 n=d5 v=80
19680 On ch=1 n=d5 v=0
19680 On ch=1 n=c#5 v=80
21540 On ch=1 n=g6 v=80
21600 On ch=1 n=g6 v=0
21600 On ch=1 n=c#5 v=0
21600 On ch=1 n=f#6 v=0
21600 On ch=1 n=f#6 v=80
22500 On ch=1 n=d5 v=80
22560 On ch=1 n=d5 v=0
22560 On ch=1 n=c#5 v=80
23520 On ch=1 n=f#6 v=0
24480 On ch=1 n=c#5 v=0
24480 On ch=1 n=a#4 v=80
25440 On ch=1 n=a#4 v=0
25440 On ch=1 n=f#4 v=80
29280 On ch=1 n=f#4 v=0
33120 On ch=1 n=c#8 v=40
33120 On ch=1 n=c#7 v=40
33360 On ch=1 n=c#7 v=0
33360 On ch=1 n=c#8 v=0
33360 On ch=1 n=d8 v=40
33360 On ch=1 n=d7 v=40
33600 On ch=1 n=d7 v=0
33600 On ch=1 n=d8 v=0
33600 On ch=1 n=d8 v=40
33600 On ch=1 n=d7 v=40
34560 On ch=1 n=d7 v=0
34560 On ch=1 n=d8 v=0
34560 On ch=1 n=g8 v=40
34560 On ch=1 n=g7 v=40
35040 On ch=1 n=g7 v=0
35040 On ch=1 n=g8 v=0
35040 On ch=1 n=d#8 v=40
35040 On ch=1 n=d#7 v=40
35520 On ch=1 n=d#7 v=0
35520 On ch=1 n=d#8 v=0
35520 On ch=1 n=g#8 v=40
35520 On ch=1 n=g#7 v=40
36480 On ch=1 n=g#7 v=0
36480 On ch=1 n=g#8 v=0
36480 On ch=1 n=e8 v=40
36480 On ch=1 n=e7 v=40
36960 On ch=1 n=e7 v=0
36960 On ch=1 n=e8 v=0
36960 On ch=1 n=c#8 v=40
36960 On ch=1 n=c#7 v=40
37440 On ch=1 n=c#7 v=0
37440 On ch=1 n=c#8 v=0
37440 On ch=1 n=c#7 v=50
37440 On ch=1 n=c#6 v=50
38016 On ch=1 n=a#5 v=40
38112 On ch=1 n=a#5 v=0
38112 On ch=1 n=f#5 v=40
38208 On ch=1 n=f#5 v=0
38208 On ch=1 n=d#5 v=40
38304 On ch=1 n=d#5 v=0
38304 On ch=1 n=c#5 v=40
38400 On ch=1 n=c#5 v=0
38496 On ch=1 n=g#5 v=40
38592 On ch=1 n=g#5 v=0
38592 On ch=1 n=e5 v=40
38688 On ch=1 n=e5 v=0
38688 On ch=1 n=c#5 v=40
38784 On ch=1 n=c#5 v=0
38784 On ch=1 n=a#4 v=40
38880 On ch=1 n=a#4 v=0
38880 On ch=1 n=c#6 v=0
38880 On ch=1 n=c#7 v=0
38880 On ch=1 n=c#8 v=40
38880 On ch=1 n=c#7 v=40
39360 On ch=1 n=c#7 v=0
39360 On ch=1 n=c#8 v=0
39360 On ch=1 n=c#7 v=50
39360 On ch=1 n=c#6 v=50
40400 On ch=1 n=c#7 v=70
40480 On ch=1 n=c#7 v=0
40480 On ch=1 n=c#6 v=70
40560 On ch=1 n=c#6 v=0
40640 On ch=1 n=c#6 v=60
40720 On ch=1 n=c#6 v=0
40720 On ch=1 n=c#5 v=60
40800 On ch=1 n=c#5 v=0
40800 On ch=1 n=c#6 v=0
40800 On ch=1 n=c#7 v=0
40800 On ch=1 n=c#8 v=40
40800 On ch=1 n=c#7 v=40
41040 On ch=1 n=c#7 v=0
41040 On ch=1 n=c#8 v=0
41040 On ch=1 n=d8 v=40
41040 On ch=1 n=d7 v=40
41280 On ch=1 n=d7 v=0
41280 On ch=1 n=d8 v=0
41280 On ch=1 n=d8 v=40
41280 On ch=1 n=d7 v=40
42240 On ch=1 n=d7 v=0
42240 On ch=1 n=d8 v=0
42240 On ch=1 n=g8 v=40
42240 On ch=1 n=g7 v=40
42720 On ch=1 n=g7 v=0
42720 On ch=1 n=g8 v=0
42720 On ch=1 n=e8 v=40
42720 On ch=1 n=e7 v=40
43200 On ch=1 n=e7 v=0
43200 On ch=1 n=e8 v=0
43200 On ch=1 n=a8 v=40
43200 On ch=1 n=a7 v=40
44160 On ch=1 n=a7 v=0
44160 On ch=1 n=a8 v=0
44160 On ch=1 n=f8 v=40
44160 On ch=1 n=f7 v=40
44640 On ch=1 n=f7 v=0
44640 On ch=1 n=f8 v=0
44640 On ch=1 n=c#8 v=40
44640 On ch=1 n=c#7 v=40
45120 On ch=1 n=c#7 v=0
45120 On ch=1 n=c#8 v=0
45120 On ch=1 n=c#7 v=50
45120 On ch=1 n=c#6 v=50
45696 On ch=1 n=a#5 v=40
45792 On ch=1 n=a#5 v=0
45792 On ch=1 n=f#5 v=40
45888 On ch=1 n=f#5 v=0
45888 On ch=1 n=d#5 v=40
45984 On ch=1 n=d#5 v=0
45984 On ch=1 n=c#5 v=40
46080 On ch=1 n=c#5 v=0
46080 On ch=1 n=c#6 v=0
46080 On ch=1 n=c#7 v=0
46176 On ch=1 n=g#5 v=40
46272 On ch=1 n=g#5 v=0
46272 On ch=1 n=e5 v=40
46368 On ch=1 n=e5 v=0
46368 On ch=1 n=c#5 v=40
46464 On ch=1 n=c#5 v=0
46464 On ch=1 n=a#4 v=40
46560 On ch=1 n=a#4 v=0
46656 On ch=1 n=a#5 v=40
46752 On ch=1 n=a#5 v=0
46752 On ch=1 n=f#5 v=40
46848 On ch=1 n=f#5 v=0
46848 On ch=1 n=d#5 v=40
46944 On ch=1 n=d#5 v=0
46944 On ch=1 n=c#5 v=40
47040 On ch=1 n=c#5 v=0
47136 On ch=1 n=g#5 v=40
47232 On ch=1 n=g#5 v=0
47232 On ch=1 n=e5 v=40
47328 On ch=1 n=e5 v=0
47328 On ch=1 n=c#5 v=40
47424 On ch=1 n=c#5 v=0
47424 On ch=1 n=a#4 v=40
47520 On ch=1 n=a#4 v=0
48080 On ch=1 n=c#7 v=70
48160 On ch=1 n=c#7 v=0
48160 On ch=1 n=c#6 v=70
48240 On ch=1 n=c#6 v=0
48320 On ch=1 n=c#6 v=60
48400 On ch=1 n=c#6 v=0
48400 On ch=1 n=c#5 v=60
48480 On ch=1 n=c#5 v=0
49040 On ch=1 n=c#7 v=70
49120 On ch=1 n=c#7 v=0
49120 On ch=1 n=c#6 v=70
49200 On ch=1 n=c#6 v=0
49280 On ch=1 n=c#6 v=60
49360 On ch=1 n=c#6 v=0
49360 On ch=1 n=c#5 v=60
49440 On ch=1 n=c#5 v=0
49536 On ch=1 n=a#5 v=40
49632 On ch=1 n=a#5 v=0
49632 On ch=1 n=f#5 v=40
49728 On ch=1 n=f#5 v=0
49728 On ch=1 n=d#5 v=40
49824 On ch=1 n=d#5 v=0
49824 On ch=1 n=c#5 v=40
49920 On ch=1 n=c#5 v=0
50016 On ch=1 n=g#5 v=40
50112 On ch=1 n=g#5 v=0
50112 On ch=1 n=e5 v=40
50208 On ch=1 n=e5 v=0
50208 On ch=1 n=c#5 v=40
50304 On ch=1 n=c#5 v=0
50304 On ch=1 n=a#4 v=40
50400 On ch=1 n=a#4 v=0
50496 On ch=1 n=f#5 v=40
50592 On ch=1 n=f#5 v=0
50592 On ch=1 n=d#5 v=40
50688 On ch=1 n=d#5 v=0
50688 On ch=1 n=b4 v=40
50784 On ch=1 n=b4 v=0
50784 On ch=1 n=g#4 v=40
50880 On ch=1 n=g#4 v=0
55020 On ch=1 n=g5 v=70
55080 On ch=1 n=g5 v=0
55080 On ch=1 n=c#6 v=70
55140 On ch=1 n=c#6 v=0
55140 On ch=1 n=f#6 v=70
55200 On ch=1 n=f#6 v=0
55200 On ch=1 n=g6 v=80
55260 On ch=1 n=g6 v=0
55260 On ch=1 n=g6 v=80
55320 On ch=1 n=g6 v=0
55320 On ch=1 n=c#7 v=80
55380 On ch=1 n=c#7 v=0
55380 On ch=1 n=f#7 v=80
55440 On ch=1 n=f#7 v=0
55440 On ch=1 n=g7 v=90
55500 On ch=1 n=g7 v=0
55500 On ch=1 n=g7 v=90
55560 On ch=1 n=g7 v=0
55560 On ch=1 n=c#8 v=90
55620 On ch=1 n=c#8 v=0
55620 On ch=1 n=f#8 v=90
55680 On ch=1 n=f#8 v=0
55680 On ch=1 n=g8 v=100
55920 On ch=1 n=g8 v=0
56100 On ch=1 n=a#5 v=120
56100 On ch=1 n=f#5 v=120
56100 On ch=1 n=d#5 v=120
56160 On ch=1 n=d#5 v=0
56160 On ch=1 n=f#5 v=0
56160 On ch=1 n=a#5 v=0
56940 On ch=1 n=g5 v=70
57000 On ch=1 n=g5 v=0
57000 On ch=1 n=c#6 v=70
57060 On ch=1 n=c#6 v=0
57060 On ch=1 n=f#6 v=70
57120 On ch=1 n=f#6 v=0
57120 On ch=1 n=g6 v=80
57180 On ch=1 n=g6 v=0
57180 On ch=1 n=g6 v=80
57240 On ch=1 n=g6 v=0
57240 On ch=1 n=c#7 v=80
57300 On ch=1 n=c#7 v=0
57300 On ch=1 n=f#7 v=80
57360 On ch=1 n=f#7 v=0
57360 On ch=1 n=g7 v=90
57420 On ch=1 n=g7 v=0
57420 On ch=1 n=g7 v=90
57480 On ch=1 n=g7 v=0
57480 On ch=1 n=c#8 v=90
57540 On ch=1 n=c#8 v=0
57540 On ch=1 n=f#8 v=90
57600 On ch=1 n=f#8 v=0
57600 On ch=1 n=g8 v=100
57840 On ch=1 n=g8 v=0
58020 On ch=1 n=c6 v=120
58020 On ch=1 n=g#5 v=120
58020 On ch=1 n=d#5 v=120
58080 On ch=1 n=d#5 v=0
58080 On ch=1 n=g#5 v=0
58080 On ch=1 n=c6 v=0
60536 On ch=1 n=d#5 v=50
60592 On ch=1 n=d#5 v=0
60592 On ch=1 n=g#5 v=50
60648 On ch=1 n=g#5 v=0
60648 On ch=1 n=d#6 v=50
60704 On ch=1 n=d#6 v=0
60704 On ch=1 n=d#6 v=50
60760 On ch=1 n=d#6 v=0
60760 On ch=1 n=g#6 v=50
60816 On ch=1 n=g#6 v=0
60816 On ch=1 n=d#7 v=50
60872 On ch=1 n=d#7 v=0
60872 On ch=1 n=d#7 v=50
60928 On ch=1 n=d#7 v=0
60928 On ch=1 n=g#7 v=50
60984 On ch=1 n=g#7 v=0
60984 On ch=1 n=d#8 v=50
61040 On ch=1 n=d#8 v=0
61040 On ch=1 n=g#7 v=50
61096 On ch=1 n=g#7 v=0
61096 On ch=1 n=d#7 v=50
61152 On ch=1 n=d#7 v=0
61152 On ch=1 n=d#7 v=50
61208 On ch=1 n=d#7 v=0
61208 On ch=1 n=g#6 v=50
61264 On ch=1 n=g#6 v=0
61264 On ch=1 n=d#6 v=50
61320 On ch=1 n=d#6 v=0
61320 On ch=1 n=d#6 v=50
61376 On ch=1 n=d#6 v=0
61376 On ch=1 n=g#5 v=50
61440 On ch=1 n=g#5 v=0
61496 On ch=1 n=d#5 v=50
61552 On ch=1 n=d#5 v=0
61552 On ch=1 n=g#5 v=50
61608 On ch=1 n=g#5 v=0
61608 On ch=1 n=d#6 v=50
61664 On ch=1 n=d#6 v=0
61664 On ch=1 n=d#6 v=50
61720 On ch=1 n=d#6 v=0
61720 On ch=1 n=g#6 v=50
61776 On ch=1 n=g#6 v=0
61776 On ch=1 n=d#7 v=50
61832 On ch=1 n=d#7 v=0
61832 On ch=1 n=d#7 v=50
61888 On ch=1 n=d#7 v=0
61888 On ch=1 n=g#7 v=50
61944 On ch=1 n=g#7 v=0
61944 On ch=1 n=d#8 v=50
62000 On ch=1 n=d#8 v=0
62000 On ch=1 n=g#7 v=50
62056 On ch=1 n=g#7 v=0
62056 On ch=1 n=d#7 v=50
62112 On ch=1 n=d#7 v=0
62112 On ch=1 n=d#7 v=50
62168 On ch=1 n=d#7 v=0
62168 On ch=1 n=g#6 v=50
62224 On ch=1 n=g#6 v=0
62224 On ch=1 n=d#6 v=50
62280 On ch=1 n=d#6 v=0
62280 On ch=1 n=d#6 v=50
62336 On ch=1 n=d#6 v=0
62336 On ch=1 n=g#5 v=50
62400 On ch=1 n=g#5 v=0
62456 On ch=1 n=d#5 v=50
62512 On ch=1 n=d#5 v=0
62512 On ch=1 n=g#5 v=50
62568 On ch=1 n=g#5 v=0
62568 On ch=1 n=d#6 v=50
62624 On ch=1 n=d#6 v=0
62624 On ch=1 n=d#6 v=50
62680 On ch=1 n=d#6 v=0
62680 On ch=1 n=g#6 v=50
62736 On ch=1 n=g#6 v=0
62736 On ch=1 n=d#7 v=50
62792 On ch=1 n=d#7 v=0
62792 On ch=1 n=d#7 v=50
62848 On ch=1 n=d#7 v=0
62848 On ch=1 n=g#7 v=50
62904 On ch=1 n=g#7 v=0
62904 On ch=1 n=d#8 v=50
62960 On ch=1 n=d#8 v=0
62960 On ch=1 n=g#7 v=50
63016 On ch=1 n=g#7 v=0
63016 On ch=1 n=d#7 v=50
63072 On ch=1 n=d#7 v=0
63072 On ch=1 n=d#7 v=50
63128 On ch=1 n=d#7 v=0
63128 On ch=1 n=g#6 v=50
63184 On ch=1 n=g#6 v=0
63184 On ch=1 n=d#6 v=50
63240 On ch=1 n=d#6 v=0
63240 On ch=1 n=d#6 v=50
63296 On ch=1 n=d#6 v=0
63296 On ch=1 n=g#5 v=50
63360 On ch=1 n=g#5 v=0
63416 On ch=1 n=d#5 v=50
63472 On ch=1 n=d#5 v=0
63472 On ch=1 n=g#5 v=50
63528 On ch=1 n=g#5 v=0
63528 On ch=1 n=d#6 v=50
63584 On ch=1 n=d#6 v=0
63584 On ch=1 n=d#6 v=50
63640 On ch=1 n=d#6 v=0
63640 On ch=1 n=g#6 v=50
63696 On ch=1 n=g#6 v=0
63696 On ch=1 n=d#7 v=50
63752 On ch=1 n=d#7 v=0
63752 On ch=1 n=d#7 v=50
63808 On ch=1 n=d#7 v=0
63808 On ch=1 n=g#7 v=50
63864 On ch=1 n=g#7 v=0
63864 On ch=1 n=d#8 v=50
63920 On ch=1 n=d#8 v=0
63920 On ch=1 n=g#7 v=50
63976 On ch=1 n=g#7 v=0
63976 On ch=1 n=d#7 v=50
64032 On ch=1 n=d#7 v=0
64032 On ch=1 n=d#7 v=50
64088 On ch=1 n=d#7 v=0
64088 On ch=1 n=g#6 v=50
64144 On ch=1 n=g#6 v=0
64144 On ch=1 n=d#6 v=50
64200 On ch=1 n=d#6 v=0
64200 On ch=1 n=d#6 v=50
64256 On ch=1 n=d#6 v=0
64256 On ch=1 n=g#5 v=50
64320 On ch=1 n=g#5 v=0
64376 On ch=1 n=d#5 v=50
64432 On ch=1 n=d#5 v=0
64432 On ch=1 n=g#5 v=50
64488 On ch=1 n=g#5 v=0
64488 On ch=1 n=d#6 v=50
64544 On ch=1 n=d#6 v=0
64544 On ch=1 n=d#6 v=50
64600 On ch=1 n=d#6 v=0
64600 On ch=1 n=g#6 v=50
64656 On ch=1 n=g#6 v=0
64656 On ch=1 n=d#7 v=50
64712 On ch=1 n=d#7 v=0
64712 On ch=1 n=d#7 v=50
64768 On ch=1 n=d#7 v=0
64768 On ch=1 n=g#7 v=50
64824 On ch=1 n=g#7 v=0
64824 On ch=1 n=d#8 v=50
64880 On ch=1 n=d#8 v=0
64880 On ch=1 n=g#7 v=50
64936 On ch=1 n=g#7 v=0
64936 On ch=1 n=d#7 v=50
64992 On ch=1 n=d#7 v=0
64992 On ch=1 n=d#7 v=50
65048 On ch=1 n=d#7 v=0
65048 On ch=1 n=g#6 v=50
65104 On ch=1 n=g#6 v=0
65104 On ch=1 n=d#6 v=50
65160 On ch=1 n=d#6 v=0
65160 On ch=1 n=d#6 v=50
65216 On ch=1 n=d#6 v=0
65216 On ch=1 n=g#5 v=50
65280 On ch=1 n=g#5 v=0
65336 On ch=1 n=d#5 v=50
65392 On ch=1 n=d#5 v=0
65392 On ch=1 n=g#5 v=50
65448 On ch=1 n=g#5 v=0
65448 On ch=1 n=d#6 v=50
65504 On ch=1 n=d#6 v=0
65504 On ch=1 n=d#6 v=50
65560 On ch=1 n=d#6 v=0
65560 On ch=1 n=g#6 v=50
65616 On ch=1 n=g#6 v=0
65616 On ch=1 n=d#7 v=50
65672 On ch=1 n=d#7 v=0
65672 On ch=1 n=d#7 v=50
65728 On ch=1 n=d#7 v=0
65728 On ch=1 n=g#7 v=50
65784 On ch=1 n=g#7 v=0
65784 On ch=1 n=d#8 v=50
65840 On ch=1 n=d#8 v=0
65840 On ch=1 n=g#7 v=50
65896 On ch=1 n=g#7 v=0
65896 On ch=1 n=d#7 v=50
65952 On ch=1 n=d#7 v=0
65952 On ch=1 n=d#7 v=50
66008 On ch=1 n=d#7 v=0
66008 On ch=1 n=g#6 v=50
66064 On ch=1 n=g#6 v=0
66064 On ch=1 n=d#6 v=50
66120 On ch=1 n=d#6 v=0
66120 On ch=1 n=d#6 v=50
66176 On ch=1 n=d#6 v=0
66176 On ch=1 n=g#5 v=50
66240 On ch=1 n=g#5 v=0
66296 On ch=1 n=d#5 v=50
66352 On ch=1 n=d#5 v=0
66352 On ch=1 n=g#5 v=50
66408 On ch=1 n=g#5 v=0
66408 On ch=1 n=d#6 v=50
66464 On ch=1 n=d#6 v=0
66464 On ch=1 n=d#6 v=50
66520 On ch=1 n=d#6 v=0
66520 On ch=1 n=g#6 v=50
66576 On ch=1 n=g#6 v=0
66576 On ch=1 n=d#7 v=50
66632 On ch=1 n=d#7 v=0
66632 On ch=1 n=d#7 v=50
66688 On ch=1 n=d#7 v=0
66688 On ch=1 n=g#7 v=50
66744 On ch=1 n=g#7 v=0
66744 On ch=1 n=d#8 v=50
66800 On ch=1 n=d#8 v=0
66800 On ch=1 n=g#7 v=50
66856 On ch=1 n=g#7 v=0
66856 On ch=1 n=d#7 v=50
66912 On ch=1 n=d#7 v=0
66912 On ch=1 n=d#7 v=50
66968 On ch=1 n=d#7 v=0
66968 On ch=1 n=g#6 v=50
67024 On ch=1 n=g#6 v=0
67024 On ch=1 n=d#6 v=50
67080 On ch=1 n=d#6 v=0
67080 On ch=1 n=d#6 v=50
67136 On ch=1 n=d#6 v=0
67136 On ch=1 n=g#5 v=50
67200 On ch=1 n=g#5 v=0
67256 On ch=1 n=c#5 v=50
67312 On ch=1 n=c#5 v=0
67312 On ch=1 n=f#5 v=50
67368 On ch=1 n=f#5 v=0
67368 On ch=1 n=c#6 v=50
67424 On ch=1 n=c#6 v=0
67424 On ch=1 n=c#6 v=50
67480 On ch=1 n=c#6 v=0
67480 On ch=1 n=f#6 v=50
67536 On ch=1 n=f#6 v=0
67536 On ch=1 n=c#7 v=50
67592 On ch=1 n=c#7 v=0
67592 On ch=1 n=c#7 v=50
67648 On ch=1 n=c#7 v=0
67648 On ch=1 n=f#7 v=50
67704 On ch=1 n=f#7 v=0
67704 On ch=1 n=c#8 v=50
67760 On ch=1 n=c#8 v=0
67760 On ch=1 n=f#7 v=50
67816 On ch=1 n=f#7 v=0
67816 On ch=1 n=c#7 v=50
67872 On ch=1 n=c#7 v=0
67872 On ch=1 n=c#7 v=50
67928 On ch=1 n=c#7 v=0
67928 On ch=1 n=f#6 v=50
67984 On ch=1 n=f#6 v=0
67984 On ch=1 n=c#6 v=50
68040 On ch=1 n=c#6 v=0
68040 On ch=1 n=c#6 v=50
68096 On ch=1 n=c#6 v=0
68096 On ch=1 n=f#5 v=50
68160 On ch=1 n=f#5 v=0
68216 On ch=1 n=g#4 v=40
68272 On ch=1 n=g#4 v=0
68272 On ch=1 n=c#5 v=40
68328 On ch=1 n=c#5 v=0
68328 On ch=1 n=g#5 v=40
68384 On ch=1 n=g#5 v=0
68384 On ch=1 n=g#5 v=40
68440 On ch=1 n=g#5 v=0
68440 On ch=1 n=c#6 v=40
68496 On ch=1 n=c#6 v=0
68496 On ch=1 n=g#6 v=40
68552 On ch=1 n=g#6 v=0
68552 On ch=1 n=g#6 v=40
68608 On ch=1 n=g#6 v=0
68608 On ch=1 n=c#7 v=40
68664 On ch=1 n=c#7 v=0
68664 On ch=1 n=g#7 v=40
68720 On ch=1 n=g#7 v=0
68720 On ch=1 n=c#7 v=40
68776 On ch=1 n=c#7 v=0
68776 On ch=1 n=g#6 v=40
68832 On ch=1 n=g#6 v=0
68832 On ch=1 n=g#6 v=40
68888 On ch=1 n=g#6 v=0
68888 On ch=1 n=c#6 v=40
68944 On ch=1 n=c#6 v=0
68944 On ch=1 n=g#5 v=40
69000 On ch=1 n=g#5 v=0
69000 On ch=1 n=g#5 v=40
69056 On ch=1 n=g#5 v=0
69056 On ch=1 n=c#5 v=40
69120 On ch=1 n=c#5 v=0
69176 On ch=1 n=g#4 v=40
69232 On ch=1 n=g#4 v=0
69232 On ch=1 n=c#5 v=40
69288 On ch=1 n=c#5 v=0
69288 On ch=1 n=g#5 v=40
69344 On ch=1 n=g#5 v=0
69344 On ch=1 n=g#5 v=40
69400 On ch=1 n=g#5 v=0
69400 On ch=1 n=c#6 v=40
69456 On ch=1 n=c#6 v=0
69456 On ch=1 n=g#6 v=40
69512 On ch=1 n=g#6 v=0
69512 On ch=1 n=g#6 v=40
69568 On ch=1 n=g#6 v=0
69568 On ch=1 n=c#7 v=40
69624 On ch=1 n=c#7 v=0
69624 On ch=1 n=g#7 v=40
69680 On ch=1 n=g#7 v=0
69680 On ch=1 n=c#7 v=40
69736 On ch=1 n=c#7 v=0
69736 On ch=1 n=g#6 v=40
69792 On ch=1 n=g#6 v=0
69792 On ch=1 n=g#6 v=40
69848 On ch=1 n=g#6 v=0
69848 On ch=1 n=c#6 v=40
TrkEnd
