MFile 1 9 480
MTrk
0 TimeSig 2/4 24 8
0 KeySig -1 major
0 Tempo 652174
43200 TimeSig 3/4 24 8
44640 TimeSig 2/4 24 8
44640 KeySig -5 major
44640 Tempo 681818
45600 Tempo 652174
64800 Tempo 714286
65280 Tempo 789474
65760 Tempo 672957
67680 KeySig -1 major
67680 Tempo 652174
90720 Tempo 714286
91680 Tempo 789474
95520 Tempo 714286
96480 Tempo 652174
96480 Meta TrkEnd
TrkEnd
MTrk
0 SeqSpec 43 00 01 00
0 Meta TrkName "Upper Treble"
0 Meta 0x21 00
1680 On ch=1 n=a#5 v=40
1680 On ch=1 n=f#5 v=40
1680 On ch=1 n=d#5 v=40
1800 On ch=1 n=d#5 v=0
1800 On ch=1 n=f#5 v=0
1800 On ch=1 n=a#5 v=0
1920 On ch=1 n=d6 v=40
1920 On ch=1 n=b5 v=40
1920 On ch=1 n=g5 v=40
2040 On ch=1 n=g5 v=0
2040 On ch=1 n=b5 v=0
2040 On ch=1 n=d6 v=0
2160 On ch=1 n=f6 v=40
2160 On ch=1 n=c#6 v=40
2160 On ch=1 n=a#5 v=40
2280 On ch=1 n=a#5 v=0
2280 On ch=1 n=c#6 v=0
2280 On ch=1 n=f6 v=0
2400 On ch=1 n=d6 v=40
2400 On ch=1 n=b5 v=40
2400 On ch=1 n=g5 v=40
2520 On ch=1 n=g5 v=0
2520 On ch=1 n=b5 v=0
2520 On ch=1 n=d6 v=0
2640 On ch=1 n=a#5 v=40
2640 On ch=1 n=f#5 v=40
2640 On ch=1 n=d#5 v=40
2760 On ch=1 n=d#5 v=0
2760 On ch=1 n=f#5 v=0
2760 On ch=1 n=a#5 v=0
3600 On ch=1 n=a#5 v=40
3600 On ch=1 n=f#5 v=40
3600 On ch=1 n=d#5 v=40
3720 On ch=1 n=d#5 v=0
3720 On ch=1 n=f#5 v=0
3720 On ch=1 n=a#5 v=0
3840 On ch=1 n=d6 v=40
3840 On ch=1 n=b5 v=40
3840 On ch=1 n=g5 v=40
3960 On ch=1 n=g5 v=0
3960 On ch=1 n=b5 v=0
3960 On ch=1 n=d6 v=0
4080 On ch=1 n=f6 v=40
4080 On ch=1 n=c#6 v=40
4080 On ch=1 n=a#5 v=40
4200 On ch=1 n=a#5 v=0
4200 On ch=1 n=c#6 v=0
4200 On ch=1 n=f6 v=0
4320 On ch=1 n=d6 v=40
4320 On ch=1 n=b5 v=40
4320 On ch=1 n=g5 v=40
4440 On ch=1 n=g5 v=0
4440 On ch=1 n=b5 v=0
4440 On ch=1 n=d6 v=0
4560 On ch=1 n=a#5 v=40
4560 On ch=1 n=f#5 v=40
4560 On ch=1 n=d#5 v=40
4680 On ch=1 n=d#5 v=0
4680 On ch=1 n=f#5 v=0
4680 On ch=1 n=a#5 v=0
5280 On ch=1 n=g#5 v=40
5280 On ch=1 n=f5 v=40
5280 On ch=1 n=c#5 v=40
5400 On ch=1 n=c#5 v=0
5400 On ch=1 n=f5 v=0
5400 On ch=1 n=g#5 v=0
6240 On ch=1 n=a#4 v=40
6240 On ch=1 n=c#5 v=40
6240 On ch=1 n=f5 v=40
6360 On ch=1 n=f5 v=0
6360 On ch=1 n=c#5 v=0
6360 On ch=1 n=a#4 v=0
7200 On ch=1 n=c#5 v=40
7200 On ch=1 n=f5 v=40
7200 On ch=1 n=g#5 v=40
7320 On ch=1 n=g#5 v=0
7320 On ch=1 n=f5 v=0
7320 On ch=1 n=c#5 v=0
7440 On ch=1 n=a#4 v=40
7440 On ch=1 n=d5 v=40
7440 On ch=1 n=f5 v=40
7560 On ch=1 n=f5 v=0
7560 On ch=1 n=d5 v=0
7560 On ch=1 n=a#4 v=0
30240 On ch=1 n=b6 v=120
30240 On ch=1 n=f#6 v=120
30240 On ch=1 n=b5 v=120
30720 On ch=1 n=b5 v=0
30720 On ch=1 n=f#6 v=0
30720 On ch=1 n=b6 v=0
31200 On ch=1 n=b6 v=120
31200 On ch=1 n=f#6 v=120
31200 On ch=1 n=b5 v=120
31920 On ch=1 n=b5 v=0
31920 On ch=1 n=f#6 v=0
31920 On ch=1 n=b6 v=0
31920 On ch=1 n=d7 v=60
31920 On ch=1 n=a6 v=60
31920 On ch=1 n=d6 v=60
32160 On ch=1 n=d6 v=0
32160 On ch=1 n=a6 v=0
32160 On ch=1 n=d7 v=0
32160 On ch=1 n=c7 v=60
32160 On ch=1 n=g6 v=60
32160 On ch=1 n=c6 v=60
33240 On ch=1 n=c6 v=0
33240 On ch=1 n=g6 v=0
33240 On ch=1 n=c7 v=0
41580 On ch=1 n=c6 v=120
41640 On ch=1 n=c6 v=0
41640 On ch=1 n=c6 v=120
41700 On ch=1 n=c6 v=0
41700 On ch=1 n=f6 v=120
41760 On ch=1 n=f6 v=0
41760 On ch=1 n=f5 v=120
42540 On ch=1 n=c5 v=120
42600 On ch=1 n=c5 v=0
42600 On ch=1 n=c5 v=120
42660 On ch=1 n=c5 v=0
42660 On ch=1 n=f5 v=120
42720 On ch=1 n=f5 v=0
42720 On ch=1 n=f5 v=0
44400 On ch=1 n=a#5 v=60
44400 On ch=1 n=f#5 v=60
44400 On ch=1 n=d#5 v=60
44640 On ch=1 n=d#5 v=0
44640 On ch=1 n=f#5 v=0
44640 On ch=1 n=a#5 v=0
44640 On ch=1 n=d6 v=60
44640 On ch=1 n=b5 v=60
44640 On ch=1 n=g5 v=60
44880 On ch=1 n=g5 v=0
44880 On ch=1 n=b5 v=0
44880 On ch=1 n=d6 v=0
44880 On ch=1 n=f6 v=60
44880 On ch=1 n=c#6 v=60
44880 On ch=1 n=a#5 v=60
45120 On ch=1 n=a#5 v=0
45120 On ch=1 n=c#6 v=0
45120 On ch=1 n=f6 v=0
45120 On ch=1 n=d6 v=60
45120 On ch=1 n=b5 v=60
45120 On ch=1 n=g5 v=60
45360 On ch=1 n=g5 v=0
45360 On ch=1 n=b5 v=0
45360 On ch=1 n=d6 v=0
45360 On ch=1 n=a#5 v=60
45360 On ch=1 n=f#5 v=60
45360 On ch=1 n=d#5 v=60
45600 On ch=1 n=d#5 v=0
45600 On ch=1 n=f#5 v=0
45600 On ch=1 n=a#5 v=0
45600 On ch=1 n=g5 v=60
45600 On ch=1 n=e5 v=60
45840 On ch=1 n=e5 v=0
45840 On ch=1 n=g5 v=0
45840 On ch=1 n=g#5 v=60
45840 On ch=1 n=f#5 v=60
45840 On ch=1 n=d#5 v=60
45900 On ch=1 n=d#5 v=0
45900 On ch=1 n=f#5 v=0
45900 On ch=1 n=g#5 v=0
45960 On ch=1 n=g#5 v=60
45960 On ch=1 n=f#5 v=60
45960 On ch=1 n=d#5 v=60
46020 On ch=1 n=d#5 v=0
46020 On ch=1 n=f#5 v=0
46020 On ch=1 n=g#5 v=0
46200 On ch=1 n=g#5 v=60
46200 On ch=1 n=f#5 v=60
46260 On ch=1 n=f#5 v=0
46260 On ch=1 n=g#5 v=0
46320 On ch=1 n=g#5 v=60
46320 On ch=1 n=f#5 v=60
46380 On ch=1 n=f#5 v=0
46380 On ch=1 n=g#5 v=0
46440 On ch=1 n=g#5 v=60
46440 On ch=1 n=f#5 v=60
46800 On ch=1 n=f#5 v=0
46800 On ch=1 n=g#5 v=0
47040 On ch=1 n=d#7 v=60
47040 On ch=1 n=d#6 v=60
47520 On ch=1 n=d#6 v=0
47520 On ch=1 n=d#7 v=0
47520 On ch=1 n=a5 v=60
47520 On ch=1 n=f#5 v=60
47760 On ch=1 n=f#5 v=0
47760 On ch=1 n=a5 v=0
47760 On ch=1 n=a#5 v=60
47760 On ch=1 n=g#5 v=60
47760 On ch=1 n=f5 v=60
47820 On ch=1 n=f5 v=0
47820 On ch=1 n=g#5 v=0
47820 On ch=1 n=a#5 v=0
47880 On ch=1 n=a#5 v=60
47880 On ch=1 n=g#5 v=60
47880 On ch=1 n=f5 v=60
47940 On ch=1 n=f5 v=0
47940 On ch=1 n=g#5 v=0
47940 On ch=1 n=a#5 v=0
48120 On ch=1 n=a#5 v=60
48120 On ch=1 n=g#5 v=60
48180 On ch=1 n=g#5 v=0
48180 On ch=1 n=a#5 v=0
48240 On ch=1 n=a#5 v=60
48240 On ch=1 n=g#5 v=60
48300 On ch=1 n=g#5 v=0
48300 On ch=1 n=a#5 v=0
48360 On ch=1 n=a#5 v=60
48360 On ch=1 n=g#5 v=60
48720 On ch=1 n=g#5 v=0
48720 On ch=1 n=a#5 v=0
48960 On ch=1 n=f7 v=60
48960 On ch=1 n=f6 v=60
49440 On ch=1 n=f6 v=0
49440 On ch=1 n=f7 v=0
49680 On ch=1 n=f#6 v=120
49680 On ch=1 n=d#6 v=120
49680 On ch=1 n=b5 v=120
49800 On ch=1 n=b5 v=0
49800 On ch=1 n=d#6 v=0
49800 On ch=1 n=f#6 v=0
49800 On ch=1 n=f#6 v=120
49800 On ch=1 n=d#6 v=120
49800 On ch=1 n=b5 v=120
49860 On ch=1 n=b5 v=0
49860 On ch=1 n=d#6 v=0
49860 On ch=1 n=f#6 v=0
50160 On ch=1 n=f#6 v=120
50160 On ch=1 n=d#6 v=120
50160 On ch=1 n=b5 v=120
50280 On ch=1 n=b5 v=0
50280 On ch=1 n=d#6 v=0
50280 On ch=1 n=f#6 v=0
50280 On ch=1 n=f#6 v=120
50280 On ch=1 n=d#6 v=120
50280 On ch=1 n=b5 v=120
50340 On ch=1 n=b5 v=0
50340 On ch=1 n=d#6 v=0
50340 On ch=1 n=f#6 v=0
50640 On ch=1 n=f#6 v=120
50640 On ch=1 n=d#6 v=120
50640 On ch=1 n=b5 v=120
50760 On ch=1 n=b5 v=0
50760 On ch=1 n=d#6 v=0
50760 On ch=1 n=f#6 v=0
51120 On ch=1 n=f6 v=120
51120 On ch=1 n=c#6 v=120
51120 On ch=1 n=a#5 v=120
51240 On ch=1 n=a#5 v=0
51240 On ch=1 n=c#6 v=0
51240 On ch=1 n=f6 v=0
51600 On ch=1 n=a#5 v=60
51600 On ch=1 n=f#5 v=60
51600 On ch=1 n=d#5 v=60
51720 On ch=1 n=d#5 v=0
51720 On ch=1 n=f#5 v=0
51720 On ch=1 n=a#5 v=0
52080 On ch=1 n=g#5 v=60
52080 On ch=1 n=e5 v=60
52080 On ch=1 n=c#5 v=60
52200 On ch=1 n=c#5 v=0
52200 On ch=1 n=e5 v=0
52200 On ch=1 n=g#5 v=0
55920 On ch=1 n=a#5 v=120
55920 On ch=1 n=f#5 v=120
56160 On ch=1 n=f#5 v=0
56160 On ch=1 n=a#5 v=0
56160 On ch=1 n=d6 v=120
56160 On ch=1 n=b5 v=120
56160 On ch=1 n=g5 v=120
56400 On ch=1 n=g5 v=0
56400 On ch=1 n=b5 v=0
56400 On ch=1 n=d6 v=0
56400 On ch=1 n=f6 v=120
56400 On ch=1 n=c#6 v=120
56400 On ch=1 n=a#5 v=120
56640 On ch=1 n=a#5 v=0
56640 On ch=1 n=c#6 v=0
56640 On ch=1 n=f6 v=0
56640 On ch=1 n=d6 v=120
56640 On ch=1 n=b5 v=120
56640 On ch=1 n=g5 v=120
56880 On ch=1 n=g5 v=0
56880 On ch=1 n=b5 v=0
56880 On ch=1 n=d6 v=0
56880 On ch=1 n=a#5 v=120
56880 On ch=1 n=f#5 v=120
56880 On ch=1 n=d#5 v=120
57120 On ch=1 n=d#5 v=0
57120 On ch=1 n=f#5 v=0
57120 On ch=1 n=a#5 v=0
57120 On ch=1 n=g5 v=60
57120 On ch=1 n=e5 v=60
57360 On ch=1 n=e5 v=0
57360 On ch=1 n=g5 v=0
57360 On ch=1 n=g#5 v=60
57360 On ch=1 n=f#5 v=60
57360 On ch=1 n=d#5 v=60
57420 On ch=1 n=d#5 v=0
57420 On ch=1 n=f#5 v=0
57420 On ch=1 n=g#5 v=0
57480 On ch=1 n=g#5 v=60
57480 On ch=1 n=f#5 v=60
57480 On ch=1 n=d#5 v=60
57540 On ch=1 n=d#5 v=0
57540 On ch=1 n=f#5 v=0
57540 On ch=1 n=g#5 v=0
57720 On ch=1 n=g#5 v=60
57720 On ch=1 n=f#5 v=60
57780 On ch=1 n=f#5 v=0
57780 On ch=1 n=g#5 v=0
57840 On ch=1 n=g#5 v=60
57840 On ch=1 n=f#5 v=60
57900 On ch=1 n=f#5 v=0
57900 On ch=1 n=g#5 v=0
57960 On ch=1 n=g#5 v=60
57960 On ch=1 n=f#5 v=60
58320 On ch=1 n=f#5 v=0
58320 On ch=1 n=g#5 v=0
58560 On ch=1 n=d#7 v=60
58560 On ch=1 n=d#6 v=60
59040 On ch=1 n=d#6 v=0
59040 On ch=1 n=d#7 v=0
59040 On ch=1 n=a5 v=60
59040 On ch=1 n=f#5 v=60
59280 On ch=1 n=f#5 v=0
59280 On ch=1 n=a5 v=0
59280 On ch=1 n=a#5 v=60
59280 On ch=1 n=g#5 v=60
59280 On ch=1 n=f5 v=60
59340 On ch=1 n=f5 v=0
59340 On ch=1 n=g#5 v=0
59340 On ch=1 n=a#5 v=0
59400 On ch=1 n=a#5 v=60
59400 On ch=1 n=g#5 v=60
59400 On ch=1 n=f5 v=60
59460 On ch=1 n=f5 v=0
59460 On ch=1 n=g#5 v=0
59460 On ch=1 n=a#5 v=0
59640 On ch=1 n=a#5 v=60
59640 On ch=1 n=g#5 v=60
59700 On ch=1 n=g#5 v=0
59700 On ch=1 n=a#5 v=0
59760 On ch=1 n=a#5 v=60
59760 On ch=1 n=g#5 v=60
59820 On ch=1 n=g#5 v=0
59820 On ch=1 n=a#5 v=0
59880 On ch=1 n=a#5 v=60
59880 On ch=1 n=g#5 v=60
60240 On ch=1 n=g#5 v=0
60240 On ch=1 n=a#5 v=0
60480 On ch=1 n=f7 v=60
60480 On ch=1 n=f6 v=60
60960 On ch=1 n=f6 v=0
60960 On ch=1 n=f7 v=0
61200 On ch=1 n=f#6 v=120
61200 On ch=1 n=d#6 v=120
61200 On ch=1 n=b5 v=120
61320 On ch=1 n=b5 v=0
61320 On ch=1 n=d#6 v=0
61320 On ch=1 n=f#6 v=0
61320 On ch=1 n=f#6 v=120
61320 On ch=1 n=d#6 v=120
61320 On ch=1 n=b5 v=120
61380 On ch=1 n=b5 v=0
61380 On ch=1 n=d#6 v=0
61380 On ch=1 n=f#6 v=0
61680 On ch=1 n=f#6 v=120
61680 On ch=1 n=d#6 v=120
61680 On ch=1 n=b5 v=120
61800 On ch=1 n=b5 v=0
61800 On ch=1 n=d#6 v=0
61800 On ch=1 n=f#6 v=0
61800 On ch=1 n=f#6 v=120
61800 On ch=1 n=d#6 v=120
61800 On ch=1 n=b5 v=120
61860 On ch=1 n=b5 v=0
61860 On ch=1 n=d#6 v=0
61860 On ch=1 n=f#6 v=0
62160 On ch=1 n=f#6 v=120
62160 On ch=1 n=d#6 v=120
62160 On ch=1 n=b5 v=120
62280 On ch=1 n=b5 v=0
62280 On ch=1 n=d#6 v=0
62280 On ch=1 n=f#6 v=0
62640 On ch=1 n=f6 v=120
62640 On ch=1 n=c#6 v=120
62640 On ch=1 n=a#5 v=120
62760 On ch=1 n=a#5 v=0
62760 On ch=1 n=c#6 v=0
62760 On ch=1 n=f6 v=0
63120 On ch=1 n=e7 v=120
63120 On ch=1 n=e6 v=120
63360 On ch=1 n=e5 v=120
63480 On ch=1 n=e5 v=0
63480 On ch=1 n=e6 v=0
63480 On ch=1 n=e7 v=0
63480 On ch=1 n=d#5 v=120
63480 On ch=1 n=d#6 v=120
63480 On ch=1 n=d#7 v=120
63600 On ch=1 n=d#7 v=0
63600 On ch=1 n=d#6 v=0
63600 On ch=1 n=d#5 v=0
63600 On ch=1 n=c#5 v=120
63600 On ch=1 n=c#7 v=120
63600 On ch=1 n=c#6 v=120
63840 On ch=1 n=c#6 v=0
63840 On ch=1 n=c#7 v=0
63840 On ch=1 n=c#5 v=0
64080 On ch=1 n=f7 v=120
64080 On ch=1 n=f6 v=120
64320 On ch=1 n=f5 v=120
64440 On ch=1 n=f5 v=0
64440 On ch=1 n=f6 v=0
64440 On ch=1 n=f7 v=0
64440 On ch=1 n=d#5 v=120
64440 On ch=1 n=d#7 v=120
64440 On ch=1 n=d#6 v=120
64560 On ch=1 n=d#6 v=0
64560 On ch=1 n=d#7 v=0
64560 On ch=1 n=d#5 v=0
64560 On ch=1 n=c#5 v=120
64560 On ch=1 n=c#7 v=120
64560 On ch=1 n=c#6 v=120
64800 On ch=1 n=c#6 v=0
64800 On ch=1 n=c#7 v=0
64800 On ch=1 n=c#5 v=0
65040 On ch=1 n=a#6 v=125
65040 On ch=1 n=c#7 v=125
65040 On ch=1 n=f5 v=125
65040 On ch=1 n=f7 v=125
65040 On ch=1 n=f6 v=125
65400 On ch=1 n=f6 v=0
65400 On ch=1 n=f7 v=0
65400 On ch=1 n=f5 v=0
65400 On ch=1 n=d#5 v=125
65400 On ch=1 n=d#7 v=125
65400 On ch=1 n=d#6 v=125
65520 On ch=1 n=d#6 v=0
65520 On ch=1 n=d#7 v=0
65520 On ch=1 n=d#5 v=0
65520 On ch=1 n=c#5 v=125
65520 On ch=1 n=c#7 v=125
65520 On ch=1 n=c#6 v=125
65760 On ch=1 n=c#6 v=0
65760 On ch=1 n=c#7 v=0
65760 On ch=1 n=c#5 v=0
65760 On ch=1 n=c#7 v=0
65760 On ch=1 n=a#6 v=0
66240 On ch=1 n=f5 v=120
67040 On ch=1 n=f5 v=0
67040 On ch=1 n=e5 v=110
67360 On ch=1 n=e5 v=0
67360 On ch=1 n=d5 v=100
67680 On ch=1 n=d5 v=0
87360 On ch=1 n=b6 v=120
87360 On ch=1 n=f#6 v=120
87360 On ch=1 n=b5 v=120
87840 On ch=1 n=b5 v=0
87840 On ch=1 n=f#6 v=0
87840 On ch=1 n=b6 v=0
88320 On ch=1 n=b6 v=120
88320 On ch=1 n=f#6 v=120
88320 On ch=1 n=b5 v=120
89040 On ch=1 n=b5 v=0
89040 On ch=1 n=f#6 v=0
89040 On ch=1 n=b6 v=0
89040 On ch=1 n=d7 v=60
89040 On ch=1 n=a6 v=60
89040 On ch=1 n=d6 v=60
89280 On ch=1 n=d6 v=0
89280 On ch=1 n=a6 v=0
89280 On ch=1 n=d7 v=0
89280 On ch=1 n=c7 v=60
89280 On ch=1 n=g6 v=60
89280 On ch=1 n=c6 v=60
90360 On ch=1 n=c6 v=0
90360 On ch=1 n=g6 v=0
90360 On ch=1 n=c7 v=0
97200 On ch=1 n=a#5 v=120
97200 On ch=1 n=f#5 v=120
97440 On ch=1 n=f#5 v=0
97440 On ch=1 n=a#5 v=0
97440 On ch=1 n=d6 v=120
97440 On ch=1 n=b5 v=120
97440 On ch=1 n=g5 v=120
97680 On ch=1 n=g5 v=0
97680 On ch=1 n=b5 v=0
97680 On ch=1 n=d6 v=0
97680 On ch=1 n=f6 v=120
97680 On ch=1 n=c#6 v=120
97680 On ch=1 n=a#5 v=120
97920 On ch=1 n=a#5 v=0
97920 On ch=1 n=c#6 v=0
97920 On ch=1 n=f6 v=0
97920 On ch=1 n=g5 v=120
97920 On ch=1 n=b5 v=120
97920 On ch=1 n=d6 v=120
98160 On ch=1 n=d6 v=0
98160 On ch=1 n=b5 v=0
98160 On ch=1 n=g5 v=0
98160 On ch=1 n=d#5 v=120
98160 On ch=1 n=f#5 v=120
98160 On ch=1 n=a#5 v=120
98400 On ch=1 n=a#5 v=0
98400 On ch=1 n=f#5 v=0
98400 On ch=1 n=d#5 v=0
98400 On ch=1 n=d#6 v=120
98400 On ch=1 n=c6 v=120
98400 On ch=1 n=g#5 v=120
98640 On ch=1 n=g#5 v=0
98640 On ch=1 n=c6 v=0
98640 On ch=1 n=d#6 v=0
98640 On ch=1 n=f#6 v=120
98640 On ch=1 n=d6 v=120
98640 On ch=1 n=b5 v=120
98880 On ch=1 n=b5 v=0
98880 On ch=1 n=d6 v=0
98880 On ch=1 n=f#6 v=0
98880 On ch=1 n=d#6 v=120
98880 On ch=1 n=c6 v=120
98880 On ch=1 n=g#5 v=120
99120 On ch=1 n=g#5 v=0
99120 On ch=1 n=c6 v=0
99120 On ch=1 n=d#6 v=0
99120 On ch=1 n=b5 v=120
99120 On ch=1 n=g5 v=120
99120 On ch=1 n=e5 v=120
99360 On ch=1 n=e5 v=0
99360 On ch=1 n=g5 v=0
99360 On ch=1 n=b5 v=0
99600 On ch=1 n=c#5 v=125
99600 On ch=1 n=f5 v=125
99600 On ch=1 n=a6 v=125
99600 On ch=1 n=f6 v=125
99600 On ch=1 n=a5 v=125
100320 On ch=1 n=a5 v=0
100320 On ch=1 n=f6 v=0
100320 On ch=1 n=a6 v=0
100320 On ch=1 n=f5 v=0
100320 On ch=1 n=c#5 v=0
100560 On ch=1 n=d5 v=125
100560 On ch=1 n=e5 v=125
100560 On ch=1 n=a6 v=125
100560 On ch=1 n=e6 v=125
100560 On ch=1 n=a5 v=125
101280 On ch=1 n=a5 v=0
101280 On ch=1 n=e6 v=0
101280 On ch=1 n=a6 v=0
101280 On ch=1 n=e5 v=0
101280 On ch=1 n=d5 v=0
101520 On ch=1 n=c#5 v=125
101520 On ch=1 n=f5 v=125
101520 On ch=1 n=a6 v=125
101520 On ch=1 n=f6 v=125
101520 On ch=1 n=a5 v=125
102240 On ch=1 n=a5 v=0
102240 On ch=1 n=f6 v=0
102240 On ch=1 n=a6 v=0
102240 On ch=1 n=f5 v=0
102240 On ch=1 n=c#5 v=0
102480 On ch=1 n=d5 v=125
102480 On ch=1 n=e5 v=125
102480 On ch=1 n=a6 v=125
102480 On ch=1 n=e6 v=125
102480 On ch=1 n=a5 v=125
103200 On ch=1 n=a5 v=0
103200 On ch=1 n=e6 v=0
103200 On ch=1 n=a6 v=0
103200 On ch=1 n=e5 v=0
103200 On ch=1 n=d5 v=0
103200 Meta TrkEnd
TrkEnd
MTrk
0 SeqSpec 43 00 01 00
0 Meta TrkName "Lower Treble"
0 Meta 0x21 00
780 On ch=1 n=g5 v=110
840 On ch=1 n=g5 v=0
840 On ch=1 n=g5 v=110
900 On ch=1 n=g5 v=0
900 On ch=1 n=c6 v=110
960 On ch=1 n=c6 v=0
960 On ch=1 n=c5 v=110
1920 On ch=1 n=c5 v=0
2700 On ch=1 n=g5 v=110
2760 On ch=1 n=g5 v=0
2760 On ch=1 n=g5 v=110
2820 On ch=1 n=g5 v=0
2820 On ch=1 n=c6 v=110
2880 On ch=1 n=c6 v=0
2880 On ch=1 n=c5 v=110
3840 On ch=1 n=c5 v=0
4620 On ch=1 n=g5 v=110
4680 On ch=1 n=g5 v=0
4680 On ch=1 n=g5 v=110
4740 On ch=1 n=g5 v=0
4740 On ch=1 n=c6 v=110
4800 On ch=1 n=c6 v=0
4800 On ch=1 n=c5 v=110
5580 On ch=1 n=g5 v=110
5640 On ch=1 n=g5 v=0
5640 On ch=1 n=g5 v=110
5700 On ch=1 n=g5 v=0
5700 On ch=1 n=c6 v=110
5760 On ch=1 n=c6 v=0
5760 On ch=1 n=c5 v=0
5760 On ch=1 n=c5 v=110
6540 On ch=1 n=g5 v=110
6600 On ch=1 n=g5 v=0
6600 On ch=1 n=g5 v=110
6660 On ch=1 n=g5 v=0
6660 On ch=1 n=c6 v=110
6720 On ch=1 n=c6 v=0
6720 On ch=1 n=c5 v=0
6720 On ch=1 n=c5 v=110
7440 On ch=1 n=c5 v=0
16620 On ch=1 n=g5 v=120
16680 On ch=1 n=g5 v=0
16680 On ch=1 n=g5 v=120
16740 On ch=1 n=g5 v=0
16740 On ch=1 n=c6 v=120
16800 On ch=1 n=c6 v=0
16800 On ch=1 n=c5 v=120
17280 On ch=1 n=c5 v=0
22320 On ch=1 n=a5 v=60
22320 On ch=1 n=f5 v=60
22440 On ch=1 n=f5 v=0
22440 On ch=1 n=a5 v=0
22800 On ch=1 n=b5 v=60
22800 On ch=1 n=g5 v=60
22800 On ch=1 n=f5 v=60
22920 On ch=1 n=f5 v=0
22920 On ch=1 n=g5 v=0
22920 On ch=1 n=b5 v=0
23280 On ch=1 n=g5 v=60
23280 On ch=1 n=e5 v=60
23400 On ch=1 n=e5 v=0
23400 On ch=1 n=g5 v=0
23760 On ch=1 n=b4 v=60
23760 On ch=1 n=d#5 v=60
23760 On ch=1 n=f#5 v=60
23880 On ch=1 n=f#5 v=0
23880 On ch=1 n=d#5 v=0
23880 On ch=1 n=b4 v=0
30240 On ch=1 n=d#5 v=120
30240 On ch=1 n=f#5 v=120
30720 On ch=1 n=f#5 v=0
30720 On ch=1 n=d#5 v=0
31200 On ch=1 n=d#5 v=120
31200 On ch=1 n=f#5 v=120
31920 On ch=1 n=f#5 v=0
31920 On ch=1 n=d#5 v=0
31920 On ch=1 n=a5 v=60
31920 On ch=1 n=f5 v=60
32160 On ch=1 n=f5 v=0
32160 On ch=1 n=a5 v=0
32160 On ch=1 n=g5 v=60
32160 On ch=1 n=e5 v=60
33240 On ch=1 n=e5 v=0
33240 On ch=1 n=g5 v=0
37440 On ch=1 n=g5 v=60
37800 On ch=1 n=g5 v=0
37800 On ch=1 n=f5 v=60
37920 On ch=1 n=f5 v=0
37920 On ch=1 n=d5 v=60
38280 On ch=1 n=d5 v=0
38280 On ch=1 n=f5 v=60
38400 On ch=1 n=f5 v=0
38400 On ch=1 n=g5 v=60
38760 On ch=1 n=g5 v=0
38760 On ch=1 n=f5 v=60
38880 On ch=1 n=f5 v=0
38880 On ch=1 n=d5 v=60
39240 On ch=1 n=d5 v=0
39240 On ch=1 n=a#5 v=60
39360 On ch=1 n=a#5 v=0
39360 On ch=1 n=g5 v=60
39720 On ch=1 n=g5 v=0
39720 On ch=1 n=f5 v=60
39840 On ch=1 n=f5 v=0
39840 On ch=1 n=d5 v=60
40200 On ch=1 n=d5 v=0
40200 On ch=1 n=f5 v=60
40320 On ch=1 n=f5 v=0
40320 On ch=1 n=g5 v=60
40680 On ch=1 n=g5 v=0
40680 On ch=1 n=f5 v=60
40800 On ch=1 n=f5 v=0
40800 On ch=1 n=d5 v=60
41160 On ch=1 n=d5 v=0
41160 On ch=1 n=a#5 v=60
41280 On ch=1 n=a#5 v=0
42000 On ch=1 n=a#4 v=120
42000 On ch=1 n=c#5 v=120
42000 On ch=1 n=g5 v=120
42480 On ch=1 n=g5 v=0
42480 On ch=1 n=c#5 v=0
42480 On ch=1 n=a#4 v=0
42480 On ch=1 n=b4 v=120
42480 On ch=1 n=d5 v=120
42480 On ch=1 n=g#5 v=120
42720 On ch=1 n=g#5 v=0
42720 On ch=1 n=d5 v=0
42720 On ch=1 n=b4 v=0
45600 On ch=1 n=c5 v=70
46560 On ch=1 n=c5 v=0
47520 On ch=1 n=d5 v=70
48480 On ch=1 n=d5 v=0
49920 On ch=1 n=d#6 v=120
49920 On ch=1 n=c6 v=120
49920 On ch=1 n=g#5 v=120
50040 On ch=1 n=g#5 v=0
50040 On ch=1 n=c6 v=0
50040 On ch=1 n=d#6 v=0
50040 On ch=1 n=d#6 v=120
50040 On ch=1 n=c6 v=120
50040 On ch=1 n=g#5 v=120
50100 On ch=1 n=g#5 v=0
50100 On ch=1 n=c6 v=0
50100 On ch=1 n=d#6 v=0
50400 On ch=1 n=g#6 v=120
50400 On ch=1 n=f6 v=120
50400 On ch=1 n=c#6 v=120
50520 On ch=1 n=c#6 v=0
50520 On ch=1 n=f6 v=0
50520 On ch=1 n=g#6 v=0
50880 On ch=1 n=d6 v=120
50880 On ch=1 n=b5 v=120
50880 On ch=1 n=g5 v=120
51000 On ch=1 n=g5 v=0
51000 On ch=1 n=b5 v=0
51000 On ch=1 n=d6 v=0
51360 On ch=1 n=c6 v=60
51360 On ch=1 n=a5 v=60
51360 On ch=1 n=f5 v=60
51480 On ch=1 n=f5 v=0
51480 On ch=1 n=a5 v=0
51480 On ch=1 n=c6 v=0
51840 On ch=1 n=a#4 v=60
51840 On ch=1 n=d5 v=60
51840 On ch=1 n=f5 v=60
51960 On ch=1 n=f5 v=0
51960 On ch=1 n=d5 v=0
51960 On ch=1 n=a#4 v=0
52560 On ch=1 n=a#4 v=40
52560 On ch=1 n=c#5 v=40
52560 On ch=1 n=f5 v=40
52680 On ch=1 n=f5 v=0
52680 On ch=1 n=c#5 v=0
52680 On ch=1 n=a#4 v=0
53520 On ch=1 n=a#4 v=40
53520 On ch=1 n=c#5 v=40
53520 On ch=1 n=f5 v=40
53640 On ch=1 n=f5 v=0
53640 On ch=1 n=c#5 v=0
53640 On ch=1 n=a#4 v=0
57120 On ch=1 n=c5 v=70
58080 On ch=1 n=c5 v=0
59040 On ch=1 n=d5 v=70
60000 On ch=1 n=d5 v=0
61440 On ch=1 n=d#6 v=120
61440 On ch=1 n=c6 v=120
61440 On ch=1 n=g#5 v=120
61560 On ch=1 n=g#5 v=0
61560 On ch=1 n=c6 v=0
61560 On ch=1 n=d#6 v=0
61560 On ch=1 n=d#6 v=120
61560 On ch=1 n=c6 v=120
61560 On ch=1 n=g#5 v=120
61620 On ch=1 n=g#5 v=0
61620 On ch=1 n=c6 v=0
61620 On ch=1 n=d#6 v=0
61920 On ch=1 n=g#6 v=120
61920 On ch=1 n=f6 v=120
61920 On ch=1 n=c#6 v=120
62040 On ch=1 n=c#6 v=0
62040 On ch=1 n=f6 v=0
62040 On ch=1 n=g#6 v=0
62400 On ch=1 n=d6 v=120
62400 On ch=1 n=b5 v=120
62400 On ch=1 n=g5 v=120
62520 On ch=1 n=g5 v=0
62520 On ch=1 n=b5 v=0
62520 On ch=1 n=d6 v=0
62880 On ch=1 n=a5 v=120
62880 On ch=1 n=f#5 v=120
62880 On ch=1 n=a6 v=120
62880 On ch=1 n=f#6 v=120
63840 On ch=1 n=f#6 v=0
63840 On ch=1 n=a6 v=0
63840 On ch=1 n=f#5 v=0
63840 On ch=1 n=a5 v=0
63840 On ch=1 n=f#5 v=120
63840 On ch=1 n=a5 v=120
63840 On ch=1 n=a6 v=120
63840 On ch=1 n=f#6 v=120
64800 On ch=1 n=f#6 v=0
64800 On ch=1 n=a6 v=0
64800 On ch=1 n=a5 v=0
64800 On ch=1 n=f#5 v=0
73740 On ch=1 n=g5 v=120
73800 On ch=1 n=g5 v=0
73800 On ch=1 n=g5 v=120
73860 On ch=1 n=g5 v=0
73860 On ch=1 n=c6 v=120
73920 On ch=1 n=c6 v=0
73920 On ch=1 n=c5 v=120
74400 On ch=1 n=c5 v=0
79440 On ch=1 n=a5 v=60
79440 On ch=1 n=f5 v=60
79560 On ch=1 n=f5 v=0
79560 On ch=1 n=a5 v=0
79920 On ch=1 n=b5 v=60
79920 On ch=1 n=g5 v=60
79920 On ch=1 n=f5 v=60
80040 On ch=1 n=f5 v=0
80040 On ch=1 n=g5 v=0
80040 On ch=1 n=b5 v=0
80400 On ch=1 n=g5 v=60
80400 On ch=1 n=e5 v=60
80520 On ch=1 n=e5 v=0
80520 On ch=1 n=g5 v=0
80880 On ch=1 n=b4 v=60
80880 On ch=1 n=d#5 v=60
80880 On ch=1 n=f#5 v=60
81000 On ch=1 n=f#5 v=0
81000 On ch=1 n=d#5 v=0
81000 On ch=1 n=b4 v=0
87360 On ch=1 n=d#5 v=120
87360 On ch=1 n=f#5 v=120
87840 On ch=1 n=f#5 v=0
87840 On ch=1 n=d#5 v=0
88320 On ch=1 n=d#5 v=120
88320 On ch=1 n=f#5 v=120
89040 On ch=1 n=f#5 v=0
89040 On ch=1 n=d#5 v=0
89040 On ch=1 n=a5 v=60
89040 On ch=1 n=f5 v=60
89280 On ch=1 n=f5 v=0
89280 On ch=1 n=a5 v=0
89280 On ch=1 n=g5 v=60
89280 On ch=1 n=e5 v=60
90360 On ch=1 n=e5 v=0
90360 On ch=1 n=g5 v=0
96960 On ch=1 n=c#5 v=110
97200 On ch=1 n=c#5 v=0
97200 On ch=1 n=f5 v=110
97440 On ch=1 n=f5 v=0
97440 On ch=1 n=e5 v=120
97680 On ch=1 n=e5 v=0
97680 On ch=1 n=d#5 v=120
97920 On ch=1 n=d#5 v=0
97920 On ch=1 n=d5 v=120
98160 On ch=1 n=d5 v=0
98160 On ch=1 n=c#5 v=120
98400 On ch=1 n=c#5 v=0
98400 On ch=1 n=f5 v=120
98640 On ch=1 n=f5 v=0
98640 On ch=1 n=e5 v=120
98880 On ch=1 n=e5 v=0
98880 On ch=1 n=d#5 v=120
99120 On ch=1 n=d#5 v=0
99120 On ch=1 n=d5 v=120
99360 On ch=1 n=d5 v=0
99660 On ch=1 n=c6 v=120
99720 On ch=1 n=c6 v=0
99720 On ch=1 n=c6 v=120
99780 On ch=1 n=c6 v=0
99780 On ch=1 n=f6 v=120
99840 On ch=1 n=f6 v=0
99840 On ch=1 n=f5 v=120
99960 On ch=1 n=f5 v=0
100620 On ch=1 n=g5 v=120
100680 On ch=1 n=g5 v=0
100680 On ch=1 n=g5 v=120
100740 On ch=1 n=g5 v=0
100740 On ch=1 n=c6 v=120
100800 On ch=1 n=c6 v=0
100800 On ch=1 n=c5 v=120
100920 On ch=1 n=c5 v=0
101580 On ch=1 n=c6 v=120
101640 On ch=1 n=c6 v=0
101640 On ch=1 n=c6 v=120
101700 On ch=1 n=c6 v=0
101700 On ch=1 n=f6 v=120
101760 On ch=1 n=f6 v=0
101760 On ch=1 n=f5 v=120
101880 On ch=1 n=f5 v=0
102540 On ch=1 n=g5 v=20
102600 On ch=1 n=g5 v=0
102600 On ch=1 n=g5 v=120
102660 On ch=1 n=g5 v=0
102660 On ch=1 n=c6 v=120
102720 On ch=1 n=c6 v=0
102720 On ch=1 n=c5 v=120
102840 On ch=1 n=c5 v=0
103500 On ch=1 n=c5 v=120
103560 On ch=1 n=c5 v=0
103560 On ch=1 n=c5 v=120
103620 On ch=1 n=c5 v=0
103620 On ch=1 n=f5 v=120
103680 On ch=1 n=f5 v=0
103680 Meta TrkEnd
TrkEnd
MTrk
0 SeqSpec 43 00 01 00
0 Meta TrkName "Upper Bass"
0 Meta 0x21 00
10740 On ch=1 n=c#5 v=60
10800 On ch=1 n=c#5 v=0
10800 On ch=1 n=d5 v=60
10800 On ch=1 n=a4 v=60
10800 On ch=1 n=d4 v=60
10800 On ch=1 n=c4 v=60
12480 On ch=1 n=c4 v=0
12480 On ch=1 n=d4 v=0
12480 On ch=1 n=a4 v=0
12480 On ch=1 n=d5 v=0
12660 On ch=1 n=c#5 v=60
12720 On ch=1 n=c#5 v=0
12720 On ch=1 n=d5 v=60
12720 On ch=1 n=a4 v=60
12720 On ch=1 n=d4 v=60
12720 On ch=1 n=c4 v=60
13680 On ch=1 n=c4 v=0
13680 On ch=1 n=d4 v=0
13680 On ch=1 n=a4 v=0
13680 On ch=1 n=d5 v=0
14640 On ch=1 n=c5 v=40
14640 On ch=1 n=d5 v=40
14640 On ch=1 n=a4 v=40
14760 On ch=1 n=a4 v=0
14760 On ch=1 n=d5 v=0
14760 On ch=1 n=c5 v=0
15120 On ch=1 n=d5 v=40
15120 On ch=1 n=c5 v=40
15120 On ch=1 n=a4 v=40
15240 On ch=1 n=a4 v=0
15240 On ch=1 n=c5 v=0
15240 On ch=1 n=d5 v=0
15600 On ch=1 n=d5 v=40
15600 On ch=1 n=c5 v=40
15600 On ch=1 n=a4 v=40
15720 On ch=1 n=a4 v=0
15720 On ch=1 n=c5 v=0
15720 On ch=1 n=d5 v=0
16080 On ch=1 n=d5 v=40
16080 On ch=1 n=c5 v=40
16080 On ch=1 n=a4 v=40
16200 On ch=1 n=a4 v=0
16200 On ch=1 n=c5 v=0
16200 On ch=1 n=d5 v=0
16320 On ch=1 n=d5 v=127
16320 On ch=1 n=c5 v=127
16320 On ch=1 n=b4 v=127
17280 On ch=1 n=b4 v=0
17280 On ch=1 n=c5 v=0
17280 On ch=1 n=d5 v=0
18420 On ch=1 n=c#5 v=60
18480 On ch=1 n=c#5 v=0
18480 On ch=1 n=d5 v=60
18480 On ch=1 n=a4 v=60
18480 On ch=1 n=d4 v=60
18480 On ch=1 n=c4 v=60
20160 On ch=1 n=c4 v=0
20160 On ch=1 n=d4 v=0
20160 On ch=1 n=a4 v=0
20160 On ch=1 n=d5 v=0
20340 On ch=1 n=c#5 v=60
20400 On ch=1 n=c#5 v=0
20400 On ch=1 n=d5 v=60
20400 On ch=1 n=a4 v=60
20400 On ch=1 n=d4 v=60
20400 On ch=1 n=c4 v=60
21360 On ch=1 n=c4 v=0
21360 On ch=1 n=d4 v=0
21360 On ch=1 n=a4 v=0
21360 On ch=1 n=d5 v=0
24240 On ch=1 n=d#5 v=60
24240 On ch=1 n=c5 v=60
24360 On ch=1 n=c5 v=0
24360 On ch=1 n=d#5 v=0
24720 On ch=1 n=d5 v=60
24720 On ch=1 n=c5 v=60
24720 On ch=1 n=a4 v=60
24840 On ch=1 n=a4 v=0
24840 On ch=1 n=c5 v=0
24840 On ch=1 n=d5 v=0
25200 On ch=1 n=e5 v=60
25200 On ch=1 n=b4 v=60
25320 On ch=1 n=b4 v=0
25320 On ch=1 n=e5 v=0
25680 On ch=1 n=d5 v=60
25680 On ch=1 n=b4 v=60
25800 On ch=1 n=b4 v=0
25800 On ch=1 n=d5 v=0
26160 On ch=1 n=d#5 v=60
26160 On ch=1 n=c5 v=60
26280 On ch=1 n=c5 v=0
26280 On ch=1 n=d#5 v=0
26640 On ch=1 n=d5 v=60
26640 On ch=1 n=c5 v=60
26640 On ch=1 n=a4 v=60
26760 On ch=1 n=a4 v=0
26760 On ch=1 n=c5 v=0
26760 On ch=1 n=d5 v=0
27120 On ch=1 n=e5 v=60
27120 On ch=1 n=b4 v=60
27240 On ch=1 n=b4 v=0
27240 On ch=1 n=e5 v=0
27600 On ch=1 n=d5 v=60
27600 On ch=1 n=b4 v=60
27720 On ch=1 n=b4 v=0
27720 On ch=1 n=d5 v=0
33780 On ch=1 n=c#5 v=60
33840 On ch=1 n=c#5 v=0
33840 On ch=1 n=d5 v=60
33840 On ch=1 n=a4 v=60
33840 On ch=1 n=d4 v=60
33840 On ch=1 n=c4 v=60
35520 On ch=1 n=c4 v=0
35520 On ch=1 n=d4 v=0
35520 On ch=1 n=a4 v=0
35520 On ch=1 n=d5 v=0
35700 On ch=1 n=c#5 v=60
35760 On ch=1 n=c#5 v=0
35760 On ch=1 n=d5 v=60
35760 On ch=1 n=a4 v=60
35760 On ch=1 n=d4 v=60
35760 On ch=1 n=c4 v=60
36720 On ch=1 n=c4 v=0
36720 On ch=1 n=d4 v=0
36720 On ch=1 n=a4 v=0
36720 On ch=1 n=d5 v=0
37680 On ch=1 n=c#5 v=60
37680 On ch=1 n=g4 v=60
37800 On ch=1 n=g4 v=0
37800 On ch=1 n=c#5 v=0
38160 On ch=1 n=c5 v=60
38160 On ch=1 n=f#4 v=60
38280 On ch=1 n=f#4 v=0
38280 On ch=1 n=c5 v=0
38640 On ch=1 n=c#5 v=60
38640 On ch=1 n=g4 v=60
38760 On ch=1 n=g4 v=0
38760 On ch=1 n=c#5 v=0
39120 On ch=1 n=c5 v=60
39120 On ch=1 n=f#4 v=60
39240 On ch=1 n=f#4 v=0
39240 On ch=1 n=c5 v=0
39600 On ch=1 n=d#5 v=60
39600 On ch=1 n=a4 v=60
39720 On ch=1 n=a4 v=0
39720 On ch=1 n=d#5 v=0
40080 On ch=1 n=c5 v=60
40080 On ch=1 n=g#4 v=60
40200 On ch=1 n=g#4 v=0
40200 On ch=1 n=c5 v=0
40560 On ch=1 n=c#5 v=60
40560 On ch=1 n=g4 v=60
40680 On ch=1 n=g4 v=0
40680 On ch=1 n=c#5 v=0
41040 On ch=1 n=c5 v=60
41040 On ch=1 n=f#4 v=60
41160 On ch=1 n=f#4 v=0
41160 On ch=1 n=c5 v=0
46080 On ch=1 n=g#4 v=60
46080 On ch=1 n=f#4 v=60
46140 On ch=1 n=f#4 v=0
46140 On ch=1 n=g#4 v=0
46560 On ch=1 n=g#4 v=60
46560 On ch=1 n=f#4 v=60
46680 On ch=1 n=f#4 v=0
46680 On ch=1 n=g#4 v=0
47040 On ch=1 n=d#5 v=60
47520 On ch=1 n=d#5 v=0
48000 On ch=1 n=a#4 v=60
48000 On ch=1 n=g#4 v=60
48060 On ch=1 n=g#4 v=0
48060 On ch=1 n=a#4 v=0
48480 On ch=1 n=a#4 v=60
48480 On ch=1 n=g#4 v=60
48600 On ch=1 n=g#4 v=0
48600 On ch=1 n=a#4 v=0
48960 On ch=1 n=f5 v=60
49440 On ch=1 n=f5 v=0
52320 On ch=1 n=d5 v=40
52320 On ch=1 n=b4 v=40
52320 On ch=1 n=g4 v=40
52440 On ch=1 n=g4 v=0
52440 On ch=1 n=b4 v=0
52440 On ch=1 n=d5 v=0
53040 On ch=1 n=d4 v=40
53160 On ch=1 n=d4 v=0
53280 On ch=1 n=d5 v=40
53280 On ch=1 n=b4 v=40
53280 On ch=1 n=g4 v=40
53400 On ch=1 n=g4 v=0
53400 On ch=1 n=b4 v=0
53400 On ch=1 n=d5 v=0
54000 On ch=1 n=d4 v=40
54120 On ch=1 n=d4 v=0
54480 On ch=1 n=d4 v=40
54600 On ch=1 n=d4 v=0
54960 On ch=1 n=d4 v=40
55080 On ch=1 n=d4 v=0
55440 On ch=1 n=d4 v=127
55680 On ch=1 n=d4 v=0
55920 On ch=1 n=f5 v=120
56160 On ch=1 n=f5 v=0
56160 On ch=1 n=e5 v=120
56400 On ch=1 n=e5 v=0
56400 On ch=1 n=d#5 v=120
56640 On ch=1 n=d#5 v=0
56640 On ch=1 n=d5 v=120
56880 On ch=1 n=d5 v=0
56880 On ch=1 n=c#5 v=120
57120 On ch=1 n=c#5 v=0
57600 On ch=1 n=g#4 v=60
57600 On ch=1 n=f#4 v=60
57660 On ch=1 n=f#4 v=0
57660 On ch=1 n=g#4 v=0
58080 On ch=1 n=g#4 v=60
58080 On ch=1 n=f#4 v=60
58200 On ch=1 n=f#4 v=0
58200 On ch=1 n=g#4 v=0
58560 On ch=1 n=d#5 v=60
59040 On ch=1 n=d#5 v=0
59520 On ch=1 n=a#4 v=60
59520 On ch=1 n=g#4 v=60
59580 On ch=1 n=g#4 v=0
59580 On ch=1 n=a#4 v=0
60000 On ch=1 n=a#4 v=60
60000 On ch=1 n=g#4 v=60
60120 On ch=1 n=g#4 v=0
60120 On ch=1 n=a#4 v=0
60480 On ch=1 n=f5 v=60
60960 On ch=1 n=f5 v=0
65040 On ch=1 n=c#5 v=120
65040 On ch=1 n=a#4 v=120
65040 On ch=1 n=g4 v=120
65760 On ch=1 n=g4 v=0
65760 On ch=1 n=a#4 v=0
65760 On ch=1 n=c#5 v=0
67860 On ch=1 n=c#5 v=40
67920 On ch=1 n=c#5 v=0
67920 On ch=1 n=d5 v=40
67920 On ch=1 n=a4 v=40
67920 On ch=1 n=d4 v=40
67920 On ch=1 n=c4 v=40
69600 On ch=1 n=c4 v=0
69600 On ch=1 n=d4 v=0
69600 On ch=1 n=a4 v=0
69600 On ch=1 n=d5 v=0
69780 On ch=1 n=c#5 v=40
69840 On ch=1 n=c#5 v=0
69840 On ch=1 n=d5 v=40
69840 On ch=1 n=a4 v=40
69840 On ch=1 n=d4 v=40
69840 On ch=1 n=c4 v=40
70800 On ch=1 n=c4 v=0
70800 On ch=1 n=d4 v=0
70800 On ch=1 n=a4 v=0
70800 On ch=1 n=d5 v=0
71760 On ch=1 n=c5 v=40
71760 On ch=1 n=d5 v=40
71760 On ch=1 n=a4 v=40
71880 On ch=1 n=a4 v=0
71880 On ch=1 n=d5 v=0
71880 On ch=1 n=c5 v=0
72240 On ch=1 n=d5 v=40
72240 On ch=1 n=c5 v=40
72240 On ch=1 n=a4 v=40
72360 On ch=1 n=a4 v=0
72360 On ch=1 n=c5 v=0
72360 On ch=1 n=d5 v=0
72720 On ch=1 n=d5 v=40
72720 On ch=1 n=c5 v=40
72720 On ch=1 n=a4 v=40
72840 On ch=1 n=a4 v=0
72840 On ch=1 n=c5 v=0
72840 On ch=1 n=d5 v=0
73200 On ch=1 n=d5 v=40
73200 On ch=1 n=c5 v=40
73200 On ch=1 n=a4 v=40
73320 On ch=1 n=a4 v=0
73320 On ch=1 n=c5 v=0
73320 On ch=1 n=d5 v=0
73440 On ch=1 n=d5 v=127
73440 On ch=1 n=c5 v=127
73440 On ch=1 n=b4 v=127
74400 On ch=1 n=b4 v=0
74400 On ch=1 n=c5 v=0
74400 On ch=1 n=d5 v=0
75540 On ch=1 n=c#5 v=60
75600 On ch=1 n=c#5 v=0
75600 On ch=1 n=d5 v=60
75600 On ch=1 n=a4 v=60
75600 On ch=1 n=d4 v=60
75600 On ch=1 n=c4 v=60
77280 On ch=1 n=c4 v=0
77280 On ch=1 n=d4 v=0
77280 On ch=1 n=a4 v=0
77280 On ch=1 n=d5 v=0
77460 On ch=1 n=c#5 v=60
77520 On ch=1 n=c#5 v=0
77520 On ch=1 n=d5 v=60
77520 On ch=1 n=a4 v=60
77520 On ch=1 n=d4 v=60
77520 On ch=1 n=c4 v=60
78480 On ch=1 n=c4 v=0
78480 On ch=1 n=d4 v=0
78480 On ch=1 n=a4 v=0
78480 On ch=1 n=d5 v=0
81360 On ch=1 n=d#5 v=60
81360 On ch=1 n=c5 v=60
81480 On ch=1 n=c5 v=0
81480 On ch=1 n=d#5 v=0
81840 On ch=1 n=d5 v=60
81840 On ch=1 n=c5 v=60
81840 On ch=1 n=a4 v=60
81960 On ch=1 n=a4 v=0
81960 On ch=1 n=c5 v=0
81960 On ch=1 n=d5 v=0
82320 On ch=1 n=e5 v=60
82320 On ch=1 n=b4 v=60
82440 On ch=1 n=b4 v=0
82440 On ch=1 n=e5 v=0
82800 On ch=1 n=d5 v=60
82800 On ch=1 n=b4 v=60
82920 On ch=1 n=b4 v=0
82920 On ch=1 n=d5 v=0
83280 On ch=1 n=d#5 v=60
83280 On ch=1 n=c5 v=60
83400 On ch=1 n=c5 v=0
83400 On ch=1 n=d#5 v=0
83760 On ch=1 n=d5 v=60
83760 On ch=1 n=c5 v=60
83760 On ch=1 n=a4 v=60
83880 On ch=1 n=a4 v=0
83880 On ch=1 n=c5 v=0
83880 On ch=1 n=d5 v=0
84240 On ch=1 n=e5 v=60
84240 On ch=1 n=b4 v=60
84360 On ch=1 n=b4 v=0
84360 On ch=1 n=e5 v=0
84720 On ch=1 n=d5 v=60
84720 On ch=1 n=b4 v=60
84840 On ch=1 n=b4 v=0
84840 On ch=1 n=d5 v=0
90900 On ch=1 n=d5 v=60
90960 On ch=1 n=d5 v=0
90960 On ch=1 n=d#5 v=60
90960 On ch=1 n=a#4 v=60
90960 On ch=1 n=d#4 v=60
90960 On ch=1 n=c#4 v=60
92640 On ch=1 n=c#4 v=0
92640 On ch=1 n=d#4 v=0
92640 On ch=1 n=a#4 v=0
92640 On ch=1 n=d#5 v=0
94740 On ch=1 n=d5 v=60
94800 On ch=1 n=d5 v=0
94800 On ch=1 n=d#5 v=60
94800 On ch=1 n=a#4 v=60
94800 On ch=1 n=c#4 v=60
94800 On ch=1 n=d#4 v=60
95520 On ch=1 n=d#4 v=0
95520 On ch=1 n=c#4 v=0
95520 On ch=1 n=a#4 v=0
95520 On ch=1 n=d#5 v=0
95520 Meta TrkEnd
TrkEnd
MTrk
0 SeqSpec 43 00 01 00
0 Meta TrkName "Middle Bass"
0 Meta 0x21 00
7680 On ch=1 n=d5 v=40
7680 On ch=1 n=b4 v=40
7680 On ch=1 n=g4 v=40
7800 On ch=1 n=g4 v=0
7800 On ch=1 n=b4 v=0
7800 On ch=1 n=d5 v=0
7920 On ch=1 n=a#4 v=40
7920 On ch=1 n=f#4 v=40
7920 On ch=1 n=d#4 v=40
8040 On ch=1 n=d#4 v=0
8040 On ch=1 n=f#4 v=0
8040 On ch=1 n=a#4 v=0
8160 On ch=1 n=g4 v=40
8160 On ch=1 n=e4 v=40
8160 On ch=1 n=c4 v=40
8280 On ch=1 n=c4 v=0
8280 On ch=1 n=e4 v=0
8280 On ch=1 n=g4 v=0
8400 On ch=1 n=d#4 v=40
8400 On ch=1 n=b3 v=40
8400 On ch=1 n=g#3 v=40
8520 On ch=1 n=g#3 v=0
8520 On ch=1 n=b3 v=0
8520 On ch=1 n=d#4 v=0
11040 On ch=1 n=c3 v=40
11160 On ch=1 n=c3 v=0
11280 On ch=1 n=d3 v=40
11400 On ch=1 n=d3 v=0
11520 On ch=1 n=f3 v=40
11640 On ch=1 n=f3 v=0
11640 On ch=1 n=g3 v=40
11760 On ch=1 n=g3 v=0
11760 On ch=1 n=a3 v=40
11820 On ch=1 n=a3 v=0
11880 On ch=1 n=g3 v=40
11940 On ch=1 n=g3 v=0
12000 On ch=1 n=f3 v=40
12120 On ch=1 n=f3 v=0
12240 On ch=1 n=d3 v=40
12360 On ch=1 n=d3 v=0
12960 On ch=1 n=c3 v=40
13080 On ch=1 n=c3 v=0
13200 On ch=1 n=d3 v=40
13320 On ch=1 n=d3 v=0
13440 On ch=1 n=f3 v=40
13560 On ch=1 n=f3 v=0
13560 On ch=1 n=g3 v=40
13680 On ch=1 n=g3 v=0
13680 On ch=1 n=a3 v=40
13740 On ch=1 n=a3 v=0
13800 On ch=1 n=c4 v=40
13860 On ch=1 n=c4 v=0
13920 On ch=1 n=d4 v=40
14040 On ch=1 n=d4 v=0
14160 On ch=1 n=f4 v=40
14280 On ch=1 n=f4 v=0
14400 On ch=1 n=g4 v=40
14760 On ch=1 n=g4 v=0
14760 On ch=1 n=f4 v=40
14820 On ch=1 n=f4 v=0
14880 On ch=1 n=d4 v=40
15240 On ch=1 n=d4 v=0
15240 On ch=1 n=f4 v=40
15300 On ch=1 n=f4 v=0
15360 On ch=1 n=g4 v=40
15720 On ch=1 n=g4 v=0
15720 On ch=1 n=f4 v=40
15780 On ch=1 n=f4 v=0
15840 On ch=1 n=d4 v=40
16200 On ch=1 n=d4 v=0
16200 On ch=1 n=a4 v=40
16260 On ch=1 n=a4 v=0
16320 On ch=1 n=g#4 v=127
17280 On ch=1 n=g#4 v=0
17280 On ch=1 n=g4 v=127
17300 On ch=1 n=a#4 v=127
17320 On ch=1 n=c5 v=127
17340 On ch=1 n=d5 v=127
17520 On ch=1 n=g4 v=0
17540 On ch=1 n=a#4 v=0
17560 On ch=1 n=c5 v=0
17580 On ch=1 n=d5 v=0
17580 On ch=1 n=g4 v=120
17640 On ch=1 n=g4 v=0
17640 On ch=1 n=g4 v=120
17700 On ch=1 n=g4 v=0
17700 On ch=1 n=c5 v=120
17760 On ch=1 n=c5 v=0
17760 On ch=1 n=c4 v=120
17820 On ch=1 n=c4 v=0
18000 On ch=1 n=c4 v=120
18060 On ch=1 n=c4 v=0
18720 On ch=1 n=c3 v=40
18840 On ch=1 n=c3 v=0
18960 On ch=1 n=d3 v=40
19080 On ch=1 n=d3 v=0
19200 On ch=1 n=f3 v=40
19320 On ch=1 n=f3 v=0
19320 On ch=1 n=g3 v=40
19440 On ch=1 n=g3 v=0
19440 On ch=1 n=a3 v=40
19500 On ch=1 n=a3 v=0
19560 On ch=1 n=g3 v=40
19620 On ch=1 n=g3 v=0
19680 On ch=1 n=f3 v=40
19800 On ch=1 n=f3 v=0
19920 On ch=1 n=d3 v=40
20040 On ch=1 n=d3 v=0
20640 On ch=1 n=c3 v=40
20760 On ch=1 n=c3 v=0
20880 On ch=1 n=d3 v=40
21000 On ch=1 n=d3 v=0
21120 On ch=1 n=f3 v=40
21240 On ch=1 n=f3 v=0
21240 On ch=1 n=g3 v=40
21360 On ch=1 n=g3 v=0
21360 On ch=1 n=a3 v=40
21420 On ch=1 n=a3 v=0
21480 On ch=1 n=c4 v=40
21540 On ch=1 n=c4 v=0
21600 On ch=1 n=d4 v=40
21720 On ch=1 n=d4 v=0
21840 On ch=1 n=f4 v=40
21960 On ch=1 n=f4 v=0
22080 On ch=1 n=g4 v=40
22140 On ch=1 n=g4 v=0
22200 On ch=1 n=a4 v=40
22260 On ch=1 n=a4 v=0
22320 On ch=1 n=c5 v=40
22440 On ch=1 n=c5 v=0
22440 On ch=1 n=d5 v=40
22560 On ch=1 n=d5 v=0
22560 On ch=1 n=e5 v=40
22800 On ch=1 n=e5 v=0
22800 On ch=1 n=d5 v=40
23280 On ch=1 n=d5 v=0
23280 On ch=1 n=c5 v=60
23400 On ch=1 n=c5 v=0
23400 On ch=1 n=b4 v=60
23520 On ch=1 n=b4 v=0
23520 On ch=1 n=a4 v=60
24240 On ch=1 n=a4 v=0
24240 On ch=1 n=g#4 v=60
24360 On ch=1 n=g#4 v=0
24360 On ch=1 n=g4 v=60
24480 On ch=1 n=g4 v=0
24480 On ch=1 n=f#4 v=60
25200 On ch=1 n=f#4 v=0
25200 On ch=1 n=g#4 v=60
25320 On ch=1 n=g#4 v=0
25320 On ch=1 n=g4 v=60
25440 On ch=1 n=g4 v=0
25440 On ch=1 n=f#4 v=60
25500 On ch=1 n=f#4 v=0
25560 On ch=1 n=f#4 v=60
25620 On ch=1 n=f#4 v=0
25680 On ch=1 n=a4 v=60
25800 On ch=1 n=a4 v=0
25800 On ch=1 n=g#4 v=60
25920 On ch=1 n=g#4 v=0
26160 On ch=1 n=g#4 v=60
26280 On ch=1 n=g#4 v=0
26280 On ch=1 n=g4 v=60
26400 On ch=1 n=g4 v=0
26400 On ch=1 n=f#4 v=60
27120 On ch=1 n=f#4 v=0
27120 On ch=1 n=g#4 v=60
27240 On ch=1 n=g#4 v=0
27240 On ch=1 n=g4 v=60
27360 On ch=1 n=g4 v=0
27360 On ch=1 n=f#4 v=60
27420 On ch=1 n=f#4 v=0
27480 On ch=1 n=f#4 v=60
27540 On ch=1 n=f#4 v=0
27600 On ch=1 n=a4 v=60
27720 On ch=1 n=a4 v=0
27720 On ch=1 n=g#4 v=60
27840 On ch=1 n=g#4 v=0
27840 On ch=1 n=g4 v=60
27900 On ch=1 n=g4 v=0
27960 On ch=1 n=f#4 v=65
28020 On ch=1 n=f#4 v=0
28080 On ch=1 n=g#4 v=70
28140 On ch=1 n=g#4 v=0
28200 On ch=1 n=g4 v=75
28260 On ch=1 n=g4 v=0
28320 On ch=1 n=f#4 v=80
28380 On ch=1 n=f#4 v=0
28440 On ch=1 n=f4 v=85
28500 On ch=1 n=f4 v=0
28560 On ch=1 n=g4 v=90
28620 On ch=1 n=g4 v=0
28680 On ch=1 n=f#4 v=95
28740 On ch=1 n=f#4 v=0
28800 On ch=1 n=f4 v=100
28860 On ch=1 n=f4 v=0
28920 On ch=1 n=e4 v=105
28980 On ch=1 n=e4 v=0
29040 On ch=1 n=f#4 v=110
29100 On ch=1 n=f#4 v=0
29160 On ch=1 n=f4 v=115
29220 On ch=1 n=f4 v=0
29280 On ch=1 n=e4 v=120
29340 On ch=1 n=e4 v=0
29400 On ch=1 n=d#4 v=125
29460 On ch=1 n=d#4 v=0
29520 On ch=1 n=f4 v=127
29580 On ch=1 n=f4 v=0
29640 On ch=1 n=e4 v=127
29700 On ch=1 n=e4 v=0
30240 On ch=1 n=b4 v=110
30240 On ch=1 n=a4 v=110
30720 On ch=1 n=a4 v=0
30720 On ch=1 n=b4 v=0
31200 On ch=1 n=b4 v=110
31200 On ch=1 n=a4 v=110
31920 On ch=1 n=a4 v=0
31920 On ch=1 n=b4 v=0
31920 On ch=1 n=b4 v=110
31920 On ch=1 n=a4 v=110
33240 On ch=1 n=a4 v=0
33240 On ch=1 n=b4 v=0
34080 On ch=1 n=c3 v=40
34200 On ch=1 n=c3 v=0
34320 On ch=1 n=d3 v=40
34440 On ch=1 n=d3 v=0
34560 On ch=1 n=f3 v=40
34680 On ch=1 n=f3 v=0
34680 On ch=1 n=g3 v=40
34800 On ch=1 n=g3 v=0
34800 On ch=1 n=a3 v=40
34860 On ch=1 n=a3 v=0
34920 On ch=1 n=g3 v=40
34980 On ch=1 n=g3 v=0
35040 On ch=1 n=f3 v=40
35160 On ch=1 n=f3 v=0
35280 On ch=1 n=d3 v=40
35400 On ch=1 n=d3 v=0
36000 On ch=1 n=c3 v=40
36120 On ch=1 n=c3 v=0
36240 On ch=1 n=d3 v=40
36360 On ch=1 n=d3 v=0
36480 On ch=1 n=f3 v=40
36600 On ch=1 n=f3 v=0
36600 On ch=1 n=g3 v=40
36720 On ch=1 n=g3 v=0
36720 On ch=1 n=a3 v=40
36780 On ch=1 n=a3 v=0
36840 On ch=1 n=c4 v=40
36900 On ch=1 n=c4 v=0
36960 On ch=1 n=d4 v=40
37080 On ch=1 n=d4 v=0
37200 On ch=1 n=f4 v=40
37320 On ch=1 n=f4 v=0
68160 On ch=1 n=c3 v=40
68280 On ch=1 n=c3 v=0
68400 On ch=1 n=d3 v=40
68520 On ch=1 n=d3 v=0
68640 On ch=1 n=f3 v=40
68760 On ch=1 n=f3 v=0
68760 On ch=1 n=g3 v=40
68880 On ch=1 n=g3 v=0
68880 On ch=1 n=a3 v=40
68940 On ch=1 n=a3 v=0
69000 On ch=1 n=g3 v=40
69060 On ch=1 n=g3 v=0
69120 On ch=1 n=f3 v=40
69240 On ch=1 n=f3 v=0
69360 On ch=1 n=d3 v=40
69480 On ch=1 n=d3 v=0
70080 On ch=1 n=c3 v=60
70200 On ch=1 n=c3 v=0
70320 On ch=1 n=d3 v=60
70440 On ch=1 n=d3 v=0
70560 On ch=1 n=f3 v=60
70680 On ch=1 n=f3 v=0
70680 On ch=1 n=g3 v=60
70800 On ch=1 n=g3 v=0
70800 On ch=1 n=a3 v=60
70860 On ch=1 n=a3 v=0
70920 On ch=1 n=c4 v=60
70980 On ch=1 n=c4 v=0
71040 On ch=1 n=d4 v=60
71160 On ch=1 n=d4 v=0
71280 On ch=1 n=f4 v=60
71400 On ch=1 n=f4 v=0
71520 On ch=1 n=g4 v=60
71880 On ch=1 n=g4 v=0
71880 On ch=1 n=f4 v=60
71940 On ch=1 n=f4 v=0
72000 On ch=1 n=d4 v=60
72360 On ch=1 n=d4 v=0
72360 On ch=1 n=f4 v=60
72420 On ch=1 n=f4 v=0
72480 On ch=1 n=g4 v=60
72840 On ch=1 n=g4 v=0
72840 On ch=1 n=f4 v=60
72900 On ch=1 n=f4 v=0
72960 On ch=1 n=d4 v=60
73320 On ch=1 n=d4 v=0
73320 On ch=1 n=a4 v=60
73380 On ch=1 n=a4 v=0
73440 On ch=1 n=g#4 v=127
74400 On ch=1 n=g#4 v=0
74400 On ch=1 n=g4 v=127
74420 On ch=1 n=a#4 v=127
74440 On ch=1 n=c5 v=127
74460 On ch=1 n=d5 v=127
74640 On ch=1 n=g4 v=0
74660 On ch=1 n=a#4 v=0
74680 On ch=1 n=c5 v=0
74700 On ch=1 n=d5 v=0
74700 On ch=1 n=g4 v=127
74760 On ch=1 n=g4 v=0
74760 On ch=1 n=g4 v=127
74820 On ch=1 n=g4 v=0
74820 On ch=1 n=c5 v=127
74880 On ch=1 n=c5 v=0
74880 On ch=1 n=c4 v=127
74940 On ch=1 n=c4 v=0
75120 On ch=1 n=c4 v=127
75180 On ch=1 n=c4 v=0
75840 On ch=1 n=c3 v=40
75960 On ch=1 n=c3 v=0
76080 On ch=1 n=d3 v=40
76200 On ch=1 n=d3 v=0
76320 On ch=1 n=f3 v=40
76440 On ch=1 n=f3 v=0
76440 On ch=1 n=g3 v=40
76560 On ch=1 n=g3 v=0
76560 On ch=1 n=a3 v=40
76620 On ch=1 n=a3 v=0
76680 On ch=1 n=g3 v=40
76740 On ch=1 n=g3 v=0
76800 On ch=1 n=f3 v=40
76920 On ch=1 n=f3 v=0
77040 On ch=1 n=d3 v=40
77160 On ch=1 n=d3 v=0
77760 On ch=1 n=c3 v=40
77880 On ch=1 n=c3 v=0
78000 On ch=1 n=d3 v=40
78120 On ch=1 n=d3 v=0
78240 On ch=1 n=f3 v=40
78360 On ch=1 n=f3 v=0
78360 On ch=1 n=g3 v=40
78480 On ch=1 n=g3 v=0
78480 On ch=1 n=a3 v=40
78540 On ch=1 n=a3 v=0
78600 On ch=1 n=c4 v=40
78660 On ch=1 n=c4 v=0
78720 On ch=1 n=d4 v=40
78840 On ch=1 n=d4 v=0
78960 On ch=1 n=f4 v=40
79080 On ch=1 n=f4 v=0
79200 On ch=1 n=g4 v=40
79260 On ch=1 n=g4 v=0
79320 On ch=1 n=a4 v=40
79380 On ch=1 n=a4 v=0
79440 On ch=1 n=c5 v=40
79560 On ch=1 n=c5 v=0
79560 On ch=1 n=d5 v=40
79680 On ch=1 n=d5 v=0
79680 On ch=1 n=e5 v=40
79920 On ch=1 n=e5 v=0
79920 On ch=1 n=d5 v=40
80400 On ch=1 n=d5 v=0
80400 On ch=1 n=c5 v=60
80520 On ch=1 n=c5 v=0
80520 On ch=1 n=b4 v=60
80640 On ch=1 n=b4 v=0
80640 On ch=1 n=a4 v=60
81360 On ch=1 n=a4 v=0
81360 On ch=1 n=g#4 v=60
81480 On ch=1 n=g#4 v=0
81480 On ch=1 n=g4 v=60
81600 On ch=1 n=g4 v=0
81600 On ch=1 n=f#4 v=60
82320 On ch=1 n=f#4 v=0
82320 On ch=1 n=g#4 v=60
82440 On ch=1 n=g#4 v=0
82440 On ch=1 n=g4 v=60
82560 On ch=1 n=g4 v=0
82560 On ch=1 n=f#4 v=60
82620 On ch=1 n=f#4 v=0
82680 On ch=1 n=f#4 v=60
82740 On ch=1 n=f#4 v=0
82800 On ch=1 n=a4 v=60
82920 On ch=1 n=a4 v=0
82920 On ch=1 n=g#4 v=60
83040 On ch=1 n=g#4 v=0
83280 On ch=1 n=g#4 v=60
83400 On ch=1 n=g#4 v=0
83400 On ch=1 n=g4 v=60
83520 On ch=1 n=g4 v=0
83520 On ch=1 n=f#4 v=60
84240 On ch=1 n=f#4 v=0
84240 On ch=1 n=g#4 v=60
84360 On ch=1 n=g#4 v=0
84360 On ch=1 n=g4 v=60
84480 On ch=1 n=g4 v=0
84480 On ch=1 n=f#4 v=60
84540 On ch=1 n=f#4 v=0
84600 On ch=1 n=f#4 v=60
84660 On ch=1 n=f#4 v=0
84720 On ch=1 n=a4 v=60
84840 On ch=1 n=a4 v=0
84840 On ch=1 n=g#4 v=60
84960 On ch=1 n=g#4 v=0
84960 On ch=1 n=g4 v=60
85020 On ch=1 n=g4 v=0
85080 On ch=1 n=f#4 v=65
85140 On ch=1 n=f#4 v=0
85200 On ch=1 n=g#4 v=70
85260 On ch=1 n=g#4 v=0
85320 On ch=1 n=g4 v=75
85380 On ch=1 n=g4 v=0
85440 On ch=1 n=f#4 v=80
85500 On ch=1 n=f#4 v=0
85560 On ch=1 n=f4 v=85
85620 On ch=1 n=f4 v=0
85680 On ch=1 n=g4 v=90
85740 On ch=1 n=g4 v=0
85800 On ch=1 n=f#4 v=95
85860 On ch=1 n=f#4 v=0
85920 On ch=1 n=f4 v=100
85980 On ch=1 n=f4 v=0
86040 On ch=1 n=e4 v=105
86100 On ch=1 n=e4 v=0
86160 On ch=1 n=f#4 v=110
86220 On ch=1 n=f#4 v=0
86280 On ch=1 n=f4 v=115
86340 On ch=1 n=f4 v=0
86400 On ch=1 n=e4 v=120
86460 On ch=1 n=e4 v=0
86520 On ch=1 n=d#4 v=125
86580 On ch=1 n=d#4 v=0
86640 On ch=1 n=f4 v=125
86700 On ch=1 n=f4 v=0
86760 On ch=1 n=e4 v=125
86820 On ch=1 n=e4 v=0
87360 On ch=1 n=b4 v=110
87360 On ch=1 n=a4 v=110
87840 On ch=1 n=a4 v=0
87840 On ch=1 n=b4 v=0
88320 On ch=1 n=b4 v=110
88320 On ch=1 n=a4 v=110
89040 On ch=1 n=a4 v=0
89040 On ch=1 n=b4 v=0
89040 On ch=1 n=b4 v=110
89040 On ch=1 n=a4 v=110
90360 On ch=1 n=a4 v=0
90360 On ch=1 n=b4 v=0
91200 On ch=1 n=c#3 v=40
91320 On ch=1 n=c#3 v=0
91440 On ch=1 n=d#3 v=40
91560 On ch=1 n=d#3 v=0
91680 On ch=1 n=f#3 v=40
91800 On ch=1 n=f#3 v=0
91800 On ch=1 n=g#3 v=40
91920 On ch=1 n=g#3 v=0
91920 On ch=1 n=a#3 v=40
91980 On ch=1 n=a#3 v=0
92040 On ch=1 n=g#3 v=40
92100 On ch=1 n=g#3 v=0
92160 On ch=1 n=f#3 v=40
92280 On ch=1 n=f#3 v=0
92400 On ch=1 n=d#3 v=40
92880 On ch=1 n=d#3 v=0
93600 On ch=1 n=f#3 v=60
93600 On ch=1 n=a3 v=60
94560 On ch=1 n=a3 v=0
94560 On ch=1 n=f#3 v=0
95040 On ch=1 n=c#3 v=60
95160 On ch=1 n=c#3 v=0
95280 On ch=1 n=d#3 v=60
95400 On ch=1 n=d#3 v=0
95520 On ch=1 n=f#3 v=70
95640 On ch=1 n=f#3 v=0
95640 On ch=1 n=g#3 v=80
95760 On ch=1 n=g#3 v=0
95760 On ch=1 n=a#3 v=90
95820 On ch=1 n=a#3 v=0
95880 On ch=1 n=c#4 v=100
95940 On ch=1 n=c#4 v=0
96000 On ch=1 n=d#4 v=100
96120 On ch=1 n=d#4 v=0
96240 On ch=1 n=f#4 v=100
96360 On ch=1 n=f#4 v=0
96480 On ch=1 n=g#4 v=100
96600 On ch=1 n=g#4 v=0
96720 On ch=1 n=a#4 v=100
96840 On ch=1 n=a#4 v=0
99600 On ch=1 n=g4 v=125
100320 On ch=1 n=g4 v=0
100560 On ch=1 n=a#4 v=125
101280 On ch=1 n=a#4 v=0
101520 On ch=1 n=g4 v=125
102240 On ch=1 n=g4 v=0
102480 On ch=1 n=a#4 v=125
103200 On ch=1 n=a#4 v=0
105120 On ch=1 n=f4 v=127
105240 On ch=1 n=f4 v=0
105240 Meta TrkEnd
TrkEnd
MTrk
0 SeqSpec 43 00 01 00
0 Meta TrkName "Lower Bass"
0 Meta 0x21 00
8460 On ch=1 n=g3 v=40
8520 On ch=1 n=g3 v=0
8520 On ch=1 n=g3 v=40
8580 On ch=1 n=g3 v=0
8580 On ch=1 n=c4 v=40
8640 On ch=1 n=c4 v=0
8640 On ch=1 n=c2 v=40
8880 On ch=1 n=c2 v=0
9600 On ch=1 n=c2 v=127
9840 On ch=1 n=c2 v=0
10560 On ch=1 n=f2 v=40
11040 On ch=1 n=f2 v=0
12480 On ch=1 n=f2 v=40
12960 On ch=1 n=f2 v=0
14400 On ch=1 n=f2 v=40
14400 On ch=1 n=f3 v=40
14460 On ch=1 n=f3 v=0
14460 On ch=1 n=f2 v=0
14880 On ch=1 n=c2 v=40
14880 On ch=1 n=c3 v=40
14940 On ch=1 n=c3 v=0
14940 On ch=1 n=c2 v=0
15360 On ch=1 n=f2 v=40
15360 On ch=1 n=f3 v=40
15420 On ch=1 n=f3 v=0
15420 On ch=1 n=f2 v=0
15840 On ch=1 n=c2 v=40
15840 On ch=1 n=c3 v=40
15900 On ch=1 n=c3 v=0
15900 On ch=1 n=c2 v=0
17880 On ch=1 n=g3 v=40
17940 On ch=1 n=g3 v=0
18120 On ch=1 n=c3 v=40
18180 On ch=1 n=c3 v=0
18240 On ch=1 n=f2 v=40
18720 On ch=1 n=f2 v=0
20160 On ch=1 n=f2 v=40
20640 On ch=1 n=f2 v=0
22080 On ch=1 n=d3 v=40
22080 On ch=1 n=d2 v=40
22200 On ch=1 n=d2 v=0
22200 On ch=1 n=d3 v=0
22560 On ch=1 n=g2 v=40
22560 On ch=1 n=g3 v=40
22680 On ch=1 n=g3 v=0
22680 On ch=1 n=g2 v=0
23040 On ch=1 n=a2 v=40
23040 On ch=1 n=a3 v=40
23160 On ch=1 n=a3 v=0
23160 On ch=1 n=a2 v=0
23520 On ch=1 n=b2 v=40
23520 On ch=1 n=b3 v=40
23640 On ch=1 n=b3 v=0
23640 On ch=1 n=b2 v=0
24000 On ch=1 n=g#2 v=40
24000 On ch=1 n=g#3 v=40
24120 On ch=1 n=g#3 v=0
24120 On ch=1 n=g#2 v=0
24480 On ch=1 n=d3 v=40
24480 On ch=1 n=d4 v=40
24600 On ch=1 n=d4 v=0
24600 On ch=1 n=d3 v=0
24960 On ch=1 n=g#2 v=40
24960 On ch=1 n=g#3 v=40
25080 On ch=1 n=g#3 v=0
25080 On ch=1 n=g#2 v=0
25440 On ch=1 n=d3 v=40
25440 On ch=1 n=d4 v=40
25560 On ch=1 n=d4 v=0
25560 On ch=1 n=d3 v=0
25920 On ch=1 n=g#2 v=40
25920 On ch=1 n=g#3 v=40
26040 On ch=1 n=g#3 v=0
26040 On ch=1 n=g#2 v=0
26400 On ch=1 n=d3 v=40
26400 On ch=1 n=d4 v=40
26520 On ch=1 n=d4 v=0
26520 On ch=1 n=d3 v=0
26880 On ch=1 n=g#2 v=40
26880 On ch=1 n=g#3 v=40
27000 On ch=1 n=g#3 v=0
27000 On ch=1 n=g#2 v=0
27360 On ch=1 n=d3 v=40
27360 On ch=1 n=d4 v=40
27480 On ch=1 n=d4 v=0
27480 On ch=1 n=d3 v=0
29760 On ch=1 n=c4 v=110
30720 On ch=1 n=c4 v=0
30720 On ch=1 n=c4 v=110
31680 On ch=1 n=c4 v=0
31680 On ch=1 n=c4 v=110
33240 On ch=1 n=c4 v=0
33240 On ch=1 n=a#3 v=60
33300 On ch=1 n=a#3 v=0
33360 On ch=1 n=g#3 v=60
33420 On ch=1 n=g#3 v=0
33480 On ch=1 n=f#3 v=60
33540 On ch=1 n=f#3 v=0
33600 On ch=1 n=f2 v=40
34080 On ch=1 n=f2 v=0
35520 On ch=1 n=f2 v=40
36000 On ch=1 n=f2 v=0
37440 On ch=1 n=d#2 v=40
37440 On ch=1 n=d#3 v=40
37560 On ch=1 n=d#3 v=0
37560 On ch=1 n=d#2 v=0
37920 On ch=1 n=g#2 v=40
37920 On ch=1 n=g#3 v=40
38040 On ch=1 n=g#3 v=0
38040 On ch=1 n=g#2 v=0
38400 On ch=1 n=d#2 v=40
38400 On ch=1 n=d#3 v=40
38520 On ch=1 n=d#3 v=0
38520 On ch=1 n=d#2 v=0
38880 On ch=1 n=g#2 v=40
38880 On ch=1 n=g#3 v=40
39000 On ch=1 n=g#3 v=0
39000 On ch=1 n=g#2 v=0
39360 On ch=1 n=f2 v=40
39360 On ch=1 n=f3 v=40
39480 On ch=1 n=f3 v=0
39480 On ch=1 n=f2 v=0
39840 On ch=1 n=a#2 v=40
39840 On ch=1 n=a#3 v=40
39960 On ch=1 n=a#3 v=0
39960 On ch=1 n=a#2 v=0
40320 On ch=1 n=a2 v=40
40320 On ch=1 n=a3 v=40
40440 On ch=1 n=a3 v=0
40440 On ch=1 n=a2 v=0
40800 On ch=1 n=d3 v=40
40800 On ch=1 n=d4 v=40
40920 On ch=1 n=d4 v=0
40920 On ch=1 n=d3 v=0
42720 On ch=1 n=f4 v=110
42780 On ch=1 n=f4 v=0
42840 On ch=1 n=f3 v=110
42900 On ch=1 n=f3 v=0
42960 On ch=1 n=c4 v=110
43020 On ch=1 n=c4 v=0
43080 On ch=1 n=c3 v=110
43140 On ch=1 n=c3 v=0
43200 On ch=1 n=f2 v=125
43200 On ch=1 n=f3 v=125
43320 On ch=1 n=f3 v=0
43320 On ch=1 n=f2 v=0
45600 On ch=1 n=g#2 v=60
46800 On ch=1 n=g#2 v=0
47520 On ch=1 n=g#2 v=60
48720 On ch=1 n=g#2 v=0
52800 On ch=1 n=g#2 v=40
53280 On ch=1 n=g#2 v=0
53760 On ch=1 n=g#2 v=40
54240 On ch=1 n=g#2 v=0
54240 On ch=1 n=g#2 v=40
54720 On ch=1 n=g#2 v=0
54720 On ch=1 n=g#2 v=40
55200 On ch=1 n=g#2 v=0
55200 On ch=1 n=g#2 v=40
55680 On ch=1 n=g#2 v=0
55680 On ch=1 n=g#2 v=40
56160 On ch=1 n=g#2 v=0
57120 On ch=1 n=g#2 v=40
58320 On ch=1 n=g#2 v=0
59040 On ch=1 n=g#2 v=40
60240 On ch=1 n=g#2 v=0
64800 On ch=1 n=d#2 v=127
64800 On ch=1 n=d#3 v=127
65760 On ch=1 n=d#3 v=0
65760 On ch=1 n=d#2 v=0
67680 On ch=1 n=f2 v=40
68160 On ch=1 n=f2 v=0
69600 On ch=1 n=f2 v=40
70080 On ch=1 n=f2 v=0
71520 On ch=1 n=f2 v=40
71520 On ch=1 n=f3 v=40
71580 On ch=1 n=f3 v=0
71580 On ch=1 n=f2 v=0
72000 On ch=1 n=c2 v=40
72000 On ch=1 n=c3 v=40
72060 On ch=1 n=c3 v=0
72060 On ch=1 n=c2 v=0
72480 On ch=1 n=f2 v=40
72480 On ch=1 n=f3 v=40
72540 On ch=1 n=f3 v=0
72540 On ch=1 n=f2 v=0
72960 On ch=1 n=c2 v=40
72960 On ch=1 n=c3 v=40
73020 On ch=1 n=c3 v=0
73020 On ch=1 n=c2 v=0
75000 On ch=1 n=g3 v=40
75060 On ch=1 n=g3 v=0
75240 On ch=1 n=c3 v=40
75300 On ch=1 n=c3 v=0
75360 On ch=1 n=f2 v=40
75840 On ch=1 n=f2 v=0
77280 On ch=1 n=f2 v=40
77760 On ch=1 n=f2 v=0
79200 On ch=1 n=d3 v=40
79200 On ch=1 n=d2 v=40
79320 On ch=1 n=d2 v=0
79320 On ch=1 n=d3 v=0
79680 On ch=1 n=g2 v=40
79680 On ch=1 n=g3 v=40
79800 On ch=1 n=g3 v=0
79800 On ch=1 n=g2 v=0
80160 On ch=1 n=a2 v=40
80160 On ch=1 n=a3 v=40
80280 On ch=1 n=a3 v=0
80280 On ch=1 n=a2 v=0
80640 On ch=1 n=b2 v=40
80640 On ch=1 n=b3 v=40
80760 On ch=1 n=b3 v=0
80760 On ch=1 n=b2 v=0
81120 On ch=1 n=g#2 v=40
81120 On ch=1 n=g#3 v=40
81240 On ch=1 n=g#3 v=0
81240 On ch=1 n=g#2 v=0
81600 On ch=1 n=d3 v=40
81600 On ch=1 n=d4 v=40
81720 On ch=1 n=d4 v=0
81720 On ch=1 n=d3 v=0
82080 On ch=1 n=g#2 v=40
82080 On ch=1 n=g#3 v=40
82200 On ch=1 n=g#3 v=0
82200 On ch=1 n=g#2 v=0
82560 On ch=1 n=d3 v=40
82560 On ch=1 n=d4 v=40
82680 On ch=1 n=d4 v=0
82680 On ch=1 n=d3 v=0
83040 On ch=1 n=g#2 v=40
83040 On ch=1 n=g#3 v=40
83160 On ch=1 n=g#3 v=0
83160 On ch=1 n=g#2 v=0
83520 On ch=1 n=d3 v=40
83520 On ch=1 n=d4 v=40
83640 On ch=1 n=d4 v=0
83640 On ch=1 n=d3 v=0
84000 On ch=1 n=g#2 v=40
84000 On ch=1 n=g#3 v=40
84120 On ch=1 n=g#3 v=0
84120 On ch=1 n=g#2 v=0
84480 On ch=1 n=d3 v=40
84480 On ch=1 n=d4 v=40
84600 On ch=1 n=d4 v=0
84600 On ch=1 n=d3 v=0
86880 On ch=1 n=c4 v=110
87840 On ch=1 n=c4 v=0
87840 On ch=1 n=c4 v=110
88800 On ch=1 n=c4 v=0
88800 On ch=1 n=c4 v=110
90480 On ch=1 n=c4 v=0
90480 On ch=1 n=a#3 v=60
90540 On ch=1 n=a#3 v=0
90600 On ch=1 n=g#3 v=60
90660 On ch=1 n=g#3 v=0
90720 On ch=1 n=f#2 v=40
91680 On ch=1 n=f#2 v=0
93600 On ch=1 n=d2 v=40
94560 On ch=1 n=d2 v=0
94560 On ch=1 n=f#2 v=40
95520 On ch=1 n=f#2 v=0
99360 On ch=1 n=a#3 v=125
99360 On ch=1 n=a#2 v=125
100080 On ch=1 n=a#2 v=0
100080 On ch=1 n=a#3 v=0
100320 On ch=1 n=c3 v=125
100320 On ch=1 n=c4 v=125
101040 On ch=1 n=c4 v=0
101040 On ch=1 n=c3 v=0
101280 On ch=1 n=a#2 v=125
101280 On ch=1 n=a#3 v=125
102000 On ch=1 n=a#3 v=0
102000 On ch=1 n=a#2 v=0
102240 On ch=1 n=c3 v=125
102240 On ch=1 n=c4 v=125
102960 On ch=1 n=c4 v=0
102960 On ch=1 n=c3 v=0
103680 On ch=1 n=f4 v=125
103740 On ch=1 n=f4 v=0
103800 On ch=1 n=f3 v=125
103860 On ch=1 n=f3 v=0
103920 On ch=1 n=c4 v=125
103980 On ch=1 n=c4 v=0
104040 On ch=1 n=c3 v=125
104100 On ch=1 n=c3 v=0
104160 On ch=1 n=f2 v=120
104160 On ch=1 n=f3 v=120
104400 On ch=1 n=f3 v=0
104400 On ch=1 n=f2 v=0
105120 On ch=1 n=f2 v=127
105120 On ch=1 n=f3 v=127
105240 On ch=1 n=f3 v=0
105240 On ch=1 n=f2 v=0
105240 Meta TrkEnd
TrkEnd
MTrk
0 SeqSpec 43 00 01 00
0 Meta TrkName "Debussy, Claude"
0 Meta 0x21 00
0 Meta TrkEnd
TrkEnd
MTrk
0 SeqSpec 43 00 01 00
0 Meta TrkName "Prelude Book 2 No. 06 General Lavine eccentric"
0 Meta 0x21 00
0 Meta TrkEnd
TrkEnd
MTrk
0 SeqSpec 43 00 01 00
0 Meta TrkName "Jeruen E. Dery jawjaw@hotmail.com"
0 Meta 0x21 00
0 Meta TrkEnd
TrkEnd
