MFile 1 8 480
MTrk
0 TimeSig 2/4 24 8
0 KeySig 0 major
0 Tempo 535714
6720 Tempo 555556
7200 Tempo 576923
7680 Tempo 600000
8160 Tempo 625000
8640 Tempo 652174
9120 Tempo 681818
9600 Tempo 454545
76800 KeySig 4 major
86400 KeySig 0 major
86400 Tempo 535714
102720 KeySig -3 major
102720 Tempo 600000
110400 TimeSig 3/4 24 8
111840 TimeSig 2/4 24 8
111840 Tempo 454545
119520 KeySig 0 major
119520 Meta TrkEnd
TrkEnd
MTrk
0 SeqSpec 43 00 01 00
0 Meta TrkName "Upper Treble"
0 Meta 0x21 00
0 On ch=1 n=c7 v=80
0 On ch=1 n=e7 v=80
480 On ch=1 n=e7 v=0
480 On ch=1 n=c7 v=0
960 On ch=1 n=a6 v=80
960 On ch=1 n=f6 v=80
1440 On ch=1 n=f6 v=0
1440 On ch=1 n=a6 v=0
11640 On ch=1 n=d5 v=60
11640 On ch=1 n=f5 v=60
11760 On ch=1 n=f5 v=0
11760 On ch=1 n=d5 v=0
11880 On ch=1 n=d5 v=60
11880 On ch=1 n=f5 v=60
12000 On ch=1 n=f5 v=0
12000 On ch=1 n=d5 v=0
12120 On ch=1 n=d5 v=60
12120 On ch=1 n=f5 v=60
12240 On ch=1 n=f5 v=0
12240 On ch=1 n=d5 v=0
12360 On ch=1 n=d5 v=60
12360 On ch=1 n=f5 v=60
12480 On ch=1 n=f5 v=0
12480 On ch=1 n=d5 v=0
12600 On ch=1 n=d5 v=60
12600 On ch=1 n=f5 v=60
12720 On ch=1 n=f5 v=0
12720 On ch=1 n=d5 v=0
12840 On ch=1 n=f5 v=60
12840 On ch=1 n=d5 v=60
12960 On ch=1 n=d5 v=0
12960 On ch=1 n=f5 v=0
13080 On ch=1 n=d5 v=60
13080 On ch=1 n=f5 v=60
13200 On ch=1 n=f5 v=0
13200 On ch=1 n=d5 v=0
13320 On ch=1 n=d5 v=60
13320 On ch=1 n=f5 v=60
13440 On ch=1 n=f5 v=0
13440 On ch=1 n=d5 v=0
15480 On ch=1 n=d5 v=60
15480 On ch=1 n=f5 v=60
15600 On ch=1 n=f5 v=0
15600 On ch=1 n=d5 v=0
15720 On ch=1 n=d5 v=60
15720 On ch=1 n=f5 v=60
15840 On ch=1 n=f5 v=0
15840 On ch=1 n=d5 v=0
15960 On ch=1 n=d5 v=60
15960 On ch=1 n=f5 v=60
16080 On ch=1 n=f5 v=0
16080 On ch=1 n=d5 v=0
16200 On ch=1 n=d5 v=60
16200 On ch=1 n=f5 v=60
16320 On ch=1 n=f5 v=0
16320 On ch=1 n=d5 v=0
16440 On ch=1 n=d5 v=60
16440 On ch=1 n=f5 v=60
16560 On ch=1 n=f5 v=0
16560 On ch=1 n=d5 v=0
16680 On ch=1 n=f5 v=60
16680 On ch=1 n=d5 v=60
16800 On ch=1 n=d5 v=0
16800 On ch=1 n=f5 v=0
16920 On ch=1 n=d5 v=60
16920 On ch=1 n=f5 v=60
17040 On ch=1 n=f5 v=0
17040 On ch=1 n=d5 v=0
17160 On ch=1 n=d5 v=60
17160 On ch=1 n=f5 v=60
17280 On ch=1 n=f5 v=0
17280 On ch=1 n=d5 v=0
17400 On ch=1 n=a5 v=60
17400 On ch=1 n=f5 v=60
17520 On ch=1 n=f5 v=0
17520 On ch=1 n=a5 v=0
17640 On ch=1 n=a5 v=60
17640 On ch=1 n=f5 v=60
17760 On ch=1 n=f5 v=0
17760 On ch=1 n=a5 v=0
17880 On ch=1 n=a5 v=60
17880 On ch=1 n=f5 v=60
18000 On ch=1 n=f5 v=0
18000 On ch=1 n=a5 v=0
18120 On ch=1 n=f5 v=60
18120 On ch=1 n=a5 v=60
18240 On ch=1 n=a5 v=0
18240 On ch=1 n=f5 v=0
18360 On ch=1 n=a5 v=60
18360 On ch=1 n=f5 v=60
18480 On ch=1 n=f5 v=0
18480 On ch=1 n=a5 v=0
18600 On ch=1 n=a5 v=60
18600 On ch=1 n=f5 v=60
18720 On ch=1 n=f5 v=0
18720 On ch=1 n=a5 v=0
18840 On ch=1 n=a5 v=60
18840 On ch=1 n=f5 v=60
18960 On ch=1 n=f5 v=0
18960 On ch=1 n=a5 v=0
19080 On ch=1 n=f5 v=60
19080 On ch=1 n=a5 v=60
19200 On ch=1 n=a5 v=0
19200 On ch=1 n=f5 v=0
19320 On ch=1 n=a5 v=60
19320 On ch=1 n=c6 v=60
19440 On ch=1 n=c6 v=0
19440 On ch=1 n=a5 v=0
19560 On ch=1 n=a5 v=60
19560 On ch=1 n=c6 v=60
19680 On ch=1 n=c6 v=0
19680 On ch=1 n=a5 v=0
19800 On ch=1 n=c6 v=60
19800 On ch=1 n=a5 v=60
19920 On ch=1 n=a5 v=0
19920 On ch=1 n=c6 v=0
20040 On ch=1 n=c6 v=60
20040 On ch=1 n=a5 v=60
20160 On ch=1 n=a5 v=0
20160 On ch=1 n=c6 v=0
20280 On ch=1 n=a5 v=80
20280 On ch=1 n=c6 v=80
20400 On ch=1 n=c6 v=0
20400 On ch=1 n=a5 v=0
20520 On ch=1 n=a5 v=80
20520 On ch=1 n=c6 v=80
20640 On ch=1 n=c6 v=0
20640 On ch=1 n=a5 v=0
20760 On ch=1 n=c6 v=80
20760 On ch=1 n=a5 v=80
20880 On ch=1 n=a5 v=0
20880 On ch=1 n=c6 v=0
21000 On ch=1 n=a5 v=80
21000 On ch=1 n=c6 v=80
21120 On ch=1 n=c6 v=0
21120 On ch=1 n=a5 v=0
21240 On ch=1 n=a5 v=80
21240 On ch=1 n=c6 v=80
21360 On ch=1 n=c6 v=0
21360 On ch=1 n=a5 v=0
21480 On ch=1 n=a5 v=80
21480 On ch=1 n=c6 v=80
21600 On ch=1 n=c6 v=0
21600 On ch=1 n=a5 v=0
21720 On ch=1 n=c6 v=80
21720 On ch=1 n=a5 v=80
21840 On ch=1 n=a5 v=0
21840 On ch=1 n=c6 v=0
21960 On ch=1 n=a5 v=80
21960 On ch=1 n=c6 v=80
22080 On ch=1 n=c6 v=0
22080 On ch=1 n=a5 v=0
22200 On ch=1 n=a5 v=80
22200 On ch=1 n=c6 v=80
22320 On ch=1 n=c6 v=0
22320 On ch=1 n=a5 v=0
22440 On ch=1 n=a5 v=80
22440 On ch=1 n=c6 v=80
22560 On ch=1 n=c6 v=0
22560 On ch=1 n=a5 v=0
22680 On ch=1 n=a5 v=80
22680 On ch=1 n=c6 v=80
22800 On ch=1 n=c6 v=0
22800 On ch=1 n=a5 v=0
22920 On ch=1 n=c6 v=80
22920 On ch=1 n=a5 v=80
23040 On ch=1 n=a5 v=0
23040 On ch=1 n=c6 v=0
23160 On ch=1 n=b5 v=90
23160 On ch=1 n=g5 v=90
23280 On ch=1 n=g5 v=0
23280 On ch=1 n=b5 v=0
23400 On ch=1 n=b5 v=100
23400 On ch=1 n=g5 v=100
23520 On ch=1 n=g5 v=0
23520 On ch=1 n=b5 v=0
23640 On ch=1 n=b5 v=110
23640 On ch=1 n=g5 v=110
23760 On ch=1 n=g5 v=0
23760 On ch=1 n=b5 v=0
23880 On ch=1 n=b5 v=120
23880 On ch=1 n=g5 v=120
24000 On ch=1 n=g5 v=0
24000 On ch=1 n=b5 v=0
24120 On ch=1 n=b5 v=120
24120 On ch=1 n=g5 v=120
24240 On ch=1 n=g5 v=0
24240 On ch=1 n=b5 v=0
24360 On ch=1 n=b5 v=110
24360 On ch=1 n=g5 v=110
24480 On ch=1 n=g5 v=0
24480 On ch=1 n=b5 v=0
24600 On ch=1 n=b5 v=100
24600 On ch=1 n=g5 v=100
24720 On ch=1 n=g5 v=0
24720 On ch=1 n=b5 v=0
24840 On ch=1 n=b5 v=90
24840 On ch=1 n=g5 v=90
24960 On ch=1 n=g5 v=0
24960 On ch=1 n=b5 v=0
25080 On ch=1 n=b5 v=80
25080 On ch=1 n=g5 v=80
25200 On ch=1 n=g5 v=0
25200 On ch=1 n=b5 v=0
25320 On ch=1 n=b5 v=80
25320 On ch=1 n=g5 v=80
25440 On ch=1 n=g5 v=0
25440 On ch=1 n=b5 v=0
25560 On ch=1 n=b5 v=80
25560 On ch=1 n=g5 v=80
25680 On ch=1 n=g5 v=0
25680 On ch=1 n=b5 v=0
25800 On ch=1 n=b5 v=80
25800 On ch=1 n=g5 v=80
25920 On ch=1 n=g5 v=0
25920 On ch=1 n=b5 v=0
26040 On ch=1 n=f5 v=80
26040 On ch=1 n=a5 v=80
26160 On ch=1 n=a5 v=0
26160 On ch=1 n=f5 v=0
26280 On ch=1 n=f5 v=80
26280 On ch=1 n=a5 v=80
26400 On ch=1 n=a5 v=0
26400 On ch=1 n=f5 v=0
26520 On ch=1 n=f5 v=80
26520 On ch=1 n=a5 v=80
26640 On ch=1 n=a5 v=0
26640 On ch=1 n=f5 v=0
26760 On ch=1 n=f5 v=80
26760 On ch=1 n=a5 v=80
26880 On ch=1 n=a5 v=0
26880 On ch=1 n=f5 v=0
27000 On ch=1 n=g5 v=80
27000 On ch=1 n=e5 v=80
27120 On ch=1 n=e5 v=0
27120 On ch=1 n=g5 v=0
27240 On ch=1 n=g5 v=80
27240 On ch=1 n=e5 v=80
27360 On ch=1 n=e5 v=0
27360 On ch=1 n=g5 v=0
27480 On ch=1 n=g5 v=80
27480 On ch=1 n=e5 v=80
27600 On ch=1 n=e5 v=0
27600 On ch=1 n=g5 v=0
27720 On ch=1 n=g5 v=80
27720 On ch=1 n=e5 v=80
27840 On ch=1 n=e5 v=0
27840 On ch=1 n=g5 v=0
27960 On ch=1 n=f5 v=80
27960 On ch=1 n=d5 v=80
28080 On ch=1 n=d5 v=0
28080 On ch=1 n=f5 v=0
28200 On ch=1 n=d5 v=80
28200 On ch=1 n=f5 v=80
28320 On ch=1 n=f5 v=0
28320 On ch=1 n=d5 v=0
28440 On ch=1 n=f5 v=80
28440 On ch=1 n=d5 v=80
28560 On ch=1 n=d5 v=0
28560 On ch=1 n=f5 v=0
28680 On ch=1 n=f5 v=80
28680 On ch=1 n=d5 v=80
28800 On ch=1 n=d5 v=0
28800 On ch=1 n=f5 v=0
28920 On ch=1 n=f5 v=80
28920 On ch=1 n=d5 v=80
29040 On ch=1 n=d5 v=0
29040 On ch=1 n=f5 v=0
29160 On ch=1 n=d5 v=80
29160 On ch=1 n=f5 v=80
29280 On ch=1 n=f5 v=0
29280 On ch=1 n=d5 v=0
29400 On ch=1 n=f5 v=80
29400 On ch=1 n=d5 v=80
29520 On ch=1 n=d5 v=0
29520 On ch=1 n=f5 v=0
29640 On ch=1 n=f5 v=80
29640 On ch=1 n=d5 v=80
29760 On ch=1 n=d5 v=0
29760 On ch=1 n=f5 v=0
29880 On ch=1 n=f5 v=80
29880 On ch=1 n=d5 v=80
30000 On ch=1 n=d5 v=0
30000 On ch=1 n=f5 v=0
30120 On ch=1 n=d5 v=80
30120 On ch=1 n=f5 v=80
30240 On ch=1 n=f5 v=0
30240 On ch=1 n=d5 v=0
30360 On ch=1 n=f5 v=80
30360 On ch=1 n=d5 v=80
30480 On ch=1 n=d5 v=0
30480 On ch=1 n=f5 v=0
30600 On ch=1 n=f5 v=80
30600 On ch=1 n=d5 v=80
30720 On ch=1 n=d5 v=0
30720 On ch=1 n=f5 v=0
30840 On ch=1 n=f5 v=80
30840 On ch=1 n=d5 v=80
30960 On ch=1 n=d5 v=0
30960 On ch=1 n=f5 v=0
31080 On ch=1 n=d5 v=80
31080 On ch=1 n=f5 v=80
31200 On ch=1 n=f5 v=0
31200 On ch=1 n=d5 v=0
31320 On ch=1 n=f5 v=80
31320 On ch=1 n=d5 v=80
31440 On ch=1 n=d5 v=0
31440 On ch=1 n=f5 v=0
31560 On ch=1 n=f5 v=80
31560 On ch=1 n=d5 v=80
31680 On ch=1 n=d5 v=0
31680 On ch=1 n=f5 v=0
31800 On ch=1 n=f#5 v=80
31800 On ch=1 n=d#5 v=80
31920 On ch=1 n=d#5 v=0
31920 On ch=1 n=f#5 v=0
32040 On ch=1 n=d#5 v=90
32040 On ch=1 n=f#5 v=90
32160 On ch=1 n=f#5 v=0
32160 On ch=1 n=d#5 v=0
32280 On ch=1 n=a#5 v=100
32280 On ch=1 n=f#5 v=100
32400 On ch=1 n=f#5 v=0
32400 On ch=1 n=a#5 v=0
32520 On ch=1 n=a#5 v=110
32520 On ch=1 n=f#5 v=110
32640 On ch=1 n=f#5 v=0
32640 On ch=1 n=a#5 v=0
32760 On ch=1 n=a#5 v=120
32760 On ch=1 n=f#5 v=120
32880 On ch=1 n=f#5 v=0
32880 On ch=1 n=a#5 v=0
33000 On ch=1 n=c#6 v=110
33000 On ch=1 n=a#5 v=110
33120 On ch=1 n=a#5 v=0
33120 On ch=1 n=c#6 v=0
33240 On ch=1 n=f#5 v=100
33240 On ch=1 n=a#5 v=100
33360 On ch=1 n=a#5 v=0
33360 On ch=1 n=f#5 v=0
33480 On ch=1 n=d#5 v=90
33480 On ch=1 n=f#5 v=90
33600 On ch=1 n=f#5 v=0
33600 On ch=1 n=d#5 v=0
33720 On ch=1 n=f#5 v=80
33720 On ch=1 n=d#5 v=80
33840 On ch=1 n=d#5 v=0
33840 On ch=1 n=f#5 v=0
33960 On ch=1 n=d#5 v=90
33960 On ch=1 n=f#5 v=90
34080 On ch=1 n=f#5 v=0
34080 On ch=1 n=d#5 v=0
34200 On ch=1 n=a#5 v=100
34200 On ch=1 n=f#5 v=100
34320 On ch=1 n=f#5 v=0
34320 On ch=1 n=a#5 v=0
34440 On ch=1 n=a#5 v=110
34440 On ch=1 n=f#5 v=110
34560 On ch=1 n=f#5 v=0
34560 On ch=1 n=a#5 v=0
34680 On ch=1 n=a#5 v=120
34680 On ch=1 n=f#5 v=120
34800 On ch=1 n=f#5 v=0
34800 On ch=1 n=a#5 v=0
34920 On ch=1 n=c#6 v=110
34920 On ch=1 n=a#5 v=110
35040 On ch=1 n=a#5 v=0
35040 On ch=1 n=c#6 v=0
35160 On ch=1 n=f#5 v=100
35160 On ch=1 n=a#5 v=100
35280 On ch=1 n=a#5 v=0
35280 On ch=1 n=f#5 v=0
35400 On ch=1 n=d#5 v=90
35400 On ch=1 n=f#5 v=90
35520 On ch=1 n=f#5 v=0
35520 On ch=1 n=d#5 v=0
35640 On ch=1 n=f#5 v=80
35640 On ch=1 n=d#5 v=80
35760 On ch=1 n=d#5 v=0
35760 On ch=1 n=f#5 v=0
35880 On ch=1 n=d#5 v=85
35880 On ch=1 n=f#5 v=85
36000 On ch=1 n=f#5 v=0
36000 On ch=1 n=d#5 v=0
36120 On ch=1 n=a#5 v=90
36120 On ch=1 n=f#5 v=90
36240 On ch=1 n=f#5 v=0
36240 On ch=1 n=a#5 v=0
36360 On ch=1 n=a#5 v=95
36360 On ch=1 n=f#5 v=95
36480 On ch=1 n=f#5 v=0
36480 On ch=1 n=a#5 v=0
36600 On ch=1 n=a#5 v=100
36600 On ch=1 n=f#5 v=100
36720 On ch=1 n=f#5 v=0
36720 On ch=1 n=a#5 v=0
36840 On ch=1 n=a#5 v=105
36840 On ch=1 n=f#5 v=105
36960 On ch=1 n=f#5 v=0
36960 On ch=1 n=a#5 v=0
37080 On ch=1 n=c#6 v=115
37080 On ch=1 n=a#5 v=115
37200 On ch=1 n=a#5 v=0
37200 On ch=1 n=c#6 v=0
37320 On ch=1 n=c#6 v=125
37320 On ch=1 n=a#5 v=125
37440 On ch=1 n=a#5 v=0
37440 On ch=1 n=c#6 v=0
37560 On ch=1 n=g#6 v=60
37560 On ch=1 n=e6 v=60
37680 On ch=1 n=e6 v=0
37680 On ch=1 n=g#6 v=0
37800 On ch=1 n=c7 v=60
37800 On ch=1 n=g#6 v=60
37920 On ch=1 n=g#6 v=0
37920 On ch=1 n=c7 v=0
38040 On ch=1 n=e7 v=60
38040 On ch=1 n=c7 v=60
38160 On ch=1 n=c7 v=0
38160 On ch=1 n=e7 v=0
38280 On ch=1 n=g#6 v=60
38280 On ch=1 n=c7 v=60
38400 On ch=1 n=c7 v=0
38400 On ch=1 n=g#6 v=0
38520 On ch=1 n=g#6 v=60
38520 On ch=1 n=e6 v=60
38640 On ch=1 n=e6 v=0
38640 On ch=1 n=g#6 v=0
38760 On ch=1 n=c6 v=60
38760 On ch=1 n=e6 v=60
38880 On ch=1 n=e6 v=0
38880 On ch=1 n=c6 v=0
39000 On ch=1 n=g#5 v=60
39000 On ch=1 n=c6 v=60
39120 On ch=1 n=c6 v=0
39120 On ch=1 n=g#5 v=0
39240 On ch=1 n=e6 v=60
39240 On ch=1 n=c6 v=60
39360 On ch=1 n=c6 v=0
39360 On ch=1 n=e6 v=0
39480 On ch=1 n=g#6 v=80
39480 On ch=1 n=e6 v=80
39600 On ch=1 n=e6 v=0
39600 On ch=1 n=g#6 v=0
39720 On ch=1 n=g#6 v=85
39720 On ch=1 n=e6 v=85
39840 On ch=1 n=e6 v=0
39840 On ch=1 n=g#6 v=0
39960 On ch=1 n=g#6 v=90
39960 On ch=1 n=e6 v=90
40080 On ch=1 n=e6 v=0
40080 On ch=1 n=g#6 v=0
40200 On ch=1 n=g#6 v=95
40200 On ch=1 n=e6 v=95
40320 On ch=1 n=e6 v=0
40320 On ch=1 n=g#6 v=0
40440 On ch=1 n=a#6 v=100
40440 On ch=1 n=f#6 v=100
40560 On ch=1 n=f#6 v=0
40560 On ch=1 n=a#6 v=0
40680 On ch=1 n=a#6 v=105
40680 On ch=1 n=f#6 v=105
40800 On ch=1 n=f#6 v=0
40800 On ch=1 n=a#6 v=0
40920 On ch=1 n=a#6 v=115
40920 On ch=1 n=f#6 v=115
41040 On ch=1 n=f#6 v=0
41040 On ch=1 n=a#6 v=0
41160 On ch=1 n=a#6 v=125
41160 On ch=1 n=f#6 v=125
41280 On ch=1 n=f#6 v=0
41280 On ch=1 n=a#6 v=0
41400 On ch=1 n=g#6 v=60
41400 On ch=1 n=e6 v=60
41520 On ch=1 n=e6 v=0
41520 On ch=1 n=g#6 v=0
41640 On ch=1 n=c7 v=60
41640 On ch=1 n=g#6 v=60
41760 On ch=1 n=g#6 v=0
41760 On ch=1 n=c7 v=0
41880 On ch=1 n=e7 v=60
41880 On ch=1 n=c7 v=60
42000 On ch=1 n=c7 v=0
42000 On ch=1 n=e7 v=0
42120 On ch=1 n=g#6 v=60
42120 On ch=1 n=c7 v=60
42240 On ch=1 n=c7 v=0
42240 On ch=1 n=g#6 v=0
42360 On ch=1 n=g#6 v=60
42360 On ch=1 n=e6 v=60
42480 On ch=1 n=e6 v=0
42480 On ch=1 n=g#6 v=0
42600 On ch=1 n=c6 v=60
42600 On ch=1 n=e6 v=60
42720 On ch=1 n=e6 v=0
42720 On ch=1 n=c6 v=0
42840 On ch=1 n=g#5 v=60
42840 On ch=1 n=c6 v=60
42960 On ch=1 n=c6 v=0
42960 On ch=1 n=g#5 v=0
43080 On ch=1 n=e6 v=60
43080 On ch=1 n=c6 v=60
43200 On ch=1 n=c6 v=0
43200 On ch=1 n=e6 v=0
43200 On ch=1 n=d6 v=80
43200 On ch=1 n=f6 v=80
43320 On ch=1 n=f6 v=0
43320 On ch=1 n=d6 v=0
43440 On ch=1 n=d6 v=80
43440 On ch=1 n=f6 v=80
43560 On ch=1 n=f6 v=0
43560 On ch=1 n=d6 v=0
43680 On ch=1 n=e6 v=80
43680 On ch=1 n=g6 v=80
43800 On ch=1 n=g6 v=0
43800 On ch=1 n=e6 v=0
43920 On ch=1 n=e6 v=80
43920 On ch=1 n=g6 v=80
44040 On ch=1 n=g6 v=0
44040 On ch=1 n=e6 v=0
44160 On ch=1 n=g#6 v=90
44160 On ch=1 n=f6 v=90
44280 On ch=1 n=f6 v=0
44280 On ch=1 n=g#6 v=0
44400 On ch=1 n=g#6 v=90
44400 On ch=1 n=f6 v=90
44520 On ch=1 n=f6 v=0
44520 On ch=1 n=g#6 v=0
44640 On ch=1 n=g#6 v=90
44640 On ch=1 n=f6 v=90
44760 On ch=1 n=f6 v=0
44760 On ch=1 n=g#6 v=0
44880 On ch=1 n=a#6 v=90
44880 On ch=1 n=g6 v=90
45000 On ch=1 n=g6 v=0
45000 On ch=1 n=a#6 v=0
45120 On ch=1 n=d6 v=100
45120 On ch=1 n=f6 v=100
45240 On ch=1 n=f6 v=0
45240 On ch=1 n=d6 v=0
45360 On ch=1 n=d6 v=100
45360 On ch=1 n=f6 v=100
45480 On ch=1 n=f6 v=0
45480 On ch=1 n=d6 v=0
45600 On ch=1 n=e6 v=100
45600 On ch=1 n=g6 v=100
45720 On ch=1 n=g6 v=0
45720 On ch=1 n=e6 v=0
45840 On ch=1 n=e6 v=100
45840 On ch=1 n=g6 v=100
45960 On ch=1 n=g6 v=0
45960 On ch=1 n=e6 v=0
46080 On ch=1 n=g#6 v=110
46080 On ch=1 n=f6 v=110
46200 On ch=1 n=f6 v=0
46200 On ch=1 n=g#6 v=0
46320 On ch=1 n=g#6 v=110
46320 On ch=1 n=f6 v=110
46440 On ch=1 n=f6 v=0
46440 On ch=1 n=g#6 v=0
46560 On ch=1 n=g#6 v=110
46560 On ch=1 n=f6 v=110
46680 On ch=1 n=f6 v=0
46680 On ch=1 n=g#6 v=0
46800 On ch=1 n=a#6 v=110
46800 On ch=1 n=g6 v=110
46920 On ch=1 n=g6 v=0
46920 On ch=1 n=a#6 v=0
47040 On ch=1 n=c7 v=120
47040 On ch=1 n=g#6 v=120
47160 On ch=1 n=g#6 v=0
47160 On ch=1 n=c7 v=0
47280 On ch=1 n=c7 v=120
47280 On ch=1 n=g#6 v=120
47400 On ch=1 n=g#6 v=0
47400 On ch=1 n=c7 v=0
47520 On ch=1 n=d7 v=120
47520 On ch=1 n=a#6 v=120
47640 On ch=1 n=a#6 v=0
47640 On ch=1 n=d7 v=0
47760 On ch=1 n=d7 v=120
47760 On ch=1 n=a#6 v=120
47880 On ch=1 n=a#6 v=0
47880 On ch=1 n=d7 v=0
48000 On ch=1 n=d#7 v=125
48000 On ch=1 n=c7 v=125
48120 On ch=1 n=c7 v=0
48120 On ch=1 n=d#7 v=0
48240 On ch=1 n=d#7 v=125
48240 On ch=1 n=c7 v=125
48360 On ch=1 n=c7 v=0
48360 On ch=1 n=d#7 v=0
48480 On ch=1 n=f7 v=125
48480 On ch=1 n=d7 v=125
48600 On ch=1 n=d7 v=0
48600 On ch=1 n=f7 v=0
48720 On ch=1 n=f7 v=125
48720 On ch=1 n=d7 v=125
48840 On ch=1 n=d7 v=0
48840 On ch=1 n=f7 v=0
48960 On ch=1 n=g7 v=125
48960 On ch=1 n=d#7 v=125
49080 On ch=1 n=d#7 v=0
49080 On ch=1 n=g7 v=0
49200 On ch=1 n=f7 v=125
49200 On ch=1 n=d7 v=125
49320 On ch=1 n=d7 v=0
49320 On ch=1 n=f7 v=0
49440 On ch=1 n=d7 v=125
49440 On ch=1 n=a#6 v=125
49560 On ch=1 n=a#6 v=0
49560 On ch=1 n=d7 v=0
49680 On ch=1 n=c7 v=125
49680 On ch=1 n=g#6 v=125
49800 On ch=1 n=g#6 v=0
49800 On ch=1 n=c7 v=0
49920 On ch=1 n=g6 v=125
49920 On ch=1 n=d#6 v=125
50040 On ch=1 n=d#6 v=0
50040 On ch=1 n=g6 v=0
50160 On ch=1 n=g6 v=125
50160 On ch=1 n=d#6 v=125
50280 On ch=1 n=d#6 v=0
50280 On ch=1 n=g6 v=0
50400 On ch=1 n=f#6 v=125
50400 On ch=1 n=d6 v=125
50520 On ch=1 n=d6 v=0
50520 On ch=1 n=f#6 v=0
50640 On ch=1 n=f#6 v=125
50640 On ch=1 n=d6 v=125
50760 On ch=1 n=d6 v=0
50760 On ch=1 n=f#6 v=0
50880 On ch=1 n=g6 v=115
50880 On ch=1 n=d#6 v=115
51000 On ch=1 n=d#6 v=0
51000 On ch=1 n=g6 v=0
51120 On ch=1 n=f6 v=115
51120 On ch=1 n=d6 v=115
51240 On ch=1 n=d6 v=0
51240 On ch=1 n=f6 v=0
51360 On ch=1 n=d6 v=115
51360 On ch=1 n=a#5 v=115
51480 On ch=1 n=a#5 v=0
51480 On ch=1 n=d6 v=0
51600 On ch=1 n=c6 v=115
51600 On ch=1 n=g#5 v=115
51720 On ch=1 n=g#5 v=0
51720 On ch=1 n=c6 v=0
63480 On ch=1 n=d5 v=60
63480 On ch=1 n=f5 v=60
63600 On ch=1 n=f5 v=0
63600 On ch=1 n=d5 v=0
63720 On ch=1 n=d5 v=60
63720 On ch=1 n=f5 v=60
63840 On ch=1 n=f5 v=0
63840 On ch=1 n=d5 v=0
63960 On ch=1 n=d5 v=60
63960 On ch=1 n=f5 v=60
64080 On ch=1 n=f5 v=0
64080 On ch=1 n=d5 v=0
64200 On ch=1 n=d5 v=60
64200 On ch=1 n=f5 v=60
64320 On ch=1 n=f5 v=0
64320 On ch=1 n=d5 v=0
64440 On ch=1 n=d5 v=60
64440 On ch=1 n=f5 v=60
64560 On ch=1 n=f5 v=0
64560 On ch=1 n=d5 v=0
64680 On ch=1 n=f5 v=60
64680 On ch=1 n=d5 v=60
64800 On ch=1 n=d5 v=0
64800 On ch=1 n=f5 v=0
64920 On ch=1 n=d5 v=60
64920 On ch=1 n=f5 v=60
65040 On ch=1 n=f5 v=0
65040 On ch=1 n=d5 v=0
65160 On ch=1 n=d5 v=60
65160 On ch=1 n=f5 v=60
65280 On ch=1 n=f5 v=0
65280 On ch=1 n=d5 v=0
67320 On ch=1 n=d5 v=60
67320 On ch=1 n=f5 v=60
67440 On ch=1 n=f5 v=0
67440 On ch=1 n=d5 v=0
67560 On ch=1 n=f5 v=60
67560 On ch=1 n=d5 v=60
67680 On ch=1 n=d5 v=0
67680 On ch=1 n=f5 v=0
67800 On ch=1 n=d5 v=60
67800 On ch=1 n=f5 v=60
67920 On ch=1 n=f5 v=0
67920 On ch=1 n=d5 v=0
68040 On ch=1 n=d5 v=60
68040 On ch=1 n=f5 v=60
68160 On ch=1 n=f5 v=0
68160 On ch=1 n=d5 v=0
68280 On ch=1 n=d5 v=60
68280 On ch=1 n=f5 v=60
68400 On ch=1 n=f5 v=0
68400 On ch=1 n=d5 v=0
68520 On ch=1 n=f5 v=60
68520 On ch=1 n=d5 v=60
68640 On ch=1 n=d5 v=0
68640 On ch=1 n=f5 v=0
68760 On ch=1 n=c5 v=60
68760 On ch=1 n=d#5 v=60
68880 On ch=1 n=d#5 v=0
68880 On ch=1 n=c5 v=0
69000 On ch=1 n=c5 v=60
69000 On ch=1 n=d#5 v=60
69120 On ch=1 n=d#5 v=0
69120 On ch=1 n=c5 v=0
82680 On ch=1 n=f#5 v=80
82680 On ch=1 n=d#5 v=80
82800 On ch=1 n=d#5 v=0
82800 On ch=1 n=f#5 v=0
82920 On ch=1 n=f#5 v=90
82920 On ch=1 n=d#5 v=90
83040 On ch=1 n=d#5 v=0
83040 On ch=1 n=f#5 v=0
83640 On ch=1 n=f#5 v=80
83640 On ch=1 n=d#5 v=80
83760 On ch=1 n=d#5 v=0
83760 On ch=1 n=f#5 v=0
83880 On ch=1 n=f#5 v=90
83880 On ch=1 n=d#5 v=90
84000 On ch=1 n=d#5 v=0
84000 On ch=1 n=f#5 v=0
85440 On ch=1 n=c#7 v=70
85440 On ch=1 n=a6 v=70
86880 On ch=1 n=a6 v=0
86880 On ch=1 n=c#7 v=0
86880 On ch=1 n=b5 v=60
86880 On ch=1 n=g5 v=60
87360 On ch=1 n=g5 v=0
87360 On ch=1 n=b5 v=0
88320 On ch=1 n=c#7 v=60
88320 On ch=1 n=a6 v=60
88800 On ch=1 n=a6 v=0
88800 On ch=1 n=c#7 v=0
88800 On ch=1 n=b5 v=50
88800 On ch=1 n=g5 v=50
88960 On ch=1 n=g5 v=0
88960 On ch=1 n=b5 v=0
88960 On ch=1 n=a5 v=50
88960 On ch=1 n=c#6 v=50
89120 On ch=1 n=c#6 v=0
89120 On ch=1 n=a5 v=0
89120 On ch=1 n=b5 v=50
89120 On ch=1 n=g5 v=50
89280 On ch=1 n=g5 v=0
89280 On ch=1 n=b5 v=0
94080 On ch=1 n=e7 v=60
94080 On ch=1 n=c7 v=60
94560 On ch=1 n=c7 v=0
94560 On ch=1 n=e7 v=0
94560 On ch=1 n=d6 v=60
94560 On ch=1 n=a#5 v=60
95040 On ch=1 n=a#5 v=0
95040 On ch=1 n=d6 v=0
96000 On ch=1 n=e7 v=60
96000 On ch=1 n=c7 v=60
96480 On ch=1 n=c7 v=0
96480 On ch=1 n=e7 v=0
96480 On ch=1 n=a#5 v=50
96480 On ch=1 n=d6 v=50
96640 On ch=1 n=d6 v=0
96640 On ch=1 n=a#5 v=0
96640 On ch=1 n=c6 v=50
96640 On ch=1 n=e6 v=50
96800 On ch=1 n=e6 v=0
96800 On ch=1 n=c6 v=0
96800 On ch=1 n=a#5 v=50
96800 On ch=1 n=d6 v=50
96960 On ch=1 n=d6 v=0
96960 On ch=1 n=a#5 v=0
97920 On ch=1 n=g#4 v=80
97920 On ch=1 n=c5 v=80
98080 On ch=1 n=c5 v=0
98080 On ch=1 n=g#4 v=0
98080 On ch=1 n=d5 v=80
98080 On ch=1 n=f5 v=80
98240 On ch=1 n=f5 v=0
98240 On ch=1 n=d5 v=0
98240 On ch=1 n=g#5 v=80
98240 On ch=1 n=c6 v=80
98400 On ch=1 n=c6 v=0
98400 On ch=1 n=g#5 v=0
98400 On ch=1 n=g5 v=90
98400 On ch=1 n=d#5 v=90
98760 On ch=1 n=d#5 v=0
98760 On ch=1 n=g5 v=0
98760 On ch=1 n=g6 v=90
98760 On ch=1 n=d#6 v=90
98880 On ch=1 n=d#6 v=0
98880 On ch=1 n=g6 v=0
99360 On ch=1 n=c7 v=110
99360 On ch=1 n=g#6 v=110
99840 On ch=1 n=g#6 v=0
99840 On ch=1 n=c7 v=0
99840 On ch=1 n=g#4 v=80
99840 On ch=1 n=c5 v=80
100000 On ch=1 n=c5 v=0
100000 On ch=1 n=g#4 v=0
100000 On ch=1 n=d5 v=80
100000 On ch=1 n=f5 v=80
100160 On ch=1 n=f5 v=0
100160 On ch=1 n=d5 v=0
100160 On ch=1 n=g#5 v=80
100160 On ch=1 n=c6 v=80
100320 On ch=1 n=c6 v=0
100320 On ch=1 n=g#5 v=0
100320 On ch=1 n=g5 v=90
100320 On ch=1 n=d#5 v=90
100680 On ch=1 n=d#5 v=0
100680 On ch=1 n=g5 v=0
100680 On ch=1 n=g6 v=100
100680 On ch=1 n=d#6 v=100
100800 On ch=1 n=d#6 v=0
100800 On ch=1 n=g6 v=0
101160 On ch=1 n=c7 v=110
101160 On ch=1 n=g#6 v=110
101640 On ch=1 n=g#6 v=0
101640 On ch=1 n=c7 v=0
101640 On ch=1 n=g6 v=110
101640 On ch=1 n=d#6 v=110
102120 On ch=1 n=d#6 v=0
102120 On ch=1 n=g6 v=0
102120 On ch=1 n=c7 v=120
102120 On ch=1 n=g#6 v=120
102240 On ch=1 n=g#6 v=0
102240 On ch=1 n=c7 v=0
102600 On ch=1 n=d5 v=80
102600 On ch=1 n=f#5 v=80
102720 On ch=1 n=f#5 v=0
102720 On ch=1 n=d5 v=0
104040 On ch=1 n=g6 v=70
104040 On ch=1 n=d#6 v=70
104160 On ch=1 n=d#6 v=0
104160 On ch=1 n=g6 v=0
104580 On ch=1 n=f#5 v=60
104580 On ch=1 n=d5 v=60
105120 On ch=1 n=d5 v=0
105120 On ch=1 n=f#5 v=0
105480 On ch=1 n=g5 v=60
105480 On ch=1 n=d#5 v=60
105600 On ch=1 n=d#5 v=0
105600 On ch=1 n=g5 v=0
106560 On ch=1 n=g#4 v=60
106560 On ch=1 n=c5 v=60
106920 On ch=1 n=c5 v=0
106920 On ch=1 n=g#4 v=0
106920 On ch=1 n=g#5 v=60
106920 On ch=1 n=c6 v=60
107520 On ch=1 n=c6 v=0
107520 On ch=1 n=g#5 v=0
107880 On ch=1 n=g#5 v=60
107880 On ch=1 n=f5 v=60
108360 On ch=1 n=f5 v=0
108360 On ch=1 n=g#5 v=0
108840 On ch=1 n=d#5 v=60
108840 On ch=1 n=b4 v=60
109320 On ch=1 n=b4 v=0
109320 On ch=1 n=d#5 v=0
109320 On ch=1 n=g5 v=60
109320 On ch=1 n=d#5 v=60
109800 On ch=1 n=d#5 v=0
109800 On ch=1 n=g5 v=0
109800 On ch=1 n=a#5 v=70
109800 On ch=1 n=g5 v=70
110400 On ch=1 n=g5 v=0
110400 On ch=1 n=a#5 v=0
121560 On ch=1 n=d5 v=60
121560 On ch=1 n=f5 v=60
121680 On ch=1 n=f5 v=0
121680 On ch=1 n=d5 v=0
121800 On ch=1 n=d5 v=60
121800 On ch=1 n=f5 v=60
121920 On ch=1 n=f5 v=0
121920 On ch=1 n=d5 v=0
122040 On ch=1 n=d5 v=60
122040 On ch=1 n=f5 v=60
122160 On ch=1 n=f5 v=0
122160 On ch=1 n=d5 v=0
122280 On ch=1 n=d5 v=60
122280 On ch=1 n=f5 v=60
122400 On ch=1 n=f5 v=0
122400 On ch=1 n=d5 v=0
122520 On ch=1 n=d5 v=60
122520 On ch=1 n=f5 v=60
122640 On ch=1 n=f5 v=0
122640 On ch=1 n=d5 v=0
122760 On ch=1 n=f5 v=60
122760 On ch=1 n=d5 v=60
122880 On ch=1 n=d5 v=0
122880 On ch=1 n=f5 v=0
123000 On ch=1 n=d5 v=60
123000 On ch=1 n=f5 v=60
123120 On ch=1 n=f5 v=0
123120 On ch=1 n=d5 v=0
123240 On ch=1 n=d5 v=60
123240 On ch=1 n=f5 v=60
123360 On ch=1 n=f5 v=0
123360 On ch=1 n=d5 v=0
125400 On ch=1 n=d5 v=60
125400 On ch=1 n=f5 v=60
125520 On ch=1 n=f5 v=0
125520 On ch=1 n=d5 v=0
125640 On ch=1 n=d5 v=60
125640 On ch=1 n=f5 v=60
125760 On ch=1 n=f5 v=0
125760 On ch=1 n=d5 v=0
125880 On ch=1 n=d5 v=60
125880 On ch=1 n=f5 v=60
126000 On ch=1 n=f5 v=0
126000 On ch=1 n=d5 v=0
126120 On ch=1 n=d5 v=60
126120 On ch=1 n=f5 v=60
126240 On ch=1 n=f5 v=0
126240 On ch=1 n=d5 v=0
126360 On ch=1 n=d5 v=60
126360 On ch=1 n=f5 v=60
126480 On ch=1 n=f5 v=0
126480 On ch=1 n=d5 v=0
126600 On ch=1 n=f5 v=60
126600 On ch=1 n=d5 v=60
126720 On ch=1 n=d5 v=0
126720 On ch=1 n=f5 v=0
126840 On ch=1 n=d5 v=60
126840 On ch=1 n=f5 v=60
126960 On ch=1 n=f5 v=0
126960 On ch=1 n=d5 v=0
127080 On ch=1 n=d5 v=60
127080 On ch=1 n=f5 v=60
127200 On ch=1 n=f5 v=0
127200 On ch=1 n=d5 v=0
127320 On ch=1 n=a5 v=60
127320 On ch=1 n=f5 v=60
127440 On ch=1 n=f5 v=0
127440 On ch=1 n=a5 v=0
127560 On ch=1 n=a5 v=60
127560 On ch=1 n=f5 v=60
127680 On ch=1 n=f5 v=0
127680 On ch=1 n=a5 v=0
127800 On ch=1 n=a5 v=60
127800 On ch=1 n=f5 v=60
127920 On ch=1 n=f5 v=0
127920 On ch=1 n=a5 v=0
128040 On ch=1 n=f5 v=60
128040 On ch=1 n=a5 v=60
128160 On ch=1 n=a5 v=0
128160 On ch=1 n=f5 v=0
128280 On ch=1 n=a5 v=60
128280 On ch=1 n=f5 v=60
128400 On ch=1 n=f5 v=0
128400 On ch=1 n=a5 v=0
128520 On ch=1 n=a5 v=60
128520 On ch=1 n=f5 v=60
128640 On ch=1 n=f5 v=0
128640 On ch=1 n=a5 v=0
128760 On ch=1 n=a5 v=60
128760 On ch=1 n=f5 v=60
128880 On ch=1 n=f5 v=0
128880 On ch=1 n=a5 v=0
129000 On ch=1 n=f5 v=60
129000 On ch=1 n=a5 v=60
129120 On ch=1 n=a5 v=0
129120 On ch=1 n=f5 v=0
129240 On ch=1 n=a5 v=80
129240 On ch=1 n=c6 v=80
129360 On ch=1 n=c6 v=0
129360 On ch=1 n=a5 v=0
129480 On ch=1 n=a5 v=80
129480 On ch=1 n=c6 v=80
129600 On ch=1 n=c6 v=0
129600 On ch=1 n=a5 v=0
129720 On ch=1 n=c6 v=90
129720 On ch=1 n=a5 v=90
129840 On ch=1 n=a5 v=0
129840 On ch=1 n=c6 v=0
129960 On ch=1 n=c6 v=90
129960 On ch=1 n=a5 v=90
130080 On ch=1 n=a5 v=0
130080 On ch=1 n=c6 v=0
130200 On ch=1 n=a5 v=100
130200 On ch=1 n=c6 v=100
130320 On ch=1 n=c6 v=0
130320 On ch=1 n=a5 v=0
130440 On ch=1 n=a5 v=100
130440 On ch=1 n=c6 v=100
130560 On ch=1 n=c6 v=0
130560 On ch=1 n=a5 v=0
130680 On ch=1 n=c6 v=90
130680 On ch=1 n=a5 v=90
130800 On ch=1 n=a5 v=0
130800 On ch=1 n=c6 v=0
130920 On ch=1 n=a5 v=90
130920 On ch=1 n=c6 v=90
131040 On ch=1 n=c6 v=0
131040 On ch=1 n=a5 v=0
131160 On ch=1 n=a5 v=80
131160 On ch=1 n=c6 v=80
131280 On ch=1 n=c6 v=0
131280 On ch=1 n=a5 v=0
131400 On ch=1 n=a5 v=80
131400 On ch=1 n=c6 v=80
131520 On ch=1 n=c6 v=0
131520 On ch=1 n=a5 v=0
131640 On ch=1 n=c6 v=80
131640 On ch=1 n=a5 v=80
131760 On ch=1 n=a5 v=0
131760 On ch=1 n=c6 v=0
131880 On ch=1 n=a5 v=80
131880 On ch=1 n=c6 v=80
132000 On ch=1 n=c6 v=0
132000 On ch=1 n=a5 v=0
132120 On ch=1 n=c6 v=80
132120 On ch=1 n=a5 v=80
132240 On ch=1 n=a5 v=0
132240 On ch=1 n=c6 v=0
132360 On ch=1 n=a5 v=80
132360 On ch=1 n=c6 v=80
132480 On ch=1 n=c6 v=0
132480 On ch=1 n=a5 v=0
132600 On ch=1 n=a5 v=80
132600 On ch=1 n=c6 v=80
132720 On ch=1 n=c6 v=0
132720 On ch=1 n=a5 v=0
132840 On ch=1 n=c6 v=80
132840 On ch=1 n=a5 v=80
132960 On ch=1 n=a5 v=0
132960 On ch=1 n=c6 v=0
133080 On ch=1 n=b5 v=80
133080 On ch=1 n=g5 v=80
133200 On ch=1 n=g5 v=0
133200 On ch=1 n=b5 v=0
133320 On ch=1 n=b5 v=80
133320 On ch=1 n=g5 v=80
133440 On ch=1 n=g5 v=0
133440 On ch=1 n=b5 v=0
133560 On ch=1 n=b5 v=90
133560 On ch=1 n=g5 v=90
133680 On ch=1 n=g5 v=0
133680 On ch=1 n=b5 v=0
133800 On ch=1 n=b5 v=90
133800 On ch=1 n=g5 v=90
133920 On ch=1 n=g5 v=0
133920 On ch=1 n=b5 v=0
134040 On ch=1 n=b5 v=100
134040 On ch=1 n=g5 v=100
134160 On ch=1 n=g5 v=0
134160 On ch=1 n=b5 v=0
134280 On ch=1 n=b5 v=100
134280 On ch=1 n=g5 v=100
134400 On ch=1 n=g5 v=0
134400 On ch=1 n=b5 v=0
134520 On ch=1 n=b5 v=90
134520 On ch=1 n=g5 v=90
134640 On ch=1 n=g5 v=0
134640 On ch=1 n=b5 v=0
134760 On ch=1 n=b5 v=90
134760 On ch=1 n=g5 v=90
134880 On ch=1 n=g5 v=0
134880 On ch=1 n=b5 v=0
135000 On ch=1 n=b5 v=80
135000 On ch=1 n=g5 v=80
135120 On ch=1 n=g5 v=0
135120 On ch=1 n=b5 v=0
135240 On ch=1 n=b5 v=80
135240 On ch=1 n=g5 v=80
135360 On ch=1 n=g5 v=0
135360 On ch=1 n=b5 v=0
135480 On ch=1 n=b5 v=80
135480 On ch=1 n=g5 v=80
135600 On ch=1 n=g5 v=0
135600 On ch=1 n=b5 v=0
135720 On ch=1 n=b5 v=80
135720 On ch=1 n=g5 v=80
135840 On ch=1 n=g5 v=0
135840 On ch=1 n=b5 v=0
135960 On ch=1 n=f5 v=80
135960 On ch=1 n=a5 v=80
136080 On ch=1 n=a5 v=0
136080 On ch=1 n=f5 v=0
136200 On ch=1 n=f5 v=80
136200 On ch=1 n=a5 v=80
136320 On ch=1 n=a5 v=0
136320 On ch=1 n=f5 v=0
136440 On ch=1 n=f5 v=80
136440 On ch=1 n=a5 v=80
136560 On ch=1 n=a5 v=0
136560 On ch=1 n=f5 v=0
136680 On ch=1 n=f5 v=80
136680 On ch=1 n=a5 v=80
136800 On ch=1 n=a5 v=0
136800 On ch=1 n=f5 v=0
136920 On ch=1 n=g5 v=80
136920 On ch=1 n=e5 v=80
137040 On ch=1 n=e5 v=0
137040 On ch=1 n=g5 v=0
137160 On ch=1 n=g5 v=80
137160 On ch=1 n=e5 v=80
137280 On ch=1 n=e5 v=0
137280 On ch=1 n=g5 v=0
137400 On ch=1 n=g5 v=80
137400 On ch=1 n=e5 v=80
137520 On ch=1 n=e5 v=0
137520 On ch=1 n=g5 v=0
137640 On ch=1 n=g5 v=80
137640 On ch=1 n=e5 v=80
137760 On ch=1 n=e5 v=0
137760 On ch=1 n=g5 v=0
137880 On ch=1 n=f5 v=80
137880 On ch=1 n=d5 v=80
138000 On ch=1 n=d5 v=0
138000 On ch=1 n=f5 v=0
138120 On ch=1 n=d5 v=80
138120 On ch=1 n=f5 v=80
138240 On ch=1 n=f5 v=0
138240 On ch=1 n=d5 v=0
138360 On ch=1 n=f5 v=80
138360 On ch=1 n=d5 v=80
138480 On ch=1 n=d5 v=0
138480 On ch=1 n=f5 v=0
138600 On ch=1 n=f5 v=80
138600 On ch=1 n=d5 v=80
138720 On ch=1 n=d5 v=0
138720 On ch=1 n=f5 v=0
138840 On ch=1 n=f5 v=80
138840 On ch=1 n=d5 v=80
138960 On ch=1 n=d5 v=0
138960 On ch=1 n=f5 v=0
139080 On ch=1 n=d5 v=80
139080 On ch=1 n=f5 v=80
139200 On ch=1 n=f5 v=0
139200 On ch=1 n=d5 v=0
139320 On ch=1 n=f5 v=85
139320 On ch=1 n=d5 v=85
139440 On ch=1 n=d5 v=0
139440 On ch=1 n=f5 v=0
139560 On ch=1 n=f5 v=85
139560 On ch=1 n=d5 v=85
139680 On ch=1 n=d5 v=0
139680 On ch=1 n=f5 v=0
139800 On ch=1 n=f5 v=90
139800 On ch=1 n=d5 v=90
139920 On ch=1 n=d5 v=0
139920 On ch=1 n=f5 v=0
140040 On ch=1 n=d5 v=90
140040 On ch=1 n=f5 v=90
140160 On ch=1 n=f5 v=0
140160 On ch=1 n=d5 v=0
140280 On ch=1 n=f5 v=95
140280 On ch=1 n=d5 v=95
140400 On ch=1 n=d5 v=0
140400 On ch=1 n=f5 v=0
140520 On ch=1 n=f5 v=95
140520 On ch=1 n=d5 v=95
140640 On ch=1 n=d5 v=0
140640 On ch=1 n=f5 v=0
140760 On ch=1 n=c5 v=100
140760 On ch=1 n=e5 v=100
140880 On ch=1 n=e5 v=0
140880 On ch=1 n=c5 v=0
141000 On ch=1 n=c5 v=100
141000 On ch=1 n=e5 v=100
141120 On ch=1 n=e5 v=0
141120 On ch=1 n=c5 v=0
141240 On ch=1 n=c5 v=110
141240 On ch=1 n=e5 v=110
141360 On ch=1 n=e5 v=0
141360 On ch=1 n=c5 v=0
141480 On ch=1 n=c5 v=110
141480 On ch=1 n=e5 v=110
141600 On ch=1 n=e5 v=0
141600 On ch=1 n=c5 v=0
141720 On ch=1 n=c5 v=110
141720 On ch=1 n=e5 v=110
141840 On ch=1 n=e5 v=0
141840 On ch=1 n=c5 v=0
141960 On ch=1 n=c5 v=110
141960 On ch=1 n=e5 v=110
142080 On ch=1 n=e5 v=0
142080 On ch=1 n=c5 v=0
142200 On ch=1 n=c5 v=110
142200 On ch=1 n=e5 v=110
142320 On ch=1 n=e5 v=0
142320 On ch=1 n=c5 v=0
142440 On ch=1 n=c5 v=110
142440 On ch=1 n=e5 v=110
142560 On ch=1 n=e5 v=0
142560 On ch=1 n=c5 v=0
142680 On ch=1 n=c5 v=110
142680 On ch=1 n=e5 v=110
142800 On ch=1 n=e5 v=0
142800 On ch=1 n=c5 v=0
142920 On ch=1 n=b4 v=110
142920 On ch=1 n=d#5 v=110
143040 On ch=1 n=d#5 v=0
143040 On ch=1 n=b4 v=0
143160 On ch=1 n=a#4 v=110
143160 On ch=1 n=d5 v=110
143280 On ch=1 n=d5 v=0
143280 On ch=1 n=a#4 v=0
143400 On ch=1 n=a4 v=110
143400 On ch=1 n=c#5 v=110
143520 On ch=1 n=c#5 v=0
143520 On ch=1 n=a4 v=0
143520 Meta TrkEnd
TrkEnd
MTrk
0 SeqSpec 43 00 01 00
0 Meta TrkName "Lower Treble"
0 Meta 0x21 00
480 On ch=1 n=f#6 v=80
480 On ch=1 n=d6 v=80
960 On ch=1 n=d6 v=0
960 On ch=1 n=f#6 v=0
1440 On ch=1 n=b5 v=80
1440 On ch=1 n=g5 v=80
3840 On ch=1 n=g5 v=0
3840 On ch=1 n=b5 v=0
11520 On ch=1 n=a4 v=60
11520 On ch=1 n=c5 v=60
11640 On ch=1 n=c5 v=0
11640 On ch=1 n=a4 v=0
11760 On ch=1 n=e5 v=60
11760 On ch=1 n=g5 v=60
11880 On ch=1 n=g5 v=0
11880 On ch=1 n=e5 v=0
12000 On ch=1 n=a4 v=60
12000 On ch=1 n=c5 v=60
12120 On ch=1 n=c5 v=0
12120 On ch=1 n=a4 v=0
12240 On ch=1 n=e5 v=60
12240 On ch=1 n=g5 v=60
12360 On ch=1 n=g5 v=0
12360 On ch=1 n=e5 v=0
12480 On ch=1 n=a4 v=60
12480 On ch=1 n=c5 v=60
12600 On ch=1 n=c5 v=0
12600 On ch=1 n=a4 v=0
12720 On ch=1 n=e5 v=60
12720 On ch=1 n=g5 v=60
12840 On ch=1 n=g5 v=0
12840 On ch=1 n=e5 v=0
13200 On ch=1 n=e5 v=60
13200 On ch=1 n=g5 v=60
13320 On ch=1 n=g5 v=0
13320 On ch=1 n=e5 v=0
15360 On ch=1 n=a4 v=60
15360 On ch=1 n=c5 v=60
15480 On ch=1 n=c5 v=0
15480 On ch=1 n=a4 v=0
15600 On ch=1 n=e5 v=60
15600 On ch=1 n=g5 v=60
15720 On ch=1 n=g5 v=0
15720 On ch=1 n=e5 v=0
15840 On ch=1 n=a4 v=60
15840 On ch=1 n=c5 v=60
15960 On ch=1 n=c5 v=0
15960 On ch=1 n=a4 v=0
16080 On ch=1 n=e5 v=60
16080 On ch=1 n=g5 v=60
16200 On ch=1 n=g5 v=0
16200 On ch=1 n=e5 v=0
16320 On ch=1 n=a4 v=60
16320 On ch=1 n=c5 v=60
16440 On ch=1 n=c5 v=0
16440 On ch=1 n=a4 v=0
16560 On ch=1 n=e5 v=60
16560 On ch=1 n=g5 v=60
16680 On ch=1 n=g5 v=0
16680 On ch=1 n=e5 v=0
17040 On ch=1 n=e5 v=60
17040 On ch=1 n=g5 v=60
17160 On ch=1 n=g5 v=0
17160 On ch=1 n=e5 v=0
17280 On ch=1 n=c5 v=60
17280 On ch=1 n=e5 v=60
17400 On ch=1 n=e5 v=0
17400 On ch=1 n=c5 v=0
17520 On ch=1 n=b5 v=60
17520 On ch=1 n=g5 v=60
17640 On ch=1 n=g5 v=0
17640 On ch=1 n=b5 v=0
17760 On ch=1 n=c5 v=60
17760 On ch=1 n=e5 v=60
17880 On ch=1 n=e5 v=0
17880 On ch=1 n=c5 v=0
18000 On ch=1 n=b5 v=60
18000 On ch=1 n=g5 v=60
18120 On ch=1 n=g5 v=0
18120 On ch=1 n=b5 v=0
18240 On ch=1 n=b4 v=60
18240 On ch=1 n=d5 v=60
18360 On ch=1 n=d5 v=0
18360 On ch=1 n=b4 v=0
18480 On ch=1 n=b5 v=60
18480 On ch=1 n=g5 v=60
18600 On ch=1 n=g5 v=0
18600 On ch=1 n=b5 v=0
18720 On ch=1 n=b4 v=60
18720 On ch=1 n=d5 v=60
18840 On ch=1 n=d5 v=0
18840 On ch=1 n=b4 v=0
18960 On ch=1 n=b5 v=60
18960 On ch=1 n=g5 v=60
19080 On ch=1 n=g5 v=0
19080 On ch=1 n=b5 v=0
19200 On ch=1 n=g5 v=60
19200 On ch=1 n=e5 v=60
19320 On ch=1 n=e5 v=0
19320 On ch=1 n=g5 v=0
19440 On ch=1 n=b5 v=60
19440 On ch=1 n=d6 v=60
19560 On ch=1 n=d6 v=0
19560 On ch=1 n=b5 v=0
19680 On ch=1 n=d6 v=60
19680 On ch=1 n=b5 v=60
19800 On ch=1 n=b5 v=0
19800 On ch=1 n=d6 v=0
19920 On ch=1 n=b5 v=60
19920 On ch=1 n=d6 v=60
20040 On ch=1 n=d6 v=0
20040 On ch=1 n=b5 v=0
20160 On ch=1 n=g#5 v=60
20160 On ch=1 n=f5 v=60
20280 On ch=1 n=f5 v=0
20280 On ch=1 n=g#5 v=0
20400 On ch=1 n=d6 v=80
20400 On ch=1 n=b5 v=80
20520 On ch=1 n=b5 v=0
20520 On ch=1 n=d6 v=0
20640 On ch=1 n=e5 v=80
20640 On ch=1 n=g5 v=80
20760 On ch=1 n=g5 v=0
20760 On ch=1 n=e5 v=0
20880 On ch=1 n=b5 v=80
20880 On ch=1 n=d6 v=80
21000 On ch=1 n=d6 v=0
21000 On ch=1 n=b5 v=0
21120 On ch=1 n=f#5 v=80
21120 On ch=1 n=d#5 v=80
21240 On ch=1 n=d#5 v=0
21240 On ch=1 n=f#5 v=0
21360 On ch=1 n=d6 v=80
21360 On ch=1 n=b5 v=80
21480 On ch=1 n=b5 v=0
21480 On ch=1 n=d6 v=0
21600 On ch=1 n=f#6 v=80
21600 On ch=1 n=d#6 v=80
21720 On ch=1 n=d#6 v=0
21720 On ch=1 n=f#6 v=0
21840 On ch=1 n=b5 v=80
21840 On ch=1 n=d6 v=80
21960 On ch=1 n=d6 v=0
21960 On ch=1 n=b5 v=0
22080 On ch=1 n=f#5 v=80
22080 On ch=1 n=d#5 v=80
22200 On ch=1 n=d#5 v=0
22200 On ch=1 n=f#5 v=0
22320 On ch=1 n=d6 v=80
22320 On ch=1 n=b5 v=80
22440 On ch=1 n=b5 v=0
22440 On ch=1 n=d6 v=0
22560 On ch=1 n=f#6 v=80
22560 On ch=1 n=d#6 v=80
22680 On ch=1 n=d#6 v=0
22680 On ch=1 n=f#6 v=0
22800 On ch=1 n=b5 v=80
22800 On ch=1 n=d6 v=80
22920 On ch=1 n=d6 v=0
22920 On ch=1 n=b5 v=0
23040 On ch=1 n=d5 v=90
23040 On ch=1 n=f#5 v=90
23160 On ch=1 n=f#5 v=0
23160 On ch=1 n=d5 v=0
23280 On ch=1 n=c6 v=100
23280 On ch=1 n=a5 v=100
23400 On ch=1 n=a5 v=0
23400 On ch=1 n=c6 v=0
23520 On ch=1 n=c6 v=110
23520 On ch=1 n=a5 v=110
23640 On ch=1 n=a5 v=0
23640 On ch=1 n=c6 v=0
23760 On ch=1 n=c6 v=120
23760 On ch=1 n=a5 v=120
23880 On ch=1 n=a5 v=0
23880 On ch=1 n=c6 v=0
24000 On ch=1 n=g5 v=120
24000 On ch=1 n=e5 v=120
24120 On ch=1 n=e5 v=0
24120 On ch=1 n=g5 v=0
24240 On ch=1 n=c6 v=110
24240 On ch=1 n=a5 v=110
24360 On ch=1 n=a5 v=0
24360 On ch=1 n=c6 v=0
24480 On ch=1 n=d#5 v=100
24480 On ch=1 n=f#5 v=100
24600 On ch=1 n=f#5 v=0
24600 On ch=1 n=d#5 v=0
24720 On ch=1 n=a5 v=90
24720 On ch=1 n=c6 v=90
24840 On ch=1 n=c6 v=0
24840 On ch=1 n=a5 v=0
24960 On ch=1 n=d5 v=80
24960 On ch=1 n=f5 v=80
25080 On ch=1 n=f5 v=0
25080 On ch=1 n=d5 v=0
25200 On ch=1 n=a5 v=80
25200 On ch=1 n=c6 v=80
25320 On ch=1 n=c6 v=0
25320 On ch=1 n=a5 v=0
25440 On ch=1 n=f6 v=80
25440 On ch=1 n=d6 v=80
25560 On ch=1 n=d6 v=0
25560 On ch=1 n=f6 v=0
25680 On ch=1 n=c6 v=80
25680 On ch=1 n=a5 v=80
25800 On ch=1 n=a5 v=0
25800 On ch=1 n=c6 v=0
25920 On ch=1 n=c5 v=80
25920 On ch=1 n=e5 v=80
26040 On ch=1 n=e5 v=0
26040 On ch=1 n=c5 v=0
26160 On ch=1 n=b5 v=80
26160 On ch=1 n=g5 v=80
26280 On ch=1 n=g5 v=0
26280 On ch=1 n=b5 v=0
26400 On ch=1 n=c6 v=80
26400 On ch=1 n=e6 v=80
26520 On ch=1 n=e6 v=0
26520 On ch=1 n=c6 v=0
26640 On ch=1 n=g5 v=80
26640 On ch=1 n=b5 v=80
26760 On ch=1 n=b5 v=0
26760 On ch=1 n=g5 v=0
26880 On ch=1 n=b4 v=80
26880 On ch=1 n=d5 v=80
27000 On ch=1 n=d5 v=0
27000 On ch=1 n=b4 v=0
27120 On ch=1 n=a5 v=80
27120 On ch=1 n=f5 v=80
27240 On ch=1 n=f5 v=0
27240 On ch=1 n=a5 v=0
27360 On ch=1 n=d6 v=80
27360 On ch=1 n=b5 v=80
27480 On ch=1 n=b5 v=0
27480 On ch=1 n=d6 v=0
27600 On ch=1 n=f5 v=80
27600 On ch=1 n=a5 v=80
27720 On ch=1 n=a5 v=0
27720 On ch=1 n=f5 v=0
27840 On ch=1 n=a4 v=80
27840 On ch=1 n=c5 v=80
27960 On ch=1 n=c5 v=0
27960 On ch=1 n=a4 v=0
28080 On ch=1 n=g5 v=80
28080 On ch=1 n=e5 v=80
28200 On ch=1 n=e5 v=0
28200 On ch=1 n=g5 v=0
28320 On ch=1 n=c6 v=80
28320 On ch=1 n=a5 v=80
28440 On ch=1 n=a5 v=0
28440 On ch=1 n=c6 v=0
28560 On ch=1 n=e5 v=80
28560 On ch=1 n=g5 v=80
28680 On ch=1 n=g5 v=0
28680 On ch=1 n=e5 v=0
28800 On ch=1 n=g#4 v=80
28800 On ch=1 n=b4 v=80
28920 On ch=1 n=b4 v=0
28920 On ch=1 n=g#4 v=0
29040 On ch=1 n=e5 v=80
29040 On ch=1 n=g5 v=80
29160 On ch=1 n=g5 v=0
29160 On ch=1 n=e5 v=0
29280 On ch=1 n=b5 v=80
29280 On ch=1 n=g#5 v=80
29400 On ch=1 n=g#5 v=0
29400 On ch=1 n=b5 v=0
29520 On ch=1 n=e5 v=80
29520 On ch=1 n=g5 v=80
29640 On ch=1 n=g5 v=0
29640 On ch=1 n=e5 v=0
30000 On ch=1 n=g5 v=80
30000 On ch=1 n=e5 v=80
30120 On ch=1 n=e5 v=0
30120 On ch=1 n=g5 v=0
30240 On ch=1 n=b5 v=80
30240 On ch=1 n=g5 v=80
30360 On ch=1 n=g5 v=0
30360 On ch=1 n=b5 v=0
30480 On ch=1 n=e5 v=80
30480 On ch=1 n=g5 v=80
30600 On ch=1 n=g5 v=0
30600 On ch=1 n=e5 v=0
30960 On ch=1 n=g5 v=80
30960 On ch=1 n=e5 v=80
31080 On ch=1 n=e5 v=0
31080 On ch=1 n=g5 v=0
31200 On ch=1 n=g5 v=80
31200 On ch=1 n=b5 v=80
31320 On ch=1 n=b5 v=0
31320 On ch=1 n=g5 v=0
31440 On ch=1 n=e5 v=80
31440 On ch=1 n=g5 v=80
31560 On ch=1 n=g5 v=0
31560 On ch=1 n=e5 v=0
31680 On ch=1 n=c5 v=80
31680 On ch=1 n=e5 v=80
31800 On ch=1 n=e5 v=0
31800 On ch=1 n=c5 v=0
31920 On ch=1 n=c5 v=90
31920 On ch=1 n=e5 v=90
32040 On ch=1 n=e5 v=0
32040 On ch=1 n=c5 v=0
32160 On ch=1 n=g5 v=100
32160 On ch=1 n=e5 v=100
32280 On ch=1 n=e5 v=0
32280 On ch=1 n=g5 v=0
32400 On ch=1 n=g5 v=110
32400 On ch=1 n=e5 v=110
32520 On ch=1 n=e5 v=0
32520 On ch=1 n=g5 v=0
32640 On ch=1 n=b5 v=120
32640 On ch=1 n=g5 v=120
32760 On ch=1 n=g5 v=0
32760 On ch=1 n=b5 v=0
32880 On ch=1 n=d6 v=110
32880 On ch=1 n=b5 v=110
33000 On ch=1 n=b5 v=0
33000 On ch=1 n=d6 v=0
33120 On ch=1 n=g5 v=100
33120 On ch=1 n=b5 v=100
33240 On ch=1 n=b5 v=0
33240 On ch=1 n=g5 v=0
33360 On ch=1 n=e5 v=90
33360 On ch=1 n=g5 v=90
33480 On ch=1 n=g5 v=0
33480 On ch=1 n=e5 v=0
33600 On ch=1 n=c5 v=80
33600 On ch=1 n=e5 v=80
33720 On ch=1 n=e5 v=0
33720 On ch=1 n=c5 v=0
33840 On ch=1 n=c5 v=90
33840 On ch=1 n=e5 v=90
33960 On ch=1 n=e5 v=0
33960 On ch=1 n=c5 v=0
34080 On ch=1 n=g5 v=100
34080 On ch=1 n=e5 v=100
34200 On ch=1 n=e5 v=0
34200 On ch=1 n=g5 v=0
34320 On ch=1 n=g5 v=110
34320 On ch=1 n=e5 v=110
34440 On ch=1 n=e5 v=0
34440 On ch=1 n=g5 v=0
34560 On ch=1 n=b5 v=120
34560 On ch=1 n=g5 v=120
34680 On ch=1 n=g5 v=0
34680 On ch=1 n=b5 v=0
34800 On ch=1 n=d6 v=110
34800 On ch=1 n=b5 v=110
34920 On ch=1 n=b5 v=0
34920 On ch=1 n=d6 v=0
35040 On ch=1 n=g5 v=100
35040 On ch=1 n=b5 v=100
35160 On ch=1 n=b5 v=0
35160 On ch=1 n=g5 v=0
35280 On ch=1 n=e5 v=90
35280 On ch=1 n=g5 v=90
35400 On ch=1 n=g5 v=0
35400 On ch=1 n=e5 v=0
35520 On ch=1 n=c5 v=80
35520 On ch=1 n=e5 v=80
35640 On ch=1 n=e5 v=0
35640 On ch=1 n=c5 v=0
35760 On ch=1 n=c5 v=85
35760 On ch=1 n=e5 v=85
35880 On ch=1 n=e5 v=0
35880 On ch=1 n=c5 v=0
36000 On ch=1 n=g5 v=90
36000 On ch=1 n=e5 v=90
36120 On ch=1 n=e5 v=0
36120 On ch=1 n=g5 v=0
36240 On ch=1 n=g5 v=95
36240 On ch=1 n=e5 v=95
36360 On ch=1 n=e5 v=0
36360 On ch=1 n=g5 v=0
36480 On ch=1 n=b5 v=100
36480 On ch=1 n=g5 v=100
36600 On ch=1 n=g5 v=0
36600 On ch=1 n=b5 v=0
36720 On ch=1 n=b5 v=100
36720 On ch=1 n=g5 v=100
36840 On ch=1 n=g5 v=0
36840 On ch=1 n=b5 v=0
36960 On ch=1 n=d6 v=105
36960 On ch=1 n=b5 v=105
37080 On ch=1 n=b5 v=0
37080 On ch=1 n=d6 v=0
37200 On ch=1 n=d6 v=115
37200 On ch=1 n=b5 v=115
37320 On ch=1 n=b5 v=0
37320 On ch=1 n=d6 v=0
37440 On ch=1 n=f6 v=125
37440 On ch=1 n=d6 v=125
37560 On ch=1 n=d6 v=0
37560 On ch=1 n=f6 v=0
37680 On ch=1 n=f6 v=60
37680 On ch=1 n=d6 v=60
37800 On ch=1 n=d6 v=0
37800 On ch=1 n=f6 v=0
37920 On ch=1 n=f6 v=60
37920 On ch=1 n=d6 v=60
38040 On ch=1 n=d6 v=0
38040 On ch=1 n=f6 v=0
38160 On ch=1 n=f6 v=60
38160 On ch=1 n=d6 v=60
38280 On ch=1 n=d6 v=0
38280 On ch=1 n=f6 v=0
38400 On ch=1 n=f6 v=60
38400 On ch=1 n=d6 v=60
38520 On ch=1 n=d6 v=0
38520 On ch=1 n=f6 v=0
38640 On ch=1 n=f6 v=60
38640 On ch=1 n=d6 v=60
38760 On ch=1 n=d6 v=0
38760 On ch=1 n=f6 v=0
38880 On ch=1 n=f6 v=60
38880 On ch=1 n=d6 v=60
39000 On ch=1 n=d6 v=0
39000 On ch=1 n=f6 v=0
39120 On ch=1 n=f6 v=60
39120 On ch=1 n=d6 v=60
39240 On ch=1 n=d6 v=0
39240 On ch=1 n=f6 v=0
39360 On ch=1 n=f6 v=60
39360 On ch=1 n=d6 v=60
39480 On ch=1 n=d6 v=0
39480 On ch=1 n=f6 v=0
39600 On ch=1 n=f6 v=80
39600 On ch=1 n=d6 v=80
39720 On ch=1 n=d6 v=0
39720 On ch=1 n=f6 v=0
39840 On ch=1 n=f6 v=85
39840 On ch=1 n=d6 v=85
39960 On ch=1 n=d6 v=0
39960 On ch=1 n=f6 v=0
40080 On ch=1 n=f6 v=90
40080 On ch=1 n=d6 v=90
40200 On ch=1 n=d6 v=0
40200 On ch=1 n=f6 v=0
40320 On ch=1 n=g6 v=95
40320 On ch=1 n=e6 v=95
40440 On ch=1 n=e6 v=0
40440 On ch=1 n=g6 v=0
40560 On ch=1 n=g6 v=100
40560 On ch=1 n=e6 v=100
40680 On ch=1 n=e6 v=0
40680 On ch=1 n=g6 v=0
40800 On ch=1 n=g6 v=105
40800 On ch=1 n=e6 v=105
40920 On ch=1 n=e6 v=0
40920 On ch=1 n=g6 v=0
41040 On ch=1 n=g6 v=115
41040 On ch=1 n=e6 v=115
41160 On ch=1 n=e6 v=0
41160 On ch=1 n=g6 v=0
41280 On ch=1 n=f6 v=125
41280 On ch=1 n=d6 v=125
41400 On ch=1 n=d6 v=0
41400 On ch=1 n=f6 v=0
41520 On ch=1 n=f6 v=60
41520 On ch=1 n=d6 v=60
41640 On ch=1 n=d6 v=0
41640 On ch=1 n=f6 v=0
41760 On ch=1 n=d6 v=60
41760 On ch=1 n=f6 v=60
41880 On ch=1 n=f6 v=0
41880 On ch=1 n=d6 v=0
42000 On ch=1 n=f6 v=60
42000 On ch=1 n=d6 v=60
42120 On ch=1 n=d6 v=0
42120 On ch=1 n=f6 v=0
42240 On ch=1 n=f6 v=60
42240 On ch=1 n=d6 v=60
42360 On ch=1 n=d6 v=0
42360 On ch=1 n=f6 v=0
42480 On ch=1 n=f6 v=60
42480 On ch=1 n=d6 v=60
42600 On ch=1 n=d6 v=0
42600 On ch=1 n=f6 v=0
42720 On ch=1 n=d6 v=60
42720 On ch=1 n=f6 v=60
42840 On ch=1 n=f6 v=0
42840 On ch=1 n=d6 v=0
42960 On ch=1 n=f6 v=60
42960 On ch=1 n=d6 v=60
43080 On ch=1 n=d6 v=0
43080 On ch=1 n=f6 v=0
43320 On ch=1 n=g#5 v=80
43320 On ch=1 n=c6 v=80
43440 On ch=1 n=c6 v=0
43440 On ch=1 n=g#5 v=0
43560 On ch=1 n=g#5 v=80
43560 On ch=1 n=c6 v=80
43680 On ch=1 n=c6 v=0
43680 On ch=1 n=g#5 v=0
43800 On ch=1 n=d6 v=80
43800 On ch=1 n=a#5 v=80
43920 On ch=1 n=a#5 v=0
43920 On ch=1 n=d6 v=0
44040 On ch=1 n=d6 v=80
44040 On ch=1 n=a#5 v=80
44160 On ch=1 n=a#5 v=0
44160 On ch=1 n=d6 v=0
44280 On ch=1 n=d#6 v=90
44280 On ch=1 n=c6 v=90
44400 On ch=1 n=c6 v=0
44400 On ch=1 n=d#6 v=0
44520 On ch=1 n=c6 v=90
44520 On ch=1 n=d#6 v=90
44640 On ch=1 n=d#6 v=0
44640 On ch=1 n=c6 v=0
44760 On ch=1 n=c6 v=90
44760 On ch=1 n=d#6 v=90
44880 On ch=1 n=d#6 v=0
44880 On ch=1 n=c6 v=0
45000 On ch=1 n=d6 v=100
45000 On ch=1 n=f6 v=100
45120 On ch=1 n=f6 v=0
45120 On ch=1 n=d6 v=0
45240 On ch=1 n=g#5 v=100
45240 On ch=1 n=c6 v=100
45360 On ch=1 n=c6 v=0
45360 On ch=1 n=g#5 v=0
45480 On ch=1 n=g#5 v=100
45480 On ch=1 n=c6 v=100
45600 On ch=1 n=c6 v=0
45600 On ch=1 n=g#5 v=0
45720 On ch=1 n=d6 v=100
45720 On ch=1 n=a#5 v=100
45840 On ch=1 n=a#5 v=0
45840 On ch=1 n=d6 v=0
45960 On ch=1 n=d6 v=100
45960 On ch=1 n=a#5 v=100
46080 On ch=1 n=a#5 v=0
46080 On ch=1 n=d6 v=0
46200 On ch=1 n=d#6 v=110
46200 On ch=1 n=c6 v=110
46320 On ch=1 n=c6 v=0
46320 On ch=1 n=d#6 v=0
46440 On ch=1 n=c6 v=110
46440 On ch=1 n=d#6 v=110
46560 On ch=1 n=d#6 v=0
46560 On ch=1 n=c6 v=0
46680 On ch=1 n=c6 v=110
46680 On ch=1 n=d#6 v=110
46800 On ch=1 n=d#6 v=0
46800 On ch=1 n=c6 v=0
46920 On ch=1 n=d6 v=110
46920 On ch=1 n=f6 v=110
47040 On ch=1 n=f6 v=0
47040 On ch=1 n=d6 v=0
47160 On ch=1 n=g6 v=120
47160 On ch=1 n=d#6 v=120
47280 On ch=1 n=d#6 v=0
47280 On ch=1 n=g6 v=0
47400 On ch=1 n=g6 v=120
47400 On ch=1 n=d#6 v=120
47520 On ch=1 n=d#6 v=0
47520 On ch=1 n=g6 v=0
47640 On ch=1 n=g#6 v=120
47640 On ch=1 n=f6 v=120
47760 On ch=1 n=f6 v=0
47760 On ch=1 n=g#6 v=0
47880 On ch=1 n=g#6 v=120
47880 On ch=1 n=f6 v=120
48000 On ch=1 n=f6 v=0
48000 On ch=1 n=g#6 v=0
48120 On ch=1 n=a#6 v=125
48120 On ch=1 n=g6 v=125
48240 On ch=1 n=g6 v=0
48240 On ch=1 n=a#6 v=0
48360 On ch=1 n=a#6 v=125
48360 On ch=1 n=g6 v=125
48480 On ch=1 n=g6 v=0
48480 On ch=1 n=a#6 v=0
48600 On ch=1 n=c7 v=125
48600 On ch=1 n=g#6 v=125
48720 On ch=1 n=g#6 v=0
48720 On ch=1 n=c7 v=0
48840 On ch=1 n=c7 v=125
48840 On ch=1 n=g#6 v=125
48960 On ch=1 n=g#6 v=0
48960 On ch=1 n=c7 v=0
49080 On ch=1 n=g#6 v=125
49080 On ch=1 n=c7 v=125
49200 On ch=1 n=c7 v=0
49200 On ch=1 n=g#6 v=0
49320 On ch=1 n=a#6 v=125
49320 On ch=1 n=g6 v=125
49440 On ch=1 n=g6 v=0
49440 On ch=1 n=a#6 v=0
49560 On ch=1 n=g6 v=125
49560 On ch=1 n=d#6 v=125
49680 On ch=1 n=d#6 v=0
49680 On ch=1 n=g6 v=0
49800 On ch=1 n=f6 v=125
49800 On ch=1 n=d6 v=125
49920 On ch=1 n=d6 v=0
49920 On ch=1 n=f6 v=0
50040 On ch=1 n=c6 v=125
50040 On ch=1 n=g#5 v=125
50160 On ch=1 n=g#5 v=0
50160 On ch=1 n=c6 v=0
50280 On ch=1 n=c6 v=125
50280 On ch=1 n=g#5 v=125
50400 On ch=1 n=g#5 v=0
50400 On ch=1 n=c6 v=0
50520 On ch=1 n=c6 v=125
50520 On ch=1 n=g#5 v=125
50640 On ch=1 n=g#5 v=0
50640 On ch=1 n=c6 v=0
50760 On ch=1 n=c6 v=125
50760 On ch=1 n=g#5 v=125
50880 On ch=1 n=g#5 v=0
50880 On ch=1 n=c6 v=0
51000 On ch=1 n=c6 v=115
51000 On ch=1 n=g#5 v=115
51120 On ch=1 n=g#5 v=0
51120 On ch=1 n=c6 v=0
51240 On ch=1 n=a#5 v=115
51240 On ch=1 n=g5 v=115
51360 On ch=1 n=g5 v=0
51360 On ch=1 n=a#5 v=0
51480 On ch=1 n=g5 v=115
51480 On ch=1 n=d#5 v=115
51600 On ch=1 n=d#5 v=0
51600 On ch=1 n=g5 v=0
51720 On ch=1 n=d5 v=115
51720 On ch=1 n=f5 v=115
51840 On ch=1 n=f5 v=0
51840 On ch=1 n=d5 v=0
51840 On ch=1 n=g5 v=100
51840 On ch=1 n=d#5 v=100
51960 On ch=1 n=d#5 v=0
51960 On ch=1 n=g5 v=0
52080 On ch=1 n=g5 v=100
52080 On ch=1 n=d#5 v=100
52200 On ch=1 n=d#5 v=0
52200 On ch=1 n=g5 v=0
52320 On ch=1 n=d5 v=100
52320 On ch=1 n=f#5 v=100
52440 On ch=1 n=f#5 v=0
52440 On ch=1 n=d5 v=0
52560 On ch=1 n=d5 v=100
52560 On ch=1 n=f#5 v=100
52680 On ch=1 n=f#5 v=0
52680 On ch=1 n=d5 v=0
52800 On ch=1 n=g5 v=100
52800 On ch=1 n=d#5 v=100
52920 On ch=1 n=d#5 v=0
52920 On ch=1 n=g5 v=0
53040 On ch=1 n=d5 v=100
53040 On ch=1 n=f5 v=100
53160 On ch=1 n=f5 v=0
53160 On ch=1 n=d5 v=0
63360 On ch=1 n=a4 v=60
63360 On ch=1 n=c5 v=60
63480 On ch=1 n=c5 v=0
63480 On ch=1 n=a4 v=0
63600 On ch=1 n=e5 v=60
63600 On ch=1 n=g5 v=60
63720 On ch=1 n=g5 v=0
63720 On ch=1 n=e5 v=0
63840 On ch=1 n=a4 v=60
63840 On ch=1 n=c5 v=60
63960 On ch=1 n=c5 v=0
63960 On ch=1 n=a4 v=0
64080 On ch=1 n=e5 v=60
64080 On ch=1 n=g5 v=60
64200 On ch=1 n=g5 v=0
64200 On ch=1 n=e5 v=0
64320 On ch=1 n=a4 v=60
64320 On ch=1 n=c5 v=60
64440 On ch=1 n=c5 v=0
64440 On ch=1 n=a4 v=0
64560 On ch=1 n=e5 v=60
64560 On ch=1 n=g5 v=60
64680 On ch=1 n=g5 v=0
64680 On ch=1 n=e5 v=0
65040 On ch=1 n=e5 v=60
65040 On ch=1 n=g5 v=60
65160 On ch=1 n=g5 v=0
65160 On ch=1 n=e5 v=0
67200 On ch=1 n=g#4 v=60
67200 On ch=1 n=c5 v=60
67320 On ch=1 n=c5 v=0
67320 On ch=1 n=g#4 v=0
67440 On ch=1 n=g5 v=60
67440 On ch=1 n=d#5 v=60
67560 On ch=1 n=d#5 v=0
67560 On ch=1 n=g5 v=0
67680 On ch=1 n=g5 v=60
67680 On ch=1 n=d#5 v=60
67800 On ch=1 n=d#5 v=0
67800 On ch=1 n=g5 v=0
67920 On ch=1 n=d#5 v=60
67920 On ch=1 n=g5 v=60
68040 On ch=1 n=g5 v=0
68040 On ch=1 n=d#5 v=0
68160 On ch=1 n=g#4 v=60
68160 On ch=1 n=c5 v=60
68280 On ch=1 n=c5 v=0
68280 On ch=1 n=g#4 v=0
68400 On ch=1 n=g5 v=60
68400 On ch=1 n=d#5 v=60
68520 On ch=1 n=d#5 v=0
68520 On ch=1 n=g5 v=0
68640 On ch=1 n=g4 v=60
68640 On ch=1 n=a#4 v=60
68760 On ch=1 n=a#4 v=0
68760 On ch=1 n=g4 v=0
68880 On ch=1 n=d5 v=60
68880 On ch=1 n=f5 v=60
69000 On ch=1 n=f5 v=0
69000 On ch=1 n=d5 v=0
82560 On ch=1 n=a4 v=80
82560 On ch=1 n=c#5 v=80
82680 On ch=1 n=c#5 v=0
82680 On ch=1 n=a4 v=0
82800 On ch=1 n=g#5 v=90
82800 On ch=1 n=e5 v=90
82920 On ch=1 n=e5 v=0
82920 On ch=1 n=g#5 v=0
83040 On ch=1 n=c#7 v=100
83040 On ch=1 n=a6 v=100
83520 On ch=1 n=a6 v=0
83520 On ch=1 n=c#7 v=0
83520 On ch=1 n=a4 v=80
83520 On ch=1 n=c#5 v=80
83640 On ch=1 n=c#5 v=0
83640 On ch=1 n=a4 v=0
83760 On ch=1 n=g#5 v=90
83760 On ch=1 n=e5 v=90
83880 On ch=1 n=e5 v=0
83880 On ch=1 n=g#5 v=0
84000 On ch=1 n=c#7 v=70
84000 On ch=1 n=a6 v=70
85440 On ch=1 n=a6 v=0
85440 On ch=1 n=c#7 v=0
87360 On ch=1 n=a5 v=60
87360 On ch=1 n=f5 v=60
87840 On ch=1 n=f5 v=0
87840 On ch=1 n=a5 v=0
89280 On ch=1 n=a5 v=50
89280 On ch=1 n=f5 v=50
89760 On ch=1 n=f5 v=0
89760 On ch=1 n=a5 v=0
90240 On ch=1 n=a5 v=50
90240 On ch=1 n=f5 v=50
90720 On ch=1 n=f5 v=0
90720 On ch=1 n=a5 v=0
90720 On ch=1 n=d#6 v=50
90720 On ch=1 n=b5 v=50
91200 On ch=1 n=b5 v=0
91200 On ch=1 n=d#6 v=0
91200 On ch=1 n=c#6 v=50
91200 On ch=1 n=a5 v=50
91680 On ch=1 n=a5 v=0
91680 On ch=1 n=c#6 v=0
91680 On ch=1 n=g6 v=50
91680 On ch=1 n=d#6 v=50
92160 On ch=1 n=d#6 v=0
92160 On ch=1 n=g6 v=0
92160 On ch=1 n=f6 v=50
92160 On ch=1 n=c#6 v=50
93120 On ch=1 n=c#6 v=0
93120 On ch=1 n=f6 v=0
93120 On ch=1 n=g7 v=50
93120 On ch=1 n=d#7 v=50
94080 On ch=1 n=d#7 v=0
94080 On ch=1 n=g7 v=0
95040 On ch=1 n=c6 v=60
95040 On ch=1 n=g#5 v=60
95520 On ch=1 n=g#5 v=0
95520 On ch=1 n=c6 v=0
96960 On ch=1 n=c6 v=50
96960 On ch=1 n=g#5 v=50
97440 On ch=1 n=g#5 v=0
97440 On ch=1 n=c6 v=0
97440 On ch=1 n=d5 v=50
97440 On ch=1 n=f5 v=50
97920 On ch=1 n=f5 v=0
97920 On ch=1 n=d5 v=0
98880 On ch=1 n=c6 v=100
98880 On ch=1 n=g#5 v=100
99360 On ch=1 n=g#5 v=0
99360 On ch=1 n=c6 v=0
100800 On ch=1 n=c6 v=100
100800 On ch=1 n=g#5 v=100
101160 On ch=1 n=g#5 v=0
101160 On ch=1 n=c6 v=0
101280 On ch=1 n=f#6 v=110
101280 On ch=1 n=d6 v=110
101640 On ch=1 n=d6 v=0
101640 On ch=1 n=f#6 v=0
101760 On ch=1 n=c6 v=120
101760 On ch=1 n=g#5 v=120
102120 On ch=1 n=g#5 v=0
102120 On ch=1 n=c6 v=0
102240 On ch=1 n=f#6 v=80
102240 On ch=1 n=d6 v=80
102600 On ch=1 n=d6 v=0
102600 On ch=1 n=f#6 v=0
103560 On ch=1 n=g5 v=70
103560 On ch=1 n=d#5 v=70
104040 On ch=1 n=d#5 v=0
104040 On ch=1 n=g5 v=0
104160 On ch=1 n=d6 v=60
104160 On ch=1 n=a#5 v=60
104320 On ch=1 n=a#5 v=0
104320 On ch=1 n=d6 v=0
104320 On ch=1 n=a#5 v=60
104320 On ch=1 n=g5 v=60
104480 On ch=1 n=g5 v=0
104480 On ch=1 n=a#5 v=0
104480 On ch=1 n=d#5 v=60
104480 On ch=1 n=c5 v=60
104640 On ch=1 n=c5 v=0
104640 On ch=1 n=d#5 v=0
105960 On ch=1 n=a#6 v=60
105960 On ch=1 n=d7 v=60
106080 On ch=1 n=d7 v=0
106080 On ch=1 n=a#6 v=0
106080 On ch=1 n=g6 v=60
106080 On ch=1 n=d#6 v=60
106240 On ch=1 n=d#6 v=0
106240 On ch=1 n=g6 v=0
106240 On ch=1 n=d6 v=60
106240 On ch=1 n=a#5 v=60
106400 On ch=1 n=a#5 v=0
106400 On ch=1 n=d6 v=0
106400 On ch=1 n=g5 v=60
106400 On ch=1 n=d#5 v=60
107040 On ch=1 n=d#5 v=0
107040 On ch=1 n=g5 v=0
107040 On ch=1 n=d5 v=60
107040 On ch=1 n=f5 v=60
107400 On ch=1 n=f5 v=0
107400 On ch=1 n=d5 v=0
107400 On ch=1 n=c5 v=60
107400 On ch=1 n=d#5 v=60
108000 On ch=1 n=d#5 v=0
108000 On ch=1 n=c5 v=0
108000 On ch=1 n=a#4 v=60
108000 On ch=1 n=d5 v=60
108480 On ch=1 n=d5 v=0
108480 On ch=1 n=a#4 v=0
121440 On ch=1 n=a4 v=70
121440 On ch=1 n=c5 v=70
121560 On ch=1 n=c5 v=0
121560 On ch=1 n=a4 v=0
121680 On ch=1 n=e5 v=60
121680 On ch=1 n=g5 v=60
121800 On ch=1 n=g5 v=0
121800 On ch=1 n=e5 v=0
121920 On ch=1 n=a4 v=60
121920 On ch=1 n=c5 v=60
122040 On ch=1 n=c5 v=0
122040 On ch=1 n=a4 v=0
122160 On ch=1 n=e5 v=60
122160 On ch=1 n=g5 v=60
122280 On ch=1 n=g5 v=0
122280 On ch=1 n=e5 v=0
122400 On ch=1 n=a4 v=60
122400 On ch=1 n=c5 v=60
122520 On ch=1 n=c5 v=0
122520 On ch=1 n=a4 v=0
122640 On ch=1 n=e5 v=60
122640 On ch=1 n=g5 v=60
122760 On ch=1 n=g5 v=0
122760 On ch=1 n=e5 v=0
123120 On ch=1 n=e5 v=60
123120 On ch=1 n=g5 v=60
123240 On ch=1 n=g5 v=0
123240 On ch=1 n=e5 v=0
125280 On ch=1 n=a4 v=60
125280 On ch=1 n=c5 v=60
125400 On ch=1 n=c5 v=0
125400 On ch=1 n=a4 v=0
125520 On ch=1 n=e5 v=60
125520 On ch=1 n=g5 v=60
125640 On ch=1 n=g5 v=0
125640 On ch=1 n=e5 v=0
125760 On ch=1 n=a4 v=60
125760 On ch=1 n=c5 v=60
125880 On ch=1 n=c5 v=0
125880 On ch=1 n=a4 v=0
126000 On ch=1 n=e5 v=60
126000 On ch=1 n=g5 v=60
126120 On ch=1 n=g5 v=0
126120 On ch=1 n=e5 v=0
126240 On ch=1 n=a4 v=60
126240 On ch=1 n=c5 v=60
126360 On ch=1 n=c5 v=0
126360 On ch=1 n=a4 v=0
126480 On ch=1 n=e5 v=60
126480 On ch=1 n=g5 v=60
126600 On ch=1 n=g5 v=0
126600 On ch=1 n=e5 v=0
126960 On ch=1 n=e5 v=60
126960 On ch=1 n=g5 v=60
127080 On ch=1 n=g5 v=0
127080 On ch=1 n=e5 v=0
127200 On ch=1 n=c5 v=60
127200 On ch=1 n=e5 v=60
127320 On ch=1 n=e5 v=0
127320 On ch=1 n=c5 v=0
127440 On ch=1 n=b5 v=60
127440 On ch=1 n=g5 v=60
127560 On ch=1 n=g5 v=0
127560 On ch=1 n=b5 v=0
127680 On ch=1 n=c5 v=60
127680 On ch=1 n=e5 v=60
127800 On ch=1 n=e5 v=0
127800 On ch=1 n=c5 v=0
127920 On ch=1 n=b5 v=60
127920 On ch=1 n=g5 v=60
128040 On ch=1 n=g5 v=0
128040 On ch=1 n=b5 v=0
128160 On ch=1 n=b4 v=60
128160 On ch=1 n=d5 v=60
128280 On ch=1 n=d5 v=0
128280 On ch=1 n=b4 v=0
128400 On ch=1 n=b5 v=60
128400 On ch=1 n=g5 v=60
128520 On ch=1 n=g5 v=0
128520 On ch=1 n=b5 v=0
128640 On ch=1 n=b4 v=60
128640 On ch=1 n=d5 v=60
128760 On ch=1 n=d5 v=0
128760 On ch=1 n=b4 v=0
128880 On ch=1 n=b5 v=60
128880 On ch=1 n=g5 v=60
129000 On ch=1 n=g5 v=0
129000 On ch=1 n=b5 v=0
129120 On ch=1 n=g5 v=80
129120 On ch=1 n=e5 v=80
129240 On ch=1 n=e5 v=0
129240 On ch=1 n=g5 v=0
129360 On ch=1 n=b5 v=80
129360 On ch=1 n=d6 v=80
129480 On ch=1 n=d6 v=0
129480 On ch=1 n=b5 v=0
129600 On ch=1 n=d6 v=90
129600 On ch=1 n=b5 v=90
129720 On ch=1 n=b5 v=0
129720 On ch=1 n=d6 v=0
129840 On ch=1 n=b5 v=90
129840 On ch=1 n=d6 v=90
129960 On ch=1 n=d6 v=0
129960 On ch=1 n=b5 v=0
130080 On ch=1 n=g#5 v=100
130080 On ch=1 n=f5 v=100
130200 On ch=1 n=f5 v=0
130200 On ch=1 n=g#5 v=0
130320 On ch=1 n=d6 v=100
130320 On ch=1 n=b5 v=100
130440 On ch=1 n=b5 v=0
130440 On ch=1 n=d6 v=0
130560 On ch=1 n=e5 v=90
130560 On ch=1 n=g5 v=90
130680 On ch=1 n=g5 v=0
130680 On ch=1 n=e5 v=0
130800 On ch=1 n=b5 v=90
130800 On ch=1 n=d6 v=90
130920 On ch=1 n=d6 v=0
130920 On ch=1 n=b5 v=0
131040 On ch=1 n=f#5 v=80
131040 On ch=1 n=d#5 v=80
131160 On ch=1 n=d#5 v=0
131160 On ch=1 n=f#5 v=0
131280 On ch=1 n=d6 v=80
131280 On ch=1 n=b5 v=80
131400 On ch=1 n=b5 v=0
131400 On ch=1 n=d6 v=0
131520 On ch=1 n=f#6 v=80
131520 On ch=1 n=d#6 v=80
131640 On ch=1 n=d#6 v=0
131640 On ch=1 n=f#6 v=0
131760 On ch=1 n=b5 v=80
131760 On ch=1 n=d6 v=80
131880 On ch=1 n=d6 v=0
131880 On ch=1 n=b5 v=0
132000 On ch=1 n=f#5 v=80
132000 On ch=1 n=d#5 v=80
132120 On ch=1 n=d#5 v=0
132120 On ch=1 n=f#5 v=0
132240 On ch=1 n=d6 v=80
132240 On ch=1 n=b5 v=80
132360 On ch=1 n=b5 v=0
132360 On ch=1 n=d6 v=0
132480 On ch=1 n=f#6 v=80
132480 On ch=1 n=d#6 v=80
132600 On ch=1 n=d#6 v=0
132600 On ch=1 n=f#6 v=0
132720 On ch=1 n=b5 v=80
132720 On ch=1 n=d6 v=80
132840 On ch=1 n=d6 v=0
132840 On ch=1 n=b5 v=0
132960 On ch=1 n=d5 v=80
132960 On ch=1 n=f#5 v=80
133080 On ch=1 n=f#5 v=0
133080 On ch=1 n=d5 v=0
133200 On ch=1 n=c6 v=80
133200 On ch=1 n=a5 v=80
133320 On ch=1 n=a5 v=0
133320 On ch=1 n=c6 v=0
133440 On ch=1 n=c6 v=90
133440 On ch=1 n=a5 v=90
133560 On ch=1 n=a5 v=0
133560 On ch=1 n=c6 v=0
133680 On ch=1 n=c6 v=90
133680 On ch=1 n=a5 v=90
133800 On ch=1 n=a5 v=0
133800 On ch=1 n=c6 v=0
133920 On ch=1 n=g5 v=100
133920 On ch=1 n=e5 v=100
134040 On ch=1 n=e5 v=0
134040 On ch=1 n=g5 v=0
134160 On ch=1 n=c6 v=100
134160 On ch=1 n=a5 v=100
134280 On ch=1 n=a5 v=0
134280 On ch=1 n=c6 v=0
134400 On ch=1 n=d#5 v=90
134400 On ch=1 n=f#5 v=90
134520 On ch=1 n=f#5 v=0
134520 On ch=1 n=d#5 v=0
134640 On ch=1 n=a5 v=90
134640 On ch=1 n=c6 v=90
134760 On ch=1 n=c6 v=0
134760 On ch=1 n=a5 v=0
134880 On ch=1 n=d5 v=80
134880 On ch=1 n=f5 v=80
135000 On ch=1 n=f5 v=0
135000 On ch=1 n=d5 v=0
135120 On ch=1 n=a5 v=80
135120 On ch=1 n=c6 v=80
135240 On ch=1 n=c6 v=0
135240 On ch=1 n=a5 v=0
135360 On ch=1 n=f6 v=80
135360 On ch=1 n=d6 v=80
135480 On ch=1 n=d6 v=0
135480 On ch=1 n=f6 v=0
135600 On ch=1 n=c6 v=80
135600 On ch=1 n=a5 v=80
135720 On ch=1 n=a5 v=0
135720 On ch=1 n=c6 v=0
135840 On ch=1 n=c5 v=80
135840 On ch=1 n=e5 v=80
135960 On ch=1 n=e5 v=0
135960 On ch=1 n=c5 v=0
136080 On ch=1 n=b5 v=80
136080 On ch=1 n=g5 v=80
136200 On ch=1 n=g5 v=0
136200 On ch=1 n=b5 v=0
136320 On ch=1 n=c6 v=80
136320 On ch=1 n=e6 v=80
136440 On ch=1 n=e6 v=0
136440 On ch=1 n=c6 v=0
136560 On ch=1 n=g5 v=80
136560 On ch=1 n=b5 v=80
136680 On ch=1 n=b5 v=0
136680 On ch=1 n=g5 v=0
136800 On ch=1 n=b4 v=80
136800 On ch=1 n=d5 v=80
136920 On ch=1 n=d5 v=0
136920 On ch=1 n=b4 v=0
137040 On ch=1 n=a5 v=80
137040 On ch=1 n=f5 v=80
137160 On ch=1 n=f5 v=0
137160 On ch=1 n=a5 v=0
137280 On ch=1 n=d6 v=80
137280 On ch=1 n=b5 v=80
137400 On ch=1 n=b5 v=0
137400 On ch=1 n=d6 v=0
137520 On ch=1 n=f5 v=80
137520 On ch=1 n=a5 v=80
137640 On ch=1 n=a5 v=0
137640 On ch=1 n=f5 v=0
137760 On ch=1 n=a4 v=80
137760 On ch=1 n=c5 v=80
137880 On ch=1 n=c5 v=0
137880 On ch=1 n=a4 v=0
138000 On ch=1 n=g5 v=80
138000 On ch=1 n=e5 v=80
138120 On ch=1 n=e5 v=0
138120 On ch=1 n=g5 v=0
138240 On ch=1 n=c6 v=80
138240 On ch=1 n=a5 v=80
138360 On ch=1 n=a5 v=0
138360 On ch=1 n=c6 v=0
138480 On ch=1 n=e5 v=80
138480 On ch=1 n=g5 v=80
138600 On ch=1 n=g5 v=0
138600 On ch=1 n=e5 v=0
138960 On ch=1 n=e5 v=80
138960 On ch=1 n=g5 v=80
139080 On ch=1 n=g5 v=0
139080 On ch=1 n=e5 v=0
139200 On ch=1 n=b5 v=85
139200 On ch=1 n=g5 v=85
139320 On ch=1 n=g5 v=0
139320 On ch=1 n=b5 v=0
139440 On ch=1 n=e5 v=85
139440 On ch=1 n=g5 v=85
139560 On ch=1 n=g5 v=0
139560 On ch=1 n=e5 v=0
139920 On ch=1 n=e5 v=90
139920 On ch=1 n=g5 v=90
140040 On ch=1 n=g5 v=0
140040 On ch=1 n=e5 v=0
140160 On ch=1 n=b5 v=95
140160 On ch=1 n=g5 v=95
140280 On ch=1 n=g5 v=0
140280 On ch=1 n=b5 v=0
140400 On ch=1 n=e5 v=95
140400 On ch=1 n=g5 v=95
140520 On ch=1 n=g5 v=0
140520 On ch=1 n=e5 v=0
140880 On ch=1 n=d5 v=100
140880 On ch=1 n=f5 v=100
141000 On ch=1 n=f5 v=0
141000 On ch=1 n=d5 v=0
141120 On ch=1 n=a#5 v=110
141120 On ch=1 n=g5 v=110
141240 On ch=1 n=g5 v=0
141240 On ch=1 n=a#5 v=0
141360 On ch=1 n=d5 v=110
141360 On ch=1 n=f5 v=110
141480 On ch=1 n=f5 v=0
141480 On ch=1 n=d5 v=0
141840 On ch=1 n=d5 v=110
141840 On ch=1 n=f5 v=110
141960 On ch=1 n=f5 v=0
141960 On ch=1 n=d5 v=0
142080 On ch=1 n=a#5 v=110
142080 On ch=1 n=g5 v=110
142200 On ch=1 n=g5 v=0
142200 On ch=1 n=a#5 v=0
142320 On ch=1 n=d5 v=110
142320 On ch=1 n=f5 v=110
142440 On ch=1 n=f5 v=0
142440 On ch=1 n=d5 v=0
142560 On ch=1 n=b4 v=110
142560 On ch=1 n=d#5 v=110
142680 On ch=1 n=d#5 v=0
142680 On ch=1 n=b4 v=0
142800 On ch=1 n=a#4 v=110
142800 On ch=1 n=d5 v=110
142920 On ch=1 n=d5 v=0
142920 On ch=1 n=a#4 v=0
143040 On ch=1 n=a4 v=110
143040 On ch=1 n=c#5 v=110
143160 On ch=1 n=c#5 v=0
143160 On ch=1 n=a4 v=0
143280 On ch=1 n=g#4 v=110
143280 On ch=1 n=c5 v=110
143400 On ch=1 n=c5 v=0
143400 On ch=1 n=g#4 v=0
156960 On ch=1 n=c5 v=30
156960 On ch=1 n=e5 v=30
158400 On ch=1 n=e5 v=0
158400 On ch=1 n=c5 v=0
158400 Meta TrkEnd
TrkEnd
MTrk
0 SeqSpec 43 00 01 00
0 Meta TrkName "Upper Bass"
0 Meta 0x21 00
3840 On ch=1 n=c5 v=80
3840 On ch=1 n=g#4 v=80
4320 On ch=1 n=g#4 v=0
4320 On ch=1 n=c5 v=0
4800 On ch=1 n=c#4 v=80
4800 On ch=1 n=f4 v=80
5280 On ch=1 n=f4 v=0
5280 On ch=1 n=c#4 v=0
6240 On ch=1 n=c#4 v=80
6240 On ch=1 n=f4 v=80
6480 On ch=1 n=f4 v=0
6480 On ch=1 n=c#4 v=0
6720 On ch=1 n=e4 v=80
6720 On ch=1 n=g#4 v=80
7200 On ch=1 n=g#4 v=0
7200 On ch=1 n=e4 v=0
9120 On ch=1 n=c#4 v=80
9120 On ch=1 n=f4 v=80
9360 On ch=1 n=f4 v=0
9360 On ch=1 n=c#4 v=0
9720 On ch=1 n=d5 v=60
9720 On ch=1 n=b4 v=60
9840 On ch=1 n=b4 v=0
9840 On ch=1 n=d5 v=0
9960 On ch=1 n=b4 v=60
9960 On ch=1 n=d5 v=60
10080 On ch=1 n=d5 v=0
10080 On ch=1 n=b4 v=0
10200 On ch=1 n=d5 v=60
10200 On ch=1 n=b4 v=60
10320 On ch=1 n=b4 v=0
10320 On ch=1 n=d5 v=0
10440 On ch=1 n=d5 v=60
10440 On ch=1 n=b4 v=60
10560 On ch=1 n=b4 v=0
10560 On ch=1 n=d5 v=0
10680 On ch=1 n=d5 v=60
10680 On ch=1 n=b4 v=60
10800 On ch=1 n=b4 v=0
10800 On ch=1 n=d5 v=0
10920 On ch=1 n=d5 v=60
10920 On ch=1 n=b4 v=60
11040 On ch=1 n=b4 v=0
11040 On ch=1 n=d5 v=0
11160 On ch=1 n=d5 v=60
11160 On ch=1 n=b4 v=60
11280 On ch=1 n=b4 v=0
11280 On ch=1 n=d5 v=0
11400 On ch=1 n=b4 v=60
11400 On ch=1 n=d5 v=60
11520 On ch=1 n=d5 v=0
11520 On ch=1 n=b4 v=0
12960 On ch=1 n=b4 v=60
12960 On ch=1 n=g4 v=60
13080 On ch=1 n=g4 v=0
13080 On ch=1 n=b4 v=0
13560 On ch=1 n=d5 v=60
13560 On ch=1 n=b4 v=60
13680 On ch=1 n=b4 v=0
13680 On ch=1 n=d5 v=0
13800 On ch=1 n=b4 v=60
13800 On ch=1 n=d5 v=60
13920 On ch=1 n=d5 v=0
13920 On ch=1 n=b4 v=0
14040 On ch=1 n=d5 v=60
14040 On ch=1 n=b4 v=60
14160 On ch=1 n=b4 v=0
14160 On ch=1 n=d5 v=0
14280 On ch=1 n=d5 v=60
14280 On ch=1 n=b4 v=60
14400 On ch=1 n=b4 v=0
14400 On ch=1 n=d5 v=0
14520 On ch=1 n=d5 v=60
14520 On ch=1 n=b4 v=60
14640 On ch=1 n=b4 v=0
14640 On ch=1 n=d5 v=0
14760 On ch=1 n=d5 v=60
14760 On ch=1 n=b4 v=60
14880 On ch=1 n=b4 v=0
14880 On ch=1 n=d5 v=0
15000 On ch=1 n=d5 v=60
15000 On ch=1 n=b4 v=60
15120 On ch=1 n=b4 v=0
15120 On ch=1 n=d5 v=0
15240 On ch=1 n=b4 v=60
15240 On ch=1 n=d5 v=60
15360 On ch=1 n=d5 v=0
15360 On ch=1 n=b4 v=0
16800 On ch=1 n=b4 v=60
16800 On ch=1 n=g4 v=60
16920 On ch=1 n=g4 v=0
16920 On ch=1 n=b4 v=0
29760 On ch=1 n=b4 v=100
29760 On ch=1 n=g4 v=100
29880 On ch=1 n=g4 v=0
29880 On ch=1 n=b4 v=0
30720 On ch=1 n=b4 v=100
30720 On ch=1 n=g4 v=100
30840 On ch=1 n=g4 v=0
30840 On ch=1 n=b4 v=0
51960 On ch=1 n=c5 v=100
51960 On ch=1 n=g#4 v=100
52080 On ch=1 n=g#4 v=0
52080 On ch=1 n=c5 v=0
52200 On ch=1 n=c5 v=100
52200 On ch=1 n=g#4 v=100
52320 On ch=1 n=g#4 v=0
52320 On ch=1 n=c5 v=0
52440 On ch=1 n=c5 v=100
52440 On ch=1 n=g#4 v=100
52560 On ch=1 n=g#4 v=0
52560 On ch=1 n=c5 v=0
52680 On ch=1 n=c5 v=100
52680 On ch=1 n=g#4 v=100
52800 On ch=1 n=g#4 v=0
52800 On ch=1 n=c5 v=0
52920 On ch=1 n=c5 v=100
52920 On ch=1 n=g#4 v=100
53040 On ch=1 n=g#4 v=0
53040 On ch=1 n=c5 v=0
53160 On ch=1 n=a#4 v=100
53160 On ch=1 n=g4 v=100
53280 On ch=1 n=g4 v=0
53280 On ch=1 n=a#4 v=0
53280 On ch=1 n=d5 v=100
53280 On ch=1 n=a#4 v=100
53400 On ch=1 n=a#4 v=0
53400 On ch=1 n=d5 v=0
53520 On ch=1 n=c5 v=100
53520 On ch=1 n=g#4 v=100
53640 On ch=1 n=g#4 v=0
53640 On ch=1 n=c5 v=0
53760 On ch=1 n=d#4 v=120
53760 On ch=1 n=g4 v=120
53880 On ch=1 n=g4 v=0
53880 On ch=1 n=d#4 v=0
54000 On ch=1 n=d#4 v=120
54000 On ch=1 n=g4 v=120
54120 On ch=1 n=g4 v=0
54120 On ch=1 n=d#4 v=0
54240 On ch=1 n=d#4 v=125
54240 On ch=1 n=g4 v=125
54360 On ch=1 n=g4 v=0
54360 On ch=1 n=d#4 v=0
54480 On ch=1 n=g4 v=125
54480 On ch=1 n=d#4 v=125
54600 On ch=1 n=d#4 v=0
54600 On ch=1 n=g4 v=0
54720 On ch=1 n=c3 v=80
54720 On ch=1 n=g#2 v=80
54840 On ch=1 n=g#2 v=0
54840 On ch=1 n=c3 v=0
54960 On ch=1 n=g#2 v=80
54960 On ch=1 n=c3 v=80
55080 On ch=1 n=c3 v=0
55080 On ch=1 n=g#2 v=0
55200 On ch=1 n=c3 v=60
55200 On ch=1 n=g#2 v=60
55320 On ch=1 n=g#2 v=0
55320 On ch=1 n=c3 v=0
55440 On ch=1 n=g#2 v=60
55440 On ch=1 n=c3 v=60
55560 On ch=1 n=c3 v=0
55560 On ch=1 n=g#2 v=0
55680 On ch=1 n=d#4 v=120
55680 On ch=1 n=g4 v=120
55800 On ch=1 n=g4 v=0
55800 On ch=1 n=d#4 v=0
55920 On ch=1 n=d#4 v=120
55920 On ch=1 n=g4 v=120
56040 On ch=1 n=g4 v=0
56040 On ch=1 n=d#4 v=0
56160 On ch=1 n=d#4 v=125
56160 On ch=1 n=g4 v=125
56280 On ch=1 n=g4 v=0
56280 On ch=1 n=d#4 v=0
56400 On ch=1 n=d#4 v=125
56400 On ch=1 n=g4 v=125
56520 On ch=1 n=g4 v=0
56520 On ch=1 n=d#4 v=0
56640 On ch=1 n=a2 v=80
56640 On ch=1 n=c3 v=80
56760 On ch=1 n=c3 v=0
56760 On ch=1 n=a2 v=0
56880 On ch=1 n=c3 v=80
56880 On ch=1 n=a2 v=80
57000 On ch=1 n=a2 v=0
57000 On ch=1 n=c3 v=0
57120 On ch=1 n=a2 v=60
57120 On ch=1 n=c3 v=60
57240 On ch=1 n=c3 v=0
57240 On ch=1 n=a2 v=0
57360 On ch=1 n=a2 v=60
57360 On ch=1 n=c3 v=60
57480 On ch=1 n=c3 v=0
57480 On ch=1 n=a2 v=0
57600 On ch=1 n=d#4 v=70
57600 On ch=1 n=g4 v=70
57720 On ch=1 n=g4 v=0
57720 On ch=1 n=d#4 v=0
57840 On ch=1 n=d#4 v=70
57840 On ch=1 n=g4 v=70
57960 On ch=1 n=g4 v=0
57960 On ch=1 n=d#4 v=0
58080 On ch=1 n=d#4 v=70
58080 On ch=1 n=g4 v=70
58200 On ch=1 n=g4 v=0
58200 On ch=1 n=d#4 v=0
58320 On ch=1 n=d#4 v=70
58320 On ch=1 n=g4 v=70
58440 On ch=1 n=g4 v=0
58440 On ch=1 n=d#4 v=0
58560 On ch=1 n=d#4 v=70
58560 On ch=1 n=g4 v=70
58680 On ch=1 n=g4 v=0
58680 On ch=1 n=d#4 v=0
58800 On ch=1 n=d#4 v=70
58800 On ch=1 n=g4 v=70
58920 On ch=1 n=g4 v=0
58920 On ch=1 n=d#4 v=0
59040 On ch=1 n=d#4 v=70
59040 On ch=1 n=g4 v=70
59160 On ch=1 n=g4 v=0
59160 On ch=1 n=d#4 v=0
59280 On ch=1 n=d#4 v=70
59280 On ch=1 n=g4 v=70
59400 On ch=1 n=g4 v=0
59400 On ch=1 n=d#4 v=0
59520 On ch=1 n=g4 v=65
59520 On ch=1 n=e4 v=65
59640 On ch=1 n=e4 v=0
59640 On ch=1 n=g4 v=0
59760 On ch=1 n=e4 v=65
59760 On ch=1 n=g4 v=65
59880 On ch=1 n=g4 v=0
59880 On ch=1 n=e4 v=0
60000 On ch=1 n=e4 v=65
60000 On ch=1 n=g4 v=65
60120 On ch=1 n=g4 v=0
60120 On ch=1 n=e4 v=0
60240 On ch=1 n=e4 v=65
60240 On ch=1 n=g4 v=65
60360 On ch=1 n=g4 v=0
60360 On ch=1 n=e4 v=0
60480 On ch=1 n=g4 v=65
60480 On ch=1 n=e4 v=65
60600 On ch=1 n=e4 v=0
60600 On ch=1 n=g4 v=0
60720 On ch=1 n=e4 v=65
60720 On ch=1 n=g4 v=65
60840 On ch=1 n=g4 v=0
60840 On ch=1 n=e4 v=0
60960 On ch=1 n=e4 v=65
60960 On ch=1 n=g4 v=65
61080 On ch=1 n=g4 v=0
61080 On ch=1 n=e4 v=0
61200 On ch=1 n=e4 v=65
61200 On ch=1 n=g4 v=65
61320 On ch=1 n=g4 v=0
61320 On ch=1 n=e4 v=0
61560 On ch=1 n=d5 v=60
61560 On ch=1 n=b4 v=60
61680 On ch=1 n=b4 v=0
61680 On ch=1 n=d5 v=0
61800 On ch=1 n=b4 v=60
61800 On ch=1 n=d5 v=60
61920 On ch=1 n=d5 v=0
61920 On ch=1 n=b4 v=0
62040 On ch=1 n=d5 v=60
62040 On ch=1 n=b4 v=60
62160 On ch=1 n=b4 v=0
62160 On ch=1 n=d5 v=0
62280 On ch=1 n=d5 v=60
62280 On ch=1 n=b4 v=60
62400 On ch=1 n=b4 v=0
62400 On ch=1 n=d5 v=0
62520 On ch=1 n=d5 v=60
62520 On ch=1 n=b4 v=60
62640 On ch=1 n=b4 v=0
62640 On ch=1 n=d5 v=0
62760 On ch=1 n=d5 v=60
62760 On ch=1 n=b4 v=60
62880 On ch=1 n=b4 v=0
62880 On ch=1 n=d5 v=0
63000 On ch=1 n=d5 v=60
63000 On ch=1 n=b4 v=60
63120 On ch=1 n=b4 v=0
63120 On ch=1 n=d5 v=0
63240 On ch=1 n=b4 v=60
63240 On ch=1 n=d5 v=60
63360 On ch=1 n=d5 v=0
63360 On ch=1 n=b4 v=0
64800 On ch=1 n=b4 v=60
64800 On ch=1 n=g4 v=60
64920 On ch=1 n=g4 v=0
64920 On ch=1 n=b4 v=0
65400 On ch=1 n=d5 v=60
65400 On ch=1 n=b4 v=60
65520 On ch=1 n=b4 v=0
65520 On ch=1 n=d5 v=0
65640 On ch=1 n=b4 v=60
65640 On ch=1 n=d5 v=60
65760 On ch=1 n=d5 v=0
65760 On ch=1 n=b4 v=0
65880 On ch=1 n=d5 v=60
65880 On ch=1 n=b4 v=60
66000 On ch=1 n=b4 v=0
66000 On ch=1 n=d5 v=0
66120 On ch=1 n=d5 v=60
66120 On ch=1 n=b4 v=60
66240 On ch=1 n=b4 v=0
66240 On ch=1 n=d5 v=0
66360 On ch=1 n=d5 v=60
66360 On ch=1 n=b4 v=60
66480 On ch=1 n=b4 v=0
66480 On ch=1 n=d5 v=0
66600 On ch=1 n=d5 v=60
66600 On ch=1 n=b4 v=60
66720 On ch=1 n=b4 v=0
66720 On ch=1 n=d5 v=0
66840 On ch=1 n=d5 v=60
66840 On ch=1 n=b4 v=60
66960 On ch=1 n=b4 v=0
66960 On ch=1 n=d5 v=0
67080 On ch=1 n=b4 v=60
67080 On ch=1 n=d5 v=60
67200 On ch=1 n=d5 v=0
67200 On ch=1 n=b4 v=0
69240 On ch=1 n=d5 v=60
69240 On ch=1 n=a#4 v=60
69360 On ch=1 n=a#4 v=0
69360 On ch=1 n=d5 v=0
69480 On ch=1 n=d5 v=60
69480 On ch=1 n=a#4 v=60
69600 On ch=1 n=a#4 v=0
69600 On ch=1 n=d5 v=0
69720 On ch=1 n=d5 v=60
69720 On ch=1 n=a#4 v=60
69840 On ch=1 n=a#4 v=0
69840 On ch=1 n=d5 v=0
69960 On ch=1 n=d5 v=60
69960 On ch=1 n=a#4 v=60
70080 On ch=1 n=a#4 v=0
70080 On ch=1 n=d5 v=0
70200 On ch=1 n=d5 v=60
70200 On ch=1 n=a#4 v=60
70320 On ch=1 n=a#4 v=0
70320 On ch=1 n=d5 v=0
70440 On ch=1 n=d5 v=60
70440 On ch=1 n=a#4 v=60
70560 On ch=1 n=a#4 v=0
70560 On ch=1 n=d5 v=0
70680 On ch=1 n=c5 v=60
70680 On ch=1 n=g#4 v=60
70800 On ch=1 n=g#4 v=0
70800 On ch=1 n=c5 v=0
70920 On ch=1 n=c5 v=60
70920 On ch=1 n=g#4 v=60
71040 On ch=1 n=g#4 v=0
71040 On ch=1 n=c5 v=0
71160 On ch=1 n=c5 v=50
71160 On ch=1 n=g#4 v=50
71280 On ch=1 n=g#4 v=0
71280 On ch=1 n=c5 v=0
71400 On ch=1 n=c5 v=50
71400 On ch=1 n=g#4 v=50
71520 On ch=1 n=g#4 v=0
71520 On ch=1 n=c5 v=0
71640 On ch=1 n=c5 v=50
71640 On ch=1 n=g#4 v=50
71760 On ch=1 n=g#4 v=0
71760 On ch=1 n=c5 v=0
71880 On ch=1 n=c5 v=50
71880 On ch=1 n=g#4 v=50
72000 On ch=1 n=g#4 v=0
72000 On ch=1 n=c5 v=0
72120 On ch=1 n=c5 v=50
72120 On ch=1 n=g#4 v=50
72240 On ch=1 n=g#4 v=0
72240 On ch=1 n=c5 v=0
72360 On ch=1 n=c5 v=50
72360 On ch=1 n=g#4 v=50
72480 On ch=1 n=g#4 v=0
72480 On ch=1 n=c5 v=0
72600 On ch=1 n=c5 v=50
72600 On ch=1 n=g#4 v=50
72720 On ch=1 n=g#4 v=0
72720 On ch=1 n=c5 v=0
72840 On ch=1 n=c5 v=50
72840 On ch=1 n=g#4 v=50
72960 On ch=1 n=g#4 v=0
72960 On ch=1 n=c5 v=0
73080 On ch=1 n=c5 v=50
73080 On ch=1 n=g#4 v=50
73200 On ch=1 n=g#4 v=0
73200 On ch=1 n=c5 v=0
73320 On ch=1 n=c5 v=50
73320 On ch=1 n=g#4 v=50
73440 On ch=1 n=g#4 v=0
73440 On ch=1 n=c5 v=0
73560 On ch=1 n=c5 v=50
73560 On ch=1 n=g#4 v=50
73680 On ch=1 n=g#4 v=0
73680 On ch=1 n=c5 v=0
73800 On ch=1 n=c5 v=50
73800 On ch=1 n=g#4 v=50
73920 On ch=1 n=g#4 v=0
73920 On ch=1 n=c5 v=0
74040 On ch=1 n=c5 v=50
74040 On ch=1 n=g#4 v=50
74160 On ch=1 n=g#4 v=0
74160 On ch=1 n=c5 v=0
74280 On ch=1 n=c5 v=50
74280 On ch=1 n=g#4 v=50
74400 On ch=1 n=g#4 v=0
74400 On ch=1 n=c5 v=0
74520 On ch=1 n=c5 v=50
74520 On ch=1 n=g#4 v=50
74640 On ch=1 n=g#4 v=0
74640 On ch=1 n=c5 v=0
74760 On ch=1 n=c5 v=50
74760 On ch=1 n=g#4 v=50
74880 On ch=1 n=g#4 v=0
74880 On ch=1 n=c5 v=0
75000 On ch=1 n=c5 v=70
75000 On ch=1 n=g#4 v=70
75120 On ch=1 n=g#4 v=0
75120 On ch=1 n=c5 v=0
75240 On ch=1 n=c5 v=70
75240 On ch=1 n=g#4 v=70
75360 On ch=1 n=g#4 v=0
75360 On ch=1 n=c5 v=0
75480 On ch=1 n=c5 v=70
75480 On ch=1 n=g#4 v=70
75600 On ch=1 n=g#4 v=0
75600 On ch=1 n=c5 v=0
75720 On ch=1 n=c5 v=70
75720 On ch=1 n=g#4 v=70
75840 On ch=1 n=g#4 v=0
75840 On ch=1 n=c5 v=0
75960 On ch=1 n=c5 v=90
75960 On ch=1 n=g#4 v=90
76080 On ch=1 n=g#4 v=0
76080 On ch=1 n=c5 v=0
76200 On ch=1 n=c5 v=90
76200 On ch=1 n=g#4 v=90
76320 On ch=1 n=g#4 v=0
76320 On ch=1 n=c5 v=0
76440 On ch=1 n=d5 v=90
76440 On ch=1 n=a#4 v=90
76560 On ch=1 n=a#4 v=0
76560 On ch=1 n=d5 v=0
76680 On ch=1 n=d5 v=90
76680 On ch=1 n=a#4 v=90
76800 On ch=1 n=a#4 v=0
76800 On ch=1 n=d5 v=0
76920 On ch=1 n=c#5 v=50
76920 On ch=1 n=a4 v=50
77040 On ch=1 n=a4 v=0
77040 On ch=1 n=c#5 v=0
77160 On ch=1 n=c#5 v=50
77160 On ch=1 n=a4 v=50
77280 On ch=1 n=a4 v=0
77280 On ch=1 n=c#5 v=0
77400 On ch=1 n=c#5 v=50
77400 On ch=1 n=a4 v=50
77520 On ch=1 n=a4 v=0
77520 On ch=1 n=c#5 v=0
77640 On ch=1 n=c#5 v=50
77640 On ch=1 n=a4 v=50
77760 On ch=1 n=a4 v=0
77760 On ch=1 n=c#5 v=0
77880 On ch=1 n=c#5 v=50
77880 On ch=1 n=a4 v=50
78000 On ch=1 n=a4 v=0
78000 On ch=1 n=c#5 v=0
78120 On ch=1 n=c#5 v=50
78120 On ch=1 n=a4 v=50
78240 On ch=1 n=a4 v=0
78240 On ch=1 n=c#5 v=0
78360 On ch=1 n=c#5 v=50
78360 On ch=1 n=a4 v=50
78480 On ch=1 n=a4 v=0
78480 On ch=1 n=c#5 v=0
78600 On ch=1 n=c#5 v=50
78600 On ch=1 n=a4 v=50
78720 On ch=1 n=a4 v=0
78720 On ch=1 n=c#5 v=0
78840 On ch=1 n=c#5 v=50
78840 On ch=1 n=a4 v=50
78960 On ch=1 n=a4 v=0
78960 On ch=1 n=c#5 v=0
79080 On ch=1 n=c#5 v=50
79080 On ch=1 n=a4 v=50
79200 On ch=1 n=a4 v=0
79200 On ch=1 n=c#5 v=0
79320 On ch=1 n=c#5 v=50
79320 On ch=1 n=a4 v=50
79440 On ch=1 n=a4 v=0
79440 On ch=1 n=c#5 v=0
79560 On ch=1 n=c#5 v=50
79560 On ch=1 n=a4 v=50
79680 On ch=1 n=a4 v=0
79680 On ch=1 n=c#5 v=0
79800 On ch=1 n=c#5 v=50
79800 On ch=1 n=a4 v=50
79920 On ch=1 n=a4 v=0
79920 On ch=1 n=c#5 v=0
80040 On ch=1 n=c#5 v=50
80040 On ch=1 n=a4 v=50
80160 On ch=1 n=a4 v=0
80160 On ch=1 n=c#5 v=0
80280 On ch=1 n=c#5 v=50
80280 On ch=1 n=a4 v=50
80400 On ch=1 n=a4 v=0
80400 On ch=1 n=c#5 v=0
80520 On ch=1 n=c#5 v=50
80520 On ch=1 n=a4 v=50
80640 On ch=1 n=a4 v=0
80640 On ch=1 n=c#5 v=0
80760 On ch=1 n=c#5 v=70
80760 On ch=1 n=a4 v=70
80880 On ch=1 n=a4 v=0
80880 On ch=1 n=c#5 v=0
81000 On ch=1 n=c#5 v=70
81000 On ch=1 n=a4 v=70
81120 On ch=1 n=a4 v=0
81120 On ch=1 n=c#5 v=0
81240 On ch=1 n=c#5 v=70
81240 On ch=1 n=a4 v=70
81360 On ch=1 n=a4 v=0
81360 On ch=1 n=c#5 v=0
81480 On ch=1 n=c#5 v=70
81480 On ch=1 n=a4 v=70
81600 On ch=1 n=a4 v=0
81600 On ch=1 n=c#5 v=0
81720 On ch=1 n=c#5 v=90
81720 On ch=1 n=a4 v=90
81840 On ch=1 n=a4 v=0
81840 On ch=1 n=c#5 v=0
81960 On ch=1 n=c#5 v=90
81960 On ch=1 n=a4 v=90
82080 On ch=1 n=a4 v=0
82080 On ch=1 n=c#5 v=0
82200 On ch=1 n=d#5 v=90
82200 On ch=1 n=b4 v=90
82320 On ch=1 n=b4 v=0
82320 On ch=1 n=d#5 v=0
82440 On ch=1 n=d#5 v=90
82440 On ch=1 n=b4 v=90
82560 On ch=1 n=b4 v=0
82560 On ch=1 n=d#5 v=0
87840 On ch=1 n=b4 v=60
87840 On ch=1 n=g4 v=60
88320 On ch=1 n=g4 v=0
88320 On ch=1 n=b4 v=0
89760 On ch=1 n=b4 v=50
89760 On ch=1 n=g4 v=50
90240 On ch=1 n=g4 v=0
90240 On ch=1 n=b4 v=0
95520 On ch=1 n=d5 v=60
95520 On ch=1 n=a#4 v=60
96000 On ch=1 n=a#4 v=0
96000 On ch=1 n=d5 v=0
102720 On ch=1 n=c5 v=80
102720 On ch=1 n=g#4 v=80
103560 On ch=1 n=g#4 v=0
103560 On ch=1 n=c5 v=0
103680 On ch=1 n=a#4 v=70
103680 On ch=1 n=g4 v=70
104040 On ch=1 n=g4 v=0
104040 On ch=1 n=a#4 v=0
104640 On ch=1 n=g#4 v=60
104640 On ch=1 n=c5 v=60
105480 On ch=1 n=c5 v=0
105480 On ch=1 n=g#4 v=0
105600 On ch=1 n=a#4 v=60
105600 On ch=1 n=g4 v=60
105960 On ch=1 n=g4 v=0
105960 On ch=1 n=a#4 v=0
107520 On ch=1 n=f4 v=60
107520 On ch=1 n=g#4 v=60
107880 On ch=1 n=g#4 v=0
107880 On ch=1 n=f4 v=0
108360 On ch=1 n=c5 v=60
108360 On ch=1 n=g#4 v=60
108480 On ch=1 n=f4 v=60
108480 On ch=1 n=d4 v=60
108840 On ch=1 n=d4 v=0
108840 On ch=1 n=f4 v=0
108840 On ch=1 n=g#4 v=0
108840 On ch=1 n=c5 v=0
108960 On ch=1 n=g#4 v=60
108960 On ch=1 n=f4 v=60
109320 On ch=1 n=f4 v=0
109320 On ch=1 n=g#4 v=0
109440 On ch=1 n=c5 v=70
109440 On ch=1 n=a4 v=70
109800 On ch=1 n=a4 v=0
109800 On ch=1 n=c5 v=0
109920 On ch=1 n=d#5 v=80
109920 On ch=1 n=c5 v=80
110760 On ch=1 n=c5 v=0
110760 On ch=1 n=d#5 v=0
110760 On ch=1 n=a#4 v=60
110760 On ch=1 n=f#4 v=60
111840 On ch=1 n=f#4 v=0
111840 On ch=1 n=a#4 v=0
111960 On ch=1 n=a#3 v=60
111960 On ch=1 n=f#3 v=60
112080 On ch=1 n=f#3 v=0
112080 On ch=1 n=a#3 v=0
112200 On ch=1 n=f#4 v=60
112200 On ch=1 n=d4 v=60
112320 On ch=1 n=d4 v=0
112320 On ch=1 n=f#4 v=0
112440 On ch=1 n=a#3 v=60
112440 On ch=1 n=f#3 v=60
112560 On ch=1 n=f#3 v=0
112560 On ch=1 n=a#3 v=0
112680 On ch=1 n=f#4 v=60
112680 On ch=1 n=d4 v=60
112800 On ch=1 n=d4 v=0
112800 On ch=1 n=f#4 v=0
112920 On ch=1 n=a#3 v=60
112920 On ch=1 n=f#3 v=60
113040 On ch=1 n=f#3 v=0
113040 On ch=1 n=a#3 v=0
113160 On ch=1 n=f#4 v=60
113160 On ch=1 n=d4 v=60
113280 On ch=1 n=d4 v=0
113280 On ch=1 n=f#4 v=0
113400 On ch=1 n=d4 v=60
113400 On ch=1 n=a#3 v=60
113520 On ch=1 n=a#3 v=0
113520 On ch=1 n=d4 v=0
113640 On ch=1 n=d4 v=60
113640 On ch=1 n=a#3 v=60
113760 On ch=1 n=a#3 v=0
113760 On ch=1 n=d4 v=0
113880 On ch=1 n=a#3 v=60
113880 On ch=1 n=f#3 v=60
114000 On ch=1 n=f#3 v=0
114000 On ch=1 n=a#3 v=0
114120 On ch=1 n=f#4 v=60
114120 On ch=1 n=d4 v=60
114240 On ch=1 n=d4 v=0
114240 On ch=1 n=f#4 v=0
114360 On ch=1 n=a#3 v=60
114360 On ch=1 n=f#3 v=60
114480 On ch=1 n=f#3 v=0
114480 On ch=1 n=a#3 v=0
114600 On ch=1 n=f#4 v=60
114600 On ch=1 n=d4 v=60
114720 On ch=1 n=d4 v=0
114720 On ch=1 n=f#4 v=0
114840 On ch=1 n=a#3 v=60
114840 On ch=1 n=f#3 v=60
114960 On ch=1 n=f#3 v=0
114960 On ch=1 n=a#3 v=0
115080 On ch=1 n=f#4 v=60
115080 On ch=1 n=d4 v=60
115200 On ch=1 n=d4 v=0
115200 On ch=1 n=f#4 v=0
115320 On ch=1 n=d4 v=60
115320 On ch=1 n=a#3 v=60
115440 On ch=1 n=a#3 v=0
115440 On ch=1 n=d4 v=0
115560 On ch=1 n=d4 v=60
115560 On ch=1 n=a#3 v=60
115680 On ch=1 n=a#3 v=0
115680 On ch=1 n=d4 v=0
115800 On ch=1 n=a#3 v=70
115800 On ch=1 n=f#3 v=70
115920 On ch=1 n=f#3 v=0
115920 On ch=1 n=a#3 v=0
116040 On ch=1 n=c#4 v=90
116040 On ch=1 n=a3 v=90
116160 On ch=1 n=a3 v=0
116160 On ch=1 n=c#4 v=0
116280 On ch=1 n=e4 v=110
116280 On ch=1 n=c4 v=110
116400 On ch=1 n=c4 v=0
116400 On ch=1 n=e4 v=0
116520 On ch=1 n=g4 v=125
116520 On ch=1 n=d#4 v=125
116880 On ch=1 n=d#4 v=0
116880 On ch=1 n=g4 v=0
117000 On ch=1 n=d#4 v=100
117000 On ch=1 n=b3 v=100
117120 On ch=1 n=b3 v=0
117120 On ch=1 n=d#4 v=0
117240 On ch=1 n=e4 v=80
117240 On ch=1 n=c4 v=80
117360 On ch=1 n=c4 v=0
117360 On ch=1 n=e4 v=0
117480 On ch=1 n=f4 v=60
117480 On ch=1 n=c#4 v=60
117600 On ch=1 n=c#4 v=0
117600 On ch=1 n=f4 v=0
117720 On ch=1 n=a#3 v=60
117720 On ch=1 n=f#3 v=60
117840 On ch=1 n=f#3 v=0
117840 On ch=1 n=a#3 v=0
117960 On ch=1 n=c#4 v=80
117960 On ch=1 n=a3 v=80
118080 On ch=1 n=a3 v=0
118080 On ch=1 n=c#4 v=0
118200 On ch=1 n=e4 v=100
118200 On ch=1 n=c4 v=100
118320 On ch=1 n=c4 v=0
118320 On ch=1 n=e4 v=0
118440 On ch=1 n=g4 v=120
118440 On ch=1 n=d#4 v=120
118800 On ch=1 n=d#4 v=0
118800 On ch=1 n=g4 v=0
118920 On ch=1 n=e4 v=100
118920 On ch=1 n=c4 v=100
119040 On ch=1 n=c4 v=0
119040 On ch=1 n=e4 v=0
119160 On ch=1 n=f4 v=80
119160 On ch=1 n=c#4 v=80
119280 On ch=1 n=c#4 v=0
119280 On ch=1 n=f4 v=0
119400 On ch=1 n=f#4 v=60
119400 On ch=1 n=d4 v=60
119520 On ch=1 n=d4 v=0
119520 On ch=1 n=f#4 v=0
119640 On ch=1 n=d5 v=60
119640 On ch=1 n=b4 v=60
119760 On ch=1 n=b4 v=0
119760 On ch=1 n=d5 v=0
119880 On ch=1 n=b4 v=60
119880 On ch=1 n=d5 v=60
120000 On ch=1 n=d5 v=0
120000 On ch=1 n=b4 v=0
120120 On ch=1 n=d5 v=60
120120 On ch=1 n=b4 v=60
120240 On ch=1 n=b4 v=0
120240 On ch=1 n=d5 v=0
120360 On ch=1 n=d5 v=60
120360 On ch=1 n=b4 v=60
120480 On ch=1 n=b4 v=0
120480 On ch=1 n=d5 v=0
120600 On ch=1 n=d5 v=60
120600 On ch=1 n=b4 v=60
120720 On ch=1 n=b4 v=0
120720 On ch=1 n=d5 v=0
120840 On ch=1 n=d5 v=60
120840 On ch=1 n=b4 v=60
120960 On ch=1 n=b4 v=0
120960 On ch=1 n=d5 v=0
121080 On ch=1 n=d5 v=60
121080 On ch=1 n=b4 v=60
121200 On ch=1 n=b4 v=0
121200 On ch=1 n=d5 v=0
121320 On ch=1 n=b4 v=60
121320 On ch=1 n=d5 v=60
121440 On ch=1 n=d5 v=0
121440 On ch=1 n=b4 v=0
122880 On ch=1 n=b4 v=60
122880 On ch=1 n=g4 v=60
123000 On ch=1 n=g4 v=0
123000 On ch=1 n=b4 v=0
123480 On ch=1 n=d5 v=60
123480 On ch=1 n=b4 v=60
123600 On ch=1 n=b4 v=0
123600 On ch=1 n=d5 v=0
123720 On ch=1 n=b4 v=60
123720 On ch=1 n=d5 v=60
123840 On ch=1 n=d5 v=0
123840 On ch=1 n=b4 v=0
123960 On ch=1 n=d5 v=60
123960 On ch=1 n=b4 v=60
124080 On ch=1 n=b4 v=0
124080 On ch=1 n=d5 v=0
124200 On ch=1 n=d5 v=60
124200 On ch=1 n=b4 v=60
124320 On ch=1 n=b4 v=0
124320 On ch=1 n=d5 v=0
124440 On ch=1 n=d5 v=60
124440 On ch=1 n=b4 v=60
124560 On ch=1 n=b4 v=0
124560 On ch=1 n=d5 v=0
124680 On ch=1 n=d5 v=60
124680 On ch=1 n=b4 v=60
124800 On ch=1 n=b4 v=0
124800 On ch=1 n=d5 v=0
124920 On ch=1 n=d5 v=60
124920 On ch=1 n=b4 v=60
125040 On ch=1 n=b4 v=0
125040 On ch=1 n=d5 v=0
125160 On ch=1 n=b4 v=60
125160 On ch=1 n=d5 v=60
125280 On ch=1 n=d5 v=0
125280 On ch=1 n=b4 v=0
126720 On ch=1 n=b4 v=60
126720 On ch=1 n=g4 v=60
126840 On ch=1 n=g4 v=0
126840 On ch=1 n=b4 v=0
138720 On ch=1 n=b4 v=80
138720 On ch=1 n=g4 v=80
138840 On ch=1 n=g4 v=0
138840 On ch=1 n=b4 v=0
139680 On ch=1 n=b4 v=90
139680 On ch=1 n=g4 v=90
139800 On ch=1 n=g4 v=0
139800 On ch=1 n=b4 v=0
140640 On ch=1 n=a#4 v=100
140640 On ch=1 n=g4 v=100
140760 On ch=1 n=g4 v=0
140760 On ch=1 n=a#4 v=0
141600 On ch=1 n=a#4 v=100
141600 On ch=1 n=g4 v=100
141720 On ch=1 n=g4 v=0
141720 On ch=1 n=a#4 v=0
143640 On ch=1 n=c5 v=100
143640 On ch=1 n=g#4 v=100
143760 On ch=1 n=g#4 v=0
143760 On ch=1 n=c5 v=0
143880 On ch=1 n=b4 v=100
143880 On ch=1 n=g4 v=100
144000 On ch=1 n=g4 v=0
144000 On ch=1 n=b4 v=0
144120 On ch=1 n=a#4 v=100
144120 On ch=1 n=f#4 v=100
144240 On ch=1 n=f#4 v=0
144240 On ch=1 n=a#4 v=0
144360 On ch=1 n=a4 v=100
144360 On ch=1 n=f4 v=100
144480 On ch=1 n=f4 v=0
144480 On ch=1 n=a4 v=0
145080 On ch=1 n=e4 v=90
145080 On ch=1 n=g#4 v=90
145200 On ch=1 n=g#4 v=0
145200 On ch=1 n=e4 v=0
145320 On ch=1 n=d#4 v=90
145320 On ch=1 n=g4 v=90
145440 On ch=1 n=g4 v=0
145440 On ch=1 n=d#4 v=0
145560 On ch=1 n=d4 v=80
145560 On ch=1 n=f#4 v=80
145680 On ch=1 n=f#4 v=0
145680 On ch=1 n=d4 v=0
145800 On ch=1 n=c#4 v=80
145800 On ch=1 n=f4 v=80
145920 On ch=1 n=f4 v=0
145920 On ch=1 n=c#4 v=0
146040 On ch=1 n=c4 v=80
146040 On ch=1 n=e4 v=80
146160 On ch=1 n=e4 v=0
146160 On ch=1 n=c4 v=0
146280 On ch=1 n=b3 v=80
146280 On ch=1 n=d#4 v=80
146400 On ch=1 n=d#4 v=0
146400 On ch=1 n=b3 v=0
146520 On ch=1 n=a#3 v=70
146520 On ch=1 n=d4 v=70
146640 On ch=1 n=d4 v=0
146640 On ch=1 n=a#3 v=0
146760 On ch=1 n=a3 v=70
146760 On ch=1 n=c#4 v=70
146880 On ch=1 n=c#4 v=0
146880 On ch=1 n=a3 v=0
147000 On ch=1 n=g#3 v=70
147000 On ch=1 n=c4 v=70
147120 On ch=1 n=c4 v=0
147120 On ch=1 n=g#3 v=0
147240 On ch=1 n=g3 v=70
147240 On ch=1 n=b3 v=70
147360 On ch=1 n=b3 v=0
147360 On ch=1 n=g3 v=0
147480 On ch=1 n=d#3 v=60
147480 On ch=1 n=f#3 v=60
147600 On ch=1 n=f#3 v=0
147600 On ch=1 n=d#3 v=0
147720 On ch=1 n=d#3 v=60
147720 On ch=1 n=f#3 v=60
147840 On ch=1 n=f#3 v=0
147840 On ch=1 n=d#3 v=0
147960 On ch=1 n=a#3 v=60
147960 On ch=1 n=f#3 v=60
148080 On ch=1 n=f#3 v=0
148080 On ch=1 n=a#3 v=0
148200 On ch=1 n=a#3 v=60
148200 On ch=1 n=f#3 v=60
148320 On ch=1 n=f#3 v=0
148320 On ch=1 n=a#3 v=0
148440 On ch=1 n=f#3 v=65
148440 On ch=1 n=a#3 v=65
148560 On ch=1 n=a#3 v=0
148560 On ch=1 n=f#3 v=0
148680 On ch=1 n=c#4 v=65
148680 On ch=1 n=a#3 v=65
148800 On ch=1 n=a#3 v=0
148800 On ch=1 n=c#4 v=0
148920 On ch=1 n=f#3 v=65
148920 On ch=1 n=a#3 v=65
149040 On ch=1 n=a#3 v=0
149040 On ch=1 n=f#3 v=0
149160 On ch=1 n=d#3 v=65
149160 On ch=1 n=f#3 v=65
149280 On ch=1 n=f#3 v=0
149280 On ch=1 n=d#3 v=0
149400 On ch=1 n=d#3 v=60
149400 On ch=1 n=f#3 v=60
149520 On ch=1 n=f#3 v=0
149520 On ch=1 n=d#3 v=0
149640 On ch=1 n=d#3 v=60
149640 On ch=1 n=f#3 v=60
149760 On ch=1 n=f#3 v=0
149760 On ch=1 n=d#3 v=0
149880 On ch=1 n=a#3 v=60
149880 On ch=1 n=f#3 v=60
150000 On ch=1 n=f#3 v=0
150000 On ch=1 n=a#3 v=0
150120 On ch=1 n=a#3 v=60
150120 On ch=1 n=f#3 v=60
150240 On ch=1 n=f#3 v=0
150240 On ch=1 n=a#3 v=0
150360 On ch=1 n=f#3 v=65
150360 On ch=1 n=a#3 v=65
150480 On ch=1 n=a#3 v=0
150480 On ch=1 n=f#3 v=0
150600 On ch=1 n=c#4 v=65
150600 On ch=1 n=a#3 v=65
150720 On ch=1 n=a#3 v=0
150720 On ch=1 n=c#4 v=0
150840 On ch=1 n=f#3 v=65
150840 On ch=1 n=a#3 v=65
150960 On ch=1 n=a#3 v=0
150960 On ch=1 n=f#3 v=0
151080 On ch=1 n=d#3 v=65
151080 On ch=1 n=f#3 v=65
151200 On ch=1 n=f#3 v=0
151200 On ch=1 n=d#3 v=0
151320 On ch=1 n=f#3 v=55
151320 On ch=1 n=a#3 v=55
151440 On ch=1 n=a#3 v=0
151440 On ch=1 n=f#3 v=0
151560 On ch=1 n=d#3 v=55
151560 On ch=1 n=f#3 v=55
151680 On ch=1 n=f#3 v=0
151680 On ch=1 n=d#3 v=0
151800 On ch=1 n=f#3 v=55
151800 On ch=1 n=a#3 v=55
151920 On ch=1 n=a#3 v=0
151920 On ch=1 n=f#3 v=0
152040 On ch=1 n=d#3 v=55
152040 On ch=1 n=f#3 v=55
152160 On ch=1 n=f#3 v=0
152160 On ch=1 n=d#3 v=0
152280 On ch=1 n=f#3 v=55
152280 On ch=1 n=a#3 v=55
152400 On ch=1 n=a#3 v=0
152400 On ch=1 n=f#3 v=0
152520 On ch=1 n=d#3 v=55
152520 On ch=1 n=f#3 v=55
152640 On ch=1 n=f#3 v=0
152640 On ch=1 n=d#3 v=0
152760 On ch=1 n=f#3 v=55
152760 On ch=1 n=a#3 v=55
152880 On ch=1 n=a#3 v=0
152880 On ch=1 n=f#3 v=0
153000 On ch=1 n=d#3 v=55
153000 On ch=1 n=f#3 v=55
153120 On ch=1 n=f#3 v=0
153120 On ch=1 n=d#3 v=0
153240 On ch=1 n=f#3 v=50
153240 On ch=1 n=a#3 v=50
153360 On ch=1 n=a#3 v=0
153360 On ch=1 n=f#3 v=0
153480 On ch=1 n=d#3 v=50
153480 On ch=1 n=f#3 v=50
153600 On ch=1 n=f#3 v=0
153600 On ch=1 n=d#3 v=0
153720 On ch=1 n=f#3 v=50
153720 On ch=1 n=a#3 v=50
153840 On ch=1 n=a#3 v=0
153840 On ch=1 n=f#3 v=0
153960 On ch=1 n=d#3 v=50
153960 On ch=1 n=f#3 v=50
154080 On ch=1 n=f#3 v=0
154080 On ch=1 n=d#3 v=0
154200 On ch=1 n=f#3 v=45
154200 On ch=1 n=a#3 v=45
154320 On ch=1 n=a#3 v=0
154320 On ch=1 n=f#3 v=0
154440 On ch=1 n=d#3 v=40
154440 On ch=1 n=f#3 v=40
154560 On ch=1 n=f#3 v=0
154560 On ch=1 n=d#3 v=0
154680 On ch=1 n=f#3 v=35
154680 On ch=1 n=a#3 v=35
154800 On ch=1 n=a#3 v=0
154800 On ch=1 n=f#3 v=0
154920 On ch=1 n=d#3 v=30
154920 On ch=1 n=f#3 v=30
155040 On ch=1 n=f#3 v=0
155040 On ch=1 n=d#3 v=0
156000 On ch=1 n=c3 v=30
156000 On ch=1 n=e3 v=30
156240 On ch=1 n=e3 v=0
156240 On ch=1 n=c3 v=0
156240 Meta TrkEnd
TrkEnd
MTrk
0 SeqSpec 43 00 01 00
0 Meta TrkName "Lower Bass"
0 Meta 0x21 00
4320 On ch=1 n=a#3 v=80
4320 On ch=1 n=d4 v=80
4800 On ch=1 n=d4 v=0
4800 On ch=1 n=a#3 v=0
5280 On ch=1 n=d#3 v=80
5280 On ch=1 n=g3 v=80
5760 On ch=1 n=g3 v=0
5760 On ch=1 n=d#3 v=0
6480 On ch=1 n=d#3 v=80
6480 On ch=1 n=g3 v=80
6720 On ch=1 n=g3 v=0
6720 On ch=1 n=d#3 v=0
7200 On ch=1 n=f#3 v=80
7200 On ch=1 n=a#3 v=80
8640 On ch=1 n=a#3 v=0
8640 On ch=1 n=f#3 v=0
9360 On ch=1 n=d#3 v=80
9360 On ch=1 n=g3 v=80
9600 On ch=1 n=g3 v=0
9600 On ch=1 n=d#3 v=0
9600 On ch=1 n=a4 v=60
9600 On ch=1 n=f4 v=60
9720 On ch=1 n=f4 v=0
9720 On ch=1 n=a4 v=0
9840 On ch=1 n=e5 v=60
9840 On ch=1 n=c5 v=60
9960 On ch=1 n=c5 v=0
9960 On ch=1 n=e5 v=0
10080 On ch=1 n=a4 v=60
10080 On ch=1 n=f4 v=60
10200 On ch=1 n=f4 v=0
10200 On ch=1 n=a4 v=0
10320 On ch=1 n=c5 v=60
10320 On ch=1 n=e5 v=60
10440 On ch=1 n=e5 v=0
10440 On ch=1 n=c5 v=0
10560 On ch=1 n=e4 v=60
10560 On ch=1 n=g#4 v=60
10680 On ch=1 n=g#4 v=0
10680 On ch=1 n=e4 v=0
10800 On ch=1 n=e5 v=60
10800 On ch=1 n=c5 v=60
10920 On ch=1 n=c5 v=0
10920 On ch=1 n=e5 v=0
11040 On ch=1 n=e4 v=60
11040 On ch=1 n=g#4 v=60
11160 On ch=1 n=g#4 v=0
11160 On ch=1 n=e4 v=0
11280 On ch=1 n=e5 v=60
11280 On ch=1 n=c5 v=60
11400 On ch=1 n=c5 v=0
11400 On ch=1 n=e5 v=0
13440 On ch=1 n=a4 v=60
13440 On ch=1 n=f4 v=60
13560 On ch=1 n=f4 v=0
13560 On ch=1 n=a4 v=0
13680 On ch=1 n=e5 v=60
13680 On ch=1 n=c5 v=60
13800 On ch=1 n=c5 v=0
13800 On ch=1 n=e5 v=0
13920 On ch=1 n=a4 v=60
13920 On ch=1 n=f4 v=60
14040 On ch=1 n=f4 v=0
14040 On ch=1 n=a4 v=0
14160 On ch=1 n=c5 v=60
14160 On ch=1 n=e5 v=60
14280 On ch=1 n=e5 v=0
14280 On ch=1 n=c5 v=0
14400 On ch=1 n=e4 v=60
14400 On ch=1 n=g#4 v=60
14520 On ch=1 n=g#4 v=0
14520 On ch=1 n=e4 v=0
14640 On ch=1 n=e5 v=60
14640 On ch=1 n=c5 v=60
14760 On ch=1 n=c5 v=0
14760 On ch=1 n=e5 v=0
14880 On ch=1 n=e4 v=60
14880 On ch=1 n=g#4 v=60
15000 On ch=1 n=g#4 v=0
15000 On ch=1 n=e4 v=0
15120 On ch=1 n=e5 v=60
15120 On ch=1 n=c5 v=60
15240 On ch=1 n=c5 v=0
15240 On ch=1 n=e5 v=0
53400 On ch=1 n=g4 v=100
53400 On ch=1 n=d#4 v=100
53520 On ch=1 n=d#4 v=0
53520 On ch=1 n=g4 v=0
53640 On ch=1 n=d4 v=100
53640 On ch=1 n=f4 v=100
53760 On ch=1 n=f4 v=0
53760 On ch=1 n=d4 v=0
53880 On ch=1 n=c4 v=120
53880 On ch=1 n=g#3 v=120
54000 On ch=1 n=g#3 v=0
54000 On ch=1 n=c4 v=0
54120 On ch=1 n=c4 v=120
54120 On ch=1 n=g#3 v=120
54240 On ch=1 n=g#3 v=0
54240 On ch=1 n=c4 v=0
54360 On ch=1 n=g#3 v=125
54360 On ch=1 n=c4 v=125
54480 On ch=1 n=c4 v=0
54480 On ch=1 n=g#3 v=0
54600 On ch=1 n=c4 v=125
54600 On ch=1 n=g#3 v=125
54720 On ch=1 n=g#3 v=0
54720 On ch=1 n=c4 v=0
54840 On ch=1 n=c4 v=80
54840 On ch=1 n=g#3 v=80
54960 On ch=1 n=g#3 v=0
54960 On ch=1 n=c4 v=0
55080 On ch=1 n=c4 v=80
55080 On ch=1 n=g#3 v=80
55200 On ch=1 n=g#3 v=0
55200 On ch=1 n=c4 v=0
55320 On ch=1 n=g#3 v=60
55320 On ch=1 n=c4 v=60
55440 On ch=1 n=c4 v=0
55440 On ch=1 n=g#3 v=0
55560 On ch=1 n=c4 v=60
55560 On ch=1 n=g#3 v=60
55680 On ch=1 n=g#3 v=0
55680 On ch=1 n=c4 v=0
55800 On ch=1 n=c4 v=120
55800 On ch=1 n=a3 v=120
55920 On ch=1 n=a3 v=0
55920 On ch=1 n=c4 v=0
56040 On ch=1 n=c4 v=120
56040 On ch=1 n=a3 v=120
56160 On ch=1 n=a3 v=0
56160 On ch=1 n=c4 v=0
56280 On ch=1 n=c4 v=125
56280 On ch=1 n=a3 v=125
56400 On ch=1 n=a3 v=0
56400 On ch=1 n=c4 v=0
56520 On ch=1 n=c4 v=125
56520 On ch=1 n=a3 v=125
56640 On ch=1 n=a3 v=0
56640 On ch=1 n=c4 v=0
56760 On ch=1 n=c4 v=80
56760 On ch=1 n=a3 v=80
56880 On ch=1 n=a3 v=0
56880 On ch=1 n=c4 v=0
57000 On ch=1 n=c4 v=80
57000 On ch=1 n=a3 v=80
57120 On ch=1 n=a3 v=0
57120 On ch=1 n=c4 v=0
57240 On ch=1 n=c4 v=60
57240 On ch=1 n=a3 v=60
57360 On ch=1 n=a3 v=0
57360 On ch=1 n=c4 v=0
57480 On ch=1 n=c4 v=60
57480 On ch=1 n=a3 v=60
57600 On ch=1 n=a3 v=0
57600 On ch=1 n=c4 v=0
57720 On ch=1 n=a3 v=70
57720 On ch=1 n=c4 v=70
57840 On ch=1 n=c4 v=0
57840 On ch=1 n=a3 v=0
57960 On ch=1 n=a4 v=70
57960 On ch=1 n=f4 v=70
58080 On ch=1 n=f4 v=0
58080 On ch=1 n=a4 v=0
58200 On ch=1 n=a3 v=70
58200 On ch=1 n=c4 v=70
58320 On ch=1 n=c4 v=0
58320 On ch=1 n=a3 v=0
58440 On ch=1 n=a4 v=70
58440 On ch=1 n=f4 v=70
58560 On ch=1 n=f4 v=0
58560 On ch=1 n=a4 v=0
58680 On ch=1 n=a3 v=70
58680 On ch=1 n=c4 v=70
58800 On ch=1 n=c4 v=0
58800 On ch=1 n=a3 v=0
58920 On ch=1 n=a4 v=70
58920 On ch=1 n=f4 v=70
59040 On ch=1 n=f4 v=0
59040 On ch=1 n=a4 v=0
59160 On ch=1 n=a3 v=70
59160 On ch=1 n=c4 v=70
59280 On ch=1 n=c4 v=0
59280 On ch=1 n=a3 v=0
59400 On ch=1 n=a4 v=70
59400 On ch=1 n=f4 v=70
59520 On ch=1 n=f4 v=0
59520 On ch=1 n=a4 v=0
59640 On ch=1 n=c#4 v=65
59640 On ch=1 n=a#3 v=65
59760 On ch=1 n=a#3 v=0
59760 On ch=1 n=c#4 v=0
59880 On ch=1 n=a4 v=65
59880 On ch=1 n=f4 v=65
60000 On ch=1 n=f4 v=0
60000 On ch=1 n=a4 v=0
60120 On ch=1 n=c#4 v=65
60120 On ch=1 n=a#3 v=65
60240 On ch=1 n=a#3 v=0
60240 On ch=1 n=c#4 v=0
60360 On ch=1 n=a4 v=65
60360 On ch=1 n=f4 v=65
60480 On ch=1 n=f4 v=0
60480 On ch=1 n=a4 v=0
60600 On ch=1 n=c#4 v=65
60600 On ch=1 n=a#3 v=65
60720 On ch=1 n=a#3 v=0
60720 On ch=1 n=c#4 v=0
60840 On ch=1 n=a4 v=65
60840 On ch=1 n=f4 v=65
60960 On ch=1 n=f4 v=0
60960 On ch=1 n=a4 v=0
61080 On ch=1 n=c#4 v=65
61080 On ch=1 n=a#3 v=65
61200 On ch=1 n=a#3 v=0
61200 On ch=1 n=c#4 v=0
61320 On ch=1 n=a#4 v=65
61320 On ch=1 n=f#4 v=65
61440 On ch=1 n=f#4 v=0
61440 On ch=1 n=a#4 v=0
61440 On ch=1 n=a4 v=60
61440 On ch=1 n=f4 v=60
61560 On ch=1 n=f4 v=0
61560 On ch=1 n=a4 v=0
61680 On ch=1 n=e5 v=60
61680 On ch=1 n=c5 v=60
61800 On ch=1 n=c5 v=0
61800 On ch=1 n=e5 v=0
61920 On ch=1 n=a4 v=60
61920 On ch=1 n=f4 v=60
62040 On ch=1 n=f4 v=0
62040 On ch=1 n=a4 v=0
62160 On ch=1 n=c5 v=60
62160 On ch=1 n=e5 v=60
62280 On ch=1 n=e5 v=0
62280 On ch=1 n=c5 v=0
62400 On ch=1 n=e4 v=60
62400 On ch=1 n=g#4 v=60
62520 On ch=1 n=g#4 v=0
62520 On ch=1 n=e4 v=0
62640 On ch=1 n=e5 v=60
62640 On ch=1 n=c5 v=60
62760 On ch=1 n=c5 v=0
62760 On ch=1 n=e5 v=0
62880 On ch=1 n=e4 v=60
62880 On ch=1 n=g#4 v=60
63000 On ch=1 n=g#4 v=0
63000 On ch=1 n=e4 v=0
63120 On ch=1 n=e5 v=60
63120 On ch=1 n=c5 v=60
63240 On ch=1 n=c5 v=0
63240 On ch=1 n=e5 v=0
65280 On ch=1 n=a4 v=60
65280 On ch=1 n=f4 v=60
65400 On ch=1 n=f4 v=0
65400 On ch=1 n=a4 v=0
65520 On ch=1 n=e5 v=60
65520 On ch=1 n=c5 v=60
65640 On ch=1 n=c5 v=0
65640 On ch=1 n=e5 v=0
65760 On ch=1 n=a4 v=60
65760 On ch=1 n=f4 v=60
65880 On ch=1 n=f4 v=0
65880 On ch=1 n=a4 v=0
66000 On ch=1 n=c5 v=60
66000 On ch=1 n=e5 v=60
66120 On ch=1 n=e5 v=0
66120 On ch=1 n=c5 v=0
66240 On ch=1 n=e4 v=60
66240 On ch=1 n=g#4 v=60
66360 On ch=1 n=g#4 v=0
66360 On ch=1 n=e4 v=0
66480 On ch=1 n=e5 v=60
66480 On ch=1 n=c5 v=60
66600 On ch=1 n=c5 v=0
66600 On ch=1 n=e5 v=0
66720 On ch=1 n=e4 v=60
66720 On ch=1 n=g#4 v=60
66840 On ch=1 n=g#4 v=0
66840 On ch=1 n=e4 v=0
66960 On ch=1 n=e5 v=60
66960 On ch=1 n=c5 v=60
67080 On ch=1 n=c5 v=0
67080 On ch=1 n=e5 v=0
69120 On ch=1 n=f4 v=60
69120 On ch=1 n=g#4 v=60
69240 On ch=1 n=g#4 v=0
69240 On ch=1 n=f4 v=0
69360 On ch=1 n=d#5 v=60
69360 On ch=1 n=c5 v=60
69480 On ch=1 n=c5 v=0
69480 On ch=1 n=d#5 v=0
69600 On ch=1 n=d#5 v=60
69600 On ch=1 n=c5 v=60
69720 On ch=1 n=c5 v=0
69720 On ch=1 n=d#5 v=0
69840 On ch=1 n=d#5 v=60
69840 On ch=1 n=c5 v=60
69960 On ch=1 n=c5 v=0
69960 On ch=1 n=d#5 v=0
70080 On ch=1 n=f4 v=60
70080 On ch=1 n=g#4 v=60
70200 On ch=1 n=g#4 v=0
70200 On ch=1 n=f4 v=0
70320 On ch=1 n=d#5 v=60
70320 On ch=1 n=c5 v=60
70440 On ch=1 n=c5 v=0
70440 On ch=1 n=d#5 v=0
70560 On ch=1 n=g4 v=60
70560 On ch=1 n=d#4 v=60
70680 On ch=1 n=d#4 v=0
70680 On ch=1 n=g4 v=0
70800 On ch=1 n=d5 v=60
70800 On ch=1 n=a#4 v=60
70920 On ch=1 n=a#4 v=0
70920 On ch=1 n=d5 v=0
71040 On ch=1 n=d4 v=50
71040 On ch=1 n=b3 v=50
71160 On ch=1 n=b3 v=0
71160 On ch=1 n=d4 v=0
71280 On ch=1 n=d5 v=50
71280 On ch=1 n=a#4 v=50
71400 On ch=1 n=a#4 v=0
71400 On ch=1 n=d5 v=0
71520 On ch=1 n=d5 v=50
71520 On ch=1 n=a#4 v=50
71640 On ch=1 n=a#4 v=0
71640 On ch=1 n=d5 v=0
71760 On ch=1 n=d5 v=50
71760 On ch=1 n=a#4 v=50
71880 On ch=1 n=a#4 v=0
71880 On ch=1 n=d5 v=0
72000 On ch=1 n=d#4 v=50
72000 On ch=1 n=c4 v=50
72120 On ch=1 n=c4 v=0
72120 On ch=1 n=d#4 v=0
72240 On ch=1 n=d5 v=50
72240 On ch=1 n=a#4 v=50
72360 On ch=1 n=a#4 v=0
72360 On ch=1 n=d5 v=0
72480 On ch=1 n=f4 v=50
72480 On ch=1 n=d4 v=50
72600 On ch=1 n=d4 v=0
72600 On ch=1 n=f4 v=0
72720 On ch=1 n=d#4 v=50
72720 On ch=1 n=c4 v=50
72840 On ch=1 n=c4 v=0
72840 On ch=1 n=d#4 v=0
72960 On ch=1 n=d4 v=50
72960 On ch=1 n=a#3 v=50
73080 On ch=1 n=a#3 v=0
73080 On ch=1 n=d4 v=0
73200 On ch=1 n=d5 v=50
73200 On ch=1 n=a#4 v=50
73320 On ch=1 n=a#4 v=0
73320 On ch=1 n=d5 v=0
73440 On ch=1 n=d5 v=50
73440 On ch=1 n=a#4 v=50
73560 On ch=1 n=a#4 v=0
73560 On ch=1 n=d5 v=0
73680 On ch=1 n=d5 v=50
73680 On ch=1 n=a#4 v=50
73800 On ch=1 n=a#4 v=0
73800 On ch=1 n=d5 v=0
73920 On ch=1 n=c4 v=50
73920 On ch=1 n=g#3 v=50
74040 On ch=1 n=g#3 v=0
74040 On ch=1 n=c4 v=0
74160 On ch=1 n=d5 v=50
74160 On ch=1 n=a#4 v=50
74280 On ch=1 n=a#4 v=0
74280 On ch=1 n=d5 v=0
74400 On ch=1 n=d4 v=50
74400 On ch=1 n=a#3 v=50
74520 On ch=1 n=a#3 v=0
74520 On ch=1 n=d4 v=0
74640 On ch=1 n=d#4 v=50
74640 On ch=1 n=c4 v=50
74760 On ch=1 n=c4 v=0
74760 On ch=1 n=d#4 v=0
74880 On ch=1 n=f4 v=70
74880 On ch=1 n=d4 v=70
75000 On ch=1 n=d4 v=0
75000 On ch=1 n=f4 v=0
75120 On ch=1 n=d5 v=70
75120 On ch=1 n=a#4 v=70
75240 On ch=1 n=a#4 v=0
75240 On ch=1 n=d5 v=0
75360 On ch=1 n=g4 v=70
75360 On ch=1 n=d#4 v=70
75480 On ch=1 n=d#4 v=0
75480 On ch=1 n=g4 v=0
75600 On ch=1 n=d5 v=70
75600 On ch=1 n=a#4 v=70
75720 On ch=1 n=a#4 v=0
75720 On ch=1 n=d5 v=0
75840 On ch=1 n=f4 v=90
75840 On ch=1 n=d4 v=90
75960 On ch=1 n=d4 v=0
75960 On ch=1 n=f4 v=0
76080 On ch=1 n=d5 v=90
76080 On ch=1 n=a#4 v=90
76200 On ch=1 n=a#4 v=0
76200 On ch=1 n=d5 v=0
76320 On ch=1 n=g#4 v=90
76320 On ch=1 n=f4 v=90
76440 On ch=1 n=f4 v=0
76440 On ch=1 n=g#4 v=0
76560 On ch=1 n=d#5 v=90
76560 On ch=1 n=c5 v=90
76680 On ch=1 n=c5 v=0
76680 On ch=1 n=d#5 v=0
76800 On ch=1 n=f#4 v=50
76800 On ch=1 n=d#4 v=50
76920 On ch=1 n=d#4 v=0
76920 On ch=1 n=f#4 v=0
77040 On ch=1 n=d#5 v=50
77040 On ch=1 n=b4 v=50
77160 On ch=1 n=b4 v=0
77160 On ch=1 n=d#5 v=0
77280 On ch=1 n=b4 v=50
77280 On ch=1 n=d#5 v=50
77400 On ch=1 n=d#5 v=0
77400 On ch=1 n=b4 v=0
77520 On ch=1 n=d#5 v=50
77520 On ch=1 n=b4 v=50
77640 On ch=1 n=b4 v=0
77640 On ch=1 n=d#5 v=0
77760 On ch=1 n=e4 v=50
77760 On ch=1 n=c#4 v=50
77880 On ch=1 n=c#4 v=0
77880 On ch=1 n=e4 v=0
78000 On ch=1 n=d#5 v=50
78000 On ch=1 n=b4 v=50
78120 On ch=1 n=b4 v=0
78120 On ch=1 n=d#5 v=0
78240 On ch=1 n=f#4 v=50
78240 On ch=1 n=d#4 v=50
78360 On ch=1 n=d#4 v=0
78360 On ch=1 n=f#4 v=0
78480 On ch=1 n=e4 v=50
78480 On ch=1 n=c#4 v=50
78600 On ch=1 n=c#4 v=0
78600 On ch=1 n=e4 v=0
78720 On ch=1 n=d#4 v=50
78720 On ch=1 n=b3 v=50
78840 On ch=1 n=b3 v=0
78840 On ch=1 n=d#4 v=0
78960 On ch=1 n=d#5 v=50
78960 On ch=1 n=b4 v=50
79080 On ch=1 n=b4 v=0
79080 On ch=1 n=d#5 v=0
79200 On ch=1 n=d#5 v=50
79200 On ch=1 n=b4 v=50
79320 On ch=1 n=b4 v=0
79320 On ch=1 n=d#5 v=0
79440 On ch=1 n=d#5 v=50
79440 On ch=1 n=b4 v=50
79560 On ch=1 n=b4 v=0
79560 On ch=1 n=d#5 v=0
79680 On ch=1 n=c#4 v=50
79680 On ch=1 n=a3 v=50
79800 On ch=1 n=a3 v=0
79800 On ch=1 n=c#4 v=0
79920 On ch=1 n=d#5 v=50
79920 On ch=1 n=b4 v=50
80040 On ch=1 n=b4 v=0
80040 On ch=1 n=d#5 v=0
80160 On ch=1 n=d#4 v=50
80160 On ch=1 n=b3 v=50
80280 On ch=1 n=b3 v=0
80280 On ch=1 n=d#4 v=0
80400 On ch=1 n=e4 v=50
80400 On ch=1 n=c#4 v=50
80520 On ch=1 n=c#4 v=0
80520 On ch=1 n=e4 v=0
80640 On ch=1 n=f#4 v=70
80640 On ch=1 n=d#4 v=70
80760 On ch=1 n=d#4 v=0
80760 On ch=1 n=f#4 v=0
80880 On ch=1 n=d#5 v=70
80880 On ch=1 n=b4 v=70
81000 On ch=1 n=b4 v=0
81000 On ch=1 n=d#5 v=0
81120 On ch=1 n=g#4 v=70
81120 On ch=1 n=e4 v=70
81240 On ch=1 n=e4 v=0
81240 On ch=1 n=g#4 v=0
81360 On ch=1 n=d#5 v=70
81360 On ch=1 n=b4 v=70
81480 On ch=1 n=b4 v=0
81480 On ch=1 n=d#5 v=0
81600 On ch=1 n=f#4 v=90
81600 On ch=1 n=d#4 v=90
81720 On ch=1 n=d#4 v=0
81720 On ch=1 n=f#4 v=0
81840 On ch=1 n=d#5 v=90
81840 On ch=1 n=b4 v=90
81960 On ch=1 n=b4 v=0
81960 On ch=1 n=d#5 v=0
82080 On ch=1 n=a4 v=90
82080 On ch=1 n=f#4 v=90
82200 On ch=1 n=f#4 v=0
82200 On ch=1 n=a4 v=0
82320 On ch=1 n=e5 v=90
82320 On ch=1 n=c#5 v=90
82440 On ch=1 n=c#5 v=0
82440 On ch=1 n=e5 v=0
103200 On ch=1 n=a#2 v=50
103440 On ch=1 n=a#2 v=0
105120 On ch=1 n=a#2 v=50
105360 On ch=1 n=a#2 v=0
110880 On ch=1 n=c4 v=60
110880 On ch=1 n=e4 v=60
111960 On ch=1 n=e4 v=0
111960 On ch=1 n=c4 v=0
112080 On ch=1 n=e4 v=60
112080 On ch=1 n=c4 v=60
112200 On ch=1 n=c4 v=0
112200 On ch=1 n=e4 v=0
112320 On ch=1 n=e4 v=60
112320 On ch=1 n=c4 v=60
112440 On ch=1 n=c4 v=0
112440 On ch=1 n=e4 v=0
112560 On ch=1 n=e4 v=60
112560 On ch=1 n=c4 v=60
112680 On ch=1 n=c4 v=0
112680 On ch=1 n=e4 v=0
112800 On ch=1 n=e4 v=60
112800 On ch=1 n=c4 v=60
112920 On ch=1 n=c4 v=0
112920 On ch=1 n=e4 v=0
113040 On ch=1 n=e4 v=60
113040 On ch=1 n=c4 v=60
113160 On ch=1 n=c4 v=0
113160 On ch=1 n=e4 v=0
113280 On ch=1 n=e4 v=60
113280 On ch=1 n=c4 v=60
113400 On ch=1 n=c4 v=0
113400 On ch=1 n=e4 v=0
113520 On ch=1 n=c4 v=60
113520 On ch=1 n=g#3 v=60
113640 On ch=1 n=g#3 v=0
113640 On ch=1 n=c4 v=0
113760 On ch=1 n=e4 v=60
113760 On ch=1 n=c4 v=60
113880 On ch=1 n=c4 v=0
113880 On ch=1 n=e4 v=0
114000 On ch=1 n=e4 v=60
114000 On ch=1 n=c4 v=60
114120 On ch=1 n=c4 v=0
114120 On ch=1 n=e4 v=0
114240 On ch=1 n=e4 v=60
114240 On ch=1 n=c4 v=60
114360 On ch=1 n=c4 v=0
114360 On ch=1 n=e4 v=0
114480 On ch=1 n=e4 v=60
114480 On ch=1 n=c4 v=60
114600 On ch=1 n=c4 v=0
114600 On ch=1 n=e4 v=0
114720 On ch=1 n=e4 v=60
114720 On ch=1 n=c4 v=60
114840 On ch=1 n=c4 v=0
114840 On ch=1 n=e4 v=0
114960 On ch=1 n=e4 v=60
114960 On ch=1 n=c4 v=60
115080 On ch=1 n=c4 v=0
115080 On ch=1 n=e4 v=0
115200 On ch=1 n=e4 v=60
115200 On ch=1 n=c4 v=60
115320 On ch=1 n=c4 v=0
115320 On ch=1 n=e4 v=0
115440 On ch=1 n=c4 v=60
115440 On ch=1 n=g#3 v=60
115560 On ch=1 n=g#3 v=0
115560 On ch=1 n=c4 v=0
115680 On ch=1 n=c3 v=60
115680 On ch=1 n=d#3 v=60
115800 On ch=1 n=d#3 v=0
115800 On ch=1 n=c3 v=0
115920 On ch=1 n=d#3 v=80
115920 On ch=1 n=f#3 v=80
116040 On ch=1 n=f#3 v=0
116040 On ch=1 n=d#3 v=0
116160 On ch=1 n=f#3 v=100
116160 On ch=1 n=a3 v=100
116280 On ch=1 n=a3 v=0
116280 On ch=1 n=f#3 v=0
116400 On ch=1 n=a3 v=120
116400 On ch=1 n=c4 v=120
116880 On ch=1 n=c4 v=0
116880 On ch=1 n=a3 v=0
116880 On ch=1 n=f3 v=110
116880 On ch=1 n=g#3 v=110
117000 On ch=1 n=g#3 v=0
117000 On ch=1 n=f3 v=0
117120 On ch=1 n=f#3 v=90
117120 On ch=1 n=a3 v=90
117240 On ch=1 n=a3 v=0
117240 On ch=1 n=f#3 v=0
117360 On ch=1 n=g3 v=70
117360 On ch=1 n=a#3 v=70
117480 On ch=1 n=a#3 v=0
117480 On ch=1 n=g3 v=0
117600 On ch=1 n=c3 v=50
117600 On ch=1 n=d#3 v=50
117720 On ch=1 n=d#3 v=0
117720 On ch=1 n=c3 v=0
117840 On ch=1 n=d#3 v=70
117840 On ch=1 n=f#3 v=70
117960 On ch=1 n=f#3 v=0
117960 On ch=1 n=d#3 v=0
118080 On ch=1 n=f#3 v=90
118080 On ch=1 n=a3 v=90
118200 On ch=1 n=a3 v=0
118200 On ch=1 n=f#3 v=0
118320 On ch=1 n=a3 v=110
118320 On ch=1 n=c4 v=110
118800 On ch=1 n=c4 v=0
118800 On ch=1 n=a3 v=0
118800 On ch=1 n=f#3 v=110
118800 On ch=1 n=a3 v=110
118920 On ch=1 n=a3 v=0
118920 On ch=1 n=f#3 v=0
119040 On ch=1 n=g3 v=90
119040 On ch=1 n=a#3 v=90
119160 On ch=1 n=a#3 v=0
119160 On ch=1 n=g3 v=0
119280 On ch=1 n=g#3 v=70
119280 On ch=1 n=b3 v=70
119400 On ch=1 n=b3 v=0
119400 On ch=1 n=g#3 v=0
119520 On ch=1 n=a4 v=60
119520 On ch=1 n=f4 v=60
119640 On ch=1 n=f4 v=0
119640 On ch=1 n=a4 v=0
119760 On ch=1 n=e5 v=60
119760 On ch=1 n=c5 v=60
119880 On ch=1 n=c5 v=0
119880 On ch=1 n=e5 v=0
120000 On ch=1 n=a4 v=60
120000 On ch=1 n=f4 v=60
120120 On ch=1 n=f4 v=0
120120 On ch=1 n=a4 v=0
120240 On ch=1 n=c5 v=60
120240 On ch=1 n=e5 v=60
120360 On ch=1 n=e5 v=0
120360 On ch=1 n=c5 v=0
120480 On ch=1 n=e4 v=60
120480 On ch=1 n=g#4 v=60
120600 On ch=1 n=g#4 v=0
120600 On ch=1 n=e4 v=0
120720 On ch=1 n=e5 v=60
120720 On ch=1 n=c5 v=60
120840 On ch=1 n=c5 v=0
120840 On ch=1 n=e5 v=0
120960 On ch=1 n=e4 v=60
120960 On ch=1 n=g#4 v=60
121080 On ch=1 n=g#4 v=0
121080 On ch=1 n=e4 v=0
121200 On ch=1 n=e5 v=60
121200 On ch=1 n=c5 v=60
121320 On ch=1 n=c5 v=0
121320 On ch=1 n=e5 v=0
123360 On ch=1 n=a4 v=60
123360 On ch=1 n=f4 v=60
123480 On ch=1 n=f4 v=0
123480 On ch=1 n=a4 v=0
123600 On ch=1 n=e5 v=60
123600 On ch=1 n=c5 v=60
123720 On ch=1 n=c5 v=0
123720 On ch=1 n=e5 v=0
123840 On ch=1 n=a4 v=60
123840 On ch=1 n=f4 v=60
123960 On ch=1 n=f4 v=0
123960 On ch=1 n=a4 v=0
124080 On ch=1 n=c5 v=60
124080 On ch=1 n=e5 v=60
124200 On ch=1 n=e5 v=0
124200 On ch=1 n=c5 v=0
124320 On ch=1 n=e4 v=60
124320 On ch=1 n=g#4 v=60
124440 On ch=1 n=g#4 v=0
124440 On ch=1 n=e4 v=0
124560 On ch=1 n=e5 v=60
124560 On ch=1 n=c5 v=60
124680 On ch=1 n=c5 v=0
124680 On ch=1 n=e5 v=0
124800 On ch=1 n=e4 v=60
124800 On ch=1 n=g#4 v=60
124920 On ch=1 n=g#4 v=0
124920 On ch=1 n=e4 v=0
125040 On ch=1 n=e5 v=60
125040 On ch=1 n=c5 v=60
125160 On ch=1 n=c5 v=0
125160 On ch=1 n=e5 v=0
143520 On ch=1 n=b4 v=100
143520 On ch=1 n=g4 v=100
143640 On ch=1 n=g4 v=0
143640 On ch=1 n=b4 v=0
143760 On ch=1 n=a#4 v=100
143760 On ch=1 n=f#4 v=100
143880 On ch=1 n=f#4 v=0
143880 On ch=1 n=a#4 v=0
144000 On ch=1 n=a4 v=100
144000 On ch=1 n=f4 v=100
144120 On ch=1 n=f4 v=0
144120 On ch=1 n=a4 v=0
144240 On ch=1 n=g#4 v=100
144240 On ch=1 n=e4 v=100
144360 On ch=1 n=e4 v=0
144360 On ch=1 n=g#4 v=0
144960 On ch=1 n=g4 v=90
144960 On ch=1 n=d#4 v=90
145080 On ch=1 n=d#4 v=0
145080 On ch=1 n=g4 v=0
145200 On ch=1 n=f#4 v=90
145200 On ch=1 n=d4 v=90
145320 On ch=1 n=d4 v=0
145320 On ch=1 n=f#4 v=0
145440 On ch=1 n=f4 v=80
145440 On ch=1 n=c#4 v=80
145560 On ch=1 n=c#4 v=0
145560 On ch=1 n=f4 v=0
145680 On ch=1 n=e4 v=80
145680 On ch=1 n=c4 v=80
145800 On ch=1 n=c4 v=0
145800 On ch=1 n=e4 v=0
145920 On ch=1 n=b3 v=80
145920 On ch=1 n=d#4 v=80
146040 On ch=1 n=d#4 v=0
146040 On ch=1 n=b3 v=0
146160 On ch=1 n=a#3 v=80
146160 On ch=1 n=d4 v=80
146280 On ch=1 n=d4 v=0
146280 On ch=1 n=a#3 v=0
146400 On ch=1 n=a3 v=70
146400 On ch=1 n=c#4 v=70
146520 On ch=1 n=c#4 v=0
146520 On ch=1 n=a3 v=0
146640 On ch=1 n=g#3 v=70
146640 On ch=1 n=c4 v=70
146760 On ch=1 n=c4 v=0
146760 On ch=1 n=g#3 v=0
146880 On ch=1 n=g3 v=70
146880 On ch=1 n=b3 v=70
147000 On ch=1 n=b3 v=0
147000 On ch=1 n=g3 v=0
147120 On ch=1 n=f#3 v=70
147120 On ch=1 n=a#3 v=70
147240 On ch=1 n=a#3 v=0
147240 On ch=1 n=f#3 v=0
147360 On ch=1 n=c3 v=60
147360 On ch=1 n=e3 v=60
147480 On ch=1 n=e3 v=0
147480 On ch=1 n=c3 v=0
147600 On ch=1 n=c3 v=60
147600 On ch=1 n=e3 v=60
147720 On ch=1 n=e3 v=0
147720 On ch=1 n=c3 v=0
147840 On ch=1 n=g3 v=60
147840 On ch=1 n=e3 v=60
147960 On ch=1 n=e3 v=0
147960 On ch=1 n=g3 v=0
148080 On ch=1 n=g3 v=60
148080 On ch=1 n=e3 v=60
148200 On ch=1 n=e3 v=0
148200 On ch=1 n=g3 v=0
148320 On ch=1 n=b3 v=65
148320 On ch=1 n=g3 v=65
148440 On ch=1 n=g3 v=0
148440 On ch=1 n=b3 v=0
148560 On ch=1 n=d4 v=65
148560 On ch=1 n=b3 v=65
148680 On ch=1 n=b3 v=0
148680 On ch=1 n=d4 v=0
148800 On ch=1 n=g3 v=65
148800 On ch=1 n=b3 v=65
148920 On ch=1 n=b3 v=0
148920 On ch=1 n=g3 v=0
149040 On ch=1 n=e3 v=65
149040 On ch=1 n=g3 v=65
149160 On ch=1 n=g3 v=0
149160 On ch=1 n=e3 v=0
149280 On ch=1 n=c3 v=60
149280 On ch=1 n=e3 v=60
149400 On ch=1 n=e3 v=0
149400 On ch=1 n=c3 v=0
149520 On ch=1 n=c3 v=60
149520 On ch=1 n=e3 v=60
149640 On ch=1 n=e3 v=0
149640 On ch=1 n=c3 v=0
149760 On ch=1 n=g3 v=60
149760 On ch=1 n=e3 v=60
149880 On ch=1 n=e3 v=0
149880 On ch=1 n=g3 v=0
150000 On ch=1 n=g3 v=60
150000 On ch=1 n=e3 v=60
150120 On ch=1 n=e3 v=0
150120 On ch=1 n=g3 v=0
150240 On ch=1 n=b3 v=65
150240 On ch=1 n=g3 v=65
150360 On ch=1 n=g3 v=0
150360 On ch=1 n=b3 v=0
150480 On ch=1 n=d4 v=65
150480 On ch=1 n=b3 v=65
150600 On ch=1 n=b3 v=0
150600 On ch=1 n=d4 v=0
150720 On ch=1 n=g3 v=65
150720 On ch=1 n=b3 v=65
150840 On ch=1 n=b3 v=0
150840 On ch=1 n=g3 v=0
150960 On ch=1 n=e3 v=65
150960 On ch=1 n=g3 v=65
151080 On ch=1 n=g3 v=0
151080 On ch=1 n=e3 v=0
151200 On ch=1 n=c3 v=55
151200 On ch=1 n=e3 v=55
151320 On ch=1 n=e3 v=0
151320 On ch=1 n=c3 v=0
151440 On ch=1 n=g3 v=55
151440 On ch=1 n=e3 v=55
151560 On ch=1 n=e3 v=0
151560 On ch=1 n=g3 v=0
151680 On ch=1 n=c3 v=55
151680 On ch=1 n=e3 v=55
151800 On ch=1 n=e3 v=0
151800 On ch=1 n=c3 v=0
151920 On ch=1 n=g3 v=55
151920 On ch=1 n=e3 v=55
152040 On ch=1 n=e3 v=0
152040 On ch=1 n=g3 v=0
152160 On ch=1 n=c3 v=55
152160 On ch=1 n=e3 v=55
152280 On ch=1 n=e3 v=0
152280 On ch=1 n=c3 v=0
152400 On ch=1 n=g3 v=55
152400 On ch=1 n=e3 v=55
152520 On ch=1 n=e3 v=0
152520 On ch=1 n=g3 v=0
152640 On ch=1 n=c3 v=55
152640 On ch=1 n=e3 v=55
152760 On ch=1 n=e3 v=0
152760 On ch=1 n=c3 v=0
152880 On ch=1 n=g3 v=55
152880 On ch=1 n=e3 v=55
153000 On ch=1 n=e3 v=0
153000 On ch=1 n=g3 v=0
153120 On ch=1 n=c3 v=50
153120 On ch=1 n=e3 v=50
153240 On ch=1 n=e3 v=0
153240 On ch=1 n=c3 v=0
153360 On ch=1 n=g3 v=50
153360 On ch=1 n=e3 v=50
153480 On ch=1 n=e3 v=0
153480 On ch=1 n=g3 v=0
153600 On ch=1 n=c3 v=50
153600 On ch=1 n=e3 v=50
153720 On ch=1 n=e3 v=0
153720 On ch=1 n=c3 v=0
153840 On ch=1 n=g3 v=50
153840 On ch=1 n=e3 v=50
153960 On ch=1 n=e3 v=0
153960 On ch=1 n=g3 v=0
154080 On ch=1 n=c3 v=45
154080 On ch=1 n=e3 v=45
154200 On ch=1 n=e3 v=0
154200 On ch=1 n=c3 v=0
154320 On ch=1 n=g3 v=40
154320 On ch=1 n=e3 v=40
154440 On ch=1 n=e3 v=0
154440 On ch=1 n=g3 v=0
154560 On ch=1 n=c3 v=35
154560 On ch=1 n=e3 v=35
154680 On ch=1 n=e3 v=0
154680 On ch=1 n=c3 v=0
154800 On ch=1 n=g3 v=30
154800 On ch=1 n=e3 v=30
154920 On ch=1 n=e3 v=0
154920 On ch=1 n=g3 v=0
155040 On ch=1 n=c3 v=30
155040 On ch=1 n=e3 v=30
155280 On ch=1 n=e3 v=0
155280 On ch=1 n=c3 v=0
156000 On ch=1 n=c2 v=30
156000 On ch=1 n=e2 v=30
156240 On ch=1 n=e2 v=0
156240 On ch=1 n=c2 v=0
156240 Meta TrkEnd
TrkEnd
MTrk
0 SeqSpec 43 00 01 00
0 Meta TrkName "Debussy, Claude"
0 Meta 0x21 00
0 Meta TrkEnd
TrkEnd
MTrk
0 SeqSpec 43 00 01 00
0 Meta TrkName "Prelude Book 2 No. 11 Les tierces alternees"
0 Meta 0x21 00
0 Meta TrkEnd
TrkEnd
MTrk
0 SeqSpec 43 00 01 00
0 Meta TrkName "Jeruen E. Dery jawjaw@hotmail.com"
0 Meta 0x21 00
0 Meta TrkEnd
TrkEnd
