MFile 1 11 480
MTrk
0 TimeSig 3/4 24 8
0 KeySig -5 major
0 Tempo 434783
31680 TimeSig 4/4 24 8
33600 TimeSig 3/4 24 8
33600 Tempo 500000
39360 Tempo 434783
43680 Tempo 476190
44160 Tempo 517241
44640 Tempo 555556
45120 KeySig 4 major
45120 Tempo 500000
50880 Tempo 434783
56640 Tempo 476190
58080 Tempo 517241
59520 KeySig -5 major
59520 Tempo 434783
71040 Tempo 476190
72000 Tempo 500000
72960 Tempo 517241
73440 Tempo 555556
73920 Tempo 500000
78240 Tempo 434783
79680 Tempo 476190
81120 Tempo 434783
95040 Tempo 652174
95520 Tempo 434783
104160 KeySig 0 major
104160 Tempo 555556
125760 Tempo 434783
127200 Tempo 555556
144480 KeySig -5 major
144480 Tempo 434783
144480 Meta TrkEnd
TrkEnd
MTrk
0 SeqSpec 43 00 01 00
0 Meta TrkName "Right Treble"
0 Meta 0x21 00
192 On ch=1 n=g#5 v=40
288 On ch=1 n=g#5 v=0
288 On ch=1 n=d#6 v=40
384 On ch=1 n=d#6 v=0
384 On ch=1 n=g#6 v=40
480 On ch=1 n=g#6 v=0
672 On ch=1 n=f#5 v=40
768 On ch=1 n=f#5 v=0
768 On ch=1 n=c#6 v=40
864 On ch=1 n=c#6 v=0
864 On ch=1 n=f#6 v=40
960 On ch=1 n=f#6 v=0
1152 On ch=1 n=d#5 v=40
1248 On ch=1 n=d#5 v=0
1248 On ch=1 n=a#5 v=40
1344 On ch=1 n=a#5 v=0
1344 On ch=1 n=d#6 v=40
1440 On ch=1 n=d#6 v=0
1632 On ch=1 n=g#5 v=40
1728 On ch=1 n=g#5 v=0
1728 On ch=1 n=d#6 v=40
1824 On ch=1 n=d#6 v=0
1824 On ch=1 n=g#6 v=40
1920 On ch=1 n=g#6 v=0
2112 On ch=1 n=c#6 v=40
2208 On ch=1 n=c#6 v=0
2208 On ch=1 n=g#6 v=40
2304 On ch=1 n=g#6 v=0
2304 On ch=1 n=c#7 v=40
2400 On ch=1 n=c#7 v=0
2592 On ch=1 n=d#6 v=40
2688 On ch=1 n=d#6 v=0
2688 On ch=1 n=a#6 v=40
2784 On ch=1 n=a#6 v=0
2784 On ch=1 n=d#7 v=40
2880 On ch=1 n=d#7 v=0
3072 On ch=1 n=g#5 v=40
3168 On ch=1 n=g#5 v=0
3168 On ch=1 n=d#6 v=40
3264 On ch=1 n=d#6 v=0
3264 On ch=1 n=g#6 v=40
3360 On ch=1 n=g#6 v=0
3552 On ch=1 n=f#5 v=40
3648 On ch=1 n=f#5 v=0
3648 On ch=1 n=c#6 v=40
3744 On ch=1 n=c#6 v=0
3744 On ch=1 n=f#6 v=40
3840 On ch=1 n=f#6 v=0
4032 On ch=1 n=d#5 v=40
4128 On ch=1 n=d#5 v=0
4128 On ch=1 n=a#5 v=40
4224 On ch=1 n=a#5 v=0
4224 On ch=1 n=d#6 v=40
4320 On ch=1 n=d#6 v=0
7200 On ch=1 n=a#6 v=50
7200 On ch=1 n=d#6 v=50
7320 On ch=1 n=d#6 v=0
7320 On ch=1 n=a#6 v=0
7320 On ch=1 n=b6 v=50
7440 On ch=1 n=b6 v=0
7440 On ch=1 n=a#6 v=50
7440 On ch=1 n=d#6 v=50
7560 On ch=1 n=d#6 v=0
7560 On ch=1 n=a#6 v=0
7560 On ch=1 n=b6 v=50
7680 On ch=1 n=b6 v=0
7680 On ch=1 n=d#6 v=50
7680 On ch=1 n=a#6 v=50
7800 On ch=1 n=a#6 v=0
7800 On ch=1 n=d#6 v=0
7800 On ch=1 n=b6 v=50
7920 On ch=1 n=b6 v=0
7920 On ch=1 n=d#6 v=50
7920 On ch=1 n=a#6 v=50
8040 On ch=1 n=a#6 v=0
8040 On ch=1 n=d#6 v=0
8040 On ch=1 n=b6 v=50
8160 On ch=1 n=b6 v=0
8160 On ch=1 n=d#6 v=50
8160 On ch=1 n=a#6 v=50
8280 On ch=1 n=a#6 v=0
8280 On ch=1 n=d#6 v=0
8280 On ch=1 n=b6 v=50
8400 On ch=1 n=b6 v=0
8400 On ch=1 n=d#6 v=50
8400 On ch=1 n=a#6 v=50
8520 On ch=1 n=a#6 v=0
8520 On ch=1 n=d#6 v=0
8520 On ch=1 n=b6 v=50
8640 On ch=1 n=b6 v=0
8640 On ch=1 n=a#6 v=50
8640 On ch=1 n=d#6 v=50
8760 On ch=1 n=d#6 v=0
8760 On ch=1 n=a#6 v=0
8760 On ch=1 n=b6 v=50
8880 On ch=1 n=b6 v=0
8880 On ch=1 n=a#6 v=50
8880 On ch=1 n=d#6 v=50
9000 On ch=1 n=d#6 v=0
9000 On ch=1 n=a#6 v=0
9000 On ch=1 n=b6 v=50
9120 On ch=1 n=b6 v=0
9120 On ch=1 n=d#6 v=50
9120 On ch=1 n=a#6 v=50
9240 On ch=1 n=a#6 v=0
9240 On ch=1 n=d#6 v=0
9240 On ch=1 n=b6 v=50
9360 On ch=1 n=b6 v=0
9360 On ch=1 n=d#6 v=50
9360 On ch=1 n=a#6 v=50
9480 On ch=1 n=a#6 v=0
9480 On ch=1 n=d#6 v=0
9480 On ch=1 n=b6 v=50
9600 On ch=1 n=b6 v=0
9600 On ch=1 n=d#6 v=50
9600 On ch=1 n=a#6 v=50
9720 On ch=1 n=a#6 v=0
9720 On ch=1 n=d#6 v=0
9720 On ch=1 n=b6 v=50
9840 On ch=1 n=b6 v=0
9840 On ch=1 n=d#6 v=50
9840 On ch=1 n=a#6 v=50
9960 On ch=1 n=a#6 v=0
9960 On ch=1 n=d#6 v=0
9960 On ch=1 n=b6 v=50
10080 On ch=1 n=b6 v=0
10080 On ch=1 n=a#6 v=50
10080 On ch=1 n=d#6 v=50
10200 On ch=1 n=d#6 v=0
10200 On ch=1 n=a#6 v=0
10200 On ch=1 n=b6 v=50
10320 On ch=1 n=b6 v=0
10320 On ch=1 n=a#6 v=50
10320 On ch=1 n=d#6 v=50
10440 On ch=1 n=d#6 v=0
10440 On ch=1 n=a#6 v=0
10440 On ch=1 n=b6 v=50
10560 On ch=1 n=b6 v=0
10560 On ch=1 n=d#6 v=50
10560 On ch=1 n=a#6 v=50
10680 On ch=1 n=a#6 v=0
10680 On ch=1 n=d#6 v=0
10680 On ch=1 n=b6 v=50
10800 On ch=1 n=b6 v=0
10800 On ch=1 n=d#6 v=50
10800 On ch=1 n=a#6 v=50
10920 On ch=1 n=a#6 v=0
10920 On ch=1 n=d#6 v=0
10920 On ch=1 n=b6 v=50
11040 On ch=1 n=b6 v=0
11040 On ch=1 n=d#6 v=50
11040 On ch=1 n=a#6 v=50
11160 On ch=1 n=a#6 v=0
11160 On ch=1 n=d#6 v=0
11160 On ch=1 n=b6 v=50
11280 On ch=1 n=b6 v=0
11280 On ch=1 n=d#6 v=50
11280 On ch=1 n=a#6 v=50
11400 On ch=1 n=a#6 v=0
11400 On ch=1 n=d#6 v=0
11400 On ch=1 n=b6 v=50
11520 On ch=1 n=b6 v=0
11520 On ch=1 n=a#6 v=50
11520 On ch=1 n=d#6 v=50
11640 On ch=1 n=d#6 v=0
11640 On ch=1 n=a#6 v=0
11640 On ch=1 n=b6 v=50
11760 On ch=1 n=b6 v=0
11760 On ch=1 n=a#6 v=50
11760 On ch=1 n=d#6 v=50
11880 On ch=1 n=d#6 v=0
11880 On ch=1 n=a#6 v=0
11880 On ch=1 n=b6 v=50
12000 On ch=1 n=b6 v=0
12000 On ch=1 n=d#6 v=50
12000 On ch=1 n=a#6 v=50
12120 On ch=1 n=a#6 v=0
12120 On ch=1 n=d#6 v=0
12120 On ch=1 n=b6 v=50
12240 On ch=1 n=b6 v=0
12240 On ch=1 n=d#6 v=50
12240 On ch=1 n=a#6 v=50
12360 On ch=1 n=a#6 v=0
12360 On ch=1 n=d#6 v=0
12360 On ch=1 n=b6 v=50
12480 On ch=1 n=b6 v=0
12480 On ch=1 n=d#6 v=50
12480 On ch=1 n=a#6 v=50
12600 On ch=1 n=a#6 v=0
12600 On ch=1 n=d#6 v=0
12600 On ch=1 n=b6 v=50
12720 On ch=1 n=b6 v=0
12720 On ch=1 n=d#6 v=50
12720 On ch=1 n=a#6 v=50
12840 On ch=1 n=a#6 v=0
12840 On ch=1 n=d#6 v=0
12840 On ch=1 n=b6 v=50
12960 On ch=1 n=b6 v=0
12960 On ch=1 n=a#6 v=50
12960 On ch=1 n=d#6 v=50
13080 On ch=1 n=d#6 v=0
13080 On ch=1 n=a#6 v=0
13080 On ch=1 n=b6 v=50
13200 On ch=1 n=b6 v=0
13200 On ch=1 n=a#6 v=50
13200 On ch=1 n=d#6 v=50
13320 On ch=1 n=d#6 v=0
13320 On ch=1 n=a#6 v=0
13320 On ch=1 n=b6 v=50
13440 On ch=1 n=b6 v=0
13440 On ch=1 n=d#6 v=50
13440 On ch=1 n=a#6 v=50
13560 On ch=1 n=a#6 v=0
13560 On ch=1 n=d#6 v=0
13560 On ch=1 n=b6 v=50
13680 On ch=1 n=b6 v=0
13680 On ch=1 n=d#6 v=50
13680 On ch=1 n=a#6 v=50
13800 On ch=1 n=a#6 v=0
13800 On ch=1 n=d#6 v=0
13800 On ch=1 n=b6 v=50
13920 On ch=1 n=b6 v=0
13920 On ch=1 n=d#6 v=50
13920 On ch=1 n=a#6 v=50
14040 On ch=1 n=a#6 v=0
14040 On ch=1 n=d#6 v=0
14040 On ch=1 n=b6 v=50
14160 On ch=1 n=b6 v=0
14160 On ch=1 n=d#6 v=50
14160 On ch=1 n=a#6 v=50
14280 On ch=1 n=a#6 v=0
14280 On ch=1 n=d#6 v=0
14280 On ch=1 n=b6 v=50
14400 On ch=1 n=b6 v=0
14400 On ch=1 n=a#6 v=60
14400 On ch=1 n=d#6 v=60
14460 On ch=1 n=a#6 v=0
14460 On ch=1 n=c7 v=60
14520 On ch=1 n=c7 v=0
14520 On ch=1 n=a#6 v=60
14580 On ch=1 n=a#6 v=0
14580 On ch=1 n=c7 v=60
14640 On ch=1 n=c7 v=0
14640 On ch=1 n=a#6 v=60
14700 On ch=1 n=a#6 v=0
14700 On ch=1 n=c7 v=60
14760 On ch=1 n=c7 v=0
14760 On ch=1 n=a#6 v=60
14820 On ch=1 n=a#6 v=0
14820 On ch=1 n=c7 v=60
14880 On ch=1 n=c7 v=0
14880 On ch=1 n=d#6 v=0
14880 On ch=1 n=g#6 v=60
14880 On ch=1 n=c#6 v=60
14940 On ch=1 n=g#6 v=0
14940 On ch=1 n=a#6 v=60
15000 On ch=1 n=a#6 v=0
15000 On ch=1 n=g#6 v=60
15060 On ch=1 n=g#6 v=0
15060 On ch=1 n=a#6 v=60
15120 On ch=1 n=a#6 v=0
15120 On ch=1 n=g#6 v=60
15180 On ch=1 n=g#6 v=0
15180 On ch=1 n=a#6 v=60
15240 On ch=1 n=a#6 v=0
15240 On ch=1 n=g#6 v=60
15300 On ch=1 n=g#6 v=0
15300 On ch=1 n=a#6 v=60
15360 On ch=1 n=a#6 v=0
15360 On ch=1 n=c#6 v=0
15360 On ch=1 n=c#7 v=70
15360 On ch=1 n=f#6 v=70
15420 On ch=1 n=c#7 v=0
15420 On ch=1 n=d#7 v=70
15480 On ch=1 n=d#7 v=0
15480 On ch=1 n=c#7 v=70
15540 On ch=1 n=c#7 v=0
15540 On ch=1 n=d#7 v=70
15600 On ch=1 n=d#7 v=0
15600 On ch=1 n=c#7 v=70
15660 On ch=1 n=c#7 v=0
15660 On ch=1 n=d#7 v=70
15720 On ch=1 n=d#7 v=0
15720 On ch=1 n=c#7 v=70
15780 On ch=1 n=c#7 v=0
15780 On ch=1 n=d#7 v=70
15840 On ch=1 n=d#7 v=0
15840 On ch=1 n=f#6 v=0
15840 On ch=1 n=b6 v=70
15840 On ch=1 n=e6 v=70
15900 On ch=1 n=b6 v=0
15900 On ch=1 n=c#7 v=70
15960 On ch=1 n=c#7 v=0
15960 On ch=1 n=b6 v=70
16020 On ch=1 n=b6 v=0
16020 On ch=1 n=c#7 v=70
16080 On ch=1 n=c#7 v=0
16080 On ch=1 n=b6 v=70
16140 On ch=1 n=b6 v=0
16140 On ch=1 n=c#7 v=70
16200 On ch=1 n=c#7 v=0
16200 On ch=1 n=b6 v=70
16260 On ch=1 n=b6 v=0
16260 On ch=1 n=c#7 v=70
16320 On ch=1 n=c#7 v=0
16320 On ch=1 n=e6 v=0
16320 On ch=1 n=d#6 v=60
16320 On ch=1 n=a#6 v=60
16380 On ch=1 n=a#6 v=0
16380 On ch=1 n=b6 v=60
16440 On ch=1 n=b6 v=0
16440 On ch=1 n=a#6 v=60
16500 On ch=1 n=a#6 v=0
16500 On ch=1 n=b6 v=60
16560 On ch=1 n=b6 v=0
16560 On ch=1 n=a#6 v=60
16620 On ch=1 n=a#6 v=0
16620 On ch=1 n=b6 v=60
16680 On ch=1 n=b6 v=0
16680 On ch=1 n=a#6 v=60
16740 On ch=1 n=a#6 v=0
16740 On ch=1 n=b6 v=60
16800 On ch=1 n=b6 v=0
16800 On ch=1 n=d#6 v=0
16800 On ch=1 n=c#6 v=60
16800 On ch=1 n=g#6 v=60
16860 On ch=1 n=g#6 v=0
16860 On ch=1 n=a#6 v=60
16920 On ch=1 n=a#6 v=0
16920 On ch=1 n=g#6 v=60
16980 On ch=1 n=g#6 v=0
16980 On ch=1 n=a#6 v=60
17040 On ch=1 n=a#6 v=0
17040 On ch=1 n=g#6 v=60
17100 On ch=1 n=g#6 v=0
17100 On ch=1 n=a#6 v=60
17160 On ch=1 n=a#6 v=0
17160 On ch=1 n=g#6 v=60
17220 On ch=1 n=g#6 v=0
17220 On ch=1 n=a#6 v=60
17280 On ch=1 n=a#6 v=0
17280 On ch=1 n=c#6 v=0
17348 On ch=1 n=a#5 v=40
17416 On ch=1 n=a#5 v=0
17416 On ch=1 n=b5 v=40
17484 On ch=1 n=b5 v=0
17484 On ch=1 n=a#5 v=40
17552 On ch=1 n=a#5 v=0
17552 On ch=1 n=b5 v=40
17620 On ch=1 n=b5 v=0
17620 On ch=1 n=a#5 v=40
17688 On ch=1 n=a#5 v=0
17688 On ch=1 n=d#5 v=40
17760 On ch=1 n=d#5 v=0
17828 On ch=1 n=g#5 v=40
17896 On ch=1 n=g#5 v=0
17896 On ch=1 n=a#5 v=40
17964 On ch=1 n=a#5 v=0
17964 On ch=1 n=g#5 v=40
18032 On ch=1 n=g#5 v=0
18032 On ch=1 n=a#5 v=40
18100 On ch=1 n=a#5 v=0
18100 On ch=1 n=g#5 v=40
18168 On ch=1 n=g#5 v=0
18168 On ch=1 n=c#5 v=40
18240 On ch=1 n=c#5 v=0
18308 On ch=1 n=c#6 v=40
18376 On ch=1 n=c#6 v=0
18376 On ch=1 n=d#6 v=40
18444 On ch=1 n=d#6 v=0
18444 On ch=1 n=c#6 v=40
18512 On ch=1 n=c#6 v=0
18512 On ch=1 n=d#6 v=40
18580 On ch=1 n=d#6 v=0
18580 On ch=1 n=c#6 v=40
18648 On ch=1 n=c#6 v=0
18648 On ch=1 n=f#5 v=40
18720 On ch=1 n=f#5 v=0
18788 On ch=1 n=b5 v=40
18856 On ch=1 n=b5 v=0
18856 On ch=1 n=c#6 v=40
18924 On ch=1 n=c#6 v=0
18924 On ch=1 n=b5 v=40
18992 On ch=1 n=b5 v=0
18992 On ch=1 n=c#6 v=40
19060 On ch=1 n=c#6 v=0
19060 On ch=1 n=b5 v=40
19128 On ch=1 n=b5 v=0
19128 On ch=1 n=e5 v=40
19200 On ch=1 n=e5 v=0
19268 On ch=1 n=a#5 v=40
19336 On ch=1 n=a#5 v=0
19336 On ch=1 n=b5 v=40
19404 On ch=1 n=b5 v=0
19404 On ch=1 n=a#5 v=40
19472 On ch=1 n=a#5 v=0
19472 On ch=1 n=b5 v=40
19540 On ch=1 n=b5 v=0
19540 On ch=1 n=a#5 v=40
19608 On ch=1 n=a#5 v=0
19608 On ch=1 n=d#5 v=40
19680 On ch=1 n=d#5 v=0
19748 On ch=1 n=g#5 v=40
19816 On ch=1 n=g#5 v=0
19816 On ch=1 n=a#5 v=40
19884 On ch=1 n=a#5 v=0
19884 On ch=1 n=g#5 v=40
19952 On ch=1 n=g#5 v=0
19952 On ch=1 n=a#5 v=40
20020 On ch=1 n=a#5 v=0
20020 On ch=1 n=g#5 v=40
20088 On ch=1 n=g#5 v=0
20088 On ch=1 n=c#5 v=40
20160 On ch=1 n=c#5 v=0
20160 On ch=1 n=g#5 v=50
20220 On ch=1 n=g#5 v=0
20220 On ch=1 n=a#5 v=50
20280 On ch=1 n=a#5 v=0
20280 On ch=1 n=g#5 v=50
20340 On ch=1 n=g#5 v=0
20340 On ch=1 n=a#5 v=50
20400 On ch=1 n=a#5 v=0
20400 On ch=1 n=g#5 v=50
20460 On ch=1 n=g#5 v=0
20460 On ch=1 n=a#5 v=50
20520 On ch=1 n=a#5 v=0
20520 On ch=1 n=g#5 v=50
20580 On ch=1 n=g#5 v=0
20580 On ch=1 n=a#5 v=50
20640 On ch=1 n=a#5 v=0
20640 On ch=1 n=g#5 v=60
20700 On ch=1 n=g#5 v=0
20700 On ch=1 n=a#5 v=60
20760 On ch=1 n=a#5 v=0
20760 On ch=1 n=g#5 v=60
20820 On ch=1 n=g#5 v=0
20820 On ch=1 n=a#5 v=60
20880 On ch=1 n=a#5 v=0
20880 On ch=1 n=g#5 v=60
20940 On ch=1 n=g#5 v=0
20940 On ch=1 n=a#5 v=60
21000 On ch=1 n=a#5 v=0
21000 On ch=1 n=g#5 v=60
21060 On ch=1 n=g#5 v=0
21060 On ch=1 n=a#5 v=60
21120 On ch=1 n=a#5 v=0
21120 On ch=1 n=g#5 v=70
21180 On ch=1 n=g#5 v=0
21180 On ch=1 n=a#5 v=70
21240 On ch=1 n=a#5 v=0
21240 On ch=1 n=g#5 v=70
21300 On ch=1 n=g#5 v=0
21300 On ch=1 n=a#5 v=70
21360 On ch=1 n=a#5 v=0
21360 On ch=1 n=g#5 v=70
21420 On ch=1 n=g#5 v=0
21420 On ch=1 n=a#5 v=70
21480 On ch=1 n=a#5 v=0
21480 On ch=1 n=g#5 v=70
21540 On ch=1 n=g#5 v=0
21540 On ch=1 n=a#5 v=70
21600 On ch=1 n=a#5 v=0
21600 On ch=1 n=g#5 v=80
21668 On ch=1 n=g#5 v=0
21668 On ch=1 n=a#5 v=80
21736 On ch=1 n=a#5 v=0
21736 On ch=1 n=b5 v=80
21804 On ch=1 n=b5 v=0
21804 On ch=1 n=d6 v=80
21872 On ch=1 n=d6 v=0
21872 On ch=1 n=e6 v=80
21940 On ch=1 n=e6 v=0
21940 On ch=1 n=f6 v=80
22008 On ch=1 n=f6 v=0
22008 On ch=1 n=f#6 v=80
22080 On ch=1 n=f#6 v=0
22216 On ch=1 n=b6 v=90
22284 On ch=1 n=b6 v=0
22284 On ch=1 n=d7 v=90
22352 On ch=1 n=d7 v=0
22352 On ch=1 n=e7 v=90
22420 On ch=1 n=e7 v=0
22420 On ch=1 n=f7 v=90
22488 On ch=1 n=f7 v=0
22488 On ch=1 n=f#7 v=90
22800 On ch=1 n=f#7 v=0
24672 On ch=1 n=g#5 v=40
24768 On ch=1 n=g#5 v=0
24768 On ch=1 n=d#6 v=40
24864 On ch=1 n=d#6 v=0
24864 On ch=1 n=g#6 v=40
24960 On ch=1 n=g#6 v=0
25152 On ch=1 n=f#5 v=40
25248 On ch=1 n=f#5 v=0
25248 On ch=1 n=c#6 v=40
25344 On ch=1 n=c#6 v=0
25344 On ch=1 n=f#6 v=40
25440 On ch=1 n=f#6 v=0
25632 On ch=1 n=d#5 v=40
25728 On ch=1 n=d#5 v=0
25728 On ch=1 n=a#5 v=40
25824 On ch=1 n=a#5 v=0
25824 On ch=1 n=d#6 v=40
25920 On ch=1 n=d#6 v=0
34080 On ch=1 n=d#7 v=80
34080 On ch=1 n=a#6 v=80
34080 On ch=1 n=f#6 v=80
34080 On ch=1 n=d#6 v=80
35040 On ch=1 n=d#6 v=0
35040 On ch=1 n=d#7 v=0
35040 On ch=1 n=c#6 v=80
35040 On ch=1 n=c#7 v=80
35280 On ch=1 n=c#7 v=0
35280 On ch=1 n=c#6 v=0
35280 On ch=1 n=c7 v=80
35280 On ch=1 n=c6 v=80
35520 On ch=1 n=c6 v=0
35520 On ch=1 n=c7 v=0
35520 On ch=1 n=a#5 v=80
35520 On ch=1 n=a#6 v=80
36000 On ch=1 n=a#6 v=0
36000 On ch=1 n=a#5 v=0
36000 On ch=1 n=f#6 v=0
36000 On ch=1 n=a#6 v=0
36000 On ch=1 n=d#5 v=60
36000 On ch=1 n=d#6 v=60
36000 On ch=1 n=a#5 v=60
36000 On ch=1 n=c#6 v=60
36240 On ch=1 n=d#6 v=0
36240 On ch=1 n=d#5 v=0
36240 On ch=1 n=f5 v=60
36240 On ch=1 n=f6 v=60
36480 On ch=1 n=f6 v=0
36480 On ch=1 n=f5 v=0
36480 On ch=1 n=c#6 v=0
36480 On ch=1 n=a#5 v=0
36480 On ch=1 n=f#5 v=60
36480 On ch=1 n=f#6 v=60
36480 On ch=1 n=d#6 v=60
36480 On ch=1 n=c#6 v=60
36720 On ch=1 n=f#6 v=0
36720 On ch=1 n=f#5 v=0
36720 On ch=1 n=g#5 v=60
36720 On ch=1 n=g#6 v=60
36960 On ch=1 n=g#6 v=0
36960 On ch=1 n=g#5 v=0
36960 On ch=1 n=c#6 v=0
36960 On ch=1 n=d#6 v=0
36960 On ch=1 n=a#6 v=60
36960 On ch=1 n=a#5 v=60
37440 On ch=1 n=a#5 v=0
37440 On ch=1 n=a#6 v=0
37440 On ch=1 n=d#6 v=70
37440 On ch=1 n=d#7 v=70
37440 On ch=1 n=a#6 v=70
37440 On ch=1 n=c#7 v=70
37680 On ch=1 n=d#7 v=0
37680 On ch=1 n=d#6 v=0
37680 On ch=1 n=f6 v=70
37680 On ch=1 n=f7 v=70
37920 On ch=1 n=f7 v=0
37920 On ch=1 n=f6 v=0
37920 On ch=1 n=c#7 v=0
37920 On ch=1 n=a#6 v=0
37920 On ch=1 n=e6 v=80
37920 On ch=1 n=e7 v=80
37920 On ch=1 n=a#6 v=80
37920 On ch=1 n=c#7 v=80
38160 On ch=1 n=e7 v=0
38160 On ch=1 n=e6 v=0
38160 On ch=1 n=g7 v=80
38160 On ch=1 n=g6 v=80
38400 On ch=1 n=g6 v=0
38400 On ch=1 n=g7 v=0
38400 On ch=1 n=c#7 v=0
38400 On ch=1 n=a#6 v=0
38400 On ch=1 n=a6 v=90
38400 On ch=1 n=a7 v=90
38640 On ch=1 n=a7 v=0
38640 On ch=1 n=a6 v=0
38640 On ch=1 n=g6 v=90
38640 On ch=1 n=g7 v=90
38880 On ch=1 n=g7 v=0
38880 On ch=1 n=g6 v=0
38880 On ch=1 n=d#6 v=100
38880 On ch=1 n=d#7 v=100
38880 On ch=1 n=a#6 v=100
38880 On ch=1 n=c7 v=100
39120 On ch=1 n=d#7 v=0
39120 On ch=1 n=d#6 v=0
39120 On ch=1 n=a#7 v=100
39120 On ch=1 n=a#6 v=100
39360 On ch=1 n=a#6 v=0
39360 On ch=1 n=a#7 v=0
39360 On ch=1 n=c7 v=0
39360 On ch=1 n=a#6 v=0
45120 On ch=1 n=d#7 v=60
45120 On ch=1 n=d#6 v=60
45120 On ch=1 n=a6 v=60
45600 On ch=1 n=d#6 v=0
45600 On ch=1 n=d#7 v=0
45600 On ch=1 n=d7 v=60
45600 On ch=1 n=d6 v=60
46080 On ch=1 n=d6 v=0
46080 On ch=1 n=d7 v=0
46080 On ch=1 n=c#6 v=60
46080 On ch=1 n=c#7 v=60
47280 On ch=1 n=c#7 v=0
47280 On ch=1 n=c#6 v=0
47280 On ch=1 n=d#7 v=60
47280 On ch=1 n=d#6 v=60
47520 On ch=1 n=d#6 v=0
47520 On ch=1 n=d#7 v=0
47520 On ch=1 n=c#6 v=60
47520 On ch=1 n=c#7 v=60
48720 On ch=1 n=c#7 v=0
48720 On ch=1 n=c#6 v=0
48720 On ch=1 n=d#7 v=60
48720 On ch=1 n=d#6 v=60
48960 On ch=1 n=d#6 v=0
48960 On ch=1 n=d#7 v=0
48960 On ch=1 n=c#7 v=60
48960 On ch=1 n=c#6 v=60
49440 On ch=1 n=a6 v=0
49920 On ch=1 n=c#6 v=0
49920 On ch=1 n=c#7 v=0
49920 On ch=1 n=d#7 v=70
49920 On ch=1 n=d#6 v=70
50400 On ch=1 n=d#6 v=0
50400 On ch=1 n=d#7 v=0
50400 On ch=1 n=g#7 v=70
50400 On ch=1 n=g#6 v=70
50880 On ch=1 n=g#6 v=0
50880 On ch=1 n=g#7 v=0
50880 On ch=1 n=g#5 v=60
50880 On ch=1 n=g#6 v=60
51600 On ch=1 n=g#6 v=0
51600 On ch=1 n=g#5 v=0
51600 On ch=1 n=d#5 v=60
51600 On ch=1 n=d#6 v=60
51840 On ch=1 n=d#6 v=0
51840 On ch=1 n=d#5 v=0
51840 On ch=1 n=c#5 v=60
51840 On ch=1 n=c#6 v=60
52320 On ch=1 n=c#6 v=0
52320 On ch=1 n=c#5 v=0
52320 On ch=1 n=d5 v=60
52320 On ch=1 n=b5 v=60
52320 On ch=1 n=a5 v=60
52560 On ch=1 n=d5 v=0
52560 On ch=1 n=c5 v=60
52800 On ch=1 n=c5 v=0
53040 On ch=1 n=c6 v=60
53040 On ch=1 n=c5 v=60
53280 On ch=1 n=c5 v=0
53280 On ch=1 n=c6 v=0
53280 On ch=1 n=d6 v=60
53280 On ch=1 n=d5 v=60
53760 On ch=1 n=d5 v=0
53760 On ch=1 n=d6 v=0
53760 On ch=1 n=a5 v=0
53760 On ch=1 n=b5 v=0
53760 On ch=1 n=g#5 v=40
53760 On ch=1 n=g#6 v=40
54480 On ch=1 n=g#6 v=0
54480 On ch=1 n=g#5 v=0
54480 On ch=1 n=d#5 v=40
54480 On ch=1 n=d#6 v=40
54720 On ch=1 n=d#6 v=0
54720 On ch=1 n=d#5 v=0
54720 On ch=1 n=c#5 v=40
54720 On ch=1 n=c#6 v=40
55200 On ch=1 n=c#6 v=0
55200 On ch=1 n=c#5 v=0
55200 On ch=1 n=d5 v=40
55200 On ch=1 n=b5 v=40
55200 On ch=1 n=a5 v=40
55440 On ch=1 n=d5 v=0
55440 On ch=1 n=c5 v=40
55680 On ch=1 n=c5 v=0
55920 On ch=1 n=c6 v=40
55920 On ch=1 n=c5 v=40
56160 On ch=1 n=c5 v=0
56160 On ch=1 n=c6 v=0
56160 On ch=1 n=d6 v=40
56160 On ch=1 n=d5 v=40
56640 On ch=1 n=d5 v=0
56640 On ch=1 n=d6 v=0
56640 On ch=1 n=a5 v=0
56640 On ch=1 n=b5 v=0
63840 On ch=1 n=c7 v=80
63840 On ch=1 n=g6 v=80
63840 On ch=1 n=e6 v=80
65520 On ch=1 n=c7 v=0
65520 On ch=1 n=b6 v=80
65700 On ch=1 n=c7 v=80
65760 On ch=1 n=c7 v=0
65760 On ch=1 n=b6 v=0
65760 On ch=1 n=b6 v=80
66000 On ch=1 n=b6 v=0
66000 On ch=1 n=a#6 v=80
66240 On ch=1 n=a#6 v=0
66240 On ch=1 n=f#6 v=80
66480 On ch=1 n=f#6 v=0
66480 On ch=1 n=d#6 v=80
66720 On ch=1 n=d#6 v=0
66720 On ch=1 n=e6 v=0
66720 On ch=1 n=g6 v=0
66720 On ch=1 n=c6 v=70
66960 On ch=1 n=c6 v=0
66960 On ch=1 n=b5 v=70
67140 On ch=1 n=c6 v=70
67200 On ch=1 n=c6 v=0
67200 On ch=1 n=b5 v=0
67200 On ch=1 n=b5 v=70
67440 On ch=1 n=b5 v=0
67440 On ch=1 n=a#5 v=70
67680 On ch=1 n=a#5 v=0
67680 On ch=1 n=g5 v=70
67920 On ch=1 n=g5 v=0
67920 On ch=1 n=e5 v=70
68160 On ch=1 n=e5 v=0
74400 On ch=1 n=g5 v=50
74400 On ch=1 n=d#5 v=50
74640 On ch=1 n=g5 v=0
74640 On ch=1 n=c6 v=50
74880 On ch=1 n=c6 v=0
74880 On ch=1 n=d#5 v=0
74880 On ch=1 n=g#5 v=50
74880 On ch=1 n=e5 v=50
75120 On ch=1 n=e5 v=0
75120 On ch=1 n=g#5 v=0
75120 On ch=1 n=f5 v=50
75360 On ch=1 n=f5 v=0
75600 On ch=1 n=f6 v=50
75840 On ch=1 n=f6 v=0
75840 On ch=1 n=a#6 v=50
76560 On ch=1 n=a#6 v=0
76560 On ch=1 n=f6 v=50
76800 On ch=1 n=f6 v=0
77040 On ch=1 n=f6 v=50
77280 On ch=1 n=f6 v=0
77280 On ch=1 n=a#6 v=50
78000 On ch=1 n=a#6 v=0
78000 On ch=1 n=f6 v=50
78240 On ch=1 n=f6 v=0
78600 On ch=1 n=f6 v=50
78720 On ch=1 n=f6 v=0
78720 On ch=1 n=a#6 v=60
78840 On ch=1 n=a#6 v=0
78840 On ch=1 n=a6 v=60
78960 On ch=1 n=a6 v=0
78960 On ch=1 n=f#6 v=60
79080 On ch=1 n=f#6 v=0
79080 On ch=1 n=d6 v=60
79200 On ch=1 n=d6 v=0
79200 On ch=1 n=a#5 v=70
79320 On ch=1 n=a#5 v=0
79320 On ch=1 n=a5 v=70
79440 On ch=1 n=a5 v=0
79440 On ch=1 n=f#5 v=70
79560 On ch=1 n=f#5 v=0
79560 On ch=1 n=d5 v=70
79680 On ch=1 n=d5 v=0
80640 On ch=1 n=a#6 v=40
80640 On ch=1 n=f6 v=40
80640 On ch=1 n=c#6 v=40
80640 On ch=1 n=a#5 v=40
81360 On ch=1 n=g#4 v=40
81480 On ch=1 n=g#4 v=0
81480 On ch=1 n=a#4 v=40
81600 On ch=1 n=a#4 v=0
81600 On ch=1 n=c#5 v=40
81720 On ch=1 n=c#5 v=0
81720 On ch=1 n=d#5 v=40
81840 On ch=1 n=d#5 v=0
82080 On ch=1 n=c#6 v=40
82200 On ch=1 n=c#6 v=0
82200 On ch=1 n=d#6 v=40
82320 On ch=1 n=d#6 v=0
82320 On ch=1 n=g#6 v=40
82440 On ch=1 n=g#6 v=0
82440 On ch=1 n=a#6 v=40
82560 On ch=1 n=a#6 v=0
82560 On ch=1 n=c#6 v=0
82560 On ch=1 n=a#5 v=0
82560 On ch=1 n=f6 v=0
82560 On ch=1 n=a#6 v=0
82920 On ch=1 n=c7 v=60
83040 On ch=1 n=c7 v=0
83040 On ch=1 n=d#7 v=60
83100 On ch=1 n=d#7 v=0
83100 On ch=1 n=c#7 v=60
83160 On ch=1 n=c#7 v=0
83160 On ch=1 n=a#6 v=60
83220 On ch=1 n=a#6 v=0
83220 On ch=1 n=g6 v=60
83280 On ch=1 n=g6 v=0
83280 On ch=1 n=d#6 v=60
83340 On ch=1 n=d#6 v=0
83340 On ch=1 n=c#6 v=60
83400 On ch=1 n=c#6 v=0
83400 On ch=1 n=a#5 v=60
83460 On ch=1 n=a#5 v=0
83460 On ch=1 n=g5 v=60
83520 On ch=1 n=g5 v=0
84000 On ch=1 n=f#5 v=60
84480 On ch=1 n=f#5 v=0
84480 On ch=1 n=e5 v=60
84960 On ch=1 n=e5 v=0
84960 On ch=1 n=c5 v=60
85440 On ch=1 n=c5 v=0
85800 On ch=1 n=c5 v=60
85920 On ch=1 n=c5 v=0
85920 On ch=1 n=d#5 v=60
85980 On ch=1 n=d#5 v=0
85980 On ch=1 n=c#5 v=60
86040 On ch=1 n=c#5 v=0
86040 On ch=1 n=a#4 v=60
86100 On ch=1 n=a#4 v=0
86100 On ch=1 n=c#5 v=60
86160 On ch=1 n=c#5 v=0
86160 On ch=1 n=d#5 v=60
86220 On ch=1 n=d#5 v=0
86220 On ch=1 n=g5 v=60
86280 On ch=1 n=g5 v=0
86280 On ch=1 n=a#5 v=60
86340 On ch=1 n=a#5 v=0
86880 On ch=1 n=c#5 v=60
87360 On ch=1 n=c#5 v=0
87360 On ch=1 n=e5 v=60
87840 On ch=1 n=e5 v=0
87840 On ch=1 n=f#5 v=60
88320 On ch=1 n=f#5 v=0
88680 On ch=1 n=c7 v=80
88800 On ch=1 n=c7 v=0
88800 On ch=1 n=d#7 v=80
88860 On ch=1 n=d#7 v=0
88860 On ch=1 n=c#7 v=80
88920 On ch=1 n=c#7 v=0
88920 On ch=1 n=a#6 v=80
88980 On ch=1 n=a#6 v=0
88980 On ch=1 n=g6 v=80
89040 On ch=1 n=g6 v=0
89040 On ch=1 n=d#6 v=80
89100 On ch=1 n=d#6 v=0
89100 On ch=1 n=c#6 v=80
89160 On ch=1 n=c#6 v=0
89160 On ch=1 n=a#5 v=80
89220 On ch=1 n=a#5 v=0
89220 On ch=1 n=g5 v=80
89280 On ch=1 n=g5 v=0
90120 On ch=1 n=c7 v=80
90240 On ch=1 n=c7 v=0
90240 On ch=1 n=d#7 v=80
90300 On ch=1 n=d#7 v=0
90300 On ch=1 n=c#7 v=80
90360 On ch=1 n=c#7 v=0
90360 On ch=1 n=a#6 v=80
90420 On ch=1 n=a#6 v=0
90420 On ch=1 n=g6 v=80
90480 On ch=1 n=g6 v=0
90480 On ch=1 n=d#6 v=80
90540 On ch=1 n=d#6 v=0
90540 On ch=1 n=c#6 v=80
90600 On ch=1 n=c#6 v=0
90600 On ch=1 n=a#5 v=80
90660 On ch=1 n=a#5 v=0
90660 On ch=1 n=g5 v=80
90720 On ch=1 n=g5 v=0
91560 On ch=1 n=c5 v=90
91680 On ch=1 n=c5 v=0
91680 On ch=1 n=d#5 v=90
91800 On ch=1 n=d#5 v=0
91800 On ch=1 n=c#5 v=90
91920 On ch=1 n=c#5 v=0
91920 On ch=1 n=a#4 v=90
92040 On ch=1 n=a#4 v=0
92040 On ch=1 n=g4 v=90
92160 On ch=1 n=g4 v=0
92160 On ch=1 n=a#4 v=90
92280 On ch=1 n=a#4 v=0
92280 On ch=1 n=c#5 v=90
92400 On ch=1 n=c#5 v=0
92400 On ch=1 n=d#5 v=90
92520 On ch=1 n=d#5 v=0
92520 On ch=1 n=g5 v=90
92640 On ch=1 n=g5 v=0
92640 On ch=1 n=a5 v=90
92736 On ch=1 n=a5 v=0
92736 On ch=1 n=c6 v=90
92832 On ch=1 n=c6 v=0
92832 On ch=1 n=a#5 v=90
92928 On ch=1 n=a#5 v=0
92928 On ch=1 n=g5 v=90
93024 On ch=1 n=g5 v=0
93024 On ch=1 n=e5 v=90
93120 On ch=1 n=e5 v=0
93120 On ch=1 n=c6 v=90
93216 On ch=1 n=c6 v=0
93216 On ch=1 n=d#6 v=90
93312 On ch=1 n=d#6 v=0
93312 On ch=1 n=c#6 v=90
93408 On ch=1 n=c#6 v=0
93408 On ch=1 n=a#5 v=90
93504 On ch=1 n=a#5 v=0
93504 On ch=1 n=g5 v=90
93600 On ch=1 n=g5 v=0
93600 On ch=1 n=a5 v=90
93696 On ch=1 n=a5 v=0
93696 On ch=1 n=c6 v=90
93792 On ch=1 n=c6 v=0
93792 On ch=1 n=a#5 v=90
93888 On ch=1 n=a#5 v=0
93888 On ch=1 n=g5 v=90
93984 On ch=1 n=g5 v=0
93984 On ch=1 n=e5 v=90
94080 On ch=1 n=e5 v=0
94080 On ch=1 n=c6 v=90
94176 On ch=1 n=c6 v=0
94176 On ch=1 n=d#6 v=90
94272 On ch=1 n=d#6 v=0
94272 On ch=1 n=c#6 v=90
94368 On ch=1 n=c#6 v=0
94368 On ch=1 n=a#5 v=90
94464 On ch=1 n=a#5 v=0
94464 On ch=1 n=g5 v=90
94560 On ch=1 n=g5 v=0
94560 On ch=1 n=a5 v=80
94656 On ch=1 n=a5 v=0
94656 On ch=1 n=c6 v=80
94752 On ch=1 n=c6 v=0
94752 On ch=1 n=a#5 v=80
94848 On ch=1 n=a#5 v=0
94848 On ch=1 n=g5 v=80
94944 On ch=1 n=g5 v=0
94944 On ch=1 n=e5 v=80
95040 On ch=1 n=e5 v=0
95040 On ch=1 n=e6 v=70
95100 On ch=1 n=e6 v=0
95160 On ch=1 n=g6 v=70
95220 On ch=1 n=g6 v=0
95280 On ch=1 n=g#6 v=70
95340 On ch=1 n=g#6 v=0
95400 On ch=1 n=a6 v=70
95460 On ch=1 n=a6 v=0
95520 On ch=1 n=a#6 v=60
95520 On ch=1 n=a#5 v=60
95520 On ch=1 n=f6 v=60
95520 On ch=1 n=d6 v=60
96480 On ch=1 n=a#5 v=0
96480 On ch=1 n=a#6 v=0
96480 On ch=1 n=g#6 v=60
96480 On ch=1 n=g#5 v=60
96960 On ch=1 n=g#5 v=0
96960 On ch=1 n=g#6 v=0
96960 On ch=1 n=d6 v=0
96960 On ch=1 n=f6 v=0
96960 On ch=1 n=f6 v=60
96960 On ch=1 n=c6 v=60
96960 On ch=1 n=a5 v=60
96960 On ch=1 n=f5 v=60
97440 On ch=1 n=f5 v=0
97440 On ch=1 n=a5 v=0
97440 On ch=1 n=c6 v=0
97440 On ch=1 n=f6 v=0
97440 On ch=1 n=a5 v=60
97440 On ch=1 n=f#5 v=60
97440 On ch=1 n=d5 v=60
97440 On ch=1 n=d6 v=60
97920 On ch=1 n=d6 v=0
97920 On ch=1 n=d5 v=0
97920 On ch=1 n=c6 v=60
97920 On ch=1 n=c5 v=60
98400 On ch=1 n=c5 v=0
98400 On ch=1 n=c6 v=0
98400 On ch=1 n=f#5 v=0
98400 On ch=1 n=a5 v=0
98400 On ch=1 n=a4 v=60
98400 On ch=1 n=b4 v=60
98400 On ch=1 n=f5 v=60
98400 On ch=1 n=d#5 v=60
98400 On ch=1 n=a5 v=60
99360 On ch=1 n=a5 v=0
99360 On ch=1 n=b4 v=0
99360 On ch=1 n=a4 v=0
99360 On ch=1 n=b4 v=60
99360 On ch=1 n=b5 v=60
99840 On ch=1 n=b5 v=0
99840 On ch=1 n=b4 v=0
99840 On ch=1 n=d#5 v=0
99840 On ch=1 n=f5 v=0
99840 On ch=1 n=c5 v=70
99840 On ch=1 n=d#5 v=70
99840 On ch=1 n=f#5 v=70
99840 On ch=1 n=g#5 v=70
99840 On ch=1 n=c6 v=70
100800 On ch=1 n=c6 v=0
100800 On ch=1 n=g#5 v=0
100800 On ch=1 n=f#5 v=0
100800 On ch=1 n=d#5 v=0
100800 On ch=1 n=c5 v=0
100800 On ch=1 n=d6 v=70
100800 On ch=1 n=d5 v=70
101280 On ch=1 n=d5 v=0
101280 On ch=1 n=d6 v=0
101280 On ch=1 n=a#5 v=80
101280 On ch=1 n=a#6 v=80
101280 On ch=1 n=f6 v=80
101280 On ch=1 n=d6 v=80
102240 On ch=1 n=a#6 v=0
102240 On ch=1 n=a#5 v=0
102240 On ch=1 n=g#5 v=80
102240 On ch=1 n=g#6 v=80
102720 On ch=1 n=g#6 v=0
102720 On ch=1 n=g#5 v=0
102720 On ch=1 n=d6 v=0
102720 On ch=1 n=f6 v=0
102720 On ch=1 n=f6 v=90
102720 On ch=1 n=c6 v=90
102720 On ch=1 n=a5 v=90
102720 On ch=1 n=f5 v=90
103200 On ch=1 n=f5 v=0
103200 On ch=1 n=a5 v=0
103200 On ch=1 n=c6 v=0
103200 On ch=1 n=f6 v=0
103200 On ch=1 n=d6 v=90
103200 On ch=1 n=d5 v=90
103200 On ch=1 n=a5 v=90
103200 On ch=1 n=f#5 v=90
103680 On ch=1 n=d5 v=0
103680 On ch=1 n=d6 v=0
103680 On ch=1 n=c5 v=90
103680 On ch=1 n=c6 v=90
104160 On ch=1 n=c6 v=0
104160 On ch=1 n=c5 v=0
104160 On ch=1 n=f#5 v=0
104160 On ch=1 n=a5 v=0
104160 On ch=1 n=a6 v=125
104220 On ch=1 n=a6 v=0
104220 On ch=1 n=b6 v=125
104280 On ch=1 n=b6 v=0
104280 On ch=1 n=a6 v=125
104340 On ch=1 n=a6 v=0
104340 On ch=1 n=b6 v=125
104400 On ch=1 n=b6 v=0
104400 On ch=1 n=a6 v=125
104460 On ch=1 n=a6 v=0
104460 On ch=1 n=b6 v=60
104520 On ch=1 n=b6 v=0
104520 On ch=1 n=a6 v=60
104580 On ch=1 n=a6 v=0
104580 On ch=1 n=b6 v=60
104640 On ch=1 n=b6 v=0
104640 On ch=1 n=a6 v=60
104700 On ch=1 n=a6 v=0
104700 On ch=1 n=b6 v=60
104760 On ch=1 n=b6 v=0
104760 On ch=1 n=a6 v=60
104820 On ch=1 n=a6 v=0
104820 On ch=1 n=b6 v=60
104880 On ch=1 n=b6 v=0
104880 On ch=1 n=a6 v=60
104940 On ch=1 n=a6 v=0
104940 On ch=1 n=b6 v=60
105000 On ch=1 n=b6 v=0
105000 On ch=1 n=a6 v=60
105060 On ch=1 n=a6 v=0
105060 On ch=1 n=b6 v=60
105120 On ch=1 n=b6 v=0
105120 On ch=1 n=a6 v=60
105180 On ch=1 n=a6 v=0
105180 On ch=1 n=b6 v=60
105240 On ch=1 n=b6 v=0
105240 On ch=1 n=a6 v=60
105300 On ch=1 n=a6 v=0
105300 On ch=1 n=b6 v=60
105360 On ch=1 n=b6 v=0
105360 On ch=1 n=a6 v=60
105420 On ch=1 n=a6 v=0
105420 On ch=1 n=b6 v=60
105480 On ch=1 n=b6 v=0
105480 On ch=1 n=a6 v=60
105540 On ch=1 n=a6 v=0
105540 On ch=1 n=b6 v=60
105600 On ch=1 n=b6 v=0
105600 On ch=1 n=a6 v=55
105660 On ch=1 n=a6 v=0
105660 On ch=1 n=b6 v=55
105720 On ch=1 n=b6 v=0
105720 On ch=1 n=a6 v=55
105780 On ch=1 n=a6 v=0
105780 On ch=1 n=b6 v=55
105840 On ch=1 n=b6 v=0
105840 On ch=1 n=a6 v=55
105900 On ch=1 n=a6 v=0
105900 On ch=1 n=b6 v=55
105960 On ch=1 n=b6 v=0
105960 On ch=1 n=a6 v=55
106020 On ch=1 n=a6 v=0
106020 On ch=1 n=b6 v=55
106080 On ch=1 n=b6 v=0
106080 On ch=1 n=a6 v=55
106140 On ch=1 n=a6 v=0
106140 On ch=1 n=b6 v=55
106200 On ch=1 n=b6 v=0
106200 On ch=1 n=a6 v=55
106260 On ch=1 n=a6 v=0
106260 On ch=1 n=b6 v=55
106320 On ch=1 n=b6 v=0
106320 On ch=1 n=a6 v=55
106380 On ch=1 n=a6 v=0
106380 On ch=1 n=b6 v=55
106440 On ch=1 n=b6 v=0
106440 On ch=1 n=a6 v=55
106500 On ch=1 n=a6 v=0
106500 On ch=1 n=b6 v=55
106560 On ch=1 n=b6 v=0
106560 On ch=1 n=a6 v=55
106620 On ch=1 n=a6 v=0
106620 On ch=1 n=b6 v=55
106680 On ch=1 n=b6 v=0
106680 On ch=1 n=a6 v=55
106740 On ch=1 n=a6 v=0
106740 On ch=1 n=b6 v=55
106800 On ch=1 n=b6 v=0
106800 On ch=1 n=a6 v=55
106860 On ch=1 n=a6 v=0
106860 On ch=1 n=b6 v=55
106920 On ch=1 n=b6 v=0
106920 On ch=1 n=a6 v=55
106980 On ch=1 n=a6 v=0
106980 On ch=1 n=b6 v=55
107040 On ch=1 n=b6 v=0
107040 On ch=1 n=a6 v=50
107100 On ch=1 n=a6 v=0
107100 On ch=1 n=b6 v=50
107160 On ch=1 n=b6 v=0
107160 On ch=1 n=a6 v=50
107220 On ch=1 n=a6 v=0
107220 On ch=1 n=b6 v=50
107280 On ch=1 n=b6 v=0
107280 On ch=1 n=a6 v=50
107340 On ch=1 n=a6 v=0
107340 On ch=1 n=b6 v=50
107400 On ch=1 n=b6 v=0
107400 On ch=1 n=a6 v=50
107460 On ch=1 n=a6 v=0
107460 On ch=1 n=b6 v=50
107520 On ch=1 n=b6 v=0
107520 On ch=1 n=a6 v=50
107580 On ch=1 n=a6 v=0
107580 On ch=1 n=b6 v=50
107640 On ch=1 n=b6 v=0
107640 On ch=1 n=a6 v=50
107700 On ch=1 n=a6 v=0
107700 On ch=1 n=b6 v=50
107760 On ch=1 n=b6 v=0
107760 On ch=1 n=a6 v=50
107820 On ch=1 n=a6 v=0
107820 On ch=1 n=b6 v=50
107880 On ch=1 n=b6 v=0
107880 On ch=1 n=a6 v=50
107940 On ch=1 n=a6 v=0
107940 On ch=1 n=b6 v=50
108000 On ch=1 n=b6 v=0
108000 On ch=1 n=a6 v=50
108060 On ch=1 n=a6 v=0
108060 On ch=1 n=b6 v=50
108120 On ch=1 n=b6 v=0
108120 On ch=1 n=a6 v=50
108180 On ch=1 n=a6 v=0
108180 On ch=1 n=b6 v=50
108240 On ch=1 n=b6 v=0
108240 On ch=1 n=a6 v=50
108300 On ch=1 n=a6 v=0
108300 On ch=1 n=b6 v=50
108360 On ch=1 n=b6 v=0
108360 On ch=1 n=a6 v=50
108420 On ch=1 n=a6 v=0
108420 On ch=1 n=b6 v=50
108480 On ch=1 n=b6 v=0
108480 On ch=1 n=a6 v=45
108540 On ch=1 n=a6 v=0
108540 On ch=1 n=b6 v=45
108600 On ch=1 n=b6 v=0
108600 On ch=1 n=a6 v=45
108660 On ch=1 n=a6 v=0
108660 On ch=1 n=b6 v=45
108720 On ch=1 n=b6 v=0
108720 On ch=1 n=a6 v=45
108780 On ch=1 n=a6 v=0
108780 On ch=1 n=b6 v=45
108840 On ch=1 n=b6 v=0
108840 On ch=1 n=a6 v=45
108900 On ch=1 n=a6 v=0
108900 On ch=1 n=b6 v=45
108960 On ch=1 n=b6 v=0
108960 On ch=1 n=a6 v=45
109020 On ch=1 n=a6 v=0
109020 On ch=1 n=b6 v=45
109080 On ch=1 n=b6 v=0
109080 On ch=1 n=a6 v=45
109140 On ch=1 n=a6 v=0
109140 On ch=1 n=b6 v=45
109200 On ch=1 n=b6 v=0
109200 On ch=1 n=a6 v=45
109260 On ch=1 n=a6 v=0
109260 On ch=1 n=b6 v=45
109320 On ch=1 n=b6 v=0
109320 On ch=1 n=a6 v=45
109380 On ch=1 n=a6 v=0
109380 On ch=1 n=b6 v=45
109440 On ch=1 n=b6 v=0
109440 On ch=1 n=a5 v=45
109500 On ch=1 n=a5 v=0
109500 On ch=1 n=b5 v=45
109560 On ch=1 n=b5 v=0
109560 On ch=1 n=a5 v=45
109620 On ch=1 n=a5 v=0
109620 On ch=1 n=b5 v=45
109680 On ch=1 n=b5 v=0
109680 On ch=1 n=a5 v=45
109740 On ch=1 n=a5 v=0
109740 On ch=1 n=b5 v=45
109800 On ch=1 n=b5 v=0
109800 On ch=1 n=a5 v=45
109860 On ch=1 n=a5 v=0
109860 On ch=1 n=b5 v=45
109920 On ch=1 n=b5 v=0
109920 On ch=1 n=a5 v=40
109980 On ch=1 n=a5 v=0
109980 On ch=1 n=b5 v=40
110040 On ch=1 n=b5 v=0
110040 On ch=1 n=a5 v=40
110100 On ch=1 n=a5 v=0
110100 On ch=1 n=b5 v=40
110160 On ch=1 n=b5 v=0
110160 On ch=1 n=a5 v=40
110220 On ch=1 n=a5 v=0
110220 On ch=1 n=b5 v=40
110280 On ch=1 n=b5 v=0
110280 On ch=1 n=a5 v=40
110340 On ch=1 n=a5 v=0
110340 On ch=1 n=b5 v=40
110400 On ch=1 n=b5 v=0
110400 On ch=1 n=a5 v=40
110460 On ch=1 n=a5 v=0
110460 On ch=1 n=b5 v=40
110520 On ch=1 n=b5 v=0
110520 On ch=1 n=a5 v=40
110580 On ch=1 n=a5 v=0
110580 On ch=1 n=b5 v=40
110640 On ch=1 n=b5 v=0
110640 On ch=1 n=a5 v=40
110700 On ch=1 n=a5 v=0
110700 On ch=1 n=b5 v=40
110760 On ch=1 n=b5 v=0
110760 On ch=1 n=a5 v=40
110820 On ch=1 n=a5 v=0
110820 On ch=1 n=b5 v=40
110880 On ch=1 n=b5 v=0
110880 On ch=1 n=a5 v=40
110940 On ch=1 n=a5 v=0
110940 On ch=1 n=b5 v=40
111000 On ch=1 n=b5 v=0
111000 On ch=1 n=a5 v=40
111060 On ch=1 n=a5 v=0
111060 On ch=1 n=b5 v=40
111120 On ch=1 n=b5 v=0
111120 On ch=1 n=a5 v=40
111180 On ch=1 n=a5 v=0
111180 On ch=1 n=b5 v=40
111240 On ch=1 n=b5 v=0
111240 On ch=1 n=a5 v=40
111300 On ch=1 n=a5 v=0
111300 On ch=1 n=b5 v=40
111360 On ch=1 n=b5 v=0
111360 On ch=1 n=a5 v=40
111420 On ch=1 n=a5 v=0
111420 On ch=1 n=b5 v=40
111480 On ch=1 n=b5 v=0
111480 On ch=1 n=a5 v=40
111540 On ch=1 n=a5 v=0
111540 On ch=1 n=b5 v=40
111600 On ch=1 n=b5 v=0
111600 On ch=1 n=a5 v=40
111660 On ch=1 n=a5 v=0
111660 On ch=1 n=b5 v=40
111720 On ch=1 n=b5 v=0
111720 On ch=1 n=a5 v=40
111780 On ch=1 n=a5 v=0
111780 On ch=1 n=b5 v=40
111840 On ch=1 n=b5 v=0
111840 On ch=1 n=a5 v=40
111900 On ch=1 n=a5 v=0
111900 On ch=1 n=b5 v=40
111960 On ch=1 n=b5 v=0
111960 On ch=1 n=a5 v=40
112020 On ch=1 n=a5 v=0
112020 On ch=1 n=b5 v=40
112080 On ch=1 n=b5 v=0
112080 On ch=1 n=a5 v=40
112140 On ch=1 n=a5 v=0
112140 On ch=1 n=b5 v=40
112200 On ch=1 n=b5 v=0
112200 On ch=1 n=a5 v=40
112260 On ch=1 n=a5 v=0
112260 On ch=1 n=b5 v=40
112320 On ch=1 n=b5 v=0
112320 On ch=1 n=a5 v=40
112380 On ch=1 n=a5 v=0
112380 On ch=1 n=b5 v=40
112440 On ch=1 n=b5 v=0
112440 On ch=1 n=a5 v=40
112500 On ch=1 n=a5 v=0
112500 On ch=1 n=b5 v=40
112560 On ch=1 n=b5 v=0
112560 On ch=1 n=a5 v=40
112620 On ch=1 n=a5 v=0
112620 On ch=1 n=b5 v=40
112680 On ch=1 n=b5 v=0
112680 On ch=1 n=a5 v=40
112740 On ch=1 n=a5 v=0
112740 On ch=1 n=b5 v=40
112800 On ch=1 n=b5 v=0
112800 On ch=1 n=a5 v=40
112860 On ch=1 n=a5 v=0
112860 On ch=1 n=b5 v=40
112920 On ch=1 n=b5 v=0
112920 On ch=1 n=a5 v=40
112980 On ch=1 n=a5 v=0
112980 On ch=1 n=b5 v=40
113040 On ch=1 n=b5 v=0
113040 On ch=1 n=a5 v=40
113100 On ch=1 n=a5 v=0
113100 On ch=1 n=b5 v=40
113160 On ch=1 n=b5 v=0
113160 On ch=1 n=a5 v=40
113220 On ch=1 n=a5 v=0
113220 On ch=1 n=b5 v=40
113280 On ch=1 n=b5 v=0
113280 On ch=1 n=a5 v=40
113340 On ch=1 n=a5 v=0
113340 On ch=1 n=b5 v=40
113400 On ch=1 n=b5 v=0
113400 On ch=1 n=a5 v=40
113460 On ch=1 n=a5 v=0
113460 On ch=1 n=b5 v=40
113520 On ch=1 n=b5 v=0
113520 On ch=1 n=a5 v=40
113580 On ch=1 n=a5 v=0
113580 On ch=1 n=b5 v=40
113640 On ch=1 n=b5 v=0
113640 On ch=1 n=a5 v=40
113700 On ch=1 n=a5 v=0
113700 On ch=1 n=b5 v=40
113760 On ch=1 n=b5 v=0
113760 On ch=1 n=a5 v=40
113820 On ch=1 n=a5 v=0
113820 On ch=1 n=b5 v=40
113880 On ch=1 n=b5 v=0
113880 On ch=1 n=a5 v=40
113940 On ch=1 n=a5 v=0
113940 On ch=1 n=b5 v=40
114000 On ch=1 n=b5 v=0
114000 On ch=1 n=a5 v=40
114060 On ch=1 n=a5 v=0
114060 On ch=1 n=b5 v=40
114120 On ch=1 n=b5 v=0
114120 On ch=1 n=a5 v=40
114180 On ch=1 n=a5 v=0
114180 On ch=1 n=b5 v=40
114240 On ch=1 n=b5 v=0
114240 On ch=1 n=a5 v=40
114300 On ch=1 n=a5 v=0
114300 On ch=1 n=b5 v=40
114360 On ch=1 n=b5 v=0
114360 On ch=1 n=a5 v=40
114420 On ch=1 n=a5 v=0
114420 On ch=1 n=b5 v=40
114480 On ch=1 n=b5 v=0
114480 On ch=1 n=a5 v=40
114540 On ch=1 n=a5 v=0
114540 On ch=1 n=b5 v=40
114600 On ch=1 n=b5 v=0
114600 On ch=1 n=a5 v=40
114660 On ch=1 n=a5 v=0
114660 On ch=1 n=b5 v=40
114720 On ch=1 n=b5 v=0
114720 On ch=1 n=a5 v=40
114780 On ch=1 n=a5 v=0
114780 On ch=1 n=b5 v=40
114840 On ch=1 n=b5 v=0
114840 On ch=1 n=a5 v=40
114900 On ch=1 n=a5 v=0
114900 On ch=1 n=b5 v=40
114960 On ch=1 n=b5 v=0
114960 On ch=1 n=a5 v=40
115020 On ch=1 n=a5 v=0
115020 On ch=1 n=b5 v=40
115080 On ch=1 n=b5 v=0
115080 On ch=1 n=a5 v=40
115140 On ch=1 n=a5 v=0
115140 On ch=1 n=b5 v=40
115200 On ch=1 n=b5 v=0
115200 On ch=1 n=a5 v=40
115260 On ch=1 n=a5 v=0
115260 On ch=1 n=b5 v=40
115320 On ch=1 n=b5 v=0
115320 On ch=1 n=a5 v=40
115380 On ch=1 n=a5 v=0
115380 On ch=1 n=b5 v=40
115440 On ch=1 n=b5 v=0
115440 On ch=1 n=a5 v=40
115500 On ch=1 n=a5 v=0
115500 On ch=1 n=b5 v=40
115560 On ch=1 n=b5 v=0
115560 On ch=1 n=a5 v=40
115620 On ch=1 n=a5 v=0
115620 On ch=1 n=b5 v=40
115680 On ch=1 n=b5 v=0
115680 On ch=1 n=a5 v=40
115740 On ch=1 n=a5 v=0
115740 On ch=1 n=b5 v=40
115800 On ch=1 n=b5 v=0
115800 On ch=1 n=a5 v=40
115860 On ch=1 n=a5 v=0
115860 On ch=1 n=b5 v=40
115920 On ch=1 n=b5 v=0
115920 On ch=1 n=a5 v=40
115980 On ch=1 n=a5 v=0
115980 On ch=1 n=b5 v=40
116040 On ch=1 n=b5 v=0
116040 On ch=1 n=a5 v=40
116100 On ch=1 n=a5 v=0
116100 On ch=1 n=b5 v=40
116160 On ch=1 n=b5 v=0
116160 On ch=1 n=a5 v=40
116220 On ch=1 n=a5 v=0
116220 On ch=1 n=b5 v=40
116280 On ch=1 n=b5 v=0
116280 On ch=1 n=a5 v=40
116340 On ch=1 n=a5 v=0
116340 On ch=1 n=b5 v=40
116400 On ch=1 n=b5 v=0
116400 On ch=1 n=a5 v=40
116460 On ch=1 n=a5 v=0
116460 On ch=1 n=b5 v=40
116520 On ch=1 n=b5 v=0
116520 On ch=1 n=a5 v=40
116580 On ch=1 n=a5 v=0
116580 On ch=1 n=b5 v=40
116640 On ch=1 n=b5 v=0
116640 On ch=1 n=a5 v=40
116700 On ch=1 n=a5 v=0
116700 On ch=1 n=b5 v=40
116760 On ch=1 n=b5 v=0
116760 On ch=1 n=a5 v=40
116820 On ch=1 n=a5 v=0
116820 On ch=1 n=b5 v=40
116880 On ch=1 n=b5 v=0
116880 On ch=1 n=a5 v=40
116940 On ch=1 n=a5 v=0
116940 On ch=1 n=b5 v=40
117000 On ch=1 n=b5 v=0
117000 On ch=1 n=a5 v=40
117060 On ch=1 n=a5 v=0
117060 On ch=1 n=b5 v=40
117120 On ch=1 n=b5 v=0
117120 On ch=1 n=a5 v=40
117180 On ch=1 n=a5 v=0
117180 On ch=1 n=b5 v=40
117240 On ch=1 n=b5 v=0
117240 On ch=1 n=a5 v=40
117300 On ch=1 n=a5 v=0
117300 On ch=1 n=b5 v=40
117360 On ch=1 n=b5 v=0
117360 On ch=1 n=a5 v=40
117420 On ch=1 n=a5 v=0
117420 On ch=1 n=b5 v=40
117480 On ch=1 n=b5 v=0
117480 On ch=1 n=a5 v=40
117540 On ch=1 n=a5 v=0
117540 On ch=1 n=b5 v=40
117600 On ch=1 n=b5 v=0
117600 On ch=1 n=a5 v=40
117660 On ch=1 n=a5 v=0
117660 On ch=1 n=b5 v=40
117720 On ch=1 n=b5 v=0
117720 On ch=1 n=a5 v=40
117780 On ch=1 n=a5 v=0
117780 On ch=1 n=b5 v=40
117840 On ch=1 n=b5 v=0
117840 On ch=1 n=a5 v=40
117900 On ch=1 n=a5 v=0
117900 On ch=1 n=b5 v=40
117960 On ch=1 n=b5 v=0
117960 On ch=1 n=a5 v=40
118020 On ch=1 n=a5 v=0
118020 On ch=1 n=b5 v=40
118080 On ch=1 n=b5 v=0
118080 On ch=1 n=a5 v=40
118140 On ch=1 n=a5 v=0
118140 On ch=1 n=b5 v=40
118200 On ch=1 n=b5 v=0
118200 On ch=1 n=a5 v=40
118260 On ch=1 n=a5 v=0
118260 On ch=1 n=b5 v=40
118320 On ch=1 n=b5 v=0
118320 On ch=1 n=a5 v=40
118380 On ch=1 n=a5 v=0
118380 On ch=1 n=b5 v=40
118440 On ch=1 n=b5 v=0
118440 On ch=1 n=a5 v=40
118500 On ch=1 n=a5 v=0
118500 On ch=1 n=b5 v=40
118560 On ch=1 n=b5 v=0
118560 On ch=1 n=a5 v=40
118620 On ch=1 n=a5 v=0
118620 On ch=1 n=b5 v=40
118680 On ch=1 n=b5 v=0
118680 On ch=1 n=a5 v=40
118740 On ch=1 n=a5 v=0
118740 On ch=1 n=b5 v=40
118800 On ch=1 n=b5 v=0
118800 On ch=1 n=a5 v=40
118860 On ch=1 n=a5 v=0
118860 On ch=1 n=b5 v=40
118920 On ch=1 n=b5 v=0
118920 On ch=1 n=a5 v=40
118980 On ch=1 n=a5 v=0
118980 On ch=1 n=b5 v=40
119040 On ch=1 n=b5 v=0
119040 On ch=1 n=a5 v=40
119100 On ch=1 n=a5 v=0
119100 On ch=1 n=b5 v=40
119160 On ch=1 n=b5 v=0
119160 On ch=1 n=a5 v=40
119220 On ch=1 n=a5 v=0
119220 On ch=1 n=b5 v=40
119280 On ch=1 n=b5 v=0
119280 On ch=1 n=a5 v=40
119340 On ch=1 n=a5 v=0
119340 On ch=1 n=b5 v=40
119400 On ch=1 n=b5 v=0
119400 On ch=1 n=a5 v=40
119460 On ch=1 n=a5 v=0
119460 On ch=1 n=b5 v=40
119520 On ch=1 n=b5 v=0
119520 On ch=1 n=a5 v=40
119580 On ch=1 n=a5 v=0
119580 On ch=1 n=b5 v=40
119640 On ch=1 n=b5 v=0
119640 On ch=1 n=a5 v=40
119700 On ch=1 n=a5 v=0
119700 On ch=1 n=b5 v=40
119760 On ch=1 n=b5 v=0
119760 On ch=1 n=a5 v=40
119820 On ch=1 n=a5 v=0
119820 On ch=1 n=b5 v=40
119880 On ch=1 n=b5 v=0
119880 On ch=1 n=a5 v=40
119940 On ch=1 n=a5 v=0
119940 On ch=1 n=b5 v=40
120000 On ch=1 n=b5 v=0
120000 On ch=1 n=g5 v=40
120000 On ch=1 n=a5 v=40
120060 On ch=1 n=a5 v=0
120060 On ch=1 n=b5 v=40
120120 On ch=1 n=b5 v=0
120120 On ch=1 n=a5 v=40
120180 On ch=1 n=a5 v=0
120180 On ch=1 n=b5 v=40
120240 On ch=1 n=b5 v=0
120240 On ch=1 n=a5 v=40
120300 On ch=1 n=a5 v=0
120300 On ch=1 n=b5 v=40
120360 On ch=1 n=b5 v=0
120360 On ch=1 n=a5 v=40
120420 On ch=1 n=a5 v=0
120420 On ch=1 n=b5 v=40
120480 On ch=1 n=b5 v=0
120480 On ch=1 n=a5 v=40
120540 On ch=1 n=a5 v=0
120540 On ch=1 n=b5 v=40
120600 On ch=1 n=b5 v=0
120600 On ch=1 n=a5 v=40
120660 On ch=1 n=a5 v=0
120660 On ch=1 n=b5 v=40
120720 On ch=1 n=b5 v=0
120720 On ch=1 n=a5 v=40
120780 On ch=1 n=a5 v=0
120780 On ch=1 n=b5 v=40
120840 On ch=1 n=b5 v=0
120840 On ch=1 n=a5 v=40
120900 On ch=1 n=a5 v=0
120900 On ch=1 n=b5 v=40
120960 On ch=1 n=b5 v=0
120960 On ch=1 n=a5 v=40
121020 On ch=1 n=a5 v=0
121020 On ch=1 n=b5 v=40
121080 On ch=1 n=b5 v=0
121080 On ch=1 n=a5 v=40
121140 On ch=1 n=a5 v=0
121140 On ch=1 n=b5 v=40
121200 On ch=1 n=b5 v=0
121200 On ch=1 n=a5 v=40
121260 On ch=1 n=a5 v=0
121260 On ch=1 n=b5 v=40
121320 On ch=1 n=b5 v=0
121320 On ch=1 n=a5 v=40
121380 On ch=1 n=a5 v=0
121380 On ch=1 n=b5 v=40
121440 On ch=1 n=b5 v=0
121440 On ch=1 n=a5 v=40
121500 On ch=1 n=a5 v=0
121500 On ch=1 n=b5 v=40
121560 On ch=1 n=b5 v=0
121560 On ch=1 n=a5 v=40
121620 On ch=1 n=a5 v=0
121620 On ch=1 n=b5 v=40
121680 On ch=1 n=b5 v=0
121680 On ch=1 n=a5 v=40
121740 On ch=1 n=a5 v=0
121740 On ch=1 n=b5 v=40
121800 On ch=1 n=b5 v=0
121800 On ch=1 n=a5 v=40
121860 On ch=1 n=a5 v=0
121860 On ch=1 n=b5 v=40
121920 On ch=1 n=b5 v=0
121920 On ch=1 n=a5 v=40
121980 On ch=1 n=a5 v=0
121980 On ch=1 n=b5 v=40
122040 On ch=1 n=b5 v=0
122040 On ch=1 n=a5 v=40
122100 On ch=1 n=a5 v=0
122100 On ch=1 n=b5 v=40
122160 On ch=1 n=b5 v=0
122160 On ch=1 n=a5 v=40
122220 On ch=1 n=a5 v=0
122220 On ch=1 n=b5 v=40
122280 On ch=1 n=b5 v=0
122280 On ch=1 n=a5 v=40
122340 On ch=1 n=a5 v=0
122340 On ch=1 n=b5 v=40
122400 On ch=1 n=b5 v=0
122400 On ch=1 n=a5 v=40
122460 On ch=1 n=a5 v=0
122460 On ch=1 n=b5 v=40
122520 On ch=1 n=b5 v=0
122520 On ch=1 n=a5 v=40
122580 On ch=1 n=a5 v=0
122580 On ch=1 n=b5 v=40
122640 On ch=1 n=b5 v=0
122640 On ch=1 n=a5 v=40
122700 On ch=1 n=a5 v=0
122700 On ch=1 n=b5 v=40
122760 On ch=1 n=b5 v=0
122760 On ch=1 n=a5 v=40
122820 On ch=1 n=a5 v=0
122820 On ch=1 n=b5 v=40
122880 On ch=1 n=b5 v=0
122880 On ch=1 n=g5 v=0
122880 On ch=1 n=g5 v=40
122880 On ch=1 n=a5 v=40
122940 On ch=1 n=a5 v=0
122940 On ch=1 n=b5 v=40
123000 On ch=1 n=b5 v=0
123000 On ch=1 n=a5 v=40
123060 On ch=1 n=a5 v=0
123060 On ch=1 n=b5 v=40
123120 On ch=1 n=b5 v=0
123120 On ch=1 n=a5 v=40
123180 On ch=1 n=a5 v=0
123180 On ch=1 n=b5 v=40
123240 On ch=1 n=b5 v=0
123240 On ch=1 n=a5 v=40
123300 On ch=1 n=a5 v=0
123300 On ch=1 n=b5 v=40
123360 On ch=1 n=b5 v=0
123360 On ch=1 n=a5 v=40
123420 On ch=1 n=a5 v=0
123420 On ch=1 n=b5 v=40
123480 On ch=1 n=b5 v=0
123480 On ch=1 n=a5 v=40
123540 On ch=1 n=a5 v=0
123540 On ch=1 n=b5 v=40
123600 On ch=1 n=b5 v=0
123600 On ch=1 n=a5 v=40
123660 On ch=1 n=a5 v=0
123660 On ch=1 n=b5 v=40
123720 On ch=1 n=b5 v=0
123720 On ch=1 n=a5 v=40
123780 On ch=1 n=a5 v=0
123780 On ch=1 n=b5 v=40
123840 On ch=1 n=b5 v=0
123840 On ch=1 n=a5 v=40
123900 On ch=1 n=a5 v=0
123900 On ch=1 n=b5 v=40
123960 On ch=1 n=b5 v=0
123960 On ch=1 n=a5 v=40
124020 On ch=1 n=a5 v=0
124020 On ch=1 n=b5 v=40
124080 On ch=1 n=b5 v=0
124080 On ch=1 n=a5 v=40
124140 On ch=1 n=a5 v=0
124140 On ch=1 n=b5 v=40
124200 On ch=1 n=b5 v=0
124200 On ch=1 n=a5 v=40
124260 On ch=1 n=a5 v=0
124260 On ch=1 n=b5 v=40
124320 On ch=1 n=b5 v=0
124320 On ch=1 n=a5 v=40
124380 On ch=1 n=a5 v=0
124380 On ch=1 n=b5 v=40
124440 On ch=1 n=b5 v=0
124440 On ch=1 n=a5 v=40
124500 On ch=1 n=a5 v=0
124500 On ch=1 n=b5 v=40
124560 On ch=1 n=b5 v=0
124560 On ch=1 n=a5 v=40
124620 On ch=1 n=a5 v=0
124620 On ch=1 n=b5 v=40
124680 On ch=1 n=b5 v=0
124680 On ch=1 n=a5 v=40
124740 On ch=1 n=a5 v=0
124740 On ch=1 n=b5 v=40
124800 On ch=1 n=b5 v=0
124800 On ch=1 n=a5 v=40
124860 On ch=1 n=a5 v=0
124860 On ch=1 n=b5 v=40
124920 On ch=1 n=b5 v=0
124920 On ch=1 n=a5 v=40
124980 On ch=1 n=a5 v=0
124980 On ch=1 n=b5 v=40
125040 On ch=1 n=b5 v=0
125040 On ch=1 n=a5 v=40
125100 On ch=1 n=a5 v=0
125100 On ch=1 n=b5 v=40
125160 On ch=1 n=b5 v=0
125160 On ch=1 n=a5 v=40
125220 On ch=1 n=a5 v=0
125220 On ch=1 n=b5 v=40
125280 On ch=1 n=b5 v=0
125280 On ch=1 n=a5 v=40
125340 On ch=1 n=a5 v=0
125340 On ch=1 n=b5 v=40
125400 On ch=1 n=b5 v=0
125400 On ch=1 n=a5 v=40
125460 On ch=1 n=a5 v=0
125460 On ch=1 n=b5 v=40
125520 On ch=1 n=b5 v=0
125520 On ch=1 n=a5 v=40
125580 On ch=1 n=a5 v=0
125580 On ch=1 n=b5 v=40
125640 On ch=1 n=b5 v=0
125640 On ch=1 n=a5 v=40
125700 On ch=1 n=a5 v=0
125700 On ch=1 n=b5 v=40
125760 On ch=1 n=b5 v=0
125760 On ch=1 n=g5 v=0
126240 On ch=1 n=a5 v=125
126240 On ch=1 n=g5 v=125
126360 On ch=1 n=a5 v=0
126360 On ch=1 n=b5 v=125
126480 On ch=1 n=b5 v=0
126480 On ch=1 n=a5 v=125
126600 On ch=1 n=a5 v=0
126600 On ch=1 n=b5 v=125
126720 On ch=1 n=b5 v=0
126720 On ch=1 n=g5 v=0
126720 On ch=1 n=a6 v=125
126720 On ch=1 n=g6 v=125
126840 On ch=1 n=a6 v=0
126840 On ch=1 n=b6 v=125
126960 On ch=1 n=b6 v=0
126960 On ch=1 n=a6 v=125
127080 On ch=1 n=a6 v=0
127080 On ch=1 n=b6 v=125
127200 On ch=1 n=b6 v=0
127200 On ch=1 n=a6 v=100
127260 On ch=1 n=a6 v=0
127260 On ch=1 n=b6 v=100
127320 On ch=1 n=b6 v=0
127320 On ch=1 n=a6 v=100
127380 On ch=1 n=a6 v=0
127380 On ch=1 n=b6 v=100
127440 On ch=1 n=b6 v=0
127440 On ch=1 n=a6 v=100
127500 On ch=1 n=a6 v=0
127500 On ch=1 n=b6 v=100
127560 On ch=1 n=b6 v=0
127560 On ch=1 n=a6 v=100
127620 On ch=1 n=a6 v=0
127620 On ch=1 n=b6 v=100
127680 On ch=1 n=b6 v=0
127680 On ch=1 n=a6 v=90
127740 On ch=1 n=a6 v=0
127740 On ch=1 n=b6 v=90
127800 On ch=1 n=b6 v=0
127800 On ch=1 n=a6 v=90
127860 On ch=1 n=a6 v=0
127860 On ch=1 n=b6 v=90
127920 On ch=1 n=b6 v=0
127920 On ch=1 n=a6 v=90
127980 On ch=1 n=a6 v=0
127980 On ch=1 n=b6 v=90
128040 On ch=1 n=b6 v=0
128040 On ch=1 n=a6 v=90
128100 On ch=1 n=a6 v=0
128100 On ch=1 n=b6 v=90
128160 On ch=1 n=b6 v=0
128160 On ch=1 n=a6 v=80
128220 On ch=1 n=a6 v=0
128220 On ch=1 n=b6 v=80
128280 On ch=1 n=b6 v=0
128280 On ch=1 n=a6 v=80
128340 On ch=1 n=a6 v=0
128340 On ch=1 n=b6 v=80
128400 On ch=1 n=b6 v=0
128400 On ch=1 n=a6 v=80
128460 On ch=1 n=a6 v=0
128460 On ch=1 n=b6 v=80
128520 On ch=1 n=b6 v=0
128520 On ch=1 n=a6 v=80
128580 On ch=1 n=a6 v=0
128580 On ch=1 n=b6 v=80
128640 On ch=1 n=b6 v=0
128640 On ch=1 n=a6 v=70
128700 On ch=1 n=a6 v=0
128700 On ch=1 n=b6 v=70
128760 On ch=1 n=b6 v=0
128760 On ch=1 n=a6 v=70
128820 On ch=1 n=a6 v=0
128820 On ch=1 n=b6 v=70
128880 On ch=1 n=b6 v=0
128880 On ch=1 n=a6 v=70
128940 On ch=1 n=a6 v=0
128940 On ch=1 n=b6 v=70
129000 On ch=1 n=b6 v=0
129000 On ch=1 n=a6 v=70
129060 On ch=1 n=a6 v=0
129060 On ch=1 n=b6 v=70
129120 On ch=1 n=b6 v=0
129120 On ch=1 n=a6 v=60
129180 On ch=1 n=a6 v=0
129180 On ch=1 n=b6 v=60
129240 On ch=1 n=b6 v=0
129240 On ch=1 n=a6 v=60
129300 On ch=1 n=a6 v=0
129300 On ch=1 n=b6 v=60
129360 On ch=1 n=b6 v=0
129360 On ch=1 n=a6 v=60
129420 On ch=1 n=a6 v=0
129420 On ch=1 n=b6 v=60
129480 On ch=1 n=b6 v=0
129480 On ch=1 n=a6 v=60
129540 On ch=1 n=a6 v=0
129540 On ch=1 n=b6 v=60
129600 On ch=1 n=b6 v=0
129600 On ch=1 n=a6 v=50
129660 On ch=1 n=a6 v=0
129660 On ch=1 n=b6 v=50
129720 On ch=1 n=b6 v=0
129720 On ch=1 n=a6 v=50
129780 On ch=1 n=a6 v=0
129780 On ch=1 n=b6 v=50
129840 On ch=1 n=b6 v=0
129840 On ch=1 n=a6 v=50
129900 On ch=1 n=a6 v=0
129900 On ch=1 n=b6 v=50
129960 On ch=1 n=b6 v=0
129960 On ch=1 n=a6 v=50
130020 On ch=1 n=a6 v=0
130020 On ch=1 n=b6 v=50
130080 On ch=1 n=b6 v=0
130080 On ch=1 n=a6 v=40
130140 On ch=1 n=a6 v=0
130140 On ch=1 n=b6 v=40
130200 On ch=1 n=b6 v=0
130200 On ch=1 n=a6 v=40
130260 On ch=1 n=a6 v=0
130260 On ch=1 n=b6 v=40
130320 On ch=1 n=b6 v=0
130320 On ch=1 n=a6 v=40
130380 On ch=1 n=a6 v=0
130380 On ch=1 n=b6 v=40
130440 On ch=1 n=b6 v=0
130440 On ch=1 n=a6 v=40
130500 On ch=1 n=a6 v=0
130500 On ch=1 n=b6 v=40
130560 On ch=1 n=b6 v=0
130560 On ch=1 n=g6 v=0
130560 On ch=1 n=a6 v=40
130620 On ch=1 n=a6 v=0
130620 On ch=1 n=b6 v=40
130680 On ch=1 n=b6 v=0
130680 On ch=1 n=a6 v=40
130740 On ch=1 n=a6 v=0
130740 On ch=1 n=b6 v=40
130800 On ch=1 n=b6 v=0
130800 On ch=1 n=a6 v=40
130860 On ch=1 n=a6 v=0
130860 On ch=1 n=b6 v=40
130920 On ch=1 n=b6 v=0
130920 On ch=1 n=a6 v=40
130980 On ch=1 n=a6 v=0
130980 On ch=1 n=b6 v=40
131040 On ch=1 n=b6 v=0
131040 On ch=1 n=a6 v=40
131100 On ch=1 n=a6 v=0
131100 On ch=1 n=b6 v=40
131160 On ch=1 n=b6 v=0
131160 On ch=1 n=a6 v=40
131220 On ch=1 n=a6 v=0
131220 On ch=1 n=b6 v=40
131280 On ch=1 n=b6 v=0
131280 On ch=1 n=a6 v=40
131340 On ch=1 n=a6 v=0
131340 On ch=1 n=b6 v=40
131400 On ch=1 n=b6 v=0
131400 On ch=1 n=a6 v=40
131460 On ch=1 n=a6 v=0
131460 On ch=1 n=b6 v=40
131520 On ch=1 n=b6 v=0
131520 On ch=1 n=a6 v=40
131580 On ch=1 n=a6 v=0
131580 On ch=1 n=b6 v=40
131640 On ch=1 n=b6 v=0
131640 On ch=1 n=a6 v=40
131700 On ch=1 n=a6 v=0
131700 On ch=1 n=b6 v=40
131760 On ch=1 n=b6 v=0
131760 On ch=1 n=a6 v=40
131820 On ch=1 n=a6 v=0
131820 On ch=1 n=b6 v=40
131880 On ch=1 n=b6 v=0
131880 On ch=1 n=a6 v=40
131940 On ch=1 n=a6 v=0
131940 On ch=1 n=b6 v=40
132000 On ch=1 n=b6 v=0
132000 On ch=1 n=a6 v=40
132060 On ch=1 n=a6 v=0
132060 On ch=1 n=b6 v=40
132120 On ch=1 n=b6 v=0
132120 On ch=1 n=a6 v=40
132180 On ch=1 n=a6 v=0
132180 On ch=1 n=b6 v=40
132240 On ch=1 n=b6 v=0
132240 On ch=1 n=a6 v=40
132300 On ch=1 n=a6 v=0
132300 On ch=1 n=b6 v=40
132360 On ch=1 n=b6 v=0
132360 On ch=1 n=a6 v=40
132420 On ch=1 n=a6 v=0
132420 On ch=1 n=b6 v=40
132480 On ch=1 n=b6 v=0
132480 On ch=1 n=a6 v=40
132540 On ch=1 n=a6 v=0
132540 On ch=1 n=b6 v=40
132600 On ch=1 n=b6 v=0
132600 On ch=1 n=a6 v=40
132660 On ch=1 n=a6 v=0
132660 On ch=1 n=b6 v=40
132720 On ch=1 n=b6 v=0
132720 On ch=1 n=a6 v=40
132780 On ch=1 n=a6 v=0
132780 On ch=1 n=b6 v=40
132840 On ch=1 n=b6 v=0
132840 On ch=1 n=a6 v=40
132900 On ch=1 n=a6 v=0
132900 On ch=1 n=b6 v=40
132960 On ch=1 n=b6 v=0
132960 On ch=1 n=a6 v=40
133020 On ch=1 n=a6 v=0
133020 On ch=1 n=b6 v=40
133080 On ch=1 n=b6 v=0
133080 On ch=1 n=a6 v=40
133140 On ch=1 n=a6 v=0
133140 On ch=1 n=b6 v=40
133200 On ch=1 n=b6 v=0
133200 On ch=1 n=a6 v=40
133260 On ch=1 n=a6 v=0
133260 On ch=1 n=b6 v=40
133320 On ch=1 n=b6 v=0
133320 On ch=1 n=a6 v=40
133380 On ch=1 n=a6 v=0
133380 On ch=1 n=b6 v=40
133440 On ch=1 n=b6 v=0
133440 On ch=1 n=a6 v=40
133500 On ch=1 n=a6 v=0
133500 On ch=1 n=b6 v=40
133560 On ch=1 n=b6 v=0
133560 On ch=1 n=a6 v=40
133620 On ch=1 n=a6 v=0
133620 On ch=1 n=b6 v=40
133680 On ch=1 n=b6 v=0
133680 On ch=1 n=a6 v=40
133740 On ch=1 n=a6 v=0
133740 On ch=1 n=b6 v=40
133800 On ch=1 n=b6 v=0
133800 On ch=1 n=a6 v=40
133860 On ch=1 n=a6 v=0
133860 On ch=1 n=b6 v=40
133920 On ch=1 n=b6 v=0
133920 On ch=1 n=a5 v=40
133980 On ch=1 n=a5 v=0
133980 On ch=1 n=b5 v=40
134040 On ch=1 n=b5 v=0
134040 On ch=1 n=a5 v=40
134100 On ch=1 n=a5 v=0
134100 On ch=1 n=b5 v=40
134160 On ch=1 n=b5 v=0
134160 On ch=1 n=a5 v=40
134220 On ch=1 n=a5 v=0
134220 On ch=1 n=b5 v=40
134280 On ch=1 n=b5 v=0
134280 On ch=1 n=a5 v=40
134340 On ch=1 n=a5 v=0
134340 On ch=1 n=b5 v=40
134400 On ch=1 n=b5 v=0
134400 On ch=1 n=a5 v=40
134460 On ch=1 n=a5 v=0
134460 On ch=1 n=b5 v=40
134520 On ch=1 n=b5 v=0
134520 On ch=1 n=a5 v=40
134580 On ch=1 n=a5 v=0
134580 On ch=1 n=b5 v=40
134640 On ch=1 n=b5 v=0
134640 On ch=1 n=a5 v=40
134700 On ch=1 n=a5 v=0
134700 On ch=1 n=b5 v=40
134760 On ch=1 n=b5 v=0
134760 On ch=1 n=a5 v=40
134820 On ch=1 n=a5 v=0
134820 On ch=1 n=b5 v=40
134880 On ch=1 n=b5 v=0
134880 On ch=1 n=a5 v=40
134940 On ch=1 n=a5 v=0
134940 On ch=1 n=b5 v=40
135000 On ch=1 n=b5 v=0
135000 On ch=1 n=a5 v=40
135060 On ch=1 n=a5 v=0
135060 On ch=1 n=b5 v=40
135120 On ch=1 n=b5 v=0
135120 On ch=1 n=a5 v=40
135180 On ch=1 n=a5 v=0
135180 On ch=1 n=b5 v=40
135240 On ch=1 n=b5 v=0
135240 On ch=1 n=a5 v=40
135300 On ch=1 n=a5 v=0
135300 On ch=1 n=b5 v=40
135360 On ch=1 n=b5 v=0
135360 On ch=1 n=a5 v=40
135420 On ch=1 n=a5 v=0
135420 On ch=1 n=b5 v=40
135480 On ch=1 n=b5 v=0
135480 On ch=1 n=a5 v=40
135540 On ch=1 n=a5 v=0
135540 On ch=1 n=b5 v=40
135600 On ch=1 n=b5 v=0
135600 On ch=1 n=a5 v=40
135660 On ch=1 n=a5 v=0
135660 On ch=1 n=b5 v=40
135720 On ch=1 n=b5 v=0
135720 On ch=1 n=a5 v=40
135780 On ch=1 n=a5 v=0
135780 On ch=1 n=b5 v=40
135840 On ch=1 n=b5 v=0
135840 On ch=1 n=a5 v=40
135900 On ch=1 n=a5 v=0
135900 On ch=1 n=b5 v=40
135960 On ch=1 n=b5 v=0
135960 On ch=1 n=a5 v=40
136020 On ch=1 n=a5 v=0
136020 On ch=1 n=b5 v=40
136080 On ch=1 n=b5 v=0
136080 On ch=1 n=a5 v=40
136140 On ch=1 n=a5 v=0
136140 On ch=1 n=b5 v=40
136200 On ch=1 n=b5 v=0
136200 On ch=1 n=a5 v=40
136260 On ch=1 n=a5 v=0
136260 On ch=1 n=b5 v=40
136320 On ch=1 n=b5 v=0
136320 On ch=1 n=a5 v=40
136380 On ch=1 n=a5 v=0
136380 On ch=1 n=b5 v=40
136440 On ch=1 n=b5 v=0
136440 On ch=1 n=a5 v=40
136500 On ch=1 n=a5 v=0
136500 On ch=1 n=b5 v=40
136560 On ch=1 n=b5 v=0
136560 On ch=1 n=a5 v=40
136620 On ch=1 n=a5 v=0
136620 On ch=1 n=b5 v=40
136680 On ch=1 n=b5 v=0
136680 On ch=1 n=a5 v=40
136740 On ch=1 n=a5 v=0
136740 On ch=1 n=b5 v=40
136800 On ch=1 n=b5 v=0
136800 On ch=1 n=a5 v=40
136860 On ch=1 n=a5 v=0
136860 On ch=1 n=b5 v=40
136920 On ch=1 n=b5 v=0
136920 On ch=1 n=a5 v=40
136980 On ch=1 n=a5 v=0
136980 On ch=1 n=b5 v=40
137040 On ch=1 n=b5 v=0
137040 On ch=1 n=a5 v=40
137100 On ch=1 n=a5 v=0
137100 On ch=1 n=b5 v=40
137160 On ch=1 n=b5 v=0
137160 On ch=1 n=a5 v=40
137220 On ch=1 n=a5 v=0
137220 On ch=1 n=b5 v=40
137280 On ch=1 n=b5 v=0
137280 On ch=1 n=a5 v=40
137340 On ch=1 n=a5 v=0
137340 On ch=1 n=b5 v=40
137400 On ch=1 n=b5 v=0
137400 On ch=1 n=a5 v=40
137460 On ch=1 n=a5 v=0
137460 On ch=1 n=b5 v=40
137520 On ch=1 n=b5 v=0
137520 On ch=1 n=a5 v=40
137580 On ch=1 n=a5 v=0
137580 On ch=1 n=b5 v=40
137640 On ch=1 n=b5 v=0
137640 On ch=1 n=a5 v=40
137700 On ch=1 n=a5 v=0
137700 On ch=1 n=b5 v=40
137760 On ch=1 n=b5 v=0
137760 On ch=1 n=a5 v=40
137820 On ch=1 n=a5 v=0
137820 On ch=1 n=b5 v=40
137880 On ch=1 n=b5 v=0
137880 On ch=1 n=a5 v=40
137940 On ch=1 n=a5 v=0
137940 On ch=1 n=b5 v=40
138000 On ch=1 n=b5 v=0
138000 On ch=1 n=a5 v=40
138060 On ch=1 n=a5 v=0
138060 On ch=1 n=b5 v=40
138120 On ch=1 n=b5 v=0
138120 On ch=1 n=a5 v=40
138180 On ch=1 n=a5 v=0
138180 On ch=1 n=b5 v=40
138240 On ch=1 n=b5 v=0
138240 On ch=1 n=a5 v=40
138300 On ch=1 n=a5 v=0
138300 On ch=1 n=b5 v=40
138360 On ch=1 n=b5 v=0
138360 On ch=1 n=a5 v=40
138420 On ch=1 n=a5 v=0
138420 On ch=1 n=b5 v=40
138480 On ch=1 n=b5 v=0
138480 On ch=1 n=a5 v=40
138540 On ch=1 n=a5 v=0
138540 On ch=1 n=b5 v=40
138600 On ch=1 n=b5 v=0
138600 On ch=1 n=a5 v=40
138660 On ch=1 n=a5 v=0
138660 On ch=1 n=b5 v=40
138720 On ch=1 n=b5 v=0
138720 On ch=1 n=a5 v=40
138780 On ch=1 n=a5 v=0
138780 On ch=1 n=b5 v=40
138840 On ch=1 n=b5 v=0
138840 On ch=1 n=a5 v=40
138900 On ch=1 n=a5 v=0
138900 On ch=1 n=b5 v=40
138960 On ch=1 n=b5 v=0
138960 On ch=1 n=a5 v=40
139020 On ch=1 n=a5 v=0
139020 On ch=1 n=b5 v=40
139080 On ch=1 n=b5 v=0
139080 On ch=1 n=a5 v=40
139140 On ch=1 n=a5 v=0
139140 On ch=1 n=b5 v=40
139200 On ch=1 n=b5 v=0
139200 On ch=1 n=a5 v=40
139260 On ch=1 n=a5 v=0
139260 On ch=1 n=b5 v=40
139320 On ch=1 n=b5 v=0
139320 On ch=1 n=a5 v=40
139380 On ch=1 n=a5 v=0
139380 On ch=1 n=b5 v=40
139440 On ch=1 n=b5 v=0
139440 On ch=1 n=a5 v=40
139500 On ch=1 n=a5 v=0
139500 On ch=1 n=b5 v=40
139560 On ch=1 n=b5 v=0
139560 On ch=1 n=a5 v=40
139620 On ch=1 n=a5 v=0
139620 On ch=1 n=b5 v=40
139680 On ch=1 n=b5 v=0
139680 On ch=1 n=a5 v=40
139740 On ch=1 n=a5 v=0
139740 On ch=1 n=b5 v=40
139800 On ch=1 n=b5 v=0
139800 On ch=1 n=a5 v=40
139860 On ch=1 n=a5 v=0
139860 On ch=1 n=b5 v=40
139920 On ch=1 n=b5 v=0
139920 On ch=1 n=a5 v=40
139980 On ch=1 n=a5 v=0
139980 On ch=1 n=b5 v=40
140040 On ch=1 n=b5 v=0
140040 On ch=1 n=a5 v=40
140100 On ch=1 n=a5 v=0
140100 On ch=1 n=b5 v=40
140160 On ch=1 n=b5 v=0
140160 On ch=1 n=a5 v=40
140220 On ch=1 n=a5 v=0
140220 On ch=1 n=b5 v=40
140280 On ch=1 n=b5 v=0
140280 On ch=1 n=a5 v=40
140340 On ch=1 n=a5 v=0
140340 On ch=1 n=b5 v=40
140400 On ch=1 n=b5 v=0
140400 On ch=1 n=a5 v=40
140460 On ch=1 n=a5 v=0
140460 On ch=1 n=b5 v=40
140520 On ch=1 n=b5 v=0
140520 On ch=1 n=a5 v=40
140580 On ch=1 n=a5 v=0
140580 On ch=1 n=b5 v=40
140640 On ch=1 n=b5 v=0
140640 On ch=1 n=a5 v=40
140700 On ch=1 n=a5 v=0
140700 On ch=1 n=b5 v=40
140760 On ch=1 n=b5 v=0
140760 On ch=1 n=a5 v=40
140820 On ch=1 n=a5 v=0
140820 On ch=1 n=b5 v=40
140880 On ch=1 n=b5 v=0
140880 On ch=1 n=a5 v=40
140940 On ch=1 n=a5 v=0
140940 On ch=1 n=b5 v=40
141000 On ch=1 n=b5 v=0
141000 On ch=1 n=a5 v=40
141060 On ch=1 n=a5 v=0
141060 On ch=1 n=b5 v=40
141120 On ch=1 n=b5 v=0
141120 On ch=1 n=a5 v=40
141180 On ch=1 n=a5 v=0
141180 On ch=1 n=b5 v=40
141240 On ch=1 n=b5 v=0
141240 On ch=1 n=a5 v=40
141300 On ch=1 n=a5 v=0
141300 On ch=1 n=b5 v=40
141360 On ch=1 n=b5 v=0
141360 On ch=1 n=a5 v=40
141420 On ch=1 n=a5 v=0
141420 On ch=1 n=b5 v=40
141480 On ch=1 n=b5 v=0
141480 On ch=1 n=a5 v=40
141540 On ch=1 n=a5 v=0
141540 On ch=1 n=b5 v=40
141600 On ch=1 n=b5 v=0
141600 On ch=1 n=a5 v=40
141660 On ch=1 n=a5 v=0
141660 On ch=1 n=b5 v=40
141720 On ch=1 n=b5 v=0
141720 On ch=1 n=a5 v=40
141780 On ch=1 n=a5 v=0
141780 On ch=1 n=b5 v=40
141840 On ch=1 n=b5 v=0
141840 On ch=1 n=a5 v=40
141900 On ch=1 n=a5 v=0
141900 On ch=1 n=b5 v=40
141960 On ch=1 n=b5 v=0
141960 On ch=1 n=a5 v=40
142020 On ch=1 n=a5 v=0
142020 On ch=1 n=b5 v=40
142080 On ch=1 n=b5 v=0
142080 On ch=1 n=a5 v=40
142140 On ch=1 n=a5 v=0
142140 On ch=1 n=b5 v=40
142200 On ch=1 n=b5 v=0
142200 On ch=1 n=a5 v=40
142260 On ch=1 n=a5 v=0
142260 On ch=1 n=b5 v=40
142320 On ch=1 n=b5 v=0
142320 On ch=1 n=a5 v=40
142380 On ch=1 n=a5 v=0
142380 On ch=1 n=b5 v=40
142440 On ch=1 n=b5 v=0
142440 On ch=1 n=a5 v=40
142500 On ch=1 n=a5 v=0
142500 On ch=1 n=b5 v=40
142560 On ch=1 n=b5 v=0
142560 On ch=1 n=a5 v=40
142620 On ch=1 n=a5 v=0
142620 On ch=1 n=b5 v=40
142680 On ch=1 n=b5 v=0
142680 On ch=1 n=a5 v=40
142740 On ch=1 n=a5 v=0
142740 On ch=1 n=b5 v=40
142800 On ch=1 n=b5 v=0
142800 On ch=1 n=a5 v=40
142860 On ch=1 n=a5 v=0
142860 On ch=1 n=b5 v=40
142920 On ch=1 n=b5 v=0
142920 On ch=1 n=a5 v=40
142980 On ch=1 n=a5 v=0
142980 On ch=1 n=b5 v=40
143040 On ch=1 n=b5 v=0
143040 On ch=1 n=a5 v=40
143100 On ch=1 n=a5 v=0
143100 On ch=1 n=b5 v=40
143160 On ch=1 n=b5 v=0
143160 On ch=1 n=a5 v=40
143220 On ch=1 n=a5 v=0
143220 On ch=1 n=b5 v=40
143280 On ch=1 n=b5 v=0
143280 On ch=1 n=a5 v=40
143340 On ch=1 n=a5 v=0
143340 On ch=1 n=b5 v=40
143400 On ch=1 n=b5 v=0
143400 On ch=1 n=a5 v=40
143460 On ch=1 n=a5 v=0
143460 On ch=1 n=b5 v=40
143520 On ch=1 n=b5 v=0
143520 On ch=1 n=a5 v=40
143580 On ch=1 n=a5 v=0
143580 On ch=1 n=b5 v=40
143640 On ch=1 n=b5 v=0
143640 On ch=1 n=a5 v=40
143700 On ch=1 n=a5 v=0
143700 On ch=1 n=b5 v=40
143760 On ch=1 n=b5 v=0
143760 On ch=1 n=a5 v=40
143820 On ch=1 n=a5 v=0
143820 On ch=1 n=b5 v=40
143880 On ch=1 n=b5 v=0
143880 On ch=1 n=a5 v=40
143940 On ch=1 n=a5 v=0
143940 On ch=1 n=b5 v=40
144000 On ch=1 n=b5 v=0
144000 On ch=1 n=a5 v=40
144060 On ch=1 n=a5 v=0
144060 On ch=1 n=b5 v=40
144120 On ch=1 n=b5 v=0
144120 On ch=1 n=a5 v=40
144180 On ch=1 n=a5 v=0
144180 On ch=1 n=b5 v=40
144240 On ch=1 n=b5 v=0
144240 On ch=1 n=a5 v=40
144300 On ch=1 n=a5 v=0
144300 On ch=1 n=b5 v=40
144360 On ch=1 n=b5 v=0
144360 On ch=1 n=a5 v=40
144420 On ch=1 n=a5 v=0
144420 On ch=1 n=b5 v=40
144480 On ch=1 n=b5 v=0
144672 On ch=1 n=g#5 v=40
144768 On ch=1 n=g#5 v=0
144768 On ch=1 n=d#6 v=40
144864 On ch=1 n=d#6 v=0
144864 On ch=1 n=g#6 v=40
144960 On ch=1 n=g#6 v=0
145152 On ch=1 n=f#5 v=40
145248 On ch=1 n=f#5 v=0
145248 On ch=1 n=c#6 v=40
145344 On ch=1 n=c#6 v=0
145344 On ch=1 n=f#6 v=40
145440 On ch=1 n=f#6 v=0
145632 On ch=1 n=d#5 v=40
145728 On ch=1 n=d#5 v=0
145728 On ch=1 n=a#5 v=40
145824 On ch=1 n=a#5 v=0
145824 On ch=1 n=d#6 v=40
145920 On ch=1 n=d#6 v=0
146112 On ch=1 n=g#5 v=40
146208 On ch=1 n=g#5 v=0
146208 On ch=1 n=d#6 v=40
146304 On ch=1 n=d#6 v=0
146304 On ch=1 n=g#6 v=40
146400 On ch=1 n=g#6 v=0
146592 On ch=1 n=c#6 v=40
146688 On ch=1 n=c#6 v=0
146688 On ch=1 n=g#6 v=40
146784 On ch=1 n=g#6 v=0
146784 On ch=1 n=c#7 v=40
146880 On ch=1 n=c#7 v=0
147072 On ch=1 n=d#6 v=40
147168 On ch=1 n=d#6 v=0
147168 On ch=1 n=a#6 v=40
147264 On ch=1 n=a#6 v=0
147264 On ch=1 n=d#7 v=40
147360 On ch=1 n=d#7 v=0
147552 On ch=1 n=g#5 v=40
147648 On ch=1 n=g#5 v=0
147648 On ch=1 n=d#6 v=40
147744 On ch=1 n=d#6 v=0
147744 On ch=1 n=g#6 v=40
147840 On ch=1 n=g#6 v=0
148032 On ch=1 n=f#5 v=40
148128 On ch=1 n=f#5 v=0
148128 On ch=1 n=c#6 v=40
148224 On ch=1 n=c#6 v=0
148224 On ch=1 n=f#6 v=40
148320 On ch=1 n=f#6 v=0
148512 On ch=1 n=d#5 v=40
148608 On ch=1 n=d#5 v=0
148608 On ch=1 n=a#5 v=40
148704 On ch=1 n=a#5 v=0
148704 On ch=1 n=d#6 v=40
148800 On ch=1 n=d#6 v=0
151872 On ch=1 n=g#5 v=40
151968 On ch=1 n=g#5 v=0
151968 On ch=1 n=d#6 v=40
152064 On ch=1 n=d#6 v=0
152064 On ch=1 n=g#6 v=40
152160 On ch=1 n=g#6 v=0
152352 On ch=1 n=f#5 v=40
152448 On ch=1 n=f#5 v=0
152448 On ch=1 n=c#6 v=40
152544 On ch=1 n=c#6 v=0
152544 On ch=1 n=f#6 v=40
152640 On ch=1 n=f#6 v=0
152832 On ch=1 n=d#5 v=40
152928 On ch=1 n=d#5 v=0
152928 On ch=1 n=a#5 v=40
153024 On ch=1 n=a#5 v=0
153024 On ch=1 n=d#6 v=40
153120 On ch=1 n=d#6 v=0
161952 On ch=1 n=d#5 v=40
162048 On ch=1 n=d#5 v=0
162048 On ch=1 n=a#5 v=40
162144 On ch=1 n=a#5 v=0
162144 On ch=1 n=d#6 v=40
162240 On ch=1 n=d#6 v=0
162432 On ch=1 n=d#5 v=40
162528 On ch=1 n=d#5 v=0
162528 On ch=1 n=a#5 v=40
162624 On ch=1 n=a#5 v=0
162624 On ch=1 n=d#6 v=40
162720 On ch=1 n=d#6 v=0
162912 On ch=1 n=c#5 v=40
163008 On ch=1 n=c#5 v=0
163008 On ch=1 n=g#5 v=40
163104 On ch=1 n=g#5 v=0
163104 On ch=1 n=c#6 v=40
163200 On ch=1 n=c#6 v=0
163392 On ch=1 n=c#5 v=45
163488 On ch=1 n=c#5 v=0
163488 On ch=1 n=g#5 v=45
163584 On ch=1 n=g#5 v=0
163584 On ch=1 n=c#6 v=45
163680 On ch=1 n=c#6 v=0
163872 On ch=1 n=g#5 v=50
163968 On ch=1 n=g#5 v=0
163968 On ch=1 n=d#6 v=50
164064 On ch=1 n=d#6 v=0
164064 On ch=1 n=g#6 v=50
164160 On ch=1 n=g#6 v=0
164352 On ch=1 n=f#5 v=55
164448 On ch=1 n=f#5 v=0
164448 On ch=1 n=c#6 v=55
164544 On ch=1 n=c#6 v=0
164544 On ch=1 n=f#6 v=55
164640 On ch=1 n=f#6 v=0
164832 On ch=1 n=d#5 v=40
164928 On ch=1 n=d#5 v=0
164928 On ch=1 n=a#5 v=40
165024 On ch=1 n=a#5 v=0
165024 On ch=1 n=d#6 v=40
165120 On ch=1 n=d#6 v=0
165312 On ch=1 n=d#5 v=40
165408 On ch=1 n=d#5 v=0
165408 On ch=1 n=a#5 v=40
165504 On ch=1 n=a#5 v=0
165504 On ch=1 n=d#6 v=40
165600 On ch=1 n=d#6 v=0
165792 On ch=1 n=c#5 v=40
165888 On ch=1 n=c#5 v=0
165888 On ch=1 n=g#5 v=40
165984 On ch=1 n=g#5 v=0
165984 On ch=1 n=c#6 v=40
166080 On ch=1 n=c#6 v=0
166272 On ch=1 n=c#5 v=45
166368 On ch=1 n=c#5 v=0
166368 On ch=1 n=g#5 v=45
166464 On ch=1 n=g#5 v=0
166464 On ch=1 n=c#6 v=45
166560 On ch=1 n=c#6 v=0
166752 On ch=1 n=g#5 v=50
166848 On ch=1 n=g#5 v=0
166848 On ch=1 n=d#6 v=50
166944 On ch=1 n=d#6 v=0
166944 On ch=1 n=g#6 v=50
167040 On ch=1 n=g#6 v=0
167232 On ch=1 n=f#5 v=55
167328 On ch=1 n=f#5 v=0
167328 On ch=1 n=c#6 v=55
167424 On ch=1 n=c#6 v=0
167424 On ch=1 n=f#6 v=55
167520 On ch=1 n=f#6 v=0
167520 On ch=1 n=c8 v=30
167760 On ch=1 n=c8 v=0
168480 On ch=1 n=a7 v=30
168720 On ch=1 n=a7 v=0
168960 On ch=1 n=f7 v=30
169200 On ch=1 n=f7 v=0
169440 On ch=1 n=d#7 v=30
169680 On ch=1 n=d#7 v=0
169920 On ch=1 n=c7 v=30
170160 On ch=1 n=c7 v=0
170400 On ch=1 n=a6 v=30
170640 On ch=1 n=a6 v=0
171360 On ch=1 n=c7 v=30
171600 On ch=1 n=c7 v=0
171840 On ch=1 n=d#7 v=30
172080 On ch=1 n=d#7 v=0
172320 On ch=1 n=f7 v=30
172560 On ch=1 n=f7 v=0
172800 On ch=1 n=a7 v=30
173040 On ch=1 n=a7 v=0
174180 On ch=1 n=c#7 v=60
174240 On ch=1 n=c#7 v=0
174240 On ch=1 n=c#8 v=60
174480 On ch=1 n=c#8 v=0
174480 Meta TrkEnd
TrkEnd
MTrk
0 SeqSpec 43 00 01 00
0 Meta TrkName "Right Bass"
0 Meta 0x21 00
4512 On ch=1 n=g#4 v=40
4608 On ch=1 n=g#4 v=0
4608 On ch=1 n=d#5 v=40
4704 On ch=1 n=d#5 v=0
4704 On ch=1 n=g#5 v=40
4800 On ch=1 n=g#5 v=0
4992 On ch=1 n=f#4 v=40
5088 On ch=1 n=f#4 v=0
5088 On ch=1 n=c#5 v=40
5184 On ch=1 n=c#5 v=0
5184 On ch=1 n=f#5 v=40
5280 On ch=1 n=f#5 v=0
5472 On ch=1 n=d#4 v=40
5568 On ch=1 n=d#4 v=0
5568 On ch=1 n=a#4 v=40
5664 On ch=1 n=a#4 v=0
5664 On ch=1 n=d#5 v=40
5760 On ch=1 n=d#5 v=0
6240 On ch=1 n=a#4 v=50
6240 On ch=1 n=d#4 v=50
6360 On ch=1 n=a#4 v=0
6360 On ch=1 n=b4 v=50
6480 On ch=1 n=b4 v=0
6480 On ch=1 n=a#4 v=50
6600 On ch=1 n=a#4 v=0
6600 On ch=1 n=b4 v=50
6720 On ch=1 n=b4 v=0
6720 On ch=1 n=d#4 v=0
23520 On ch=1 n=a#4 v=65
23520 On ch=1 n=d#4 v=65
23640 On ch=1 n=a#4 v=0
23640 On ch=1 n=b4 v=65
23760 On ch=1 n=b4 v=0
23760 On ch=1 n=a#4 v=65
23880 On ch=1 n=a#4 v=0
23880 On ch=1 n=b4 v=65
24000 On ch=1 n=b4 v=0
24000 On ch=1 n=d#4 v=0
26400 On ch=1 n=a#4 v=65
26400 On ch=1 n=d#4 v=65
26520 On ch=1 n=a#4 v=0
26520 On ch=1 n=b4 v=65
26640 On ch=1 n=b4 v=0
26640 On ch=1 n=a#4 v=65
26760 On ch=1 n=a#4 v=0
26760 On ch=1 n=b4 v=65
26880 On ch=1 n=b4 v=0
26880 On ch=1 n=d#4 v=0
27552 On ch=1 n=g#4 v=40
27648 On ch=1 n=g#4 v=0
27648 On ch=1 n=d#5 v=40
27744 On ch=1 n=d#5 v=0
27744 On ch=1 n=g#5 v=40
27840 On ch=1 n=g#5 v=0
28032 On ch=1 n=f#4 v=40
28128 On ch=1 n=f#4 v=0
28128 On ch=1 n=c#5 v=40
28224 On ch=1 n=c#5 v=0
28224 On ch=1 n=f#5 v=40
28320 On ch=1 n=f#5 v=0
28512 On ch=1 n=d#4 v=40
28608 On ch=1 n=d#4 v=0
28608 On ch=1 n=a#4 v=40
28704 On ch=1 n=a#4 v=0
28704 On ch=1 n=d#5 v=40
28800 On ch=1 n=d#5 v=0
28992 On ch=1 n=d#4 v=40
29088 On ch=1 n=d#4 v=0
29088 On ch=1 n=a#4 v=40
29184 On ch=1 n=a#4 v=0
29184 On ch=1 n=d#5 v=40
29232 On ch=1 n=d#5 v=0
30432 On ch=1 n=d#4 v=40
30528 On ch=1 n=d#4 v=0
30528 On ch=1 n=a#4 v=40
30624 On ch=1 n=a#4 v=0
30624 On ch=1 n=d#5 v=40
30720 On ch=1 n=d#5 v=0
30912 On ch=1 n=d#4 v=40
31008 On ch=1 n=d#4 v=0
31008 On ch=1 n=a#4 v=40
31104 On ch=1 n=a#4 v=0
31104 On ch=1 n=d#5 v=40
31200 On ch=1 n=d#5 v=0
31392 On ch=1 n=d#4 v=40
31488 On ch=1 n=d#4 v=0
31488 On ch=1 n=a#4 v=40
31584 On ch=1 n=a#4 v=0
31584 On ch=1 n=d#5 v=40
31680 On ch=1 n=d#5 v=0
32352 On ch=1 n=d#4 v=40
32448 On ch=1 n=d#4 v=0
32448 On ch=1 n=a#4 v=40
32544 On ch=1 n=a#4 v=0
32544 On ch=1 n=d#5 v=40
32640 On ch=1 n=d#5 v=0
56640 On ch=1 n=f#4 v=60
57360 On ch=1 n=f#4 v=0
57360 On ch=1 n=c5 v=60
57600 On ch=1 n=c5 v=0
57600 On ch=1 n=d5 v=60
58080 On ch=1 n=d5 v=0
58080 On ch=1 n=f#4 v=60
58800 On ch=1 n=f#4 v=0
58800 On ch=1 n=c5 v=60
59040 On ch=1 n=c5 v=0
59040 On ch=1 n=d5 v=60
59520 On ch=1 n=d5 v=0
59520 On ch=1 n=f#4 v=60
60240 On ch=1 n=f#4 v=0
60240 On ch=1 n=c5 v=60
60480 On ch=1 n=c5 v=0
60480 On ch=1 n=d5 v=70
60960 On ch=1 n=d5 v=0
60960 On ch=1 n=f#4 v=60
61680 On ch=1 n=f#4 v=0
61680 On ch=1 n=c5 v=60
61920 On ch=1 n=c5 v=0
61920 On ch=1 n=d#5 v=70
62400 On ch=1 n=d#5 v=0
62400 On ch=1 n=g4 v=60
63120 On ch=1 n=g4 v=0
63120 On ch=1 n=c#5 v=60
63360 On ch=1 n=c#5 v=0
63360 On ch=1 n=e5 v=70
63840 On ch=1 n=e5 v=0
68160 On ch=1 n=c5 v=60
68340 On ch=1 n=d#5 v=60
68400 On ch=1 n=d#5 v=0
68400 On ch=1 n=c5 v=0
68400 On ch=1 n=c#5 v=60
68640 On ch=1 n=c#5 v=0
68640 On ch=1 n=a#4 v=60
68880 On ch=1 n=a#4 v=0
68880 On ch=1 n=g4 v=60
69120 On ch=1 n=g4 v=0
69120 On ch=1 n=c5 v=80
69300 On ch=1 n=d#5 v=80
69360 On ch=1 n=d#5 v=0
69360 On ch=1 n=c5 v=0
69360 On ch=1 n=c#5 v=80
69600 On ch=1 n=c#5 v=0
69600 On ch=1 n=a#4 v=70
69840 On ch=1 n=a#4 v=0
69840 On ch=1 n=g4 v=70
70080 On ch=1 n=g4 v=0
70080 On ch=1 n=c5 v=60
70260 On ch=1 n=d#5 v=60
70320 On ch=1 n=d#5 v=0
70320 On ch=1 n=c5 v=0
70320 On ch=1 n=c#5 v=60
70560 On ch=1 n=c#5 v=0
70560 On ch=1 n=a4 v=60
70800 On ch=1 n=a4 v=0
70800 On ch=1 n=f#4 v=60
71040 On ch=1 n=f#4 v=0
71040 On ch=1 n=c5 v=60
71220 On ch=1 n=d#5 v=60
71280 On ch=1 n=d#5 v=0
71280 On ch=1 n=c5 v=0
71280 On ch=1 n=c#5 v=60
71520 On ch=1 n=c#5 v=0
71520 On ch=1 n=a#4 v=60
71760 On ch=1 n=a#4 v=0
71760 On ch=1 n=g4 v=60
72000 On ch=1 n=g4 v=0
72000 On ch=1 n=c5 v=80
72180 On ch=1 n=d#5 v=80
72240 On ch=1 n=d#5 v=0
72240 On ch=1 n=c5 v=0
72240 On ch=1 n=c#5 v=80
72480 On ch=1 n=c#5 v=0
72480 On ch=1 n=a#4 v=70
72720 On ch=1 n=a#4 v=0
72720 On ch=1 n=g4 v=70
72960 On ch=1 n=g4 v=0
72960 On ch=1 n=c5 v=60
73140 On ch=1 n=d#5 v=60
73200 On ch=1 n=d#5 v=0
73200 On ch=1 n=c5 v=0
73200 On ch=1 n=c#5 v=60
73440 On ch=1 n=c#5 v=0
73440 On ch=1 n=a#4 v=55
73680 On ch=1 n=a#4 v=0
73680 On ch=1 n=g4 v=55
73920 On ch=1 n=g4 v=0
148992 On ch=1 n=g#4 v=40
149088 On ch=1 n=g#4 v=0
149088 On ch=1 n=d#5 v=40
149184 On ch=1 n=d#5 v=0
149184 On ch=1 n=g#5 v=40
149280 On ch=1 n=g#5 v=0
149472 On ch=1 n=f#4 v=40
149568 On ch=1 n=f#4 v=0
149568 On ch=1 n=c#5 v=40
149664 On ch=1 n=c#5 v=0
149664 On ch=1 n=f#5 v=40
149760 On ch=1 n=f#5 v=0
149952 On ch=1 n=d#4 v=40
150048 On ch=1 n=d#4 v=0
150048 On ch=1 n=a#4 v=40
150144 On ch=1 n=a#4 v=0
150144 On ch=1 n=d#5 v=40
150240 On ch=1 n=d#5 v=0
150720 On ch=1 n=a#4 v=50
150720 On ch=1 n=d#4 v=50
150840 On ch=1 n=a#4 v=0
150840 On ch=1 n=b4 v=50
150960 On ch=1 n=b4 v=0
150960 On ch=1 n=a#4 v=50
151080 On ch=1 n=a#4 v=0
151080 On ch=1 n=b4 v=50
151200 On ch=1 n=b4 v=0
151200 On ch=1 n=d#4 v=0
153600 On ch=1 n=a#4 v=50
153600 On ch=1 n=d#4 v=50
153720 On ch=1 n=a#4 v=0
153720 On ch=1 n=b4 v=50
153840 On ch=1 n=b4 v=0
153840 On ch=1 n=a#4 v=50
153960 On ch=1 n=a#4 v=0
153960 On ch=1 n=b4 v=50
154080 On ch=1 n=b4 v=0
154080 On ch=1 n=d#4 v=0
154752 On ch=1 n=g#4 v=40
154848 On ch=1 n=g#4 v=0
154848 On ch=1 n=d#5 v=40
154944 On ch=1 n=d#5 v=0
154944 On ch=1 n=g#5 v=40
155040 On ch=1 n=g#5 v=0
155232 On ch=1 n=f#4 v=40
155328 On ch=1 n=f#4 v=0
155328 On ch=1 n=c#5 v=40
155424 On ch=1 n=c#5 v=0
155424 On ch=1 n=f#5 v=40
155520 On ch=1 n=f#5 v=0
155712 On ch=1 n=d#4 v=40
155808 On ch=1 n=d#4 v=0
155808 On ch=1 n=a#4 v=40
155904 On ch=1 n=a#4 v=0
155904 On ch=1 n=d#5 v=40
156000 On ch=1 n=d#5 v=0
156192 On ch=1 n=d#4 v=40
156288 On ch=1 n=d#4 v=0
156288 On ch=1 n=a#4 v=40
156384 On ch=1 n=a#4 v=0
156384 On ch=1 n=d#5 v=40
156480 On ch=1 n=d#5 v=0
156672 On ch=1 n=d#4 v=40
156768 On ch=1 n=d#4 v=0
156768 On ch=1 n=a#4 v=40
156864 On ch=1 n=a#4 v=0
156864 On ch=1 n=d#5 v=40
156960 On ch=1 n=d#5 v=0
157152 On ch=1 n=c#4 v=40
157248 On ch=1 n=c#4 v=0
157248 On ch=1 n=g#4 v=40
157344 On ch=1 n=g#4 v=0
157344 On ch=1 n=c#5 v=40
157440 On ch=1 n=c#5 v=0
157632 On ch=1 n=c#4 v=45
157728 On ch=1 n=c#4 v=0
157728 On ch=1 n=g#4 v=45
157824 On ch=1 n=g#4 v=0
157824 On ch=1 n=c#5 v=45
157920 On ch=1 n=c#5 v=0
158112 On ch=1 n=g#4 v=50
158208 On ch=1 n=g#4 v=0
158208 On ch=1 n=d#5 v=50
158304 On ch=1 n=d#5 v=0
158304 On ch=1 n=g#5 v=50
158400 On ch=1 n=g#5 v=0
158592 On ch=1 n=f#4 v=55
158688 On ch=1 n=f#4 v=0
158688 On ch=1 n=c#5 v=55
158784 On ch=1 n=c#5 v=0
158784 On ch=1 n=f#5 v=55
158880 On ch=1 n=f#5 v=0
159072 On ch=1 n=d#4 v=40
159168 On ch=1 n=d#4 v=0
159168 On ch=1 n=a#4 v=40
159264 On ch=1 n=a#4 v=0
159264 On ch=1 n=d#5 v=40
159360 On ch=1 n=d#5 v=0
159552 On ch=1 n=d#4 v=40
159648 On ch=1 n=d#4 v=0
159648 On ch=1 n=a#4 v=40
159744 On ch=1 n=a#4 v=0
159744 On ch=1 n=d#5 v=40
159840 On ch=1 n=d#5 v=0
160032 On ch=1 n=c#4 v=40
160128 On ch=1 n=c#4 v=0
160128 On ch=1 n=g#4 v=40
160224 On ch=1 n=g#4 v=0
160224 On ch=1 n=c#5 v=40
160320 On ch=1 n=c#5 v=0
160512 On ch=1 n=c#4 v=45
160608 On ch=1 n=c#4 v=0
160608 On ch=1 n=g#4 v=45
160704 On ch=1 n=g#4 v=0
160704 On ch=1 n=c#5 v=45
160800 On ch=1 n=c#5 v=0
160992 On ch=1 n=g#4 v=50
161088 On ch=1 n=g#4 v=0
161088 On ch=1 n=d#5 v=50
161184 On ch=1 n=d#5 v=0
161184 On ch=1 n=g#5 v=50
161280 On ch=1 n=g#5 v=0
161472 On ch=1 n=f#4 v=55
161568 On ch=1 n=f#4 v=0
161568 On ch=1 n=c#5 v=55
161664 On ch=1 n=c#5 v=0
161664 On ch=1 n=f#5 v=55
161760 On ch=1 n=f#5 v=0
161760 Meta TrkEnd
TrkEnd
MTrk
0 SeqSpec 43 00 01 00
0 Meta TrkName "Middle Tre"
