MFile 1 10 480
MTrk
0 TimeSig 2/2 48 8
0 KeySig -5 major
0 Tempo 476190
25680 Tempo 600000
25920 Tempo 476190
26640 Tempo 600000
26880 Tempo 476190
27600 Tempo 600000
27840 Tempo 476190
28560 Tempo 600000
28800 Tempo 476190
32400 Tempo 600000
32640 Tempo 476190
48000 Tempo 625000
51840 Tempo 476190
59520 Tempo 394737
63360 Tempo 434783
74880 Tempo 454545
76800 Tempo 476190
78720 Tempo 500000
80640 Tempo 476190
119040 Tempo 517241
120000 Tempo 555556
120960 Tempo 600000
121920 Tempo 652174
122880 Tempo 714286
123840 Tempo 789474
124800 Tempo 672957
125760 Tempo 952381
126720 Tempo 476190
142800 Tempo 600000
143040 Tempo 476190
143760 Tempo 600000
144000 Tempo 476190
159360 Tempo 652174
163200 Tempo 476190
163200 Meta TrkEnd
TrkEnd
MTrk
0 SeqSpec 43 00 01 00
0 Meta TrkName "Right Treble"
0 Meta 0x21 00
9600 On ch=1 n=b4 v=60
14400 On ch=1 n=b4 v=0
14400 On ch=1 n=c5 v=60
16320 On ch=1 n=c5 v=0
16320 On ch=1 n=d5 v=60
17600 On ch=1 n=d5 v=0
17600 On ch=1 n=e5 v=60
17920 On ch=1 n=e5 v=0
17920 On ch=1 n=e5 v=60
18240 On ch=1 n=e5 v=0
18240 On ch=1 n=e5 v=60
18720 On ch=1 n=e5 v=0
18720 On ch=1 n=d5 v=60
19200 On ch=1 n=d5 v=0
19520 On ch=1 n=e5 v=60
19840 On ch=1 n=e5 v=0
19840 On ch=1 n=e5 v=60
20160 On ch=1 n=e5 v=0
20160 On ch=1 n=e5 v=60
20640 On ch=1 n=e5 v=0
20640 On ch=1 n=d5 v=60
21120 On ch=1 n=d5 v=0
21120 On ch=1 n=e5 v=60
21840 On ch=1 n=e5 v=0
21840 On ch=1 n=f5 v=60
21920 On ch=1 n=f5 v=0
21920 On ch=1 n=g#5 v=60
22000 On ch=1 n=g#5 v=0
22000 On ch=1 n=f5 v=60
22080 On ch=1 n=f5 v=0
22080 On ch=1 n=e5 v=60
23520 On ch=1 n=e5 v=0
24000 On ch=1 n=e5 v=60
25720 On ch=1 n=e5 v=0
25720 On ch=1 n=f5 v=60
25760 On ch=1 n=f5 v=0
25760 On ch=1 n=g#5 v=60
25800 On ch=1 n=g#5 v=0
25800 On ch=1 n=b5 v=60
25840 On ch=1 n=b5 v=0
25840 On ch=1 n=g#5 v=60
25880 On ch=1 n=g#5 v=0
25880 On ch=1 n=f5 v=60
25920 On ch=1 n=f5 v=0
25920 On ch=1 n=e5 v=60
26680 On ch=1 n=e5 v=0
26680 On ch=1 n=d#5 v=60
26720 On ch=1 n=d#5 v=0
26720 On ch=1 n=c5 v=60
26760 On ch=1 n=c5 v=0
26760 On ch=1 n=a#4 v=60
26800 On ch=1 n=a#4 v=0
26800 On ch=1 n=c5 v=60
26840 On ch=1 n=c5 v=0
26840 On ch=1 n=d#5 v=60
26880 On ch=1 n=d#5 v=0
26880 On ch=1 n=e5 v=60
27640 On ch=1 n=e5 v=0
27640 On ch=1 n=f5 v=60
27680 On ch=1 n=f5 v=0
27680 On ch=1 n=g#5 v=60
27720 On ch=1 n=g#5 v=0
27720 On ch=1 n=b5 v=60
27760 On ch=1 n=b5 v=0
27760 On ch=1 n=g#5 v=60
27800 On ch=1 n=g#5 v=0
27800 On ch=1 n=f5 v=60
27840 On ch=1 n=f5 v=0
27840 On ch=1 n=e5 v=60
28600 On ch=1 n=e5 v=0
28600 On ch=1 n=d#5 v=60
28640 On ch=1 n=d#5 v=0
28640 On ch=1 n=c5 v=60
28680 On ch=1 n=c5 v=0
28680 On ch=1 n=a#4 v=60
28720 On ch=1 n=a#4 v=0
28720 On ch=1 n=c5 v=60
28760 On ch=1 n=c5 v=0
28760 On ch=1 n=d#5 v=60
28800 On ch=1 n=d#5 v=0
28800 On ch=1 n=e5 v=60
32400 On ch=1 n=e5 v=0
32400 On ch=1 n=d#5 v=60
32440 On ch=1 n=d#5 v=0
32440 On ch=1 n=e5 v=60
32480 On ch=1 n=e5 v=0
32480 On ch=1 n=d#5 v=60
32520 On ch=1 n=d#5 v=0
32520 On ch=1 n=c5 v=60
32560 On ch=1 n=c5 v=0
32560 On ch=1 n=b4 v=60
32600 On ch=1 n=b4 v=0
32600 On ch=1 n=g#4 v=60
32640 On ch=1 n=g#4 v=0
40320 On ch=1 n=e6 v=125
40360 On ch=1 n=d6 v=125
40400 On ch=1 n=c6 v=125
40440 On ch=1 n=a#5 v=125
40480 On ch=1 n=e5 v=125
42240 On ch=1 n=e5 v=0
42240 On ch=1 n=a#5 v=0
42240 On ch=1 n=c6 v=0
42240 On ch=1 n=d6 v=0
42240 On ch=1 n=e6 v=0
48000 On ch=1 n=e6 v=60
48040 On ch=1 n=d6 v=60
48080 On ch=1 n=c6 v=60
48120 On ch=1 n=a#5 v=60
48160 On ch=1 n=e5 v=60
48320 On ch=1 n=e5 v=0
48320 On ch=1 n=a#5 v=0
48320 On ch=1 n=c6 v=0
48320 On ch=1 n=d6 v=0
48320 On ch=1 n=e6 v=0
48320 On ch=1 n=e5 v=60
48320 On ch=1 n=e6 v=60
48640 On ch=1 n=e6 v=0
48640 On ch=1 n=e5 v=0
48640 On ch=1 n=e5 v=60
48640 On ch=1 n=e6 v=60
48960 On ch=1 n=e6 v=0
48960 On ch=1 n=e5 v=0
48960 On ch=1 n=e5 v=60
48960 On ch=1 n=e6 v=60
49280 On ch=1 n=e6 v=0
49280 On ch=1 n=e5 v=0
49280 On ch=1 n=f5 v=60
49280 On ch=1 n=f6 v=60
49600 On ch=1 n=f6 v=0
49600 On ch=1 n=f5 v=0
49600 On ch=1 n=e5 v=60
49600 On ch=1 n=e6 v=60
49920 On ch=1 n=e6 v=0
49920 On ch=1 n=e5 v=0
49920 On ch=1 n=d6 v=40
49960 On ch=1 n=c6 v=40
50000 On ch=1 n=a#5 v=40
50040 On ch=1 n=g#5 v=40
50080 On ch=1 n=d5 v=40
50240 On ch=1 n=d5 v=0
50240 On ch=1 n=g#5 v=0
50240 On ch=1 n=a#5 v=0
50240 On ch=1 n=c6 v=0
50240 On ch=1 n=d6 v=0
50240 On ch=1 n=d5 v=40
50240 On ch=1 n=d6 v=40
50560 On ch=1 n=d6 v=0
50560 On ch=1 n=d5 v=0
50560 On ch=1 n=d5 v=40
50560 On ch=1 n=d6 v=40
50880 On ch=1 n=d6 v=0
50880 On ch=1 n=d5 v=0
50880 On ch=1 n=d5 v=40
50880 On ch=1 n=d6 v=40
51200 On ch=1 n=d6 v=0
51200 On ch=1 n=d5 v=0
51200 On ch=1 n=e5 v=40
51200 On ch=1 n=e6 v=40
51520 On ch=1 n=e6 v=0
51520 On ch=1 n=e5 v=0
51520 On ch=1 n=d5 v=40
51520 On ch=1 n=d6 v=40
51840 On ch=1 n=d6 v=0
51840 On ch=1 n=d5 v=0
51840 On ch=1 n=c6 v=60
51880 On ch=1 n=a#5 v=60
51920 On ch=1 n=g#5 v=60
51960 On ch=1 n=f#5 v=60
52000 On ch=1 n=c5 v=60
54720 On ch=1 n=c5 v=0
54720 On ch=1 n=f#5 v=0
54720 On ch=1 n=g#5 v=0
54720 On ch=1 n=a#5 v=0
54720 On ch=1 n=c6 v=0
54720 On ch=1 n=b5 v=50
54760 On ch=1 n=a5 v=50
54800 On ch=1 n=g5 v=50
54840 On ch=1 n=f5 v=50
54880 On ch=1 n=b4 v=50
55680 On ch=1 n=b4 v=0
55680 On ch=1 n=f5 v=0
55680 On ch=1 n=g5 v=0
55680 On ch=1 n=a5 v=0
55680 On ch=1 n=b5 v=0
55680 On ch=1 n=c6 v=40
55720 On ch=1 n=a#5 v=40
55760 On ch=1 n=g#5 v=40
55800 On ch=1 n=f#5 v=40
55840 On ch=1 n=c5 v=40
58560 On ch=1 n=c5 v=0
58560 On ch=1 n=f#5 v=0
58560 On ch=1 n=g#5 v=0
58560 On ch=1 n=a#5 v=0
58560 On ch=1 n=c6 v=0
58560 On ch=1 n=b5 v=40
58600 On ch=1 n=a5 v=40
58640 On ch=1 n=g5 v=40
58680 On ch=1 n=f5 v=40
58720 On ch=1 n=b4 v=40
59520 On ch=1 n=b4 v=0
59520 On ch=1 n=f5 v=0
59520 On ch=1 n=g5 v=0
59520 On ch=1 n=a5 v=0
59520 On ch=1 n=b5 v=0
67200 On ch=1 n=g4 v=60
67200 On ch=1 n=c5 v=60
67200 On ch=1 n=e5 v=60
67200 On ch=1 n=g5 v=60
67520 On ch=1 n=g5 v=0
67520 On ch=1 n=e5 v=0
67520 On ch=1 n=c5 v=0
67520 On ch=1 n=g4 v=0
67520 On ch=1 n=g6 v=60
67520 On ch=1 n=e6 v=60
67520 On ch=1 n=c6 v=60
67520 On ch=1 n=g5 v=60
67840 On ch=1 n=g5 v=0
67840 On ch=1 n=c6 v=0
67840 On ch=1 n=e6 v=0
67840 On ch=1 n=g6 v=0
67840 On ch=1 n=f#6 v=60
67840 On ch=1 n=d#6 v=60
67840 On ch=1 n=f#5 v=60
67840 On ch=1 n=b5 v=60
68160 On ch=1 n=b5 v=0
68160 On ch=1 n=f#5 v=0
68160 On ch=1 n=d#6 v=0
68160 On ch=1 n=f#6 v=0
68160 On ch=1 n=c5 v=60
68160 On ch=1 n=d#5 v=60
68280 On ch=1 n=d#5 v=0
68280 On ch=1 n=c5 v=0
68640 On ch=1 n=d#5 v=60
68640 On ch=1 n=f#5 v=60
68760 On ch=1 n=f#5 v=0
68760 On ch=1 n=d#5 v=0
69120 On ch=1 n=d5 v=60
69120 On ch=1 n=f#5 v=60
69120 On ch=1 n=a5 v=60
69440 On ch=1 n=a5 v=0
69440 On ch=1 n=f#5 v=0
69440 On ch=1 n=d5 v=0
69440 On ch=1 n=a6 v=60
69440 On ch=1 n=f#6 v=60
69440 On ch=1 n=d6 v=60
69440 On ch=1 n=a5 v=60
69760 On ch=1 n=a5 v=0
69760 On ch=1 n=d6 v=0
69760 On ch=1 n=f#6 v=0
69760 On ch=1 n=a6 v=0
69760 On ch=1 n=g#6 v=60
69760 On ch=1 n=f6 v=60
69760 On ch=1 n=c#6 v=60
69760 On ch=1 n=g#5 v=60
70080 On ch=1 n=g#5 v=0
70080 On ch=1 n=c#6 v=0
70080 On ch=1 n=f6 v=0
70080 On ch=1 n=g#6 v=0
70080 On ch=1 n=d5 v=60
70080 On ch=1 n=f5 v=60
70200 On ch=1 n=f5 v=0
70200 On ch=1 n=d5 v=0
70560 On ch=1 n=g#5 v=60
70560 On ch=1 n=f5 v=60
70560 On ch=1 n=c#5 v=60
70680 On ch=1 n=c#5 v=0
70680 On ch=1 n=f5 v=0
70680 On ch=1 n=g#5 v=0
71040 On ch=1 n=b4 v=80
71040 On ch=1 n=e5 v=80
71040 On ch=1 n=g#5 v=80
71040 On ch=1 n=b5 v=80
73440 On ch=1 n=b5 v=0
73440 On ch=1 n=g#5 v=0
73440 On ch=1 n=e5 v=0
73440 On ch=1 n=b4 v=0
73440 On ch=1 n=c#6 v=80
73440 On ch=1 n=a#5 v=80
73440 On ch=1 n=f#5 v=80
73440 On ch=1 n=c#5 v=80
73920 On ch=1 n=c#5 v=0
73920 On ch=1 n=f#5 v=0
73920 On ch=1 n=a#5 v=0
73920 On ch=1 n=c#6 v=0
73920 On ch=1 n=d#5 v=80
73920 On ch=1 n=g#5 v=80
73920 On ch=1 n=b5 v=80
73920 On ch=1 n=d#6 v=80
74080 On ch=1 n=d#6 v=0
74080 On ch=1 n=b5 v=0
74080 On ch=1 n=g#5 v=0
74080 On ch=1 n=d#5 v=0
74240 On ch=1 n=c#5 v=80
74240 On ch=1 n=f#5 v=80
74240 On ch=1 n=a#5 v=80
74240 On ch=1 n=c#6 v=80
74400 On ch=1 n=c#6 v=0
74400 On ch=1 n=a#5 v=0
74400 On ch=1 n=f#5 v=0
74400 On ch=1 n=c#5 v=0
74560 On ch=1 n=b4 v=80
74560 On ch=1 n=e5 v=80
74560 On ch=1 n=g#5 v=80
74560 On ch=1 n=b5 v=80
74720 On ch=1 n=b5 v=0
74720 On ch=1 n=g#5 v=0
74720 On ch=1 n=e5 v=0
74720 On ch=1 n=b4 v=0
74880 On ch=1 n=a#4 v=70
74880 On ch=1 n=d#5 v=70
74880 On ch=1 n=g5 v=70
74880 On ch=1 n=a#5 v=70
75360 On ch=1 n=a#5 v=0
75360 On ch=1 n=g5 v=0
75360 On ch=1 n=d#5 v=0
75360 On ch=1 n=a#4 v=0
75360 On ch=1 n=c6 v=70
75360 On ch=1 n=a5 v=70
75360 On ch=1 n=f5 v=70
75360 On ch=1 n=c5 v=70
75840 On ch=1 n=c5 v=0
75840 On ch=1 n=f5 v=0
75840 On ch=1 n=a5 v=0
75840 On ch=1 n=c6 v=0
75840 On ch=1 n=d5 v=70
75840 On ch=1 n=g5 v=70
75840 On ch=1 n=a#5 v=70
75840 On ch=1 n=d6 v=70
76000 On ch=1 n=d6 v=0
76000 On ch=1 n=a#5 v=0
76000 On ch=1 n=g5 v=0
76000 On ch=1 n=d5 v=0
76160 On ch=1 n=c5 v=70
76160 On ch=1 n=f5 v=70
76160 On ch=1 n=a5 v=70
76160 On ch=1 n=c6 v=70
76320 On ch=1 n=c6 v=0
76320 On ch=1 n=a5 v=0
76320 On ch=1 n=f5 v=0
76320 On ch=1 n=c5 v=0
76480 On ch=1 n=a#4 v=70
76480 On ch=1 n=d#5 v=70
76480 On ch=1 n=g5 v=70
76480 On ch=1 n=a#5 v=70
76640 On ch=1 n=a#5 v=0
76640 On ch=1 n=g5 v=0
76640 On ch=1 n=d#5 v=0
76640 On ch=1 n=a#4 v=0
76800 On ch=1 n=a4 v=70
76800 On ch=1 n=d5 v=70
76800 On ch=1 n=f#5 v=70
76800 On ch=1 n=a5 v=70
77280 On ch=1 n=a5 v=0
77280 On ch=1 n=f#5 v=0
77280 On ch=1 n=d5 v=0
77280 On ch=1 n=a4 v=0
77280 On ch=1 n=b5 v=70
77280 On ch=1 n=g5 v=70
77280 On ch=1 n=e5 v=70
77280 On ch=1 n=b4 v=70
77760 On ch=1 n=b4 v=0
77760 On ch=1 n=e5 v=0
77760 On ch=1 n=g5 v=0
77760 On ch=1 n=b5 v=0
77760 On ch=1 n=c5 v=70
77760 On ch=1 n=f5 v=70
77760 On ch=1 n=g#5 v=70
77760 On ch=1 n=c6 v=70
77920 On ch=1 n=c6 v=0
77920 On ch=1 n=g#5 v=0
77920 On ch=1 n=f5 v=0
77920 On ch=1 n=c5 v=0
78080 On ch=1 n=b4 v=70
78080 On ch=1 n=e5 v=70
78080 On ch=1 n=g5 v=70
78080 On ch=1 n=b5 v=70
78240 On ch=1 n=b5 v=0
78240 On ch=1 n=g5 v=0
78240 On ch=1 n=e5 v=0
78240 On ch=1 n=b4 v=0
78400 On ch=1 n=a4 v=70
78400 On ch=1 n=d5 v=70
78400 On ch=1 n=f#5 v=70
78400 On ch=1 n=a5 v=70
78560 On ch=1 n=a5 v=0
78560 On ch=1 n=f#5 v=0
78560 On ch=1 n=d5 v=0
78560 On ch=1 n=a4 v=0
78720 On ch=1 n=g#4 v=60
78720 On ch=1 n=c#5 v=60
78720 On ch=1 n=f5 v=60
78720 On ch=1 n=g#5 v=60
80640 On ch=1 n=g#5 v=0
80640 On ch=1 n=f5 v=0
80640 On ch=1 n=c#5 v=0
80640 On ch=1 n=g#4 v=0
85440 On ch=1 n=f#5 v=120
85440 On ch=1 n=f#6 v=120
85440 On ch=1 n=d6 v=120
85440 On ch=1 n=a#5 v=120
86880 On ch=1 n=f#6 v=0
86880 On ch=1 n=f#5 v=0
86880 On ch=1 n=g5 v=120
86880 On ch=1 n=g6 v=120
87680 On ch=1 n=g6 v=0
87680 On ch=1 n=g5 v=0
87680 On ch=1 n=c6 v=120
87680 On ch=1 n=c7 v=120
88000 On ch=1 n=c7 v=0
88000 On ch=1 n=c6 v=0
88000 On ch=1 n=a5 v=120
88000 On ch=1 n=a6 v=120
88320 On ch=1 n=a6 v=0
88320 On ch=1 n=a5 v=0
88320 On ch=1 n=a#5 v=0
88320 On ch=1 n=d6 v=0
88320 On ch=1 n=f#5 v=120
88320 On ch=1 n=f#6 v=120
88320 On ch=1 n=a#5 v=120
88320 On ch=1 n=d6 v=120
88800 On ch=1 n=f#6 v=0
88800 On ch=1 n=f#5 v=0
88800 On ch=1 n=g5 v=120
88800 On ch=1 n=g6 v=120
89600 On ch=1 n=g6 v=0
89600 On ch=1 n=g5 v=0
89600 On ch=1 n=c6 v=120
89600 On ch=1 n=c7 v=120
89920 On ch=1 n=c7 v=0
89920 On ch=1 n=c6 v=0
89920 On ch=1 n=a5 v=120
89920 On ch=1 n=a6 v=120
90240 On ch=1 n=a6 v=0
90240 On ch=1 n=a5 v=0
90240 On ch=1 n=d6 v=0
90240 On ch=1 n=a#5 v=0
90240 On ch=1 n=f#5 v=80
90240 On ch=1 n=f#6 v=80
90240 On ch=1 n=a#5 v=80
90240 On ch=1 n=c#6 v=80
92640 On ch=1 n=f#6 v=0
92640 On ch=1 n=f#5 v=0
92640 On ch=1 n=g5 v=80
92640 On ch=1 n=g6 v=80
93440 On ch=1 n=g6 v=0
93440 On ch=1 n=g5 v=0
93440 On ch=1 n=c6 v=80
93440 On ch=1 n=c7 v=80
93760 On ch=1 n=c7 v=0
93760 On ch=1 n=c6 v=0
93760 On ch=1 n=a5 v=80
93760 On ch=1 n=a6 v=80
94080 On ch=1 n=a6 v=0
94080 On ch=1 n=a5 v=0
94080 On ch=1 n=c#6 v=0
94080 On ch=1 n=a#5 v=0
94080 On ch=1 n=f#5 v=70
94080 On ch=1 n=f#6 v=70
94080 On ch=1 n=a#5 v=70
94080 On ch=1 n=d6 v=70
94560 On ch=1 n=f#6 v=0
94560 On ch=1 n=f#5 v=0
94560 On ch=1 n=g5 v=70
94560 On ch=1 n=g6 v=70
95360 On ch=1 n=g6 v=0
95360 On ch=1 n=g5 v=0
95360 On ch=1 n=c6 v=70
95360 On ch=1 n=c7 v=70
95680 On ch=1 n=c7 v=0
95680 On ch=1 n=c6 v=0
95680 On ch=1 n=a5 v=70
95680 On ch=1 n=a6 v=70
96000 On ch=1 n=a6 v=0
96000 On ch=1 n=a5 v=0
96000 On ch=1 n=d6 v=0
96000 On ch=1 n=a#5 v=0
105480 On ch=1 n=f#5 v=60
105540 On ch=1 n=f#5 v=0
105540 On ch=1 n=g5 v=60
105600 On ch=1 n=g5 v=0
105600 On ch=1 n=d5 v=60
105600 On ch=1 n=g#5 v=60
106560 On ch=1 n=g#5 v=0
106560 On ch=1 n=d5 v=0
106560 On ch=1 n=d5 v=60
106560 On ch=1 n=g#5 v=60
106800 On ch=1 n=g#5 v=0
106800 On ch=1 n=d5 v=0
107040 On ch=1 n=e6 v=60
107040 On ch=1 n=g#5 v=60
107280 On ch=1 n=g#5 v=0
107280 On ch=1 n=e6 v=0
107400 On ch=1 n=f#5 v=60
107460 On ch=1 n=f#5 v=0
107460 On ch=1 n=g5 v=60
107520 On ch=1 n=g5 v=0
107520 On ch=1 n=d5 v=60
107520 On ch=1 n=g#5 v=60
108480 On ch=1 n=g#5 v=0
108480 On ch=1 n=d5 v=0
108480 On ch=1 n=d5 v=60
108480 On ch=1 n=g#5 v=60
108720 On ch=1 n=g#5 v=0
108720 On ch=1 n=d5 v=0
108960 On ch=1 n=e6 v=60
108960 On ch=1 n=g#5 v=60
109200 On ch=1 n=g#5 v=0
109200 On ch=1 n=e6 v=0
109440 On ch=1 n=d#6 v=60
109440 On ch=1 n=g5 v=60
109760 On ch=1 n=g5 v=0
109760 On ch=1 n=d#6 v=0
109760 On ch=1 n=g6 v=60
109760 On ch=1 n=d#7 v=60
110080 On ch=1 n=d#7 v=0
110080 On ch=1 n=g6 v=0
110080 On ch=1 n=d7 v=60
110080 On ch=1 n=f#6 v=60
110400 On ch=1 n=f#6 v=0
110400 On ch=1 n=d7 v=0
110400 On ch=1 n=d6 v=60
110400 On ch=1 n=f#5 v=60
110520 On ch=1 n=f#5 v=0
110520 On ch=1 n=d6 v=0
110880 On ch=1 n=f5 v=60
110880 On ch=1 n=c#6 v=60
111000 On ch=1 n=c#6 v=0
111000 On ch=1 n=f5 v=0
111120 On ch=1 n=g#5 v=40
111180 On ch=1 n=g#5 v=0
111180 On ch=1 n=c#5 v=40
111240 On ch=1 n=c#5 v=0
112080 On ch=1 n=g#5 v=40
112140 On ch=1 n=g#5 v=0
112140 On ch=1 n=c#5 v=40
112200 On ch=1 n=c#5 v=0
112560 On ch=1 n=e6 v=40
112620 On ch=1 n=e6 v=0
112620 On ch=1 n=a5 v=40
112680 On ch=1 n=a5 v=0
113280 On ch=1 n=g#5 v=40
113280 On ch=1 n=d#6 v=40
113440 On ch=1 n=d#6 v=0
113440 On ch=1 n=g#5 v=0
113600 On ch=1 n=g#5 v=40
113600 On ch=1 n=d#6 v=40
113760 On ch=1 n=d#6 v=0
113760 On ch=1 n=g#5 v=0
113920 On ch=1 n=g5 v=40
113920 On ch=1 n=d6 v=40
114080 On ch=1 n=d6 v=0
114080 On ch=1 n=g5 v=0
114240 On ch=1 n=f#5 v=40
114240 On ch=1 n=c#6 v=40
114720 On ch=1 n=c#6 v=0
114720 On ch=1 n=f#5 v=0
114720 On ch=1 n=f5 v=40
114720 On ch=1 n=c6 v=40
115200 On ch=1 n=c6 v=0
115200 On ch=1 n=f5 v=0
115200 On ch=1 n=c#5 v=40
115200 On ch=1 n=g#5 v=40
116160 On ch=1 n=g#5 v=0
116160 On ch=1 n=c#5 v=0
116160 On ch=1 n=a#4 v=40
116160 On ch=1 n=f5 v=40
118080 On ch=1 n=f5 v=0
118080 On ch=1 n=a#4 v=0
118080 On ch=1 n=c#5 v=40
118080 On ch=1 n=g#5 v=40
119040 On ch=1 n=g#5 v=0
119040 On ch=1 n=c#5 v=0
126720 On ch=1 n=g5 v=60
134400 On ch=1 n=g5 v=0
134720 On ch=1 n=g5 v=60
134720 On ch=1 n=e5 v=60
134880 On ch=1 n=e5 v=0
134880 On ch=1 n=g5 v=0
135040 On ch=1 n=e5 v=60
135040 On ch=1 n=g5 v=60
135200 On ch=1 n=g5 v=0
135200 On ch=1 n=e5 v=0
135360 On ch=1 n=e5 v=60
135360 On ch=1 n=g5 v=60
135840 On ch=1 n=g5 v=0
135840 On ch=1 n=e5 v=0
135840 On ch=1 n=d5 v=60
135840 On ch=1 n=f5 v=60
136320 On ch=1 n=f5 v=0
136320 On ch=1 n=d5 v=0
136640 On ch=1 n=g5 v=60
136640 On ch=1 n=e5 v=60
136800 On ch=1 n=e5 v=0
136800 On ch=1 n=g5 v=0
136960 On ch=1 n=e5 v=60
136960 On ch=1 n=g5 v=60
137120 On ch=1 n=g5 v=0
137120 On ch=1 n=e5 v=0
137280 On ch=1 n=e5 v=60
137280 On ch=1 n=g5 v=60
137760 On ch=1 n=g5 v=0
137760 On ch=1 n=e5 v=0
137760 On ch=1 n=d5 v=60
137760 On ch=1 n=f5 v=60
138240 On ch=1 n=f5 v=0
138240 On ch=1 n=d5 v=0
138240 On ch=1 n=e5 v=60
138240 On ch=1 n=g5 v=60
138960 On ch=1 n=g5 v=0
138960 On ch=1 n=e5 v=0
138960 On ch=1 n=g#5 v=60
138960 On ch=1 n=f5 v=60
139040 On ch=1 n=f5 v=0
139040 On ch=1 n=g#5 v=0
139040 On ch=1 n=b5 v=60
139040 On ch=1 n=g5 v=60
139120 On ch=1 n=g5 v=0
139120 On ch=1 n=b5 v=0
139120 On ch=1 n=g#5 v=60
139120 On ch=1 n=f5 v=60
139200 On ch=1 n=f5 v=0
139200 On ch=1 n=g#5 v=0
139200 On ch=1 n=e5 v=60
139200 On ch=1 n=g5 v=60
141120 On ch=1 n=g5 v=0
141120 On ch=1 n=e5 v=0
141120 On ch=1 n=e5 v=60
141120 On ch=1 n=g5 v=60
142840 On ch=1 n=g5 v=0
142840 On ch=1 n=e5 v=0
142840 On ch=1 n=f5 v=60
142840 On ch=1 n=g#5 v=60
142880 On ch=1 n=g#5 v=0
142880 On ch=1 n=f5 v=0
142880 On ch=1 n=b5 v=60
142880 On ch=1 n=g5 v=60
142920 On ch=1 n=g5 v=0
142920 On ch=1 n=b5 v=0
142920 On ch=1 n=c#6 v=60
142920 On ch=1 n=g#5 v=60
142960 On ch=1 n=g#5 v=0
142960 On ch=1 n=c#6 v=0
142960 On ch=1 n=g5 v=60
142960 On ch=1 n=b5 v=60
143000 On ch=1 n=b5 v=0
143000 On ch=1 n=g5 v=0
143000 On ch=1 n=f5 v=60
143000 On ch=1 n=g#5 v=60
143040 On ch=1 n=g#5 v=0
143040 On ch=1 n=f5 v=0
143040 On ch=1 n=g5 v=60
143040 On ch=1 n=e5 v=60
143760 On ch=1 n=e5 v=0
143760 On ch=1 n=f5 v=60
143800 On ch=1 n=f5 v=0
143800 On ch=1 n=e5 v=60
143840 On ch=1 n=e5 v=0
143840 On ch=1 n=c#5 v=60
143880 On ch=1 n=c#5 v=0
143880 On ch=1 n=c5 v=60
143920 On ch=1 n=c5 v=0
143920 On ch=1 n=b4 v=60
143960 On ch=1 n=b4 v=0
143960 On ch=1 n=g#4 v=60
144000 On ch=1 n=g#4 v=0
144000 On ch=1 n=g5 v=0
151680 On ch=1 n=e6 v=60
151720 On ch=1 n=d6 v=60
151760 On ch=1 n=c6 v=60
151800 On ch=1 n=a#5 v=60
151840 On ch=1 n=e5 v=60
155520 On ch=1 n=e5 v=0
155520 On ch=1 n=a#5 v=0
155520 On ch=1 n=c6 v=0
155520 On ch=1 n=d6 v=0
155520 On ch=1 n=e6 v=0
159360 On ch=1 n=f#7 v=40
159400 On ch=1 n=e7 v=40
159440 On ch=1 n=d7 v=40
159480 On ch=1 n=c7 v=40
159520 On ch=1 n=f#6 v=40
159680 On ch=1 n=f#6 v=0
159680 On ch=1 n=c7 v=0
159680 On ch=1 n=d7 v=0
159680 On ch=1 n=e7 v=0
159680 On ch=1 n=f#7 v=0
159680 On ch=1 n=f#6 v=40
159680 On ch=1 n=f#7 v=40
160000 On ch=1 n=f#7 v=0
160000 On ch=1 n=f#6 v=0
160000 On ch=1 n=f#6 v=40
160000 On ch=1 n=f#7 v=40
160320 On ch=1 n=f#7 v=0
160320 On ch=1 n=f#6 v=0
160320 On ch=1 n=f#6 v=40
160320 On ch=1 n=f#7 v=40
160640 On ch=1 n=f#7 v=0
160640 On ch=1 n=f#6 v=0
160640 On ch=1 n=g6 v=40
160640 On ch=1 n=g7 v=40
160960 On ch=1 n=g7 v=0
160960 On ch=1 n=g6 v=0
160960 On ch=1 n=f#6 v=40
160960 On ch=1 n=f#7 v=40
161280 On ch=1 n=f#7 v=0
161280 On ch=1 n=f#6 v=0
161280 On ch=1 n=e7 v=40
161320 On ch=1 n=d7 v=40
161360 On ch=1 n=c7 v=40
161400 On ch=1 n=a#6 v=40
161440 On ch=1 n=e6 v=40
161600 On ch=1 n=e6 v=0
161600 On ch=1 n=a#6 v=0
161600 On ch=1 n=c7 v=0
161600 On ch=1 n=d7 v=0
161600 On ch=1 n=e7 v=0
161600 On ch=1 n=e6 v=40
161600 On ch=1 n=e7 v=40
161920 On ch=1 n=e7 v=0
161920 On ch=1 n=e6 v=0
161920 On ch=1 n=e6 v=40
161920 On ch=1 n=e7 v=40
162240 On ch=1 n=e7 v=0
162240 On ch=1 n=e6 v=0
162240 On ch=1 n=e7 v=40
162240 On ch=1 n=e6 v=40
162560 On ch=1 n=e6 v=0
162560 On ch=1 n=e7 v=0
162560 On ch=1 n=f#7 v=40
162560 On ch=1 n=f#6 v=40
162880 On ch=1 n=f#6 v=0
162880 On ch=1 n=f#7 v=0
162880 On ch=1 n=e7 v=40
162880 On ch=1 n=e6 v=40
162960 On ch=1 n=d#6 v=120
163020 On ch=1 n=d#6 v=0
163020 On ch=1 n=c#6 v=120
163080 On ch=1 n=c#6 v=0
163080 On ch=1 n=g#5 v=120
163140 On ch=1 n=g#5 v=0
163140 On ch=1 n=f5 v=120
163200 On ch=1 n=f5 v=0
163200 On ch=1 n=e6 v=0
163200 On ch=1 n=e7 v=0
163200 Meta TrkEnd
TrkEnd
MTrk
0 SeqSpec 43 00 01 00
0 Meta TrkName "Right Bass"
0 Meta 0x21 00
2820 On ch=1 n=e4 v=120
2880 On ch=1 n=e4 v=0
2880 On ch=1 n=a3 v=120
3300 On ch=1 n=a4 v=120
3360 On ch=1 n=a4 v=0
3360 On ch=1 n=a3 v=0
3360 On ch=1 n=d4 v=120
3660 On ch=1 n=e4 v=120
3720 On ch=1 n=e4 v=0
3720 On ch=1 n=a3 v=120
3780 On ch=1 n=a3 v=0
3840 On ch=1 n=d4 v=0
4740 On ch=1 n=e4 v=120
4800 On ch=1 n=e4 v=0
4800 On ch=1 n=a3 v=120
5220 On ch=1 n=a4 v=120
5280 On ch=1 n=a4 v=0
5280 On ch=1 n=a3 v=0
5280 On ch=1 n=d4 v=120
5580 On ch=1 n=e4 v=120
5640 On ch=1 n=e4 v=0
5640 On ch=1 n=a3 v=120
5700 On ch=1 n=a3 v=0
5760 On ch=1 n=d4 v=0
7500 On ch=1 n=e4 v=120
7560 On ch=1 n=e4 v=0
7560 On ch=1 n=a3 v=120
7620 On ch=1 n=a3 v=0
32640 On ch=1 n=f4 v=60
32960 On ch=1 n=e4 v=60
33120 On ch=1 n=e4 v=0
33280 On ch=1 n=e4 v=60
33440 On ch=1 n=e4 v=0
33600 On ch=1 n=e4 v=60
33840 On ch=1 n=e4 v=0
34080 On ch=1 n=d#4 v=60
34320 On ch=1 n=d#4 v=0
34560 On ch=1 n=f4 v=0
34560 On ch=1 n=d#4 v=60
34560 On ch=1 n=f4 v=60
34720 On ch=1 n=d#4 v=0
34880 On ch=1 n=d4 v=60
35040 On ch=1 n=d4 v=0
35200 On ch=1 n=d4 v=60
35360 On ch=1 n=d4 v=0
35520 On ch=1 n=d4 v=60
35760 On ch=1 n=d4 v=0
36000 On ch=1 n=c#4 v=60
36240 On ch=1 n=c#4 v=0
36480 On ch=1 n=f4 v=0
36480 On ch=1 n=c#4 v=60
36480 On ch=1 n=f4 v=60
40320 On ch=1 n=f4 v=0
40320 On ch=1 n=c#4 v=0
44160 On ch=1 n=d4 v=60
44160 On ch=1 n=f4 v=60
44480 On ch=1 n=d4 v=0
44480 On ch=1 n=c#4 v=60
44800 On ch=1 n=c#4 v=0
44800 On ch=1 n=c#4 v=60
48000 On ch=1 n=c#4 v=0
48000 On ch=1 n=f4 v=0
60000 On ch=1 n=f4 v=70
60720 On ch=1 n=f4 v=0
60720 On ch=1 n=e4 v=70
60840 On ch=1 n=e4 v=0
60960 On ch=1 n=f4 v=70
61080 On ch=1 n=f4 v=0
61200 On ch=1 n=g4 v=70
61320 On ch=1 n=g4 v=0
61320 On ch=1 n=f4 v=70
61380 On ch=1 n=f4 v=0
61380 On ch=1 n=b4 v=70
61440 On ch=1 n=f4 v=70
62400 On ch=1 n=b4 v=0
62640 On ch=1 n=f4 v=0
62640 On ch=1 n=e4 v=70
62760 On ch=1 n=e4 v=0
62880 On ch=1 n=f4 v=70
63000 On ch=1 n=f4 v=0
63120 On ch=1 n=g4 v=70
63240 On ch=1 n=g4 v=0
63360 On ch=1 n=a#4 v=70
63360 On ch=1 n=d#5 v=70
63360 On ch=1 n=b4 v=70
63420 On ch=1 n=a#4 v=0
63420 On ch=1 n=g4 v=70
63480 On ch=1 n=g4 v=0
63480 On ch=1 n=f4 v=70
64320 On ch=1 n=b4 v=0
64320 On ch=1 n=d#5 v=0
64320 On ch=1 n=e5 v=70
64320 On ch=1 n=c5 v=70
64640 On ch=1 n=c5 v=0
64640 On ch=1 n=e5 v=0
64640 On ch=1 n=f5 v=70
64640 On ch=1 n=c#5 v=70
64960 On ch=1 n=c#5 v=0
64960 On ch=1 n=f5 v=0
64960 On ch=1 n=f#5 v=70
64960 On ch=1 n=d5 v=70
65280 On ch=1 n=d5 v=0
65280 On ch=1 n=f#5 v=0
65280 On ch=1 n=f4 v=0
65280 On ch=1 n=a#4 v=70
65280 On ch=1 n=d#5 v=70
65280 On ch=1 n=b4 v=70
65340 On ch=1 n=a#4 v=0
65340 On ch=1 n=g4 v=70
65400 On ch=1 n=g4 v=0
65400 On ch=1 n=f4 v=70
66240 On ch=1 n=b4 v=0
66240 On ch=1 n=d#5 v=0
66240 On ch=1 n=e5 v=70
66240 On ch=1 n=c5 v=70
66560 On ch=1 n=c5 v=0
66560 On ch=1 n=e5 v=0
66560 On ch=1 n=f5 v=70
66560 On ch=1 n=c#5 v=70
66880 On ch=1 n=c#5 v=0
66880 On ch=1 n=f5 v=0
66880 On ch=1 n=f#5 v=70
66880 On ch=1 n=d5 v=70
67200 On ch=1 n=d5 v=0
67200 On ch=1 n=f#5 v=0
67200 On ch=1 n=f4 v=0
81540 On ch=1 n=e4 v=120
81600 On ch=1 n=e4 v=0
81600 On ch=1 n=a3 v=120
82020 On ch=1 n=a4 v=120
82080 On ch=1 n=a4 v=0
82080 On ch=1 n=a3 v=0
82080 On ch=1 n=d4 v=120
82380 On ch=1 n=e4 v=120
82440 On ch=1 n=e4 v=0
82440 On ch=1 n=a3 v=120
82500 On ch=1 n=a3 v=0
82560 On ch=1 n=d4 v=0
83460 On ch=1 n=e4 v=120
83520 On ch=1 n=e4 v=0
83520 On ch=1 n=a3 v=120
83940 On ch=1 n=a4 v=120
84000 On ch=1 n=a4 v=0
84000 On ch=1 n=a3 v=0
84000 On ch=1 n=d4 v=120
84300 On ch=1 n=d4 v=120
84360 On ch=1 n=d4 v=0
84360 On ch=1 n=f#3 v=120
84420 On ch=1 n=f#3 v=0
84480 On ch=1 n=d4 v=0
95820 On ch=1 n=d4 v=60
95880 On ch=1 n=d4 v=0
95880 On ch=1 n=f#3 v=60
95940 On ch=1 n=f#3 v=0
96780 On ch=1 n=d4 v=60
96840 On ch=1 n=d4 v=0
96840 On ch=1 n=f#3 v=60
96900 On ch=1 n=f#3 v=0
97260 On ch=1 n=a#4 v=60
97320 On ch=1 n=a#4 v=0
97320 On ch=1 n=d4 v=60
97380 On ch=1 n=d4 v=0
97740 On ch=1 n=d4 v=60
97800 On ch=1 n=d4 v=0
97800 On ch=1 n=f#3 v=60
97860 On ch=1 n=f#3 v=0
98700 On ch=1 n=d4 v=60
98760 On ch=1 n=d4 v=0
98760 On ch=1 n=f#3 v=60
98820 On ch=1 n=f#3 v=0
99180 On ch=1 n=a#4 v=60
99240 On ch=1 n=a#4 v=0
99240 On ch=1 n=d4 v=60
99300 On ch=1 n=d4 v=0
99840 On ch=1 n=c#4 v=50
99840 On ch=1 n=a4 v=50
100000 On ch=1 n=a4 v=0
100000 On ch=1 n=c#4 v=0
100160 On ch=1 n=c#4 v=50
100160 On ch=1 n=a4 v=50
100320 On ch=1 n=a4 v=0
100320 On ch=1 n=c#4 v=0
100480 On ch=1 n=c4 v=50
100480 On ch=1 n=g#4 v=50
100640 On ch=1 n=g#4 v=0
100640 On ch=1 n=c4 v=0
100800 On ch=1 n=b3 v=50
100800 On ch=1 n=g4 v=50
101280 On ch=1 n=g4 v=0
101280 On ch=1 n=b3 v=0
101280 On ch=1 n=a#3 v=50
101280 On ch=1 n=f#4 v=50
101580 On ch=1 n=d4 v=60
101640 On ch=1 n=d4 v=0
101640 On ch=1 n=f#3 v=60
101700 On ch=1 n=f#3 v=0
101760 On ch=1 n=f#4 v=0
101760 On ch=1 n=a#3 v=0
102720 On ch=1 n=c#5 v=70
102720 On ch=1 n=a4 v=70
103500 On ch=1 n=d4 v=60
103560 On ch=1 n=d4 v=0
103560 On ch=1 n=f#3 v=60
103620 On ch=1 n=f#3 v=0
103680 On ch=1 n=a4 v=0
103680 On ch=1 n=c#5 v=0
104640 On ch=1 n=e5 v=70
104640 On ch=1 n=c5 v=70
105600 On ch=1 n=c5 v=0
105600 On ch=1 n=e5 v=0
119040 On ch=1 n=f5 v=40
119040 On ch=1 n=c#5 v=40
119040 On ch=1 n=a4 v=40
120000 On ch=1 n=a4 v=0
120000 On ch=1 n=c#5 v=0
120000 On ch=1 n=f5 v=0
120000 On ch=1 n=e5 v=40
120000 On ch=1 n=c5 v=40
120000 On ch=1 n=f#4 v=40
120960 On ch=1 n=f#4 v=0
120960 On ch=1 n=c5 v=0
120960 On ch=1 n=e5 v=0
120960 On ch=1 n=f5 v=40
120960 On ch=1 n=c#5 v=40
120960 On ch=1 n=a4 v=40
121920 On ch=1 n=a4 v=0
121920 On ch=1 n=c#5 v=0
121920 On ch=1 n=f5 v=0
121920 On ch=1 n=e5 v=40
121920 On ch=1 n=c5 v=40
121920 On ch=1 n=f#4 v=40
122880 On ch=1 n=f#4 v=0
122880 On ch=1 n=c5 v=0
122880 On ch=1 n=e5 v=0
122880 On ch=1 n=f5 v=40
122880 On ch=1 n=c#5 v=40
122880 On ch=1 n=a4 v=40
123840 On ch=1 n=a4 v=0
123840 On ch=1 n=c#5 v=0
123840 On ch=1 n=f5 v=0
123840 On ch=1 n=e5 v=40
123840 On ch=1 n=c5 v=40
123840 On ch=1 n=f#4 v=40
125280 On ch=1 n=f#4 v=0
125280 On ch=1 n=c5 v=0
125280 On ch=1 n=e5 v=0
125280 Meta TrkEnd
TrkEnd
MTrk
0 SeqSpec 43 00 01 00
0 Meta TrkName "Middle Tre"
