MFile 1 8 480
MTrk
0 TimeSig 6/8 12 8
0 Tempo 542986
1440 Tempo 375000
1920 Tempo 344828
1960 Tempo 343840
1980 Tempo 342857
2000 Tempo 341880
2020 Tempo 340909
2040 Tempo 339943
2080 Tempo 338983
2100 Tempo 338028
2120 Tempo 337079
2140 Tempo 336134
2160 Tempo 335196
2200 Tempo 334262
2220 Tempo 333333
2240 Tempo 332410
2260 Tempo 331492
2280 Tempo 330579
2320 Tempo 329670
2340 Tempo 328767
2360 Tempo 327869
2380 Tempo 326975
2400 Tempo 326087
2760 Tempo 413793
2880 Tempo 375000
3340 Tempo 361446
3360 Tempo 346821
3400 Tempo 347826
3420 Tempo 348837
3460 Tempo 349854
3480 Tempo 350877
3500 Tempo 351906
3540 Tempo 352941
3560 Tempo 353982
3580 Tempo 355030
3620 Tempo 356083
3640 Tempo 357143
3660 Tempo 358209
3700 Tempo 359281
3720 Tempo 360360
3740 Tempo 361446
3780 Tempo 362538
3800 Tempo 363636
3820 Tempo 364742
3840 Tempo 326975
4320 Tempo 345821
4800 Tempo 325203
4820 Tempo 326087
4840 Tempo 326975
4860 Tempo 327869
4880 Tempo 328767
4900 Tempo 329670
4920 Tempo 330579
4940 Tempo 331492
4960 Tempo 333333
4980 Tempo 334262
5000 Tempo 335196
5020 Tempo 336134
5040 Tempo 337079
5060 Tempo 338028
5080 Tempo 338983
5100 Tempo 340909
5120 Tempo 341880
5140 Tempo 342857
5160 Tempo 343840
5180 Tempo 344828
5200 Tempo 345821
5220 Tempo 346821
5240 Tempo 348837
5260 Tempo 360360
5280 Tempo 324324
5760 Tempo 322581
5780 Tempo 321716
5900 Tempo 320856
6000 Tempo 320000
6100 Tempo 319149
6200 Tempo 318302
6320 Tempo 317460
6420 Tempo 316623
6520 Tempo 315789
6620 Tempo 314961
6740 Tempo 314136
6840 Tempo 313316
6940 Tempo 312500
7040 Tempo 311688
7060 Tempo 307692
7080 Tempo 320000
7200 Tempo 306122
7280 Tempo 306905
7360 Tempo 307692
7440 Tempo 308483
7520 Tempo 309278
7600 Tempo 310078
7680 Tempo 310881
7760 Tempo 311688
7840 Tempo 312500
7900 Tempo 313316
7980 Tempo 314136
8060 Tempo 314961
8140 Tempo 315789
8220 Tempo 316623
8300 Tempo 317460
8380 Tempo 318302
8460 Tempo 319149
8540 Tempo 320000
8600 Tempo 320856
8620 Tempo 297767
8640 Tempo 338028
9120 Tempo 324324
11520 Tempo 323450
11760 Tempo 322581
12000 Tempo 321716
12240 Tempo 320856
12460 Tempo 320000
12700 Tempo 319149
12940 Tempo 318302
13180 Tempo 317460
13400 Tempo 316623
13440 Tempo 319149
13920 Tempo 324324
14400 Tempo 310078
14880 Tempo 296296
15600 Tempo 297767
15660 Tempo 298507
15720 Tempo 305344
16020 Tempo 303797
16060 Tempo 304569
16080 Tempo 296296
16800 Tempo 304569
17520 Tempo 343840
18460 Tempo 307692
18480 Tempo 320000
18720 Tempo 321716
18740 Tempo 322581
18760 Tempo 323450
18780 Tempo 324324
18800 Tempo 325203
18820 Tempo 326975
18840 Tempo 327869
18860 Tempo 328767
18880 Tempo 329670
18900 Tempo 331492
18920 Tempo 332410
18940 Tempo 333333
18960 Tempo 334262
18980 Tempo 335196
19000 Tempo 337079
19020 Tempo 338028
19040 Tempo 338983
19060 Tempo 339943
19080 Tempo 341880
19100 Tempo 342857
19120 Tempo 343840
19140 Tempo 344828
19160 Tempo 345821
19180 Tempo 347826
19200 Tempo 348837
19220 Tempo 349854
19240 Tempo 350877
19260 Tempo 352941
19280 Tempo 353982
19300 Tempo 355030
19320 Tempo 356083
19340 Tempo 357143
19360 Tempo 359281
19380 Tempo 360360
19400 Tempo 361446
19420 Tempo 362538
19440 Tempo 364742
20160 Tempo 352941
23020 Tempo 352941
23180 Tempo 351906
23320 Tempo 350877
23480 Tempo 349854
23620 Tempo 348837
23760 Tempo 347826
23920 Tempo 346821
24060 Tempo 345821
24200 Tempo 344828
24240 Tempo 365854
24480 Tempo 344828
24520 Tempo 345821
24540 Tempo 346821
24560 Tempo 347826
24600 Tempo 348837
24620 Tempo 349854
24640 Tempo 350877
24680 Tempo 351906
24700 Tempo 352941
24720 Tempo 353982
24760 Tempo 355030
24780 Tempo 356083
24800 Tempo 357143
24840 Tempo 358209
24860 Tempo 359281
24880 Tempo 360360
24900 Tempo 361446
24940 Tempo 362538
24960 Tempo 363636
24980 Tempo 364742
25020 Tempo 365854
25040 Tempo 366972
25060 Tempo 368098
25100 Tempo 369231
25120 Tempo 370370
25140 Tempo 371517
25180 Tempo 372671
25200 Tempo 373832
25220 Tempo 375000
25260 Tempo 376176
25280 Tempo 377358
25300 Tempo 378549
25320 Tempo 379747
25340 Tempo 380952
25440 Tempo 387097
25920 Tempo 379435
26880 Tempo 372671
27360 Tempo 379747
28080 Tempo 379747
28120 Tempo 380952
28140 Tempo 382166
28180 Tempo 383387
28200 Tempo 384615
28220 Tempo 385852
28260 Tempo 387097
28280 Tempo 388350
28300 Tempo 389610
28340 Tempo 390879
28360 Tempo 392157
28380 Tempo 393443
28420 Tempo 394737
28440 Tempo 396040
28460 Tempo 397351
28500 Tempo 398671
28520 Tempo 400000
28540 Tempo 401338
28560 Tempo 500000
28800 Tempo 431655
30240 Tempo 409556
30400 Tempo 410959
30540 Tempo 412371
30700 Tempo 413793
30840 Tempo 415225
30980 Tempo 416667
31140 Tempo 418118
31200 Tempo 382166
31680 Tempo 418118
32400 Tempo 380952
33600 Tempo 422535
33840 Tempo 418118
36000 Tempo 418118
36720 Tempo 545455
36720 Meta TrkEnd
TrkEnd
MTrk
0 SeqSpec 43 00 01 00
0 Meta TrkName "Piano right"
0 Meta 0x21 00
0 PrCh ch=1 p=0
0 Par ch=1 c=7 v=100
0 Par ch=1 c=10 v=64
0 Par ch=1 c=91 v=127
4 On ch=1 n=f#6 v=55
1440 On ch=1 n=f6 v=48
1444 On ch=1 n=f#6 v=0
1680 On ch=1 n=f6 v=0
1680 On ch=1 n=f#6 v=53
1920 On ch=1 n=f#6 v=0
1920 On ch=1 n=g#6 v=57
2160 On ch=1 n=g#6 v=0
2160 On ch=1 n=f#6 v=55
2400 On ch=1 n=f#6 v=0
2400 On ch=1 n=e6 v=52
2640 On ch=1 n=e6 v=0
2640 On ch=1 n=d#6 v=49
2880 On ch=1 n=d#6 v=0
2880 On ch=1 n=e5 v=39
2880 On ch=1 n=c#6 v=47
3120 On ch=1 n=c#6 v=0
3120 On ch=1 n=e5 v=0
3120 On ch=1 n=f#5 v=40
3240 On ch=1 n=f#5 v=0
3240 On ch=1 n=a#5 v=36
3360 On ch=1 n=a#5 v=0
3360 On ch=1 n=g#5 v=46
3600 On ch=1 n=g#5 v=0
3600 On ch=1 n=f#5 v=42
3840 On ch=1 n=f#5 v=0
3840 On ch=1 n=f#5 v=41
4080 On ch=1 n=f#5 v=0
4080 On ch=1 n=d#6 v=41
4320 On ch=1 n=d#6 v=0
4320 On ch=1 n=e5 v=39
4320 On ch=1 n=c#6 v=47
4560 On ch=1 n=c#6 v=0
4560 On ch=1 n=e5 v=0
4560 On ch=1 n=f#5 v=44
4680 On ch=1 n=f#5 v=0
4680 On ch=1 n=a#5 v=33
4800 On ch=1 n=a#5 v=0
4800 On ch=1 n=g#5 v=45
5040 On ch=1 n=g#5 v=0
5040 On ch=1 n=f#5 v=43
5280 On ch=1 n=f#5 v=0
5280 On ch=1 n=f#5 v=43
5520 On ch=1 n=f#5 v=0
5520 On ch=1 n=d#6 v=43
5760 On ch=1 n=d#6 v=0
5760 On ch=1 n=e5 v=40
5760 On ch=1 n=c#6 v=48
6000 On ch=1 n=c#6 v=0
6000 On ch=1 n=e5 v=0
6000 On ch=1 n=f#5 v=52
6240 On ch=1 n=f#5 v=0
6240 On ch=1 n=d#5 v=59
6240 On ch=1 n=b5 v=59
6480 On ch=1 n=b5 v=0
6480 On ch=1 n=d#5 v=0
6480 On ch=1 n=f#5 v=56
6720 On ch=1 n=f#5 v=0
6720 On ch=1 n=b5 v=51
6720 On ch=1 n=d#6 v=60
6960 On ch=1 n=d#6 v=0
6960 On ch=1 n=b5 v=0
6960 On ch=1 n=f#5 v=56
7200 On ch=1 n=f#5 v=0
7200 On ch=1 n=b5 v=45
7200 On ch=1 n=f6 v=53
7440 On ch=1 n=f6 v=0
7440 On ch=1 n=b5 v=0
7440 On ch=1 n=f#5 v=47
7440 On ch=1 n=f#6 v=56
7680 On ch=1 n=f#6 v=0
7680 On ch=1 n=f#5 v=0
7680 On ch=1 n=g#6 v=62
7680 On ch=1 n=b5 v=52
7920 On ch=1 n=b5 v=0
7920 On ch=1 n=g#6 v=0
7920 On ch=1 n=f#5 v=48
7920 On ch=1 n=f#6 v=57
8160 On ch=1 n=f#6 v=0
8160 On ch=1 n=f#5 v=0
8160 On ch=1 n=b5 v=46
8160 On ch=1 n=e6 v=55
8400 On ch=1 n=e6 v=0
8400 On ch=1 n=b5 v=0
8400 On ch=1 n=f#5 v=45
8400 On ch=1 n=d#6 v=53
8640 On ch=1 n=d#6 v=0
8640 On ch=1 n=f#5 v=0
8640 On ch=1 n=e5 v=48
8640 On ch=1 n=c#6 v=57
8880 On ch=1 n=c#6 v=0
8880 On ch=1 n=e5 v=0
8880 On ch=1 n=f#5 v=56
9000 On ch=1 n=f#5 v=0
9000 On ch=1 n=a#5 v=43
9120 On ch=1 n=a#5 v=0
9120 On ch=1 n=g#5 v=55
9360 On ch=1 n=g#5 v=0
9360 On ch=1 n=f#5 v=52
9600 On ch=1 n=f#5 v=0
9600 On ch=1 n=f#5 v=52
9840 On ch=1 n=f#5 v=0
9840 On ch=1 n=d#6 v=52
10080 On ch=1 n=d#6 v=0
10080 On ch=1 n=e5 v=49
10080 On ch=1 n=c#6 v=58
10320 On ch=1 n=c#6 v=0
10320 On ch=1 n=e5 v=0
10320 On ch=1 n=f#5 v=55
10440 On ch=1 n=f#5 v=0
10440 On ch=1 n=a#5 v=41
10560 On ch=1 n=a#5 v=0
10560 On ch=1 n=g#5 v=52
10800 On ch=1 n=g#5 v=0
10800 On ch=1 n=f#5 v=51
11040 On ch=1 n=f#5 v=0
11040 On ch=1 n=f#5 v=51
11280 On ch=1 n=f#5 v=0
11280 On ch=1 n=d#6 v=51
11520 On ch=1 n=d#6 v=0
11520 On ch=1 n=e5 v=51
11520 On ch=1 n=c#6 v=61
11760 On ch=1 n=c#6 v=0
11760 On ch=1 n=e5 v=0
11760 On ch=1 n=f#5 v=56
12000 On ch=1 n=f#5 v=0
12000 On ch=1 n=d#5 v=54
12000 On ch=1 n=b5 v=64
12240 On ch=1 n=b5 v=0
12240 On ch=1 n=d#5 v=0
12240 On ch=1 n=f#5 v=59
12480 On ch=1 n=f#5 v=0
12480 On ch=1 n=b5 v=56
12480 On ch=1 n=d#6 v=67
12720 On ch=1 n=d#6 v=0
12720 On ch=1 n=b5 v=0
12720 On ch=1 n=f#5 v=62
12960 On ch=1 n=f#5 v=0
12960 On ch=1 n=b5 v=59
12960 On ch=1 n=f#6 v=70
13200 On ch=1 n=f#6 v=0
13200 On ch=1 n=b5 v=0
13200 On ch=1 n=f#5 v=66
13440 On ch=1 n=f#5 v=0
13440 On ch=1 n=g6 v=74
13440 On ch=1 n=b5 v=62
13680 On ch=1 n=b5 v=0
13680 On ch=1 n=g6 v=0
13680 On ch=1 n=g5 v=69
13920 On ch=1 n=g5 v=0
13920 On ch=1 n=g#6 v=76
13920 On ch=1 n=b5 v=64
14160 On ch=1 n=b5 v=0
14160 On ch=1 n=g#6 v=0
14160 On ch=1 n=g#5 v=70
14400 On ch=1 n=g#5 v=0
14400 On ch=1 n=d#6 v=64
14400 On ch=1 n=b6 v=76
14640 On ch=1 n=b6 v=0
14640 On ch=1 n=d#6 v=0
14640 On ch=1 n=d#6 v=66
14760 On ch=1 n=d#6 v=0
14760 On ch=1 n=f#6 v=46
14880 On ch=1 n=f#6 v=0
14880 On ch=1 n=e6 v=70
15120 On ch=1 n=e6 v=0
15120 On ch=1 n=d#6 v=66
15360 On ch=1 n=d#6 v=0
15360 On ch=1 n=b5 v=69
15600 On ch=1 n=b5 v=0
15600 On ch=1 n=b6 v=57
15600 On ch=1 n=g#6 v=48
15840 On ch=1 n=g#6 v=0
15840 On ch=1 n=b6 v=0
15840 On ch=1 n=f#6 v=54
15840 On ch=1 n=a#6 v=64
16080 On ch=1 n=a#6 v=0
16080 On ch=1 n=f#6 v=0
16080 On ch=1 n=d#6 v=65
16320 On ch=1 n=d#6 v=0
16320 On ch=1 n=a#5 v=65
16440 On ch=1 n=a#5 v=0
16440 On ch=1 n=c#6 v=47
16560 On ch=1 n=c#6 v=0
16560 On ch=1 n=b5 v=65
16800 On ch=1 n=b5 v=0
16800 On ch=1 n=a#5 v=63
17040 On ch=1 n=a#5 v=0
17040 On ch=1 n=f#6 v=57
17040 On ch=1 n=d#6 v=48
17280 On ch=1 n=d#6 v=0
17280 On ch=1 n=f#6 v=0
17280 On ch=1 n=b5 v=60
17280 On ch=1 n=g#5 v=60
17520 On ch=1 n=g#5 v=0
17520 On ch=1 n=e5 v=58
17640 On ch=1 n=e5 v=0
17640 On ch=1 n=g#5 v=48
17760 On ch=1 n=g#5 v=0
17760 On ch=1 n=f#5 v=63
18000 On ch=1 n=f#5 v=0
18000 On ch=1 n=e5 v=54
18240 On ch=1 n=e5 v=0
18240 On ch=1 n=g#5 v=57
18480 On ch=1 n=b5 v=0
18480 On ch=1 n=c#6 v=59
18720 On ch=1 n=c#6 v=0
18720 On ch=1 n=g#5 v=0
18720 On ch=1 n=b5 v=61
18720 On ch=1 n=d#6 v=61
18960 On ch=1 n=b5 v=0
18960 On ch=1 n=d#5 v=57
19200 On ch=1 n=d#5 v=0
19200 On ch=1 n=f#5 v=57
19440 On ch=1 n=f#5 v=0
19440 On ch=1 n=d#5 v=57
19680 On ch=1 n=d#5 v=0
19680 On ch=1 n=f#5 v=54
19920 On ch=1 n=f#5 v=0
19920 On ch=1 n=g#5 v=53
20160 On ch=1 n=g#5 v=0
20160 On ch=1 n=d#6 v=0
20160 On ch=1 n=e5 v=48
20160 On ch=1 n=c#6 v=57
20400 On ch=1 n=c#6 v=0
20400 On ch=1 n=e5 v=0
20400 On ch=1 n=f#5 v=52
20520 On ch=1 n=f#5 v=0
20520 On ch=1 n=g#5 v=40
20580 On ch=1 n=g#5 v=0
20580 On ch=1 n=a#5 v=40
20640 On ch=1 n=a#5 v=0
20640 On ch=1 n=g#5 v=50
20880 On ch=1 n=g#5 v=0
20880 On ch=1 n=f#5 v=49
21120 On ch=1 n=f#5 v=0
21120 On ch=1 n=f#5 v=49
21360 On ch=1 n=f#5 v=0
21360 On ch=1 n=d#6 v=49
21600 On ch=1 n=d#6 v=0
21600 On ch=1 n=e5 v=45
21600 On ch=1 n=c#6 v=54
21840 On ch=1 n=c#6 v=0
21840 On ch=1 n=e5 v=0
21840 On ch=1 n=f#5 v=51
21960 On ch=1 n=f#5 v=0
21960 On ch=1 n=g#5 v=40
22020 On ch=1 n=g#5 v=0
22020 On ch=1 n=a#5 v=40
22080 On ch=1 n=a#5 v=0
22080 On ch=1 n=g#5 v=48
22320 On ch=1 n=g#5 v=0
22320 On ch=1 n=f#5 v=47
22560 On ch=1 n=f#5 v=0
22560 On ch=1 n=f#5 v=47
22800 On ch=1 n=f#5 v=0
22800 On ch=1 n=d#6 v=47
23040 On ch=1 n=d#6 v=0
23040 On ch=1 n=e5 v=43
23040 On ch=1 n=c#6 v=51
23280 On ch=1 n=c#6 v=0
23280 On ch=1 n=e5 v=0
23280 On ch=1 n=f#5 v=45
23520 On ch=1 n=f#5 v=0
23520 On ch=1 n=d#5 v=44
23520 On ch=1 n=b5 v=52
23760 On ch=1 n=b5 v=0
23760 On ch=1 n=d#5 v=0
23760 On ch=1 n=f#5 v=47
24000 On ch=1 n=f#5 v=0
24000 On ch=1 n=b5 v=44
24000 On ch=1 n=d#6 v=52
24240 On ch=1 n=d#6 v=0
24240 On ch=1 n=b5 v=0
24240 On ch=1 n=f#5 v=48
24480 On ch=1 n=f#5 v=0
24480 On ch=1 n=b5 v=44
24480 On ch=1 n=f6 v=44
24720 On ch=1 n=f6 v=0
24720 On ch=1 n=b5 v=0
24720 On ch=1 n=f#5 v=34
24720 On ch=1 n=f#6 v=40
24960 On ch=1 n=f#6 v=0
24960 On ch=1 n=f#5 v=0
24960 On ch=1 n=b5 v=37
24960 On ch=1 n=g#6 v=44
25200 On ch=1 n=g#6 v=0
25200 On ch=1 n=b5 v=0
25200 On ch=1 n=f#5 v=34
25200 On ch=1 n=f#6 v=40
25440 On ch=1 n=f#6 v=0
25440 On ch=1 n=f#5 v=0
25440 On ch=1 n=b5 v=32
25440 On ch=1 n=e6 v=38
25680 On ch=1 n=e6 v=0
25680 On ch=1 n=b5 v=0
25680 On ch=1 n=f#5 v=32
25680 On ch=1 n=d#6 v=38
25920 On ch=1 n=d#6 v=0
25920 On ch=1 n=f#5 v=0
25920 On ch=1 n=e5 v=39
25920 On ch=1 n=c#6 v=46
26160 On ch=1 n=c#6 v=0
26160 On ch=1 n=e5 v=0
26160 On ch=1 n=f#5 v=47
26280 On ch=1 n=f#5 v=0
26280 On ch=1 n=g#5 v=32
26340 On ch=1 n=g#5 v=0
26340 On ch=1 n=a#5 v=32
26400 On ch=1 n=a#5 v=0
26400 On ch=1 n=g#5 v=44
26640 On ch=1 n=g#5 v=0
26640 On ch=1 n=f#5 v=44
26880 On ch=1 n=f#5 v=0
26880 On ch=1 n=f#5 v=44
27120 On ch=1 n=f#5 v=0
27120 On ch=1 n=d#6 v=44
27360 On ch=1 n=d#6 v=0
27360 On ch=1 n=e5 v=42
27360 On ch=1 n=c#6 v=50
27600 On ch=1 n=c#6 v=0
27600 On ch=1 n=e5 v=0
27600 On ch=1 n=f#5 v=47
27720 On ch=1 n=f#5 v=0
27720 On ch=1 n=g#5 v=31
27780 On ch=1 n=g#5 v=0
27780 On ch=1 n=a#5 v=31
27840 On ch=1 n=a#5 v=0
27840 On ch=1 n=g#5 v=43
28080 On ch=1 n=g#5 v=0
28080 On ch=1 n=f#5 v=43
28320 On ch=1 n=f#5 v=0
28320 On ch=1 n=f#5 v=43
28560 On ch=1 n=f#5 v=0
28560 On ch=1 n=f#6 v=43
28740 On ch=1 n=d#5 v=50
28800 On ch=1 n=d#5 v=0
28800 On ch=1 n=f#6 v=0
28800 On ch=1 n=f#6 v=53
30240 On ch=1 n=f#6 v=0
30240 On ch=1 n=f6 v=58
30480 On ch=1 n=f6 v=0
30480 On ch=1 n=f#6 v=60
30720 On ch=1 n=f#6 v=0
30720 On ch=1 n=g#6 v=63
30960 On ch=1 n=g#6 v=0
30960 On ch=1 n=f#6 v=60
31200 On ch=1 n=f#6 v=0
31200 On ch=1 n=e6 v=58
31440 On ch=1 n=e6 v=0
31440 On ch=1 n=d#6 v=54
31680 On ch=1 n=d#6 v=0
31680 On ch=1 n=d#6 v=51
32400 On ch=1 n=d#6 v=0
32400 On ch=1 n=g5 v=38
32400 On ch=1 n=d6 v=45
32640 On ch=1 n=d6 v=0
32640 On ch=1 n=g5 v=0
32640 On ch=1 n=d#6 v=50
32880 On ch=1 n=d#6 v=0
32880 On ch=1 n=e6 v=50
33120 On ch=1 n=e6 v=0
33120 On ch=1 n=g#5 v=37
33120 On ch=1 n=d#6 v=44
33360 On ch=1 n=d#6 v=0
33360 On ch=1 n=c#6 v=51
33600 On ch=1 n=c#6 v=0
33600 On ch=1 n=b5 v=49
33840 On ch=1 n=b5 v=0
33840 On ch=1 n=g#5 v=0
33840 On ch=1 n=d#6 v=46
33840 On ch=1 n=e5 v=39
34080 On ch=1 n=d#6 v=0
34080 On ch=1 n=c#6 v=52
34320 On ch=1 n=c#6 v=0
34320 On ch=1 n=b5 v=49
34560 On ch=1 n=b5 v=0
34560 On ch=1 n=e5 v=0
34560 On ch=1 n=d#5 v=39
34560 On ch=1 n=b5 v=46
36000 On ch=1 n=b5 v=0
36000 On ch=1 n=d#5 v=0
36000 On ch=1 n=d#5 v=38
36000 On ch=1 n=f#5 v=45
37440 On ch=1 n=f#5 v=0
37440 On ch=1 n=d#5 v=0
37440 On ch=1 n=d#5 v=45
38880 On ch=1 n=d#5 v=0
38880 Meta TrkEnd
TrkEnd
MTrk
0 SeqSpec 43 00 01 00
0 Meta TrkName "Piano left"
0 Meta 0x21 00
0 PrCh ch=1 p=0
0 Par ch=1 c=7 v=100
0 Par ch=1 c=10 v=64
0 Par ch=1 c=91 v=127
2880 Par ch=1 c=64 v=127
2880 On ch=1 n=a#4 v=33
3120 On ch=1 n=a#4 v=0
3120 On ch=1 n=f#4 v=31
3360 On ch=1 n=f#4 v=0
3360 On ch=1 n=c#4 v=34
3600 On ch=1 n=c#4 v=0
3600 On ch=1 n=f#3 v=31
3840 On ch=1 n=f#3 v=0
3840 On ch=1 n=c#4 v=33
4080 On ch=1 n=c#4 v=0
4080 On ch=1 n=f#4 v=33
4124 Par ch=1 c=64 v=0
4320 On ch=1 n=f#4 v=0
4320 Par ch=1 c=64 v=127
4320 On ch=1 n=a#4 v=36
4560 On ch=1 n=a#4 v=0
4560 On ch=1 n=f#4 v=33
4800 On ch=1 n=f#4 v=0
4800 On ch=1 n=c#4 v=33
5040 On ch=1 n=c#4 v=0
5040 On ch=1 n=f#3 v=33
5280 On ch=1 n=f#3 v=0
5280 On ch=1 n=c#4 v=33
5520 On ch=1 n=c#4 v=0
5520 On ch=1 n=f#4 v=33
5612 Par ch=1 c=64 v=0
5760 On ch=1 n=f#4 v=0
5760 On ch=1 n=b3 v=39
5788 Par ch=1 c=64 v=127
6000 On ch=1 n=b3 v=0
6000 On ch=1 n=f#4 v=35
6240 On ch=1 n=f#4 v=0
6240 On ch=1 n=b3 v=43
6480 On ch=1 n=b3 v=0
6480 On ch=1 n=f#4 v=38
6720 On ch=1 n=f#4 v=0
6720 On ch=1 n=d#4 v=44
6960 On ch=1 n=d#4 v=0
6960 On ch=1 n=b4 v=40
7200 On ch=1 n=b4 v=0
7200 On ch=1 n=d#5 v=32
7440 On ch=1 n=d#5 v=0
7440 On ch=1 n=f#4 v=33
7680 On ch=1 n=f#4 v=0
7680 On ch=1 n=b4 v=39
7920 On ch=1 n=b4 v=0
7920 On ch=1 n=d#4 v=33
8160 On ch=1 n=d#4 v=0
8160 On ch=1 n=f#4 v=36
8400 On ch=1 n=f#4 v=0
8400 On ch=1 n=b3 v=33
8456 Par ch=1 c=64 v=0
8640 On ch=1 n=b3 v=0
8640 Par ch=1 c=64 v=127
8640 On ch=1 n=a#4 v=40
8880 On ch=1 n=a#4 v=0
8880 On ch=1 n=f#4 v=37
9120 On ch=1 n=f#4 v=0
9120 On ch=1 n=c#4 v=40
9360 On ch=1 n=c#4 v=0
9360 On ch=1 n=f#3 v=36
9600 On ch=1 n=f#3 v=0
9600 On ch=1 n=c#4 v=36
9840 On ch=1 n=c#4 v=0
9840 On ch=1 n=f#4 v=36
9876 Par ch=1 c=64 v=0
10080 On ch=1 n=f#4 v=0
10080 Par ch=1 c=64 v=127
10080 On ch=1 n=a#4 v=40
10320 On ch=1 n=a#4 v=0
10320 On ch=1 n=f#4 v=34
10560 On ch=1 n=f#4 v=0
10560 On ch=1 n=c#4 v=38
10800 On ch=1 n=c#4 v=0
10800 On ch=1 n=f#3 v=35
11040 On ch=1 n=f#3 v=0
11040 On ch=1 n=c#4 v=38
11280 On ch=1 n=c#4 v=0
11280 On ch=1 n=f#4 v=32
11372 Par ch=1 c=64 v=0
11520 On ch=1 n=f#4 v=0
11520 Par ch=1 c=64 v=127
11520 On ch=1 n=b3 v=41
11760 On ch=1 n=b3 v=0
11760 On ch=1 n=f#4 v=37
12000 On ch=1 n=f#4 v=0
12000 On ch=1 n=b3 v=45
12240 On ch=1 n=b3 v=0
12240 On ch=1 n=f#4 v=36
12480 On ch=1 n=f#4 v=0
12480 On ch=1 n=d#4 v=48
12720 On ch=1 n=d#4 v=0
12720 On ch=1 n=b4 v=39
12788 Par ch=1 c=64 v=0
12960 On ch=1 n=b4 v=0
12960 On ch=1 n=d#5 v=48
13200 On ch=1 n=d#5 v=0
13200 On ch=1 n=f#4 v=39
13440 On ch=1 n=f#4 v=0
13440 On ch=1 n=c#5 v=52
13680 On ch=1 n=c#5 v=0
13680 On ch=1 n=e4 v=48
13920 On ch=1 n=e4 v=0
13920 On ch=1 n=b4 v=53
14160 On ch=1 n=b4 v=0
14160 On ch=1 n=d#4 v=49
14400 On ch=1 n=d#4 v=0
14400 Par ch=1 c=64 v=127
14400 On ch=1 n=g#3 v=54
14640 On ch=1 n=g#3 v=0
14640 On ch=1 n=d#4 v=47
14880 On ch=1 n=d#4 v=0
14880 On ch=1 n=d#5 v=54
15120 On ch=1 n=d#5 v=0
15120 On ch=1 n=g#4 v=47
15360 On ch=1 n=g#4 v=0
15360 On ch=1 n=d#5 v=52
15600 On ch=1 n=d#5 v=0
15600 On ch=1 n=b4 v=35
15712 Par ch=1 c=64 v=0
15840 On ch=1 n=b4 v=0
15840 Par ch=1 c=64 v=127
15840 On ch=1 n=d#4 v=39
16080 On ch=1 n=d#4 v=0
16080 On ch=1 n=f#5 v=44
16320 On ch=1 n=f#5 v=0
16320 On ch=1 n=a#4 v=49
16560 On ch=1 n=a#4 v=0
16560 On ch=1 n=f#4 v=40
16800 On ch=1 n=f#4 v=0
16800 On ch=1 n=d#5 v=47
17040 On ch=1 n=d#5 v=0
17040 On ch=1 n=a#4 v=49
17112 Par ch=1 c=64 v=0
17280 On ch=1 n=a#4 v=0
17280 Par ch=1 c=64 v=127
17280 On ch=1 n=e3 v=53
17520 On ch=1 n=e3 v=0
17520 On ch=1 n=b4 v=38
17760 On ch=1 n=b4 v=0
17760 On ch=1 n=b3 v=36
18000 On ch=1 n=b3 v=0
18000 On ch=1 n=g#4 v=35
18240 On ch=1 n=g#4 v=0
18240 On ch=1 n=b4 v=37
18480 On ch=1 n=b4 v=0
18480 On ch=1 n=e4 v=42
18608 Par ch=1 c=64 v=0
18720 On ch=1 n=e4 v=0
18720 On ch=1 n=b3 v=40
18764 Par ch=1 c=64 v=127
18960 On ch=1 n=b3 v=0
18960 On ch=1 n=f4 v=44
19200 On ch=1 n=f4 v=0
19200 On ch=1 n=f#4 v=47
19440 On ch=1 n=f#4 v=0
19440 On ch=1 n=c#5 v=51
19680 On ch=1 n=c#5 v=0
19680 On ch=1 n=b4 v=48
19920 On ch=1 n=b4 v=0
19920 On ch=1 n=g#4 v=45
19932 Par ch=1 c=64 v=0
20160 On ch=1 n=g#4 v=0
20160 Par ch=1 c=64 v=127
20160 On ch=1 n=a#4 v=38
20400 On ch=1 n=a#4 v=0
20400 On ch=1 n=f#4 v=31
20640 On ch=1 n=f#4 v=0
20640 On ch=1 n=c#4 v=36
20880 On ch=1 n=c#4 v=0
20880 On ch=1 n=f#3 v=30
21120 On ch=1 n=f#3 v=0
21120 On ch=1 n=c#4 v=34
21360 On ch=1 n=c#4 v=0
21360 On ch=1 n=f#4 v=34
21504 Par ch=1 c=64 v=0
21600 On ch=1 n=f#4 v=0
21600 Par ch=1 c=64 v=127
21600 On ch=1 n=a#4 v=36
21840 On ch=1 n=a#4 v=0
21840 On ch=1 n=f#4 v=33
22080 On ch=1 n=f#4 v=0
22080 On ch=1 n=c#4 v=35
22320 On ch=1 n=c#4 v=0
22320 On ch=1 n=f#3 v=31
22560 On ch=1 n=f#3 v=0
22560 On ch=1 n=c#4 v=32
22800 On ch=1 n=c#4 v=0
22800 On ch=1 n=f#4 v=30
22960 Par ch=1 c=64 v=0
23040 On ch=1 n=f#4 v=0
23040 On ch=1 n=b2 v=35
23052 Par ch=1 c=64 v=127
23280 On ch=1 n=b2 v=0
23280 On ch=1 n=f#3 v=32
23520 On ch=1 n=f#3 v=0
23520 On ch=1 n=b3 v=36
23760 On ch=1 n=b3 v=0
23760 On ch=1 n=f#4 v=31
24000 On ch=1 n=f#4 v=0
24000 On ch=1 n=d#4 v=37
24240 On ch=1 n=d#4 v=0
24240 On ch=1 n=b4 v=33
24320 Par ch=1 c=64 v=0
24480 On ch=1 n=b4 v=0
24480 On ch=1 n=d5 v=27
24720 On ch=1 n=d5 v=0
24720 On ch=1 n=d#5 v=27
24960 On ch=1 n=d#5 v=0
24960 On ch=1 n=e5 v=29
25200 On ch=1 n=e5 v=0
25200 On ch=1 n=d#5 v=27
25440 On ch=1 n=d#5 v=0
25440 On ch=1 n=c#5 v=30
25680 On ch=1 n=c#5 v=0
25680 On ch=1 n=b4 v=29
25920 On ch=1 n=b4 v=0
25920 Par ch=1 c=64 v=127
25920 On ch=1 n=a#4 v=36
26160 On ch=1 n=a#4 v=0
26400 On ch=1 n=c#4 v=30
26640 On ch=1 n=c#4 v=0
26640 On ch=1 n=f#3 v=30
26880 On ch=1 n=f#3 v=0
26880 On ch=1 n=c#4 v=30
27120 On ch=1 n=c#4 v=0
27120 On ch=1 n=f#4 v=30
27360 On ch=1 n=f#4 v=0
27360 On ch=1 n=a#4 v=35
27600 On ch=1 n=a#4 v=0
27600 On ch=1 n=f#4 v=29
27840 On ch=1 n=f#4 v=0
27840 On ch=1 n=c#4 v=34
28080 On ch=1 n=c#4 v=0
28080 On ch=1 n=f#3 v=31
28320 On ch=1 n=f#3 v=0
28320 On ch=1 n=c#4 v=31
28544 Par ch=1 c=64 v=0
28560 On ch=1 n=c#4 v=0
28560 On ch=1 n=a#4 v=34
28800 On ch=1 n=a#4 v=0
28800 Par ch=1 c=64 v=127
28800 On ch=1 n=b3 v=33
28800 On ch=1 n=f#4 v=33
28800 On ch=1 n=d#5 v=39
30240 On ch=1 n=d#5 v=0
30240 On ch=1 n=f#4 v=0
30240 On ch=1 n=b3 v=0
31292 Par ch=1 c=64 v=0
32400 On ch=1 n=d#4 v=27
32400 On ch=1 n=a#4 v=32
33120 On ch=1 n=a#4 v=0
33120 On ch=1 n=d#4 v=0
33120 On ch=1 n=g#4 v=29
33120 On ch=1 n=b4 v=35
33156 Par ch=1 c=64 v=127
33640 Par ch=1 c=64 v=0
33840 On ch=1 n=b4 v=0
33840 On ch=1 n=g#4 v=0
33840 Par ch=1 c=64 v=127
33840 On ch=1 n=f#4 v=29
33840 On ch=1 n=a#4 v=35
34388 Par ch=1 c=64 v=0
34560 On ch=1 n=a#4 v=0
34560 On ch=1 n=f#4 v=0
34560 On ch=1 n=b3 v=27
34560 On ch=1 n=f#4 v=32
34640 Par ch=1 c=64 v=127
36000 On ch=1 n=f#4 v=0
36000 On ch=1 n=b3 v=0
36000 On ch=1 n=b2 v=26
36000 On ch=1 n=b3 v=31
36000 On ch=1 n=f#4 v=31
36720 On ch=1 n=b3 v=0
36720 On ch=1 n=b2 v=0
36720 On ch=1 n=f#2 v=26
36720 On ch=1 n=f#3 v=31
37440 On ch=1 n=f#3 v=0
37440 On ch=1 n=f#2 v=0
37440 On ch=1 n=f#4 v=0
37440 On ch=1 n=b2 v=26
37440 On ch=1 n=b3 v=26
37440 On ch=1 n=f#4 v=31
37440 On ch=1 n=b4 v=31
38588 Par ch=1 c=64 v=0
38880 On ch=1 n=b4 v=0
38880 On ch=1 n=f#4 v=0
38880 On ch=1 n=b3 v=0
38880 On ch=1 n=b2 v=0
38880 Meta TrkEnd
TrkEnd
MTrk
0 SeqSpec 43 00 01 00
0 Meta TrkName "Chopin: Prelude No.11 in B, Op. 28"
0 Meta 0x21 00
0 Meta TrkEnd
TrkEnd
MTrk
0 SeqSpec 43 00 01 00
0 Meta TrkName "Copyright \xffffffa9 1997 by Bernd Krueger"
0 Meta 0x21 00
0 Meta TrkEnd
TrkEnd
MTrk
0 SeqSpec 43 00 01 00
0 Meta TrkName "email: bernd.krueger@piano-midi.de"
0 Meta 0x21 00
0 Meta TrkEnd
TrkEnd
MTrk
0 SeqSpec 43 00 01 00
0 Meta TrkName "http://piano-midi.com"
0 Meta 0x21 00
0 Meta TrkEnd
TrkEnd
MTrk
0 SeqSpec 43 00 01 00
0 Meta TrkName "Edition: 14.4.99"
0 Meta 0x21 00
0 Meta TrkEnd
TrkEnd
