MFile 1 10 480
MTrk
0 TimeSig 6/8 24 8
0 Tempo 666666
480 Tempo 750000
960 Tempo 660534
1440 Tempo 666666
1920 Tempo 750000
2400 Tempo 660534
2880 Tempo 666666
3840 Tempo 660534
4320 Tempo 666666
4800 Tempo 750000
5280 Tempo 660534
5760 Tempo 666666
6240 Tempo 750000
6720 Tempo 660534
7200 Tempo 666666
7680 Tempo 750000
8160 Tempo 660534
8640 Tempo 666666
9120 Tempo 750000
9600 Tempo 660534
10080 Tempo 666666
10560 Tempo 750000
11040 Tempo 660534
11520 Tempo 666666
12000 Tempo 750000
12480 Tempo 660534
12960 Tempo 666666
13440 Tempo 750000
13920 Tempo 660534
14400 Tempo 666666
14880 Tempo 750000
15360 Tempo 660534
15840 Tempo 666666
16320 Tempo 750000
16800 Tempo 660534
17280 Tempo 666666
17760 Tempo 750000
18240 Tempo 660534
18720 Tempo 666666
19200 Tempo 750000
19680 Tempo 660534
20160 Tempo 666666
20640 Tempo 750000
21120 Tempo 660534
21600 Tempo 666666
22080 Tempo 750000
22560 Tempo 660534
23040 Tempo 666666
23520 Tempo 750000
24000 Tempo 660534
24480 Tempo 666666
24960 Tempo 750000
25440 Tempo 660534
25920 Tempo 666666
26400 Tempo 750000
26880 Tempo 660534
27360 Tempo 666666
28320 Tempo 660534
28800 Tempo 666666
29280 Tempo 750000
29760 Tempo 660534
30240 Tempo 666666
30720 Tempo 750000
31200 Tempo 660534
31680 Tempo 666666
32160 Tempo 750000
32640 Tempo 660534
33120 Tempo 666666
33600 Tempo 750000
34080 Tempo 660534
34560 Tempo 666666
35040 Tempo 750000
35520 Tempo 660534
36000 Tempo 666666
36480 Tempo 750000
36960 Tempo 660534
37440 Tempo 666666
37920 Tempo 750000
38400 Tempo 660534
38880 Tempo 666666
39360 Tempo 750000
39840 Tempo 660534
40320 Tempo 666666
40800 Tempo 750000
41280 Tempo 660534
41760 Tempo 666666
42240 Tempo 750000
42720 Tempo 660534
43200 Tempo 666666
43680 Tempo 750000
44160 Tempo 660534
44640 Tempo 666666
45120 Tempo 750000
45600 Tempo 660534
46080 Tempo 666666
46560 Tempo 750000
47040 Tempo 660534
47520 Tempo 666666
48000 Tempo 750000
48480 Tempo 660534
48960 Tempo 666666
49440 Tempo 750000
49920 Tempo 660534
50400 Tempo 666666
50880 Tempo 750000
51360 Tempo 660534
51840 Tempo 666666
52320 Tempo 750000
52800 Tempo 660534
53280 Tempo 666666
53760 Tempo 750000
54240 Tempo 660534
54720 Tempo 666666
55200 Tempo 750000
55680 Tempo 660534
56160 Tempo 666666
56640 Tempo 750000
57120 Tempo 660534
57600 Tempo 666666
58080 Tempo 750000
58560 Tempo 660534
59040 Tempo 666666
59520 Tempo 750000
60000 Tempo 660534
60480 Tempo 666666
60960 Tempo 750000
61440 Tempo 660534
61920 Tempo 666666
62400 Tempo 750000
62880 Tempo 660534
63360 Tempo 666666
63840 Tempo 750000
64320 Tempo 660534
64800 Tempo 666666
65280 Tempo 750000
65760 Tempo 660534
66240 Tempo 666666
66720 Tempo 750000
67200 Tempo 660534
67680 Tempo 666666
68160 Tempo 750000
68640 Tempo 660534
69120 Tempo 666666
69600 Tempo 750000
70080 Tempo 660534
70560 Tempo 666666
71040 Tempo 750000
71520 Tempo 660534
72000 Tempo 666666
72480 Tempo 750000
72960 Tempo 660534
73440 Tempo 666666
73920 Tempo 750000
74400 Tempo 660534
74880 Tempo 666666
75360 Tempo 750000
75840 Tempo 660534
76320 Tempo 666666
76800 Tempo 750000
77280 Tempo 660534
77760 Tempo 666666
78240 Tempo 750000
78720 Tempo 660534
79200 Tempo 666666
79680 Tempo 750000
80160 Tempo 660534
80640 Tempo 666666
81120 Tempo 750000
81600 Tempo 660534
82080 Tempo 666666
82560 Tempo 750000
83040 Tempo 660534
83520 Tempo 666666
84000 Tempo 750000
84480 Tempo 660534
84960 Tempo 666666
85440 Tempo 750000
85920 Tempo 660534
86400 Tempo 666666
86880 Tempo 750000
87360 Tempo 660534
87840 Tempo 666666
88320 Tempo 750000
88800 Tempo 660534
89280 Tempo 666666
89760 Tempo 750000
90240 Tempo 660534
90720 Tempo 666666
91200 Tempo 750000
91680 Tempo 660534
92160 Tempo 666666
92640 Tempo 750000
93120 Tempo 660534
93600 Tempo 666666
94080 Tempo 750000
94560 Tempo 660534
95040 Tempo 666666
95520 Tempo 750000
96000 Tempo 660534
96480 Tempo 666666
96960 Tempo 750000
97440 Tempo 660534
97920 Tempo 666666
98400 Tempo 750000
98880 Tempo 660534
99360 Tempo 666666
99840 Tempo 750000
100320 Tempo 660534
100800 Tempo 666666
101280 Tempo 750000
101760 Tempo 660534
102240 Tempo 666666
102720 Tempo 750000
103200 Tempo 660534
103680 Tempo 666666
104160 Tempo 750000
104640 Tempo 660534
105120 Tempo 666666
105600 Tempo 750000
106080 Tempo 660534
106560 Tempo 666666
107040 Tempo 750000
107520 Tempo 660534
108000 Tempo 666666
108480 Tempo 750000
108960 Tempo 660534
109440 Tempo 666666
109920 Tempo 750000
110400 Tempo 660534
110880 Tempo 666666
111360 Tempo 750000
111840 Tempo 660534
112320 Tempo 666666
112800 Tempo 750000
113280 Tempo 660534
113760 Tempo 666666
114240 Tempo 750000
114720 Tempo 660534
115200 Tempo 666666
115680 Tempo 750000
116160 Tempo 660534
116640 Tempo 666666
117120 Tempo 750000
117600 Tempo 660534
118080 Tempo 666666
118560 Tempo 750000
119040 Tempo 660534
119520 Tempo 666666
120000 Tempo 750000
120480 Tempo 660534
120960 Tempo 666666
121440 Tempo 750000
121920 Tempo 660534
122400 Tempo 666666
122880 Tempo 750000
123360 Tempo 660534
123840 Tempo 666666
124320 Tempo 750000
124800 Tempo 660534
125280 Tempo 800000
125760 Tempo 660534
126240 Tempo 923076
127440 Tempo 1090909
127920 Tempo 1333333
127920 Meta TrkEnd
TrkEnd
MTrk
0 SeqSpec 43 00 01 00
0 Par ch=1 c=0 v=0
0 Par ch=1 c=10 v=64
0 Par ch=1 c=93 v=0
0 Par ch=1 c=7 v=99
0 Par ch=1 c=91 v=99
0 Meta TrkEnd
TrkEnd
MTrk
0 SeqSpec 43 00 01 00
0 Meta TrkName "Right Hand"
0 Par ch=2 c=0 v=0
0 PrCh ch=2 p=0
0 Par ch=2 c=10 v=88
0 Par ch=2 c=7 v=127
0 Par ch=2 c=93 v=0
0 Par ch=2 c=91 v=99
0 SeqSpec 4a 41 5a 5a 01 00 00 00 00 00 00 00 00 00 00 00 00 00 00 00
0 Par ch=2 c=64 v=2
0 On ch=2 n=c5 v=43
120 Par ch=2 c=64 v=122
220 On ch=2 n=c5 v=0
240 On ch=2 n=c5 v=48
460 On ch=2 n=c5 v=0
480 On ch=2 n=c5 v=52
700 On ch=2 n=c5 v=0
720 On ch=2 n=c5 v=57
940 On ch=2 n=c5 v=0
960 On ch=2 n=c5 v=59
1180 On ch=2 n=c5 v=0
1200 On ch=2 n=c5 v=65
1420 On ch=2 n=c5 v=0
1440 On ch=2 n=c5 v=70
1440 Par ch=2 c=64 v=0
1560 Par ch=2 c=64 v=122
1660 On ch=2 n=c5 v=0
1680 On ch=2 n=c5 v=74
1900 On ch=2 n=c5 v=0
1920 On ch=2 n=c5 v=78
2140 On ch=2 n=c5 v=0
2160 On ch=2 n=c5 v=82
2380 On ch=2 n=c5 v=0
2400 On ch=2 n=c5 v=65
2620 On ch=2 n=c5 v=0
2640 On ch=2 n=c5 v=53
2855 On ch=2 n=c5 v=0
2880 On ch=2 n=c#5 v=45
2880 Par ch=2 c=64 v=2
3000 Par ch=2 c=64 v=122
3100 On ch=2 n=c#5 v=0
3120 On ch=2 n=g5 v=45
3120 On ch=2 n=c#5 v=45
3335 On ch=2 n=g5 v=0
3340 On ch=2 n=c#5 v=0
3360 On ch=2 n=c#5 v=45
3360 On ch=2 n=c6 v=45
3575 On ch=2 n=c6 v=0
3580 On ch=2 n=c#5 v=0
3600 On ch=2 n=c#6 v=45
3600 On ch=2 n=c#5 v=45
3815 On ch=2 n=c#6 v=0
3820 On ch=2 n=c#5 v=0
3840 On ch=2 n=c#5 v=45
3840 On ch=2 n=f5 v=45
4055 On ch=2 n=f5 v=0
4060 On ch=2 n=c#5 v=0
4080 On ch=2 n=c#5 v=45
4080 On ch=2 n=g5 v=45
4295 On ch=2 n=g5 v=0
4295 On ch=2 n=c#5 v=0
4320 On ch=2 n=a#5 v=46
4320 Par ch=2 c=64 v=2
4440 Par ch=2 c=64 v=122
4560 On ch=2 n=c5 v=46
4560 On ch=2 n=f#5 v=46
4780 On ch=2 n=f#5 v=0
4780 On ch=2 n=c5 v=0
4800 On ch=2 n=f#5 v=46
4800 On ch=2 n=c5 v=46
5015 On ch=2 n=a#5 v=0
5020 On ch=2 n=c5 v=0
5020 On ch=2 n=f#5 v=0
5040 On ch=2 n=f#5 v=46
5040 On ch=2 n=g#5 v=46
5040 On ch=2 n=c5 v=46
5040 Par ch=2 c=64 v=0
5160 Par ch=2 c=64 v=122
5260 On ch=2 n=c5 v=0
5260 On ch=2 n=f#5 v=0
5280 On ch=2 n=c5 v=46
5280 On ch=2 n=f#5 v=46
5500 On ch=2 n=f#5 v=0
5500 On ch=2 n=c5 v=0
5520 On ch=2 n=c5 v=46
5520 On ch=2 n=f#5 v=46
5735 On ch=2 n=f#5 v=0
5735 On ch=2 n=c5 v=0
5740 On ch=2 n=g#5 v=0
5760 Par ch=2 c=64 v=2
5760 On ch=2 n=g#5 v=46
5880 Par ch=2 c=64 v=122
5980 On ch=2 n=g#5 v=0
6000 On ch=2 n=g#5 v=46
6000 On ch=2 n=c#6 v=46
6215 On ch=2 n=c#6 v=0
6220 On ch=2 n=g#5 v=0
6240 On ch=2 n=g6 v=46
6240 On ch=2 n=g#5 v=46
6455 On ch=2 n=g6 v=0
6460 On ch=2 n=g#5 v=0
6480 On ch=2 n=g#5 v=46
6480 On ch=2 n=a#6 v=46
6695 On ch=2 n=a#6 v=0
6700 On ch=2 n=g#5 v=0
6720 On ch=2 n=g#5 v=46
6720 On ch=2 n=g#6 v=46
6935 On ch=2 n=g#6 v=0
6940 On ch=2 n=g#5 v=0
6960 On ch=2 n=g#5 v=46
6960 On ch=2 n=f6 v=46
7175 On ch=2 n=f6 v=0
7175 On ch=2 n=g#5 v=0
7200 On ch=2 n=d#6 v=70
7200 Par ch=2 c=64 v=2
7320 Par ch=2 c=64 v=122
7440 On ch=2 n=a#5 v=45
7440 On ch=2 n=d#5 v=45
7660 On ch=2 n=d#5 v=0
7660 On ch=2 n=a#5 v=0
7680 On ch=2 n=a#5 v=45
7680 On ch=2 n=d#5 v=45
7895 On ch=2 n=d#5 v=0
7895 On ch=2 n=a#5 v=0
7895 On ch=2 n=d#6 v=0
7920 Par ch=2 c=64 v=0
7920 On ch=2 n=f6 v=70
8040 Par ch=2 c=64 v=122
8160 On ch=2 n=c#6 v=46
8160 On ch=2 n=f5 v=46
8380 On ch=2 n=f5 v=0
8380 On ch=2 n=c#6 v=0
8400 On ch=2 n=c#6 v=46
8400 On ch=2 n=f5 v=46
8615 On ch=2 n=f5 v=0
8615 On ch=2 n=c#6 v=0
8640 Par ch=2 c=64 v=2
8760 Par ch=2 c=64 v=122
8855 On ch=2 n=f6 v=0
8880 On ch=2 n=a#5 v=46
9100 On ch=2 n=a#5 v=0
9120 On ch=2 n=d#6 v=46
9120 On ch=2 n=a#5 v=46
9120 On ch=2 n=d#5 v=46
9335 On ch=2 n=d#5 v=0
9335 On ch=2 n=d#6 v=0
9340 On ch=2 n=a#5 v=0
9360 On ch=2 n=g6 v=46
9360 Par ch=2 c=64 v=0
9360 On ch=2 n=a#5 v=46
9480 Par ch=2 c=64 v=122
9575 On ch=2 n=g6 v=0
9580 On ch=2 n=a#5 v=0
9600 On ch=2 n=a#5 v=46
9600 On ch=2 n=f6 v=46
9815 On ch=2 n=f6 v=0
9820 On ch=2 n=a#5 v=0
9840 On ch=2 n=a#5 v=46
9840 On ch=2 n=c#6 v=46
10055 On ch=2 n=c#6 v=0
10055 On ch=2 n=a#5 v=0
10080 On ch=2 n=c6 v=69
10080 Par ch=2 c=64 v=2
10200 Par ch=2 c=64 v=122
10320 On ch=2 n=d#5 v=46
10320 On ch=2 n=a5 v=46
10540 On ch=2 n=a5 v=0
10540 On ch=2 n=d#5 v=0
10560 On ch=2 n=a5 v=46
10560 On ch=2 n=d#5 v=46
10775 On ch=2 n=d#5 v=0
10775 On ch=2 n=a5 v=0
10775 On ch=2 n=c6 v=0
10800 On ch=2 n=c#6 v=68
11040 On ch=2 n=g#5 v=46
11040 On ch=2 n=c#5 v=46
11260 On ch=2 n=c#5 v=0
11260 On ch=2 n=g#5 v=0
11280 On ch=2 n=g#5 v=46
11280 On ch=2 n=c#5 v=46
11495 On ch=2 n=c#5 v=0
11495 On ch=2 n=g#5 v=0
11500 On ch=2 n=c#6 v=0
11520 Par ch=2 c=64 v=2
11520 On ch=2 n=c#6 v=46
11640 Par ch=2 c=64 v=122
11735 On ch=2 n=c#6 v=0
11760 On ch=2 n=g#5 v=46
11760 On ch=2 n=c#5 v=46
11975 On ch=2 n=g#5 v=0
11980 On ch=2 n=c#5 v=0
12000 On ch=2 n=a#5 v=46
12000 On ch=2 n=c#5 v=46
12000 On ch=2 n=g5 v=46
12215 On ch=2 n=g5 v=0
12215 On ch=2 n=c#5 v=0
12215 On ch=2 n=a#5 v=0
12240 On ch=2 n=c#6 v=46
12455 On ch=2 n=c#6 v=0
12480 On ch=2 n=g#5 v=46
12480 On ch=2 n=c5 v=46
12480 On ch=2 n=c6 v=46
12695 On ch=2 n=c6 v=0
12700 On ch=2 n=c5 v=0
12700 On ch=2 n=g#5 v=0
12720 On ch=2 n=c5 v=46
12720 On ch=2 n=f5 v=46
12720 On ch=2 n=g#5 v=46
12935 On ch=2 n=g#5 v=0
12935 On ch=2 n=f5 v=0
12935 On ch=2 n=c5 v=0
12960 On ch=2 n=a#5 v=46
12960 Par ch=2 c=64 v=2
13080 Par ch=2 c=64 v=122
13200 On ch=2 n=g5 v=46
13200 On ch=2 n=a#4 v=46
13420 On ch=2 n=a#4 v=0
13420 On ch=2 n=g5 v=0
13440 On ch=2 n=a#4 v=46
13440 On ch=2 n=g5 v=46
13660 On ch=2 n=g5 v=0
13660 On ch=2 n=a#4 v=0
13680 On ch=2 n=a#4 v=47
13680 On ch=2 n=g5 v=47
13900 On ch=2 n=g5 v=0
13900 On ch=2 n=a#4 v=0
13920 On ch=2 n=g5 v=47
13920 On ch=2 n=a#4 v=47
14140 On ch=2 n=a#4 v=0
14140 On ch=2 n=g5 v=0
14160 On ch=2 n=a#4 v=48
14160 On ch=2 n=g5 v=48
14375 On ch=2 n=g5 v=0
14375 On ch=2 n=a#4 v=0
14400 Par ch=2 c=64 v=2
14520 Par ch=2 c=64 v=122
14620 On ch=2 n=a#5 v=0
14640 On ch=2 n=c#5 v=91
14640 On ch=2 n=a#5 v=91
14640 On ch=2 n=g5 v=91
14855 On ch=2 n=a#5 v=0
14860 On ch=2 n=g5 v=0
14860 On ch=2 n=c#5 v=0
14880 On ch=2 n=c#5 v=92
14880 On ch=2 n=c6 v=92
14880 On ch=2 n=g5 v=92
15095 On ch=2 n=c6 v=0
15100 On ch=2 n=g5 v=0
15100 On ch=2 n=c#5 v=0
15120 On ch=2 n=c#5 v=91
15120 On ch=2 n=c#6 v=91
15120 On ch=2 n=g5 v=91
15335 On ch=2 n=g5 v=0
15335 On ch=2 n=c#6 v=0
15340 On ch=2 n=c#5 v=0
15360 On ch=2 n=f5 v=91
15360 On ch=2 n=c#5 v=91
15575 On ch=2 n=f5 v=0
15580 On ch=2 n=c#5 v=0
15600 On ch=2 n=c#5 v=91
15600 On ch=2 n=g5 v=91
15815 On ch=2 n=g5 v=0
15815 On ch=2 n=c#5 v=0
15840 On ch=2 n=a#5 v=91
15840 Par ch=2 c=64 v=2
15960 Par ch=2 c=64 v=122
16080 On ch=2 n=c5 v=92
16080 On ch=2 n=f#5 v=92
16300 On ch=2 n=f#5 v=0
16300 On ch=2 n=c5 v=0
16320 On ch=2 n=f#5 v=92
16320 On ch=2 n=c5 v=92
16535 On ch=2 n=a#5 v=0
16540 On ch=2 n=c5 v=0
16540 On ch=2 n=f#5 v=0
16560 On ch=2 n=f#5 v=92
16560 On ch=2 n=c5 v=92
16560 On ch=2 n=g#5 v=92
16560 Par ch=2 c=64 v=0
16680 Par ch=2 c=64 v=122
16780 On ch=2 n=c5 v=0
16780 On ch=2 n=f#5 v=0
16800 On ch=2 n=f#5 v=92
16800 On ch=2 n=c5 v=92
17020 On ch=2 n=c5 v=0
17020 On ch=2 n=f#5 v=0
17040 On ch=2 n=c5 v=92
17040 On ch=2 n=f#5 v=92
17255 On ch=2 n=f#5 v=0
17255 On ch=2 n=c5 v=0
17260 On ch=2 n=g#5 v=0
17280 Par ch=2 c=64 v=2
17280 On ch=2 n=g#5 v=92
17400 Par ch=2 c=64 v=122
17500 On ch=2 n=g#5 v=0
17520 On ch=2 n=c#6 v=102
17520 On ch=2 n=g#5 v=102
17740 On ch=2 n=g#5 v=0
17740 On ch=2 n=c#6 v=0
17760 On ch=2 n=g6 v=113
17760 On ch=2 n=c#6 v=113
17760 On ch=2 n=g#5 v=113
17975 On ch=2 n=g6 v=0
17980 On ch=2 n=g#5 v=0
17980 On ch=2 n=c#6 v=0
18000 On ch=2 n=g#5 v=125
18000 On ch=2 n=c#6 v=125
18000 On ch=2 n=a#6 v=125
18215 On ch=2 n=a#6 v=0
18220 On ch=2 n=c#6 v=0
18220 On ch=2 n=g#5 v=0
18240 On ch=2 n=c#6 v=111
18240 On ch=2 n=g#5 v=111
18240 On ch=2 n=g#6 v=111
18455 On ch=2 n=g#6 v=0
18460 On ch=2 n=g#5 v=0
18460 On ch=2 n=c#6 v=0
18480 On ch=2 n=g#5 v=96
18480 On ch=2 n=f6 v=96
18480 On ch=2 n=c#6 v=96
18695 On ch=2 n=c#6 v=0
18695 On ch=2 n=f6 v=0
18695 On ch=2 n=g#5 v=0
18720 On ch=2 n=d#6 v=122
18720 Par ch=2 c=64 v=2
18840 Par ch=2 c=64 v=122
18960 On ch=2 n=d#5 v=93
18960 On ch=2 n=a#5 v=93
19180 On ch=2 n=a#5 v=0
19180 On ch=2 n=d#5 v=0
19200 On ch=2 n=a#5 v=93
19200 On ch=2 n=d#5 v=93
19415 On ch=2 n=d#5 v=0
19415 On ch=2 n=a#5 v=0
19415 On ch=2 n=d#6 v=0
19440 On ch=2 n=f6 v=122
19440 Par ch=2 c=64 v=0
19560 Par ch=2 c=64 v=122
19680 On ch=2 n=c#6 v=93
19680 On ch=2 n=f5 v=93
19900 On ch=2 n=f5 v=0
19900 On ch=2 n=c#6 v=0
19920 On ch=2 n=f5 v=93
19920 On ch=2 n=c#6 v=93
20135 On ch=2 n=c#6 v=0
20135 On ch=2 n=f5 v=0
20160 Par ch=2 c=64 v=2
20280 Par ch=2 c=64 v=120
20375 On ch=2 n=f6 v=0
20400 On ch=2 n=a#5 v=93
20400 On ch=2 n=d#5 v=93
20620 On ch=2 n=d#5 v=0
20620 On ch=2 n=a#5 v=0
20640 On ch=2 n=d#6 v=93
20640 On ch=2 n=d#5 v=93
20640 On ch=2 n=a#5 v=93
20855 On ch=2 n=d#5 v=0
20855 On ch=2 n=d#6 v=0
20860 On ch=2 n=a#5 v=0
20880 Par ch=2 c=64 v=2
20880 On ch=2 n=g6 v=93
20880 On ch=2 n=a#5 v=93
21000 Par ch=2 c=64 v=120
21095 On ch=2 n=g6 v=0
21100 On ch=2 n=a#5 v=0
21120 On ch=2 n=f6 v=93
21120 On ch=2 n=a#5 v=93
21335 On ch=2 n=f6 v=0
21340 On ch=2 n=a#5 v=0
21360 On ch=2 n=a#5 v=93
21360 On ch=2 n=c#6 v=93
21360 On ch=2 n=d#5 v=93
21575 On ch=2 n=d#5 v=0
21575 On ch=2 n=c#6 v=0
21575 On ch=2 n=a#5 v=0
21600 On ch=2 n=c6 v=120
21600 Par ch=2 c=64 v=2
21720 Par ch=2 c=64 v=122
21840 On ch=2 n=d#5 v=95
21840 On ch=2 n=a5 v=95
22060 On ch=2 n=a5 v=0
22060 On ch=2 n=d#5 v=0
22080 On ch=2 n=a5 v=95
22080 On ch=2 n=d#5 v=95
22295 On ch=2 n=d#5 v=0
22295 On ch=2 n=a5 v=0
22295 On ch=2 n=c6 v=0
22320 On ch=2 n=c#6 v=122
22560 On ch=2 n=g#5 v=95
22560 On ch=2 n=c#5 v=95
22780 On ch=2 n=c#5 v=0
22780 On ch=2 n=g#5 v=0
22800 On ch=2 n=g#5 v=93
22800 On ch=2 n=c#5 v=93
23015 On ch=2 n=c#5 v=0
23015 On ch=2 n=g#5 v=0
23020 On ch=2 n=c#6 v=0
23040 Par ch=2 c=64 v=2
23040 On ch=2 n=c#6 v=93
23160 Par ch=2 c=64 v=122
23255 On ch=2 n=c#6 v=0
23280 On ch=2 n=c#5 v=93
23500 On ch=2 n=c#5 v=0
23520 On ch=2 n=g#5 v=93
23520 On ch=2 n=c#5 v=93
23735 On ch=2 n=c#5 v=0
23735 On ch=2 n=g#5 v=0
23760 On ch=2 n=c6 v=93
23760 Par ch=2 c=64 v=0
23880 Par ch=2 c=64 v=122
23975 On ch=2 n=c6 v=0
24000 On ch=2 n=c#5 v=93
24000 On ch=2 n=a#5 v=93
24000 On ch=2 n=g5 v=93
24220 On ch=2 n=g5 v=0
24220 On ch=2 n=c#5 v=0
24240 On ch=2 n=c#5 v=93
24240 On ch=2 n=g5 v=93
24335 On ch=2 n=a#5 v=0
24360 On ch=2 n=g#5 v=93
24455 On ch=2 n=g5 v=0
24455 On ch=2 n=c#5 v=0
24460 On ch=2 n=g#5 v=0
24480 On ch=2 n=g#5 v=93
24480 Par ch=2 c=64 v=2
24600 Par ch=2 c=64 v=123
24720 On ch=2 n=c5 v=93
24940 On ch=2 n=c5 v=0
24960 On ch=2 n=c5 v=81
25000 Par ch=2 c=64 v=1
25040 Par ch=2 c=64 v=0
25080 Par ch=2 c=64 v=123
25180 On ch=2 n=c5 v=0
25200 On ch=2 n=c5 v=70
25420 On ch=2 n=c5 v=0
25440 On ch=2 n=c5 v=59
25480 Par ch=2 c=64 v=1
25560 Par ch=2 c=64 v=123
25660 On ch=2 n=c5 v=0
25680 On ch=2 n=c5 v=48
25895 On ch=2 n=c5 v=0
25900 On ch=2 n=g#5 v=0
25920 On ch=2 n=g#5 v=48
25920 Par ch=2 c=64 v=2
26040 Par ch=2 c=64 v=123
26160 On ch=2 n=g#4 v=48
26160 On ch=2 n=d5 v=48
26380 On ch=2 n=d5 v=0
26380 On ch=2 n=g#4 v=0
26400 On ch=2 n=g#4 v=48
26400 On ch=2 n=d5 v=48
26440 Par ch=2 c=64 v=1
26480 Par ch=2 c=64 v=0
26520 Par ch=2 c=64 v=123
26620 On ch=2 n=d5 v=0
26620 On ch=2 n=g#4 v=0
26620 On ch=2 n=g#5 v=0
26640 On ch=2 n=g#4 v=48
26640 On ch=2 n=g#5 v=48
26640 On ch=2 n=d5 v=48
26855 On ch=2 n=g#5 v=0
26860 On ch=2 n=d5 v=0
26860 On ch=2 n=g#4 v=0
26880 On ch=2 n=g#4 v=48
26880 On ch=2 n=d5 v=48
26880 On ch=2 n=f#5 v=48
26920 Par ch=2 c=64 v=1
27000 Par ch=2 c=64 v=123
27095 On ch=2 n=f#5 v=0
27100 On ch=2 n=d5 v=0
27100 On ch=2 n=g#4 v=0
27120 On ch=2 n=e5 v=48
27120 On ch=2 n=g#4 v=48
27120 On ch=2 n=d5 v=48
27335 On ch=2 n=d5 v=0
27335 On ch=2 n=g#4 v=0
27335 On ch=2 n=e5 v=0
27360 Par ch=2 c=64 v=2
27360 On ch=2 n=c#6 v=48
27480 Par ch=2 c=64 v=123
27600 On ch=2 n=c#5 v=49
27600 On ch=2 n=a5 v=49
27820 On ch=2 n=a5 v=0
27820 On ch=2 n=c#5 v=0
27840 On ch=2 n=a5 v=53
27840 On ch=2 n=c#5 v=53
27880 Par ch=2 c=64 v=1
27920 Par ch=2 c=64 v=0
27960 Par ch=2 c=64 v=123
28060 On ch=2 n=c#5 v=0
28060 On ch=2 n=a5 v=0
28080 On ch=2 n=a5 v=57
28080 On ch=2 n=c#5 v=57
28300 On ch=2 n=c#5 v=0
28300 On ch=2 n=a5 v=0
28320 On ch=2 n=a5 v=60
28320 On ch=2 n=c#5 v=60
28360 Par ch=2 c=64 v=1
28440 Par ch=2 c=64 v=123
28540 On ch=2 n=c#5 v=0
28540 On ch=2 n=a5 v=0
28560 On ch=2 n=c#5 v=62
28560 On ch=2 n=a5 v=62
28775 On ch=2 n=a5 v=0
28775 On ch=2 n=c#5 v=0
28780 On ch=2 n=c#6 v=0
28800 On ch=2 n=c#6 v=63
28800 Par ch=2 c=64 v=2
28920 Par ch=2 c=64 v=123
29040 On ch=2 n=c#5 v=67
29040 On ch=2 n=g#5 v=67
29255 On ch=2 n=c#5 v=0
29255 On ch=2 n=c#6 v=0
29260 On ch=2 n=g#5 v=0
29280 On ch=2 n=g#5 v=71
29280 On ch=2 n=c5 v=71
29280 On ch=2 n=c6 v=71
29320 Par ch=2 c=64 v=1
29360 Par ch=2 c=64 v=0
29400 Par ch=2 c=64 v=123
29500 On ch=2 n=c6 v=0
29500 On ch=2 n=c5 v=0
29500 On ch=2 n=g#5 v=0
29520 On ch=2 n=c5 v=75
29520 On ch=2 n=g#5 v=75
29520 On ch=2 n=c6 v=75
29735 On ch=2 n=c6 v=0
29735 On ch=2 n=g#5 v=0
29740 On ch=2 n=c5 v=0
29760 On ch=2 n=c5 v=78
29760 On ch=2 n=a5 v=78
29800 Par ch=2 c=64 v=1
29880 Par ch=2 c=64 v=123
29975 On ch=2 n=a5 v=0
29980 On ch=2 n=c5 v=0
30000 On ch=2 n=g#5 v=79
30000 On ch=2 n=c5 v=79
30215 On ch=2 n=c5 v=0
30215 On ch=2 n=g#5 v=0
30240 Par ch=2 c=64 v=2
30240 On ch=2 n=e6 v=81
30360 Par ch=2 c=64 v=122
30480 On ch=2 n=c#6 v=84
30480 On ch=2 n=e5 v=84
30700 On ch=2 n=e5 v=0
30700 On ch=2 n=c#6 v=0
30720 On ch=2 n=e5 v=87
30720 On ch=2 n=c#6 v=87
30940 On ch=2 n=c#6 v=0
30940 On ch=2 n=e5 v=0
30960 On ch=2 n=e5 v=90
30960 On ch=2 n=c#6 v=90
30960 Par ch=2 c=64 v=0
31080 Par ch=2 c=64 v=122
31180 On ch=2 n=c#6 v=0
31180 On ch=2 n=e5 v=0
31200 On ch=2 n=c#6 v=92
31200 On ch=2 n=e5 v=92
31415 On ch=2 n=c#6 v=0
31420 On ch=2 n=e5 v=0
31440 On ch=2 n=e5 v=95
31440 On ch=2 n=c6 v=95
31655 On ch=2 n=c6 v=0
31655 On ch=2 n=e5 v=0
31660 On ch=2 n=e6 v=0
31680 On ch=2 n=e6 v=96
31680 Par ch=2 c=64 v=2
31800 Par ch=2 c=64 v=122
31920 On ch=2 n=b5 v=100
31920 On ch=2 n=e5 v=100
32135 On ch=2 n=e5 v=0
32135 On ch=2 n=e6 v=0
32140 On ch=2 n=b5 v=0
32160 On ch=2 n=d#6 v=101
32160 On ch=2 n=b5 v=101
32380 On ch=2 n=b5 v=0
32380 On ch=2 n=d#6 v=0
32400 On ch=2 n=b5 v=103
32400 Par ch=2 c=64 v=0
32400 On ch=2 n=d#6 v=103
32520 Par ch=2 c=64 v=122
32615 On ch=2 n=d#6 v=0
32620 On ch=2 n=b5 v=0
32640 On ch=2 n=b5 v=104
32640 On ch=2 n=c#6 v=104
32855 On ch=2 n=c#6 v=0
32860 On ch=2 n=b5 v=0
32880 On ch=2 n=b5 v=106
33095 On ch=2 n=b5 v=0
33120 On ch=2 n=g#6 v=106
33120 Par ch=2 c=64 v=122
33360 On ch=2 n=d6 v=106
33360 On ch=2 n=g#5 v=106
33580 On ch=2 n=g#5 v=0
33580 On ch=2 n=d6 v=0
33580 On ch=2 n=g#6 v=0
33600 On ch=2 n=g#6 v=101
33600 On ch=2 n=g#5 v=101
33600 On ch=2 n=d6 v=101
33720 Par ch=2 c=64 v=0
33815 On ch=2 n=d6 v=0
33815 On ch=2 n=g#5 v=0
33820 On ch=2 n=g#6 v=0
33840 On ch=2 n=g#6 v=100
33840 Par ch=2 c=64 v=122
34055 On ch=2 n=g#6 v=0
34080 On ch=2 n=g6 v=96
34080 On ch=2 n=g5 v=96
34080 On ch=2 n=d#6 v=96
34295 On ch=2 n=g6 v=0
34300 On ch=2 n=d#6 v=0
34300 On ch=2 n=g5 v=0
34320 On ch=2 n=g5 v=93
34320 On ch=2 n=d#6 v=93
34320 On ch=2 n=d#6 v=93
34440 Par ch=2 c=64 v=2
34535 On ch=2 n=d#6 v=0
34535 On ch=2 n=d#6 v=0
34535 On ch=2 n=g5 v=0
34560 Par ch=2 c=64 v=122
34560 On ch=2 n=f#6 v=90
34800 On ch=2 n=f#5 v=86
34800 On ch=2 n=c6 v=86
35020 On ch=2 n=c6 v=0
35020 On ch=2 n=f#5 v=0
35020 On ch=2 n=f#6 v=0
35040 On ch=2 n=f#6 v=80
35040 On ch=2 n=f#5 v=80
35040 On ch=2 n=c6 v=80
35160 Par ch=2 c=64 v=0
35255 On ch=2 n=c6 v=0
35255 On ch=2 n=f#5 v=0
35260 On ch=2 n=f#6 v=0
35280 Par ch=2 c=64 v=122
35280 On ch=2 n=f#6 v=76
35495 On ch=2 n=f#6 v=0
35520 On ch=2 n=f5 v=74
35520 On ch=2 n=f6 v=74
35520 On ch=2 n=c#6 v=74
35735 On ch=2 n=f6 v=0
35740 On ch=2 n=c#6 v=0
35740 On ch=2 n=f5 v=0
35760 On ch=2 n=c#6 v=70
35760 On ch=2 n=f5 v=70
35760 On ch=2 n=c#6 v=70
35880 Par ch=2 c=64 v=2
35975 On ch=2 n=c#6 v=0
35975 On ch=2 n=f5 v=0
35975 On ch=2 n=c#6 v=0
36000 On ch=2 n=e6 v=71
36000 Par ch=2 c=64 v=122
36215 On ch=2 n=e6 v=0
36240 On ch=2 n=a#5 v=82
36240 On ch=2 n=d#5 v=82
36240 On ch=2 n=d#6 v=82
36455 On ch=2 n=d#6 v=0
36455 On ch=2 n=d#5 v=0
36460 On ch=2 n=a#5 v=0
36480 On ch=2 n=e5 v=91
36480 On ch=2 n=a#5 v=91
36480 On ch=2 n=e6 v=91
36600 Par ch=2 c=64 v=0
36695 On ch=2 n=e6 v=0
36695 On ch=2 n=a#5 v=0
36695 On ch=2 n=e5 v=0
36720 Par ch=2 c=64 v=122
36720 On ch=2 n=g#6 v=102
36960 On ch=2 n=g#5 v=91
36960 On ch=2 n=e6 v=91
37175 On ch=2 n=e6 v=0
37175 On ch=2 n=g#5 v=0
37175 On ch=2 n=g#6 v=0
37200 On ch=2 n=b5 v=82
37200 On ch=2 n=f#5 v=82
37200 On ch=2 n=f#6 v=82
37320 Par ch=2 c=64 v=2
37415 On ch=2 n=f#6 v=0
37415 On ch=2 n=f#5 v=0
37415 On ch=2 n=b5 v=0
37440 Par ch=2 c=64 v=120
37440 On ch=2 n=e6 v=74
37680 On ch=2 n=e5 v=67
37680 On ch=2 n=b5 v=67
37900 On ch=2 n=b5 v=0
37900 On ch=2 n=e5 v=0
37920 On ch=2 n=b5 v=76
37920 On ch=2 n=e5 v=76
38140 On ch=2 n=e5 v=0
38140 On ch=2 n=b5 v=0
38160 On ch=2 n=b5 v=85
38160 On ch=2 n=e5 v=85
38380 On ch=2 n=e5 v=0
38380 On ch=2 n=b5 v=0
38400 On ch=2 n=b5 v=95
38400 On ch=2 n=e5 v=95
38620 On ch=2 n=e5 v=0
38620 On ch=2 n=b5 v=0
38640 On ch=2 n=b5 v=102
38640 On ch=2 n=e5 v=102
38760 Par ch=2 c=64 v=2
38855 On ch=2 n=e5 v=0
38855 On ch=2 n=b5 v=0
38880 Par ch=2 c=64 v=120
39100 On ch=2 n=e6 v=0
39120 On ch=2 n=c6 v=68
39120 On ch=2 n=e5 v=68
39120 On ch=2 n=e6 v=68
39335 On ch=2 n=e6 v=0
39335 On ch=2 n=e5 v=0
39340 On ch=2 n=c6 v=0
39360 On ch=2 n=d#5 v=85
39360 On ch=2 n=d#6 v=85
39360 On ch=2 n=c6 v=85
39575 On ch=2 n=d#6 v=0
39575 On ch=2 n=d#5 v=0
39580 On ch=2 n=c6 v=0
39600 On ch=2 n=c6 v=104
39600 On ch=2 n=f#6 v=104
39600 On ch=2 n=f#5 v=104
39815 On ch=2 n=f#5 v=0
39815 On ch=2 n=f#6 v=0
39820 On ch=2 n=c6 v=0
39840 On ch=2 n=e6 v=92
39840 On ch=2 n=c6 v=92
39840 On ch=2 n=e5 v=92
40055 On ch=2 n=e6 v=0
40060 On ch=2 n=e5 v=0
40060 On ch=2 n=c6 v=0
40080 On ch=2 n=e5 v=79
40080 On ch=2 n=c6 v=79
40080 On ch=2 n=c6 v=79
40200 Par ch=2 c=64 v=2
40295 On ch=2 n=c6 v=0
40295 On ch=2 n=c6 v=0
40295 On ch=2 n=e5 v=0
40320 On ch=2 n=e6 v=103
40320 Par ch=2 c=64 v=120
40560 On ch=2 n=b5 v=65
40560 On ch=2 n=e5 v=65
40780 On ch=2 n=e5 v=0
40780 On ch=2 n=b5 v=0
40800 On ch=2 n=b5 v=65
40800 On ch=2 n=e5 v=65
41020 On ch=2 n=e5 v=0
41020 On ch=2 n=b5 v=0
41040 On ch=2 n=b5 v=65
41040 On ch=2 n=e5 v=65
41260 On ch=2 n=e5 v=0
41260 On ch=2 n=b5 v=0
41280 On ch=2 n=b5 v=67
41280 On ch=2 n=e5 v=67
41500 On ch=2 n=e5 v=0
41500 On ch=2 n=b5 v=0
41520 On ch=2 n=b5 v=67
41520 On ch=2 n=e5 v=67
41640 Par ch=2 c=64 v=2
41735 On ch=2 n=e5 v=0
41735 On ch=2 n=b5 v=0
41760 Par ch=2 c=64 v=120
41980 On ch=2 n=e6 v=0
42000 On ch=2 n=e5 v=81
42000 On ch=2 n=e6 v=81
42000 On ch=2 n=c6 v=81
42215 On ch=2 n=e6 v=0
42215 On ch=2 n=e5 v=0
42220 On ch=2 n=c6 v=0
42240 On ch=2 n=d#5 v=95
42240 On ch=2 n=d#6 v=95
42240 On ch=2 n=c6 v=95
42455 On ch=2 n=d#6 v=0
42455 On ch=2 n=d#5 v=0
42460 On ch=2 n=c6 v=0
42480 On ch=2 n=f#6 v=106
42480 On ch=2 n=f#5 v=106
42480 On ch=2 n=c6 v=106
42695 On ch=2 n=f#5 v=0
42695 On ch=2 n=f#6 v=0
42700 On ch=2 n=c6 v=0
42720 On ch=2 n=e5 v=87
42720 On ch=2 n=c6 v=87
42720 On ch=2 n=e6 v=87
42935 On ch=2 n=e6 v=0
42940 On ch=2 n=c6 v=0
42940 On ch=2 n=e5 v=0
42960 On ch=2 n=c6 v=71
42960 On ch=2 n=e5 v=71
42960 On ch=2 n=c6 v=71
43080 Par ch=2 c=64 v=2
43175 On ch=2 n=c6 v=0
43175 On ch=2 n=e5 v=0
43175 On ch=2 n=c6 v=0
43200 On ch=2 n=e6 v=101
43200 Par ch=2 c=64 v=120
43440 On ch=2 n=e5 v=63
43440 On ch=2 n=b5 v=63
43660 On ch=2 n=b5 v=0
43660 On ch=2 n=e5 v=0
43680 On ch=2 n=b5 v=68
43680 On ch=2 n=e5 v=68
43900 On ch=2 n=e5 v=0
43900 On ch=2 n=b5 v=0
43920 On ch=2 n=b5 v=71
43920 On ch=2 n=e5 v=71
44140 On ch=2 n=e5 v=0
44140 On ch=2 n=b5 v=0
44160 On ch=2 n=e5 v=74
44160 On ch=2 n=b5 v=74
44380 On ch=2 n=b5 v=0
44380 On ch=2 n=e5 v=0
44400 On ch=2 n=b5 v=75
44400 On ch=2 n=e5 v=75
44520 Par ch=2 c=64 v=2
44620 On ch=2 n=e5 v=0
44620 On ch=2 n=b5 v=0
44640 On ch=2 n=b5 v=76
44640 Par ch=2 c=64 v=120
44640 On ch=2 n=e5 v=76
44860 On ch=2 n=e5 v=0
44860 On ch=2 n=b5 v=0
44880 On ch=2 n=b5 v=79
44880 On ch=2 n=e5 v=79
45100 On ch=2 n=e5 v=0
45100 On ch=2 n=b5 v=0
45120 On ch=2 n=e5 v=81
45120 On ch=2 n=b5 v=81
45335 On ch=2 n=e5 v=0
45335 On ch=2 n=e6 v=0
45340 On ch=2 n=b5 v=0
45360 On ch=2 n=d#5 v=104
45360 On ch=2 n=d#6 v=104
45360 On ch=2 n=b5 v=104
45580 On ch=2 n=b5 v=0
45580 On ch=2 n=d#5 v=0
45600 On ch=2 n=d#5 v=90
45600 On ch=2 n=b5 v=90
45820 On ch=2 n=b5 v=0
45820 On ch=2 n=d#5 v=0
45820 On ch=2 n=d#6 v=0
45840 On ch=2 n=b5 v=90
45840 On ch=2 n=d#5 v=90
45840 On ch=2 n=d#6 v=90
45960 Par ch=2 c=64 v=2
46060 On ch=2 n=d#6 v=0
46060 On ch=2 n=d#5 v=0
46060 On ch=2 n=b5 v=0
46080 On ch=2 n=b5 v=95
46080 On ch=2 n=d#6 v=95
46080 Par ch=2 c=64 v=120
46080 On ch=2 n=d#5 v=95
46300 On ch=2 n=d#5 v=0
46300 On ch=2 n=b5 v=0
46320 On ch=2 n=b5 v=97
46320 On ch=2 n=d#5 v=97
46540 On ch=2 n=d#5 v=0
46540 On ch=2 n=b5 v=0
46560 On ch=2 n=b5 v=98
46560 On ch=2 n=d#5 v=98
46780 On ch=2 n=d#5 v=0
46780 On ch=2 n=b5 v=0
46800 On ch=2 n=d#5 v=101
46800 On ch=2 n=b5 v=101
47020 On ch=2 n=b5 v=0
47020 On ch=2 n=d#5 v=0
47040 On ch=2 n=d#5 v=103
47040 On ch=2 n=b5 v=103
47260 On ch=2 n=b5 v=0
47260 On ch=2 n=d#5 v=0
47280 On ch=2 n=d#5 v=106
47280 On ch=2 n=b5 v=106
47400 Par ch=2 c=64 v=2
47495 On ch=2 n=d#5 v=0
47495 On ch=2 n=d#6 v=0
47500 On ch=2 n=b5 v=0
47520 Par ch=2 c=64 v=120
47520 On ch=2 n=b5 v=108
47520 On ch=2 n=d5 v=108
47520 On ch=2 n=d6 v=108
47740 On ch=2 n=d5 v=0
47740 On ch=2 n=b5 v=0
47760 On ch=2 n=b5 v=112
47760 On ch=2 n=g#5 v=112
47760 On ch=2 n=d5 v=112
47980 On ch=2 n=d5 v=0
47980 On ch=2 n=g#5 v=0
47980 On ch=2 n=b5 v=0
48000 On ch=2 n=g#5 v=113
48000 On ch=2 n=b5 v=113
48000 On ch=2 n=d5 v=113
48220 On ch=2 n=d5 v=0
48220 On ch=2 n=b5 v=0
48220 On ch=2 n=g#5 v=0
48240 On ch=2 n=g#5 v=114
48240 On ch=2 n=d5 v=114
48240 On ch=2 n=b5 v=114
48460 On ch=2 n=b5 v=0
48460 On ch=2 n=d5 v=0
48460 On ch=2 n=g#5 v=0
48480 On ch=2 n=g#5 v=114
48480 On ch=2 n=d5 v=114
48480 On ch=2 n=b5 v=114
48700 On ch=2 n=b5 v=0
48700 On ch=2 n=d5 v=0
48700 On ch=2 n=g#5 v=0
48720 On ch=2 n=d5 v=119
48720 On ch=2 n=b5 v=119
48720 On ch=2 n=g#5 v=119
48840 Par ch=2 c=64 v=2
48935 On ch=2 n=g#5 v=0
48935 On ch=2 n=b5 v=0
48935 On ch=2 n=d5 v=0
48935 On ch=2 n=d6 v=0
48960 On ch=2 n=c#5 v=119
48960 On ch=2 n=g5 v=119
48960 Par ch=2 c=64 v=120
49180 On ch=2 n=g5 v=0
49180 On ch=2 n=c#5 v=0
49200 On ch=2 n=c#5 v=119
49200 On ch=2 n=g5 v=119
49420 On ch=2 n=g5 v=0
49420 On ch=2 n=c#5 v=0
49440 On ch=2 n=g5 v=119
49440 On ch=2 n=c6 v=119
49440 On ch=2 n=c#5 v=119
49655 On ch=2 n=c6 v=0
49660 On ch=2 n=c#5 v=0
49660 On ch=2 n=g5 v=0
49680 On ch=2 n=g5 v=119
49680 On ch=2 n=c#6 v=119
49680 On ch=2 n=c#5 v=119
49895 On ch=2 n=c#6 v=0
49895 On ch=2 n=g5 v=0
49900 On ch=2 n=c#5 v=0
49920 On ch=2 n=f5 v=119
49920 On ch=2 n=c#5 v=119
50135 On ch=2 n=f5 v=0
50140 On ch=2 n=c#5 v=0
50160 On ch=2 n=g5 v=119
50160 On ch=2 n=c#5 v=119
50280 Par ch=2 c=64 v=2
50375 On ch=2 n=c#5 v=0
50375 On ch=2 n=g5 v=0
50400 On ch=2 n=a#5 v=119
50400 Par ch=2 c=64 v=120
50640 On ch=2 n=c5 v=119
50640 On ch=2 n=f#5 v=119
50860 On ch=2 n=f#5 v=0
50860 On ch=2 n=c5 v=0
50880 On ch=2 n=c5 v=119
50880 On ch=2 n=f#5 v=119
51095 On ch=2 n=a#5 v=0
51100 On ch=2 n=f#5 v=0
51100 On ch=2 n=c5 v=0
51120 On ch=2 n=f#5 v=119
51120 On ch=2 n=g#5 v=119
51120 On ch=2 n=c5 v=119
51340 On ch=2 n=c5 v=0
51340 On ch=2 n=f#5 v=0
51360 On ch=2 n=c5 v=119
51360 On ch=2 n=f#5 v=119
51580 On ch=2 n=f#5 v=0
51580 On ch=2 n=c5 v=0
51600 On ch=2 n=c5 v=119
51600 On ch=2 n=f#5 v=119
51720 Par ch=2 c=64 v=2
51815 On ch=2 n=f#5 v=0
51815 On ch=2 n=c5 v=0
51820 On ch=2 n=g#5 v=0
51840 On ch=2 n=f5 v=119
51840 On ch=2 n=g#5 v=119
51840 Par ch=2 c=64 v=120
52055 On ch=2 n=f5 v=0
52060 On ch=2 n=g#5 v=0
52080 On ch=2 n=c#6 v=119
52080 On ch=2 n=g#5 v=119
52300 On ch=2 n=g#5 v=0
52300 On ch=2 n=c#6 v=0
52320 On ch=2 n=g#5 v=119
52320 On ch=2 n=g6 v=119
52320 On ch=2 n=c#6 v=119
52535 On ch=2 n=g6 v=0
52540 On ch=2 n=c#6 v=0
52540 On ch=2 n=g#5 v=0
52560 On ch=2 n=g#5 v=119
52560 On ch=2 n=c#6 v=119
52560 On ch=2 n=a#6 v=119
52775 On ch=2 n=a#6 v=0
52780 On ch=2 n=c#6 v=0
52780 On ch=2 n=g#5 v=0
52800 On ch=2 n=g#6 v=119
52800 On ch=2 n=c#6 v=119
52800 On ch=2 n=g#5 v=119
53015 On ch=2 n=g#6 v=0
53020 On ch=2 n=g#5 v=0
53020 On ch=2 n=c#6 v=0
53040 On ch=2 n=f6 v=119
53040 On ch=2 n=g#5 v=119
53040 On ch=2 n=c#6 v=119
53160 Par ch=2 c=64 v=2
53255 On ch=2 n=c#6 v=0
53255 On ch=2 n=g#5 v=0
53255 On ch=2 n=f6 v=0
53280 On ch=2 n=d#6 v=127
53280 Par ch=2 c=64 v=120
53520 On ch=2 n=a#5 v=119
53520 On ch=2 n=d#5 v=119
53740 On ch=2 n=d#5 v=0
53740 On ch=2 n=a#5 v=0
53760 On ch=2 n=d#5 v=118
53760 On ch=2 n=a#5 v=118
53880 Par ch=2 c=64 v=1
53975 On ch=2 n=a#5 v=0
53975 On ch=2 n=d#5 v=0
53975 On ch=2 n=d#6 v=0
54000 On ch=2 n=f6 v=127
54000 Par ch=2 c=64 v=120
54240 On ch=2 n=c#6 v=115
54240 On ch=2 n=f5 v=115
54460 On ch=2 n=f5 v=0
54460 On ch=2 n=c#6 v=0
54480 On ch=2 n=c#6 v=115
54480 On ch=2 n=f5 v=115
54600 Par ch=2 c=64 v=2
54695 On ch=2 n=f5 v=0
54695 On ch=2 n=c#6 v=0
54720 Par ch=2 c=64 v=120
54935 On ch=2 n=f6 v=0
54960 On ch=2 n=a#5 v=115
54960 On ch=2 n=d#5 v=115
55180 On ch=2 n=d#5 v=0
55180 On ch=2 n=a#5 v=0
55200 On ch=2 n=a#5 v=115
55200 On ch=2 n=d#5 v=115
55200 On ch=2 n=d#6 v=115
55415 On ch=2 n=d#6 v=0
55415 On ch=2 n=d#5 v=0
55420 On ch=2 n=a#5 v=0
55440 On ch=2 n=a#5 v=115
55440 On ch=2 n=g6 v=115
55655 On ch=2 n=g6 v=0
55660 On ch=2 n=a#5 v=0
55680 On ch=2 n=a#5 v=115
55680 On ch=2 n=f6 v=115
55895 On ch=2 n=f6 v=0
55900 On ch=2 n=a#5 v=0
55920 On ch=2 n=c#6 v=115
55920 On ch=2 n=d#5 v=115
55920 On ch=2 n=a#5 v=115
56040 Par ch=2 c=64 v=2
56135 On ch=2 n=a#5 v=0
56135 On ch=2 n=d#5 v=0
56135 On ch=2 n=c#6 v=0
56160 Par ch=2 c=64 v=120
56160 On ch=2 n=c6 v=127
56400 On ch=2 n=d#5 v=115
56400 On ch=2 n=a5 v=115
56620 On ch=2 n=a5 v=0
56620 On ch=2 n=d#5 v=0
56640 On ch=2 n=d#5 v=115
56640 On ch=2 n=a5 v=115
56760 Par ch=2 c=64 v=1
56855 On ch=2 n=a5 v=0
56855 On ch=2 n=d#5 v=0
56855 On ch=2 n=c6 v=0
56880 On ch=2 n=c#6 v=127
56880 Par ch=2 c=64 v=120
57120 On ch=2 n=g#5 v=117
57120 On ch=2 n=c#5 v=117
57340 On ch=2 n=c#5 v=0
57340 On ch=2 n=g#5 v=0
57360 On ch=2 n=g#5 v=117
57360 On ch=2 n=c#5 v=117
57480 Par ch=2 c=64 v=2
57575 On ch=2 n=c#5 v=0
57575 On ch=2 n=g#5 v=0
57580 On ch=2 n=c#6 v=0
57600 Par ch=2 c=64 v=120
57600 On ch=2 n=c#6 v=117
57815 On ch=2 n=c#6 v=0
57840 On ch=2 n=g#5 v=117
57840 On ch=2 n=c#5 v=117
58055 On ch=2 n=g#5 v=0
58060 On ch=2 n=c#5 v=0
58080 On ch=2 n=a#5 v=117
58080 On ch=2 n=g5 v=117
58080 On ch=2 n=c#5 v=117
58200 Par ch=2 c=64 v=1
58295 On ch=2 n=c#5 v=0
58295 On ch=2 n=g5 v=0
58295 On ch=2 n=a#5 v=0
58320 On ch=2 n=c#6 v=117
58320 Par ch=2 c=64 v=120
58535 On ch=2 n=c#6 v=0
58560 On ch=2 n=g#5 v=117
58560 On ch=2 n=c5 v=117
58560 On ch=2 n=c6 v=117
58775 On ch=2 n=c6 v=0
58780 On ch=2 n=c5 v=0
58780 On ch=2 n=g#5 v=0
58800 On ch=2 n=c5 v=117
58800 On ch=2 n=g#5 v=117
58800 On ch=2 n=f5 v=117
58920 Par ch=2 c=64 v=2
59015 On ch=2 n=f5 v=0
59015 On ch=2 n=g#5 v=0
59015 On ch=2 n=c5 v=0
59040 On ch=2 n=a#5 v=117
59040 Par ch=2 c=64 v=120
59280 On ch=2 n=a#4 v=117
59280 On ch=2 n=g5 v=117
59500 On ch=2 n=g5 v=0
59500 On ch=2 n=a#4 v=0
59520 On ch=2 n=g5 v=117
59520 On ch=2 n=a#4 v=117
59740 On ch=2 n=a#4 v=0
59740 On ch=2 n=g5 v=0
59760 On ch=2 n=g5 v=117
59760 On ch=2 n=a#4 v=117
59980 On ch=2 n=a#4 v=0
59980 On ch=2 n=g5 v=0
60000 On ch=2 n=a#4 v=118
60000 On ch=2 n=g5 v=118
60220 On ch=2 n=g5 v=0
60220 On ch=2 n=a#4 v=0
60240 On ch=2 n=a#4 v=118
60240 On ch=2 n=g5 v=118
60360 Par ch=2 c=64 v=2
60455 On ch=2 n=g5 v=0
60455 On ch=2 n=a#4 v=0
60480 Par ch=2 c=64 v=120
60720 On ch=2 n=f#5 v=56
60720 On ch=2 n=b4 v=56
60940 On ch=2 n=b4 v=0
60940 On ch=2 n=f#5 v=0
60960 On ch=2 n=f#5 v=56
60960 On ch=2 n=b4 v=56
61175 On ch=2 n=f#5 v=0
61175 On ch=2 n=a#5 v=0
61200 On ch=2 n=b4 v=54
61205 On ch=2 n=b4 v=0
61230 On ch=2 n=f#5 v=54
61260 On ch=2 n=b5 v=54
61265 On ch=2 n=b5 v=0
61290 On ch=2 n=c#6 v=54
61295 On ch=2 n=c#6 v=0
61320 On ch=2 n=b5 v=54
61415 On ch=2 n=b5 v=0
61415 On ch=2 n=f#5 v=0
61415 On ch=2 n=b4 v=0
61440 On ch=2 n=a#4 v=54
61440 On ch=2 n=a#5 v=54
61440 On ch=2 n=f#5 v=54
61655 On ch=2 n=a#5 v=0
61655 On ch=2 n=a#4 v=0
61660 On ch=2 n=f#5 v=0
61680 On ch=2 n=f#5 v=54
61680 On ch=2 n=b5 v=54
61680 On ch=2 n=b4 v=54
61800 Par ch=2 c=64 v=2
61895 On ch=2 n=b4 v=0
61895 On ch=2 n=b5 v=0
61895 On ch=2 n=f#5 v=0
61920 Par ch=2 c=64 v=120
61920 Par ch=2 c=64 v=120
61920 Par ch=2 c=64 v=120
61920 On ch=2 n=c#6 v=54
62160 On ch=2 n=g#5 v=54
62160 On ch=2 n=c#5 v=54
62380 On ch=2 n=c#5 v=0
62380 On ch=2 n=g#5 v=0
62400 On ch=2 n=c#5 v=54
62400 On ch=2 n=g#5 v=54
62520 Par ch=2 c=64 v=1
62615 On ch=2 n=c#5 v=0
62615 On ch=2 n=c#6 v=0
62620 On ch=2 n=g#5 v=0
62640 On ch=2 n=g#5 v=54
62640 Par ch=2 c=64 v=120
62640 On ch=2 n=b4 v=54
62640 On ch=2 n=b5 v=54
62855 On ch=2 n=b4 v=0
62860 On ch=2 n=g#5 v=0
62880 On ch=2 n=g#5 v=54
63100 On ch=2 n=g#5 v=0
63120 On ch=2 n=g#5 v=54
63240 Par ch=2 c=64 v=2
63240 Par ch=2 c=64 v=2
63240 Par ch=2 c=64 v=2
63335 On ch=2 n=g#5 v=0
63335 On ch=2 n=b5 v=0
63360 Par ch=2 c=64 v=120
63360 Par ch=2 c=64 v=120
63360 On ch=2 n=a#5 v=56
63360 Par ch=2 c=64 v=120
63575 On ch=2 n=a#5 v=0
63600 On ch=2 n=f#5 v=63
63600 On ch=2 n=b5 v=63
63820 On ch=2 n=b5 v=0
63820 On ch=2 n=f#5 v=0
63840 On ch=2 n=b5 v=68
63840 On ch=2 n=f#5 v=68
63840 On ch=2 n=c#6 v=68
63960 Par ch=2 c=64 v=1
64055 On ch=2 n=c#6 v=0
64060 On ch=2 n=f#5 v=0
64060 On ch=2 n=b5 v=0
64080 On ch=2 n=f#5 v=73
64080 On ch=2 n=d#6 v=73
64080 On ch=2 n=b5 v=73
64080 Par ch=2 c=64 v=120
64295 On ch=2 n=d#6 v=0
64300 On ch=2 n=b5 v=0
64300 On ch=2 n=f#5 v=0
64320 On ch=2 n=f#5 v=75
64320 On ch=2 n=b5 v=75
64320 On ch=2 n=e6 v=75
64535 On ch=2 n=e6 v=0
64540 On ch=2 n=b5 v=0
64540 On ch=2 n=f#5 v=0
64560 On ch=2 n=b5 v=81
64560 On ch=2 n=f#5 v=81
64560 On ch=2 n=f#6 v=81
64680 Par ch=2 c=64 v=2
64680 Par ch=2 c=64 v=2
64680 Par ch=2 c=64 v=2
64775 On ch=2 n=f#6 v=0
64775 On ch=2 n=f#5 v=0
64775 On ch=2 n=b5 v=0
64800 Par ch=2 c=64 v=120
64800 Par ch=2 c=64 v=120
64800 Par ch=2 c=64 v=120
64800 On ch=2 n=g#6 v=89
65040 On ch=2 n=e6 v=90
65040 On ch=2 n=g#5 v=90
65260 On ch=2 n=g#5 v=0
65260 On ch=2 n=e6 v=0
65280 On ch=2 n=e6 v=91
65280 On ch=2 n=g#5 v=91
65400 Par ch=2 c=64 v=1
65500 On ch=2 n=g#5 v=0
65500 On ch=2 n=e6 v=0
65520 On ch=2 n=e6 v=91
65520 Par ch=2 c=64 v=120
65520 On ch=2 n=g#5 v=91
65740 On ch=2 n=g#5 v=0
65740 On ch=2 n=e6 v=0
65760 On ch=2 n=b5 v=91
65760 On ch=2 n=g#5 v=91
65760 On ch=2 n=e6 v=91
65980 On ch=2 n=e6 v=0
65980 On ch=2 n=g#5 v=0
65980 On ch=2 n=b5 v=0
66000 On ch=2 n=g#5 v=91
66000 On ch=2 n=b5 v=91
66000 On ch=2 n=e6 v=91
66120 Par ch=2 c=64 v=2
66120 Par ch=2 c=64 v=2
66120 Par ch=2 c=64 v=2
66215 On ch=2 n=e6 v=0
66215 On ch=2 n=b5 v=0
66215 On ch=2 n=g#5 v=0
66240 Par ch=2 c=64 v=120
66240 Par ch=2 c=64 v=120
66455 On ch=2 n=g#6 v=0
66480 On ch=2 n=c#5 v=56
66700 On ch=2 n=c#5 v=0
66720 On ch=2 n=c#5 v=56
66720 On ch=2 n=g#5 v=56
66720 On ch=2 n=c#6 v=56
66935 On ch=2 n=c#6 v=0
66935 On ch=2 n=g#5 v=0
66960 On ch=2 n=c#5 v=56
66965 On ch=2 n=c#5 v=0
66990 On ch=2 n=g#5 v=56
67020 On ch=2 n=c#6 v=56
67025 On ch=2 n=c#6 v=0
67050 On ch=2 n=d#6 v=56
67055 On ch=2 n=d#6 v=0
67080 On ch=2 n=c#6 v=56
67175 On ch=2 n=c#6 v=0
67175 On ch=2 n=c#5 v=0
67200 On ch=2 n=c6 v=56
67200 On ch=2 n=c5 v=56
67200 On ch=2 n=g#5 v=56
67295 On ch=2 n=g#5 v=0
67415 On ch=2 n=g#5 v=0
67415 On ch=2 n=c5 v=0
67415 On ch=2 n=c6 v=0
67440 On ch=2 n=g#5 v=56
67440 On ch=2 n=c#5 v=56
67440 On ch=2 n=c#6 v=56
67560 Par ch=2 c=64 v=2
67560 Par ch=2 c=64 v=2
67655 On ch=2 n=c#6 v=0
67655 On ch=2 n=c#5 v=0
67655 On ch=2 n=g#5 v=0
67680 Par ch=2 c=64 v=120
67680 On ch=2 n=d#6 v=56
67680 Par ch=2 c=64 v=120
67680 Par ch=2 c=64 v=120
67920 On ch=2 n=c#5 v=56
67920 On ch=2 n=a#5 v=56
68140 On ch=2 n=a#5 v=0
68140 On ch=2 n=c#5 v=0
68160 On ch=2 n=c#5 v=56
68160 On ch=2 n=a#5 v=56
68280 Par ch=2 c=64 v=1
68280 Par ch=2 c=64 v=1
68375 On ch=2 n=d#6 v=0
68380 On ch=2 n=a#5 v=0
68380 On ch=2 n=c#5 v=0
68400 On ch=2 n=a#5 v=56
68400 On ch=2 n=c#6 v=56
68400 Par ch=2 c=64 v=120
68400 On ch=2 n=c#5 v=56
68400 Par ch=2 c=64 v=120
68620 On ch=2 n=c#5 v=0
68620 On ch=2 n=a#5 v=0
68640 On ch=2 n=a#5 v=56
68640 On ch=2 n=c#5 v=56
68860 On ch=2 n=c#5 v=0
68860 On ch=2 n=a#5 v=0
68880 On ch=2 n=a#5 v=56
68880 On ch=2 n=c#5 v=56
69000 Par ch=2 c=64 v=2
69000 Par ch=2 c=64 v=2
69000 Par ch=2 c=64 v=2
69095 On ch=2 n=c#5 v=0
69095 On ch=2 n=a#5 v=0
69095 On ch=2 n=c#6 v=0
69120 On ch=2 n=c#6 v=56
69120 Par ch=2 c=64 v=120
69120 Par ch=2 c=64 v=120
69120 Par ch=2 c=64 v=120
69340 On ch=2 n=c#6 v=0
69360 On ch=2 n=c#6 v=57
69360 On ch=2 n=f5 v=57
69360 On ch=2 n=b5 v=57
69575 On ch=2 n=c#6 v=0
69580 On ch=2 n=b5 v=0
69580 On ch=2 n=f5 v=0
69600 On ch=2 n=d#6 v=58
69600 On ch=2 n=f5 v=58
69600 On ch=2 n=b5 v=58
69720 Par ch=2 c=64 v=1
69815 On ch=2 n=f5 v=0
69815 On ch=2 n=d#6 v=0
69820 On ch=2 n=b5 v=0
69840 On ch=2 n=b5 v=64
69840 Par ch=2 c=64 v=120
69840 On ch=2 n=f6 v=64
69840 On ch=2 n=f5 v=64
70055 On ch=2 n=f5 v=0
70055 On ch=2 n=f6 v=0
70060 On ch=2 n=b5 v=0
70080 On ch=2 n=f#5 v=67
70080 On ch=2 n=b5 v=67
70080 On ch=2 n=c#6 v=67
70080 On ch=2 n=f#6 v=67
70295 On ch=2 n=f#6 v=0
70295 On ch=2 n=f#5 v=0
70300 On ch=2 n=c#6 v=0
70300 On ch=2 n=b5 v=0
70320 On ch=2 n=g#6 v=71
70320 On ch=2 n=b5 v=71
70320 On ch=2 n=c#6 v=71
70320 On ch=2 n=g#5 v=71
70440 Par ch=2 c=64 v=2
70440 Par ch=2 c=64 v=2
70440 Par ch=2 c=64 v=2
70535 On ch=2 n=g#5 v=0
70535 On ch=2 n=c#6 v=0
70535 On ch=2 n=b5 v=0
70535 On ch=2 n=g#6 v=0
70560 Par ch=2 c=64 v=1
70560 On ch=2 n=a#6 v=80
70560 Par ch=2 c=64 v=1
70560 Par ch=2 c=64 v=1
70560 Par ch=2 c=64 v=1
70680 Par ch=2 c=64 v=120
70680 Par ch=2 c=64 v=120
70680 Par ch=2 c=64 v=120
70680 Par ch=2 c=64 v=120
70800 On ch=2 n=f#6 v=84
70800 On ch=2 n=a#5 v=84
71020 On ch=2 n=a#5 v=0
71020 On ch=2 n=f#6 v=0
71040 On ch=2 n=a#5 v=89
71040 On ch=2 n=f#6 v=89
71260 On ch=2 n=f#6 v=0
71260 On ch=2 n=a#5 v=0
71280 Par ch=2 c=64 v=2
71280 On ch=2 n=f#6 v=93
71280 On ch=2 n=a#5 v=93
71280 Par ch=2 c=64 v=2
71280 On ch=2 n=c#6 v=93
71280 Par ch=2 c=64 v=2
71280 Par ch=2 c=64 v=2
71280 Par ch=2 c=64 v=2
71280 Par ch=2 c=64 v=2
71280 Par ch=2 c=64 v=2
71280 Par ch=2 c=64 v=2
71280 Par ch=2 c=64 v=2
71400 Par ch=2 c=64 v=120
71400 Par ch=2 c=64 v=120
71400 Par ch=2 c=64 v=120
71400 Par ch=2 c=64 v=120
71400 Par ch=2 c=64 v=120
71400 Par ch=2 c=64 v=120
71400 Par ch=2 c=64 v=120
71400 Par ch=2 c=64 v=120
71400 Par ch=2 c=64 v=120
71500 On ch=2 n=c#6 v=0
71500 On ch=2 n=a#5 v=0
71500 On ch=2 n=f#6 v=0
71520 On ch=2 n=f#6 v=96
71520 On ch=2 n=c#6 v=96
71520 On ch=2 n=a#5 v=96
71740 On ch=2 n=a#5 v=0
71740 On ch=2 n=c#6 v=0
71740 On ch=2 n=f#6 v=0
71760 On ch=2 n=c#6 v=103
71760 On ch=2 n=a#5 v=103
71760 On ch=2 n=f#6 v=103
71975 On ch=2 n=f#6 v=0
71975 On ch=2 n=a#5 v=0
71975 On ch=2 n=c#6 v=0
71975 On ch=2 n=a#6 v=0
72000 Par ch=2 c=64 v=1
72000 Par ch=2 c=64 v=1
72000 Par ch=2 c=64 v=1
72000 Par ch=2 c=64 v=1
72000 On ch=2 n=b6 v=107
72120 Par ch=2 c=64 v=120
72120 Par ch=2 c=64 v=120
72120 Par ch=2 c=64 v=120
72120 Par ch=2 c=64 v=120
72240 On ch=2 n=f#6 v=107
72240 On ch=2 n=b5 v=107
72240 On ch=2 n=a5 v=107
72460 On ch=2 n=a5 v=0
72460 On ch=2 n=b5 v=0
72460 On ch=2 n=f#6 v=0
72480 On ch=2 n=a5 v=107
72480 On ch=2 n=f#6 v=107
72480 On ch=2 n=b5 v=107
72695 On ch=2 n=b5 v=0
72695 On ch=2 n=f#6 v=0
72695 On ch=2 n=a5 v=0
72695 On ch=2 n=b6 v=0
72720 Par ch=2 c=64 v=2
72720 Par ch=2 c=64 v=2
72720 Par ch=2 c=64 v=2
72720 Par ch=2 c=64 v=2
72720 Par ch=2 c=64 v=2
72720 Par ch=2 c=64 v=2
72720 Par ch=2 c=64 v=2
72720 On ch=2 n=g#6 v=107
72720 Par ch=2 c=64 v=2
72720 Par ch=2 c=64 v=2
72840 Par ch=2 c=64 v=120
72840 Par ch=2 c=64 v=120
72840 Par ch=2 c=64 v=120
72840 Par ch=2 c=64 v=120
72840 Par ch=2 c=64 v=120
72840 Par ch=2 c=64 v=120
72840 Par ch=2 c=64 v=120
72840 Par ch=2 c=64 v=120
72840 Par ch=2 c=64 v=120
72960 On ch=2 n=g#5 v=106
72960 On ch=2 n=e6 v=106
73180 On ch=2 n=e6 v=0
73180 On ch=2 n=g#5 v=0
73200 On ch=2 n=e6 v=102
73200 On ch=2 n=g#5 v=102
73415 On ch=2 n=g#5 v=0
73415 On ch=2 n=e6 v=0
73415 On ch=2 n=g#6 v=0
73440 Par ch=2 c=64 v=1
73440 On ch=2 n=a#6 v=101
73440 Par ch=2 c=64 v=1
73440 Par ch=2 c=64 v=1
73560 Par ch=2 c=64 v=120
73560 Par ch=2 c=64 v=120
73560 Par ch=2 c=64 v=120
73680 On ch=2 n=g#5 v=100
73680 On ch=2 n=f6 v=100
73900 On ch=2 n=f6 v=0
73900 On ch=2 n=g#5 v=0
73920 On ch=2 n=f6 v=93
73920 On ch=2 n=g#5 v=93
74135 On ch=2 n=g#5 v=0
74135 On ch=2 n=f6 v=0
74135 On ch=2 n=a#6 v=0
74160 Par ch=2 c=64 v=2
74160 On ch=2 n=g6 v=89
74160 Par ch=2 c=64 v=2
74160 Par ch=2 c=64 v=2
74160 Par ch=2 c=64 v=2
74160 Par ch=2 c=64 v=2
74160 Par ch=2 c=64 v=2
74160 Par ch=2 c=64 v=2
74160 Par ch=2 c=64 v=2
74160 Par ch=2 c=64 v=2
74280 Par ch=2 c=64 v=120
74280 Par ch=2 c=64 v=120
74280 Par ch=2 c=64 v=120
74280 Par ch=2 c=64 v=120
74280 Par ch=2 c=64 v=120
74280 Par ch=2 c=64 v=120
74280 Par ch=2 c=64 v=120
74400 On ch=2 n=g5 v=87
74400 On ch=2 n=d#6 v=87
74620 On ch=2 n=d#6 v=0
74620 On ch=2 n=g5 v=0
74640 On ch=2 n=g5 v=86
74640 On ch=2 n=d#6 v=86
74855 On ch=2 n=d#6 v=0
74855 On ch=2 n=g5 v=0
74855 On ch=2 n=g6 v=0
74880 Par ch=2 c=64 v=1
74880 On ch=2 n=a6 v=84
75000 Par ch=2 c=64 v=120
75120 On ch=2 n=g5 v=81
75120 On ch=2 n=e6 v=81
75340 On ch=2 n=e6 v=0
75340 On ch=2 n=g5 v=0
75360 On ch=2 n=e6 v=79
75360 On ch=2 n=g5 v=79
75575 On ch=2 n=g5 v=0
75575 On ch=2 n=e6 v=0
75575 On ch=2 n=a6 v=0
75600 Par ch=2 c=64 v=2
75600 Par ch=2 c=64 v=2
75600 On ch=2 n=f#6 v=76
75600 Par ch=2 c=64 v=2
75600 Par ch=2 c=64 v=2
75600 Par ch=2 c=64 v=2
75600 Par ch=2 c=64 v=2
75600 Par ch=2 c=64 v=2
75720 Par ch=2 c=64 v=120
75720 Par ch=2 c=64 v=120
75720 Par ch=2 c=64 v=120
75720 Par ch=2 c=64 v=120
75720 Par ch=2 c=64 v=120
75720 Par ch=2 c=64 v=120
75720 Par ch=2 c=64 v=120
75720 Par ch=2 c=64 v=120
75840 On ch=2 n=d6 v=73
75840 On ch=2 n=f#5 v=73
76055 On ch=2 n=d6 v=0
76060 On ch=2 n=f#5 v=0
76080 On ch=2 n=c#6 v=67
76080 On ch=2 n=f#5 v=67
76295 On ch=2 n=c#6 v=0
76300 On ch=2 n=f#5 v=0
76320 Par ch=2 c=64 v=1
76320 Par ch=2 c=64 v=1
76320 Par ch=2 c=64 v=1
76320 Par ch=2 c=64 v=1
76320 Par ch=2 c=64 v=1
76320 On ch=2 n=c6 v=63
76320 On ch=2 n=f#5 v=63
76440 Par ch=2 c=64 v=120
76440 Par ch=2 c=64 v=120
76440 Par ch=2 c=64 v=120
76440 Par ch=2 c=64 v=120
76440 Par ch=2 c=64 v=120
76540 On ch=2 n=f#5 v=0
76540 On ch=2 n=c6 v=0
76560 On ch=2 n=f#5 v=68
76560 On ch=2 n=c6 v=68
76560 On ch=2 n=a5 v=68
76775 On ch=2 n=c6 v=0
76780 On ch=2 n=a5 v=0
76780 On ch=2 n=f#5 v=0
76800 On ch=2 n=c#6 v=75
76800 On ch=2 n=f#5 v=75
76800 On ch=2 n=a5 v=75
77015 On ch=2 n=c#6 v=0
77020 On ch=2 n=a5 v=0
77020 On ch=2 n=f#5 v=0
77040 Par ch=2 c=64 v=2
77040 On ch=2 n=a5 v=81
77040 Par ch=2 c=64 v=2
77040 Par ch=2 c=64 v=2
77040 Par ch=2 c=64 v=2
77040 Par ch=2 c=64 v=2
77040 Par ch=2 c=64 v=2
77040 On ch=2 n=d6 v=81
77040 Par ch=2 c=64 v=2
77040 On ch=2 n=f#5 v=81
77040 Par ch=2 c=64 v=2
77160 Par ch=2 c=64 v=120
77160 Par ch=2 c=64 v=120
77160 Par ch=2 c=64 v=120
77160 Par ch=2 c=64 v=120
77160 Par ch=2 c=64 v=120
77160 Par ch=2 c=64 v=120
77160 Par ch=2 c=64 v=120
77160 Par ch=2 c=64 v=120
77260 On ch=2 n=f#5 v=0
77260 On ch=2 n=d6 v=0
77260 On ch=2 n=a5 v=0
77280 On ch=2 n=d6 v=90
77280 On ch=2 n=a5 v=90
77280 On ch=2 n=f#5 v=90
77495 On ch=2 n=d6 v=0
77500 On ch=2 n=f#5 v=0
77500 On ch=2 n=a5 v=0
77520 On ch=2 n=f#5 v=93
77520 On ch=2 n=a5 v=93
77520 On ch=2 n=d#6 v=93
77735 On ch=2 n=d#6 v=0
77735 On ch=2 n=a5 v=0
77735 On ch=2 n=f#5 v=0
77740 On ch=2 n=f#6 v=0
77760 Par ch=2 c=64 v=1
77760 Par ch=2 c=64 v=1
77760 On ch=2 n=g6 v=97
77760 Par ch=2 c=64 v=1
77880 Par ch=2 c=64 v=120
77880 Par ch=2 c=64 v=120
77880 Par ch=2 c=64 v=120
78000 On ch=2 n=g5 v=97
78000 On ch=2 n=d#6 v=97
78220 On ch=2 n=d#6 v=0
78220 On ch=2 n=g5 v=0
78240 On ch=2 n=d#6 v=97
78240 On ch=2 n=g5 v=97
78455 On ch=2 n=d#6 v=0
78460 On ch=2 n=g5 v=0
78480 Par ch=2 c=64 v=2
78480 Par ch=2 c=64 v=2
78480 Par ch=2 c=64 v=2
78480 Par ch=2 c=64 v=2
78480 Par ch=2 c=64 v=2
78480 Par ch=2 c=64 v=2
78480 Par ch=2 c=64 v=2
78480 On ch=2 n=c#6 v=97
78480 Par ch=2 c=64 v=2
78480 On ch=2 n=g5 v=97
78600 Par ch=2 c=64 v=120
78695 On ch=2 n=g6 v=0
78700 On ch=2 n=g5 v=0
78700 On ch=2 n=c#6 v=0
78720 On ch=2 n=g5 v=97
78720 On ch=2 n=g#6 v=97
78720 On ch=2 n=c#6 v=97
78935 On ch=2 n=g#6 v=0
78940 On ch=2 n=c#6 v=0
78940 On ch=2 n=g5 v=0
78960 On ch=2 n=c#6 v=97
78960 On ch=2 n=e6 v=97
78960 On ch=2 n=g5 v=97
79175 On ch=2 n=g5 v=0
79175 On ch=2 n=e6 v=0
79175 On ch=2 n=c#6 v=0
79200 On ch=2 n=g6 v=96
79415 On ch=2 n=g6 v=0
79440 On ch=2 n=f6 v=96
79440 On ch=2 n=d6 v=96
79440 On ch=2 n=g#5 v=96
79475 On ch=2 n=f6 v=0
79500 On ch=2 n=g6 v=96
79535 On ch=2 n=g6 v=0
79560 On ch=2 n=f6 v=96
79655 On ch=2 n=f6 v=0
79660 On ch=2 n=g#5 v=0
79660 On ch=2 n=d6 v=0
79680 On ch=2 n=e6 v=96
79680 On ch=2 n=g#5 v=96
79680 On ch=2 n=d6 v=96
79895 On ch=2 n=e6 v=0
79900 On ch=2 n=d6 v=0
79900 On ch=2 n=g#5 v=0
79920 On ch=2 n=g#5 v=96
79920 On ch=2 n=f6 v=96
79920 Par ch=2 c=64 v=2
79920 On ch=2 n=d6 v=96
80040 Par ch=2 c=64 v=120
80135 On ch=2 n=f6 v=0
80140 On ch=2 n=d6 v=0
80140 On ch=2 n=g#5 v=0
80160 On ch=2 n=g6 v=96
80160 On ch=2 n=d6 v=96
80160 On ch=2 n=g#5 v=96
80375 On ch=2 n=g6 v=0
80380 On ch=2 n=g#5 v=0
80380 On ch=2 n=d6 v=0
80400 On ch=2 n=d6 v=96
80400 On ch=2 n=g#5 v=96
80400 On ch=2 n=d6 v=96
80615 On ch=2 n=d6 v=0
80615 On ch=2 n=g#5 v=0
80615 On ch=2 n=d6 v=0
80640 On ch=2 n=d#6 v=122
80880 On ch=2 n=a#5 v=96
80880 On ch=2 n=d#5 v=96
81100 On ch=2 n=d#5 v=0
81100 On ch=2 n=a#5 v=0
81120 On ch=2 n=d#5 v=96
81120 On ch=2 n=a#5 v=96
81340 On ch=2 n=a#5 v=0
81340 On ch=2 n=d#5 v=0
81360 On ch=2 n=d#5 v=96
81360 Par ch=2 c=64 v=2
81360 On ch=2 n=a#5 v=96
81480 Par ch=2 c=64 v=120
81580 On ch=2 n=a#5 v=0
81580 On ch=2 n=d#5 v=0
81600 On ch=2 n=d#5 v=96
81600 On ch=2 n=a#5 v=96
81820 On ch=2 n=a#5 v=0
81820 On ch=2 n=d#5 v=0
81840 On ch=2 n=d#5 v=96
81840 On ch=2 n=a#5 v=96
82055 On ch=2 n=a#5 v=0
82060 On ch=2 n=d#5 v=0
82080 On ch=2 n=b5 v=96
82080 On ch=2 n=d#5 v=96
82300 On ch=2 n=d#5 v=0
82300 On ch=2 n=b5 v=0
82300 On ch=2 n=d#6 v=0
82320 On ch=2 n=d#5 v=96
82320 On ch=2 n=d#6 v=96
82320 On ch=2 n=b5 v=96
82535 On ch=2 n=d#6 v=0
82535 On ch=2 n=d#5 v=0
82540 On ch=2 n=b5 v=0
82560 On ch=2 n=b5 v=96
82560 On ch=2 n=d5 v=96
82560 On ch=2 n=d6 v=96
82775 On ch=2 n=d6 v=0
82775 On ch=2 n=d5 v=0
82780 On ch=2 n=b5 v=0
82800 On ch=2 n=f5 v=96
82800 On ch=2 n=b5 v=96
82800 Par ch=2 c=64 v=2
82800 On ch=2 n=f6 v=96
82920 Par ch=2 c=64 v=120
83015 On ch=2 n=f6 v=0
83015 On ch=2 n=f5 v=0
83020 On ch=2 n=b5 v=0
83040 On ch=2 n=b5 v=96
83040 On ch=2 n=d#6 v=96
83040 On ch=2 n=d#5 v=96
83255 On ch=2 n=d#6 v=0
83260 On ch=2 n=d#5 v=0
83260 On ch=2 n=b5 v=0
83280 On ch=2 n=d#5 v=96
83280 On ch=2 n=b5 v=96
83280 On ch=2 n=b5 v=96
83495 On ch=2 n=b5 v=0
83495 On ch=2 n=b5 v=0
83495 On ch=2 n=d#5 v=0
83520 On ch=2 n=d#6 v=122
83760 On ch=2 n=d#5 v=98
83760 On ch=2 n=a#5 v=98
83980 On ch=2 n=a#5 v=0
83980 On ch=2 n=d#5 v=0
84000 On ch=2 n=a#5 v=98
84000 On ch=2 n=d#5 v=98
84220 On ch=2 n=d#5 v=0
84220 On ch=2 n=a#5 v=0
84240 On ch=2 n=a#5 v=98
84240 On ch=2 n=d#5 v=98
84240 Par ch=2 c=64 v=2
84360 Par ch=2 c=64 v=120
84460 On ch=2 n=d#5 v=0
84460 On ch=2 n=a#5 v=0
84480 On ch=2 n=d#5 v=98
84480 On ch=2 n=a#5 v=98
84700 On ch=2 n=a#5 v=0
84700 On ch=2 n=d#5 v=0
84720 On ch=2 n=d#5 v=98
84720 On ch=2 n=a#5 v=98
84935 On ch=2 n=a#5 v=0
84940 On ch=2 n=d#5 v=0
84960 On ch=2 n=d#5 v=98
84960 On ch=2 n=b5 v=98
85180 On ch=2 n=b5 v=0
85180 On ch=2 n=d#5 v=0
85180 On ch=2 n=d#6 v=0
85200 On ch=2 n=d#5 v=98
85200 On ch=2 n=d#6 v=98
85200 On ch=2 n=b5 v=98
85415 On ch=2 n=d#6 v=0
85415 On ch=2 n=d#5 v=0
85420 On ch=2 n=b5 v=0
85440 On ch=2 n=b5 v=98
85440 On ch=2 n=d6 v=98
85440 On ch=2 n=d5 v=98
85655 On ch=2 n=d5 v=0
85655 On ch=2 n=d6 v=0
85660 On ch=2 n=b5 v=0
85680 Par ch=2 c=64 v=2
85680 On ch=2 n=f6 v=98
85680 On ch=2 n=b5 v=98
85680 On ch=2 n=f5 v=98
85800 Par ch=2 c=64 v=120
85895 On ch=2 n=f5 v=0
85895 On ch=2 n=f6 v=0
85900 On ch=2 n=b5 v=0
85920 On ch=2 n=d#5 v=98
85920 On ch=2 n=d#6 v=98
85920 On ch=2 n=b5 v=98
86135 On ch=2 n=d#6 v=0
86140 On ch=2 n=b5 v=0
86140 On ch=2 n=d#5 v=0
86160 On ch=2 n=b5 v=98
86160 On ch=2 n=d#5 v=98
86160 On ch=2 n=b5 v=98
86375 On ch=2 n=b5 v=0
86375 On ch=2 n=d#5 v=0
86375 On ch=2 n=b5 v=0
86400 On ch=2 n=d#6 v=122
86640 On ch=2 n=d#5 v=101
86640 On ch=2 n=a#5 v=101
86860 On ch=2 n=a#5 v=0
86860 On ch=2 n=d#5 v=0
86880 On ch=2 n=a#5 v=104
86880 On ch=2 n=d#5 v=104
87100 On ch=2 n=d#5 v=0
87100 On ch=2 n=a#5 v=0
87120 On ch=2 n=d#5 v=106
87120 On ch=2 n=a#5 v=106
87340 On ch=2 n=a#5 v=0
87340 On ch=2 n=d#5 v=0
87360 On ch=2 n=a#5 v=108
87360 On ch=2 n=d#5 v=108
87580 On ch=2 n=d#5 v=0
87580 On ch=2 n=a#5 v=0
87600 On ch=2 n=a#5 v=111
87600 On ch=2 n=d#5 v=111
87820 On ch=2 n=d#5 v=0
87820 On ch=2 n=a#5 v=0
87840 On ch=2 n=a#5 v=113
87840 On ch=2 n=d#5 v=113
88060 On ch=2 n=d#5 v=0
88060 On ch=2 n=a#5 v=0
88080 On ch=2 n=d#5 v=115
88080 On ch=2 n=a#5 v=115
88300 On ch=2 n=a#5 v=0
88300 On ch=2 n=d#5 v=0
88320 On ch=2 n=d#5 v=115
88320 On ch=2 n=a#5 v=115
88540 On ch=2 n=a#5 v=0
88540 On ch=2 n=d#5 v=0
88560 On ch=2 n=a#5 v=119
88560 Par ch=2 c=64 v=2
88560 On ch=2 n=d#5 v=119
88680 Par ch=2 c=64 v=120
88780 On ch=2 n=d#5 v=0
88780 On ch=2 n=a#5 v=0
88800 On ch=2 n=d#5 v=120
88800 On ch=2 n=a#5 v=120
89020 On ch=2 n=a#5 v=0
89020 On ch=2 n=d#5 v=0
89040 On ch=2 n=a#5 v=123
89040 On ch=2 n=d#5 v=123
89255 On ch=2 n=d#6 v=0
89260 On ch=2 n=d#5 v=0
89260 On ch=2 n=a#5 v=0
89280 On ch=2 n=a#5 v=125
89280 On ch=2 n=d#5 v=125
89500 On ch=2 n=d#5 v=0
89500 On ch=2 n=a#5 v=0
89520 On ch=2 n=a#5 v=114
89520 On ch=2 n=d#5 v=114
89740 On ch=2 n=d#5 v=0
89740 On ch=2 n=a#5 v=0
89760 On ch=2 n=d#5 v=107
89760 On ch=2 n=a#5 v=107
89980 On ch=2 n=a#5 v=0
89980 On ch=2 n=d#5 v=0
90000 On ch=2 n=d#5 v=101
90000 On ch=2 n=a#5 v=101
90000 Par ch=2 c=64 v=2
90120 Par ch=2 c=64 v=120
90220 On ch=2 n=a#5 v=0
90220 On ch=2 n=d#5 v=0
90240 On ch=2 n=d#5 v=92
90240 On ch=2 n=a#5 v=92
90460 On ch=2 n=a#5 v=0
90460 On ch=2 n=d#5 v=0
90480 On ch=2 n=a#5 v=86
90480 On ch=2 n=d#5 v=86
90700 On ch=2 n=d#5 v=0
90700 On ch=2 n=a#5 v=0
90720 On ch=2 n=a#5 v=79
90720 On ch=2 n=d#5 v=79
90940 On ch=2 n=d#5 v=0
90940 On ch=2 n=a#5 v=0
90960 On ch=2 n=a#5 v=71
90960 On ch=2 n=d#5 v=71
91180 On ch=2 n=d#5 v=0
91180 On ch=2 n=a#5 v=0
91200 On ch=2 n=a#5 v=65
91200 On ch=2 n=d#5 v=65
91420 On ch=2 n=d#5 v=0
91420 On ch=2 n=a#5 v=0
91440 On ch=2 n=a#5 v=59
91440 Par ch=2 c=64 v=2
91440 On ch=2 n=d#5 v=59
91560 Par ch=2 c=64 v=120
91660 On ch=2 n=d#5 v=0
91660 On ch=2 n=a#5 v=0
91680 On ch=2 n=d#5 v=53
91680 On ch=2 n=a#5 v=53
91900 On ch=2 n=a#5 v=0
91900 On ch=2 n=d#5 v=0
91920 On ch=2 n=a#5 v=52
91920 On ch=2 n=d#5 v=52
92380 On ch=2 n=d#5 v=0
92380 On ch=2 n=a#5 v=0
92400 On ch=2 n=a#5 v=49
92400 On ch=2 n=d#5 v=49
92615 On ch=2 n=a#5 v=0
92620 On ch=2 n=d#5 v=0
92640 On ch=2 n=d#5 v=49
92640 On ch=2 n=c6 v=49
92855 On ch=2 n=c6 v=0
92860 On ch=2 n=d#5 v=0
92880 On ch=2 n=d#5 v=49
92880 Par ch=2 c=64 v=2
92880 On ch=2 n=c#6 v=49
93000 Par ch=2 c=64 v=120
93095 On ch=2 n=c#6 v=0
93095 On ch=2 n=d#5 v=0
93120 On ch=2 n=c#5 v=49
93120 On ch=2 n=f5 v=49
93335 On ch=2 n=f5 v=0
93340 On ch=2 n=c#5 v=0
93360 On ch=2 n=g5 v=48
93360 On ch=2 n=c#5 v=48
93575 On ch=2 n=c#5 v=0
93575 On ch=2 n=g5 v=0
93600 On ch=2 n=c5 v=48
93600 On ch=2 n=a#5 v=48
93820 On ch=2 n=c5 v=0
93840 On ch=2 n=c5 v=48
94060 On ch=2 n=c5 v=0
94080 On ch=2 n=c5 v=48
94295 On ch=2 n=a#5 v=0
94300 On ch=2 n=c5 v=0
94320 Par ch=2 c=64 v=2
94320 On ch=2 n=c5 v=48
94320 On ch=2 n=g#5 v=48
94440 Par ch=2 c=64 v=120
94540 On ch=2 n=c5 v=0
94560 On ch=2 n=c5 v=48
94780 On ch=2 n=c5 v=0
94800 On ch=2 n=c5 v=48
95015 On ch=2 n=c5 v=0
95015 On ch=2 n=g#5 v=0
95280 On ch=2 n=g#5 v=48
95280 On ch=2 n=c#6 v=48
95500 On ch=2 n=c#6 v=0
95500 On ch=2 n=g#5 v=0
95520 On ch=2 n=c#6 v=48
95520 On ch=2 n=g6 v=48
95520 On ch=2 n=g#5 v=48
95735 On ch=2 n=g6 v=0
95740 On ch=2 n=g#5 v=0
95740 On ch=2 n=c#6 v=0
95760 Par ch=2 c=64 v=2
95760 On ch=2 n=a#6 v=48
95760 On ch=2 n=g#5 v=48
95760 On ch=2 n=c#6 v=48
95880 Par ch=2 c=64 v=120
95880 Par ch=2 c=64 v=120
95975 On ch=2 n=a#6 v=0
95980 On ch=2 n=c#6 v=0
95980 On ch=2 n=g#5 v=0
96000 On ch=2 n=c#6 v=48
96000 On ch=2 n=g#5 v=48
96000 On ch=2 n=g#6 v=48
96215 On ch=2 n=g#6 v=0
96220 On ch=2 n=g#5 v=0
96220 On ch=2 n=c#6 v=0
96240 On ch=2 n=g#5 v=48
96240 On ch=2 n=c#6 v=48
96240 On ch=2 n=f6 v=48
96455 On ch=2 n=f6 v=0
96455 On ch=2 n=c#6 v=0
96455 On ch=2 n=g#5 v=0
96480 On ch=2 n=a#5 v=48
96480 On ch=2 n=d#5 v=48
96480 On ch=2 n=d#6 v=48
96480 Par ch=2 c=64 v=1
96600 Par ch=2 c=64 v=120
96700 On ch=2 n=d#5 v=0
96700 On ch=2 n=a#5 v=0
96720 On ch=2 n=a#5 v=48
96720 On ch=2 n=d#5 v=48
96940 On ch=2 n=d#5 v=0
96940 On ch=2 n=a#5 v=0
96960 On ch=2 n=d#5 v=48
96960 On ch=2 n=a#5 v=48
97175 On ch=2 n=a#5 v=0
97175 On ch=2 n=d#5 v=0
97175 On ch=2 n=d#6 v=0
97200 Par ch=2 c=64 v=2
97200 On ch=2 n=f6 v=48
97200 On ch=2 n=c#6 v=48
97200 On ch=2 n=f5 v=48
97200 Par ch=2 c=64 v=2
97320 Par ch=2 c=64 v=120
97420 On ch=2 n=f5 v=0
97420 On ch=2 n=c#6 v=0
97440 On ch=2 n=f5 v=48
97440 On ch=2 n=c#6 v=48
97660 On ch=2 n=c#6 v=0
97660 On ch=2 n=f5 v=0
97680 On ch=2 n=f5 v=48
97680 On ch=2 n=c#6 v=48
97895 On ch=2 n=c#6 v=0
97895 On ch=2 n=f5 v=0
97895 On ch=2 n=f6 v=0
98160 On ch=2 n=a#5 v=48
98160 On ch=2 n=d#5 v=48
98375 On ch=2 n=d#5 v=0
98380 On ch=2 n=a#5 v=0
98400 On ch=2 n=d#6 v=48
98400 On ch=2 n=a#5 v=48
98615 On ch=2 n=d#6 v=0
98620 On ch=2 n=a#5 v=0
98640 Par ch=2 c=64 v=2
98640 On ch=2 n=a#5 v=48
98640 On ch=2 n=g6 v=48
98760 Par ch=2 c=64 v=120
98760 Par ch=2 c=64 v=120
98855 On ch=2 n=g6 v=0
98860 On ch=2 n=a#5 v=0
98880 On ch=2 n=f6 v=48
98880 On ch=2 n=a#5 v=48
99095 On ch=2 n=f6 v=0
99100 On ch=2 n=a#5 v=0
99120 On ch=2 n=c#6 v=48
99120 On ch=2 n=a#5 v=48
99335 On ch=2 n=a#5 v=0
99335 On ch=2 n=c#6 v=0
99360 Par ch=2 c=64 v=1
99360 On ch=2 n=d#5 v=48
99360 On ch=2 n=c6 v=48
99360 On ch=2 n=g#5 v=48
99480 Par ch=2 c=64 v=120
99580 On ch=2 n=g#5 v=0
99580 On ch=2 n=d#5 v=0
99600 On ch=2 n=d#5 v=48
99600 On ch=2 n=g#5 v=48
99820 On ch=2 n=g#5 v=0
99820 On ch=2 n=d#5 v=0
99840 On ch=2 n=d#5 v=48
99840 On ch=2 n=g#5 v=48
100055 On ch=2 n=d#5 v=0
100055 On ch=2 n=c6 v=0
100060 On ch=2 n=g#5 v=0
100080 On ch=2 n=g#5 v=48
100080 Par ch=2 c=64 v=2
100080 On ch=2 n=c#5 v=48
100080 Par ch=2 c=64 v=2
100080 On ch=2 n=c#6 v=48
100200 Par ch=2 c=64 v=120
100300 On ch=2 n=c#5 v=0
100300 On ch=2 n=g#5 v=0
100320 On ch=2 n=c#5 v=48
100320 On ch=2 n=g#5 v=48
100540 On ch=2 n=g#5 v=0
100540 On ch=2 n=c#5 v=0
100560 On ch=2 n=c#5 v=48
100560 On ch=2 n=g#5 v=48
100775 On ch=2 n=g#5 v=0
100775 On ch=2 n=c#5 v=0
100775 On ch=2 n=c#6 v=0
101040 On ch=2 n=c#5 v=48
101260 On ch=2 n=c#5 v=0
101280 On ch=2 n=a#5 v=48
101280 On ch=2 n=c#5 v=48
101495 On ch=2 n=c#5 v=0
101495 On ch=2 n=a#5 v=0
101520 Par ch=2 c=64 v=2
101520 On ch=2 n=c#6 v=48
101520 On ch=2 n=c5 v=48
101520 On ch=2 n=g#5 v=48
101640 Par ch=2 c=64 v=120
101735 On ch=2 n=c#6 v=0
101740 On ch=2 n=g#5 v=0
101740 On ch=2 n=c5 v=0
101760 On ch=2 n=g#5 v=48
101760 On ch=2 n=c6 v=48
101760 On ch=2 n=c5 v=48
101975 On ch=2 n=c6 v=0
101980 On ch=2 n=c5 v=0
101980 On ch=2 n=g#5 v=0
102000 On ch=2 n=f5 v=48
102000 On ch=2 n=g#5 v=48
102000 On ch=2 n=c5 v=48
102215 On ch=2 n=c5 v=0
102215 On ch=2 n=g#5 v=0
102215 On ch=2 n=f5 v=0
102240 On ch=2 n=g5 v=48
102240 On ch=2 n=a#4 v=48
102240 On ch=2 n=a#5 v=48
102460 On ch=2 n=a#4 v=0
102460 On ch=2 n=g5 v=0
102480 On ch=2 n=a#4 v=48
102480 On ch=2 n=g5 v=48
102700 On ch=2 n=g5 v=0
102700 On ch=2 n=a#4 v=0
102720 On ch=2 n=a#4 v=48
102720 On ch=2 n=g5 v=48
102940 On ch=2 n=g5 v=0
102940 On ch=2 n=a#4 v=0
102960 Par ch=2 c=64 v=2
102960 On ch=2 n=a#4 v=48
102960 On ch=2 n=g5 v=48
103080 Par ch=2 c=64 v=120
103180 On ch=2 n=g5 v=0
103180 On ch=2 n=a#4 v=0
103200 On ch=2 n=g5 v=48
103200 On ch=2 n=a#4 v=48
103420 On ch=2 n=a#4 v=0
103420 On ch=2 n=g5 v=0
103440 On ch=2 n=g5 v=48
103440 On ch=2 n=a#4 v=48
103655 On ch=2 n=a#4 v=0
103655 On ch=2 n=g5 v=0
103655 On ch=2 n=a#5 v=0
103920 On ch=2 n=g5 v=49
103920 On ch=2 n=c#5 v=49
103920 On ch=2 n=a#5 v=49
104135 On ch=2 n=a#5 v=0
104140 On ch=2 n=c#5 v=0
104140 On ch=2 n=g5 v=0
104160 On ch=2 n=g5 v=49
104160 On ch=2 n=c6 v=49
104160 On ch=2 n=c#5 v=49
104375 On ch=2 n=c6 v=0
104380 On ch=2 n=c#5 v=0
104380 On ch=2 n=g5 v=0
104400 Par ch=2 c=64 v=2
104400 On ch=2 n=c#6 v=49
104400 On ch=2 n=c#5 v=49
104400 On ch=2 n=g5 v=49
104520 Par ch=2 c=64 v=120
104520 Par ch=2 c=64 v=120
104615 On ch=2 n=g5 v=0
104615 On ch=2 n=c#6 v=0
104620 On ch=2 n=c#5 v=0
104640 On ch=2 n=f5 v=49
104640 On ch=2 n=c#5 v=49
104855 On ch=2 n=f5 v=0
104860 On ch=2 n=c#5 v=0
104880 On ch=2 n=c#5 v=51
104880 On ch=2 n=g5 v=51
105095 On ch=2 n=g5 v=0
105100 On ch=2 n=c#5 v=0
105120 Par ch=2 c=64 v=1
105120 On ch=2 n=c#5 v=51
105120 On ch=2 n=f#5 v=51
105120 On ch=2 n=a#5 v=51
105240 Par ch=2 c=64 v=120
105340 On ch=2 n=f#5 v=0
105340 On ch=2 n=c#5 v=0
105360 On ch=2 n=c#5 v=51
105360 On ch=2 n=f#5 v=51
105580 On ch=2 n=f#5 v=0
105580 On ch=2 n=c#5 v=0
105600 On ch=2 n=c#5 v=51
105600 On ch=2 n=f#5 v=51
105815 On ch=2 n=c#5 v=0
105815 On ch=2 n=a#5 v=0
105820 On ch=2 n=f#5 v=0
105840 On ch=2 n=c5 v=51
105840 On ch=2 n=f#5 v=51
105840 Par ch=2 c=64 v=2
105840 On ch=2 n=g#5 v=51
105840 Par ch=2 c=64 v=2
105960 Par ch=2 c=64 v=120
106060 On ch=2 n=f#5 v=0
106060 On ch=2 n=c5 v=0
106080 On ch=2 n=c5 v=51
106080 On ch=2 n=f#5 v=51
106300 On ch=2 n=f#5 v=0
106300 On ch=2 n=c5 v=0
106320 On ch=2 n=c5 v=51
106320 On ch=2 n=f#5 v=51
106535 On ch=2 n=f#5 v=0
106535 On ch=2 n=c5 v=0
106535 On ch=2 n=g#5 v=0
106560 Par ch=2 c=64 v=120
106800 On ch=2 n=c#6 v=51
106800 On ch=2 n=g#5 v=51
107020 On ch=2 n=g#5 v=0
107020 On ch=2 n=c#6 v=0
107040 On ch=2 n=g6 v=51
107040 On ch=2 n=g#5 v=51
107040 On ch=2 n=c#6 v=51
107255 On ch=2 n=g6 v=0
107260 On ch=2 n=c#6 v=0
107260 On ch=2 n=g#5 v=0
107280 On ch=2 n=c#6 v=51
107280 On ch=2 n=g#5 v=51
107280 On ch=2 n=a#6 v=51
107495 On ch=2 n=a#6 v=0
107500 On ch=2 n=g#5 v=0
107500 On ch=2 n=c#6 v=0
107520 On ch=2 n=g#6 v=51
107520 On ch=2 n=g#5 v=51
107520 On ch=2 n=c#6 v=51
107735 On ch=2 n=g#6 v=0
107740 On ch=2 n=c#6 v=0
107740 On ch=2 n=g#5 v=0
107760 On ch=2 n=c#6 v=51
107760 On ch=2 n=f6 v=51
107760 On ch=2 n=g#5 v=51
107880 Par ch=2 c=64 v=2
107975 On ch=2 n=g#5 v=0
107975 On ch=2 n=f6 v=0
107975 On ch=2 n=c#6 v=0
108000 Par ch=2 c=64 v=120
108000 On ch=2 n=d#6 v=51
108000 On ch=2 n=a#5 v=51
108000 On ch=2 n=d#5 v=51
108000 Par ch=2 c=64 v=120
108220 On ch=2 n=d#5 v=0
108220 On ch=2 n=a#5 v=0
108240 On ch=2 n=a#5 v=51
108240 On ch=2 n=d#5 v=51
108460 On ch=2 n=d#5 v=0
108460 On ch=2 n=a#5 v=0
108480 On ch=2 n=d#5 v=51
108480 On ch=2 n=a#5 v=51
108600 Par ch=2 c=64 v=1
108695 On ch=2 n=a#5 v=0
108695 On ch=2 n=d#5 v=0
108695 On ch=2 n=d#6 v=0
108720 On ch=2 n=f5 v=51
108720 On ch=2 n=c#6 v=51
108720 On ch=2 n=f6 v=51
108720 Par ch=2 c=64 v=120
108940 On ch=2 n=c#6 v=0
108940 On ch=2 n=f5 v=0
108960 On ch=2 n=f5 v=51
108960 On ch=2 n=c#6 v=51
109180 On ch=2 n=c#6 v=0
109180 On ch=2 n=f5 v=0
109200 On ch=2 n=c#6 v=51
109200 On ch=2 n=f5 v=51
109320 Par ch=2 c=64 v=2
109320 Par ch=2 c=64 v=2
109415 On ch=2 n=f5 v=0
109415 On ch=2 n=c#6 v=0
109415 On ch=2 n=f6 v=0
109440 Par ch=2 c=64 v=120
109680 On ch=2 n=a#5 v=51
109680 On ch=2 n=d#5 v=51
109900 On ch=2 n=d#5 v=0
109900 On ch=2 n=a#5 v=0
109920 On ch=2 n=d#6 v=51
109920 On ch=2 n=d#5 v=51
109920 On ch=2 n=a#5 v=51
110135 On ch=2 n=d#5 v=0
110135 On ch=2 n=d#6 v=0
110140 On ch=2 n=a#5 v=0
110160 On ch=2 n=g6 v=51
110160 On ch=2 n=a#5 v=51
110375 On ch=2 n=g6 v=0
110380 On ch=2 n=a#5 v=0
110400 On ch=2 n=f6 v=51
110400 On ch=2 n=a#5 v=51
110615 On ch=2 n=f6 v=0
110620 On ch=2 n=a#5 v=0
110640 On ch=2 n=a#5 v=51
110640 On ch=2 n=c#6 v=51
110760 Par ch=2 c=64 v=2
110855 On ch=2 n=c#6 v=0
110855 On ch=2 n=a#5 v=0
110880 On ch=2 n=c6 v=51
110880 On ch=2 n=d#5 v=51
110880 Par ch=2 c=64 v=120
110880 On ch=2 n=g#5 v=51
110880 Par ch=2 c=64 v=120
111100 On ch=2 n=g#5 v=0
111100 On ch=2 n=d#5 v=0
111120 On ch=2 n=g#5 v=51
111120 On ch=2 n=d#5 v=51
111340 On ch=2 n=d#5 v=0
111340 On ch=2 n=g#5 v=0
111360 On ch=2 n=d#5 v=51
111360 On ch=2 n=g#5 v=51
111480 Par ch=2 c=64 v=1
111575 On ch=2 n=d#5 v=0
111575 On ch=2 n=c6 v=0
111580 On ch=2 n=g#5 v=0
111600 On ch=2 n=c#6 v=51
111600 Par ch=2 c=64 v=120
111600 On ch=2 n=c#5 v=51
111600 On ch=2 n=g#5 v=51
111820 On ch=2 n=g#5 v=0
111820 On ch=2 n=c#5 v=0
111840 On ch=2 n=g#5 v=51
111840 On ch=2 n=c#5 v=51
112060 On ch=2 n=c#5 v=0
112060 On ch=2 n=g#5 v=0
112080 On ch=2 n=c#5 v=51
112080 On ch=2 n=g#5 v=51
112200 Par ch=2 c=64 v=2
112200 Par ch=2 c=64 v=2
112295 On ch=2 n=g#5 v=0
112295 On ch=2 n=c#5 v=0
112295 On ch=2 n=c#6 v=0
112320 Par ch=2 c=64 v=120
112560 On ch=2 n=c#5 v=51
112780 On ch=2 n=c#5 v=0
112800 On ch=2 n=c#5 v=52
112800 On ch=2 n=g#5 v=52
113015 On ch=2 n=g#5 v=0
113020 On ch=2 n=c#5 v=0
113040 On ch=2 n=c#5 v=52
113040 On ch=2 n=c6 v=52
113255 On ch=2 n=c6 v=0
113260 On ch=2 n=c#5 v=0
113280 On ch=2 n=c#5 v=52
113280 On ch=2 n=a#5 v=52
113495 On ch=2 n=a#5 v=0
113500 On ch=2 n=c#5 v=0
113520 On ch=2 n=c#5 v=52
113520 On ch=2 n=g#5 v=52
113640 Par ch=2 c=64 v=2
113735 On ch=2 n=g#5 v=0
113735 On ch=2 n=c#5 v=0
113760 On ch=2 n=c5 v=53
113760 Par ch=2 c=64 v=120
113760 On ch=2 n=c6 v=53
113980 On ch=2 n=c5 v=0
114000 On ch=2 n=c5 v=52
114220 On ch=2 n=c5 v=0
114240 On ch=2 n=c5 v=52
114460 On ch=2 n=c5 v=0
114480 On ch=2 n=c5 v=52
114700 On ch=2 n=c5 v=0
114720 On ch=2 n=c5 v=52
114940 On ch=2 n=c5 v=0
114960 On ch=2 n=c5 v=52
115080 Par ch=2 c=64 v=2
115175 On ch=2 n=c5 v=0
115200 On ch=2 n=c#5 v=52
115200 Par ch=2 c=64 v=120
115420 On ch=2 n=c#5 v=0
115440 On ch=2 n=c#5 v=52
115655 On ch=2 n=c6 v=0
115660 On ch=2 n=c#5 v=0
115680 On ch=2 n=g#5 v=52
115680 On ch=2 n=c#5 v=52
115895 On ch=2 n=g#5 v=0
115900 On ch=2 n=c#5 v=0
115920 On ch=2 n=c6 v=52
115920 On ch=2 n=c#5 v=52
116135 On ch=2 n=c6 v=0
116140 On ch=2 n=c#5 v=0
116160 On ch=2 n=c#5 v=52
116160 On ch=2 n=a#5 v=52
116375 On ch=2 n=a#5 v=0
116380 On ch=2 n=c#5 v=0
116400 On ch=2 n=c#5 v=52
116400 On ch=2 n=g#5 v=52
116520 Par ch=2 c=64 v=2
116615 On ch=2 n=g#5 v=0
116615 On ch=2 n=c#5 v=0
116640 Par ch=2 c=64 v=120
116640 On ch=2 n=c6 v=52
116640 On ch=2 n=c5 v=52
116640 Par ch=2 c=64 v=120
116860 On ch=2 n=c5 v=0
116880 On ch=2 n=c5 v=52
117100 On ch=2 n=c5 v=0
117120 On ch=2 n=c5 v=53
117240 Par ch=2 c=64 v=1
117335 On ch=2 n=c5 v=0
117360 Par ch=2 c=64 v=120
117360 On ch=2 n=c#5 v=53
117575 On ch=2 n=c6 v=0
117580 On ch=2 n=c#5 v=0
117600 On ch=2 n=c#5 v=53
117600 On ch=2 n=a#5 v=53
117815 On ch=2 n=a#5 v=0
117820 On ch=2 n=c#5 v=0
117840 On ch=2 n=g#5 v=52
117840 On ch=2 n=c#5 v=52
117960 Par ch=2 c=64 v=2
117960 Par ch=2 c=64 v=2
118055 On ch=2 n=c#5 v=0
118055 On ch=2 n=g#5 v=0
118080 On ch=2 n=c6 v=52
118080 Par ch=2 c=64 v=120
118080 On ch=2 n=c5 v=52
118300 On ch=2 n=c5 v=0
118320 On ch=2 n=c5 v=52
118540 On ch=2 n=c5 v=0
118560 On ch=2 n=c5 v=52
118780 On ch=2 n=c5 v=0
118800 On ch=2 n=c5 v=52
119015 On ch=2 n=c6 v=0
119020 On ch=2 n=c5 v=0
119040 On ch=2 n=a#5 v=52
119040 On ch=2 n=c5 v=52
119255 On ch=2 n=a#5 v=0
119260 On ch=2 n=c5 v=0
119280 On ch=2 n=c5 v=52
119280 On ch=2 n=g#5 v=52
119400 Par ch=2 c=64 v=2
119495 On ch=2 n=c5 v=0
119500 On ch=2 n=g#5 v=0
119520 Par ch=2 c=64 v=120
119520 On ch=2 n=g#5 v=52
119760 On ch=2 n=c5 v=52
119980 On ch=2 n=c5 v=0
120000 On ch=2 n=c5 v=53
120120 Par ch=2 c=64 v=1
120220 On ch=2 n=c5 v=0
120240 On ch=2 n=c5 v=52
120240 Par ch=2 c=64 v=120
120455 On ch=2 n=c5 v=0
120480 On ch=2 n=a#4 v=52
120695 On ch=2 n=a#4 v=0
120720 On ch=2 n=f5 v=51
120760 Par ch=2 c=64 v=2
120935 On ch=2 n=f5 v=0
120940 On ch=2 n=g#5 v=0
120960 On ch=2 n=g#5 v=48
120960 Par ch=2 c=64 v=120
120960 On ch=2 n=c5 v=48
121180 On ch=2 n=c5 v=0
121200 On ch=2 n=c5 v=47
121420 On ch=2 n=c5 v=0
121440 On ch=2 n=c5 v=46
121560 Par ch=2 c=64 v=1
121660 On ch=2 n=c5 v=0
121680 Par ch=2 c=64 v=120
121680 On ch=2 n=c5 v=45
121895 On ch=2 n=c5 v=0
121920 On ch=2 n=a#4 v=43
122135 On ch=2 n=a#4 v=0
122160 Par ch=2 c=64 v=1
122160 On ch=2 n=f5 v=42
122320 Par ch=2 c=64 v=2
122375 On ch=2 n=f5 v=0
122380 On ch=2 n=g#5 v=0
122400 Par ch=2 c=64 v=120
122400 On ch=2 n=g#5 v=41
122400 On ch=2 n=c5 v=41
122855 On ch=2 n=c5 v=0
122855 On ch=2 n=g#5 v=0
122880 Par ch=2 c=64 v=2
122880 On ch=2 n=a#4 v=36
123080 Par ch=2 c=64 v=1
123095 On ch=2 n=a#4 v=0
123120 Par ch=2 c=64 v=120
123120 On ch=2 n=g#5 v=35
123120 On ch=2 n=c5 v=35
123575 On ch=2 n=c5 v=0
123575 On ch=2 n=g#5 v=0
123600 Par ch=2 c=64 v=2
123600 On ch=2 n=a#4 v=31
123815 On ch=2 n=a#4 v=0
123840 Par ch=2 c=64 v=120
123840 On ch=2 n=c5 v=30
123840 On ch=2 n=g#5 v=30
124295 On ch=2 n=g#5 v=0
124295 On ch=2 n=c5 v=0
124320 On ch=2 n=a#4 v=26
124320 Par ch=2 c=64 v=2
124520 Par ch=2 c=64 v=1
124535 On ch=2 n=a#4 v=0
124560 On ch=2 n=g#5 v=25
124560 Par ch=2 c=64 v=120
124560 On ch=2 n=c5 v=25
125015 On ch=2 n=c5 v=0
125015 On ch=2 n=g#5 v=0
125040 Par ch=2 c=64 v=2
125040 On ch=2 n=a#4 v=24
125255 On ch=2 n=a#4 v=0
125280 Par ch=2 c=64 v=122
125320 Par ch=2 c=64 v=123
125360 Par ch=2 c=66 v=122
125520 On ch=2 n=c5 v=27
125740 On ch=2 n=c5 v=0
125760 On ch=2 n=c5 v=31
125980 On ch=2 n=c5 v=0
126000 On ch=2 n=c5 v=35
126160 Par ch=2 c=66 v=120
126220 On ch=2 n=c5 v=0
126240 On ch=2 n=c5 v=38
126460 On ch=2 n=c5 v=0
126480 On ch=2 n=c5 v=42
126700 On ch=2 n=c5 v=0
126720 On ch=2 n=c5 v=47
126920 Par ch=2 c=66 v=119
126940 On ch=2 n=c5 v=0
126960 On ch=2 n=c5 v=49
127180 On ch=2 n=c5 v=0
127200 On ch=2 n=c5 v=54
127420 On ch=2 n=c5 v=0
127440 On ch=2 n=c5 v=57
127655 On ch=2 n=c5 v=0
127680 On ch=2 n=d#5 v=47
127715 On ch=2 n=d#5 v=0
127740 On ch=2 n=c#5 v=45
127895 On ch=2 n=c#5 v=0
127920 On ch=2 n=c5 v=37
128140 On ch=2 n=c5 v=0
128160 On ch=2 n=c5 v=38
130295 On ch=2 n=c5 v=0
130320 Par ch=2 c=64 v=2
130360 Par ch=2 c=66 v=1
130760 Par ch=2 c=66 v=0
130760 Meta TrkEnd
TrkEnd
MTrk
0 SeqSpec 43 00 01 00
0 Meta TrkName "Left Hand"
0 Par ch=3 c=0 v=0
0 PrCh ch=3 p=0
0 Par ch=3 c=91 v=99
0 Par ch=3 c=64 v=122
0 Par ch=3 c=64 v=122
0 Par ch=3 c=64 v=122
0 Par ch=3 c=64 v=122
0 Par ch=3 c=64 v=122
0 Par ch=3 c=64 v=122
0 On ch=3 n=d#4 v=45
0 On ch=3 n=d#5 v=45
0 Par ch=3 c=93 v=0
0 SeqSpec 4a 41 5a 5a 01 00 00 00 00 00 00 00 00 00 00 00 00 00 00 00
0 Par ch=3 c=7 v=115
0 Par ch=3 c=64 v=122
0 On ch=3 n=g#4 v=45
0 Par ch=3 c=10 v=40
0 Par ch=3 c=64 v=122
220 On ch=3 n=g#4 v=0
220 On ch=3 n=d#5 v=0
220 On ch=3 n=d#4 v=0
240 On ch=3 n=d#4 v=48
240 On ch=3 n=g#4 v=48
240 On ch=3 n=d#5 v=48
460 On ch=3 n=d#5 v=0
460 On ch=3 n=g#4 v=0
460 On ch=3 n=d#4 v=0
480 On ch=3 n=d#5 v=52
480 On ch=3 n=g#4 v=52
480 On ch=3 n=d#4 v=52
700 On ch=3 n=d#4 v=0
700 On ch=3 n=g#4 v=0
700 On ch=3 n=d#5 v=0
720 On ch=3 n=g#4 v=56
720 On ch=3 n=d#5 v=56
720 On ch=3 n=d#4 v=56
940 On ch=3 n=d#4 v=0
940 On ch=3 n=d#5 v=0
940 On ch=3 n=g#4 v=0
960 On ch=3 n=g#4 v=60
960 On ch=3 n=d#5 v=60
960 On ch=3 n=d#4 v=60
1180 On ch=3 n=d#4 v=0
1180 On ch=3 n=d#5 v=0
1180 On ch=3 n=g#4 v=0
1200 On ch=3 n=d#5 v=65
1200 On ch=3 n=d#4 v=65
1200 On ch=3 n=g#4 v=65
1420 On ch=3 n=g#4 v=0
1420 On ch=3 n=d#4 v=0
1420 On ch=3 n=d#5 v=0
1440 On ch=3 n=g#4 v=69
1440 On ch=3 n=d#5 v=69
1440 On ch=3 n=d#4 v=69
1660 On ch=3 n=d#4 v=0
1660 On ch=3 n=d#5 v=0
1660 On ch=3 n=g#4 v=0
1680 On ch=3 n=g#4 v=75
1680 On ch=3 n=d#4 v=75
1680 On ch=3 n=d#5 v=75
1900 On ch=3 n=d#5 v=0
1900 On ch=3 n=d#4 v=0
1900 On ch=3 n=g#4 v=0
1920 On ch=3 n=d#4 v=79
1920 On ch=3 n=d#5 v=79
1920 On ch=3 n=g#4 v=79
2140 On ch=3 n=g#4 v=0
2140 On ch=3 n=d#5 v=0
2140 On ch=3 n=d#4 v=0
2160 On ch=3 n=d#4 v=82
2160 On ch=3 n=g#4 v=82
2160 On ch=3 n=d#5 v=82
2380 On ch=3 n=d#5 v=0
2380 On ch=3 n=g#4 v=0
2380 On ch=3 n=d#4 v=0
2400 On ch=3 n=g#4 v=65
2400 On ch=3 n=d#4 v=65
2400 On ch=3 n=d#5 v=65
2620 On ch=3 n=d#5 v=0
2620 On ch=3 n=d#4 v=0
2620 On ch=3 n=g#4 v=0
2640 On ch=3 n=d#5 v=53
2640 On ch=3 n=d#4 v=53
2640 On ch=3 n=g#4 v=53
2760 Par ch=3 c=64 v=2
2855 On ch=3 n=g#4 v=0
2855 On ch=3 n=d#4 v=0
2855 On ch=3 n=d#5 v=0
2880 Par ch=3 c=64 v=122
2880 On ch=3 n=d#3 v=46
3095 On ch=3 n=d#3 v=0
3120 On ch=3 n=d#4 v=46
3120 On ch=3 n=d#5 v=46
3120 On ch=3 n=a#4 v=46
3340 On ch=3 n=a#4 v=0
3340 On ch=3 n=d#5 v=0
3340 On ch=3 n=d#4 v=0
3360 On ch=3 n=d#5 v=46
3360 On ch=3 n=d#4 v=46
3360 On ch=3 n=a#4 v=46
3580 On ch=3 n=a#4 v=0
3580 On ch=3 n=d#4 v=0
3580 On ch=3 n=d#5 v=0
3600 On ch=3 n=d#4 v=46
3600 On ch=3 n=d#5 v=46
3600 On ch=3 n=a#4 v=46
3820 On ch=3 n=a#4 v=0
3820 On ch=3 n=d#5 v=0
3820 On ch=3 n=d#4 v=0
3840 On ch=3 n=d#5 v=46
3840 On ch=3 n=d#4 v=46
3840 On ch=3 n=a#4 v=46
4060 On ch=3 n=a#4 v=0
4060 On ch=3 n=d#4 v=0
4060 On ch=3 n=d#5 v=0
4080 On ch=3 n=d#5 v=46
4080 On ch=3 n=d#4 v=46
4080 On ch=3 n=a#4 v=46
4200 Par ch=3 c=64 v=0
4295 On ch=3 n=a#4 v=0
4295 On ch=3 n=d#4 v=0
4295 On ch=3 n=d#5 v=0
4320 Par ch=3 c=64 v=122
4320 On ch=3 n=g#3 v=46
4535 On ch=3 n=g#3 v=0
4560 On ch=3 n=g#4 v=46
4560 On ch=3 n=d#5 v=46
4780 On ch=3 n=d#5 v=0
4780 On ch=3 n=g#4 v=0
4800 On ch=3 n=g#4 v=46
4800 On ch=3 n=d#5 v=46
5020 On ch=3 n=d#5 v=0
5020 On ch=3 n=g#4 v=0
5040 On ch=3 n=g#4 v=46
5040 On ch=3 n=d#5 v=46
5260 On ch=3 n=d#5 v=0
5260 On ch=3 n=g#4 v=0
5280 On ch=3 n=g#4 v=46
5280 On ch=3 n=d#5 v=46
5500 On ch=3 n=d#5 v=0
5500 On ch=3 n=g#4 v=0
5520 On ch=3 n=g#4 v=46
5520 On ch=3 n=d#5 v=46
5640 Par ch=3 c=64 v=2
5735 On ch=3 n=d#5 v=0
5735 On ch=3 n=g#4 v=0
5760 On ch=3 n=c#4 v=46
5760 Par ch=3 c=64 v=122
5975 On ch=3 n=c#4 v=0
6000 On ch=3 n=g#4 v=46
6000 On ch=3 n=c#5 v=46
6000 On ch=3 n=f5 v=46
6220 On ch=3 n=f5 v=0
6220 On ch=3 n=c#5 v=0
6220 On ch=3 n=g#4 v=0
6240 On ch=3 n=g#4 v=46
6240 On ch=3 n=c#5 v=46
6240 On ch=3 n=f5 v=46
6460 On ch=3 n=f5 v=0
6460 On ch=3 n=c#5 v=0
6460 On ch=3 n=g#4 v=0
6480 On ch=3 n=f5 v=46
6480 On ch=3 n=c#5 v=46
6480 On ch=3 n=g#4 v=46
6700 On ch=3 n=g#4 v=0
6700 On ch=3 n=c#5 v=0
6700 On ch=3 n=f5 v=0
6720 On ch=3 n=g#4 v=46
6720 On ch=3 n=c#5 v=46
6720 On ch=3 n=f5 v=46
6940 On ch=3 n=f5 v=0
6940 On ch=3 n=c#5 v=0
6940 On ch=3 n=g#4 v=0
6960 On ch=3 n=c#5 v=46
6960 On ch=3 n=f5 v=46
6960 On ch=3 n=g#4 v=46
7080 Par ch=3 c=64 v=2
7175 On ch=3 n=g#4 v=0
7175 On ch=3 n=f5 v=0
7175 On ch=3 n=c#5 v=0
7200 On ch=3 n=d#4 v=46
7200 Par ch=3 c=64 v=122
7415 On ch=3 n=d#4 v=0
7440 On ch=3 n=a#4 v=46
7440 On ch=3 n=g5 v=46
7440 On ch=3 n=c#5 v=46
7660 On ch=3 n=c#5 v=0
7660 On ch=3 n=g5 v=0
7660 On ch=3 n=a#4 v=0
7680 On ch=3 n=c#5 v=46
7680 On ch=3 n=a#4 v=46
7680 On ch=3 n=g5 v=46
7800 Par ch=3 c=64 v=0
7895 On ch=3 n=g5 v=0
7895 On ch=3 n=a#4 v=0
7895 On ch=3 n=c#5 v=0
7920 Par ch=3 c=64 v=122
7920 On ch=3 n=c#4 v=46
8135 On ch=3 n=c#4 v=0
8160 On ch=3 n=c#5 v=46
8160 On ch=3 n=g#4 v=46
8160 On ch=3 n=g#5 v=46
8380 On ch=3 n=g#5 v=0
8380 On ch=3 n=g#4 v=0
8380 On ch=3 n=c#5 v=0
8400 On ch=3 n=g#5 v=46
8400 On ch=3 n=c#5 v=46
8400 On ch=3 n=g#4 v=46
8520 Par ch=3 c=64 v=2
8615 On ch=3 n=g#4 v=0
8615 On ch=3 n=c#5 v=0
8615 On ch=3 n=g#5 v=0
8640 Par ch=3 c=64 v=122
8640 On ch=3 n=d#4 v=46
8855 On ch=3 n=d#4 v=0
8880 On ch=3 n=a#4 v=46
8880 On ch=3 n=c#5 v=46
8880 On ch=3 n=g5 v=46
9100 On ch=3 n=g5 v=0
9100 On ch=3 n=c#5 v=0
9100 On ch=3 n=a#4 v=0
9120 On ch=3 n=g5 v=46
9120 On ch=3 n=c#5 v=46
9120 On ch=3 n=a#4 v=46
9340 On ch=3 n=a#4 v=0
9340 On ch=3 n=c#5 v=0
9340 On ch=3 n=g5 v=0
9360 On ch=3 n=c#5 v=46
9360 On ch=3 n=a#4 v=46
9360 On ch=3 n=g5 v=46
9580 On ch=3 n=g5 v=0
9580 On ch=3 n=a#4 v=0
9580 On ch=3 n=c#5 v=0
9600 On ch=3 n=g5 v=46
9600 On ch=3 n=c#5 v=46
9600 On ch=3 n=a#4 v=46
9820 On ch=3 n=a#4 v=0
9820 On ch=3 n=c#5 v=0
9820 On ch=3 n=g5 v=0
9840 On ch=3 n=g5 v=46
9840 On ch=3 n=c#5 v=46
9840 On ch=3 n=a#4 v=46
9960 Par ch=3 c=64 v=2
10055 On ch=3 n=a#4 v=0
10055 On ch=3 n=c#5 v=0
10055 On ch=3 n=g5 v=0
10080 Par ch=3 c=64 v=122
10080 On ch=3 n=f4 v=46
10080 On ch=3 n=f4 v=46
10295 On ch=3 n=f4 v=0
10320 On ch=3 n=c5 v=46
10320 On ch=3 n=f5 v=46
10540 On ch=3 n=f5 v=0
10540 On ch=3 n=c5 v=0
10560 On ch=3 n=c5 v=46
10560 On ch=3 n=f5 v=46
10680 Par ch=3 c=64 v=0
10775 On ch=3 n=f5 v=0
10775 On ch=3 n=c5 v=0
10775 On ch=3 n=f4 v=0
10800 Par ch=3 c=64 v=122
10800 On ch=3 n=a#3 v=46
11015 On ch=3 n=a#3 v=0
11040 On ch=3 n=f5 v=47
11040 On ch=3 n=f4 v=47
11040 On ch=3 n=a#4 v=47
11260 On ch=3 n=a#4 v=0
11260 On ch=3 n=f4 v=0
11260 On ch=3 n=f5 v=0
11280 On ch=3 n=f4 v=47
11280 On ch=3 n=f5 v=47
11280 On ch=3 n=a#4 v=47
11400 Par ch=3 c=64 v=2
11495 On ch=3 n=a#4 v=0
11495 On ch=3 n=f5 v=0
11495 On ch=3 n=f4 v=0
11520 Par ch=3 c=64 v=122
11520 On ch=3 n=d#4 v=47
11520 On ch=3 n=d#4 v=47
11735 On ch=3 n=d#4 v=0
11760 On ch=3 n=a#4 v=47
11760 On ch=3 n=f5 v=47
11975 On ch=3 n=f5 v=0
11980 On ch=3 n=a#4 v=0
12000 On ch=3 n=a#4 v=48
12000 On ch=3 n=d#5 v=48
12120 Par ch=3 c=64 v=0
12215 On ch=3 n=d#5 v=0
12215 On ch=3 n=a#4 v=0
12215 On ch=3 n=d#4 v=0
12240 Par ch=3 c=64 v=122
12240 On ch=3 n=g#3 v=48
12455 On ch=3 n=g#3 v=0
12480 On ch=3 n=d#4 v=48
12480 On ch=3 n=g#4 v=48
12480 On ch=3 n=d#5 v=48
12700 On ch=3 n=d#5 v=0
12700 On ch=3 n=g#4 v=0
12700 On ch=3 n=d#4 v=0
12720 On ch=3 n=d#5 v=48
12720 On ch=3 n=g#4 v=48
12720 On ch=3 n=d#4 v=48
12840 Par ch=3 c=64 v=2
12935 On ch=3 n=d#4 v=0
12935 On ch=3 n=g#4 v=0
12935 On ch=3 n=d#5 v=0
12960 On ch=3 n=d#3 v=48
12960 Par ch=3 c=64 v=122
13175 On ch=3 n=d#3 v=0
13200 On ch=3 n=d#5 v=48
13200 On ch=3 n=d#4 v=48
13420 On ch=3 n=d#4 v=0
13420 On ch=3 n=d#5 v=0
13440 On ch=3 n=d#5 v=48
13440 On ch=3 n=d#4 v=48
13660 On ch=3 n=d#4 v=0
13660 On ch=3 n=d#5 v=0
13680 On ch=3 n=d#4 v=48
13680 On ch=3 n=d#5 v=48
13900 On ch=3 n=d#5 v=0
13900 On ch=3 n=d#4 v=0
13920 On ch=3 n=d#4 v=48
13920 On ch=3 n=d#5 v=48
14140 On ch=3 n=d#5 v=0
14140 On ch=3 n=d#4 v=0
14160 On ch=3 n=d#5 v=49
14160 On ch=3 n=d#4 v=49
14280 Par ch=3 c=64 v=2
14375 On ch=3 n=d#4 v=0
14375 On ch=3 n=d#5 v=0
14400 On ch=3 n=d#3 v=91
14400 Par ch=3 c=64 v=122
14615 On ch=3 n=d#3 v=0
14640 On ch=3 n=a#4 v=91
14640 On ch=3 n=d#5 v=91
14640 On ch=3 n=d#4 v=91
14860 On ch=3 n=d#4 v=0
14860 On ch=3 n=d#5 v=0
14860 On ch=3 n=a#4 v=0
14880 On ch=3 n=d#5 v=91
14880 On ch=3 n=a#4 v=91
14880 On ch=3 n=d#4 v=91
15100 On ch=3 n=d#4 v=0
15100 On ch=3 n=a#4 v=0
15100 On ch=3 n=d#5 v=0
15120 On ch=3 n=a#4 v=91
15120 On ch=3 n=d#4 v=91
15120 On ch=3 n=d#5 v=91
15340 On ch=3 n=d#5 v=0
15340 On ch=3 n=d#4 v=0
15340 On ch=3 n=a#4 v=0
15360 On ch=3 n=d#4 v=91
15360 On ch=3 n=a#4 v=91
15360 On ch=3 n=d#5 v=91
15580 On ch=3 n=d#5 v=0
15580 On ch=3 n=a#4 v=0
15580 On ch=3 n=d#4 v=0
15600 On ch=3 n=d#4 v=91
15600 On ch=3 n=a#4 v=91
15600 On ch=3 n=d#5 v=91
15720 Par ch=3 c=64 v=2
15815 On ch=3 n=d#5 v=0
15815 On ch=3 n=a#4 v=0
15815 On ch=3 n=d#4 v=0
15840 Par ch=3 c=64 v=122
15840 On ch=3 n=g#3 v=91
16055 On ch=3 n=g#3 v=0
16080 On ch=3 n=d#5 v=91
16080 On ch=3 n=g#4 v=91
16080 On ch=3 n=d#4 v=91
16300 On ch=3 n=d#4 v=0
16300 On ch=3 n=g#4 v=0
16300 On ch=3 n=d#5 v=0
16320 On ch=3 n=g#4 v=91
16320 On ch=3 n=d#4 v=91
16320 On ch=3 n=d#5 v=91
16540 On ch=3 n=d#5 v=0
16540 On ch=3 n=d#4 v=0
16540 On ch=3 n=g#4 v=0
16560 On ch=3 n=d#4 v=91
16560 On ch=3 n=g#4 v=91
16560 On ch=3 n=d#5 v=91
16780 On ch=3 n=d#5 v=0
16780 On ch=3 n=g#4 v=0
16780 On ch=3 n=d#4 v=0
16800 On ch=3 n=g#4 v=91
16800 On ch=3 n=d#5 v=91
16800 On ch=3 n=d#4 v=91
17020 On ch=3 n=d#4 v=0
17020 On ch=3 n=d#5 v=0
17020 On ch=3 n=g#4 v=0
17040 On ch=3 n=d#4 v=91
17040 On ch=3 n=d#5 v=91
17040 On ch=3 n=g#4 v=91
17160 Par ch=3 c=64 v=2
17255 On ch=3 n=g#4 v=0
17255 On ch=3 n=d#5 v=0
17255 On ch=3 n=d#4 v=0
17280 Par ch=3 c=64 v=122
17280 On ch=3 n=c#3 v=91
17495 On ch=3 n=c#3 v=0
17520 On ch=3 n=c#5 v=91
17520 On ch=3 n=f5 v=91
17520 On ch=3 n=g#4 v=91
17520 On ch=3 n=f4 v=91
17740 On ch=3 n=f4 v=0
17740 On ch=3 n=g#4 v=0
17740 On ch=3 n=f5 v=0
17740 On ch=3 n=c#5 v=0
17760 On ch=3 n=f5 v=91
17760 On ch=3 n=c#5 v=91
17760 On ch=3 n=f4 v=91
17760 On ch=3 n=g#4 v=91
17980 On ch=3 n=g#4 v=0
17980 On ch=3 n=f4 v=0
17980 On ch=3 n=c#5 v=0
17980 On ch=3 n=f5 v=0
18000 On ch=3 n=f4 v=91
18000 On ch=3 n=c#5 v=91
18000 On ch=3 n=f5 v=91
18000 On ch=3 n=g#4 v=91
18220 On ch=3 n=g#4 v=0
18220 On ch=3 n=f5 v=0
18220 On ch=3 n=c#5 v=0
18220 On ch=3 n=f4 v=0
18240 On ch=3 n=g#4 v=91
18240 On ch=3 n=f4 v=91
18240 On ch=3 n=f5 v=91
18240 On ch=3 n=c#5 v=91
18460 On ch=3 n=c#5 v=0
18460 On ch=3 n=f5 v=0
18460 On ch=3 n=f4 v=0
18460 On ch=3 n=g#4 v=0
18480 On ch=3 n=f5 v=91
18480 On ch=3 n=c#5 v=91
18480 On ch=3 n=g#4 v=91
18480 On ch=3 n=f4 v=91
18600 Par ch=3 c=64 v=2
18695 On ch=3 n=f4 v=0
18695 On ch=3 n=g#4 v=0
18695 On ch=3 n=c#5 v=0
18695 On ch=3 n=f5 v=0
18720 Par ch=3 c=64 v=122
18720 On ch=3 n=d#4 v=91
18935 On ch=3 n=d#4 v=0
18960 On ch=3 n=c#5 v=91
18960 On ch=3 n=g5 v=91
18960 On ch=3 n=a#4 v=91
19180 On ch=3 n=a#4 v=0
19180 On ch=3 n=g5 v=0
19180 On ch=3 n=c#5 v=0
19200 On ch=3 n=c#5 v=91
19200 On ch=3 n=g5 v=91
19200 On ch=3 n=a#4 v=91
19320 Par ch=3 c=64 v=0
19415 On ch=3 n=a#4 v=0
19415 On ch=3 n=g5 v=0
19415 On ch=3 n=c#5 v=0
19440 On ch=3 n=c#4 v=91
19440 Par ch=3 c=64 v=122
19655 On ch=3 n=c#4 v=0
19680 On ch=3 n=c#5 v=91
19680 On ch=3 n=g#4 v=91
19680 On ch=3 n=g#5 v=91
19900 On ch=3 n=g#5 v=0
19900 On ch=3 n=g#4 v=0
19900 On ch=3 n=c#5 v=0
19920 On ch=3 n=g#4 v=91
19920 On ch=3 n=c#5 v=91
19920 On ch=3 n=g#5 v=91
20040 Par ch=3 c=64 v=2
20135 On ch=3 n=g#5 v=0
20135 On ch=3 n=c#5 v=0
20135 On ch=3 n=g#4 v=0
20160 Par ch=3 c=64 v=122
20160 On ch=3 n=d#4 v=91
20375 On ch=3 n=d#4 v=0
20400 On ch=3 n=g5 v=91
20400 On ch=3 n=c#5 v=91
20400 On ch=3 n=a#4 v=91
20620 On ch=3 n=a#4 v=0
20620 On ch=3 n=c#5 v=0
20620 On ch=3 n=g5 v=0
20640 On ch=3 n=g5 v=91
20640 On ch=3 n=a#4 v=91
20640 On ch=3 n=c#5 v=91
20860 On ch=3 n=c#5 v=0
20860 On ch=3 n=a#4 v=0
20860 On ch=3 n=g5 v=0
20880 On ch=3 n=a#4 v=91
20880 On ch=3 n=c#5 v=91
20880 On ch=3 n=d#5 v=91
20880 On ch=3 n=g5 v=91
21100 On ch=3 n=g5 v=0
21100 On ch=3 n=d#5 v=0
21100 On ch=3 n=c#5 v=0
21100 On ch=3 n=a#4 v=0
21120 On ch=3 n=c#5 v=91
21120 On ch=3 n=d#5 v=91
21120 On ch=3 n=a#4 v=91
21120 On ch=3 n=g5 v=91
21335 On ch=3 n=d#5 v=0
21340 On ch=3 n=g5 v=0
21340 On ch=3 n=a#4 v=0
21340 On ch=3 n=c#5 v=0
21360 On ch=3 n=a#4 v=91
21360 On ch=3 n=g5 v=91
21360 On ch=3 n=c#5 v=91
21480 Par ch=3 c=64 v=2
21575 On ch=3 n=c#5 v=0
21575 On ch=3 n=g5 v=0
21575 On ch=3 n=a#4 v=0
21600 Par ch=3 c=64 v=122
21600 On ch=3 n=f3 v=91
21815 On ch=3 n=f3 v=0
21840 On ch=3 n=f4 v=91
21840 On ch=3 n=c5 v=91
21840 On ch=3 n=f5 v=91
22060 On ch=3 n=f5 v=0
22060 On ch=3 n=c5 v=0
22060 On ch=3 n=f4 v=0
22080 On ch=3 n=f5 v=91
22080 On ch=3 n=c5 v=91
22080 On ch=3 n=f4 v=91
22200 Par ch=3 c=64 v=0
22295 On ch=3 n=f4 v=0
22295 On ch=3 n=c5 v=0
22295 On ch=3 n=f5 v=0
22320 Par ch=3 c=64 v=122
22320 On ch=3 n=a#3 v=91
22535 On ch=3 n=a#3 v=0
22560 On ch=3 n=f4 v=91
22560 On ch=3 n=a#4 v=91
22560 On ch=3 n=f5 v=91
22780 On ch=3 n=f5 v=0
22780 On ch=3 n=a#4 v=0
22780 On ch=3 n=f4 v=0
22800 On ch=3 n=a#4 v=91
22800 On ch=3 n=f4 v=91
22800 On ch=3 n=f5 v=91
22920 Par ch=3 c=64 v=2
23015 On ch=3 n=f5 v=0
23015 On ch=3 n=f4 v=0
23015 On ch=3 n=a#4 v=0
23040 On ch=3 n=d#4 v=91
23040 Par ch=3 c=64 v=120
23255 On ch=3 n=d#4 v=0
23280 On ch=3 n=f5 v=91
23280 On ch=3 n=f4 v=91
23280 On ch=3 n=a#4 v=91
23500 On ch=3 n=a#4 v=0
23500 On ch=3 n=f4 v=0
23500 On ch=3 n=f5 v=0
23520 On ch=3 n=f4 v=91
23520 On ch=3 n=a#4 v=91
23520 On ch=3 n=f5 v=91
23640 Par ch=3 c=64 v=2
23735 On ch=3 n=f5 v=0
23735 On ch=3 n=a#4 v=0
23735 On ch=3 n=f4 v=0
23760 On ch=3 n=d#3 v=92
23760 Par ch=3 c=64 v=120
23975 On ch=3 n=d#3 v=0
24000 On ch=3 n=d#4 v=91
24000 On ch=3 n=a#4 v=91
24000 On ch=3 n=d#5 v=91
24220 On ch=3 n=d#5 v=0
24220 On ch=3 n=a#4 v=0
24220 On ch=3 n=d#4 v=0
24240 On ch=3 n=a#4 v=91
24240 On ch=3 n=d#4 v=91
24240 On ch=3 n=d#5 v=91
24360 Par ch=3 c=64 v=2
24455 On ch=3 n=d#5 v=0
24455 On ch=3 n=d#4 v=0
24455 On ch=3 n=a#4 v=0
24480 On ch=3 n=g#3 v=92
24480 Par ch=3 c=64 v=122
24695 On ch=3 n=g#3 v=0
24720 On ch=3 n=g#4 v=90
24720 On ch=3 n=d#4 v=90
24720 On ch=3 n=d#5 v=90
24940 On ch=3 n=d#5 v=0
24940 On ch=3 n=d#4 v=0
24940 On ch=3 n=g#4 v=0
24960 On ch=3 n=d#5 v=79
24960 On ch=3 n=d#4 v=79
24960 On ch=3 n=g#4 v=79
25180 On ch=3 n=g#4 v=0
25180 On ch=3 n=d#4 v=0
25180 On ch=3 n=d#5 v=0
25200 On ch=3 n=d#4 v=68
25200 On ch=3 n=d#5 v=68
25200 On ch=3 n=g#4 v=68
25420 On ch=3 n=g#4 v=0
25420 On ch=3 n=d#5 v=0
25420 On ch=3 n=d#4 v=0
25440 On ch=3 n=g#4 v=58
25440 On ch=3 n=d#5 v=58
25440 On ch=3 n=d#4 v=58
25660 On ch=3 n=d#4 v=0
25660 On ch=3 n=d#5 v=0
25660 On ch=3 n=g#4 v=0
25680 On ch=3 n=d#5 v=51
25680 On ch=3 n=g#4 v=51
25680 On ch=3 n=d#4 v=51
25800 Par ch=3 c=64 v=2
25895 On ch=3 n=d#4 v=0
25895 On ch=3 n=g#4 v=0
25895 On ch=3 n=d#5 v=0
25920 On ch=3 n=e3 v=48
25920 Par ch=3 c=64 v=122
26135 On ch=3 n=e3 v=0
26160 On ch=3 n=e5 v=48
26160 On ch=3 n=b4 v=48
26160 On ch=3 n=e4 v=48
26380 On ch=3 n=e4 v=0
26380 On ch=3 n=b4 v=0
26380 On ch=3 n=e5 v=0
26400 On ch=3 n=e4 v=48
26400 On ch=3 n=b4 v=48
26400 On ch=3 n=e5 v=48
26520 Par ch=3 c=64 v=0
26620 On ch=3 n=e5 v=0
26620 On ch=3 n=b4 v=0
26620 On ch=3 n=e4 v=0
26640 On ch=3 n=e4 v=48
26640 Par ch=3 c=64 v=122
26640 On ch=3 n=e5 v=48
26640 On ch=3 n=b4 v=48
26860 On ch=3 n=b4 v=0
26860 On ch=3 n=e5 v=0
26860 On ch=3 n=e4 v=0
26880 On ch=3 n=e5 v=48
26880 On ch=3 n=b4 v=48
26880 On ch=3 n=e4 v=48
27095 On ch=3 n=e5 v=0
27100 On ch=3 n=e4 v=0
27100 On ch=3 n=b4 v=0
27120 On ch=3 n=b4 v=48
27120 On ch=3 n=e4 v=48
27240 Par ch=3 c=64 v=2
27335 On ch=3 n=e4 v=0
27335 On ch=3 n=b4 v=0
27360 Par ch=3 c=64 v=123
27360 On ch=3 n=a3 v=48
27575 On ch=3 n=a3 v=0
27600 On ch=3 n=e4 v=51
27600 On ch=3 n=e5 v=51
27600 On ch=3 n=a4 v=51
27760 Par ch=3 c=64 v=1
27800 Par ch=3 c=64 v=0
27815 On ch=3 n=e5 v=0
27815 On ch=3 n=e4 v=0
27820 On ch=3 n=a4 v=0
27840 Par ch=3 c=64 v=123
27840 On ch=3 n=f5 v=53
27840 On ch=3 n=f4 v=53
27840 On ch=3 n=a4 v=53
28060 On ch=3 n=a4 v=0
28060 On ch=3 n=f4 v=0
28060 On ch=3 n=f5 v=0
28080 On ch=3 n=a4 v=57
28080 On ch=3 n=f5 v=57
28080 On ch=3 n=f4 v=57
28240 Par ch=3 c=64 v=1
28295 On ch=3 n=f4 v=0
28295 On ch=3 n=f5 v=0
28300 On ch=3 n=a4 v=0
28320 On ch=3 n=f#4 v=59
28320 On ch=3 n=a4 v=59
28320 Par ch=3 c=64 v=123
28320 On ch=3 n=f#5 v=59
28535 On ch=3 n=f#5 v=0
28535 On ch=3 n=f#4 v=0
28540 On ch=3 n=a4 v=0
28560 On ch=3 n=g5 v=60
28560 On ch=3 n=a4 v=60
28560 On ch=3 n=g4 v=60
28680 Par ch=3 c=64 v=2
28775 On ch=3 n=g4 v=0
28775 On ch=3 n=a4 v=0
28775 On ch=3 n=g5 v=0
28800 Par ch=3 c=64 v=123
28800 On ch=3 n=g#3 v=63
29015 On ch=3 n=g#3 v=0
29040 On ch=3 n=f#5 v=67
29040 On ch=3 n=g#4 v=67
29040 On ch=3 n=d#5 v=67
29200 Par ch=3 c=64 v=1
29240 Par ch=3 c=64 v=0
29260 On ch=3 n=d#5 v=0
29260 On ch=3 n=g#4 v=0
29260 On ch=3 n=f#5 v=0
29280 On ch=3 n=d#5 v=68
29280 Par ch=3 c=64 v=123
29280 On ch=3 n=f#5 v=68
29280 On ch=3 n=g#4 v=68
29500 On ch=3 n=g#4 v=0
29500 On ch=3 n=f#5 v=0
29500 On ch=3 n=d#5 v=0
29520 On ch=3 n=d#5 v=69
29520 On ch=3 n=g#4 v=69
29520 On ch=3 n=f#5 v=69
29680 Par ch=3 c=64 v=1
29740 On ch=3 n=f#5 v=0
29740 On ch=3 n=g#4 v=0
29740 On ch=3 n=d#5 v=0
29760 On ch=3 n=f#5 v=74
29760 Par ch=3 c=64 v=123
29760 On ch=3 n=g#4 v=74
29760 On ch=3 n=d#5 v=74
29980 On ch=3 n=d#5 v=0
29980 On ch=3 n=g#4 v=0
29980 On ch=3 n=f#5 v=0
30000 On ch=3 n=g#4 v=78
30000 On ch=3 n=d#5 v=78
30000 On ch=3 n=f#5 v=78
30120 Par ch=3 c=64 v=2
30215 On ch=3 n=f#5 v=0
30215 On ch=3 n=d#5 v=0
30215 On ch=3 n=g#4 v=0
30240 Par ch=3 c=64 v=123
30240 On ch=3 n=c#4 v=80
30455 On ch=3 n=c#4 v=0
30480 On ch=3 n=c#5 v=84
30480 On ch=3 n=g4 v=84
30480 On ch=3 n=g5 v=84
30640 Par ch=3 c=64 v=1
30680 Par ch=3 c=64 v=0
30695 On ch=3 n=g5 v=0
30695 On ch=3 n=g4 v=0
30700 On ch=3 n=c#5 v=0
30720 On ch=3 n=c#5 v=87
30720 Par ch=3 c=64 v=123
30720 On ch=3 n=g#4 v=87
30720 On ch=3 n=g#5 v=87
30940 On ch=3 n=g#5 v=0
30940 On ch=3 n=g#4 v=0
30940 On ch=3 n=c#5 v=0
30960 On ch=3 n=g#5 v=90
30960 On ch=3 n=c#5 v=90
30960 On ch=3 n=g#4 v=90
31120 Par ch=3 c=64 v=1
31175 On ch=3 n=g#4 v=0
31175 On ch=3 n=g#5 v=0
31180 On ch=3 n=c#5 v=0
31200 On ch=3 n=a5 v=91
31200 Par ch=3 c=64 v=123
31200 On ch=3 n=a4 v=91
31200 On ch=3 n=c#5 v=91
31415 On ch=3 n=c#5 v=0
31415 On ch=3 n=a4 v=0
31415 On ch=3 n=a5 v=0
31440 On ch=3 n=a#4 v=95
31440 On ch=3 n=c5 v=95
31440 On ch=3 n=a#5 v=95
31560 Par ch=3 c=64 v=2
31655 On ch=3 n=a#5 v=0
31655 On ch=3 n=c5 v=0
31655 On ch=3 n=a#4 v=0
31680 Par ch=3 c=64 v=123
31680 On ch=3 n=b3 v=97
31895 On ch=3 n=b3 v=0
31920 On ch=3 n=b4 v=100
31920 On ch=3 n=a5 v=100
31920 On ch=3 n=f#5 v=100
32080 Par ch=3 c=64 v=1
32120 Par ch=3 c=64 v=0
32140 On ch=3 n=f#5 v=0
32140 On ch=3 n=a5 v=0
32140 On ch=3 n=b4 v=0
32160 On ch=3 n=b4 v=103
32160 On ch=3 n=d#5 v=103
32160 On ch=3 n=f#5 v=103
32160 On ch=3 n=a5 v=103
32160 Par ch=3 c=64 v=123
32380 On ch=3 n=a5 v=0
32380 On ch=3 n=f#5 v=0
32380 On ch=3 n=d#5 v=0
32380 On ch=3 n=b4 v=0
32400 On ch=3 n=a5 v=106
32400 On ch=3 n=d#5 v=106
32400 On ch=3 n=b4 v=106
32400 On ch=3 n=f#5 v=106
32560 Par ch=3 c=64 v=1
32615 On ch=3 n=d#5 v=0
32620 On ch=3 n=f#5 v=0
32620 On ch=3 n=b4 v=0
32620 On ch=3 n=a5 v=0
32640 On ch=3 n=c#5 v=109
32640 On ch=3 n=f#5 v=109
32640 On ch=3 n=a5 v=109
32640 Par ch=3 c=64 v=123
32640 On ch=3 n=b4 v=109
32855 On ch=3 n=c#5 v=0
32860 On ch=3 n=b4 v=0
32860 On ch=3 n=a5 v=0
32860 On ch=3 n=f#5 v=0
32880 On ch=3 n=a5 v=109
32880 On ch=3 n=f#5 v=109
32880 On ch=3 n=d#5 v=109
32880 On ch=3 n=b4 v=109
33000 Par ch=3 c=64 v=2
33095 On ch=3 n=b4 v=0
33095 On ch=3 n=d#5 v=0
33095 On ch=3 n=f#5 v=0
33095 On ch=3 n=a5 v=0
33120 Par ch=3 c=64 v=122
33120 On ch=3 n=e4 v=107
33335 On ch=3 n=e4 v=0
33360 On ch=3 n=e5 v=104
33360 On ch=3 n=b5 v=104
33360 On ch=3 n=b4 v=104
33575 On ch=3 n=b4 v=0
33575 On ch=3 n=b5 v=0
33580 On ch=3 n=e5 v=0
33600 On ch=3 n=e5 v=102
33600 On ch=3 n=a#4 v=102
33600 On ch=3 n=a#5 v=102
33720 Par ch=3 c=64 v=0
33815 On ch=3 n=a#5 v=0
33815 On ch=3 n=a#4 v=0
33815 On ch=3 n=e5 v=0
33840 On ch=3 n=d#4 v=98
33840 Par ch=3 c=64 v=122
34055 On ch=3 n=d#4 v=0
34080 On ch=3 n=d#5 v=95
34080 On ch=3 n=a#4 v=95
34080 On ch=3 n=a#5 v=95
34300 On ch=3 n=a#5 v=0
34300 On ch=3 n=a#4 v=0
34300 On ch=3 n=d#5 v=0
34320 On ch=3 n=a#4 v=91
34320 On ch=3 n=d#5 v=91
34320 On ch=3 n=a#5 v=91
34440 Par ch=3 c=64 v=2
34535 On ch=3 n=a#5 v=0
34535 On ch=3 n=d#5 v=0
34535 On ch=3 n=a#4 v=0
34560 On ch=3 n=d4 v=87
34560 Par ch=3 c=64 v=122
34775 On ch=3 n=d4 v=0
34800 On ch=3 n=a5 v=84
34800 On ch=3 n=d5 v=84
34800 On ch=3 n=a4 v=84
35015 On ch=3 n=a4 v=0
35015 On ch=3 n=a5 v=0
35020 On ch=3 n=d5 v=0
35040 On ch=3 n=g#4 v=81
35040 On ch=3 n=g#5 v=81
35040 On ch=3 n=d5 v=81
35160 Par ch=3 c=64 v=0
35255 On ch=3 n=d5 v=0
35255 On ch=3 n=g#5 v=0
35255 On ch=3 n=g#4 v=0
35280 On ch=3 n=c#4 v=76
35280 Par ch=3 c=64 v=122
35495 On ch=3 n=c#4 v=0
35520 On ch=3 n=c#5 v=71
35520 On ch=3 n=g#4 v=71
35520 On ch=3 n=g#5 v=71
35740 On ch=3 n=g#5 v=0
35740 On ch=3 n=g#4 v=0
35740 On ch=3 n=c#5 v=0
35760 On ch=3 n=c#5 v=68
35760 On ch=3 n=g#5 v=68
35760 On ch=3 n=g#4 v=68
35880 Par ch=3 c=64 v=2
35975 On ch=3 n=g#4 v=0
35975 On ch=3 n=g#5 v=0
35975 On ch=3 n=c#5 v=0
36000 Par ch=3 c=64 v=122
36000 On ch=3 n=c4 v=67
36215 On ch=3 n=c4 v=0
36240 On ch=3 n=c5 v=78
36240 On ch=3 n=g5 v=78
36240 On ch=3 n=g4 v=78
36455 On ch=3 n=g4 v=0
36455 On ch=3 n=g5 v=0
36460 On ch=3 n=c5 v=0
36480 On ch=3 n=f#5 v=90
36480 On ch=3 n=f#4 v=90
36480 On ch=3 n=c5 v=90
36600 Par ch=3 c=64 v=0
36695 On ch=3 n=c5 v=0
36695 On ch=3 n=f#4 v=0
36695 On ch=3 n=f#5 v=0
36720 Par ch=3 c=64 v=122
36720 On ch=3 n=b3 v=104
36935 On ch=3 n=b3 v=0
36960 On ch=3 n=b5 v=95
36960 On ch=3 n=b4 v=95
36960 On ch=3 n=e5 v=95
37175 On ch=3 n=e5 v=0
37175 On ch=3 n=b5 v=0
37180 On ch=3 n=b4 v=0
37200 On ch=3 n=b4 v=86
37200 On ch=3 n=a5 v=86
37200 On ch=3 n=d#5 v=86
37320 Par ch=3 c=64 v=2
37415 On ch=3 n=d#5 v=0
37415 On ch=3 n=a5 v=0
37415 On ch=3 n=b4 v=0
37440 On ch=3 n=e3 v=74
37440 Par ch=3 c=64 v=120
37655 On ch=3 n=e3 v=0
37680 On ch=3 n=g#5 v=67
37680 On ch=3 n=g#4 v=67
37680 On ch=3 n=b4 v=67
37900 On ch=3 n=b4 v=0
37900 On ch=3 n=g#4 v=0
37900 On ch=3 n=g#5 v=0
37920 On ch=3 n=g#5 v=73
37920 On ch=3 n=g#4 v=73
37920 On ch=3 n=b4 v=73
38140 On ch=3 n=b4 v=0
38140 On ch=3 n=g#4 v=0
38140 On ch=3 n=g#5 v=0
38160 On ch=3 n=g#5 v=79
38160 On ch=3 n=g#4 v=79
38160 On ch=3 n=b4 v=79
38380 On ch=3 n=b4 v=0
38380 On ch=3 n=g#4 v=0
38380 On ch=3 n=g#5 v=0
38400 On ch=3 n=g#5 v=87
38400 On ch=3 n=b4 v=87
38400 On ch=3 n=g#4 v=87
38620 On ch=3 n=g#4 v=0
38620 On ch=3 n=b4 v=0
38620 On ch=3 n=g#5 v=0
38640 On ch=3 n=g#4 v=95
38640 On ch=3 n=g#5 v=95
38640 On ch=3 n=b4 v=95
38760 Par ch=3 c=64 v=2
38855 On ch=3 n=b4 v=0
38855 On ch=3 n=g#5 v=0
38855 On ch=3 n=g#4 v=0
38880 Par ch=3 c=64 v=120
38880 On ch=3 n=e4 v=102
39095 On ch=3 n=e4 v=0
39120 On ch=3 n=c5 v=67
39120 On ch=3 n=a4 v=67
39120 On ch=3 n=a5 v=67
39340 On ch=3 n=a5 v=0
39340 On ch=3 n=a4 v=0
39340 On ch=3 n=c5 v=0
39360 On ch=3 n=a4 v=86
39360 On ch=3 n=a5 v=86
39360 On ch=3 n=c5 v=86
39580 On ch=3 n=c5 v=0
39580 On ch=3 n=a5 v=0
39580 On ch=3 n=a4 v=0
39600 On ch=3 n=c5 v=103
39600 On ch=3 n=a4 v=103
39600 On ch=3 n=a5 v=103
39820 On ch=3 n=a5 v=0
39820 On ch=3 n=a4 v=0
39820 On ch=3 n=c5 v=0
39840 On ch=3 n=a5 v=90
39840 On ch=3 n=c5 v=90
39840 On ch=3 n=a4 v=90
40060 On ch=3 n=a4 v=0
40060 On ch=3 n=c5 v=0
40060 On ch=3 n=a5 v=0
40080 On ch=3 n=a4 v=78
40080 On ch=3 n=c5 v=78
40080 On ch=3 n=a5 v=78
40200 Par ch=3 c=64 v=2
40295 On ch=3 n=a5 v=0
40295 On ch=3 n=c5 v=0
40295 On ch=3 n=a4 v=0
40320 Par ch=3 c=64 v=120
40320 On ch=3 n=e3 v=69
40535 On ch=3 n=e3 v=0
40560 On ch=3 n=g#4 v=64
40560 On ch=3 n=g#5 v=64
40560 On ch=3 n=b4 v=64
40780 On ch=3 n=b4 v=0
40780 On ch=3 n=g#5 v=0
40780 On ch=3 n=g#4 v=0
40800 On ch=3 n=b4 v=64
40800 On ch=3 n=g#5 v=64
40800 On ch=3 n=g#4 v=64
41020 On ch=3 n=g#4 v=0
41020 On ch=3 n=g#5 v=0
41020 On ch=3 n=b4 v=0
41040 On ch=3 n=b4 v=64
41040 On ch=3 n=g#4 v=64
41040 On ch=3 n=g#5 v=64
41260 On ch=3 n=g#5 v=0
41260 On ch=3 n=g#4 v=0
41260 On ch=3 n=b4 v=0
41280 On ch=3 n=g#5 v=64
41280 On ch=3 n=b4 v=64
41280 On ch=3 n=g#4 v=64
41500 On ch=3 n=g#4 v=0
41500 On ch=3 n=b4 v=0
41500 On ch=3 n=g#5 v=0
41520 On ch=3 n=g#4 v=64
41520 On ch=3 n=g#5 v=64
41520 On ch=3 n=b4 v=64
41640 Par ch=3 c=64 v=2
41735 On ch=3 n=b4 v=0
41735 On ch=3 n=g#5 v=0
41735 On ch=3 n=g#4 v=0
41760 Par ch=3 c=64 v=120
41760 On ch=3 n=e4 v=69
41975 On ch=3 n=e4 v=0
42000 On ch=3 n=a4 v=81
42000 On ch=3 n=c5 v=81
42000 On ch=3 n=a5 v=81
42220 On ch=3 n=a5 v=0
42220 On ch=3 n=c5 v=0
42220 On ch=3 n=a4 v=0
42240 On ch=3 n=c5 v=93
42240 On ch=3 n=a5 v=93
42240 On ch=3 n=a4 v=93
42460 On ch=3 n=a4 v=0
42460 On ch=3 n=a5 v=0
42460 On ch=3 n=c5 v=0
42480 On ch=3 n=c5 v=107
42480 On ch=3 n=a5 v=107
42480 On ch=3 n=a4 v=107
42700 On ch=3 n=a4 v=0
42700 On ch=3 n=a5 v=0
42700 On ch=3 n=c5 v=0
42720 On ch=3 n=c5 v=91
42720 On ch=3 n=a5 v=91
42720 On ch=3 n=a4 v=91
42940 On ch=3 n=a4 v=0
42940 On ch=3 n=a5 v=0
42940 On ch=3 n=c5 v=0
42960 On ch=3 n=a4 v=75
42960 On ch=3 n=a5 v=75
42960 On ch=3 n=c5 v=75
43080 Par ch=3 c=64 v=2
43175 On ch=3 n=c5 v=0
43175 On ch=3 n=a5 v=0
43175 On ch=3 n=a4 v=0
43200 On ch=3 n=e3 v=63
43200 Par ch=3 c=64 v=120
43415 On ch=3 n=e3 v=0
43440 On ch=3 n=b4 v=64
43440 On ch=3 n=g#4 v=64
43440 On ch=3 n=g#5 v=64
43660 On ch=3 n=g#5 v=0
43660 On ch=3 n=g#4 v=0
43660 On ch=3 n=b4 v=0
43680 On ch=3 n=b4 v=69
43680 On ch=3 n=g#5 v=69
43680 On ch=3 n=g#4 v=69
43900 On ch=3 n=g#4 v=0
43900 On ch=3 n=g#5 v=0
43900 On ch=3 n=b4 v=0
43920 On ch=3 n=g#5 v=70
43920 On ch=3 n=b4 v=70
43920 On ch=3 n=g#4 v=70
44140 On ch=3 n=g#4 v=0
44140 On ch=3 n=b4 v=0
44140 On ch=3 n=g#5 v=0
44160 On ch=3 n=g#4 v=74
44160 On ch=3 n=b4 v=74
44160 On ch=3 n=g#5 v=74
44380 On ch=3 n=g#5 v=0
44380 On ch=3 n=b4 v=0
44380 On ch=3 n=g#4 v=0
44400 On ch=3 n=g#5 v=76
44400 On ch=3 n=g#4 v=76
44400 On ch=3 n=b4 v=76
44520 Par ch=3 c=64 v=2
44620 On ch=3 n=b4 v=0
44620 On ch=3 n=g#4 v=0
44620 On ch=3 n=g#5 v=0
44640 On ch=3 n=g#4 v=79
44640 On ch=3 n=g#5 v=79
44640 On ch=3 n=b4 v=79
44640 Par ch=3 c=64 v=120
44860 On ch=3 n=b4 v=0
44860 On ch=3 n=g#5 v=0
44860 On ch=3 n=g#4 v=0
44880 On ch=3 n=g#5 v=82
44880 On ch=3 n=b4 v=82
44880 On ch=3 n=g#4 v=82
45100 On ch=3 n=g#4 v=0
45100 On ch=3 n=b4 v=0
45100 On ch=3 n=g#5 v=0
45120 On ch=3 n=g#5 v=85
45120 On ch=3 n=g#4 v=85
45120 On ch=3 n=b4 v=85
45340 On ch=3 n=b4 v=0
45340 On ch=3 n=g#4 v=0
45340 On ch=3 n=g#5 v=0
45360 On ch=3 n=b4 v=86
45360 On ch=3 n=g#5 v=86
45360 On ch=3 n=g#4 v=86
45580 On ch=3 n=g#4 v=0
45580 On ch=3 n=g#5 v=0
45580 On ch=3 n=b4 v=0
45600 On ch=3 n=g#4 v=89
45600 On ch=3 n=g#5 v=89
45600 On ch=3 n=b4 v=89
45820 On ch=3 n=b4 v=0
45820 On ch=3 n=g#5 v=0
45820 On ch=3 n=g#4 v=0
45840 On ch=3 n=b4 v=91
45840 On ch=3 n=g#4 v=91
45840 On ch=3 n=g#5 v=91
45960 Par ch=3 c=64 v=2
46060 On ch=3 n=g#5 v=0
46060 On ch=3 n=g#4 v=0
46060 On ch=3 n=b4 v=0
46080 On ch=3 n=g#4 v=92
46080 On ch=3 n=g#5 v=92
46080 Par ch=3 c=64 v=120
46080 On ch=3 n=b4 v=92
46300 On ch=3 n=b4 v=0
46300 On ch=3 n=g#5 v=0
46300 On ch=3 n=g#4 v=0
46320 On ch=3 n=g#5 v=95
46320 On ch=3 n=g#4 v=95
46320 On ch=3 n=b4 v=95
46540 On ch=3 n=b4 v=0
46540 On ch=3 n=g#4 v=0
46540 On ch=3 n=g#5 v=0
46560 On ch=3 n=g#5 v=97
46560 On ch=3 n=b4 v=97
46560 On ch=3 n=g#4 v=97
46780 On ch=3 n=g#4 v=0
46780 On ch=3 n=b4 v=0
46780 On ch=3 n=g#5 v=0
46800 On ch=3 n=g#4 v=101
46800 On ch=3 n=b4 v=101
46800 On ch=3 n=g#5 v=101
47020 On ch=3 n=g#5 v=0
47020 On ch=3 n=b4 v=0
47020 On ch=3 n=g#4 v=0
47040 On ch=3 n=g#4 v=104
47040 On ch=3 n=g#5 v=104
47040 On ch=3 n=b4 v=104
47260 On ch=3 n=b4 v=0
47260 On ch=3 n=g#5 v=0
47260 On ch=3 n=g#4 v=0
47280 On ch=3 n=g#4 v=106
47280 On ch=3 n=g#5 v=106
47280 On ch=3 n=b4 v=106
47400 Par ch=3 c=64 v=2
47500 On ch=3 n=b4 v=0
47500 On ch=3 n=g#5 v=0
47500 On ch=3 n=g#4 v=0
47520 On ch=3 n=b4 v=108
47520 On ch=3 n=g#4 v=108
47520 On ch=3 n=g#5 v=108
47520 Par ch=3 c=64 v=120
47735 On ch=3 n=g#5 v=0
47735 On ch=3 n=g#4 v=0
47735 On ch=3 n=b4 v=0
47760 On ch=3 n=f4 v=112
47760 On ch=3 n=f3 v=112
47975 On ch=3 n=f3 v=0
47975 On ch=3 n=f4 v=0
48000 On ch=3 n=d3 v=117
48000 On ch=3 n=d4 v=117
48120 Par ch=3 c=64 v=1
48215 On ch=3 n=d4 v=0
48215 On ch=3 n=d3 v=0
48240 Par ch=3 c=64 v=120
48240 On ch=3 n=b2 v=119
48240 On ch=3 n=b3 v=119
48455 On ch=3 n=b3 v=0
48455 On ch=3 n=b2 v=0
48480 On ch=3 n=g#2 v=120
48480 On ch=3 n=g#3 v=120
48695 On ch=3 n=g#3 v=0
48695 On ch=3 n=g#2 v=0
48720 On ch=3 n=f3 v=120
48720 On ch=3 n=f2 v=120
48840 Par ch=3 c=64 v=2
48935 On ch=3 n=f2 v=0
48935 On ch=3 n=f3 v=0
48960 On ch=3 n=d#2 v=119
48960 On ch=3 n=d#3 v=119
48960 Par ch=3 c=64 v=120
49175 On ch=3 n=d#3 v=0
49175 On ch=3 n=d#2 v=0
49200 On ch=3 n=d#4 v=119
49200 On ch=3 n=a#4 v=119
49200 On ch=3 n=d#5 v=119
49420 On ch=3 n=d#5 v=0
49420 On ch=3 n=a#4 v=0
49420 On ch=3 n=d#4 v=0
49440 On ch=3 n=d#4 v=119
49440 On ch=3 n=a#4 v=119
49440 On ch=3 n=d#5 v=119
49660 On ch=3 n=d#5 v=0
49660 On ch=3 n=a#4 v=0
49660 On ch=3 n=d#4 v=0
49680 On ch=3 n=d#5 v=120
49680 On ch=3 n=d#4 v=120
49680 On ch=3 n=a#4 v=120
49900 On ch=3 n=a#4 v=0
49900 On ch=3 n=d#4 v=0
49900 On ch=3 n=d#5 v=0
49920 On ch=3 n=d#5 v=120
49920 On ch=3 n=a#4 v=120
49920 On ch=3 n=d#4 v=120
50140 On ch=3 n=d#4 v=0
50140 On ch=3 n=a#4 v=0
50140 On ch=3 n=d#5 v=0
50160 On ch=3 n=a#4 v=120
50160 On ch=3 n=d#5 v=120
50160 On ch=3 n=d#4 v=120
50280 Par ch=3 c=64 v=2
50375 On ch=3 n=d#4 v=0
50375 On ch=3 n=d#5 v=0
50375 On ch=3 n=a#4 v=0
50400 Par ch=3 c=64 v=120
50400 On ch=3 n=g#2 v=118
50400 On ch=3 n=g#3 v=118
50615 On ch=3 n=g#3 v=0
50615 On ch=3 n=g#2 v=0
50640 On ch=3 n=g#4 v=118
50640 On ch=3 n=d#4 v=118
50640 On ch=3 n=d#5 v=118
50860 On ch=3 n=d#5 v=0
50860 On ch=3 n=d#4 v=0
50860 On ch=3 n=g#4 v=0
50880 On ch=3 n=g#4 v=118
50880 On ch=3 n=d#4 v=118
50880 On ch=3 n=d#5 v=118
51100 On ch=3 n=d#5 v=0
51100 On ch=3 n=d#4 v=0
51100 On ch=3 n=g#4 v=0
51120 On ch=3 n=d#5 v=118
51120 On ch=3 n=g#4 v=118
51120 On ch=3 n=d#4 v=118
51340 On ch=3 n=d#4 v=0
51340 On ch=3 n=g#4 v=0
51340 On ch=3 n=d#5 v=0
51360 On ch=3 n=d#5 v=118
51360 On ch=3 n=g#4 v=118
51360 On ch=3 n=d#4 v=118
51580 On ch=3 n=d#4 v=0
51580 On ch=3 n=g#4 v=0
51580 On ch=3 n=d#5 v=0
51600 On ch=3 n=d#5 v=118
51600 On ch=3 n=g#4 v=118
51600 On ch=3 n=d#4 v=118
51720 Par ch=3 c=64 v=2
51815 On ch=3 n=d#4 v=0
51815 On ch=3 n=g#4 v=0
51815 On ch=3 n=d#5 v=0
51840 On ch=3 n=c#2 v=119
51840 On ch=3 n=c#3 v=119
51840 Par ch=3 c=64 v=120
52055 On ch=3 n=c#3 v=0
52055 On ch=3 n=c#2 v=0
52080 On ch=3 n=f5 v=118
52080 On ch=3 n=f4 v=118
52080 On ch=3 n=c#5 v=118
52080 On ch=3 n=g#4 v=118
52300 On ch=3 n=g#4 v=0
52300 On ch=3 n=c#5 v=0
52300 On ch=3 n=f4 v=0
52300 On ch=3 n=f5 v=0
52320 On ch=3 n=g#4 v=119
52320 On ch=3 n=f5 v=119
52320 On ch=3 n=c#5 v=119
52320 On ch=3 n=f4 v=119
52540 On ch=3 n=f4 v=0
52540 On ch=3 n=c#5 v=0
52540 On ch=3 n=f5 v=0
52540 On ch=3 n=g#4 v=0
52560 On ch=3 n=g#4 v=120
52560 On ch=3 n=c#5 v=120
52560 On ch=3 n=f4 v=120
52560 On ch=3 n=f5 v=120
52780 On ch=3 n=f5 v=0
52780 On ch=3 n=f4 v=0
52780 On ch=3 n=c#5 v=0
52780 On ch=3 n=g#4 v=0
52800 On ch=3 n=f5 v=120
52800 On ch=3 n=f4 v=120
52800 On ch=3 n=g#4 v=120
52800 On ch=3 n=c#5 v=120
53020 On ch=3 n=c#5 v=0
53020 On ch=3 n=g#4 v=0
53020 On ch=3 n=f4 v=0
53020 On ch=3 n=f5 v=0
53040 On ch=3 n=f4 v=120
53040 On ch=3 n=f5 v=120
53040 On ch=3 n=c#5 v=120
53040 On ch=3 n=g#4 v=120
53160 Par ch=3 c=64 v=2
53255 On ch=3 n=g#4 v=0
53255 On ch=3 n=c#5 v=0
53255 On ch=3 n=f5 v=0
53255 On ch=3 n=f4 v=0
53280 Par ch=3 c=64 v=120
53280 On ch=3 n=d#2 v=120
53280 On ch=3 n=d#3 v=120
53495 On ch=3 n=d#3 v=0
53495 On ch=3 n=d#2 v=0
53520 On ch=3 n=a#4 v=120
53520 On ch=3 n=g4 v=120
53520 On ch=3 n=g5 v=120
53740 On ch=3 n=g5 v=0
53740 On ch=3 n=g4 v=0
53740 On ch=3 n=a#4 v=0
53760 On ch=3 n=a#4 v=120
53760 On ch=3 n=g5 v=120
53760 On ch=3 n=g4 v=120
53880 Par ch=3 c=64 v=1
53975 On ch=3 n=g4 v=0
53975 On ch=3 n=g5 v=0
53975 On ch=3 n=a#4 v=0
54000 Par ch=3 c=64 v=120
54000 On ch=3 n=c#2 v=120
54000 On ch=3 n=c#3 v=120
54215 On ch=3 n=c#3 v=0
54215 On ch=3 n=c#2 v=0
54240 On ch=3 n=g#4 v=120
54240 On ch=3 n=g#5 v=120
54240 On ch=3 n=f4 v=120
54240 On ch=3 n=c#5 v=120
54460 On ch=3 n=c#5 v=0
54460 On ch=3 n=f4 v=0
54460 On ch=3 n=g#5 v=0
54460 On ch=3 n=g#4 v=0
54480 On ch=3 n=g#4 v=120
54480 On ch=3 n=c#5 v=120
54480 On ch=3 n=g#5 v=120
54480 On ch=3 n=f4 v=120
54600 Par ch=3 c=64 v=2
54695 On ch=3 n=f4 v=0
54695 On ch=3 n=g#5 v=0
54695 On ch=3 n=c#5 v=0
54695 On ch=3 n=g#4 v=0
54720 On ch=3 n=d#3 v=120
54720 On ch=3 n=d#2 v=120
54720 Par ch=3 c=64 v=120
54935 On ch=3 n=d#2 v=0
54935 On ch=3 n=d#3 v=0
54960 On ch=3 n=a#4 v=120
54960 On ch=3 n=g5 v=120
54960 On ch=3 n=c#5 v=120
54960 On ch=3 n=g4 v=120
55180 On ch=3 n=g4 v=0
55180 On ch=3 n=c#5 v=0
55180 On ch=3 n=g5 v=0
55180 On ch=3 n=a#4 v=0
55200 On ch=3 n=c#5 v=120
55200 On ch=3 n=a#4 v=120
55200 On ch=3 n=g4 v=120
55200 On ch=3 n=g5 v=120
55420 On ch=3 n=g5 v=0
55420 On ch=3 n=g4 v=0
55420 On ch=3 n=a#4 v=0
55420 On ch=3 n=c#5 v=0
55440 On ch=3 n=d#5 v=119
55440 On ch=3 n=c#5 v=119
55440 On ch=3 n=g5 v=119
55440 On ch=3 n=a#4 v=119
55440 On ch=3 n=g4 v=119
55660 On ch=3 n=g4 v=0
55660 On ch=3 n=a#4 v=0
55660 On ch=3 n=g5 v=0
55660 On ch=3 n=c#5 v=0
55660 On ch=3 n=d#5 v=0
55680 On ch=3 n=a#4 v=119
55680 On ch=3 n=d#5 v=119
55680 On ch=3 n=g5 v=119
55680 On ch=3 n=c#5 v=119
55680 On ch=3 n=g4 v=119
55895 On ch=3 n=d#5 v=0
55900 On ch=3 n=g4 v=0
55900 On ch=3 n=c#5 v=0
55900 On ch=3 n=g5 v=0
55900 On ch=3 n=a#4 v=0
55920 On ch=3 n=g4 v=119
55920 On ch=3 n=g5 v=119
55920 On ch=3 n=c#5 v=119
55920 On ch=3 n=a#4 v=119
56040 Par ch=3 c=64 v=2
56135 On ch=3 n=a#4 v=0
56135 On ch=3 n=c#5 v=0
56135 On ch=3 n=g5 v=0
56135 On ch=3 n=g4 v=0
56160 On ch=3 n=f3 v=119
56160 Par ch=3 c=64 v=120
56160 On ch=3 n=f2 v=119
56375 On ch=3 n=f2 v=0
56375 On ch=3 n=f3 v=0
56400 On ch=3 n=f4 v=119
56400 On ch=3 n=f5 v=119
56400 On ch=3 n=c5 v=119
56620 On ch=3 n=c5 v=0
56620 On ch=3 n=f5 v=0
56620 On ch=3 n=f4 v=0
56640 On ch=3 n=f5 v=119
56640 On ch=3 n=f4 v=119
56640 On ch=3 n=c5 v=119
56760 Par ch=3 c=64 v=1
56855 On ch=3 n=c5 v=0
56855 On ch=3 n=f4 v=0
56855 On ch=3 n=f5 v=0
56880 Par ch=3 c=64 v=120
56880 On ch=3 n=a#2 v=119
56880 On ch=3 n=a#3 v=119
57095 On ch=3 n=a#3 v=0
57095 On ch=3 n=a#2 v=0
57120 On ch=3 n=a#4 v=119
57120 On ch=3 n=f5 v=119
57120 On ch=3 n=f4 v=119
57340 On ch=3 n=f4 v=0
57340 On ch=3 n=f5 v=0
57340 On ch=3 n=a#4 v=0
57360 On ch=3 n=f5 v=119
57360 On ch=3 n=a#4 v=119
57360 On ch=3 n=f4 v=119
57480 Par ch=3 c=64 v=2
57575 On ch=3 n=f4 v=0
57575 On ch=3 n=a#4 v=0
57575 On ch=3 n=f5 v=0
57600 On ch=3 n=d#4 v=119
57600 Par ch=3 c=64 v=120
57600 On ch=3 n=d#3 v=119
57815 On ch=3 n=d#3 v=0
57815 On ch=3 n=d#4 v=0
57840 On ch=3 n=f5 v=119
57840 On ch=3 n=f4 v=119
57840 On ch=3 n=a#4 v=119
58055 On ch=3 n=f4 v=0
58055 On ch=3 n=f5 v=0
58060 On ch=3 n=a#4 v=0
58080 On ch=3 n=d#4 v=119
58080 On ch=3 n=d#5 v=119
58080 On ch=3 n=a#4 v=119
58200 Par ch=3 c=64 v=1
58295 On ch=3 n=a#4 v=0
58295 On ch=3 n=d#5 v=0
58295 On ch=3 n=d#4 v=0
58320 Par ch=3 c=64 v=120
58320 On ch=3 n=g#3 v=119
58535 On ch=3 n=g#3 v=0
58560 On ch=3 n=g#4 v=122
58560 On ch=3 n=d#5 v=122
58560 On ch=3 n=d#4 v=122
58780 On ch=3 n=d#4 v=0
58780 On ch=3 n=d#5 v=0
58780 On ch=3 n=g#4 v=0
58800 On ch=3 n=d#4 v=122
58800 On ch=3 n=d#5 v=122
58800 On ch=3 n=g#4 v=122
58920 Par ch=3 c=64 v=2
59015 On ch=3 n=g#4 v=0
59015 On ch=3 n=d#5 v=0
59015 On ch=3 n=d#4 v=0
59040 On ch=3 n=d#3 v=122
59040 Par ch=3 c=64 v=120
59255 On ch=3 n=d#3 v=0
59280 On ch=3 n=d#5 v=122
59280 On ch=3 n=d#4 v=122
59500 On ch=3 n=d#4 v=0
59500 On ch=3 n=d#5 v=0
59520 On ch=3 n=d#5 v=122
59520 On ch=3 n=d#4 v=122
59740 On ch=3 n=d#4 v=0
59740 On ch=3 n=d#5 v=0
59760 On ch=3 n=d#5 v=122
59760 On ch=3 n=d#4 v=122
59980 On ch=3 n=d#4 v=0
59980 On ch=3 n=d#5 v=0
60000 On ch=3 n=d#4 v=122
60000 On ch=3 n=d#5 v=122
60220 On ch=3 n=d#5 v=0
60220 On ch=3 n=d#4 v=0
60240 On ch=3 n=d#5 v=122
60240 On ch=3 n=d#4 v=122
60360 Par ch=3 c=64 v=2
60455 On ch=3 n=d#4 v=0
60455 On ch=3 n=d#5 v=0
60480 Par ch=3 c=64 v=120
60480 On ch=3 n=d#3 v=122
60695 On ch=3 n=d#3 v=0
60720 On ch=3 n=d#5 v=52
60720 On ch=3 n=d#4 v=52
60720 On ch=3 n=a4 v=52
60940 On ch=3 n=a4 v=0
60940 On ch=3 n=d#4 v=0
60940 On ch=3 n=d#5 v=0
60960 On ch=3 n=d#4 v=52
60960 On ch=3 n=d#5 v=52
60960 On ch=3 n=a4 v=52
61180 On ch=3 n=a4 v=0
61180 On ch=3 n=d#5 v=0
61180 On ch=3 n=d#4 v=0
61200 On ch=3 n=a4 v=52
61200 On ch=3 n=d#5 v=52
61200 On ch=3 n=d#4 v=52
61420 On ch=3 n=d#4 v=0
61420 On ch=3 n=d#5 v=0
61420 On ch=3 n=a4 v=0
61440 On ch=3 n=a4 v=52
61440 On ch=3 n=d#4 v=52
61440 On ch=3 n=d#5 v=52
61660 On ch=3 n=d#5 v=0
61660 On ch=3 n=d#4 v=0
61660 On ch=3 n=a4 v=0
61680 On ch=3 n=a4 v=52
61680 On ch=3 n=d#4 v=52
61680 On ch=3 n=d#5 v=52
61800 Par ch=3 c=64 v=2
61895 On ch=3 n=d#5 v=0
61895 On ch=3 n=d#4 v=0
61895 On ch=3 n=a4 v=0
61920 Par ch=3 c=64 v=120
61920 Par ch=3 c=64 v=120
61920 On ch=3 n=e3 v=52
61920 Par ch=3 c=64 v=120
62135 On ch=3 n=e3 v=0
62160 On ch=3 n=g#4 v=52
62160 On ch=3 n=e5 v=52
62160 On ch=3 n=e4 v=52
62380 On ch=3 n=e4 v=0
62380 On ch=3 n=e5 v=0
62380 On ch=3 n=g#4 v=0
62400 On ch=3 n=e4 v=52
62400 On ch=3 n=g#4 v=52
62400 On ch=3 n=e5 v=52
62520 Par ch=3 c=64 v=1
62620 On ch=3 n=e5 v=0
62620 On ch=3 n=g#4 v=0
62620 On ch=3 n=e4 v=0
62640 On ch=3 n=e4 v=51
62640 Par ch=3 c=64 v=120
62640 On ch=3 n=g#4 v=51
62640 On ch=3 n=e5 v=51
62855 On ch=3 n=e5 v=0
62860 On ch=3 n=g#4 v=0
62860 On ch=3 n=e4 v=0
62880 On ch=3 n=e4 v=51
62880 On ch=3 n=d#5 v=51
62880 On ch=3 n=g#4 v=51
63095 On ch=3 n=d#5 v=0
63100 On ch=3 n=g#4 v=0
63100 On ch=3 n=e4 v=0
63120 On ch=3 n=g#4 v=49
63120 On ch=3 n=e4 v=49
63120 On ch=3 n=c#5 v=49
63240 Par ch=3 c=64 v=2
63240 Par ch=3 c=64 v=2
63240 Par ch=3 c=64 v=2
63335 On ch=3 n=c#5 v=0
63335 On ch=3 n=e4 v=0
63335 On ch=3 n=g#4 v=0
63360 Par ch=3 c=64 v=120
63360 On ch=3 n=b2 v=53
63360 On ch=3 n=b3 v=53
63360 Par ch=3 c=64 v=120
63360 Par ch=3 c=64 v=120
63575 On ch=3 n=b3 v=0
63575 On ch=3 n=b2 v=0
63600 On ch=3 n=d#5 v=58
63600 On ch=3 n=b4 v=58
63600 On ch=3 n=a5 v=58
63820 On ch=3 n=a5 v=0
63820 On ch=3 n=b4 v=0
63820 On ch=3 n=d#5 v=0
63840 On ch=3 n=a5 v=63
63840 On ch=3 n=b4 v=63
63840 On ch=3 n=d#5 v=63
63960 Par ch=3 c=64 v=1
64060 On ch=3 n=d#5 v=0
64060 On ch=3 n=b4 v=0
64060 On ch=3 n=a5 v=0
64080 On ch=3 n=a5 v=69
64080 Par ch=3 c=64 v=120
64080 On ch=3 n=b4 v=69
64080 On ch=3 n=d#5 v=69
64295 On ch=3 n=d#5 v=0
64300 On ch=3 n=b4 v=0
64300 On ch=3 n=a5 v=0
64320 On ch=3 n=a5 v=75
64320 On ch=3 n=b4 v=75
64320 On ch=3 n=c#5 v=75
64535 On ch=3 n=c#5 v=0
64540 On ch=3 n=b4 v=0
64540 On ch=3 n=a5 v=0
64560 On ch=3 n=b4 v=82
64560 On ch=3 n=a5 v=82
64560 On ch=3 n=d#5 v=82
64680 Par ch=3 c=64 v=2
64680 Par ch=3 c=64 v=2
64680 Par ch=3 c=64 v=2
64775 On ch=3 n=d#5 v=0
64775 On ch=3 n=a5 v=0
64775 On ch=3 n=b4 v=0
64800 Par ch=3 c=64 v=120
64800 Par ch=3 c=64 v=120
64800 On ch=3 n=e4 v=91
64800 Par ch=3 c=64 v=120
64800 On ch=3 n=e3 v=91
65015 On ch=3 n=e3 v=0
65015 On ch=3 n=e4 v=0
65040 On ch=3 n=b5 v=90
65040 On ch=3 n=e5 v=90
65040 On ch=3 n=b4 v=90
65260 On ch=3 n=b4 v=0
65260 On ch=3 n=e5 v=0
65260 On ch=3 n=b5 v=0
65280 On ch=3 n=b5 v=90
65280 On ch=3 n=e5 v=90
65280 On ch=3 n=b4 v=90
65400 Par ch=3 c=64 v=1
65500 On ch=3 n=b4 v=0
65500 On ch=3 n=e5 v=0
65500 On ch=3 n=b5 v=0
65520 On ch=3 n=e5 v=90
65520 On ch=3 n=b4 v=90
65520 On ch=3 n=b5 v=90
65520 Par ch=3 c=64 v=120
65735 On ch=3 n=b5 v=0
65735 On ch=3 n=b4 v=0
65735 On ch=3 n=e5 v=0
65760 On ch=3 n=d#3 v=90
65760 On ch=3 n=d#4 v=90
65975 On ch=3 n=d#4 v=0
65975 On ch=3 n=d#3 v=0
66000 On ch=3 n=d3 v=90
66000 On ch=3 n=d4 v=90
66120 Par ch=3 c=64 v=2
66120 Par ch=3 c=64 v=2
66120 Par ch=3 c=64 v=2
66215 On ch=3 n=d4 v=0
66215 On ch=3 n=d3 v=0
66240 On ch=3 n=c#3 v=90
66240 On ch=3 n=c#4 v=90
66240 Par ch=3 c=64 v=120
66240 Par ch=3 c=64 v=120
66455 On ch=3 n=c#4 v=0
66455 On ch=3 n=c#3 v=0
66480 On ch=3 n=b4 v=58
66480 On ch=3 n=f4 v=58
66480 On ch=3 n=f5 v=58
66700 On ch=3 n=f5 v=0
66700 On ch=3 n=f4 v=0
66700 On ch=3 n=b4 v=0
66720 On ch=3 n=b4 v=58
66720 On ch=3 n=f4 v=58
66720 On ch=3 n=f5 v=58
66940 On ch=3 n=f5 v=0
66940 On ch=3 n=f4 v=0
66940 On ch=3 n=b4 v=0
66960 On ch=3 n=f4 v=58
66960 On ch=3 n=b4 v=58
66960 On ch=3 n=f5 v=58
67180 On ch=3 n=f5 v=0
67180 On ch=3 n=b4 v=0
67180 On ch=3 n=f4 v=0
67200 On ch=3 n=b4 v=58
67200 On ch=3 n=f5 v=58
67200 On ch=3 n=f4 v=58
67420 On ch=3 n=f4 v=0
67420 On ch=3 n=f5 v=0
67420 On ch=3 n=b4 v=0
67440 On ch=3 n=f5 v=58
67440 On ch=3 n=b4 v=58
67440 On ch=3 n=f4 v=58
67560 Par ch=3 c=64 v=2
67560 Par ch=3 c=64 v=2
67655 On ch=3 n=f4 v=0
67655 On ch=3 n=b4 v=0
67655 On ch=3 n=f5 v=0
67680 Par ch=3 c=64 v=120
67680 Par ch=3 c=64 v=120
67680 On ch=3 n=f#3 v=58
67680 Par ch=3 c=64 v=120
67895 On ch=3 n=f#3 v=0
67920 On ch=3 n=f#4 v=58
67920 On ch=3 n=a#4 v=58
67920 On ch=3 n=f#5 v=58
68140 On ch=3 n=f#5 v=0
68140 On ch=3 n=a#4 v=0
68140 On ch=3 n=f#4 v=0
68160 On ch=3 n=f#5 v=58
68160 On ch=3 n=f#4 v=58
68160 On ch=3 n=a#4 v=58
68280 Par ch=3 c=64 v=1
68280 Par ch=3 c=64 v=1
68380 On ch=3 n=a#4 v=0
68380 On ch=3 n=f#4 v=0
68380 On ch=3 n=f#5 v=0
68400 On ch=3 n=a#4 v=58
68400 On ch=3 n=f#4 v=58
68400 Par ch=3 c=64 v=120
68400 Par ch=3 c=64 v=120
68400 On ch=3 n=f#5 v=58
68615 On ch=3 n=f#5 v=0
68620 On ch=3 n=f#4 v=0
68620 On ch=3 n=a#4 v=0
68640 On ch=3 n=f#4 v=58
68640 On ch=3 n=f5 v=58
68640 On ch=3 n=a#4 v=58
68855 On ch=3 n=f5 v=0
68860 On ch=3 n=a#4 v=0
68860 On ch=3 n=f#4 v=0
68880 On ch=3 n=d#5 v=58
68880 On ch=3 n=f#4 v=58
68880 On ch=3 n=a#4 v=58
69000 Par ch=3 c=64 v=2
69000 Par ch=3 c=64 v=2
69000 Par ch=3 c=64 v=2
69095 On ch=3 n=a#4 v=0
69095 On ch=3 n=f#4 v=0
69095 On ch=3 n=d#5 v=0
69120 On ch=3 n=c#3 v=57
69120 Par ch=3 c=64 v=120
69120 Par ch=3 c=64 v=120
69120 Par ch=3 c=64 v=120
69120 On ch=3 n=c#4 v=57
69335 On ch=3 n=c#4 v=0
69335 On ch=3 n=c#3 v=0
69360 On ch=3 n=c#5 v=58
69360 On ch=3 n=b4 v=58
69360 On ch=3 n=g#4 v=58
69360 On ch=3 n=g#5 v=58
69580 On ch=3 n=g#5 v=0
69580 On ch=3 n=g#4 v=0
69580 On ch=3 n=b4 v=0
69580 On ch=3 n=c#5 v=0
69600 On ch=3 n=g#4 v=60
69600 On ch=3 n=c#5 v=60
69600 On ch=3 n=g#5 v=60
69600 On ch=3 n=b4 v=60
69720 Par ch=3 c=64 v=1
69820 On ch=3 n=b4 v=0
69820 On ch=3 n=g#5 v=0
69820 On ch=3 n=c#5 v=0
69820 On ch=3 n=g#4 v=0
69840 On ch=3 n=g#5 v=67
69840 On ch=3 n=g#4 v=67
69840 Par ch=3 c=64 v=120
69840 On ch=3 n=c#5 v=67
69840 On ch=3 n=b4 v=67
70055 On ch=3 n=g#5 v=0
70060 On ch=3 n=b4 v=0
70060 On ch=3 n=c#5 v=0
70060 On ch=3 n=g#4 v=0
70080 On ch=3 n=b4 v=71
70080 On ch=3 n=g#4 v=71
70080 On ch=3 n=d#5 v=71
70080 On ch=3 n=c#5 v=71
70295 On ch=3 n=d#5 v=0
70300 On ch=3 n=c#5 v=0
70300 On ch=3 n=g#4 v=0
70300 On ch=3 n=b4 v=0
70320 On ch=3 n=g#4 v=73
70320 On ch=3 n=f5 v=73
70320 On ch=3 n=c#5 v=73
70320 On ch=3 n=b4 v=73
70440 Par ch=3 c=64 v=2
70440 Par ch=3 c=64 v=2
70440 Par ch=3 c=64 v=2
70535 On ch=3 n=b4 v=0
70535 On ch=3 n=c#5 v=0
70535 On ch=3 n=f5 v=0
70535 On ch=3 n=g#4 v=0
70560 Par ch=3 c=64 v=120
70560 Par ch=3 c=64 v=120
70560 On ch=3 n=f#3 v=78
70560 Par ch=3 c=64 v=120
70560 Par ch=3 c=64 v=120
70560 Par ch=3 c=64 v=120
70560 Par ch=3 c=64 v=120
70560 Par ch=3 c=64 v=120
70560 Par ch=3 c=64 v=120
70560 Par ch=3 c=64 v=120
70775 On ch=3 n=f#3 v=0
70800 On ch=3 n=f#5 v=84
70800 On ch=3 n=c#5 v=84
70800 On ch=3 n=f#4 v=84
71020 On ch=3 n=f#4 v=0
71020 On ch=3 n=c#5 v=0
71020 On ch=3 n=f#5 v=0
71040 On ch=3 n=c#5 v=87
71040 On ch=3 n=f#5 v=87
71040 On ch=3 n=f#4 v=87
71160 Par ch=3 c=64 v=1
71160 Par ch=3 c=64 v=1
71160 Par ch=3 c=64 v=1
71160 Par ch=3 c=64 v=1
71255 On ch=3 n=f#5 v=0
71255 On ch=3 n=c#5 v=0
71260 On ch=3 n=f#4 v=0
71280 Par ch=3 c=64 v=120
71280 Par ch=3 c=64 v=120
71280 Par ch=3 c=64 v=120
71280 On ch=3 n=f#3 v=90
71280 On ch=3 n=f#4 v=90
71280 Par ch=3 c=64 v=120
71495 On ch=3 n=f#4 v=0
71495 On ch=3 n=f#3 v=0
71520 On ch=3 n=f3 v=93
71520 On ch=3 n=f4 v=93
71735 On ch=3 n=f4 v=0
71735 On ch=3 n=f3 v=0
71760 On ch=3 n=e3 v=100
71760 On ch=3 n=e4 v=100
71880 Par ch=3 c=64 v=2
71880 Par ch=3 c=64 v=2
71880 Par ch=3 c=64 v=2
71880 Par ch=3 c=64 v=2
71880 Par ch=3 c=64 v=2
71880 Par ch=3 c=64 v=2
71880 Par ch=3 c=64 v=2
71880 Par ch=3 c=64 v=2
71880 Par ch=3 c=64 v=2
71975 On ch=3 n=e4 v=0
71975 On ch=3 n=e3 v=0
72000 On ch=3 n=d#4 v=102
72000 Par ch=3 c=64 v=120
72000 Par ch=3 c=64 v=120
72000 Par ch=3 c=64 v=120
72000 On ch=3 n=d#3 v=102
72000 Par ch=3 c=64 v=120
72000 Par ch=3 c=64 v=120
72000 Par ch=3 c=64 v=120
72000 Par ch=3 c=64 v=120
72000 Par ch=3 c=64 v=120
72000 Par ch=3 c=64 v=120
72215 On ch=3 n=d#3 v=0
72215 On ch=3 n=d#4 v=0
72240 On ch=3 n=b4 v=102
72240 On ch=3 n=f#5 v=102
72460 On ch=3 n=f#5 v=0
72460 On ch=3 n=b4 v=0
72480 On ch=3 n=f#5 v=103
72480 On ch=3 n=b4 v=103
72600 Par ch=3 c=64 v=1
72600 Par ch=3 c=64 v=1
72600 Par ch=3 c=64 v=1
72600 Par ch=3 c=64 v=1
72695 On ch=3 n=b4 v=0
72695 On ch=3 n=f#5 v=0
72720 Par ch=3 c=64 v=120
72720 Par ch=3 c=64 v=120
72720 On ch=3 n=e4 v=103
72720 Par ch=3 c=64 v=120
72720 Par ch=3 c=64 v=120
72935 On ch=3 n=e4 v=0
72960 On ch=3 n=b5 v=104
72960 On ch=3 n=e5 v=104
72960 On ch=3 n=b4 v=104
73180 On ch=3 n=b4 v=0
73180 On ch=3 n=e5 v=0
73180 On ch=3 n=b5 v=0
73200 On ch=3 n=b4 v=104
73200 On ch=3 n=b5 v=104
73200 On ch=3 n=e5 v=104
73320 Par ch=3 c=64 v=2
73320 Par ch=3 c=64 v=2
73320 Par ch=3 c=64 v=2
73320 Par ch=3 c=64 v=2
73320 Par ch=3 c=64 v=2
73320 Par ch=3 c=64 v=2
73320 Par ch=3 c=64 v=2
73320 Par ch=3 c=64 v=2
73320 Par ch=3 c=64 v=2
73415 On ch=3 n=e5 v=0
73415 On ch=3 n=b5 v=0
73415 On ch=3 n=b4 v=0
73440 Par ch=3 c=64 v=120
73440 Par ch=3 c=64 v=120
73440 Par ch=3 c=64 v=120
73440 On ch=3 n=d4 v=102
73440 Par ch=3 c=64 v=120
73440 Par ch=3 c=64 v=120
73440 Par ch=3 c=64 v=120
73440 Par ch=3 c=64 v=120
73440 Par ch=3 c=64 v=120
73440 Par ch=3 c=64 v=120
73655 On ch=3 n=d4 v=0
73680 On ch=3 n=a#5 v=97
73680 On ch=3 n=f5 v=97
73680 On ch=3 n=a#4 v=97
73900 On ch=3 n=a#4 v=0
73900 On ch=3 n=f5 v=0
73900 On ch=3 n=a#5 v=0
73920 On ch=3 n=f5 v=92
73920 On ch=3 n=a#4 v=92
73920 On ch=3 n=a#5 v=92
74040 Par ch=3 c=64 v=1
74040 Par ch=3 c=64 v=1
74040 Par ch=3 c=64 v=1
74135 On ch=3 n=a#5 v=0
74135 On ch=3 n=a#4 v=0
74135 On ch=3 n=f5 v=0
74160 On ch=3 n=d#4 v=90
74160 Par ch=3 c=64 v=120
74160 Par ch=3 c=64 v=120
74160 Par ch=3 c=64 v=120
74375 On ch=3 n=d#4 v=0
74400 On ch=3 n=d#5 v=87
74400 On ch=3 n=a#5 v=87
74400 On ch=3 n=a#4 v=87
74620 On ch=3 n=a#4 v=0
74620 On ch=3 n=a#5 v=0
74620 On ch=3 n=d#5 v=0
74640 On ch=3 n=a#5 v=84
74640 On ch=3 n=a#4 v=84
74640 On ch=3 n=d#5 v=84
74760 Par ch=3 c=64 v=2
74760 Par ch=3 c=64 v=2
74760 Par ch=3 c=64 v=2
74760 Par ch=3 c=64 v=2
74760 Par ch=3 c=64 v=2
74760 Par ch=3 c=64 v=2
74760 Par ch=3 c=64 v=2
74760 Par ch=3 c=64 v=2
74760 Par ch=3 c=64 v=2
74855 On ch=3 n=d#5 v=0
74855 On ch=3 n=a#4 v=0
74855 On ch=3 n=a#5 v=0
74880 Par ch=3 c=64 v=120
74880 Par ch=3 c=64 v=120
74880 On ch=3 n=c#4 v=80
74880 Par ch=3 c=64 v=120
74880 Par ch=3 c=64 v=120
74880 Par ch=3 c=64 v=120
74880 Par ch=3 c=64 v=120
74880 Par ch=3 c=64 v=120
75095 On ch=3 n=c#4 v=0
75120 On ch=3 n=a4 v=78
75120 On ch=3 n=a5 v=78
75120 On ch=3 n=e5 v=78
75340 On ch=3 n=e5 v=0
75340 On ch=3 n=a5 v=0
75340 On ch=3 n=a4 v=0
75360 On ch=3 n=a4 v=74
75360 On ch=3 n=a5 v=74
75360 On ch=3 n=e5 v=74
75480 Par ch=3 c=64 v=1
75575 On ch=3 n=e5 v=0
75575 On ch=3 n=a5 v=0
75575 On ch=3 n=a4 v=0
75600 Par ch=3 c=64 v=120
75600 On ch=3 n=d4 v=70
75815 On ch=3 n=d4 v=0
75840 On ch=3 n=a5 v=69
75840 On ch=3 n=a4 v=69
75840 On ch=3 n=d5 v=69
76060 On ch=3 n=d5 v=0
76060 On ch=3 n=a4 v=0
76060 On ch=3 n=a5 v=0
76080 On ch=3 n=a5 v=67
76080 On ch=3 n=a4 v=67
76080 On ch=3 n=d5 v=67
76200 Par ch=3 c=64 v=2
76200 Par ch=3 c=64 v=2
76200 Par ch=3 c=64 v=2
76200 Par ch=3 c=64 v=2
76200 Par ch=3 c=64 v=2
76200 Par ch=3 c=64 v=2
76200 Par ch=3 c=64 v=2
76300 On ch=3 n=d5 v=0
76300 On ch=3 n=a4 v=0
76300 On ch=3 n=a5 v=0
76320 Par ch=3 c=64 v=120
76320 On ch=3 n=a4 v=63
76320 Par ch=3 c=64 v=120
76320 Par ch=3 c=64 v=120
76320 Par ch=3 c=64 v=120
76320 Par ch=3 c=64 v=120
76320 On ch=3 n=a5 v=63
76320 Par ch=3 c=64 v=120
76320 On ch=3 n=d5 v=63
76320 Par ch=3 c=64 v=120
76320 Par ch=3 c=64 v=120
76535 On ch=3 n=d5 v=0
76535 On ch=3 n=a5 v=0
76535 On ch=3 n=a4 v=0
76560 On ch=3 n=d4 v=69
76560 On ch=3 n=d3 v=69
76775 On ch=3 n=d3 v=0
76775 On ch=3 n=d4 v=0
76800 On ch=3 n=c#4 v=75
76800 On ch=3 n=c#3 v=75
76920 Par ch=3 c=64 v=1
76920 Par ch=3 c=64 v=1
76920 Par ch=3 c=64 v=1
76920 Par ch=3 c=64 v=1
76920 Par ch=3 c=64 v=1
77015 On ch=3 n=c#3 v=0
77015 On ch=3 n=c#4 v=0
77040 On ch=3 n=c3 v=80
77040 Par ch=3 c=64 v=120
77040 Par ch=3 c=64 v=120
77040 Par ch=3 c=64 v=120
77040 On ch=3 n=c4 v=80
77040 Par ch=3 c=64 v=120
77040 Par ch=3 c=64 v=120
77260 On ch=3 n=c4 v=0
77260 On ch=3 n=c3 v=0
77280 On ch=3 n=c3 v=84
77280 On ch=3 n=c4 v=84
77495 On ch=3 n=c4 v=0
77495 On ch=3 n=c3 v=0
77520 On ch=3 n=b3 v=91
77520 On ch=3 n=b2 v=91
77640 Par ch=3 c=64 v=2
77640 Par ch=3 c=64 v=2
77640 Par ch=3 c=64 v=2
77640 Par ch=3 c=64 v=2
77640 Par ch=3 c=64 v=2
77640 Par ch=3 c=64 v=2
77640 Par ch=3 c=64 v=2
77640 Par ch=3 c=64 v=2
77735 On ch=3 n=b2 v=0
77735 On ch=3 n=b3 v=0
77760 Par ch=3 c=64 v=120
77760 Par ch=3 c=64 v=120
77760 Par ch=3 c=64 v=120
77760 On ch=3 n=a#3 v=96
77760 Par ch=3 c=64 v=120
77760 On ch=3 n=a#2 v=96
77760 Par ch=3 c=64 v=120
77760 Par ch=3 c=64 v=120
77760 Par ch=3 c=64 v=120
77760 Par ch=3 c=64 v=120
77975 On ch=3 n=a#2 v=0
77975 On ch=3 n=a#3 v=0
78000 On ch=3 n=a#4 v=96
78000 On ch=3 n=d#5 v=96
78000 On ch=3 n=a#5 v=96
78220 On ch=3 n=a#5 v=0
78220 On ch=3 n=d#5 v=0
78220 On ch=3 n=a#4 v=0
78240 On ch=3 n=d#5 v=96
78240 On ch=3 n=a#5 v=96
78240 On ch=3 n=a#4 v=96
78360 Par ch=3 c=64 v=1
78360 Par ch=3 c=64 v=1
78360 Par ch=3 c=64 v=1
78455 On ch=3 n=d#5 v=0
78460 On ch=3 n=a#4 v=0
78460 On ch=3 n=a#5 v=0
78480 Par ch=3 c=64 v=120
78480 On ch=3 n=e5 v=96
78480 Par ch=3 c=64 v=120
78480 On ch=3 n=a#5 v=96
78480 Par ch=3 c=64 v=120
78480 On ch=3 n=a#4 v=96
78700 On ch=3 n=a#4 v=0
78700 On ch=3 n=a#5 v=0
78700 On ch=3 n=e5 v=0
78720 On ch=3 n=e5 v=95
78720 On ch=3 n=a#5 v=95
78720 On ch=3 n=a#4 v=95
78940 On ch=3 n=a#4 v=0
78940 On ch=3 n=a#5 v=0
78940 On ch=3 n=e5 v=0
78960 On ch=3 n=e5 v=95
78960 On ch=3 n=a#4 v=95
78960 On ch=3 n=a#5 v=95
79080 Par ch=3 c=64 v=2
79080 Par ch=3 c=64 v=2
79080 Par ch=3 c=64 v=2
79080 Par ch=3 c=64 v=2
79080 Par ch=3 c=64 v=2
79080 Par ch=3 c=64 v=2
79080 Par ch=3 c=64 v=2
79080 Par ch=3 c=64 v=2
79175 On ch=3 n=a#5 v=0
79175 On ch=3 n=a#4 v=0
79175 On ch=3 n=e5 v=0
79200 Par ch=3 c=64 v=120
79200 On ch=3 n=a#3 v=95
79415 On ch=3 n=a#3 v=0
79440 On ch=3 n=f5 v=93
79440 On ch=3 n=a#4 v=93
79440 On ch=3 n=a#5 v=93
79660 On ch=3 n=a#5 v=0
79660 On ch=3 n=a#4 v=0
79660 On ch=3 n=f5 v=0
79680 On ch=3 n=a#4 v=93
79680 On ch=3 n=a#5 v=93
79680 On ch=3 n=f5 v=93
79900 On ch=3 n=f5 v=0
79900 On ch=3 n=a#5 v=0
79900 On ch=3 n=a#4 v=0
79920 On ch=3 n=f5 v=93
79920 On ch=3 n=a#5 v=93
79920 On ch=3 n=a#4 v=93
80140 On ch=3 n=a#4 v=0
80140 On ch=3 n=a#5 v=0
80140 On ch=3 n=f5 v=0
80160 On ch=3 n=a#4 v=93
80160 On ch=3 n=f5 v=93
80160 On ch=3 n=a#5 v=93
80380 On ch=3 n=a#5 v=0
80380 On ch=3 n=f5 v=0
80380 On ch=3 n=a#4 v=0
80400 On ch=3 n=f5 v=93
80400 On ch=3 n=a#5 v=93
80400 On ch=3 n=a#4 v=93
80520 Par ch=3 c=64 v=2
80615 On ch=3 n=a#4 v=0
80615 On ch=3 n=a#5 v=0
80615 On ch=3 n=f5 v=0
80640 Par ch=3 c=64 v=120
80640 On ch=3 n=d#3 v=95
80855 On ch=3 n=d#3 v=0
80880 On ch=3 n=a#4 v=95
80880 On ch=3 n=g5 v=95
80880 On ch=3 n=g4 v=95
81100 On ch=3 n=g4 v=0
81100 On ch=3 n=g5 v=0
81100 On ch=3 n=a#4 v=0
81120 On ch=3 n=g5 v=96
81120 On ch=3 n=g4 v=96
81120 On ch=3 n=a#4 v=96
81340 On ch=3 n=a#4 v=0
81340 On ch=3 n=g4 v=0
81340 On ch=3 n=g5 v=0
81360 On ch=3 n=g4 v=97
81360 On ch=3 n=a#4 v=97
81360 On ch=3 n=g5 v=97
81580 On ch=3 n=g5 v=0
81580 On ch=3 n=a#4 v=0
81580 On ch=3 n=g4 v=0
81600 On ch=3 n=a#4 v=97
81600 On ch=3 n=g5 v=97
81600 On ch=3 n=g4 v=97
81820 On ch=3 n=g4 v=0
81820 On ch=3 n=g5 v=0
81820 On ch=3 n=a#4 v=0
81840 On ch=3 n=g4 v=97
81840 On ch=3 n=a#4 v=97
81840 On ch=3 n=g5 v=97
81960 Par ch=3 c=64 v=2
82055 On ch=3 n=g5 v=0
82055 On ch=3 n=a#4 v=0
82055 On ch=3 n=g4 v=0
82080 On ch=3 n=d#4 v=97
82080 Par ch=3 c=64 v=120
82295 On ch=3 n=d#4 v=0
82320 On ch=3 n=g#4 v=97
82320 On ch=3 n=b4 v=97
82320 On ch=3 n=g#5 v=97
82540 On ch=3 n=g#5 v=0
82540 On ch=3 n=b4 v=0
82540 On ch=3 n=g#4 v=0
82560 On ch=3 n=g#5 v=95
82560 On ch=3 n=b4 v=95
82560 On ch=3 n=g#4 v=95
82780 On ch=3 n=g#4 v=0
82780 On ch=3 n=b4 v=0
82780 On ch=3 n=g#5 v=0
82800 On ch=3 n=g#4 v=95
82800 On ch=3 n=b4 v=95
82800 On ch=3 n=g#5 v=95
83020 On ch=3 n=g#5 v=0
83020 On ch=3 n=b4 v=0
83020 On ch=3 n=g#4 v=0
83040 On ch=3 n=b4 v=95
83040 On ch=3 n=g#5 v=95
83040 On ch=3 n=g#4 v=95
83260 On ch=3 n=g#4 v=0
83260 On ch=3 n=g#5 v=0
83260 On ch=3 n=b4 v=0
83280 On ch=3 n=g#4 v=95
83280 On ch=3 n=b4 v=95
83280 On ch=3 n=g#5 v=95
83400 Par ch=3 c=64 v=2
83495 On ch=3 n=g#5 v=0
83495 On ch=3 n=b4 v=0
83495 On ch=3 n=g#4 v=0
83520 Par ch=3 c=64 v=120
83520 On ch=3 n=d#3 v=96
83735 On ch=3 n=d#3 v=0
83760 On ch=3 n=g4 v=96
83760 On ch=3 n=g5 v=96
83760 On ch=3 n=a#4 v=96
83980 On ch=3 n=a#4 v=0
83980 On ch=3 n=g5 v=0
83980 On ch=3 n=g4 v=0
84000 On ch=3 n=g4 v=97
84000 On ch=3 n=g5 v=97
84000 On ch=3 n=a#4 v=97
84220 On ch=3 n=a#4 v=0
84220 On ch=3 n=g5 v=0
84220 On ch=3 n=g4 v=0
84240 On ch=3 n=a#4 v=97
84240 On ch=3 n=g5 v=97
84240 On ch=3 n=g4 v=97
84460 On ch=3 n=g4 v=0
84460 On ch=3 n=g5 v=0
84460 On ch=3 n=a#4 v=0
84480 On ch=3 n=g4 v=97
84480 On ch=3 n=a#4 v=97
84480 On ch=3 n=g5 v=97
84700 On ch=3 n=g5 v=0
84700 On ch=3 n=a#4 v=0
84700 On ch=3 n=g4 v=0
84720 On ch=3 n=a#4 v=97
84720 On ch=3 n=g4 v=97
84720 On ch=3 n=g5 v=97
84840 Par ch=3 c=64 v=2
84935 On ch=3 n=g5 v=0
84935 On ch=3 n=g4 v=0
84935 On ch=3 n=a#4 v=0
84960 Par ch=3 c=64 v=120
84960 On ch=3 n=d#4 v=98
85175 On ch=3 n=d#4 v=0
85200 On ch=3 n=g#4 v=100
85200 On ch=3 n=b4 v=100
85200 On ch=3 n=g#5 v=100
85420 On ch=3 n=g#5 v=0
85420 On ch=3 n=b4 v=0
85420 On ch=3 n=g#4 v=0
85440 On ch=3 n=b4 v=100
85440 On ch=3 n=g#4 v=100
85440 On ch=3 n=g#5 v=100
85660 On ch=3 n=g#5 v=0
85660 On ch=3 n=g#4 v=0
85660 On ch=3 n=b4 v=0
85680 On ch=3 n=g#5 v=100
85680 On ch=3 n=g#4 v=100
85680 On ch=3 n=b4 v=100
85900 On ch=3 n=b4 v=0
85900 On ch=3 n=g#4 v=0
85900 On ch=3 n=g#5 v=0
85920 On ch=3 n=g#5 v=100
85920 On ch=3 n=g#4 v=100
85920 On ch=3 n=b4 v=100
86140 On ch=3 n=b4 v=0
86140 On ch=3 n=g#4 v=0
86140 On ch=3 n=g#5 v=0
86160 On ch=3 n=g#4 v=100
86160 On ch=3 n=b4 v=100
86160 On ch=3 n=g#5 v=100
86280 Par ch=3 c=64 v=2
86375 On ch=3 n=g#5 v=0
86375 On ch=3 n=b4 v=0
86375 On ch=3 n=g#4 v=0
86400 On ch=3 n=d#3 v=100
86400 Par ch=3 c=64 v=120
86615 On ch=3 n=d#3 v=0
86640 On ch=3 n=g4 v=100
86640 On ch=3 n=a#4 v=100
86640 On ch=3 n=g5 v=100
86860 On ch=3 n=g5 v=0
86860 On ch=3 n=a#4 v=0
86860 On ch=3 n=g4 v=0
86880 On ch=3 n=a#4 v=102
86880 On ch=3 n=g5 v=102
86880 On ch=3 n=g4 v=102
87100 On ch=3 n=g4 v=0
87100 On ch=3 n=g5 v=0
87100 On ch=3 n=a#4 v=0
87120 On ch=3 n=a#4 v=104
87120 On ch=3 n=g5 v=104
87120 On ch=3 n=g4 v=104
87340 On ch=3 n=g4 v=0
87340 On ch=3 n=g5 v=0
87340 On ch=3 n=a#4 v=0
87360 On ch=3 n=g5 v=107
87360 On ch=3 n=g4 v=107
87360 On ch=3 n=a#4 v=107
87580 On ch=3 n=a#4 v=0
87580 On ch=3 n=g4 v=0
87580 On ch=3 n=g5 v=0
87600 On ch=3 n=a#4 v=112
87600 On ch=3 n=g5 v=112
87600 On ch=3 n=g4 v=112
87820 On ch=3 n=g4 v=0
87820 On ch=3 n=g5 v=0
87820 On ch=3 n=a#4 v=0
87840 On ch=3 n=a#4 v=113
87840 On ch=3 n=g4 v=113
87840 On ch=3 n=g5 v=113
88060 On ch=3 n=g5 v=0
88060 On ch=3 n=g4 v=0
88060 On ch=3 n=a#4 v=0
88080 On ch=3 n=g5 v=114
88080 On ch=3 n=a#4 v=114
88080 On ch=3 n=g4 v=114
88300 On ch=3 n=g4 v=0
88300 On ch=3 n=a#4 v=0
88300 On ch=3 n=g5 v=0
88320 On ch=3 n=g4 v=117
88320 On ch=3 n=g5 v=117
88320 On ch=3 n=a#4 v=117
88540 On ch=3 n=a#4 v=0
88540 On ch=3 n=g5 v=0
88540 On ch=3 n=g4 v=0
88560 On ch=3 n=g4 v=119
88560 On ch=3 n=a#4 v=119
88560 On ch=3 n=g5 v=119
88780 On ch=3 n=g5 v=0
88780 On ch=3 n=a#4 v=0
88780 On ch=3 n=g4 v=0
88800 On ch=3 n=a#4 v=120
88800 On ch=3 n=g4 v=120
88800 On ch=3 n=g5 v=120
89020 On ch=3 n=g5 v=0
89020 On ch=3 n=g4 v=0
89020 On ch=3 n=a#4 v=0
89040 On ch=3 n=a#4 v=123
89040 On ch=3 n=g5 v=123
89040 On ch=3 n=g4 v=123
89160 Par ch=3 c=64 v=2
89260 On ch=3 n=g4 v=0
89260 On ch=3 n=g5 v=0
89260 On ch=3 n=a#4 v=0
89280 On ch=3 n=g4 v=127
89280 On ch=3 n=a#4 v=127
89280 On ch=3 n=g5 v=127
89280 Par ch=3 c=64 v=120
89500 On ch=3 n=g5 v=0
89500 On ch=3 n=a#4 v=0
89500 On ch=3 n=g4 v=0
89520 On ch=3 n=a#4 v=118
89520 On ch=3 n=g5 v=118
89520 On ch=3 n=g4 v=118
89740 On ch=3 n=g4 v=0
89740 On ch=3 n=g5 v=0
89740 On ch=3 n=a#4 v=0
89760 On ch=3 n=g4 v=112
89760 On ch=3 n=g5 v=112
89760 On ch=3 n=a#4 v=112
89980 On ch=3 n=a#4 v=0
89980 On ch=3 n=g5 v=0
89980 On ch=3 n=g4 v=0
90000 On ch=3 n=g4 v=106
90000 On ch=3 n=g5 v=106
90000 On ch=3 n=a#4 v=106
90220 On ch=3 n=a#4 v=0
90220 On ch=3 n=g5 v=0
90220 On ch=3 n=g4 v=0
90240 On ch=3 n=a#4 v=98
90240 On ch=3 n=g4 v=98
90240 On ch=3 n=g5 v=98
90460 On ch=3 n=g5 v=0
90460 On ch=3 n=g4 v=0
90460 On ch=3 n=a#4 v=0
90480 On ch=3 n=g4 v=93
90480 On ch=3 n=a#4 v=93
90480 On ch=3 n=g5 v=93
90600 Par ch=3 c=64 v=2
90700 On ch=3 n=g5 v=0
90700 On ch=3 n=a#4 v=0
90700 On ch=3 n=g4 v=0
90720 On ch=3 n=g4 v=87
90720 On ch=3 n=a#4 v=87
90720 On ch=3 n=g5 v=87
90720 Par ch=3 c=64 v=120
90940 On ch=3 n=g5 v=0
90940 On ch=3 n=a#4 v=0
90940 On ch=3 n=g4 v=0
90960 On ch=3 n=a#4 v=80
90960 On ch=3 n=g4 v=80
90960 On ch=3 n=g5 v=80
91180 On ch=3 n=g5 v=0
91180 On ch=3 n=g4 v=0
91180 On ch=3 n=a#4 v=0
91200 On ch=3 n=g5 v=73
91200 On ch=3 n=a#4 v=73
91200 On ch=3 n=g4 v=73
91420 On ch=3 n=g4 v=0
91420 On ch=3 n=a#4 v=0
91420 On ch=3 n=g5 v=0
91440 On ch=3 n=g5 v=65
91440 On ch=3 n=a#4 v=65
91440 On ch=3 n=g4 v=65
91660 On ch=3 n=g4 v=0
91660 On ch=3 n=a#4 v=0
91660 On ch=3 n=g5 v=0
91680 On ch=3 n=g4 v=59
91680 On ch=3 n=a#4 v=59
91680 On ch=3 n=g5 v=59
91900 On ch=3 n=g5 v=0
91900 On ch=3 n=a#4 v=0
91900 On ch=3 n=g4 v=0
91920 On ch=3 n=g5 v=51
91920 On ch=3 n=a#4 v=51
91920 On ch=3 n=g4 v=51
92040 Par ch=3 c=64 v=2
92135 On ch=3 n=g4 v=0
92135 On ch=3 n=a#4 v=0
92135 On ch=3 n=g5 v=0
92160 Par ch=3 c=64 v=120
92160 On ch=3 n=g#2 v=107
92375 On ch=3 n=g#2 v=0
92400 On ch=3 n=d#4 v=49
92400 On ch=3 n=g#3 v=49
92620 On ch=3 n=g#3 v=0
92620 On ch=3 n=d#4 v=0
92640 On ch=3 n=g#3 v=49
92640 On ch=3 n=d#4 v=49
92860 On ch=3 n=d#4 v=0
92860 On ch=3 n=g#3 v=0
92880 On ch=3 n=a#4 v=49
92880 On ch=3 n=d#4 v=49
92880 On ch=3 n=g#3 v=49
93095 On ch=3 n=g#3 v=0
93100 On ch=3 n=d#4 v=0
93100 On ch=3 n=a#4 v=0
93120 On ch=3 n=a#4 v=49
93120 On ch=3 n=d#4 v=49
93340 On ch=3 n=d#4 v=0
93340 On ch=3 n=a#4 v=0
93360 On ch=3 n=d#4 v=49
93360 On ch=3 n=a#4 v=49
93480 Par ch=3 c=64 v=2
93575 On ch=3 n=a#4 v=0
93580 On ch=3 n=d#4 v=0
93600 On ch=3 n=d#5 v=49
93600 Par ch=3 c=64 v=120
93600 On ch=3 n=d#4 v=49
93600 On ch=3 n=g#4 v=49
93820 On ch=3 n=g#4 v=0
93820 On ch=3 n=d#4 v=0
93820 On ch=3 n=d#5 v=0
93840 On ch=3 n=d#4 v=49
93840 On ch=3 n=g#4 v=49
93840 On ch=3 n=d#5 v=49
94060 On ch=3 n=d#5 v=0
94060 On ch=3 n=g#4 v=0
94060 On ch=3 n=d#4 v=0
94080 On ch=3 n=d#5 v=49
94080 On ch=3 n=g#4 v=49
94080 On ch=3 n=d#4 v=49
94300 On ch=3 n=d#4 v=0
94300 On ch=3 n=g#4 v=0
94300 On ch=3 n=d#5 v=0
94320 On ch=3 n=g#4 v=49
94320 On ch=3 n=d#4 v=49
94320 On ch=3 n=d#5 v=49
94540 On ch=3 n=d#5 v=0
94540 On ch=3 n=d#4 v=0
94540 On ch=3 n=g#4 v=0
94560 On ch=3 n=g#4 v=49
94560 On ch=3 n=d#5 v=49
94560 On ch=3 n=d#4 v=49
94780 On ch=3 n=d#4 v=0
94780 On ch=3 n=d#5 v=0
94780 On ch=3 n=g#4 v=0
94800 On ch=3 n=d#4 v=49
94800 On ch=3 n=g#4 v=49
94800 On ch=3 n=d#5 v=49
94920 Par ch=3 c=64 v=2
95015 On ch=3 n=d#5 v=0
95015 On ch=3 n=g#4 v=0
95015 On ch=3 n=d#4 v=0
95040 On ch=3 n=g#2 v=107
95040 Par ch=3 c=64 v=120
95255 On ch=3 n=g#2 v=0
95280 On ch=3 n=f5 v=48
95280 On ch=3 n=c#5 v=48
95280 On ch=3 n=f4 v=48
95280 On ch=3 n=g#4 v=48
95500 On ch=3 n=g#4 v=0
95500 On ch=3 n=f4 v=0
95500 On ch=3 n=c#5 v=0
95500 On ch=3 n=f5 v=0
95520 On ch=3 n=g#4 v=48
95520 On ch=3 n=f5 v=48
95520 On ch=3 n=c#5 v=48
95520 On ch=3 n=f4 v=48
95740 On ch=3 n=f4 v=0
95740 On ch=3 n=c#5 v=0
95740 On ch=3 n=f5 v=0
95740 On ch=3 n=g#4 v=0
95760 On ch=3 n=f5 v=48
95760 On ch=3 n=g#4 v=48
95760 On ch=3 n=f4 v=48
95760 On ch=3 n=c#5 v=48
95980 On ch=3 n=c#5 v=0
95980 On ch=3 n=f4 v=0
95980 On ch=3 n=g#4 v=0
95980 On ch=3 n=f5 v=0
96000 On ch=3 n=f4 v=48
96000 On ch=3 n=c#5 v=48
96000 On ch=3 n=g#4 v=48
96000 On ch=3 n=f5 v=48
96220 On ch=3 n=f5 v=0
96220 On ch=3 n=g#4 v=0
96220 On ch=3 n=c#5 v=0
96220 On ch=3 n=f4 v=0
96240 On ch=3 n=f5 v=48
96240 On ch=3 n=c#5 v=48
96240 On ch=3 n=g#4 v=48
96240 On ch=3 n=f4 v=48
96360 Par ch=3 c=64 v=2
96455 On ch=3 n=f4 v=0
96455 On ch=3 n=g#4 v=0
96455 On ch=3 n=f5 v=0
96460 On ch=3 n=c#5 v=0
96480 Par ch=3 c=64 v=120
96480 On ch=3 n=g5 v=48
96480 On ch=3 n=g4 v=48
96480 Par ch=3 c=64 v=120
96480 On ch=3 n=c#5 v=48
96480 On ch=3 n=a#4 v=48
96700 On ch=3 n=a#4 v=0
96700 On ch=3 n=c#5 v=0
96700 On ch=3 n=g4 v=0
96700 On ch=3 n=g5 v=0
96720 On ch=3 n=a#4 v=48
96720 On ch=3 n=c#5 v=48
96720 On ch=3 n=g5 v=48
96720 On ch=3 n=g4 v=48
96940 On ch=3 n=g4 v=0
96940 On ch=3 n=g5 v=0
96940 On ch=3 n=c#5 v=0
96940 On ch=3 n=a#4 v=0
96960 On ch=3 n=a#4 v=49
96960 On ch=3 n=c#5 v=49
96960 On ch=3 n=g4 v=49
96960 On ch=3 n=g5 v=49
97080 Par ch=3 c=64 v=1
97175 On ch=3 n=g5 v=0
97175 On ch=3 n=g4 v=0
97175 On ch=3 n=a#4 v=0
97180 On ch=3 n=c#5 v=0
97200 On ch=3 n=c#5 v=49
97200 On ch=3 n=g#5 v=49
97200 Par ch=3 c=64 v=120
97200 On ch=3 n=g#4 v=49
97420 On ch=3 n=g#4 v=0
97420 On ch=3 n=g#5 v=0
97420 On ch=3 n=c#5 v=0
97440 On ch=3 n=g#4 v=49
97440 On ch=3 n=c#5 v=49
97440 On ch=3 n=g#5 v=49
97660 On ch=3 n=g#5 v=0
97660 On ch=3 n=c#5 v=0
97660 On ch=3 n=g#4 v=0
97680 On ch=3 n=c#5 v=49
97680 On ch=3 n=g#4 v=49
97680 On ch=3 n=g#5 v=49
97800 Par ch=3 c=64 v=2
97800 Par ch=3 c=64 v=2
97895 On ch=3 n=g#5 v=0
97895 On ch=3 n=g#4 v=0
97895 On ch=3 n=c#5 v=0
97920 Par ch=3 c=64 v=120
97920 On ch=3 n=g#2 v=106
98135 On ch=3 n=g#2 v=0
98160 On ch=3 n=a#4 v=48
98160 On ch=3 n=g4 v=48
98160 On ch=3 n=g5 v=48
98380 On ch=3 n=g5 v=0
98380 On ch=3 n=g4 v=0
98380 On ch=3 n=a#4 v=0
98400 On ch=3 n=g4 v=48
98400 On ch=3 n=a#4 v=48
98400 On ch=3 n=g5 v=48
98620 On ch=3 n=g5 v=0
98620 On ch=3 n=a#4 v=0
98620 On ch=3 n=g4 v=0
98640 On ch=3 n=g4 v=48
98640 On ch=3 n=a#4 v=48
98640 On ch=3 n=g5 v=48
98860 On ch=3 n=g5 v=0
98860 On ch=3 n=a#4 v=0
98860 On ch=3 n=g4 v=0
98880 On ch=3 n=g5 v=48
98880 On ch=3 n=g4 v=48
98880 On ch=3 n=a#4 v=48
99100 On ch=3 n=a#4 v=0
99100 On ch=3 n=g4 v=0
99100 On ch=3 n=g5 v=0
99120 On ch=3 n=g4 v=48
99120 On ch=3 n=g5 v=48
99120 On ch=3 n=a#4 v=48
99240 Par ch=3 c=64 v=2
99335 On ch=3 n=a#4 v=0
99335 On ch=3 n=g5 v=0
99335 On ch=3 n=g4 v=0
99360 Par ch=3 c=64 v=120
99360 Par ch=3 c=64 v=120
99360 On ch=3 n=f#5 v=48
99360 On ch=3 n=g#4 v=48
99360 On ch=3 n=c5 v=48
99580 On ch=3 n=c5 v=0
99580 On ch=3 n=g#4 v=0
99580 On ch=3 n=f#5 v=0
99600 On ch=3 n=g#4 v=48
99600 On ch=3 n=c5 v=48
99600 On ch=3 n=f#5 v=48
99820 On ch=3 n=f#5 v=0
99820 On ch=3 n=c5 v=0
99820 On ch=3 n=g#4 v=0
99840 On ch=3 n=g#4 v=48
99840 On ch=3 n=c5 v=48
99840 On ch=3 n=f#5 v=48
99960 Par ch=3 c=64 v=1
100055 On ch=3 n=f#5 v=0
100055 On ch=3 n=c5 v=0
100060 On ch=3 n=g#4 v=0
100080 Par ch=3 c=64 v=120
100080 On ch=3 n=g#4 v=48
100080 On ch=3 n=f5 v=48
100080 On ch=3 n=f4 v=48
100300 On ch=3 n=f4 v=0
100300 On ch=3 n=f5 v=0
100300 On ch=3 n=g#4 v=0
100320 On ch=3 n=f5 v=47
100320 On ch=3 n=f4 v=47
100320 On ch=3 n=g#4 v=47
100540 On ch=3 n=g#4 v=0
100540 On ch=3 n=f4 v=0
100540 On ch=3 n=f5 v=0
100560 On ch=3 n=g#4 v=47
100560 On ch=3 n=f4 v=47
100560 On ch=3 n=f5 v=47
100680 Par ch=3 c=64 v=2
100680 Par ch=3 c=64 v=2
100775 On ch=3 n=f5 v=0
100775 On ch=3 n=f4 v=0
100775 On ch=3 n=g#4 v=0
100800 Par ch=3 c=64 v=120
100800 On ch=3 n=g#2 v=106
101015 On ch=3 n=g#2 v=0
101040 On ch=3 n=d#4 v=47
101040 On ch=3 n=g#4 v=47
101040 On ch=3 n=d#5 v=47
101260 On ch=3 n=d#5 v=0
101260 On ch=3 n=g#4 v=0
101260 On ch=3 n=d#4 v=0
101280 On ch=3 n=g#4 v=48
101280 On ch=3 n=d#5 v=48
101280 On ch=3 n=d#4 v=48
101500 On ch=3 n=d#4 v=0
101500 On ch=3 n=d#5 v=0
101500 On ch=3 n=g#4 v=0
101520 On ch=3 n=g#4 v=48
101520 On ch=3 n=d#4 v=48
101520 On ch=3 n=d#5 v=48
101740 On ch=3 n=d#5 v=0
101740 On ch=3 n=d#4 v=0
101740 On ch=3 n=g#4 v=0
101760 On ch=3 n=d#4 v=48
101760 On ch=3 n=g#4 v=48
101760 On ch=3 n=d#5 v=48
101980 On ch=3 n=d#5 v=0
101980 On ch=3 n=g#4 v=0
101980 On ch=3 n=d#4 v=0
102000 On ch=3 n=d#5 v=48
102000 On ch=3 n=g#4 v=48
102000 On ch=3 n=d#4 v=48
102120 Par ch=3 c=64 v=2
102215 On ch=3 n=g#4 v=0
102220 On ch=3 n=d#4 v=0
102220 On ch=3 n=d#5 v=0
102240 On ch=3 n=d#4 v=48
102240 Par ch=3 c=64 v=120
102240 On ch=3 n=d#5 v=48
102460 On ch=3 n=d#5 v=0
102460 On ch=3 n=d#4 v=0
102480 On ch=3 n=d#4 v=48
102480 On ch=3 n=d#5 v=48
102700 On ch=3 n=d#5 v=0
102700 On ch=3 n=d#4 v=0
102720 On ch=3 n=d#5 v=48
102720 On ch=3 n=d#4 v=48
102940 On ch=3 n=d#4 v=0
102940 On ch=3 n=d#5 v=0
102960 On ch=3 n=d#4 v=48
102960 On ch=3 n=d#5 v=48
103180 On ch=3 n=d#5 v=0
103180 On ch=3 n=d#4 v=0
103200 On ch=3 n=d#5 v=48
103200 On ch=3 n=d#4 v=48
103420 On ch=3 n=d#4 v=0
103420 On ch=3 n=d#5 v=0
103440 On ch=3 n=d#5 v=48
103440 On ch=3 n=d#4 v=48
103560 Par ch=3 c=64 v=2
103655 On ch=3 n=d#4 v=0
103655 On ch=3 n=d#5 v=0
103680 On ch=3 n=g#2 v=104
103680 Par ch=3 c=64 v=120
103895 On ch=3 n=g#2 v=0
103920 On ch=3 n=d#4 v=48
103920 On ch=3 n=d#5 v=48
104140 On ch=3 n=d#5 v=0
104140 On ch=3 n=d#4 v=0
104160 On ch=3 n=d#5 v=49
104160 On ch=3 n=d#4 v=49
104380 On ch=3 n=d#4 v=0
104380 On ch=3 n=d#5 v=0
104400 On ch=3 n=d#5 v=49
104400 On ch=3 n=d#4 v=49
104620 On ch=3 n=d#4 v=0
104620 On ch=3 n=d#5 v=0
104640 On ch=3 n=d#5 v=49
104640 On ch=3 n=d#4 v=49
104860 On ch=3 n=d#4 v=0
104860 On ch=3 n=d#5 v=0
104880 On ch=3 n=d#4 v=49
104880 On ch=3 n=d#5 v=49
105000 Par ch=3 c=64 v=2
105100 On ch=3 n=d#5 v=0
105100 On ch=3 n=d#4 v=0
105120 On ch=3 n=d#4 v=49
105120 Par ch=3 c=64 v=120
105120 Par ch=3 c=64 v=120
105120 On ch=3 n=d#5 v=49
105120 On ch=3 n=g#4 v=49
105340 On ch=3 n=g#4 v=0
105340 On ch=3 n=d#5 v=0
105340 On ch=3 n=d#4 v=0
105360 On ch=3 n=d#4 v=49
105360 On ch=3 n=g#4 v=49
105360 On ch=3 n=d#5 v=49
105580 On ch=3 n=d#5 v=0
105580 On ch=3 n=g#4 v=0
105580 On ch=3 n=d#4 v=0
105600 On ch=3 n=g#4 v=49
105600 On ch=3 n=d#5 v=49
105600 On ch=3 n=d#4 v=49
105720 Par ch=3 c=64 v=1
105820 On ch=3 n=d#4 v=0
105820 On ch=3 n=d#5 v=0
105820 On ch=3 n=g#4 v=0
105840 On ch=3 n=d#4 v=49
105840 On ch=3 n=g#4 v=49
105840 On ch=3 n=d#5 v=49
105840 Par ch=3 c=64 v=120
106060 On ch=3 n=d#5 v=0
106060 On ch=3 n=g#4 v=0
106060 On ch=3 n=d#4 v=0
106080 On ch=3 n=d#4 v=49
106080 On ch=3 n=d#5 v=49
106080 On ch=3 n=g#4 v=49
106300 On ch=3 n=g#4 v=0
106300 On ch=3 n=d#5 v=0
106300 On ch=3 n=d#4 v=0
106320 On ch=3 n=g#4 v=51
106320 On ch=3 n=d#5 v=51
106320 On ch=3 n=d#4 v=51
106440 Par ch=3 c=64 v=2
106440 Par ch=3 c=64 v=2
106535 On ch=3 n=d#4 v=0
106535 On ch=3 n=d#5 v=0
106535 On ch=3 n=g#4 v=0
106560 Par ch=3 c=64 v=120
106560 On ch=3 n=g#2 v=111
106775 On ch=3 n=g#2 v=0
106800 On ch=3 n=g#4 v=52
106800 On ch=3 n=f5 v=52
106800 On ch=3 n=c#5 v=52
106800 On ch=3 n=f4 v=52
107020 On ch=3 n=f4 v=0
107020 On ch=3 n=c#5 v=0
107020 On ch=3 n=f5 v=0
107020 On ch=3 n=g#4 v=0
107040 On ch=3 n=f4 v=52
107040 On ch=3 n=c#5 v=52
107040 On ch=3 n=f5 v=52
107040 On ch=3 n=g#4 v=52
107260 On ch=3 n=g#4 v=0
107260 On ch=3 n=f5 v=0
107260 On ch=3 n=c#5 v=0
107260 On ch=3 n=f4 v=0
107280 On ch=3 n=f4 v=52
107280 On ch=3 n=f5 v=52
107280 On ch=3 n=g#4 v=52
107280 On ch=3 n=c#5 v=52
107500 On ch=3 n=c#5 v=0
107500 On ch=3 n=g#4 v=0
107500 On ch=3 n=f5 v=0
107500 On ch=3 n=f4 v=0
107520 On ch=3 n=f5 v=52
107520 On ch=3 n=g#4 v=52
107520 On ch=3 n=c#5 v=52
107520 On ch=3 n=f4 v=52
107740 On ch=3 n=f4 v=0
107740 On ch=3 n=c#5 v=0
107740 On ch=3 n=g#4 v=0
107740 On ch=3 n=f5 v=0
107760 On ch=3 n=f5 v=52
107760 On ch=3 n=f4 v=52
107760 On ch=3 n=g#4 v=52
107760 On ch=3 n=c#5 v=52
107880 Par ch=3 c=64 v=2
107975 On ch=3 n=g#4 v=0
107975 On ch=3 n=f4 v=0
107975 On ch=3 n=f5 v=0
107980 On ch=3 n=c#5 v=0
108000 On ch=3 n=g4 v=52
108000 Par ch=3 c=64 v=120
108000 On ch=3 n=c#5 v=52
108000 Par ch=3 c=64 v=120
108000 On ch=3 n=g5 v=52
108000 On ch=3 n=a#4 v=52
108220 On ch=3 n=a#4 v=0
108220 On ch=3 n=g5 v=0
108220 On ch=3 n=c#5 v=0
108220 On ch=3 n=g4 v=0
108240 On ch=3 n=g5 v=52
108240 On ch=3 n=a#4 v=52
108240 On ch=3 n=c#5 v=52
108240 On ch=3 n=g4 v=52
108460 On ch=3 n=g4 v=0
108460 On ch=3 n=c#5 v=0
108460 On ch=3 n=a#4 v=0
108460 On ch=3 n=g5 v=0
108480 On ch=3 n=g4 v=52
108480 On ch=3 n=a#4 v=52
108480 On ch=3 n=g5 v=52
108480 On ch=3 n=c#5 v=52
108600 Par ch=3 c=64 v=1
108695 On ch=3 n=g5 v=0
108695 On ch=3 n=a#4 v=0
108695 On ch=3 n=g4 v=0
108700 On ch=3 n=c#5 v=0
108720 On ch=3 n=g#4 v=52
108720 On ch=3 n=g#5 v=52
108720 On ch=3 n=c#5 v=52
108720 Par ch=3 c=64 v=120
108940 On ch=3 n=c#5 v=0
108940 On ch=3 n=g#5 v=0
108940 On ch=3 n=g#4 v=0
108960 On ch=3 n=g#5 v=52
108960 On ch=3 n=g#4 v=52
108960 On ch=3 n=c#5 v=52
109180 On ch=3 n=c#5 v=0
109180 On ch=3 n=g#4 v=0
109180 On ch=3 n=g#5 v=0
109200 On ch=3 n=g#5 v=52
109200 On ch=3 n=c#5 v=52
109200 On ch=3 n=g#4 v=52
109320 Par ch=3 c=64 v=2
109320 Par ch=3 c=64 v=2
109415 On ch=3 n=g#4 v=0
109415 On ch=3 n=c#5 v=0
109415 On ch=3 n=g#5 v=0
109440 On ch=3 n=g#2 v=108
109440 Par ch=3 c=64 v=120
109655 On ch=3 n=g#2 v=0
109680 On ch=3 n=g5 v=54
109680 On ch=3 n=a#4 v=54
109680 On ch=3 n=g4 v=54
109900 On ch=3 n=g4 v=0
109900 On ch=3 n=a#4 v=0
109900 On ch=3 n=g5 v=0
109920 On ch=3 n=g4 v=54
109920 On ch=3 n=g5 v=54
109920 On ch=3 n=a#4 v=54
110140 On ch=3 n=a#4 v=0
110140 On ch=3 n=g5 v=0
110140 On ch=3 n=g4 v=0
110160 On ch=3 n=d#5 v=54
110160 On ch=3 n=c#5 v=54
110160 On ch=3 n=g4 v=54
110160 On ch=3 n=a#4 v=54
110160 On ch=3 n=g5 v=54
110380 On ch=3 n=g5 v=0
110380 On ch=3 n=a#4 v=0
110380 On ch=3 n=g4 v=0
110380 On ch=3 n=c#5 v=0
110380 On ch=3 n=d#5 v=0
110400 On ch=3 n=d#5 v=54
110400 On ch=3 n=g5 v=54
110400 On ch=3 n=a#4 v=54
110400 On ch=3 n=c#5 v=54
110400 On ch=3 n=g4 v=54
110620 On ch=3 n=g4 v=0
110620 On ch=3 n=c#5 v=0
110620 On ch=3 n=a#4 v=0
110620 On ch=3 n=g5 v=0
110620 On ch=3 n=d#5 v=0
110640 On ch=3 n=a#4 v=54
110640 On ch=3 n=g5 v=54
110640 On ch=3 n=d#5 v=54
110640 On ch=3 n=c#5 v=54
110640 On ch=3 n=g4 v=54
110760 Par ch=3 c=64 v=2
110855 On ch=3 n=g4 v=0
110855 On ch=3 n=c#5 v=0
110855 On ch=3 n=d#5 v=0
110855 On ch=3 n=g5 v=0
110855 On ch=3 n=a#4 v=0
110880 Par ch=3 c=64 v=120
110880 On ch=3 n=g#4 v=54
110880 On ch=3 n=f#5 v=54
110880 Par ch=3 c=64 v=120
110880 On ch=3 n=c5 v=54
111100 On ch=3 n=c5 v=0
111100 On ch=3 n=f#5 v=0
111100 On ch=3 n=g#4 v=0
111120 On ch=3 n=g#4 v=54
111120 On ch=3 n=f#5 v=54
111120 On ch=3 n=c5 v=54
111340 On ch=3 n=c5 v=0
111340 On ch=3 n=f#5 v=0
111340 On ch=3 n=g#4 v=0
111360 On ch=3 n=g#4 v=54
111360 On ch=3 n=f#5 v=54
111360 On ch=3 n=c5 v=54
111480 Par ch=3 c=64 v=1
111575 On ch=3 n=c5 v=0
111575 On ch=3 n=f#5 v=0
111580 On ch=3 n=g#4 v=0
111600 On ch=3 n=f4 v=54
111600 Par ch=3 c=64 v=120
111600 On ch=3 n=f5 v=54
111600 On ch=3 n=g#4 v=54
111820 On ch=3 n=g#4 v=0
111820 On ch=3 n=f5 v=0
111820 On ch=3 n=f4 v=0
111840 On ch=3 n=f5 v=54
111840 On ch=3 n=f4 v=54
111840 On ch=3 n=g#4 v=54
112060 On ch=3 n=g#4 v=0
112060 On ch=3 n=f4 v=0
112060 On ch=3 n=f5 v=0
112080 On ch=3 n=f5 v=54
112080 On ch=3 n=g#4 v=54
112080 On ch=3 n=f4 v=54
112200 Par ch=3 c=64 v=2
112200 Par ch=3 c=64 v=2
112295 On ch=3 n=f4 v=0
112295 On ch=3 n=g#4 v=0
112295 On ch=3 n=f5 v=0
112320 Par ch=3 c=64 v=120
112320 On ch=3 n=g#2 v=113
112535 On ch=3 n=g#2 v=0
112560 On ch=3 n=e4 v=54
112560 On ch=3 n=g#4 v=54
112560 On ch=3 n=e5 v=54
112780 On ch=3 n=e5 v=0
112780 On ch=3 n=g#4 v=0
112780 On ch=3 n=e4 v=0
112800 On ch=3 n=e4 v=54
112800 On ch=3 n=g#4 v=54
112800 On ch=3 n=e5 v=54
113020 On ch=3 n=e5 v=0
113020 On ch=3 n=g#4 v=0
113020 On ch=3 n=e4 v=0
113040 On ch=3 n=e4 v=54
113040 On ch=3 n=g#4 v=54
113040 On ch=3 n=e5 v=54
113260 On ch=3 n=e5 v=0
113260 On ch=3 n=g#4 v=0
113260 On ch=3 n=e4 v=0
113280 On ch=3 n=e4 v=54
113280 On ch=3 n=g#4 v=54
113280 On ch=3 n=e5 v=54
113500 On ch=3 n=e5 v=0
113500 On ch=3 n=g#4 v=0
113500 On ch=3 n=e4 v=0
113520 On ch=3 n=e5 v=54
113520 On ch=3 n=e4 v=54
113520 On ch=3 n=g#4 v=54
113640 Par ch=3 c=64 v=2
113735 On ch=3 n=e4 v=0
113735 On ch=3 n=e5 v=0
113740 On ch=3 n=g#4 v=0
113760 On ch=3 n=d#4 v=54
113760 On ch=3 n=g#4 v=54
113760 Par ch=3 c=64 v=120
113760 On ch=3 n=d#5 v=54
113980 On ch=3 n=d#5 v=0
113980 On ch=3 n=g#4 v=0
113980 On ch=3 n=d#4 v=0
114000 On ch=3 n=g#4 v=53
114000 On ch=3 n=d#5 v=53
114000 On ch=3 n=d#4 v=53
114220 On ch=3 n=d#4 v=0
114220 On ch=3 n=d#5 v=0
114220 On ch=3 n=g#4 v=0
114240 On ch=3 n=g#4 v=53
114240 On ch=3 n=d#5 v=53
114240 On ch=3 n=d#4 v=53
114460 On ch=3 n=d#4 v=0
114460 On ch=3 n=d#5 v=0
114460 On ch=3 n=g#4 v=0
114480 On ch=3 n=g#4 v=52
114480 On ch=3 n=d#4 v=52
114480 On ch=3 n=d#5 v=52
114700 On ch=3 n=d#5 v=0
114700 On ch=3 n=d#4 v=0
114700 On ch=3 n=g#4 v=0
114720 On ch=3 n=d#4 v=52
114720 On ch=3 n=g#4 v=52
114720 On ch=3 n=d#5 v=52
114940 On ch=3 n=d#5 v=0
114940 On ch=3 n=g#4 v=0
114940 On ch=3 n=d#4 v=0
114960 On ch=3 n=g#4 v=52
114960 On ch=3 n=d#5 v=52
114960 On ch=3 n=d#4 v=52
115080 Par ch=3 c=64 v=2
115175 On ch=3 n=d#4 v=0
115175 On ch=3 n=d#5 v=0
115175 On ch=3 n=g#4 v=0
115200 On ch=3 n=g#2 v=109
115200 Par ch=3 c=64 v=120
115415 On ch=3 n=g#2 v=0
115440 On ch=3 n=g#4 v=51
115440 On ch=3 n=e5 v=51
115440 On ch=3 n=e4 v=51
115660 On ch=3 n=e4 v=0
115660 On ch=3 n=e5 v=0
115660 On ch=3 n=g#4 v=0
115680 On ch=3 n=e4 v=51
115680 On ch=3 n=g#4 v=51
115680 On ch=3 n=e5 v=51
115900 On ch=3 n=e5 v=0
115900 On ch=3 n=g#4 v=0
115900 On ch=3 n=e4 v=0
115920 On ch=3 n=e4 v=51
115920 On ch=3 n=g#4 v=51
115920 On ch=3 n=e5 v=51
116140 On ch=3 n=e5 v=0
116140 On ch=3 n=g#4 v=0
116140 On ch=3 n=e4 v=0
116160 On ch=3 n=g#4 v=51
116160 On ch=3 n=e4 v=51
116160 On ch=3 n=e5 v=51
116380 On ch=3 n=e5 v=0
116380 On ch=3 n=e4 v=0
116380 On ch=3 n=g#4 v=0
116400 On ch=3 n=e4 v=51
116400 On ch=3 n=e5 v=51
116400 On ch=3 n=g#4 v=51
116520 Par ch=3 c=64 v=2
116615 On ch=3 n=e5 v=0
116615 On ch=3 n=e4 v=0
116620 On ch=3 n=g#4 v=0
116640 On ch=3 n=g#4 v=51
116640 On ch=3 n=d#4 v=51
116640 Par ch=3 c=64 v=120
116640 On ch=3 n=d#5 v=51
116640 Par ch=3 c=64 v=120
116860 On ch=3 n=d#5 v=0
116860 On ch=3 n=d#4 v=0
116860 On ch=3 n=g#4 v=0
116880 On ch=3 n=d#4 v=51
116880 On ch=3 n=g#4 v=51
116880 On ch=3 n=d#5 v=51
117100 On ch=3 n=d#5 v=0
117100 On ch=3 n=g#4 v=0
117100 On ch=3 n=d#4 v=0
117120 On ch=3 n=d#4 v=51
117120 On ch=3 n=d#5 v=51
117120 On ch=3 n=g#4 v=51
117240 Par ch=3 c=64 v=1
117335 On ch=3 n=d#5 v=0
117335 On ch=3 n=d#4 v=0
117340 On ch=3 n=g#4 v=0
117360 Par ch=3 c=64 v=120
117360 On ch=3 n=e5 v=51
117360 On ch=3 n=g#4 v=51
117360 On ch=3 n=e4 v=51
117580 On ch=3 n=e4 v=0
117580 On ch=3 n=g#4 v=0
117580 On ch=3 n=e5 v=0
117600 On ch=3 n=e5 v=51
117600 On ch=3 n=e4 v=51
117600 On ch=3 n=g#4 v=51
117820 On ch=3 n=g#4 v=0
117820 On ch=3 n=e4 v=0
117820 On ch=3 n=e5 v=0
117840 On ch=3 n=e4 v=51
117840 On ch=3 n=g#4 v=51
117840 On ch=3 n=e5 v=51
117960 Par ch=3 c=64 v=2
117960 Par ch=3 c=64 v=2
118055 On ch=3 n=e5 v=0
118055 On ch=3 n=e4 v=0
118060 On ch=3 n=g#4 v=0
118080 On ch=3 n=d#4 v=51
118080 On ch=3 n=g#4 v=51
118080 Par ch=3 c=64 v=120
118080 On ch=3 n=d#5 v=51
118300 On ch=3 n=d#5 v=0
118300 On ch=3 n=g#4 v=0
118300 On ch=3 n=d#4 v=0
118320 On ch=3 n=g#4 v=51
118320 On ch=3 n=d#4 v=51
118320 On ch=3 n=d#5 v=51
118540 On ch=3 n=d#5 v=0
118540 On ch=3 n=d#4 v=0
118540 On ch=3 n=g#4 v=0
118560 On ch=3 n=g#4 v=51
118560 On ch=3 n=d#5 v=51
118560 On ch=3 n=d#4 v=51
118780 On ch=3 n=d#4 v=0
118780 On ch=3 n=d#5 v=0
118780 On ch=3 n=g#4 v=0
118800 On ch=3 n=g#4 v=51
118800 On ch=3 n=d#5 v=51
118800 On ch=3 n=d#4 v=51
119020 On ch=3 n=d#4 v=0
119020 On ch=3 n=d#5 v=0
119020 On ch=3 n=g#4 v=0
119040 On ch=3 n=d#4 v=51
119040 On ch=3 n=g#4 v=51
119040 On ch=3 n=d#5 v=51
119260 On ch=3 n=d#5 v=0
119260 On ch=3 n=g#4 v=0
119260 On ch=3 n=d#4 v=0
119280 On ch=3 n=g#4 v=51
119280 On ch=3 n=d#5 v=51
119280 On ch=3 n=d#4 v=51
119400 Par ch=3 c=64 v=2
119495 On ch=3 n=d#4 v=0
119495 On ch=3 n=d#5 v=0
119495 On ch=3 n=g#4 v=0
119520 On ch=3 n=g#2 v=106
119520 Par ch=3 c=64 v=120
119735 On ch=3 n=g#2 v=0
119760 On ch=3 n=g#4 v=51
119760 On ch=3 n=d#5 v=51
119760 On ch=3 n=d#4 v=51
119980 On ch=3 n=d#4 v=0
119980 On ch=3 n=d#5 v=0
119980 On ch=3 n=g#4 v=0
120000 On ch=3 n=d#4 v=52
120000 On ch=3 n=d#5 v=52
120000 On ch=3 n=g#4 v=52
120120 Par ch=3 c=64 v=1
120220 On ch=3 n=g#4 v=0
120220 On ch=3 n=d#5 v=0
120220 On ch=3 n=d#4 v=0
120240 On ch=3 n=d#4 v=49
120240 On ch=3 n=g#4 v=49
120240 Par ch=3 c=64 v=120
120240 On ch=3 n=d#5 v=49
120455 On ch=3 n=d#5 v=0
120460 On ch=3 n=g#4 v=0
120460 On ch=3 n=d#4 v=0
120480 On ch=3 n=g#4 v=46
120480 On ch=3 n=d#4 v=46
120480 On ch=3 n=c#5 v=46
120700 On ch=3 n=c#5 v=0
120700 On ch=3 n=d#4 v=0
120700 On ch=3 n=g#4 v=0
120720 On ch=3 n=d#4 v=45
120720 On ch=3 n=c#5 v=45
120720 On ch=3 n=g#4 v=45
120760 Par ch=3 c=64 v=2
120935 On ch=3 n=c#5 v=0
120940 On ch=3 n=g#4 v=0
120940 On ch=3 n=d#4 v=0
120960 On ch=3 n=d#4 v=45
120960 On ch=3 n=d#5 v=45
120960 On ch=3 n=g#4 v=45
120960 Par ch=3 c=64 v=120
121180 On ch=3 n=g#4 v=0
121180 On ch=3 n=d#5 v=0
121180 On ch=3 n=d#4 v=0
121200 On ch=3 n=d#5 v=43
121200 On ch=3 n=d#4 v=43
121200 On ch=3 n=g#4 v=43
121420 On ch=3 n=g#4 v=0
121420 On ch=3 n=d#4 v=0
121420 On ch=3 n=d#5 v=0
121440 On ch=3 n=g#4 v=43
121440 On ch=3 n=d#5 v=43
121440 On ch=3 n=d#4 v=43
121560 Par ch=3 c=64 v=1
121660 On ch=3 n=d#4 v=0
121660 On ch=3 n=d#5 v=0
121660 On ch=3 n=g#4 v=0
121680 On ch=3 n=d#4 v=42
121680 Par ch=3 c=64 v=120
121680 On ch=3 n=g#4 v=42
121680 On ch=3 n=d#5 v=42
121895 On ch=3 n=d#5 v=0
121900 On ch=3 n=g#4 v=0
121900 On ch=3 n=d#4 v=0
121920 On ch=3 n=d#4 v=40
121920 On ch=3 n=c#5 v=40
121920 On ch=3 n=g#4 v=40
122140 On ch=3 n=g#4 v=0
122140 On ch=3 n=c#5 v=0
122140 On ch=3 n=d#4 v=0
122160 Par ch=3 c=64 v=1
122160 On ch=3 n=c#5 v=40
122160 On ch=3 n=g#4 v=40
122160 On ch=3 n=d#4 v=40
122320 Par ch=3 c=64 v=2
122375 On ch=3 n=c#5 v=0
122380 On ch=3 n=d#4 v=0
122380 On ch=3 n=g#4 v=0
122400 On ch=3 n=d#5 v=37
122400 On ch=3 n=d#4 v=37
122400 On ch=3 n=g#4 v=37
122400 Par ch=3 c=64 v=120
122620 On ch=3 n=g#4 v=0
122620 On ch=3 n=d#4 v=0
122620 On ch=3 n=d#5 v=0
122640 On ch=3 n=d#4 v=35
122640 On ch=3 n=g#4 v=35
122640 On ch=3 n=d#5 v=35
122855 On ch=3 n=g#4 v=0
122860 On ch=3 n=d#5 v=0
122860 On ch=3 n=d#4 v=0
122880 On ch=3 n=g4 v=35
122880 On ch=3 n=d#4 v=35
122880 Par ch=3 c=64 v=2
122880 On ch=3 n=d#5 v=35
123080 Par ch=3 c=64 v=1
123095 On ch=3 n=g4 v=0
123100 On ch=3 n=d#5 v=0
123100 On ch=3 n=d#4 v=0
123120 Par ch=3 c=64 v=120
123120 On ch=3 n=g#4 v=34
123120 On ch=3 n=d#4 v=34
123120 On ch=3 n=d#5 v=34
123340 On ch=3 n=d#5 v=0
123340 On ch=3 n=d#4 v=0
123340 On ch=3 n=g#4 v=0
123360 On ch=3 n=d#5 v=32
123360 On ch=3 n=d#4 v=32
123360 On ch=3 n=g#4 v=32
123575 On ch=3 n=g#4 v=0
123580 On ch=3 n=d#4 v=0
123580 On ch=3 n=d#5 v=0
123600 On ch=3 n=d#4 v=30
123600 On ch=3 n=d#5 v=30
123600 On ch=3 n=g4 v=30
123600 Par ch=3 c=64 v=2
123815 On ch=3 n=g4 v=0
123820 On ch=3 n=d#5 v=0
123820 On ch=3 n=d#4 v=0
123840 Par ch=3 c=64 v=120
123840 On ch=3 n=d#5 v=27
123840 On ch=3 n=d#4 v=27
123840 On ch=3 n=g#4 v=27
124060 On ch=3 n=g#4 v=0
124060 On ch=3 n=d#4 v=0
124060 On ch=3 n=d#5 v=0
124080 On ch=3 n=d#5 v=27
124080 On ch=3 n=d#4 v=27
124080 On ch=3 n=g#4 v=27
124295 On ch=3 n=g#4 v=0
124300 On ch=3 n=d#4 v=0
124300 On ch=3 n=d#5 v=0
124320 On ch=3 n=d#4 v=25
124320 Par ch=3 c=64 v=2
124320 On ch=3 n=g4 v=25
124320 On ch=3 n=d#5 v=25
124520 Par ch=3 c=64 v=1
124535 On ch=3 n=g4 v=0
124540 On ch=3 n=d#5 v=0
124540 On ch=3 n=d#4 v=0
124560 On ch=3 n=g#4 v=24
124560 On ch=3 n=d#4 v=24
124560 Par ch=3 c=64 v=120
124560 On ch=3 n=d#5 v=24
124780 On ch=3 n=d#5 v=0
124780 On ch=3 n=d#4 v=0
124780 On ch=3 n=g#4 v=0
124800 On ch=3 n=g#4 v=24
124800 On ch=3 n=d#4 v=24
124800 On ch=3 n=d#5 v=24
125015 On ch=3 n=g#4 v=0
125020 On ch=3 n=d#5 v=0
125020 On ch=3 n=d#4 v=0
125040 On ch=3 n=d#5 v=24
125040 On ch=3 n=g4 v=24
125040 Par ch=3 c=64 v=2
125040 On ch=3 n=d#4 v=24
125255 On ch=3 n=d#4 v=0
125255 On ch=3 n=g4 v=0
125255 On ch=3 n=d#5 v=0
125280 On ch=3 n=g#2 v=82
125280 Par ch=3 c=64 v=122
125320 Par ch=3 c=64 v=123
125400 Par ch=3 c=66 v=123
125495 On ch=3 n=g#2 v=0
125520 On ch=3 n=d#4 v=24
125520 On ch=3 n=g#4 v=24
125520 On ch=3 n=d#5 v=24
125740 On ch=3 n=d#5 v=0
125740 On ch=3 n=g#4 v=0
125740 On ch=3 n=d#4 v=0
125760 On ch=3 n=g#4 v=29
125760 On ch=3 n=d#4 v=29
125760 On ch=3 n=d#5 v=29
125980 On ch=3 n=d#5 v=0
125980 On ch=3 n=d#4 v=0
125980 On ch=3 n=g#4 v=0
126000 On ch=3 n=g#4 v=31
126000 On ch=3 n=d#4 v=31
126000 On ch=3 n=d#5 v=31
126220 On ch=3 n=d#5 v=0
126220 On ch=3 n=d#4 v=0
126220 On ch=3 n=g#4 v=0
126240 On ch=3 n=d#4 v=35
126240 On ch=3 n=d#5 v=35
126240 On ch=3 n=g#4 v=35
126460 On ch=3 n=g#4 v=0
126460 On ch=3 n=d#5 v=0
126460 On ch=3 n=d#4 v=0
126480 On ch=3 n=g#4 v=40
126480 On ch=3 n=d#5 v=40
126480 On ch=3 n=d#4 v=40
126700 On ch=3 n=d#4 v=0
126700 On ch=3 n=d#5 v=0
126700 On ch=3 n=g#4 v=0
126720 On ch=3 n=g#4 v=45
126720 On ch=3 n=d#4 v=45
126720 On ch=3 n=d#5 v=45
126940 On ch=3 n=d#5 v=0
126940 On ch=3 n=d#4 v=0
126940 On ch=3 n=g#4 v=0
126960 On ch=3 n=g#4 v=48
126960 On ch=3 n=d#5 v=48
126960 On ch=3 n=d#4 v=48
127180 On ch=3 n=d#4 v=0
127180 On ch=3 n=d#5 v=0
127180 On ch=3 n=g#4 v=0
127200 On ch=3 n=g#4 v=53
127200 On ch=3 n=d#5 v=53
127200 On ch=3 n=d#4 v=53
127420 On ch=3 n=d#4 v=0
127420 On ch=3 n=d#5 v=0
127420 On ch=3 n=g#4 v=0
127440 On ch=3 n=d#4 v=62
127440 On ch=3 n=g#4 v=62
127440 On ch=3 n=d#5 v=62
127655 On ch=3 n=d#5 v=0
127660 On ch=3 n=g#4 v=0
127660 On ch=3 n=d#4 v=0
127680 On ch=3 n=g#4 v=52
127680 On ch=3 n=d#4 v=52
127900 On ch=3 n=d#4 v=0
127900 On ch=3 n=g#4 v=0
127920 On ch=3 n=d#4 v=38
127920 On ch=3 n=g#4 v=38
127920 On ch=3 n=d#5 v=38
128140 On ch=3 n=d#5 v=0
128140 On ch=3 n=g#4 v=0
128140 On ch=3 n=d#4 v=0
128160 On ch=3 n=g#4 v=38
128160 On ch=3 n=d#5 v=38
128160 On ch=3 n=d#4 v=38
130295 On ch=3 n=d#4 v=0
130295 On ch=3 n=d#5 v=0
130295 On ch=3 n=g#4 v=0
130320 Par ch=3 c=65 v=2
130400 Par ch=3 c=66 v=0
130400 Meta TrkEnd
TrkEnd
MTrk
0 SeqSpec 43 00 01 00
0 SeqSpec 4a 41 5a 5a 01 00 00 00 00 00 00 00 00 00 00 00 00 00 00 00
0 Meta TrkEnd
TrkEnd
MTrk
0 SeqSpec 43 00 01 00
0 Meta TrkName "Chopin, Op. 28, No. 17"
0 Par ch=1 c=0 v=0
0 SeqSpec 4a 41 5a 5a 01 00 00 00 00 00 00 00 00 00 00 00 00 00 00 00
0 Meta TrkEnd
TrkEnd
MTrk
0 SeqSpec 43 00 01 00
0 Meta TrkName "Prelude in Ab Major"
0 Par ch=1 c=0 v=0
0 SeqSpec 4a 41 5a 5a 01 00 00 00 00 00 00 00 00 00 00 00 00 00 00 00
0 Meta TrkEnd
TrkEnd
MTrk
0 SeqSpec 43 00 01 00
0 SeqSpec 4a 41 5a 5a 01 00 00 00 00 00 00 00 00 00 00 00 00 00 00 00
0 Meta TrkEnd
TrkEnd
MTrk
0 SeqSpec 43 00 01 00
0 Meta TrkName "Sequenced by Mark J. Walter"
0 Par ch=1 c=0 v=0
0 SeqSpec 4a 41 5a 5a 01 00 00 00 00 00 00 00 00 00 00 00 00 00 00 00
0 Meta TrkEnd
TrkEnd
MTrk
0 SeqSpec 43 00 01 00
0 Meta TrkName "(mwalter@bcpl.net)"
0 Par ch=1 c=0 v=0
0 SeqSpec 4a 41 5a 5a 01 00 00 00 00 00 00 00 00 00 00 00 00 00 00 00
0 Meta TrkEnd
TrkEnd
