MFile 1 9 480
MTrk
0 TimeSig 6/4 24 8
0 KeySig 2 major
0 Tempo 340909
2880 TimeSig 9/4 24 8
7200 TimeSig 6/4 24 8
11520 Tempo 312500
12960 Tempo 340909
17280 Tempo 312500
18720 Tempo 340909
20160 Tempo 312500
21600 Tempo 340909
23520 Tempo 416667
24480 Tempo 340909
26400 Tempo 416667
27360 Tempo 476190
28800 Tempo 555556
30240 Tempo 340909
38880 Tempo 416667
44640 Tempo 357143
69120 Tempo 416667
70560 Tempo 476190
72000 Tempo 600000
73440 Tempo 340909
84960 Tempo 476190
90720 KeySig -3 major
90720 Tempo 340909
119520 Tempo 476190
125280 KeySig 5 major
125280 Tempo 416667
133920 TimeSig 9/4 24 8
138240 TimeSig 6/4 24 8
155520 KeySig 2 major
155520 Tempo 340909
155520 Meta TrkEnd
TrkEnd
MTrk
0 SeqSpec 43 00 01 00
0 Meta TrkName "Right Treble"
0 Meta 0x21 00
480 On ch=1 n=a#5 v=40
480 On ch=1 n=a5 v=40
480 On ch=1 n=g5 v=40
600 On ch=1 n=g5 v=0
600 On ch=1 n=a5 v=0
600 On ch=1 n=a#5 v=0
1920 On ch=1 n=a#5 v=40
1920 On ch=1 n=a5 v=40
1920 On ch=1 n=g5 v=40
2040 On ch=1 n=g5 v=0
2040 On ch=1 n=a5 v=0
2040 On ch=1 n=a#5 v=0
3360 On ch=1 n=g5 v=40
3360 On ch=1 n=a5 v=40
3360 On ch=1 n=b5 v=40
3480 On ch=1 n=b5 v=0
3480 On ch=1 n=a5 v=0
3480 On ch=1 n=g5 v=0
4800 On ch=1 n=b5 v=40
4800 On ch=1 n=a5 v=40
4800 On ch=1 n=g5 v=40
4920 On ch=1 n=g5 v=0
4920 On ch=1 n=a5 v=0
4920 On ch=1 n=b5 v=0
8640 On ch=1 n=b5 v=40
8640 On ch=1 n=a5 v=40
8640 On ch=1 n=g5 v=40
8760 On ch=1 n=g5 v=0
8760 On ch=1 n=a5 v=0
8760 On ch=1 n=b5 v=0
9600 On ch=1 n=b6 v=40
9600 On ch=1 n=a6 v=40
9600 On ch=1 n=g6 v=40
9720 On ch=1 n=g6 v=0
9720 On ch=1 n=a6 v=0
9720 On ch=1 n=b6 v=0
11520 On ch=1 n=d6 v=90
11680 On ch=1 n=d6 v=0
11680 On ch=1 n=g#6 v=90
11840 On ch=1 n=g#6 v=0
11840 On ch=1 n=c#7 v=90
12000 On ch=1 n=c#7 v=0
12000 On ch=1 n=a#6 v=100
12160 On ch=1 n=a#6 v=0
12160 On ch=1 n=f6 v=100
12320 On ch=1 n=f6 v=0
12320 On ch=1 n=b5 v=100
12400 On ch=1 n=a#5 v=110
12440 On ch=1 n=a#5 v=0
12440 On ch=1 n=e6 v=110
12480 On ch=1 n=e6 v=0
12480 On ch=1 n=b5 v=0
12480 On ch=1 n=a6 v=110
12600 On ch=1 n=a6 v=0
14400 On ch=1 n=b5 v=40
14400 On ch=1 n=a5 v=40
14400 On ch=1 n=g5 v=40
14520 On ch=1 n=g5 v=0
14520 On ch=1 n=a5 v=0
14520 On ch=1 n=b5 v=0
15360 On ch=1 n=b6 v=40
15360 On ch=1 n=a6 v=40
15360 On ch=1 n=g6 v=40
15480 On ch=1 n=g6 v=0
15480 On ch=1 n=a6 v=0
15480 On ch=1 n=b6 v=0
17280 On ch=1 n=d6 v=90
17440 On ch=1 n=d6 v=0
17440 On ch=1 n=g#6 v=90
17600 On ch=1 n=g#6 v=0
17600 On ch=1 n=c#7 v=90
17760 On ch=1 n=c#7 v=0
17760 On ch=1 n=a#6 v=100
17920 On ch=1 n=a#6 v=0
17920 On ch=1 n=f6 v=100
18080 On ch=1 n=f6 v=0
18080 On ch=1 n=b5 v=100
18160 On ch=1 n=a#5 v=110
18200 On ch=1 n=a#5 v=0
18200 On ch=1 n=e6 v=110
18240 On ch=1 n=e6 v=0
18240 On ch=1 n=b5 v=0
18240 On ch=1 n=a6 v=110
18360 On ch=1 n=a6 v=0
20160 On ch=1 n=g5 v=110
20320 On ch=1 n=g5 v=0
20320 On ch=1 n=c#6 v=110
20480 On ch=1 n=c#6 v=0
20480 On ch=1 n=f#6 v=110
20640 On ch=1 n=f#6 v=0
20640 On ch=1 n=d#6 v=100
20800 On ch=1 n=d#6 v=0
20800 On ch=1 n=a#5 v=100
20960 On ch=1 n=a#5 v=0
20960 On ch=1 n=e5 v=100
21040 On ch=1 n=d#5 v=90
21080 On ch=1 n=d#5 v=0
21080 On ch=1 n=a5 v=90
21120 On ch=1 n=a5 v=0
21120 On ch=1 n=e5 v=0
21120 On ch=1 n=d6 v=90
21240 On ch=1 n=d6 v=0
22560 On ch=1 n=g6 v=80
22656 On ch=1 n=g6 v=0
22656 On ch=1 n=g#6 v=80
22752 On ch=1 n=g#6 v=0
22752 On ch=1 n=a#6 v=80
22848 On ch=1 n=a#6 v=0
22848 On ch=1 n=c7 v=80
22944 On ch=1 n=c7 v=0
22944 On ch=1 n=d7 v=80
23520 On ch=1 n=d7 v=0
23520 On ch=1 n=d#7 v=80
23520 On ch=1 n=d#8 v=80
23760 On ch=1 n=d#8 v=0
23760 On ch=1 n=d#7 v=0
24000 On ch=1 n=e8 v=70
24000 On ch=1 n=e7 v=70
24240 On ch=1 n=e7 v=0
24240 On ch=1 n=e8 v=0
25440 On ch=1 n=g6 v=80
25536 On ch=1 n=g6 v=0
25536 On ch=1 n=g#6 v=80
25632 On ch=1 n=g#6 v=0
25632 On ch=1 n=a#6 v=80
25728 On ch=1 n=a#6 v=0
25728 On ch=1 n=c7 v=80
25824 On ch=1 n=c7 v=0
25824 On ch=1 n=d7 v=80
26400 On ch=1 n=d7 v=0
26400 On ch=1 n=d#7 v=80
26400 On ch=1 n=d#8 v=80
26640 On ch=1 n=d#8 v=0
26640 On ch=1 n=d#7 v=0
26880 On ch=1 n=e8 v=70
26880 On ch=1 n=e7 v=70
27120 On ch=1 n=e7 v=0
27120 On ch=1 n=e8 v=0
28320 On ch=1 n=e6 v=40
28320 On ch=1 n=d6 v=40
28320 On ch=1 n=e5 v=40
28320 On ch=1 n=d5 v=40
28440 On ch=1 n=d5 v=0
28440 On ch=1 n=e5 v=0
28440 On ch=1 n=d6 v=0
28440 On ch=1 n=e6 v=0
29760 On ch=1 n=e5 v=40
29760 On ch=1 n=d5 v=40
29880 On ch=1 n=d5 v=0
29880 On ch=1 n=e5 v=0
30040 On ch=1 n=a#6 v=40
30080 On ch=1 n=a#6 v=0
30080 On ch=1 n=a6 v=40
30120 On ch=1 n=a6 v=0
30120 On ch=1 n=a#5 v=40
30160 On ch=1 n=a#5 v=0
30720 On ch=1 n=d#5 v=60
30960 On ch=1 n=d#5 v=0
30960 On ch=1 n=f#5 v=60
31200 On ch=1 n=f#5 v=0
31200 On ch=1 n=d#5 v=60
31320 On ch=1 n=d#5 v=0
31480 On ch=1 n=a#6 v=40
31520 On ch=1 n=a#6 v=0
31520 On ch=1 n=a6 v=40
31560 On ch=1 n=a6 v=0
31560 On ch=1 n=a#5 v=40
31600 On ch=1 n=a#5 v=0
32280 On ch=1 n=a5 v=60
32320 On ch=1 n=a5 v=0
32320 On ch=1 n=a#5 v=60
32360 On ch=1 n=a#5 v=0
32360 On ch=1 n=c#6 v=60
32400 On ch=1 n=c#6 v=0
32400 On ch=1 n=d#6 v=60
32440 On ch=1 n=d#6 v=0
32440 On ch=1 n=c#6 v=60
32480 On ch=1 n=c#6 v=0
32480 On ch=1 n=a#5 v=60
32520 On ch=1 n=a#5 v=0
32520 On ch=1 n=a5 v=60
32560 On ch=1 n=a5 v=0
32920 On ch=1 n=a#6 v=40
32960 On ch=1 n=a#6 v=0
32960 On ch=1 n=a6 v=40
33000 On ch=1 n=a6 v=0
33000 On ch=1 n=a#5 v=40
33040 On ch=1 n=a#5 v=0
33600 On ch=1 n=d#5 v=60
33840 On ch=1 n=d#5 v=0
33840 On ch=1 n=f#5 v=60
34080 On ch=1 n=f#5 v=0
34080 On ch=1 n=d#5 v=60
34200 On ch=1 n=d#5 v=0
34360 On ch=1 n=a#6 v=40
34400 On ch=1 n=a#6 v=0
34400 On ch=1 n=a6 v=40
34440 On ch=1 n=a6 v=0
34440 On ch=1 n=a#5 v=40
34480 On ch=1 n=a#5 v=0
35160 On ch=1 n=a5 v=60
35200 On ch=1 n=a5 v=0
35200 On ch=1 n=a#5 v=60
35240 On ch=1 n=a#5 v=0
35240 On ch=1 n=c#6 v=60
35280 On ch=1 n=c#6 v=0
35280 On ch=1 n=d#6 v=60
35320 On ch=1 n=d#6 v=0
35320 On ch=1 n=c#6 v=60
35360 On ch=1 n=c#6 v=0
35360 On ch=1 n=a#5 v=60
35400 On ch=1 n=a#5 v=0
35400 On ch=1 n=a5 v=60
35440 On ch=1 n=a5 v=0
35800 On ch=1 n=a#6 v=40
35840 On ch=1 n=a#6 v=0
35840 On ch=1 n=a6 v=40
35880 On ch=1 n=a6 v=0
35880 On ch=1 n=a#5 v=40
35920 On ch=1 n=a#5 v=0
36600 On ch=1 n=a5 v=60
36640 On ch=1 n=a5 v=0
36640 On ch=1 n=a#5 v=60
36680 On ch=1 n=a#5 v=0
36680 On ch=1 n=c#6 v=60
36720 On ch=1 n=c#6 v=0
36720 On ch=1 n=d#6 v=60
36760 On ch=1 n=d#6 v=0
36760 On ch=1 n=c#6 v=60
36800 On ch=1 n=c#6 v=0
36800 On ch=1 n=a#5 v=60
36840 On ch=1 n=a#5 v=0
36840 On ch=1 n=a5 v=60
36880 On ch=1 n=a5 v=0
38040 On ch=1 n=a5 v=60
38080 On ch=1 n=a5 v=0
38080 On ch=1 n=a#5 v=60
38120 On ch=1 n=a#5 v=0
38120 On ch=1 n=c#6 v=60
38160 On ch=1 n=c#6 v=0
38160 On ch=1 n=d#6 v=60
38200 On ch=1 n=d#6 v=0
38200 On ch=1 n=c#6 v=60
38240 On ch=1 n=c#6 v=0
38240 On ch=1 n=a#5 v=60
38280 On ch=1 n=a#5 v=0
38280 On ch=1 n=a5 v=60
38320 On ch=1 n=a5 v=0
39264 On ch=1 n=d5 v=60
39360 On ch=1 n=d5 v=0
39360 On ch=1 n=f#5 v=70
39456 On ch=1 n=f#5 v=0
39456 On ch=1 n=a5 v=70
39552 On ch=1 n=a5 v=0
39552 On ch=1 n=d6 v=70
39648 On ch=1 n=d6 v=0
39648 On ch=1 n=f#6 v=70
39744 On ch=1 n=f#6 v=0
39744 On ch=1 n=a6 v=70
39840 On ch=1 n=a5 v=80
40800 On ch=1 n=a5 v=0
40800 On ch=1 n=a6 v=0
40800 On ch=1 n=e7 v=80
40800 On ch=1 n=e6 v=80
41760 On ch=1 n=e6 v=0
41760 On ch=1 n=e7 v=0
42240 On ch=1 n=a6 v=60
42240 On ch=1 n=e6 v=60
42240 On ch=1 n=a5 v=60
42360 On ch=1 n=a5 v=0
42360 On ch=1 n=e6 v=0
42360 On ch=1 n=a6 v=0
42720 On ch=1 n=e7 v=50
42720 On ch=1 n=e6 v=50
42840 On ch=1 n=e6 v=0
42840 On ch=1 n=e7 v=0
43680 On ch=1 n=a6 v=40
43680 On ch=1 n=e6 v=40
43680 On ch=1 n=a5 v=40
43800 On ch=1 n=a5 v=0
43800 On ch=1 n=e6 v=0
43800 On ch=1 n=a6 v=0
44160 On ch=1 n=e7 v=30
44160 On ch=1 n=e6 v=30
44280 On ch=1 n=e6 v=0
44280 On ch=1 n=e7 v=0
45120 On ch=1 n=d7 v=60
45120 On ch=1 n=a6 v=60
45240 On ch=1 n=a6 v=0
45360 On ch=1 n=d7 v=0
45360 On ch=1 n=e7 v=60
45600 On ch=1 n=e7 v=0
45600 On ch=1 n=e7 v=70
45600 On ch=1 n=a6 v=70
45720 On ch=1 n=a6 v=0
45840 On ch=1 n=e7 v=0
45840 On ch=1 n=f#7 v=70
46080 On ch=1 n=f#7 v=0
46080 On ch=1 n=f#7 v=80
46080 On ch=1 n=a6 v=80
46200 On ch=1 n=a6 v=0
46320 On ch=1 n=f#7 v=0
46320 On ch=1 n=g#7 v=80
46560 On ch=1 n=g#7 v=0
46560 On ch=1 n=g#7 v=90
46560 On ch=1 n=a6 v=90
46680 On ch=1 n=a6 v=0
46800 On ch=1 n=g#7 v=0
46800 On ch=1 n=a7 v=90
47040 On ch=1 n=a7 v=0
47040 On ch=1 n=a7 v=100
47040 On ch=1 n=a6 v=100
47160 On ch=1 n=a6 v=0
47280 On ch=1 n=a7 v=0
47280 On ch=1 n=g#7 v=100
47520 On ch=1 n=g#7 v=0
47520 On ch=1 n=g#7 v=100
47520 On ch=1 n=a6 v=100
47640 On ch=1 n=a6 v=0
47760 On ch=1 n=g#7 v=0
47760 On ch=1 n=f#7 v=100
48000 On ch=1 n=f#7 v=0
48000 On ch=1 n=f#7 v=90
48000 On ch=1 n=a6 v=90
48120 On ch=1 n=a6 v=0
48240 On ch=1 n=f#7 v=0
48240 On ch=1 n=e7 v=90
48480 On ch=1 n=e7 v=0
48480 On ch=1 n=e7 v=80
48480 On ch=1 n=a6 v=80
48600 On ch=1 n=a6 v=0
48720 On ch=1 n=e7 v=0
48720 On ch=1 n=d7 v=80
48960 On ch=1 n=d7 v=0
48960 On ch=1 n=d7 v=70
48960 On ch=1 n=a6 v=70
49080 On ch=1 n=a6 v=0
49200 On ch=1 n=d7 v=0
49200 On ch=1 n=c#7 v=70
49440 On ch=1 n=c#7 v=0
49440 On ch=1 n=c#7 v=60
49440 On ch=1 n=a6 v=60
49560 On ch=1 n=a6 v=0
49680 On ch=1 n=c#7 v=0
49680 On ch=1 n=d7 v=60
49920 On ch=1 n=d7 v=0
49920 On ch=1 n=c#7 v=50
49920 On ch=1 n=a6 v=50
50040 On ch=1 n=a6 v=0
50160 On ch=1 n=c#7 v=0
50160 On ch=1 n=b6 v=50
50400 On ch=1 n=b6 v=0
50400 On ch=1 n=f#5 v=60
50520 On ch=1 n=g4 v=60
50640 On ch=1 n=g4 v=0
50640 On ch=1 n=a#4 v=60
50760 On ch=1 n=a#4 v=0
50760 On ch=1 n=c#5 v=60
50880 On ch=1 n=c#5 v=0
50976 On ch=1 n=g5 v=60
51072 On ch=1 n=g5 v=0
51072 On ch=1 n=a#5 v=60
51168 On ch=1 n=a#5 v=0
51168 On ch=1 n=c#6 v=60
51264 On ch=1 n=c#6 v=0
51264 On ch=1 n=f#6 v=60
51360 On ch=1 n=f#6 v=0
51360 On ch=1 n=f#5 v=0
51600 On ch=1 n=d#6 v=70
51720 On ch=1 n=d#6 v=0
51840 On ch=1 n=d#6 v=70
52080 On ch=1 n=d#6 v=0
52080 On ch=1 n=d#7 v=70
52200 On ch=1 n=d#7 v=0
52560 On ch=1 n=c#6 v=80
52680 On ch=1 n=c#6 v=0
52800 On ch=1 n=c#6 v=80
53040 On ch=1 n=c#6 v=0
53040 On ch=1 n=c#7 v=80
53160 On ch=1 n=c#7 v=0
53280 On ch=1 n=f#5 v=60
53400 On ch=1 n=g4 v=60
53520 On ch=1 n=g4 v=0
53520 On ch=1 n=a#4 v=60
53640 On ch=1 n=a#4 v=0
53640 On ch=1 n=c#5 v=60
53760 On ch=1 n=c#5 v=0
53856 On ch=1 n=g5 v=60
53952 On ch=1 n=g5 v=0
53952 On ch=1 n=a#5 v=60
54048 On ch=1 n=a#5 v=0
54048 On ch=1 n=c#6 v=60
54144 On ch=1 n=c#6 v=0
54144 On ch=1 n=f#6 v=60
54240 On ch=1 n=f#6 v=0
54240 On ch=1 n=f#5 v=0
54480 On ch=1 n=d#6 v=70
54600 On ch=1 n=d#6 v=0
54720 On ch=1 n=d#6 v=70
54960 On ch=1 n=d#6 v=0
54960 On ch=1 n=d#7 v=70
55080 On ch=1 n=d#7 v=0
55440 On ch=1 n=a#6 v=80
55560 On ch=1 n=a#6 v=0
55680 On ch=1 n=a#6 v=80
55920 On ch=1 n=a#6 v=0
55920 On ch=1 n=a#7 v=80
56040 On ch=1 n=a#7 v=0
56160 On ch=1 n=b6 v=40
56160 On ch=1 n=e6 v=40
56400 On ch=1 n=e6 v=0
56400 On ch=1 n=b6 v=0
56400 On ch=1 n=a6 v=40
56400 On ch=1 n=f#6 v=40
56640 On ch=1 n=f#6 v=0
56640 On ch=1 n=a6 v=0
56640 On ch=1 n=b6 v=40
56640 On ch=1 n=e6 v=40
56880 On ch=1 n=e6 v=0
56880 On ch=1 n=b6 v=0
56880 On ch=1 n=a6 v=40
56880 On ch=1 n=f#6 v=40
57120 On ch=1 n=f#6 v=0
57120 On ch=1 n=a6 v=0
57120 On ch=1 n=b6 v=40
57120 On ch=1 n=e6 v=40
57360 On ch=1 n=e6 v=0
57360 On ch=1 n=b6 v=0
57360 On ch=1 n=a6 v=40
57360 On ch=1 n=f#6 v=40
57600 On ch=1 n=f#6 v=0
57600 On ch=1 n=a6 v=0
57600 On ch=1 n=b6 v=40
57600 On ch=1 n=e6 v=40
57840 On ch=1 n=e6 v=0
57840 On ch=1 n=b6 v=0
57840 On ch=1 n=a6 v=40
57840 On ch=1 n=f#6 v=40
58080 On ch=1 n=f#6 v=0
58080 On ch=1 n=a6 v=0
58080 On ch=1 n=b6 v=40
58080 On ch=1 n=e6 v=40
58320 On ch=1 n=e6 v=0
58320 On ch=1 n=b6 v=0
58320 On ch=1 n=a6 v=40
58320 On ch=1 n=f#6 v=40
58560 On ch=1 n=f#6 v=0
58560 On ch=1 n=a6 v=0
58560 On ch=1 n=b6 v=40
58560 On ch=1 n=e6 v=40
58800 On ch=1 n=e6 v=0
58800 On ch=1 n=b6 v=0
58800 On ch=1 n=a6 v=40
58800 On ch=1 n=f#6 v=40
59040 On ch=1 n=f#6 v=0
59040 On ch=1 n=a6 v=0
59040 On ch=1 n=b6 v=40
59040 On ch=1 n=e6 v=40
59280 On ch=1 n=e6 v=0
59280 On ch=1 n=b6 v=0
59280 On ch=1 n=a6 v=40
59280 On ch=1 n=f#6 v=40
59520 On ch=1 n=f#6 v=0
59520 On ch=1 n=a6 v=0
59520 On ch=1 n=b6 v=40
59520 On ch=1 n=e6 v=40
59760 On ch=1 n=e6 v=0
59760 On ch=1 n=b6 v=0
59760 On ch=1 n=a6 v=40
59760 On ch=1 n=f#6 v=40
60000 On ch=1 n=f#6 v=0
60000 On ch=1 n=a6 v=0
60000 On ch=1 n=b6 v=40
60000 On ch=1 n=e6 v=40
60240 On ch=1 n=e6 v=0
60240 On ch=1 n=b6 v=0
60240 On ch=1 n=a6 v=40
60240 On ch=1 n=f#6 v=40
60480 On ch=1 n=f#6 v=0
60480 On ch=1 n=a6 v=0
60480 On ch=1 n=b6 v=40
60480 On ch=1 n=e6 v=40
60720 On ch=1 n=e6 v=0
60720 On ch=1 n=b6 v=0
60720 On ch=1 n=a6 v=40
60720 On ch=1 n=f#6 v=40
60960 On ch=1 n=f#6 v=0
60960 On ch=1 n=a6 v=0
60960 On ch=1 n=b6 v=40
60960 On ch=1 n=e6 v=40
61200 On ch=1 n=e6 v=0
61200 On ch=1 n=b6 v=0
61200 On ch=1 n=a6 v=40
61200 On ch=1 n=f#6 v=40
61440 On ch=1 n=f#6 v=0
61440 On ch=1 n=a6 v=0
61440 On ch=1 n=b6 v=40
61440 On ch=1 n=e6 v=40
61680 On ch=1 n=e6 v=0
61680 On ch=1 n=b6 v=0
61680 On ch=1 n=a6 v=40
61680 On ch=1 n=f#6 v=40
61920 On ch=1 n=f#6 v=0
61920 On ch=1 n=a6 v=0
61920 On ch=1 n=e5 v=40
61920 On ch=1 n=b5 v=40
62160 On ch=1 n=b5 v=0
62160 On ch=1 n=e5 v=0
62160 On ch=1 n=a5 v=40
62160 On ch=1 n=f#5 v=40
62400 On ch=1 n=f#5 v=0
62400 On ch=1 n=a5 v=0
62400 On ch=1 n=e5 v=40
62400 On ch=1 n=b5 v=40
62640 On ch=1 n=b5 v=0
62640 On ch=1 n=e5 v=0
62640 On ch=1 n=g#5 v=40
62640 On ch=1 n=f5 v=40
62880 On ch=1 n=f5 v=0
62880 On ch=1 n=g#5 v=0
62880 On ch=1 n=e5 v=40
62880 On ch=1 n=b5 v=40
63120 On ch=1 n=b5 v=0
63120 On ch=1 n=e5 v=0
63120 On ch=1 n=a5 v=40
63120 On ch=1 n=f#5 v=40
63360 On ch=1 n=f#5 v=0
63360 On ch=1 n=a5 v=0
63360 On ch=1 n=e5 v=40
63360 On ch=1 n=b5 v=40
63600 On ch=1 n=b5 v=0
63600 On ch=1 n=e5 v=0
63600 On ch=1 n=a5 v=40
63600 On ch=1 n=f#5 v=40
63840 On ch=1 n=f#5 v=0
63840 On ch=1 n=a5 v=0
63840 On ch=1 n=e5 v=40
63840 On ch=1 n=b5 v=40
64080 On ch=1 n=b5 v=0
64080 On ch=1 n=e5 v=0
64080 On ch=1 n=a5 v=40
64320 On ch=1 n=a5 v=0
64320 On ch=1 n=g5 v=40
64320 On ch=1 n=b5 v=40
64560 On ch=1 n=b5 v=0
64560 On ch=1 n=g5 v=0
64560 On ch=1 n=a5 v=40
64800 On ch=1 n=a5 v=0
64800 On ch=1 n=e5 v=40
64800 On ch=1 n=b5 v=40
65040 On ch=1 n=b5 v=0
65040 On ch=1 n=e5 v=0
65040 On ch=1 n=a5 v=40
65040 On ch=1 n=f#5 v=40
65280 On ch=1 n=f#5 v=0
65280 On ch=1 n=a5 v=0
65280 On ch=1 n=e5 v=40
65280 On ch=1 n=b5 v=40
65520 On ch=1 n=b5 v=0
65520 On ch=1 n=e5 v=0
65520 On ch=1 n=a5 v=40
65520 On ch=1 n=f#5 v=40
65760 On ch=1 n=f#5 v=0
65760 On ch=1 n=a5 v=0
65760 On ch=1 n=e5 v=40
65760 On ch=1 n=b5 v=40
66000 On ch=1 n=b5 v=0
66000 On ch=1 n=e5 v=0
66000 On ch=1 n=a5 v=40
66000 On ch=1 n=f#5 v=40
66240 On ch=1 n=f#5 v=0
66240 On ch=1 n=a5 v=0
66240 On ch=1 n=d#5 v=40
66240 On ch=1 n=a5 v=40
66480 On ch=1 n=a5 v=0
66480 On ch=1 n=d#5 v=0
66480 On ch=1 n=e5 v=40
66480 On ch=1 n=g5 v=40
66720 On ch=1 n=g5 v=0
66720 On ch=1 n=e5 v=0
66720 On ch=1 n=d#5 v=40
66720 On ch=1 n=a5 v=40
66960 On ch=1 n=a5 v=0
66960 On ch=1 n=d#5 v=0
66960 On ch=1 n=e5 v=40
66960 On ch=1 n=g5 v=40
67200 On ch=1 n=g5 v=0
67200 On ch=1 n=e5 v=0
67200 On ch=1 n=d#5 v=40
67200 On ch=1 n=a5 v=40
67440 On ch=1 n=a5 v=0
67440 On ch=1 n=d#5 v=0
67440 On ch=1 n=e5 v=40
67440 On ch=1 n=g5 v=40
67680 On ch=1 n=g5 v=0
67680 On ch=1 n=e5 v=0
67680 On ch=1 n=d5 v=40
67680 On ch=1 n=g5 v=40
67920 On ch=1 n=g5 v=0
67920 On ch=1 n=d5 v=0
67920 On ch=1 n=f#5 v=40
67920 On ch=1 n=d#5 v=40
68160 On ch=1 n=d#5 v=0
68160 On ch=1 n=f#5 v=0
68160 On ch=1 n=d5 v=40
68160 On ch=1 n=g5 v=40
68400 On ch=1 n=g5 v=0
68400 On ch=1 n=d5 v=0
68400 On ch=1 n=f#5 v=40
68400 On ch=1 n=d#5 v=40
68640 On ch=1 n=d#5 v=0
68640 On ch=1 n=f#5 v=0
68640 On ch=1 n=d5 v=40
68640 On ch=1 n=g5 v=40
68880 On ch=1 n=g5 v=0
68880 On ch=1 n=d5 v=0
68880 On ch=1 n=f#5 v=40
68880 On ch=1 n=d#5 v=40
69120 On ch=1 n=d#5 v=0
69120 On ch=1 n=f#5 v=0
69120 On ch=1 n=b4 v=40
69120 On ch=1 n=f#5 v=40
69360 On ch=1 n=f#5 v=0
69360 On ch=1 n=b4 v=0
69360 On ch=1 n=e5 v=40
69360 On ch=1 n=c5 v=40
69600 On ch=1 n=c5 v=0
69600 On ch=1 n=e5 v=0
69600 On ch=1 n=b4 v=40
69600 On ch=1 n=f#5 v=40
69840 On ch=1 n=f#5 v=0
69840 On ch=1 n=b4 v=0
69840 On ch=1 n=c5 v=40
69840 On ch=1 n=e5 v=40
70080 On ch=1 n=e5 v=0
70080 On ch=1 n=c5 v=0
70080 On ch=1 n=c5 v=40
70080 On ch=1 n=f#5 v=40
70320 On ch=1 n=f#5 v=0
70320 On ch=1 n=c5 v=0
70320 On ch=1 n=e5 v=40
70320 On ch=1 n=c#5 v=40
70560 On ch=1 n=c#5 v=0
70560 On ch=1 n=e5 v=0
70560 On ch=1 n=b5 v=40
70560 On ch=1 n=f#6 v=40
70800 On ch=1 n=f#6 v=0
70800 On ch=1 n=b5 v=0
70800 On ch=1 n=c6 v=40
70800 On ch=1 n=e6 v=40
71040 On ch=1 n=e6 v=0
71040 On ch=1 n=c6 v=0
71040 On ch=1 n=b5 v=40
71040 On ch=1 n=f#6 v=40
71280 On ch=1 n=f#6 v=0
71280 On ch=1 n=b5 v=0
71280 On ch=1 n=c6 v=40
71280 On ch=1 n=e6 v=40
71520 On ch=1 n=e6 v=0
71520 On ch=1 n=c6 v=0
71520 On ch=1 n=c6 v=40
71520 On ch=1 n=f#6 v=40
71760 On ch=1 n=f#6 v=0
71760 On ch=1 n=c6 v=0
71760 On ch=1 n=c#6 v=40
71760 On ch=1 n=e6 v=40
72000 On ch=1 n=e6 v=0
72000 On ch=1 n=c#6 v=0
72000 On ch=1 n=b6 v=40
72000 On ch=1 n=f#7 v=40
72240 On ch=1 n=f#7 v=0
72240 On ch=1 n=b6 v=0
72240 On ch=1 n=c7 v=40
72240 On ch=1 n=e7 v=40
72480 On ch=1 n=e7 v=0
72480 On ch=1 n=c7 v=0
72480 On ch=1 n=b6 v=40
72480 On ch=1 n=f#7 v=40
72720 On ch=1 n=f#7 v=0
72720 On ch=1 n=b6 v=0
72720 On ch=1 n=c7 v=40
72720 On ch=1 n=e7 v=40
72960 On ch=1 n=e7 v=0
72960 On ch=1 n=c7 v=0
72960 On ch=1 n=c7 v=40
72960 On ch=1 n=f#7 v=40
73200 On ch=1 n=f#7 v=0
73200 On ch=1 n=c7 v=0
73200 On ch=1 n=c#7 v=40
73200 On ch=1 n=e7 v=40
73440 On ch=1 n=e7 v=0
73440 On ch=1 n=c#7 v=0
73920 On ch=1 n=d7 v=60
73920 On ch=1 n=a6 v=60
74040 On ch=1 n=a6 v=0
74160 On ch=1 n=d7 v=0
74160 On ch=1 n=e7 v=60
74400 On ch=1 n=e7 v=0
74400 On ch=1 n=e7 v=70
74400 On ch=1 n=a6 v=70
74520 On ch=1 n=a6 v=0
74640 On ch=1 n=e7 v=0
74640 On ch=1 n=f#7 v=70
74880 On ch=1 n=f#7 v=0
74880 On ch=1 n=f#7 v=80
74880 On ch=1 n=a6 v=80
75000 On ch=1 n=a6 v=0
75120 On ch=1 n=f#7 v=0
75120 On ch=1 n=g#7 v=80
75360 On ch=1 n=g#7 v=0
75360 On ch=1 n=g#7 v=90
75360 On ch=1 n=a6 v=90
75480 On ch=1 n=a6 v=0
75600 On ch=1 n=g#7 v=0
75600 On ch=1 n=a7 v=90
75840 On ch=1 n=a7 v=0
75840 On ch=1 n=a7 v=100
75840 On ch=1 n=a6 v=100
75960 On ch=1 n=a6 v=0
76080 On ch=1 n=a7 v=0
76080 On ch=1 n=g#7 v=100
76320 On ch=1 n=g#7 v=0
76320 On ch=1 n=g#7 v=100
76320 On ch=1 n=a6 v=100
76440 On ch=1 n=a6 v=0
76560 On ch=1 n=g#7 v=0
76560 On ch=1 n=f#7 v=100
76800 On ch=1 n=f#7 v=0
76800 On ch=1 n=f#7 v=90
76800 On ch=1 n=a6 v=90
76920 On ch=1 n=a6 v=0
77040 On ch=1 n=f#7 v=0
77040 On ch=1 n=e7 v=90
77280 On ch=1 n=e7 v=0
77280 On ch=1 n=e7 v=80
77280 On ch=1 n=a6 v=80
77400 On ch=1 n=a6 v=0
77520 On ch=1 n=e7 v=0
77520 On ch=1 n=d7 v=80
77760 On ch=1 n=d7 v=0
77760 On ch=1 n=d7 v=70
77760 On ch=1 n=a6 v=70
77880 On ch=1 n=a6 v=0
78000 On ch=1 n=d7 v=0
78000 On ch=1 n=c#7 v=70
78240 On ch=1 n=c#7 v=0
78240 On ch=1 n=c#7 v=60
78240 On ch=1 n=a6 v=60
78360 On ch=1 n=a6 v=0
78480 On ch=1 n=c#7 v=0
78480 On ch=1 n=d7 v=60
78720 On ch=1 n=d7 v=0
78720 On ch=1 n=c#7 v=50
78720 On ch=1 n=a6 v=50
78840 On ch=1 n=a6 v=0
78960 On ch=1 n=c#7 v=0
78960 On ch=1 n=b6 v=50
79000 On ch=1 n=a#6 v=40
79040 On ch=1 n=a#6 v=0
79040 On ch=1 n=a6 v=40
79080 On ch=1 n=a6 v=0
79080 On ch=1 n=a#5 v=40
79120 On ch=1 n=a#5 v=0
79200 On ch=1 n=b6 v=0
79680 On ch=1 n=d#5 v=60
79920 On ch=1 n=d#5 v=0
79920 On ch=1 n=f#5 v=60
80160 On ch=1 n=f#5 v=0
80160 On ch=1 n=d#5 v=60
80280 On ch=1 n=d#5 v=0
80440 On ch=1 n=a#6 v=40
80480 On ch=1 n=a#6 v=0
80480 On ch=1 n=a6 v=40
80520 On ch=1 n=a6 v=0
80520 On ch=1 n=a#5 v=40
80560 On ch=1 n=a#5 v=0
81240 On ch=1 n=a5 v=60
81280 On ch=1 n=a5 v=0
81280 On ch=1 n=a#5 v=60
81320 On ch=1 n=a#5 v=0
81320 On ch=1 n=c#6 v=60
81360 On ch=1 n=c#6 v=0
81360 On ch=1 n=d#6 v=60
81400 On ch=1 n=d#6 v=0
81400 On ch=1 n=c#6 v=60
81440 On ch=1 n=c#6 v=0
81440 On ch=1 n=a#5 v=60
81480 On ch=1 n=a#5 v=0
81480 On ch=1 n=a5 v=60
81520 On ch=1 n=a5 v=0
81880 On ch=1 n=a#6 v=40
81920 On ch=1 n=a#6 v=0
81920 On ch=1 n=a6 v=40
81960 On ch=1 n=a6 v=0
81960 On ch=1 n=a#5 v=40
82000 On ch=1 n=a#5 v=0
82560 On ch=1 n=d#5 v=60
82800 On ch=1 n=d#5 v=0
82800 On ch=1 n=f#5 v=60
83040 On ch=1 n=f#5 v=0
83040 On ch=1 n=d#5 v=60
83160 On ch=1 n=d#5 v=0
83320 On ch=1 n=a#6 v=40
83360 On ch=1 n=a#6 v=0
83360 On ch=1 n=a6 v=40
83400 On ch=1 n=a6 v=0
83400 On ch=1 n=a#5 v=40
83440 On ch=1 n=a#5 v=0
84120 On ch=1 n=a5 v=60
84160 On ch=1 n=a5 v=0
84160 On ch=1 n=a#5 v=60
84200 On ch=1 n=a#5 v=0
84200 On ch=1 n=c#6 v=60
84240 On ch=1 n=c#6 v=0
84240 On ch=1 n=d#6 v=60
84280 On ch=1 n=d#6 v=0
84280 On ch=1 n=c#6 v=60
84320 On ch=1 n=c#6 v=0
84320 On ch=1 n=a#5 v=60
84360 On ch=1 n=a#5 v=0
84360 On ch=1 n=a5 v=60
84400 On ch=1 n=a5 v=0
96960 On ch=1 n=b6 v=60
97080 On ch=1 n=b6 v=0
97200 On ch=1 n=b6 v=60
97320 On ch=1 n=b6 v=0
97440 On ch=1 n=b6 v=60
97560 On ch=1 n=b6 v=0
97680 On ch=1 n=b6 v=60
97800 On ch=1 n=b6 v=0
97920 On ch=1 n=b6 v=60
98400 On ch=1 n=b6 v=0
98400 On ch=1 n=b6 v=60
98520 On ch=1 n=b6 v=0
98640 On ch=1 n=b6 v=60
98760 On ch=1 n=b6 v=0
98880 On ch=1 n=b6 v=60
99000 On ch=1 n=b6 v=0
99120 On ch=1 n=c7 v=60
99240 On ch=1 n=c7 v=0
99360 On ch=1 n=b6 v=70
99600 On ch=1 n=b6 v=0
99600 On ch=1 n=a#6 v=70
99840 On ch=1 n=a#6 v=0
99840 On ch=1 n=a6 v=70
101280 On ch=1 n=a6 v=0
101280 On ch=1 n=d#7 v=70
102240 On ch=1 n=d#7 v=0
102720 On ch=1 n=b6 v=60
102840 On ch=1 n=b6 v=0
102960 On ch=1 n=b6 v=60
103080 On ch=1 n=b6 v=0
103200 On ch=1 n=b6 v=60
103320 On ch=1 n=b6 v=0
103440 On ch=1 n=b6 v=60
103560 On ch=1 n=b6 v=0
103680 On ch=1 n=b6 v=60
104160 On ch=1 n=b6 v=0
104160 On ch=1 n=b6 v=60
104280 On ch=1 n=b6 v=0
104400 On ch=1 n=b6 v=60
104520 On ch=1 n=b6 v=0
104640 On ch=1 n=b6 v=60
104760 On ch=1 n=b6 v=0
104880 On ch=1 n=c7 v=60
105000 On ch=1 n=c7 v=0
105120 On ch=1 n=b6 v=60
105360 On ch=1 n=b6 v=0
105360 On ch=1 n=a#6 v=60
105600 On ch=1 n=a#6 v=0
105600 On ch=1 n=a6 v=60
107040 On ch=1 n=a6 v=0
107040 On ch=1 n=f6 v=60
108000 On ch=1 n=f6 v=0
108480 On ch=1 n=a#5 v=60
108480 On ch=1 n=d#6 v=60
108600 On ch=1 n=a#5 v=0
108720 On ch=1 n=d#6 v=0
108720 On ch=1 n=f6 v=60
108960 On ch=1 n=f6 v=0
108960 On ch=1 n=a#5 v=70
108960 On ch=1 n=f6 v=70
109080 On ch=1 n=a#5 v=0
109200 On ch=1 n=f6 v=0
109200 On ch=1 n=g6 v=70
109440 On ch=1 n=g6 v=0
109440 On ch=1 n=a#5 v=80
109440 On ch=1 n=g6 v=80
109560 On ch=1 n=a#5 v=0
109680 On ch=1 n=g6 v=0
109680 On ch=1 n=a6 v=80
109920 On ch=1 n=a6 v=0
109920 On ch=1 n=a#5 v=90
109920 On ch=1 n=a6 v=90
110040 On ch=1 n=a#5 v=0
110160 On ch=1 n=a6 v=0
110160 On ch=1 n=a#6 v=90
110400 On ch=1 n=a#6 v=0
110400 On ch=1 n=a#5 v=100
110400 On ch=1 n=a#6 v=100
110520 On ch=1 n=a#5 v=0
110640 On ch=1 n=a#6 v=0
110640 On ch=1 n=a6 v=100
110880 On ch=1 n=a6 v=0
110880 On ch=1 n=a#5 v=100
110880 On ch=1 n=a6 v=100
111000 On ch=1 n=a#5 v=0
111120 On ch=1 n=a6 v=0
111120 On ch=1 n=g6 v=100
111360 On ch=1 n=g6 v=0
111360 On ch=1 n=a#5 v=90
111360 On ch=1 n=g6 v=90
111480 On ch=1 n=a#5 v=0
111600 On ch=1 n=g6 v=0
111600 On ch=1 n=f6 v=90
111840 On ch=1 n=f6 v=0
111840 On ch=1 n=a#5 v=80
111840 On ch=1 n=f6 v=80
111960 On ch=1 n=a#5 v=0
112080 On ch=1 n=f6 v=0
112080 On ch=1 n=d#6 v=80
112320 On ch=1 n=d#6 v=0
112320 On ch=1 n=a#5 v=70
112320 On ch=1 n=d#6 v=70
112440 On ch=1 n=a#5 v=0
112560 On ch=1 n=d#6 v=0
112560 On ch=1 n=d6 v=70
112800 On ch=1 n=d6 v=0
112800 On ch=1 n=a#5 v=60
112800 On ch=1 n=d6 v=60
112920 On ch=1 n=a#5 v=0
113040 On ch=1 n=d6 v=0
113040 On ch=1 n=d#6 v=60
113280 On ch=1 n=d#6 v=0
113280 On ch=1 n=a#5 v=50
113280 On ch=1 n=d6 v=50
113400 On ch=1 n=a#5 v=0
113520 On ch=1 n=d6 v=0
113520 On ch=1 n=c6 v=50
113760 On ch=1 n=c6 v=0
113760 On ch=1 n=g5 v=60
113880 On ch=1 n=g#4 v=60
114000 On ch=1 n=g#4 v=0
114000 On ch=1 n=b4 v=60
114120 On ch=1 n=b4 v=0
114120 On ch=1 n=d5 v=60
114240 On ch=1 n=d5 v=0
114336 On ch=1 n=g#5 v=60
114432 On ch=1 n=g#5 v=0
114432 On ch=1 n=b5 v=60
114528 On ch=1 n=b5 v=0
114528 On ch=1 n=d6 v=60
114624 On ch=1 n=d6 v=0
114624 On ch=1 n=g6 v=60
114720 On ch=1 n=g6 v=0
114720 On ch=1 n=g5 v=0
114960 On ch=1 n=e6 v=70
115080 On ch=1 n=e6 v=0
115200 On ch=1 n=e6 v=70
115440 On ch=1 n=e6 v=0
115440 On ch=1 n=e7 v=70
115560 On ch=1 n=e7 v=0
115920 On ch=1 n=d6 v=80
116040 On ch=1 n=d6 v=0
116160 On ch=1 n=d6 v=80
116400 On ch=1 n=d6 v=0
116400 On ch=1 n=d7 v=80
116520 On ch=1 n=d7 v=0
116640 On ch=1 n=g5 v=60
116760 On ch=1 n=g#4 v=60
116880 On ch=1 n=g#4 v=0
116880 On ch=1 n=b4 v=60
117000 On ch=1 n=b4 v=0
117000 On ch=1 n=d5 v=60
117120 On ch=1 n=d5 v=0
117216 On ch=1 n=g#5 v=60
117312 On ch=1 n=g#5 v=0
117312 On ch=1 n=b5 v=60
117408 On ch=1 n=b5 v=0
117408 On ch=1 n=d6 v=60
117504 On ch=1 n=d6 v=0
117504 On ch=1 n=g6 v=60
117600 On ch=1 n=g6 v=0
117600 On ch=1 n=g5 v=0
117840 On ch=1 n=e6 v=70
117960 On ch=1 n=e6 v=0
118080 On ch=1 n=e6 v=70
118320 On ch=1 n=e6 v=0
118320 On ch=1 n=e7 v=70
118440 On ch=1 n=e7 v=0
118800 On ch=1 n=b6 v=80
118920 On ch=1 n=b6 v=0
119040 On ch=1 n=b6 v=80
119280 On ch=1 n=b6 v=0
119280 On ch=1 n=b7 v=80
119400 On ch=1 n=b7 v=0
120240 On ch=1 n=d#5 v=60
120360 On ch=1 n=d#5 v=0
120720 On ch=1 n=d#5 v=60
120840 On ch=1 n=d#5 v=0
121680 On ch=1 n=d#5 v=60
121800 On ch=1 n=d#5 v=0
122160 On ch=1 n=e5 v=60
122280 On ch=1 n=e5 v=0
122640 On ch=1 n=d5 v=60
122760 On ch=1 n=d5 v=0
125280 On ch=1 n=d#6 v=40
125440 On ch=1 n=d#6 v=0
125440 On ch=1 n=a#5 v=40
125600 On ch=1 n=a#5 v=0
125600 On ch=1 n=e5 v=40
125760 On ch=1 n=e5 v=0
125760 On ch=1 n=d#6 v=40
125920 On ch=1 n=d#6 v=0
125920 On ch=1 n=a#5 v=40
126080 On ch=1 n=a#5 v=0
126080 On ch=1 n=e5 v=40
126240 On ch=1 n=e5 v=0
126240 On ch=1 n=d#6 v=40
126400 On ch=1 n=d#6 v=0
126400 On ch=1 n=a#5 v=40
126560 On ch=1 n=a#5 v=0
126560 On ch=1 n=e5 v=40
126720 On ch=1 n=e5 v=0
126720 On ch=1 n=d#6 v=40
126880 On ch=1 n=d#6 v=0
126880 On ch=1 n=a#5 v=40
127040 On ch=1 n=a#5 v=0
127040 On ch=1 n=e5 v=40
127200 On ch=1 n=e5 v=0
127200 On ch=1 n=d#6 v=40
127360 On ch=1 n=d#6 v=0
127360 On ch=1 n=a#5 v=40
127520 On ch=1 n=a#5 v=0
127520 On ch=1 n=e5 v=40
127680 On ch=1 n=e5 v=0
127680 On ch=1 n=d#6 v=40
127840 On ch=1 n=d#6 v=0
127840 On ch=1 n=a#5 v=40
128000 On ch=1 n=a#5 v=0
128000 On ch=1 n=e5 v=40
128160 On ch=1 n=e5 v=0
128160 On ch=1 n=d#6 v=40
128320 On ch=1 n=d#6 v=0
128320 On ch=1 n=a#5 v=40
128480 On ch=1 n=a#5 v=0
128480 On ch=1 n=e5 v=40
128640 On ch=1 n=e5 v=0
128640 On ch=1 n=d#6 v=40
128800 On ch=1 n=d#6 v=0
128800 On ch=1 n=a#5 v=40
128960 On ch=1 n=a#5 v=0
128960 On ch=1 n=e5 v=40
129120 On ch=1 n=e5 v=0
129120 On ch=1 n=d#6 v=40
129280 On ch=1 n=d#6 v=0
129280 On ch=1 n=a#5 v=40
129440 On ch=1 n=a#5 v=0
129440 On ch=1 n=e5 v=40
129600 On ch=1 n=e5 v=0
129600 On ch=1 n=d#6 v=40
129760 On ch=1 n=d#6 v=0
129760 On ch=1 n=a#5 v=40
129920 On ch=1 n=a#5 v=0
129920 On ch=1 n=e5 v=40
130080 On ch=1 n=e5 v=0
130080 On ch=1 n=d#6 v=40
130240 On ch=1 n=d#6 v=0
130240 On ch=1 n=a#5 v=40
130400 On ch=1 n=a#5 v=0
130400 On ch=1 n=e5 v=40
130560 On ch=1 n=e5 v=0
130560 On ch=1 n=d#6 v=40
130720 On ch=1 n=d#6 v=0
130720 On ch=1 n=a#5 v=40
130880 On ch=1 n=a#5 v=0
130880 On ch=1 n=e5 v=40
131040 On ch=1 n=e5 v=0
131040 On ch=1 n=d#6 v=40
131200 On ch=1 n=d#6 v=0
131200 On ch=1 n=a#5 v=40
131360 On ch=1 n=a#5 v=0
131360 On ch=1 n=e5 v=40
131520 On ch=1 n=e5 v=0
131520 On ch=1 n=d#6 v=60
131520 On ch=1 n=f#6 v=60
131680 On ch=1 n=a#5 v=40
131840 On ch=1 n=a#5 v=0
131840 On ch=1 n=e5 v=40
131880 On ch=1 n=f#6 v=0
131880 On ch=1 n=d#6 v=0
132000 On ch=1 n=e5 v=0
132000 On ch=1 n=d#6 v=60
132000 On ch=1 n=f#6 v=60
132160 On ch=1 n=a#5 v=40
132320 On ch=1 n=a#5 v=0
132320 On ch=1 n=e5 v=40
132360 On ch=1 n=f#6 v=0
132360 On ch=1 n=d#6 v=0
132480 On ch=1 n=e5 v=0
132480 On ch=1 n=d#6 v=60
132480 On ch=1 n=f#6 v=60
132640 On ch=1 n=a#5 v=40
132800 On ch=1 n=a#5 v=0
132800 On ch=1 n=e5 v=40
132840 On ch=1 n=f#6 v=0
132840 On ch=1 n=d#6 v=0
132960 On ch=1 n=e5 v=0
132960 On ch=1 n=d#6 v=60
132960 On ch=1 n=f#6 v=60
133120 On ch=1 n=a#5 v=40
133280 On ch=1 n=a#5 v=0
133280 On ch=1 n=e5 v=40
133320 On ch=1 n=f#6 v=0
133320 On ch=1 n=d#6 v=0
133440 On ch=1 n=e5 v=0
133440 On ch=1 n=g6 v=60
133440 On ch=1 n=e6 v=60
133600 On ch=1 n=a#5 v=40
133760 On ch=1 n=a#5 v=0
133760 On ch=1 n=e5 v=40
133800 On ch=1 n=e6 v=0
133800 On ch=1 n=g6 v=0
133920 On ch=1 n=e5 v=0
133920 On ch=1 n=d#6 v=60
133920 On ch=1 n=f#6 v=60
134080 On ch=1 n=a#5 v=40
134240 On ch=1 n=a#5 v=0
134240 On ch=1 n=e5 v=40
134280 On ch=1 n=f#6 v=0
134280 On ch=1 n=d#6 v=0
134400 On ch=1 n=e5 v=0
134400 On ch=1 n=d6 v=60
134400 On ch=1 n=f6 v=60
134560 On ch=1 n=a#5 v=40
134720 On ch=1 n=a#5 v=0
134720 On ch=1 n=e5 v=40
134760 On ch=1 n=f6 v=0
134760 On ch=1 n=d6 v=0
134880 On ch=1 n=e5 v=0
134880 On ch=1 n=e6 v=60
134880 On ch=1 n=c#6 v=60
135040 On ch=1 n=a#5 v=40
135200 On ch=1 n=a#5 v=0
135200 On ch=1 n=e5 v=40
135240 On ch=1 n=c#6 v=0
135360 On ch=1 n=e5 v=0
135360 On ch=1 n=c#6 v=50
135520 On ch=1 n=c#6 v=0
135520 On ch=1 n=a#5 v=50
135680 On ch=1 n=a#5 v=0
135680 On ch=1 n=e5 v=50
135840 On ch=1 n=e5 v=0
135840 On ch=1 n=c#6 v=50
136000 On ch=1 n=c#6 v=0
136000 On ch=1 n=a#5 v=50
136160 On ch=1 n=a#5 v=0
136160 On ch=1 n=e5 v=50
136320 On ch=1 n=e5 v=0
136320 On ch=1 n=c#6 v=50
136480 On ch=1 n=c#6 v=0
136480 On ch=1 n=a#5 v=50
136640 On ch=1 n=a#5 v=0
136640 On ch=1 n=e5 v=50
136800 On ch=1 n=e5 v=0
136800 On ch=1 n=e6 v=0
136800 On ch=1 n=a#6 v=60
138240 On ch=1 n=a#6 v=0
138240 On ch=1 n=d#6 v=40
138400 On ch=1 n=d#6 v=0
138400 On ch=1 n=a#5 v=40
138560 On ch=1 n=a#5 v=0
138560 On ch=1 n=e5 v=40
138720 On ch=1 n=e5 v=0
138720 On ch=1 n=d#6 v=60
138720 On ch=1 n=f#6 v=60
138880 On ch=1 n=a#5 v=40
139040 On ch=1 n=a#5 v=0
139040 On ch=1 n=e5 v=40
139080 On ch=1 n=f#6 v=0
139080 On ch=1 n=d#6 v=0
139200 On ch=1 n=e5 v=0
139200 On ch=1 n=d#6 v=60
139200 On ch=1 n=f#6 v=60
139360 On ch=1 n=a#5 v=40
139520 On ch=1 n=a#5 v=0
139520 On ch=1 n=e5 v=40
139560 On ch=1 n=f#6 v=0
139560 On ch=1 n=d#6 v=0
139680 On ch=1 n=e5 v=0
139680 On ch=1 n=d#6 v=60
139680 On ch=1 n=f#6 v=60
139840 On ch=1 n=a#5 v=40
140000 On ch=1 n=a#5 v=0
140000 On ch=1 n=e5 v=40
140040 On ch=1 n=f#6 v=0
140040 On ch=1 n=d#6 v=0
140160 On ch=1 n=e5 v=0
140160 On ch=1 n=d#6 v=60
140160 On ch=1 n=f#6 v=60
140320 On ch=1 n=a#5 v=40
140480 On ch=1 n=a#5 v=0
140480 On ch=1 n=e5 v=40
140520 On ch=1 n=f#6 v=0
140520 On ch=1 n=d#6 v=0
140640 On ch=1 n=e5 v=0
140640 On ch=1 n=g6 v=60
140640 On ch=1 n=e6 v=60
140800 On ch=1 n=a#5 v=40
140960 On ch=1 n=a#5 v=0
140960 On ch=1 n=e5 v=40
141000 On ch=1 n=e6 v=0
141000 On ch=1 n=g6 v=0
141120 On ch=1 n=e5 v=0
141120 On ch=1 n=d#6 v=60
141120 On ch=1 n=f#6 v=60
141280 On ch=1 n=a#5 v=40
141440 On ch=1 n=a#5 v=0
141440 On ch=1 n=e5 v=40
141600 On ch=1 n=e5 v=0
141600 On ch=1 n=d#6 v=40
141760 On ch=1 n=d#6 v=0
141760 On ch=1 n=a#5 v=40
141920 On ch=1 n=a#5 v=0
141920 On ch=1 n=e5 v=40
142080 On ch=1 n=e5 v=0
142080 On ch=1 n=d#6 v=40
142240 On ch=1 n=d#6 v=0
142240 On ch=1 n=a#5 v=40
142400 On ch=1 n=a#5 v=0
142400 On ch=1 n=e5 v=40
142560 On ch=1 n=e5 v=0
142560 On ch=1 n=d#6 v=0
142560 On ch=1 n=f#6 v=0
142560 On ch=1 n=c6 v=60
142560 On ch=1 n=d#6 v=60
142720 On ch=1 n=g5 v=40
142880 On ch=1 n=g5 v=0
142880 On ch=1 n=c#5 v=40
143040 On ch=1 n=c#5 v=0
143040 On ch=1 n=c6 v=40
143200 On ch=1 n=c6 v=0
143200 On ch=1 n=g5 v=40
143360 On ch=1 n=g5 v=0
143360 On ch=1 n=c#5 v=40
143520 On ch=1 n=c#5 v=0
143520 On ch=1 n=c6 v=40
143680 On ch=1 n=c6 v=0
143680 On ch=1 n=g5 v=40
143840 On ch=1 n=g5 v=0
143840 On ch=1 n=c#5 v=40
144000 On ch=1 n=c#5 v=0
144000 On ch=1 n=c6 v=0
144000 On ch=1 n=d#6 v=0
144000 On ch=1 n=a5 v=60
144000 On ch=1 n=c6 v=60
144160 On ch=1 n=e5 v=40
144320 On ch=1 n=e5 v=0
144320 On ch=1 n=a#4 v=40
144480 On ch=1 n=a#4 v=0
144480 On ch=1 n=a5 v=40
144640 On ch=1 n=a5 v=0
144640 On ch=1 n=e5 v=40
144800 On ch=1 n=e5 v=0
144800 On ch=1 n=a#4 v=40
144960 On ch=1 n=a#4 v=0
144960 On ch=1 n=a5 v=40
145120 On ch=1 n=a5 v=0
145120 On ch=1 n=e5 v=40
145280 On ch=1 n=e5 v=0
145280 On ch=1 n=a#4 v=40
145440 On ch=1 n=a#4 v=0
145440 On ch=1 n=a5 v=50
145600 On ch=1 n=a5 v=0
145600 On ch=1 n=e5 v=50
145760 On ch=1 n=e5 v=0
145760 On ch=1 n=a#4 v=50
145920 On ch=1 n=a#4 v=0
145920 On ch=1 n=a5 v=0
145920 On ch=1 n=c6 v=0
145920 On ch=1 n=c6 v=70
145920 On ch=1 n=d#6 v=70
146080 On ch=1 n=g5 v=50
146240 On ch=1 n=g5 v=0
146240 On ch=1 n=c#5 v=50
146400 On ch=1 n=c#5 v=0
146400 On ch=1 n=c6 v=50
146560 On ch=1 n=c6 v=0
146560 On ch=1 n=g5 v=50
146720 On ch=1 n=g5 v=0
146720 On ch=1 n=c#5 v=50
146880 On ch=1 n=c#5 v=0
146880 On ch=1 n=c6 v=0
146880 On ch=1 n=d#6 v=0
146880 On ch=1 n=d#6 v=60
146880 On ch=1 n=f#6 v=60
147040 On ch=1 n=a#5 v=40
147200 On ch=1 n=a#5 v=0
147200 On ch=1 n=e5 v=40
147360 On ch=1 n=e5 v=0
147360 On ch=1 n=d#6 v=40
147520 On ch=1 n=d#6 v=0
147520 On ch=1 n=a#5 v=40
147680 On ch=1 n=a#5 v=0
147680 On ch=1 n=e5 v=40
147840 On ch=1 n=e5 v=0
147840 On ch=1 n=d#6 v=40
148000 On ch=1 n=d#6 v=0
148000 On ch=1 n=a#5 v=40
148160 On ch=1 n=a#5 v=0
148160 On ch=1 n=e5 v=40
148320 On ch=1 n=e5 v=0
148320 On ch=1 n=d#6 v=0
148320 On ch=1 n=f#6 v=0
148320 On ch=1 n=c6 v=60
148320 On ch=1 n=d#6 v=60
148480 On ch=1 n=g5 v=40
148640 On ch=1 n=g5 v=0
148640 On ch=1 n=c#5 v=40
148800 On ch=1 n=c#5 v=0
148800 On ch=1 n=c6 v=40
148960 On ch=1 n=c6 v=0
148960 On ch=1 n=g5 v=40
149120 On ch=1 n=g5 v=0
149120 On ch=1 n=c#5 v=40
149280 On ch=1 n=c#5 v=0
149280 On ch=1 n=c6 v=40
149440 On ch=1 n=c6 v=0
149440 On ch=1 n=g5 v=40
149600 On ch=1 n=g5 v=0
149600 On ch=1 n=c#5 v=40
149760 On ch=1 n=c#5 v=0
149760 On ch=1 n=c6 v=0
149760 On ch=1 n=d#6 v=0
149760 On ch=1 n=c6 v=60
149760 On ch=1 n=a5 v=60
149920 On ch=1 n=e5 v=40
150080 On ch=1 n=e5 v=0
150080 On ch=1 n=a#4 v=40
150240 On ch=1 n=a#4 v=0
150240 On ch=1 n=a5 v=40
150400 On ch=1 n=a5 v=0
150400 On ch=1 n=e5 v=40
150560 On ch=1 n=e5 v=0
150560 On ch=1 n=a#4 v=40
150720 On ch=1 n=a#4 v=0
150720 On ch=1 n=a5 v=40
150880 On ch=1 n=a5 v=0
150880 On ch=1 n=e5 v=40
151040 On ch=1 n=e5 v=0
151040 On ch=1 n=a#4 v=40
151200 On ch=1 n=a#4 v=0
151200 On ch=1 n=a5 v=0
151200 On ch=1 n=c6 v=0
151200 On ch=1 n=a5 v=60
151200 On ch=1 n=f#5 v=60
151360 On ch=1 n=c#5 v=40
151520 On ch=1 n=c#5 v=0
151520 On ch=1 n=g4 v=40
151680 On ch=1 n=g4 v=0
151680 On ch=1 n=f#5 v=40
151840 On ch=1 n=f#5 v=0
151840 On ch=1 n=c#5 v=40
152000 On ch=1 n=c#5 v=0
152000 On ch=1 n=g4 v=40
152160 On ch=1 n=g4 v=0
152160 On ch=1 n=f#5 v=40
152320 On ch=1 n=f#5 v=0
152320 On ch=1 n=c#5 v=40
152480 On ch=1 n=c#5 v=0
152480 On ch=1 n=g4 v=40
152640 On ch=1 n=g4 v=0
152640 On ch=1 n=f#5 v=0
152640 On ch=1 n=a5 v=0
152640 On ch=1 n=d#5 v=60
152640 On ch=1 n=f#5 v=60
153120 On ch=1 n=d#5 v=40
153280 On ch=1 n=d#5 v=0
153600 On ch=1 n=d#5 v=40
153760 On ch=1 n=d#5 v=0
154080 On ch=1 n=d#5 v=0
154080 On ch=1 n=f#5 v=0
154080 On ch=1 n=c5 v=60
154080 On ch=1 n=d#5 v=60
154560 On ch=1 n=c5 v=40
154720 On ch=1 n=c5 v=0
155040 On ch=1 n=c5 v=40
155200 On ch=1 n=c5 v=0
155520 On ch=1 n=c5 v=0
155520 On ch=1 n=d#5 v=0
180600 On ch=1 n=a6 v=40
180640 On ch=1 n=a6 v=0
180640 On ch=1 n=a#6 v=40
180680 On ch=1 n=a#6 v=0
180680 On ch=1 n=c#7 v=40
180720 On ch=1 n=c#7 v=0
180720 On ch=1 n=d#7 v=40
180760 On ch=1 n=d#7 v=0
180760 On ch=1 n=c#7 v=40
180800 On ch=1 n=c#7 v=0
180800 On ch=1 n=a#6 v=40
180840 On ch=1 n=a#6 v=0
180840 On ch=1 n=a6 v=40
180880 On ch=1 n=a6 v=0
183480 On ch=1 n=a6 v=40
183520 On ch=1 n=a6 v=0
183520 On ch=1 n=a#6 v=40
183560 On ch=1 n=a#6 v=0
183560 On ch=1 n=c#7 v=40
183600 On ch=1 n=c#7 v=0
183600 On ch=1 n=d#7 v=40
183640 On ch=1 n=d#7 v=0
183640 On ch=1 n=c#7 v=40
183680 On ch=1 n=c#7 v=0
183680 On ch=1 n=a#6 v=40
183720 On ch=1 n=a#6 v=0
183720 On ch=1 n=a6 v=40
183760 On ch=1 n=a6 v=0
184920 On ch=1 n=a5 v=40
184960 On ch=1 n=a5 v=0
184960 On ch=1 n=a#5 v=40
185000 On ch=1 n=a#5 v=0
185000 On ch=1 n=c#6 v=40
185040 On ch=1 n=c#6 v=0
185040 On ch=1 n=d#6 v=40
185080 On ch=1 n=d#6 v=0
185080 On ch=1 n=c#6 v=40
185120 On ch=1 n=c#6 v=0
185120 On ch=1 n=a#5 v=40
185160 On ch=1 n=a#5 v=0
185160 On ch=1 n=a5 v=40
185200 On ch=1 n=a5 v=0
187680 On ch=1 n=a4 v=60
187800 On ch=1 n=a4 v=0
187800 On ch=1 n=d5 v=60
187920 On ch=1 n=d5 v=0
187920 On ch=1 n=f#5 v=60
188040 On ch=1 n=f#5 v=0
188040 On ch=1 n=a5 v=60
188160 On ch=1 n=a5 v=0
188640 On ch=1 n=a5 v=60
188760 On ch=1 n=a5 v=0
188760 On ch=1 n=d6 v=60
188880 On ch=1 n=d6 v=0
188880 On ch=1 n=f#6 v=60
189000 On ch=1 n=f#6 v=0
189000 On ch=1 n=a6 v=60
189120 On ch=1 n=a6 v=0
189600 On ch=1 n=a6 v=60
189720 On ch=1 n=a6 v=0
189720 On ch=1 n=d7 v=60
189840 On ch=1 n=d7 v=0
189840 On ch=1 n=f#7 v=60
189960 On ch=1 n=f#7 v=0
189960 On ch=1 n=a7 v=60
190080 On ch=1 n=a7 v=0
191520 On ch=1 n=c#6 v=40
191520 On ch=1 n=a#5 v=40
191520 On ch=1 n=f#5 v=40
192960 On ch=1 n=f#5 v=0
192960 On ch=1 n=a#5 v=0
192960 On ch=1 n=c#6 v=0
193440 On ch=1 n=a4 v=60
193560 On ch=1 n=a4 v=0
193560 On ch=1 n=d5 v=60
193680 On ch=1 n=d5 v=0
193680 On ch=1 n=f#5 v=60
193800 On ch=1 n=f#5 v=0
193800 On ch=1 n=a5 v=60
193920 On ch=1 n=a5 v=0
194400 On ch=1 n=a5 v=60
194520 On ch=1 n=a5 v=0
194520 On ch=1 n=d6 v=60
194640 On ch=1 n=d6 v=0
194640 On ch=1 n=f#6 v=60
194760 On ch=1 n=f#6 v=0
194760 On ch=1 n=a6 v=60
194880 On ch=1 n=a6 v=0
195360 On ch=1 n=a6 v=60
195480 On ch=1 n=a6 v=0
195480 On ch=1 n=d7 v=60
195600 On ch=1 n=d7 v=0
195600 On ch=1 n=f#7 v=60
195720 On ch=1 n=f#7 v=0
195720 On ch=1 n=a7 v=60
195840 On ch=1 n=a7 v=0
197280 On ch=1 n=c#6 v=40
197280 On ch=1 n=a#5 v=40
197280 On ch=1 n=f#5 v=40
198720 On ch=1 n=f#5 v=0
198720 On ch=1 n=a#5 v=0
198720 On ch=1 n=c#6 v=0
198720 On ch=1 n=a4 v=40
198840 On ch=1 n=a4 v=0
198840 On ch=1 n=d5 v=40
198960 On ch=1 n=d5 v=0
198960 On ch=1 n=f#5 v=40
199080 On ch=1 n=f#5 v=0
199080 On ch=1 n=a5 v=40
199200 On ch=1 n=a5 v=0
199680 On ch=1 n=a5 v=60
199800 On ch=1 n=a5 v=0
199800 On ch=1 n=d6 v=60
199920 On ch=1 n=d6 v=0
199920 On ch=1 n=f#6 v=60
200040 On ch=1 n=f#6 v=0
200040 On ch=1 n=a6 v=60
200160 On ch=1 n=a6 v=0
200640 On ch=1 n=a5 v=50
200760 On ch=1 n=a5 v=0
200760 On ch=1 n=d6 v=50
200880 On ch=1 n=d6 v=0
200880 On ch=1 n=f#6 v=50
201000 On ch=1 n=f#6 v=0
201000 On ch=1 n=a6 v=50
201120 On ch=1 n=a6 v=0
201600 On ch=1 n=a4 v=40
201720 On ch=1 n=a4 v=0
201720 On ch=1 n=d5 v=40
201840 On ch=1 n=d5 v=0
201840 On ch=1 n=f#5 v=40
201960 On ch=1 n=f#5 v=0
201960 On ch=1 n=a5 v=40
202080 On ch=1 n=a5 v=0
202560 On ch=1 n=a5 v=60
202680 On ch=1 n=a5 v=0
202680 On ch=1 n=d6 v=60
202800 On ch=1 n=d6 v=0
202800 On ch=1 n=f#6 v=60
202920 On ch=1 n=f#6 v=0
202920 On ch=1 n=a6 v=60
203040 On ch=1 n=a6 v=0
203520 On ch=1 n=a5 v=50
203640 On ch=1 n=a5 v=0
203640 On ch=1 n=d6 v=50
203760 On ch=1 n=d6 v=0
203760 On ch=1 n=f#6 v=50
203880 On ch=1 n=f#6 v=0
203880 On ch=1 n=a6 v=50
204000 On ch=1 n=a6 v=0
204960 On ch=1 n=a4 v=40
205080 On ch=1 n=a4 v=0
205080 On ch=1 n=d5 v=40
205200 On ch=1 n=d5 v=0
205200 On ch=1 n=f#5 v=40
205320 On ch=1 n=f#5 v=0
205320 On ch=1 n=a5 v=40
205440 On ch=1 n=a5 v=0
205920 On ch=1 n=a5 v=50
206040 On ch=1 n=a5 v=0
206040 On ch=1 n=d6 v=50
206160 On ch=1 n=d6 v=0
206160 On ch=1 n=f#6 v=50
206280 On ch=1 n=f#6 v=0
206280 On ch=1 n=a6 v=50
206400 On ch=1 n=a6 v=0
206880 On ch=1 n=a6 v=70
207000 On ch=1 n=a6 v=0
207000 On ch=1 n=d7 v=70
207120 On ch=1 n=d7 v=0
207120 On ch=1 n=f#7 v=70
207240 On ch=1 n=f#7 v=0
207240 On ch=1 n=a7 v=70
207360 On ch=1 n=a7 v=0
207360 Meta TrkEnd
TrkEnd
MTrk
0 SeqSpec 43 00 01 00
0 Meta TrkName "Middle Tre"
