MFile 1 10 480
MTrk
0 TimeSig 6/4 24 8
0 KeySig 6 major
0 Tempo 712483
23040 TimeSig 3/4 24 8
23040 KeySig -2 major
24480 TimeSig 6/4 24 8
24480 Tempo 681818
33120 KeySig 6 major
33120 Tempo 712483
38880 TimeSig 3/4 24 8
40320 TimeSig 6/4 24 8
51840 TimeSig 9/4 24 8
51840 Tempo 685745
53280 Tempo 660535
54720 Tempo 833333
56160 TimeSig 6/4 24 8
56160 Tempo 810811
57600 Tempo 789474
59040 Tempo 769231
60480 Tempo 750000
61920 Tempo 731707
63360 Tempo 714286
64800 Tempo 731707
65280 Tempo 750000
65760 Tempo 769231
66240 Tempo 789474
66720 Tempo 810811
67200 Tempo 833333
67680 KeySig -3 major
67680 Tempo 712483
76320 KeySig 0 major
76320 Tempo 612245
87840 TimeSig 8/4 24 8
87840 KeySig 6 major
87840 Tempo 240000
88320 Tempo 712483
89760 Tempo 240000
90240 Tempo 712483
91680 TimeSig 7/4 24 8
91680 Tempo 240000
92160 Tempo 712483
95040 TimeSig 6/4 24 8
109440 Tempo 1034483
109440 Meta TrkEnd
TrkEnd
MTrk
0 SeqSpec 43 00 01 00
0 Meta TrkName "Right Treble"
0 Meta 0x21 00
2400 On ch=1 n=g7 v=30
2520 On ch=1 n=g7 v=0
2520 On ch=1 n=g#7 v=30
2640 On ch=1 n=g#7 v=0
2640 On ch=1 n=g7 v=30
2760 On ch=1 n=g7 v=0
2760 On ch=1 n=f#7 v=30
2880 On ch=1 n=f#7 v=0
2880 On ch=1 n=f7 v=30
3000 On ch=1 n=f7 v=0
3000 On ch=1 n=f#7 v=30
3120 On ch=1 n=f#7 v=0
3120 On ch=1 n=f7 v=30
3240 On ch=1 n=f7 v=0
3240 On ch=1 n=d7 v=30
3360 On ch=1 n=d7 v=0
3360 On ch=1 n=c#7 v=30
3480 On ch=1 n=c#7 v=0
3480 On ch=1 n=c7 v=30
3600 On ch=1 n=c7 v=0
3600 On ch=1 n=b6 v=30
3720 On ch=1 n=b6 v=0
3720 On ch=1 n=g#6 v=30
3840 On ch=1 n=g#6 v=0
3840 On ch=1 n=g6 v=30
3960 On ch=1 n=g6 v=0
3960 On ch=1 n=g#6 v=30
4080 On ch=1 n=g#6 v=0
4080 On ch=1 n=g6 v=30
4200 On ch=1 n=g6 v=0
4200 On ch=1 n=f#6 v=30
4320 On ch=1 n=f#6 v=0
4320 On ch=1 n=f6 v=30
4440 On ch=1 n=f6 v=0
4440 On ch=1 n=f#6 v=30
4560 On ch=1 n=f#6 v=0
4560 On ch=1 n=f6 v=30
4680 On ch=1 n=f6 v=0
4680 On ch=1 n=d6 v=30
4800 On ch=1 n=d6 v=0
4800 On ch=1 n=c#6 v=30
4920 On ch=1 n=c#6 v=0
4920 On ch=1 n=c6 v=30
5040 On ch=1 n=c6 v=0
5040 On ch=1 n=b5 v=30
5160 On ch=1 n=b5 v=0
5160 On ch=1 n=g#5 v=30
5280 On ch=1 n=g#5 v=0
5280 On ch=1 n=g5 v=30
5400 On ch=1 n=g5 v=0
5400 On ch=1 n=f#5 v=30
5520 On ch=1 n=f#5 v=0
5520 On ch=1 n=f5 v=30
5640 On ch=1 n=f5 v=0
5640 On ch=1 n=d5 v=30
5760 On ch=1 n=d5 v=0
5760 On ch=1 n=b4 v=40
5760 On ch=1 n=c#5 v=40
6720 On ch=1 n=c#5 v=0
6720 On ch=1 n=b4 v=0
6720 On ch=1 n=a#6 v=50
6720 On ch=1 n=g#6 v=50
6720 On ch=1 n=f6 v=50
6720 On ch=1 n=d6 v=50
7200 On ch=1 n=d6 v=0
7200 On ch=1 n=f6 v=0
7200 On ch=1 n=g#6 v=0
7200 On ch=1 n=a#6 v=0
7200 On ch=1 n=c#5 v=40
7200 On ch=1 n=b4 v=40
8160 On ch=1 n=b4 v=0
8160 On ch=1 n=c#5 v=0
8160 On ch=1 n=a#6 v=50
8160 On ch=1 n=g#6 v=50
8160 On ch=1 n=f6 v=50
8160 On ch=1 n=d6 v=50
8640 On ch=1 n=d6 v=0
8640 On ch=1 n=f6 v=0
8640 On ch=1 n=g#6 v=0
8640 On ch=1 n=a#6 v=0
8880 On ch=1 n=a#5 v=40
8880 On ch=1 n=g#5 v=40
8880 On ch=1 n=d5 v=40
8880 On ch=1 n=f5 v=40
9120 On ch=1 n=f5 v=0
9120 On ch=1 n=d5 v=0
9120 On ch=1 n=g#5 v=0
9120 On ch=1 n=a#5 v=0
9840 On ch=1 n=a#6 v=50
9840 On ch=1 n=g#6 v=50
9840 On ch=1 n=f6 v=50
9840 On ch=1 n=d6 v=50
9960 On ch=1 n=d6 v=0
9960 On ch=1 n=f6 v=0
9960 On ch=1 n=g#6 v=0
9960 On ch=1 n=a#6 v=0
10320 On ch=1 n=d5 v=40
10320 On ch=1 n=f5 v=40
10320 On ch=1 n=g#5 v=40
10320 On ch=1 n=a#5 v=40
10560 On ch=1 n=a#5 v=0
10560 On ch=1 n=g#5 v=0
10560 On ch=1 n=f5 v=0
10560 On ch=1 n=d5 v=0
10800 On ch=1 n=a#6 v=40
10800 On ch=1 n=g#6 v=40
10800 On ch=1 n=f6 v=40
10800 On ch=1 n=d6 v=40
10920 On ch=1 n=d6 v=0
10920 On ch=1 n=f6 v=0
10920 On ch=1 n=g#6 v=0
10920 On ch=1 n=a#6 v=0
11280 On ch=1 n=f6 v=40
11280 On ch=1 n=d#6 v=40
11280 On ch=1 n=c6 v=40
11280 On ch=1 n=a5 v=40
11400 On ch=1 n=a5 v=0
11400 On ch=1 n=c6 v=0
11400 On ch=1 n=d#6 v=0
11400 On ch=1 n=f6 v=0
12000 On ch=1 n=g7 v=30
12120 On ch=1 n=g7 v=0
12120 On ch=1 n=g#7 v=30
12240 On ch=1 n=g#7 v=0
12240 On ch=1 n=g7 v=30
12360 On ch=1 n=g7 v=0
12360 On ch=1 n=f#7 v=30
12480 On ch=1 n=f#7 v=0
12480 On ch=1 n=f7 v=30
12600 On ch=1 n=f7 v=0
12600 On ch=1 n=f#7 v=30
12720 On ch=1 n=f#7 v=0
12720 On ch=1 n=f7 v=30
12840 On ch=1 n=f7 v=0
12840 On ch=1 n=d7 v=30
12960 On ch=1 n=d7 v=0
12960 On ch=1 n=c#7 v=30
13080 On ch=1 n=c#7 v=0
13080 On ch=1 n=c7 v=30
13200 On ch=1 n=c7 v=0
13200 On ch=1 n=b6 v=30
13320 On ch=1 n=b6 v=0
13320 On ch=1 n=g#6 v=30
13440 On ch=1 n=g#6 v=0
13440 On ch=1 n=g6 v=30
13560 On ch=1 n=g6 v=0
13560 On ch=1 n=g#6 v=30
13680 On ch=1 n=g#6 v=0
13680 On ch=1 n=g6 v=30
13800 On ch=1 n=g6 v=0
13800 On ch=1 n=f#6 v=30
13920 On ch=1 n=f#6 v=0
13920 On ch=1 n=f6 v=30
14040 On ch=1 n=f6 v=0
14040 On ch=1 n=f#6 v=30
14160 On ch=1 n=f#6 v=0
14160 On ch=1 n=f6 v=30
14280 On ch=1 n=f6 v=0
14280 On ch=1 n=d6 v=30
14400 On ch=1 n=d6 v=0
14400 On ch=1 n=c#6 v=30
14520 On ch=1 n=c#6 v=0
14520 On ch=1 n=c6 v=30
14640 On ch=1 n=c6 v=0
14640 On ch=1 n=b5 v=30
14760 On ch=1 n=b5 v=0
14760 On ch=1 n=g#5 v=30
14880 On ch=1 n=g#5 v=0
14880 On ch=1 n=g5 v=30
15000 On ch=1 n=g5 v=0
15000 On ch=1 n=g#5 v=30
15120 On ch=1 n=g#5 v=0
15120 On ch=1 n=g5 v=30
15240 On ch=1 n=g5 v=0
15240 On ch=1 n=f#5 v=30
15360 On ch=1 n=f#5 v=0
15360 On ch=1 n=f5 v=30
15480 On ch=1 n=f5 v=0
15480 On ch=1 n=f#5 v=30
15600 On ch=1 n=f#5 v=0
15600 On ch=1 n=f5 v=30
15720 On ch=1 n=f5 v=0
15720 On ch=1 n=d5 v=30
15840 On ch=1 n=d5 v=0
15840 On ch=1 n=c#5 v=30
15960 On ch=1 n=c#5 v=0
15960 On ch=1 n=c5 v=30
16080 On ch=1 n=c5 v=0
17760 On ch=1 n=f#7 v=40
17760 On ch=1 n=d#7 v=40
17760 On ch=1 n=a#6 v=40
17760 On ch=1 n=f#6 v=40
17940 On ch=1 n=f#6 v=0
17940 On ch=1 n=a#6 v=0
17940 On ch=1 n=d#7 v=0
17940 On ch=1 n=f#7 v=0
18000 On ch=1 n=f#7 v=40
18000 On ch=1 n=d#7 v=40
18000 On ch=1 n=a#6 v=40
18000 On ch=1 n=f#6 v=40
18180 On ch=1 n=f#6 v=0
18180 On ch=1 n=a#6 v=0
18180 On ch=1 n=d#7 v=0
18180 On ch=1 n=f#7 v=0
18240 On ch=1 n=f#7 v=40
18240 On ch=1 n=d#7 v=40
18240 On ch=1 n=a#6 v=40
18240 On ch=1 n=f#6 v=40
18420 On ch=1 n=f#6 v=0
18420 On ch=1 n=a#6 v=0
18420 On ch=1 n=d#7 v=0
18420 On ch=1 n=f#7 v=0
18480 On ch=1 n=g7 v=40
18480 On ch=1 n=e7 v=40
18480 On ch=1 n=b6 v=40
18480 On ch=1 n=g6 v=40
18660 On ch=1 n=g6 v=0
18660 On ch=1 n=b6 v=0
18660 On ch=1 n=e7 v=0
18660 On ch=1 n=g7 v=0
18720 On ch=1 n=f#7 v=40
18720 On ch=1 n=d#7 v=40
18720 On ch=1 n=a#6 v=40
18720 On ch=1 n=f#6 v=40
18900 On ch=1 n=f#6 v=0
18900 On ch=1 n=a#6 v=0
18900 On ch=1 n=d#7 v=0
18900 On ch=1 n=f#7 v=0
19200 On ch=1 n=d7 v=40
19200 On ch=1 n=a#6 v=40
19200 On ch=1 n=f6 v=40
19200 On ch=1 n=d6 v=40
19380 On ch=1 n=d6 v=0
19380 On ch=1 n=f6 v=0
19380 On ch=1 n=a#6 v=0
19380 On ch=1 n=d7 v=0
19680 On ch=1 n=e7 v=50
19680 On ch=1 n=c#7 v=50
19680 On ch=1 n=g#6 v=50
19680 On ch=1 n=e6 v=50
21600 On ch=1 n=e6 v=0
21600 On ch=1 n=g#6 v=0
21600 On ch=1 n=c#7 v=0
21600 On ch=1 n=e7 v=0
22080 On ch=1 n=d7 v=30
22080 On ch=1 n=a#6 v=30
22080 On ch=1 n=d6 v=30
22080 On ch=1 n=f6 v=30
23040 On ch=1 n=f6 v=0
23040 On ch=1 n=d6 v=0
23040 On ch=1 n=a#6 v=0
23040 On ch=1 n=d7 v=0
25320 On ch=1 n=c#5 v=40
25320 On ch=1 n=e5 v=40
25320 On ch=1 n=g5 v=40
25380 On ch=1 n=g5 v=0
25380 On ch=1 n=e5 v=0
25380 On ch=1 n=c#5 v=0
25680 On ch=1 n=a5 v=40
25680 On ch=1 n=e5 v=40
25680 On ch=1 n=c#5 v=40
25740 On ch=1 n=c#5 v=0
25740 On ch=1 n=e5 v=0
25740 On ch=1 n=a5 v=0
26160 On ch=1 n=a#5 v=40
26160 On ch=1 n=g5 v=40
26160 On ch=1 n=e5 v=40
26160 On ch=1 n=c#5 v=40
26220 On ch=1 n=c#5 v=0
26220 On ch=1 n=e5 v=0
26220 On ch=1 n=g5 v=0
26220 On ch=1 n=a#5 v=0
26640 On ch=1 n=d7 v=50
26700 On ch=1 n=d7 v=0
26700 On ch=1 n=a6 v=50
26760 On ch=1 n=a6 v=0
26760 On ch=1 n=f6 v=50
26820 On ch=1 n=f6 v=0
26820 On ch=1 n=d6 v=50
26880 On ch=1 n=d6 v=0
28200 On ch=1 n=c#5 v=40
28200 On ch=1 n=e5 v=40
28200 On ch=1 n=g5 v=40
28260 On ch=1 n=g5 v=0
28260 On ch=1 n=e5 v=0
28260 On ch=1 n=c#5 v=0
28560 On ch=1 n=a5 v=40
28560 On ch=1 n=e5 v=40
28560 On ch=1 n=c#5 v=40
28620 On ch=1 n=c#5 v=0
28620 On ch=1 n=e5 v=0
28620 On ch=1 n=a5 v=0
29040 On ch=1 n=a#5 v=40
29040 On ch=1 n=g5 v=40
29040 On ch=1 n=e5 v=40
29040 On ch=1 n=c#5 v=40
29100 On ch=1 n=c#5 v=0
29100 On ch=1 n=e5 v=0
29100 On ch=1 n=g5 v=0
29100 On ch=1 n=a#5 v=0
29520 On ch=1 n=d7 v=50
29580 On ch=1 n=d7 v=0
29580 On ch=1 n=a6 v=50
29640 On ch=1 n=a6 v=0
29640 On ch=1 n=f6 v=50
29700 On ch=1 n=f6 v=0
29700 On ch=1 n=d6 v=50
29760 On ch=1 n=d6 v=0
30480 On ch=1 n=d7 v=30
30540 On ch=1 n=d7 v=0
30540 On ch=1 n=a6 v=30
30600 On ch=1 n=a6 v=0
30600 On ch=1 n=f6 v=30
30660 On ch=1 n=f6 v=0
30660 On ch=1 n=d6 v=30
30720 On ch=1 n=d6 v=0
32016 On ch=1 n=d#6 v=65
32064 On ch=1 n=d#6 v=0
32064 On ch=1 n=g#6 v=70
32112 On ch=1 n=g#6 v=0
32112 On ch=1 n=b6 v=75
32160 On ch=1 n=d#6 v=80
32160 On ch=1 n=d#7 v=80
32640 On ch=1 n=d#7 v=0
32640 On ch=1 n=d#6 v=0
32640 On ch=1 n=d#7 v=90
32640 On ch=1 n=d#6 v=90
34080 On ch=1 n=d#6 v=0
34080 On ch=1 n=d#7 v=0
34080 On ch=1 n=b6 v=0
34080 On ch=1 n=d7 v=40
34080 On ch=1 n=d6 v=40
34560 On ch=1 n=d6 v=0
34560 On ch=1 n=d7 v=0
34560 On ch=1 n=c#6 v=40
34560 On ch=1 n=c#7 v=40
34560 On ch=1 n=g#6 v=40
35280 On ch=1 n=c#7 v=0
35280 On ch=1 n=c#6 v=0
35280 On ch=1 n=c6 v=40
35280 On ch=1 n=c7 v=40
35520 On ch=1 n=c7 v=0
35520 On ch=1 n=c6 v=0
35520 On ch=1 n=g#6 v=0
35520 On ch=1 n=c#7 v=40
35520 On ch=1 n=c#6 v=40
35760 On ch=1 n=c#6 v=0
35760 On ch=1 n=c#7 v=0
35760 On ch=1 n=d7 v=40
35760 On ch=1 n=d6 v=40
36000 On ch=1 n=d6 v=0
36000 On ch=1 n=d7 v=0
36000 On ch=1 n=d#7 v=40
36000 On ch=1 n=b6 v=40
36000 On ch=1 n=d#6 v=40
36960 On ch=1 n=d#6 v=0
36960 On ch=1 n=b6 v=0
36960 On ch=1 n=d#7 v=0
36960 On ch=1 n=a#7 v=50
36960 On ch=1 n=d7 v=50
36960 On ch=1 n=a#6 v=50
37920 On ch=1 n=a#6 v=0
37920 On ch=1 n=d7 v=0
37920 On ch=1 n=a#7 v=0
37920 On ch=1 n=f6 v=60
37920 On ch=1 n=a#6 v=60
37920 On ch=1 n=f7 v=60
38880 On ch=1 n=f7 v=0
38880 On ch=1 n=a#6 v=0
38880 On ch=1 n=f6 v=0
38880 On ch=1 n=g#7 v=50
38880 On ch=1 n=b6 v=50
38880 On ch=1 n=g#6 v=50
39840 On ch=1 n=g#6 v=0
39840 On ch=1 n=b6 v=0
39840 On ch=1 n=g#7 v=0
39840 On ch=1 n=f#7 v=40
39840 On ch=1 n=c7 v=40
39840 On ch=1 n=f#6 v=40
40320 On ch=1 n=f#6 v=0
40320 On ch=1 n=c7 v=0
40320 On ch=1 n=f#7 v=0
40320 On ch=1 n=g6 v=50
40320 On ch=1 n=c#7 v=40
40320 On ch=1 n=c#6 v=40
41040 On ch=1 n=g6 v=0
41040 On ch=1 n=g#6 v=50
41280 On ch=1 n=g#6 v=0
41280 On ch=1 n=g#6 v=50
41520 On ch=1 n=g#6 v=0
41520 On ch=1 n=g6 v=50
41760 On ch=1 n=g6 v=0
41760 On ch=1 n=g6 v=50
42000 On ch=1 n=g6 v=0
42000 On ch=1 n=f#6 v=50
42240 On ch=1 n=f#6 v=0
42240 On ch=1 n=c#6 v=0
42240 On ch=1 n=c#7 v=0
42240 On ch=1 n=f#6 v=50
42240 On ch=1 n=c#7 v=40
42240 On ch=1 n=c#6 v=40
42480 On ch=1 n=f#6 v=0
42480 On ch=1 n=f6 v=50
42720 On ch=1 n=f6 v=0
42720 On ch=1 n=f6 v=50
42960 On ch=1 n=f6 v=0
42960 On ch=1 n=f#6 v=50
43200 On ch=1 n=f#6 v=0
43200 On ch=1 n=c#6 v=0
43200 On ch=1 n=c#7 v=0
43200 On ch=1 n=g6 v=50
43680 On ch=1 n=c#7 v=40
43680 On ch=1 n=c#6 v=40
43920 On ch=1 n=g6 v=0
43920 On ch=1 n=g#6 v=50
44160 On ch=1 n=g#6 v=0
44160 On ch=1 n=g#6 v=50
44400 On ch=1 n=g#6 v=0
44400 On ch=1 n=g6 v=50
44640 On ch=1 n=g6 v=0
44640 On ch=1 n=c#6 v=0
44640 On ch=1 n=c#7 v=0
44640 On ch=1 n=g6 v=50
45120 On ch=1 n=c#7 v=40
45120 On ch=1 n=c#6 v=40
45360 On ch=1 n=g6 v=0
45360 On ch=1 n=g#6 v=50
45600 On ch=1 n=g#6 v=0
45600 On ch=1 n=g6 v=50
45840 On ch=1 n=g6 v=0
45840 On ch=1 n=g#6 v=50
46080 On ch=1 n=g#6 v=0
46080 On ch=1 n=c#6 v=0
46080 On ch=1 n=c#7 v=0
46080 On ch=1 n=a6 v=50
46080 On ch=1 n=c#7 v=40
46080 On ch=1 n=c#6 v=40
46800 On ch=1 n=a6 v=0
46800 On ch=1 n=a#6 v=50
47040 On ch=1 n=a#6 v=0
47040 On ch=1 n=a#6 v=50
47280 On ch=1 n=a#6 v=0
47280 On ch=1 n=a6 v=50
47520 On ch=1 n=a6 v=0
47520 On ch=1 n=a6 v=50
47760 On ch=1 n=a6 v=0
47760 On ch=1 n=a#6 v=50
48000 On ch=1 n=a#6 v=0
48000 On ch=1 n=c#6 v=0
48000 On ch=1 n=c#7 v=0
48000 On ch=1 n=a#6 v=50
48000 On ch=1 n=c#7 v=40
48000 On ch=1 n=c#6 v=40
48240 On ch=1 n=a#6 v=0
48240 On ch=1 n=a6 v=50
48480 On ch=1 n=a6 v=0
48480 On ch=1 n=a6 v=50
48720 On ch=1 n=a6 v=0
48720 On ch=1 n=g#6 v=50
48960 On ch=1 n=g#6 v=0
48960 On ch=1 n=c#6 v=0
48960 On ch=1 n=c#7 v=0
48960 On ch=1 n=c#7 v=60
48960 On ch=1 n=c#6 v=60
48960 On ch=1 n=g6 v=50
49440 On ch=1 n=g6 v=0
49440 On ch=1 n=e6 v=50
49680 On ch=1 n=c#6 v=0
49680 On ch=1 n=c#7 v=0
49680 On ch=1 n=b6 v=60
49680 On ch=1 n=b5 v=60
49920 On ch=1 n=b5 v=0
49920 On ch=1 n=b6 v=0
49920 On ch=1 n=e6 v=0
49920 On ch=1 n=b6 v=70
49920 On ch=1 n=b5 v=70
49920 On ch=1 n=g6 v=60
50160 On ch=1 n=b5 v=0
50160 On ch=1 n=b6 v=0
50160 On ch=1 n=c#7 v=70
50160 On ch=1 n=c#6 v=70
50400 On ch=1 n=c#6 v=0
50400 On ch=1 n=c#7 v=0
50400 On ch=1 n=c#6 v=70
50400 On ch=1 n=c#7 v=70
50880 On ch=1 n=g6 v=0
50880 On ch=1 n=e6 v=70
51120 On ch=1 n=c#7 v=0
51120 On ch=1 n=c#6 v=0
51120 On ch=1 n=b6 v=80
51120 On ch=1 n=b5 v=80
51360 On ch=1 n=b5 v=0
51360 On ch=1 n=b6 v=0
51360 On ch=1 n=e6 v=0
51360 On ch=1 n=b6 v=80
51360 On ch=1 n=b5 v=80
51360 On ch=1 n=f6 v=70
51600 On ch=1 n=b5 v=0
51600 On ch=1 n=b6 v=0
51600 On ch=1 n=c#7 v=80
51600 On ch=1 n=c#6 v=80
51840 On ch=1 n=c#6 v=0
51840 On ch=1 n=c#7 v=0
51840 On ch=1 n=f6 v=0
51840 On ch=1 n=f#7 v=40
51840 On ch=1 n=d7 v=40
51840 On ch=1 n=f#6 v=40
52560 On ch=1 n=f#6 v=0
52560 On ch=1 n=d7 v=0
52560 On ch=1 n=f#7 v=0
52560 On ch=1 n=f7 v=40
52560 On ch=1 n=c#7 v=40
52560 On ch=1 n=f6 v=40
52800 On ch=1 n=f6 v=0
52800 On ch=1 n=c#7 v=0
52800 On ch=1 n=f7 v=0
52800 On ch=1 n=f7 v=40
52800 On ch=1 n=c#7 v=40
52800 On ch=1 n=f6 v=40
53040 On ch=1 n=f6 v=0
53040 On ch=1 n=c#7 v=0
53040 On ch=1 n=f7 v=0
53040 On ch=1 n=f#7 v=40
53040 On ch=1 n=d7 v=40
53040 On ch=1 n=f#6 v=40
53280 On ch=1 n=f#6 v=0
53280 On ch=1 n=d7 v=0
53280 On ch=1 n=f#7 v=0
53280 On ch=1 n=f#7 v=40
53280 On ch=1 n=d7 v=40
53280 On ch=1 n=f#6 v=40
53520 On ch=1 n=f#6 v=0
53520 On ch=1 n=d7 v=0
53520 On ch=1 n=f#7 v=0
53520 On ch=1 n=c#7 v=40
53520 On ch=1 n=a#6 v=40
53520 On ch=1 n=c#6 v=40
53760 On ch=1 n=c#6 v=0
53760 On ch=1 n=a#6 v=0
53760 On ch=1 n=c#7 v=0
53760 On ch=1 n=c#7 v=40
53760 On ch=1 n=a#6 v=40
53760 On ch=1 n=c#6 v=40
54000 On ch=1 n=c#6 v=0
54000 On ch=1 n=a#6 v=0
54000 On ch=1 n=c#7 v=0
54000 On ch=1 n=d7 v=40
54000 On ch=1 n=b6 v=40
54000 On ch=1 n=d6 v=40
54240 On ch=1 n=d6 v=0
54240 On ch=1 n=b6 v=0
54240 On ch=1 n=d7 v=0
54240 On ch=1 n=c#7 v=40
54240 On ch=1 n=a#6 v=40
54240 On ch=1 n=c#6 v=40
54480 On ch=1 n=c#6 v=0
54480 On ch=1 n=a#6 v=0
54480 On ch=1 n=c#7 v=0
54480 On ch=1 n=c7 v=40
54480 On ch=1 n=e7 v=40
54480 On ch=1 n=e6 v=40
54720 On ch=1 n=e6 v=0
54720 On ch=1 n=e7 v=0
54720 On ch=1 n=c7 v=0
54720 On ch=1 n=a#6 v=40
54720 On ch=1 n=f#6 v=40
54720 On ch=1 n=a#5 v=40
55440 On ch=1 n=a#5 v=0
55440 On ch=1 n=f#6 v=0
55440 On ch=1 n=a#6 v=0
55440 On ch=1 n=b6 v=40
55440 On ch=1 n=g6 v=40
55440 On ch=1 n=b5 v=40
55680 On ch=1 n=b5 v=0
55680 On ch=1 n=g6 v=0
55680 On ch=1 n=b6 v=0
55680 On ch=1 n=a#6 v=40
55680 On ch=1 n=f#6 v=40
55680 On ch=1 n=a#5 v=40
55920 On ch=1 n=a#5 v=0
55920 On ch=1 n=f#6 v=0
55920 On ch=1 n=a#6 v=0
55920 On ch=1 n=c#7 v=40
55920 On ch=1 n=a6 v=40
55920 On ch=1 n=c#6 v=40
56160 On ch=1 n=c#6 v=0
56160 On ch=1 n=a6 v=0
56160 On ch=1 n=c#7 v=0
56160 On ch=1 n=e5 v=60
56160 On ch=1 n=c6 v=60
56160 On ch=1 n=e6 v=60
56880 On ch=1 n=e6 v=0
56880 On ch=1 n=c6 v=0
56880 On ch=1 n=e5 v=0
56880 On ch=1 n=d#5 v=60
56880 On ch=1 n=b5 v=60
56880 On ch=1 n=d#6 v=60
57120 On ch=1 n=d#6 v=0
57120 On ch=1 n=b5 v=0
57120 On ch=1 n=d#5 v=0
57120 On ch=1 n=e5 v=70
57120 On ch=1 n=c6 v=70
57120 On ch=1 n=e6 v=70
57360 On ch=1 n=e6 v=0
57360 On ch=1 n=c6 v=0
57360 On ch=1 n=e5 v=0
57360 On ch=1 n=d#5 v=70
57360 On ch=1 n=b5 v=70
57360 On ch=1 n=d#6 v=70
57600 On ch=1 n=d#6 v=0
57600 On ch=1 n=b5 v=0
57600 On ch=1 n=d#5 v=0
57600 On ch=1 n=d5 v=70
57600 On ch=1 n=a#5 v=70
57600 On ch=1 n=d6 v=70
58080 On ch=1 n=d6 v=0
58080 On ch=1 n=a#5 v=0
58080 On ch=1 n=d5 v=0
58080 On ch=1 n=g#6 v=80
58080 On ch=1 n=e6 v=80
58080 On ch=1 n=g#5 v=80
58560 On ch=1 n=g#5 v=0
58560 On ch=1 n=e6 v=0
58560 On ch=1 n=g#6 v=0
58560 On ch=1 n=f#5 v=80
58560 On ch=1 n=d6 v=80
58560 On ch=1 n=f#6 v=80
59040 On ch=1 n=f#6 v=0
59040 On ch=1 n=d6 v=0
59040 On ch=1 n=f#5 v=0
59040 On ch=1 n=e5 v=60
59040 On ch=1 n=c6 v=60
59040 On ch=1 n=e6 v=60
59760 On ch=1 n=e6 v=0
59760 On ch=1 n=c6 v=0
59760 On ch=1 n=e5 v=0
59760 On ch=1 n=d#5 v=60
59760 On ch=1 n=b5 v=60
59760 On ch=1 n=d#6 v=60
60000 On ch=1 n=d#6 v=0
60000 On ch=1 n=b5 v=0
60000 On ch=1 n=d#5 v=0
60000 On ch=1 n=e6 v=70
60000 On ch=1 n=c6 v=70
60000 On ch=1 n=e5 v=70
60240 On ch=1 n=e5 v=0
60240 On ch=1 n=c6 v=0
60240 On ch=1 n=e6 v=0
60240 On ch=1 n=d#6 v=70
60240 On ch=1 n=b5 v=70
60240 On ch=1 n=d#5 v=70
60480 On ch=1 n=d#5 v=0
60480 On ch=1 n=b5 v=0
60480 On ch=1 n=d#6 v=0
60480 On ch=1 n=d5 v=70
60480 On ch=1 n=a#5 v=70
60480 On ch=1 n=d6 v=70
60960 On ch=1 n=d6 v=0
60960 On ch=1 n=a#5 v=0
60960 On ch=1 n=d5 v=0
60960 On ch=1 n=a6 v=80
60960 On ch=1 n=f6 v=80
60960 On ch=1 n=a5 v=80
61440 On ch=1 n=a5 v=0
61440 On ch=1 n=f6 v=0
61440 On ch=1 n=a6 v=0
61440 On ch=1 n=g#6 v=80
61440 On ch=1 n=e6 v=80
61440 On ch=1 n=g#5 v=80
61920 On ch=1 n=g#5 v=0
61920 On ch=1 n=e6 v=0
61920 On ch=1 n=g#6 v=0
61920 On ch=1 n=g6 v=60
61920 On ch=1 n=d#6 v=60
61920 On ch=1 n=g5 v=60
62640 On ch=1 n=g5 v=0
62640 On ch=1 n=d#6 v=0
62640 On ch=1 n=g6 v=0
62640 On ch=1 n=f#6 v=60
62640 On ch=1 n=d6 v=60
62640 On ch=1 n=f#5 v=60
62880 On ch=1 n=f#5 v=0
62880 On ch=1 n=d6 v=0
62880 On ch=1 n=f#6 v=0
62880 On ch=1 n=g6 v=60
62880 On ch=1 n=d#6 v=60
62880 On ch=1 n=g5 v=60
63120 On ch=1 n=g5 v=0
63120 On ch=1 n=d#6 v=0
63120 On ch=1 n=g6 v=0
63120 On ch=1 n=f#6 v=60
63120 On ch=1 n=d6 v=60
63120 On ch=1 n=f#5 v=60
63360 On ch=1 n=f#5 v=0
63360 On ch=1 n=d6 v=0
63360 On ch=1 n=f#6 v=0
63360 On ch=1 n=f6 v=60
63360 On ch=1 n=c#6 v=60
63360 On ch=1 n=f5 v=60
63840 On ch=1 n=f5 v=0
63840 On ch=1 n=c#6 v=0
63840 On ch=1 n=f6 v=0
63840 On ch=1 n=b6 v=60
63840 On ch=1 n=g#6 v=60
63840 On ch=1 n=b5 v=60
64320 On ch=1 n=b5 v=0
64320 On ch=1 n=g#6 v=0
64320 On ch=1 n=b6 v=0
64320 On ch=1 n=a6 v=60
64320 On ch=1 n=f6 v=60
64320 On ch=1 n=a5 v=60
64800 On ch=1 n=a5 v=0
64800 On ch=1 n=f6 v=0
64800 On ch=1 n=a6 v=0
64800 On ch=1 n=d#7 v=60
64800 On ch=1 n=b6 v=60
64800 On ch=1 n=d#6 v=60
65280 On ch=1 n=d#6 v=0
65280 On ch=1 n=b6 v=0
65280 On ch=1 n=d#7 v=0
65280 On ch=1 n=c#6 v=60
65280 On ch=1 n=a6 v=60
65280 On ch=1 n=c#7 v=60
65760 On ch=1 n=c#7 v=0
65760 On ch=1 n=a6 v=0
65760 On ch=1 n=c#6 v=0
65760 On ch=1 n=g7 v=70
65760 On ch=1 n=d#7 v=70
65760 On ch=1 n=g6 v=70
66240 On ch=1 n=g6 v=0
66240 On ch=1 n=d#7 v=0
66240 On ch=1 n=g7 v=0
66240 On ch=1 n=f6 v=70
66240 On ch=1 n=c#7 v=70
66240 On ch=1 n=f7 v=70
66720 On ch=1 n=f7 v=0
66720 On ch=1 n=c#7 v=0
66720 On ch=1 n=f6 v=0
66720 On ch=1 n=a7 v=80
66720 On ch=1 n=f7 v=80
66720 On ch=1 n=c7 v=80
66720 On ch=1 n=a6 v=80
67200 On ch=1 n=a6 v=0
67200 On ch=1 n=c7 v=0
67200 On ch=1 n=f7 v=0
67200 On ch=1 n=a7 v=0
67200 On ch=1 n=g6 v=80
67200 On ch=1 n=c7 v=80
67200 On ch=1 n=e7 v=80
67200 On ch=1 n=g7 v=80
67680 On ch=1 n=g7 v=0
67680 On ch=1 n=e7 v=0
67680 On ch=1 n=c7 v=0
67680 On ch=1 n=g6 v=0
67680 On ch=1 n=a#7 v=40
67680 On ch=1 n=g7 v=40
67680 On ch=1 n=d#7 v=40
67680 On ch=1 n=a#6 v=40
68400 On ch=1 n=a#6 v=0
68400 On ch=1 n=d#7 v=0
68400 On ch=1 n=g7 v=0
68400 On ch=1 n=a#7 v=0
68400 On ch=1 n=b7 v=40
68400 On ch=1 n=g#7 v=40
68400 On ch=1 n=e7 v=40
68400 On ch=1 n=b6 v=40
68640 On ch=1 n=b6 v=0
68640 On ch=1 n=e7 v=0
68640 On ch=1 n=g#7 v=0
68640 On ch=1 n=b7 v=0
68640 On ch=1 n=b7 v=40
68640 On ch=1 n=g#7 v=40
68640 On ch=1 n=e7 v=40
68640 On ch=1 n=b6 v=40
68880 On ch=1 n=b6 v=0
68880 On ch=1 n=e7 v=0
68880 On ch=1 n=g#7 v=0
68880 On ch=1 n=b7 v=0
68880 On ch=1 n=a#7 v=40
68880 On ch=1 n=g7 v=40
68880 On ch=1 n=d#7 v=40
68880 On ch=1 n=a#6 v=40
69120 On ch=1 n=a#6 v=0
69120 On ch=1 n=d#7 v=0
69120 On ch=1 n=g7 v=0
69120 On ch=1 n=a#7 v=0
69120 On ch=1 n=a#7 v=50
69120 On ch=1 n=g7 v=50
69120 On ch=1 n=d#7 v=50
69120 On ch=1 n=a#6 v=50
70080 On ch=1 n=a#6 v=0
70080 On ch=1 n=d#7 v=0
70080 On ch=1 n=g7 v=0
70080 On ch=1 n=a#7 v=0
70080 On ch=1 n=g7 v=50
70080 On ch=1 n=e7 v=50
70080 On ch=1 n=c7 v=50
70080 On ch=1 n=g6 v=50
70560 On ch=1 n=g6 v=0
70560 On ch=1 n=c7 v=0
70560 On ch=1 n=e7 v=0
70560 On ch=1 n=g7 v=0
70560 On ch=1 n=d8 v=60
70560 On ch=1 n=b7 v=60
70560 On ch=1 n=g7 v=60
70560 On ch=1 n=d7 v=60
71520 On ch=1 n=d7 v=0
71520 On ch=1 n=g7 v=0
71520 On ch=1 n=b7 v=0
71520 On ch=1 n=d8 v=0
71520 On ch=1 n=d#8 v=60
71520 On ch=1 n=c8 v=60
71520 On ch=1 n=g#7 v=60
71520 On ch=1 n=d#7 v=60
72000 On ch=1 n=d#7 v=0
72000 On ch=1 n=g#7 v=0
72000 On ch=1 n=c8 v=0
72000 On ch=1 n=d#8 v=0
72000 On ch=1 n=c8 v=60
72000 On ch=1 n=a7 v=60
72000 On ch=1 n=f7 v=60
72000 On ch=1 n=c7 v=60
72960 On ch=1 n=c7 v=0
72960 On ch=1 n=f7 v=0
72960 On ch=1 n=a7 v=0
72960 On ch=1 n=c8 v=0
72960 On ch=1 n=c#8 v=50
72960 On ch=1 n=a#7 v=50
72960 On ch=1 n=f#7 v=50
72960 On ch=1 n=c#7 v=50
73440 On ch=1 n=c#7 v=0
73440 On ch=1 n=f#7 v=0
73440 On ch=1 n=a#7 v=0
73440 On ch=1 n=c#8 v=0
73440 On ch=1 n=a#7 v=60
73440 On ch=1 n=g7 v=60
73440 On ch=1 n=d#7 v=60
73440 On ch=1 n=a#6 v=60
74160 On ch=1 n=a#6 v=0
74160 On ch=1 n=d#7 v=0
74160 On ch=1 n=g7 v=0
74160 On ch=1 n=a#7 v=0
74160 On ch=1 n=b7 v=60
74160 On ch=1 n=g#7 v=60
74160 On ch=1 n=e7 v=60
74160 On ch=1 n=b6 v=60
74400 On ch=1 n=b6 v=0
74400 On ch=1 n=e7 v=0
74400 On ch=1 n=g#7 v=0
74400 On ch=1 n=b7 v=0
74400 On ch=1 n=b7 v=60
74400 On ch=1 n=g#7 v=60
74400 On ch=1 n=e7 v=60
74400 On ch=1 n=b6 v=60
74640 On ch=1 n=b6 v=0
74640 On ch=1 n=e7 v=0
74640 On ch=1 n=g#7 v=0
74640 On ch=1 n=b7 v=0
74640 On ch=1 n=a#7 v=60
74640 On ch=1 n=g7 v=60
74640 On ch=1 n=d#7 v=60
74640 On ch=1 n=a#6 v=60
74880 On ch=1 n=a#6 v=0
74880 On ch=1 n=d#7 v=0
74880 On ch=1 n=g7 v=0
74880 On ch=1 n=a#7 v=0
74880 On ch=1 n=a#7 v=60
74880 On ch=1 n=g7 v=60
74880 On ch=1 n=d#7 v=60
74880 On ch=1 n=a#6 v=60
75840 On ch=1 n=a#6 v=0
75840 On ch=1 n=d#7 v=0
75840 On ch=1 n=g7 v=0
75840 On ch=1 n=a#7 v=0
75840 On ch=1 n=g7 v=60
75840 On ch=1 n=e7 v=60
75840 On ch=1 n=c7 v=60
75840 On ch=1 n=g6 v=60
76320 On ch=1 n=g6 v=0
76320 On ch=1 n=c7 v=0
76320 On ch=1 n=e7 v=0
76320 On ch=1 n=g7 v=0
76320 On ch=1 n=d8 v=70
76320 On ch=1 n=g7 v=70
76320 On ch=1 n=d7 v=70
77280 On ch=1 n=d7 v=0
77280 On ch=1 n=g7 v=0
77280 On ch=1 n=d8 v=0
77280 On ch=1 n=g6 v=70
77280 On ch=1 n=d6 v=70
77280 On ch=1 n=b5 v=70
77280 On ch=1 n=g5 v=70
77280 On ch=1 n=f5 v=70
77760 On ch=1 n=f5 v=0
77760 On ch=1 n=g5 v=0
77760 On ch=1 n=b5 v=0
77760 On ch=1 n=d6 v=0
77760 On ch=1 n=g6 v=0
77760 On ch=1 n=d8 v=70
77760 On ch=1 n=g7 v=70
77760 On ch=1 n=d7 v=70
78720 On ch=1 n=d7 v=0
78720 On ch=1 n=g7 v=0
78720 On ch=1 n=d8 v=0
78720 On ch=1 n=f5 v=70
78720 On ch=1 n=g6 v=70
78720 On ch=1 n=d6 v=70
78720 On ch=1 n=b5 v=70
78720 On ch=1 n=g5 v=70
79680 On ch=1 n=g5 v=0
79680 On ch=1 n=b5 v=0
79680 On ch=1 n=d6 v=0
79680 On ch=1 n=g6 v=0
79680 On ch=1 n=f5 v=0
79680 On ch=1 n=a#6 v=80
79680 On ch=1 n=f6 v=80
79680 On ch=1 n=d6 v=80
79680 On ch=1 n=a#5 v=80
79680 On ch=1 n=g#5 v=80
80160 On ch=1 n=g#5 v=0
80160 On ch=1 n=a#5 v=0
80160 On ch=1 n=d6 v=0
80160 On ch=1 n=f6 v=0
80160 On ch=1 n=a#6 v=0
80160 On ch=1 n=c#7 v=80
80160 On ch=1 n=g#6 v=80
80160 On ch=1 n=f6 v=80
80160 On ch=1 n=b5 v=80
80640 On ch=1 n=b5 v=0
80640 On ch=1 n=f6 v=0
80640 On ch=1 n=g#6 v=0
80640 On ch=1 n=c#7 v=0
80640 On ch=1 n=e7 v=90
80640 On ch=1 n=b6 v=90
80640 On ch=1 n=g#6 v=90
80640 On ch=1 n=e6 v=90
80640 On ch=1 n=d6 v=90
81120 On ch=1 n=d6 v=0
81120 On ch=1 n=e6 v=0
81120 On ch=1 n=g#6 v=0
81120 On ch=1 n=b6 v=0
81120 On ch=1 n=e7 v=0
81120 On ch=1 n=c#7 v=90
81120 On ch=1 n=g#6 v=90
81120 On ch=1 n=f6 v=90
81120 On ch=1 n=b5 v=90
81600 On ch=1 n=b5 v=0
81600 On ch=1 n=f6 v=0
81600 On ch=1 n=g#6 v=0
81600 On ch=1 n=c#7 v=0
81600 On ch=1 n=d7 v=90
81600 On ch=1 n=a6 v=90
81600 On ch=1 n=f#6 v=90
81600 On ch=1 n=d6 v=90
81600 On ch=1 n=c6 v=90
82080 On ch=1 n=c6 v=0
82080 On ch=1 n=d6 v=0
82080 On ch=1 n=f#6 v=0
82080 On ch=1 n=a6 v=0
82080 On ch=1 n=d7 v=0
82080 On ch=1 n=g6 v=100
82080 On ch=1 n=d6 v=100
82080 On ch=1 n=b5 v=100
82080 On ch=1 n=g5 v=100
82080 On ch=1 n=f5 v=100
83040 On ch=1 n=f5 v=0
83040 On ch=1 n=g5 v=0
83040 On ch=1 n=b5 v=0
83040 On ch=1 n=d6 v=0
83040 On ch=1 n=g6 v=0
83040 On ch=1 n=a7 v=110
83040 On ch=1 n=d7 v=110
83040 On ch=1 n=b6 v=110
83040 On ch=1 n=a6 v=110
83520 On ch=1 n=a6 v=0
83520 On ch=1 n=b6 v=0
83520 On ch=1 n=d7 v=0
83520 On ch=1 n=a7 v=0
83520 On ch=1 n=g6 v=100
83520 On ch=1 n=d6 v=100
83520 On ch=1 n=b5 v=100
83520 On ch=1 n=g5 v=100
83520 On ch=1 n=f5 v=100
84480 On ch=1 n=f5 v=0
84480 On ch=1 n=g5 v=0
84480 On ch=1 n=b5 v=0
84480 On ch=1 n=d6 v=0
84480 On ch=1 n=g6 v=0
84480 On ch=1 n=a7 v=110
84480 On ch=1 n=d7 v=110
84480 On ch=1 n=b6 v=110
84480 On ch=1 n=a6 v=110
84960 On ch=1 n=a6 v=0
84960 On ch=1 n=b6 v=0
84960 On ch=1 n=d7 v=0
84960 On ch=1 n=a7 v=0
84960 On ch=1 n=g6 v=100
84960 On ch=1 n=d6 v=100
84960 On ch=1 n=b5 v=100
84960 On ch=1 n=g5 v=100
84960 On ch=1 n=f5 v=100
85440 On ch=1 n=f5 v=0
85440 On ch=1 n=g5 v=0
85440 On ch=1 n=b5 v=0
85440 On ch=1 n=d6 v=0
85440 On ch=1 n=g6 v=0
85440 On ch=1 n=a#6 v=105
85440 On ch=1 n=f6 v=105
85440 On ch=1 n=d6 v=105
85440 On ch=1 n=a#5 v=105
85440 On ch=1 n=g#5 v=105
85920 On ch=1 n=g#5 v=0
85920 On ch=1 n=a#5 v=0
85920 On ch=1 n=d6 v=0
85920 On ch=1 n=f6 v=0
85920 On ch=1 n=a#6 v=0
85920 On ch=1 n=c#7 v=110
85920 On ch=1 n=g#6 v=110
85920 On ch=1 n=f6 v=110
85920 On ch=1 n=b5 v=110
86400 On ch=1 n=b5 v=0
86400 On ch=1 n=f6 v=0
86400 On ch=1 n=g#6 v=0
86400 On ch=1 n=c#7 v=0
86400 On ch=1 n=e7 v=110
86400 On ch=1 n=b6 v=110
86400 On ch=1 n=g#6 v=110
86400 On ch=1 n=e6 v=110
86400 On ch=1 n=d6 v=110
86880 On ch=1 n=d6 v=0
86880 On ch=1 n=e6 v=0
86880 On ch=1 n=g#6 v=0
86880 On ch=1 n=b6 v=0
86880 On ch=1 n=e7 v=0
86880 On ch=1 n=g7 v=105
86880 On ch=1 n=d7 v=105
86880 On ch=1 n=b6 v=105
86880 On ch=1 n=g6 v=105
86880 On ch=1 n=f6 v=105
87360 On ch=1 n=f6 v=0
87360 On ch=1 n=g6 v=0
87360 On ch=1 n=b6 v=0
87360 On ch=1 n=d7 v=0
87360 On ch=1 n=g7 v=0
87360 On ch=1 n=a#7 v=100
87360 On ch=1 n=f7 v=100
87360 On ch=1 n=d7 v=100
87360 On ch=1 n=a#6 v=100
87360 On ch=1 n=g#6 v=100
87840 On ch=1 n=g#6 v=0
87840 On ch=1 n=a#6 v=0
87840 On ch=1 n=d7 v=0
87840 On ch=1 n=f7 v=0
87840 On ch=1 n=a#7 v=0
88320 On ch=1 n=d#8 v=40
88320 On ch=1 n=d#7 v=40
88320 On ch=1 n=b7 v=40
88320 On ch=1 n=g#7 v=40
89280 On ch=1 n=d#7 v=0
89280 On ch=1 n=d#8 v=0
89280 On ch=1 n=d8 v=40
89280 On ch=1 n=d7 v=40
89760 On ch=1 n=d7 v=0
89760 On ch=1 n=d8 v=0
89760 On ch=1 n=g#7 v=0
89760 On ch=1 n=b7 v=0
90240 On ch=1 n=c#8 v=40
90240 On ch=1 n=c#7 v=40
90240 On ch=1 n=b7 v=40
90240 On ch=1 n=g#7 v=40
90960 On ch=1 n=c#7 v=0
90960 On ch=1 n=c#8 v=0
90960 On ch=1 n=c8 v=40
90960 On ch=1 n=c7 v=40
91200 On ch=1 n=c7 v=0
91200 On ch=1 n=c8 v=0
91200 On ch=1 n=c#8 v=40
91200 On ch=1 n=c#7 v=40
91440 On ch=1 n=c#7 v=0
91440 On ch=1 n=c#8 v=0
91440 On ch=1 n=d8 v=40
91440 On ch=1 n=d7 v=40
91680 On ch=1 n=d7 v=0
91680 On ch=1 n=d8 v=0
91680 On ch=1 n=g#7 v=0
91680 On ch=1 n=b7 v=0
92160 On ch=1 n=d#8 v=40
92160 On ch=1 n=b7 v=40
92160 On ch=1 n=g#7 v=40
92160 On ch=1 n=d#7 v=40
93120 On ch=1 n=d#7 v=0
93120 On ch=1 n=g#7 v=0
93120 On ch=1 n=b7 v=0
93120 On ch=1 n=d#8 v=0
93120 On ch=1 n=a#5 v=50
93120 On ch=1 n=a#6 v=50
94080 On ch=1 n=a#6 v=0
94080 On ch=1 n=a#5 v=0
94080 On ch=1 n=f5 v=60
94080 On ch=1 n=f6 v=60
95040 On ch=1 n=f6 v=0
95040 On ch=1 n=f5 v=0
95040 On ch=1 n=c6 v=50
95040 On ch=1 n=g#5 v=40
95040 On ch=1 n=g#6 v=40
95760 On ch=1 n=c6 v=0
95760 On ch=1 n=c#6 v=50
96000 On ch=1 n=c#6 v=0
96000 On ch=1 n=g#6 v=0
96000 On ch=1 n=g#5 v=0
96000 On ch=1 n=c#6 v=50
96000 On ch=1 n=f#5 v=40
96000 On ch=1 n=f#6 v=40
96240 On ch=1 n=c#6 v=0
96240 On ch=1 n=c6 v=50
96480 On ch=1 n=c6 v=0
96480 On ch=1 n=f#6 v=0
96480 On ch=1 n=f#5 v=0
96480 On ch=1 n=c6 v=50
96480 On ch=1 n=c#5 v=40
96480 On ch=1 n=c#6 v=40
96720 On ch=1 n=c6 v=0
96720 On ch=1 n=b5 v=50
96960 On ch=1 n=b5 v=0
96960 On ch=1 n=b5 v=50
97200 On ch=1 n=b5 v=0
97200 On ch=1 n=a#5 v=50
97440 On ch=1 n=a#5 v=0
97440 On ch=1 n=a#5 v=50
97680 On ch=1 n=a#5 v=0
97680 On ch=1 n=b5 v=50
97920 On ch=1 n=b5 v=0
97920 On ch=1 n=c#6 v=0
97920 On ch=1 n=c#5 v=0
97920 On ch=1 n=c6 v=50
97920 On ch=1 n=g#5 v=40
97920 On ch=1 n=g#6 v=40
98640 On ch=1 n=c6 v=0
98640 On ch=1 n=c#6 v=50
98880 On ch=1 n=c#6 v=0
98880 On ch=1 n=g#6 v=0
98880 On ch=1 n=g#5 v=0
98880 On ch=1 n=c#6 v=50
98880 On ch=1 n=f#5 v=40
98880 On ch=1 n=f#6 v=40
99120 On ch=1 n=c#6 v=0
99120 On ch=1 n=c6 v=50
99360 On ch=1 n=c6 v=0
99360 On ch=1 n=f#6 v=0
99360 On ch=1 n=f#5 v=0
99360 On ch=1 n=c6 v=50
99360 On ch=1 n=c#5 v=40
99360 On ch=1 n=c#6 v=40
99600 On ch=1 n=c6 v=0
99600 On ch=1 n=b5 v=50
99840 On ch=1 n=b5 v=0
99840 On ch=1 n=b5 v=50
100080 On ch=1 n=b5 v=0
100080 On ch=1 n=a#5 v=50
100320 On ch=1 n=a#5 v=0
100320 On ch=1 n=a#5 v=50
100560 On ch=1 n=a#5 v=0
100560 On ch=1 n=b5 v=50
100800 On ch=1 n=c#6 v=0
100800 On ch=1 n=c#5 v=0
101520 On ch=1 n=b5 v=0
101520 On ch=1 n=f5 v=40
101760 On ch=1 n=f5 v=0
101760 On ch=1 n=g5 v=40
102000 On ch=1 n=g5 v=0
102000 On ch=1 n=b4 v=40
102720 On ch=1 n=b4 v=0
104160 On ch=1 n=c#7 v=40
104160 On ch=1 n=c#6 v=40
104160 On ch=1 n=g#6 v=40
104160 On ch=1 n=f6 v=40
105120 On ch=1 n=f6 v=0
105120 On ch=1 n=g#6 v=0
105120 On ch=1 n=c#6 v=0
105120 On ch=1 n=c#7 v=0
107040 On ch=1 n=c#7 v=40
107040 On ch=1 n=g#6 v=40
107040 On ch=1 n=f6 v=40
107040 On ch=1 n=c#6 v=40
108000 On ch=1 n=c#6 v=0
108000 On ch=1 n=f6 v=0
108000 On ch=1 n=g#6 v=0
108000 On ch=1 n=c#7 v=0
108000 On ch=1 n=g6 v=30
108120 On ch=1 n=g6 v=0
108120 On ch=1 n=g#6 v=30
108240 On ch=1 n=g#6 v=0
108240 On ch=1 n=g6 v=30
108360 On ch=1 n=g6 v=0
108360 On ch=1 n=f#6 v=30
108480 On ch=1 n=f#6 v=0
108480 On ch=1 n=f6 v=30
108600 On ch=1 n=f6 v=0
108600 On ch=1 n=f#6 v=30
108720 On ch=1 n=f#6 v=0
108720 On ch=1 n=f6 v=30
108840 On ch=1 n=f6 v=0
108840 On ch=1 n=d6 v=30
108960 On ch=1 n=d6 v=0
108960 On ch=1 n=c#6 v=30
109080 On ch=1 n=c#6 v=0
109080 On ch=1 n=c6 v=30
109200 On ch=1 n=c6 v=0
109200 On ch=1 n=b5 v=30
109320 On ch=1 n=b5 v=0
109320 On ch=1 n=g5 v=30
109440 On ch=1 n=g5 v=0
110160 On ch=1 n=a#5 v=40
110160 On ch=1 n=f#5 v=40
110340 On ch=1 n=f#5 v=0
110340 On ch=1 n=a#5 v=0
110400 On ch=1 n=a#5 v=40
110400 On ch=1 n=f#5 v=40
110580 On ch=1 n=f#5 v=0
110580 On ch=1 n=a#5 v=0
110640 On ch=1 n=b5 v=40
110640 On ch=1 n=g5 v=40
111360 On ch=1 n=g5 v=0
111360 On ch=1 n=b5 v=0
111360 On ch=1 n=a#5 v=40
111360 On ch=1 n=f#5 v=40
111840 On ch=1 n=f#5 v=0
111840 On ch=1 n=a#5 v=0
111840 On ch=1 n=c#5 v=40
111840 On ch=1 n=f5 v=40
112320 On ch=1 n=f5 v=0
112320 On ch=1 n=c#5 v=0
112320 On ch=1 n=g#5 v=40
112320 On ch=1 n=e5 v=40
112800 On ch=1 n=c#5 v=40
112800 On ch=1 n=c#6 v=40
112860 On ch=1 n=c#6 v=0
112860 On ch=1 n=c#5 v=0
113760 On ch=1 n=e5 v=0
113760 On ch=1 n=g#5 v=0
113760 On ch=1 n=b5 v=40
113760 On ch=1 n=g5 v=40
114240 On ch=1 n=c#7 v=40
114240 On ch=1 n=c#6 v=40
114300 On ch=1 n=c#6 v=0
114300 On ch=1 n=c#7 v=0
115200 On ch=1 n=g5 v=0
115200 On ch=1 n=b5 v=0
117120 On ch=1 n=c#8 v=40
117120 On ch=1 n=c#7 v=40
117180 On ch=1 n=c#7 v=0
117180 On ch=1 n=c#8 v=0
118080 On ch=1 n=c#7 v=40
118100 On ch=1 n=f#7 v=40
118120 On ch=1 n=c#8 v=40
118260 On ch=1 n=f#7 v=0
118260 On ch=1 n=c#7 v=0
118440 On ch=1 n=g7 v=40
118440 On ch=1 n=c7 v=40
118620 On ch=1 n=c7 v=0
118620 On ch=1 n=g7 v=0
118800 On ch=1 n=a7 v=40
118800 On ch=1 n=d7 v=40
118980 On ch=1 n=d7 v=0
118980 On ch=1 n=a7 v=0
119040 On ch=1 n=c#8 v=0
119160 On ch=1 n=b7 v=40
119160 On ch=1 n=e7 v=40
119340 On ch=1 n=e7 v=0
119340 On ch=1 n=b7 v=0
119520 On ch=1 n=c#8 v=40
119520 On ch=1 n=c#7 v=40
119520 On ch=1 n=f#7 v=40
119700 On ch=1 n=f#7 v=0
119700 On ch=1 n=c#7 v=0
119700 On ch=1 n=c#8 v=0
119880 On ch=1 n=c7 v=40
119880 On ch=1 n=g7 v=40
120060 On ch=1 n=g7 v=0
120060 On ch=1 n=c7 v=0
120240 On ch=1 n=d7 v=40
120240 On ch=1 n=a7 v=40
120420 On ch=1 n=a7 v=0
120420 On ch=1 n=d7 v=0
120600 On ch=1 n=e7 v=40
120600 On ch=1 n=b7 v=40
120780 On ch=1 n=b7 v=0
120780 On ch=1 n=e7 v=0
120960 On ch=1 n=c#7 v=40
120980 On ch=1 n=f#7 v=40
121000 On ch=1 n=c#8 v=40
121140 On ch=1 n=f#7 v=0
121140 On ch=1 n=c#7 v=0
121320 On ch=1 n=g7 v=40
121320 On ch=1 n=c7 v=40
121500 On ch=1 n=c7 v=0
121500 On ch=1 n=g7 v=0
121680 On ch=1 n=a7 v=40
121680 On ch=1 n=d7 v=40
121860 On ch=1 n=d7 v=0
121860 On ch=1 n=a7 v=0
121920 On ch=1 n=c#8 v=0
122040 On ch=1 n=b7 v=40
122040 On ch=1 n=e7 v=40
122220 On ch=1 n=e7 v=0
122220 On ch=1 n=b7 v=0
122400 On ch=1 n=c#8 v=40
122400 On ch=1 n=c#7 v=40
122400 On ch=1 n=f#7 v=40
122580 On ch=1 n=f#7 v=0
122580 On ch=1 n=c#7 v=0
122580 On ch=1 n=c#8 v=0
122760 On ch=1 n=c7 v=40
122760 On ch=1 n=g7 v=40
122940 On ch=1 n=g7 v=0
122940 On ch=1 n=c7 v=0
123120 On ch=1 n=d7 v=40
123120 On ch=1 n=a7 v=40
123300 On ch=1 n=a7 v=0
123300 On ch=1 n=d7 v=0
123480 On ch=1 n=e7 v=40
123480 On ch=1 n=b7 v=40
123660 On ch=1 n=b7 v=0
123660 On ch=1 n=e7 v=0
126720 On ch=1 n=c#8 v=40
126720 On ch=1 n=c#7 v=40
126780 On ch=1 n=c#7 v=0
126780 On ch=1 n=c#8 v=0
126780 Meta TrkEnd
TrkEnd
MTrk
0 SeqSpec 43 00 01 00
0 Meta TrkName "Middle Tre"
