MFile 1 7 240
MTrk
0 TimeSig 4/4 24 8
0 Tempo 500000
0 Meta TrkEnd
TrkEnd
MTrk
0 Meta TrkName "Piano"
0 PrCh ch=1 p=0
548 On ch=1 n=a5 v=65
548 On ch=1 n=d#5 v=69
548 Par ch=1 c=64 v=127
548 On ch=1 n=f2 v=62
548 On ch=1 n=f3 v=62
683 Off ch=1 n=f3 v=64
683 Off ch=1 n=f2 v=64
683 Off ch=1 n=d#5 v=64
683 Off ch=1 n=a5 v=64
683 On ch=1 n=f6 v=60
684 On ch=1 n=d#5 v=58
684 On ch=1 n=a5 v=79
684 On ch=1 n=c4 v=60
684 On ch=1 n=c5 v=59
684 On ch=1 n=f4 v=50
842 Off ch=1 n=f4 v=64
842 Off ch=1 n=c5 v=64
842 Off ch=1 n=c4 v=64
842 Off ch=1 n=a5 v=64
842 Off ch=1 n=d#5 v=64
842 Off ch=1 n=f6 v=64
842 On ch=1 n=e6 v=74
842 On ch=1 n=d#5 v=60
842 On ch=1 n=a5 v=74
843 On ch=1 n=c4 v=57
843 On ch=1 n=c5 v=55
1003 Off ch=1 n=a5 v=64
1003 Off ch=1 n=d#5 v=64
1003 Off ch=1 n=e6 v=64
1003 Off ch=1 n=c5 v=64
1003 Off ch=1 n=c4 v=64
1003 On ch=1 n=d#6 v=74
1003 On ch=1 n=d#5 v=58
1003 On ch=1 n=a5 v=79
1003 On ch=1 n=c4 v=57
1003 On ch=1 n=c5 v=55
1003 On ch=1 n=f4 v=50
1164 Off ch=1 n=f4 v=64
1164 Off ch=1 n=c5 v=64
1164 Off ch=1 n=c4 v=64
1164 Off ch=1 n=a5 v=64
1164 Off ch=1 n=d#5 v=64
1164 Off ch=1 n=d#6 v=64
1164 On ch=1 n=a5 v=83
1164 On ch=1 n=d#5 v=72
1164 On ch=1 n=c#6 v=72
1164 On ch=1 n=c4 v=54
1165 On ch=1 n=c5 v=50
1165 On ch=1 n=f4 v=50
1323 Off ch=1 n=f4 v=64
1323 Off ch=1 n=c5 v=64
1323 Off ch=1 n=c4 v=64
1323 Off ch=1 n=c#6 v=64
1323 Off ch=1 n=d#5 v=64
1323 Off ch=1 n=a5 v=64
1323 On ch=1 n=c6 v=88
1323 On ch=1 n=d#5 v=76
1323 On ch=1 n=a5 v=88
1323 On ch=1 n=c4 v=55
1323 On ch=1 n=c5 v=53
1323 On ch=1 n=f4 v=51
1483 Off ch=1 n=f4 v=64
1483 Off ch=1 n=c5 v=64
1483 Off ch=1 n=c4 v=64
1483 Off ch=1 n=a5 v=64
1483 Off ch=1 n=d#5 v=64
1483 Off ch=1 n=c6 v=64
1483 Par ch=1 c=64 v=0
2213 On ch=1 n=f6 v=54
2213 On ch=1 n=a#3 v=47
2256 Off ch=1 n=f6 v=64
2258 On ch=1 n=c6 v=51
2302 Off ch=1 n=c6 v=64
2302 Off ch=1 n=a#3 v=64
2303 On ch=1 n=d#6 v=48
2303 On ch=1 n=c#5 v=28
2303 On ch=1 n=f4 v=37
2347 Off ch=1 n=d#6 v=64
2349 On ch=1 n=c#6 v=50
2392 Off ch=1 n=c#6 v=64
2392 Off ch=1 n=f4 v=64
2392 Off ch=1 n=c#5 v=64
2393 On ch=1 n=f5 v=58
2437 Off ch=1 n=f5 v=64
2439 On ch=1 n=a5 v=51
2482 Off ch=1 n=a5 v=64
2484 On ch=1 n=a#5 v=51
2484 On ch=1 n=f3 v=44
2527 Off ch=1 n=a#5 v=64
2529 On ch=1 n=c6 v=48
2572 Off ch=1 n=c6 v=64
2572 Off ch=1 n=f3 v=64
2573 On ch=1 n=c#6 v=61
2573 On ch=1 n=a#3 v=51
2616 Off ch=1 n=c#6 v=64
2619 On ch=1 n=d#6 v=46
2662 Off ch=1 n=d#6 v=64
2662 Off ch=1 n=a#3 v=64
2664 On ch=1 n=f6 v=46
2664 On ch=1 n=c#5 v=38
2664 On ch=1 n=f4 v=48
2707 Off ch=1 n=f6 v=64
2709 On ch=1 n=g6 v=53
2752 Off ch=1 n=g6 v=64
2752 Off ch=1 n=f4 v=64
2752 Off ch=1 n=c#5 v=64
2753 On ch=1 n=a6 v=55
2797 Off ch=1 n=a6 v=64
2799 On ch=1 n=a#6 v=50
2842 Off ch=1 n=a#6 v=64
2844 On ch=1 n=c7 v=53
2844 On ch=1 n=f3 v=50
2887 Off ch=1 n=c7 v=64
2889 On ch=1 n=c#7 v=46
2932 Off ch=1 n=c#7 v=64
2932 Off ch=1 n=f3 v=64
2934 On ch=1 n=d#7 v=66
2934 On ch=1 n=a#3 v=60
2977 Off ch=1 n=d#7 v=64
2979 On ch=1 n=f7 v=66
3023 Off ch=1 n=f7 v=64
3023 Off ch=1 n=a#3 v=64
3024 On ch=1 n=g7 v=58
3024 On ch=1 n=c#5 v=46
3024 On ch=1 n=f4 v=56
3068 Off ch=1 n=g7 v=64
3070 On ch=1 n=a7 v=65
3113 Off ch=1 n=a7 v=64
3113 Off ch=1 n=f4 v=64
3113 Off ch=1 n=c#5 v=64
3114 On ch=1 n=a#7 v=74
3158 Off ch=1 n=a#7 v=64
3160 On ch=1 n=c8 v=46
3203 Off ch=1 n=c8 v=64
3205 On ch=1 n=c#8 v=57
3205 On ch=1 n=f3 v=57
3248 Off ch=1 n=c#8 v=64
3250 On ch=1 n=d#8 v=56
3292 Off ch=1 n=d#8 v=64
3292 Off ch=1 n=f3 v=64
3294 On ch=1 n=e8 v=67
3294 On ch=1 n=a#3 v=62
3337 Off ch=1 n=e8 v=64
3339 On ch=1 n=f8 v=74
3383 Off ch=1 n=f8 v=64
3383 Off ch=1 n=a#3 v=64
3384 On ch=1 n=d#8 v=64
3384 On ch=1 n=c#5 v=46
3384 On ch=1 n=f4 v=53
3428 Off ch=1 n=d#8 v=64
3430 On ch=1 n=c#8 v=60
3473 Off ch=1 n=c#8 v=64
3473 Off ch=1 n=f4 v=64
3473 Off ch=1 n=c#5 v=64
3474 On ch=1 n=c8 v=72
3518 Off ch=1 n=c8 v=64
3520 On ch=1 n=a#7 v=55
3563 Off ch=1 n=a#7 v=64
3565 On ch=1 n=a7 v=55
3565 On ch=1 n=f3 v=50
3610 Off ch=1 n=a7 v=64
3610 On ch=1 n=a#7 v=59
3655 Off ch=1 n=a#7 v=64
3655 Off ch=1 n=f3 v=64
3655 On ch=1 n=g#7 v=67
3655 On ch=1 n=a#3 v=56
3700 Off ch=1 n=g#7 v=64
3700 On ch=1 n=f#7 v=52
3745 Off ch=1 n=f#7 v=64
3745 Off ch=1 n=a#3 v=64
3745 On ch=1 n=f7 v=56
3745 On ch=1 n=c#5 v=34
3745 On ch=1 n=f4 v=47
3791 Off ch=1 n=f7 v=64
3791 On ch=1 n=e7 v=65
3836 Off ch=1 n=e7 v=64
3836 Off ch=1 n=f4 v=64
3836 Off ch=1 n=c#5 v=64
3836 On ch=1 n=f7 v=65
3881 Off ch=1 n=f7 v=64
3881 On ch=1 n=d#7 v=48
3925 Off ch=1 n=d#7 v=64
3925 On ch=1 n=c#7 v=46
3925 On ch=1 n=f3 v=47
3971 Off ch=1 n=c#7 v=64
3971 On ch=1 n=c7 v=53
4015 Off ch=1 n=c7 v=64
4015 Off ch=1 n=f3 v=64
4015 On ch=1 n=a#6 v=39
4015 On ch=1 n=a#3 v=51
4060 Off ch=1 n=a#6 v=64
4060 On ch=1 n=a6 v=44
4105 Off ch=1 n=a6 v=64
4105 Off ch=1 n=a#3 v=64
4105 On ch=1 n=a#6 v=40
4106 On ch=1 n=f4 v=45
4106 On ch=1 n=c#5 v=34
4151 Off ch=1 n=a#6 v=64
4151 On ch=1 n=g#6 v=38
4196 Off ch=1 n=g#6 v=64
4196 Off ch=1 n=c#5 v=64
4196 Off ch=1 n=f4 v=64
4196 On ch=1 n=f#6 v=40
4241 Off ch=1 n=f#6 v=64
4241 On ch=1 n=f6 v=41
4286 Off ch=1 n=f6 v=64
4286 On ch=1 n=d#6 v=34
4286 On ch=1 n=f3 v=38
4331 Off ch=1 n=d#6 v=64
4331 On ch=1 n=c#6 v=39
4376 Off ch=1 n=c#6 v=64
4376 Off ch=1 n=f3 v=64
4376 On ch=1 n=c6 v=55
4376 On ch=1 n=a#3 v=47
4421 Off ch=1 n=c6 v=64
4421 On ch=1 n=c#6 v=41
4466 Off ch=1 n=c#6 v=64
4466 Off ch=1 n=a#3 v=64
4466 On ch=1 n=d#6 v=39
4466 On ch=1 n=f#4 v=35
4466 On ch=1 n=d#5 v=39
4466 On ch=1 n=d#4 v=32
4512 Off ch=1 n=d#6 v=64
4512 On ch=1 n=f6 v=39
4557 Off ch=1 n=f6 v=64
4557 Off ch=1 n=d#4 v=64
4557 Off ch=1 n=d#5 v=64
4557 Off ch=1 n=f#4 v=64
4557 On ch=1 n=f#6 v=40
4602 Off ch=1 n=f#6 v=64
4602 On ch=1 n=g#6 v=41
4646 Off ch=1 n=g#6 v=64
4646 On ch=1 n=a#6 v=40
4646 On ch=1 n=a#2 v=42
4691 Off ch=1 n=a#6 v=64
4691 On ch=1 n=c7 v=46
4736 Off ch=1 n=c7 v=64
4736 Off ch=1 n=a#2 v=64
4736 On ch=1 n=a#3 v=51
4736 On ch=1 n=a#6 v=41
4782 Off ch=1 n=a#6 v=64
4782 On ch=1 n=g#6 v=38
4826 Off ch=1 n=a#3 v=64
4826 Off ch=1 n=g#6 v=64
4826 On ch=1 n=f#6 v=40
4826 On ch=1 n=f#4 v=46
4826 On ch=1 n=d#4 v=37
4826 On ch=1 n=d#5 v=37
4872 Off ch=1 n=f#6 v=64
4872 On ch=1 n=f6 v=42
4917 Off ch=1 n=f6 v=64
4917 Off ch=1 n=d#5 v=64
4917 Off ch=1 n=d#4 v=64
4917 Off ch=1 n=f#4 v=64
4917 On ch=1 n=d#6 v=39
4962 Off ch=1 n=d#6 v=64
4962 On ch=1 n=c#6 v=39
5007 Off ch=1 n=c#6 v=64
5007 On ch=1 n=c6 v=48
5007 On ch=1 n=a#2 v=48
5052 Off ch=1 n=c6 v=64
5052 On ch=1 n=d#6 v=41
5097 Off ch=1 n=d#6 v=64
5097 Off ch=1 n=a#2 v=64
5097 On ch=1 n=f#6 v=50
5097 On ch=1 n=a#3 v=53
5142 Off ch=1 n=f#6 v=64
5142 On ch=1 n=d6 v=48
5187 Off ch=1 n=d6 v=64
5187 Off ch=1 n=a#3 v=64
5187 On ch=1 n=f6 v=46
5187 On ch=1 n=d#4 v=37
5187 On ch=1 n=d#5 v=35
5187 On ch=1 n=f#4 v=39
5232 Off ch=1 n=f6 v=64
5232 On ch=1 n=d#6 v=36
5278 Off ch=1 n=d#6 v=64
5278 Off ch=1 n=f#4 v=64
5278 Off ch=1 n=d#5 v=64
5278 Off ch=1 n=d#4 v=64
5278 On ch=1 n=c6 v=46
5322 Off ch=1 n=c6 v=64
5322 On ch=1 n=f#5 v=42
5367 Off ch=1 n=f#5 v=64
5367 On ch=1 n=b5 v=59
5367 On ch=1 n=a#2 v=50
5412 Off ch=1 n=b5 v=64
5412 On ch=1 n=c6 v=53
5457 Off ch=1 n=c6 v=64
5457 Off ch=1 n=a#2 v=64
5457 On ch=1 n=c#6 v=57
5457 On ch=1 n=a#3 v=52
5502 Off ch=1 n=c#6 v=64
5502 On ch=1 n=c6 v=55
5547 Off ch=1 n=c6 v=64
5547 Off ch=1 n=a#3 v=64
5547 On ch=1 n=d6 v=55
5547 On ch=1 n=d#4 v=35
5547 On ch=1 n=f#4 v=37
5547 On ch=1 n=d#5 v=31
5592 Off ch=1 n=d6 v=64
5592 On ch=1 n=d#6 v=44
5638 Off ch=1 n=d#6 v=64
5638 Off ch=1 n=d#5 v=64
5638 Off ch=1 n=f#4 v=64
5638 Off ch=1 n=d#4 v=64
5638 On ch=1 n=f6 v=55
5683 Off ch=1 n=f6 v=64
5683 On ch=1 n=d#6 v=51
5728 Off ch=1 n=d#6 v=64
5728 On ch=1 n=e6 v=51
5728 On ch=1 n=a#2 v=47
5773 Off ch=1 n=e6 v=64
5773 On ch=1 n=f6 v=51
5818 Off ch=1 n=f6 v=64
5818 Off ch=1 n=a#2 v=64
5818 On ch=1 n=g#6 v=53
5818 On ch=1 n=a#3 v=53
5863 Off ch=1 n=g#6 v=64
5863 On ch=1 n=f#6 v=43
5908 Off ch=1 n=f#6 v=64
5908 Off ch=1 n=a#3 v=64
5908 On ch=1 n=a6 v=47
5908 On ch=1 n=f#4 v=39
5908 On ch=1 n=d#5 v=42
5908 On ch=1 n=d#4 v=32
5953 Off ch=1 n=a6 v=64
5953 On ch=1 n=a#6 v=41
5999 Off ch=1 n=a#6 v=64
5999 Off ch=1 n=d#4 v=64
5999 Off ch=1 n=d#5 v=64
5999 Off ch=1 n=f#4 v=64
5999 On ch=1 n=c#7 v=60
6043 Off ch=1 n=c#7 v=64
6043 On ch=1 n=c7 v=50
6088 Off ch=1 n=c7 v=64
6088 On ch=1 n=d7 v=55
6088 On ch=1 n=a#2 v=47
6133 Off ch=1 n=d7 v=64
6133 On ch=1 n=d#7 v=51
6178 Off ch=1 n=d#7 v=64
6178 Off ch=1 n=a#2 v=64
6179 On ch=1 n=f7 v=53
6179 On ch=1 n=a#3 v=54
6223 Off ch=1 n=f7 v=64
6223 On ch=1 n=d#7 v=55
6268 Off ch=1 n=d#7 v=64
6268 Off ch=1 n=a#3 v=64
6268 On ch=1 n=e7 v=51
6268 On ch=1 n=f#4 v=42
6268 On ch=1 n=d#5 v=27
6268 On ch=1 n=d#4 v=35
6313 Off ch=1 n=e7 v=64
6313 On ch=1 n=f7 v=53
6359 Off ch=1 n=f7 v=64
6359 Off ch=1 n=d#4 v=64
6359 Off ch=1 n=d#5 v=64
6359 Off ch=1 n=f#4 v=64
6359 On ch=1 n=g#7 v=46
6404 Off ch=1 n=g#7 v=64
6405 On ch=1 n=a#7 v=48
6449 Off ch=1 n=a#7 v=64
6449 On ch=1 n=g#7 v=44
6449 On ch=1 n=a#3 v=41
6494 Off ch=1 n=g#7 v=64
6494 On ch=1 n=g7 v=47
6539 Off ch=1 n=g7 v=64
6539 Off ch=1 n=a#3 v=64
6539 On ch=1 n=f#7 v=60
6539 On ch=1 n=a3 v=42
6584 Off ch=1 n=f#7 v=64
6584 On ch=1 n=f8 v=59
6629 Off ch=1 n=f8 v=64
6629 Off ch=1 n=a3 v=64
6629 On ch=1 n=d#8 v=46
6629 On ch=1 n=f#4 v=46
6629 On ch=1 n=d#5 v=48
6674 Off ch=1 n=d#8 v=64
6674 On ch=1 n=d#7 v=44
6719 Off ch=1 n=d#7 v=64
6719 Off ch=1 n=d#5 v=64
6719 Off ch=1 n=f#4 v=64
6719 On ch=1 n=c#8 v=61
6764 Off ch=1 n=c#8 v=64
6764 On ch=1 n=c8 v=54
6809 Off ch=1 n=c8 v=64
6809 On ch=1 n=c7 v=48
6809 On ch=1 n=a2 v=39
6854 Off ch=1 n=c7 v=64
6854 On ch=1 n=a#7 v=67
6899 Off ch=1 n=a#7 v=64
6899 Off ch=1 n=a2 v=64
6899 On ch=1 n=a7 v=64
6899 On ch=1 n=a3 v=51
6944 Off ch=1 n=a7 v=64
6944 On ch=1 n=a6 v=43
6989 Off ch=1 n=a6 v=64
6989 Off ch=1 n=a3 v=64
6989 On ch=1 n=g#7 v=48
6989 On ch=1 n=d#5 v=39
6989 On ch=1 n=f#4 v=44
7034 Off ch=1 n=g#7 v=64
7034 On ch=1 n=f#7 v=56
7080 Off ch=1 n=f#7 v=64
7080 Off ch=1 n=f#4 v=64
7080 Off ch=1 n=d#5 v=64
7080 On ch=1 n=f#6 v=62
7125 Off ch=1 n=f#6 v=64
7125 On ch=1 n=f7 v=62
7170 Off ch=1 n=f7 v=64
7170 On ch=1 n=d#7 v=57
7170 On ch=1 n=a3 v=53
7215 Off ch=1 n=d#7 v=64
7215 On ch=1 n=f#6 v=44
7260 Off ch=1 n=f#6 v=64
7260 Off ch=1 n=a3 v=64
7260 On ch=1 n=f6 v=50
7260 On ch=1 n=a#3 v=55
7305 Off ch=1 n=f6 v=64
7305 On ch=1 n=d#7 v=44
7349 Off ch=1 n=d#7 v=64
7349 Off ch=1 n=a#3 v=64
7349 On ch=1 n=c#7 v=38
7349 On ch=1 n=f4 v=59
7349 On ch=1 n=c#5 v=39
7394 Off ch=1 n=c#7 v=64
7395 On ch=1 n=f6 v=40
7440 Off ch=1 n=f6 v=64
7440 Off ch=1 n=c#5 v=64
7440 Off ch=1 n=f4 v=64
7440 On ch=1 n=c#7 v=51
7485 Off ch=1 n=c#7 v=64
7487 On ch=1 n=c7 v=44
7530 Off ch=1 n=c7 v=64
7532 On ch=1 n=d#6 v=32
7532 On ch=1 n=a#3 v=53
7575 Off ch=1 n=d#6 v=64
7577 On ch=1 n=c7 v=39
7620 Off ch=1 n=c7 v=64
7620 Off ch=1 n=a#3 v=64
7621 On ch=1 n=c#4 v=59
7621 On ch=1 n=c#6 v=50
7665 Off ch=1 n=c#6 v=64
7667 On ch=1 n=a#6 v=40
7710 Off ch=1 n=c#4 v=64
7710 Off ch=1 n=a#6 v=64
7711 On ch=1 n=g#6 v=37
7711 On ch=1 n=f5 v=48
7711 On ch=1 n=f4 v=47
7712 On ch=1 n=a#4 v=44
7755 Off ch=1 n=g#6 v=64
7757 On ch=1 n=c6 v=39
7800 Off ch=1 n=c6 v=64
7800 Off ch=1 n=a#4 v=64
7800 Off ch=1 n=f4 v=64
7800 Off ch=1 n=f5 v=64
7801 On ch=1 n=g#6 v=49
7846 Off ch=1 n=g#6 v=64
7848 On ch=1 n=f#6 v=41
7891 Off ch=1 n=f#6 v=64
7893 On ch=1 n=a#5 v=35
7893 On ch=1 n=c#4 v=53
7936 Off ch=1 n=a#5 v=64
7938 On ch=1 n=f#6 v=34
7981 Off ch=1 n=f#6 v=64
7981 Off ch=1 n=c#4 v=64
7982 On ch=1 n=a5 v=45
7982 On ch=1 n=d#4 v=53
8026 Off ch=1 n=a5 v=64
8027 On ch=1 n=a#5 v=42
8070 Off ch=1 n=a#5 v=64
8070 Off ch=1 n=d#4 v=64
8072 On ch=1 n=c6 v=50
8072 On ch=1 n=a4 v=51
8072 On ch=1 n=f#5 v=41
8115 Off ch=1 n=c6 v=64
8117 On ch=1 n=c#6 v=53
8160 Off ch=1 n=c#6 v=64
8160 Off ch=1 n=f#5 v=64
8160 Off ch=1 n=a4 v=64
8161 On ch=1 n=d#6 v=51
8206 Off ch=1 n=d#6 v=64
8208 On ch=1 n=e6 v=55
8251 Off ch=1 n=e6 v=64
8253 On ch=1 n=f6 v=58
8253 On ch=1 n=d#4 v=47
8296 Off ch=1 n=f6 v=64
8298 On ch=1 n=f#6 v=58
8341 Off ch=1 n=f#6 v=64
8341 Off ch=1 n=d#4 v=64
8343 On ch=1 n=e6 v=47
8343 On ch=1 n=c#4 v=54
8386 Off ch=1 n=e6 v=64
8388 On ch=1 n=f6 v=46
8431 Off ch=1 n=f6 v=64
8431 Off ch=1 n=c#4 v=64
8432 On ch=1 n=d6 v=41
8432 On ch=1 n=f5 v=44
8432 On ch=1 n=a#4 v=40
8433 On ch=1 n=f4 v=50
8476 Off ch=1 n=d6 v=64
8478 On ch=1 n=d#6 v=37
8521 Off ch=1 n=d#6 v=64
8521 Off ch=1 n=f4 v=64
8521 Off ch=1 n=a#4 v=64
8521 Off ch=1 n=f5 v=64
8522 On ch=1 n=c6 v=50
8567 Off ch=1 n=c6 v=64
8568 On ch=1 n=c#6 v=41
8612 Off ch=1 n=c#6 v=64
8614 On ch=1 n=c6 v=44
8614 On ch=1 n=c#4 v=47
8657 Off ch=1 n=c6 v=64
8659 On ch=1 n=a#5 v=43
8702 Off ch=1 n=a#5 v=64
8702 Off ch=1 n=c#4 v=64
8703 On ch=1 n=a5 v=55
8703 On ch=1 n=d#4 v=53
8747 Off ch=1 n=a5 v=64
8749 On ch=1 n=a#5 v=48
8791 Off ch=1 n=a#5 v=64
8791 Off ch=1 n=d#4 v=64
8792 On ch=1 n=c6 v=54
8792 On ch=1 n=a4 v=47
8792 On ch=1 n=f#5 v=39
8836 Off ch=1 n=c6 v=64
8838 On ch=1 n=c#6 v=51
8881 Off ch=1 n=c#6 v=64
8881 Off ch=1 n=f#5 v=64
8881 Off ch=1 n=a4 v=64
8882 On ch=1 n=d#6 v=48
8927 Off ch=1 n=d#6 v=64
8928 On ch=1 n=e6 v=51
8972 Off ch=1 n=e6 v=64
8974 On ch=1 n=f6 v=52
8974 On ch=1 n=d#4 v=47
9017 Off ch=1 n=f6 v=64
9019 On ch=1 n=f#6 v=54
9062 Off ch=1 n=f#6 v=64
9062 Off ch=1 n=d#4 v=64
9063 On ch=1 n=e6 v=50
9063 On ch=1 n=c#4 v=51
9107 Off ch=1 n=e6 v=64
9109 On ch=1 n=f6 v=47
9152 Off ch=1 n=f6 v=64
9152 Off ch=1 n=c#4 v=64
9153 On ch=1 n=d6 v=54
9153 On ch=1 n=f5 v=48
9153 On ch=1 n=f4 v=46
9153 On ch=1 n=a#4 v=44
9197 Off ch=1 n=d6 v=64
9199 On ch=1 n=d#6 v=41
9242 Off ch=1 n=d#6 v=64
9242 Off ch=1 n=a#4 v=64
9242 Off ch=1 n=f4 v=64
9242 Off ch=1 n=f5 v=64
9243 On ch=1 n=c6 v=55
9288 Off ch=1 n=c6 v=64
9289 On ch=1 n=c#6 v=44
9333 Off ch=1 n=c#6 v=64
9335 On ch=1 n=c6 v=53
9335 On ch=1 n=c#4 v=51
9378 Off ch=1 n=c6 v=64
9379 On ch=1 n=a#5 v=41
9422 Off ch=1 n=a#5 v=64
9422 Off ch=1 n=c#4 v=64
9424 On ch=1 n=b5 v=54
9424 On ch=1 n=f4 v=51
9467 Off ch=1 n=b5 v=64
9470 On ch=1 n=c6 v=51
9513 Off ch=1 n=c6 v=64
9513 Off ch=1 n=f4 v=64
9514 On ch=1 n=g#5 v=46
9514 On ch=1 n=b4 v=55
9514 On ch=1 n=d6 v=50
9557 Off ch=1 n=d6 v=64
9559 On ch=1 n=d#6 v=44
9602 Off ch=1 n=b4 v=64
9602 Off ch=1 n=g#5 v=64
9602 Off ch=1 n=d#6 v=64
9603 On ch=1 n=e6 v=55
9648 Off ch=1 n=e6 v=64
9649 On ch=1 n=f6 v=51
9693 Off ch=1 n=f6 v=64
9695 On ch=1 n=g6 v=49
9695 On ch=1 n=f4 v=51
9738 Off ch=1 n=g6 v=64
9740 On ch=1 n=g#6 v=55
9783 Off ch=1 n=g#6 v=64
9783 Off ch=1 n=f4 v=64
9784 On ch=1 n=f#6 v=48
9784 On ch=1 n=d#4 v=44
9828 Off ch=1 n=f#6 v=64
9830 On ch=1 n=g6 v=48
9873 Off ch=1 n=g6 v=64
9873 Off ch=1 n=d#4 v=64
9874 On ch=1 n=e6 v=50
9874 On ch=1 n=g5 v=41
9874 On ch=1 n=g4 v=41
9874 On ch=1 n=c5 v=48
9918 Off ch=1 n=e6 v=64
9920 On ch=1 n=f6 v=47
9963 Off ch=1 n=f6 v=64
9963 Off ch=1 n=c5 v=64
9963 Off ch=1 n=g4 v=64
9963 Off ch=1 n=g5 v=64
9964 On ch=1 n=d6 v=51
10008 Off ch=1 n=d6 v=64
10010 On ch=1 n=d#6 v=46
10054 Off ch=1 n=d#6 v=64
10056 On ch=1 n=d6 v=46
10056 On ch=1 n=d#4 v=37
10099 Off ch=1 n=d6 v=64
10101 On ch=1 n=c6 v=36
10143 Off ch=1 n=c6 v=64
10143 Off ch=1 n=d#4 v=64
10144 On ch=1 n=b5 v=48
10144 On ch=1 n=f4 v=53
10188 Off ch=1 n=b5 v=64
10190 On ch=1 n=c6 v=60
10233 Off ch=1 n=c6 v=64
10233 Off ch=1 n=f4 v=64
10235 On ch=1 n=d6 v=55
10235 On ch=1 n=g#5 v=48
10235 On ch=1 n=b4 v=59
10278 Off ch=1 n=d6 v=64
10280 On ch=1 n=d#6 v=48
10324 Off ch=1 n=d#6 v=64
10324 Off ch=1 n=b4 v=64
10324 Off ch=1 n=g#5 v=64
10325 On ch=1 n=e6 v=60
10368 Off ch=1 n=e6 v=64
10370 On ch=1 n=f6 v=55
10414 Off ch=1 n=f6 v=64
10416 On ch=1 n=g6 v=48
10416 On ch=1 n=f4 v=47
10459 Off ch=1 n=g6 v=64
10461 On ch=1 n=g#6 v=43
10504 Off ch=1 n=g#6 v=64
10504 Off ch=1 n=f4 v=64
10505 On ch=1 n=d#4 v=46
10505 On ch=1 n=f#6 v=46
10549 Off ch=1 n=f#6 v=64
10551 On ch=1 n=g6 v=41
10594 Off ch=1 n=d#4 v=64
10594 Off ch=1 n=g6 v=64
10595 On ch=1 n=e6 v=51
10595 On ch=1 n=g5 v=44
10595 On ch=1 n=g4 v=44
10595 On ch=1 n=c5 v=37
10639 Off ch=1 n=e6 v=64
10641 On ch=1 n=f6 v=43
10684 Off ch=1 n=f6 v=64
10684 Off ch=1 n=c5 v=64
10684 Off ch=1 n=g4 v=64
10684 Off ch=1 n=g5 v=64
10685 On ch=1 n=d6 v=47
10729 Off ch=1 n=d6 v=64
10731 On ch=1 n=d#6 v=39
10774 Off ch=1 n=d#6 v=64
10776 On ch=1 n=d6 v=46
10776 On ch=1 n=d#4 v=51
10819 Off ch=1 n=d6 v=64
10822 On ch=1 n=c6 v=41
10864 Off ch=1 n=c6 v=64
10864 Off ch=1 n=d#4 v=64
10866 On ch=1 n=c#6 v=46
10866 On ch=1 n=f4 v=57
10909 Off ch=1 n=c#6 v=64
10911 On ch=1 n=d#6 v=46
10954 Off ch=1 n=d#6 v=64
10954 Off ch=1 n=f4 v=64
10956 On ch=1 n=f6 v=51
10956 On ch=1 n=g#5 v=44
10956 On ch=1 n=g#4 v=43
10956 On ch=1 n=c#5 v=42
10999 Off ch=1 n=f6 v=64
11001 On ch=1 n=f#6 v=46
11044 Off ch=1 n=f#6 v=64
11044 Off ch=1 n=c#5 v=64
11044 Off ch=1 n=g#4 v=64
11044 Off ch=1 n=g#5 v=64
11045 On ch=1 n=g#6 v=50
11089 Off ch=1 n=g#6 v=64
11091 On ch=1 n=a#6 v=50
11135 Off ch=1 n=a#6 v=64
11136 On ch=1 n=b6 v=55
11136 On ch=1 n=f4 v=57
11180 Off ch=1 n=b6 v=64
11182 On ch=1 n=c7 v=54
11225 Off ch=1 n=c7 v=64
11225 Off ch=1 n=f4 v=64
11226 On ch=1 n=c#7 v=55
11226 On ch=1 n=f#4 v=46
11270 Off ch=1 n=c#7 v=64
11272 On ch=1 n=d7 v=59
11317 Off ch=1 n=d7 v=64
11317 Off ch=1 n=f#4 v=64
11317 On ch=1 n=f7 v=62
11317 On ch=1 n=a5 v=41
11317 On ch=1 n=a4 v=41
11317 On ch=1 n=c5 v=48
11362 Off ch=1 n=f7 v=64
11362 On ch=1 n=d#7 v=53
11407 Off ch=1 n=d#7 v=64
11407 Off ch=1 n=c5 v=64
11407 Off ch=1 n=a4 v=64
11407 Off ch=1 n=a5 v=64
11407 On ch=1 n=c7 v=46
11452 Off ch=1 n=c7 v=64
11452 On ch=1 n=a6 v=43
11496 Off ch=1 n=a6 v=64
11496 On ch=1 n=f#6 v=37
11497 On ch=1 n=g4 v=51
11542 Off ch=1 n=f#6 v=64
11542 On ch=1 n=d#6 v=23
11587 Off ch=1 n=d#6 v=64
11587 Off ch=1 n=g4 v=64
11587 On ch=1 n=c#6 v=55
11587 On ch=1 n=f4 v=48
11632 Off ch=1 n=c#6 v=64
11632 On ch=1 n=d#6 v=48
11677 Off ch=1 n=d#6 v=64
11677 Off ch=1 n=f4 v=64
11677 On ch=1 n=f6 v=46
11677 On ch=1 n=g#5 v=39
11677 On ch=1 n=c#5 v=41
11677 On ch=1 n=g#4 v=36
11722 Off ch=1 n=f6 v=64
11722 On ch=1 n=f#6 v=39
11767 Off ch=1 n=f#6 v=64
11767 Off ch=1 n=g#4 v=64
11767 Off ch=1 n=c#5 v=64
11767 Off ch=1 n=g#5 v=64
11767 On ch=1 n=g#6 v=41
11812 Off ch=1 n=g#6 v=64
11812 On ch=1 n=a#6 v=46
11857 Off ch=1 n=a#6 v=64
11857 On ch=1 n=b6 v=48
11857 On ch=1 n=f4 v=51
11903 Off ch=1 n=b6 v=64
11903 On ch=1 n=c7 v=53
11948 Off ch=1 n=c7 v=64
11948 Off ch=1 n=f4 v=64
11948 On ch=1 n=c#7 v=55
11948 On ch=1 n=e4 v=48
11993 Off ch=1 n=c#7 v=64
11993 On ch=1 n=c7 v=47
12038 Off ch=1 n=c7 v=64
12038 Off ch=1 n=e4 v=64
12038 On ch=1 n=d#7 v=42
12038 On ch=1 n=a#4 v=37
12038 On ch=1 n=g5 v=41
12038 On ch=1 n=c#5 v=39
12083 Off ch=1 n=d#7 v=64
12083 On ch=1 n=c#7 v=41
12128 Off ch=1 n=c#7 v=64
12128 Off ch=1 n=c#5 v=64
12128 Off ch=1 n=g5 v=64
12128 Off ch=1 n=a#4 v=64
12128 On ch=1 n=a#6 v=54
12172 Off ch=1 n=a#6 v=64
12172 On ch=1 n=g6 v=53
12217 Off ch=1 n=g6 v=64
12217 On ch=1 n=e6 v=44
12217 On ch=1 n=e4 v=57
12263 Off ch=1 n=e6 v=64
12263 On ch=1 n=c#6 v=38
12308 Off ch=1 n=c#6 v=64
12308 Off ch=1 n=e4 v=64
12308 On ch=1 n=c6 v=51
12308 On ch=1 n=d#4 v=51
12353 Off ch=1 n=c6 v=64
12353 On ch=1 n=c#6 v=42
12398 Off ch=1 n=c#6 v=64
12398 Off ch=1 n=d#4 v=64
12398 On ch=1 n=a4 v=41
12398 On ch=1 n=f#5 v=38
12398 On ch=1 n=c5 v=47
12398 On ch=1 n=d6 v=48
12443 Off ch=1 n=d6 v=64
12443 On ch=1 n=d#6 v=44
12488 Off ch=1 n=c5 v=64
12488 Off ch=1 n=f#5 v=64
12488 Off ch=1 n=a4 v=64
12488 Off ch=1 n=d#6 v=64
12488 On ch=1 n=e6 v=59
12533 Off ch=1 n=e6 v=64
12533 On ch=1 n=f6 v=62
12578 Off ch=1 n=f6 v=64
12578 On ch=1 n=f#6 v=47
12578 On ch=1 n=d#4 v=44
12624 Off ch=1 n=f#6 v=64
12624 On ch=1 n=g6 v=46
12669 Off ch=1 n=g6 v=64
12669 Off ch=1 n=d#4 v=64
12669 On ch=1 n=g#6 v=54
12669 On ch=1 n=c#4 v=54
12714 Off ch=1 n=g#6 v=64
12714 On ch=1 n=a6 v=59
12759 Off ch=1 n=a6 v=64
12759 Off ch=1 n=c#4 v=64
12759 On ch=1 n=c7 v=57
12759 On ch=1 n=a#4 v=40
12759 On ch=1 n=f4 v=33
12759 On ch=1 n=f5 v=43
12804 Off ch=1 n=c7 v=64
12804 On ch=1 n=a#6 v=47
12848 Off ch=1 n=a#6 v=64
12848 Off ch=1 n=f5 v=64
12848 Off ch=1 n=f4 v=64
12848 Off ch=1 n=a#4 v=64
12848 On ch=1 n=f#6 v=44
12893 Off ch=1 n=f#6 v=64
12893 On ch=1 n=f6 v=41
12938 Off ch=1 n=f6 v=64
12938 On ch=1 n=d#6 v=36
12984 Off ch=1 n=d#6 v=64
12984 On ch=1 n=c#6 v=32
13029 Off ch=1 n=c#6 v=64
13029 Par ch=1 c=64 v=127
13029 On ch=1 n=c6 v=46
13029 Par ch=1 c=64 v=127
13030 On ch=1 n=f3 v=48
13074 Off ch=1 n=c6 v=64
13074 On ch=1 n=a#5 v=38
13119 Off ch=1 n=a#5 v=64
13119 Off ch=1 n=f3 v=64
13119 On ch=1 n=a5 v=39
13164 Off ch=1 n=a5 v=64
13164 On ch=1 n=c6 v=41
13209 Off ch=1 n=c6 v=64
13209 On ch=1 n=f#5 v=40
13209 On ch=1 n=c4 v=51
13254 Off ch=1 n=c4 v=64
13254 Off ch=1 n=f#5 v=64
13254 On ch=1 n=f5 v=41
13254 On ch=1 n=f4 v=50
13299 Off ch=1 n=f4 v=64
13299 Off ch=1 n=f5 v=64
13299 On ch=1 n=e5 v=43
13299 On ch=1 n=a4 v=57
13344 Off ch=1 n=a4 v=64
13344 Off ch=1 n=e5 v=64
13344 On ch=1 n=f5 v=44
13344 On ch=1 n=d#5 v=58
13344 Par ch=1 c=64 v=0
13390 Off ch=1 n=d#5 v=64
13390 Off ch=1 n=f5 v=64
13390 On ch=1 n=f#5 v=44
13435 Off ch=1 n=f#5 v=64
13435 On ch=1 n=f5 v=48
13480 Off ch=1 n=f5 v=64
13480 On ch=1 n=a#5 v=53
13525 Off ch=1 n=a#5 v=64
13525 On ch=1 n=a5 v=63
13569 Off ch=1 n=a5 v=64
13569 On ch=1 n=c#6 v=51
13614 Off ch=1 n=c#6 v=64
13614 On ch=1 n=c6 v=48
13659 Off ch=1 n=c6 v=64
13659 On ch=1 n=g#6 v=55
13704 Off ch=1 n=g#6 v=64
13704 On ch=1 n=f#6 v=44
13704 Par ch=1 c=64 v=0
13750 Off ch=1 n=f#6 v=64
13750 On ch=1 n=f6 v=77
13750 On ch=1 n=a#3 v=36
13750 On ch=1 n=a#2 v=49
13795 Off ch=1 n=f6 v=64
13795 On ch=1 n=c6 v=73
13840 Off ch=1 n=c6 v=64
13840 Off ch=1 n=a#2 v=64
13840 Off ch=1 n=a#3 v=64
13840 On ch=1 n=d#6 v=65
13840 On ch=1 n=f4 v=35
13841 On ch=1 n=c#4 v=35
13841 On ch=1 n=c#5 v=39
13885 Off ch=1 n=d#6 v=64
13885 On ch=1 n=c#6 v=58
13930 Off ch=1 n=c#6 v=64
13930 Off ch=1 n=c#5 v=64
13930 Off ch=1 n=c#4 v=64
13930 Off ch=1 n=f4 v=64
13930 On ch=1 n=f5 v=66
13975 Off ch=1 n=f5 v=64
13975 On ch=1 n=a5 v=66
14020 Off ch=1 n=a5 v=64
14020 On ch=1 n=a#5 v=65
14020 On ch=1 n=f3 v=39
14020 On ch=1 n=f2 v=49
14065 Off ch=1 n=a#5 v=64
14065 On ch=1 n=c6 v=62
14111 Off ch=1 n=c6 v=64
14111 Off ch=1 n=f2 v=64
14111 Off ch=1 n=f3 v=64
14111 On ch=1 n=c#6 v=73
14111 On ch=1 n=a#3 v=47
14111 On ch=1 n=a#2 v=49
14156 Off ch=1 n=c#6 v=64
14156 On ch=1 n=d#6 v=50
14197 Off ch=1 n=d#6 v=64
14197 Off ch=1 n=a#2 v=64
14197 Off ch=1 n=a#3 v=64
14197 On ch=1 n=f6 v=53
14197 On ch=1 n=c#4 v=43
14197 On ch=1 n=c#5 v=46
14197 On ch=1 n=f4 v=39
14245 Off ch=1 n=f6 v=64
14245 On ch=1 n=g6 v=49
14290 Off ch=1 n=g6 v=64
14290 Off ch=1 n=f4 v=64
14290 Off ch=1 n=c#5 v=64
14290 Off ch=1 n=c#4 v=64
14290 On ch=1 n=a6 v=73
14335 Off ch=1 n=a6 v=64
14335 On ch=1 n=a#6 v=62
14380 Off ch=1 n=a#6 v=64
14380 On ch=1 n=c7 v=69
14380 On ch=1 n=f3 v=39
14380 On ch=1 n=f2 v=49
14425 Off ch=1 n=c7 v=64
14425 On ch=1 n=c#7 v=65
14471 Off ch=1 n=c#7 v=64
14471 Off ch=1 n=f2 v=64
14471 Off ch=1 n=f3 v=64
14471 On ch=1 n=d#7 v=76
14471 On ch=1 n=a#3 v=39
14471 On ch=1 n=a#2 v=49
14516 Off ch=1 n=d#7 v=64
14516 On ch=1 n=f7 v=60
14561 Off ch=1 n=f7 v=64
14561 Off ch=1 n=a#2 v=64
14561 Off ch=1 n=a#3 v=64
14561 On ch=1 n=g7 v=71
14561 On ch=1 n=c#4 v=37
14561 On ch=1 n=c#5 v=33
14561 On ch=1 n=f4 v=35
14606 Off ch=1 n=g7 v=64
14606 On ch=1 n=a7 v=67
14651 Off ch=1 n=a7 v=64
14651 Off ch=1 n=f4 v=64
14651 Off ch=1 n=c#5 v=64
14651 Off ch=1 n=c#4 v=64
14651 On ch=1 n=a#7 v=77
14696 Off ch=1 n=a#7 v=64
14696 On ch=1 n=c8 v=65
14741 Off ch=1 n=c8 v=64
14741 On ch=1 n=c#8 v=65
14741 On ch=1 n=f3 v=39
14741 On ch=1 n=f2 v=49
14786 Off ch=1 n=c#8 v=64
14786 On ch=1 n=d#8 v=74
14832 Off ch=1 n=d#8 v=64
14832 Off ch=1 n=f2 v=64
14832 Off ch=1 n=f3 v=64
14832 On ch=1 n=e8 v=86
14832 On ch=1 n=a#3 v=34
14832 On ch=1 n=a#2 v=49
14877 Off ch=1 n=e8 v=64
14877 On ch=1 n=f8 v=88
14921 Off ch=1 n=f8 v=64
14921 Off ch=1 n=a#2 v=64
14921 Off ch=1 n=a#3 v=64
14921 On ch=1 n=d#8 v=86
14921 On ch=1 n=c#4 v=31
14922 On ch=1 n=f4 v=35
14922 On ch=1 n=c#5 v=19
14967 Off ch=1 n=d#8 v=64
14967 On ch=1 n=c#8 v=66
15011 Off ch=1 n=c#8 v=64
15011 Off ch=1 n=c#5 v=64
15011 Off ch=1 n=f4 v=64
15011 Off ch=1 n=c#4 v=64
15011 On ch=1 n=c8 v=67
15056 Off ch=1 n=c8 v=64
15056 On ch=1 n=a#7 v=60
15101 Off ch=1 n=a#7 v=64
15101 On ch=1 n=a7 v=65
15101 On ch=1 n=f3 v=39
15101 On ch=1 n=f2 v=49
15146 Off ch=1 n=a7 v=64
15148 On ch=1 n=a#7 v=70
15192 Off ch=1 n=a#7 v=64
15192 Off ch=1 n=f2 v=64
15192 Off ch=1 n=f3 v=64
15192 On ch=1 n=g#7 v=72
15192 On ch=1 n=a#3 v=39
15192 On ch=1 n=a#2 v=49
15237 Off ch=1 n=g#7 v=64
15239 On ch=1 n=f#7 v=66
15282 Off ch=1 n=f#7 v=64
15282 Off ch=1 n=a#2 v=64
15282 Off ch=1 n=a#3 v=64
15283 On ch=1 n=c#4 v=31
15283 On ch=1 n=c#5 v=39
15283 On ch=1 n=f4 v=39
15283 On ch=1 n=f7 v=70
15327 Off ch=1 n=f7 v=64
15329 On ch=1 n=e7 v=58
15372 Off ch=1 n=f4 v=64
15372 Off ch=1 n=c#5 v=64
15372 Off ch=1 n=c#4 v=64
15372 Off ch=1 n=e7 v=64
15373 On ch=1 n=f7 v=78
15417 Off ch=1 n=f7 v=64
15419 On ch=1 n=d#7 v=65
15462 Off ch=1 n=d#7 v=64
15464 On ch=1 n=c#7 v=60
15464 On ch=1 n=f3 v=39
15464 On ch=1 n=f2 v=49
15507 Off ch=1 n=c#7 v=64
15509 On ch=1 n=c7 v=66
15552 Off ch=1 n=c7 v=64
15552 Off ch=1 n=f2 v=64
15552 Off ch=1 n=f3 v=64
15553 On ch=1 n=a#6 v=51
15553 On ch=1 n=a#3 v=35
15553 On ch=1 n=a#2 v=49
15597 Off ch=1 n=a#6 v=64
15600 On ch=1 n=a6 v=56
15642 Off ch=1 n=a6 v=64
15642 Off ch=1 n=a#2 v=64
15642 Off ch=1 n=a#3 v=64
15643 On ch=1 n=a#6 v=56
15643 On ch=1 n=c#4 v=28
15643 On ch=1 n=c#5 v=34
15643 On ch=1 n=f4 v=33
15687 Off ch=1 n=a#6 v=64
15690 On ch=1 n=g#6 v=52
15732 Off ch=1 n=g#6 v=64
15732 Off ch=1 n=f4 v=64
15732 Off ch=1 n=c#5 v=64
15732 Off ch=1 n=c#4 v=64
15733 On ch=1 n=f#6 v=59
15777 Off ch=1 n=f#6 v=64
15779 On ch=1 n=f6 v=51
15822 Off ch=1 n=f6 v=64
15824 On ch=1 n=d#6 v=40
15824 On ch=1 n=f3 v=34
15824 On ch=1 n=f2 v=49
15867 Off ch=1 n=d#6 v=64
15869 On ch=1 n=c#6 v=32
15912 Off ch=1 n=c#6 v=64
15912 Off ch=1 n=f2 v=64
15912 Off ch=1 n=f3 v=64
15913 On ch=1 n=c6 v=43
15913 On ch=1 n=a#3 v=35
15913 On ch=1 n=a#2 v=49
15958 Off ch=1 n=c6 v=64
15960 On ch=1 n=c#6 v=41
16003 Off ch=1 n=c#6 v=64
16003 Off ch=1 n=a#2 v=64
16003 Off ch=1 n=a#3 v=64
16004 On ch=1 n=d#6 v=44
16004 On ch=1 n=f#4 v=35
16004 On ch=1 n=d#4 v=31
16004 On ch=1 n=d#5 v=37
16048 Off ch=1 n=d#6 v=64
16050 On ch=1 n=f6 v=39
16093 Off ch=1 n=f6 v=64
16093 Off ch=1 n=d#5 v=64
16093 Off ch=1 n=d#4 v=64
16093 Off ch=1 n=f#4 v=64
16094 On ch=1 n=f#6 v=45
16138 Off ch=1 n=f#6 v=64
16140 On ch=1 n=g#6 v=46
16183 Off ch=1 n=g#6 v=64
16185 On ch=1 n=a#6 v=50
16185 On ch=1 n=f3 v=39
16185 On ch=1 n=f2 v=49
16228 Off ch=1 n=a#6 v=64
16230 On ch=1 n=c7 v=72
16272 Off ch=1 n=c7 v=64
16273 Off ch=1 n=f2 v=64
16273 Off ch=1 n=f3 v=64
16274 On ch=1 n=a#3 v=39
16274 On ch=1 n=a#2 v=49
16274 On ch=1 n=a#6 v=60
16318 Off ch=1 n=a#6 v=64
16320 On ch=1 n=g#6 v=57
16363 Off ch=1 n=g#6 v=64
16363 Off ch=1 n=a#2 v=64
16364 Off ch=1 n=a#3 v=64
16364 On ch=1 n=f#6 v=46
16364 On ch=1 n=f#4 v=34
16364 On ch=1 n=d#4 v=32
16364 On ch=1 n=d#5 v=33
16408 Off ch=1 n=f#6 v=64
16410 On ch=1 n=f6 v=60
16453 Off ch=1 n=f6 v=64
16453 Off ch=1 n=d#5 v=64
16453 Off ch=1 n=d#4 v=64
16453 Off ch=1 n=f#4 v=64
16454 On ch=1 n=d#6 v=46
16498 Off ch=1 n=d#6 v=64
16500 On ch=1 n=c#6 v=45
16543 Off ch=1 n=c#6 v=64
16545 On ch=1 n=c6 v=57
16545 On ch=1 n=f3 v=47
16545 On ch=1 n=f2 v=49
16588 Off ch=1 n=c6 v=64
16590 On ch=1 n=d#6 v=48
16633 Off ch=1 n=d#6 v=64
16633 Off ch=1 n=f2 v=64
16633 Off ch=1 n=f3 v=64
16634 On ch=1 n=f#6 v=67
16634 On ch=1 n=a3 v=48
16634 On ch=1 n=a2 v=49
16679 Off ch=1 n=f#6 v=64
16680 On ch=1 n=d6 v=71
16724 Off ch=1 n=d6 v=64
16724 Off ch=1 n=a2 v=64
16724 Off ch=1 n=a3 v=64
16725 On ch=1 n=e6 v=69
16725 On ch=1 n=d#4 v=39
16725 On ch=1 n=f#4 v=37
16725 On ch=1 n=d#5 v=39
16769 Off ch=1 n=e6 v=64
16771 On ch=1 n=d#6 v=54
16814 Off ch=1 n=d#6 v=64
16814 Off ch=1 n=d#5 v=64
16814 Off ch=1 n=f#4 v=64
16814 Off ch=1 n=d#4 v=64
16815 On ch=1 n=c6 v=64
16859 Off ch=1 n=c6 v=64
16861 On ch=1 n=f#5 v=52
16904 Off ch=1 n=f#5 v=64
16906 On ch=1 n=b5 v=55
16906 On ch=1 n=d#3 v=46
16906 On ch=1 n=d#2 v=49
16949 Off ch=1 n=b5 v=64
16951 On ch=1 n=c6 v=65
16993 Off ch=1 n=c6 v=64
16993 Off ch=1 n=d#2 v=64
16993 Off ch=1 n=d#3 v=64
16994 On ch=1 n=c#6 v=64
16994 On ch=1 n=a3 v=47
16994 On ch=1 n=a2 v=49
17039 Off ch=1 n=c#6 v=64
17040 On ch=1 n=c6 v=64
17084 Off ch=1 n=c6 v=64
17084 Off ch=1 n=a2 v=64
17084 Off ch=1 n=a3 v=64
17085 On ch=1 n=d6 v=62
17085 On ch=1 n=f#4 v=36
17085 On ch=1 n=d#5 v=29
17085 On ch=1 n=d#4 v=27
17129 Off ch=1 n=d6 v=64
17131 On ch=1 n=d#6 v=54
17174 Off ch=1 n=d#6 v=64
17174 Off ch=1 n=d#4 v=64
17174 Off ch=1 n=d#5 v=64
17174 Off ch=1 n=f#4 v=64
17175 On ch=1 n=f6 v=60
17219 Off ch=1 n=f6 v=64
17221 On ch=1 n=d#6 v=48
17264 Off ch=1 n=d#6 v=64
17266 On ch=1 n=e6 v=69
17266 On ch=1 n=d#3 v=36
17266 On ch=1 n=d#2 v=49
17309 Off ch=1 n=e6 v=64
17311 On ch=1 n=f6 v=64
17354 Off ch=1 n=f6 v=64
17354 Off ch=1 n=d#2 v=64
17354 Off ch=1 n=d#3 v=64
17355 On ch=1 n=g#6 v=52
17355 On ch=1 n=a3 v=37
17355 On ch=1 n=a2 v=49
17400 Off ch=1 n=g#6 v=64
17401 On ch=1 n=f#6 v=46
17445 Off ch=1 n=f#6 v=64
17445 Off ch=1 n=a2 v=64
17445 Off ch=1 n=a3 v=64
17446 On ch=1 n=b6 v=64
17446 On ch=1 n=d#5 v=39
17446 On ch=1 n=f#4 v=34
17446 On ch=1 n=d#4 v=16
17490 Off ch=1 n=b6 v=64
17492 On ch=1 n=c7 v=60
17535 Off ch=1 n=c7 v=64
17535 Off ch=1 n=d#4 v=64
17535 Off ch=1 n=f#4 v=64
17535 Off ch=1 n=d#5 v=64
17536 On ch=1 n=c#7 v=65
17580 Off ch=1 n=c#7 v=64
17582 On ch=1 n=c7 v=46
17625 Off ch=1 n=c7 v=64
17627 On ch=1 n=d7 v=69
17627 On ch=1 n=d#3 v=39
17627 On ch=1 n=d#2 v=49
17669 Off ch=1 n=d7 v=64
17672 On ch=1 n=d#7 v=59
17714 Off ch=1 n=d#7 v=64
17714 Off ch=1 n=d#2 v=64
17714 Off ch=1 n=d#3 v=64
17715 On ch=1 n=e7 v=65
17715 On ch=1 n=a3 v=39
17715 On ch=1 n=a2 v=49
17760 Off ch=1 n=e7 v=64
17761 On ch=1 n=d#7 v=51
17805 Off ch=1 n=d#7 v=64
17805 Off ch=1 n=a2 v=64
17805 Off ch=1 n=a3 v=64
17806 On ch=1 n=e7 v=55
17806 On ch=1 n=d#5 v=34
17806 On ch=1 n=f#4 v=35
17806 On ch=1 n=d#4 v=27
17850 Off ch=1 n=e7 v=64
17852 On ch=1 n=f7 v=51
17895 Off ch=1 n=f7 v=64
17895 Off ch=1 n=d#4 v=64
17895 Off ch=1 n=f#4 v=64
17895 Off ch=1 n=d#5 v=64
17896 On ch=1 n=g#7 v=54
17940 Off ch=1 n=g#7 v=64
17942 On ch=1 n=a#7 v=54
17985 Off ch=1 n=a#7 v=64
17987 On ch=1 n=g#7 v=49
17987 On ch=1 n=d#3 v=34
17987 On ch=1 n=d#2 v=49
18030 Off ch=1 n=g#7 v=64
18032 On ch=1 n=g7 v=49
18075 Off ch=1 n=g7 v=64
18075 Off ch=1 n=d#2 v=64
18075 Off ch=1 n=d#3 v=64
18076 On ch=1 n=f#7 v=62
18076 On ch=1 n=g#3 v=37
18076 On ch=1 n=g#2 v=49
18120 Off ch=1 n=f#7 v=64
18122 On ch=1 n=f8 v=57
18166 Off ch=1 n=f8 v=64
18166 Off ch=1 n=g#2 v=64
18166 Off ch=1 n=g#3 v=64
18167 On ch=1 n=d#4 v=39
18167 On ch=1 n=c5 v=32
18167 On ch=1 n=f#5 v=23
18167 On ch=1 n=d#8 v=32
18211 Off ch=1 n=d#8 v=64
18213 On ch=1 n=f#7 v=50
18256 Off ch=1 n=f#5 v=64
18256 Off ch=1 n=c5 v=64
18256 Off ch=1 n=d#4 v=64
18256 Off ch=1 n=f#7 v=64
18257 On ch=1 n=d#8 v=64
18300 Off ch=1 n=d#8 v=64
18303 On ch=1 n=c#8 v=51
18345 Off ch=1 n=c#8 v=64
18348 On ch=1 n=f7 v=46
18348 On ch=1 n=d#3 v=30
18348 On ch=1 n=d#2 v=49
18390 Off ch=1 n=f7 v=64
18392 On ch=1 n=c#8 v=49
18435 Off ch=1 n=c#8 v=64
18435 Off ch=1 n=d#2 v=64
18435 Off ch=1 n=d#3 v=64
18436 On ch=1 n=c8 v=55
18436 On ch=1 n=g#3 v=32
18436 On ch=1 n=g#2 v=49
18480 Off ch=1 n=c8 v=64
18482 On ch=1 n=d#7 v=46
18526 Off ch=1 n=d#7 v=64
18526 Off ch=1 n=g#2 v=64
18526 Off ch=1 n=g#3 v=64
18527 On ch=1 n=c8 v=52
18527 On ch=1 n=d#4 v=34
18527 On ch=1 n=c5 v=10
18527 On ch=1 n=f#5 v=19
18571 Off ch=1 n=c8 v=64
18573 On ch=1 n=a#7 v=48
18616 Off ch=1 n=a#7 v=64
18616 Off ch=1 n=f#5 v=64
18616 Off ch=1 n=c5 v=64
18616 Off ch=1 n=d#4 v=64
18617 On ch=1 n=c#7 v=54
18661 Off ch=1 n=c#7 v=64
18663 On ch=1 n=a#7 v=46
18706 Off ch=1 n=a#7 v=64
18708 On ch=1 n=g#7 v=55
18708 On ch=1 n=a#2 v=31
18751 Off ch=1 n=g#7 v=64
18753 On ch=1 n=c7 v=51
18796 Off ch=1 n=c7 v=64
18796 Off ch=1 n=a#2 v=64
18797 On ch=1 n=g#7 v=54
18797 On ch=1 n=g#3 v=43
18841 Off ch=1 n=g#7 v=64
18843 On ch=1 n=f#7 v=46
18887 Off ch=1 n=f#7 v=64
18887 Off ch=1 n=g#3 v=64
18888 On ch=1 n=a#6 v=41
18888 On ch=1 n=f4 v=41
18888 On ch=1 n=f5 v=41
18888 On ch=1 n=c#5 v=37
18932 Off ch=1 n=a#6 v=64
18934 On ch=1 n=f#7 v=46
18976 Off ch=1 n=f#7 v=64
18976 Off ch=1 n=c#5 v=64
18976 Off ch=1 n=f5 v=64
18976 Off ch=1 n=f4 v=64
18977 On ch=1 n=f7 v=60
19023 Off ch=1 n=f7 v=64
19023 On ch=1 n=g#6 v=41
19068 Off ch=1 n=g#6 v=64
19068 On ch=1 n=f7 v=67
19068 On ch=1 n=a#2 v=31
19113 Off ch=1 n=f7 v=64
19113 On ch=1 n=d#7 v=54
19158 Off ch=1 n=d#7 v=64
19158 Off ch=1 n=a#2 v=64
19158 On ch=1 n=f#6 v=46
19158 On ch=1 n=g#3 v=41
19203 Off ch=1 n=f#6 v=64
19203 On ch=1 n=d#7 v=41
19248 Off ch=1 n=d#7 v=64
19248 Off ch=1 n=g#3 v=64
19248 On ch=1 n=c#7 v=41
19248 On ch=1 n=c#5 v=31
19248 On ch=1 n=f4 v=34
19294 Off ch=1 n=c#7 v=64
19294 On ch=1 n=f6 v=24
19339 Off ch=1 n=f6 v=64
19339 Off ch=1 n=f4 v=64
19339 Off ch=1 n=c#5 v=64
19339 On ch=1 n=a#6 v=50
19384 Off ch=1 n=a#6 v=64
19384 On ch=1 n=g#6 v=45
19429 Off ch=1 n=g#6 v=64
19429 On ch=1 n=f6 v=46
19429 On ch=1 n=g#2 v=34
19474 Off ch=1 n=f6 v=64
19474 On ch=1 n=c#6 v=33
19519 Off ch=1 n=c#6 v=64
19519 Off ch=1 n=g#2 v=64
19519 On ch=1 n=c6 v=48
19519 On ch=1 n=g#3 v=48
19564 Off ch=1 n=c6 v=64
19564 On ch=1 n=c#6 v=37
19609 Off ch=1 n=c#6 v=64
19609 Off ch=1 n=g#3 v=64
19609 On ch=1 n=d#6 v=47
19609 On ch=1 n=d#4 v=41
19609 On ch=1 n=f#4 v=38
19609 On ch=1 n=c5 v=46
19655 Off ch=1 n=d#6 v=64
19655 On ch=1 n=e6 v=58
19699 Off ch=1 n=e6 v=64
19699 Off ch=1 n=c5 v=64
19699 Off ch=1 n=f#4 v=64
19699 Off ch=1 n=d#4 v=64
19700 On ch=1 n=f6 v=58
19744 Off ch=1 n=f6 v=64
19744 On ch=1 n=f#6 v=50
19789 Off ch=1 n=f#6 v=64
19789 On ch=1 n=g#6 v=53
19789 On ch=1 n=g#2 v=39
19834 Off ch=1 n=g#6 v=64
19834 On ch=1 n=a6 v=54
19879 Off ch=1 n=a6 v=64
19879 Off ch=1 n=g#2 v=64
19879 On ch=1 n=g6 v=48
19879 On ch=1 n=g#3 v=46
19924 Off ch=1 n=g6 v=64
19924 On ch=1 n=g#6 v=51
19969 Off ch=1 n=g#6 v=64
19969 Off ch=1 n=g#3 v=64
19969 On ch=1 n=d#6 v=51
19969 On ch=1 n=e4 v=60
19969 On ch=1 n=c#5 v=41
20015 Off ch=1 n=d#6 v=64
20015 On ch=1 n=e6 v=53
20060 Off ch=1 n=e6 v=64
20060 Off ch=1 n=c#5 v=64
20060 Off ch=1 n=e4 v=64
20060 On ch=1 n=g#5 v=45
20105 Off ch=1 n=g#5 v=64
20105 On ch=1 n=e6 v=44
20150 Off ch=1 n=e6 v=64
20150 On ch=1 n=d#6 v=37
20150 On ch=1 n=g#2 v=40
20195 Off ch=1 n=d#6 v=64
20195 On ch=1 n=c#6 v=32
20240 Off ch=1 n=c#6 v=64
20240 Off ch=1 n=g#2 v=64
20240 On ch=1 n=c6 v=41
20240 On ch=1 n=g#3 v=45
20284 Off ch=1 n=c6 v=64
20284 On ch=1 n=c#6 v=39
20330 Off ch=1 n=c#6 v=64
20330 Off ch=1 n=g#3 v=64
20330 On ch=1 n=d#6 v=44
20330 On ch=1 n=d#4 v=40
20330 On ch=1 n=c5 v=39
20330 On ch=1 n=f#4 v=41
20375 Off ch=1 n=d#6 v=64
20376 On ch=1 n=e6 v=49
20421 Off ch=1 n=e6 v=64
20421 Off ch=1 n=f#4 v=64
20421 Off ch=1 n=c5 v=64
20421 Off ch=1 n=d#4 v=64
20421 On ch=1 n=f6 v=55
20465 Off ch=1 n=f6 v=64
20465 On ch=1 n=f#6 v=49
20510 Off ch=1 n=f#6 v=64
20510 On ch=1 n=g#6 v=51
20510 On ch=1 n=g#3 v=35
20555 Off ch=1 n=g#6 v=64
20555 On ch=1 n=a6 v=49
20600 Off ch=1 n=a6 v=64
20600 Off ch=1 n=g#3 v=64
20600 On ch=1 n=g6 v=65
20600 On ch=1 n=c#4 v=44
20645 Off ch=1 n=g6 v=64
20645 On ch=1 n=g#6 v=42
20690 Off ch=1 n=g#6 v=64
20690 Off ch=1 n=c#4 v=64
20690 On ch=1 n=d#6 v=46
20690 On ch=1 n=c#5 v=41
20690 On ch=1 n=e4 v=50
20736 Off ch=1 n=d#6 v=64
20736 On ch=1 n=e6 v=38
20781 Off ch=1 n=e6 v=64
20781 Off ch=1 n=e4 v=64
20781 Off ch=1 n=c#5 v=64
20781 On ch=1 n=g#5 v=44
20826 Off ch=1 n=g#5 v=64
20826 On ch=1 n=e6 v=50
20871 Off ch=1 n=e6 v=64
20871 On ch=1 n=c#6 v=41
20871 On ch=1 n=g3 v=46
20916 Off ch=1 n=c#6 v=64
20916 On ch=1 n=b5 v=32
20960 Off ch=1 n=b5 v=64
20960 Off ch=1 n=g3 v=64
20960 On ch=1 n=a#5 v=38
20960 On ch=1 n=f#3 v=48
21005 Off ch=1 n=a#5 v=64
21006 On ch=1 n=b5 v=44
21050 Off ch=1 n=b5 v=64
21050 Off ch=1 n=f#3 v=64
21050 On ch=1 n=f#4 v=39
21050 On ch=1 n=a#4 v=47
21050 On ch=1 n=e5 v=39
21050 On ch=1 n=c#6 v=46
21096 Off ch=1 n=c#6 v=64
21096 On ch=1 n=d6 v=51
21141 Off ch=1 n=e5 v=64
21141 Off ch=1 n=a#4 v=64
21141 Off ch=1 n=f#4 v=64
21141 Off ch=1 n=d6 v=64
21141 On ch=1 n=d#6 v=53
21186 Off ch=1 n=d#6 v=64
21186 On ch=1 n=e6 v=61
21232 Off ch=1 n=e6 v=64
21232 On ch=1 n=f#6 v=51
21232 On ch=1 n=f#2 v=41
21276 Off ch=1 n=f#6 v=64
21276 On ch=1 n=g6 v=51
21321 Off ch=1 n=g6 v=64
21321 Off ch=1 n=f#2 v=64
21321 On ch=1 n=f6 v=44
21321 On ch=1 n=f#3 v=47
21366 Off ch=1 n=f6 v=64
21366 On ch=1 n=f#6 v=46
21411 Off ch=1 n=f#6 v=64
21411 Off ch=1 n=f#3 v=64
21411 On ch=1 n=d#6 v=39
21411 On ch=1 n=f#4 v=46
21411 On ch=1 n=d5 v=46
21411 On ch=1 n=b4 v=43
21456 Off ch=1 n=d#6 v=64
21456 On ch=1 n=e6 v=43
21502 Off ch=1 n=e6 v=64
21502 Off ch=1 n=b4 v=64
21502 Off ch=1 n=d5 v=64
21502 Off ch=1 n=f#4 v=64
21502 On ch=1 n=c#6 v=38
21547 Off ch=1 n=c#6 v=64
21547 On ch=1 n=d6 v=44
21592 Off ch=1 n=d6 v=64
21592 On ch=1 n=b5 v=43
21592 On ch=1 n=f3 v=55
21637 Off ch=1 n=b5 v=64
21637 On ch=1 n=a5 v=37
21682 Off ch=1 n=a5 v=64
21682 Off ch=1 n=f3 v=64
21682 On ch=1 n=g#5 v=32
21682 On ch=1 n=e3 v=59
21726 Off ch=1 n=g#5 v=64
21727 On ch=1 n=a5 v=41
21771 Off ch=1 n=a5 v=64
21771 Off ch=1 n=e3 v=64
21771 On ch=1 n=b5 v=48
21772 On ch=1 n=e4 v=47
21772 On ch=1 n=g#4 v=42
21772 On ch=1 n=d5 v=41
21816 Off ch=1 n=b5 v=64
21816 On ch=1 n=c6 v=55
21862 Off ch=1 n=c6 v=64
21862 Off ch=1 n=d5 v=64
21862 Off ch=1 n=g#4 v=64
21862 Off ch=1 n=e4 v=64
21862 On ch=1 n=c#6 v=46
21907 Off ch=1 n=c#6 v=64
21907 On ch=1 n=d6 v=46
21952 Off ch=1 n=d6 v=64
21952 On ch=1 n=e6 v=30
21952 On ch=1 n=e2 v=39
21997 Off ch=1 n=e6 v=64
21997 On ch=1 n=f6 v=41
22042 Off ch=1 n=f6 v=64
22042 Off ch=1 n=e2 v=64
22042 On ch=1 n=d#6 v=44
22042 On ch=1 n=e3 v=48
22087 Off ch=1 n=d#6 v=64
22087 On ch=1 n=e6 v=48
22132 Off ch=1 n=e6 v=64
22132 Off ch=1 n=e3 v=64
22132 On ch=1 n=c#6 v=41
22132 On ch=1 n=e4 v=41
22132 On ch=1 n=c5 v=40
22132 On ch=1 n=a4 v=47
22177 Off ch=1 n=c#6 v=64
22177 On ch=1 n=d6 v=50
22223 Off ch=1 n=d6 v=64
22223 Off ch=1 n=a4 v=64
22223 Off ch=1 n=c5 v=64
22223 Off ch=1 n=e4 v=64
22223 On ch=1 n=b5 v=46
22268 Off ch=1 n=b5 v=64
22268 On ch=1 n=c6 v=47
22313 Off ch=1 n=c6 v=64
22313 On ch=1 n=b5 v=47
22313 On ch=1 n=e3 v=42
22313 On ch=1 n=e2 v=42
22358 Off ch=1 n=b5 v=64
22358 On ch=1 n=a5 v=28
22402 Off ch=1 n=a5 v=64
22402 Off ch=1 n=e2 v=64
22402 Off ch=1 n=e3 v=64
22402 On ch=1 n=g#5 v=42
22402 On ch=1 n=f3 v=59
22402 On ch=1 n=f2 v=45
22447 Off ch=1 n=g#5 v=64
22447 On ch=1 n=a5 v=41
22492 Off ch=1 n=a5 v=64
22492 Off ch=1 n=f2 v=64
22492 Off ch=1 n=f3 v=64
22492 On ch=1 n=c#6 v=47
22537 Off ch=1 n=c#6 v=64
22537 On ch=1 n=c6 v=46
22583 Off ch=1 n=c6 v=64
22583 On ch=1 n=a#5 v=39
22583 On ch=1 n=c4 v=39
22628 Off ch=1 n=c4 v=64
22628 Off ch=1 n=a#5 v=64
22628 On ch=1 n=a5 v=47
22628 On ch=1 n=f4 v=41
22673 Off ch=1 n=f4 v=64
22673 Off ch=1 n=a5 v=64
22673 On ch=1 n=f#6 v=47
22673 On ch=1 n=d#5 v=40
22718 Off ch=1 n=d#5 v=64
22718 Off ch=1 n=f#6 v=64
22718 On ch=1 n=f6 v=48
22763 Off ch=1 n=f6 v=64
22763 On ch=1 n=d#6 v=40
22763 On ch=1 n=a#3 v=41
22808 Off ch=1 n=a#3 v=64
22808 Off ch=1 n=d#6 v=64
22808 On ch=1 n=c#6 v=41
22808 On ch=1 n=f4 v=48
22853 Off ch=1 n=c#6 v=64
22855 Off ch=1 n=f4 v=64
22855 On ch=1 n=c7 v=60
22855 On ch=1 n=c#5 v=46
22898 Off ch=1 n=c7 v=64
22900 Off ch=1 n=c#5 v=64
22900 On ch=1 n=a#6 v=51
22944 Off ch=1 n=a#6 v=64
22945 On ch=1 n=g#6 v=47
22945 On ch=1 n=d#4 v=41
22989 Off ch=1 n=g#6 v=64
22991 Off ch=1 n=d#4 v=64
22991 On ch=1 n=f#6 v=41
22991 On ch=1 n=a#4 v=39
23034 Off ch=1 n=f#6 v=64
23036 Off ch=1 n=a#4 v=64
23036 On ch=1 n=f6 v=48
23036 On ch=1 n=f#5 v=41
23079 Off ch=1 n=f6 v=64
23080 Off ch=1 n=f#5 v=64
23080 On ch=1 n=d#6 v=41
23123 Off ch=1 n=d#6 v=64
23125 On ch=1 n=c#6 v=41
23126 On ch=1 n=g#3 v=41
23168 Off ch=1 n=c#6 v=64
23170 Off ch=1 n=g#3 v=64
23170 On ch=1 n=c6 v=44
23170 On ch=1 n=f#4 v=41
23213 Off ch=1 n=c6 v=64
23215 Off ch=1 n=f#4 v=64
23215 On ch=1 n=a#6 v=54
23215 On ch=1 n=c5 v=41
23258 Off ch=1 n=a#6 v=64
23260 Off ch=1 n=c5 v=64
23260 On ch=1 n=g#6 v=48
23304 Off ch=1 n=g#6 v=64
23305 On ch=1 n=f#6 v=46
23305 On ch=1 n=c#4 v=41
23349 Off ch=1 n=f#6 v=64
23351 Off ch=1 n=c#4 v=64
23351 On ch=1 n=f6 v=34
23351 On ch=1 n=g#4 v=37
23394 Off ch=1 n=f6 v=64
23396 Off ch=1 n=g#4 v=64
23396 On ch=1 n=d#6 v=41
23396 On ch=1 n=f5 v=33
23439 Off ch=1 n=d#6 v=64
23441 Off ch=1 n=f5 v=64
23441 On ch=1 n=c#6 v=36
23484 Off ch=1 n=c#6 v=64
23486 On ch=1 n=c6 v=47
23486 On ch=1 n=f#3 v=47
23529 Off ch=1 n=c6 v=64
23531 Off ch=1 n=f#3 v=64
23531 On ch=1 n=a#5 v=43
23531 On ch=1 n=c#4 v=44
23574 Off ch=1 n=a#5 v=64
23576 Off ch=1 n=c#4 v=64
23576 On ch=1 n=g#6 v=55
23577 On ch=1 n=a#4 v=39
23619 Off ch=1 n=g#6 v=64
23621 Off ch=1 n=a#4 v=64
23621 On ch=1 n=f#6 v=47
23664 Off ch=1 n=f#6 v=64
23666 On ch=1 n=f6 v=48
23666 On ch=1 n=c4 v=48
23710 Off ch=1 n=f6 v=64
23712 Off ch=1 n=c4 v=64
23712 On ch=1 n=d#6 v=42
23712 On ch=1 n=f#4 v=44
23754 Off ch=1 n=d#6 v=64
23756 Off ch=1 n=f#4 v=64
23756 On ch=1 n=c#6 v=43
23756 On ch=1 n=d#5 v=34
23799 Off ch=1 n=d#5 v=64
23799 Off ch=1 n=c#6 v=64
23799 On ch=1 n=c6 v=37
23844 Off ch=1 n=c6 v=64
23846 On ch=1 n=a#5 v=47
23846 On ch=1 n=c#4 v=47
23846 On ch=1 n=c#5 v=41
23846 On ch=1 n=f4 v=47
23846 On ch=1 n=a#4 v=41
23889 Off ch=1 n=a#5 v=64
23891 Off ch=1 n=a#4 v=64
23891 Off ch=1 n=f4 v=64
23891 Off ch=1 n=c#5 v=64
23891 Off ch=1 n=c#4 v=64
23891 On ch=1 n=a5 v=39
23934 Off ch=1 n=a5 v=64
23936 On ch=1 n=g#5 v=41
23979 Off ch=1 n=g#5 v=64
23981 On ch=1 n=g5 v=41
24024 Off ch=1 n=g5 v=64
24026 On ch=1 n=g#5 v=51
24026 On ch=1 n=d#4 v=46
24026 On ch=1 n=c5 v=50
24026 On ch=1 n=f#4 v=47
24026 On ch=1 n=a#4 v=42
24070 Off ch=1 n=g#5 v=64
24072 Off ch=1 n=a#4 v=64
24072 Off ch=1 n=f#4 v=64
24072 Off ch=1 n=c5 v=64
24072 Off ch=1 n=d#4 v=64
24072 On ch=1 n=g5 v=40
24115 Off ch=1 n=g5 v=64
24117 On ch=1 n=f#5 v=41
24160 Off ch=1 n=f#5 v=64
24162 On ch=1 n=f5 v=44
24205 Off ch=1 n=f5 v=64
24207 On ch=1 n=g5 v=57
24250 Off ch=1 n=g5 v=64
24252 On ch=1 n=f#5 v=43
24295 Off ch=1 n=f#5 v=64
24297 On ch=1 n=f5 v=48
24340 Off ch=1 n=f5 v=64
24342 On ch=1 n=e5 v=51
24385 Off ch=1 n=e5 v=64
24387 On ch=1 n=f#5 v=54
24387 On ch=1 n=f#4 v=46
24431 Off ch=1 n=f#5 v=64
24432 Off ch=1 n=f#4 v=64
24432 On ch=1 n=f5 v=50
24432 On ch=1 n=f4 v=42
24475 Off ch=1 n=f5 v=64
24477 Off ch=1 n=f4 v=64
24477 On ch=1 n=e5 v=44
24477 On ch=1 n=e4 v=46
24520 Off ch=1 n=e5 v=64
24522 Off ch=1 n=e4 v=64
24522 On ch=1 n=d#5 v=32
24522 On ch=1 n=d#4 v=39
24565 Off ch=1 n=d#5 v=64
24567 Off ch=1 n=d#4 v=64
24567 On ch=1 n=f5 v=57
24567 On ch=1 n=f4 v=60
24610 Off ch=1 n=f5 v=64
24612 Off ch=1 n=f4 v=64
24612 On ch=1 n=e5 v=42
24612 On ch=1 n=e4 v=48
24655 Off ch=1 n=e5 v=64
24657 Off ch=1 n=e4 v=64
24657 On ch=1 n=d#5 v=37
24657 On ch=1 n=d#4 v=39
24700 Off ch=1 n=d#5 v=64
24702 Off ch=1 n=d#4 v=64
24702 On ch=1 n=d5 v=46
24702 On ch=1 n=d4 v=39
24745 Off ch=1 n=d5 v=64
24747 Off ch=1 n=d4 v=64
24747 On ch=1 n=e5 v=59
24747 On ch=1 n=e4 v=54
24791 Off ch=1 n=e5 v=64
24792 Off ch=1 n=e4 v=64
24792 On ch=1 n=d#5 v=48
24792 On ch=1 n=d#4 v=39
24836 Off ch=1 n=d#5 v=64
24838 Off ch=1 n=d#4 v=64
24838 On ch=1 n=d5 v=44
24838 On ch=1 n=d4 v=35
24881 Off ch=1 n=d5 v=64
24883 Off ch=1 n=d4 v=64
24883 On ch=1 n=c#5 v=44
24883 On ch=1 n=c#4 v=40
24926 Off ch=1 n=c#5 v=64
24928 Off ch=1 n=c#4 v=64
24928 On ch=1 n=d#5 v=50
24928 On ch=1 n=d#4 v=51
24971 Off ch=1 n=d#5 v=64
24973 Off ch=1 n=d#4 v=64
24973 On ch=1 n=d5 v=39
24973 On ch=1 n=d4 v=41
25016 Off ch=1 n=d5 v=64
25018 Off ch=1 n=d4 v=64
25018 On ch=1 n=c#5 v=36
25018 On ch=1 n=c#4 v=40
25061 Off ch=1 n=c#5 v=64
25063 Off ch=1 n=c#4 v=64
25063 On ch=1 n=c5 v=41
25063 On ch=1 n=c4 v=43
25105 Off ch=1 n=c5 v=64
25108 Off ch=1 n=c4 v=64
25108 On ch=1 n=d#5 v=32
25108 On ch=1 n=d#4 v=47
25152 Off ch=1 n=d#4 v=64
25152 Off ch=1 n=d#5 v=64
25152 On ch=1 n=c#5 v=35
25152 On ch=1 n=c#4 v=47
25196 Off ch=1 n=c#5 v=64
25198 Off ch=1 n=c#4 v=64
25198 On ch=1 n=c5 v=37
25198 On ch=1 n=c4 v=35
25241 Off ch=1 n=c5 v=64
25243 Off ch=1 n=c4 v=64
25243 On ch=1 n=a#4 v=28
25243 On ch=1 n=a#3 v=34
25286 Off ch=1 n=a#4 v=64
25288 Off ch=1 n=a#3 v=64
25288 On ch=1 n=a4 v=44
25288 On ch=1 n=d#3 v=48
25331 Off ch=1 n=a4 v=64
25333 On ch=1 n=a#4 v=41
25376 Off ch=1 n=a#4 v=64
25376 Off ch=1 n=d#3 v=64
25378 On ch=1 n=c5 v=50
25378 On ch=1 n=a3 v=51
25378 On ch=1 n=f#4 v=42
25421 Off ch=1 n=c5 v=64
25423 On ch=1 n=c#5 v=47
25466 Off ch=1 n=c#5 v=64
25466 Off ch=1 n=f#4 v=64
25466 Off ch=1 n=a3 v=64
25467 On ch=1 n=d#5 v=55
25512 Off ch=1 n=d#5 v=64
25513 On ch=1 n=e5 v=55
25557 Off ch=1 n=e5 v=64
25559 On ch=1 n=f5 v=55
25559 On ch=1 n=d#3 v=46
25602 Off ch=1 n=f5 v=64
25604 On ch=1 n=f#5 v=56
25647 Off ch=1 n=f#5 v=64
25647 Off ch=1 n=d#3 v=64
25649 On ch=1 n=e5 v=46
25649 On ch=1 n=c#3 v=50
25692 Off ch=1 n=e5 v=64
25694 On ch=1 n=f5 v=40
25737 Off ch=1 n=f5 v=64
25737 Off ch=1 n=c#3 v=64
25738 On ch=1 n=d5 v=51
25738 On ch=1 n=f4 v=41
25738 On ch=1 n=a#3 v=46
25782 Off ch=1 n=d5 v=64
25784 On ch=1 n=d#5 v=37
25826 Off ch=1 n=d#5 v=64
25826 Off ch=1 n=a#3 v=64
25826 Off ch=1 n=f4 v=64
25827 On ch=1 n=c5 v=53
25872 Off ch=1 n=c5 v=64
25874 On ch=1 n=c#5 v=39
25917 Off ch=1 n=c#5 v=64
25919 On ch=1 n=c5 v=50
25919 On ch=1 n=c#3 v=47
25963 Off ch=1 n=c5 v=64
25964 On ch=1 n=a#4 v=34
26007 Off ch=1 n=a#4 v=64
26007 Off ch=1 n=c#3 v=64
26008 On ch=1 n=a4 v=42
26008 On ch=1 n=d#3 v=47
26052 Off ch=1 n=a4 v=64
26054 On ch=1 n=a#4 v=41
26097 Off ch=1 n=a#4 v=64
26097 Off ch=1 n=d#3 v=64
26098 On ch=1 n=c5 v=57
26098 On ch=1 n=a3 v=57
26098 On ch=1 n=f#4 v=44
26142 Off ch=1 n=c5 v=64
26144 On ch=1 n=c#5 v=44
26187 Off ch=1 n=c#5 v=64
26187 Off ch=1 n=f#4 v=64
26187 Off ch=1 n=a3 v=64
26188 On ch=1 n=d#5 v=48
26232 Off ch=1 n=d#5 v=64
26234 On ch=1 n=e5 v=50
26278 Off ch=1 n=e5 v=64
26280 On ch=1 n=f5 v=52
26280 On ch=1 n=d#3 v=43
26323 Off ch=1 n=f5 v=64
26325 On ch=1 n=f#5 v=55
26368 Off ch=1 n=f#5 v=64
26368 Off ch=1 n=d#3 v=64
26369 On ch=1 n=e5 v=53
26369 On ch=1 n=c#3 v=47
26413 Off ch=1 n=e5 v=64
26415 On ch=1 n=f5 v=40
26458 Off ch=1 n=f5 v=64
26458 Off ch=1 n=c#3 v=64
26459 On ch=1 n=d5 v=45
26459 On ch=1 n=f4 v=47
26459 On ch=1 n=a#3 v=46
26503 Off ch=1 n=d5 v=64
26505 On ch=1 n=d#5 v=32
26547 Off ch=1 n=d#5 v=64
26547 Off ch=1 n=a#3 v=64
26547 Off ch=1 n=f4 v=64
26548 On ch=1 n=c5 v=37
26592 Off ch=1 n=c5 v=64
26594 On ch=1 n=c#5 v=42
26638 Off ch=1 n=c#5 v=64
26640 On ch=1 n=c5 v=35
26640 On ch=1 n=c#3 v=41
26685 Off ch=1 n=c5 v=64
26685 On ch=1 n=a#4 v=34
26730 Off ch=1 n=a#4 v=64
26730 Off ch=1 n=c#3 v=64
26730 On ch=1 n=c5 v=43
26730 On ch=1 n=d#3 v=57
26775 Off ch=1 n=c5 v=64
26775 On ch=1 n=c#5 v=36
26820 Off ch=1 n=c#5 v=64
26820 Off ch=1 n=d#3 v=64
26820 On ch=1 n=f#4 v=46
26820 On ch=1 n=a#3 v=48
26820 On ch=1 n=d#5 v=43
26865 Off ch=1 n=d#5 v=64
26865 On ch=1 n=f5 v=41
26910 Off ch=1 n=a#3 v=64
26910 Off ch=1 n=f#4 v=64
26910 Off ch=1 n=f5 v=64
26910 On ch=1 n=f#5 v=48
26955 Off ch=1 n=f#5 v=64
26955 On ch=1 n=c6 v=53
27000 Off ch=1 n=c6 v=64
27000 On ch=1 n=a#5 v=39
27000 On ch=1 n=d#3 v=44
27046 Off ch=1 n=a#5 v=64
27046 On ch=1 n=c5 v=44
27091 Off ch=1 n=c5 v=64
27091 Off ch=1 n=d#3 v=64
27091 On ch=1 n=a#4 v=50
27091 On ch=1 n=f3 v=55
27136 Off ch=1 n=a#4 v=64
27136 On ch=1 n=c5 v=47
27180 Off ch=1 n=c5 v=64
27180 Off ch=1 n=f3 v=64
27180 On ch=1 n=c#5 v=37
27181 On ch=1 n=a#4 v=47
27181 On ch=1 n=c#4 v=47
27225 Off ch=1 n=c#5 v=64
27225 On ch=1 n=d#5 v=42
27270 Off ch=1 n=d#5 v=64
27270 Off ch=1 n=c#4 v=64
27270 Off ch=1 n=a#4 v=64
27270 On ch=1 n=f5 v=50
27315 Off ch=1 n=f5 v=64
27315 On ch=1 n=c6 v=54
27360 Off ch=1 n=c6 v=64
27360 On ch=1 n=a#5 v=41
27360 On ch=1 n=f2 v=59
27406 Off ch=1 n=a#5 v=64
27406 On ch=1 n=f#5 v=44
27451 Off ch=1 n=f#5 v=64
27451 Off ch=1 n=f2 v=64
27451 On ch=1 n=e5 v=41
27451 On ch=1 n=f3 v=59
27496 Off ch=1 n=e5 v=64
27496 On ch=1 n=f5 v=41
27541 Off ch=1 n=f5 v=64
27541 Off ch=1 n=f3 v=64
27541 On ch=1 n=f#5 v=41
27541 On ch=1 n=a4 v=43
27541 On ch=1 n=d#4 v=42
27586 Off ch=1 n=f#5 v=64
27586 On ch=1 n=f5 v=50
27631 Off ch=1 n=f5 v=64
27631 Off ch=1 n=d#4 v=64
27631 Off ch=1 n=a4 v=64
27631 On ch=1 n=a#5 v=50
27676 Off ch=1 n=a#5 v=64
27676 On ch=1 n=a5 v=54
27721 Off ch=1 n=a5 v=64
27721 On ch=1 n=f#6 v=62
27721 On ch=1 n=f3 v=53
27767 Off ch=1 n=f#6 v=64
27767 On ch=1 n=f6 v=65
27812 Off ch=1 n=f6 v=64
27812 Off ch=1 n=f3 v=64
27812 On ch=1 n=d#6 v=53
27812 On ch=1 n=a#3 v=53
27856 Off ch=1 n=d#6 v=64
27856 On ch=1 n=c#6 v=53
27901 Off ch=1 n=c#6 v=64
27901 Off ch=1 n=a#3 v=64
27901 On ch=1 n=a#5 v=36
27901 On ch=1 n=c#5 v=39
27902 On ch=1 n=f4 v=51
27946 Off ch=1 n=a#5 v=64
27946 On ch=1 n=f5 v=45
27991 Off ch=1 n=f5 v=64
27991 Off ch=1 n=f4 v=64
27991 Off ch=1 n=c#5 v=64
27991 On ch=1 n=d#5 v=37
28036 Off ch=1 n=d#5 v=64
28036 On ch=1 n=c#5 v=36
28081 Off ch=1 n=c#5 v=64
28081 On ch=1 n=a#4 v=35
28081 On ch=1 n=c#3 v=44
28127 Off ch=1 n=a#4 v=64
28127 On ch=1 n=f4 v=35
28172 Off ch=1 n=f4 v=64
28172 Off ch=1 n=c#3 v=64
28172 On ch=1 n=a4 v=40
28172 On ch=1 n=d#3 v=43
28217 Off ch=1 n=a4 v=64
28217 On ch=1 n=a#4 v=44
28262 Off ch=1 n=a#4 v=64
28262 Off ch=1 n=d#3 v=64
28262 On ch=1 n=c5 v=51
28262 On ch=1 n=a3 v=57
28262 On ch=1 n=f#4 v=39
28307 Off ch=1 n=c5 v=64
28307 On ch=1 n=c#5 v=48
28352 Off ch=1 n=c#5 v=64
28352 Off ch=1 n=f#4 v=64
28352 Off ch=1 n=a3 v=64
28352 On ch=1 n=d#5 v=51
28397 Off ch=1 n=d#5 v=64
28397 On ch=1 n=e5 v=55
28442 Off ch=1 n=e5 v=64
28442 On ch=1 n=f5 v=65
28442 On ch=1 n=d#3 v=47
28488 Off ch=1 n=f5 v=64
28488 On ch=1 n=f#5 v=58
28533 Off ch=1 n=f#5 v=64
28533 Off ch=1 n=d#3 v=64
28533 On ch=1 n=e5 v=71
28533 On ch=1 n=c#3 v=44
28577 Off ch=1 n=e5 v=64
28577 On ch=1 n=f5 v=55
28622 Off ch=1 n=f5 v=64
28622 Off ch=1 n=c#3 v=64
28622 On ch=1 n=d5 v=65
28622 On ch=1 n=f4 v=37
28622 On ch=1 n=a#3 v=51
28667 Off ch=1 n=d5 v=64
28667 On ch=1 n=d#5 v=39
28712 Off ch=1 n=d#5 v=64
28712 Off ch=1 n=a#3 v=64
28712 Off ch=1 n=f4 v=64
28712 On ch=1 n=c5 v=52
28757 Off ch=1 n=c5 v=64
28757 On ch=1 n=c#5 v=48
28802 Off ch=1 n=c#5 v=64
28802 On ch=1 n=c5 v=44
28802 On ch=1 n=c#3 v=40
28848 Off ch=1 n=c5 v=64
28848 On ch=1 n=a#4 v=38
28893 Off ch=1 n=a#4 v=64
28893 Off ch=1 n=c#3 v=64
28893 On ch=1 n=a4 v=55
28893 On ch=1 n=d#3 v=46
28938 Off ch=1 n=a4 v=64
28938 On ch=1 n=a#4 v=48
28983 Off ch=1 n=a#4 v=64
28983 Off ch=1 n=d#3 v=64
28983 On ch=1 n=c5 v=59
28983 On ch=1 n=a3 v=47
28983 On ch=1 n=f#4 v=39
29028 Off ch=1 n=c5 v=64
29028 On ch=1 n=c#5 v=52
29073 Off ch=1 n=c#5 v=64
29073 Off ch=1 n=f#4 v=64
29073 Off ch=1 n=a3 v=64
29073 On ch=1 n=d#5 v=67
29118 Off ch=1 n=d#5 v=64
29118 On ch=1 n=e5 v=77
29163 Off ch=1 n=e5 v=64
29163 On ch=1 n=f5 v=65
29163 On ch=1 n=d#3 v=41
29208 Off ch=1 n=f5 v=64
29208 On ch=1 n=f#5 v=55
29253 Off ch=1 n=f#5 v=64
29253 Off ch=1 n=d#3 v=64
29253 On ch=1 n=e5 v=65
29253 On ch=1 n=c#3 v=46
29298 Off ch=1 n=e5 v=64
29298 On ch=1 n=f5 v=52
29343 Off ch=1 n=f5 v=64
29343 Off ch=1 n=c#3 v=64
29343 On ch=1 n=d5 v=62
29343 On ch=1 n=f4 v=38
29343 On ch=1 n=a#3 v=48
29388 Off ch=1 n=d5 v=64
29388 On ch=1 n=d#5 v=37
29433 Off ch=1 n=d#5 v=64
29433 Off ch=1 n=a#3 v=64
29433 Off ch=1 n=f4 v=64
29433 On ch=1 n=c5 v=46
29478 Off ch=1 n=c5 v=64
29478 On ch=1 n=c#5 v=44
29523 Off ch=1 n=c#5 v=64
29523 On ch=1 n=c5 v=51
29523 On ch=1 n=c#3 v=39
29568 Off ch=1 n=c5 v=64
29568 On ch=1 n=a#4 v=45
29614 Off ch=1 n=a#4 v=64
29614 Off ch=1 n=c#3 v=64
29614 On ch=1 n=d#3 v=45
29614 On ch=1 n=b3 v=39
29614 On ch=1 n=f#4 v=52
29614 On ch=1 n=b4 v=57
29659 Off ch=1 n=b4 v=64
29659 On ch=1 n=c#5 v=42
29704 Off ch=1 n=c#5 v=64
29704 On ch=1 n=d#5 v=48
29749 Off ch=1 n=d#5 v=64
29749 On ch=1 n=e5 v=48
29794 Off ch=1 n=f#4 v=64
29794 Off ch=1 n=b3 v=64
29794 Off ch=1 n=d#3 v=64
29794 Off ch=1 n=e5 v=64
29794 On ch=1 n=f#5 v=45
29839 Off ch=1 n=f#5 v=64
29839 On ch=1 n=g#5 v=44
29884 Off ch=1 n=g#5 v=64
29884 On ch=1 n=a#5 v=43
29928 Off ch=1 n=a#5 v=64
29928 On ch=1 n=b5 v=40
29928 On ch=1 n=a5 v=35
29974 Off ch=1 n=a5 v=64
29974 Off ch=1 n=b5 v=64
29974 On ch=1 n=c#6 v=60
29974 On ch=1 n=f#4 v=41
29975 On ch=1 n=f#5 v=43
29975 On ch=1 n=d#4 v=39
29975 On ch=1 n=b4 v=47
30019 Off ch=1 n=c#6 v=64
30019 On ch=1 n=d#6 v=53
30064 Off ch=1 n=d#6 v=64
30064 On ch=1 n=e6 v=58
30109 Off ch=1 n=e6 v=64
30109 On ch=1 n=f#6 v=56
30154 Off ch=1 n=f#6 v=64
30154 Off ch=1 n=b4 v=64
30154 Off ch=1 n=d#4 v=64
30154 Off ch=1 n=f#5 v=64
30154 Off ch=1 n=f#4 v=64
30154 On ch=1 n=g#6 v=63
30154 On ch=1 n=f#4 v=44
30154 On ch=1 n=c#4 v=41
30154 On ch=1 n=a#4 v=39
30154 On ch=1 n=e5 v=41
30199 Off ch=1 n=g#6 v=64
30199 On ch=1 n=a#6 v=67
30244 Off ch=1 n=a#6 v=64
30244 On ch=1 n=b6 v=61
30289 Off ch=1 n=b6 v=64
30289 On ch=1 n=c#7 v=72
30335 Off ch=1 n=c#7 v=64
30335 Off ch=1 n=e5 v=64
30335 Off ch=1 n=a#4 v=64
30335 Off ch=1 n=c#4 v=64
30335 Off ch=1 n=f#4 v=64
30335 On ch=1 n=e7 v=74
30335 On ch=1 n=d#5 v=46
30335 On ch=1 n=f#4 v=41
30335 On ch=1 n=b3 v=51
30380 Off ch=1 n=e7 v=64
30380 On ch=1 n=d#7 v=67
30425 Off ch=1 n=d#7 v=64
30425 On ch=1 n=b6 v=57
30470 Off ch=1 n=b6 v=64
30470 On ch=1 n=g#6 v=47
30515 Off ch=1 n=g#6 v=64
30515 Off ch=1 n=b3 v=64
30515 Off ch=1 n=f#4 v=64
30515 On ch=1 n=f#6 v=50
30560 Off ch=1 n=f#6 v=64
30562 On ch=1 n=d#6 v=39
30605 Off ch=1 n=d#6 v=64
30607 On ch=1 n=b5 v=55
30649 Off ch=1 n=b5 v=64
30651 On ch=1 n=g#5 v=44
30695 Off ch=1 n=g#5 v=64
30695 Off ch=1 n=d#5 v=64
30696 On ch=1 n=f#5 v=47
30740 Off ch=1 n=f#5 v=64
30742 On ch=1 n=d#5 v=34
30785 Off ch=1 n=d#5 v=64
30787 On ch=1 n=b4 v=39
30830 Off ch=1 n=b4 v=64
30832 On ch=1 n=g#4 v=36
30875 Off ch=1 n=g#4 v=64
30877 On ch=1 n=f#4 v=46
30920 Off ch=1 n=f#4 v=64
30922 On ch=1 n=d#4 v=44
30965 Off ch=1 n=d#4 v=64
30967 On ch=1 n=b3 v=30
31010 Off ch=1 n=b3 v=64
31012 On ch=1 n=g#3 v=38
31056 Off ch=1 n=g#3 v=64
31057 On ch=1 n=e3 v=48
31057 On ch=1 n=e2 v=48
31101 Off ch=1 n=e2 v=64
31101 Off ch=1 n=e3 v=64
31103 On ch=1 n=f3 v=32
31103 On ch=1 n=f2 v=32
31146 Off ch=1 n=f2 v=64
31146 Off ch=1 n=f3 v=64
31147 On ch=1 n=a#3 v=23
31147 On ch=1 n=a#2 v=23
31191 Off ch=1 n=a#2 v=64
31191 Off ch=1 n=a#3 v=64
31192 On ch=1 n=a3 v=41
31192 On ch=1 n=a2 v=41
31236 Off ch=1 n=a2 v=64
31236 Off ch=1 n=a3 v=64
31238 On ch=1 n=f#3 v=55
31238 On ch=1 n=f#2 v=55
31280 Off ch=1 n=f#2 v=64
31280 Off ch=1 n=f#3 v=64
31282 On ch=1 n=f3 v=48
31282 On ch=1 n=f2 v=48
31325 Off ch=1 n=f2 v=64
31325 Off ch=1 n=f3 v=64
31327 On ch=1 n=c#4 v=52
31327 On ch=1 n=c#3 v=52
31370 Off ch=1 n=c#3 v=64
31370 Off ch=1 n=c#4 v=64
31372 On ch=1 n=c4 v=50
31372 On ch=1 n=c3 v=50
31416 Off ch=1 n=c3 v=64
31416 Off ch=1 n=c4 v=64
31417 On ch=1 n=a#3 v=63
31417 On ch=1 n=a#2 v=63
31461 Off ch=1 n=a#2 v=64
31461 Off ch=1 n=a#3 v=64
31462 On ch=1 n=a3 v=39
31462 On ch=1 n=a2 v=39
31506 Off ch=1 n=a2 v=64
31506 Off ch=1 n=a3 v=64
31507 On ch=1 n=f#4 v=51
31507 On ch=1 n=f#3 v=51
31551 Off ch=1 n=f#3 v=64
31551 Off ch=1 n=f#4 v=64
31552 On ch=1 n=f4 v=50
31552 On ch=1 n=f3 v=50
31596 Off ch=1 n=f3 v=64
31596 Off ch=1 n=f4 v=64
31597 On ch=1 n=c#4 v=65
31597 On ch=1 n=c#3 v=65
31641 Off ch=1 n=c#3 v=64
31641 Off ch=1 n=c#4 v=64
31642 On ch=1 n=c4 v=56
31642 On ch=1 n=c3 v=56
31686 Off ch=1 n=c3 v=64
31686 Off ch=1 n=c4 v=64
31688 On ch=1 n=a#4 v=55
31688 On ch=1 n=a#3 v=55
31731 Off ch=1 n=a#3 v=64
31731 Off ch=1 n=a#4 v=64
31732 On ch=1 n=a4 v=54
31732 On ch=1 n=a3 v=54
31776 Off ch=1 n=a3 v=64
31776 Off ch=1 n=a4 v=64
31777 On ch=1 n=f#4 v=69
31777 On ch=1 n=f#3 v=69
31822 Off ch=1 n=f#3 v=64
31822 Off ch=1 n=f#4 v=64
31823 On ch=1 n=f4 v=51
31823 On ch=1 n=f3 v=51
31867 Off ch=1 n=f3 v=64
31867 Off ch=1 n=f4 v=64
31868 On ch=1 n=c#5 v=53
31868 On ch=1 n=c#4 v=53
31912 Off ch=1 n=c#4 v=64
31912 Off ch=1 n=c#5 v=64
31913 On ch=1 n=c5 v=60
31913 On ch=1 n=c4 v=60
31954 Off ch=1 n=c4 v=64
31954 Off ch=1 n=c5 v=64
31954 On ch=1 n=a#4 v=65
31954 On ch=1 n=a#3 v=65
31997 Off ch=1 n=a#3 v=64
31997 Off ch=1 n=a#4 v=64
31997 On ch=1 n=a4 v=39
31997 On ch=1 n=a3 v=39
32046 Off ch=1 n=a3 v=64
32046 Off ch=1 n=a4 v=64
32048 On ch=1 n=f#5 v=53
32048 On ch=1 n=f#4 v=53
32091 Off ch=1 n=f#4 v=64
32091 Off ch=1 n=f#5 v=64
32092 On ch=1 n=f5 v=48
32092 On ch=1 n=f4 v=48
32136 Off ch=1 n=f4 v=64
32136 Off ch=1 n=f5 v=64
32138 On ch=1 n=c#5 v=67
32138 On ch=1 n=c#4 v=67
32182 Off ch=1 n=c#4 v=64
32182 Off ch=1 n=c#5 v=64
32184 On ch=1 n=c5 v=61
32184 On ch=1 n=c4 v=61
32227 Off ch=1 n=c4 v=64
32227 Off ch=1 n=c5 v=64
32228 On ch=1 n=a#5 v=55
32228 On ch=1 n=a#4 v=55
32272 Off ch=1 n=a#4 v=64
32272 Off ch=1 n=a#5 v=64
32273 On ch=1 n=a5 v=51
32273 On ch=1 n=a4 v=51
32317 Off ch=1 n=a4 v=64
32317 Off ch=1 n=a5 v=64
32318 On ch=1 n=f#5 v=63
32318 On ch=1 n=f#4 v=63
32362 Off ch=1 n=f#4 v=64
32362 Off ch=1 n=f#5 v=64
32363 On ch=1 n=f5 v=40
32363 On ch=1 n=f4 v=40
32407 Off ch=1 n=f4 v=64
32407 Off ch=1 n=f5 v=64
32408 On ch=1 n=c#6 v=64
32408 On ch=1 n=c#5 v=64
32452 Off ch=1 n=c#5 v=64
32452 Off ch=1 n=c#6 v=64
32452 On ch=1 n=c6 v=51
32452 On ch=1 n=c5 v=51
32497 Off ch=1 n=c5 v=64
32497 Off ch=1 n=c6 v=64
32498 On ch=1 n=a#5 v=52
32498 On ch=1 n=a#4 v=52
32543 Off ch=1 n=a#4 v=64
32543 Off ch=1 n=a#5 v=64
32544 On ch=1 n=a5 v=50
32544 On ch=1 n=a4 v=50
32587 Off ch=1 n=a4 v=64
32587 Off ch=1 n=a5 v=64
32588 On ch=1 n=f#6 v=64
32588 On ch=1 n=f#5 v=64
32632 Off ch=1 n=f#5 v=64
32632 Off ch=1 n=f#6 v=64
32634 On ch=1 n=f6 v=52
32634 On ch=1 n=f5 v=52
32677 Off ch=1 n=f5 v=64
32677 Off ch=1 n=f6 v=64
32678 On ch=1 n=c#6 v=66
32678 On ch=1 n=c#5 v=66
32722 Off ch=1 n=c#5 v=64
32722 Off ch=1 n=c#6 v=64
32723 On ch=1 n=c6 v=53
32724 On ch=1 n=c5 v=53
32767 Off ch=1 n=c5 v=64
32767 Off ch=1 n=c6 v=64
32768 On ch=1 n=a#6 v=68
32768 On ch=1 n=a#5 v=68
32812 Off ch=1 n=a#5 v=64
32812 Off ch=1 n=a#6 v=64
32813 On ch=1 n=a6 v=60
32813 On ch=1 n=a5 v=60
32857 Off ch=1 n=a5 v=64
32857 Off ch=1 n=a6 v=64
32858 On ch=1 n=f#6 v=69
32858 On ch=1 n=f#5 v=69
32903 Off ch=1 n=f#5 v=64
32903 Off ch=1 n=f#6 v=64
32904 On ch=1 n=f6 v=58
32904 On ch=1 n=f5 v=58
32948 Off ch=1 n=f5 v=64
32948 Off ch=1 n=f6 v=64
32950 On ch=1 n=c#7 v=48
32950 On ch=1 n=c#6 v=48
32993 Off ch=1 n=c#6 v=64
32993 Off ch=1 n=c#7 v=64
32994 On ch=1 n=c7 v=49
32995 On ch=1 n=c6 v=49
33038 Off ch=1 n=c6 v=64
33038 Off ch=1 n=c7 v=64
33039 On ch=1 n=a#6 v=66
33039 On ch=1 n=a#5 v=66
33083 Off ch=1 n=a#5 v=64
33083 Off ch=1 n=a#6 v=64
33084 On ch=1 n=a6 v=53
33084 On ch=1 n=a5 v=53
33128 Off ch=1 n=a5 v=64
33128 Off ch=1 n=a6 v=64
33130 On ch=1 n=f#7 v=67
33130 On ch=1 n=f#6 v=67
33173 Off ch=1 n=f#6 v=64
33173 Off ch=1 n=f#7 v=64
33175 On ch=1 n=f7 v=56
33175 On ch=1 n=f6 v=56
33218 Off ch=1 n=f6 v=64
33218 Off ch=1 n=f7 v=64
33219 On ch=1 n=c#7 v=58
33219 On ch=1 n=c#6 v=58
33264 Off ch=1 n=c#6 v=64
33264 Off ch=1 n=c#7 v=64
33264 On ch=1 n=c7 v=55
33264 On ch=1 n=c6 v=55
33308 Off ch=1 n=c6 v=64
33308 Off ch=1 n=c7 v=64
33310 On ch=1 n=a#7 v=62
33310 On ch=1 n=a#6 v=62
33353 Off ch=1 n=a#6 v=64
33353 Off ch=1 n=a#7 v=64
33354 On ch=1 n=a7 v=60
33354 On ch=1 n=a6 v=60
33398 Off ch=1 n=a6 v=64
33398 Off ch=1 n=a7 v=64
33399 On ch=1 n=f#7 v=60
33400 On ch=1 n=f#6 v=60
33443 Off ch=1 n=f#6 v=64
33443 Off ch=1 n=f#7 v=64
33444 On ch=1 n=f7 v=58
33444 On ch=1 n=f6 v=58
33488 Off ch=1 n=f6 v=64
33488 Off ch=1 n=f7 v=64
33489 On ch=1 n=c#8 v=65
33489 On ch=1 n=c#7 v=65
33533 Off ch=1 n=c#7 v=64
33533 Off ch=1 n=c#8 v=64
33534 On ch=1 n=c8 v=73
33534 On ch=1 n=c7 v=73
33578 Off ch=1 n=c7 v=64
33578 Off ch=1 n=c8 v=64
33579 On ch=1 n=f8 v=79
33579 On ch=1 n=f7 v=79
33624 Off ch=1 n=f7 v=64
33624 Off ch=1 n=f8 v=64
33761 On ch=1 n=d#5 v=79
33761 On ch=1 n=a5 v=75
33761 On ch=1 n=f6 v=62
33761 On ch=1 n=f3 v=71
33761 On ch=1 n=f4 v=74
33938 Off ch=1 n=f4 v=64
33938 Off ch=1 n=f3 v=64
33938 Off ch=1 n=f6 v=64
33938 Off ch=1 n=a5 v=64
33938 Off ch=1 n=d#5 v=64
33939 Par ch=1 c=64 v=127
33939 On ch=1 n=a#2 v=61
34029 Off ch=1 n=a#2 v=64
34076 Par ch=1 c=64 v=127
34076 On ch=1 n=a#6 v=88
34076 On ch=1 n=a#5 v=77
34076 On ch=1 n=a#3 v=67
34076 On ch=1 n=f4 v=66
34076 On ch=1 n=f#4 v=23
34076 On ch=1 n=c#5 v=55
34253 Off ch=1 n=c#5 v=64
34253 Off ch=1 n=f#4 v=64
34253 Off ch=1 n=f4 v=64
34253 Off ch=1 n=a#3 v=64
34253 Off ch=1 n=a#5 v=64
34253 Off ch=1 n=a#6 v=64
34482 Par ch=1 c=127 v=0
34482 Par ch=1 c=64 v=0
34482 Meta TrkEnd
TrkEnd
MTrk
0 Meta TrkName "Chopin Prelude #16"
0 Meta TrkEnd
TrkEnd
MTrk
0 Meta TrkName "Performed and Step-Recorded by"
0 Meta TrkEnd
TrkEnd
MTrk
0 Meta TrkName "\"SlowEater\" (America Online)"
0 Meta TrkEnd
TrkEnd
MTrk
0 Meta TrkName "Performed on Korg M1"
0 Meta TrkEnd
TrkEnd
MTrk
0 Meta TrkName "1991"
0 Meta TrkEnd
TrkEnd
