MFile 1 9 480
MTrk
0 TimeSig 3/2 48 8
0 KeySig -1 major
0 Tempo 500000
31680 Tempo 375000
57600 Tempo 500000
72000 Tempo 375000
115200 Tempo 500000
120960 TimeSig 4/2 48 8
123360 Tempo 750000
124800 TimeSig 3/2 48 8
124800 Tempo 375000
136320 Tempo 500000
136320 Meta TrkEnd
TrkEnd
MTrk
0 SeqSpec 43 00 01 00
0 Meta TrkName "Right Treble"
0 Meta 0x21 00
2880 On ch=1 n=g6 v=110
2880 On ch=1 n=d6 v=110
2880 On ch=1 n=a#5 v=110
2880 On ch=1 n=g5 v=110
4800 On ch=1 n=g5 v=0
4800 On ch=1 n=a#5 v=0
4800 On ch=1 n=d6 v=0
4800 On ch=1 n=g6 v=0
4800 On ch=1 n=d5 v=110
4800 On ch=1 n=g5 v=110
4800 On ch=1 n=a#5 v=110
4800 On ch=1 n=d6 v=110
5760 On ch=1 n=d6 v=0
5760 On ch=1 n=a#5 v=0
5760 On ch=1 n=g5 v=0
5760 On ch=1 n=d5 v=0
5760 On ch=1 n=c6 v=110
5760 On ch=1 n=a5 v=110
5760 On ch=1 n=e5 v=110
5760 On ch=1 n=c5 v=110
6720 On ch=1 n=c5 v=0
6720 On ch=1 n=e5 v=0
6720 On ch=1 n=a5 v=0
6720 On ch=1 n=c6 v=0
6720 On ch=1 n=c#5 v=110
6720 On ch=1 n=f5 v=110
6720 On ch=1 n=a5 v=110
7680 On ch=1 n=a5 v=0
7680 On ch=1 n=f5 v=0
7680 On ch=1 n=c#5 v=0
7680 On ch=1 n=d5 v=110
7680 On ch=1 n=g5 v=110
7680 On ch=1 n=f5 v=110
8640 On ch=1 n=f5 v=0
8640 On ch=1 n=g5 v=0
8640 On ch=1 n=d5 v=0
8640 On ch=1 n=c5 v=110
9600 On ch=1 n=c5 v=0
9600 On ch=1 n=d5 v=110
10320 On ch=1 n=d5 v=0
10320 On ch=1 n=e5 v=110
10560 On ch=1 n=e5 v=0
10560 On ch=1 n=f5 v=110
11520 On ch=1 n=f5 v=0
12000 On ch=1 n=a#4 v=90
12000 On ch=1 n=d5 v=90
13440 On ch=1 n=d5 v=0
13440 On ch=1 n=a#4 v=0
13440 On ch=1 n=a4 v=70
13440 On ch=1 n=c#5 v=70
14400 On ch=1 n=c#5 v=0
14400 On ch=1 n=a4 v=0
14400 On ch=1 n=d5 v=70
15360 On ch=1 n=d5 v=0
15360 On ch=1 n=a5 v=80
16320 On ch=1 n=a5 v=0
16320 On ch=1 n=a5 v=90
17280 On ch=1 n=a5 v=0
17280 On ch=1 n=d6 v=100
17280 On ch=1 n=d5 v=100
18240 On ch=1 n=d5 v=0
18240 On ch=1 n=d6 v=0
18240 On ch=1 n=a5 v=100
18240 On ch=1 n=d5 v=110
18240 On ch=1 n=d6 v=110
19200 On ch=1 n=d6 v=0
19200 On ch=1 n=d5 v=0
19200 On ch=1 n=a6 v=120
19200 On ch=1 n=a5 v=120
20160 On ch=1 n=a5 v=0
20160 On ch=1 n=d6 v=120
21120 On ch=1 n=a5 v=0
21120 On ch=1 n=a6 v=0
21120 On ch=1 n=d7 v=127
21120 On ch=1 n=d6 v=127
22080 On ch=1 n=d6 v=0
22080 On ch=1 n=d7 v=0
22080 On ch=1 n=d6 v=0
22080 On ch=1 n=e7 v=127
22080 On ch=1 n=e6 v=127
23520 On ch=1 n=e6 v=0
23520 On ch=1 n=e7 v=0
24480 On ch=1 n=e5 v=70
24480 On ch=1 n=g#5 v=70
24480 On ch=1 n=c6 v=70
24960 On ch=1 n=c6 v=0
24960 On ch=1 n=g#5 v=0
24960 On ch=1 n=e5 v=0
24960 On ch=1 n=c#5 v=60
24960 On ch=1 n=f5 v=60
24960 On ch=1 n=a5 v=60
25440 On ch=1 n=a5 v=0
25440 On ch=1 n=f5 v=0
25440 On ch=1 n=c#5 v=0
25440 On ch=1 n=a#4 v=50
25440 On ch=1 n=d5 v=50
25440 On ch=1 n=f5 v=50
25920 On ch=1 n=f5 v=0
25920 On ch=1 n=d5 v=0
25920 On ch=1 n=a#4 v=0
25920 On ch=1 n=c5 v=50
25920 On ch=1 n=a#4 v=40
27600 On ch=1 n=c5 v=0
27600 On ch=1 n=d5 v=50
27840 On ch=1 n=d5 v=0
27840 On ch=1 n=a#4 v=0
27840 On ch=1 n=d5 v=50
28560 On ch=1 n=d5 v=0
28560 On ch=1 n=g5 v=50
28800 On ch=1 n=g5 v=0
28800 On ch=1 n=c5 v=60
28800 On ch=1 n=a#4 v=50
30480 On ch=1 n=c5 v=0
30480 On ch=1 n=d5 v=60
30720 On ch=1 n=d5 v=0
30720 On ch=1 n=a#4 v=0
30720 On ch=1 n=d5 v=60
31440 On ch=1 n=d5 v=0
31440 On ch=1 n=g5 v=60
31680 On ch=1 n=g5 v=0
31680 On ch=1 n=d5 v=60
31680 On ch=1 n=g5 v=70
32040 On ch=1 n=d5 v=0
32040 On ch=1 n=c5 v=60
32100 On ch=1 n=c5 v=0
32160 On ch=1 n=d5 v=60
32520 On ch=1 n=d5 v=0
32520 On ch=1 n=c5 v=60
32580 On ch=1 n=c5 v=0
32640 On ch=1 n=d5 v=60
33000 On ch=1 n=d5 v=0
33000 On ch=1 n=c5 v=60
33060 On ch=1 n=c5 v=0
33120 On ch=1 n=g5 v=0
33120 On ch=1 n=d5 v=60
33480 On ch=1 n=d5 v=0
33480 On ch=1 n=c5 v=60
33540 On ch=1 n=c5 v=0
33600 On ch=1 n=d5 v=60
33960 On ch=1 n=d5 v=0
33960 On ch=1 n=c5 v=60
34020 On ch=1 n=c5 v=0
34080 On ch=1 n=d5 v=60
34440 On ch=1 n=d5 v=0
34440 On ch=1 n=c5 v=60
34500 On ch=1 n=c5 v=0
34560 On ch=1 n=d5 v=60
34920 On ch=1 n=d5 v=0
34920 On ch=1 n=c5 v=60
34980 On ch=1 n=c5 v=0
35040 On ch=1 n=d5 v=60
35400 On ch=1 n=d5 v=0
35400 On ch=1 n=c5 v=60
35460 On ch=1 n=c5 v=0
35520 On ch=1 n=d5 v=60
35880 On ch=1 n=d5 v=0
35880 On ch=1 n=c5 v=60
35940 On ch=1 n=c5 v=0
36000 On ch=1 n=d5 v=60
36360 On ch=1 n=d5 v=0
36360 On ch=1 n=c5 v=60
36420 On ch=1 n=c5 v=0
40320 On ch=1 n=d5 v=60
40320 On ch=1 n=g5 v=70
40680 On ch=1 n=d5 v=0
40680 On ch=1 n=c5 v=60
40740 On ch=1 n=c5 v=0
40800 On ch=1 n=d5 v=60
41160 On ch=1 n=d5 v=0
41160 On ch=1 n=c5 v=60
41220 On ch=1 n=c5 v=0
41280 On ch=1 n=d5 v=60
41640 On ch=1 n=d5 v=0
41640 On ch=1 n=c5 v=60
41700 On ch=1 n=c5 v=0
41760 On ch=1 n=d5 v=60
42120 On ch=1 n=d5 v=0
42120 On ch=1 n=c5 v=60
42180 On ch=1 n=c5 v=0
42240 On ch=1 n=g5 v=0
42240 On ch=1 n=f5 v=70
43200 On ch=1 n=f5 v=0
43200 On ch=1 n=a#4 v=80
43200 On ch=1 n=c5 v=80
46080 On ch=1 n=c5 v=0
46080 On ch=1 n=a#4 v=0
46080 On ch=1 n=d5 v=60
46080 On ch=1 n=g5 v=70
46440 On ch=1 n=d5 v=0
46440 On ch=1 n=c5 v=60
46500 On ch=1 n=c5 v=0
46560 On ch=1 n=d5 v=60
46920 On ch=1 n=d5 v=0
46920 On ch=1 n=c5 v=60
46980 On ch=1 n=c5 v=0
47040 On ch=1 n=d5 v=60
47400 On ch=1 n=d5 v=0
47400 On ch=1 n=c5 v=60
47460 On ch=1 n=c5 v=0
47520 On ch=1 n=d5 v=60
47880 On ch=1 n=d5 v=0
47880 On ch=1 n=c5 v=60
47940 On ch=1 n=c5 v=0
48000 On ch=1 n=g5 v=0
48000 On ch=1 n=f5 v=60
48960 On ch=1 n=f5 v=0
48960 On ch=1 n=a#4 v=80
48960 On ch=1 n=c5 v=80
51840 On ch=1 n=c5 v=0
51840 On ch=1 n=a#4 v=0
51840 On ch=1 n=d5 v=80
52200 On ch=1 n=d5 v=0
52200 On ch=1 n=c5 v=80
52260 On ch=1 n=c5 v=0
52320 On ch=1 n=d5 v=80
52680 On ch=1 n=d5 v=0
52680 On ch=1 n=e5 v=80
52740 On ch=1 n=e5 v=0
52800 On ch=1 n=d5 v=80
52800 On ch=1 n=f5 v=80
53160 On ch=1 n=f5 v=0
53160 On ch=1 n=d5 v=0
53160 On ch=1 n=c5 v=80
53160 On ch=1 n=e5 v=80
53220 On ch=1 n=e5 v=0
53220 On ch=1 n=c5 v=0
53280 On ch=1 n=d5 v=80
53280 On ch=1 n=f5 v=80
53640 On ch=1 n=f5 v=0
53640 On ch=1 n=d5 v=0
53640 On ch=1 n=g5 v=80
53640 On ch=1 n=e5 v=80
53700 On ch=1 n=e5 v=0
53700 On ch=1 n=g5 v=0
53760 On ch=1 n=f5 v=80
53760 On ch=1 n=a5 v=80
54120 On ch=1 n=a5 v=0
54120 On ch=1 n=f5 v=0
54120 On ch=1 n=e5 v=80
54120 On ch=1 n=g5 v=80
54180 On ch=1 n=g5 v=0
54180 On ch=1 n=e5 v=0
54240 On ch=1 n=f5 v=80
54240 On ch=1 n=a5 v=80
54600 On ch=1 n=a5 v=0
54600 On ch=1 n=f5 v=0
54600 On ch=1 n=b5 v=80
54600 On ch=1 n=g5 v=80
54660 On ch=1 n=g5 v=0
54660 On ch=1 n=b5 v=0
54720 On ch=1 n=a5 v=90
54720 On ch=1 n=c6 v=90
55080 On ch=1 n=c6 v=0
55080 On ch=1 n=a5 v=0
55080 On ch=1 n=g5 v=90
55080 On ch=1 n=b5 v=90
55200 On ch=1 n=b5 v=0
55200 On ch=1 n=g5 v=0
55200 On ch=1 n=f5 v=90
55200 On ch=1 n=a5 v=90
55320 On ch=1 n=a5 v=0
55320 On ch=1 n=f5 v=0
55440 On ch=1 n=c6 v=90
55440 On ch=1 n=a5 v=90
55560 On ch=1 n=a5 v=0
55560 On ch=1 n=c6 v=0
55680 On ch=1 n=f6 v=90
55680 On ch=1 n=d6 v=90
56040 On ch=1 n=d6 v=0
56040 On ch=1 n=f6 v=0
56040 On ch=1 n=c6 v=90
56040 On ch=1 n=e6 v=90
56160 On ch=1 n=e6 v=0
56160 On ch=1 n=c6 v=0
56160 On ch=1 n=b5 v=90
56160 On ch=1 n=d6 v=90
56280 On ch=1 n=d6 v=0
56280 On ch=1 n=b5 v=0
56400 On ch=1 n=f6 v=90
56400 On ch=1 n=d6 v=90
56520 On ch=1 n=d6 v=0
56520 On ch=1 n=f6 v=0
56640 On ch=1 n=a6 v=90
56640 On ch=1 n=f6 v=90
57000 On ch=1 n=f6 v=0
57000 On ch=1 n=a6 v=0
57000 On ch=1 n=e6 v=90
57000 On ch=1 n=g6 v=90
57120 On ch=1 n=g6 v=0
57120 On ch=1 n=e6 v=0
57120 On ch=1 n=d6 v=90
57120 On ch=1 n=f6 v=90
57240 On ch=1 n=f6 v=0
57240 On ch=1 n=d6 v=0
57360 On ch=1 n=a6 v=90
57360 On ch=1 n=f6 v=90
57480 On ch=1 n=f6 v=0
57480 On ch=1 n=a6 v=0
57600 On ch=1 n=c7 v=100
57600 On ch=1 n=g6 v=100
57600 On ch=1 n=e6 v=100
57600 On ch=1 n=c6 v=100
59520 On ch=1 n=c6 v=0
59520 On ch=1 n=e6 v=0
59520 On ch=1 n=g6 v=0
59520 On ch=1 n=c7 v=0
59520 On ch=1 n=a6 v=100
59520 On ch=1 n=e6 v=100
59520 On ch=1 n=c6 v=100
59520 On ch=1 n=a5 v=100
61440 On ch=1 n=a5 v=0
61440 On ch=1 n=c6 v=0
61440 On ch=1 n=e6 v=0
61440 On ch=1 n=a6 v=0
61440 On ch=1 n=g6 v=100
61440 On ch=1 n=d6 v=100
61440 On ch=1 n=b5 v=100
61440 On ch=1 n=g5 v=100
64320 On ch=1 n=g5 v=0
64320 On ch=1 n=b5 v=0
64320 On ch=1 n=d6 v=0
64320 On ch=1 n=g6 v=0
67200 On ch=1 n=c7 v=120
67200 On ch=1 n=g6 v=120
67200 On ch=1 n=e6 v=120
67200 On ch=1 n=c6 v=120
67200 On ch=1 n=g5 v=120
67200 On ch=1 n=e5 v=120
68160 On ch=1 n=e5 v=0
68160 On ch=1 n=g5 v=0
68160 On ch=1 n=c6 v=0
68160 On ch=1 n=e6 v=0
68160 On ch=1 n=g6 v=0
68160 On ch=1 n=c7 v=0
69120 On ch=1 n=a6 v=120
69120 On ch=1 n=e6 v=120
69120 On ch=1 n=c6 v=120
69120 On ch=1 n=a5 v=120
69120 On ch=1 n=c5 v=120
69120 On ch=1 n=e5 v=120
70080 On ch=1 n=e5 v=0
70080 On ch=1 n=c5 v=0
70080 On ch=1 n=a5 v=0
70080 On ch=1 n=c6 v=0
70080 On ch=1 n=e6 v=0
70080 On ch=1 n=a6 v=0
71040 On ch=1 n=g6 v=120
71040 On ch=1 n=d6 v=120
71040 On ch=1 n=b5 v=120
71040 On ch=1 n=g5 v=120
71040 On ch=1 n=b4 v=120
71040 On ch=1 n=d5 v=120
72960 On ch=1 n=d5 v=0
72960 On ch=1 n=b4 v=0
72960 On ch=1 n=g5 v=0
72960 On ch=1 n=b5 v=0
72960 On ch=1 n=d6 v=0
72960 On ch=1 n=g6 v=0
74880 On ch=1 n=e5 v=60
74880 On ch=1 n=a5 v=70
74880 On ch=1 n=f5 v=70
75840 On ch=1 n=e5 v=0
75840 On ch=1 n=d5 v=50
76800 On ch=1 n=d5 v=0
76800 On ch=1 n=f5 v=0
76800 On ch=1 n=a5 v=0
77760 On ch=1 n=d5 v=60
77760 On ch=1 n=d#5 v=70
77760 On ch=1 n=g5 v=70
78720 On ch=1 n=d5 v=0
78720 On ch=1 n=c5 v=50
79680 On ch=1 n=c5 v=0
79680 On ch=1 n=g5 v=0
79680 On ch=1 n=d#5 v=0
80640 On ch=1 n=e5 v=60
80640 On ch=1 n=a5 v=70
80640 On ch=1 n=f5 v=70
81000 On ch=1 n=e5 v=0
81000 On ch=1 n=d5 v=60
81060 On ch=1 n=d5 v=0
81120 On ch=1 n=e5 v=60
81480 On ch=1 n=e5 v=0
81480 On ch=1 n=d5 v=60
81540 On ch=1 n=d5 v=0
81600 On ch=1 n=e5 v=60
81960 On ch=1 n=e5 v=0
81960 On ch=1 n=d5 v=60
82020 On ch=1 n=d5 v=0
82080 On ch=1 n=e5 v=60
82440 On ch=1 n=e5 v=0
82440 On ch=1 n=d5 v=60
82500 On ch=1 n=d5 v=0
82560 On ch=1 n=f5 v=0
82560 On ch=1 n=a5 v=0
82560 On ch=1 n=d6 v=70
82560 On ch=1 n=g5 v=70
82560 On ch=1 n=f5 v=70
82800 On ch=1 n=f5 v=0
82800 On ch=1 n=g5 v=0
82800 On ch=1 n=d6 v=0
83520 On ch=1 n=d5 v=60
83520 On ch=1 n=g5 v=70
83520 On ch=1 n=d#5 v=70
83880 On ch=1 n=d5 v=0
83880 On ch=1 n=c5 v=60
83940 On ch=1 n=c5 v=0
84000 On ch=1 n=d5 v=60
84360 On ch=1 n=d5 v=0
84360 On ch=1 n=c5 v=60
84420 On ch=1 n=c5 v=0
84480 On ch=1 n=d5 v=60
84840 On ch=1 n=d5 v=0
84840 On ch=1 n=c5 v=60
84900 On ch=1 n=c5 v=0
84960 On ch=1 n=d5 v=60
85320 On ch=1 n=d5 v=0
85320 On ch=1 n=c5 v=60
85380 On ch=1 n=c5 v=0
85440 On ch=1 n=d#5 v=0
85440 On ch=1 n=g5 v=0
85440 On ch=1 n=d#5 v=70
85440 On ch=1 n=f5 v=70
85440 On ch=1 n=c6 v=70
85680 On ch=1 n=c6 v=0
85680 On ch=1 n=f5 v=0
85680 On ch=1 n=d#5 v=0
86400 On ch=1 n=a#4 v=50
86400 On ch=1 n=d5 v=50
88320 On ch=1 n=d5 v=0
88320 On ch=1 n=a#4 v=0
88320 On ch=1 n=c5 v=50
88320 On ch=1 n=e5 v=50
89280 On ch=1 n=e5 v=0
89280 On ch=1 n=c5 v=0
89280 On ch=1 n=a#4 v=60
89280 On ch=1 n=d5 v=60
90240 On ch=1 n=d5 v=0
90240 On ch=1 n=a#4 v=0
90240 On ch=1 n=c5 v=60
90240 On ch=1 n=e5 v=60
91200 On ch=1 n=e5 v=0
91200 On ch=1 n=c5 v=0
91200 On ch=1 n=d5 v=60
91200 On ch=1 n=f5 v=60
92160 On ch=1 n=f5 v=0
92160 On ch=1 n=d5 v=0
92160 On ch=1 n=g5 v=70
92160 On ch=1 n=d#5 v=70
94080 On ch=1 n=d#5 v=0
94080 On ch=1 n=g5 v=0
94080 On ch=1 n=a5 v=70
94080 On ch=1 n=f5 v=70
95040 On ch=1 n=f5 v=0
95040 On ch=1 n=a5 v=0
95040 On ch=1 n=g5 v=80
95040 On ch=1 n=d#5 v=80
96000 On ch=1 n=d#5 v=0
96000 On ch=1 n=g5 v=0
96000 On ch=1 n=a5 v=80
96000 On ch=1 n=f5 v=80
96960 On ch=1 n=f5 v=0
96960 On ch=1 n=a5 v=0
96960 On ch=1 n=a#5 v=80
96960 On ch=1 n=g5 v=80
97920 On ch=1 n=g5 v=0
97920 On ch=1 n=a#5 v=0
97920 On ch=1 n=g#5 v=60
97920 On ch=1 n=c6 v=60
98280 On ch=1 n=c6 v=0
98280 On ch=1 n=g#5 v=0
98280 On ch=1 n=b5 v=60
98280 On ch=1 n=g5 v=60
98340 On ch=1 n=g5 v=0
98340 On ch=1 n=b5 v=0
98400 On ch=1 n=d6 v=60
98400 On ch=1 n=a#5 v=60
98760 On ch=1 n=a#5 v=0
98760 On ch=1 n=d6 v=0
98760 On ch=1 n=c6 v=60
98760 On ch=1 n=g#5 v=60
98820 On ch=1 n=g#5 v=0
98820 On ch=1 n=c6 v=0
98880 On ch=1 n=g#5 v=60
98880 On ch=1 n=c6 v=60
99240 On ch=1 n=c6 v=0
99240 On ch=1 n=g#5 v=0
99240 On ch=1 n=g5 v=60
99240 On ch=1 n=b5 v=60
99300 On ch=1 n=b5 v=0
99300 On ch=1 n=g5 v=0
99360 On ch=1 n=d6 v=60
99360 On ch=1 n=a#5 v=60
99720 On ch=1 n=a#5 v=0
99720 On ch=1 n=d6 v=0
99720 On ch=1 n=c6 v=60
99720 On ch=1 n=g#5 v=60
99780 On ch=1 n=g#5 v=0
99780 On ch=1 n=c6 v=0
99840 On ch=1 n=e6 v=70
99840 On ch=1 n=c6 v=70
100200 On ch=1 n=c6 v=0
100200 On ch=1 n=e6 v=0
100200 On ch=1 n=b5 v=70
100200 On ch=1 n=d#6 v=70
100260 On ch=1 n=d#6 v=0
100260 On ch=1 n=b5 v=0
100320 On ch=1 n=f6 v=70
100320 On ch=1 n=c#6 v=70
100680 On ch=1 n=c#6 v=0
100680 On ch=1 n=f6 v=0
100680 On ch=1 n=c6 v=70
100680 On ch=1 n=e6 v=70
100740 On ch=1 n=e6 v=0
100740 On ch=1 n=c6 v=0
100800 On ch=1 n=g6 v=70
100800 On ch=1 n=d#6 v=70
101160 On ch=1 n=d#6 v=0
101160 On ch=1 n=g6 v=0
101160 On ch=1 n=d6 v=70
101160 On ch=1 n=f#6 v=70
101220 On ch=1 n=f#6 v=0
101220 On ch=1 n=d6 v=0
101280 On ch=1 n=a6 v=70
101280 On ch=1 n=f6 v=70
101640 On ch=1 n=f6 v=0
101640 On ch=1 n=a6 v=0
101640 On ch=1 n=g#6 v=70
101640 On ch=1 n=e6 v=70
101700 On ch=1 n=e6 v=0
101700 On ch=1 n=g#6 v=0
101760 On ch=1 n=a#6 v=70
101760 On ch=1 n=f#6 v=80
102120 On ch=1 n=f#6 v=0
102120 On ch=1 n=a#6 v=0
102120 On ch=1 n=a6 v=80
102120 On ch=1 n=f6 v=80
102180 On ch=1 n=f6 v=0
102180 On ch=1 n=a6 v=0
102240 On ch=1 n=c7 v=80
102240 On ch=1 n=g#6 v=80
102600 On ch=1 n=g#6 v=0
102600 On ch=1 n=c7 v=0
102600 On ch=1 n=b6 v=80
102600 On ch=1 n=g6 v=80
102660 On ch=1 n=g6 v=0
102660 On ch=1 n=b6 v=0
102720 On ch=1 n=d7 v=90
102720 On ch=1 n=a#6 v=90
103080 On ch=1 n=a#6 v=0
103080 On ch=1 n=d7 v=0
103080 On ch=1 n=c#7 v=90
103080 On ch=1 n=a6 v=90
103140 On ch=1 n=a6 v=0
103140 On ch=1 n=c#7 v=0
103200 On ch=1 n=e7 v=90
103200 On ch=1 n=c7 v=90
103560 On ch=1 n=c7 v=0
103560 On ch=1 n=e7 v=0
103560 On ch=1 n=d#7 v=90
103560 On ch=1 n=b6 v=90
103620 On ch=1 n=b6 v=0
103620 On ch=1 n=d#7 v=0
103680 On ch=1 n=f7 v=100
103680 On ch=1 n=c#7 v=100
104040 On ch=1 n=c#7 v=0
104040 On ch=1 n=f7 v=0
104040 On ch=1 n=e7 v=100
104040 On ch=1 n=c7 v=100
104100 On ch=1 n=c7 v=0
104100 On ch=1 n=e7 v=0
104160 On ch=1 n=f7 v=100
104160 On ch=1 n=c#7 v=100
104520 On ch=1 n=c#7 v=0
104520 On ch=1 n=f7 v=0
104520 On ch=1 n=e7 v=100
104520 On ch=1 n=c7 v=100
104580 On ch=1 n=c7 v=0
104580 On ch=1 n=e7 v=0
104640 On ch=1 n=f7 v=100
104640 On ch=1 n=c#7 v=100
105000 On ch=1 n=c#7 v=0
105000 On ch=1 n=f7 v=0
105000 On ch=1 n=e7 v=100
105000 On ch=1 n=c7 v=100
105060 On ch=1 n=c7 v=0
105060 On ch=1 n=e7 v=0
105120 On ch=1 n=f7 v=100
105120 On ch=1 n=c#7 v=100
105480 On ch=1 n=c#7 v=0
105480 On ch=1 n=f7 v=0
105480 On ch=1 n=e7 v=100
105480 On ch=1 n=c7 v=100
105540 On ch=1 n=c7 v=0
105540 On ch=1 n=e7 v=0
105600 On ch=1 n=f7 v=100
105600 On ch=1 n=c#7 v=100
105960 On ch=1 n=c#7 v=0
105960 On ch=1 n=f7 v=0
105960 On ch=1 n=e7 v=100
105960 On ch=1 n=c7 v=100
106020 On ch=1 n=c7 v=0
106020 On ch=1 n=e7 v=0
106080 On ch=1 n=f7 v=100
106080 On ch=1 n=c#7 v=100
106440 On ch=1 n=c#7 v=0
106440 On ch=1 n=f7 v=0
106440 On ch=1 n=e7 v=100
106440 On ch=1 n=c7 v=100
106500 On ch=1 n=c7 v=0
106500 On ch=1 n=e7 v=0
106560 On ch=1 n=f7 v=100
106560 On ch=1 n=d7 v=100
106920 On ch=1 n=d7 v=0
106920 On ch=1 n=f7 v=0
106920 On ch=1 n=e7 v=100
106920 On ch=1 n=c#7 v=100
106980 On ch=1 n=c#7 v=0
106980 On ch=1 n=e7 v=0
107040 On ch=1 n=f7 v=100
107040 On ch=1 n=d7 v=100
107400 On ch=1 n=d7 v=0
107400 On ch=1 n=f7 v=0
107400 On ch=1 n=e7 v=100
107400 On ch=1 n=c#7 v=100
107460 On ch=1 n=c#7 v=0
107460 On ch=1 n=e7 v=0
107520 On ch=1 n=f7 v=105
107520 On ch=1 n=d7 v=105
107880 On ch=1 n=d7 v=0
107880 On ch=1 n=f7 v=0
107880 On ch=1 n=e7 v=105
107880 On ch=1 n=c#7 v=105
107940 On ch=1 n=c#7 v=0
107940 On ch=1 n=e7 v=0
108000 On ch=1 n=f7 v=105
108000 On ch=1 n=d7 v=105
108360 On ch=1 n=d7 v=0
108360 On ch=1 n=f7 v=0
108360 On ch=1 n=e7 v=105
108360 On ch=1 n=c#7 v=105
108420 On ch=1 n=c#7 v=0
108420 On ch=1 n=e7 v=0
108480 On ch=1 n=f7 v=105
108480 On ch=1 n=d7 v=105
108840 On ch=1 n=d7 v=0
108840 On ch=1 n=f7 v=0
108840 On ch=1 n=e7 v=105
108840 On ch=1 n=c#7 v=105
108900 On ch=1 n=c#7 v=0
108900 On ch=1 n=e7 v=0
108960 On ch=1 n=f7 v=105
108960 On ch=1 n=d7 v=105
109320 On ch=1 n=d7 v=0
109320 On ch=1 n=f7 v=0
109320 On ch=1 n=e7 v=105
109320 On ch=1 n=c#7 v=105
109380 On ch=1 n=c#7 v=0
109380 On ch=1 n=e7 v=0
109440 On ch=1 n=f7 v=110
109440 On ch=1 n=c#7 v=110
109800 On ch=1 n=c#7 v=0
109800 On ch=1 n=f7 v=0
109800 On ch=1 n=e7 v=110
109800 On ch=1 n=c7 v=110
109860 On ch=1 n=c7 v=0
109860 On ch=1 n=e7 v=0
109920 On ch=1 n=f7 v=110
109920 On ch=1 n=c#7 v=110
110280 On ch=1 n=c#7 v=0
110280 On ch=1 n=f7 v=0
110280 On ch=1 n=e7 v=110
110280 On ch=1 n=c7 v=110
110340 On ch=1 n=c7 v=0
110340 On ch=1 n=e7 v=0
110400 On ch=1 n=f7 v=110
110400 On ch=1 n=c#7 v=110
110760 On ch=1 n=c#7 v=0
110760 On ch=1 n=f7 v=0
110760 On ch=1 n=e7 v=110
110760 On ch=1 n=c7 v=110
110820 On ch=1 n=c7 v=0
110820 On ch=1 n=e7 v=0
110880 On ch=1 n=f7 v=110
110880 On ch=1 n=c#7 v=110
111240 On ch=1 n=c#7 v=0
111240 On ch=1 n=f7 v=0
111240 On ch=1 n=e7 v=110
111240 On ch=1 n=c7 v=110
111300 On ch=1 n=c7 v=0
111300 On ch=1 n=e7 v=0
111360 On ch=1 n=f7 v=110
111360 On ch=1 n=c#7 v=110
111720 On ch=1 n=c#7 v=0
111720 On ch=1 n=f7 v=0
111720 On ch=1 n=e7 v=110
111720 On ch=1 n=c7 v=110
111780 On ch=1 n=c7 v=0
111780 On ch=1 n=e7 v=0
111840 On ch=1 n=f7 v=110
111840 On ch=1 n=c#7 v=110
112200 On ch=1 n=c#7 v=0
112200 On ch=1 n=f7 v=0
112200 On ch=1 n=e7 v=110
112200 On ch=1 n=c7 v=110
112260 On ch=1 n=c7 v=0
112260 On ch=1 n=e7 v=0
112320 On ch=1 n=f7 v=115
112320 On ch=1 n=d7 v=115
112680 On ch=1 n=d7 v=0
112680 On ch=1 n=f7 v=0
112680 On ch=1 n=e7 v=115
112680 On ch=1 n=c#7 v=115
112740 On ch=1 n=c#7 v=0
112740 On ch=1 n=e7 v=0
112800 On ch=1 n=f7 v=115
112800 On ch=1 n=d7 v=115
113160 On ch=1 n=d7 v=0
113160 On ch=1 n=f7 v=0
113160 On ch=1 n=e7 v=115
113160 On ch=1 n=c#7 v=115
113220 On ch=1 n=c#7 v=0
113220 On ch=1 n=e7 v=0
113280 On ch=1 n=f7 v=120
113280 On ch=1 n=d7 v=120
113640 On ch=1 n=d7 v=0
113640 On ch=1 n=f7 v=0
113640 On ch=1 n=e7 v=120
113640 On ch=1 n=c#7 v=120
113700 On ch=1 n=c#7 v=0
113700 On ch=1 n=e7 v=0
113760 On ch=1 n=f7 v=120
113760 On ch=1 n=d7 v=120
114120 On ch=1 n=d7 v=0
114120 On ch=1 n=f7 v=0
114120 On ch=1 n=e7 v=120
114120 On ch=1 n=c#7 v=120
114180 On ch=1 n=c#7 v=0
114180 On ch=1 n=e7 v=0
114240 On ch=1 n=f7 v=125
114240 On ch=1 n=d7 v=125
114600 On ch=1 n=d7 v=0
114600 On ch=1 n=f7 v=0
114600 On ch=1 n=e7 v=125
114600 On ch=1 n=c#7 v=125
114660 On ch=1 n=c#7 v=0
114660 On ch=1 n=e7 v=0
114720 On ch=1 n=f7 v=125
114720 On ch=1 n=d7 v=125
115080 On ch=1 n=d7 v=0
115080 On ch=1 n=f7 v=0
115080 On ch=1 n=f#7 v=125
115080 On ch=1 n=d#7 v=125
115140 On ch=1 n=d#7 v=0
115140 On ch=1 n=f#7 v=0
116640 On ch=1 n=e5 v=70
116640 On ch=1 n=g#5 v=70
116640 On ch=1 n=c6 v=70
117120 On ch=1 n=c6 v=0
117120 On ch=1 n=g#5 v=0
117120 On ch=1 n=e5 v=0
117120 On ch=1 n=c#5 v=70
117120 On ch=1 n=f5 v=70
117120 On ch=1 n=a5 v=70
117600 On ch=1 n=a5 v=0
117600 On ch=1 n=f5 v=0
117600 On ch=1 n=c#5 v=0
117600 On ch=1 n=a#4 v=70
117600 On ch=1 n=d5 v=70
117600 On ch=1 n=f5 v=70
118080 On ch=1 n=f5 v=0
118080 On ch=1 n=d5 v=0
118080 On ch=1 n=a#4 v=0
118080 On ch=1 n=c5 v=60
118080 On ch=1 n=a#4 v=50
119760 On ch=1 n=c5 v=0
119760 On ch=1 n=d5 v=60
120000 On ch=1 n=d5 v=0
120000 On ch=1 n=a#4 v=0
120000 On ch=1 n=d5 v=60
120720 On ch=1 n=d5 v=0
120720 On ch=1 n=g5 v=60
120960 On ch=1 n=g5 v=0
120960 On ch=1 n=c5 v=60
120960 On ch=1 n=a#4 v=50
122640 On ch=1 n=c5 v=0
122640 On ch=1 n=d5 v=60
122880 On ch=1 n=d5 v=0
122880 On ch=1 n=a#4 v=0
122880 On ch=1 n=d5 v=60
123600 On ch=1 n=d5 v=0
123600 On ch=1 n=g5 v=60
123840 On ch=1 n=g5 v=0
124800 On ch=1 n=a6 v=40
124960 On ch=1 n=a6 v=0
124960 On ch=1 n=d7 v=40
125120 On ch=1 n=d7 v=0
125120 On ch=1 n=a6 v=40
125280 On ch=1 n=a6 v=0
125280 On ch=1 n=f#7 v=40
125440 On ch=1 n=f#7 v=0
125600 On ch=1 n=e7 v=40
125760 On ch=1 n=e7 v=0
125760 On ch=1 n=d7 v=40
125920 On ch=1 n=d7 v=0
126080 On ch=1 n=b6 v=40
126240 On ch=1 n=b6 v=0
126240 On ch=1 n=a6 v=40
126400 On ch=1 n=a6 v=0
126560 On ch=1 n=f#6 v=40
126720 On ch=1 n=f#6 v=0
126720 On ch=1 n=d6 v=40
126880 On ch=1 n=d6 v=0
126880 On ch=1 n=e6 v=40
127040 On ch=1 n=e6 v=0
127040 On ch=1 n=f6 v=40
127200 On ch=1 n=f6 v=0
127200 On ch=1 n=e6 v=40
127360 On ch=1 n=e6 v=0
127520 On ch=1 n=d6 v=40
127680 On ch=1 n=d6 v=0
127680 On ch=1 n=b5 v=40
127840 On ch=1 n=b5 v=0
128000 On ch=1 n=a5 v=40
128160 On ch=1 n=a5 v=0
128160 On ch=1 n=b5 v=40
128320 On ch=1 n=b5 v=0
128480 On ch=1 n=d6 v=40
128640 On ch=1 n=d6 v=0
128640 On ch=1 n=d6 v=40
128800 On ch=1 n=d6 v=0
128800 On ch=1 n=a6 v=40
128960 On ch=1 n=a6 v=0
128960 On ch=1 n=f#6 v=40
129120 On ch=1 n=f#6 v=0
129120 On ch=1 n=e6 v=40
129280 On ch=1 n=e6 v=0
129440 On ch=1 n=d6 v=40
129600 On ch=1 n=d6 v=0
129600 On ch=1 n=b5 v=40
129760 On ch=1 n=b5 v=0
129920 On ch=1 n=a5 v=40
130080 On ch=1 n=a5 v=0
130080 On ch=1 n=b5 v=40
130240 On ch=1 n=b5 v=0
130400 On ch=1 n=d6 v=40
130560 On ch=1 n=d6 v=0
130720 On ch=1 n=a5 v=40
130880 On ch=1 n=a5 v=0
130880 On ch=1 n=f#5 v=40
131040 On ch=1 n=f#5 v=0
131040 On ch=1 n=e5 v=40
131200 On ch=1 n=e5 v=0
131360 On ch=1 n=d5 v=40
131440 On ch=1 n=d5 v=0
137760 On ch=1 n=c5 v=90
138240 On ch=1 n=c5 v=0
138240 On ch=1 n=d5 v=90
138960 On ch=1 n=d5 v=0
138960 On ch=1 n=g5 v=90
139200 On ch=1 n=g5 v=0
139200 On ch=1 n=d5 v=100
139200 On ch=1 n=g5 v=110
139920 On ch=1 n=d5 v=0
139920 On ch=1 n=c5 v=100
140160 On ch=1 n=c5 v=0
140160 On ch=1 n=d5 v=100
140880 On ch=1 n=d5 v=0
140880 On ch=1 n=c5 v=100
141120 On ch=1 n=c5 v=0
141120 On ch=1 n=d5 v=100
141840 On ch=1 n=d5 v=0
141840 On ch=1 n=c5 v=100
142080 On ch=1 n=c5 v=0
142080 On ch=1 n=d5 v=100
142800 On ch=1 n=d5 v=0
142800 On ch=1 n=c5 v=100
143040 On ch=1 n=c5 v=0
143040 On ch=1 n=g5 v=0
143040 On ch=1 n=c5 v=100
144960 On ch=1 n=c5 v=0
152640 On ch=1 n=f6 v=120
152640 On ch=1 n=c6 v=120
152640 On ch=1 n=a5 v=120
152640 On ch=1 n=f5 v=120
153600 On ch=1 n=f6 v=0
153600 On ch=1 n=f7 v=60
153600 On ch=1 n=c7 v=60
153600 On ch=1 n=a6 v=60
153600 On ch=1 n=f6 v=60
156480 On ch=1 n=f6 v=0
156480 On ch=1 n=a6 v=0
156480 On ch=1 n=c7 v=0
156480 On ch=1 n=f7 v=0
156480 On ch=1 n=f5 v=0
156480 On ch=1 n=a5 v=0
156480 On ch=1 n=c6 v=0
156480 Meta TrkEnd
TrkEnd
MTrk
0 SeqSpec 43 00 01 00
0 Meta TrkName "Middle Tre"
