MFile 1 11 480
MTrk
0 TimeSig 3/4 24 8
0 KeySig 4 major
0 Tempo 1200000
5760 TimeSig 2/4 24 8
6720 TimeSig 3/4 24 8
15360 TimeSig 2/4 24 8
18240 TimeSig 3/4 24 8
22560 TimeSig 2/4 24 8
35040 Tempo 1500000
43680 Tempo 1621622
44160 Tempo 1764706
44640 TimeSig 3/4 24 8
44640 Tempo 1200000
50400 TimeSig 2/4 24 8
52320 TimeSig 3/4 24 8
52320 Meta TrkEnd
TrkEnd
MTrk
0 SeqSpec 43 00 01 00
0 Meta TrkName "Right Treble"
0 Meta 0x21 00
0 On ch=1 n=e5 v=40
0 On ch=1 n=a#5 v=40
0 On ch=1 n=c#6 v=40
0 On ch=1 n=f#6 v=40
1440 On ch=1 n=f#6 v=0
1440 On ch=1 n=c#6 v=0
1440 On ch=1 n=a#5 v=0
1440 On ch=1 n=e5 v=0
1440 On ch=1 n=d5 v=40
1440 On ch=1 n=e6 v=40
1440 On ch=1 n=g#5 v=40
1440 On ch=1 n=b5 v=40
2160 On ch=1 n=e6 v=0
2160 On ch=1 n=d5 v=0
2160 On ch=1 n=c#5 v=40
2160 On ch=1 n=c#6 v=40
2400 On ch=1 n=c#6 v=0
2400 On ch=1 n=c#5 v=0
2400 On ch=1 n=d6 v=40
2400 On ch=1 n=d5 v=40
2640 On ch=1 n=d5 v=0
2640 On ch=1 n=d6 v=0
2640 On ch=1 n=b5 v=40
2640 On ch=1 n=b6 v=40
2880 On ch=1 n=b6 v=0
2880 On ch=1 n=b5 v=0
2880 On ch=1 n=b5 v=0
2880 On ch=1 n=g#5 v=0
2880 On ch=1 n=e5 v=40
2880 On ch=1 n=a#5 v=40
2880 On ch=1 n=c#6 v=40
2880 On ch=1 n=f#6 v=40
3840 On ch=1 n=f#6 v=0
3840 On ch=1 n=c#6 v=40
4320 On ch=1 n=c#6 v=0
4320 On ch=1 n=a#5 v=0
4320 On ch=1 n=e5 v=0
4560 On ch=1 n=c#6 v=0
4560 On ch=1 n=a#5 v=40
4800 On ch=1 n=a#5 v=0
4800 On ch=1 n=g5 v=40
4920 On ch=1 n=g5 v=0
4920 On ch=1 n=g#5 v=40
5040 On ch=1 n=g#5 v=0
5040 On ch=1 n=a5 v=40
5280 On ch=1 n=a5 v=0
5280 On ch=1 n=f5 v=40
5520 On ch=1 n=f5 v=0
5520 On ch=1 n=c#5 v=40
5760 On ch=1 n=c#5 v=0
5760 On ch=1 n=d5 v=40
5880 On ch=1 n=d5 v=0
5880 On ch=1 n=d#5 v=40
6000 On ch=1 n=d#5 v=0
6000 On ch=1 n=e5 v=40
6240 On ch=1 n=e5 v=0
6240 On ch=1 n=c5 v=40
6480 On ch=1 n=c5 v=0
6480 On ch=1 n=a4 v=40
6720 On ch=1 n=a4 v=0
15600 On ch=1 n=b6 v=40
15720 On ch=1 n=b6 v=0
15840 On ch=1 n=e6 v=40
15960 On ch=1 n=e6 v=0
16080 On ch=1 n=b5 v=40
16200 On ch=1 n=b5 v=0
16560 On ch=1 n=b6 v=40
16680 On ch=1 n=b6 v=0
16800 On ch=1 n=e6 v=40
16920 On ch=1 n=e6 v=0
17040 On ch=1 n=b5 v=40
17160 On ch=1 n=b5 v=0
17520 On ch=1 n=b6 v=40
17640 On ch=1 n=b6 v=0
17760 On ch=1 n=e6 v=40
17880 On ch=1 n=e6 v=0
18000 On ch=1 n=b5 v=40
18120 On ch=1 n=b5 v=0
18240 On ch=1 n=e5 v=40
18240 On ch=1 n=f4 v=40
18240 On ch=1 n=b4 v=40
18960 On ch=1 n=e5 v=0
18960 On ch=1 n=c#5 v=40
19200 On ch=1 n=c#5 v=0
19200 On ch=1 n=d5 v=40
19440 On ch=1 n=d5 v=0
19440 On ch=1 n=b5 v=40
19680 On ch=1 n=b5 v=0
19680 On ch=1 n=b4 v=0
19680 On ch=1 n=f4 v=0
19680 On ch=1 n=f#5 v=40
19680 On ch=1 n=g4 v=40
19680 On ch=1 n=a#4 v=40
19680 On ch=1 n=c#5 v=40
20640 On ch=1 n=f#5 v=0
20640 On ch=1 n=c#5 v=40
21120 On ch=1 n=c#5 v=0
21120 On ch=1 n=c#5 v=0
21120 On ch=1 n=a#4 v=0
21120 On ch=1 n=g4 v=0
27840 On ch=1 n=g#5 v=60
27840 On ch=1 n=f#4 v=60
27840 On ch=1 n=c5 v=60
27840 On ch=1 n=e5 v=60
28200 On ch=1 n=g#5 v=0
28200 On ch=1 n=a#5 v=70
28320 On ch=1 n=a#5 v=0
28320 On ch=1 n=e5 v=0
28320 On ch=1 n=c5 v=0
28320 On ch=1 n=f#4 v=0
28320 On ch=1 n=a#5 v=60
28320 On ch=1 n=g#4 v=60
28320 On ch=1 n=d5 v=60
28320 On ch=1 n=f#5 v=60
28680 On ch=1 n=a#5 v=0
28680 On ch=1 n=c6 v=70
28800 On ch=1 n=c6 v=0
28800 On ch=1 n=f#5 v=0
28800 On ch=1 n=d5 v=0
28800 On ch=1 n=g#4 v=0
28800 On ch=1 n=c6 v=60
28800 On ch=1 n=a#4 v=60
28800 On ch=1 n=e5 v=60
28800 On ch=1 n=g#5 v=60
29160 On ch=1 n=c6 v=0
29160 On ch=1 n=c#6 v=70
29280 On ch=1 n=c#6 v=0
29280 On ch=1 n=g#5 v=0
29280 On ch=1 n=e5 v=0
29280 On ch=1 n=a#4 v=0
29280 On ch=1 n=a6 v=30
29280 On ch=1 n=e6 v=30
29280 On ch=1 n=c#6 v=30
29280 On ch=1 n=a5 v=30
29400 On ch=1 n=a5 v=0
29400 On ch=1 n=c#6 v=0
29400 On ch=1 n=e6 v=0
29400 On ch=1 n=a6 v=0
29520 On ch=1 n=d#7 v=30
29520 On ch=1 n=a#6 v=30
29520 On ch=1 n=g6 v=30
29520 On ch=1 n=d#6 v=30
29640 On ch=1 n=d#6 v=0
29640 On ch=1 n=g6 v=0
29640 On ch=1 n=a#6 v=0
29640 On ch=1 n=d#7 v=0
29760 On ch=1 n=f#7 v=30
29760 On ch=1 n=c#7 v=30
29760 On ch=1 n=a#6 v=30
29760 On ch=1 n=f#6 v=30
29880 On ch=1 n=f#6 v=0
29880 On ch=1 n=a#6 v=0
29880 On ch=1 n=c#7 v=0
29880 On ch=1 n=f#7 v=0
30000 On ch=1 n=c7 v=30
30000 On ch=1 n=g6 v=30
30000 On ch=1 n=e6 v=30
30000 On ch=1 n=c6 v=30
30120 On ch=1 n=c6 v=0
30120 On ch=1 n=e6 v=0
30120 On ch=1 n=g6 v=0
30120 On ch=1 n=c7 v=0
30240 On ch=1 n=a6 v=30
30240 On ch=1 n=e6 v=30
30240 On ch=1 n=c#6 v=30
30240 On ch=1 n=a5 v=30
30360 On ch=1 n=a5 v=0
30360 On ch=1 n=c#6 v=0
30360 On ch=1 n=e6 v=0
30360 On ch=1 n=a6 v=0
30480 On ch=1 n=d#7 v=30
30480 On ch=1 n=a#6 v=30
30480 On ch=1 n=g6 v=30
30480 On ch=1 n=d#6 v=30
30600 On ch=1 n=d#6 v=0
30600 On ch=1 n=g6 v=0
30600 On ch=1 n=a#6 v=0
30600 On ch=1 n=d#7 v=0
30720 On ch=1 n=f#7 v=30
30720 On ch=1 n=c#7 v=30
30720 On ch=1 n=a#6 v=30
30720 On ch=1 n=f#6 v=30
30840 On ch=1 n=f#6 v=0
30840 On ch=1 n=a#6 v=0
30840 On ch=1 n=c#7 v=0
30840 On ch=1 n=f#7 v=0
30960 On ch=1 n=c7 v=30
30960 On ch=1 n=g6 v=30
30960 On ch=1 n=e6 v=30
30960 On ch=1 n=c6 v=30
31080 On ch=1 n=c6 v=0
31080 On ch=1 n=e6 v=0
31080 On ch=1 n=g6 v=0
31080 On ch=1 n=c7 v=0
31200 On ch=1 n=a6 v=30
31200 On ch=1 n=e6 v=30
31200 On ch=1 n=c#6 v=30
31200 On ch=1 n=a5 v=30
31320 On ch=1 n=a5 v=0
31320 On ch=1 n=c#6 v=0
31320 On ch=1 n=e6 v=0
31320 On ch=1 n=a6 v=0
31440 On ch=1 n=d#7 v=30
31440 On ch=1 n=a#6 v=30
31440 On ch=1 n=g6 v=30
31440 On ch=1 n=d#6 v=30
31560 On ch=1 n=d#6 v=0
31560 On ch=1 n=g6 v=0
31560 On ch=1 n=a#6 v=0
31560 On ch=1 n=d#7 v=0
31680 On ch=1 n=f#7 v=30
31680 On ch=1 n=c#7 v=30
31680 On ch=1 n=a#6 v=30
31680 On ch=1 n=f#6 v=30
31800 On ch=1 n=f#6 v=0
31800 On ch=1 n=a#6 v=0
31800 On ch=1 n=c#7 v=0
31800 On ch=1 n=f#7 v=0
31920 On ch=1 n=c7 v=30
31920 On ch=1 n=g6 v=30
31920 On ch=1 n=e6 v=30
31920 On ch=1 n=c6 v=30
32040 On ch=1 n=c6 v=0
32040 On ch=1 n=e6 v=0
32040 On ch=1 n=g6 v=0
32040 On ch=1 n=c7 v=0
32160 On ch=1 n=a6 v=30
32160 On ch=1 n=e6 v=30
32160 On ch=1 n=c#6 v=30
32160 On ch=1 n=a5 v=30
32280 On ch=1 n=a5 v=0
32280 On ch=1 n=c#6 v=0
32280 On ch=1 n=e6 v=0
32280 On ch=1 n=a6 v=0
32400 On ch=1 n=d#7 v=30
32400 On ch=1 n=a#6 v=30
32400 On ch=1 n=g6 v=30
32400 On ch=1 n=d#6 v=30
32520 On ch=1 n=d#6 v=0
32520 On ch=1 n=g6 v=0
32520 On ch=1 n=a#6 v=0
32520 On ch=1 n=d#7 v=0
32640 On ch=1 n=f#7 v=30
32640 On ch=1 n=c#7 v=30
32640 On ch=1 n=a#6 v=30
32640 On ch=1 n=f#6 v=30
32760 On ch=1 n=f#6 v=0
32760 On ch=1 n=a#6 v=0
32760 On ch=1 n=c#7 v=0
32760 On ch=1 n=f#7 v=0
32880 On ch=1 n=c7 v=30
32880 On ch=1 n=g6 v=30
32880 On ch=1 n=e6 v=30
32880 On ch=1 n=c6 v=30
33000 On ch=1 n=c6 v=0
33000 On ch=1 n=e6 v=0
33000 On ch=1 n=g6 v=0
33000 On ch=1 n=c7 v=0
33120 On ch=1 n=d#7 v=30
33120 On ch=1 n=a#6 v=30
33120 On ch=1 n=g6 v=30
33120 On ch=1 n=d#6 v=30
33240 On ch=1 n=d#6 v=0
33240 On ch=1 n=g6 v=0
33240 On ch=1 n=a#6 v=0
33240 On ch=1 n=d#7 v=0
33360 On ch=1 n=c7 v=30
33360 On ch=1 n=g6 v=30
33360 On ch=1 n=e6 v=30
33360 On ch=1 n=c6 v=30
33480 On ch=1 n=c6 v=0
33480 On ch=1 n=e6 v=0
33480 On ch=1 n=g6 v=0
33480 On ch=1 n=c7 v=0
33600 On ch=1 n=d#7 v=30
33600 On ch=1 n=a#6 v=30
33600 On ch=1 n=g6 v=30
33600 On ch=1 n=d#6 v=30
33720 On ch=1 n=d#6 v=0
33720 On ch=1 n=g6 v=0
33720 On ch=1 n=a#6 v=0
33720 On ch=1 n=d#7 v=0
33840 On ch=1 n=c7 v=30
33840 On ch=1 n=g6 v=30
33840 On ch=1 n=e6 v=30
33840 On ch=1 n=c6 v=30
33960 On ch=1 n=c6 v=0
33960 On ch=1 n=e6 v=0
33960 On ch=1 n=g6 v=0
33960 On ch=1 n=c7 v=0
34080 On ch=1 n=d#7 v=30
34080 On ch=1 n=a#6 v=30
34080 On ch=1 n=g6 v=30
34080 On ch=1 n=d#6 v=30
34200 On ch=1 n=d#6 v=0
34200 On ch=1 n=g6 v=0
34200 On ch=1 n=a#6 v=0
34200 On ch=1 n=d#7 v=0
34320 On ch=1 n=c7 v=30
34320 On ch=1 n=g6 v=30
34320 On ch=1 n=e6 v=30
34320 On ch=1 n=c6 v=30
34440 On ch=1 n=c6 v=0
34440 On ch=1 n=e6 v=0
34440 On ch=1 n=g6 v=0
34440 On ch=1 n=c7 v=0
34560 On ch=1 n=d#7 v=30
34560 On ch=1 n=a#6 v=30
34560 On ch=1 n=g6 v=30
34560 On ch=1 n=d#6 v=30
34680 On ch=1 n=d#6 v=0
34680 On ch=1 n=g6 v=0
34680 On ch=1 n=a#6 v=0
34680 On ch=1 n=d#7 v=0
34800 On ch=1 n=c7 v=30
34800 On ch=1 n=g6 v=30
34800 On ch=1 n=e6 v=30
34800 On ch=1 n=c6 v=30
34920 On ch=1 n=c6 v=0
34920 On ch=1 n=e6 v=0
34920 On ch=1 n=g6 v=0
34920 On ch=1 n=c7 v=0
35520 On ch=1 n=c#8 v=30
35520 On ch=1 n=a#7 v=30
35520 On ch=1 n=f#7 v=30
35520 On ch=1 n=c#7 v=30
36240 On ch=1 n=c#7 v=0
36240 On ch=1 n=f#7 v=0
36240 On ch=1 n=a#7 v=0
36240 On ch=1 n=c#8 v=0
36360 On ch=1 n=a5 v=70
36360 On ch=1 n=c6 v=70
36360 On ch=1 n=e6 v=70
36400 On ch=1 n=e6 v=0
36400 On ch=1 n=c6 v=0
36400 On ch=1 n=a5 v=0
36440 On ch=1 n=a5 v=70
36440 On ch=1 n=e6 v=70
36440 On ch=1 n=c6 v=70
36480 On ch=1 n=c6 v=0
36480 On ch=1 n=e6 v=0
36480 On ch=1 n=a5 v=0
36840 On ch=1 n=a5 v=70
36840 On ch=1 n=c6 v=70
36840 On ch=1 n=e6 v=70
36880 On ch=1 n=e6 v=0
36880 On ch=1 n=c6 v=0
36880 On ch=1 n=a5 v=0
36920 On ch=1 n=a5 v=70
36920 On ch=1 n=e6 v=70
36920 On ch=1 n=c6 v=70
36960 On ch=1 n=c6 v=0
36960 On ch=1 n=e6 v=0
36960 On ch=1 n=a5 v=0
36960 On ch=1 n=c#6 v=60
36960 On ch=1 n=a#5 v=60
36960 On ch=1 n=f#5 v=60
37440 On ch=1 n=c#8 v=30
37440 On ch=1 n=a#7 v=30
37440 On ch=1 n=f#7 v=30
37440 On ch=1 n=c#7 v=30
38160 On ch=1 n=c#7 v=0
38160 On ch=1 n=f#7 v=0
38160 On ch=1 n=a#7 v=0
38160 On ch=1 n=c#8 v=0
38160 On ch=1 n=f#5 v=0
38160 On ch=1 n=a#5 v=0
38160 On ch=1 n=c#6 v=0
40800 On ch=1 n=g#5 v=60
40800 On ch=1 n=e5 v=60
41640 On ch=1 n=g#5 v=0
41640 On ch=1 n=c6 v=60
41680 On ch=1 n=c6 v=0
41680 On ch=1 n=g#5 v=60
41720 On ch=1 n=g#5 v=0
41720 On ch=1 n=c6 v=60
41760 On ch=1 n=c6 v=0
41760 On ch=1 n=e5 v=0
41760 On ch=1 n=f6 v=60
41760 On ch=1 n=d#5 v=60
42600 On ch=1 n=f6 v=0
42600 On ch=1 n=c6 v=60
42640 On ch=1 n=c6 v=0
42640 On ch=1 n=f6 v=60
42680 On ch=1 n=f6 v=0
42680 On ch=1 n=c6 v=60
42720 On ch=1 n=c6 v=0
42720 On ch=1 n=d#5 v=0
42720 On ch=1 n=g#5 v=60
42720 On ch=1 n=e5 v=60
43560 On ch=1 n=g#5 v=0
43560 On ch=1 n=c6 v=60
43600 On ch=1 n=c6 v=0
43600 On ch=1 n=g#5 v=60
43640 On ch=1 n=g#5 v=0
43640 On ch=1 n=c6 v=60
43680 On ch=1 n=c6 v=0
43680 On ch=1 n=e5 v=0
43680 On ch=1 n=f6 v=60
43680 On ch=1 n=d#5 v=60
44040 On ch=1 n=f6 v=0
44040 On ch=1 n=a6 v=60
44080 On ch=1 n=a6 v=0
44080 On ch=1 n=f6 v=60
44120 On ch=1 n=f6 v=0
44120 On ch=1 n=a6 v=60
44160 On ch=1 n=a6 v=0
44160 On ch=1 n=c7 v=60
44400 On ch=1 n=c7 v=0
44400 On ch=1 n=d#7 v=60
44640 On ch=1 n=d#7 v=0
44640 On ch=1 n=d#5 v=0
44640 On ch=1 n=f#7 v=40
44640 On ch=1 n=c#7 v=40
44640 On ch=1 n=a#6 v=40
44640 On ch=1 n=f#6 v=40
46080 On ch=1 n=f#6 v=0
46080 On ch=1 n=a#6 v=0
46080 On ch=1 n=c#7 v=0
46080 On ch=1 n=f#7 v=0
46080 On ch=1 n=e7 v=40
46080 On ch=1 n=e6 v=40
46080 On ch=1 n=b6 v=40
46080 On ch=1 n=g#6 v=40
46800 On ch=1 n=e6 v=0
46800 On ch=1 n=e7 v=0
46800 On ch=1 n=c#7 v=40
46800 On ch=1 n=c#6 v=40
47040 On ch=1 n=c#6 v=0
47040 On ch=1 n=c#7 v=0
47040 On ch=1 n=d7 v=40
47040 On ch=1 n=d6 v=40
47280 On ch=1 n=d6 v=0
47280 On ch=1 n=d7 v=0
47280 On ch=1 n=b7 v=40
47280 On ch=1 n=b6 v=40
47520 On ch=1 n=b6 v=0
47520 On ch=1 n=b7 v=0
47520 On ch=1 n=g#6 v=0
47520 On ch=1 n=b6 v=0
47520 On ch=1 n=f#7 v=40
47520 On ch=1 n=f#6 v=40
47520 On ch=1 n=c#7 v=40
47520 On ch=1 n=a6 v=40
48480 On ch=1 n=f#6 v=0
48480 On ch=1 n=f#7 v=0
48480 On ch=1 n=c#6 v=40
48480 On ch=1 n=c#7 v=40
48960 On ch=1 n=c#7 v=0
48960 On ch=1 n=a6 v=0
48960 On ch=1 n=c#7 v=0
49200 On ch=1 n=c#6 v=0
49200 On ch=1 n=a#5 v=40
49440 On ch=1 n=a#5 v=0
49440 On ch=1 n=g5 v=40
49560 On ch=1 n=g5 v=0
49560 On ch=1 n=g#5 v=40
49680 On ch=1 n=g#5 v=0
49680 On ch=1 n=a5 v=40
49920 On ch=1 n=a5 v=0
49920 On ch=1 n=f5 v=40
50160 On ch=1 n=f5 v=0
50160 On ch=1 n=c#5 v=40
50400 On ch=1 n=c#5 v=0
50400 On ch=1 n=d5 v=40
50520 On ch=1 n=d5 v=0
50520 On ch=1 n=d#5 v=40
50640 On ch=1 n=d#5 v=0
50640 On ch=1 n=e5 v=40
50880 On ch=1 n=e5 v=0
50880 On ch=1 n=c5 v=40
51120 On ch=1 n=c5 v=0
54240 On ch=1 n=a7 v=60
54240 On ch=1 n=a6 v=60
54240 On ch=1 n=d7 v=60
54960 On ch=1 n=a6 v=0
54960 On ch=1 n=a7 v=0
54960 On ch=1 n=g#7 v=60
54960 On ch=1 n=g#6 v=60
55200 On ch=1 n=g#6 v=0
55200 On ch=1 n=g#7 v=0
55200 On ch=1 n=f#7 v=60
55200 On ch=1 n=f#6 v=60
55440 On ch=1 n=f#6 v=0
55440 On ch=1 n=f#7 v=0
55440 On ch=1 n=f6 v=60
55440 On ch=1 n=f7 v=60
56160 On ch=1 n=f7 v=0
56160 On ch=1 n=f6 v=0
56160 On ch=1 n=d7 v=0
56640 On ch=1 n=a#7 v=50
56640 On ch=1 n=a#6 v=50
56640 On ch=1 n=c#7 v=50
57600 On ch=1 n=a#6 v=0
57600 On ch=1 n=a#7 v=0
57600 On ch=1 n=g#7 v=40
57600 On ch=1 n=g#6 v=40
58080 On ch=1 n=g#6 v=0
58080 On ch=1 n=g#7 v=0
58080 On ch=1 n=f#7 v=40
58080 On ch=1 n=f#6 v=40
58560 On ch=1 n=f#6 v=0
58560 On ch=1 n=f#7 v=0
58560 On ch=1 n=f7 v=40
58560 On ch=1 n=f6 v=40
60000 On ch=1 n=f6 v=0
60000 On ch=1 n=f7 v=0
60960 On ch=1 n=c#7 v=0
60960 Meta TrkEnd
TrkEnd
MTrk
0 SeqSpec 43 00 01 00
0 Meta TrkName "Right Bass"
0 Meta 0x21 00
21120 On ch=1 n=c#5 v=40
21360 On ch=1 n=c#5 v=0
21360 On ch=1 n=a#4 v=40
21600 On ch=1 n=a#4 v=0
21600 On ch=1 n=g4 v=40
21720 On ch=1 n=g4 v=0
21720 On ch=1 n=g#4 v=40
21840 On ch=1 n=g#4 v=0
21840 On ch=1 n=a4 v=40
22080 On ch=1 n=a4 v=0
22080 On ch=1 n=f4 v=40
22320 On ch=1 n=f4 v=0
22320 On ch=1 n=c#4 v=40
22560 On ch=1 n=c#4 v=0
22560 On ch=1 n=d4 v=40
22680 On ch=1 n=d4 v=0
22680 On ch=1 n=d#4 v=40
22800 On ch=1 n=d#4 v=0
22800 On ch=1 n=e4 v=40
23040 On ch=1 n=e4 v=0
23040 On ch=1 n=c4 v=40
23280 On ch=1 n=c4 v=0
25440 On ch=1 n=e5 v=60
25440 On ch=1 n=c5 v=60
25440 On ch=1 n=g#4 v=60
25440 On ch=1 n=e4 v=60
25440 On ch=1 n=d4 v=60
27240 On ch=1 n=e5 v=0
27240 On ch=1 n=f#5 v=60
27360 On ch=1 n=f#5 v=0
27360 On ch=1 n=d4 v=0
27360 On ch=1 n=e4 v=0
27360 On ch=1 n=g#4 v=0
27360 On ch=1 n=c5 v=0
27360 On ch=1 n=f#5 v=60
27360 On ch=1 n=d5 v=60
27360 On ch=1 n=a#4 v=60
27360 On ch=1 n=e4 v=60
27720 On ch=1 n=f#5 v=0
27720 On ch=1 n=g#5 v=70
27840 On ch=1 n=g#5 v=0
27840 On ch=1 n=e4 v=0
27840 On ch=1 n=a#4 v=0
27840 On ch=1 n=d5 v=0
35040 On ch=1 n=f#4 v=60
35040 On ch=1 n=a#4 v=60
35040 On ch=1 n=c#5 v=60
36000 On ch=1 n=c#5 v=0
36000 On ch=1 n=a#4 v=0
36000 On ch=1 n=f#4 v=0
38280 On ch=1 n=e5 v=70
38280 On ch=1 n=c5 v=70
38280 On ch=1 n=a4 v=70
38320 On ch=1 n=a4 v=0
38320 On ch=1 n=c5 v=0
38320 On ch=1 n=e5 v=0
38360 On ch=1 n=e5 v=70
38360 On ch=1 n=c5 v=70
38360 On ch=1 n=a4 v=70
38400 On ch=1 n=a4 v=0
38400 On ch=1 n=c5 v=0
38400 On ch=1 n=e5 v=0
38760 On ch=1 n=e5 v=70
38760 On ch=1 n=c5 v=70
38760 On ch=1 n=a4 v=70
38800 On ch=1 n=a4 v=0
38800 On ch=1 n=c5 v=0
38800 On ch=1 n=e5 v=0
38840 On ch=1 n=e5 v=70
38840 On ch=1 n=c5 v=70
38840 On ch=1 n=a4 v=70
38880 On ch=1 n=a4 v=0
38880 On ch=1 n=c5 v=0
38880 On ch=1 n=e5 v=0
39840 On ch=1 n=d#4 v=50
39840 On ch=1 n=f4 v=50
39840 On ch=1 n=a4 v=50
40480 On ch=1 n=a4 v=0
40480 On ch=1 n=f4 v=0
40480 On ch=1 n=d#4 v=0
40640 On ch=1 n=a4 v=50
40640 On ch=1 n=f4 v=50
40640 On ch=1 n=d#4 v=50
40800 On ch=1 n=d#4 v=0
40800 On ch=1 n=f4 v=0
40800 On ch=1 n=a4 v=0
51120 On ch=1 n=a4 v=40
51600 On ch=1 n=a4 v=0
51600 On ch=1 n=e4 v=40
52080 On ch=1 n=e4 v=0
52080 On ch=1 n=c4 v=40
52320 On ch=1 n=c4 v=0
52320 On ch=1 n=a4 v=40
52320 On ch=1 n=f#4 v=40
52320 On ch=1 n=d4 v=40
52320 On ch=1 n=a3 v=40
53040 On ch=1 n=a3 v=0
53040 On ch=1 n=d4 v=0
53040 On ch=1 n=f#4 v=0
53040 On ch=1 n=a4 v=0
53040 On ch=1 n=c5 v=40
53040 On ch=1 n=g#4 v=40
53040 On ch=1 n=f4 v=40
53040 On ch=1 n=c4 v=40
53280 On ch=1 n=c4 v=0
53280 On ch=1 n=f4 v=0
53280 On ch=1 n=g#4 v=0
53280 On ch=1 n=c5 v=0
53280 On ch=1 n=a4 v=40
53280 On ch=1 n=f#4 v=40
53280 On ch=1 n=d4 v=40
53280 On ch=1 n=a3 v=40
53520 On ch=1 n=a3 v=0
53520 On ch=1 n=d4 v=0
53520 On ch=1 n=f#4 v=0
53520 On ch=1 n=a4 v=0
53520 On ch=1 n=c5 v=40
53520 On ch=1 n=g#4 v=40
53520 On ch=1 n=f4 v=40
53520 On ch=1 n=c4 v=40
53760 On ch=1 n=c4 v=0
53760 On ch=1 n=f4 v=0
53760 On ch=1 n=g#4 v=0
53760 On ch=1 n=c5 v=0
53760 On ch=1 n=f5 v=40
53760 On ch=1 n=d5 v=40
53760 On ch=1 n=a#4 v=40
53760 On ch=1 n=f4 v=40
55200 On ch=1 n=f4 v=0
55200 On ch=1 n=a#4 v=0
55200 On ch=1 n=d5 v=0
55200 On ch=1 n=f5 v=0
55200 Meta TrkEnd
TrkEnd
MTrk
0 SeqSpec 43 00 01 00
0 Meta TrkName "Middle Tre"
