MFile 1 9 480
MTrk
0 TimeSig 3/4 24 8
0 KeySig -4 major
0 Tempo 712483
21600 TimeSig 5/4 24 8
24000 TimeSig 3/4 24 8
32640 KeySig -2 major
32640 Tempo 750000
52800 Tempo 789474
53280 Tempo 833333
53760 Tempo 672957
54240 KeySig -4 major
54240 Tempo 712483
54240 Meta TrkEnd
TrkEnd
MTrk
0 SeqSpec 43 00 01 00
0 Meta TrkName "Top Treble"
0 Meta 0x21 00
1200 On ch=1 n=d#6 v=60
1440 On ch=1 n=d#6 v=0
1440 On ch=1 n=c6 v=60
1680 On ch=1 n=c6 v=0
1680 On ch=1 n=a#5 v=60
1800 On ch=1 n=a#5 v=0
1800 On ch=1 n=c6 v=60
1920 On ch=1 n=c6 v=0
1920 On ch=1 n=g5 v=60
2160 On ch=1 n=g5 v=0
2160 On ch=1 n=a#5 v=60
2400 On ch=1 n=a#5 v=0
2400 On ch=1 n=f5 v=60
2640 On ch=1 n=f5 v=0
2640 On ch=1 n=d#6 v=60
2880 On ch=1 n=d#6 v=0
2880 On ch=1 n=c6 v=60
3840 On ch=1 n=c6 v=0
3840 On ch=1 n=c6 v=60
4080 On ch=1 n=c6 v=0
4080 On ch=1 n=a#5 v=60
4200 On ch=1 n=a#5 v=0
4200 On ch=1 n=c6 v=60
4320 On ch=1 n=c6 v=0
4320 On ch=1 n=c#5 v=50
4320 On ch=1 n=d#5 v=50
5280 On ch=1 n=d#5 v=0
5280 On ch=1 n=c6 v=50
5520 On ch=1 n=c6 v=0
5520 On ch=1 n=a#5 v=50
5640 On ch=1 n=a#5 v=0
5640 On ch=1 n=c6 v=50
5760 On ch=1 n=c6 v=0
5760 On ch=1 n=c#5 v=0
5760 On ch=1 n=c5 v=40
5760 On ch=1 n=d#5 v=40
6720 On ch=1 n=d#5 v=0
6720 On ch=1 n=c5 v=0
7200 On ch=1 n=c5 v=60
7560 On ch=1 n=c5 v=0
7560 On ch=1 n=d#5 v=60
7680 On ch=1 n=d#5 v=0
7680 On ch=1 n=c#5 v=60
7680 On ch=1 n=f5 v=60
7920 On ch=1 n=f5 v=0
7920 On ch=1 n=c#5 v=0
7920 On ch=1 n=g#5 v=60
7920 On ch=1 n=c5 v=60
7920 On ch=1 n=d#5 v=60
8160 On ch=1 n=d#5 v=0
8160 On ch=1 n=c5 v=0
8160 On ch=1 n=g#5 v=0
8160 On ch=1 n=c#5 v=60
8160 On ch=1 n=a#5 v=60
8160 On ch=1 n=f#5 v=60
8400 On ch=1 n=f#5 v=0
8400 On ch=1 n=a#5 v=0
8400 On ch=1 n=c#5 v=0
8400 On ch=1 n=f6 v=60
8400 On ch=1 n=c#6 v=60
8400 On ch=1 n=g#5 v=60
8400 On ch=1 n=f5 v=60
8640 On ch=1 n=f5 v=0
8640 On ch=1 n=g#5 v=0
8640 On ch=1 n=c#6 v=0
8640 On ch=1 n=f6 v=0
8640 On ch=1 n=c5 v=60
9000 On ch=1 n=c5 v=0
9000 On ch=1 n=d#5 v=60
9120 On ch=1 n=d#5 v=0
9120 On ch=1 n=f5 v=70
9360 On ch=1 n=f5 v=0
9360 On ch=1 n=c#6 v=70
9600 On ch=1 n=c#6 v=0
9600 On ch=1 n=a#5 v=75
9840 On ch=1 n=a#5 v=0
9840 On ch=1 n=f6 v=75
10080 On ch=1 n=f6 v=0
10080 On ch=1 n=g#6 v=80
10080 On ch=1 n=c6 v=80
10080 On ch=1 n=g#5 v=80
10320 On ch=1 n=g#6 v=0
10320 On ch=1 n=g6 v=80
10400 On ch=1 n=g6 v=0
10400 On ch=1 n=f6 v=80
10480 On ch=1 n=f6 v=0
10480 On ch=1 n=d#6 v=80
10560 On ch=1 n=d#6 v=0
10560 On ch=1 n=g#5 v=0
10560 On ch=1 n=c6 v=0
10560 On ch=1 n=c#6 v=80
10680 On ch=1 n=c#6 v=0
10680 On ch=1 n=c6 v=80
10800 On ch=1 n=c6 v=0
10800 On ch=1 n=a#5 v=80
10920 On ch=1 n=a#5 v=0
10920 On ch=1 n=g#5 v=80
11040 On ch=1 n=g#5 v=0
11040 On ch=1 n=a#5 v=80
11160 On ch=1 n=a#5 v=0
11160 On ch=1 n=g#5 v=80
11280 On ch=1 n=g#5 v=0
11280 On ch=1 n=g5 v=80
11400 On ch=1 n=g5 v=0
11400 On ch=1 n=f5 v=80
11520 On ch=1 n=f5 v=0
11520 On ch=1 n=c5 v=60
11520 On ch=1 n=d#5 v=60
12480 On ch=1 n=d#5 v=0
12480 On ch=1 n=c5 v=0
12480 On ch=1 n=f5 v=60
12540 On ch=1 n=f5 v=0
12600 On ch=1 n=g#5 v=60
12660 On ch=1 n=g#5 v=0
12720 On ch=1 n=a#5 v=60
12780 On ch=1 n=a#5 v=0
12840 On ch=1 n=d#6 v=60
12900 On ch=1 n=d#6 v=0
12960 On ch=1 n=c5 v=60
12960 On ch=1 n=d#5 v=60
13440 On ch=1 n=c#5 v=70
13560 On ch=1 n=c#5 v=0
13560 On ch=1 n=c5 v=70
13680 On ch=1 n=c5 v=0
13680 On ch=1 n=c#5 v=70
13800 On ch=1 n=c#5 v=0
13800 On ch=1 n=d#5 v=70
13920 On ch=1 n=d#5 v=0
13920 On ch=1 n=f5 v=75
14040 On ch=1 n=f5 v=0
14040 On ch=1 n=d#5 v=75
14160 On ch=1 n=d#5 v=0
14160 On ch=1 n=f5 v=75
14280 On ch=1 n=f5 v=0
14280 On ch=1 n=g5 v=75
14400 On ch=1 n=g5 v=0
14400 On ch=1 n=d#5 v=0
14400 On ch=1 n=c5 v=0
14400 On ch=1 n=d#7 v=80
14640 On ch=1 n=d#7 v=0
14640 On ch=1 n=c#7 v=80
14720 On ch=1 n=c#7 v=0
14720 On ch=1 n=c7 v=80
14800 On ch=1 n=c7 v=0
14800 On ch=1 n=a#6 v=80
14880 On ch=1 n=a#6 v=0
14880 On ch=1 n=c7 v=80
15000 On ch=1 n=c7 v=0
15000 On ch=1 n=a#6 v=80
15120 On ch=1 n=a#6 v=0
15120 On ch=1 n=g#6 v=80
15240 On ch=1 n=g#6 v=0
15240 On ch=1 n=g6 v=80
15360 On ch=1 n=g6 v=0
15360 On ch=1 n=g#6 v=80
15480 On ch=1 n=g#6 v=0
15480 On ch=1 n=g6 v=80
15600 On ch=1 n=g6 v=0
15600 On ch=1 n=f6 v=80
15720 On ch=1 n=f6 v=0
15720 On ch=1 n=d#6 v=80
16080 On ch=1 n=d#6 v=0
16080 On ch=1 n=c#6 v=75
16160 On ch=1 n=c#6 v=0
16160 On ch=1 n=c6 v=75
16240 On ch=1 n=c6 v=0
16240 On ch=1 n=a#5 v=75
16320 On ch=1 n=a#5 v=0
16320 On ch=1 n=c6 v=70
16440 On ch=1 n=c6 v=0
16440 On ch=1 n=a#5 v=70
16560 On ch=1 n=a#5 v=0
16560 On ch=1 n=g#5 v=70
16680 On ch=1 n=g#5 v=0
16680 On ch=1 n=g5 v=70
16920 On ch=1 n=g5 v=0
16920 On ch=1 n=f5 v=65
17040 On ch=1 n=f5 v=0
17040 On ch=1 n=d#5 v=65
17160 On ch=1 n=d#5 v=0
17160 On ch=1 n=c#5 v=65
17280 On ch=1 n=d#5 v=60
18240 On ch=1 n=d#5 v=0
18240 On ch=1 n=c#5 v=0
18240 On ch=1 n=c#5 v=60
18240 On ch=1 n=f5 v=60
18720 On ch=1 n=f5 v=0
18720 On ch=1 n=c#5 v=0
18720 On ch=1 n=g#5 v=60
18720 On ch=1 n=c5 v=60
19680 On ch=1 n=c5 v=0
19680 On ch=1 n=g#5 v=0
19680 On ch=1 n=a#5 v=60
19680 On ch=1 n=f5 v=60
19740 On ch=1 n=a#5 v=0
19740 On ch=1 n=d#6 v=60
19800 On ch=1 n=d#6 v=0
19800 On ch=1 n=f6 v=60
19860 On ch=1 n=f6 v=0
19860 On ch=1 n=a#6 v=60
19920 On ch=1 n=a#6 v=0
19920 On ch=1 n=d#7 v=60
19948 On ch=1 n=d#7 v=0
20040 On ch=1 n=c7 v=60
20080 On ch=1 n=c7 v=0
20080 On ch=1 n=d#6 v=60
20120 On ch=1 n=d#6 v=0
20120 On ch=1 n=g#5 v=60
20160 On ch=1 n=g#5 v=0
20160 On ch=1 n=f5 v=0
20160 On ch=1 n=f5 v=60
20160 On ch=1 n=c5 v=60
20460 On ch=1 n=f5 v=0
20460 On ch=1 n=a#5 v=60
20520 On ch=1 n=a#5 v=0
20520 On ch=1 n=d#6 v=60
20580 On ch=1 n=d#6 v=0
20580 On ch=1 n=c6 v=60
20640 On ch=1 n=c6 v=0
20640 On ch=1 n=g5 v=60
21120 On ch=1 n=g5 v=0
21120 On ch=1 n=c5 v=0
21120 On ch=1 n=a#5 v=60
21120 On ch=1 n=f5 v=60
21180 On ch=1 n=a#5 v=0
21180 On ch=1 n=d#6 v=60
21240 On ch=1 n=d#6 v=0
21240 On ch=1 n=f6 v=60
21300 On ch=1 n=f6 v=0
21300 On ch=1 n=a#6 v=60
21360 On ch=1 n=a#6 v=0
21360 On ch=1 n=d#7 v=60
21388 On ch=1 n=d#7 v=0
21480 On ch=1 n=g#6 v=60
21520 On ch=1 n=g#6 v=0
21520 On ch=1 n=d#6 v=60
21560 On ch=1 n=d#6 v=0
21560 On ch=1 n=g#5 v=60
21600 On ch=1 n=g#5 v=0
21600 On ch=1 n=f5 v=0
21600 On ch=1 n=f5 v=60
21600 On ch=1 n=c5 v=60
21900 On ch=1 n=f5 v=0
21900 On ch=1 n=a#5 v=60
21960 On ch=1 n=a#5 v=0
21960 On ch=1 n=d#6 v=60
22020 On ch=1 n=d#6 v=0
22020 On ch=1 n=c6 v=60
22080 On ch=1 n=c6 v=0
22080 On ch=1 n=g5 v=60
22560 On ch=1 n=g5 v=0
22560 On ch=1 n=c5 v=0
22560 On ch=1 n=f5 v=60
22560 On ch=1 n=c5 v=60
22860 On ch=1 n=f5 v=0
22860 On ch=1 n=a#5 v=60
22920 On ch=1 n=a#5 v=0
22920 On ch=1 n=d#6 v=60
22980 On ch=1 n=d#6 v=0
22980 On ch=1 n=c6 v=60
23040 On ch=1 n=c6 v=0
23040 On ch=1 n=c5 v=0
23040 On ch=1 n=d5 v=50
23040 On ch=1 n=g5 v=50
23520 On ch=1 n=g5 v=0
23520 On ch=1 n=d5 v=0
23520 On ch=1 n=a#4 v=50
23520 On ch=1 n=d#5 v=50
24720 On ch=1 n=a#4 v=0
24780 On ch=1 n=d#5 v=0
24780 On ch=1 n=c#5 v=50
24840 On ch=1 n=c#5 v=0
24840 On ch=1 n=d#5 v=50
24900 On ch=1 n=d#5 v=0
24900 On ch=1 n=f5 v=50
24960 On ch=1 n=f5 v=0
26880 On ch=1 n=f6 v=40
27180 On ch=1 n=f6 v=0
27180 On ch=1 n=a#6 v=40
27240 On ch=1 n=a#6 v=0
27240 On ch=1 n=d#7 v=40
27300 On ch=1 n=d#7 v=0
27300 On ch=1 n=c7 v=40
27360 On ch=1 n=c7 v=0
27360 On ch=1 n=d#6 v=40
27660 On ch=1 n=d#6 v=0
27660 On ch=1 n=g#6 v=40
27720 On ch=1 n=g#6 v=0
27720 On ch=1 n=c#7 v=40
27780 On ch=1 n=c#7 v=0
27780 On ch=1 n=a#6 v=40
27840 On ch=1 n=a#6 v=0
27840 On ch=1 n=c#6 v=40
28140 On ch=1 n=c#6 v=0
28140 On ch=1 n=f#6 v=40
28200 On ch=1 n=f#6 v=0
28200 On ch=1 n=c7 v=40
28260 On ch=1 n=c7 v=0
28260 On ch=1 n=g#6 v=40
28320 On ch=1 n=g#6 v=0
28320 On ch=1 n=c6 v=40
28620 On ch=1 n=f6 v=40
28680 On ch=1 n=f6 v=0
28680 On ch=1 n=a#6 v=40
28740 On ch=1 n=a#6 v=0
28740 On ch=1 n=f#6 v=40
28800 On ch=1 n=f#6 v=0
28800 On ch=1 n=c6 v=0
28800 On ch=1 n=a#5 v=40
29340 On ch=1 n=a#5 v=0
29340 On ch=1 n=g#5 v=40
29400 On ch=1 n=g#5 v=0
29400 On ch=1 n=f#5 v=40
29460 On ch=1 n=f#5 v=0
29460 On ch=1 n=g#5 v=40
29520 On ch=1 n=g#5 v=0
29520 On ch=1 n=a#5 v=40
29580 On ch=1 n=a#5 v=0
29580 On ch=1 n=c6 v=40
29640 On ch=1 n=c6 v=0
29640 On ch=1 n=c#6 v=40
29700 On ch=1 n=c#6 v=0
29700 On ch=1 n=d#6 v=40
29760 On ch=1 n=d#6 v=0
29760 On ch=1 n=f6 v=60
30060 On ch=1 n=f6 v=0
30060 On ch=1 n=a#6 v=60
30120 On ch=1 n=a#6 v=0
30120 On ch=1 n=d#7 v=60
30180 On ch=1 n=d#7 v=0
30180 On ch=1 n=c7 v=60
30240 On ch=1 n=c7 v=0
30240 On ch=1 n=d#6 v=70
30540 On ch=1 n=d#6 v=0
30540 On ch=1 n=g#6 v=70
30600 On ch=1 n=g#6 v=0
30600 On ch=1 n=c#7 v=70
30660 On ch=1 n=c#7 v=0
30660 On ch=1 n=a6 v=70
30720 On ch=1 n=a6 v=0
30720 On ch=1 n=f#6 v=80
31020 On ch=1 n=f#6 v=0
31020 On ch=1 n=c7 v=80
31080 On ch=1 n=c7 v=0
31080 On ch=1 n=f7 v=80
31140 On ch=1 n=f7 v=0
31140 On ch=1 n=c#7 v=80
31200 On ch=1 n=c#7 v=0
31200 On ch=1 n=a#6 v=90
31500 On ch=1 n=d#7 v=90
31560 On ch=1 n=d#7 v=0
31560 On ch=1 n=g#7 v=90
31620 On ch=1 n=g#7 v=0
31620 On ch=1 n=f7 v=90
31680 On ch=1 n=f7 v=0
31680 On ch=1 n=a#6 v=0
31680 On ch=1 n=a#6 v=80
32220 On ch=1 n=a#6 v=0
32220 On ch=1 n=g#6 v=70
32280 On ch=1 n=g#6 v=0
32280 On ch=1 n=f6 v=70
32340 On ch=1 n=f6 v=0
32340 On ch=1 n=d#6 v=70
32400 On ch=1 n=d#6 v=0
32400 On ch=1 n=a#5 v=70
32460 On ch=1 n=a#5 v=0
32460 On ch=1 n=g#5 v=70
32520 On ch=1 n=g#5 v=0
32520 On ch=1 n=d#5 v=70
32580 On ch=1 n=d#5 v=0
32580 On ch=1 n=g#5 v=70
32640 On ch=1 n=g#5 v=0
32640 On ch=1 n=a#5 v=60
32640 On ch=1 n=a#4 v=60
32640 On ch=1 n=d5 v=60
32640 On ch=1 n=f5 v=60
33120 On ch=1 n=a#5 v=0
33120 On ch=1 n=f6 v=60
33840 On ch=1 n=f6 v=0
33840 On ch=1 n=d#6 v=60
33920 On ch=1 n=d#6 v=0
33920 On ch=1 n=d6 v=60
34000 On ch=1 n=d6 v=0
34000 On ch=1 n=c6 v=60
34080 On ch=1 n=c6 v=0
34080 On ch=1 n=f5 v=0
34080 On ch=1 n=d5 v=0
34080 On ch=1 n=a#4 v=0
34080 On ch=1 n=a#5 v=60
34200 On ch=1 n=a#5 v=0
34200 On ch=1 n=c6 v=60
34320 On ch=1 n=c6 v=0
34320 On ch=1 n=a#5 v=60
34440 On ch=1 n=a#5 v=0
34440 On ch=1 n=f5 v=60
34560 On ch=1 n=f5 v=0
34560 On ch=1 n=d#5 v=60
34680 On ch=1 n=d#5 v=0
34680 On ch=1 n=f5 v=60
34800 On ch=1 n=f5 v=0
34800 On ch=1 n=d#5 v=60
34920 On ch=1 n=d#5 v=0
34920 On ch=1 n=c5 v=60
35040 On ch=1 n=c5 v=0
35520 On ch=1 n=a#5 v=60
35520 On ch=1 n=a#4 v=60
35520 On ch=1 n=d5 v=60
35520 On ch=1 n=f5 v=60
36000 On ch=1 n=a#5 v=0
36000 On ch=1 n=f6 v=60
36720 On ch=1 n=f6 v=0
36720 On ch=1 n=d6 v=60
36800 On ch=1 n=d6 v=0
36800 On ch=1 n=d#6 v=60
36880 On ch=1 n=d#6 v=0
36880 On ch=1 n=f6 v=60
36960 On ch=1 n=f6 v=0
36960 On ch=1 n=f5 v=0
36960 On ch=1 n=d5 v=0
36960 On ch=1 n=a#4 v=0
36960 On ch=1 n=a#6 v=60
37080 On ch=1 n=a#6 v=0
37080 On ch=1 n=c7 v=60
37200 On ch=1 n=c7 v=0
37200 On ch=1 n=a#6 v=60
37320 On ch=1 n=a#6 v=0
37320 On ch=1 n=f6 v=60
37440 On ch=1 n=f6 v=0
37440 On ch=1 n=d#6 v=60
37560 On ch=1 n=d#6 v=0
37560 On ch=1 n=f6 v=60
37680 On ch=1 n=f6 v=0
37680 On ch=1 n=d#6 v=60
37800 On ch=1 n=d#6 v=0
37800 On ch=1 n=c6 v=60
37920 On ch=1 n=c6 v=0
37920 On ch=1 n=f5 v=60
38040 On ch=1 n=f5 v=0
38160 On ch=1 n=d6 v=60
38240 On ch=1 n=d6 v=0
38240 On ch=1 n=d#6 v=60
38320 On ch=1 n=d#6 v=0
38320 On ch=1 n=f6 v=60
38400 On ch=1 n=f6 v=0
38400 On ch=1 n=a#6 v=65
38520 On ch=1 n=a#6 v=0
38520 On ch=1 n=c7 v=65
38640 On ch=1 n=c7 v=0
38640 On ch=1 n=a#6 v=65
38760 On ch=1 n=a#6 v=0
38760 On ch=1 n=f6 v=65
38880 On ch=1 n=f6 v=0
38880 On ch=1 n=d#6 v=70
39000 On ch=1 n=d#6 v=0
39000 On ch=1 n=f6 v=70
39120 On ch=1 n=f6 v=0
39120 On ch=1 n=d#6 v=70
39240 On ch=1 n=d#6 v=0
39240 On ch=1 n=c6 v=70
39360 On ch=1 n=c6 v=0
39360 On ch=1 n=a#5 v=75
39480 On ch=1 n=a#5 v=0
39480 On ch=1 n=c6 v=75
39600 On ch=1 n=c6 v=0
39600 On ch=1 n=d#6 v=75
39720 On ch=1 n=d#6 v=0
39720 On ch=1 n=f6 v=75
39840 On ch=1 n=f6 v=0
39840 On ch=1 n=a#6 v=80
39960 On ch=1 n=a#6 v=0
39960 On ch=1 n=c7 v=80
40080 On ch=1 n=c7 v=0
40080 On ch=1 n=a#6 v=80
40200 On ch=1 n=a#6 v=0
40200 On ch=1 n=f6 v=80
40320 On ch=1 n=f6 v=0
40320 On ch=1 n=d#6 v=85
40440 On ch=1 n=d#6 v=0
40440 On ch=1 n=f6 v=85
40560 On ch=1 n=f6 v=0
40560 On ch=1 n=d#6 v=85
40680 On ch=1 n=d#6 v=0
40680 On ch=1 n=c6 v=85
40800 On ch=1 n=c6 v=0
40800 On ch=1 n=a#5 v=90
40920 On ch=1 n=a#5 v=0
40920 On ch=1 n=c6 v=90
41040 On ch=1 n=c6 v=0
41040 On ch=1 n=a#5 v=90
41160 On ch=1 n=a#5 v=0
41160 On ch=1 n=d#5 v=90
41280 On ch=1 n=d#5 v=0
41280 On ch=1 n=g4 v=60
41280 On ch=1 n=a#4 v=60
41280 On ch=1 n=d5 v=60
41520 On ch=1 n=g4 v=0
41760 On ch=1 n=d5 v=0
41760 On ch=1 n=a#4 v=0
41760 On ch=1 n=a6 v=60
41760 On ch=1 n=e6 v=60
41760 On ch=1 n=c6 v=60
41760 On ch=1 n=a5 v=60
42120 On ch=1 n=c7 v=60
42160 On ch=1 n=c7 v=0
42160 On ch=1 n=d7 v=60
42200 On ch=1 n=d7 v=0
42200 On ch=1 n=e7 v=60
42240 On ch=1 n=e7 v=0
42240 On ch=1 n=c7 v=60
42360 On ch=1 n=c7 v=0
42360 On ch=1 n=d#6 v=60
42480 On ch=1 n=d#6 v=0
42480 On ch=1 n=c6 v=60
42600 On ch=1 n=c6 v=0
42600 On ch=1 n=a5 v=60
42720 On ch=1 n=a5 v=0
43200 On ch=1 n=a5 v=60
43320 On ch=1 n=a5 v=0
43320 On ch=1 n=c6 v=60
43440 On ch=1 n=c6 v=0
43440 On ch=1 n=d6 v=60
43560 On ch=1 n=d6 v=0
43560 On ch=1 n=e6 v=60
43680 On ch=1 n=e6 v=0
43680 On ch=1 n=c6 v=0
43680 On ch=1 n=a5 v=0
43680 On ch=1 n=e6 v=0
43680 On ch=1 n=a6 v=0
43800 On ch=1 n=c5 v=60
43920 On ch=1 n=c5 v=0
43920 On ch=1 n=d5 v=60
44040 On ch=1 n=d5 v=0
44040 On ch=1 n=e5 v=60
44160 On ch=1 n=e5 v=0
44160 On ch=1 n=c5 v=60
44160 On ch=1 n=g5 v=60
44160 On ch=1 n=d#5 v=60
44400 On ch=1 n=c5 v=0
44640 On ch=1 n=d#5 v=0
44640 On ch=1 n=g5 v=0
44640 On ch=1 n=d7 v=60
44640 On ch=1 n=a6 v=60
44640 On ch=1 n=f6 v=60
44640 On ch=1 n=d6 v=60
45000 On ch=1 n=f7 v=60
45040 On ch=1 n=f7 v=0
45040 On ch=1 n=g7 v=60
45080 On ch=1 n=g7 v=0
45080 On ch=1 n=a7 v=60
45120 On ch=1 n=a7 v=0
45120 On ch=1 n=f7 v=60
45240 On ch=1 n=f7 v=0
45240 On ch=1 n=a6 v=60
45360 On ch=1 n=a6 v=0
45360 On ch=1 n=f6 v=60
45480 On ch=1 n=f6 v=0
45480 On ch=1 n=d6 v=60
45600 On ch=1 n=d6 v=0
46080 On ch=1 n=d6 v=60
46200 On ch=1 n=d6 v=0
46200 On ch=1 n=f6 v=60
46320 On ch=1 n=f6 v=0
46320 On ch=1 n=g6 v=60
46440 On ch=1 n=g6 v=0
46440 On ch=1 n=a6 v=60
46560 On ch=1 n=a6 v=0
46560 On ch=1 n=f6 v=0
46560 On ch=1 n=d6 v=0
46560 On ch=1 n=a6 v=0
46560 On ch=1 n=d7 v=0
47040 On ch=1 n=a#5 v=60
47040 On ch=1 n=a#4 v=60
47040 On ch=1 n=d5 v=60
47040 On ch=1 n=f5 v=60
47520 On ch=1 n=a#5 v=0
47520 On ch=1 n=f6 v=60
48240 On ch=1 n=f6 v=0
48240 On ch=1 n=d#6 v=60
48320 On ch=1 n=d#6 v=0
48320 On ch=1 n=d6 v=60
48400 On ch=1 n=d6 v=0
48400 On ch=1 n=c6 v=60
48480 On ch=1 n=c6 v=0
48480 On ch=1 n=f5 v=0
48480 On ch=1 n=d5 v=0
48480 On ch=1 n=a#4 v=0
48480 On ch=1 n=a#5 v=60
48600 On ch=1 n=a#5 v=0
48600 On ch=1 n=c6 v=60
48720 On ch=1 n=c6 v=0
48720 On ch=1 n=a#5 v=60
48840 On ch=1 n=a#5 v=0
48840 On ch=1 n=f5 v=60
48960 On ch=1 n=f5 v=0
48960 On ch=1 n=d#5 v=60
49080 On ch=1 n=d#5 v=0
49080 On ch=1 n=f5 v=60
49200 On ch=1 n=f5 v=0
49200 On ch=1 n=d#5 v=60
49320 On ch=1 n=d#5 v=0
49320 On ch=1 n=c5 v=60
49440 On ch=1 n=c5 v=0
49920 On ch=1 n=a#5 v=50
49920 On ch=1 n=a#4 v=50
49920 On ch=1 n=d5 v=50
49920 On ch=1 n=f5 v=50
50400 On ch=1 n=a#5 v=0
50400 On ch=1 n=f6 v=50
51120 On ch=1 n=f6 v=0
51120 On ch=1 n=d6 v=50
51200 On ch=1 n=d6 v=0
51200 On ch=1 n=d#6 v=50
51280 On ch=1 n=d#6 v=0
51280 On ch=1 n=f6 v=50
51360 On ch=1 n=f6 v=0
51360 On ch=1 n=f5 v=0
51360 On ch=1 n=d5 v=0
51360 On ch=1 n=a#4 v=0
51360 On ch=1 n=a#6 v=40
51480 On ch=1 n=a#6 v=0
51480 On ch=1 n=c7 v=40
51600 On ch=1 n=c7 v=0
51600 On ch=1 n=a#6 v=40
51720 On ch=1 n=a#6 v=0
51720 On ch=1 n=f6 v=40
51840 On ch=1 n=f6 v=0
51840 On ch=1 n=d#6 v=40
51960 On ch=1 n=d#6 v=0
51960 On ch=1 n=f6 v=40
52080 On ch=1 n=f6 v=0
52080 On ch=1 n=d#6 v=40
52200 On ch=1 n=d#6 v=0
52200 On ch=1 n=c6 v=40
52320 On ch=1 n=c6 v=0
TrkEnd
