MFile 1 2 480
MTrk
0 TimeSig 4/4 24 8
0 Tempo 750000
21120 Tempo 697674
23040 Tempo 750000
28800 Tempo 789474
30720 Tempo 750000
34560 Tempo 731707
36480 Tempo 750000
44160 Tempo 638298
46080 Tempo 789474
48000 Tempo 769231
49920 Tempo 750000
55680 Tempo 714286
57600 Tempo 750000
63360 Tempo 714286
65280 Tempo 750000
101760 Tempo 714286
103680 Tempo 750000
103680 Meta TrkEnd
TrkEnd
MTrk
0 SeqSpec 43 00 01 00
0 Meta TrkName "Copyright 1997 acuity2020@aol."
0 PrCh ch=1 p=0
1680 Par ch=1 c=91 v=100
1768 On ch=1 n=e5 v=39
1770 On ch=1 n=c#6 v=55
1770 On ch=1 n=g#5 v=43
2190 On ch=1 n=d5 v=43
2192 On ch=1 n=f#5 v=37
2194 On ch=1 n=b5 v=57
2212 On ch=1 n=e5 v=0
2220 On ch=1 n=g#5 v=0
2224 On ch=1 n=c#6 v=0
2604 On ch=1 n=d5 v=0
2608 On ch=1 n=e5 v=48
2610 On ch=1 n=a5 v=55
2610 On ch=1 n=c#5 v=37
2642 On ch=1 n=f#5 v=0
2644 On ch=1 n=b5 v=0
3016 On ch=1 n=d#5 v=28
3024 On ch=1 n=g#5 v=54
3024 On ch=1 n=c5 v=35
3052 On ch=1 n=e5 v=0
3060 On ch=1 n=c#5 v=0
3060 On ch=1 n=a5 v=0
3344 On ch=1 n=b5 v=41
3420 On ch=1 n=c#5 v=56
3424 On ch=1 n=a5 v=56
3424 On ch=1 n=e5 v=32
3430 On ch=1 n=c5 v=0
3462 On ch=1 n=d#5 v=0
3474 On ch=1 n=g#5 v=0
3494 On ch=1 n=b5 v=0
3830 On ch=1 n=g5 v=60
3840 On ch=1 n=b4 v=51
3850 On ch=1 n=d5 v=45
3870 On ch=1 n=c#5 v=0
3874 On ch=1 n=e5 v=0
3874 On ch=1 n=a5 v=0
4240 On ch=1 n=c#5 v=56
4244 On ch=1 n=f#5 v=54
4250 On ch=1 n=a4 v=43
4280 On ch=1 n=b4 v=0
4280 On ch=1 n=g5 v=0
4290 On ch=1 n=d5 v=0
4648 On ch=1 n=b4 v=45
4654 On ch=1 n=g#4 v=56
4660 On ch=1 n=f5 v=45
4674 On ch=1 n=c#5 v=0
4680 On ch=1 n=f#5 v=0
4684 On ch=1 n=a4 v=0
5096 On ch=1 n=a4 v=57
5100 On ch=1 n=f#5 v=56
5104 On ch=1 n=c#5 v=41
5124 On ch=1 n=g#4 v=0
5124 On ch=1 n=b4 v=0
5130 On ch=1 n=f5 v=0
5560 On ch=1 n=b4 v=46
5564 On ch=1 n=e5 v=62
5568 On ch=1 n=g#4 v=35
5594 On ch=1 n=f#5 v=0
5596 On ch=1 n=a4 v=0
5600 On ch=1 n=c#5 v=0
6000 On ch=1 n=f#4 v=30
6008 On ch=1 n=a4 v=37
6014 On ch=1 n=d5 v=58
6034 On ch=1 n=e5 v=0
6036 On ch=1 n=b4 v=0
6064 On ch=1 n=g#4 v=0
6490 On ch=1 n=c#5 v=51
6500 On ch=1 n=e4 v=29
6520 On ch=1 n=f#4 v=0
6528 On ch=1 n=a4 v=0
6534 On ch=1 n=d5 v=0
7020 On ch=1 n=g#4 v=40
7570 On ch=1 n=d#4 v=40
7764 On ch=1 n=e4 v=0
8060 On ch=1 n=c#5 v=0
8210 On ch=1 n=g#2 v=44
8230 On ch=1 n=c5 v=46
8380 On ch=1 n=g#4 v=0
8634 On ch=1 n=d#4 v=0
8954 On ch=1 n=g#4 v=54
8960 On ch=1 n=d#5 v=55
8964 On ch=1 n=e4 v=50
8990 On ch=1 n=c#2 v=50
9004 On ch=1 n=c5 v=0
9020 On ch=1 n=g#2 v=0
9254 On ch=1 n=c#3 v=50
9404 On ch=1 n=e4 v=0
9450 On ch=1 n=g#3 v=35
9620 On ch=1 n=c#3 v=0
9624 On ch=1 n=c#5 v=45
9630 On ch=1 n=e4 v=35
9640 On ch=1 n=g#3 v=0
9674 On ch=1 n=d#5 v=0
9674 On ch=1 n=g#4 v=0
9790 On ch=1 n=d#4 v=35
9854 On ch=1 n=e4 v=0
9934 On ch=1 n=c#4 v=35
9960 On ch=1 n=d#4 v=0
10100 On ch=1 n=g#4 v=35
10130 On ch=1 n=c#5 v=0
10280 On ch=1 n=e5 v=35
10290 On ch=1 n=g#4 v=0
10430 On ch=1 n=d#5 v=35
10480 On ch=1 n=e5 v=0
10560 On ch=1 n=c#2 v=0
10574 On ch=1 n=c#5 v=35
10610 On ch=1 n=d#5 v=0
10720 On ch=1 n=e5 v=35
10780 On ch=1 n=c#4 v=0
10874 On ch=1 n=f#5 v=35
10904 On ch=1 n=e5 v=0
11060 On ch=1 n=g#6 v=63
11064 On ch=1 n=g#5 v=35
11100 On ch=1 n=f#5 v=0
11220 On ch=1 n=c#5 v=0
11254 On ch=1 n=c#6 v=59
11430 On ch=1 n=d#6 v=56
11440 On ch=1 n=c#6 v=0
11620 On ch=1 n=f#6 v=54
11644 On ch=1 n=d#6 v=0
11680 On ch=1 n=g#6 v=0
11714 On ch=1 n=e6 v=53
11770 On ch=1 n=f#6 v=0
11870 On ch=1 n=g#5 v=0
11936 On ch=1 n=g#6 v=66
11936 On ch=1 n=d#6 v=62
11952 On ch=1 n=g#5 v=27
12030 On ch=1 n=e6 v=0
12250 On ch=1 n=c#3 v=50
12430 On ch=1 n=g#3 v=35
12584 On ch=1 n=e4 v=35
12590 On ch=1 n=g#3 v=0
12740 On ch=1 n=d#4 v=35
12820 On ch=1 n=e4 v=0
12874 On ch=1 n=c#4 v=35
12880 On ch=1 n=d#4 v=0
13030 On ch=1 n=g#4 v=35
13092 On ch=1 n=d#6 v=0
13180 On ch=1 n=c#6 v=54
13190 On ch=1 n=g#4 v=0
13190 On ch=1 n=e5 v=35
13340 On ch=1 n=d#5 v=35
13364 On ch=1 n=e5 v=0
13480 On ch=1 n=c#5 v=35
13510 On ch=1 n=d#5 v=0
13600 On ch=1 n=c#4 v=0
13624 On ch=1 n=e5 v=35
13636 On ch=1 n=g#5 v=0
13752 On ch=1 n=g#6 v=0
13774 On ch=1 n=f#5 v=35
13820 On ch=1 n=c#6 v=0
13824 On ch=1 n=e5 v=0
13950 On ch=1 n=c#3 v=0
13950 On ch=1 n=g#6 v=65
13950 On ch=1 n=g#5 v=35
14104 On ch=1 n=c#6 v=59
14154 On ch=1 n=c#5 v=0
14224 On ch=1 n=g#6 v=0
14260 On ch=1 n=f#5 v=0
14274 On ch=1 n=e6 v=53
14320 On ch=1 n=c#6 v=0
14334 On ch=1 n=g#5 v=0
14480 On ch=1 n=a#5 v=37
14484 On ch=1 n=f#3 v=50
14490 On ch=1 n=a#6 v=71
14510 On ch=1 n=e6 v=0
14610 On ch=1 n=a#5 v=0
14644 On ch=1 n=a#6 v=0
14660 On ch=1 n=a#5 v=73
14710 On ch=1 n=a#5 v=0
14740 On ch=1 n=a#5 v=67
14810 On ch=1 n=e6 v=54
14850 On ch=1 n=c#7 v=73
15064 On ch=1 n=b2 v=50
15080 On ch=1 n=f#3 v=0
15260 On ch=1 n=f#3 v=35
15432 On ch=1 n=e6 v=0
15434 On ch=1 n=a#5 v=0
15440 On ch=1 n=b6 v=46
15440 On ch=1 n=d#6 v=42
15440 On ch=1 n=b5 v=25
15440 On ch=1 n=d#4 v=35
15450 On ch=1 n=c#7 v=0
15454 On ch=1 n=f#3 v=0
15604 On ch=1 n=c#4 v=35
15650 On ch=1 n=d#4 v=0
15764 On ch=1 n=b3 v=35
15784 On ch=1 n=c#4 v=0
15914 On ch=1 n=f#4 v=35
16054 On ch=1 n=f#4 v=0
16054 On ch=1 n=d#5 v=35
16180 On ch=1 n=c#5 v=35
16204 On ch=1 n=d#5 v=0
16320 On ch=1 n=b4 v=35
16334 On ch=1 n=c#5 v=0
16440 On ch=1 n=b3 v=0
16460 On ch=1 n=d#5 v=35
16614 On ch=1 n=e5 v=35
16640 On ch=1 n=d#5 v=0
16740 On ch=1 n=b5 v=0
16740 On ch=1 n=d#6 v=0
16740 On ch=1 n=b6 v=0
16780 On ch=1 n=f#6 v=59
16790 On ch=1 n=f#5 v=35
16834 On ch=1 n=e5 v=0
16854 On ch=1 n=b2 v=0
16950 On ch=1 n=b5 v=56
17004 On ch=1 n=b4 v=0
17094 On ch=1 n=c#6 v=57
17124 On ch=1 n=b5 v=0
17220 On ch=1 n=f#6 v=0
17244 On ch=1 n=e6 v=55
17254 On ch=1 n=c#6 v=0
17320 On ch=1 n=d6 v=61
17370 On ch=1 n=e6 v=0
17440 On ch=1 n=f#5 v=0
17488 On ch=1 n=c#6 v=58
17504 On ch=1 n=f#6 v=58
17504 On ch=1 n=f#5 v=41
17580 On ch=1 n=d6 v=0
17734 On ch=1 n=b2 v=50
17890 On ch=1 n=f#3 v=35
18040 On ch=1 n=d4 v=35
18050 On ch=1 n=f#3 v=0
18230 On ch=1 n=c#4 v=35
18294 On ch=1 n=d4 v=0
18380 On ch=1 n=b3 v=35
18400 On ch=1 n=c#4 v=0
18520 On ch=1 n=f#4 v=35
18638 On ch=1 n=c#6 v=0
18670 On ch=1 n=d5 v=35
18680 On ch=1 n=f#4 v=0
18684 On ch=1 n=b5 v=51
18810 On ch=1 n=c#5 v=35
18840 On ch=1 n=d5 v=0
18950 On ch=1 n=c#5 v=0
18950 On ch=1 n=b4 v=35
19074 On ch=1 n=d5 v=35
19100 On ch=1 n=b3 v=0
19174 On ch=1 n=f#5 v=0
19180 On ch=1 n=b5 v=0
19200 On ch=1 n=e5 v=35
19238 On ch=1 n=f#6 v=0
19240 On ch=1 n=d5 v=0
19354 On ch=1 n=f#6 v=55
19354 On ch=1 n=f#5 v=56
19430 On ch=1 n=b2 v=0
19470 On ch=1 n=e5 v=0
19504 On ch=1 n=b5 v=47
19590 On ch=1 n=f#6 v=0
19640 On ch=1 n=f#5 v=0
19644 On ch=1 n=d6 v=50
19660 On ch=1 n=b5 v=0
19660 On ch=1 n=b4 v=0
19820 On ch=1 n=e3 v=50
19824 On ch=1 n=g#6 v=58
19824 On ch=1 n=g#5 v=52
19840 On ch=1 n=d6 v=0
19954 On ch=1 n=g#5 v=0
20000 On ch=1 n=g#5 v=71
20044 On ch=1 n=g#5 v=0
20080 On ch=1 n=g#6 v=0
20080 On ch=1 n=g#5 v=62
20150 On ch=1 n=d6 v=54
20204 On ch=1 n=b6 v=74
20390 On ch=1 n=e3 v=0
20400 On ch=1 n=a2 v=50
20620 On ch=1 n=e3 v=35
20788 On ch=1 n=g#5 v=0
20798 On ch=1 n=d6 v=0
20800 On ch=1 n=a5 v=49
20802 On ch=1 n=b6 v=0
20814 On ch=1 n=c#4 v=35
20814 On ch=1 n=c#6 v=36
20814 On ch=1 n=a6 v=57
21020 On ch=1 n=b3 v=35
21160 On ch=1 n=c#4 v=0
21204 On ch=1 n=b3 v=0
21240 On ch=1 n=a3 v=35
21304 On ch=1 n=e3 v=0
21324 On ch=1 n=c#6 v=0
21340 On ch=1 n=a5 v=0
21390 On ch=1 n=a6 v=0
21394 On ch=1 n=c#6 v=51
21410 On ch=1 n=a6 v=52
21414 On ch=1 n=a5 v=50
21414 On ch=1 n=e4 v=35
21580 On ch=1 n=c#5 v=35
21674 On ch=1 n=a6 v=0
21694 On ch=1 n=a5 v=0
21694 On ch=1 n=c#6 v=0
21704 On ch=1 n=c#5 v=0
21720 On ch=1 n=a3 v=0
21760 On ch=1 n=a6 v=63
21760 On ch=1 n=c#6 v=59
21760 On ch=1 n=a5 v=56
21924 On ch=1 n=e4 v=0
21924 On ch=1 n=f3 v=45
22060 On ch=1 n=a2 v=0
22094 On ch=1 n=b5 v=48
22100 On ch=1 n=a5 v=0
22100 On ch=1 n=c#6 v=0
22100 On ch=1 n=a6 v=0
22100 On ch=1 n=g#6 v=61
22100 On ch=1 n=g#5 v=50
22130 On ch=1 n=c#4 v=35
22320 On ch=1 n=c#5 v=35
22420 On ch=1 n=c#4 v=0
22474 On ch=1 n=b5 v=0
22480 On ch=1 n=g#5 v=0
22480 On ch=1 n=g#6 v=0
22510 On ch=1 n=f#6 v=56
22514 On ch=1 n=a5 v=51
22524 On ch=1 n=f#5 v=55
22570 On ch=1 n=c#5 v=0
22660 On ch=1 n=f3 v=0
22710 On ch=1 n=f#3 v=48
22890 On ch=1 n=f#6 v=0
22894 On ch=1 n=a5 v=0
22904 On ch=1 n=f#5 v=0
22920 On ch=1 n=g#6 v=57
22924 On ch=1 n=b5 v=50
22930 On ch=1 n=g#5 v=45
22950 On ch=1 n=c#4 v=35
23170 On ch=1 n=c#5 v=35
23390 On ch=1 n=c#4 v=0
23400 On ch=1 n=g#6 v=0
23404 On ch=1 n=b5 v=0
23410 On ch=1 n=g#5 v=0
23420 On ch=1 n=c#5 v=0
23440 On ch=1 n=f#6 v=54
23450 On ch=1 n=f#3 v=0
23450 On ch=1 n=a5 v=52
23450 On ch=1 n=f#5 v=43
23650 On ch=1 n=d3 v=50
23804 On ch=1 n=a3 v=35
23944 On ch=1 n=f#4 v=35
24100 On ch=1 n=e4 v=35
24110 On ch=1 n=f#4 v=0
24240 On ch=1 n=d4 v=35
24260 On ch=1 n=e4 v=0
24310 On ch=1 n=a3 v=0
24440 On ch=1 n=a4 v=35
24444 On ch=1 n=f#6 v=0
24480 On ch=1 n=f#5 v=0
24604 On ch=1 n=f#5 v=35
24664 On ch=1 n=a4 v=0
24700 On ch=1 n=e6 v=62
24700 On ch=1 n=e5 v=45
24740 On ch=1 n=a5 v=0
24750 On ch=1 n=f#5 v=0
24804 On ch=1 n=d4 v=0
24814 On ch=1 n=e5 v=0
24824 On ch=1 n=e6 v=0
24850 On ch=1 n=d3 v=0
24850 On ch=1 n=e6 v=64
24860 On ch=1 n=e5 v=40
24860 On ch=1 n=a5 v=61
25050 On ch=1 n=d3 v=50
25160 On ch=1 n=e5 v=0
25234 On ch=1 n=d6 v=54
25240 On ch=1 n=d5 v=37
25240 On ch=1 n=a3 v=35
25260 On ch=1 n=e6 v=0
25380 On ch=1 n=a3 v=0
25400 On ch=1 n=f#4 v=35
25560 On ch=1 n=e4 v=35
25574 On ch=1 n=f#4 v=0
25710 On ch=1 n=d4 v=35
25724 On ch=1 n=e4 v=0
25750 On ch=1 n=a5 v=0
25844 On ch=1 n=d5 v=0
25890 On ch=1 n=d6 v=0
25894 On ch=1 n=a5 v=62
25900 On ch=1 n=d5 v=47
25900 On ch=1 n=a4 v=35
26140 On ch=1 n=f#5 v=35
26230 On ch=1 n=a4 v=0
26244 On ch=1 n=d4 v=0
26304 On ch=1 n=d3 v=0
26350 On ch=1 n=d5 v=0
26350 On ch=1 n=a5 v=0
26380 On ch=1 n=b5 v=64
26390 On ch=1 n=b4 v=51
26390 On ch=1 n=g5 v=49
26394 On ch=1 n=d5 v=48
26404 On ch=1 n=f#5 v=0
26580 On ch=1 n=g2 v=50
26734 On ch=1 n=g3 v=35
26890 On ch=1 n=d4 v=35
27020 On ch=1 n=e4 v=35
27040 On ch=1 n=d4 v=0
27184 On ch=1 n=d4 v=35
27204 On ch=1 n=e4 v=0
27340 On ch=1 n=g4 v=35
27400 On ch=1 n=g3 v=0
27454 On ch=1 n=d5 v=0
27470 On ch=1 n=e5 v=58
27500 On ch=1 n=d4 v=0
27500 On ch=1 n=e4 v=35
27580 On ch=1 n=b5 v=0
27600 On ch=1 n=b4 v=0
27660 On ch=1 n=g4 v=0
27680 On ch=1 n=g5 v=0
27690 On ch=1 n=a5 v=55
27694 On ch=1 n=f#5 v=51
27700 On ch=1 n=a4 v=45
27710 On ch=1 n=e5 v=0
27710 On ch=1 n=d4 v=35
27714 On ch=1 n=e4 v=0
27740 On ch=1 n=g2 v=0
27880 On ch=1 n=a3 v=35
28034 On ch=1 n=d3 v=35
28070 On ch=1 n=a3 v=0
28074 On ch=1 n=f#5 v=0
28210 On ch=1 n=f#5 v=52
28214 On ch=1 n=f#4 v=35
28224 On ch=1 n=d5 v=45
28280 On ch=1 n=a4 v=0
28290 On ch=1 n=d3 v=0
28310 On ch=1 n=d4 v=0
28310 On ch=1 n=a5 v=0
28400 On ch=1 n=a4 v=49
28404 On ch=1 n=f#5 v=0
28414 On ch=1 n=f#5 v=56
28424 On ch=1 n=a5 v=49
28430 On ch=1 n=d4 v=35
28490 On ch=1 n=f#4 v=0
28500 On ch=1 n=d5 v=0
28584 On ch=1 n=a3 v=35
28750 On ch=1 n=g3 v=35
28774 On ch=1 n=a3 v=0
28834 On ch=1 n=d4 v=0
28894 On ch=1 n=f#3 v=35
28930 On ch=1 n=g3 v=0
29024 On ch=1 n=f#5 v=0
29044 On ch=1 n=a5 v=0
29050 On ch=1 n=f#3 v=0
29100 On ch=1 n=f#2 v=45
29114 On ch=1 n=f#5 v=47
29124 On ch=1 n=a5 v=49
29124 On ch=1 n=c#5 v=34
29290 On ch=1 n=f#3 v=35
29360 On ch=1 n=a4 v=0
29440 On ch=1 n=c#4 v=35
29524 On ch=1 n=f#3 v=0
29554 On ch=1 n=a4 v=35
29634 On ch=1 n=c#5 v=0
29680 On ch=1 n=g#4 v=35
29740 On ch=1 n=c#4 v=0
29750 On ch=1 n=a4 v=0
29810 On ch=1 n=f#4 v=35
29874 On ch=1 n=f#5 v=0
29894 On ch=1 n=a5 v=0
29900 On ch=1 n=g#4 v=0
29950 On ch=1 n=c#5 v=35
30094 On ch=1 n=a5 v=35
30234 On ch=1 n=g#5 v=35
30334 On ch=1 n=a5 v=0
30374 On ch=1 n=f#5 v=35
30404 On ch=1 n=g#5 v=0
30534 On ch=1 n=a5 v=35
30580 On ch=1 n=c#5 v=0
30690 On ch=1 n=b5 v=35
30730 On ch=1 n=a5 v=0
30880 On ch=1 n=c#7 v=49
30884 On ch=1 n=c#6 v=28
31054 On ch=1 n=f#5 v=0
31074 On ch=1 n=f#4 v=0
31080 On ch=1 n=f#2 v=0
31090 On ch=1 n=f#6 v=50
31134 On ch=1 n=b5 v=0
31144 On ch=1 n=c#7 v=0
31284 On ch=1 n=g#6 v=49
31330 On ch=1 n=f#6 v=0
31470 On ch=1 n=b6 v=44
31480 On ch=1 n=g#6 v=0
31524 On ch=1 n=a6 v=49
31564 On ch=1 n=b6 v=0
31724 On ch=1 n=c#6 v=0
31744 On ch=1 n=c#7 v=32
31744 On ch=1 n=g#6 v=58
31744 On ch=1 n=c#6 v=32
31894 On ch=1 n=a6 v=0
32032 On ch=1 n=f#3 v=50
32270 On ch=1 n=c#4 v=35
32394 On ch=1 n=c#4 v=0
32410 On ch=1 n=a4 v=35
32544 On ch=1 n=g#4 v=35
32620 On ch=1 n=a4 v=0
32690 On ch=1 n=g#4 v=0
32690 On ch=1 n=f#4 v=35
32840 On ch=1 n=c#5 v=35
32898 On ch=1 n=g#6 v=0
32976 On ch=1 n=f#6 v=46
32990 On ch=1 n=c#5 v=0
32990 On ch=1 n=a5 v=35
33130 On ch=1 n=g#5 v=35
33174 On ch=1 n=a5 v=0
33270 On ch=1 n=f#5 v=35
33294 On ch=1 n=g#5 v=0
33430 On ch=1 n=a5 v=35
33440 On ch=1 n=f#4 v=0
33460 On ch=1 n=c#6 v=0
33498 On ch=1 n=c#7 v=0
33506 On ch=1 n=f#6 v=0
33564 On ch=1 n=b5 v=35
33630 On ch=1 n=a5 v=0
33688 On ch=1 n=f#3 v=0
33730 On ch=1 n=c#7 v=54
33734 On ch=1 n=c#6 v=29
33884 On ch=1 n=f#6 v=55
34010 On ch=1 n=b5 v=0
34060 On ch=1 n=f#5 v=0
34074 On ch=1 n=a6 v=51
34100 On ch=1 n=f#6 v=0
34274 On ch=1 n=b3 v=50
34280 On ch=1 n=c#7 v=0
34280 On ch=1 n=d#6 v=42
34284 On ch=1 n=c#6 v=0
34290 On ch=1 n=d#7 v=48
34320 On ch=1 n=a6 v=0
34470 On ch=1 n=d#6 v=0
34514 On ch=1 n=d#6 v=64
34560 On ch=1 n=d#6 v=0
34584 On ch=1 n=d#6 v=56
34612 On ch=1 n=d#7 v=0
34684 On ch=1 n=a6 v=52
34730 On ch=1 n=f#7 v=63
34800 On ch=1 n=e3 v=50
34870 On ch=1 n=b3 v=0
35044 On ch=1 n=b3 v=35
35230 On ch=1 n=a6 v=0
35230 On ch=1 n=d#6 v=0
35230 On ch=1 n=e7 v=53
35230 On ch=1 n=g#4 v=35
35240 On ch=1 n=g#6 v=40
35244 On ch=1 n=b3 v=0
35244 On ch=1 n=e6 v=24
35246 On ch=1 n=f#7 v=0
35394 On ch=1 n=f#4 v=35
35420 On ch=1 n=g#4 v=0
35534 On ch=1 n=e4 v=35
35544 On ch=1 n=f#4 v=0
35694 On ch=1 n=b4 v=35
35830 On ch=1 n=g#5 v=35
35840 On ch=1 n=b4 v=0
35970 On ch=1 n=f#5 v=35
36014 On ch=1 n=g#5 v=0
36120 On ch=1 n=e5 v=35
36134 On ch=1 n=f#5 v=0
36250 On ch=1 n=g#5 v=35
36400 On ch=1 n=a5 v=35
36430 On ch=1 n=g#5 v=0
36564 On ch=1 n=b6 v=67
36570 On ch=1 n=b5 v=35
36594 On ch=1 n=e7 v=0
36604 On ch=1 n=g#6 v=0
36610 On ch=1 n=e6 v=0
36620 On ch=1 n=a5 v=0
36710 On ch=1 n=e6 v=62
36774 On ch=1 n=e5 v=0
36810 On ch=1 n=e4 v=0
36860 On ch=1 n=f#6 v=51
36934 On ch=1 n=e6 v=0
36944 On ch=1 n=b6 v=0
37004 On ch=1 n=a6 v=53
37024 On ch=1 n=f#6 v=0
37074 On ch=1 n=g6 v=62
37120 On ch=1 n=a6 v=0
37140 On ch=1 n=e3 v=0
37194 On ch=1 n=b5 v=0
37232 On ch=1 n=b6 v=62
37248 On ch=1 n=f#6 v=60
37248 On ch=1 n=b5 v=39
37334 On ch=1 n=g6 v=0
37494 On ch=1 n=e3 v=50
37664 On ch=1 n=b3 v=35
37804 On ch=1 n=b3 v=0
37804 On ch=1 n=g4 v=35
37934 On ch=1 n=f#4 v=35
38004 On ch=1 n=g4 v=0
38100 On ch=1 n=e4 v=35
38104 On ch=1 n=f#4 v=0
38254 On ch=1 n=b4 v=35
38410 On ch=1 n=b4 v=0
38414 On ch=1 n=g5 v=35
38420 On ch=1 n=e6 v=55
38438 On ch=1 n=f#6 v=0
38554 On ch=1 n=f#5 v=35
38600 On ch=1 n=g5 v=0
38694 On ch=1 n=e5 v=35
38700 On ch=1 n=f#5 v=0
38850 On ch=1 n=g5 v=35
38968 On ch=1 n=b5 v=0
38978 On ch=1 n=b6 v=0
38994 On ch=1 n=a5 v=35
39014 On ch=1 n=g5 v=0
39170 On ch=1 n=b6 v=67
39174 On ch=1 n=b5 v=35
39290 On ch=1 n=e6 v=0
39330 On ch=1 n=a5 v=0
39330 On ch=1 n=e6 v=61
39334 On ch=1 n=e4 v=0
39350 On ch=1 n=e5 v=0
39524 On ch=1 n=g6 v=40
39554 On ch=1 n=e6 v=0
39690 On ch=1 n=e3 v=0
39708 On ch=1 n=b6 v=0
39712 On ch=1 n=b5 v=0
39740 On ch=1 n=c#7 v=59
39744 On ch=1 n=c#6 v=55
39750 On ch=1 n=a3 v=50
39950 On ch=1 n=g6 v=0
39990 On ch=1 n=c#6 v=0
40000 On ch=1 n=c#7 v=0
40000 On ch=1 n=c#7 v=68
40016 On ch=1 n=g6 v=63
40016 On ch=1 n=c#6 v=62
40220 On ch=1 n=a3 v=0
40320 On ch=1 n=a#3 v=50
40532 On ch=1 n=c#7 v=0
40540 On ch=1 n=d7 v=62
40548 On ch=1 n=c#6 v=0
40548 On ch=1 n=g6 v=0
40550 On ch=1 n=f6 v=56
40550 On ch=1 n=d6 v=42
40564 On ch=1 n=f4 v=45
40714 On ch=1 n=d5 v=45
40748 On ch=1 n=f4 v=0
40864 On ch=1 n=c5 v=45
40910 On ch=1 n=d5 v=0
41024 On ch=1 n=a#4 v=45
41034 On ch=1 n=c5 v=0
41232 On ch=1 n=f6 v=0
41232 On ch=1 n=f5 v=45
41258 On ch=1 n=d7 v=0
41260 On ch=1 n=c7 v=67
41268 On ch=1 n=d6 v=0
41270 On ch=1 n=f6 v=62
41274 On ch=1 n=c6 v=48
41456 On ch=1 n=d6 v=45
41600 On ch=1 n=a#3 v=0
41610 On ch=1 n=c7 v=0
41620 On ch=1 n=f6 v=0
41624 On ch=1 n=c6 v=0
41680 On ch=1 n=d#6 v=63
41680 On ch=1 n=c6 v=64
41696 On ch=1 n=c7 v=68
41712 On ch=1 n=f5 v=0
41726 On ch=1 n=d6 v=0
41904 On ch=1 n=d#3 v=55
41920 On ch=1 n=a#4 v=0
42034 On ch=1 n=c6 v=0
42034 On ch=1 n=d#6 v=0
42050 On ch=1 n=c7 v=0
42070 On ch=1 n=a#6 v=58
42070 On ch=1 n=a#3 v=45
42074 On ch=1 n=a#5 v=38
42080 On ch=1 n=g6 v=53
42210 On ch=1 n=a#3 v=0
42210 On ch=1 n=g4 v=45
42314 On ch=1 n=a#5 v=0
42320 On ch=1 n=g6 v=0
42354 On ch=1 n=f4 v=45
42360 On ch=1 n=g6 v=65
42374 On ch=1 n=d#6 v=54
42380 On ch=1 n=a#6 v=0
42380 On ch=1 n=g5 v=53
42400 On ch=1 n=g4 v=0
42510 On ch=1 n=d#4 v=45
42534 On ch=1 n=f4 v=0
42620 On ch=1 n=g6 v=0
42634 On ch=1 n=d#6 v=0
42650 On ch=1 n=a#6 v=60
42654 On ch=1 n=g6 v=67
42660 On ch=1 n=a#5 v=49
42670 On ch=1 n=a#4 v=45
42680 On ch=1 n=g5 v=0
42834 On ch=1 n=g5 v=45
42940 On ch=1 n=g5 v=0
42970 On ch=1 n=a#6 v=0
42974 On ch=1 n=g6 v=0
42980 On ch=1 n=a#4 v=0
42980 On ch=1 n=a#5 v=0
42992 On ch=1 n=f6 v=69
42992 On ch=1 n=f5 v=56
43008 On ch=1 n=d6 v=60
43008 On ch=1 n=a#5 v=59
43094 On ch=1 n=d#3 v=0
43190 On ch=1 n=f3 v=55
43274 On ch=1 n=d#4 v=0
43324 On ch=1 n=d4 v=45
43464 On ch=1 n=d4 v=0
43470 On ch=1 n=f4 v=45
43600 On ch=1 n=g4 v=45
43630 On ch=1 n=f4 v=0
43730 On ch=1 n=f4 v=45
43740 On ch=1 n=g4 v=0
43854 On ch=1 n=d#5 v=45
43938 On ch=1 n=d6 v=0
44000 On ch=1 n=d#5 v=0
44014 On ch=1 n=d5 v=45
44022 On ch=1 n=a#5 v=0
44042 On ch=1 n=f5 v=0
44046 On ch=1 n=f6 v=0
44110 On ch=1 n=f4 v=0
44174 On ch=1 n=d5 v=0
44200 On ch=1 n=f2 v=55
44208 On ch=1 n=f6 v=56
44208 On ch=1 n=d6 v=54
44208 On ch=1 n=a5 v=55
44208 On ch=1 n=d#5 v=59
44394 On ch=1 n=f3 v=0
44416 On ch=1 n=f3 v=45
44616 On ch=1 n=c4 v=45
44786 On ch=1 n=f3 v=0
44816 On ch=1 n=d#4 v=45
44866 On ch=1 n=c4 v=0
45020 On ch=1 n=g4 v=45
45032 On ch=1 n=d#4 v=0
45190 On ch=1 n=f4 v=45
45210 On ch=1 n=g4 v=0
45224 On ch=1 n=f2 v=0
45384 On ch=1 n=d5 v=45
45494 On ch=1 n=f4 v=0
45550 On ch=1 n=a5 v=0
45550 On ch=1 n=d6 v=0
45550 On ch=1 n=f6 v=0
45570 On ch=1 n=d5 v=0
45570 On ch=1 n=d#6 v=59
45574 On ch=1 n=c5 v=45
45662 On ch=1 n=d#5 v=0
45820 On ch=1 n=f#2 v=55
45824 On ch=1 n=c#5 v=56
45830 On ch=1 n=c#6 v=63
45832 On ch=1 n=d#6 v=0
45834 On ch=1 n=a#5 v=58
45836 On ch=1 n=c5 v=0
45994 On ch=1 n=f#3 v=45
46160 On ch=1 n=c#4 v=45
46320 On ch=1 n=c#4 v=0
46330 On ch=1 n=a#4 v=45
46500 On ch=1 n=c#5 v=0
46506 On ch=1 n=c#6 v=0
46510 On ch=1 n=a#5 v=0
46530 On ch=1 n=g#4 v=45
46540 On ch=1 n=a#5 v=69
46550 On ch=1 n=a#6 v=78
46550 On ch=1 n=c#6 v=68
46560 On ch=1 n=a#4 v=0
46694 On ch=1 n=f#4 v=45
46700 On ch=1 n=f#3 v=0
46710 On ch=1 n=g#4 v=0
46864 On ch=1 n=c#5 v=45
46910 On ch=1 n=f#4 v=0
46976 On ch=1 n=a#5 v=0
47020 On ch=1 n=f#2 v=0
47020 On ch=1 n=a#5 v=45
47180 On ch=1 n=a#5 v=0
47184 On ch=1 n=c#5 v=0
47220 On ch=1 n=g#6 v=74
47226 On ch=1 n=c#6 v=0
47226 On ch=1 n=a#6 v=0
47230 On ch=1 n=g#5 v=59
47234 On ch=1 n=b5 v=64
47420 On ch=1 n=b2 v=55
47554 On ch=1 n=b5 v=0
47564 On ch=1 n=b5 v=49
47574 On ch=1 n=g#6 v=0
47580 On ch=1 n=f#6 v=68
47580 On ch=1 n=f#5 v=53
47580 On ch=1 n=f#3 v=45
47584 On ch=1 n=g#5 v=0
47730 On ch=1 n=f#3 v=0
47734 On ch=1 n=d#4 v=45
47804 On ch=1 n=b5 v=0
47870 On ch=1 n=c#4 v=45
47880 On ch=1 n=d#4 v=0
47890 On ch=1 n=d#6 v=68
47890 On ch=1 n=b5 v=51
47890 On ch=1 n=d#5 v=67
47920 On ch=1 n=f#5 v=0
47930 On ch=1 n=f#6 v=0
48010 On ch=1 n=b3 v=45
48030 On ch=1 n=c#4 v=0
48084 On ch=1 n=b2 v=0
48140 On ch=1 n=b5 v=0
48150 On ch=1 n=f#6 v=68
48154 On ch=1 n=f#4 v=45
48164 On ch=1 n=b5 v=67
48164 On ch=1 n=f#5 v=64
48174 On ch=1 n=d#5 v=0
48174 On ch=1 n=d#6 v=0
48304 On ch=1 n=d#5 v=45
48360 On ch=1 n=f#4 v=0
48470 On ch=1 n=c#5 v=60
48474 On ch=1 n=d#5 v=0
48474 On ch=1 n=f#5 v=0
48478 On ch=1 n=f#6 v=0
48480 On ch=1 n=c#6 v=80
48480 On ch=1 n=a#5 v=63
48480 On ch=1 n=f#5 v=58
48490 On ch=1 n=c#3 v=55
48492 On ch=1 n=b5 v=0
48550 On ch=1 n=b3 v=0
48680 On ch=1 n=c#4 v=45
48840 On ch=1 n=f#4 v=45
49000 On ch=1 n=a#4 v=45
49020 On ch=1 n=f#4 v=0
49158 On ch=1 n=c#6 v=0
49190 On ch=1 n=c#5 v=0
49200 On ch=1 n=f#5 v=0
49200 On ch=1 n=a#5 v=0
49230 On ch=1 n=c#6 v=49
49230 On ch=1 n=g#4 v=45
49234 On ch=1 n=d#6 v=62
49240 On ch=1 n=d#5 v=62
49254 On ch=1 n=a#4 v=0
49254 On ch=1 n=b5 v=70
49320 On ch=1 n=c#4 v=0
49424 On ch=1 n=g4 v=45
49440 On ch=1 n=g#4 v=0
49644 On ch=1 n=b4 v=45
49654 On ch=1 n=g4 v=0
49814 On ch=1 n=a#4 v=45
49864 On ch=1 n=b4 v=0
49950 On ch=1 n=c#6 v=0
49954 On ch=1 n=d#6 v=0
49974 On ch=1 n=b5 v=0
49994 On ch=1 n=d#5 v=0
50000 On ch=1 n=d#5 v=51
50000 On ch=1 n=c#4 v=45
50016 On ch=1 n=d#6 v=57
50016 On ch=1 n=b5 v=76
50016 On ch=1 n=g#5 v=55
50054 On ch=1 n=a#4 v=0
50134 On ch=1 n=c#3 v=0
50320 On ch=1 n=g4 v=50
50520 On ch=1 n=g#4 v=50
50558 On ch=1 n=g4 v=0
50670 On ch=1 n=b4 v=50
50684 On ch=1 n=g#4 v=0
50800 On ch=1 n=a#4 v=50
50844 On ch=1 n=b4 v=0
50950 On ch=1 n=g#4 v=50
50990 On ch=1 n=a#4 v=0
51026 On ch=1 n=c#4 v=0
51054 On ch=1 n=d#5 v=0
51070 On ch=1 n=g#5 v=0
51070 On ch=1 n=b5 v=0
51070 On ch=1 n=d#6 v=0
51104 On ch=1 n=f6 v=69
51104 On ch=1 n=c#6 v=59
51104 On ch=1 n=f5 v=62
51114 On ch=1 n=b5 v=63
51114 On ch=1 n=d#5 v=50
51130 On ch=1 n=g#4 v=0
51290 On ch=1 n=c#5 v=50
51314 On ch=1 n=d#5 v=0
51420 On ch=1 n=f6 v=0
51450 On ch=1 n=b5 v=0
51470 On ch=1 n=f5 v=0
51470 On ch=1 n=c#6 v=0
51498 On ch=1 n=c#5 v=0
51510 On ch=1 n=f#2 v=69
51530 On ch=1 n=a#5 v=63
51534 On ch=1 n=c#6 v=61
51540 On ch=1 n=f5 v=75
51552 On ch=1 n=f6 v=70
51680 On ch=1 n=f#3 v=50
51874 On ch=1 n=c#4 v=50
52060 On ch=1 n=a#4 v=50
52062 On ch=1 n=f5 v=0
52070 On ch=1 n=f#6 v=66
52070 On ch=1 n=f#5 v=40
52074 On ch=1 n=f6 v=0
52090 On ch=1 n=c#4 v=0
52240 On ch=1 n=g#4 v=50
52274 On ch=1 n=a#4 v=0
52380 On ch=1 n=f#4 v=50
52394 On ch=1 n=g#4 v=0
52474 On ch=1 n=a#5 v=0
52520 On ch=1 n=c#5 v=50
52650 On ch=1 n=a#5 v=50
52654 On ch=1 n=c#6 v=0
52700 On ch=1 n=c#5 v=0
52800 On ch=1 n=g#5 v=50
52824 On ch=1 n=a#5 v=0
52830 On ch=1 n=f#5 v=0
52880 On ch=1 n=f#3 v=0
52950 On ch=1 n=f#5 v=50
52970 On ch=1 n=g#5 v=0
53140 On ch=1 n=f#4 v=0
53140 On ch=1 n=a#5 v=50
53284 On ch=1 n=b5 v=50
53320 On ch=1 n=a#5 v=0
53330 On ch=1 n=f#6 v=0
53464 On ch=1 n=c#7 v=64
53470 On ch=1 n=c#6 v=50
53510 On ch=1 n=f#2 v=0
53570 On ch=1 n=f#5 v=0
53594 On ch=1 n=b5 v=0
53634 On ch=1 n=e6 v=67
53800 On ch=1 n=a#6 v=64
54000 On ch=1 n=g#6 v=58
54010 On ch=1 n=a#6 v=0
54010 On ch=1 n=c#7 v=0
54100 On ch=1 n=e6 v=0
54100 On ch=1 n=c#7 v=67
54134 On ch=1 n=g#6 v=0
54170 On ch=1 n=c#6 v=0
54190 On ch=1 n=c#7 v=0
54234 On ch=1 n=c#7 v=71
54234 On ch=1 n=c#6 v=73
54240 On ch=1 n=e6 v=68
54250 On ch=1 n=a#6 v=62
54250 On ch=1 n=g#6 v=67
54260 On ch=1 n=f#2 v=50
54440 On ch=1 n=f#3 v=50
54600 On ch=1 n=c#4 v=50
54730 On ch=1 n=a#4 v=50
54760 On ch=1 n=c#4 v=0
54860 On ch=1 n=g#4 v=50
54890 On ch=1 n=a#4 v=0
55000 On ch=1 n=g#4 v=0
55000 On ch=1 n=f#4 v=50
55110 On ch=1 n=g#6 v=0
55140 On ch=1 n=c#5 v=50
55170 On ch=1 n=e6 v=0
55244 On ch=1 n=a#6 v=0
55290 On ch=1 n=a#5 v=50
55300 On ch=1 n=f#6 v=55
55304 On ch=1 n=c#5 v=0
55424 On ch=1 n=g#5 v=50
55450 On ch=1 n=a#5 v=0
55554 On ch=1 n=f#5 v=50
55580 On ch=1 n=g#5 v=0
55670 On ch=1 n=f#3 v=0
55684 On ch=1 n=a#5 v=50
55730 On ch=1 n=f#4 v=0
55750 On ch=1 n=f#5 v=0
55784 On ch=1 n=f#6 v=0
55820 On ch=1 n=b5 v=50
55830 On ch=1 n=c#7 v=0
55834 On ch=1 n=a#5 v=0
55840 On ch=1 n=c#6 v=0
55954 On ch=1 n=c#7 v=70
55960 On ch=1 n=c#6 v=50
56090 On ch=1 n=e6 v=67
56110 On ch=1 n=b5 v=0
56230 On ch=1 n=f#2 v=0
56250 On ch=1 n=a#6 v=62
56270 On ch=1 n=e6 v=0
56270 On ch=1 n=c#7 v=0
56280 On ch=1 n=c#6 v=0
56432 On ch=1 n=d6 v=59
56434 On ch=1 n=a#6 v=0
56444 On ch=1 n=d7 v=68
56444 On ch=1 n=g#6 v=58
56464 On ch=1 n=e3 v=50
56762 On ch=1 n=d6 v=0
56774 On ch=1 n=g#6 v=0
56774 On ch=1 n=d7 v=0
56790 On ch=1 n=d#7 v=63
56790 On ch=1 n=g6 v=60
56794 On ch=1 n=d#6 v=62
56950 On ch=1 n=e3 v=0
56990 On ch=1 n=d#3 v=50
57154 On ch=1 n=a#3 v=50
57300 On ch=1 n=g4 v=50
57310 On ch=1 n=a#3 v=0
57440 On ch=1 n=g6 v=0
57440 On ch=1 n=d#7 v=0
57444 On ch=1 n=d#6 v=0
57460 On ch=1 n=a#5 v=52
57460 On ch=1 n=f4 v=50
57470 On ch=1 n=a#6 v=51
57470 On ch=1 n=g6 v=55
57514 On ch=1 n=g4 v=0
57610 On ch=1 n=d#4 v=50
57630 On ch=1 n=f4 v=0
57760 On ch=1 n=a#4 v=50
57894 On ch=1 n=g5 v=50
57904 On ch=1 n=a#4 v=0
58020 On ch=1 n=f5 v=50
58054 On ch=1 n=g5 v=0
58134 On ch=1 n=d#5 v=50
58150 On ch=1 n=g6 v=0
58160 On ch=1 n=f5 v=0
58260 On ch=1 n=a#5 v=0
58270 On ch=1 n=g5 v=50
58390 On ch=1 n=g#5 v=50
58414 On ch=1 n=a#6 v=0
58434 On ch=1 n=g5 v=0
58530 On ch=1 n=a#6 v=68
58540 On ch=1 n=a#5 v=50
58660 On ch=1 n=d#6 v=64
58674 On ch=1 n=g#5 v=0
58700 On ch=1 n=d#3 v=0
58794 On ch=1 n=g6 v=67
58814 On ch=1 n=d#5 v=0
58824 On ch=1 n=d#4 v=0
59030 On ch=1 n=f6 v=56
59070 On ch=1 n=g6 v=0
59100 On ch=1 n=a#6 v=0
59120 On ch=1 n=a#6 v=67
59210 On ch=1 n=a#6 v=0
59210 On ch=1 n=f6 v=0
59248 On ch=1 n=a#6 v=67
59248 On ch=1 n=g6 v=56
59248 On ch=1 n=f6 v=67
59254 On ch=1 n=a#5 v=0
59264 On ch=1 n=a#5 v=65
59300 On ch=1 n=d#6 v=0
59320 On ch=1 n=d#2 v=64
59494 On ch=1 n=d#3 v=50
59630 On ch=1 n=a#3 v=50
59744 On ch=1 n=g4 v=50
59750 On ch=1 n=a#3 v=0
59860 On ch=1 n=f4 v=50
59910 On ch=1 n=g4 v=0
59984 On ch=1 n=d#4 v=50
59990 On ch=1 n=f4 v=0
60062 On ch=1 n=f6 v=0
60120 On ch=1 n=a#4 v=50
60188 On ch=1 n=g6 v=0
60250 On ch=1 n=g5 v=33
60254 On ch=1 n=d#6 v=54
60260 On ch=1 n=a#4 v=0
60390 On ch=1 n=f5 v=50
60420 On ch=1 n=g5 v=0
60494 On ch=1 n=d#5 v=50
60500 On ch=1 n=f5 v=0
60560 On ch=1 n=a#5 v=0
60624 On ch=1 n=g5 v=50
60634 On ch=1 n=d#3 v=0
60654 On ch=1 n=a#6 v=0
60664 On ch=1 n=d#4 v=0
60732 On ch=1 n=d#6 v=0
60740 On ch=1 n=g#5 v=50
60784 On ch=1 n=g5 v=0
60874 On ch=1 n=a#6 v=73
60884 On ch=1 n=a#5 v=50
61000 On ch=1 n=d#6 v=70
61114 On ch=1 n=g6 v=62
61154 On ch=1 n=g#5 v=0
61240 On ch=1 n=d#5 v=0
61250 On ch=1 n=a#6 v=0
61254 On ch=1 n=b5 v=57
61260 On ch=1 n=a#5 v=0
61260 On ch=1 n=b6 v=69
61334 On ch=1 n=d#2 v=0
61360 On ch=1 n=d#6 v=0
61380 On ch=1 n=g6 v=0
61416 On ch=1 n=b5 v=0
61422 On ch=1 n=b6 v=0
61434 On ch=1 n=g#2 v=50
61444 On ch=1 n=b6 v=68
61444 On ch=1 n=g6 v=65
61444 On ch=1 n=d#6 v=65
61444 On ch=1 n=b5 v=64
61624 On ch=1 n=g#3 v=50
61762 On ch=1 n=b5 v=0
61762 On ch=1 n=g6 v=0
61762 On ch=1 n=b6 v=0
61790 On ch=1 n=d#4 v=50
61800 On ch=1 n=c7 v=48
61804 On ch=1 n=g#6 v=69
61804 On ch=1 n=c6 v=44
61950 On ch=1 n=d#4 v=0
61964 On ch=1 n=c5 v=50
62084 On ch=1 n=a#4 v=50
62170 On ch=1 n=c5 v=0
62210 On ch=1 n=g#4 v=50
62220 On ch=1 n=a#4 v=0
62314 On ch=1 n=c6 v=0
62344 On ch=1 n=d#5 v=50
62460 On ch=1 n=c6 v=50
62464 On ch=1 n=d#5 v=0
62580 On ch=1 n=a#5 v=50
62640 On ch=1 n=c6 v=0
62704 On ch=1 n=g#5 v=50
62734 On ch=1 n=a#5 v=0
62744 On ch=1 n=d#6 v=0
62840 On ch=1 n=g#3 v=0
62850 On ch=1 n=c6 v=50
62880 On ch=1 n=g#4 v=0
62950 On ch=1 n=c7 v=0
62954 On ch=1 n=g#6 v=0
62994 On ch=1 n=c#6 v=50
63070 On ch=1 n=c6 v=0
63152 On ch=1 n=d#7 v=68
63160 On ch=1 n=d#6 v=42
63170 On ch=1 n=c#6 v=0
63312 On ch=1 n=f#6 v=61
63404 On ch=1 n=g#2 v=0
63500 On ch=1 n=g#5 v=0
63520 On ch=1 n=c7 v=68
63820 On ch=1 n=a#6 v=54
63832 On ch=1 n=d#7 v=0
63934 On ch=1 n=d#7 v=46
63964 On ch=1 n=a#6 v=0
63984 On ch=1 n=f#6 v=0
64000 On ch=1 n=c7 v=0
64006 On ch=1 n=d#6 v=0
64050 On ch=1 n=d#7 v=0
64094 On ch=1 n=g#2 v=50
64096 On ch=1 n=d#6 v=66
64100 On ch=1 n=d#7 v=60
64100 On ch=1 n=f#6 v=62
64112 On ch=1 n=a#6 v=47
64334 On ch=1 n=g#3 v=50
64504 On ch=1 n=d#4 v=50
64654 On ch=1 n=d#4 v=0
64660 On ch=1 n=c5 v=50
64790 On ch=1 n=a#4 v=50
64854 On ch=1 n=c5 v=0
64904 On ch=1 n=f#6 v=0
64904 On ch=1 n=g#4 v=50
64910 On ch=1 n=a#4 v=0
65050 On ch=1 n=d#5 v=50
65060 On ch=1 n=d#7 v=0
65170 On ch=1 n=d#5 v=0
65180 On ch=1 n=g#6 v=32
65184 On ch=1 n=c6 v=50
65226 On ch=1 n=a#6 v=0
65294 On ch=1 n=a#5 v=50
65374 On ch=1 n=c6 v=0
65420 On ch=1 n=g#5 v=50
65444 On ch=1 n=a#5 v=0
65504 On ch=1 n=g#3 v=0
65560 On ch=1 n=c6 v=50
65590 On ch=1 n=g#4 v=0
65636 On ch=1 n=d#6 v=0
65670 On ch=1 n=c#6 v=50
65720 On ch=1 n=c6 v=0
65740 On ch=1 n=g#6 v=0
65824 On ch=1 n=d#7 v=64
65824 On ch=1 n=d#6 v=45
65930 On ch=1 n=c#6 v=0
65950 On ch=1 n=f#6 v=49
66104 On ch=1 n=a#6 v=34
66134 On ch=1 n=g#2 v=0
66144 On ch=1 n=g#5 v=0
66204 On ch=1 n=a#6 v=0
66230 On ch=1 n=f#6 v=0
66236 On ch=1 n=d#6 v=0
66236 On ch=1 n=d#7 v=0
66254 On ch=1 n=f#3 v=42
66264 On ch=1 n=e7 v=61
66264 On ch=1 n=a#6 v=58
66270 On ch=1 n=e6 v=55
66512 On ch=1 n=f7 v=63
66512 On ch=1 n=a6 v=60
66512 On ch=1 n=f6 v=45
66514 On ch=1 n=a#6 v=0
66514 On ch=1 n=e7 v=0
66520 On ch=1 n=e6 v=0
66644 On ch=1 n=f#3 v=0
66714 On ch=1 n=f3 v=48
66870 On ch=1 n=c4 v=50
67010 On ch=1 n=a4 v=50
67020 On ch=1 n=c4 v=0
67032 On ch=1 n=f6 v=0
67032 On ch=1 n=a6 v=0
67032 On ch=1 n=f7 v=0
67164 On ch=1 n=a6 v=56
67170 On ch=1 n=g4 v=50
67170 On ch=1 n=c6 v=50
67174 On ch=1 n=c7 v=56
67220 On ch=1 n=a4 v=0
67300 On ch=1 n=f4 v=50
67320 On ch=1 n=g4 v=0
67450 On ch=1 n=c5 v=50
67570 On ch=1 n=c5 v=0
67574 On ch=1 n=a5 v=50
67694 On ch=1 n=g5 v=50
67720 On ch=1 n=a5 v=0
67814 On ch=1 n=f5 v=50
67840 On ch=1 n=g5 v=0
67930 On ch=1 n=a5 v=50
67994 On ch=1 n=a6 v=0
68040 On ch=1 n=a#5 v=50
68084 On ch=1 n=a5 v=0
68084 On ch=1 n=c6 v=0
68140 On ch=1 n=c7 v=0
68180 On ch=1 n=c7 v=63
68190 On ch=1 n=c6 v=50
68330 On ch=1 n=f6 v=67
68410 On ch=1 n=f3 v=0
68460 On ch=1 n=a6 v=62
68500 On ch=1 n=a#5 v=0
68524 On ch=1 n=f4 v=0
68554 On ch=1 n=f5 v=0
68570 On ch=1 n=c7 v=0
68644 On ch=1 n=g6 v=52
68720 On ch=1 n=c7 v=82
68770 On ch=1 n=f6 v=0
68790 On ch=1 n=g6 v=0
68794 On ch=1 n=c6 v=0
68814 On ch=1 n=a6 v=0
68820 On ch=1 n=c7 v=0
68844 On ch=1 n=f2 v=50
68860 On ch=1 n=a6 v=63
68860 On ch=1 n=c7 v=65
68864 On ch=1 n=g6 v=82
68870 On ch=1 n=c6 v=68
69110 On ch=1 n=f3 v=50
69270 On ch=1 n=c4 v=50
69410 On ch=1 n=c4 v=0
69410 On ch=1 n=a4 v=50
69540 On ch=1 n=g4 v=50
69680 On ch=1 n=f4 v=50
69684 On ch=1 n=a4 v=0
69690 On ch=1 n=g4 v=0
69820 On ch=1 n=c5 v=50
69940 On ch=1 n=a5 v=50
69944 On ch=1 n=c5 v=0
69950 On ch=1 n=f6 v=62
70070 On ch=1 n=g5 v=50
70104 On ch=1 n=a5 v=0
70194 On ch=1 n=f5 v=50
70210 On ch=1 n=g5 v=0
70324 On ch=1 n=a5 v=50
70340 On ch=1 n=f3 v=0
70400 On ch=1 n=c7 v=0
70404 On ch=1 n=g6 v=0
70410 On ch=1 n=a6 v=0
70420 On ch=1 n=c6 v=0
70430 On ch=1 n=f4 v=0
70430 On ch=1 n=a#5 v=50
70454 On ch=1 n=f6 v=0
70474 On ch=1 n=a5 v=0
70574 On ch=1 n=c7 v=68
70580 On ch=1 n=c6 v=50
70710 On ch=1 n=f6 v=63
70844 On ch=1 n=a6 v=58
70864 On ch=1 n=f2 v=0
70900 On ch=1 n=a#5 v=0
70930 On ch=1 n=f5 v=0
70984 On ch=1 n=f6 v=0
71006 On ch=1 n=c7 v=0
71010 On ch=1 n=c6 v=0
71020 On ch=1 n=c#7 v=59
71024 On ch=1 n=c#6 v=71
71034 On ch=1 n=a6 v=0
71154 On ch=1 n=c#6 v=0
71160 On ch=1 n=c#7 v=0
71210 On ch=1 n=e2 v=60
71214 On ch=1 n=c#6 v=80
71264 On ch=1 n=e6 v=77
71312 On ch=1 n=a6 v=80
71374 On ch=1 n=e3 v=60
71376 On ch=1 n=c#7 v=83
71510 On ch=1 n=a3 v=60
71640 On ch=1 n=e4 v=60
71800 On ch=1 n=f#4 v=60
71824 On ch=1 n=e4 v=0
71950 On ch=1 n=e4 v=60
71964 On ch=1 n=f#4 v=0
72104 On ch=1 n=c#5 v=60
72134 On ch=1 n=e4 v=0
72284 On ch=1 n=e6 v=0
72284 On ch=1 n=a5 v=69
72310 On ch=1 n=c#6 v=0
72386 On ch=1 n=a6 v=0
72424 On ch=1 n=c#5 v=0
72444 On ch=1 n=b5 v=64
72460 On ch=1 n=f#6 v=62
72460 On ch=1 n=b6 v=68
72466 On ch=1 n=c#7 v=0
72540 On ch=1 n=a5 v=0
72540 On ch=1 n=e3 v=0
72604 On ch=1 n=d#3 v=60
72610 On ch=1 n=a3 v=0
72734 On ch=1 n=e2 v=0
72760 On ch=1 n=b5 v=0
72760 On ch=1 n=b3 v=60
72764 On ch=1 n=a5 v=49
72764 On ch=1 n=a6 v=57
72780 On ch=1 n=b6 v=0
72884 On ch=1 n=f#4 v=60
73010 On ch=1 n=f#6 v=0
73034 On ch=1 n=f#6 v=63
73034 On ch=1 n=c#5 v=60
73040 On ch=1 n=a6 v=0
73040 On ch=1 n=a5 v=0
73040 On ch=1 n=f#5 v=67
73054 On ch=1 n=b5 v=58
73054 On ch=1 n=a5 v=58
73180 On ch=1 n=d#4 v=60
73264 On ch=1 n=a5 v=0
73264 On ch=1 n=b5 v=0
73296 On ch=1 n=a5 v=52
73324 On ch=1 n=b5 v=68
73324 On ch=1 n=b4 v=60
73330 On ch=1 n=a6 v=68
73354 On ch=1 n=f#6 v=0
73360 On ch=1 n=f#5 v=0
73370 On ch=1 n=b3 v=0
73456 On ch=1 n=a5 v=0
73488 On ch=1 n=a5 v=60
73530 On ch=1 n=f#4 v=0
73608 On ch=1 n=a5 v=0
73610 On ch=1 n=c#5 v=0
73624 On ch=1 n=d#3 v=0
73664 On ch=1 n=e6 v=64
73664 On ch=1 n=c#6 v=69
73664 On ch=1 n=a5 v=71
73664 On ch=1 n=e5 v=67
73670 On ch=1 n=b5 v=0
73710 On ch=1 n=a6 v=0
73800 On ch=1 n=e3 v=60
73804 On ch=1 n=b4 v=0
73890 On ch=1 n=d#4 v=0
74000 On ch=1 n=a3 v=60
74140 On ch=1 n=e4 v=60
74200 On ch=1 n=a3 v=0
74304 On ch=1 n=e4 v=0
74324 On ch=1 n=f#4 v=60
74460 On ch=1 n=e4 v=60
74470 On ch=1 n=f#4 v=0
74600 On ch=1 n=d5 v=60
74734 On ch=1 n=c#5 v=60
74738 On ch=1 n=a5 v=0
74754 On ch=1 n=d5 v=0
74770 On ch=1 n=e4 v=0
74784 On ch=1 n=e5 v=0
74788 On ch=1 n=c#6 v=0
74800 On ch=1 n=e6 v=0
74820 On ch=1 n=e3 v=0
74890 On ch=1 n=c#6 v=64
74890 On ch=1 n=g#5 v=65
74894 On ch=1 n=e2 v=60
74900 On ch=1 n=e6 v=67
74900 On ch=1 n=e5 v=67
74900 On ch=1 n=d5 v=70
74914 On ch=1 n=c#5 v=0
75064 On ch=1 n=e3 v=60
75200 On ch=1 n=b3 v=60
75344 On ch=1 n=b3 v=0
75344 On ch=1 n=e4 v=60
75490 On ch=1 n=f#4 v=60
75540 On ch=1 n=e4 v=0
75650 On ch=1 n=e4 v=60
75654 On ch=1 n=f#4 v=0
75714 On ch=1 n=g#5 v=0
75764 On ch=1 n=e5 v=0
75770 On ch=1 n=d5 v=0
75790 On ch=1 n=e3 v=0
75834 On ch=1 n=c#5 v=60
75864 On ch=1 n=e4 v=0
75924 On ch=1 n=e6 v=0
75924 On ch=1 n=e2 v=0
76030 On ch=1 n=c#6 v=0
76040 On ch=1 n=d6 v=63
76040 On ch=1 n=b4 v=60
76060 On ch=1 n=c#5 v=0
76294 On ch=1 n=b4 v=0
76294 On ch=1 n=d6 v=0
76304 On ch=1 n=d6 v=70
76304 On ch=1 n=g#5 v=60
76304 On ch=1 n=d5 v=59
76354 On ch=1 n=f2 v=65
76554 On ch=1 n=f3 v=65
76620 On ch=1 n=g#5 v=0
76624 On ch=1 n=d5 v=0
76658 On ch=1 n=d6 v=0
76730 On ch=1 n=c4 v=65
76734 On ch=1 n=c5 v=58
76740 On ch=1 n=a5 v=67
76744 On ch=1 n=c6 v=65
76880 On ch=1 n=c4 v=0
76890 On ch=1 n=a4 v=65
77014 On ch=1 n=g4 v=65
77080 On ch=1 n=a4 v=0
77154 On ch=1 n=f4 v=65
77184 On ch=1 n=g4 v=0
77294 On ch=1 n=c5 v=0
77300 On ch=1 n=a5 v=0
77304 On ch=1 n=c6 v=0
77310 On ch=1 n=c5 v=65
77314 On ch=1 n=a6 v=73
77314 On ch=1 n=c6 v=64
77324 On ch=1 n=a5 v=63
77444 On ch=1 n=a5 v=0
77454 On ch=1 n=a5 v=65
77544 On ch=1 n=c5 v=0
77570 On ch=1 n=f4 v=0
77574 On ch=1 n=a5 v=0
77614 On ch=1 n=c6 v=0
77614 On ch=1 n=d6 v=67
77620 On ch=1 n=g5 v=67
77624 On ch=1 n=a#5 v=74
77626 On ch=1 n=a6 v=0
77630 On ch=1 n=g6 v=62
77780 On ch=1 n=f3 v=0
77780 On ch=1 n=a#2 v=65
77834 On ch=1 n=f2 v=0
77884 On ch=1 n=a#5 v=0
77900 On ch=1 n=f3 v=65
77912 On ch=1 n=d6 v=0
77914 On ch=1 n=f6 v=68
77918 On ch=1 n=g5 v=0
77928 On ch=1 n=g6 v=0
77930 On ch=1 n=f5 v=73
78044 On ch=1 n=d4 v=65
78050 On ch=1 n=f3 v=0
78172 On ch=1 n=f6 v=0
78174 On ch=1 n=c4 v=65
78176 On ch=1 n=a#5 v=80
78180 On ch=1 n=d6 v=64
78188 On ch=1 n=f5 v=0
78190 On ch=1 n=d5 v=58
78254 On ch=1 n=d4 v=0
78324 On ch=1 n=c4 v=0
78334 On ch=1 n=a#3 v=65
78436 On ch=1 n=a#5 v=0
78460 On ch=1 n=d6 v=0
78470 On ch=1 n=d5 v=0
78480 On ch=1 n=d6 v=80
78494 On ch=1 n=f6 v=58
78510 On ch=1 n=f5 v=58
78524 On ch=1 n=f4 v=65
78640 On ch=1 n=d5 v=65
78704 On ch=1 n=f4 v=0
78780 On ch=1 n=d6 v=0
78790 On ch=1 n=f5 v=0
78794 On ch=1 n=f6 v=0
78800 On ch=1 n=a#2 v=0
78804 On ch=1 n=c6 v=69
78804 On ch=1 n=a5 v=62
78804 On ch=1 n=f5 v=64
78810 On ch=1 n=c5 v=67
78820 On ch=1 n=d5 v=0
78820 On ch=1 n=c3 v=65
78974 On ch=1 n=a#3 v=0
79024 On ch=1 n=c4 v=65
79164 On ch=1 n=f4 v=65
79314 On ch=1 n=a4 v=65
79324 On ch=1 n=f5 v=0
79334 On ch=1 n=c6 v=0
79360 On ch=1 n=c5 v=0
79390 On ch=1 n=f4 v=0
79394 On ch=1 n=a5 v=0
79480 On ch=1 n=d6 v=67
79484 On ch=1 n=c6 v=69
79494 On ch=1 n=a5 v=68
79494 On ch=1 n=d5 v=64
79494 On ch=1 n=g4 v=65
79514 On ch=1 n=a4 v=0
79644 On ch=1 n=f#4 v=65
79664 On ch=1 n=g4 v=0
79780 On ch=1 n=a#4 v=65
79830 On ch=1 n=c4 v=0
79914 On ch=1 n=a#4 v=0
79930 On ch=1 n=a4 v=65
79940 On ch=1 n=f#4 v=0
79994 On ch=1 n=a5 v=0
80034 On ch=1 n=c6 v=0
80060 On ch=1 n=d6 v=0
80070 On ch=1 n=d5 v=0
80128 On ch=1 n=g5 v=59
80128 On ch=1 n=d5 v=60
80134 On ch=1 n=c4 v=65
80144 On ch=1 n=d6 v=92
80144 On ch=1 n=a#5 v=60
80164 On ch=1 n=a4 v=0
80368 On ch=1 n=f#4 v=65
80528 On ch=1 n=f#4 v=0
80534 On ch=1 n=g4 v=65
80650 On ch=1 n=a#4 v=65
80664 On ch=1 n=g4 v=0
80770 On ch=1 n=a#4 v=0
80780 On ch=1 n=a4 v=65
80894 On ch=1 n=g4 v=65
80920 On ch=1 n=a4 v=0
80954 On ch=1 n=d5 v=0
80954 On ch=1 n=g5 v=0
80970 On ch=1 n=a#5 v=0
80970 On ch=1 n=d6 v=0
80970 On ch=1 n=c3 v=0
81008 On ch=1 n=c6 v=67
81010 On ch=1 n=e6 v=67
81020 On ch=1 n=a#5 v=61
81020 On ch=1 n=e5 v=62
81030 On ch=1 n=d5 v=65
81034 On ch=1 n=c4 v=0
81040 On ch=1 n=g4 v=0
81168 On ch=1 n=c5 v=65
81210 On ch=1 n=d5 v=0
81350 On ch=1 n=e5 v=0
81372 On ch=1 n=c5 v=0
81374 On ch=1 n=c6 v=0
81376 On ch=1 n=e6 v=0
81386 On ch=1 n=a#5 v=0
81420 On ch=1 n=c6 v=55
81420 On ch=1 n=a5 v=63
81424 On ch=1 n=e6 v=69
81430 On ch=1 n=e5 v=67
81564 On ch=1 n=f3 v=50
81734 On ch=1 n=c4 v=50
81860 On ch=1 n=e6 v=0
81866 On ch=1 n=e5 v=0
81900 On ch=1 n=f6 v=56
81910 On ch=1 n=c4 v=0
81910 On ch=1 n=f5 v=48
81910 On ch=1 n=a4 v=50
82044 On ch=1 n=g4 v=50
82084 On ch=1 n=a4 v=0
82174 On ch=1 n=f4 v=50
82194 On ch=1 n=g4 v=0
82200 On ch=1 n=a5 v=0
82290 On ch=1 n=c5 v=50
82390 On ch=1 n=f5 v=0
82414 On ch=1 n=a5 v=43
82460 On ch=1 n=c5 v=0
82540 On ch=1 n=f5 v=50
82660 On ch=1 n=c5 v=49
82670 On ch=1 n=f4 v=0
82790 On ch=1 n=a4 v=49
82800 On ch=1 n=c5 v=0
82850 On ch=1 n=f3 v=0
82914 On ch=1 n=c#5 v=48
82934 On ch=1 n=a4 v=0
83064 On ch=1 n=c5 v=48
83070 On ch=1 n=c#5 v=0
83220 On ch=1 n=a4 v=47
83244 On ch=1 n=c5 v=0
83330 On ch=1 n=f5 v=0
83340 On ch=1 n=a5 v=0
83340 On ch=1 n=c6 v=0
83364 On ch=1 n=f4 v=47
83380 On ch=1 n=a4 v=0
83530 On ch=1 n=a5 v=46
83694 On ch=1 n=f5 v=45
83720 On ch=1 n=a5 v=0
83844 On ch=1 n=c5 v=45
83984 On ch=1 n=c5 v=0
83984 On ch=1 n=a4 v=44
83994 On ch=1 n=f6 v=0
84084 On ch=1 n=f4 v=0
84110 On ch=1 n=c#5 v=43
84144 On ch=1 n=a4 v=0
84254 On ch=1 n=c5 v=43
84264 On ch=1 n=c#5 v=0
84284 On ch=1 n=f5 v=0
84380 On ch=1 n=a4 v=42
84514 On ch=1 n=f4 v=42
84524 On ch=1 n=a4 v=0
84650 On ch=1 n=a#4 v=41
84684 On ch=1 n=f4 v=0
84790 On ch=1 n=a4 v=41
84794 On ch=1 n=a#4 v=0
84920 On ch=1 n=f4 v=40
84924 On ch=1 n=c5 v=0
85070 On ch=1 n=c4 v=40
85080 On ch=1 n=f4 v=0
85210 On ch=1 n=f#4 v=39
85254 On ch=1 n=c4 v=0
85370 On ch=1 n=f#4 v=0
85374 On ch=1 n=f4 v=38
85434 On ch=1 n=a4 v=0
85530 On ch=1 n=c4 v=38
85720 On ch=1 n=c4 v=0
85724 On ch=1 n=a3 v=37
85904 On ch=1 n=c#4 v=36
85934 On ch=1 n=a3 v=0
86120 On ch=1 n=f3 v=35
86124 On ch=1 n=c#4 v=0
86290 On ch=1 n=f4 v=0
86364 On ch=1 n=c4 v=35
86564 On ch=1 n=a4 v=35
86754 On ch=1 n=f4 v=35
86954 On ch=1 n=f5 v=54
87124 On ch=1 n=a#4 v=35
87290 On ch=1 n=a#4 v=0
87300 On ch=1 n=b4 v=35
87470 On ch=1 n=c#5 v=36
87490 On ch=1 n=b4 v=0
87544 On ch=1 n=a4 v=0
87554 On ch=1 n=c5 v=36
87560 On ch=1 n=c#5 v=0
87604 On ch=1 n=f3 v=0
87620 On ch=1 n=c4 v=0
87630 On ch=1 n=f4 v=0
87764 On ch=1 n=e3 v=36
87950 On ch=1 n=c#4 v=36
88004 On ch=1 n=c5 v=0
88110 On ch=1 n=a#4 v=36
88140 On ch=1 n=f5 v=0
88300 On ch=1 n=f#4 v=36
88550 On ch=1 n=c#4 v=0
88560 On ch=1 n=f#5 v=58
88720 On ch=1 n=b4 v=36
88840 On ch=1 n=b4 v=0
88860 On ch=1 n=c5 v=37
88990 On ch=1 n=c5 v=0
89004 On ch=1 n=d#5 v=37
89060 On ch=1 n=f#4 v=0
89068 On ch=1 n=a#4 v=0
89084 On ch=1 n=c#5 v=37
89100 On ch=1 n=d#5 v=0
89114 On ch=1 n=e3 v=0
89320 On ch=1 n=d#3 v=37
89540 On ch=1 n=c#4 v=37
89550 On ch=1 n=f#5 v=0
89704 On ch=1 n=a#4 v=37
89854 On ch=1 n=c#5 v=0
89860 On ch=1 n=g4 v=37
90034 On ch=1 n=g5 v=58
90194 On ch=1 n=c#5 v=37
90354 On ch=1 n=d#5 v=38
90504 On ch=1 n=f#5 v=38
90530 On ch=1 n=d#5 v=0
90530 On ch=1 n=d#3 v=0
90550 On ch=1 n=e5 v=38
90554 On ch=1 n=c#5 v=0
90580 On ch=1 n=f#5 v=0
90600 On ch=1 n=a#4 v=0
90614 On ch=1 n=c#4 v=0
90760 On ch=1 n=g#2 v=49
90924 On ch=1 n=g4 v=0
91004 On ch=1 n=g#3 v=49
91248 On ch=1 n=f#4 v=49
91250 On ch=1 n=g5 v=0
91460 On ch=1 n=e5 v=0
91504 On ch=1 n=a4 v=49
91784 On ch=1 n=g#5 v=64
91790 On ch=1 n=g#4 v=44
91904 On ch=1 n=a4 v=0
91990 On ch=1 n=c5 v=36
92064 On ch=1 n=f#4 v=0
92190 On ch=1 n=e5 v=53
92210 On ch=1 n=c5 v=0
92454 On ch=1 n=g#4 v=0
92464 On ch=1 n=d#5 v=53
92464 On ch=1 n=f#4 v=44
92480 On ch=1 n=g#3 v=0
92500 On ch=1 n=e5 v=0
92658 On ch=1 n=f#4 v=0
92734 On ch=1 n=g#5 v=0
92734 On ch=1 n=e4 v=45
92740 On ch=1 n=d#5 v=0
92770 On ch=1 n=g#2 v=0
92800 On ch=1 n=d#5 v=44
92824 On ch=1 n=c#2 v=45
92850 On ch=1 n=f4 v=45
92854 On ch=1 n=g#5 v=70
93034 On ch=1 n=c#3 v=45
93150 On ch=1 n=f4 v=0
93150 On ch=1 n=e4 v=0
93210 On ch=1 n=g#3 v=40
93350 On ch=1 n=e4 v=40
93360 On ch=1 n=c#5 v=54
93364 On ch=1 n=g#3 v=0
93400 On ch=1 n=d#5 v=0
93494 On ch=1 n=d#4 v=40
93560 On ch=1 n=e4 v=0
93630 On ch=1 n=c#4 v=40
93640 On ch=1 n=d#4 v=0
93774 On ch=1 n=g#4 v=40
93900 On ch=1 n=e5 v=40
93910 On ch=1 n=g#4 v=0
93980 On ch=1 n=g#5 v=0
93990 On ch=1 n=c#5 v=0
94030 On ch=1 n=d#5 v=40
94064 On ch=1 n=e5 v=0
94144 On ch=1 n=c#5 v=40
94174 On ch=1 n=d#5 v=0
94270 On ch=1 n=e5 v=40
94350 On ch=1 n=c#2 v=0
94384 On ch=1 n=f#5 v=40
94430 On ch=1 n=e5 v=0
94534 On ch=1 n=g#6 v=54
94540 On ch=1 n=g#5 v=34
94690 On ch=1 n=c#6 v=50
94774 On ch=1 n=c#3 v=0
94780 On ch=1 n=f#5 v=0
94780 On ch=1 n=c#5 v=0
94840 On ch=1 n=d#6 v=56
94860 On ch=1 n=c#4 v=0
94914 On ch=1 n=c#6 v=0
94984 On ch=1 n=d#6 v=0
94990 On ch=1 n=f#6 v=52
95054 On ch=1 n=e6 v=56
95150 On ch=1 n=g#6 v=0
95204 On ch=1 n=g#5 v=0
95220 On ch=1 n=f#6 v=0
95260 On ch=1 n=g#6 v=51
95264 On ch=1 n=g#5 v=62
95274 On ch=1 n=d#6 v=56
95284 On ch=1 n=e6 v=0
95434 On ch=1 n=c#3 v=40
95574 On ch=1 n=g#3 v=40
95690 On ch=1 n=e4 v=40
95700 On ch=1 n=g#3 v=0
95810 On ch=1 n=d#4 v=40
95860 On ch=1 n=e4 v=0
95940 On ch=1 n=c#4 v=40
95950 On ch=1 n=d#4 v=0
96070 On ch=1 n=g#4 v=40
96184 On ch=1 n=d#6 v=0
96200 On ch=1 n=g#4 v=0
96200 On ch=1 n=e5 v=40
96210 On ch=1 n=c#6 v=49
96360 On ch=1 n=d#5 v=40
96394 On ch=1 n=e5 v=0
96504 On ch=1 n=c#5 v=40
96534 On ch=1 n=d#5 v=0
96654 On ch=1 n=e5 v=40
96770 On ch=1 n=g#5 v=0
96774 On ch=1 n=f#5 v=40
96784 On ch=1 n=c#6 v=0
96814 On ch=1 n=g#6 v=0
96824 On ch=1 n=e5 v=0
96910 On ch=1 n=g#6 v=56
96914 On ch=1 n=g#5 v=34
97024 On ch=1 n=f#5 v=0
97050 On ch=1 n=c#6 v=58
97060 On ch=1 n=c#3 v=0
97094 On ch=1 n=c#4 v=0
97164 On ch=1 n=g#6 v=0
97180 On ch=1 n=c#5 v=0
97180 On ch=1 n=e6 v=52
97214 On ch=1 n=g#5 v=0
97220 On ch=1 n=c#6 v=0
97330 On ch=1 n=f#3 v=40
97334 On ch=1 n=a#6 v=50
97340 On ch=1 n=a#5 v=40
97364 On ch=1 n=e6 v=0
97470 On ch=1 n=a#5 v=0
97514 On ch=1 n=a#5 v=72
97564 On ch=1 n=a#5 v=0
97590 On ch=1 n=a#6 v=0
97590 On ch=1 n=a#5 v=62
97664 On ch=1 n=e6 v=59
97704 On ch=1 n=c#7 v=70
97814 On ch=1 n=f#3 v=0
97844 On ch=1 n=b2 v=40
98010 On ch=1 n=f#3 v=40
98078 On ch=1 n=e6 v=0
98140 On ch=1 n=a#5 v=0
98154 On ch=1 n=c#7 v=0
98160 On ch=1 n=b6 v=36
98160 On ch=1 n=d#6 v=46
98164 On ch=1 n=d#4 v=40
98170 On ch=1 n=b5 v=46
98174 On ch=1 n=f#3 v=0
98320 On ch=1 n=d#4 v=0
98354 On ch=1 n=c#4 v=40
98450 On ch=1 n=b3 v=40
98510 On ch=1 n=c#4 v=0
98600 On ch=1 n=f#4 v=40
98724 On ch=1 n=d#5 v=40
98740 On ch=1 n=f#4 v=0
98860 On ch=1 n=c#5 v=40
98880 On ch=1 n=d#5 v=0
98990 On ch=1 n=b4 v=40
99010 On ch=1 n=c#5 v=0
99124 On ch=1 n=d#5 v=40
99264 On ch=1 n=e5 v=40
99280 On ch=1 n=d#5 v=0
99360 On ch=1 n=d#6 v=0
99360 On ch=1 n=b6 v=0
99370 On ch=1 n=b5 v=0
99440 On ch=1 n=f#6 v=50
99444 On ch=1 n=f#5 v=32
99530 On ch=1 n=e5 v=0
99554 On ch=1 n=b2 v=0
99590 On ch=1 n=b5 v=53
99624 On ch=1 n=b3 v=0
99634 On ch=1 n=b4 v=0
99700 On ch=1 n=c#6 v=54
99744 On ch=1 n=b5 v=0
99820 On ch=1 n=c#6 v=0
99830 On ch=1 n=f#6 v=0
99830 On ch=1 n=e6 v=51
99880 On ch=1 n=d6 v=53
99940 On ch=1 n=e6 v=0
99994 On ch=1 n=f#5 v=0
100050 On ch=1 n=f#6 v=56
100060 On ch=1 n=c#6 v=56
100060 On ch=1 n=f#5 v=60
100080 On ch=1 n=d6 v=0
100224 On ch=1 n=b2 v=40
100384 On ch=1 n=f#3 v=40
100520 On ch=1 n=d4 v=40
100534 On ch=1 n=f#3 v=0
100650 On ch=1 n=c#4 v=40
100740 On ch=1 n=d4 v=0
100800 On ch=1 n=c#4 v=0
100810 On ch=1 n=b3 v=40
100934 On ch=1 n=f#4 v=40
101064 On ch=1 n=d5 v=40
101070 On ch=1 n=b5 v=46
101074 On ch=1 n=c#6 v=0
101080 On ch=1 n=f#4 v=0
101190 On ch=1 n=c#5 v=40
101240 On ch=1 n=d5 v=0
101310 On ch=1 n=c#5 v=0
101314 On ch=1 n=b4 v=40
101430 On ch=1 n=d5 v=40
101470 On ch=1 n=b5 v=0
101540 On ch=1 n=e5 v=40
101564 On ch=1 n=f#5 v=0
101574 On ch=1 n=f#6 v=0
101584 On ch=1 n=d5 v=0
101680 On ch=1 n=f#6 v=64
101684 On ch=1 n=f#5 v=40
101814 On ch=1 n=b5 v=64
101840 On ch=1 n=e5 v=0
101884 On ch=1 n=f#6 v=0
101900 On ch=1 n=b2 v=0
101910 On ch=1 n=f#5 v=0
101954 On ch=1 n=d6 v=60
101980 On ch=1 n=b5 v=0
101990 On ch=1 n=b3 v=0
102034 On ch=1 n=b4 v=0
102130 On ch=1 n=g#6 v=62
102134 On ch=1 n=g#5 v=56
102140 On ch=1 n=e3 v=40
102184 On ch=1 n=d6 v=0
102320 On ch=1 n=g#5 v=0
102364 On ch=1 n=g#5 v=42
102414 On ch=1 n=d6 v=69
102502 On ch=1 n=g#6 v=0
102550 On ch=1 n=b6 v=56
102736 On ch=1 n=a2 v=40
102770 On ch=1 n=e3 v=0
103040 On ch=1 n=e3 v=40
103056 On ch=1 n=a6 v=40
103056 On ch=1 n=c#6 v=54
103072 On ch=1 n=a5 v=36
103080 On ch=1 n=d6 v=0
103080 On ch=1 n=g#5 v=0
103090 On ch=1 n=b6 v=0
103210 On ch=1 n=e3 v=0
103270 On ch=1 n=c#4 v=40
103410 On ch=1 n=b3 v=40
103430 On ch=1 n=c#4 v=0
103544 On ch=1 n=b3 v=0
103550 On ch=1 n=a3 v=40
103684 On ch=1 n=c#6 v=0
103684 On ch=1 n=a6 v=0
103690 On ch=1 n=c#6 v=51
103694 On ch=1 n=g#6 v=51
103700 On ch=1 n=g#5 v=53
103702 On ch=1 n=a5 v=0
103710 On ch=1 n=e4 v=40
103844 On ch=1 n=e4 v=0
103870 On ch=1 n=c#5 v=40
103936 On ch=1 n=a2 v=0
104004 On ch=1 n=g#6 v=0
104014 On ch=1 n=c#6 v=0
104020 On ch=1 n=g#5 v=0
104040 On ch=1 n=g#6 v=60
104048 On ch=1 n=g#5 v=43
104064 On ch=1 n=c#6 v=54
104080 On ch=1 n=b4 v=40
104100 On ch=1 n=c#5 v=0
104164 On ch=1 n=a3 v=0
104250 On ch=1 n=a4 v=40
104280 On ch=1 n=b4 v=0
104390 On ch=1 n=c#5 v=40
104540 On ch=1 n=f#5 v=40
104580 On ch=1 n=c#5 v=0
104664 On ch=1 n=f#5 v=0
104680 On ch=1 n=e5 v=40
104830 On ch=1 n=c#5 v=40
104880 On ch=1 n=a4 v=0
104970 On ch=1 n=a4 v=40
105004 On ch=1 n=c#5 v=0
105100 On ch=1 n=g#6 v=0
105108 On ch=1 n=g#5 v=0
105124 On ch=1 n=g6 v=46
105134 On ch=1 n=g5 v=40
105144 On ch=1 n=a4 v=0
105150 On ch=1 n=d#5 v=40
105280 On ch=1 n=c#5 v=40
105310 On ch=1 n=d#5 v=0
105410 On ch=1 n=e5 v=0
105420 On ch=1 n=a4 v=40
105574 On ch=1 n=e4 v=40
105600 On ch=1 n=a4 v=0
105714 On ch=1 n=f#5 v=45
105864 On ch=1 n=f#5 v=0
105890 On ch=1 n=e5 v=45
105900 On ch=1 n=e4 v=0
105914 On ch=1 n=c#5 v=0
106030 On ch=1 n=c#5 v=45
106180 On ch=1 n=a4 v=45
106200 On ch=1 n=c#5 v=0
106324 On ch=1 n=d#5 v=45
106354 On ch=1 n=a4 v=0
106470 On ch=1 n=c#5 v=45
106524 On ch=1 n=d#5 v=0
106634 On ch=1 n=a4 v=45
106670 On ch=1 n=e5 v=0
106744 On ch=1 n=g5 v=0
106800 On ch=1 n=a4 v=0
106800 On ch=1 n=e4 v=45
106808 On ch=1 n=c#6 v=0
106880 On ch=1 n=g6 v=0
106964 On ch=1 n=b4 v=45
107010 On ch=1 n=e4 v=0
107130 On ch=1 n=c#5 v=0
107170 On ch=1 n=g5 v=58
107170 On ch=1 n=a4 v=45
107224 On ch=1 n=b4 v=0
107354 On ch=1 n=c#6 v=59
107354 On ch=1 n=e4 v=48
107530 On ch=1 n=d#4 v=52
107550 On ch=1 n=d#6 v=57
107570 On ch=1 n=e4 v=0
107600 On ch=1 n=c#6 v=0
107740 On ch=1 n=c#4 v=56
107760 On ch=1 n=f#6 v=57
107784 On ch=1 n=d#4 v=0
107790 On ch=1 n=d#6 v=0
107814 On ch=1 n=e6 v=62
107840 On ch=1 n=f#6 v=0
107894 On ch=1 n=a4 v=0
108000 On ch=1 n=a3 v=61
108004 On ch=1 n=g5 v=0
108010 On ch=1 n=c#4 v=0
108090 On ch=1 n=e4 v=63
108140 On ch=1 n=e6 v=0
108170 On ch=1 n=c#5 v=55
108204 On ch=1 n=g5 v=55
108244 On ch=1 n=e4 v=0
108260 On ch=1 n=d#6 v=59
108324 On ch=1 n=a6 v=59
109494 On ch=1 n=c#6 v=45
109530 On ch=1 n=d#6 v=0
110690 On ch=1 n=c#5 v=0
110724 On ch=1 n=a3 v=0
110734 On ch=1 n=a6 v=0
110750 On ch=1 n=c#6 v=0
110750 On ch=1 n=g5 v=0
111190 On ch=1 n=e6 v=30
111190 On ch=1 n=c#5 v=30
111194 On ch=1 n=g5 v=30
111200 On ch=1 n=a5 v=30
111420 On ch=1 n=c#6 v=31
111424 On ch=1 n=c#5 v=0
111424 On ch=1 n=a6 v=31
111424 On ch=1 n=a4 v=31
111430 On ch=1 n=e6 v=0
111430 On ch=1 n=e5 v=31
111450 On ch=1 n=a5 v=0
111450 On ch=1 n=g5 v=0
111654 On ch=1 n=e5 v=0
111660 On ch=1 n=d#6 v=33
111664 On ch=1 n=f#5 v=33
111670 On ch=1 n=a6 v=0
111670 On ch=1 n=c#6 v=0
111670 On ch=1 n=a5 v=33
111670 On ch=1 n=c#5 v=33
111680 On ch=1 n=a4 v=0
111880 On ch=1 n=c#5 v=0
111890 On ch=1 n=a6 v=35
111890 On ch=1 n=c#6 v=35
111894 On ch=1 n=d#5 v=35
111894 On ch=1 n=f#4 v=35
111900 On ch=1 n=f#5 v=0
111900 On ch=1 n=d#6 v=0
111910 On ch=1 n=a5 v=0
112104 On ch=1 n=f#4 v=0
112104 On ch=1 n=d#5 v=0
112104 On ch=1 n=f#5 v=35
112110 On ch=1 n=d#6 v=35
112110 On ch=1 n=g#5 v=35
112114 On ch=1 n=c5 v=35
112120 On ch=1 n=c#6 v=0
112124 On ch=1 n=a6 v=0
112300 On ch=1 n=c5 v=0
112344 On ch=1 n=g#6 v=37
112350 On ch=1 n=g#4 v=37
112354 On ch=1 n=d#6 v=0
112360 On ch=1 n=c6 v=37
112360 On ch=1 n=d#5 v=37
112380 On ch=1 n=f#5 v=0
112390 On ch=1 n=g#5 v=0
112564 On ch=1 n=g#4 v=0
112570 On ch=1 n=d6 v=38
112570 On ch=1 n=g#5 v=38
112574 On ch=1 n=d#5 v=0
112574 On ch=1 n=f5 v=38
112574 On ch=1 n=c5 v=38
112580 On ch=1 n=c6 v=0
112590 On ch=1 n=g#6 v=0
112754 On ch=1 n=c5 v=0
112774 On ch=1 n=g#6 v=39
112774 On ch=1 n=d5 v=39
112780 On ch=1 n=d6 v=0
112780 On ch=1 n=c6 v=39
112780 On ch=1 n=f4 v=39
112800 On ch=1 n=g#5 v=0
112804 On ch=1 n=f5 v=0
112950 On ch=1 n=f4 v=0
112960 On ch=1 n=f5 v=40
112964 On ch=1 n=g#6 v=0
112964 On ch=1 n=b4 v=40
112970 On ch=1 n=d6 v=40
112970 On ch=1 n=g5 v=40
112974 On ch=1 n=d5 v=0
112980 On ch=1 n=c6 v=0
113150 On ch=1 n=g4 v=41
113150 On ch=1 n=g6 v=41
113154 On ch=1 n=b5 v=41
113160 On ch=1 n=d6 v=0
113160 On ch=1 n=b4 v=0
113160 On ch=1 n=d5 v=41
113170 On ch=1 n=g5 v=0
113180 On ch=1 n=f5 v=0
113340 On ch=1 n=c#6 v=42
113340 On ch=1 n=g5 v=42
113340 On ch=1 n=b4 v=42
113350 On ch=1 n=g4 v=0
113350 On ch=1 n=e5 v=42
113354 On ch=1 n=d5 v=0
113360 On ch=1 n=b5 v=0
113360 On ch=1 n=g6 v=0
113490 On ch=1 n=b4 v=0
113510 On ch=1 n=g6 v=43
113514 On ch=1 n=b5 v=43
113514 On ch=1 n=c#5 v=43
113520 On ch=1 n=e4 v=43
113530 On ch=1 n=c#6 v=0
113534 On ch=1 n=e5 v=0
113540 On ch=1 n=g5 v=0
113696 On ch=1 n=f#5 v=44
113700 On ch=1 n=c#6 v=44
113700 On ch=1 n=e5 v=44
113700 On ch=1 n=a#4 v=44
113704 On ch=1 n=g6 v=0
113710 On ch=1 n=e4 v=0
113710 On ch=1 n=c#5 v=0
113724 On ch=1 n=b5 v=0
113842 On ch=1 n=f#5 v=0
113870 On ch=1 n=a#4 v=0
113870 On ch=1 n=f#6 v=46
113870 On ch=1 n=a#5 v=46
113870 On ch=1 n=c#5 v=46
113870 On ch=1 n=f#4 v=46
113880 On ch=1 n=e5 v=0
113890 On ch=1 n=c#6 v=0
114030 On ch=1 n=f#4 v=0
114030 On ch=1 n=c#5 v=0
114034 On ch=1 n=d#5 v=47
114040 On ch=1 n=f#6 v=0
114040 On ch=1 n=c6 v=47
114040 On ch=1 n=f#5 v=47
114044 On ch=1 n=a#4 v=47
114050 On ch=1 n=a#5 v=0
114164 On ch=1 n=a#4 v=0
114194 On ch=1 n=f#6 v=48
114200 On ch=1 n=a#5 v=48
114200 On ch=1 n=c5 v=48
114200 On ch=1 n=d#4 v=48
114210 On ch=1 n=f#5 v=0
114210 On ch=1 n=c6 v=0
114214 On ch=1 n=d#5 v=0
114324 On ch=1 n=d#4 v=0
114344 On ch=1 n=c6 v=49
114350 On ch=1 n=f5 v=49
114350 On ch=1 n=d#5 v=49
114350 On ch=1 n=a4 v=49
114354 On ch=1 n=c5 v=0
114354 On ch=1 n=f#6 v=0
114360 On ch=1 n=a#5 v=0
114484 On ch=1 n=f6 v=49
114484 On ch=1 n=f4 v=49
114490 On ch=1 n=a5 v=49
114494 On ch=1 n=a4 v=0
114494 On ch=1 n=d#5 v=0
114494 On ch=1 n=c5 v=49
114500 On ch=1 n=c6 v=0
114504 On ch=1 n=f5 v=0
114624 On ch=1 n=f6 v=0
114624 On ch=1 n=f5 v=50
114630 On ch=1 n=c5 v=0
114630 On ch=1 n=b5 v=50
114630 On ch=1 n=d5 v=50
114630 On ch=1 n=a4 v=50
114634 On ch=1 n=f4 v=0
114650 On ch=1 n=a5 v=0
114760 On ch=1 n=f6 v=52
114770 On ch=1 n=a5 v=52
114770 On ch=1 n=b4 v=52
114774 On ch=1 n=f5 v=0
114780 On ch=1 n=d4 v=52
114784 On ch=1 n=d5 v=0
114790 On ch=1 n=a4 v=0
114790 On ch=1 n=b5 v=0
114900 On ch=1 n=d4 v=0
114904 On ch=1 n=g#4 v=52
114910 On ch=1 n=f6 v=0
114910 On ch=1 n=b5 v=52
114910 On ch=1 n=e5 v=52
114910 On ch=1 n=d5 v=52
114924 On ch=1 n=b4 v=0
114924 On ch=1 n=a5 v=0
115030 On ch=1 n=d5 v=0
115030 On ch=1 n=e6 v=53
115030 On ch=1 n=g#5 v=53
115030 On ch=1 n=e4 v=53
115040 On ch=1 n=b4 v=53
115044 On ch=1 n=e5 v=0
115044 On ch=1 n=b5 v=0
115050 On ch=1 n=g#4 v=0
115150 On ch=1 n=e4 v=0
115164 On ch=1 n=c#5 v=54
115164 On ch=1 n=e5 v=54
115164 On ch=1 n=a#5 v=54
115170 On ch=1 n=b4 v=0
115170 On ch=1 n=e6 v=0
115170 On ch=1 n=g#4 v=54
115174 On ch=1 n=g#5 v=0
115274 On ch=1 n=g#4 v=0
115284 On ch=1 n=c#4 v=55
115290 On ch=1 n=e6 v=55
115290 On ch=1 n=g#5 v=55
115294 On ch=1 n=a#4 v=55
115300 On ch=1 n=a#5 v=0
115304 On ch=1 n=e5 v=0
115310 On ch=1 n=c#5 v=0
115410 On ch=1 n=c#4 v=0
115410 On ch=1 n=a#5 v=56
115414 On ch=1 n=a#4 v=0
115414 On ch=1 n=d#5 v=56
115414 On ch=1 n=c#5 v=56
115420 On ch=1 n=g4 v=56
115424 On ch=1 n=g#5 v=0
115430 On ch=1 n=e6 v=0
115510 On ch=1 n=g4 v=0
115520 On ch=1 n=d#6 v=56
115530 On ch=1 n=g5 v=56
115530 On ch=1 n=d#4 v=56
115534 On ch=1 n=a#5 v=0
115534 On ch=1 n=a#4 v=56
115540 On ch=1 n=d#5 v=0
115554 On ch=1 n=c#5 v=0
115640 On ch=1 n=a#4 v=0
115644 On ch=1 n=d#6 v=0
115644 On ch=1 n=d#5 v=57
115644 On ch=1 n=g4 v=57
115650 On ch=1 n=d#4 v=0
115650 On ch=1 n=a5 v=57
115650 On ch=1 n=c5 v=57
115660 On ch=1 n=g5 v=0
115760 On ch=1 n=g4 v=0
115760 On ch=1 n=d#6 v=58
115760 On ch=1 n=g5 v=58
115764 On ch=1 n=a4 v=58
115770 On ch=1 n=a5 v=0
115770 On ch=1 n=c4 v=58
115774 On ch=1 n=c5 v=0
115780 On ch=1 n=d#5 v=0
115860 On ch=1 n=d#6 v=0
115864 On ch=1 n=d5 v=58
115870 On ch=1 n=c5 v=58
115870 On ch=1 n=f#4 v=58
115872 On ch=1 n=a5 v=58
115874 On ch=1 n=a4 v=0
115880 On ch=1 n=c4 v=0
115884 On ch=1 n=g5 v=0
115974 On ch=1 n=d5 v=0
115980 On ch=1 n=a4 v=60
115990 On ch=1 n=c5 v=0
115990 On ch=1 n=d6 v=60
115990 On ch=1 n=f#5 v=60
115990 On ch=1 n=d4 v=60
115992 On ch=1 n=a5 v=0
116000 On ch=1 n=f#4 v=0
116104 On ch=1 n=a4 v=0
116104 On ch=1 n=g#5 v=60
116104 On ch=1 n=d5 v=60
116110 On ch=1 n=d6 v=0
116110 On ch=1 n=b4 v=60
116110 On ch=1 n=f#4 v=60
116114 On ch=1 n=d4 v=0
116120 On ch=1 n=f#5 v=0
116214 On ch=1 n=d6 v=61
116214 On ch=1 n=g#4 v=61
116220 On ch=1 n=f#4 v=0
116220 On ch=1 n=f#5 v=61
116224 On ch=1 n=d5 v=0
116224 On ch=1 n=b3 v=61
116230 On ch=1 n=b4 v=0
116230 On ch=1 n=g#5 v=0
116334 On ch=1 n=d6 v=0
116340 On ch=1 n=b3 v=0
116340 On ch=1 n=g#5 v=62
116344 On ch=1 n=d5 v=62
116354 On ch=1 n=g#4 v=0
116360 On ch=1 n=f#5 v=0
116360 On ch=1 n=b4 v=62
116364 On ch=1 n=f4 v=62
116484 On ch=1 n=f4 v=0
116488 On ch=1 n=c#6 v=63
116488 On ch=1 n=g5 v=63
116496 On ch=1 n=a#4 v=63
116496 On ch=1 n=e4 v=63
116520 On ch=1 n=g#5 v=0
116524 On ch=1 n=d5 v=0
116540 On ch=1 n=b4 v=0
116602 On ch=1 n=e4 v=0
116610 On ch=1 n=a#4 v=0
116624 On ch=1 n=g5 v=0
116624 On ch=1 n=b4 v=64
116632 On ch=1 n=d6 v=64
116632 On ch=1 n=g#5 v=64
116632 On ch=1 n=f4 v=64
116638 On ch=1 n=c#6 v=0
116760 On ch=1 n=b5 v=65
116760 On ch=1 n=f5 v=65
116760 On ch=1 n=d5 v=65
116760 On ch=1 n=g#4 v=65
116768 On ch=1 n=b4 v=0
116776 On ch=1 n=f4 v=0
116776 On ch=1 n=g#5 v=0
116780 On ch=1 n=d6 v=0
116890 On ch=1 n=d6 v=66
116890 On ch=1 n=g#5 v=66
116890 On ch=1 n=f4 v=66
116894 On ch=1 n=b4 v=66
116900 On ch=1 n=g#4 v=0
116900 On ch=1 n=d5 v=0
116900 On ch=1 n=f5 v=0
116900 On ch=1 n=b5 v=0
116990 On ch=1 n=c5 v=66
116990 On ch=1 n=f#4 v=66
116994 On ch=1 n=d#6 v=66
116994 On ch=1 n=a5 v=66
117004 On ch=1 n=f4 v=0
117004 On ch=1 n=g#5 v=0
117004 On ch=1 n=d6 v=0
117010 On ch=1 n=b4 v=0
117094 On ch=1 n=f#4 v=0
117100 On ch=1 n=a#5 v=67
117100 On ch=1 n=e6 v=67
117104 On ch=1 n=c#5 v=67
117110 On ch=1 n=a5 v=0
117110 On ch=1 n=g4 v=67
117114 On ch=1 n=d#6 v=0
117114 On ch=1 n=c5 v=0
117200 On ch=1 n=c#6 v=68
117204 On ch=1 n=a#4 v=68
117210 On ch=1 n=g4 v=0
117210 On ch=1 n=g5 v=68
117210 On ch=1 n=e5 v=68
117214 On ch=1 n=e6 v=0
117220 On ch=1 n=c#5 v=0
117220 On ch=1 n=a#5 v=0
117314 On ch=1 n=e6 v=69
117314 On ch=1 n=a#5 v=69
117314 On ch=1 n=c#5 v=69
117320 On ch=1 n=g4 v=69
117334 On ch=1 n=c#6 v=0
117340 On ch=1 n=a#4 v=0
117344 On ch=1 n=e5 v=0
117344 On ch=1 n=g5 v=0
117414 On ch=1 n=f6 v=69
117420 On ch=1 n=b5 v=69
117420 On ch=1 n=g#4 v=69
117424 On ch=1 n=g4 v=0
117424 On ch=1 n=c#5 v=0
117424 On ch=1 n=d5 v=70
117430 On ch=1 n=a#5 v=0
117430 On ch=1 n=e6 v=0
117514 On ch=1 n=f#6 v=71
117514 On ch=1 n=c6 v=71
117520 On ch=1 n=f6 v=0
117520 On ch=1 n=d#5 v=71
117520 On ch=1 n=a4 v=71
117524 On ch=1 n=g#4 v=0
117530 On ch=1 n=d5 v=0
117530 On ch=1 n=b5 v=0
117610 On ch=1 n=d#6 v=71
117614 On ch=1 n=a5 v=71
117620 On ch=1 n=f#5 v=71
117620 On ch=1 n=c5 v=71
117624 On ch=1 n=f#6 v=0
117630 On ch=1 n=d#5 v=0
117630 On ch=1 n=c6 v=0
117634 On ch=1 n=a4 v=0
117710 On ch=1 n=c6 v=72
117714 On ch=1 n=f#6 v=72
117714 On ch=1 n=a4 v=72
117720 On ch=1 n=d#5 v=72
117730 On ch=1 n=d#6 v=0
117734 On ch=1 n=c5 v=0
117734 On ch=1 n=f#5 v=0
117734 On ch=1 n=a5 v=0
117810 On ch=1 n=g6 v=72
117810 On ch=1 n=c#6 v=72
117810 On ch=1 n=a#4 v=72
117814 On ch=1 n=c6 v=0
117814 On ch=1 n=e5 v=72
117820 On ch=1 n=d#5 v=0
117820 On ch=1 n=f#6 v=0
117834 On ch=1 n=a4 v=0
117900 On ch=1 n=g#6 v=73
117910 On ch=1 n=c#6 v=0
117910 On ch=1 n=g6 v=0
117910 On ch=1 n=d6 v=73
117914 On ch=1 n=a#4 v=0
117914 On ch=1 n=b4 v=73
117920 On ch=1 n=e5 v=0
117920 On ch=1 n=f5 v=73
117990 On ch=1 n=f6 v=73
118000 On ch=1 n=b5 v=73
118000 On ch=1 n=g#5 v=73
118004 On ch=1 n=d5 v=73
118010 On ch=1 n=f5 v=0
118010 On ch=1 n=d6 v=0
118010 On ch=1 n=g#6 v=0
118020 On ch=1 n=b4 v=0
118090 On ch=1 n=g#6 v=75
118094 On ch=1 n=f5 v=75
118094 On ch=1 n=b4 v=75
118100 On ch=1 n=d6 v=75
118114 On ch=1 n=f6 v=0
118120 On ch=1 n=g#5 v=0
118120 On ch=1 n=b5 v=0
118124 On ch=1 n=d5 v=0
118180 On ch=1 n=a6 v=75
118180 On ch=1 n=d#6 v=75
118180 On ch=1 n=f#5 v=75
118180 On ch=1 n=c5 v=75
118184 On ch=1 n=f5 v=0
118190 On ch=1 n=g#6 v=0
118200 On ch=1 n=d6 v=0
118200 On ch=1 n=b4 v=0
118264 On ch=1 n=a#6 v=76
118270 On ch=1 n=d#6 v=0
118270 On ch=1 n=e6 v=76
118270 On ch=1 n=g5 v=76
118280 On ch=1 n=c#5 v=76
118300 On ch=1 n=f#5 v=0
118300 On ch=1 n=a6 v=0
118310 On ch=1 n=c5 v=0
118360 On ch=1 n=g6 v=77
118360 On ch=1 n=a#5 v=77
118364 On ch=1 n=e5 v=77
118370 On ch=1 n=c#6 v=77
118400 On ch=1 n=a#6 v=0
118404 On ch=1 n=g5 v=0
118410 On ch=1 n=e6 v=0
118414 On ch=1 n=c#5 v=0
118450 On ch=1 n=a#6 v=78
118450 On ch=1 n=e6 v=78
118450 On ch=1 n=c#5 v=78
118454 On ch=1 n=g5 v=78
118460 On ch=1 n=g6 v=0
118464 On ch=1 n=e5 v=0
118464 On ch=1 n=a#5 v=0
118470 On ch=1 n=c#6 v=0
118534 On ch=1 n=b6 v=78
118534 On ch=1 n=f6 v=78
118534 On ch=1 n=g#5 v=78
118540 On ch=1 n=d5 v=78
118554 On ch=1 n=c#5 v=0
118554 On ch=1 n=e6 v=0
118554 On ch=1 n=a#6 v=0
118560 On ch=1 n=g5 v=0
118620 On ch=1 n=c7 v=66
118624 On ch=1 n=f#6 v=61
118630 On ch=1 n=a5 v=55
118630 On ch=1 n=d#5 v=54
118634 On ch=1 n=g#5 v=0
118640 On ch=1 n=f6 v=0
118640 On ch=1 n=b6 v=0
118644 On ch=1 n=d5 v=0
118704 On ch=1 n=f#5 v=65
118710 On ch=1 n=a6 v=67
118714 On ch=1 n=f#6 v=0
118714 On ch=1 n=c6 v=70
118720 On ch=1 n=c7 v=0
118720 On ch=1 n=d#6 v=64
118724 On ch=1 n=d#5 v=0
118724 On ch=1 n=a5 v=0
118794 On ch=1 n=c7 v=68
118794 On ch=1 n=f#6 v=62
118800 On ch=1 n=f#5 v=0
118800 On ch=1 n=c6 v=67
118800 On ch=1 n=a5 v=60
118800 On ch=1 n=d#5 v=58
118810 On ch=1 n=a6 v=0
118814 On ch=1 n=c6 v=0
118820 On ch=1 n=d#6 v=0
118840 On ch=1 n=c6 v=0
118894 On ch=1 n=a#5 v=30
118894 On ch=1 n=e5 v=58
118904 On ch=1 n=c#7 v=57
118904 On ch=1 n=g6 v=40
118914 On ch=1 n=f#6 v=0
118914 On ch=1 n=c7 v=0
118920 On ch=1 n=d#5 v=0
118920 On ch=1 n=a5 v=0
118984 On ch=1 n=a#5 v=0
118994 On ch=1 n=e7 v=70
119000 On ch=1 n=e5 v=0
119000 On ch=1 n=g5 v=52
119000 On ch=1 n=c#6 v=60
119000 On ch=1 n=a#6 v=61
119010 On ch=1 n=c#7 v=0
119024 On ch=1 n=g6 v=0
119074 On ch=1 n=c#7 v=67
119080 On ch=1 n=g7 v=36
119080 On ch=1 n=a#5 v=59
119084 On ch=1 n=c#6 v=0
119084 On ch=1 n=e6 v=63
119094 On ch=1 n=e7 v=0
119100 On ch=1 n=a#6 v=0
119100 On ch=1 n=g5 v=0
119180 On ch=1 n=c#7 v=0
119180 On ch=1 n=e7 v=68
119180 On ch=1 n=c#6 v=54
119184 On ch=1 n=g7 v=0
119184 On ch=1 n=a#6 v=71
119184 On ch=1 n=g5 v=55
119190 On ch=1 n=e6 v=0
119190 On ch=1 n=a#5 v=0
119264 On ch=1 n=c#6 v=56
119270 On ch=1 n=c#7 v=59
119270 On ch=1 n=e6 v=62
119274 On ch=1 n=g7 v=56
119280 On ch=1 n=c#6 v=0
119280 On ch=1 n=a#5 v=51
119284 On ch=1 n=e7 v=0
119290 On ch=1 n=g5 v=0
119290 On ch=1 n=a#6 v=0
119344 On ch=1 n=c#6 v=0
119360 On ch=1 n=e7 v=48
119364 On ch=1 n=e6 v=0
119364 On ch=1 n=c#7 v=0
119364 On ch=1 n=a#7 v=63
119370 On ch=1 n=a#5 v=0
119370 On ch=1 n=g7 v=0
119374 On ch=1 n=g6 v=61
119380 On ch=1 n=c#6 v=48
119480 On ch=1 n=e7 v=0
119484 On ch=1 n=a#7 v=0
119484 On ch=1 n=g7 v=29
119494 On ch=1 n=g6 v=0
119494 On ch=1 n=e8 v=52
119494 On ch=1 n=a#6 v=41
119494 On ch=1 n=e6 v=44
119500 On ch=1 n=c#6 v=0
119590 On ch=1 n=g7 v=0
119594 On ch=1 n=a#6 v=0
119600 On ch=1 n=e6 v=0
119600 On ch=1 n=e8 v=0
119904 On ch=1 n=g#5 v=5
119952 On ch=1 n=c#6 v=93
119984 On ch=1 n=g#2 v=83
120016 On ch=1 n=e6 v=79
120064 On ch=1 n=g#6 v=99
120708 On ch=1 n=c#6 v=0
120720 On ch=1 n=e4 v=59
120720 On ch=1 n=c#5 v=55
120730 On ch=1 n=g#4 v=63
120730 On ch=1 n=e5 v=56
120740 On ch=1 n=e6 v=0
120914 On ch=1 n=g#6 v=0
121120 On ch=1 n=c#7 v=67
121190 On ch=1 n=g#5 v=0
121350 On ch=1 n=c#7 v=0
121384 On ch=1 n=b6 v=58
121604 On ch=1 n=a6 v=62
121630 On ch=1 n=b6 v=0
121770 On ch=1 n=g#4 v=0
121780 On ch=1 n=c#5 v=0
121780 On ch=1 n=e4 v=0
121784 On ch=1 n=g6 v=64
121794 On ch=1 n=e5 v=0
121810 On ch=1 n=a6 v=0
121980 On ch=1 n=g#6 v=47
121990 On ch=1 n=g6 v=0
122164 On ch=1 n=e6 v=62
122194 On ch=1 n=g#6 v=0
122254 On ch=1 n=g#2 v=0
122330 On ch=1 n=c6 v=62
122340 On ch=1 n=e6 v=0
122550 On ch=1 n=d#6 v=58
122580 On ch=1 n=c6 v=0
122750 On ch=1 n=e6 v=63
122770 On ch=1 n=d#6 v=0
122974 On ch=1 n=c#6 v=63
123004 On ch=1 n=e6 v=0
123240 On ch=1 n=g5 v=48
123254 On ch=1 n=c#6 v=0
123570 On ch=1 n=g#5 v=45
123594 On ch=1 n=g5 v=0
124574 On ch=1 n=f#4 v=39
124580 On ch=1 n=g#3 v=51
124584 On ch=1 n=c5 v=39
124610 On ch=1 n=g#5 v=0
125810 On ch=1 n=c5 v=0
125894 On ch=1 n=c#5 v=40
125900 On ch=1 n=e4 v=28
125954 On ch=1 n=f#4 v=0
125960 On ch=1 n=g#3 v=0
126234 On ch=1 n=c#3 v=36
126280 On ch=1 n=e4 v=0
126534 On ch=1 n=g#3 v=30
126750 On ch=1 n=e4 v=30
126760 On ch=1 n=g#3 v=0
126940 On ch=1 n=d#4 v=30
126980 On ch=1 n=e4 v=0
127104 On ch=1 n=c#4 v=30
127120 On ch=1 n=d#4 v=0
127154 On ch=1 n=c#5 v=0
127320 On ch=1 n=a4 v=45
127574 On ch=1 n=e5 v=30
127810 On ch=1 n=d#5 v=30
127960 On ch=1 n=e5 v=0
128004 On ch=1 n=c#5 v=30
128014 On ch=1 n=d#5 v=0
128020 On ch=1 n=c#3 v=0
128094 On ch=1 n=a4 v=0
128170 On ch=1 n=c#4 v=0
128174 On ch=1 n=e5 v=30
128370 On ch=1 n=g5 v=30
128560 On ch=1 n=a5 v=35
128580 On ch=1 n=a6 v=52
128660 On ch=1 n=c#5 v=0
128760 On ch=1 n=c#6 v=51
128954 On ch=1 n=f#6 v=49
128990 On ch=1 n=g5 v=0
129054 On ch=1 n=e5 v=0
129070 On ch=1 n=a5 v=0
129168 On ch=1 n=g5 v=45
129180 On ch=1 n=e6 v=56
129210 On ch=1 n=c#6 v=0
129240 On ch=1 n=f#6 v=0
129310 On ch=1 n=a6 v=0
129334 On ch=1 n=a6 v=44
129502 On ch=1 n=g5 v=0
129510 On ch=1 n=f#5 v=38
129532 On ch=1 n=e6 v=0
129550 On ch=1 n=a6 v=0
129550 On ch=1 n=d6 v=50
129600 On ch=1 n=a6 v=58
129804 On ch=1 n=d3 v=36
129984 On ch=1 n=a3 v=30
130130 On ch=1 n=a3 v=0
130134 On ch=1 n=f#5 v=0
130150 On ch=1 n=f#4 v=30
130350 On ch=1 n=a6 v=0
130350 On ch=1 n=f#6 v=49
130354 On ch=1 n=f#4 v=0
130360 On ch=1 n=a5 v=31
130364 On ch=1 n=e4 v=30
130374 On ch=1 n=d6 v=0
130534 On ch=1 n=d4 v=30
130554 On ch=1 n=e4 v=0
130730 On ch=1 n=a4 v=30
130944 On ch=1 n=f#5 v=30
130960 On ch=1 n=a4 v=0
130974 On ch=1 n=a5 v=0
131020 On ch=1 n=d3 v=0
131060 On ch=1 n=f#5 v=0
131094 On ch=1 n=f#5 v=41
131100 On ch=1 n=d4 v=0
131144 On ch=1 n=g#6 v=54
131160 On ch=1 n=f#6 v=0
131174 On ch=1 n=c6 v=25
131334 On ch=1 n=g#3 v=49
131530 On ch=1 n=d#4 v=45
131540 On ch=1 n=f#5 v=0
131710 On ch=1 n=c5 v=45
131714 On ch=1 n=c6 v=0
131840 On ch=1 n=g#6 v=0
131950 On ch=1 n=f#5 v=45
131960 On ch=1 n=c7 v=56
131960 On ch=1 n=c6 v=44
132190 On ch=1 n=d#4 v=0
132204 On ch=1 n=e6 v=59
132440 On ch=1 n=g#6 v=59
132480 On ch=1 n=c5 v=0
132484 On ch=1 n=e6 v=0
132490 On ch=1 n=c7 v=0
132690 On ch=1 n=c7 v=49
132694 On ch=1 n=g#6 v=0
132694 On ch=1 n=f#6 v=56
132694 On ch=1 n=d#6 v=56
132730 On ch=1 n=c6 v=0
132930 On ch=1 n=c7 v=0
132940 On ch=1 n=d#6 v=0
132940 On ch=1 n=f#5 v=0
132990 On ch=1 n=f#6 v=0
133010 On ch=1 n=g#3 v=0
133034 On ch=1 n=c7 v=60
133044 On ch=1 n=c6 v=41
133050 On ch=1 n=e6 v=50
133290 On ch=1 n=c#3 v=49
133490 On ch=1 n=g#3 v=44
133670 On ch=1 n=e4 v=42
133674 On ch=1 n=g#3 v=0
133820 On ch=1 n=d#4 v=42
133904 On ch=1 n=e4 v=0
133994 On ch=1 n=c#4 v=40
134014 On ch=1 n=d#4 v=0
134174 On ch=1 n=g#4 v=39
134310 On ch=1 n=c7 v=0
134314 On ch=1 n=c6 v=0
134352 On ch=1 n=c#6 v=45
134360 On ch=1 n=e5 v=38
134364 On ch=1 n=c#7 v=51
134370 On ch=1 n=g#4 v=0
134530 On ch=1 n=d#5 v=37
134560 On ch=1 n=e5 v=0
134714 On ch=1 n=c#5 v=36
134720 On ch=1 n=d#5 v=0
134904 On ch=1 n=g#5 v=35
135030 On ch=1 n=e6 v=0
135124 On ch=1 n=e6 v=30
135130 On ch=1 n=g#5 v=0
135294 On ch=1 n=c#4 v=0
135320 On ch=1 n=d#6 v=29
135354 On ch=1 n=e6 v=0
135468 On ch=1 n=c#6 v=0
135534 On ch=1 n=c#6 v=28
135544 On ch=1 n=d#6 v=0
135550 On ch=1 n=c#3 v=0
135590 On ch=1 n=c#5 v=0
135790 On ch=1 n=e6 v=27
135830 On ch=1 n=c#7 v=0
136034 On ch=1 n=c#7 v=26
136070 On ch=1 n=c#6 v=0
136220 On ch=1 n=e6 v=0
136390 On ch=1 n=c#8 v=24
136444 On ch=1 n=c#7 v=0
137244 On ch=1 n=c#8 v=0
137760 On ch=1 n=g#4 v=40
137764 On ch=1 n=c#3 v=43
137770 On ch=1 n=e5 v=39
137770 On ch=1 n=e4 v=32
137770 On ch=1 n=g#3 v=40
139544 On ch=1 n=g#4 v=0
139548 On ch=1 n=c#3 v=0
139554 On ch=1 n=g#3 v=0
139554 On ch=1 n=e4 v=0
139554 On ch=1 n=e5 v=0
139600 On ch=1 n=c#5 v=22
139600 On ch=1 n=g#3 v=28
139610 On ch=1 n=e4 v=30
139610 On ch=1 n=c#3 v=22
142980 On ch=1 n=c#3 v=0
143004 On ch=1 n=g#3 v=0
143014 On ch=1 n=e4 v=0
143030 On ch=1 n=c#5 v=0
143030 Meta TrkEnd
TrkEnd
