MFile 1 2 480
MTrk
0 TimeSig 4/4 24 8
0 KeySig 0 major
0 Tempo 500000
0 Meta TrkEnd
TrkEnd
MTrk
0 Meta 0x21 00
0 Meta TrkName "Brahms: Rhapsody n. 2"
0 Par ch=1 c=91 v=127
0 On ch=1 n=d2 v=78
0 On ch=1 n=d3 v=80
0 On ch=1 n=d5 v=96
112 Par ch=1 c=64 v=127
222 On ch=1 n=d4 v=67
232 On ch=1 n=d2 v=0
314 On ch=1 n=d3 v=0
372 On ch=1 n=d4 v=0
434 On ch=1 n=a4 v=56
496 On ch=1 n=d5 v=0
612 On ch=1 n=d#5 v=112
615 On ch=1 n=g3 v=96
615 On ch=1 n=g2 v=101
648 Par ch=1 c=64 v=0
692 On ch=1 n=a4 v=0
797 On ch=1 n=d#4 v=73
838 On ch=1 n=g2 v=0
850 Par ch=1 c=64 v=127
886 On ch=1 n=g3 v=0
968 On ch=1 n=a#4 v=52
1002 On ch=1 n=d#4 v=0
1108 On ch=1 n=a#4 v=0
1214 On ch=1 n=g5 v=108
1376 On ch=1 n=g5 v=0
1388 On ch=1 n=d#4 v=64
1526 On ch=1 n=a#4 v=46
1554 On ch=1 n=d#4 v=0
1682 On ch=1 n=a#4 v=0
1692 On ch=1 n=a#5 v=104
1772 On ch=1 n=a#5 v=0
1828 On ch=1 n=d#4 v=71
1952 On ch=1 n=d#4 v=0
1962 On ch=1 n=a#4 v=56
2030 On ch=1 n=d#5 v=0
2134 On ch=1 n=e5 v=116
2136 On ch=1 n=a#4 v=0
2136 On ch=1 n=c3 v=104
2139 Par ch=1 c=64 v=0
2146 On ch=1 n=c2 v=98
2258 On ch=1 n=e4 v=96
2268 On ch=1 n=c2 v=0
2308 Par ch=1 c=64 v=127
2326 On ch=1 n=c3 v=0
2408 On ch=1 n=a#4 v=64
2428 On ch=1 n=e4 v=0
2482 On ch=1 n=e5 v=0
2526 On ch=1 n=a#4 v=0
2554 Par ch=1 c=64 v=0
2568 On ch=1 n=f5 v=118
2572 On ch=1 n=a3 v=104
2574 On ch=1 n=a2 v=104
2716 On ch=1 n=f4 v=109
2738 On ch=1 n=a2 v=0
2754 Par ch=1 c=64 v=127
2782 On ch=1 n=a3 v=0
2868 On ch=1 n=c5 v=74
2916 On ch=1 n=f4 v=0
3016 On ch=1 n=c5 v=0
3024 On ch=1 n=a5 v=112
3182 On ch=1 n=f4 v=104
3302 On ch=1 n=c5 v=77
3340 On ch=1 n=f4 v=0
3414 On ch=1 n=a5 v=0
3434 On ch=1 n=c5 v=0
3452 On ch=1 n=c6 v=116
3528 On ch=1 n=c6 v=0
3558 On ch=1 n=f4 v=115
3624 On ch=1 n=f5 v=0
3660 On ch=1 n=f4 v=0
3682 On ch=1 n=c5 v=85
3726 On ch=1 n=c5 v=0
3976 On ch=1 n=f6 v=115
3990 On ch=1 n=a2 v=105
3993 On ch=1 n=a1 v=104
4080 On ch=1 n=a1 v=0
4108 On ch=1 n=f5 v=82
4116 On ch=1 n=a2 v=0
4260 On ch=1 n=c6 v=89
4274 On ch=1 n=f6 v=0
4352 On ch=1 n=f5 v=0
4434 On ch=1 n=e6 v=108
4438 On ch=1 n=c3 v=104
4440 On ch=1 n=c4 v=102
4460 Par ch=1 c=64 v=0
4506 On ch=1 n=c6 v=0
4552 On ch=1 n=e5 v=82
4674 Par ch=1 c=64 v=127
4698 On ch=1 n=e6 v=0
4704 On ch=1 n=g5 v=83
4770 On ch=1 n=c4 v=0
4774 On ch=1 n=e5 v=0
4832 On ch=1 n=c6 v=109
4844 On ch=1 n=c3 v=0
4856 On ch=1 n=g5 v=0
4958 On ch=1 n=c5 v=83
5060 On ch=1 n=c6 v=0
5090 On ch=1 n=e5 v=81
5156 On ch=1 n=c5 v=0
5208 On ch=1 n=e5 v=0
5222 On ch=1 n=g5 v=108
5232 On ch=1 n=c2 v=109
5234 On ch=1 n=c3 v=102
5274 On ch=1 n=c2 v=0
5334 On ch=1 n=c3 v=0
5364 On ch=1 n=g4 v=97
5474 On ch=1 n=g4 v=0
5496 On ch=1 n=e5 v=97
5556 On ch=1 n=g5 v=0
5626 On ch=1 n=e5 v=0
5626 On ch=1 n=a5 v=101
5636 On ch=1 n=f#4 v=105
5648 On ch=1 n=g5 v=63
5650 On ch=1 n=d#4 v=90
5650 On ch=1 n=c4 v=81
5768 On ch=1 n=a4 v=93
5782 On ch=1 n=f#4 v=0
5802 On ch=1 n=d#4 v=0
5808 On ch=1 n=c4 v=0
5916 On ch=1 n=f#5 v=88
5919 On ch=1 n=d#5 v=95
5950 On ch=1 n=g5 v=0
5958 On ch=1 n=a4 v=0
5990 On ch=1 n=a5 v=0
6070 On ch=1 n=d#5 v=0
6086 On ch=1 n=g3 v=106
6088 On ch=1 n=g2 v=111
6088 Par ch=1 c=64 v=0
6090 On ch=1 n=b5 v=124
6098 On ch=1 n=f#5 v=0
6236 On ch=1 n=b4 v=103
6252 On ch=1 n=g2 v=0
6288 Par ch=1 c=64 v=127
6300 On ch=1 n=g3 v=0
6360 On ch=1 n=b4 v=0
6390 On ch=1 n=d5 v=85
6393 On ch=1 n=g5 v=94
6438 On ch=1 n=d5 v=0
6448 On ch=1 n=b5 v=0
6494 On ch=1 n=g5 v=0
6582 On ch=1 n=d6 v=116
6590 On ch=1 n=g4 v=100
6596 On ch=1 n=b3 v=78
6602 On ch=1 n=d4 v=83
6736 On ch=1 n=d4 v=0
6768 On ch=1 n=d5 v=93
6834 On ch=1 n=g4 v=0
6964 On ch=1 n=b5 v=82
6967 On ch=1 n=g5 v=65
6984 On ch=1 n=d5 v=0
7166 On ch=1 n=g5 v=0
7180 On ch=1 n=b4 v=94
7186 On ch=1 n=d4 v=72
7192 On ch=1 n=g4 v=83
7200 On ch=1 n=b5 v=0
7404 On ch=1 n=d5 v=72
7428 On ch=1 n=b4 v=0
7510 On ch=1 n=b3 v=0
7532 On ch=1 n=g4 v=0
7566 On ch=1 n=d4 v=0
7570 On ch=1 n=d5 v=0
7682 On ch=1 n=b5 v=83
7694 On ch=1 n=g5 v=54
7718 On ch=1 n=d6 v=0
7752 On ch=1 n=g5 v=0
7754 On ch=1 n=b5 v=0
8374 On ch=1 n=f#5 v=69
8378 On ch=1 n=f#3 v=77
8386 On ch=1 n=f#2 v=80
8578 Par ch=1 c=64 v=0
8602 On ch=1 n=f#4 v=75
8746 Par ch=1 c=64 v=127
8768 On ch=1 n=f#2 v=0
8792 On ch=1 n=c#5 v=73
8795 On ch=1 n=f#3 v=0
8798 On ch=1 n=f#4 v=0
8936 On ch=1 n=f#5 v=0
9000 On ch=1 n=g5 v=97
9006 On ch=1 n=b3 v=90
9010 On ch=1 n=b2 v=101
9032 On ch=1 n=c#5 v=0
9054 Par ch=1 c=64 v=0
9184 On ch=1 n=g4 v=71
9206 On ch=1 n=b2 v=0
9254 Par ch=1 c=64 v=127
9257 On ch=1 n=b3 v=0
9350 On ch=1 n=d5 v=66
9392 On ch=1 n=g4 v=0
9518 On ch=1 n=d5 v=0
9536 On ch=1 n=b5 v=115
9704 On ch=1 n=g4 v=62
9832 On ch=1 n=d5 v=73
9856 On ch=1 n=g4 v=0
9858 On ch=1 n=b5 v=0
9976 On ch=1 n=d5 v=0
10018 On ch=1 n=d6 v=112
10096 On ch=1 n=d6 v=0
10186 On ch=1 n=g4 v=66
10288 On ch=1 n=g4 v=0
10312 On ch=1 n=d5 v=81
10330 On ch=1 n=g5 v=0
10358 On ch=1 n=d5 v=0
10464 On ch=1 n=g#5 v=105
10470 On ch=1 n=e3 v=111
10472 On ch=1 n=e2 v=90
10514 Par ch=1 c=64 v=0
10618 On ch=1 n=g#4 v=82
10634 On ch=1 n=e2 v=0
10682 Par ch=1 c=64 v=127
10684 On ch=1 n=e3 v=0
10762 On ch=1 n=g#4 v=0
10778 On ch=1 n=d5 v=79
10852 On ch=1 n=g#5 v=0
10916 On ch=1 n=d5 v=0
10944 On ch=1 n=a5 v=100
10946 On ch=1 n=c#4 v=106
10954 On ch=1 n=c#3 v=101
11006 Par ch=1 c=64 v=0
11126 On ch=1 n=a4 v=85
11160 On ch=1 n=c#3 v=0
11190 Par ch=1 c=64 v=127
11193 On ch=1 n=c#4 v=0
11276 On ch=1 n=e5 v=81
11314 On ch=1 n=a4 v=0
11400 On ch=1 n=c#6 v=103
11422 On ch=1 n=e5 v=0
11518 On ch=1 n=a4 v=80
11674 On ch=1 n=e5 v=85
11684 On ch=1 n=a4 v=0
11786 On ch=1 n=e5 v=0
11794 On ch=1 n=c#6 v=0
11820 On ch=1 n=e6 v=108
11910 On ch=1 n=e6 v=0
11918 On ch=1 n=a4 v=74
11994 On ch=1 n=a5 v=0
12000 On ch=1 n=a4 v=0
12056 On ch=1 n=e5 v=67
12102 On ch=1 n=e5 v=0
12348 On ch=1 n=a6 v=124
12352 On ch=1 n=c#3 v=104
12356 On ch=1 n=c#2 v=106
12510 On ch=1 n=a5 v=67
12538 On ch=1 n=c#2 v=0
12574 On ch=1 n=c#3 v=0
12700 On ch=1 n=e6 v=77
12720 On ch=1 n=a5 v=0
12740 On ch=1 n=a6 v=0
12868 On ch=1 n=g#6 v=115
12878 On ch=1 n=e4 v=118
12880 On ch=1 n=e6 v=0
12880 On ch=1 n=e3 v=115
12894 Par ch=1 c=64 v=0
13014 On ch=1 n=g#5 v=72
13096 Par ch=1 c=64 v=127
13160 On ch=1 n=g#6 v=0
13168 On ch=1 n=b5 v=72
13194 On ch=1 n=g#5 v=0
13242 On ch=1 n=e4 v=0
13270 On ch=1 n=b5 v=0
13306 On ch=1 n=e6 v=113
13326 On ch=1 n=e3 v=0
13432 On ch=1 n=e5 v=88
13524 On ch=1 n=e6 v=0
13548 On ch=1 n=g#5 v=89
13588 On ch=1 n=e5 v=0
13666 On ch=1 n=g#5 v=0
13704 On ch=1 n=b5 v=119
13704 On ch=1 n=e3 v=125
13718 On ch=1 n=e2 v=96
13754 On ch=1 n=e2 v=0
13804 On ch=1 n=e3 v=0
13804 On ch=1 n=b4 v=95
13916 On ch=1 n=b4 v=0
13960 On ch=1 n=g#5 v=90
13994 On ch=1 n=b5 v=0
14086 On ch=1 n=g#5 v=0
14118 On ch=1 n=c#6 v=113
14130 On ch=1 n=a#4 v=90
14148 On ch=1 n=g4 v=74
14152 On ch=1 n=e4 v=87
14232 On ch=1 n=g4 v=0
14244 On ch=1 n=c#5 v=89
14268 On ch=1 n=a#4 v=0
14280 On ch=1 n=e4 v=0
14400 On ch=1 n=c#5 v=0
14404 On ch=1 n=g5 v=81
14404 On ch=1 n=a#5 v=81
14474 On ch=1 n=c#6 v=0
14478 On ch=1 n=g5 v=0
14576 On ch=1 n=d#6 v=116
14576 On ch=1 n=b3 v=111
14582 On ch=1 n=b2 v=120
14584 On ch=1 n=a#5 v=0
14600 Par ch=1 c=64 v=0
14728 On ch=1 n=d#5 v=103
14782 On ch=1 n=b2 v=0
14830 On ch=1 n=b3 v=0
14846 On ch=1 n=d#5 v=0
14846 Par ch=1 c=64 v=127
14878 On ch=1 n=f#5 v=79
14888 On ch=1 n=b5 v=97
14924 On ch=1 n=f#5 v=0
14970 On ch=1 n=d#6 v=0
14996 On ch=1 n=b5 v=0
15068 On ch=1 n=f#6 v=113
15074 On ch=1 n=b4 v=109
15074 On ch=1 n=f#4 v=101
15088 On ch=1 n=d#4 v=80
15256 On ch=1 n=f#5 v=87
15350 On ch=1 n=f#4 v=0
15384 On ch=1 n=d#4 v=0
15388 On ch=1 n=b4 v=0
15438 On ch=1 n=d#6 v=80
15452 On ch=1 n=b5 v=82
15481 On ch=1 n=f#5 v=0
15626 On ch=1 n=d#5 v=104
15629 On ch=1 n=b5 v=0
15629 On ch=1 n=f#4 v=92
15652 On ch=1 n=b4 v=86
15692 On ch=1 n=d#6 v=0
15756 On ch=1 n=d#5 v=0
15780 On ch=1 n=f#4 v=0
15783 On ch=1 n=b4 v=0
15842 On ch=1 n=f#5 v=92
16064 On ch=1 n=f#5 v=0
16160 On ch=1 n=d#6 v=92
16168 On ch=1 n=b5 v=89
16256 On ch=1 n=b5 v=0
16266 On ch=1 n=f#6 v=0
16540 On ch=1 n=d#6 v=0
17566 Par ch=1 c=64 v=0
17578 On ch=1 n=b5 v=127
17581 On ch=1 n=b3 v=115
17581 On ch=1 n=b4 v=123
17584 On ch=1 n=b2 v=119
17662 On ch=1 n=b2 v=0
17678 On ch=1 n=b3 v=0
17702 On ch=1 n=b4 v=0
17720 Par ch=1 c=64 v=127
17768 On ch=1 n=b5 v=0
18106 On ch=1 n=e6 v=121
18112 On ch=1 n=g5 v=101
18112 On ch=1 n=b5 v=118
18116 On ch=1 n=e5 v=120
18116 On ch=1 n=e2 v=115
18118 On ch=1 n=e3 v=127
18166 On ch=1 n=e2 v=0
18196 On ch=1 n=e3 v=0
18234 On ch=1 n=e5 v=0
18258 On ch=1 n=e6 v=0
18330 On ch=1 n=g5 v=0
18333 On ch=1 n=b5 v=0
18504 Par ch=1 c=64 v=0
18768 On ch=1 n=d6 v=124
18770 On ch=1 n=f#3 v=115
18770 On ch=1 n=d5 v=119
18774 On ch=1 n=a5 v=102
18776 On ch=1 n=f#2 v=111
18780 Par ch=1 c=64 v=127
19072 Par ch=1 c=64 v=0
19270 Par ch=1 c=64 v=127
19284 On ch=1 n=d6 v=0
19288 On ch=1 n=a5 v=0
19300 On ch=1 n=f#2 v=0
19354 On ch=1 n=f#3 v=0
19372 On ch=1 n=d5 v=0
19516 On ch=1 n=a5 v=95
19519 On ch=1 n=d5 v=93
19548 Par ch=1 c=64 v=0
19562 On ch=1 n=d5 v=0
19572 On ch=1 n=a5 v=0
19666 On ch=1 n=b5 v=116
19668 On ch=1 n=g5 v=103
19670 On ch=1 n=g2 v=109
19672 On ch=1 n=d5 v=92
19674 On ch=1 n=g3 v=108
19704 On ch=1 n=g2 v=0
19726 On ch=1 n=g3 v=0
19729 On ch=1 n=d5 v=0
19748 On ch=1 n=g5 v=0
19782 On ch=1 n=b5 v=0
19834 On ch=1 n=b2 v=111
19834 On ch=1 n=b3 v=94
19920 On ch=1 n=b2 v=0
19938 On ch=1 n=b3 v=0
19984 On ch=1 n=g5 v=85
19987 On ch=1 n=d5 v=85
20030 On ch=1 n=d5 v=0
20036 On ch=1 n=g5 v=0
20130 On ch=1 n=a5 v=85
20130 On ch=1 n=d4 v=105
20133 On ch=1 n=d3 v=100
20136 On ch=1 n=d5 v=67
20136 On ch=1 n=f#5 v=66
20170 On ch=1 n=d3 v=0
20173 On ch=1 n=d4 v=0
20196 On ch=1 n=f#5 v=0
20212 On ch=1 n=d5 v=0
20226 On ch=1 n=a5 v=0
20254 Par ch=1 c=64 v=127
20298 On ch=1 n=f#4 v=110
20302 On ch=1 n=f#3 v=95
20332 Par ch=1 c=64 v=0
20372 On ch=1 n=f#3 v=0
20372 On ch=1 n=f#4 v=0
20434 On ch=1 n=d5 v=96
20498 On ch=1 n=d5 v=0
20584 On ch=1 n=b5 v=108
20584 On ch=1 n=g5 v=95
20587 On ch=1 n=g4 v=115
20587 On ch=1 n=d5 v=90
20594 On ch=1 n=g3 v=104
20630 On ch=1 n=g3 v=0
20644 On ch=1 n=g4 v=0
20664 On ch=1 n=d5 v=0
20682 On ch=1 n=g5 v=0
20702 On ch=1 n=b5 v=0
20744 On ch=1 n=b4 v=109
20748 On ch=1 n=b3 v=101
20828 On ch=1 n=b3 v=0
20838 On ch=1 n=b4 v=0
20872 On ch=1 n=g5 v=97
20884 On ch=1 n=d5 v=82
20928 On ch=1 n=d5 v=0
20968 On ch=1 n=g5 v=0
21030 On ch=1 n=d5 v=109
21030 On ch=1 n=a5 v=97
21033 On ch=1 n=d4 v=117
21036 On ch=1 n=f#5 v=83
21082 On ch=1 n=d4 v=0
21102 On ch=1 n=d5 v=0
21172 On ch=1 n=f#5 v=0
21192 Par ch=1 c=64 v=127
21206 On ch=1 n=d3 v=109
21210 On ch=1 n=d4 v=115
21226 On ch=1 n=a5 v=0
21238 On ch=1 n=d3 v=0
21246 On ch=1 n=d4 v=0
21252 Par ch=1 c=64 v=0
21324 On ch=1 n=d5 v=102
21434 On ch=1 n=d5 v=0
21480 On ch=1 n=g4 v=97
21480 On ch=1 n=b5 v=112
21480 On ch=1 n=g5 v=104
21483 On ch=1 n=d5 v=121
21483 On ch=1 n=g3 v=102
21516 On ch=1 n=g4 v=0
21524 On ch=1 n=d5 v=0
21536 On ch=1 n=g5 v=0
21544 On ch=1 n=g3 v=0
21560 Par ch=1 c=64 v=127
21588 On ch=1 n=b5 v=0
21650 On ch=1 n=g3 v=98
21654 On ch=1 n=g2 v=112
21684 On ch=1 n=g2 v=0
21684 On ch=1 n=g3 v=0
21776 On ch=1 n=g5 v=111
21868 Par ch=1 c=64 v=0
21898 On ch=1 n=g5 v=0
21982 On ch=1 n=g5 v=119
21984 On ch=1 n=g6 v=126
21984 On ch=1 n=d#6 v=110
21988 On ch=1 n=c6 v=112
21988 On ch=1 n=c3 v=123
21988 On ch=1 n=c2 v=125
22034 On ch=1 n=c2 v=0
22084 On ch=1 n=c3 v=0
22114 Par ch=1 c=64 v=127
22120 On ch=1 n=g6 v=0
22134 On ch=1 n=g5 v=0
22174 On ch=1 n=d#6 v=0
22174 On ch=1 n=c6 v=0
22374 Par ch=1 c=64 v=0
22634 On ch=1 n=f#6 v=118
22638 On ch=1 n=f#5 v=110
22642 On ch=1 n=d6 v=111
22644 On ch=1 n=d2 v=119
22644 On ch=1 n=a5 v=96
22646 On ch=1 n=d3 v=118
22652 Par ch=1 c=64 v=127
22694 On ch=1 n=c6 v=21
22762 On ch=1 n=c6 v=0
22836 Par ch=1 c=64 v=0
23174 Par ch=1 c=64 v=127
23198 On ch=1 n=d2 v=0
23224 On ch=1 n=f#6 v=0
23226 On ch=1 n=d6 v=0
23248 On ch=1 n=d3 v=0
23250 On ch=1 n=a5 v=0
23286 On ch=1 n=f#5 v=0
23462 On ch=1 n=d6 v=104
23464 On ch=1 n=d5 v=92
23466 On ch=1 n=a5 v=85
23518 On ch=1 n=d6 v=0
23522 On ch=1 n=d5 v=0
23536 On ch=1 n=a5 v=0
23606 On ch=1 n=g3 v=106
23606 On ch=1 n=g2 v=108
23618 On ch=1 n=a#5 v=94
23618 On ch=1 n=d5 v=94
23618 On ch=1 n=g5 v=90
23640 On ch=1 n=g2 v=0
23644 On ch=1 n=g3 v=0
23708 On ch=1 n=d5 v=0
23710 On ch=1 n=g5 v=0
23740 On ch=1 n=a#5 v=0
23742 Par ch=1 c=64 v=0
23766 On ch=1 n=a#3 v=103
23769 On ch=1 n=a#2 v=100
23828 On ch=1 n=a#2 v=0
23880 On ch=1 n=a#3 v=0
23922 On ch=1 n=g5 v=100
23925 On ch=1 n=d5 v=93
23972 On ch=1 n=d5 v=0
23990 On ch=1 n=g5 v=0
24080 On ch=1 n=d4 v=109
24080 On ch=1 n=f#5 v=87
24083 On ch=1 n=d3 v=95
24083 On ch=1 n=d5 v=81
24116 On ch=1 n=d4 v=0
24119 On ch=1 n=d3 v=0
24129 On ch=1 n=d5 v=0
24185 Par ch=1 c=64 v=127
24205 On ch=1 n=f#5 v=0
24225 On ch=1 n=f#4 v=109
24235 On ch=1 n=f#3 v=86
24245 Par ch=1 c=64 v=0
24273 On ch=1 n=f#4 v=0
24279 On ch=1 n=f#3 v=0
24351 On ch=1 n=a5 v=98
24355 On ch=1 n=d6 v=108
24355 On ch=1 n=d5 v=111
24411 On ch=1 n=d5 v=0
24417 On ch=1 n=d6 v=0
24461 On ch=1 n=a5 v=0
24511 On ch=1 n=g3 v=110
24511 On ch=1 n=g4 v=111
24514 On ch=1 n=d5 v=109
24514 On ch=1 n=g5 v=101
24514 On ch=1 n=a#5 v=98
24543 On ch=1 n=g3 v=0
24555 On ch=1 n=g4 v=0
24617 On ch=1 n=d5 v=0
24629 On ch=1 n=g5 v=0
24645 On ch=1 n=a#5 v=0
24645 Par ch=1 c=64 v=127
24657 On ch=1 n=a#4 v=101
24662 On ch=1 n=a#3 v=102
24707 Par ch=1 c=64 v=0
24721 On ch=1 n=a#3 v=0
24747 On ch=1 n=a#4 v=0
24813 On ch=1 n=g5 v=97
24817 On ch=1 n=d5 v=92
24863 On ch=1 n=d5 v=0
24891 On ch=1 n=g5 v=0
24957 On ch=1 n=d4 v=113
24959 On ch=1 n=d5 v=95
24967 On ch=1 n=f#5 v=95
24989 On ch=1 n=d4 v=0
25061 On ch=1 n=d5 v=0
25077 Par ch=1 c=64 v=127
25119 On ch=1 n=d3 v=112
25125 On ch=1 n=d4 v=89
25127 On ch=1 n=f#5 v=0
25147 On ch=1 n=d3 v=0
25167 On ch=1 n=d4 v=0
25199 Par ch=1 c=64 v=0
25239 On ch=1 n=a5 v=90
25242 On ch=1 n=d5 v=109
25247 On ch=1 n=d6 v=100
25295 On ch=1 n=d6 v=0
25303 On ch=1 n=d5 v=0
25349 On ch=1 n=a5 v=0
25397 On ch=1 n=d5 v=112
25401 On ch=1 n=g4 v=100
25403 On ch=1 n=a#5 v=98
25405 On ch=1 n=g3 v=95
25405 On ch=1 n=g5 v=97
25435 On ch=1 n=g4 v=0
25445 On ch=1 n=g5 v=0
25445 On ch=1 n=a#5 v=0
25455 On ch=1 n=g3 v=0
25475 Par ch=1 c=64 v=127
25499 On ch=1 n=d5 v=0
25577 On ch=1 n=g3 v=93
25579 On ch=1 n=g2 v=97
25617 On ch=1 n=g2 v=0
25617 On ch=1 n=g3 v=0
25717 On ch=1 n=a#4 v=87
25717 On ch=1 n=g5 v=104
25720 Par ch=1 c=64 v=0
25735 On ch=1 n=d5 v=95
25777 On ch=1 n=d5 v=0
25809 On ch=1 n=a#4 v=0
25812 On ch=1 n=g5 v=0
25903 On ch=1 n=a4 v=108
25908 On ch=1 n=f#5 v=108
25908 On ch=1 n=a3 v=105
25913 On ch=1 n=f#4 v=125
25921 On ch=1 n=d5 v=111
25943 On ch=1 n=a4 v=0
26001 Par ch=1 c=64 v=127
26013 On ch=1 n=a3 v=0
26111 On ch=1 n=a3 v=81
26119 On ch=1 n=a2 v=104
26151 On ch=1 n=a3 v=0
26155 On ch=1 n=a2 v=0
26295 On ch=1 n=f#4 v=0
26351 On ch=1 n=f#5 v=0
26489 On ch=1 n=f5 v=109
26491 On ch=1 n=g#4 v=103
26501 On ch=1 n=d3 v=108
26503 On ch=1 n=b4 v=102
26507 On ch=1 n=d4 v=104
26547 On ch=1 n=d4 v=0
26549 On ch=1 n=d5 v=0
26605 On ch=1 n=d3 v=0
26767 Par ch=1 c=64 v=0
26770 On ch=1 n=d3 v=111
26773 On ch=1 n=d2 v=112
26965 On ch=1 n=d2 v=0
26967 Par ch=1 c=64 v=127
26983 On ch=1 n=d3 v=0
27039 On ch=1 n=b4 v=0
27039 On ch=1 n=f5 v=0
27091 On ch=1 n=g#4 v=0
27295 On ch=1 n=c#5 v=106
27297 On ch=1 n=a3 v=104
27297 On ch=1 n=e5 v=120
27299 On ch=1 n=e4 v=120
27303 On ch=1 n=a2 v=110
27349 Par ch=1 c=64 v=0
27507 On ch=1 n=a3 v=0
27565 Par ch=1 c=64 v=127
27569 On ch=1 n=a2 v=0
27745 On ch=1 n=a2 v=115
27745 On ch=1 n=a1 v=113
28245 On ch=1 n=a2 v=0
28697 On ch=1 n=a1 v=0
29019 On ch=1 n=e4 v=0
29401 On ch=1 n=e5 v=0
29467 On ch=1 n=c#5 v=0
30943 On ch=1 n=a6 v=69
30945 Par ch=1 c=64 v=0
30955 On ch=1 n=a5 v=33
31209 On ch=1 n=a5 v=0
31223 Par ch=1 c=64 v=127
31329 On ch=1 n=a#6 v=77
31329 On ch=1 n=a#5 v=55
31397 On ch=1 n=a6 v=0
31483 On ch=1 n=a#5 v=0
31539 On ch=1 n=a#6 v=0
31581 On ch=1 n=a6 v=100
31587 On ch=1 n=a5 v=60
31651 On ch=1 n=a5 v=0
31813 On ch=1 n=g#5 v=65
31817 On ch=1 n=g#6 v=90
31831 On ch=1 n=d3 v=37
31851 Par ch=1 c=64 v=0
31865 On ch=1 n=a6 v=0
32021 On ch=1 n=a#3 v=43
32113 Par ch=1 c=64 v=127
32129 On ch=1 n=d3 v=0
32181 On ch=1 n=a#3 v=0
32229 On ch=1 n=d4 v=64
32293 On ch=1 n=d4 v=0
32437 On ch=1 n=f4 v=83
32637 On ch=1 n=a#4 v=26
32645 On ch=1 n=f4 v=0
32673 On ch=1 n=d6 v=87
32787 On ch=1 n=g#6 v=0
32843 On ch=1 n=e6 v=88
32846 On ch=1 n=d4 v=59
32899 On ch=1 n=a#4 v=0
32921 On ch=1 n=d4 v=0
32955 On ch=1 n=d6 v=0
33025 On ch=1 n=b4 v=71
33025 On ch=1 n=f6 v=96
33051 Par ch=1 c=64 v=0
33089 On ch=1 n=e6 v=0
33199 On ch=1 n=g6 v=103
33202 Par ch=1 c=64 v=127
33223 On ch=1 n=f6 v=0
33231 On ch=1 n=d4 v=59
33263 On ch=1 n=b4 v=0
33315 On ch=1 n=d4 v=0
33345 On ch=1 n=g6 v=0
33375 On ch=1 n=f6 v=96
33465 On ch=1 n=g#5 v=0
33565 On ch=1 n=f6 v=0
33583 On ch=1 n=a6 v=100
33595 On ch=1 n=e6 v=54
33597 On ch=1 n=a5 v=69
33603 On ch=1 n=c#3 v=64
33619 Par ch=1 c=64 v=0
33763 On ch=1 n=a5 v=0
33773 Par ch=1 c=64 v=127
33863 On ch=1 n=a#5 v=71
33866 On ch=1 n=c#3 v=0
33866 On ch=1 n=a#6 v=92
33895 On ch=1 n=c#4 v=55
33917 On ch=1 n=a6 v=0
33957 On ch=1 n=c#4 v=0
33983 On ch=1 n=a#5 v=0
34037 On ch=1 n=a#6 v=0
34047 On ch=1 n=e6 v=0
34085 On ch=1 n=a6 v=95
34099 On ch=1 n=a5 v=57
34117 On ch=1 n=e4 v=66
34169 On ch=1 n=a5 v=0
34187 On ch=1 n=e4 v=0
34295 On ch=1 n=d3 v=54
34301 On ch=1 n=g#6 v=86
34305 On ch=1 n=g#5 v=75
34341 Par ch=1 c=64 v=0
34357 On ch=1 n=a6 v=0
34517 On ch=1 n=a#3 v=42
34587 Par ch=1 c=64 v=127
34611 On ch=1 n=d3 v=0
34685 On ch=1 n=a#3 v=0
34753 On ch=1 n=d4 v=47
34823 On ch=1 n=d4 v=0
35009 On ch=1 n=f4 v=63
35097 On ch=1 n=f4 v=0
35191 On ch=1 n=a#4 v=41
35199 On ch=1 n=d6 v=75
35387 On ch=1 n=e6 v=80
35395 On ch=1 n=d4 v=59
35421 On ch=1 n=g#6 v=0
35449 On ch=1 n=a#4 v=0
35489 On ch=1 n=d6 v=0
35501 On ch=1 n=d4 v=0
35575 On ch=1 n=b4 v=66
35581 On ch=1 n=f6 v=82
35659 On ch=1 n=e6 v=0
35709 Par ch=1 c=64 v=0
35765 On ch=1 n=g6 v=101
35787 On ch=1 n=d4 v=63
35790 On ch=1 n=f6 v=0
35847 Par ch=1 c=64 v=127
35871 On ch=1 n=g6 v=0
35873 On ch=1 n=b4 v=0
35929 On ch=1 n=f6 v=93
35947 On ch=1 n=b3 v=65
35953 On ch=1 n=d4 v=0
35993 On ch=1 n=g#5 v=0
35995 On ch=1 n=b3 v=0
36105 On ch=1 n=f6 v=0
36121 On ch=1 n=c3 v=83
36124 On ch=1 n=a6 v=105
36139 On ch=1 n=a5 v=75
36139 Par ch=1 c=64 v=0
36149 On ch=1 n=e6 v=57
36241 On ch=1 n=a5 v=0
36277 Par ch=1 c=64 v=127
36299 On ch=1 n=c3 v=0
36341 On ch=1 n=a#6 v=88
36341 On ch=1 n=a#5 v=77
36344 On ch=1 n=c4 v=56
36377 On ch=1 n=a6 v=0
36441 On ch=1 n=c4 v=0
36444 On ch=1 n=a#5 v=0
36477 On ch=1 n=a#6 v=0
36539 On ch=1 n=a6 v=90
36541 On ch=1 n=e4 v=64
36545 On ch=1 n=a5 v=65
36557 On ch=1 n=e6 v=0
36589 On ch=1 n=e4 v=0
36667 On ch=1 n=a6 v=0
36689 On ch=1 n=a5 v=0
36751 On ch=1 n=a#2 v=56
36839 On ch=1 n=g6 v=96
36845 On ch=1 n=g5 v=60
36875 Par ch=1 c=64 v=0
37065 On ch=1 n=a#2 v=0
37069 On ch=1 n=a#3 v=49
37077 Par ch=1 c=64 v=127
37123 On ch=1 n=a#3 v=0
37265 On ch=1 n=d4 v=67
37357 On ch=1 n=d4 v=0
37443 On ch=1 n=g4 v=65
37583 On ch=1 n=g4 v=0
37631 On ch=1 n=c#6 v=74
37643 On ch=1 n=a#4 v=46
37721 On ch=1 n=g6 v=0
37763 On ch=1 n=a#4 v=0
37811 On ch=1 n=d6 v=100
37835 On ch=1 n=g4 v=60
37899 On ch=1 n=c#6 v=0
37941 On ch=1 n=g4 v=0
37983 On ch=1 n=e6 v=89
37986 On ch=1 n=c#5 v=78
38059 On ch=1 n=d6 v=0
38123 On ch=1 n=c#5 v=0
38167 On ch=1 n=f6 v=96
38177 On ch=1 n=a#4 v=62
38201 On ch=1 n=e6 v=0
38333 On ch=1 n=a#4 v=0
38333 On ch=1 n=c#4 v=83
38345 On ch=1 n=e6 v=94
38369 On ch=1 n=c#4 v=0
38395 On ch=1 n=f6 v=0
38417 On ch=1 n=g5 v=0
38525 On ch=1 n=d6 v=104
38527 On ch=1 n=f5 v=80
38535 Par ch=1 c=64 v=0
38545 On ch=1 n=a2 v=85
38579 On ch=1 n=e6 v=0
38687 On ch=1 n=a2 v=0
38693 On ch=1 n=a3 v=65
38703 On ch=1 n=e6 v=92
38705 Par ch=1 c=64 v=127
38735 On ch=1 n=d6 v=0
38759 On ch=1 n=a3 v=0
38843 On ch=1 n=d4 v=81
38873 On ch=1 n=d6 v=103
38887 On ch=1 n=d4 v=0
38905 On ch=1 n=e6 v=0
38931 On ch=1 n=f5 v=0
39037 On ch=1 n=c6 v=100
39043 On ch=1 n=g2 v=93
39047 On ch=1 n=e5 v=81
39059 Par ch=1 c=64 v=0
39071 On ch=1 n=d6 v=0
39199 On ch=1 n=g2 v=0
39207 On ch=1 n=g3 v=74
39221 On ch=1 n=d6 v=105
39227 Par ch=1 c=64 v=127
39241 On ch=1 n=c6 v=0
39253 On ch=1 n=e5 v=0
39259 On ch=1 n=g3 v=0
39357 On ch=1 n=d6 v=0
39367 On ch=1 n=a#5 v=85
39367 On ch=1 n=d5 v=94
39379 On ch=1 n=e4 v=59
39423 On ch=1 n=d5 v=0
39431 On ch=1 n=e4 v=0
39507 On ch=1 n=a#5 v=0
39535 Par ch=1 c=64 v=0
39541 On ch=1 n=a5 v=89
39543 On ch=1 n=c#5 v=98
39549 On ch=1 n=a2 v=81
39695 On ch=1 n=a3 v=71
39699 On ch=1 n=a2 v=0
39711 On ch=1 n=a#5 v=93
39733 Par ch=1 c=64 v=127
39745 On ch=1 n=c#5 v=0
39754 On ch=1 n=a3 v=0
39757 On ch=1 n=a5 v=0
39875 On ch=1 n=e4 v=96
39878 On ch=1 n=a5 v=95
39935 On ch=1 n=a#5 v=0
39941 On ch=1 n=e4 v=0
40087 On ch=1 n=a4 v=63
40090 On ch=1 n=e6 v=90
40095 On ch=1 n=g5 v=77
40115 On ch=1 n=a5 v=0
40119 Par ch=1 c=64 v=0
40285 On ch=1 n=a4 v=0
40319 Par ch=1 c=64 v=127
40322 On ch=1 n=e4 v=58
40469 On ch=1 n=e4 v=0
40485 On ch=1 n=c#4 v=55
40537 On ch=1 n=c#4 v=0
40553 On ch=1 n=g5 v=0
40681 On ch=1 n=f5 v=65
40689 On ch=1 n=d6 v=77
40699 On ch=1 n=a2 v=58
40717 On ch=1 n=e6 v=0
40717 Par ch=1 c=64 v=0
40855 On ch=1 n=a2 v=0
40873 On ch=1 n=a3 v=59
40875 On ch=1 n=e6 v=72
40887 On ch=1 n=d6 v=0
40887 Par ch=1 c=64 v=127
40935 On ch=1 n=a3 v=0
41009 On ch=1 n=d4 v=79
41035 On ch=1 n=d6 v=94
41053 On ch=1 n=d4 v=0
41055 On ch=1 n=e6 v=0
41085 On ch=1 n=f5 v=0
41175 On ch=1 n=c6 v=98
41178 On ch=1 n=e5 v=80
41178 Par ch=1 c=64 v=0
41188 On ch=1 n=g2 v=87
41196 On ch=1 n=d6 v=0
41326 On ch=1 n=g2 v=0
41326 On ch=1 n=g3 v=74
41344 Par ch=1 c=64 v=127
41346 On ch=1 n=d6 v=105
41350 On ch=1 n=c6 v=0
41366 On ch=1 n=e5 v=0
41376 On ch=1 n=g3 v=0
41470 On ch=1 n=d6 v=0
41470 On ch=1 n=a#5 v=93
41473 On ch=1 n=e4 v=85
41478 On ch=1 n=d5 v=95
41512 On ch=1 n=e4 v=0
41524 On ch=1 n=d5 v=0
41596 On ch=1 n=a#5 v=0
41636 Par ch=1 c=64 v=0
41638 On ch=1 n=a5 v=90
41640 On ch=1 n=a2 v=93
41640 On ch=1 n=c#5 v=100
41784 On ch=1 n=c#5 v=0
41784 On ch=1 n=a3 v=82
41790 On ch=1 n=a#5 v=96
41794 On ch=1 n=a2 v=0
41806 Par ch=1 c=64 v=127
41842 On ch=1 n=a3 v=0
41846 On ch=1 n=a5 v=0
41944 On ch=1 n=a5 v=75
41970 On ch=1 n=e4 v=89
42020 On ch=1 n=a#5 v=0
42060 On ch=1 n=e4 v=0
42128 On ch=1 n=g5 v=90
42130 On ch=1 n=e6 v=101
42140 On ch=1 n=a4 v=82
42154 On ch=1 n=a5 v=0
42158 Par ch=1 c=64 v=0
42306 On ch=1 n=a4 v=0
42328 Par ch=1 c=64 v=127
42338 On ch=1 n=e4 v=78
42416 On ch=1 n=g5 v=0
42419 On ch=1 n=e6 v=0
42468 On ch=1 n=c#4 v=87
42492 On ch=1 n=e4 v=0
42504 On ch=1 n=c#4 v=0
42634 On ch=1 n=c#5 v=100
42642 On ch=1 n=a5 v=86
42652 Par ch=1 c=64 v=0
42652 On ch=1 n=a2 v=87
42736 On ch=1 n=c#5 v=0
42784 On ch=1 n=a3 v=82
42790 Par ch=1 c=64 v=127
42793 On ch=1 n=a2 v=0
42812 On ch=1 n=a#5 v=89
42832 On ch=1 n=a3 v=0
42852 On ch=1 n=a5 v=0
42928 On ch=1 n=a#5 v=0
42948 On ch=1 n=a5 v=72
42950 On ch=1 n=e4 v=92
43054 On ch=1 n=e4 v=0
43096 Par ch=1 c=64 v=0
43098 On ch=1 n=a5 v=0
43104 On ch=1 n=g#5 v=95
43107 On ch=1 n=f6 v=116
43112 On ch=1 n=b4 v=102
43262 On ch=1 n=b4 v=0
43296 Par ch=1 c=64 v=127
43300 On ch=1 n=f4 v=104
43302 On ch=1 n=f6 v=0
43374 On ch=1 n=g#5 v=0
43420 On ch=1 n=d4 v=97
43438 On ch=1 n=f4 v=0
43458 On ch=1 n=d4 v=0
43588 On ch=1 n=c#5 v=98
43594 On ch=1 n=a5 v=87
43597 On ch=1 n=a2 v=108
43604 Par ch=1 c=64 v=0
43702 On ch=1 n=c#5 v=0
43720 On ch=1 n=a3 v=95
43734 On ch=1 n=a2 v=0
43756 Par ch=1 c=64 v=127
43758 On ch=1 n=a#5 v=90
43761 On ch=1 n=a3 v=0
43804 On ch=1 n=a5 v=0
43844 On ch=1 n=a#5 v=0
43898 On ch=1 n=e4 v=111
43902 On ch=1 n=a5 v=74
44022 On ch=1 n=a5 v=0
44034 Par ch=1 c=64 v=0
44046 On ch=1 n=e4 v=0
44050 On ch=1 n=g#6 v=118
44058 On ch=1 n=b5 v=97
44061 On ch=1 n=d5 v=118
44218 Par ch=1 c=64 v=127
44234 On ch=1 n=b4 v=102
44236 On ch=1 n=d5 v=0
44268 On ch=1 n=g#6 v=0
44282 On ch=1 n=b5 v=0
44374 On ch=1 n=f4 v=119
44394 On ch=1 n=b4 v=0
44414 On ch=1 n=f4 v=0
44546 On ch=1 n=c#5 v=98
44550 On ch=1 n=a5 v=96
44552 On ch=1 n=a2 v=126
44556 Par ch=1 c=64 v=0
44668 On ch=1 n=c#5 v=0
44728 On ch=1 n=a3 v=105
44734 On ch=1 n=a#5 v=95
44740 Par ch=1 c=64 v=127
44744 On ch=1 n=a2 v=0
44782 On ch=1 n=a3 v=0
44785 On ch=1 n=a5 v=0
44814 On ch=1 n=a#5 v=0
44910 On ch=1 n=a5 v=108
44924 On ch=1 n=e4 v=118
45190 On ch=1 n=a6 v=120
45193 On ch=1 n=e6 v=105
45193 On ch=1 n=c#6 v=88
45200 On ch=1 n=e5 v=112
45202 Par ch=1 c=64 v=0
45424 On ch=1 n=c#5 v=89
45430 On ch=1 n=e5 v=0
45432 Par ch=1 c=64 v=127
45444 On ch=1 n=e4 v=0
45580 On ch=1 n=c#5 v=0
45594 On ch=1 n=a4 v=87
45640 On ch=1 n=a4 v=0
45754 On ch=1 n=e4 v=101
45846 Par ch=1 c=64 v=0
45920 On ch=1 n=c#4 v=79
45944 On ch=1 n=e4 v=0
46016 Par ch=1 c=64 v=127
46062 On ch=1 n=c#4 v=0
46086 On ch=1 n=a3 v=79
46134 On ch=1 n=a3 v=0
46262 On ch=1 n=e3 v=92
46292 Par ch=1 c=64 v=0
46392 On ch=1 n=e3 v=0
46396 On ch=1 n=a6 v=0
46418 On ch=1 n=c#3 v=62
46462 Par ch=1 c=64 v=127
46488 On ch=1 n=e6 v=0
46526 On ch=1 n=a5 v=0
46562 On ch=1 n=c#6 v=0
46600 On ch=1 n=g#2 v=59
46636 On ch=1 n=c#3 v=0
46778 On ch=1 n=g#2 v=0
46814 On ch=1 n=a2 v=71
46816 Par ch=1 c=64 v=0
46888 On ch=1 n=a4 v=50
46928 On ch=1 n=a3 v=40
46968 On ch=1 n=a2 v=0
47052 On ch=1 n=a3 v=0
47060 Par ch=1 c=64 v=127
47084 On ch=1 n=a#4 v=55
47094 On ch=1 n=a4 v=0
47100 On ch=1 n=a#3 v=54
47164 On ch=1 n=a#3 v=0
47258 On ch=1 n=a3 v=52
47268 On ch=1 n=a4 v=59
47302 On ch=1 n=a#4 v=0
47316 On ch=1 n=a3 v=0
47322 On ch=1 n=a4 v=0
47444 Par ch=1 c=64 v=0
47464 On ch=1 n=d2 v=89
47468 On ch=1 n=d3 v=66
47468 On ch=1 n=d5 v=57
47482 On ch=1 n=a4 v=48
47570 On ch=1 n=a4 v=0
47658 On ch=1 n=a#4 v=40
47708 On ch=1 n=d3 v=0
47722 Par ch=1 c=64 v=127
47738 On ch=1 n=d5 v=0
47742 On ch=1 n=d2 v=0
47810 On ch=1 n=a#4 v=0
47826 On ch=1 n=a4 v=49
47888 On ch=1 n=a4 v=0
47998 Par ch=1 c=64 v=0
48018 On ch=1 n=a4 v=41
48026 On ch=1 n=d5 v=65
48030 On ch=1 n=f2 v=59
48030 On ch=1 n=f3 v=46
48158 On ch=1 n=a4 v=0
48194 On ch=1 n=a#4 v=40
48244 Par ch=1 c=64 v=127
48266 On ch=1 n=d5 v=0
48306 On ch=1 n=f2 v=0
48314 On ch=1 n=f3 v=0
48368 On ch=1 n=a4 v=51
48386 On ch=1 n=a#4 v=0
48424 On ch=1 n=a4 v=0
48546 On ch=1 n=a4 v=19
48549 Par ch=1 c=64 v=0
48554 On ch=1 n=g2 v=52
48556 On ch=1 n=g3 v=39
48562 On ch=1 n=d5 v=50
48722 On ch=1 n=a4 v=0
48732 On ch=1 n=a#4 v=37
48812 Par ch=1 c=64 v=127
48814 On ch=1 n=g2 v=0
48862 On ch=1 n=d5 v=0
48894 On ch=1 n=g3 v=0
48906 On ch=1 n=a4 v=47
48928 On ch=1 n=a#4 v=0
48968 On ch=1 n=a4 v=0
49026 Par ch=1 c=64 v=0
49054 On ch=1 n=a2 v=58
49078 On ch=1 n=a4 v=32
49104 On ch=1 n=a2 v=0
49114 On ch=1 n=a3 v=59
49182 Par ch=1 c=64 v=127
49222 On ch=1 n=a4 v=0
49240 On ch=1 n=a#4 v=43
49242 On ch=1 n=a#3 v=63
49246 On ch=1 n=a3 v=0
49362 On ch=1 n=a#3 v=0
49392 On ch=1 n=a3 v=79
49416 On ch=1 n=a4 v=56
49426 On ch=1 n=a#4 v=0
49434 On ch=1 n=a3 v=0
49474 On ch=1 n=a4 v=0
49586 On ch=1 n=d3 v=74
49588 On ch=1 n=a4 v=35
49594 On ch=1 n=d2 v=75
49604 On ch=1 n=d5 v=54
49612 Par ch=1 c=64 v=0
49760 On ch=1 n=a4 v=0
49762 On ch=1 n=a#4 v=48
49830 On ch=1 n=d5 v=0
49856 Par ch=1 c=64 v=127
49858 On ch=1 n=d2 v=0
49886 On ch=1 n=d3 v=0
49934 On ch=1 n=a4 v=56
49974 On ch=1 n=a#4 v=0
49994 On ch=1 n=a4 v=0
50102 Par ch=1 c=64 v=0
50120 On ch=1 n=a4 v=44
50120 On ch=1 n=f2 v=48
50120 On ch=1 n=d5 v=67
50128 On ch=1 n=f3 v=50
50248 On ch=1 n=a4 v=0
50282 On ch=1 n=a#4 v=43
50368 On ch=1 n=d5 v=0
50380 Par ch=1 c=64 v=127
50392 On ch=1 n=f2 v=0
50426 On ch=1 n=f3 v=0
50448 On ch=1 n=a4 v=55
50476 On ch=1 n=a#4 v=0
50510 On ch=1 n=a4 v=0
50640 Par ch=1 c=64 v=0
50644 On ch=1 n=a4 v=25
50649 On ch=1 n=d5 v=49
50656 On ch=1 n=g3 v=39
50658 On ch=1 n=g2 v=41
50818 On ch=1 n=a#4 v=41
50824 On ch=1 n=a4 v=0
50914 On ch=1 n=g2 v=0
50916 Par ch=1 c=64 v=127
50930 On ch=1 n=d5 v=0
50978 On ch=1 n=g3 v=0
50992 On ch=1 n=a4 v=41
51024 On ch=1 n=a#4 v=0
51052 On ch=1 n=a4 v=0
51092 On ch=1 n=a2 v=62
51102 Par ch=1 c=64 v=0
51136 On ch=1 n=a4 v=35
51154 On ch=1 n=a2 v=0
51176 On ch=1 n=a3 v=55
51270 Par ch=1 c=64 v=127
51278 On ch=1 n=a3 v=0
51310 On ch=1 n=a#4 v=50
51320 On ch=1 n=a#3 v=58
51322 On ch=1 n=a4 v=0
51384 On ch=1 n=a#3 v=0
51404 On ch=1 n=a#4 v=0
51482 On ch=1 n=a3 v=65
51482 On ch=1 n=a4 v=62
51534 On ch=1 n=a3 v=0
51544 On ch=1 n=a4 v=0
51688 On ch=1 n=f5 v=60
51690 On ch=1 n=a4 v=46
51692 On ch=1 n=d3 v=79
51694 On ch=1 n=d5 v=49
51698 On ch=1 n=d2 v=71
51716 Par ch=1 c=64 v=0
51840 On ch=1 n=a4 v=0
51844 On ch=1 n=a#4 v=57
51900 Par ch=1 c=64 v=127
51910 On ch=1 n=d5 v=0
51916 On ch=1 n=d2 v=0
51924 On ch=1 n=d3 v=0
51998 On ch=1 n=a#4 v=0
52012 On ch=1 n=f5 v=0
52012 On ch=1 n=a4 v=56
52056 On ch=1 n=e3 v=112
52062 On ch=1 n=e2 v=85
52070 On ch=1 n=a4 v=0
52090 On ch=1 n=e3 v=0
52098 On ch=1 n=e2 v=0
52178 On ch=1 n=f5 v=70
52180 On ch=1 n=a4 v=44
52194 On ch=1 n=d5 v=70
52196 On ch=1 n=f3 v=98
52204 On ch=1 n=f2 v=88
52224 Par ch=1 c=64 v=0
52346 On ch=1 n=a#4 v=70
52370 On ch=1 n=a4 v=0
52410 On ch=1 n=f3 v=0
52424 On ch=1 n=d5 v=0
52424 Par ch=1 c=64 v=127
52442 On ch=1 n=f2 v=0
52522 On ch=1 n=d3 v=109
52522 On ch=1 n=d2 v=109
52526 On ch=1 n=a4 v=71
52528 On ch=1 n=a#4 v=0
52534 On ch=1 n=f5 v=0
52552 On ch=1 n=d2 v=0
52556 On ch=1 n=d3 v=0
52578 On ch=1 n=a4 v=0
52654 On ch=1 n=a4 v=65
52668 On ch=1 n=f5 v=80
52676 On ch=1 n=a#3 v=110
52682 On ch=1 n=d5 v=78
52686 On ch=1 n=a#2 v=98
52760 Par ch=1 c=64 v=0
52850 On ch=1 n=a#4 v=67
52864 On ch=1 n=a4 v=0
52992 Par ch=1 c=64 v=127
53020 On ch=1 n=a4 v=71
53032 On ch=1 n=a#4 v=0
53058 On ch=1 n=f5 v=0
53070 On ch=1 n=a#3 v=0
53072 On ch=1 n=a4 v=0
53090 On ch=1 n=d5 v=0
53166 On ch=1 n=a#2 v=0
53186 On ch=1 n=a4 v=39
53196 On ch=1 n=e5 v=90
53199 On ch=1 n=g3 v=74
53202 On ch=1 n=g2 v=78
53208 On ch=1 n=g4 v=77
53222 Par ch=1 c=64 v=0
53332 On ch=1 n=a4 v=0
53374 On ch=1 n=a#4 v=47
53414 On ch=1 n=g3 v=0
53436 Par ch=1 c=64 v=127
53450 On ch=1 n=g4 v=0
53455 On ch=1 n=g2 v=0
53526 On ch=1 n=e5 v=0
53532 On ch=1 n=a4 v=65
53558 On ch=1 n=e2 v=56
53566 On ch=1 n=a#4 v=0
53584 On ch=1 n=a4 v=0
53606 On ch=1 n=e2 v=0
53698 On ch=1 n=a4 v=27
53704 On ch=1 n=d5 v=66
53710 On ch=1 n=f4 v=80
53712 On ch=1 n=a3 v=62
53714 Par ch=1 c=64 v=0
53718 On ch=1 n=a2 v=55
53822 On ch=1 n=a4 v=0
53856 On ch=1 n=a#4 v=43
53990 Par ch=1 c=64 v=127
54004 On ch=1 n=a4 v=50
54020 On ch=1 n=f4 v=0
54038 On ch=1 n=a#4 v=0
54038 On ch=1 n=a3 v=0
54054 On ch=1 n=a2 v=0
54060 On ch=1 n=d5 v=0
54064 On ch=1 n=a4 v=0
54214 On ch=1 n=c#5 v=64
54220 Par ch=1 c=64 v=0
54234 On ch=1 n=e4 v=49
54236 On ch=1 n=a3 v=43
54236 On ch=1 n=a2 v=48
54238 On ch=1 n=a4 v=52
54316 On ch=1 n=a4 v=0
54396 On ch=1 n=a#4 v=42
54456 On ch=1 n=e4 v=0
54466 Par ch=1 c=64 v=127
54508 On ch=1 n=a2 v=0
54528 On ch=1 n=a3 v=0
54556 On ch=1 n=c#5 v=0
54564 On ch=1 n=a4 v=28
54572 On ch=1 n=a#4 v=0
54632 On ch=1 n=a4 v=0
54696 Par ch=1 c=64 v=0
54722 On ch=1 n=f4 v=77
54724 On ch=1 n=a3 v=31
54727 On ch=1 n=a4 v=20
54730 On ch=1 n=d5 v=52
54742 On ch=1 n=a2 v=41
54850 On ch=1 n=a4 v=0
54860 On ch=1 n=a2 v=0
54882 Par ch=1 c=64 v=127
54890 On ch=1 n=a3 v=0
54902 On ch=1 n=f4 v=0
54906 On ch=1 n=a#4 v=37
54976 On ch=1 n=d5 v=0
55058 On ch=1 n=a#4 v=0
55152 On ch=1 n=a3 v=57
55188 Par ch=1 c=64 v=0
55252 On ch=1 n=e4 v=77
55278 On ch=1 n=e5 v=75
55278 On ch=1 n=a5 v=69
55300 On ch=1 n=e4 v=0
55318 On ch=1 n=a3 v=0
55321 On ch=1 n=a4 v=77
55374 Par ch=1 c=64 v=127
55428 On ch=1 n=a5 v=0
55432 On ch=1 n=a4 v=0
55438 On ch=1 n=a#5 v=65
55454 On ch=1 n=a#4 v=67
55524 On ch=1 n=a#4 v=0
55590 On ch=1 n=a4 v=71
55602 On ch=1 n=a5 v=77
55608 On ch=1 n=e5 v=0
55630 On ch=1 n=a#5 v=0
55636 On ch=1 n=a4 v=0
55652 On ch=1 n=a5 v=0
55818 On ch=1 n=d6 v=93
55822 On ch=1 n=a5 v=58
55824 On ch=1 n=d5 v=75
55832 On ch=1 n=d3 v=72
55835 On ch=1 n=d4 v=72
55880 Par ch=1 c=64 v=0
56008 On ch=1 n=a5 v=0
56030 On ch=1 n=a#5 v=54
56058 On ch=1 n=d3 v=0
56079 Par ch=1 c=64 v=127
56094 On ch=1 n=d4 v=0
56234 On ch=1 n=a5 v=50
56246 On ch=1 n=d5 v=0
56248 On ch=1 n=a#5 v=0
56262 On ch=1 n=d6 v=0
56294 On ch=1 n=a5 v=0
56368 On ch=1 n=d6 v=69
56372 On ch=1 n=a5 v=36
56374 On ch=1 n=f4 v=111
56380 On ch=1 n=d5 v=62
56380 On ch=1 n=f3 v=78
56530 On ch=1 n=a#5 v=62
56536 On ch=1 n=a5 v=0
56620 On ch=1 n=d6 v=0
56630 On ch=1 n=d5 v=0
56686 On ch=1 n=a#5 v=0
56714 On ch=1 n=f3 v=0
56726 On ch=1 n=a5 v=57
56736 On ch=1 n=f4 v=0
56780 On ch=1 n=a5 v=0
56886 On ch=1 n=d6 v=96
56888 On ch=1 n=a5 v=47
56894 On ch=1 n=d5 v=74
56896 On ch=1 n=g4 v=90
56906 On ch=1 n=g3 v=75
56910 Par ch=1 c=64 v=0
57052 On ch=1 n=a#5 v=67
57072 On ch=1 n=a5 v=0
57120 On ch=1 n=g3 v=0
57124 Par ch=1 c=64 v=127
57132 On ch=1 n=d5 v=0
57194 On ch=1 n=g4 v=0
57197 On ch=1 n=a5 v=65
57234 On ch=1 n=d6 v=0
57252 On ch=1 n=a#5 v=0
57260 On ch=1 n=a5 v=0
57332 On ch=1 n=a3 v=77
57394 On ch=1 n=a5 v=85
57402 Par ch=1 c=64 v=0
57432 On ch=1 n=a4 v=82
57476 On ch=1 n=a3 v=0
57540 Par ch=1 c=64 v=127
57580 On ch=1 n=a#5 v=80
57600 On ch=1 n=a#4 v=71
57614 On ch=1 n=a5 v=0
57618 On ch=1 n=a4 v=0
57720 On ch=1 n=a#4 v=0
57750 On ch=1 n=a5 v=93
57753 On ch=1 n=a4 v=87
57792 On ch=1 n=a4 v=0
57806 On ch=1 n=a#5 v=0
57810 On ch=1 n=a5 v=0
57950 On ch=1 n=d6 v=102
57956 On ch=1 n=a5 v=67
57962 On ch=1 n=d3 v=90
57964 On ch=1 n=d5 v=78
57966 On ch=1 n=d4 v=87
58046 Par ch=1 c=64 v=0
58128 On ch=1 n=a5 v=0
58128 On ch=1 n=a#5 v=67
58246 Par ch=1 c=64 v=127
58280 On ch=1 n=d3 v=0
58306 On ch=1 n=a5 v=73
58310 On ch=1 n=d4 v=0
58316 On ch=1 n=d5 v=0
58342 On ch=1 n=d6 v=0
58360 On ch=1 n=a5 v=0
58364 On ch=1 n=a#5 v=0
58484 On ch=1 n=d6 v=104
58488 On ch=1 n=d5 v=86
58488 On ch=1 n=a5 v=73
58500 On ch=1 n=f4 v=106
58503 On ch=1 n=f3 v=79
58554 Par ch=1 c=64 v=0
58646 On ch=1 n=a#5 v=71
58680 On ch=1 n=a5 v=0
58722 Par ch=1 c=64 v=127
58776 On ch=1 n=f3 v=0
58776 On ch=1 n=f4 v=0
58820 On ch=1 n=a5 v=74
58854 On ch=1 n=d6 v=0
58886 On ch=1 n=d5 v=0
58894 On ch=1 n=a#5 v=0
58918 On ch=1 n=a5 v=0
58976 On ch=1 n=a5 v=85
58979 On ch=1 n=d5 v=79
58986 On ch=1 n=d6 v=108
58992 On ch=1 n=g3 v=86
58994 On ch=1 n=g4 v=96
59014 Par ch=1 c=64 v=0
59146 On ch=1 n=a#5 v=79
59186 On ch=1 n=a5 v=0
59214 Par ch=1 c=64 v=127
59220 On ch=1 n=d5 v=0
59296 On ch=1 n=g3 v=0
59296 On ch=1 n=a5 v=74
59362 On ch=1 n=g4 v=0
59386 On ch=1 n=a#5 v=0
59418 On ch=1 n=a5 v=0
59424 On ch=1 n=d6 v=0
59438 On ch=1 n=a3 v=92
59460 Par ch=1 c=64 v=0
59480 On ch=1 n=a5 v=86
59514 On ch=1 n=a4 v=96
59548 On ch=1 n=a3 v=0
59614 Par ch=1 c=64 v=127
59658 On ch=1 n=a#4 v=75
59658 On ch=1 n=a#5 v=93
59670 On ch=1 n=a4 v=0
59696 On ch=1 n=a5 v=0
59776 On ch=1 n=a#4 v=0
59804 On ch=1 n=a5 v=77
59812 On ch=1 n=a4 v=90
59846 On ch=1 n=a#5 v=0
59852 On ch=1 n=a4 v=0
59904 On ch=1 n=a5 v=0
60016 On ch=1 n=f6 v=89
60018 On ch=1 n=d3 v=94
60018 On ch=1 n=a5 v=59
60020 On ch=1 n=d4 v=95
60022 On ch=1 n=d6 v=81
60060 Par ch=1 c=64 v=0
60196 On ch=1 n=a#5 v=79
60228 On ch=1 n=a5 v=0
60244 Par ch=1 c=64 v=127
60282 On ch=1 n=d3 v=0
60285 On ch=1 n=d4 v=0
60296 On ch=1 n=d6 v=0
60370 On ch=1 n=a5 v=75
60380 On ch=1 n=a#5 v=0
60384 On ch=1 n=f6 v=0
60408 On ch=1 n=e4 v=111
60410 On ch=1 n=e3 v=112
60422 On ch=1 n=a5 v=0
60442 On ch=1 n=e3 v=0
60460 On ch=1 n=e4 v=0
60544 On ch=1 n=f6 v=95
60552 On ch=1 n=a5 v=88
60554 On ch=1 n=d6 v=88
60556 On ch=1 n=f4 v=126
60564 On ch=1 n=f3 v=104
60582 Par ch=1 c=64 v=0
60708 On ch=1 n=a#5 v=85
60734 On ch=1 n=f4 v=0
60740 On ch=1 n=a5 v=0
60766 Par ch=1 c=64 v=127
60774 On ch=1 n=f3 v=0
60782 On ch=1 n=d6 v=0
60872 On ch=1 n=d3 v=100
60874 On ch=1 n=d4 v=101
60878 On ch=1 n=a5 v=74
60882 On ch=1 n=f6 v=0
60888 On ch=1 n=a#5 v=0
60904 On ch=1 n=d3 v=0
60912 On ch=1 n=d4 v=0
60926 On ch=1 n=a5 v=0
61026 On ch=1 n=f6 v=105
61028 On ch=1 n=a5 v=65
61034 On ch=1 n=d6 v=90
61038 On ch=1 n=a#4 v=101
61044 On ch=1 n=a#3 v=95
61166 Par ch=1 c=64 v=0
61184 On ch=1 n=a#5 v=79
61192 On ch=1 n=a5 v=0
61332 On ch=1 n=a5 v=82
61334 Par ch=1 c=64 v=127
61364 On ch=1 n=a#3 v=0
61382 On ch=1 n=a#4 v=0
61406 On ch=1 n=f6 v=0
61426 On ch=1 n=a#5 v=0
61438 On ch=1 n=a5 v=0
61442 On ch=1 n=d6 v=0
61520 On ch=1 n=a5 v=69
61524 On ch=1 n=g3 v=94
61524 On ch=1 n=e6 v=105
61524 On ch=1 n=g4 v=102
61530 On ch=1 n=g5 v=96
61626 Par ch=1 c=64 v=0
61674 On ch=1 n=a#5 v=79
61686 On ch=1 n=a5 v=0
61750 Par ch=1 c=64 v=127
61762 On ch=1 n=g4 v=0
61788 On ch=1 n=g5 v=0
61793 On ch=1 n=g3 v=0
61846 On ch=1 n=a5 v=82
61870 On ch=1 n=e4 v=116
61872 On ch=1 n=e3 v=120
61894 On ch=1 n=e6 v=0
61898 On ch=1 n=e3 v=0
61908 On ch=1 n=a#5 v=0
61912 On ch=1 n=e4 v=0
61942 On ch=1 n=a5 v=0
62006 On ch=1 n=e6 v=102
62008 On ch=1 n=a5 v=80
62018 On ch=1 n=f5 v=96
62026 On ch=1 n=a4 v=100
62029 On ch=1 n=a3 v=93
62088 Par ch=1 c=64 v=0
62174 On ch=1 n=a#5 v=78
62198 On ch=1 n=a5 v=0
62318 Par ch=1 c=64 v=127
62334 On ch=1 n=a5 v=87
62374 On ch=1 n=a4 v=0
62384 On ch=1 n=f5 v=0
62400 On ch=1 n=e6 v=0
62406 On ch=1 n=a#5 v=0
62414 On ch=1 n=a3 v=0
62454 On ch=1 n=a5 v=0
62496 On ch=1 n=d6 v=117
62502 On ch=1 n=a5 v=90
62506 On ch=1 n=f5 v=94
62508 On ch=1 n=f4 v=121
62508 On ch=1 n=f3 v=109
62664 On ch=1 n=a5 v=0
62672 On ch=1 n=a#5 v=73
62720 On ch=1 n=f4 v=0
62764 On ch=1 n=f3 v=0
62766 On ch=1 n=f5 v=0
62826 On ch=1 n=d6 v=0
62834 On ch=1 n=a5 v=86
62838 On ch=1 n=d3 v=109
62842 On ch=1 n=d4 v=111
62872 On ch=1 n=d3 v=0
62882 On ch=1 n=a#5 v=0
62888 On ch=1 n=d4 v=0
62912 On ch=1 n=a5 v=0
62978 On ch=1 n=d6 v=116
62986 On ch=1 n=a5 v=77
62990 On ch=1 n=e5 v=104
62994 Par ch=1 c=64 v=0
63006 On ch=1 n=a4 v=108
63010 On ch=1 n=a3 v=100
63154 On ch=1 n=a#5 v=83
63164 On ch=1 n=a5 v=0
63190 On ch=1 n=a4 v=0
63193 Par ch=1 c=64 v=127
63240 On ch=1 n=a3 v=0
63256 On ch=1 n=e5 v=0
63306 On ch=1 n=a5 v=90
63350 On ch=1 n=d6 v=0
63360 On ch=1 n=a#5 v=0
63424 On ch=1 n=a5 v=0
63484 On ch=1 n=c#6 v=109
63484 On ch=1 n=a5 v=80
63490 On ch=1 n=a3 v=100
63496 On ch=1 n=e5 v=105
63500 On ch=1 n=a2 v=101
63594 Par ch=1 c=64 v=0
63624 On ch=1 n=a5 v=0
63646 On ch=1 n=a#5 v=92
63688 On ch=1 n=e5 v=0
63712 On ch=1 n=a2 v=0
63732 Par ch=1 c=64 v=127
63754 On ch=1 n=a3 v=0
63806 On ch=1 n=a5 v=102
63856 On ch=1 n=a5 v=0
63858 On ch=1 n=c#6 v=0
63864 On ch=1 n=a#5 v=0
63984 On ch=1 n=a6 v=118
63984 On ch=1 n=d4 v=115
63987 On ch=1 n=d3 v=105
63992 On ch=1 n=f6 v=113
64070 Par ch=1 c=64 v=0
64170 On ch=1 n=a#5 v=96
64208 Par ch=1 c=64 v=127
64232 On ch=1 n=d3 v=0
64244 On ch=1 n=d4 v=0
64300 On ch=1 n=f6 v=0
64306 On ch=1 n=a6 v=0
64314 On ch=1 n=a#5 v=0
64352 On ch=1 n=a5 v=90
64368 On ch=1 n=e4 v=123
64374 On ch=1 n=e3 v=124
64404 On ch=1 n=e3 v=0
64450 On ch=1 n=e4 v=0
64494 On ch=1 n=a6 v=118
64494 On ch=1 n=f6 v=102
64500 On ch=1 n=a5 v=0
64512 On ch=1 n=f4 v=127
64515 Par ch=1 c=64 v=0
64518 On ch=1 n=f3 v=121
64658 On ch=1 n=a#5 v=102
64674 On ch=1 n=f4 v=0
64684 Par ch=1 c=64 v=127
64718 On ch=1 n=f3 v=0
64762 On ch=1 n=f6 v=0
64770 On ch=1 n=a6 v=0
64794 On ch=1 n=a#5 v=0
64818 On ch=1 n=d4 v=121
64820 On ch=1 n=d3 v=115
64828 On ch=1 n=a5 v=101
64848 On ch=1 n=d3 v=0
64878 On ch=1 n=d4 v=0
64976 On ch=1 n=a5 v=0
65002 On ch=1 n=a6 v=110
65008 On ch=1 n=f6 v=93
65036 On ch=1 n=a#4 v=118
65044 On ch=1 n=a#3 v=112
65190 On ch=1 n=a#5 v=98
65192 Par ch=1 c=64 v=0
65344 Par ch=1 c=64 v=127
65346 On ch=1 n=a5 v=90
65362 On ch=1 n=a#5 v=0
65380 On ch=1 n=a6 v=0
65418 On ch=1 n=f6 v=0
65421 On ch=1 n=a#4 v=0
65426 On ch=1 n=a#3 v=0
65450 On ch=1 n=a5 v=0
65504 On ch=1 n=a5 v=101
65506 On ch=1 n=g6 v=115
65510 On ch=1 n=e6 v=97
65512 On ch=1 n=g4 v=115
65516 On ch=1 n=g3 v=111
65660 On ch=1 n=a#5 v=89
65686 On ch=1 n=a5 v=0
65710 On ch=1 n=g4 v=0
65758 On ch=1 n=g3 v=0
65760 On ch=1 n=g6 v=0
65810 On ch=1 n=a#5 v=0
65813 On ch=1 n=a5 v=97
65836 On ch=1 n=e4 v=126
65841 On ch=1 n=e3 v=124
65868 On ch=1 n=e3 v=0
65898 On ch=1 n=e4 v=0
65910 On ch=1 n=e6 v=0
65932 On ch=1 n=a5 v=0
65978 On ch=1 n=e6 v=90
65980 On ch=1 n=a5 v=102
65983 On ch=1 n=f6 v=111
66000 On ch=1 n=a4 v=116
66004 On ch=1 n=a3 v=111
66052 Par ch=1 c=64 v=0
66156 On ch=1 n=a#5 v=82
66226 On ch=1 n=a5 v=0
66236 Par ch=1 c=64 v=127
66302 On ch=1 n=a5 v=71
66338 On ch=1 n=a4 v=0
66372 On ch=1 n=a3 v=0
66375 On ch=1 n=f6 v=0
66378 On ch=1 n=a#5 v=0
66396 On ch=1 n=e6 v=0
66406 On ch=1 n=a5 v=0
66458 On ch=1 n=f6 v=93
66458 On ch=1 n=f4 v=127
66461 On ch=1 n=f3 v=115
66464 On ch=1 n=a5 v=95
66468 On ch=1 n=d6 v=108
66608 On ch=1 n=a#5 v=83
66626 On ch=1 n=a5 v=0
66636 On ch=1 n=f4 v=0
66692 On ch=1 n=f3 v=0
66716 On ch=1 n=d6 v=0
66770 On ch=1 n=a5 v=79
66782 On ch=1 n=d4 v=121
66782 On ch=1 n=d3 v=111
66785 On ch=1 n=a#5 v=0
66812 On ch=1 n=d3 v=0
66822 On ch=1 n=f6 v=0
66838 On ch=1 n=d4 v=0
66880 On ch=1 n=a5 v=0
66928 Par ch=1 c=64 v=0
66928 On ch=1 n=a5 v=106
66931 On ch=1 n=e6 v=109
66934 On ch=1 n=d6 v=120
66954 On ch=1 n=a4 v=116
66958 On ch=1 n=a3 v=110
67096 On ch=1 n=a#5 v=86
67112 Par ch=1 c=64 v=127
67134 On ch=1 n=a5 v=0
67170 On ch=1 n=a4 v=0
67242 On ch=1 n=a5 v=60
67244 On ch=1 n=a3 v=0
67280 On ch=1 n=e6 v=0
67290 On ch=1 n=a#5 v=0
67314 On ch=1 n=a5 v=0
67346 On ch=1 n=d6 v=0
67414 On ch=1 n=e6 v=108
67416 On ch=1 n=c#6 v=103
67419 On ch=1 n=a5 v=100
67428 On ch=1 n=a3 v=115
67431 On ch=1 n=a2 v=115
67492 On ch=1 n=a2 v=0
67562 On ch=1 n=a#5 v=92
67592 On ch=1 n=a3 v=0
67596 On ch=1 n=a5 v=0
67710 On ch=1 n=a5 v=81
67746 On ch=1 n=a#5 v=0
67784 On ch=1 n=c#6 v=0
67824 On ch=1 n=a5 v=0
67832 On ch=1 n=e6 v=0
67886 On ch=1 n=a5 v=90
67890 On ch=1 n=d4 v=119
67894 On ch=1 n=d6 v=116
67896 Par ch=1 c=64 v=0
67900 On ch=1 n=d3 v=115
68048 On ch=1 n=a5 v=0
68048 On ch=1 n=a#5 v=96
68064 Par ch=1 c=64 v=127
68080 On ch=1 n=d3 v=0
68124 On ch=1 n=d4 v=0
68190 On ch=1 n=a5 v=90
68208 On ch=1 n=d6 v=0
68234 On ch=1 n=a#5 v=0
68296 On ch=1 n=a5 v=0
68356 On ch=1 n=a4 v=115
68362 On ch=1 n=e4 v=119
68366 On ch=1 n=a3 v=104
68372 Par ch=1 c=64 v=0
68492 On ch=1 n=e6 v=92
68492 On ch=1 n=a#6 v=103
68504 On ch=1 n=c#6 v=90
68508 On ch=1 n=a#5 v=90
68540 Par ch=1 c=64 v=127
68545 On ch=1 n=a3 v=0
68566 On ch=1 n=e4 v=0
68592 On ch=1 n=a4 v=0
68632 On ch=1 n=a#5 v=0
68642 On ch=1 n=a#6 v=0
68670 On ch=1 n=a6 v=102
68676 On ch=1 n=a5 v=83
68692 On ch=1 n=c#6 v=0
68695 On ch=1 n=e6 v=0
68782 On ch=1 n=a5 v=0
68800 On ch=1 n=a6 v=0
68814 On ch=1 n=d5 v=127
68814 On ch=1 n=f4 v=127
68828 On ch=1 n=d4 v=113
68834 Par ch=1 c=64 v=0
68960 On ch=1 n=a#6 v=109
68964 On ch=1 n=a#5 v=106
68972 On ch=1 n=d6 v=98
68994 On ch=1 n=d4 v=0
69002 Par ch=1 c=64 v=127
69004 On ch=1 n=f4 v=0
69038 On ch=1 n=d5 v=0
69068 On ch=1 n=a#6 v=0
69071 On ch=1 n=a#5 v=0
69116 On ch=1 n=d6 v=0
69120 On ch=1 n=a5 v=92
69122 On ch=1 n=a6 v=100
69158 On ch=1 n=a5 v=0
69206 On ch=1 n=a6 v=0
69296 On ch=1 n=a5 v=124
69302 On ch=1 n=e5 v=118
69304 On ch=1 n=a4 v=111
69310 Par ch=1 c=64 v=0
69484 On ch=1 n=a#7 v=109
69489 On ch=1 n=a#6 v=101
69489 On ch=1 n=e7 v=100
69489 On ch=1 n=c#7 v=95
69508 Par ch=1 c=64 v=127
69546 On ch=1 n=a4 v=0
69580 On ch=1 n=e5 v=0
69620 On ch=1 n=a5 v=0
69636 On ch=1 n=a#7 v=0
69640 On ch=1 n=a#6 v=0
69694 On ch=1 n=e7 v=0
69706 On ch=1 n=a7 v=111
69710 On ch=1 n=c#7 v=0
69710 On ch=1 n=a6 v=116
69884 On ch=1 n=a7 v=0
69898 On ch=1 n=d6 v=123
69904 On ch=1 n=f7 v=118
69908 On ch=1 n=f5 v=92
69912 On ch=1 n=d5 v=95
69924 Par ch=1 c=64 v=0
69998 On ch=1 n=a6 v=0
70086 On ch=1 n=d7 v=109
70124 Par ch=1 c=64 v=127
70134 On ch=1 n=f7 v=0
70200 On ch=1 n=d6 v=0
70238 On ch=1 n=a6 v=102
70254 On ch=1 n=f5 v=0
70257 On ch=1 n=d5 v=0
70260 On ch=1 n=d7 v=0
70364 On ch=1 n=a6 v=0
70400 On ch=1 n=f6 v=82
70546 On ch=1 n=d6 v=97
70584 On ch=1 n=f6 v=0
70682 On ch=1 n=d6 v=0
70684 On ch=1 n=a5 v=77
70812 On ch=1 n=a5 v=0
70846 On ch=1 n=f5 v=93
70864 On ch=1 n=d3 v=82
70866 On ch=1 n=d2 v=66
71014 On ch=1 n=d5 v=87
71042 On ch=1 n=f5 v=0
71124 On ch=1 n=d5 v=0
71184 On ch=1 n=a4 v=73
71282 On ch=1 n=a4 v=0
71404 On ch=1 n=d5 v=108
71608 On ch=1 n=d4 v=73
71784 On ch=1 n=d3 v=0
71818 On ch=1 n=a4 v=55
71836 On ch=1 n=d4 v=0
71876 On ch=1 n=d5 v=0
72038 On ch=1 n=c5 v=100
72044 On ch=1 n=d#2 v=78
72050 On ch=1 n=d2 v=0
72050 On ch=1 n=d#3 v=79
72058 On ch=1 n=a4 v=0
72106 Par ch=1 c=64 v=0
72244 On ch=1 n=c4 v=50
72326 On ch=1 n=d#2 v=0
72366 Par ch=1 c=64 v=127
72368 On ch=1 n=d#3 v=0
72434 On ch=1 n=g4 v=59
72498 On ch=1 n=c4 v=0
72588 On ch=1 n=g4 v=0
72622 On ch=1 n=d#5 v=96
72784 On ch=1 n=c4 v=50
72958 On ch=1 n=g4 v=54
72980 On ch=1 n=c4 v=0
73110 On ch=1 n=g4 v=0
73134 On ch=1 n=d#5 v=0
73144 On ch=1 n=g5 v=88
73194 On ch=1 n=c5 v=0
73278 On ch=1 n=g5 v=0
73286 On ch=1 n=c4 v=59
73404 On ch=1 n=c4 v=0
73456 On ch=1 n=g4 v=60
73606 On ch=1 n=a#4 v=78
73624 On ch=1 n=e3 v=100
73627 On ch=1 n=e2 v=79
73642 On ch=1 n=g4 v=0
73766 On ch=1 n=c#4 v=66
73926 On ch=1 n=g4 v=67
73950 On ch=1 n=c#4 v=0
73952 On ch=1 n=e2 v=0
73954 On ch=1 n=e3 v=0
74012 On ch=1 n=a#4 v=0
74076 On ch=1 n=a4 v=93
74088 Par ch=1 c=64 v=0
74092 On ch=1 n=f2 v=86
74094 On ch=1 n=f3 v=85
74122 On ch=1 n=g4 v=0
74246 On ch=1 n=c4 v=54
74274 On ch=1 n=f2 v=0
74308 On ch=1 n=f3 v=0
74334 Par ch=1 c=64 v=127
74402 On ch=1 n=f4 v=81
74410 On ch=1 n=c4 v=0
74492 On ch=1 n=f4 v=0
74578 On ch=1 n=c5 v=75
74708 On ch=1 n=c4 v=49
74858 On ch=1 n=f4 v=77
74868 On ch=1 n=c4 v=0
75010 On ch=1 n=c5 v=0
75044 On ch=1 n=f4 v=0
75074 On ch=1 n=f5 v=75
75180 On ch=1 n=f5 v=0
75226 On ch=1 n=c4 v=50
75374 On ch=1 n=c4 v=0
75396 On ch=1 n=a4 v=0
75404 On ch=1 n=f4 v=75
75586 On ch=1 n=f4 v=0
75594 On ch=1 n=g#4 v=86
75600 On ch=1 n=d3 v=69
75608 On ch=1 n=d2 v=67
75686 Par ch=1 c=64 v=0
75754 On ch=1 n=b3 v=63
75870 Par ch=1 c=64 v=127
75898 On ch=1 n=b3 v=0
75924 On ch=1 n=f4 v=92
75938 On ch=1 n=d3 v=0
75952 On ch=1 n=d2 v=0
75992 On ch=1 n=g#4 v=0
76072 On ch=1 n=d#3 v=86
76082 On ch=1 n=d#2 v=89
76085 On ch=1 n=g4 v=95
76118 On ch=1 n=f4 v=0
76132 Par ch=1 c=64 v=0
76222 On ch=1 n=a#3 v=69
76294 On ch=1 n=d#2 v=0
76328 On ch=1 n=d#3 v=0
76330 Par ch=1 c=64 v=127
76378 On ch=1 n=d#4 v=58
76412 On ch=1 n=a#3 v=0
76474 On ch=1 n=d#4 v=0
76584 On ch=1 n=c#5 v=102
76698 On ch=1 n=c#5 v=0
76704 On ch=1 n=a#3 v=50
76836 On ch=1 n=g4 v=0
76846 On ch=1 n=a#3 v=0
76870 On ch=1 n=d#4 v=63
76930 On ch=1 n=d#4 v=0
77086 On ch=1 n=e3 v=101
77086 On ch=1 n=c5 v=108
77089 On ch=1 n=e2 v=71
77100 Par ch=1 c=64 v=0
77220 On ch=1 n=c4 v=81
77262 On ch=1 n=e2 v=0
77300 Par ch=1 c=64 v=127
77303 On ch=1 n=e3 v=0
77388 On ch=1 n=c4 v=0
77398 On ch=1 n=g4 v=67
77554 On ch=1 n=g4 v=0
77586 On ch=1 n=g5 v=111
77596 On ch=1 n=a#4 v=58
77678 On ch=1 n=g5 v=0
77752 On ch=1 n=c4 v=63
77838 On ch=1 n=c5 v=0
77846 On ch=1 n=c4 v=0
77860 On ch=1 n=a#4 v=0
77880 On ch=1 n=g4 v=73
77926 On ch=1 n=g4 v=0
78068 On ch=1 n=f2 v=59
78142 On ch=1 n=f5 v=100
78144 On ch=1 n=f3 v=80
78160 Par ch=1 c=64 v=0
78290 On ch=1 n=f2 v=0
78302 On ch=1 n=f4 v=95
78342 On ch=1 n=f3 v=0
78360 Par ch=1 c=64 v=127
78466 On ch=1 n=f4 v=0
78476 On ch=1 n=a4 v=52
78594 On ch=1 n=a4 v=0
78658 On ch=1 n=c6 v=102
78661 On ch=1 n=d#5 v=70
78718 On ch=1 n=c6 v=0
78728 On ch=1 n=f5 v=0
78808 On ch=1 n=d#5 v=0
78820 On ch=1 n=f4 v=75
78916 On ch=1 n=f4 v=0
78956 On ch=1 n=a4 v=47
79018 On ch=1 n=a4 v=0
79186 On ch=1 n=a#2 v=31
79189 On ch=1 n=a#5 v=74
79189 On ch=1 n=a#3 v=27
79250 Par ch=1 c=64 v=0
79342 On ch=1 n=a#4 v=47
79424 On ch=1 n=a#2 v=0
79466 Par ch=1 c=64 v=127
79470 On ch=1 n=a#3 v=0
79522 On ch=1 n=a#4 v=0
79544 On ch=1 n=d5 v=35
79650 On ch=1 n=d5 v=0
79806 On ch=1 n=g#5 v=41
79892 On ch=1 n=f6 v=92
79898 On ch=1 n=g#5 v=0
80000 On ch=1 n=f6 v=0
80116 On ch=1 n=a#4 v=20
80192 On ch=1 n=a#4 v=0
80258 On ch=1 n=a#5 v=0
80606 On ch=1 n=a#2 v=29
80616 On ch=1 n=e6 v=70
80634 Par ch=1 c=64 v=0
80792 On ch=1 n=a#2 v=0
80802 Par ch=1 c=64 v=127
80834 On ch=1 n=e5 v=41
80976 On ch=1 n=e5 v=0
81030 On ch=1 n=g5 v=17
81132 On ch=1 n=g5 v=0
81228 On ch=1 n=c#6 v=43
81416 On ch=1 n=e5 v=32
81524 On ch=1 n=e5 v=0
81562 On ch=1 n=g5 v=27
81574 On ch=1 n=c#6 v=0
81716 On ch=1 n=a#5 v=43
81734 On ch=1 n=g5 v=0
81794 On ch=1 n=e6 v=0
81910 On ch=1 n=e5 v=33
81988 On ch=1 n=e5 v=0
82052 On ch=1 n=g5 v=27
82096 On ch=1 n=a#5 v=0
82122 On ch=1 n=g5 v=0
82298 On ch=1 n=e6 v=83
82332 On ch=1 n=a#2 v=25
82482 On ch=1 n=e5 v=36
82590 On ch=1 n=e5 v=0
82646 On ch=1 n=g5 v=40
82724 On ch=1 n=g5 v=0
82740 On ch=1 n=e6 v=0
82894 On ch=1 n=f6 v=81
83060 On ch=1 n=f5 v=33
83168 Par ch=1 c=64 v=0
83216 On ch=1 n=g#5 v=50
83364 On ch=1 n=f5 v=0
83384 Par ch=1 c=64 v=127
83406 On ch=1 n=d6 v=65
83452 On ch=1 n=g#5 v=0
83574 On ch=1 n=f5 v=39
83636 On ch=1 n=d6 v=0
83712 On ch=1 n=f5 v=0
83762 On ch=1 n=g#5 v=36
83844 On ch=1 n=g#5 v=0
83928 On ch=1 n=a#5 v=57
83984 On ch=1 n=f6 v=0
84002 On ch=1 n=a#2 v=0
84102 On ch=1 n=a#5 v=0
84108 On ch=1 n=f5 v=39
84214 On ch=1 n=f5 v=0
84228 On ch=1 n=g#5 v=44
84282 On ch=1 n=g#5 v=0
84374 On ch=1 n=f6 v=95
84384 On ch=1 n=a#2 v=57
84566 On ch=1 n=f5 v=24
84662 On ch=1 n=f5 v=0
84706 On ch=1 n=f6 v=0
84714 On ch=1 n=g#5 v=37
84786 On ch=1 n=g#5 v=0
84982 On ch=1 n=e6 v=73
85120 Par ch=1 c=64 v=0
85172 On ch=1 n=e5 v=32
85306 On ch=1 n=g5 v=44
85366 Par ch=1 c=64 v=127
85382 On ch=1 n=e5 v=0
85470 On ch=1 n=g5 v=0
85480 On ch=1 n=c#6 v=50
85636 On ch=1 n=e5 v=50
85750 On ch=1 n=e5 v=0
85784 On ch=1 n=g5 v=39
85888 On ch=1 n=c#6 v=0
85942 On ch=1 n=a#2 v=0
85945 On ch=1 n=g5 v=0
85945 On ch=1 n=a#5 v=55
86102 On ch=1 n=e5 v=28
86186 On ch=1 n=e5 v=0
86224 On ch=1 n=g5 v=32
86277 On ch=1 n=a#5 v=0
86277 On ch=1 n=e6 v=0
86294 On ch=1 n=g5 v=0
86402 On ch=1 n=g6 v=108
86418 On ch=1 n=a#2 v=40
86610 On ch=1 n=g5 v=42
86730 On ch=1 n=g5 v=0
86772 On ch=1 n=c#6 v=43
86848 On ch=1 n=g6 v=0
86884 On ch=1 n=c#6 v=0
87094 On ch=1 n=g#6 v=80
87378 Par ch=1 c=64 v=0
87396 On ch=1 n=g#5 v=28
87484 On ch=1 n=f3 v=34
87610 Par ch=1 c=64 v=127
87613 On ch=1 n=d6 v=46
87672 On ch=1 n=g#6 v=0
87702 On ch=1 n=g#5 v=0
87818 On ch=1 n=f3 v=0
87836 On ch=1 n=a#2 v=0
87870 On ch=1 n=d6 v=0
87870 On ch=1 n=f6 v=74
87873 On ch=1 n=a#3 v=24
88032 On ch=1 n=a#3 v=0
88040 On ch=1 n=f5 v=33
88108 On ch=1 n=f6 v=0
88220 On ch=1 n=d4 v=41
88222 On ch=1 n=a#5 v=47
88226 On ch=1 n=f5 v=0
88300 On ch=1 n=d4 v=0
88308 On ch=1 n=a#5 v=0
88442 On ch=1 n=d6 v=80
88486 On ch=1 n=f4 v=69
88564 On ch=1 n=d6 v=0
88596 On ch=1 n=d5 v=44
88602 On ch=1 n=f4 v=0
88708 On ch=1 n=a#4 v=41
88730 On ch=1 n=d5 v=0
88812 On ch=1 n=g#5 v=39
88862 On ch=1 n=a#4 v=0
88872 On ch=1 n=g#5 v=0
89008 On ch=1 n=a#5 v=63
89030 On ch=1 n=g#4 v=26
89124 On ch=1 n=g#4 v=0
89198 On ch=1 n=a#4 v=31
89270 On ch=1 n=a#5 v=0
89280 On ch=1 n=a#4 v=0
89338 On ch=1 n=d4 v=36
89404 On ch=1 n=d4 v=0
89472 On ch=1 n=f5 v=28
89622 On ch=1 n=f5 v=0
89830 On ch=1 n=g#5 v=47
89852 Par ch=1 c=64 v=0
89856 On ch=1 n=b2 v=34
89874 On ch=1 n=b3 v=24
90114 On ch=1 n=g#4 v=36
90182 On ch=1 n=b2 v=0
90220 Par ch=1 c=64 v=127
90225 On ch=1 n=b3 v=0
90386 On ch=1 n=d#5 v=27
90416 On ch=1 n=g#4 v=0
90488 On ch=1 n=d#5 v=0
90568 On ch=1 n=b5 v=62
90758 On ch=1 n=g#4 v=37
90806 On ch=1 n=b5 v=0
90924 On ch=1 n=d#5 v=39
90932 On ch=1 n=g#4 v=0
91016 On ch=1 n=d#5 v=0
91108 On ch=1 n=d#6 v=59
91206 On ch=1 n=d#6 v=0
91262 On ch=1 n=g#4 v=40
91434 On ch=1 n=g#4 v=0
91434 On ch=1 n=d#5 v=46
91498 On ch=1 n=d#5 v=0
91594 On ch=1 n=c3 v=34
91614 On ch=1 n=f#5 v=57
91628 On ch=1 n=c4 v=23
91666 Par ch=1 c=64 v=0
91680 On ch=1 n=g#5 v=0
91768 On ch=1 n=a4 v=39
91850 Par ch=1 c=64 v=127
91870 On ch=1 n=c4 v=0
91908 On ch=1 n=a4 v=0
91938 On ch=1 n=d#5 v=51
92012 On ch=1 n=d#5 v=0
92054 On ch=1 n=c3 v=0
92206 On ch=1 n=f5 v=59
92226 On ch=1 n=f#5 v=0
92226 On ch=1 n=c#3 v=32
92228 On ch=1 n=c#4 v=31
92250 Par ch=1 c=64 v=0
92364 On ch=1 n=g#4 v=41
92452 On ch=1 n=c#3 v=0
92490 On ch=1 n=c#4 v=0
92496 Par ch=1 c=64 v=127
92556 On ch=1 n=c#5 v=34
92568 On ch=1 n=g#4 v=0
92688 On ch=1 n=c#5 v=0
92784 On ch=1 n=g#5 v=40
92938 On ch=1 n=g#4 v=29
93024 On ch=1 n=g#5 v=0
93086 On ch=1 n=g#4 v=0
93090 On ch=1 n=c#5 v=39
93252 On ch=1 n=c#5 v=0
93324 On ch=1 n=c#6 v=49
93438 On ch=1 n=c#6 v=0
93484 On ch=1 n=g#4 v=27
93624 On ch=1 n=f5 v=0
93656 On ch=1 n=c#5 v=32
93724 On ch=1 n=g#4 v=0
93828 On ch=1 n=c#5 v=0
93860 On ch=1 n=e5 v=65
93874 On ch=1 n=a#2 v=35
93890 On ch=1 n=a#3 v=23
93908 Par ch=1 c=64 v=0
94022 On ch=1 n=g4 v=46
94124 Par ch=1 c=64 v=127
94174 On ch=1 n=c#5 v=44
94194 On ch=1 n=g4 v=0
94200 On ch=1 n=a#3 v=0
94236 On ch=1 n=a#2 v=0
94340 On ch=1 n=e5 v=0
94358 On ch=1 n=d#5 v=72
94360 On ch=1 n=c#5 v=0
94368 On ch=1 n=b2 v=54
94372 On ch=1 n=b3 v=39
94384 Par ch=1 c=64 v=0
94526 On ch=1 n=f#4 v=55
94562 On ch=1 n=b2 v=0
94584 Par ch=1 c=64 v=127
94620 On ch=1 n=b3 v=0
94704 On ch=1 n=f#4 v=0
94704 On ch=1 n=b4 v=36
94790 On ch=1 n=b4 v=0
94924 On ch=1 n=a5 v=83
95026 On ch=1 n=a5 v=0
95084 On ch=1 n=f#4 v=63
95236 On ch=1 n=f#4 v=0
95260 On ch=1 n=b4 v=43
95310 On ch=1 n=b4 v=0
95326 On ch=1 n=d#5 v=0
95434 On ch=1 n=g#5 v=83
95442 On ch=1 n=c4 v=48
95444 On ch=1 n=c3 v=57
95460 Par ch=1 c=64 v=0
95612 On ch=1 n=g#4 v=59
95614 On ch=1 n=c3 v=0
95676 On ch=1 n=c4 v=0
95676 Par ch=1 c=64 v=127
95754 On ch=1 n=d#5 v=69
95760 On ch=1 n=g#4 v=0
95844 On ch=1 n=d#5 v=0
95940 On ch=1 n=d#6 v=102
95942 On ch=1 n=f#5 v=60
96040 On ch=1 n=d#6 v=0
96116 On ch=1 n=g#4 v=58
96234 On ch=1 n=g#4 v=0
96272 On ch=1 n=d#5 v=73
96284 On ch=1 n=g#5 v=0
96332 On ch=1 n=d#5 v=0
96376 On ch=1 n=f#5 v=0
96448 On ch=1 n=c#3 v=44
96486 On ch=1 n=c#6 v=102
96536 Par ch=1 c=64 v=0
96538 On ch=1 n=c#4 v=52
96664 On ch=1 n=c#5 v=67
96694 On ch=1 n=c#3 v=0
96720 Par ch=1 c=64 v=127
96740 On ch=1 n=c#4 v=0
96796 On ch=1 n=c#5 v=0
96838 On ch=1 n=f5 v=48
96976 On ch=1 n=f5 v=0
97040 On ch=1 n=b5 v=60
97043 On ch=1 n=g#6 v=103
97140 On ch=1 n=g#6 v=0
97208 On ch=1 n=c#5 v=59
97312 On ch=1 n=c#5 v=0
97380 On ch=1 n=b5 v=0
97380 On ch=1 n=f5 v=50
97428 On ch=1 n=f5 v=0
97428 On ch=1 n=c#6 v=0
97568 On ch=1 n=f#6 v=94
97602 On ch=1 n=f#3 v=43
97612 Par ch=1 c=64 v=0
97615 On ch=1 n=f#4 v=42
97762 On ch=1 n=f#5 v=52
97810 On ch=1 n=f#3 v=0
97810 Par ch=1 c=64 v=127
97844 On ch=1 n=f#4 v=0
97896 On ch=1 n=f#5 v=0
97942 On ch=1 n=a#5 v=41
98022 On ch=1 n=a#5 v=0
98242 On ch=1 n=e6 v=40
98298 On ch=1 n=c#7 v=95
98428 On ch=1 n=c#7 v=0
98472 On ch=1 n=f#6 v=0
98532 On ch=1 n=f#5 v=32
98610 On ch=1 n=f#5 v=0
98642 On ch=1 n=e6 v=0
98730 On ch=1 n=a#5 v=35
98794 On ch=1 n=a#5 v=0
99068 On ch=1 n=c7 v=85
99086 On ch=1 n=f#2 v=56
99132 Par ch=1 c=64 v=0
99324 On ch=1 n=c6 v=34
99340 On ch=1 n=f#2 v=0
99364 Par ch=1 c=64 v=127
99490 On ch=1 n=c6 v=0
99494 On ch=1 n=d#6 v=34
99578 On ch=1 n=d#6 v=0
99688 On ch=1 n=a5 v=39
99706 On ch=1 n=a6 v=48
99880 On ch=1 n=c6 v=28
99888 On ch=1 n=a5 v=0
100002 On ch=1 n=c6 v=0
100022 On ch=1 n=a6 v=0
100036 On ch=1 n=d#6 v=41
100116 On ch=1 n=d#6 v=0
100220 On ch=1 n=f#6 v=65
100248 On ch=1 n=f#5 v=29
100304 On ch=1 n=c7 v=0
100324 On ch=1 n=f#5 v=0
100392 On ch=1 n=c6 v=33
100512 On ch=1 n=c6 v=0
100542 On ch=1 n=d#6 v=39
100608 On ch=1 n=d#6 v=0
100736 On ch=1 n=c7 v=96
100760 On ch=1 n=f#6 v=0
100770 On ch=1 n=f#2 v=64
100960 On ch=1 n=c6 v=48
101066 On ch=1 n=c6 v=0
101074 On ch=1 n=c7 v=0
101132 On ch=1 n=d#6 v=47
101218 On ch=1 n=d#6 v=0
101374 On ch=1 n=b6 v=112
101422 Par ch=1 c=64 v=0
101580 On ch=1 n=b5 v=41
101604 On ch=1 n=f#2 v=0
101607 Par ch=1 c=64 v=127
101736 On ch=1 n=d6 v=42
101740 On ch=1 n=b5 v=0
101826 On ch=1 n=d6 v=0
101912 On ch=1 n=g#6 v=58
101918 On ch=1 n=g#5 v=56
102078 On ch=1 n=g#5 v=0
102092 On ch=1 n=b5 v=55
102180 On ch=1 n=g#6 v=0
102228 On ch=1 n=b5 v=0
102238 On ch=1 n=d6 v=46
102332 On ch=1 n=d6 v=0
102428 On ch=1 n=f5 v=40
102428 On ch=1 n=f6 v=69
102502 On ch=1 n=b6 v=0
102546 On ch=1 n=f5 v=0
102596 On ch=1 n=b5 v=55
102678 On ch=1 n=b5 v=0
102722 On ch=1 n=f6 v=0
102754 On ch=1 n=d6 v=41
102830 On ch=1 n=d6 v=0
102888 On ch=1 n=b6 v=111
102898 On ch=1 n=f#2 v=52
103068 On ch=1 n=b5 v=37
103118 On ch=1 n=b6 v=0
103216 On ch=1 n=b5 v=0
103244 On ch=1 n=d6 v=44
103326 On ch=1 n=d6 v=0
103510 On ch=1 n=a#6 v=77
103542 Par ch=1 c=64 v=0
103688 On ch=1 n=a#5 v=36
103724 On ch=1 n=f#2 v=0
103727 Par ch=1 c=64 v=127
103842 On ch=1 n=a#5 v=0
103860 On ch=1 n=c#6 v=40
103994 On ch=1 n=c#6 v=0
104070 On ch=1 n=g5 v=41
104078 On ch=1 n=g6 v=48
104222 On ch=1 n=a#5 v=37
104290 On ch=1 n=g5 v=0
104334 On ch=1 n=a#5 v=0
104342 On ch=1 n=g6 v=0
104372 On ch=1 n=c#6 v=36
104474 On ch=1 n=c#6 v=0
104592 On ch=1 n=e6 v=49
104598 On ch=1 n=e5 v=48
104632 On ch=1 n=a#6 v=0
104658 On ch=1 n=e5 v=0
104746 On ch=1 n=a#5 v=40
104832 On ch=1 n=a#5 v=0
104896 On ch=1 n=c#6 v=37
104910 On ch=1 n=e6 v=0
104956 On ch=1 n=c#6 v=0
105070 On ch=1 n=f#2 v=50
105076 On ch=1 n=a#6 v=74
105242 On ch=1 n=a#5 v=32
105344 On ch=1 n=a#5 v=0
105384 On ch=1 n=c#6 v=33
105442 On ch=1 n=c#6 v=0
105446 On ch=1 n=a#6 v=0
105600 On ch=1 n=b6 v=111
105708 Par ch=1 c=64 v=0
105780 On ch=1 n=b5 v=28
105832 On ch=1 n=f#3 v=57
105856 On ch=1 n=f#2 v=0
105878 Par ch=1 c=64 v=127
105890 On ch=1 n=f#3 v=0
105948 On ch=1 n=b5 v=0
105951 On ch=1 n=b6 v=0
105951 On ch=1 n=d#6 v=46
106008 On ch=1 n=d#6 v=0
106126 On ch=1 n=f#6 v=96
106140 On ch=1 n=b3 v=42
106284 On ch=1 n=f#5 v=51
106374 On ch=1 n=d#4 v=64
106416 On ch=1 n=f#5 v=0
106442 On ch=1 n=b5 v=74
106445 On ch=1 n=f#6 v=0
106494 On ch=1 n=b5 v=0
106632 On ch=1 n=d#6 v=90
106648 On ch=1 n=f#4 v=70
106678 On ch=1 n=d#4 v=0
106786 On ch=1 n=d#5 v=57
106882 On ch=1 n=b4 v=73
106884 On ch=1 n=f#4 v=0
106900 On ch=1 n=d#5 v=0
106962 On ch=1 n=f#5 v=43
107032 On ch=1 n=d#6 v=0
107052 On ch=1 n=f#5 v=0
107162 On ch=1 n=g#4 v=51
107162 On ch=1 n=d6 v=78
107184 Par ch=1 c=64 v=0
107196 On ch=1 n=b4 v=0
107352 Par ch=1 c=64 v=127
107374 On ch=1 n=d5 v=40
107416 On ch=1 n=b3 v=0
107430 On ch=1 n=g#4 v=0
107454 On ch=1 n=d5 v=0
107474 On ch=1 n=f4 v=75
107558 On ch=1 n=d6 v=0
107602 On ch=1 n=f4 v=0
107624 On ch=1 n=b5 v=48
107702 On ch=1 n=b5 v=0
107820 On ch=1 n=c#6 v=70
107842 On ch=1 n=f#2 v=58
107890 Par ch=1 c=64 v=0
107998 On ch=1 n=c#5 v=41
108100 On ch=1 n=f#2 v=0
108122 Par ch=1 c=64 v=127
108160 On ch=1 n=c#5 v=0
108182 On ch=1 n=e5 v=42
108252 On ch=1 n=e5 v=0
108398 On ch=1 n=a#4 v=41
108570 On ch=1 n=c#5 v=44
108592 On ch=1 n=a#4 v=0
108674 On ch=1 n=c#5 v=0
108766 On ch=1 n=e5 v=29
108838 On ch=1 n=e5 v=0
108906 On ch=1 n=g4 v=52
109082 On ch=1 n=g4 v=0
109092 On ch=1 n=c#5 v=29
109196 On ch=1 n=c#5 v=0
109296 On ch=1 n=e5 v=16
109320 On ch=1 n=c#6 v=0
109376 On ch=1 n=e5 v=0
109478 On ch=1 n=c#6 v=67
109496 On ch=1 n=f#2 v=42
109638 On ch=1 n=c#5 v=27
109688 On ch=1 n=c#6 v=0
109760 On ch=1 n=c#5 v=0
109812 On ch=1 n=e5 v=41
109874 On ch=1 n=e5 v=0
109970 On ch=1 n=b5 v=65
110010 Par ch=1 c=64 v=0
110126 On ch=1 n=b4 v=28
110200 On ch=1 n=f#2 v=0
110210 Par ch=1 c=64 v=127
110268 On ch=1 n=d5 v=34
110290 On ch=1 n=b4 v=0
110404 On ch=1 n=d5 v=0
110482 On ch=1 n=g#4 v=50
110650 On ch=1 n=b4 v=36
110676 On ch=1 n=g#4 v=0
110804 On ch=1 n=b4 v=0
110810 On ch=1 n=d5 v=36
110952 On ch=1 n=d5 v=0
111052 On ch=1 n=f4 v=71
111110 On ch=1 n=b5 v=0
111208 On ch=1 n=f4 v=0
111228 On ch=1 n=b4 v=28
111362 On ch=1 n=b4 v=0
111382 On ch=1 n=d5 v=26
111480 On ch=1 n=d5 v=0
111552 On ch=1 n=b5 v=83
111590 On ch=1 n=f#2 v=47
111748 On ch=1 n=b4 v=42
111756 On ch=1 n=b5 v=0
111874 On ch=1 n=b4 v=0
111902 On ch=1 n=d5 v=42
111982 On ch=1 n=d5 v=0
112210 On ch=1 n=a#5 v=58
112270 Par ch=1 c=64 v=0
112384 On ch=1 n=a#4 v=31
112468 Par ch=1 c=64 v=127
112473 On ch=1 n=f#2 v=0
112546 On ch=1 n=a#4 v=0
112576 On ch=1 n=c#5 v=35
112672 On ch=1 n=c#5 v=0
112750 On ch=1 n=g4 v=44
112862 On ch=1 n=g4 v=0
112934 On ch=1 n=a#4 v=14
113052 On ch=1 n=a#4 v=0
113072 On ch=1 n=c#5 v=41
113150 On ch=1 n=c#5 v=0
113252 On ch=1 n=e4 v=49
113352 On ch=1 n=e4 v=0
113422 On ch=1 n=a#4 v=26
113456 On ch=1 n=a#5 v=0
113536 On ch=1 n=a#4 v=0
113566 On ch=1 n=c#5 v=40
113630 On ch=1 n=c#5 v=0
113736 On ch=1 n=a#5 v=55
113754 On ch=1 n=f#2 v=43
113890 On ch=1 n=a#4 v=32
114006 On ch=1 n=a#4 v=0
114056 On ch=1 n=c#5 v=44
114122 On ch=1 n=c#5 v=0
114132 On ch=1 n=a#5 v=0
114234 On ch=1 n=b5 v=70
114328 Par ch=1 c=64 v=0
114404 On ch=1 n=b4 v=47
114476 On ch=1 n=b2 v=51
114498 Par ch=1 c=64 v=127
114540 On ch=1 n=b4 v=0
114564 On ch=1 n=b5 v=0
114564 On ch=1 n=d#5 v=54
114612 On ch=1 n=d#5 v=0
114758 On ch=1 n=f#5 v=57
114796 On ch=1 n=d#3 v=39
114866 Par ch=1 c=64 v=0
114912 On ch=1 n=f#4 v=50
114980 On ch=1 n=b2 v=0
114988 Par ch=1 c=64 v=127
115034 On ch=1 n=f#3 v=56
115048 On ch=1 n=f#2 v=0
115066 On ch=1 n=d#3 v=0
115084 On ch=1 n=f#4 v=0
115094 On ch=1 n=f#5 v=0
115094 On ch=1 n=b4 v=44
115097 On ch=1 n=f#3 v=0
115152 On ch=1 n=b4 v=0
115298 On ch=1 n=d#5 v=60
115332 On ch=1 n=b3 v=39
115480 On ch=1 n=d#4 v=55
115496 Par ch=1 c=64 v=0
115556 On ch=1 n=b3 v=0
115604 On ch=1 n=b2 v=72
115620 Par ch=1 c=64 v=127
115682 On ch=1 n=f#4 v=60
115726 On ch=1 n=d#4 v=0
115796 On ch=1 n=f#4 v=0
115828 On ch=1 n=d#5 v=0
115858 On ch=1 n=b2 v=0
115908 On ch=1 n=d5 v=57
115930 On ch=1 n=f3 v=36
115942 Par ch=1 c=64 v=0
116090 On ch=1 n=d4 v=54
116156 Par ch=1 c=64 v=127
116180 On ch=1 n=f3 v=0
116242 On ch=1 n=f2 v=40
116248 On ch=1 n=d4 v=0
116306 On ch=1 n=d5 v=0
116338 On ch=1 n=g#4 v=33
116462 On ch=1 n=f2 v=0
116664 Par ch=1 c=64 v=0
116704 On ch=1 n=c#4 v=28
116706 On ch=1 n=c#5 v=33
116724 On ch=1 n=a#4 v=25
116727 On ch=1 n=f#2 v=25
116742 On ch=1 n=f#3 v=12
116800 On ch=1 n=g#4 v=0
117112 On ch=1 n=f#2 v=0
117126 Par ch=1 c=64 v=127
117142 On ch=1 n=f#3 v=0
117412 On ch=1 n=f#3 v=24
117560 On ch=1 n=f#3 v=0
117592 On ch=1 n=g3 v=48
117662 On ch=1 n=g3 v=0
117702 On ch=1 n=c#4 v=0
117732 On ch=1 n=f#3 v=47
117794 On ch=1 n=f#3 v=0
117796 On ch=1 n=a#4 v=0
117860 On ch=1 n=c#5 v=0
117878 Par ch=1 c=64 v=0
117904 On ch=1 n=f#3 v=57
118062 On ch=1 n=f#3 v=0
118074 On ch=1 n=g3 v=52
118092 Par ch=1 c=64 v=127
118168 On ch=1 n=g3 v=0
118232 On ch=1 n=f#3 v=49
118302 On ch=1 n=f#3 v=0
118400 Par ch=1 c=64 v=0
118408 On ch=1 n=f#4 v=63
118430 On ch=1 n=f#3 v=48
118556 On ch=1 n=f#3 v=0
118590 On ch=1 n=g3 v=47
118594 On ch=1 n=g4 v=50
118600 On ch=1 n=f#4 v=0
118646 Par ch=1 c=64 v=127
118682 On ch=1 n=g3 v=0
118738 On ch=1 n=f#4 v=59
118758 On ch=1 n=g4 v=0
118758 On ch=1 n=f#3 v=36
118808 On ch=1 n=f#4 v=0
118868 On ch=1 n=f#3 v=0
118908 Par ch=1 c=64 v=0
118952 On ch=1 n=b4 v=57
118954 On ch=1 n=b3 v=43
118958 On ch=1 n=b2 v=67
118960 On ch=1 n=f#4 v=58
119100 On ch=1 n=f#4 v=0
119174 On ch=1 n=g4 v=35
119194 On ch=1 n=b4 v=0
119230 Par ch=1 c=64 v=127
119272 On ch=1 n=b2 v=0
119304 On ch=1 n=b3 v=0
119312 On ch=1 n=f#4 v=54
119340 On ch=1 n=g4 v=0
119370 On ch=1 n=f#4 v=0
119506 Par ch=1 c=64 v=0
119536 On ch=1 n=d4 v=57
119538 On ch=1 n=d3 v=52
119550 On ch=1 n=b4 v=41
119550 On ch=1 n=f#4 v=43
119632 On ch=1 n=f#4 v=0
119722 On ch=1 n=b4 v=0
119724 On ch=1 n=g4 v=35
119814 Par ch=1 c=64 v=127
119878 On ch=1 n=d3 v=0
119881 On ch=1 n=f#4 v=49
119904 On ch=1 n=d4 v=0
119907 On ch=1 n=g4 v=0
119952 On ch=1 n=f#4 v=0
120044 Par ch=1 c=64 v=0
120082 On ch=1 n=b4 v=54
120087 On ch=1 n=f#4 v=33
120096 On ch=1 n=e3 v=62
120098 On ch=1 n=e4 v=52
120198 On ch=1 n=f#4 v=0
120298 On ch=1 n=g4 v=18
120346 On ch=1 n=b4 v=0
120352 Par ch=1 c=64 v=127
120364 On ch=1 n=e4 v=0
120404 On ch=1 n=f#4 v=42
120406 On ch=1 n=g4 v=0
120466 On ch=1 n=e3 v=0
120468 On ch=1 n=f#4 v=0
120600 On ch=1 n=f#4 v=52
120600 On ch=1 n=f#3 v=70
120612 Par ch=1 c=64 v=0
120736 On ch=1 n=f#4 v=0
120754 On ch=1 n=g4 v=63
120760 On ch=1 n=f#3 v=0
120766 On ch=1 n=g3 v=77
120828 Par ch=1 c=64 v=127
120896 On ch=1 n=f#4 v=69
120914 On ch=1 n=f#3 v=74
120922 On ch=1 n=g3 v=0
120946 On ch=1 n=g4 v=0
120958 On ch=1 n=f#4 v=0
120994 On ch=1 n=f#3 v=0
121042 Par ch=1 c=64 v=0
121092 On ch=1 n=b4 v=65
121094 On ch=1 n=b3 v=67
121096 On ch=1 n=f#4 v=59
121098 On ch=1 n=b2 v=85
121210 On ch=1 n=f#4 v=0
121256 On ch=1 n=b3 v=0
121272 On ch=1 n=g4 v=46
121284 On ch=1 n=b2 v=0
121287 On ch=1 n=b4 v=0
121304 Par ch=1 c=64 v=127
121400 On ch=1 n=f#4 v=60
121434 On ch=1 n=g4 v=0
121470 On ch=1 n=f#4 v=0
121614 On ch=1 n=d4 v=62
121620 On ch=1 n=d3 v=58
121628 Par ch=1 c=64 v=0
121631 On ch=1 n=b4 v=52
121634 On ch=1 n=f#4 v=50
121706 On ch=1 n=f#4 v=0
121788 On ch=1 n=g4 v=50
121808 On ch=1 n=b4 v=0
121858 Par ch=1 c=64 v=127
121880 On ch=1 n=d4 v=0
121882 On ch=1 n=d3 v=0
121920 On ch=1 n=f#4 v=55
121938 On ch=1 n=g4 v=0
121990 On ch=1 n=f#4 v=0
122088 Par ch=1 c=64 v=0
122138 On ch=1 n=f#4 v=40
122143 On ch=1 n=b4 v=48
122154 On ch=1 n=e4 v=55
122164 On ch=1 n=e3 v=55
122270 On ch=1 n=f#4 v=0
122330 On ch=1 n=g4 v=39
122346 On ch=1 n=b4 v=0
122348 Par ch=1 c=64 v=127
122412 On ch=1 n=e4 v=0
122488 On ch=1 n=f#4 v=60
122516 On ch=1 n=g4 v=0
122522 On ch=1 n=e3 v=0
122544 On ch=1 n=f#4 v=0
122654 On ch=1 n=f#3 v=71
122656 On ch=1 n=f#4 v=70
122672 Par ch=1 c=64 v=0
122818 On ch=1 n=g3 v=72
122821 On ch=1 n=f#3 v=0
122824 On ch=1 n=g4 v=73
122826 On ch=1 n=f#4 v=0
122840 Par ch=1 c=64 v=127
122952 On ch=1 n=f#4 v=67
122962 On ch=1 n=g4 v=0
122972 On ch=1 n=f#3 v=73
122974 On ch=1 n=g3 v=0
123020 On ch=1 n=f#3 v=0
123026 On ch=1 n=f#4 v=0
123132 Par ch=1 c=64 v=0
123148 On ch=1 n=f#4 v=52
123152 On ch=1 n=d5 v=69
123162 On ch=1 n=b3 v=63
123168 On ch=1 n=b2 v=81
123176 On ch=1 n=b4 v=44
123284 On ch=1 n=f#4 v=0
123332 Par ch=1 c=64 v=127
123340 On ch=1 n=b2 v=0
123358 On ch=1 n=g4 v=44
123368 On ch=1 n=b3 v=0
123424 On ch=1 n=b4 v=0
123432 On ch=1 n=d5 v=0
123454 On ch=1 n=g4 v=0
123510 On ch=1 n=f#4 v=57
123536 On ch=1 n=c#4 v=73
123544 On ch=1 n=c#3 v=70
123574 On ch=1 n=f#4 v=0
123608 On ch=1 n=c#3 v=0
123620 On ch=1 n=c#4 v=0
123670 On ch=1 n=f#4 v=67
123686 On ch=1 n=d5 v=80
123692 On ch=1 n=d4 v=97
123696 On ch=1 n=d3 v=82
123710 On ch=1 n=b4 v=57
123716 Par ch=1 c=64 v=0
123846 On ch=1 n=f#4 v=0
123896 On ch=1 n=g4 v=62
123916 Par ch=1 c=64 v=127
123924 On ch=1 n=d4 v=0
123956 On ch=1 n=b4 v=0
123958 On ch=1 n=d3 v=0
124006 On ch=1 n=d5 v=0
124042 On ch=1 n=g4 v=0
124078 On ch=1 n=f#4 v=46
124122 On ch=1 n=b3 v=97
124128 On ch=1 n=b2 v=95
124142 On ch=1 n=f#4 v=0
124244 On ch=1 n=b2 v=0
124270 On ch=1 n=f#4 v=75
124273 On ch=1 n=b3 v=0
124276 On ch=1 n=d5 v=81
124318 On ch=1 n=g3 v=97
124336 On ch=1 n=b4 v=27
124346 Par ch=1 c=64 v=0
124408 On ch=1 n=f#4 v=0
124518 On ch=1 n=g4 v=64
124586 On ch=1 n=b4 v=0
124668 Par ch=1 c=64 v=127
124676 On ch=1 n=g4 v=0
124694 On ch=1 n=f#4 v=70
124772 On ch=1 n=f#4 v=0
124780 On ch=1 n=d5 v=0
124894 On ch=1 n=g4 v=65
124908 On ch=1 n=b4 v=69
124938 On ch=1 n=e4 v=29
125092 On ch=1 n=c#5 v=69
125098 On ch=1 n=b4 v=0
125214 On ch=1 n=g3 v=0
125214 On ch=1 n=g4 v=0
125248 On ch=1 n=b4 v=67
125250 On ch=1 n=c#5 v=0
125262 On ch=1 n=e4 v=0
125388 On ch=1 n=b4 v=0
125396 On ch=1 n=c#5 v=78
125400 On ch=1 n=a3 v=89
125404 On ch=1 n=a2 v=86
125422 Par ch=1 c=64 v=0
125428 On ch=1 n=e4 v=60
125428 On ch=1 n=a4 v=43
125560 On ch=1 n=f#4 v=78
125572 On ch=1 n=e4 v=0
125622 Par ch=1 c=64 v=127
125636 On ch=1 n=a4 v=0
125696 On ch=1 n=a2 v=0
125696 On ch=1 n=a3 v=0
125734 On ch=1 n=c#5 v=0
125737 On ch=1 n=e4 v=72
125802 On ch=1 n=e4 v=0
125820 On ch=1 n=f#4 v=0
125852 On ch=1 n=b2 v=106
125854 On ch=1 n=b3 v=86
125898 On ch=1 n=b3 v=0
125942 On ch=1 n=b2 v=0
125974 On ch=1 n=c#5 v=78
125978 On ch=1 n=e4 v=82
125988 On ch=1 n=a4 v=62
126002 On ch=1 n=c#4 v=96
126004 On ch=1 n=c#3 v=93
126051 Par ch=1 c=64 v=0
126160 On ch=1 n=f#4 v=77
126164 On ch=1 n=e4 v=0
126236 Par ch=1 c=64 v=127
126248 On ch=1 n=c#4 v=0
126310 On ch=1 n=c#3 v=0
126322 On ch=1 n=a4 v=0
126326 On ch=1 n=e4 v=73
126364 On ch=1 n=c#5 v=0
126367 On ch=1 n=f#4 v=0
126377 On ch=1 n=e4 v=0
126381 On ch=1 n=a2 v=109
126381 On ch=1 n=a3 v=104
126427 On ch=1 n=a2 v=0
126467 On ch=1 n=a3 v=0
126509 On ch=1 n=c#5 v=79
126527 On ch=1 n=e4 v=77
126530 On ch=1 n=a4 v=63
126561 On ch=1 n=f#3 v=101
126587 Par ch=1 c=64 v=0
126713 On ch=1 n=e4 v=0
126739 On ch=1 n=f#4 v=69
126862 Par ch=1 c=64 v=127
126915 On ch=1 n=a4 v=0
126933 On ch=1 n=e4 v=63
126973 On ch=1 n=f#4 v=0
127011 On ch=1 n=e4 v=0
127041 On ch=1 n=c#5 v=0
127141 On ch=1 n=a4 v=64
127147 On ch=1 n=f#4 v=57
127163 On ch=1 n=d4 v=51
127329 On ch=1 n=b4 v=79
127357 On ch=1 n=a4 v=0
127461 On ch=1 n=b4 v=0
127497 On ch=1 n=a4 v=69
127525 On ch=1 n=d4 v=0
127541 On ch=1 n=f#3 v=0
127591 On ch=1 n=f#4 v=0
127655 On ch=1 n=g3 v=87
127659 On ch=1 n=a4 v=0
127659 On ch=1 n=g2 v=82
127669 On ch=1 n=b4 v=74
127669 On ch=1 n=g4 v=65
127683 On ch=1 n=d4 v=69
127739 Par ch=1 c=64 v=0
127831 On ch=1 n=d4 v=0
127843 On ch=1 n=e4 v=83
127969 Par ch=1 c=64 v=127
127991 On ch=1 n=g4 v=0
127993 On ch=1 n=d4 v=73
128017 On ch=1 n=b4 v=0
128075 On ch=1 n=e4 v=0
128091 On ch=1 n=d4 v=0
128191 On ch=1 n=b4 v=82
128193 On ch=1 n=g4 v=77
128195 On ch=1 n=d4 v=58
128233 On ch=1 n=g3 v=0
128235 On ch=1 n=g2 v=0
128347 On ch=1 n=d4 v=0
128387 On ch=1 n=e4 v=78
128435 On ch=1 n=a3 v=92
128447 On ch=1 n=a2 v=93
128473 On ch=1 n=b4 v=0
128476 On ch=1 n=g4 v=0
128557 On ch=1 n=e4 v=0
128565 On ch=1 n=d4 v=64
128609 On ch=1 n=a3 v=0
128637 On ch=1 n=a2 v=0
128640 On ch=1 n=d4 v=0
128727 On ch=1 n=a#4 v=77
128730 On ch=1 n=d4 v=67
128737 On ch=1 n=g4 v=72
128739 On ch=1 n=a#3 v=102
128745 On ch=1 n=a#2 v=93
128861 Par ch=1 c=64 v=0
128913 On ch=1 n=d#4 v=74
128931 On ch=1 n=d4 v=0
129067 On ch=1 n=d4 v=80
129075 Par ch=1 c=64 v=127
129133 On ch=1 n=a#4 v=0
129145 On ch=1 n=d4 v=0
129179 On ch=1 n=g4 v=0
129182 On ch=1 n=d#4 v=0
129253 On ch=1 n=a#4 v=87
129257 On ch=1 n=d#4 v=70
129261 On ch=1 n=a#3 v=0
129269 On ch=1 n=d4 v=87
129283 On ch=1 n=g4 v=67
129347 On ch=1 n=d#4 v=0
129357 On ch=1 n=a#2 v=0
129397 On ch=1 n=d4 v=0
129485 On ch=1 n=d4 v=62
129529 On ch=1 n=g3 v=111
129533 On ch=1 n=g2 v=111
129559 On ch=1 n=d#4 v=78
129585 On ch=1 n=g2 v=0
129588 On ch=1 n=d4 v=0
129615 On ch=1 n=g3 v=0
129681 On ch=1 n=d#4 v=0
129693 On ch=1 n=d4 v=80
129775 On ch=1 n=g4 v=0
129778 On ch=1 n=a#4 v=0
129805 On ch=1 n=d4 v=0
129961 On ch=1 n=a#4 v=86
129967 On ch=1 n=d4 v=89
130001 On ch=1 n=d#4 v=111
130003 On ch=1 n=d#3 v=111
130121 Par ch=1 c=64 v=0
130231 On ch=1 n=g4 v=78
130275 On ch=1 n=d4 v=0
130351 Par ch=1 c=64 v=127
130385 On ch=1 n=d4 v=67
130435 On ch=1 n=g4 v=0
130461 On ch=1 n=d4 v=0
130495 On ch=1 n=d#4 v=0
130555 On ch=1 n=d#3 v=0
130579 On ch=1 n=d4 v=70
130739 On ch=1 n=d4 v=0
130757 On ch=1 n=g4 v=73
130903 On ch=1 n=d4 v=72
130957 On ch=1 n=a#4 v=0
131023 On ch=1 n=d4 v=0
131179 On ch=1 n=a4 v=75
131187 On ch=1 n=d#4 v=64
131215 On ch=1 n=g4 v=0
131221 On ch=1 n=c3 v=93
131221 On ch=1 n=c4 v=82
131419 On ch=1 n=g4 v=73
131441 On ch=1 n=d#4 v=0
131559 On ch=1 n=g4 v=0
131589 On ch=1 n=d#4 v=47
131649 On ch=1 n=d#4 v=0
131719 On ch=1 n=c4 v=0
131737 On ch=1 n=d#4 v=58
131855 On ch=1 n=d#4 v=0
131925 On ch=1 n=c3 v=0
132003 On ch=1 n=g4 v=93
132005 On ch=1 n=a2 v=81
132007 On ch=1 n=a3 v=71
132011 On ch=1 n=c4 v=60
132045 On ch=1 n=a4 v=0
132163 On ch=1 n=a3 v=0
132187 On ch=1 n=c4 v=0
132191 On ch=1 n=g4 v=0
132343 On ch=1 n=g4 v=93
132347 On ch=1 n=d4 v=64
132347 On ch=1 n=a3 v=58
132349 Par ch=1 c=64 v=0
132357 On ch=1 n=a2 v=0
132359 On ch=1 n=d3 v=62
132603 On ch=1 n=d#4 v=58
132621 On ch=1 n=d4 v=0
132641 Par ch=1 c=64 v=127
132777 On ch=1 n=d#4 v=0
132783 On ch=1 n=d4 v=72
132863 On ch=1 n=d4 v=0
132971 On ch=1 n=d4 v=62
133135 On ch=1 n=d4 v=0
133155 On ch=1 n=d#4 v=54
133251 On ch=1 n=a3 v=0
133251 On ch=1 n=d3 v=0
133299 On ch=1 n=d#4 v=0
133299 On ch=1 n=d4 v=71
133355 On ch=1 n=d4 v=0
133471 Par ch=1 c=64 v=0
133485 On ch=1 n=f#4 v=85
133487 On ch=1 n=a3 v=60
133503 On ch=1 n=d3 v=63
133503 On ch=1 n=d4 v=63
133533 On ch=1 n=g4 v=0
133677 On ch=1 n=d4 v=0
133685 On ch=1 n=d#4 v=75
133731 Par ch=1 c=64 v=127
133835 On ch=1 n=d4 v=82
133883 On ch=1 n=d#4 v=0
133903 On ch=1 n=d4 v=0
134007 On ch=1 n=d4 v=71
134135 On ch=1 n=d4 v=0
134173 On ch=1 n=d#4 v=69
134211 On ch=1 n=f#4 v=0
134311 On ch=1 n=d#4 v=0
134329 On ch=1 n=d4 v=88
134369 On ch=1 n=d4 v=0
134445 On ch=1 n=a3 v=0
134533 On ch=1 n=d3 v=0
134641 On ch=1 n=b4 v=96
134643 On ch=1 n=d5 v=89
134643 On ch=1 n=g5 v=90
134645 On ch=1 n=b5 v=101
134651 On ch=1 n=g3 v=95
134653 On ch=1 n=g2 v=102
134883 Par ch=1 c=64 v=0
134919 On ch=1 n=e5 v=79
134931 On ch=1 n=d5 v=0
135037 Par ch=1 c=64 v=127
135081 On ch=1 n=d5 v=82
135113 On ch=1 n=e5 v=0
135127 On ch=1 n=d5 v=0
135267 On ch=1 n=d5 v=73
135339 On ch=1 n=g2 v=0
135345 On ch=1 n=g3 v=0
135399 On ch=1 n=d5 v=0
135421 On ch=1 n=b5 v=0
135439 On ch=1 n=e5 v=79
135453 On ch=1 n=g5 v=0
135461 On ch=1 n=b4 v=0
135501 On ch=1 n=a3 v=105
135509 On ch=1 n=a2 v=98
135595 On ch=1 n=d5 v=90
135609 On ch=1 n=e5 v=0
135651 On ch=1 n=a3 v=0
135663 On ch=1 n=a2 v=0
135685 On ch=1 n=d5 v=0
135763 On ch=1 n=a#4 v=85
135765 On ch=1 n=d5 v=87
135765 On ch=1 n=g5 v=80
135767 On ch=1 n=a#5 v=93
135769 On ch=1 n=a#3 v=101
135773 On ch=1 n=a#2 v=101
135821 Par ch=1 c=64 v=0
135951 On ch=1 n=d#5 v=89
135963 On ch=1 n=d5 v=0
136037 Par ch=1 c=64 v=127
136089 On ch=1 n=d5 v=70
136139 On ch=1 n=d#5 v=0
136149 On ch=1 n=d5 v=0
136297 On ch=1 n=a#3 v=0
136301 On ch=1 n=d5 v=83
136335 On ch=1 n=a#4 v=0
136421 On ch=1 n=a#2 v=0
136447 On ch=1 n=d#5 v=78
136461 On ch=1 n=d5 v=0
136543 On ch=1 n=g3 v=120
136546 On ch=1 n=g2 v=118
136551 On ch=1 n=a#5 v=0
136587 On ch=1 n=g5 v=0
136595 On ch=1 n=g2 v=0
136619 On ch=1 n=d5 v=85
136623 On ch=1 n=g3 v=0
136643 On ch=1 n=d#5 v=0
136747 On ch=1 n=d5 v=0
136877 On ch=1 n=a#5 v=98
136881 On ch=1 n=a#4 v=90
136893 On ch=1 n=d5 v=102
136895 On ch=1 n=d#4 v=118
136903 On ch=1 n=d#3 v=112
137019 Par ch=1 c=64 v=0
137139 On ch=1 n=g5 v=81
137169 On ch=1 n=d5 v=0
137219 Par ch=1 c=64 v=127
137315 On ch=1 n=g5 v=0
137318 On ch=1 n=d5 v=75
137371 On ch=1 n=d5 v=0
137529 On ch=1 n=d5 v=72
137635 On ch=1 n=d5 v=0
137685 On ch=1 n=g5 v=67
137797 On ch=1 n=a#5 v=0
137839 On ch=1 n=g5 v=0
137851 On ch=1 n=d5 v=72
137891 On ch=1 n=a#4 v=0
137891 On ch=1 n=d#4 v=0
137923 On ch=1 n=d5 v=0
138085 On ch=1 n=a5 v=77
138085 On ch=1 n=a4 v=83
138088 On ch=1 n=d#5 v=82
138097 On ch=1 n=c4 v=79
138101 On ch=1 n=c3 v=87
138107 On ch=1 n=d#3 v=0
138171 Par ch=1 c=64 v=0
138327 On ch=1 n=d#5 v=0
138337 On ch=1 n=g5 v=62
138373 Par ch=1 c=64 v=127
138429 On ch=1 n=g5 v=0
138485 On ch=1 n=d#5 v=50
138537 On ch=1 n=d#5 v=0
138547 On ch=1 n=a4 v=0
138631 On ch=1 n=d#5 v=54
138641 On ch=1 n=c4 v=0
138709 On ch=1 n=c3 v=0
138777 On ch=1 n=d#5 v=0
138891 On ch=1 n=g5 v=85
138894 On ch=1 n=a2 v=93
138899 On ch=1 n=a3 v=72
138907 On ch=1 n=c5 v=56
138963 On ch=1 n=a5 v=0
139073 On ch=1 n=a3 v=0
139089 On ch=1 n=c5 v=0
139115 On ch=1 n=a2 v=0
139121 On ch=1 n=g5 v=0
139237 Par ch=1 c=64 v=0
139241 On ch=1 n=a3 v=63
139243 On ch=1 n=d3 v=78
139246 On ch=1 n=g5 v=81
139255 On ch=1 n=d5 v=67
139473 On ch=1 n=d5 v=0
139479 On ch=1 n=d#5 v=50
139555 Par ch=1 c=64 v=127
139641 On ch=1 n=d#5 v=0
139651 On ch=1 n=d5 v=54
139667 On ch=1 n=d3 v=0
139671 On ch=1 n=a3 v=0
139701 On ch=1 n=d5 v=0
139805 On ch=1 n=d5 v=27
139913 On ch=1 n=d5 v=0
139973 On ch=1 n=d#5 v=43
140073 On ch=1 n=d#5 v=0
140129 On ch=1 n=d5 v=44
140187 On ch=1 n=d5 v=0
140273 On ch=1 n=d5 v=42
140375 On ch=1 n=d5 v=0
140453 On ch=1 n=d#5 v=40
140541 On ch=1 n=d#5 v=0
140597 On ch=1 n=d5 v=32
140661 On ch=1 n=d5 v=0
140755 On ch=1 n=d5 v=35
140857 On ch=1 n=d5 v=0
140957 On ch=1 n=d#5 v=36
141077 On ch=1 n=d#5 v=0
141115 On ch=1 n=d5 v=33
141177 On ch=1 n=d5 v=0
141329 On ch=1 n=f#5 v=46
141363 On ch=1 n=d5 v=35
141369 On ch=1 n=g5 v=0
141383 Par ch=1 c=64 v=0
141415 On ch=1 n=d3 v=3
141445 On ch=1 n=a3 v=2
141546 On ch=1 n=d#5 v=40
141557 On ch=1 n=d5 v=0
141599 Par ch=1 c=64 v=127
141635 On ch=1 n=d#5 v=0
141697 On ch=1 n=d5 v=23
141775 On ch=1 n=d5 v=0
141861 On ch=1 n=d5 v=54
141921 Par ch=1 c=64 v=0
142035 On ch=1 n=d5 v=0
142051 On ch=1 n=d#5 v=51
142075 Par ch=1 c=64 v=127
142165 On ch=1 n=d#5 v=0
142225 On ch=1 n=d5 v=34
142289 On ch=1 n=d5 v=0
142335 Par ch=1 c=64 v=0
142371 On ch=1 n=d5 v=49
142505 On ch=1 n=d5 v=0
142521 Par ch=1 c=64 v=127
142543 On ch=1 n=a3 v=0
142555 On ch=1 n=d#5 v=46
142577 On ch=1 n=d3 v=0
142631 On ch=1 n=f#5 v=0
142697 On ch=1 n=d#5 v=0
142991 On ch=1 n=d3 v=43
143007 On ch=1 n=d2 v=17
143007 On ch=1 n=d4 v=23
143011 Par ch=1 c=64 v=0
143217 On ch=1 n=d5 v=52
143219 On ch=1 n=d4 v=0
143227 Par ch=1 c=64 v=127
143269 On ch=1 n=d2 v=0
143309 On ch=1 n=d5 v=0
143327 On ch=1 n=d3 v=0
143441 On ch=1 n=d4 v=72
143489 On ch=1 n=d4 v=0
143689 Par ch=1 c=64 v=0
143715 On ch=1 n=g5 v=60
143723 On ch=1 n=d5 v=50
143727 On ch=1 n=g4 v=55
143735 On ch=1 n=g3 v=41
143738 On ch=1 n=g2 v=41
143738 On ch=1 n=d3 v=39
143911 On ch=1 n=d5 v=0
143913 On ch=1 n=d#5 v=52
143915 On ch=1 n=g2 v=0
143943 On ch=1 n=d3 v=0
143949 Par ch=1 c=64 v=127
143961 On ch=1 n=g3 v=0
144093 On ch=1 n=d#5 v=0
144103 On ch=1 n=d5 v=36
144169 On ch=1 n=d5 v=0
144207 On ch=1 n=g4 v=0
144349 On ch=1 n=d5 v=28
144351 On ch=1 n=a#5 v=31
144433 On ch=1 n=d5 v=0
144493 On ch=1 n=d#5 v=40
144533 On ch=1 n=a#5 v=0
144563 On ch=1 n=d#5 v=0
144667 On ch=1 n=d5 v=46
144723 On ch=1 n=d5 v=0
144875 On ch=1 n=d6 v=65
144899 On ch=1 n=d5 v=11
144917 On ch=1 n=d6 v=0
144981 On ch=1 n=d5 v=0
145033 On ch=1 n=d#5 v=40
145105 On ch=1 n=g5 v=0
145189 On ch=1 n=d5 v=23
145213 On ch=1 n=d#5 v=0
145257 On ch=1 n=d5 v=0
145381 On ch=1 n=a5 v=57
145389 On ch=1 n=a4 v=50
145407 On ch=1 n=a3 v=32
145409 Par ch=1 c=64 v=0
145411 On ch=1 n=a2 v=36
145425 On ch=1 n=d3 v=39
145433 On ch=1 n=d5 v=21
145513 On ch=1 n=d5 v=0
145577 Par ch=1 c=64 v=127
145589 On ch=1 n=d3 v=0
145595 On ch=1 n=d#5 v=35
145637 On ch=1 n=a4 v=0
145639 On ch=1 n=a2 v=0
145651 On ch=1 n=a3 v=0
145681 On ch=1 n=d#5 v=0
145685 On ch=1 n=a5 v=0
145749 On ch=1 n=d5 v=32
145811 On ch=1 n=d5 v=0
145913 On ch=1 n=a#5 v=66
145923 On ch=1 n=a#4 v=46
145925 On ch=1 n=d5 v=19
145931 Par ch=1 c=64 v=0
145933 On ch=1 n=a#3 v=47
145941 On ch=1 n=a#2 v=47
145971 On ch=1 n=d3 v=43
146073 On ch=1 n=d5 v=0
146113 On ch=1 n=a#2 v=0
146113 On ch=1 n=d3 v=0
146131 Par ch=1 c=64 v=127
146139 On ch=1 n=d#5 v=43
146153 On ch=1 n=a#3 v=0
146159 On ch=1 n=a#4 v=0
146209 On ch=1 n=d#5 v=0
146281 On ch=1 n=a#5 v=0
146331 On ch=1 n=d5 v=9
146403 On ch=1 n=d5 v=0
146501 On ch=1 n=d5 v=35
146509 On ch=1 n=d6 v=70
146597 On ch=1 n=d5 v=0
146693 On ch=1 n=d#5 v=46
146727 On ch=1 n=d6 v=0
146773 On ch=1 n=d#5 v=0
146865 On ch=1 n=d5 v=18
146935 On ch=1 n=d5 v=0
147033 On ch=1 n=g6 v=73
147036 On ch=1 n=d5 v=33
147095 On ch=1 n=g6 v=0
147155 On ch=1 n=d5 v=0
147207 On ch=1 n=d#5 v=52
147351 On ch=1 n=d#5 v=0
147373 On ch=1 n=d5 v=52
147431 On ch=1 n=d5 v=0
147569 On ch=1 n=a3 v=50
147573 On ch=1 n=a5 v=56
147575 On ch=1 n=a4 v=46
147585 On ch=1 n=a2 v=39
147597 On ch=1 n=d3 v=41
147617 On ch=1 n=d5 v=23
147681 On ch=1 n=d5 v=0
147763 On ch=1 n=d3 v=0
147777 On ch=1 n=d#5 v=35
147819 On ch=1 n=a4 v=0
147839 On ch=1 n=a5 v=0
147857 On ch=1 n=d#5 v=0
147923 On ch=1 n=a2 v=0
147937 On ch=1 n=a3 v=0
147942 On ch=1 n=d5 v=16
148003 On ch=1 n=d5 v=0
148083 Par ch=1 c=64 v=0
148085 On ch=1 n=d5 v=63
148091 On ch=1 n=g3 v=72
148101 On ch=1 n=g4 v=72
148103 On ch=1 n=g5 v=74
148103 On ch=1 n=g2 v=57
148119 On ch=1 n=d3 v=48
148251 On ch=1 n=g2 v=0
148269 On ch=1 n=d5 v=0
148279 On ch=1 n=d#5 v=51
148287 On ch=1 n=d3 v=0
148297 Par ch=1 c=64 v=127
148299 On ch=1 n=g3 v=0
148317 On ch=1 n=g4 v=0
148387 On ch=1 n=d#5 v=0
148437 On ch=1 n=d5 v=40
148497 On ch=1 n=d5 v=0
148623 On ch=1 n=a#5 v=62
148635 On ch=1 n=d5 v=29
148723 On ch=1 n=d5 v=0
148787 On ch=1 n=d#5 v=37
148823 On ch=1 n=a#5 v=0
148885 On ch=1 n=d#5 v=0
148925 On ch=1 n=d5 v=40
148935 On ch=1 n=g5 v=0
148989 On ch=1 n=d5 v=0
149151 On ch=1 n=d6 v=69
149177 On ch=1 n=d5 v=41
149203 On ch=1 n=d6 v=0
149257 On ch=1 n=d5 v=0
149315 On ch=1 n=d#5 v=48
149459 On ch=1 n=d#5 v=0
149523 On ch=1 n=d5 v=29
149589 On ch=1 n=d5 v=0
149753 On ch=1 n=f#5 v=50
149753 On ch=1 n=f#3 v=32
149755 On ch=1 n=f#4 v=52
149769 On ch=1 n=f#2 v=39
149783 On ch=1 n=d5 v=33
149789 Par ch=1 c=64 v=0
149809 On ch=1 n=d3 v=21
149853 On ch=1 n=d5 v=0
149935 On ch=1 n=d#5 v=43
149941 On ch=1 n=d3 v=0
149987 Par ch=1 c=64 v=127
150043 On ch=1 n=f#4 v=0
150053 On ch=1 n=f#3 v=0
150081 On ch=1 n=f#5 v=0
150123 On ch=1 n=d#5 v=0
150127 On ch=1 n=d5 v=40
150137 On ch=1 n=f#2 v=0
150189 On ch=1 n=d5 v=0
150325 Par ch=1 c=64 v=0
150343 On ch=1 n=f5 v=55
150345 On ch=1 n=f4 v=72
150363 On ch=1 n=f2 v=41
150365 On ch=1 n=f3 v=48
150369 On ch=1 n=d3 v=44
150371 On ch=1 n=d5 v=48
150541 Par ch=1 c=64 v=127
150543 On ch=1 n=f2 v=0
150559 On ch=1 n=d5 v=0
150579 On ch=1 n=d3 v=0
150581 On ch=1 n=d#5 v=54
150585 On ch=1 n=f3 v=0
150615 On ch=1 n=f4 v=0
150697 On ch=1 n=d#5 v=0
150743 On ch=1 n=d5 v=35
150807 On ch=1 n=d5 v=0
150893 On ch=1 n=a#5 v=63
150907 On ch=1 n=d5 v=33
151025 On ch=1 n=d5 v=0
151073 On ch=1 n=a#5 v=0
151087 On ch=1 n=d#5 v=31
151169 On ch=1 n=d#5 v=0
151207 On ch=1 n=d5 v=41
151263 On ch=1 n=f5 v=0
151287 On ch=1 n=d5 v=0
151427 On ch=1 n=d6 v=67
151453 On ch=1 n=d5 v=41
151471 On ch=1 n=d6 v=0
151551 On ch=1 n=d5 v=0
151595 On ch=1 n=d#5 v=54
151703 On ch=1 n=d#5 v=0
151733 On ch=1 n=d5 v=42
151795 On ch=1 n=d5 v=0
151981 On ch=1 n=d2 v=71
151983 On ch=1 n=d3 v=71
151985 On ch=1 n=d4 v=81
152047 Par ch=1 c=64 v=0
152163 On ch=1 n=d4 v=0
152166 On ch=1 n=d5 v=57
152199 On ch=1 n=d2 v=0
152201 Par ch=1 c=64 v=127
152251 On ch=1 n=d3 v=0
152319 On ch=1 n=d4 v=63
152371 On ch=1 n=d4 v=0
152371 On ch=1 n=d5 v=0
152569 Par ch=1 c=64 v=0
152595 On ch=1 n=g2 v=70
152595 On ch=1 n=g5 v=80
152595 On ch=1 n=g3 v=60
152603 On ch=1 n=d5 v=66
152606 On ch=1 n=d3 v=55
152606 On ch=1 n=g4 v=71
152783 On ch=1 n=g2 v=0
152791 On ch=1 n=d5 v=0
152801 On ch=1 n=d#5 v=57
152821 On ch=1 n=d3 v=0
152831 Par ch=1 c=64 v=127
152837 On ch=1 n=g3 v=0
152887 On ch=1 n=d#5 v=0
152957 On ch=1 n=g4 v=0
152965 On ch=1 n=d5 v=50
153029 On ch=1 n=d5 v=0
153149 On ch=1 n=d5 v=39
153165 On ch=1 n=a#5 v=69
153311 On ch=1 n=d5 v=0
153335 On ch=1 n=d#5 v=44
153379 On ch=1 n=a#5 v=0
153435 On ch=1 n=d#5 v=0
153485 On ch=1 n=d5 v=57
153547 On ch=1 n=d5 v=0
153673 On ch=1 n=d6 v=80
153683 On ch=1 n=d5 v=56
153715 On ch=1 n=d6 v=0
153833 On ch=1 n=d5 v=0
153839 On ch=1 n=d#5 v=63
153993 On ch=1 n=g5 v=0
154001 On ch=1 n=d5 v=67
154055 On ch=1 n=d5 v=0
154077 On ch=1 n=d#5 v=0
154147 On ch=1 n=a3 v=62
154147 On ch=1 n=a5 v=83
154153 On ch=1 n=d5 v=60
154153 On ch=1 n=a4 v=75
154153 On ch=1 n=a2 v=63
154156 On ch=1 n=d3 v=66
154181 Par ch=1 c=64 v=0
154321 On ch=1 n=d5 v=0
154337 On ch=1 n=d#5 v=71
154351 Par ch=1 c=64 v=127
154381 On ch=1 n=d3 v=0
154387 On ch=1 n=a4 v=0
154433 On ch=1 n=a5 v=0
154439 On ch=1 n=a2 v=0
154455 On ch=1 n=a3 v=0
154489 On ch=1 n=d5 v=63
154511 On ch=1 n=d#5 v=0
154547 On ch=1 n=d5 v=0
154655 On ch=1 n=a#5 v=87
154658 Par ch=1 c=64 v=0
154661 On ch=1 n=d5 v=70
154661 On ch=1 n=a#4 v=73
154667 On ch=1 n=a#3 v=77
154671 On ch=1 n=a#2 v=74
154707 On ch=1 n=d3 v=51
154837 On ch=1 n=a#4 v=0
154853 On ch=1 n=d#5 v=80
154865 On ch=1 n=d3 v=0
154867 On ch=1 n=a#2 v=0
154871 On ch=1 n=d5 v=0
154873 Par ch=1 c=64 v=127
154907 On ch=1 n=a#3 v=0
155013 On ch=1 n=a#5 v=0
155013 On ch=1 n=d5 v=67
155037 On ch=1 n=d#5 v=0
155075 On ch=1 n=d5 v=0
155193 On ch=1 n=d5 v=63
155199 On ch=1 n=d6 v=100
155369 On ch=1 n=d#5 v=81
155387 On ch=1 n=d5 v=0
155521 On ch=1 n=d5 v=77
155549 On ch=1 n=d#5 v=0
155555 On ch=1 n=d6 v=0
155583 On ch=1 n=d5 v=0
155675 On ch=1 n=g6 v=104
155691 On ch=1 n=d5 v=79
155765 On ch=1 n=g6 v=0
155821 On ch=1 n=d5 v=0
155851 On ch=1 n=d#5 v=79
155899 On ch=1 n=d#5 v=0
155989 On ch=1 n=d5 v=62
156085 On ch=1 n=d5 v=0
156165 On ch=1 n=d4 v=97
156173 On ch=1 n=d3 v=80
156177 On ch=1 n=d5 v=83
156321 On ch=1 n=d5 v=0
156331 On ch=1 n=d4 v=0
156365 On ch=1 n=d6 v=80
156389 On ch=1 n=d3 v=0
156501 On ch=1 n=d6 v=0
156521 On ch=1 n=d5 v=82
156573 On ch=1 n=d5 v=0
156763 Par ch=1 c=64 v=0
156765 On ch=1 n=g#5 v=80
156771 On ch=1 n=g#3 v=87
156771 On ch=1 n=g#4 v=80
156774 On ch=1 n=g#2 v=74
156781 On ch=1 n=d5 v=77
156791 On ch=1 n=d3 v=63
156967 On ch=1 n=g#2 v=0
156989 On ch=1 n=d3 v=0
156992 On ch=1 n=d5 v=0
157002 On ch=1 n=e5 v=65
157005 Par ch=1 c=64 v=127
157010 On ch=1 n=g#3 v=0
157068 On ch=1 n=g#4 v=0
157166 On ch=1 n=d5 v=62
157172 On ch=1 n=e5 v=0
157256 On ch=1 n=d5 v=0
157370 On ch=1 n=d5 v=55
157390 On ch=1 n=d6 v=74
157558 On ch=1 n=d5 v=0
157576 On ch=1 n=e5 v=65
157682 On ch=1 n=d6 v=0
157724 On ch=1 n=d5 v=62
157727 On ch=1 n=e5 v=0
157778 On ch=1 n=d5 v=0
157910 On ch=1 n=f6 v=64
157912 On ch=1 n=d5 v=34
157954 On ch=1 n=f6 v=0
158068 On ch=1 n=d5 v=0
158114 On ch=1 n=e5 v=41
158138 On ch=1 n=g#5 v=0
158258 On ch=1 n=d5 v=47
158302 On ch=1 n=e5 v=0
158338 On ch=1 n=d5 v=0
158460 On ch=1 n=d5 v=35
158463 On ch=1 n=a4 v=56
158466 On ch=1 n=a5 v=49
158470 On ch=1 n=a3 v=37
158480 On ch=1 n=a2 v=39
158482 Par ch=1 c=64 v=0
158506 On ch=1 n=d3 v=32
158648 On ch=1 n=d5 v=0
158680 Par ch=1 c=64 v=127
158706 On ch=1 n=e5 v=39
158709 On ch=1 n=a3 v=0
158720 On ch=1 n=a5 v=0
158740 On ch=1 n=a4 v=0
158744 On ch=1 n=d3 v=0
158772 On ch=1 n=a2 v=0
158838 On ch=1 n=e5 v=0
158866 On ch=1 n=d5 v=52
158920 On ch=1 n=d5 v=0
159078 On ch=1 n=d3 v=47
159081 Par ch=1 c=64 v=0
159084 On ch=1 n=d2 v=39
159100 On ch=1 n=d4 v=25
159220 On ch=1 n=d2 v=0
159250 Par ch=1 c=64 v=127
159256 On ch=1 n=d3 v=0
159266 On ch=1 n=d4 v=0
159266 On ch=1 n=d5 v=47
159376 On ch=1 n=d5 v=0
159428 On ch=1 n=d4 v=51
159499 On ch=1 n=d4 v=0
159608 On ch=1 n=a5 v=34
159622 On ch=1 n=d4 v=31
159714 On ch=1 n=d4 v=0
159778 On ch=1 n=d5 v=37
159826 On ch=1 n=a5 v=0
159880 On ch=1 n=d5 v=0
159914 On ch=1 n=d4 v=32
159998 On ch=1 n=d4 v=0
160106 On ch=1 n=d4 v=34
160122 On ch=1 n=d6 v=32
160178 On ch=1 n=d6 v=0
160238 On ch=1 n=d4 v=0
160302 On ch=1 n=d5 v=41
160438 On ch=1 n=d5 v=0
160476 On ch=1 n=d4 v=55
160528 On ch=1 n=d4 v=0
160730 On ch=1 n=d5 v=63
160740 On ch=1 n=d2 v=35
160748 On ch=1 n=d3 v=42
160906 On ch=1 n=d5 v=0
160924 On ch=1 n=d#5 v=59
160930 On ch=1 n=d2 v=0
160992 On ch=1 n=d3 v=0
161026 On ch=1 n=d#5 v=0
161084 On ch=1 n=d5 v=63
161136 On ch=1 n=d5 v=0
161248 Par ch=1 c=64 v=0
161258 On ch=1 n=g3 v=50
161260 On ch=1 n=g2 v=63
161268 On ch=1 n=g4 v=54
161268 On ch=1 n=g5 v=70
161274 On ch=1 n=d3 v=51
161286 On ch=1 n=d5 v=34
161444 On ch=1 n=d5 v=0
161448 On ch=1 n=d3 v=0
161464 On ch=1 n=g2 v=0
161468 On ch=1 n=d#5 v=42
161478 Par ch=1 c=64 v=127
161506 On ch=1 n=g3 v=0
161574 On ch=1 n=d#5 v=0
161604 On ch=1 n=g4 v=0
161634 On ch=1 n=d5 v=40
161694 On ch=1 n=d5 v=0
161834 On ch=1 n=d5 v=10
161872 On ch=1 n=b5 v=55
162012 On ch=1 n=d5 v=0
162026 On ch=1 n=d#5 v=57
162110 On ch=1 n=d#5 v=0
162172 On ch=1 n=b5 v=0
162184 On ch=1 n=d5 v=58
162242 On ch=1 n=d5 v=0
162346 On ch=1 n=d5 v=46
162349 On ch=1 n=d6 v=66
162398 On ch=1 n=d6 v=0
162484 On ch=1 n=d5 v=0
162516 On ch=1 n=d#5 v=50
162662 On ch=1 n=d5 v=50
162690 On ch=1 n=g5 v=0
162720 On ch=1 n=d5 v=0
162726 On ch=1 n=d#5 v=0
162852 On ch=1 n=g#4 v=70
162852 On ch=1 n=g#5 v=77
162858 On ch=1 n=f3 v=63
162860 On ch=1 n=f2 v=60
162876 Par ch=1 c=64 v=0
162882 On ch=1 n=d3 v=55
162890 On ch=1 n=d5 v=48
162950 On ch=1 n=d5 v=0
163044 On ch=1 n=d3 v=0
163090 Par ch=1 c=64 v=127
163106 On ch=1 n=d#5 v=36
163132 On ch=1 n=f2 v=0
163162 On ch=1 n=g#5 v=0
163186 On ch=1 n=f3 v=0
163198 On ch=1 n=d#5 v=0
163274 On ch=1 n=g#4 v=0
163452 On ch=1 n=f5 v=72
163464 On ch=1 n=d5 v=56
163466 On ch=1 n=f4 v=80
163468 On ch=1 n=g#3 v=56
163472 On ch=1 n=g#2 v=41
163476 Par ch=1 c=64 v=0
163496 On ch=1 n=d3 v=44
163674 On ch=1 n=g#2 v=0
163674 On ch=1 n=d#5 v=64
163677 Par ch=1 c=64 v=127
163686 On ch=1 n=d3 v=0
163694 On ch=1 n=d5 v=0
163706 On ch=1 n=f4 v=0
163712 On ch=1 n=g#3 v=0
163838 On ch=1 n=d#5 v=0
163852 On ch=1 n=d5 v=50
163908 On ch=1 n=d5 v=0
163998 On ch=1 n=d5 v=49
163998 On ch=1 n=b5 v=85
164166 On ch=1 n=d5 v=0
164166 On ch=1 n=d#5 v=59
164306 On ch=1 n=d#5 v=0
164306 On ch=1 n=b5 v=0
164312 On ch=1 n=d5 v=59
164368 On ch=1 n=d5 v=0
164486 On ch=1 n=d6 v=81
164518 On ch=1 n=d5 v=47
164530 On ch=1 n=d6 v=0
164626 On ch=1 n=d5 v=0
164652 On ch=1 n=d#5 v=65
164668 On ch=1 n=f5 v=0
164794 On ch=1 n=d5 v=69
164822 On ch=1 n=d#5 v=0
164838 On ch=1 n=d5 v=0
164966 On ch=1 n=d3 v=81
164974 On ch=1 n=d2 v=63
164984 On ch=1 n=d4 v=92
165016 On ch=1 n=a#4 v=29
165092 On ch=1 n=a#4 v=0
165095 On ch=1 n=d4 v=0
165130 On ch=1 n=d5 v=77
165136 On ch=1 n=d2 v=0
165182 On ch=1 n=d3 v=0
165258 On ch=1 n=d4 v=79
165304 On ch=1 n=d4 v=0
165334 On ch=1 n=d5 v=0
165472 Par ch=1 c=64 v=0
165474 On ch=1 n=g3 v=81
165474 On ch=1 n=g5 v=88
165484 On ch=1 n=g2 v=81
165484 On ch=1 n=d5 v=81
165487 On ch=1 n=g4 v=77
165487 On ch=1 n=d3 v=67
165632 On ch=1 n=g2 v=0
165644 On ch=1 n=d#5 v=77
165647 On ch=1 n=d5 v=0
165662 On ch=1 n=d3 v=0
165672 Par ch=1 c=64 v=127
165684 On ch=1 n=g3 v=0
165792 On ch=1 n=d#5 v=0
165832 On ch=1 n=d5 v=62
165886 On ch=1 n=d5 v=0
166022 On ch=1 n=b5 v=96
166034 On ch=1 n=d5 v=69
166156 On ch=1 n=g4 v=0
166188 On ch=1 n=d#5 v=60
166198 On ch=1 n=d5 v=0
166324 On ch=1 n=d5 v=62
166340 On ch=1 n=b5 v=0
166358 On ch=1 n=d#5 v=0
166382 On ch=1 n=d5 v=0
166504 On ch=1 n=d6 v=103
166522 On ch=1 n=d5 v=64
166610 On ch=1 n=d6 v=0
166628 On ch=1 n=d5 v=0
166672 On ch=1 n=d#5 v=65
166820 On ch=1 n=d5 v=65
166850 On ch=1 n=g5 v=0
166892 On ch=1 n=d5 v=0
166914 On ch=1 n=d#5 v=0
166996 On ch=1 n=g#5 v=88
166996 On ch=1 n=g#4 v=82
166999 On ch=1 n=f3 v=82
167002 On ch=1 n=d5 v=66
167006 On ch=1 n=f2 v=70
167008 On ch=1 n=d3 v=64
167040 Par ch=1 c=64 v=0
167198 On ch=1 n=d5 v=0
167210 On ch=1 n=d#5 v=70
167240 Par ch=1 c=64 v=127
167260 On ch=1 n=d3 v=0
167286 On ch=1 n=g#4 v=0
167292 On ch=1 n=f2 v=0
167304 On ch=1 n=g#5 v=0
167320 On ch=1 n=f3 v=0
167384 On ch=1 n=d5 v=67
167388 On ch=1 n=d#5 v=0
167440 On ch=1 n=d5 v=0
167594 On ch=1 n=g#3 v=69
167604 On ch=1 n=f5 v=78
167606 On ch=1 n=g#2 v=46
167608 On ch=1 n=d5 v=67
167610 Par ch=1 c=64 v=0
167616 On ch=1 n=f4 v=104
167630 On ch=1 n=d3 v=56
167808 On ch=1 n=d#5 v=77
167808 Par ch=1 c=64 v=127
167822 On ch=1 n=g#2 v=0
167830 On ch=1 n=d3 v=0
167838 On ch=1 n=d5 v=0
167868 On ch=1 n=g#3 v=0
167886 On ch=1 n=f4 v=0
167988 On ch=1 n=d5 v=72
167992 On ch=1 n=d#5 v=0
168044 On ch=1 n=d5 v=0
168182 On ch=1 n=b5 v=96
168186 On ch=1 n=d5 v=55
168334 On ch=1 n=d#5 v=63
168342 On ch=1 n=d5 v=0
168472 On ch=1 n=d#5 v=0
168494 On ch=1 n=d5 v=59
168546 On ch=1 n=b5 v=0
168549 On ch=1 n=d5 v=0
168660 On ch=1 n=d6 v=92
168688 On ch=1 n=d5 v=47
168700 On ch=1 n=d6 v=0
168810 On ch=1 n=f5 v=0
168812 On ch=1 n=d#5 v=70
168814 On ch=1 n=d5 v=0
168932 On ch=1 n=d5 v=79
168960 On ch=1 n=d#5 v=0
168972 On ch=1 n=d5 v=0
169120 On ch=1 n=d3 v=100
169130 On ch=1 n=d2 v=87
169132 On ch=1 n=d4 v=109
169158 On ch=1 n=a#4 v=29
169250 On ch=1 n=a#4 v=0
169256 On ch=1 n=d4 v=0
169268 On ch=1 n=d2 v=0
169280 On ch=1 n=d5 v=85
169320 On ch=1 n=d3 v=0
169400 On ch=1 n=d4 v=92
169426 On ch=1 n=d5 v=0
169440 On ch=1 n=d4 v=0
169658 On ch=1 n=b5 v=117
169664 On ch=1 n=d5 v=101
169666 On ch=1 n=b4 v=104
169668 Par ch=1 c=64 v=0
169668 On ch=1 n=g3 v=93
169676 On ch=1 n=g2 v=85
169806 On ch=1 n=g2 v=0
169852 Par ch=1 c=64 v=127
169856 On ch=1 n=g3 v=0
169878 On ch=1 n=e5 v=73
169888 On ch=1 n=d5 v=0
170012 On ch=1 n=d5 v=51
170028 On ch=1 n=e5 v=0
170086 On ch=1 n=d5 v=0
170182 On ch=1 n=d6 v=100
170190 On ch=1 n=d5 v=72
170340 On ch=1 n=d5 v=0
170340 On ch=1 n=e5 v=74
170464 On ch=1 n=d5 v=72
170522 On ch=1 n=e5 v=0
170540 On ch=1 n=d5 v=0
170568 On ch=1 n=d6 v=0
170672 On ch=1 n=f6 v=108
170676 On ch=1 n=d5 v=97
170746 On ch=1 n=f6 v=0
170812 On ch=1 n=d5 v=0
170820 On ch=1 n=e5 v=92
170832 On ch=1 n=b4 v=0
170844 On ch=1 n=b5 v=0
170960 On ch=1 n=d5 v=83
171030 On ch=1 n=d5 v=0
171080 On ch=1 n=e5 v=0
171114 On ch=1 n=b5 v=115
171117 On ch=1 n=g3 v=96
171122 On ch=1 n=d5 v=81
171122 On ch=1 n=g2 v=101
171124 On ch=1 n=b4 v=95
171288 On ch=1 n=e5 v=81
171290 On ch=1 n=d5 v=0
171350 On ch=1 n=b5 v=0
171414 On ch=1 n=b4 v=0
171426 On ch=1 n=g3 v=0
171428 On ch=1 n=d5 v=65
171456 On ch=1 n=g2 v=0
171460 On ch=1 n=e5 v=0
171484 On ch=1 n=d5 v=0
171542 Par ch=1 c=64 v=0
171576 On ch=1 n=b5 v=118
171578 On ch=1 n=d5 v=93
171581 On ch=1 n=f#3 v=118
171586 On ch=1 n=f#2 v=111
171586 On ch=1 n=b4 v=102
171720 On ch=1 n=f#2 v=0
171752 On ch=1 n=f#3 v=0
171762 On ch=1 n=e5 v=83
171772 Par ch=1 c=64 v=127
171776 On ch=1 n=d5 v=0
171888 On ch=1 n=d5 v=65
171930 On ch=1 n=e5 v=0
172006 On ch=1 n=d5 v=0
172094 On ch=1 n=f#6 v=116
172104 On ch=1 n=d5 v=65
172178 On ch=1 n=f#6 v=0
172280 On ch=1 n=e5 v=81
172283 On ch=1 n=d5 v=0
172380 On ch=1 n=b5 v=0
172420 On ch=1 n=d5 v=82
172496 On ch=1 n=e5 v=0
172502 On ch=1 n=b4 v=0
172530 On ch=1 n=d5 v=0
172588 Par ch=1 c=64 v=0
172591 On ch=1 n=d5 v=103
172594 On ch=1 n=b4 v=105
172594 On ch=1 n=b5 v=120
172600 On ch=1 n=g5 v=97
172600 On ch=1 n=f3 v=124
172606 On ch=1 n=f2 v=119
172762 On ch=1 n=f2 v=0
172802 Par ch=1 c=64 v=127
172814 On ch=1 n=f3 v=0
172814 On ch=1 n=e5 v=92
172836 On ch=1 n=d5 v=0
172966 On ch=1 n=d5 v=101
173004 On ch=1 n=e5 v=0
173086 On ch=1 n=d5 v=0
173154 On ch=1 n=g6 v=127
173158 On ch=1 n=d5 v=90
173238 On ch=1 n=g6 v=0
173348 On ch=1 n=e5 v=87
173380 On ch=1 n=d5 v=0
173400 On ch=1 n=b4 v=0
173462 On ch=1 n=g5 v=0
173465 On ch=1 n=b5 v=0
173508 On ch=1 n=d5 v=93
173556 On ch=1 n=e5 v=0
173620 On ch=1 n=d5 v=0
173724 Par ch=1 c=64 v=0
173727 On ch=1 n=b5 v=119
173727 On ch=1 n=d5 v=111
173727 On ch=1 n=b4 v=118
173731 On ch=1 n=g#5 v=97
173734 On ch=1 n=e3 v=127
173738 On ch=1 n=e2 v=115
173918 On ch=1 n=e2 v=0
173970 Par ch=1 c=64 v=127
173976 On ch=1 n=e3 v=0
173990 On ch=1 n=e5 v=92
174012 On ch=1 n=d5 v=0
174154 On ch=1 n=d5 v=93
174188 On ch=1 n=e5 v=0
174294 On ch=1 n=d5 v=0
174408 On ch=1 n=d5 v=64
174438 On ch=1 n=g#6 v=111
174664 On ch=1 n=d5 v=0
174669 On ch=1 n=g#6 v=0
174669 On ch=1 n=e5 v=81
174826 On ch=1 n=d5 v=83
174876 On ch=1 n=e5 v=0
174938 On ch=1 n=d5 v=0
175012 On ch=1 n=d5 v=82
175028 On ch=1 n=b6 v=127
175184 On ch=1 n=b6 v=0
175198 On ch=1 n=e5 v=79
175222 On ch=1 n=d5 v=0
175224 On ch=1 n=b4 v=0
175362 On ch=1 n=d5 v=64
175394 On ch=1 n=e5 v=0
175416 On ch=1 n=d5 v=0
175546 On ch=1 n=d5 v=81
175694 On ch=1 n=d5 v=0
175716 On ch=1 n=e5 v=80
175770 On ch=1 n=b5 v=0
175814 On ch=1 n=g#5 v=0
175884 On ch=1 n=d5 v=75
175930 On ch=1 n=d5 v=0
176032 On ch=1 n=a5 v=87
176034 Par ch=1 c=64 v=0
176038 On ch=1 n=d5 v=77
176040 On ch=1 n=f2 v=93
176042 On ch=1 n=a4 v=89
176044 On ch=1 n=f3 v=89
176074 On ch=1 n=e5 v=0
176182 On ch=1 n=f2 v=0
176212 On ch=1 n=e5 v=70
176218 On ch=1 n=f3 v=0
176226 On ch=1 n=d5 v=0
176228 Par ch=1 c=64 v=127
176358 On ch=1 n=a4 v=0
176370 On ch=1 n=e5 v=0
176374 On ch=1 n=d5 v=51
176492 On ch=1 n=d5 v=0
176606 On ch=1 n=d5 v=57
176630 On ch=1 n=f6 v=93
176820 On ch=1 n=d5 v=0
176836 On ch=1 n=e5 v=56
176868 On ch=1 n=f6 v=0
176928 On ch=1 n=e5 v=0
177002 On ch=1 n=d5 v=43
177072 On ch=1 n=d5 v=0
177252 On ch=1 n=d5 v=39
177258 On ch=1 n=a6 v=71
177338 On ch=1 n=d5 v=0
177364 On ch=1 n=a6 v=0
177416 On ch=1 n=e5 v=31
177546 On ch=1 n=e5 v=0
177562 On ch=1 n=a5 v=0
177570 On ch=1 n=d5 v=50
177634 On ch=1 n=d5 v=0
177760 On ch=1 n=d4 v=87
177774 On ch=1 n=d3 v=62
177780 On ch=1 n=d5 v=69
177944 On ch=1 n=d5 v=0
177952 On ch=1 n=d4 v=0
177954 On ch=1 n=e5 v=55
178002 On ch=1 n=d3 v=0
178026 On ch=1 n=e5 v=0
178126 On ch=1 n=d5 v=28
178202 On ch=1 n=d5 v=0
178296 On ch=1 n=b4 v=93
178310 On ch=1 n=g#4 v=62
178314 On ch=1 n=e3 v=81
178316 On ch=1 n=e2 v=63
178318 Par ch=1 c=64 v=0
178378 On ch=1 n=d5 v=9
178474 On ch=1 n=d5 v=0
178476 On ch=1 n=e2 v=0
178514 On ch=1 n=e3 v=0
178517 Par ch=1 c=64 v=127
178534 On ch=1 n=e5 v=63
178668 On ch=1 n=e5 v=0
178684 On ch=1 n=d5 v=59
178752 On ch=1 n=d5 v=0
178862 On ch=1 n=d5 v=50
178865 On ch=1 n=g#5 v=72
179034 On ch=1 n=d5 v=0
179050 On ch=1 n=e5 v=50
179142 On ch=1 n=e5 v=0
179186 On ch=1 n=d5 v=49
179258 On ch=1 n=d5 v=0
179362 On ch=1 n=d5 v=55
179362 On ch=1 n=b5 v=79
179365 On ch=1 n=g#5 v=0
179514 On ch=1 n=d5 v=0
179536 On ch=1 n=e5 v=47
179646 On ch=1 n=e5 v=0
179662 On ch=1 n=d5 v=35
179714 On ch=1 n=b5 v=0
179732 On ch=1 n=d5 v=0
179850 On ch=1 n=d5 v=35
180002 On ch=1 n=d5 v=0
180036 On ch=1 n=e5 v=56
180182 On ch=1 n=e5 v=0
180196 On ch=1 n=d5 v=50
180250 On ch=1 n=d5 v=0
180286 On ch=1 n=g#4 v=0
180408 Par ch=1 c=64 v=0
180414 On ch=1 n=f2 v=48
180414 On ch=1 n=a4 v=51
180428 On ch=1 n=d5 v=49
180428 On ch=1 n=f3 v=48
180474 On ch=1 n=b4 v=0
180666 On ch=1 n=e5 v=50
180668 Par ch=1 c=64 v=127
180670 On ch=1 n=d5 v=0
180682 On ch=1 n=f2 v=0
180724 On ch=1 n=f3 v=0
180798 On ch=1 n=e5 v=0
180858 On ch=1 n=d5 v=35
180918 On ch=1 n=d5 v=0
181014 On ch=1 n=d5 v=35
181024 On ch=1 n=f5 v=46
181196 On ch=1 n=d5 v=0
181208 On ch=1 n=e5 v=54
181286 On ch=1 n=e5 v=0
181346 On ch=1 n=d5 v=39
181360 On ch=1 n=f5 v=0
181422 On ch=1 n=d5 v=0
181538 On ch=1 n=a5 v=32
181552 On ch=1 n=d5 v=33
181626 On ch=1 n=a5 v=0
181684 On ch=1 n=d5 v=0
181768 On ch=1 n=e5 v=37
181846 On ch=1 n=e5 v=0
181910 On ch=1 n=a4 v=0
181926 On ch=1 n=d5 v=50
181982 On ch=1 n=d5 v=0
182116 On ch=1 n=d3 v=54
182119 On ch=1 n=d4 v=74
182196 On ch=1 n=d4 v=0
182356 On ch=1 n=e4 v=58
182484 On ch=1 n=d3 v=0
182560 On ch=1 n=d4 v=66
182572 On ch=1 n=e4 v=0
182636 On ch=1 n=d4 v=0
182942 Par ch=1 c=64 v=0
182944 On ch=1 n=a#4 v=54
182950 On ch=1 n=g2 v=49
182958 On ch=1 n=g4 v=48
182960 On ch=1 n=g3 v=37
182960 On ch=1 n=d4 v=52
183290 On ch=1 n=e4 v=56
183308 On ch=1 n=d4 v=0
183310 Par ch=1 c=64 v=127
183528 On ch=1 n=d4 v=52
183530 On ch=1 n=e4 v=0
183710 On ch=1 n=d4 v=0
183722 On ch=1 n=g2 v=0
183732 On ch=1 n=e4 v=52
183834 On ch=1 n=g3 v=0
183886 On ch=1 n=e4 v=0
183938 On ch=1 n=d4 v=42
184022 On ch=1 n=d4 v=0
184134 On ch=1 n=e4 v=51
184138 On ch=1 n=g4 v=0
184190 On ch=1 n=e4 v=0
184278 On ch=1 n=a#4 v=0
184320 On ch=1 n=g3 v=47
184330 On ch=1 n=a#3 v=37
184346 On ch=1 n=d4 v=33
184450 On ch=1 n=d4 v=0
184538 On ch=1 n=a#4 v=43
184580 On ch=1 n=e4 v=39
184680 On ch=1 n=e4 v=0
184732 On ch=1 n=a#4 v=0
184772 On ch=1 n=d4 v=36
184816 On ch=1 n=d5 v=36
184894 On ch=1 n=d4 v=0
185020 On ch=1 n=g5 v=47
185028 On ch=1 n=d5 v=0
185028 On ch=1 n=e4 v=26
185114 On ch=1 n=e4 v=0
185216 On ch=1 n=g5 v=0
185218 On ch=1 n=a#5 v=52
185240 On ch=1 n=d4 v=25
185326 On ch=1 n=d4 v=0
185374 On ch=1 n=a#5 v=0
185394 On ch=1 n=d6 v=74
185420 On ch=1 n=e4 v=43
185454 On ch=1 n=d6 v=0
185518 On ch=1 n=e4 v=0
185588 On ch=1 n=g6 v=80
185630 On ch=1 n=d4 v=27
185728 On ch=1 n=d4 v=0
185798 On ch=1 n=a#6 v=60
185810 On ch=1 n=g6 v=0
185840 On ch=1 n=e4 v=47
185930 On ch=1 n=e4 v=0
185970 On ch=1 n=a#6 v=0
186000 On ch=1 n=d6 v=59
186016 On ch=1 n=d4 v=40
186088 On ch=1 n=d4 v=0
186110 On ch=1 n=d6 v=0
186182 On ch=1 n=a6 v=50
186198 On ch=1 n=e4 v=48
186278 On ch=1 n=e4 v=0
186330 On ch=1 n=a6 v=0
186338 On ch=1 n=a#5 v=49
186380 On ch=1 n=d4 v=32
186460 On ch=1 n=d4 v=0
186534 On ch=1 n=g6 v=59
186540 On ch=1 n=a#5 v=0
186546 On ch=1 n=e4 v=36
186600 On ch=1 n=g6 v=0
186620 On ch=1 n=e4 v=0
186712 On ch=1 n=a5 v=21
186715 On ch=1 n=d4 v=31
186792 On ch=1 n=d4 v=0
186882 On ch=1 n=a5 v=0
186885 On ch=1 n=d6 v=36
186895 On ch=1 n=e4 v=33
186985 On ch=1 n=e4 v=0
187047 On ch=1 n=g5 v=46
187059 On ch=1 n=d6 v=0
187073 On ch=1 n=d4 v=35
187153 On ch=1 n=d4 v=0
187231 On ch=1 n=a#5 v=36
187233 On ch=1 n=g5 v=0
187263 On ch=1 n=e4 v=37
187349 On ch=1 n=e4 v=0
187357 On ch=1 n=a#5 v=0
187421 On ch=1 n=d5 v=44
187433 On ch=1 n=d4 v=32
187505 On ch=1 n=d5 v=0
187513 On ch=1 n=d4 v=0
187597 On ch=1 n=a5 v=36
187649 On ch=1 n=e4 v=35
187685 On ch=1 n=a5 v=0
187743 On ch=1 n=e4 v=0
187779 On ch=1 n=a#4 v=37
187849 On ch=1 n=d4 v=24
187953 On ch=1 n=d4 v=0
187967 On ch=1 n=a#4 v=0
188039 On ch=1 n=g5 v=32
188067 On ch=1 n=e4 v=35
188163 On ch=1 n=e4 v=0
188291 On ch=1 n=a4 v=26
188297 On ch=1 n=g5 v=0
188319 On ch=1 n=d4 v=20
188419 On ch=1 n=a4 v=0
188455 On ch=1 n=d4 v=0
188593 On ch=1 n=d5 v=39
188609 On ch=1 n=e4 v=33
188909 On ch=1 n=e4 v=0
188967 On ch=1 n=g4 v=24
188967 On ch=1 n=d4 v=19
189691 On ch=1 n=a#4 v=21
189743 On ch=1 n=e4 v=26
191033 On ch=1 n=e4 v=0
191437 On ch=1 n=d5 v=0
191499 On ch=1 n=d4 v=0
191557 On ch=1 n=g3 v=0
191579 On ch=1 n=a#3 v=0
191611 On ch=1 n=g4 v=0
191625 On ch=1 n=a#4 v=0
192035 Par ch=1 c=64 v=0
192283 On ch=1 n=f#4 v=115
192285 On ch=1 n=d5 v=121
192287 On ch=1 n=d4 v=127
192287 On ch=1 n=a4 v=108
192291 On ch=1 n=d3 v=126
192295 On ch=1 n=d2 v=125
192365 On ch=1 n=d2 v=0
192365 On ch=1 n=d3 v=0
192405 Par ch=1 c=64 v=127
192419 On ch=1 n=d4 v=0
192471 On ch=1 n=d5 v=0
192531 On ch=1 n=d4 v=113
192575 On ch=1 n=a4 v=0
192585 On ch=1 n=f#4 v=0
192695 On ch=1 n=d5 v=112
192695 Par ch=1 c=64 v=0
192739 On ch=1 n=d4 v=0
192817 On ch=1 n=d5 v=0
192905 On ch=1 n=d#5 v=126
192913 On ch=1 n=g3 v=127
192915 On ch=1 n=g2 v=127
193035 Par ch=1 c=64 v=127
193045 On ch=1 n=g2 v=0
193071 On ch=1 n=g3 v=0
193093 On ch=1 n=d#4 v=89
193263 On ch=1 n=a#4 v=63
193283 On ch=1 n=d#4 v=0
193457 On ch=1 n=a#4 v=0
193499 On ch=1 n=g5 v=123
193657 On ch=1 n=g5 v=0
193665 On ch=1 n=d#4 v=77
193795 On ch=1 n=a#4 v=55
193827 On ch=1 n=d#4 v=0
193953 On ch=1 n=a#5 v=112
193957 On ch=1 n=a#4 v=0
194035 On ch=1 n=a#5 v=0
194099 On ch=1 n=d#4 v=80
194217 On ch=1 n=d#4 v=0
194225 On ch=1 n=a#4 v=59
194259 On ch=1 n=d#5 v=0
194405 On ch=1 n=c3 v=119
194405 On ch=1 n=c2 v=118
194411 On ch=1 n=e5 v=120
194417 Par ch=1 c=64 v=0
194465 On ch=1 n=a#4 v=0
194535 On ch=1 n=e4 v=105
194567 On ch=1 n=c2 v=0
194601 Par ch=1 c=64 v=127
194631 On ch=1 n=c3 v=0
194695 On ch=1 n=a#4 v=67
194698 On ch=1 n=e4 v=0
194753 On ch=1 n=e5 v=0
194827 On ch=1 n=a#4 v=0
194885 On ch=1 n=a3 v=111
194887 On ch=1 n=f5 v=118
194891 On ch=1 n=a2 v=113
194893 Par ch=1 c=64 v=0
195057 On ch=1 n=a2 v=0
195057 On ch=1 n=f4 v=116
195105 On ch=1 n=a3 v=0
195108 Par ch=1 c=64 v=127
195255 On ch=1 n=c5 v=101
195295 On ch=1 n=f4 v=0
195387 On ch=1 n=a5 v=117
195437 On ch=1 n=c5 v=0
195543 On ch=1 n=f4 v=111
195677 On ch=1 n=c5 v=100
195705 On ch=1 n=f4 v=0
195779 On ch=1 n=a5 v=0
195825 On ch=1 n=c6 v=116
195843 On ch=1 n=c5 v=0
195907 On ch=1 n=c6 v=0
195971 On ch=1 n=f4 v=116
196033 On ch=1 n=f4 v=0
196109 On ch=1 n=c5 v=101
196133 On ch=1 n=f5 v=0
196207 On ch=1 n=c5 v=0
196353 On ch=1 n=c2 v=109
196355 On ch=1 n=c3 v=112
196359 On ch=1 n=f6 v=112
196477 On ch=1 n=c2 v=0
196517 On ch=1 n=f5 v=64
196543 On ch=1 n=c3 v=0
196569 On ch=1 n=f6 v=0
196627 On ch=1 n=c6 v=80
196719 On ch=1 n=f5 v=0
196815 On ch=1 n=c4 v=95
196818 On ch=1 n=c3 v=95
196818 On ch=1 n=e6 v=111
196861 On ch=1 n=c6 v=0
196861 Par ch=1 c=64 v=0
196931 On ch=1 n=e5 v=86
197059 Par ch=1 c=64 v=127
197079 On ch=1 n=g5 v=74
197101 On ch=1 n=e6 v=0
197193 On ch=1 n=e5 v=0
197209 On ch=1 n=c4 v=0
197253 On ch=1 n=c6 v=105
197279 On ch=1 n=g5 v=0
197305 On ch=1 n=c3 v=0
197373 On ch=1 n=c5 v=79
197489 On ch=1 n=c6 v=0
197527 On ch=1 n=e5 v=73
197577 On ch=1 n=c5 v=0
197621 On ch=1 n=e5 v=0
197659 On ch=1 n=g5 v=112
197665 On ch=1 n=c3 v=104
197667 On ch=1 n=c2 v=109
197713 On ch=1 n=c2 v=0
197775 On ch=1 n=c3 v=0
197793 On ch=1 n=g4 v=90
197905 On ch=1 n=g4 v=0
197933 On ch=1 n=e5 v=95
197997 On ch=1 n=g5 v=0
198075 On ch=1 n=a5 v=104
198085 On ch=1 n=e5 v=0
198089 On ch=1 n=f#4 v=103
198101 On ch=1 n=c4 v=80
198105 On ch=1 n=d#4 v=74
198183 On ch=1 n=f#4 v=0
198193 On ch=1 n=a4 v=93
198197 On ch=1 n=d#4 v=0
198229 On ch=1 n=c4 v=0
198357 On ch=1 n=f#5 v=86
198357 On ch=1 n=d#5 v=97
198383 On ch=1 n=a4 v=0
198449 On ch=1 n=a5 v=0
198477 On ch=1 n=d#5 v=0
198511 On ch=1 n=f#5 v=0
198519 Par ch=1 c=64 v=0
198537 On ch=1 n=g3 v=108
198539 On ch=1 n=b5 v=121
198541 On ch=1 n=g2 v=111
198671 On ch=1 n=b4 v=88
198693 On ch=1 n=g2 v=0
198735 Par ch=1 c=64 v=127
198745 On ch=1 n=g3 v=0
198815 On ch=1 n=b4 v=0
198833 On ch=1 n=d5 v=79
198841 On ch=1 n=g5 v=88
198885 On ch=1 n=d5 v=0
198899 On ch=1 n=b5 v=0
198957 On ch=1 n=g5 v=0
199035 On ch=1 n=d6 v=121
199035 On ch=1 n=g4 v=100
199041 On ch=1 n=b3 v=80
199053 On ch=1 n=d4 v=80
199181 On ch=1 n=d4 v=0
199209 On ch=1 n=d5 v=72
199275 On ch=1 n=g4 v=0
199375 On ch=1 n=b5 v=75
199377 On ch=1 n=g5 v=67
199395 On ch=1 n=d5 v=0
199565 On ch=1 n=g5 v=0
199569 On ch=1 n=b5 v=0
199579 On ch=1 n=b4 v=95
199599 On ch=1 n=g4 v=67
199599 On ch=1 n=d4 v=75
199727 On ch=1 n=b4 v=0
199743 On ch=1 n=b3 v=0
199777 On ch=1 n=d5 v=78
199795 On ch=1 n=g4 v=0
199801 On ch=1 n=d4 v=0
199839 On ch=1 n=d5 v=0
200023 On ch=1 n=d6 v=0
200033 On ch=1 n=g5 v=64
200041 On ch=1 n=b5 v=62
200093 On ch=1 n=b5 v=0
200093 On ch=1 n=g5 v=0
200405 On ch=1 n=f#5 v=82
200417 On ch=1 n=f#3 v=93
200420 On ch=1 n=f#2 v=93
200485 Par ch=1 c=64 v=0
200599 On ch=1 n=f#4 v=86
200707 On ch=1 n=f#2 v=0
200717 Par ch=1 c=64 v=127
200741 On ch=1 n=f#4 v=0
200749 On ch=1 n=f#3 v=0
200767 On ch=1 n=c#5 v=83
200887 On ch=1 n=f#5 v=0
200949 On ch=1 n=g5 v=101
200953 On ch=1 n=b2 v=100
200953 On ch=1 n=b3 v=93
200979 On ch=1 n=c#5 v=0
200993 Par ch=1 c=64 v=0
201141 On ch=1 n=g4 v=85
201153 On ch=1 n=b2 v=0
201205 On ch=1 n=b3 v=0
201209 Par ch=1 c=64 v=127
201311 On ch=1 n=d5 v=85
201329 On ch=1 n=g4 v=0
201493 On ch=1 n=d5 v=0
201517 On ch=1 n=b5 v=118
201691 On ch=1 n=g4 v=74
201803 On ch=1 n=b5 v=0
201821 On ch=1 n=d5 v=79
201825 On ch=1 n=g4 v=0
201963 On ch=1 n=d5 v=0
202017 On ch=1 n=d6 v=117
202089 On ch=1 n=d6 v=0
202094 On ch=1 n=g5 v=0
202157 On ch=1 n=g4 v=79
202285 On ch=1 n=g4 v=0
202307 On ch=1 n=d5 v=72
202365 On ch=1 n=d5 v=0
202477 On ch=1 n=g#5 v=109
202483 On ch=1 n=e3 v=115
202489 On ch=1 n=e2 v=95
202515 Par ch=1 c=64 v=0
202619 On ch=1 n=g#4 v=82
202621 On ch=1 n=e2 v=0
202669 Par ch=1 c=64 v=127
202672 On ch=1 n=e3 v=0
202769 On ch=1 n=g#4 v=0
202777 On ch=1 n=d5 v=83
202851 On ch=1 n=g#5 v=0
202931 On ch=1 n=a5 v=101
202939 On ch=1 n=c#4 v=103
202941 On ch=1 n=d5 v=0
202941 On ch=1 n=c#3 v=101
202945 Par ch=1 c=64 v=0
203087 On ch=1 n=a4 v=77
203105 On ch=1 n=c#3 v=0
203151 On ch=1 n=c#4 v=0
203175 Par ch=1 c=64 v=127
203247 On ch=1 n=e5 v=81
203267 On ch=1 n=a4 v=0
203389 On ch=1 n=e5 v=0
203391 On ch=1 n=c#6 v=102
203519 On ch=1 n=a4 v=71
203667 On ch=1 n=e5 v=83
203675 On ch=1 n=a4 v=0
203737 On ch=1 n=c#6 v=0
203783 On ch=1 n=e5 v=0
203837 On ch=1 n=e6 v=108
203911 On ch=1 n=e6 v=0
203965 On ch=1 n=a4 v=65
204033 On ch=1 n=a5 v=0
204051 On ch=1 n=a4 v=0
204095 On ch=1 n=e5 v=65
204139 On ch=1 n=e5 v=0
204395 On ch=1 n=a6 v=121
204411 On ch=1 n=c#3 v=95
204414 On ch=1 n=c#2 v=102
204521 On ch=1 n=c#2 v=0
204545 On ch=1 n=a5 v=79
204555 On ch=1 n=c#3 v=0
204701 On ch=1 n=e6 v=81
204717 On ch=1 n=a5 v=0
204729 On ch=1 n=a6 v=0
204831 On ch=1 n=e6 v=0
204901 On ch=1 n=e4 v=118
204903 On ch=1 n=g#6 v=115
204903 On ch=1 n=e3 v=117
204927 Par ch=1 c=64 v=0
205033 On ch=1 n=g#5 v=71
205127 Par ch=1 c=64 v=127
205147 On ch=1 n=g#6 v=0
205181 On ch=1 n=g#5 v=0
205193 On ch=1 n=b5 v=74
205249 On ch=1 n=e4 v=0
205291 On ch=1 n=b5 v=0
205327 On ch=1 n=e3 v=0
205343 On ch=1 n=e6 v=108
205449 On ch=1 n=e5 v=83
205575 On ch=1 n=e6 v=0
205593 On ch=1 n=g#5 v=77
205617 On ch=1 n=e5 v=0
205725 On ch=1 n=g#5 v=0
205755 On ch=1 n=b5 v=119
205758 On ch=1 n=e3 v=113
205761 On ch=1 n=e2 v=98
205798 On ch=1 n=e2 v=0
205849 On ch=1 n=e3 v=0
205873 On ch=1 n=b4 v=97
205977 On ch=1 n=b4 v=0
206017 On ch=1 n=g#5 v=86
206061 On ch=1 n=b5 v=0
206137 On ch=1 n=g#5 v=0
206171 Par ch=1 c=64 v=0
206185 On ch=1 n=c#6 v=113
206193 On ch=1 n=a#4 v=89
206205 On ch=1 n=e4 v=98
206211 On ch=1 n=g4 v=77
206295 On ch=1 n=c#5 v=89
206335 On ch=1 n=g4 v=0
206345 On ch=1 n=a#4 v=0
206355 Par ch=1 c=64 v=127
206360 On ch=1 n=e4 v=0
206447 On ch=1 n=c#5 v=0
206451 On ch=1 n=a#5 v=75
206459 On ch=1 n=g5 v=73
206525 On ch=1 n=c#6 v=0
206535 On ch=1 n=g5 v=0
206645 On ch=1 n=d#6 v=115
206657 On ch=1 n=b3 v=110
206659 On ch=1 n=b2 v=119
206663 On ch=1 n=a#5 v=0
206663 Par ch=1 c=64 v=0
206777 On ch=1 n=d#5 v=87
206823 On ch=1 n=b2 v=0
206877 On ch=1 n=b3 v=0
206879 Par ch=1 c=64 v=127
206905 On ch=1 n=d#5 v=0
206937 On ch=1 n=f#5 v=65
206945 On ch=1 n=b5 v=90
206999 On ch=1 n=f#5 v=0
207017 On ch=1 n=d#6 v=0
207063 On ch=1 n=b5 v=0
207169 On ch=1 n=f#6 v=116
207181 On ch=1 n=b4 v=97
207185 On ch=1 n=d#4 v=89
207189 On ch=1 n=f#4 v=81
207343 On ch=1 n=f#5 v=82
207361 On ch=1 n=f#4 v=0
207377 On ch=1 n=b4 v=0
207419 On ch=1 n=d#4 v=0
207489 On ch=1 n=f#5 v=0
207525 On ch=1 n=d#6 v=83
207531 On ch=1 n=b5 v=89
207661 On ch=1 n=b5 v=0
207703 On ch=1 n=d#6 v=0
207711 On ch=1 n=f#4 v=109
207715 On ch=1 n=d#5 v=104
207737 On ch=1 n=b4 v=86
207773 On ch=1 n=b4 v=0
207777 On ch=1 n=d#5 v=0
207779 On ch=1 n=f#4 v=0
207925 On ch=1 n=f#5 v=89
208161 On ch=1 n=f#5 v=0
208197 On ch=1 n=d#6 v=89
208205 On ch=1 n=b5 v=86
208623 On ch=1 n=b5 v=0
208707 On ch=1 n=f#6 v=0
208763 On ch=1 n=d#6 v=0
209629 On ch=1 n=b5 v=126
209629 Par ch=1 c=64 v=0
209635 On ch=1 n=b4 v=124
209639 On ch=1 n=b3 v=121
209641 On ch=1 n=b2 v=123
209787 On ch=1 n=b3 v=0
209813 On ch=1 n=b2 v=0
209821 On ch=1 n=b4 v=0
209843 Par ch=1 c=64 v=127
209884 On ch=1 n=b5 v=0
210155 On ch=1 n=e6 v=121
210157 On ch=1 n=e5 v=124
210160 On ch=1 n=g5 v=109
210160 On ch=1 n=b5 v=121
210167 On ch=1 n=e3 v=127
210169 On ch=1 n=e2 v=118
210223 On ch=1 n=e2 v=0
210263 On ch=1 n=e3 v=0
210303 On ch=1 n=e5 v=0
210339 On ch=1 n=e6 v=0
210393 On ch=1 n=g5 v=0
210411 On ch=1 n=b5 v=0
210581 Par ch=1 c=64 v=0
210837 On ch=1 n=d5 v=123
210837 On ch=1 n=d6 v=127
210840 On ch=1 n=a5 v=109
210845 On ch=1 n=f#3 v=117
210849 On ch=1 n=f#2 v=118
211227 Par ch=1 c=64 v=127
211295 On ch=1 n=f#2 v=0
211303 On ch=1 n=f#3 v=0
211351 On ch=1 n=d6 v=0
211455 On ch=1 n=a5 v=0
211519 On ch=1 n=d5 v=0
211707 On ch=1 n=a5 v=95
211710 On ch=1 n=d5 v=90
211759 On ch=1 n=d5 v=0
211823 On ch=1 n=a5 v=0
211877 On ch=1 n=b5 v=109
211877 On ch=1 n=g5 v=100
211877 On ch=1 n=g3 v=113
211880 On ch=1 n=d5 v=102
211880 On ch=1 n=g2 v=115
211887 Par ch=1 c=64 v=0
211913 On ch=1 n=g2 v=0
211941 On ch=1 n=g3 v=0
211946 On ch=1 n=g5 v=0
211956 On ch=1 n=d5 v=0
212002 On ch=1 n=b5 v=0
212034 On ch=1 n=b3 v=106
212037 On ch=1 n=b2 v=112
212102 On ch=1 n=b2 v=0
212144 On ch=1 n=b3 v=0
212178 On ch=1 n=g5 v=97
212182 On ch=1 n=d5 v=90
212234 On ch=1 n=d5 v=0
212266 On ch=1 n=g5 v=0
212332 On ch=1 n=d4 v=100
212336 On ch=1 n=a5 v=90
212340 On ch=1 n=f#5 v=77
212342 On ch=1 n=d5 v=86
212344 On ch=1 n=d3 v=74
212378 On ch=1 n=d4 v=0
212384 On ch=1 n=d3 v=0
212416 On ch=1 n=d5 v=0
212448 On ch=1 n=f#5 v=0
212450 On ch=1 n=a5 v=0
212494 On ch=1 n=f#4 v=109
212504 On ch=1 n=f#3 v=93
212580 On ch=1 n=f#4 v=0
212583 On ch=1 n=f#3 v=0
212648 On ch=1 n=d5 v=90
212714 On ch=1 n=d5 v=0
212794 On ch=1 n=g4 v=115
212798 On ch=1 n=g3 v=105
212798 On ch=1 n=g5 v=97
212800 On ch=1 n=b5 v=105
212803 On ch=1 n=d5 v=92
212830 On ch=1 n=g3 v=0
212846 On ch=1 n=g4 v=0
212888 On ch=1 n=d5 v=0
212918 On ch=1 n=g5 v=0
212928 On ch=1 n=b5 v=0
212944 On ch=1 n=b4 v=105
212950 On ch=1 n=b3 v=97
213048 On ch=1 n=b3 v=0
213060 On ch=1 n=b4 v=0
213094 On ch=1 n=g5 v=103
213102 On ch=1 n=d5 v=97
213144 On ch=1 n=d5 v=0
213206 On ch=1 n=g5 v=0
213232 On ch=1 n=d5 v=98
213234 On ch=1 n=d4 v=118
213242 On ch=1 n=a5 v=102
213250 On ch=1 n=f#5 v=87
213282 On ch=1 n=d4 v=0
213336 On ch=1 n=d5 v=0
213390 On ch=1 n=f#5 v=0
213414 On ch=1 n=d3 v=120
213414 On ch=1 n=d4 v=118
213432 On ch=1 n=a5 v=0
213442 On ch=1 n=d3 v=0
213460 On ch=1 n=d4 v=0
213546 On ch=1 n=d5 v=108
213652 On ch=1 n=d5 v=0
213698 On ch=1 n=g5 v=105
213698 On ch=1 n=g4 v=111
213701 On ch=1 n=g3 v=116
213701 On ch=1 n=b5 v=115
213701 On ch=1 n=d5 v=120
213732 On ch=1 n=g4 v=0
213738 On ch=1 n=d5 v=0
213790 Par ch=1 c=64 v=127
213798 On ch=1 n=g5 v=0
213801 On ch=1 n=b5 v=0
213806 On ch=1 n=g3 v=0
213860 On ch=1 n=g3 v=111
213866 On ch=1 n=g2 v=120
213900 On ch=1 n=g2 v=0
213902 On ch=1 n=g3 v=0
214004 On ch=1 n=g5 v=105
214004 Par ch=1 c=64 v=0
214132 On ch=1 n=g5 v=0
214196 On ch=1 n=d#6 v=110
214200 On ch=1 n=g5 v=115
214200 On ch=1 n=g6 v=126
214204 On ch=1 n=c3 v=127
214204 On ch=1 n=c6 v=112
214204 On ch=1 n=c2 v=126
214276 On ch=1 n=c3 v=0
214298 On ch=1 n=c2 v=0
214342 Par ch=1 c=64 v=127
214374 On ch=1 n=g6 v=0
214406 On ch=1 n=c6 v=0
214418 On ch=1 n=d#6 v=0
214428 On ch=1 n=g5 v=0
214528 Par ch=1 c=64 v=0
214796 On ch=1 n=f#6 v=116
214801 On ch=1 n=f#5 v=111
214801 On ch=1 n=a5 v=93
214801 On ch=1 n=d6 v=109
214808 On ch=1 n=d2 v=124
214810 On ch=1 n=d3 v=119
215034 Par ch=1 c=64 v=127
215242 On ch=1 n=d2 v=0
215270 On ch=1 n=f#6 v=0
215274 On ch=1 n=d6 v=0
215290 On ch=1 n=a5 v=0
215344 On ch=1 n=d3 v=0
215360 On ch=1 n=f#5 v=0
215604 On ch=1 n=d6 v=104
215606 On ch=1 n=d5 v=100
215612 On ch=1 n=a5 v=73
215652 On ch=1 n=d5 v=0
215664 On ch=1 n=d6 v=0
215676 On ch=1 n=a5 v=0
215762 On ch=1 n=g3 v=106
215764 On ch=1 n=g2 v=112
215766 On ch=1 n=a#5 v=92
215770 On ch=1 n=d5 v=90
215772 Par ch=1 c=64 v=0
215774 On ch=1 n=g5 v=82
215796 On ch=1 n=g2 v=0
215812 On ch=1 n=g3 v=0
215834 On ch=1 n=g5 v=0
215840 On ch=1 n=d5 v=0
215882 On ch=1 n=a#5 v=0
215912 On ch=1 n=a#3 v=92
215924 On ch=1 n=a#2 v=96
216018 On ch=1 n=a#3 v=0
216034 On ch=1 n=a#2 v=0
216072 On ch=1 n=g5 v=96
216072 On ch=1 n=d5 v=89
216124 On ch=1 n=d5 v=0
216142 On ch=1 n=g5 v=0
216218 On ch=1 n=d4 v=106
216218 On ch=1 n=d3 v=102
216221 On ch=1 n=f#5 v=87
216228 On ch=1 n=d5 v=78
216250 On ch=1 n=d3 v=0
216255 On ch=1 n=d4 v=0
216286 On ch=1 n=d5 v=0
216350 On ch=1 n=f#5 v=0
216372 On ch=1 n=f#4 v=111
216378 On ch=1 n=f#3 v=95
216438 On ch=1 n=f#4 v=0
216452 On ch=1 n=f#3 v=0
216506 On ch=1 n=d6 v=103
216508 On ch=1 n=a5 v=88
216512 On ch=1 n=d5 v=100
216570 On ch=1 n=d5 v=0
216596 On ch=1 n=d6 v=0
216622 On ch=1 n=a5 v=0
216656 On ch=1 n=g3 v=110
216658 On ch=1 n=g4 v=111
216660 On ch=1 n=d5 v=95
216664 On ch=1 n=a#5 v=93
216666 On ch=1 n=g5 v=93
216694 On ch=1 n=g3 v=0
216697 On ch=1 n=g4 v=0
216722 On ch=1 n=g5 v=0
216762 On ch=1 n=d5 v=0
216786 On ch=1 n=a#5 v=0
216800 Par ch=1 c=64 v=127
216816 On ch=1 n=a#4 v=101
216819 On ch=1 n=a#3 v=102
216894 Par ch=1 c=64 v=0
216900 On ch=1 n=a#3 v=0
216918 On ch=1 n=a#4 v=0
216940 On ch=1 n=g5 v=103
216952 On ch=1 n=d5 v=87
216998 On ch=1 n=d5 v=0
217056 On ch=1 n=g5 v=0
217098 On ch=1 n=f#5 v=95
217112 On ch=1 n=d4 v=101
217112 On ch=1 n=d5 v=93
217150 On ch=1 n=d4 v=0
217164 On ch=1 n=d5 v=0
217200 Par ch=1 c=64 v=127
217246 On ch=1 n=f#5 v=0
217276 On ch=1 n=d3 v=120
217290 On ch=1 n=d4 v=100
217306 On ch=1 n=d3 v=0
217330 On ch=1 n=d4 v=0
217340 Par ch=1 c=64 v=0
217386 On ch=1 n=d6 v=108
217390 On ch=1 n=d5 v=100
217390 On ch=1 n=a5 v=82
217470 On ch=1 n=d5 v=0
217473 On ch=1 n=d6 v=0
217518 On ch=1 n=a5 v=0
217544 On ch=1 n=d5 v=109
217552 On ch=1 n=g4 v=115
217554 On ch=1 n=a#5 v=93
217556 On ch=1 n=g5 v=98
217568 On ch=1 n=g3 v=86
217588 On ch=1 n=g4 v=0
217596 On ch=1 n=a#5 v=0
217598 On ch=1 n=g5 v=0
217626 On ch=1 n=g3 v=0
217630 On ch=1 n=d5 v=0
217630 Par ch=1 c=64 v=127
217734 On ch=1 n=g3 v=98
217739 On ch=1 n=g2 v=105
217772 On ch=1 n=g3 v=0
217774 On ch=1 n=g2 v=0
217872 On ch=1 n=a#4 v=90
217872 On ch=1 n=g5 v=102
217886 On ch=1 n=d5 v=101
217962 On ch=1 n=g5 v=0
217984 Par ch=1 c=64 v=0
218000 On ch=1 n=a#4 v=0
218024 On ch=1 n=d5 v=0
218072 On ch=1 n=a4 v=116
218075 On ch=1 n=a3 v=109
218084 On ch=1 n=f5 v=108
218084 On ch=1 n=d5 v=108
218086 On ch=1 n=f4 v=127
218158 On ch=1 n=a4 v=0
218164 On ch=1 n=a3 v=0
218214 Par ch=1 c=64 v=127
218320 On ch=1 n=a3 v=69
218330 On ch=1 n=a2 v=78
218372 On ch=1 n=a3 v=0
218374 On ch=1 n=a2 v=0
218416 On ch=1 n=f4 v=0
218416 On ch=1 n=d5 v=0
218446 On ch=1 n=f5 v=0
218706 Par ch=1 c=64 v=0
218712 On ch=1 n=d#5 v=112
218714 On ch=1 n=g4 v=120
218714 On ch=1 n=c5 v=101
218714 On ch=1 n=d#4 v=120
218720 On ch=1 n=g3 v=110
218720 On ch=1 n=a4 v=90
218826 On ch=1 n=g4 v=0
218866 On ch=1 n=g3 v=0
218906 Par ch=1 c=64 v=127
218980 On ch=1 n=g2 v=104
218982 On ch=1 n=g3 v=79
219014 On ch=1 n=g2 v=0
219024 On ch=1 n=g3 v=0
219206 On ch=1 n=a4 v=0
219210 On ch=1 n=d#4 v=0
219226 On ch=1 n=c5 v=0
219328 On ch=1 n=d#5 v=0
219570 On ch=1 n=f#4 v=118
219576 On ch=1 n=d4 v=123
219576 On ch=1 n=f#3 v=108
219578 On ch=1 n=d5 v=117
219578 On ch=1 n=c5 v=106
219582 On ch=1 n=a4 v=95
219598 Par ch=1 c=64 v=0
219798 On ch=1 n=f#4 v=0
219828 Par ch=1 c=64 v=127
219856 On ch=1 n=f#3 v=0
219970 On ch=1 n=f#3 v=97
219974 On ch=1 n=f#2 v=108
220672 On ch=1 n=f#3 v=0
220746 On ch=1 n=f#2 v=0
220764 On ch=1 n=d4 v=0
221044 On ch=1 n=a4 v=0
221120 On ch=1 n=d5 v=0
221162 On ch=1 n=c5 v=0
222174 On ch=1 n=d7 v=78
222202 On ch=1 n=d6 v=46
222226 Par ch=1 c=64 v=0
222470 Par ch=1 c=64 v=127
222496 On ch=1 n=d6 v=0
222658 On ch=1 n=d#7 v=74
222658 On ch=1 n=d#6 v=41
222718 On ch=1 n=d7 v=0
222892 On ch=1 n=d#6 v=0
222900 On ch=1 n=d#7 v=0
222940 On ch=1 n=d7 v=83
222954 On ch=1 n=d6 v=60
223022 On ch=1 n=d6 v=0
223200 On ch=1 n=c#7 v=71
223202 On ch=1 n=g3 v=35
223202 On ch=1 n=c#6 v=43
223254 Par ch=1 c=64 v=0
223258 On ch=1 n=d7 v=0
223434 On ch=1 n=d#4 v=39
223516 Par ch=1 c=64 v=127
223554 On ch=1 n=g3 v=0
223642 On ch=1 n=d#4 v=0
223674 On ch=1 n=g4 v=41
223792 On ch=1 n=g4 v=0
223918 On ch=1 n=a#4 v=14
224074 On ch=1 n=a#4 v=0
224130 On ch=1 n=d#5 v=34
224138 On ch=1 n=g6 v=69
224284 On ch=1 n=d#5 v=0
224338 On ch=1 n=g4 v=42
224348 On ch=1 n=a6 v=77
224396 On ch=1 n=c#7 v=0
224434 On ch=1 n=g4 v=0
224488 On ch=1 n=g6 v=0
224528 On ch=1 n=a#6 v=74
224536 On ch=1 n=e5 v=58
224618 On ch=1 n=a6 v=0
224722 On ch=1 n=c7 v=101
224750 On ch=1 n=g4 v=41
224780 On ch=1 n=a#6 v=0
224794 On ch=1 n=e5 v=0
224866 On ch=1 n=g4 v=0
224916 On ch=1 n=a#6 v=93
224956 On ch=1 n=c7 v=0
225024 On ch=1 n=c#6 v=0
225148 On ch=1 n=d7 v=105
225150 On ch=1 n=f#3 v=55
225156 On ch=1 n=a6 v=67
225166 On ch=1 n=d6 v=77
225176 Par ch=1 c=64 v=0
225196 On ch=1 n=a#6 v=0
225324 On ch=1 n=d6 v=0
225358 Par ch=1 c=64 v=127
225422 On ch=1 n=f#3 v=0
225422 On ch=1 n=f#4 v=37
225425 On ch=1 n=d#7 v=92
225430 On ch=1 n=d#6 v=79
225478 On ch=1 n=d7 v=0
225490 On ch=1 n=f#4 v=0
225538 On ch=1 n=d#6 v=0
225588 On ch=1 n=d#7 v=0
225610 On ch=1 n=a6 v=0
225638 On ch=1 n=d7 v=92
225646 On ch=1 n=d6 v=83
225702 On ch=1 n=a4 v=14
225738 On ch=1 n=d6 v=0
225828 On ch=1 n=a4 v=0
225922 On ch=1 n=g3 v=39
225950 On ch=1 n=c#7 v=79
225953 On ch=1 n=c#6 v=59
226004 On ch=1 n=d7 v=0
226050 Par ch=1 c=64 v=0
226190 On ch=1 n=d#4 v=48
226282 On ch=1 n=g3 v=0
226282 Par ch=1 c=64 v=127
226360 On ch=1 n=d#4 v=0
226406 On ch=1 n=g4 v=48
226478 On ch=1 n=g4 v=0
226618 On ch=1 n=a#4 v=33
226796 On ch=1 n=a#4 v=0
226844 On ch=1 n=g6 v=58
226846 On ch=1 n=d#5 v=46
227010 On ch=1 n=c#7 v=0
227020 On ch=1 n=d#5 v=0
227029 On ch=1 n=a6 v=72
227045 On ch=1 n=g4 v=56
227129 On ch=1 n=g4 v=0
227129 On ch=1 n=g6 v=0
227219 On ch=1 n=a#6 v=69
227233 On ch=1 n=e5 v=65
227283 On ch=1 n=a6 v=0
227405 On ch=1 n=c7 v=96
227421 On ch=1 n=g4 v=57
227447 On ch=1 n=e5 v=0
227453 On ch=1 n=a#6 v=0
227603 On ch=1 n=e4 v=80
227603 On ch=1 n=a#6 v=90
227609 On ch=1 n=g4 v=0
227637 On ch=1 n=c7 v=0
227643 On ch=1 n=e4 v=0
227677 On ch=1 n=c#6 v=0
227795 On ch=1 n=f3 v=66
227813 On ch=1 n=d7 v=105
227813 Par ch=1 c=64 v=0
227823 On ch=1 n=d6 v=86
227825 On ch=1 n=a6 v=65
227867 On ch=1 n=a#6 v=0
227969 Par ch=1 c=64 v=127
227983 On ch=1 n=d6 v=0
228017 On ch=1 n=a6 v=0
228035 On ch=1 n=f3 v=0
228081 On ch=1 n=d#7 v=98
228083 On ch=1 n=d#6 v=92
228095 On ch=1 n=f4 v=77
228143 On ch=1 n=d7 v=0
228173 On ch=1 n=f4 v=0
228203 On ch=1 n=d#6 v=0
228245 On ch=1 n=d#7 v=0
228283 On ch=1 n=a4 v=42
228297 On ch=1 n=d7 v=106
228303 On ch=1 n=d6 v=97
228345 On ch=1 n=a4 v=0
228401 On ch=1 n=d6 v=0
228423 On ch=1 n=d7 v=0
228477 On ch=1 n=d#3 v=63
228511 On ch=1 n=c7 v=108
228515 On ch=1 n=c6 v=87
228537 Par ch=1 c=64 v=0
228673 On ch=1 n=d#4 v=65
228675 On ch=1 n=d#3 v=0
228707 Par ch=1 c=64 v=127
228723 On ch=1 n=d#4 v=0
228859 On ch=1 n=g4 v=64
228955 On ch=1 n=g4 v=0
229097 On ch=1 n=c5 v=58
229233 On ch=1 n=c5 v=0
229283 On ch=1 n=f#6 v=72
229299 On ch=1 n=d#5 v=52
229471 On ch=1 n=d#5 v=0
229481 On ch=1 n=g6 v=98
229499 On ch=1 n=c5 v=57
229517 On ch=1 n=c7 v=0
229589 On ch=1 n=f#6 v=0
229619 On ch=1 n=c5 v=0
229653 On ch=1 n=f#4 v=71
229669 On ch=1 n=a6 v=89
229725 On ch=1 n=g6 v=0
229761 On ch=1 n=f#4 v=0
229841 On ch=1 n=a#6 v=89
229851 On ch=1 n=c5 v=60
229859 On ch=1 n=a6 v=0
229945 On ch=1 n=c5 v=0
229981 On ch=1 n=a#6 v=0
229983 On ch=1 n=c6 v=0
230007 On ch=1 n=a6 v=97
230015 On ch=1 n=f#4 v=80
230057 On ch=1 n=f#4 v=0
230197 On ch=1 n=g6 v=100
230197 On ch=1 n=d3 v=67
230205 On ch=1 n=a#5 v=73
230211 Par ch=1 c=64 v=0
230219 On ch=1 n=a6 v=0
230339 On ch=1 n=d3 v=0
230365 Par ch=1 c=64 v=127
230377 On ch=1 n=d4 v=65
230379 On ch=1 n=g6 v=0
230389 On ch=1 n=a6 v=85
230421 On ch=1 n=a#5 v=0
230445 On ch=1 n=d4 v=0
230539 On ch=1 n=g4 v=72
230555 On ch=1 n=g6 v=109
230583 On ch=1 n=g4 v=0
230605 On ch=1 n=a6 v=0
230723 On ch=1 n=c3 v=80
230726 On ch=1 n=a5 v=65
230726 On ch=1 n=f6 v=101
230735 Par ch=1 c=64 v=0
230763 On ch=1 n=g6 v=0
230871 On ch=1 n=c3 v=0
230885 On ch=1 n=c4 v=63
230903 Par ch=1 c=64 v=127
230905 On ch=1 n=g6 v=105
230925 On ch=1 n=f6 v=0
230931 On ch=1 n=c4 v=0
230951 On ch=1 n=a5 v=0
231041 On ch=1 n=a4 v=62
231053 On ch=1 n=d#6 v=87
231056 On ch=1 n=g6 v=0
231056 On ch=1 n=g5 v=83
231093 On ch=1 n=a4 v=0
231117 On ch=1 n=g5 v=0
231211 On ch=1 n=d#6 v=0
231233 On ch=1 n=d3 v=62
231243 On ch=1 n=f#5 v=83
231243 On ch=1 n=d6 v=97
231257 Par ch=1 c=64 v=0
231393 On ch=1 n=d3 v=0
231409 On ch=1 n=d4 v=72
231417 On ch=1 n=d#6 v=89
231425 Par ch=1 c=64 v=127
231447 On ch=1 n=f#5 v=0
231451 On ch=1 n=d6 v=0
231463 On ch=1 n=d4 v=0
231577 On ch=1 n=a4 v=56
231580 On ch=1 n=d6 v=92
231639 On ch=1 n=a4 v=0
231641 On ch=1 n=d#6 v=0
231691 On ch=1 n=d4 v=31
231759 On ch=1 n=d5 v=56
231795 Par ch=1 c=64 v=0
231795 On ch=1 n=a6 v=89
231801 On ch=1 n=c6 v=65
231803 On ch=1 n=d6 v=0
231951 On ch=1 n=d5 v=0
231979 Par ch=1 c=64 v=127
232013 On ch=1 n=a4 v=41
232095 On ch=1 n=d4 v=0
232109 On ch=1 n=a4 v=0
232137 On ch=1 n=c6 v=0
232167 On ch=1 n=f#4 v=49
232229 On ch=1 n=f#4 v=0
232363 On ch=1 n=a#5 v=69
232369 On ch=1 n=g6 v=90
232385 On ch=1 n=a6 v=0
232407 On ch=1 n=d3 v=41
232543 On ch=1 n=d3 v=0
232551 On ch=1 n=d4 v=75
232571 On ch=1 n=g6 v=0
232577 On ch=1 n=a6 v=87
232615 On ch=1 n=d4 v=0
232713 On ch=1 n=g4 v=71
232731 On ch=1 n=g6 v=101
232759 On ch=1 n=g4 v=0
232771 On ch=1 n=a6 v=0
232807 On ch=1 n=a#5 v=0
232895 On ch=1 n=c3 v=89
232899 On ch=1 n=f6 v=97
232903 On ch=1 n=a5 v=75
232917 Par ch=1 c=64 v=0
232925 On ch=1 n=g6 v=0
233055 On ch=1 n=c3 v=0
233055 On ch=1 n=c4 v=67
233075 On ch=1 n=g6 v=103
233085 Par ch=1 c=64 v=127
233087 On ch=1 n=f6 v=0
233105 On ch=1 n=c4 v=0
233127 On ch=1 n=a5 v=0
233205 On ch=1 n=g6 v=0
233205 On ch=1 n=a4 v=73
233221 On ch=1 n=d#6 v=95
233227 On ch=1 n=g5 v=92
233249 On ch=1 n=a4 v=0
233279 On ch=1 n=g5 v=0
233377 Par ch=1 c=64 v=0
233379 On ch=1 n=d#6 v=0
233383 On ch=1 n=d3 v=90
233393 On ch=1 n=d6 v=101
233401 On ch=1 n=f#5 v=82
233535 On ch=1 n=d3 v=0
233539 On ch=1 n=d4 v=79
233545 Par ch=1 c=64 v=127
233559 On ch=1 n=f#5 v=0
233564 On ch=1 n=d#6 v=89
233593 On ch=1 n=d6 v=0
233615 On ch=1 n=d4 v=0
233697 On ch=1 n=d6 v=92
233705 On ch=1 n=a4 v=80
233771 On ch=1 n=d#6 v=0
233821 On ch=1 n=a4 v=0
233824 On ch=1 n=d4 v=40
233877 On ch=1 n=d5 v=96
233879 On ch=1 n=c6 v=93
233879 On ch=1 n=a6 v=109
233891 On ch=1 n=d6 v=0
234015 On ch=1 n=d5 v=0
234069 On ch=1 n=a4 v=70
234119 On ch=1 n=d4 v=0
234141 On ch=1 n=c6 v=0
234149 On ch=1 n=a6 v=0
234205 On ch=1 n=f#4 v=89
234213 On ch=1 n=a4 v=0
234243 On ch=1 n=f#4 v=0
234397 On ch=1 n=d6 v=109
234399 On ch=1 n=d3 v=97
234401 On ch=1 n=f#5 v=94
234437 Par ch=1 c=64 v=0
234523 On ch=1 n=f#5 v=0
234569 On ch=1 n=d4 v=93
234575 On ch=1 n=d3 v=0
234593 On ch=1 n=d#6 v=96
234607 Par ch=1 c=64 v=127
234629 On ch=1 n=d4 v=0
234649 On ch=1 n=d6 v=0
234729 On ch=1 n=a4 v=82
234733 On ch=1 n=d6 v=89
234859 On ch=1 n=d#6 v=0
234897 On ch=1 n=a#6 v=104
234897 On ch=1 n=c#6 v=95
234905 On ch=1 n=e5 v=102
234913 Par ch=1 c=64 v=0
234918 On ch=1 n=d6 v=0
234997 On ch=1 n=a4 v=0
235071 On ch=1 n=a#4 v=73
235083 Par ch=1 c=64 v=127
235107 On ch=1 n=e5 v=0
235155 On ch=1 n=a#6 v=0
235223 On ch=1 n=g4 v=92
235241 On ch=1 n=a#4 v=0
235261 On ch=1 n=g4 v=0
235375 On ch=1 n=c#6 v=0
235397 On ch=1 n=d3 v=111
235397 On ch=1 n=d6 v=112
235405 On ch=1 n=f#5 v=90
235405 Par ch=1 c=64 v=0
235531 On ch=1 n=d4 v=103
235545 On ch=1 n=d3 v=0
235555 On ch=1 n=f#5 v=0
235575 On ch=1 n=d#6 v=95
235575 Par ch=1 c=64 v=127
235583 On ch=1 n=d4 v=0
235619 On ch=1 n=d6 v=0
235685 On ch=1 n=d#6 v=0
235701 On ch=1 n=a4 v=94
235713 On ch=1 n=d6 v=92
235843 On ch=1 n=d6 v=0
235879 On ch=1 n=c#7 v=117
235881 Par ch=1 c=64 v=0
235887 On ch=1 n=e6 v=97
235895 On ch=1 n=e5 v=109
235955 On ch=1 n=a4 v=0
236051 Par ch=1 c=64 v=127
236069 On ch=1 n=a#4 v=74
236097 On ch=1 n=e5 v=0
236131 On ch=1 n=c#7 v=0
236159 On ch=1 n=e6 v=0
236227 On ch=1 n=a#4 v=0
236241 On ch=1 n=g4 v=92
236283 On ch=1 n=g4 v=0
236443 On ch=1 n=d6 v=116
236446 On ch=1 n=d3 v=108
236446 On ch=1 n=f#5 v=83
236465 Par ch=1 c=64 v=0
236571 On ch=1 n=f#5 v=0
236635 Par ch=1 c=64 v=127
236638 On ch=1 n=d4 v=101
236641 On ch=1 n=d3 v=0
236653 On ch=1 n=d#6 v=101
236679 On ch=1 n=d4 v=0
236705 On ch=1 n=d6 v=0
236737 On ch=1 n=d#6 v=0
236835 On ch=1 n=d6 v=112
236838 On ch=1 n=a4 v=86
237065 Par ch=1 c=64 v=0
237073 On ch=1 n=d7 v=119
237077 On ch=1 n=a5 v=83
237081 On ch=1 n=f#6 v=86
237085 On ch=1 n=a6 v=96
237171 On ch=1 n=a4 v=0
237295 Par ch=1 c=64 v=127
237327 On ch=1 n=f#5 v=67
237331 On ch=1 n=a5 v=0
237455 On ch=1 n=f#5 v=0
237511 On ch=1 n=d5 v=67
237557 On ch=1 n=d5 v=0
237675 On ch=1 n=a4 v=54
237823 On ch=1 n=f#4 v=74
237829 On ch=1 n=a4 v=0
237925 On ch=1 n=f#4 v=0
237991 On ch=1 n=d4 v=69
238039 On ch=1 n=d4 v=0
238085 On ch=1 n=d7 v=0
238155 On ch=1 n=a3 v=67
238169 On ch=1 n=d6 v=0
238205 On ch=1 n=a6 v=0
238211 On ch=1 n=f#6 v=0
238287 On ch=1 n=a3 v=0
238317 On ch=1 n=f#3 v=59
238499 On ch=1 n=c#3 v=69
238502 On ch=1 n=f#3 v=0
238693 Par ch=1 c=64 v=0
238707 On ch=1 n=d3 v=64
238713 On ch=1 n=c#3 v=0
238719 On ch=1 n=d4 v=51
238893 On ch=1 n=d3 v=0
238895 On ch=1 n=d#3 v=56
238913 On ch=1 n=d4 v=0
238923 On ch=1 n=d#4 v=44
238985 Par ch=1 c=64 v=127
239069 On ch=1 n=d#3 v=0
239091 On ch=1 n=d4 v=57
239097 On ch=1 n=d3 v=69
239163 On ch=1 n=d4 v=0
239165 On ch=1 n=d#4 v=0
239199 On ch=1 n=d3 v=0
239293 Par ch=1 c=64 v=0
239325 On ch=1 n=g4 v=56
239325 On ch=1 n=g2 v=66
239328 On ch=1 n=g3 v=58
239337 On ch=1 n=d4 v=58
239443 On ch=1 n=d4 v=0
239551 On ch=1 n=d#4 v=42
239591 On ch=1 n=g4 v=0
239599 Par ch=1 c=64 v=127
239615 On ch=1 n=g2 v=0
239635 On ch=1 n=g3 v=0
239695 On ch=1 n=d4 v=54
239733 On ch=1 n=d#4 v=0
239753 On ch=1 n=d4 v=0
239877 Par ch=1 c=64 v=0
239885 On ch=1 n=a#2 v=49
239887 On ch=1 n=a#3 v=39
239899 On ch=1 n=d4 v=34
239901 On ch=1 n=g4 v=52
239999 On ch=1 n=d4 v=0
240087 On ch=1 n=d#4 v=40
240133 On ch=1 n=g4 v=0
240169 Par ch=1 c=64 v=127
240233 On ch=1 n=d4 v=57
240245 On ch=1 n=a#2 v=0
240281 On ch=1 n=a#3 v=0
240295 On ch=1 n=d4 v=0
240298 On ch=1 n=d#4 v=0
240383 Par ch=1 c=64 v=0
240413 On ch=1 n=c3 v=50
240419 On ch=1 n=c4 v=34
240449 On ch=1 n=g4 v=40
240489 On ch=1 n=d4 v=3
240599 On ch=1 n=d4 v=0
240617 On ch=1 n=d#4 v=40
240681 On ch=1 n=c4 v=0
240691 Par ch=1 c=64 v=127
240695 On ch=1 n=g4 v=0
240791 On ch=1 n=d4 v=43
240799 On ch=1 n=d#4 v=0
240829 On ch=1 n=c3 v=0
240849 On ch=1 n=d4 v=0
240931 On ch=1 n=d4 v=52
240955 On ch=1 n=d3 v=58
240967 Par ch=1 c=64 v=0
241095 On ch=1 n=d4 v=0
241107 On ch=1 n=d#4 v=64
241111 On ch=1 n=d3 v=0
241113 On ch=1 n=d#3 v=71
241151 Par ch=1 c=64 v=127
241269 On ch=1 n=d#3 v=0
241273 On ch=1 n=d4 v=73
241277 On ch=1 n=d3 v=75
241331 On ch=1 n=d3 v=0
241341 On ch=1 n=d4 v=0
241347 On ch=1 n=d#4 v=0
241429 Par ch=1 c=64 v=0
241457 On ch=1 n=g3 v=67
241459 On ch=1 n=d4 v=50
241461 On ch=1 n=g2 v=79
241477 On ch=1 n=g4 v=58
241621 On ch=1 n=d4 v=0
241651 On ch=1 n=d#4 v=47
241727 On ch=1 n=g4 v=0
241737 On ch=1 n=g2 v=0
241737 Par ch=1 c=64 v=127
241751 On ch=1 n=g3 v=0
241801 On ch=1 n=d4 v=58
241855 On ch=1 n=d#4 v=0
241867 On ch=1 n=d4 v=0
241983 On ch=1 n=a#3 v=52
241995 On ch=1 n=a#2 v=52
242005 On ch=1 n=d4 v=41
242027 Par ch=1 c=64 v=0
242029 On ch=1 n=g4 v=52
242143 On ch=1 n=d4 v=0
242187 On ch=1 n=d#4 v=47
242227 On ch=1 n=g4 v=0
242259 Par ch=1 c=64 v=127
242313 On ch=1 n=a#2 v=0
242341 On ch=1 n=d4 v=54
242369 On ch=1 n=a#3 v=0
242403 On ch=1 n=d4 v=0
242409 On ch=1 n=d#4 v=0
242503 Par ch=1 c=64 v=0
242505 On ch=1 n=d4 v=34
242525 On ch=1 n=c3 v=42
242528 On ch=1 n=c4 v=34
242537 On ch=1 n=g4 v=43
242683 On ch=1 n=d4 v=0
242701 On ch=1 n=d#4 v=46
242795 Par ch=1 c=64 v=127
242809 On ch=1 n=g4 v=0
242821 On ch=1 n=c4 v=0
242871 On ch=1 n=d4 v=47
242929 On ch=1 n=d4 v=0
242937 On ch=1 n=c3 v=0
242949 On ch=1 n=d#4 v=0
243011 On ch=1 n=d4 v=50
243027 On ch=1 n=d3 v=56
243057 Par ch=1 c=64 v=0
243183 On ch=1 n=d3 v=0
243189 On ch=1 n=d4 v=0
243195 On ch=1 n=d#3 v=66
243197 On ch=1 n=d#4 v=64
243225 Par ch=1 c=64 v=127
243345 On ch=1 n=d4 v=80
243345 On ch=1 n=d3 v=77
243351 On ch=1 n=d#4 v=0
243359 On ch=1 n=d#3 v=0
243411 On ch=1 n=d4 v=0
243449 On ch=1 n=d3 v=0
243515 On ch=1 n=a#4 v=64
243519 On ch=1 n=d4 v=55
243531 On ch=1 n=g4 v=66
243534 On ch=1 n=g2 v=93
243537 On ch=1 n=g3 v=73
243565 Par ch=1 c=64 v=0
243717 On ch=1 n=d#4 v=73
243747 On ch=1 n=d4 v=0
243793 On ch=1 n=g2 v=0
243793 Par ch=1 c=64 v=127
243819 On ch=1 n=g3 v=0
243853 On ch=1 n=g4 v=0
243905 On ch=1 n=d4 v=75
243939 On ch=1 n=a2 v=100
243941 On ch=1 n=d#4 v=0
243941 On ch=1 n=a3 v=94
243957 On ch=1 n=a#4 v=0
243977 On ch=1 n=d4 v=0
243983 On ch=1 n=a3 v=0
244055 On ch=1 n=a2 v=0
244083 On ch=1 n=a#4 v=73
244089 On ch=1 n=d4 v=70
244093 On ch=1 n=g4 v=79
244101 On ch=1 n=a#3 v=86
244113 On ch=1 n=a#2 v=78
244149 Par ch=1 c=64 v=0
244269 On ch=1 n=d#4 v=78
244293 On ch=1 n=d4 v=0
244359 On ch=1 n=a#3 v=0
244363 Par ch=1 c=64 v=127
244365 On ch=1 n=g4 v=0
244399 On ch=1 n=a#2 v=0
244441 On ch=1 n=d4 v=77
244451 On ch=1 n=g3 v=97
244455 On ch=1 n=a#4 v=0
244457 On ch=1 n=g2 v=102
244489 On ch=1 n=d#4 v=0
244495 On ch=1 n=d4 v=0
244501 On ch=1 n=g2 v=0
244561 On ch=1 n=g3 v=0
244591 On ch=1 n=a#4 v=73
244594 On ch=1 n=d4 v=57
244609 On ch=1 n=g4 v=58
244611 Par ch=1 c=64 v=0
244639 On ch=1 n=d#3 v=81
244731 On ch=1 n=d4 v=0
244805 On ch=1 n=d#4 v=62
244885 Par ch=1 c=64 v=127
244955 On ch=1 n=d4 v=70
244981 On ch=1 n=d#4 v=0
244989 On ch=1 n=a#4 v=0
245009 On ch=1 n=d4 v=0
245047 On ch=1 n=g4 v=0
245127 On ch=1 n=a4 v=80
245132 On ch=1 n=d4 v=35
245149 On ch=1 n=c4 v=56
245159 On ch=1 n=c3 v=83
245177 Par ch=1 c=64 v=0
245181 On ch=1 n=d#3 v=0
245285 On ch=1 n=d4 v=0
245331 Par ch=1 c=64 v=127
245339 On ch=1 n=c4 v=0
245347 On ch=1 n=d#4 v=46
245357 On ch=1 n=a4 v=0
245463 On ch=1 n=c3 v=0
245507 On ch=1 n=d4 v=70
245517 On ch=1 n=a2 v=74
245563 On ch=1 n=d4 v=0
245579 On ch=1 n=d#4 v=0
245589 On ch=1 n=a2 v=0
245645 On ch=1 n=d4 v=71
245645 On ch=1 n=a#3 v=77
245653 On ch=1 n=g4 v=83
245659 On ch=1 n=d3 v=73
245669 Par ch=1 c=64 v=0
245825 On ch=1 n=d#4 v=73
245839 On ch=1 n=d4 v=0
245877 On ch=1 n=d3 v=0
245877 On ch=1 n=a#3 v=0
245899 Par ch=1 c=64 v=127
245973 On ch=1 n=d4 v=85
246007 On ch=1 n=d#4 v=0
246029 On ch=1 n=d4 v=0
246073 On ch=1 n=g4 v=0
246139 On ch=1 n=a3 v=71
246141 On ch=1 n=f#4 v=97
246149 On ch=1 n=d3 v=67
246149 On ch=1 n=d4 v=71
246175 Par ch=1 c=64 v=0
246277 On ch=1 n=d4 v=0
246297 On ch=1 n=d#4 v=86
246373 On ch=1 n=a3 v=0
246375 On ch=1 n=d3 v=0
246375 Par ch=1 c=64 v=127
246377 On ch=1 n=f#4 v=0
246441 On ch=1 n=d4 v=94
246469 On ch=1 n=d#4 v=0
246477 On ch=1 n=d4 v=0
246655 On ch=1 n=d4 v=69
246661 On ch=1 n=g5 v=97
246671 On ch=1 n=d3 v=54
246671 On ch=1 n=d5 v=82
246673 On ch=1 n=a#3 v=52
246677 On ch=1 n=g4 v=82
246715 Par ch=1 c=64 v=0
246811 On ch=1 n=d5 v=0
246837 On ch=1 n=d#5 v=86
246899 On ch=1 n=d4 v=0
246899 On ch=1 n=g4 v=0
246899 Par ch=1 c=64 v=127
246915 On ch=1 n=d3 v=0
246961 On ch=1 n=d5 v=85
246967 On ch=1 n=a#3 v=0
247001 On ch=1 n=d5 v=0
247003 On ch=1 n=d#5 v=0
247007 On ch=1 n=g5 v=0
247071 On ch=1 n=d3 v=82
247083 Par ch=1 c=64 v=0
247101 On ch=1 n=a3 v=64
247157 On ch=1 n=a5 v=47
247165 On ch=1 n=d5 v=62
247171 On ch=1 n=d6 v=63
247177 On ch=1 n=a3 v=0
247177 On ch=1 n=d4 v=96
247191 On ch=1 n=d3 v=0
247191 Par ch=1 c=64 v=127
247215 On ch=1 n=d6 v=0
247218 On ch=1 n=d5 v=0
247229 On ch=1 n=a5 v=0
247309 On ch=1 n=d4 v=0
247312 On ch=1 n=d#6 v=93
247315 On ch=1 n=d#5 v=92
247315 On ch=1 n=d#4 v=94
247391 On ch=1 n=d#5 v=0
247403 On ch=1 n=d#6 v=0
247441 On ch=1 n=d#4 v=0
247465 On ch=1 n=d4 v=104
247475 On ch=1 n=d6 v=108
247477 On ch=1 n=d5 v=93
247505 On ch=1 n=d4 v=0
247513 On ch=1 n=d5 v=0
247549 On ch=1 n=d6 v=0
247693 On ch=1 n=g6 v=112
247695 On ch=1 n=a#5 v=96
247711 On ch=1 n=d#6 v=74
247713 Par ch=1 c=64 v=0
247713 On ch=1 n=g2 v=109
247715 On ch=1 n=g3 v=111
247853 On ch=1 n=a#5 v=0
247869 On ch=1 n=g2 v=0
247872 On ch=1 n=c6 v=78
247903 On ch=1 n=g3 v=0
247913 Par ch=1 c=64 v=127
247957 On ch=1 n=d#6 v=0
247971 On ch=1 n=g6 v=0
248015 On ch=1 n=c6 v=0
248018 On ch=1 n=a#5 v=58
248049 On ch=1 n=a#3 v=105
248053 On ch=1 n=a#2 v=94
248087 On ch=1 n=a#5 v=0
248090 On ch=1 n=a#2 v=0
248100 On ch=1 n=a#3 v=0
248164 On ch=1 n=a#5 v=74
248166 On ch=1 n=g6 v=112
248170 On ch=1 n=d#6 v=90
248204 On ch=1 n=d#4 v=115
248216 On ch=1 n=d#3 v=96
248288 On ch=1 n=a#5 v=0
248292 On ch=1 n=d#3 v=0
248318 On ch=1 n=d#4 v=0
248330 On ch=1 n=c6 v=78
248424 On ch=1 n=d#6 v=0
248446 On ch=1 n=g6 v=0
248484 On ch=1 n=a#5 v=65
248490 On ch=1 n=c6 v=0
248494 On ch=1 n=g4 v=105
248496 On ch=1 n=g3 v=97
248534 On ch=1 n=g3 v=0
248552 On ch=1 n=a#5 v=0
248562 On ch=1 n=g4 v=0
248638 On ch=1 n=g6 v=112
248641 On ch=1 n=a#5 v=78
248650 On ch=1 n=d#6 v=87
248664 On ch=1 n=a#4 v=101
248674 On ch=1 n=a#3 v=86
248762 On ch=1 n=a#5 v=0
248794 On ch=1 n=a#3 v=0
248810 On ch=1 n=a#4 v=0
248814 On ch=1 n=c6 v=77
248864 On ch=1 n=d#6 v=0
248926 On ch=1 n=a#5 v=62
249016 On ch=1 n=c6 v=0
249016 On ch=1 n=d4 v=117
249030 On ch=1 n=g6 v=0
249046 On ch=1 n=a#5 v=0
249088 On ch=1 n=a4 v=82
249090 Par ch=1 c=64 v=0
249128 On ch=1 n=d6 v=104
249131 On ch=1 n=a5 v=86
249172 On ch=1 n=d5 v=112
249180 On ch=1 n=d4 v=0
249206 On ch=1 n=a4 v=0
249246 Par ch=1 c=64 v=127
249284 On ch=1 n=d#6 v=104
249290 On ch=1 n=d5 v=0
249306 On ch=1 n=d#5 v=95
249332 On ch=1 n=d6 v=0
249384 On ch=1 n=d#5 v=0
249430 On ch=1 n=d5 v=96
249432 On ch=1 n=d6 v=85
249468 On ch=1 n=d5 v=0
249482 On ch=1 n=a5 v=0
249496 On ch=1 n=d#6 v=0
249548 On ch=1 n=d6 v=0
249638 On ch=1 n=g6 v=115
249643 On ch=1 n=a#5 v=95
249646 On ch=1 n=d#6 v=89
249664 On ch=1 n=g2 v=108
249666 On ch=1 n=g3 v=106
249698 On ch=1 n=g2 v=0
249718 On ch=1 n=g3 v=0
249786 On ch=1 n=a#5 v=0
249804 On ch=1 n=c6 v=81
249908 On ch=1 n=d#6 v=0
249938 On ch=1 n=a#5 v=63
249970 On ch=1 n=g6 v=0
249988 On ch=1 n=a#3 v=109
249994 On ch=1 n=c6 v=0
249998 On ch=1 n=a#2 v=89
250032 On ch=1 n=a#2 v=0
250034 On ch=1 n=a#3 v=0
250042 On ch=1 n=a#5 v=0
250112 On ch=1 n=g6 v=111
250114 On ch=1 n=a#5 v=75
250122 On ch=1 n=d#6 v=93
250136 On ch=1 n=d#4 v=119
250146 On ch=1 n=d#3 v=101
250168 Par ch=1 c=64 v=0
250236 On ch=1 n=d#3 v=0
250248 On ch=1 n=a#5 v=0
250288 On ch=1 n=c6 v=79
250291 On ch=1 n=d#4 v=0
250306 Par ch=1 c=64 v=127
250376 On ch=1 n=d#6 v=0
250400 On ch=1 n=g6 v=0
250444 On ch=1 n=g4 v=105
250447 On ch=1 n=a#5 v=67
250447 On ch=1 n=g3 v=93
250482 On ch=1 n=g4 v=0
250485 On ch=1 n=g3 v=0
250496 On ch=1 n=c6 v=0
250508 On ch=1 n=a#5 v=0
250582 On ch=1 n=a#5 v=82
250582 On ch=1 n=g6 v=117
250592 On ch=1 n=d#6 v=95
250594 On ch=1 n=a#4 v=111
250608 On ch=1 n=a#3 v=109
250656 On ch=1 n=a#3 v=0
250730 On ch=1 n=a#4 v=0
250733 On ch=1 n=a#5 v=0
250774 On ch=1 n=c6 v=69
250816 On ch=1 n=d#6 v=0
250878 On ch=1 n=a#5 v=66
250926 On ch=1 n=c6 v=0
250932 On ch=1 n=g6 v=0
250940 On ch=1 n=d4 v=105
250988 On ch=1 n=a4 v=81
250994 On ch=1 n=a#5 v=0
251012 Par ch=1 c=64 v=0
251064 On ch=1 n=a5 v=94
251064 On ch=1 n=d6 v=105
251070 On ch=1 n=d4 v=0
251074 On ch=1 n=d5 v=123
251110 On ch=1 n=a4 v=0
251168 Par ch=1 c=64 v=127
251188 On ch=1 n=d#6 v=95
251200 On ch=1 n=d5 v=0
251220 On ch=1 n=d#5 v=98
251230 On ch=1 n=d6 v=0
251256 On ch=1 n=a5 v=0
251310 On ch=1 n=d#6 v=0
251314 On ch=1 n=d#5 v=0
251336 On ch=1 n=d5 v=116
251372 On ch=1 n=d6 v=36
251394 On ch=1 n=d5 v=0
251438 On ch=1 n=d6 v=0
251598 On ch=1 n=d6 v=100
251600 On ch=1 n=a#6 v=103
251602 On ch=1 n=g6 v=111
251622 On ch=1 n=g2 v=117
251622 On ch=1 n=g3 v=112
251650 On ch=1 n=g2 v=0
251692 On ch=1 n=g3 v=0
251750 On ch=1 n=d#6 v=89
251764 On ch=1 n=d6 v=0
251820 On ch=1 n=g6 v=0
251916 On ch=1 n=d#6 v=0
251918 On ch=1 n=d6 v=92
251934 On ch=1 n=d4 v=111
251936 On ch=1 n=a#6 v=0
251938 On ch=1 n=d3 v=90
251974 On ch=1 n=d3 v=0
251984 On ch=1 n=d4 v=0
252010 On ch=1 n=d6 v=0
252074 On ch=1 n=d6 v=108
252076 On ch=1 n=a#6 v=102
252080 On ch=1 n=g6 v=109
252096 On ch=1 n=g4 v=121
252100 On ch=1 n=g3 v=116
252130 On ch=1 n=g3 v=0
252136 On ch=1 n=g4 v=0
252224 On ch=1 n=d#6 v=94
252248 On ch=1 n=d6 v=0
252296 On ch=1 n=g6 v=0
252354 On ch=1 n=a#6 v=0
252394 On ch=1 n=d#6 v=0
252397 On ch=1 n=d6 v=101
252397 On ch=1 n=a#4 v=115
252404 On ch=1 n=a#3 v=104
252440 On ch=1 n=a#3 v=0
252472 On ch=1 n=a#4 v=0
252486 On ch=1 n=d6 v=0
252546 On ch=1 n=d6 v=113
252546 On ch=1 n=a#6 v=98
252549 On ch=1 n=g6 v=108
252549 Par ch=1 c=64 v=0
252570 On ch=1 n=d#5 v=127
252580 On ch=1 n=d#4 v=111
252722 On ch=1 n=d#6 v=86
252728 On ch=1 n=d6 v=0
252734 Par ch=1 c=64 v=127
252808 On ch=1 n=d#5 v=0
252820 On ch=1 n=d#4 v=0
252862 On ch=1 n=d6 v=81
252900 On ch=1 n=a#6 v=0
252916 On ch=1 n=d#6 v=0
252924 On ch=1 n=g6 v=0
252924 On ch=1 n=d6 v=0
253024 On ch=1 n=a6 v=118
253026 On ch=1 n=c6 v=108
253029 On ch=1 n=d6 v=94
253034 On ch=1 n=c5 v=112
253042 On ch=1 n=c4 v=97
253156 On ch=1 n=d6 v=0
253168 On ch=1 n=d#6 v=79
253202 On ch=1 n=c5 v=0
253236 On ch=1 n=c6 v=0
253252 On ch=1 n=c4 v=0
253288 On ch=1 n=a6 v=0
253344 On ch=1 n=d6 v=83
253352 On ch=1 n=d#6 v=0
253366 On ch=1 n=a4 v=90
253378 On ch=1 n=a3 v=74
253404 On ch=1 n=d6 v=0
253408 On ch=1 n=a4 v=0
253426 On ch=1 n=a3 v=0
253494 On ch=1 n=a6 v=116
253498 On ch=1 n=d6 v=89
253502 On ch=1 n=a#5 v=96
253520 On ch=1 n=d5 v=121
253523 On ch=1 n=d4 v=115
253534 Par ch=1 c=64 v=0
253668 On ch=1 n=d#6 v=82
253673 On ch=1 n=d6 v=0
253748 Par ch=1 c=64 v=127
253802 On ch=1 n=d6 v=80
253812 On ch=1 n=d5 v=0
253830 On ch=1 n=a6 v=0
253850 On ch=1 n=d4 v=0
253853 On ch=1 n=a#5 v=0
253863 On ch=1 n=d6 v=0
253885 On ch=1 n=d#6 v=0
253953 On ch=1 n=a#4 v=104
253957 On ch=1 n=g6 v=116
253959 On ch=1 n=d6 v=92
253961 On ch=1 n=a#5 v=94
253963 On ch=1 n=a#3 v=98
254107 On ch=1 n=a#4 v=0
254115 On ch=1 n=d6 v=0
254115 On ch=1 n=d#6 v=77
254185 On ch=1 n=a#3 v=0
254199 On ch=1 n=g6 v=0
254209 On ch=1 n=a#5 v=0
254265 On ch=1 n=g4 v=116
254265 On ch=1 n=g3 v=109
254271 On ch=1 n=d#6 v=0
254279 On ch=1 n=d6 v=88
254301 On ch=1 n=g3 v=0
254317 On ch=1 n=g4 v=0
254381 On ch=1 n=d6 v=0
254407 Par ch=1 c=64 v=0
254419 On ch=1 n=g6 v=124
254427 On ch=1 n=a5 v=96
254439 On ch=1 n=d6 v=112
254443 On ch=1 n=d5 v=120
254448 On ch=1 n=d4 v=115
254593 On ch=1 n=d#6 v=92
254601 On ch=1 n=d6 v=0
254613 On ch=1 n=d5 v=0
254621 Par ch=1 c=64 v=127
254659 On ch=1 n=d4 v=0
254671 On ch=1 n=a5 v=0
254749 On ch=1 n=d6 v=108
254781 On ch=1 n=d#6 v=0
254783 On ch=1 n=g6 v=0
254849 On ch=1 n=d6 v=0
254905 On ch=1 n=d6 v=118
254907 On ch=1 n=f#6 v=113
254911 On ch=1 n=d4 v=118
254917 On ch=1 n=a5 v=97
254919 On ch=1 n=d3 v=112
255067 On ch=1 n=d6 v=0
255071 On ch=1 n=d#6 v=93
255095 On ch=1 n=d4 v=0
255115 On ch=1 n=a5 v=0
255137 On ch=1 n=d3 v=0
255223 On ch=1 n=d6 v=104
255261 On ch=1 n=d6 v=0
255271 On ch=1 n=f#6 v=0
255287 On ch=1 n=d#6 v=0
255405 Par ch=1 c=64 v=0
255411 On ch=1 n=d7 v=119
255413 On ch=1 n=a#6 v=111
255421 On ch=1 n=g3 v=126
255427 On ch=1 n=g2 v=126
255503 On ch=1 n=g2 v=0
255557 Par ch=1 c=64 v=127
255562 On ch=1 n=g3 v=0
255601 On ch=1 n=d#6 v=90
255675 On ch=1 n=a#6 v=0
255691 On ch=1 n=d7 v=0
255733 On ch=1 n=d#6 v=0
255777 On ch=1 n=d6 v=102
255793 On ch=1 n=d4 v=116
255795 On ch=1 n=d3 v=97
255829 On ch=1 n=d3 v=0
255851 On ch=1 n=d4 v=0
255885 On ch=1 n=d6 v=0
255921 On ch=1 n=d7 v=121
255927 On ch=1 n=a#6 v=98
255949 On ch=1 n=g4 v=124
255953 On ch=1 n=g3 v=113
255989 On ch=1 n=g3 v=0
256001 On ch=1 n=g4 v=0
256069 On ch=1 n=d#6 v=101
256155 On ch=1 n=d7 v=0
256165 On ch=1 n=a#6 v=0
256215 On ch=1 n=d#6 v=0
256218 On ch=1 n=a#4 v=117
256222 On ch=1 n=a#3 v=111
256227 On ch=1 n=d6 v=108
256257 On ch=1 n=a#3 v=0
256277 On ch=1 n=a#4 v=0
256325 On ch=1 n=d6 v=0
256341 Par ch=1 c=64 v=0
256347 On ch=1 n=d7 v=120
256357 On ch=1 n=a#6 v=101
256369 On ch=1 n=d#5 v=127
256377 On ch=1 n=d#4 v=117
256495 Par ch=1 c=64 v=127
256527 On ch=1 n=d#6 v=103
256561 On ch=1 n=d7 v=0
256573 On ch=1 n=d#4 v=0
256587 On ch=1 n=d#5 v=0
256611 On ch=1 n=a#6 v=0
256627 On ch=1 n=d#6 v=0
256687 On ch=1 n=d6 v=97
256737 On ch=1 n=d6 v=0
256823 On ch=1 n=d6 v=112
256825 On ch=1 n=c7 v=118
256827 On ch=1 n=a6 v=108
256827 On ch=1 n=c5 v=120
256835 On ch=1 n=c4 v=111
256973 On ch=1 n=d#6 v=94
256979 On ch=1 n=d6 v=0
256991 On ch=1 n=c5 v=0
257039 On ch=1 n=c4 v=0
257049 On ch=1 n=c7 v=0
257059 On ch=1 n=a6 v=0
257087 On ch=1 n=d#6 v=0
257135 On ch=1 n=d6 v=89
257157 On ch=1 n=a4 v=92
257165 On ch=1 n=a3 v=78
257196 On ch=1 n=a4 v=0
257211 On ch=1 n=a3 v=0
257231 On ch=1 n=d6 v=0
257277 On ch=1 n=a6 v=109
257277 On ch=1 n=a#6 v=105
257281 On ch=1 n=d6 v=120
257293 On ch=1 n=d5 v=127
257295 On ch=1 n=d4 v=121
257311 Par ch=1 c=64 v=0
257425 On ch=1 n=d#6 v=97
257459 On ch=1 n=d6 v=0
257509 Par ch=1 c=64 v=127
257571 On ch=1 n=d6 v=78
257575 On ch=1 n=d5 v=0
257583 On ch=1 n=a#6 v=0
257603 On ch=1 n=d#6 v=0
257617 On ch=1 n=d4 v=0
257651 On ch=1 n=d6 v=0
257661 On ch=1 n=a6 v=0
257721 On ch=1 n=a#4 v=111
257723 On ch=1 n=a#6 v=102
257725 On ch=1 n=d6 v=108
257725 On ch=1 n=g6 v=113
257729 On ch=1 n=a#3 v=104
257877 On ch=1 n=a#4 v=0
257889 On ch=1 n=d#6 v=87
257907 On ch=1 n=d6 v=0
257919 On ch=1 n=g6 v=0
257957 On ch=1 n=a#3 v=0
257997 On ch=1 n=d#6 v=0
258021 On ch=1 n=a#6 v=0
258037 On ch=1 n=g3 v=106
258037 On ch=1 n=g4 v=116
258047 On ch=1 n=d6 v=96
258073 On ch=1 n=g3 v=0
258097 On ch=1 n=g4 v=0
258115 On ch=1 n=d6 v=0
258185 Par ch=1 c=64 v=0
258197 On ch=1 n=g6 v=120
258197 On ch=1 n=a6 v=116
258197 On ch=1 n=d6 v=112
258213 On ch=1 n=d5 v=127
258215 On ch=1 n=d4 v=126
258363 On ch=1 n=d#6 v=93
258395 On ch=1 n=d6 v=0
258401 Par ch=1 c=64 v=127
258431 On ch=1 n=d5 v=0
258497 On ch=1 n=d4 v=0
258517 On ch=1 n=d6 v=81
258531 On ch=1 n=a6 v=0
258537 On ch=1 n=d#6 v=0
258609 On ch=1 n=d6 v=0
258631 On ch=1 n=g6 v=0
258701 On ch=1 n=d6 v=108
258701 On ch=1 n=a6 v=118
258703 On ch=1 n=f#6 v=109
258707 On ch=1 n=d3 v=125
258707 On ch=1 n=d4 v=127
258785 Par ch=1 c=64 v=0
258893 On ch=1 n=d6 v=0
258893 On ch=1 n=d#6 v=92
258923 Par ch=1 c=64 v=127
258963 On ch=1 n=d4 v=0
259019 On ch=1 n=d3 v=0
259077 On ch=1 n=d#6 v=0
259079 On ch=1 n=f#6 v=0
259085 On ch=1 n=d6 v=108
259113 On ch=1 n=a6 v=0
259165 On ch=1 n=d6 v=0
259317 On ch=1 n=g2 v=127
259317 On ch=1 n=a#5 v=103
259317 On ch=1 n=d6 v=102
259317 On ch=1 n=g6 v=119
259385 Par ch=1 c=64 v=0
259535 On ch=1 n=d6 v=0
259555 On ch=1 n=g3 v=108
259559 On ch=1 n=d#6 v=90
259575 On ch=1 n=g2 v=0
259583 Par ch=1 c=64 v=127
259607 On ch=1 n=g3 v=0
259755 On ch=1 n=a#5 v=0
259755 On ch=1 n=d4 v=109
259761 On ch=1 n=d6 v=100
259801 On ch=1 n=d#6 v=0
259873 On ch=1 n=d4 v=0
259937 On ch=1 n=d#6 v=96
259941 On ch=1 n=g4 v=96
259965 On ch=1 n=d6 v=0
260093 On ch=1 n=g4 v=0
260105 On ch=1 n=a#4 v=83
260109 On ch=1 n=d6 v=97
260129 On ch=1 n=d#6 v=0
260257 On ch=1 n=d6 v=0
260267 On ch=1 n=d5 v=93
260267 On ch=1 n=d#6 v=80
260353 On ch=1 n=a#4 v=0
260403 On ch=1 n=d5 v=0
260421 On ch=1 n=g5 v=101
260425 On ch=1 n=d#6 v=0
260425 On ch=1 n=d6 v=86
260583 On ch=1 n=a#5 v=83
260583 On ch=1 n=d#6 v=85
260607 On ch=1 n=d6 v=0
260621 On ch=1 n=g5 v=0
260741 On ch=1 n=a#5 v=0
260746 On ch=1 n=d6 v=96
260746 On ch=1 n=d5 v=87
260763 On ch=1 n=d#6 v=0
260867 On ch=1 n=d5 v=0
260889 On ch=1 n=d#6 v=62
260891 On ch=1 n=a5 v=81
260907 On ch=1 n=d6 v=0
260999 On ch=1 n=a5 v=0
261031 On ch=1 n=a#4 v=71
261041 On ch=1 n=d6 v=70
261055 On ch=1 n=d#6 v=0
261179 On ch=1 n=d#6 v=63
261187 On ch=1 n=g5 v=81
261193 On ch=1 n=d6 v=0
261225 On ch=1 n=a#4 v=0
261289 On ch=1 n=g5 v=0
261323 On ch=1 n=d#6 v=0
261339 On ch=1 n=a4 v=75
261347 On ch=1 n=d6 v=75
261469 On ch=1 n=a#5 v=2
261501 On ch=1 n=f#5 v=69
261507 On ch=1 n=d#6 v=65
261525 On ch=1 n=d6 v=0
261527 On ch=1 n=a4 v=0
261625 On ch=1 n=f#5 v=0
261651 On ch=1 n=d6 v=58
261655 On ch=1 n=a#4 v=54
261671 On ch=1 n=d#6 v=0
261799 On ch=1 n=g5 v=67
261802 On ch=1 n=d6 v=0
261811 On ch=1 n=d#6 v=57
261823 On ch=1 n=a#4 v=0
261875 On ch=1 n=g5 v=0
261957 On ch=1 n=d#6 v=0
261963 On ch=1 n=a4 v=49
261973 On ch=1 n=d6 v=72
262027 On ch=1 n=a4 v=0
262089 On ch=1 n=d6 v=0
262107 On ch=1 n=d5 v=51
262117 On ch=1 n=d#6 v=62
262243 On ch=1 n=d#6 v=0
262253 On ch=1 n=g4 v=58
262261 On ch=1 n=d6 v=63
262297 On ch=1 n=d5 v=0
262381 Par ch=1 c=64 v=0
262401 On ch=1 n=d#6 v=55
262413 On ch=1 n=d6 v=0
262413 On ch=1 n=a#4 v=63
262465 On ch=1 n=g4 v=0
262503 Par ch=1 c=64 v=127
262559 On ch=1 n=d6 v=42
262561 On ch=1 n=a#4 v=0
262565 On ch=1 n=d#6 v=0
262573 On ch=1 n=d4 v=44
262649 On ch=1 n=d4 v=0
262713 On ch=1 n=d#6 v=52
262716 On ch=1 n=d6 v=0
262719 On ch=1 n=a4 v=44
262829 On ch=1 n=a4 v=0
262857 On ch=1 n=d#6 v=0
262867 On ch=1 n=a#3 v=41
262873 On ch=1 n=d6 v=46
262983 On ch=1 n=d6 v=0
263021 On ch=1 n=d#6 v=54
263033 On ch=1 n=g4 v=63
263041 On ch=1 n=a#3 v=0
263133 On ch=1 n=g4 v=0
263169 On ch=1 n=d#6 v=0
263185 On ch=1 n=a3 v=50
263195 Par ch=1 c=64 v=0
263197 On ch=1 n=d6 v=56
263327 On ch=1 n=f#4 v=69
263329 On ch=1 n=d#6 v=56
263333 Par ch=1 c=64 v=127
263353 On ch=1 n=d6 v=0
263375 On ch=1 n=a3 v=0
263475 On ch=1 n=f#4 v=0
263491 On ch=1 n=d6 v=40
263495 On ch=1 n=d#6 v=0
263499 On ch=1 n=a#3 v=43
263633 On ch=1 n=g4 v=55
263635 On ch=1 n=a#3 v=0
263638 On ch=1 n=d6 v=0
263638 On ch=1 n=d#6 v=47
263729 On ch=1 n=g4 v=0
263785 On ch=1 n=d#6 v=0
263788 On ch=1 n=a3 v=50
263795 On ch=1 n=d6 v=39
263889 On ch=1 n=a3 v=0
263925 On ch=1 n=d6 v=0
263929 On ch=1 n=d4 v=65
263947 On ch=1 n=d#6 v=52
264073 On ch=1 n=d#6 v=0
264099 On ch=1 n=d6 v=62
264099 On ch=1 n=g3 v=54
264115 On ch=1 n=d4 v=0
264117 Par ch=1 c=64 v=0
264317 Par ch=1 c=64 v=127
264320 On ch=1 n=a#3 v=54
264329 On ch=1 n=d#6 v=57
264337 On ch=1 n=d6 v=0
264379 On ch=1 n=g3 v=0
264547 On ch=1 n=d#6 v=0
264559 On ch=1 n=d3 v=42
264571 On ch=1 n=a#3 v=0
264574 On ch=1 n=d6 v=51
264685 Par ch=1 c=64 v=0
264797 On ch=1 n=a3 v=48
264799 On ch=1 n=d#6 v=52
264807 Par ch=1 c=64 v=127
264809 On ch=1 n=d6 v=0
264809 On ch=1 n=d3 v=0
265005 On ch=1 n=d#6 v=0
265011 On ch=1 n=a3 v=0
265017 On ch=1 n=a#2 v=54
265025 On ch=1 n=d6 v=46
265101 Par ch=1 c=64 v=0
265247 On ch=1 n=d#6 v=41
265253 Par ch=1 c=64 v=127
265263 On ch=1 n=d6 v=0
265266 On ch=1 n=g3 v=43
265435 On ch=1 n=g3 v=0
265453 On ch=1 n=d#6 v=0
265487 On ch=1 n=a#2 v=0
265487 On ch=1 n=a2 v=50
265501 On ch=1 n=d6 v=40
265561 Par ch=1 c=64 v=0
265697 On ch=1 n=f#3 v=48
265717 On ch=1 n=d#6 v=42
265719 On ch=1 n=d6 v=0
265791 Par ch=1 c=64 v=127
265913 On ch=1 n=a2 v=0
265935 On ch=1 n=d#6 v=0
265949 On ch=1 n=a#2 v=51
265971 On ch=1 n=f#3 v=0
265974 On ch=1 n=d6 v=31
266021 Par ch=1 c=64 v=0
266209 On ch=1 n=g3 v=44
266211 On ch=1 n=d6 v=0
266211 On ch=1 n=d#6 v=40
266221 Par ch=1 c=64 v=127
266337 On ch=1 n=g3 v=0
266435 On ch=1 n=d#6 v=0
266459 On ch=1 n=a2 v=57
266483 Par ch=1 c=64 v=0
266485 On ch=1 n=d6 v=37
266511 On ch=1 n=a#2 v=0
266707 On ch=1 n=d6 v=0
266713 Par ch=1 c=64 v=127
266715 On ch=1 n=d3 v=54
266735 On ch=1 n=d#6 v=37
266895 On ch=1 n=a2 v=0
267083 On ch=1 n=d#6 v=0
267105 On ch=1 n=d3 v=0
267107 On ch=1 n=a#2 v=36
267117 On ch=1 n=g2 v=58
267125 On ch=1 n=d6 v=44
267173 Par ch=1 c=64 v=0
267327 Par ch=1 c=64 v=127
267461 On ch=1 n=d#6 v=44
267497 On ch=1 n=d6 v=0
267817 On ch=1 n=d#6 v=0
267849 On ch=1 n=d6 v=44
267881 Par ch=1 c=64 v=0
267973 Par ch=1 c=64 v=127
268235 Par ch=1 c=64 v=0
268269 On ch=1 n=d#6 v=41
268275 On ch=1 n=d6 v=0
268403 Par ch=1 c=64 v=127
268665 On ch=1 n=d#6 v=0
268707 On ch=1 n=d6 v=27
268813 On ch=1 n=a#2 v=0
268855 On ch=1 n=g2 v=0
269053 On ch=1 n=d6 v=0
269105 On ch=1 n=d#6 v=28
269355 On ch=1 n=d#6 v=0
269575 On ch=1 n=a#2 v=21
269594 On ch=1 n=g2 v=26
269611 On ch=1 n=d6 v=33
270123 On ch=1 n=d#6 v=24
270128 On ch=1 n=d6 v=0
270651 On ch=1 n=d#6 v=0
270707 On ch=1 n=d6 v=18
271167 On ch=1 n=d6 v=0
271271 On ch=1 n=d#6 v=24
271433 On ch=1 n=g2 v=0
271449 On ch=1 n=a#2 v=0
271889 On ch=1 n=d#6 v=0
271987 On ch=1 n=a#2 v=11
272001 On ch=1 n=g2 v=20
272011 On ch=1 n=d6 v=19
273399 On ch=1 n=d6 v=0
273417 On ch=1 n=a#5 v=0
273421 On ch=1 n=g2 v=0
273423 On ch=1 n=g6 v=0
273441 On ch=1 n=a#2 v=0
274365 Par ch=1 c=64 v=0
274375 On ch=1 n=d7 v=121
274375 On ch=1 n=f#6 v=115
274378 On ch=1 n=d6 v=127
274383 On ch=1 n=a6 v=116
274383 On ch=1 n=d4 v=125
274383 On ch=1 n=d3 v=113
274386 On ch=1 n=a3 v=109
274467 On ch=1 n=d3 v=0
274473 On ch=1 n=d6 v=0
274477 On ch=1 n=d4 v=0
274487 On ch=1 n=d7 v=0
274499 On ch=1 n=a3 v=0
274513 Par ch=1 c=64 v=127
274531 On ch=1 n=f#6 v=0
274533 On ch=1 n=a6 v=0
274887 Par ch=1 c=64 v=0
275071 On ch=1 n=g6 v=127
275071 On ch=1 n=a#5 v=110
275071 On ch=1 n=d6 v=123
275074 On ch=1 n=g5 v=120
275079 On ch=1 n=g3 v=111
275079 On ch=1 n=g4 v=121
275083 On ch=1 n=d4 v=112
275085 On ch=1 n=a#3 v=95
275163 Par ch=1 c=64 v=127
276921 On ch=1 n=d4 v=0
276931 On ch=1 n=a#3 v=0
276939 On ch=1 n=d6 v=0
276941 On ch=1 n=g3 v=0
276943 On ch=1 n=a#5 v=0
276945 On ch=1 n=g4 v=0
276945 On ch=1 n=g5 v=0
276959 On ch=1 n=g6 v=0
277007 Par ch=1 c=64 v=0
278373 Par ch=1 c=64 v=0
278373 Meta TrkEnd
TrkEnd
