MFile 0 1 120
MTrk
0 TimeSig 4/4 24 8
0 KeySig 0 major
0 Tempo 431655
217 On ch=1 n=f#5 v=81
217 On ch=1 n=f#6 v=77
348 On ch=1 n=c#6 v=65
353 On ch=1 n=f#5 v=0
362 On ch=1 n=f#6 v=0
372 On ch=1 n=d6 v=65
377 On ch=1 n=c#6 v=0
394 On ch=1 n=e6 v=69
395 On ch=1 n=d6 v=0
421 On ch=1 n=e6 v=0
422 On ch=1 n=d6 v=77
422 On ch=1 n=f5 v=81
488 On ch=1 n=b3 v=65
489 On ch=1 n=b4 v=61
537 On ch=1 n=g#4 v=69
580 On ch=1 n=d6 v=0
582 On ch=1 n=f5 v=0
590 On ch=1 n=g#4 v=0
590 On ch=1 n=f4 v=69
591 On ch=1 n=b5 v=73
596 On ch=1 n=b3 v=0
596 On ch=1 n=b4 v=0
640 On ch=1 n=e5 v=65
641 On ch=1 n=a#5 v=81
676 On ch=1 n=f4 v=0
676 On ch=1 n=b5 v=0
706 On ch=1 n=f#4 v=57
707 On ch=1 n=f#3 v=57
759 On ch=1 n=c#4 v=53
799 On ch=1 n=e5 v=0
802 On ch=1 n=a#5 v=0
810 On ch=1 n=c#4 v=0
810 On ch=1 n=f#4 v=0
814 On ch=1 n=f#3 v=0
817 On ch=1 n=a#3 v=69
817 On ch=1 n=c#6 v=73
866 On ch=1 n=c#6 v=0
867 On ch=1 n=d5 v=73
867 On ch=1 n=f#5 v=73
905 On ch=1 n=a#3 v=0
932 On ch=1 n=b3 v=73
932 On ch=1 n=b2 v=65
981 On ch=1 n=f#3 v=69
1015 On ch=1 n=d5 v=0
1016 On ch=1 n=f#5 v=0
1039 On ch=1 n=b2 v=0
1042 On ch=1 n=d3 v=69
1044 On ch=1 n=g#5 v=77
1065 On ch=1 n=f#3 v=0
1070 On ch=1 n=b3 v=0
1084 On ch=1 n=g#5 v=0
1096 On ch=1 n=a#5 v=73
1097 On ch=1 n=c#5 v=61
1132 On ch=1 n=d3 v=0
1144 On ch=1 n=f#2 v=69
1145 On ch=1 n=f#3 v=61
1204 On ch=1 n=c#3 v=53
1248 On ch=1 n=a#5 v=0
1257 On ch=1 n=f#2 v=0
1260 On ch=1 n=c#3 v=0
1260 On ch=1 n=a#2 v=81
1261 On ch=1 n=f#5 v=81
1275 On ch=1 n=f#3 v=0
1296 On ch=1 n=c#5 v=0
1316 On ch=1 n=e5 v=61
1317 On ch=1 n=c#6 v=69
1317 On ch=1 n=e6 v=57
1354 On ch=1 n=f#5 v=0
1355 On ch=1 n=a#2 v=0
1370 On ch=1 n=e6 v=0
1372 On ch=1 n=c#6 v=0
1376 On ch=1 n=b2 v=69
1376 On ch=1 n=b3 v=65
1376 On ch=1 n=f#5 v=73
1428 On ch=1 n=e5 v=0
1430 On ch=1 n=f#5 v=0
1433 On ch=1 n=f#3 v=69
1433 On ch=1 n=d5 v=69
1433 On ch=1 n=b5 v=73
1434 On ch=1 n=d6 v=61
1481 On ch=1 n=d6 v=0
1483 On ch=1 n=d3 v=65
1484 On ch=1 n=f#5 v=77
1485 On ch=1 n=b5 v=0
1490 On ch=1 n=b2 v=0
1495 On ch=1 n=b3 v=0
1501 On ch=1 n=f#3 v=0
1540 On ch=1 n=f#5 v=0
1540 On ch=1 n=a#5 v=81
1541 On ch=1 n=c#6 v=69
1542 On ch=1 n=d5 v=0
1542 On ch=1 n=c#5 v=77
1543 On ch=1 n=d3 v=0
1589 On ch=1 n=f#4 v=73
1590 On ch=1 n=f#3 v=69
1651 On ch=1 n=c#4 v=61
1699 On ch=1 n=c#5 v=0
1703 On ch=1 n=a#5 v=0
1704 On ch=1 n=c#6 v=0
1707 On ch=1 n=f#4 v=0
1712 On ch=1 n=c#4 v=0
1712 On ch=1 n=f#3 v=0
1716 On ch=1 n=a#3 v=77
1716 On ch=1 n=f#5 v=69
1756 On ch=1 n=f#5 v=0
1770 On ch=1 n=e6 v=61
1772 On ch=1 n=a#3 v=0
1772 On ch=1 n=g5 v=53
1773 On ch=1 n=g6 v=65
1821 On ch=1 n=e4 v=69
1825 On ch=1 n=e3 v=61
1826 On ch=1 n=b5 v=69
1829 On ch=1 n=g6 v=0
1831 On ch=1 n=e6 v=0
1878 On ch=1 n=f#6 v=73
1880 On ch=1 n=f#5 v=73
1880 On ch=1 n=d6 v=73
1881 On ch=1 n=b5 v=0
1882 On ch=1 n=b3 v=81
1888 On ch=1 n=g5 v=0
1922 On ch=1 n=f#6 v=0
1927 On ch=1 n=d6 v=0
1928 On ch=1 n=b5 v=73
1930 On ch=1 n=e3 v=0
1931 On ch=1 n=g3 v=81
1933 On ch=1 n=e4 v=0
1937 On ch=1 n=b3 v=0
1981 On ch=1 n=b5 v=0
1981 On ch=1 n=f#5 v=0
1987 On ch=1 n=g3 v=0
1987 On ch=1 n=e6 v=73
1988 On ch=1 n=c#6 v=65
1988 On ch=1 n=e5 v=61
1989 On ch=1 n=a4 v=89
1990 On ch=1 n=a3 v=101
2038 On ch=1 n=c#6 v=0
2040 On ch=1 n=e6 v=0
2042 On ch=1 n=e5 v=0
2105 On ch=1 n=a5 v=93
2107 On ch=1 n=c#6 v=81
2107 On ch=1 n=e6 v=81
2109 On ch=1 n=a6 v=73
2119 On ch=1 n=a3 v=0
2120 On ch=1 n=a4 v=0
2159 On ch=1 n=e4 v=77
2184 On ch=1 n=f4 v=81
2188 On ch=1 n=e4 v=0
2205 On ch=1 n=f4 v=0
2207 On ch=1 n=g4 v=81
2230 On ch=1 n=f4 v=69
2231 On ch=1 n=g4 v=0
2232 On ch=1 n=f3 v=73
2286 On ch=1 n=c#6 v=0
2286 On ch=1 n=e6 v=0
2288 On ch=1 n=a6 v=0
2289 On ch=1 n=a5 v=0
2338 On ch=1 n=a6 v=81
2339 On ch=1 n=f6 v=81
2339 On ch=1 n=a5 v=85
2340 On ch=1 n=d6 v=81
2360 On ch=1 n=f4 v=0
2360 On ch=1 n=f3 v=0
2391 On ch=1 n=d4 v=85
2395 On ch=1 n=d3 v=65
2399 On ch=1 n=d3 v=0
2401 On ch=1 n=d4 v=0
2451 On ch=1 n=c#4 v=85
2452 On ch=1 n=c#3 v=81
2460 On ch=1 n=a6 v=0
2463 On ch=1 n=f6 v=0
2471 On ch=1 n=d6 v=0
2471 On ch=1 n=a5 v=0
2514 On ch=1 n=e6 v=65
2516 On ch=1 n=g5 v=61
2571 On ch=1 n=g5 v=0
2571 On ch=1 n=f6 v=65
2572 On ch=1 n=a5 v=69
2581 On ch=1 n=e6 v=0
2581 On ch=1 n=c#4 v=0
2617 On ch=1 n=c#3 v=0
2621 On ch=1 n=c#4 v=77
2625 On ch=1 n=e4 v=77
2626 On ch=1 n=a4 v=73
2626 On ch=1 n=g6 v=69
2627 On ch=1 n=a5 v=0
2627 On ch=1 n=f6 v=0
2628 On ch=1 n=a#5 v=69
2663 On ch=1 n=c#4 v=0
2673 On ch=1 n=e4 v=0
2676 On ch=1 n=g6 v=0
2676 On ch=1 n=a4 v=0
2680 On ch=1 n=a#5 v=0
2681 On ch=1 n=d4 v=85
2682 On ch=1 n=d3 v=81
2738 On ch=1 n=f6 v=73
2740 On ch=1 n=a5 v=69
2767 On ch=1 n=d4 v=0
2781 On ch=1 n=d3 v=0
2791 On ch=1 n=a5 v=0
2794 On ch=1 n=c#6 v=69
2795 On ch=1 n=f6 v=0
2797 On ch=1 n=e5 v=53
2849 On ch=1 n=e5 v=0
2849 On ch=1 n=g#4 v=73
2850 On ch=1 n=d4 v=81
2850 On ch=1 n=b4 v=81
2850 On ch=1 n=d6 v=73
2852 On ch=1 n=c#6 v=0
2855 On ch=1 n=f5 v=61
2907 On ch=1 n=f5 v=0
2907 On ch=1 n=d6 v=0
2908 On ch=1 n=d4 v=0
2908 On ch=1 n=a3 v=73
2909 On ch=1 n=g#4 v=0
2909 On ch=1 n=b4 v=0
2909 On ch=1 n=a2 v=77
2962 On ch=1 n=e5 v=65
2963 On ch=1 n=e6 v=61
2963 On ch=1 n=c#6 v=69
3018 On ch=1 n=g#5 v=69
3022 On ch=1 n=e5 v=0
3026 On ch=1 n=c#6 v=0
3031 On ch=1 n=e6 v=0
3072 On ch=1 n=g#5 v=0
3074 On ch=1 n=c#3 v=69
3075 On ch=1 n=a3 v=0
3077 On ch=1 n=a5 v=65
3081 On ch=1 n=a2 v=0
3106 On ch=1 n=a5 v=0
3123 On ch=1 n=c#3 v=0
3129 On ch=1 n=d3 v=69
3129 On ch=1 n=d4 v=73
3184 On ch=1 n=g5 v=61
3186 On ch=1 n=e6 v=61
3188 On ch=1 n=g6 v=65
3245 On ch=1 n=g6 v=0
3246 On ch=1 n=e6 v=0
3247 On ch=1 n=a5 v=57
3249 On ch=1 n=g5 v=0
3290 On ch=1 n=d4 v=0
3295 On ch=1 n=d3 v=0
3295 On ch=1 n=g#3 v=65
3302 On ch=1 n=a5 v=0
3303 On ch=1 n=f5 v=65
3305 On ch=1 n=f6 v=65
3305 On ch=1 n=d6 v=69
3324 On ch=1 n=f5 v=0
3327 On ch=1 n=f6 v=0
3328 On ch=1 n=d6 v=0
3338 On ch=1 n=g#3 v=0
3350 On ch=1 n=a3 v=69
3350 On ch=1 n=a4 v=81
3421 On ch=1 n=c#6 v=65
3422 On ch=1 n=e5 v=57
3423 On ch=1 n=e6 v=65
3476 On ch=1 n=g#5 v=65
3487 On ch=1 n=e5 v=0
3505 On ch=1 n=c#6 v=0
3509 On ch=1 n=e6 v=0
3524 On ch=1 n=a4 v=0
3525 On ch=1 n=a3 v=0
3528 On ch=1 n=c#4 v=73
3529 On ch=1 n=g#5 v=0
3532 On ch=1 n=a5 v=57
3553 On ch=1 n=a5 v=0
3573 On ch=1 n=c#4 v=0
3580 On ch=1 n=d4 v=73
3581 On ch=1 n=g3 v=61
3627 On ch=1 n=d4 v=0
3632 On ch=1 n=d5 v=61
3632 On ch=1 n=a#5 v=69
3633 On ch=1 n=a#6 v=53
3633 On ch=1 n=g6 v=61
3687 On ch=1 n=g6 v=0
3688 On ch=1 n=a#6 v=0
3690 On ch=1 n=a#4 v=73
3691 On ch=1 n=d6 v=57
3692 On ch=1 n=a#5 v=0
3692 On ch=1 n=d5 v=0
3742 On ch=1 n=d6 v=0
3743 On ch=1 n=a#4 v=0
3747 On ch=1 n=g4 v=69
3747 On ch=1 n=a5 v=69
3748 On ch=1 n=f6 v=69
3749 On ch=1 n=a6 v=65
3759 On ch=1 n=a6 v=0
3763 On ch=1 n=f6 v=0
3764 On ch=1 n=a5 v=0
3796 On ch=1 n=g3 v=0
3806 On ch=1 n=g4 v=0
3810 On ch=1 n=c4 v=81
3811 On ch=1 n=c5 v=77
3811 On ch=1 n=g5 v=69
3812 On ch=1 n=e6 v=73
3812 On ch=1 n=g6 v=61
3909 On ch=1 n=g5 v=0
3910 On ch=1 n=e6 v=0
3911 On ch=1 n=c4 v=0
3914 On ch=1 n=c5 v=0
3925 On ch=1 n=g6 v=0
3926 On ch=1 n=g6 v=81
3928 On ch=1 n=c7 v=101
3928 On ch=1 n=c6 v=93
3930 On ch=1 n=e6 v=85
3959 On ch=1 n=g4 v=73
3979 On ch=1 n=g#4 v=85
3988 On ch=1 n=g4 v=0
4002 On ch=1 n=a#4 v=93
4008 On ch=1 n=g#4 v=0
4026 On ch=1 n=a#4 v=0
4031 On ch=1 n=g#3 v=89
4031 On ch=1 n=g#4 v=89
4098 On ch=1 n=c7 v=0
4098 On ch=1 n=e6 v=0
4099 On ch=1 n=g6 v=0
4101 On ch=1 n=c6 v=0
4141 On ch=1 n=g#4 v=0
4147 On ch=1 n=g#3 v=0
4168 On ch=1 n=c6 v=93
4168 On ch=1 n=g#6 v=81
4169 On ch=1 n=c7 v=93
4170 On ch=1 n=f6 v=85
4224 On ch=1 n=f4 v=85
4224 On ch=1 n=f3 v=81
4234 On ch=1 n=f3 v=0
4234 On ch=1 n=f4 v=0
4279 On ch=1 n=c#4 v=101
4280 On ch=1 n=c#3 v=101
4314 On ch=1 n=c7 v=0
4319 On ch=1 n=c6 v=0
4328 On ch=1 n=f6 v=0
4333 On ch=1 n=g#6 v=0
4381 On ch=1 n=c#4 v=0
4384 On ch=1 n=c#3 v=0
4416 On ch=1 n=c#6 v=81
4417 On ch=1 n=c#7 v=93
4418 On ch=1 n=g#6 v=73
4418 On ch=1 n=f6 v=81
4423 On ch=1 n=b6 v=65
4461 On ch=1 n=g#3 v=73
4485 On ch=1 n=g#3 v=0
4485 On ch=1 n=a3 v=81
4501 On ch=1 n=a3 v=0
4504 On ch=1 n=b3 v=85
4534 On ch=1 n=a2 v=89
4537 On ch=1 n=a3 v=93
4539 On ch=1 n=b3 v=0
4561 On ch=1 n=b6 v=0
4563 On ch=1 n=f6 v=0
4567 On ch=1 n=g#6 v=0
4570 On ch=1 n=c#6 v=0
4579 On ch=1 n=c#7 v=0
4634 On ch=1 n=a3 v=0
4635 On ch=1 n=a2 v=0
4667 On ch=1 n=c#7 v=89
4667 On ch=1 n=c#6 v=81
4668 On ch=1 n=f#6 v=81
4670 On ch=1 n=a6 v=77
4718 On ch=1 n=f#3 v=89
4719 On ch=1 n=f#2 v=89
4729 On ch=1 n=f#2 v=0
4732 On ch=1 n=f#3 v=0
4787 On ch=1 n=d2 v=101
4788 On ch=1 n=d3 v=109
4874 On ch=1 n=d2 v=0
4879 On ch=1 n=f#6 v=0
4883 On ch=1 n=a6 v=0
4883 On ch=1 n=c#7 v=0
4884 On ch=1 n=c#6 v=0
4913 On ch=1 n=d3 v=0
4914 On ch=1 n=f#6 v=81
4915 On ch=1 n=c#7 v=81
4915 On ch=1 n=f#7 v=85
4945 On ch=1 n=f#6 v=0
4951 On ch=1 n=f#7 v=0
4951 On ch=1 n=c#7 v=0
4963 On ch=1 n=f#4 v=73
4964 On ch=1 n=d4 v=61
4965 On ch=1 n=a4 v=69
5025 On ch=1 n=g#3 v=69
5026 On ch=1 n=g#2 v=69
5026 On ch=1 n=d6 v=81
5028 On ch=1 n=d7 v=81
5030 On ch=1 n=f#6 v=81
5090 On ch=1 n=d6 v=0
5092 On ch=1 n=f#6 v=0
5093 On ch=1 n=d7 v=0
5111 On ch=1 n=d4 v=0
5111 On ch=1 n=a4 v=0
5117 On ch=1 n=f#4 v=0
5140 On ch=1 n=g#3 v=0
5140 On ch=1 n=b6 v=73
5141 On ch=1 n=d6 v=85
5142 On ch=1 n=b5 v=81
5145 On ch=1 n=g#2 v=0
5173 On ch=1 n=b6 v=0
5175 On ch=1 n=d6 v=0
5175 On ch=1 n=b5 v=0
5191 On ch=1 n=f#4 v=69
5191 On ch=1 n=d4 v=65
5192 On ch=1 n=g#4 v=69
5250 On ch=1 n=g#4 v=0
5253 On ch=1 n=d4 v=0
5253 On ch=1 n=f#4 v=0
5258 On ch=1 n=f2 v=69
5258 On ch=1 n=f3 v=61
5259 On ch=1 n=c#7 v=93
5259 On ch=1 n=c#6 v=81
5260 On ch=1 n=g#6 v=73
5311 On ch=1 n=g#6 v=0
5311 On ch=1 n=c#6 v=0
5321 On ch=1 n=c#7 v=0
5371 On ch=1 n=a6 v=81
5371 On ch=1 n=c#6 v=81
5372 On ch=1 n=a5 v=89
5398 On ch=1 n=a5 v=0
5401 On ch=1 n=c#6 v=0
5405 On ch=1 n=a6 v=0
5420 On ch=1 n=f3 v=0
5421 On ch=1 n=f2 v=0
5423 On ch=1 n=c#4 v=57
5424 On ch=1 n=f4 v=69
5427 On ch=1 n=a4 v=57
5490 On ch=1 n=a4 v=0
5491 On ch=1 n=c#4 v=0
5492 On ch=1 n=f4 v=0
5493 On ch=1 n=f5 v=85
5494 On ch=1 n=f6 v=81
5494 On ch=1 n=a2 v=65
5495 On ch=1 n=a3 v=61
5495 On ch=1 n=c#6 v=73
5530 On ch=1 n=f5 v=0
5540 On ch=1 n=c#6 v=0
5541 On ch=1 n=f6 v=0
5613 On ch=1 n=f#6 v=81
5614 On ch=1 n=f#5 v=81
5615 On ch=1 n=c#6 v=73
5667 On ch=1 n=c#4 v=69
5667 On ch=1 n=f#4 v=73
5669 On ch=1 n=a4 v=57
5679 On ch=1 n=f#5 v=0
5679 On ch=1 n=a2 v=0
5680 On ch=1 n=a3 v=0
5681 On ch=1 n=c#6 v=0
5686 On ch=1 n=f#6 v=0
5711 On ch=1 n=c#4 v=0
5711 On ch=1 n=f#4 v=0
5717 On ch=1 n=a4 v=0
5722 On ch=1 n=d4 v=81
5724 On ch=1 n=d3 v=77
5732 On ch=1 n=d3 v=0
5733 On ch=1 n=d4 v=0
5777 On ch=1 n=d6 v=73
5777 On ch=1 n=d5 v=69
5795 On ch=1 n=d5 v=0
5799 On ch=1 n=d6 v=0
5832 On ch=1 n=c#4 v=85
5834 On ch=1 n=c#3 v=77
5836 On ch=1 n=c#6 v=77
5836 On ch=1 n=c#5 v=77
5844 On ch=1 n=c#5 v=0
5848 On ch=1 n=c#4 v=0
5849 On ch=1 n=c#6 v=0
5849 On ch=1 n=c#3 v=0
5887 On ch=1 n=c4 v=85
5888 On ch=1 n=c3 v=77
5889 On ch=1 n=c5 v=85
5892 On ch=1 n=c6 v=81
5902 On ch=1 n=c3 v=0
5903 On ch=1 n=c4 v=0
5908 On ch=1 n=c5 v=0
5914 On ch=1 n=c6 v=0
5950 On ch=1 n=c#4 v=81
5953 On ch=1 n=c#3 v=73
5999 On ch=1 n=c#3 v=0
6000 On ch=1 n=c#4 v=0
6003 On ch=1 n=c#5 v=69
6003 On ch=1 n=c#6 v=61
6020 On ch=1 n=c#5 v=0
6023 On ch=1 n=c#6 v=0
6057 On ch=1 n=d#4 v=85
6058 On ch=1 n=d#3 v=77
6060 On ch=1 n=d#5 v=81
6061 On ch=1 n=d#6 v=85
6069 On ch=1 n=d#3 v=0
6072 On ch=1 n=d#4 v=0
6072 On ch=1 n=d#5 v=0
6074 On ch=1 n=d#6 v=0
6110 On ch=1 n=f5 v=93
6111 On ch=1 n=f6 v=69
6113 On ch=1 n=f4 v=85
6115 On ch=1 n=f3 v=73
6122 On ch=1 n=f3 v=0
6122 On ch=1 n=f5 v=0
6123 On ch=1 n=f4 v=0
6130 On ch=1 n=f6 v=0
6170 On ch=1 n=f#4 v=77
6172 On ch=1 n=f#3 v=69
6221 On ch=1 n=f#3 v=0
6223 On ch=1 n=f#6 v=73
6224 On ch=1 n=f#5 v=69
6228 On ch=1 n=f#4 v=0
6238 On ch=1 n=f#5 v=0
6241 On ch=1 n=f#6 v=0
6275 On ch=1 n=g#4 v=85
6278 On ch=1 n=g#5 v=81
6278 On ch=1 n=g#3 v=69
6278 On ch=1 n=g#6 v=85
6288 On ch=1 n=g#5 v=0
6289 On ch=1 n=g#3 v=0
6291 On ch=1 n=g#4 v=0
6291 On ch=1 n=g#6 v=0
6330 On ch=1 n=a5 v=89
6330 On ch=1 n=a6 v=81
6332 On ch=1 n=a4 v=81
6333 On ch=1 n=a3 v=73
6338 On ch=1 n=a3 v=0
6340 On ch=1 n=a5 v=0
6344 On ch=1 n=a4 v=0
6349 On ch=1 n=a6 v=0
6388 On ch=1 n=b4 v=73
6389 On ch=1 n=b3 v=73
6434 On ch=1 n=b3 v=0
6439 On ch=1 n=b4 v=0
6442 On ch=1 n=b6 v=69
6443 On ch=1 n=b5 v=69
6454 On ch=1 n=b5 v=0
6461 On ch=1 n=b6 v=0
6495 On ch=1 n=c#5 v=85
6496 On ch=1 n=c#6 v=81
6497 On ch=1 n=c#4 v=77
6497 On ch=1 n=c#7 v=93
6509 On ch=1 n=c#4 v=0
6510 On ch=1 n=c#5 v=0
6510 On ch=1 n=c#6 v=0
6514 On ch=1 n=c#7 v=0
6545 On ch=1 n=d6 v=89
6546 On ch=1 n=d7 v=81
6547 On ch=1 n=d5 v=81
6549 On ch=1 n=d4 v=77
6556 On ch=1 n=d7 v=0
6558 On ch=1 n=d6 v=0
6558 On ch=1 n=d5 v=0
6562 On ch=1 n=d4 v=0
6613 On ch=1 n=f4 v=77
6618 On ch=1 n=f3 v=65
6679 On ch=1 n=f3 v=0
6680 On ch=1 n=f5 v=77
6680 On ch=1 n=f6 v=69
6685 On ch=1 n=f4 v=0
6745 On ch=1 n=f#4 v=81
6749 On ch=1 n=f#3 v=65
6759 On ch=1 n=f6 v=0
6767 On ch=1 n=f5 v=0
6794 On ch=1 n=f#4 v=0
6796 On ch=1 n=f#3 v=0
6818 On ch=1 n=f#5 v=77
6818 On ch=1 n=f#6 v=77
6854 On ch=1 n=f#5 v=0
6864 On ch=1 n=f#6 v=0
6890 On ch=1 n=c4 v=65
6891 On ch=1 n=c3 v=65
6961 On ch=1 n=c6 v=69
6965 On ch=1 n=c5 v=57
7012 On ch=1 n=c5 v=0
7018 On ch=1 n=c6 v=0
7040 On ch=1 n=c#4 v=73
7042 On ch=1 n=c#3 v=69
7077 On ch=1 n=c#4 v=0
7078 On ch=1 n=c3 v=0
7094 On ch=1 n=c4 v=0
7099 On ch=1 n=c#3 v=0
7124 On ch=1 n=c#6 v=73
7125 On ch=1 n=c#5 v=73
7180 On ch=1 n=c#5 v=0
7189 On ch=1 n=c#6 v=0
7219 On ch=1 n=f#2 v=77
7222 On ch=1 n=f#3 v=69
7346 On ch=1 n=f#4 v=73
7390 On ch=1 n=f#4 v=0
7413 On ch=1 n=g#4 v=69
7414 On ch=1 n=f4 v=61
7452 On ch=1 n=f4 v=0
7457 On ch=1 n=g#4 v=0
7478 On ch=1 n=f#4 v=73
7517 On ch=1 n=f#4 v=0
7540 On ch=1 n=c#4 v=81
7545 On ch=1 n=a4 v=65
7573 On ch=1 n=f#3 v=0
7574 On ch=1 n=f#2 v=0
7586 On ch=1 n=c#4 v=0
7600 On ch=1 n=a4 v=0
7611 On ch=1 n=f#4 v=73
7653 On ch=1 n=f#4 v=0
7674 On ch=1 n=g#4 v=77
7679 On ch=1 n=f4 v=65
7712 On ch=1 n=f4 v=0
7723 On ch=1 n=g#4 v=0
7739 On ch=1 n=f#4 v=77
7778 On ch=1 n=f#4 v=0
7825 On ch=1 n=f#3 v=65
7911 On ch=1 n=f#3 v=0
7922 On ch=1 n=f#4 v=73
7962 On ch=1 n=f#4 v=0
7989 On ch=1 n=g#4 v=69
7993 On ch=1 n=f4 v=61
8030 On ch=1 n=f4 v=0
8036 On ch=1 n=g#4 v=0
8046 On ch=1 n=f#4 v=77
8082 On ch=1 n=f#4 v=0
8119 On ch=1 n=d4 v=77
8120 On ch=1 n=b4 v=69
8160 On ch=1 n=d4 v=0
8169 On ch=1 n=b4 v=0
8187 On ch=1 n=f#4 v=69
8217 On ch=1 n=f#4 v=0
8261 On ch=1 n=g#4 v=65
8262 On ch=1 n=f4 v=69
8299 On ch=1 n=f4 v=0
8300 On ch=1 n=g#4 v=0
8328 On ch=1 n=f#4 v=77
8365 On ch=1 n=f#4 v=0
8405 On ch=1 n=f#3 v=69
8455 On ch=1 n=f#3 v=0
8505 On ch=1 n=f#4 v=69
8543 On ch=1 n=f#4 v=0
8573 On ch=1 n=d5 v=61
8574 On ch=1 n=f#5 v=61
8604 On ch=1 n=f#5 v=0
8606 On ch=1 n=d5 v=0
8638 On ch=1 n=f#4 v=61
8671 On ch=1 n=f#4 v=0
8697 On ch=1 n=c#5 v=69
8703 On ch=1 n=f5 v=65
8729 On ch=1 n=f5 v=0
8731 On ch=1 n=c#5 v=0
8763 On ch=1 n=f#4 v=69
8804 On ch=1 n=f#4 v=0
8822 On ch=1 n=c5 v=57
8824 On ch=1 n=e5 v=65
8845 On ch=1 n=e5 v=0
8849 On ch=1 n=c5 v=0
8886 On ch=1 n=f#4 v=73
8921 On ch=1 n=f#4 v=0
8956 On ch=1 n=b4 v=65
8956 On ch=1 n=d#5 v=69
9029 On ch=1 n=f#4 v=69
9086 On ch=1 n=f4 v=69
9119 On ch=1 n=f#4 v=0
9134 On ch=1 n=f4 v=0
9152 On ch=1 n=f#4 v=69
9188 On ch=1 n=f#4 v=0
9199 On ch=1 n=b4 v=0
9209 On ch=1 n=d#5 v=0
9216 On ch=1 n=f#4 v=77
9218 On ch=1 n=d5 v=69
9266 On ch=1 n=d5 v=0
9286 On ch=1 n=f#4 v=0
9288 On ch=1 n=f#4 v=73
9324 On ch=1 n=f#4 v=0
9349 On ch=1 n=f4 v=69
9398 On ch=1 n=f4 v=0
9408 On ch=1 n=f#4 v=65
9445 On ch=1 n=f#4 v=0
9479 On ch=1 n=a#4 v=61
9479 On ch=1 n=c#5 v=57
9556 On ch=1 n=f#4 v=65
9580 On ch=1 n=f#4 v=0
9622 On ch=1 n=f#5 v=69
9625 On ch=1 n=d5 v=53
9682 On ch=1 n=d5 v=0
9683 On ch=1 n=f#4 v=73
9687 On ch=1 n=a#4 v=0
9687 On ch=1 n=c#5 v=0
9692 On ch=1 n=f#5 v=0
9717 On ch=1 n=f#4 v=0
9749 On ch=1 n=c#5 v=69
9754 On ch=1 n=f5 v=65
9760 On ch=1 n=g#5 v=57
9808 On ch=1 n=f5 v=0
9811 On ch=1 n=c#5 v=0
9812 On ch=1 n=g#5 v=0
9820 On ch=1 n=f#4 v=77
9850 On ch=1 n=f#4 v=0
9879 On ch=1 n=c5 v=65
9880 On ch=1 n=a#5 v=73
9882 On ch=1 n=e5 v=69
9925 On ch=1 n=a#5 v=0
9928 On ch=1 n=e5 v=0
9932 On ch=1 n=c5 v=0
9943 On ch=1 n=f#4 v=77
9979 On ch=1 n=f#4 v=0
10015 On ch=1 n=d#5 v=77
10016 On ch=1 n=b4 v=81
10017 On ch=1 n=b5 v=81
10039 On ch=1 n=b4 v=0
10078 On ch=1 n=f#4 v=69
10113 On ch=1 n=f#4 v=0
10151 On ch=1 n=f4 v=69
10183 On ch=1 n=f4 v=0
10212 On ch=1 n=f#4 v=81
10243 On ch=1 n=f#4 v=0
10283 On ch=1 n=d5 v=57
10284 On ch=1 n=g#4 v=65
10286 On ch=1 n=b5 v=0
10287 On ch=1 n=b4 v=61
10303 On ch=1 n=d#5 v=0
10306 On ch=1 n=b4 v=0
10344 On ch=1 n=f#4 v=77
10386 On ch=1 n=f#4 v=0
10411 On ch=1 n=f4 v=69
10454 On ch=1 n=f4 v=0
10477 On ch=1 n=f#4 v=73
10510 On ch=1 n=f#4 v=0
10541 On ch=1 n=a#4 v=65
10547 On ch=1 n=c#5 v=61
10596 On ch=1 n=g#4 v=0
10613 On ch=1 n=f#4 v=61
10621 On ch=1 n=d5 v=0
10659 On ch=1 n=c#5 v=0
10663 On ch=1 n=a#4 v=0
10678 On ch=1 n=f#5 v=41
10680 On ch=1 n=d5 v=49
10682 On ch=1 n=a4 v=61
10683 On ch=1 n=d3 v=65
10697 On ch=1 n=f#4 v=0
10700 On ch=1 n=d3 v=0
10748 On ch=1 n=f#5 v=0
10756 On ch=1 n=d5 v=0
10756 On ch=1 n=f#4 v=65
10758 On ch=1 n=a4 v=0
10821 On ch=1 n=d3 v=69
10823 On ch=1 n=f#5 v=65
10823 On ch=1 n=a4 v=57
10823 On ch=1 n=d5 v=57
10825 On ch=1 n=f#4 v=0
10842 On ch=1 n=d3 v=0
10891 On ch=1 n=f#4 v=77
10893 On ch=1 n=d5 v=0
10895 On ch=1 n=a4 v=0
10897 On ch=1 n=f#5 v=0
10952 On ch=1 n=f#4 v=0
10954 On ch=1 n=a4 v=69
10955 On ch=1 n=f#5 v=65
10957 On ch=1 n=d3 v=69
10959 On ch=1 n=d5 v=57
10979 On ch=1 n=d3 v=0
11004 On ch=1 n=f#5 v=0
11020 On ch=1 n=d5 v=0
11024 On ch=1 n=a4 v=0
11024 On ch=1 n=f#4 v=73
11095 On ch=1 n=a4 v=61
11097 On ch=1 n=f#5 v=65
11099 On ch=1 n=d5 v=57
11099 On ch=1 n=d3 v=69
11104 On ch=1 n=f#4 v=0
11156 On ch=1 n=d3 v=0
11167 On ch=1 n=f#4 v=69
11175 On ch=1 n=d5 v=0
11179 On ch=1 n=a4 v=0
11186 On ch=1 n=f#5 v=0
11211 On ch=1 n=f#4 v=0
11234 On ch=1 n=a3 v=61
11287 On ch=1 n=a3 v=0
11301 On ch=1 n=c#5 v=65
11307 On ch=1 n=f#4 v=61
11327 On ch=1 n=c#5 v=0
11327 On ch=1 n=d5 v=61
11348 On ch=1 n=e5 v=57
11352 On ch=1 n=d5 v=0
11376 On ch=1 n=d3 v=57
11376 On ch=1 n=a#3 v=65
11377 On ch=1 n=d5 v=65
11405 On ch=1 n=f#4 v=0
11415 On ch=1 n=e5 v=0
11442 On ch=1 n=d5 v=0
11450 On ch=1 n=g4 v=65
11504 On ch=1 n=d3 v=0
11511 On ch=1 n=a#3 v=0
11515 On ch=1 n=g3 v=57
11579 On ch=1 n=g3 v=0
11580 On ch=1 n=a#4 v=69
11582 On ch=1 n=g4 v=0
11583 On ch=1 n=e4 v=57
11624 On ch=1 n=a#4 v=0
11625 On ch=1 n=e4 v=0
11645 On ch=1 n=d3 v=41
11648 On ch=1 n=a3 v=57
11651 On ch=1 n=a4 v=65
11710 On ch=1 n=d3 v=0
11719 On ch=1 n=a3 v=0
11720 On ch=1 n=f#4 v=57
11787 On ch=1 n=f#4 v=0
11788 On ch=1 n=d5 v=69
11791 On ch=1 n=f#5 v=69
11791 On ch=1 n=d3 v=41
11793 On ch=1 n=f#3 v=45
11802 On ch=1 n=a4 v=0
11859 On ch=1 n=f#4 v=41
11866 On ch=1 n=f#3 v=0
11923 On ch=1 n=f#4 v=0
11927 On ch=1 n=g3 v=37
11993 On ch=1 n=f#4 v=61
11996 On ch=1 n=d3 v=0
11998 On ch=1 n=g3 v=0
12021 On ch=1 n=d5 v=0
12025 On ch=1 n=f#5 v=0
12059 On ch=1 n=f#4 v=0
12063 On ch=1 n=g#3 v=45
12063 On ch=1 n=d3 v=49
12069 On ch=1 n=d5 v=69
12070 On ch=1 n=f#5 v=69
12136 On ch=1 n=f#4 v=53
12201 On ch=1 n=f#4 v=0
12201 On ch=1 n=g#3 v=0
12209 On ch=1 n=a3 v=25
12224 On ch=1 n=d5 v=0
12226 On ch=1 n=f#5 v=0
12275 On ch=1 n=f#4 v=61
12277 On ch=1 n=d3 v=0
12278 On ch=1 n=a3 v=0
12344 On ch=1 n=f#4 v=0
12347 On ch=1 n=f#5 v=61
12349 On ch=1 n=d5 v=61
12351 On ch=1 n=f#3 v=29
12351 On ch=1 n=f#2 v=49
12353 On ch=1 n=a4 v=65
12416 On ch=1 n=f#4 v=37
12423 On ch=1 n=f#2 v=0
12423 On ch=1 n=f#3 v=0
12480 On ch=1 n=a4 v=0
12482 On ch=1 n=a#4 v=81
12483 On ch=1 n=f#4 v=0
12487 On ch=1 n=g2 v=53
12488 On ch=1 n=g3 v=41
12498 On ch=1 n=d5 v=0
12498 On ch=1 n=f#5 v=0
12545 On ch=1 n=f#4 v=49
12547 On ch=1 n=g2 v=0
12548 On ch=1 n=g3 v=0
12612 On ch=1 n=f#4 v=0
12613 On ch=1 n=g#3 v=37
12614 On ch=1 n=g#2 v=53
12616 On ch=1 n=f#5 v=65
12616 On ch=1 n=d5 v=61
12620 On ch=1 n=a#4 v=0
12621 On ch=1 n=b4 v=73
12684 On ch=1 n=f#4 v=61
12687 On ch=1 n=g#2 v=0
12689 On ch=1 n=g#3 v=0
12750 On ch=1 n=f#4 v=0
12752 On ch=1 n=b4 v=0
12752 On ch=1 n=a2 v=57
12753 On ch=1 n=a3 v=57
12755 On ch=1 n=c5 v=69
12815 On ch=1 n=a2 v=0
12820 On ch=1 n=a3 v=0
12820 On ch=1 n=f#4 v=49
12884 On ch=1 n=f#5 v=0
12884 On ch=1 n=d5 v=0
12886 On ch=1 n=f#4 v=0
12886 On ch=1 n=c3 v=33
12888 On ch=1 n=c4 v=25
12894 On ch=1 n=c5 v=0
12898 On ch=1 n=a#4 v=69
12968 On ch=1 n=f#4 v=29
12971 On ch=1 n=c3 v=0
12973 On ch=1 n=c4 v=0
12975 On ch=1 n=c#5 v=69
12991 On ch=1 n=d5 v=61
13000 On ch=1 n=c#5 v=0
13010 On ch=1 n=e5 v=53
13015 On ch=1 n=d5 v=0
13035 On ch=1 n=f#4 v=0
13044 On ch=1 n=b2 v=57
13044 On ch=1 n=b3 v=53
13045 On ch=1 n=g4 v=53
13046 On ch=1 n=b4 v=65
13049 On ch=1 n=e5 v=0
13049 On ch=1 n=d5 v=73
13051 On ch=1 n=a#4 v=0
13086 On ch=1 n=g4 v=0
13118 On ch=1 n=d3 v=53
13155 On ch=1 n=d3 v=0
13195 On ch=1 n=g4 v=61
13219 On ch=1 n=g4 v=0
13279 On ch=1 n=b2 v=0
13280 On ch=1 n=d3 v=53
13289 On ch=1 n=b3 v=0
13292 On ch=1 n=d3 v=0
13297 On ch=1 n=d5 v=0
13368 On ch=1 n=g4 v=49
13373 On ch=1 n=a#3 v=41
13374 On ch=1 n=a#2 v=53
13452 On ch=1 n=d3 v=37
13468 On ch=1 n=g4 v=0
13474 On ch=1 n=d3 v=0
13583 On ch=1 n=c#5 v=65
13589 On ch=1 n=d3 v=41
13605 On ch=1 n=a#3 v=0
13609 On ch=1 n=d3 v=0
13612 On ch=1 n=a#2 v=0
13617 On ch=1 n=d5 v=57
13627 On ch=1 n=c#5 v=0
13637 On ch=1 n=e5 v=57
13643 On ch=1 n=d5 v=0
13676 On ch=1 n=e5 v=0
13679 On ch=1 n=d5 v=65
13683 On ch=1 n=g2 v=29
13684 On ch=1 n=g3 v=37
13685 On ch=1 n=e4 v=29
13769 On ch=1 n=d3 v=49
13791 On ch=1 n=d3 v=0
13929 On ch=1 n=d3 v=49
13930 On ch=1 n=a#4 v=65
13939 On ch=1 n=d5 v=0
13948 On ch=1 n=g3 v=0
13952 On ch=1 n=d3 v=0
13958 On ch=1 n=g2 v=0
13974 On ch=1 n=b4 v=0
13975 On ch=1 n=e4 v=0
13995 On ch=1 n=a#4 v=0
14044 On ch=1 n=d3 v=61
14152 On ch=1 n=f#4 v=65
14153 On ch=1 n=a4 v=45
14155 On ch=1 n=d4 v=33
14361 On ch=1 n=f#4 v=0
14362 On ch=1 n=d4 v=0
14363 On ch=1 n=a4 v=0
14440 On ch=1 n=f#4 v=53
14441 On ch=1 n=a4 v=53
14443 On ch=1 n=d4 v=29
14462 On ch=1 n=d4 v=0
14463 On ch=1 n=a4 v=0
14463 On ch=1 n=f#4 v=0
14466 On ch=1 n=d3 v=0
14598 On ch=1 n=d3 v=29
14748 On ch=1 n=f#4 v=29
14749 On ch=1 n=d4 v=45
14959 On ch=1 n=d4 v=0
14967 On ch=1 n=f#4 v=0
15063 On ch=1 n=f#4 v=41
15066 On ch=1 n=d4 v=57
15085 On ch=1 n=d4 v=0
15085 On ch=1 n=f#4 v=0
15179 On ch=1 n=d3 v=0
15574 On ch=1 n=f#5 v=81
15574 On ch=1 n=f#6 v=77
15705 On ch=1 n=c#6 v=65
15710 On ch=1 n=f#5 v=0
15719 On ch=1 n=f#6 v=0
15729 On ch=1 n=d6 v=65
15734 On ch=1 n=c#6 v=0
15751 On ch=1 n=e6 v=69
15752 On ch=1 n=d6 v=0
15778 On ch=1 n=e6 v=0
15779 On ch=1 n=d6 v=77
15779 On ch=1 n=f5 v=81
15845 On ch=1 n=b3 v=65
15846 On ch=1 n=b4 v=61
15894 On ch=1 n=g#4 v=69
15937 On ch=1 n=d6 v=0
15939 On ch=1 n=f5 v=0
15947 On ch=1 n=g#4 v=0
15947 On ch=1 n=f4 v=69
15948 On ch=1 n=b5 v=73
15953 On ch=1 n=b3 v=0
15953 On ch=1 n=b4 v=0
15997 On ch=1 n=e5 v=65
15998 On ch=1 n=a#5 v=81
16033 On ch=1 n=f4 v=0
16033 On ch=1 n=b5 v=0
16063 On ch=1 n=f#4 v=57
16064 On ch=1 n=f#3 v=57
16116 On ch=1 n=c#4 v=53
16156 On ch=1 n=e5 v=0
16159 On ch=1 n=a#5 v=0
16167 On ch=1 n=c#4 v=0
16167 On ch=1 n=f#4 v=0
16171 On ch=1 n=f#3 v=0
16174 On ch=1 n=a#3 v=69
16174 On ch=1 n=c#6 v=73
16223 On ch=1 n=c#6 v=0
16224 On ch=1 n=d5 v=73
16224 On ch=1 n=f#5 v=73
16262 On ch=1 n=a#3 v=0
16289 On ch=1 n=b3 v=73
16289 On ch=1 n=b2 v=65
16338 On ch=1 n=f#3 v=69
16372 On ch=1 n=d5 v=0
16373 On ch=1 n=f#5 v=0
16396 On ch=1 n=b2 v=0
16399 On ch=1 n=d3 v=69
16401 On ch=1 n=g#5 v=77
16422 On ch=1 n=f#3 v=0
16427 On ch=1 n=b3 v=0
16441 On ch=1 n=g#5 v=0
16453 On ch=1 n=a#5 v=73
16454 On ch=1 n=c#5 v=61
16489 On ch=1 n=d3 v=0
16501 On ch=1 n=f#2 v=69
16502 On ch=1 n=f#3 v=61
16561 On ch=1 n=c#3 v=53
16605 On ch=1 n=a#5 v=0
16614 On ch=1 n=f#2 v=0
16617 On ch=1 n=c#3 v=0
16617 On ch=1 n=a#2 v=81
16618 On ch=1 n=f#5 v=81
16632 On ch=1 n=f#3 v=0
16653 On ch=1 n=c#5 v=0
16673 On ch=1 n=e5 v=61
16674 On ch=1 n=c#6 v=69
16674 On ch=1 n=e6 v=57
16711 On ch=1 n=f#5 v=0
16712 On ch=1 n=a#2 v=0
16727 On ch=1 n=e6 v=0
16729 On ch=1 n=c#6 v=0
16733 On ch=1 n=b2 v=69
16733 On ch=1 n=b3 v=65
16733 On ch=1 n=f#5 v=73
16785 On ch=1 n=e5 v=0
16787 On ch=1 n=f#5 v=0
16790 On ch=1 n=f#3 v=69
16790 On ch=1 n=d5 v=69
16790 On ch=1 n=b5 v=73
16791 On ch=1 n=d6 v=61
16838 On ch=1 n=d6 v=0
16840 On ch=1 n=d3 v=65
16841 On ch=1 n=f#5 v=77
16842 On ch=1 n=b5 v=0
16847 On ch=1 n=b2 v=0
16852 On ch=1 n=b3 v=0
16858 On ch=1 n=f#3 v=0
16897 On ch=1 n=f#5 v=0
16897 On ch=1 n=a#5 v=81
16898 On ch=1 n=c#6 v=69
16899 On ch=1 n=d5 v=0
16899 On ch=1 n=c#5 v=77
16900 On ch=1 n=d3 v=0
16946 On ch=1 n=f#4 v=73
16947 On ch=1 n=f#3 v=69
17008 On ch=1 n=c#4 v=61
17056 On ch=1 n=c#5 v=0
17060 On ch=1 n=a#5 v=0
17061 On ch=1 n=c#6 v=0
17064 On ch=1 n=f#4 v=0
17069 On ch=1 n=c#4 v=0
17069 On ch=1 n=f#3 v=0
17073 On ch=1 n=a#3 v=77
17073 On ch=1 n=f#5 v=69
17113 On ch=1 n=f#5 v=0
17127 On ch=1 n=e6 v=61
17129 On ch=1 n=a#3 v=0
17129 On ch=1 n=g5 v=53
17130 On ch=1 n=g6 v=65
17178 On ch=1 n=e4 v=69
17182 On ch=1 n=e3 v=61
17183 On ch=1 n=b5 v=69
17186 On ch=1 n=g6 v=0
17188 On ch=1 n=e6 v=0
17235 On ch=1 n=f#6 v=73
17237 On ch=1 n=f#5 v=73
17237 On ch=1 n=d6 v=73
17238 On ch=1 n=b5 v=0
17239 On ch=1 n=b3 v=81
17245 On ch=1 n=g5 v=0
17279 On ch=1 n=f#6 v=0
17284 On ch=1 n=d6 v=0
17285 On ch=1 n=b5 v=73
17287 On ch=1 n=e3 v=0
17288 On ch=1 n=g3 v=81
17290 On ch=1 n=e4 v=0
17294 On ch=1 n=b3 v=0
17338 On ch=1 n=b5 v=0
17338 On ch=1 n=f#5 v=0
17344 On ch=1 n=g3 v=0
17344 On ch=1 n=e6 v=73
17345 On ch=1 n=c#6 v=65
17345 On ch=1 n=e5 v=61
17346 On ch=1 n=a4 v=89
17347 On ch=1 n=a3 v=101
17395 On ch=1 n=c#6 v=0
17397 On ch=1 n=e6 v=0
17399 On ch=1 n=e5 v=0
17462 On ch=1 n=a5 v=93
17464 On ch=1 n=c#6 v=81
17464 On ch=1 n=e6 v=81
17466 On ch=1 n=a6 v=73
17476 On ch=1 n=a3 v=0
17477 On ch=1 n=a4 v=0
17516 On ch=1 n=e4 v=77
17541 On ch=1 n=f4 v=81
17545 On ch=1 n=e4 v=0
17562 On ch=1 n=f4 v=0
17564 On ch=1 n=g4 v=81
17587 On ch=1 n=f4 v=69
17588 On ch=1 n=g4 v=0
17589 On ch=1 n=f3 v=73
17643 On ch=1 n=c#6 v=0
17643 On ch=1 n=e6 v=0
17645 On ch=1 n=a6 v=0
17646 On ch=1 n=a5 v=0
17695 On ch=1 n=a6 v=81
17696 On ch=1 n=f6 v=81
17696 On ch=1 n=a5 v=85
17697 On ch=1 n=d6 v=81
17717 On ch=1 n=f4 v=0
17717 On ch=1 n=f3 v=0
17748 On ch=1 n=d4 v=85
17752 On ch=1 n=d3 v=65
17756 On ch=1 n=d3 v=0
17758 On ch=1 n=d4 v=0
17808 On ch=1 n=c#4 v=85
17809 On ch=1 n=c#3 v=81
17817 On ch=1 n=a6 v=0
17820 On ch=1 n=f6 v=0
17828 On ch=1 n=d6 v=0
17828 On ch=1 n=a5 v=0
17871 On ch=1 n=e6 v=65
17873 On ch=1 n=g5 v=61
17928 On ch=1 n=g5 v=0
17928 On ch=1 n=f6 v=65
17929 On ch=1 n=a5 v=69
17938 On ch=1 n=e6 v=0
17938 On ch=1 n=c#4 v=0
17974 On ch=1 n=c#3 v=0
17978 On ch=1 n=c#4 v=77
17982 On ch=1 n=e4 v=77
17983 On ch=1 n=a4 v=73
17983 On ch=1 n=g6 v=69
17984 On ch=1 n=a5 v=0
17984 On ch=1 n=f6 v=0
17985 On ch=1 n=a#5 v=69
18020 On ch=1 n=c#4 v=0
18030 On ch=1 n=e4 v=0
18033 On ch=1 n=g6 v=0
18033 On ch=1 n=a4 v=0
18037 On ch=1 n=a#5 v=0
18038 On ch=1 n=d4 v=85
18039 On ch=1 n=d3 v=81
18095 On ch=1 n=f6 v=73
18097 On ch=1 n=a5 v=69
18124 On ch=1 n=d4 v=0
18138 On ch=1 n=d3 v=0
18148 On ch=1 n=a5 v=0
18151 On ch=1 n=c#6 v=69
18152 On ch=1 n=f6 v=0
18154 On ch=1 n=e5 v=53
18206 On ch=1 n=e5 v=0
18206 On ch=1 n=g#4 v=73
18207 On ch=1 n=d4 v=81
18207 On ch=1 n=b4 v=81
18207 On ch=1 n=d6 v=73
18209 On ch=1 n=c#6 v=0
18212 On ch=1 n=f5 v=61
18264 On ch=1 n=f5 v=0
18264 On ch=1 n=d6 v=0
18265 On ch=1 n=d4 v=0
18265 On ch=1 n=a3 v=73
18266 On ch=1 n=g#4 v=0
18266 On ch=1 n=b4 v=0
18266 On ch=1 n=a2 v=77
18319 On ch=1 n=e5 v=65
18320 On ch=1 n=e6 v=61
18320 On ch=1 n=c#6 v=69
18375 On ch=1 n=g#5 v=69
18379 On ch=1 n=e5 v=0
18383 On ch=1 n=c#6 v=0
18388 On ch=1 n=e6 v=0
18429 On ch=1 n=g#5 v=0
18431 On ch=1 n=c#3 v=69
18432 On ch=1 n=a3 v=0
18434 On ch=1 n=a5 v=65
18438 On ch=1 n=a2 v=0
18463 On ch=1 n=a5 v=0
18480 On ch=1 n=c#3 v=0
18486 On ch=1 n=d3 v=69
18486 On ch=1 n=d4 v=73
18541 On ch=1 n=g5 v=61
18543 On ch=1 n=e6 v=61
18545 On ch=1 n=g6 v=65
18602 On ch=1 n=g6 v=0
18603 On ch=1 n=e6 v=0
18604 On ch=1 n=a5 v=57
18606 On ch=1 n=g5 v=0
18647 On ch=1 n=d4 v=0
18652 On ch=1 n=d3 v=0
18652 On ch=1 n=g#3 v=65
18659 On ch=1 n=a5 v=0
18660 On ch=1 n=f5 v=65
18662 On ch=1 n=f6 v=65
18662 On ch=1 n=d6 v=69
18681 On ch=1 n=f5 v=0
18684 On ch=1 n=f6 v=0
18685 On ch=1 n=d6 v=0
18695 On ch=1 n=g#3 v=0
18707 On ch=1 n=a3 v=69
18707 On ch=1 n=a4 v=81
18778 On ch=1 n=c#6 v=65
18779 On ch=1 n=e5 v=57
18780 On ch=1 n=e6 v=65
18833 On ch=1 n=g#5 v=65
18844 On ch=1 n=e5 v=0
18862 On ch=1 n=c#6 v=0
18866 On ch=1 n=e6 v=0
18881 On ch=1 n=a4 v=0
18882 On ch=1 n=a3 v=0
18885 On ch=1 n=c#4 v=73
18886 On ch=1 n=g#5 v=0
18889 On ch=1 n=a5 v=57
18910 On ch=1 n=a5 v=0
18930 On ch=1 n=c#4 v=0
18937 On ch=1 n=d4 v=73
18938 On ch=1 n=g3 v=61
18984 On ch=1 n=d4 v=0
18989 On ch=1 n=d5 v=61
18989 On ch=1 n=a#5 v=69
18990 On ch=1 n=a#6 v=53
18990 On ch=1 n=g6 v=61
19044 On ch=1 n=g6 v=0
19045 On ch=1 n=a#6 v=0
19047 On ch=1 n=a#4 v=73
19048 On ch=1 n=d6 v=57
19049 On ch=1 n=a#5 v=0
19049 On ch=1 n=d5 v=0
19099 On ch=1 n=d6 v=0
19100 On ch=1 n=a#4 v=0
19104 On ch=1 n=g4 v=69
19104 On ch=1 n=a5 v=69
19105 On ch=1 n=f6 v=69
19106 On ch=1 n=a6 v=65
19116 On ch=1 n=a6 v=0
19120 On ch=1 n=f6 v=0
19121 On ch=1 n=a5 v=0
19153 On ch=1 n=g3 v=0
19163 On ch=1 n=g4 v=0
19167 On ch=1 n=c4 v=81
19168 On ch=1 n=c5 v=77
19168 On ch=1 n=g5 v=69
19169 On ch=1 n=e6 v=73
19169 On ch=1 n=g6 v=61
19266 On ch=1 n=g5 v=0
19267 On ch=1 n=e6 v=0
19268 On ch=1 n=c4 v=0
19271 On ch=1 n=c5 v=0
19282 On ch=1 n=g6 v=0
19283 On ch=1 n=g6 v=81
19285 On ch=1 n=c7 v=101
19285 On ch=1 n=c6 v=93
19287 On ch=1 n=e6 v=85
19316 On ch=1 n=g4 v=73
19336 On ch=1 n=g#4 v=85
19345 On ch=1 n=g4 v=0
19359 On ch=1 n=a#4 v=93
19365 On ch=1 n=g#4 v=0
19383 On ch=1 n=a#4 v=0
19388 On ch=1 n=g#3 v=89
19388 On ch=1 n=g#4 v=89
19455 On ch=1 n=c7 v=0
19455 On ch=1 n=e6 v=0
19456 On ch=1 n=g6 v=0
19458 On ch=1 n=c6 v=0
19498 On ch=1 n=g#4 v=0
19504 On ch=1 n=g#3 v=0
19525 On ch=1 n=c6 v=93
19525 On ch=1 n=g#6 v=81
19526 On ch=1 n=c7 v=93
19527 On ch=1 n=f6 v=85
19581 On ch=1 n=f4 v=85
19581 On ch=1 n=f3 v=81
19591 On ch=1 n=f3 v=0
19591 On ch=1 n=f4 v=0
19636 On ch=1 n=c#4 v=101
19637 On ch=1 n=c#3 v=101
19671 On ch=1 n=c7 v=0
19676 On ch=1 n=c6 v=0
19685 On ch=1 n=f6 v=0
19690 On ch=1 n=g#6 v=0
19738 On ch=1 n=c#4 v=0
19741 On ch=1 n=c#3 v=0
19773 On ch=1 n=c#6 v=81
19774 On ch=1 n=c#7 v=93
19775 On ch=1 n=g#6 v=73
19775 On ch=1 n=f6 v=81
19780 On ch=1 n=b6 v=65
19818 On ch=1 n=g#3 v=73
19842 On ch=1 n=g#3 v=0
19842 On ch=1 n=a3 v=81
19858 On ch=1 n=a3 v=0
19861 On ch=1 n=b3 v=85
19891 On ch=1 n=a2 v=89
19894 On ch=1 n=a3 v=93
19896 On ch=1 n=b3 v=0
19918 On ch=1 n=b6 v=0
19920 On ch=1 n=f6 v=0
19924 On ch=1 n=g#6 v=0
19927 On ch=1 n=c#6 v=0
19936 On ch=1 n=c#7 v=0
19991 On ch=1 n=a3 v=0
19992 On ch=1 n=a2 v=0
20024 On ch=1 n=c#7 v=89
20024 On ch=1 n=c#6 v=81
20025 On ch=1 n=f#6 v=81
20027 On ch=1 n=a6 v=77
20075 On ch=1 n=f#3 v=89
20076 On ch=1 n=f#2 v=89
20086 On ch=1 n=f#2 v=0
20089 On ch=1 n=f#3 v=0
20144 On ch=1 n=d2 v=101
20145 On ch=1 n=d3 v=109
20231 On ch=1 n=d2 v=0
20236 On ch=1 n=f#6 v=0
20240 On ch=1 n=a6 v=0
20240 On ch=1 n=c#7 v=0
20241 On ch=1 n=c#6 v=0
20270 On ch=1 n=d3 v=0
20271 On ch=1 n=f#6 v=81
20272 On ch=1 n=c#7 v=81
20272 On ch=1 n=f#7 v=85
20302 On ch=1 n=f#6 v=0
20308 On ch=1 n=f#7 v=0
20308 On ch=1 n=c#7 v=0
20320 On ch=1 n=f#4 v=73
20321 On ch=1 n=d4 v=61
20322 On ch=1 n=a4 v=69
20382 On ch=1 n=g#3 v=69
20383 On ch=1 n=g#2 v=69
20383 On ch=1 n=d6 v=81
20385 On ch=1 n=d7 v=81
20387 On ch=1 n=f#6 v=81
20447 On ch=1 n=d6 v=0
20449 On ch=1 n=f#6 v=0
20450 On ch=1 n=d7 v=0
20468 On ch=1 n=d4 v=0
20468 On ch=1 n=a4 v=0
20474 On ch=1 n=f#4 v=0
20497 On ch=1 n=g#3 v=0
20497 On ch=1 n=b6 v=73
20498 On ch=1 n=d6 v=85
20499 On ch=1 n=b5 v=81
20502 On ch=1 n=g#2 v=0
20530 On ch=1 n=b6 v=0
20532 On ch=1 n=d6 v=0
20532 On ch=1 n=b5 v=0
20548 On ch=1 n=f#4 v=69
20548 On ch=1 n=d4 v=65
20549 On ch=1 n=g#4 v=69
20607 On ch=1 n=g#4 v=0
20610 On ch=1 n=d4 v=0
20610 On ch=1 n=f#4 v=0
20615 On ch=1 n=f2 v=69
20615 On ch=1 n=f3 v=61
20616 On ch=1 n=c#7 v=93
20616 On ch=1 n=c#6 v=81
20617 On ch=1 n=g#6 v=73
20668 On ch=1 n=g#6 v=0
20668 On ch=1 n=c#6 v=0
20678 On ch=1 n=c#7 v=0
20728 On ch=1 n=a6 v=81
20728 On ch=1 n=c#6 v=81
20729 On ch=1 n=a5 v=89
20755 On ch=1 n=a5 v=0
20758 On ch=1 n=c#6 v=0
20762 On ch=1 n=a6 v=0
20777 On ch=1 n=f3 v=0
20778 On ch=1 n=f2 v=0
20780 On ch=1 n=c#4 v=57
20781 On ch=1 n=f4 v=69
20784 On ch=1 n=a4 v=57
20847 On ch=1 n=a4 v=0
20848 On ch=1 n=c#4 v=0
20849 On ch=1 n=f4 v=0
20850 On ch=1 n=f5 v=85
20851 On ch=1 n=f6 v=81
20851 On ch=1 n=a2 v=65
20852 On ch=1 n=a3 v=61
20852 On ch=1 n=c#6 v=73
20887 On ch=1 n=f5 v=0
20897 On ch=1 n=c#6 v=0
20898 On ch=1 n=f6 v=0
20970 On ch=1 n=f#6 v=81
20971 On ch=1 n=f#5 v=81
20972 On ch=1 n=c#6 v=73
21024 On ch=1 n=c#4 v=69
21024 On ch=1 n=f#4 v=73
21026 On ch=1 n=a4 v=57
21036 On ch=1 n=f#5 v=0
21036 On ch=1 n=a2 v=0
21037 On ch=1 n=a3 v=0
21038 On ch=1 n=c#6 v=0
21043 On ch=1 n=f#6 v=0
21068 On ch=1 n=c#4 v=0
21068 On ch=1 n=f#4 v=0
21074 On ch=1 n=a4 v=0
21079 On ch=1 n=d4 v=81
21081 On ch=1 n=d3 v=77
21089 On ch=1 n=d3 v=0
21090 On ch=1 n=d4 v=0
21134 On ch=1 n=d6 v=73
21134 On ch=1 n=d5 v=69
21152 On ch=1 n=d5 v=0
21156 On ch=1 n=d6 v=0
21189 On ch=1 n=c#4 v=85
21191 On ch=1 n=c#3 v=77
21193 On ch=1 n=c#6 v=77
21193 On ch=1 n=c#5 v=77
21201 On ch=1 n=c#5 v=0
21205 On ch=1 n=c#4 v=0
21206 On ch=1 n=c#6 v=0
21206 On ch=1 n=c#3 v=0
21244 On ch=1 n=c4 v=85
21245 On ch=1 n=c3 v=77
21246 On ch=1 n=c5 v=85
21249 On ch=1 n=c6 v=81
21259 On ch=1 n=c3 v=0
21260 On ch=1 n=c4 v=0
21265 On ch=1 n=c5 v=0
21271 On ch=1 n=c6 v=0
21307 On ch=1 n=c#4 v=81
21310 On ch=1 n=c#3 v=73
21356 On ch=1 n=c#3 v=0
21357 On ch=1 n=c#4 v=0
21360 On ch=1 n=c#5 v=69
21360 On ch=1 n=c#6 v=61
21377 On ch=1 n=c#5 v=0
21380 On ch=1 n=c#6 v=0
21414 On ch=1 n=d#4 v=85
21415 On ch=1 n=d#3 v=77
21417 On ch=1 n=d#5 v=81
21418 On ch=1 n=d#6 v=85
21426 On ch=1 n=d#3 v=0
21429 On ch=1 n=d#4 v=0
21429 On ch=1 n=d#5 v=0
21431 On ch=1 n=d#6 v=0
21467 On ch=1 n=f5 v=93
21468 On ch=1 n=f6 v=69
21470 On ch=1 n=f4 v=85
21472 On ch=1 n=f3 v=73
21479 On ch=1 n=f3 v=0
21479 On ch=1 n=f5 v=0
21480 On ch=1 n=f4 v=0
21487 On ch=1 n=f6 v=0
21527 On ch=1 n=f#4 v=77
21529 On ch=1 n=f#3 v=69
21578 On ch=1 n=f#3 v=0
21580 On ch=1 n=f#6 v=73
21581 On ch=1 n=f#5 v=69
21585 On ch=1 n=f#4 v=0
21595 On ch=1 n=f#5 v=0
21598 On ch=1 n=f#6 v=0
21632 On ch=1 n=g#4 v=85
21635 On ch=1 n=g#5 v=81
21635 On ch=1 n=g#3 v=69
21635 On ch=1 n=g#6 v=85
21645 On ch=1 n=g#5 v=0
21646 On ch=1 n=g#3 v=0
21648 On ch=1 n=g#4 v=0
21648 On ch=1 n=g#6 v=0
21687 On ch=1 n=a5 v=89
21687 On ch=1 n=a6 v=81
21689 On ch=1 n=a4 v=81
21690 On ch=1 n=a3 v=73
21695 On ch=1 n=a3 v=0
21697 On ch=1 n=a5 v=0
21701 On ch=1 n=a4 v=0
21706 On ch=1 n=a6 v=0
21745 On ch=1 n=b4 v=73
21746 On ch=1 n=b3 v=73
21791 On ch=1 n=b3 v=0
21796 On ch=1 n=b4 v=0
21799 On ch=1 n=b6 v=69
21800 On ch=1 n=b5 v=69
21811 On ch=1 n=b5 v=0
21818 On ch=1 n=b6 v=0
21852 On ch=1 n=c#5 v=85
21853 On ch=1 n=c#6 v=81
21854 On ch=1 n=c#4 v=77
21854 On ch=1 n=c#7 v=93
21866 On ch=1 n=c#4 v=0
21867 On ch=1 n=c#5 v=0
21867 On ch=1 n=c#6 v=0
21871 On ch=1 n=c#7 v=0
21902 On ch=1 n=d6 v=89
21903 On ch=1 n=d7 v=81
21904 On ch=1 n=d5 v=81
21906 On ch=1 n=d4 v=77
21913 On ch=1 n=d7 v=0
21915 On ch=1 n=d6 v=0
21915 On ch=1 n=d5 v=0
21919 On ch=1 n=d4 v=0
21970 On ch=1 n=f4 v=77
21975 On ch=1 n=f3 v=65
22036 On ch=1 n=f3 v=0
22037 On ch=1 n=f5 v=77
22037 On ch=1 n=f6 v=69
22042 On ch=1 n=f4 v=0
22102 On ch=1 n=f#4 v=81
22106 On ch=1 n=f#3 v=65
22116 On ch=1 n=f6 v=0
22124 On ch=1 n=f5 v=0
22151 On ch=1 n=f#4 v=0
22153 On ch=1 n=f#3 v=0
22175 On ch=1 n=f#5 v=77
22175 On ch=1 n=f#6 v=77
22211 On ch=1 n=f#5 v=0
22221 On ch=1 n=f#6 v=0
22247 On ch=1 n=c4 v=65
22248 On ch=1 n=c3 v=65
22318 On ch=1 n=c6 v=69
22322 On ch=1 n=c5 v=57
22369 On ch=1 n=c5 v=0
22375 On ch=1 n=c6 v=0
22397 On ch=1 n=c#4 v=73
22399 On ch=1 n=c#3 v=69
22434 On ch=1 n=c#4 v=0
22435 On ch=1 n=c3 v=0
22451 On ch=1 n=c4 v=0
22456 On ch=1 n=c#3 v=0
22481 On ch=1 n=c#6 v=73
22482 On ch=1 n=c#5 v=73
22537 On ch=1 n=c#5 v=0
22546 On ch=1 n=c#6 v=0
22576 On ch=1 n=f#2 v=77
22579 On ch=1 n=f#3 v=69
22703 On ch=1 n=f#4 v=73
22747 On ch=1 n=f#4 v=0
22770 On ch=1 n=g#4 v=69
22771 On ch=1 n=f4 v=61
22809 On ch=1 n=f4 v=0
22814 On ch=1 n=g#4 v=0
22835 On ch=1 n=f#4 v=73
22874 On ch=1 n=f#4 v=0
22897 On ch=1 n=c#4 v=81
22902 On ch=1 n=a4 v=65
22930 On ch=1 n=f#3 v=0
22931 On ch=1 n=f#2 v=0
22943 On ch=1 n=c#4 v=0
22957 On ch=1 n=a4 v=0
22968 On ch=1 n=f#4 v=73
23010 On ch=1 n=f#4 v=0
23031 On ch=1 n=g#4 v=77
23036 On ch=1 n=f4 v=65
23069 On ch=1 n=f4 v=0
23080 On ch=1 n=g#4 v=0
23096 On ch=1 n=f#4 v=77
23135 On ch=1 n=f#4 v=0
23182 On ch=1 n=f#3 v=65
23268 On ch=1 n=f#3 v=0
23279 On ch=1 n=f#4 v=73
23319 On ch=1 n=f#4 v=0
23346 On ch=1 n=g#4 v=69
23350 On ch=1 n=f4 v=61
23387 On ch=1 n=f4 v=0
23393 On ch=1 n=g#4 v=0
23403 On ch=1 n=f#4 v=77
23439 On ch=1 n=f#4 v=0
23476 On ch=1 n=d4 v=77
23477 On ch=1 n=b4 v=69
23517 On ch=1 n=d4 v=0
23526 On ch=1 n=b4 v=0
23544 On ch=1 n=f#4 v=69
23574 On ch=1 n=f#4 v=0
23618 On ch=1 n=g#4 v=65
23619 On ch=1 n=f4 v=69
23656 On ch=1 n=f4 v=0
23657 On ch=1 n=g#4 v=0
23685 On ch=1 n=f#4 v=77
23722 On ch=1 n=f#4 v=0
23762 On ch=1 n=f#3 v=69
23812 On ch=1 n=f#3 v=0
23862 On ch=1 n=f#4 v=69
23900 On ch=1 n=f#4 v=0
23930 On ch=1 n=d5 v=61
23931 On ch=1 n=f#5 v=61
23961 On ch=1 n=f#5 v=0
23963 On ch=1 n=d5 v=0
23995 On ch=1 n=f#4 v=61
24028 On ch=1 n=f#4 v=0
24054 On ch=1 n=c#5 v=69
24060 On ch=1 n=f5 v=65
24086 On ch=1 n=f5 v=0
24088 On ch=1 n=c#5 v=0
24120 On ch=1 n=f#4 v=69
24161 On ch=1 n=f#4 v=0
24179 On ch=1 n=c5 v=57
24181 On ch=1 n=e5 v=65
24202 On ch=1 n=e5 v=0
24206 On ch=1 n=c5 v=0
24243 On ch=1 n=f#4 v=73
24278 On ch=1 n=f#4 v=0
24313 On ch=1 n=b4 v=65
24313 On ch=1 n=d#5 v=69
24386 On ch=1 n=f#4 v=69
24443 On ch=1 n=f4 v=69
24476 On ch=1 n=f#4 v=0
24491 On ch=1 n=f4 v=0
24509 On ch=1 n=f#4 v=69
24545 On ch=1 n=f#4 v=0
24556 On ch=1 n=b4 v=0
24566 On ch=1 n=d#5 v=0
24573 On ch=1 n=f#4 v=77
24575 On ch=1 n=d5 v=69
24623 On ch=1 n=d5 v=0
24643 On ch=1 n=f#4 v=0
24645 On ch=1 n=f#4 v=73
24681 On ch=1 n=f#4 v=0
24706 On ch=1 n=f4 v=69
24755 On ch=1 n=f4 v=0
24765 On ch=1 n=f#4 v=65
24802 On ch=1 n=f#4 v=0
24836 On ch=1 n=a#4 v=61
24836 On ch=1 n=c#5 v=57
24913 On ch=1 n=f#4 v=65
24937 On ch=1 n=f#4 v=0
24979 On ch=1 n=f#5 v=69
24982 On ch=1 n=d5 v=53
25039 On ch=1 n=d5 v=0
25040 On ch=1 n=f#4 v=73
25044 On ch=1 n=a#4 v=0
25044 On ch=1 n=c#5 v=0
25049 On ch=1 n=f#5 v=0
25074 On ch=1 n=f#4 v=0
25106 On ch=1 n=c#5 v=69
25111 On ch=1 n=f5 v=65
25117 On ch=1 n=g#5 v=57
25165 On ch=1 n=f5 v=0
25168 On ch=1 n=c#5 v=0
25169 On ch=1 n=g#5 v=0
25177 On ch=1 n=f#4 v=77
25207 On ch=1 n=f#4 v=0
25236 On ch=1 n=c5 v=65
25237 On ch=1 n=a#5 v=73
25239 On ch=1 n=e5 v=69
25282 On ch=1 n=a#5 v=0
25285 On ch=1 n=e5 v=0
25289 On ch=1 n=c5 v=0
25300 On ch=1 n=f#4 v=77
25336 On ch=1 n=f#4 v=0
25372 On ch=1 n=d#5 v=77
25373 On ch=1 n=b4 v=81
25374 On ch=1 n=b5 v=81
25396 On ch=1 n=b4 v=0
25435 On ch=1 n=f#4 v=69
25470 On ch=1 n=f#4 v=0
25508 On ch=1 n=f4 v=69
25540 On ch=1 n=f4 v=0
25569 On ch=1 n=f#4 v=81
25600 On ch=1 n=f#4 v=0
25640 On ch=1 n=d5 v=57
25641 On ch=1 n=g#4 v=65
25643 On ch=1 n=b5 v=0
25644 On ch=1 n=b4 v=61
25660 On ch=1 n=d#5 v=0
25663 On ch=1 n=b4 v=0
25701 On ch=1 n=f#4 v=77
25743 On ch=1 n=f#4 v=0
25768 On ch=1 n=f4 v=69
25811 On ch=1 n=f4 v=0
25834 On ch=1 n=f#4 v=73
25867 On ch=1 n=f#4 v=0
25898 On ch=1 n=a#4 v=65
25904 On ch=1 n=c#5 v=61
25953 On ch=1 n=g#4 v=0
25970 On ch=1 n=f#4 v=61
25978 On ch=1 n=d5 v=0
26016 On ch=1 n=c#5 v=0
26020 On ch=1 n=a#4 v=0
26035 On ch=1 n=f#5 v=41
26037 On ch=1 n=d5 v=49
26039 On ch=1 n=a4 v=61
26040 On ch=1 n=d3 v=65
26054 On ch=1 n=f#4 v=0
26057 On ch=1 n=d3 v=0
26105 On ch=1 n=f#5 v=0
26113 On ch=1 n=d5 v=0
26113 On ch=1 n=f#4 v=65
26115 On ch=1 n=a4 v=0
26178 On ch=1 n=d3 v=69
26180 On ch=1 n=f#5 v=65
26180 On ch=1 n=a4 v=57
26180 On ch=1 n=d5 v=57
26182 On ch=1 n=f#4 v=0
26199 On ch=1 n=d3 v=0
26248 On ch=1 n=f#4 v=77
26250 On ch=1 n=d5 v=0
26252 On ch=1 n=a4 v=0
26254 On ch=1 n=f#5 v=0
26309 On ch=1 n=f#4 v=0
26311 On ch=1 n=a4 v=69
26312 On ch=1 n=f#5 v=65
26314 On ch=1 n=d3 v=69
26316 On ch=1 n=d5 v=57
26336 On ch=1 n=d3 v=0
26361 On ch=1 n=f#5 v=0
26377 On ch=1 n=d5 v=0
26381 On ch=1 n=a4 v=0
26381 On ch=1 n=f#4 v=73
26452 On ch=1 n=a4 v=61
26454 On ch=1 n=f#5 v=65
26456 On ch=1 n=d5 v=57
26456 On ch=1 n=d3 v=69
26461 On ch=1 n=f#4 v=0
26513 On ch=1 n=d3 v=0
26524 On ch=1 n=f#4 v=69
26532 On ch=1 n=d5 v=0
26536 On ch=1 n=a4 v=0
26543 On ch=1 n=f#5 v=0
26568 On ch=1 n=f#4 v=0
26591 On ch=1 n=a3 v=61
26644 On ch=1 n=a3 v=0
26658 On ch=1 n=c#5 v=65
26664 On ch=1 n=f#4 v=61
26684 On ch=1 n=c#5 v=0
26684 On ch=1 n=d5 v=61
26705 On ch=1 n=e5 v=57
26709 On ch=1 n=d5 v=0
26733 On ch=1 n=d3 v=57
26733 On ch=1 n=a#3 v=65
26734 On ch=1 n=d5 v=65
26762 On ch=1 n=f#4 v=0
26772 On ch=1 n=e5 v=0
26799 On ch=1 n=d5 v=0
26807 On ch=1 n=g4 v=65
26861 On ch=1 n=d3 v=0
26868 On ch=1 n=a#3 v=0
26872 On ch=1 n=g3 v=57
26936 On ch=1 n=g3 v=0
26937 On ch=1 n=a#4 v=69
26939 On ch=1 n=g4 v=0
26940 On ch=1 n=e4 v=57
26981 On ch=1 n=a#4 v=0
26982 On ch=1 n=e4 v=0
27002 On ch=1 n=d3 v=41
27005 On ch=1 n=a3 v=57
27008 On ch=1 n=a4 v=65
27067 On ch=1 n=d3 v=0
27076 On ch=1 n=a3 v=0
27077 On ch=1 n=f#4 v=57
27144 On ch=1 n=f#4 v=0
27145 On ch=1 n=d5 v=69
27148 On ch=1 n=f#5 v=69
27148 On ch=1 n=d3 v=41
27150 On ch=1 n=f#3 v=45
27159 On ch=1 n=a4 v=0
27216 On ch=1 n=f#4 v=41
27223 On ch=1 n=f#3 v=0
27280 On ch=1 n=f#4 v=0
27284 On ch=1 n=g3 v=37
27350 On ch=1 n=f#4 v=61
27353 On ch=1 n=d3 v=0
27355 On ch=1 n=g3 v=0
27378 On ch=1 n=d5 v=0
27382 On ch=1 n=f#5 v=0
27416 On ch=1 n=f#4 v=0
27420 On ch=1 n=g#3 v=45
27420 On ch=1 n=d3 v=49
27426 On ch=1 n=d5 v=69
27427 On ch=1 n=f#5 v=69
27493 On ch=1 n=f#4 v=53
27558 On ch=1 n=f#4 v=0
27558 On ch=1 n=g#3 v=0
27566 On ch=1 n=a3 v=25
27581 On ch=1 n=d5 v=0
27583 On ch=1 n=f#5 v=0
27632 On ch=1 n=f#4 v=61
27634 On ch=1 n=d3 v=0
27635 On ch=1 n=a3 v=0
27701 On ch=1 n=f#4 v=0
27704 On ch=1 n=f#5 v=61
27706 On ch=1 n=d5 v=61
27708 On ch=1 n=f#3 v=29
27708 On ch=1 n=f#2 v=49
27710 On ch=1 n=a4 v=65
27773 On ch=1 n=f#4 v=37
27780 On ch=1 n=f#2 v=0
27780 On ch=1 n=f#3 v=0
27837 On ch=1 n=a4 v=0
27839 On ch=1 n=a#4 v=81
27840 On ch=1 n=f#4 v=0
27844 On ch=1 n=g2 v=53
27845 On ch=1 n=g3 v=41
27855 On ch=1 n=d5 v=0
27855 On ch=1 n=f#5 v=0
27902 On ch=1 n=f#4 v=49
27904 On ch=1 n=g2 v=0
27905 On ch=1 n=g3 v=0
27969 On ch=1 n=f#4 v=0
27970 On ch=1 n=g#3 v=37
27971 On ch=1 n=g#2 v=53
27973 On ch=1 n=f#5 v=65
27973 On ch=1 n=d5 v=61
27977 On ch=1 n=a#4 v=0
27978 On ch=1 n=b4 v=73
28041 On ch=1 n=f#4 v=61
28044 On ch=1 n=g#2 v=0
28046 On ch=1 n=g#3 v=0
28107 On ch=1 n=f#4 v=0
28109 On ch=1 n=b4 v=0
28109 On ch=1 n=a2 v=57
28110 On ch=1 n=a3 v=57
28112 On ch=1 n=c5 v=69
28172 On ch=1 n=a2 v=0
28177 On ch=1 n=a3 v=0
28177 On ch=1 n=f#4 v=49
28241 On ch=1 n=f#5 v=0
28241 On ch=1 n=d5 v=0
28243 On ch=1 n=f#4 v=0
28243 On ch=1 n=c3 v=33
28245 On ch=1 n=c4 v=25
28251 On ch=1 n=c5 v=0
28255 On ch=1 n=a#4 v=69
28325 On ch=1 n=f#4 v=29
28328 On ch=1 n=c3 v=0
28330 On ch=1 n=c4 v=0
28332 On ch=1 n=c#5 v=69
28348 On ch=1 n=d5 v=61
28357 On ch=1 n=c#5 v=0
28367 On ch=1 n=e5 v=53
28372 On ch=1 n=d5 v=0
28392 On ch=1 n=f#4 v=0
28401 On ch=1 n=b2 v=57
28401 On ch=1 n=b3 v=53
28402 On ch=1 n=g4 v=53
28403 On ch=1 n=b4 v=65
28406 On ch=1 n=e5 v=0
28406 On ch=1 n=d5 v=73
28408 On ch=1 n=a#4 v=0
28443 On ch=1 n=g4 v=0
28475 On ch=1 n=d3 v=53
28512 On ch=1 n=d3 v=0
28552 On ch=1 n=g4 v=61
28576 On ch=1 n=g4 v=0
28636 On ch=1 n=b2 v=0
28637 On ch=1 n=d3 v=53
28646 On ch=1 n=b3 v=0
28649 On ch=1 n=d3 v=0
28654 On ch=1 n=d5 v=0
28725 On ch=1 n=g4 v=49
28730 On ch=1 n=a#3 v=41
28731 On ch=1 n=a#2 v=53
28809 On ch=1 n=d3 v=37
28825 On ch=1 n=g4 v=0
28831 On ch=1 n=d3 v=0
28940 On ch=1 n=c#5 v=65
28946 On ch=1 n=d3 v=41
28962 On ch=1 n=a#3 v=0
28966 On ch=1 n=d3 v=0
28969 On ch=1 n=a#2 v=0
28974 On ch=1 n=d5 v=57
28984 On ch=1 n=c#5 v=0
28994 On ch=1 n=e5 v=57
29000 On ch=1 n=d5 v=0
29033 On ch=1 n=e5 v=0
29036 On ch=1 n=d5 v=65
29040 On ch=1 n=g2 v=29
29041 On ch=1 n=g3 v=37
29042 On ch=1 n=e4 v=29
29126 On ch=1 n=d3 v=49
29148 On ch=1 n=d3 v=0
29286 On ch=1 n=d3 v=49
29287 On ch=1 n=a#4 v=65
29296 On ch=1 n=d5 v=0
29305 On ch=1 n=g3 v=0
29309 On ch=1 n=d3 v=0
29315 On ch=1 n=g2 v=0
29331 On ch=1 n=b4 v=0
29332 On ch=1 n=e4 v=0
29352 On ch=1 n=a#4 v=0
29401 On ch=1 n=d3 v=61
29509 On ch=1 n=f#4 v=65
29510 On ch=1 n=a4 v=45
29512 On ch=1 n=d4 v=33
29718 On ch=1 n=f#4 v=0
29719 On ch=1 n=d4 v=0
29720 On ch=1 n=a4 v=0
29797 On ch=1 n=f#4 v=53
29798 On ch=1 n=a4 v=53
29800 On ch=1 n=d4 v=29
29819 On ch=1 n=d4 v=0
29820 On ch=1 n=a4 v=0
29820 On ch=1 n=f#4 v=0
29823 On ch=1 n=d3 v=0
29955 On ch=1 n=d3 v=29
30105 On ch=1 n=f#4 v=29
30106 On ch=1 n=d4 v=45
30316 On ch=1 n=d4 v=0
30324 On ch=1 n=f#4 v=0
30420 On ch=1 n=f#4 v=41
30423 On ch=1 n=d4 v=57
30442 On ch=1 n=d4 v=0
30442 On ch=1 n=f#4 v=0
30536 On ch=1 n=d3 v=0
31263 On ch=1 n=a5 v=61
31263 On ch=1 n=d3 v=41
31342 On ch=1 n=f5 v=57
31353 On ch=1 n=a5 v=0
31411 On ch=1 n=d5 v=65
31412 On ch=1 n=d6 v=65
31434 On ch=1 n=f5 v=0
31488 On ch=1 n=d5 v=0
31488 On ch=1 n=a4 v=65
31566 On ch=1 n=d6 v=0
31568 On ch=1 n=d4 v=57
31570 On ch=1 n=e6 v=61
31570 On ch=1 n=g4 v=65
31572 On ch=1 n=a4 v=0
31573 On ch=1 n=d3 v=0
31641 On ch=1 n=g4 v=0
31644 On ch=1 n=a#4 v=69
31713 On ch=1 n=c#5 v=61
31717 On ch=1 n=a#4 v=0
31781 On ch=1 n=c#5 v=0
31784 On ch=1 n=e5 v=45
31862 On ch=1 n=d3 v=73
31863 On ch=1 n=a5 v=69
31866 On ch=1 n=e5 v=0
31867 On ch=1 n=d4 v=0
31935 On ch=1 n=f5 v=57
31937 On ch=1 n=a5 v=0
32007 On ch=1 n=d6 v=69
32012 On ch=1 n=d5 v=69
32027 On ch=1 n=e6 v=0
32041 On ch=1 n=f5 v=0
32084 On ch=1 n=a4 v=61
32088 On ch=1 n=d5 v=0
32159 On ch=1 n=e6 v=61
32164 On ch=1 n=g4 v=57
32165 On ch=1 n=d4 v=37
32169 On ch=1 n=a4 v=0
32170 On ch=1 n=d6 v=0
32170 On ch=1 n=d3 v=0
32235 On ch=1 n=g4 v=0
32238 On ch=1 n=a#4 v=61
32308 On ch=1 n=a#4 v=0
32310 On ch=1 n=c#5 v=57
32379 On ch=1 n=c#5 v=0
32387 On ch=1 n=e5 v=37
32421 On ch=1 n=e6 v=0
32444 On ch=1 n=d4 v=0
32455 On ch=1 n=a5 v=53
32456 On ch=1 n=d3 v=73
32460 On ch=1 n=e5 v=0
32536 On ch=1 n=f5 v=37
32604 On ch=1 n=d3 v=0
32608 On ch=1 n=d6 v=57
32610 On ch=1 n=d5 v=61
32684 On ch=1 n=a4 v=57
32754 On ch=1 n=e6 v=73
32756 On ch=1 n=g4 v=61
32767 On ch=1 n=d6 v=0
32834 On ch=1 n=d4 v=57
32864 On ch=1 n=a5 v=0
32876 On ch=1 n=d5 v=0
32877 On ch=1 n=a4 v=0
32881 On ch=1 n=f5 v=0
32907 On ch=1 n=f6 v=77
32909 On ch=1 n=a#3 v=61
32915 On ch=1 n=e6 v=0
32980 On ch=1 n=g3 v=65
32995 On ch=1 n=a#3 v=0
33001 On ch=1 n=d4 v=0
33022 On ch=1 n=g4 v=0
33055 On ch=1 n=e3 v=61
33057 On ch=1 n=g6 v=81
33061 On ch=1 n=f6 v=0
33064 On ch=1 n=g3 v=0
33129 On ch=1 n=e4 v=65
33207 On ch=1 n=a#4 v=69
33207 On ch=1 n=f6 v=61
33215 On ch=1 n=g6 v=0
33218 On ch=1 n=e3 v=0
33248 On ch=1 n=e4 v=0
33277 On ch=1 n=d5 v=53
33278 On ch=1 n=g6 v=65
33288 On ch=1 n=a#4 v=0
33288 On ch=1 n=f6 v=0
33350 On ch=1 n=f6 v=69
33351 On ch=1 n=a3 v=57
33356 On ch=1 n=g6 v=0
33362 On ch=1 n=d5 v=0
33424 On ch=1 n=a4 v=69
33499 On ch=1 n=c#5 v=61
33500 On ch=1 n=e6 v=61
33505 On ch=1 n=a3 v=0
33508 On ch=1 n=f6 v=0
33520 On ch=1 n=a4 v=0
33574 On ch=1 n=a5 v=53
33594 On ch=1 n=c#5 v=0
33633 On ch=1 n=e6 v=0
33647 On ch=1 n=d3 v=49
33648 On ch=1 n=a#5 v=57
33649 On ch=1 n=d6 v=61
33659 On ch=1 n=a5 v=0
33731 On ch=1 n=g5 v=49
33802 On ch=1 n=e5 v=69
33802 On ch=1 n=g6 v=81
33828 On ch=1 n=d6 v=0
33874 On ch=1 n=c#5 v=65
33939 On ch=1 n=a#5 v=0
33953 On ch=1 n=a6 v=81
33954 On ch=1 n=g5 v=0
33956 On ch=1 n=c5 v=61
33958 On ch=1 n=e5 v=0
33959 On ch=1 n=d4 v=65
33961 On ch=1 n=g6 v=0
33968 On ch=1 n=c#5 v=0
33982 On ch=1 n=d3 v=0
34030 On ch=1 n=d#5 v=61
34087 On ch=1 n=c5 v=0
34109 On ch=1 n=f#5 v=61
34112 On ch=1 n=d#5 v=0
34184 On ch=1 n=a5 v=49
34200 On ch=1 n=f#5 v=0
34258 On ch=1 n=d6 v=57
34260 On ch=1 n=a5 v=0
34260 On ch=1 n=a#5 v=65
34262 On ch=1 n=d3 v=41
34273 On ch=1 n=d4 v=0
34276 On ch=1 n=a6 v=0
34338 On ch=1 n=g5 v=57
34413 On ch=1 n=g6 v=81
34414 On ch=1 n=e5 v=65
34426 On ch=1 n=d6 v=0
34486 On ch=1 n=c#5 v=69
34561 On ch=1 n=d4 v=61
34562 On ch=1 n=c5 v=57
34563 On ch=1 n=a6 v=85
34567 On ch=1 n=e5 v=0
34570 On ch=1 n=g6 v=0
34570 On ch=1 n=g5 v=0
34573 On ch=1 n=c#5 v=0
34585 On ch=1 n=a#5 v=0
34640 On ch=1 n=d#5 v=49
34670 On ch=1 n=d3 v=0
34693 On ch=1 n=c5 v=0
34714 On ch=1 n=f#5 v=61
34722 On ch=1 n=d#5 v=0
34776 On ch=1 n=d4 v=0
34793 On ch=1 n=a5 v=37
34797 On ch=1 n=f#5 v=0
34807 On ch=1 n=a6 v=0
34861 On ch=1 n=d6 v=61
34866 On ch=1 n=a#5 v=61
34866 On ch=1 n=d3 v=53
34869 On ch=1 n=a5 v=0
34940 On ch=1 n=g5 v=61
34945 On ch=1 n=a#5 v=0
35015 On ch=1 n=g6 v=77
35016 On ch=1 n=g5 v=0
35019 On ch=1 n=e5 v=57
35094 On ch=1 n=e5 v=0
35096 On ch=1 n=c#5 v=65
35174 On ch=1 n=a#4 v=69
35175 On ch=1 n=a6 v=73
35177 On ch=1 n=c#5 v=0
35184 On ch=1 n=d6 v=0
35187 On ch=1 n=g6 v=0
35251 On ch=1 n=g4 v=57
35260 On ch=1 n=a#4 v=0
35326 On ch=1 n=g4 v=0
35332 On ch=1 n=a#6 v=77
35332 On ch=1 n=e4 v=57
35340 On ch=1 n=a6 v=0
35401 On ch=1 n=d3 v=0
35412 On ch=1 n=e4 v=0
35413 On ch=1 n=c#4 v=69
35491 On ch=1 n=c7 v=89
35492 On ch=1 n=d3 v=53
35497 On ch=1 n=a3 v=61
35499 On ch=1 n=c#4 v=0
35500 On ch=1 n=a#6 v=0
35573 On ch=1 n=d4 v=61
35652 On ch=1 n=d3 v=0
35653 On ch=1 n=a#6 v=69
35654 On ch=1 n=f#4 v=73
35656 On ch=1 n=a3 v=0
35721 On ch=1 n=d4 v=0
35722 On ch=1 n=a6 v=69
35736 On ch=1 n=c5 v=61
35737 On ch=1 n=f#4 v=0
35802 On ch=1 n=g6 v=65
35814 On ch=1 n=c7 v=0
35815 On ch=1 n=a6 v=0
35815 On ch=1 n=a#6 v=0
35815 On ch=1 n=a#4 v=65
35816 On ch=1 n=d4 v=41
35817 On ch=1 n=c5 v=0
35891 On ch=1 n=d5 v=41
35970 On ch=1 n=e6 v=69
35976 On ch=1 n=g6 v=0
35977 On ch=1 n=g5 v=41
36050 On ch=1 n=a#5 v=69
36086 On ch=1 n=d4 v=0
36094 On ch=1 n=d5 v=0
36096 On ch=1 n=g5 v=0
36097 On ch=1 n=a#4 v=0
36124 On ch=1 n=e6 v=0
36124 On ch=1 n=f#5 v=53
36125 On ch=1 n=a5 v=57
36127 On ch=1 n=a#5 v=0
36128 On ch=1 n=c6 v=69
36128 On ch=1 n=d6 v=73
36206 On ch=1 n=d5 v=61
36224 On ch=1 n=a5 v=0
36282 On ch=1 n=a#5 v=69
36284 On ch=1 n=c5 v=69
36294 On ch=1 n=f#5 v=0
36294 On ch=1 n=d5 v=0
36296 On ch=1 n=c6 v=0
36348 On ch=1 n=c5 v=0
36360 On ch=1 n=d4 v=61
36360 On ch=1 n=a5 v=61
36362 On ch=1 n=a#5 v=0
36368 On ch=1 n=d6 v=0
36412 On ch=1 n=d4 v=0
36433 On ch=1 n=a5 v=0
36438 On ch=1 n=d6 v=57
36438 On ch=1 n=g5 v=53
36447 On ch=1 n=a#4 v=61
36518 On ch=1 n=a#4 v=0
36526 On ch=1 n=d4 v=69
36602 On ch=1 n=c#4 v=73
36605 On ch=1 n=e5 v=45
36617 On ch=1 n=d4 v=0
36618 On ch=1 n=g5 v=0
36685 On ch=1 n=d3 v=57
36740 On ch=1 n=c#4 v=0
36751 On ch=1 n=d6 v=0
36763 On ch=1 n=d5 v=81
36763 On ch=1 n=d6 v=85
36765 On ch=1 n=d4 v=89
36774 On ch=1 n=d3 v=0
36778 On ch=1 n=e5 v=0
36824 On ch=1 n=d5 v=0
36840 On ch=1 n=d4 v=0
36880 On ch=1 n=d6 v=0
36908 On ch=1 n=d6 v=93
36908 On ch=1 n=f6 v=89
36909 On ch=1 n=a#6 v=77
36909 On ch=1 n=d7 v=89
36909 On ch=1 n=a#2 v=105
36910 On ch=1 n=a#3 v=121
36913 On ch=1 n=c7 v=77
36931 On ch=1 n=c7 v=0
36935 On ch=1 n=d6 v=0
36937 On ch=1 n=a#3 v=0
36938 On ch=1 n=d7 v=0
36938 On ch=1 n=a#2 v=0
36940 On ch=1 n=f6 v=0
36944 On ch=1 n=a#6 v=0
37038 On ch=1 n=d6 v=101
37039 On ch=1 n=d7 v=101
37040 On ch=1 n=f6 v=93
37041 On ch=1 n=d4 v=121
37042 On ch=1 n=a#6 v=73
37046 On ch=1 n=d3 v=89
37056 On ch=1 n=d3 v=0
37058 On ch=1 n=d6 v=0
37063 On ch=1 n=d4 v=0
37063 On ch=1 n=a#6 v=0
37065 On ch=1 n=f6 v=0
37066 On ch=1 n=d7 v=0
37163 On ch=1 n=d6 v=105
37163 On ch=1 n=d7 v=101
37164 On ch=1 n=f6 v=101
37165 On ch=1 n=f4 v=121
37167 On ch=1 n=a#6 v=77
37170 On ch=1 n=f3 v=101
37187 On ch=1 n=f3 v=0
37189 On ch=1 n=f4 v=0
37191 On ch=1 n=d6 v=0
37193 On ch=1 n=a#6 v=0
37197 On ch=1 n=f6 v=0
37197 On ch=1 n=d7 v=0
37287 On ch=1 n=a#4 v=121
37288 On ch=1 n=a#3 v=113
37291 On ch=1 n=a#6 v=81
37292 On ch=1 n=f6 v=81
37292 On ch=1 n=d6 v=105
37293 On ch=1 n=d7 v=101
37312 On ch=1 n=a#6 v=0
37316 On ch=1 n=a#4 v=0
37326 On ch=1 n=a#3 v=0
37416 On ch=1 n=a#2 v=93
37417 On ch=1 n=a#3 v=101
37443 On ch=1 n=a6 v=81
37469 On ch=1 n=d6 v=0
37469 On ch=1 n=a#6 v=77
37474 On ch=1 n=f6 v=0
37497 On ch=1 n=c7 v=81
37501 On ch=1 n=a#6 v=0
37526 On ch=1 n=a6 v=0
37527 On ch=1 n=d7 v=0
37532 On ch=1 n=d#3 v=101
37533 On ch=1 n=d#4 v=105
37533 On ch=1 n=a#6 v=85
37535 On ch=1 n=a#5 v=105
37539 On ch=1 n=f#6 v=73
37550 On ch=1 n=d#4 v=0
37552 On ch=1 n=d#3 v=0
37557 On ch=1 n=f#6 v=0
37562 On ch=1 n=a#6 v=0
37592 On ch=1 n=c7 v=0
37622 On ch=1 n=a#2 v=0
37632 On ch=1 n=a#3 v=0
37661 On ch=1 n=d#3 v=113
37690 On ch=1 n=d#3 v=0
37721 On ch=1 n=f#5 v=89
37722 On ch=1 n=d#6 v=77
37723 On ch=1 n=f#6 v=81
37739 On ch=1 n=f#5 v=0
37750 On ch=1 n=d#6 v=0
37751 On ch=1 n=f#6 v=0
37761 On ch=1 n=a#5 v=0
37779 On ch=1 n=f5 v=93
37780 On ch=1 n=f6 v=85
37781 On ch=1 n=d6 v=81
37784 On ch=1 n=a#4 v=101
37784 On ch=1 n=a#3 v=105
37830 On ch=1 n=a#4 v=0
37841 On ch=1 n=a#3 v=0
37907 On ch=1 n=a#2 v=93
37908 On ch=1 n=a#3 v=105
37969 On ch=1 n=a#6 v=85
38024 On ch=1 n=f5 v=0
38029 On ch=1 n=f#6 v=101
38030 On ch=1 n=a5 v=101
38035 On ch=1 n=d6 v=0
38041 On ch=1 n=a#6 v=0
38046 On ch=1 n=f6 v=0
38087 On ch=1 n=d#5 v=73
38088 On ch=1 n=d#4 v=81
38150 On ch=1 n=a#3 v=0
38150 On ch=1 n=a#2 v=0
38152 On ch=1 n=c5 v=69
38205 On ch=1 n=d#6 v=81
38207 On ch=1 n=c6 v=69
38209 On ch=1 n=a4 v=57
38252 On ch=1 n=d#5 v=0
38253 On ch=1 n=a5 v=0
38256 On ch=1 n=c5 v=0
38257 On ch=1 n=d#4 v=0
38258 On ch=1 n=f#6 v=0
38267 On ch=1 n=f5 v=89
38267 On ch=1 n=d6 v=85
38272 On ch=1 n=a4 v=0
38282 On ch=1 n=c6 v=0
38283 On ch=1 n=d#6 v=0
38324 On ch=1 n=a#4 v=77
38326 On ch=1 n=a#3 v=73
38383 On ch=1 n=f4 v=77
38442 On ch=1 n=a#5 v=89
38443 On ch=1 n=d4 v=81
38458 On ch=1 n=f4 v=0
38490 On ch=1 n=a#3 v=0
38492 On ch=1 n=a#4 v=0
38498 On ch=1 n=d6 v=0
38498 On ch=1 n=f5 v=0
38500 On ch=1 n=d4 v=0
38502 On ch=1 n=a#5 v=0
38507 On ch=1 n=f#5 v=73
38508 On ch=1 n=a4 v=65
38557 On ch=1 n=d#3 v=69
38559 On ch=1 n=d#4 v=69
38620 On ch=1 n=c4 v=69
38671 On ch=1 n=d#4 v=0
38671 On ch=1 n=d#3 v=0
38673 On ch=1 n=d#5 v=69
38673 On ch=1 n=c5 v=61
38678 On ch=1 n=f#5 v=0
38678 On ch=1 n=a3 v=69
38682 On ch=1 n=c4 v=0
38682 On ch=1 n=a4 v=0
38688 On ch=1 n=a3 v=0
38735 On ch=1 n=d#5 v=0
38736 On ch=1 n=a#2 v=73
38739 On ch=1 n=c5 v=0
38799 On ch=1 n=a#4 v=73
38840 On ch=1 n=a#2 v=0
38860 On ch=1 n=a#4 v=0
38861 On ch=1 n=c#4 v=69
38861 On ch=1 n=c#5 v=73
38862 On ch=1 n=f#4 v=57
38863 On ch=1 n=a#3 v=29
38864 On ch=1 n=f#5 v=73
38865 On ch=1 n=a#5 v=73
38922 On ch=1 n=c#4 v=0
38924 On ch=1 n=a#4 v=73
38929 On ch=1 n=a#3 v=0
38929 On ch=1 n=f#4 v=0
38941 On ch=1 n=f#5 v=0
38942 On ch=1 n=c#5 v=0
38946 On ch=1 n=a#5 v=0
38974 On ch=1 n=a#4 v=0
38982 On ch=1 n=c#5 v=73
38982 On ch=1 n=a#5 v=73
38983 On ch=1 n=f#5 v=69
38984 On ch=1 n=a#3 v=45
38984 On ch=1 n=c#4 v=73
38986 On ch=1 n=f#4 v=69
39030 On ch=1 n=f#4 v=0
39030 On ch=1 n=a#3 v=0
39030 On ch=1 n=c#4 v=0
39044 On ch=1 n=a#4 v=85
39049 On ch=1 n=f#5 v=0
39050 On ch=1 n=c#5 v=0
39052 On ch=1 n=a#5 v=0
39098 On ch=1 n=a#4 v=0
39101 On ch=1 n=a#3 v=29
39102 On ch=1 n=c#4 v=69
39102 On ch=1 n=f#4 v=65
39108 On ch=1 n=f#5 v=73
39108 On ch=1 n=c#5 v=73
39109 On ch=1 n=a#5 v=73
39140 On ch=1 n=f#4 v=0
39142 On ch=1 n=c#4 v=0
39145 On ch=1 n=a#3 v=0
39152 On ch=1 n=f#5 v=0
39155 On ch=1 n=c#5 v=0
39158 On ch=1 n=a#5 v=0
39159 On ch=1 n=a#4 v=81
39205 On ch=1 n=a#4 v=0
39219 On ch=1 n=c#4 v=73
39220 On ch=1 n=a#3 v=33
39221 On ch=1 n=f#4 v=65
39226 On ch=1 n=c#5 v=81
39227 On ch=1 n=f#5 v=73
39229 On ch=1 n=a#5 v=81
39291 On ch=1 n=a#4 v=77
39340 On ch=1 n=a#3 v=0
39343 On ch=1 n=c#4 v=0
39343 On ch=1 n=a#2 v=49
39345 On ch=1 n=f#3 v=41
39346 On ch=1 n=c#3 v=65
39350 On ch=1 n=f#4 v=0
39401 On ch=1 n=c#3 v=0
39401 On ch=1 n=a#2 v=0
39402 On ch=1 n=f#3 v=0
39406 On ch=1 n=a#3 v=73
39408 On ch=1 n=a#4 v=0
39408 On ch=1 n=a#4 v=69
39460 On ch=1 n=a#3 v=0
39463 On ch=1 n=f#3 v=45
39463 On ch=1 n=a#2 v=61
39465 On ch=1 n=c#3 v=69
39468 On ch=1 n=a#4 v=0
39525 On ch=1 n=a#2 v=0
39525 On ch=1 n=c#3 v=0
39526 On ch=1 n=f#3 v=0
39528 On ch=1 n=a#4 v=69
39528 On ch=1 n=b3 v=69
39531 On ch=1 n=b4 v=73
39578 On ch=1 n=b3 v=0
39579 On ch=1 n=b4 v=0
39581 On ch=1 n=f#3 v=73
39582 On ch=1 n=a#2 v=69
39583 On ch=1 n=a#4 v=0
39585 On ch=1 n=c#3 v=65
39641 On ch=1 n=c#3 v=0
39642 On ch=1 n=a#2 v=0
39643 On ch=1 n=f#3 v=0
39644 On ch=1 n=a#4 v=81
39644 On ch=1 n=c4 v=73
39646 On ch=1 n=c5 v=69
39648 On ch=1 n=f#5 v=0
39649 On ch=1 n=c#5 v=0
39653 On ch=1 n=a#5 v=0
39701 On ch=1 n=f#3 v=81
39701 On ch=1 n=a#2 v=73
39702 On ch=1 n=c4 v=0
39703 On ch=1 n=a#4 v=0
39704 On ch=1 n=c5 v=0
39705 On ch=1 n=c#3 v=73
39762 On ch=1 n=c#4 v=81
39762 On ch=1 n=a#4 v=73
39763 On ch=1 n=c#5 v=69
39772 On ch=1 n=c#3 v=0
39772 On ch=1 n=f#3 v=0
39774 On ch=1 n=a#2 v=0
39818 On ch=1 n=f#4 v=69
39822 On ch=1 n=c#4 v=0
39822 On ch=1 n=a#3 v=73
39823 On ch=1 n=c#4 v=65
39852 On ch=1 n=c#4 v=0
39856 On ch=1 n=a#4 v=0
39862 On ch=1 n=c#5 v=0
39881 On ch=1 n=a#3 v=0
39881 On ch=1 n=a#4 v=77
39884 On ch=1 n=f#5 v=69
39886 On ch=1 n=a#5 v=65
39892 On ch=1 n=f#4 v=0
39937 On ch=1 n=f#4 v=77
39938 On ch=1 n=a#3 v=81
39943 On ch=1 n=c#4 v=81
39951 On ch=1 n=a#4 v=0
39956 On ch=1 n=f#5 v=0
39970 On ch=1 n=a#5 v=0
39997 On ch=1 n=f#5 v=73
39999 On ch=1 n=a#5 v=81
40001 On ch=1 n=b4 v=69
40011 On ch=1 n=a#3 v=0
40012 On ch=1 n=c#4 v=0
40024 On ch=1 n=f#4 v=0
40049 On ch=1 n=f#4 v=81
40052 On ch=1 n=a#3 v=81
40056 On ch=1 n=c#4 v=69
40081 On ch=1 n=b4 v=0
40090 On ch=1 n=a#5 v=0
40091 On ch=1 n=f#5 v=0
40111 On ch=1 n=c5 v=73
40111 On ch=1 n=a#5 v=81
40112 On ch=1 n=f#5 v=69
40132 On ch=1 n=c#4 v=0
40133 On ch=1 n=a#3 v=0
40138 On ch=1 n=f#4 v=0
40170 On ch=1 n=f#4 v=85
40171 On ch=1 n=a#3 v=77
40171 On ch=1 n=c#4 v=73
40189 On ch=1 n=c5 v=0
40193 On ch=1 n=a#5 v=0
40195 On ch=1 n=f#5 v=0
40230 On ch=1 n=c#5 v=73
40232 On ch=1 n=f#5 v=69
40232 On ch=1 n=a#5 v=65
40254 On ch=1 n=a#3 v=0
40255 On ch=1 n=f#4 v=0
40258 On ch=1 n=c#4 v=0
40297 On ch=1 n=a#2 v=69
40297 On ch=1 n=a#3 v=53
40305 On ch=1 n=c#3 v=53
40345 On ch=1 n=a#2 v=0
40347 On ch=1 n=c#3 v=0
40347 On ch=1 n=a#4 v=81
40349 On ch=1 n=c4 v=81
40351 On ch=1 n=a#3 v=0
40353 On ch=1 n=c5 v=69
40368 On ch=1 n=c#5 v=0
40370 On ch=1 n=f#5 v=0
40374 On ch=1 n=a#5 v=0
40413 On ch=1 n=a#3 v=77
40414 On ch=1 n=a#2 v=73
40418 On ch=1 n=c#3 v=69
40422 On ch=1 n=c4 v=0
40429 On ch=1 n=c5 v=0
40450 On ch=1 n=a#4 v=0
40467 On ch=1 n=a#2 v=0
40469 On ch=1 n=c#3 v=0
40470 On ch=1 n=c#5 v=81
40471 On ch=1 n=a#4 v=81
40472 On ch=1 n=c#4 v=89
40482 On ch=1 n=a#3 v=0
40526 On ch=1 n=c#4 v=0
40528 On ch=1 n=a#3 v=85
40529 On ch=1 n=c#3 v=69
40530 On ch=1 n=a#2 v=73
40545 On ch=1 n=a#4 v=0
40547 On ch=1 n=c#5 v=0
40566 On ch=1 n=a#2 v=0
40570 On ch=1 n=a#3 v=0
40570 On ch=1 n=c#3 v=0
40588 On ch=1 n=a#4 v=101
40591 On ch=1 n=d4 v=101
40592 On ch=1 n=d5 v=81
40638 On ch=1 n=d4 v=0
40642 On ch=1 n=a#3 v=101
40643 On ch=1 n=c#3 v=81
40645 On ch=1 n=a#2 v=81
40654 On ch=1 n=d5 v=0
40658 On ch=1 n=a#4 v=0
40683 On ch=1 n=a#2 v=0
40687 On ch=1 n=a#3 v=0
40688 On ch=1 n=c#3 v=0
40708 On ch=1 n=a#4 v=89
40710 On ch=1 n=d#5 v=85
40712 On ch=1 n=d#4 v=105
40774 On ch=1 n=a#4 v=0
40775 On ch=1 n=a#4 v=81
40775 On ch=1 n=a#3 v=81
40777 On ch=1 n=f#4 v=73
40813 On ch=1 n=a#3 v=0
40816 On ch=1 n=a#4 v=0
40818 On ch=1 n=f#4 v=0
40829 On ch=1 n=d5 v=73
40830 On ch=1 n=a#5 v=81
40830 On ch=1 n=f#5 v=73
40874 On ch=1 n=d5 v=0
40878 On ch=1 n=f#5 v=0
40879 On ch=1 n=a#5 v=0
40880 On ch=1 n=d#4 v=0
40888 On ch=1 n=a#4 v=101
40889 On ch=1 n=a#3 v=93
40891 On ch=1 n=f#4 v=81
40895 On ch=1 n=d#5 v=0
40924 On ch=1 n=a#3 v=0
40927 On ch=1 n=f#4 v=0
40928 On ch=1 n=a#4 v=0
40944 On ch=1 n=d#5 v=89
40944 On ch=1 n=a#5 v=81
40998 On ch=1 n=a#2 v=81
40999 On ch=1 n=g3 v=81
41000 On ch=1 n=g2 v=85
41034 On ch=1 n=g2 v=0
41035 On ch=1 n=g3 v=0
41039 On ch=1 n=a#2 v=0
41040 On ch=1 n=d#5 v=0
41051 On ch=1 n=a#5 v=0
41061 On ch=1 n=d#4 v=89
41062 On ch=1 n=a#4 v=81
41063 On ch=1 n=d#5 v=81
41116 On ch=1 n=a#4 v=0
41117 On ch=1 n=d#4 v=0
41117 On ch=1 n=f#3 v=89
41119 On ch=1 n=f#2 v=85
41123 On ch=1 n=d#5 v=0
41124 On ch=1 n=a#2 v=81
41180 On ch=1 n=a#4 v=89
41181 On ch=1 n=e5 v=81
41181 On ch=1 n=e4 v=81
41191 On ch=1 n=a#2 v=0
41192 On ch=1 n=f#3 v=0
41193 On ch=1 n=f#2 v=0
41236 On ch=1 n=a#4 v=0
41237 On ch=1 n=a#3 v=81
41237 On ch=1 n=a#4 v=73
41239 On ch=1 n=f#4 v=69
41292 On ch=1 n=a#3 v=0
41295 On ch=1 n=a#4 v=0
41295 On ch=1 n=e4 v=0
41297 On ch=1 n=f#4 v=0
41298 On ch=1 n=d#5 v=73
41299 On ch=1 n=a#5 v=81
41305 On ch=1 n=e5 v=0
41353 On ch=1 n=a#4 v=89
41355 On ch=1 n=d#5 v=0
41356 On ch=1 n=f#4 v=77
41356 On ch=1 n=a#3 v=81
41363 On ch=1 n=a#5 v=0
41413 On ch=1 n=a#5 v=85
41414 On ch=1 n=e5 v=73
41437 On ch=1 n=a#5 v=0
41451 On ch=1 n=a#3 v=0
41455 On ch=1 n=f#4 v=0
41456 On ch=1 n=a#4 v=0
41471 On ch=1 n=a#6 v=81
41472 On ch=1 n=a#5 v=101
41473 On ch=1 n=e4 v=101
41473 On ch=1 n=g3 v=89
41477 On ch=1 n=a#3 v=101
41479 On ch=1 n=e6 v=81
41489 On ch=1 n=a#5 v=0
41490 On ch=1 n=e4 v=0
41490 On ch=1 n=a#3 v=0
41492 On ch=1 n=g3 v=0
41492 On ch=1 n=e6 v=0
41494 On ch=1 n=a#6 v=0
41533 On ch=1 n=e5 v=0
41571 On ch=1 n=c#3 v=81
41579 On ch=1 n=a#3 v=93
41588 On ch=1 n=f4 v=105
41589 On ch=1 n=a#7 v=105
41590 On ch=1 n=c#7 v=101
41591 On ch=1 n=a#6 v=89
41603 On ch=1 n=c#3 v=0
41613 On ch=1 n=a#3 v=0
41627 On ch=1 n=a#6 v=0
41645 On ch=1 n=c#7 v=0
41646 On ch=1 n=a#7 v=0
41672 On ch=1 n=f4 v=0
41768 On ch=1 n=e7 v=65
41784 On ch=1 n=f7 v=85
41799 On ch=1 n=e7 v=0
41800 On ch=1 n=f#7 v=101
41810 On ch=1 n=f7 v=0
41819 On ch=1 n=f#7 v=0
41822 On ch=1 n=f5 v=105
41824 On ch=1 n=f6 v=101
41827 On ch=1 n=c7 v=93
41827 On ch=1 n=a6 v=77
41829 On ch=1 n=f7 v=105
41988 On ch=1 n=f5 v=0
41993 On ch=1 n=f6 v=0
42018 On ch=1 n=c6 v=65
42032 On ch=1 n=f7 v=0
42032 On ch=1 n=c7 v=0
42033 On ch=1 n=c#6 v=73
42039 On ch=1 n=a6 v=0
42049 On ch=1 n=c6 v=0
42049 On ch=1 n=d#6 v=89
42063 On ch=1 n=c#6 v=0
42075 On ch=1 n=a#5 v=101
42076 On ch=1 n=c#5 v=81
42076 On ch=1 n=a#4 v=105
42082 On ch=1 n=d#6 v=0
42269 On ch=1 n=e5 v=57
42279 On ch=1 n=c#5 v=0
42284 On ch=1 n=f5 v=73
42286 On ch=1 n=a#4 v=0
42286 On ch=1 n=a#5 v=0
42302 On ch=1 n=f#5 v=85
42303 On ch=1 n=e5 v=0
42313 On ch=1 n=f5 v=0
42328 On ch=1 n=c5 v=93
42329 On ch=1 n=a4 v=101
42329 On ch=1 n=f5 v=81
42331 On ch=1 n=f3 v=101
42331 On ch=1 n=f4 v=105
42356 On ch=1 n=f#5 v=0
42513 On ch=1 n=a4 v=0
42516 On ch=1 n=c4 v=73
42521 On ch=1 n=f3 v=0
42522 On ch=1 n=c5 v=0
42522 On ch=1 n=f4 v=0
42523 On ch=1 n=f5 v=0
42539 On ch=1 n=c#4 v=85
42561 On ch=1 n=c4 v=0
42562 On ch=1 n=d#4 v=105
42572 On ch=1 n=c#4 v=0
42581 On ch=1 n=c#8 v=93
42582 On ch=1 n=c#7 v=113
42582 On ch=1 n=f7 v=101
42588 On ch=1 n=d#4 v=0
42588 On ch=1 n=c#3 v=121
42589 On ch=1 n=c#4 v=125
42755 On ch=1 n=c#7 v=0
42757 On ch=1 n=f7 v=0
42757 On ch=1 n=c#8 v=0
42766 On ch=1 n=c#4 v=0
42769 On ch=1 n=c#3 v=0
42772 On ch=1 n=g7 v=77
42793 On ch=1 n=g#7 v=77
42810 On ch=1 n=g7 v=0
42811 On ch=1 n=a7 v=81
42819 On ch=1 n=g#7 v=0
42841 On ch=1 n=g#7 v=113
42842 On ch=1 n=c7 v=113
42843 On ch=1 n=g#5 v=89
42844 On ch=1 n=g#6 v=105
42844 On ch=1 n=d#7 v=113
42854 On ch=1 n=a7 v=0
43034 On ch=1 n=g#6 v=0
43034 On ch=1 n=c7 v=0
43036 On ch=1 n=g#7 v=0
43037 On ch=1 n=g#5 v=0
43039 On ch=1 n=d#7 v=0
43048 On ch=1 n=e6 v=61
43062 On ch=1 n=f6 v=77
43067 On ch=1 n=e6 v=0
43075 On ch=1 n=f#6 v=69
43082 On ch=1 n=f6 v=0
43097 On ch=1 n=f6 v=101
43097 On ch=1 n=c#6 v=89
43099 On ch=1 n=c#5 v=89
43101 On ch=1 n=f5 v=93
43132 On ch=1 n=f#6 v=0
43291 On ch=1 n=g5 v=61
43312 On ch=1 n=g#5 v=73
43331 On ch=1 n=g5 v=0
43331 On ch=1 n=a5 v=81
43332 On ch=1 n=f5 v=0
43333 On ch=1 n=c#6 v=0
43336 On ch=1 n=f6 v=0
43338 On ch=1 n=c#5 v=0
43341 On ch=1 n=g#5 v=0
43357 On ch=1 n=g#3 v=113
43358 On ch=1 n=c5 v=101
43358 On ch=1 n=g#4 v=113
43359 On ch=1 n=d#5 v=105
43359 On ch=1 n=g#5 v=81
43366 On ch=1 n=a5 v=0
43557 On ch=1 n=e4 v=61
43563 On ch=1 n=g#4 v=0
43563 On ch=1 n=c5 v=0
43566 On ch=1 n=d#5 v=0
43570 On ch=1 n=g#3 v=0
43572 On ch=1 n=g#5 v=0
43573 On ch=1 n=f4 v=81
43590 On ch=1 n=f#4 v=93
43593 On ch=1 n=e4 v=0
43602 On ch=1 n=f4 v=0
43619 On ch=1 n=f#4 v=0
43619 On ch=1 n=f3 v=93
43621 On ch=1 n=f4 v=105
43624 On ch=1 n=f6 v=89
43626 On ch=1 n=f7 v=101
43642 On ch=1 n=f4 v=0
43642 On ch=1 n=f3 v=0
43750 On ch=1 n=f2 v=105
43751 On ch=1 n=f3 v=113
43771 On ch=1 n=f3 v=0
43774 On ch=1 n=f2 v=0
43799 On ch=1 n=e5 v=81
43818 On ch=1 n=f7 v=0
43822 On ch=1 n=f5 v=85
43827 On ch=1 n=f6 v=0
43837 On ch=1 n=f#5 v=89
43846 On ch=1 n=e5 v=0
43847 On ch=1 n=f5 v=0
43864 On ch=1 n=f#5 v=0
43869 On ch=1 n=f4 v=93
43871 On ch=1 n=f5 v=89
43880 On ch=1 n=f#2 v=105
43880 On ch=1 n=f#3 v=121
43890 On ch=1 n=f#3 v=0
43891 On ch=1 n=f#2 v=0
43998 On ch=1 n=f#4 v=113
43999 On ch=1 n=f#3 v=105
44006 On ch=1 n=f5 v=0
44007 On ch=1 n=f4 v=0
44056 On ch=1 n=f6 v=93
44057 On ch=1 n=f7 v=101
44122 On ch=1 n=g4 v=93
44124 On ch=1 n=g3 v=93
44129 On ch=1 n=f#4 v=0
44131 On ch=1 n=f7 v=0
44136 On ch=1 n=f#3 v=0
44141 On ch=1 n=f6 v=0
44147 On ch=1 n=g4 v=0
44157 On ch=1 n=g3 v=0
44255 On ch=1 n=g3 v=101
44256 On ch=1 n=g2 v=101
44266 On ch=1 n=g2 v=0
44270 On ch=1 n=g3 v=0
44291 On ch=1 n=e5 v=69
44317 On ch=1 n=f5 v=77
44324 On ch=1 n=e5 v=0
44340 On ch=1 n=f#5 v=77
44345 On ch=1 n=f5 v=0
44368 On ch=1 n=f4 v=85
44369 On ch=1 n=f5 v=85
44372 On ch=1 n=f#5 v=0
44372 On ch=1 n=g#2 v=105
44373 On ch=1 n=g#3 v=121
44384 On ch=1 n=g#2 v=0
44385 On ch=1 n=g#3 v=0
44492 On ch=1 n=g#3 v=101
44493 On ch=1 n=g#4 v=105
44548 On ch=1 n=f6 v=89
44548 On ch=1 n=c#7 v=93
44550 On ch=1 n=f7 v=85
44556 On ch=1 n=f4 v=0
44561 On ch=1 n=f5 v=0
44613 On ch=1 n=a3 v=101
44613 On ch=1 n=c#4 v=93
44614 On ch=1 n=a4 v=85
44628 On ch=1 n=c#7 v=0
44628 On ch=1 n=f6 v=0
44628 On ch=1 n=f7 v=0
44633 On ch=1 n=g#4 v=0
44642 On ch=1 n=g#3 v=0
44713 On ch=1 n=a3 v=0
44719 On ch=1 n=a4 v=0
44727 On ch=1 n=c#4 v=0
44743 On ch=1 n=a2 v=85
44743 On ch=1 n=a3 v=85
44744 On ch=1 n=c#3 v=73
44774 On ch=1 n=a3 v=0
44774 On ch=1 n=a2 v=0
44777 On ch=1 n=c#3 v=0
44809 On ch=1 n=f#7 v=101
44811 On ch=1 n=f#6 v=93
44811 On ch=1 n=c#7 v=93
44866 On ch=1 n=a#3 v=105
44868 On ch=1 n=a#4 v=101
44868 On ch=1 n=c#4 v=85
44902 On ch=1 n=f#6 v=0
44906 On ch=1 n=f#7 v=0
44906 On ch=1 n=c#7 v=0
44969 On ch=1 n=a#3 v=0
44984 On ch=1 n=c#4 v=0
44992 On ch=1 n=a#4 v=0
44993 On ch=1 n=c#3 v=77
44993 On ch=1 n=a#3 v=81
44997 On ch=1 n=a#2 v=81
45058 On ch=1 n=f#7 v=89
45059 On ch=1 n=f#6 v=85
45061 On ch=1 n=d7 v=85
45114 On ch=1 n=b4 v=89
45116 On ch=1 n=b3 v=89
45118 On ch=1 n=d4 v=101
45145 On ch=1 n=a#3 v=0
45145 On ch=1 n=c#3 v=0
45149 On ch=1 n=a#2 v=0
45157 On ch=1 n=b3 v=0
45165 On ch=1 n=d4 v=0
45173 On ch=1 n=b4 v=0
45183 On ch=1 n=f#6 v=0
45184 On ch=1 n=d7 v=0
45186 On ch=1 n=f#7 v=0
45235 On ch=1 n=b2 v=81
45238 On ch=1 n=b3 v=85
45240 On ch=1 n=d3 v=89
45256 On ch=1 n=b2 v=0
45260 On ch=1 n=d3 v=0
45260 On ch=1 n=b3 v=0
45280 On ch=1 n=f5 v=73
45302 On ch=1 n=f#5 v=81
45312 On ch=1 n=f5 v=0
45327 On ch=1 n=g#5 v=81
45332 On ch=1 n=f#5 v=0
45357 On ch=1 n=f#5 v=101
45359 On ch=1 n=f#4 v=101
45362 On ch=1 n=g#5 v=0
45367 On ch=1 n=c4 v=93
45368 On ch=1 n=c3 v=81
45368 On ch=1 n=d#3 v=77
45409 On ch=1 n=c4 v=0
45417 On ch=1 n=d#3 v=0
45421 On ch=1 n=c3 v=0
45490 On ch=1 n=c5 v=81
45491 On ch=1 n=d#4 v=93
45492 On ch=1 n=c4 v=81
45549 On ch=1 n=f#6 v=85
45550 On ch=1 n=e7 v=81
45552 On ch=1 n=f#7 v=89
45555 On ch=1 n=f#4 v=0
45555 On ch=1 n=f#5 v=0
45581 On ch=1 n=c4 v=0
45590 On ch=1 n=d#4 v=0
45592 On ch=1 n=c5 v=0
45608 On ch=1 n=c#5 v=77
45608 On ch=1 n=c#4 v=77
45610 On ch=1 n=e4 v=81
45620 On ch=1 n=e7 v=0
45620 On ch=1 n=f#6 v=0
45620 On ch=1 n=f#7 v=0
45677 On ch=1 n=c#4 v=0
45688 On ch=1 n=e4 v=0
45688 On ch=1 n=c#5 v=0
45727 On ch=1 n=c#3 v=81
45728 On ch=1 n=c#4 v=89
45734 On ch=1 n=e3 v=85
45757 On ch=1 n=c#3 v=0
45763 On ch=1 n=e3 v=0
45765 On ch=1 n=c#4 v=0
45776 On ch=1 n=f5 v=73
45796 On ch=1 n=f#5 v=77
45808 On ch=1 n=f5 v=0
45817 On ch=1 n=g#5 v=81
45835 On ch=1 n=f#5 v=0
45852 On ch=1 n=f#5 v=81
45853 On ch=1 n=f#4 v=93
45859 On ch=1 n=g#5 v=0
45863 On ch=1 n=d4 v=89
45863 On ch=1 n=f3 v=81
45863 On ch=1 n=d3 v=81
45961 On ch=1 n=d4 v=0
45963 On ch=1 n=d3 v=0
45975 On ch=1 n=f3 v=0
45976 On ch=1 n=d5 v=69
45978 On ch=1 n=f4 v=65
45981 On ch=1 n=d4 v=81
46034 On ch=1 n=f#5 v=0
46036 On ch=1 n=b6 v=77
46038 On ch=1 n=f#4 v=0
46038 On ch=1 n=f#6 v=85
46039 On ch=1 n=f#7 v=89
46098 On ch=1 n=d#4 v=89
46098 On ch=1 n=f#4 v=85
46099 On ch=1 n=b4 v=77
46101 On ch=1 n=d#5 v=69
46105 On ch=1 n=d4 v=0
46111 On ch=1 n=f4 v=0
46112 On ch=1 n=d5 v=0
46118 On ch=1 n=f#6 v=0
46121 On ch=1 n=f#7 v=0
46124 On ch=1 n=b6 v=0
46149 On ch=1 n=d#4 v=0
46166 On ch=1 n=f#4 v=0
46167 On ch=1 n=d#5 v=0
46172 On ch=1 n=b4 v=0
46227 On ch=1 n=d#4 v=93
46227 On ch=1 n=d#3 v=93
46246 On ch=1 n=d#4 v=0
46252 On ch=1 n=d#3 v=0
46289 On ch=1 n=g7 v=85
46289 On ch=1 n=e7 v=89
46290 On ch=1 n=a#6 v=73
46293 On ch=1 n=g6 v=73
46353 On ch=1 n=c#4 v=101
46354 On ch=1 n=a#4 v=81
46355 On ch=1 n=e4 v=81
46357 On ch=1 n=c#5 v=73
46417 On ch=1 n=c#4 v=0
46425 On ch=1 n=e4 v=0
46433 On ch=1 n=c#5 v=0
46434 On ch=1 n=a#4 v=0
46465 On ch=1 n=a#6 v=0
46467 On ch=1 n=g6 v=0
46470 On ch=1 n=e7 v=0
46471 On ch=1 n=g7 v=0
46482 On ch=1 n=c#3 v=93
46485 On ch=1 n=c#4 v=105
46508 On ch=1 n=c#4 v=0
46513 On ch=1 n=c#3 v=0
46540 On ch=1 n=f7 v=101
46541 On ch=1 n=a7 v=85
46541 On ch=1 n=c7 v=81
46543 On ch=1 n=a6 v=73
46609 On ch=1 n=f4 v=93
46610 On ch=1 n=a4 v=81
46610 On ch=1 n=c4 v=101
46613 On ch=1 n=c5 v=81
46618 On ch=1 n=a#4 v=69
46654 On ch=1 n=c4 v=0
46664 On ch=1 n=a#4 v=0
46664 On ch=1 n=f4 v=0
46671 On ch=1 n=a4 v=0
46676 On ch=1 n=c5 v=0
46722 On ch=1 n=f7 v=0
46723 On ch=1 n=a6 v=0
46725 On ch=1 n=a7 v=0
46725 On ch=1 n=c7 v=0
46735 On ch=1 n=c3 v=101
46737 On ch=1 n=c4 v=113
46752 On ch=1 n=c4 v=0
46761 On ch=1 n=c3 v=0
46798 On ch=1 n=a7 v=101
46800 On ch=1 n=c8 v=81
46802 On ch=1 n=c7 v=81
46802 On ch=1 n=f7 v=89
46862 On ch=1 n=a3 v=89
46863 On ch=1 n=c4 v=89
46864 On ch=1 n=a4 v=81
46869 On ch=1 n=f4 v=81
46920 On ch=1 n=a3 v=0
46929 On ch=1 n=c4 v=0
46936 On ch=1 n=a4 v=0
46940 On ch=1 n=f4 v=0
46959 On ch=1 n=a7 v=0
46959 On ch=1 n=f7 v=0
46960 On ch=1 n=c8 v=0
46966 On ch=1 n=c7 v=0
46986 On ch=1 n=a2 v=101
46987 On ch=1 n=a3 v=105
47005 On ch=1 n=a3 v=0
47011 On ch=1 n=a2 v=0
47039 On ch=1 n=f8 v=105
47040 On ch=1 n=a7 v=101
47041 On ch=1 n=f7 v=113
47045 On ch=1 n=d#8 v=65
47053 On ch=1 n=d#8 v=0
47124 On ch=1 n=f2 v=125
47125 On ch=1 n=f3 v=121
47311 On ch=1 n=c8 v=69
47326 On ch=1 n=c#8 v=81
47341 On ch=1 n=c8 v=0
47350 On ch=1 n=d#8 v=89
47355 On ch=1 n=f8 v=0
47355 On ch=1 n=c#8 v=0
47372 On ch=1 n=c#6 v=85
47372 On ch=1 n=c#8 v=121
47373 On ch=1 n=c#7 v=121
47374 On ch=1 n=a7 v=0
47374 On ch=1 n=f7 v=0
47375 On ch=1 n=e7 v=101
47385 On ch=1 n=d#8 v=0
47532 On ch=1 n=f3 v=0
47534 On ch=1 n=c#6 v=0
47537 On ch=1 n=f2 v=0
47545 On ch=1 n=c#7 v=0
47574 On ch=1 n=e7 v=0
47577 On ch=1 n=e6 v=69
47587 On ch=1 n=c#8 v=0
47595 On ch=1 n=f6 v=73
47605 On ch=1 n=e6 v=0
47614 On ch=1 n=g6 v=69
47619 On ch=1 n=f6 v=0
47636 On ch=1 n=f6 v=93
47639 On ch=1 n=f5 v=85
47639 On ch=1 n=f4 v=89
47641 On ch=1 n=a4 v=85
47652 On ch=1 n=g6 v=0
47840 On ch=1 n=c6 v=61
47860 On ch=1 n=c#6 v=65
47870 On ch=1 n=f6 v=0
47875 On ch=1 n=f4 v=0
47877 On ch=1 n=f5 v=0
47881 On ch=1 n=d#6 v=81
47882 On ch=1 n=a4 v=0
47883 On ch=1 n=c6 v=0
47888 On ch=1 n=c#6 v=0
47907 On ch=1 n=c#6 v=85
47911 On ch=1 n=e5 v=81
47911 On ch=1 n=a#3 v=93
47912 On ch=1 n=a#4 v=89
47916 On ch=1 n=d#6 v=0
48102 On ch=1 n=e4 v=73
48105 On ch=1 n=a#4 v=0
48107 On ch=1 n=e5 v=0
48110 On ch=1 n=a#3 v=0
48114 On ch=1 n=c#6 v=0
48124 On ch=1 n=f4 v=81
48130 On ch=1 n=e4 v=0
48148 On ch=1 n=g4 v=85
48154 On ch=1 n=f4 v=0
48175 On ch=1 n=f2 v=101
48177 On ch=1 n=f3 v=101
48178 On ch=1 n=g4 v=0
48472 On ch=1 n=f3 v=0
48476 On ch=1 n=g2 v=61
48479 On ch=1 n=g3 v=53
48481 On ch=1 n=f2 v=0
48507 On ch=1 n=a3 v=65
48509 On ch=1 n=g3 v=0
48510 On ch=1 n=g2 v=0
48511 On ch=1 n=a2 v=61
48528 On ch=1 n=a3 v=0
48529 On ch=1 n=a#3 v=69
48531 On ch=1 n=a#2 v=69
48535 On ch=1 n=a2 v=0
48549 On ch=1 n=a#3 v=0
48552 On ch=1 n=a#2 v=0
48553 On ch=1 n=c4 v=73
48553 On ch=1 n=c3 v=69
48572 On ch=1 n=c3 v=0
48573 On ch=1 n=c4 v=0
48575 On ch=1 n=d3 v=61
48576 On ch=1 n=d4 v=77
48592 On ch=1 n=e3 v=69
48595 On ch=1 n=d4 v=0
48596 On ch=1 n=e4 v=81
48599 On ch=1 n=d3 v=0
48611 On ch=1 n=e4 v=0
48617 On ch=1 n=f3 v=85
48618 On ch=1 n=f4 v=81
48621 On ch=1 n=e3 v=0
48635 On ch=1 n=f3 v=0
48636 On ch=1 n=g3 v=81
48636 On ch=1 n=g4 v=73
48641 On ch=1 n=f4 v=0
48651 On ch=1 n=g3 v=0
48652 On ch=1 n=a3 v=81
48654 On ch=1 n=g4 v=0
48655 On ch=1 n=a4 v=77
48671 On ch=1 n=a#3 v=105
48675 On ch=1 n=a4 v=0
48676 On ch=1 n=a3 v=0
48676 On ch=1 n=a#4 v=81
48686 On ch=1 n=a#4 v=0
48687 On ch=1 n=a#3 v=0
48689 On ch=1 n=c4 v=81
48692 On ch=1 n=c5 v=81
48709 On ch=1 n=c4 v=0
48711 On ch=1 n=c5 v=0
48711 On ch=1 n=d5 v=73
48712 On ch=1 n=d4 v=81
48729 On ch=1 n=d5 v=0
48730 On ch=1 n=e5 v=85
48730 On ch=1 n=e4 v=81
48736 On ch=1 n=d4 v=0
48746 On ch=1 n=e5 v=0
48752 On ch=1 n=f4 v=85
48752 On ch=1 n=f5 v=81
48753 On ch=1 n=e4 v=0
48768 On ch=1 n=f4 v=0
48768 On ch=1 n=g4 v=81
48771 On ch=1 n=g5 v=73
48773 On ch=1 n=f5 v=0
48787 On ch=1 n=a4 v=81
48789 On ch=1 n=g4 v=0
48790 On ch=1 n=a5 v=89
48792 On ch=1 n=g5 v=0
48808 On ch=1 n=a5 v=0
48809 On ch=1 n=a4 v=0
48809 On ch=1 n=a#4 v=101
48810 On ch=1 n=a#5 v=93
48824 On ch=1 n=a#5 v=0
48826 On ch=1 n=a#4 v=0
48827 On ch=1 n=c5 v=69
48828 On ch=1 n=c6 v=81
48844 On ch=1 n=d5 v=81
48845 On ch=1 n=d6 v=85
48850 On ch=1 n=c6 v=0
48850 On ch=1 n=c5 v=0
48865 On ch=1 n=e5 v=81
48865 On ch=1 n=e6 v=85
48867 On ch=1 n=d6 v=0
48871 On ch=1 n=d5 v=0
48885 On ch=1 n=e5 v=0
48885 On ch=1 n=e6 v=0
48885 On ch=1 n=f5 v=93
48887 On ch=1 n=f6 v=89
49100 On ch=1 n=f5 v=0
49102 On ch=1 n=f6 v=0
49511 On ch=1 n=f#3 v=89
49512 On ch=1 n=a#2 v=93
49513 On ch=1 n=a#3 v=101
49513 On ch=1 n=f#4 v=93
49515 On ch=1 n=c#4 v=105
49515 On ch=1 n=c#3 v=93
49914 On ch=1 n=g#4 v=69
49915 On ch=1 n=g#3 v=73
49934 On ch=1 n=g#4 v=0
49935 On ch=1 n=a#3 v=0
49935 On ch=1 n=a#4 v=77
49935 On ch=1 n=a#3 v=81
49937 On ch=1 n=g#3 v=0
49952 On ch=1 n=a#4 v=0
49954 On ch=1 n=a#3 v=0
49955 On ch=1 n=b4 v=49
49956 On ch=1 n=b3 v=77
49957 On ch=1 n=c5 v=33
49969 On ch=1 n=c5 v=0
49972 On ch=1 n=b3 v=0
49972 On ch=1 n=b4 v=0
49973 On ch=1 n=c#5 v=73
49974 On ch=1 n=c#4 v=0
49975 On ch=1 n=c#4 v=85
49990 On ch=1 n=d#4 v=81
49995 On ch=1 n=c#4 v=0
49995 On ch=1 n=c#5 v=0
49996 On ch=1 n=d#5 v=73
50006 On ch=1 n=d#5 v=0
50007 On ch=1 n=d#4 v=0
50008 On ch=1 n=f5 v=77
50009 On ch=1 n=f4 v=81
50026 On ch=1 n=f#4 v=0
50027 On ch=1 n=f#4 v=81
50028 On ch=1 n=f4 v=0
50029 On ch=1 n=f#5 v=77
50034 On ch=1 n=f5 v=0
50046 On ch=1 n=f#5 v=0
50047 On ch=1 n=g#4 v=77
50047 On ch=1 n=g#5 v=81
50048 On ch=1 n=f#4 v=0
50064 On ch=1 n=a#4 v=81
50065 On ch=1 n=a#5 v=77
50067 On ch=1 n=g#4 v=0
50067 On ch=1 n=g#5 v=0
50081 On ch=1 n=a#5 v=0
50082 On ch=1 n=a#4 v=0
50084 On ch=1 n=b4 v=81
50084 On ch=1 n=b5 v=81
50098 On ch=1 n=c#5 v=81
50100 On ch=1 n=c#6 v=81
50101 On ch=1 n=b4 v=0
50106 On ch=1 n=b5 v=0
50120 On ch=1 n=d#5 v=85
50121 On ch=1 n=c#6 v=0
50122 On ch=1 n=c#5 v=0
50122 On ch=1 n=d#6 v=85
50137 On ch=1 n=d#5 v=0
50138 On ch=1 n=d#6 v=0
50139 On ch=1 n=f6 v=89
50139 On ch=1 n=f5 v=81
50145 On ch=1 n=f#3 v=0
50149 On ch=1 n=c#3 v=0
50154 On ch=1 n=a#2 v=0
50156 On ch=1 n=f#5 v=81
50157 On ch=1 n=f#6 v=89
50159 On ch=1 n=f5 v=0
50162 On ch=1 n=f6 v=0
50172 On ch=1 n=g#6 v=89
50173 On ch=1 n=f#6 v=0
50174 On ch=1 n=g#5 v=81
50177 On ch=1 n=f#5 v=0
50191 On ch=1 n=a#6 v=73
50192 On ch=1 n=g#5 v=0
50193 On ch=1 n=g#6 v=0
50193 On ch=1 n=a#5 v=85
50207 On ch=1 n=a#6 v=0
50209 On ch=1 n=a#5 v=0
50209 On ch=1 n=b6 v=81
50212 On ch=1 n=b5 v=81
50228 On ch=1 n=c#7 v=93
50229 On ch=1 n=c#6 v=81
50233 On ch=1 n=b5 v=0
50233 On ch=1 n=b6 v=0
50243 On ch=1 n=d#7 v=89
50245 On ch=1 n=c#7 v=0
50247 On ch=1 n=d#6 v=81
50252 On ch=1 n=c#6 v=0
50266 On ch=1 n=d#6 v=0
50266 On ch=1 n=f6 v=85
50267 On ch=1 n=f7 v=81
50268 On ch=1 n=d#7 v=0
50284 On ch=1 n=f#6 v=113
50285 On ch=1 n=f#7 v=113
50286 On ch=1 n=f#5 v=105
50287 On ch=1 n=f6 v=0
50289 On ch=1 n=f7 v=0
50547 On ch=1 n=f#5 v=0
50551 On ch=1 n=f#7 v=0
50552 On ch=1 n=f#6 v=0
50605 On ch=1 n=c#6 v=69
50624 On ch=1 n=d6 v=81
50641 On ch=1 n=c#6 v=0
50650 On ch=1 n=e6 v=85
50654 On ch=1 n=d6 v=0
50670 On ch=1 n=f5 v=101
50671 On ch=1 n=d6 v=81
50687 On ch=1 n=e6 v=0
50720 On ch=1 n=b3 v=81
50721 On ch=1 n=b4 v=77
50775 On ch=1 n=g#4 v=81
50822 On ch=1 n=b5 v=93
50822 On ch=1 n=f4 v=85
50829 On ch=1 n=f5 v=0
50835 On ch=1 n=d6 v=0
50878 On ch=1 n=e5 v=81
50882 On ch=1 n=a#5 v=93
50893 On ch=1 n=b5 v=0
50927 On ch=1 n=b4 v=0
50928 On ch=1 n=f4 v=0
50930 On ch=1 n=g#4 v=0
50931 On ch=1 n=f#4 v=81
50931 On ch=1 n=f#3 v=73
50933 On ch=1 n=b3 v=0
50985 On ch=1 n=c#4 v=73
51034 On ch=1 n=a#3 v=81
51038 On ch=1 n=c#6 v=81
51041 On ch=1 n=e5 v=0
51043 On ch=1 n=a#5 v=0
51085 On ch=1 n=f#3 v=0
51095 On ch=1 n=d5 v=85
51097 On ch=1 n=f#5 v=93
51102 On ch=1 n=c#6 v=0
51148 On ch=1 n=a#3 v=0
51149 On ch=1 n=c#4 v=0
51149 On ch=1 n=b3 v=81
51150 On ch=1 n=b2 v=69
51155 On ch=1 n=f#4 v=0
51196 On ch=1 n=f#3 v=77
51251 On ch=1 n=d3 v=81
51253 On ch=1 n=g#5 v=85
51257 On ch=1 n=d5 v=0
51264 On ch=1 n=f#5 v=0
51296 On ch=1 n=b2 v=0
51296 On ch=1 n=g#5 v=0
51306 On ch=1 n=a#5 v=85
51306 On ch=1 n=c#5 v=85
51308 On ch=1 n=b3 v=0
51311 On ch=1 n=f#3 v=0
51339 On ch=1 n=d3 v=0
51359 On ch=1 n=f#2 v=73
51360 On ch=1 n=f#3 v=69
51416 On ch=1 n=c#3 v=69
51461 On ch=1 n=f#5 v=77
51468 On ch=1 n=a#2 v=73
51474 On ch=1 n=a#5 v=0
51479 On ch=1 n=c#5 v=0
51504 On ch=1 n=f#5 v=0
51508 On ch=1 n=f#2 v=0
51516 On ch=1 n=f#3 v=0
51516 On ch=1 n=c#3 v=0
51519 On ch=1 n=c#6 v=73
51520 On ch=1 n=e5 v=69
51522 On ch=1 n=e6 v=61
51557 On ch=1 n=a#2 v=0
51567 On ch=1 n=b2 v=73
51568 On ch=1 n=b3 v=69
51572 On ch=1 n=f#5 v=69
51587 On ch=1 n=e6 v=0
51591 On ch=1 n=e5 v=0
51593 On ch=1 n=c#6 v=0
51622 On ch=1 n=f#5 v=0
51622 On ch=1 n=f#3 v=81
51627 On ch=1 n=b5 v=77
51628 On ch=1 n=d5 v=73
51629 On ch=1 n=d6 v=77
51674 On ch=1 n=b2 v=0
51675 On ch=1 n=d3 v=77
51677 On ch=1 n=d5 v=0
51679 On ch=1 n=b3 v=0
51680 On ch=1 n=d6 v=0
51682 On ch=1 n=f#5 v=73
51684 On ch=1 n=b5 v=0
51685 On ch=1 n=f#3 v=0
51722 On ch=1 n=f#5 v=0
51739 On ch=1 n=c#6 v=77
51741 On ch=1 n=c#5 v=77
51741 On ch=1 n=a#5 v=81
51752 On ch=1 n=d3 v=0
51795 On ch=1 n=f#4 v=73
51795 On ch=1 n=f#3 v=73
51852 On ch=1 n=c#4 v=73
51906 On ch=1 n=a#3 v=81
51909 On ch=1 n=f#5 v=69
51923 On ch=1 n=c#5 v=0
51926 On ch=1 n=a#5 v=0
51927 On ch=1 n=c#6 v=0
51944 On ch=1 n=f#3 v=0
51951 On ch=1 n=f#4 v=0
51953 On ch=1 n=c#4 v=0
51960 On ch=1 n=g6 v=73
51960 On ch=1 n=g5 v=73
51961 On ch=1 n=e6 v=69
51965 On ch=1 n=a#3 v=0
51972 On ch=1 n=f#5 v=0
52010 On ch=1 n=b5 v=77
52015 On ch=1 n=g6 v=0
52019 On ch=1 n=e3 v=81
52020 On ch=1 n=e4 v=85
52021 On ch=1 n=g5 v=0
52025 On ch=1 n=e6 v=0
52069 On ch=1 n=b5 v=0
52073 On ch=1 n=c#6 v=81
52074 On ch=1 n=e5 v=89
52075 On ch=1 n=b3 v=85
52076 On ch=1 n=e6 v=73
52111 On ch=1 n=e6 v=0
52115 On ch=1 n=c#6 v=0
52115 On ch=1 n=e5 v=0
52125 On ch=1 n=b5 v=85
52128 On ch=1 n=g3 v=85
52131 On ch=1 n=e3 v=0
52131 On ch=1 n=e4 v=0
52138 On ch=1 n=b3 v=0
52181 On ch=1 n=f#4 v=105
52182 On ch=1 n=f#3 v=89
52186 On ch=1 n=a#5 v=93
52187 On ch=1 n=c#5 v=89
52188 On ch=1 n=c#6 v=85
52191 On ch=1 n=b5 v=0
52191 On ch=1 n=g3 v=0
52232 On ch=1 n=c#5 v=0
52235 On ch=1 n=a#5 v=0
52244 On ch=1 n=c#6 v=0
52297 On ch=1 n=c#6 v=81
52299 On ch=1 n=f#5 v=101
52299 On ch=1 n=f#6 v=93
52302 On ch=1 n=a#5 v=89
52342 On ch=1 n=c#4 v=81
52363 On ch=1 n=d4 v=101
52370 On ch=1 n=c#4 v=0
52380 On ch=1 n=e4 v=81
52390 On ch=1 n=d4 v=0
52405 On ch=1 n=d4 v=89
52405 On ch=1 n=d3 v=89
52408 On ch=1 n=e4 v=0
52415 On ch=1 n=a#5 v=0
52416 On ch=1 n=c#6 v=0
52416 On ch=1 n=f#5 v=0
52419 On ch=1 n=f#6 v=0
52528 On ch=1 n=f#5 v=89
52528 On ch=1 n=f#6 v=81
52529 On ch=1 n=d6 v=77
52530 On ch=1 n=b5 v=81
52568 On ch=1 n=d4 v=0
52579 On ch=1 n=b2 v=93
52582 On ch=1 n=b3 v=81
52588 On ch=1 n=f#4 v=0
52590 On ch=1 n=d3 v=0
52596 On ch=1 n=f#3 v=0
52637 On ch=1 n=a#3 v=93
52638 On ch=1 n=a#2 v=101
52644 On ch=1 n=b2 v=0
52645 On ch=1 n=b3 v=0
52691 On ch=1 n=f#5 v=0
52695 On ch=1 n=f#6 v=0
52695 On ch=1 n=d6 v=0
52695 On ch=1 n=b5 v=0
52702 On ch=1 n=c#6 v=73
52704 On ch=1 n=e5 v=65
52752 On ch=1 n=f#5 v=81
52754 On ch=1 n=d6 v=77
52761 On ch=1 n=e5 v=0
52775 On ch=1 n=c#6 v=0
52784 On ch=1 n=a#2 v=0
52792 On ch=1 n=a#3 v=0
52803 On ch=1 n=f#4 v=77
52803 On ch=1 n=c#4 v=77
52803 On ch=1 n=a#3 v=49
52814 On ch=1 n=e6 v=81
52816 On ch=1 n=g5 v=69
52825 On ch=1 n=f#5 v=0
52830 On ch=1 n=d6 v=0
52864 On ch=1 n=b2 v=81
52864 On ch=1 n=b3 v=73
52865 On ch=1 n=g5 v=0
52874 On ch=1 n=e6 v=0
52874 On ch=1 n=c#4 v=0
52876 On ch=1 n=a#3 v=0
52876 On ch=1 n=f#4 v=0
52929 On ch=1 n=f#5 v=69
52930 On ch=1 n=d6 v=81
52981 On ch=1 n=c#5 v=69
52983 On ch=1 n=a#5 v=85
52987 On ch=1 n=f#5 v=0
52993 On ch=1 n=d6 v=0
53033 On ch=1 n=b5 v=81
53036 On ch=1 n=b2 v=0
53036 On ch=1 n=b3 v=0
53037 On ch=1 n=d5 v=65
53038 On ch=1 n=f4 v=73
53040 On ch=1 n=b3 v=65
53040 On ch=1 n=g#4 v=73
53052 On ch=1 n=a#5 v=0
53066 On ch=1 n=c#5 v=0
53095 On ch=1 n=f#3 v=73
53096 On ch=1 n=f#2 v=77
53105 On ch=1 n=d5 v=0
53105 On ch=1 n=g#4 v=0
53106 On ch=1 n=b3 v=0
53106 On ch=1 n=f4 v=0
53111 On ch=1 n=b5 v=0
53152 On ch=1 n=c#5 v=73
53153 On ch=1 n=a#5 v=81
53154 On ch=1 n=c#6 v=73
53211 On ch=1 n=f5 v=61
53260 On ch=1 n=a#2 v=81
53266 On ch=1 n=f#5 v=69
53271 On ch=1 n=f#3 v=0
53275 On ch=1 n=f5 v=0
53277 On ch=1 n=c#5 v=0
53282 On ch=1 n=c#6 v=0
53284 On ch=1 n=a#5 v=0
53317 On ch=1 n=b2 v=85
53319 On ch=1 n=b3 v=93
53321 On ch=1 n=f#5 v=0
53321 On ch=1 n=a#2 v=0
53327 On ch=1 n=f#2 v=0
53376 On ch=1 n=e6 v=65
53377 On ch=1 n=g5 v=61
53377 On ch=1 n=g6 v=65
53433 On ch=1 n=b5 v=81
53437 On ch=1 n=g6 v=0
53442 On ch=1 n=g5 v=0
53448 On ch=1 n=e6 v=0
53487 On ch=1 n=d3 v=81
53487 On ch=1 n=d4 v=81
53490 On ch=1 n=b2 v=0
53492 On ch=1 n=f#5 v=69
53493 On ch=1 n=f#6 v=65
53496 On ch=1 n=d6 v=65
53500 On ch=1 n=b3 v=0
53512 On ch=1 n=b5 v=0
53522 On ch=1 n=f#5 v=0
53525 On ch=1 n=f#6 v=0
53530 On ch=1 n=d6 v=0
53547 On ch=1 n=f#3 v=81
53547 On ch=1 n=f#4 v=93
53549 On ch=1 n=d3 v=0
53550 On ch=1 n=d4 v=0
53607 On ch=1 n=c#5 v=73
53608 On ch=1 n=a#5 v=73
53609 On ch=1 n=c#6 v=61
53668 On ch=1 n=f5 v=57
53718 On ch=1 n=f#3 v=0
53721 On ch=1 n=a#3 v=81
53722 On ch=1 n=f#5 v=69
53730 On ch=1 n=f5 v=0
53737 On ch=1 n=c#5 v=0
53739 On ch=1 n=a#5 v=0
53743 On ch=1 n=c#6 v=0
53753 On ch=1 n=f#4 v=0
53759 On ch=1 n=f#5 v=0
53776 On ch=1 n=e3 v=77
53777 On ch=1 n=b3 v=81
53778 On ch=1 n=a#3 v=0
53827 On ch=1 n=g6 v=69
53828 On ch=1 n=b5 v=81
53828 On ch=1 n=b6 v=69
53831 On ch=1 n=b4 v=65
53876 On ch=1 n=b6 v=0
53878 On ch=1 n=b5 v=0
53880 On ch=1 n=g6 v=0
53883 On ch=1 n=g4 v=65
53884 On ch=1 n=c#6 v=69
53893 On ch=1 n=b4 v=0
53904 On ch=1 n=c#6 v=0
53933 On ch=1 n=e6 v=81
53935 On ch=1 n=g5 v=81
53936 On ch=1 n=g6 v=69
53937 On ch=1 n=e4 v=69
53940 On ch=1 n=g4 v=0
53948 On ch=1 n=g5 v=0
53948 On ch=1 n=g6 v=0
53951 On ch=1 n=e6 v=0
53986 On ch=1 n=a4 v=93
53988 On ch=1 n=b3 v=0
53990 On ch=1 n=a3 v=101
53991 On ch=1 n=e4 v=0
53991 On ch=1 n=e3 v=0
53993 On ch=1 n=c#6 v=81
53994 On ch=1 n=e5 v=89
53995 On ch=1 n=e6 v=77
54031 On ch=1 n=e5 v=0
54039 On ch=1 n=c#6 v=0
54044 On ch=1 n=e6 v=0
54104 On ch=1 n=e6 v=81
54105 On ch=1 n=a5 v=93
54106 On ch=1 n=c#6 v=81
54106 On ch=1 n=a6 v=81
54134 On ch=1 n=e4 v=81
54155 On ch=1 n=f#4 v=81
54179 On ch=1 n=g4 v=89
54184 On ch=1 n=e4 v=0
54196 On ch=1 n=f#4 v=0
54211 On ch=1 n=g4 v=0
54219 On ch=1 n=f#3 v=113
54220 On ch=1 n=f#4 v=121
54225 On ch=1 n=a5 v=0
54227 On ch=1 n=a6 v=0
54229 On ch=1 n=c#6 v=0
54231 On ch=1 n=e6 v=0
54246 On ch=1 n=a4 v=0
54249 On ch=1 n=a3 v=0
54343 On ch=1 n=c#6 v=93
54344 On ch=1 n=a#5 v=121
54344 On ch=1 n=g6 v=81
54345 On ch=1 n=a#6 v=85
54346 On ch=1 n=f#4 v=0
54356 On ch=1 n=f#3 v=0
54394 On ch=1 n=e4 v=105
54395 On ch=1 n=e3 v=105
54411 On ch=1 n=e3 v=0
54412 On ch=1 n=e4 v=0
54458 On ch=1 n=d4 v=113
54459 On ch=1 n=d3 v=113
54464 On ch=1 n=a#5 v=0
54465 On ch=1 n=g6 v=0
54466 On ch=1 n=c#6 v=0
54469 On ch=1 n=a#6 v=0
54497 On ch=1 n=d#6 v=29
54504 On ch=1 n=d#6 v=0
54578 On ch=1 n=f#6 v=101
54578 On ch=1 n=d6 v=101
54579 On ch=1 n=b6 v=101
54580 On ch=1 n=b5 v=105
54589 On ch=1 n=d4 v=0
54610 On ch=1 n=a#3 v=81
54614 On ch=1 n=d3 v=0
54640 On ch=1 n=b3 v=81
54650 On ch=1 n=a#3 v=0
54669 On ch=1 n=c#4 v=101
54680 On ch=1 n=b3 v=0
54690 On ch=1 n=b5 v=0
54693 On ch=1 n=d6 v=0
54694 On ch=1 n=f#6 v=0
54699 On ch=1 n=b2 v=121
54700 On ch=1 n=b3 v=121
54702 On ch=1 n=b6 v=0
54703 On ch=1 n=c#4 v=0
54805 On ch=1 n=b3 v=0
54809 On ch=1 n=f#6 v=105
54810 On ch=1 n=b2 v=0
54811 On ch=1 n=d6 v=113
54811 On ch=1 n=b6 v=85
54811 On ch=1 n=d7 v=101
54872 On ch=1 n=a2 v=113
54873 On ch=1 n=a3 v=113
54883 On ch=1 n=a3 v=0
54884 On ch=1 n=a2 v=0
54930 On ch=1 n=g2 v=121
54930 On ch=1 n=g3 v=125
54937 On ch=1 n=d6 v=0
54937 On ch=1 n=d7 v=0
54939 On ch=1 n=f#6 v=0
54940 On ch=1 n=b6 v=0
55055 On ch=1 n=f#7 v=101
55056 On ch=1 n=b6 v=81
55058 On ch=1 n=b7 v=81
55091 On ch=1 n=f#7 v=0
55093 On ch=1 n=b7 v=0
55094 On ch=1 n=b6 v=0
55106 On ch=1 n=f#4 v=89
55108 On ch=1 n=b4 v=89
55108 On ch=1 n=d4 v=93
55160 On ch=1 n=g3 v=0
55163 On ch=1 n=g2 v=0
55165 On ch=1 n=b6 v=101
55166 On ch=1 n=g6 v=105
55168 On ch=1 n=g7 v=121
55170 On ch=1 n=c#4 v=121
55173 On ch=1 n=c#3 v=105
55180 On ch=1 n=f#4 v=0
55181 On ch=1 n=d4 v=0
55183 On ch=1 n=b4 v=0
55217 On ch=1 n=g7 v=0
55218 On ch=1 n=g6 v=0
55218 On ch=1 n=b6 v=0
55282 On ch=1 n=g6 v=101
55283 On ch=1 n=e6 v=81
55287 On ch=1 n=e7 v=69
55304 On ch=1 n=e7 v=0
55311 On ch=1 n=g6 v=0
55316 On ch=1 n=e6 v=0
55333 On ch=1 n=g4 v=89
55334 On ch=1 n=e4 v=89
55335 On ch=1 n=b4 v=85
55338 On ch=1 n=c#4 v=0
55343 On ch=1 n=c#3 v=0
55399 On ch=1 n=f#7 v=105
55401 On ch=1 n=f#6 v=101
55401 On ch=1 n=c#7 v=89
55403 On ch=1 n=a#3 v=113
55405 On ch=1 n=a#2 v=113
55417 On ch=1 n=e4 v=0
55417 On ch=1 n=g4 v=0
55421 On ch=1 n=b4 v=0
55431 On ch=1 n=c#7 v=0
55433 On ch=1 n=f#6 v=0
55435 On ch=1 n=f#7 v=0
55515 On ch=1 n=f#6 v=85
55516 On ch=1 n=d6 v=85
55517 On ch=1 n=d7 v=81
55532 On ch=1 n=d7 v=0
55533 On ch=1 n=f#6 v=0
55534 On ch=1 n=d6 v=0
55569 On ch=1 n=f#4 v=85
55569 On ch=1 n=d4 v=89
55570 On ch=1 n=a#4 v=85
55603 On ch=1 n=a#3 v=0
55605 On ch=1 n=a#2 v=0
55624 On ch=1 n=d4 v=0
55630 On ch=1 n=f#4 v=0
55631 On ch=1 n=a#6 v=77
55632 On ch=1 n=a#5 v=81
55633 On ch=1 n=f#6 v=77
55637 On ch=1 n=d3 v=101
55640 On ch=1 n=d4 v=113
55641 On ch=1 n=a#4 v=0
55660 On ch=1 n=a#5 v=0
55667 On ch=1 n=f#6 v=0
55670 On ch=1 n=a#6 v=0
55747 On ch=1 n=b6 v=69
55748 On ch=1 n=f#6 v=69
55748 On ch=1 n=b5 v=73
55814 On ch=1 n=f#4 v=89
55814 On ch=1 n=b4 v=89
55816 On ch=1 n=d4 v=0
55816 On ch=1 n=d4 v=81
55848 On ch=1 n=d4 v=0
55854 On ch=1 n=d3 v=0
55857 On ch=1 n=b6 v=0
55868 On ch=1 n=b5 v=0
55869 On ch=1 n=g3 v=101
55870 On ch=1 n=f#6 v=0
55871 On ch=1 n=g4 v=105
55883 On ch=1 n=f#4 v=0
55884 On ch=1 n=b4 v=0
55920 On ch=1 n=g6 v=77
55921 On ch=1 n=g5 v=69
55955 On ch=1 n=g5 v=0
55955 On ch=1 n=g6 v=0
55980 On ch=1 n=f#5 v=77
55981 On ch=1 n=f#4 v=81
55981 On ch=1 n=f#6 v=85
55985 On ch=1 n=f#3 v=69
55997 On ch=1 n=f#3 v=0
55998 On ch=1 n=f#4 v=0
56000 On ch=1 n=f#5 v=0
56008 On ch=1 n=f#6 v=0
56031 On ch=1 n=f4 v=101
56031 On ch=1 n=f3 v=101
56032 On ch=1 n=f6 v=89
56033 On ch=1 n=f5 v=101
56048 On ch=1 n=f3 v=0
56054 On ch=1 n=f4 v=0
56090 On ch=1 n=f#4 v=113
56091 On ch=1 n=f#3 v=105
56124 On ch=1 n=g4 v=0
56128 On ch=1 n=g3 v=0
56136 On ch=1 n=f5 v=0
56139 On ch=1 n=f6 v=0
56150 On ch=1 n=f#6 v=93
56151 On ch=1 n=f#5 v=89
56171 On ch=1 n=f#5 v=0
56180 On ch=1 n=f#3 v=0
56181 On ch=1 n=f#6 v=0
56191 On ch=1 n=f#4 v=0
56201 On ch=1 n=g#4 v=101
56201 On ch=1 n=g#3 v=89
56207 On ch=1 n=g#5 v=89
56207 On ch=1 n=g#6 v=81
56218 On ch=1 n=g#5 v=0
56221 On ch=1 n=g#3 v=0
56222 On ch=1 n=g#4 v=0
56226 On ch=1 n=g#6 v=0
56253 On ch=1 n=a#4 v=101
56254 On ch=1 n=a#3 v=85
56255 On ch=1 n=a#5 v=101
56257 On ch=1 n=a#6 v=81
56268 On ch=1 n=a#3 v=0
56274 On ch=1 n=a#4 v=0
56315 On ch=1 n=b4 v=105
56318 On ch=1 n=b3 v=105
56354 On ch=1 n=a#5 v=0
56360 On ch=1 n=a#6 v=0
56370 On ch=1 n=b6 v=81
56371 On ch=1 n=b5 v=73
56390 On ch=1 n=b5 v=0
56401 On ch=1 n=b6 v=0
56403 On ch=1 n=b3 v=0
56405 On ch=1 n=b4 v=0
56424 On ch=1 n=c#5 v=101
56424 On ch=1 n=c#4 v=93
56425 On ch=1 n=c#6 v=89
56426 On ch=1 n=c#7 v=101
56447 On ch=1 n=c#6 v=0
56447 On ch=1 n=c#5 v=0
56447 On ch=1 n=c#4 v=0
56453 On ch=1 n=c#7 v=0
56479 On ch=1 n=d5 v=89
56480 On ch=1 n=d4 v=89
56481 On ch=1 n=d6 v=101
56481 On ch=1 n=d7 v=101
56497 On ch=1 n=d4 v=0
56501 On ch=1 n=d5 v=0
56539 On ch=1 n=e4 v=113
56539 On ch=1 n=e5 v=101
56556 On ch=1 n=d7 v=0
56557 On ch=1 n=d6 v=0
56591 On ch=1 n=e6 v=93
56592 On ch=1 n=e7 v=89
56615 On ch=1 n=e6 v=0
56617 On ch=1 n=e7 v=0
56621 On ch=1 n=e4 v=0
56627 On ch=1 n=e5 v=0
56643 On ch=1 n=f#5 v=93
56645 On ch=1 n=f#4 v=89
56649 On ch=1 n=f#6 v=93
56650 On ch=1 n=f#7 v=113
56666 On ch=1 n=f#5 v=0
56667 On ch=1 n=f#4 v=0
56668 On ch=1 n=f#6 v=0
56674 On ch=1 n=f#7 v=0
56701 On ch=1 n=g4 v=101
56703 On ch=1 n=g5 v=101
56705 On ch=1 n=g6 v=101
56707 On ch=1 n=g7 v=101
56754 On ch=1 n=c4 v=57
56757 On ch=1 n=f#4 v=81
56767 On ch=1 n=a4 v=85
56776 On ch=1 n=d#5 v=105
56785 On ch=1 n=c4 v=0
56791 On ch=1 n=g5 v=0
56797 On ch=1 n=g4 v=0
56800 On ch=1 n=g7 v=0
56807 On ch=1 n=g6 v=0
56819 On ch=1 n=d#5 v=0
56824 On ch=1 n=a5 v=89
56824 On ch=1 n=a6 v=81
56831 On ch=1 n=a4 v=0
56839 On ch=1 n=a5 v=0
56842 On ch=1 n=a6 v=0
56861 On ch=1 n=f#4 v=0
56879 On ch=1 n=d5 v=101
56880 On ch=1 n=g6 v=85
56881 On ch=1 n=g5 v=85
56882 On ch=1 n=b4 v=81
56892 On ch=1 n=g5 v=0
56894 On ch=1 n=g6 v=0
56895 On ch=1 n=b4 v=0
56896 On ch=1 n=d5 v=0
56933 On ch=1 n=f#5 v=93
56935 On ch=1 n=a4 v=73
56935 On ch=1 n=f#6 v=89
56937 On ch=1 n=c5 v=69
56977 On ch=1 n=b3 v=73
56987 On ch=1 n=d4 v=73
56992 On ch=1 n=g4 v=93
57007 On ch=1 n=d5 v=81
57029 On ch=1 n=d4 v=0
57032 On ch=1 n=b3 v=0
57042 On ch=1 n=d5 v=0
57043 On ch=1 n=g4 v=0
57052 On ch=1 n=g5 v=85
57053 On ch=1 n=g6 v=81
57058 On ch=1 n=c5 v=0
57063 On ch=1 n=a4 v=0
57066 On ch=1 n=f#5 v=0
57068 On ch=1 n=f#6 v=0
57070 On ch=1 n=g5 v=0
57074 On ch=1 n=g6 v=0
57105 On ch=1 n=c5 v=85
57106 On ch=1 n=a5 v=101
57106 On ch=1 n=a6 v=93
57108 On ch=1 n=a4 v=69
57118 On ch=1 n=a5 v=0
57119 On ch=1 n=a4 v=0
57122 On ch=1 n=a6 v=0
57122 On ch=1 n=c5 v=0
57157 On ch=1 n=b5 v=105
57159 On ch=1 n=b6 v=85
57161 On ch=1 n=g4 v=93
57163 On ch=1 n=b4 v=89
57179 On ch=1 n=g4 v=0
57198 On ch=1 n=d#4 v=81
57206 On ch=1 n=g4 v=73
57215 On ch=1 n=c5 v=77
57227 On ch=1 n=g4 v=0
57227 On ch=1 n=g5 v=81
57233 On ch=1 n=d#4 v=0
57260 On ch=1 n=c5 v=0
57272 On ch=1 n=g5 v=0
57273 On ch=1 n=b4 v=0
57280 On ch=1 n=c6 v=85
57281 On ch=1 n=c7 v=89
57286 On ch=1 n=b6 v=0
57286 On ch=1 n=b5 v=0
57297 On ch=1 n=c6 v=0
57297 On ch=1 n=c7 v=0
57330 On ch=1 n=d5 v=81
57332 On ch=1 n=f5 v=85
57333 On ch=1 n=d6 v=105
57335 On ch=1 n=d7 v=101
57345 On ch=1 n=f5 v=0
57347 On ch=1 n=d6 v=0
57349 On ch=1 n=d5 v=0
57349 On ch=1 n=d7 v=0
57385 On ch=1 n=c5 v=85
57387 On ch=1 n=d#5 v=81
57389 On ch=1 n=d#7 v=105
57389 On ch=1 n=d#6 v=89
57404 On ch=1 n=c5 v=0
57420 On ch=1 n=g#4 v=69
57425 On ch=1 n=c5 v=61
57435 On ch=1 n=f5 v=77
57443 On ch=1 n=c6 v=89
57445 On ch=1 n=c5 v=0
57478 On ch=1 n=d#5 v=0
57485 On ch=1 n=d#6 v=0
57485 On ch=1 n=g#4 v=0
57489 On ch=1 n=d#7 v=0
57495 On ch=1 n=c6 v=0
57496 On ch=1 n=f5 v=0
57497 On ch=1 n=f6 v=101
57498 On ch=1 n=f7 v=93
57507 On ch=1 n=f6 v=0
57510 On ch=1 n=f7 v=0
57552 On ch=1 n=a#5 v=113
57554 On ch=1 n=g6 v=105
57555 On ch=1 n=g7 v=105
57556 On ch=1 n=g5 v=53
57562 On ch=1 n=g6 v=0
57564 On ch=1 n=g5 v=0
57566 On ch=1 n=g7 v=0
57566 On ch=1 n=a#5 v=0
57608 On ch=1 n=g#6 v=105
57609 On ch=1 n=g#7 v=113
57609 On ch=1 n=g#5 v=101
57610 On ch=1 n=f5 v=81
57671 On ch=1 n=c3 v=101
57673 On ch=1 n=c4 v=101
57693 On ch=1 n=c4 v=0
57696 On ch=1 n=c3 v=0
57706 On ch=1 n=g#5 v=0
57707 On ch=1 n=g#7 v=0
57715 On ch=1 n=f5 v=0
57717 On ch=1 n=g#6 v=0
57720 On ch=1 n=c5 v=81
57765 On ch=1 n=c5 v=0
57785 On ch=1 n=c#4 v=101
57787 On ch=1 n=c#3 v=89
57836 On ch=1 n=c#5 v=89
57855 On ch=1 n=c#5 v=0
57870 On ch=1 n=a4 v=73
57871 On ch=1 n=c#3 v=0
57873 On ch=1 n=c#4 v=0
57885 On ch=1 n=c#5 v=69
57894 On ch=1 n=f#5 v=85
57909 On ch=1 n=c#5 v=0
57912 On ch=1 n=c#6 v=85
57939 On ch=1 n=a4 v=0
57961 On ch=1 n=c#6 v=0
57962 On ch=1 n=f#6 v=81
57963 On ch=1 n=f#7 v=93
57967 On ch=1 n=f#5 v=0
57981 On ch=1 n=f#6 v=0
57990 On ch=1 n=f#7 v=0
58014 On ch=1 n=b5 v=89
58015 On ch=1 n=g#5 v=93
58016 On ch=1 n=g#6 v=105
58018 On ch=1 n=g#7 v=101
58033 On ch=1 n=g#5 v=0
58034 On ch=1 n=g#6 v=0
58036 On ch=1 n=b5 v=0
58036 On ch=1 n=g#7 v=0
58074 On ch=1 n=a6 v=101
58074 On ch=1 n=f#5 v=89
58075 On ch=1 n=a7 v=101
58076 On ch=1 n=a5 v=81
58129 On ch=1 n=c#3 v=89
58130 On ch=1 n=c#4 v=113
58156 On ch=1 n=c#3 v=0
58158 On ch=1 n=c#4 v=0
58172 On ch=1 n=a7 v=0
58182 On ch=1 n=c#5 v=89
58191 On ch=1 n=a5 v=0
58192 On ch=1 n=f#5 v=0
58193 On ch=1 n=a6 v=0
58246 On ch=1 n=d4 v=101
58247 On ch=1 n=d3 v=101
58257 On ch=1 n=c#5 v=0
58301 On ch=1 n=d5 v=85
58316 On ch=1 n=a#4 v=81
58318 On ch=1 n=d5 v=0
58330 On ch=1 n=d5 v=61
58344 On ch=1 n=g5 v=73
58346 On ch=1 n=d5 v=0
58354 On ch=1 n=a#4 v=0
58358 On ch=1 n=d3 v=0
58359 On ch=1 n=d4 v=0
58359 On ch=1 n=d6 v=101
58411 On ch=1 n=d6 v=0
58415 On ch=1 n=g6 v=85
58416 On ch=1 n=g5 v=0
58416 On ch=1 n=g7 v=85
58433 On ch=1 n=g6 v=0
58437 On ch=1 n=g7 v=0
58470 On ch=1 n=c6 v=101
58472 On ch=1 n=a5 v=81
58473 On ch=1 n=a6 v=101
58476 On ch=1 n=a7 v=101
58487 On ch=1 n=a7 v=0
58488 On ch=1 n=c6 v=0
58490 On ch=1 n=a6 v=0
58490 On ch=1 n=a5 v=0
58529 On ch=1 n=a#6 v=93
58529 On ch=1 n=g5 v=81
58530 On ch=1 n=a#7 v=101
58531 On ch=1 n=a#5 v=85
58584 On ch=1 n=d#3 v=93
58585 On ch=1 n=d#4 v=121
58602 On ch=1 n=d#3 v=0
58609 On ch=1 n=d#4 v=0
58640 On ch=1 n=a#7 v=0
58640 On ch=1 n=d#5 v=85
58645 On ch=1 n=a#6 v=0
58647 On ch=1 n=a#5 v=0
58652 On ch=1 n=g5 v=0
58664 On ch=1 n=d#5 v=0
58702 On ch=1 n=c#5 v=85
58703 On ch=1 n=a#5 v=89
58703 On ch=1 n=c#6 v=89
58752 On ch=1 n=g7 v=81
58755 On ch=1 n=c#7 v=81
58755 On ch=1 n=g6 v=77
58770 On ch=1 n=g6 v=0
58780 On ch=1 n=g7 v=0
58780 On ch=1 n=c#7 v=0
58809 On ch=1 n=c#7 v=89
58810 On ch=1 n=a6 v=85
58812 On ch=1 n=a7 v=81
58828 On ch=1 n=a6 v=0
58833 On ch=1 n=a7 v=0
58841 On ch=1 n=a#5 v=0
58844 On ch=1 n=c#7 v=0
58845 On ch=1 n=c#6 v=0
58866 On ch=1 n=c#5 v=0
58866 On ch=1 n=a#7 v=93
58867 On ch=1 n=a#6 v=89
58867 On ch=1 n=c#7 v=81
58895 On ch=1 n=a#7 v=0
58903 On ch=1 n=a#6 v=0
58906 On ch=1 n=c#7 v=0
58925 On ch=1 n=e4 v=105
58926 On ch=1 n=e3 v=121
58971 On ch=1 n=e3 v=0
58980 On ch=1 n=e5 v=101
58982 On ch=1 n=e4 v=0
59010 On ch=1 n=e5 v=0
59045 On ch=1 n=c#6 v=93
59045 On ch=1 n=a#5 v=73
59046 On ch=1 n=c#5 v=81
59096 On ch=1 n=c#7 v=89
59096 On ch=1 n=g7 v=81
59098 On ch=1 n=g6 v=81
59108 On ch=1 n=g6 v=0
59116 On ch=1 n=c#7 v=0
59118 On ch=1 n=g7 v=0
59151 On ch=1 n=c#7 v=101
59151 On ch=1 n=a6 v=93
59154 On ch=1 n=a7 v=81
59165 On ch=1 n=a6 v=0
59166 On ch=1 n=a7 v=0
59175 On ch=1 n=c#7 v=0
59207 On ch=1 n=a#6 v=93
59208 On ch=1 n=c#7 v=81
59209 On ch=1 n=a#7 v=85
59349 On ch=1 n=a#7 v=0
59363 On ch=1 n=c#7 v=0
59374 On ch=1 n=a#6 v=0
59375 On ch=1 n=f#3 v=85
59376 On ch=1 n=d3 v=93
59379 On ch=1 n=f#7 v=105
59380 On ch=1 n=b6 v=93
59380 On ch=1 n=b7 v=101
59382 On ch=1 n=b3 v=105
59384 On ch=1 n=d4 v=113
59402 On ch=1 n=a#5 v=0
59419 On ch=1 n=c#6 v=0
59424 On ch=1 n=c#5 v=0
59489 On ch=1 n=f5 v=93
59538 On ch=1 n=f6 v=85
59582 On ch=1 n=d#4 v=69
59592 On ch=1 n=f#4 v=81
59602 On ch=1 n=a4 v=69
59617 On ch=1 n=b4 v=81
59629 On ch=1 n=f#5 v=89
59651 On ch=1 n=f5 v=0
59684 On ch=1 n=b3 v=0
59684 On ch=1 n=d4 v=0
59686 On ch=1 n=f#7 v=0
59688 On ch=1 n=b6 v=0
59690 On ch=1 n=f#3 v=0
59691 On ch=1 n=b7 v=0
59691 On ch=1 n=d3 v=0
59697 On ch=1 n=f#7 v=85
59697 On ch=1 n=f#6 v=77
59699 On ch=1 n=b6 v=69
59700 On ch=1 n=f6 v=0
59738 On ch=1 n=b6 v=0
59741 On ch=1 n=f#7 v=0
59749 On ch=1 n=b4 v=0
59754 On ch=1 n=a4 v=0
59755 On ch=1 n=d#4 v=0
59762 On ch=1 n=f#5 v=0
59762 On ch=1 n=f#4 v=0
59774 On ch=1 n=b4 v=81
59820 On ch=1 n=b4 v=0
59832 On ch=1 n=b6 v=69
59833 On ch=1 n=b5 v=77
59841 On ch=1 n=b6 v=0
59869 On ch=1 n=e4 v=69
59877 On ch=1 n=g4 v=77
59889 On ch=1 n=c5 v=73
59898 On ch=1 n=e5 v=73
59919 On ch=1 n=f#6 v=0
59949 On ch=1 n=c7 v=81
59950 On ch=1 n=c6 v=65
59950 On ch=1 n=g6 v=73
59960 On ch=1 n=b5 v=0
60007 On ch=1 n=c7 v=0
60009 On ch=1 n=g6 v=0
60011 On ch=1 n=c6 v=0
60027 On ch=1 n=a#4 v=73
60029 On ch=1 n=c5 v=0
60029 On ch=1 n=e4 v=0
60029 On ch=1 n=e5 v=0
60032 On ch=1 n=g4 v=0
60079 On ch=1 n=a#6 v=69
60117 On ch=1 n=g#3 v=69
60127 On ch=1 n=a#4 v=0
60129 On ch=1 n=d4 v=61
60137 On ch=1 n=f4 v=81
60152 On ch=1 n=b4 v=85
60202 On ch=1 n=a#6 v=0
60207 On ch=1 n=b6 v=61
60208 On ch=1 n=b5 v=61
60209 On ch=1 n=d6 v=73
60242 On ch=1 n=g#3 v=0
60260 On ch=1 n=b4 v=0
60263 On ch=1 n=f4 v=0
60264 On ch=1 n=d4 v=0
60272 On ch=1 n=f3 v=77
60335 On ch=1 n=f4 v=73
60353 On ch=1 n=b5 v=0
60354 On ch=1 n=d6 v=0
60354 On ch=1 n=b6 v=0
60406 On ch=1 n=f#2 v=57
60411 On ch=1 n=f#3 v=57
60416 On ch=1 n=c#3 v=57
60421 On ch=1 n=a#2 v=57
60423 On ch=1 n=f3 v=0
60499 On ch=1 n=f#4 v=73
60504 On ch=1 n=f#5 v=53
60504 On ch=1 n=c#5 v=61
60505 On ch=1 n=a#4 v=73
60510 On ch=1 n=f#2 v=0
60510 On ch=1 n=a#2 v=0
60515 On ch=1 n=f#3 v=0
60518 On ch=1 n=c#3 v=0
60546 On ch=1 n=f4 v=0
60668 On ch=1 n=b2 v=101
60683 On ch=1 n=c#5 v=0
60684 On ch=1 n=f#5 v=0
60684 On ch=1 n=f#4 v=0
60686 On ch=1 n=a#4 v=0
61224 On ch=1 n=f#3 v=89
61602 On ch=1 n=b3 v=65
61653 On ch=1 n=f#3 v=0
61985 On ch=1 n=b2 v=0
62034 On ch=1 n=b2 v=53
62035 On ch=1 n=f#3 v=53
62037 On ch=1 n=c#4 v=61
62055 On ch=1 n=b3 v=0
63093 On ch=1 n=f#3 v=0
63094 On ch=1 n=c#4 v=0
63104 On ch=1 n=b2 v=0
63283 On ch=1 n=b2 v=73
63309 On ch=1 n=f#3 v=73
63563 On ch=1 n=f#4 v=73
63809 On ch=1 n=b3 v=69
64058 On ch=1 n=b4 v=57
64294 On ch=1 n=c#4 v=53
64546 On ch=1 n=c#5 v=53
64584 On ch=1 n=c#4 v=0
64602 On ch=1 n=b4 v=0
64608 On ch=1 n=f#4 v=0
64625 On ch=1 n=b3 v=0
64824 On ch=1 n=d4 v=57
64852 On ch=1 n=c#5 v=0
65130 On ch=1 n=d5 v=49
65523 On ch=1 n=b2 v=0
65524 On ch=1 n=b2 v=81
65668 On ch=1 n=d4 v=0
65672 On ch=1 n=d5 v=0
65684 On ch=1 n=f#3 v=0
65829 On ch=1 n=b2 v=0
66177 On ch=1 n=f#3 v=69
66439 On ch=1 n=f#5 v=61
66442 On ch=1 n=f#4 v=49
66689 On ch=1 n=f#4 v=0
66693 On ch=1 n=b3 v=57
66710 On ch=1 n=f#5 v=0
66994 On ch=1 n=b4 v=49
66996 On ch=1 n=b5 v=65
67015 On ch=1 n=f#3 v=0
67052 On ch=1 n=b3 v=0
67191 On ch=1 n=b5 v=0
67194 On ch=1 n=b4 v=0
67211 On ch=1 n=b2 v=53
67252 On ch=1 n=f#3 v=69
67295 On ch=1 n=c#4 v=77
67339 On ch=1 n=c#5 v=69
67342 On ch=1 n=c#6 v=69
67348 On ch=1 n=f#5 v=73
68454 On ch=1 n=b2 v=0
68468 On ch=1 n=f#3 v=0
68470 On ch=1 n=c#4 v=0
68477 On ch=1 n=f#5 v=0
68480 On ch=1 n=c#5 v=0
68486 On ch=1 n=c#6 v=0
68754 On ch=1 n=f#5 v=57
68759 On ch=1 n=f#6 v=49
68762 On ch=1 n=b3 v=37
68846 On ch=1 n=b4 v=57
68928 On ch=1 n=d#5 v=49
68932 On ch=1 n=b4 v=0
68939 On ch=1 n=b5 v=41
69021 On ch=1 n=d#5 v=0
69023 On ch=1 n=b4 v=33
69101 On ch=1 n=e5 v=49
69104 On ch=1 n=b4 v=0
69107 On ch=1 n=c#6 v=61
69131 On ch=1 n=b5 v=0
69193 On ch=1 n=e5 v=0
69195 On ch=1 n=b4 v=33
69281 On ch=1 n=f#5 v=0
69281 On ch=1 n=f#5 v=53
69283 On ch=1 n=b4 v=0
69285 On ch=1 n=d#6 v=61
69371 On ch=1 n=f#5 v=0
69372 On ch=1 n=b4 v=25
69388 On ch=1 n=c#6 v=0
69397 On ch=1 n=f#6 v=0
69424 On ch=1 n=d#6 v=0
69458 On ch=1 n=f#6 v=69
69462 On ch=1 n=g#5 v=69
69463 On ch=1 n=e6 v=49
69548 On ch=1 n=g#5 v=0
69550 On ch=1 n=b4 v=0
69558 On ch=1 n=b4 v=53
69639 On ch=1 n=d#6 v=53
69642 On ch=1 n=f#5 v=41
69651 On ch=1 n=e6 v=0
69667 On ch=1 n=b4 v=0
69675 On ch=1 n=f#6 v=0
69728 On ch=1 n=g#5 v=61
69729 On ch=1 n=d#6 v=0
69730 On ch=1 n=e6 v=61
69732 On ch=1 n=f#5 v=0
69816 On ch=1 n=g#5 v=0
69821 On ch=1 n=f#5 v=57
69822 On ch=1 n=d#6 v=69
69905 On ch=1 n=f#5 v=0
69907 On ch=1 n=b4 v=49
69990 On ch=1 n=e6 v=0
69992 On ch=1 n=b4 v=0
69995 On ch=1 n=c#6 v=69
70005 On ch=1 n=e5 v=41
70027 On ch=1 n=d#6 v=0
70086 On ch=1 n=e5 v=0
70090 On ch=1 n=b4 v=53
70155 On ch=1 n=b3 v=0
70176 On ch=1 n=d#5 v=57
70177 On ch=1 n=b4 v=0
70178 On ch=1 n=c#6 v=0
70179 On ch=1 n=b5 v=57
70180 On ch=1 n=f#6 v=53
70247 On ch=1 n=d#5 v=0
70275 On ch=1 n=b4 v=69
70341 On ch=1 n=b4 v=0
70351 On ch=1 n=a#5 v=61
70352 On ch=1 n=c#5 v=69
70364 On ch=1 n=b5 v=0
70433 On ch=1 n=c#5 v=0
70444 On ch=1 n=d#5 v=61
70445 On ch=1 n=b5 v=41
70507 On ch=1 n=d#5 v=0
70527 On ch=1 n=a#5 v=0
70532 On ch=1 n=c#5 v=69
70533 On ch=1 n=a#5 v=61
70592 On ch=1 n=b5 v=0
70606 On ch=1 n=b3 v=49
70654 On ch=1 n=c#5 v=0
70695 On ch=1 n=b3 v=0
70703 On ch=1 n=g#5 v=53
70705 On ch=1 n=b4 v=53
70758 On ch=1 n=b4 v=0
70793 On ch=1 n=b3 v=57
70795 On ch=1 n=g#5 v=0
70825 On ch=1 n=f#6 v=0
70830 On ch=1 n=a#5 v=0
70874 On ch=1 n=a#4 v=73
70878 On ch=1 n=f#6 v=61
70884 On ch=1 n=f#5 v=41
70924 On ch=1 n=b3 v=0
70975 On ch=1 n=b3 v=57
71054 On ch=1 n=g#5 v=49
71055 On ch=1 n=e5 v=69
71056 On ch=1 n=a#4 v=0
71058 On ch=1 n=f#5 v=0
71111 On ch=1 n=b3 v=0
71134 On ch=1 n=g#5 v=0
71135 On ch=1 n=a#5 v=69
71149 On ch=1 n=b4 v=69
71154 On ch=1 n=e5 v=0
71222 On ch=1 n=a#5 v=0
71226 On ch=1 n=b5 v=61
71229 On ch=1 n=d#5 v=77
71235 On ch=1 n=b4 v=0
71325 On ch=1 n=b4 v=73
71333 On ch=1 n=d#5 v=0
71413 On ch=1 n=a5 v=69
71419 On ch=1 n=c#6 v=37
71425 On ch=1 n=b4 v=0
71427 On ch=1 n=b5 v=0
71497 On ch=1 n=d#6 v=61
71507 On ch=1 n=b4 v=41
71510 On ch=1 n=c#6 v=0
71524 On ch=1 n=a5 v=0
71594 On ch=1 n=e6 v=53
71594 On ch=1 n=g#5 v=69
71595 On ch=1 n=b5 v=49
71605 On ch=1 n=f#6 v=0
71616 On ch=1 n=b4 v=0
71623 On ch=1 n=d#6 v=0
71682 On ch=1 n=b4 v=57
71744 On ch=1 n=b4 v=0
71769 On ch=1 n=g#6 v=85
71777 On ch=1 n=e5 v=53
71779 On ch=1 n=g#5 v=0
71780 On ch=1 n=b5 v=0
71788 On ch=1 n=e6 v=0
71835 On ch=1 n=e5 v=0
71873 On ch=1 n=b4 v=37
71945 On ch=1 n=b4 v=0
71948 On ch=1 n=c#6 v=69
71950 On ch=1 n=g#6 v=0
71950 On ch=1 n=f#5 v=61
71950 On ch=1 n=a#5 v=57
72014 On ch=1 n=f#5 v=0
72059 On ch=1 n=b4 v=49
72126 On ch=1 n=b4 v=0
72157 On ch=1 n=e5 v=49
72246 On ch=1 n=b4 v=49
72254 On ch=1 n=e5 v=0
72319 On ch=1 n=b4 v=0
72320 On ch=1 n=c#6 v=0
72323 On ch=1 n=a#5 v=0
72328 On ch=1 n=f#5 v=57
72332 On ch=1 n=f#6 v=49
72336 On ch=1 n=b3 v=37
72420 On ch=1 n=b4 v=57
72502 On ch=1 n=d#5 v=49
72506 On ch=1 n=b4 v=0
72512 On ch=1 n=b5 v=41
72595 On ch=1 n=d#5 v=0
72596 On ch=1 n=b4 v=33
72675 On ch=1 n=e5 v=49
72676 On ch=1 n=b4 v=0
72681 On ch=1 n=c#6 v=61
72704 On ch=1 n=b5 v=0
72767 On ch=1 n=e5 v=0
72769 On ch=1 n=b4 v=33
72854 On ch=1 n=f#5 v=0
72855 On ch=1 n=f#5 v=53
72857 On ch=1 n=b4 v=0
72858 On ch=1 n=d#6 v=61
72937 On ch=1 n=f#5 v=0
72944 On ch=1 n=b4 v=25
72961 On ch=1 n=c#6 v=0
72971 On ch=1 n=f#6 v=0
72997 On ch=1 n=d#6 v=0
73032 On ch=1 n=g#5 v=61
73038 On ch=1 n=e6 v=49
73041 On ch=1 n=b4 v=0
73042 On ch=1 n=f#6 v=53
73064 On ch=1 n=f#6 v=0
73114 On ch=1 n=g#5 v=0
73126 On ch=1 n=b4 v=49
73194 On ch=1 n=b4 v=0
73221 On ch=1 n=f#5 v=89
73222 On ch=1 n=d#6 v=53
73289 On ch=1 n=d#6 v=0
73304 On ch=1 n=e5 v=89
73305 On ch=1 n=c#6 v=89
73309 On ch=1 n=f#5 v=0
73348 On ch=1 n=e5 v=0
73353 On ch=1 n=e6 v=0
73393 On ch=1 n=g#5 v=105
73394 On ch=1 n=e6 v=93
73453 On ch=1 n=g#5 v=0
73485 On ch=1 n=c#6 v=0
73485 On ch=1 n=b4 v=77
73545 On ch=1 n=b4 v=0
73567 On ch=1 n=f#5 v=93
73570 On ch=1 n=d#6 v=93
73601 On ch=1 n=e6 v=0
73628 On ch=1 n=f#5 v=0
73659 On ch=1 n=b4 v=77
73729 On ch=1 n=b3 v=0
73733 On ch=1 n=b4 v=0
73748 On ch=1 n=d#6 v=0
73749 On ch=1 n=c#7 v=109
73750 On ch=1 n=c#4 v=53
73756 On ch=1 n=c#6 v=93
73778 On ch=1 n=c#6 v=0
73836 On ch=1 n=f5 v=61
73844 On ch=1 n=c#4 v=0
73934 On ch=1 n=g#5 v=73
73935 On ch=1 n=f6 v=53
73956 On ch=1 n=f5 v=0
74012 On ch=1 n=c#5 v=53
74070 On ch=1 n=g#5 v=0
74111 On ch=1 n=a#5 v=85
74112 On ch=1 n=f#6 v=73
74117 On ch=1 n=c#5 v=0
74200 On ch=1 n=c#5 v=49
74272 On ch=1 n=f#6 v=0
74287 On ch=1 n=g#6 v=73
74291 On ch=1 n=c#7 v=0
74292 On ch=1 n=a#5 v=0
74292 On ch=1 n=b5 v=53
74294 On ch=1 n=c#5 v=0
74379 On ch=1 n=c#5 v=37
74412 On ch=1 n=b5 v=0
74460 On ch=1 n=c#7 v=89
74461 On ch=1 n=c#5 v=0
74462 On ch=1 n=d#6 v=69
74464 On ch=1 n=b6 v=89
74474 On ch=1 n=g#6 v=0
74475 On ch=1 n=f6 v=0
74482 On ch=1 n=c#7 v=0
74547 On ch=1 n=d#6 v=0
74551 On ch=1 n=c#5 v=69
74624 On ch=1 n=c#5 v=0
74646 On ch=1 n=c#6 v=69
74646 On ch=1 n=a#6 v=73
74648 On ch=1 n=b6 v=0
74656 On ch=1 n=c#6 v=0
74732 On ch=1 n=b6 v=73
74733 On ch=1 n=d#6 v=77
74745 On ch=1 n=a#6 v=0
74814 On ch=1 n=a#6 v=73
74817 On ch=1 n=c#6 v=73
74822 On ch=1 n=d#6 v=0
74829 On ch=1 n=b6 v=0
74892 On ch=1 n=c#5 v=53
74977 On ch=1 n=c#6 v=0
74983 On ch=1 n=c#5 v=0
74991 On ch=1 n=g#6 v=77
74991 On ch=1 n=b5 v=49
75013 On ch=1 n=a#6 v=0
75076 On ch=1 n=c#5 v=57
75137 On ch=1 n=c#5 v=0
75164 On ch=1 n=f#6 v=85
75165 On ch=1 n=c#7 v=89
75170 On ch=1 n=b5 v=0
75170 On ch=1 n=g#6 v=0
75173 On ch=1 n=a#5 v=69
75260 On ch=1 n=a#5 v=0
75261 On ch=1 n=c#5 v=37
75335 On ch=1 n=c#5 v=0
75345 On ch=1 n=d#6 v=77
75345 On ch=1 n=f#5 v=57
75357 On ch=1 n=f#6 v=0
75358 On ch=1 n=c#7 v=0
75425 On ch=1 n=f#5 v=0
75429 On ch=1 n=c#5 v=61
75508 On ch=1 n=c#5 v=0
75517 On ch=1 n=f5 v=57
75517 On ch=1 n=c#6 v=73
75595 On ch=1 n=c#5 v=69
75605 On ch=1 n=f5 v=0
75682 On ch=1 n=b5 v=69
75687 On ch=1 n=c#5 v=0
75688 On ch=1 n=d#5 v=77
75696 On ch=1 n=c#6 v=0
75733 On ch=1 n=d#6 v=0
75775 On ch=1 n=d#5 v=0
75781 On ch=1 n=c#4 v=69
75842 On ch=1 n=c#4 v=0
75856 On ch=1 n=f#6 v=61
75858 On ch=1 n=a#5 v=77
75858 On ch=1 n=c#5 v=69
75954 On ch=1 n=f#4 v=73
75966 On ch=1 n=c#5 v=0
76034 On ch=1 n=a#5 v=0
76039 On ch=1 n=f#5 v=69
76051 On ch=1 n=e5 v=61
76062 On ch=1 n=f#4 v=0
76066 On ch=1 n=b5 v=0
76130 On ch=1 n=e5 v=0
76137 On ch=1 n=f#4 v=57
76204 On ch=1 n=f#4 v=0
76226 On ch=1 n=d#5 v=73
76227 On ch=1 n=b5 v=61
76250 On ch=1 n=f#5 v=0
76290 On ch=1 n=d#5 v=0
76314 On ch=1 n=f#4 v=61
76364 On ch=1 n=f#4 v=0
76405 On ch=1 n=b4 v=89
76407 On ch=1 n=c#6 v=69
76427 On ch=1 n=b5 v=0
76498 On ch=1 n=b3 v=49
76557 On ch=1 n=c#6 v=0
76567 On ch=1 n=f#6 v=0
76597 On ch=1 n=g#5 v=69
76598 On ch=1 n=f#6 v=69
76603 On ch=1 n=e6 v=49
76612 On ch=1 n=b4 v=0
76643 On ch=1 n=b3 v=0
76683 On ch=1 n=g#5 v=0
76699 On ch=1 n=b4 v=53
76780 On ch=1 n=d#6 v=53
76783 On ch=1 n=f#5 v=41
76791 On ch=1 n=e6 v=0
76808 On ch=1 n=b4 v=0
76816 On ch=1 n=f#6 v=0
76871 On ch=1 n=g#5 v=61
76872 On ch=1 n=d#6 v=0
76873 On ch=1 n=e6 v=61
76875 On ch=1 n=f#5 v=0
76956 On ch=1 n=g#5 v=0
76961 On ch=1 n=f#5 v=57
76964 On ch=1 n=d#6 v=69
77047 On ch=1 n=f#5 v=0
77048 On ch=1 n=b4 v=49
77132 On ch=1 n=e6 v=0
77133 On ch=1 n=b4 v=0
77136 On ch=1 n=c#6 v=69
77147 On ch=1 n=e5 v=41
77169 On ch=1 n=d#6 v=0
77227 On ch=1 n=e5 v=0
77231 On ch=1 n=b4 v=53
77318 On ch=1 n=b4 v=0
77318 On ch=1 n=c#6 v=0
77318 On ch=1 n=d#5 v=57
77319 On ch=1 n=d#5 v=0
77319 On ch=1 n=b5 v=57
77320 On ch=1 n=b5 v=0
77320 On ch=1 n=f#6 v=53
77415 On ch=1 n=b4 v=69
77488 On ch=1 n=b4 v=0
77496 On ch=1 n=c#5 v=69
77496 On ch=1 n=a#5 v=61
77507 On ch=1 n=f#6 v=0
77568 On ch=1 n=c#5 v=0
77587 On ch=1 n=d#5 v=61
77588 On ch=1 n=b5 v=41
77645 On ch=1 n=d#5 v=0
77652 On ch=1 n=b5 v=0
77671 On ch=1 n=a#5 v=0
77676 On ch=1 n=c#5 v=69
77676 On ch=1 n=a#5 v=61
77750 On ch=1 n=b3 v=49
77831 On ch=1 n=b3 v=0
77848 On ch=1 n=g#5 v=53
77849 On ch=1 n=b4 v=53
77895 On ch=1 n=b4 v=0
77937 On ch=1 n=b3 v=57
77966 On ch=1 n=c#5 v=0
77974 On ch=1 n=a#5 v=0
78004 On ch=1 n=b3 v=0
78009 On ch=1 n=g#5 v=0
78018 On ch=1 n=a#4 v=73
78021 On ch=1 n=f#6 v=61
78027 On ch=1 n=f#5 v=41
78112 On ch=1 n=a#4 v=0
78118 On ch=1 n=b3 v=57
78189 On ch=1 n=b3 v=0
78197 On ch=1 n=g#5 v=49
78201 On ch=1 n=e5 v=69
78203 On ch=1 n=f#5 v=0
78278 On ch=1 n=g#5 v=0
78279 On ch=1 n=a#5 v=69
78289 On ch=1 n=b4 v=69
78295 On ch=1 n=e5 v=0
78362 On ch=1 n=a#5 v=0
78367 On ch=1 n=b5 v=61
78369 On ch=1 n=d#5 v=77
78376 On ch=1 n=b4 v=0
78462 On ch=1 n=f#6 v=0
78465 On ch=1 n=b4 v=73
78472 On ch=1 n=d#5 v=0
78555 On ch=1 n=a5 v=69
78560 On ch=1 n=c#6 v=37
78566 On ch=1 n=b4 v=0
78568 On ch=1 n=b5 v=0
78638 On ch=1 n=d#6 v=61
78648 On ch=1 n=b4 v=41
78651 On ch=1 n=c#6 v=0
78665 On ch=1 n=a5 v=0
78734 On ch=1 n=e6 v=53
78736 On ch=1 n=g#5 v=69
78737 On ch=1 n=b5 v=49
78757 On ch=1 n=b4 v=0
78765 On ch=1 n=d#6 v=0
78781 On ch=1 n=g#5 v=0
78822 On ch=1 n=b4 v=57
78884 On ch=1 n=b4 v=0
78910 On ch=1 n=g#6 v=85
78918 On ch=1 n=e5 v=53
78920 On ch=1 n=b5 v=0
78929 On ch=1 n=e6 v=0
78976 On ch=1 n=e5 v=0
79014 On ch=1 n=b4 v=37
79085 On ch=1 n=b4 v=0
79089 On ch=1 n=c#6 v=69
79090 On ch=1 n=g#6 v=0
79091 On ch=1 n=f#5 v=61
79091 On ch=1 n=a#5 v=57
79153 On ch=1 n=f#5 v=0
79200 On ch=1 n=b4 v=49
79267 On ch=1 n=b4 v=0
79298 On ch=1 n=e5 v=49
79387 On ch=1 n=b4 v=49
79395 On ch=1 n=e5 v=0
79460 On ch=1 n=b4 v=0
79461 On ch=1 n=c#6 v=0
79464 On ch=1 n=a#5 v=0
79469 On ch=1 n=f#5 v=57
79474 On ch=1 n=f#6 v=49
79476 On ch=1 n=b3 v=37
79561 On ch=1 n=b4 v=57
79647 On ch=1 n=b4 v=0
79653 On ch=1 n=d#5 v=49
79653 On ch=1 n=b5 v=41
79737 On ch=1 n=b4 v=33
79746 On ch=1 n=d#5 v=0
79816 On ch=1 n=c#6 v=61
79816 On ch=1 n=e5 v=49
79818 On ch=1 n=b4 v=0
79845 On ch=1 n=b5 v=0
79907 On ch=1 n=e5 v=0
79910 On ch=1 n=b4 v=33
79996 On ch=1 n=f#5 v=0
79996 On ch=1 n=f#5 v=53
79998 On ch=1 n=b4 v=0
80000 On ch=1 n=d#6 v=61
80078 On ch=1 n=f#5 v=0
80086 On ch=1 n=b4 v=25
80097 On ch=1 n=c#6 v=0
80111 On ch=1 n=f#6 v=0
80138 On ch=1 n=d#6 v=0
80172 On ch=1 n=g#5 v=61
80172 On ch=1 n=e6 v=49
80173 On ch=1 n=f#6 v=53
80182 On ch=1 n=b4 v=0
80231 On ch=1 n=g#5 v=0
80260 On ch=1 n=b4 v=49
80319 On ch=1 n=b4 v=0
80350 On ch=1 n=e6 v=0
80351 On ch=1 n=f#5 v=85
80351 On ch=1 n=d#6 v=53
80430 On ch=1 n=e5 v=89
80431 On ch=1 n=c#6 v=89
80519 On ch=1 n=d#6 v=0
80520 On ch=1 n=f#5 v=0
80524 On ch=1 n=g#5 v=105
80525 On ch=1 n=e6 v=93
80605 On ch=1 n=b4 v=77
80608 On ch=1 n=e5 v=0
80610 On ch=1 n=c#6 v=0
80633 On ch=1 n=b4 v=0
80693 On ch=1 n=d#6 v=93
80694 On ch=1 n=f#5 v=93
80720 On ch=1 n=f#5 v=0
80780 On ch=1 n=b4 v=77
80870 On ch=1 n=b3 v=0
80871 On ch=1 n=c#4 v=53
80871 On ch=1 n=c#7 v=109
80875 On ch=1 n=f#6 v=0
80875 On ch=1 n=c#6 v=93
80885 On ch=1 n=g#5 v=0
80885 On ch=1 n=e6 v=0
80894 On ch=1 n=c#6 v=0
80904 On ch=1 n=b4 v=0
80950 On ch=1 n=f5 v=61
80957 On ch=1 n=c#4 v=0
81002 On ch=1 n=d#6 v=0
81042 On ch=1 n=f6 v=53
81042 On ch=1 n=g#5 v=73
81071 On ch=1 n=f5 v=0
81120 On ch=1 n=c#5 v=53
81178 On ch=1 n=g#5 v=0
81219 On ch=1 n=a#5 v=85
81219 On ch=1 n=f#6 v=73
81224 On ch=1 n=c#5 v=0
81308 On ch=1 n=c#5 v=49
81393 On ch=1 n=g#6 v=73
81398 On ch=1 n=b5 v=53
81400 On ch=1 n=a#5 v=0
81401 On ch=1 n=c#5 v=0
81404 On ch=1 n=c#7 v=0
81485 On ch=1 n=c#5 v=37
81520 On ch=1 n=b5 v=0
81567 On ch=1 n=f#6 v=0
81567 On ch=1 n=c#5 v=0
81567 On ch=1 n=c#7 v=89
81568 On ch=1 n=d#6 v=69
81569 On ch=1 n=b6 v=89
81580 On ch=1 n=g#6 v=0
81582 On ch=1 n=f6 v=0
81653 On ch=1 n=d#6 v=0
81659 On ch=1 n=c#5 v=69
81746 On ch=1 n=c#5 v=0
81755 On ch=1 n=b6 v=0
81759 On ch=1 n=c#6 v=69
81759 On ch=1 n=a#6 v=73
81770 On ch=1 n=c#6 v=0
81844 On ch=1 n=b6 v=73
81845 On ch=1 n=d#6 v=77
81855 On ch=1 n=a#6 v=0
81924 On ch=1 n=a#6 v=73
81926 On ch=1 n=c#6 v=73
81932 On ch=1 n=d#6 v=0
81939 On ch=1 n=b6 v=0
82001 On ch=1 n=c#5 v=53
82088 On ch=1 n=c#6 v=0
82093 On ch=1 n=c#5 v=0
82099 On ch=1 n=g#6 v=77
82105 On ch=1 n=b5 v=49
82122 On ch=1 n=a#6 v=0
82159 On ch=1 n=b5 v=0
82188 On ch=1 n=c#5 v=57
82247 On ch=1 n=c#5 v=0
82272 On ch=1 n=c#7 v=0
82273 On ch=1 n=f#6 v=85
82276 On ch=1 n=c#7 v=89
82278 On ch=1 n=g#6 v=0
82284 On ch=1 n=a#5 v=69
82370 On ch=1 n=a#5 v=0
82370 On ch=1 n=c#5 v=37
82447 On ch=1 n=c#5 v=0
82457 On ch=1 n=f#5 v=57
82458 On ch=1 n=d#6 v=77
82469 On ch=1 n=f#6 v=0
82539 On ch=1 n=f#5 v=0
82543 On ch=1 n=c#5 v=61
82621 On ch=1 n=c#5 v=0
82633 On ch=1 n=c#6 v=73
82634 On ch=1 n=f5 v=57
82713 On ch=1 n=c#5 v=69
82722 On ch=1 n=f5 v=0
82799 On ch=1 n=b5 v=69
82803 On ch=1 n=c#5 v=0
82805 On ch=1 n=d#5 v=77
82814 On ch=1 n=c#6 v=0
82840 On ch=1 n=c#7 v=0
82844 On ch=1 n=d#6 v=0
82891 On ch=1 n=d#5 v=0
82898 On ch=1 n=c#4 v=69
82958 On ch=1 n=c#4 v=0
82984 On ch=1 n=f#6 v=85
82985 On ch=1 n=c#5 v=89
82988 On ch=1 n=a#5 v=85
83062 On ch=1 n=f#4 v=61
83092 On ch=1 n=c#5 v=0
83163 On ch=1 n=f#4 v=0
83165 On ch=1 n=a#4 v=69
83166 On ch=1 n=f#5 v=69
83177 On ch=1 n=a#5 v=0
83183 On ch=1 n=b5 v=0
83250 On ch=1 n=a#4 v=0
83250 On ch=1 n=f#4 v=53
83340 On ch=1 n=f#4 v=0
83341 On ch=1 n=b4 v=77
83343 On ch=1 n=g#5 v=77
83348 On ch=1 n=f#5 v=0
83430 On ch=1 n=b4 v=0
83431 On ch=1 n=f#4 v=61
83520 On ch=1 n=c#5 v=69
83521 On ch=1 n=a#5 v=77
83525 On ch=1 n=f#4 v=0
83528 On ch=1 n=g#5 v=0
83581 On ch=1 n=f#6 v=0
83604 On ch=1 n=c#5 v=0
83608 On ch=1 n=f#4 v=57
83704 On ch=1 n=f#4 v=0
83705 On ch=1 n=f#6 v=89
83706 On ch=1 n=a#5 v=0
83707 On ch=1 n=d5 v=77
83708 On ch=1 n=b5 v=73
83790 On ch=1 n=f#4 v=57
83800 On ch=1 n=d5 v=0
83877 On ch=1 n=c#5 v=73
83885 On ch=1 n=a#5 v=69
83901 On ch=1 n=b5 v=0
83964 On ch=1 n=g#5 v=77
83966 On ch=1 n=c#5 v=0
83967 On ch=1 n=b4 v=77
83976 On ch=1 n=a#5 v=0
84046 On ch=1 n=g#5 v=0
84051 On ch=1 n=f#4 v=0
84055 On ch=1 n=b5 v=73
84058 On ch=1 n=d5 v=73
84070 On ch=1 n=b4 v=0
84142 On ch=1 n=f#4 v=61
84165 On ch=1 n=d5 v=0
84232 On ch=1 n=c#5 v=69
84236 On ch=1 n=a#5 v=77
84242 On ch=1 n=b5 v=0
84251 On ch=1 n=f#4 v=0
84262 On ch=1 n=f#6 v=0
84315 On ch=1 n=f#4 v=73
84324 On ch=1 n=c#5 v=0
84414 On ch=1 n=f#3 v=89
84414 On ch=1 n=f#6 v=101
84416 On ch=1 n=f#4 v=0
84436 On ch=1 n=a#5 v=0
84501 On ch=1 n=f#4 v=85
84589 On ch=1 n=b4 v=69
84589 On ch=1 n=g#5 v=69
84594 On ch=1 n=f#4 v=0
84599 On ch=1 n=f#3 v=0
84676 On ch=1 n=f#4 v=77
84681 On ch=1 n=b4 v=0
84767 On ch=1 n=c#5 v=77
84767 On ch=1 n=a#5 v=85
84775 On ch=1 n=f#4 v=0
84779 On ch=1 n=g#5 v=0
84850 On ch=1 n=f#4 v=77
84860 On ch=1 n=c#5 v=0
84942 On ch=1 n=f#4 v=0
84947 On ch=1 n=d5 v=73
84948 On ch=1 n=b5 v=73
84953 On ch=1 n=a#5 v=0
85027 On ch=1 n=d5 v=0
85027 On ch=1 n=f#4 v=77
85123 On ch=1 n=b5 v=0
85132 On ch=1 n=f#5 v=89
85132 On ch=1 n=d6 v=85
85132 On ch=1 n=b6 v=89
85138 On ch=1 n=f#4 v=0
85138 On ch=1 n=f#6 v=0
85223 On ch=1 n=f#4 v=69
85243 On ch=1 n=f#5 v=0
85311 On ch=1 n=c#6 v=85
85320 On ch=1 n=e5 v=69
85326 On ch=1 n=f#4 v=0
85342 On ch=1 n=d6 v=0
85398 On ch=1 n=c#6 v=0
85398 On ch=1 n=e5 v=0
85401 On ch=1 n=b5 v=57
85406 On ch=1 n=d5 v=69
85486 On ch=1 n=d6 v=53
85490 On ch=1 n=b5 v=0
85491 On ch=1 n=f#5 v=89
85497 On ch=1 n=d5 v=0
85578 On ch=1 n=f#4 v=77
85656 On ch=1 n=f#5 v=0
85662 On ch=1 n=c#6 v=89
85663 On ch=1 n=e5 v=73
85666 On ch=1 n=a6 v=89
85670 On ch=1 n=f#4 v=0
85677 On ch=1 n=d6 v=0
85683 On ch=1 n=b6 v=0
85745 On ch=1 n=a4 v=69
85831 On ch=1 n=a3 v=69
85839 On ch=1 n=c#6 v=0
85841 On ch=1 n=a4 v=0
85855 On ch=1 n=e5 v=0
85875 On ch=1 n=a6 v=0
85917 On ch=1 n=a4 v=69
85995 On ch=1 n=a3 v=0
86002 On ch=1 n=c#5 v=69
86003 On ch=1 n=a6 v=77
86010 On ch=1 n=a5 v=73
86014 On ch=1 n=a4 v=0
86085 On ch=1 n=c#5 v=0
86087 On ch=1 n=a4 v=73
86177 On ch=1 n=f#5 v=61
86179 On ch=1 n=d6 v=73
86183 On ch=1 n=a4 v=0
86217 On ch=1 n=a6 v=0
86258 On ch=1 n=a4 v=61
86273 On ch=1 n=f#5 v=0
86341 On ch=1 n=a4 v=0
86352 On ch=1 n=e6 v=73
86355 On ch=1 n=g5 v=69
86357 On ch=1 n=a6 v=77
86392 On ch=1 n=d6 v=0
86393 On ch=1 n=a5 v=0
86439 On ch=1 n=a4 v=69
86529 On ch=1 n=b5 v=89
86531 On ch=1 n=g5 v=0
86534 On ch=1 n=a4 v=0
86537 On ch=1 n=g6 v=57
86541 On ch=1 n=e6 v=0
86616 On ch=1 n=a6 v=0
86619 On ch=1 n=a4 v=73
86697 On ch=1 n=a4 v=0
86704 On ch=1 n=b5 v=0
86707 On ch=1 n=a5 v=73
86709 On ch=1 n=f#6 v=89
86711 On ch=1 n=a6 v=73
86721 On ch=1 n=g6 v=0
86799 On ch=1 n=b5 v=73
86802 On ch=1 n=g6 v=57
86808 On ch=1 n=a5 v=0
86808 On ch=1 n=f#6 v=0
86884 On ch=1 n=f#6 v=77
86885 On ch=1 n=a5 v=77
86890 On ch=1 n=g6 v=0
86890 On ch=1 n=b5 v=0
86920 On ch=1 n=a6 v=0
86970 On ch=1 n=a4 v=69
87062 On ch=1 n=a5 v=0
87063 On ch=1 n=g5 v=73
87064 On ch=1 n=e6 v=53
87070 On ch=1 n=a4 v=0
87070 On ch=1 n=a6 v=73
87074 On ch=1 n=f#6 v=0
87156 On ch=1 n=a4 v=61
87238 On ch=1 n=f#5 v=73
87247 On ch=1 n=g5 v=0
87248 On ch=1 n=d6 v=69
87250 On ch=1 n=a4 v=0
87260 On ch=1 n=e6 v=0
87313 On ch=1 n=a6 v=0
87338 On ch=1 n=a4 v=53
87423 On ch=1 n=e5 v=61
87426 On ch=1 n=f#5 v=0
87428 On ch=1 n=a4 v=0
87429 On ch=1 n=c#6 v=77
87429 On ch=1 n=a6 v=73
87445 On ch=1 n=d6 v=0
87516 On ch=1 n=d6 v=61
87520 On ch=1 n=f#5 v=73
87525 On ch=1 n=e5 v=0
87529 On ch=1 n=c#6 v=0
87603 On ch=1 n=f#5 v=0
87605 On ch=1 n=c#6 v=69
87606 On ch=1 n=e5 v=73
87616 On ch=1 n=d6 v=0
87676 On ch=1 n=a6 v=0
87699 On ch=1 n=a4 v=53
87784 On ch=1 n=a6 v=73
87785 On ch=1 n=d5 v=49
87788 On ch=1 n=b5 v=73
87794 On ch=1 n=a4 v=0
87797 On ch=1 n=e5 v=0
87806 On ch=1 n=c#6 v=0
87890 On ch=1 n=a4 v=53
87947 On ch=1 n=d5 v=0
87959 On ch=1 n=a4 v=0
87964 On ch=1 n=a5 v=57
87968 On ch=1 n=c#5 v=73
87969 On ch=1 n=b5 v=0
88007 On ch=1 n=a6 v=0
88062 On ch=1 n=a4 v=57
88070 On ch=1 n=c#5 v=0
88148 On ch=1 n=a6 v=77
88152 On ch=1 n=b5 v=73
88157 On ch=1 n=g5 v=77
88158 On ch=1 n=a5 v=0
88160 On ch=1 n=a4 v=0
88242 On ch=1 n=g5 v=0
88249 On ch=1 n=c#6 v=73
88249 On ch=1 n=a4 v=61
88265 On ch=1 n=b5 v=0
88335 On ch=1 n=d6 v=57
88337 On ch=1 n=f#5 v=61
88341 On ch=1 n=a4 v=0
88343 On ch=1 n=c#6 v=0
88411 On ch=1 n=a4 v=49
88423 On ch=1 n=d6 v=0
88425 On ch=1 n=f#5 v=0
88510 On ch=1 n=e6 v=81
88510 On ch=1 n=c5 v=73
88511 On ch=1 n=d6 v=57
88516 On ch=1 n=a4 v=0
88519 On ch=1 n=d6 v=0
88538 On ch=1 n=a6 v=0
88589 On ch=1 n=d4 v=73
88595 On ch=1 n=f#6 v=73
88614 On ch=1 n=e6 v=0
88673 On ch=1 n=d4 v=0
88685 On ch=1 n=b4 v=89
88686 On ch=1 n=g6 v=89
88704 On ch=1 n=f#6 v=0
88708 On ch=1 n=c5 v=0
88766 On ch=1 n=g3 v=77
88855 On ch=1 n=g3 v=0
88857 On ch=1 n=b6 v=73
88859 On ch=1 n=g4 v=89
88859 On ch=1 n=d6 v=57
88865 On ch=1 n=g6 v=0
88867 On ch=1 n=b4 v=0
88942 On ch=1 n=g3 v=69
89036 On ch=1 n=g3 v=0
89039 On ch=1 n=b6 v=0
89040 On ch=1 n=a4 v=77
89042 On ch=1 n=e6 v=69
89043 On ch=1 n=c#6 v=69
89055 On ch=1 n=g4 v=0
89057 On ch=1 n=d6 v=0
89127 On ch=1 n=a3 v=69
89179 On ch=1 n=a3 v=0
89231 On ch=1 n=g4 v=73
89231 On ch=1 n=b5 v=61
89236 On ch=1 n=a4 v=0
89241 On ch=1 n=c#6 v=0
89305 On ch=1 n=g3 v=49
89386 On ch=1 n=b5 v=0
89390 On ch=1 n=e6 v=0
89401 On ch=1 n=f#4 v=109
89402 On ch=1 n=f#6 v=101
89403 On ch=1 n=a#5 v=105
89435 On ch=1 n=g4 v=0
89442 On ch=1 n=g3 v=0
89494 On ch=1 n=f#3 v=77
89499 On ch=1 n=f#4 v=0
89581 On ch=1 n=f#5 v=77
89592 On ch=1 n=e4 v=77
89596 On ch=1 n=f#3 v=0
89597 On ch=1 n=a#5 v=0
89667 On ch=1 n=f#3 v=69
89672 On ch=1 n=e4 v=0
89762 On ch=1 n=d#4 v=73
89763 On ch=1 n=f#3 v=0
89768 On ch=1 n=b5 v=61
89852 On ch=1 n=f#3 v=61
89856 On ch=1 n=d#4 v=0
89946 On ch=1 n=c#6 v=61
89947 On ch=1 n=f#4 v=77
89952 On ch=1 n=f#3 v=0
89972 On ch=1 n=b5 v=0
89972 On ch=1 n=f#5 v=0
90025 On ch=1 n=f#3 v=73
90046 On ch=1 n=f#3 v=0
90047 On ch=1 n=f#3 v=49
90051 On ch=1 n=f#4 v=0
90102 On ch=1 n=f#6 v=0
90123 On ch=1 n=f#3 v=0
90123 On ch=1 n=c#5 v=77
90124 On ch=1 n=e6 v=85
90128 On ch=1 n=c#6 v=0
90130 On ch=1 n=f#6 v=57
90214 On ch=1 n=b3 v=53
90286 On ch=1 n=b3 v=0
90290 On ch=1 n=c#5 v=0
90302 On ch=1 n=d#6 v=85
90310 On ch=1 n=b4 v=77
90331 On ch=1 n=e6 v=0
90389 On ch=1 n=b4 v=0
90392 On ch=1 n=c#6 v=53
90396 On ch=1 n=a#4 v=93
90415 On ch=1 n=d#6 v=0
90482 On ch=1 n=e6 v=77
90485 On ch=1 n=c#6 v=0
90487 On ch=1 n=c#5 v=73
90491 On ch=1 n=a#4 v=0
90568 On ch=1 n=b3 v=41
90614 On ch=1 n=f#6 v=0
90653 On ch=1 n=b3 v=0
90654 On ch=1 n=e6 v=0
90656 On ch=1 n=d#6 v=77
90658 On ch=1 n=b4 v=73
90669 On ch=1 n=c#5 v=0
90756 On ch=1 n=b3 v=49
90827 On ch=1 n=b3 v=0
90828 On ch=1 n=b4 v=0
90832 On ch=1 n=b2 v=61
90835 On ch=1 n=b6 v=93
90837 On ch=1 n=d#6 v=0
90837 On ch=1 n=b5 v=105
90925 On ch=1 n=b2 v=0
90934 On ch=1 n=b3 v=61
90999 On ch=1 n=b3 v=0
91010 On ch=1 n=b4 v=77
91020 On ch=1 n=d#6 v=85
91094 On ch=1 n=b4 v=0
91102 On ch=1 n=b3 v=73
91187 On ch=1 n=e6 v=89
91188 On ch=1 n=c#5 v=89
91194 On ch=1 n=b3 v=0
91239 On ch=1 n=d#6 v=0
91270 On ch=1 n=c#5 v=0
91280 On ch=1 n=b3 v=77
91362 On ch=1 n=f#6 v=105
91366 On ch=1 n=d#5 v=69
91368 On ch=1 n=b3 v=0
91378 On ch=1 n=e6 v=0
91392 On ch=1 n=b6 v=0
91393 On ch=1 n=b5 v=0
91439 On ch=1 n=c#5 v=85
91457 On ch=1 n=d#5 v=0
91528 On ch=1 n=c#5 v=0
91537 On ch=1 n=g#5 v=93
91538 On ch=1 n=b6 v=105
91540 On ch=1 n=b5 v=105
91554 On ch=1 n=f#6 v=0
91618 On ch=1 n=g#5 v=0
91638 On ch=1 n=b4 v=73
91715 On ch=1 n=f#5 v=93
91719 On ch=1 n=b4 v=0
91724 On ch=1 n=a#6 v=69
91772 On ch=1 n=b6 v=0
91788 On ch=1 n=f#5 v=0
91799 On ch=1 n=b6 v=73
91806 On ch=1 n=g#5 v=89
91873 On ch=1 n=a#6 v=0
91876 On ch=1 n=g#5 v=0
91884 On ch=1 n=f#5 v=77
91885 On ch=1 n=a#6 v=77
91979 On ch=1 n=b4 v=77
92066 On ch=1 n=g#6 v=77
92067 On ch=1 n=e5 v=61
92069 On ch=1 n=b4 v=0
92159 On ch=1 n=b4 v=73
92202 On ch=1 n=f#5 v=0
92219 On ch=1 n=b4 v=0
92221 On ch=1 n=e5 v=0
92240 On ch=1 n=d#5 v=69
92241 On ch=1 n=f#6 v=77
92246 On ch=1 n=b5 v=0
92247 On ch=1 n=b5 v=53
92248 On ch=1 n=a#6 v=0
92277 On ch=1 n=b6 v=0
92292 On ch=1 n=g#6 v=0
92325 On ch=1 n=f#4 v=53
92407 On ch=1 n=d#5 v=0
92428 On ch=1 n=d#6 v=73
92429 On ch=1 n=b4 v=61
92431 On ch=1 n=f#4 v=0
92518 On ch=1 n=b4 v=0
92518 On ch=1 n=f#3 v=53
92576 On ch=1 n=f#3 v=0
92605 On ch=1 n=f#6 v=0
92616 On ch=1 n=d6 v=77
92617 On ch=1 n=b4 v=53
92634 On ch=1 n=d#6 v=0
92699 On ch=1 n=f#4 v=49
92701 On ch=1 n=b4 v=0
92791 On ch=1 n=f#4 v=0
92797 On ch=1 n=b4 v=69
92880 On ch=1 n=f#3 v=57
92949 On ch=1 n=d6 v=0
92957 On ch=1 n=b4 v=0
92968 On ch=1 n=b4 v=33
92969 On ch=1 n=f#5 v=49
92974 On ch=1 n=d#6 v=69
92979 On ch=1 n=b5 v=0
92980 On ch=1 n=f#3 v=0
93042 On ch=1 n=b4 v=0
93058 On ch=1 n=f#4 v=61
93115 On ch=1 n=f#6 v=77
93134 On ch=1 n=d#6 v=0
93140 On ch=1 n=f#4 v=0
93151 On ch=1 n=b4 v=41
93214 On ch=1 n=b4 v=0
93232 On ch=1 n=d#6 v=69
93237 On ch=1 n=f#3 v=37
93240 On ch=1 n=f#6 v=0
93298 On ch=1 n=f#3 v=0
93324 On ch=1 n=b4 v=37
93333 On ch=1 n=d6 v=73
93342 On ch=1 n=d#6 v=0
93392 On ch=1 n=b4 v=0
93409 On ch=1 n=f#4 v=53
93483 On ch=1 n=f#4 v=0
93502 On ch=1 n=b4 v=49
93587 On ch=1 n=b4 v=0
93588 On ch=1 n=f#3 v=49
93669 On ch=1 n=f#3 v=0
93675 On ch=1 n=f#5 v=0
93675 On ch=1 n=f#5 v=61
93676 On ch=1 n=b4 v=41
93681 On ch=1 n=d#6 v=73
93689 On ch=1 n=d6 v=0
93750 On ch=1 n=b4 v=0
93764 On ch=1 n=f#4 v=49
93835 On ch=1 n=f#4 v=0
93865 On ch=1 n=b4 v=41
93928 On ch=1 n=b4 v=0
93953 On ch=1 n=f#3 v=37
93958 On ch=1 n=f#6 v=61
93981 On ch=1 n=f#5 v=0
93984 On ch=1 n=d#6 v=0
94016 On ch=1 n=f#3 v=0
94047 On ch=1 n=b4 v=37
94115 On ch=1 n=b4 v=0
94129 On ch=1 n=f#4 v=49
94179 On ch=1 n=f#4 v=0
94217 On ch=1 n=d6 v=61
94222 On ch=1 n=b4 v=37
94241 On ch=1 n=f#6 v=0
94288 On ch=1 n=b4 v=0
94298 On ch=1 n=f#3 v=41
94314 On ch=1 n=f#3 v=0
94314 On ch=1 n=f#3 v=21
94380 On ch=1 n=f#3 v=0
94394 On ch=1 n=c#6 v=61
94395 On ch=1 n=b4 v=49
94395 On ch=1 n=f#5 v=41
94419 On ch=1 n=d6 v=0
94427 On ch=1 n=f#5 v=0
94480 On ch=1 n=b4 v=0
94484 On ch=1 n=f#4 v=41
94558 On ch=1 n=f#4 v=0
94569 On ch=1 n=b4 v=37
94647 On ch=1 n=b4 v=0
94675 On ch=1 n=f#3 v=21
94741 On ch=1 n=f#3 v=0
94763 On ch=1 n=a#4 v=49
94764 On ch=1 n=d#6 v=73
94779 On ch=1 n=c#6 v=0
94851 On ch=1 n=f#4 v=61
94866 On ch=1 n=a#4 v=0
94918 On ch=1 n=f#4 v=0
94940 On ch=1 n=a#4 v=49
94943 On ch=1 n=e6 v=73
94949 On ch=1 n=d#6 v=0
95019 On ch=1 n=a#4 v=0
95031 On ch=1 n=f#3 v=41
95117 On ch=1 n=f#3 v=0
95124 On ch=1 n=e6 v=0
95127 On ch=1 n=f#5 v=57
95129 On ch=1 n=d#6 v=69
95139 On ch=1 n=b4 v=21
95212 On ch=1 n=b4 v=0
95213 On ch=1 n=f#4 v=53
95277 On ch=1 n=f#4 v=0
95301 On ch=1 n=b4 v=41
95371 On ch=1 n=b4 v=0
95387 On ch=1 n=b3 v=37
95453 On ch=1 n=b3 v=0
95472 On ch=1 n=f#4 v=69
95553 On ch=1 n=f#3 v=53
95555 On ch=1 n=f#4 v=0
95646 On ch=1 n=f#3 v=0
95646 On ch=1 n=b3 v=53
95728 On ch=1 n=b2 v=69
95770 On ch=1 n=b3 v=0
95811 On ch=1 n=f#2 v=73
95831 On ch=1 n=f#6 v=77
95851 On ch=1 n=d#6 v=0
95852 On ch=1 n=f#5 v=0
95862 On ch=1 n=b2 v=0
95915 On ch=1 n=f#3 v=61
96005 On ch=1 n=a#4 v=77
96010 On ch=1 n=f#5 v=77
96015 On ch=1 n=f#6 v=0
96019 On ch=1 n=f#2 v=0
96020 On ch=1 n=f#3 v=0
96100 On ch=1 n=f#4 v=73
96119 On ch=1 n=a#4 v=0
96188 On ch=1 n=b4 v=89
96193 On ch=1 n=f#4 v=0
96193 On ch=1 n=g#5 v=57
96226 On ch=1 n=f#5 v=0
96289 On ch=1 n=f#4 v=73
96291 On ch=1 n=b4 v=0
96376 On ch=1 n=c#5 v=61
96377 On ch=1 n=g#5 v=0
96378 On ch=1 n=a#5 v=73
96384 On ch=1 n=f#4 v=0
96467 On ch=1 n=f#4 v=69
96478 On ch=1 n=c#5 v=0
96537 On ch=1 n=a#5 v=0
96555 On ch=1 n=f#4 v=0
96560 On ch=1 n=d5 v=77
96560 On ch=1 n=f#6 v=89
96562 On ch=1 n=b5 v=73
96648 On ch=1 n=f#4 v=57
96654 On ch=1 n=d5 v=0
96734 On ch=1 n=c#5 v=73
96742 On ch=1 n=a#5 v=69
96747 On ch=1 n=f#6 v=0
96757 On ch=1 n=b5 v=0
96821 On ch=1 n=g#5 v=77
96822 On ch=1 n=c#5 v=0
96823 On ch=1 n=b4 v=77
96833 On ch=1 n=a#5 v=0
96902 On ch=1 n=g#5 v=0
96908 On ch=1 n=f#4 v=0
96912 On ch=1 n=b5 v=73
96915 On ch=1 n=d5 v=73
96926 On ch=1 n=b4 v=0
96998 On ch=1 n=f#4 v=61
97021 On ch=1 n=d5 v=0
97088 On ch=1 n=c#5 v=69
97093 On ch=1 n=a#5 v=77
97099 On ch=1 n=b5 v=0
97108 On ch=1 n=f#4 v=0
97171 On ch=1 n=f#4 v=73
97181 On ch=1 n=c#5 v=0
97273 On ch=1 n=f#4 v=0
97274 On ch=1 n=f#6 v=101
97276 On ch=1 n=f#3 v=89
97293 On ch=1 n=a#5 v=0
97361 On ch=1 n=f#4 v=85
97450 On ch=1 n=b4 v=69
97451 On ch=1 n=g#5 v=69
97456 On ch=1 n=f#4 v=0
97459 On ch=1 n=f#3 v=0
97538 On ch=1 n=f#4 v=77
97543 On ch=1 n=b4 v=0
97633 On ch=1 n=a#5 v=85
97633 On ch=1 n=c#5 v=77
97635 On ch=1 n=f#4 v=0
97639 On ch=1 n=g#5 v=0
97716 On ch=1 n=f#4 v=77
97725 On ch=1 n=c#5 v=0
97808 On ch=1 n=f#4 v=0
97813 On ch=1 n=d5 v=73
97814 On ch=1 n=b5 v=73
97818 On ch=1 n=a#5 v=0
97885 On ch=1 n=f#4 v=77
97893 On ch=1 n=d5 v=0
97989 On ch=1 n=b5 v=0
97991 On ch=1 n=f#5 v=89
97991 On ch=1 n=d6 v=85
97996 On ch=1 n=b6 v=89
97997 On ch=1 n=f#4 v=0
97998 On ch=1 n=f#6 v=0
98086 On ch=1 n=f#4 v=69
98101 On ch=1 n=f#5 v=0
98174 On ch=1 n=c#6 v=85
98182 On ch=1 n=e5 v=69
98190 On ch=1 n=f#4 v=0
98202 On ch=1 n=d6 v=0
98260 On ch=1 n=e5 v=0
98261 On ch=1 n=c#6 v=0
98264 On ch=1 n=b5 v=57
98269 On ch=1 n=d5 v=69
98347 On ch=1 n=d6 v=53
98351 On ch=1 n=b5 v=0
98356 On ch=1 n=f#5 v=89
98360 On ch=1 n=d5 v=0
98440 On ch=1 n=f#4 v=77
98517 On ch=1 n=f#5 v=0
98525 On ch=1 n=c#6 v=89
98526 On ch=1 n=e5 v=73
98529 On ch=1 n=a6 v=89
98533 On ch=1 n=f#4 v=0
98540 On ch=1 n=d6 v=0
98545 On ch=1 n=b6 v=0
98608 On ch=1 n=a4 v=69
98694 On ch=1 n=a3 v=69
98703 On ch=1 n=a4 v=0
98703 On ch=1 n=c#6 v=0
98718 On ch=1 n=e5 v=0
98738 On ch=1 n=a6 v=0
98778 On ch=1 n=a4 v=69
98859 On ch=1 n=a3 v=0
98864 On ch=1 n=c#5 v=69
98866 On ch=1 n=a6 v=77
98872 On ch=1 n=a5 v=73
98874 On ch=1 n=a4 v=0
98949 On ch=1 n=c#5 v=0
98949 On ch=1 n=a4 v=73
99039 On ch=1 n=f#5 v=61
99043 On ch=1 n=d6 v=73
99045 On ch=1 n=a4 v=0
99081 On ch=1 n=a6 v=0
99122 On ch=1 n=a4 v=61
99137 On ch=1 n=f#5 v=0
99204 On ch=1 n=a4 v=0
99209 On ch=1 n=e6 v=73
99212 On ch=1 n=g5 v=69
99214 On ch=1 n=a6 v=77
99255 On ch=1 n=d6 v=0
99256 On ch=1 n=a5 v=0
99294 On ch=1 n=a4 v=69
99389 On ch=1 n=g5 v=0
99390 On ch=1 n=a4 v=0
99394 On ch=1 n=g6 v=57
99395 On ch=1 n=b5 v=89
99397 On ch=1 n=e6 v=0
99472 On ch=1 n=a6 v=0
99475 On ch=1 n=a4 v=73
99554 On ch=1 n=a4 v=0
99564 On ch=1 n=a5 v=73
99565 On ch=1 n=f#6 v=89
99570 On ch=1 n=a6 v=73
99571 On ch=1 n=b5 v=0
99578 On ch=1 n=g6 v=0
99657 On ch=1 n=b5 v=73
99658 On ch=1 n=g6 v=57
99665 On ch=1 n=f#6 v=0
99665 On ch=1 n=a5 v=0
99741 On ch=1 n=f#6 v=77
99741 On ch=1 n=a5 v=77
99746 On ch=1 n=g6 v=0
99747 On ch=1 n=b5 v=0
99777 On ch=1 n=a6 v=0
99826 On ch=1 n=a4 v=69
99919 On ch=1 n=a5 v=0
99920 On ch=1 n=g5 v=73
99921 On ch=1 n=e6 v=53
99926 On ch=1 n=a4 v=0
99927 On ch=1 n=a6 v=73
99928 On ch=1 n=f#6 v=0
100013 On ch=1 n=a4 v=61
100096 On ch=1 n=f#5 v=73
100104 On ch=1 n=g5 v=0
100106 On ch=1 n=d6 v=69
100107 On ch=1 n=a4 v=0
100118 On ch=1 n=e6 v=0
100169 On ch=1 n=a6 v=0
100194 On ch=1 n=a4 v=53
100281 On ch=1 n=e5 v=61
100282 On ch=1 n=f#5 v=0
100285 On ch=1 n=a4 v=0
100286 On ch=1 n=c#6 v=77
100286 On ch=1 n=a6 v=73
100301 On ch=1 n=d6 v=0
100373 On ch=1 n=d6 v=61
100377 On ch=1 n=f#5 v=73
100381 On ch=1 n=e5 v=0
100386 On ch=1 n=c#6 v=0
100460 On ch=1 n=f#5 v=0
100461 On ch=1 n=c#6 v=69
100463 On ch=1 n=e5 v=73
100475 On ch=1 n=d6 v=0
100537 On ch=1 n=a6 v=0
100559 On ch=1 n=a4 v=53
100644 On ch=1 n=a6 v=73
100645 On ch=1 n=d5 v=49
100649 On ch=1 n=b5 v=73
100656 On ch=1 n=a4 v=0
100658 On ch=1 n=e5 v=0
100665 On ch=1 n=c#6 v=0
100750 On ch=1 n=a4 v=53
100808 On ch=1 n=d5 v=0
100820 On ch=1 n=a4 v=0
100824 On ch=1 n=a5 v=57
100828 On ch=1 n=c#5 v=73
100830 On ch=1 n=b5 v=0
100867 On ch=1 n=a6 v=0
100924 On ch=1 n=a4 v=57
100929 On ch=1 n=c#5 v=0
101008 On ch=1 n=a6 v=77
101012 On ch=1 n=b5 v=73
101015 On ch=1 n=g5 v=77
101019 On ch=1 n=a5 v=0
101020 On ch=1 n=a4 v=0
101102 On ch=1 n=g5 v=0
101103 On ch=1 n=c#6 v=73
101109 On ch=1 n=a4 v=61
101124 On ch=1 n=b5 v=0
101189 On ch=1 n=d6 v=57
101197 On ch=1 n=c#6 v=0
101198 On ch=1 n=f#5 v=61
101199 On ch=1 n=a4 v=0
101270 On ch=1 n=a4 v=49
101285 On ch=1 n=f#5 v=0
101354 On ch=1 n=c5 v=73
101366 On ch=1 n=e6 v=89
101371 On ch=1 n=d6 v=0
101371 On ch=1 n=d6 v=57
101374 On ch=1 n=a4 v=0
101392 On ch=1 n=d6 v=0
101396 On ch=1 n=a6 v=0
101449 On ch=1 n=d4 v=73
101455 On ch=1 n=f#6 v=73
101470 On ch=1 n=e6 v=0
101533 On ch=1 n=d4 v=0
101540 On ch=1 n=b4 v=89
101545 On ch=1 n=g6 v=89
101552 On ch=1 n=c5 v=0
101564 On ch=1 n=f#6 v=0
101625 On ch=1 n=g3 v=77
101710 On ch=1 n=g4 v=89
101716 On ch=1 n=g3 v=0
101717 On ch=1 n=b6 v=73
101718 On ch=1 n=d6 v=57
101723 On ch=1 n=g6 v=0
101724 On ch=1 n=b4 v=0
101802 On ch=1 n=g3 v=69
101890 On ch=1 n=a4 v=77
101896 On ch=1 n=g3 v=0
101900 On ch=1 n=b6 v=0
101900 On ch=1 n=e6 v=69
101901 On ch=1 n=c#6 v=69
101904 On ch=1 n=g4 v=0
101916 On ch=1 n=d6 v=0
101986 On ch=1 n=a3 v=69
102039 On ch=1 n=a3 v=0
102073 On ch=1 n=g4 v=73
102083 On ch=1 n=a4 v=0
102086 On ch=1 n=b5 v=61
102098 On ch=1 n=c#6 v=0
102162 On ch=1 n=g3 v=49
102243 On ch=1 n=b5 v=0
102247 On ch=1 n=e6 v=0
102257 On ch=1 n=f#4 v=109
102258 On ch=1 n=f#6 v=101
102261 On ch=1 n=a#5 v=105
102276 On ch=1 n=g4 v=0
102298 On ch=1 n=g3 v=0
102352 On ch=1 n=f#3 v=77
102356 On ch=1 n=f#4 v=0
102436 On ch=1 n=f#5 v=77
102446 On ch=1 n=e4 v=77
102448 On ch=1 n=f#3 v=0
102449 On ch=1 n=a#5 v=0
102521 On ch=1 n=f#3 v=69
102523 On ch=1 n=e4 v=0
102616 On ch=1 n=d#4 v=73
102617 On ch=1 n=f#3 v=0
102622 On ch=1 n=b5 v=61
102706 On ch=1 n=f#3 v=61
102711 On ch=1 n=d#4 v=0
102800 On ch=1 n=c#6 v=61
102801 On ch=1 n=f#4 v=77
102807 On ch=1 n=f#3 v=0
102825 On ch=1 n=f#5 v=0
102826 On ch=1 n=b5 v=0
102880 On ch=1 n=f#3 v=73
102901 On ch=1 n=f#3 v=0
102901 On ch=1 n=f#3 v=49
102905 On ch=1 n=f#4 v=0
102957 On ch=1 n=f#6 v=0
102977 On ch=1 n=f#3 v=0
102977 On ch=1 n=c#5 v=77
102977 On ch=1 n=e6 v=85
102983 On ch=1 n=c#6 v=0
102984 On ch=1 n=f#6 v=57
103068 On ch=1 n=b3 v=53
103140 On ch=1 n=b3 v=0
103143 On ch=1 n=c#5 v=0
103153 On ch=1 n=d#6 v=85
103159 On ch=1 n=b4 v=77
103182 On ch=1 n=e6 v=0
103240 On ch=1 n=b4 v=0
103242 On ch=1 n=c#6 v=53
103245 On ch=1 n=a#4 v=93
103266 On ch=1 n=d#6 v=0
103331 On ch=1 n=e6 v=77
103336 On ch=1 n=c#6 v=0
103338 On ch=1 n=c#5 v=73
103341 On ch=1 n=a#4 v=0
103418 On ch=1 n=b3 v=41
103465 On ch=1 n=f#6 v=0
103504 On ch=1 n=b3 v=0
103505 On ch=1 n=e6 v=0
103506 On ch=1 n=d#6 v=77
103510 On ch=1 n=b4 v=73
103521 On ch=1 n=c#5 v=0
103607 On ch=1 n=b3 v=49
103678 On ch=1 n=b3 v=0
103680 On ch=1 n=b4 v=0
103684 On ch=1 n=b2 v=61
103686 On ch=1 n=b6 v=93
103687 On ch=1 n=d#6 v=0
103687 On ch=1 n=b5 v=105
103776 On ch=1 n=b2 v=0
103785 On ch=1 n=b3 v=61
103850 On ch=1 n=b3 v=0
103861 On ch=1 n=b4 v=77
103871 On ch=1 n=d#6 v=85
103945 On ch=1 n=b4 v=0
103954 On ch=1 n=b3 v=73
104037 On ch=1 n=e6 v=89
104039 On ch=1 n=c#5 v=89
104045 On ch=1 n=b3 v=0
104090 On ch=1 n=d#6 v=0
104120 On ch=1 n=c#5 v=0
104131 On ch=1 n=b3 v=77
104212 On ch=1 n=f#6 v=105
104217 On ch=1 n=d#5 v=69
104220 On ch=1 n=b3 v=0
104230 On ch=1 n=e6 v=0
104240 On ch=1 n=b6 v=0
104241 On ch=1 n=b5 v=0
104286 On ch=1 n=c#5 v=85
104305 On ch=1 n=d#5 v=0
104376 On ch=1 n=c#5 v=0
104381 On ch=1 n=g#5 v=93
104382 On ch=1 n=b6 v=105
104384 On ch=1 n=b5 v=105
104401 On ch=1 n=f#6 v=0
104463 On ch=1 n=g#5 v=0
104482 On ch=1 n=b4 v=73
104559 On ch=1 n=f#5 v=93
104564 On ch=1 n=b4 v=0
104568 On ch=1 n=a#6 v=69
104601 On ch=1 n=f#5 v=0
104616 On ch=1 n=b6 v=0
104643 On ch=1 n=b6 v=73
104650 On ch=1 n=g#5 v=89
104653 On ch=1 n=a#6 v=0
104691 On ch=1 n=g#5 v=0
104728 On ch=1 n=f#5 v=77
104728 On ch=1 n=a#6 v=77
104823 On ch=1 n=b4 v=77
104909 On ch=1 n=f#5 v=0
104910 On ch=1 n=g#6 v=77
104910 On ch=1 n=e5 v=61
104912 On ch=1 n=b4 v=0
104914 On ch=1 n=b6 v=0
104936 On ch=1 n=a#6 v=0
105003 On ch=1 n=b4 v=73
105064 On ch=1 n=b4 v=0
105065 On ch=1 n=e5 v=0
105084 On ch=1 n=d#5 v=69
105084 On ch=1 n=f#6 v=77
105088 On ch=1 n=b5 v=0
105089 On ch=1 n=b5 v=53
105136 On ch=1 n=g#6 v=0
105170 On ch=1 n=f#4 v=53
105251 On ch=1 n=d#5 v=0
105269 On ch=1 n=d#6 v=73
105269 On ch=1 n=b4 v=61
105275 On ch=1 n=f#4 v=0
105357 On ch=1 n=b4 v=0
105359 On ch=1 n=f#3 v=53
105417 On ch=1 n=f#3 v=0
105447 On ch=1 n=f#6 v=0
105455 On ch=1 n=d6 v=77
105457 On ch=1 n=b4 v=53
105474 On ch=1 n=d#6 v=0
105538 On ch=1 n=f#4 v=49
105541 On ch=1 n=b4 v=0
105632 On ch=1 n=f#4 v=0
105636 On ch=1 n=b4 v=69
105721 On ch=1 n=f#3 v=57
105788 On ch=1 n=d6 v=0
105796 On ch=1 n=b4 v=0
105808 On ch=1 n=f#5 v=49
105809 On ch=1 n=b4 v=33
105814 On ch=1 n=d#6 v=69
105819 On ch=1 n=f#3 v=0
105821 On ch=1 n=b5 v=0
105881 On ch=1 n=b4 v=0
105898 On ch=1 n=f#4 v=61
105954 On ch=1 n=f#6 v=77
105974 On ch=1 n=d#6 v=0
105979 On ch=1 n=f#4 v=0
105991 On ch=1 n=b4 v=41
106053 On ch=1 n=b4 v=0
106071 On ch=1 n=d#6 v=69
106078 On ch=1 n=f#3 v=37
106080 On ch=1 n=f#6 v=0
106137 On ch=1 n=f#3 v=0
106164 On ch=1 n=b4 v=37
106172 On ch=1 n=d6 v=73
106180 On ch=1 n=d#6 v=0
106233 On ch=1 n=b4 v=0
106250 On ch=1 n=f#4 v=53
106323 On ch=1 n=f#4 v=0
106340 On ch=1 n=b4 v=49
106427 On ch=1 n=f#3 v=49
106428 On ch=1 n=b4 v=0
106508 On ch=1 n=f#3 v=0
106514 On ch=1 n=f#5 v=0
106517 On ch=1 n=b4 v=41
106518 On ch=1 n=f#5 v=61
106520 On ch=1 n=d#6 v=73
106529 On ch=1 n=d6 v=0
106572 On ch=1 n=f#5 v=0
106590 On ch=1 n=b4 v=0
106600 On ch=1 n=f#4 v=49
106669 On ch=1 n=f#4 v=0
106700 On ch=1 n=b4 v=41
106765 On ch=1 n=b4 v=0
106790 On ch=1 n=f#3 v=37
106794 On ch=1 n=f#6 v=61
106822 On ch=1 n=d#6 v=0
106852 On ch=1 n=f#3 v=0
106884 On ch=1 n=b4 v=37
106951 On ch=1 n=b4 v=0
106968 On ch=1 n=f#4 v=49
107015 On ch=1 n=f#4 v=0
107055 On ch=1 n=d6 v=61
107058 On ch=1 n=b4 v=37
107076 On ch=1 n=f#6 v=0
107125 On ch=1 n=b4 v=0
107136 On ch=1 n=f#3 v=41
107153 On ch=1 n=f#3 v=0
107154 On ch=1 n=f#3 v=21
107220 On ch=1 n=f#3 v=0
107230 On ch=1 n=c#6 v=61
107231 On ch=1 n=b4 v=49
107233 On ch=1 n=f#5 v=41
107255 On ch=1 n=d6 v=0
107263 On ch=1 n=f#5 v=0
107316 On ch=1 n=b4 v=0
107320 On ch=1 n=f#4 v=41
107396 On ch=1 n=f#4 v=0
107406 On ch=1 n=b4 v=37
107483 On ch=1 n=b4 v=0
107511 On ch=1 n=f#3 v=21
107577 On ch=1 n=f#3 v=0
107599 On ch=1 n=a#4 v=49
107600 On ch=1 n=d#6 v=73
107615 On ch=1 n=c#6 v=0
107688 On ch=1 n=f#4 v=61
107702 On ch=1 n=a#4 v=0
107755 On ch=1 n=f#4 v=0
107776 On ch=1 n=a#4 v=49
107780 On ch=1 n=e6 v=73
107785 On ch=1 n=d#6 v=0
107857 On ch=1 n=a#4 v=0
107868 On ch=1 n=f#3 v=41
107953 On ch=1 n=f#3 v=0
107962 On ch=1 n=e6 v=0
107970 On ch=1 n=d#6 v=69
107970 On ch=1 n=f#5 v=53
107972 On ch=1 n=b4 v=49
108053 On ch=1 n=f#4 v=73
108123 On ch=1 n=f#4 v=0
108139 On ch=1 n=b4 v=0
108140 On ch=1 n=b4 v=77
108203 On ch=1 n=b4 v=0
108226 On ch=1 n=b3 v=69
108304 On ch=1 n=b3 v=0
108318 On ch=1 n=f#4 v=57
108326 On ch=1 n=g#5 v=69
108341 On ch=1 n=f#5 v=0
108357 On ch=1 n=f#4 v=0
108398 On ch=1 n=f#3 v=77
108446 On ch=1 n=f#3 v=0
108489 On ch=1 n=a5 v=73
108490 On ch=1 n=b3 v=93
108504 On ch=1 n=g#5 v=0
108511 On ch=1 n=b3 v=0
108546 On ch=1 n=d#6 v=0
108579 On ch=1 n=b2 v=61
108612 On ch=1 n=b2 v=0
108671 On ch=1 n=a5 v=0
108682 On ch=1 n=b4 v=73
108685 On ch=1 n=g#5 v=57
108697 On ch=1 n=c#6 v=41
108773 On ch=1 n=b4 v=0
108774 On ch=1 n=e4 v=57
108849 On ch=1 n=e4 v=0
108859 On ch=1 n=b4 v=77
108939 On ch=1 n=b3 v=61
108968 On ch=1 n=b4 v=0
109033 On ch=1 n=e4 v=89
109040 On ch=1 n=g5 v=53
109044 On ch=1 n=d#6 v=53
109050 On ch=1 n=b3 v=0
109054 On ch=1 n=c#6 v=0
109056 On ch=1 n=g#5 v=0
109101 On ch=1 n=e4 v=0
109124 On ch=1 n=e3 v=57
109209 On ch=1 n=e3 v=0
109215 On ch=1 n=b3 v=89
109225 On ch=1 n=d#6 v=0
109226 On ch=1 n=e6 v=49
109244 On ch=1 n=g5 v=0
109254 On ch=1 n=b3 v=0
109307 On ch=1 n=b2 v=69
109390 On ch=1 n=f#5 v=57
109395 On ch=1 n=d#6 v=85
109396 On ch=1 n=b2 v=0
109398 On ch=1 n=e6 v=0
109406 On ch=1 n=b4 v=37
109489 On ch=1 n=f#4 v=69
109493 On ch=1 n=b4 v=0
109545 On ch=1 n=f#4 v=0
109576 On ch=1 n=b4 v=61
109620 On ch=1 n=b4 v=0
109658 On ch=1 n=b3 v=41
109700 On ch=1 n=b3 v=0
109739 On ch=1 n=g#5 v=61
109743 On ch=1 n=d6 v=53
109745 On ch=1 n=f#4 v=93
109754 On ch=1 n=f#5 v=0
109769 On ch=1 n=d#6 v=0
109779 On ch=1 n=f#4 v=0
109828 On ch=1 n=f#3 v=53
109866 On ch=1 n=f#3 v=0
109908 On ch=1 n=g#5 v=0
109919 On ch=1 n=a5 v=57
109926 On ch=1 n=b3 v=85
109945 On ch=1 n=d6 v=0
109951 On ch=1 n=b3 v=0
110009 On ch=1 n=b2 v=85
110033 On ch=1 n=b2 v=0
110100 On ch=1 n=a5 v=0
110100 On ch=1 n=c#6 v=61
110102 On ch=1 n=b4 v=89
110104 On ch=1 n=g#5 v=57
110191 On ch=1 n=b4 v=0
110195 On ch=1 n=f4 v=73
110281 On ch=1 n=b4 v=85
110310 On ch=1 n=f4 v=0
110365 On ch=1 n=b3 v=73
110384 On ch=1 n=b4 v=0
110463 On ch=1 n=d#6 v=77
110464 On ch=1 n=g5 v=5
110465 On ch=1 n=e4 v=69
110470 On ch=1 n=g#5 v=0
110477 On ch=1 n=b3 v=0
110481 On ch=1 n=c#6 v=0
110532 On ch=1 n=e4 v=0
110542 On ch=1 n=e3 v=69
110616 On ch=1 n=e3 v=0
110631 On ch=1 n=b3 v=89
110646 On ch=1 n=e6 v=57
110653 On ch=1 n=d#6 v=0
110660 On ch=1 n=g5 v=0
110668 On ch=1 n=b3 v=0
110732 On ch=1 n=b2 v=53
110817 On ch=1 n=b2 v=0
110821 On ch=1 n=d#6 v=85
110824 On ch=1 n=b4 v=57
110826 On ch=1 n=f#5 v=17
110835 On ch=1 n=e6 v=0
110906 On ch=1 n=b4 v=0
110907 On ch=1 n=f#4 v=61
110991 On ch=1 n=b4 v=77
111007 On ch=1 n=f#4 v=0
111076 On ch=1 n=b3 v=73
111102 On ch=1 n=b4 v=0
111169 On ch=1 n=f#4 v=61
111188 On ch=1 n=b3 v=0
111240 On ch=1 n=f#4 v=0
111249 On ch=1 n=f#3 v=57
111324 On ch=1 n=f#3 v=0
111339 On ch=1 n=b3 v=85
111413 On ch=1 n=b3 v=0
111429 On ch=1 n=b2 v=77
111470 On ch=1 n=d#6 v=0
111474 On ch=1 n=f#5 v=0
111522 On ch=1 n=b4 v=73
111527 On ch=1 n=b2 v=0
111535 On ch=1 n=f#5 v=73
111541 On ch=1 n=d#6 v=61
111545 On ch=1 n=f#6 v=61
111618 On ch=1 n=f#4 v=89
111680 On ch=1 n=b4 v=0
111708 On ch=1 n=b4 v=69
111718 On ch=1 n=f#4 v=0
111785 On ch=1 n=b3 v=53
111789 On ch=1 n=b4 v=0
111883 On ch=1 n=f#4 v=61
111899 On ch=1 n=b3 v=0
111938 On ch=1 n=f#4 v=0
111960 On ch=1 n=f#3 v=53
112030 On ch=1 n=f#3 v=0
112049 On ch=1 n=b3 v=73
112136 On ch=1 n=b2 v=61
112148 On ch=1 n=b3 v=0
112163 On ch=1 n=d#6 v=0
112171 On ch=1 n=f#6 v=0
112186 On ch=1 n=f#5 v=0
112223 On ch=1 n=b2 v=0
112247 On ch=1 n=f#5 v=33
112249 On ch=1 n=d6 v=69
112249 On ch=1 n=f#6 v=73
113598 On ch=1 n=f#5 v=0
113598 On ch=1 n=f#5 v=81
113599 On ch=1 n=f#6 v=0
113599 On ch=1 n=f#6 v=77
113655 On ch=1 n=d6 v=0
113731 On ch=1 n=c#6 v=65
113738 On ch=1 n=f#5 v=0
113739 On ch=1 n=f#6 v=0
113755 On ch=1 n=d6 v=65
113759 On ch=1 n=c#6 v=0
113777 On ch=1 n=e6 v=69
113778 On ch=1 n=d6 v=0
113803 On ch=1 n=e6 v=0
113804 On ch=1 n=d6 v=77
113805 On ch=1 n=f5 v=81
113871 On ch=1 n=b3 v=65
113872 On ch=1 n=b4 v=61
113919 On ch=1 n=g#4 v=69
113963 On ch=1 n=d6 v=0
113966 On ch=1 n=f5 v=0
113973 On ch=1 n=g#4 v=0
113973 On ch=1 n=f4 v=69
113974 On ch=1 n=b5 v=73
113977 On ch=1 n=b4 v=0
113979 On ch=1 n=b3 v=0
114023 On ch=1 n=e5 v=65
114023 On ch=1 n=a#5 v=81
114058 On ch=1 n=b5 v=0
114059 On ch=1 n=f4 v=0
114090 On ch=1 n=f#4 v=57
114090 On ch=1 n=f#3 v=57
114142 On ch=1 n=c#4 v=53
114181 On ch=1 n=e5 v=0
114184 On ch=1 n=a#5 v=0
114190 On ch=1 n=f#4 v=0
114192 On ch=1 n=c#4 v=0
114197 On ch=1 n=f#3 v=0
114199 On ch=1 n=a#3 v=69
114199 On ch=1 n=c#6 v=73
114247 On ch=1 n=c#6 v=0
114250 On ch=1 n=d5 v=73
114250 On ch=1 n=f#5 v=73
114287 On ch=1 n=a#3 v=0
114315 On ch=1 n=b3 v=73
114315 On ch=1 n=b2 v=65
114364 On ch=1 n=f#3 v=69
114397 On ch=1 n=d5 v=0
114399 On ch=1 n=f#5 v=0
114420 On ch=1 n=b2 v=0
114426 On ch=1 n=d3 v=69
114426 On ch=1 n=g#5 v=77
114447 On ch=1 n=f#3 v=0
114453 On ch=1 n=b3 v=0
114465 On ch=1 n=g#5 v=0
114479 On ch=1 n=a#5 v=73
114480 On ch=1 n=c#5 v=61
114515 On ch=1 n=d3 v=0
114527 On ch=1 n=f#2 v=69
114527 On ch=1 n=f#3 v=61
114587 On ch=1 n=c#3 v=53
114631 On ch=1 n=a#5 v=0
114641 On ch=1 n=f#2 v=0
114641 On ch=1 n=a#2 v=81
114642 On ch=1 n=c#3 v=0
114642 On ch=1 n=f#5 v=81
114656 On ch=1 n=f#3 v=0
114678 On ch=1 n=c#5 v=0
114698 On ch=1 n=e5 v=61
114699 On ch=1 n=c#6 v=69
114699 On ch=1 n=e6 v=57
114736 On ch=1 n=f#5 v=0
114737 On ch=1 n=a#2 v=0
114753 On ch=1 n=e6 v=0
114755 On ch=1 n=c#6 v=0
114759 On ch=1 n=b2 v=69
114759 On ch=1 n=b3 v=65
114760 On ch=1 n=f#5 v=73
114811 On ch=1 n=e5 v=0
114813 On ch=1 n=f#5 v=0
114816 On ch=1 n=f#3 v=69
114816 On ch=1 n=d5 v=69
114817 On ch=1 n=b5 v=73
114817 On ch=1 n=d6 v=61
114864 On ch=1 n=d6 v=0
114865 On ch=1 n=d3 v=65
114865 On ch=1 n=f#5 v=77
114867 On ch=1 n=b5 v=0
114872 On ch=1 n=b2 v=0
114878 On ch=1 n=b3 v=0
114884 On ch=1 n=f#3 v=0
114921 On ch=1 n=f#5 v=0
114923 On ch=1 n=a#5 v=81
114923 On ch=1 n=c#6 v=69
114924 On ch=1 n=c#5 v=77
114925 On ch=1 n=d3 v=0
114925 On ch=1 n=d5 v=0
114971 On ch=1 n=f#4 v=73
114973 On ch=1 n=f#3 v=69
115033 On ch=1 n=c#4 v=61
115081 On ch=1 n=c#5 v=0
115086 On ch=1 n=c#6 v=0
115086 On ch=1 n=a#5 v=0
115088 On ch=1 n=f#4 v=0
115093 On ch=1 n=c#4 v=0
115094 On ch=1 n=f#3 v=0
115098 On ch=1 n=a#3 v=77
115099 On ch=1 n=f#5 v=69
115139 On ch=1 n=f#5 v=0
115154 On ch=1 n=a#3 v=0
115154 On ch=1 n=e6 v=61
115156 On ch=1 n=g5 v=53
115156 On ch=1 n=g6 v=65
115204 On ch=1 n=e4 v=69
115208 On ch=1 n=e3 v=61
115209 On ch=1 n=b5 v=69
115212 On ch=1 n=g6 v=0
115213 On ch=1 n=e6 v=0
115261 On ch=1 n=f#6 v=73
115263 On ch=1 n=b5 v=0
115263 On ch=1 n=f#5 v=73
115263 On ch=1 n=d6 v=73
115265 On ch=1 n=b3 v=81
115267 On ch=1 n=g5 v=0
115305 On ch=1 n=f#6 v=0
115309 On ch=1 n=d6 v=0
115311 On ch=1 n=b5 v=73
115313 On ch=1 n=e3 v=0
115314 On ch=1 n=g3 v=81
115316 On ch=1 n=e4 v=0
115320 On ch=1 n=b3 v=0
115364 On ch=1 n=b5 v=0
115365 On ch=1 n=f#5 v=0
115369 On ch=1 n=g3 v=0
115369 On ch=1 n=e6 v=73
115370 On ch=1 n=c#6 v=65
115370 On ch=1 n=e5 v=61
115371 On ch=1 n=a4 v=89
115371 On ch=1 n=a3 v=101
115421 On ch=1 n=c#6 v=0
115425 On ch=1 n=e6 v=0
115425 On ch=1 n=e5 v=0
115488 On ch=1 n=a5 v=93
115489 On ch=1 n=c#6 v=81
115489 On ch=1 n=e6 v=81
115490 On ch=1 n=a6 v=73
115500 On ch=1 n=a4 v=0
115501 On ch=1 n=a3 v=0
115541 On ch=1 n=e4 v=77
115567 On ch=1 n=f4 v=81
115571 On ch=1 n=e4 v=0
115588 On ch=1 n=f4 v=0
115589 On ch=1 n=g4 v=81
115612 On ch=1 n=f4 v=69
115613 On ch=1 n=g4 v=0
115615 On ch=1 n=f3 v=73
115668 On ch=1 n=e6 v=0
115669 On ch=1 n=c#6 v=0
115670 On ch=1 n=a6 v=0
115671 On ch=1 n=a5 v=0
115720 On ch=1 n=a6 v=81
115721 On ch=1 n=f6 v=81
115722 On ch=1 n=a5 v=85
115724 On ch=1 n=d6 v=81
115741 On ch=1 n=f4 v=0
115742 On ch=1 n=f3 v=0
115774 On ch=1 n=d4 v=85
115776 On ch=1 n=d3 v=65
115782 On ch=1 n=d3 v=0
115784 On ch=1 n=d4 v=0
115834 On ch=1 n=c#4 v=85
115834 On ch=1 n=c#3 v=81
115841 On ch=1 n=a6 v=0
115845 On ch=1 n=f6 v=0
115853 On ch=1 n=d6 v=0
115853 On ch=1 n=a5 v=0
115897 On ch=1 n=e6 v=65
115898 On ch=1 n=g5 v=61
115952 On ch=1 n=g5 v=0
115953 On ch=1 n=f6 v=65
115953 On ch=1 n=a5 v=69
115963 On ch=1 n=e6 v=0
115964 On ch=1 n=c#4 v=0
115999 On ch=1 n=c#3 v=0
116003 On ch=1 n=c#4 v=77
116007 On ch=1 n=e4 v=77
116008 On ch=1 n=a4 v=73
116008 On ch=1 n=g6 v=69
116009 On ch=1 n=a5 v=0
116010 On ch=1 n=f6 v=0
116010 On ch=1 n=a#5 v=69
116046 On ch=1 n=c#4 v=0
116054 On ch=1 n=e4 v=0
116058 On ch=1 n=g6 v=0
116059 On ch=1 n=a4 v=0
116062 On ch=1 n=d4 v=85
116064 On ch=1 n=a#5 v=0
116065 On ch=1 n=d3 v=81
116119 On ch=1 n=f6 v=73
116124 On ch=1 n=a5 v=69
116150 On ch=1 n=d4 v=0
116164 On ch=1 n=d3 v=0
116174 On ch=1 n=a5 v=0
116178 On ch=1 n=f6 v=0
116179 On ch=1 n=c#6 v=69
116180 On ch=1 n=e5 v=53
116231 On ch=1 n=e5 v=0
116232 On ch=1 n=g#4 v=73
116232 On ch=1 n=d4 v=81
116232 On ch=1 n=b4 v=81
116233 On ch=1 n=d6 v=73
116235 On ch=1 n=c#6 v=0
116237 On ch=1 n=f5 v=61
116288 On ch=1 n=a3 v=73
116290 On ch=1 n=f5 v=0
116290 On ch=1 n=d6 v=0
116290 On ch=1 n=d4 v=0
116291 On ch=1 n=g#4 v=0
116291 On ch=1 n=b4 v=0
116292 On ch=1 n=a2 v=77
116345 On ch=1 n=e5 v=65
116346 On ch=1 n=e6 v=61
116346 On ch=1 n=c#6 v=69
116400 On ch=1 n=g#5 v=69
116404 On ch=1 n=e5 v=0
116410 On ch=1 n=c#6 v=0
116413 On ch=1 n=e6 v=0
116454 On ch=1 n=g#5 v=0
116455 On ch=1 n=c#3 v=69
116457 On ch=1 n=a3 v=0
116458 On ch=1 n=a5 v=65
116464 On ch=1 n=a2 v=0
116487 On ch=1 n=a5 v=0
116505 On ch=1 n=c#3 v=0
116512 On ch=1 n=d3 v=69
116513 On ch=1 n=d4 v=73
116567 On ch=1 n=g5 v=61
116569 On ch=1 n=e6 v=61
116572 On ch=1 n=g6 v=65
116628 On ch=1 n=g6 v=0
116628 On ch=1 n=e6 v=0
116629 On ch=1 n=a5 v=57
116631 On ch=1 n=g5 v=0
116673 On ch=1 n=d4 v=0
116678 On ch=1 n=d3 v=0
116679 On ch=1 n=g#3 v=65
116683 On ch=1 n=a5 v=0
116686 On ch=1 n=f5 v=65
116686 On ch=1 n=f6 v=65
116688 On ch=1 n=d6 v=69
116707 On ch=1 n=f5 v=0
116710 On ch=1 n=d6 v=0
116710 On ch=1 n=f6 v=0
116724 On ch=1 n=g#3 v=0
116736 On ch=1 n=a3 v=69
116736 On ch=1 n=a4 v=81
116805 On ch=1 n=c#6 v=65
116807 On ch=1 n=e5 v=57
116809 On ch=1 n=e6 v=65
116863 On ch=1 n=g#5 v=65
116872 On ch=1 n=e5 v=0
116890 On ch=1 n=c#6 v=0
116895 On ch=1 n=e6 v=0
116910 On ch=1 n=a4 v=0
116911 On ch=1 n=a3 v=0
116913 On ch=1 n=g#5 v=0
116914 On ch=1 n=c#4 v=73
116917 On ch=1 n=a5 v=57
116938 On ch=1 n=a5 v=0
116959 On ch=1 n=c#4 v=0
116966 On ch=1 n=d4 v=73
116966 On ch=1 n=g3 v=61
117012 On ch=1 n=d4 v=0
117018 On ch=1 n=d5 v=61
117018 On ch=1 n=a#5 v=69
117018 On ch=1 n=a#6 v=53
117019 On ch=1 n=g6 v=61
117073 On ch=1 n=g6 v=0
117074 On ch=1 n=a#6 v=0
117074 On ch=1 n=a#4 v=73
117075 On ch=1 n=d6 v=57
117076 On ch=1 n=d5 v=0
117078 On ch=1 n=a#5 v=0
117129 On ch=1 n=d6 v=0
117129 On ch=1 n=a#4 v=0
117133 On ch=1 n=g4 v=69
117134 On ch=1 n=a5 v=69
117134 On ch=1 n=f6 v=69
117134 On ch=1 n=a6 v=65
117145 On ch=1 n=a6 v=0
117149 On ch=1 n=a5 v=0
117149 On ch=1 n=f6 v=0
117182 On ch=1 n=g3 v=0
117192 On ch=1 n=g4 v=0
117196 On ch=1 n=c4 v=81
117196 On ch=1 n=c5 v=77
117196 On ch=1 n=g5 v=69
117197 On ch=1 n=e6 v=73
117198 On ch=1 n=g6 v=61
117294 On ch=1 n=g5 v=0
117296 On ch=1 n=e6 v=0
117296 On ch=1 n=c4 v=0
117300 On ch=1 n=c5 v=0
117309 On ch=1 n=g6 v=0
117313 On ch=1 n=g6 v=81
117313 On ch=1 n=c7 v=101
117314 On ch=1 n=c6 v=93
117316 On ch=1 n=e6 v=85
117344 On ch=1 n=g4 v=73
117364 On ch=1 n=g#4 v=85
117373 On ch=1 n=g4 v=0
117388 On ch=1 n=a#4 v=93
117392 On ch=1 n=g#4 v=0
117410 On ch=1 n=a#4 v=0
117415 On ch=1 n=g#3 v=89
117417 On ch=1 n=g#4 v=89
117483 On ch=1 n=e6 v=0
117484 On ch=1 n=c7 v=0
117484 On ch=1 n=g6 v=0
117487 On ch=1 n=c6 v=0
117528 On ch=1 n=g#4 v=0
117532 On ch=1 n=g#3 v=0
117553 On ch=1 n=c6 v=93
117554 On ch=1 n=g#6 v=81
117554 On ch=1 n=c7 v=93
117555 On ch=1 n=f6 v=85
117609 On ch=1 n=f4 v=85
117610 On ch=1 n=f3 v=81
117622 On ch=1 n=f4 v=0
117623 On ch=1 n=f3 v=0
117667 On ch=1 n=c#4 v=101
117668 On ch=1 n=c#3 v=101
117702 On ch=1 n=c7 v=0
117708 On ch=1 n=c6 v=0
117717 On ch=1 n=f6 v=0
117722 On ch=1 n=g#6 v=0
117769 On ch=1 n=c#4 v=0
117773 On ch=1 n=c#3 v=0
117805 On ch=1 n=c#6 v=81
117806 On ch=1 n=c#7 v=93
117806 On ch=1 n=g#6 v=73
117807 On ch=1 n=f6 v=81
117808 On ch=1 n=b6 v=65
117850 On ch=1 n=g#3 v=73
117872 On ch=1 n=g#3 v=0
117873 On ch=1 n=a3 v=81
117890 On ch=1 n=a3 v=0
117893 On ch=1 n=b3 v=85
117923 On ch=1 n=a2 v=89
117923 On ch=1 n=a3 v=93
117926 On ch=1 n=b3 v=0
117950 On ch=1 n=b6 v=0
117951 On ch=1 n=f6 v=0
117955 On ch=1 n=g#6 v=0
117959 On ch=1 n=c#6 v=0
117966 On ch=1 n=c#7 v=0
118021 On ch=1 n=a3 v=0
118023 On ch=1 n=a2 v=0
118054 On ch=1 n=c#7 v=89
118054 On ch=1 n=c#6 v=81
118056 On ch=1 n=f#6 v=81
118057 On ch=1 n=a6 v=77
118106 On ch=1 n=f#3 v=89
118108 On ch=1 n=f#2 v=89
118120 On ch=1 n=f#2 v=0
118124 On ch=1 n=f#3 v=0
118178 On ch=1 n=d2 v=101
118179 On ch=1 n=d3 v=109
118266 On ch=1 n=d2 v=0
118271 On ch=1 n=f#6 v=0
118273 On ch=1 n=a6 v=0
118274 On ch=1 n=c#6 v=0
118275 On ch=1 n=c#7 v=0
118303 On ch=1 n=d3 v=0
118305 On ch=1 n=f#6 v=81
118305 On ch=1 n=c#7 v=81
118307 On ch=1 n=f#7 v=85
118336 On ch=1 n=f#6 v=0
118341 On ch=1 n=f#7 v=0
118342 On ch=1 n=c#7 v=0
118352 On ch=1 n=f#4 v=73
118352 On ch=1 n=d4 v=61
118353 On ch=1 n=a4 v=69
118413 On ch=1 n=g#3 v=69
118414 On ch=1 n=g#2 v=69
118415 On ch=1 n=d6 v=81
118418 On ch=1 n=d7 v=81
118418 On ch=1 n=f#6 v=81
118478 On ch=1 n=d6 v=0
118481 On ch=1 n=f#6 v=0
118481 On ch=1 n=d7 v=0
118498 On ch=1 n=a4 v=0
118499 On ch=1 n=d4 v=0
118505 On ch=1 n=f#4 v=0
118527 On ch=1 n=g#3 v=0
118527 On ch=1 n=b6 v=73
118530 On ch=1 n=d6 v=85
118530 On ch=1 n=b5 v=81
118533 On ch=1 n=g#2 v=0
118562 On ch=1 n=b6 v=0
118564 On ch=1 n=d6 v=0
118564 On ch=1 n=b5 v=0
118579 On ch=1 n=f#4 v=69
118580 On ch=1 n=d4 v=65
118581 On ch=1 n=g#4 v=69
118639 On ch=1 n=g#4 v=0
118641 On ch=1 n=d4 v=0
118642 On ch=1 n=f#4 v=0
118646 On ch=1 n=f2 v=69
118647 On ch=1 n=f3 v=61
118647 On ch=1 n=c#7 v=93
118648 On ch=1 n=c#6 v=81
118648 On ch=1 n=g#6 v=73
118699 On ch=1 n=g#6 v=0
118699 On ch=1 n=c#6 v=0
118710 On ch=1 n=c#7 v=0
118760 On ch=1 n=a6 v=81
118761 On ch=1 n=c#6 v=81
118761 On ch=1 n=a5 v=89
118788 On ch=1 n=a5 v=0
118791 On ch=1 n=c#6 v=0
118795 On ch=1 n=a6 v=0
118809 On ch=1 n=f3 v=0
118809 On ch=1 n=f2 v=0
118812 On ch=1 n=c#4 v=57
118814 On ch=1 n=f4 v=69
118814 On ch=1 n=a4 v=57
118878 On ch=1 n=a4 v=0
118878 On ch=1 n=c#4 v=0
118880 On ch=1 n=f4 v=0
118880 On ch=1 n=f5 v=85
118881 On ch=1 n=f6 v=81
118882 On ch=1 n=a2 v=65
118883 On ch=1 n=a3 v=61
118883 On ch=1 n=c#6 v=73
118919 On ch=1 n=f5 v=0
118930 On ch=1 n=f6 v=0
118930 On ch=1 n=c#6 v=0
119001 On ch=1 n=f#6 v=81
119001 On ch=1 n=f#5 v=81
119003 On ch=1 n=c#6 v=73
119056 On ch=1 n=c#4 v=69
119056 On ch=1 n=f#4 v=73
119057 On ch=1 n=a4 v=57
119066 On ch=1 n=f#5 v=0
119067 On ch=1 n=a3 v=0
119068 On ch=1 n=a2 v=0
119070 On ch=1 n=c#6 v=0
119074 On ch=1 n=f#6 v=0
119099 On ch=1 n=c#4 v=0
119100 On ch=1 n=f#4 v=0
119105 On ch=1 n=a4 v=0
119111 On ch=1 n=d4 v=81
119112 On ch=1 n=d3 v=77
119120 On ch=1 n=d3 v=0
119120 On ch=1 n=d4 v=0
119165 On ch=1 n=d6 v=73
119166 On ch=1 n=d5 v=69
119183 On ch=1 n=d5 v=0
119188 On ch=1 n=d6 v=0
119220 On ch=1 n=c#4 v=85
119222 On ch=1 n=c#3 v=77
119223 On ch=1 n=c#6 v=77
119223 On ch=1 n=c#5 v=77
119234 On ch=1 n=c#5 v=0
119235 On ch=1 n=c#4 v=0
119236 On ch=1 n=c#3 v=0
119238 On ch=1 n=c#6 v=0
119276 On ch=1 n=c4 v=85
119277 On ch=1 n=c3 v=77
119277 On ch=1 n=c5 v=85
119280 On ch=1 n=c6 v=81
119292 On ch=1 n=c3 v=0
119292 On ch=1 n=c4 v=0
119297 On ch=1 n=c5 v=0
119303 On ch=1 n=c6 v=0
119338 On ch=1 n=c#4 v=81
119341 On ch=1 n=c#3 v=73
119389 On ch=1 n=c#3 v=0
119389 On ch=1 n=c#4 v=0
119392 On ch=1 n=c#5 v=69
119392 On ch=1 n=c#6 v=61
119408 On ch=1 n=c#5 v=0
119412 On ch=1 n=c#6 v=0
119446 On ch=1 n=d#4 v=85
119447 On ch=1 n=d#3 v=77
119449 On ch=1 n=d#5 v=81
119451 On ch=1 n=d#6 v=85
119458 On ch=1 n=d#3 v=0
119460 On ch=1 n=d#5 v=0
119462 On ch=1 n=d#4 v=0
119462 On ch=1 n=d#6 v=0
119499 On ch=1 n=f5 v=93
119500 On ch=1 n=f6 v=69
119501 On ch=1 n=f4 v=85
119505 On ch=1 n=f3 v=73
119509 On ch=1 n=f3 v=0
119511 On ch=1 n=f4 v=0
119511 On ch=1 n=f5 v=0
119518 On ch=1 n=f6 v=0
119559 On ch=1 n=f#4 v=77
119560 On ch=1 n=f#3 v=69
119610 On ch=1 n=f#3 v=0
119612 On ch=1 n=f#6 v=73
119612 On ch=1 n=f#5 v=69
119616 On ch=1 n=f#4 v=0
119626 On ch=1 n=f#5 v=0
119630 On ch=1 n=f#6 v=0
119664 On ch=1 n=g#4 v=85
119665 On ch=1 n=g#5 v=81
119666 On ch=1 n=g#3 v=69
119667 On ch=1 n=g#6 v=85
119677 On ch=1 n=g#5 v=0
119678 On ch=1 n=g#3 v=0
119679 On ch=1 n=g#4 v=0
119680 On ch=1 n=g#6 v=0
119718 On ch=1 n=a5 v=89
119719 On ch=1 n=a6 v=81
119720 On ch=1 n=a4 v=81
119723 On ch=1 n=a3 v=73
119727 On ch=1 n=a3 v=0
119729 On ch=1 n=a5 v=0
119732 On ch=1 n=a4 v=0
119737 On ch=1 n=a6 v=0
119777 On ch=1 n=b4 v=73
119777 On ch=1 n=b3 v=73
119822 On ch=1 n=b3 v=0
119827 On ch=1 n=b4 v=0
119830 On ch=1 n=b6 v=69
119832 On ch=1 n=b5 v=69
119842 On ch=1 n=b5 v=0
119848 On ch=1 n=b6 v=0
119883 On ch=1 n=c#5 v=85
119884 On ch=1 n=c#6 v=81
119885 On ch=1 n=c#4 v=77
119885 On ch=1 n=c#7 v=93
119897 On ch=1 n=c#6 v=0
119899 On ch=1 n=c#4 v=0
119900 On ch=1 n=c#5 v=0
119903 On ch=1 n=c#7 v=0
119933 On ch=1 n=d6 v=89
119933 On ch=1 n=d7 v=81
119935 On ch=1 n=d5 v=81
119938 On ch=1 n=d4 v=77
119945 On ch=1 n=d5 v=0
119946 On ch=1 n=d6 v=0
119946 On ch=1 n=d7 v=0
119951 On ch=1 n=d4 v=0
120001 On ch=1 n=f4 v=77
120005 On ch=1 n=f3 v=65
120066 On ch=1 n=f3 v=0
120068 On ch=1 n=f5 v=77
120068 On ch=1 n=f6 v=69
120071 On ch=1 n=f4 v=0
120134 On ch=1 n=f#4 v=81
120138 On ch=1 n=f#3 v=65
120148 On ch=1 n=f6 v=0
120155 On ch=1 n=f5 v=0
120181 On ch=1 n=f#4 v=0
120185 On ch=1 n=f#3 v=0
120207 On ch=1 n=f#5 v=77
120207 On ch=1 n=f#6 v=77
120243 On ch=1 n=f#5 v=0
120254 On ch=1 n=f#6 v=0
120281 On ch=1 n=c4 v=65
120283 On ch=1 n=c3 v=65
120354 On ch=1 n=c6 v=69
120356 On ch=1 n=c5 v=57
120404 On ch=1 n=c5 v=0
120409 On ch=1 n=c6 v=0
120432 On ch=1 n=c#4 v=73
120434 On ch=1 n=c#3 v=69
120467 On ch=1 n=c#4 v=0
120468 On ch=1 n=c3 v=0
120484 On ch=1 n=c4 v=0
120490 On ch=1 n=c#3 v=0
120515 On ch=1 n=c#6 v=73
120516 On ch=1 n=c#5 v=73
120572 On ch=1 n=c#5 v=0
120582 On ch=1 n=c#6 v=0
120610 On ch=1 n=f#2 v=77
120614 On ch=1 n=f#3 v=69
120737 On ch=1 n=f#4 v=73
120780 On ch=1 n=f#4 v=0
120804 On ch=1 n=g#4 v=69
120805 On ch=1 n=f4 v=61
120842 On ch=1 n=f4 v=0
120848 On ch=1 n=g#4 v=0
120869 On ch=1 n=f#4 v=73
120909 On ch=1 n=f#4 v=0
120932 On ch=1 n=c#4 v=81
120937 On ch=1 n=a4 v=65
120963 On ch=1 n=f#3 v=0
120964 On ch=1 n=f#2 v=0
120974 On ch=1 n=c#4 v=0
120989 On ch=1 n=a4 v=0
120998 On ch=1 n=f#4 v=73
121041 On ch=1 n=f#4 v=0
121062 On ch=1 n=g#4 v=77
121068 On ch=1 n=f4 v=65
121101 On ch=1 n=f4 v=0
121112 On ch=1 n=g#4 v=0
121128 On ch=1 n=f#4 v=77
121168 On ch=1 n=f#4 v=0
121213 On ch=1 n=f#3 v=65
121300 On ch=1 n=f#3 v=0
121311 On ch=1 n=f#4 v=73
121351 On ch=1 n=f#4 v=0
121376 On ch=1 n=g#4 v=69
121381 On ch=1 n=f4 v=61
121419 On ch=1 n=f4 v=0
121427 On ch=1 n=g#4 v=0
121438 On ch=1 n=f#4 v=77
121474 On ch=1 n=f#4 v=0
121510 On ch=1 n=d4 v=77
121512 On ch=1 n=b4 v=69
121552 On ch=1 n=d4 v=0
121561 On ch=1 n=b4 v=0
121578 On ch=1 n=f#4 v=69
121609 On ch=1 n=f#4 v=0
121651 On ch=1 n=g#4 v=65
121655 On ch=1 n=f4 v=69
121691 On ch=1 n=f4 v=0
121691 On ch=1 n=g#4 v=0
121719 On ch=1 n=f#4 v=77
121755 On ch=1 n=f#4 v=0
121796 On ch=1 n=f#3 v=69
121896 On ch=1 n=f#4 v=69
121916 On ch=1 n=f#3 v=0
121934 On ch=1 n=f#4 v=0
121964 On ch=1 n=d5 v=61
121965 On ch=1 n=f#5 v=61
121995 On ch=1 n=f#5 v=0
121998 On ch=1 n=d5 v=0
122030 On ch=1 n=f#4 v=61
122063 On ch=1 n=f#4 v=0
122090 On ch=1 n=c#5 v=69
122093 On ch=1 n=f5 v=65
122121 On ch=1 n=f5 v=0
122122 On ch=1 n=c#5 v=0
122155 On ch=1 n=f#4 v=69
122195 On ch=1 n=f#4 v=0
122214 On ch=1 n=c5 v=57
122215 On ch=1 n=e5 v=65
122235 On ch=1 n=e5 v=0
122241 On ch=1 n=c5 v=0
122276 On ch=1 n=f#4 v=73
122311 On ch=1 n=f#4 v=0
122345 On ch=1 n=b4 v=65
122346 On ch=1 n=d#5 v=69
122420 On ch=1 n=f#4 v=69
122477 On ch=1 n=f4 v=69
122511 On ch=1 n=f#4 v=0
122521 On ch=1 n=f4 v=0
122541 On ch=1 n=f#4 v=69
122576 On ch=1 n=f#4 v=0
122588 On ch=1 n=b4 v=0
122600 On ch=1 n=d#5 v=0
122608 On ch=1 n=f#4 v=77
122609 On ch=1 n=d5 v=69
122659 On ch=1 n=d5 v=0
122676 On ch=1 n=f#4 v=0
122679 On ch=1 n=f#4 v=73
122716 On ch=1 n=f#4 v=0
122741 On ch=1 n=f4 v=69
122789 On ch=1 n=f4 v=0
122804 On ch=1 n=f#4 v=65
122839 On ch=1 n=f#4 v=0
122872 On ch=1 n=a#4 v=61
122873 On ch=1 n=c#5 v=57
122950 On ch=1 n=f#4 v=65
122975 On ch=1 n=f#4 v=0
123018 On ch=1 n=f#5 v=69
123020 On ch=1 n=d5 v=53
123077 On ch=1 n=d5 v=0
123077 On ch=1 n=f#4 v=73
123080 On ch=1 n=c#5 v=0
123082 On ch=1 n=a#4 v=0
123087 On ch=1 n=f#5 v=0
123112 On ch=1 n=f#4 v=0
123143 On ch=1 n=c#5 v=69
123148 On ch=1 n=f5 v=65
123153 On ch=1 n=g#5 v=57
123203 On ch=1 n=f5 v=0
123205 On ch=1 n=g#5 v=0
123205 On ch=1 n=c#5 v=0
123215 On ch=1 n=f#4 v=77
123245 On ch=1 n=f#4 v=0
123272 On ch=1 n=c5 v=65
123274 On ch=1 n=a#5 v=73
123276 On ch=1 n=e5 v=69
123318 On ch=1 n=a#5 v=0
123323 On ch=1 n=e5 v=0
123327 On ch=1 n=c5 v=0
123339 On ch=1 n=f#4 v=77
123374 On ch=1 n=f#4 v=0
123409 On ch=1 n=d#5 v=77
123410 On ch=1 n=b4 v=81
123411 On ch=1 n=b5 v=81
123434 On ch=1 n=b4 v=0
123473 On ch=1 n=f#4 v=69
123508 On ch=1 n=f#4 v=0
123546 On ch=1 n=f4 v=69
123578 On ch=1 n=f4 v=0
123606 On ch=1 n=f#4 v=81
123638 On ch=1 n=f#4 v=0
123678 On ch=1 n=d5 v=57
123679 On ch=1 n=g#4 v=65
123680 On ch=1 n=b4 v=61
123681 On ch=1 n=b5 v=0
123697 On ch=1 n=d#5 v=0
123701 On ch=1 n=b4 v=0
123738 On ch=1 n=f#4 v=77
123780 On ch=1 n=f#4 v=0
123806 On ch=1 n=f4 v=69
123847 On ch=1 n=f4 v=0
123871 On ch=1 n=f#4 v=73
123904 On ch=1 n=f#4 v=0
123936 On ch=1 n=a#4 v=65
123940 On ch=1 n=c#5 v=61
123990 On ch=1 n=g#4 v=0
124009 On ch=1 n=f#4 v=61
124015 On ch=1 n=d5 v=0
124054 On ch=1 n=c#5 v=0
124057 On ch=1 n=a#4 v=0
124073 On ch=1 n=f#5 v=41
124074 On ch=1 n=d5 v=49
124077 On ch=1 n=a4 v=61
124077 On ch=1 n=d3 v=65
124092 On ch=1 n=f#4 v=0
124095 On ch=1 n=d3 v=0
124142 On ch=1 n=f#5 v=0
124149 On ch=1 n=f#4 v=65
124151 On ch=1 n=d5 v=0
124152 On ch=1 n=a4 v=0
124216 On ch=1 n=d3 v=69
124216 On ch=1 n=f#5 v=65
124217 On ch=1 n=a4 v=57
124218 On ch=1 n=d5 v=57
124220 On ch=1 n=f#4 v=0
124237 On ch=1 n=d3 v=0
124285 On ch=1 n=f#4 v=77
124286 On ch=1 n=d5 v=0
124289 On ch=1 n=a4 v=0
124291 On ch=1 n=f#5 v=0
124346 On ch=1 n=f#4 v=0
124349 On ch=1 n=a4 v=69
124350 On ch=1 n=f#5 v=65
124350 On ch=1 n=d3 v=69
124353 On ch=1 n=d5 v=57
124374 On ch=1 n=d3 v=0
124398 On ch=1 n=f#5 v=0
124414 On ch=1 n=d5 v=0
124419 On ch=1 n=a4 v=0
124419 On ch=1 n=f#4 v=73
124490 On ch=1 n=a4 v=61
124492 On ch=1 n=f#5 v=65
124494 On ch=1 n=d5 v=57
124494 On ch=1 n=d3 v=69
124499 On ch=1 n=f#4 v=0
124550 On ch=1 n=d3 v=0
124561 On ch=1 n=f#4 v=69
124570 On ch=1 n=d5 v=0
124571 On ch=1 n=a4 v=0
124580 On ch=1 n=f#5 v=0
124605 On ch=1 n=f#4 v=0
124629 On ch=1 n=a3 v=61
124682 On ch=1 n=a3 v=0
124698 On ch=1 n=c#5 v=65
124703 On ch=1 n=f#4 v=61
124720 On ch=1 n=c#5 v=0
124721 On ch=1 n=d5 v=61
124742 On ch=1 n=e5 v=57
124746 On ch=1 n=d5 v=0
124769 On ch=1 n=d3 v=57
124771 On ch=1 n=a#3 v=65
124772 On ch=1 n=d5 v=65
124799 On ch=1 n=f#4 v=0
124809 On ch=1 n=e5 v=0
124838 On ch=1 n=d5 v=0
124844 On ch=1 n=g4 v=65
124899 On ch=1 n=d3 v=0
124905 On ch=1 n=a#3 v=0
124910 On ch=1 n=g3 v=57
124973 On ch=1 n=g3 v=0
124974 On ch=1 n=a#4 v=69
124977 On ch=1 n=g4 v=0
124977 On ch=1 n=e4 v=57
125018 On ch=1 n=a#4 v=0
125020 On ch=1 n=e4 v=0
125039 On ch=1 n=d3 v=41
125043 On ch=1 n=a3 v=57
125045 On ch=1 n=a4 v=65
125105 On ch=1 n=d3 v=0
125113 On ch=1 n=a3 v=0
125114 On ch=1 n=f#4 v=57
125182 On ch=1 n=f#4 v=0
125183 On ch=1 n=d5 v=69
125185 On ch=1 n=f#5 v=69
125186 On ch=1 n=d3 v=41
125186 On ch=1 n=f#3 v=45
125195 On ch=1 n=a4 v=0
125253 On ch=1 n=f#4 v=41
125262 On ch=1 n=f#3 v=0
125316 On ch=1 n=f#4 v=0
125323 On ch=1 n=g3 v=37
125389 On ch=1 n=f#4 v=61
125391 On ch=1 n=d3 v=0
125392 On ch=1 n=g3 v=0
125416 On ch=1 n=d5 v=0
125419 On ch=1 n=f#5 v=0
125453 On ch=1 n=f#4 v=0
125457 On ch=1 n=g#3 v=45
125457 On ch=1 n=d3 v=49
125464 On ch=1 n=d5 v=69
125465 On ch=1 n=f#5 v=69
125530 On ch=1 n=f#4 v=53
125597 On ch=1 n=f#4 v=0
125597 On ch=1 n=g#3 v=0
125603 On ch=1 n=a3 v=25
125620 On ch=1 n=d5 v=0
125621 On ch=1 n=f#5 v=0
125669 On ch=1 n=f#4 v=61
125671 On ch=1 n=d3 v=0
125674 On ch=1 n=a3 v=0
125737 On ch=1 n=f#4 v=0
125742 On ch=1 n=f#5 v=61
125743 On ch=1 n=d5 v=61
125744 On ch=1 n=f#3 v=29
125746 On ch=1 n=f#2 v=49
125749 On ch=1 n=a4 v=65
125810 On ch=1 n=f#4 v=37
125816 On ch=1 n=f#2 v=0
125817 On ch=1 n=f#3 v=0
125874 On ch=1 n=a4 v=0
125876 On ch=1 n=f#4 v=0
125877 On ch=1 n=a#4 v=81
125881 On ch=1 n=g2 v=53
125881 On ch=1 n=g3 v=41
125893 On ch=1 n=f#5 v=0
125893 On ch=1 n=d5 v=0
125939 On ch=1 n=f#4 v=49
125941 On ch=1 n=g2 v=0
125942 On ch=1 n=g3 v=0
126007 On ch=1 n=f#4 v=0
126007 On ch=1 n=g#3 v=37
126008 On ch=1 n=g#2 v=53
126010 On ch=1 n=f#5 v=65
126014 On ch=1 n=d5 v=61
126016 On ch=1 n=a#4 v=0
126016 On ch=1 n=b4 v=73
126079 On ch=1 n=f#4 v=61
126081 On ch=1 n=g#2 v=0
126082 On ch=1 n=g#3 v=0
126143 On ch=1 n=f#4 v=0
126147 On ch=1 n=b4 v=0
126148 On ch=1 n=a2 v=57
126149 On ch=1 n=a3 v=57
126150 On ch=1 n=c5 v=69
126210 On ch=1 n=a2 v=0
126215 On ch=1 n=a3 v=0
126215 On ch=1 n=f#4 v=49
126278 On ch=1 n=d5 v=0
126279 On ch=1 n=f#5 v=0
126281 On ch=1 n=f#4 v=0
126282 On ch=1 n=c3 v=33
126283 On ch=1 n=c4 v=25
126290 On ch=1 n=c5 v=0
126293 On ch=1 n=a#4 v=69
126363 On ch=1 n=f#4 v=29
126368 On ch=1 n=c4 v=0
126368 On ch=1 n=c3 v=0
126369 On ch=1 n=c#5 v=69
126387 On ch=1 n=d5 v=61
126395 On ch=1 n=c#5 v=0
126405 On ch=1 n=e5 v=53
126410 On ch=1 n=d5 v=0
126430 On ch=1 n=f#4 v=0
126437 On ch=1 n=b2 v=57
126439 On ch=1 n=b3 v=53
126439 On ch=1 n=g4 v=53
126442 On ch=1 n=b4 v=65
126444 On ch=1 n=e5 v=0
126444 On ch=1 n=d5 v=73
126447 On ch=1 n=a#4 v=0
126480 On ch=1 n=g4 v=0
126513 On ch=1 n=d3 v=53
126550 On ch=1 n=d3 v=0
126590 On ch=1 n=g4 v=61
126614 On ch=1 n=g4 v=0
126674 On ch=1 n=b2 v=0
126674 On ch=1 n=d3 v=53
126684 On ch=1 n=b3 v=0
126686 On ch=1 n=d3 v=0
126690 On ch=1 n=d5 v=0
126763 On ch=1 n=g4 v=49
126768 On ch=1 n=a#3 v=41
126769 On ch=1 n=a#2 v=53
126847 On ch=1 n=d3 v=37
126862 On ch=1 n=g4 v=0
126869 On ch=1 n=d3 v=0
126977 On ch=1 n=c#5 v=65
126984 On ch=1 n=d3 v=41
127000 On ch=1 n=a#3 v=0
127004 On ch=1 n=d3 v=0
127006 On ch=1 n=a#2 v=0
127012 On ch=1 n=d5 v=57
127022 On ch=1 n=c#5 v=0
127034 On ch=1 n=e5 v=57
127040 On ch=1 n=d5 v=0
127072 On ch=1 n=e5 v=0
127075 On ch=1 n=d5 v=65
127080 On ch=1 n=g2 v=29
127081 On ch=1 n=g3 v=37
127081 On ch=1 n=e4 v=29
127167 On ch=1 n=d3 v=49
127189 On ch=1 n=d3 v=0
127328 On ch=1 n=d3 v=49
127332 On ch=1 n=a#4 v=65
127340 On ch=1 n=d5 v=0
127348 On ch=1 n=g3 v=0
127351 On ch=1 n=d3 v=0
127357 On ch=1 n=g2 v=0
127375 On ch=1 n=b4 v=0
127376 On ch=1 n=e4 v=0
127395 On ch=1 n=a#4 v=0
127443 On ch=1 n=d3 v=61
127553 On ch=1 n=f#4 v=65
127554 On ch=1 n=a4 v=45
127556 On ch=1 n=d4 v=33
127761 On ch=1 n=f#4 v=0
127763 On ch=1 n=d4 v=0
127764 On ch=1 n=a4 v=0
127841 On ch=1 n=f#4 v=53
127842 On ch=1 n=a4 v=53
127842 On ch=1 n=d4 v=29
127862 On ch=1 n=d4 v=0
127863 On ch=1 n=f#4 v=0
127865 On ch=1 n=a4 v=0
127866 On ch=1 n=d3 v=0
127998 On ch=1 n=d3 v=29
128149 On ch=1 n=f#4 v=29
128149 On ch=1 n=d4 v=45
128359 On ch=1 n=d4 v=0
128368 On ch=1 n=f#4 v=0
128463 On ch=1 n=f#4 v=41
128468 On ch=1 n=d4 v=57
128485 On ch=1 n=d4 v=0
128485 On ch=1 n=f#4 v=0
128580 On ch=1 n=d3 v=0
129206 On ch=1 n=a5 v=61
129206 On ch=1 n=d3 v=41
129283 On ch=1 n=f5 v=57
129293 On ch=1 n=a5 v=0
129351 On ch=1 n=d5 v=65
129352 On ch=1 n=d6 v=65
129372 On ch=1 n=f5 v=0
129427 On ch=1 n=d5 v=0
129428 On ch=1 n=a4 v=65
129500 On ch=1 n=e6 v=61
129505 On ch=1 n=d6 v=0
129508 On ch=1 n=d4 v=57
129509 On ch=1 n=g4 v=65
129510 On ch=1 n=a4 v=0
129512 On ch=1 n=d3 v=0
129581 On ch=1 n=g4 v=0
129584 On ch=1 n=a#4 v=69
129653 On ch=1 n=c#5 v=61
129655 On ch=1 n=a#4 v=0
129722 On ch=1 n=c#5 v=0
129723 On ch=1 n=e5 v=45
129801 On ch=1 n=d3 v=73
129801 On ch=1 n=a5 v=69
129806 On ch=1 n=e5 v=0
129806 On ch=1 n=d4 v=0
129875 On ch=1 n=f5 v=57
129877 On ch=1 n=a5 v=0
129948 On ch=1 n=d6 v=69
129952 On ch=1 n=d5 v=69
129957 On ch=1 n=e6 v=0
129982 On ch=1 n=f5 v=0
130025 On ch=1 n=a4 v=61
130028 On ch=1 n=d5 v=0
130099 On ch=1 n=e6 v=61
130104 On ch=1 n=g4 v=57
130104 On ch=1 n=d4 v=37
130105 On ch=1 n=d6 v=0
130109 On ch=1 n=a4 v=0
130110 On ch=1 n=d3 v=0
130175 On ch=1 n=g4 v=0
130178 On ch=1 n=a#4 v=61
130248 On ch=1 n=a#4 v=0
130248 On ch=1 n=c#5 v=57
130318 On ch=1 n=c#5 v=0
130327 On ch=1 n=e5 v=37
130360 On ch=1 n=e6 v=0
130383 On ch=1 n=d4 v=0
130395 On ch=1 n=a5 v=53
130396 On ch=1 n=d3 v=73
130397 On ch=1 n=e5 v=0
130476 On ch=1 n=f5 v=37
130544 On ch=1 n=d3 v=0
130548 On ch=1 n=d6 v=57
130551 On ch=1 n=d5 v=61
130623 On ch=1 n=a4 v=57
130694 On ch=1 n=e6 v=73
130695 On ch=1 n=g4 v=61
130706 On ch=1 n=d6 v=0
130773 On ch=1 n=d4 v=57
130804 On ch=1 n=a5 v=0
130816 On ch=1 n=d5 v=0
130817 On ch=1 n=a4 v=0
130821 On ch=1 n=f5 v=0
130847 On ch=1 n=f6 v=77
130848 On ch=1 n=a#3 v=61
130854 On ch=1 n=e6 v=0
130920 On ch=1 n=g3 v=65
130934 On ch=1 n=a#3 v=0
130942 On ch=1 n=d4 v=0
130962 On ch=1 n=g4 v=0
130995 On ch=1 n=e3 v=61
130996 On ch=1 n=g6 v=81
130999 On ch=1 n=f6 v=0
131004 On ch=1 n=g3 v=0
131070 On ch=1 n=e4 v=65
131147 On ch=1 n=a#4 v=69
131147 On ch=1 n=f6 v=61
131155 On ch=1 n=g6 v=0
131158 On ch=1 n=e3 v=0
131187 On ch=1 n=e4 v=0
131217 On ch=1 n=d5 v=53
131218 On ch=1 n=g6 v=65
131226 On ch=1 n=a#4 v=0
131226 On ch=1 n=f6 v=0
131288 On ch=1 n=f6 v=69
131290 On ch=1 n=a3 v=57
131296 On ch=1 n=g6 v=0
131300 On ch=1 n=d5 v=0
131363 On ch=1 n=a4 v=69
131437 On ch=1 n=c#5 v=61
131440 On ch=1 n=e6 v=61
131444 On ch=1 n=a3 v=0
131447 On ch=1 n=f6 v=0
131457 On ch=1 n=a4 v=0
131511 On ch=1 n=a5 v=53
131530 On ch=1 n=c#5 v=0
131570 On ch=1 n=e6 v=0
131580 On ch=1 n=d3 v=49
131581 On ch=1 n=a#5 v=57
131583 On ch=1 n=d6 v=61
131595 On ch=1 n=a5 v=0
131668 On ch=1 n=g5 v=49
131737 On ch=1 n=e5 v=69
131737 On ch=1 n=g6 v=81
131765 On ch=1 n=d6 v=0
131811 On ch=1 n=c#5 v=65
131875 On ch=1 n=a#5 v=0
131889 On ch=1 n=a6 v=81
131891 On ch=1 n=g5 v=0
131892 On ch=1 n=c5 v=61
131893 On ch=1 n=e5 v=0
131894 On ch=1 n=d4 v=65
131898 On ch=1 n=g6 v=0
131904 On ch=1 n=c#5 v=0
131918 On ch=1 n=d3 v=0
131967 On ch=1 n=d#5 v=61
132023 On ch=1 n=c5 v=0
132046 On ch=1 n=f#5 v=61
132049 On ch=1 n=d#5 v=0
132121 On ch=1 n=a5 v=49
132131 On ch=1 n=f#5 v=0
132192 On ch=1 n=d6 v=57
132195 On ch=1 n=a5 v=0
132195 On ch=1 n=a#5 v=65
132196 On ch=1 n=d3 v=41
132206 On ch=1 n=d4 v=0
132209 On ch=1 n=a6 v=0
132271 On ch=1 n=g5 v=57
132347 On ch=1 n=g6 v=81
132348 On ch=1 n=e5 v=65
132358 On ch=1 n=d6 v=0
132420 On ch=1 n=c#5 v=69
132494 On ch=1 n=d4 v=61
132495 On ch=1 n=c5 v=57
132496 On ch=1 n=a6 v=85
132502 On ch=1 n=g6 v=0
132502 On ch=1 n=e5 v=0
132503 On ch=1 n=g5 v=0
132506 On ch=1 n=c#5 v=0
132516 On ch=1 n=a#5 v=0
132570 On ch=1 n=d#5 v=49
132600 On ch=1 n=d3 v=0
132624 On ch=1 n=c5 v=0
132645 On ch=1 n=f#5 v=61
132651 On ch=1 n=d#5 v=0
132705 On ch=1 n=d4 v=0
132724 On ch=1 n=a5 v=37
132728 On ch=1 n=f#5 v=0
132742 On ch=1 n=a6 v=0
132794 On ch=1 n=d6 v=61
132798 On ch=1 n=a#5 v=61
132800 On ch=1 n=d3 v=53
132805 On ch=1 n=a5 v=0
132875 On ch=1 n=g5 v=61
132878 On ch=1 n=a#5 v=0
132949 On ch=1 n=g5 v=0
132950 On ch=1 n=g6 v=77
132952 On ch=1 n=e5 v=57
133028 On ch=1 n=e5 v=0
133029 On ch=1 n=c#5 v=65
133107 On ch=1 n=a#4 v=69
133108 On ch=1 n=a6 v=73
133111 On ch=1 n=c#5 v=0
133116 On ch=1 n=d6 v=0
133121 On ch=1 n=g6 v=0
133185 On ch=1 n=g4 v=57
133193 On ch=1 n=a#4 v=0
133260 On ch=1 n=g4 v=0
133265 On ch=1 n=a#6 v=77
133265 On ch=1 n=e4 v=57
133273 On ch=1 n=a6 v=0
133334 On ch=1 n=d3 v=0
133346 On ch=1 n=e4 v=0
133347 On ch=1 n=c#4 v=69
133424 On ch=1 n=c7 v=89
133426 On ch=1 n=d3 v=53
133430 On ch=1 n=a3 v=61
133433 On ch=1 n=c#4 v=0
133433 On ch=1 n=a#6 v=0
133506 On ch=1 n=d4 v=61
133584 On ch=1 n=d3 v=0
133585 On ch=1 n=a#6 v=69
133586 On ch=1 n=f#4 v=73
133590 On ch=1 n=a3 v=0
133653 On ch=1 n=d4 v=0
133655 On ch=1 n=a6 v=69
133670 On ch=1 n=f#4 v=0
133670 On ch=1 n=c5 v=61
133735 On ch=1 n=g6 v=65
133745 On ch=1 n=a#6 v=0
133745 On ch=1 n=a6 v=0
133746 On ch=1 n=c7 v=0
133746 On ch=1 n=a#4 v=65
133746 On ch=1 n=d4 v=41
133747 On ch=1 n=c5 v=0
133822 On ch=1 n=d5 v=41
133900 On ch=1 n=e6 v=69
133905 On ch=1 n=g6 v=0
133906 On ch=1 n=g5 v=41
133980 On ch=1 n=a#5 v=69
134015 On ch=1 n=d4 v=0
134025 On ch=1 n=g5 v=0
134026 On ch=1 n=d5 v=0
134027 On ch=1 n=a#4 v=0
134053 On ch=1 n=f#5 v=53
134054 On ch=1 n=e6 v=0
134055 On ch=1 n=a5 v=57
134058 On ch=1 n=a#5 v=0
134058 On ch=1 n=c6 v=69
134059 On ch=1 n=d6 v=73
134137 On ch=1 n=d5 v=61
134153 On ch=1 n=a5 v=0
134213 On ch=1 n=a#5 v=69
134215 On ch=1 n=c5 v=69
134223 On ch=1 n=f#5 v=0
134224 On ch=1 n=d5 v=0
134228 On ch=1 n=c6 v=0
134277 On ch=1 n=c5 v=0
134287 On ch=1 n=d4 v=61
134287 On ch=1 n=a5 v=61
134289 On ch=1 n=a#5 v=0
134296 On ch=1 n=d6 v=0
134340 On ch=1 n=d4 v=0
134361 On ch=1 n=a5 v=0
134365 On ch=1 n=d6 v=57
134366 On ch=1 n=g5 v=53
134374 On ch=1 n=a#4 v=61
134446 On ch=1 n=a#4 v=0
134453 On ch=1 n=d4 v=69
134530 On ch=1 n=c#4 v=73
134534 On ch=1 n=e5 v=45
134546 On ch=1 n=d4 v=0
134546 On ch=1 n=g5 v=0
134613 On ch=1 n=d3 v=57
134669 On ch=1 n=c#4 v=0
134679 On ch=1 n=d6 v=0
134689 On ch=1 n=d5 v=81
134690 On ch=1 n=d6 v=85
134693 On ch=1 n=d4 v=89
134701 On ch=1 n=d3 v=0
134707 On ch=1 n=e5 v=0
134751 On ch=1 n=d5 v=0
134768 On ch=1 n=d4 v=0
134807 On ch=1 n=d6 v=0
134834 On ch=1 n=d6 v=93
134835 On ch=1 n=f6 v=89
134836 On ch=1 n=a#6 v=77
134836 On ch=1 n=d7 v=89
134837 On ch=1 n=a#2 v=105
134837 On ch=1 n=a#3 v=121
134841 On ch=1 n=c7 v=77
134859 On ch=1 n=c7 v=0
134863 On ch=1 n=d6 v=0
134864 On ch=1 n=a#3 v=0
134865 On ch=1 n=d7 v=0
134865 On ch=1 n=a#2 v=0
134868 On ch=1 n=f6 v=0
134871 On ch=1 n=a#6 v=0
134965 On ch=1 n=d6 v=101
134966 On ch=1 n=d7 v=101
134968 On ch=1 n=f6 v=93
134970 On ch=1 n=d4 v=121
134970 On ch=1 n=a#6 v=73
134973 On ch=1 n=d3 v=89
134983 On ch=1 n=d3 v=0
134985 On ch=1 n=d6 v=0
134990 On ch=1 n=d4 v=0
134990 On ch=1 n=a#6 v=0
134992 On ch=1 n=d7 v=0
134993 On ch=1 n=f6 v=0
135089 On ch=1 n=d6 v=105
135091 On ch=1 n=d7 v=101
135092 On ch=1 n=f6 v=101
135093 On ch=1 n=f4 v=121
135093 On ch=1 n=a#6 v=77
135096 On ch=1 n=f3 v=101
135114 On ch=1 n=f3 v=0
135117 On ch=1 n=f4 v=0
135119 On ch=1 n=d6 v=0
135121 On ch=1 n=a#6 v=0
135124 On ch=1 n=f6 v=0
135125 On ch=1 n=d7 v=0
135215 On ch=1 n=a#4 v=121
135216 On ch=1 n=a#3 v=113
135219 On ch=1 n=a#6 v=81
135219 On ch=1 n=f6 v=81
135219 On ch=1 n=d6 v=105
135221 On ch=1 n=d7 v=101
135240 On ch=1 n=a#6 v=0
135244 On ch=1 n=a#4 v=0
135256 On ch=1 n=a#3 v=0
135347 On ch=1 n=a#2 v=93
135348 On ch=1 n=a#3 v=101
135375 On ch=1 n=a6 v=81
135399 On ch=1 n=d6 v=0
135400 On ch=1 n=a#6 v=77
135404 On ch=1 n=f6 v=0
135428 On ch=1 n=c7 v=81
135432 On ch=1 n=a#6 v=0
135457 On ch=1 n=d7 v=0
135457 On ch=1 n=a6 v=0
135463 On ch=1 n=d#3 v=101
135464 On ch=1 n=d#4 v=105
135464 On ch=1 n=a#6 v=85
135466 On ch=1 n=a#5 v=105
135470 On ch=1 n=f#6 v=73
135481 On ch=1 n=d#4 v=0
135483 On ch=1 n=d#3 v=0
135490 On ch=1 n=f#6 v=0
135494 On ch=1 n=a#6 v=0
135523 On ch=1 n=c7 v=0
135552 On ch=1 n=a#2 v=0
135562 On ch=1 n=a#3 v=0
135592 On ch=1 n=d#3 v=113
135620 On ch=1 n=d#3 v=0
135650 On ch=1 n=f#5 v=89
135652 On ch=1 n=d#6 v=77
135654 On ch=1 n=f#6 v=81
135669 On ch=1 n=f#5 v=0
135680 On ch=1 n=f#6 v=0
135681 On ch=1 n=d#6 v=0
135691 On ch=1 n=a#5 v=0
135710 On ch=1 n=f5 v=93
135711 On ch=1 n=f6 v=85
135711 On ch=1 n=d6 v=81
135712 On ch=1 n=a#4 v=101
135712 On ch=1 n=a#3 v=105
135760 On ch=1 n=a#4 v=0
135770 On ch=1 n=a#3 v=0
135838 On ch=1 n=a#2 v=93
135839 On ch=1 n=a#3 v=105
135898 On ch=1 n=a#6 v=85
135954 On ch=1 n=f5 v=0
135958 On ch=1 n=f#6 v=101
135959 On ch=1 n=a5 v=101
135964 On ch=1 n=d6 v=0
135969 On ch=1 n=a#6 v=0
135976 On ch=1 n=f6 v=0
136017 On ch=1 n=d#5 v=73
136018 On ch=1 n=d#4 v=81
136080 On ch=1 n=a#3 v=0
136081 On ch=1 n=a#2 v=0
136082 On ch=1 n=c5 v=69
136136 On ch=1 n=d#6 v=81
136137 On ch=1 n=c6 v=69
136142 On ch=1 n=a4 v=57
136182 On ch=1 n=d#5 v=0
136183 On ch=1 n=a5 v=0
136186 On ch=1 n=c5 v=0
136187 On ch=1 n=d#4 v=0
136189 On ch=1 n=f#6 v=0
136198 On ch=1 n=f5 v=89
136198 On ch=1 n=d6 v=85
136204 On ch=1 n=a4 v=0
136213 On ch=1 n=c6 v=0
136214 On ch=1 n=d#6 v=0
136254 On ch=1 n=a#4 v=77
136256 On ch=1 n=a#3 v=73
136313 On ch=1 n=f4 v=77
136373 On ch=1 n=a#5 v=89
136374 On ch=1 n=d4 v=81
136388 On ch=1 n=f4 v=0
136419 On ch=1 n=a#3 v=0
136424 On ch=1 n=a#4 v=0
136428 On ch=1 n=f5 v=0
136429 On ch=1 n=d4 v=0
136430 On ch=1 n=d6 v=0
136432 On ch=1 n=a#5 v=0
136437 On ch=1 n=f#5 v=73
136438 On ch=1 n=a4 v=65
136488 On ch=1 n=d#3 v=69
136490 On ch=1 n=d#4 v=69
136551 On ch=1 n=c4 v=69
136601 On ch=1 n=d#4 v=0
136602 On ch=1 n=d#3 v=0
136604 On ch=1 n=d#5 v=69
136605 On ch=1 n=c5 v=61
136606 On ch=1 n=f#5 v=0
136609 On ch=1 n=a3 v=69
136612 On ch=1 n=c4 v=0
136612 On ch=1 n=a4 v=0
136617 On ch=1 n=a3 v=0
136665 On ch=1 n=a#2 v=73
136667 On ch=1 n=d#5 v=0
136668 On ch=1 n=c5 v=0
136729 On ch=1 n=a#4 v=73
136769 On ch=1 n=a#2 v=0
136789 On ch=1 n=a#4 v=0
136792 On ch=1 n=c#4 v=69
136792 On ch=1 n=c#5 v=73
136793 On ch=1 n=f#4 v=57
136794 On ch=1 n=a#3 v=29
136794 On ch=1 n=f#5 v=73
136794 On ch=1 n=a#5 v=73
136853 On ch=1 n=c#4 v=0
136854 On ch=1 n=a#4 v=73
136858 On ch=1 n=a#3 v=0
136860 On ch=1 n=f#4 v=0
136872 On ch=1 n=f#5 v=0
136872 On ch=1 n=c#5 v=0
136877 On ch=1 n=a#5 v=0
136905 On ch=1 n=a#4 v=0
136913 On ch=1 n=c#5 v=73
136914 On ch=1 n=a#5 v=73
136914 On ch=1 n=f#5 v=69
136914 On ch=1 n=a#3 v=45
136915 On ch=1 n=c#4 v=73
136916 On ch=1 n=f#4 v=69
136958 On ch=1 n=c#4 v=0
136960 On ch=1 n=a#3 v=0
136961 On ch=1 n=f#4 v=0
136973 On ch=1 n=a#4 v=85
136979 On ch=1 n=f#5 v=0
136980 On ch=1 n=c#5 v=0
136983 On ch=1 n=a#5 v=0
137027 On ch=1 n=a#4 v=0
137031 On ch=1 n=a#3 v=29
137032 On ch=1 n=c#4 v=69
137033 On ch=1 n=f#4 v=65
137038 On ch=1 n=f#5 v=73
137039 On ch=1 n=c#5 v=73
137039 On ch=1 n=a#5 v=73
137070 On ch=1 n=f#4 v=0
137073 On ch=1 n=c#4 v=0
137076 On ch=1 n=a#3 v=0
137084 On ch=1 n=f#5 v=0
137085 On ch=1 n=c#5 v=0
137089 On ch=1 n=a#5 v=0
137090 On ch=1 n=a#4 v=81
137135 On ch=1 n=a#4 v=0
137150 On ch=1 n=c#4 v=73
137151 On ch=1 n=a#3 v=33
137152 On ch=1 n=f#4 v=65
137157 On ch=1 n=c#5 v=81
137158 On ch=1 n=f#5 v=73
137159 On ch=1 n=a#5 v=81
137221 On ch=1 n=a#4 v=77
137270 On ch=1 n=a#3 v=0
137274 On ch=1 n=c#4 v=0
137275 On ch=1 n=a#2 v=49
137275 On ch=1 n=f#3 v=41
137277 On ch=1 n=c#3 v=65
137282 On ch=1 n=f#4 v=0
137331 On ch=1 n=c#3 v=0
137331 On ch=1 n=a#2 v=0
137334 On ch=1 n=f#3 v=0
137336 On ch=1 n=a#3 v=73
137337 On ch=1 n=a#4 v=0
137338 On ch=1 n=a#4 v=69
137391 On ch=1 n=a#3 v=0
137392 On ch=1 n=f#3 v=45
137392 On ch=1 n=a#2 v=61
137397 On ch=1 n=c#3 v=69
137398 On ch=1 n=a#4 v=0
137456 On ch=1 n=a#2 v=0
137456 On ch=1 n=c#3 v=0
137457 On ch=1 n=f#3 v=0
137458 On ch=1 n=a#4 v=69
137459 On ch=1 n=b3 v=69
137461 On ch=1 n=b4 v=73
137507 On ch=1 n=b3 v=0
137511 On ch=1 n=b4 v=0
137511 On ch=1 n=f#3 v=73
137512 On ch=1 n=a#2 v=69
137515 On ch=1 n=a#4 v=0
137515 On ch=1 n=c#3 v=65
137573 On ch=1 n=c#3 v=0
137573 On ch=1 n=a#2 v=0
137574 On ch=1 n=f#3 v=0
137575 On ch=1 n=a#4 v=81
137576 On ch=1 n=c4 v=73
137576 On ch=1 n=c5 v=69
137579 On ch=1 n=f#5 v=0
137579 On ch=1 n=c#5 v=0
137583 On ch=1 n=a#5 v=0
137630 On ch=1 n=f#3 v=81
137631 On ch=1 n=a#2 v=73
137632 On ch=1 n=c4 v=0
137633 On ch=1 n=a#4 v=0
137634 On ch=1 n=c5 v=0
137635 On ch=1 n=c#3 v=73
137692 On ch=1 n=c#4 v=81
137693 On ch=1 n=a#4 v=73
137694 On ch=1 n=c#5 v=69
137703 On ch=1 n=c#3 v=0
137704 On ch=1 n=a#2 v=0
137704 On ch=1 n=f#3 v=0
137748 On ch=1 n=f#4 v=69
137752 On ch=1 n=c#4 v=0
137753 On ch=1 n=a#3 v=73
137753 On ch=1 n=c#4 v=65
137783 On ch=1 n=c#4 v=0
137787 On ch=1 n=a#4 v=0
137791 On ch=1 n=c#5 v=0
137811 On ch=1 n=a#4 v=77
137812 On ch=1 n=a#3 v=0
137813 On ch=1 n=f#5 v=69
137816 On ch=1 n=a#5 v=65
137819 On ch=1 n=f#4 v=0
137868 On ch=1 n=f#4 v=77
137869 On ch=1 n=a#3 v=81
137874 On ch=1 n=c#4 v=81
137882 On ch=1 n=a#4 v=0
137885 On ch=1 n=f#5 v=0
137901 On ch=1 n=a#5 v=0
137928 On ch=1 n=f#5 v=73
137929 On ch=1 n=a#5 v=81
137931 On ch=1 n=b4 v=69
137943 On ch=1 n=a#3 v=0
137946 On ch=1 n=c#4 v=0
137958 On ch=1 n=f#4 v=0
137983 On ch=1 n=f#4 v=81
137986 On ch=1 n=a#3 v=81
137988 On ch=1 n=c#4 v=69
138013 On ch=1 n=b4 v=0
138023 On ch=1 n=a#5 v=0
138025 On ch=1 n=f#5 v=0
138045 On ch=1 n=c5 v=73
138045 On ch=1 n=a#5 v=81
138046 On ch=1 n=f#5 v=69
138066 On ch=1 n=c#4 v=0
138067 On ch=1 n=a#3 v=0
138071 On ch=1 n=f#4 v=0
138103 On ch=1 n=f#4 v=85
138104 On ch=1 n=a#3 v=77
138105 On ch=1 n=c#4 v=73
138121 On ch=1 n=c5 v=0
138126 On ch=1 n=a#5 v=0
138128 On ch=1 n=f#5 v=0
138164 On ch=1 n=c#5 v=73
138165 On ch=1 n=f#5 v=69
138165 On ch=1 n=a#5 v=65
138188 On ch=1 n=a#3 v=0
138189 On ch=1 n=f#4 v=0
138190 On ch=1 n=c#4 v=0
138229 On ch=1 n=a#2 v=69
138230 On ch=1 n=a#3 v=53
138238 On ch=1 n=c#3 v=53
138279 On ch=1 n=c#3 v=0
138279 On ch=1 n=a#2 v=0
138280 On ch=1 n=a#4 v=81
138282 On ch=1 n=c4 v=81
138283 On ch=1 n=a#3 v=0
138286 On ch=1 n=c5 v=69
138301 On ch=1 n=c#5 v=0
138304 On ch=1 n=f#5 v=0
138308 On ch=1 n=a#5 v=0
138347 On ch=1 n=a#3 v=77
138348 On ch=1 n=a#2 v=73
138352 On ch=1 n=c#3 v=69
138354 On ch=1 n=c4 v=0
138363 On ch=1 n=c5 v=0
138384 On ch=1 n=a#4 v=0
138400 On ch=1 n=a#2 v=0
138402 On ch=1 n=c#5 v=81
138403 On ch=1 n=c#3 v=0
138404 On ch=1 n=a#4 v=81
138406 On ch=1 n=c#4 v=89
138415 On ch=1 n=a#3 v=0
138459 On ch=1 n=c#4 v=0
138461 On ch=1 n=a#3 v=85
138463 On ch=1 n=c#3 v=69
138463 On ch=1 n=a#2 v=73
138479 On ch=1 n=a#4 v=0
138480 On ch=1 n=c#5 v=0
138500 On ch=1 n=a#2 v=0
138504 On ch=1 n=a#3 v=0
138504 On ch=1 n=c#3 v=0
138521 On ch=1 n=a#4 v=101
138524 On ch=1 n=d4 v=101
138526 On ch=1 n=d5 v=81
138573 On ch=1 n=d4 v=0
138577 On ch=1 n=a#3 v=101
138577 On ch=1 n=c#3 v=81
138579 On ch=1 n=a#2 v=81
138589 On ch=1 n=d5 v=0
138592 On ch=1 n=a#4 v=0
138616 On ch=1 n=a#2 v=0
138621 On ch=1 n=a#3 v=0
138622 On ch=1 n=c#3 v=0
138643 On ch=1 n=a#4 v=89
138644 On ch=1 n=d#5 v=85
138646 On ch=1 n=d#4 v=105
138707 On ch=1 n=a#4 v=0
138707 On ch=1 n=a#4 v=81
138708 On ch=1 n=a#3 v=81
138710 On ch=1 n=f#4 v=73
138746 On ch=1 n=a#3 v=0
138750 On ch=1 n=a#4 v=0
138750 On ch=1 n=f#4 v=0
138762 On ch=1 n=d5 v=73
138763 On ch=1 n=a#5 v=81
138763 On ch=1 n=f#5 v=73
138808 On ch=1 n=d5 v=0
138812 On ch=1 n=a#5 v=0
138812 On ch=1 n=f#5 v=0
138813 On ch=1 n=d#4 v=0
138821 On ch=1 n=a#4 v=101
138822 On ch=1 n=a#3 v=93
138823 On ch=1 n=f#4 v=81
138832 On ch=1 n=d#5 v=0
138858 On ch=1 n=a#3 v=0
138861 On ch=1 n=a#4 v=0
138861 On ch=1 n=f#4 v=0
138877 On ch=1 n=d#5 v=89
138878 On ch=1 n=a#5 v=81
138930 On ch=1 n=a#2 v=81
138932 On ch=1 n=g3 v=81
138932 On ch=1 n=g2 v=85
138968 On ch=1 n=g2 v=0
138969 On ch=1 n=g3 v=0
138972 On ch=1 n=a#2 v=0
138973 On ch=1 n=d#5 v=0
138983 On ch=1 n=a#5 v=0
138995 On ch=1 n=d#4 v=89
138996 On ch=1 n=a#4 v=81
138996 On ch=1 n=d#5 v=81
139050 On ch=1 n=a#4 v=0
139051 On ch=1 n=d#4 v=0
139051 On ch=1 n=f#3 v=89
139053 On ch=1 n=f#2 v=85
139055 On ch=1 n=d#5 v=0
139057 On ch=1 n=a#2 v=81
139114 On ch=1 n=a#4 v=89
139115 On ch=1 n=e5 v=81
139116 On ch=1 n=e4 v=81
139125 On ch=1 n=a#2 v=0
139126 On ch=1 n=f#3 v=0
139126 On ch=1 n=f#2 v=0
139170 On ch=1 n=a#4 v=0
139170 On ch=1 n=a#3 v=81
139171 On ch=1 n=a#4 v=73
139171 On ch=1 n=f#4 v=69
139224 On ch=1 n=a#3 v=0
139228 On ch=1 n=a#4 v=0
139228 On ch=1 n=e4 v=0
139230 On ch=1 n=f#4 v=0
139231 On ch=1 n=d#5 v=73
139232 On ch=1 n=a#5 v=81
139239 On ch=1 n=e5 v=0
139287 On ch=1 n=d#5 v=0
139287 On ch=1 n=a#4 v=89
139288 On ch=1 n=f#4 v=77
139289 On ch=1 n=a#3 v=81
139293 On ch=1 n=a#5 v=0
139346 On ch=1 n=a#5 v=85
139349 On ch=1 n=e5 v=73
139370 On ch=1 n=a#5 v=0
139384 On ch=1 n=a#3 v=0
139389 On ch=1 n=f#4 v=0
139390 On ch=1 n=a#4 v=0
139404 On ch=1 n=a#6 v=81
139406 On ch=1 n=a#5 v=101
139406 On ch=1 n=e4 v=101
139407 On ch=1 n=g3 v=89
139408 On ch=1 n=a#3 v=101
139409 On ch=1 n=e6 v=81
139419 On ch=1 n=e4 v=0
139419 On ch=1 n=a#5 v=0
139421 On ch=1 n=a#3 v=0
139422 On ch=1 n=g3 v=0
139424 On ch=1 n=e6 v=0
139424 On ch=1 n=a#6 v=0
139463 On ch=1 n=e5 v=0
139501 On ch=1 n=c#3 v=81
139508 On ch=1 n=a#3 v=93
139518 On ch=1 n=f4 v=105
139520 On ch=1 n=a#7 v=105
139520 On ch=1 n=c#7 v=101
139521 On ch=1 n=a#6 v=89
139531 On ch=1 n=c#3 v=0
139540 On ch=1 n=a#3 v=0
139556 On ch=1 n=a#6 v=0
139571 On ch=1 n=a#7 v=0
139571 On ch=1 n=c#7 v=0
139600 On ch=1 n=f4 v=0
139696 On ch=1 n=e7 v=65
139710 On ch=1 n=f7 v=85
139726 On ch=1 n=f#7 v=101
139728 On ch=1 n=e7 v=0
139739 On ch=1 n=f7 v=0
139748 On ch=1 n=f#7 v=0
139752 On ch=1 n=f5 v=105
139754 On ch=1 n=f6 v=101
139755 On ch=1 n=c7 v=93
139757 On ch=1 n=a6 v=77
139759 On ch=1 n=f7 v=105
139919 On ch=1 n=f5 v=0
139924 On ch=1 n=f6 v=0
139947 On ch=1 n=c6 v=65
139962 On ch=1 n=f7 v=0
139963 On ch=1 n=c7 v=0
139964 On ch=1 n=c#6 v=73
139970 On ch=1 n=a6 v=0
139982 On ch=1 n=c6 v=0
139983 On ch=1 n=d#6 v=89
139993 On ch=1 n=c#6 v=0
140003 On ch=1 n=a#5 v=101
140003 On ch=1 n=c#5 v=81
140004 On ch=1 n=a#4 v=105
140009 On ch=1 n=d#6 v=0
140196 On ch=1 n=e5 v=57
140206 On ch=1 n=c#5 v=0
140210 On ch=1 n=f5 v=73
140213 On ch=1 n=a#4 v=0
140214 On ch=1 n=a#5 v=0
140229 On ch=1 n=f#5 v=85
140230 On ch=1 n=e5 v=0
140239 On ch=1 n=f5 v=0
140255 On ch=1 n=c5 v=93
140257 On ch=1 n=a4 v=101
140257 On ch=1 n=f5 v=81
140259 On ch=1 n=f3 v=101
140259 On ch=1 n=f4 v=105
140284 On ch=1 n=f#5 v=0
140439 On ch=1 n=a4 v=0
140444 On ch=1 n=c4 v=73
140448 On ch=1 n=c5 v=0
140448 On ch=1 n=f3 v=0
140450 On ch=1 n=f4 v=0
140451 On ch=1 n=f5 v=0
140465 On ch=1 n=c#4 v=85
140489 On ch=1 n=c4 v=0
140489 On ch=1 n=d#4 v=105
140503 On ch=1 n=c#4 v=0
140512 On ch=1 n=c#8 v=93
140513 On ch=1 n=c#7 v=113
140513 On ch=1 n=f7 v=101
140519 On ch=1 n=d#4 v=0
140520 On ch=1 n=c#3 v=121
140520 On ch=1 n=c#4 v=125
140684 On ch=1 n=c#7 v=0
140686 On ch=1 n=c#8 v=0
140689 On ch=1 n=f7 v=0
140697 On ch=1 n=c#4 v=0
140700 On ch=1 n=c#3 v=0
140702 On ch=1 n=g7 v=77
140724 On ch=1 n=g#7 v=77
140739 On ch=1 n=g7 v=0
140741 On ch=1 n=a7 v=81
140750 On ch=1 n=g#7 v=0
140772 On ch=1 n=g#7 v=113
140773 On ch=1 n=c7 v=113
140773 On ch=1 n=g#5 v=89
140774 On ch=1 n=g#6 v=105
140776 On ch=1 n=d#7 v=113
140784 On ch=1 n=a7 v=0
140963 On ch=1 n=c7 v=0
140965 On ch=1 n=g#6 v=0
140967 On ch=1 n=g#7 v=0
140968 On ch=1 n=g#5 v=0
140970 On ch=1 n=d#7 v=0
140977 On ch=1 n=e6 v=61
140992 On ch=1 n=f6 v=77
140999 On ch=1 n=e6 v=0
141006 On ch=1 n=f#6 v=69
141013 On ch=1 n=f6 v=0
141028 On ch=1 n=f6 v=101
141028 On ch=1 n=c#6 v=89
141029 On ch=1 n=c#5 v=89
141030 On ch=1 n=f5 v=93
141063 On ch=1 n=f#6 v=0
141222 On ch=1 n=g5 v=61
141242 On ch=1 n=g#5 v=73
141261 On ch=1 n=g5 v=0
141262 On ch=1 n=f5 v=0
141262 On ch=1 n=a5 v=81
141263 On ch=1 n=c#6 v=0
141267 On ch=1 n=f6 v=0
141268 On ch=1 n=c#5 v=0
141271 On ch=1 n=g#5 v=0
141287 On ch=1 n=g#3 v=113
141288 On ch=1 n=c5 v=101
141288 On ch=1 n=g#4 v=113
141289 On ch=1 n=d#5 v=105
141290 On ch=1 n=g#5 v=81
141296 On ch=1 n=a5 v=0
141486 On ch=1 n=e4 v=61
141492 On ch=1 n=g#4 v=0
141493 On ch=1 n=c5 v=0
141496 On ch=1 n=d#5 v=0
141502 On ch=1 n=g#3 v=0
141502 On ch=1 n=g#5 v=0
141504 On ch=1 n=f4 v=81
141522 On ch=1 n=f#4 v=93
141523 On ch=1 n=e4 v=0
141531 On ch=1 n=f4 v=0
141549 On ch=1 n=f#4 v=0
141550 On ch=1 n=f3 v=93
141551 On ch=1 n=f4 v=105
141555 On ch=1 n=f6 v=89
141556 On ch=1 n=f7 v=101
141572 On ch=1 n=f4 v=0
141572 On ch=1 n=f3 v=0
141679 On ch=1 n=f2 v=105
141680 On ch=1 n=f3 v=113
141701 On ch=1 n=f3 v=0
141705 On ch=1 n=f2 v=0
141728 On ch=1 n=e5 v=81
141748 On ch=1 n=f7 v=0
141752 On ch=1 n=f5 v=85
141758 On ch=1 n=f6 v=0
141770 On ch=1 n=f#5 v=89
141779 On ch=1 n=e5 v=0
141780 On ch=1 n=f5 v=0
141797 On ch=1 n=f#5 v=0
141803 On ch=1 n=f4 v=93
141804 On ch=1 n=f5 v=89
141812 On ch=1 n=f#2 v=105
141812 On ch=1 n=f#3 v=121
141826 On ch=1 n=f#2 v=0
141827 On ch=1 n=f#3 v=0
141935 On ch=1 n=f#4 v=113
141935 On ch=1 n=f#3 v=105
141943 On ch=1 n=f5 v=0
141944 On ch=1 n=f4 v=0
141992 On ch=1 n=f6 v=93
141994 On ch=1 n=f7 v=101
142059 On ch=1 n=g4 v=93
142059 On ch=1 n=g3 v=93
142065 On ch=1 n=f#4 v=0
142067 On ch=1 n=f7 v=0
142071 On ch=1 n=f#3 v=0
142077 On ch=1 n=f6 v=0
142084 On ch=1 n=g4 v=0
142093 On ch=1 n=g3 v=0
142191 On ch=1 n=g3 v=101
142193 On ch=1 n=g2 v=101
142203 On ch=1 n=g2 v=0
142205 On ch=1 n=g3 v=0
142227 On ch=1 n=e5 v=69
142253 On ch=1 n=f5 v=77
142261 On ch=1 n=e5 v=0
142276 On ch=1 n=f#5 v=77
142282 On ch=1 n=f5 v=0
142305 On ch=1 n=f4 v=85
142305 On ch=1 n=f5 v=85
142310 On ch=1 n=f#5 v=0
142310 On ch=1 n=g#2 v=105
142311 On ch=1 n=g#3 v=121
142322 On ch=1 n=g#3 v=0
142322 On ch=1 n=g#2 v=0
142429 On ch=1 n=g#3 v=101
142429 On ch=1 n=g#4 v=105
142483 On ch=1 n=f6 v=89
142485 On ch=1 n=c#7 v=93
142486 On ch=1 n=f7 v=85
142491 On ch=1 n=f4 v=0
142496 On ch=1 n=f5 v=0
142549 On ch=1 n=a3 v=101
142550 On ch=1 n=c#4 v=93
142550 On ch=1 n=a4 v=85
142564 On ch=1 n=c#7 v=0
142565 On ch=1 n=f7 v=0
142565 On ch=1 n=f6 v=0
142569 On ch=1 n=g#4 v=0
142577 On ch=1 n=g#3 v=0
142649 On ch=1 n=a3 v=0
142654 On ch=1 n=a4 v=0
142665 On ch=1 n=c#4 v=0
142680 On ch=1 n=a2 v=85
142680 On ch=1 n=a3 v=85
142681 On ch=1 n=c#3 v=73
142711 On ch=1 n=a3 v=0
142711 On ch=1 n=a2 v=0
142712 On ch=1 n=c#3 v=0
142746 On ch=1 n=f#7 v=101
142746 On ch=1 n=f#6 v=93
142747 On ch=1 n=c#7 v=93
142802 On ch=1 n=a#3 v=105
142805 On ch=1 n=a#4 v=101
142805 On ch=1 n=c#4 v=85
142839 On ch=1 n=f#6 v=0
142843 On ch=1 n=f#7 v=0
142843 On ch=1 n=c#7 v=0
142906 On ch=1 n=a#3 v=0
142920 On ch=1 n=c#4 v=0
142928 On ch=1 n=a#4 v=0
142930 On ch=1 n=c#3 v=77
142931 On ch=1 n=a#3 v=81
142935 On ch=1 n=a#2 v=81
142994 On ch=1 n=f#7 v=89
142994 On ch=1 n=f#6 v=85
142996 On ch=1 n=d7 v=85
143051 On ch=1 n=b4 v=89
143053 On ch=1 n=b3 v=89
143055 On ch=1 n=d4 v=101
143082 On ch=1 n=a#3 v=0
143082 On ch=1 n=c#3 v=0
143084 On ch=1 n=a#2 v=0
143093 On ch=1 n=b3 v=0
143101 On ch=1 n=d4 v=0
143109 On ch=1 n=b4 v=0
143123 On ch=1 n=f#6 v=0
143124 On ch=1 n=d7 v=0
143126 On ch=1 n=f#7 v=0
143174 On ch=1 n=b2 v=81
143176 On ch=1 n=b3 v=85
143182 On ch=1 n=d3 v=89
143196 On ch=1 n=b2 v=0
143199 On ch=1 n=d3 v=0
143199 On ch=1 n=b3 v=0
143219 On ch=1 n=f5 v=73
143242 On ch=1 n=f#5 v=81
143252 On ch=1 n=f5 v=0
143266 On ch=1 n=g#5 v=81
143272 On ch=1 n=f#5 v=0
143296 On ch=1 n=f#5 v=101
143297 On ch=1 n=f#4 v=101
143303 On ch=1 n=g#5 v=0
143305 On ch=1 n=c4 v=93
143307 On ch=1 n=c3 v=81
143308 On ch=1 n=d#3 v=77
143349 On ch=1 n=c4 v=0
143357 On ch=1 n=d#3 v=0
143360 On ch=1 n=c3 v=0
143429 On ch=1 n=c5 v=81
143430 On ch=1 n=d#4 v=93
143431 On ch=1 n=c4 v=81
143489 On ch=1 n=f#6 v=85
143489 On ch=1 n=e7 v=81
143490 On ch=1 n=f#7 v=89
143495 On ch=1 n=f#5 v=0
143496 On ch=1 n=f#4 v=0
143520 On ch=1 n=c4 v=0
143530 On ch=1 n=d#4 v=0
143532 On ch=1 n=c5 v=0
143547 On ch=1 n=c#5 v=77
143548 On ch=1 n=c#4 v=77
143549 On ch=1 n=e4 v=81
143557 On ch=1 n=f#7 v=0
143560 On ch=1 n=e7 v=0
143560 On ch=1 n=f#6 v=0
143617 On ch=1 n=c#4 v=0
143627 On ch=1 n=e4 v=0
143628 On ch=1 n=c#5 v=0
143667 On ch=1 n=c#3 v=81
143668 On ch=1 n=c#4 v=89
143674 On ch=1 n=e3 v=85
143696 On ch=1 n=c#3 v=0
143703 On ch=1 n=e3 v=0
143704 On ch=1 n=c#4 v=0
143716 On ch=1 n=f5 v=73
143735 On ch=1 n=f#5 v=77
143745 On ch=1 n=f5 v=0
143755 On ch=1 n=g#5 v=81
143771 On ch=1 n=f#5 v=0
143790 On ch=1 n=f#5 v=81
143790 On ch=1 n=f#4 v=93
143795 On ch=1 n=g#5 v=0
143800 On ch=1 n=d4 v=89
143800 On ch=1 n=f3 v=81
143802 On ch=1 n=d3 v=81
143898 On ch=1 n=d4 v=0
143900 On ch=1 n=d3 v=0
143910 On ch=1 n=f3 v=0
143913 On ch=1 n=d5 v=69
143915 On ch=1 n=f4 v=65
143917 On ch=1 n=d4 v=81
143971 On ch=1 n=f#5 v=0
143973 On ch=1 n=b6 v=77
143973 On ch=1 n=f#6 v=85
143974 On ch=1 n=f#7 v=89
143975 On ch=1 n=f#4 v=0
144035 On ch=1 n=d#4 v=89
144036 On ch=1 n=f#4 v=85
144036 On ch=1 n=b4 v=77
144037 On ch=1 n=d#5 v=69
144042 On ch=1 n=d4 v=0
144046 On ch=1 n=f4 v=0
144048 On ch=1 n=d5 v=0
144053 On ch=1 n=f#6 v=0
144057 On ch=1 n=f#7 v=0
144058 On ch=1 n=b6 v=0
144086 On ch=1 n=d#4 v=0
144103 On ch=1 n=d#5 v=0
144103 On ch=1 n=f#4 v=0
144107 On ch=1 n=b4 v=0
144162 On ch=1 n=d#4 v=93
144164 On ch=1 n=d#3 v=93
144183 On ch=1 n=d#4 v=0
144188 On ch=1 n=d#3 v=0
144225 On ch=1 n=g7 v=85
144226 On ch=1 n=e7 v=89
144226 On ch=1 n=a#6 v=73
144227 On ch=1 n=g6 v=73
144289 On ch=1 n=c#4 v=101
144291 On ch=1 n=a#4 v=81
144293 On ch=1 n=e4 v=81
144295 On ch=1 n=c#5 v=73
144353 On ch=1 n=c#4 v=0
144362 On ch=1 n=e4 v=0
144368 On ch=1 n=c#5 v=0
144370 On ch=1 n=a#4 v=0
144403 On ch=1 n=g6 v=0
144404 On ch=1 n=a#6 v=0
144406 On ch=1 n=e7 v=0
144407 On ch=1 n=g7 v=0
144419 On ch=1 n=c#3 v=93
144421 On ch=1 n=c#4 v=105
144443 On ch=1 n=c#4 v=0
144448 On ch=1 n=c#3 v=0
144477 On ch=1 n=f7 v=101
144478 On ch=1 n=a7 v=85
144479 On ch=1 n=c7 v=81
144479 On ch=1 n=a6 v=73
144544 On ch=1 n=f4 v=93
144545 On ch=1 n=a4 v=81
144546 On ch=1 n=c4 v=101
144549 On ch=1 n=c5 v=81
144553 On ch=1 n=a#4 v=69
144590 On ch=1 n=c4 v=0
144601 On ch=1 n=a#4 v=0
144601 On ch=1 n=f4 v=0
144607 On ch=1 n=a4 v=0
144614 On ch=1 n=c5 v=0
144657 On ch=1 n=f7 v=0
144660 On ch=1 n=a6 v=0
144661 On ch=1 n=c7 v=0
144662 On ch=1 n=a7 v=0
144673 On ch=1 n=c3 v=101
144673 On ch=1 n=c4 v=113
144688 On ch=1 n=c4 v=0
144698 On ch=1 n=c3 v=0
144734 On ch=1 n=a7 v=101
144736 On ch=1 n=c8 v=81
144737 On ch=1 n=c7 v=81
144737 On ch=1 n=f7 v=89
144799 On ch=1 n=a3 v=89
144801 On ch=1 n=c4 v=89
144802 On ch=1 n=a4 v=81
144806 On ch=1 n=f4 v=81
144857 On ch=1 n=a3 v=0
144865 On ch=1 n=c4 v=0
144872 On ch=1 n=a4 v=0
144877 On ch=1 n=f4 v=0
144895 On ch=1 n=a7 v=0
144895 On ch=1 n=f7 v=0
144897 On ch=1 n=c8 v=0
144903 On ch=1 n=c7 v=0
144922 On ch=1 n=a2 v=101
144923 On ch=1 n=a3 v=105
144941 On ch=1 n=a3 v=0
144948 On ch=1 n=a2 v=0
144976 On ch=1 n=f8 v=105
144977 On ch=1 n=a7 v=101
144977 On ch=1 n=f7 v=113
144981 On ch=1 n=d#8 v=65
144988 On ch=1 n=d#8 v=0
145061 On ch=1 n=f2 v=125
145062 On ch=1 n=f3 v=121
145248 On ch=1 n=c8 v=69
145263 On ch=1 n=c#8 v=81
145278 On ch=1 n=c8 v=0
145286 On ch=1 n=d#8 v=89
145291 On ch=1 n=c#8 v=0
145292 On ch=1 n=f8 v=0
145308 On ch=1 n=c#6 v=85
145308 On ch=1 n=c#8 v=121
145309 On ch=1 n=a7 v=0
145310 On ch=1 n=c#7 v=121
145312 On ch=1 n=f7 v=0
145312 On ch=1 n=e7 v=101
145320 On ch=1 n=d#8 v=0
145467 On ch=1 n=f3 v=0
145469 On ch=1 n=c#6 v=0
145474 On ch=1 n=f2 v=0
145481 On ch=1 n=c#7 v=0
145509 On ch=1 n=e7 v=0
145514 On ch=1 n=e6 v=69
145525 On ch=1 n=c#8 v=0
145531 On ch=1 n=f6 v=73
145545 On ch=1 n=e6 v=0
145554 On ch=1 n=g6 v=69
145559 On ch=1 n=f6 v=0
145576 On ch=1 n=f6 v=93
145577 On ch=1 n=f5 v=85
145578 On ch=1 n=f4 v=89
145580 On ch=1 n=a4 v=85
145590 On ch=1 n=g6 v=0
145779 On ch=1 n=c6 v=61
145800 On ch=1 n=c#6 v=65
145810 On ch=1 n=f6 v=0
145814 On ch=1 n=f4 v=0
145817 On ch=1 n=f5 v=0
145820 On ch=1 n=d#6 v=81
145822 On ch=1 n=a4 v=0
145823 On ch=1 n=c6 v=0
145828 On ch=1 n=c#6 v=0
145847 On ch=1 n=c#6 v=85
145850 On ch=1 n=e5 v=81
145852 On ch=1 n=a#3 v=93
145852 On ch=1 n=a#4 v=89
145857 On ch=1 n=d#6 v=0
146042 On ch=1 n=e4 v=73
146045 On ch=1 n=a#4 v=0
146047 On ch=1 n=e5 v=0
146051 On ch=1 n=a#3 v=0
146054 On ch=1 n=c#6 v=0
146064 On ch=1 n=f4 v=81
146070 On ch=1 n=e4 v=0
146088 On ch=1 n=g4 v=85
146093 On ch=1 n=f4 v=0
146115 On ch=1 n=f2 v=101
146116 On ch=1 n=f3 v=101
146118 On ch=1 n=g4 v=0
146412 On ch=1 n=f3 v=0
146416 On ch=1 n=g2 v=61
146417 On ch=1 n=g3 v=53
146421 On ch=1 n=f2 v=0
146446 On ch=1 n=a3 v=65
146447 On ch=1 n=g3 v=0
146449 On ch=1 n=g2 v=0
146450 On ch=1 n=a2 v=61
146469 On ch=1 n=a3 v=0
146469 On ch=1 n=a#3 v=69
146470 On ch=1 n=a#2 v=69
146475 On ch=1 n=a2 v=0
146485 On ch=1 n=a#3 v=0
146488 On ch=1 n=a#2 v=0
146489 On ch=1 n=c4 v=73
146489 On ch=1 n=c3 v=69
146507 On ch=1 n=c3 v=0
146511 On ch=1 n=c4 v=0
146512 On ch=1 n=d3 v=61
146512 On ch=1 n=d4 v=77
146528 On ch=1 n=e3 v=69
146533 On ch=1 n=d4 v=0
146533 On ch=1 n=e4 v=81
146534 On ch=1 n=d3 v=0
146544 On ch=1 n=e4 v=0
146549 On ch=1 n=f3 v=85
146551 On ch=1 n=f4 v=81
146555 On ch=1 n=e3 v=0
146569 On ch=1 n=f3 v=0
146569 On ch=1 n=g3 v=81
146570 On ch=1 n=g4 v=73
146575 On ch=1 n=f4 v=0
146585 On ch=1 n=g3 v=0
146586 On ch=1 n=a3 v=81
146587 On ch=1 n=g4 v=0
146588 On ch=1 n=a4 v=77
146605 On ch=1 n=a#3 v=105
146607 On ch=1 n=a4 v=0
146608 On ch=1 n=a3 v=0
146608 On ch=1 n=a#4 v=81
146622 On ch=1 n=a#4 v=0
146624 On ch=1 n=a#3 v=0
146625 On ch=1 n=c4 v=81
146628 On ch=1 n=c5 v=81
146645 On ch=1 n=c4 v=0
146646 On ch=1 n=c5 v=0
146646 On ch=1 n=d5 v=73
146647 On ch=1 n=d4 v=81
146667 On ch=1 n=d5 v=0
146667 On ch=1 n=e5 v=85
146668 On ch=1 n=e4 v=81
146672 On ch=1 n=d4 v=0
146684 On ch=1 n=e5 v=0
146688 On ch=1 n=f4 v=85
146689 On ch=1 n=f5 v=81
146690 On ch=1 n=e4 v=0
146704 On ch=1 n=f4 v=0
146705 On ch=1 n=g4 v=81
146708 On ch=1 n=f5 v=0
146708 On ch=1 n=g5 v=73
146723 On ch=1 n=a4 v=81
146724 On ch=1 n=g4 v=0
146727 On ch=1 n=a5 v=89
146728 On ch=1 n=g5 v=0
146745 On ch=1 n=a5 v=0
146745 On ch=1 n=a#4 v=101
146747 On ch=1 n=a4 v=0
146748 On ch=1 n=a#5 v=93
146760 On ch=1 n=a#5 v=0
146763 On ch=1 n=a#4 v=0
146764 On ch=1 n=c5 v=69
146764 On ch=1 n=c6 v=81
146782 On ch=1 n=d5 v=81
146783 On ch=1 n=d6 v=85
146784 On ch=1 n=c6 v=0
146786 On ch=1 n=c5 v=0
146802 On ch=1 n=e5 v=81
146802 On ch=1 n=e6 v=85
146804 On ch=1 n=d6 v=0
146808 On ch=1 n=d5 v=0
146820 On ch=1 n=e5 v=0
146822 On ch=1 n=e6 v=0
146822 On ch=1 n=f5 v=93
146823 On ch=1 n=f6 v=89
147037 On ch=1 n=f6 v=0
147037 On ch=1 n=f5 v=0
147448 On ch=1 n=f#3 v=89
147449 On ch=1 n=a#2 v=93
147450 On ch=1 n=a#3 v=101
147450 On ch=1 n=f#4 v=93
147450 On ch=1 n=c#4 v=105
147452 On ch=1 n=c#3 v=93
147850 On ch=1 n=g#4 v=69
147851 On ch=1 n=g#3 v=73
147869 On ch=1 n=g#4 v=0
147869 On ch=1 n=a#3 v=0
147871 On ch=1 n=a#4 v=77
147871 On ch=1 n=a#3 v=81
147873 On ch=1 n=g#3 v=0
147888 On ch=1 n=a#4 v=0
147889 On ch=1 n=a#3 v=0
147890 On ch=1 n=b4 v=49
147892 On ch=1 n=b3 v=77
147893 On ch=1 n=c5 v=33
147905 On ch=1 n=c5 v=0
147907 On ch=1 n=b3 v=0
147908 On ch=1 n=b4 v=0
147909 On ch=1 n=c#5 v=73
147911 On ch=1 n=c#4 v=0
147911 On ch=1 n=c#4 v=85
147927 On ch=1 n=d#4 v=81
147931 On ch=1 n=c#4 v=0
147932 On ch=1 n=c#5 v=0
147932 On ch=1 n=d#5 v=73
147946 On ch=1 n=d#5 v=0
147947 On ch=1 n=d#4 v=0
147948 On ch=1 n=f5 v=77
147950 On ch=1 n=f4 v=81
147964 On ch=1 n=f#4 v=0
147966 On ch=1 n=f#4 v=81
147969 On ch=1 n=f4 v=0
147970 On ch=1 n=f#5 v=77
147972 On ch=1 n=f5 v=0
147982 On ch=1 n=f#5 v=0
147982 On ch=1 n=g#4 v=77
147983 On ch=1 n=g#5 v=81
147984 On ch=1 n=f#4 v=0
147999 On ch=1 n=a#4 v=81
148000 On ch=1 n=a#5 v=77
148005 On ch=1 n=g#4 v=0
148005 On ch=1 n=g#5 v=0
148017 On ch=1 n=a#5 v=0
148019 On ch=1 n=a#4 v=0
148019 On ch=1 n=b4 v=81
148020 On ch=1 n=b5 v=81
148035 On ch=1 n=c#5 v=81
148037 On ch=1 n=c#6 v=81
148038 On ch=1 n=b4 v=0
148042 On ch=1 n=b5 v=0
148056 On ch=1 n=c#5 v=0
148057 On ch=1 n=d#5 v=85
148057 On ch=1 n=d#6 v=85
148058 On ch=1 n=c#6 v=0
148074 On ch=1 n=d#6 v=0
148075 On ch=1 n=d#5 v=0
148075 On ch=1 n=f6 v=89
148076 On ch=1 n=f5 v=81
148082 On ch=1 n=f#3 v=0
148084 On ch=1 n=c#3 v=0
148090 On ch=1 n=a#2 v=0
148094 On ch=1 n=f#5 v=81
148095 On ch=1 n=f#6 v=89
148096 On ch=1 n=f5 v=0
148100 On ch=1 n=f6 v=0
148112 On ch=1 n=f#6 v=0
148112 On ch=1 n=g#6 v=89
148113 On ch=1 n=g#5 v=81
148117 On ch=1 n=f#5 v=0
148131 On ch=1 n=a#6 v=73
148132 On ch=1 n=g#5 v=0
148133 On ch=1 n=g#6 v=0
148133 On ch=1 n=a#5 v=85
148147 On ch=1 n=a#6 v=0
148148 On ch=1 n=a#5 v=0
148148 On ch=1 n=b6 v=81
148151 On ch=1 n=b5 v=81
148168 On ch=1 n=c#7 v=93
148169 On ch=1 n=c#6 v=81
148171 On ch=1 n=b5 v=0
148174 On ch=1 n=b6 v=0
148186 On ch=1 n=d#7 v=89
148189 On ch=1 n=c#7 v=0
148189 On ch=1 n=d#6 v=81
148195 On ch=1 n=c#6 v=0
148207 On ch=1 n=d#6 v=0
148208 On ch=1 n=f6 v=85
148209 On ch=1 n=f7 v=81
148210 On ch=1 n=d#7 v=0
148227 On ch=1 n=f#6 v=113
148228 On ch=1 n=f#7 v=113
148228 On ch=1 n=f#5 v=105
148230 On ch=1 n=f6 v=0
148232 On ch=1 n=f7 v=0
148489 On ch=1 n=f#5 v=0
148493 On ch=1 n=f#7 v=0
148496 On ch=1 n=f#6 v=0
148640 On ch=1 n=c#6 v=69
148659 On ch=1 n=d6 v=81
148678 On ch=1 n=c#6 v=0
148685 On ch=1 n=e6 v=85
148690 On ch=1 n=d6 v=0
148706 On ch=1 n=f5 v=101
148706 On ch=1 n=d6 v=81
148723 On ch=1 n=e6 v=0
148756 On ch=1 n=b3 v=81
148756 On ch=1 n=b4 v=77
148811 On ch=1 n=g#4 v=81
148857 On ch=1 n=b5 v=93
148858 On ch=1 n=f4 v=85
148865 On ch=1 n=f5 v=0
148870 On ch=1 n=d6 v=0
148914 On ch=1 n=e5 v=81
148917 On ch=1 n=a#5 v=93
148929 On ch=1 n=b5 v=0
148963 On ch=1 n=b4 v=0
148964 On ch=1 n=f4 v=0
148965 On ch=1 n=g#4 v=0
148966 On ch=1 n=f#4 v=81
148967 On ch=1 n=f#3 v=73
148968 On ch=1 n=b3 v=0
149019 On ch=1 n=c#4 v=73
149069 On ch=1 n=a#3 v=81
149073 On ch=1 n=c#6 v=81
149080 On ch=1 n=e5 v=0
149080 On ch=1 n=a#5 v=0
149121 On ch=1 n=f#3 v=0
149130 On ch=1 n=d5 v=85
149133 On ch=1 n=f#5 v=93
149137 On ch=1 n=c#6 v=0
149182 On ch=1 n=a#3 v=0
149183 On ch=1 n=c#4 v=0
149185 On ch=1 n=b3 v=81
149186 On ch=1 n=b2 v=69
149189 On ch=1 n=f#4 v=0
149233 On ch=1 n=f#3 v=77
149286 On ch=1 n=d3 v=81
149289 On ch=1 n=g#5 v=85
149292 On ch=1 n=d5 v=0
149300 On ch=1 n=f#5 v=0
149331 On ch=1 n=b2 v=0
149333 On ch=1 n=g#5 v=0
149344 On ch=1 n=a#5 v=85
149344 On ch=1 n=c#5 v=85
149346 On ch=1 n=b3 v=0
149351 On ch=1 n=f#3 v=0
149377 On ch=1 n=d3 v=0
149400 On ch=1 n=f#2 v=73
149401 On ch=1 n=f#3 v=69
149459 On ch=1 n=c#3 v=69
149503 On ch=1 n=f#5 v=77
149511 On ch=1 n=a#2 v=73
149514 On ch=1 n=a#5 v=0
149520 On ch=1 n=c#5 v=0
149544 On ch=1 n=f#5 v=0
149550 On ch=1 n=f#2 v=0
149556 On ch=1 n=c#3 v=0
149558 On ch=1 n=f#3 v=0
149558 On ch=1 n=c#6 v=73
149560 On ch=1 n=e5 v=69
149561 On ch=1 n=e6 v=61
149597 On ch=1 n=a#2 v=0
149609 On ch=1 n=b2 v=73
149610 On ch=1 n=b3 v=69
149614 On ch=1 n=f#5 v=69
149628 On ch=1 n=e6 v=0
149635 On ch=1 n=c#6 v=0
149635 On ch=1 n=e5 v=0
149663 On ch=1 n=f#5 v=0
149665 On ch=1 n=f#3 v=81
149667 On ch=1 n=b5 v=77
149669 On ch=1 n=d5 v=73
149671 On ch=1 n=d6 v=77
149716 On ch=1 n=b2 v=0
149716 On ch=1 n=d3 v=77
149718 On ch=1 n=d5 v=0
149720 On ch=1 n=b3 v=0
149720 On ch=1 n=d6 v=0
149724 On ch=1 n=f#5 v=73
149725 On ch=1 n=b5 v=0
149726 On ch=1 n=f#3 v=0
149763 On ch=1 n=f#5 v=0
149781 On ch=1 n=c#6 v=77
149782 On ch=1 n=c#5 v=77
149783 On ch=1 n=a#5 v=81
149792 On ch=1 n=d3 v=0
149835 On ch=1 n=f#4 v=73
149836 On ch=1 n=f#3 v=73
149893 On ch=1 n=c#4 v=73
149949 On ch=1 n=a#3 v=81
149953 On ch=1 n=f#5 v=69
149965 On ch=1 n=c#5 v=0
149969 On ch=1 n=a#5 v=0
149973 On ch=1 n=c#6 v=0
149988 On ch=1 n=f#3 v=0
149995 On ch=1 n=f#4 v=0
149996 On ch=1 n=c#4 v=0
150004 On ch=1 n=g6 v=73
150005 On ch=1 n=g5 v=73
150005 On ch=1 n=e6 v=69
150008 On ch=1 n=a#3 v=0
150016 On ch=1 n=f#5 v=0
150053 On ch=1 n=b5 v=77
150059 On ch=1 n=g6 v=0
150061 On ch=1 n=e3 v=81
150063 On ch=1 n=g5 v=0
150063 On ch=1 n=e4 v=85
150069 On ch=1 n=e6 v=0
150109 On ch=1 n=b5 v=0
150113 On ch=1 n=c#6 v=81
150115 On ch=1 n=e5 v=89
150115 On ch=1 n=b3 v=85
150116 On ch=1 n=e6 v=73
150150 On ch=1 n=e6 v=0
150152 On ch=1 n=e5 v=0
150154 On ch=1 n=c#6 v=0
150164 On ch=1 n=b5 v=85
150165 On ch=1 n=g3 v=85
150167 On ch=1 n=e4 v=0
150169 On ch=1 n=e3 v=0
150175 On ch=1 n=b3 v=0
150218 On ch=1 n=f#4 v=105
150219 On ch=1 n=f#3 v=89
150221 On ch=1 n=a#5 v=93
150224 On ch=1 n=c#5 v=89
150225 On ch=1 n=c#6 v=85
150228 On ch=1 n=b5 v=0
150228 On ch=1 n=g3 v=0
150270 On ch=1 n=c#5 v=0
150274 On ch=1 n=a#5 v=0
150281 On ch=1 n=c#6 v=0
150335 On ch=1 n=c#6 v=81
150336 On ch=1 n=f#5 v=101
150337 On ch=1 n=f#6 v=93
150340 On ch=1 n=a#5 v=89
150379 On ch=1 n=c#4 v=81
150399 On ch=1 n=d4 v=101
150408 On ch=1 n=c#4 v=0
150422 On ch=1 n=e4 v=81
150432 On ch=1 n=d4 v=0
150444 On ch=1 n=d4 v=89
150446 On ch=1 n=d3 v=89
150448 On ch=1 n=e4 v=0
150455 On ch=1 n=a#5 v=0
150456 On ch=1 n=c#6 v=0
150456 On ch=1 n=f#5 v=0
150461 On ch=1 n=f#6 v=0
150573 On ch=1 n=f#5 v=89
150573 On ch=1 n=f#6 v=81
150575 On ch=1 n=d6 v=77
150575 On ch=1 n=b5 v=81
150617 On ch=1 n=d4 v=0
150627 On ch=1 n=b2 v=93
150630 On ch=1 n=b3 v=81
150634 On ch=1 n=f#4 v=0
150638 On ch=1 n=d3 v=0
150643 On ch=1 n=f#3 v=0
150682 On ch=1 n=a#3 v=93
150683 On ch=1 n=a#2 v=101
150688 On ch=1 n=b2 v=0
150689 On ch=1 n=b3 v=0
150733 On ch=1 n=f#5 v=0
150737 On ch=1 n=b5 v=0
150738 On ch=1 n=d6 v=0
150738 On ch=1 n=f#6 v=0
150743 On ch=1 n=c#6 v=73
150746 On ch=1 n=e5 v=65
150793 On ch=1 n=f#5 v=81
150796 On ch=1 n=d6 v=77
150803 On ch=1 n=e5 v=0
150817 On ch=1 n=c#6 v=0
150827 On ch=1 n=a#2 v=0
150834 On ch=1 n=a#3 v=0
150843 On ch=1 n=f#4 v=77
150844 On ch=1 n=c#4 v=77
150845 On ch=1 n=a#3 v=49
150855 On ch=1 n=e6 v=81
150857 On ch=1 n=g5 v=69
150868 On ch=1 n=f#5 v=0
150872 On ch=1 n=d6 v=0
150905 On ch=1 n=b2 v=81
150905 On ch=1 n=b3 v=73
150907 On ch=1 n=g5 v=0
150916 On ch=1 n=e6 v=0
150916 On ch=1 n=a#3 v=0
150917 On ch=1 n=c#4 v=0
150917 On ch=1 n=f#4 v=0
150972 On ch=1 n=f#5 v=69
150974 On ch=1 n=d6 v=81
151024 On ch=1 n=c#5 v=69
151025 On ch=1 n=a#5 v=85
151029 On ch=1 n=f#5 v=0
151035 On ch=1 n=d6 v=0
151076 On ch=1 n=b5 v=81
151078 On ch=1 n=b3 v=0
151079 On ch=1 n=b2 v=0
151079 On ch=1 n=d5 v=65
151080 On ch=1 n=f4 v=73
151082 On ch=1 n=b3 v=65
151082 On ch=1 n=g#4 v=73
151092 On ch=1 n=a#5 v=0
151102 On ch=1 n=c#5 v=0
151131 On ch=1 n=f#3 v=73
151132 On ch=1 n=f#2 v=77
151138 On ch=1 n=d5 v=0
151140 On ch=1 n=f4 v=0
151140 On ch=1 n=g#4 v=0
151142 On ch=1 n=b3 v=0
151147 On ch=1 n=b5 v=0
151187 On ch=1 n=c#5 v=73
151188 On ch=1 n=a#5 v=81
151189 On ch=1 n=c#6 v=73
151247 On ch=1 n=f5 v=61
151296 On ch=1 n=a#2 v=81
151304 On ch=1 n=f#5 v=69
151308 On ch=1 n=f#3 v=0
151311 On ch=1 n=f5 v=0
151315 On ch=1 n=c#5 v=0
151320 On ch=1 n=c#6 v=0
151320 On ch=1 n=a#5 v=0
151355 On ch=1 n=b2 v=85
151356 On ch=1 n=b3 v=93
151357 On ch=1 n=f#5 v=0
151359 On ch=1 n=a#2 v=0
151365 On ch=1 n=f#2 v=0
151414 On ch=1 n=e6 v=65
151414 On ch=1 n=g5 v=61
151414 On ch=1 n=g6 v=65
151470 On ch=1 n=b5 v=81
151475 On ch=1 n=g6 v=0
151479 On ch=1 n=g5 v=0
151484 On ch=1 n=e6 v=0
151523 On ch=1 n=d3 v=81
151523 On ch=1 n=d4 v=81
151526 On ch=1 n=b2 v=0
151528 On ch=1 n=f#5 v=69
151531 On ch=1 n=f#6 v=65
151531 On ch=1 n=d6 v=65
151537 On ch=1 n=b3 v=0
151549 On ch=1 n=b5 v=0
151558 On ch=1 n=f#5 v=0
151562 On ch=1 n=f#6 v=0
151566 On ch=1 n=d6 v=0
151583 On ch=1 n=f#3 v=81
151583 On ch=1 n=f#4 v=93
151585 On ch=1 n=d3 v=0
151589 On ch=1 n=d4 v=0
151643 On ch=1 n=c#5 v=73
151644 On ch=1 n=a#5 v=73
151646 On ch=1 n=c#6 v=61
151701 On ch=1 n=f5 v=57
151752 On ch=1 n=f#3 v=0
151755 On ch=1 n=a#3 v=81
151756 On ch=1 n=f#5 v=69
151764 On ch=1 n=f5 v=0
151770 On ch=1 n=c#5 v=0
151771 On ch=1 n=a#5 v=0
151777 On ch=1 n=c#6 v=0
151787 On ch=1 n=f#4 v=0
151793 On ch=1 n=f#5 v=0
151809 On ch=1 n=e3 v=77
151811 On ch=1 n=b3 v=81
151813 On ch=1 n=a#3 v=0
151861 On ch=1 n=g6 v=69
151862 On ch=1 n=b5 v=81
151862 On ch=1 n=b6 v=69
151865 On ch=1 n=b4 v=65
151910 On ch=1 n=b6 v=0
151912 On ch=1 n=b5 v=0
151914 On ch=1 n=g6 v=0
151916 On ch=1 n=g4 v=65
151917 On ch=1 n=c#6 v=69
151927 On ch=1 n=b4 v=0
151937 On ch=1 n=c#6 v=0
151966 On ch=1 n=e6 v=81
151968 On ch=1 n=g5 v=81
151969 On ch=1 n=g6 v=69
151971 On ch=1 n=e4 v=69
151973 On ch=1 n=g4 v=0
151981 On ch=1 n=g5 v=0
151981 On ch=1 n=g6 v=0
151985 On ch=1 n=e6 v=0
152020 On ch=1 n=a4 v=93
152021 On ch=1 n=b3 v=0
152022 On ch=1 n=a3 v=101
152024 On ch=1 n=e4 v=0
152025 On ch=1 n=e3 v=0
152027 On ch=1 n=c#6 v=81
152027 On ch=1 n=e5 v=89
152029 On ch=1 n=e6 v=77
152065 On ch=1 n=e5 v=0
152072 On ch=1 n=c#6 v=0
152077 On ch=1 n=e6 v=0
152138 On ch=1 n=e6 v=81
152139 On ch=1 n=a5 v=93
152140 On ch=1 n=c#6 v=81
152140 On ch=1 n=a6 v=81
152168 On ch=1 n=e4 v=81
152189 On ch=1 n=f#4 v=81
152214 On ch=1 n=g4 v=89
152219 On ch=1 n=e4 v=0
152229 On ch=1 n=f#4 v=0
152245 On ch=1 n=g4 v=0
152252 On ch=1 n=f#3 v=113
152252 On ch=1 n=f#4 v=121
152257 On ch=1 n=a5 v=0
152259 On ch=1 n=a6 v=0
152263 On ch=1 n=c#6 v=0
152265 On ch=1 n=e6 v=0
152275 On ch=1 n=a4 v=0
152280 On ch=1 n=a3 v=0
152372 On ch=1 n=c#6 v=93
152374 On ch=1 n=a#5 v=121
152374 On ch=1 n=g6 v=81
152375 On ch=1 n=a#6 v=85
152377 On ch=1 n=f#4 v=0
152387 On ch=1 n=f#3 v=0
152424 On ch=1 n=e4 v=105
152425 On ch=1 n=e3 v=105
152442 On ch=1 n=e3 v=0
152442 On ch=1 n=e4 v=0
152489 On ch=1 n=d4 v=113
152490 On ch=1 n=d3 v=113
152495 On ch=1 n=a#5 v=0
152496 On ch=1 n=g6 v=0
152496 On ch=1 n=c#6 v=0
152499 On ch=1 n=a#6 v=0
152528 On ch=1 n=d#6 v=29
152535 On ch=1 n=d#6 v=0
152607 On ch=1 n=f#6 v=101
152608 On ch=1 n=d6 v=101
152610 On ch=1 n=b6 v=101
152610 On ch=1 n=b5 v=105
152620 On ch=1 n=d4 v=0
152639 On ch=1 n=a#3 v=81
152644 On ch=1 n=d3 v=0
152670 On ch=1 n=b3 v=81
152680 On ch=1 n=a#3 v=0
152700 On ch=1 n=c#4 v=101
152712 On ch=1 n=b3 v=0
152722 On ch=1 n=b5 v=0
152723 On ch=1 n=d6 v=0
152724 On ch=1 n=f#6 v=0
152730 On ch=1 n=b2 v=121
152732 On ch=1 n=b3 v=121
152734 On ch=1 n=c#4 v=0
152734 On ch=1 n=b6 v=0
152832 On ch=1 n=b3 v=0
152838 On ch=1 n=b2 v=0
152840 On ch=1 n=d6 v=113
152840 On ch=1 n=f#6 v=105
152840 On ch=1 n=b6 v=85
152841 On ch=1 n=d7 v=101
152900 On ch=1 n=a2 v=113
152901 On ch=1 n=a3 v=113
152921 On ch=1 n=a3 v=0
152922 On ch=1 n=a2 v=0
152963 On ch=1 n=g2 v=121
152963 On ch=1 n=g3 v=125
152994 On ch=1 n=d6 v=0
152994 On ch=1 n=d7 v=0
152998 On ch=1 n=f#6 v=0
152998 On ch=1 n=b6 v=0
153068 On ch=1 n=b6 v=81
153069 On ch=1 n=f#7 v=101
153069 On ch=1 n=b7 v=81
153106 On ch=1 n=b7 v=0
153106 On ch=1 n=f#7 v=0
153107 On ch=1 n=b6 v=0
153119 On ch=1 n=f#4 v=89
153121 On ch=1 n=b4 v=89
153122 On ch=1 n=d4 v=93
153167 On ch=1 n=g3 v=0
153170 On ch=1 n=g2 v=0
153178 On ch=1 n=b6 v=101
153179 On ch=1 n=g6 v=105
153180 On ch=1 n=g7 v=121
153185 On ch=1 n=c#4 v=121
153187 On ch=1 n=c#3 v=105
153195 On ch=1 n=f#4 v=0
153197 On ch=1 n=d4 v=0
153198 On ch=1 n=b4 v=0
153237 On ch=1 n=g7 v=0
153239 On ch=1 n=g6 v=0
153239 On ch=1 n=b6 v=0
153304 On ch=1 n=g6 v=101
153304 On ch=1 n=e6 v=81
153309 On ch=1 n=e7 v=69
153325 On ch=1 n=e7 v=0
153331 On ch=1 n=g6 v=0
153334 On ch=1 n=e6 v=0
153352 On ch=1 n=g4 v=89
153353 On ch=1 n=e4 v=89
153354 On ch=1 n=b4 v=85
153357 On ch=1 n=c#4 v=0
153359 On ch=1 n=c#3 v=0
153416 On ch=1 n=f#7 v=105
153417 On ch=1 n=f#6 v=101
153419 On ch=1 n=c#7 v=89
153421 On ch=1 n=a#3 v=113
153423 On ch=1 n=a#2 v=113
153435 On ch=1 n=e4 v=0
153435 On ch=1 n=g4 v=0
153439 On ch=1 n=b4 v=0
153451 On ch=1 n=c#7 v=0
153452 On ch=1 n=f#6 v=0
153452 On ch=1 n=f#7 v=0
153533 On ch=1 n=f#6 v=85
153534 On ch=1 n=d6 v=85
153535 On ch=1 n=d7 v=81
153549 On ch=1 n=d7 v=0
153550 On ch=1 n=f#6 v=0
153553 On ch=1 n=d6 v=0
153587 On ch=1 n=f#4 v=85
153587 On ch=1 n=d4 v=89
153587 On ch=1 n=a#4 v=85
153620 On ch=1 n=a#3 v=0
153623 On ch=1 n=a#2 v=0
153640 On ch=1 n=d4 v=0
153648 On ch=1 n=f#4 v=0
153649 On ch=1 n=a#6 v=77
153650 On ch=1 n=a#5 v=81
153652 On ch=1 n=f#6 v=77
153654 On ch=1 n=d3 v=101
153655 On ch=1 n=d4 v=113
153657 On ch=1 n=a#4 v=0
153680 On ch=1 n=a#5 v=0
153685 On ch=1 n=f#6 v=0
153688 On ch=1 n=a#6 v=0
153773 On ch=1 n=b6 v=69
153775 On ch=1 n=f#6 v=69
153775 On ch=1 n=b5 v=73
153828 On ch=1 n=f#4 v=89
153830 On ch=1 n=b4 v=89
153832 On ch=1 n=d4 v=0
153833 On ch=1 n=d4 v=81
153861 On ch=1 n=d4 v=0
153867 On ch=1 n=d3 v=0
153871 On ch=1 n=b6 v=0
153882 On ch=1 n=b5 v=0
153882 On ch=1 n=g3 v=101
153883 On ch=1 n=f#6 v=0
153884 On ch=1 n=g4 v=105
153896 On ch=1 n=f#4 v=0
153897 On ch=1 n=b4 v=0
153933 On ch=1 n=g6 v=77
153935 On ch=1 n=g5 v=69
153966 On ch=1 n=g6 v=0
153968 On ch=1 n=g5 v=0
153994 On ch=1 n=f#5 v=77
153994 On ch=1 n=f#4 v=81
153996 On ch=1 n=f#6 v=85
153998 On ch=1 n=f#3 v=69
154010 On ch=1 n=f#3 v=0
154011 On ch=1 n=f#4 v=0
154013 On ch=1 n=f#5 v=0
154020 On ch=1 n=f#6 v=0
154044 On ch=1 n=f4 v=101
154045 On ch=1 n=f3 v=101
154045 On ch=1 n=f6 v=89
154046 On ch=1 n=f5 v=101
154061 On ch=1 n=f3 v=0
154066 On ch=1 n=f4 v=0
154106 On ch=1 n=f#4 v=113
154106 On ch=1 n=f#3 v=105
154138 On ch=1 n=g4 v=0
154142 On ch=1 n=g3 v=0
154151 On ch=1 n=f5 v=0
154153 On ch=1 n=f6 v=0
154163 On ch=1 n=f#6 v=93
154164 On ch=1 n=f#5 v=89
154186 On ch=1 n=f#5 v=0
154196 On ch=1 n=f#3 v=0
154197 On ch=1 n=f#6 v=0
154207 On ch=1 n=f#4 v=0
154216 On ch=1 n=g#4 v=101
154216 On ch=1 n=g#3 v=89
154223 On ch=1 n=g#5 v=89
154223 On ch=1 n=g#6 v=81
154234 On ch=1 n=g#5 v=0
154239 On ch=1 n=g#4 v=0
154239 On ch=1 n=g#3 v=0
154243 On ch=1 n=g#6 v=0
154271 On ch=1 n=a#4 v=101
154272 On ch=1 n=a#3 v=85
154273 On ch=1 n=a#5 v=101
154276 On ch=1 n=a#6 v=81
154287 On ch=1 n=a#3 v=0
154293 On ch=1 n=a#4 v=0
154335 On ch=1 n=b4 v=105
154337 On ch=1 n=b3 v=105
154372 On ch=1 n=a#5 v=0
154378 On ch=1 n=a#6 v=0
154392 On ch=1 n=b6 v=81
154392 On ch=1 n=b5 v=73
154411 On ch=1 n=b5 v=0
154421 On ch=1 n=b6 v=0
154421 On ch=1 n=b3 v=0
154425 On ch=1 n=b4 v=0
154442 On ch=1 n=c#5 v=101
154444 On ch=1 n=c#4 v=93
154444 On ch=1 n=c#6 v=89
154446 On ch=1 n=c#7 v=101
154465 On ch=1 n=c#6 v=0
154465 On ch=1 n=c#5 v=0
154466 On ch=1 n=c#4 v=0
154472 On ch=1 n=c#7 v=0
154499 On ch=1 n=d5 v=89
154499 On ch=1 n=d4 v=89
154500 On ch=1 n=d6 v=101
154501 On ch=1 n=d7 v=101
154515 On ch=1 n=d4 v=0
154519 On ch=1 n=d5 v=0
154557 On ch=1 n=e4 v=113
154559 On ch=1 n=e5 v=101
154575 On ch=1 n=d6 v=0
154575 On ch=1 n=d7 v=0
154610 On ch=1 n=e6 v=93
154611 On ch=1 n=e7 v=89
154634 On ch=1 n=e6 v=0
154635 On ch=1 n=e7 v=0
154639 On ch=1 n=e4 v=0
154645 On ch=1 n=e5 v=0
154669 On ch=1 n=f#5 v=93
154669 On ch=1 n=f#4 v=89
154675 On ch=1 n=f#6 v=93
154677 On ch=1 n=f#7 v=113
154693 On ch=1 n=f#5 v=0
154695 On ch=1 n=f#4 v=0
154695 On ch=1 n=f#6 v=0
154701 On ch=1 n=f#7 v=0
154724 On ch=1 n=g4 v=101
154725 On ch=1 n=g5 v=101
154727 On ch=1 n=g6 v=101
154730 On ch=1 n=g7 v=101
154764 On ch=1 n=c4 v=57
154765 On ch=1 n=f#4 v=81
154777 On ch=1 n=a4 v=85
154786 On ch=1 n=d#5 v=105
154795 On ch=1 n=c4 v=0
154803 On ch=1 n=g5 v=0
154809 On ch=1 n=g7 v=0
154810 On ch=1 n=g4 v=0
154819 On ch=1 n=g6 v=0
154829 On ch=1 n=d#5 v=0
154835 On ch=1 n=a5 v=89
154836 On ch=1 n=a6 v=81
154841 On ch=1 n=a4 v=0
154851 On ch=1 n=a5 v=0
154854 On ch=1 n=a6 v=0
154876 On ch=1 n=f#4 v=0
154891 On ch=1 n=d5 v=101
154893 On ch=1 n=g6 v=85
154894 On ch=1 n=g5 v=85
154894 On ch=1 n=b4 v=81
154904 On ch=1 n=g5 v=0
154907 On ch=1 n=g6 v=0
154909 On ch=1 n=b4 v=0
154910 On ch=1 n=d5 v=0
154945 On ch=1 n=f#5 v=93
154948 On ch=1 n=a4 v=73
154948 On ch=1 n=f#6 v=89
154948 On ch=1 n=c5 v=69
154990 On ch=1 n=b3 v=73
155002 On ch=1 n=d4 v=73
155004 On ch=1 n=g4 v=93
155019 On ch=1 n=d5 v=81
155042 On ch=1 n=d4 v=0
155045 On ch=1 n=b3 v=0
155054 On ch=1 n=d5 v=0
155055 On ch=1 n=g4 v=0
155066 On ch=1 n=g5 v=85
155066 On ch=1 n=g6 v=81
155070 On ch=1 n=c5 v=0
155076 On ch=1 n=a4 v=0
155080 On ch=1 n=f#5 v=0
155081 On ch=1 n=f#6 v=0
155083 On ch=1 n=g5 v=0
155088 On ch=1 n=g6 v=0
155118 On ch=1 n=c5 v=85
155119 On ch=1 n=a5 v=101
155120 On ch=1 n=a6 v=93
155122 On ch=1 n=a4 v=69
155133 On ch=1 n=a5 v=0
155136 On ch=1 n=a4 v=0
155137 On ch=1 n=a6 v=0
155138 On ch=1 n=c5 v=0
155174 On ch=1 n=b5 v=105
155175 On ch=1 n=b6 v=85
155176 On ch=1 n=g4 v=93
155178 On ch=1 n=b4 v=89
155195 On ch=1 n=g4 v=0
155213 On ch=1 n=d#4 v=81
155221 On ch=1 n=g4 v=73
155230 On ch=1 n=c5 v=77
155242 On ch=1 n=g4 v=0
155243 On ch=1 n=g5 v=81
155247 On ch=1 n=d#4 v=0
155275 On ch=1 n=c5 v=0
155286 On ch=1 n=g5 v=0
155287 On ch=1 n=b4 v=0
155294 On ch=1 n=c6 v=85
155294 On ch=1 n=c7 v=89
155299 On ch=1 n=b6 v=0
155300 On ch=1 n=b5 v=0
155311 On ch=1 n=c7 v=0
155312 On ch=1 n=c6 v=0
155345 On ch=1 n=d5 v=81
155347 On ch=1 n=f5 v=85
155348 On ch=1 n=d6 v=105
155350 On ch=1 n=d7 v=101
155361 On ch=1 n=f5 v=0
155365 On ch=1 n=d5 v=0
155365 On ch=1 n=d6 v=0
155366 On ch=1 n=d7 v=0
155403 On ch=1 n=c5 v=85
155404 On ch=1 n=d#5 v=81
155406 On ch=1 n=d#7 v=105
155407 On ch=1 n=d#6 v=89
155421 On ch=1 n=c5 v=0
155437 On ch=1 n=g#4 v=69
155443 On ch=1 n=c5 v=61
155451 On ch=1 n=f5 v=77
155460 On ch=1 n=c6 v=89
155462 On ch=1 n=c5 v=0
155496 On ch=1 n=d#5 v=0
155501 On ch=1 n=g#4 v=0
155503 On ch=1 n=d#6 v=0
155504 On ch=1 n=d#7 v=0
155511 On ch=1 n=f5 v=0
155513 On ch=1 n=c6 v=0
155514 On ch=1 n=f6 v=101
155514 On ch=1 n=f7 v=93
155524 On ch=1 n=f6 v=0
155525 On ch=1 n=f7 v=0
155568 On ch=1 n=a#5 v=113
155571 On ch=1 n=g6 v=105
155572 On ch=1 n=g7 v=105
155574 On ch=1 n=g5 v=53
155579 On ch=1 n=g5 v=0
155580 On ch=1 n=g6 v=0
155583 On ch=1 n=g7 v=0
155583 On ch=1 n=a#5 v=0
155626 On ch=1 n=g#6 v=105
155626 On ch=1 n=g#7 v=113
155627 On ch=1 n=g#5 v=101
155627 On ch=1 n=f5 v=81
155689 On ch=1 n=c3 v=101
155691 On ch=1 n=c4 v=101
155713 On ch=1 n=c4 v=0
155714 On ch=1 n=c3 v=0
155724 On ch=1 n=g#5 v=0
155725 On ch=1 n=g#7 v=0
155733 On ch=1 n=f5 v=0
155734 On ch=1 n=g#6 v=0
155740 On ch=1 n=c5 v=81
155782 On ch=1 n=c5 v=0
155805 On ch=1 n=c#4 v=101
155806 On ch=1 n=c#3 v=89
155854 On ch=1 n=c#5 v=89
155872 On ch=1 n=c#5 v=0
155887 On ch=1 n=a4 v=73
155889 On ch=1 n=c#3 v=0
155891 On ch=1 n=c#4 v=0
155902 On ch=1 n=c#5 v=69
155911 On ch=1 n=f#5 v=85
155926 On ch=1 n=c#5 v=0
155930 On ch=1 n=c#6 v=85
155958 On ch=1 n=a4 v=0
155980 On ch=1 n=c#6 v=0
155981 On ch=1 n=f#6 v=81
155981 On ch=1 n=f#7 v=93
155986 On ch=1 n=f#5 v=0
156000 On ch=1 n=f#6 v=0
156009 On ch=1 n=f#7 v=0
156031 On ch=1 n=b5 v=89
156032 On ch=1 n=g#5 v=93
156036 On ch=1 n=g#6 v=105
156037 On ch=1 n=g#7 v=101
156051 On ch=1 n=g#5 v=0
156052 On ch=1 n=g#6 v=0
156054 On ch=1 n=b5 v=0
156055 On ch=1 n=g#7 v=0
156093 On ch=1 n=a6 v=101
156093 On ch=1 n=f#5 v=89
156094 On ch=1 n=a7 v=101
156095 On ch=1 n=a5 v=81
156148 On ch=1 n=c#3 v=89
156148 On ch=1 n=c#4 v=113
156175 On ch=1 n=c#3 v=0
156177 On ch=1 n=c#4 v=0
156189 On ch=1 n=a7 v=0
156201 On ch=1 n=c#5 v=89
156208 On ch=1 n=a5 v=0
156209 On ch=1 n=f#5 v=0
156210 On ch=1 n=a6 v=0
156262 On ch=1 n=d4 v=101
156263 On ch=1 n=d3 v=101
156273 On ch=1 n=c#5 v=0
156318 On ch=1 n=d5 v=85
156333 On ch=1 n=a#4 v=81
156336 On ch=1 n=d5 v=0
156347 On ch=1 n=d5 v=61
156359 On ch=1 n=g5 v=73
156360 On ch=1 n=d5 v=0
156371 On ch=1 n=a#4 v=0
156375 On ch=1 n=d3 v=0
156375 On ch=1 n=d6 v=101
156377 On ch=1 n=d4 v=0
156427 On ch=1 n=d6 v=0
156430 On ch=1 n=g6 v=85
156432 On ch=1 n=g7 v=85
156434 On ch=1 n=g5 v=0
156449 On ch=1 n=g6 v=0
156453 On ch=1 n=g7 v=0
156486 On ch=1 n=c6 v=101
156487 On ch=1 n=a5 v=81
156491 On ch=1 n=a6 v=101
156493 On ch=1 n=a7 v=101
156503 On ch=1 n=a7 v=0
156505 On ch=1 n=c6 v=0
156505 On ch=1 n=a5 v=0
156507 On ch=1 n=a6 v=0
156545 On ch=1 n=a#6 v=93
156546 On ch=1 n=g5 v=81
156546 On ch=1 n=a#7 v=101
156547 On ch=1 n=a#5 v=85
156600 On ch=1 n=d#3 v=93
156600 On ch=1 n=d#4 v=121
156619 On ch=1 n=d#3 v=0
156626 On ch=1 n=d#4 v=0
156656 On ch=1 n=a#7 v=0
156656 On ch=1 n=d#5 v=85
156660 On ch=1 n=a#6 v=0
156664 On ch=1 n=a#5 v=0
156667 On ch=1 n=g5 v=0
156677 On ch=1 n=d#5 v=0
156716 On ch=1 n=c#5 v=85
156717 On ch=1 n=a#5 v=89
156718 On ch=1 n=c#6 v=89
156765 On ch=1 n=g7 v=81
156767 On ch=1 n=c#7 v=81
156768 On ch=1 n=g6 v=77
156783 On ch=1 n=g6 v=0
156795 On ch=1 n=g7 v=0
156795 On ch=1 n=c#7 v=0
156822 On ch=1 n=c#7 v=89
156824 On ch=1 n=a6 v=85
156825 On ch=1 n=a7 v=81
156841 On ch=1 n=a6 v=0
156847 On ch=1 n=a7 v=0
156854 On ch=1 n=a#5 v=0
156858 On ch=1 n=c#7 v=0
156858 On ch=1 n=c#6 v=0
156878 On ch=1 n=c#5 v=0
156879 On ch=1 n=a#7 v=93
156880 On ch=1 n=a#6 v=89
156883 On ch=1 n=c#7 v=81
156906 On ch=1 n=a#7 v=0
156916 On ch=1 n=a#6 v=0
156919 On ch=1 n=c#7 v=0
156939 On ch=1 n=e4 v=105
156939 On ch=1 n=e3 v=121
156984 On ch=1 n=e3 v=0
156993 On ch=1 n=e5 v=101
156998 On ch=1 n=e4 v=0
157023 On ch=1 n=e5 v=0
157056 On ch=1 n=c#6 v=93
157058 On ch=1 n=a#5 v=73
157060 On ch=1 n=c#5 v=81
157109 On ch=1 n=c#7 v=89
157109 On ch=1 n=g7 v=81
157111 On ch=1 n=g6 v=81
157121 On ch=1 n=g6 v=0
157129 On ch=1 n=c#7 v=0
157131 On ch=1 n=g7 v=0
157164 On ch=1 n=c#7 v=101
157164 On ch=1 n=a6 v=93
157167 On ch=1 n=a7 v=81
157178 On ch=1 n=a6 v=0
157179 On ch=1 n=a7 v=0
157188 On ch=1 n=c#7 v=0
157221 On ch=1 n=a#6 v=93
157221 On ch=1 n=c#7 v=81
157222 On ch=1 n=a#7 v=85
157359 On ch=1 n=a#7 v=0
157369 On ch=1 n=c#7 v=0
157381 On ch=1 n=a#6 v=0
157383 On ch=1 n=f#3 v=85
157384 On ch=1 n=d3 v=93
157386 On ch=1 n=f#7 v=105
157386 On ch=1 n=b6 v=93
157389 On ch=1 n=b7 v=101
157389 On ch=1 n=b3 v=105
157391 On ch=1 n=d4 v=113
157409 On ch=1 n=a#5 v=0
157426 On ch=1 n=c#6 v=0
157432 On ch=1 n=c#5 v=0
157497 On ch=1 n=f5 v=93
157546 On ch=1 n=f6 v=85
157590 On ch=1 n=d#4 v=69
157599 On ch=1 n=f#4 v=81
157610 On ch=1 n=a4 v=69
157625 On ch=1 n=b4 v=81
157636 On ch=1 n=f#5 v=89
157659 On ch=1 n=f5 v=0
157692 On ch=1 n=b3 v=0
157693 On ch=1 n=d4 v=0
157694 On ch=1 n=f#7 v=0
157696 On ch=1 n=b6 v=0
157697 On ch=1 n=f#3 v=0
157697 On ch=1 n=b7 v=0
157699 On ch=1 n=d3 v=0
157704 On ch=1 n=f#7 v=85
157705 On ch=1 n=f#6 v=77
157705 On ch=1 n=b6 v=69
157708 On ch=1 n=f6 v=0
157744 On ch=1 n=b6 v=0
157748 On ch=1 n=f#7 v=0
157756 On ch=1 n=b4 v=0
157761 On ch=1 n=a4 v=0
157762 On ch=1 n=d#4 v=0
157769 On ch=1 n=f#4 v=0
157770 On ch=1 n=f#5 v=0
157782 On ch=1 n=b4 v=81
157828 On ch=1 n=b4 v=0
157839 On ch=1 n=b6 v=69
157840 On ch=1 n=b5 v=77
157848 On ch=1 n=b6 v=0
157877 On ch=1 n=e4 v=69
157885 On ch=1 n=g4 v=77
157897 On ch=1 n=c5 v=73
157905 On ch=1 n=e5 v=73
157926 On ch=1 n=f#6 v=0
157956 On ch=1 n=c7 v=81
157957 On ch=1 n=c6 v=65
157957 On ch=1 n=g6 v=73
157968 On ch=1 n=b5 v=0
158015 On ch=1 n=c7 v=0
158017 On ch=1 n=g6 v=0
158017 On ch=1 n=c6 v=0
158034 On ch=1 n=a#4 v=73
158036 On ch=1 n=c5 v=0
158036 On ch=1 n=e5 v=0
158037 On ch=1 n=e4 v=0
158040 On ch=1 n=g4 v=0
158086 On ch=1 n=a#6 v=69
158124 On ch=1 n=g#3 v=69
158134 On ch=1 n=a#4 v=0
158137 On ch=1 n=d4 v=61
158144 On ch=1 n=f4 v=81
158159 On ch=1 n=b4 v=85
158211 On ch=1 n=a#6 v=0
158213 On ch=1 n=b6 v=61
158215 On ch=1 n=b5 v=61
158216 On ch=1 n=d6 v=73
158248 On ch=1 n=g#3 v=0
158270 On ch=1 n=b4 v=0
158270 On ch=1 n=f4 v=0
158272 On ch=1 n=d4 v=0
158278 On ch=1 n=f3 v=77
158341 On ch=1 n=f4 v=73
158358 On ch=1 n=b5 v=0
158360 On ch=1 n=b6 v=0
158361 On ch=1 n=d6 v=0
158414 On ch=1 n=f#2 v=57
158419 On ch=1 n=f#3 v=57
158421 On ch=1 n=c#3 v=57
158428 On ch=1 n=a#2 v=57
158431 On ch=1 n=f3 v=0
158506 On ch=1 n=f#4 v=73
158511 On ch=1 n=f#5 v=53
158511 On ch=1 n=c#5 v=61
158513 On ch=1 n=a#4 v=73
158516 On ch=1 n=f#2 v=0
158517 On ch=1 n=a#2 v=0
158521 On ch=1 n=f#3 v=0
158524 On ch=1 n=c#3 v=0
158553 On ch=1 n=f4 v=0
158680 On ch=1 n=b2 v=89
158681 On ch=1 n=b1 v=89
158689 On ch=1 n=f#5 v=0
158690 On ch=1 n=f#4 v=0
158691 On ch=1 n=c#5 v=0
158694 On ch=1 n=a#4 v=0
159125 On ch=1 n=f#3 v=61
159368 On ch=1 n=b3 v=65
159380 On ch=1 n=f#3 v=0
159544 On ch=1 n=b2 v=0
159545 On ch=1 n=b1 v=0
159615 On ch=1 n=b2 v=65
159616 On ch=1 n=c#4 v=65
159631 On ch=1 n=b3 v=0
159872 On ch=1 n=c#4 v=0
159873 On ch=1 n=d4 v=61
160123 On ch=1 n=d4 v=0
160475 On ch=1 n=b2 v=0
160546 On ch=1 n=b2 v=69
160804 On ch=1 n=f#3 v=53
160844 On ch=1 n=c#4 v=61
160875 On ch=1 n=f#3 v=0
160881 On ch=1 n=f#4 v=53
160884 On ch=1 n=c#4 v=0
160918 On ch=1 n=b3 v=57
160927 On ch=1 n=f#4 v=0
160952 On ch=1 n=d4 v=61
160975 On ch=1 n=b3 v=0
160990 On ch=1 n=b4 v=57
160992 On ch=1 n=d4 v=0
161025 On ch=1 n=c#4 v=49
161027 On ch=1 n=b2 v=0
161028 On ch=1 n=b2 v=65
161039 On ch=1 n=b4 v=0
161057 On ch=1 n=b2 v=0
161063 On ch=1 n=f#4 v=61
161098 On ch=1 n=c#5 v=45
161103 On ch=1 n=c#4 v=0
161108 On ch=1 n=f#4 v=0
161135 On ch=1 n=d4 v=37
161136 On ch=1 n=c#5 v=0
161137 On ch=1 n=d4 v=0
161139 On ch=1 n=d4 v=57
161174 On ch=1 n=b4 v=61
161206 On ch=1 n=d4 v=0
161212 On ch=1 n=d5 v=61
161217 On ch=1 n=b4 v=0
161254 On ch=1 n=d5 v=0
161255 On ch=1 n=f#4 v=57
161288 On ch=1 n=c#5 v=53
161328 On ch=1 n=f#4 v=0
161329 On ch=1 n=c#5 v=0
161329 On ch=1 n=f#5 v=65
161363 On ch=1 n=b4 v=45
161367 On ch=1 n=b4 v=0
161367 On ch=1 n=b4 v=61
161370 On ch=1 n=f#5 v=0
161401 On ch=1 n=d5 v=61
161441 On ch=1 n=b5 v=61
161476 On ch=1 n=f#3 v=57
161480 On ch=1 n=b2 v=37
161481 On ch=1 n=c#6 v=69
161488 On ch=1 n=b5 v=0
161499 On ch=1 n=b2 v=0
161500 On ch=1 n=d5 v=0
161502 On ch=1 n=b4 v=0
161521 On ch=1 n=e5 v=57
161522 On ch=1 n=c#6 v=0
161559 On ch=1 n=a#5 v=65
161596 On ch=1 n=b3 v=61
161598 On ch=1 n=d6 v=69
161602 On ch=1 n=a#5 v=0
161603 On ch=1 n=e5 v=0
161617 On ch=1 n=f#3 v=0
161637 On ch=1 n=d5 v=53
161679 On ch=1 n=f#5 v=61
161716 On ch=1 n=b2 v=57
161716 On ch=1 n=c#4 v=69
161720 On ch=1 n=a#5 v=69
161722 On ch=1 n=b3 v=0
161723 On ch=1 n=d5 v=0
161724 On ch=1 n=f#5 v=0
161744 On ch=1 n=d6 v=0
161756 On ch=1 n=e5 v=57
161764 On ch=1 n=a#5 v=0
161794 On ch=1 n=g5 v=61
161832 On ch=1 n=a#5 v=77
161866 On ch=1 n=e6 v=69
161870 On ch=1 n=e5 v=0
161874 On ch=1 n=a#5 v=0
161904 On ch=1 n=g5 v=0
161904 On ch=1 n=g6 v=65
161912 On ch=1 n=e6 v=0
161940 On ch=1 n=c#7 v=69
161946 On ch=1 n=f#3 v=53
161949 On ch=1 n=b2 v=0
161949 On ch=1 n=b2 v=45
161952 On ch=1 n=g6 v=0
161964 On ch=1 n=c#4 v=0
161966 On ch=1 n=b2 v=0
161978 On ch=1 n=e6 v=61
162018 On ch=1 n=a#6 v=61
162023 On ch=1 n=c#7 v=0
162054 On ch=1 n=e6 v=0
162056 On ch=1 n=d7 v=69
162061 On ch=1 n=a#6 v=0
162061 On ch=1 n=b3 v=61
162075 On ch=1 n=f#3 v=0
162095 On ch=1 n=d6 v=49
162100 On ch=1 n=d7 v=0
162133 On ch=1 n=f#6 v=61
162143 On ch=1 n=d6 v=0
162173 On ch=1 n=a#6 v=69
162173 On ch=1 n=c#4 v=73
162179 On ch=1 n=b2 v=61
162180 On ch=1 n=f#6 v=0
162183 On ch=1 n=b3 v=0
162215 On ch=1 n=g6 v=57
162252 On ch=1 n=e6 v=45
162290 On ch=1 n=a#5 v=45
162331 On ch=1 n=g5 v=29
162366 On ch=1 n=e5 v=41
162374 On ch=1 n=g5 v=0
162405 On ch=1 n=e5 v=0
162406 On ch=1 n=a#5 v=0
162407 On ch=1 n=a#6 v=0
162407 On ch=1 n=b2 v=0
162408 On ch=1 n=e6 v=0
162408 On ch=1 n=b2 v=61
162409 On ch=1 n=c#6 v=61
162409 On ch=1 n=f#3 v=61
162411 On ch=1 n=g6 v=0
162417 On ch=1 n=c#4 v=0
162428 On ch=1 n=b2 v=0
162447 On ch=1 n=e5 v=29
162486 On ch=1 n=a#5 v=53
162524 On ch=1 n=d6 v=53
162525 On ch=1 n=b3 v=61
162527 On ch=1 n=a#5 v=0
162527 On ch=1 n=e5 v=0
162529 On ch=1 n=f#3 v=0
162562 On ch=1 n=d5 v=45
162601 On ch=1 n=f#5 v=49
162639 On ch=1 n=c#4 v=65
162639 On ch=1 n=a#5 v=65
162640 On ch=1 n=b2 v=41
162644 On ch=1 n=f#5 v=0
162646 On ch=1 n=d5 v=0
162647 On ch=1 n=b3 v=0
162674 On ch=1 n=e5 v=37
162691 On ch=1 n=d6 v=0
162697 On ch=1 n=c#6 v=0
162715 On ch=1 n=a#5 v=0
162719 On ch=1 n=g5 v=53
162751 On ch=1 n=e5 v=0
162755 On ch=1 n=b5 v=61
162755 On ch=1 n=d4 v=77
162760 On ch=1 n=c#4 v=0
162760 On ch=1 n=g5 v=0
162795 On ch=1 n=d5 v=29
162838 On ch=1 n=f#5 v=53
162869 On ch=1 n=b3 v=69
162870 On ch=1 n=e4 v=61
162875 On ch=1 n=g5 v=45
162879 On ch=1 n=f#5 v=0
162883 On ch=1 n=g5 v=0
162883 On ch=1 n=g5 v=57
162885 On ch=1 n=d4 v=0
162889 On ch=1 n=b2 v=0
162890 On ch=1 n=d5 v=0
162899 On ch=1 n=b5 v=0
162920 On ch=1 n=b4 v=49
162953 On ch=1 n=g5 v=0
162955 On ch=1 n=c#5 v=69
162995 On ch=1 n=c#5 v=0
162995 On ch=1 n=b4 v=0
162995 On ch=1 n=e4 v=0
162996 On ch=1 n=g5 v=57
162997 On ch=1 n=d4 v=57
163032 On ch=1 n=b4 v=61
163041 On ch=1 n=b3 v=0
163048 On ch=1 n=e4 v=89
163049 On ch=1 n=d4 v=0
163074 On ch=1 n=c#5 v=65
163088 On ch=1 n=b4 v=0
163097 On ch=1 n=c#5 v=0
163106 On ch=1 n=b3 v=85
163107 On ch=1 n=d4 v=85
163110 On ch=1 n=e4 v=0
163148 On ch=1 n=b4 v=61
163187 On ch=1 n=c#5 v=61
163201 On ch=1 n=b4 v=0
163223 On ch=1 n=c#4 v=69
163225 On ch=1 n=d4 v=0
163225 On ch=1 n=c#5 v=0
163226 On ch=1 n=f#5 v=61
163264 On ch=1 n=a#4 v=61
163293 On ch=1 n=g5 v=0
163304 On ch=1 n=e5 v=37
163345 On ch=1 n=f#5 v=0
163345 On ch=1 n=b3 v=0
163346 On ch=1 n=b2 v=45
163346 On ch=1 n=f#5 v=69
163347 On ch=1 n=b3 v=53
163348 On ch=1 n=e5 v=0
163368 On ch=1 n=a#4 v=0
163383 On ch=1 n=a4 v=49
163386 On ch=1 n=f#5 v=0
163423 On ch=1 n=d#5 v=41
163429 On ch=1 n=c#4 v=0
163438 On ch=1 n=b3 v=0
163457 On ch=1 n=e4 v=65
163461 On ch=1 n=g5 v=61
163463 On ch=1 n=a4 v=0
163464 On ch=1 n=d#5 v=0
163499 On ch=1 n=g5 v=0
163500 On ch=1 n=g4 v=61
163541 On ch=1 n=b4 v=61
163573 On ch=1 n=g4 v=0
163574 On ch=1 n=f#4 v=61
163578 On ch=1 n=b3 v=53
163578 On ch=1 n=c#5 v=65
163579 On ch=1 n=e4 v=0
163580 On ch=1 n=b2 v=0
163585 On ch=1 n=b4 v=0
163619 On ch=1 n=e4 v=57
163652 On ch=1 n=a#4 v=69
163654 On ch=1 n=c#5 v=0
163692 On ch=1 n=c#5 v=61
163731 On ch=1 n=e5 v=57
163767 On ch=1 n=a#5 v=61
163777 On ch=1 n=e5 v=0
163786 On ch=1 n=c#5 v=0
163787 On ch=1 n=a#4 v=0
163794 On ch=1 n=e4 v=0
163798 On ch=1 n=a#5 v=0
163805 On ch=1 n=b2 v=61
163807 On ch=1 n=d#6 v=69
163810 On ch=1 n=b3 v=0
163811 On ch=1 n=b3 v=53
163827 On ch=1 n=b3 v=0
163829 On ch=1 n=f#4 v=0
163848 On ch=1 n=a5 v=49
163884 On ch=1 n=c6 v=53
163921 On ch=1 n=a5 v=0
163922 On ch=1 n=e6 v=69
163923 On ch=1 n=b2 v=0
163927 On ch=1 n=c6 v=0
163928 On ch=1 n=e4 v=69
163962 On ch=1 n=e6 v=0
163963 On ch=1 n=d#6 v=0
163963 On ch=1 n=g5 v=57
164001 On ch=1 n=b5 v=61
164006 On ch=1 n=g5 v=0
164045 On ch=1 n=b5 v=0
164045 On ch=1 n=f#4 v=73
164046 On ch=1 n=b3 v=61
164047 On ch=1 n=a#5 v=61
164053 On ch=1 n=e4 v=0
164088 On ch=1 n=e5 v=41
164128 On ch=1 n=g5 v=53
164131 On ch=1 n=a#5 v=0
164167 On ch=1 n=a#5 v=61
164209 On ch=1 n=e6 v=57
164246 On ch=1 n=g6 v=65
164250 On ch=1 n=e6 v=0
164277 On ch=1 n=e5 v=0
164280 On ch=1 n=g6 v=0
164281 On ch=1 n=a#5 v=0
164284 On ch=1 n=g5 v=0
164285 On ch=1 n=b6 v=57
164285 On ch=1 n=b2 v=53
164288 On ch=1 n=b3 v=0
164288 On ch=1 n=b3 v=53
164299 On ch=1 n=b3 v=0
164299 On ch=1 n=f#4 v=0
164325 On ch=1 n=d#6 v=41
164365 On ch=1 n=a6 v=53
164373 On ch=1 n=b6 v=0
164400 On ch=1 n=e4 v=57
164405 On ch=1 n=c7 v=69
164411 On ch=1 n=a6 v=0
164412 On ch=1 n=d#6 v=0
164444 On ch=1 n=c7 v=0
164444 On ch=1 n=e6 v=49
164483 On ch=1 n=g6 v=61
164491 On ch=1 n=e6 v=0
164519 On ch=1 n=b2 v=0
164521 On ch=1 n=e4 v=0
164524 On ch=1 n=a6 v=69
164526 On ch=1 n=f#4 v=61
164526 On ch=1 n=b3 v=57
164529 On ch=1 n=g6 v=0
164563 On ch=1 n=c6 v=37
164568 On ch=1 n=a6 v=0
164601 On ch=1 n=d6 v=57
164631 On ch=1 n=c6 v=0
164638 On ch=1 n=g6 v=53
164643 On ch=1 n=g4 v=81
164648 On ch=1 n=d6 v=0
164648 On ch=1 n=f#4 v=0
164682 On ch=1 n=b5 v=45
164716 On ch=1 n=b5 v=0
164721 On ch=1 n=e6 v=57
164723 On ch=1 n=g6 v=0
164757 On ch=1 n=g4 v=0
164759 On ch=1 n=d#6 v=69
164763 On ch=1 n=b3 v=0
164765 On ch=1 n=a4 v=69
164766 On ch=1 n=e6 v=0
164768 On ch=1 n=b3 v=61
164800 On ch=1 n=f#5 v=33
164834 On ch=1 n=c6 v=57
164878 On ch=1 n=f#5 v=0
164879 On ch=1 n=e6 v=65
164888 On ch=1 n=c6 v=0
164888 On ch=1 n=g4 v=69
164894 On ch=1 n=a4 v=0
164923 On ch=1 n=e5 v=53
164933 On ch=1 n=d#6 v=0
164935 On ch=1 n=e6 v=0
164949 On ch=1 n=f#4 v=73
164955 On ch=1 n=g4 v=0
164962 On ch=1 n=b3 v=0
164963 On ch=1 n=b5 v=57
165009 On ch=1 n=c6 v=61
165013 On ch=1 n=b3 v=69
165014 On ch=1 n=e4 v=69
165015 On ch=1 n=e5 v=0
165029 On ch=1 n=f#4 v=0
165059 On ch=1 n=e5 v=41
165063 On ch=1 n=b5 v=0
165066 On ch=1 n=c6 v=0
165100 On ch=1 n=g5 v=53
165140 On ch=1 n=e5 v=0
165143 On ch=1 n=a#5 v=61
165148 On ch=1 n=e4 v=0
165149 On ch=1 n=b3 v=0
165149 On ch=1 n=c4 v=65
165152 On ch=1 n=g5 v=0
165188 On ch=1 n=e5 v=49
165191 On ch=1 n=a#5 v=0
165235 On ch=1 n=f#5 v=65
165240 On ch=1 n=e5 v=0
165283 On ch=1 n=b5 v=57
165285 On ch=1 n=b3 v=69
165288 On ch=1 n=f#5 v=0
165289 On ch=1 n=c4 v=0
165289 On ch=1 n=a3 v=69
165330 On ch=1 n=b4 v=53
165333 On ch=1 n=b5 v=0
165378 On ch=1 n=d#5 v=65
165389 On ch=1 n=b4 v=0
165425 On ch=1 n=e5 v=61
165431 On ch=1 n=d#5 v=0
165436 On ch=1 n=g3 v=61
165441 On ch=1 n=a3 v=0
165463 On ch=1 n=b3 v=0
165472 On ch=1 n=e5 v=0
165478 On ch=1 n=e4 v=49
165504 On ch=1 n=f#3 v=77
165510 On ch=1 n=g3 v=0
165527 On ch=1 n=b4 v=53
165545 On ch=1 n=e4 v=0
165571 On ch=1 n=f#3 v=0
165576 On ch=1 n=b3 v=65
165576 On ch=1 n=e3 v=69
165577 On ch=1 n=c5 v=57
165595 On ch=1 n=b4 v=0
165627 On ch=1 n=e4 v=65
165638 On ch=1 n=c5 v=0
165682 On ch=1 n=g4 v=61
165694 On ch=1 n=e4 v=0
165744 On ch=1 n=e3 v=0
165744 On ch=1 n=c3 v=69
165746 On ch=1 n=a#4 v=65
165752 On ch=1 n=g4 v=0
165787 On ch=1 n=b3 v=0
165810 On ch=1 n=a#4 v=0
165812 On ch=1 n=e4 v=57
165883 On ch=1 n=f#4 v=61
165888 On ch=1 n=e4 v=0
165947 On ch=1 n=b2 v=61
165953 On ch=1 n=f#6 v=41
165990 On ch=1 n=c3 v=0
166008 On ch=1 n=f#4 v=0
166027 On ch=1 n=d#4 v=49
166109 On ch=1 n=f#4 v=57
166186 On ch=1 n=d#4 v=0
166191 On ch=1 n=b6 v=49
166192 On ch=1 n=f#4 v=0
166193 On ch=1 n=b4 v=53
166199 On ch=1 n=f#6 v=0
166270 On ch=1 n=d#4 v=41
166288 On ch=1 n=b4 v=0
166348 On ch=1 n=f#4 v=53
166413 On ch=1 n=d#4 v=0
166421 On ch=1 n=f#4 v=0
166423 On ch=1 n=b3 v=33
166423 On ch=1 n=e3 v=57
166433 On ch=1 n=b2 v=0
166445 On ch=1 n=b6 v=0
166516 On ch=1 n=g4 v=61
166594 On ch=1 n=c5 v=49
166598 On ch=1 n=g4 v=0
166674 On ch=1 n=c3 v=77
166746 On ch=1 n=c5 v=0
166746 On ch=1 n=e4 v=57
166821 On ch=1 n=a#4 v=49
166902 On ch=1 n=b2 v=61
166908 On ch=1 n=f#6 v=41
166957 On ch=1 n=e4 v=0
166962 On ch=1 n=a#4 v=0
166967 On ch=1 n=e3 v=0
166971 On ch=1 n=b3 v=0
166977 On ch=1 n=c3 v=0
166980 On ch=1 n=d#4 v=49
167060 On ch=1 n=f#4 v=57
167143 On ch=1 n=d#4 v=0
167147 On ch=1 n=b6 v=49
167152 On ch=1 n=f#4 v=0
167152 On ch=1 n=b4 v=53
167156 On ch=1 n=f#6 v=0
167235 On ch=1 n=d#4 v=41
167258 On ch=1 n=b4 v=0
167324 On ch=1 n=f#4 v=53
167393 On ch=1 n=d#4 v=0
167403 On ch=1 n=f#4 v=0
167404 On ch=1 n=b3 v=33
167404 On ch=1 n=e3 v=57
167411 On ch=1 n=b2 v=0
167423 On ch=1 n=b6 v=0
167481 On ch=1 n=g4 v=61
167560 On ch=1 n=c5 v=49
167564 On ch=1 n=g4 v=0
167642 On ch=1 n=c3 v=77
167713 On ch=1 n=c5 v=0
167714 On ch=1 n=e4 v=57
167795 On ch=1 n=a#4 v=49
167884 On ch=1 n=b2 v=61
167888 On ch=1 n=f#6 v=41
167939 On ch=1 n=e4 v=0
167945 On ch=1 n=a#4 v=0
167949 On ch=1 n=e3 v=0
167957 On ch=1 n=b3 v=0
167959 On ch=1 n=c3 v=0
167966 On ch=1 n=d#4 v=49
168047 On ch=1 n=f#4 v=57
168121 On ch=1 n=d#4 v=0
168126 On ch=1 n=b6 v=49
168127 On ch=1 n=f#4 v=0
168130 On ch=1 n=b4 v=53
168134 On ch=1 n=f#6 v=0
168205 On ch=1 n=d#4 v=41
168224 On ch=1 n=b4 v=0
168284 On ch=1 n=f#4 v=53
168358 On ch=1 n=d#4 v=0
168364 On ch=1 n=b2 v=0
168364 On ch=1 n=b2 v=85
168366 On ch=1 n=f#4 v=0
168389 On ch=1 n=b6 v=0
168456 On ch=1 n=d4 v=53
168523 On ch=1 n=b2 v=0
168541 On ch=1 n=f#4 v=45
168625 On ch=1 n=b4 v=53
168627 On ch=1 n=d4 v=0
168635 On ch=1 n=f#4 v=0
168709 On ch=1 n=d4 v=33
168729 On ch=1 n=b4 v=0
168792 On ch=1 n=f#4 v=65
168816 On ch=1 n=d4 v=0
168894 On ch=1 n=b2 v=57
168903 On ch=1 n=f#4 v=0
168990 On ch=1 n=d#4 v=49
169095 On ch=1 n=f#4 v=53
169176 On ch=1 n=d#4 v=0
169191 On ch=1 n=f#4 v=0
169195 On ch=1 n=b4 v=57
169287 On ch=1 n=d#4 v=53
169401 On ch=1 n=f#4 v=61
169407 On ch=1 n=b2 v=0
169414 On ch=1 n=d#4 v=0
169533 On ch=1 n=f#4 v=0
169534 On ch=1 n=b2 v=61
169535 On ch=1 n=b1 v=61
169581 On ch=1 n=b4 v=0
171003 On ch=1 n=b1 v=0
171003 On ch=1 n=b2 v=0
171003 Meta TrkEnd
TrkEnd
