MFile 1 2 480
MTrk
0 TimeSig 4/4 24 8
0 Tempo 500000
201600 Tempo 600000
203520 Tempo 576923
205440 Tempo 545455
207360 Tempo 535714
209280 Tempo 517241
211200 Tempo 500000
280320 Tempo 576923
284160 Tempo 545455
286080 Tempo 526316
288000 Tempo 500000
301440 Tempo 416667
307200 Tempo 454545
309120 Tempo 476190
311040 Tempo 500000
311040 Meta TrkEnd
TrkEnd
MTrk
0 SeqSpec 43 00 01 00
0 Meta TrkName "Frederic Chopin:"
0 PrCh ch=1 p=0
0 Par ch=1 c=7 v=95
72 On ch=1 n=a#4 v=48
74 On ch=1 n=a#3 v=48
108 Par ch=1 c=64 v=127
326 On ch=1 n=a#4 v=0
554 On ch=1 n=a#3 v=0
592 On ch=1 n=a4 v=31
592 On ch=1 n=a3 v=31
650 On ch=1 n=a#4 v=35
680 On ch=1 n=a#3 v=46
692 Par ch=1 c=64 v=0
708 On ch=1 n=c#4 v=37
720 On ch=1 n=c#5 v=50
728 On ch=1 n=a3 v=0
744 On ch=1 n=a4 v=0
778 On ch=1 n=a#4 v=0
782 On ch=1 n=f5 v=39
792 On ch=1 n=a#3 v=0
792 On ch=1 n=f4 v=39
814 On ch=1 n=c#5 v=0
816 On ch=1 n=c#4 v=0
850 On ch=1 n=f4 v=0
856 On ch=1 n=f5 v=0
1256 On ch=1 n=a4 v=28
1272 On ch=1 n=a3 v=28
1318 On ch=1 n=a#3 v=33
1320 On ch=1 n=a#4 v=33
1352 On ch=1 n=a3 v=0
1384 On ch=1 n=c#4 v=28
1388 On ch=1 n=a4 v=0
1402 On ch=1 n=c#5 v=33
1448 On ch=1 n=a#3 v=0
1460 On ch=1 n=a#4 v=0
1464 On ch=1 n=f5 v=41
1496 On ch=1 n=c#5 v=0
1504 On ch=1 n=f4 v=15
1510 On ch=1 n=c#4 v=0
1672 Par ch=1 c=64 v=127
1900 On ch=1 n=f5 v=0
1954 On ch=1 n=f4 v=0
2528 Par ch=1 c=64 v=0
2636 On ch=1 n=a#4 v=93
2644 On ch=1 n=a#2 v=93
2648 On ch=1 n=a#3 v=90
2688 Par ch=1 c=64 v=127
2700 On ch=1 n=a#3 v=0
2700 On ch=1 n=a#4 v=0
2702 On ch=1 n=a#2 v=0
3338 On ch=1 n=a#7 v=93
3352 On ch=1 n=f#7 v=93
3352 On ch=1 n=a#6 v=93
3352 On ch=1 n=a#5 v=96
3352 On ch=1 n=c5 v=80
3370 On ch=1 n=f#5 v=82
3370 On ch=1 n=a#4 v=80
3380 On ch=1 n=d#5 v=78
3402 Par ch=1 c=64 v=0
3484 Par ch=1 c=64 v=127
3834 On ch=1 n=a#4 v=0
3924 On ch=1 n=d#5 v=0
3944 On ch=1 n=f#7 v=0
3962 On ch=1 n=a#7 v=0
4000 On ch=1 n=f#5 v=0
4008 On ch=1 n=a#6 v=0
4038 On ch=1 n=c5 v=0
4068 On ch=1 n=a#5 v=0
4454 On ch=1 n=d#6 v=79
4462 On ch=1 n=d#7 v=83
4468 On ch=1 n=c7 v=81
4468 On ch=1 n=a#5 v=80
4484 On ch=1 n=c5 v=73
4486 On ch=1 n=f#5 v=75
4486 On ch=1 n=a#4 v=64
4528 On ch=1 n=d#6 v=0
4530 On ch=1 n=a#4 v=0
4530 On ch=1 n=c7 v=0
4544 On ch=1 n=f#5 v=0
4548 On ch=1 n=a#5 v=0
4554 On ch=1 n=c5 v=0
4562 On ch=1 n=d#7 v=0
4676 On ch=1 n=c7 v=82
4676 On ch=1 n=f6 v=74
4682 On ch=1 n=a#4 v=75
4688 On ch=1 n=f7 v=82
4688 On ch=1 n=f#5 v=69
4694 On ch=1 n=a#5 v=90
4702 On ch=1 n=c5 v=75
4718 On ch=1 n=f#5 v=0
4724 On ch=1 n=f6 v=0
4728 On ch=1 n=c7 v=0
4736 On ch=1 n=a#5 v=0
4736 On ch=1 n=f7 v=0
4742 On ch=1 n=c5 v=0
4752 On ch=1 n=a#4 v=0
4760 On ch=1 n=c7 v=94
4760 On ch=1 n=f#6 v=87
4768 On ch=1 n=f#7 v=98
4780 On ch=1 n=f#5 v=82
4780 On ch=1 n=a#4 v=69
4792 On ch=1 n=a#5 v=87
4792 On ch=1 n=c5 v=74
4836 On ch=1 n=c7 v=0
4850 On ch=1 n=f#6 v=0
4866 On ch=1 n=f#7 v=0
4872 On ch=1 n=c5 v=0
4876 On ch=1 n=a#5 v=0
4878 On ch=1 n=f#5 v=0
4884 On ch=1 n=a#4 v=0
4966 Par ch=1 c=64 v=0
4992 On ch=1 n=a#4 v=55
5008 On ch=1 n=c#7 v=96
5008 On ch=1 n=f6 v=86
5008 On ch=1 n=a#5 v=83
5028 On ch=1 n=f7 v=90
5028 On ch=1 n=f5 v=73
5028 On ch=1 n=c#5 v=66
5062 Par ch=1 c=64 v=127
5080 On ch=1 n=a#5 v=0
5084 On ch=1 n=f6 v=0
5092 On ch=1 n=f5 v=0
5092 On ch=1 n=f7 v=0
5108 On ch=1 n=c#5 v=0
5108 On ch=1 n=c#7 v=0
5130 On ch=1 n=a#4 v=0
5448 On ch=1 n=a3 v=32
5458 On ch=1 n=a4 v=50
5486 On ch=1 n=a#3 v=32
5508 On ch=1 n=a#4 v=47
5514 Par ch=1 c=64 v=0
5532 On ch=1 n=c#4 v=38
5544 On ch=1 n=a3 v=0
5568 On ch=1 n=c#5 v=52
5576 On ch=1 n=a4 v=0
5620 On ch=1 n=a#3 v=0
5626 On ch=1 n=f4 v=45
5638 On ch=1 n=a#4 v=0
5638 On ch=1 n=f5 v=52
5648 On ch=1 n=c#4 v=0
5656 On ch=1 n=c#5 v=0
5698 On ch=1 n=f5 v=0
5698 On ch=1 n=f4 v=0
6104 On ch=1 n=a4 v=30
6116 On ch=1 n=a3 v=32
6176 On ch=1 n=a#3 v=36
6182 On ch=1 n=a#4 v=40
6218 On ch=1 n=a3 v=0
6232 On ch=1 n=c#4 v=35
6252 On ch=1 n=a4 v=0
6256 On ch=1 n=c#5 v=42
6312 On ch=1 n=a#3 v=0
6324 On ch=1 n=a#4 v=0
6338 On ch=1 n=f5 v=36
6344 On ch=1 n=f4 v=31
6368 On ch=1 n=c#5 v=0
6374 On ch=1 n=c#4 v=0
6468 Par ch=1 c=64 v=127
6754 On ch=1 n=f5 v=0
6846 On ch=1 n=f4 v=0
7384 Par ch=1 c=64 v=0
7442 On ch=1 n=g#4 v=93
7448 On ch=1 n=g#2 v=87
7450 On ch=1 n=g#3 v=86
7496 Par ch=1 c=64 v=127
7512 On ch=1 n=g#3 v=0
7520 On ch=1 n=g#2 v=0
7520 On ch=1 n=g#4 v=0
8142 Par ch=1 c=64 v=0
8164 On ch=1 n=g#7 v=93
8168 On ch=1 n=c#6 v=93
8168 On ch=1 n=f5 v=80
8168 On ch=1 n=g#4 v=82
8172 On ch=1 n=f7 v=93
8172 On ch=1 n=g#6 v=107
8230 Par ch=1 c=64 v=127
8584 On ch=1 n=c#6 v=0
8634 On ch=1 n=f5 v=0
8656 On ch=1 n=f7 v=0
8684 On ch=1 n=g#7 v=0
8732 On ch=1 n=g#6 v=0
8788 On ch=1 n=g#4 v=0
9240 On ch=1 n=d#7 v=90
9240 On ch=1 n=f#5 v=81
9252 On ch=1 n=d#6 v=86
9252 On ch=1 n=g#5 v=86
9252 On ch=1 n=g#4 v=74
9264 On ch=1 n=c7 v=82
9264 On ch=1 n=d#5 v=79
9300 On ch=1 n=g#4 v=0
9306 On ch=1 n=d#6 v=0
9312 On ch=1 n=c7 v=0
9318 On ch=1 n=d#5 v=0
9318 On ch=1 n=g#5 v=0
9318 On ch=1 n=f#5 v=0
9350 On ch=1 n=d#7 v=0
9488 On ch=1 n=c7 v=82
9494 On ch=1 n=f6 v=66
9504 On ch=1 n=f#5 v=100
9504 On ch=1 n=g#4 v=83
9512 On ch=1 n=f7 v=93
9512 On ch=1 n=g#5 v=96
9520 On ch=1 n=d#5 v=69
9540 On ch=1 n=f6 v=0
9542 On ch=1 n=c7 v=0
9546 On ch=1 n=f7 v=0
9550 On ch=1 n=d#5 v=0
9554 On ch=1 n=f#5 v=0
9558 On ch=1 n=g#5 v=0
9564 On ch=1 n=g#4 v=0
9580 On ch=1 n=f#6 v=100
9582 On ch=1 n=f#7 v=88
9582 On ch=1 n=c7 v=73
9598 On ch=1 n=g#5 v=80
9598 On ch=1 n=f#5 v=86
9598 On ch=1 n=g#4 v=79
9610 On ch=1 n=d#5 v=73
9642 On ch=1 n=c7 v=0
9658 On ch=1 n=d#5 v=0
9680 On ch=1 n=f#5 v=0
9684 On ch=1 n=g#5 v=0
9684 On ch=1 n=f#6 v=0
9694 On ch=1 n=f#7 v=0
9702 On ch=1 n=g#4 v=0
9798 Par ch=1 c=64 v=0
9836 On ch=1 n=c#7 v=82
9836 On ch=1 n=f6 v=75
9838 On ch=1 n=f7 v=82
9852 On ch=1 n=g#5 v=86
9852 On ch=1 n=c#5 v=79
9864 On ch=1 n=f5 v=79
9876 Par ch=1 c=64 v=127
9910 On ch=1 n=f7 v=0
9922 On ch=1 n=c#7 v=0
9932 On ch=1 n=f5 v=0
9932 On ch=1 n=f6 v=0
9944 On ch=1 n=g#5 v=0
9968 On ch=1 n=c#5 v=0
10340 Par ch=1 c=64 v=0
10364 On ch=1 n=f6 v=86
10372 On ch=1 n=a5 v=82
10372 On ch=1 n=f5 v=79
10380 On ch=1 n=c5 v=79
10380 On ch=1 n=f4 v=83
10424 Par ch=1 c=64 v=127
10476 On ch=1 n=f6 v=0
10500 On ch=1 n=f5 v=0
10500 On ch=1 n=a5 v=0
10510 On ch=1 n=c5 v=0
10546 On ch=1 n=f4 v=0
10940 On ch=1 n=f5 v=86
10946 On ch=1 n=a4 v=82
10946 On ch=1 n=f3 v=82
10948 On ch=1 n=f4 v=81
10948 On ch=1 n=c4 v=82
11142 On ch=1 n=f5 v=0
11176 On ch=1 n=f4 v=0
11180 On ch=1 n=a4 v=0
11196 On ch=1 n=c4 v=0
11232 On ch=1 n=f3 v=0
11626 On ch=1 n=f2 v=89
11638 On ch=1 n=f3 v=102
11698 Par ch=1 c=64 v=0
11858 Par ch=1 c=64 v=127
13102 On ch=1 n=f3 v=0
13104 On ch=1 n=f#3 v=109
13114 On ch=1 n=f#2 v=109
13130 On ch=1 n=f#3 v=0
13132 On ch=1 n=f2 v=0
13148 Par ch=1 c=64 v=0
13160 On ch=1 n=f#2 v=0
15038 On ch=1 n=a3 v=24
15048 On ch=1 n=a4 v=25
15076 On ch=1 n=a#3 v=33
15092 On ch=1 n=a#4 v=34
15092 Par ch=1 c=64 v=127
15128 On ch=1 n=c#4 v=23
15142 On ch=1 n=a3 v=0
15156 On ch=1 n=c#5 v=37
15200 On ch=1 n=a4 v=0
15206 Par ch=1 c=64 v=0
15222 On ch=1 n=f5 v=41
15228 On ch=1 n=a#4 v=0
15234 On ch=1 n=a#3 v=0
15234 On ch=1 n=f4 v=32
15246 On ch=1 n=c#5 v=0
15252 On ch=1 n=c#4 v=0
15276 On ch=1 n=f5 v=0
15292 On ch=1 n=f4 v=0
15708 On ch=1 n=a4 v=21
15764 On ch=1 n=a#4 v=31
15772 On ch=1 n=a#3 v=28
15784 On ch=1 n=a3 v=2
15824 On ch=1 n=c#4 v=14
15834 On ch=1 n=c#5 v=31
15852 On ch=1 n=a3 v=0
15852 On ch=1 n=a4 v=0
15906 On ch=1 n=f5 v=31
15922 On ch=1 n=f4 v=14
15928 On ch=1 n=a#3 v=0
15928 On ch=1 n=a#4 v=0
15940 On ch=1 n=c#5 v=0
15948 On ch=1 n=c#4 v=0
16084 Par ch=1 c=64 v=127
16436 On ch=1 n=f4 v=0
16448 On ch=1 n=f5 v=0
16792 Par ch=1 c=64 v=0
16892 On ch=1 n=a#4 v=96
16892 On ch=1 n=a#2 v=91
16900 On ch=1 n=a#3 v=91
16936 Par ch=1 c=64 v=127
16954 On ch=1 n=a#3 v=0
16956 On ch=1 n=a#2 v=0
16960 On ch=1 n=a#4 v=0
17514 On ch=1 n=a#7 v=102
17514 On ch=1 n=a#4 v=82
17524 On ch=1 n=a#6 v=97
17534 On ch=1 n=c5 v=86
17536 On ch=1 n=f#7 v=93
17536 On ch=1 n=a#5 v=96
17536 On ch=1 n=f#5 v=86
17536 On ch=1 n=d#5 v=86
17560 Par ch=1 c=64 v=0
17666 Par ch=1 c=64 v=127
17748 On ch=1 n=a#4 v=0
17768 On ch=1 n=d#5 v=0
17788 On ch=1 n=f#5 v=0
17866 On ch=1 n=a#7 v=0
17876 On ch=1 n=f#7 v=0
17892 On ch=1 n=a#5 v=0
17904 On ch=1 n=c5 v=0
17904 On ch=1 n=a#6 v=0
18384 On ch=1 n=a#5 v=65
18396 On ch=1 n=d#6 v=66
18398 On ch=1 n=d#7 v=69
18398 On ch=1 n=c5 v=59
18400 On ch=1 n=d#5 v=55
18408 On ch=1 n=a#4 v=52
18410 On ch=1 n=c7 v=64
18410 On ch=1 n=f#5 v=55
18428 On ch=1 n=f#5 v=0
18430 On ch=1 n=d#5 v=0
18434 On ch=1 n=a#4 v=0
18434 On ch=1 n=d#7 v=0
18436 On ch=1 n=d#6 v=0
18444 On ch=1 n=c7 v=0
18448 On ch=1 n=c5 v=0
18448 On ch=1 n=a#5 v=0
18476 On ch=1 n=c5 v=58
18482 On ch=1 n=a#4 v=59
18484 On ch=1 n=d#6 v=69
18484 On ch=1 n=a#5 v=63
18496 On ch=1 n=d#5 v=55
18500 On ch=1 n=d#7 v=70
18500 On ch=1 n=c7 v=73
18502 On ch=1 n=f#5 v=59
18548 On ch=1 n=d#6 v=0
18556 On ch=1 n=a#5 v=0
18560 On ch=1 n=f#5 v=0
18560 On ch=1 n=c7 v=0
18572 On ch=1 n=c5 v=0
18578 On ch=1 n=d#7 v=0
18580 On ch=1 n=a#4 v=0
18616 On ch=1 n=d#5 v=0
18710 On ch=1 n=c5 v=66
18710 On ch=1 n=a#4 v=64
18720 On ch=1 n=d#5 v=55
18726 On ch=1 n=d#7 v=72
18726 On ch=1 n=c7 v=70
18726 On ch=1 n=d#6 v=73
18728 On ch=1 n=a#5 v=77
18728 On ch=1 n=f#5 v=69
18750 On ch=1 n=d#5 v=0
18770 On ch=1 n=f#5 v=0
18770 On ch=1 n=d#6 v=0
18784 On ch=1 n=c7 v=0
18788 On ch=1 n=a#5 v=0
18796 On ch=1 n=a#4 v=0
18800 On ch=1 n=c5 v=0
18806 On ch=1 n=d#7 v=0
18948 On ch=1 n=c7 v=64
18960 On ch=1 n=f6 v=55
18960 On ch=1 n=f#5 v=55
18960 On ch=1 n=d#5 v=55
18968 On ch=1 n=a#5 v=73
18968 On ch=1 n=c5 v=64
18968 On ch=1 n=a#4 v=58
18988 On ch=1 n=f7 v=69
18990 On ch=1 n=d#5 v=0
18990 On ch=1 n=f#5 v=0
18994 On ch=1 n=f6 v=0
19012 On ch=1 n=f7 v=0
19012 On ch=1 n=c7 v=0
19020 On ch=1 n=a#5 v=0
19024 On ch=1 n=c5 v=0
19028 On ch=1 n=a#4 v=0
19036 On ch=1 n=c7 v=70
19036 On ch=1 n=f#6 v=69
19042 On ch=1 n=f#7 v=74
19056 On ch=1 n=d#5 v=55
19056 On ch=1 n=a#4 v=59
19062 On ch=1 n=a#5 v=70
19064 On ch=1 n=f#5 v=69
19064 On ch=1 n=c5 v=69
19088 On ch=1 n=c7 v=0
19122 On ch=1 n=f#7 v=0
19126 On ch=1 n=a#5 v=0
19132 On ch=1 n=f#6 v=0
19134 On ch=1 n=f#5 v=0
19138 On ch=1 n=c5 v=0
19140 On ch=1 n=a#4 v=0
19176 On ch=1 n=d#5 v=0
19254 Par ch=1 c=64 v=0
19290 On ch=1 n=a#4 v=2
19304 On ch=1 n=a#5 v=64
19306 On ch=1 n=c#7 v=69
19316 On ch=1 n=f7 v=64
19316 On ch=1 n=f6 v=69
19328 On ch=1 n=f5 v=59
19328 On ch=1 n=c#5 v=58
19364 Par ch=1 c=64 v=127
19380 On ch=1 n=a#5 v=0
19388 On ch=1 n=f5 v=0
19388 On ch=1 n=f7 v=0
19400 On ch=1 n=c#5 v=0
19400 On ch=1 n=c#7 v=0
19404 On ch=1 n=f6 v=0
19418 On ch=1 n=a#4 v=0
19746 On ch=1 n=a4 v=45
19752 On ch=1 n=a3 v=38
19800 Par ch=1 c=64 v=0
19808 On ch=1 n=a#3 v=23
19822 On ch=1 n=a#4 v=46
19854 On ch=1 n=c#4 v=24
19868 On ch=1 n=a3 v=0
19870 On ch=1 n=c#5 v=40
19894 On ch=1 n=a4 v=0
19940 On ch=1 n=a#4 v=0
19944 On ch=1 n=f5 v=53
19944 On ch=1 n=f4 v=32
19952 On ch=1 n=a#3 v=0
19964 On ch=1 n=c#4 v=0
19974 On ch=1 n=c#5 v=0
19998 On ch=1 n=f5 v=0
20006 On ch=1 n=f4 v=0
20410 On ch=1 n=a3 v=28
20416 On ch=1 n=a4 v=33
20476 On ch=1 n=a#4 v=36
20484 On ch=1 n=a#3 v=28
20532 On ch=1 n=a3 v=0
20536 On ch=1 n=a4 v=0
20538 On ch=1 n=c#4 v=22
20548 On ch=1 n=c#5 v=34
20612 On ch=1 n=a#3 v=0
20614 On ch=1 n=a#4 v=0
20632 On ch=1 n=f5 v=30
20648 On ch=1 n=f4 v=18
20664 On ch=1 n=c#5 v=0
20664 On ch=1 n=c#4 v=0
21002 Par ch=1 c=64 v=127
21158 On ch=1 n=f5 v=0
21320 On ch=1 n=f4 v=0
21508 Par ch=1 c=64 v=0
21612 On ch=1 n=c5 v=104
21626 On ch=1 n=c4 v=112
21626 On ch=1 n=c3 v=82
21650 Par ch=1 c=64 v=127
21672 On ch=1 n=c4 v=0
21676 On ch=1 n=c5 v=0
21682 On ch=1 n=c3 v=0
22192 On ch=1 n=c6 v=86
22192 On ch=1 n=c5 v=84
22206 On ch=1 n=g#7 v=87
22206 On ch=1 n=g#5 v=79
22208 On ch=1 n=c8 v=92
22208 On ch=1 n=f5 v=86
22216 On ch=1 n=f7 v=90
22224 On ch=1 n=c7 v=87
22244 Par ch=1 c=64 v=0
22326 Par ch=1 c=64 v=127
22714 On ch=1 n=c8 v=0
22728 On ch=1 n=g#7 v=0
22730 On ch=1 n=f7 v=0
22732 On ch=1 n=f5 v=0
22766 On ch=1 n=g#5 v=0
22772 On ch=1 n=c7 v=0
22782 On ch=1 n=c6 v=0
22788 On ch=1 n=c5 v=0
23208 Par ch=1 c=64 v=0
23232 On ch=1 n=g7 v=69
23232 On ch=1 n=c5 v=67
23246 On ch=1 n=a#5 v=71
23246 On ch=1 n=g5 v=67
23248 On ch=1 n=e7 v=72
23248 On ch=1 n=g6 v=72
23248 On ch=1 n=c6 v=69
23286 Par ch=1 c=64 v=127
23296 On ch=1 n=g6 v=0
23320 On ch=1 n=c5 v=0
23324 On ch=1 n=g7 v=0
23326 On ch=1 n=g5 v=0
23338 On ch=1 n=c6 v=0
23338 On ch=1 n=e7 v=0
23346 On ch=1 n=a#5 v=0
23436 On ch=1 n=a#5 v=78
23440 On ch=1 n=g5 v=78
23454 On ch=1 n=c6 v=74
23456 On ch=1 n=e7 v=69
23456 On ch=1 n=g#6 v=82
23456 On ch=1 n=c5 v=72
23466 On ch=1 n=g#7 v=82
23486 On ch=1 n=e7 v=0
23488 On ch=1 n=g#7 v=0
23496 On ch=1 n=g#6 v=0
23498 On ch=1 n=c5 v=0
23498 On ch=1 n=c6 v=0
23504 On ch=1 n=g5 v=0
23504 On ch=1 n=a#5 v=0
23536 On ch=1 n=a#7 v=75
23536 On ch=1 n=e7 v=69
23536 On ch=1 n=a#5 v=72
23536 On ch=1 n=g5 v=69
23538 On ch=1 n=c5 v=67
23546 On ch=1 n=a#6 v=78
23546 On ch=1 n=c6 v=71
23548 On ch=1 n=a#7 v=0
23556 On ch=1 n=a#7 v=72
23604 On ch=1 n=c5 v=0
23612 On ch=1 n=a#6 v=0
23612 On ch=1 n=g5 v=0
23624 On ch=1 n=a#5 v=0
23634 On ch=1 n=a#7 v=0
23636 On ch=1 n=c6 v=0
23656 On ch=1 n=e7 v=0
23796 Par ch=1 c=64 v=0
23816 On ch=1 n=g#7 v=72
23826 On ch=1 n=f7 v=73
23826 On ch=1 n=c7 v=77
23826 On ch=1 n=f5 v=66
23828 On ch=1 n=g#6 v=85
23840 On ch=1 n=g#5 v=69
23842 On ch=1 n=f6 v=70
23842 On ch=1 n=c6 v=67
23902 Par ch=1 c=64 v=127
23924 On ch=1 n=g#7 v=0
23930 On ch=1 n=c7 v=0
23930 On ch=1 n=f7 v=0
23932 On ch=1 n=f6 v=0
23944 On ch=1 n=c6 v=0
23954 On ch=1 n=g#6 v=0
23960 On ch=1 n=g#5 v=0
23978 On ch=1 n=f5 v=0
24310 On ch=1 n=g#6 v=86
24310 On ch=1 n=f4 v=86
24328 Par ch=1 c=64 v=0
24328 On ch=1 n=f6 v=86
24328 On ch=1 n=c6 v=89
24328 On ch=1 n=f5 v=83
24328 On ch=1 n=c5 v=83
24332 On ch=1 n=g#5 v=96
24376 On ch=1 n=g#5 v=0
24384 On ch=1 n=c6 v=0
24396 On ch=1 n=f5 v=0
24396 On ch=1 n=g#6 v=0
24404 On ch=1 n=f6 v=0
24416 Par ch=1 c=64 v=127
24440 On ch=1 n=c5 v=0
24472 On ch=1 n=f4 v=0
24784 Par ch=1 c=64 v=0
24790 On ch=1 n=g#5 v=83
24802 On ch=1 n=f3 v=86
24812 On ch=1 n=c5 v=89
24812 On ch=1 n=f4 v=86
24814 On ch=1 n=f5 v=79
24814 On ch=1 n=g#4 v=94
24814 On ch=1 n=c4 v=82
24874 Par ch=1 c=64 v=127
25012 On ch=1 n=g#5 v=0
25022 On ch=1 n=f5 v=0
25034 On ch=1 n=c5 v=0
25048 On ch=1 n=f4 v=0
25072 On ch=1 n=c4 v=0
25076 On ch=1 n=g#4 v=0
25098 On ch=1 n=f3 v=0
25366 On ch=1 n=e3 v=102
25376 On ch=1 n=e2 v=100
25396 Par ch=1 c=64 v=0
25512 Par ch=1 c=64 v=127
26412 On ch=1 n=f3 v=109
26412 On ch=1 n=f2 v=109
26436 On ch=1 n=e3 v=0
26452 On ch=1 n=f3 v=0
26452 On ch=1 n=e2 v=0
26460 On ch=1 n=f2 v=0
26538 Par ch=1 c=64 v=0
27846 Par ch=1 c=64 v=127
27854 On ch=1 n=f8 v=96
27872 On ch=1 n=c#3 v=70
27872 On ch=1 n=c#2 v=72
28230 On ch=1 n=g#4 v=62
28230 On ch=1 n=g#3 v=64
28330 On ch=1 n=g#4 v=0
28344 On ch=1 n=g#3 v=0
28416 On ch=1 n=c#5 v=79
28426 On ch=1 n=f4 v=42
28520 On ch=1 n=f4 v=0
28540 On ch=1 n=c#5 v=0
28560 On ch=1 n=d#8 v=57
28624 On ch=1 n=c#8 v=82
28632 On ch=1 n=f8 v=0
28672 On ch=1 n=d#8 v=0
28688 On ch=1 n=g#7 v=72
28722 On ch=1 n=c#8 v=0
28728 On ch=1 n=g#3 v=69
28744 On ch=1 n=g#4 v=41
28756 On ch=1 n=f7 v=77
28760 On ch=1 n=g#7 v=0
28778 On ch=1 n=g#4 v=0
28806 On ch=1 n=f7 v=0
28840 On ch=1 n=d#7 v=94
28846 On ch=1 n=g#3 v=0
28854 On ch=1 n=f4 v=69
28884 On ch=1 n=c#5 v=77
28898 On ch=1 n=c#2 v=0
28906 On ch=1 n=c#7 v=78
28908 On ch=1 n=c#3 v=0
28924 On ch=1 n=d#7 v=0
28996 On ch=1 n=g#6 v=77
29008 On ch=1 n=c#5 v=0
29014 On ch=1 n=c#7 v=0
29060 On ch=1 n=g#6 v=0
29064 On ch=1 n=f6 v=72
29084 On ch=1 n=f4 v=0
29124 On ch=1 n=f6 v=0
29150 On ch=1 n=d#6 v=76
29232 On ch=1 n=c#6 v=79
29252 On ch=1 n=d#6 v=0
29316 Par ch=1 c=64 v=0
29340 On ch=1 n=g#5 v=69
29364 On ch=1 n=c#6 v=0
29538 On ch=1 n=g#5 v=0
29894 On ch=1 n=g#3 v=58
29904 On ch=1 n=f#4 v=52
29904 On ch=1 n=d#4 v=55
29912 On ch=1 n=c6 v=70
29928 Par ch=1 c=64 v=127
29964 On ch=1 n=c#6 v=70
29968 On ch=1 n=g#3 v=0
29978 On ch=1 n=d#4 v=0
29996 On ch=1 n=f#4 v=0
30004 On ch=1 n=c6 v=0
30042 On ch=1 n=d#6 v=64
30066 On ch=1 n=c#6 v=0
30104 On ch=1 n=d#6 v=0
30132 On ch=1 n=f6 v=76
30216 On ch=1 n=f#6 v=65
30254 On ch=1 n=f6 v=0
30286 On ch=1 n=g#6 v=73
30312 On ch=1 n=f#6 v=0
30340 Par ch=1 c=64 v=0
30376 On ch=1 n=a6 v=64
30400 On ch=1 n=f#5 v=58
30408 On ch=1 n=g#6 v=0
30408 On ch=1 n=c5 v=55
30416 On ch=1 n=g4 v=51
30424 Par ch=1 c=64 v=127
30484 On ch=1 n=f#5 v=0
30500 On ch=1 n=c5 v=0
30518 On ch=1 n=a6 v=0
30534 Par ch=1 c=64 v=0
30578 On ch=1 n=g#4 v=56
30580 Par ch=1 c=64 v=127
30584 On ch=1 n=g4 v=0
30592 On ch=1 n=f#5 v=63
30592 On ch=1 n=c5 v=59
30658 On ch=1 n=c5 v=0
30662 On ch=1 n=f#5 v=0
30672 On ch=1 n=g#4 v=0
30738 On ch=1 n=g#4 v=55
30752 On ch=1 n=f#5 v=62
30752 On ch=1 n=c5 v=51
30864 On ch=1 n=c5 v=0
30886 On ch=1 n=g#4 v=0
30902 On ch=1 n=a6 v=70
30960 On ch=1 n=g#6 v=66
30986 On ch=1 n=a6 v=0
30992 On ch=1 n=f#5 v=0
31038 On ch=1 n=g#6 v=0
31044 On ch=1 n=g6 v=75
31116 On ch=1 n=f#6 v=77
31128 On ch=1 n=g6 v=0
31182 On ch=1 n=f6 v=60
31208 On ch=1 n=f#6 v=0
31232 Par ch=1 c=64 v=0
31254 On ch=1 n=e6 v=75
31264 On ch=1 n=f6 v=0
31328 On ch=1 n=c5 v=55
31330 On ch=1 n=a4 v=55
31334 On ch=1 n=f#5 v=61
31344 On ch=1 n=d#6 v=86
31356 On ch=1 n=e6 v=0
31360 Par ch=1 c=64 v=127
31370 On ch=1 n=d#6 v=0
31384 On ch=1 n=c5 v=0
31418 On ch=1 n=f#5 v=0
31498 On ch=1 n=a4 v=0
31518 On ch=1 n=g#4 v=49
31528 On ch=1 n=f#5 v=62
31534 On ch=1 n=c5 v=52
31592 On ch=1 n=c5 v=0
31604 On ch=1 n=f#5 v=0
31608 On ch=1 n=g#4 v=0
31684 On ch=1 n=f#5 v=61
31692 On ch=1 n=g#4 v=58
31704 On ch=1 n=c5 v=54
31732 On ch=1 n=f#5 v=0
31734 On ch=1 n=c5 v=0
31756 On ch=1 n=g#4 v=0
31898 Par ch=1 c=64 v=0
31936 On ch=1 n=f8 v=98
31940 On ch=1 n=c#3 v=71
31948 On ch=1 n=c#2 v=69
32002 Par ch=1 c=64 v=127
32324 On ch=1 n=g#4 v=73
32328 On ch=1 n=g#3 v=71
32426 On ch=1 n=g#4 v=0
32442 On ch=1 n=g#3 v=0
32504 On ch=1 n=f4 v=69
32516 On ch=1 n=c#5 v=92
32628 On ch=1 n=c#5 v=0
32652 On ch=1 n=d#8 v=71
32692 On ch=1 n=f4 v=0
32714 On ch=1 n=f8 v=0
32716 On ch=1 n=c#8 v=87
32760 On ch=1 n=d#8 v=0
32778 On ch=1 n=g#7 v=75
32784 On ch=1 n=g#4 v=57
32784 On ch=1 n=g#3 v=75
32814 On ch=1 n=c#8 v=0
32836 On ch=1 n=f7 v=77
32846 On ch=1 n=g#7 v=0
32856 On ch=1 n=g#4 v=0
32888 On ch=1 n=g#3 v=0
32892 On ch=1 n=f7 v=0
32926 On ch=1 n=d#7 v=90
32936 On ch=1 n=f4 v=67
32956 On ch=1 n=c#5 v=77
32994 On ch=1 n=c#7 v=82
33020 On ch=1 n=d#7 v=0
33038 On ch=1 n=c#2 v=0
33040 On ch=1 n=c#5 v=0
33070 On ch=1 n=c#3 v=0
33070 On ch=1 n=g#6 v=78
33094 On ch=1 n=c#7 v=0
33104 On ch=1 n=f4 v=0
33148 On ch=1 n=g#6 v=0
33160 On ch=1 n=f6 v=60
33196 On ch=1 n=f6 v=0
33236 On ch=1 n=d#6 v=75
33260 Par ch=1 c=64 v=0
33332 On ch=1 n=d#6 v=0
33336 On ch=1 n=c#6 v=43
33420 On ch=1 n=g#5 v=63
33432 On ch=1 n=c#6 v=0
33620 On ch=1 n=g#5 v=0
33954 On ch=1 n=c6 v=54
33954 On ch=1 n=g#3 v=53
33964 On ch=1 n=f#4 v=46
33964 On ch=1 n=d#4 v=48
33998 Par ch=1 c=64 v=127
34016 On ch=1 n=c#6 v=55
34054 On ch=1 n=d#4 v=0
34058 On ch=1 n=g#3 v=0
34068 On ch=1 n=c6 v=0
34092 On ch=1 n=f#4 v=0
34112 On ch=1 n=d#6 v=64
34140 On ch=1 n=c#6 v=0
34178 On ch=1 n=d#6 v=0
34212 On ch=1 n=f6 v=63
34292 On ch=1 n=f#6 v=57
34332 On ch=1 n=f6 v=0
34366 On ch=1 n=g#6 v=58
34406 On ch=1 n=f#6 v=0
34444 On ch=1 n=a6 v=65
34456 On ch=1 n=c5 v=49
34464 On ch=1 n=g#6 v=0
34470 Par ch=1 c=64 v=0
34516 Par ch=1 c=64 v=127
34536 On ch=1 n=c#5 v=39
34542 On ch=1 n=a6 v=0
34570 On ch=1 n=c5 v=0
34606 On ch=1 n=d#5 v=61
34644 On ch=1 n=c#5 v=0
34692 On ch=1 n=f5 v=58
34700 On ch=1 n=d#5 v=0
34768 On ch=1 n=f#5 v=63
34796 On ch=1 n=f5 v=0
34844 Par ch=1 c=64 v=0
34860 On ch=1 n=g#5 v=69
34882 On ch=1 n=f#5 v=0
34928 On ch=1 n=a5 v=60
34944 On ch=1 n=g#5 v=0
34952 On ch=1 n=a6 v=51
34974 Par ch=1 c=64 v=127
35022 On ch=1 n=g#6 v=57
35026 On ch=1 n=a5 v=0
35050 On ch=1 n=a6 v=0
35110 On ch=1 n=g6 v=55
35114 On ch=1 n=g#6 v=0
35186 On ch=1 n=f#6 v=55
35204 On ch=1 n=g6 v=0
35250 On ch=1 n=f6 v=40
35278 On ch=1 n=f#6 v=0
35324 Par ch=1 c=64 v=0
35342 On ch=1 n=f6 v=0
35342 On ch=1 n=e6 v=40
35438 On ch=1 n=d#6 v=51
35440 On ch=1 n=a4 v=49
35454 Par ch=1 c=64 v=127
35502 On ch=1 n=e6 v=0
35520 On ch=1 n=g#4 v=57
35556 On ch=1 n=a4 v=0
35576 On ch=1 n=g4 v=50
35590 On ch=1 n=d#6 v=0
35598 On ch=1 n=g#4 v=0
35656 On ch=1 n=f#4 v=45
35668 On ch=1 n=g4 v=0
35732 On ch=1 n=f#4 v=0
35758 On ch=1 n=f4 v=48
35844 On ch=1 n=f4 v=0
35846 On ch=1 n=d#4 v=45
35864 Par ch=1 c=64 v=0
35944 On ch=1 n=d#4 v=0
35944 On ch=1 n=f6 v=72
35944 On ch=1 n=b5 v=49
35952 On ch=1 n=c#4 v=31
35960 On ch=1 n=f6 v=72
35996 Par ch=1 c=64 v=127
36012 Par ch=1 c=64 v=127
36056 On ch=1 n=c#4 v=0
36060 On ch=1 n=g#4 v=46
36146 On ch=1 n=c#5 v=46
36166 On ch=1 n=g#4 v=0
36214 On ch=1 n=c#5 v=0
36224 On ch=1 n=f5 v=46
36288 On ch=1 n=c#5 v=46
36290 On ch=1 n=b5 v=0
36324 On ch=1 n=f5 v=0
36330 On ch=1 n=f6 v=0
36364 On ch=1 n=c#5 v=0
36364 On ch=1 n=g#4 v=46
36444 On ch=1 n=g#4 v=0
36450 On ch=1 n=c#4 v=55
36456 On ch=1 n=b5 v=51
36516 On ch=1 n=c#4 v=0
36520 On ch=1 n=b4 v=46
36616 On ch=1 n=d#6 v=77
36616 On ch=1 n=c#5 v=46
36622 On ch=1 n=b4 v=0
36628 On ch=1 n=f6 v=0
36696 On ch=1 n=f5 v=46
36730 On ch=1 n=c#5 v=0
36792 On ch=1 n=c#5 v=46
36824 On ch=1 n=f5 v=0
36828 On ch=1 n=d#6 v=0
36864 On ch=1 n=c#6 v=81
36864 On ch=1 n=b4 v=46
36876 On ch=1 n=c#5 v=0
36898 Par ch=1 c=64 v=0
36910 On ch=1 n=b5 v=0
36914 Par ch=1 c=64 v=0
36936 On ch=1 n=c#6 v=0
36956 On ch=1 n=b4 v=0
36976 On ch=1 n=f#4 v=58
36992 On ch=1 n=c#6 v=69
36992 On ch=1 n=b5 v=73
37028 Par ch=1 c=64 v=127
37044 Par ch=1 c=64 v=127
37072 On ch=1 n=b4 v=46
37104 On ch=1 n=f#4 v=0
37128 On ch=1 n=c#5 v=46
37162 On ch=1 n=b4 v=0
37196 On ch=1 n=f#5 v=46
37248 On ch=1 n=c#5 v=0
37268 On ch=1 n=c#5 v=46
37308 On ch=1 n=f#5 v=0
37372 On ch=1 n=c#5 v=0
37376 On ch=1 n=b4 v=46
37406 Par ch=1 c=64 v=0
37422 Par ch=1 c=64 v=0
37440 On ch=1 n=f#6 v=81
37440 On ch=1 n=a#5 v=63
37442 On ch=1 n=b4 v=0
37456 On ch=1 n=c#4 v=58
37468 Par ch=1 c=64 v=127
37484 Par ch=1 c=64 v=127
37496 On ch=1 n=c#6 v=0
37512 On ch=1 n=a#4 v=46
37544 On ch=1 n=c#4 v=0
37558 On ch=1 n=b5 v=0
37600 On ch=1 n=c#5 v=46
37624 On ch=1 n=a#4 v=0
37664 On ch=1 n=f#5 v=46
37720 On ch=1 n=c#5 v=0
37734 On ch=1 n=f#5 v=0
37760 On ch=1 n=c#5 v=46
37828 On ch=1 n=c#5 v=0
37840 On ch=1 n=a#4 v=46
37900 Par ch=1 c=64 v=0
37916 Par ch=1 c=64 v=0
37936 On ch=1 n=b5 v=82
37950 On ch=1 n=a#4 v=0
37952 On ch=1 n=g#4 v=55
37994 On ch=1 n=a#5 v=0
38004 On ch=1 n=f#6 v=0
38034 Par ch=1 c=64 v=127
38044 On ch=1 n=g#4 v=0
38050 Par ch=1 c=64 v=127
38068 On ch=1 n=b4 v=46
38142 On ch=1 n=c#5 v=46
38168 On ch=1 n=b4 v=0
38204 On ch=1 n=f5 v=46
38214 On ch=1 n=c#5 v=0
38294 On ch=1 n=f5 v=0
38294 On ch=1 n=f6 v=69
38312 On ch=1 n=c#5 v=46
38376 On ch=1 n=b4 v=46
38384 On ch=1 n=f6 v=0
38404 Par ch=1 c=64 v=0
38420 Par ch=1 c=64 v=0
38436 On ch=1 n=b4 v=0
38440 On ch=1 n=c#5 v=0
38452 On ch=1 n=c#4 v=52
38470 On ch=1 n=f6 v=82
38494 Par ch=1 c=64 v=127
38510 Par ch=1 c=64 v=127
38528 On ch=1 n=b4 v=46
38548 On ch=1 n=c#4 v=0
38624 On ch=1 n=d#6 v=76
38624 On ch=1 n=c#5 v=46
38640 On ch=1 n=b4 v=0
38640 On ch=1 n=f6 v=0
38672 On ch=1 n=b5 v=0
38702 On ch=1 n=c#5 v=0
38736 On ch=1 n=f5 v=46
38806 On ch=1 n=c#5 v=46
38812 On ch=1 n=c#6 v=92
38836 On ch=1 n=d#6 v=0
38846 On ch=1 n=f5 v=0
38880 On ch=1 n=b4 v=46
38904 Par ch=1 c=64 v=0
38920 Par ch=1 c=64 v=0
38928 On ch=1 n=c#5 v=0
38964 On ch=1 n=c#6 v=0
38966 On ch=1 n=b4 v=0
38972 On ch=1 n=c#6 v=58
38976 On ch=1 n=a#5 v=60
38978 On ch=1 n=f#4 v=60
38988 On ch=1 n=a#6 v=80
39032 Par ch=1 c=64 v=127
39048 Par ch=1 c=64 v=127
39074 On ch=1 n=f#4 v=0
39074 On ch=1 n=a#4 v=46
39146 On ch=1 n=c#5 v=46
39164 On ch=1 n=a#4 v=0
39204 On ch=1 n=c#5 v=0
39220 On ch=1 n=f#5 v=46
39274 On ch=1 n=c#6 v=0
39278 On ch=1 n=a#5 v=0
39290 On ch=1 n=a#6 v=0
39324 On ch=1 n=c#5 v=46
39332 On ch=1 n=f#5 v=0
39400 On ch=1 n=a#4 v=46
39426 On ch=1 n=c#5 v=0
39440 Par ch=1 c=64 v=0
39456 Par ch=1 c=64 v=0
39472 On ch=1 n=g#5 v=60
39482 On ch=1 n=a#6 v=96
39492 On ch=1 n=a#4 v=0
39492 On ch=1 n=c#6 v=54
39512 On ch=1 n=e4 v=62
39570 Par ch=1 c=64 v=127
39586 Par ch=1 c=64 v=127
39594 On ch=1 n=a#4 v=46
39608 On ch=1 n=e4 v=0
39664 On ch=1 n=c#5 v=46
39716 On ch=1 n=a#4 v=0
39730 On ch=1 n=g#5 v=0
39740 On ch=1 n=c#5 v=0
39744 On ch=1 n=g#5 v=58
39758 On ch=1 n=c#6 v=0
39758 On ch=1 n=a#6 v=0
39834 On ch=1 n=g#5 v=0
39856 On ch=1 n=a#6 v=104
39856 On ch=1 n=c#5 v=46
39936 On ch=1 n=a#4 v=46
39956 On ch=1 n=a#6 v=0
39964 Par ch=1 c=64 v=0
39976 On ch=1 n=c#5 v=0
39980 Par ch=1 c=64 v=0
39984 On ch=1 n=g5 v=55
39984 On ch=1 n=d#4 v=40
40012 On ch=1 n=a#4 v=0
40076 Par ch=1 c=64 v=127
40078 On ch=1 n=d#4 v=0
40092 Par ch=1 c=64 v=127
40096 On ch=1 n=c#6 v=61
40096 On ch=1 n=a#4 v=46
40136 On ch=1 n=g5 v=0
40176 On ch=1 n=a#6 v=102
40192 On ch=1 n=c#5 v=46
40198 On ch=1 n=a#4 v=0
40248 On ch=1 n=g5 v=46
40256 On ch=1 n=c#5 v=0
40328 On ch=1 n=d#6 v=72
40336 On ch=1 n=c#5 v=46
40348 On ch=1 n=g5 v=0
40424 On ch=1 n=a#4 v=46
40436 Par ch=1 c=64 v=0
40446 On ch=1 n=c#5 v=0
40452 Par ch=1 c=64 v=0
40488 On ch=1 n=a#4 v=0
40512 On ch=1 n=g4 v=62
40574 Par ch=1 c=64 v=127
40584 On ch=1 n=c#5 v=46
40586 On ch=1 n=f6 v=62
40590 Par ch=1 c=64 v=127
40614 On ch=1 n=g4 v=0
40632 On ch=1 n=g6 v=69
40688 On ch=1 n=c#5 v=0
40696 On ch=1 n=d#5 v=46
40714 On ch=1 n=g6 v=0
40730 On ch=1 n=a#6 v=0
40736 On ch=1 n=a#5 v=46
40754 On ch=1 n=f6 v=0
40766 On ch=1 n=c#6 v=0
40788 On ch=1 n=d#5 v=0
40808 On ch=1 n=d#6 v=0
40816 On ch=1 n=d#5 v=46
40836 On ch=1 n=a#5 v=0
40880 On ch=1 n=c#5 v=46
40896 On ch=1 n=d#6 v=73
40900 On ch=1 n=d#5 v=0
40938 Par ch=1 c=64 v=0
40946 On ch=1 n=d#6 v=0
40954 Par ch=1 c=64 v=0
40956 On ch=1 n=c#5 v=0
40990 On ch=1 n=d#6 v=73
40992 On ch=1 n=c#6 v=58
41000 On ch=1 n=g#4 v=61
41048 Par ch=1 c=64 v=127
41056 On ch=1 n=c#5 v=46
41064 Par ch=1 c=64 v=127
41116 On ch=1 n=g#4 v=0
41136 On ch=1 n=d#5 v=46
41142 On ch=1 n=c#5 v=0
41212 On ch=1 n=d#5 v=0
41220 On ch=1 n=g#5 v=46
41296 On ch=1 n=d#5 v=46
41322 On ch=1 n=g#5 v=0
41400 On ch=1 n=c#5 v=46
41414 On ch=1 n=d#5 v=0
41464 Par ch=1 c=64 v=0
41480 Par ch=1 c=64 v=0
41484 On ch=1 n=c#5 v=0
41512 On ch=1 n=c6 v=64
41516 On ch=1 n=g#6 v=68
41520 On ch=1 n=d#4 v=61
41552 On ch=1 n=c#6 v=0
41580 Par ch=1 c=64 v=127
41596 Par ch=1 c=64 v=127
41620 On ch=1 n=c5 v=46
41636 On ch=1 n=d#4 v=0
41680 On ch=1 n=d#5 v=46
41710 On ch=1 n=c6 v=0
41724 On ch=1 n=c5 v=0
41752 On ch=1 n=g#5 v=46
41768 On ch=1 n=d#5 v=0
41840 On ch=1 n=d#5 v=46
41882 On ch=1 n=g#5 v=0
41912 On ch=1 n=c5 v=46
41928 On ch=1 n=d#5 v=0
41974 Par ch=1 c=64 v=0
41990 Par ch=1 c=64 v=0
42024 On ch=1 n=c5 v=0
42024 On ch=1 n=a#4 v=56
42036 On ch=1 n=c#6 v=69
42052 On ch=1 n=g#6 v=0
42072 On ch=1 n=d#6 v=0
42098 Par ch=1 c=64 v=127
42114 Par ch=1 c=64 v=127
42148 On ch=1 n=c#5 v=46
42176 On ch=1 n=a#4 v=0
42214 On ch=1 n=d#5 v=46
42226 On ch=1 n=g6 v=78
42246 On ch=1 n=c#5 v=0
42300 On ch=1 n=d#5 v=0
42300 On ch=1 n=a#5 v=46
42328 On ch=1 n=g6 v=0
42376 On ch=1 n=d#5 v=46
42386 On ch=1 n=f6 v=86
42412 On ch=1 n=a#5 v=0
42478 On ch=1 n=c#5 v=46
42484 Par ch=1 c=64 v=0
42488 On ch=1 n=d#5 v=0
42500 Par ch=1 c=64 v=0
42544 On ch=1 n=d#4 v=57
42546 On ch=1 n=g6 v=72
42554 On ch=1 n=c#5 v=0
42566 On ch=1 n=f6 v=0
42590 Par ch=1 c=64 v=127
42606 Par ch=1 c=64 v=127
42616 On ch=1 n=c#5 v=46
42660 On ch=1 n=d#4 v=0
42708 On ch=1 n=f6 v=76
42720 On ch=1 n=d#5 v=46
42726 On ch=1 n=g6 v=0
42746 On ch=1 n=c#5 v=0
42798 On ch=1 n=d#5 v=0
42816 On ch=1 n=g5 v=46
42892 On ch=1 n=d#5 v=46
42904 On ch=1 n=c#6 v=0
42908 On ch=1 n=g5 v=0
42952 On ch=1 n=c#5 v=46
42956 On ch=1 n=d#6 v=72
42968 On ch=1 n=f6 v=0
42994 Par ch=1 c=64 v=0
43000 On ch=1 n=d#5 v=0
43010 Par ch=1 c=64 v=0
43048 On ch=1 n=c#5 v=0
43056 On ch=1 n=c7 v=95
43056 On ch=1 n=c6 v=35
43056 On ch=1 n=g#4 v=56
43094 On ch=1 n=d#6 v=0
43108 Par ch=1 c=64 v=127
43124 Par ch=1 c=64 v=127
43148 On ch=1 n=c5 v=46
43236 On ch=1 n=d#5 v=46
43256 On ch=1 n=c5 v=0
43294 On ch=1 n=c7 v=0
43310 On ch=1 n=d#5 v=0
43312 On ch=1 n=g#5 v=46
43394 On ch=1 n=d#5 v=46
43410 On ch=1 n=g#5 v=0
43470 On ch=1 n=c5 v=46
43474 On ch=1 n=d#5 v=0
43512 Par ch=1 c=64 v=0
43528 Par ch=1 c=64 v=0
43534 On ch=1 n=g#4 v=0
43566 On ch=1 n=c5 v=0
43584 On ch=1 n=g4 v=56
43588 On ch=1 n=c7 v=96
43622 Par ch=1 c=64 v=127
43638 Par ch=1 c=64 v=127
43688 On ch=1 n=g#4 v=46
43776 On ch=1 n=c5 v=46
43788 On ch=1 n=g#4 v=0
43792 On ch=1 n=c7 v=0
43864 On ch=1 n=c5 v=0
43864 On ch=1 n=d#5 v=46
43952 On ch=1 n=c5 v=46
43956 On ch=1 n=c7 v=103
43962 On ch=1 n=d#5 v=0
44024 On ch=1 n=g#4 v=46
44040 On ch=1 n=c5 v=0
44052 On ch=1 n=c7 v=0
44062 On ch=1 n=g4 v=0
44064 Par ch=1 c=64 v=0
44080 Par ch=1 c=64 v=0
44112 On ch=1 n=g#4 v=0
44128 On ch=1 n=f#4 v=52
44150 On ch=1 n=c7 v=105
44206 Par ch=1 c=64 v=127
44220 On ch=1 n=g#4 v=46
44222 Par ch=1 c=64 v=127
44232 On ch=1 n=f#4 v=0
44298 On ch=1 n=c5 v=46
44316 On ch=1 n=g#4 v=0
44386 On ch=1 n=d#5 v=46
44394 On ch=1 n=c5 v=0
44486 On ch=1 n=c5 v=46
44506 On ch=1 n=d#5 v=0
44558 On ch=1 n=g#4 v=46
44568 Par ch=1 c=64 v=0
44572 On ch=1 n=c5 v=0
44584 Par ch=1 c=64 v=0
44644 On ch=1 n=f#4 v=52
44658 On ch=1 n=g#4 v=0
44732 Par ch=1 c=64 v=127
44748 Par ch=1 c=64 v=127
44752 On ch=1 n=g#4 v=46
44772 On ch=1 n=f#4 v=0
44816 On ch=1 n=c5 v=46
44818 On ch=1 n=a#6 v=85
44844 On ch=1 n=g#4 v=0
44858 On ch=1 n=c7 v=0
44872 On ch=1 n=c6 v=0
44874 On ch=1 n=d#5 v=46
44908 On ch=1 n=c5 v=0
44956 On ch=1 n=c5 v=46
44986 On ch=1 n=d#5 v=0
45000 On ch=1 n=a#6 v=0
45022 On ch=1 n=g#4 v=46
45042 On ch=1 n=g#6 v=65
45050 On ch=1 n=c5 v=0
45076 Par ch=1 c=64 v=0
45092 Par ch=1 c=64 v=0
45112 On ch=1 n=g#6 v=0
45120 On ch=1 n=f4 v=29
45124 On ch=1 n=g#4 v=0
45128 On ch=1 n=g#6 v=79
45224 On ch=1 n=g#4 v=46
45226 Par ch=1 c=64 v=127
45242 Par ch=1 c=64 v=127
45284 On ch=1 n=f4 v=0
45292 On ch=1 n=c#5 v=46
45340 On ch=1 n=g#4 v=0
45360 On ch=1 n=f5 v=46
45374 On ch=1 n=c#5 v=0
45452 On ch=1 n=c#5 v=46
45476 On ch=1 n=f5 v=0
45552 On ch=1 n=g#4 v=46
45590 Par ch=1 c=64 v=0
45592 On ch=1 n=c#5 v=0
45606 Par ch=1 c=64 v=0
45640 On ch=1 n=f4 v=53
45654 On ch=1 n=g#4 v=0
45656 On ch=1 n=c#7 v=95
45686 On ch=1 n=g#6 v=0
45712 On ch=1 n=g#4 v=39
45716 Par ch=1 c=64 v=127
45732 Par ch=1 c=64 v=127
45760 On ch=1 n=f4 v=0
45792 On ch=1 n=c#5 v=55
45802 On ch=1 n=g#4 v=0
45872 On ch=1 n=g#5 v=62
45886 On ch=1 n=c#5 v=0
45968 On ch=1 n=c#5 v=47
45992 On ch=1 n=g#5 v=0
46056 Par ch=1 c=64 v=0
46064 On ch=1 n=g#4 v=46
46072 Par ch=1 c=64 v=0
46076 On ch=1 n=c#5 v=0
46134 On ch=1 n=c#7 v=0
46174 On ch=1 n=g#4 v=0
46176 On ch=1 n=c#7 v=95
46186 On ch=1 n=d#4 v=63
46210 Par ch=1 c=64 v=127
46226 Par ch=1 c=64 v=127
46264 On ch=1 n=d#4 v=0
46284 On ch=1 n=g#4 v=46
46372 On ch=1 n=g#4 v=0
46372 On ch=1 n=c5 v=46
46450 On ch=1 n=f#5 v=46
46454 On ch=1 n=c5 v=0
46536 On ch=1 n=c#7 v=0
46538 On ch=1 n=c5 v=46
46552 On ch=1 n=c7 v=82
46562 On ch=1 n=f#5 v=0
46608 On ch=1 n=g#4 v=46
46640 On ch=1 n=c7 v=0
46640 On ch=1 n=c5 v=0
46650 Par ch=1 c=64 v=0
46666 Par ch=1 c=64 v=0
46716 On ch=1 n=c7 v=85
46728 On ch=1 n=g#4 v=0
46732 On ch=1 n=d#4 v=60
46792 Par ch=1 c=64 v=127
46808 Par ch=1 c=64 v=127
46832 On ch=1 n=d#4 v=0
46832 On ch=1 n=g#4 v=46
46912 On ch=1 n=c7 v=0
46912 On ch=1 n=a#6 v=89
46912 On ch=1 n=c5 v=46
46920 On ch=1 n=g#4 v=0
46978 On ch=1 n=f#5 v=46
46996 On ch=1 n=c5 v=0
47084 On ch=1 n=c5 v=46
47094 On ch=1 n=f#5 v=0
47176 On ch=1 n=g#4 v=46
47180 On ch=1 n=g#6 v=68
47182 On ch=1 n=c5 v=0
47188 Par ch=1 c=64 v=0
47204 Par ch=1 c=64 v=0
47222 On ch=1 n=a#6 v=0
47260 On ch=1 n=d4 v=57
47272 On ch=1 n=g#4 v=0
47284 On ch=1 n=f7 v=71
47318 Par ch=1 c=64 v=127
47324 On ch=1 n=g#6 v=0
47328 On ch=1 n=g#4 v=46
47334 Par ch=1 c=64 v=127
47386 On ch=1 n=d4 v=0
47408 On ch=1 n=b4 v=46
47456 On ch=1 n=g#4 v=0
47488 On ch=1 n=f5 v=46
47508 On ch=1 n=b4 v=0
47536 On ch=1 n=f7 v=0
47576 On ch=1 n=b4 v=46
47630 On ch=1 n=f5 v=0
47672 On ch=1 n=g#4 v=46
47700 On ch=1 n=b4 v=0
47760 Par ch=1 c=64 v=0
47776 Par ch=1 c=64 v=0
47792 On ch=1 n=g#4 v=0
47796 On ch=1 n=d4 v=52
47800 On ch=1 n=f7 v=85
47886 Par ch=1 c=64 v=127
47888 On ch=1 n=g#4 v=46
47902 Par ch=1 c=64 v=127
47932 On ch=1 n=d4 v=0
47964 On ch=1 n=f7 v=0
47972 On ch=1 n=a#4 v=46
48028 On ch=1 n=g#4 v=0
48064 On ch=1 n=a#4 v=0
48072 On ch=1 n=f5 v=46
48138 On ch=1 n=a#4 v=46
48140 On ch=1 n=f7 v=93
48192 On ch=1 n=f5 v=0
48210 On ch=1 n=g#4 v=46
48260 On ch=1 n=f7 v=0
48274 On ch=1 n=a#4 v=0
48278 Par ch=1 c=64 v=0
48294 Par ch=1 c=64 v=0
48296 On ch=1 n=f7 v=95
48304 On ch=1 n=d#4 v=60
48338 On ch=1 n=g#4 v=0
48414 On ch=1 n=d#4 v=0
48416 On ch=1 n=f#4 v=46
48420 Par ch=1 c=64 v=127
48436 Par ch=1 c=64 v=127
48518 On ch=1 n=f#4 v=0
48520 On ch=1 n=a#4 v=46
48628 On ch=1 n=a#4 v=0
48632 On ch=1 n=d#5 v=46
48734 On ch=1 n=a#4 v=46
48758 On ch=1 n=d#5 v=0
48808 On ch=1 n=f#4 v=46
48830 On ch=1 n=a#4 v=0
48840 On ch=1 n=f7 v=0
48892 On ch=1 n=f#3 v=60
48900 On ch=1 n=d#7 v=75
48906 On ch=1 n=f#4 v=0
48992 On ch=1 n=f#4 v=46
49002 On ch=1 n=f#3 v=0
49076 On ch=1 n=c#7 v=73
49080 On ch=1 n=a#4 v=46
49094 On ch=1 n=f#4 v=0
49110 On ch=1 n=d#7 v=0
49144 On ch=1 n=d#5 v=46
49168 On ch=1 n=a#4 v=0
49248 On ch=1 n=a#4 v=46
49252 On ch=1 n=a#6 v=77
49254 On ch=1 n=d#5 v=0
49276 On ch=1 n=c#7 v=0
49320 On ch=1 n=f#4 v=46
49342 Par ch=1 c=64 v=0
49350 On ch=1 n=a#4 v=0
49358 Par ch=1 c=64 v=0
49390 On ch=1 n=f#4 v=0
49428 On ch=1 n=c7 v=81
49436 On ch=1 n=g#3 v=57
49462 On ch=1 n=a#6 v=0
49484 Par ch=1 c=64 v=127
49500 Par ch=1 c=64 v=127
49524 On ch=1 n=g#3 v=0
49524 On ch=1 n=f4 v=46
49622 On ch=1 n=g#4 v=46
49638 On ch=1 n=f4 v=0
49698 On ch=1 n=g#4 v=0
49706 On ch=1 n=c#5 v=46
49778 On ch=1 n=g#4 v=46
49796 On ch=1 n=c#5 v=0
49862 On ch=1 n=g#4 v=0
49866 On ch=1 n=f4 v=46
49890 Par ch=1 c=64 v=0
49906 Par ch=1 c=64 v=0
49964 On ch=1 n=a#6 v=79
49968 On ch=1 n=f4 v=0
49972 On ch=1 n=g#3 v=63
49982 On ch=1 n=c7 v=0
50016 Par ch=1 c=64 v=127
50032 Par ch=1 c=64 v=127
50056 On ch=1 n=g#3 v=0
50080 On ch=1 n=f4 v=46
50156 On ch=1 n=g#6 v=70
50160 On ch=1 n=g#4 v=46
50172 On ch=1 n=f4 v=0
50206 On ch=1 n=a#6 v=0
50210 On ch=1 n=c#5 v=46
50286 On ch=1 n=g#4 v=0
50328 On ch=1 n=g#4 v=46
50330 On ch=1 n=f6 v=59
50336 On ch=1 n=c#5 v=0
50350 On ch=1 n=g#6 v=0
50400 On ch=1 n=f4 v=46
50404 Par ch=1 c=64 v=0
50420 Par ch=1 c=64 v=0
50430 On ch=1 n=g#4 v=0
50472 On ch=1 n=g#3 v=46
50484 On ch=1 n=a#6 v=75
50488 On ch=1 n=f4 v=0
50540 Par ch=1 c=64 v=127
50552 On ch=1 n=f#4 v=46
50556 Par ch=1 c=64 v=127
50612 On ch=1 n=g#3 v=0
50638 On ch=1 n=g#6 v=68
50640 On ch=1 n=g#4 v=46
50684 On ch=1 n=a#6 v=0
50690 On ch=1 n=f#4 v=0
50694 On ch=1 n=f6 v=0
50712 On ch=1 n=g#4 v=0
50720 On ch=1 n=c5 v=46
50816 On ch=1 n=c5 v=0
50824 On ch=1 n=f#6 v=83
50832 On ch=1 n=g#4 v=46
50838 On ch=1 n=g#6 v=0
50920 On ch=1 n=g#4 v=0
50936 On ch=1 n=f#4 v=46
50962 Par ch=1 c=64 v=0
50978 Par ch=1 c=64 v=0
50984 On ch=1 n=f#6 v=0
50996 On ch=1 n=f#4 v=0
51008 On ch=1 n=f#6 v=62
51008 On ch=1 n=g#3 v=55
51056 On ch=1 n=g#6 v=62
51078 On ch=1 n=f#6 v=0
51088 On ch=1 n=f#4 v=46
51090 Par ch=1 c=64 v=127
51098 On ch=1 n=g#3 v=0
51106 Par ch=1 c=64 v=127
51116 On ch=1 n=f#6 v=62
51128 On ch=1 n=g#6 v=0
51174 On ch=1 n=f#4 v=0
51192 On ch=1 n=f6 v=61
51192 On ch=1 n=g#4 v=46
51200 On ch=1 n=f#6 v=0
51270 On ch=1 n=g#4 v=0
51280 On ch=1 n=c5 v=46
51388 On ch=1 n=g#4 v=46
51402 On ch=1 n=c5 v=0
51440 On ch=1 n=f6 v=0
51468 On ch=1 n=f#4 v=46
51484 On ch=1 n=g#4 v=0
51490 Par ch=1 c=64 v=0
51490 On ch=1 n=e6 v=77
51506 Par ch=1 c=64 v=0
51540 On ch=1 n=e6 v=0
51540 On ch=1 n=f#4 v=0
51580 On ch=1 n=c#4 v=62
51590 On ch=1 n=e6 v=72
51648 Par ch=1 c=64 v=127
51664 Par ch=1 c=64 v=127
51696 On ch=1 n=g#4 v=46
51754 On ch=1 n=g#4 v=0
51766 On ch=1 n=c#4 v=0
51780 On ch=1 n=c#5 v=46
51840 On ch=1 n=f5 v=46
51866 On ch=1 n=c#5 v=0
51928 On ch=1 n=c#5 v=46
51964 On ch=1 n=f5 v=0
51992 Par ch=1 c=64 v=0
52004 On ch=1 n=a#4 v=46
52008 Par ch=1 c=64 v=0
52026 On ch=1 n=c#5 v=0
52112 On ch=1 n=f6 v=68
52116 On ch=1 n=a#4 v=0
52122 On ch=1 n=e6 v=0
52124 On ch=1 n=g#4 v=47
52156 Par ch=1 c=64 v=127
52172 Par ch=1 c=64 v=127
52234 On ch=1 n=c#5 v=46
52262 On ch=1 n=g#4 v=0
52334 On ch=1 n=f5 v=46
52348 On ch=1 n=c#5 v=0
52416 On ch=1 n=g#5 v=46
52428 On ch=1 n=f5 v=0
52488 On ch=1 n=g#5 v=0
52514 On ch=1 n=g#6 v=92
52520 On ch=1 n=c#5 v=46
52576 On ch=1 n=g#4 v=48
52578 On ch=1 n=f6 v=0
52596 Par ch=1 c=64 v=0
52612 Par ch=1 c=64 v=0
52622 On ch=1 n=c#5 v=0
52680 On ch=1 n=f#4 v=51
52686 On ch=1 n=g#4 v=0
52688 On ch=1 n=g#5 v=79
52772 Par ch=1 c=64 v=127
52776 On ch=1 n=g#6 v=0
52788 Par ch=1 c=64 v=127
52796 On ch=1 n=g#4 v=46
52824 On ch=1 n=f#4 v=0
52878 On ch=1 n=c5 v=46
52892 On ch=1 n=g#4 v=0
52964 On ch=1 n=c5 v=0
52968 On ch=1 n=d#5 v=46
53080 On ch=1 n=c6 v=82
53082 On ch=1 n=d#5 v=0
53088 On ch=1 n=c5 v=46
53092 On ch=1 n=g#5 v=0
53144 On ch=1 n=g#4 v=46
53176 Par ch=1 c=64 v=0
53192 Par ch=1 c=64 v=0
53198 On ch=1 n=c5 v=0
53246 On ch=1 n=f#4 v=23
53254 On ch=1 n=g#4 v=0
53254 On ch=1 n=c7 v=87
53264 Par ch=1 c=64 v=127
53280 Par ch=1 c=64 v=127
53328 On ch=1 n=c6 v=0
53346 On ch=1 n=g#4 v=46
53350 On ch=1 n=c7 v=0
53366 On ch=1 n=f#4 v=0
53424 On ch=1 n=a#5 v=95
53424 On ch=1 n=c5 v=46
53432 On ch=1 n=a#6 v=92
53436 On ch=1 n=g#4 v=0
53496 On ch=1 n=d#5 v=46
53500 On ch=1 n=c5 v=0
53576 On ch=1 n=c5 v=46
53608 On ch=1 n=d#5 v=0
53644 On ch=1 n=a#5 v=0
53648 On ch=1 n=g#6 v=77
53648 On ch=1 n=g#5 v=81
53652 On ch=1 n=a#6 v=0
53656 On ch=1 n=g#4 v=46
53702 On ch=1 n=g#5 v=0
53702 On ch=1 n=g#6 v=0
53720 On ch=1 n=c5 v=0
53720 On ch=1 n=g#6 v=90
53720 Par ch=1 c=64 v=0
53728 On ch=1 n=g#5 v=85
53728 On ch=1 n=f4 v=52
53736 Par ch=1 c=64 v=0
53764 On ch=1 n=g#4 v=0
53816 On ch=1 n=g#4 v=46
53850 Par ch=1 c=64 v=127
53866 Par ch=1 c=64 v=127
53888 On ch=1 n=f4 v=0
53896 On ch=1 n=c#5 v=46
53938 On ch=1 n=g#4 v=0
53984 On ch=1 n=f5 v=46
53986 On ch=1 n=c#5 v=0
54070 On ch=1 n=g#5 v=0
54072 On ch=1 n=c#5 v=46
54090 On ch=1 n=f5 v=0
54160 On ch=1 n=g#4 v=46
54208 On ch=1 n=c#5 v=0
54276 On ch=1 n=g#4 v=0
54280 On ch=1 n=c#7 v=86
54288 On ch=1 n=c#6 v=78
54304 On ch=1 n=f4 v=52
54384 On ch=1 n=g#4 v=46
54426 On ch=1 n=f4 v=0
54480 On ch=1 n=c#5 v=46
54504 On ch=1 n=g#4 v=0
54510 On ch=1 n=g#6 v=0
54532 On ch=1 n=c#7 v=0
54542 On ch=1 n=c#6 v=0
54552 On ch=1 n=g#5 v=58
54574 On ch=1 n=c#5 v=0
54634 On ch=1 n=c#5 v=46
54636 On ch=1 n=g#5 v=0
54728 On ch=1 n=g#4 v=46
54736 On ch=1 n=c#5 v=0
54780 Par ch=1 c=64 v=0
54796 Par ch=1 c=64 v=0
54832 On ch=1 n=c#7 v=87
54832 On ch=1 n=g#6 v=82
54834 On ch=1 n=c#6 v=91
54840 On ch=1 n=d#4 v=63
54846 On ch=1 n=g#4 v=0
54918 Par ch=1 c=64 v=127
54920 On ch=1 n=g#4 v=46
54930 On ch=1 n=d#4 v=0
54934 Par ch=1 c=64 v=127
54934 Par ch=1 c=64 v=127
54976 On ch=1 n=c5 v=46
55008 On ch=1 n=g#4 v=0
55040 On ch=1 n=c#7 v=0
55048 On ch=1 n=f#5 v=46
55058 On ch=1 n=c#6 v=0
55080 On ch=1 n=c5 v=0
55162 On ch=1 n=f#5 v=0
55208 On ch=1 n=c5 v=46
55224 On ch=1 n=c7 v=87
55224 On ch=1 n=c6 v=87
55290 On ch=1 n=c5 v=0
55296 On ch=1 n=c6 v=0
55320 On ch=1 n=c7 v=0
55320 On ch=1 n=g#4 v=46
55320 Par ch=1 c=64 v=0
55336 Par ch=1 c=64 v=0
55372 Par ch=1 c=64 v=127
55388 Par ch=1 c=64 v=127
55392 On ch=1 n=g#4 v=0
55424 On ch=1 n=d#4 v=65
55432 On ch=1 n=c7 v=92
55432 On ch=1 n=c6 v=95
55456 Par ch=1 c=64 v=0
55504 On ch=1 n=g#4 v=46
55508 Par ch=1 c=64 v=127
55512 On ch=1 n=g#6 v=0
55524 On ch=1 n=d#4 v=0
55584 On ch=1 n=c5 v=46
55596 On ch=1 n=g#4 v=0
55664 On ch=1 n=c6 v=0
55664 On ch=1 n=c7 v=0
55696 On ch=1 n=a#5 v=95
55696 On ch=1 n=f#5 v=46
55698 On ch=1 n=c5 v=0
55712 On ch=1 n=a#6 v=95
55742 On ch=1 n=a#5 v=0
55754 On ch=1 n=a#6 v=0
55780 On ch=1 n=f#5 v=0
55800 On ch=1 n=c5 v=46
55808 On ch=1 n=g#6 v=94
55808 On ch=1 n=g#5 v=88
55900 On ch=1 n=c5 v=0
55904 Par ch=1 c=64 v=0
55936 On ch=1 n=g#4 v=46
56006 On ch=1 n=g#5 v=0
56006 On ch=1 n=g#6 v=0
56024 On ch=1 n=f7 v=90
56024 Par ch=1 c=64 v=127
56030 On ch=1 n=g#4 v=0
56032 On ch=1 n=g#6 v=85
56032 On ch=1 n=f6 v=83
56040 On ch=1 n=d4 v=58
56040 Par ch=1 c=64 v=0
56128 On ch=1 n=g#4 v=46
56160 Par ch=1 c=64 v=127
56180 On ch=1 n=d4 v=0
56216 On ch=1 n=b4 v=46
56254 On ch=1 n=g#4 v=0
56296 On ch=1 n=f5 v=46
56320 On ch=1 n=b4 v=0
56384 On ch=1 n=b4 v=46
56422 On ch=1 n=f5 v=0
56472 On ch=1 n=g#4 v=46
56488 Par ch=1 c=64 v=0
56526 On ch=1 n=b4 v=0
56574 On ch=1 n=f7 v=0
56582 On ch=1 n=f6 v=0
56582 On ch=1 n=g#6 v=0
56588 Par ch=1 c=64 v=127
56608 On ch=1 n=g#6 v=95
56608 On ch=1 n=f6 v=87
56616 On ch=1 n=f7 v=86
56618 On ch=1 n=d4 v=48
56624 Par ch=1 c=64 v=0
56644 On ch=1 n=g#4 v=0
56696 On ch=1 n=g#4 v=46
56724 Par ch=1 c=64 v=127
56768 On ch=1 n=d4 v=0
56784 On ch=1 n=g#4 v=0
56784 On ch=1 n=a#4 v=46
56848 On ch=1 n=f5 v=46
56870 On ch=1 n=a#4 v=0
56870 On ch=1 n=f7 v=0
56874 On ch=1 n=f6 v=0
56874 On ch=1 n=g#6 v=0
56930 On ch=1 n=a#4 v=46
56936 On ch=1 n=g#6 v=91
56936 On ch=1 n=f6 v=73
56946 On ch=1 n=f7 v=90
56958 Par ch=1 c=64 v=0
56986 On ch=1 n=f5 v=0
57000 On ch=1 n=g#4 v=46
57010 On ch=1 n=f6 v=0
57018 On ch=1 n=g#6 v=0
57044 On ch=1 n=a#4 v=0
57062 On ch=1 n=f7 v=0
57094 Par ch=1 c=64 v=0
57106 On ch=1 n=g#4 v=0
57108 Par ch=1 c=64 v=127
57112 On ch=1 n=g#6 v=90
57112 On ch=1 n=d#4 v=51
57120 On ch=1 n=f7 v=90
57120 On ch=1 n=f6 v=84
57216 On ch=1 n=f#4 v=46
57238 On ch=1 n=d#4 v=0
57244 Par ch=1 c=64 v=127
57288 On ch=1 n=f#4 v=0
57320 On ch=1 n=a#4 v=46
57386 On ch=1 n=d#5 v=46
57440 On ch=1 n=a#4 v=0
57480 On ch=1 n=a#4 v=46
57498 On ch=1 n=d#5 v=0
57574 On ch=1 n=a#4 v=0
57584 On ch=1 n=f#4 v=46
57646 On ch=1 n=f#4 v=0
57662 On ch=1 n=g#6 v=0
57670 On ch=1 n=f6 v=0
57670 On ch=1 n=f7 v=0
57680 On ch=1 n=f#3 v=60
57688 On ch=1 n=f#6 v=82
57688 On ch=1 n=d#6 v=82
57692 On ch=1 n=d#7 v=82
57776 On ch=1 n=f#4 v=46
57798 On ch=1 n=f#3 v=0
57836 On ch=1 n=f#4 v=0
57858 On ch=1 n=f#6 v=0
57872 On ch=1 n=a#4 v=46
57878 On ch=1 n=d#6 v=0
57878 On ch=1 n=c#7 v=84
57880 On ch=1 n=f#6 v=64
57880 On ch=1 n=c#6 v=80
57902 On ch=1 n=d#7 v=0
57944 On ch=1 n=d#5 v=46
57962 On ch=1 n=a#4 v=0
58016 On ch=1 n=a#4 v=46
58020 On ch=1 n=d#5 v=0
58056 Par ch=1 c=64 v=0
58076 On ch=1 n=a#4 v=0
58080 On ch=1 n=c#6 v=0
58080 On ch=1 n=f#6 v=0
58096 On ch=1 n=f#4 v=46
58104 On ch=1 n=a#6 v=74
58104 On ch=1 n=f#6 v=63
58108 On ch=1 n=c#7 v=0
58120 On ch=1 n=a#5 v=76
58180 On ch=1 n=f#4 v=0
58182 On ch=1 n=f#6 v=0
58182 Par ch=1 c=64 v=127
58188 On ch=1 n=a#6 v=0
58192 Par ch=1 c=64 v=0
58198 On ch=1 n=a#5 v=0
58218 On ch=1 n=g#3 v=75
58226 On ch=1 n=c7 v=72
58226 On ch=1 n=c6 v=70
58232 On ch=1 n=g#6 v=48
58318 Par ch=1 c=64 v=127
58332 On ch=1 n=f4 v=58
58344 On ch=1 n=g#3 v=0
58430 On ch=1 n=g#4 v=58
58446 On ch=1 n=f4 v=0
58508 On ch=1 n=g#4 v=0
58512 On ch=1 n=c#5 v=58
58564 Par ch=1 c=64 v=0
58596 On ch=1 n=g#4 v=58
58614 On ch=1 n=c#5 v=0
58676 Par ch=1 c=64 v=127
58680 On ch=1 n=f4 v=58
58700 Par ch=1 c=64 v=0
58710 On ch=1 n=g#4 v=0
58756 On ch=1 n=c6 v=0
58756 On ch=1 n=c7 v=0
58756 On ch=1 n=a#6 v=64
58760 On ch=1 n=f#6 v=67
58762 On ch=1 n=g#6 v=0
58766 On ch=1 n=a#5 v=74
58766 On ch=1 n=g#3 v=75
58780 On ch=1 n=f4 v=0
58812 Par ch=1 c=64 v=127
58820 On ch=1 n=f#6 v=0
58850 On ch=1 n=a#5 v=0
58854 On ch=1 n=a#6 v=0
58860 On ch=1 n=g#3 v=0
58880 On ch=1 n=f4 v=58
58948 On ch=1 n=g#5 v=79
58952 On ch=1 n=g#6 v=67
58952 On ch=1 n=f6 v=63
58952 On ch=1 n=g#4 v=58
58974 On ch=1 n=f4 v=0
59010 On ch=1 n=g#5 v=0
59012 On ch=1 n=f6 v=0
59014 On ch=1 n=g#4 v=0
59024 On ch=1 n=g#6 v=0
59032 On ch=1 n=c#5 v=58
59112 On ch=1 n=f6 v=65
59114 On ch=1 n=c#5 v=0
59114 On ch=1 n=a#5 v=70
59116 On ch=1 n=a#6 v=78
59116 On ch=1 n=g#4 v=58
59132 Par ch=1 c=64 v=0
59172 On ch=1 n=f6 v=0
59180 On ch=1 n=a#5 v=0
59200 On ch=1 n=f4 v=58
59204 On ch=1 n=a#6 v=0
59210 On ch=1 n=g#4 v=0
59268 Par ch=1 c=64 v=127
59268 Par ch=1 c=64 v=0
59272 On ch=1 n=f4 v=0
59288 On ch=1 n=g#3 v=73
59294 On ch=1 n=b6 v=77
59294 On ch=1 n=f6 v=74
59300 On ch=1 n=b5 v=70
59388 On ch=1 n=g#3 v=0
59404 Par ch=1 c=64 v=127
59414 On ch=1 n=f4 v=58
59490 On ch=1 n=f4 v=0
59504 On ch=1 n=g#4 v=58
59542 On ch=1 n=b5 v=0
59554 On ch=1 n=f6 v=0
59554 On ch=1 n=b6 v=0
59582 On ch=1 n=g#4 v=0
59584 On ch=1 n=d5 v=58
59658 Par ch=1 c=64 v=0
59680 On ch=1 n=f6 v=83
59680 On ch=1 n=g#4 v=58
59682 On ch=1 n=a#6 v=95
59688 On ch=1 n=a#5 v=90
59692 On ch=1 n=d5 v=0
59744 On ch=1 n=f6 v=0
59752 On ch=1 n=f4 v=58
59770 On ch=1 n=a#5 v=0
59788 Par ch=1 c=64 v=127
59790 On ch=1 n=a#6 v=0
59794 Par ch=1 c=64 v=0
59800 On ch=1 n=g#4 v=0
59854 On ch=1 n=f4 v=0
59854 On ch=1 n=g#3 v=75
59862 On ch=1 n=b6 v=90
59868 On ch=1 n=b5 v=86
59870 On ch=1 n=f6 v=78
59924 Par ch=1 c=64 v=127
59950 On ch=1 n=f4 v=58
59962 On ch=1 n=g#3 v=0
60032 On ch=1 n=g#4 v=58
60076 On ch=1 n=f4 v=0
60104 Par ch=1 c=64 v=0
60122 On ch=1 n=g#4 v=0
60132 On ch=1 n=d5 v=58
60196 On ch=1 n=g#4 v=58
60236 On ch=1 n=d5 v=0
60240 Par ch=1 c=64 v=127
60240 Par ch=1 c=64 v=0
60298 On ch=1 n=f4 v=58
60320 On ch=1 n=g#4 v=0
60376 Par ch=1 c=64 v=127
60396 On ch=1 n=f4 v=0
60396 On ch=1 n=g#3 v=82
60472 On ch=1 n=f4 v=58
60486 On ch=1 n=g#3 v=0
60500 On ch=1 n=f6 v=0
60530 On ch=1 n=b6 v=0
60540 On ch=1 n=b5 v=0
60576 On ch=1 n=g#4 v=58
60614 On ch=1 n=f4 v=0
60664 On ch=1 n=d5 v=58
60670 On ch=1 n=g#4 v=0
60704 Par ch=1 c=64 v=0
60720 On ch=1 n=a#6 v=76
60720 On ch=1 n=f6 v=74
60728 On ch=1 n=a#5 v=83
60738 On ch=1 n=g#4 v=58
60772 On ch=1 n=d5 v=0
60816 On ch=1 n=f6 v=0
60816 On ch=1 n=a#6 v=0
60816 Par ch=1 c=64 v=127
60824 On ch=1 n=a#5 v=0
60826 On ch=1 n=f4 v=58
60832 On ch=1 n=g#4 v=0
60840 Par ch=1 c=64 v=0
60904 On ch=1 n=f6 v=72
60906 On ch=1 n=g#3 v=76
60916 On ch=1 n=f4 v=0
60916 On ch=1 n=b6 v=91
60916 On ch=1 n=b5 v=83
60952 Par ch=1 c=64 v=127
60988 On ch=1 n=f4 v=58
60996 On ch=1 n=b6 v=0
61000 On ch=1 n=f6 v=0
61006 On ch=1 n=g#3 v=0
61012 On ch=1 n=b5 v=0
61080 On ch=1 n=a#6 v=95
61080 On ch=1 n=f6 v=74
61088 On ch=1 n=g#4 v=58
61096 On ch=1 n=a#5 v=95
61110 On ch=1 n=f4 v=0
61140 On ch=1 n=f6 v=0
61148 On ch=1 n=a#6 v=0
61156 On ch=1 n=a#5 v=0
61158 On ch=1 n=d5 v=58
61174 On ch=1 n=g#4 v=0
61226 Par ch=1 c=64 v=0
61262 On ch=1 n=b6 v=95
61262 On ch=1 n=b5 v=92
61264 On ch=1 n=f6 v=75
61264 On ch=1 n=g#4 v=58
61272 On ch=1 n=d5 v=0
61324 On ch=1 n=f6 v=0
61326 On ch=1 n=g#4 v=0
61328 On ch=1 n=f4 v=58
61330 On ch=1 n=b5 v=0
61332 On ch=1 n=b6 v=0
61360 Par ch=1 c=64 v=127
61362 Par ch=1 c=64 v=0
61410 On ch=1 n=f4 v=0
61424 On ch=1 n=g#3 v=69
61446 On ch=1 n=b5 v=95
61448 On ch=1 n=b6 v=95
61448 On ch=1 n=f#6 v=95
61496 Par ch=1 c=64 v=127
61506 On ch=1 n=d#4 v=58
61524 On ch=1 n=g#3 v=0
61588 On ch=1 n=f#4 v=58
61612 On ch=1 n=d#4 v=0
61662 On ch=1 n=d#5 v=58
61704 On ch=1 n=f#4 v=0
61736 On ch=1 n=b5 v=0
61738 On ch=1 n=f#6 v=0
61738 On ch=1 n=b6 v=0
61752 On ch=1 n=a#6 v=94
61762 On ch=1 n=f#6 v=86
61768 On ch=1 n=a#5 v=95
61774 On ch=1 n=f#4 v=58
61788 Par ch=1 c=64 v=0
61790 On ch=1 n=d#5 v=0
61856 On ch=1 n=d#4 v=58
61888 On ch=1 n=f#4 v=0
61924 Par ch=1 c=64 v=127
61924 Par ch=1 c=64 v=0
61932 On ch=1 n=a#6 v=0
61940 On ch=1 n=g#3 v=75
61942 On ch=1 n=f#6 v=0
61948 On ch=1 n=a#5 v=0
61964 On ch=1 n=d#4 v=0
61964 On ch=1 n=a#7 v=95
61968 On ch=1 n=f#7 v=95
61972 On ch=1 n=a#6 v=95
62040 On ch=1 n=g#3 v=0
62040 On ch=1 n=d#4 v=58
62060 Par ch=1 c=64 v=127
62102 On ch=1 n=f#4 v=58
62116 On ch=1 n=d#4 v=0
62184 On ch=1 n=d#5 v=58
62210 On ch=1 n=f#4 v=0
62268 On ch=1 n=f#4 v=58
62278 Par ch=1 c=64 v=0
62312 On ch=1 n=d#5 v=0
62342 On ch=1 n=f#4 v=0
62344 On ch=1 n=d#4 v=58
62384 Par ch=1 c=64 v=127
62414 Par ch=1 c=64 v=0
62430 On ch=1 n=g#3 v=79
62440 On ch=1 n=d#4 v=0
62520 Par ch=1 c=64 v=127
62544 On ch=1 n=d#4 v=58
62552 On ch=1 n=g#3 v=0
62624 On ch=1 n=f#4 v=58
62650 On ch=1 n=d#4 v=0
62704 On ch=1 n=c5 v=58
62708 On ch=1 n=f#4 v=0
62708 On ch=1 n=c7 v=87
62710 On ch=1 n=f#6 v=92
62712 On ch=1 n=c6 v=87
62714 On ch=1 n=a#7 v=0
62718 On ch=1 n=f#7 v=0
62722 On ch=1 n=a#6 v=0
62740 Par ch=1 c=64 v=0
62754 On ch=1 n=c6 v=0
62768 On ch=1 n=f#6 v=0
62774 On ch=1 n=c7 v=0
62808 On ch=1 n=c7 v=87
62808 On ch=1 n=f#6 v=87
62816 On ch=1 n=c6 v=78
62816 On ch=1 n=f#4 v=58
62836 On ch=1 n=c5 v=0
62876 Par ch=1 c=64 v=0
62882 Par ch=1 c=64 v=127
62886 On ch=1 n=c6 v=0
62900 On ch=1 n=f#6 v=0
62912 On ch=1 n=d#4 v=58
62918 On ch=1 n=c7 v=0
62934 On ch=1 n=f#4 v=0
62970 On ch=1 n=g#3 v=79
62984 On ch=1 n=c7 v=90
62984 On ch=1 n=c6 v=90
62986 On ch=1 n=f#6 v=92
63004 On ch=1 n=d#4 v=0
63018 Par ch=1 c=64 v=127
63038 On ch=1 n=c6 v=0
63060 On ch=1 n=f#6 v=0
63064 On ch=1 n=d#4 v=58
63076 On ch=1 n=c7 v=0
63098 On ch=1 n=g#3 v=0
63128 On ch=1 n=f#4 v=58
63174 On ch=1 n=d#4 v=0
63208 On ch=1 n=f7 v=86
63208 On ch=1 n=c5 v=58
63216 On ch=1 n=g#6 v=87
63216 On ch=1 n=f6 v=78
63248 On ch=1 n=g#6 v=0
63248 On ch=1 n=f#4 v=0
63250 On ch=1 n=f7 v=0
63258 On ch=1 n=f6 v=0
63286 On ch=1 n=d#7 v=79
63292 On ch=1 n=f#6 v=86
63292 On ch=1 n=d#6 v=86
63294 On ch=1 n=c5 v=0
63302 On ch=1 n=f#6 v=78
63304 On ch=1 n=f#4 v=58
63316 On ch=1 n=f#6 v=0
63332 Par ch=1 c=64 v=0
63362 Par ch=1 c=64 v=0
63376 On ch=1 n=d#4 v=58
63452 On ch=1 n=f#4 v=0
63456 Par ch=1 c=64 v=127
63460 Par ch=1 c=64 v=127
63464 On ch=1 n=c#3 v=77
63468 On ch=1 n=d#4 v=0
63468 Par ch=1 c=64 v=0
63472 On ch=1 n=c#6 v=95
63476 On ch=1 n=d#7 v=0
63480 On ch=1 n=f6 v=94
63482 On ch=1 n=d#6 v=0
63488 On ch=1 n=c#7 v=86
63492 On ch=1 n=f#6 v=0
63498 Par ch=1 c=64 v=0
63522 Par ch=1 c=64 v=127
63592 Par ch=1 c=64 v=127
63596 Par ch=1 c=64 v=127
63624 Par ch=1 c=64 v=0
63658 Par ch=1 c=64 v=127
63752 Par ch=1 c=64 v=0
63760 Par ch=1 c=64 v=0
63832 Par ch=1 c=64 v=127
63842 On ch=1 n=g#3 v=62
63866 Par ch=1 c=64 v=127
63888 Par ch=1 c=64 v=0
63946 On ch=1 n=f4 v=52
63968 Par ch=1 c=64 v=127
63990 On ch=1 n=g#3 v=0
64002 Par ch=1 c=64 v=127
64048 On ch=1 n=c#5 v=84
64054 On ch=1 n=f5 v=73
64070 On ch=1 n=f4 v=0
64106 On ch=1 n=c#6 v=0
64114 On ch=1 n=f6 v=0
64122 On ch=1 n=c#7 v=0
64126 On ch=1 n=c#5 v=0
64136 On ch=1 n=c#6 v=84
64158 On ch=1 n=f5 v=0
64216 On ch=1 n=g#6 v=77
64222 On ch=1 n=c#6 v=0
64250 On ch=1 n=g#6 v=0
64292 On ch=1 n=c#3 v=0
64294 On ch=1 n=f6 v=90
64366 On ch=1 n=f6 v=0
64370 Par ch=1 c=64 v=0
64388 Par ch=1 c=64 v=0
64402 On ch=1 n=c#7 v=82
64462 On ch=1 n=c#7 v=0
64472 On ch=1 n=a#7 v=63
64480 Par ch=1 c=64 v=127
64506 Par ch=1 c=64 v=0
64522 Par ch=1 c=64 v=127
64524 Par ch=1 c=64 v=0
64550 On ch=1 n=g#7 v=92
64556 On ch=1 n=c7 v=81
64570 On ch=1 n=a#7 v=0
64580 On ch=1 n=g#2 v=81
64616 Par ch=1 c=64 v=127
64658 Par ch=1 c=64 v=127
64760 Par ch=1 c=64 v=0
64840 On ch=1 n=g#3 v=62
64840 Par ch=1 c=64 v=127
64960 On ch=1 n=d#4 v=65
64988 On ch=1 n=g#3 v=0
65056 On ch=1 n=c5 v=101
65070 On ch=1 n=f#5 v=95
65072 On ch=1 n=d#4 v=0
65128 On ch=1 n=c6 v=67
65132 On ch=1 n=c5 v=0
65160 On ch=1 n=f#5 v=0
65186 On ch=1 n=g#7 v=0
65190 On ch=1 n=c7 v=0
65200 On ch=1 n=c6 v=0
65206 On ch=1 n=g#6 v=82
65244 On ch=1 n=g#6 v=0
65292 On ch=1 n=f#6 v=81
65300 Par ch=1 c=64 v=0
65346 Par ch=1 c=64 v=0
65352 On ch=1 n=c7 v=71
65368 On ch=1 n=f#6 v=0
65412 On ch=1 n=g#2 v=0
65420 Par ch=1 c=64 v=127
65432 On ch=1 n=g#7 v=69
65436 Par ch=1 c=64 v=0
65442 On ch=1 n=c7 v=0
65482 Par ch=1 c=64 v=0
65502 Par ch=1 c=64 v=127
65528 On ch=1 n=f7 v=75
65532 On ch=1 n=c#7 v=90
65538 On ch=1 n=c#3 v=75
65552 On ch=1 n=g#7 v=0
65556 Par ch=1 c=64 v=127
65638 Par ch=1 c=64 v=127
65808 Par ch=1 c=64 v=0
65890 Par ch=1 c=64 v=127
65940 On ch=1 n=g#3 v=62
65944 Par ch=1 c=64 v=0
66016 On ch=1 n=f4 v=69
66026 Par ch=1 c=64 v=127
66046 On ch=1 n=g#3 v=0
66080 On ch=1 n=f5 v=73
66092 On ch=1 n=c#5 v=82
66112 On ch=1 n=f4 v=0
66152 On ch=1 n=c#6 v=79
66156 On ch=1 n=c#5 v=0
66162 On ch=1 n=f7 v=0
66166 On ch=1 n=c#7 v=0
66180 On ch=1 n=f5 v=0
66220 On ch=1 n=g#6 v=75
66242 On ch=1 n=c#6 v=0
66258 On ch=1 n=g#6 v=0
66296 On ch=1 n=f6 v=87
66352 Par ch=1 c=64 v=0
66352 Par ch=1 c=64 v=0
66358 On ch=1 n=c#3 v=0
66366 On ch=1 n=f6 v=0
66376 On ch=1 n=c#7 v=77
66448 On ch=1 n=c#7 v=0
66464 On ch=1 n=a#7 v=81
66468 Par ch=1 c=64 v=127
66486 Par ch=1 c=64 v=127
66488 Par ch=1 c=64 v=0
66488 Par ch=1 c=64 v=0
66536 On ch=1 n=g#2 v=75
66560 On ch=1 n=g#7 v=93
66560 On ch=1 n=c7 v=78
66568 On ch=1 n=a#7 v=0
66604 Par ch=1 c=64 v=127
66622 Par ch=1 c=64 v=127
66840 Par ch=1 c=64 v=0
66856 On ch=1 n=g#3 v=62
66920 Par ch=1 c=64 v=127
66952 On ch=1 n=d#4 v=69
67004 On ch=1 n=g#3 v=0
67032 On ch=1 n=c5 v=73
67040 On ch=1 n=f#5 v=95
67068 On ch=1 n=d#4 v=0
67116 On ch=1 n=f#5 v=0
67118 On ch=1 n=c6 v=73
67130 On ch=1 n=c5 v=0
67172 On ch=1 n=c6 v=0
67184 On ch=1 n=g#6 v=95
67190 On ch=1 n=c7 v=0
67194 On ch=1 n=g#7 v=0
67214 On ch=1 n=g#6 v=0
67260 On ch=1 n=f#6 v=82
67302 Par ch=1 c=64 v=0
67318 Par ch=1 c=64 v=0
67330 On ch=1 n=c7 v=71
67366 On ch=1 n=g#2 v=0
67380 On ch=1 n=f#6 v=0
67410 On ch=1 n=g#7 v=78
67414 Par ch=1 c=64 v=127
67426 On ch=1 n=c7 v=0
67438 Par ch=1 c=64 v=0
67454 Par ch=1 c=64 v=0
67456 Par ch=1 c=64 v=127
67496 On ch=1 n=c#2 v=95
67504 On ch=1 n=f7 v=75
67512 On ch=1 n=c#7 v=88
67544 On ch=1 n=g#7 v=0
67550 Par ch=1 c=64 v=127
67592 Par ch=1 c=64 v=127
67616 Par ch=1 c=64 v=127
67738 Par ch=1 c=64 v=0
67842 Par ch=1 c=64 v=127
67874 Par ch=1 c=64 v=0
67898 Par ch=1 c=64 v=0
67906 On ch=1 n=g#3 v=63
67978 Par ch=1 c=64 v=127
67992 On ch=1 n=f4 v=70
68002 Par ch=1 c=64 v=127
68034 On ch=1 n=g#3 v=0
68084 On ch=1 n=f4 v=0
68104 On ch=1 n=c#5 v=77
68112 On ch=1 n=f5 v=58
68138 On ch=1 n=f7 v=0
68146 On ch=1 n=c#7 v=0
68152 On ch=1 n=c#6 v=75
68198 On ch=1 n=c#5 v=0
68210 On ch=1 n=f5 v=0
68236 On ch=1 n=g#6 v=75
68256 On ch=1 n=c#6 v=0
68318 On ch=1 n=c#2 v=0
68340 On ch=1 n=f6 v=84
68370 On ch=1 n=f6 v=0
68384 On ch=1 n=g#6 v=0
68406 On ch=1 n=c#7 v=75
68476 On ch=1 n=c#7 v=0
68490 On ch=1 n=g#7 v=84
68550 On ch=1 n=c#7 v=90
68578 On ch=1 n=g#7 v=0
68612 On ch=1 n=c#7 v=0
68630 On ch=1 n=f6 v=77
68658 On ch=1 n=f6 v=0
68674 On ch=1 n=g#6 v=59
68732 On ch=1 n=g#6 v=0
68748 On ch=1 n=c#6 v=64
68804 On ch=1 n=f5 v=77
68826 On ch=1 n=c#6 v=0
68866 On ch=1 n=f5 v=0
68880 On ch=1 n=g#5 v=76
68948 On ch=1 n=c#5 v=94
68990 On ch=1 n=g#5 v=0
69020 On ch=1 n=c#5 v=0
69034 On ch=1 n=f4 v=61
69070 On ch=1 n=f4 v=0
69080 On ch=1 n=g#4 v=81
69094 Par ch=1 c=64 v=0
69138 On ch=1 n=c#4 v=67
69180 Par ch=1 c=64 v=0
69204 On ch=1 n=g#4 v=0
69204 Par ch=1 c=64 v=127
69204 On ch=1 n=f3 v=77
69230 Par ch=1 c=64 v=0
69254 Par ch=1 c=64 v=0
69274 On ch=1 n=c#4 v=0
69280 On ch=1 n=f3 v=0
69288 On ch=1 n=c#4 v=92
69316 Par ch=1 c=64 v=0
69332 Par ch=1 c=64 v=127
69340 Par ch=1 c=64 v=127
69340 Par ch=1 c=64 v=0
69356 On ch=1 n=c#4 v=0
69364 Par ch=1 c=64 v=127
69410 On ch=1 n=c#3 v=93
69424 On ch=1 n=c#2 v=90
69468 Par ch=1 c=64 v=127
69492 Par ch=1 c=64 v=127
69920 Par ch=1 c=64 v=0
70080 Par ch=1 c=64 v=0
70126 On ch=1 n=c#8 v=77
70126 On ch=1 n=c#6 v=66
70128 On ch=1 n=c#5 v=90
70140 On ch=1 n=c#7 v=87
70640 On ch=1 n=c#2 v=0
70660 On ch=1 n=c#3 v=0
71024 Par ch=1 c=64 v=0
71134 On ch=1 n=c#7 v=0
71144 On ch=1 n=c#8 v=0
71150 On ch=1 n=c#6 v=0
71152 On ch=1 n=c#5 v=0
71184 Par ch=1 c=64 v=0
72368 On ch=1 n=a4 v=32
72368 On ch=1 n=a3 v=32
72426 On ch=1 n=a#4 v=36
72456 On ch=1 n=a#3 v=47
72468 Par ch=1 c=64 v=0
72484 On ch=1 n=c#4 v=38
72496 On ch=1 n=c#5 v=51
72504 On ch=1 n=a3 v=0
72520 On ch=1 n=a4 v=0
72554 On ch=1 n=a#4 v=0
72558 On ch=1 n=f5 v=39
72568 On ch=1 n=a#3 v=0
72568 On ch=1 n=f4 v=39
72590 On ch=1 n=c#5 v=0
72592 On ch=1 n=c#4 v=0
72626 On ch=1 n=f4 v=0
72632 On ch=1 n=f5 v=0
73032 On ch=1 n=a4 v=28
73048 On ch=1 n=a3 v=28
73094 On ch=1 n=a#3 v=34
73096 On ch=1 n=a#4 v=34
73128 On ch=1 n=a3 v=0
73160 On ch=1 n=c#4 v=29
73164 On ch=1 n=a4 v=0
73178 On ch=1 n=c#5 v=33
73224 On ch=1 n=a#3 v=0
73236 On ch=1 n=a#4 v=0
73240 On ch=1 n=f5 v=41
73272 On ch=1 n=c#5 v=0
73280 On ch=1 n=f4 v=15
73286 On ch=1 n=c#4 v=0
73448 Par ch=1 c=64 v=127
73676 On ch=1 n=f5 v=0
73730 On ch=1 n=f4 v=0
74304 Par ch=1 c=64 v=0
74412 On ch=1 n=a#4 v=93
74420 On ch=1 n=a#2 v=93
74424 On ch=1 n=a#3 v=90
74464 Par ch=1 c=64 v=127
74476 On ch=1 n=a#3 v=0
74476 On ch=1 n=a#4 v=0
74478 On ch=1 n=a#2 v=0
75114 On ch=1 n=a#7 v=93
75128 On ch=1 n=f#7 v=93
75128 On ch=1 n=a#6 v=93
75128 On ch=1 n=a#5 v=96
75128 On ch=1 n=c5 v=80
75146 On ch=1 n=f#5 v=82
75146 On ch=1 n=a#4 v=80
75156 On ch=1 n=d#5 v=78
75178 Par ch=1 c=64 v=0
75260 Par ch=1 c=64 v=127
75610 On ch=1 n=a#4 v=0
75700 On ch=1 n=d#5 v=0
75720 On ch=1 n=f#7 v=0
75738 On ch=1 n=a#7 v=0
75776 On ch=1 n=f#5 v=0
75784 On ch=1 n=a#6 v=0
75814 On ch=1 n=c5 v=0
75844 On ch=1 n=a#5 v=0
76230 On ch=1 n=d#6 v=79
76238 On ch=1 n=d#7 v=83
76244 On ch=1 n=c7 v=81
76244 On ch=1 n=a#5 v=80
76260 On ch=1 n=c5 v=73
76262 On ch=1 n=f#5 v=75
76262 On ch=1 n=a#4 v=64
76304 On ch=1 n=d#6 v=0
76306 On ch=1 n=a#4 v=0
76306 On ch=1 n=c7 v=0
76320 On ch=1 n=f#5 v=0
76324 On ch=1 n=a#5 v=0
76330 On ch=1 n=c5 v=0
76338 On ch=1 n=d#7 v=0
76452 On ch=1 n=c7 v=82
76452 On ch=1 n=f6 v=74
76458 On ch=1 n=a#4 v=75
76464 On ch=1 n=f7 v=82
76464 On ch=1 n=f#5 v=69
76470 On ch=1 n=a#5 v=90
76478 On ch=1 n=c5 v=75
76494 On ch=1 n=f#5 v=0
76500 On ch=1 n=f6 v=0
76504 On ch=1 n=c7 v=0
76512 On ch=1 n=a#5 v=0
76512 On ch=1 n=f7 v=0
76518 On ch=1 n=c5 v=0
76528 On ch=1 n=a#4 v=0
76536 On ch=1 n=c7 v=94
76536 On ch=1 n=f#6 v=87
76544 On ch=1 n=f#7 v=98
76556 On ch=1 n=f#5 v=82
76556 On ch=1 n=a#4 v=69
76568 On ch=1 n=a#5 v=87
76568 On ch=1 n=c5 v=74
76612 On ch=1 n=c7 v=0
76626 On ch=1 n=f#6 v=0
76642 On ch=1 n=f#7 v=0
76648 On ch=1 n=c5 v=0
76652 On ch=1 n=a#5 v=0
76654 On ch=1 n=f#5 v=0
76660 On ch=1 n=a#4 v=0
76742 Par ch=1 c=64 v=0
76768 On ch=1 n=a#4 v=55
76784 On ch=1 n=c#7 v=96
76784 On ch=1 n=f6 v=86
76784 On ch=1 n=a#5 v=83
76804 On ch=1 n=f7 v=90
76804 On ch=1 n=f5 v=73
76804 On ch=1 n=c#5 v=66
76838 Par ch=1 c=64 v=127
76856 On ch=1 n=a#5 v=0
76860 On ch=1 n=f6 v=0
76868 On ch=1 n=f5 v=0
76868 On ch=1 n=f7 v=0
76884 On ch=1 n=c#5 v=0
76884 On ch=1 n=c#7 v=0
76906 On ch=1 n=a#4 v=0
77224 On ch=1 n=a3 v=31
77234 On ch=1 n=a4 v=46
77262 On ch=1 n=a#3 v=30
77284 On ch=1 n=a#4 v=43
77290 Par ch=1 c=64 v=0
77308 On ch=1 n=c#4 v=35
77320 On ch=1 n=a3 v=0
77344 On ch=1 n=c#5 v=48
77352 On ch=1 n=a4 v=0
77396 On ch=1 n=a#3 v=0
77402 On ch=1 n=f4 v=42
77414 On ch=1 n=a#4 v=0
77414 On ch=1 n=f5 v=48
77424 On ch=1 n=c#4 v=0
77432 On ch=1 n=c#5 v=0
77474 On ch=1 n=f5 v=0
77474 On ch=1 n=f4 v=0
77880 On ch=1 n=a4 v=28
77892 On ch=1 n=a3 v=30
77952 On ch=1 n=a#3 v=34
77958 On ch=1 n=a#4 v=38
77994 On ch=1 n=a3 v=0
78008 On ch=1 n=c#4 v=33
78028 On ch=1 n=a4 v=0
78032 On ch=1 n=c#5 v=39
78088 On ch=1 n=a#3 v=0
78100 On ch=1 n=a#4 v=0
78114 On ch=1 n=f5 v=33
78120 On ch=1 n=f4 v=29
78144 On ch=1 n=c#5 v=0
78150 On ch=1 n=c#4 v=0
78244 Par ch=1 c=64 v=127
78530 On ch=1 n=f5 v=0
78622 On ch=1 n=f4 v=0
79160 Par ch=1 c=64 v=0
79218 On ch=1 n=g#4 v=93
79224 On ch=1 n=g#2 v=87
79226 On ch=1 n=g#3 v=86
79272 Par ch=1 c=64 v=127
79288 On ch=1 n=g#3 v=0
79296 On ch=1 n=g#2 v=0
79296 On ch=1 n=g#4 v=0
79858 On ch=1 n=g#4 v=82
79918 Par ch=1 c=64 v=0
79930 On ch=1 n=f5 v=80
79940 On ch=1 n=g#7 v=93
79948 On ch=1 n=f7 v=93
79948 On ch=1 n=g#6 v=107
79972 On ch=1 n=c#6 v=93
80006 Par ch=1 c=64 v=127
80388 On ch=1 n=c#6 v=0
80396 On ch=1 n=f5 v=0
80432 On ch=1 n=f7 v=0
80460 On ch=1 n=g#7 v=0
80478 On ch=1 n=g#4 v=0
80508 On ch=1 n=g#6 v=0
80762 Par ch=1 c=64 v=127
80958 On ch=1 n=d#6 v=60
80968 On ch=1 n=d#7 v=67
80980 On ch=1 n=c7 v=65
80980 On ch=1 n=g#5 v=55
80980 On ch=1 n=f#5 v=55
80992 On ch=1 n=d#5 v=46
80992 On ch=1 n=g#4 v=59
81040 On ch=1 n=d#5 v=0
81044 On ch=1 n=d#6 v=0
81046 On ch=1 n=f#5 v=0
81056 On ch=1 n=g#4 v=0
81056 On ch=1 n=g#5 v=0
81056 On ch=1 n=c7 v=0
81072 On ch=1 n=d#7 v=0
81164 On ch=1 n=g#5 v=66
81168 On ch=1 n=f#5 v=63
81182 On ch=1 n=e7 v=74
81182 On ch=1 n=e6 v=66
81188 On ch=1 n=c7 v=67
81196 On ch=1 n=d#5 v=65
81196 On ch=1 n=g#4 v=62
81232 On ch=1 n=d#5 v=0
81240 On ch=1 n=c7 v=0
81240 On ch=1 n=e6 v=0
81246 On ch=1 n=g#5 v=0
81248 On ch=1 n=g#4 v=0
81248 On ch=1 n=f#5 v=0
81266 On ch=1 n=e7 v=0
81330 On ch=1 n=g#5 v=75
81336 On ch=1 n=f#5 v=75
81346 On ch=1 n=f6 v=75
81346 On ch=1 n=g#4 v=70
81356 On ch=1 n=f7 v=78
81358 On ch=1 n=c7 v=81
81358 On ch=1 n=d#5 v=62
81396 On ch=1 n=f6 v=0
81404 On ch=1 n=d#5 v=0
81410 On ch=1 n=f#5 v=0
81410 On ch=1 n=g#5 v=0
81412 On ch=1 n=c7 v=0
81412 On ch=1 n=g#4 v=0
81440 On ch=1 n=f7 v=0
81478 On ch=1 n=g#5 v=78
81486 On ch=1 n=g#4 v=77
81488 On ch=1 n=c7 v=93
81488 On ch=1 n=f#5 v=77
81504 On ch=1 n=g#7 v=100
81504 On ch=1 n=g#6 v=83
81504 On ch=1 n=d#5 v=71
81528 On ch=1 n=c7 v=0
81544 On ch=1 n=d#5 v=0
81544 On ch=1 n=g#6 v=0
81550 On ch=1 n=f#5 v=0
81550 On ch=1 n=g#5 v=0
81558 On ch=1 n=g#4 v=0
81564 On ch=1 n=g#7 v=0
81616 On ch=1 n=c7 v=66
81616 On ch=1 n=d#5 v=66
81616 On ch=1 n=g#4 v=77
81622 On ch=1 n=f#5 v=75
81632 On ch=1 n=f#6 v=86
81632 On ch=1 n=g#5 v=75
81640 On ch=1 n=f#7 v=86
81676 On ch=1 n=d#5 v=0
81676 On ch=1 n=c7 v=0
81696 On ch=1 n=f#6 v=0
81704 On ch=1 n=f#5 v=0
81710 On ch=1 n=f#7 v=0
81720 On ch=1 n=g#5 v=0
81734 On ch=1 n=g#4 v=0
81812 On ch=1 n=c#7 v=100
81814 Par ch=1 c=64 v=0
81818 On ch=1 n=f6 v=87
81818 On ch=1 n=f5 v=88
81832 On ch=1 n=f7 v=93
81832 On ch=1 n=g#5 v=93
81832 On ch=1 n=c#5 v=63
81852 Par ch=1 c=64 v=0
81892 Par ch=1 c=64 v=127
82024 On ch=1 n=c#7 v=0
82028 On ch=1 n=f7 v=0
82038 On ch=1 n=g#5 v=0
82042 On ch=1 n=f5 v=0
82054 On ch=1 n=c#5 v=0
82056 On ch=1 n=f6 v=0
82356 Par ch=1 c=64 v=0
82384 On ch=1 n=c5 v=69
82388 On ch=1 n=f6 v=82
82388 On ch=1 n=f5 v=79
82396 On ch=1 n=a5 v=79
82396 On ch=1 n=f4 v=83
82440 Par ch=1 c=64 v=127
82514 On ch=1 n=c5 v=0
82516 On ch=1 n=f5 v=0
82516 On ch=1 n=f6 v=0
82526 On ch=1 n=a5 v=0
82562 On ch=1 n=f4 v=0
82956 On ch=1 n=f5 v=86
82962 On ch=1 n=a4 v=82
82962 On ch=1 n=f3 v=82
82964 On ch=1 n=f4 v=81
82964 On ch=1 n=c4 v=82
83158 On ch=1 n=f5 v=0
83192 On ch=1 n=f4 v=0
83196 On ch=1 n=a4 v=0
83212 On ch=1 n=c4 v=0
83248 On ch=1 n=f3 v=0
83642 On ch=1 n=f2 v=92
83654 On ch=1 n=f3 v=102
83714 Par ch=1 c=64 v=0
83874 Par ch=1 c=64 v=127
85118 On ch=1 n=f3 v=0
85120 On ch=1 n=f#3 v=109
85130 On ch=1 n=f#2 v=109
85146 On ch=1 n=f#3 v=0
85148 On ch=1 n=f2 v=0
85164 Par ch=1 c=64 v=0
85176 On ch=1 n=f#2 v=0
87054 On ch=1 n=a3 v=23
87064 On ch=1 n=a4 v=24
87092 On ch=1 n=a#3 v=32
87108 On ch=1 n=a#4 v=33
87108 Par ch=1 c=64 v=127
87144 On ch=1 n=c#4 v=22
87158 On ch=1 n=a3 v=0
87172 On ch=1 n=c#5 v=36
87216 On ch=1 n=a4 v=0
87222 Par ch=1 c=64 v=0
87238 On ch=1 n=f5 v=39
87244 On ch=1 n=a#4 v=0
87250 On ch=1 n=a#3 v=0
87250 On ch=1 n=f4 v=31
87262 On ch=1 n=c#5 v=0
87268 On ch=1 n=c#4 v=0
87292 On ch=1 n=f5 v=0
87308 On ch=1 n=f4 v=0
87724 On ch=1 n=a4 v=20
87780 On ch=1 n=a#4 v=31
87788 On ch=1 n=a#3 v=28
87800 On ch=1 n=a3 v=2
87840 On ch=1 n=c#4 v=14
87850 On ch=1 n=c#5 v=31
87868 On ch=1 n=a3 v=0
87868 On ch=1 n=a4 v=0
87922 On ch=1 n=f5 v=31
87938 On ch=1 n=f4 v=10
87944 On ch=1 n=a#3 v=0
87944 On ch=1 n=a#4 v=0
87956 On ch=1 n=c#5 v=0
87964 On ch=1 n=c#4 v=0
88100 Par ch=1 c=64 v=127
88452 On ch=1 n=f4 v=0
88464 On ch=1 n=f5 v=0
88808 Par ch=1 c=64 v=0
88908 On ch=1 n=a#4 v=110
88908 On ch=1 n=a#2 v=91
88916 On ch=1 n=a#3 v=104
88952 Par ch=1 c=64 v=127
88970 On ch=1 n=a#3 v=0
88972 On ch=1 n=a#2 v=0
88976 On ch=1 n=a#4 v=0
89530 On ch=1 n=a#7 v=102
89530 On ch=1 n=a#4 v=82
89540 On ch=1 n=a#6 v=97
89550 On ch=1 n=c5 v=86
89552 On ch=1 n=f#7 v=93
89552 On ch=1 n=a#5 v=96
89552 On ch=1 n=f#5 v=86
89552 On ch=1 n=d#5 v=86
89576 Par ch=1 c=64 v=0
89682 Par ch=1 c=64 v=127
89764 On ch=1 n=a#4 v=0
89784 On ch=1 n=d#5 v=0
89804 On ch=1 n=f#5 v=0
89882 On ch=1 n=a#7 v=0
89892 On ch=1 n=f#7 v=0
89908 On ch=1 n=a#5 v=0
89920 On ch=1 n=c5 v=0
89920 On ch=1 n=a#6 v=0
90400 On ch=1 n=a#5 v=69
90412 On ch=1 n=d#6 v=71
90414 On ch=1 n=d#7 v=72
90414 On ch=1 n=c5 v=64
90416 On ch=1 n=d#5 v=58
90424 On ch=1 n=a#4 v=56
90426 On ch=1 n=c7 v=67
90426 On ch=1 n=f#5 v=58
90444 On ch=1 n=f#5 v=0
90446 On ch=1 n=d#5 v=0
90450 On ch=1 n=a#4 v=0
90450 On ch=1 n=d#7 v=0
90452 On ch=1 n=d#6 v=0
90460 On ch=1 n=c7 v=0
90464 On ch=1 n=c5 v=0
90464 On ch=1 n=a#5 v=0
90492 On ch=1 n=c5 v=62
90498 On ch=1 n=a#4 v=62
90500 On ch=1 n=d#6 v=73
90500 On ch=1 n=a#5 v=67
90512 On ch=1 n=d#5 v=58
90516 On ch=1 n=d#7 v=74
90516 On ch=1 n=c7 v=78
90518 On ch=1 n=f#5 v=64
90564 On ch=1 n=d#6 v=0
90572 On ch=1 n=a#5 v=0
90576 On ch=1 n=f#5 v=0
90576 On ch=1 n=c7 v=0
90588 On ch=1 n=c5 v=0
90594 On ch=1 n=d#7 v=0
90596 On ch=1 n=a#4 v=0
90632 On ch=1 n=d#5 v=0
90726 On ch=1 n=c5 v=71
90726 On ch=1 n=a#4 v=67
90736 On ch=1 n=d#5 v=58
90742 On ch=1 n=d#7 v=77
90742 On ch=1 n=c7 v=74
90742 On ch=1 n=d#6 v=78
90744 On ch=1 n=a#5 v=82
90744 On ch=1 n=f#5 v=72
90766 On ch=1 n=d#5 v=0
90786 On ch=1 n=f#5 v=0
90786 On ch=1 n=d#6 v=0
90800 On ch=1 n=c7 v=0
90804 On ch=1 n=a#5 v=0
90812 On ch=1 n=a#4 v=0
90816 On ch=1 n=c5 v=0
90822 On ch=1 n=d#7 v=0
90964 On ch=1 n=c7 v=67
90976 On ch=1 n=f6 v=58
90976 On ch=1 n=f#5 v=58
90976 On ch=1 n=d#5 v=58
90984 On ch=1 n=a#5 v=78
90984 On ch=1 n=c5 v=67
90984 On ch=1 n=a#4 v=62
91004 On ch=1 n=f7 v=72
91006 On ch=1 n=d#5 v=0
91006 On ch=1 n=f#5 v=0
91010 On ch=1 n=f6 v=0
91028 On ch=1 n=f7 v=0
91028 On ch=1 n=c7 v=0
91036 On ch=1 n=a#5 v=0
91040 On ch=1 n=c5 v=0
91044 On ch=1 n=a#4 v=0
91052 On ch=1 n=c7 v=74
91052 On ch=1 n=f#6 v=72
91058 On ch=1 n=f#7 v=79
91072 On ch=1 n=d#5 v=58
91072 On ch=1 n=a#4 v=63
91078 On ch=1 n=a#5 v=74
91080 On ch=1 n=f#5 v=72
91080 On ch=1 n=c5 v=72
91104 On ch=1 n=c7 v=0
91138 On ch=1 n=f#7 v=0
91142 On ch=1 n=a#5 v=0
91148 On ch=1 n=f#6 v=0
91150 On ch=1 n=f#5 v=0
91154 On ch=1 n=c5 v=0
91156 On ch=1 n=a#4 v=0
91192 On ch=1 n=d#5 v=0
91270 Par ch=1 c=64 v=0
91306 On ch=1 n=a#4 v=3
91320 On ch=1 n=a#5 v=80
91322 On ch=1 n=c#7 v=86
91332 On ch=1 n=f7 v=81
91332 On ch=1 n=f6 v=86
91344 On ch=1 n=f5 v=75
91344 On ch=1 n=c#5 v=73
91380 Par ch=1 c=64 v=127
91396 On ch=1 n=a#5 v=0
91404 On ch=1 n=f5 v=0
91404 On ch=1 n=f7 v=0
91416 On ch=1 n=c#5 v=0
91416 On ch=1 n=c#7 v=0
91420 On ch=1 n=f6 v=0
91434 On ch=1 n=a#4 v=0
91762 On ch=1 n=a4 v=34
91768 On ch=1 n=a3 v=29
91816 Par ch=1 c=64 v=0
91824 On ch=1 n=a#3 v=17
91838 On ch=1 n=a#4 v=35
91870 On ch=1 n=c#4 v=17
91884 On ch=1 n=a3 v=0
91886 On ch=1 n=c#5 v=31
91910 On ch=1 n=a4 v=0
91956 On ch=1 n=a#4 v=0
91960 On ch=1 n=f5 v=39
91960 On ch=1 n=f4 v=24
91968 On ch=1 n=a#3 v=0
91980 On ch=1 n=c#4 v=0
91990 On ch=1 n=c#5 v=0
92014 On ch=1 n=f5 v=0
92022 On ch=1 n=f4 v=0
92426 On ch=1 n=a3 v=28
92432 On ch=1 n=a4 v=33
92492 On ch=1 n=a#4 v=34
92500 On ch=1 n=a#3 v=28
92548 On ch=1 n=a3 v=0
92552 On ch=1 n=a4 v=0
92554 On ch=1 n=c#4 v=21
92564 On ch=1 n=c#5 v=33
92628 On ch=1 n=a#3 v=0
92630 On ch=1 n=a#4 v=0
92648 On ch=1 n=f5 v=30
92664 On ch=1 n=f4 v=18
92680 On ch=1 n=c#5 v=0
92680 On ch=1 n=c#4 v=0
93018 Par ch=1 c=64 v=127
93174 On ch=1 n=f5 v=0
93336 On ch=1 n=f4 v=0
93524 Par ch=1 c=64 v=0
93628 On ch=1 n=c5 v=95
93642 On ch=1 n=c4 v=103
93642 On ch=1 n=c3 v=108
93666 Par ch=1 c=64 v=127
93688 On ch=1 n=c4 v=0
93692 On ch=1 n=c5 v=0
93698 On ch=1 n=c3 v=0
94200 On ch=1 n=f5 v=82
94208 On ch=1 n=c6 v=82
94208 On ch=1 n=c5 v=80
94216 On ch=1 n=f7 v=86
94216 On ch=1 n=c7 v=83
94222 On ch=1 n=g#7 v=83
94222 On ch=1 n=g#5 v=75
94224 On ch=1 n=c8 v=88
94260 Par ch=1 c=64 v=0
94342 Par ch=1 c=64 v=127
94724 On ch=1 n=f5 v=0
94730 On ch=1 n=c8 v=0
94730 On ch=1 n=f7 v=0
94744 On ch=1 n=g#7 v=0
94764 On ch=1 n=c7 v=0
94782 On ch=1 n=g#5 v=0
94798 On ch=1 n=c6 v=0
94804 On ch=1 n=c5 v=0
95120 On ch=1 n=c6 v=56
95120 On ch=1 n=e5 v=64
95120 On ch=1 n=c5 v=60
95132 On ch=1 n=a#5 v=46
95136 On ch=1 n=c#8 v=74
95136 On ch=1 n=g7 v=75
95136 On ch=1 n=c#7 v=64
95146 Par ch=1 c=64 v=127
95178 Par ch=1 c=64 v=127
95224 Par ch=1 c=64 v=0
95240 On ch=1 n=c5 v=0
95240 On ch=1 n=e5 v=0
95240 On ch=1 n=c6 v=0
95252 On ch=1 n=a#5 v=0
95256 On ch=1 n=c#7 v=0
95256 On ch=1 n=g7 v=0
95256 On ch=1 n=c#8 v=0
95264 On ch=1 n=g7 v=74
95264 On ch=1 n=c7 v=74
95264 On ch=1 n=c6 v=72
95264 On ch=1 n=a#5 v=74
95264 On ch=1 n=e5 v=64
95264 On ch=1 n=c5 v=75
95272 On ch=1 n=c8 v=69
95302 Par ch=1 c=64 v=127
95384 On ch=1 n=c5 v=0
95384 On ch=1 n=e5 v=0
95384 On ch=1 n=a#5 v=0
95384 On ch=1 n=c6 v=0
95384 On ch=1 n=c7 v=0
95384 On ch=1 n=g7 v=0
95392 On ch=1 n=c8 v=0
95392 On ch=1 n=f7 v=70
95392 On ch=1 n=f6 v=81
95392 On ch=1 n=c5 v=60
95400 On ch=1 n=c7 v=69
95400 On ch=1 n=c6 v=63
95400 On ch=1 n=a#5 v=64
95400 On ch=1 n=e5 v=63
95512 On ch=1 n=c5 v=0
95512 On ch=1 n=f6 v=0
95512 On ch=1 n=f7 v=0
95520 On ch=1 n=e5 v=0
95520 On ch=1 n=a#5 v=0
95520 On ch=1 n=c6 v=0
95520 On ch=1 n=c7 v=0
95536 On ch=1 n=a#5 v=72
95544 On ch=1 n=g7 v=81
95544 On ch=1 n=g6 v=83
95544 On ch=1 n=c6 v=66
95544 On ch=1 n=e5 v=64
95544 On ch=1 n=c5 v=60
95552 On ch=1 n=c7 v=87
95686 On ch=1 n=a#5 v=0
95692 Par ch=1 c=64 v=0
95694 On ch=1 n=c5 v=0
95694 On ch=1 n=e5 v=0
95694 On ch=1 n=c6 v=0
95694 On ch=1 n=g6 v=0
95694 On ch=1 n=g7 v=0
95702 On ch=1 n=c7 v=0
95736 On ch=1 n=g#7 v=87
95736 On ch=1 n=c7 v=81
95736 On ch=1 n=g#6 v=74
95736 On ch=1 n=c6 v=81
95736 On ch=1 n=g#5 v=80
95736 On ch=1 n=f5 v=70
95798 Par ch=1 c=64 v=127
95800 Par ch=1 c=64 v=0
95832 Par ch=1 c=64 v=0
95920 Par ch=1 c=64 v=127
95952 Par ch=1 c=64 v=127
96024 Par ch=1 c=64 v=0
96038 On ch=1 n=c6 v=0
96046 On ch=1 n=g#5 v=0
96046 On ch=1 n=g#6 v=0
96046 On ch=1 n=c7 v=0
96046 On ch=1 n=g#7 v=0
96052 On ch=1 n=f5 v=0
96056 Par ch=1 c=64 v=0
96176 On ch=1 n=f5 v=83
96176 On ch=1 n=c5 v=83
96192 On ch=1 n=f6 v=86
96192 On ch=1 n=c6 v=89
96192 On ch=1 n=g#5 v=96
96200 On ch=1 n=g#6 v=86
96206 On ch=1 n=f4 v=86
96224 Par ch=1 c=64 v=0
96312 Par ch=1 c=64 v=127
96336 On ch=1 n=c5 v=0
96336 On ch=1 n=f5 v=0
96352 On ch=1 n=g#5 v=0
96352 On ch=1 n=c6 v=0
96352 On ch=1 n=f6 v=0
96360 On ch=1 n=g#6 v=0
96368 On ch=1 n=f4 v=0
96680 Par ch=1 c=64 v=0
96686 On ch=1 n=g#5 v=83
96698 On ch=1 n=f3 v=86
96708 On ch=1 n=c5 v=89
96708 On ch=1 n=f4 v=86
96710 On ch=1 n=f5 v=79
96710 On ch=1 n=g#4 v=94
96710 On ch=1 n=c4 v=82
96770 Par ch=1 c=64 v=127
96908 On ch=1 n=g#5 v=0
96918 On ch=1 n=f5 v=0
96930 On ch=1 n=c5 v=0
96944 On ch=1 n=f4 v=0
96968 On ch=1 n=c4 v=0
96972 On ch=1 n=g#4 v=0
96994 On ch=1 n=f3 v=0
97262 On ch=1 n=e3 v=86
97272 On ch=1 n=e2 v=82
97292 Par ch=1 c=64 v=0
97408 Par ch=1 c=64 v=127
98296 On ch=1 n=e2 v=0
98296 On ch=1 n=e3 v=0
98296 On ch=1 n=f3 v=72
98296 On ch=1 n=f2 v=65
98840 On ch=1 n=d2 v=33
98842 On ch=1 n=d3 v=57
98874 On ch=1 n=f2 v=0
98874 On ch=1 n=f3 v=0
98874 Par ch=1 c=64 v=127
98984 On ch=1 n=d#3 v=51
98984 On ch=1 n=d#2 v=41
98994 On ch=1 n=d2 v=0
98996 On ch=1 n=d3 v=0
99112 On ch=1 n=d#3 v=0
99128 On ch=1 n=f3 v=35
99142 On ch=1 n=d#2 v=0
99146 On ch=1 n=f2 v=45
99220 On ch=1 n=d#3 v=44
99222 On ch=1 n=f3 v=0
99270 On ch=1 n=d#2 v=45
99294 On ch=1 n=f2 v=0
99302 On ch=1 n=d#3 v=0
99310 On ch=1 n=f3 v=66
99370 On ch=1 n=f2 v=63
99386 On ch=1 n=f3 v=0
99390 On ch=1 n=d#3 v=55
99398 On ch=1 n=d#2 v=0
99444 On ch=1 n=d#3 v=0
99464 On ch=1 n=f3 v=51
99474 On ch=1 n=d#2 v=57
99480 On ch=1 n=f2 v=0
99522 On ch=1 n=f3 v=0
99526 On ch=1 n=d#3 v=75
99554 On ch=1 n=f2 v=72
99574 On ch=1 n=d#2 v=0
99584 On ch=1 n=d#3 v=0
99598 On ch=1 n=f3 v=63
99640 On ch=1 n=d#2 v=64
99656 On ch=1 n=f3 v=0
99662 On ch=1 n=f2 v=0
99672 On ch=1 n=d#3 v=79
99728 On ch=1 n=d#3 v=0
99736 On ch=1 n=f3 v=66
99736 On ch=1 n=f2 v=78
99742 On ch=1 n=d#2 v=0
99792 On ch=1 n=f3 v=0
99800 On ch=1 n=d#3 v=80
99800 On ch=1 n=d#2 v=72
99824 On ch=1 n=f2 v=0
99856 On ch=1 n=f3 v=73
99862 On ch=1 n=d#3 v=0
99874 Par ch=1 c=64 v=0
99900 On ch=1 n=f2 v=85
99904 On ch=1 n=d#2 v=0
99920 On ch=1 n=f3 v=0
99938 On ch=1 n=d#3 v=84
99974 On ch=1 n=d#2 v=66
99992 On ch=1 n=d#3 v=0
99992 On ch=1 n=f3 v=84
100080 On ch=1 n=d#3 v=69
100116 On ch=1 n=f3 v=0
100174 On ch=1 n=f2 v=0
100188 On ch=1 n=d2 v=54
100210 On ch=1 n=d#3 v=0
100218 On ch=1 n=d#2 v=0
100218 On ch=1 n=d3 v=81
100340 On ch=1 n=d#2 v=90
100352 On ch=1 n=d#3 v=95
100360 On ch=1 n=d3 v=0
100384 On ch=1 n=d2 v=0
100420 Par ch=1 c=64 v=0
100438 On ch=1 n=d#2 v=0
100458 On ch=1 n=d#3 v=0
100462 Par ch=1 c=64 v=127
100470 On ch=1 n=f8 v=96
100488 On ch=1 n=c#3 v=95
100488 On ch=1 n=c#2 v=95
100846 On ch=1 n=g#4 v=62
100846 On ch=1 n=g#3 v=64
100946 On ch=1 n=g#4 v=0
100960 On ch=1 n=g#3 v=0
101032 On ch=1 n=c#5 v=79
101042 On ch=1 n=f4 v=42
101136 On ch=1 n=f4 v=0
101156 On ch=1 n=c#5 v=0
101176 On ch=1 n=d#8 v=57
101240 On ch=1 n=c#8 v=82
101248 On ch=1 n=f8 v=0
101288 On ch=1 n=d#8 v=0
101304 On ch=1 n=g#7 v=72
101338 On ch=1 n=c#8 v=0
101344 On ch=1 n=g#3 v=69
101360 On ch=1 n=g#4 v=41
101372 On ch=1 n=f7 v=77
101376 On ch=1 n=g#7 v=0
101422 On ch=1 n=f7 v=0
101456 On ch=1 n=d#7 v=94
101462 On ch=1 n=g#3 v=0
101470 On ch=1 n=f4 v=69
101478 On ch=1 n=g#4 v=0
101500 On ch=1 n=c#5 v=77
101514 On ch=1 n=c#2 v=0
101522 On ch=1 n=c#7 v=78
101524 On ch=1 n=c#3 v=0
101540 On ch=1 n=d#7 v=0
101612 On ch=1 n=g#6 v=77
101624 On ch=1 n=c#5 v=0
101630 On ch=1 n=c#7 v=0
101676 On ch=1 n=g#6 v=0
101680 On ch=1 n=f6 v=72
101700 On ch=1 n=f4 v=0
101740 On ch=1 n=f6 v=0
101766 On ch=1 n=d#6 v=76
101848 On ch=1 n=c#6 v=79
101868 On ch=1 n=d#6 v=0
101932 Par ch=1 c=64 v=0
101956 On ch=1 n=g#5 v=69
101980 On ch=1 n=c#6 v=0
102154 On ch=1 n=g#5 v=0
102510 On ch=1 n=g#3 v=58
102520 On ch=1 n=f#4 v=52
102520 On ch=1 n=d#4 v=55
102528 On ch=1 n=c6 v=70
102544 Par ch=1 c=64 v=127
102580 On ch=1 n=c#6 v=70
102584 On ch=1 n=g#3 v=0
102594 On ch=1 n=d#4 v=0
102612 On ch=1 n=f#4 v=0
102620 On ch=1 n=c6 v=0
102658 On ch=1 n=d#6 v=64
102682 On ch=1 n=c#6 v=0
102720 On ch=1 n=d#6 v=0
102748 On ch=1 n=f6 v=76
102832 On ch=1 n=f#6 v=65
102870 On ch=1 n=f6 v=0
102902 On ch=1 n=g#6 v=73
102928 On ch=1 n=f#6 v=0
102956 Par ch=1 c=64 v=0
102976 On ch=1 n=c5 v=55
102992 On ch=1 n=a6 v=64
102992 On ch=1 n=f#5 v=58
102992 On ch=1 n=g4 v=51
103024 On ch=1 n=g#6 v=0
103040 Par ch=1 c=64 v=127
103068 On ch=1 n=c5 v=0
103076 On ch=1 n=f#5 v=0
103134 On ch=1 n=a6 v=0
103150 Par ch=1 c=64 v=0
103190 On ch=1 n=g4 v=0
103194 On ch=1 n=g#4 v=56
103196 Par ch=1 c=64 v=127
103208 On ch=1 n=f#5 v=63
103208 On ch=1 n=c5 v=59
103274 On ch=1 n=c5 v=0
103278 On ch=1 n=f#5 v=0
103288 On ch=1 n=g#4 v=0
103354 On ch=1 n=g#4 v=55
103368 On ch=1 n=f#5 v=62
103368 On ch=1 n=c5 v=51
103480 On ch=1 n=c5 v=0
103502 On ch=1 n=g#4 v=0
103518 On ch=1 n=a6 v=70
103576 On ch=1 n=g#6 v=66
103602 On ch=1 n=a6 v=0
103608 On ch=1 n=f#5 v=0
103654 On ch=1 n=g#6 v=0
103660 On ch=1 n=g6 v=75
103732 On ch=1 n=f#6 v=77
103744 On ch=1 n=g6 v=0
103798 On ch=1 n=f6 v=60
103824 On ch=1 n=f#6 v=0
103848 Par ch=1 c=64 v=0
103870 On ch=1 n=e6 v=75
103880 On ch=1 n=f6 v=0
103946 On ch=1 n=a4 v=55
103950 On ch=1 n=f#5 v=61
103960 On ch=1 n=d#6 v=86
103960 On ch=1 n=c5 v=55
103972 On ch=1 n=e6 v=0
103976 Par ch=1 c=64 v=127
103986 On ch=1 n=d#6 v=0
104016 On ch=1 n=c5 v=0
104034 On ch=1 n=f#5 v=0
104134 On ch=1 n=g#4 v=49
104144 On ch=1 n=a4 v=0
104144 On ch=1 n=f#5 v=62
104150 On ch=1 n=c5 v=52
104208 On ch=1 n=c5 v=0
104220 On ch=1 n=f#5 v=0
104224 On ch=1 n=g#4 v=0
104300 On ch=1 n=f#5 v=61
104308 On ch=1 n=g#4 v=58
104320 On ch=1 n=c5 v=54
104348 On ch=1 n=f#5 v=0
104350 On ch=1 n=c5 v=0
104372 On ch=1 n=g#4 v=0
104514 Par ch=1 c=64 v=0
104552 On ch=1 n=f8 v=98
104556 On ch=1 n=c#3 v=71
104564 On ch=1 n=c#2 v=69
104618 Par ch=1 c=64 v=127
104940 On ch=1 n=g#4 v=73
104944 On ch=1 n=g#3 v=71
105042 On ch=1 n=g#4 v=0
105058 On ch=1 n=g#3 v=0
105120 On ch=1 n=f4 v=69
105132 On ch=1 n=c#5 v=92
105244 On ch=1 n=c#5 v=0
105268 On ch=1 n=d#8 v=65
105308 On ch=1 n=f4 v=0
105330 On ch=1 n=f8 v=0
105332 On ch=1 n=c#8 v=79
105376 On ch=1 n=d#8 v=0
105394 On ch=1 n=g#7 v=68
105400 On ch=1 n=g#4 v=57
105400 On ch=1 n=g#3 v=75
105430 On ch=1 n=c#8 v=0
105452 On ch=1 n=f7 v=69
105462 On ch=1 n=g#7 v=0
105472 On ch=1 n=g#4 v=0
105504 On ch=1 n=g#3 v=0
105508 On ch=1 n=f7 v=0
105542 On ch=1 n=d#7 v=79
105552 On ch=1 n=f4 v=67
105572 On ch=1 n=c#5 v=77
105610 On ch=1 n=c#7 v=72
105636 On ch=1 n=d#7 v=0
105654 On ch=1 n=c#2 v=0
105656 On ch=1 n=c#5 v=0
105686 On ch=1 n=c#3 v=0
105686 On ch=1 n=g#6 v=68
105710 On ch=1 n=c#7 v=0
105720 On ch=1 n=f4 v=0
105764 On ch=1 n=g#6 v=0
105776 On ch=1 n=f6 v=51
105812 On ch=1 n=f6 v=0
105852 On ch=1 n=d#6 v=63
105876 Par ch=1 c=64 v=0
105948 On ch=1 n=d#6 v=0
105952 On ch=1 n=c#6 v=36
106036 On ch=1 n=g#5 v=52
106048 On ch=1 n=c#6 v=0
106236 On ch=1 n=g#5 v=0
106570 On ch=1 n=c6 v=54
106570 On ch=1 n=g#3 v=53
106580 On ch=1 n=f#4 v=46
106580 On ch=1 n=d#4 v=48
106614 Par ch=1 c=64 v=127
106632 On ch=1 n=c#6 v=55
106670 On ch=1 n=d#4 v=0
106674 On ch=1 n=g#3 v=0
106684 On ch=1 n=c6 v=0
106708 On ch=1 n=f#4 v=0
106728 On ch=1 n=d#6 v=64
106756 On ch=1 n=c#6 v=0
106794 On ch=1 n=d#6 v=0
106828 On ch=1 n=f6 v=63
106908 On ch=1 n=f#6 v=57
106948 On ch=1 n=f6 v=0
106982 On ch=1 n=g#6 v=58
107022 On ch=1 n=f#6 v=0
107060 On ch=1 n=a6 v=65
107072 On ch=1 n=c5 v=49
107080 On ch=1 n=g#6 v=0
107086 Par ch=1 c=64 v=0
107132 Par ch=1 c=64 v=127
107152 On ch=1 n=c#5 v=39
107158 On ch=1 n=a6 v=0
107186 On ch=1 n=c5 v=0
107222 On ch=1 n=d#5 v=61
107260 On ch=1 n=c#5 v=0
107308 On ch=1 n=f5 v=58
107316 On ch=1 n=d#5 v=0
107384 On ch=1 n=f#5 v=63
107412 On ch=1 n=f5 v=0
107460 Par ch=1 c=64 v=0
107476 On ch=1 n=g#5 v=69
107498 On ch=1 n=f#5 v=0
107544 On ch=1 n=a5 v=60
107560 On ch=1 n=g#5 v=0
107568 On ch=1 n=a6 v=51
107590 Par ch=1 c=64 v=127
107638 On ch=1 n=g#6 v=57
107642 On ch=1 n=a5 v=0
107666 On ch=1 n=a6 v=0
107726 On ch=1 n=g6 v=55
107730 On ch=1 n=g#6 v=0
107802 On ch=1 n=f#6 v=55
107820 On ch=1 n=g6 v=0
107866 On ch=1 n=f6 v=40
107894 On ch=1 n=f#6 v=0
107940 Par ch=1 c=64 v=0
107958 On ch=1 n=f6 v=0
107958 On ch=1 n=e6 v=40
108032 On ch=1 n=a4 v=49
108054 On ch=1 n=d#6 v=51
108070 Par ch=1 c=64 v=127
108096 On ch=1 n=g#4 v=57
108118 On ch=1 n=e6 v=0
108126 On ch=1 n=a4 v=0
108174 On ch=1 n=g#4 v=0
108192 On ch=1 n=g4 v=50
108206 On ch=1 n=d#6 v=0
108272 On ch=1 n=f#4 v=45
108284 On ch=1 n=g4 v=0
108348 On ch=1 n=f#4 v=0
108374 On ch=1 n=f4 v=48
108460 On ch=1 n=f4 v=0
108462 On ch=1 n=d#4 v=30
108480 Par ch=1 c=64 v=0
108560 On ch=1 n=d#4 v=0
108560 On ch=1 n=f6 v=69
108568 On ch=1 n=b5 v=49
108568 On ch=1 n=c#4 v=31
108612 Par ch=1 c=64 v=127
108660 On ch=1 n=g#4 v=46
108672 On ch=1 n=c#4 v=0
108746 On ch=1 n=c#5 v=46
108766 On ch=1 n=g#4 v=0
108814 On ch=1 n=c#5 v=0
108824 On ch=1 n=f5 v=46
108888 On ch=1 n=c#5 v=46
108914 On ch=1 n=b5 v=0
108924 On ch=1 n=f5 v=0
108964 On ch=1 n=c#5 v=0
108964 On ch=1 n=g#4 v=46
109044 On ch=1 n=g#4 v=0
109050 On ch=1 n=c#4 v=55
109056 On ch=1 n=b5 v=51
109116 On ch=1 n=c#4 v=0
109120 On ch=1 n=b4 v=46
109216 On ch=1 n=d#6 v=74
109216 On ch=1 n=c#5 v=46
109222 On ch=1 n=b4 v=0
109228 On ch=1 n=f6 v=0
109296 On ch=1 n=f5 v=46
109330 On ch=1 n=c#5 v=0
109392 On ch=1 n=c#5 v=46
109424 On ch=1 n=f5 v=0
109428 On ch=1 n=d#6 v=0
109464 On ch=1 n=c#6 v=73
109464 On ch=1 n=b4 v=46
109476 On ch=1 n=c#5 v=0
109510 On ch=1 n=b5 v=0
109514 Par ch=1 c=64 v=0
109536 On ch=1 n=c#6 v=0
109556 On ch=1 n=b4 v=0
109572 On ch=1 n=b5 v=73
109580 On ch=1 n=c#6 v=75
109580 On ch=1 n=f#4 v=58
109644 Par ch=1 c=64 v=127
109656 On ch=1 n=b4 v=46
109708 On ch=1 n=f#4 v=0
109728 On ch=1 n=c#5 v=46
109746 On ch=1 n=b4 v=0
109796 On ch=1 n=f#5 v=46
109848 On ch=1 n=c#5 v=0
109868 On ch=1 n=c#5 v=46
109908 On ch=1 n=f#5 v=0
109972 On ch=1 n=c#5 v=0
109984 On ch=1 n=b4 v=46
110022 Par ch=1 c=64 v=0
110048 On ch=1 n=f#6 v=78
110048 On ch=1 n=a#5 v=63
110048 On ch=1 n=c#4 v=58
110050 On ch=1 n=b4 v=0
110084 On ch=1 n=c#6 v=0
110084 Par ch=1 c=64 v=127
110112 On ch=1 n=a#4 v=46
110136 On ch=1 n=c#4 v=0
110138 On ch=1 n=b5 v=0
110200 On ch=1 n=c#5 v=46
110224 On ch=1 n=a#4 v=0
110264 On ch=1 n=f#5 v=46
110320 On ch=1 n=c#5 v=0
110334 On ch=1 n=f#5 v=0
110360 On ch=1 n=c#5 v=46
110428 On ch=1 n=c#5 v=0
110440 On ch=1 n=a#4 v=46
110516 Par ch=1 c=64 v=0
110536 On ch=1 n=b5 v=69
110550 On ch=1 n=a#4 v=0
110552 On ch=1 n=g#4 v=55
110602 On ch=1 n=a#5 v=0
110612 On ch=1 n=f#6 v=0
110644 On ch=1 n=g#4 v=0
110650 Par ch=1 c=64 v=127
110668 On ch=1 n=b4 v=46
110742 On ch=1 n=c#5 v=46
110768 On ch=1 n=b4 v=0
110804 On ch=1 n=f5 v=46
110814 On ch=1 n=c#5 v=0
110894 On ch=1 n=f5 v=0
110894 On ch=1 n=f6 v=83
110912 On ch=1 n=c#5 v=46
110976 On ch=1 n=b4 v=46
110984 On ch=1 n=f6 v=0
111020 Par ch=1 c=64 v=0
111036 On ch=1 n=b4 v=0
111040 On ch=1 n=c#5 v=0
111052 On ch=1 n=c#4 v=52
111070 On ch=1 n=f6 v=82
111110 Par ch=1 c=64 v=127
111128 On ch=1 n=b4 v=46
111148 On ch=1 n=c#4 v=0
111224 On ch=1 n=d#6 v=76
111224 On ch=1 n=c#5 v=46
111240 On ch=1 n=b4 v=0
111240 On ch=1 n=f6 v=0
111272 On ch=1 n=b5 v=0
111302 On ch=1 n=c#5 v=0
111336 On ch=1 n=f5 v=46
111406 On ch=1 n=c#5 v=46
111412 On ch=1 n=c#6 v=92
111436 On ch=1 n=d#6 v=0
111446 On ch=1 n=f5 v=0
111480 On ch=1 n=b4 v=46
111520 Par ch=1 c=64 v=0
111528 On ch=1 n=c#5 v=0
111564 On ch=1 n=c#6 v=0
111566 On ch=1 n=b4 v=0
111572 On ch=1 n=c#6 v=58
111576 On ch=1 n=a#5 v=60
111578 On ch=1 n=f#4 v=60
111588 On ch=1 n=a#6 v=79
111648 Par ch=1 c=64 v=127
111674 On ch=1 n=f#4 v=0
111674 On ch=1 n=a#4 v=46
111746 On ch=1 n=c#5 v=46
111764 On ch=1 n=a#4 v=0
111804 On ch=1 n=c#5 v=0
111820 On ch=1 n=f#5 v=46
111874 On ch=1 n=c#6 v=0
111878 On ch=1 n=a#5 v=0
111890 On ch=1 n=a#6 v=0
111924 On ch=1 n=c#5 v=46
111932 On ch=1 n=f#5 v=0
112000 On ch=1 n=a#4 v=46
112026 On ch=1 n=c#5 v=0
112056 Par ch=1 c=64 v=0
112072 On ch=1 n=g#5 v=60
112082 On ch=1 n=a#6 v=95
112092 On ch=1 n=a#4 v=0
112092 On ch=1 n=c#6 v=54
112112 On ch=1 n=e4 v=62
112186 Par ch=1 c=64 v=127
112194 On ch=1 n=a#4 v=46
112208 On ch=1 n=e4 v=0
112264 On ch=1 n=c#5 v=46
112316 On ch=1 n=a#4 v=0
112330 On ch=1 n=g#5 v=0
112340 On ch=1 n=c#5 v=0
112344 On ch=1 n=g#5 v=58
112358 On ch=1 n=c#6 v=0
112358 On ch=1 n=a#6 v=0
112434 On ch=1 n=g#5 v=0
112456 On ch=1 n=a#6 v=110
112456 On ch=1 n=c#5 v=46
112536 On ch=1 n=a#4 v=46
112556 On ch=1 n=a#6 v=0
112576 On ch=1 n=c#5 v=0
112580 Par ch=1 c=64 v=0
112584 On ch=1 n=g5 v=55
112584 On ch=1 n=d#4 v=40
112612 On ch=1 n=a#4 v=0
112678 On ch=1 n=d#4 v=0
112692 Par ch=1 c=64 v=127
112696 On ch=1 n=c#6 v=51
112696 On ch=1 n=a#4 v=46
112736 On ch=1 n=g5 v=0
112776 On ch=1 n=a#6 v=116
112792 On ch=1 n=c#5 v=46
112798 On ch=1 n=a#4 v=0
112848 On ch=1 n=g5 v=46
112856 On ch=1 n=c#5 v=0
112928 On ch=1 n=d#6 v=82
112936 On ch=1 n=c#5 v=46
112948 On ch=1 n=g5 v=0
113024 On ch=1 n=a#4 v=46
113046 On ch=1 n=c#5 v=0
113052 Par ch=1 c=64 v=0
113088 On ch=1 n=a#4 v=0
113112 On ch=1 n=g4 v=62
113184 On ch=1 n=c#5 v=46
113186 On ch=1 n=f6 v=62
113190 Par ch=1 c=64 v=127
113214 On ch=1 n=g4 v=0
113232 On ch=1 n=g6 v=69
113250 On ch=1 n=f6 v=0
113288 On ch=1 n=c#5 v=0
113296 On ch=1 n=d#5 v=46
113300 On ch=1 n=f6 v=64
113314 On ch=1 n=g6 v=0
113330 On ch=1 n=a#6 v=0
113336 On ch=1 n=a#5 v=46
113354 On ch=1 n=f6 v=0
113366 On ch=1 n=c#6 v=0
113388 On ch=1 n=d#5 v=0
113408 On ch=1 n=d#6 v=0
113416 On ch=1 n=d#5 v=46
113436 On ch=1 n=a#5 v=0
113480 On ch=1 n=c#5 v=46
113496 On ch=1 n=d#6 v=73
113500 On ch=1 n=d#5 v=0
113546 On ch=1 n=d#6 v=0
113554 Par ch=1 c=64 v=0
113556 On ch=1 n=c#5 v=0
113590 On ch=1 n=d#6 v=87
113592 On ch=1 n=c#6 v=69
113600 On ch=1 n=g#4 v=61
113656 On ch=1 n=c#5 v=46
113664 Par ch=1 c=64 v=127
113716 On ch=1 n=g#4 v=0
113736 On ch=1 n=d#5 v=46
113742 On ch=1 n=c#5 v=0
113812 On ch=1 n=d#5 v=0
113820 On ch=1 n=g#5 v=46
113896 On ch=1 n=d#5 v=46
113922 On ch=1 n=g#5 v=0
114000 On ch=1 n=c#5 v=46
114014 On ch=1 n=d#5 v=0
114080 Par ch=1 c=64 v=0
114084 On ch=1 n=c#5 v=0
114112 On ch=1 n=c6 v=64
114116 On ch=1 n=g#6 v=68
114120 On ch=1 n=d#4 v=61
114152 On ch=1 n=c#6 v=0
114196 Par ch=1 c=64 v=127
114220 On ch=1 n=c5 v=46
114236 On ch=1 n=d#4 v=0
114280 On ch=1 n=d#5 v=46
114310 On ch=1 n=c6 v=0
114324 On ch=1 n=c5 v=0
114352 On ch=1 n=g#5 v=46
114368 On ch=1 n=d#5 v=0
114440 On ch=1 n=d#5 v=46
114482 On ch=1 n=g#5 v=0
114512 On ch=1 n=c5 v=46
114528 On ch=1 n=d#5 v=0
114590 Par ch=1 c=64 v=0
114624 On ch=1 n=c5 v=0
114624 On ch=1 n=a#4 v=56
114636 On ch=1 n=c#6 v=69
114652 On ch=1 n=g#6 v=0
114672 On ch=1 n=d#6 v=0
114714 Par ch=1 c=64 v=127
114748 On ch=1 n=c#5 v=46
114776 On ch=1 n=a#4 v=0
114814 On ch=1 n=d#5 v=46
114826 On ch=1 n=g6 v=78
114846 On ch=1 n=c#5 v=0
114900 On ch=1 n=d#5 v=0
114900 On ch=1 n=a#5 v=46
114928 On ch=1 n=g6 v=0
114976 On ch=1 n=d#5 v=46
114986 On ch=1 n=f6 v=86
115012 On ch=1 n=a#5 v=0
115078 On ch=1 n=c#5 v=46
115088 On ch=1 n=d#5 v=0
115100 Par ch=1 c=64 v=0
115144 On ch=1 n=d#4 v=57
115146 On ch=1 n=g6 v=74
115154 On ch=1 n=c#5 v=0
115166 On ch=1 n=f6 v=0
115206 Par ch=1 c=64 v=127
115216 On ch=1 n=c#5 v=46
115260 On ch=1 n=d#4 v=0
115308 On ch=1 n=f6 v=79
115320 On ch=1 n=d#5 v=46
115326 On ch=1 n=g6 v=0
115346 On ch=1 n=c#5 v=0
115398 On ch=1 n=d#5 v=0
115416 On ch=1 n=g5 v=46
115492 On ch=1 n=d#5 v=46
115504 On ch=1 n=c#6 v=0
115508 On ch=1 n=g5 v=0
115552 On ch=1 n=c#5 v=46
115556 On ch=1 n=d#6 v=90
115568 On ch=1 n=f6 v=0
115600 On ch=1 n=d#5 v=0
115610 Par ch=1 c=64 v=0
115648 On ch=1 n=c#5 v=0
115656 On ch=1 n=c7 v=96
115656 On ch=1 n=c6 v=35
115656 On ch=1 n=g#4 v=56
115694 On ch=1 n=d#6 v=0
115724 Par ch=1 c=64 v=127
115748 On ch=1 n=c5 v=46
115836 On ch=1 n=d#5 v=46
115856 On ch=1 n=c5 v=0
115894 On ch=1 n=c7 v=0
115910 On ch=1 n=d#5 v=0
115912 On ch=1 n=g#5 v=46
115994 On ch=1 n=d#5 v=46
116010 On ch=1 n=g#5 v=0
116070 On ch=1 n=c5 v=46
116074 On ch=1 n=d#5 v=0
116128 Par ch=1 c=64 v=0
116134 On ch=1 n=g#4 v=0
116166 On ch=1 n=c5 v=0
116184 On ch=1 n=g4 v=56
116188 On ch=1 n=c7 v=106
116238 Par ch=1 c=64 v=127
116288 On ch=1 n=g#4 v=46
116376 On ch=1 n=c5 v=46
116388 On ch=1 n=g#4 v=0
116392 On ch=1 n=c7 v=0
116464 On ch=1 n=c5 v=0
116464 On ch=1 n=d#5 v=46
116552 On ch=1 n=c5 v=46
116556 On ch=1 n=c7 v=109
116562 On ch=1 n=d#5 v=0
116624 On ch=1 n=g#4 v=46
116640 On ch=1 n=c5 v=0
116652 On ch=1 n=c7 v=0
116662 On ch=1 n=g4 v=0
116680 Par ch=1 c=64 v=0
116712 On ch=1 n=g#4 v=0
116728 On ch=1 n=f#4 v=52
116750 On ch=1 n=c7 v=102
116820 On ch=1 n=g#4 v=46
116822 Par ch=1 c=64 v=127
116832 On ch=1 n=f#4 v=0
116898 On ch=1 n=c5 v=46
116916 On ch=1 n=g#4 v=0
116986 On ch=1 n=d#5 v=46
116994 On ch=1 n=c5 v=0
117086 On ch=1 n=c5 v=46
117106 On ch=1 n=d#5 v=0
117158 On ch=1 n=g#4 v=46
117172 On ch=1 n=c5 v=0
117184 Par ch=1 c=64 v=0
117244 On ch=1 n=f#4 v=52
117258 On ch=1 n=g#4 v=0
117348 Par ch=1 c=64 v=127
117352 On ch=1 n=g#4 v=46
117372 On ch=1 n=f#4 v=0
117416 On ch=1 n=c5 v=46
117418 On ch=1 n=a#6 v=94
117444 On ch=1 n=g#4 v=0
117458 On ch=1 n=c7 v=0
117472 On ch=1 n=c6 v=0
117474 On ch=1 n=d#5 v=46
117508 On ch=1 n=c5 v=0
117556 On ch=1 n=c5 v=46
117586 On ch=1 n=d#5 v=0
117600 On ch=1 n=a#6 v=0
117622 On ch=1 n=g#4 v=46
117642 On ch=1 n=g#6 v=79
117650 On ch=1 n=c5 v=0
117692 Par ch=1 c=64 v=0
117712 On ch=1 n=g#6 v=0
117720 On ch=1 n=f4 v=29
117724 On ch=1 n=g#4 v=0
117728 On ch=1 n=g#6 v=82
117824 On ch=1 n=g#4 v=46
117842 Par ch=1 c=64 v=127
117884 On ch=1 n=f4 v=0
117892 On ch=1 n=c#5 v=46
117940 On ch=1 n=g#4 v=0
117960 On ch=1 n=f5 v=46
117974 On ch=1 n=c#5 v=0
118052 On ch=1 n=c#5 v=46
118076 On ch=1 n=f5 v=0
118152 On ch=1 n=g#4 v=46
118192 On ch=1 n=c#5 v=0
118206 Par ch=1 c=64 v=0
118240 On ch=1 n=f4 v=53
118254 On ch=1 n=g#4 v=0
118256 On ch=1 n=c#7 v=87
118286 On ch=1 n=g#6 v=0
118312 On ch=1 n=g#4 v=39
118332 Par ch=1 c=64 v=127
118360 On ch=1 n=f4 v=0
118392 On ch=1 n=c#5 v=55
118402 On ch=1 n=g#4 v=0
118472 On ch=1 n=g#5 v=62
118486 On ch=1 n=c#5 v=0
118568 On ch=1 n=c#5 v=47
118592 On ch=1 n=g#5 v=0
118664 On ch=1 n=g#4 v=46
118672 Par ch=1 c=64 v=0
118676 On ch=1 n=c#5 v=0
118734 On ch=1 n=c#7 v=0
118774 On ch=1 n=g#4 v=0
118776 On ch=1 n=c#7 v=103
118786 On ch=1 n=d#4 v=63
118826 Par ch=1 c=64 v=127
118864 On ch=1 n=d#4 v=0
118884 On ch=1 n=g#4 v=46
118972 On ch=1 n=g#4 v=0
118972 On ch=1 n=c5 v=46
119050 On ch=1 n=f#5 v=46
119054 On ch=1 n=c5 v=0
119136 On ch=1 n=c#7 v=0
119138 On ch=1 n=c5 v=46
119152 On ch=1 n=c7 v=85
119162 On ch=1 n=f#5 v=0
119208 On ch=1 n=g#4 v=46
119240 On ch=1 n=c7 v=0
119240 On ch=1 n=c5 v=0
119266 Par ch=1 c=64 v=0
119316 On ch=1 n=c7 v=86
119328 On ch=1 n=g#4 v=0
119332 On ch=1 n=d#4 v=60
119408 Par ch=1 c=64 v=127
119432 On ch=1 n=d#4 v=0
119432 On ch=1 n=g#4 v=46
119512 On ch=1 n=c7 v=0
119512 On ch=1 n=a#6 v=93
119512 On ch=1 n=c5 v=46
119520 On ch=1 n=g#4 v=0
119578 On ch=1 n=f#5 v=46
119596 On ch=1 n=c5 v=0
119684 On ch=1 n=c5 v=46
119694 On ch=1 n=f#5 v=0
119776 On ch=1 n=g#4 v=46
119780 On ch=1 n=g#6 v=74
119782 On ch=1 n=c5 v=0
119804 Par ch=1 c=64 v=0
119822 On ch=1 n=a#6 v=0
119860 On ch=1 n=d4 v=57
119872 On ch=1 n=g#4 v=0
119884 On ch=1 n=f7 v=89
119924 On ch=1 n=g#6 v=0
119928 On ch=1 n=g#4 v=46
119934 Par ch=1 c=64 v=127
119986 On ch=1 n=d4 v=0
120008 On ch=1 n=b4 v=46
120056 On ch=1 n=g#4 v=0
120088 On ch=1 n=f5 v=46
120108 On ch=1 n=b4 v=0
120136 On ch=1 n=f7 v=0
120176 On ch=1 n=b4 v=46
120230 On ch=1 n=f5 v=0
120272 On ch=1 n=g#4 v=46
120300 On ch=1 n=b4 v=0
120376 Par ch=1 c=64 v=0
120392 On ch=1 n=g#4 v=0
120396 On ch=1 n=d4 v=52
120400 On ch=1 n=f7 v=97
120488 On ch=1 n=g#4 v=46
120502 Par ch=1 c=64 v=127
120532 On ch=1 n=d4 v=0
120564 On ch=1 n=f7 v=0
120572 On ch=1 n=a#4 v=46
120628 On ch=1 n=g#4 v=0
120664 On ch=1 n=a#4 v=0
120672 On ch=1 n=f5 v=46
120738 On ch=1 n=a#4 v=46
120740 On ch=1 n=f7 v=96
120792 On ch=1 n=f5 v=0
120810 On ch=1 n=g#4 v=46
120860 On ch=1 n=f7 v=0
120874 On ch=1 n=a#4 v=0
120894 Par ch=1 c=64 v=0
120896 On ch=1 n=f7 v=94
120904 On ch=1 n=d#4 v=60
120938 On ch=1 n=g#4 v=0
121014 On ch=1 n=d#4 v=0
121016 On ch=1 n=f#4 v=46
121036 Par ch=1 c=64 v=127
121118 On ch=1 n=f#4 v=0
121120 On ch=1 n=a#4 v=46
121228 On ch=1 n=a#4 v=0
121232 On ch=1 n=d#5 v=46
121334 On ch=1 n=a#4 v=46
121358 On ch=1 n=d#5 v=0
121408 On ch=1 n=f#4 v=46
121430 On ch=1 n=a#4 v=0
121440 On ch=1 n=f7 v=0
121492 On ch=1 n=f#3 v=60
121500 On ch=1 n=d#7 v=89
121506 On ch=1 n=f#4 v=0
121592 On ch=1 n=f#4 v=46
121602 On ch=1 n=f#3 v=0
121676 On ch=1 n=c#7 v=88
121680 On ch=1 n=a#4 v=46
121694 On ch=1 n=f#4 v=0
121710 On ch=1 n=d#7 v=0
121744 On ch=1 n=d#5 v=46
121768 On ch=1 n=a#4 v=0
121848 On ch=1 n=a#4 v=46
121852 On ch=1 n=a#6 v=93
121854 On ch=1 n=d#5 v=0
121876 On ch=1 n=c#7 v=0
121920 On ch=1 n=f#4 v=46
121950 On ch=1 n=a#4 v=0
121958 Par ch=1 c=64 v=0
121990 On ch=1 n=f#4 v=0
122028 On ch=1 n=c7 v=98
122036 On ch=1 n=g#3 v=57
122062 On ch=1 n=a#6 v=0
122100 Par ch=1 c=64 v=127
122124 On ch=1 n=g#3 v=0
122124 On ch=1 n=f4 v=46
122222 On ch=1 n=g#4 v=46
122238 On ch=1 n=f4 v=0
122298 On ch=1 n=g#4 v=0
122306 On ch=1 n=c#5 v=46
122378 On ch=1 n=g#4 v=46
122396 On ch=1 n=c#5 v=0
122462 On ch=1 n=g#4 v=0
122466 On ch=1 n=f4 v=46
122506 Par ch=1 c=64 v=0
122564 On ch=1 n=a#6 v=74
122568 On ch=1 n=f4 v=0
122572 On ch=1 n=g#3 v=63
122582 On ch=1 n=c7 v=0
122632 Par ch=1 c=64 v=127
122656 On ch=1 n=g#3 v=0
122680 On ch=1 n=f4 v=46
122756 On ch=1 n=g#6 v=74
122760 On ch=1 n=g#4 v=46
122772 On ch=1 n=f4 v=0
122806 On ch=1 n=a#6 v=0
122810 On ch=1 n=c#5 v=46
122886 On ch=1 n=g#4 v=0
122928 On ch=1 n=g#4 v=46
122930 On ch=1 n=f6 v=74
122936 On ch=1 n=c#5 v=0
122950 On ch=1 n=g#6 v=0
123000 On ch=1 n=f4 v=46
123020 Par ch=1 c=64 v=0
123030 On ch=1 n=g#4 v=0
123072 On ch=1 n=g#3 v=46
123084 On ch=1 n=a#6 v=74
123088 On ch=1 n=f4 v=0
123152 On ch=1 n=f#4 v=46
123156 Par ch=1 c=64 v=127
123212 On ch=1 n=g#3 v=0
123238 On ch=1 n=g#6 v=74
123240 On ch=1 n=g#4 v=46
123284 On ch=1 n=a#6 v=0
123290 On ch=1 n=f#4 v=0
123294 On ch=1 n=f6 v=0
123312 On ch=1 n=g#4 v=0
123320 On ch=1 n=c5 v=46
123416 On ch=1 n=c5 v=0
123424 On ch=1 n=f#6 v=74
123432 On ch=1 n=g#4 v=46
123438 On ch=1 n=g#6 v=0
123520 On ch=1 n=g#4 v=0
123536 On ch=1 n=f#4 v=46
123578 Par ch=1 c=64 v=0
123584 On ch=1 n=f#6 v=0
123596 On ch=1 n=f#4 v=0
123608 On ch=1 n=f#6 v=74
123608 On ch=1 n=g#3 v=55
123656 On ch=1 n=g#6 v=74
123678 On ch=1 n=f#6 v=0
123688 On ch=1 n=f#4 v=46
123698 On ch=1 n=g#3 v=0
123706 Par ch=1 c=64 v=127
123716 On ch=1 n=f#6 v=74
123728 On ch=1 n=g#6 v=0
123774 On ch=1 n=f#4 v=0
123792 On ch=1 n=f6 v=74
123792 On ch=1 n=g#4 v=46
123800 On ch=1 n=f#6 v=0
123870 On ch=1 n=g#4 v=0
123880 On ch=1 n=c5 v=46
123988 On ch=1 n=g#4 v=46
124002 On ch=1 n=c5 v=0
124040 On ch=1 n=f6 v=0
124068 On ch=1 n=f#4 v=46
124084 On ch=1 n=g#4 v=0
124090 On ch=1 n=e6 v=74
124106 Par ch=1 c=64 v=0
124140 On ch=1 n=e6 v=0
124140 On ch=1 n=f#4 v=0
124180 On ch=1 n=c#4 v=62
124190 On ch=1 n=e6 v=74
124264 Par ch=1 c=64 v=127
124296 On ch=1 n=g#4 v=46
124354 On ch=1 n=g#4 v=0
124366 On ch=1 n=c#4 v=0
124380 On ch=1 n=c#5 v=46
124440 On ch=1 n=f5 v=46
124466 On ch=1 n=c#5 v=0
124528 On ch=1 n=c#5 v=46
124564 On ch=1 n=f5 v=0
124604 On ch=1 n=a#4 v=46
124608 Par ch=1 c=64 v=0
124626 On ch=1 n=c#5 v=0
124712 On ch=1 n=f6 v=74
124716 On ch=1 n=a#4 v=0
124722 On ch=1 n=e6 v=0
124724 On ch=1 n=g#4 v=47
124772 Par ch=1 c=64 v=127
124834 On ch=1 n=c#5 v=46
124862 On ch=1 n=g#4 v=0
124934 On ch=1 n=f5 v=46
124948 On ch=1 n=c#5 v=0
125016 On ch=1 n=g#5 v=46
125028 On ch=1 n=f5 v=0
125088 On ch=1 n=g#5 v=0
125114 On ch=1 n=g#6 v=92
125120 On ch=1 n=c#5 v=46
125176 On ch=1 n=g#4 v=48
125178 On ch=1 n=f6 v=0
125212 Par ch=1 c=64 v=0
125222 On ch=1 n=c#5 v=0
125280 On ch=1 n=f#4 v=51
125286 On ch=1 n=g#4 v=0
125288 On ch=1 n=g#5 v=79
125376 On ch=1 n=g#6 v=0
125388 Par ch=1 c=64 v=127
125396 On ch=1 n=g#4 v=46
125424 On ch=1 n=f#4 v=0
125478 On ch=1 n=c5 v=46
125492 On ch=1 n=g#4 v=0
125564 On ch=1 n=c5 v=0
125568 On ch=1 n=d#5 v=46
125680 On ch=1 n=c6 v=82
125682 On ch=1 n=d#5 v=0
125688 On ch=1 n=c5 v=46
125692 On ch=1 n=g#5 v=0
125744 On ch=1 n=g#4 v=46
125792 Par ch=1 c=64 v=0
125798 On ch=1 n=c5 v=0
125846 On ch=1 n=f#4 v=23
125854 On ch=1 n=g#4 v=0
125854 On ch=1 n=c7 v=87
125880 Par ch=1 c=64 v=127
125928 On ch=1 n=c6 v=0
125946 On ch=1 n=g#4 v=46
125950 On ch=1 n=c7 v=0
125966 On ch=1 n=f#4 v=0
126024 On ch=1 n=a#5 v=95
126024 On ch=1 n=c5 v=46
126032 On ch=1 n=a#6 v=92
126036 On ch=1 n=g#4 v=0
126096 On ch=1 n=d#5 v=46
126100 On ch=1 n=c5 v=0
126176 On ch=1 n=c5 v=46
126208 On ch=1 n=d#5 v=0
126244 On ch=1 n=a#5 v=0
126248 On ch=1 n=g#6 v=77
126248 On ch=1 n=g#5 v=81
126252 On ch=1 n=a#6 v=0
126256 On ch=1 n=g#4 v=46
126302 On ch=1 n=g#5 v=0
126302 On ch=1 n=g#6 v=0
126320 On ch=1 n=c5 v=0
126320 On ch=1 n=g#6 v=90
126328 On ch=1 n=g#5 v=85
126328 On ch=1 n=f4 v=52
126336 Par ch=1 c=64 v=0
126364 On ch=1 n=g#4 v=0
126416 On ch=1 n=g#4 v=46
126466 Par ch=1 c=64 v=127
126488 On ch=1 n=f4 v=0
126496 On ch=1 n=c#5 v=46
126538 On ch=1 n=g#4 v=0
126584 On ch=1 n=f5 v=46
126586 On ch=1 n=c#5 v=0
126670 On ch=1 n=g#5 v=0
126672 On ch=1 n=c#5 v=46
126690 On ch=1 n=f5 v=0
126760 On ch=1 n=g#4 v=46
126808 On ch=1 n=c#5 v=0
126876 On ch=1 n=g#4 v=0
126880 On ch=1 n=c#7 v=86
126888 On ch=1 n=c#6 v=78
126904 On ch=1 n=f4 v=52
126984 On ch=1 n=g#4 v=46
127026 On ch=1 n=f4 v=0
127080 On ch=1 n=c#5 v=46
127104 On ch=1 n=g#4 v=0
127110 On ch=1 n=g#6 v=0
127132 On ch=1 n=c#7 v=0
127142 On ch=1 n=c#6 v=0
127152 On ch=1 n=g#5 v=46
127174 On ch=1 n=c#5 v=0
127234 On ch=1 n=c#5 v=46
127236 On ch=1 n=g#5 v=0
127328 On ch=1 n=g#4 v=46
127336 On ch=1 n=c#5 v=0
127396 Par ch=1 c=64 v=0
127440 On ch=1 n=d#4 v=63
127446 On ch=1 n=g#4 v=0
127448 On ch=1 n=c#7 v=76
127448 On ch=1 n=g#6 v=69
127448 On ch=1 n=f#6 v=74
127448 On ch=1 n=c#6 v=76
127520 On ch=1 n=g#4 v=46
127530 On ch=1 n=d#4 v=0
127534 Par ch=1 c=64 v=127
127576 On ch=1 n=c5 v=46
127608 On ch=1 n=g#4 v=0
127648 On ch=1 n=f#5 v=46
127680 On ch=1 n=c5 v=0
127680 On ch=1 n=c6 v=83
127696 On ch=1 n=c7 v=83
127700 On ch=1 n=c#6 v=0
127700 On ch=1 n=c#7 v=0
127732 On ch=1 n=c6 v=0
127748 On ch=1 n=c7 v=0
127762 On ch=1 n=f#5 v=0
127768 On ch=1 n=c7 v=76
127776 On ch=1 n=c6 v=76
127776 On ch=1 n=c5 v=46
127858 On ch=1 n=c5 v=0
127868 On ch=1 n=c6 v=0
127870 On ch=1 n=c7 v=0
127880 On ch=1 n=g#4 v=46
127910 On ch=1 n=f#6 v=0
127910 On ch=1 n=g#6 v=0
127952 On ch=1 n=g#4 v=0
127992 On ch=1 n=c7 v=69
127992 On ch=1 n=g#6 v=72
127992 On ch=1 n=c6 v=67
128000 On ch=1 n=f#6 v=71
128000 On ch=1 n=d#4 v=65
128056 Par ch=1 c=64 v=0
128100 On ch=1 n=d#4 v=0
128108 Par ch=1 c=64 v=127
128112 On ch=1 n=g#4 v=46
128204 On ch=1 n=g#4 v=0
128208 On ch=1 n=c5 v=46
128288 On ch=1 n=a#6 v=83
128288 On ch=1 n=a#5 v=83
128296 On ch=1 n=f#5 v=46
128302 On ch=1 n=c6 v=0
128302 On ch=1 n=g#6 v=0
128302 On ch=1 n=c7 v=0
128310 On ch=1 n=f#6 v=0
128322 On ch=1 n=c5 v=0
128330 On ch=1 n=a#6 v=0
128334 On ch=1 n=a#5 v=0
128380 On ch=1 n=f#5 v=0
128384 On ch=1 n=g#6 v=80
128398 On ch=1 n=g#5 v=81
128400 On ch=1 n=f#6 v=77
128400 On ch=1 n=c5 v=46
128454 On ch=1 n=g#6 v=0
128456 On ch=1 n=g#5 v=0
128460 On ch=1 n=f#6 v=0
128500 On ch=1 n=c5 v=0
128536 On ch=1 n=g#4 v=46
128624 On ch=1 n=f7 v=74
128630 On ch=1 n=g#4 v=0
128632 On ch=1 n=g#6 v=70
128632 On ch=1 n=f6 v=68
128640 On ch=1 n=d4 v=58
128640 Par ch=1 c=64 v=0
128728 On ch=1 n=g#4 v=46
128760 Par ch=1 c=64 v=127
128780 On ch=1 n=d4 v=0
128816 On ch=1 n=b4 v=46
128854 On ch=1 n=g#4 v=0
128896 On ch=1 n=f5 v=46
128920 On ch=1 n=b4 v=0
128962 On ch=1 n=g#6 v=0
128984 On ch=1 n=b4 v=46
128994 On ch=1 n=f7 v=0
129020 On ch=1 n=f6 v=0
129022 On ch=1 n=f5 v=0
129072 On ch=1 n=g#4 v=46
129126 On ch=1 n=b4 v=0
129208 On ch=1 n=g#6 v=95
129208 On ch=1 n=f6 v=87
129216 On ch=1 n=f7 v=86
129218 On ch=1 n=d4 v=48
129224 Par ch=1 c=64 v=0
129244 On ch=1 n=g#4 v=0
129296 On ch=1 n=g#4 v=46
129324 Par ch=1 c=64 v=127
129368 On ch=1 n=d4 v=0
129384 On ch=1 n=g#4 v=0
129384 On ch=1 n=a#4 v=46
129448 On ch=1 n=f5 v=46
129470 On ch=1 n=a#4 v=0
129470 On ch=1 n=f7 v=0
129474 On ch=1 n=f6 v=0
129474 On ch=1 n=g#6 v=0
129530 On ch=1 n=a#4 v=46
129536 On ch=1 n=g#6 v=91
129536 On ch=1 n=f6 v=73
129546 On ch=1 n=f7 v=90
129586 On ch=1 n=f5 v=0
129600 On ch=1 n=g#4 v=46
129610 On ch=1 n=f6 v=0
129618 On ch=1 n=g#6 v=0
129644 On ch=1 n=a#4 v=0
129662 On ch=1 n=f7 v=0
129694 Par ch=1 c=64 v=0
129706 On ch=1 n=g#4 v=0
129712 On ch=1 n=g#6 v=90
129712 On ch=1 n=d#4 v=51
129720 On ch=1 n=f7 v=90
129720 On ch=1 n=f6 v=84
129816 On ch=1 n=f#4 v=46
129838 On ch=1 n=d#4 v=0
129844 Par ch=1 c=64 v=127
129888 On ch=1 n=f#4 v=0
129920 On ch=1 n=a#4 v=46
129986 On ch=1 n=d#5 v=46
130040 On ch=1 n=a#4 v=0
130080 On ch=1 n=a#4 v=46
130098 On ch=1 n=d#5 v=0
130174 On ch=1 n=a#4 v=0
130184 On ch=1 n=f#4 v=46
130246 On ch=1 n=f#4 v=0
130280 On ch=1 n=f#3 v=60
130282 On ch=1 n=g#6 v=0
130288 On ch=1 n=f#6 v=76
130288 On ch=1 n=d#6 v=76
130290 On ch=1 n=f6 v=0
130290 On ch=1 n=f7 v=0
130292 On ch=1 n=d#7 v=76
130376 On ch=1 n=f#4 v=46
130398 On ch=1 n=f#3 v=0
130436 On ch=1 n=f#4 v=0
130458 On ch=1 n=f#6 v=0
130472 On ch=1 n=a#4 v=46
130478 On ch=1 n=d#6 v=0
130478 On ch=1 n=c#7 v=80
130480 On ch=1 n=f#6 v=61
130480 On ch=1 n=c#6 v=77
130482 On ch=1 n=d#7 v=0
130544 On ch=1 n=d#5 v=46
130562 On ch=1 n=a#4 v=0
130616 On ch=1 n=a#4 v=46
130620 On ch=1 n=d#5 v=0
130668 On ch=1 n=c#7 v=0
130670 On ch=1 n=c#6 v=0
130670 On ch=1 n=f#6 v=0
130676 On ch=1 n=a#4 v=0
130696 On ch=1 n=f#4 v=46
130704 On ch=1 n=a#6 v=73
130704 On ch=1 n=f#6 v=62
130720 On ch=1 n=a#5 v=76
130780 On ch=1 n=f#4 v=0
130782 On ch=1 n=f#6 v=0
130788 On ch=1 n=a#6 v=0
130792 Par ch=1 c=64 v=0
130798 On ch=1 n=a#5 v=0
130818 On ch=1 n=g#3 v=75
130826 On ch=1 n=c7 v=73
130826 On ch=1 n=c6 v=71
130832 On ch=1 n=g#6 v=49
130918 Par ch=1 c=64 v=127
130932 On ch=1 n=f4 v=58
130944 On ch=1 n=g#3 v=0
131030 On ch=1 n=g#4 v=58
131046 On ch=1 n=f4 v=0
131108 On ch=1 n=g#4 v=0
131112 On ch=1 n=c#5 v=58
131196 On ch=1 n=g#4 v=58
131208 On ch=1 n=c7 v=0
131214 On ch=1 n=c#5 v=0
131214 On ch=1 n=g#6 v=0
131214 On ch=1 n=c6 v=0
131280 On ch=1 n=f4 v=58
131300 Par ch=1 c=64 v=0
131310 On ch=1 n=g#4 v=0
131356 On ch=1 n=a#6 v=56
131360 On ch=1 n=f#6 v=59
131366 On ch=1 n=a#5 v=65
131366 On ch=1 n=g#3 v=60
131380 On ch=1 n=f4 v=0
131412 Par ch=1 c=64 v=127
131420 On ch=1 n=f#6 v=0
131450 On ch=1 n=a#5 v=0
131454 On ch=1 n=a#6 v=0
131460 On ch=1 n=g#3 v=0
131480 On ch=1 n=f4 v=46
131548 On ch=1 n=g#5 v=69
131552 On ch=1 n=g#6 v=59
131552 On ch=1 n=f6 v=55
131552 On ch=1 n=g#4 v=46
131574 On ch=1 n=f4 v=0
131610 On ch=1 n=g#5 v=0
131612 On ch=1 n=f6 v=0
131614 On ch=1 n=g#4 v=0
131624 On ch=1 n=g#6 v=0
131632 On ch=1 n=c#5 v=46
131712 On ch=1 n=f6 v=57
131714 On ch=1 n=c#5 v=0
131714 On ch=1 n=a#5 v=61
131716 On ch=1 n=a#6 v=69
131716 On ch=1 n=g#4 v=46
131772 On ch=1 n=f6 v=0
131780 On ch=1 n=a#5 v=0
131800 On ch=1 n=f4 v=46
131804 On ch=1 n=a#6 v=0
131810 On ch=1 n=g#4 v=0
131868 Par ch=1 c=64 v=0
131872 On ch=1 n=f4 v=0
131888 On ch=1 n=g#3 v=58
131894 On ch=1 n=b6 v=67
131894 On ch=1 n=f6 v=65
131900 On ch=1 n=b5 v=61
131988 On ch=1 n=g#3 v=0
132004 Par ch=1 c=64 v=127
132014 On ch=1 n=f4 v=46
132090 On ch=1 n=f4 v=0
132104 On ch=1 n=g#4 v=46
132142 On ch=1 n=b5 v=0
132154 On ch=1 n=f6 v=0
132154 On ch=1 n=b6 v=0
132182 On ch=1 n=g#4 v=0
132184 On ch=1 n=d5 v=46
132280 On ch=1 n=f6 v=72
132280 On ch=1 n=g#4 v=46
132282 On ch=1 n=a#6 v=83
132288 On ch=1 n=a#5 v=78
132292 On ch=1 n=d5 v=0
132344 On ch=1 n=f6 v=0
132352 On ch=1 n=f4 v=46
132370 On ch=1 n=a#5 v=0
132390 On ch=1 n=a#6 v=0
132394 Par ch=1 c=64 v=0
132400 On ch=1 n=g#4 v=0
132454 On ch=1 n=f4 v=0
132454 On ch=1 n=g#3 v=60
132462 On ch=1 n=b6 v=78
132468 On ch=1 n=b5 v=75
132470 On ch=1 n=f6 v=69
132524 Par ch=1 c=64 v=127
132550 On ch=1 n=f4 v=46
132562 On ch=1 n=g#3 v=0
132632 On ch=1 n=g#4 v=46
132676 On ch=1 n=f4 v=0
132722 On ch=1 n=g#4 v=0
132732 On ch=1 n=d5 v=46
132796 On ch=1 n=g#4 v=46
132836 On ch=1 n=d5 v=0
132840 Par ch=1 c=64 v=0
132898 On ch=1 n=f4 v=46
132920 On ch=1 n=g#4 v=0
132976 Par ch=1 c=64 v=127
132996 On ch=1 n=f4 v=0
132996 On ch=1 n=g#3 v=66
133072 On ch=1 n=f4 v=46
133086 On ch=1 n=g#3 v=0
133100 On ch=1 n=f6 v=0
133130 On ch=1 n=b6 v=0
133140 On ch=1 n=b5 v=0
133176 On ch=1 n=g#4 v=46
133214 On ch=1 n=f4 v=0
133264 On ch=1 n=d5 v=46
133270 On ch=1 n=g#4 v=0
133320 On ch=1 n=a#6 v=76
133320 On ch=1 n=f6 v=74
133328 On ch=1 n=a#5 v=83
133338 On ch=1 n=g#4 v=46
133372 On ch=1 n=d5 v=0
133416 On ch=1 n=f6 v=0
133416 On ch=1 n=a#6 v=0
133424 On ch=1 n=a#5 v=0
133426 On ch=1 n=f4 v=46
133432 On ch=1 n=g#4 v=0
133440 Par ch=1 c=64 v=0
133504 On ch=1 n=f6 v=72
133506 On ch=1 n=g#3 v=60
133516 On ch=1 n=f4 v=0
133516 On ch=1 n=b6 v=91
133516 On ch=1 n=b5 v=83
133552 Par ch=1 c=64 v=127
133588 On ch=1 n=f4 v=58
133596 On ch=1 n=b6 v=0
133600 On ch=1 n=f6 v=0
133606 On ch=1 n=g#3 v=0
133612 On ch=1 n=b5 v=0
133680 On ch=1 n=a#6 v=95
133680 On ch=1 n=f6 v=74
133688 On ch=1 n=g#4 v=58
133696 On ch=1 n=a#5 v=96
133710 On ch=1 n=f4 v=0
133740 On ch=1 n=f6 v=0
133748 On ch=1 n=a#6 v=0
133756 On ch=1 n=a#5 v=0
133758 On ch=1 n=d5 v=58
133774 On ch=1 n=g#4 v=0
133862 On ch=1 n=b6 v=96
133862 On ch=1 n=b5 v=93
133864 On ch=1 n=f6 v=76
133864 On ch=1 n=g#4 v=58
133872 On ch=1 n=d5 v=0
133924 On ch=1 n=f6 v=0
133926 On ch=1 n=g#4 v=0
133928 On ch=1 n=f4 v=58
133930 On ch=1 n=b5 v=0
133932 On ch=1 n=b6 v=0
133962 Par ch=1 c=64 v=0
134010 On ch=1 n=f4 v=0
134024 On ch=1 n=g#3 v=69
134046 On ch=1 n=b5 v=97
134048 On ch=1 n=b6 v=97
134048 On ch=1 n=f#6 v=97
134096 Par ch=1 c=64 v=127
134106 On ch=1 n=d#4 v=58
134124 On ch=1 n=g#3 v=0
134188 On ch=1 n=f#4 v=58
134212 On ch=1 n=d#4 v=0
134262 On ch=1 n=d#5 v=58
134304 On ch=1 n=f#4 v=0
134336 On ch=1 n=b5 v=0
134338 On ch=1 n=f#6 v=0
134338 On ch=1 n=b6 v=0
134352 On ch=1 n=a#6 v=97
134362 On ch=1 n=f#6 v=89
134368 On ch=1 n=a#5 v=98
134374 On ch=1 n=f#4 v=58
134390 On ch=1 n=d#5 v=0
134456 On ch=1 n=d#4 v=58
134488 On ch=1 n=f#4 v=0
134524 Par ch=1 c=64 v=0
134532 On ch=1 n=a#6 v=0
134540 On ch=1 n=g#3 v=75
134542 On ch=1 n=f#6 v=0
134548 On ch=1 n=a#5 v=0
134564 On ch=1 n=d#4 v=0
134564 On ch=1 n=a#7 v=99
134568 On ch=1 n=f#7 v=99
134572 On ch=1 n=a#6 v=99
134640 On ch=1 n=g#3 v=0
134640 On ch=1 n=d#4 v=58
134660 Par ch=1 c=64 v=127
134702 On ch=1 n=f#4 v=58
134716 On ch=1 n=d#4 v=0
134784 On ch=1 n=d#5 v=58
134810 On ch=1 n=f#4 v=0
134868 On ch=1 n=f#4 v=58
134912 On ch=1 n=d#5 v=0
134942 On ch=1 n=f#4 v=0
134944 On ch=1 n=d#4 v=58
135014 Par ch=1 c=64 v=0
135030 On ch=1 n=g#3 v=79
135040 On ch=1 n=d#4 v=0
135120 Par ch=1 c=64 v=127
135144 On ch=1 n=d#4 v=58
135152 On ch=1 n=g#3 v=0
135224 On ch=1 n=f#4 v=58
135250 On ch=1 n=d#4 v=0
135286 On ch=1 n=a#7 v=0
135290 On ch=1 n=f#7 v=0
135294 On ch=1 n=a#6 v=0
135304 On ch=1 n=c5 v=58
135308 On ch=1 n=f#4 v=0
135308 On ch=1 n=c7 v=94
135310 On ch=1 n=f#6 v=100
135312 On ch=1 n=c6 v=94
135354 On ch=1 n=c6 v=0
135368 On ch=1 n=f#6 v=0
135374 On ch=1 n=c7 v=0
135408 On ch=1 n=c7 v=94
135408 On ch=1 n=f#6 v=94
135416 On ch=1 n=c6 v=85
135416 On ch=1 n=f#4 v=58
135436 On ch=1 n=c5 v=0
135476 Par ch=1 c=64 v=0
135486 On ch=1 n=c6 v=0
135500 On ch=1 n=f#6 v=0
135512 On ch=1 n=d#4 v=58
135518 On ch=1 n=c7 v=0
135534 On ch=1 n=f#4 v=0
135570 On ch=1 n=g#3 v=79
135584 On ch=1 n=c7 v=99
135584 On ch=1 n=c6 v=99
135586 On ch=1 n=f#6 v=101
135604 On ch=1 n=d#4 v=0
135618 Par ch=1 c=64 v=127
135638 On ch=1 n=c6 v=0
135660 On ch=1 n=f#6 v=0
135664 On ch=1 n=d#4 v=58
135676 On ch=1 n=c7 v=0
135698 On ch=1 n=g#3 v=0
135728 On ch=1 n=f#4 v=58
135774 On ch=1 n=d#4 v=0
135808 On ch=1 n=f7 v=95
135808 On ch=1 n=c5 v=58
135816 On ch=1 n=g#6 v=96
135816 On ch=1 n=f6 v=86
135848 On ch=1 n=g#6 v=0
135848 On ch=1 n=f#4 v=0
135850 On ch=1 n=f7 v=0
135858 On ch=1 n=f6 v=0
135886 On ch=1 n=d#7 v=87
135892 On ch=1 n=f#6 v=95
135892 On ch=1 n=d#6 v=95
135894 On ch=1 n=c5 v=0
135902 On ch=1 n=f#6 v=86
135904 On ch=1 n=f#4 v=58
135916 On ch=1 n=f#6 v=0
135960 On ch=1 n=f#6 v=0
135960 On ch=1 n=d#7 v=0
135976 On ch=1 n=d#4 v=58
135984 On ch=1 n=d#6 v=0
136052 On ch=1 n=f#4 v=0
136064 On ch=1 n=c#3 v=77
136068 On ch=1 n=d#4 v=0
136068 Par ch=1 c=64 v=0
136072 On ch=1 n=c#6 v=106
136080 On ch=1 n=f6 v=105
136088 On ch=1 n=c#7 v=96
136098 Par ch=1 c=64 v=0
136192 Par ch=1 c=64 v=127
136196 Par ch=1 c=64 v=127
136258 Par ch=1 c=64 v=127
136360 Par ch=1 c=64 v=0
136442 On ch=1 n=g#3 v=62
136488 Par ch=1 c=64 v=0
136546 On ch=1 n=f4 v=52
136568 Par ch=1 c=64 v=127
136590 On ch=1 n=g#3 v=0
136602 Par ch=1 c=64 v=127
136648 On ch=1 n=c#5 v=84
136654 On ch=1 n=f5 v=73
136670 On ch=1 n=f4 v=0
136706 On ch=1 n=c#6 v=0
136714 On ch=1 n=f6 v=0
136722 On ch=1 n=c#7 v=0
136726 On ch=1 n=c#5 v=0
136736 On ch=1 n=c#6 v=84
136758 On ch=1 n=f5 v=0
136816 On ch=1 n=g#6 v=77
136822 On ch=1 n=c#6 v=0
136850 On ch=1 n=g#6 v=0
136892 On ch=1 n=c#3 v=0
136894 On ch=1 n=f6 v=90
136966 On ch=1 n=f6 v=0
137002 On ch=1 n=c#7 v=82
137062 On ch=1 n=c#7 v=0
137072 On ch=1 n=a#7 v=63
137106 Par ch=1 c=64 v=0
137124 Par ch=1 c=64 v=0
137150 On ch=1 n=g#7 v=92
137156 On ch=1 n=c7 v=81
137170 On ch=1 n=a#7 v=0
137180 On ch=1 n=g#2 v=81
137216 Par ch=1 c=64 v=127
137258 Par ch=1 c=64 v=127
137360 Par ch=1 c=64 v=0
137440 On ch=1 n=g#3 v=62
137440 Par ch=1 c=64 v=127
137560 On ch=1 n=d#4 v=65
137588 On ch=1 n=g#3 v=0
137656 On ch=1 n=c5 v=85
137670 On ch=1 n=f#5 v=80
137672 On ch=1 n=d#4 v=0
137728 On ch=1 n=c6 v=67
137732 On ch=1 n=c5 v=0
137760 On ch=1 n=f#5 v=0
137786 On ch=1 n=g#7 v=0
137790 On ch=1 n=c7 v=0
137800 On ch=1 n=c6 v=0
137806 On ch=1 n=g#6 v=82
137844 On ch=1 n=g#6 v=0
137892 On ch=1 n=f#6 v=81
137952 On ch=1 n=c7 v=71
137968 On ch=1 n=f#6 v=0
138012 On ch=1 n=g#2 v=0
138032 On ch=1 n=g#7 v=69
138036 Par ch=1 c=64 v=0
138042 On ch=1 n=c7 v=0
138082 Par ch=1 c=64 v=0
138128 On ch=1 n=f7 v=75
138132 On ch=1 n=c#7 v=90
138138 On ch=1 n=c#3 v=75
138152 On ch=1 n=g#7 v=0
138156 Par ch=1 c=64 v=127
138238 Par ch=1 c=64 v=127
138540 On ch=1 n=g#3 v=62
138544 Par ch=1 c=64 v=0
138616 On ch=1 n=f4 v=69
138626 Par ch=1 c=64 v=127
138646 On ch=1 n=g#3 v=0
138680 On ch=1 n=f5 v=73
138692 On ch=1 n=c#5 v=82
138712 On ch=1 n=f4 v=0
138752 On ch=1 n=c#6 v=79
138756 On ch=1 n=c#5 v=0
138762 On ch=1 n=f7 v=0
138766 On ch=1 n=c#7 v=0
138780 On ch=1 n=f5 v=0
138820 On ch=1 n=g#6 v=75
138842 On ch=1 n=c#6 v=0
138858 On ch=1 n=g#6 v=0
138896 On ch=1 n=f6 v=87
138958 On ch=1 n=c#3 v=0
138966 On ch=1 n=f6 v=0
138976 On ch=1 n=c#7 v=86
139048 On ch=1 n=c#7 v=0
139070 On ch=1 n=a#7 v=90
139088 Par ch=1 c=64 v=0
139088 Par ch=1 c=64 v=0
139128 On ch=1 n=c7 v=78
139136 On ch=1 n=g#2 v=75
139142 On ch=1 n=g#7 v=93
139174 On ch=1 n=a#7 v=0
139204 Par ch=1 c=64 v=127
139222 Par ch=1 c=64 v=127
139440 Par ch=1 c=64 v=0
139456 On ch=1 n=g#3 v=62
139520 Par ch=1 c=64 v=127
139552 On ch=1 n=d#4 v=69
139604 On ch=1 n=g#3 v=0
139632 On ch=1 n=c5 v=70
139640 On ch=1 n=f#5 v=80
139668 On ch=1 n=d#4 v=0
139716 On ch=1 n=f#5 v=0
139718 On ch=1 n=c6 v=73
139730 On ch=1 n=c5 v=0
139758 On ch=1 n=c7 v=0
139772 On ch=1 n=c6 v=0
139776 On ch=1 n=g#7 v=0
139784 On ch=1 n=g#6 v=95
139814 On ch=1 n=g#6 v=0
139860 On ch=1 n=f#6 v=82
139930 On ch=1 n=c7 v=71
139966 On ch=1 n=g#2 v=0
139980 On ch=1 n=f#6 v=0
140010 On ch=1 n=g#7 v=78
140026 On ch=1 n=c7 v=0
140038 Par ch=1 c=64 v=0
140054 Par ch=1 c=64 v=0
140096 On ch=1 n=c#2 v=109
140104 On ch=1 n=f7 v=75
140112 On ch=1 n=c#7 v=88
140144 On ch=1 n=g#7 v=0
140150 Par ch=1 c=64 v=127
140192 Par ch=1 c=64 v=127
140474 Par ch=1 c=64 v=0
140482 On ch=1 n=g#3 v=63
140568 On ch=1 n=f4 v=70
140578 Par ch=1 c=64 v=127
140610 On ch=1 n=g#3 v=0
140660 On ch=1 n=f4 v=0
140680 On ch=1 n=c#5 v=77
140688 On ch=1 n=f5 v=58
140728 On ch=1 n=c#6 v=75
140738 On ch=1 n=f7 v=0
140746 On ch=1 n=c#7 v=0
140774 On ch=1 n=c#5 v=0
140786 On ch=1 n=f5 v=0
140812 On ch=1 n=g#6 v=75
140832 On ch=1 n=c#6 v=0
140916 On ch=1 n=f6 v=84
140918 On ch=1 n=c#2 v=0
140946 On ch=1 n=f6 v=0
140960 On ch=1 n=g#6 v=0
140982 On ch=1 n=c#7 v=75
141052 On ch=1 n=c#7 v=0
141066 On ch=1 n=g#7 v=84
141126 On ch=1 n=c#7 v=90
141154 On ch=1 n=g#7 v=0
141188 On ch=1 n=c#7 v=0
141206 On ch=1 n=f6 v=77
141234 On ch=1 n=f6 v=0
141250 On ch=1 n=g#6 v=59
141308 On ch=1 n=g#6 v=0
141324 On ch=1 n=c#6 v=64
141380 On ch=1 n=f5 v=77
141402 On ch=1 n=c#6 v=0
141442 On ch=1 n=f5 v=0
141456 On ch=1 n=g#5 v=76
141524 On ch=1 n=c#5 v=94
141566 On ch=1 n=g#5 v=0
141596 On ch=1 n=c#5 v=0
141610 On ch=1 n=f4 v=61
141646 On ch=1 n=f4 v=0
141656 On ch=1 n=g#4 v=81
141712 On ch=1 n=c#4 v=67
141780 On ch=1 n=g#4 v=0
141780 On ch=1 n=f3 v=77
141830 Par ch=1 c=64 v=0
141848 On ch=1 n=c#4 v=0
141856 On ch=1 n=f3 v=0
141904 On ch=1 n=c#4 v=92
141916 Par ch=1 c=64 v=0
141940 Par ch=1 c=64 v=127
141972 On ch=1 n=c#4 v=0
141986 On ch=1 n=c#3 v=93
142000 On ch=1 n=c#2 v=90
142068 Par ch=1 c=64 v=127
142656 Par ch=1 c=64 v=0
142702 On ch=1 n=c#8 v=77
142702 On ch=1 n=c#6 v=66
142704 On ch=1 n=c#5 v=90
142716 On ch=1 n=c#7 v=87
143216 On ch=1 n=c#2 v=0
143236 On ch=1 n=c#3 v=0
143710 On ch=1 n=c#7 v=0
143720 On ch=1 n=c#8 v=0
143726 On ch=1 n=c#6 v=0
143728 On ch=1 n=c#5 v=0
143760 Par ch=1 c=64 v=0
144924 On ch=1 n=a2 v=57
144928 On ch=1 n=e4 v=51
144928 On ch=1 n=a3 v=42
144944 On ch=1 n=c#5 v=56
144954 On ch=1 n=e5 v=57
145030 Par ch=1 c=64 v=127
145338 On ch=1 n=e5 v=0
145494 On ch=1 n=e4 v=0
145832 On ch=1 n=f#5 v=60
145844 On ch=1 n=f#4 v=45
145850 On ch=1 n=d3 v=54
145862 On ch=1 n=a2 v=0
145894 Par ch=1 c=64 v=0
146098 Par ch=1 c=64 v=127
146922 On ch=1 n=b4 v=49
146930 On ch=1 n=c#5 v=0
146962 On ch=1 n=f#5 v=0
147130 On ch=1 n=c#5 v=60
147264 On ch=1 n=b4 v=0
147342 On ch=1 n=e5 v=69
147392 On ch=1 n=c#5 v=0
147538 On ch=1 n=d5 v=55
147552 On ch=1 n=e5 v=0
147738 On ch=1 n=f#4 v=0
147752 On ch=1 n=d5 v=0
147814 On ch=1 n=d3 v=0
147852 On ch=1 n=a3 v=0
148042 On ch=1 n=c#5 v=60
148106 Par ch=1 c=64 v=0
148128 On ch=1 n=c#5 v=0
148182 On ch=1 n=e4 v=63
148190 On ch=1 n=e5 v=64
148198 On ch=1 n=c#5 v=75
148198 On ch=1 n=a2 v=49
148210 On ch=1 n=a3 v=48
148280 Par ch=1 c=64 v=127
148612 On ch=1 n=e5 v=0
148732 On ch=1 n=e4 v=0
149066 On ch=1 n=f#5 v=43
149072 On ch=1 n=f#4 v=32
149084 On ch=1 n=d3 v=55
149100 Par ch=1 c=64 v=0
149118 On ch=1 n=a2 v=0
149270 Par ch=1 c=64 v=127
150162 On ch=1 n=c#5 v=0
150188 On ch=1 n=b4 v=41
150200 On ch=1 n=f#5 v=0
150388 On ch=1 n=c#5 v=43
150504 On ch=1 n=b4 v=0
150582 On ch=1 n=e5 v=50
150644 On ch=1 n=c#5 v=0
150746 On ch=1 n=e5 v=0
150758 On ch=1 n=d5 v=53
150820 On ch=1 n=d3 v=0
150898 On ch=1 n=a3 v=0
150932 On ch=1 n=d5 v=0
150958 On ch=1 n=f#4 v=0
151220 On ch=1 n=c#5 v=51
151262 On ch=1 n=c#5 v=0
151306 Par ch=1 c=64 v=0
151368 On ch=1 n=c#5 v=59
151372 On ch=1 n=e5 v=57
151384 On ch=1 n=g#4 v=54
151384 On ch=1 n=e3 v=40
151386 On ch=1 n=d4 v=41
151476 Par ch=1 c=64 v=127
152118 On ch=1 n=b4 v=55
152130 On ch=1 n=c#5 v=0
152184 On ch=1 n=g#4 v=0
152392 On ch=1 n=e3 v=0
152458 On ch=1 n=e5 v=0
152666 On ch=1 n=a4 v=58
152680 On ch=1 n=c#4 v=48
152684 On ch=1 n=a3 v=40
152712 On ch=1 n=b4 v=0
152716 On ch=1 n=d4 v=0
152852 Par ch=1 c=64 v=0
152882 On ch=1 n=c#5 v=58
152898 On ch=1 n=e4 v=47
152914 On ch=1 n=a4 v=0
152938 On ch=1 n=c#4 v=0
153032 Par ch=1 c=64 v=127
153998 On ch=1 n=c#5 v=0
154644 On ch=1 n=a3 v=0
154706 On ch=1 n=e4 v=0
154808 On ch=1 n=c#6 v=59
154908 Par ch=1 c=64 v=0
155302 Par ch=1 c=64 v=127
155330 On ch=1 n=a#4 v=31
155342 On ch=1 n=e4 v=24
155360 On ch=1 n=g4 v=27
155484 On ch=1 n=c#6 v=0
155492 On ch=1 n=g4 v=0
155498 On ch=1 n=e4 v=0
155498 On ch=1 n=a#4 v=0
155518 On ch=1 n=b5 v=51
155586 On ch=1 n=c#6 v=51
155598 On ch=1 n=b5 v=0
155602 Par ch=1 c=64 v=0
155632 On ch=1 n=b5 v=51
155650 On ch=1 n=d4 v=29
155670 On ch=1 n=c#6 v=0
155670 On ch=1 n=b4 v=29
155682 On ch=1 n=f#4 v=23
155724 Par ch=1 c=64 v=127
155834 On ch=1 n=f#4 v=0
155866 On ch=1 n=b4 v=0
155968 On ch=1 n=b5 v=0
155968 On ch=1 n=a5 v=51
155980 On ch=1 n=d4 v=0
156056 On ch=1 n=f#4 v=39
156062 On ch=1 n=a4 v=31
156064 On ch=1 n=b5 v=51
156084 On ch=1 n=d5 v=20
156112 On ch=1 n=a5 v=0
156220 On ch=1 n=f#4 v=0
156226 On ch=1 n=a4 v=0
156248 On ch=1 n=d5 v=0
156284 Par ch=1 c=64 v=0
156314 On ch=1 n=c#5 v=43
156326 On ch=1 n=c#6 v=51
156326 On ch=1 n=f4 v=33
156360 On ch=1 n=b5 v=0
156394 On ch=1 n=g#4 v=21
156434 Par ch=1 c=64 v=127
156544 On ch=1 n=c#5 v=0
156576 On ch=1 n=g#4 v=0
156586 On ch=1 n=f4 v=0
156660 On ch=1 n=c#6 v=0
156668 On ch=1 n=d6 v=51
156754 On ch=1 n=c#6 v=51
156782 On ch=1 n=a#4 v=32
156782 On ch=1 n=e4 v=36
156800 On ch=1 n=d6 v=0
156818 On ch=1 n=g4 v=42
156930 On ch=1 n=g4 v=0
156940 On ch=1 n=a#4 v=0
156952 On ch=1 n=e4 v=0
156968 On ch=1 n=c#6 v=0
156986 On ch=1 n=b5 v=46
157008 Par ch=1 c=64 v=0
157050 On ch=1 n=c#6 v=46
157068 On ch=1 n=b5 v=0
157082 On ch=1 n=d4 v=37
157096 On ch=1 n=f#4 v=40
157104 On ch=1 n=b4 v=31
157122 On ch=1 n=b5 v=44
157152 On ch=1 n=c#6 v=0
157164 Par ch=1 c=64 v=127
157326 On ch=1 n=b4 v=0
157330 On ch=1 n=f#4 v=0
157416 On ch=1 n=b5 v=0
157422 On ch=1 n=a5 v=48
157434 On ch=1 n=d4 v=0
157536 On ch=1 n=a5 v=51
157536 On ch=1 n=d5 v=20
157536 On ch=1 n=f#4 v=39
157552 On ch=1 n=a4 v=31
157554 On ch=1 n=b5 v=50
157580 On ch=1 n=a5 v=0
157632 On ch=1 n=b5 v=48
157680 On ch=1 n=a5 v=0
157700 On ch=1 n=f#4 v=0
157700 On ch=1 n=d5 v=0
157716 On ch=1 n=a4 v=0
157798 On ch=1 n=c#4 v=53
157816 Par ch=1 c=64 v=0
157894 On ch=1 n=g#4 v=41
157928 On ch=1 n=b5 v=0
157946 On ch=1 n=c#6 v=44
157964 On ch=1 n=b5 v=0
157976 On ch=1 n=f5 v=46
157992 On ch=1 n=c#4 v=0
158004 Par ch=1 c=64 v=127
158192 On ch=1 n=f5 v=0
158192 On ch=1 n=c#6 v=0
158192 On ch=1 n=g#4 v=0
158218 On ch=1 n=c#5 v=51
158324 On ch=1 n=c#6 v=50
158392 On ch=1 n=c#5 v=0
158400 On ch=1 n=g#5 v=49
158448 On ch=1 n=c#6 v=0
158514 On ch=1 n=g#5 v=0
158526 On ch=1 n=c#6 v=48
158528 Par ch=1 c=64 v=0
158612 On ch=1 n=c#6 v=0
158612 Par ch=1 c=64 v=127
158644 On ch=1 n=g#5 v=48
158736 On ch=1 n=c#3 v=61
158740 On ch=1 n=g#6 v=46
158812 On ch=1 n=g#5 v=0
158870 On ch=1 n=g#6 v=0
158870 On ch=1 n=c#6 v=45
158958 On ch=1 n=g#6 v=45
158978 On ch=1 n=c#6 v=0
159028 On ch=1 n=g#6 v=0
159068 On ch=1 n=c#6 v=44
159164 On ch=1 n=c#7 v=42
159232 On ch=1 n=c#6 v=0
159280 On ch=1 n=c#7 v=0
159296 On ch=1 n=g#6 v=42
159400 On ch=1 n=c#7 v=41
159412 On ch=1 n=g#6 v=0
159476 On ch=1 n=c#7 v=0
159512 On ch=1 n=g#6 v=39
159614 On ch=1 n=g#7 v=39
159700 On ch=1 n=g#6 v=0
159712 On ch=1 n=c#7 v=38
159782 On ch=1 n=g#7 v=0
159792 On ch=1 n=c#7 v=0
159854 On ch=1 n=g#7 v=37
159960 On ch=1 n=g#7 v=0
159992 On ch=1 n=c#7 v=36
160248 On ch=1 n=c#8 v=33
160352 On ch=1 n=c#7 v=0
160428 On ch=1 n=c#3 v=0
160448 On ch=1 n=c#8 v=0
161456 Par ch=1 c=64 v=0
161882 On ch=1 n=a3 v=55
161894 On ch=1 n=c#5 v=55
161900 On ch=1 n=e5 v=51
161900 On ch=1 n=e4 v=48
161936 Par ch=1 c=64 v=127
162402 On ch=1 n=e5 v=0
162560 On ch=1 n=e4 v=0
162802 On ch=1 n=f#5 v=40
162824 On ch=1 n=f#4 v=33
162836 On ch=1 n=d3 v=32
162924 Par ch=1 c=64 v=0
163654 Par ch=1 c=64 v=127
164092 On ch=1 n=b4 v=43
164106 On ch=1 n=c#5 v=0
164122 On ch=1 n=f#5 v=0
164300 On ch=1 n=c#5 v=43
164484 On ch=1 n=b4 v=0
164512 On ch=1 n=e5 v=52
164586 On ch=1 n=c#5 v=0
164684 On ch=1 n=e5 v=0
164690 On ch=1 n=d5 v=57
164872 On ch=1 n=d3 v=0
164904 On ch=1 n=f#4 v=0
164926 On ch=1 n=a3 v=0
165224 On ch=1 n=c#5 v=51
165262 On ch=1 n=d5 v=0
165318 On ch=1 n=c#5 v=0
165328 Par ch=1 c=64 v=0
165376 On ch=1 n=a2 v=47
165382 On ch=1 n=e5 v=60
165392 On ch=1 n=c#5 v=50
165392 On ch=1 n=e4 v=45
165402 On ch=1 n=a3 v=42
165498 Par ch=1 c=64 v=127
165814 On ch=1 n=e5 v=0
166120 On ch=1 n=e4 v=0
166360 On ch=1 n=a3 v=0
166454 On ch=1 n=a3 v=18
166478 On ch=1 n=f#4 v=25
166484 On ch=1 n=f#5 v=44
166490 On ch=1 n=d3 v=44
166510 On ch=1 n=a2 v=0
166736 Par ch=1 c=64 v=0
167038 Par ch=1 c=64 v=127
167558 On ch=1 n=c#5 v=0
167572 On ch=1 n=b4 v=55
167614 On ch=1 n=f#5 v=0
167796 On ch=1 n=c#5 v=42
167860 On ch=1 n=b4 v=0
168042 On ch=1 n=e5 v=36
168084 On ch=1 n=c#5 v=0
168266 On ch=1 n=e5 v=0
168310 On ch=1 n=d5 v=22
168412 On ch=1 n=f#4 v=0
168696 On ch=1 n=d5 v=0
168762 On ch=1 n=c#5 v=55
168842 On ch=1 n=c#5 v=0
168890 On ch=1 n=c#5 v=51
168992 On ch=1 n=c#5 v=0
168992 On ch=1 n=f#4 v=31
168998 On ch=1 n=a5 v=53
169210 On ch=1 n=f#5 v=46
169258 On ch=1 n=f#4 v=0
169316 On ch=1 n=a5 v=0
169436 On ch=1 n=f#5 v=0
169442 On ch=1 n=d5 v=59
169680 On ch=1 n=d5 v=0
169754 On ch=1 n=e5 v=60
169762 On ch=1 n=c#5 v=52
169762 On ch=1 n=g#4 v=57
169796 On ch=1 n=e3 v=57
169806 On ch=1 n=e4 v=40
169814 On ch=1 n=a3 v=0
169844 Par ch=1 c=64 v=0
169850 On ch=1 n=d3 v=0
170048 Par ch=1 c=64 v=127
170574 On ch=1 n=c#5 v=0
170584 Par ch=1 c=64 v=0
170604 On ch=1 n=b4 v=37
170610 On ch=1 n=d4 v=46
170660 On ch=1 n=g#4 v=0
170744 Par ch=1 c=64 v=127
170934 On ch=1 n=e3 v=0
171084 On ch=1 n=e4 v=0
171222 On ch=1 n=a4 v=48
171222 On ch=1 n=c#4 v=52
171242 On ch=1 n=a3 v=44
171256 On ch=1 n=b4 v=0
171282 On ch=1 n=d4 v=0
171456 Par ch=1 c=64 v=0
171544 On ch=1 n=e5 v=0
171578 On ch=1 n=c#5 v=42
171584 On ch=1 n=e4 v=31
171620 On ch=1 n=a4 v=0
171634 On ch=1 n=c#4 v=0
173080 Par ch=1 c=64 v=127
173290 On ch=1 n=c#5 v=0
173838 On ch=1 n=c#6 v=42
173904 On ch=1 n=a3 v=0
173940 On ch=1 n=e4 v=0
173952 Par ch=1 c=64 v=0
174672 Par ch=1 c=64 v=127
175160 On ch=1 n=d#6 v=41
175172 On ch=1 n=c#6 v=0
175264 On ch=1 n=f#6 v=41
175312 On ch=1 n=d#6 v=0
175368 On ch=1 n=f#6 v=0
175368 On ch=1 n=e6 v=41
175484 On ch=1 n=c#6 v=41
175502 On ch=1 n=e6 v=0
175552 On ch=1 n=a5 v=41
175560 On ch=1 n=c#6 v=0
175626 On ch=1 n=a5 v=0
175652 On ch=1 n=g#5 v=41
175726 On ch=1 n=g#5 v=0
175750 On ch=1 n=g#5 v=41
175850 On ch=1 n=g#6 v=69
175856 On ch=1 n=g#5 v=0
175898 Par ch=1 c=64 v=0
176324 On ch=1 n=b4 v=33
176336 On ch=1 n=f5 v=36
176340 Par ch=1 c=64 v=127
176354 On ch=1 n=d5 v=38
176470 On ch=1 n=b4 v=0
176486 On ch=1 n=f5 v=0
176538 On ch=1 n=d5 v=0
176562 On ch=1 n=g#6 v=0
176604 On ch=1 n=f#6 v=52
176632 On ch=1 n=f#6 v=0
176644 On ch=1 n=g#6 v=52
176656 Par ch=1 c=64 v=0
176670 On ch=1 n=a4 v=21
176682 On ch=1 n=c#5 v=45
176688 On ch=1 n=f#6 v=52
176720 On ch=1 n=f#5 v=24
176730 On ch=1 n=g#6 v=0
176808 Par ch=1 c=64 v=127
176940 On ch=1 n=f#5 v=0
176958 On ch=1 n=c#5 v=0
177046 On ch=1 n=e6 v=52
177052 On ch=1 n=f#6 v=0
177076 On ch=1 n=a4 v=0
177124 On ch=1 n=a5 v=39
177136 On ch=1 n=f#6 v=63
177136 On ch=1 n=e5 v=45
177152 On ch=1 n=c#5 v=30
177182 On ch=1 n=e6 v=0
177260 On ch=1 n=a5 v=0
177268 On ch=1 n=e5 v=0
177272 On ch=1 n=c#5 v=0
177408 Par ch=1 c=64 v=0
177442 On ch=1 n=g#5 v=35
177442 On ch=1 n=c5 v=45
177456 On ch=1 n=g#6 v=58
177484 On ch=1 n=f#6 v=0
177504 On ch=1 n=d#5 v=23
177576 Par ch=1 c=64 v=127
177634 On ch=1 n=g#5 v=0
177642 On ch=1 n=c5 v=0
177648 On ch=1 n=d#5 v=0
177802 On ch=1 n=g#6 v=0
177832 On ch=1 n=a6 v=51
177906 On ch=1 n=b4 v=32
177924 On ch=1 n=g#6 v=52
177924 On ch=1 n=f5 v=42
177932 On ch=1 n=d5 v=40
177968 On ch=1 n=a6 v=0
178020 On ch=1 n=f5 v=0
178046 On ch=1 n=b4 v=0
178052 On ch=1 n=d5 v=0
178148 On ch=1 n=g#6 v=0
178152 On ch=1 n=f#6 v=52
178190 Par ch=1 c=64 v=0
178214 On ch=1 n=g#6 v=52
178242 On ch=1 n=f#6 v=0
178248 On ch=1 n=a4 v=26
178258 On ch=1 n=f#5 v=49
178266 On ch=1 n=c#5 v=26
178294 On ch=1 n=f#6 v=52
178332 On ch=1 n=g#6 v=0
178368 Par ch=1 c=64 v=127
178456 On ch=1 n=c#5 v=0
178468 On ch=1 n=f#5 v=0
178532 On ch=1 n=a4 v=0
178604 On ch=1 n=f#6 v=0
178620 On ch=1 n=e6 v=55
178708 On ch=1 n=a5 v=31
178738 On ch=1 n=f#6 v=58
178740 On ch=1 n=e5 v=21
178772 On ch=1 n=e6 v=0
178852 On ch=1 n=e5 v=0
178880 On ch=1 n=a5 v=0
178958 Par ch=1 c=64 v=0
178980 On ch=1 n=g#4 v=48
179072 On ch=1 n=d#5 v=50
179104 On ch=1 n=g#4 v=0
179130 On ch=1 n=g#6 v=58
179130 On ch=1 n=c6 v=53
179152 Par ch=1 c=64 v=127
179172 On ch=1 n=d#5 v=0
179180 On ch=1 n=f#6 v=0
179212 On ch=1 n=c6 v=0
179768 Par ch=1 c=64 v=0
180120 Par ch=1 c=64 v=127
180292 Par ch=1 c=64 v=0
180314 On ch=1 n=g#3 v=58
180446 Par ch=1 c=64 v=127
180680 On ch=1 n=g#6 v=0
180722 On ch=1 n=g#5 v=50
180840 On ch=1 n=g#6 v=48
180894 On ch=1 n=g#5 v=0
180954 On ch=1 n=g#6 v=0
180954 On ch=1 n=d#6 v=46
181042 On ch=1 n=g#6 v=45
181082 On ch=1 n=d#6 v=0
181130 On ch=1 n=g#6 v=0
181162 On ch=1 n=d#6 v=43
181298 On ch=1 n=d#7 v=42
181332 On ch=1 n=d#6 v=0
181388 On ch=1 n=d#7 v=0
181430 On ch=1 n=g#6 v=39
181524 On ch=1 n=d#7 v=38
181538 On ch=1 n=g#6 v=0
181664 On ch=1 n=d#7 v=0
181676 On ch=1 n=g#6 v=36
181872 On ch=1 n=g#7 v=33
181898 On ch=1 n=g#6 v=0
181936 On ch=1 n=g#3 v=0
182052 On ch=1 n=g#7 v=0
182360 On ch=1 n=g#6 v=60
182724 On ch=1 n=f#6 v=60
182738 On ch=1 n=g#6 v=0
182998 Par ch=1 c=64 v=0
183026 On ch=1 n=f#6 v=0
183042 On ch=1 n=e6 v=60
183050 On ch=1 n=c#4 v=40
183138 Par ch=1 c=64 v=127
183384 On ch=1 n=g5 v=42
183398 On ch=1 n=e5 v=50
183416 On ch=1 n=c#4 v=0
183522 On ch=1 n=g#5 v=42
183596 On ch=1 n=g5 v=0
183618 On ch=1 n=e5 v=0
183630 On ch=1 n=b5 v=42
183656 On ch=1 n=g#5 v=0
183686 On ch=1 n=g#4 v=31
183732 On ch=1 n=a5 v=42
183792 On ch=1 n=b5 v=0
183824 On ch=1 n=g#5 v=42
183838 Par ch=1 c=64 v=0
183850 On ch=1 n=a5 v=0
183870 On ch=1 n=g#4 v=0
183894 On ch=1 n=g#5 v=0
183910 On ch=1 n=d#4 v=31
183916 On ch=1 n=g#5 v=59
183932 On ch=1 n=f#4 v=30
183972 Par ch=1 c=64 v=127
184032 On ch=1 n=e6 v=0
184186 On ch=1 n=e6 v=64
184234 On ch=1 n=d#4 v=0
184252 On ch=1 n=c5 v=26
184458 On ch=1 n=e6 v=0
184472 On ch=1 n=f#4 v=0
184474 On ch=1 n=d#6 v=64
184492 On ch=1 n=g#4 v=46
184520 On ch=1 n=c5 v=0
184582 On ch=1 n=g#5 v=0
184676 Par ch=1 c=64 v=0
184738 On ch=1 n=c#6 v=63
184750 On ch=1 n=g#4 v=0
184758 On ch=1 n=e4 v=52
184768 On ch=1 n=d#6 v=0
184824 Par ch=1 c=64 v=127
185022 On ch=1 n=g5 v=42
185034 On ch=1 n=c#5 v=55
185040 On ch=1 n=e4 v=0
185138 On ch=1 n=g#5 v=42
185220 On ch=1 n=c#5 v=0
185228 On ch=1 n=g5 v=0
185234 On ch=1 n=b5 v=42
185266 On ch=1 n=g#5 v=0
185288 On ch=1 n=g#4 v=38
185324 On ch=1 n=a5 v=42
185362 On ch=1 n=b5 v=0
185412 On ch=1 n=g#5 v=42
185424 On ch=1 n=a5 v=0
185430 Par ch=1 c=64 v=0
185472 On ch=1 n=g#5 v=0
185476 On ch=1 n=c4 v=36
185500 On ch=1 n=g#5 v=56
185538 On ch=1 n=g#4 v=0
185576 Par ch=1 c=64 v=127
185728 On ch=1 n=c#6 v=0
185766 On ch=1 n=g#6 v=64
185776 On ch=1 n=d#5 v=57
186024 On ch=1 n=g#6 v=0
186030 On ch=1 n=f#6 v=61
186036 On ch=1 n=d#5 v=0
186036 On ch=1 n=c4 v=0
186064 On ch=1 n=g#4 v=33
186190 Par ch=1 c=64 v=0
186274 On ch=1 n=f#6 v=0
186292 On ch=1 n=e6 v=66
186312 On ch=1 n=c#4 v=59
186348 On ch=1 n=g#5 v=0
186376 Par ch=1 c=64 v=127
186574 On ch=1 n=c#4 v=0
186576 On ch=1 n=g5 v=49
186592 On ch=1 n=e5 v=49
186606 On ch=1 n=g#4 v=0
186680 On ch=1 n=g#5 v=48
186756 On ch=1 n=g5 v=0
186776 On ch=1 n=b5 v=45
186820 On ch=1 n=g#5 v=0
186824 On ch=1 n=g#4 v=47
186836 On ch=1 n=e5 v=0
186868 On ch=1 n=a5 v=46
186914 On ch=1 n=b5 v=0
186954 On ch=1 n=g#5 v=63
186960 Par ch=1 c=64 v=0
186972 On ch=1 n=a5 v=0
187016 On ch=1 n=g#4 v=0
187018 On ch=1 n=g#5 v=0
187034 On ch=1 n=d#4 v=37
187042 On ch=1 n=g#5 v=56
187090 Par ch=1 c=64 v=127
187128 On ch=1 n=f#4 v=3
187282 On ch=1 n=e6 v=0
187306 On ch=1 n=e6 v=65
187306 On ch=1 n=c5 v=51
187376 On ch=1 n=f#4 v=0
187380 On ch=1 n=d#4 v=0
187546 On ch=1 n=d#6 v=58
187558 On ch=1 n=g#4 v=54
187564 On ch=1 n=e6 v=0
187574 On ch=1 n=g#5 v=0
187662 On ch=1 n=c5 v=0
187700 Par ch=1 c=64 v=0
187790 On ch=1 n=c#6 v=49
187800 On ch=1 n=g#4 v=0
187808 On ch=1 n=e4 v=50
187846 On ch=1 n=d#6 v=0
187862 Par ch=1 c=64 v=127
188000 On ch=1 n=c#6 v=0
188056 On ch=1 n=c6 v=50
188064 On ch=1 n=c#5 v=51
188140 On ch=1 n=e4 v=0
188156 On ch=1 n=c#6 v=48
188232 On ch=1 n=c6 v=0
188240 On ch=1 n=g#4 v=33
188262 On ch=1 n=e6 v=40
188286 On ch=1 n=c#6 v=0
188330 On ch=1 n=c#5 v=0
188346 On ch=1 n=d6 v=43
188390 On ch=1 n=e6 v=0
188438 On ch=1 n=c#6 v=61
188442 Par ch=1 c=64 v=0
188454 On ch=1 n=d6 v=0
188482 On ch=1 n=g#4 v=0
188500 On ch=1 n=c#6 v=0
188512 On ch=1 n=f4 v=38
188516 On ch=1 n=b4 v=52
188528 On ch=1 n=c#6 v=65
188574 Par ch=1 c=64 v=127
188788 On ch=1 n=c#7 v=63
188806 On ch=1 n=g#5 v=60
188954 On ch=1 n=b4 v=0
189040 On ch=1 n=c#7 v=0
189048 On ch=1 n=b6 v=64
189064 On ch=1 n=g#5 v=0
189074 On ch=1 n=f4 v=0
189078 On ch=1 n=c#5 v=36
189160 On ch=1 n=c#6 v=0
189216 Par ch=1 c=64 v=0
189300 On ch=1 n=a6 v=66
189306 On ch=1 n=c#5 v=0
189316 On ch=1 n=b6 v=0
189328 On ch=1 n=a4 v=54
189344 On ch=1 n=f#4 v=62
189372 Par ch=1 c=64 v=127
189572 On ch=1 n=c6 v=49
189584 On ch=1 n=f#5 v=66
189680 On ch=1 n=c#6 v=52
189728 On ch=1 n=a4 v=0
189784 On ch=1 n=c6 v=0
189784 On ch=1 n=e6 v=40
189798 On ch=1 n=f#5 v=0
189812 On ch=1 n=c#6 v=0
189816 On ch=1 n=c#5 v=41
189842 On ch=1 n=f#4 v=0
189872 On ch=1 n=d6 v=55
189904 On ch=1 n=e6 v=0
189950 On ch=1 n=c#6 v=59
189962 Par ch=1 c=64 v=0
189968 On ch=1 n=d6 v=0
190006 On ch=1 n=c#5 v=0
190012 On ch=1 n=c#6 v=0
190030 On ch=1 n=g#4 v=60
190038 On ch=1 n=c#6 v=63
190072 On ch=1 n=b4 v=33
190086 Par ch=1 c=64 v=127
190230 On ch=1 n=a6 v=0
190290 On ch=1 n=f5 v=49
190298 On ch=1 n=a6 v=62
190384 On ch=1 n=b4 v=0
190434 On ch=1 n=g#4 v=0
190524 On ch=1 n=a6 v=0
190530 On ch=1 n=g#6 v=62
190566 On ch=1 n=c#5 v=49
190664 On ch=1 n=c#6 v=0
190690 Par ch=1 c=64 v=0
190772 On ch=1 n=f#6 v=64
190782 On ch=1 n=f5 v=0
190798 On ch=1 n=a4 v=58
190804 On ch=1 n=c#5 v=0
190810 On ch=1 n=g#6 v=0
190856 Par ch=1 c=64 v=127
191036 On ch=1 n=c6 v=51
191042 On ch=1 n=f#5 v=69
191086 On ch=1 n=a4 v=0
191144 On ch=1 n=c#6 v=49
191204 On ch=1 n=f#5 v=0
191224 On ch=1 n=c6 v=0
191234 On ch=1 n=e6 v=50
191254 On ch=1 n=c#5 v=40
191268 On ch=1 n=c#6 v=0
191312 On ch=1 n=d6 v=53
191358 On ch=1 n=e6 v=0
191376 Par ch=1 c=64 v=0
191404 On ch=1 n=c#6 v=61
191424 On ch=1 n=d6 v=0
191434 On ch=1 n=c#5 v=0
191464 On ch=1 n=c#6 v=0
191478 On ch=1 n=f4 v=37
191480 On ch=1 n=c#6 v=63
191494 On ch=1 n=b4 v=33
191536 Par ch=1 c=64 v=127
191730 On ch=1 n=f#6 v=0
191732 On ch=1 n=c#7 v=64
191750 On ch=1 n=g#5 v=71
191796 On ch=1 n=f4 v=0
191810 On ch=1 n=b4 v=0
191942 On ch=1 n=c#7 v=0
191978 On ch=1 n=b6 v=65
191990 On ch=1 n=c#5 v=63
192050 On ch=1 n=g#5 v=0
192116 Par ch=1 c=64 v=0
192216 On ch=1 n=b6 v=0
192216 On ch=1 n=a6 v=65
192222 On ch=1 n=f#4 v=58
192232 On ch=1 n=c#5 v=0
192294 On ch=1 n=c#6 v=0
192300 Par ch=1 c=64 v=127
192478 On ch=1 n=c6 v=41
192510 On ch=1 n=a5 v=31
192588 On ch=1 n=c#6 v=40
192656 On ch=1 n=c6 v=0
192672 On ch=1 n=a5 v=0
192686 On ch=1 n=e6 v=43
192704 On ch=1 n=f#4 v=0
192716 On ch=1 n=c#6 v=0
192720 On ch=1 n=c#5 v=55
192764 On ch=1 n=d6 v=56
192794 On ch=1 n=e6 v=0
192824 Par ch=1 c=64 v=0
192844 On ch=1 n=c#6 v=56
192856 On ch=1 n=d6 v=0
192900 On ch=1 n=c#5 v=0
192902 On ch=1 n=c#6 v=0
192920 On ch=1 n=c#6 v=65
192928 On ch=1 n=g#4 v=60
192952 On ch=1 n=b4 v=43
192996 Par ch=1 c=64 v=127
193146 On ch=1 n=a6 v=0
193184 On ch=1 n=a6 v=62
193184 On ch=1 n=f5 v=55
193278 On ch=1 n=b4 v=0
193298 On ch=1 n=g#4 v=0
193400 On ch=1 n=g#6 v=60
193406 On ch=1 n=a6 v=0
193434 On ch=1 n=c#5 v=41
193520 On ch=1 n=c#6 v=0
193552 Par ch=1 c=64 v=0
193570 On ch=1 n=f5 v=0
193630 On ch=1 n=f#6 v=72
193654 On ch=1 n=c#5 v=0
193658 On ch=1 n=a4 v=60
193712 On ch=1 n=g#6 v=0
193736 Par ch=1 c=64 v=127
193914 On ch=1 n=c6 v=55
193932 On ch=1 n=f#5 v=41
193992 On ch=1 n=a4 v=0
194000 On ch=1 n=c#6 v=70
194106 On ch=1 n=e6 v=61
194116 On ch=1 n=f#5 v=0
194124 On ch=1 n=c#5 v=60
194140 On ch=1 n=c#6 v=0
194144 On ch=1 n=c6 v=0
194204 On ch=1 n=d6 v=51
194230 On ch=1 n=e6 v=0
194280 On ch=1 n=c#6 v=72
194292 On ch=1 n=d6 v=0
194308 Par ch=1 c=64 v=0
194344 On ch=1 n=c#5 v=0
194348 On ch=1 n=c#6 v=0
194372 On ch=1 n=c#6 v=79
194380 On ch=1 n=a3 v=48
194474 Par ch=1 c=64 v=127
194658 On ch=1 n=g#6 v=60
194678 On ch=1 n=c#5 v=69
194680 On ch=1 n=f#6 v=0
194880 On ch=1 n=c#5 v=0
194898 On ch=1 n=a6 v=62
194928 On ch=1 n=g#6 v=0
194938 On ch=1 n=f#4 v=58
194948 On ch=1 n=a3 v=0
195048 Par ch=1 c=64 v=0
195138 On ch=1 n=f#4 v=0
195142 On ch=1 n=g#6 v=69
195152 On ch=1 n=a6 v=0
195168 On ch=1 n=g#3 v=57
195180 On ch=1 n=d#4 v=54
195186 On ch=1 n=c#6 v=0
195200 Par ch=1 c=64 v=127
195324 On ch=1 n=g#3 v=0
195442 On ch=1 n=g5 v=41
195458 On ch=1 n=c5 v=42
195550 On ch=1 n=d#4 v=0
195562 On ch=1 n=g#5 v=29
195608 On ch=1 n=g5 v=0
195664 On ch=1 n=f#4 v=41
195682 On ch=1 n=g#5 v=0
195684 On ch=1 n=b5 v=42
195754 On ch=1 n=a5 v=49
195784 On ch=1 n=b5 v=0
195810 On ch=1 n=c5 v=0
195818 On ch=1 n=g#5 v=67
195824 Par ch=1 c=64 v=0
195846 On ch=1 n=a5 v=0
195880 On ch=1 n=g#5 v=0
195912 On ch=1 n=g#5 v=73
195924 On ch=1 n=f#4 v=0
195932 On ch=1 n=e4 v=54
195972 Par ch=1 c=64 v=127
196164 On ch=1 n=c#5 v=47
196174 On ch=1 n=f#6 v=59
196192 On ch=1 n=g#6 v=0
196378 On ch=1 n=e4 v=0
196394 On ch=1 n=f#6 v=0
196394 On ch=1 n=c#5 v=0
196420 On ch=1 n=g#4 v=42
196422 On ch=1 n=e6 v=47
196552 Par ch=1 c=64 v=0
196640 On ch=1 n=g#4 v=0
196658 On ch=1 n=g#3 v=47
196668 On ch=1 n=f#4 v=57
196694 On ch=1 n=d#6 v=56
196698 On ch=1 n=e6 v=0
196718 Par ch=1 c=64 v=127
196758 On ch=1 n=g#5 v=0
196878 On ch=1 n=g#3 v=0
196954 On ch=1 n=g5 v=48
196968 On ch=1 n=c5 v=53
197034 On ch=1 n=g#5 v=61
197126 On ch=1 n=g5 v=0
197142 On ch=1 n=b5 v=53
197166 On ch=1 n=g#5 v=0
197230 On ch=1 n=a5 v=50
197230 On ch=1 n=g#4 v=27
197258 On ch=1 n=b5 v=0
197286 On ch=1 n=f#4 v=0
197292 On ch=1 n=c5 v=0
197306 Par ch=1 c=64 v=0
197324 On ch=1 n=g#5 v=66
197338 On ch=1 n=a5 v=0
197396 On ch=1 n=g#5 v=0
197424 On ch=1 n=e4 v=45
197426 On ch=1 n=g#5 v=64
197432 On ch=1 n=g#4 v=0
197474 Par ch=1 c=64 v=127
197604 On ch=1 n=d#6 v=0
197648 On ch=1 n=d#6 v=53
197652 On ch=1 n=c#5 v=48
197822 On ch=1 n=e4 v=0
197862 On ch=1 n=c#5 v=0
197872 On ch=1 n=d#6 v=0
197888 On ch=1 n=c#6 v=54
197892 On ch=1 n=g#4 v=45
198042 Par ch=1 c=64 v=0
198086 On ch=1 n=g#5 v=0
198102 On ch=1 n=g#3 v=46
198112 On ch=1 n=g#4 v=0
198120 On ch=1 n=c6 v=53
198152 On ch=1 n=d#4 v=26
198186 On ch=1 n=c#6 v=0
198194 Par ch=1 c=64 v=127
198286 On ch=1 n=g#3 v=0
198396 On ch=1 n=g5 v=49
198406 On ch=1 n=c5 v=45
198450 On ch=1 n=d#4 v=0
198510 On ch=1 n=g#5 v=33
198556 On ch=1 n=g5 v=0
198604 On ch=1 n=g#4 v=28
198606 On ch=1 n=b5 v=44
198630 On ch=1 n=g#5 v=0
198664 On ch=1 n=c5 v=0
198678 On ch=1 n=a5 v=49
198732 Par ch=1 c=64 v=0
198744 On ch=1 n=b5 v=0
198766 On ch=1 n=g#5 v=57
198776 On ch=1 n=a5 v=0
198798 On ch=1 n=g#4 v=0
198822 On ch=1 n=g#5 v=0
198844 On ch=1 n=e4 v=36
198862 On ch=1 n=g#5 v=55
198894 Par ch=1 c=64 v=127
199084 On ch=1 n=c#5 v=31
199102 On ch=1 n=f#6 v=45
199110 On ch=1 n=c6 v=0
199164 On ch=1 n=e4 v=0
199298 On ch=1 n=c#5 v=0
199310 On ch=1 n=f#6 v=0
199328 On ch=1 n=e6 v=46
199344 On ch=1 n=g#4 v=44
199574 Par ch=1 c=64 v=0
199616 On ch=1 n=e6 v=0
199618 On ch=1 n=d#6 v=43
199628 On ch=1 n=b3 v=33
199634 On ch=1 n=g#5 v=0
199658 On ch=1 n=g#4 v=0
199722 Par ch=1 c=64 v=127
199922 On ch=1 n=d#6 v=0
199934 On ch=1 n=a#5 v=44
199952 On ch=1 n=f#4 v=22
200070 On ch=1 n=b5 v=45
200074 On ch=1 n=b3 v=0
200082 On ch=1 n=a#5 v=0
200206 On ch=1 n=d#6 v=34
200250 On ch=1 n=b5 v=0
200254 On ch=1 n=a4 v=34
200342 On ch=1 n=c#6 v=33
200386 On ch=1 n=d#6 v=0
200460 On ch=1 n=b5 v=40
200486 Par ch=1 c=64 v=0
200506 On ch=1 n=c#6 v=0
200554 On ch=1 n=b5 v=0
200576 On ch=1 n=d#5 v=37
200588 On ch=1 n=b5 v=52
200648 Par ch=1 c=64 v=127
200900 On ch=1 n=e6 v=37
201234 On ch=1 n=b5 v=0
201360 On ch=1 n=f#6 v=39
201378 On ch=1 n=e6 v=0
201388 On ch=1 n=a4 v=0
201478 On ch=1 n=f#4 v=0
201488 On ch=1 n=d#5 v=0
201762 On ch=1 n=f#6 v=0
201776 Par ch=1 c=64 v=127
201786 On ch=1 n=e4 v=46
201800 On ch=1 n=g#5 v=57
201892 On ch=1 n=b5 v=57
201924 On ch=1 n=g#5 v=0
201984 On ch=1 n=e6 v=57
201998 On ch=1 n=b4 v=38
202000 On ch=1 n=e5 v=28
202012 On ch=1 n=b5 v=0
202074 On ch=1 n=g#6 v=57
202110 On ch=1 n=e6 v=0
202138 On ch=1 n=e4 v=0
202154 On ch=1 n=f#6 v=57
202160 On ch=1 n=g#4 v=39
202200 On ch=1 n=g#6 v=0
202208 On ch=1 n=b4 v=0
202222 Par ch=1 c=64 v=0
202236 On ch=1 n=e6 v=57
202274 On ch=1 n=g#4 v=0
202300 Par ch=1 c=64 v=127
202304 On ch=1 n=d#4 v=54
202322 On ch=1 n=g#6 v=57
202334 On ch=1 n=e6 v=0
202348 On ch=1 n=e5 v=0
202352 On ch=1 n=f#6 v=0
202412 On ch=1 n=b6 v=57
202440 On ch=1 n=g#6 v=0
202480 On ch=1 n=e5 v=43
202496 On ch=1 n=b4 v=46
202504 On ch=1 n=e7 v=57
202538 On ch=1 n=b6 v=0
202584 On ch=1 n=g#7 v=57
202592 On ch=1 n=e7 v=0
202656 On ch=1 n=d#4 v=0
202664 On ch=1 n=f#7 v=57
202672 On ch=1 n=g#4 v=41
202702 On ch=1 n=g#7 v=0
202716 On ch=1 n=b4 v=0
202726 Par ch=1 c=64 v=0
202734 On ch=1 n=e7 v=57
202776 On ch=1 n=f#7 v=0
202786 On ch=1 n=g#4 v=0
202808 Par ch=1 c=64 v=127
202820 On ch=1 n=e7 v=0
202820 On ch=1 n=b6 v=57
202832 On ch=1 n=c#4 v=51
202876 On ch=1 n=b6 v=0
202884 On ch=1 n=e5 v=0
202910 On ch=1 n=g#6 v=57
202992 On ch=1 n=b4 v=37
202996 On ch=1 n=g#6 v=0
203002 On ch=1 n=f#6 v=57
203006 On ch=1 n=e5 v=36
203078 On ch=1 n=f#6 v=0
203088 On ch=1 n=e6 v=57
203142 On ch=1 n=g#4 v=43
203148 On ch=1 n=b5 v=57
203172 On ch=1 n=b4 v=0
203184 On ch=1 n=e6 v=0
203184 On ch=1 n=c#4 v=0
203208 On ch=1 n=b5 v=0
203236 On ch=1 n=g#5 v=57
203238 Par ch=1 c=64 v=0
203256 On ch=1 n=g#4 v=0
203298 On ch=1 n=b3 v=47
203308 On ch=1 n=f#5 v=57
203322 Par ch=1 c=64 v=127
203340 On ch=1 n=g#5 v=0
203350 On ch=1 n=e5 v=0
203374 On ch=1 n=e5 v=60
203412 On ch=1 n=f#5 v=0
203472 On ch=1 n=e5 v=0
203472 On ch=1 n=b4 v=60
203574 On ch=1 n=g#5 v=57
203608 On ch=1 n=b4 v=0
203648 On ch=1 n=f#5 v=57
203650 On ch=1 n=b3 v=0
203678 On ch=1 n=g#5 v=0
203728 On ch=1 n=e5 v=57
203728 Par ch=1 c=64 v=0
203762 On ch=1 n=f#5 v=0
203812 Par ch=1 c=64 v=127
203824 On ch=1 n=c#5 v=57
203824 On ch=1 n=a3 v=65
203832 On ch=1 n=e5 v=0
203904 On ch=1 n=e5 v=57
203944 On ch=1 n=c#5 v=0
203974 On ch=1 n=e5 v=0
203984 On ch=1 n=e5 v=50
203984 On ch=1 n=c#5 v=52
204000 On ch=1 n=f#5 v=57
204064 On ch=1 n=a5 v=57
204086 On ch=1 n=f#5 v=0
204108 On ch=1 n=c#5 v=0
204138 On ch=1 n=f#4 v=40
204144 On ch=1 n=c#6 v=57
204162 On ch=1 n=e5 v=0
204176 On ch=1 n=a3 v=0
204240 On ch=1 n=e6 v=57
204250 On ch=1 n=a5 v=0
204252 On ch=1 n=c#6 v=0
204316 On ch=1 n=f#4 v=0
204336 On ch=1 n=f#6 v=57
204336 On ch=1 n=f#3 v=66
204354 On ch=1 n=e6 v=0
204404 On ch=1 n=a6 v=57
204426 On ch=1 n=f#6 v=0
204480 On ch=1 n=e5 v=57
204480 On ch=1 n=c#5 v=53
204488 On ch=1 n=c#7 v=57
204544 On ch=1 n=a6 v=0
204568 On ch=1 n=e7 v=57
204580 On ch=1 n=c#7 v=0
204640 On ch=1 n=f#7 v=57
204640 On ch=1 n=f#4 v=68
204658 On ch=1 n=c#5 v=0
204658 On ch=1 n=e5 v=0
204676 On ch=1 n=e7 v=0
204688 On ch=1 n=f#3 v=0
204704 On ch=1 n=a7 v=57
204760 On ch=1 n=f#7 v=0
204772 On ch=1 n=g#7 v=57
204782 On ch=1 n=b3 v=67
204818 On ch=1 n=f#4 v=0
204824 On ch=1 n=a7 v=0
204846 Par ch=1 c=64 v=0
204856 On ch=1 n=f#7 v=57
204892 On ch=1 n=g#7 v=0
204910 Par ch=1 c=64 v=127
204928 On ch=1 n=d#7 v=57
204928 On ch=1 n=b4 v=47
204938 On ch=1 n=d#5 v=55
204962 On ch=1 n=f#7 v=0
205006 On ch=1 n=a6 v=57
205008 On ch=1 n=d#7 v=0
205076 On ch=1 n=a6 v=0
205088 On ch=1 n=f#4 v=56
205096 On ch=1 n=g#6 v=57
205134 On ch=1 n=b3 v=0
205162 Par ch=1 c=64 v=0
205178 On ch=1 n=f#4 v=0
205184 On ch=1 n=f#6 v=57
205200 On ch=1 n=g#6 v=0
205238 On ch=1 n=d#6 v=57
205244 Par ch=1 c=64 v=127
205252 On ch=1 n=g#4 v=34
205288 On ch=1 n=f#6 v=0
205336 On ch=1 n=b5 v=57
205342 On ch=1 n=g#4 v=0
205350 On ch=1 n=d#6 v=0
205402 On ch=1 n=f#4 v=56
205416 On ch=1 n=d#6 v=57
205462 On ch=1 n=b5 v=0
205478 On ch=1 n=c#6 v=57
205526 On ch=1 n=d#6 v=0
205526 On ch=1 n=f#4 v=0
205574 On ch=1 n=b5 v=57
205584 On ch=1 n=g#4 v=52
205618 On ch=1 n=c#6 v=0
205640 Par ch=1 c=64 v=0
205654 On ch=1 n=a5 v=57
205660 On ch=1 n=b5 v=0
205728 On ch=1 n=e4 v=58
205728 Par ch=1 c=64 v=127
205734 On ch=1 n=g#4 v=0
205744 On ch=1 n=g#5 v=57
205750 On ch=1 n=a5 v=0
205812 On ch=1 n=b4 v=0
205816 On ch=1 n=b5 v=57
205822 On ch=1 n=d#5 v=0
205846 On ch=1 n=g#5 v=0
205904 On ch=1 n=e6 v=57
205920 On ch=1 n=e5 v=30
205936 On ch=1 n=b4 v=50
205944 On ch=1 n=b5 v=0
205978 On ch=1 n=g#6 v=57
205992 On ch=1 n=e6 v=0
206048 On ch=1 n=g#4 v=50
206064 On ch=1 n=f#6 v=57
206080 On ch=1 n=e4 v=0
206096 On ch=1 n=g#6 v=0
206142 On ch=1 n=e6 v=57
206142 Par ch=1 c=64 v=0
206156 On ch=1 n=b4 v=0
206192 On ch=1 n=g#4 v=0
206230 On ch=1 n=g#6 v=57
206230 Par ch=1 c=64 v=127
206236 On ch=1 n=e5 v=0
206240 On ch=1 n=e6 v=0
206240 On ch=1 n=d#4 v=65
206256 On ch=1 n=f#6 v=0
206306 On ch=1 n=b6 v=57
206328 On ch=1 n=g#6 v=0
206384 On ch=1 n=e5 v=44
206386 On ch=1 n=e7 v=57
206400 On ch=1 n=b4 v=51
206432 On ch=1 n=b6 v=0
206468 On ch=1 n=g#7 v=57
206486 Par ch=1 c=64 v=0
206496 On ch=1 n=e7 v=0
206520 Par ch=1 c=64 v=127
206550 On ch=1 n=f#7 v=57
206560 On ch=1 n=g#4 v=53
206582 On ch=1 n=g#7 v=0
206592 On ch=1 n=d#4 v=0
206604 On ch=1 n=e7 v=57
206620 On ch=1 n=b4 v=0
206624 Par ch=1 c=64 v=0
206652 On ch=1 n=f#7 v=0
206672 On ch=1 n=e5 v=0
206688 On ch=1 n=e7 v=0
206692 On ch=1 n=b6 v=57
206692 Par ch=1 c=64 v=127
206694 On ch=1 n=g#4 v=0
206714 On ch=1 n=c#4 v=63
206786 On ch=1 n=g#6 v=57
206790 On ch=1 n=b6 v=0
206848 On ch=1 n=e5 v=48
206864 On ch=1 n=f#6 v=57
206868 On ch=1 n=b4 v=51
206890 On ch=1 n=g#6 v=0
206942 On ch=1 n=e6 v=57
206956 On ch=1 n=f#6 v=0
207000 On ch=1 n=e6 v=0
207016 On ch=1 n=b5 v=57
207016 On ch=1 n=g#4 v=58
207044 On ch=1 n=b4 v=0
207066 On ch=1 n=c#4 v=0
207076 On ch=1 n=b5 v=0
207104 On ch=1 n=g#5 v=57
207130 Par ch=1 c=64 v=0
207152 On ch=1 n=e5 v=0
207152 On ch=1 n=b3 v=45
207164 On ch=1 n=f#5 v=57
207174 On ch=1 n=g#4 v=0
207180 On ch=1 n=g#5 v=0
207202 Par ch=1 c=64 v=127
207248 On ch=1 n=e5 v=61
207274 On ch=1 n=f#5 v=0
207330 On ch=1 n=b4 v=66
207346 On ch=1 n=e5 v=0
207408 On ch=1 n=g#5 v=75
207454 On ch=1 n=b4 v=0
207478 On ch=1 n=f#5 v=72
207504 On ch=1 n=b3 v=0
207514 On ch=1 n=g#5 v=0
207572 On ch=1 n=e5 v=42
207582 On ch=1 n=f#5 v=0
207604 Par ch=1 c=64 v=0
207642 On ch=1 n=a3 v=63
207648 On ch=1 n=e5 v=0
207648 On ch=1 n=c#5 v=73
207692 Par ch=1 c=64 v=127
207720 On ch=1 n=c#5 v=0
207728 On ch=1 n=e5 v=63
207792 On ch=1 n=f#5 v=75
207792 On ch=1 n=c#5 v=53
207800 On ch=1 n=e5 v=0
207808 On ch=1 n=e5 v=53
207872 On ch=1 n=a5 v=57
207890 On ch=1 n=f#5 v=0
207964 On ch=1 n=c#6 v=57
207970 On ch=1 n=c#5 v=0
207984 On ch=1 n=f#4 v=40
207986 On ch=1 n=e5 v=0
207994 On ch=1 n=a3 v=0
208032 On ch=1 n=e6 v=57
208046 On ch=1 n=a5 v=0
208074 On ch=1 n=c#6 v=0
208144 On ch=1 n=f#3 v=68
208146 On ch=1 n=e6 v=0
208160 On ch=1 n=f#6 v=57
208162 On ch=1 n=f#4 v=0
208216 On ch=1 n=a6 v=57
208274 On ch=1 n=f#6 v=0
208298 On ch=1 n=c#7 v=57
208304 On ch=1 n=e5 v=53
208312 On ch=1 n=c#5 v=52
208362 On ch=1 n=e7 v=57
208372 On ch=1 n=a6 v=0
208400 On ch=1 n=c#7 v=0
208402 Par ch=1 c=64 v=0
208424 On ch=1 n=f#7 v=57
208428 On ch=1 n=f#4 v=63
208480 Par ch=1 c=64 v=127
208486 On ch=1 n=e5 v=0
208490 On ch=1 n=c#5 v=0
208494 On ch=1 n=e7 v=0
208496 On ch=1 n=f#3 v=0
208504 On ch=1 n=a7 v=57
208512 On ch=1 n=f#7 v=0
208578 On ch=1 n=b3 v=69
208592 On ch=1 n=g#7 v=57
208606 On ch=1 n=f#4 v=0
208652 On ch=1 n=a7 v=0
208658 On ch=1 n=f#7 v=57
208702 On ch=1 n=g#7 v=0
208734 On ch=1 n=d#7 v=57
208736 On ch=1 n=b4 v=45
208744 On ch=1 n=d#5 v=53
208768 On ch=1 n=f#7 v=0
208802 On ch=1 n=a6 v=57
208806 On ch=1 n=d#7 v=0
208834 Par ch=1 c=64 v=0
208880 On ch=1 n=a6 v=0
208882 On ch=1 n=f#4 v=54
208896 On ch=1 n=g#6 v=57
208904 Par ch=1 c=64 v=127
208910 On ch=1 n=b4 v=0
208930 On ch=1 n=b3 v=0
208964 On ch=1 n=f#6 v=57
208992 On ch=1 n=g#6 v=0
208996 On ch=1 n=f#4 v=0
209034 On ch=1 n=d#6 v=57
209042 On ch=1 n=g#4 v=37
209066 On ch=1 n=f#6 v=0
209108 On ch=1 n=b5 v=57
209124 On ch=1 n=d#6 v=0
209156 On ch=1 n=g#4 v=0
209188 On ch=1 n=f#4 v=54
209196 On ch=1 n=d#6 v=57
209244 On ch=1 n=b5 v=0
209268 On ch=1 n=c#6 v=57
209310 On ch=1 n=d#6 v=0
209310 On ch=1 n=f#4 v=0
209334 On ch=1 n=g#4 v=26
209348 On ch=1 n=b5 v=57
209360 On ch=1 n=d#5 v=0
209390 On ch=1 n=c#6 v=0
209422 On ch=1 n=a5 v=57
209428 Par ch=1 c=64 v=0
209438 On ch=1 n=b5 v=0
209484 On ch=1 n=g#4 v=0
209502 On ch=1 n=e4 v=61
209514 On ch=1 n=g#5 v=57
209524 On ch=1 n=a5 v=0
209528 Par ch=1 c=64 v=127
209602 On ch=1 n=b5 v=57
209610 On ch=1 n=g#5 v=0
209696 On ch=1 n=e5 v=40
209700 On ch=1 n=b4 v=33
209704 On ch=1 n=e6 v=57
209748 On ch=1 n=b5 v=0
209784 On ch=1 n=g#6 v=57
209814 On ch=1 n=e6 v=0
209848 On ch=1 n=f#6 v=57
209852 On ch=1 n=g#4 v=56
209854 On ch=1 n=e4 v=0
209876 On ch=1 n=g#6 v=0
209906 On ch=1 n=e6 v=57
209920 On ch=1 n=b4 v=0
209972 On ch=1 n=g#4 v=0
209974 On ch=1 n=b3 v=58
209992 On ch=1 n=g#6 v=57
210012 On ch=1 n=e5 v=0
210014 On ch=1 n=e6 v=0
210030 On ch=1 n=f#6 v=0
210088 On ch=1 n=b6 v=57
210090 On ch=1 n=g#6 v=0
210150 On ch=1 n=e7 v=57
210160 On ch=1 n=e5 v=60
210160 On ch=1 n=b4 v=45
210192 On ch=1 n=b6 v=0
210220 On ch=1 n=g#7 v=57
210256 On ch=1 n=e7 v=0
210292 On ch=1 n=f#7 v=57
210326 On ch=1 n=b3 v=0
210328 On ch=1 n=g#7 v=0
210348 On ch=1 n=g#4 v=56
210354 On ch=1 n=e7 v=57
210396 On ch=1 n=f#7 v=0
210416 On ch=1 n=a4 v=79
210416 On ch=1 n=a3 v=95
210422 Par ch=1 c=64 v=0
210444 On ch=1 n=e7 v=0
210444 On ch=1 n=c7 v=57
210468 On ch=1 n=g#4 v=0
210476 On ch=1 n=b4 v=0
210476 On ch=1 n=e5 v=0
210516 Par ch=1 c=64 v=127
210530 On ch=1 n=a3 v=0
210530 On ch=1 n=a4 v=0
210532 On ch=1 n=a6 v=57
210548 On ch=1 n=c7 v=0
210592 On ch=1 n=c5 v=95
210594 On ch=1 n=c4 v=51
210620 On ch=1 n=f#6 v=57
210672 On ch=1 n=a6 v=0
210684 On ch=1 n=e6 v=57
210736 On ch=1 n=f#6 v=0
210754 On ch=1 n=c6 v=57
210780 On ch=1 n=e6 v=0
210822 On ch=1 n=a5 v=57
210860 On ch=1 n=c6 v=0
210882 On ch=1 n=f#5 v=57
210944 On ch=1 n=c5 v=0
210946 On ch=1 n=c4 v=0
210946 On ch=1 n=e5 v=57
210966 On ch=1 n=a5 v=0
210998 On ch=1 n=f#5 v=0
211012 On ch=1 n=c5 v=57
211022 On ch=1 n=e5 v=0
211110 On ch=1 n=a4 v=57
211134 On ch=1 n=c5 v=0
211182 On ch=1 n=f#4 v=57
211248 On ch=1 n=a4 v=0
211296 On ch=1 n=e4 v=57
211304 On ch=1 n=f#4 v=0
211390 Par ch=1 c=64 v=0
211392 On ch=1 n=e4 v=0
211392 On ch=1 n=g#4 v=65
211408 On ch=1 n=e3 v=75
211474 Par ch=1 c=64 v=127
211488 On ch=1 n=b4 v=65
211514 On ch=1 n=g#4 v=0
211568 On ch=1 n=e4 v=46
211584 On ch=1 n=e5 v=65
211620 On ch=1 n=b4 v=0
211674 On ch=1 n=e5 v=0
211680 On ch=1 n=g#5 v=65
211760 On ch=1 n=e3 v=0
211760 On ch=1 n=b3 v=39
211776 On ch=1 n=f#5 v=65
211794 On ch=1 n=g#5 v=0
211854 On ch=1 n=e5 v=65
211874 On ch=1 n=b3 v=0
211884 On ch=1 n=e4 v=0
211920 On ch=1 n=b2 v=72
211946 On ch=1 n=g#5 v=65
211968 On ch=1 n=e5 v=0
211970 Par ch=1 c=64 v=0
211986 On ch=1 n=f#5 v=0
212032 On ch=1 n=b5 v=65
212044 Par ch=1 c=64 v=127
212048 On ch=1 n=g#5 v=0
212106 On ch=1 n=e6 v=65
212112 On ch=1 n=e4 v=75
212160 On ch=1 n=b5 v=0
212188 On ch=1 n=g#6 v=65
212220 On ch=1 n=e6 v=0
212224 On ch=1 n=b3 v=78
212248 On ch=1 n=f#6 v=65
212272 On ch=1 n=b2 v=0
212308 On ch=1 n=e6 v=65
212320 On ch=1 n=g#6 v=0
212338 On ch=1 n=b3 v=0
212338 Par ch=1 c=64 v=0
212358 On ch=1 n=f#6 v=0
212388 On ch=1 n=c6 v=65
212388 On ch=1 n=a3 v=94
212400 On ch=1 n=a2 v=95
212414 On ch=1 n=e6 v=0
212428 On ch=1 n=e4 v=0
212432 Par ch=1 c=64 v=127
212458 On ch=1 n=c6 v=0
212500 On ch=1 n=a5 v=65
212502 On ch=1 n=a3 v=0
212514 On ch=1 n=a2 v=0
212560 On ch=1 n=c3 v=77
212566 On ch=1 n=c4 v=95
212578 On ch=1 n=f#5 v=65
212634 On ch=1 n=e5 v=65
212646 On ch=1 n=a5 v=0
212712 On ch=1 n=c5 v=65
212724 On ch=1 n=f#5 v=0
212748 On ch=1 n=e5 v=0
212788 On ch=1 n=a4 v=65
212830 On ch=1 n=c5 v=0
212836 On ch=1 n=f#4 v=65
212904 On ch=1 n=e4 v=65
212912 On ch=1 n=c3 v=0
212918 On ch=1 n=c4 v=0
212930 On ch=1 n=a4 v=0
212952 On ch=1 n=f#4 v=0
212988 On ch=1 n=c4 v=65
213004 On ch=1 n=e4 v=0
213078 On ch=1 n=c4 v=0
213092 On ch=1 n=a3 v=65
213152 On ch=1 n=f#3 v=65
213264 On ch=1 n=e3 v=65
213288 On ch=1 n=a3 v=0
213292 On ch=1 n=f#3 v=0
213352 On ch=1 n=e3 v=0
213394 Par ch=1 c=64 v=0
213460 On ch=1 n=e2 v=95
213504 Par ch=1 c=64 v=127
213684 On ch=1 n=b3 v=69
213756 On ch=1 n=e4 v=71
213834 On ch=1 n=a4 v=72
213862 On ch=1 n=b3 v=0
213898 On ch=1 n=g#4 v=74
213934 On ch=1 n=e4 v=0
213988 On ch=1 n=b4 v=63
213992 On ch=1 n=a4 v=0
214060 On ch=1 n=e5 v=77
214076 On ch=1 n=g#4 v=0
214120 On ch=1 n=a5 v=78
214166 On ch=1 n=b4 v=0
214208 On ch=1 n=g#5 v=80
214238 On ch=1 n=e5 v=0
214260 On ch=1 n=a5 v=0
214316 On ch=1 n=b5 v=69
214386 On ch=1 n=g#5 v=0
214392 On ch=1 n=e6 v=84
214408 Par ch=1 c=64 v=0
214458 On ch=1 n=e4 v=85
214482 On ch=1 n=b4 v=85
214492 Par ch=1 c=64 v=127
214494 On ch=1 n=b5 v=0
214510 On ch=1 n=a6 v=86
214516 On ch=1 n=e6 v=86
214524 On ch=1 n=g#5 v=87
214570 On ch=1 n=e6 v=0
214578 On ch=1 n=g#6 v=87
214592 On ch=1 n=e6 v=0
214644 On ch=1 n=b6 v=75
214668 On ch=1 n=a6 v=0
214716 On ch=1 n=e7 v=90
214756 On ch=1 n=g#6 v=0
214818 On ch=1 n=a7 v=95
214822 On ch=1 n=b6 v=0
214844 On ch=1 n=e2 v=0
214894 On ch=1 n=e7 v=0
214896 On ch=1 n=g#7 v=94
214954 On ch=1 n=e7 v=95
214976 On ch=1 n=a7 v=0
215024 On ch=1 n=b6 v=95
215074 On ch=1 n=g#7 v=0
215094 On ch=1 n=a6 v=66
215132 On ch=1 n=e7 v=0
215168 On ch=1 n=g#6 v=78
215202 On ch=1 n=b6 v=0
215214 On ch=1 n=b4 v=0
215224 On ch=1 n=g#5 v=0
215238 On ch=1 n=e4 v=0
215252 On ch=1 n=a6 v=0
215264 On ch=1 n=e6 v=78
215346 On ch=1 n=g#6 v=0
215346 On ch=1 n=b5 v=78
215434 On ch=1 n=a5 v=66
215442 On ch=1 n=e6 v=0
215520 On ch=1 n=g#5 v=78
215524 On ch=1 n=b5 v=0
215584 On ch=1 n=e5 v=78
215592 On ch=1 n=a5 v=0
215672 On ch=1 n=b4 v=78
215698 On ch=1 n=g#5 v=0
215744 On ch=1 n=a4 v=66
215762 On ch=1 n=e5 v=0
215824 On ch=1 n=g#4 v=78
215850 On ch=1 n=b4 v=0
215896 On ch=1 n=e4 v=78
215902 On ch=1 n=a4 v=0
215980 On ch=1 n=b3 v=78
216002 On ch=1 n=g#4 v=0
216062 On ch=1 n=a3 v=66
216074 On ch=1 n=e4 v=0
216132 On ch=1 n=g#3 v=78
216158 On ch=1 n=b3 v=0
216206 On ch=1 n=e3 v=78
216220 On ch=1 n=a3 v=0
216292 On ch=1 n=b2 v=78
216310 On ch=1 n=g#3 v=0
216384 On ch=1 n=e3 v=0
216398 Par ch=1 c=64 v=0
216422 On ch=1 n=e2 v=95
216470 On ch=1 n=b2 v=0
217308 On ch=1 n=e2 v=0
218112 On ch=1 n=e5 v=95
218112 On ch=1 n=c#5 v=91
218114 On ch=1 n=e4 v=93
218126 On ch=1 n=a2 v=90
218136 On ch=1 n=a3 v=91
218156 Par ch=1 c=64 v=127
218846 On ch=1 n=e5 v=0
218984 On ch=1 n=e4 v=0
219122 On ch=1 n=f#5 v=89
219122 On ch=1 n=f#4 v=89
219130 On ch=1 n=d3 v=86
219166 On ch=1 n=a2 v=0
219300 Par ch=1 c=64 v=0
220298 On ch=1 n=b4 v=70
220320 On ch=1 n=c#5 v=0
220358 On ch=1 n=f#5 v=0
220570 On ch=1 n=c#5 v=64
220830 On ch=1 n=e5 v=61
220924 On ch=1 n=c#5 v=0
221106 On ch=1 n=d5 v=62
221116 On ch=1 n=e5 v=0
221238 On ch=1 n=b4 v=0
221754 On ch=1 n=f#4 v=0
221862 On ch=1 n=c#5 v=61
221866 On ch=1 n=d5 v=0
221890 On ch=1 n=d3 v=0
221910 On ch=1 n=a3 v=0
221952 On ch=1 n=c#5 v=0
222026 On ch=1 n=a2 v=51
222034 On ch=1 n=c#5 v=63
222034 On ch=1 n=e4 v=49
222034 On ch=1 n=a3 v=61
222048 On ch=1 n=e5 v=58
222160 Par ch=1 c=64 v=127
222686 On ch=1 n=e5 v=0
222904 On ch=1 n=e4 v=0
223160 On ch=1 n=f#5 v=72
223166 On ch=1 n=f#4 v=64
223176 On ch=1 n=d3 v=64
223218 On ch=1 n=a2 v=0
223340 Par ch=1 c=64 v=0
224270 On ch=1 n=b4 v=64
224312 On ch=1 n=c#5 v=0
224526 On ch=1 n=c#5 v=55
224538 On ch=1 n=f#5 v=0
224770 On ch=1 n=e5 v=69
224858 On ch=1 n=c#5 v=0
225004 On ch=1 n=b4 v=0
225020 On ch=1 n=d5 v=70
225042 On ch=1 n=e5 v=0
225054 On ch=1 n=f#4 v=0
225490 On ch=1 n=c#5 v=56
225498 On ch=1 n=d5 v=0
225568 On ch=1 n=c#5 v=0
225640 On ch=1 n=c#5 v=72
225750 On ch=1 n=f#4 v=45
225764 On ch=1 n=a5 v=71
226112 On ch=1 n=f#5 v=69
226154 On ch=1 n=a5 v=0
226296 Par ch=1 c=64 v=127
226428 On ch=1 n=d5 v=65
226458 On ch=1 n=f#4 v=0
226474 On ch=1 n=f#5 v=0
226490 On ch=1 n=d3 v=0
226534 On ch=1 n=c#5 v=0
226542 On ch=1 n=d5 v=0
226836 On ch=1 n=e5 v=64
226842 On ch=1 n=c#5 v=64
226842 On ch=1 n=g#4 v=57
226854 On ch=1 n=e3 v=58
226860 On ch=1 n=e4 v=58
226890 Par ch=1 c=64 v=0
226918 On ch=1 n=a3 v=0
227674 On ch=1 n=b4 v=49
227682 On ch=1 n=d4 v=54
227688 On ch=1 n=c#5 v=0
227728 On ch=1 n=g#4 v=0
227756 On ch=1 n=e4 v=0
227956 On ch=1 n=e3 v=0
227962 Par ch=1 c=64 v=127
228172 Par ch=1 c=64 v=0
228358 On ch=1 n=c#4 v=45
228360 On ch=1 n=a4 v=51
228372 On ch=1 n=a3 v=38
228394 On ch=1 n=b4 v=0
228442 On ch=1 n=d4 v=0
228452 On ch=1 n=e5 v=0
228698 On ch=1 n=e4 v=35
228700 On ch=1 n=c#5 v=45
228748 On ch=1 n=a4 v=0
228756 On ch=1 n=c#4 v=0
229334 Par ch=1 c=64 v=127
229942 On ch=1 n=c#5 v=0
230588 On ch=1 n=c#6 v=65
230602 On ch=1 n=a3 v=0
230656 On ch=1 n=e4 v=0
230682 Par ch=1 c=64 v=0
231272 On ch=1 n=a#4 v=31
231298 On ch=1 n=e4 v=31
231312 Par ch=1 c=64 v=127
231330 On ch=1 n=g4 v=19
231502 On ch=1 n=c#6 v=0
231508 On ch=1 n=e4 v=0
231526 On ch=1 n=b5 v=62
231532 On ch=1 n=a#4 v=0
231542 On ch=1 n=g4 v=0
231578 On ch=1 n=c#6 v=62
231588 On ch=1 n=b5 v=0
231604 Par ch=1 c=64 v=0
231648 On ch=1 n=d4 v=16
231654 On ch=1 n=b5 v=61
231664 On ch=1 n=b4 v=32
231676 On ch=1 n=c#6 v=0
231700 On ch=1 n=f#4 v=11
231746 Par ch=1 c=64 v=127
231838 On ch=1 n=f#4 v=0
231848 On ch=1 n=b4 v=0
231948 On ch=1 n=d4 v=0
232010 On ch=1 n=a5 v=66
232014 On ch=1 n=b5 v=0
232070 On ch=1 n=d5 v=31
232086 On ch=1 n=a4 v=26
232100 On ch=1 n=b5 v=66
232104 On ch=1 n=f#4 v=23
232132 On ch=1 n=a5 v=0
232208 On ch=1 n=a4 v=0
232228 On ch=1 n=d5 v=0
232252 On ch=1 n=f#4 v=0
232328 Par ch=1 c=64 v=0
232380 On ch=1 n=c#5 v=31
232390 On ch=1 n=c#6 v=66
232390 On ch=1 n=f4 v=26
232418 On ch=1 n=b5 v=0
232424 On ch=1 n=g#4 v=10
232452 Par ch=1 c=64 v=127
232574 On ch=1 n=c#5 v=0
232618 On ch=1 n=f4 v=0
232632 On ch=1 n=g#4 v=0
232740 On ch=1 n=c#6 v=0
232752 On ch=1 n=d6 v=52
232832 On ch=1 n=c#6 v=52
232860 On ch=1 n=e4 v=31
232872 On ch=1 n=d6 v=0
232876 On ch=1 n=a#4 v=26
232878 On ch=1 n=g4 v=28
232996 On ch=1 n=g4 v=0
233012 On ch=1 n=e4 v=0
233024 On ch=1 n=a#4 v=0
233070 On ch=1 n=c#6 v=0
233078 On ch=1 n=b5 v=57
233112 Par ch=1 c=64 v=0
233136 On ch=1 n=c#6 v=57
233148 On ch=1 n=b5 v=0
233166 On ch=1 n=d4 v=26
233192 On ch=1 n=b4 v=28
233192 On ch=1 n=f#4 v=20
233206 On ch=1 n=b5 v=57
233230 On ch=1 n=c#6 v=0
233244 Par ch=1 c=64 v=127
233380 On ch=1 n=f#4 v=0
233402 On ch=1 n=b4 v=0
233492 On ch=1 n=d4 v=0
233532 On ch=1 n=a5 v=58
233544 On ch=1 n=b5 v=0
233632 On ch=1 n=f#4 v=28
233648 On ch=1 n=d5 v=24
233648 On ch=1 n=a4 v=26
233678 On ch=1 n=b5 v=52
233694 On ch=1 n=a5 v=0
233852 On ch=1 n=f#4 v=0
233868 On ch=1 n=a4 v=0
233868 On ch=1 n=d5 v=0
233944 On ch=1 n=c#4 v=58
233982 Par ch=1 c=64 v=0
234056 On ch=1 n=g#4 v=58
234098 On ch=1 n=c#4 v=0
234146 Par ch=1 c=64 v=127
234174 On ch=1 n=c#6 v=49
234180 On ch=1 n=b5 v=0
234188 On ch=1 n=f5 v=30
234318 On ch=1 n=g#4 v=0
234326 On ch=1 n=f5 v=0
234388 On ch=1 n=c#5 v=56
234416 On ch=1 n=c#6 v=0
234534 On ch=1 n=c#6 v=54
234624 On ch=1 n=c#5 v=0
234688 On ch=1 n=g#5 v=53
234702 On ch=1 n=c#6 v=0
234782 On ch=1 n=c#6 v=52
234808 On ch=1 n=g#5 v=0
234874 On ch=1 n=c#6 v=0
234916 On ch=1 n=g#5 v=51
234998 On ch=1 n=c#3 v=56
235010 On ch=1 n=g#6 v=50
235080 On ch=1 n=g#5 v=0
235150 On ch=1 n=g#6 v=0
235150 On ch=1 n=c#6 v=49
235248 On ch=1 n=g#6 v=48
235264 On ch=1 n=c#3 v=0
235272 On ch=1 n=c#6 v=0
235340 On ch=1 n=g#6 v=0
235368 On ch=1 n=c#6 v=47
235490 On ch=1 n=c#7 v=46
235570 On ch=1 n=c#6 v=0
235606 On ch=1 n=c#7 v=0
235636 On ch=1 n=g#6 v=42
235764 On ch=1 n=c#7 v=44
235808 On ch=1 n=g#6 v=0
235858 On ch=1 n=c#7 v=0
235892 On ch=1 n=g#6 v=42
236018 On ch=1 n=g#7 v=42
236064 On ch=1 n=g#6 v=0
236186 On ch=1 n=g#7 v=0
236200 On ch=1 n=c#7 v=40
236374 On ch=1 n=g#7 v=39
236384 On ch=1 n=c#7 v=0
236502 On ch=1 n=g#7 v=0
236566 On ch=1 n=c#7 v=37
236792 On ch=1 n=c#8 v=36
236866 On ch=1 n=c#7 v=0
236928 On ch=1 n=c#8 v=0
237472 Par ch=1 c=64 v=0
238638 On ch=1 n=a2 v=46
238662 On ch=1 n=c#5 v=49
238662 On ch=1 n=a3 v=40
238674 On ch=1 n=e5 v=51
238674 On ch=1 n=e4 v=48
238722 Par ch=1 c=64 v=127
239356 On ch=1 n=e5 v=0
239500 On ch=1 n=e4 v=0
239760 On ch=1 n=f#4 v=24
239764 On ch=1 n=f#5 v=33
239776 On ch=1 n=d3 v=42
239818 On ch=1 n=a2 v=0
239864 Par ch=1 c=64 v=0
240968 On ch=1 n=b4 v=40
240994 On ch=1 n=c#5 v=0
241032 On ch=1 n=f#5 v=0
241242 On ch=1 n=c#5 v=43
241482 On ch=1 n=e5 v=49
241526 On ch=1 n=b4 v=0
241548 On ch=1 n=c#5 v=0
241742 On ch=1 n=d5 v=27
241752 On ch=1 n=e5 v=0
242018 Par ch=1 c=64 v=127
242416 On ch=1 n=c#5 v=48
242432 On ch=1 n=d5 v=0
242436 On ch=1 n=f#4 v=0
242462 On ch=1 n=a3 v=0
242472 On ch=1 n=d3 v=0
242516 Par ch=1 c=64 v=0
242562 On ch=1 n=c#5 v=0
242602 On ch=1 n=e5 v=36
242606 On ch=1 n=c#5 v=36
242616 On ch=1 n=a2 v=26
242618 On ch=1 n=e4 v=36
242626 On ch=1 n=a3 v=30
242752 Par ch=1 c=64 v=127
243436 On ch=1 n=e5 v=0
243596 On ch=1 n=e4 v=0
243756 On ch=1 n=f#4 v=31
243768 On ch=1 n=d3 v=33
243772 On ch=1 n=f#5 v=38
243814 On ch=1 n=a2 v=0
243914 Par ch=1 c=64 v=0
244932 On ch=1 n=b4 v=40
244996 On ch=1 n=c#5 v=0
245170 On ch=1 n=c#5 v=45
245210 On ch=1 n=f#5 v=0
245280 On ch=1 n=b4 v=0
245430 On ch=1 n=e5 v=28
245680 On ch=1 n=e5 v=0
245688 On ch=1 n=d5 v=26
245732 On ch=1 n=c#5 v=0
246082 On ch=1 n=d5 v=0
246232 On ch=1 n=c#5 v=36
246338 On ch=1 n=c#5 v=0
246404 On ch=1 n=c#5 v=52
246520 On ch=1 n=a5 v=60
246688 On ch=1 n=g#5 v=53
246698 On ch=1 n=a5 v=0
246842 On ch=1 n=b5 v=67
246868 On ch=1 n=g#5 v=0
247016 On ch=1 n=a5 v=59
247034 On ch=1 n=b5 v=0
247200 On ch=1 n=f#5 v=54
247258 On ch=1 n=c#5 v=0
247264 Par ch=1 c=64 v=127
247282 On ch=1 n=a5 v=0
247352 On ch=1 n=d3 v=0
247384 On ch=1 n=f#4 v=0
247410 On ch=1 n=d5 v=57
247426 On ch=1 n=f#5 v=0
247548 On ch=1 n=d5 v=0
247692 On ch=1 n=e5 v=64
247704 On ch=1 n=a3 v=0
247704 On ch=1 n=c#5 v=43
247716 On ch=1 n=g#4 v=37
247732 On ch=1 n=e4 v=56
247744 On ch=1 n=e3 v=52
247808 Par ch=1 c=64 v=0
248050 Par ch=1 c=64 v=127
248628 On ch=1 n=b4 v=49
248658 Par ch=1 c=64 v=0
248668 On ch=1 n=d4 v=48
248730 On ch=1 n=g#4 v=0
248734 On ch=1 n=c#5 v=0
248772 Par ch=1 c=64 v=127
248824 On ch=1 n=e4 v=0
248958 On ch=1 n=e3 v=0
249310 On ch=1 n=a4 v=58
249322 On ch=1 n=c#4 v=50
249336 On ch=1 n=b4 v=0
249354 On ch=1 n=a3 v=35
249380 On ch=1 n=d4 v=0
249398 Par ch=1 c=64 v=0
249410 On ch=1 n=e5 v=0
249688 On ch=1 n=c#5 v=52
249700 On ch=1 n=e4 v=37
249742 On ch=1 n=c#4 v=0
249754 On ch=1 n=a4 v=0
251488 On ch=1 n=c#5 v=0
251500 On ch=1 n=e4 v=0
251524 On ch=1 n=a3 v=0
252254 On ch=1 n=c#6 v=56
253176 Par ch=1 c=64 v=127
253494 Par ch=1 c=64 v=0
253884 Par ch=1 c=64 v=127
254134 On ch=1 n=d#6 v=45
254190 On ch=1 n=c#6 v=0
254240 On ch=1 n=f#6 v=45
254280 On ch=1 n=d#6 v=0
254342 On ch=1 n=e6 v=45
254358 On ch=1 n=f#6 v=0
254450 On ch=1 n=c#6 v=45
254484 On ch=1 n=e6 v=0
254566 On ch=1 n=a5 v=45
254572 On ch=1 n=c#6 v=0
254640 On ch=1 n=a5 v=0
254658 On ch=1 n=g#5 v=45
254734 On ch=1 n=g#5 v=0
254762 On ch=1 n=g#5 v=45
254856 On ch=1 n=g#6 v=63
254870 On ch=1 n=g#5 v=0
254962 Par ch=1 c=64 v=0
255400 On ch=1 n=f5 v=38
255406 Par ch=1 c=64 v=127
255418 On ch=1 n=b4 v=33
255434 On ch=1 n=d5 v=27
255540 On ch=1 n=b4 v=0
255552 On ch=1 n=f5 v=0
255578 On ch=1 n=d5 v=0
255626 On ch=1 n=g#6 v=0
255654 On ch=1 n=f#6 v=51
255718 On ch=1 n=g#6 v=51
255720 On ch=1 n=f#6 v=0
255742 Par ch=1 c=64 v=0
255752 On ch=1 n=a4 v=39
255770 On ch=1 n=f#5 v=39
255780 On ch=1 n=f#6 v=51
255786 On ch=1 n=c#5 v=41
255816 On ch=1 n=g#6 v=0
255886 Par ch=1 c=64 v=127
256010 On ch=1 n=c#5 v=0
256036 On ch=1 n=f#5 v=0
256126 On ch=1 n=e6 v=51
256136 On ch=1 n=f#6 v=0
256136 On ch=1 n=a4 v=0
256202 Par ch=1 c=64 v=0
256234 On ch=1 n=f#6 v=48
256248 On ch=1 n=a5 v=41
256250 On ch=1 n=e5 v=42
256266 On ch=1 n=c#5 v=26
256280 On ch=1 n=e6 v=0
256326 Par ch=1 c=64 v=127
256384 On ch=1 n=e5 v=0
256384 On ch=1 n=a5 v=0
256444 On ch=1 n=c#5 v=0
256510 Par ch=1 c=64 v=0
256542 On ch=1 n=g#6 v=58
256556 On ch=1 n=g#5 v=42
256564 On ch=1 n=c5 v=36
256572 On ch=1 n=f#6 v=0
256588 On ch=1 n=d#5 v=24
256654 Par ch=1 c=64 v=127
256762 On ch=1 n=g#5 v=0
256768 On ch=1 n=d#5 v=0
256768 On ch=1 n=c5 v=0
256928 On ch=1 n=g#6 v=0
256948 On ch=1 n=a6 v=44
257050 On ch=1 n=b4 v=27
257052 On ch=1 n=g#6 v=69
257062 On ch=1 n=f5 v=32
257062 On ch=1 n=d5 v=30
257080 On ch=1 n=a6 v=0
257168 On ch=1 n=f5 v=0
257174 On ch=1 n=b4 v=0
257178 On ch=1 n=d5 v=0
257306 On ch=1 n=g#6 v=0
257320 On ch=1 n=f#6 v=50
257330 Par ch=1 c=64 v=0
257386 On ch=1 n=g#6 v=49
257398 On ch=1 n=f#6 v=0
257408 On ch=1 n=a4 v=40
257414 On ch=1 n=f#5 v=33
257426 On ch=1 n=c#5 v=42
257462 On ch=1 n=f#6 v=49
257478 Par ch=1 c=64 v=127
257500 On ch=1 n=g#6 v=0
257632 On ch=1 n=c#5 v=0
257640 On ch=1 n=a4 v=0
257658 On ch=1 n=f#5 v=0
257818 On ch=1 n=e6 v=51
257828 On ch=1 n=f#6 v=0
257950 On ch=1 n=a5 v=36
257960 On ch=1 n=f#6 v=51
257960 On ch=1 n=c#5 v=39
257968 On ch=1 n=e5 v=30
257980 On ch=1 n=e6 v=0
258054 On ch=1 n=c#5 v=0
258074 On ch=1 n=e5 v=0
258084 On ch=1 n=a5 v=0
258396 On ch=1 n=g#4 v=42
258408 Par ch=1 c=64 v=0
258432 On ch=1 n=d#5 v=38
258444 On ch=1 n=g#6 v=49
258458 On ch=1 n=c6 v=41
258486 On ch=1 n=f#6 v=0
258552 Par ch=1 c=64 v=127
258682 On ch=1 n=c6 v=0
258726 On ch=1 n=g#4 v=0
258732 On ch=1 n=d#5 v=0
259288 Par ch=1 c=64 v=0
259322 On ch=1 n=g#3 v=48
259430 Par ch=1 c=64 v=127
259792 On ch=1 n=g#5 v=44
259818 On ch=1 n=g#6 v=0
259954 On ch=1 n=g#6 v=40
260044 On ch=1 n=g#5 v=0
260112 On ch=1 n=d#6 v=39
260128 On ch=1 n=g#6 v=0
260230 On ch=1 n=g#6 v=37
260246 On ch=1 n=d#6 v=0
260334 On ch=1 n=g#6 v=0
260370 On ch=1 n=d#6 v=38
260488 On ch=1 n=d#7 v=37
260556 On ch=1 n=d#6 v=0
260636 On ch=1 n=g#6 v=36
260680 On ch=1 n=d#7 v=0
260798 On ch=1 n=g#6 v=0
260812 On ch=1 n=d#7 v=35
260896 On ch=1 n=d#7 v=0
260928 On ch=1 n=g#6 v=34
261138 On ch=1 n=g#7 v=34
261178 On ch=1 n=g#6 v=0
261248 On ch=1 n=g#7 v=0
261536 On ch=1 n=g#6 v=48
261666 On ch=1 n=g#3 v=0
261892 Par ch=1 c=64 v=0
261900 On ch=1 n=f#6 v=48
261914 On ch=1 n=g#6 v=0
262174 Par ch=1 c=64 v=0
262202 On ch=1 n=f#6 v=0
262218 On ch=1 n=e6 v=48
262226 On ch=1 n=c#4 v=32
262314 Par ch=1 c=64 v=127
262374 Par ch=1 c=64 v=127
262560 On ch=1 n=g5 v=40
262574 On ch=1 n=e5 v=40
262592 On ch=1 n=c#4 v=0
262698 On ch=1 n=g#5 v=40
262772 On ch=1 n=g5 v=0
262794 On ch=1 n=e5 v=0
262806 On ch=1 n=b5 v=40
262832 On ch=1 n=g#5 v=0
262862 On ch=1 n=g#4 v=24
262908 On ch=1 n=a5 v=40
262968 On ch=1 n=b5 v=0
263000 On ch=1 n=g#5 v=40
263014 Par ch=1 c=64 v=0
263026 On ch=1 n=a5 v=0
263046 On ch=1 n=g#4 v=0
263070 On ch=1 n=g#5 v=0
263086 On ch=1 n=d#4 v=24
263092 On ch=1 n=g#5 v=56
263098 Par ch=1 c=64 v=0
263108 On ch=1 n=f#4 v=24
263148 Par ch=1 c=64 v=127
263208 On ch=1 n=e6 v=0
263246 Par ch=1 c=64 v=127
263362 On ch=1 n=e6 v=58
263410 On ch=1 n=d#4 v=0
263428 On ch=1 n=c5 v=20
263634 On ch=1 n=e6 v=0
263648 On ch=1 n=f#4 v=0
263650 On ch=1 n=d#6 v=58
263668 On ch=1 n=g#4 v=36
263696 On ch=1 n=c5 v=0
263758 On ch=1 n=g#5 v=0
263852 Par ch=1 c=64 v=0
263914 On ch=1 n=c#6 v=57
263926 On ch=1 n=g#4 v=0
263934 On ch=1 n=e4 v=41
263944 On ch=1 n=d#6 v=0
263970 Par ch=1 c=64 v=0
264000 Par ch=1 c=64 v=127
264112 Par ch=1 c=64 v=127
264198 On ch=1 n=g5 v=40
264210 On ch=1 n=c#5 v=44
264216 On ch=1 n=e4 v=0
264314 On ch=1 n=g#5 v=40
264396 On ch=1 n=c#5 v=0
264404 On ch=1 n=g5 v=0
264410 On ch=1 n=b5 v=40
264442 On ch=1 n=g#5 v=0
264464 On ch=1 n=g#4 v=30
264500 On ch=1 n=a5 v=40
264538 On ch=1 n=b5 v=0
264588 On ch=1 n=g#5 v=40
264600 On ch=1 n=a5 v=0
264606 Par ch=1 c=64 v=0
264648 On ch=1 n=g#5 v=0
264652 On ch=1 n=c4 v=28
264676 On ch=1 n=g#5 v=52
264714 On ch=1 n=g#4 v=0
264732 Par ch=1 c=64 v=0
264752 Par ch=1 c=64 v=127
264886 Par ch=1 c=64 v=127
264904 On ch=1 n=c#6 v=0
264942 On ch=1 n=g#6 v=51
264952 On ch=1 n=d#5 v=38
265200 On ch=1 n=g#6 v=0
265206 On ch=1 n=f#6 v=48
265212 On ch=1 n=d#5 v=0
265212 On ch=1 n=c4 v=0
265240 On ch=1 n=g#4 v=26
265366 Par ch=1 c=64 v=0
265450 On ch=1 n=f#6 v=0
265468 On ch=1 n=e6 v=52
265488 On ch=1 n=c#4 v=47
265524 On ch=1 n=g#5 v=0
265552 Par ch=1 c=64 v=127
265554 Par ch=1 c=64 v=0
265708 Par ch=1 c=64 v=127
265750 On ch=1 n=c#4 v=0
265752 On ch=1 n=g5 v=46
265768 On ch=1 n=e5 v=39
265782 On ch=1 n=g#4 v=0
265856 On ch=1 n=g#5 v=45
265932 On ch=1 n=g5 v=0
265952 On ch=1 n=b5 v=43
265996 On ch=1 n=g#5 v=0
266000 On ch=1 n=g#4 v=37
266012 On ch=1 n=e5 v=0
266044 On ch=1 n=a5 v=44
266090 On ch=1 n=b5 v=0
266130 On ch=1 n=g#5 v=60
266136 Par ch=1 c=64 v=0
266148 On ch=1 n=a5 v=0
266192 On ch=1 n=g#4 v=0
266194 On ch=1 n=g#5 v=0
266210 On ch=1 n=d#4 v=29
266218 On ch=1 n=g#5 v=52
266266 Par ch=1 c=64 v=127
266304 On ch=1 n=f#4 v=2
266316 Par ch=1 c=64 v=0
266458 On ch=1 n=e6 v=0
266460 Par ch=1 c=64 v=127
266482 On ch=1 n=e6 v=59
266482 On ch=1 n=c5 v=40
266552 On ch=1 n=f#4 v=0
266556 On ch=1 n=d#4 v=0
266722 On ch=1 n=d#6 v=52
266734 On ch=1 n=g#4 v=43
266740 On ch=1 n=e6 v=0
266750 On ch=1 n=g#5 v=0
266838 On ch=1 n=c5 v=0
266876 Par ch=1 c=64 v=0
266966 On ch=1 n=c#6 v=44
266976 On ch=1 n=g#4 v=0
266984 On ch=1 n=e4 v=40
267022 On ch=1 n=d#6 v=0
267038 Par ch=1 c=64 v=127
267116 Par ch=1 c=64 v=0
267176 On ch=1 n=c#6 v=0
267232 On ch=1 n=c6 v=39
267240 On ch=1 n=c#5 v=40
267248 Par ch=1 c=64 v=127
267316 On ch=1 n=e4 v=0
267332 On ch=1 n=c#6 v=38
267408 On ch=1 n=c6 v=0
267418 On ch=1 n=g#4 v=26
267438 On ch=1 n=e6 v=32
267462 On ch=1 n=c#6 v=0
267506 On ch=1 n=c#5 v=0
267522 On ch=1 n=d6 v=34
267566 On ch=1 n=e6 v=0
267614 On ch=1 n=c#6 v=48
267618 Par ch=1 c=64 v=0
267630 On ch=1 n=d6 v=0
267660 On ch=1 n=g#4 v=0
267676 On ch=1 n=c#6 v=0
267688 On ch=1 n=f4 v=32
267692 On ch=1 n=b4 v=52
267704 On ch=1 n=c#6 v=51
267750 Par ch=1 c=64 v=127
267818 Par ch=1 c=64 v=0
267962 Par ch=1 c=64 v=127
267964 On ch=1 n=c#7 v=72
267982 On ch=1 n=g#5 v=60
268130 On ch=1 n=b4 v=0
268216 On ch=1 n=c#7 v=0
268224 On ch=1 n=b6 v=73
268240 On ch=1 n=g#5 v=0
268250 On ch=1 n=f4 v=0
268254 On ch=1 n=c#5 v=36
268336 On ch=1 n=c#6 v=0
268392 Par ch=1 c=64 v=0
268476 On ch=1 n=a6 v=75
268482 On ch=1 n=c#5 v=0
268492 On ch=1 n=b6 v=0
268504 On ch=1 n=a4 v=54
268520 On ch=1 n=f#4 v=52
268548 Par ch=1 c=64 v=127
268636 Par ch=1 c=64 v=0
268748 On ch=1 n=c6 v=49
268760 On ch=1 n=f#5 v=66
268778 Par ch=1 c=64 v=127
268856 On ch=1 n=c#6 v=52
268904 On ch=1 n=a4 v=0
268960 On ch=1 n=c6 v=0
268960 On ch=1 n=e6 v=40
268974 On ch=1 n=f#5 v=0
268988 On ch=1 n=c#6 v=0
268992 On ch=1 n=c#5 v=41
269018 On ch=1 n=f#4 v=0
269048 On ch=1 n=d6 v=55
269080 On ch=1 n=e6 v=0
269126 On ch=1 n=c#6 v=59
269138 Par ch=1 c=64 v=0
269144 On ch=1 n=d6 v=0
269182 On ch=1 n=c#5 v=0
269188 On ch=1 n=c#6 v=0
269206 On ch=1 n=g#4 v=60
269214 On ch=1 n=c#6 v=63
269248 On ch=1 n=b4 v=33
269262 Par ch=1 c=64 v=127
269382 Par ch=1 c=64 v=0
269436 On ch=1 n=a6 v=0
269466 On ch=1 n=f5 v=49
269474 On ch=1 n=a6 v=62
269528 Par ch=1 c=64 v=127
269560 On ch=1 n=b4 v=0
269610 On ch=1 n=g#4 v=0
269700 On ch=1 n=a6 v=0
269706 On ch=1 n=g#6 v=62
269742 On ch=1 n=c#5 v=49
269840 On ch=1 n=c#6 v=0
269866 Par ch=1 c=64 v=0
269948 On ch=1 n=f#6 v=64
269958 On ch=1 n=f5 v=0
269974 On ch=1 n=a4 v=58
269980 On ch=1 n=c#5 v=0
269986 On ch=1 n=g#6 v=0
270032 Par ch=1 c=64 v=127
270126 Par ch=1 c=64 v=0
270212 On ch=1 n=c6 v=51
270218 On ch=1 n=f#5 v=69
270262 On ch=1 n=a4 v=0
270264 Par ch=1 c=64 v=127
270320 On ch=1 n=c#6 v=49
270380 On ch=1 n=f#5 v=0
270400 On ch=1 n=c6 v=0
270410 On ch=1 n=e6 v=50
270430 On ch=1 n=c#5 v=40
270444 On ch=1 n=c#6 v=0
270488 On ch=1 n=d6 v=53
270534 On ch=1 n=e6 v=0
270552 Par ch=1 c=64 v=0
270580 On ch=1 n=c#6 v=61
270600 On ch=1 n=d6 v=0
270610 On ch=1 n=c#5 v=0
270640 On ch=1 n=c#6 v=0
270654 On ch=1 n=f4 v=37
270656 On ch=1 n=c#6 v=63
270670 On ch=1 n=b4 v=33
270712 Par ch=1 c=64 v=127
270854 Par ch=1 c=64 v=0
270908 On ch=1 n=c#7 v=64
270926 On ch=1 n=g#5 v=71
270938 On ch=1 n=f#6 v=0
270972 On ch=1 n=f4 v=0
270976 Par ch=1 c=64 v=127
270986 On ch=1 n=b4 v=0
271154 On ch=1 n=b6 v=65
271166 On ch=1 n=c#5 v=63
271178 On ch=1 n=c#7 v=0
271226 On ch=1 n=g#5 v=0
271292 Par ch=1 c=64 v=0
271392 On ch=1 n=b6 v=0
271392 On ch=1 n=a6 v=65
271398 On ch=1 n=f#4 v=58
271408 On ch=1 n=c#5 v=0
271470 On ch=1 n=c#6 v=0
271476 Par ch=1 c=64 v=127
271594 Par ch=1 c=64 v=0
271654 On ch=1 n=c6 v=41
271686 On ch=1 n=a5 v=31
271756 Par ch=1 c=64 v=127
271764 On ch=1 n=c#6 v=40
271832 On ch=1 n=c6 v=0
271848 On ch=1 n=a5 v=0
271862 On ch=1 n=e6 v=43
271880 On ch=1 n=f#4 v=0
271892 On ch=1 n=c#6 v=0
271896 On ch=1 n=c#5 v=55
271940 On ch=1 n=d6 v=56
271970 On ch=1 n=e6 v=0
272000 Par ch=1 c=64 v=0
272020 On ch=1 n=c#6 v=56
272032 On ch=1 n=d6 v=0
272076 On ch=1 n=c#5 v=0
272078 On ch=1 n=c#6 v=0
272096 On ch=1 n=c#6 v=65
272104 On ch=1 n=g#4 v=60
272128 On ch=1 n=b4 v=43
272172 Par ch=1 c=64 v=127
272306 Par ch=1 c=64 v=0
272322 On ch=1 n=a6 v=0
272360 On ch=1 n=a6 v=62
272360 On ch=1 n=f5 v=55
272452 Par ch=1 c=64 v=127
272454 On ch=1 n=b4 v=0
272474 On ch=1 n=g#4 v=0
272576 On ch=1 n=g#6 v=60
272582 On ch=1 n=a6 v=0
272610 On ch=1 n=c#5 v=41
272696 On ch=1 n=c#6 v=0
272728 Par ch=1 c=64 v=0
272746 On ch=1 n=f5 v=0
272806 On ch=1 n=f#6 v=72
272830 On ch=1 n=c#5 v=0
272834 On ch=1 n=a4 v=60
272888 On ch=1 n=g#6 v=0
272912 Par ch=1 c=64 v=127
273056 Par ch=1 c=64 v=0
273090 On ch=1 n=c6 v=55
273108 On ch=1 n=f#5 v=41
273168 On ch=1 n=a4 v=0
273176 On ch=1 n=c#6 v=70
273192 Par ch=1 c=64 v=127
273282 On ch=1 n=e6 v=61
273292 On ch=1 n=f#5 v=0
273300 On ch=1 n=c#5 v=60
273316 On ch=1 n=c#6 v=0
273320 On ch=1 n=c6 v=0
273380 On ch=1 n=d6 v=51
273406 On ch=1 n=e6 v=0
273456 On ch=1 n=c#6 v=72
273468 On ch=1 n=d6 v=0
273484 Par ch=1 c=64 v=0
273520 On ch=1 n=c#5 v=0
273524 On ch=1 n=c#6 v=0
273548 On ch=1 n=c#6 v=79
273556 On ch=1 n=a3 v=48
273650 Par ch=1 c=64 v=127
273736 On ch=1 n=f#6 v=0
273772 Par ch=1 c=64 v=0
273834 On ch=1 n=g#6 v=60
273854 On ch=1 n=c#5 v=69
273932 Par ch=1 c=64 v=127
274056 On ch=1 n=c#5 v=0
274074 On ch=1 n=a6 v=62
274104 On ch=1 n=g#6 v=0
274114 On ch=1 n=f#4 v=58
274124 On ch=1 n=a3 v=0
274224 Par ch=1 c=64 v=0
274314 On ch=1 n=f#4 v=0
274318 On ch=1 n=g#6 v=69
274328 On ch=1 n=a6 v=0
274344 On ch=1 n=g#3 v=57
274356 On ch=1 n=d#4 v=54
274362 On ch=1 n=c#6 v=0
274376 Par ch=1 c=64 v=127
274500 On ch=1 n=g#3 v=0
274618 On ch=1 n=g5 v=34
274620 Par ch=1 c=64 v=0
274634 On ch=1 n=c5 v=42
274726 On ch=1 n=d#4 v=0
274738 On ch=1 n=g#5 v=24
274764 Par ch=1 c=64 v=127
274784 On ch=1 n=g5 v=0
274840 On ch=1 n=f#4 v=41
274858 On ch=1 n=g#5 v=0
274860 On ch=1 n=b5 v=29
274930 On ch=1 n=a5 v=34
274960 On ch=1 n=b5 v=0
274986 On ch=1 n=c5 v=0
274994 On ch=1 n=g#5 v=47
275000 Par ch=1 c=64 v=0
275022 On ch=1 n=a5 v=0
275056 On ch=1 n=g#5 v=0
275088 On ch=1 n=g#5 v=62
275100 On ch=1 n=f#4 v=0
275108 On ch=1 n=e4 v=54
275148 Par ch=1 c=64 v=127
275340 On ch=1 n=c#5 v=47
275348 On ch=1 n=g#6 v=0
275350 On ch=1 n=f#6 v=59
275398 Par ch=1 c=64 v=0
275544 Par ch=1 c=64 v=127
275554 On ch=1 n=e4 v=0
275570 On ch=1 n=f#6 v=0
275570 On ch=1 n=c#5 v=0
275596 On ch=1 n=g#4 v=43
275598 On ch=1 n=e6 v=48
275728 Par ch=1 c=64 v=0
275816 On ch=1 n=g#4 v=0
275834 On ch=1 n=g#3 v=47
275844 On ch=1 n=f#4 v=57
275870 On ch=1 n=d#6 v=57
275874 On ch=1 n=e6 v=0
275894 Par ch=1 c=64 v=127
275934 On ch=1 n=g#5 v=0
276054 On ch=1 n=g#3 v=0
276130 On ch=1 n=g5 v=40
276144 On ch=1 n=c5 v=53
276162 Par ch=1 c=64 v=0
276210 On ch=1 n=g#5 v=51
276298 Par ch=1 c=64 v=127
276302 On ch=1 n=g5 v=0
276318 On ch=1 n=b5 v=45
276342 On ch=1 n=g#5 v=0
276406 On ch=1 n=a5 v=43
276406 On ch=1 n=g#4 v=27
276434 On ch=1 n=b5 v=0
276462 On ch=1 n=f#4 v=0
276468 On ch=1 n=c5 v=0
276482 Par ch=1 c=64 v=0
276500 On ch=1 n=g#5 v=56
276514 On ch=1 n=a5 v=0
276572 On ch=1 n=g#5 v=0
276600 On ch=1 n=e4 v=45
276602 On ch=1 n=g#5 v=53
276608 On ch=1 n=g#4 v=0
276650 Par ch=1 c=64 v=127
276800 On ch=1 n=d#6 v=0
276824 On ch=1 n=d#6 v=53
276828 On ch=1 n=c#5 v=48
276946 Par ch=1 c=64 v=0
276998 On ch=1 n=e4 v=0
277038 On ch=1 n=c#5 v=0
277048 On ch=1 n=d#6 v=0
277064 On ch=1 n=c#6 v=54
277068 On ch=1 n=g#4 v=45
277082 Par ch=1 c=64 v=127
277218 Par ch=1 c=64 v=0
277262 On ch=1 n=g#5 v=0
277278 On ch=1 n=g#3 v=46
277288 On ch=1 n=g#4 v=0
277296 On ch=1 n=c6 v=53
277328 On ch=1 n=d#4 v=26
277362 On ch=1 n=c#6 v=0
277370 Par ch=1 c=64 v=127
277462 On ch=1 n=g#3 v=0
277572 On ch=1 n=g5 v=40
277582 On ch=1 n=c5 v=44
277626 On ch=1 n=d#4 v=0
277686 On ch=1 n=g#5 v=28
277732 On ch=1 n=g5 v=0
277752 Par ch=1 c=64 v=0
277780 On ch=1 n=g#4 v=28
277782 On ch=1 n=b5 v=37
277806 On ch=1 n=g#5 v=0
277840 On ch=1 n=c5 v=0
277854 On ch=1 n=a5 v=41
277896 Par ch=1 c=64 v=127
277908 Par ch=1 c=64 v=0
277920 On ch=1 n=b5 v=0
277942 On ch=1 n=g#5 v=48
277952 On ch=1 n=a5 v=0
277974 On ch=1 n=g#4 v=0
277998 On ch=1 n=g#5 v=0
278020 On ch=1 n=e4 v=36
278038 On ch=1 n=g#5 v=47
278070 Par ch=1 c=64 v=127
278260 On ch=1 n=c#5 v=31
278278 On ch=1 n=f#6 v=46
278306 On ch=1 n=c6 v=0
278340 On ch=1 n=e4 v=0
278436 Par ch=1 c=64 v=0
278474 On ch=1 n=c#5 v=0
278486 On ch=1 n=f#6 v=0
278504 On ch=1 n=e6 v=46
278520 On ch=1 n=g#4 v=45
278578 Par ch=1 c=64 v=127
278750 Par ch=1 c=64 v=0
278792 On ch=1 n=e6 v=0
278794 On ch=1 n=d#6 v=44
278804 On ch=1 n=b3 v=33
278810 On ch=1 n=g#5 v=0
278834 On ch=1 n=g#4 v=0
278898 Par ch=1 c=64 v=127
279110 On ch=1 n=a#5 v=44
279128 On ch=1 n=f#4 v=22
279246 On ch=1 n=b5 v=45
279250 On ch=1 n=b3 v=0
279258 On ch=1 n=a#5 v=0
279282 Par ch=1 c=64 v=0
279364 On ch=1 n=d#6 v=0
279382 On ch=1 n=d#6 v=34
279426 On ch=1 n=b5 v=0
279430 On ch=1 n=a4 v=34
279438 Par ch=1 c=64 v=127
279518 On ch=1 n=c#6 v=34
279562 On ch=1 n=d#6 v=0
279636 On ch=1 n=b5 v=40
279662 Par ch=1 c=64 v=0
279682 On ch=1 n=c#6 v=0
279730 On ch=1 n=b5 v=0
279752 On ch=1 n=d#5 v=37
279764 On ch=1 n=b5 v=52
279824 Par ch=1 c=64 v=127
280076 On ch=1 n=e6 v=37
280200 Par ch=1 c=64 v=0
280334 Par ch=1 c=64 v=127
280410 On ch=1 n=b5 v=0
280536 On ch=1 n=f#6 v=39
280554 On ch=1 n=e6 v=0
280564 On ch=1 n=a4 v=0
280654 On ch=1 n=f#4 v=0
280664 On ch=1 n=d#5 v=0
281072 On ch=1 n=g#5 v=57
281072 On ch=1 n=e4 v=55
281106 On ch=1 n=f#6 v=0
281148 On ch=1 n=b5 v=57
281180 On ch=1 n=g#5 v=0
281240 On ch=1 n=e6 v=57
281254 On ch=1 n=b4 v=45
281256 On ch=1 n=e5 v=34
281268 On ch=1 n=b5 v=0
281330 On ch=1 n=g#6 v=57
281366 On ch=1 n=e6 v=0
281394 On ch=1 n=e4 v=0
281410 On ch=1 n=f#6 v=57
281416 On ch=1 n=g#4 v=46
281456 On ch=1 n=g#6 v=0
281464 On ch=1 n=b4 v=0
281478 Par ch=1 c=64 v=0
281492 On ch=1 n=e6 v=57
281530 On ch=1 n=g#4 v=0
281556 Par ch=1 c=64 v=127
281560 On ch=1 n=d#4 v=64
281578 On ch=1 n=g#6 v=57
281590 On ch=1 n=e6 v=0
281604 On ch=1 n=e5 v=0
281608 On ch=1 n=f#6 v=0
281668 On ch=1 n=b6 v=57
281696 On ch=1 n=g#6 v=0
281736 On ch=1 n=e5 v=51
281752 On ch=1 n=b4 v=55
281760 On ch=1 n=e7 v=57
281794 On ch=1 n=b6 v=0
281840 On ch=1 n=g#7 v=57
281848 On ch=1 n=e7 v=0
281912 On ch=1 n=d#4 v=0
281920 On ch=1 n=f#7 v=57
281928 On ch=1 n=g#4 v=49
281958 On ch=1 n=g#7 v=0
281972 On ch=1 n=b4 v=0
281982 Par ch=1 c=64 v=0
281990 On ch=1 n=e7 v=57
282032 On ch=1 n=f#7 v=0
282042 On ch=1 n=g#4 v=0
282064 Par ch=1 c=64 v=127
282076 On ch=1 n=e7 v=0
282076 On ch=1 n=b6 v=57
282088 On ch=1 n=c#4 v=60
282132 On ch=1 n=b6 v=0
282140 On ch=1 n=e5 v=0
282166 On ch=1 n=g#6 v=57
282248 On ch=1 n=b4 v=44
282252 On ch=1 n=g#6 v=0
282258 On ch=1 n=f#6 v=57
282262 On ch=1 n=e5 v=43
282334 On ch=1 n=f#6 v=0
282344 On ch=1 n=e6 v=57
282398 On ch=1 n=g#4 v=51
282404 On ch=1 n=b5 v=57
282428 On ch=1 n=b4 v=0
282440 On ch=1 n=e6 v=0
282440 On ch=1 n=c#4 v=0
282464 On ch=1 n=b5 v=0
282492 On ch=1 n=g#5 v=57
282494 Par ch=1 c=64 v=0
282512 On ch=1 n=g#4 v=0
282554 On ch=1 n=b3 v=56
282564 On ch=1 n=f#5 v=57
282578 Par ch=1 c=64 v=127
282596 On ch=1 n=g#5 v=0
282606 On ch=1 n=e5 v=0
282640 On ch=1 n=e5 v=60
282668 On ch=1 n=f#5 v=0
282738 On ch=1 n=e5 v=0
282744 On ch=1 n=b4 v=60
282830 On ch=1 n=g#5 v=57
282880 On ch=1 n=b4 v=0
282896 On ch=1 n=f#5 v=57
282906 On ch=1 n=b3 v=0
282934 On ch=1 n=g#5 v=0
282984 On ch=1 n=e5 v=57
282984 Par ch=1 c=64 v=0
283010 On ch=1 n=f#5 v=0
283068 Par ch=1 c=64 v=127
283080 On ch=1 n=c#5 v=57
283080 On ch=1 n=a3 v=65
283088 On ch=1 n=e5 v=0
283152 On ch=1 n=e5 v=57
283200 On ch=1 n=c#5 v=0
283222 On ch=1 n=e5 v=0
283256 On ch=1 n=f#5 v=57
283264 On ch=1 n=e5 v=50
283264 On ch=1 n=c#5 v=52
283328 On ch=1 n=a5 v=57
283342 On ch=1 n=f#5 v=0
283388 On ch=1 n=c#5 v=0
283394 On ch=1 n=f#4 v=40
283400 On ch=1 n=c#6 v=57
283432 On ch=1 n=a3 v=0
283442 On ch=1 n=e5 v=0
283472 On ch=1 n=e6 v=57
283508 On ch=1 n=c#6 v=0
283514 On ch=1 n=a5 v=0
283536 On ch=1 n=f#3 v=66
283552 On ch=1 n=f#6 v=57
283572 On ch=1 n=f#4 v=0
283586 On ch=1 n=e6 v=0
283632 On ch=1 n=a6 v=57
283642 On ch=1 n=f#6 v=0
283736 On ch=1 n=e5 v=57
283736 On ch=1 n=c#5 v=53
283744 On ch=1 n=c#7 v=57
283772 On ch=1 n=a6 v=0
283824 On ch=1 n=e7 v=57
283836 On ch=1 n=c#7 v=0
283888 On ch=1 n=f#3 v=0
283896 On ch=1 n=f#7 v=57
283896 On ch=1 n=f#4 v=68
283914 On ch=1 n=c#5 v=0
283914 On ch=1 n=e5 v=0
283932 On ch=1 n=e7 v=0
283952 On ch=1 n=a7 v=57
284016 On ch=1 n=f#7 v=0
284028 On ch=1 n=g#7 v=57
284038 On ch=1 n=b3 v=67
284072 On ch=1 n=a7 v=0
284074 On ch=1 n=f#4 v=0
284102 Par ch=1 c=64 v=0
284112 On ch=1 n=f#7 v=57
284148 On ch=1 n=g#7 v=0
284166 Par ch=1 c=64 v=127
284184 On ch=1 n=d#7 v=57
284184 On ch=1 n=b4 v=47
284194 On ch=1 n=d#5 v=55
284218 On ch=1 n=f#7 v=0
284262 On ch=1 n=a6 v=57
284264 On ch=1 n=d#7 v=0
284332 On ch=1 n=a6 v=0
284344 On ch=1 n=f#4 v=56
284352 On ch=1 n=g#6 v=57
284390 On ch=1 n=b3 v=0
284418 Par ch=1 c=64 v=0
284434 On ch=1 n=f#4 v=0
284440 On ch=1 n=f#6 v=57
284456 On ch=1 n=g#6 v=0
284494 On ch=1 n=d#6 v=57
284500 Par ch=1 c=64 v=127
284508 On ch=1 n=g#4 v=34
284544 On ch=1 n=f#6 v=0
284592 On ch=1 n=b5 v=57
284598 On ch=1 n=g#4 v=0
284606 On ch=1 n=d#6 v=0
284658 On ch=1 n=f#4 v=56
284672 On ch=1 n=d#6 v=57
284718 On ch=1 n=b5 v=0
284734 On ch=1 n=c#6 v=57
284782 On ch=1 n=d#6 v=0
284782 On ch=1 n=f#4 v=0
284830 On ch=1 n=b5 v=57
284840 On ch=1 n=g#4 v=52
284874 On ch=1 n=c#6 v=0
284896 Par ch=1 c=64 v=0
284910 On ch=1 n=a5 v=57
284916 On ch=1 n=b5 v=0
284984 On ch=1 n=e4 v=58
284984 Par ch=1 c=64 v=127
284990 On ch=1 n=g#4 v=0
285000 On ch=1 n=g#5 v=57
285006 On ch=1 n=a5 v=0
285068 On ch=1 n=b4 v=0
285072 On ch=1 n=b5 v=57
285078 On ch=1 n=d#5 v=0
285102 On ch=1 n=g#5 v=0
285160 On ch=1 n=e6 v=57
285176 On ch=1 n=e5 v=30
285176 On ch=1 n=b4 v=50
285200 On ch=1 n=b5 v=0
285234 On ch=1 n=g#6 v=57
285248 On ch=1 n=e6 v=0
285304 On ch=1 n=g#4 v=50
285320 On ch=1 n=f#6 v=57
285336 On ch=1 n=e4 v=0
285352 On ch=1 n=g#6 v=0
285396 On ch=1 n=b4 v=0
285398 On ch=1 n=e6 v=57
285398 Par ch=1 c=64 v=0
285448 On ch=1 n=g#4 v=0
285486 On ch=1 n=g#6 v=57
285486 Par ch=1 c=64 v=127
285492 On ch=1 n=e5 v=0
285496 On ch=1 n=e6 v=0
285496 On ch=1 n=d#4 v=65
285512 On ch=1 n=f#6 v=0
285562 On ch=1 n=b6 v=57
285584 On ch=1 n=g#6 v=0
285640 On ch=1 n=e5 v=44
285642 On ch=1 n=e7 v=57
285656 On ch=1 n=b4 v=51
285688 On ch=1 n=b6 v=0
285724 On ch=1 n=g#7 v=57
285742 Par ch=1 c=64 v=0
285752 On ch=1 n=e7 v=0
285776 Par ch=1 c=64 v=127
285806 On ch=1 n=f#7 v=57
285816 On ch=1 n=g#4 v=53
285838 On ch=1 n=g#7 v=0
285848 On ch=1 n=d#4 v=0
285876 On ch=1 n=b4 v=0
285880 Par ch=1 c=64 v=0
285888 On ch=1 n=e7 v=57
285908 On ch=1 n=f#7 v=0
285928 On ch=1 n=e5 v=0
285948 On ch=1 n=b6 v=57
285948 Par ch=1 c=64 v=127
285950 On ch=1 n=g#4 v=0
285970 On ch=1 n=c#4 v=63
285972 On ch=1 n=e7 v=0
286042 On ch=1 n=g#6 v=57
286046 On ch=1 n=b6 v=0
286104 On ch=1 n=e5 v=48
286120 On ch=1 n=f#6 v=57
286124 On ch=1 n=b4 v=51
286146 On ch=1 n=g#6 v=0
286198 On ch=1 n=e6 v=57
286212 On ch=1 n=f#6 v=0
286256 On ch=1 n=e6 v=0
286272 On ch=1 n=b5 v=57
286272 On ch=1 n=g#4 v=58
286300 On ch=1 n=b4 v=0
286322 On ch=1 n=c#4 v=0
286332 On ch=1 n=b5 v=0
286360 On ch=1 n=g#5 v=57
286386 Par ch=1 c=64 v=0
286408 On ch=1 n=e5 v=0
286408 On ch=1 n=b3 v=54
286420 On ch=1 n=f#5 v=57
286430 On ch=1 n=g#4 v=0
286436 On ch=1 n=g#5 v=0
286458 Par ch=1 c=64 v=127
286496 On ch=1 n=e5 v=61
286530 On ch=1 n=f#5 v=0
286586 On ch=1 n=b4 v=66
286594 On ch=1 n=e5 v=0
286664 On ch=1 n=g#5 v=75
286710 On ch=1 n=b4 v=0
286734 On ch=1 n=f#5 v=72
286760 On ch=1 n=b3 v=0
286770 On ch=1 n=g#5 v=0
286828 On ch=1 n=e5 v=42
286838 On ch=1 n=f#5 v=0
286860 Par ch=1 c=64 v=0
286898 On ch=1 n=a3 v=63
286904 On ch=1 n=e5 v=0
286904 On ch=1 n=c#5 v=73
286948 Par ch=1 c=64 v=127
286960 On ch=1 n=e5 v=63
286976 On ch=1 n=c#5 v=0
287032 On ch=1 n=e5 v=0
287040 On ch=1 n=e5 v=53
287048 On ch=1 n=c#5 v=53
287056 On ch=1 n=f#5 v=75
287120 On ch=1 n=a5 v=57
287154 On ch=1 n=f#5 v=0
287218 On ch=1 n=e5 v=0
287220 On ch=1 n=c#6 v=57
287226 On ch=1 n=c#5 v=0
287240 On ch=1 n=f#4 v=40
287250 On ch=1 n=a3 v=0
287294 On ch=1 n=a5 v=0
287312 On ch=1 n=e6 v=57
287330 On ch=1 n=c#6 v=0
287392 On ch=1 n=f#3 v=68
287416 On ch=1 n=f#6 v=57
287418 On ch=1 n=f#4 v=0
287426 On ch=1 n=e6 v=0
287472 On ch=1 n=a6 v=57
287530 On ch=1 n=f#6 v=0
287536 On ch=1 n=c#5 v=52
287544 On ch=1 n=e5 v=53
287554 On ch=1 n=c#7 v=57
287618 On ch=1 n=e7 v=57
287628 On ch=1 n=a6 v=0
287656 On ch=1 n=c#7 v=0
287658 Par ch=1 c=64 v=0
287680 On ch=1 n=f#7 v=57
287684 On ch=1 n=f#4 v=63
287714 On ch=1 n=c#5 v=0
287726 On ch=1 n=e5 v=0
287736 Par ch=1 c=64 v=127
287744 On ch=1 n=f#3 v=0
287750 On ch=1 n=e7 v=0
287760 On ch=1 n=a7 v=57
287768 On ch=1 n=f#7 v=0
287834 On ch=1 n=b3 v=69
287848 On ch=1 n=g#7 v=57
287862 On ch=1 n=f#4 v=0
287908 On ch=1 n=a7 v=0
287914 On ch=1 n=f#7 v=57
287958 On ch=1 n=g#7 v=0
287990 On ch=1 n=d#7 v=57
287992 On ch=1 n=b4 v=45
288000 On ch=1 n=d#5 v=53
288024 On ch=1 n=f#7 v=0
288058 On ch=1 n=a6 v=57
288062 On ch=1 n=d#7 v=0
288090 Par ch=1 c=64 v=0
288136 On ch=1 n=a6 v=0
288138 On ch=1 n=f#4 v=54
288152 On ch=1 n=g#6 v=57
288160 Par ch=1 c=64 v=127
288166 On ch=1 n=b4 v=0
288186 On ch=1 n=b3 v=0
288220 On ch=1 n=f#6 v=57
288248 On ch=1 n=g#6 v=0
288252 On ch=1 n=f#4 v=0
288290 On ch=1 n=d#6 v=57
288298 On ch=1 n=g#4 v=37
288322 On ch=1 n=f#6 v=0
288364 On ch=1 n=b5 v=57
288380 On ch=1 n=d#6 v=0
288412 On ch=1 n=g#4 v=0
288444 On ch=1 n=f#4 v=54
288452 On ch=1 n=d#6 v=57
288500 On ch=1 n=b5 v=0
288524 On ch=1 n=c#6 v=57
288566 On ch=1 n=d#6 v=0
288566 On ch=1 n=f#4 v=0
288590 On ch=1 n=g#4 v=26
288604 On ch=1 n=b5 v=57
288616 On ch=1 n=d#5 v=0
288646 On ch=1 n=c#6 v=0
288678 On ch=1 n=a5 v=57
288684 Par ch=1 c=64 v=0
288694 On ch=1 n=b5 v=0
288740 On ch=1 n=g#4 v=0
288758 On ch=1 n=e4 v=61
288770 On ch=1 n=g#5 v=57
288780 On ch=1 n=a5 v=0
288784 Par ch=1 c=64 v=127
288858 On ch=1 n=b5 v=57
288866 On ch=1 n=g#5 v=0
288952 On ch=1 n=e5 v=40
288956 On ch=1 n=b4 v=33
288960 On ch=1 n=e6 v=57
289004 On ch=1 n=b5 v=0
289040 On ch=1 n=g#6 v=57
289070 On ch=1 n=e6 v=0
289104 On ch=1 n=f#6 v=57
289108 On ch=1 n=g#4 v=56
289110 On ch=1 n=e4 v=0
289132 On ch=1 n=g#6 v=0
289162 On ch=1 n=e6 v=57
289176 On ch=1 n=b4 v=0
289228 On ch=1 n=g#4 v=0
289230 On ch=1 n=b3 v=58
289248 On ch=1 n=g#6 v=57
289268 On ch=1 n=e5 v=0
289270 On ch=1 n=e6 v=0
289286 On ch=1 n=f#6 v=0
289344 On ch=1 n=b6 v=57
289346 On ch=1 n=g#6 v=0
289406 On ch=1 n=e7 v=57
289416 On ch=1 n=e5 v=60
289416 On ch=1 n=b4 v=45
289448 On ch=1 n=b6 v=0
289476 On ch=1 n=g#7 v=57
289512 On ch=1 n=e7 v=0
289548 On ch=1 n=f#7 v=57
289582 On ch=1 n=b3 v=0
289584 On ch=1 n=g#7 v=0
289610 On ch=1 n=e7 v=57
289612 On ch=1 n=g#4 v=56
289652 On ch=1 n=f#7 v=0
289672 On ch=1 n=a3 v=95
289678 Par ch=1 c=64 v=0
289688 On ch=1 n=a4 v=79
289700 On ch=1 n=e7 v=0
289700 On ch=1 n=c7 v=57
289732 On ch=1 n=g#4 v=0
289732 On ch=1 n=b4 v=0
289732 On ch=1 n=e5 v=0
289772 Par ch=1 c=64 v=127
289786 On ch=1 n=a3 v=0
289788 On ch=1 n=a6 v=57
289802 On ch=1 n=a4 v=0
289804 On ch=1 n=c7 v=0
289830 On ch=1 n=c5 v=95
289850 On ch=1 n=c4 v=51
289876 On ch=1 n=f#6 v=57
289928 On ch=1 n=a6 v=0
289940 On ch=1 n=e6 v=57
289992 On ch=1 n=f#6 v=0
290010 On ch=1 n=c6 v=57
290036 On ch=1 n=e6 v=0
290078 On ch=1 n=a5 v=57
290116 On ch=1 n=c6 v=0
290138 On ch=1 n=f#5 v=57
290182 On ch=1 n=c5 v=0
290202 On ch=1 n=c4 v=0
290202 On ch=1 n=e5 v=57
290222 On ch=1 n=a5 v=0
290254 On ch=1 n=f#5 v=0
290268 On ch=1 n=c5 v=57
290278 On ch=1 n=e5 v=0
290366 On ch=1 n=a4 v=57
290390 On ch=1 n=c5 v=0
290438 On ch=1 n=f#4 v=57
290504 On ch=1 n=a4 v=0
290512 On ch=1 n=e4 v=57
290560 On ch=1 n=f#4 v=0
290600 On ch=1 n=g#4 v=65
290600 On ch=1 n=e3 v=75
290608 On ch=1 n=e4 v=0
290684 On ch=1 n=b4 v=65
290722 On ch=1 n=g#4 v=0
290778 On ch=1 n=e5 v=65
290784 On ch=1 n=e4 v=46
290816 On ch=1 n=b4 v=0
290850 On ch=1 n=g#5 v=65
290868 On ch=1 n=e5 v=0
290896 On ch=1 n=b3 v=39
290912 On ch=1 n=f#5 v=65
290952 On ch=1 n=e3 v=0
290964 On ch=1 n=g#5 v=0
290990 On ch=1 n=e5 v=65
291010 On ch=1 n=b3 v=0
291056 On ch=1 n=b2 v=72
291082 On ch=1 n=g#5 v=65
291100 On ch=1 n=e4 v=0
291104 On ch=1 n=e5 v=0
291106 Par ch=1 c=64 v=0
291122 On ch=1 n=f#5 v=0
291168 On ch=1 n=b5 v=65
291180 Par ch=1 c=64 v=127
291184 On ch=1 n=g#5 v=0
291242 On ch=1 n=e6 v=65
291248 On ch=1 n=e4 v=75
291296 On ch=1 n=b5 v=0
291324 On ch=1 n=g#6 v=65
291356 On ch=1 n=e6 v=0
291360 On ch=1 n=b3 v=78
291384 On ch=1 n=f#6 v=65
291408 On ch=1 n=b2 v=0
291444 On ch=1 n=e6 v=65
291456 On ch=1 n=g#6 v=0
291474 On ch=1 n=b3 v=0
291474 Par ch=1 c=64 v=0
291494 On ch=1 n=f#6 v=0
291524 On ch=1 n=c6 v=65
291524 On ch=1 n=a3 v=94
291536 On ch=1 n=a2 v=95
291550 On ch=1 n=e6 v=0
291564 On ch=1 n=e4 v=0
291568 Par ch=1 c=64 v=127
291594 On ch=1 n=c6 v=0
291636 On ch=1 n=a5 v=65
291638 On ch=1 n=a3 v=0
291650 On ch=1 n=a2 v=0
291696 On ch=1 n=c3 v=77
291702 On ch=1 n=c4 v=95
291714 On ch=1 n=f#5 v=65
291770 On ch=1 n=e5 v=65
291782 On ch=1 n=a5 v=0
291848 On ch=1 n=c5 v=65
291860 On ch=1 n=f#5 v=0
291884 On ch=1 n=e5 v=0
291924 On ch=1 n=a4 v=65
291966 On ch=1 n=c5 v=0
291972 On ch=1 n=f#4 v=65
292040 On ch=1 n=e4 v=66
292048 On ch=1 n=c3 v=0
292054 On ch=1 n=c4 v=0
292066 On ch=1 n=a4 v=0
292088 On ch=1 n=f#4 v=0
292124 On ch=1 n=c4 v=66
292140 On ch=1 n=e4 v=0
292214 On ch=1 n=c4 v=0
292228 On ch=1 n=a3 v=68
292288 On ch=1 n=f#3 v=68
292400 On ch=1 n=e3 v=70
292424 On ch=1 n=a3 v=0
292428 On ch=1 n=f#3 v=0
292488 On ch=1 n=e3 v=0
292512 On ch=1 n=e2 v=106
292530 Par ch=1 c=64 v=0
292570 Par ch=1 c=64 v=0
292640 Par ch=1 c=64 v=127
292680 Par ch=1 c=64 v=127
292860 On ch=1 n=b3 v=69
292932 On ch=1 n=e4 v=71
293010 On ch=1 n=a4 v=72
293038 On ch=1 n=b3 v=0
293074 On ch=1 n=g#4 v=74
293110 On ch=1 n=e4 v=0
293164 On ch=1 n=b4 v=63
293168 On ch=1 n=a4 v=0
293236 On ch=1 n=e5 v=77
293252 On ch=1 n=g#4 v=0
293296 On ch=1 n=a5 v=78
293342 On ch=1 n=b4 v=0
293384 On ch=1 n=g#5 v=80
293414 On ch=1 n=e5 v=0
293436 On ch=1 n=a5 v=0
293492 On ch=1 n=b5 v=69
293544 Par ch=1 c=64 v=0
293562 On ch=1 n=g#5 v=0
293568 On ch=1 n=e6 v=84
293584 Par ch=1 c=64 v=0
293628 Par ch=1 c=64 v=127
293634 On ch=1 n=e4 v=85
293658 On ch=1 n=b4 v=85
293668 Par ch=1 c=64 v=127
293670 On ch=1 n=b5 v=0
293686 On ch=1 n=a6 v=86
293692 On ch=1 n=e6 v=86
293700 On ch=1 n=g#5 v=87
293746 On ch=1 n=e6 v=0
293754 On ch=1 n=g#6 v=87
293768 On ch=1 n=e6 v=0
293820 On ch=1 n=b6 v=75
293844 On ch=1 n=a6 v=0
293892 On ch=1 n=e7 v=90
293896 On ch=1 n=e2 v=0
293932 On ch=1 n=g#6 v=0
293994 On ch=1 n=a7 v=95
293998 On ch=1 n=b6 v=0
294070 On ch=1 n=e7 v=0
294072 On ch=1 n=g#7 v=94
294130 On ch=1 n=e7 v=95
294152 On ch=1 n=a7 v=0
294200 On ch=1 n=b6 v=95
294250 On ch=1 n=g#7 v=0
294270 On ch=1 n=a6 v=66
294308 On ch=1 n=e7 v=0
294344 On ch=1 n=g#6 v=78
294378 On ch=1 n=b6 v=0
294390 On ch=1 n=b4 v=0
294400 On ch=1 n=g#5 v=0
294414 On ch=1 n=e4 v=0
294428 On ch=1 n=a6 v=0
294440 On ch=1 n=e6 v=78
294522 On ch=1 n=g#6 v=0
294522 On ch=1 n=b5 v=78
294610 On ch=1 n=a5 v=66
294618 On ch=1 n=e6 v=0
294696 On ch=1 n=g#5 v=78
294700 On ch=1 n=b5 v=0
294760 On ch=1 n=e5 v=78
294768 On ch=1 n=a5 v=0
294848 On ch=1 n=b4 v=78
294874 On ch=1 n=g#5 v=0
294920 On ch=1 n=a4 v=66
294938 On ch=1 n=e5 v=0
295000 On ch=1 n=g#4 v=78
295026 On ch=1 n=b4 v=0
295072 On ch=1 n=e4 v=78
295078 On ch=1 n=a4 v=0
295156 On ch=1 n=b3 v=78
295178 On ch=1 n=g#4 v=0
295238 On ch=1 n=a3 v=66
295250 On ch=1 n=e4 v=0
295308 On ch=1 n=g#3 v=78
295334 On ch=1 n=b3 v=0
295382 On ch=1 n=e3 v=78
295396 On ch=1 n=a3 v=0
295468 On ch=1 n=b2 v=78
295486 On ch=1 n=g#3 v=0
295534 Par ch=1 c=64 v=0
295560 On ch=1 n=e3 v=0
295574 Par ch=1 c=64 v=0
295598 On ch=1 n=e2 v=95
295646 On ch=1 n=b2 v=0
296484 On ch=1 n=e2 v=0
296730 Par ch=1 c=64 v=0
296796 On ch=1 n=d3 v=95
296800 On ch=1 n=d2 v=82
296840 Par ch=1 c=64 v=127
297020 On ch=1 n=b3 v=69
297092 On ch=1 n=f4 v=71
297170 On ch=1 n=a4 v=72
297198 On ch=1 n=b3 v=0
297234 On ch=1 n=g#4 v=74
297270 On ch=1 n=f4 v=0
297324 On ch=1 n=b4 v=63
297328 On ch=1 n=a4 v=0
297396 On ch=1 n=f5 v=77
297412 On ch=1 n=g#4 v=0
297456 On ch=1 n=a5 v=78
297502 On ch=1 n=b4 v=0
297544 On ch=1 n=g#5 v=80
297574 On ch=1 n=f5 v=0
297596 On ch=1 n=a5 v=0
297652 On ch=1 n=b5 v=69
297722 On ch=1 n=g#5 v=0
297728 On ch=1 n=f6 v=84
297744 Par ch=1 c=64 v=0
297794 On ch=1 n=d4 v=85
297808 On ch=1 n=b4 v=60
297818 On ch=1 n=g#4 v=85
297828 Par ch=1 c=64 v=127
297830 On ch=1 n=b5 v=0
297846 On ch=1 n=a6 v=86
297860 On ch=1 n=f5 v=87
297906 On ch=1 n=f6 v=0
297914 On ch=1 n=g#6 v=87
297980 On ch=1 n=b6 v=75
298004 On ch=1 n=a6 v=0
298052 On ch=1 n=f7 v=90
298092 On ch=1 n=g#6 v=0
298154 On ch=1 n=a7 v=95
298158 On ch=1 n=b6 v=0
298180 On ch=1 n=d3 v=0
298184 On ch=1 n=d2 v=0
298230 On ch=1 n=f7 v=0
298232 On ch=1 n=g#7 v=94
298290 On ch=1 n=f7 v=95
298312 On ch=1 n=a7 v=0
298360 On ch=1 n=b6 v=95
298410 On ch=1 n=g#7 v=0
298430 On ch=1 n=a6 v=66
298468 On ch=1 n=f7 v=0
298504 On ch=1 n=g#6 v=78
298538 On ch=1 n=b6 v=0
298540 On ch=1 n=b4 v=0
298550 On ch=1 n=g#4 v=0
298560 On ch=1 n=f5 v=0
298574 On ch=1 n=d4 v=0
298588 On ch=1 n=a6 v=0
298600 On ch=1 n=f6 v=78
298682 On ch=1 n=g#6 v=0
298682 On ch=1 n=b5 v=78
298770 On ch=1 n=a5 v=66
298778 On ch=1 n=f6 v=0
298856 On ch=1 n=g#5 v=78
298860 On ch=1 n=b5 v=0
298920 On ch=1 n=f5 v=78
298928 On ch=1 n=a5 v=0
299008 On ch=1 n=b4 v=78
299034 On ch=1 n=g#5 v=0
299080 On ch=1 n=a4 v=66
299098 On ch=1 n=f5 v=0
299160 On ch=1 n=g#4 v=78
299186 On ch=1 n=b4 v=0
299232 On ch=1 n=f4 v=78
299238 On ch=1 n=a4 v=0
299316 On ch=1 n=b3 v=78
299338 On ch=1 n=g#4 v=0
299398 On ch=1 n=a3 v=66
299410 On ch=1 n=f4 v=0
299468 On ch=1 n=g#3 v=78
299494 On ch=1 n=b3 v=0
299542 On ch=1 n=f3 v=78
299556 On ch=1 n=a3 v=0
299628 On ch=1 n=b2 v=78
299646 On ch=1 n=g#3 v=0
299720 On ch=1 n=f3 v=0
299734 Par ch=1 c=64 v=0
299758 On ch=1 n=d2 v=95
299806 On ch=1 n=b2 v=0
300464 On ch=1 n=d2 v=0
300924 On ch=1 n=c#2 v=93
300928 On ch=1 n=c#3 v=95
300950 Par ch=1 c=64 v=127
301190 On ch=1 n=c#2 v=0
301212 On ch=1 n=c#3 v=0
301216 On ch=1 n=a#5 v=79
301344 On ch=1 n=g#5 v=73
301346 On ch=1 n=a#5 v=0
301408 On ch=1 n=b5 v=91
301480 On ch=1 n=g#5 v=0
301504 On ch=1 n=f6 v=95
301550 On ch=1 n=b5 v=0
301590 On ch=1 n=g#3 v=86
301596 On ch=1 n=a#6 v=83
301604 On ch=1 n=g#4 v=83
301640 On ch=1 n=f6 v=0
301690 On ch=1 n=g#6 v=95
301732 On ch=1 n=a#6 v=0
301780 On ch=1 n=g#3 v=0
301792 On ch=1 n=d#5 v=93
301794 On ch=1 n=g#4 v=0
301796 On ch=1 n=b6 v=95
301804 On ch=1 n=d#4 v=80
301826 On ch=1 n=g#6 v=0
301892 On ch=1 n=f7 v=72
301930 On ch=1 n=b6 v=0
301982 On ch=1 n=d#5 v=0
301986 On ch=1 n=a#7 v=80
301994 On ch=1 n=d#4 v=0
301996 On ch=1 n=c#5 v=95
301996 On ch=1 n=c#4 v=93
302020 On ch=1 n=f7 v=0
302094 On ch=1 n=g#7 v=84
302108 Par ch=1 c=64 v=0
302124 On ch=1 n=a#7 v=0
302166 On ch=1 n=c#4 v=0
302166 On ch=1 n=c#5 v=0
302192 On ch=1 n=c#5 v=95
302200 On ch=1 n=g#7 v=0
302200 On ch=1 n=c#4 v=93
302200 Par ch=1 c=64 v=127
302212 On ch=1 n=a#6 v=95
302308 On ch=1 n=e7 v=93
302348 On ch=1 n=a#6 v=0
302398 On ch=1 n=g#7 v=82
302420 On ch=1 n=e7 v=0
302484 On ch=1 n=g7 v=86
302496 On ch=1 n=g#7 v=0
302560 On ch=1 n=c#5 v=0
302568 On ch=1 n=c#4 v=0
302596 On ch=1 n=e7 v=75
302616 On ch=1 n=g7 v=0
302672 On ch=1 n=a#6 v=95
302756 On ch=1 n=c#4 v=72
302760 On ch=1 n=e7 v=0
302764 On ch=1 n=g#6 v=94
302770 On ch=1 n=c#3 v=63
302820 On ch=1 n=a#6 v=0
302850 On ch=1 n=g6 v=76
302882 On ch=1 n=g#6 v=0
302948 On ch=1 n=e6 v=72
302976 On ch=1 n=g6 v=0
303024 On ch=1 n=a#5 v=81
303080 On ch=1 n=e6 v=0
303116 On ch=1 n=c#4 v=0
303118 On ch=1 n=g#5 v=83
303130 On ch=1 n=c#3 v=0
303164 On ch=1 n=a#5 v=0
303228 On ch=1 n=g5 v=84
303234 On ch=1 n=g#5 v=0
303272 Par ch=1 c=64 v=0
303336 On ch=1 n=g5 v=0
303342 On ch=1 n=c#3 v=80
303342 On ch=1 n=c#2 v=84
303348 On ch=1 n=a4 v=91
303372 Par ch=1 c=64 v=127
303428 On ch=1 n=d#5 v=95
303508 On ch=1 n=a4 v=0
303524 On ch=1 n=g#5 v=87
303588 On ch=1 n=d#5 v=0
303624 On ch=1 n=f#5 v=95
303668 On ch=1 n=g#5 v=0
303710 On ch=1 n=c#2 v=0
303710 On ch=1 n=c#3 v=0
303712 On ch=1 n=a5 v=90
303760 On ch=1 n=f#5 v=0
303802 On ch=1 n=d#6 v=95
303838 On ch=1 n=a5 v=0
303884 On ch=1 n=g#6 v=77
303894 On ch=1 n=f#3 v=63
303900 On ch=1 n=f#4 v=63
303946 On ch=1 n=d#6 v=0
303984 On ch=1 n=f#6 v=95
304022 On ch=1 n=g#6 v=0
304084 On ch=1 n=f#3 v=0
304090 On ch=1 n=f#4 v=0
304090 On ch=1 n=d#5 v=80
304096 On ch=1 n=d#4 v=70
304098 On ch=1 n=a6 v=95
304120 On ch=1 n=f#6 v=0
304168 On ch=1 n=d#7 v=95
304224 On ch=1 n=a6 v=0
304266 On ch=1 n=g#7 v=80
304266 On ch=1 n=c#5 v=80
304266 On ch=1 n=c#4 v=76
304280 On ch=1 n=d#5 v=0
304286 On ch=1 n=d#4 v=0
304292 On ch=1 n=d#7 v=0
304366 On ch=1 n=f#7 v=94
304376 Par ch=1 c=64 v=0
304398 On ch=1 n=g#7 v=0
304416 On ch=1 n=c#4 v=0
304416 On ch=1 n=c#5 v=0
304444 On ch=1 n=c#5 v=77
304452 On ch=1 n=c#4 v=76
304454 Par ch=1 c=64 v=127
304464 On ch=1 n=g#6 v=95
304518 On ch=1 n=f#7 v=0
304576 On ch=1 n=c#7 v=95
304584 On ch=1 n=g#6 v=0
304632 On ch=1 n=g3 v=73
304634 On ch=1 n=c#5 v=0
304640 On ch=1 n=g2 v=77
304642 On ch=1 n=c#4 v=0
304658 On ch=1 n=f#7 v=81
304732 On ch=1 n=c#7 v=0
304740 On ch=1 n=f7 v=78
304764 On ch=1 n=f#7 v=0
304822 On ch=1 n=g3 v=0
304830 On ch=1 n=g2 v=0
304830 On ch=1 n=g#2 v=79
304836 On ch=1 n=g#3 v=80
304846 On ch=1 n=c#7 v=72
304866 On ch=1 n=f7 v=0
304912 On ch=1 n=g#6 v=91
304956 On ch=1 n=c#7 v=0
304980 On ch=1 n=g#2 v=0
304986 On ch=1 n=g#3 v=0
305016 On ch=1 n=g#2 v=77
305020 On ch=1 n=g#3 v=80
305022 On ch=1 n=g#6 v=0
305028 On ch=1 n=f#6 v=90
305124 On ch=1 n=f6 v=71
305130 On ch=1 n=f#6 v=0
305206 On ch=1 n=g#2 v=0
305208 On ch=1 n=d#3 v=79
305210 On ch=1 n=g#3 v=0
305220 On ch=1 n=d#4 v=80
305226 On ch=1 n=c#6 v=68
305244 On ch=1 n=f6 v=0
305298 On ch=1 n=g#5 v=95
305362 On ch=1 n=c#6 v=0
305378 On ch=1 n=d#3 v=0
305388 On ch=1 n=c#4 v=80
305388 On ch=1 n=c#3 v=80
305390 On ch=1 n=d#4 v=0
305400 On ch=1 n=f#5 v=91
305430 On ch=1 n=g#5 v=0
305504 On ch=1 n=f5 v=88
305532 On ch=1 n=f#5 v=0
305578 On ch=1 n=c#3 v=0
305578 On ch=1 n=c#4 v=0
305590 Par ch=1 c=64 v=0
305612 On ch=1 n=f5 v=0
305652 On ch=1 n=d4 v=90
305654 On ch=1 n=c5 v=95
305654 On ch=1 n=d3 v=88
305676 Par ch=1 c=64 v=127
305750 On ch=1 n=f#5 v=94
305840 On ch=1 n=c5 v=0
305864 On ch=1 n=b5 v=87
305892 On ch=1 n=f#5 v=0
305950 On ch=1 n=a5 v=75
305990 On ch=1 n=b5 v=0
306020 On ch=1 n=d4 v=0
306022 On ch=1 n=d3 v=0
306068 On ch=1 n=c6 v=95
306094 On ch=1 n=a5 v=0
306168 On ch=1 n=f#6 v=95
306220 On ch=1 n=c6 v=0
306254 On ch=1 n=b6 v=81
306264 On ch=1 n=a3 v=80
306268 On ch=1 n=a4 v=80
306296 On ch=1 n=f#6 v=0
306336 On ch=1 n=a6 v=83
306372 On ch=1 n=b6 v=0
306436 On ch=1 n=c7 v=94
306454 On ch=1 n=a3 v=0
306458 On ch=1 n=a4 v=0
306468 On ch=1 n=e5 v=95
306480 On ch=1 n=e4 v=75
306492 On ch=1 n=a6 v=0
306532 On ch=1 n=f#7 v=94
306568 On ch=1 n=c7 v=0
306632 On ch=1 n=b7 v=80
306644 On ch=1 n=d5 v=87
306650 On ch=1 n=d4 v=88
306652 On ch=1 n=f#7 v=0
306658 On ch=1 n=e5 v=0
306670 On ch=1 n=e4 v=0
306702 On ch=1 n=a7 v=77
306734 Par ch=1 c=64 v=0
306764 On ch=1 n=b7 v=0
306794 On ch=1 n=d5 v=0
306800 On ch=1 n=d4 v=0
306822 On ch=1 n=d5 v=82
306824 On ch=1 n=d4 v=88
306824 Par ch=1 c=64 v=127
306840 On ch=1 n=a7 v=0
306840 On ch=1 n=b6 v=95
306920 On ch=1 n=f7 v=94
307004 On ch=1 n=b6 v=0
307016 On ch=1 n=a7 v=87
307034 On ch=1 n=f7 v=0
307112 On ch=1 n=g#7 v=88
307168 On ch=1 n=a7 v=0
307190 On ch=1 n=d5 v=0
307192 On ch=1 n=d4 v=0
307204 On ch=1 n=f7 v=83
307240 On ch=1 n=g#7 v=0
307292 On ch=1 n=b6 v=95
307364 On ch=1 n=f7 v=0
307392 On ch=1 n=a6 v=94
307404 On ch=1 n=d4 v=88
307404 On ch=1 n=d3 v=80
307436 On ch=1 n=b6 v=0
307500 On ch=1 n=g#6 v=95
307528 On ch=1 n=a6 v=0
307576 On ch=1 n=f6 v=75
307652 On ch=1 n=g#6 v=0
307676 On ch=1 n=b5 v=91
307704 On ch=1 n=d3 v=0
307712 On ch=1 n=f6 v=0
307760 On ch=1 n=a5 v=90
307778 On ch=1 n=d4 v=0
307828 On ch=1 n=b5 v=0
307856 On ch=1 n=g#5 v=95
307874 Par ch=1 c=64 v=0
307882 On ch=1 n=a5 v=0
307962 Par ch=1 c=64 v=127
307974 On ch=1 n=d3 v=88
307974 On ch=1 n=d2 v=81
307988 On ch=1 n=a#4 v=95
308020 On ch=1 n=g#5 v=0
308058 On ch=1 n=e5 v=78
308114 On ch=1 n=a#4 v=0
308168 On ch=1 n=a5 v=77
308232 On ch=1 n=e5 v=0
308260 On ch=1 n=g5 v=87
308282 On ch=1 n=a5 v=0
308342 On ch=1 n=d2 v=0
308342 On ch=1 n=d3 v=0
308376 On ch=1 n=a#5 v=95
308404 On ch=1 n=g5 v=0
308464 On ch=1 n=e6 v=95
308536 On ch=1 n=a#5 v=0
308536 On ch=1 n=g3 v=63
308548 On ch=1 n=g4 v=56
308570 On ch=1 n=a6 v=86
308608 On ch=1 n=e6 v=0
308656 On ch=1 n=g6 v=83
308674 On ch=1 n=a6 v=0
308726 On ch=1 n=g3 v=0
308738 On ch=1 n=g4 v=0
308750 On ch=1 n=e5 v=80
308760 On ch=1 n=e4 v=62
308764 On ch=1 n=a#6 v=95
308804 On ch=1 n=g6 v=0
308844 On ch=1 n=e7 v=76
308886 On ch=1 n=a#6 v=0
308940 On ch=1 n=e5 v=0
308940 On ch=1 n=a7 v=68
308944 On ch=1 n=d5 v=79
308950 On ch=1 n=e4 v=0
308952 On ch=1 n=d4 v=73
308956 On ch=1 n=e7 v=0
309040 On ch=1 n=g7 v=80
309040 Par ch=1 c=64 v=0
309088 On ch=1 n=a7 v=0
309094 On ch=1 n=d5 v=0
309102 On ch=1 n=d4 v=0
309128 Par ch=1 c=64 v=127
309136 On ch=1 n=d5 v=79
309136 On ch=1 n=d4 v=76
309154 On ch=1 n=a6 v=95
309170 On ch=1 n=g7 v=0
309242 On ch=1 n=d7 v=90
309298 On ch=1 n=a6 v=0
309316 On ch=1 n=g7 v=87
309320 On ch=1 n=c#3 v=80
309326 On ch=1 n=d4 v=0
309326 On ch=1 n=d5 v=0
309328 On ch=1 n=c#4 v=80
309374 On ch=1 n=d7 v=0
309430 On ch=1 n=f#7 v=88
309472 On ch=1 n=g7 v=0
309510 On ch=1 n=c#3 v=0
309518 On ch=1 n=c#4 v=0
309520 On ch=1 n=d4 v=79
309522 On ch=1 n=d3 v=80
309536 On ch=1 n=d7 v=81
309594 On ch=1 n=f#7 v=0
309630 On ch=1 n=a6 v=95
309690 On ch=1 n=d4 v=0
309692 On ch=1 n=d3 v=0
309710 On ch=1 n=d7 v=0
309744 On ch=1 n=d4 v=80
309744 On ch=1 n=d3 v=76
309746 On ch=1 n=g6 v=93
309766 On ch=1 n=a6 v=0
309852 On ch=1 n=f#6 v=81
309864 On ch=1 n=g6 v=0
309934 On ch=1 n=d3 v=0
309934 On ch=1 n=d4 v=0
309936 On ch=1 n=d6 v=79
309936 On ch=1 n=b3 v=80
309936 On ch=1 n=b2 v=80
309960 On ch=1 n=f#6 v=0
310048 On ch=1 n=a5 v=71
310080 On ch=1 n=d6 v=0
310126 On ch=1 n=b2 v=0
310126 On ch=1 n=b3 v=0
310128 On ch=1 n=g5 v=90
310128 On ch=1 n=c3 v=79
310144 On ch=1 n=c4 v=80
310174 On ch=1 n=a5 v=0
310224 On ch=1 n=f#5 v=95
310272 On ch=1 n=g5 v=0
310292 Par ch=1 c=64 v=0
310318 On ch=1 n=c3 v=0
310320 On ch=1 n=a#3 v=78
310328 On ch=1 n=d6 v=77
310328 On ch=1 n=d5 v=84
310328 On ch=1 n=a#2 v=79
310330 On ch=1 n=f#5 v=0
310334 On ch=1 n=c4 v=0
310336 On ch=1 n=g5 v=70
310374 Par ch=1 c=64 v=127
310468 On ch=1 n=d5 v=0
310468 On ch=1 n=d6 v=0
310476 On ch=1 n=g5 v=0
310546 On ch=1 n=d5 v=42
310556 On ch=1 n=c#6 v=75
310570 On ch=1 n=a#3 v=0
310578 On ch=1 n=a#2 v=0
310630 On ch=1 n=c#6 v=0
310638 On ch=1 n=d6 v=65
310708 On ch=1 n=f6 v=78
310720 On ch=1 n=g4 v=54
310720 On ch=1 n=d4 v=57
310728 On ch=1 n=d6 v=0
310766 On ch=1 n=d5 v=0
310768 On ch=1 n=d#6 v=65
310816 Par ch=1 c=64 v=0
310824 On ch=1 n=f6 v=0
310836 On ch=1 n=d6 v=65
310868 On ch=1 n=d#6 v=0
310884 On ch=1 n=d4 v=0
310884 On ch=1 n=g4 v=0
310896 On ch=1 n=d6 v=0
310916 On ch=1 n=a3 v=83
310930 On ch=1 n=d6 v=95
310934 Par ch=1 c=64 v=127
311100 On ch=1 n=f#6 v=81
311110 On ch=1 n=d7 v=72
311110 On ch=1 n=d5 v=25
311166 On ch=1 n=a3 v=0
311296 On ch=1 n=a4 v=54
311296 On ch=1 n=d4 v=29
311300 On ch=1 n=c7 v=72
311322 On ch=1 n=d7 v=0
311330 On ch=1 n=d5 v=0
311422 Par ch=1 c=64 v=0
311460 On ch=1 n=d4 v=0
311460 On ch=1 n=a4 v=0
311470 On ch=1 n=f#6 v=0
311488 On ch=1 n=g6 v=71
311490 On ch=1 n=a#6 v=79
311500 On ch=1 n=g3 v=60
311514 Par ch=1 c=64 v=127
311546 On ch=1 n=c7 v=0
311564 On ch=1 n=d6 v=0
311598 On ch=1 n=g6 v=0
311600 On ch=1 n=a#6 v=0
311672 On ch=1 n=d5 v=26
311684 On ch=1 n=c#6 v=78
311750 On ch=1 n=g3 v=0
311752 On ch=1 n=d6 v=65
311760 On ch=1 n=c#6 v=0
311824 On ch=1 n=a#4 v=54
311824 On ch=1 n=d4 v=27
311830 On ch=1 n=d6 v=0
311830 On ch=1 n=f6 v=66
311880 On ch=1 n=d#6 v=54
311892 On ch=1 n=d5 v=0
311920 On ch=1 n=f6 v=0
311956 On ch=1 n=d6 v=68
311966 On ch=1 n=d#6 v=0
311988 On ch=1 n=d4 v=0
311988 On ch=1 n=a#4 v=0
311990 On ch=1 n=d6 v=0
312004 On ch=1 n=c4 v=64
312016 On ch=1 n=d6 v=95
312018 Par ch=1 c=64 v=0
312092 Par ch=1 c=64 v=127
312216 On ch=1 n=a#5 v=73
312220 On ch=1 n=a#6 v=81
312224 On ch=1 n=d5 v=36
312424 On ch=1 n=a4 v=44
312424 On ch=1 n=f#4 v=51
312432 On ch=1 n=a5 v=75
312438 On ch=1 n=a6 v=69
312444 On ch=1 n=d5 v=0
312452 On ch=1 n=a#5 v=0
312456 On ch=1 n=a#6 v=0
312464 On ch=1 n=c4 v=0
312534 Par ch=1 c=64 v=0
312588 On ch=1 n=f#4 v=0
312588 On ch=1 n=a4 v=0
312600 On ch=1 n=g5 v=75
312608 On ch=1 n=a#3 v=75
312610 On ch=1 n=g6 v=76
312616 On ch=1 n=a5 v=0
312622 On ch=1 n=a6 v=0
312634 Par ch=1 c=64 v=127
312684 On ch=1 n=d6 v=0
312704 On ch=1 n=g5 v=0
312714 On ch=1 n=g6 v=0
312816 On ch=1 n=c#6 v=78
312816 On ch=1 n=d5 v=29
312858 On ch=1 n=a#3 v=0
312888 On ch=1 n=d6 v=65
312910 On ch=1 n=c#6 v=0
312960 On ch=1 n=f6 v=78
312960 On ch=1 n=g4 v=49
312960 On ch=1 n=d4 v=34
312974 On ch=1 n=d6 v=0
313000 On ch=1 n=d#6 v=65
313036 On ch=1 n=d5 v=0
313046 On ch=1 n=f6 v=0
313054 Par ch=1 c=64 v=0
313072 On ch=1 n=d6 v=81
313088 On ch=1 n=d#6 v=0
313124 On ch=1 n=d6 v=0
313124 On ch=1 n=d4 v=0
313124 On ch=1 n=g4 v=0
313148 On ch=1 n=a3 v=60
313152 Par ch=1 c=64 v=127
313164 On ch=1 n=d6 v=87
313332 On ch=1 n=f#6 v=77
313340 On ch=1 n=d7 v=69
313352 On ch=1 n=d5 v=39
313398 On ch=1 n=a3 v=0
313536 On ch=1 n=a4 v=43
313544 On ch=1 n=c7 v=70
313546 On ch=1 n=d4 v=57
313560 On ch=1 n=d7 v=0
313572 On ch=1 n=d5 v=0
313656 Par ch=1 c=64 v=0
313700 On ch=1 n=a4 v=0
313702 On ch=1 n=f#6 v=0
313710 On ch=1 n=d4 v=0
313712 On ch=1 n=g6 v=71
313718 On ch=1 n=a#6 v=71
313722 On ch=1 n=c7 v=0
313722 On ch=1 n=g3 v=62
313742 Par ch=1 c=64 v=127
313786 On ch=1 n=d6 v=0
313790 On ch=1 n=g6 v=0
313796 On ch=1 n=a#6 v=0
313944 On ch=1 n=f#5 v=78
313946 On ch=1 n=d5 v=33
313972 On ch=1 n=g3 v=0
314016 On ch=1 n=g5 v=65
314046 On ch=1 n=f#5 v=0
314088 On ch=1 n=a#5 v=78
314088 On ch=1 n=g4 v=51
314092 On ch=1 n=g5 v=0
314144 On ch=1 n=g#5 v=65
314148 On ch=1 n=d5 v=0
314192 Par ch=1 c=64 v=0
314200 On ch=1 n=g5 v=81
314220 On ch=1 n=a#5 v=0
314248 On ch=1 n=g#5 v=0
314252 On ch=1 n=g4 v=0
314262 On ch=1 n=g5 v=0
314278 On ch=1 n=b3 v=65
314296 On ch=1 n=g5 v=87
314298 Par ch=1 c=64 v=127
314488 On ch=1 n=d6 v=49
314488 On ch=1 n=d5 v=42
314496 On ch=1 n=g6 v=75
314586 On ch=1 n=b3 v=0
314666 On ch=1 n=f6 v=69
314676 On ch=1 n=g6 v=0
314678 On ch=1 n=g4 v=42
314708 On ch=1 n=d5 v=0
314790 Par ch=1 c=64 v=0
314828 On ch=1 n=f6 v=0
314842 On ch=1 n=g4 v=0
314848 On ch=1 n=c6 v=59
314852 On ch=1 n=c4 v=66
314854 On ch=1 n=d#6 v=76
314858 On ch=1 n=d6 v=0
314876 Par ch=1 c=64 v=127
314914 On ch=1 n=c6 v=0
314920 On ch=1 n=d#6 v=0
314932 On ch=1 n=g5 v=0
315064 On ch=1 n=f#6 v=78
315068 On ch=1 n=d#5 v=45
315102 On ch=1 n=c4 v=0
315142 On ch=1 n=g6 v=65
315180 On ch=1 n=f#6 v=0
315192 On ch=1 n=g4 v=43
315200 On ch=1 n=a#6 v=65
315232 On ch=1 n=g6 v=0
315256 On ch=1 n=g#6 v=65
315288 On ch=1 n=d#5 v=0
315324 On ch=1 n=g6 v=65
315330 On ch=1 n=a#6 v=0
315346 On ch=1 n=g#6 v=0
315346 On ch=1 n=g4 v=0
315348 Par ch=1 c=64 v=0
315392 On ch=1 n=g6 v=0
315404 On ch=1 n=d4 v=73
315418 On ch=1 n=g6 v=95
315432 Par ch=1 c=64 v=127
315588 On ch=1 n=b6 v=60
315596 On ch=1 n=g7 v=71
315606 On ch=1 n=f5 v=37
315654 On ch=1 n=d4 v=0
315776 On ch=1 n=g4 v=54
315784 On ch=1 n=f7 v=70
315788 On ch=1 n=b4 v=56
315824 On ch=1 n=g7 v=0
315826 On ch=1 n=f5 v=0
315888 Par ch=1 c=64 v=0
315940 On ch=1 n=g4 v=0
315944 On ch=1 n=d#7 v=84
315952 On ch=1 n=b4 v=0
315958 On ch=1 n=b6 v=0
315960 On ch=1 n=c7 v=60
315962 On ch=1 n=d#4 v=75
315986 Par ch=1 c=64 v=127
315992 On ch=1 n=f7 v=0
316004 On ch=1 n=g6 v=0
316022 On ch=1 n=d#7 v=0
316038 On ch=1 n=c7 v=0
316136 On ch=1 n=g5 v=35
316142 On ch=1 n=f#6 v=78
316212 On ch=1 n=d#4 v=0
316238 On ch=1 n=f#6 v=0
316244 On ch=1 n=g6 v=65
316336 On ch=1 n=a#6 v=65
316336 On ch=1 n=c5 v=21
316336 On ch=1 n=g4 v=54
316356 On ch=1 n=g6 v=0
316356 On ch=1 n=g5 v=0
316400 On ch=1 n=g#6 v=65
316424 On ch=1 n=a#6 v=0
316444 Par ch=1 c=64 v=0
316464 On ch=1 n=g6 v=65
316478 On ch=1 n=g#6 v=0
316500 On ch=1 n=g4 v=0
316500 On ch=1 n=c5 v=0
316508 On ch=1 n=g6 v=0
316528 On ch=1 n=f4 v=66
316528 Par ch=1 c=64 v=127
316548 On ch=1 n=g6 v=88
316720 On ch=1 n=g5 v=40
316730 On ch=1 n=d#6 v=64
316734 On ch=1 n=d#7 v=75
316922 On ch=1 n=d7 v=58
316932 On ch=1 n=d6 v=59
316940 On ch=1 n=g5 v=0
316944 On ch=1 n=d#6 v=0
316946 On ch=1 n=b4 v=51
316946 On ch=1 n=g4 v=54
316948 On ch=1 n=d#7 v=0
316988 On ch=1 n=f4 v=0
317086 Par ch=1 c=64 v=0
317110 On ch=1 n=g4 v=0
317110 On ch=1 n=b4 v=0
317112 Par ch=1 c=64 v=127
317122 On ch=1 n=d7 v=0
317124 On ch=1 n=c7 v=67
317124 On ch=1 n=d#4 v=82
317132 On ch=1 n=d6 v=0
317140 On ch=1 n=c6 v=77
317158 On ch=1 n=g6 v=0
317176 On ch=1 n=c7 v=0
317184 On ch=1 n=c6 v=0
317328 On ch=1 n=d#5 v=32
317334 On ch=1 n=f#5 v=78
317412 On ch=1 n=f#5 v=0
317428 On ch=1 n=g5 v=65
317500 On ch=1 n=g5 v=0
317504 On ch=1 n=a#5 v=65
317504 On ch=1 n=c5 v=38
317504 On ch=1 n=g4 v=60
317548 On ch=1 n=d#5 v=0
317552 On ch=1 n=g#5 v=65
317584 On ch=1 n=d#4 v=0
317590 Par ch=1 c=64 v=0
317600 On ch=1 n=g5 v=65
317630 On ch=1 n=a#5 v=0
317664 On ch=1 n=g5 v=0
317668 On ch=1 n=g#5 v=0
317668 On ch=1 n=g4 v=0
317668 On ch=1 n=c5 v=0
317674 On ch=1 n=d4 v=72
317692 On ch=1 n=g5 v=86
317692 Par ch=1 c=64 v=127
317864 On ch=1 n=b5 v=52
317864 On ch=1 n=d5 v=36
317870 On ch=1 n=g6 v=70
318054 On ch=1 n=f6 v=75
318054 On ch=1 n=g4 v=54
318058 On ch=1 n=g6 v=0
318070 On ch=1 n=d5 v=0
318134 On ch=1 n=d4 v=0
318158 Par ch=1 c=64 v=0
318218 On ch=1 n=g4 v=0
318232 On ch=1 n=d#6 v=84
318232 On ch=1 n=c6 v=60
318232 On ch=1 n=c4 v=75
318234 On ch=1 n=b5 v=0
318254 Par ch=1 c=64 v=127
318260 On ch=1 n=f6 v=0
318294 On ch=1 n=g5 v=0
318316 On ch=1 n=c6 v=0
318316 On ch=1 n=d#6 v=0
318432 On ch=1 n=c5 v=45
318436 On ch=1 n=d5 v=78
318512 On ch=1 n=d#5 v=65
318584 On ch=1 n=d5 v=0
318586 On ch=1 n=d#5 v=0
318592 On ch=1 n=g5 v=65
318592 On ch=1 n=g4 v=48
318592 On ch=1 n=d#4 v=41
318648 On ch=1 n=f5 v=65
318652 On ch=1 n=c5 v=0
318682 On ch=1 n=g5 v=0
318692 On ch=1 n=c4 v=0
318710 On ch=1 n=d#5 v=65
318714 Par ch=1 c=64 v=0
318748 On ch=1 n=f5 v=0
318756 On ch=1 n=d#4 v=0
318756 On ch=1 n=g4 v=0
318760 On ch=1 n=d#5 v=0
318784 On ch=1 n=d#5 v=93
318796 On ch=1 n=a#3 v=81
318800 Par ch=1 c=64 v=127
318980 On ch=1 n=c#5 v=48
318992 On ch=1 n=d#6 v=70
318992 On ch=1 n=g5 v=69
319144 On ch=1 n=c#6 v=71
319144 On ch=1 n=g4 v=33
319144 On ch=1 n=d#4 v=35
319154 On ch=1 n=d#6 v=0
319200 On ch=1 n=c#5 v=0
319256 On ch=1 n=a#3 v=0
319268 Par ch=1 c=64 v=0
319308 On ch=1 n=d#4 v=0
319308 On ch=1 n=g4 v=0
319330 On ch=1 n=g5 v=0
319330 On ch=1 n=b5 v=72
319330 On ch=1 n=g#5 v=72
319330 On ch=1 n=g#3 v=77
319332 On ch=1 n=c#6 v=0
319354 Par ch=1 c=64 v=127
319374 On ch=1 n=d#5 v=0
319388 On ch=1 n=g#5 v=0
319388 On ch=1 n=b5 v=0
319512 On ch=1 n=d6 v=78
319520 On ch=1 n=b4 v=42
319580 On ch=1 n=g#3 v=0
319584 On ch=1 n=d#6 v=65
319624 On ch=1 n=d6 v=0
319656 On ch=1 n=g#4 v=54
319656 On ch=1 n=d#4 v=42
319672 On ch=1 n=f#6 v=65
319676 On ch=1 n=d#6 v=0
319728 On ch=1 n=e6 v=65
319740 On ch=1 n=b4 v=0
319778 Par ch=1 c=64 v=0
319798 On ch=1 n=f#6 v=0
319800 On ch=1 n=d#6 v=65
319820 On ch=1 n=g#4 v=0
319826 On ch=1 n=e6 v=0
319844 On ch=1 n=d#6 v=0
319848 On ch=1 n=g3 v=69
319850 On ch=1 n=d#6 v=93
319856 On ch=1 n=d#4 v=0
319866 Par ch=1 c=64 v=127
320032 On ch=1 n=a#6 v=65
320032 On ch=1 n=d#5 v=40
320034 On ch=1 n=d#7 v=70
320098 On ch=1 n=g3 v=0
320224 On ch=1 n=c#7 v=70
320234 On ch=1 n=d#4 v=46
320238 On ch=1 n=d#5 v=0
320238 On ch=1 n=a#4 v=49
320284 On ch=1 n=d#7 v=0
320332 Par ch=1 c=64 v=0
320362 On ch=1 n=a#6 v=0
320392 On ch=1 n=g#6 v=60
320396 On ch=1 n=b6 v=75
320398 On ch=1 n=d#4 v=0
320400 On ch=1 n=c#7 v=0
320402 On ch=1 n=a#4 v=0
320410 On ch=1 n=g#3 v=81
320430 Par ch=1 c=64 v=127
320458 On ch=1 n=d#6 v=0
320480 On ch=1 n=g#6 v=0
320484 On ch=1 n=b6 v=0
320568 On ch=1 n=d#5 v=41
320580 On ch=1 n=d6 v=78
320638 On ch=1 n=d#6 v=65
320660 On ch=1 n=g#3 v=0
320704 On ch=1 n=d6 v=0
320722 On ch=1 n=f#6 v=65
320728 On ch=1 n=b4 v=41
320728 On ch=1 n=g#4 v=54
320728 On ch=1 n=d#4 v=42
320756 On ch=1 n=d#6 v=0
320768 On ch=1 n=e6 v=65
320788 On ch=1 n=d#5 v=0
320820 On ch=1 n=f#6 v=0
320844 On ch=1 n=d#6 v=65
320864 Par ch=1 c=64 v=0
320872 On ch=1 n=e6 v=0
320892 On ch=1 n=d#4 v=0
320892 On ch=1 n=g#4 v=0
320892 On ch=1 n=b4 v=0
320922 On ch=1 n=d#6 v=0
320936 On ch=1 n=d#6 v=78
320940 Par ch=1 c=64 v=127
320960 On ch=1 n=a#3 v=75
321120 On ch=1 n=d#5 v=39
321128 On ch=1 n=b6 v=75
321128 On ch=1 n=b5 v=75
321210 On ch=1 n=a#3 v=0
321272 On ch=1 n=d#4 v=27
321280 On ch=1 n=c#5 v=54
321280 On ch=1 n=g4 v=32
321296 On ch=1 n=a#6 v=70
321298 On ch=1 n=a#5 v=78
321304 On ch=1 n=b5 v=0
321304 On ch=1 n=b6 v=0
321340 On ch=1 n=d#5 v=0
321424 Par ch=1 c=64 v=0
321436 On ch=1 n=d#4 v=0
321444 On ch=1 n=g4 v=0
321444 On ch=1 n=c#5 v=0
321470 On ch=1 n=a#6 v=0
321470 On ch=1 n=b3 v=67
321472 On ch=1 n=a#5 v=0
321476 On ch=1 n=g#6 v=76
321476 On ch=1 n=g#5 v=81
321506 On ch=1 n=d#6 v=0
321510 Par ch=1 c=64 v=127
321570 On ch=1 n=g#5 v=0
321570 On ch=1 n=g#6 v=0
321672 On ch=1 n=d6 v=78
321672 On ch=1 n=d#5 v=48
321720 On ch=1 n=b3 v=0
321732 On ch=1 n=d#6 v=65
321788 On ch=1 n=d6 v=0
321804 On ch=1 n=g#4 v=42
321808 On ch=1 n=b4 v=21
321816 On ch=1 n=f#6 v=65
321816 On ch=1 n=d#4 v=42
321880 On ch=1 n=e6 v=65
321892 On ch=1 n=d#5 v=0
321896 On ch=1 n=f#6 v=0
321900 On ch=1 n=d#6 v=0
321904 Par ch=1 c=64 v=0
321936 On ch=1 n=e6 v=0
321936 On ch=1 n=d#6 v=65
321968 On ch=1 n=g#4 v=0
321972 On ch=1 n=b4 v=0
321980 On ch=1 n=d#4 v=0
321982 On ch=1 n=d#6 v=0
321984 Par ch=1 c=64 v=127
321992 On ch=1 n=g3 v=76
322004 On ch=1 n=d#6 v=94
322176 On ch=1 n=d#7 v=71
322178 On ch=1 n=d#5 v=53
322188 On ch=1 n=a#6 v=69
322242 On ch=1 n=g3 v=0
322342 On ch=1 n=d#7 v=0
322342 On ch=1 n=c#7 v=68
322352 On ch=1 n=a#4 v=54
322356 On ch=1 n=a#6 v=83
322356 On ch=1 n=d#4 v=54
322378 On ch=1 n=d#5 v=0
322408 On ch=1 n=a#6 v=0
322424 On ch=1 n=a#6 v=0
322500 Par ch=1 c=64 v=0
322516 On ch=1 n=a#4 v=0
322520 On ch=1 n=d#4 v=0
322528 On ch=1 n=b6 v=75
322528 On ch=1 n=g#6 v=73
322540 On ch=1 n=c#7 v=0
322544 On ch=1 n=g#3 v=82
322548 Par ch=1 c=64 v=127
322580 On ch=1 n=d#6 v=0
322656 On ch=1 n=g#6 v=0
322656 On ch=1 n=b6 v=0
322728 On ch=1 n=d#5 v=54
322732 On ch=1 n=d6 v=78
322794 On ch=1 n=g#3 v=0
322830 On ch=1 n=d#6 v=65
322850 On ch=1 n=d6 v=0
322896 On ch=1 n=b4 v=43
322896 On ch=1 n=g#4 v=54
322896 On ch=1 n=d#4 v=30
322904 On ch=1 n=f#6 v=65
322910 On ch=1 n=d#6 v=0
322948 On ch=1 n=d#5 v=0
322960 On ch=1 n=e6 v=65
323010 Par ch=1 c=64 v=0
323020 On ch=1 n=f#6 v=0
323024 On ch=1 n=d#6 v=65
323054 On ch=1 n=e6 v=0
323060 On ch=1 n=d#4 v=0
323060 On ch=1 n=g#4 v=0
323060 On ch=1 n=b4 v=0
323076 On ch=1 n=d#6 v=0
323088 On ch=1 n=d#6 v=87
323090 Par ch=1 c=64 v=127
323112 On ch=1 n=a#3 v=79
323280 On ch=1 n=b6 v=72
323288 On ch=1 n=b5 v=71
323288 On ch=1 n=d#5 v=57
323362 On ch=1 n=a#3 v=0
323464 On ch=1 n=a#5 v=88
323464 On ch=1 n=c#5 v=57
323464 On ch=1 n=g4 v=27
323472 On ch=1 n=d#4 v=44
323476 On ch=1 n=a#6 v=78
323494 On ch=1 n=d#5 v=0
323496 On ch=1 n=b6 v=0
323504 On ch=1 n=b5 v=0
323628 On ch=1 n=g4 v=0
323628 On ch=1 n=c#5 v=0
323636 On ch=1 n=d#4 v=0
323740 Par ch=1 c=64 v=0
323758 On ch=1 n=d#6 v=0
323768 On ch=1 n=g#5 v=93
323768 On ch=1 n=b3 v=73
323774 On ch=1 n=a#5 v=0
323776 On ch=1 n=e6 v=78
323782 On ch=1 n=g#6 v=81
323786 On ch=1 n=a#6 v=0
323792 On ch=1 n=b2 v=71
323814 Par ch=1 c=64 v=127
323970 On ch=1 n=g#5 v=0
323978 On ch=1 n=e6 v=0
323984 On ch=1 n=g#6 v=0
324148 On ch=1 n=g#4 v=80
324156 On ch=1 n=e5 v=73
324278 On ch=1 n=b6 v=90
324296 On ch=1 n=b3 v=0
324320 On ch=1 n=b2 v=0
324338 Par ch=1 c=64 v=127
324356 On ch=1 n=e5 v=0
324358 On ch=1 n=b5 v=61
324368 On ch=1 n=g#7 v=81
324368 On ch=1 n=b4 v=76
324410 On ch=1 n=g#4 v=0
324426 On ch=1 n=b6 v=0
324544 On ch=1 n=f#7 v=81
324582 On ch=1 n=b4 v=0
324596 On ch=1 n=g#7 v=0
324658 On ch=1 n=e7 v=81
324696 On ch=1 n=f#7 v=0
324736 On ch=1 n=b6 v=81
324736 On ch=1 n=e5 v=56
324740 On ch=1 n=b5 v=0
324744 On ch=1 n=g#4 v=73
324772 On ch=1 n=e7 v=0
324816 On ch=1 n=g#6 v=81
324856 On ch=1 n=b6 v=0
324892 On ch=1 n=f#6 v=87
324900 On ch=1 n=g#6 v=0
324902 On ch=1 n=b5 v=48
324902 On ch=1 n=b4 v=69
324936 On ch=1 n=e5 v=0
324972 On ch=1 n=g#4 v=0
324996 On ch=1 n=e6 v=82
325018 On ch=1 n=f#6 v=0
325052 On ch=1 n=b5 v=0
325084 On ch=1 n=b5 v=85
325102 On ch=1 n=b4 v=0
325116 On ch=1 n=e6 v=0
325172 On ch=1 n=g#5 v=88
325190 On ch=1 n=b5 v=0
325252 On ch=1 n=f#5 v=90
325286 On ch=1 n=g#5 v=0
325314 On ch=1 n=e5 v=92
325414 On ch=1 n=b4 v=95
325418 On ch=1 n=f#5 v=0
325438 On ch=1 n=e5 v=0
325556 On ch=1 n=b4 v=0
325832 Par ch=1 c=64 v=0
325964 On ch=1 n=d#6 v=63
325968 On ch=1 n=b2 v=72
325986 On ch=1 n=b3 v=55
326006 Par ch=1 c=64 v=127
326044 On ch=1 n=d#6 v=0
326060 On ch=1 n=e6 v=54
326136 On ch=1 n=f#6 v=63
326162 On ch=1 n=e6 v=0
326218 On ch=1 n=b2 v=0
326236 On ch=1 n=b3 v=0
326236 On ch=1 n=g#6 v=66
326242 On ch=1 n=f#6 v=0
326308 On ch=1 n=g#6 v=0
326316 On ch=1 n=a6 v=64
326384 On ch=1 n=b6 v=75
326424 On ch=1 n=a6 v=0
326448 On ch=1 n=f#5 v=57
326448 On ch=1 n=c5 v=48
326448 On ch=1 n=a4 v=53
326450 On ch=1 n=d#5 v=54
326456 On ch=1 n=c7 v=72
326492 On ch=1 n=b6 v=0
326536 On ch=1 n=a4 v=0
326536 On ch=1 n=c5 v=0
326536 On ch=1 n=f#5 v=0
326538 On ch=1 n=d#5 v=0
326600 On ch=1 n=c7 v=0
326624 On ch=1 n=g#5 v=69
326624 On ch=1 n=d#5 v=53
326624 On ch=1 n=c5 v=48
326624 On ch=1 n=a4 v=51
326680 On ch=1 n=a4 v=0
326684 On ch=1 n=c5 v=0
326688 On ch=1 n=d#5 v=0
326688 On ch=1 n=g#5 v=0
326784 On ch=1 n=d#5 v=60
326784 On ch=1 n=c5 v=48
326784 On ch=1 n=a4 v=53
326788 On ch=1 n=f#5 v=64
326844 On ch=1 n=c5 v=0
326854 On ch=1 n=d#5 v=0
326856 On ch=1 n=f#5 v=0
326866 On ch=1 n=a4 v=0
326944 On ch=1 n=c5 v=46
326952 On ch=1 n=f#5 v=63
326952 On ch=1 n=a4 v=57
326958 On ch=1 n=d#5 v=61
326966 On ch=1 n=c7 v=70
327026 On ch=1 n=b6 v=66
327064 On ch=1 n=c7 v=0
327072 On ch=1 n=c5 v=0
327080 On ch=1 n=a4 v=0
327080 On ch=1 n=f#5 v=0
327086 On ch=1 n=d#5 v=0
327102 On ch=1 n=a6 v=72
327108 On ch=1 n=b6 v=0
327182 On ch=1 n=a6 v=0
327186 On ch=1 n=g#6 v=75
327266 On ch=1 n=f#6 v=72
327304 On ch=1 n=g#6 v=0
327356 On ch=1 n=f#6 v=0
327358 On ch=1 n=e6 v=75
327426 On ch=1 n=b3 v=60
327426 On ch=1 n=b2 v=75
327436 On ch=1 n=d#6 v=75
327460 On ch=1 n=e6 v=0
327594 On ch=1 n=d#6 v=0
327598 On ch=1 n=a2 v=85
327600 On ch=1 n=a3 v=66
327604 On ch=1 n=b2 v=0
327604 On ch=1 n=b3 v=0
327758 On ch=1 n=a2 v=0
327758 On ch=1 n=c4 v=71
327760 On ch=1 n=a3 v=0
327764 On ch=1 n=c3 v=60
327852 Par ch=1 c=64 v=0
327888 On ch=1 n=b2 v=69
327908 On ch=1 n=c4 v=0
327912 On ch=1 n=g#6 v=87
327914 On ch=1 n=c3 v=0
327916 On ch=1 n=b3 v=93
327946 On ch=1 n=g#7 v=95
327950 Par ch=1 c=64 v=127
327986 On ch=1 n=g#6 v=0
328110 On ch=1 n=e5 v=62
328112 On ch=1 n=g#4 v=66
328138 On ch=1 n=b2 v=0
328166 On ch=1 n=b3 v=0
328260 On ch=1 n=e5 v=0
328262 On ch=1 n=g#4 v=0
328268 On ch=1 n=e5 v=63
328272 On ch=1 n=g#4 v=71
328430 On ch=1 n=b4 v=62
328436 On ch=1 n=b5 v=68
328438 On ch=1 n=e5 v=0
328442 On ch=1 n=g#4 v=0
328552 On ch=1 n=b5 v=0
328556 On ch=1 n=b4 v=0
328616 On ch=1 n=f#7 v=81
328692 On ch=1 n=g#7 v=0
328704 On ch=1 n=e7 v=81
328704 On ch=1 n=e5 v=53
328704 On ch=1 n=g#4 v=56
328766 On ch=1 n=f#7 v=0
328790 On ch=1 n=g#4 v=0
328792 On ch=1 n=e5 v=0
328792 On ch=1 n=b6 v=81
328800 On ch=1 n=e5 v=74
328800 On ch=1 n=g#4 v=64
328802 On ch=1 n=e7 v=0
328908 On ch=1 n=g#6 v=80
328922 On ch=1 n=b6 v=0
328970 On ch=1 n=g#4 v=0
328970 On ch=1 n=e5 v=0
328982 On ch=1 n=f#6 v=79
328992 On ch=1 n=b5 v=68
328992 On ch=1 n=b4 v=61
329024 On ch=1 n=g#6 v=0
329072 On ch=1 n=e6 v=81
329108 On ch=1 n=f#6 v=0
329128 On ch=1 n=b5 v=0
329162 On ch=1 n=b4 v=0
329172 On ch=1 n=b5 v=84
329200 On ch=1 n=e6 v=0
329264 On ch=1 n=g#5 v=86
329292 On ch=1 n=b5 v=0
329336 On ch=1 n=f#5 v=89
329368 On ch=1 n=g#5 v=0
329412 On ch=1 n=e5 v=91
329460 On ch=1 n=f#5 v=0
329512 On ch=1 n=b4 v=94
329524 On ch=1 n=e5 v=0
329662 On ch=1 n=b4 v=0
329910 Par ch=1 c=64 v=0
329994 On ch=1 n=d3 v=56
330004 On ch=1 n=f6 v=76
330004 On ch=1 n=d4 v=56
330040 Par ch=1 c=64 v=127
330086 On ch=1 n=f#6 v=69
330122 On ch=1 n=f6 v=0
330180 On ch=1 n=g#6 v=74
330206 On ch=1 n=f#6 v=0
330232 On ch=1 n=g#6 v=0
330244 On ch=1 n=d3 v=0
330254 On ch=1 n=d4 v=0
330260 On ch=1 n=a6 v=73
330356 On ch=1 n=b6 v=60
330374 On ch=1 n=a6 v=0
330404 On ch=1 n=c#7 v=67
330460 On ch=1 n=b6 v=0
330464 On ch=1 n=g#5 v=57
330464 On ch=1 n=f#5 v=39
330464 On ch=1 n=b4 v=48
330468 On ch=1 n=d7 v=72
330538 On ch=1 n=c#7 v=0
330636 On ch=1 n=d7 v=0
330636 On ch=1 n=b4 v=0
330636 On ch=1 n=f#5 v=0
330636 On ch=1 n=g#5 v=0
330648 On ch=1 n=f#5 v=54
330656 On ch=1 n=b4 v=48
330658 On ch=1 n=a5 v=36
330736 Par ch=1 c=64 v=0
330804 On ch=1 n=f#5 v=0
330812 On ch=1 n=b4 v=0
330814 On ch=1 n=a5 v=0
330824 On ch=1 n=g#5 v=67
330824 On ch=1 n=f#5 v=48
330824 On ch=1 n=b4 v=54
330826 Par ch=1 c=64 v=127
330920 On ch=1 n=b4 v=0
330920 On ch=1 n=f#5 v=0
330920 On ch=1 n=g#5 v=0
330976 On ch=1 n=f5 v=50
330976 On ch=1 n=b4 v=64
330986 On ch=1 n=g#5 v=54
331014 On ch=1 n=d7 v=71
331100 On ch=1 n=c#7 v=74
331186 On ch=1 n=d7 v=0
331200 On ch=1 n=b6 v=78
331230 On ch=1 n=b4 v=0
331230 On ch=1 n=f5 v=0
331240 On ch=1 n=c#7 v=0
331240 On ch=1 n=g#5 v=0
331268 On ch=1 n=a6 v=80
331280 On ch=1 n=b6 v=0
331356 On ch=1 n=a6 v=0
331366 On ch=1 n=g#6 v=84
331438 On ch=1 n=f#6 v=87
331478 On ch=1 n=g#6 v=0
331544 On ch=1 n=d4 v=82
331554 On ch=1 n=f6 v=93
331558 On ch=1 n=d3 v=74
331572 On ch=1 n=f#6 v=0
331730 On ch=1 n=c3 v=79
331734 On ch=1 n=d4 v=0
331738 On ch=1 n=c4 v=79
331748 On ch=1 n=d3 v=0
331900 On ch=1 n=c3 v=0
331906 On ch=1 n=c#4 v=93
331906 On ch=1 n=c#3 v=88
331908 On ch=1 n=c4 v=0
331982 On ch=1 n=f6 v=0
332040 Par ch=1 c=64 v=0
332096 On ch=1 n=c#3 v=0
332096 On ch=1 n=c#4 v=0
332096 On ch=1 n=e4 v=90
332098 On ch=1 n=g6 v=85
332098 On ch=1 n=e3 v=81
332134 Par ch=1 c=64 v=127
332174 On ch=1 n=g#6 v=84
332216 On ch=1 n=g6 v=0
332260 On ch=1 n=a#6 v=84
332288 On ch=1 n=g#6 v=0
332346 On ch=1 n=e4 v=0
332348 On ch=1 n=e3 v=0
332352 On ch=1 n=c7 v=72
332416 On ch=1 n=a#6 v=0
332434 On ch=1 n=c#7 v=85
332466 On ch=1 n=c7 v=0
332500 On ch=1 n=d#7 v=100
332550 On ch=1 n=c#7 v=0
332592 On ch=1 n=a#5 v=73
332592 On ch=1 n=g#5 v=66
332592 On ch=1 n=c#5 v=78
332600 On ch=1 n=e7 v=91
332628 On ch=1 n=d#7 v=0
332702 On ch=1 n=c#5 v=0
332702 On ch=1 n=g#5 v=0
332702 On ch=1 n=a#5 v=0
332808 On ch=1 n=c#5 v=74
332816 On ch=1 n=b5 v=83
332816 On ch=1 n=g#5 v=64
332910 On ch=1 n=c#5 v=0
332918 On ch=1 n=g#5 v=0
332918 On ch=1 n=b5 v=0
332984 On ch=1 n=c#5 v=82
332992 On ch=1 n=a#5 v=77
332992 On ch=1 n=g#5 v=77
333036 On ch=1 n=e7 v=0
333074 On ch=1 n=c#5 v=0
333082 On ch=1 n=g#5 v=0
333082 On ch=1 n=a#5 v=0
333186 On ch=1 n=e7 v=83
333192 On ch=1 n=g5 v=74
333192 On ch=1 n=c#5 v=88
333194 On ch=1 n=a#5 v=88
333274 On ch=1 n=d#7 v=91
333288 On ch=1 n=c#5 v=0
333288 On ch=1 n=g5 v=0
333290 On ch=1 n=a#5 v=0
333332 On ch=1 n=e7 v=0
333354 On ch=1 n=c#7 v=76
333398 On ch=1 n=d#7 v=0
333424 On ch=1 n=c7 v=94
333448 On ch=1 n=c#7 v=0
333510 On ch=1 n=c7 v=0
333518 On ch=1 n=a#6 v=108
333590 On ch=1 n=g#6 v=96
333596 Par ch=1 c=64 v=0
333628 On ch=1 n=a#6 v=0
333656 Par ch=1 c=64 v=127
333674 On ch=1 n=g6 v=110
333674 On ch=1 n=e4 v=87
333676 On ch=1 n=e3 v=83
333710 On ch=1 n=g#6 v=0
333776 On ch=1 n=g6 v=0
333824 On ch=1 n=d3 v=101
333836 On ch=1 n=d4 v=103
333842 On ch=1 n=e4 v=0
333844 On ch=1 n=e3 v=0
333974 On ch=1 n=d3 v=0
333974 On ch=1 n=d#4 v=86
333974 On ch=1 n=d#3 v=81
333986 On ch=1 n=d4 v=0
334118 Par ch=1 c=64 v=0
334204 Par ch=1 c=64 v=127
334230 On ch=1 n=f#4 v=87
334230 On ch=1 n=f#3 v=86
334242 On ch=1 n=a6 v=93
334244 On ch=1 n=d#3 v=0
334244 On ch=1 n=d#4 v=0
334316 On ch=1 n=a#6 v=87
334328 On ch=1 n=f#3 v=0
334338 On ch=1 n=a6 v=0
334352 On ch=1 n=f#4 v=0
334396 On ch=1 n=a#6 v=0
334426 On ch=1 n=c7 v=92
334494 On ch=1 n=c#7 v=86
334516 On ch=1 n=c7 v=0
334578 On ch=1 n=a5 v=77
334582 On ch=1 n=d#7 v=87
334584 On ch=1 n=c5 v=75
334594 On ch=1 n=c#7 v=0
334652 On ch=1 n=d#7 v=0
334656 On ch=1 n=f7 v=74
334674 On ch=1 n=c5 v=0
334684 On ch=1 n=a5 v=0
334756 On ch=1 n=f#7 v=92
334768 On ch=1 n=d#5 v=67
334778 On ch=1 n=a5 v=72
334782 On ch=1 n=d#6 v=95
334788 On ch=1 n=f7 v=0
334836 On ch=1 n=f#7 v=0
334846 On ch=1 n=d#8 v=95
334904 On ch=1 n=d#5 v=0
334914 On ch=1 n=a5 v=0
334918 On ch=1 n=d#6 v=0
334920 On ch=1 n=f#7 v=83
334948 On ch=1 n=d#8 v=0
335008 On ch=1 n=f7 v=82
335012 On ch=1 n=f#7 v=0
335084 On ch=1 n=f7 v=0
335088 On ch=1 n=c5 v=83
335100 On ch=1 n=d#7 v=95
335100 On ch=1 n=a5 v=70
335178 On ch=1 n=c5 v=0
335186 On ch=1 n=c#7 v=85
335190 On ch=1 n=a5 v=0
335212 On ch=1 n=d#7 v=0
335256 On ch=1 n=d#5 v=79
335258 On ch=1 n=d#6 v=75
335262 On ch=1 n=c7 v=86
335264 On ch=1 n=a5 v=95
335274 On ch=1 n=c#7 v=0
335346 On ch=1 n=c#7 v=84
335364 On ch=1 n=c7 v=0
335392 On ch=1 n=d#5 v=0
335394 On ch=1 n=d#6 v=0
335400 On ch=1 n=a5 v=0
335486 On ch=1 n=d7 v=79
335500 On ch=1 n=c#7 v=0
335574 On ch=1 n=d#7 v=75
335578 On ch=1 n=d7 v=0
335664 On ch=1 n=e7 v=89
335664 On ch=1 n=f#5 v=95
335668 On ch=1 n=d#7 v=0
335680 On ch=1 n=f#4 v=87
335708 On ch=1 n=f#5 v=0
335738 On ch=1 n=f#4 v=0
335748 On ch=1 n=f7 v=81
335770 On ch=1 n=e7 v=0
335824 On ch=1 n=f#5 v=95
335824 On ch=1 n=f#4 v=95
335826 On ch=1 n=f#7 v=83
335862 On ch=1 n=f7 v=0
335870 On ch=1 n=f#5 v=0
335876 On ch=1 n=f#4 v=0
335952 On ch=1 n=d#8 v=74
335978 On ch=1 n=f#7 v=0
336032 On ch=1 n=f#5 v=95
336042 On ch=1 n=f#4 v=95
336048 On ch=1 n=f#7 v=89
336054 On ch=1 n=d#8 v=0
336090 On ch=1 n=f#4 v=0
336094 On ch=1 n=f#5 v=0
336184 On ch=1 n=f#7 v=0
336190 On ch=1 n=f7 v=94
336224 On ch=1 n=f#4 v=95
336240 On ch=1 n=f#5 v=90
336278 On ch=1 n=d#7 v=95
336284 On ch=1 n=f#4 v=0
336292 On ch=1 n=f7 v=0
336296 On ch=1 n=f#5 v=0
336336 On ch=1 n=c#7 v=90
336364 Par ch=1 c=64 v=0
336368 On ch=1 n=f4 v=92
336374 On ch=1 n=d#7 v=0
336408 On ch=1 n=c5 v=92
336434 On ch=1 n=d#5 v=5
336448 On ch=1 n=a5 v=95
336456 On ch=1 n=c7 v=95
336462 On ch=1 n=c#7 v=0
336488 Par ch=1 c=64 v=127
336574 On ch=1 n=c7 v=0
336620 On ch=1 n=f4 v=0
336656 On ch=1 n=c5 v=0
336694 On ch=1 n=f8 v=84
336726 On ch=1 n=d#5 v=0
336752 On ch=1 n=e8 v=84
336770 On ch=1 n=a5 v=0
336832 On ch=1 n=d#8 v=84
336838 On ch=1 n=f8 v=0
336912 On ch=1 n=c8 v=86
336914 On ch=1 n=e8 v=0
336960 On ch=1 n=d#8 v=0
336976 On ch=1 n=a7 v=87
336976 On ch=1 n=f7 v=69
337042 On ch=1 n=c8 v=0
337068 On ch=1 n=e7 v=70
337138 On ch=1 n=f7 v=0
337164 On ch=1 n=d#7 v=71
337226 On ch=1 n=e7 v=0
337252 On ch=1 n=c7 v=72
337312 On ch=1 n=a6 v=72
337312 On ch=1 n=f6 v=72
337340 On ch=1 n=d#7 v=0
337362 On ch=1 n=a7 v=0
337392 On ch=1 n=e6 v=73
337416 On ch=1 n=c7 v=0
337468 On ch=1 n=f6 v=0
337504 On ch=1 n=d#6 v=74
337570 On ch=1 n=e6 v=0
337600 On ch=1 n=c6 v=75
337664 On ch=1 n=d#6 v=0
337672 On ch=1 n=a6 v=0
337696 On ch=1 n=a5 v=76
337696 On ch=1 n=f5 v=76
337714 On ch=1 n=c6 v=0
337808 On ch=1 n=e5 v=77
337824 On ch=1 n=f5 v=0
337904 On ch=1 n=d#5 v=78
337920 On ch=1 n=e5 v=0
337984 On ch=1 n=c5 v=78
338012 On ch=1 n=d#5 v=0
338020 On ch=1 n=a5 v=0
338080 On ch=1 n=a4 v=82
338088 On ch=1 n=c5 v=0
338096 On ch=1 n=f4 v=82
338192 On ch=1 n=e4 v=82
338242 On ch=1 n=f4 v=0
338304 On ch=1 n=d#4 v=82
338374 On ch=1 n=e4 v=0
338400 On ch=1 n=c4 v=82
338404 On ch=1 n=a4 v=0
338464 On ch=1 n=d#4 v=0
338506 On ch=1 n=c4 v=0
338528 On ch=1 n=f3 v=86
338528 On ch=1 n=f2 v=110
338576 On ch=1 n=f3 v=86
338640 On ch=1 n=f3 v=0
338880 On ch=1 n=f3 v=0
338880 On ch=1 n=f2 v=0
339006 On ch=1 n=c#7 v=87
339012 On ch=1 n=a#3 v=79
339014 On ch=1 n=c#6 v=87
339020 On ch=1 n=a#4 v=83
339034 Par ch=1 c=64 v=127
339180 On ch=1 n=c#7 v=0
339186 On ch=1 n=a#3 v=0
339188 On ch=1 n=c#6 v=0
339194 On ch=1 n=a#4 v=0
339278 On ch=1 n=e6 v=87
339288 On ch=1 n=a#5 v=80
339292 On ch=1 n=a#4 v=72
339382 On ch=1 n=f6 v=87
339400 On ch=1 n=e6 v=0
339418 On ch=1 n=a#4 v=0
339464 On ch=1 n=f5 v=57
339474 On ch=1 n=g#6 v=87
339478 On ch=1 n=c#5 v=54
339498 On ch=1 n=a#5 v=0
339508 On ch=1 n=f6 v=0
339546 On ch=1 n=f#6 v=83
339556 On ch=1 n=c#5 v=0
339558 On ch=1 n=f5 v=0
339576 On ch=1 n=g#6 v=0
339604 On ch=1 n=f6 v=86
339628 On ch=1 n=f#6 v=0
339646 Par ch=1 c=64 v=0
339658 On ch=1 n=f6 v=0
339686 On ch=1 n=f6 v=93
339690 On ch=1 n=g#4 v=80
339690 On ch=1 n=g#3 v=81
339726 Par ch=1 c=64 v=127
339860 On ch=1 n=f6 v=0
339864 On ch=1 n=g#3 v=0
339864 On ch=1 n=g#4 v=0
339908 On ch=1 n=e6 v=84
339912 On ch=1 n=e7 v=83
339920 On ch=1 n=g#5 v=79
339922 On ch=1 n=g#4 v=61
340028 On ch=1 n=g#4 v=0
340094 On ch=1 n=g#5 v=0
340120 On ch=1 n=c5 v=61
340122 On ch=1 n=f7 v=91
340122 On ch=1 n=f6 v=72
340130 On ch=1 n=e6 v=0
340134 On ch=1 n=e7 v=0
340136 On ch=1 n=f5 v=66
340214 On ch=1 n=c5 v=0
340230 On ch=1 n=f5 v=0
340308 Par ch=1 c=64 v=0
340346 On ch=1 n=a#6 v=86
340352 On ch=1 n=a#5 v=95
340356 On ch=1 n=f#3 v=80
340362 On ch=1 n=f#4 v=95
340364 On ch=1 n=f6 v=0
340364 On ch=1 n=f7 v=0
340390 Par ch=1 c=64 v=127
340520 On ch=1 n=a#6 v=0
340526 On ch=1 n=a#5 v=0
340530 On ch=1 n=f#3 v=0
340536 On ch=1 n=f#4 v=0
340586 On ch=1 n=f#4 v=72
340588 On ch=1 n=f#5 v=80
340596 On ch=1 n=c6 v=93
340694 On ch=1 n=c#6 v=75
340726 On ch=1 n=c6 v=0
340798 On ch=1 n=c#5 v=61
340800 On ch=1 n=f6 v=95
340806 On ch=1 n=f#5 v=0
340810 On ch=1 n=f#4 v=0
340810 On ch=1 n=a#4 v=71
340826 On ch=1 n=c#6 v=0
340868 On ch=1 n=d#6 v=95
340892 On ch=1 n=f6 v=0
340892 On ch=1 n=c#5 v=0
340904 On ch=1 n=a#4 v=0
340926 On ch=1 n=c#6 v=95
340950 On ch=1 n=d#6 v=0
340976 Par ch=1 c=64 v=0
340990 On ch=1 n=c#6 v=0
341012 On ch=1 n=c#6 v=94
341020 On ch=1 n=f3 v=83
341024 On ch=1 n=f4 v=81
341058 Par ch=1 c=64 v=127
341186 On ch=1 n=c#6 v=0
341194 On ch=1 n=f3 v=0
341198 On ch=1 n=f4 v=0
341240 On ch=1 n=c7 v=86
341240 On ch=1 n=f5 v=63
341244 On ch=1 n=c6 v=82
341260 On ch=1 n=f4 v=63
341460 On ch=1 n=f4 v=0
341462 On ch=1 n=c7 v=0
341464 On ch=1 n=c#7 v=90
341466 On ch=1 n=c6 v=0
341468 On ch=1 n=f5 v=0
341468 On ch=1 n=c#5 v=68
341470 On ch=1 n=c#6 v=88
341470 On ch=1 n=a#4 v=72
341562 On ch=1 n=c#5 v=0
341564 On ch=1 n=a#4 v=0
341674 Par ch=1 c=64 v=0
341706 On ch=1 n=c#7 v=0
341712 On ch=1 n=c#6 v=0
341712 On ch=1 n=f#6 v=87
341716 On ch=1 n=d#3 v=87
341718 On ch=1 n=f#5 v=86
341724 On ch=1 n=d#4 v=93
341754 Par ch=1 c=64 v=127
341886 On ch=1 n=f#6 v=0
341890 On ch=1 n=d#3 v=0
341892 On ch=1 n=f#5 v=0
341898 On ch=1 n=d#4 v=0
341966 On ch=1 n=d#4 v=61
341970 On ch=1 n=a5 v=95
341970 On ch=1 n=d#5 v=80
342078 On ch=1 n=a#5 v=86
342098 On ch=1 n=d#4 v=0
342118 On ch=1 n=a5 v=0
342146 On ch=1 n=f#4 v=51
342150 On ch=1 n=c5 v=63
342166 On ch=1 n=c#6 v=95
342178 On ch=1 n=d#5 v=0
342208 On ch=1 n=a#5 v=0
342244 On ch=1 n=c5 v=0
342246 On ch=1 n=f#4 v=0
342248 On ch=1 n=c6 v=83
342262 On ch=1 n=c#6 v=0
342302 On ch=1 n=a#5 v=86
342314 Par ch=1 c=64 v=0
342328 On ch=1 n=c6 v=0
342348 On ch=1 n=a#5 v=0
342380 On ch=1 n=a#5 v=95
342380 On ch=1 n=c#4 v=80
342390 On ch=1 n=c#3 v=94
342398 Par ch=1 c=64 v=127
342554 On ch=1 n=c#4 v=0
342554 On ch=1 n=a#5 v=0
342564 On ch=1 n=c#3 v=0
342602 On ch=1 n=a6 v=87
342602 On ch=1 n=a5 v=80
342612 On ch=1 n=c#5 v=80
342614 On ch=1 n=c#4 v=71
342792 On ch=1 n=f4 v=38
342800 On ch=1 n=a#4 v=68
342810 On ch=1 n=a#6 v=90
342816 On ch=1 n=a#5 v=93
342824 On ch=1 n=a5 v=0
342824 On ch=1 n=a6 v=0
342834 On ch=1 n=c#5 v=0
342836 On ch=1 n=c#4 v=0
342886 On ch=1 n=f4 v=0
342894 On ch=1 n=a#4 v=0
343004 Par ch=1 c=64 v=0
343036 On ch=1 n=d#6 v=87
343044 On ch=1 n=d#5 v=90
343048 On ch=1 n=c3 v=82
343052 On ch=1 n=a#6 v=0
343056 On ch=1 n=c4 v=86
343058 On ch=1 n=a#5 v=0
343086 Par ch=1 c=64 v=127
343210 On ch=1 n=d#6 v=0
343218 On ch=1 n=d#5 v=0
343222 On ch=1 n=c3 v=0
343230 On ch=1 n=c4 v=0
343270 On ch=1 n=c5 v=71
343276 On ch=1 n=f5 v=95
343280 On ch=1 n=c4 v=68
343368 On ch=1 n=f#5 v=78
343398 On ch=1 n=f5 v=0
343464 On ch=1 n=a#5 v=95
343478 On ch=1 n=f#4 v=64
343480 On ch=1 n=d#4 v=33
343488 On ch=1 n=f#5 v=0
343504 On ch=1 n=c4 v=0
343510 On ch=1 n=c5 v=0
343544 On ch=1 n=g#5 v=93
343570 On ch=1 n=a#5 v=0
343572 On ch=1 n=f#4 v=0
343574 On ch=1 n=d#4 v=0
343592 On ch=1 n=f#5 v=87
343622 On ch=1 n=g#5 v=0
343624 Par ch=1 c=64 v=0
343656 On ch=1 n=f#5 v=0
343692 On ch=1 n=a#3 v=87
343692 On ch=1 n=a#2 v=90
343694 On ch=1 n=f#5 v=91
343704 Par ch=1 c=64 v=127
343866 On ch=1 n=a#2 v=0
343866 On ch=1 n=a#3 v=0
343868 On ch=1 n=f#5 v=0
343976 On ch=1 n=a#3 v=87
343992 On ch=1 n=f6 v=95
343992 On ch=1 n=c#6 v=73
343992 On ch=1 n=f5 v=65
343992 On ch=1 n=a#4 v=95
344214 On ch=1 n=c#6 v=0
344214 On ch=1 n=f6 v=0
344216 On ch=1 n=f#6 v=95
344216 On ch=1 n=d#6 v=55
344220 On ch=1 n=f#4 v=63
344234 On ch=1 n=d#4 v=47
344256 On ch=1 n=a#3 v=0
344270 On ch=1 n=a#4 v=0
344274 On ch=1 n=f5 v=0
344458 On ch=1 n=d#6 v=0
344458 On ch=1 n=f#6 v=0
344458 Par ch=1 c=64 v=0
344462 On ch=1 n=f#4 v=0
344476 On ch=1 n=d#4 v=0
344488 On ch=1 n=c4 v=84
344494 On ch=1 n=a4 v=88
344494 On ch=1 n=f4 v=88
344504 On ch=1 n=f6 v=80
344504 On ch=1 n=d#6 v=63
344504 On ch=1 n=f5 v=64
344504 On ch=1 n=a3 v=71
344512 On ch=1 n=c6 v=66
344540 Par ch=1 c=64 v=127
344662 On ch=1 n=c4 v=0
344668 On ch=1 n=f4 v=0
344668 On ch=1 n=a4 v=0
344678 On ch=1 n=a3 v=0
344678 On ch=1 n=f5 v=0
344678 On ch=1 n=d#6 v=0
344678 On ch=1 n=f6 v=0
344686 On ch=1 n=c6 v=0
344804 On ch=1 n=e5 v=68
344816 On ch=1 n=e4 v=68
344906 On ch=1 n=f4 v=56
344912 On ch=1 n=e4 v=0
344916 On ch=1 n=e5 v=0
344916 On ch=1 n=f5 v=53
345004 On ch=1 n=g#4 v=51
345010 On ch=1 n=g#5 v=51
345020 On ch=1 n=f4 v=0
345024 On ch=1 n=f5 v=0
345082 On ch=1 n=f#5 v=51
345086 On ch=1 n=f#4 v=51
345112 On ch=1 n=g#4 v=0
345116 On ch=1 n=g#5 v=0
345152 On ch=1 n=f#4 v=0
345160 On ch=1 n=f5 v=51
345160 On ch=1 n=f4 v=51
345164 On ch=1 n=f#5 v=0
345194 On ch=1 n=f4 v=0
345200 On ch=1 n=f5 v=0
345216 Par ch=1 c=64 v=0
345224 On ch=1 n=a#3 v=69
345224 On ch=1 n=a#2 v=54
345232 On ch=1 n=f4 v=78
345240 On ch=1 n=a#4 v=81
345248 On ch=1 n=c#5 v=81
345272 On ch=1 n=f5 v=73
345296 Par ch=1 c=64 v=127
345398 On ch=1 n=a#2 v=0
345398 On ch=1 n=a#3 v=0
345406 On ch=1 n=f4 v=0
345414 On ch=1 n=a#4 v=0
345422 On ch=1 n=c#5 v=0
345446 On ch=1 n=f5 v=0
345528 On ch=1 n=d#4 v=49
345532 On ch=1 n=d#5 v=77
345538 On ch=1 n=d#6 v=78
345542 On ch=1 n=d#7 v=77
345768 On ch=1 n=c#6 v=78
345768 On ch=1 n=c#5 v=72
345768 On ch=1 n=c#4 v=49
345770 On ch=1 n=c#7 v=70
345778 On ch=1 n=d#4 v=0
345782 On ch=1 n=d#5 v=0
345788 On ch=1 n=d#6 v=0
345792 On ch=1 n=d#7 v=0
345992 On ch=1 n=f3 v=57
345992 Par ch=1 c=64 v=0
346000 On ch=1 n=c4 v=97
346010 On ch=1 n=a4 v=69
346016 On ch=1 n=c7 v=81
346024 On ch=1 n=a6 v=81
346024 On ch=1 n=f6 v=81
346024 On ch=1 n=c6 v=80
346030 On ch=1 n=c#4 v=0
346030 On ch=1 n=c#5 v=0
346030 On ch=1 n=c#6 v=0
346032 On ch=1 n=c#7 v=0
346072 Par ch=1 c=64 v=127
346166 On ch=1 n=f3 v=0
346174 On ch=1 n=c4 v=0
346184 On ch=1 n=a4 v=0
346190 On ch=1 n=c7 v=0
346198 On ch=1 n=c6 v=0
346198 On ch=1 n=f6 v=0
346198 On ch=1 n=a6 v=0
346284 On ch=1 n=e5 v=60
346290 On ch=1 n=e4 v=60
346386 On ch=1 n=f5 v=60
346394 On ch=1 n=f4 v=60
346412 On ch=1 n=e5 v=0
346418 On ch=1 n=e4 v=0
346448 On ch=1 n=g#4 v=60
346454 On ch=1 n=g#5 v=60
346484 On ch=1 n=f5 v=0
346494 On ch=1 n=f4 v=0
346524 On ch=1 n=f#5 v=60
346528 On ch=1 n=f#4 v=60
346548 On ch=1 n=g#4 v=0
346570 On ch=1 n=g#5 v=0
346584 On ch=1 n=f#4 v=0
346586 On ch=1 n=f5 v=60
346588 On ch=1 n=f4 v=60
346604 On ch=1 n=f#5 v=0
346618 On ch=1 n=f4 v=0
346626 On ch=1 n=f5 v=0
346648 Par ch=1 c=64 v=0
346718 On ch=1 n=f5 v=88
346718 On ch=1 n=c#5 v=78
346718 On ch=1 n=a#4 v=78
346726 Par ch=1 c=64 v=127
346734 On ch=1 n=f4 v=79
346734 On ch=1 n=a#3 v=78
346744 On ch=1 n=a#2 v=53
346892 On ch=1 n=a#4 v=0
346892 On ch=1 n=c#5 v=0
346892 On ch=1 n=f5 v=0
346908 On ch=1 n=a#3 v=0
346908 On ch=1 n=f4 v=0
346918 On ch=1 n=a#2 v=0
346968 On ch=1 n=c5 v=71
346968 On ch=1 n=c4 v=77
346978 On ch=1 n=c7 v=77
346978 On ch=1 n=c6 v=64
347184 On ch=1 n=a#3 v=49
347190 On ch=1 n=c4 v=0
347190 On ch=1 n=c5 v=0
347190 On ch=1 n=a#5 v=74
347192 On ch=1 n=a#4 v=73
347194 On ch=1 n=a#6 v=58
347200 On ch=1 n=c6 v=0
347200 On ch=1 n=c7 v=0
347394 Par ch=1 c=64 v=0
347416 On ch=1 n=a4 v=74
347416 On ch=1 n=f3 v=80
347424 On ch=1 n=c4 v=75
347426 On ch=1 n=a#3 v=0
347432 On ch=1 n=a#5 v=0
347434 On ch=1 n=a#4 v=0
347436 On ch=1 n=a#6 v=0
347436 On ch=1 n=a6 v=83
347436 On ch=1 n=a5 v=81
347446 On ch=1 n=f6 v=82
347446 On ch=1 n=c6 v=83
347474 Par ch=1 c=64 v=127
347590 On ch=1 n=f3 v=0
347590 On ch=1 n=a4 v=0
347598 On ch=1 n=c4 v=0
347610 On ch=1 n=a5 v=0
347610 On ch=1 n=a6 v=0
347620 On ch=1 n=c6 v=0
347620 On ch=1 n=f6 v=0
347680 On ch=1 n=e4 v=60
347684 On ch=1 n=e5 v=60
347752 On ch=1 n=f4 v=60
347764 On ch=1 n=f5 v=60
347800 On ch=1 n=e4 v=0
347808 On ch=1 n=e5 v=0
347836 On ch=1 n=g#5 v=60
347840 On ch=1 n=g#4 v=60
347856 On ch=1 n=f4 v=0
347868 On ch=1 n=f5 v=0
347922 On ch=1 n=g#4 v=0
347932 On ch=1 n=f#5 v=60
347936 On ch=1 n=f#4 v=60
347950 On ch=1 n=g#5 v=0
347992 On ch=1 n=f#4 v=0
347994 On ch=1 n=f5 v=60
347996 On ch=1 n=f4 v=60
348012 On ch=1 n=f#5 v=0
348026 On ch=1 n=f4 v=0
348028 Par ch=1 c=64 v=0
348034 On ch=1 n=f5 v=0
348056 On ch=1 n=a#2 v=63
348072 On ch=1 n=a#3 v=92
348086 On ch=1 n=f4 v=83
348088 On ch=1 n=c#5 v=72
348102 On ch=1 n=f5 v=92
348110 On ch=1 n=a#4 v=64
348112 Par ch=1 c=64 v=127
348230 On ch=1 n=a#2 v=0
348246 On ch=1 n=a#3 v=0
348260 On ch=1 n=f4 v=0
348262 On ch=1 n=c#5 v=0
348276 On ch=1 n=f5 v=0
348284 On ch=1 n=a#4 v=0
348328 On ch=1 n=d#4 v=60
348330 On ch=1 n=d#5 v=78
348332 On ch=1 n=d#7 v=67
348332 On ch=1 n=d#6 v=65
348522 On ch=1 n=c#5 v=72
348528 On ch=1 n=d#4 v=0
348528 On ch=1 n=c#4 v=65
348530 On ch=1 n=d#5 v=0
348530 On ch=1 n=c#6 v=71
348532 On ch=1 n=d#6 v=0
348532 On ch=1 n=d#7 v=0
348534 On ch=1 n=c#7 v=64
348736 Par ch=1 c=64 v=0
348760 On ch=1 n=c7 v=73
348760 On ch=1 n=a4 v=71
348764 On ch=1 n=c#5 v=0
348768 On ch=1 n=a6 v=71
348768 On ch=1 n=c6 v=71
348770 On ch=1 n=c#4 v=0
348770 On ch=1 n=f3 v=69
348772 On ch=1 n=c#6 v=0
348776 On ch=1 n=c#7 v=0
348778 On ch=1 n=f6 v=73
348778 On ch=1 n=c4 v=71
348816 Par ch=1 c=64 v=127
348934 On ch=1 n=a4 v=0
348934 On ch=1 n=c7 v=0
348942 On ch=1 n=c6 v=0
348942 On ch=1 n=a6 v=0
348944 On ch=1 n=f3 v=0
348952 On ch=1 n=c4 v=0
348952 On ch=1 n=f6 v=0
349006 On ch=1 n=e5 v=60
349008 On ch=1 n=e4 v=60
349088 On ch=1 n=f4 v=60
349090 On ch=1 n=f5 v=60
349118 On ch=1 n=e5 v=0
349120 On ch=1 n=e4 v=0
349148 On ch=1 n=g#5 v=60
349152 On ch=1 n=g#4 v=60
349174 On ch=1 n=f4 v=0
349176 On ch=1 n=f5 v=0
349200 On ch=1 n=f#4 v=60
349206 On ch=1 n=f#5 v=60
349250 On ch=1 n=f4 v=60
349254 On ch=1 n=g#5 v=0
349254 On ch=1 n=f5 v=60
349258 On ch=1 n=g#4 v=0
349272 On ch=1 n=f#4 v=0
349278 On ch=1 n=f#5 v=0
349300 On ch=1 n=f4 v=0
349304 On ch=1 n=f5 v=0
349350 Par ch=1 c=64 v=0
349360 On ch=1 n=a#2 v=53
349368 On ch=1 n=a#3 v=78
349390 On ch=1 n=f4 v=88
349394 On ch=1 n=f5 v=90
349400 On ch=1 n=a#4 v=78
349402 On ch=1 n=c#5 v=78
349422 Par ch=1 c=64 v=127
349534 On ch=1 n=a#2 v=0
349542 On ch=1 n=a#3 v=0
349564 On ch=1 n=f4 v=0
349568 On ch=1 n=f5 v=0
349574 On ch=1 n=a#4 v=0
349576 On ch=1 n=c#5 v=0
349642 On ch=1 n=c5 v=64
349646 On ch=1 n=c7 v=78
349648 On ch=1 n=c4 v=33
349654 On ch=1 n=c6 v=60
349856 On ch=1 n=a#5 v=77
349856 On ch=1 n=a#3 v=49
349864 On ch=1 n=a#6 v=62
349864 On ch=1 n=a#4 v=69
349884 On ch=1 n=c5 v=0
349888 On ch=1 n=c7 v=0
349890 On ch=1 n=c4 v=0
349896 On ch=1 n=c6 v=0
350056 Par ch=1 c=64 v=0
350064 On ch=1 n=f3 v=64
350096 On ch=1 n=a#3 v=0
350096 On ch=1 n=a6 v=74
350098 On ch=1 n=a#5 v=0
350102 On ch=1 n=f6 v=71
350102 On ch=1 n=c6 v=73
350102 On ch=1 n=a5 v=70
350102 On ch=1 n=a4 v=64
350102 On ch=1 n=c4 v=63
350106 On ch=1 n=a#4 v=0
350106 On ch=1 n=a#6 v=0
350136 Par ch=1 c=64 v=127
350238 On ch=1 n=f3 v=0
350270 On ch=1 n=a6 v=0
350276 On ch=1 n=c4 v=0
350276 On ch=1 n=a4 v=0
350276 On ch=1 n=a5 v=0
350276 On ch=1 n=c6 v=0
350276 On ch=1 n=f6 v=0
350352 On ch=1 n=e4 v=60
350358 On ch=1 n=e5 v=60
350456 On ch=1 n=f5 v=60
350478 On ch=1 n=f4 v=60
350514 On ch=1 n=e4 v=0
350520 On ch=1 n=e5 v=0
350520 On ch=1 n=g#5 v=60
350520 On ch=1 n=g#4 v=60
350532 On ch=1 n=f5 v=0
350558 On ch=1 n=f4 v=0
350568 On ch=1 n=f#4 v=60
350574 On ch=1 n=f#5 v=60
350592 On ch=1 n=g#4 v=0
350608 On ch=1 n=g#5 v=0
350632 On ch=1 n=f4 v=59
350634 On ch=1 n=f5 v=59
350642 On ch=1 n=f#5 v=0
350648 On ch=1 n=f#4 v=0
350662 Par ch=1 c=64 v=0
350686 On ch=1 n=f4 v=0
350688 On ch=1 n=f5 v=0
350720 On ch=1 n=f5 v=73
350720 On ch=1 n=f4 v=60
350734 Par ch=1 c=64 v=127
350944 On ch=1 n=c#5 v=65
350950 On ch=1 n=f4 v=0
350952 On ch=1 n=c#7 v=58
350952 On ch=1 n=c#6 v=42
351002 On ch=1 n=f5 v=0
351148 On ch=1 n=c7 v=62
351152 On ch=1 n=c6 v=42
351152 On ch=1 n=c5 v=61
351166 On ch=1 n=c#5 v=0
351174 On ch=1 n=c#6 v=0
351174 On ch=1 n=c#7 v=0
351374 On ch=1 n=c6 v=0
351374 On ch=1 n=f3 v=49
351378 Par ch=1 c=64 v=0
351392 On ch=1 n=c4 v=53
351402 On ch=1 n=f6 v=60
351402 On ch=1 n=c6 v=61
351404 On ch=1 n=a6 v=61
351410 On ch=1 n=c7 v=0
351412 On ch=1 n=a5 v=58
351414 On ch=1 n=c5 v=0
351418 On ch=1 n=a4 v=61
351456 Par ch=1 c=64 v=127
351548 On ch=1 n=f3 v=0
351566 On ch=1 n=c4 v=0
351576 On ch=1 n=c6 v=0
351576 On ch=1 n=f6 v=0
351578 On ch=1 n=a6 v=0
351586 On ch=1 n=a5 v=0
351592 On ch=1 n=a4 v=0
351642 On ch=1 n=b4 v=52
351648 On ch=1 n=b3 v=52
351720 On ch=1 n=c4 v=52
351722 On ch=1 n=c5 v=52
351742 On ch=1 n=b3 v=0
351752 On ch=1 n=b4 v=0
351808 On ch=1 n=d#4 v=51
351812 On ch=1 n=d#5 v=51
351818 On ch=1 n=c4 v=0
351820 On ch=1 n=c5 v=0
351862 On ch=1 n=c#5 v=51
351870 On ch=1 n=c#4 v=51
351886 On ch=1 n=d#4 v=0
351890 On ch=1 n=d#5 v=0
351928 On ch=1 n=c4 v=51
351930 On ch=1 n=c5 v=51
351934 Par ch=1 c=64 v=127
351954 On ch=1 n=c#5 v=0
351954 Par ch=1 c=64 v=0
351962 On ch=1 n=c#4 v=0
351974 On ch=1 n=c4 v=0
351976 On ch=1 n=c5 v=0
352008 On ch=1 n=c4 v=73
352022 On ch=1 n=c5 v=76
352032 Par ch=1 c=64 v=127
352182 Par ch=1 c=64 v=0
352248 On ch=1 n=a#5 v=53
352256 On ch=1 n=a#4 v=55
352256 Par ch=1 c=64 v=127
352302 On ch=1 n=c4 v=0
352316 On ch=1 n=c5 v=0
352458 On ch=1 n=a5 v=58
352460 On ch=1 n=a4 v=55
352470 On ch=1 n=a#5 v=0
352478 On ch=1 n=a#4 v=0
352678 Par ch=1 c=64 v=0
352680 On ch=1 n=a5 v=0
352680 On ch=1 n=c4 v=63
352680 On ch=1 n=f3 v=62
352682 On ch=1 n=a4 v=0
352704 On ch=1 n=a6 v=59
352704 On ch=1 n=c6 v=58
352714 On ch=1 n=a5 v=60
352716 On ch=1 n=f6 v=56
352716 On ch=1 n=a4 v=54
352746 Par ch=1 c=64 v=127
352854 On ch=1 n=f3 v=0
352854 On ch=1 n=c4 v=0
352878 On ch=1 n=c6 v=0
352878 On ch=1 n=a6 v=0
352888 On ch=1 n=a5 v=0
352890 On ch=1 n=a4 v=0
352890 On ch=1 n=f6 v=0
352948 Par ch=1 c=64 v=0
352954 On ch=1 n=e5 v=51
352964 On ch=1 n=e4 v=51
353046 Par ch=1 c=64 v=127
353062 On ch=1 n=e5 v=0
353062 On ch=1 n=f5 v=51
353066 On ch=1 n=e4 v=0
353074 On ch=1 n=f4 v=51
353130 On ch=1 n=g#5 v=51
353146 On ch=1 n=f5 v=0
353152 On ch=1 n=g#4 v=51
353160 On ch=1 n=f4 v=0
353196 On ch=1 n=f#5 v=51
353210 On ch=1 n=f#4 v=51
353226 On ch=1 n=g#5 v=0
353232 On ch=1 n=g#4 v=0
353260 On ch=1 n=f5 v=51
353266 On ch=1 n=f4 v=51
353272 On ch=1 n=f#5 v=0
353292 On ch=1 n=f#4 v=0
353302 Par ch=1 c=64 v=0
353312 On ch=1 n=f5 v=0
353322 On ch=1 n=f4 v=0
353342 On ch=1 n=f5 v=69
353356 On ch=1 n=f4 v=66
353368 Par ch=1 c=64 v=127
353492 On ch=1 n=f5 v=0
353506 On ch=1 n=f4 v=0
353568 On ch=1 n=c#6 v=58
353568 On ch=1 n=c#5 v=49
353576 On ch=1 n=c#7 v=60
353778 On ch=1 n=c5 v=47
353784 On ch=1 n=c7 v=59
353786 On ch=1 n=c6 v=55
353790 On ch=1 n=c#5 v=0
353790 On ch=1 n=c#6 v=0
353798 On ch=1 n=c#7 v=0
353988 On ch=1 n=f3 v=58
354000 Par ch=1 c=64 v=0
354020 On ch=1 n=c4 v=58
354042 On ch=1 n=c5 v=0
354048 On ch=1 n=c7 v=0
354048 On ch=1 n=a6 v=63
354050 On ch=1 n=c6 v=0
354052 On ch=1 n=a5 v=61
354052 On ch=1 n=a4 v=53
354060 On ch=1 n=f6 v=63
354060 On ch=1 n=c6 v=55
354078 Par ch=1 c=64 v=127
354162 On ch=1 n=f3 v=0
354194 On ch=1 n=c4 v=0
354222 On ch=1 n=a6 v=0
354226 On ch=1 n=a4 v=0
354226 On ch=1 n=a5 v=0
354234 On ch=1 n=c6 v=0
354234 On ch=1 n=f6 v=0
354274 On ch=1 n=b4 v=43
354276 On ch=1 n=b3 v=43
354288 Par ch=1 c=64 v=127
354390 On ch=1 n=c5 v=43
354394 On ch=1 n=c4 v=43
354404 On ch=1 n=b4 v=0
354406 On ch=1 n=b3 v=0
354452 On ch=1 n=d#5 v=43
354456 On ch=1 n=d#4 v=43
354480 On ch=1 n=c5 v=0
354482 On ch=1 n=c4 v=0
354504 On ch=1 n=c#4 v=43
354512 On ch=1 n=c#5 v=43
354540 On ch=1 n=d#4 v=0
354544 On ch=1 n=d#5 v=0
354572 On ch=1 n=c5 v=43
354572 On ch=1 n=c4 v=43
354574 On ch=1 n=c#5 v=0
354584 On ch=1 n=c#4 v=0
354584 Par ch=1 c=64 v=127
354624 On ch=1 n=c4 v=0
354624 On ch=1 n=c5 v=0
354656 Par ch=1 c=64 v=0
354672 On ch=1 n=c5 v=53
354672 On ch=1 n=c4 v=49
354728 Par ch=1 c=64 v=127
354846 Par ch=1 c=64 v=0
354876 On ch=1 n=a#5 v=51
354878 On ch=1 n=a#4 v=56
354896 Par ch=1 c=64 v=127
354944 On ch=1 n=c4 v=0
354944 On ch=1 n=c5 v=0
355056 On ch=1 n=a4 v=52
355062 On ch=1 n=a5 v=56
355098 On ch=1 n=a#5 v=0
355100 On ch=1 n=a#4 v=0
355264 On ch=1 n=f3 v=39
355282 Par ch=1 c=64 v=0
355298 On ch=1 n=a4 v=0
355304 On ch=1 n=a5 v=0
355304 On ch=1 n=c4 v=45
355322 On ch=1 n=a6 v=58
355326 On ch=1 n=a4 v=53
355328 On ch=1 n=f6 v=56
355328 On ch=1 n=c6 v=57
355328 On ch=1 n=a5 v=53
355350 Par ch=1 c=64 v=127
355438 On ch=1 n=f3 v=0
355478 On ch=1 n=c4 v=0
355496 On ch=1 n=a6 v=0
355500 On ch=1 n=a4 v=0
355502 On ch=1 n=a5 v=0
355502 On ch=1 n=c6 v=0
355502 On ch=1 n=f6 v=0
355596 Par ch=1 c=64 v=0
355630 Par ch=1 c=64 v=127
355638 On ch=1 n=b4 v=37
355638 On ch=1 n=b3 v=37
355696 On ch=1 n=c4 v=36
355708 On ch=1 n=c5 v=36
355734 On ch=1 n=b3 v=0
355736 On ch=1 n=b4 v=0
355768 On ch=1 n=d#4 v=36
355772 On ch=1 n=d#5 v=36
355794 On ch=1 n=c4 v=0
355798 On ch=1 n=c5 v=0
355816 On ch=1 n=c#4 v=36
355824 On ch=1 n=c#5 v=36
355850 On ch=1 n=d#4 v=0
355854 On ch=1 n=d#5 v=0
355886 On ch=1 n=c5 v=36
355890 On ch=1 n=c#5 v=0
355892 On ch=1 n=c#4 v=0
355892 On ch=1 n=c4 v=36
355904 Par ch=1 c=64 v=127
355922 Par ch=1 c=64 v=0
355938 On ch=1 n=c5 v=0
355944 On ch=1 n=c4 v=0
355968 On ch=1 n=c4 v=38
355970 On ch=1 n=c5 v=57
356000 Par ch=1 c=64 v=127
356196 On ch=1 n=a#5 v=45
356202 On ch=1 n=a#4 v=52
356256 On ch=1 n=c4 v=0
356258 On ch=1 n=c5 v=0
356390 On ch=1 n=a#5 v=0
356396 On ch=1 n=a#4 v=0
356400 On ch=1 n=a5 v=45
356408 On ch=1 n=a4 v=40
356594 Par ch=1 c=64 v=0
356622 On ch=1 n=a5 v=0
356630 On ch=1 n=a4 v=0
356634 On ch=1 n=a6 v=45
356642 On ch=1 n=c6 v=48
356642 On ch=1 n=a5 v=44
356644 On ch=1 n=f6 v=48
356652 On ch=1 n=a4 v=43
356652 On ch=1 n=f3 v=37
356654 On ch=1 n=c4 v=45
356674 Par ch=1 c=64 v=127
356734 On ch=1 n=a4 v=0
356808 On ch=1 n=a6 v=0
356816 On ch=1 n=a5 v=0
356816 On ch=1 n=c6 v=0
356818 On ch=1 n=f6 v=0
356826 On ch=1 n=f3 v=0
356828 On ch=1 n=c4 v=0
356864 On ch=1 n=b3 v=35
356866 On ch=1 n=b4 v=35
356938 On ch=1 n=c5 v=35
356944 On ch=1 n=c4 v=35
356946 Par ch=1 c=64 v=0
356950 On ch=1 n=b3 v=0
356958 On ch=1 n=b4 v=0
357000 On ch=1 n=d#4 v=35
357006 On ch=1 n=d#5 v=35
357010 Par ch=1 c=64 v=127
357026 On ch=1 n=c5 v=0
357046 On ch=1 n=c4 v=0
357048 On ch=1 n=c#4 v=35
357054 On ch=1 n=c#5 v=35
357084 On ch=1 n=d#4 v=0
357090 On ch=1 n=d#5 v=0
357112 On ch=1 n=c#4 v=0
357118 On ch=1 n=c#5 v=0
357124 On ch=1 n=c4 v=35
357126 On ch=1 n=c5 v=35
357136 Par ch=1 c=64 v=127
357172 On ch=1 n=c4 v=0
357174 On ch=1 n=c5 v=0
357180 Par ch=1 c=64 v=0
357204 Par ch=1 c=64 v=127
357208 On ch=1 n=c4 v=51
357212 On ch=1 n=c5 v=58
357348 Par ch=1 c=64 v=0
357410 On ch=1 n=a#5 v=45
357418 On ch=1 n=a#4 v=45
357432 Par ch=1 c=64 v=127
357470 On ch=1 n=c4 v=0
357474 On ch=1 n=c5 v=0
357620 On ch=1 n=a4 v=43
357624 On ch=1 n=a5 v=45
357632 On ch=1 n=a#5 v=0
357640 On ch=1 n=a#4 v=0
357816 On ch=1 n=f3 v=35
357822 Par ch=1 c=64 v=0
357840 On ch=1 n=c4 v=40
357854 On ch=1 n=a5 v=0
357862 On ch=1 n=a4 v=0
357866 On ch=1 n=a6 v=41
357872 On ch=1 n=f6 v=45
357872 Par ch=1 c=64 v=127
357878 On ch=1 n=c6 v=45
357878 On ch=1 n=a5 v=41
357878 On ch=1 n=f4 v=38
357912 On ch=1 n=a5 v=60
357912 Par ch=1 c=64 v=127
357934 On ch=1 n=a5 v=0
357990 On ch=1 n=f3 v=0
358014 On ch=1 n=c4 v=0
358040 On ch=1 n=a6 v=0
358046 On ch=1 n=f6 v=0
358052 On ch=1 n=f4 v=0
358052 On ch=1 n=c6 v=0
358062 On ch=1 n=a5 v=0
358128 On ch=1 n=b2 v=41
358134 On ch=1 n=b3 v=41
358200 On ch=1 n=c4 v=41
358208 On ch=1 n=c3 v=41
358220 On ch=1 n=b2 v=0
358226 On ch=1 n=b3 v=0
358248 On ch=1 n=d#3 v=41
358254 On ch=1 n=d#4 v=41
358278 On ch=1 n=c4 v=0
358282 On ch=1 n=c3 v=0
358308 Par ch=1 c=64 v=0
358312 On ch=1 n=c#3 v=41
358326 On ch=1 n=c#4 v=41
358328 On ch=1 n=d#3 v=0
358338 On ch=1 n=d#4 v=0
358368 On ch=1 n=c3 v=41
358368 Par ch=1 c=64 v=127
358370 On ch=1 n=c4 v=41
358382 On ch=1 n=c#3 v=0
358392 On ch=1 n=c#4 v=0
358428 On ch=1 n=c3 v=0
358430 On ch=1 n=c4 v=0
358458 Par ch=1 c=64 v=127
358472 On ch=1 n=c4 v=57
358488 On ch=1 n=c3 v=48
358638 Par ch=1 c=64 v=0
358664 On ch=1 n=a#3 v=49
358672 On ch=1 n=a#4 v=46
358698 On ch=1 n=c4 v=0
358704 Par ch=1 c=64 v=127
358730 On ch=1 n=c3 v=0
358862 On ch=1 n=a3 v=43
358866 On ch=1 n=a#3 v=0
358870 On ch=1 n=a4 v=46
358874 On ch=1 n=a#4 v=0
358880 Par ch=1 c=64 v=0
358900 Par ch=1 c=64 v=127
359016 Par ch=1 c=64 v=0
359096 Par ch=1 c=64 v=127
359130 On ch=1 n=f4 v=47
359134 On ch=1 n=f3 v=44
359142 On ch=1 n=a4 v=0
359182 On ch=1 n=a3 v=0
359392 Par ch=1 c=64 v=0
359400 On ch=1 n=b2 v=34
359406 On ch=1 n=b3 v=34
359412 On ch=1 n=f4 v=0
359416 On ch=1 n=f3 v=0
359526 On ch=1 n=b2 v=0
359526 On ch=1 n=c4 v=34
359526 On ch=1 n=c3 v=34
359536 On ch=1 n=b3 v=0
359550 Par ch=1 c=64 v=127
359616 On ch=1 n=d#4 v=33
359626 On ch=1 n=d#3 v=33
359630 On ch=1 n=c4 v=0
359636 On ch=1 n=c3 v=0
359688 On ch=1 n=c#3 v=33
359698 On ch=1 n=c#4 v=33
359722 On ch=1 n=d#3 v=0
359730 On ch=1 n=d#4 v=0
359760 On ch=1 n=c3 v=33
359768 On ch=1 n=c4 v=33
359770 On ch=1 n=c#3 v=0
359780 On ch=1 n=c#4 v=0
359790 Par ch=1 c=64 v=0
359792 Par ch=1 c=64 v=127
359826 On ch=1 n=c3 v=0
359834 On ch=1 n=c4 v=0
359840 On ch=1 n=c3 v=41
359854 On ch=1 n=c4 v=47
359902 Par ch=1 c=64 v=127
360080 Par ch=1 c=64 v=0
360104 On ch=1 n=a#4 v=40
360104 On ch=1 n=a#3 v=40
360106 On ch=1 n=c3 v=0
360120 On ch=1 n=c4 v=0
360354 On ch=1 n=a4 v=37
360354 On ch=1 n=a3 v=37
360382 On ch=1 n=a#3 v=0
360382 On ch=1 n=a#4 v=0
360734 On ch=1 n=f3 v=31
360738 On ch=1 n=f4 v=34
360758 On ch=1 n=a3 v=0
360758 On ch=1 n=a4 v=0
361202 On ch=1 n=f4 v=0
361210 On ch=1 n=f3 v=0
361704 On ch=1 n=b2 v=41
361706 On ch=1 n=b3 v=41
361816 On ch=1 n=c4 v=41
361824 On ch=1 n=b3 v=0
361824 On ch=1 n=c3 v=41
361842 On ch=1 n=b2 v=0
361920 On ch=1 n=d#4 v=41
361920 On ch=1 n=d#3 v=41
361934 On ch=1 n=c3 v=0
361940 On ch=1 n=c4 v=0
362006 On ch=1 n=c#4 v=41
362008 On ch=1 n=c#3 v=41
362030 On ch=1 n=d#3 v=0
362036 On ch=1 n=d#4 v=0
362056 On ch=1 n=c3 v=41
362068 On ch=1 n=c4 v=41
362082 On ch=1 n=c#4 v=0
362084 On ch=1 n=c#3 v=0
362126 On ch=1 n=c3 v=0
362138 On ch=1 n=c4 v=0
362170 On ch=1 n=c4 v=53
362180 On ch=1 n=c3 v=48
362514 On ch=1 n=a#4 v=47
362520 On ch=1 n=c3 v=0
362520 On ch=1 n=a#3 v=50
362524 On ch=1 n=c4 v=0
362886 On ch=1 n=a4 v=43
362888 On ch=1 n=a3 v=40
362908 On ch=1 n=a#4 v=0
362912 On ch=1 n=a#3 v=0
363298 On ch=1 n=f3 v=42
363306 On ch=1 n=f4 v=34
363318 On ch=1 n=a3 v=0
363328 On ch=1 n=a4 v=0
363984 On ch=1 n=f4 v=0
363986 On ch=1 n=f3 v=0
364624 On ch=1 n=a#2 v=43
364630 On ch=1 n=a#3 v=42
365092 On ch=1 n=a3 v=43
365102 On ch=1 n=a#3 v=0
365104 On ch=1 n=a2 v=33
365132 On ch=1 n=a#2 v=0
365698 On ch=1 n=f3 v=49
365706 On ch=1 n=f2 v=54
365738 On ch=1 n=a3 v=0
365756 On ch=1 n=a2 v=0
367004 On ch=1 n=f3 v=0
367024 On ch=1 n=f2 v=0
368190 On ch=1 n=a3 v=23
368200 On ch=1 n=a4 v=24
368228 On ch=1 n=a#3 v=32
368244 On ch=1 n=a#4 v=33
368244 Par ch=1 c=64 v=127
368280 On ch=1 n=c#4 v=23
368294 On ch=1 n=a3 v=0
368308 On ch=1 n=c#5 v=36
368352 On ch=1 n=a4 v=0
368358 Par ch=1 c=64 v=0
368374 On ch=1 n=f5 v=40
368380 On ch=1 n=a#4 v=0
368386 On ch=1 n=a#3 v=0
368386 On ch=1 n=f4 v=32
368398 On ch=1 n=c#5 v=0
368404 On ch=1 n=c#4 v=0
368428 On ch=1 n=f5 v=0
368444 On ch=1 n=f4 v=0
368860 On ch=1 n=a4 v=20
368916 On ch=1 n=a#4 v=32
368924 On ch=1 n=a#3 v=29
368936 On ch=1 n=a3 v=1
368976 On ch=1 n=c#4 v=14
368986 On ch=1 n=c#5 v=32
369004 On ch=1 n=a3 v=0
369004 On ch=1 n=a4 v=0
369058 On ch=1 n=f5 v=32
369074 On ch=1 n=f4 v=14
369080 On ch=1 n=a#3 v=0
369080 On ch=1 n=a#4 v=0
369092 On ch=1 n=c#5 v=0
369100 On ch=1 n=c#4 v=0
369236 Par ch=1 c=64 v=127
369944 Par ch=1 c=64 v=0
370248 On ch=1 n=f5 v=0
370264 On ch=1 n=f4 v=0
370476 On ch=1 n=a#4 v=93
370484 On ch=1 n=a#2 v=93
370488 On ch=1 n=a#3 v=90
370528 Par ch=1 c=64 v=127
370540 On ch=1 n=a#3 v=0
370540 On ch=1 n=a#4 v=0
370542 On ch=1 n=a#2 v=0
371178 On ch=1 n=a#7 v=93
371192 On ch=1 n=f#7 v=93
371192 On ch=1 n=a#6 v=93
371192 On ch=1 n=a#5 v=96
371192 On ch=1 n=c5 v=80
371210 On ch=1 n=f#5 v=82
371210 On ch=1 n=a#4 v=80
371220 On ch=1 n=d#5 v=78
371242 Par ch=1 c=64 v=0
371324 Par ch=1 c=64 v=127
371674 On ch=1 n=a#4 v=0
371764 On ch=1 n=d#5 v=0
371784 On ch=1 n=f#7 v=0
371802 On ch=1 n=a#7 v=0
371840 On ch=1 n=f#5 v=0
371848 On ch=1 n=a#6 v=0
371878 On ch=1 n=c5 v=0
371908 On ch=1 n=a#5 v=0
372294 On ch=1 n=d#6 v=69
372302 On ch=1 n=d#7 v=73
372308 On ch=1 n=c7 v=71
372308 On ch=1 n=a#5 v=70
372324 On ch=1 n=c5 v=64
372326 On ch=1 n=f#5 v=66
372326 On ch=1 n=a#4 v=56
372368 On ch=1 n=d#6 v=0
372370 On ch=1 n=a#4 v=0
372370 On ch=1 n=c7 v=0
372384 On ch=1 n=f#5 v=0
372388 On ch=1 n=a#5 v=0
372394 On ch=1 n=c5 v=0
372402 On ch=1 n=d#7 v=0
372516 On ch=1 n=c7 v=72
372516 On ch=1 n=f6 v=65
372522 On ch=1 n=a#4 v=66
372528 On ch=1 n=f7 v=72
372528 On ch=1 n=f#5 v=60
372534 On ch=1 n=a#5 v=79
372542 On ch=1 n=c5 v=66
372558 On ch=1 n=f#5 v=0
372564 On ch=1 n=f6 v=0
372568 On ch=1 n=c7 v=0
372576 On ch=1 n=a#5 v=0
372576 On ch=1 n=f7 v=0
372582 On ch=1 n=c5 v=0
372592 On ch=1 n=a#4 v=0
372600 On ch=1 n=c7 v=82
372600 On ch=1 n=f#6 v=76
372608 On ch=1 n=f#7 v=86
372620 On ch=1 n=f#5 v=72
372620 On ch=1 n=a#4 v=60
372632 On ch=1 n=a#5 v=76
372632 On ch=1 n=c5 v=65
372676 On ch=1 n=c7 v=0
372690 On ch=1 n=f#6 v=0
372706 On ch=1 n=f#7 v=0
372712 On ch=1 n=c5 v=0
372716 On ch=1 n=a#5 v=0
372718 On ch=1 n=f#5 v=0
372724 On ch=1 n=a#4 v=0
372806 Par ch=1 c=64 v=0
372832 On ch=1 n=a#4 v=48
372848 On ch=1 n=c#7 v=84
372848 On ch=1 n=f6 v=75
372848 On ch=1 n=a#5 v=73
372868 On ch=1 n=f7 v=79
372868 On ch=1 n=f5 v=64
372868 On ch=1 n=c#5 v=58
372902 Par ch=1 c=64 v=127
372920 On ch=1 n=a#5 v=0
372924 On ch=1 n=f6 v=0
372932 On ch=1 n=f5 v=0
372932 On ch=1 n=f7 v=0
372948 On ch=1 n=c#5 v=0
372948 On ch=1 n=c#7 v=0
372970 On ch=1 n=a#4 v=0
373288 On ch=1 n=a3 v=33
373298 On ch=1 n=a4 v=49
373326 On ch=1 n=a#3 v=32
373348 On ch=1 n=a#4 v=46
373354 Par ch=1 c=64 v=0
373372 On ch=1 n=c#4 v=38
373384 On ch=1 n=a3 v=0
373408 On ch=1 n=c#5 v=51
373416 On ch=1 n=a4 v=0
373460 On ch=1 n=a#3 v=0
373466 On ch=1 n=f4 v=45
373478 On ch=1 n=a#4 v=0
373478 On ch=1 n=f5 v=50
373488 On ch=1 n=c#4 v=0
373496 On ch=1 n=c#5 v=0
373538 On ch=1 n=f5 v=0
373538 On ch=1 n=f4 v=0
373944 On ch=1 n=a4 v=29
373956 On ch=1 n=a3 v=32
374016 On ch=1 n=a#3 v=35
374022 On ch=1 n=a#4 v=39
374058 On ch=1 n=a3 v=0
374072 On ch=1 n=c#4 v=35
374092 On ch=1 n=a4 v=0
374096 On ch=1 n=c#5 v=41
374152 On ch=1 n=a#3 v=0
374164 On ch=1 n=a#4 v=0
374178 On ch=1 n=f5 v=34
374184 On ch=1 n=f4 v=31
374208 On ch=1 n=c#5 v=0
374214 On ch=1 n=c#4 v=0
374308 Par ch=1 c=64 v=127
374594 On ch=1 n=f5 v=0
374686 On ch=1 n=f4 v=0
375224 Par ch=1 c=64 v=0
375282 On ch=1 n=g#4 v=111
375288 On ch=1 n=g#2 v=84
375290 On ch=1 n=g#3 v=103
375336 Par ch=1 c=64 v=127
375352 On ch=1 n=g#3 v=0
375360 On ch=1 n=g#2 v=0
375360 On ch=1 n=g#4 v=0
375922 On ch=1 n=g#4 v=82
375982 Par ch=1 c=64 v=0
375994 On ch=1 n=f5 v=80
376004 On ch=1 n=g#7 v=93
376012 On ch=1 n=f7 v=93
376012 On ch=1 n=g#6 v=107
376036 On ch=1 n=c#6 v=93
376070 Par ch=1 c=64 v=127
376452 On ch=1 n=c#6 v=0
376460 On ch=1 n=f5 v=0
376496 On ch=1 n=f7 v=0
376524 On ch=1 n=g#7 v=0
376542 On ch=1 n=g#4 v=0
376572 On ch=1 n=g#6 v=0
377080 On ch=1 n=d#7 v=92
377080 On ch=1 n=f#5 v=69
377092 On ch=1 n=d#6 v=73
377092 On ch=1 n=g#5 v=73
377092 On ch=1 n=g#4 v=63
377104 On ch=1 n=c7 v=84
377104 On ch=1 n=d#5 v=67
377140 On ch=1 n=g#4 v=0
377146 On ch=1 n=d#6 v=0
377152 On ch=1 n=c7 v=0
377158 On ch=1 n=d#5 v=0
377158 On ch=1 n=g#5 v=0
377158 On ch=1 n=f#5 v=0
377190 On ch=1 n=d#7 v=0
377328 On ch=1 n=c7 v=84
377334 On ch=1 n=f6 v=56
377344 On ch=1 n=f#5 v=84
377344 On ch=1 n=g#4 v=72
377352 On ch=1 n=f7 v=93
377352 On ch=1 n=g#5 v=82
377360 On ch=1 n=d#5 v=58
377380 On ch=1 n=f6 v=0
377382 On ch=1 n=c7 v=0
377386 On ch=1 n=f7 v=0
377390 On ch=1 n=d#5 v=0
377394 On ch=1 n=f#5 v=0
377398 On ch=1 n=g#5 v=0
377404 On ch=1 n=g#4 v=0
377420 On ch=1 n=f#6 v=84
377422 On ch=1 n=f#7 v=88
377422 On ch=1 n=c7 v=74
377438 On ch=1 n=g#5 v=68
377438 On ch=1 n=f#5 v=73
377438 On ch=1 n=g#4 v=67
377450 On ch=1 n=d#5 v=62
377482 On ch=1 n=c7 v=0
377498 On ch=1 n=d#5 v=0
377520 On ch=1 n=f#5 v=0
377524 On ch=1 n=g#5 v=0
377524 On ch=1 n=f#6 v=0
377534 On ch=1 n=f#7 v=0
377542 On ch=1 n=g#4 v=0
377638 Par ch=1 c=64 v=0
377676 On ch=1 n=c#7 v=84
377676 On ch=1 n=f6 v=91
377678 On ch=1 n=f7 v=84
377692 On ch=1 n=g#5 v=103
377692 On ch=1 n=c#5 v=94
377704 On ch=1 n=f5 v=94
377716 Par ch=1 c=64 v=127
377750 On ch=1 n=f7 v=0
377762 On ch=1 n=c#7 v=0
377772 On ch=1 n=f5 v=0
377772 On ch=1 n=f6 v=0
377784 On ch=1 n=g#5 v=0
377808 On ch=1 n=c#5 v=0
378180 Par ch=1 c=64 v=0
378204 On ch=1 n=f6 v=103
378212 On ch=1 n=a5 v=98
378212 On ch=1 n=f5 v=94
378220 On ch=1 n=c5 v=94
378220 On ch=1 n=f4 v=99
378264 Par ch=1 c=64 v=127
378316 On ch=1 n=f6 v=0
378340 On ch=1 n=f5 v=0
378340 On ch=1 n=a5 v=0
378350 On ch=1 n=c5 v=0
378386 On ch=1 n=f4 v=0
378780 On ch=1 n=f5 v=103
378786 On ch=1 n=a4 v=98
378786 On ch=1 n=f3 v=98
378788 On ch=1 n=f4 v=97
378788 On ch=1 n=c4 v=98
378982 On ch=1 n=f5 v=0
379016 On ch=1 n=f4 v=0
379020 On ch=1 n=a4 v=0
379036 On ch=1 n=c4 v=0
379072 On ch=1 n=f3 v=0
379466 On ch=1 n=f2 v=106
379478 On ch=1 n=f3 v=122
379538 Par ch=1 c=64 v=0
379698 Par ch=1 c=64 v=127
380942 On ch=1 n=f3 v=0
380944 On ch=1 n=f#3 v=127
380954 On ch=1 n=f#2 v=127
380970 On ch=1 n=f#3 v=0
380972 On ch=1 n=f2 v=0
380988 Par ch=1 c=64 v=0
381000 On ch=1 n=f#2 v=0
383118 On ch=1 n=a3 v=23
383128 On ch=1 n=a4 v=25
383156 On ch=1 n=a#3 v=33
383172 On ch=1 n=a#4 v=34
383172 Par ch=1 c=64 v=127
383208 On ch=1 n=c#4 v=23
383222 On ch=1 n=a3 v=0
383236 On ch=1 n=c#5 v=37
383280 On ch=1 n=a4 v=0
383286 Par ch=1 c=64 v=0
383302 On ch=1 n=f5 v=40
383308 On ch=1 n=a#4 v=0
383314 On ch=1 n=a#3 v=0
383314 On ch=1 n=f4 v=32
383326 On ch=1 n=c#5 v=0
383332 On ch=1 n=c#4 v=0
383356 On ch=1 n=f5 v=0
383372 On ch=1 n=f4 v=0
383788 On ch=1 n=a4 v=20
383844 On ch=1 n=a#4 v=31
383852 On ch=1 n=a#3 v=28
383864 On ch=1 n=a3 v=2
383904 On ch=1 n=c#4 v=14
383914 On ch=1 n=c#5 v=31
383932 On ch=1 n=a3 v=0
383932 On ch=1 n=a4 v=0
383986 On ch=1 n=f5 v=31
384002 On ch=1 n=f4 v=10
384008 On ch=1 n=a#3 v=0
384008 On ch=1 n=a#4 v=0
384020 On ch=1 n=c#5 v=0
384028 On ch=1 n=c#4 v=0
384164 Par ch=1 c=64 v=127
384872 Par ch=1 c=64 v=0
384972 On ch=1 n=a#4 v=121
384972 On ch=1 n=a#2 v=87
384980 On ch=1 n=a#3 v=114
384996 On ch=1 n=f5 v=0
385012 On ch=1 n=f4 v=0
385016 Par ch=1 c=64 v=127
385034 On ch=1 n=a#3 v=0
385036 On ch=1 n=a#2 v=0
385040 On ch=1 n=a#4 v=0
385594 On ch=1 n=a#7 v=94
385594 On ch=1 n=a#4 v=90
385604 On ch=1 n=a#6 v=106
385614 On ch=1 n=c5 v=94
385616 On ch=1 n=f#7 v=86
385616 On ch=1 n=a#5 v=105
385616 On ch=1 n=f#5 v=94
385616 On ch=1 n=d#5 v=94
385640 Par ch=1 c=64 v=0
385746 Par ch=1 c=64 v=127
385828 On ch=1 n=a#4 v=0
385848 On ch=1 n=d#5 v=0
385868 On ch=1 n=f#5 v=0
385946 On ch=1 n=a#7 v=0
385956 On ch=1 n=f#7 v=0
385972 On ch=1 n=a#5 v=0
385984 On ch=1 n=c5 v=0
385984 On ch=1 n=a#6 v=0
386464 On ch=1 n=a#5 v=92
386476 On ch=1 n=d#6 v=77
386478 On ch=1 n=d#7 v=79
386478 On ch=1 n=c5 v=71
386480 On ch=1 n=d#5 v=64
386488 On ch=1 n=a#4 v=62
386490 On ch=1 n=c7 v=74
386490 On ch=1 n=f#5 v=64
386508 On ch=1 n=f#5 v=0
386510 On ch=1 n=d#5 v=0
386514 On ch=1 n=a#4 v=0
386514 On ch=1 n=d#7 v=0
386516 On ch=1 n=d#6 v=0
386524 On ch=1 n=c7 v=0
386528 On ch=1 n=c5 v=0
386528 On ch=1 n=a#5 v=0
386556 On ch=1 n=c5 v=66
386562 On ch=1 n=a#4 v=67
386564 On ch=1 n=d#6 v=81
386564 On ch=1 n=a#5 v=73
386576 On ch=1 n=d#5 v=64
386580 On ch=1 n=d#7 v=82
386580 On ch=1 n=c7 v=85
386582 On ch=1 n=f#5 v=71
386628 On ch=1 n=d#6 v=0
386636 On ch=1 n=a#5 v=0
386640 On ch=1 n=f#5 v=0
386640 On ch=1 n=c7 v=0
386652 On ch=1 n=c5 v=0
386658 On ch=1 n=d#7 v=0
386660 On ch=1 n=a#4 v=0
386696 On ch=1 n=d#5 v=0
386790 On ch=1 n=c5 v=77
386790 On ch=1 n=a#4 v=74
386800 On ch=1 n=d#5 v=64
386806 On ch=1 n=d#7 v=83
386806 On ch=1 n=c7 v=82
386806 On ch=1 n=d#6 v=85
386808 On ch=1 n=a#5 v=90
386808 On ch=1 n=f#5 v=79
386830 On ch=1 n=d#5 v=0
386850 On ch=1 n=f#5 v=0
386850 On ch=1 n=d#6 v=0
386864 On ch=1 n=c7 v=0
386868 On ch=1 n=a#5 v=0
386876 On ch=1 n=a#4 v=0
386880 On ch=1 n=c5 v=0
386886 On ch=1 n=d#7 v=0
387028 On ch=1 n=c7 v=74
387040 On ch=1 n=f6 v=64
387040 On ch=1 n=f#5 v=64
387040 On ch=1 n=d#5 v=64
387048 On ch=1 n=a#5 v=85
387048 On ch=1 n=c5 v=74
387048 On ch=1 n=a#4 v=66
387068 On ch=1 n=f7 v=79
387070 On ch=1 n=d#5 v=0
387070 On ch=1 n=f#5 v=0
387074 On ch=1 n=f6 v=0
387092 On ch=1 n=f7 v=0
387092 On ch=1 n=c7 v=0
387100 On ch=1 n=a#5 v=0
387104 On ch=1 n=c5 v=0
387108 On ch=1 n=a#4 v=0
387116 On ch=1 n=c7 v=82
387116 On ch=1 n=f#6 v=79
387122 On ch=1 n=f#7 v=86
387136 On ch=1 n=d#5 v=64
387136 On ch=1 n=a#4 v=71
387142 On ch=1 n=a#5 v=82
387144 On ch=1 n=f#5 v=79
387144 On ch=1 n=c5 v=79
387168 On ch=1 n=c7 v=0
387202 On ch=1 n=f#7 v=0
387206 On ch=1 n=a#5 v=0
387212 On ch=1 n=f#6 v=0
387214 On ch=1 n=f#5 v=0
387218 On ch=1 n=c5 v=0
387220 On ch=1 n=a#4 v=0
387256 On ch=1 n=d#5 v=0
387334 Par ch=1 c=64 v=0
387370 On ch=1 n=a#4 v=1
387384 On ch=1 n=a#5 v=74
387386 On ch=1 n=c#7 v=79
387396 On ch=1 n=f7 v=75
387396 On ch=1 n=f6 v=79
387408 On ch=1 n=f5 v=71
387408 On ch=1 n=c#5 v=66
387444 Par ch=1 c=64 v=127
387460 On ch=1 n=a#5 v=0
387468 On ch=1 n=f5 v=0
387468 On ch=1 n=f7 v=0
387480 On ch=1 n=c#5 v=0
387480 On ch=1 n=c#7 v=0
387484 On ch=1 n=f6 v=0
387498 On ch=1 n=a#4 v=0
387826 On ch=1 n=a4 v=45
387832 On ch=1 n=a3 v=38
387880 Par ch=1 c=64 v=0
387888 On ch=1 n=a#3 v=23
387902 On ch=1 n=a#4 v=46
387934 On ch=1 n=c#4 v=23
387948 On ch=1 n=a3 v=0
387950 On ch=1 n=c#5 v=40
387974 On ch=1 n=a4 v=0
388020 On ch=1 n=a#4 v=0
388024 On ch=1 n=f5 v=52
388024 On ch=1 n=f4 v=31
388032 On ch=1 n=a#3 v=0
388044 On ch=1 n=c#4 v=0
388054 On ch=1 n=c#5 v=0
388078 On ch=1 n=f5 v=0
388086 On ch=1 n=f4 v=0
388490 On ch=1 n=a3 v=36
388496 On ch=1 n=a4 v=42
388556 On ch=1 n=a#4 v=45
388564 On ch=1 n=a#3 v=36
388612 On ch=1 n=a3 v=0
388616 On ch=1 n=a4 v=0
388618 On ch=1 n=c#4 v=28
388628 On ch=1 n=c#5 v=42
388692 On ch=1 n=a#3 v=0
388694 On ch=1 n=a#4 v=0
388712 On ch=1 n=f5 v=38
388728 On ch=1 n=f4 v=23
388744 On ch=1 n=c#5 v=0
388744 On ch=1 n=c#4 v=0
389082 Par ch=1 c=64 v=127
389588 Par ch=1 c=64 v=0
389642 On ch=1 n=f5 v=0
389658 On ch=1 n=f4 v=0
389692 On ch=1 n=c5 v=95
389706 On ch=1 n=c4 v=103
389706 On ch=1 n=c3 v=94
389730 Par ch=1 c=64 v=127
389752 On ch=1 n=c4 v=0
389756 On ch=1 n=c5 v=0
389762 On ch=1 n=c3 v=0
390272 On ch=1 n=c6 v=80
390272 On ch=1 n=c5 v=77
390286 On ch=1 n=g#7 v=81
390286 On ch=1 n=g#5 v=73
390288 On ch=1 n=c8 v=85
390288 On ch=1 n=f5 v=80
390296 On ch=1 n=f7 v=82
390304 On ch=1 n=c7 v=81
390324 Par ch=1 c=64 v=0
390406 Par ch=1 c=64 v=127
390794 On ch=1 n=c8 v=0
390808 On ch=1 n=g#7 v=0
390810 On ch=1 n=f7 v=0
390812 On ch=1 n=f5 v=0
390846 On ch=1 n=g#5 v=0
390852 On ch=1 n=c7 v=0
390862 On ch=1 n=c6 v=0
390868 On ch=1 n=c5 v=0
391288 Par ch=1 c=64 v=0
391312 On ch=1 n=g7 v=70
391312 On ch=1 n=c5 v=68
391326 On ch=1 n=a#5 v=71
391326 On ch=1 n=g5 v=68
391328 On ch=1 n=e7 v=72
391328 On ch=1 n=g6 v=72
391328 On ch=1 n=c6 v=70
391366 Par ch=1 c=64 v=127
391376 On ch=1 n=g6 v=0
391400 On ch=1 n=c5 v=0
391404 On ch=1 n=g7 v=0
391406 On ch=1 n=g5 v=0
391418 On ch=1 n=c6 v=0
391418 On ch=1 n=e7 v=0
391426 On ch=1 n=a#5 v=0
391516 On ch=1 n=a#5 v=78
391520 On ch=1 n=g5 v=78
391534 On ch=1 n=c6 v=73
391536 On ch=1 n=e7 v=70
391536 On ch=1 n=g#6 v=82
391536 On ch=1 n=c5 v=72
391546 On ch=1 n=g#7 v=82
391566 On ch=1 n=e7 v=0
391568 On ch=1 n=g#7 v=0
391576 On ch=1 n=g#6 v=0
391578 On ch=1 n=c5 v=0
391578 On ch=1 n=c6 v=0
391584 On ch=1 n=g5 v=0
391584 On ch=1 n=a#5 v=0
391616 On ch=1 n=a#7 v=77
391616 On ch=1 n=e7 v=70
391616 On ch=1 n=a#5 v=72
391616 On ch=1 n=g5 v=70
391618 On ch=1 n=c5 v=68
391626 On ch=1 n=a#6 v=78
391626 On ch=1 n=c6 v=71
391628 On ch=1 n=a#7 v=0
391636 On ch=1 n=a#7 v=72
391684 On ch=1 n=c5 v=0
391692 On ch=1 n=a#6 v=0
391692 On ch=1 n=g5 v=0
391704 On ch=1 n=a#5 v=0
391714 On ch=1 n=a#7 v=0
391716 On ch=1 n=c6 v=0
391736 On ch=1 n=e7 v=0
391876 Par ch=1 c=64 v=0
391896 On ch=1 n=g#7 v=72
391906 On ch=1 n=f7 v=72
391906 On ch=1 n=c7 v=77
391906 On ch=1 n=f5 v=67
391908 On ch=1 n=g#6 v=83
391920 On ch=1 n=g#5 v=70
391922 On ch=1 n=f6 v=70
391922 On ch=1 n=c6 v=68
391982 Par ch=1 c=64 v=127
392004 On ch=1 n=g#7 v=0
392010 On ch=1 n=c7 v=0
392010 On ch=1 n=f7 v=0
392012 On ch=1 n=f6 v=0
392024 On ch=1 n=c6 v=0
392034 On ch=1 n=g#6 v=0
392040 On ch=1 n=g#5 v=0
392058 On ch=1 n=f5 v=0
392360 On ch=1 n=c6 v=80
392376 On ch=1 n=f6 v=80
392376 On ch=1 n=g#5 v=80
392376 On ch=1 n=f5 v=80
392376 On ch=1 n=c5 v=80
392390 On ch=1 n=g#6 v=80
392390 On ch=1 n=f4 v=80
392408 Par ch=1 c=64 v=0
392496 Par ch=1 c=64 v=127
392520 On ch=1 n=c6 v=0
392536 On ch=1 n=c5 v=0
392536 On ch=1 n=f5 v=0
392536 On ch=1 n=g#5 v=0
392536 On ch=1 n=f6 v=0
392550 On ch=1 n=g#6 v=0
392552 On ch=1 n=f4 v=0
392864 Par ch=1 c=64 v=0
392870 On ch=1 n=g#5 v=83
392882 On ch=1 n=f3 v=86
392892 On ch=1 n=c5 v=89
392892 On ch=1 n=f4 v=86
392894 On ch=1 n=f5 v=79
392894 On ch=1 n=g#4 v=94
392894 On ch=1 n=c4 v=82
392954 Par ch=1 c=64 v=127
393092 On ch=1 n=g#5 v=0
393102 On ch=1 n=f5 v=0
393114 On ch=1 n=c5 v=0
393128 On ch=1 n=f4 v=0
393152 On ch=1 n=c4 v=0
393156 On ch=1 n=g#4 v=0
393178 On ch=1 n=f3 v=0
393476 Par ch=1 c=64 v=0
393566 On ch=1 n=e3 v=98
393576 On ch=1 n=e2 v=94
393592 Par ch=1 c=64 v=127
393596 Par ch=1 c=64 v=0
393712 Par ch=1 c=64 v=127
394600 On ch=1 n=e2 v=0
394600 On ch=1 n=e3 v=0
394600 On ch=1 n=f3 v=72
394600 On ch=1 n=f2 v=65
394618 Par ch=1 c=64 v=0
395144 On ch=1 n=d2 v=33
395146 On ch=1 n=d3 v=57
395178 On ch=1 n=f2 v=0
395178 On ch=1 n=f3 v=0
395178 Par ch=1 c=64 v=127
395206 Par ch=1 c=64 v=127
395288 On ch=1 n=d#3 v=51
395288 On ch=1 n=d#2 v=41
395298 On ch=1 n=d2 v=0
395300 On ch=1 n=d3 v=0
395416 On ch=1 n=d#3 v=0
395432 On ch=1 n=f3 v=35
395446 On ch=1 n=d#2 v=0
395450 On ch=1 n=f2 v=45
395524 On ch=1 n=d#3 v=44
395526 On ch=1 n=f3 v=0
395574 On ch=1 n=d#2 v=45
395598 On ch=1 n=f2 v=0
395606 On ch=1 n=d#3 v=0
395614 On ch=1 n=f3 v=66
395674 On ch=1 n=f2 v=63
395690 On ch=1 n=f3 v=0
395694 On ch=1 n=d#3 v=55
395702 On ch=1 n=d#2 v=0
395748 On ch=1 n=d#3 v=0
395768 On ch=1 n=f3 v=51
395778 On ch=1 n=d#2 v=57
395784 On ch=1 n=f2 v=0
395826 On ch=1 n=f3 v=0
395830 On ch=1 n=d#3 v=75
395858 On ch=1 n=f2 v=72
395878 On ch=1 n=d#2 v=0
395888 On ch=1 n=d#3 v=0
395902 On ch=1 n=f3 v=63
395944 On ch=1 n=d#2 v=64
395960 On ch=1 n=f3 v=0
395966 On ch=1 n=f2 v=0
395976 On ch=1 n=d#3 v=79
396032 On ch=1 n=d#3 v=0
396040 On ch=1 n=f3 v=66
396040 On ch=1 n=f2 v=78
396046 On ch=1 n=d#2 v=0
396096 On ch=1 n=f3 v=0
396104 On ch=1 n=d#3 v=80
396104 On ch=1 n=d#2 v=72
396128 On ch=1 n=f2 v=0
396160 On ch=1 n=f3 v=73
396166 On ch=1 n=d#3 v=0
396178 Par ch=1 c=64 v=0
396204 On ch=1 n=f2 v=85
396208 On ch=1 n=d#2 v=0
396224 On ch=1 n=f3 v=0
396242 On ch=1 n=d#3 v=84
396278 On ch=1 n=d#2 v=66
396296 On ch=1 n=d#3 v=0
396296 On ch=1 n=f3 v=84
396384 On ch=1 n=d#3 v=69
396420 On ch=1 n=f3 v=0
396478 On ch=1 n=f2 v=0
396492 On ch=1 n=d2 v=54
396514 On ch=1 n=d#3 v=0
396522 On ch=1 n=d#2 v=0
396522 On ch=1 n=d3 v=81
396644 On ch=1 n=d#2 v=90
396656 On ch=1 n=d#3 v=95
396664 On ch=1 n=d3 v=0
396688 On ch=1 n=d2 v=0
396724 Par ch=1 c=64 v=0
396742 On ch=1 n=d#2 v=0
396762 On ch=1 n=d#3 v=0
396766 Par ch=1 c=64 v=127
396774 On ch=1 n=f8 v=96
396792 On ch=1 n=c#3 v=95
396792 On ch=1 n=c#2 v=95
397150 On ch=1 n=g#4 v=62
397150 On ch=1 n=g#3 v=64
397250 On ch=1 n=g#4 v=0
397264 On ch=1 n=g#3 v=0
397336 On ch=1 n=c#5 v=79
397346 On ch=1 n=f4 v=42
397440 On ch=1 n=f4 v=0
397460 On ch=1 n=c#5 v=0
397480 On ch=1 n=d#8 v=57
397544 On ch=1 n=c#8 v=82
397552 On ch=1 n=f8 v=0
397592 On ch=1 n=d#8 v=0
397608 On ch=1 n=g#7 v=72
397642 On ch=1 n=c#8 v=0
397648 On ch=1 n=g#3 v=69
397664 On ch=1 n=g#4 v=41
397676 On ch=1 n=f7 v=77
397680 On ch=1 n=g#7 v=0
397698 On ch=1 n=g#4 v=0
397726 On ch=1 n=f7 v=0
397760 On ch=1 n=d#7 v=94
397766 On ch=1 n=g#3 v=0
397774 On ch=1 n=f4 v=69
397804 On ch=1 n=c#5 v=77
397818 On ch=1 n=c#2 v=0
397826 On ch=1 n=c#7 v=78
397828 On ch=1 n=c#3 v=0
397844 On ch=1 n=d#7 v=0
397916 On ch=1 n=g#6 v=77
397928 On ch=1 n=c#5 v=0
397934 On ch=1 n=c#7 v=0
397980 On ch=1 n=g#6 v=0
397984 On ch=1 n=f6 v=72
398004 On ch=1 n=f4 v=0
398044 On ch=1 n=f6 v=0
398070 On ch=1 n=d#6 v=76
398152 On ch=1 n=c#6 v=79
398172 On ch=1 n=d#6 v=0
398236 Par ch=1 c=64 v=0
398260 On ch=1 n=g#5 v=69
398284 On ch=1 n=c#6 v=0
398458 On ch=1 n=g#5 v=0
398814 On ch=1 n=g#3 v=58
398824 On ch=1 n=f#4 v=52
398824 On ch=1 n=d#4 v=55
398832 On ch=1 n=c6 v=70
398848 Par ch=1 c=64 v=127
398884 On ch=1 n=c#6 v=70
398888 On ch=1 n=g#3 v=0
398898 On ch=1 n=d#4 v=0
398916 On ch=1 n=f#4 v=0
398924 On ch=1 n=c6 v=0
398962 On ch=1 n=d#6 v=64
398986 On ch=1 n=c#6 v=0
399024 On ch=1 n=d#6 v=0
399052 On ch=1 n=f6 v=76
399136 On ch=1 n=f#6 v=65
399174 On ch=1 n=f6 v=0
399206 On ch=1 n=g#6 v=73
399232 On ch=1 n=f#6 v=0
399260 Par ch=1 c=64 v=0
399296 On ch=1 n=a6 v=64
399320 On ch=1 n=f#5 v=58
399320 On ch=1 n=g4 v=51
399328 On ch=1 n=g#6 v=0
399328 On ch=1 n=c5 v=55
399344 Par ch=1 c=64 v=127
399404 On ch=1 n=f#5 v=0
399420 On ch=1 n=c5 v=0
399438 On ch=1 n=a6 v=0
399454 Par ch=1 c=64 v=0
399498 On ch=1 n=g4 v=0
399498 On ch=1 n=g#4 v=56
399500 Par ch=1 c=64 v=127
399512 On ch=1 n=f#5 v=63
399512 On ch=1 n=c5 v=59
399578 On ch=1 n=c5 v=0
399582 On ch=1 n=f#5 v=0
399592 On ch=1 n=g#4 v=0
399658 On ch=1 n=g#4 v=55
399672 On ch=1 n=f#5 v=62
399672 On ch=1 n=c5 v=51
399784 On ch=1 n=c5 v=0
399806 On ch=1 n=g#4 v=0
399822 On ch=1 n=a6 v=70
399880 On ch=1 n=g#6 v=66
399906 On ch=1 n=a6 v=0
399912 On ch=1 n=f#5 v=0
399958 On ch=1 n=g#6 v=0
399964 On ch=1 n=g6 v=75
400036 On ch=1 n=f#6 v=77
400048 On ch=1 n=g6 v=0
400102 On ch=1 n=f6 v=60
400128 On ch=1 n=f#6 v=0
400152 Par ch=1 c=64 v=0
400174 On ch=1 n=e6 v=75
400184 On ch=1 n=f6 v=0
400250 On ch=1 n=a4 v=55
400254 On ch=1 n=f#5 v=61
400264 On ch=1 n=d#6 v=86
400264 On ch=1 n=c5 v=55
400276 On ch=1 n=e6 v=0
400280 Par ch=1 c=64 v=127
400290 On ch=1 n=d#6 v=0
400320 On ch=1 n=c5 v=0
400338 On ch=1 n=f#5 v=0
400428 On ch=1 n=a4 v=0
400438 On ch=1 n=g#4 v=49
400448 On ch=1 n=f#5 v=62
400454 On ch=1 n=c5 v=52
400512 On ch=1 n=c5 v=0
400524 On ch=1 n=f#5 v=0
400528 On ch=1 n=g#4 v=0
400604 On ch=1 n=f#5 v=61
400612 On ch=1 n=g#4 v=58
400624 On ch=1 n=c5 v=54
400652 On ch=1 n=f#5 v=0
400654 On ch=1 n=c5 v=0
400676 On ch=1 n=g#4 v=0
400818 Par ch=1 c=64 v=0
400856 On ch=1 n=f8 v=98
400860 On ch=1 n=c#3 v=71
400868 On ch=1 n=c#2 v=69
400922 Par ch=1 c=64 v=127
401244 On ch=1 n=g#4 v=73
401248 On ch=1 n=g#3 v=71
401346 On ch=1 n=g#4 v=0
401362 On ch=1 n=g#3 v=0
401424 On ch=1 n=f4 v=69
401436 On ch=1 n=c#5 v=92
401548 On ch=1 n=c#5 v=0
401572 On ch=1 n=d#8 v=65
401612 On ch=1 n=f4 v=0
401634 On ch=1 n=f8 v=0
401636 On ch=1 n=c#8 v=79
401680 On ch=1 n=d#8 v=0
401698 On ch=1 n=g#7 v=68
401704 On ch=1 n=g#4 v=57
401704 On ch=1 n=g#3 v=75
401734 On ch=1 n=c#8 v=0
401756 On ch=1 n=f7 v=69
401766 On ch=1 n=g#7 v=0
401776 On ch=1 n=g#4 v=0
401808 On ch=1 n=g#3 v=0
401812 On ch=1 n=f7 v=0
401846 On ch=1 n=d#7 v=79
401856 On ch=1 n=f4 v=67
401876 On ch=1 n=c#5 v=77
401914 On ch=1 n=c#7 v=72
401940 On ch=1 n=d#7 v=0
401958 On ch=1 n=c#2 v=0
401960 On ch=1 n=c#5 v=0
401990 On ch=1 n=c#3 v=0
401990 On ch=1 n=g#6 v=68
402014 On ch=1 n=c#7 v=0
402024 On ch=1 n=f4 v=0
402068 On ch=1 n=g#6 v=0
402080 On ch=1 n=f6 v=51
402116 On ch=1 n=f6 v=0
402156 On ch=1 n=d#6 v=63
402180 Par ch=1 c=64 v=0
402252 On ch=1 n=d#6 v=0
402256 On ch=1 n=c#6 v=36
402340 On ch=1 n=g#5 v=52
402352 On ch=1 n=c#6 v=0
402540 On ch=1 n=g#5 v=0
402874 On ch=1 n=c6 v=54
402874 On ch=1 n=g#3 v=53
402884 On ch=1 n=f#4 v=46
402884 On ch=1 n=d#4 v=48
402918 Par ch=1 c=64 v=127
402936 On ch=1 n=c#6 v=55
402974 On ch=1 n=d#4 v=0
402978 On ch=1 n=g#3 v=0
402988 On ch=1 n=c6 v=0
403012 On ch=1 n=f#4 v=0
403032 On ch=1 n=d#6 v=64
403060 On ch=1 n=c#6 v=0
403098 On ch=1 n=d#6 v=0
403132 On ch=1 n=f6 v=63
403212 On ch=1 n=f#6 v=57
403252 On ch=1 n=f6 v=0
403286 On ch=1 n=g#6 v=58
403326 On ch=1 n=f#6 v=0
403364 On ch=1 n=a6 v=65
403376 On ch=1 n=c5 v=49
403384 On ch=1 n=g#6 v=0
403390 Par ch=1 c=64 v=0
403436 Par ch=1 c=64 v=127
403456 On ch=1 n=c#5 v=39
403462 On ch=1 n=a6 v=0
403490 On ch=1 n=c5 v=0
403526 On ch=1 n=d#5 v=61
403564 On ch=1 n=c#5 v=0
403612 On ch=1 n=f5 v=58
403620 On ch=1 n=d#5 v=0
403688 On ch=1 n=f#5 v=63
403716 On ch=1 n=f5 v=0
403764 Par ch=1 c=64 v=0
403780 On ch=1 n=g#5 v=69
403802 On ch=1 n=f#5 v=0
403848 On ch=1 n=a5 v=60
403864 On ch=1 n=g#5 v=0
403872 On ch=1 n=a6 v=51
403894 Par ch=1 c=64 v=127
403942 On ch=1 n=g#6 v=57
403946 On ch=1 n=a5 v=0
403970 On ch=1 n=a6 v=0
404030 On ch=1 n=g6 v=55
404034 On ch=1 n=g#6 v=0
404106 On ch=1 n=f#6 v=55
404124 On ch=1 n=g6 v=0
404170 On ch=1 n=f6 v=40
404198 On ch=1 n=f#6 v=0
404244 Par ch=1 c=64 v=0
404262 On ch=1 n=f6 v=0
404262 On ch=1 n=e6 v=40
404328 On ch=1 n=a4 v=49
404358 On ch=1 n=d#6 v=51
404374 Par ch=1 c=64 v=127
404408 On ch=1 n=g#4 v=57
404422 On ch=1 n=a4 v=0
404422 On ch=1 n=e6 v=0
404496 On ch=1 n=g4 v=50
404508 On ch=1 n=g#4 v=0
404510 On ch=1 n=d#6 v=0
404576 On ch=1 n=f#4 v=45
404588 On ch=1 n=g4 v=0
404652 On ch=1 n=f#4 v=0
404678 On ch=1 n=f4 v=48
404764 On ch=1 n=f4 v=0
404766 On ch=1 n=d#4 v=30
404784 Par ch=1 c=64 v=0
404864 On ch=1 n=d#4 v=0
404864 On ch=1 n=f6 v=69
404872 On ch=1 n=b5 v=39
404872 On ch=1 n=c#4 v=31
404916 Par ch=1 c=64 v=127
404964 On ch=1 n=g#4 v=46
404976 On ch=1 n=c#4 v=0
405050 On ch=1 n=c#5 v=46
405070 On ch=1 n=g#4 v=0
405118 On ch=1 n=c#5 v=0
405128 On ch=1 n=f5 v=46
405192 On ch=1 n=c#5 v=46
405218 On ch=1 n=b5 v=0
405228 On ch=1 n=f5 v=0
405268 On ch=1 n=c#5 v=0
405268 On ch=1 n=g#4 v=46
405348 On ch=1 n=g#4 v=0
405354 On ch=1 n=c#4 v=55
405360 On ch=1 n=b5 v=64
405420 On ch=1 n=c#4 v=0
405424 On ch=1 n=b4 v=46
405520 On ch=1 n=d#6 v=74
405520 On ch=1 n=c#5 v=46
405526 On ch=1 n=b4 v=0
405532 On ch=1 n=f6 v=0
405600 On ch=1 n=f5 v=46
405634 On ch=1 n=c#5 v=0
405696 On ch=1 n=c#5 v=46
405728 On ch=1 n=f5 v=0
405732 On ch=1 n=d#6 v=0
405768 On ch=1 n=c#6 v=92
405780 On ch=1 n=c#5 v=0
405784 On ch=1 n=b4 v=46
405814 On ch=1 n=b5 v=0
405818 Par ch=1 c=64 v=0
405840 On ch=1 n=c#6 v=0
405876 On ch=1 n=b4 v=0
405876 On ch=1 n=b5 v=73
405884 On ch=1 n=c#6 v=94
405884 On ch=1 n=f#4 v=58
405948 Par ch=1 c=64 v=127
405960 On ch=1 n=b4 v=46
406012 On ch=1 n=f#4 v=0
406032 On ch=1 n=c#5 v=46
406050 On ch=1 n=b4 v=0
406100 On ch=1 n=f#5 v=46
406152 On ch=1 n=c#5 v=0
406192 On ch=1 n=c#5 v=46
406212 On ch=1 n=f#5 v=0
406280 On ch=1 n=b4 v=46
406296 On ch=1 n=c#5 v=0
406326 Par ch=1 c=64 v=0
406346 On ch=1 n=b4 v=0
406360 On ch=1 n=f#6 v=78
406360 On ch=1 n=a#5 v=63
406360 On ch=1 n=c#4 v=58
406388 On ch=1 n=c#6 v=0
406388 Par ch=1 c=64 v=127
406416 On ch=1 n=a#4 v=46
406442 On ch=1 n=b5 v=0
406448 On ch=1 n=c#4 v=0
406504 On ch=1 n=c#5 v=46
406528 On ch=1 n=a#4 v=0
406568 On ch=1 n=f#5 v=46
406624 On ch=1 n=c#5 v=0
406638 On ch=1 n=f#5 v=0
406664 On ch=1 n=c#5 v=46
406732 On ch=1 n=c#5 v=0
406744 On ch=1 n=a#4 v=46
406820 Par ch=1 c=64 v=0
406840 On ch=1 n=b5 v=69
406854 On ch=1 n=a#4 v=0
406856 On ch=1 n=g#4 v=55
406914 On ch=1 n=a#5 v=0
406924 On ch=1 n=f#6 v=0
406948 On ch=1 n=g#4 v=0
406954 Par ch=1 c=64 v=127
406972 On ch=1 n=b4 v=46
407046 On ch=1 n=c#5 v=46
407072 On ch=1 n=b4 v=0
407108 On ch=1 n=f5 v=46
407118 On ch=1 n=c#5 v=0
407198 On ch=1 n=f5 v=0
407198 On ch=1 n=f6 v=83
407216 On ch=1 n=c#5 v=46
407280 On ch=1 n=b4 v=46
407288 On ch=1 n=f6 v=0
407324 Par ch=1 c=64 v=0
407340 On ch=1 n=b4 v=0
407344 On ch=1 n=c#5 v=0
407356 On ch=1 n=c#4 v=52
407374 On ch=1 n=f6 v=82
407414 Par ch=1 c=64 v=127
407432 On ch=1 n=b4 v=46
407452 On ch=1 n=c#4 v=0
407528 On ch=1 n=d#6 v=76
407528 On ch=1 n=c#5 v=46
407544 On ch=1 n=b4 v=0
407544 On ch=1 n=f6 v=0
407576 On ch=1 n=b5 v=0
407606 On ch=1 n=c#5 v=0
407640 On ch=1 n=f5 v=46
407710 On ch=1 n=c#5 v=46
407716 On ch=1 n=c#6 v=92
407740 On ch=1 n=d#6 v=0
407750 On ch=1 n=f5 v=0
407784 On ch=1 n=b4 v=46
407824 Par ch=1 c=64 v=0
407832 On ch=1 n=c#5 v=0
407868 On ch=1 n=c#6 v=0
407870 On ch=1 n=b4 v=0
407876 On ch=1 n=c#6 v=58
407880 On ch=1 n=a#5 v=60
407882 On ch=1 n=f#4 v=60
407892 On ch=1 n=a#6 v=80
407952 Par ch=1 c=64 v=127
407978 On ch=1 n=f#4 v=0
407978 On ch=1 n=a#4 v=46
408050 On ch=1 n=c#5 v=46
408068 On ch=1 n=a#4 v=0
408108 On ch=1 n=c#5 v=0
408124 On ch=1 n=f#5 v=46
408178 On ch=1 n=c#6 v=0
408182 On ch=1 n=a#5 v=0
408194 On ch=1 n=a#6 v=0
408228 On ch=1 n=c#5 v=46
408236 On ch=1 n=f#5 v=0
408304 On ch=1 n=a#4 v=46
408330 On ch=1 n=c#5 v=0
408360 Par ch=1 c=64 v=0
408376 On ch=1 n=g#5 v=60
408386 On ch=1 n=a#6 v=97
408396 On ch=1 n=a#4 v=0
408396 On ch=1 n=c#6 v=54
408416 On ch=1 n=e4 v=78
408490 Par ch=1 c=64 v=127
408498 On ch=1 n=a#4 v=46
408512 On ch=1 n=e4 v=0
408568 On ch=1 n=c#5 v=46
408620 On ch=1 n=a#4 v=0
408634 On ch=1 n=g#5 v=0
408644 On ch=1 n=c#5 v=0
408648 On ch=1 n=g#5 v=46
408662 On ch=1 n=c#6 v=0
408662 On ch=1 n=a#6 v=0
408738 On ch=1 n=g#5 v=0
408760 On ch=1 n=a#6 v=105
408760 On ch=1 n=c#5 v=46
408840 On ch=1 n=a#4 v=46
408860 On ch=1 n=a#6 v=0
408880 On ch=1 n=c#5 v=0
408884 Par ch=1 c=64 v=0
408888 On ch=1 n=g5 v=65
408888 On ch=1 n=d#4 v=40
408916 On ch=1 n=a#4 v=0
408982 On ch=1 n=d#4 v=0
408996 Par ch=1 c=64 v=127
409000 On ch=1 n=c#6 v=72
409000 On ch=1 n=a#4 v=46
409040 On ch=1 n=g5 v=0
409080 On ch=1 n=a#6 v=104
409096 On ch=1 n=c#5 v=46
409102 On ch=1 n=a#4 v=0
409152 On ch=1 n=g5 v=46
409160 On ch=1 n=c#5 v=0
409232 On ch=1 n=d#6 v=82
409240 On ch=1 n=c#5 v=46
409252 On ch=1 n=g5 v=0
409328 On ch=1 n=a#4 v=46
409350 On ch=1 n=c#5 v=0
409356 Par ch=1 c=64 v=0
409392 On ch=1 n=a#4 v=0
409416 On ch=1 n=g4 v=62
409488 On ch=1 n=c#5 v=46
409490 On ch=1 n=f6 v=62
409494 Par ch=1 c=64 v=127
409518 On ch=1 n=g4 v=0
409536 On ch=1 n=g6 v=69
409554 On ch=1 n=f6 v=0
409592 On ch=1 n=c#5 v=0
409600 On ch=1 n=d#5 v=46
409604 On ch=1 n=f6 v=64
409618 On ch=1 n=g6 v=0
409634 On ch=1 n=a#6 v=0
409640 On ch=1 n=a#5 v=46
409658 On ch=1 n=f6 v=0
409670 On ch=1 n=c#6 v=0
409692 On ch=1 n=d#5 v=0
409712 On ch=1 n=d#6 v=0
409720 On ch=1 n=d#5 v=46
409740 On ch=1 n=a#5 v=0
409784 On ch=1 n=c#5 v=46
409800 On ch=1 n=d#6 v=73
409804 On ch=1 n=d#5 v=0
409850 On ch=1 n=d#6 v=0
409858 Par ch=1 c=64 v=0
409860 On ch=1 n=c#5 v=0
409894 On ch=1 n=d#6 v=87
409896 On ch=1 n=c#6 v=69
409904 On ch=1 n=g#4 v=61
409960 On ch=1 n=c#5 v=46
409968 Par ch=1 c=64 v=127
410020 On ch=1 n=g#4 v=0
410040 On ch=1 n=d#5 v=46
410046 On ch=1 n=c#5 v=0
410116 On ch=1 n=d#5 v=0
410124 On ch=1 n=g#5 v=46
410200 On ch=1 n=d#5 v=46
410226 On ch=1 n=g#5 v=0
410304 On ch=1 n=c#5 v=46
410318 On ch=1 n=d#5 v=0
410384 Par ch=1 c=64 v=0
410388 On ch=1 n=c#5 v=0
410416 On ch=1 n=c6 v=64
410420 On ch=1 n=g#6 v=68
410424 On ch=1 n=d#4 v=61
410456 On ch=1 n=c#6 v=0
410500 Par ch=1 c=64 v=127
410524 On ch=1 n=c5 v=46
410540 On ch=1 n=d#4 v=0
410584 On ch=1 n=d#5 v=46
410614 On ch=1 n=c6 v=0
410628 On ch=1 n=c5 v=0
410656 On ch=1 n=g#5 v=46
410672 On ch=1 n=d#5 v=0
410744 On ch=1 n=d#5 v=46
410786 On ch=1 n=g#5 v=0
410816 On ch=1 n=c5 v=46
410832 On ch=1 n=d#5 v=0
410894 Par ch=1 c=64 v=0
410928 On ch=1 n=c5 v=0
410928 On ch=1 n=a#4 v=56
410940 On ch=1 n=c#6 v=69
410956 On ch=1 n=g#6 v=0
410976 On ch=1 n=d#6 v=0
411018 Par ch=1 c=64 v=127
411052 On ch=1 n=c#5 v=46
411080 On ch=1 n=a#4 v=0
411118 On ch=1 n=d#5 v=46
411130 On ch=1 n=g6 v=89
411150 On ch=1 n=c#5 v=0
411204 On ch=1 n=d#5 v=0
411204 On ch=1 n=a#5 v=46
411232 On ch=1 n=g6 v=0
411280 On ch=1 n=d#5 v=46
411290 On ch=1 n=f6 v=98
411316 On ch=1 n=a#5 v=0
411382 On ch=1 n=c#5 v=46
411392 On ch=1 n=d#5 v=0
411404 Par ch=1 c=64 v=0
411448 On ch=1 n=d#4 v=57
411450 On ch=1 n=g6 v=82
411458 On ch=1 n=c#5 v=0
411470 On ch=1 n=f6 v=0
411510 Par ch=1 c=64 v=127
411520 On ch=1 n=c#5 v=46
411564 On ch=1 n=d#4 v=0
411612 On ch=1 n=f6 v=87
411624 On ch=1 n=d#5 v=46
411630 On ch=1 n=g6 v=0
411650 On ch=1 n=c#5 v=0
411702 On ch=1 n=d#5 v=0
411720 On ch=1 n=g5 v=46
411796 On ch=1 n=d#5 v=46
411808 On ch=1 n=c#6 v=0
411812 On ch=1 n=g5 v=0
411856 On ch=1 n=c#5 v=46
411860 On ch=1 n=d#6 v=77
411872 On ch=1 n=f6 v=0
411904 On ch=1 n=d#5 v=0
411914 Par ch=1 c=64 v=0
411952 On ch=1 n=c#5 v=0
411960 On ch=1 n=c7 v=103
411960 On ch=1 n=c6 v=35
411960 On ch=1 n=g#4 v=56
411998 On ch=1 n=d#6 v=0
412028 Par ch=1 c=64 v=127
412052 On ch=1 n=c5 v=46
412140 On ch=1 n=d#5 v=46
412160 On ch=1 n=c5 v=0
412198 On ch=1 n=c7 v=0
412214 On ch=1 n=d#5 v=0
412216 On ch=1 n=g#5 v=46
412298 On ch=1 n=d#5 v=46
412314 On ch=1 n=g#5 v=0
412374 On ch=1 n=c5 v=46
412378 On ch=1 n=d#5 v=0
412432 Par ch=1 c=64 v=0
412438 On ch=1 n=g#4 v=0
412470 On ch=1 n=c5 v=0
412488 On ch=1 n=g4 v=56
412492 On ch=1 n=c7 v=107
412542 Par ch=1 c=64 v=127
412592 On ch=1 n=g#4 v=46
412680 On ch=1 n=c5 v=46
412692 On ch=1 n=g#4 v=0
412696 On ch=1 n=c7 v=0
412768 On ch=1 n=c5 v=0
412768 On ch=1 n=d#5 v=46
412856 On ch=1 n=c5 v=46
412860 On ch=1 n=c7 v=113
412866 On ch=1 n=d#5 v=0
412928 On ch=1 n=g#4 v=46
412944 On ch=1 n=c5 v=0
412956 On ch=1 n=c7 v=0
412966 On ch=1 n=g4 v=0
412984 Par ch=1 c=64 v=0
413016 On ch=1 n=g#4 v=0
413032 On ch=1 n=f#4 v=52
413054 On ch=1 n=c7 v=108
413124 On ch=1 n=g#4 v=46
413126 Par ch=1 c=64 v=127
413136 On ch=1 n=f#4 v=0
413202 On ch=1 n=c5 v=46
413220 On ch=1 n=g#4 v=0
413290 On ch=1 n=d#5 v=46
413298 On ch=1 n=c5 v=0
413390 On ch=1 n=c5 v=46
413410 On ch=1 n=d#5 v=0
413462 On ch=1 n=g#4 v=46
413476 On ch=1 n=c5 v=0
413488 Par ch=1 c=64 v=0
413548 On ch=1 n=f#4 v=52
413562 On ch=1 n=g#4 v=0
413652 Par ch=1 c=64 v=127
413656 On ch=1 n=g#4 v=46
413676 On ch=1 n=f#4 v=0
413720 On ch=1 n=c5 v=46
413722 On ch=1 n=a#6 v=88
413748 On ch=1 n=g#4 v=0
413762 On ch=1 n=c7 v=0
413776 On ch=1 n=c6 v=0
413778 On ch=1 n=d#5 v=46
413812 On ch=1 n=c5 v=0
413860 On ch=1 n=c5 v=46
413890 On ch=1 n=d#5 v=0
413904 On ch=1 n=a#6 v=0
413926 On ch=1 n=g#4 v=46
413946 On ch=1 n=g#6 v=90
413954 On ch=1 n=c5 v=0
413996 Par ch=1 c=64 v=0
414016 On ch=1 n=g#6 v=0
414024 On ch=1 n=f4 v=29
414028 On ch=1 n=g#4 v=0
414032 On ch=1 n=g#6 v=103
414128 On ch=1 n=g#4 v=46
414146 Par ch=1 c=64 v=127
414188 On ch=1 n=f4 v=0
414196 On ch=1 n=c#5 v=46
414244 On ch=1 n=g#4 v=0
414264 On ch=1 n=f5 v=46
414278 On ch=1 n=c#5 v=0
414356 On ch=1 n=c#5 v=46
414380 On ch=1 n=f5 v=0
414456 On ch=1 n=g#4 v=46
414496 On ch=1 n=c#5 v=0
414510 Par ch=1 c=64 v=0
414544 On ch=1 n=f4 v=53
414558 On ch=1 n=g#4 v=0
414560 On ch=1 n=c#7 v=95
414590 On ch=1 n=g#6 v=0
414616 On ch=1 n=g#4 v=39
414636 Par ch=1 c=64 v=127
414664 On ch=1 n=f4 v=0
414696 On ch=1 n=c#5 v=55
414706 On ch=1 n=g#4 v=0
414776 On ch=1 n=g#5 v=62
414790 On ch=1 n=c#5 v=0
414872 On ch=1 n=c#5 v=47
414896 On ch=1 n=g#5 v=0
414968 On ch=1 n=g#4 v=46
414976 Par ch=1 c=64 v=0
414980 On ch=1 n=c#5 v=0
415038 On ch=1 n=c#7 v=0
415078 On ch=1 n=g#4 v=0
415080 On ch=1 n=c#7 v=100
415090 On ch=1 n=d#4 v=63
415130 Par ch=1 c=64 v=127
415168 On ch=1 n=d#4 v=0
415188 On ch=1 n=g#4 v=46
415276 On ch=1 n=g#4 v=0
415276 On ch=1 n=c5 v=46
415354 On ch=1 n=f#5 v=46
415358 On ch=1 n=c5 v=0
415440 On ch=1 n=c#7 v=0
415442 On ch=1 n=c5 v=46
415456 On ch=1 n=c7 v=96
415466 On ch=1 n=f#5 v=0
415512 On ch=1 n=g#4 v=46
415544 On ch=1 n=c7 v=0
415544 On ch=1 n=c5 v=0
415570 Par ch=1 c=64 v=0
415620 On ch=1 n=c7 v=97
415632 On ch=1 n=g#4 v=0
415636 On ch=1 n=d#4 v=60
415712 Par ch=1 c=64 v=127
415736 On ch=1 n=d#4 v=0
415736 On ch=1 n=g#4 v=46
415816 On ch=1 n=c7 v=0
415816 On ch=1 n=a#6 v=103
415816 On ch=1 n=c5 v=46
415824 On ch=1 n=g#4 v=0
415882 On ch=1 n=f#5 v=46
415900 On ch=1 n=c5 v=0
415988 On ch=1 n=c5 v=46
415998 On ch=1 n=f#5 v=0
416080 On ch=1 n=g#4 v=46
416084 On ch=1 n=g#6 v=81
416086 On ch=1 n=c5 v=0
416108 Par ch=1 c=64 v=0
416126 On ch=1 n=a#6 v=0
416164 On ch=1 n=d4 v=57
416176 On ch=1 n=g#4 v=0
416188 On ch=1 n=f7 v=97
416228 On ch=1 n=g#6 v=0
416232 On ch=1 n=g#4 v=46
416238 Par ch=1 c=64 v=127
416290 On ch=1 n=d4 v=0
416312 On ch=1 n=b4 v=46
416360 On ch=1 n=g#4 v=0
416392 On ch=1 n=f5 v=46
416412 On ch=1 n=b4 v=0
416440 On ch=1 n=f7 v=0
416480 On ch=1 n=b4 v=46
416534 On ch=1 n=f5 v=0
416576 On ch=1 n=g#4 v=46
416604 On ch=1 n=b4 v=0
416680 Par ch=1 c=64 v=0
416696 On ch=1 n=g#4 v=0
416700 On ch=1 n=d4 v=52
416704 On ch=1 n=f7 v=85
416792 On ch=1 n=g#4 v=46
416806 Par ch=1 c=64 v=127
416836 On ch=1 n=d4 v=0
416868 On ch=1 n=f7 v=0
416876 On ch=1 n=a#4 v=46
416932 On ch=1 n=g#4 v=0
416968 On ch=1 n=a#4 v=0
416976 On ch=1 n=f5 v=46
417042 On ch=1 n=a#4 v=46
417044 On ch=1 n=f7 v=84
417096 On ch=1 n=f5 v=0
417114 On ch=1 n=g#4 v=46
417164 On ch=1 n=f7 v=0
417178 On ch=1 n=a#4 v=0
417198 Par ch=1 c=64 v=0
417200 On ch=1 n=f7 v=81
417208 On ch=1 n=d#4 v=60
417242 On ch=1 n=g#4 v=0
417318 On ch=1 n=d#4 v=0
417320 On ch=1 n=f#4 v=46
417340 Par ch=1 c=64 v=127
417422 On ch=1 n=f#4 v=0
417424 On ch=1 n=a#4 v=46
417532 On ch=1 n=a#4 v=0
417536 On ch=1 n=d#5 v=46
417638 On ch=1 n=a#4 v=46
417662 On ch=1 n=d#5 v=0
417712 On ch=1 n=f#4 v=46
417734 On ch=1 n=a#4 v=0
417744 On ch=1 n=f7 v=0
417796 On ch=1 n=f#3 v=60
417804 On ch=1 n=d#7 v=93
417810 On ch=1 n=f#4 v=0
417896 On ch=1 n=f#4 v=46
417906 On ch=1 n=f#3 v=0
417980 On ch=1 n=c#7 v=92
417984 On ch=1 n=a#4 v=46
417998 On ch=1 n=f#4 v=0
418014 On ch=1 n=d#7 v=0
418048 On ch=1 n=d#5 v=46
418072 On ch=1 n=a#4 v=0
418152 On ch=1 n=a#4 v=46
418156 On ch=1 n=a#6 v=81
418158 On ch=1 n=d#5 v=0
418180 On ch=1 n=c#7 v=0
418224 On ch=1 n=f#4 v=46
418254 On ch=1 n=a#4 v=0
418262 Par ch=1 c=64 v=0
418294 On ch=1 n=f#4 v=0
418332 On ch=1 n=c7 v=101
418340 On ch=1 n=g#3 v=57
418366 On ch=1 n=a#6 v=0
418404 Par ch=1 c=64 v=127
418428 On ch=1 n=g#3 v=0
418428 On ch=1 n=f4 v=46
418526 On ch=1 n=g#4 v=46
418542 On ch=1 n=f4 v=0
418602 On ch=1 n=g#4 v=0
418610 On ch=1 n=c#5 v=46
418682 On ch=1 n=g#4 v=46
418700 On ch=1 n=c#5 v=0
418766 On ch=1 n=g#4 v=0
418770 On ch=1 n=f4 v=46
418810 Par ch=1 c=64 v=0
418868 On ch=1 n=a#6 v=74
418872 On ch=1 n=f4 v=0
418876 On ch=1 n=g#3 v=63
418886 On ch=1 n=c7 v=0
418936 Par ch=1 c=64 v=127
418960 On ch=1 n=g#3 v=0
418984 On ch=1 n=f4 v=46
419060 On ch=1 n=g#6 v=74
419064 On ch=1 n=g#4 v=46
419076 On ch=1 n=f4 v=0
419110 On ch=1 n=a#6 v=0
419114 On ch=1 n=c#5 v=46
419190 On ch=1 n=g#4 v=0
419232 On ch=1 n=g#4 v=46
419234 On ch=1 n=f6 v=74
419240 On ch=1 n=c#5 v=0
419254 On ch=1 n=g#6 v=0
419304 On ch=1 n=f4 v=46
419324 Par ch=1 c=64 v=0
419334 On ch=1 n=g#4 v=0
419376 On ch=1 n=g#3 v=46
419388 On ch=1 n=a#6 v=74
419392 On ch=1 n=f4 v=0
419456 On ch=1 n=f#4 v=46
419460 Par ch=1 c=64 v=127
419516 On ch=1 n=g#3 v=0
419542 On ch=1 n=g#6 v=76
419544 On ch=1 n=g#4 v=46
419588 On ch=1 n=a#6 v=0
419594 On ch=1 n=f#4 v=0
419598 On ch=1 n=f6 v=0
419616 On ch=1 n=g#4 v=0
419624 On ch=1 n=c5 v=46
419720 On ch=1 n=c5 v=0
419728 On ch=1 n=f#6 v=92
419736 On ch=1 n=g#4 v=46
419742 On ch=1 n=g#6 v=0
419824 On ch=1 n=g#4 v=0
419840 On ch=1 n=f#4 v=46
419882 Par ch=1 c=64 v=0
419888 On ch=1 n=f#6 v=0
419900 On ch=1 n=f#4 v=0
419912 On ch=1 n=f#6 v=77
419912 On ch=1 n=g#3 v=55
419960 On ch=1 n=g#6 v=77
419982 On ch=1 n=f#6 v=0
419992 On ch=1 n=f#4 v=46
420002 On ch=1 n=g#3 v=0
420010 Par ch=1 c=64 v=127
420020 On ch=1 n=f#6 v=77
420032 On ch=1 n=g#6 v=0
420078 On ch=1 n=f#4 v=0
420096 On ch=1 n=f6 v=77
420096 On ch=1 n=g#4 v=46
420104 On ch=1 n=f#6 v=0
420174 On ch=1 n=g#4 v=0
420184 On ch=1 n=c5 v=46
420292 On ch=1 n=g#4 v=46
420306 On ch=1 n=c5 v=0
420344 On ch=1 n=f6 v=0
420372 On ch=1 n=f#4 v=46
420388 On ch=1 n=g#4 v=0
420394 On ch=1 n=e6 v=96
420410 Par ch=1 c=64 v=0
420444 On ch=1 n=e6 v=0
420444 On ch=1 n=f#4 v=0
420484 On ch=1 n=c#4 v=62
420494 On ch=1 n=e6 v=91
420568 Par ch=1 c=64 v=127
420600 On ch=1 n=g#4 v=46
420658 On ch=1 n=g#4 v=0
420670 On ch=1 n=c#4 v=0
420684 On ch=1 n=c#5 v=46
420744 On ch=1 n=f5 v=46
420770 On ch=1 n=c#5 v=0
420832 On ch=1 n=c#5 v=46
420868 On ch=1 n=f5 v=0
420908 On ch=1 n=a#4 v=46
420912 Par ch=1 c=64 v=0
420930 On ch=1 n=c#5 v=0
421016 On ch=1 n=f6 v=85
421020 On ch=1 n=a#4 v=0
421026 On ch=1 n=e6 v=0
421028 On ch=1 n=g#4 v=47
421076 Par ch=1 c=64 v=127
421138 On ch=1 n=c#5 v=46
421166 On ch=1 n=g#4 v=0
421238 On ch=1 n=f5 v=46
421252 On ch=1 n=c#5 v=0
421320 On ch=1 n=g#5 v=46
421332 On ch=1 n=f5 v=0
421392 On ch=1 n=g#5 v=0
421418 On ch=1 n=g#6 v=92
421424 On ch=1 n=c#5 v=46
421480 On ch=1 n=g#4 v=48
421482 On ch=1 n=f6 v=0
421516 Par ch=1 c=64 v=0
421526 On ch=1 n=c#5 v=0
421584 On ch=1 n=f#4 v=51
421590 On ch=1 n=g#4 v=0
421592 On ch=1 n=g#5 v=79
421680 On ch=1 n=g#6 v=0
421692 Par ch=1 c=64 v=127
421700 On ch=1 n=g#4 v=46
421728 On ch=1 n=f#4 v=0
421782 On ch=1 n=c5 v=46
421796 On ch=1 n=g#4 v=0
421868 On ch=1 n=c5 v=0
421872 On ch=1 n=d#5 v=46
421984 On ch=1 n=c6 v=82
421986 On ch=1 n=d#5 v=0
421992 On ch=1 n=c5 v=46
421996 On ch=1 n=g#5 v=0
422048 On ch=1 n=g#4 v=46
422096 Par ch=1 c=64 v=0
422102 On ch=1 n=c5 v=0
422150 On ch=1 n=f#4 v=23
422158 On ch=1 n=g#4 v=0
422158 On ch=1 n=c7 v=87
422184 Par ch=1 c=64 v=127
422232 On ch=1 n=c6 v=0
422250 On ch=1 n=g#4 v=46
422254 On ch=1 n=c7 v=0
422270 On ch=1 n=f#4 v=0
422328 On ch=1 n=a#5 v=95
422328 On ch=1 n=c5 v=46
422336 On ch=1 n=a#6 v=92
422340 On ch=1 n=g#4 v=0
422400 On ch=1 n=d#5 v=46
422404 On ch=1 n=c5 v=0
422480 On ch=1 n=c5 v=46
422512 On ch=1 n=d#5 v=0
422548 On ch=1 n=a#5 v=0
422552 On ch=1 n=g#6 v=77
422552 On ch=1 n=g#5 v=81
422556 On ch=1 n=a#6 v=0
422560 On ch=1 n=g#4 v=46
422606 On ch=1 n=g#5 v=0
422606 On ch=1 n=g#6 v=0
422624 On ch=1 n=c5 v=0
422624 On ch=1 n=g#6 v=90
422632 On ch=1 n=g#5 v=85
422632 On ch=1 n=f4 v=52
422640 Par ch=1 c=64 v=0
422668 On ch=1 n=g#4 v=0
422720 On ch=1 n=g#4 v=46
422770 Par ch=1 c=64 v=127
422792 On ch=1 n=f4 v=0
422800 On ch=1 n=c#5 v=46
422842 On ch=1 n=g#4 v=0
422888 On ch=1 n=f5 v=46
422890 On ch=1 n=c#5 v=0
422974 On ch=1 n=g#5 v=0
422976 On ch=1 n=c#5 v=46
422994 On ch=1 n=f5 v=0
423064 On ch=1 n=g#4 v=46
423112 On ch=1 n=c#5 v=0
423180 On ch=1 n=g#4 v=0
423184 On ch=1 n=c#7 v=86
423192 On ch=1 n=c#6 v=78
423208 On ch=1 n=f4 v=52
423288 On ch=1 n=g#4 v=46
423330 On ch=1 n=f4 v=0
423384 On ch=1 n=c#5 v=46
423408 On ch=1 n=g#4 v=0
423414 On ch=1 n=g#6 v=0
423436 On ch=1 n=c#7 v=0
423446 On ch=1 n=c#6 v=0
423456 On ch=1 n=g#5 v=46
423478 On ch=1 n=c#5 v=0
423538 On ch=1 n=c#5 v=46
423540 On ch=1 n=g#5 v=0
423632 On ch=1 n=g#4 v=46
423640 On ch=1 n=c#5 v=0
423700 Par ch=1 c=64 v=0
423744 On ch=1 n=d#4 v=63
423750 On ch=1 n=g#4 v=0
423752 On ch=1 n=c#7 v=77
423752 On ch=1 n=g#6 v=70
423752 On ch=1 n=f#6 v=75
423752 On ch=1 n=c#6 v=77
423824 On ch=1 n=g#4 v=46
423834 On ch=1 n=d#4 v=0
423838 Par ch=1 c=64 v=127
423880 On ch=1 n=c5 v=46
423912 On ch=1 n=g#4 v=0
423952 On ch=1 n=f#5 v=46
423982 On ch=1 n=c#6 v=0
423982 On ch=1 n=c#7 v=0
423984 On ch=1 n=c5 v=0
423984 On ch=1 n=c6 v=87
424000 On ch=1 n=c7 v=87
424036 On ch=1 n=c6 v=0
424052 On ch=1 n=c7 v=0
424066 On ch=1 n=f#5 v=0
424072 On ch=1 n=c7 v=81
424080 On ch=1 n=c6 v=81
424080 On ch=1 n=c5 v=46
424162 On ch=1 n=c5 v=0
424172 On ch=1 n=c6 v=0
424174 On ch=1 n=c7 v=0
424184 On ch=1 n=g#4 v=46
424222 On ch=1 n=f#6 v=0
424222 On ch=1 n=g#6 v=0
424256 On ch=1 n=g#4 v=0
424296 On ch=1 n=c7 v=75
424296 On ch=1 n=g#6 v=79
424296 On ch=1 n=c6 v=73
424304 On ch=1 n=f#6 v=78
424304 On ch=1 n=d#4 v=65
424360 Par ch=1 c=64 v=0
424404 On ch=1 n=d#4 v=0
424412 Par ch=1 c=64 v=127
424416 On ch=1 n=g#4 v=46
424508 On ch=1 n=g#4 v=0
424512 On ch=1 n=c5 v=46
424546 On ch=1 n=c6 v=0
424546 On ch=1 n=g#6 v=0
424546 On ch=1 n=c7 v=0
424554 On ch=1 n=f#6 v=0
424592 On ch=1 n=a#6 v=95
424592 On ch=1 n=a#5 v=95
424600 On ch=1 n=f#5 v=46
424626 On ch=1 n=c5 v=0
424634 On ch=1 n=a#6 v=0
424638 On ch=1 n=a#5 v=0
424684 On ch=1 n=f#5 v=0
424688 On ch=1 n=g#6 v=79
424702 On ch=1 n=g#5 v=80
424704 On ch=1 n=f#6 v=76
424704 On ch=1 n=c5 v=46
424758 On ch=1 n=g#6 v=0
424760 On ch=1 n=g#5 v=0
424764 On ch=1 n=f#6 v=0
424804 On ch=1 n=c5 v=0
424840 On ch=1 n=g#4 v=46
424928 On ch=1 n=f7 v=90
424934 On ch=1 n=g#4 v=0
424936 On ch=1 n=g#6 v=85
424936 On ch=1 n=f6 v=83
424944 On ch=1 n=d4 v=58
424944 Par ch=1 c=64 v=0
425032 On ch=1 n=g#4 v=46
425064 Par ch=1 c=64 v=127
425084 On ch=1 n=d4 v=0
425120 On ch=1 n=b4 v=46
425158 On ch=1 n=g#4 v=0
425200 On ch=1 n=f5 v=46
425224 On ch=1 n=b4 v=0
425266 On ch=1 n=g#6 v=0
425288 On ch=1 n=b4 v=46
425298 On ch=1 n=f7 v=0
425324 On ch=1 n=f6 v=0
425326 On ch=1 n=f5 v=0
425376 On ch=1 n=g#4 v=46
425430 On ch=1 n=b4 v=0
425512 On ch=1 n=g#6 v=95
425512 On ch=1 n=f6 v=87
425520 On ch=1 n=f7 v=86
425522 On ch=1 n=d4 v=48
425528 Par ch=1 c=64 v=0
425548 On ch=1 n=g#4 v=0
425600 On ch=1 n=g#4 v=46
425628 Par ch=1 c=64 v=127
425672 On ch=1 n=d4 v=0
425688 On ch=1 n=g#4 v=0
425688 On ch=1 n=a#4 v=46
425752 On ch=1 n=f5 v=46
425774 On ch=1 n=a#4 v=0
425774 On ch=1 n=f7 v=0
425778 On ch=1 n=f6 v=0
425778 On ch=1 n=g#6 v=0
425834 On ch=1 n=a#4 v=46
425840 On ch=1 n=g#6 v=87
425840 On ch=1 n=f6 v=70
425850 On ch=1 n=f7 v=86
425890 On ch=1 n=f5 v=0
425904 On ch=1 n=g#4 v=46
425914 On ch=1 n=f6 v=0
425922 On ch=1 n=g#6 v=0
425948 On ch=1 n=a#4 v=0
425966 On ch=1 n=f7 v=0
425998 Par ch=1 c=64 v=0
426010 On ch=1 n=g#4 v=0
426016 On ch=1 n=g#6 v=84
426016 On ch=1 n=d#4 v=51
426024 On ch=1 n=f7 v=84
426024 On ch=1 n=f6 v=78
426120 On ch=1 n=f#4 v=46
426142 On ch=1 n=d#4 v=0
426148 Par ch=1 c=64 v=127
426192 On ch=1 n=f#4 v=0
426224 On ch=1 n=a#4 v=46
426266 On ch=1 n=g#6 v=0
426280 On ch=1 n=f7 v=0
426290 On ch=1 n=d#5 v=46
426296 On ch=1 n=f6 v=0
426344 On ch=1 n=a#4 v=0
426384 On ch=1 n=a#4 v=46
426402 On ch=1 n=d#5 v=0
426478 On ch=1 n=a#4 v=0
426488 On ch=1 n=f#4 v=46
426550 On ch=1 n=f#4 v=0
426584 On ch=1 n=f#3 v=60
426592 On ch=1 n=f#6 v=67
426592 On ch=1 n=d#6 v=67
426596 On ch=1 n=d#7 v=66
426680 On ch=1 n=f#4 v=46
426702 On ch=1 n=f#3 v=0
426740 On ch=1 n=f#4 v=0
426772 On ch=1 n=d#6 v=0
426772 On ch=1 n=f#6 v=0
426776 On ch=1 n=d#7 v=0
426776 On ch=1 n=a#4 v=46
426782 On ch=1 n=c#7 v=69
426784 On ch=1 n=f#6 v=53
426784 On ch=1 n=c#6 v=66
426848 On ch=1 n=d#5 v=46
426866 On ch=1 n=a#4 v=0
426920 On ch=1 n=a#4 v=46
426924 On ch=1 n=d#5 v=0
426974 On ch=1 n=f#6 v=0
426980 On ch=1 n=a#4 v=0
427000 On ch=1 n=f#4 v=46
427008 On ch=1 n=a#6 v=61
427008 On ch=1 n=f#6 v=52
427012 On ch=1 n=c#7 v=0
427014 On ch=1 n=c#6 v=0
427024 On ch=1 n=a#5 v=63
427084 On ch=1 n=f#4 v=0
427086 On ch=1 n=f#6 v=0
427092 On ch=1 n=a#6 v=0
427096 Par ch=1 c=64 v=0
427102 On ch=1 n=a#5 v=0
427122 On ch=1 n=g#3 v=75
427130 On ch=1 n=c7 v=79
427130 On ch=1 n=c6 v=75
427136 On ch=1 n=g#6 v=52
427222 Par ch=1 c=64 v=127
427236 On ch=1 n=f4 v=58
427248 On ch=1 n=g#3 v=0
427334 On ch=1 n=g#4 v=58
427350 On ch=1 n=f4 v=0
427412 On ch=1 n=g#4 v=0
427416 On ch=1 n=c#5 v=58
427500 On ch=1 n=g#4 v=58
427512 On ch=1 n=c7 v=0
427518 On ch=1 n=c#5 v=0
427518 On ch=1 n=g#6 v=0
427518 On ch=1 n=c6 v=0
427584 On ch=1 n=f4 v=58
427604 Par ch=1 c=64 v=0
427614 On ch=1 n=g#4 v=0
427660 On ch=1 n=a#6 v=56
427664 On ch=1 n=f#6 v=59
427670 On ch=1 n=a#5 v=65
427670 On ch=1 n=g#3 v=60
427684 On ch=1 n=f4 v=0
427716 Par ch=1 c=64 v=127
427724 On ch=1 n=f#6 v=0
427754 On ch=1 n=a#5 v=0
427758 On ch=1 n=a#6 v=0
427764 On ch=1 n=g#3 v=0
427784 On ch=1 n=f4 v=46
427852 On ch=1 n=g#5 v=69
427856 On ch=1 n=g#6 v=59
427856 On ch=1 n=f6 v=55
427856 On ch=1 n=g#4 v=46
427878 On ch=1 n=f4 v=0
427914 On ch=1 n=g#5 v=0
427916 On ch=1 n=f6 v=0
427918 On ch=1 n=g#4 v=0
427928 On ch=1 n=g#6 v=0
427936 On ch=1 n=c#5 v=46
428016 On ch=1 n=f6 v=57
428018 On ch=1 n=c#5 v=0
428018 On ch=1 n=a#5 v=61
428020 On ch=1 n=a#6 v=69
428020 On ch=1 n=g#4 v=46
428076 On ch=1 n=f6 v=0
428084 On ch=1 n=a#5 v=0
428104 On ch=1 n=f4 v=46
428108 On ch=1 n=a#6 v=0
428114 On ch=1 n=g#4 v=0
428172 Par ch=1 c=64 v=0
428176 On ch=1 n=f4 v=0
428192 On ch=1 n=g#3 v=58
428198 On ch=1 n=b6 v=67
428198 On ch=1 n=f6 v=65
428204 On ch=1 n=b5 v=61
428292 On ch=1 n=g#3 v=0
428308 Par ch=1 c=64 v=127
428318 On ch=1 n=f4 v=46
428394 On ch=1 n=f4 v=0
428408 On ch=1 n=g#4 v=46
428446 On ch=1 n=b5 v=0
428458 On ch=1 n=f6 v=0
428458 On ch=1 n=b6 v=0
428486 On ch=1 n=g#4 v=0
428488 On ch=1 n=d5 v=46
428584 On ch=1 n=f6 v=72
428584 On ch=1 n=g#4 v=46
428586 On ch=1 n=a#6 v=83
428592 On ch=1 n=a#5 v=78
428596 On ch=1 n=d5 v=0
428648 On ch=1 n=f6 v=0
428656 On ch=1 n=f4 v=46
428674 On ch=1 n=a#5 v=0
428694 On ch=1 n=a#6 v=0
428698 Par ch=1 c=64 v=0
428704 On ch=1 n=g#4 v=0
428758 On ch=1 n=f4 v=0
428758 On ch=1 n=g#3 v=60
428766 On ch=1 n=b6 v=78
428772 On ch=1 n=b5 v=75
428774 On ch=1 n=f6 v=69
428828 Par ch=1 c=64 v=127
428854 On ch=1 n=f4 v=46
428866 On ch=1 n=g#3 v=0
428936 On ch=1 n=g#4 v=46
428980 On ch=1 n=f4 v=0
429026 On ch=1 n=g#4 v=0
429036 On ch=1 n=d5 v=46
429100 On ch=1 n=g#4 v=46
429140 On ch=1 n=d5 v=0
429144 Par ch=1 c=64 v=0
429202 On ch=1 n=f4 v=46
429224 On ch=1 n=g#4 v=0
429280 Par ch=1 c=64 v=127
429300 On ch=1 n=f4 v=0
429300 On ch=1 n=g#3 v=66
429376 On ch=1 n=f4 v=46
429390 On ch=1 n=g#3 v=0
429404 On ch=1 n=f6 v=0
429434 On ch=1 n=b6 v=0
429444 On ch=1 n=b5 v=0
429480 On ch=1 n=g#4 v=46
429518 On ch=1 n=f4 v=0
429568 On ch=1 n=d5 v=46
429574 On ch=1 n=g#4 v=0
429624 On ch=1 n=a#6 v=76
429624 On ch=1 n=f6 v=74
429632 On ch=1 n=a#5 v=83
429642 On ch=1 n=g#4 v=46
429676 On ch=1 n=d5 v=0
429720 On ch=1 n=f6 v=0
429720 On ch=1 n=a#6 v=0
429728 On ch=1 n=a#5 v=0
429730 On ch=1 n=f4 v=46
429736 On ch=1 n=g#4 v=0
429744 Par ch=1 c=64 v=0
429808 On ch=1 n=f6 v=72
429810 On ch=1 n=g#3 v=60
429820 On ch=1 n=f4 v=0
429820 On ch=1 n=b6 v=91
429820 On ch=1 n=b5 v=83
429856 Par ch=1 c=64 v=127
429892 On ch=1 n=f4 v=58
429900 On ch=1 n=b6 v=0
429904 On ch=1 n=f6 v=0
429910 On ch=1 n=g#3 v=0
429916 On ch=1 n=b5 v=0
429984 On ch=1 n=a#6 v=95
429984 On ch=1 n=f6 v=74
429992 On ch=1 n=g#4 v=58
430000 On ch=1 n=a#5 v=95
430014 On ch=1 n=f4 v=0
430044 On ch=1 n=f6 v=0
430052 On ch=1 n=a#6 v=0
430060 On ch=1 n=a#5 v=0
430062 On ch=1 n=d5 v=58
430078 On ch=1 n=g#4 v=0
430166 On ch=1 n=b6 v=95
430166 On ch=1 n=b5 v=92
430168 On ch=1 n=f6 v=75
430168 On ch=1 n=g#4 v=58
430176 On ch=1 n=d5 v=0
430228 On ch=1 n=f6 v=0
430230 On ch=1 n=g#4 v=0
430232 On ch=1 n=f4 v=58
430234 On ch=1 n=b5 v=0
430236 On ch=1 n=b6 v=0
430266 Par ch=1 c=64 v=0
430314 On ch=1 n=f4 v=0
430328 On ch=1 n=g#3 v=69
430350 On ch=1 n=b5 v=95
430352 On ch=1 n=b6 v=95
430352 On ch=1 n=f#6 v=95
430400 Par ch=1 c=64 v=127
430410 On ch=1 n=d#4 v=58
430428 On ch=1 n=g#3 v=0
430492 On ch=1 n=f#4 v=58
430516 On ch=1 n=d#4 v=0
430566 On ch=1 n=d#5 v=58
430608 On ch=1 n=f#4 v=0
430640 On ch=1 n=b5 v=0
430642 On ch=1 n=f#6 v=0
430642 On ch=1 n=b6 v=0
430656 On ch=1 n=a#6 v=94
430666 On ch=1 n=f#6 v=86
430672 On ch=1 n=a#5 v=95
430678 On ch=1 n=f#4 v=58
430694 On ch=1 n=d#5 v=0
430760 On ch=1 n=d#4 v=58
430792 On ch=1 n=f#4 v=0
430828 Par ch=1 c=64 v=0
430836 On ch=1 n=a#6 v=0
430846 On ch=1 n=f#6 v=0
430846 On ch=1 n=g#3 v=60
430852 On ch=1 n=a#5 v=0
430854 On ch=1 n=c#7 v=83
430860 On ch=1 n=g6 v=87
430860 On ch=1 n=c#6 v=83
430868 On ch=1 n=d#4 v=0
430868 Par ch=1 c=64 v=127
430960 On ch=1 n=g#3 v=0
430964 Par ch=1 c=64 v=127
431004 On ch=1 n=e4 v=58
431092 On ch=1 n=g4 v=58
431094 On ch=1 n=e4 v=0
431162 On ch=1 n=g4 v=0
431186 On ch=1 n=e5 v=58
431256 On ch=1 n=g4 v=58
431274 On ch=1 n=e5 v=0
431318 Par ch=1 c=64 v=0
431328 On ch=1 n=e4 v=59
431400 On ch=1 n=g4 v=0
431424 On ch=1 n=e4 v=0
431424 Par ch=1 c=64 v=127
431436 Par ch=1 c=64 v=0
431448 On ch=1 n=g#3 v=62
431512 Par ch=1 c=64 v=127
431544 On ch=1 n=e4 v=60
431550 On ch=1 n=g#3 v=0
431638 On ch=1 n=g6 v=0
431644 On ch=1 n=e4 v=0
431664 On ch=1 n=g4 v=60
431690 On ch=1 n=c#7 v=0
431736 On ch=1 n=c#6 v=0
431748 On ch=1 n=e5 v=60
431764 On ch=1 n=g4 v=0
431780 Par ch=1 c=64 v=0
431808 On ch=1 n=g4 v=60
431824 On ch=1 n=c7 v=85
431828 On ch=1 n=c6 v=82
431840 On ch=1 n=g6 v=81
431878 On ch=1 n=e5 v=0
431900 On ch=1 n=c6 v=0
431904 On ch=1 n=e4 v=60
431914 On ch=1 n=g6 v=0
431918 On ch=1 n=c7 v=0
431922 Par ch=1 c=64 v=127
431936 On ch=1 n=g4 v=0
432000 Par ch=1 c=64 v=0
432006 On ch=1 n=e4 v=0
432052 On ch=1 n=c#7 v=83
432052 On ch=1 n=c#6 v=88
432068 On ch=1 n=g6 v=90
432076 On ch=1 n=g#3 v=75
432090 Par ch=1 c=64 v=127
432170 On ch=1 n=g#3 v=0
432176 On ch=1 n=e4 v=61
432182 On ch=1 n=g6 v=0
432188 On ch=1 n=c#6 v=0
432196 On ch=1 n=c#7 v=0
432240 On ch=1 n=c7 v=91
432240 On ch=1 n=g4 v=61
432252 On ch=1 n=g6 v=88
432260 On ch=1 n=c6 v=90
432266 On ch=1 n=e4 v=0
432314 On ch=1 n=g4 v=0
432320 On ch=1 n=c7 v=0
432330 On ch=1 n=g6 v=0
432332 On ch=1 n=c6 v=0
432336 On ch=1 n=e5 v=70
432372 Par ch=1 c=64 v=0
432402 Par ch=1 c=64 v=0
432408 On ch=1 n=g4 v=62
432416 On ch=1 n=c#6 v=91
432422 On ch=1 n=c#7 v=95
432428 On ch=1 n=g6 v=95
432444 On ch=1 n=e5 v=0
432480 On ch=1 n=e4 v=62
432496 Par ch=1 c=64 v=127
432500 Par ch=1 c=64 v=127
432502 On ch=1 n=c#6 v=0
432506 On ch=1 n=g6 v=0
432520 On ch=1 n=c#7 v=0
432526 On ch=1 n=g4 v=0
432540 Par ch=1 c=64 v=0
432552 On ch=1 n=c#7 v=95
432562 Par ch=1 c=64 v=127
432576 On ch=1 n=g#6 v=95
432576 On ch=1 n=c#6 v=95
432582 On ch=1 n=g#3 v=75
432586 On ch=1 n=e4 v=0
432644 Par ch=1 c=64 v=127
432664 Par ch=1 c=64 v=0
432694 On ch=1 n=g#3 v=0
432708 On ch=1 n=f4 v=63
432786 On ch=1 n=g#4 v=63
432792 Par ch=1 c=64 v=0
432796 On ch=1 n=f4 v=0
432836 On ch=1 n=g#6 v=0
432842 On ch=1 n=c#7 v=0
432852 On ch=1 n=f5 v=63
432860 On ch=1 n=g#4 v=0
432872 Par ch=1 c=64 v=127
432888 On ch=1 n=c#6 v=0
432906 Par ch=1 c=64 v=127
432936 On ch=1 n=g#4 v=63
432946 On ch=1 n=f5 v=0
432960 On ch=1 n=g#6 v=90
432960 On ch=1 n=c6 v=93
432968 On ch=1 n=c7 v=94
432998 On ch=1 n=g#4 v=0
433032 On ch=1 n=f4 v=72
433056 On ch=1 n=c6 v=0
433056 On ch=1 n=g#6 v=0
433064 On ch=1 n=c7 v=0
433100 Par ch=1 c=64 v=0
433120 On ch=1 n=a6 v=92
433120 On ch=1 n=g#3 v=80
433136 On ch=1 n=d#6 v=95
433142 On ch=1 n=d#7 v=95
433154 On ch=1 n=f4 v=0
433188 Par ch=1 c=64 v=127
433200 On ch=1 n=d#4 v=63
433204 On ch=1 n=g#3 v=0
433272 On ch=1 n=f#4 v=64
433352 On ch=1 n=f#4 v=0
433364 On ch=1 n=d#4 v=0
433404 On ch=1 n=c5 v=64
433410 Par ch=1 c=64 v=0
433428 Par ch=1 c=64 v=0
433438 On ch=1 n=a6 v=0
433454 On ch=1 n=d#6 v=0
433460 On ch=1 n=d#7 v=0
433488 On ch=1 n=a6 v=87
433488 On ch=1 n=f#4 v=64
433502 On ch=1 n=d#7 v=95
433508 On ch=1 n=c5 v=0
433508 On ch=1 n=d#6 v=87
433520 Par ch=1 c=64 v=127
433562 Par ch=1 c=64 v=127
433588 On ch=1 n=a6 v=0
433598 On ch=1 n=f#4 v=0
433600 Par ch=1 c=64 v=0
433608 On ch=1 n=d#4 v=65
433616 On ch=1 n=d#6 v=0
433628 On ch=1 n=d#7 v=0
433664 Par ch=1 c=64 v=0
433688 On ch=1 n=g#3 v=81
433694 On ch=1 n=d#6 v=86
433702 On ch=1 n=d#7 v=95
433708 On ch=1 n=g#6 v=95
433710 On ch=1 n=d#4 v=0
433728 Par ch=1 c=64 v=127
433744 Par ch=1 c=64 v=127
433780 On ch=1 n=g#3 v=0
433780 On ch=1 n=b3 v=66
433856 On ch=1 n=f4 v=66
433892 On ch=1 n=b3 v=0
433932 On ch=1 n=b4 v=66
433958 On ch=1 n=f4 v=0
433984 On ch=1 n=d#6 v=0
433992 On ch=1 n=d#7 v=0
433998 On ch=1 n=g#6 v=0
434016 On ch=1 n=d7 v=91
434016 On ch=1 n=g#6 v=95
434016 On ch=1 n=f4 v=66
434022 On ch=1 n=d6 v=87
434072 On ch=1 n=b4 v=0
434122 On ch=1 n=f4 v=0
434126 On ch=1 n=g#6 v=0
434126 On ch=1 n=d7 v=0
434128 On ch=1 n=b3 v=66
434132 On ch=1 n=d6 v=0
434158 Par ch=1 c=64 v=0
434180 On ch=1 n=b3 v=0
434212 On ch=1 n=f7 v=95
434220 On ch=1 n=b6 v=95
434228 On ch=1 n=f6 v=95
434228 On ch=1 n=g#3 v=79
434284 Par ch=1 c=64 v=127
434308 On ch=1 n=g#3 v=0
434334 On ch=1 n=f4 v=66
434340 Par ch=1 c=64 v=0
434386 Par ch=1 c=64 v=0
434410 On ch=1 n=g#4 v=67
434420 On ch=1 n=f4 v=0
434460 Par ch=1 c=64 v=127
434462 On ch=1 n=g#4 v=0
434478 On ch=1 n=d5 v=67
434542 Par ch=1 c=64 v=127
434562 On ch=1 n=f7 v=0
434570 On ch=1 n=b6 v=0
434574 On ch=1 n=g#4 v=67
434576 On ch=1 n=f7 v=95
434578 On ch=1 n=f6 v=0
434580 On ch=1 n=f6 v=95
434588 On ch=1 n=b6 v=95
434616 On ch=1 n=d5 v=0
434632 On ch=1 n=f4 v=68
434674 On ch=1 n=f6 v=0
434674 Par ch=1 c=64 v=0
434696 On ch=1 n=b6 v=0
434712 On ch=1 n=f7 v=0
434712 On ch=1 n=g#4 v=0
434736 On ch=1 n=f6 v=95
434748 On ch=1 n=f4 v=0
434756 On ch=1 n=f7 v=95
434756 On ch=1 n=a#6 v=95
434774 On ch=1 n=g#3 v=84
434788 Par ch=1 c=64 v=127
434832 On ch=1 n=c#4 v=69
434848 Par ch=1 c=64 v=0
434864 On ch=1 n=g#3 v=0
434898 On ch=1 n=c#4 v=0
434912 On ch=1 n=g4 v=69
434916 On ch=1 n=a#6 v=0
434922 On ch=1 n=f6 v=0
434930 On ch=1 n=f7 v=0
434930 Par ch=1 c=64 v=127
435000 On ch=1 n=c#5 v=69
435016 On ch=1 n=g4 v=0
435072 On ch=1 n=a#6 v=95
435078 On ch=1 n=e7 v=94
435078 On ch=1 n=e6 v=91
435092 On ch=1 n=g4 v=69
435104 On ch=1 n=c#5 v=0
435160 On ch=1 n=e6 v=0
435168 On ch=1 n=a#6 v=0
435168 On ch=1 n=c#4 v=69
435180 On ch=1 n=e7 v=0
435190 On ch=1 n=g4 v=0
435194 Par ch=1 c=64 v=0
435266 On ch=1 n=c#4 v=0
435270 On ch=1 n=g7 v=95
435270 On ch=1 n=g#3 v=87
435280 On ch=1 n=c#7 v=95
435280 On ch=1 n=g6 v=95
435302 Par ch=1 c=64 v=127
435364 On ch=1 n=g#3 v=0
435392 Par ch=1 c=64 v=0
435392 Par ch=1 c=64 v=0
435396 On ch=1 n=e4 v=69
435456 On ch=1 n=a#4 v=94
435474 On ch=1 n=e4 v=0
435506 On ch=1 n=a#4 v=0
435508 Par ch=1 c=64 v=127
435526 Par ch=1 c=64 v=127
435528 On ch=1 n=e5 v=70
435600 On ch=1 n=g7 v=0
435610 On ch=1 n=g6 v=0
435610 On ch=1 n=c#7 v=0
435632 On ch=1 n=g7 v=95
435632 On ch=1 n=a#4 v=70
435634 On ch=1 n=g6 v=95
435642 On ch=1 n=c#7 v=95
435654 On ch=1 n=e5 v=0
435696 On ch=1 n=a#4 v=0
435708 On ch=1 n=g6 v=0
435718 On ch=1 n=c#7 v=0
435720 On ch=1 n=e4 v=70
435734 Par ch=1 c=64 v=0
435744 Par ch=1 c=64 v=0
435750 On ch=1 n=g7 v=0
435800 On ch=1 n=e4 v=0
435820 On ch=1 n=c7 v=95
435824 Par ch=1 c=64 v=127
435828 On ch=1 n=g7 v=95
435828 On ch=1 n=g#3 v=89
435836 On ch=1 n=g6 v=87
435858 Par ch=1 c=64 v=127
435908 On ch=1 n=d#4 v=71
435912 On ch=1 n=g#3 v=0
435972 On ch=1 n=f#4 v=71
435984 On ch=1 n=d#4 v=0
436050 On ch=1 n=f#4 v=0
436080 On ch=1 n=d#5 v=71
436150 On ch=1 n=c7 v=0
436158 On ch=1 n=g7 v=0
436166 On ch=1 n=g6 v=0
436172 On ch=1 n=g#7 v=95
436176 On ch=1 n=c7 v=95
436176 On ch=1 n=g#6 v=95
436184 On ch=1 n=f#4 v=72
436258 On ch=1 n=d#5 v=0
436264 On ch=1 n=f#4 v=72
436276 Par ch=1 c=64 v=0
436280 On ch=1 n=d#4 v=72
436300 On ch=1 n=g#6 v=0
436308 On ch=1 n=f#4 v=0
436316 On ch=1 n=g#7 v=0
436320 On ch=1 n=c7 v=0
436328 On ch=1 n=d#4 v=72
436342 On ch=1 n=d#4 v=0
436342 Par ch=1 c=64 v=0
436358 On ch=1 n=f#4 v=0
436358 Par ch=1 c=64 v=0
436366 On ch=1 n=c#7 v=95
436374 On ch=1 n=a7 v=95
436380 On ch=1 n=a6 v=95
436380 On ch=1 n=g#3 v=94
436394 On ch=1 n=d#4 v=0
436404 Par ch=1 c=64 v=127
436440 On ch=1 n=d#4 v=72
436454 Par ch=1 c=64 v=127
436492 On ch=1 n=g#3 v=0
436496 Par ch=1 c=64 v=127
436526 On ch=1 n=f#4 v=72
436542 On ch=1 n=d#4 v=0
436606 On ch=1 n=c5 v=73
436630 On ch=1 n=f#4 v=0
436676 On ch=1 n=c#7 v=0
436684 On ch=1 n=a7 v=0
436690 On ch=1 n=a6 v=0
436712 On ch=1 n=f#4 v=73
436732 On ch=1 n=c7 v=95
436732 On ch=1 n=c6 v=95
436764 On ch=1 n=c5 v=0
436806 On ch=1 n=f#4 v=0
436824 On ch=1 n=d#4 v=73
436828 On ch=1 n=c7 v=0
436832 On ch=1 n=c6 v=0
436876 Par ch=1 c=64 v=0
436890 On ch=1 n=d#4 v=0
436934 On ch=1 n=f6 v=95
436934 On ch=1 n=c#6 v=95
436934 On ch=1 n=c#3 v=95
436936 On ch=1 n=c#7 v=95
436978 Par ch=1 c=64 v=127
437256 On ch=1 n=c#7 v=0
437264 On ch=1 n=f6 v=0
437288 On ch=1 n=c#6 v=0
437304 Par ch=1 c=64 v=127
437314 On ch=1 n=g#3 v=62
437338 Par ch=1 c=64 v=127
437360 Par ch=1 c=64 v=0
437372 Par ch=1 c=64 v=0
437418 On ch=1 n=f4 v=52
437440 Par ch=1 c=64 v=127
437462 On ch=1 n=g#3 v=0
437474 Par ch=1 c=64 v=127
437520 On ch=1 n=c#5 v=84
437526 On ch=1 n=f5 v=73
437542 On ch=1 n=f4 v=0
437598 On ch=1 n=c#5 v=0
437608 On ch=1 n=c#6 v=84
437630 On ch=1 n=f5 v=0
437688 On ch=1 n=g#6 v=77
437692 On ch=1 n=c#3 v=0
437694 On ch=1 n=c#6 v=0
437722 On ch=1 n=g#6 v=0
437766 On ch=1 n=f6 v=90
437838 On ch=1 n=f6 v=0
437842 Par ch=1 c=64 v=0
437860 Par ch=1 c=64 v=0
437874 On ch=1 n=c#7 v=82
437934 On ch=1 n=c#7 v=0
437944 On ch=1 n=a#7 v=63
437952 Par ch=1 c=64 v=127
437978 Par ch=1 c=64 v=0
437994 Par ch=1 c=64 v=127
437996 Par ch=1 c=64 v=0
438022 On ch=1 n=g#7 v=92
438028 On ch=1 n=c7 v=81
438042 On ch=1 n=a#7 v=0
438052 On ch=1 n=g#2 v=81
438088 Par ch=1 c=64 v=127
438130 Par ch=1 c=64 v=127
438232 Par ch=1 c=64 v=0
438312 On ch=1 n=g#3 v=62
438312 Par ch=1 c=64 v=127
438432 On ch=1 n=d#4 v=65
438460 On ch=1 n=g#3 v=0
438528 On ch=1 n=c5 v=74
438542 On ch=1 n=f#5 v=92
438544 On ch=1 n=d#4 v=0
438600 On ch=1 n=c6 v=77
438604 On ch=1 n=c5 v=0
438632 On ch=1 n=f#5 v=0
438658 On ch=1 n=g#7 v=0
438662 On ch=1 n=c7 v=0
438672 On ch=1 n=c6 v=0
438678 On ch=1 n=g#6 v=82
438716 On ch=1 n=g#6 v=0
438764 On ch=1 n=f#6 v=81
438772 Par ch=1 c=64 v=0
438818 Par ch=1 c=64 v=0
438824 On ch=1 n=c7 v=71
438840 On ch=1 n=f#6 v=0
438884 On ch=1 n=g#2 v=0
438892 Par ch=1 c=64 v=127
438904 On ch=1 n=g#7 v=69
438908 Par ch=1 c=64 v=0
438914 On ch=1 n=c7 v=0
438954 Par ch=1 c=64 v=0
438974 Par ch=1 c=64 v=127
439000 On ch=1 n=f7 v=75
439004 On ch=1 n=c#7 v=90
439010 On ch=1 n=c#3 v=75
439024 On ch=1 n=g#7 v=0
439028 Par ch=1 c=64 v=127
439110 Par ch=1 c=64 v=127
439280 Par ch=1 c=64 v=0
439362 Par ch=1 c=64 v=127
439412 On ch=1 n=g#3 v=62
439416 Par ch=1 c=64 v=0
439488 On ch=1 n=f4 v=69
439498 Par ch=1 c=64 v=127
439518 On ch=1 n=g#3 v=0
439552 On ch=1 n=f5 v=73
439564 On ch=1 n=c#5 v=82
439584 On ch=1 n=f4 v=0
439624 On ch=1 n=c#6 v=79
439628 On ch=1 n=c#5 v=0
439634 On ch=1 n=f7 v=0
439638 On ch=1 n=c#7 v=0
439652 On ch=1 n=f5 v=0
439692 On ch=1 n=g#6 v=75
439714 On ch=1 n=c#6 v=0
439730 On ch=1 n=g#6 v=0
439768 On ch=1 n=f6 v=87
439824 Par ch=1 c=64 v=0
439824 Par ch=1 c=64 v=0
439830 On ch=1 n=c#3 v=0
439838 On ch=1 n=f6 v=0
439848 On ch=1 n=c#7 v=86
439920 On ch=1 n=c#7 v=0
439928 On ch=1 n=a#7 v=90
439940 Par ch=1 c=64 v=127
439958 Par ch=1 c=64 v=127
439960 Par ch=1 c=64 v=0
439960 Par ch=1 c=64 v=0
440000 On ch=1 n=c7 v=78
440008 On ch=1 n=g#2 v=75
440014 On ch=1 n=g#7 v=93
440032 On ch=1 n=a#7 v=0
440076 Par ch=1 c=64 v=127
440094 Par ch=1 c=64 v=127
440312 Par ch=1 c=64 v=0
440328 On ch=1 n=g#3 v=62
440392 Par ch=1 c=64 v=127
440424 On ch=1 n=d#4 v=69
440476 On ch=1 n=g#3 v=0
440504 On ch=1 n=c5 v=62
440512 On ch=1 n=f#5 v=92
440540 On ch=1 n=d#4 v=0
440588 On ch=1 n=f#5 v=0
440590 On ch=1 n=c6 v=83
440602 On ch=1 n=c5 v=0
440630 On ch=1 n=c7 v=0
440644 On ch=1 n=c6 v=0
440648 On ch=1 n=g#7 v=0
440656 On ch=1 n=g#6 v=95
440686 On ch=1 n=g#6 v=0
440732 On ch=1 n=f#6 v=82
440774 Par ch=1 c=64 v=0
440790 Par ch=1 c=64 v=0
440802 On ch=1 n=c7 v=71
440838 On ch=1 n=g#2 v=0
440852 On ch=1 n=f#6 v=0
440882 On ch=1 n=g#7 v=78
440886 Par ch=1 c=64 v=127
440898 On ch=1 n=c7 v=0
440910 Par ch=1 c=64 v=0
440926 Par ch=1 c=64 v=0
440928 Par ch=1 c=64 v=127
441000 On ch=1 n=g#7 v=0
441016 On ch=1 n=c#7 v=95
441078 On ch=1 n=a3 v=95
441080 On ch=1 n=a2 v=95
441082 On ch=1 n=c#8 v=95
441120 Par ch=1 c=64 v=127
441122 On ch=1 n=c#7 v=0
441248 On ch=1 n=a3 v=0
441288 On ch=1 n=d#4 v=95
441288 On ch=1 n=d#3 v=95
441302 On ch=1 n=b7 v=95
441308 On ch=1 n=c#8 v=0
441372 On ch=1 n=a7 v=95
441398 On ch=1 n=d#3 v=0
441408 On ch=1 n=d#4 v=0
441414 On ch=1 n=b7 v=0
441446 On ch=1 n=e7 v=95
441472 On ch=1 n=e4 v=95
441476 On ch=1 n=a7 v=0
441478 On ch=1 n=e3 v=95
441548 On ch=1 n=c#7 v=95
441558 On ch=1 n=e7 v=0
441574 On ch=1 n=e3 v=0
441574 On ch=1 n=e4 v=0
441636 On ch=1 n=b6 v=95
441636 On ch=1 n=e4 v=95
441650 On ch=1 n=e3 v=90
441678 On ch=1 n=c#7 v=0
441724 On ch=1 n=a6 v=84
441752 On ch=1 n=b6 v=0
441814 On ch=1 n=e6 v=48
441884 On ch=1 n=a6 v=0
441898 On ch=1 n=c#6 v=95
441946 On ch=1 n=e6 v=0
441988 On ch=1 n=b5 v=80
441994 On ch=1 n=c#6 v=0
442076 On ch=1 n=a5 v=48
442116 On ch=1 n=b5 v=0
442120 On ch=1 n=e4 v=0
442152 On ch=1 n=e5 v=95
442210 On ch=1 n=a2 v=0
442214 On ch=1 n=a5 v=0
442258 On ch=1 n=c#5 v=95
442272 On ch=1 n=e5 v=0
442344 On ch=1 n=d#3 v=95
442354 On ch=1 n=e3 v=0
442358 On ch=1 n=b4 v=95
442396 On ch=1 n=c#5 v=0
442442 On ch=1 n=a4 v=90
442470 On ch=1 n=b4 v=0
442474 On ch=1 n=d#3 v=0
442504 On ch=1 n=e3 v=95
442510 On ch=1 n=e4 v=95
442560 On ch=1 n=a4 v=0
442620 Par ch=1 c=64 v=0
442638 On ch=1 n=e4 v=0
442670 On ch=1 n=f4 v=95
442676 On ch=1 n=f3 v=95
442676 On ch=1 n=a2 v=95
442684 On ch=1 n=f5 v=95
442724 Par ch=1 c=64 v=127
442764 On ch=1 n=e3 v=0
442986 On ch=1 n=a2 v=0
443018 On ch=1 n=f4 v=0
443024 On ch=1 n=f3 v=0
443032 On ch=1 n=f5 v=0
443128 On ch=1 n=e5 v=95
443128 On ch=1 n=e4 v=95
443128 On ch=1 n=e3 v=95
443128 On ch=1 n=a2 v=95
443228 On ch=1 n=a2 v=0
443228 On ch=1 n=e3 v=0
443228 On ch=1 n=e4 v=0
443228 On ch=1 n=e5 v=0
443280 On ch=1 n=c#7 v=95
443304 Par ch=1 c=64 v=0
443328 On ch=1 n=a2 v=80
443330 On ch=1 n=a3 v=95
443342 On ch=1 n=c#8 v=95
443342 On ch=1 n=a3 v=95
443344 On ch=1 n=a2 v=95
443346 On ch=1 n=c#8 v=95
443386 On ch=1 n=c#7 v=0
443396 Par ch=1 c=64 v=127
443506 On ch=1 n=c#8 v=0
443524 On ch=1 n=d#3 v=95
443528 On ch=1 n=d#4 v=90
443542 On ch=1 n=c#8 v=0
443546 On ch=1 n=b7 v=79
443602 On ch=1 n=a7 v=95
443620 On ch=1 n=d#3 v=0
443620 On ch=1 n=a3 v=0
443620 On ch=1 n=a3 v=0
443620 On ch=1 n=a2 v=0
443632 On ch=1 n=d#4 v=0
443648 On ch=1 n=b7 v=0
443680 On ch=1 n=e7 v=95
443686 On ch=1 n=e4 v=95
443692 On ch=1 n=e3 v=95
443694 On ch=1 n=a7 v=0
443776 On ch=1 n=e3 v=0
443780 On ch=1 n=e4 v=0
443786 On ch=1 n=c#7 v=95
443810 On ch=1 n=e7 v=0
443860 On ch=1 n=e4 v=95
443864 On ch=1 n=b6 v=95
443872 On ch=1 n=e3 v=95
443892 On ch=1 n=c#7 v=0
443956 On ch=1 n=a6 v=75
443976 On ch=1 n=b6 v=0
444012 On ch=1 n=e6 v=95
444046 On ch=1 n=a6 v=0
444104 On ch=1 n=c#6 v=95
444134 On ch=1 n=e6 v=0
444178 On ch=1 n=b5 v=95
444222 On ch=1 n=c#6 v=0
444254 On ch=1 n=a5 v=95
444294 On ch=1 n=b5 v=0
444328 On ch=1 n=e5 v=95
444358 On ch=1 n=a5 v=0
444372 On ch=1 n=e4 v=0
444408 On ch=1 n=c#5 v=95
444428 On ch=1 n=e3 v=0
444448 On ch=1 n=e5 v=0
444480 On ch=1 n=d#3 v=95
444484 On ch=1 n=b4 v=81
444520 On ch=1 n=c#5 v=0
444572 On ch=1 n=a4 v=95
444580 On ch=1 n=a2 v=0
444604 On ch=1 n=b4 v=0
444684 On ch=1 n=e4 v=84
444688 On ch=1 n=e3 v=95
444698 On ch=1 n=a4 v=0
444700 On ch=1 n=d#3 v=0
444828 On ch=1 n=e4 v=0
444870 On ch=1 n=e3 v=0
444886 Par ch=1 c=64 v=0
444904 On ch=1 n=f5 v=95
444912 On ch=1 n=f4 v=95
444912 On ch=1 n=f3 v=95
444912 On ch=1 n=a2 v=95
444972 Par ch=1 c=64 v=127
445112 On ch=1 n=f4 v=0
445120 On ch=1 n=a2 v=0
445120 On ch=1 n=f3 v=0
445142 On ch=1 n=f5 v=0
445320 On ch=1 n=e4 v=95
445320 On ch=1 n=e3 v=93
445328 On ch=1 n=e5 v=94
445328 On ch=1 n=a2 v=94
445480 On ch=1 n=a2 v=0
445488 On ch=1 n=e5 v=0
445488 On ch=1 n=e3 v=0
445488 On ch=1 n=e4 v=0
445560 On ch=1 n=f4 v=88
445560 On ch=1 n=f3 v=87
445560 On ch=1 n=a2 v=72
445568 On ch=1 n=f5 v=95
445622 On ch=1 n=a2 v=0
445622 On ch=1 n=f3 v=0
445630 On ch=1 n=f4 v=0
445638 On ch=1 n=f5 v=0
445848 On ch=1 n=f4 v=68
445926 On ch=1 n=f4 v=0
445936 On ch=1 n=a4 v=68
445992 On ch=1 n=c#5 v=69
445996 On ch=1 n=a3 v=69
446000 On ch=1 n=a2 v=69
446028 On ch=1 n=a4 v=0
446040 On ch=1 n=f5 v=69
446094 On ch=1 n=c#5 v=0
446112 On ch=1 n=f3 v=70
446120 On ch=1 n=f6 v=70
446120 On ch=1 n=c#6 v=70
446120 On ch=1 n=f4 v=70
446122 On ch=1 n=f3 v=0
446126 On ch=1 n=f5 v=0
446130 On ch=1 n=f4 v=0
446130 On ch=1 n=c#6 v=0
446130 On ch=1 n=f6 v=0
446130 On ch=1 n=a3 v=0
446134 On ch=1 n=a2 v=0
446308 On ch=1 n=f4 v=71
446396 On ch=1 n=f4 v=0
446398 On ch=1 n=a4 v=72
446464 On ch=1 n=c#5 v=72
446464 On ch=1 n=a3 v=72
446472 On ch=1 n=a2 v=72
446490 On ch=1 n=a4 v=0
446526 On ch=1 n=f5 v=73
446576 On ch=1 n=c#5 v=0
446608 On ch=1 n=c#6 v=73
446612 On ch=1 n=f6 v=73
446618 On ch=1 n=c#6 v=0
446620 On ch=1 n=f4 v=73
446622 On ch=1 n=f6 v=0
446624 On ch=1 n=f3 v=73
446630 On ch=1 n=f4 v=0
446630 On ch=1 n=a3 v=0
446634 On ch=1 n=f3 v=0
446638 On ch=1 n=f5 v=0
446638 On ch=1 n=a2 v=0
446828 On ch=1 n=f4 v=74
446896 On ch=1 n=a#4 v=74
446912 On ch=1 n=f4 v=0
446952 On ch=1 n=a#2 v=75
446954 On ch=1 n=c#5 v=75
446960 On ch=1 n=a#3 v=75
446988 On ch=1 n=a#4 v=0
447040 On ch=1 n=f5 v=75
447066 On ch=1 n=c#5 v=0
447126 On ch=1 n=a#2 v=0
447126 On ch=1 n=f4 v=76
447128 On ch=1 n=f6 v=76
447128 On ch=1 n=c#6 v=76
447128 On ch=1 n=f3 v=76
447134 On ch=1 n=a#3 v=0
447136 On ch=1 n=f4 v=0
447138 On ch=1 n=f3 v=0
447138 On ch=1 n=c#6 v=0
447138 On ch=1 n=f6 v=0
447148 On ch=1 n=f5 v=0
447342 On ch=1 n=f4 v=77
447408 On ch=1 n=a#4 v=78
447428 On ch=1 n=f4 v=0
447464 On ch=1 n=a#2 v=78
447472 On ch=1 n=a#3 v=78
447478 On ch=1 n=d5 v=78
447500 On ch=1 n=a#4 v=0
447556 On ch=1 n=f5 v=79
447590 On ch=1 n=d5 v=0
447628 On ch=1 n=f4 v=79
447632 On ch=1 n=f3 v=79
447638 On ch=1 n=f4 v=0
447638 On ch=1 n=a#2 v=0
447638 On ch=1 n=d6 v=79
447642 On ch=1 n=f3 v=0
447646 On ch=1 n=a#3 v=0
447646 On ch=1 n=f6 v=79
447648 On ch=1 n=d6 v=0
447656 On ch=1 n=f6 v=0
447668 On ch=1 n=f5 v=0
447884 On ch=1 n=f#4 v=80
447950 On ch=1 n=a#4 v=81
447976 On ch=1 n=f#4 v=0
448042 On ch=1 n=a#4 v=0
448048 On ch=1 n=d5 v=81
448048 On ch=1 n=a#2 v=81
448056 On ch=1 n=a#3 v=81
448112 On ch=1 n=f#5 v=82
448160 On ch=1 n=d5 v=0
448168 On ch=1 n=f#3 v=82
448176 On ch=1 n=f#6 v=82
448176 On ch=1 n=d6 v=82
448176 On ch=1 n=f#4 v=82
448178 On ch=1 n=f#3 v=0
448186 On ch=1 n=f#4 v=0
448186 On ch=1 n=d6 v=0
448186 On ch=1 n=f#6 v=0
448222 On ch=1 n=a#2 v=0
448224 On ch=1 n=f#5 v=0
448230 On ch=1 n=a#3 v=0
448380 On ch=1 n=f#4 v=84
448450 On ch=1 n=a#4 v=84
448472 On ch=1 n=f#4 v=0
448480 On ch=1 n=a#2 v=84
448496 On ch=1 n=a#3 v=85
448508 On ch=1 n=d#5 v=85
448542 On ch=1 n=a#4 v=0
448590 On ch=1 n=f#5 v=85
448620 On ch=1 n=d#5 v=0
448654 On ch=1 n=a#2 v=0
448666 On ch=1 n=f#3 v=85
448670 On ch=1 n=a#3 v=0
448672 On ch=1 n=d#6 v=85
448672 On ch=1 n=f#4 v=85
448676 On ch=1 n=f#3 v=0
448678 On ch=1 n=f#6 v=85
448682 On ch=1 n=f#4 v=0
448682 On ch=1 n=d#6 v=0
448682 On ch=1 n=f#5 v=0
448688 On ch=1 n=f#6 v=0
448878 On ch=1 n=g4 v=86
448930 On ch=1 n=c#5 v=87
448966 On ch=1 n=g4 v=0
448992 On ch=1 n=a3 v=87
449000 On ch=1 n=e5 v=87
449000 On ch=1 n=a2 v=87
449022 On ch=1 n=c#5 v=0
449082 On ch=1 n=g5 v=88
449112 On ch=1 n=e5 v=0
449166 On ch=1 n=a3 v=0
449174 On ch=1 n=a2 v=0
449176 On ch=1 n=a4 v=88
449184 On ch=1 n=g6 v=88
449184 On ch=1 n=e6 v=88
449186 On ch=1 n=a4 v=0
449190 On ch=1 n=g5 v=0
449192 On ch=1 n=a3 v=89
449194 On ch=1 n=e6 v=0
449194 On ch=1 n=g6 v=0
449202 On ch=1 n=a3 v=0
449402 On ch=1 n=g#5 v=90
449444 On ch=1 n=g#3 v=90
449448 On ch=1 n=g#2 v=90
449488 On ch=1 n=c#6 v=90
449490 On ch=1 n=g#5 v=0
449536 On ch=1 n=f6 v=90
449580 On ch=1 n=c#6 v=0
449624 On ch=1 n=g#6 v=91
449644 Par ch=1 c=64 v=0
449648 On ch=1 n=f6 v=0
449688 On ch=1 n=c#5 v=91
449696 On ch=1 n=g#7 v=91
449696 On ch=1 n=f7 v=91
449696 On ch=1 n=c#7 v=91
449696 On ch=1 n=g#5 v=91
449696 On ch=1 n=f5 v=91
449696 On ch=1 n=g#4 v=91
449732 On ch=1 n=g#3 v=0
449736 On ch=1 n=g#2 v=0
449752 On ch=1 n=c#5 v=0
449756 On ch=1 n=g#4 v=0
449756 On ch=1 n=f5 v=0
449756 On ch=1 n=c#7 v=0
449760 On ch=1 n=g#5 v=0
449760 On ch=1 n=f7 v=0
449760 On ch=1 n=g#7 v=0
449768 Par ch=1 c=64 v=127
449772 On ch=1 n=g#6 v=0
450120 Par ch=1 c=64 v=0
450136 On ch=1 n=c4 v=57
450142 On ch=1 n=c5 v=60
450200 On ch=1 n=c#5 v=75
450206 On ch=1 n=c#4 v=52
450228 On ch=1 n=c4 v=0
450234 On ch=1 n=c5 v=0
450278 On ch=1 n=f5 v=70
450280 On ch=1 n=f4 v=64
450336 On ch=1 n=c#5 v=0
450356 On ch=1 n=c#4 v=0
450370 On ch=1 n=g#4 v=82
450386 On ch=1 n=g#5 v=75
450412 On ch=1 n=f4 v=0
450428 On ch=1 n=f5 v=0
450458 On ch=1 n=g#4 v=0
450474 On ch=1 n=g#5 v=0
450718 On ch=1 n=b4 v=64
450720 On ch=1 n=b3 v=60
450776 On ch=1 n=c5 v=72
450776 On ch=1 n=c4 v=3
450842 On ch=1 n=f5 v=69
450848 On ch=1 n=f4 v=69
450852 On ch=1 n=b4 v=0
450854 On ch=1 n=b3 v=0
450906 On ch=1 n=c4 v=0
450906 On ch=1 n=c5 v=0
450912 On ch=1 n=g#4 v=81
450918 On ch=1 n=g#5 v=75
450970 On ch=1 n=f4 v=0
450974 On ch=1 n=f5 v=0
451014 On ch=1 n=g#4 v=0
451020 On ch=1 n=g#5 v=0
451280 On ch=1 n=a3 v=57
451282 On ch=1 n=a4 v=67
451328 On ch=1 n=a#3 v=60
451338 On ch=1 n=a#4 v=70
451412 On ch=1 n=a4 v=0
451412 On ch=1 n=f4 v=69
451418 On ch=1 n=a3 v=0
451418 On ch=1 n=f5 v=70
451446 On ch=1 n=a#3 v=0
451456 On ch=1 n=a#4 v=0
451488 On ch=1 n=g#5 v=66
451500 On ch=1 n=g#4 v=84
451510 On ch=1 n=f4 v=0
451542 On ch=1 n=f5 v=0
451602 On ch=1 n=g#5 v=0
451614 On ch=1 n=g#4 v=0
451850 Par ch=1 c=64 v=127
451960 On ch=1 n=g#4 v=90
451960 On ch=1 n=g#3 v=86
451968 On ch=1 n=g#2 v=69
452478 On ch=1 n=g#7 v=86
452484 On ch=1 n=g#6 v=86
452494 On ch=1 n=f7 v=83
452502 On ch=1 n=f6 v=71
452502 On ch=1 n=c6 v=79
452502 On ch=1 n=f#5 v=86
452528 Par ch=1 c=64 v=0
452590 Par ch=1 c=64 v=127
452750 On ch=1 n=g#3 v=0
452750 On ch=1 n=g#4 v=0
452758 On ch=1 n=g#2 v=0
452890 On ch=1 n=f7 v=0
452900 On ch=1 n=c6 v=0
452922 On ch=1 n=f#5 v=0
452934 On ch=1 n=g#7 v=0
452938 On ch=1 n=g#6 v=0
452950 On ch=1 n=f6 v=0
453236 On ch=1 n=f#5 v=63
453240 On ch=1 n=g#6 v=72
453240 On ch=1 n=c6 v=60
453244 On ch=1 n=d#6 v=66
453248 On ch=1 n=g#7 v=70
453254 On ch=1 n=d#7 v=73
453360 On ch=1 n=c6 v=0
453370 On ch=1 n=g#6 v=0
453376 On ch=1 n=f#5 v=0
453378 On ch=1 n=g#7 v=0
453384 On ch=1 n=d#7 v=0
453384 On ch=1 n=d#6 v=0
453416 On ch=1 n=c6 v=60
453416 On ch=1 n=f#5 v=60
453420 On ch=1 n=f6 v=75
453424 On ch=1 n=f7 v=69
453426 On ch=1 n=g#7 v=75
453426 On ch=1 n=g#6 v=72
453512 On ch=1 n=f#5 v=0
453514 On ch=1 n=g#6 v=0
453518 On ch=1 n=f7 v=0
453524 On ch=1 n=f6 v=0
453536 On ch=1 n=c6 v=0
453544 On ch=1 n=g#7 v=0
453592 On ch=1 n=g#7 v=60
453592 On ch=1 n=d#6 v=63
453592 On ch=1 n=c6 v=66
453598 On ch=1 n=g#6 v=75
453604 On ch=1 n=f#5 v=60
453606 On ch=1 n=d#7 v=81
453704 On ch=1 n=d#6 v=0
453708 On ch=1 n=d#7 v=0
453712 On ch=1 n=g#7 v=0
453722 On ch=1 n=c6 v=0
453728 On ch=1 n=g#6 v=0
453734 On ch=1 n=f#5 v=0
453768 On ch=1 n=g#7 v=77
453776 On ch=1 n=f7 v=70
453776 On ch=1 n=g#6 v=75
453776 On ch=1 n=c6 v=60
453776 On ch=1 n=f#5 v=60
453782 On ch=1 n=f6 v=82
453892 On ch=1 n=f7 v=0
453896 On ch=1 n=f#5 v=0
453896 On ch=1 n=c6 v=0
453900 On ch=1 n=g#7 v=0
453906 On ch=1 n=g#6 v=0
453912 On ch=1 n=f6 v=0
453912 On ch=1 n=g#7 v=60
453920 On ch=1 n=d#6 v=73
453920 On ch=1 n=f#5 v=60
453924 On ch=1 n=d#7 v=75
453926 On ch=1 n=g#6 v=66
453928 On ch=1 n=c6 v=60
454032 On ch=1 n=g#7 v=0
454040 On ch=1 n=f#5 v=0
454048 On ch=1 n=c6 v=0
454050 On ch=1 n=d#6 v=0
454054 On ch=1 n=d#7 v=0
454056 On ch=1 n=g#6 v=0
454082 Par ch=1 c=64 v=0
454096 On ch=1 n=g#7 v=72
454096 On ch=1 n=c#6 v=77
454104 On ch=1 n=f7 v=75
454104 On ch=1 n=c#7 v=79
454104 On ch=1 n=g#6 v=84
454106 On ch=1 n=f5 v=65
454164 Par ch=1 c=64 v=127
454202 On ch=1 n=c#6 v=0
454202 On ch=1 n=g#7 v=0
454210 On ch=1 n=g#6 v=0
454210 On ch=1 n=c#7 v=0
454210 On ch=1 n=f7 v=0
454212 On ch=1 n=f5 v=0
454576 Par ch=1 c=64 v=0
454598 On ch=1 n=c5 v=60
454628 On ch=1 n=c4 v=57
454656 On ch=1 n=c#5 v=75
454662 On ch=1 n=c#4 v=52
454720 On ch=1 n=c4 v=0
454726 On ch=1 n=f4 v=64
454734 On ch=1 n=f5 v=70
454746 On ch=1 n=c5 v=0
454792 On ch=1 n=c#5 v=0
454812 On ch=1 n=c#4 v=0
454826 On ch=1 n=g#4 v=82
454842 On ch=1 n=g#5 v=75
454858 On ch=1 n=f4 v=0
454884 On ch=1 n=f5 v=0
454900 On ch=1 n=g#4 v=0
454930 On ch=1 n=g#5 v=0
455156 On ch=1 n=b3 v=60
455174 On ch=1 n=b4 v=64
455232 On ch=1 n=c5 v=72
455256 On ch=1 n=c4 v=3
455286 On ch=1 n=f4 v=69
455298 On ch=1 n=f5 v=69
455308 On ch=1 n=b4 v=0
455330 On ch=1 n=c4 v=0
455332 On ch=1 n=b3 v=0
455362 On ch=1 n=c5 v=0
455374 On ch=1 n=g#5 v=75
455398 On ch=1 n=g#4 v=81
455408 On ch=1 n=f4 v=0
455430 On ch=1 n=f5 v=0
455464 On ch=1 n=g#4 v=0
455476 On ch=1 n=g#5 v=0
455722 On ch=1 n=a3 v=57
455738 On ch=1 n=a4 v=67
455768 On ch=1 n=a#3 v=60
455794 On ch=1 n=a#4 v=70
455860 On ch=1 n=a3 v=0
455868 On ch=1 n=a4 v=0
455868 On ch=1 n=f4 v=69
455874 On ch=1 n=f5 v=70
455912 On ch=1 n=a#4 v=0
455930 On ch=1 n=a#3 v=0
455944 On ch=1 n=g#5 v=66
455956 On ch=1 n=g#4 v=84
455966 On ch=1 n=f4 v=0
455998 On ch=1 n=f5 v=0
456022 On ch=1 n=g#4 v=0
456058 On ch=1 n=g#5 v=0
456402 Par ch=1 c=64 v=127
456408 On ch=1 n=g#2 v=69
456416 On ch=1 n=g#4 v=98
456416 On ch=1 n=g#3 v=105
456952 On ch=1 n=f7 v=88
456952 On ch=1 n=c6 v=80
456960 On ch=1 n=g#7 v=94
456960 On ch=1 n=g#6 v=86
456960 On ch=1 n=f6 v=86
456960 On ch=1 n=f#5 v=83
456980 On ch=1 n=g#2 v=0
456986 On ch=1 n=g#3 v=0
456988 On ch=1 n=g#4 v=0
457008 Par ch=1 c=64 v=0
457054 Par ch=1 c=64 v=127
457466 On ch=1 n=f6 v=0
457466 On ch=1 n=c6 v=0
457466 On ch=1 n=f7 v=0
457474 On ch=1 n=f#5 v=0
457474 On ch=1 n=g#6 v=0
457474 On ch=1 n=g#7 v=0
457782 On ch=1 n=f#5 v=51
457784 On ch=1 n=c6 v=48
457790 On ch=1 n=d#6 v=56
457792 On ch=1 n=g#7 v=54
457798 On ch=1 n=d#7 v=53
457798 On ch=1 n=g#6 v=60
457892 On ch=1 n=f#5 v=0
457894 On ch=1 n=c6 v=0
457900 On ch=1 n=d#6 v=0
457902 On ch=1 n=g#7 v=0
457908 On ch=1 n=g#6 v=0
457908 On ch=1 n=d#7 v=0
457968 On ch=1 n=f6 v=63
457968 On ch=1 n=c6 v=49
457972 On ch=1 n=g#6 v=63
457976 On ch=1 n=f7 v=68
457982 On ch=1 n=g#7 v=62
457982 On ch=1 n=f#5 v=51
458098 On ch=1 n=c6 v=0
458098 On ch=1 n=f6 v=0
458102 On ch=1 n=g#6 v=0
458106 On ch=1 n=f7 v=0
458110 On ch=1 n=g#7 v=0
458112 On ch=1 n=f#5 v=0
458144 On ch=1 n=f#5 v=39
458152 On ch=1 n=g#7 v=51
458152 On ch=1 n=g#6 v=59
458152 On ch=1 n=d#6 v=51
458158 On ch=1 n=d#7 v=66
458158 On ch=1 n=c6 v=61
458272 On ch=1 n=d#6 v=0
458272 On ch=1 n=g#7 v=0
458274 On ch=1 n=f#5 v=0
458282 On ch=1 n=g#6 v=0
458288 On ch=1 n=c6 v=0
458288 On ch=1 n=d#7 v=0
458312 On ch=1 n=g#7 v=64
458312 On ch=1 n=f7 v=66
458312 On ch=1 n=f6 v=66
458320 On ch=1 n=g#6 v=64
458320 On ch=1 n=c6 v=51
458320 On ch=1 n=f#5 v=53
458420 On ch=1 n=g#7 v=0
458422 On ch=1 n=f6 v=0
458422 On ch=1 n=f7 v=0
458430 On ch=1 n=g#6 v=0
458440 On ch=1 n=c6 v=0
458450 On ch=1 n=f#5 v=0
458472 On ch=1 n=g#6 v=61
458472 On ch=1 n=f#5 v=50
458480 On ch=1 n=g#7 v=52
458480 On ch=1 n=d#7 v=69
458480 On ch=1 n=d#6 v=52
458480 On ch=1 n=c6 v=67
458538 Par ch=1 c=64 v=0
458600 On ch=1 n=d#6 v=0
458600 On ch=1 n=g#7 v=0
458602 On ch=1 n=f#5 v=0
458602 On ch=1 n=g#6 v=0
458610 On ch=1 n=d#7 v=0
458612 On ch=1 n=c6 v=0
458640 On ch=1 n=g#7 v=70
458640 On ch=1 n=f7 v=64
458640 On ch=1 n=c6 v=59
458640 Par ch=1 c=64 v=127
458648 On ch=1 n=g#6 v=68
458648 On ch=1 n=f6 v=69
458648 On ch=1 n=f#5 v=57
458984 On ch=1 n=d#7 v=55
458984 On ch=1 n=d#6 v=65
459000 On ch=1 n=f#5 v=0
459000 On ch=1 n=g#6 v=0
459000 On ch=1 n=c6 v=0
459000 On ch=1 n=f7 v=0
459000 On ch=1 n=g#7 v=0
459016 On ch=1 n=f6 v=0
459088 On ch=1 n=f#5 v=69
459096 On ch=1 n=a7 v=72
459096 On ch=1 n=f7 v=71
459096 On ch=1 n=a6 v=69
459096 On ch=1 n=f6 v=81
459096 On ch=1 n=c6 v=65
459146 On ch=1 n=d#6 v=0
459146 On ch=1 n=d#7 v=0
459452 On ch=1 n=f6 v=0
459452 On ch=1 n=f7 v=0
459456 On ch=1 n=d#7 v=75
459456 On ch=1 n=d#6 v=74
459468 On ch=1 n=f#5 v=0
459476 On ch=1 n=c6 v=0
459476 On ch=1 n=a6 v=0
459558 On ch=1 n=a7 v=0
459592 On ch=1 n=a6 v=79
459600 On ch=1 n=f7 v=86
459600 On ch=1 n=f6 v=81
459600 On ch=1 n=f#5 v=38
459608 On ch=1 n=a7 v=75
459608 On ch=1 n=c6 v=73
459618 On ch=1 n=d#6 v=0
459618 On ch=1 n=d#7 v=0
459872 On ch=1 n=d#6 v=38
459880 On ch=1 n=d#7 v=60
459910 On ch=1 n=f6 v=0
459910 On ch=1 n=f7 v=0
459952 On ch=1 n=a6 v=0
459960 On ch=1 n=f#5 v=0
459968 On ch=1 n=c6 v=0
459990 On ch=1 n=a7 v=0
460016 On ch=1 n=g5 v=66
460018 On ch=1 n=a#7 v=86
460022 On ch=1 n=d#6 v=0
460024 On ch=1 n=f#7 v=78
460024 On ch=1 n=a#6 v=88
460024 On ch=1 n=f#6 v=88
460024 On ch=1 n=c#6 v=68
460030 On ch=1 n=d#7 v=0
460312 On ch=1 n=e7 v=75
460312 On ch=1 n=e6 v=84
460334 On ch=1 n=f#6 v=0
460334 On ch=1 n=f#7 v=0
460356 On ch=1 n=g5 v=0
460364 On ch=1 n=c#6 v=0
460364 On ch=1 n=a#6 v=0
460380 On ch=1 n=a#7 v=0
460424 On ch=1 n=c#6 v=3
460432 On ch=1 n=a#7 v=84
460432 On ch=1 n=f#7 v=85
460432 On ch=1 n=a#6 v=93
460432 On ch=1 n=f#6 v=87
460432 On ch=1 n=g5 v=76
460454 On ch=1 n=e6 v=0
460454 On ch=1 n=e7 v=0
460728 On ch=1 n=e7 v=74
460728 On ch=1 n=e6 v=37
460742 On ch=1 n=f#6 v=0
460742 On ch=1 n=f#7 v=0
460764 On ch=1 n=c#6 v=0
460772 On ch=1 n=g5 v=0
460772 On ch=1 n=a#6 v=0
460794 On ch=1 n=a#7 v=0
460832 On ch=1 n=d6 v=79
460832 On ch=1 n=g#5 v=84
460840 On ch=1 n=b7 v=84
460840 On ch=1 n=g7 v=81
460840 On ch=1 n=b6 v=91
460840 On ch=1 n=g6 v=89
460864 On ch=1 n=e6 v=0
460864 On ch=1 n=e7 v=0
460928 Par ch=1 c=64 v=0
461062 Par ch=1 c=64 v=127
461104 On ch=1 n=f6 v=81
461112 On ch=1 n=f7 v=81
461130 On ch=1 n=g6 v=0
461130 On ch=1 n=g7 v=0
461142 On ch=1 n=g#5 v=0
461142 On ch=1 n=d6 v=0
461150 On ch=1 n=b6 v=0
461162 On ch=1 n=b7 v=0
461200 On ch=1 n=b6 v=93
461200 On ch=1 n=g6 v=95
461200 On ch=1 n=g#5 v=85
461208 On ch=1 n=b7 v=85
461208 On ch=1 n=g7 v=84
461208 On ch=1 n=d6 v=83
461226 On ch=1 n=f6 v=0
461234 On ch=1 n=f7 v=0
461410 Par ch=1 c=64 v=0
461464 On ch=1 n=f6 v=78
461472 On ch=1 n=f7 v=83
461490 On ch=1 n=g#5 v=0
461490 On ch=1 n=g6 v=0
461490 On ch=1 n=b6 v=0
461498 On ch=1 n=d6 v=0
461498 On ch=1 n=g7 v=0
461530 On ch=1 n=b7 v=0
461546 Par ch=1 c=64 v=127
461576 On ch=1 n=f6 v=0
461584 On ch=1 n=f7 v=0
461592 On ch=1 n=c8 v=93
461592 On ch=1 n=g#6 v=95
461592 On ch=1 n=g#5 v=95
461600 On ch=1 n=g#7 v=95
461600 On ch=1 n=c7 v=90
461600 On ch=1 n=d#6 v=44
461822 On ch=1 n=g#5 v=0
461824 On ch=1 n=f#7 v=86
461830 On ch=1 n=d#6 v=0
461830 On ch=1 n=c7 v=0
461832 On ch=1 n=f#6 v=82
461842 On ch=1 n=g#6 v=0
461850 On ch=1 n=g#7 v=0
461874 On ch=1 n=c8 v=0
461910 On ch=1 n=f#7 v=0
461918 On ch=1 n=f#6 v=0
462048 On ch=1 n=c#4 v=73
462056 On ch=1 n=f8 v=92
462056 On ch=1 n=c#3 v=79
462092 Par ch=1 c=64 v=127
462274 On ch=1 n=f8 v=0
462276 On ch=1 n=d#8 v=80
462284 On ch=1 n=c#4 v=0
462284 On ch=1 n=g3 v=88
462292 On ch=1 n=c#3 v=0
462358 On ch=1 n=c#8 v=80
462372 On ch=1 n=g3 v=0
462410 On ch=1 n=d#8 v=0
462420 On ch=1 n=g#7 v=58
462446 On ch=1 n=g#3 v=90
462464 On ch=1 n=c#8 v=0
462496 On ch=1 n=f7 v=88
462520 On ch=1 n=g#3 v=0
462520 On ch=1 n=g#7 v=0
462582 On ch=1 n=f7 v=0
462584 On ch=1 n=d#7 v=93
462600 On ch=1 n=g#3 v=83
462650 On ch=1 n=c#7 v=86
462672 On ch=1 n=d#7 v=0
462702 On ch=1 n=g#3 v=0
462724 On ch=1 n=g#6 v=86
462736 On ch=1 n=f#3 v=90
462740 On ch=1 n=f#4 v=102
462764 On ch=1 n=c#7 v=0
462798 On ch=1 n=f6 v=88
462838 On ch=1 n=g#6 v=0
462888 On ch=1 n=d#6 v=83
462896 On ch=1 n=f4 v=98
462896 On ch=1 n=f3 v=85
462906 On ch=1 n=f6 v=0
462924 On ch=1 n=f#3 v=0
462928 On ch=1 n=f#4 v=0
462960 On ch=1 n=f3 v=0
462968 On ch=1 n=c#6 v=50
462976 On ch=1 n=f4 v=0
463002 On ch=1 n=d#6 v=0
463040 On ch=1 n=g#5 v=74
463040 On ch=1 n=f3 v=67
463044 On ch=1 n=f4 v=90
463068 On ch=1 n=c#6 v=0
463128 On ch=1 n=f4 v=0
463134 On ch=1 n=f3 v=0
463138 On ch=1 n=g#5 v=0
463140 On ch=1 n=f5 v=73
463176 On ch=1 n=g3 v=108
463182 On ch=1 n=d#5 v=73
463242 On ch=1 n=f5 v=0
463248 On ch=1 n=c#5 v=93
463296 On ch=1 n=d#5 v=0
463304 On ch=1 n=g#3 v=93
463306 On ch=1 n=g#4 v=90
463330 On ch=1 n=g3 v=0
463336 On ch=1 n=c#5 v=0
463436 On ch=1 n=g#4 v=0
463450 On ch=1 n=g#3 v=0
463484 On ch=1 n=a3 v=103
463496 On ch=1 n=f5 v=86
463500 On ch=1 n=a5 v=90
463500 On ch=1 n=a4 v=90
463784 On ch=1 n=g#3 v=102
463788 On ch=1 n=g#4 v=108
463790 On ch=1 n=a4 v=0
463790 On ch=1 n=a5 v=0
463798 On ch=1 n=g#5 v=108
463808 On ch=1 n=a3 v=0
463816 On ch=1 n=f5 v=0
463824 On ch=1 n=g#3 v=0
463828 On ch=1 n=g#4 v=0
463838 On ch=1 n=g#5 v=0
463876 Par ch=1 c=64 v=0
463996 On ch=1 n=c#4 v=89
463996 On ch=1 n=c#3 v=70
464002 On ch=1 n=f8 v=103
464004 Par ch=1 c=64 v=127
464016 On ch=1 n=f7 v=79
464172 On ch=1 n=g3 v=93
464180 On ch=1 n=d#8 v=86
464218 On ch=1 n=c#3 v=0
464218 On ch=1 n=c#4 v=0
464224 On ch=1 n=f8 v=0
464228 On ch=1 n=f7 v=0
464250 On ch=1 n=c#8 v=82
464262 On ch=1 n=g3 v=0
464298 On ch=1 n=d#8 v=0
464312 On ch=1 n=g#7 v=82
464320 On ch=1 n=g#3 v=95
464352 On ch=1 n=c#8 v=0
464372 On ch=1 n=f7 v=88
464394 On ch=1 n=g#3 v=0
464444 On ch=1 n=g#7 v=0
464464 On ch=1 n=g#3 v=103
464468 On ch=1 n=d#7 v=73
464474 On ch=1 n=f7 v=0
464520 On ch=1 n=c#7 v=90
464554 On ch=1 n=g#3 v=0
464580 On ch=1 n=d#7 v=0
464602 On ch=1 n=f#4 v=100
464614 On ch=1 n=g#6 v=74
464614 On ch=1 n=f#3 v=83
464620 On ch=1 n=c#7 v=0
464652 On ch=1 n=f6 v=86
464676 On ch=1 n=f#3 v=0
464690 On ch=1 n=f#4 v=0
464728 On ch=1 n=g#6 v=0
464748 On ch=1 n=f4 v=106
464756 On ch=1 n=f6 v=0
464758 On ch=1 n=d#6 v=86
464760 On ch=1 n=f3 v=86
464814 On ch=1 n=f3 v=0
464820 On ch=1 n=f4 v=0
464848 On ch=1 n=c#6 v=66
464878 On ch=1 n=d#6 v=0
464896 On ch=1 n=f3 v=95
464904 On ch=1 n=g#5 v=88
464904 On ch=1 n=f4 v=94
464932 On ch=1 n=c#6 v=0
464986 On ch=1 n=f3 v=0
464994 On ch=1 n=f4 v=0
464994 On ch=1 n=f5 v=72
465004 Par ch=1 c=64 v=0
465012 On ch=1 n=g#5 v=0
465028 On ch=1 n=g3 v=92
465048 On ch=1 n=d#5 v=79
465084 Par ch=1 c=64 v=127
465100 On ch=1 n=f5 v=0
465108 On ch=1 n=c#5 v=98
465160 On ch=1 n=d#5 v=0
465160 On ch=1 n=g#4 v=87
465168 On ch=1 n=g#3 v=86
465184 On ch=1 n=g3 v=0
465194 On ch=1 n=c#5 v=0
465276 Par ch=1 c=64 v=0
465290 On ch=1 n=g#4 v=0
465320 On ch=1 n=g#3 v=0
465336 On ch=1 n=a5 v=81
465336 On ch=1 n=f5 v=86
465336 On ch=1 n=a3 v=87
465350 On ch=1 n=a4 v=88
465360 Par ch=1 c=64 v=127
465646 On ch=1 n=a3 v=0
465646 On ch=1 n=a5 v=0
465648 On ch=1 n=g#4 v=90
465654 On ch=1 n=g#3 v=75
465656 On ch=1 n=f5 v=0
465660 On ch=1 n=a4 v=0
465662 On ch=1 n=g#5 v=86
465688 On ch=1 n=g#4 v=0
465694 On ch=1 n=g#3 v=0
465702 On ch=1 n=g#5 v=0
465766 Par ch=1 c=64 v=0
465824 On ch=1 n=f5 v=36
465824 On ch=1 n=c#4 v=36
465828 On ch=1 n=g#5 v=44
465828 On ch=1 n=c#3 v=52
465838 On ch=1 n=g#4 v=41
465850 Par ch=1 c=64 v=127
465910 On ch=1 n=c#4 v=0
465914 On ch=1 n=c#3 v=0
465978 On ch=1 n=g3 v=39
465992 On ch=1 n=f5 v=0
465996 On ch=1 n=g#5 v=0
466006 On ch=1 n=g#4 v=0
466092 On ch=1 n=g3 v=0
466116 On ch=1 n=g#3 v=51
466230 On ch=1 n=g#3 v=0
466242 On ch=1 n=a5 v=45
466248 On ch=1 n=a4 v=46
466376 On ch=1 n=f#3 v=52
466378 On ch=1 n=f#4 v=58
466468 Par ch=1 c=64 v=0
466504 On ch=1 n=a5 v=0
466508 On ch=1 n=g#4 v=49
466510 On ch=1 n=a4 v=0
466512 On ch=1 n=f4 v=57
466512 On ch=1 n=f3 v=52
466518 On ch=1 n=g#5 v=47
466526 On ch=1 n=f#3 v=0
466528 On ch=1 n=f#4 v=0
466570 Par ch=1 c=64 v=127
466572 On ch=1 n=f3 v=0
466572 On ch=1 n=f4 v=0
466582 On ch=1 n=g#4 v=0
466590 On ch=1 n=g#5 v=0
466664 On ch=1 n=g#5 v=52
466664 On ch=1 n=f5 v=54
466664 On ch=1 n=g#4 v=51
466702 On ch=1 n=c#3 v=62
466718 On ch=1 n=c#4 v=61
466836 On ch=1 n=g3 v=60
466850 On ch=1 n=c#3 v=0
466852 On ch=1 n=g#4 v=0
466852 On ch=1 n=f5 v=0
466852 On ch=1 n=g#5 v=0
466872 On ch=1 n=c#4 v=0
466926 On ch=1 n=g3 v=0
466948 On ch=1 n=g#3 v=61
467038 On ch=1 n=g#3 v=0
467088 On ch=1 n=a5 v=58
467098 On ch=1 n=a4 v=55
467216 On ch=1 n=f#4 v=72
467216 On ch=1 n=f#3 v=64
467314 Par ch=1 c=64 v=0
467340 On ch=1 n=g#5 v=58
467344 On ch=1 n=g#4 v=61
467344 On ch=1 n=f4 v=67
467344 On ch=1 n=f3 v=51
467350 On ch=1 n=a5 v=0
467356 On ch=1 n=f#3 v=0
467356 On ch=1 n=f#4 v=0
467360 On ch=1 n=a4 v=0
467420 On ch=1 n=g#5 v=0
467424 On ch=1 n=f3 v=0
467424 On ch=1 n=f4 v=0
467424 On ch=1 n=g#4 v=0
467492 Par ch=1 c=64 v=127
467504 On ch=1 n=f5 v=56
467514 On ch=1 n=g#5 v=65
467518 On ch=1 n=g#4 v=61
467520 On ch=1 n=c#4 v=38
467520 On ch=1 n=c#3 v=22
467612 On ch=1 n=c#3 v=0
467612 On ch=1 n=c#4 v=0
467692 On ch=1 n=g3 v=63
467698 On ch=1 n=f5 v=0
467708 On ch=1 n=g#4 v=0
467708 On ch=1 n=g#5 v=0
467776 On ch=1 n=g3 v=0
467828 On ch=1 n=g#3 v=77
467870 Par ch=1 c=64 v=0
467908 Par ch=1 c=64 v=127
467920 On ch=1 n=g#3 v=0
467960 On ch=1 n=a4 v=71
467968 On ch=1 n=a5 v=72
468104 On ch=1 n=f#4 v=71
468110 On ch=1 n=f#3 v=60
468244 On ch=1 n=a4 v=0
468252 On ch=1 n=a5 v=0
468260 On ch=1 n=g#5 v=58
468262 On ch=1 n=f3 v=67
468264 On ch=1 n=f#4 v=0
468264 On ch=1 n=f4 v=66
468270 On ch=1 n=f#3 v=0
468270 On ch=1 n=g#4 v=68
468360 On ch=1 n=g#5 v=0
468362 On ch=1 n=f3 v=0
468364 On ch=1 n=f4 v=0
468370 On ch=1 n=g#4 v=0
468408 On ch=1 n=c#3 v=78
468416 On ch=1 n=f5 v=62
468416 On ch=1 n=g#3 v=78
468424 On ch=1 n=a5 v=62
468424 On ch=1 n=a4 v=63
468512 On ch=1 n=c#3 v=0
468520 On ch=1 n=g#3 v=0
468520 On ch=1 n=f5 v=0
468528 On ch=1 n=a4 v=0
468528 On ch=1 n=a5 v=0
468540 On ch=1 n=g3 v=70
468544 On ch=1 n=f5 v=56
468550 On ch=1 n=g#5 v=61
468552 On ch=1 n=g#4 v=68
468554 On ch=1 n=c#3 v=82
468644 On ch=1 n=g3 v=0
468648 On ch=1 n=f5 v=0
468654 On ch=1 n=g#5 v=0
468656 On ch=1 n=g#4 v=0
468658 On ch=1 n=c#3 v=0
468688 On ch=1 n=f5 v=68
468694 On ch=1 n=a5 v=71
468696 On ch=1 n=c#3 v=81
468702 On ch=1 n=a4 v=75
468704 On ch=1 n=a3 v=83
468792 On ch=1 n=f5 v=0
468798 On ch=1 n=a5 v=0
468800 On ch=1 n=c#3 v=0
468806 On ch=1 n=a4 v=0
468808 On ch=1 n=a3 v=0
468824 On ch=1 n=f5 v=72
468824 On ch=1 n=g#4 v=79
468824 On ch=1 n=g#3 v=80
468830 On ch=1 n=g#5 v=81
468832 On ch=1 n=c#3 v=87
468844 Par ch=1 c=64 v=0
468928 On ch=1 n=g#3 v=0
468928 On ch=1 n=g#4 v=0
468928 On ch=1 n=f5 v=0
468930 Par ch=1 c=64 v=127
468934 On ch=1 n=g#5 v=0
468936 On ch=1 n=c#3 v=0
468968 On ch=1 n=a5 v=77
468968 On ch=1 n=f5 v=81
468968 On ch=1 n=a4 v=80
468968 On ch=1 n=a3 v=84
468974 On ch=1 n=c#3 v=85
469072 On ch=1 n=a3 v=0
469072 On ch=1 n=a4 v=0
469072 On ch=1 n=f5 v=0
469072 On ch=1 n=a5 v=0
469078 On ch=1 n=c#3 v=0
469092 On ch=1 n=g#5 v=86
469092 On ch=1 n=g#3 v=97
469096 On ch=1 n=f5 v=80
469096 On ch=1 n=g#4 v=87
469106 On ch=1 n=c#3 v=85
469196 On ch=1 n=g#3 v=0
469196 On ch=1 n=g#5 v=0
469200 On ch=1 n=g#4 v=0
469200 On ch=1 n=f5 v=0
469204 Par ch=1 c=64 v=0
469210 On ch=1 n=c#3 v=0
469232 On ch=1 n=f5 v=90
469234 On ch=1 n=a5 v=88
469242 On ch=1 n=a4 v=88
469242 On ch=1 n=a3 v=92
469250 On ch=1 n=c3 v=115
469300 Par ch=1 c=64 v=127
469366 On ch=1 n=f5 v=0
469368 On ch=1 n=a5 v=0
469376 On ch=1 n=a3 v=0
469376 On ch=1 n=a4 v=0
469384 On ch=1 n=c3 v=0
469472 Par ch=1 c=64 v=0
469632 On ch=1 n=a#5 v=84
469632 On ch=1 n=c5 v=76
469638 On ch=1 n=c6 v=84
469638 On ch=1 n=e5 v=82
469640 Par ch=1 c=64 v=127
469656 On ch=1 n=c4 v=95
469656 On ch=1 n=g3 v=82
469656 On ch=1 n=c3 v=89
469736 On ch=1 n=c5 v=0
469736 On ch=1 n=a#5 v=0
469742 On ch=1 n=e5 v=0
469742 On ch=1 n=c6 v=0
469760 On ch=1 n=c3 v=0
469760 On ch=1 n=g3 v=0
469760 On ch=1 n=c4 v=0
469992 Par ch=1 c=64 v=0
470056 On ch=1 n=f6 v=81
470056 On ch=1 n=a5 v=85
470062 On ch=1 n=a6 v=77
470062 On ch=1 n=c6 v=81
470064 On ch=1 n=f4 v=95
470064 On ch=1 n=c4 v=93
470064 On ch=1 n=f3 v=93
470106 Par ch=1 c=64 v=127
470160 On ch=1 n=a5 v=0
470160 On ch=1 n=f6 v=0
470166 On ch=1 n=c6 v=0
470166 On ch=1 n=a6 v=0
470168 On ch=1 n=f3 v=0
470168 On ch=1 n=c4 v=0
470168 On ch=1 n=f4 v=0
470432 Par ch=1 c=64 v=0
470472 On ch=1 n=g#4 v=95
470472 On ch=1 n=d#4 v=87
470472 On ch=1 n=g#3 v=89
470480 On ch=1 n=f#6 v=81
470480 On ch=1 n=c6 v=89
470480 On ch=1 n=g#5 v=69
470486 On ch=1 n=g#6 v=95
470486 On ch=1 n=d#6 v=88
470486 On ch=1 n=f#5 v=87
470532 Par ch=1 c=64 v=127
470568 On ch=1 n=g#4 v=0
470578 On ch=1 n=g#3 v=0
470578 On ch=1 n=d#4 v=0
470588 On ch=1 n=g#5 v=0
470588 On ch=1 n=c6 v=0
470588 On ch=1 n=f#6 v=0
470594 On ch=1 n=f#5 v=0
470594 On ch=1 n=d#6 v=0
470594 On ch=1 n=g#6 v=0
470904 Par ch=1 c=64 v=0
470928 On ch=1 n=c#4 v=86
470936 On ch=1 n=f6 v=91
470936 On ch=1 n=c#6 v=91
470936 On ch=1 n=g#5 v=90
470936 On ch=1 n=f5 v=92
470936 On ch=1 n=g#4 v=86
470950 On ch=1 n=c#5 v=95
470998 Par ch=1 c=64 v=127
471180 On ch=1 n=c#4 v=0
471188 On ch=1 n=g#4 v=0
471188 On ch=1 n=f5 v=0
471188 On ch=1 n=g#5 v=0
471188 On ch=1 n=c#6 v=0
471188 On ch=1 n=f6 v=0
471202 On ch=1 n=c#5 v=0
471730 Par ch=1 c=64 v=0
471756 On ch=1 n=c#3 v=93
471760 On ch=1 n=c#5 v=91
471760 On ch=1 n=c#4 v=105
471760 On ch=1 n=g#3 v=93
471762 On ch=1 n=f5 v=93
471762 On ch=1 n=g#4 v=91
471764 On ch=1 n=f4 v=90
471826 Par ch=1 c=64 v=127
472008 On ch=1 n=c#3 v=0
472012 On ch=1 n=g#3 v=0
472012 On ch=1 n=c#4 v=0
472012 On ch=1 n=c#5 v=0
472014 On ch=1 n=g#4 v=0
472014 On ch=1 n=f5 v=0
472016 On ch=1 n=f4 v=0
472520 On ch=1 n=f5 v=73
472520 On ch=1 n=g#4 v=91
472520 On ch=1 n=c#4 v=73
472524 On ch=1 n=c#5 v=77
472526 On ch=1 n=c#6 v=90
472526 On ch=1 n=g#5 v=86
472566 On ch=1 n=c#4 v=0
472566 On ch=1 n=g#4 v=0
472566 On ch=1 n=f5 v=0
472570 On ch=1 n=c#5 v=0
472572 On ch=1 n=g#5 v=0
472572 On ch=1 n=c#6 v=0
472714 On ch=1 n=f8 v=101
472714 On ch=1 n=c#2 v=78
472716 On ch=1 n=c#3 v=92
473714 On ch=1 n=c#3 v=0
473720 On ch=1 n=c#2 v=0
473724 On ch=1 n=f8 v=0
475826 Par ch=1 c=64 v=0
475826 Meta TrkEnd
TrkEnd
