MFile 1 3 96
MTrk
0 Meta SeqName "Conduct"
0 Meta TrkEnd
TrkEnd
MTrk
0 Meta TrkName "Scherzo Op.20 (Chopin)"
0 Par ch=1 c=64 v=127
0 Tempo 166666
0 PrCh ch=1 p=0
0 On ch=1 n=b6 v=100
0 On ch=1 n=e7 v=100
0 On ch=1 n=b7 v=100
1152 On ch=1 n=b7 v=0
1152 On ch=1 n=e7 v=0
1152 On ch=1 n=b6 v=0
1152 On ch=1 n=f#4 v=100
1152 On ch=1 n=c#5 v=100
1152 On ch=1 n=e5 v=100
1152 On ch=1 n=f#5 v=100
1153 Par ch=1 c=64 v=127
2304 On ch=1 n=f#5 v=0
2304 On ch=1 n=e5 v=0
2304 On ch=1 n=c#5 v=0
2304 On ch=1 n=f#4 v=0
2305 Par ch=1 c=64 v=0
2448 On ch=1 n=f4 v=100
2496 On ch=1 n=f4 v=0
2496 On ch=1 n=f#4 v=100
2544 On ch=1 n=f#4 v=0
2544 On ch=1 n=b4 v=100
2592 On ch=1 n=b4 v=0
2592 On ch=1 n=d5 v=100
2640 On ch=1 n=d5 v=0
2640 On ch=1 n=a#4 v=100
2688 On ch=1 n=a#4 v=0
2688 On ch=1 n=c#5 v=100
2736 On ch=1 n=c#5 v=0
2736 On ch=1 n=b4 v=100
2784 On ch=1 n=b4 v=0
2784 On ch=1 n=d5 v=100
2832 On ch=1 n=d5 v=0
2832 On ch=1 n=f#5 v=100
2880 On ch=1 n=f#5 v=0
2880 On ch=1 n=d6 v=100
2928 On ch=1 n=d6 v=0
3024 On ch=1 n=f4 v=100
3072 On ch=1 n=f4 v=0
3072 On ch=1 n=f#4 v=100
3120 On ch=1 n=f#4 v=0
3120 On ch=1 n=b4 v=100
3168 On ch=1 n=b4 v=0
3168 On ch=1 n=d5 v=100
3216 On ch=1 n=d5 v=0
3216 On ch=1 n=a#4 v=100
3264 On ch=1 n=a#4 v=0
3264 On ch=1 n=c#5 v=100
3312 On ch=1 n=c#5 v=0
3312 On ch=1 n=b4 v=100
3360 On ch=1 n=b4 v=0
3360 On ch=1 n=d5 v=100
3408 On ch=1 n=d5 v=0
3408 On ch=1 n=f#5 v=100
3456 On ch=1 n=f#5 v=0
3456 On ch=1 n=d6 v=100
3504 On ch=1 n=d6 v=0
3552 On ch=1 n=e6 v=100
3600 On ch=1 n=e6 v=0
3600 On ch=1 n=a#5 v=100
3648 On ch=1 n=a#5 v=0
3648 On ch=1 n=d6 v=100
3696 On ch=1 n=d6 v=0
3696 On ch=1 n=b5 v=100
3744 On ch=1 n=b5 v=0
3744 On ch=1 n=g6 v=100
3792 On ch=1 n=g6 v=0
3792 On ch=1 n=c#6 v=100
3840 On ch=1 n=c#6 v=0
3840 On ch=1 n=f#6 v=100
3888 On ch=1 n=f#6 v=0
3888 On ch=1 n=d6 v=100
3936 On ch=1 n=d6 v=0
3936 On ch=1 n=c#7 v=100
3984 On ch=1 n=c#7 v=0
3984 On ch=1 n=f6 v=100
4032 On ch=1 n=f6 v=0
4032 On ch=1 n=b6 v=100
4080 On ch=1 n=b6 v=0
4080 On ch=1 n=f#6 v=100
4128 On ch=1 n=f#6 v=0
4128 On ch=1 n=e7 v=100
4176 On ch=1 n=e7 v=0
4176 On ch=1 n=a#6 v=100
4224 On ch=1 n=a#6 v=0
4224 On ch=1 n=d7 v=100
4272 On ch=1 n=d7 v=0
4272 On ch=1 n=b6 v=100
4320 On ch=1 n=b6 v=0
4320 On ch=1 n=b7 v=100
4416 On ch=1 n=b7 v=0
4752 On ch=1 n=a#4 v=100
4800 On ch=1 n=a#4 v=0
4800 On ch=1 n=b4 v=100
4848 On ch=1 n=b4 v=0
4848 On ch=1 n=e5 v=100
4896 On ch=1 n=e5 v=0
4896 On ch=1 n=g5 v=100
4944 On ch=1 n=g5 v=0
4944 On ch=1 n=d#5 v=100
4992 On ch=1 n=d#5 v=0
4992 On ch=1 n=f#5 v=100
5040 On ch=1 n=f#5 v=0
5040 On ch=1 n=e5 v=100
5088 On ch=1 n=e5 v=0
5088 On ch=1 n=g5 v=100
5136 On ch=1 n=g5 v=0
5136 On ch=1 n=b5 v=100
5184 On ch=1 n=b5 v=0
5184 On ch=1 n=e6 v=100
5232 On ch=1 n=e6 v=0
5328 On ch=1 n=a#4 v=100
5376 On ch=1 n=a#4 v=0
5376 On ch=1 n=b4 v=100
5424 On ch=1 n=b4 v=0
5424 On ch=1 n=e5 v=100
5472 On ch=1 n=e5 v=0
5472 On ch=1 n=g5 v=100
5520 On ch=1 n=g5 v=0
5520 On ch=1 n=d#5 v=100
5568 On ch=1 n=d#5 v=0
5568 On ch=1 n=f#5 v=100
5616 On ch=1 n=f#5 v=0
5616 On ch=1 n=e5 v=100
5664 On ch=1 n=e5 v=0
5664 On ch=1 n=g5 v=100
5712 On ch=1 n=g5 v=0
5712 On ch=1 n=b5 v=100
5760 On ch=1 n=b5 v=0
5760 On ch=1 n=g6 v=100
5808 On ch=1 n=g6 v=0
5856 On ch=1 n=f#6 v=100
5904 On ch=1 n=f#6 v=0
5904 On ch=1 n=a#5 v=100
5952 On ch=1 n=a#5 v=0
5952 On ch=1 n=e6 v=100
6000 On ch=1 n=e6 v=0
6000 On ch=1 n=b5 v=100
6048 On ch=1 n=b5 v=0
6048 On ch=1 n=a6 v=100
6096 On ch=1 n=a6 v=0
6096 On ch=1 n=d#6 v=100
6144 On ch=1 n=d#6 v=0
6144 On ch=1 n=g6 v=100
6192 On ch=1 n=g6 v=0
6192 On ch=1 n=e6 v=100
6240 On ch=1 n=e6 v=0
6240 On ch=1 n=c7 v=100
6288 On ch=1 n=c7 v=0
6288 On ch=1 n=f#6 v=100
6336 On ch=1 n=f#6 v=0
6336 On ch=1 n=b6 v=100
6384 On ch=1 n=b6 v=0
6384 On ch=1 n=g6 v=100
6432 On ch=1 n=g6 v=0
6432 On ch=1 n=f#7 v=100
6480 On ch=1 n=f#7 v=0
6480 On ch=1 n=a#6 v=100
6528 On ch=1 n=a#6 v=0
6528 On ch=1 n=e7 v=100
6576 On ch=1 n=e7 v=0
6576 On ch=1 n=b6 v=100
6624 On ch=1 n=b6 v=0
6624 On ch=1 n=e8 v=100
6720 On ch=1 n=e8 v=0
6912 On ch=1 n=f#7 v=100
7008 On ch=1 n=f#7 v=0
7008 On ch=1 n=g7 v=100
7056 On ch=1 n=g7 v=0
7056 On ch=1 n=f#7 v=100
7104 On ch=1 n=f#7 v=0
7104 On ch=1 n=f7 v=100
7152 On ch=1 n=f7 v=0
7152 On ch=1 n=e7 v=100
7200 On ch=1 n=e7 v=0
7200 On ch=1 n=e7 v=100
7248 On ch=1 n=e7 v=0
7248 On ch=1 n=d7 v=100
7296 On ch=1 n=d7 v=0
7296 On ch=1 n=c#7 v=100
7344 On ch=1 n=c#7 v=0
7344 On ch=1 n=b6 v=100
7392 On ch=1 n=b6 v=0
7392 On ch=1 n=a6 v=100
7440 On ch=1 n=a6 v=0
7440 On ch=1 n=g6 v=100
7488 On ch=1 n=g6 v=0
7488 On ch=1 n=f#6 v=100
7536 On ch=1 n=f#6 v=0
7536 On ch=1 n=g6 v=100
7584 On ch=1 n=g6 v=0
7584 On ch=1 n=f6 v=100
7632 On ch=1 n=f6 v=0
7632 On ch=1 n=f#6 v=100
7680 On ch=1 n=f#6 v=0
7680 On ch=1 n=b6 v=100
7728 On ch=1 n=b6 v=0
7728 On ch=1 n=e6 v=100
7776 On ch=1 n=e6 v=0
7776 On ch=1 n=d6 v=100
7824 On ch=1 n=d6 v=0
7824 On ch=1 n=e6 v=100
7872 On ch=1 n=e6 v=0
7872 On ch=1 n=c#6 v=100
7920 On ch=1 n=c#6 v=0
7920 On ch=1 n=d6 v=100
7968 On ch=1 n=d6 v=0
7968 On ch=1 n=g6 v=100
8016 On ch=1 n=g6 v=0
8016 On ch=1 n=b5 v=100
8064 On ch=1 n=b5 v=0
8064 On ch=1 n=a#5 v=100
8112 On ch=1 n=a#5 v=0
8112 On ch=1 n=e6 v=100
8160 On ch=1 n=e6 v=0
8160 On ch=1 n=g#5 v=100
8208 On ch=1 n=g#5 v=0
8208 On ch=1 n=a5 v=100
8256 On ch=1 n=a5 v=0
8256 On ch=1 n=f#6 v=100
8304 On ch=1 n=f#6 v=0
8304 On ch=1 n=d6 v=100
8352 On ch=1 n=d6 v=0
8352 On ch=1 n=a#5 v=100
8400 On ch=1 n=a#5 v=0
8400 On ch=1 n=d6 v=100
8448 On ch=1 n=d6 v=0
8448 On ch=1 n=g#5 v=100
8496 On ch=1 n=g#5 v=0
8496 On ch=1 n=a5 v=100
8544 On ch=1 n=a5 v=0
8544 On ch=1 n=f#6 v=100
8592 On ch=1 n=f#6 v=0
8592 On ch=1 n=d6 v=100
8640 On ch=1 n=d6 v=0
8640 On ch=1 n=g#5 v=100
8688 On ch=1 n=g#5 v=0
8688 On ch=1 n=d6 v=100
8736 On ch=1 n=d6 v=0
8736 On ch=1 n=f#5 v=100
8784 On ch=1 n=f#5 v=0
8784 On ch=1 n=g5 v=100
8832 On ch=1 n=g5 v=0
8832 On ch=1 n=e6 v=100
8880 On ch=1 n=e6 v=0
8880 On ch=1 n=c#6 v=100
8928 On ch=1 n=c#6 v=0
8928 On ch=1 n=g5 v=100
8976 On ch=1 n=g5 v=0
8976 On ch=1 n=c#6 v=100
9024 On ch=1 n=c#6 v=0
9024 On ch=1 n=f5 v=100
9072 On ch=1 n=f5 v=0
9072 On ch=1 n=f#5 v=100
9120 On ch=1 n=f#5 v=0
9120 On ch=1 n=d6 v=100
9168 On ch=1 n=d6 v=0
9168 On ch=1 n=b5 v=100
9216 On ch=1 n=b5 v=0
9216 On ch=1 n=f#5 v=100
9264 On ch=1 n=f#5 v=0
9312 On ch=1 n=g5 v=100
9360 On ch=1 n=g5 v=0
9360 On ch=1 n=f#5 v=100
9408 On ch=1 n=f#5 v=0
9408 On ch=1 n=f5 v=100
9456 On ch=1 n=f5 v=0
9456 On ch=1 n=e5 v=100
9504 On ch=1 n=e5 v=0
9504 On ch=1 n=e5 v=100
9552 On ch=1 n=e5 v=0
9552 On ch=1 n=d5 v=100
9600 On ch=1 n=d5 v=0
9600 On ch=1 n=c#5 v=100
9648 On ch=1 n=c#5 v=0
9648 On ch=1 n=b4 v=100
9696 On ch=1 n=b4 v=0
9696 On ch=1 n=a4 v=100
9744 On ch=1 n=a4 v=0
9744 On ch=1 n=g4 v=100
9792 On ch=1 n=g4 v=0
9792 On ch=1 n=f#4 v=100
9840 On ch=1 n=f#4 v=0
9840 On ch=1 n=g4 v=100
9888 On ch=1 n=g4 v=0
9888 On ch=1 n=f4 v=100
9936 On ch=1 n=f4 v=0
9936 On ch=1 n=f#4 v=100
9984 On ch=1 n=f#4 v=0
9984 On ch=1 n=b4 v=100
10032 On ch=1 n=b4 v=0
10032 On ch=1 n=e4 v=100
10080 On ch=1 n=e4 v=0
10080 On ch=1 n=d4 v=100
10128 On ch=1 n=d4 v=0
10128 On ch=1 n=e4 v=100
10176 On ch=1 n=e4 v=0
10176 On ch=1 n=c#4 v=100
10224 On ch=1 n=c#4 v=0
10224 On ch=1 n=d4 v=100
10272 On ch=1 n=d4 v=0
10272 On ch=1 n=g4 v=100
10320 On ch=1 n=g4 v=0
10320 On ch=1 n=b3 v=100
10368 On ch=1 n=b3 v=0
10368 On ch=1 n=a#3 v=100
10416 On ch=1 n=a#3 v=0
10416 On ch=1 n=c#4 v=100
10464 On ch=1 n=c#4 v=0
10464 On ch=1 n=e4 v=100
10512 On ch=1 n=e4 v=0
10512 On ch=1 n=g4 v=100
10560 On ch=1 n=g4 v=0
10560 On ch=1 n=a#4 v=100
10608 On ch=1 n=a#4 v=0
10608 On ch=1 n=c#5 v=100
10656 On ch=1 n=c#5 v=0
10656 On ch=1 n=d#5 v=100
10704 On ch=1 n=d#5 v=0
10704 On ch=1 n=e5 v=100
10752 On ch=1 n=e5 v=0
10752 On ch=1 n=f5 v=100
10800 On ch=1 n=f5 v=0
10800 On ch=1 n=f#5 v=100
10848 On ch=1 n=f#5 v=0
10848 On ch=1 n=g5 v=100
10896 On ch=1 n=g5 v=0
10896 On ch=1 n=d5 v=100
10944 On ch=1 n=d5 v=0
10944 On ch=1 n=c#5 v=100
10992 On ch=1 n=c#5 v=0
10992 On ch=1 n=e5 v=100
11040 On ch=1 n=e5 v=0
11040 On ch=1 n=c#6 v=100
11040 On ch=1 n=e6 v=100
11088 On ch=1 n=e6 v=0
11088 On ch=1 n=c#6 v=0
11088 On ch=1 n=a#5 v=100
11136 On ch=1 n=a#5 v=0
11136 On ch=1 n=g5 v=100
11184 On ch=1 n=g5 v=0
11184 On ch=1 n=f5 v=100
11232 On ch=1 n=f5 v=0
11232 On ch=1 n=e5 v=100
11280 On ch=1 n=e5 v=0
11280 On ch=1 n=d#5 v=100
11328 On ch=1 n=d#5 v=0
11328 On ch=1 n=d5 v=100
11376 On ch=1 n=d5 v=0
11376 On ch=1 n=c#5 v=100
11424 On ch=1 n=c#5 v=0
11424 On ch=1 n=c5 v=100
11472 On ch=1 n=c5 v=0
11472 On ch=1 n=b4 v=100
11520 On ch=1 n=b4 v=0
11520 On ch=1 n=a#4 v=100
11568 On ch=1 n=a#4 v=0
11568 On ch=1 n=c#5 v=100
11616 On ch=1 n=c#5 v=0
11616 On ch=1 n=e5 v=100
11664 On ch=1 n=e5 v=0
11664 On ch=1 n=g5 v=100
11712 On ch=1 n=g5 v=0
11712 On ch=1 n=a#5 v=100
11760 On ch=1 n=a#5 v=0
11760 On ch=1 n=c#6 v=100
11808 On ch=1 n=c#6 v=0
11808 On ch=1 n=d#6 v=100
11856 On ch=1 n=d#6 v=0
11856 On ch=1 n=e6 v=100
11904 On ch=1 n=e6 v=0
11904 On ch=1 n=f6 v=100
11952 On ch=1 n=f6 v=0
11952 On ch=1 n=f#6 v=100
12000 On ch=1 n=f#6 v=0
12000 On ch=1 n=g6 v=100
12048 On ch=1 n=g6 v=0
12048 On ch=1 n=d6 v=100
12096 On ch=1 n=d6 v=0
12096 On ch=1 n=c#6 v=100
12144 On ch=1 n=c#6 v=0
12192 On ch=1 n=a#5 v=100
12192 On ch=1 n=e6 v=100
12192 On ch=1 n=g6 v=100
12192 On ch=1 n=a#6 v=100
12288 On ch=1 n=a#6 v=0
12288 On ch=1 n=g6 v=0
12288 On ch=1 n=e6 v=0
12288 On ch=1 n=a#5 v=0
12288 On ch=1 n=b5 v=100
12288 On ch=1 n=e6 v=100
12288 On ch=1 n=g6 v=100
12288 On ch=1 n=b6 v=100
12384 On ch=1 n=b6 v=0
12384 On ch=1 n=g6 v=0
12384 On ch=1 n=e6 v=0
12384 On ch=1 n=b5 v=0
12384 Tempo 166666
12384 On ch=1 n=c#6 v=100
12384 On ch=1 n=e6 v=100
12384 On ch=1 n=g6 v=100
12384 On ch=1 n=c#7 v=100
12480 On ch=1 n=c#7 v=0
12480 On ch=1 n=g6 v=0
12480 On ch=1 n=e6 v=0
12480 On ch=1 n=c#6 v=0
12672 Tempo 250000
13056 On ch=1 n=d5 v=100
13056 On ch=1 n=g5 v=100
13056 On ch=1 n=d6 v=100
13152 On ch=1 n=d6 v=0
13152 On ch=1 n=g5 v=0
13152 On ch=1 n=d5 v=0
13152 On ch=1 n=g4 v=100
13152 On ch=1 n=d5 v=100
13152 On ch=1 n=g5 v=100
13248 On ch=1 n=g5 v=0
13248 On ch=1 n=d5 v=0
13248 On ch=1 n=g4 v=0
13248 On ch=1 n=f#5 v=100
13248 On ch=1 n=c#5 v=100
13248 On ch=1 n=g4 v=100
13344 On ch=1 n=f#5 v=0
13344 On ch=1 n=e5 v=100
13440 On ch=1 n=g4 v=0
13440 On ch=1 n=c#5 v=0
13440 On ch=1 n=e5 v=0
14016 On ch=1 n=e5 v=100
14016 On ch=1 n=g5 v=100
14016 On ch=1 n=e6 v=100
14208 On ch=1 n=e6 v=0
14208 On ch=1 n=g5 v=0
14208 On ch=1 n=e5 v=0
14208 On ch=1 n=d5 v=100
14208 On ch=1 n=g5 v=100
14208 On ch=1 n=d6 v=100
14304 On ch=1 n=d6 v=0
14304 On ch=1 n=g5 v=0
14304 On ch=1 n=d5 v=0
14304 On ch=1 n=g4 v=100
14304 On ch=1 n=d5 v=100
14304 On ch=1 n=g5 v=100
14400 On ch=1 n=g5 v=0
14400 On ch=1 n=d5 v=0
14400 On ch=1 n=g4 v=0
14400 On ch=1 n=f#5 v=100
14400 On ch=1 n=c#5 v=100
14400 On ch=1 n=g4 v=100
14592 On ch=1 n=f#5 v=0
14592 On ch=1 n=e5 v=100
14976 On ch=1 n=g4 v=0
14976 On ch=1 n=c#5 v=0
14976 On ch=1 n=e5 v=0
14976 On ch=1 n=e5 v=100
14976 On ch=1 n=b4 v=100
14976 On ch=1 n=f#4 v=100
15072 On ch=1 n=e5 v=0
15072 On ch=1 n=d5 v=100
15168 On ch=1 n=f#4 v=0
15168 On ch=1 n=b4 v=0
15168 On ch=1 n=d5 v=0
15264 Tempo 284360
15552 On ch=1 n=e5 v=100
15552 On ch=1 n=b4 v=100
15552 On ch=1 n=f#4 v=100
15648 On ch=1 n=e5 v=0
15648 On ch=1 n=d5 v=100
15744 On ch=1 n=f#4 v=0
15744 On ch=1 n=b4 v=0
15744 On ch=1 n=d5 v=0
15840 Tempo 315789
16128 On ch=1 n=d5 v=100
16128 On ch=1 n=b4 v=100
16128 On ch=1 n=g4 v=100
16320 On ch=1 n=d5 v=0
16320 On ch=1 n=c#5 v=100
16416 On ch=1 n=g4 v=0
16416 On ch=1 n=b4 v=0
16416 On ch=1 n=c#5 v=0
16416 On ch=1 n=e6 v=100
16416 On ch=1 n=e6 v=100
16992 On ch=1 n=e6 v=0
16992 On ch=1 n=e6 v=0
16992 On ch=1 n=d6 v=100
17088 On ch=1 n=d6 v=0
17088 On ch=1 n=c#6 v=100
17184 On ch=1 n=c#6 v=0
17184 On ch=1 n=b5 v=100
17280 On ch=1 n=b5 v=0
17280 On ch=1 n=c#6 v=100
17519 Par ch=1 c=64 v=127
17520 On ch=1 n=e5 v=100
17520 On ch=1 n=b5 v=100
17568 On ch=1 n=b5 v=0
17568 On ch=1 n=e5 v=0
17568 On ch=1 n=c#6 v=0
17568 On ch=1 n=e6 v=100
17568 On ch=1 n=e6 v=100
18144 On ch=1 n=e6 v=0
18144 On ch=1 n=e6 v=0
18144 On ch=1 n=d6 v=100
18145 Par ch=1 c=64 v=0
18240 On ch=1 n=d6 v=0
18240 On ch=1 n=c#6 v=100
18336 On ch=1 n=c#6 v=0
18336 On ch=1 n=b5 v=100
18432 On ch=1 n=b5 v=0
18432 On ch=1 n=e5 v=100
18432 On ch=1 n=f#5 v=100
18432 On ch=1 n=a#5 v=100
18432 On ch=1 n=c#6 v=100
19008 On ch=1 n=c#6 v=0
19008 On ch=1 n=a#5 v=0
19008 On ch=1 n=e5 v=0
19008 On ch=1 n=d5 v=100
19008 On ch=1 n=b5 v=100
19104 On ch=1 n=b5 v=0
19104 On ch=1 n=f#5 v=0
19104 On ch=1 n=d5 v=0
19584 Tempo 166666
19728 On ch=1 n=d4 v=100
19776 On ch=1 n=d4 v=0
19776 On ch=1 n=g4 v=100
19824 On ch=1 n=g4 v=0
19824 On ch=1 n=d5 v=100
19872 On ch=1 n=d5 v=0
19872 On ch=1 n=c#5 v=100
20016 On ch=1 n=c#5 v=0
20016 On ch=1 n=g4 v=100
20064 On ch=1 n=g4 v=0
20064 On ch=1 n=a4 v=100
20112 On ch=1 n=a4 v=0
20112 On ch=1 n=g4 v=100
20160 On ch=1 n=g4 v=0
20256 On ch=1 n=f#4 v=100
20304 On ch=1 n=f#4 v=0
20304 On ch=1 n=a4 v=100
20352 On ch=1 n=a4 v=0
20352 On ch=1 n=f#5 v=100
20400 On ch=1 n=f#5 v=0
20400 On ch=1 n=f#5 v=100
20448 On ch=1 n=f#5 v=0
20448 On ch=1 n=f#6 v=100
20496 On ch=1 n=f#6 v=0
20880 On ch=1 n=f#4 v=100
20928 On ch=1 n=f#4 v=0
20928 On ch=1 n=b4 v=100
20976 On ch=1 n=b4 v=0
20976 On ch=1 n=f#5 v=100
21024 On ch=1 n=f#5 v=0
21024 On ch=1 n=g#5 v=100
21168 On ch=1 n=g#5 v=0
21168 On ch=1 n=b4 v=100
21216 On ch=1 n=b4 v=0
21216 On ch=1 n=c#5 v=100
21264 On ch=1 n=c#5 v=0
21264 On ch=1 n=b4 v=100
21312 On ch=1 n=b4 v=0
21408 On ch=1 n=a4 v=100
21456 On ch=1 n=a4 v=0
21456 On ch=1 n=c#5 v=100
21504 On ch=1 n=c#5 v=0
21504 On ch=1 n=a5 v=100
21552 On ch=1 n=a5 v=0
21552 On ch=1 n=a5 v=100
21600 On ch=1 n=a5 v=0
21600 On ch=1 n=a6 v=100
21648 On ch=1 n=a6 v=0
22032 On ch=1 n=a4 v=100
22080 On ch=1 n=a4 v=0
22080 On ch=1 n=d5 v=100
22128 On ch=1 n=d5 v=0
22128 On ch=1 n=a5 v=100
22176 On ch=1 n=a5 v=0
22176 On ch=1 n=b5 v=100
22320 On ch=1 n=b5 v=0
22320 On ch=1 n=d5 v=100
22368 On ch=1 n=d5 v=0
22368 On ch=1 n=e5 v=100
22416 On ch=1 n=e5 v=0
22416 On ch=1 n=d5 v=100
22464 On ch=1 n=d5 v=0
22608 On ch=1 n=c#5 v=100
22656 On ch=1 n=c#5 v=0
22656 On ch=1 n=e5 v=100
22704 On ch=1 n=e5 v=0
22704 On ch=1 n=c#6 v=100
22752 On ch=1 n=c#6 v=0
22896 On ch=1 n=c#5 v=100
22944 On ch=1 n=c#5 v=0
22944 On ch=1 n=g5 v=100
22992 On ch=1 n=g5 v=0
22992 On ch=1 n=d#6 v=100
23136 On ch=1 n=d#6 v=0
23184 On ch=1 n=c5 v=100
23232 On ch=1 n=c5 v=0
23232 On ch=1 n=g#5 v=100
23280 On ch=1 n=g#5 v=0
23280 On ch=1 n=c6 v=100
23424 On ch=1 n=c6 v=0
23472 On ch=1 n=c5 v=100
23520 On ch=1 n=c5 v=0
23520 On ch=1 n=f#5 v=100
23568 On ch=1 n=f#5 v=0
23568 On ch=1 n=d6 v=100
23712 On ch=1 n=d6 v=0
23760 On ch=1 n=b4 v=100
23808 On ch=1 n=b4 v=0
23808 On ch=1 n=g5 v=100
23856 On ch=1 n=g5 v=0
23856 On ch=1 n=b5 v=100
24000 On ch=1 n=b5 v=0
24048 On ch=1 n=b4 v=100
24096 On ch=1 n=b4 v=0
24096 On ch=1 n=f5 v=100
24144 On ch=1 n=f5 v=0
24144 On ch=1 n=c#6 v=100
24192 Par ch=1 c=64 v=127
24288 On ch=1 n=c#6 v=0
24336 On ch=1 n=a#4 v=100
24384 On ch=1 n=a#4 v=0
24384 On ch=1 n=f#5 v=100
24432 On ch=1 n=f#5 v=0
24432 On ch=1 n=c#6 v=100
24576 On ch=1 n=c#6 v=0
24624 On ch=1 n=c#5 v=100
24672 On ch=1 n=c#5 v=0
24672 On ch=1 n=a#5 v=100
24720 On ch=1 n=a#5 v=0
24720 On ch=1 n=f#6 v=100
24768 On ch=1 n=f#6 v=0
24768 Par ch=1 c=64 v=127
24912 On ch=1 n=d5 v=100
24960 On ch=1 n=d5 v=0
24960 On ch=1 n=b5 v=100
25008 On ch=1 n=b5 v=0
25008 On ch=1 n=f#6 v=100
25056 On ch=1 n=f#6 v=0
25056 Par ch=1 c=64 v=127
25200 On ch=1 n=f5 v=100
25248 On ch=1 n=f5 v=0
25248 On ch=1 n=b5 v=100
25296 On ch=1 n=b5 v=0
25296 On ch=1 n=g#6 v=100
25344 On ch=1 n=g#6 v=0
25344 Par ch=1 c=64 v=127
25488 On ch=1 n=g#5 v=100
25536 On ch=1 n=g#5 v=0
25536 On ch=1 n=c#6 v=100
25584 On ch=1 n=c#6 v=0
25584 On ch=1 n=a#6 v=100
25632 On ch=1 n=a#6 v=0
25632 Par ch=1 c=64 v=127
25776 On ch=1 n=g5 v=100
25824 On ch=1 n=g5 v=0
25824 On ch=1 n=d#6 v=100
25872 On ch=1 n=d#6 v=0
25872 On ch=1 n=a#6 v=100
25920 On ch=1 n=a#6 v=0
25920 Par ch=1 c=64 v=127
26064 On ch=1 n=g#5 v=100
26112 On ch=1 n=g#5 v=0
26112 On ch=1 n=d#6 v=100
26160 On ch=1 n=d#6 v=0
26160 On ch=1 n=b6 v=100
26208 On ch=1 n=b6 v=0
26208 Par ch=1 c=64 v=127
26352 On ch=1 n=f5 v=100
26400 On ch=1 n=f5 v=0
26400 On ch=1 n=b5 v=100
26448 On ch=1 n=b5 v=0
26448 On ch=1 n=g#6 v=100
26496 On ch=1 n=g#6 v=0
26497 Par ch=1 c=64 v=127
26640 On ch=1 n=f#5 v=100
26688 On ch=1 n=f#5 v=0
26688 On ch=1 n=a#5 v=100
26736 On ch=1 n=a#5 v=0
26736 On ch=1 n=f#6 v=100
26784 On ch=1 n=f#6 v=0
26785 Par ch=1 c=64 v=127
26880 On ch=1 n=f#7 v=100
26928 On ch=1 n=f#7 v=0
26928 On ch=1 n=a#6 v=100
26976 On ch=1 n=a#6 v=0
26976 On ch=1 n=f#7 v=100
26976 On ch=1 n=f#7 v=100
27024 On ch=1 n=f#7 v=0
27024 On ch=1 n=f#7 v=0
27024 On ch=1 n=f#6 v=100
27072 On ch=1 n=f#6 v=0
27072 Par ch=1 c=64 v=127
27168 On ch=1 n=f#7 v=100
27216 On ch=1 n=f#7 v=0
27216 On ch=1 n=b6 v=100
27264 On ch=1 n=b6 v=0
27264 On ch=1 n=f#7 v=100
27264 On ch=1 n=f#7 v=100
27312 On ch=1 n=f#7 v=0
27312 On ch=1 n=f#7 v=0
27312 On ch=1 n=f#6 v=100
27360 On ch=1 n=f#6 v=0
27361 Par ch=1 c=64 v=127
27456 On ch=1 n=g#7 v=100
27504 On ch=1 n=g#7 v=0
27504 On ch=1 n=c#7 v=100
27552 On ch=1 n=c#7 v=0
27552 On ch=1 n=g#7 v=100
27552 On ch=1 n=g#7 v=100
27600 On ch=1 n=g#7 v=0
27600 On ch=1 n=g#7 v=0
27600 On ch=1 n=b6 v=100
27648 On ch=1 n=b6 v=0
27649 Par ch=1 c=64 v=127
27744 On ch=1 n=a#7 v=100
27792 On ch=1 n=a#7 v=0
27792 On ch=1 n=c#7 v=100
27840 On ch=1 n=c#7 v=0
27840 On ch=1 n=a#7 v=100
27888 On ch=1 n=a#7 v=0
27888 On ch=1 n=g#6 v=100
27936 On ch=1 n=g#6 v=0
27936 Par ch=1 c=64 v=127
28032 On ch=1 n=a#7 v=100
28080 On ch=1 n=a#7 v=0
28080 On ch=1 n=c#7 v=100
28128 On ch=1 n=c#7 v=0
28128 On ch=1 n=a#7 v=100
28176 On ch=1 n=a#7 v=0
28176 On ch=1 n=g6 v=100
28224 On ch=1 n=g6 v=0
28225 Par ch=1 c=64 v=127
28320 On ch=1 n=b7 v=100
28368 On ch=1 n=b7 v=0
28368 On ch=1 n=d7 v=100
28416 On ch=1 n=d7 v=0
28416 On ch=1 n=b7 v=100
28464 On ch=1 n=b7 v=0
28464 On ch=1 n=f#6 v=100
28512 On ch=1 n=f#6 v=0
28512 Par ch=1 c=64 v=127
28608 On ch=1 n=g#7 v=100
28656 On ch=1 n=g#7 v=0
28656 On ch=1 n=b6 v=100
28704 On ch=1 n=b6 v=0
28704 On ch=1 n=g#7 v=100
28752 On ch=1 n=g#7 v=0
28752 On ch=1 n=f6 v=100
28800 On ch=1 n=f6 v=0
28801 Par ch=1 c=64 v=127
28896 On ch=1 n=c#7 v=100
28896 On ch=1 n=f#7 v=100
28944 On ch=1 n=f#7 v=0
28944 On ch=1 n=c#7 v=0
28944 On ch=1 n=a#6 v=100
28992 On ch=1 n=a#6 v=0
28992 On ch=1 n=c#7 v=100
28992 On ch=1 n=f#7 v=100
29040 On ch=1 n=f#7 v=0
29040 On ch=1 n=c#7 v=0
29040 On ch=1 n=f#6 v=100
29088 On ch=1 n=f#6 v=0
29088 Par ch=1 c=64 v=127
29184 On ch=1 n=d7 v=100
29184 On ch=1 n=g7 v=100
29232 On ch=1 n=g7 v=0
29232 On ch=1 n=d7 v=0
29232 On ch=1 n=b6 v=100
29280 On ch=1 n=b6 v=0
29280 On ch=1 n=d7 v=100
29280 On ch=1 n=g7 v=100
29328 On ch=1 n=g7 v=0
29328 On ch=1 n=d7 v=0
29328 On ch=1 n=g6 v=100
29376 On ch=1 n=g6 v=0
29377 Par ch=1 c=64 v=127
29472 On ch=1 n=c#7 v=100
29472 On ch=1 n=f#7 v=100
29520 On ch=1 n=f#7 v=0
29520 On ch=1 n=c#7 v=0
29520 On ch=1 n=a#6 v=100
29568 On ch=1 n=a#6 v=0
29568 On ch=1 n=c#7 v=100
29568 On ch=1 n=f#7 v=100
29616 On ch=1 n=f#7 v=0
29616 On ch=1 n=c#7 v=0
29616 On ch=1 n=f#6 v=100
29664 On ch=1 n=f#6 v=0
29664 Par ch=1 c=64 v=127
29760 On ch=1 n=c7 v=100
29760 On ch=1 n=f7 v=100
29808 On ch=1 n=f7 v=0
29808 On ch=1 n=c7 v=0
29808 On ch=1 n=a6 v=100
29856 On ch=1 n=a6 v=0
29856 On ch=1 n=c7 v=100
29856 On ch=1 n=f7 v=100
29904 On ch=1 n=f7 v=0
29904 On ch=1 n=c7 v=0
29904 On ch=1 n=f6 v=100
29952 On ch=1 n=f6 v=0
29953 Par ch=1 c=64 v=127
30048 On ch=1 n=b6 v=100
30048 On ch=1 n=e7 v=100
30096 On ch=1 n=e7 v=0
30096 On ch=1 n=b6 v=0
30096 On ch=1 n=g#6 v=100
30144 On ch=1 n=g#6 v=0
30144 On ch=1 n=b6 v=100
30144 On ch=1 n=e7 v=100
30192 On ch=1 n=e7 v=0
30192 On ch=1 n=b6 v=0
30192 On ch=1 n=e6 v=100
30240 On ch=1 n=e6 v=0
30240 Par ch=1 c=64 v=127
30336 On ch=1 n=c7 v=100
30336 On ch=1 n=f7 v=100
30384 On ch=1 n=f7 v=0
30384 On ch=1 n=c7 v=0
30384 On ch=1 n=a6 v=100
30432 On ch=1 n=a6 v=0
30432 On ch=1 n=c7 v=100
30432 On ch=1 n=f7 v=100
30480 On ch=1 n=f7 v=0
30480 On ch=1 n=c7 v=0
30480 On ch=1 n=f6 v=100
30528 On ch=1 n=f6 v=0
30529 Par ch=1 c=64 v=127
30624 On ch=1 n=b6 v=100
30624 On ch=1 n=e7 v=100
30672 On ch=1 n=e7 v=0
30672 On ch=1 n=b6 v=0
30672 On ch=1 n=g#6 v=100
30720 On ch=1 n=g#6 v=0
30720 On ch=1 n=b6 v=100
30720 On ch=1 n=e7 v=100
30768 On ch=1 n=e7 v=0
30768 On ch=1 n=b6 v=0
30768 On ch=1 n=e6 v=100
30816 On ch=1 n=e6 v=0
30816 Par ch=1 c=64 v=127
30912 On ch=1 n=b6 v=100
30912 On ch=1 n=e7 v=100
30960 On ch=1 n=e7 v=0
30960 On ch=1 n=b6 v=0
30960 On ch=1 n=g6 v=100
31008 On ch=1 n=g6 v=0
31008 On ch=1 n=b6 v=100
31008 On ch=1 n=e7 v=100
31056 On ch=1 n=e7 v=0
31056 On ch=1 n=b6 v=0
31056 On ch=1 n=e6 v=100
31104 On ch=1 n=e6 v=0
31104 On ch=1 n=e6 v=100
31104 On ch=1 n=g6 v=100
31104 On ch=1 n=a#6 v=100
31104 On ch=1 n=c#7 v=100
31104 On ch=1 n=e7 v=100
31105 Par ch=1 c=64 v=127
31200 On ch=1 n=e7 v=0
31200 On ch=1 n=c#7 v=0
31200 On ch=1 n=a#6 v=0
31200 On ch=1 n=g6 v=0
31200 On ch=1 n=e6 v=0
31201 Par ch=1 c=64 v=0
31393 Par ch=1 c=64 v=127
31488 On ch=1 n=c#7 v=100
31536 On ch=1 n=c#7 v=0
31536 On ch=1 n=g7 v=100
31536 On ch=1 n=a#7 v=100
31584 On ch=1 n=a#7 v=0
31584 On ch=1 n=g7 v=0
31584 On ch=1 n=c#7 v=100
31632 On ch=1 n=c#7 v=0
31632 On ch=1 n=e8 v=100
31680 On ch=1 n=e8 v=0
31776 On ch=1 n=a#6 v=100
31824 On ch=1 n=a#6 v=0
31824 On ch=1 n=e7 v=100
31824 On ch=1 n=g7 v=100
31872 On ch=1 n=g7 v=0
31872 On ch=1 n=e7 v=0
31872 On ch=1 n=a#6 v=100
31920 On ch=1 n=a#6 v=0
31920 On ch=1 n=c#8 v=100
31968 On ch=1 n=c#8 v=0
32064 On ch=1 n=g6 v=100
32112 On ch=1 n=g6 v=0
32112 On ch=1 n=c#7 v=100
32112 On ch=1 n=e7 v=100
32160 On ch=1 n=e7 v=0
32160 On ch=1 n=c#7 v=0
32160 On ch=1 n=g6 v=100
32208 On ch=1 n=g6 v=0
32208 On ch=1 n=a#7 v=100
32256 On ch=1 n=a#7 v=0
32352 On ch=1 n=e6 v=100
32400 On ch=1 n=e6 v=0
32400 On ch=1 n=a#6 v=100
32400 On ch=1 n=c#7 v=100
32448 On ch=1 n=c#7 v=0
32448 On ch=1 n=a#6 v=0
32448 On ch=1 n=e6 v=100
32496 On ch=1 n=e6 v=0
32496 On ch=1 n=g7 v=100
32544 On ch=1 n=g7 v=0
32640 On ch=1 n=c#6 v=100
32688 On ch=1 n=c#6 v=0
32688 On ch=1 n=g6 v=100
32688 On ch=1 n=a#6 v=100
32736 On ch=1 n=a#6 v=0
32736 On ch=1 n=g6 v=0
32736 On ch=1 n=c#6 v=100
32784 On ch=1 n=c#6 v=0
32784 On ch=1 n=e7 v=100
32832 On ch=1 n=e7 v=0
32928 On ch=1 n=a#5 v=100
32976 On ch=1 n=a#5 v=0
32976 On ch=1 n=e6 v=100
32976 On ch=1 n=g6 v=100
33024 On ch=1 n=g6 v=0
33024 On ch=1 n=e6 v=0
33024 On ch=1 n=a#5 v=100
33072 On ch=1 n=a#5 v=0
33072 On ch=1 n=c#7 v=100
33120 On ch=1 n=c#7 v=0
33216 On ch=1 n=g5 v=100
33264 On ch=1 n=g5 v=0
33264 On ch=1 n=c#6 v=100
33264 On ch=1 n=e6 v=100
33312 On ch=1 n=e6 v=0
33312 On ch=1 n=c#6 v=0
33312 On ch=1 n=g5 v=100
33360 On ch=1 n=g5 v=0
33360 On ch=1 n=a#6 v=100
33408 On ch=1 n=a#6 v=0
33409 Par ch=1 c=64 v=127
33552 On ch=1 n=c#5 v=100
33552 On ch=1 n=c#5 v=100
33600 On ch=1 n=c#5 v=0
33600 On ch=1 n=c#5 v=0
33600 On ch=1 n=g5 v=100
33648 On ch=1 n=g5 v=0
33648 On ch=1 n=e6 v=100
33696 On ch=1 n=e6 v=0
33696 Par ch=1 c=64 v=127
33840 On ch=1 n=c5 v=100
33840 On ch=1 n=c5 v=100
33888 On ch=1 n=c5 v=0
33888 On ch=1 n=c5 v=0
33888 On ch=1 n=g5 v=100
33936 On ch=1 n=g5 v=0
33936 On ch=1 n=e6 v=100
33984 On ch=1 n=e6 v=0
33984 Par ch=1 c=64 v=127
34128 On ch=1 n=b4 v=100
34128 On ch=1 n=b4 v=100
34176 On ch=1 n=b4 v=0
34176 On ch=1 n=b4 v=0
34176 On ch=1 n=g5 v=100
34224 On ch=1 n=g5 v=0
34224 On ch=1 n=e6 v=100
34272 On ch=1 n=e6 v=0
34273 Par ch=1 c=64 v=127
34416 On ch=1 n=a#4 v=100
34416 On ch=1 n=a#4 v=100
34464 On ch=1 n=a#4 v=0
34464 On ch=1 n=a#4 v=0
34464 On ch=1 n=g5 v=100
34512 On ch=1 n=g5 v=0
34512 On ch=1 n=e6 v=100
34560 On ch=1 n=e6 v=0
34561 Par ch=1 c=64 v=127
34704 On ch=1 n=c#5 v=100
34704 On ch=1 n=c#5 v=100
34752 On ch=1 n=c#5 v=0
34752 On ch=1 n=c#5 v=0
34752 On ch=1 n=g5 v=100
34800 On ch=1 n=g5 v=0
34800 On ch=1 n=e6 v=100
34848 On ch=1 n=e6 v=0
34848 Par ch=1 c=64 v=127
34992 On ch=1 n=c5 v=100
34992 On ch=1 n=c5 v=100
35040 On ch=1 n=c5 v=0
35040 On ch=1 n=c5 v=0
35040 On ch=1 n=g5 v=100
35088 On ch=1 n=g5 v=0
35088 On ch=1 n=e6 v=100
35136 On ch=1 n=e6 v=0
35136 Par ch=1 c=64 v=127
35280 On ch=1 n=b4 v=100
35280 On ch=1 n=b4 v=100
35328 On ch=1 n=b4 v=0
35328 On ch=1 n=b4 v=0
35328 On ch=1 n=g5 v=100
35376 On ch=1 n=g5 v=0
35376 On ch=1 n=e6 v=100
35424 On ch=1 n=e6 v=0
35425 Par ch=1 c=64 v=127
35568 On ch=1 n=a#4 v=100
35568 On ch=1 n=a#4 v=100
35616 On ch=1 n=a#4 v=0
35616 On ch=1 n=a#4 v=0
35616 On ch=1 n=g5 v=100
35664 On ch=1 n=g5 v=0
35664 On ch=1 n=e6 v=100
35712 On ch=1 n=e6 v=0
35713 Par ch=1 c=64 v=0
35855 On ch=1 n=f4 v=100
35903 On ch=1 n=f4 v=0
35903 On ch=1 n=f#4 v=100
35951 On ch=1 n=f#4 v=0
35951 On ch=1 n=b4 v=100
35999 On ch=1 n=b4 v=0
35999 On ch=1 n=d5 v=100
36047 On ch=1 n=d5 v=0
36047 On ch=1 n=a#4 v=100
36095 On ch=1 n=a#4 v=0
36095 On ch=1 n=c#5 v=100
36143 On ch=1 n=c#5 v=0
36143 On ch=1 n=b4 v=100
36191 On ch=1 n=b4 v=0
36191 On ch=1 n=d5 v=100
36239 On ch=1 n=d5 v=0
36239 On ch=1 n=f#5 v=100
36287 On ch=1 n=f#5 v=0
36287 On ch=1 n=d6 v=100
36335 On ch=1 n=d6 v=0
36431 On ch=1 n=f4 v=100
36479 On ch=1 n=f4 v=0
36479 On ch=1 n=f#4 v=100
36527 On ch=1 n=f#4 v=0
36527 On ch=1 n=b4 v=100
36575 On ch=1 n=b4 v=0
36575 On ch=1 n=d5 v=100
36623 On ch=1 n=d5 v=0
36623 On ch=1 n=a#4 v=100
36671 On ch=1 n=a#4 v=0
36671 On ch=1 n=c#5 v=100
36719 On ch=1 n=c#5 v=0
36719 On ch=1 n=b4 v=100
36767 On ch=1 n=b4 v=0
36767 On ch=1 n=d5 v=100
36815 On ch=1 n=d5 v=0
36815 On ch=1 n=f#5 v=100
36863 On ch=1 n=f#5 v=0
36863 On ch=1 n=d6 v=100
36911 On ch=1 n=d6 v=0
36959 On ch=1 n=e6 v=100
37007 On ch=1 n=e6 v=0
37007 On ch=1 n=a#5 v=100
37055 On ch=1 n=a#5 v=0
37055 On ch=1 n=d6 v=100
37103 On ch=1 n=d6 v=0
37103 On ch=1 n=b5 v=100
37151 On ch=1 n=b5 v=0
37151 On ch=1 n=g6 v=100
37199 On ch=1 n=g6 v=0
37199 On ch=1 n=c#6 v=100
37247 On ch=1 n=c#6 v=0
37247 On ch=1 n=f#6 v=100
37295 On ch=1 n=f#6 v=0
37295 On ch=1 n=d6 v=100
37343 On ch=1 n=d6 v=0
37343 On ch=1 n=c#7 v=100
37391 On ch=1 n=c#7 v=0
37391 On ch=1 n=f6 v=100
37439 On ch=1 n=f6 v=0
37439 On ch=1 n=b6 v=100
37487 On ch=1 n=b6 v=0
37487 On ch=1 n=f#6 v=100
37535 On ch=1 n=f#6 v=0
37535 On ch=1 n=e7 v=100
37583 On ch=1 n=e7 v=0
37583 On ch=1 n=a#6 v=100
37631 On ch=1 n=a#6 v=0
37631 On ch=1 n=d7 v=100
37679 On ch=1 n=d7 v=0
37679 On ch=1 n=b6 v=100
37727 On ch=1 n=b6 v=0
37727 On ch=1 n=b7 v=100
37823 On ch=1 n=b7 v=0
38159 On ch=1 n=a#4 v=100
38207 On ch=1 n=a#4 v=0
38207 On ch=1 n=b4 v=100
38255 On ch=1 n=b4 v=0
38255 On ch=1 n=e5 v=100
38303 On ch=1 n=e5 v=0
38303 On ch=1 n=g5 v=100
38351 On ch=1 n=g5 v=0
38351 On ch=1 n=d#5 v=100
38399 On ch=1 n=d#5 v=0
38399 On ch=1 n=f#5 v=100
38447 On ch=1 n=f#5 v=0
38447 On ch=1 n=e5 v=100
38495 On ch=1 n=e5 v=0
38495 On ch=1 n=g5 v=100
38543 On ch=1 n=g5 v=0
38543 On ch=1 n=b5 v=100
38591 On ch=1 n=b5 v=0
38591 On ch=1 n=e6 v=100
38639 On ch=1 n=e6 v=0
38735 On ch=1 n=a#4 v=100
38783 On ch=1 n=a#4 v=0
38783 On ch=1 n=b4 v=100
38831 On ch=1 n=b4 v=0
38831 On ch=1 n=e5 v=100
38879 On ch=1 n=e5 v=0
38879 On ch=1 n=g5 v=100
38927 On ch=1 n=g5 v=0
38927 On ch=1 n=d#5 v=100
38975 On ch=1 n=d#5 v=0
38975 On ch=1 n=f#5 v=100
39023 On ch=1 n=f#5 v=0
39023 On ch=1 n=e5 v=100
39071 On ch=1 n=e5 v=0
39071 On ch=1 n=g5 v=100
39119 On ch=1 n=g5 v=0
39119 On ch=1 n=b5 v=100
39167 On ch=1 n=b5 v=0
39167 On ch=1 n=g6 v=100
39215 On ch=1 n=g6 v=0
39263 On ch=1 n=f#6 v=100
39311 On ch=1 n=f#6 v=0
39311 On ch=1 n=a#5 v=100
39359 On ch=1 n=a#5 v=0
39359 On ch=1 n=e6 v=100
39407 On ch=1 n=e6 v=0
39407 On ch=1 n=b5 v=100
39455 On ch=1 n=b5 v=0
39455 On ch=1 n=a6 v=100
39503 On ch=1 n=a6 v=0
39503 On ch=1 n=d#6 v=100
39551 On ch=1 n=d#6 v=0
39551 On ch=1 n=g6 v=100
39599 On ch=1 n=g6 v=0
39599 On ch=1 n=e6 v=100
39647 On ch=1 n=e6 v=0
39647 On ch=1 n=c7 v=100
39695 On ch=1 n=c7 v=0
39695 On ch=1 n=f#6 v=100
39743 On ch=1 n=f#6 v=0
39743 On ch=1 n=b6 v=100
39791 On ch=1 n=b6 v=0
39791 On ch=1 n=g6 v=100
39839 On ch=1 n=g6 v=0
39839 On ch=1 n=f#7 v=100
39887 On ch=1 n=f#7 v=0
39887 On ch=1 n=a#6 v=100
39935 On ch=1 n=a#6 v=0
39935 On ch=1 n=e7 v=100
39983 On ch=1 n=e7 v=0
39983 On ch=1 n=b6 v=100
40031 On ch=1 n=b6 v=0
40031 On ch=1 n=e8 v=100
40127 On ch=1 n=e8 v=0
40319 On ch=1 n=f#7 v=100
40415 On ch=1 n=f#7 v=0
40415 On ch=1 n=g7 v=100
40463 On ch=1 n=g7 v=0
40463 On ch=1 n=f#7 v=100
40511 On ch=1 n=f#7 v=0
40511 On ch=1 n=f7 v=100
40559 On ch=1 n=f7 v=0
40559 On ch=1 n=e7 v=100
40607 On ch=1 n=e7 v=0
40607 On ch=1 n=e7 v=100
40655 On ch=1 n=e7 v=0
40655 On ch=1 n=d7 v=100
40703 On ch=1 n=d7 v=0
40703 On ch=1 n=c#7 v=100
40751 On ch=1 n=c#7 v=0
40751 On ch=1 n=b6 v=100
40799 On ch=1 n=b6 v=0
40799 On ch=1 n=a6 v=100
40847 On ch=1 n=a6 v=0
40847 On ch=1 n=g6 v=100
40895 On ch=1 n=g6 v=0
40895 On ch=1 n=f#6 v=100
40943 On ch=1 n=f#6 v=0
40943 On ch=1 n=g6 v=100
40991 On ch=1 n=g6 v=0
40991 On ch=1 n=f6 v=100
41039 On ch=1 n=f6 v=0
41039 On ch=1 n=f#6 v=100
41087 On ch=1 n=f#6 v=0
41087 On ch=1 n=b6 v=100
41135 On ch=1 n=b6 v=0
41135 On ch=1 n=e6 v=100
41183 On ch=1 n=e6 v=0
41183 On ch=1 n=d6 v=100
41231 On ch=1 n=d6 v=0
41231 On ch=1 n=e6 v=100
41279 On ch=1 n=e6 v=0
41279 On ch=1 n=c#6 v=100
41327 On ch=1 n=c#6 v=0
41327 On ch=1 n=d6 v=100
41375 On ch=1 n=d6 v=0
41375 On ch=1 n=g6 v=100
41423 On ch=1 n=g6 v=0
41423 On ch=1 n=b5 v=100
41471 On ch=1 n=b5 v=0
41471 On ch=1 n=a#5 v=100
41519 On ch=1 n=a#5 v=0
41519 On ch=1 n=e6 v=100
41567 On ch=1 n=e6 v=0
41567 On ch=1 n=g#5 v=100
41615 On ch=1 n=g#5 v=0
41615 On ch=1 n=a5 v=100
41663 On ch=1 n=a5 v=0
41663 On ch=1 n=f#6 v=100
41711 On ch=1 n=f#6 v=0
41711 On ch=1 n=d6 v=100
41759 On ch=1 n=d6 v=0
41759 On ch=1 n=a#5 v=100
41807 On ch=1 n=a#5 v=0
41807 On ch=1 n=d6 v=100
41855 On ch=1 n=d6 v=0
41855 On ch=1 n=g#5 v=100
41903 On ch=1 n=g#5 v=0
41903 On ch=1 n=a5 v=100
41951 On ch=1 n=a5 v=0
41951 On ch=1 n=f#6 v=100
41999 On ch=1 n=f#6 v=0
41999 On ch=1 n=d6 v=100
42047 On ch=1 n=d6 v=0
42047 On ch=1 n=g#5 v=100
42095 On ch=1 n=g#5 v=0
42095 On ch=1 n=d6 v=100
42143 On ch=1 n=d6 v=0
42143 On ch=1 n=f#5 v=100
42191 On ch=1 n=f#5 v=0
42191 On ch=1 n=g5 v=100
42239 On ch=1 n=g5 v=0
42239 On ch=1 n=e6 v=100
42287 On ch=1 n=e6 v=0
42287 On ch=1 n=c#6 v=100
42335 On ch=1 n=c#6 v=0
42335 On ch=1 n=g5 v=100
42383 On ch=1 n=g5 v=0
42383 On ch=1 n=c#6 v=100
42431 On ch=1 n=c#6 v=0
42431 On ch=1 n=f5 v=100
42479 On ch=1 n=f5 v=0
42479 On ch=1 n=f#5 v=100
42527 On ch=1 n=f#5 v=0
42527 On ch=1 n=d6 v=100
42575 On ch=1 n=d6 v=0
42575 On ch=1 n=b5 v=100
42623 On ch=1 n=b5 v=0
42623 On ch=1 n=f#5 v=100
42671 On ch=1 n=f#5 v=0
42719 On ch=1 n=g5 v=100
42767 On ch=1 n=g5 v=0
42767 On ch=1 n=f#5 v=100
42815 On ch=1 n=f#5 v=0
42815 On ch=1 n=f5 v=100
42863 On ch=1 n=f5 v=0
42863 On ch=1 n=e5 v=100
42911 On ch=1 n=e5 v=0
42911 On ch=1 n=e5 v=100
42959 On ch=1 n=e5 v=0
42959 On ch=1 n=d5 v=100
43007 On ch=1 n=d5 v=0
43007 On ch=1 n=c#5 v=100
43055 On ch=1 n=c#5 v=0
43055 On ch=1 n=b4 v=100
43103 On ch=1 n=b4 v=0
43103 On ch=1 n=a4 v=100
43151 On ch=1 n=a4 v=0
43151 On ch=1 n=g4 v=100
43199 On ch=1 n=g4 v=0
43199 On ch=1 n=f#4 v=100
43247 On ch=1 n=f#4 v=0
43247 On ch=1 n=g4 v=100
43295 On ch=1 n=g4 v=0
43295 On ch=1 n=f4 v=100
43343 On ch=1 n=f4 v=0
43343 On ch=1 n=f#4 v=100
43391 On ch=1 n=f#4 v=0
43391 On ch=1 n=b4 v=100
43439 On ch=1 n=b4 v=0
43439 On ch=1 n=e4 v=100
43487 On ch=1 n=e4 v=0
43487 On ch=1 n=d4 v=100
43535 On ch=1 n=d4 v=0
43535 On ch=1 n=e4 v=100
43583 On ch=1 n=e4 v=0
43583 On ch=1 n=c#4 v=100
43631 On ch=1 n=c#4 v=0
43631 On ch=1 n=d4 v=100
43679 On ch=1 n=d4 v=0
43679 On ch=1 n=g4 v=100
43727 On ch=1 n=g4 v=0
43727 On ch=1 n=b3 v=100
43775 On ch=1 n=b3 v=0
43775 On ch=1 n=a#3 v=100
43823 On ch=1 n=a#3 v=0
43823 On ch=1 n=c#4 v=100
43871 On ch=1 n=c#4 v=0
43871 On ch=1 n=e4 v=100
43919 On ch=1 n=e4 v=0
43919 On ch=1 n=g4 v=100
43967 On ch=1 n=g4 v=0
43967 On ch=1 n=a#4 v=100
44015 On ch=1 n=a#4 v=0
44015 On ch=1 n=c#5 v=100
44063 On ch=1 n=c#5 v=0
44063 On ch=1 n=d#5 v=100
44111 On ch=1 n=d#5 v=0
44111 On ch=1 n=e5 v=100
44159 On ch=1 n=e5 v=0
44159 On ch=1 n=f5 v=100
44207 On ch=1 n=f5 v=0
44207 On ch=1 n=f#5 v=100
44255 On ch=1 n=f#5 v=0
44255 On ch=1 n=g5 v=100
44303 On ch=1 n=g5 v=0
44303 On ch=1 n=d5 v=100
44351 On ch=1 n=d5 v=0
44351 On ch=1 n=c#5 v=100
44399 On ch=1 n=c#5 v=0
44399 On ch=1 n=e5 v=100
44447 On ch=1 n=e5 v=0
44447 On ch=1 n=c#6 v=100
44447 On ch=1 n=e6 v=100
44495 On ch=1 n=e6 v=0
44495 On ch=1 n=c#6 v=0
44495 On ch=1 n=a#5 v=100
44543 On ch=1 n=a#5 v=0
44543 On ch=1 n=g5 v=100
44591 On ch=1 n=g5 v=0
44591 On ch=1 n=f5 v=100
44639 On ch=1 n=f5 v=0
44639 On ch=1 n=e5 v=100
44687 On ch=1 n=e5 v=0
44687 On ch=1 n=d#5 v=100
44735 On ch=1 n=d#5 v=0
44735 On ch=1 n=d5 v=100
44783 On ch=1 n=d5 v=0
44783 On ch=1 n=c#5 v=100
44831 On ch=1 n=c#5 v=0
44831 On ch=1 n=c5 v=100
44879 On ch=1 n=c5 v=0
44879 On ch=1 n=b4 v=100
44927 On ch=1 n=b4 v=0
44927 On ch=1 n=a#4 v=100
44975 On ch=1 n=a#4 v=0
44975 On ch=1 n=c#5 v=100
45023 On ch=1 n=c#5 v=0
45023 On ch=1 n=e5 v=100
45071 On ch=1 n=e5 v=0
45071 On ch=1 n=g5 v=100
45119 On ch=1 n=g5 v=0
45119 On ch=1 n=a#5 v=100
45167 On ch=1 n=a#5 v=0
45167 On ch=1 n=c#6 v=100
45215 On ch=1 n=c#6 v=0
45215 On ch=1 n=d#6 v=100
45263 On ch=1 n=d#6 v=0
45263 On ch=1 n=e6 v=100
45311 On ch=1 n=e6 v=0
45311 On ch=1 n=f6 v=100
45359 On ch=1 n=f6 v=0
45359 On ch=1 n=f#6 v=100
45407 On ch=1 n=f#6 v=0
45407 On ch=1 n=g6 v=100
45455 On ch=1 n=g6 v=0
45455 On ch=1 n=d6 v=100
45503 On ch=1 n=d6 v=0
45503 On ch=1 n=c#6 v=100
45551 On ch=1 n=c#6 v=0
45599 On ch=1 n=a#5 v=100
45599 On ch=1 n=e6 v=100
45599 On ch=1 n=g6 v=100
45599 On ch=1 n=a#6 v=100
45695 On ch=1 n=a#6 v=0
45695 On ch=1 n=g6 v=0
45695 On ch=1 n=e6 v=0
45695 On ch=1 n=a#5 v=0
45695 On ch=1 n=b5 v=100
45695 On ch=1 n=e6 v=100
45695 On ch=1 n=g6 v=100
45695 On ch=1 n=b6 v=100
45791 On ch=1 n=b6 v=0
45791 On ch=1 n=g6 v=0
45791 On ch=1 n=e6 v=0
45791 On ch=1 n=b5 v=0
45791 On ch=1 n=c#6 v=100
45791 On ch=1 n=e6 v=100
45791 On ch=1 n=g6 v=100
45791 On ch=1 n=c#7 v=100
45887 On ch=1 n=c#7 v=0
45887 On ch=1 n=g6 v=0
45887 On ch=1 n=e6 v=0
45887 On ch=1 n=c#6 v=0
46081 Tempo 166666
46368 Tempo 250000
46463 On ch=1 n=d5 v=100
46463 On ch=1 n=g5 v=100
46463 On ch=1 n=d6 v=100
46559 On ch=1 n=d6 v=0
46559 On ch=1 n=g5 v=0
46559 On ch=1 n=d5 v=0
46559 On ch=1 n=g4 v=100
46559 On ch=1 n=d5 v=100
46559 On ch=1 n=g5 v=100
46655 On ch=1 n=g5 v=0
46655 On ch=1 n=d5 v=0
46655 On ch=1 n=g4 v=0
46655 On ch=1 n=f#5 v=100
46655 On ch=1 n=c#5 v=100
46655 On ch=1 n=g4 v=100
46751 On ch=1 n=f#5 v=0
46751 On ch=1 n=e5 v=100
46847 On ch=1 n=g4 v=0
46847 On ch=1 n=c#5 v=0
46847 On ch=1 n=e5 v=0
47423 On ch=1 n=e5 v=100
47423 On ch=1 n=g5 v=100
47423 On ch=1 n=e6 v=100
47615 On ch=1 n=e6 v=0
47615 On ch=1 n=g5 v=0
47615 On ch=1 n=e5 v=0
47615 On ch=1 n=d5 v=100
47615 On ch=1 n=g5 v=100
47615 On ch=1 n=d6 v=100
47711 On ch=1 n=d6 v=0
47711 On ch=1 n=g5 v=0
47711 On ch=1 n=d5 v=0
47711 On ch=1 n=g4 v=100
47711 On ch=1 n=d5 v=100
47711 On ch=1 n=g5 v=100
47807 On ch=1 n=g5 v=0
47807 On ch=1 n=d5 v=0
47807 On ch=1 n=g4 v=0
47807 On ch=1 n=f#5 v=100
47807 On ch=1 n=c#5 v=100
47807 On ch=1 n=g4 v=100
47999 On ch=1 n=f#5 v=0
47999 On ch=1 n=e5 v=100
48383 On ch=1 n=g4 v=0
48383 On ch=1 n=c#5 v=0
48383 On ch=1 n=e5 v=0
48383 On ch=1 n=e5 v=100
48383 On ch=1 n=b4 v=100
48383 On ch=1 n=f#4 v=100
48479 On ch=1 n=e5 v=0
48479 On ch=1 n=d5 v=100
48575 On ch=1 n=f#4 v=0
48575 On ch=1 n=b4 v=0
48575 On ch=1 n=d5 v=0
48672 Tempo 284360
48959 On ch=1 n=e5 v=100
48959 On ch=1 n=b4 v=100
48959 On ch=1 n=f#4 v=100
49055 On ch=1 n=e5 v=0
49055 On ch=1 n=d5 v=100
49151 On ch=1 n=f#4 v=0
49151 On ch=1 n=b4 v=0
49151 On ch=1 n=d5 v=0
49248 Tempo 315789
49535 On ch=1 n=d5 v=100
49535 On ch=1 n=b4 v=100
49535 On ch=1 n=g4 v=100
49727 On ch=1 n=d5 v=0
49727 On ch=1 n=c#5 v=100
49823 On ch=1 n=g4 v=0
49823 On ch=1 n=b4 v=0
49823 On ch=1 n=c#5 v=0
49823 On ch=1 n=e6 v=100
49823 On ch=1 n=e6 v=100
50399 On ch=1 n=e6 v=0
50399 On ch=1 n=e6 v=0
50399 On ch=1 n=d6 v=100
50495 On ch=1 n=d6 v=0
50495 On ch=1 n=c#6 v=100
50591 On ch=1 n=c#6 v=0
50591 On ch=1 n=b5 v=100
50687 On ch=1 n=b5 v=0
50687 On ch=1 n=c#6 v=100
50927 Par ch=1 c=64 v=127
50927 On ch=1 n=e5 v=100
50927 On ch=1 n=b5 v=100
50975 On ch=1 n=b5 v=0
50975 On ch=1 n=e5 v=0
50975 On ch=1 n=c#6 v=0
50975 On ch=1 n=e6 v=100
50975 On ch=1 n=e6 v=100
51551 On ch=1 n=e6 v=0
51551 On ch=1 n=e6 v=0
51551 On ch=1 n=d6 v=100
51552 Par ch=1 c=64 v=0
51647 On ch=1 n=d6 v=0
51647 On ch=1 n=c#6 v=100
51743 On ch=1 n=c#6 v=0
51743 On ch=1 n=b5 v=100
51839 On ch=1 n=b5 v=0
51839 On ch=1 n=e5 v=100
51839 On ch=1 n=f#5 v=100
51839 On ch=1 n=a#5 v=100
51839 On ch=1 n=c#6 v=100
52415 On ch=1 n=c#6 v=0
52415 On ch=1 n=a#5 v=0
52415 On ch=1 n=e5 v=0
52415 On ch=1 n=d5 v=100
52415 On ch=1 n=b5 v=100
52511 On ch=1 n=b5 v=0
52511 On ch=1 n=f#5 v=0
52511 On ch=1 n=d5 v=0
52992 Tempo 166666
53136 On ch=1 n=d4 v=100
53184 On ch=1 n=d4 v=0
53184 On ch=1 n=g4 v=100
53232 On ch=1 n=g4 v=0
53232 On ch=1 n=d5 v=100
53280 On ch=1 n=d5 v=0
53280 On ch=1 n=c#5 v=100
53424 On ch=1 n=c#5 v=0
53424 On ch=1 n=g4 v=100
53472 On ch=1 n=g4 v=0
53472 On ch=1 n=a4 v=100
53520 On ch=1 n=a4 v=0
53520 On ch=1 n=g4 v=100
53568 On ch=1 n=g4 v=0
53664 On ch=1 n=f#4 v=100
53712 On ch=1 n=f#4 v=0
53712 On ch=1 n=a4 v=100
53760 On ch=1 n=a4 v=0
53760 On ch=1 n=f#5 v=100
53808 On ch=1 n=f#5 v=0
53808 On ch=1 n=f#5 v=100
53856 On ch=1 n=f#5 v=0
53856 On ch=1 n=f#6 v=100
53904 On ch=1 n=f#6 v=0
54288 On ch=1 n=f#4 v=100
54336 On ch=1 n=f#4 v=0
54336 On ch=1 n=b4 v=100
54384 On ch=1 n=b4 v=0
54384 On ch=1 n=f#5 v=100
54432 On ch=1 n=f#5 v=0
54432 On ch=1 n=g#5 v=100
54576 On ch=1 n=g#5 v=0
54576 On ch=1 n=b4 v=100
54624 On ch=1 n=b4 v=0
54624 On ch=1 n=c#5 v=100
54672 On ch=1 n=c#5 v=0
54672 On ch=1 n=b4 v=100
54720 On ch=1 n=b4 v=0
54816 On ch=1 n=a4 v=100
54864 On ch=1 n=a4 v=0
54864 On ch=1 n=c#5 v=100
54912 On ch=1 n=c#5 v=0
54912 On ch=1 n=a5 v=100
54960 On ch=1 n=a5 v=0
54960 On ch=1 n=a5 v=100
55008 On ch=1 n=a5 v=0
55008 On ch=1 n=a6 v=100
55056 On ch=1 n=a6 v=0
55440 On ch=1 n=a4 v=100
55488 On ch=1 n=a4 v=0
55488 On ch=1 n=d5 v=100
55536 On ch=1 n=d5 v=0
55536 On ch=1 n=a5 v=100
55584 On ch=1 n=a5 v=0
55584 On ch=1 n=b5 v=100
55728 On ch=1 n=b5 v=0
55728 On ch=1 n=d5 v=100
55776 On ch=1 n=d5 v=0
55776 On ch=1 n=e5 v=100
55824 On ch=1 n=e5 v=0
55824 On ch=1 n=d5 v=100
55872 On ch=1 n=d5 v=0
56016 On ch=1 n=c#5 v=100
56064 On ch=1 n=c#5 v=0
56064 On ch=1 n=e5 v=100
56112 On ch=1 n=e5 v=0
56112 On ch=1 n=c#6 v=100
56160 On ch=1 n=c#6 v=0
56304 On ch=1 n=c#5 v=100
56352 On ch=1 n=c#5 v=0
56352 On ch=1 n=g5 v=100
56400 On ch=1 n=g5 v=0
56400 On ch=1 n=d#6 v=100
56544 On ch=1 n=d#6 v=0
56592 On ch=1 n=c5 v=100
56640 On ch=1 n=c5 v=0
56640 On ch=1 n=g#5 v=100
56688 On ch=1 n=g#5 v=0
56688 On ch=1 n=c6 v=100
56832 On ch=1 n=c6 v=0
56880 On ch=1 n=c5 v=100
56928 On ch=1 n=c5 v=0
56928 On ch=1 n=f#5 v=100
56976 On ch=1 n=f#5 v=0
56976 On ch=1 n=d6 v=100
57120 On ch=1 n=d6 v=0
57168 On ch=1 n=b4 v=100
57216 On ch=1 n=b4 v=0
57216 On ch=1 n=g5 v=100
57264 On ch=1 n=g5 v=0
57264 On ch=1 n=b5 v=100
57408 On ch=1 n=b5 v=0
57456 On ch=1 n=b4 v=100
57504 On ch=1 n=b4 v=0
57504 On ch=1 n=f5 v=100
57552 On ch=1 n=f5 v=0
57552 On ch=1 n=c#6 v=100
57600 Par ch=1 c=64 v=127
57696 On ch=1 n=c#6 v=0
57744 On ch=1 n=a#4 v=100
57792 On ch=1 n=a#4 v=0
57792 On ch=1 n=f#5 v=100
57840 On ch=1 n=f#5 v=0
57840 On ch=1 n=c#6 v=100
57888 Par ch=1 c=64 v=127
57984 On ch=1 n=c#6 v=0
58032 On ch=1 n=c#5 v=100
58080 On ch=1 n=c#5 v=0
58080 On ch=1 n=a#5 v=100
58128 On ch=1 n=a#5 v=0
58128 On ch=1 n=f#6 v=100
58176 On ch=1 n=f#6 v=0
58320 On ch=1 n=d5 v=100
58368 On ch=1 n=d5 v=0
58368 On ch=1 n=b5 v=100
58416 On ch=1 n=b5 v=0
58416 On ch=1 n=f#6 v=100
58464 On ch=1 n=f#6 v=0
58464 Par ch=1 c=64 v=127
58608 On ch=1 n=f5 v=100
58656 On ch=1 n=f5 v=0
58656 On ch=1 n=b5 v=100
58704 On ch=1 n=b5 v=0
58704 On ch=1 n=g#6 v=100
58752 On ch=1 n=g#6 v=0
58752 Par ch=1 c=64 v=127
58896 On ch=1 n=g#5 v=100
58944 On ch=1 n=g#5 v=0
58944 On ch=1 n=c#6 v=100
58992 On ch=1 n=c#6 v=0
58992 On ch=1 n=a#6 v=100
59040 On ch=1 n=a#6 v=0
59040 Par ch=1 c=64 v=127
59184 On ch=1 n=g5 v=100
59232 On ch=1 n=g5 v=0
59232 On ch=1 n=d#6 v=100
59280 On ch=1 n=d#6 v=0
59280 On ch=1 n=a#6 v=100
59328 On ch=1 n=a#6 v=0
59328 Par ch=1 c=64 v=127
59472 On ch=1 n=g#5 v=100
59520 On ch=1 n=g#5 v=0
59520 On ch=1 n=d#6 v=100
59568 On ch=1 n=d#6 v=0
59568 On ch=1 n=b6 v=100
59616 On ch=1 n=b6 v=0
59616 Par ch=1 c=64 v=127
59760 On ch=1 n=f5 v=100
59808 On ch=1 n=f5 v=0
59808 On ch=1 n=b5 v=100
59856 On ch=1 n=b5 v=0
59856 On ch=1 n=g#6 v=100
59904 On ch=1 n=g#6 v=0
59904 Par ch=1 c=64 v=127
60048 On ch=1 n=f#5 v=100
60096 On ch=1 n=f#5 v=0
60096 On ch=1 n=a#5 v=100
60144 On ch=1 n=a#5 v=0
60144 On ch=1 n=f#6 v=100
60192 On ch=1 n=f#6 v=0
60193 Par ch=1 c=64 v=127
60288 On ch=1 n=f#7 v=100
60336 On ch=1 n=f#7 v=0
60336 On ch=1 n=a#6 v=100
60384 On ch=1 n=a#6 v=0
60384 On ch=1 n=f#7 v=100
60384 On ch=1 n=f#7 v=100
60432 On ch=1 n=f#7 v=0
60432 On ch=1 n=f#7 v=0
60432 On ch=1 n=f#6 v=100
60480 On ch=1 n=f#6 v=0
60481 Par ch=1 c=64 v=127
60576 On ch=1 n=f#7 v=100
60624 On ch=1 n=f#7 v=0
60624 On ch=1 n=b6 v=100
60672 On ch=1 n=b6 v=0
60672 On ch=1 n=f#7 v=100
60672 On ch=1 n=f#7 v=100
60720 On ch=1 n=f#7 v=0
60720 On ch=1 n=f#7 v=0
60720 On ch=1 n=f#6 v=100
60768 On ch=1 n=f#6 v=0
60768 Par ch=1 c=64 v=127
60864 On ch=1 n=g#7 v=100
60912 On ch=1 n=g#7 v=0
60912 On ch=1 n=c#7 v=100
60960 On ch=1 n=c#7 v=0
60960 On ch=1 n=g#7 v=100
60960 On ch=1 n=g#7 v=100
61008 On ch=1 n=g#7 v=0
61008 On ch=1 n=g#7 v=0
61008 On ch=1 n=b6 v=100
61056 On ch=1 n=b6 v=0
61057 Par ch=1 c=64 v=127
61152 On ch=1 n=a#7 v=100
61200 On ch=1 n=a#7 v=0
61200 On ch=1 n=c#7 v=100
61248 On ch=1 n=c#7 v=0
61248 On ch=1 n=a#7 v=100
61296 On ch=1 n=a#7 v=0
61296 On ch=1 n=g#6 v=100
61344 On ch=1 n=g#6 v=0
61345 Par ch=1 c=64 v=127
61440 On ch=1 n=a#7 v=100
61488 On ch=1 n=a#7 v=0
61488 On ch=1 n=c#7 v=100
61536 On ch=1 n=c#7 v=0
61536 On ch=1 n=a#7 v=100
61584 On ch=1 n=a#7 v=0
61584 On ch=1 n=g6 v=100
61632 On ch=1 n=g6 v=0
61632 Par ch=1 c=64 v=127
61728 On ch=1 n=b7 v=100
61776 On ch=1 n=b7 v=0
61776 On ch=1 n=d7 v=100
61824 On ch=1 n=d7 v=0
61824 On ch=1 n=b7 v=100
61872 On ch=1 n=b7 v=0
61872 On ch=1 n=f#6 v=100
61920 On ch=1 n=f#6 v=0
61921 Par ch=1 c=64 v=127
62016 On ch=1 n=g#7 v=100
62064 On ch=1 n=g#7 v=0
62064 On ch=1 n=b6 v=100
62112 On ch=1 n=b6 v=0
62112 On ch=1 n=g#7 v=100
62160 On ch=1 n=g#7 v=0
62160 On ch=1 n=f6 v=100
62208 On ch=1 n=f6 v=0
62208 Par ch=1 c=64 v=127
62304 On ch=1 n=c#7 v=100
62304 On ch=1 n=f#7 v=100
62352 On ch=1 n=f#7 v=0
62352 On ch=1 n=c#7 v=0
62352 On ch=1 n=a#6 v=100
62400 On ch=1 n=a#6 v=0
62400 On ch=1 n=c#7 v=100
62400 On ch=1 n=f#7 v=100
62448 On ch=1 n=f#7 v=0
62448 On ch=1 n=c#7 v=0
62448 On ch=1 n=f#6 v=100
62496 On ch=1 n=f#6 v=0
62497 Par ch=1 c=64 v=127
62592 On ch=1 n=d7 v=100
62592 On ch=1 n=g7 v=100
62640 On ch=1 n=g7 v=0
62640 On ch=1 n=d7 v=0
62640 On ch=1 n=b6 v=100
62688 On ch=1 n=b6 v=0
62688 On ch=1 n=d7 v=100
62688 On ch=1 n=g7 v=100
62736 On ch=1 n=g7 v=0
62736 On ch=1 n=d7 v=0
62736 On ch=1 n=g6 v=100
62784 On ch=1 n=g6 v=0
62784 Par ch=1 c=64 v=127
62880 On ch=1 n=c#7 v=100
62880 On ch=1 n=f#7 v=100
62928 On ch=1 n=f#7 v=0
62928 On ch=1 n=c#7 v=0
62928 On ch=1 n=a#6 v=100
62976 On ch=1 n=a#6 v=0
62976 On ch=1 n=c#7 v=100
62976 On ch=1 n=f#7 v=100
63024 On ch=1 n=f#7 v=0
63024 On ch=1 n=c#7 v=0
63024 On ch=1 n=f#6 v=100
63072 On ch=1 n=f#6 v=0
63073 Par ch=1 c=64 v=127
63168 On ch=1 n=c7 v=100
63168 On ch=1 n=f7 v=100
63216 On ch=1 n=f7 v=0
63216 On ch=1 n=c7 v=0
63216 On ch=1 n=a6 v=100
63264 On ch=1 n=a6 v=0
63264 On ch=1 n=c7 v=100
63264 On ch=1 n=f7 v=100
63312 On ch=1 n=f7 v=0
63312 On ch=1 n=c7 v=0
63312 On ch=1 n=f6 v=100
63360 On ch=1 n=f6 v=0
63360 Par ch=1 c=64 v=127
63456 On ch=1 n=b6 v=100
63456 On ch=1 n=e7 v=100
63504 On ch=1 n=e7 v=0
63504 On ch=1 n=b6 v=0
63504 On ch=1 n=g#6 v=100
63552 On ch=1 n=g#6 v=0
63552 On ch=1 n=b6 v=100
63552 On ch=1 n=e7 v=100
63600 On ch=1 n=e7 v=0
63600 On ch=1 n=b6 v=0
63600 On ch=1 n=e6 v=100
63648 On ch=1 n=e6 v=0
63649 Par ch=1 c=64 v=127
63744 On ch=1 n=c7 v=100
63744 On ch=1 n=f7 v=100
63792 On ch=1 n=f7 v=0
63792 On ch=1 n=c7 v=0
63792 On ch=1 n=a6 v=100
63840 On ch=1 n=a6 v=0
63840 On ch=1 n=c7 v=100
63840 On ch=1 n=f7 v=100
63888 On ch=1 n=f7 v=0
63888 On ch=1 n=c7 v=0
63888 On ch=1 n=f6 v=100
63936 On ch=1 n=f6 v=0
63936 Par ch=1 c=64 v=127
64032 On ch=1 n=b6 v=100
64032 On ch=1 n=e7 v=100
64080 On ch=1 n=e7 v=0
64080 On ch=1 n=b6 v=0
64080 On ch=1 n=g#6 v=100
64128 On ch=1 n=g#6 v=0
64128 On ch=1 n=b6 v=100
64128 On ch=1 n=e7 v=100
64176 On ch=1 n=e7 v=0
64176 On ch=1 n=b6 v=0
64176 On ch=1 n=e6 v=100
64224 On ch=1 n=e6 v=0
64225 Par ch=1 c=64 v=127
64320 On ch=1 n=b6 v=100
64320 On ch=1 n=e7 v=100
64368 On ch=1 n=e7 v=0
64368 On ch=1 n=b6 v=0
64368 On ch=1 n=g6 v=100
64416 On ch=1 n=g6 v=0
64416 On ch=1 n=b6 v=100
64416 On ch=1 n=e7 v=100
64464 On ch=1 n=e7 v=0
64464 On ch=1 n=b6 v=0
64464 On ch=1 n=e6 v=100
64512 On ch=1 n=e6 v=0
64512 Par ch=1 c=64 v=127
64512 On ch=1 n=e6 v=100
64512 On ch=1 n=g6 v=100
64512 On ch=1 n=a#6 v=100
64512 On ch=1 n=c#7 v=100
64512 On ch=1 n=e7 v=100
64608 On ch=1 n=e7 v=0
64608 On ch=1 n=c#7 v=0
64608 On ch=1 n=a#6 v=0
64608 On ch=1 n=g6 v=0
64608 On ch=1 n=e6 v=0
64800 Par ch=1 c=64 v=127
64896 On ch=1 n=c#7 v=100
64897 Par ch=1 c=64 v=0
64944 On ch=1 n=c#7 v=0
64944 On ch=1 n=g7 v=100
64944 On ch=1 n=a#7 v=100
64992 On ch=1 n=a#7 v=0
64992 On ch=1 n=g7 v=0
64992 On ch=1 n=c#7 v=100
65040 On ch=1 n=c#7 v=0
65040 On ch=1 n=e8 v=100
65088 On ch=1 n=e8 v=0
65184 On ch=1 n=a#6 v=100
65232 On ch=1 n=a#6 v=0
65232 On ch=1 n=e7 v=100
65232 On ch=1 n=g7 v=100
65280 On ch=1 n=g7 v=0
65280 On ch=1 n=e7 v=0
65280 On ch=1 n=a#6 v=100
65328 On ch=1 n=a#6 v=0
65328 On ch=1 n=c#8 v=100
65376 On ch=1 n=c#8 v=0
65472 On ch=1 n=g6 v=100
65520 On ch=1 n=g6 v=0
65520 On ch=1 n=c#7 v=100
65520 On ch=1 n=e7 v=100
65568 On ch=1 n=e7 v=0
65568 On ch=1 n=c#7 v=0
65568 On ch=1 n=g6 v=100
65616 On ch=1 n=g6 v=0
65616 On ch=1 n=a#7 v=100
65664 On ch=1 n=a#7 v=0
65760 On ch=1 n=e6 v=100
65808 On ch=1 n=e6 v=0
65808 On ch=1 n=a#6 v=100
65808 On ch=1 n=c#7 v=100
65856 On ch=1 n=c#7 v=0
65856 On ch=1 n=a#6 v=0
65856 On ch=1 n=e6 v=100
65904 On ch=1 n=e6 v=0
65904 On ch=1 n=g7 v=100
65952 On ch=1 n=g7 v=0
66048 On ch=1 n=c#6 v=100
66096 On ch=1 n=c#6 v=0
66096 On ch=1 n=g6 v=100
66096 On ch=1 n=a#6 v=100
66144 On ch=1 n=a#6 v=0
66144 On ch=1 n=g6 v=0
66144 On ch=1 n=c#6 v=100
66192 On ch=1 n=c#6 v=0
66192 On ch=1 n=e7 v=100
66240 On ch=1 n=e7 v=0
66336 On ch=1 n=a#5 v=100
66384 On ch=1 n=a#5 v=0
66384 On ch=1 n=e6 v=100
66384 On ch=1 n=g6 v=100
66432 On ch=1 n=g6 v=0
66432 On ch=1 n=e6 v=0
66432 On ch=1 n=a#5 v=100
66480 On ch=1 n=a#5 v=0
66480 On ch=1 n=c#7 v=100
66528 On ch=1 n=c#7 v=0
66624 On ch=1 n=g5 v=100
66672 On ch=1 n=g5 v=0
66672 On ch=1 n=c#6 v=100
66672 On ch=1 n=e6 v=100
66720 On ch=1 n=e6 v=0
66720 On ch=1 n=c#6 v=0
66720 On ch=1 n=g5 v=100
66768 On ch=1 n=g5 v=0
66768 On ch=1 n=a#6 v=100
66816 On ch=1 n=a#6 v=0
66816 Par ch=1 c=64 v=127
66960 On ch=1 n=c#5 v=100
66960 On ch=1 n=c#5 v=100
67008 On ch=1 n=c#5 v=0
67008 On ch=1 n=c#5 v=0
67008 On ch=1 n=g5 v=100
67056 On ch=1 n=g5 v=0
67056 On ch=1 n=e6 v=100
67104 On ch=1 n=e6 v=0
67104 Par ch=1 c=64 v=127
67248 On ch=1 n=c5 v=100
67248 On ch=1 n=c5 v=100
67296 On ch=1 n=c5 v=0
67296 On ch=1 n=c5 v=0
67296 On ch=1 n=g5 v=100
67344 On ch=1 n=g5 v=0
67344 On ch=1 n=e6 v=100
67392 On ch=1 n=e6 v=0
67392 Par ch=1 c=64 v=127
67536 On ch=1 n=b4 v=100
67536 On ch=1 n=b4 v=100
67584 On ch=1 n=b4 v=0
67584 On ch=1 n=b4 v=0
67584 On ch=1 n=g5 v=100
67632 On ch=1 n=g5 v=0
67632 On ch=1 n=e6 v=100
67680 On ch=1 n=e6 v=0
67680 Par ch=1 c=64 v=127
67824 On ch=1 n=a#4 v=100
67824 On ch=1 n=a#4 v=100
67872 On ch=1 n=a#4 v=0
67872 On ch=1 n=a#4 v=0
67872 On ch=1 n=g5 v=100
67920 On ch=1 n=g5 v=0
67920 On ch=1 n=e6 v=100
67968 On ch=1 n=e6 v=0
67968 Par ch=1 c=64 v=127
68112 On ch=1 n=c#5 v=100
68112 On ch=1 n=c#5 v=100
68160 On ch=1 n=c#5 v=0
68160 On ch=1 n=c#5 v=0
68160 On ch=1 n=g5 v=100
68208 On ch=1 n=g5 v=0
68208 On ch=1 n=e6 v=100
68256 On ch=1 n=e6 v=0
68256 Par ch=1 c=64 v=127
68400 On ch=1 n=c5 v=100
68400 On ch=1 n=c5 v=100
68448 On ch=1 n=c5 v=0
68448 On ch=1 n=c5 v=0
68448 On ch=1 n=g5 v=100
68496 On ch=1 n=g5 v=0
68496 On ch=1 n=e6 v=100
68544 On ch=1 n=e6 v=0
68544 Par ch=1 c=64 v=127
68688 On ch=1 n=b4 v=100
68688 On ch=1 n=b4 v=100
68736 On ch=1 n=b4 v=0
68736 On ch=1 n=b4 v=0
68736 On ch=1 n=g5 v=100
68784 On ch=1 n=g5 v=0
68784 On ch=1 n=e6 v=100
68832 On ch=1 n=e6 v=0
68832 Par ch=1 c=64 v=127
68976 On ch=1 n=a#4 v=100
68976 On ch=1 n=a#4 v=100
69024 On ch=1 n=a#4 v=0
69024 On ch=1 n=a#4 v=0
69024 On ch=1 n=g5 v=100
69072 On ch=1 n=g5 v=0
69072 On ch=1 n=e6 v=100
69120 On ch=1 n=e6 v=0
69120 Par ch=1 c=64 v=1
69263 On ch=1 n=f4 v=100
69311 On ch=1 n=f4 v=0
69311 On ch=1 n=f#4 v=100
69359 On ch=1 n=f#4 v=0
69359 On ch=1 n=b4 v=100
69407 On ch=1 n=b4 v=0
69407 On ch=1 n=d5 v=100
69455 On ch=1 n=d5 v=0
69455 On ch=1 n=a#4 v=100
69503 On ch=1 n=a#4 v=0
69503 On ch=1 n=c#5 v=100
69551 On ch=1 n=c#5 v=0
69551 On ch=1 n=b4 v=100
69599 On ch=1 n=b4 v=0
69599 On ch=1 n=d5 v=100
69647 On ch=1 n=d5 v=0
69647 On ch=1 n=f#5 v=100
69695 On ch=1 n=f#5 v=0
69695 On ch=1 n=d6 v=100
69743 On ch=1 n=d6 v=0
69839 On ch=1 n=f4 v=100
69887 On ch=1 n=f4 v=0
69887 On ch=1 n=f#4 v=100
69935 On ch=1 n=f#4 v=0
69935 On ch=1 n=b4 v=100
69983 On ch=1 n=b4 v=0
69983 On ch=1 n=d5 v=100
70031 On ch=1 n=d5 v=0
70031 On ch=1 n=a#4 v=100
70079 On ch=1 n=a#4 v=0
70079 On ch=1 n=c#5 v=100
70127 On ch=1 n=c#5 v=0
70127 On ch=1 n=b4 v=100
70175 On ch=1 n=b4 v=0
70175 On ch=1 n=d5 v=100
70223 On ch=1 n=d5 v=0
70223 On ch=1 n=f#5 v=100
70271 On ch=1 n=f#5 v=0
70271 On ch=1 n=d6 v=100
70319 On ch=1 n=d6 v=0
70367 On ch=1 n=e6 v=100
70415 On ch=1 n=e6 v=0
70415 On ch=1 n=a#5 v=100
70463 On ch=1 n=a#5 v=0
70463 On ch=1 n=d6 v=100
70511 On ch=1 n=d6 v=0
70511 On ch=1 n=b5 v=100
70559 On ch=1 n=b5 v=0
70559 On ch=1 n=g6 v=100
70607 On ch=1 n=g6 v=0
70607 On ch=1 n=c#6 v=100
70655 On ch=1 n=c#6 v=0
70655 On ch=1 n=f#6 v=100
70703 On ch=1 n=f#6 v=0
70703 On ch=1 n=d6 v=100
70751 On ch=1 n=d6 v=0
70751 On ch=1 n=c#7 v=100
70799 On ch=1 n=c#7 v=0
70799 On ch=1 n=f6 v=100
70847 On ch=1 n=f6 v=0
70847 On ch=1 n=b6 v=100
70895 On ch=1 n=b6 v=0
70895 On ch=1 n=f#6 v=100
70943 On ch=1 n=f#6 v=0
70943 On ch=1 n=e7 v=100
70991 On ch=1 n=e7 v=0
70991 On ch=1 n=a#6 v=100
71039 On ch=1 n=a#6 v=0
71039 On ch=1 n=d7 v=100
71087 On ch=1 n=d7 v=0
71087 On ch=1 n=b6 v=100
71135 On ch=1 n=b6 v=0
71135 On ch=1 n=b7 v=100
71231 On ch=1 n=b7 v=0
71567 On ch=1 n=a#4 v=100
71615 On ch=1 n=a#4 v=0
71615 On ch=1 n=b4 v=100
71663 On ch=1 n=b4 v=0
71663 On ch=1 n=e5 v=100
71711 On ch=1 n=e5 v=0
71711 On ch=1 n=g5 v=100
71759 On ch=1 n=g5 v=0
71759 On ch=1 n=d#5 v=100
71807 On ch=1 n=d#5 v=0
71807 On ch=1 n=f#5 v=100
71855 On ch=1 n=f#5 v=0
71855 On ch=1 n=e5 v=100
71903 On ch=1 n=e5 v=0
71903 On ch=1 n=g5 v=100
71951 On ch=1 n=g5 v=0
71951 On ch=1 n=b5 v=100
71999 On ch=1 n=b5 v=0
71999 On ch=1 n=e6 v=100
72047 On ch=1 n=e6 v=0
72143 On ch=1 n=a#4 v=100
72191 On ch=1 n=a#4 v=0
72191 On ch=1 n=b4 v=100
72239 On ch=1 n=b4 v=0
72239 On ch=1 n=e5 v=100
72287 On ch=1 n=e5 v=0
72287 On ch=1 n=g5 v=100
72335 On ch=1 n=g5 v=0
72335 On ch=1 n=d#5 v=100
72383 On ch=1 n=d#5 v=0
72383 On ch=1 n=f#5 v=100
72431 On ch=1 n=f#5 v=0
72431 On ch=1 n=e5 v=100
72479 On ch=1 n=e5 v=0
72479 On ch=1 n=g5 v=100
72527 On ch=1 n=g5 v=0
72527 On ch=1 n=b5 v=100
72575 On ch=1 n=b5 v=0
72575 On ch=1 n=g6 v=100
72623 On ch=1 n=g6 v=0
72671 On ch=1 n=f#6 v=100
72719 On ch=1 n=f#6 v=0
72719 On ch=1 n=a#5 v=100
72767 On ch=1 n=a#5 v=0
72767 On ch=1 n=e6 v=100
72815 On ch=1 n=e6 v=0
72815 On ch=1 n=b5 v=100
72863 On ch=1 n=b5 v=0
72863 On ch=1 n=a6 v=100
72911 On ch=1 n=a6 v=0
72911 On ch=1 n=d#6 v=100
72959 On ch=1 n=d#6 v=0
72959 On ch=1 n=g6 v=100
73007 On ch=1 n=g6 v=0
73007 On ch=1 n=e6 v=100
73055 On ch=1 n=e6 v=0
73055 On ch=1 n=c7 v=100
73103 On ch=1 n=c7 v=0
73103 On ch=1 n=f#6 v=100
73151 On ch=1 n=f#6 v=0
73151 On ch=1 n=b6 v=100
73199 On ch=1 n=b6 v=0
73199 On ch=1 n=g6 v=100
73247 On ch=1 n=g6 v=0
73247 On ch=1 n=f#7 v=100
73295 On ch=1 n=f#7 v=0
73295 On ch=1 n=a#6 v=100
73343 On ch=1 n=a#6 v=0
73343 On ch=1 n=e7 v=100
73391 On ch=1 n=e7 v=0
73391 On ch=1 n=b6 v=100
73439 On ch=1 n=b6 v=0
73439 On ch=1 n=e8 v=100
73535 On ch=1 n=e8 v=0
73727 On ch=1 n=f#7 v=100
73823 On ch=1 n=f#7 v=0
73823 On ch=1 n=g7 v=100
73871 On ch=1 n=g7 v=0
73871 On ch=1 n=f#7 v=100
73919 On ch=1 n=f#7 v=0
73919 On ch=1 n=f7 v=100
73967 On ch=1 n=f7 v=0
73967 On ch=1 n=e7 v=100
74015 On ch=1 n=e7 v=0
74015 On ch=1 n=e7 v=100
74063 On ch=1 n=e7 v=0
74063 On ch=1 n=d7 v=100
74111 On ch=1 n=d7 v=0
74111 On ch=1 n=c#7 v=100
74159 On ch=1 n=c#7 v=0
74159 On ch=1 n=b6 v=100
74207 On ch=1 n=b6 v=0
74207 On ch=1 n=a6 v=100
74255 On ch=1 n=a6 v=0
74255 On ch=1 n=g6 v=100
74303 On ch=1 n=g6 v=0
74303 On ch=1 n=f#6 v=100
74351 On ch=1 n=f#6 v=0
74351 On ch=1 n=g6 v=100
74399 On ch=1 n=g6 v=0
74399 On ch=1 n=f6 v=100
74447 On ch=1 n=f6 v=0
74447 On ch=1 n=f#6 v=100
74495 On ch=1 n=f#6 v=0
74495 On ch=1 n=b6 v=100
74543 On ch=1 n=b6 v=0
74543 On ch=1 n=e6 v=100
74591 On ch=1 n=e6 v=0
74591 On ch=1 n=d6 v=100
74639 On ch=1 n=d6 v=0
74639 On ch=1 n=e6 v=100
74687 On ch=1 n=e6 v=0
74687 On ch=1 n=c#6 v=100
74735 On ch=1 n=c#6 v=0
74735 On ch=1 n=d6 v=100
74783 On ch=1 n=d6 v=0
74783 On ch=1 n=g6 v=100
74831 On ch=1 n=g6 v=0
74831 On ch=1 n=b5 v=100
74879 On ch=1 n=b5 v=0
74879 On ch=1 n=a#5 v=100
74927 On ch=1 n=a#5 v=0
74927 On ch=1 n=e6 v=100
74975 On ch=1 n=e6 v=0
74975 On ch=1 n=g#5 v=100
75023 On ch=1 n=g#5 v=0
75023 On ch=1 n=a5 v=100
75071 On ch=1 n=a5 v=0
75071 On ch=1 n=f#6 v=100
75119 On ch=1 n=f#6 v=0
75119 On ch=1 n=d6 v=100
75167 On ch=1 n=d6 v=0
75167 On ch=1 n=a#5 v=100
75215 On ch=1 n=a#5 v=0
75215 On ch=1 n=d6 v=100
75263 On ch=1 n=d6 v=0
75263 On ch=1 n=g#5 v=100
75311 On ch=1 n=g#5 v=0
75311 On ch=1 n=a5 v=100
75359 On ch=1 n=a5 v=0
75359 On ch=1 n=f#6 v=100
75407 On ch=1 n=f#6 v=0
75407 On ch=1 n=d6 v=100
75455 On ch=1 n=d6 v=0
75455 On ch=1 n=g#5 v=100
75503 On ch=1 n=g#5 v=0
75503 On ch=1 n=d6 v=100
75551 On ch=1 n=d6 v=0
75551 On ch=1 n=f#5 v=100
75599 On ch=1 n=f#5 v=0
75599 On ch=1 n=g5 v=100
75647 On ch=1 n=g5 v=0
75647 On ch=1 n=e6 v=100
75695 On ch=1 n=e6 v=0
75695 On ch=1 n=c#6 v=100
75743 On ch=1 n=c#6 v=0
75743 On ch=1 n=g5 v=100
75791 On ch=1 n=g5 v=0
75791 On ch=1 n=c#6 v=100
75839 On ch=1 n=c#6 v=0
75839 On ch=1 n=f5 v=100
75887 On ch=1 n=f5 v=0
75887 On ch=1 n=f#5 v=100
75935 On ch=1 n=f#5 v=0
75935 On ch=1 n=d6 v=100
75983 On ch=1 n=d6 v=0
75983 On ch=1 n=b5 v=100
76031 On ch=1 n=b5 v=0
76031 On ch=1 n=f#5 v=100
76079 On ch=1 n=f#5 v=0
76127 On ch=1 n=g5 v=100
76175 On ch=1 n=g5 v=0
76175 On ch=1 n=f#5 v=100
76223 On ch=1 n=f#5 v=0
76223 On ch=1 n=f5 v=100
76271 On ch=1 n=f5 v=0
76271 On ch=1 n=e5 v=100
76319 On ch=1 n=e5 v=0
76319 On ch=1 n=e5 v=100
76367 On ch=1 n=e5 v=0
76367 On ch=1 n=d5 v=100
76415 On ch=1 n=d5 v=0
76415 On ch=1 n=c#5 v=100
76463 On ch=1 n=c#5 v=0
76463 On ch=1 n=b4 v=100
76511 On ch=1 n=b4 v=0
76511 On ch=1 n=a4 v=100
76559 On ch=1 n=a4 v=0
76559 On ch=1 n=g4 v=100
76607 On ch=1 n=g4 v=0
76607 On ch=1 n=f#4 v=100
76655 On ch=1 n=f#4 v=0
76655 On ch=1 n=g4 v=100
76703 On ch=1 n=g4 v=0
76703 On ch=1 n=f4 v=100
76751 On ch=1 n=f4 v=0
76751 On ch=1 n=f#4 v=100
76799 On ch=1 n=f#4 v=0
76799 On ch=1 n=b4 v=100
76847 On ch=1 n=b4 v=0
76847 On ch=1 n=e4 v=100
76895 On ch=1 n=e4 v=0
76895 On ch=1 n=d4 v=100
76943 On ch=1 n=d4 v=0
76943 On ch=1 n=e4 v=100
76991 On ch=1 n=e4 v=0
76991 On ch=1 n=c#4 v=100
77039 On ch=1 n=c#4 v=0
77039 On ch=1 n=d4 v=100
77087 On ch=1 n=d4 v=0
77087 On ch=1 n=g4 v=100
77135 On ch=1 n=g4 v=0
77135 On ch=1 n=b3 v=100
77183 On ch=1 n=b3 v=0
77183 On ch=1 n=a#3 v=100
77231 On ch=1 n=a#3 v=0
77231 On ch=1 n=c#4 v=100
77279 On ch=1 n=c#4 v=0
77279 On ch=1 n=e4 v=100
77327 On ch=1 n=e4 v=0
77327 On ch=1 n=g4 v=100
77375 On ch=1 n=g4 v=0
77375 On ch=1 n=a#4 v=100
77423 On ch=1 n=a#4 v=0
77423 On ch=1 n=c#5 v=100
77471 On ch=1 n=c#5 v=0
77471 On ch=1 n=d#5 v=100
77519 On ch=1 n=d#5 v=0
77519 On ch=1 n=e5 v=100
77567 On ch=1 n=e5 v=0
77567 On ch=1 n=f5 v=100
77615 On ch=1 n=f5 v=0
77615 On ch=1 n=f#5 v=100
77663 On ch=1 n=f#5 v=0
77663 On ch=1 n=g5 v=100
77711 On ch=1 n=g5 v=0
77711 On ch=1 n=d5 v=100
77759 On ch=1 n=d5 v=0
77759 On ch=1 n=c#5 v=100
77807 On ch=1 n=c#5 v=0
77807 On ch=1 n=e5 v=100
77855 On ch=1 n=e5 v=0
77855 On ch=1 n=c#6 v=100
77855 On ch=1 n=e6 v=100
77903 On ch=1 n=e6 v=0
77903 On ch=1 n=c#6 v=0
77903 On ch=1 n=a#5 v=100
77951 On ch=1 n=a#5 v=0
77951 On ch=1 n=g5 v=100
77999 On ch=1 n=g5 v=0
77999 On ch=1 n=f5 v=100
78047 On ch=1 n=f5 v=0
78047 On ch=1 n=e5 v=100
78095 On ch=1 n=e5 v=0
78095 On ch=1 n=d#5 v=100
78143 On ch=1 n=d#5 v=0
78143 On ch=1 n=d5 v=100
78191 On ch=1 n=d5 v=0
78191 On ch=1 n=c#5 v=100
78239 On ch=1 n=c#5 v=0
78239 On ch=1 n=c5 v=100
78287 On ch=1 n=c5 v=0
78287 On ch=1 n=b4 v=100
78335 On ch=1 n=b4 v=0
78335 On ch=1 n=a#4 v=100
78383 On ch=1 n=a#4 v=0
78383 On ch=1 n=c#5 v=100
78431 On ch=1 n=c#5 v=0
78431 On ch=1 n=e5 v=100
78479 On ch=1 n=e5 v=0
78479 On ch=1 n=g5 v=100
78527 On ch=1 n=g5 v=0
78527 On ch=1 n=a#5 v=100
78575 On ch=1 n=a#5 v=0
78575 On ch=1 n=c#6 v=100
78623 On ch=1 n=c#6 v=0
78623 On ch=1 n=d#6 v=100
78671 On ch=1 n=d#6 v=0
78671 On ch=1 n=e6 v=100
78719 On ch=1 n=e6 v=0
78719 On ch=1 n=f6 v=100
78767 On ch=1 n=f6 v=0
78767 On ch=1 n=f#6 v=100
78815 On ch=1 n=f#6 v=0
78815 On ch=1 n=g6 v=100
78863 On ch=1 n=g6 v=0
78863 On ch=1 n=d6 v=100
78911 On ch=1 n=d6 v=0
78911 On ch=1 n=c#6 v=100
78959 On ch=1 n=c#6 v=0
79007 On ch=1 n=a#5 v=100
79007 On ch=1 n=e6 v=100
79007 On ch=1 n=g6 v=100
79007 On ch=1 n=a#6 v=100
79103 On ch=1 n=a#6 v=0
79103 On ch=1 n=g6 v=0
79103 On ch=1 n=e6 v=0
79103 On ch=1 n=a#5 v=0
79103 On ch=1 n=b5 v=100
79103 On ch=1 n=e6 v=100
79103 On ch=1 n=g6 v=100
79103 On ch=1 n=b6 v=100
79199 On ch=1 n=b6 v=0
79199 On ch=1 n=g6 v=0
79199 On ch=1 n=e6 v=0
79199 On ch=1 n=b5 v=0
79199 On ch=1 n=c#6 v=100
79199 On ch=1 n=e6 v=100
79199 On ch=1 n=g6 v=100
79199 On ch=1 n=c#7 v=100
79200 Tempo 166666
79295 On ch=1 n=c#7 v=0
79295 On ch=1 n=g6 v=0
79295 On ch=1 n=e6 v=0
79295 On ch=1 n=c#6 v=0
79489 Tempo 250000
79871 On ch=1 n=d5 v=100
79871 On ch=1 n=g5 v=100
79871 On ch=1 n=d6 v=100
79967 On ch=1 n=d6 v=0
79967 On ch=1 n=g5 v=0
79967 On ch=1 n=d5 v=0
79967 On ch=1 n=g4 v=100
79967 On ch=1 n=d5 v=100
79967 On ch=1 n=g5 v=100
80063 On ch=1 n=g5 v=0
80063 On ch=1 n=d5 v=0
80063 On ch=1 n=g4 v=0
80063 On ch=1 n=f#5 v=100
80063 On ch=1 n=c#5 v=100
80063 On ch=1 n=g4 v=100
80159 On ch=1 n=f#5 v=0
80159 On ch=1 n=e5 v=100
80255 On ch=1 n=g4 v=0
80255 On ch=1 n=c#5 v=0
80255 On ch=1 n=e5 v=0
80831 On ch=1 n=e5 v=100
80831 On ch=1 n=g5 v=100
80831 On ch=1 n=e6 v=100
80928 On ch=1 n=e6 v=0
80928 On ch=1 n=g5 v=0
80928 On ch=1 n=e5 v=0
80928 On ch=1 n=d#5 v=100
80928 On ch=1 n=g5 v=100
80928 On ch=1 n=d#6 v=100
81023 On ch=1 n=d5 v=100
81023 On ch=1 n=g5 v=100
81023 On ch=1 n=d6 v=100
81024 On ch=1 n=g5 v=0
81024 On ch=1 n=d#6 v=0
81024 On ch=1 n=g5 v=0
81024 On ch=1 n=d#5 v=0
81119 On ch=1 n=d6 v=0
81119 On ch=1 n=d5 v=0
81119 On ch=1 n=g4 v=100
81119 On ch=1 n=d5 v=100
81119 On ch=1 n=g5 v=100
81215 On ch=1 n=g5 v=0
81215 On ch=1 n=d5 v=0
81215 On ch=1 n=g4 v=0
81215 On ch=1 n=f#5 v=100
81215 On ch=1 n=c#5 v=100
81215 On ch=1 n=g4 v=100
81407 On ch=1 n=f#5 v=0
81407 On ch=1 n=e5 v=100
81791 On ch=1 n=g4 v=0
81791 On ch=1 n=c#5 v=0
81791 On ch=1 n=e5 v=0
81791 On ch=1 n=e5 v=100
81791 On ch=1 n=b4 v=100
81791 On ch=1 n=f#4 v=100
81887 On ch=1 n=e5 v=0
81887 On ch=1 n=d5 v=100
81983 On ch=1 n=f#4 v=0
81983 On ch=1 n=b4 v=0
81983 On ch=1 n=d5 v=0
82080 Tempo 284360
82367 On ch=1 n=e5 v=100
82367 On ch=1 n=b4 v=100
82367 On ch=1 n=f#4 v=100
82463 On ch=1 n=e5 v=0
82463 On ch=1 n=d5 v=100
82559 On ch=1 n=f#4 v=0
82559 On ch=1 n=b4 v=0
82559 On ch=1 n=d5 v=0
82656 Tempo 315789
82943 On ch=1 n=d5 v=100
82943 On ch=1 n=b4 v=100
82943 On ch=1 n=g4 v=100
83135 On ch=1 n=d5 v=0
83135 On ch=1 n=c#5 v=100
83231 On ch=1 n=g4 v=0
83231 On ch=1 n=b4 v=0
83231 On ch=1 n=c#5 v=0
83231 On ch=1 n=e6 v=100
83231 On ch=1 n=e6 v=100
83807 On ch=1 n=e6 v=0
83807 On ch=1 n=e6 v=0
83807 On ch=1 n=d6 v=100
83903 On ch=1 n=d6 v=0
83903 On ch=1 n=c#6 v=100
83999 On ch=1 n=c#6 v=0
83999 On ch=1 n=b5 v=100
84095 On ch=1 n=b5 v=0
84095 On ch=1 n=c#6 v=100
84335 Par ch=1 c=64 v=127
84337 On ch=1 n=e5 v=100
84337 On ch=1 n=b5 v=100
84383 On ch=1 n=c#6 v=0
84385 On ch=1 n=b5 v=0
84385 On ch=1 n=e5 v=0
84385 On ch=1 n=e6 v=100
84385 On ch=1 n=e6 v=100
84960 Par ch=1 c=64 v=0
84961 On ch=1 n=e6 v=0
84961 On ch=1 n=e6 v=0
84961 On ch=1 n=d6 v=100
85057 On ch=1 n=d6 v=0
85057 On ch=1 n=c#6 v=100
85153 On ch=1 n=c#6 v=0
85153 On ch=1 n=b5 v=100
85248 On ch=1 n=c#6 v=100
85249 On ch=1 n=b5 v=0
85487 Par ch=1 c=64 v=127
85488 On ch=1 n=e5 v=100
85488 On ch=1 n=b5 v=100
85536 On ch=1 n=b5 v=0
85536 On ch=1 n=c#6 v=0
85536 On ch=1 n=e5 v=0
85536 On ch=1 n=e6 v=100
85824 On ch=1 n=e6 v=0
85824 On ch=1 n=c#6 v=100
85920 Par ch=1 c=64 v=0
86063 Par ch=1 c=64 v=127
86064 On ch=1 n=f5 v=100
86064 On ch=1 n=b5 v=100
86112 On ch=1 n=b5 v=0
86112 On ch=1 n=f5 v=0
86112 On ch=1 n=c#6 v=0
86112 Tempo 327868
86112 On ch=1 n=f6 v=100
86400 On ch=1 n=f6 v=0
86400 On ch=1 n=c#6 v=100
86496 Par ch=1 c=64 v=0
86639 Par ch=1 c=64 v=127
86640 On ch=1 n=e5 v=100
86640 On ch=1 n=b5 v=100
86688 On ch=1 n=b5 v=0
86688 On ch=1 n=e5 v=0
86688 On ch=1 n=c#6 v=0
86688 Tempo 400000
86688 On ch=1 n=f#6 v=100
86976 On ch=1 n=f#6 v=0
86976 On ch=1 n=c#6 v=100
87072 Par ch=1 c=64 v=0
87215 Par ch=1 c=64 v=127
87216 On ch=1 n=e5 v=100
87216 On ch=1 n=a#5 v=100
87264 On ch=1 n=a#5 v=0
87264 On ch=1 n=e5 v=0
87264 On ch=1 n=c#6 v=0
87264 Tempo 500000
87264 On ch=1 n=f#6 v=100
87552 On ch=1 n=f#6 v=0
87552 Par ch=1 c=67 v=127
87552 Tempo 555555
87552 Par ch=1 c=64 v=127
87552 On ch=1 n=d#5 v=100
87600 On ch=1 n=d#5 v=0
87600 On ch=1 n=f#6 v=80
87648 On ch=1 n=f#6 v=0
87648 On ch=1 n=d#5 v=100
87696 On ch=1 n=d#5 v=0
87696 On ch=1 n=f#6 v=80
87744 On ch=1 n=f#6 v=0
87744 On ch=1 n=d#5 v=100
87840 On ch=1 n=d#5 v=0
87840 Par ch=1 c=64 v=127
87840 On ch=1 n=e5 v=100
87888 On ch=1 n=e5 v=0
87888 On ch=1 n=f#6 v=80
87936 On ch=1 n=f#6 v=0
87936 On ch=1 n=e5 v=100
87984 On ch=1 n=e5 v=0
87984 On ch=1 n=f#6 v=80
88032 On ch=1 n=f#6 v=0
88032 On ch=1 n=d#5 v=100
88128 On ch=1 n=d#5 v=0
88128 Par ch=1 c=64 v=127
88128 On ch=1 n=c#5 v=100
88176 On ch=1 n=c#5 v=0
88176 On ch=1 n=f#6 v=80
88224 On ch=1 n=f#6 v=0
88224 On ch=1 n=c#5 v=100
88272 On ch=1 n=c#5 v=0
88272 On ch=1 n=f#6 v=80
88320 On ch=1 n=f#6 v=0
88320 On ch=1 n=e5 v=100
88416 On ch=1 n=e5 v=0
88416 Par ch=1 c=64 v=127
88416 On ch=1 n=g#5 v=100
88464 On ch=1 n=g#5 v=0
88464 On ch=1 n=f#6 v=80
88512 On ch=1 n=f#6 v=0
88512 On ch=1 n=g#5 v=100
88560 On ch=1 n=g#5 v=0
88560 On ch=1 n=f#6 v=80
88608 On ch=1 n=f#6 v=0
88608 On ch=1 n=f#5 v=100
88704 On ch=1 n=f#5 v=0
88704 Par ch=1 c=64 v=127
88704 On ch=1 n=d#5 v=100
88752 On ch=1 n=d#5 v=0
88752 On ch=1 n=f#6 v=80
88800 On ch=1 n=f#6 v=0
88800 On ch=1 n=d#5 v=100
88848 On ch=1 n=d#5 v=0
88848 On ch=1 n=f#6 v=80
88896 On ch=1 n=f#6 v=0
88896 On ch=1 n=d#5 v=100
88992 Par ch=1 c=67 v=0
88992 Par ch=1 c=64 v=127
89040 On ch=1 n=d#5 v=0
89040 On ch=1 n=f#6 v=100
89088 On ch=1 n=f#6 v=0
89088 On ch=1 n=f#5 v=100
89136 On ch=1 n=f#5 v=0
89136 On ch=1 n=f#6 v=100
89184 On ch=1 n=f#6 v=0
89184 On ch=1 n=g#6 v=100
89280 On ch=1 n=g#6 v=0
89280 Par ch=1 c=64 v=127
89280 On ch=1 n=f#5 v=100
89328 On ch=1 n=f#5 v=0
89328 On ch=1 n=a#6 v=100
89376 On ch=1 n=a#6 v=0
89376 On ch=1 n=f#5 v=100
89424 On ch=1 n=f#5 v=0
89424 On ch=1 n=g#6 v=100
89472 On ch=1 n=g#6 v=0
89472 On ch=1 n=f5 v=100
89568 On ch=1 n=f5 v=0
89568 Par ch=1 c=64 v=127
89568 On ch=1 n=f#5 v=100
89616 On ch=1 n=f#5 v=0
89616 On ch=1 n=f#6 v=100
89664 On ch=1 n=f#6 v=0
89664 On ch=1 n=f#5 v=100
89712 On ch=1 n=f#5 v=0
89712 On ch=1 n=f#6 v=100
89760 On ch=1 n=f#6 v=0
89760 On ch=1 n=e5 v=100
89856 On ch=1 n=e5 v=0
89856 Par ch=1 c=64 v=127
89856 On ch=1 n=d#5 v=100
89904 On ch=1 n=d#5 v=0
89904 On ch=1 n=f#6 v=100
89952 On ch=1 n=f#6 v=0
89952 On ch=1 n=d#5 v=100
90000 On ch=1 n=d#5 v=0
90000 On ch=1 n=f#6 v=100
90048 On ch=1 n=f#6 v=0
90048 On ch=1 n=d#5 v=100
90144 On ch=1 n=d#5 v=0
90144 Par ch=1 c=64 v=127
90144 On ch=1 n=e5 v=100
90192 On ch=1 n=e5 v=0
90192 On ch=1 n=f#6 v=100
90240 On ch=1 n=f#6 v=0
90240 On ch=1 n=e5 v=100
90288 On ch=1 n=e5 v=0
90288 On ch=1 n=f#6 v=100
90336 On ch=1 n=f#6 v=0
90336 On ch=1 n=d#5 v=100
90432 On ch=1 n=d#5 v=0
90432 Par ch=1 c=64 v=127
90432 On ch=1 n=c#5 v=100
90480 On ch=1 n=c#5 v=0
90480 On ch=1 n=f#6 v=100
90528 On ch=1 n=f#6 v=0
90528 On ch=1 n=c#5 v=100
90576 On ch=1 n=c#5 v=0
90576 On ch=1 n=f#6 v=100
90624 On ch=1 n=f#6 v=0
90624 On ch=1 n=e5 v=100
90720 On ch=1 n=e5 v=0
90720 Par ch=1 c=64 v=127
90720 On ch=1 n=g#5 v=100
90768 On ch=1 n=g#5 v=0
90768 On ch=1 n=f#6 v=100
90816 On ch=1 n=f#6 v=0
90816 On ch=1 n=g#5 v=100
90864 On ch=1 n=g#5 v=0
90864 On ch=1 n=f#6 v=100
90912 On ch=1 n=f#6 v=0
90912 On ch=1 n=f#5 v=100
91008 On ch=1 n=f#5 v=0
91008 Par ch=1 c=64 v=127
91008 On ch=1 n=d#5 v=100
91056 On ch=1 n=d#5 v=0
91056 On ch=1 n=f#6 v=100
91104 On ch=1 n=f#6 v=0
91104 On ch=1 n=d#5 v=100
91152 On ch=1 n=d#5 v=0
91152 On ch=1 n=f#6 v=100
91200 On ch=1 n=f#6 v=0
91200 On ch=1 n=d#5 v=100
91296 Par ch=1 c=64 v=127
91344 On ch=1 n=d#5 v=0
91344 On ch=1 n=f#6 v=100
91392 On ch=1 n=f#6 v=0
91392 On ch=1 n=d#5 v=100
91440 On ch=1 n=d#5 v=0
91440 On ch=1 n=f#6 v=100
91488 On ch=1 n=f#6 v=0
91488 On ch=1 n=d#5 v=100
91584 On ch=1 n=d#5 v=0
91584 Par ch=1 c=64 v=127
91584 On ch=1 n=e5 v=100
91632 On ch=1 n=e5 v=0
91632 On ch=1 n=e6 v=100
91680 On ch=1 n=e6 v=0
91680 On ch=1 n=g#5 v=100
91728 On ch=1 n=g#5 v=0
91728 On ch=1 n=c#6 v=100
91776 On ch=1 n=c#6 v=0
91776 On ch=1 n=d#5 v=100
91776 On ch=1 n=a#5 v=100
91776 On ch=1 n=d#6 v=100
91872 On ch=1 n=d#6 v=0
91872 On ch=1 n=a#5 v=0
91872 On ch=1 n=d#5 v=0
91872 Par ch=1 c=64 v=127
91872 On ch=1 n=b5 v=100
91872 On ch=1 n=b5 v=100
91872 On ch=1 n=d#5 v=100
92064 On ch=1 n=b5 v=0
92064 On ch=1 n=b5 v=0
92064 On ch=1 n=b5 v=100
92160 On ch=1 n=d#5 v=0
92160 On ch=1 n=b5 v=0
92160 Par ch=1 c=64 v=127
92160 On ch=1 n=e5 v=100
92256 On ch=1 n=a#5 v=100
92400 On ch=1 n=a#5 v=0
92400 On ch=1 n=g#5 v=100
92412 On ch=1 n=g5 v=100
92424 On ch=1 n=g5 v=0
92424 On ch=1 n=g#5 v=100
92436 On ch=1 n=g#5 v=0
92436 On ch=1 n=g#5 v=0
92436 On ch=1 n=a#5 v=100
92448 On ch=1 n=a#5 v=0
92448 On ch=1 n=e5 v=0
92448 Par ch=1 c=64 v=127
92448 On ch=1 n=g#5 v=100
92448 On ch=1 n=e5 v=100
92592 On ch=1 n=g#5 v=0
92592 On ch=1 n=f#5 v=100
92640 On ch=1 n=f#5 v=0
92640 On ch=1 n=f#5 v=100
92712 On ch=1 n=d#5 v=100
92724 On ch=1 n=d#5 v=0
92724 On ch=1 n=f#5 v=100
92736 On ch=1 n=f#5 v=0
92736 On ch=1 n=e5 v=0
92736 On ch=1 n=f#5 v=0
92736 Par ch=1 c=64 v=127
92736 On ch=1 n=d#6 v=100
92832 On ch=1 n=d#6 v=0
92832 On ch=1 n=c#6 v=100
92976 On ch=1 n=c#6 v=0
92976 On ch=1 n=b5 v=100
93000 On ch=1 n=d#5 v=100
93012 On ch=1 n=d#5 v=0
93012 On ch=1 n=g#5 v=100
93024 On ch=1 n=b5 v=0
93024 Par ch=1 c=64 v=127
93024 On ch=1 n=b5 v=100
93036 On ch=1 n=b5 v=0
93036 On ch=1 n=c#6 v=100
93048 On ch=1 n=c#6 v=0
93048 On ch=1 n=b5 v=100
93168 On ch=1 n=b5 v=0
93168 On ch=1 n=a#5 v=100
93216 On ch=1 n=g#5 v=0
93216 On ch=1 n=a#5 v=0
93216 On ch=1 n=a#5 v=100
93216 On ch=1 n=g5 v=100
93276 On ch=1 n=f#5 v=100
93288 On ch=1 n=f#5 v=0
93288 On ch=1 n=a5 v=100
93300 On ch=1 n=c6 v=100
93312 On ch=1 n=c6 v=0
93312 On ch=1 n=g5 v=0
93312 On ch=1 n=a#5 v=0
93312 Par ch=1 c=64 v=127
93312 On ch=1 n=f#6 v=100
93408 On ch=1 n=f#6 v=0
93408 On ch=1 n=e6 v=100
93552 On ch=1 n=e6 v=0
93552 On ch=1 n=d#6 v=100
93600 On ch=1 n=d#6 v=0
93600 Par ch=1 c=64 v=127
93600 On ch=1 n=d#6 v=100
93744 On ch=1 n=d#6 v=0
93744 On ch=1 n=c#6 v=100
93792 On ch=1 n=c#6 v=0
93792 On ch=1 n=c#6 v=100
93888 On ch=1 n=a5 v=0
93888 On ch=1 n=c#6 v=0
93888 Par ch=1 c=64 v=127
93888 On ch=1 n=g#6 v=100
93888 On ch=1 n=d6 v=100
93984 On ch=1 n=g#6 v=0
93984 On ch=1 n=g#6 v=100
93996 On ch=1 n=g#6 v=0
93996 On ch=1 n=a#6 v=100
94008 On ch=1 n=a#6 v=0
94008 On ch=1 n=g#6 v=100
94032 On ch=1 n=g#6 v=0
94032 On ch=1 n=g6 v=100
94080 On ch=1 n=g6 v=0
94080 On ch=1 n=g#6 v=100
94128 On ch=1 n=g#6 v=0
94128 On ch=1 n=a#6 v=100
94176 On ch=1 n=d6 v=0
94176 On ch=1 n=a#6 v=0
94176 Par ch=1 c=64 v=127
94176 On ch=1 n=g6 v=100
94176 On ch=1 n=d#6 v=100
94368 On ch=1 n=d#6 v=0
94368 On ch=1 n=g6 v=0
94368 On ch=1 n=d#6 v=100
94452 On ch=1 n=d#6 v=0
94452 On ch=1 n=d#6 v=100
94464 On ch=1 n=d#6 v=0
94464 Par ch=1 c=64 v=127
94464 On ch=1 n=c#6 v=100
94464 On ch=1 n=g5 v=100
94608 On ch=1 n=c#6 v=0
94608 On ch=1 n=b5 v=100
94656 On ch=1 n=b5 v=0
94656 On ch=1 n=a#5 v=100
94752 On ch=1 n=g5 v=0
94752 On ch=1 n=a#5 v=0
94752 Par ch=1 c=64 v=127
94752 On ch=1 n=c#6 v=100
94752 On ch=1 n=g#5 v=100
94896 On ch=1 n=c#6 v=0
94896 On ch=1 n=c#6 v=100
94944 On ch=1 n=c#6 v=0
94944 On ch=1 n=c#6 v=100
95004 On ch=1 n=c6 v=100
95016 On ch=1 n=c6 v=0
95016 On ch=1 n=c#6 v=100
95028 On ch=1 n=c#6 v=0
95028 On ch=1 n=c#6 v=0
95028 On ch=1 n=d#6 v=100
95040 On ch=1 n=g#5 v=0
95040 On ch=1 n=d#6 v=0
95040 Par ch=1 c=64 v=127
95040 On ch=1 n=c#6 v=100
95040 On ch=1 n=g5 v=100
95184 On ch=1 n=c#6 v=0
95184 On ch=1 n=b5 v=100
95232 On ch=1 n=b5 v=0
95232 On ch=1 n=a#5 v=100
95328 On ch=1 n=g5 v=0
95328 On ch=1 n=a#5 v=0
95328 Par ch=1 c=64 v=127
95328 On ch=1 n=c#6 v=100
95328 On ch=1 n=g#5 v=100
95472 On ch=1 n=c#6 v=0
95472 On ch=1 n=c#6 v=100
95520 On ch=1 n=c#6 v=0
95520 On ch=1 n=c#6 v=100
95616 On ch=1 n=g#5 v=0
95616 On ch=1 n=c#6 v=0
95616 Par ch=1 c=64 v=127
95616 On ch=1 n=c#6 v=100
95616 On ch=1 n=g5 v=100
95904 On ch=1 n=g5 v=0
95904 Par ch=1 c=64 v=127
95904 On ch=1 n=g5 v=100
96048 On ch=1 n=g5 v=0
96048 On ch=1 n=g5 v=100
96096 On ch=1 n=g5 v=0
96096 On ch=1 n=g5 v=100
96192 On ch=1 n=g5 v=0
96192 Tempo 555555
96192 Par ch=1 c=64 v=127
96192 On ch=1 n=g#5 v=100
96288 Tempo 571428
96384 Tempo 588235
96480 On ch=1 n=g#5 v=0
96480 Tempo 606060
96480 Par ch=1 c=64 v=127
96480 On ch=1 n=f#5 v=100
96576 Tempo 625000
96672 On ch=1 n=f#5 v=0
96672 Tempo 645161
96672 On ch=1 n=e5 v=100
96768 On ch=1 n=e5 v=0
96768 On ch=1 n=c#6 v=0
96768 Tempo 555555
96768 Par ch=1 c=64 v=127
96768 Par ch=1 c=67 v=127
96768 On ch=1 n=d#5 v=100
96816 On ch=1 n=d#5 v=0
96816 On ch=1 n=f#6 v=80
96864 On ch=1 n=f#6 v=0
96864 On ch=1 n=d#5 v=100
96912 On ch=1 n=d#5 v=0
96912 On ch=1 n=f#6 v=80
96960 On ch=1 n=f#6 v=0
96960 On ch=1 n=d#5 v=100
97056 On ch=1 n=d#5 v=0
97056 Par ch=1 c=64 v=127
97056 On ch=1 n=e5 v=100
97104 On ch=1 n=e5 v=0
97104 On ch=1 n=f#6 v=80
97152 On ch=1 n=f#6 v=0
97152 On ch=1 n=e5 v=100
97200 On ch=1 n=e5 v=0
97200 On ch=1 n=f#6 v=80
97248 On ch=1 n=f#6 v=0
97248 On ch=1 n=d#5 v=100
97344 On ch=1 n=d#5 v=0
97344 Par ch=1 c=64 v=127
97344 On ch=1 n=c#5 v=100
97392 On ch=1 n=c#5 v=0
97392 On ch=1 n=f#6 v=80
97440 On ch=1 n=f#6 v=0
97440 On ch=1 n=c#5 v=100
97488 On ch=1 n=c#5 v=0
97488 On ch=1 n=f#6 v=80
97536 On ch=1 n=f#6 v=0
97536 On ch=1 n=e5 v=100
97632 On ch=1 n=e5 v=0
97632 Par ch=1 c=64 v=127
97632 On ch=1 n=g#5 v=100
97680 On ch=1 n=g#5 v=0
97680 On ch=1 n=f#6 v=80
97728 On ch=1 n=f#6 v=0
97728 On ch=1 n=g#5 v=100
97776 On ch=1 n=g#5 v=0
97776 On ch=1 n=f#6 v=80
97824 On ch=1 n=f#6 v=0
97824 On ch=1 n=f#5 v=100
97920 On ch=1 n=f#5 v=0
97920 Par ch=1 c=64 v=127
97920 On ch=1 n=d#5 v=100
97968 On ch=1 n=d#5 v=0
97968 On ch=1 n=f#6 v=80
98016 On ch=1 n=f#6 v=0
98016 On ch=1 n=d#5 v=100
98064 On ch=1 n=d#5 v=0
98064 On ch=1 n=f#6 v=80
98112 On ch=1 n=f#6 v=0
98112 On ch=1 n=d#5 v=100
98208 Par ch=1 c=64 v=127
98208 Par ch=1 c=67 v=0
98256 On ch=1 n=d#5 v=0
98256 On ch=1 n=f#6 v=100
98304 On ch=1 n=f#6 v=0
98304 On ch=1 n=f#5 v=100
98352 On ch=1 n=f#5 v=0
98352 On ch=1 n=f#6 v=100
98400 On ch=1 n=f#6 v=0
98400 On ch=1 n=g#6 v=100
98496 On ch=1 n=g#6 v=0
98496 Par ch=1 c=64 v=127
98496 On ch=1 n=f#5 v=100
98544 On ch=1 n=f#5 v=0
98544 On ch=1 n=a#6 v=100
98592 On ch=1 n=a#6 v=0
98592 On ch=1 n=f#5 v=100
98640 On ch=1 n=f#5 v=0
98640 On ch=1 n=g#6 v=100
98688 On ch=1 n=g#6 v=0
98688 On ch=1 n=f5 v=100
98784 On ch=1 n=f5 v=0
98784 Par ch=1 c=64 v=127
98784 On ch=1 n=f#5 v=100
98832 On ch=1 n=f#5 v=0
98832 On ch=1 n=f#6 v=100
98880 On ch=1 n=f#6 v=0
98880 On ch=1 n=f#5 v=100
98928 On ch=1 n=f#5 v=0
98928 On ch=1 n=f#6 v=100
98976 On ch=1 n=f#6 v=0
98976 On ch=1 n=e5 v=100
99072 On ch=1 n=e5 v=0
99072 Par ch=1 c=64 v=127
99072 On ch=1 n=d#5 v=100
99120 On ch=1 n=d#5 v=0
99120 On ch=1 n=f#6 v=100
99168 On ch=1 n=f#6 v=0
99168 On ch=1 n=d#5 v=100
99216 On ch=1 n=d#5 v=0
99216 On ch=1 n=f#6 v=100
99264 On ch=1 n=f#6 v=0
99264 On ch=1 n=d#5 v=100
99360 On ch=1 n=d#5 v=0
99360 Par ch=1 c=64 v=127
99360 On ch=1 n=e5 v=100
99408 On ch=1 n=e5 v=0
99408 On ch=1 n=f#6 v=100
99456 On ch=1 n=f#6 v=0
99456 On ch=1 n=e5 v=100
99504 On ch=1 n=e5 v=0
99504 On ch=1 n=f#6 v=100
99552 On ch=1 n=f#6 v=0
99552 On ch=1 n=d#5 v=100
99648 On ch=1 n=d#5 v=0
99648 Par ch=1 c=64 v=127
99648 On ch=1 n=c#5 v=100
99696 On ch=1 n=c#5 v=0
99696 On ch=1 n=f#6 v=100
99744 On ch=1 n=f#6 v=0
99744 On ch=1 n=c#5 v=100
99792 On ch=1 n=c#5 v=0
99792 On ch=1 n=f#6 v=100
99840 On ch=1 n=f#6 v=0
99840 On ch=1 n=e5 v=100
99936 On ch=1 n=e5 v=0
99936 Par ch=1 c=64 v=127
99936 On ch=1 n=g#5 v=100
99984 On ch=1 n=g#5 v=0
99984 On ch=1 n=f#6 v=100
100032 On ch=1 n=f#6 v=0
100032 On ch=1 n=g#5 v=100
100080 On ch=1 n=g#5 v=0
100080 On ch=1 n=f#6 v=100
100128 On ch=1 n=f#6 v=0
100128 On ch=1 n=f#5 v=100
100224 On ch=1 n=f#5 v=0
100224 Par ch=1 c=64 v=127
100224 On ch=1 n=d#5 v=100
100272 On ch=1 n=d#5 v=0
100272 On ch=1 n=f#6 v=100
100320 On ch=1 n=f#6 v=0
100320 On ch=1 n=d#5 v=100
100368 On ch=1 n=d#5 v=0
100368 On ch=1 n=f#6 v=100
100416 On ch=1 n=f#6 v=0
100416 On ch=1 n=d#5 v=100
100512 Par ch=1 c=64 v=127
100560 On ch=1 n=d#5 v=0
100560 On ch=1 n=f#6 v=100
100608 On ch=1 n=f#6 v=0
100608 On ch=1 n=d#5 v=100
100656 On ch=1 n=d#5 v=0
100656 On ch=1 n=f#6 v=100
100704 On ch=1 n=f#6 v=0
100704 On ch=1 n=d#5 v=100
100800 On ch=1 n=d#5 v=0
100800 Par ch=1 c=64 v=127
100800 On ch=1 n=e5 v=100
100848 On ch=1 n=e5 v=0
100848 On ch=1 n=e6 v=100
100896 On ch=1 n=e6 v=0
100896 On ch=1 n=g#5 v=100
100944 On ch=1 n=g#5 v=0
100944 On ch=1 n=c#6 v=100
100992 On ch=1 n=c#6 v=0
100992 On ch=1 n=d#5 v=100
100992 On ch=1 n=a#5 v=100
100992 On ch=1 n=d#6 v=100
101088 On ch=1 n=d#6 v=0
101088 On ch=1 n=a#5 v=0
101088 On ch=1 n=d#5 v=0
101088 Par ch=1 c=64 v=127
101088 On ch=1 n=b5 v=100
101088 On ch=1 n=b5 v=100
101088 On ch=1 n=d#5 v=100
101280 On ch=1 n=b5 v=0
101280 On ch=1 n=b5 v=0
101280 On ch=1 n=b5 v=100
101376 On ch=1 n=d#5 v=0
101376 On ch=1 n=b5 v=0
101376 Par ch=1 c=64 v=127
101376 On ch=1 n=e5 v=100
101472 On ch=1 n=a#5 v=100
101616 On ch=1 n=a#5 v=0
101616 On ch=1 n=g#5 v=100
101628 On ch=1 n=g5 v=100
101640 On ch=1 n=g5 v=0
101640 On ch=1 n=g#5 v=100
101652 On ch=1 n=g#5 v=0
101652 On ch=1 n=g#5 v=0
101652 On ch=1 n=a#5 v=100
101664 On ch=1 n=a#5 v=0
101664 On ch=1 n=e5 v=0
101664 Par ch=1 c=64 v=127
101664 On ch=1 n=g#5 v=100
101664 On ch=1 n=e5 v=100
101808 On ch=1 n=g#5 v=0
101808 On ch=1 n=f#5 v=100
101856 On ch=1 n=f#5 v=0
101856 On ch=1 n=f#5 v=100
101928 On ch=1 n=d#5 v=100
101940 On ch=1 n=d#5 v=0
101940 On ch=1 n=f#5 v=100
101952 On ch=1 n=f#5 v=0
101952 On ch=1 n=e5 v=0
101952 On ch=1 n=f#5 v=0
101952 Par ch=1 c=64 v=127
101952 On ch=1 n=d#6 v=100
102048 On ch=1 n=d#6 v=0
102048 On ch=1 n=c#6 v=100
102192 On ch=1 n=c#6 v=0
102192 On ch=1 n=b5 v=100
102216 On ch=1 n=d#5 v=100
102228 On ch=1 n=d#5 v=0
102228 On ch=1 n=g#5 v=100
102240 On ch=1 n=b5 v=0
102240 Par ch=1 c=64 v=127
102240 On ch=1 n=b5 v=100
102252 On ch=1 n=b5 v=0
102252 On ch=1 n=c#6 v=100
102264 On ch=1 n=c#6 v=0
102264 On ch=1 n=b5 v=100
102384 On ch=1 n=b5 v=0
102384 On ch=1 n=a#5 v=100
102432 On ch=1 n=g#5 v=0
102432 On ch=1 n=a#5 v=0
102432 On ch=1 n=a#5 v=100
102432 On ch=1 n=g5 v=100
102492 On ch=1 n=f#5 v=100
102504 On ch=1 n=f#5 v=0
102504 On ch=1 n=a5 v=100
102516 On ch=1 n=c6 v=100
102528 On ch=1 n=c6 v=0
102528 On ch=1 n=g5 v=0
102528 On ch=1 n=a#5 v=0
102528 Par ch=1 c=64 v=127
102528 On ch=1 n=f#6 v=100
102624 On ch=1 n=f#6 v=0
102624 On ch=1 n=e6 v=100
102768 On ch=1 n=e6 v=0
102768 On ch=1 n=d#6 v=100
102816 On ch=1 n=d#6 v=0
102816 Par ch=1 c=64 v=127
102816 On ch=1 n=d#6 v=100
102960 On ch=1 n=d#6 v=0
102960 On ch=1 n=c#6 v=100
103008 On ch=1 n=c#6 v=0
103008 On ch=1 n=c#6 v=100
103104 On ch=1 n=a5 v=0
103104 On ch=1 n=c#6 v=0
103104 Par ch=1 c=64 v=127
103104 On ch=1 n=g#6 v=100
103104 On ch=1 n=d6 v=100
103200 On ch=1 n=g#6 v=0
103200 On ch=1 n=g#6 v=100
103212 On ch=1 n=g#6 v=0
103212 On ch=1 n=a#6 v=100
103224 On ch=1 n=a#6 v=0
103224 On ch=1 n=g#6 v=100
103248 On ch=1 n=g#6 v=0
103248 On ch=1 n=g6 v=100
103296 On ch=1 n=g6 v=0
103296 On ch=1 n=g#6 v=100
103344 On ch=1 n=g#6 v=0
103344 On ch=1 n=a#6 v=100
103392 On ch=1 n=d6 v=0
103392 On ch=1 n=a#6 v=0
103392 Par ch=1 c=64 v=127
103392 On ch=1 n=g6 v=100
103392 On ch=1 n=d#6 v=100
103584 On ch=1 n=d#6 v=0
103584 On ch=1 n=g6 v=0
103584 On ch=1 n=d#6 v=100
103668 On ch=1 n=d#6 v=0
103668 On ch=1 n=d#6 v=100
103680 On ch=1 n=d#6 v=0
103680 Par ch=1 c=64 v=127
103680 On ch=1 n=c#6 v=100
103680 On ch=1 n=g5 v=100
103824 On ch=1 n=c#6 v=0
103824 On ch=1 n=b5 v=100
103872 On ch=1 n=b5 v=0
103872 On ch=1 n=a#5 v=100
103968 On ch=1 n=g5 v=0
103968 On ch=1 n=a#5 v=0
103968 Par ch=1 c=64 v=127
103968 On ch=1 n=c#6 v=100
103968 On ch=1 n=g#5 v=100
104112 On ch=1 n=c#6 v=0
104112 On ch=1 n=c#6 v=100
104160 On ch=1 n=c#6 v=0
104160 On ch=1 n=c#6 v=100
104220 On ch=1 n=c6 v=100
104232 On ch=1 n=c6 v=0
104232 On ch=1 n=c#6 v=100
104244 On ch=1 n=c#6 v=0
104244 On ch=1 n=c#6 v=0
104244 On ch=1 n=d#6 v=100
104256 On ch=1 n=g#5 v=0
104256 On ch=1 n=d#6 v=0
104256 Par ch=1 c=64 v=127
104256 On ch=1 n=c#6 v=100
104256 On ch=1 n=g5 v=100
104400 On ch=1 n=c#6 v=0
104400 On ch=1 n=b5 v=100
104448 On ch=1 n=b5 v=0
104448 On ch=1 n=a#5 v=100
104544 On ch=1 n=g5 v=0
104544 On ch=1 n=a#5 v=0
104544 Par ch=1 c=64 v=127
104544 On ch=1 n=c#6 v=100
104544 On ch=1 n=g#5 v=100
104688 On ch=1 n=c#6 v=0
104688 On ch=1 n=c#6 v=100
104736 On ch=1 n=c#6 v=0
104736 On ch=1 n=c#6 v=100
104832 On ch=1 n=g#5 v=0
104832 On ch=1 n=c#6 v=0
104832 Par ch=1 c=64 v=127
104832 On ch=1 n=c#6 v=100
104832 On ch=1 n=g5 v=100
105120 On ch=1 n=g5 v=0
105120 Par ch=1 c=64 v=127
105120 On ch=1 n=g5 v=100
105264 On ch=1 n=g5 v=0
105264 On ch=1 n=g5 v=100
105312 On ch=1 n=g5 v=0
105312 On ch=1 n=g5 v=100
105408 On ch=1 n=g5 v=0
105408 Tempo 555555
105408 Par ch=1 c=64 v=127
105408 On ch=1 n=g#5 v=100
105504 Tempo 571428
105600 Tempo 588235
105696 On ch=1 n=g#5 v=0
105696 Tempo 606060
105696 Par ch=1 c=64 v=127
105696 On ch=1 n=f#5 v=90
105792 Tempo 625000
105888 On ch=1 n=f#5 v=0
105888 Tempo 645161
105888 On ch=1 n=e5 v=84
105984 On ch=1 n=e5 v=0
105984 On ch=1 n=c#6 v=0
105984 Tempo 555555
105984 Par ch=1 c=67 v=127
105984 Par ch=1 c=64 v=127
105984 On ch=1 n=d#5 v=80
106032 On ch=1 n=d#5 v=0
106032 On ch=1 n=f#6 v=64
106080 On ch=1 n=f#6 v=0
106080 On ch=1 n=d#5 v=80
106128 On ch=1 n=d#5 v=0
106128 On ch=1 n=f#6 v=64
106176 On ch=1 n=f#6 v=0
106176 On ch=1 n=d#5 v=80
106272 On ch=1 n=d#5 v=0
106272 Par ch=1 c=64 v=127
106272 On ch=1 n=e5 v=80
106320 On ch=1 n=e5 v=0
106320 On ch=1 n=f#6 v=64
106368 On ch=1 n=f#6 v=0
106368 On ch=1 n=e5 v=80
106416 On ch=1 n=e5 v=0
106416 On ch=1 n=f#6 v=64
106464 On ch=1 n=f#6 v=0
106464 On ch=1 n=d#5 v=80
106560 On ch=1 n=d#5 v=0
106560 Par ch=1 c=64 v=127
106560 On ch=1 n=c#5 v=80
106608 On ch=1 n=c#5 v=0
106608 On ch=1 n=f#6 v=64
106656 On ch=1 n=f#6 v=0
106656 On ch=1 n=c#5 v=80
106704 On ch=1 n=c#5 v=0
106704 On ch=1 n=f#6 v=64
106752 On ch=1 n=f#6 v=0
106752 On ch=1 n=e5 v=80
106848 On ch=1 n=e5 v=0
106848 Par ch=1 c=64 v=127
106848 On ch=1 n=g#5 v=80
106896 On ch=1 n=g#5 v=0
106896 On ch=1 n=f#6 v=64
106944 On ch=1 n=f#6 v=0
106944 On ch=1 n=g#5 v=80
106992 On ch=1 n=g#5 v=0
106992 On ch=1 n=f#6 v=64
107040 On ch=1 n=f#6 v=0
107040 On ch=1 n=f#5 v=80
107136 On ch=1 n=f#5 v=0
107136 Par ch=1 c=64 v=127
107136 On ch=1 n=d#5 v=80
107184 On ch=1 n=d#5 v=0
107184 On ch=1 n=f#6 v=64
107232 On ch=1 n=f#6 v=0
107232 On ch=1 n=d#5 v=80
107280 On ch=1 n=d#5 v=0
107280 On ch=1 n=f#6 v=64
107328 On ch=1 n=f#6 v=0
107328 On ch=1 n=d#5 v=80
107424 Par ch=1 c=67 v=0
107424 Par ch=1 c=64 v=127
107472 On ch=1 n=d#5 v=0
107472 On ch=1 n=f#6 v=80
107520 On ch=1 n=f#6 v=0
107520 On ch=1 n=f#5 v=80
107568 On ch=1 n=f#5 v=0
107568 On ch=1 n=f#6 v=80
107616 On ch=1 n=f#6 v=0
107616 On ch=1 n=g#6 v=80
107712 On ch=1 n=g#6 v=0
107712 Par ch=1 c=64 v=127
107712 On ch=1 n=f#5 v=80
107760 On ch=1 n=f#5 v=0
107760 On ch=1 n=a#6 v=80
107808 On ch=1 n=a#6 v=0
107808 On ch=1 n=f#5 v=80
107856 On ch=1 n=f#5 v=0
107856 On ch=1 n=g#6 v=80
107904 On ch=1 n=g#6 v=0
107904 On ch=1 n=f5 v=80
108000 On ch=1 n=f5 v=0
108000 Par ch=1 c=64 v=127
108000 On ch=1 n=f#5 v=80
108048 On ch=1 n=f#5 v=0
108048 On ch=1 n=f#6 v=80
108096 On ch=1 n=f#6 v=0
108096 On ch=1 n=f#5 v=80
108144 On ch=1 n=f#5 v=0
108144 On ch=1 n=f#6 v=80
108192 On ch=1 n=f#6 v=0
108192 On ch=1 n=e5 v=80
108288 On ch=1 n=e5 v=0
108288 Par ch=1 c=64 v=127
108288 On ch=1 n=d#5 v=80
108336 On ch=1 n=d#5 v=0
108336 On ch=1 n=f#6 v=64
108384 On ch=1 n=f#6 v=0
108384 On ch=1 n=d#5 v=80
108432 On ch=1 n=d#5 v=0
108432 On ch=1 n=f#6 v=64
108480 On ch=1 n=f#6 v=0
108480 On ch=1 n=d#5 v=80
108576 On ch=1 n=d#5 v=0
108576 Par ch=1 c=64 v=127
108576 On ch=1 n=e5 v=80
108624 On ch=1 n=e5 v=0
108624 On ch=1 n=f#6 v=64
108672 On ch=1 n=f#6 v=0
108672 On ch=1 n=e5 v=80
108720 On ch=1 n=e5 v=0
108720 On ch=1 n=f#6 v=64
108768 On ch=1 n=f#6 v=0
108768 On ch=1 n=d#5 v=80
108864 On ch=1 n=d#5 v=0
108864 Par ch=1 c=64 v=127
108864 On ch=1 n=c#5 v=80
108912 On ch=1 n=c#5 v=0
108912 On ch=1 n=f#6 v=64
108960 On ch=1 n=f#6 v=0
108960 On ch=1 n=c#5 v=80
109008 On ch=1 n=c#5 v=0
109008 On ch=1 n=f#6 v=64
109056 On ch=1 n=f#6 v=0
109056 On ch=1 n=e5 v=80
109152 On ch=1 n=e5 v=0
109152 Par ch=1 c=64 v=127
109152 On ch=1 n=g#5 v=80
109200 On ch=1 n=g#5 v=0
109200 On ch=1 n=f#6 v=64
109248 On ch=1 n=f#6 v=0
109248 On ch=1 n=g#5 v=80
109296 On ch=1 n=g#5 v=0
109296 On ch=1 n=f#6 v=64
109344 On ch=1 n=f#6 v=0
109344 On ch=1 n=f#5 v=80
109440 On ch=1 n=f#5 v=0
109440 Tempo 555555
109440 Par ch=1 c=64 v=127
109440 On ch=1 n=d#5 v=80
109488 On ch=1 n=d#5 v=0
109488 On ch=1 n=f#6 v=64
109536 On ch=1 n=f#6 v=0
109536 On ch=1 n=d#5 v=80
109584 On ch=1 n=d#5 v=0
109584 On ch=1 n=f#6 v=64
109632 On ch=1 n=f#6 v=0
109632 On ch=1 n=d#5 v=80
109728 On ch=1 n=d#5 v=0
109728 Tempo 612244
109728 Par ch=1 c=64 v=127
109728 On ch=1 n=d#5 v=80
109776 On ch=1 n=d#5 v=0
109776 On ch=1 n=f#6 v=64
109824 On ch=1 n=f#6 v=0
109824 On ch=1 n=d#5 v=80
109872 On ch=1 n=d#5 v=0
109872 On ch=1 n=f#6 v=64
109920 On ch=1 n=f#6 v=0
109920 On ch=1 n=d#5 v=80
110016 On ch=1 n=d#5 v=0
110016 Tempo 666666
110016 On ch=1 n=c#5 v=80
110064 On ch=1 n=c#5 v=0
110064 On ch=1 n=c#6 v=64
110112 On ch=1 n=c#6 v=0
110112 On ch=1 n=c#5 v=80
110160 On ch=1 n=c#5 v=0
110160 On ch=1 n=c#6 v=64
110208 On ch=1 n=c#6 v=0
110208 On ch=1 n=c#5 v=80
110304 On ch=1 n=c#5 v=0
110304 On ch=1 n=c#5 v=80
110352 On ch=1 n=c#5 v=0
110352 On ch=1 n=c#6 v=64
110400 On ch=1 n=c#6 v=0
110400 On ch=1 n=c#5 v=80
110448 On ch=1 n=c#5 v=0
110448 On ch=1 n=c#6 v=64
110496 On ch=1 n=c#6 v=0
110496 On ch=1 n=c#5 v=80
110592 On ch=1 n=c#5 v=0
110592 Par ch=1 c=64 v=127
110592 On ch=1 n=b6 v=112
110592 On ch=1 n=e7 v=100
110592 On ch=1 n=b7 v=100
110880 On ch=1 n=b7 v=0
110880 On ch=1 n=e7 v=0
110880 On ch=1 n=b6 v=0
110880 On ch=1 n=c#5 v=80
110928 On ch=1 n=c#5 v=0
110928 On ch=1 n=c#6 v=64
110976 On ch=1 n=c#6 v=0
110976 On ch=1 n=c#5 v=80
111024 On ch=1 n=c#5 v=0
111024 On ch=1 n=c#6 v=64
111072 On ch=1 n=c#6 v=0
111072 On ch=1 n=b4 v=80
111168 On ch=1 n=b4 v=0
111168 Tempo 666666
111168 Par ch=1 c=64 v=127
111168 On ch=1 n=f#4 v=112
111168 On ch=1 n=c#5 v=100
111168 On ch=1 n=e5 v=100
111168 On ch=1 n=f#5 v=100
111260 Tempo 769230
111264 On ch=1 n=f#5 v=0
111264 On ch=1 n=e5 v=0
111264 On ch=1 n=c#5 v=0
111264 On ch=1 n=f#4 v=0
111264 On ch=1 n=f#4 v=80
111312 On ch=1 n=f#4 v=0
111312 On ch=1 n=c#6 v=64
111360 On ch=1 n=c#6 v=0
111360 Tempo 833333
111360 Par ch=1 c=64 v=0
111360 On ch=1 n=c#5 v=80
111456 On ch=1 n=c#5 v=0
111456 Tempo 1000000
111456 On ch=1 n=g5 v=80
111504 On ch=1 n=g5 v=0
111504 On ch=1 n=c#6 v=64
111552 On ch=1 n=c#6 v=0
111552 On ch=1 n=g5 v=96
111600 On ch=1 n=g5 v=0
111600 On ch=1 n=c#6 v=64
111648 On ch=1 n=c#6 v=0
111648 On ch=1 n=f#5 v=80
111744 On ch=1 n=f#5 v=0
111744 Tempo 166666
111887 On ch=1 n=f4 v=100
111935 On ch=1 n=f4 v=0
111935 On ch=1 n=f#4 v=100
111983 On ch=1 n=f#4 v=0
111983 On ch=1 n=b4 v=100
112031 On ch=1 n=b4 v=0
112031 On ch=1 n=d5 v=100
112079 On ch=1 n=d5 v=0
112079 On ch=1 n=a#4 v=100
112127 On ch=1 n=a#4 v=0
112127 On ch=1 n=c#5 v=100
112175 On ch=1 n=c#5 v=0
112175 On ch=1 n=b4 v=100
112223 On ch=1 n=b4 v=0
112223 On ch=1 n=d5 v=100
112271 On ch=1 n=d5 v=0
112271 On ch=1 n=f#5 v=100
112319 On ch=1 n=f#5 v=0
112319 On ch=1 n=d6 v=100
112367 On ch=1 n=d6 v=0
112463 On ch=1 n=f4 v=100
112511 On ch=1 n=f4 v=0
112511 On ch=1 n=f#4 v=100
112559 On ch=1 n=f#4 v=0
112559 On ch=1 n=b4 v=100
112607 On ch=1 n=b4 v=0
112607 On ch=1 n=d5 v=100
112655 On ch=1 n=d5 v=0
112655 On ch=1 n=a#4 v=100
112703 On ch=1 n=a#4 v=0
112703 On ch=1 n=c#5 v=100
112751 On ch=1 n=c#5 v=0
112751 On ch=1 n=b4 v=100
112799 On ch=1 n=b4 v=0
112799 On ch=1 n=d5 v=100
112847 On ch=1 n=d5 v=0
112847 On ch=1 n=f#5 v=100
112895 On ch=1 n=f#5 v=0
112895 On ch=1 n=d6 v=100
112943 On ch=1 n=d6 v=0
112991 On ch=1 n=e6 v=100
113039 On ch=1 n=e6 v=0
113039 On ch=1 n=a#5 v=100
113087 On ch=1 n=a#5 v=0
113087 On ch=1 n=d6 v=100
113135 On ch=1 n=d6 v=0
113135 On ch=1 n=b5 v=100
113183 On ch=1 n=b5 v=0
113183 On ch=1 n=g6 v=100
113231 On ch=1 n=g6 v=0
113231 On ch=1 n=c#6 v=100
113279 On ch=1 n=c#6 v=0
113279 On ch=1 n=f#6 v=100
113327 On ch=1 n=f#6 v=0
113327 On ch=1 n=d6 v=100
113375 On ch=1 n=d6 v=0
113375 On ch=1 n=c#7 v=100
113423 On ch=1 n=c#7 v=0
113423 On ch=1 n=f6 v=100
113471 On ch=1 n=f6 v=0
113471 On ch=1 n=b6 v=100
113519 On ch=1 n=b6 v=0
113519 On ch=1 n=f#6 v=100
113567 On ch=1 n=f#6 v=0
113567 On ch=1 n=e7 v=100
113615 On ch=1 n=e7 v=0
113615 On ch=1 n=a#6 v=100
113663 On ch=1 n=a#6 v=0
113663 On ch=1 n=d7 v=100
113711 On ch=1 n=d7 v=0
113711 On ch=1 n=b6 v=100
113759 On ch=1 n=b6 v=0
113759 On ch=1 n=b7 v=100
113855 On ch=1 n=b7 v=0
114191 On ch=1 n=a#4 v=100
114239 On ch=1 n=a#4 v=0
114239 On ch=1 n=b4 v=100
114287 On ch=1 n=b4 v=0
114287 On ch=1 n=e5 v=100
114335 On ch=1 n=e5 v=0
114335 On ch=1 n=g5 v=100
114383 On ch=1 n=g5 v=0
114383 On ch=1 n=d#5 v=100
114431 On ch=1 n=d#5 v=0
114431 On ch=1 n=f#5 v=100
114479 On ch=1 n=f#5 v=0
114479 On ch=1 n=e5 v=100
114527 On ch=1 n=e5 v=0
114527 On ch=1 n=g5 v=100
114575 On ch=1 n=g5 v=0
114575 On ch=1 n=b5 v=100
114623 On ch=1 n=b5 v=0
114623 On ch=1 n=e6 v=100
114671 On ch=1 n=e6 v=0
114767 On ch=1 n=a#4 v=100
114815 On ch=1 n=a#4 v=0
114815 On ch=1 n=b4 v=100
114863 On ch=1 n=b4 v=0
114863 On ch=1 n=e5 v=100
114911 On ch=1 n=e5 v=0
114911 On ch=1 n=g5 v=100
114959 On ch=1 n=g5 v=0
114959 On ch=1 n=d#5 v=100
115007 On ch=1 n=d#5 v=0
115007 On ch=1 n=f#5 v=100
115055 On ch=1 n=f#5 v=0
115055 On ch=1 n=e5 v=100
115103 On ch=1 n=e5 v=0
115103 On ch=1 n=g5 v=100
115151 On ch=1 n=g5 v=0
115151 On ch=1 n=b5 v=100
115199 On ch=1 n=b5 v=0
115199 On ch=1 n=g6 v=100
115247 On ch=1 n=g6 v=0
115295 On ch=1 n=f#6 v=100
115343 On ch=1 n=f#6 v=0
115343 On ch=1 n=a#5 v=100
115391 On ch=1 n=a#5 v=0
115391 On ch=1 n=e6 v=100
115439 On ch=1 n=e6 v=0
115439 On ch=1 n=b5 v=100
115487 On ch=1 n=b5 v=0
115487 On ch=1 n=a6 v=100
115535 On ch=1 n=a6 v=0
115535 On ch=1 n=d#6 v=100
115583 On ch=1 n=d#6 v=0
115583 On ch=1 n=g6 v=100
115631 On ch=1 n=g6 v=0
115631 On ch=1 n=e6 v=100
115679 On ch=1 n=e6 v=0
115679 On ch=1 n=c7 v=100
115727 On ch=1 n=c7 v=0
115727 On ch=1 n=f#6 v=100
115775 On ch=1 n=f#6 v=0
115775 On ch=1 n=b6 v=100
115823 On ch=1 n=b6 v=0
115823 On ch=1 n=g6 v=100
115871 On ch=1 n=g6 v=0
115871 On ch=1 n=f#7 v=100
115919 On ch=1 n=f#7 v=0
115919 On ch=1 n=a#6 v=100
115967 On ch=1 n=a#6 v=0
115967 On ch=1 n=e7 v=100
116015 On ch=1 n=e7 v=0
116015 On ch=1 n=b6 v=100
116063 On ch=1 n=b6 v=0
116063 On ch=1 n=e8 v=100
116159 On ch=1 n=e8 v=0
116351 On ch=1 n=f#7 v=100
116447 On ch=1 n=f#7 v=0
116447 On ch=1 n=g7 v=100
116495 On ch=1 n=g7 v=0
116495 On ch=1 n=f#7 v=100
116543 On ch=1 n=f#7 v=0
116543 On ch=1 n=f7 v=100
116591 On ch=1 n=f7 v=0
116591 On ch=1 n=e7 v=100
116639 On ch=1 n=e7 v=0
116639 On ch=1 n=e7 v=100
116687 On ch=1 n=e7 v=0
116687 On ch=1 n=d7 v=100
116735 On ch=1 n=d7 v=0
116735 On ch=1 n=c#7 v=100
116783 On ch=1 n=c#7 v=0
116783 On ch=1 n=b6 v=100
116831 On ch=1 n=b6 v=0
116831 On ch=1 n=a6 v=100
116879 On ch=1 n=a6 v=0
116879 On ch=1 n=g6 v=100
116927 On ch=1 n=g6 v=0
116927 On ch=1 n=f#6 v=100
116975 On ch=1 n=f#6 v=0
116975 On ch=1 n=g6 v=100
117023 On ch=1 n=g6 v=0
117023 On ch=1 n=f6 v=100
117071 On ch=1 n=f6 v=0
117071 On ch=1 n=f#6 v=100
117119 On ch=1 n=f#6 v=0
117119 On ch=1 n=b6 v=100
117167 On ch=1 n=b6 v=0
117167 On ch=1 n=e6 v=100
117215 On ch=1 n=e6 v=0
117215 On ch=1 n=d6 v=100
117263 On ch=1 n=d6 v=0
117263 On ch=1 n=e6 v=100
117311 On ch=1 n=e6 v=0
117311 On ch=1 n=c#6 v=100
117359 On ch=1 n=c#6 v=0
117359 On ch=1 n=d6 v=100
117407 On ch=1 n=d6 v=0
117407 On ch=1 n=g6 v=100
117455 On ch=1 n=g6 v=0
117455 On ch=1 n=b5 v=100
117503 On ch=1 n=b5 v=0
117503 On ch=1 n=a#5 v=100
117551 On ch=1 n=a#5 v=0
117551 On ch=1 n=e6 v=100
117599 On ch=1 n=e6 v=0
117599 On ch=1 n=g#5 v=100
117647 On ch=1 n=g#5 v=0
117647 On ch=1 n=a5 v=100
117695 On ch=1 n=a5 v=0
117695 On ch=1 n=f#6 v=100
117743 On ch=1 n=f#6 v=0
117743 On ch=1 n=d6 v=100
117791 On ch=1 n=d6 v=0
117791 On ch=1 n=a#5 v=100
117839 On ch=1 n=a#5 v=0
117839 On ch=1 n=d6 v=100
117887 On ch=1 n=d6 v=0
117887 On ch=1 n=g#5 v=100
117935 On ch=1 n=g#5 v=0
117935 On ch=1 n=a5 v=100
117983 On ch=1 n=a5 v=0
117983 On ch=1 n=f#6 v=100
118031 On ch=1 n=f#6 v=0
118031 On ch=1 n=d6 v=100
118079 On ch=1 n=d6 v=0
118079 On ch=1 n=g#5 v=100
118127 On ch=1 n=g#5 v=0
118127 On ch=1 n=d6 v=100
118175 On ch=1 n=d6 v=0
118175 On ch=1 n=f#5 v=100
118223 On ch=1 n=f#5 v=0
118223 On ch=1 n=g5 v=100
118271 On ch=1 n=g5 v=0
118271 On ch=1 n=e6 v=100
118319 On ch=1 n=e6 v=0
118319 On ch=1 n=c#6 v=100
118367 On ch=1 n=c#6 v=0
118367 On ch=1 n=g5 v=100
118415 On ch=1 n=g5 v=0
118415 On ch=1 n=c#6 v=100
118463 On ch=1 n=c#6 v=0
118463 On ch=1 n=f5 v=100
118511 On ch=1 n=f5 v=0
118511 On ch=1 n=f#5 v=100
118559 On ch=1 n=f#5 v=0
118559 On ch=1 n=d6 v=100
118607 On ch=1 n=d6 v=0
118607 On ch=1 n=b5 v=100
118655 On ch=1 n=b5 v=0
118655 On ch=1 n=f#5 v=100
118703 On ch=1 n=f#5 v=0
118751 On ch=1 n=g5 v=100
118799 On ch=1 n=g5 v=0
118799 On ch=1 n=f#5 v=100
118847 On ch=1 n=f#5 v=0
118847 On ch=1 n=f5 v=100
118895 On ch=1 n=f5 v=0
118895 On ch=1 n=e5 v=100
118943 On ch=1 n=e5 v=0
118943 On ch=1 n=e5 v=100
118991 On ch=1 n=e5 v=0
118991 On ch=1 n=d5 v=100
119039 On ch=1 n=d5 v=0
119039 On ch=1 n=c#5 v=100
119087 On ch=1 n=c#5 v=0
119087 On ch=1 n=b4 v=100
119135 On ch=1 n=b4 v=0
119135 On ch=1 n=a4 v=100
119183 On ch=1 n=a4 v=0
119183 On ch=1 n=g4 v=100
119231 On ch=1 n=g4 v=0
119231 On ch=1 n=f#4 v=100
119279 On ch=1 n=f#4 v=0
119279 On ch=1 n=g4 v=100
119327 On ch=1 n=g4 v=0
119327 On ch=1 n=f4 v=100
119375 On ch=1 n=f4 v=0
119375 On ch=1 n=f#4 v=100
119423 On ch=1 n=f#4 v=0
119423 On ch=1 n=b4 v=100
119471 On ch=1 n=b4 v=0
119471 On ch=1 n=e4 v=100
119519 On ch=1 n=e4 v=0
119519 On ch=1 n=d4 v=100
119567 On ch=1 n=d4 v=0
119567 On ch=1 n=e4 v=100
119615 On ch=1 n=e4 v=0
119615 On ch=1 n=c#4 v=100
119663 On ch=1 n=c#4 v=0
119663 On ch=1 n=d4 v=100
119711 On ch=1 n=d4 v=0
119711 On ch=1 n=g4 v=100
119759 On ch=1 n=g4 v=0
119759 On ch=1 n=b3 v=100
119807 On ch=1 n=b3 v=0
119807 On ch=1 n=a#3 v=100
119855 On ch=1 n=a#3 v=0
119855 On ch=1 n=c#4 v=100
119903 On ch=1 n=c#4 v=0
119903 On ch=1 n=e4 v=100
119951 On ch=1 n=e4 v=0
119951 On ch=1 n=g4 v=100
119999 On ch=1 n=g4 v=0
119999 On ch=1 n=a#4 v=100
120047 On ch=1 n=a#4 v=0
120047 On ch=1 n=c#5 v=100
120095 On ch=1 n=c#5 v=0
120095 On ch=1 n=d#5 v=100
120143 On ch=1 n=d#5 v=0
120143 On ch=1 n=e5 v=100
120191 On ch=1 n=e5 v=0
120191 On ch=1 n=f5 v=100
120239 On ch=1 n=f5 v=0
120239 On ch=1 n=f#5 v=100
120287 On ch=1 n=f#5 v=0
120287 On ch=1 n=g5 v=100
120335 On ch=1 n=g5 v=0
120335 On ch=1 n=d5 v=100
120383 On ch=1 n=d5 v=0
120383 On ch=1 n=c#5 v=100
120431 On ch=1 n=c#5 v=0
120431 On ch=1 n=e5 v=100
120479 On ch=1 n=e5 v=0
120479 On ch=1 n=c#6 v=100
120479 On ch=1 n=e6 v=100
120527 On ch=1 n=e6 v=0
120527 On ch=1 n=c#6 v=0
120527 On ch=1 n=a#5 v=100
120575 On ch=1 n=a#5 v=0
120575 On ch=1 n=g5 v=100
120623 On ch=1 n=g5 v=0
120623 On ch=1 n=f5 v=100
120671 On ch=1 n=f5 v=0
120671 On ch=1 n=e5 v=100
120719 On ch=1 n=e5 v=0
120719 On ch=1 n=d#5 v=100
120767 On ch=1 n=d#5 v=0
120767 On ch=1 n=d5 v=100
120815 On ch=1 n=d5 v=0
120815 On ch=1 n=c#5 v=100
120863 On ch=1 n=c#5 v=0
120863 On ch=1 n=c5 v=100
120911 On ch=1 n=c5 v=0
120911 On ch=1 n=b4 v=100
120959 On ch=1 n=b4 v=0
120959 On ch=1 n=a#4 v=100
121007 On ch=1 n=a#4 v=0
121007 On ch=1 n=c#5 v=100
121055 On ch=1 n=c#5 v=0
121055 On ch=1 n=e5 v=100
121103 On ch=1 n=e5 v=0
121103 On ch=1 n=g5 v=100
121151 On ch=1 n=g5 v=0
121151 On ch=1 n=a#5 v=100
121199 On ch=1 n=a#5 v=0
121199 On ch=1 n=c#6 v=100
121247 On ch=1 n=c#6 v=0
121247 On ch=1 n=d#6 v=100
121295 On ch=1 n=d#6 v=0
121295 On ch=1 n=e6 v=100
121343 On ch=1 n=e6 v=0
121343 On ch=1 n=f6 v=100
121391 On ch=1 n=f6 v=0
121391 On ch=1 n=f#6 v=100
121439 On ch=1 n=f#6 v=0
121439 On ch=1 n=g6 v=100
121487 On ch=1 n=g6 v=0
121487 On ch=1 n=d6 v=100
121535 On ch=1 n=d6 v=0
121535 On ch=1 n=c#6 v=100
121583 On ch=1 n=c#6 v=0
121631 On ch=1 n=a#5 v=100
121631 On ch=1 n=e6 v=100
121631 On ch=1 n=g6 v=100
121631 On ch=1 n=a#6 v=100
121727 On ch=1 n=a#6 v=0
121727 On ch=1 n=g6 v=0
121727 On ch=1 n=e6 v=0
121727 On ch=1 n=a#5 v=0
121727 On ch=1 n=b5 v=100
121727 On ch=1 n=e6 v=100
121727 On ch=1 n=g6 v=100
121727 On ch=1 n=b6 v=100
121823 On ch=1 n=b6 v=0
121823 On ch=1 n=g6 v=0
121823 On ch=1 n=e6 v=0
121823 On ch=1 n=b5 v=0
121823 On ch=1 n=c#6 v=100
121823 On ch=1 n=e6 v=100
121823 On ch=1 n=g6 v=100
121823 On ch=1 n=c#7 v=100
121824 Tempo 166666
121919 On ch=1 n=c#7 v=0
121919 On ch=1 n=g6 v=0
121919 On ch=1 n=e6 v=0
121919 On ch=1 n=c#6 v=0
122112 Tempo 250000
122495 On ch=1 n=d5 v=100
122495 On ch=1 n=g5 v=100
122495 On ch=1 n=d6 v=100
122591 On ch=1 n=d6 v=0
122591 On ch=1 n=g5 v=0
122591 On ch=1 n=d5 v=0
122591 On ch=1 n=g4 v=100
122591 On ch=1 n=d5 v=100
122591 On ch=1 n=g5 v=100
122687 On ch=1 n=g5 v=0
122687 On ch=1 n=d5 v=0
122687 On ch=1 n=g4 v=0
122687 On ch=1 n=f#5 v=100
122687 On ch=1 n=c#5 v=100
122687 On ch=1 n=g4 v=100
122783 On ch=1 n=f#5 v=0
122783 On ch=1 n=e5 v=100
122879 On ch=1 n=g4 v=0
122879 On ch=1 n=c#5 v=0
122879 On ch=1 n=e5 v=0
123455 On ch=1 n=e5 v=100
123455 On ch=1 n=g5 v=100
123455 On ch=1 n=e6 v=100
123552 On ch=1 n=e6 v=0
123552 On ch=1 n=g5 v=0
123552 On ch=1 n=e5 v=0
123552 On ch=1 n=d#5 v=100
123552 On ch=1 n=g5 v=100
123552 On ch=1 n=d#6 v=100
123647 On ch=1 n=d5 v=100
123647 On ch=1 n=g5 v=100
123647 On ch=1 n=d6 v=100
123648 On ch=1 n=g5 v=0
123648 On ch=1 n=d#6 v=0
123648 On ch=1 n=g5 v=0
123648 On ch=1 n=d#5 v=0
123743 On ch=1 n=d6 v=0
123743 On ch=1 n=d5 v=0
123743 On ch=1 n=g4 v=100
123743 On ch=1 n=d5 v=100
123743 On ch=1 n=g5 v=100
123839 On ch=1 n=g5 v=0
123839 On ch=1 n=d5 v=0
123839 On ch=1 n=g4 v=0
123839 On ch=1 n=f#5 v=100
123839 On ch=1 n=c#5 v=100
123839 On ch=1 n=g4 v=100
124031 On ch=1 n=f#5 v=0
124031 On ch=1 n=e5 v=100
124415 On ch=1 n=g4 v=0
124415 On ch=1 n=c#5 v=0
124415 On ch=1 n=e5 v=0
124415 On ch=1 n=e5 v=100
124415 On ch=1 n=b4 v=100
124415 On ch=1 n=f#4 v=100
124511 On ch=1 n=e5 v=0
124511 On ch=1 n=d5 v=100
124607 On ch=1 n=f#4 v=0
124607 On ch=1 n=b4 v=0
124607 On ch=1 n=d5 v=0
124704 Tempo 284360
124991 On ch=1 n=e5 v=100
124991 On ch=1 n=b4 v=100
124991 On ch=1 n=f#4 v=100
125087 On ch=1 n=e5 v=0
125087 On ch=1 n=d5 v=100
125183 On ch=1 n=f#4 v=0
125183 On ch=1 n=b4 v=0
125183 On ch=1 n=d5 v=0
125280 Tempo 315789
125567 On ch=1 n=d5 v=100
125567 On ch=1 n=b4 v=100
125567 On ch=1 n=g4 v=100
125759 On ch=1 n=d5 v=0
125759 On ch=1 n=c#5 v=100
125855 On ch=1 n=g4 v=0
125855 On ch=1 n=b4 v=0
125855 On ch=1 n=c#5 v=0
125855 On ch=1 n=e6 v=100
125855 On ch=1 n=e6 v=100
126431 On ch=1 n=e6 v=0
126431 On ch=1 n=e6 v=0
126431 On ch=1 n=d6 v=100
126527 On ch=1 n=d6 v=0
126527 On ch=1 n=c#6 v=100
126623 On ch=1 n=c#6 v=0
126623 On ch=1 n=b5 v=100
126719 On ch=1 n=b5 v=0
126719 On ch=1 n=c#6 v=100
126959 Par ch=1 c=64 v=127
126959 On ch=1 n=e5 v=100
126959 On ch=1 n=b5 v=100
127007 On ch=1 n=b5 v=0
127007 On ch=1 n=e5 v=0
127007 On ch=1 n=c#6 v=0
127007 On ch=1 n=e6 v=100
127007 On ch=1 n=e6 v=100
127583 On ch=1 n=e6 v=0
127583 On ch=1 n=e6 v=0
127583 On ch=1 n=d6 v=100
127584 Par ch=1 c=64 v=0
127679 On ch=1 n=d6 v=0
127679 On ch=1 n=c#6 v=100
127775 On ch=1 n=c#6 v=0
127775 On ch=1 n=b5 v=100
127871 On ch=1 n=b5 v=0
127871 On ch=1 n=e5 v=100
127871 On ch=1 n=f#5 v=100
127871 On ch=1 n=a#5 v=100
127871 On ch=1 n=c#6 v=100
128447 On ch=1 n=c#6 v=0
128447 On ch=1 n=a#5 v=0
128447 On ch=1 n=e5 v=0
128447 On ch=1 n=d5 v=100
128447 On ch=1 n=b5 v=100
128543 On ch=1 n=b5 v=0
128543 On ch=1 n=f#5 v=0
128543 On ch=1 n=d5 v=0
129024 Tempo 166666
129167 On ch=1 n=d4 v=100
129215 On ch=1 n=d4 v=0
129215 On ch=1 n=g4 v=100
129263 On ch=1 n=g4 v=0
129263 On ch=1 n=d5 v=100
129311 On ch=1 n=d5 v=0
129311 On ch=1 n=c#5 v=100
129455 On ch=1 n=c#5 v=0
129455 On ch=1 n=g4 v=100
129503 On ch=1 n=g4 v=0
129503 On ch=1 n=a4 v=100
129551 On ch=1 n=a4 v=0
129551 On ch=1 n=g4 v=100
129599 On ch=1 n=g4 v=0
129695 On ch=1 n=f#4 v=100
129743 On ch=1 n=f#4 v=0
129743 On ch=1 n=a4 v=100
129791 On ch=1 n=a4 v=0
129791 On ch=1 n=f#5 v=100
129839 On ch=1 n=f#5 v=0
129839 On ch=1 n=f#5 v=100
129887 On ch=1 n=f#5 v=0
129887 On ch=1 n=f#6 v=100
129935 On ch=1 n=f#6 v=0
130319 On ch=1 n=f#4 v=100
130367 On ch=1 n=f#4 v=0
130367 On ch=1 n=b4 v=100
130415 On ch=1 n=b4 v=0
130415 On ch=1 n=f#5 v=100
130463 On ch=1 n=f#5 v=0
130463 On ch=1 n=g#5 v=100
130607 On ch=1 n=g#5 v=0
130607 On ch=1 n=b4 v=100
130655 On ch=1 n=b4 v=0
130655 On ch=1 n=c#5 v=100
130703 On ch=1 n=c#5 v=0
130703 On ch=1 n=b4 v=100
130751 On ch=1 n=b4 v=0
130847 On ch=1 n=a4 v=100
130895 On ch=1 n=a4 v=0
130895 On ch=1 n=c#5 v=100
130943 On ch=1 n=c#5 v=0
130943 On ch=1 n=a5 v=100
130991 On ch=1 n=a5 v=0
130991 On ch=1 n=a5 v=100
131039 On ch=1 n=a5 v=0
131039 On ch=1 n=a6 v=100
131087 On ch=1 n=a6 v=0
131471 On ch=1 n=a4 v=100
131519 On ch=1 n=a4 v=0
131519 On ch=1 n=d5 v=100
131567 On ch=1 n=d5 v=0
131567 On ch=1 n=a5 v=100
131615 On ch=1 n=a5 v=0
131615 On ch=1 n=b5 v=100
131759 On ch=1 n=b5 v=0
131759 On ch=1 n=d5 v=100
131807 On ch=1 n=d5 v=0
131807 On ch=1 n=e5 v=100
131855 On ch=1 n=e5 v=0
131855 On ch=1 n=d5 v=100
131903 On ch=1 n=d5 v=0
132047 On ch=1 n=c#5 v=100
132095 On ch=1 n=c#5 v=0
132095 On ch=1 n=e5 v=100
132143 On ch=1 n=e5 v=0
132143 On ch=1 n=c#6 v=100
132191 On ch=1 n=c#6 v=0
132335 On ch=1 n=c#5 v=100
132383 On ch=1 n=c#5 v=0
132383 On ch=1 n=g5 v=100
132431 On ch=1 n=g5 v=0
132431 On ch=1 n=d#6 v=100
132575 On ch=1 n=d#6 v=0
132623 On ch=1 n=c5 v=100
132671 On ch=1 n=c5 v=0
132671 On ch=1 n=g#5 v=100
132719 On ch=1 n=g#5 v=0
132719 On ch=1 n=c6 v=100
132863 On ch=1 n=c6 v=0
132911 On ch=1 n=c5 v=100
132959 On ch=1 n=c5 v=0
132959 On ch=1 n=f#5 v=100
133007 On ch=1 n=f#5 v=0
133007 On ch=1 n=d6 v=100
133151 On ch=1 n=d6 v=0
133199 On ch=1 n=b4 v=100
133247 On ch=1 n=b4 v=0
133247 On ch=1 n=g5 v=100
133295 On ch=1 n=g5 v=0
133295 On ch=1 n=b5 v=100
133439 On ch=1 n=b5 v=0
133487 On ch=1 n=b4 v=100
133535 On ch=1 n=b4 v=0
133535 On ch=1 n=f5 v=100
133583 On ch=1 n=f5 v=0
133583 On ch=1 n=c#6 v=100
133632 Par ch=1 c=64 v=127
133727 On ch=1 n=c#6 v=0
133775 On ch=1 n=a#4 v=100
133823 On ch=1 n=a#4 v=0
133823 On ch=1 n=f#5 v=100
133871 On ch=1 n=f#5 v=0
133871 On ch=1 n=c#6 v=100
133920 Par ch=1 c=64 v=127
134015 On ch=1 n=c#6 v=0
134063 On ch=1 n=c#5 v=100
134111 On ch=1 n=c#5 v=0
134111 On ch=1 n=a#5 v=100
134159 On ch=1 n=a#5 v=0
134159 On ch=1 n=f#6 v=100
134207 On ch=1 n=f#6 v=0
134351 On ch=1 n=d5 v=100
134399 On ch=1 n=d5 v=0
134399 On ch=1 n=b5 v=100
134447 On ch=1 n=b5 v=0
134447 On ch=1 n=f#6 v=100
134495 On ch=1 n=f#6 v=0
134496 Par ch=1 c=64 v=127
134639 On ch=1 n=f5 v=100
134687 On ch=1 n=f5 v=0
134687 On ch=1 n=b5 v=100
134735 On ch=1 n=b5 v=0
134735 On ch=1 n=g#6 v=100
134783 On ch=1 n=g#6 v=0
134784 Par ch=1 c=64 v=127
134927 On ch=1 n=g#5 v=100
134975 On ch=1 n=g#5 v=0
134975 On ch=1 n=c#6 v=100
135023 On ch=1 n=c#6 v=0
135023 On ch=1 n=a#6 v=100
135071 On ch=1 n=a#6 v=0
135072 Par ch=1 c=64 v=127
135215 On ch=1 n=g5 v=100
135263 On ch=1 n=g5 v=0
135263 On ch=1 n=d#6 v=100
135311 On ch=1 n=d#6 v=0
135311 On ch=1 n=a#6 v=100
135359 On ch=1 n=a#6 v=0
135360 Par ch=1 c=64 v=127
135503 On ch=1 n=g#5 v=100
135551 On ch=1 n=g#5 v=0
135551 On ch=1 n=d#6 v=100
135599 On ch=1 n=d#6 v=0
135599 On ch=1 n=b6 v=100
135647 On ch=1 n=b6 v=0
135648 Par ch=1 c=64 v=127
135791 On ch=1 n=f5 v=100
135839 On ch=1 n=f5 v=0
135839 On ch=1 n=b5 v=100
135887 On ch=1 n=b5 v=0
135887 On ch=1 n=g#6 v=100
135935 On ch=1 n=g#6 v=0
135936 Par ch=1 c=64 v=127
136079 On ch=1 n=f#5 v=100
136127 On ch=1 n=f#5 v=0
136127 On ch=1 n=a#5 v=100
136175 On ch=1 n=a#5 v=0
136175 On ch=1 n=f#6 v=100
136223 On ch=1 n=f#6 v=0
136225 Par ch=1 c=64 v=127
136319 On ch=1 n=f#7 v=100
136367 On ch=1 n=f#7 v=0
136367 On ch=1 n=a#6 v=100
136415 On ch=1 n=a#6 v=0
136415 On ch=1 n=f#7 v=100
136415 On ch=1 n=f#7 v=100
136463 On ch=1 n=f#7 v=0
136463 On ch=1 n=f#7 v=0
136463 On ch=1 n=f#6 v=100
136511 On ch=1 n=f#6 v=0
136513 Par ch=1 c=64 v=127
136607 On ch=1 n=f#7 v=100
136655 On ch=1 n=f#7 v=0
136655 On ch=1 n=b6 v=100
136703 On ch=1 n=b6 v=0
136703 On ch=1 n=f#7 v=100
136703 On ch=1 n=f#7 v=100
136751 On ch=1 n=f#7 v=0
136751 On ch=1 n=f#7 v=0
136751 On ch=1 n=f#6 v=100
136799 On ch=1 n=f#6 v=0
136800 Par ch=1 c=64 v=127
136895 On ch=1 n=g#7 v=100
136943 On ch=1 n=g#7 v=0
136943 On ch=1 n=c#7 v=100
136991 On ch=1 n=c#7 v=0
136991 On ch=1 n=g#7 v=100
136991 On ch=1 n=g#7 v=100
137039 On ch=1 n=g#7 v=0
137039 On ch=1 n=g#7 v=0
137039 On ch=1 n=b6 v=100
137087 On ch=1 n=b6 v=0
137089 Par ch=1 c=64 v=127
137183 On ch=1 n=a#7 v=100
137231 On ch=1 n=a#7 v=0
137231 On ch=1 n=c#7 v=100
137279 On ch=1 n=c#7 v=0
137279 On ch=1 n=a#7 v=100
137327 On ch=1 n=a#7 v=0
137327 On ch=1 n=g#6 v=100
137375 On ch=1 n=g#6 v=0
137377 Par ch=1 c=64 v=127
137471 On ch=1 n=a#7 v=100
137519 On ch=1 n=a#7 v=0
137519 On ch=1 n=c#7 v=100
137567 On ch=1 n=c#7 v=0
137567 On ch=1 n=a#7 v=100
137615 On ch=1 n=a#7 v=0
137615 On ch=1 n=g6 v=100
137663 On ch=1 n=g6 v=0
137664 Par ch=1 c=64 v=127
137759 On ch=1 n=b7 v=100
137807 On ch=1 n=b7 v=0
137807 On ch=1 n=d7 v=100
137855 On ch=1 n=d7 v=0
137855 On ch=1 n=b7 v=100
137903 On ch=1 n=b7 v=0
137903 On ch=1 n=f#6 v=100
137951 On ch=1 n=f#6 v=0
137953 Par ch=1 c=64 v=127
138047 On ch=1 n=g#7 v=100
138095 On ch=1 n=g#7 v=0
138095 On ch=1 n=b6 v=100
138143 On ch=1 n=b6 v=0
138143 On ch=1 n=g#7 v=100
138191 On ch=1 n=g#7 v=0
138191 On ch=1 n=f6 v=100
138239 On ch=1 n=f6 v=0
138240 Par ch=1 c=64 v=127
138335 On ch=1 n=c#7 v=100
138335 On ch=1 n=f#7 v=100
138383 On ch=1 n=f#7 v=0
138383 On ch=1 n=c#7 v=0
138383 On ch=1 n=a#6 v=100
138431 On ch=1 n=a#6 v=0
138431 On ch=1 n=c#7 v=100
138431 On ch=1 n=f#7 v=100
138479 On ch=1 n=f#7 v=0
138479 On ch=1 n=c#7 v=0
138479 On ch=1 n=f#6 v=100
138527 On ch=1 n=f#6 v=0
138529 Par ch=1 c=64 v=127
138623 On ch=1 n=d7 v=100
138623 On ch=1 n=g7 v=100
138671 On ch=1 n=g7 v=0
138671 On ch=1 n=d7 v=0
138671 On ch=1 n=b6 v=100
138719 On ch=1 n=b6 v=0
138719 On ch=1 n=d7 v=100
138719 On ch=1 n=g7 v=100
138767 On ch=1 n=g7 v=0
138767 On ch=1 n=d7 v=0
138767 On ch=1 n=g6 v=100
138815 On ch=1 n=g6 v=0
138816 Par ch=1 c=64 v=127
138911 On ch=1 n=c#7 v=100
138911 On ch=1 n=f#7 v=100
138959 On ch=1 n=f#7 v=0
138959 On ch=1 n=c#7 v=0
138959 On ch=1 n=a#6 v=100
139007 On ch=1 n=a#6 v=0
139007 On ch=1 n=c#7 v=100
139007 On ch=1 n=f#7 v=100
139055 On ch=1 n=f#7 v=0
139055 On ch=1 n=c#7 v=0
139055 On ch=1 n=f#6 v=100
139103 On ch=1 n=f#6 v=0
139105 Par ch=1 c=64 v=127
139199 On ch=1 n=c7 v=100
139199 On ch=1 n=f7 v=100
139247 On ch=1 n=f7 v=0
139247 On ch=1 n=c7 v=0
139247 On ch=1 n=a6 v=100
139295 On ch=1 n=a6 v=0
139295 On ch=1 n=c7 v=100
139295 On ch=1 n=f7 v=100
139343 On ch=1 n=f7 v=0
139343 On ch=1 n=c7 v=0
139343 On ch=1 n=f6 v=100
139391 On ch=1 n=f6 v=0
139392 Par ch=1 c=64 v=127
139487 On ch=1 n=b6 v=100
139487 On ch=1 n=e7 v=100
139535 On ch=1 n=e7 v=0
139535 On ch=1 n=b6 v=0
139535 On ch=1 n=g#6 v=100
139583 On ch=1 n=g#6 v=0
139583 On ch=1 n=b6 v=100
139583 On ch=1 n=e7 v=100
139631 On ch=1 n=e7 v=0
139631 On ch=1 n=b6 v=0
139631 On ch=1 n=e6 v=100
139679 On ch=1 n=e6 v=0
139681 Par ch=1 c=64 v=127
139775 On ch=1 n=c7 v=100
139775 On ch=1 n=f7 v=100
139823 On ch=1 n=f7 v=0
139823 On ch=1 n=c7 v=0
139823 On ch=1 n=a6 v=100
139871 On ch=1 n=a6 v=0
139871 On ch=1 n=c7 v=100
139871 On ch=1 n=f7 v=100
139919 On ch=1 n=f7 v=0
139919 On ch=1 n=c7 v=0
139919 On ch=1 n=f6 v=100
139967 On ch=1 n=f6 v=0
139968 Par ch=1 c=64 v=127
140063 On ch=1 n=b6 v=100
140063 On ch=1 n=e7 v=100
140111 On ch=1 n=e7 v=0
140111 On ch=1 n=b6 v=0
140111 On ch=1 n=g#6 v=100
140159 On ch=1 n=g#6 v=0
140159 On ch=1 n=b6 v=100
140159 On ch=1 n=e7 v=100
140207 On ch=1 n=e7 v=0
140207 On ch=1 n=b6 v=0
140207 On ch=1 n=e6 v=100
140255 On ch=1 n=e6 v=0
140257 Par ch=1 c=64 v=127
140351 On ch=1 n=b6 v=100
140351 On ch=1 n=e7 v=100
140399 On ch=1 n=e7 v=0
140399 On ch=1 n=b6 v=0
140399 On ch=1 n=g6 v=100
140447 On ch=1 n=g6 v=0
140447 On ch=1 n=b6 v=100
140447 On ch=1 n=e7 v=100
140495 On ch=1 n=e7 v=0
140495 On ch=1 n=b6 v=0
140495 On ch=1 n=e6 v=100
140543 On ch=1 n=e6 v=0
140543 On ch=1 n=e6 v=100
140543 On ch=1 n=g6 v=100
140543 On ch=1 n=a#6 v=100
140543 On ch=1 n=c#7 v=100
140543 On ch=1 n=e7 v=100
140544 Par ch=1 c=64 v=127
140639 On ch=1 n=e7 v=0
140639 On ch=1 n=c#7 v=0
140639 On ch=1 n=a#6 v=0
140639 On ch=1 n=g6 v=0
140639 On ch=1 n=e6 v=0
140832 Par ch=1 c=64 v=127
140927 On ch=1 n=c#7 v=100
140929 Par ch=1 c=64 v=0
140975 On ch=1 n=c#7 v=0
140975 On ch=1 n=g7 v=100
140975 On ch=1 n=a#7 v=100
141023 On ch=1 n=a#7 v=0
141023 On ch=1 n=g7 v=0
141023 On ch=1 n=c#7 v=100
141071 On ch=1 n=c#7 v=0
141071 On ch=1 n=e8 v=100
141119 On ch=1 n=e8 v=0
141215 On ch=1 n=a#6 v=100
141263 On ch=1 n=a#6 v=0
141263 On ch=1 n=e7 v=100
141263 On ch=1 n=g7 v=100
141311 On ch=1 n=g7 v=0
141311 On ch=1 n=e7 v=0
141311 On ch=1 n=a#6 v=100
141359 On ch=1 n=a#6 v=0
141359 On ch=1 n=c#8 v=100
141407 On ch=1 n=c#8 v=0
141503 On ch=1 n=g6 v=100
141551 On ch=1 n=g6 v=0
141551 On ch=1 n=c#7 v=100
141551 On ch=1 n=e7 v=100
141599 On ch=1 n=e7 v=0
141599 On ch=1 n=c#7 v=0
141599 On ch=1 n=g6 v=100
141647 On ch=1 n=g6 v=0
141647 On ch=1 n=a#7 v=100
141695 On ch=1 n=a#7 v=0
141791 On ch=1 n=e6 v=100
141839 On ch=1 n=e6 v=0
141839 On ch=1 n=a#6 v=100
141839 On ch=1 n=c#7 v=100
141887 On ch=1 n=c#7 v=0
141887 On ch=1 n=a#6 v=0
141887 On ch=1 n=e6 v=100
141935 On ch=1 n=e6 v=0
141935 On ch=1 n=g7 v=100
141983 On ch=1 n=g7 v=0
142079 On ch=1 n=c#6 v=100
142127 On ch=1 n=c#6 v=0
142127 On ch=1 n=g6 v=100
142127 On ch=1 n=a#6 v=100
142175 On ch=1 n=a#6 v=0
142175 On ch=1 n=g6 v=0
142175 On ch=1 n=c#6 v=100
142223 On ch=1 n=c#6 v=0
142223 On ch=1 n=e7 v=100
142271 On ch=1 n=e7 v=0
142367 On ch=1 n=a#5 v=100
142415 On ch=1 n=a#5 v=0
142415 On ch=1 n=e6 v=100
142415 On ch=1 n=g6 v=100
142463 On ch=1 n=g6 v=0
142463 On ch=1 n=e6 v=0
142463 On ch=1 n=a#5 v=100
142511 On ch=1 n=a#5 v=0
142511 On ch=1 n=c#7 v=100
142559 On ch=1 n=c#7 v=0
142655 On ch=1 n=g5 v=100
142703 On ch=1 n=g5 v=0
142703 On ch=1 n=c#6 v=100
142703 On ch=1 n=e6 v=100
142751 On ch=1 n=e6 v=0
142751 On ch=1 n=c#6 v=0
142751 On ch=1 n=g5 v=100
142799 On ch=1 n=g5 v=0
142799 On ch=1 n=a#6 v=100
142847 On ch=1 n=a#6 v=0
142848 Par ch=1 c=64 v=127
142991 On ch=1 n=c#5 v=100
142991 On ch=1 n=c#5 v=100
143039 On ch=1 n=c#5 v=0
143039 On ch=1 n=c#5 v=0
143039 On ch=1 n=g5 v=100
143087 On ch=1 n=g5 v=0
143087 On ch=1 n=e6 v=100
143135 On ch=1 n=e6 v=0
143136 Par ch=1 c=64 v=127
143279 On ch=1 n=c5 v=100
143279 On ch=1 n=c5 v=100
143327 On ch=1 n=c5 v=0
143327 On ch=1 n=c5 v=0
143327 On ch=1 n=g5 v=100
143375 On ch=1 n=g5 v=0
143375 On ch=1 n=e6 v=100
143423 On ch=1 n=e6 v=0
143424 Par ch=1 c=64 v=127
143567 On ch=1 n=b4 v=100
143567 On ch=1 n=b4 v=100
143615 On ch=1 n=b4 v=0
143615 On ch=1 n=b4 v=0
143615 On ch=1 n=g5 v=100
143663 On ch=1 n=g5 v=0
143663 On ch=1 n=e6 v=100
143711 On ch=1 n=e6 v=0
143712 Par ch=1 c=64 v=127
143855 On ch=1 n=a#4 v=100
143855 On ch=1 n=a#4 v=100
143903 On ch=1 n=a#4 v=0
143903 On ch=1 n=a#4 v=0
143903 On ch=1 n=g5 v=100
143951 On ch=1 n=g5 v=0
143951 On ch=1 n=e6 v=100
143999 On ch=1 n=e6 v=0
144000 Par ch=1 c=64 v=127
144143 On ch=1 n=c#5 v=100
144143 On ch=1 n=c#5 v=100
144191 On ch=1 n=c#5 v=0
144191 On ch=1 n=c#5 v=0
144191 On ch=1 n=g5 v=100
144239 On ch=1 n=g5 v=0
144239 On ch=1 n=e6 v=100
144287 On ch=1 n=e6 v=0
144288 Par ch=1 c=64 v=127
144431 On ch=1 n=c5 v=100
144431 On ch=1 n=c5 v=100
144479 On ch=1 n=c5 v=0
144479 On ch=1 n=c5 v=0
144479 On ch=1 n=g5 v=100
144527 On ch=1 n=g5 v=0
144527 On ch=1 n=e6 v=100
144575 On ch=1 n=e6 v=0
144576 Par ch=1 c=64 v=127
144719 On ch=1 n=b4 v=100
144719 On ch=1 n=b4 v=100
144767 On ch=1 n=b4 v=0
144767 On ch=1 n=b4 v=0
144767 On ch=1 n=g5 v=100
144815 On ch=1 n=g5 v=0
144815 On ch=1 n=e6 v=100
144863 On ch=1 n=e6 v=0
144864 Par ch=1 c=64 v=127
145007 On ch=1 n=a#4 v=100
145007 On ch=1 n=a#4 v=100
145055 On ch=1 n=a#4 v=0
145055 On ch=1 n=a#4 v=0
145055 On ch=1 n=g5 v=100
145103 On ch=1 n=g5 v=0
145103 On ch=1 n=e6 v=100
145151 On ch=1 n=e6 v=0
145152 Par ch=1 c=64 v=0
145294 On ch=1 n=f4 v=100
145342 On ch=1 n=f4 v=0
145342 On ch=1 n=f#4 v=100
145390 On ch=1 n=f#4 v=0
145390 On ch=1 n=b4 v=100
145438 On ch=1 n=b4 v=0
145438 On ch=1 n=d5 v=100
145486 On ch=1 n=d5 v=0
145486 On ch=1 n=a#4 v=100
145534 On ch=1 n=a#4 v=0
145534 On ch=1 n=c#5 v=100
145582 On ch=1 n=c#5 v=0
145582 On ch=1 n=b4 v=100
145630 On ch=1 n=b4 v=0
145630 On ch=1 n=d5 v=100
145678 On ch=1 n=d5 v=0
145678 On ch=1 n=f#5 v=100
145726 On ch=1 n=f#5 v=0
145726 On ch=1 n=d6 v=100
145774 On ch=1 n=d6 v=0
145870 On ch=1 n=f4 v=100
145918 On ch=1 n=f4 v=0
145918 On ch=1 n=f#4 v=100
145966 On ch=1 n=f#4 v=0
145966 On ch=1 n=b4 v=100
146014 On ch=1 n=b4 v=0
146014 On ch=1 n=d5 v=100
146062 On ch=1 n=d5 v=0
146062 On ch=1 n=a#4 v=100
146110 On ch=1 n=a#4 v=0
146110 On ch=1 n=c#5 v=100
146158 On ch=1 n=c#5 v=0
146158 On ch=1 n=b4 v=100
146206 On ch=1 n=b4 v=0
146206 On ch=1 n=d5 v=100
146254 On ch=1 n=d5 v=0
146254 On ch=1 n=f#5 v=100
146302 On ch=1 n=f#5 v=0
146302 On ch=1 n=d6 v=100
146350 On ch=1 n=d6 v=0
146398 On ch=1 n=e6 v=100
146446 On ch=1 n=e6 v=0
146446 On ch=1 n=a#5 v=100
146494 On ch=1 n=a#5 v=0
146494 On ch=1 n=d6 v=100
146542 On ch=1 n=d6 v=0
146542 On ch=1 n=b5 v=100
146590 On ch=1 n=b5 v=0
146590 On ch=1 n=g6 v=100
146638 On ch=1 n=g6 v=0
146638 On ch=1 n=c#6 v=100
146686 On ch=1 n=c#6 v=0
146686 On ch=1 n=f#6 v=100
146734 On ch=1 n=f#6 v=0
146734 On ch=1 n=d6 v=100
146782 On ch=1 n=d6 v=0
146782 On ch=1 n=c#7 v=100
146830 On ch=1 n=c#7 v=0
146830 On ch=1 n=f6 v=100
146878 On ch=1 n=f6 v=0
146878 On ch=1 n=b6 v=100
146926 On ch=1 n=b6 v=0
146926 On ch=1 n=f#6 v=100
146974 On ch=1 n=f#6 v=0
146974 On ch=1 n=e7 v=100
147022 On ch=1 n=e7 v=0
147022 On ch=1 n=a#6 v=100
147070 On ch=1 n=a#6 v=0
147070 On ch=1 n=d7 v=100
147118 On ch=1 n=d7 v=0
147118 On ch=1 n=b6 v=100
147166 On ch=1 n=b6 v=0
147166 On ch=1 n=b7 v=100
147262 On ch=1 n=b7 v=0
147598 On ch=1 n=a#4 v=100
147646 On ch=1 n=a#4 v=0
147646 On ch=1 n=b4 v=100
147694 On ch=1 n=b4 v=0
147694 On ch=1 n=e5 v=100
147742 On ch=1 n=e5 v=0
147742 On ch=1 n=g5 v=100
147790 On ch=1 n=g5 v=0
147790 On ch=1 n=d#5 v=100
147838 On ch=1 n=d#5 v=0
147838 On ch=1 n=f#5 v=100
147886 On ch=1 n=f#5 v=0
147886 On ch=1 n=e5 v=100
147934 On ch=1 n=e5 v=0
147934 On ch=1 n=g5 v=100
147982 On ch=1 n=g5 v=0
147982 On ch=1 n=b5 v=100
148030 On ch=1 n=b5 v=0
148030 On ch=1 n=e6 v=100
148078 On ch=1 n=e6 v=0
148174 On ch=1 n=a#4 v=100
148222 On ch=1 n=a#4 v=0
148222 On ch=1 n=b4 v=100
148270 On ch=1 n=b4 v=0
148270 On ch=1 n=e5 v=100
148318 On ch=1 n=e5 v=0
148318 On ch=1 n=g5 v=100
148366 On ch=1 n=g5 v=0
148366 On ch=1 n=d#5 v=100
148414 On ch=1 n=d#5 v=0
148414 On ch=1 n=f#5 v=100
148462 On ch=1 n=f#5 v=0
148462 On ch=1 n=e5 v=100
148510 On ch=1 n=e5 v=0
148510 On ch=1 n=g5 v=100
148558 On ch=1 n=g5 v=0
148558 On ch=1 n=b5 v=100
148606 On ch=1 n=b5 v=0
148606 On ch=1 n=g6 v=100
148654 On ch=1 n=g6 v=0
148702 On ch=1 n=f#6 v=100
148750 On ch=1 n=f#6 v=0
148750 On ch=1 n=a#5 v=100
148798 On ch=1 n=a#5 v=0
148798 On ch=1 n=e6 v=100
148846 On ch=1 n=e6 v=0
148846 On ch=1 n=b5 v=100
148894 On ch=1 n=b5 v=0
148894 On ch=1 n=a6 v=100
148942 On ch=1 n=a6 v=0
148942 On ch=1 n=d#6 v=100
148990 On ch=1 n=d#6 v=0
148990 On ch=1 n=g6 v=100
149038 On ch=1 n=g6 v=0
149038 On ch=1 n=e6 v=100
149086 On ch=1 n=e6 v=0
149086 On ch=1 n=c7 v=100
149134 On ch=1 n=c7 v=0
149134 On ch=1 n=f#6 v=100
149182 On ch=1 n=f#6 v=0
149182 On ch=1 n=b6 v=100
149230 On ch=1 n=b6 v=0
149230 On ch=1 n=g6 v=100
149278 On ch=1 n=g6 v=0
149278 On ch=1 n=f#7 v=100
149326 On ch=1 n=f#7 v=0
149326 On ch=1 n=a#6 v=100
149374 On ch=1 n=a#6 v=0
149374 On ch=1 n=e7 v=100
149422 On ch=1 n=e7 v=0
149422 On ch=1 n=b6 v=100
149470 On ch=1 n=b6 v=0
149470 On ch=1 n=e8 v=100
149566 On ch=1 n=e8 v=0
149758 On ch=1 n=f#7 v=100
149854 On ch=1 n=f#7 v=0
149854 On ch=1 n=g7 v=100
149902 On ch=1 n=g7 v=0
149902 On ch=1 n=f#7 v=100
149950 On ch=1 n=f#7 v=0
149950 On ch=1 n=f7 v=100
149998 On ch=1 n=f7 v=0
149998 On ch=1 n=e7 v=100
150046 On ch=1 n=e7 v=0
150046 On ch=1 n=e7 v=100
150094 On ch=1 n=e7 v=0
150094 On ch=1 n=d7 v=100
150142 On ch=1 n=d7 v=0
150142 On ch=1 n=c#7 v=100
150190 On ch=1 n=c#7 v=0
150190 On ch=1 n=b6 v=100
150238 On ch=1 n=b6 v=0
150238 On ch=1 n=a6 v=100
150286 On ch=1 n=a6 v=0
150286 On ch=1 n=g6 v=100
150334 On ch=1 n=g6 v=0
150334 On ch=1 n=f#6 v=100
150382 On ch=1 n=f#6 v=0
150382 On ch=1 n=g6 v=100
150430 On ch=1 n=g6 v=0
150430 On ch=1 n=f6 v=100
150478 On ch=1 n=f6 v=0
150478 On ch=1 n=f#6 v=100
150526 On ch=1 n=f#6 v=0
150526 On ch=1 n=b6 v=100
150574 On ch=1 n=b6 v=0
150574 On ch=1 n=e6 v=100
150622 On ch=1 n=e6 v=0
150622 On ch=1 n=d6 v=100
150670 On ch=1 n=d6 v=0
150670 On ch=1 n=e6 v=100
150718 On ch=1 n=e6 v=0
150718 On ch=1 n=c#6 v=100
150766 On ch=1 n=c#6 v=0
150766 On ch=1 n=d6 v=100
150814 On ch=1 n=d6 v=0
150814 On ch=1 n=g6 v=100
150862 On ch=1 n=g6 v=0
150862 On ch=1 n=b5 v=100
150910 On ch=1 n=b5 v=0
150910 On ch=1 n=a#5 v=100
150958 On ch=1 n=a#5 v=0
150958 On ch=1 n=e6 v=100
151006 On ch=1 n=e6 v=0
151006 On ch=1 n=g#5 v=100
151054 On ch=1 n=g#5 v=0
151054 On ch=1 n=a5 v=100
151102 On ch=1 n=a5 v=0
151102 On ch=1 n=f#6 v=100
151150 On ch=1 n=f#6 v=0
151150 On ch=1 n=d6 v=100
151198 On ch=1 n=d6 v=0
151198 On ch=1 n=a#5 v=100
151246 On ch=1 n=a#5 v=0
151246 On ch=1 n=d6 v=100
151294 On ch=1 n=d6 v=0
151294 On ch=1 n=g#5 v=100
151342 On ch=1 n=g#5 v=0
151342 On ch=1 n=a5 v=100
151390 On ch=1 n=a5 v=0
151390 On ch=1 n=f#6 v=100
151438 On ch=1 n=f#6 v=0
151438 On ch=1 n=d6 v=100
151486 On ch=1 n=d6 v=0
151486 On ch=1 n=g#5 v=100
151534 On ch=1 n=g#5 v=0
151534 On ch=1 n=d6 v=100
151582 On ch=1 n=d6 v=0
151582 On ch=1 n=f#5 v=100
151630 On ch=1 n=f#5 v=0
151630 On ch=1 n=g5 v=100
151678 On ch=1 n=g5 v=0
151678 On ch=1 n=e6 v=100
151726 On ch=1 n=e6 v=0
151726 On ch=1 n=c#6 v=100
151774 On ch=1 n=c#6 v=0
151774 On ch=1 n=g5 v=100
151822 On ch=1 n=g5 v=0
151822 On ch=1 n=c#6 v=100
151870 On ch=1 n=c#6 v=0
151870 On ch=1 n=f5 v=100
151918 On ch=1 n=f5 v=0
151918 On ch=1 n=f#5 v=100
151966 On ch=1 n=f#5 v=0
151966 On ch=1 n=d6 v=100
152014 On ch=1 n=d6 v=0
152014 On ch=1 n=b5 v=100
152062 On ch=1 n=b5 v=0
152062 On ch=1 n=f#5 v=100
152110 On ch=1 n=f#5 v=0
152158 On ch=1 n=g5 v=100
152206 On ch=1 n=g5 v=0
152206 On ch=1 n=f#5 v=100
152254 On ch=1 n=f#5 v=0
152254 On ch=1 n=f5 v=100
152302 On ch=1 n=f5 v=0
152302 On ch=1 n=e5 v=100
152350 On ch=1 n=e5 v=0
152350 On ch=1 n=e5 v=100
152398 On ch=1 n=e5 v=0
152398 On ch=1 n=d5 v=100
152446 On ch=1 n=d5 v=0
152446 On ch=1 n=c#5 v=100
152494 On ch=1 n=c#5 v=0
152494 On ch=1 n=b4 v=100
152542 On ch=1 n=b4 v=0
152542 On ch=1 n=a4 v=100
152590 On ch=1 n=a4 v=0
152590 On ch=1 n=g4 v=100
152638 On ch=1 n=g4 v=0
152638 On ch=1 n=f#4 v=100
152686 On ch=1 n=f#4 v=0
152686 On ch=1 n=g4 v=100
152734 On ch=1 n=g4 v=0
152734 On ch=1 n=f4 v=100
152782 On ch=1 n=f4 v=0
152782 On ch=1 n=f#4 v=100
152830 On ch=1 n=f#4 v=0
152830 On ch=1 n=b4 v=100
152878 On ch=1 n=b4 v=0
152878 On ch=1 n=e4 v=100
152926 On ch=1 n=e4 v=0
152926 On ch=1 n=d4 v=100
152974 On ch=1 n=d4 v=0
152974 On ch=1 n=e4 v=100
153022 On ch=1 n=e4 v=0
153022 On ch=1 n=c#4 v=100
153070 On ch=1 n=c#4 v=0
153070 On ch=1 n=d4 v=100
153118 On ch=1 n=d4 v=0
153118 On ch=1 n=g4 v=100
153166 On ch=1 n=g4 v=0
153166 On ch=1 n=b3 v=100
153214 On ch=1 n=b3 v=0
153214 On ch=1 n=a#3 v=100
153262 On ch=1 n=a#3 v=0
153262 On ch=1 n=c#4 v=100
153310 On ch=1 n=c#4 v=0
153310 On ch=1 n=e4 v=100
153358 On ch=1 n=e4 v=0
153358 On ch=1 n=g4 v=100
153406 On ch=1 n=g4 v=0
153406 On ch=1 n=a#4 v=100
153454 On ch=1 n=a#4 v=0
153454 On ch=1 n=c#5 v=100
153502 On ch=1 n=c#5 v=0
153502 On ch=1 n=d#5 v=100
153550 On ch=1 n=d#5 v=0
153550 On ch=1 n=e5 v=100
153598 On ch=1 n=e5 v=0
153598 On ch=1 n=f5 v=100
153646 On ch=1 n=f5 v=0
153646 On ch=1 n=f#5 v=100
153694 On ch=1 n=f#5 v=0
153694 On ch=1 n=g5 v=100
153742 On ch=1 n=g5 v=0
153742 On ch=1 n=d5 v=100
153790 On ch=1 n=d5 v=0
153790 On ch=1 n=c#5 v=100
153838 On ch=1 n=c#5 v=0
153838 On ch=1 n=e5 v=100
153886 On ch=1 n=e5 v=0
153886 On ch=1 n=c#6 v=100
153886 On ch=1 n=e6 v=100
153934 On ch=1 n=e6 v=0
153934 On ch=1 n=c#6 v=0
153934 On ch=1 n=a#5 v=100
153982 On ch=1 n=a#5 v=0
153982 On ch=1 n=g5 v=100
154030 On ch=1 n=g5 v=0
154030 On ch=1 n=f5 v=100
154078 On ch=1 n=f5 v=0
154078 On ch=1 n=e5 v=100
154126 On ch=1 n=e5 v=0
154126 On ch=1 n=d#5 v=100
154174 On ch=1 n=d#5 v=0
154174 On ch=1 n=d5 v=100
154222 On ch=1 n=d5 v=0
154222 On ch=1 n=c#5 v=100
154270 On ch=1 n=c#5 v=0
154270 On ch=1 n=c5 v=100
154318 On ch=1 n=c5 v=0
154318 On ch=1 n=b4 v=100
154366 On ch=1 n=b4 v=0
154366 On ch=1 n=a#4 v=100
154414 On ch=1 n=a#4 v=0
154414 On ch=1 n=c#5 v=100
154462 On ch=1 n=c#5 v=0
154462 On ch=1 n=e5 v=100
154510 On ch=1 n=e5 v=0
154510 On ch=1 n=g5 v=100
154558 On ch=1 n=g5 v=0
154558 On ch=1 n=a#5 v=100
154606 On ch=1 n=a#5 v=0
154606 On ch=1 n=c#6 v=100
154654 On ch=1 n=c#6 v=0
154654 On ch=1 n=d#6 v=100
154702 On ch=1 n=d#6 v=0
154702 On ch=1 n=e6 v=100
154750 On ch=1 n=e6 v=0
154750 On ch=1 n=f6 v=100
154798 On ch=1 n=f6 v=0
154798 On ch=1 n=f#6 v=100
154846 On ch=1 n=f#6 v=0
154846 On ch=1 n=g6 v=100
154894 On ch=1 n=g6 v=0
154894 On ch=1 n=d6 v=100
154942 On ch=1 n=d6 v=0
154942 On ch=1 n=c#6 v=100
154990 On ch=1 n=c#6 v=0
155038 On ch=1 n=a#5 v=100
155038 On ch=1 n=e6 v=100
155038 On ch=1 n=g6 v=100
155038 On ch=1 n=a#6 v=100
155134 On ch=1 n=a#6 v=0
155134 On ch=1 n=g6 v=0
155134 On ch=1 n=e6 v=0
155134 On ch=1 n=a#5 v=0
155134 On ch=1 n=b5 v=100
155134 On ch=1 n=e6 v=100
155134 On ch=1 n=g6 v=100
155134 On ch=1 n=b6 v=100
155230 On ch=1 n=b6 v=0
155230 On ch=1 n=g6 v=0
155230 On ch=1 n=e6 v=0
155230 On ch=1 n=b5 v=0
155230 On ch=1 n=c#6 v=100
155230 On ch=1 n=e6 v=100
155230 On ch=1 n=g6 v=100
155230 On ch=1 n=c#7 v=100
155232 Tempo 166666
155326 On ch=1 n=c#7 v=0
155326 On ch=1 n=g6 v=0
155326 On ch=1 n=e6 v=0
155326 On ch=1 n=c#6 v=0
155520 Tempo 250000
155902 On ch=1 n=d5 v=100
155902 On ch=1 n=g5 v=100
155902 On ch=1 n=d6 v=100
155998 On ch=1 n=d6 v=0
155998 On ch=1 n=g5 v=0
155998 On ch=1 n=d5 v=0
155998 On ch=1 n=g4 v=100
155998 On ch=1 n=d5 v=100
155998 On ch=1 n=g5 v=100
156094 On ch=1 n=g5 v=0
156094 On ch=1 n=d5 v=0
156094 On ch=1 n=g4 v=0
156094 On ch=1 n=f#5 v=100
156094 On ch=1 n=c#5 v=100
156094 On ch=1 n=g4 v=100
156190 On ch=1 n=f#5 v=0
156190 On ch=1 n=e5 v=100
156286 On ch=1 n=g4 v=0
156286 On ch=1 n=c#5 v=0
156286 On ch=1 n=e5 v=0
156862 On ch=1 n=e5 v=100
156862 On ch=1 n=g5 v=100
156862 On ch=1 n=e6 v=100
156960 On ch=1 n=e6 v=0
156960 On ch=1 n=g5 v=0
156960 On ch=1 n=e5 v=0
156960 On ch=1 n=d#5 v=100
156960 On ch=1 n=g5 v=100
156960 On ch=1 n=d#6 v=100
157054 On ch=1 n=d5 v=100
157054 On ch=1 n=g5 v=100
157054 On ch=1 n=d6 v=100
157056 On ch=1 n=g5 v=0
157056 On ch=1 n=d#6 v=0
157056 On ch=1 n=g5 v=0
157056 On ch=1 n=d#5 v=0
157150 On ch=1 n=d6 v=0
157150 On ch=1 n=d5 v=0
157150 On ch=1 n=g4 v=100
157150 On ch=1 n=d5 v=100
157150 On ch=1 n=g5 v=100
157246 On ch=1 n=g5 v=0
157246 On ch=1 n=d5 v=0
157246 On ch=1 n=g4 v=0
157246 On ch=1 n=f#5 v=100
157246 On ch=1 n=c#5 v=100
157246 On ch=1 n=g4 v=100
157438 On ch=1 n=f#5 v=0
157438 On ch=1 n=e5 v=100
157822 On ch=1 n=g4 v=0
157822 On ch=1 n=c#5 v=0
157822 On ch=1 n=e5 v=0
157822 On ch=1 n=e5 v=100
157822 On ch=1 n=b4 v=100
157822 On ch=1 n=f#4 v=100
157918 On ch=1 n=e5 v=0
157918 On ch=1 n=d5 v=100
158014 On ch=1 n=f#4 v=0
158014 On ch=1 n=b4 v=0
158014 On ch=1 n=d5 v=0
158112 Tempo 284360
158398 On ch=1 n=e5 v=100
158398 On ch=1 n=b4 v=100
158398 On ch=1 n=f#4 v=100
158494 On ch=1 n=e5 v=0
158494 On ch=1 n=d5 v=100
158590 On ch=1 n=f#4 v=0
158590 On ch=1 n=b4 v=0
158590 On ch=1 n=d5 v=0
158688 Tempo 315789
158974 On ch=1 n=d5 v=100
158974 On ch=1 n=b4 v=100
158974 On ch=1 n=g4 v=100
159166 On ch=1 n=d5 v=0
159166 On ch=1 n=c#5 v=100
159262 On ch=1 n=g4 v=0
159262 On ch=1 n=b4 v=0
159262 On ch=1 n=c#5 v=0
159262 On ch=1 n=e6 v=100
159262 On ch=1 n=e6 v=100
159838 On ch=1 n=e6 v=0
159838 On ch=1 n=e6 v=0
159838 On ch=1 n=d6 v=100
159934 On ch=1 n=d6 v=0
159934 On ch=1 n=c#6 v=100
160030 On ch=1 n=c#6 v=0
160030 On ch=1 n=b5 v=100
160126 On ch=1 n=b5 v=0
160126 On ch=1 n=c#6 v=100
160366 On ch=1 n=e5 v=100
160366 On ch=1 n=b5 v=100
160367 Par ch=1 c=64 v=127
160414 On ch=1 n=b5 v=0
160414 On ch=1 n=e5 v=0
160414 On ch=1 n=c#6 v=0
160414 On ch=1 n=e6 v=100
160414 On ch=1 n=e6 v=100
160990 On ch=1 n=e6 v=0
160990 On ch=1 n=e6 v=0
160990 On ch=1 n=d6 v=100
160992 Par ch=1 c=64 v=0
161086 On ch=1 n=d6 v=0
161086 On ch=1 n=c#6 v=100
161182 On ch=1 n=c#6 v=0
161182 On ch=1 n=b5 v=100
161278 On ch=1 n=b5 v=0
161280 On ch=1 n=c#6 v=100
161519 Par ch=1 c=64 v=127
161520 On ch=1 n=e5 v=100
161520 On ch=1 n=b5 v=100
161568 On ch=1 n=e5 v=0
161568 On ch=1 n=c#6 v=0
161568 On ch=1 n=e6 v=100
161856 On ch=1 n=e6 v=0
161856 On ch=1 n=c#6 v=100
161952 Par ch=1 c=64 v=0
162095 Par ch=1 c=64 v=127
162096 On ch=1 n=f5 v=100
162096 On ch=1 n=b5 v=100
162144 On ch=1 n=b5 v=0
162144 On ch=1 n=b5 v=0
162144 On ch=1 n=f5 v=0
162144 On ch=1 n=c#6 v=0
162144 On ch=1 n=f6 v=100
162432 On ch=1 n=f6 v=0
162432 On ch=1 n=c#6 v=100
162528 Par ch=1 c=64 v=0
162671 Par ch=1 c=64 v=127
162672 On ch=1 n=f#5 v=100
162672 On ch=1 n=b5 v=100
162720 On ch=1 n=b5 v=0
162720 On ch=1 n=f#5 v=0
162720 On ch=1 n=c#6 v=0
162720 On ch=1 n=f#6 v=100
163008 On ch=1 n=f#6 v=0
163008 Par ch=1 c=64 v=127
163008 On ch=1 n=g5 v=100
163008 On ch=1 n=a#5 v=100
163008 On ch=1 n=e6 v=100
163008 On ch=1 n=g6 v=100
163104 On ch=1 n=g6 v=0
163104 On ch=1 n=e6 v=0
163104 On ch=1 n=a#5 v=0
163104 On ch=1 n=g5 v=0
163200 Par ch=1 c=64 v=0
163296 Par ch=1 c=64 v=127
163296 On ch=1 n=a#4 v=100
163296 On ch=1 n=e5 v=100
163296 On ch=1 n=a#5 v=100
163392 On ch=1 n=a#5 v=0
163392 On ch=1 n=e5 v=0
163392 On ch=1 n=a#4 v=0
163488 Par ch=1 c=64 v=0
163584 Tempo 166666
163584 Par ch=1 c=64 v=127
163776 Par ch=1 c=64 v=0
163872 Par ch=1 c=64 v=127
163872 On ch=1 n=c#4 v=100
163920 On ch=1 n=c#4 v=0
163920 On ch=1 n=d4 v=100
163968 On ch=1 n=d4 v=0
163968 On ch=1 n=d5 v=100
164016 On ch=1 n=d5 v=0
164016 On ch=1 n=f#4 v=100
164064 On ch=1 n=f#4 v=0
164064 On ch=1 n=b4 v=100
164112 On ch=1 n=b4 v=0
164112 On ch=1 n=d4 v=100
164160 On ch=1 n=d4 v=0
164160 Par ch=1 c=64 v=127
164160 On ch=1 n=d#4 v=100
164208 On ch=1 n=d#4 v=0
164208 On ch=1 n=e4 v=100
164256 On ch=1 n=e4 v=0
164256 On ch=1 n=e5 v=100
164304 On ch=1 n=e5 v=0
164304 On ch=1 n=g4 v=100
164352 On ch=1 n=g4 v=0
164352 On ch=1 n=b4 v=100
164400 On ch=1 n=b4 v=0
164400 On ch=1 n=e4 v=100
164448 On ch=1 n=e4 v=0
164448 Par ch=1 c=64 v=127
164448 On ch=1 n=f4 v=100
164496 On ch=1 n=f4 v=0
164496 On ch=1 n=f#4 v=100
164544 On ch=1 n=f#4 v=0
164544 On ch=1 n=f#5 v=100
164592 On ch=1 n=f#5 v=0
164592 On ch=1 n=a#4 v=100
164640 On ch=1 n=a#4 v=0
164640 On ch=1 n=c#5 v=100
164688 On ch=1 n=c#5 v=0
164688 On ch=1 n=f#4 v=100
164736 On ch=1 n=f#4 v=0
164736 Par ch=1 c=64 v=127
164736 On ch=1 n=a#4 v=100
164784 On ch=1 n=a#4 v=0
164784 On ch=1 n=b4 v=100
164832 On ch=1 n=b4 v=0
164832 On ch=1 n=b5 v=100
164880 On ch=1 n=b5 v=0
164880 On ch=1 n=d5 v=100
164928 On ch=1 n=d5 v=0
164928 On ch=1 n=f#5 v=100
164976 On ch=1 n=f#5 v=0
164976 On ch=1 n=b4 v=100
165024 On ch=1 n=b4 v=0
165024 Par ch=1 c=64 v=127
165024 On ch=1 n=c#5 v=100
165072 On ch=1 n=c#5 v=0
165072 On ch=1 n=d5 v=100
165120 On ch=1 n=d5 v=0
165120 On ch=1 n=d6 v=100
165168 On ch=1 n=d6 v=0
165168 On ch=1 n=f#5 v=100
165216 On ch=1 n=f#5 v=0
165216 On ch=1 n=b5 v=100
165264 On ch=1 n=b5 v=0
165264 On ch=1 n=d5 v=100
165312 On ch=1 n=d5 v=0
165312 Par ch=1 c=64 v=127
165312 On ch=1 n=d#5 v=100
165360 On ch=1 n=d#5 v=0
165360 On ch=1 n=e5 v=100
165408 On ch=1 n=e5 v=0
165408 On ch=1 n=e6 v=100
165456 On ch=1 n=e6 v=0
165456 On ch=1 n=g5 v=100
165504 On ch=1 n=g5 v=0
165504 On ch=1 n=b5 v=100
165552 On ch=1 n=b5 v=0
165552 On ch=1 n=e5 v=100
165600 On ch=1 n=e5 v=0
165600 Par ch=1 c=64 v=127
165600 On ch=1 n=f5 v=100
165648 On ch=1 n=f5 v=0
165648 On ch=1 n=f#5 v=100
165696 On ch=1 n=f#5 v=0
165696 On ch=1 n=f#6 v=100
165744 On ch=1 n=f#6 v=0
165744 On ch=1 n=a#5 v=100
165792 On ch=1 n=a#5 v=0
165792 On ch=1 n=c#6 v=100
165840 On ch=1 n=c#6 v=0
165840 On ch=1 n=f#5 v=100
165888 On ch=1 n=f#5 v=0
165888 Par ch=1 c=64 v=127
165888 On ch=1 n=a#5 v=100
165936 On ch=1 n=a#5 v=0
165936 On ch=1 n=b5 v=100
165984 On ch=1 n=b5 v=0
165984 On ch=1 n=b6 v=100
166032 On ch=1 n=b6 v=0
166032 On ch=1 n=d6 v=100
166080 On ch=1 n=d6 v=0
166080 On ch=1 n=f#6 v=100
166128 On ch=1 n=f#6 v=0
166128 On ch=1 n=b5 v=100
166176 On ch=1 n=b5 v=0
166176 Par ch=1 c=64 v=127
166176 On ch=1 n=c#6 v=100
166224 On ch=1 n=c#6 v=0
166224 On ch=1 n=d6 v=100
166272 On ch=1 n=d6 v=0
166272 On ch=1 n=d7 v=100
166320 On ch=1 n=d7 v=0
166320 On ch=1 n=f#6 v=100
166368 On ch=1 n=f#6 v=0
166368 On ch=1 n=b6 v=100
166416 On ch=1 n=b6 v=0
166416 On ch=1 n=d6 v=100
166464 On ch=1 n=d6 v=0
166464 Par ch=1 c=64 v=127
166464 On ch=1 n=d#6 v=100
166512 On ch=1 n=d#6 v=0
166512 On ch=1 n=e6 v=100
166560 On ch=1 n=e6 v=0
166560 On ch=1 n=e7 v=100
166608 On ch=1 n=e7 v=0
166608 On ch=1 n=g6 v=100
166656 On ch=1 n=g6 v=0
166656 On ch=1 n=b6 v=100
166704 On ch=1 n=b6 v=0
166704 On ch=1 n=e6 v=100
166752 On ch=1 n=e6 v=0
166752 Par ch=1 c=64 v=127
166752 On ch=1 n=f6 v=100
166800 On ch=1 n=f6 v=0
166800 On ch=1 n=f#6 v=100
166848 On ch=1 n=f#6 v=0
166848 On ch=1 n=f#7 v=100
166896 On ch=1 n=f#7 v=0
166896 On ch=1 n=a#6 v=100
166944 On ch=1 n=a#6 v=0
166944 On ch=1 n=c#7 v=100
166992 On ch=1 n=c#7 v=0
166992 On ch=1 n=f#6 v=100
167040 On ch=1 n=f#6 v=0
167040 Par ch=1 c=64 v=127
167040 On ch=1 n=a#6 v=100
167088 On ch=1 n=a#6 v=0
167088 On ch=1 n=b6 v=100
167136 On ch=1 n=b6 v=0
167136 On ch=1 n=b7 v=100
167184 On ch=1 n=b7 v=0
167184 On ch=1 n=d7 v=100
167232 On ch=1 n=d7 v=0
167232 On ch=1 n=f#7 v=100
167280 On ch=1 n=f#7 v=0
167280 On ch=1 n=b6 v=100
167328 On ch=1 n=b6 v=0
167328 On ch=1 n=a#6 v=100
167376 On ch=1 n=a#6 v=0
167376 On ch=1 n=b6 v=100
167424 On ch=1 n=b6 v=0
167424 On ch=1 n=b7 v=100
167472 On ch=1 n=b7 v=0
167472 On ch=1 n=d7 v=100
167520 On ch=1 n=d7 v=0
167520 On ch=1 n=f#7 v=100
167568 On ch=1 n=f#7 v=0
167568 On ch=1 n=b6 v=100
167616 On ch=1 n=b6 v=0
167616 On ch=1 n=a#6 v=100
167664 On ch=1 n=a#6 v=0
167664 On ch=1 n=b6 v=100
167712 On ch=1 n=b6 v=0
167712 On ch=1 n=b7 v=100
167760 On ch=1 n=b7 v=0
167760 On ch=1 n=d7 v=100
167808 On ch=1 n=d7 v=0
167808 On ch=1 n=f#7 v=100
167856 On ch=1 n=f#7 v=0
167856 On ch=1 n=b6 v=100
167904 On ch=1 n=b6 v=0
167904 On ch=1 n=a#6 v=100
167952 On ch=1 n=a#6 v=0
167952 On ch=1 n=b6 v=100
168000 On ch=1 n=b6 v=0
168000 On ch=1 n=b7 v=100
168048 On ch=1 n=b7 v=0
168048 On ch=1 n=d7 v=100
168096 On ch=1 n=d7 v=0
168096 On ch=1 n=f#7 v=100
168144 On ch=1 n=f#7 v=0
168144 On ch=1 n=b6 v=100
168192 On ch=1 n=b6 v=0
168192 Par ch=1 c=64 v=127
168192 On ch=1 n=a#6 v=100
168240 On ch=1 n=a#6 v=0
168240 On ch=1 n=b6 v=100
168288 On ch=1 n=b6 v=0
168288 On ch=1 n=b7 v=100
168336 On ch=1 n=b7 v=0
168336 On ch=1 n=g#7 v=100
168384 On ch=1 n=g#7 v=0
168384 On ch=1 n=f7 v=100
168432 On ch=1 n=f7 v=0
168432 On ch=1 n=c#7 v=100
168480 On ch=1 n=c#7 v=0
168480 On ch=1 n=b6 v=100
168528 On ch=1 n=b6 v=0
168528 On ch=1 n=g#6 v=100
168576 On ch=1 n=g#6 v=0
168576 On ch=1 n=f6 v=100
168624 On ch=1 n=f6 v=0
168624 On ch=1 n=c#6 v=100
168672 On ch=1 n=c#6 v=0
168672 On ch=1 n=b6 v=100
168720 On ch=1 n=b6 v=0
168720 On ch=1 n=g#6 v=100
168768 On ch=1 n=g#6 v=0
168768 On ch=1 n=f6 v=100
168816 On ch=1 n=f6 v=0
168816 On ch=1 n=c#6 v=100
168864 On ch=1 n=c#6 v=0
168864 On ch=1 n=b5 v=100
168912 On ch=1 n=b5 v=0
168912 On ch=1 n=g#5 v=100
168960 On ch=1 n=g#5 v=0
168960 On ch=1 n=f5 v=100
169008 On ch=1 n=f5 v=0
169008 On ch=1 n=c#5 v=100
169056 On ch=1 n=c#5 v=0
169343 Par ch=1 c=64 v=0
170496 Par ch=1 c=64 v=127
170784 On ch=1 n=f6 v=100
170784 On ch=1 n=g6 v=100
170784 On ch=1 n=b6 v=100
170784 On ch=1 n=d7 v=100
170784 On ch=1 n=g7 v=100
171168 On ch=1 n=g7 v=0
171168 On ch=1 n=d7 v=0
171168 On ch=1 n=b6 v=0
171168 On ch=1 n=g6 v=0
171168 On ch=1 n=f6 v=0
171168 On ch=1 n=f6 v=100
171168 On ch=1 n=g6 v=100
171168 On ch=1 n=b6 v=100
171168 On ch=1 n=d7 v=100
171168 On ch=1 n=g7 v=100
171264 On ch=1 n=g7 v=0
171264 On ch=1 n=d7 v=0
171264 On ch=1 n=b6 v=0
171264 On ch=1 n=g6 v=0
171264 On ch=1 n=f6 v=0
171264 On ch=1 n=f6 v=100
171264 On ch=1 n=g6 v=100
171264 On ch=1 n=b6 v=100
171264 On ch=1 n=d7 v=100
171264 On ch=1 n=g7 v=100
171360 On ch=1 n=g7 v=0
171360 On ch=1 n=d7 v=0
171360 On ch=1 n=b6 v=0
171360 On ch=1 n=g6 v=0
171360 On ch=1 n=f6 v=0
171360 On ch=1 n=f6 v=100
171360 On ch=1 n=g6 v=100
171360 On ch=1 n=b6 v=100
171360 On ch=1 n=d7 v=100
171360 On ch=1 n=g7 v=100
171456 On ch=1 n=g7 v=0
171456 On ch=1 n=d7 v=0
171456 On ch=1 n=b6 v=0
171456 On ch=1 n=g6 v=0
171456 On ch=1 n=f6 v=0
171456 On ch=1 n=f6 v=100
171456 On ch=1 n=g6 v=100
171456 On ch=1 n=b6 v=100
171456 On ch=1 n=d7 v=100
171456 On ch=1 n=g7 v=100
171552 On ch=1 n=g7 v=0
171552 On ch=1 n=d7 v=0
171552 On ch=1 n=b6 v=0
171552 On ch=1 n=g6 v=0
171552 On ch=1 n=f6 v=0
171552 On ch=1 n=f6 v=100
171552 On ch=1 n=g6 v=100
171552 On ch=1 n=b6 v=100
171552 On ch=1 n=d7 v=100
171552 On ch=1 n=g7 v=100
171648 On ch=1 n=g7 v=0
171648 On ch=1 n=d7 v=0
171648 On ch=1 n=b6 v=0
171648 On ch=1 n=g6 v=0
171648 On ch=1 n=f6 v=0
171648 On ch=1 n=f6 v=100
171648 On ch=1 n=g6 v=100
171648 On ch=1 n=b6 v=100
171648 On ch=1 n=d7 v=100
171648 On ch=1 n=g7 v=100
171936 On ch=1 n=g7 v=0
171936 On ch=1 n=d7 v=0
171936 On ch=1 n=b6 v=0
171936 On ch=1 n=g6 v=0
171936 On ch=1 n=f6 v=0
171936 On ch=1 n=f6 v=100
171936 On ch=1 n=g6 v=100
171936 On ch=1 n=b6 v=100
171936 On ch=1 n=d7 v=100
171936 On ch=1 n=g7 v=100
172224 On ch=1 n=g7 v=0
172224 On ch=1 n=d7 v=0
172224 On ch=1 n=b6 v=0
172224 On ch=1 n=g6 v=0
172224 On ch=1 n=f6 v=0
172224 On ch=1 n=f6 v=100
172224 On ch=1 n=g6 v=100
172224 On ch=1 n=b6 v=100
172224 On ch=1 n=d7 v=100
172224 On ch=1 n=g7 v=100
172512 On ch=1 n=g7 v=0
172512 On ch=1 n=d7 v=0
172512 On ch=1 n=b6 v=0
172512 On ch=1 n=g6 v=0
172512 On ch=1 n=f6 v=0
172512 On ch=1 n=a#6 v=100
172512 On ch=1 n=e7 v=100
172512 On ch=1 n=f#7 v=100
172512 On ch=1 n=a#7 v=100
172704 On ch=1 n=a#7 v=0
172704 On ch=1 n=f#7 v=0
172704 On ch=1 n=e7 v=0
172704 On ch=1 n=a#6 v=0
172704 Par ch=1 c=64 v=0
172800 Par ch=1 c=64 v=127
172800 On ch=1 n=b6 v=100
172800 On ch=1 n=d7 v=100
172800 On ch=1 n=b7 v=100
172896 On ch=1 n=b7 v=0
172896 On ch=1 n=d7 v=0
172896 On ch=1 n=b6 v=0
172896 On ch=1 n=b7 v=100
172896 On ch=1 n=d8 v=100
172944 On ch=1 n=d8 v=0
172944 On ch=1 n=b7 v=0
172944 On ch=1 n=f#7 v=100
172992 On ch=1 n=f#7 v=0
172992 On ch=1 n=b7 v=100
172992 On ch=1 n=d8 v=100
173040 On ch=1 n=d8 v=0
173040 On ch=1 n=b7 v=0
173040 On ch=1 n=c#7 v=100
173088 On ch=1 n=c#7 v=0
173088 On ch=1 n=f#7 v=100
173088 On ch=1 n=b7 v=100
173136 On ch=1 n=b7 v=0
173136 On ch=1 n=f#7 v=0
173136 On ch=1 n=d7 v=100
173184 On ch=1 n=d7 v=0
173184 On ch=1 n=f#7 v=100
173184 On ch=1 n=b7 v=100
173232 On ch=1 n=b7 v=0
173232 On ch=1 n=f#7 v=0
173232 On ch=1 n=a#6 v=100
173280 On ch=1 n=a#6 v=0
173280 On ch=1 n=d7 v=100
173280 On ch=1 n=f#7 v=100
173328 On ch=1 n=f#7 v=0
173328 On ch=1 n=d7 v=0
173328 On ch=1 n=b6 v=100
173376 On ch=1 n=b6 v=0
173376 Par ch=1 c=64 v=0
173376 On ch=1 n=d7 v=100
173376 On ch=1 n=f#7 v=100
173424 On ch=1 n=f#7 v=0
173424 On ch=1 n=d7 v=0
173424 On ch=1 n=f6 v=100
173472 On ch=1 n=f6 v=0
173472 On ch=1 n=b6 v=100
173472 On ch=1 n=d7 v=100
173520 On ch=1 n=d7 v=0
173520 On ch=1 n=b6 v=0
173520 On ch=1 n=f#6 v=100
173568 On ch=1 n=f#6 v=0
173568 On ch=1 n=b6 v=100
173568 On ch=1 n=d7 v=100
173616 On ch=1 n=d7 v=0
173616 On ch=1 n=b6 v=0
173616 On ch=1 n=c#6 v=100
173664 On ch=1 n=c#6 v=0
173664 On ch=1 n=f#6 v=100
173664 On ch=1 n=b6 v=100
173712 On ch=1 n=b6 v=0
173712 On ch=1 n=f#6 v=0
173712 On ch=1 n=d6 v=100
173760 On ch=1 n=d6 v=0
173760 On ch=1 n=f#6 v=100
173760 On ch=1 n=b6 v=100
173808 On ch=1 n=b6 v=0
173808 On ch=1 n=f#6 v=0
173808 On ch=1 n=a#5 v=100
173856 On ch=1 n=a#5 v=0
173856 On ch=1 n=d6 v=100
173856 On ch=1 n=f#6 v=100
173904 On ch=1 n=f#6 v=0
173904 On ch=1 n=d6 v=0
173904 On ch=1 n=b5 v=100
173952 On ch=1 n=b5 v=0
173952 On ch=1 n=d6 v=100
173952 On ch=1 n=f#6 v=100
174000 On ch=1 n=f#6 v=0
174000 On ch=1 n=d6 v=0
174000 On ch=1 n=f5 v=100
174048 On ch=1 n=f5 v=0
174048 On ch=1 n=b5 v=100
174048 On ch=1 n=d6 v=100
174096 On ch=1 n=d6 v=0
174096 On ch=1 n=b5 v=0
174096 On ch=1 n=f#5 v=100
174144 On ch=1 n=f#5 v=0
174144 On ch=1 n=b5 v=100
174144 On ch=1 n=d6 v=100
174192 On ch=1 n=d6 v=0
174192 On ch=1 n=b5 v=0
174192 On ch=1 n=c#5 v=100
174240 On ch=1 n=c#5 v=0
174240 On ch=1 n=f#5 v=100
174240 On ch=1 n=b5 v=100
174288 On ch=1 n=b5 v=0
174288 On ch=1 n=f#5 v=0
174288 On ch=1 n=d5 v=100
174336 On ch=1 n=d5 v=0
174336 On ch=1 n=f#5 v=100
174336 On ch=1 n=b5 v=100
174384 On ch=1 n=b5 v=0
174384 On ch=1 n=f#5 v=0
174384 On ch=1 n=a#4 v=100
174432 On ch=1 n=a#4 v=0
174432 On ch=1 n=d5 v=100
174432 On ch=1 n=f#5 v=100
174480 On ch=1 n=f#5 v=0
174480 On ch=1 n=d5 v=0
174480 On ch=1 n=b4 v=100
174528 On ch=1 n=b4 v=0
174528 On ch=1 n=d5 v=100
174528 On ch=1 n=f#5 v=100
174576 On ch=1 n=f#5 v=0
174576 On ch=1 n=d5 v=0
174576 On ch=1 n=b4 v=100
174624 On ch=1 n=b4 v=0
174624 On ch=1 n=d5 v=100
174624 On ch=1 n=f#5 v=100
174672 On ch=1 n=f#5 v=0
174672 On ch=1 n=d5 v=0
174672 On ch=1 n=f4 v=100
174720 On ch=1 n=f4 v=0
174720 On ch=1 n=d5 v=100
174720 On ch=1 n=f#5 v=100
174768 On ch=1 n=f#5 v=0
174768 On ch=1 n=d5 v=0
174768 On ch=1 n=f#4 v=100
174816 On ch=1 n=f#4 v=0
174816 On ch=1 n=d5 v=100
174816 On ch=1 n=f#5 v=100
174864 On ch=1 n=f#5 v=0
174864 On ch=1 n=d5 v=0
174864 On ch=1 n=b4 v=100
174912 On ch=1 n=b4 v=0
174912 On ch=1 n=d5 v=100
174912 On ch=1 n=f#5 v=100
174960 On ch=1 n=f#5 v=0
174960 On ch=1 n=d5 v=0
174960 On ch=1 n=f4 v=100
175008 On ch=1 n=f4 v=0
175008 On ch=1 n=d5 v=100
175008 On ch=1 n=f#5 v=100
175056 On ch=1 n=f#5 v=0
175056 On ch=1 n=d5 v=0
175056 On ch=1 n=f#4 v=100
175104 On ch=1 n=f#4 v=0
175104 On ch=1 n=b4 v=100
175104 On ch=1 n=d5 v=100
175104 On ch=1 n=f#5 v=100
175152 On ch=1 n=f#5 v=0
175152 On ch=1 n=d5 v=0
175152 On ch=1 n=b4 v=0
175680 On ch=1 n=b4 v=100
175728 On ch=1 n=b4 v=0
175728 On ch=1 n=c5 v=100
175776 On ch=1 n=c5 v=0
175776 On ch=1 n=c#5 v=100
175824 On ch=1 n=c#5 v=0
175824 On ch=1 n=d5 v=100
175872 On ch=1 n=d5 v=0
175872 On ch=1 n=d#5 v=100
175920 On ch=1 n=d#5 v=0
175920 On ch=1 n=e5 v=100
175968 On ch=1 n=e5 v=0
175968 On ch=1 n=f5 v=100
176016 On ch=1 n=f5 v=0
176016 On ch=1 n=f#5 v=100
176064 On ch=1 n=f#5 v=0
176064 On ch=1 n=g5 v=100
176112 On ch=1 n=g5 v=0
176112 On ch=1 n=g#5 v=100
176160 On ch=1 n=g#5 v=0
176160 On ch=1 n=a5 v=100
176208 On ch=1 n=a5 v=0
176208 On ch=1 n=a#5 v=100
176256 On ch=1 n=a#5 v=0
176256 On ch=1 n=b5 v=100
176304 On ch=1 n=b5 v=0
176304 On ch=1 n=c6 v=100
176352 On ch=1 n=c6 v=0
176352 On ch=1 n=c#6 v=100
176400 On ch=1 n=c#6 v=0
176400 On ch=1 n=d6 v=100
176448 On ch=1 n=d6 v=0
176448 On ch=1 n=d#6 v=100
176496 On ch=1 n=d#6 v=0
176496 On ch=1 n=e6 v=100
176544 On ch=1 n=e6 v=0
176544 On ch=1 n=f6 v=100
176592 On ch=1 n=f6 v=0
176592 On ch=1 n=f#6 v=100
176640 On ch=1 n=f#6 v=0
176640 On ch=1 n=g6 v=100
176688 On ch=1 n=g6 v=0
176688 On ch=1 n=g#6 v=100
176736 On ch=1 n=g#6 v=0
176736 On ch=1 n=a6 v=100
176784 On ch=1 n=a6 v=0
176784 On ch=1 n=a#6 v=100
176832 On ch=1 n=a#6 v=0
176832 On ch=1 n=b6 v=100
176880 On ch=1 n=b6 v=0
176880 On ch=1 n=c7 v=100
176928 On ch=1 n=c7 v=0
176928 On ch=1 n=c#7 v=100
176976 On ch=1 n=c#7 v=0
176976 On ch=1 n=d7 v=100
177024 On ch=1 n=d7 v=0
177024 On ch=1 n=d#7 v=100
177072 On ch=1 n=d#7 v=0
177072 On ch=1 n=e7 v=100
177120 On ch=1 n=e7 v=0
177120 On ch=1 n=f7 v=100
177168 On ch=1 n=f7 v=0
177168 On ch=1 n=f#7 v=100
177216 On ch=1 n=f#7 v=0
177216 On ch=1 n=g7 v=100
177264 On ch=1 n=g7 v=0
177264 On ch=1 n=g#7 v=100
177312 On ch=1 n=g#7 v=0
177312 On ch=1 n=a7 v=100
177360 On ch=1 n=a7 v=0
177360 On ch=1 n=a#7 v=100
177408 On ch=1 n=a#7 v=0
177408 On ch=1 n=b7 v=100
177504 On ch=1 n=b7 v=0
177696 On ch=1 n=f#5 v=100
177696 On ch=1 n=a#5 v=100
177696 On ch=1 n=c#6 v=100
177696 On ch=1 n=f#6 v=100
177792 On ch=1 n=f#6 v=0
177792 On ch=1 n=c#6 v=0
177792 On ch=1 n=a#5 v=0
177792 On ch=1 n=f#5 v=0
177984 On ch=1 n=b4 v=100
177984 On ch=1 n=d5 v=100
177984 On ch=1 n=b5 v=100
177984 On ch=1 n=d6 v=100
178080 On ch=1 n=d6 v=0
178080 On ch=1 n=b5 v=0
178080 On ch=1 n=d5 v=0
178080 On ch=1 n=b4 v=0
178272 On ch=1 n=g4 v=100
178272 On ch=1 n=b4 v=100
178272 On ch=1 n=e5 v=100
178272 On ch=1 n=g5 v=100
178368 On ch=1 n=g5 v=0
178368 On ch=1 n=e5 v=0
178368 On ch=1 n=b4 v=0
178368 On ch=1 n=g4 v=0
178560 On ch=1 n=b4 v=100
178560 On ch=1 n=d5 v=100
178560 On ch=1 n=f#5 v=100
178560 On ch=1 n=b5 v=100
178656 On ch=1 n=b5 v=0
178656 On ch=1 n=f#5 v=0
178656 On ch=1 n=d5 v=0
178656 On ch=1 n=b4 v=0
179136 On ch=1 n=b5 v=112
179136 On ch=1 n=c#6 v=112
179136 On ch=1 n=e6 v=112
179136 On ch=1 n=b6 v=112
179712 On ch=1 n=b6 v=0
179712 On ch=1 n=e6 v=0
179712 On ch=1 n=c#6 v=0
179712 On ch=1 n=b5 v=0
179712 Tempo 666666
179712 On ch=1 n=b5 v=112
179712 On ch=1 n=d6 v=112
179712 On ch=1 n=f#6 v=112
179712 On ch=1 n=b6 v=112
180000 On ch=1 n=b6 v=0
180000 On ch=1 n=f#6 v=0
180000 On ch=1 n=d6 v=0
180000 On ch=1 n=b5 v=0
180000 Meta TrkEnd
TrkEnd
MTrk
0 Meta TrkName "(C) Neil Martinez"
0 Par ch=2 c=64 v=127
0 PrCh ch=2 p=0
0 On ch=2 n=g5 v=100
0 On ch=2 n=c#6 v=100
0 On ch=2 n=e6 v=100
0 On ch=2 n=g6 v=100
1152 On ch=2 n=g6 v=0
1152 On ch=2 n=e6 v=0
1152 On ch=2 n=c#6 v=0
1152 On ch=2 n=g5 v=0
1152 On ch=2 n=a#3 v=100
1152 On ch=2 n=a#2 v=100
1153 Par ch=2 c=64 v=127
2304 On ch=2 n=a#2 v=0
2304 On ch=2 n=a#3 v=0
2304 On ch=2 n=f3 v=100
2304 On ch=2 n=d4 v=100
2305 Par ch=2 c=64 v=0
2352 On ch=2 n=d4 v=0
2352 On ch=2 n=f3 v=0
2352 On ch=2 n=f#3 v=100
2400 On ch=2 n=f#3 v=0
2400 On ch=2 n=b2 v=100
2448 On ch=2 n=b2 v=0
2592 On ch=2 n=e4 v=100
2592 On ch=2 n=g4 v=100
2688 On ch=2 n=g4 v=0
2688 On ch=2 n=e4 v=0
2688 On ch=2 n=d4 v=100
2688 On ch=2 n=f#4 v=100
2784 On ch=2 n=f#4 v=0
2784 On ch=2 n=d4 v=0
2880 On ch=2 n=f3 v=100
2880 On ch=2 n=d4 v=100
2928 On ch=2 n=d4 v=0
2928 On ch=2 n=f3 v=0
2928 On ch=2 n=f#3 v=100
2976 On ch=2 n=f#3 v=0
2976 On ch=2 n=b2 v=100
3024 On ch=2 n=b2 v=0
3168 On ch=2 n=e4 v=100
3168 On ch=2 n=g4 v=100
3264 On ch=2 n=g4 v=0
3264 On ch=2 n=e4 v=0
3264 On ch=2 n=d4 v=100
3264 On ch=2 n=f#4 v=100
3360 On ch=2 n=f#4 v=0
3360 On ch=2 n=d4 v=0
3456 On ch=2 n=b3 v=100
3552 On ch=2 n=b3 v=0
3744 On ch=2 n=f#4 v=100
3744 On ch=2 n=d5 v=100
3840 On ch=2 n=d5 v=0
3840 On ch=2 n=f#4 v=0
3840 On ch=2 n=b3 v=100
3936 On ch=2 n=b3 v=0
3936 On ch=2 n=f#4 v=100
3936 On ch=2 n=d5 v=100
4032 On ch=2 n=d5 v=0
4032 On ch=2 n=f#4 v=0
4032 On ch=2 n=b3 v=100
4128 On ch=2 n=b3 v=0
4128 On ch=2 n=f#4 v=100
4128 On ch=2 n=d5 v=100
4224 On ch=2 n=d5 v=0
4224 On ch=2 n=f#4 v=0
4224 On ch=2 n=b3 v=100
4320 On ch=2 n=b3 v=0
4320 On ch=2 n=f#4 v=100
4320 On ch=2 n=d5 v=100
4416 On ch=2 n=d5 v=0
4416 On ch=2 n=f#4 v=0
4608 On ch=2 n=f#3 v=100
4608 On ch=2 n=e4 v=100
4656 On ch=2 n=e4 v=0
4656 On ch=2 n=f#3 v=0
4656 On ch=2 n=g3 v=100
4704 On ch=2 n=g3 v=0
4704 On ch=2 n=b2 v=100
4752 On ch=2 n=b2 v=0
4896 On ch=2 n=a4 v=100
4896 On ch=2 n=c5 v=100
4992 On ch=2 n=c5 v=0
4992 On ch=2 n=a4 v=0
4992 On ch=2 n=g4 v=100
4992 On ch=2 n=b4 v=100
5088 On ch=2 n=b4 v=0
5088 On ch=2 n=g4 v=0
5184 On ch=2 n=f#3 v=100
5184 On ch=2 n=e4 v=100
5232 On ch=2 n=e4 v=0
5232 On ch=2 n=f#3 v=0
5232 On ch=2 n=g3 v=100
5280 On ch=2 n=g3 v=0
5280 On ch=2 n=b2 v=100
5328 On ch=2 n=b2 v=0
5472 On ch=2 n=a4 v=100
5472 On ch=2 n=c5 v=100
5568 On ch=2 n=c5 v=0
5568 On ch=2 n=a4 v=0
5568 On ch=2 n=g4 v=100
5568 On ch=2 n=b4 v=100
5664 On ch=2 n=b4 v=0
5664 On ch=2 n=g4 v=0
5760 On ch=2 n=b3 v=100
5856 On ch=2 n=b3 v=0
6048 On ch=2 n=g4 v=100
6048 On ch=2 n=e5 v=100
6144 On ch=2 n=e5 v=0
6144 On ch=2 n=g4 v=0
6144 On ch=2 n=b3 v=100
6240 On ch=2 n=b3 v=0
6240 On ch=2 n=g4 v=100
6240 On ch=2 n=e5 v=100
6336 On ch=2 n=e5 v=0
6336 On ch=2 n=g4 v=0
6336 On ch=2 n=b3 v=100
6432 On ch=2 n=b3 v=0
6432 On ch=2 n=g4 v=100
6432 On ch=2 n=e5 v=100
6528 On ch=2 n=e5 v=0
6528 On ch=2 n=g4 v=0
6528 On ch=2 n=b3 v=100
6624 On ch=2 n=b3 v=0
6624 On ch=2 n=g4 v=100
6624 On ch=2 n=e5 v=100
6720 On ch=2 n=e5 v=0
6720 On ch=2 n=g4 v=0
6912 On ch=2 n=a#5 v=100
6912 On ch=2 n=c#6 v=100
6912 On ch=2 n=e6 v=100
6912 On ch=2 n=f#6 v=100
7008 On ch=2 n=f#6 v=0
7008 On ch=2 n=g6 v=100
7200 On ch=2 n=g6 v=0
7200 On ch=2 n=e6 v=0
7200 On ch=2 n=c#6 v=0
7200 On ch=2 n=a#5 v=0
7200 On ch=2 n=b5 v=100
7200 On ch=2 n=d6 v=100
7200 On ch=2 n=g6 v=100
7296 On ch=2 n=g6 v=0
7296 On ch=2 n=d6 v=0
7296 On ch=2 n=b5 v=0
7296 On ch=2 n=f#5 v=100
7296 On ch=2 n=f#4 v=100
7392 On ch=2 n=f#4 v=0
7392 On ch=2 n=f#5 v=0
7488 On ch=2 n=a5 v=100
7488 On ch=2 n=c#6 v=100
7584 On ch=2 n=c#6 v=0
7584 On ch=2 n=a5 v=0
7584 On ch=2 n=f#4 v=100
7680 On ch=2 n=f#4 v=0
7680 On ch=2 n=g5 v=100
7680 On ch=2 n=b5 v=100
7776 On ch=2 n=b5 v=0
7776 On ch=2 n=g5 v=0
7776 On ch=2 n=f#5 v=100
7776 On ch=2 n=a5 v=100
7872 On ch=2 n=a5 v=0
7872 On ch=2 n=f#5 v=0
7872 On ch=2 n=f#4 v=100
7968 On ch=2 n=f#4 v=0
7968 On ch=2 n=e5 v=100
7968 On ch=2 n=g5 v=100
8064 On ch=2 n=g5 v=0
8064 On ch=2 n=e5 v=0
8064 On ch=2 n=c#5 v=100
8064 On ch=2 n=g5 v=100
8160 On ch=2 n=g5 v=0
8160 On ch=2 n=f#4 v=100
8256 On ch=2 n=c#5 v=0
8256 On ch=2 n=d5 v=100
8256 On ch=2 n=f#5 v=100
8352 On ch=2 n=f#5 v=0
8352 On ch=2 n=f#4 v=0
8352 On ch=2 n=d5 v=0
8352 On ch=2 n=c#5 v=100
8352 On ch=2 n=g5 v=100
8448 On ch=2 n=g5 v=0
8448 On ch=2 n=f#4 v=100
8544 On ch=2 n=c#5 v=0
8544 On ch=2 n=d5 v=100
8544 On ch=2 n=f#5 v=100
8640 On ch=2 n=f#5 v=0
8640 On ch=2 n=d5 v=0
8640 On ch=2 n=b4 v=100
8640 On ch=2 n=f5 v=100
8736 On ch=2 n=f5 v=0
8736 On ch=2 n=f#4 v=0
8736 On ch=2 n=f#4 v=100
8832 On ch=2 n=b4 v=0
8832 On ch=2 n=c#5 v=100
8832 On ch=2 n=e5 v=100
8928 On ch=2 n=c#5 v=0
8928 On ch=2 n=a#4 v=100
9024 On ch=2 n=e5 v=0
9024 On ch=2 n=f#4 v=0
9024 On ch=2 n=f#4 v=100
9120 On ch=2 n=a#4 v=0
9120 On ch=2 n=b4 v=100
9120 On ch=2 n=d5 v=100
9216 On ch=2 n=d5 v=0
9216 On ch=2 n=b4 v=0
9216 On ch=2 n=e5 v=100
9216 On ch=2 n=a#4 v=100
9264 On ch=2 n=a#4 v=0
9264 On ch=2 n=f#4 v=0
9264 On ch=2 n=e5 v=0
9312 On ch=2 n=f#3 v=100
9312 On ch=2 n=f#2 v=100
9408 On ch=2 n=f#2 v=0
9408 On ch=2 n=f#3 v=0
9504 On ch=2 n=b3 v=100
9504 On ch=2 n=d4 v=100
9504 On ch=2 n=g4 v=100
9600 On ch=2 n=g4 v=0
9600 On ch=2 n=d4 v=0
9600 On ch=2 n=b3 v=0
9600 On ch=2 n=f#3 v=100
9600 On ch=2 n=f#2 v=100
9696 On ch=2 n=f#2 v=0
9696 On ch=2 n=f#3 v=0
9792 On ch=2 n=a3 v=100
9792 On ch=2 n=c#4 v=100
9888 On ch=2 n=c#4 v=0
9888 On ch=2 n=a3 v=0
9888 On ch=2 n=f#2 v=100
9984 On ch=2 n=f#2 v=0
9984 On ch=2 n=g3 v=100
9984 On ch=2 n=b3 v=100
10080 On ch=2 n=b3 v=0
10080 On ch=2 n=g3 v=0
10080 On ch=2 n=f#3 v=100
10080 On ch=2 n=a3 v=100
10176 On ch=2 n=a3 v=0
10176 On ch=2 n=f#3 v=0
10176 On ch=2 n=f#2 v=100
10272 On ch=2 n=f#2 v=0
10272 On ch=2 n=e3 v=100
10272 On ch=2 n=g3 v=100
10368 On ch=2 n=e3 v=0
10368 On ch=2 n=c#3 v=100
10464 On ch=2 n=c#3 v=0
10848 On ch=2 n=b2 v=100
10944 On ch=2 n=b2 v=0
10944 On ch=2 n=a#2 v=100
11040 On ch=2 n=g3 v=0
11040 On ch=2 n=a#2 v=0
11328 On ch=2 n=g4 v=100
11424 On ch=2 n=g4 v=0
11424 On ch=2 n=g4 v=100
11520 On ch=2 n=g4 v=0
11520 On ch=2 n=g4 v=100
11520 On ch=2 n=c#4 v=100
12000 On ch=2 n=c#4 v=0
12000 On ch=2 n=b3 v=100
12096 On ch=2 n=b3 v=0
12096 On ch=2 n=a#3 v=100
12144 On ch=2 n=a#3 v=0
12144 On ch=2 n=g4 v=0
12192 On ch=2 n=c#5 v=100
12192 On ch=2 n=c#4 v=100
12288 On ch=2 n=c#4 v=0
12288 On ch=2 n=c#5 v=0
12288 On ch=2 n=b4 v=100
12288 On ch=2 n=b3 v=100
12384 On ch=2 n=b3 v=0
12384 On ch=2 n=b4 v=0
12384 On ch=2 n=a#4 v=100
12384 On ch=2 n=a#3 v=100
12480 On ch=2 n=a#3 v=0
12480 On ch=2 n=a#4 v=0
12480 On ch=2 n=g4 v=100
12480 On ch=2 n=g3 v=100
12576 On ch=2 n=g3 v=0
12576 On ch=2 n=g4 v=0
12576 On ch=2 n=a#3 v=100
12576 On ch=2 n=a#2 v=100
12672 On ch=2 n=a#2 v=0
12672 On ch=2 n=a#3 v=0
12672 On ch=2 n=b3 v=100
12672 On ch=2 n=b2 v=100
13440 On ch=2 n=b2 v=0
13440 On ch=2 n=b3 v=0
13440 On ch=2 n=a#3 v=100
13440 On ch=2 n=a#2 v=100
13536 On ch=2 n=a#2 v=0
13536 On ch=2 n=a#3 v=0
13536 On ch=2 n=a4 v=100
13536 On ch=2 n=a3 v=100
13632 On ch=2 n=a3 v=0
13632 On ch=2 n=a4 v=0
13632 On ch=2 n=g4 v=100
13632 On ch=2 n=g3 v=100
13728 On ch=2 n=g3 v=0
13728 On ch=2 n=g4 v=0
13728 On ch=2 n=a#3 v=100
13728 On ch=2 n=a#2 v=100
13824 On ch=2 n=a#2 v=0
13824 On ch=2 n=a#3 v=0
13824 On ch=2 n=b3 v=100
13824 On ch=2 n=b2 v=100
14688 On ch=2 n=b2 v=0
14688 On ch=2 n=b3 v=0
14688 On ch=2 n=b3 v=100
14688 On ch=2 n=b2 v=100
14784 On ch=2 n=b2 v=0
14784 On ch=2 n=b3 v=0
14784 On ch=2 n=b3 v=100
14784 On ch=2 n=b2 v=100
14880 On ch=2 n=b2 v=0
14880 On ch=2 n=b3 v=0
14880 On ch=2 n=a#3 v=100
14880 On ch=2 n=a#2 v=100
14976 On ch=2 n=a#2 v=0
14976 On ch=2 n=a#3 v=0
14976 On ch=2 n=b3 v=100
14976 On ch=2 n=b2 v=100
15264 On ch=2 n=b2 v=0
15264 On ch=2 n=b3 v=0
15264 On ch=2 n=b3 v=100
15264 On ch=2 n=b2 v=100
15360 On ch=2 n=b2 v=0
15360 On ch=2 n=b3 v=0
15360 On ch=2 n=b3 v=100
15360 On ch=2 n=b2 v=100
15456 On ch=2 n=b2 v=0
15456 On ch=2 n=b3 v=0
15456 On ch=2 n=a#3 v=100
15456 On ch=2 n=a#2 v=100
15552 On ch=2 n=a#2 v=0
15552 On ch=2 n=a#3 v=0
15552 On ch=2 n=b3 v=100
15552 On ch=2 n=b2 v=100
15840 On ch=2 n=b2 v=0
15840 On ch=2 n=b3 v=0
15840 On ch=2 n=b3 v=100
15840 On ch=2 n=b2 v=100
15936 On ch=2 n=b2 v=0
15936 On ch=2 n=b3 v=0
15936 On ch=2 n=c#4 v=100
15936 On ch=2 n=c#3 v=100
16032 On ch=2 n=c#3 v=0
16032 On ch=2 n=c#4 v=0
16032 On ch=2 n=d4 v=100
16032 On ch=2 n=d3 v=100
16128 On ch=2 n=d3 v=0
16128 On ch=2 n=d4 v=0
16128 On ch=2 n=e3 v=100
16128 On ch=2 n=e2 v=100
16416 On ch=2 n=e2 v=0
16416 On ch=2 n=e3 v=0
16416 On ch=2 n=e5 v=100
16416 On ch=2 n=e5 v=100
16992 On ch=2 n=e5 v=0
16992 On ch=2 n=e5 v=0
16992 On ch=2 n=d5 v=100
17088 On ch=2 n=d5 v=0
17088 On ch=2 n=c#5 v=100
17184 On ch=2 n=c#5 v=0
17184 On ch=2 n=b4 v=100
17280 On ch=2 n=b4 v=0
17280 On ch=2 n=c#5 v=100
17519 Par ch=2 c=64 v=127
17520 On ch=2 n=g4 v=100
17520 On ch=2 n=g3 v=100
17568 On ch=2 n=g3 v=0
17568 On ch=2 n=g4 v=0
17568 On ch=2 n=c#5 v=0
17568 On ch=2 n=e5 v=100
17568 On ch=2 n=e5 v=100
18144 On ch=2 n=e5 v=0
18144 On ch=2 n=e5 v=0
18144 On ch=2 n=d5 v=100
18145 Par ch=2 c=64 v=0
18240 On ch=2 n=d5 v=0
18240 On ch=2 n=c#5 v=100
18336 On ch=2 n=c#5 v=0
18336 On ch=2 n=b4 v=100
18432 On ch=2 n=b4 v=0
18432 On ch=2 n=f#4 v=100
19008 On ch=2 n=b3 v=100
19104 On ch=2 n=b3 v=0
19104 On ch=2 n=f#4 v=0
19584 On ch=2 n=d4 v=100
19584 On ch=2 n=f#3 v=100
19632 On ch=2 n=f#3 v=0
19632 On ch=2 n=d4 v=0
19632 On ch=2 n=g3 v=100
19680 On ch=2 n=g3 v=0
19680 On ch=2 n=a#2 v=100
19728 On ch=2 n=a#2 v=0
19872 On ch=2 n=a2 v=100
19920 On ch=2 n=a2 v=0
19920 On ch=2 n=g3 v=100
19968 On ch=2 n=g3 v=0
19968 On ch=2 n=c#4 v=100
20016 On ch=2 n=c#4 v=0
20160 On ch=2 n=g#3 v=100
20160 On ch=2 n=f#4 v=100
20208 On ch=2 n=f#4 v=0
20208 On ch=2 n=g#3 v=0
20208 On ch=2 n=a3 v=100
20256 On ch=2 n=a3 v=0
20256 On ch=2 n=d3 v=100
20304 On ch=2 n=d3 v=0
20736 On ch=2 n=a#3 v=100
20736 On ch=2 n=f#4 v=100
20784 On ch=2 n=f#4 v=0
20784 On ch=2 n=a#3 v=0
20784 On ch=2 n=b3 v=100
20832 On ch=2 n=b3 v=0
20832 On ch=2 n=d3 v=100
20880 On ch=2 n=d3 v=0
21024 On ch=2 n=c#3 v=100
21072 On ch=2 n=c#3 v=0
21072 On ch=2 n=b3 v=100
21120 On ch=2 n=b3 v=0
21120 On ch=2 n=f4 v=100
21168 On ch=2 n=f4 v=0
21312 On ch=2 n=c4 v=100
21312 On ch=2 n=a4 v=100
21360 On ch=2 n=a4 v=0
21360 On ch=2 n=c4 v=0
21360 On ch=2 n=c#4 v=100
21408 On ch=2 n=c#4 v=0
21408 On ch=2 n=f#3 v=100
21456 On ch=2 n=f#3 v=0
21888 On ch=2 n=c#4 v=100
21888 On ch=2 n=a4 v=100
21936 On ch=2 n=a4 v=0
21936 On ch=2 n=c#4 v=0
21936 On ch=2 n=d4 v=100
21984 On ch=2 n=d4 v=0
21984 On ch=2 n=f3 v=100
22032 On ch=2 n=f3 v=0
22176 On ch=2 n=e3 v=100
22224 On ch=2 n=e3 v=0
22224 On ch=2 n=d4 v=100
22272 On ch=2 n=d4 v=0
22272 On ch=2 n=g#4 v=100
22320 On ch=2 n=g#4 v=0
22464 On ch=2 n=d#4 v=100
22464 On ch=2 n=c#5 v=100
22512 On ch=2 n=c#5 v=0
22512 On ch=2 n=d#4 v=0
22512 On ch=2 n=e4 v=100
22560 On ch=2 n=e4 v=0
22560 On ch=2 n=a3 v=100
22608 On ch=2 n=a3 v=0
22752 On ch=2 n=c#5 v=100
22752 On ch=2 n=d4 v=100
22800 On ch=2 n=d4 v=0
22800 On ch=2 n=c#5 v=0
22800 On ch=2 n=d#4 v=100
22848 On ch=2 n=d#4 v=0
22848 On ch=2 n=a3 v=100
22896 On ch=2 n=a3 v=0
23040 On ch=2 n=c5 v=100
23040 On ch=2 n=d4 v=100
23088 On ch=2 n=d4 v=0
23088 On ch=2 n=c5 v=0
23088 On ch=2 n=d#4 v=100
23136 On ch=2 n=d#4 v=0
23136 On ch=2 n=g#3 v=100
23184 On ch=2 n=g#3 v=0
23328 On ch=2 n=c#4 v=100
23328 On ch=2 n=c5 v=100
23376 On ch=2 n=c5 v=0
23376 On ch=2 n=c#4 v=0
23376 On ch=2 n=d4 v=100
23424 On ch=2 n=d4 v=0
23424 On ch=2 n=g#3 v=100
23472 On ch=2 n=g#3 v=0
23616 On ch=2 n=c#4 v=100
23616 On ch=2 n=b4 v=100
23664 On ch=2 n=b4 v=0
23664 On ch=2 n=c#4 v=0
23664 On ch=2 n=d4 v=100
23712 On ch=2 n=d4 v=0
23712 On ch=2 n=g3 v=100
23760 On ch=2 n=g3 v=0
23904 On ch=2 n=b4 v=100
23904 On ch=2 n=c4 v=100
23952 On ch=2 n=c4 v=0
23952 On ch=2 n=b4 v=0
23952 On ch=2 n=c#4 v=100
24000 On ch=2 n=c#4 v=0
24000 On ch=2 n=g3 v=100
24048 On ch=2 n=g3 v=0
24192 Par ch=2 c=64 v=127
24192 On ch=2 n=a#4 v=100
24240 On ch=2 n=a#4 v=0
24240 On ch=2 n=c#4 v=100
24288 On ch=2 n=c#4 v=0
24288 On ch=2 n=f#3 v=100
24336 On ch=2 n=f#3 v=0
24480 On ch=2 n=c#5 v=100
24528 On ch=2 n=c#5 v=0
24528 On ch=2 n=f#4 v=100
24576 On ch=2 n=f#4 v=0
24576 On ch=2 n=a#3 v=100
24624 On ch=2 n=a#3 v=0
24768 On ch=2 n=d5 v=100
24769 Par ch=2 c=64 v=127
24816 On ch=2 n=d5 v=0
24816 On ch=2 n=f#4 v=100
24864 On ch=2 n=f#4 v=0
24864 On ch=2 n=g#3 v=100
24912 On ch=2 n=g#3 v=0
25056 Par ch=2 c=64 v=127
25056 On ch=2 n=f5 v=100
25104 On ch=2 n=f5 v=0
25104 On ch=2 n=b4 v=100
25105 Par ch=1 c=64 v=127
25106 Par ch=1 c=64 v=127
25152 On ch=2 n=b4 v=0
25152 On ch=2 n=c#4 v=100
25200 On ch=2 n=c#4 v=0
25344 On ch=2 n=g#5 v=100
25345 Par ch=2 c=64 v=127
25392 On ch=2 n=g#5 v=0
25392 Par ch=1 c=64 v=127
25392 On ch=2 n=a#4 v=100
25393 Par ch=1 c=64 v=127
25440 On ch=2 n=a#4 v=0
25440 On ch=2 n=e4 v=100
25488 On ch=2 n=e4 v=0
25632 On ch=2 n=g5 v=100
25633 Par ch=2 c=64 v=127
25680 On ch=2 n=g5 v=0
25680 On ch=2 n=a#4 v=100
25681 Par ch=1 c=64 v=127
25682 Par ch=1 c=64 v=127
25728 On ch=2 n=a#4 v=0
25728 On ch=2 n=d#4 v=100
25776 On ch=2 n=d#4 v=0
25920 Par ch=2 c=64 v=127
25920 On ch=2 n=b5 v=100
25968 On ch=2 n=b5 v=0
25968 On ch=2 n=d#5 v=100
25969 Par ch=1 c=64 v=127
25970 Par ch=1 c=64 v=127
26016 On ch=2 n=d#5 v=0
26016 On ch=2 n=g#4 v=100
26064 On ch=2 n=g#4 v=0
26208 On ch=2 n=f5 v=100
26209 Par ch=2 c=64 v=127
26256 On ch=2 n=f5 v=0
26256 Par ch=1 c=64 v=127
26256 On ch=2 n=b4 v=100
26257 Par ch=1 c=64 v=127
26304 On ch=2 n=b4 v=0
26304 On ch=2 n=c#4 v=100
26352 On ch=2 n=c#4 v=0
26496 On ch=2 n=a#5 v=100
26497 Par ch=2 c=64 v=127
26544 On ch=2 n=a#5 v=0
26544 On ch=2 n=c#5 v=100
26545 Par ch=1 c=64 v=127
26546 Par ch=1 c=64 v=127
26592 On ch=2 n=c#5 v=0
26592 On ch=2 n=f#4 v=100
26640 On ch=2 n=f#4 v=0
26784 Par ch=2 c=64 v=127
26784 On ch=2 n=f#5 v=100
26784 On ch=2 n=c#6 v=100
26832 On ch=2 n=c#6 v=0
26832 On ch=2 n=f#5 v=0
26832 On ch=2 n=a#4 v=100
26833 Par ch=1 c=64 v=127
26834 Par ch=1 c=64 v=127
26880 On ch=2 n=a#4 v=0
27072 On ch=2 n=f#5 v=100
27072 On ch=2 n=d6 v=100
27073 Par ch=2 c=64 v=127
27120 On ch=2 n=d6 v=0
27120 On ch=2 n=f#5 v=0
27120 Par ch=1 c=64 v=127
27120 On ch=2 n=g#4 v=100
27121 Par ch=1 c=64 v=127
27168 On ch=2 n=g#4 v=0
27360 On ch=2 n=g#5 v=100
27360 On ch=2 n=b5 v=100
27360 On ch=2 n=f6 v=100
27361 Par ch=2 c=64 v=127
27408 On ch=2 n=f6 v=0
27408 On ch=2 n=b5 v=0
27408 On ch=2 n=g#5 v=0
27408 On ch=2 n=c#5 v=100
27409 Par ch=1 c=64 v=127
27410 Par ch=1 c=64 v=127
27456 On ch=2 n=c#5 v=0
27648 Par ch=2 c=64 v=127
27648 On ch=2 n=a#5 v=100
27648 On ch=2 n=c#6 v=100
27648 On ch=2 n=g#6 v=100
27696 On ch=2 n=g#6 v=0
27696 On ch=2 n=c#6 v=0
27696 On ch=2 n=a#5 v=0
27696 On ch=2 n=e5 v=100
27697 Par ch=1 c=64 v=127
27698 Par ch=1 c=64 v=127
27744 On ch=2 n=e5 v=0
27936 On ch=2 n=a#5 v=100
27936 On ch=2 n=c#6 v=100
27936 On ch=2 n=g6 v=100
27937 Par ch=2 c=64 v=127
27984 On ch=2 n=g6 v=0
27984 On ch=2 n=c#6 v=0
27984 On ch=2 n=a#5 v=0
27984 Par ch=1 c=64 v=127
27984 On ch=2 n=d#5 v=100
27985 Par ch=1 c=64 v=127
28032 On ch=2 n=d#5 v=0
28224 On ch=2 n=f#5 v=100
28224 On ch=2 n=b5 v=100
28224 On ch=2 n=f#6 v=100
28225 Par ch=2 c=64 v=127
28272 On ch=2 n=f#6 v=0
28272 On ch=2 n=b5 v=0
28272 On ch=2 n=f#5 v=0
28272 On ch=2 n=d5 v=100
28273 Par ch=1 c=64 v=127
28274 Par ch=1 c=64 v=127
28320 On ch=2 n=d5 v=0
28512 Par ch=2 c=64 v=127
28512 On ch=2 n=g#5 v=100
28512 On ch=2 n=b5 v=100
28512 On ch=2 n=f6 v=100
28560 On ch=2 n=f6 v=0
28560 On ch=2 n=b5 v=0
28560 On ch=2 n=g#5 v=0
28560 Par ch=1 c=64 v=127
28560 On ch=2 n=c#5 v=100
28561 Par ch=1 c=64 v=127
28608 On ch=2 n=c#5 v=0
28800 On ch=2 n=c#5 v=100
28800 On ch=2 n=f#5 v=100
28800 On ch=2 n=a#5 v=100
28801 Par ch=2 c=64 v=127
28848 On ch=2 n=a#5 v=0
28848 On ch=2 n=f#5 v=0
28848 On ch=2 n=c#5 v=0
28848 On ch=2 n=f#4 v=100
28849 Par ch=1 c=64 v=127
28850 Par ch=1 c=64 v=127
28896 On ch=2 n=f#4 v=0
29088 On ch=2 n=d5 v=100
29088 On ch=2 n=b5 v=100
29089 Par ch=2 c=64 v=127
29136 On ch=2 n=b5 v=0
29136 On ch=2 n=d5 v=0
29136 Par ch=1 c=64 v=127
29136 On ch=2 n=f#4 v=100
29137 Par ch=1 c=64 v=127
29184 On ch=2 n=f#4 v=0
29376 Par ch=2 c=64 v=127
29376 On ch=2 n=c#5 v=100
29376 On ch=2 n=a#5 v=100
29424 On ch=2 n=a#5 v=0
29424 On ch=2 n=c#5 v=0
29424 On ch=2 n=f#4 v=100
29425 Par ch=1 c=64 v=127
29426 Par ch=1 c=64 v=127
29472 On ch=2 n=f#4 v=0
29664 On ch=2 n=c5 v=100
29664 On ch=2 n=a5 v=100
29665 Par ch=2 c=64 v=127
29712 On ch=2 n=a5 v=0
29712 On ch=2 n=c5 v=0
29712 Par ch=1 c=64 v=127
29712 On ch=2 n=f#4 v=100
29713 Par ch=1 c=64 v=127
29760 On ch=2 n=f#4 v=0
29952 Par ch=2 c=64 v=127
29952 On ch=2 n=b4 v=100
29952 On ch=2 n=g#5 v=100
30000 On ch=2 n=g#5 v=0
30000 On ch=2 n=b4 v=0
30000 On ch=2 n=f#4 v=100
30001 Par ch=1 c=64 v=127
30002 Par ch=1 c=64 v=127
30048 On ch=2 n=f#4 v=0
30240 On ch=2 n=c5 v=100
30240 On ch=2 n=a5 v=100
30241 Par ch=2 c=64 v=127
30288 On ch=2 n=a5 v=0
30288 On ch=2 n=c5 v=0
30288 Par ch=1 c=64 v=127
30288 On ch=2 n=f#4 v=100
30289 Par ch=1 c=64 v=127
30336 On ch=2 n=f#4 v=0
30528 Par ch=2 c=64 v=127
30528 On ch=2 n=b4 v=100
30528 On ch=2 n=g#5 v=100
30576 On ch=2 n=g#5 v=0
30576 On ch=2 n=b4 v=0
30576 On ch=2 n=f#4 v=100
30577 Par ch=1 c=64 v=127
30578 Par ch=1 c=64 v=127
30624 On ch=2 n=f#4 v=0
30816 On ch=2 n=b4 v=100
30816 On ch=2 n=g5 v=100
30817 Par ch=2 c=64 v=127
30864 On ch=2 n=g5 v=0
30864 On ch=2 n=b4 v=0
30864 Par ch=1 c=64 v=127
30864 On ch=2 n=f#4 v=100
30865 Par ch=1 c=64 v=127
30912 On ch=2 n=f#4 v=0
31104 On ch=2 n=f#4 v=100
31104 On ch=2 n=c#5 v=100
31104 On ch=2 n=e5 v=100
31105 Par ch=2 c=64 v=127
31153 Par ch=1 c=64 v=127
31154 Par ch=1 c=64 v=127
31200 On ch=2 n=e5 v=0
31200 On ch=2 n=c#5 v=0
31200 On ch=2 n=f#4 v=0
31201 Par ch=2 c=64 v=0
31392 Par ch=2 c=64 v=127
31392 On ch=2 n=e7 v=100
31440 On ch=2 n=e7 v=0
31440 On ch=2 n=g6 v=100
31488 On ch=2 n=g6 v=0
31488 On ch=2 n=c#6 v=100
31536 On ch=2 n=c#6 v=0
31680 On ch=2 n=c#7 v=100
31728 On ch=2 n=c#7 v=0
31728 On ch=2 n=e6 v=100
31776 On ch=2 n=e6 v=0
31776 On ch=2 n=a#5 v=100
31824 On ch=2 n=a#5 v=0
31968 On ch=2 n=a#6 v=100
32016 On ch=2 n=a#6 v=0
32016 On ch=2 n=c#6 v=100
32064 On ch=2 n=c#6 v=0
32064 On ch=2 n=g5 v=100
32112 On ch=2 n=g5 v=0
32256 On ch=2 n=g6 v=100
32304 On ch=2 n=g6 v=0
32304 On ch=2 n=a#5 v=100
32352 On ch=2 n=a#5 v=0
32352 On ch=2 n=e5 v=100
32400 On ch=2 n=e5 v=0
32544 On ch=2 n=e6 v=100
32592 On ch=2 n=e6 v=0
32592 On ch=2 n=g5 v=100
32640 On ch=2 n=g5 v=0
32640 On ch=2 n=c#5 v=100
32688 On ch=2 n=c#5 v=0
32832 On ch=2 n=c#6 v=100
32880 On ch=2 n=c#6 v=0
32880 On ch=2 n=e5 v=100
32928 On ch=2 n=e5 v=0
32928 On ch=2 n=a#4 v=100
32976 On ch=2 n=a#4 v=0
33120 On ch=2 n=a#5 v=100
33168 On ch=2 n=a#5 v=0
33168 On ch=2 n=c#5 v=100
33216 On ch=2 n=c#5 v=0
33216 On ch=2 n=g4 v=100
33264 On ch=2 n=g4 v=0
33408 On ch=2 n=e5 v=100
33409 Par ch=2 c=64 v=127
33456 On ch=2 n=e5 v=0
33456 On ch=2 n=g4 v=100
33504 On ch=2 n=g4 v=0
33504 On ch=2 n=c#4 v=100
33552 On ch=2 n=c#4 v=0
33696 Par ch=2 c=64 v=127
33696 On ch=2 n=e5 v=100
33744 On ch=2 n=e5 v=0
33744 On ch=2 n=g4 v=100
33792 On ch=2 n=g4 v=0
33792 On ch=2 n=c4 v=100
33840 On ch=2 n=c4 v=0
33984 Par ch=2 c=64 v=127
33984 On ch=2 n=e5 v=100
34032 On ch=2 n=e5 v=0
34032 On ch=2 n=g4 v=100
34080 On ch=2 n=g4 v=0
34080 On ch=2 n=b3 v=100
34128 On ch=2 n=b3 v=0
34272 Par ch=2 c=64 v=127
34272 On ch=2 n=e5 v=100
34320 On ch=2 n=e5 v=0
34320 On ch=2 n=g4 v=100
34368 On ch=2 n=g4 v=0
34368 On ch=2 n=a#3 v=100
34416 On ch=2 n=a#3 v=0
34560 On ch=2 n=e5 v=100
34561 Par ch=2 c=64 v=127
34608 On ch=2 n=e5 v=0
34608 On ch=2 n=g4 v=100
34656 On ch=2 n=g4 v=0
34656 On ch=2 n=c#4 v=100
34704 On ch=2 n=c#4 v=0
34848 On ch=2 n=e5 v=100
34851 Par ch=2 c=64 v=127
34896 On ch=2 n=e5 v=0
34896 On ch=2 n=g4 v=100
34944 On ch=2 n=g4 v=0
34944 On ch=2 n=c4 v=100
34992 On ch=2 n=c4 v=0
35136 Par ch=2 c=64 v=127
35136 On ch=2 n=e5 v=100
35184 On ch=2 n=e5 v=0
35184 On ch=2 n=g4 v=100
35232 On ch=2 n=g4 v=0
35232 On ch=2 n=b3 v=100
35280 On ch=2 n=b3 v=0
35424 On ch=2 n=e5 v=100
35425 Par ch=2 c=64 v=127
35472 On ch=2 n=e5 v=0
35472 On ch=2 n=g4 v=100
35520 On ch=2 n=g4 v=0
35520 On ch=2 n=a#3 v=100
35568 On ch=2 n=a#3 v=0
35712 On ch=2 n=f3 v=100
35712 On ch=2 n=d4 v=100
35713 Par ch=2 c=64 v=0
35760 On ch=2 n=d4 v=0
35760 On ch=2 n=f3 v=0
35760 On ch=2 n=f#3 v=100
35808 On ch=2 n=f#3 v=0
35808 On ch=2 n=b2 v=100
35856 On ch=2 n=b2 v=0
36000 On ch=2 n=e4 v=100
36000 On ch=2 n=g4 v=100
36096 On ch=2 n=g4 v=0
36096 On ch=2 n=e4 v=0
36096 On ch=2 n=d4 v=100
36096 On ch=2 n=f#4 v=100
36192 On ch=2 n=f#4 v=0
36192 On ch=2 n=d4 v=0
36288 On ch=2 n=f3 v=100
36288 On ch=2 n=d4 v=100
36336 On ch=2 n=d4 v=0
36336 On ch=2 n=f3 v=0
36336 On ch=2 n=f#3 v=100
36384 On ch=2 n=f#3 v=0
36384 On ch=2 n=b2 v=100
36432 On ch=2 n=b2 v=0
36576 On ch=2 n=e4 v=100
36576 On ch=2 n=g4 v=100
36672 On ch=2 n=g4 v=0
36672 On ch=2 n=e4 v=0
36672 On ch=2 n=d4 v=100
36672 On ch=2 n=f#4 v=100
36768 On ch=2 n=f#4 v=0
36768 On ch=2 n=d4 v=0
36864 On ch=2 n=b3 v=100
36960 On ch=2 n=b3 v=0
37152 On ch=2 n=f#4 v=100
37152 On ch=2 n=d5 v=100
37248 On ch=2 n=d5 v=0
37248 On ch=2 n=f#4 v=0
37248 On ch=2 n=b3 v=100
37344 On ch=2 n=b3 v=0
37344 On ch=2 n=f#4 v=100
37344 On ch=2 n=d5 v=100
37440 On ch=2 n=d5 v=0
37440 On ch=2 n=f#4 v=0
37440 On ch=2 n=b3 v=100
37536 On ch=2 n=b3 v=0
37536 On ch=2 n=f#4 v=100
37536 On ch=2 n=d5 v=100
37632 On ch=2 n=d5 v=0
37632 On ch=2 n=f#4 v=0
37632 On ch=2 n=b3 v=100
37728 On ch=2 n=b3 v=0
37728 On ch=2 n=f#4 v=100
37728 On ch=2 n=d5 v=100
37824 On ch=2 n=d5 v=0
37824 On ch=2 n=f#4 v=0
38016 On ch=2 n=f#3 v=100
38016 On ch=2 n=e4 v=100
38064 On ch=2 n=e4 v=0
38064 On ch=2 n=f#3 v=0
38064 On ch=2 n=g3 v=100
38112 On ch=2 n=g3 v=0
38112 On ch=2 n=b2 v=100
38160 On ch=2 n=b2 v=0
38304 On ch=2 n=a4 v=100
38304 On ch=2 n=c5 v=100
38400 On ch=2 n=c5 v=0
38400 On ch=2 n=a4 v=0
38400 On ch=2 n=g4 v=100
38400 On ch=2 n=b4 v=100
38496 On ch=2 n=b4 v=0
38496 On ch=2 n=g4 v=0
38592 On ch=2 n=f#3 v=100
38592 On ch=2 n=e4 v=100
38640 On ch=2 n=e4 v=0
38640 On ch=2 n=f#3 v=0
38640 On ch=2 n=g3 v=100
38688 On ch=2 n=g3 v=0
38688 On ch=2 n=b2 v=100
38736 On ch=2 n=b2 v=0
38880 On ch=2 n=a4 v=100
38880 On ch=2 n=c5 v=100
38976 On ch=2 n=c5 v=0
38976 On ch=2 n=a4 v=0
38976 On ch=2 n=g4 v=100
38976 On ch=2 n=b4 v=100
39072 On ch=2 n=b4 v=0
39072 On ch=2 n=g4 v=0
39168 On ch=2 n=b3 v=100
39264 On ch=2 n=b3 v=0
39456 On ch=2 n=g4 v=100
39456 On ch=2 n=e5 v=100
39552 On ch=2 n=e5 v=0
39552 On ch=2 n=g4 v=0
39552 On ch=2 n=b3 v=100
39648 On ch=2 n=b3 v=0
39648 On ch=2 n=g4 v=100
39648 On ch=2 n=e5 v=100
39744 On ch=2 n=e5 v=0
39744 On ch=2 n=g4 v=0
39744 On ch=2 n=b3 v=100
39840 On ch=2 n=b3 v=0
39840 On ch=2 n=g4 v=100
39840 On ch=2 n=e5 v=100
39936 On ch=2 n=e5 v=0
39936 On ch=2 n=g4 v=0
39936 On ch=2 n=b3 v=100
40032 On ch=2 n=b3 v=0
40032 On ch=2 n=g4 v=100
40032 On ch=2 n=e5 v=100
40128 On ch=2 n=e5 v=0
40128 On ch=2 n=g4 v=0
40320 On ch=2 n=a#5 v=100
40320 On ch=2 n=c#6 v=100
40320 On ch=2 n=e6 v=100
40320 On ch=2 n=f#6 v=100
40416 On ch=2 n=f#6 v=0
40416 On ch=2 n=g6 v=100
40608 On ch=2 n=g6 v=0
40608 On ch=2 n=e6 v=0
40608 On ch=2 n=c#6 v=0
40608 On ch=2 n=a#5 v=0
40608 On ch=2 n=b5 v=100
40608 On ch=2 n=d6 v=100
40608 On ch=2 n=g6 v=100
40704 On ch=2 n=g6 v=0
40704 On ch=2 n=d6 v=0
40704 On ch=2 n=b5 v=0
40704 On ch=2 n=f#5 v=100
40704 On ch=2 n=f#4 v=100
40800 On ch=2 n=f#4 v=0
40800 On ch=2 n=f#5 v=0
40896 On ch=2 n=a5 v=100
40896 On ch=2 n=c#6 v=100
40992 On ch=2 n=c#6 v=0
40992 On ch=2 n=a5 v=0
40992 On ch=2 n=f#4 v=100
41088 On ch=2 n=f#4 v=0
41088 On ch=2 n=g5 v=100
41088 On ch=2 n=b5 v=100
41184 On ch=2 n=b5 v=0
41184 On ch=2 n=g5 v=0
41184 On ch=2 n=f#5 v=100
41184 On ch=2 n=a5 v=100
41280 On ch=2 n=a5 v=0
41280 On ch=2 n=f#5 v=0
41280 On ch=2 n=f#4 v=100
41376 On ch=2 n=f#4 v=0
41376 On ch=2 n=e5 v=100
41376 On ch=2 n=g5 v=100
41472 On ch=2 n=g5 v=0
41472 On ch=2 n=e5 v=0
41472 On ch=2 n=c#5 v=100
41472 On ch=2 n=g5 v=100
41568 On ch=2 n=g5 v=0
41568 On ch=2 n=f#4 v=100
41664 On ch=2 n=c#5 v=0
41664 On ch=2 n=d5 v=100
41664 On ch=2 n=f#5 v=100
41760 On ch=2 n=f#5 v=0
41760 On ch=2 n=f#4 v=0
41760 On ch=2 n=d5 v=0
41760 On ch=2 n=c#5 v=100
41760 On ch=2 n=g5 v=100
41856 On ch=2 n=g5 v=0
41856 On ch=2 n=f#4 v=100
41952 On ch=2 n=c#5 v=0
41952 On ch=2 n=d5 v=100
41952 On ch=2 n=f#5 v=100
42048 On ch=2 n=f#5 v=0
42048 On ch=2 n=d5 v=0
42048 On ch=2 n=b4 v=100
42048 On ch=2 n=f5 v=100
42144 On ch=2 n=f5 v=0
42144 On ch=2 n=f#4 v=0
42144 On ch=2 n=f#4 v=100
42240 On ch=2 n=b4 v=0
42240 On ch=2 n=c#5 v=100
42240 On ch=2 n=e5 v=100
42336 On ch=2 n=c#5 v=0
42336 On ch=2 n=a#4 v=100
42432 On ch=2 n=e5 v=0
42432 On ch=2 n=f#4 v=0
42432 On ch=2 n=f#4 v=100
42528 On ch=2 n=a#4 v=0
42528 On ch=2 n=b4 v=100
42528 On ch=2 n=d5 v=100
42624 On ch=2 n=d5 v=0
42624 On ch=2 n=b4 v=0
42624 On ch=2 n=e5 v=100
42624 On ch=2 n=a#4 v=100
42672 On ch=2 n=a#4 v=0
42672 On ch=2 n=f#4 v=0
42672 On ch=2 n=e5 v=0
42720 On ch=2 n=f#3 v=100
42720 On ch=2 n=f#2 v=100
42816 On ch=2 n=f#2 v=0
42816 On ch=2 n=f#3 v=0
42912 On ch=2 n=b3 v=100
42912 On ch=2 n=d4 v=100
42912 On ch=2 n=g4 v=100
43008 On ch=2 n=g4 v=0
43008 On ch=2 n=d4 v=0
43008 On ch=2 n=b3 v=0
43008 On ch=2 n=f#3 v=100
43008 On ch=2 n=f#2 v=100
43104 On ch=2 n=f#2 v=0
43104 On ch=2 n=f#3 v=0
43200 On ch=2 n=a3 v=100
43200 On ch=2 n=c#4 v=100
43296 On ch=2 n=c#4 v=0
43296 On ch=2 n=a3 v=0
43296 On ch=2 n=f#2 v=100
43392 On ch=2 n=f#2 v=0
43392 On ch=2 n=g3 v=100
43392 On ch=2 n=b3 v=100
43488 On ch=2 n=b3 v=0
43488 On ch=2 n=g3 v=0
43488 On ch=2 n=f#3 v=100
43488 On ch=2 n=a3 v=100
43584 On ch=2 n=a3 v=0
43584 On ch=2 n=f#3 v=0
43584 On ch=2 n=f#2 v=100
43680 On ch=2 n=f#2 v=0
43680 On ch=2 n=e3 v=100
43680 On ch=2 n=g3 v=100
43776 On ch=2 n=e3 v=0
43776 On ch=2 n=c#3 v=100
43872 On ch=2 n=c#3 v=0
44256 On ch=2 n=b2 v=100
44352 On ch=2 n=b2 v=0
44352 On ch=2 n=a#2 v=100
44448 On ch=2 n=g3 v=0
44448 On ch=2 n=a#2 v=0
44736 On ch=2 n=g4 v=100
44832 On ch=2 n=g4 v=0
44832 On ch=2 n=g4 v=100
44928 On ch=2 n=g4 v=0
44928 On ch=2 n=g4 v=100
44928 On ch=2 n=c#4 v=100
45408 On ch=2 n=c#4 v=0
45408 On ch=2 n=b3 v=100
45504 On ch=2 n=b3 v=0
45504 On ch=2 n=a#3 v=100
45552 On ch=2 n=a#3 v=0
45552 On ch=2 n=g4 v=0
45600 On ch=2 n=c#5 v=100
45600 On ch=2 n=c#4 v=100
45696 On ch=2 n=c#4 v=0
45696 On ch=2 n=c#5 v=0
45696 On ch=2 n=b4 v=100
45696 On ch=2 n=b3 v=100
45792 On ch=2 n=b3 v=0
45792 On ch=2 n=b4 v=0
45792 On ch=2 n=a#4 v=100
45792 On ch=2 n=a#3 v=100
45888 On ch=2 n=a#3 v=0
45888 On ch=2 n=a#4 v=0
45888 On ch=2 n=g4 v=100
45888 On ch=2 n=g3 v=100
45984 On ch=2 n=g3 v=0
45984 On ch=2 n=g4 v=0
45984 On ch=2 n=a#3 v=100
45984 On ch=2 n=a#2 v=100
46080 On ch=2 n=a#2 v=0
46080 On ch=2 n=a#3 v=0
46080 On ch=2 n=b3 v=100
46080 On ch=2 n=b2 v=100
46848 On ch=2 n=b2 v=0
46848 On ch=2 n=b3 v=0
46848 On ch=2 n=a#3 v=100
46848 On ch=2 n=a#2 v=100
46944 On ch=2 n=a#2 v=0
46944 On ch=2 n=a#3 v=0
46944 On ch=2 n=a4 v=100
46944 On ch=2 n=a3 v=100
47040 On ch=2 n=a3 v=0
47040 On ch=2 n=a4 v=0
47040 On ch=2 n=g4 v=100
47040 On ch=2 n=g3 v=100
47136 On ch=2 n=g3 v=0
47136 On ch=2 n=g4 v=0
47136 On ch=2 n=a#3 v=100
47136 On ch=2 n=a#2 v=100
47232 On ch=2 n=a#2 v=0
47232 On ch=2 n=a#3 v=0
47232 On ch=2 n=b3 v=100
47232 On ch=2 n=b2 v=100
48096 On ch=2 n=b2 v=0
48096 On ch=2 n=b3 v=0
48096 On ch=2 n=b3 v=100
48096 On ch=2 n=b2 v=100
48192 On ch=2 n=b2 v=0
48192 On ch=2 n=b3 v=0
48192 On ch=2 n=b3 v=100
48192 On ch=2 n=b2 v=100
48288 On ch=2 n=b2 v=0
48288 On ch=2 n=b3 v=0
48288 On ch=2 n=a#3 v=100
48288 On ch=2 n=a#2 v=100
48384 On ch=2 n=a#2 v=0
48384 On ch=2 n=a#3 v=0
48384 On ch=2 n=b3 v=100
48384 On ch=2 n=b2 v=100
48672 On ch=2 n=b2 v=0
48672 On ch=2 n=b3 v=0
48672 On ch=2 n=b3 v=100
48672 On ch=2 n=b2 v=100
48768 On ch=2 n=b2 v=0
48768 On ch=2 n=b3 v=0
48768 On ch=2 n=b3 v=100
48768 On ch=2 n=b2 v=100
48864 On ch=2 n=b2 v=0
48864 On ch=2 n=b3 v=0
48864 On ch=2 n=a#3 v=100
48864 On ch=2 n=a#2 v=100
48960 On ch=2 n=a#2 v=0
48960 On ch=2 n=a#3 v=0
48960 On ch=2 n=b3 v=100
48960 On ch=2 n=b2 v=100
49248 On ch=2 n=b2 v=0
49248 On ch=2 n=b3 v=0
49248 On ch=2 n=b3 v=100
49248 On ch=2 n=b2 v=100
49344 On ch=2 n=b2 v=0
49344 On ch=2 n=b3 v=0
49344 On ch=2 n=c#4 v=100
49344 On ch=2 n=c#3 v=100
49440 On ch=2 n=c#3 v=0
49440 On ch=2 n=c#4 v=0
49440 On ch=2 n=d4 v=100
49440 On ch=2 n=d3 v=100
49536 On ch=2 n=d3 v=0
49536 On ch=2 n=d4 v=0
49536 On ch=2 n=e3 v=100
49536 On ch=2 n=e2 v=100
49824 On ch=2 n=e2 v=0
49824 On ch=2 n=e3 v=0
49824 On ch=2 n=e5 v=100
49824 On ch=2 n=e5 v=100
50400 On ch=2 n=e5 v=0
50400 On ch=2 n=e5 v=0
50400 On ch=2 n=d5 v=100
50496 On ch=2 n=d5 v=0
50496 On ch=2 n=c#5 v=100
50592 On ch=2 n=c#5 v=0
50592 On ch=2 n=b4 v=100
50688 On ch=2 n=b4 v=0
50688 On ch=2 n=c#5 v=100
50927 Par ch=2 c=64 v=127
50928 On ch=2 n=g4 v=100
50928 On ch=2 n=g3 v=100
50976 On ch=2 n=g3 v=0
50976 On ch=2 n=g4 v=0
50976 On ch=2 n=c#5 v=0
50976 On ch=2 n=e5 v=100
50976 On ch=2 n=e5 v=100
51552 On ch=2 n=e5 v=0
51552 On ch=2 n=e5 v=0
51552 Par ch=2 c=64 v=0
51552 On ch=2 n=d5 v=100
51648 On ch=2 n=d5 v=0
51648 On ch=2 n=c#5 v=100
51744 On ch=2 n=c#5 v=0
51744 On ch=2 n=b4 v=100
51840 On ch=2 n=b4 v=0
51840 On ch=2 n=f#4 v=100
52416 On ch=2 n=b3 v=100
52512 On ch=2 n=b3 v=0
52512 On ch=2 n=f#4 v=0
52992 On ch=2 n=d4 v=100
52992 On ch=2 n=f#3 v=100
53040 On ch=2 n=f#3 v=0
53040 On ch=2 n=d4 v=0
53040 On ch=2 n=g3 v=100
53088 On ch=2 n=g3 v=0
53088 On ch=2 n=a#2 v=100
53136 On ch=2 n=a#2 v=0
53280 On ch=2 n=a2 v=100
53328 On ch=2 n=a2 v=0
53328 On ch=2 n=g3 v=100
53376 On ch=2 n=g3 v=0
53376 On ch=2 n=c#4 v=100
53424 On ch=2 n=c#4 v=0
53568 On ch=2 n=g#3 v=100
53568 On ch=2 n=f#4 v=100
53616 On ch=2 n=f#4 v=0
53616 On ch=2 n=g#3 v=0
53616 On ch=2 n=a3 v=100
53664 On ch=2 n=a3 v=0
53664 On ch=2 n=d3 v=100
53712 On ch=2 n=d3 v=0
54144 On ch=2 n=a#3 v=100
54144 On ch=2 n=f#4 v=100
54192 On ch=2 n=f#4 v=0
54192 On ch=2 n=a#3 v=0
54192 On ch=2 n=b3 v=100
54240 On ch=2 n=b3 v=0
54240 On ch=2 n=d3 v=100
54288 On ch=2 n=d3 v=0
54432 On ch=2 n=c#3 v=100
54480 On ch=2 n=c#3 v=0
54480 On ch=2 n=b3 v=100
54528 On ch=2 n=b3 v=0
54528 On ch=2 n=f4 v=100
54576 On ch=2 n=f4 v=0
54720 On ch=2 n=c4 v=100
54720 On ch=2 n=a4 v=100
54768 On ch=2 n=a4 v=0
54768 On ch=2 n=c4 v=0
54768 On ch=2 n=c#4 v=100
54816 On ch=2 n=c#4 v=0
54816 On ch=2 n=f#3 v=100
54864 On ch=2 n=f#3 v=0
55296 On ch=2 n=c#4 v=100
55296 On ch=2 n=a4 v=100
55344 On ch=2 n=a4 v=0
55344 On ch=2 n=c#4 v=0
55344 On ch=2 n=d4 v=100
55392 On ch=2 n=d4 v=0
55392 On ch=2 n=f3 v=100
55440 On ch=2 n=f3 v=0
55584 On ch=2 n=e3 v=100
55632 On ch=2 n=e3 v=0
55632 On ch=2 n=d4 v=100
55680 On ch=2 n=d4 v=0
55680 On ch=2 n=g#4 v=100
55728 On ch=2 n=g#4 v=0
55872 On ch=2 n=d#4 v=100
55872 On ch=2 n=c#5 v=100
55920 On ch=2 n=c#5 v=0
55920 On ch=2 n=d#4 v=0
55920 On ch=2 n=e4 v=100
55968 On ch=2 n=e4 v=0
55968 On ch=2 n=a3 v=100
56016 On ch=2 n=a3 v=0
56160 On ch=2 n=c#5 v=100
56160 On ch=2 n=d4 v=100
56208 On ch=2 n=d4 v=0
56208 On ch=2 n=c#5 v=0
56208 On ch=2 n=d#4 v=100
56256 On ch=2 n=d#4 v=0
56256 On ch=2 n=a3 v=100
56304 On ch=2 n=a3 v=0
56448 On ch=2 n=c5 v=100
56448 On ch=2 n=d4 v=100
56496 On ch=2 n=d4 v=0
56496 On ch=2 n=c5 v=0
56496 On ch=2 n=d#4 v=100
56544 On ch=2 n=d#4 v=0
56544 On ch=2 n=g#3 v=100
56592 On ch=2 n=g#3 v=0
56736 On ch=2 n=c#4 v=100
56736 On ch=2 n=c5 v=100
56784 On ch=2 n=c5 v=0
56784 On ch=2 n=c#4 v=0
56784 On ch=2 n=d4 v=100
56832 On ch=2 n=d4 v=0
56832 On ch=2 n=g#3 v=100
56880 On ch=2 n=g#3 v=0
57024 On ch=2 n=c#4 v=100
57024 On ch=2 n=b4 v=100
57072 On ch=2 n=b4 v=0
57072 On ch=2 n=c#4 v=0
57072 On ch=2 n=d4 v=100
57120 On ch=2 n=d4 v=0
57120 On ch=2 n=g3 v=100
57168 On ch=2 n=g3 v=0
57312 On ch=2 n=b4 v=100
57312 On ch=2 n=c4 v=100
57360 On ch=2 n=c4 v=0
57360 On ch=2 n=b4 v=0
57360 On ch=2 n=c#4 v=100
57408 On ch=2 n=c#4 v=0
57408 On ch=2 n=g3 v=100
57456 On ch=2 n=g3 v=0
57600 Par ch=2 c=64 v=127
57600 On ch=2 n=a#4 v=100
57648 On ch=2 n=a#4 v=0
57648 On ch=2 n=c#4 v=100
57696 On ch=2 n=c#4 v=0
57696 On ch=2 n=f#3 v=100
57744 On ch=2 n=f#3 v=0
57888 Par ch=1 c=64 v=127
57888 On ch=2 n=c#5 v=100
57936 On ch=2 n=c#5 v=0
57936 On ch=2 n=f#4 v=100
57984 On ch=2 n=f#4 v=0
57984 On ch=2 n=a#3 v=100
58032 On ch=2 n=a#3 v=0
58176 Par ch=2 c=64 v=127
58176 On ch=2 n=d5 v=100
58224 On ch=2 n=d5 v=0
58224 On ch=2 n=f#4 v=100
58272 On ch=2 n=f#4 v=0
58272 On ch=2 n=g#3 v=100
58320 On ch=2 n=g#3 v=0
58464 Par ch=2 c=64 v=127
58464 Par ch=1 c=64 v=127
58464 On ch=2 n=f5 v=100
58512 On ch=2 n=f5 v=0
58512 On ch=2 n=b4 v=100
58560 On ch=2 n=b4 v=0
58560 On ch=2 n=c#4 v=100
58608 On ch=2 n=c#4 v=0
58752 Par ch=2 c=64 v=127
58752 Par ch=1 c=64 v=127
58752 On ch=2 n=g#5 v=100
58800 On ch=2 n=g#5 v=0
58800 On ch=2 n=a#4 v=100
58848 On ch=2 n=a#4 v=0
58848 On ch=2 n=e4 v=100
58896 On ch=2 n=e4 v=0
59040 Par ch=1 c=64 v=127
59040 On ch=2 n=g5 v=100
59041 Par ch=2 c=64 v=127
59088 On ch=2 n=g5 v=0
59088 On ch=2 n=a#4 v=100
59136 On ch=2 n=a#4 v=0
59136 On ch=2 n=d#4 v=100
59184 On ch=2 n=d#4 v=0
59328 Par ch=2 c=64 v=127
59328 Par ch=1 c=64 v=127
59328 On ch=2 n=b5 v=100
59376 On ch=2 n=b5 v=0
59376 On ch=2 n=d#5 v=100
59424 On ch=2 n=d#5 v=0
59424 On ch=2 n=g#4 v=100
59472 On ch=2 n=g#4 v=0
59616 Par ch=1 c=64 v=127
59616 On ch=2 n=f5 v=100
59617 Par ch=2 c=64 v=127
59664 On ch=2 n=f5 v=0
59664 On ch=2 n=b4 v=100
59712 On ch=2 n=b4 v=0
59712 On ch=2 n=c#4 v=100
59760 On ch=2 n=c#4 v=0
59904 Par ch=1 c=64 v=127
59904 On ch=2 n=a#5 v=100
59905 Par ch=2 c=64 v=127
59952 On ch=2 n=a#5 v=0
59952 On ch=2 n=c#5 v=100
60000 On ch=2 n=c#5 v=0
60000 On ch=2 n=f#4 v=100
60048 On ch=2 n=f#4 v=0
60192 Par ch=2 c=64 v=127
60192 On ch=2 n=f#5 v=100
60192 On ch=2 n=c#6 v=100
60193 Par ch=1 c=64 v=127
60240 On ch=2 n=c#6 v=0
60240 On ch=2 n=f#5 v=0
60240 On ch=2 n=a#4 v=100
60288 On ch=2 n=a#4 v=0
60480 On ch=2 n=f#5 v=100
60480 On ch=2 n=d6 v=100
60481 Par ch=2 c=64 v=127
60481 Par ch=1 c=64 v=127
60528 On ch=2 n=d6 v=0
60528 On ch=2 n=f#5 v=0
60528 On ch=2 n=g#4 v=100
60576 On ch=2 n=g#4 v=0
60768 Par ch=1 c=64 v=127
60768 On ch=2 n=g#5 v=100
60768 On ch=2 n=b5 v=100
60768 On ch=2 n=f6 v=100
60769 Par ch=2 c=64 v=127
60816 On ch=2 n=f6 v=0
60816 On ch=2 n=b5 v=0
60816 On ch=2 n=g#5 v=0
60816 On ch=2 n=c#5 v=100
60864 On ch=2 n=c#5 v=0
61056 Par ch=2 c=64 v=127
61056 On ch=2 n=a#5 v=100
61056 On ch=2 n=c#6 v=100
61056 On ch=2 n=g#6 v=100
61057 Par ch=1 c=64 v=127
61104 On ch=2 n=g#6 v=0
61104 On ch=2 n=c#6 v=0
61104 On ch=2 n=a#5 v=0
61104 On ch=2 n=e5 v=100
61152 On ch=2 n=e5 v=0
61344 On ch=2 n=a#5 v=100
61344 On ch=2 n=c#6 v=100
61344 On ch=2 n=g6 v=100
61345 Par ch=2 c=64 v=127
61345 Par ch=1 c=64 v=127
61392 On ch=2 n=g6 v=0
61392 On ch=2 n=c#6 v=0
61392 On ch=2 n=a#5 v=0
61392 On ch=2 n=d#5 v=100
61440 On ch=2 n=d#5 v=0
61632 Par ch=1 c=64 v=127
61632 On ch=2 n=f#5 v=100
61632 On ch=2 n=b5 v=100
61632 On ch=2 n=f#6 v=100
61633 Par ch=2 c=64 v=127
61680 On ch=2 n=f#6 v=0
61680 On ch=2 n=b5 v=0
61680 On ch=2 n=f#5 v=0
61680 On ch=2 n=d5 v=100
61728 On ch=2 n=d5 v=0
61920 Par ch=2 c=64 v=127
61920 On ch=2 n=g#5 v=100
61920 On ch=2 n=b5 v=100
61920 On ch=2 n=f6 v=100
61921 Par ch=1 c=64 v=127
61968 On ch=2 n=f6 v=0
61968 On ch=2 n=b5 v=0
61968 On ch=2 n=g#5 v=0
61968 On ch=2 n=c#5 v=100
62016 On ch=2 n=c#5 v=0
62208 Par ch=1 c=64 v=127
62208 On ch=2 n=c#5 v=100
62208 On ch=2 n=f#5 v=100
62208 On ch=2 n=a#5 v=100
62209 Par ch=2 c=64 v=127
62256 On ch=2 n=a#5 v=0
62256 On ch=2 n=f#5 v=0
62256 On ch=2 n=c#5 v=0
62256 On ch=2 n=f#4 v=100
62304 On ch=2 n=f#4 v=0
62496 On ch=2 n=d5 v=100
62496 On ch=2 n=b5 v=100
62497 Par ch=2 c=64 v=127
62497 Par ch=1 c=64 v=127
62544 On ch=2 n=b5 v=0
62544 On ch=2 n=d5 v=0
62544 On ch=2 n=f#4 v=100
62592 On ch=2 n=f#4 v=0
62784 Par ch=2 c=64 v=127
62784 Par ch=1 c=64 v=127
62784 On ch=2 n=c#5 v=100
62784 On ch=2 n=a#5 v=100
62832 On ch=2 n=a#5 v=0
62832 On ch=2 n=c#5 v=0
62832 On ch=2 n=f#4 v=100
62880 On ch=2 n=f#4 v=0
63072 On ch=2 n=c5 v=100
63072 On ch=2 n=a5 v=100
63073 Par ch=2 c=64 v=127
63073 Par ch=1 c=64 v=127
63120 On ch=2 n=a5 v=0
63120 On ch=2 n=c5 v=0
63120 On ch=2 n=f#4 v=100
63168 On ch=2 n=f#4 v=0
63360 Par ch=2 c=64 v=127
63360 Par ch=1 c=64 v=127
63360 On ch=2 n=b4 v=100
63360 On ch=2 n=g#5 v=100
63408 On ch=2 n=g#5 v=0
63408 On ch=2 n=b4 v=0
63408 On ch=2 n=f#4 v=100
63456 On ch=2 n=f#4 v=0
63648 On ch=2 n=c5 v=100
63648 On ch=2 n=a5 v=100
63649 Par ch=2 c=64 v=127
63649 Par ch=1 c=64 v=127
63696 On ch=2 n=a5 v=0
63696 On ch=2 n=c5 v=0
63696 On ch=2 n=f#4 v=100
63744 On ch=2 n=f#4 v=0
63936 Par ch=2 c=64 v=127
63936 Par ch=1 c=64 v=127
63936 On ch=2 n=b4 v=100
63936 On ch=2 n=g#5 v=100
63984 On ch=2 n=g#5 v=0
63984 On ch=2 n=b4 v=0
63984 On ch=2 n=f#4 v=100
64032 On ch=2 n=f#4 v=0
64224 On ch=2 n=b4 v=100
64224 On ch=2 n=g5 v=100
64225 Par ch=2 c=64 v=127
64225 Par ch=1 c=64 v=127
64272 On ch=2 n=g5 v=0
64272 On ch=2 n=b4 v=0
64272 On ch=2 n=f#4 v=100
64320 On ch=2 n=f#4 v=0
64512 Par ch=1 c=64 v=127
64512 On ch=2 n=f#4 v=100
64512 On ch=2 n=c#5 v=100
64512 On ch=2 n=e5 v=100
64513 Par ch=2 c=64 v=127
64608 On ch=2 n=e5 v=0
64608 On ch=2 n=c#5 v=0
64608 On ch=2 n=f#4 v=0
64609 Par ch=2 c=64 v=0
64800 Par ch=2 c=64 v=127
64800 On ch=2 n=e7 v=100
64801 Par ch=1 c=64 v=127
64848 On ch=2 n=e7 v=0
64848 On ch=2 n=g6 v=100
64896 On ch=2 n=g6 v=0
64896 On ch=2 n=c#6 v=100
64897 Par ch=1 c=64 v=0
64944 On ch=2 n=c#6 v=0
65088 On ch=2 n=c#7 v=100
65089 Par ch=1 c=64 v=127
65136 On ch=2 n=c#7 v=0
65136 On ch=2 n=e6 v=100
65184 On ch=2 n=e6 v=0
65184 On ch=2 n=a#5 v=100
65232 On ch=2 n=a#5 v=0
65376 On ch=2 n=a#6 v=100
65424 On ch=2 n=a#6 v=0
65424 On ch=2 n=c#6 v=100
65472 On ch=2 n=c#6 v=0
65472 On ch=2 n=g5 v=100
65520 On ch=2 n=g5 v=0
65664 On ch=2 n=g6 v=100
65712 On ch=2 n=g6 v=0
65712 On ch=2 n=a#5 v=100
65760 On ch=2 n=a#5 v=0
65760 On ch=2 n=e5 v=100
65808 On ch=2 n=e5 v=0
65952 On ch=2 n=e6 v=100
66000 On ch=2 n=e6 v=0
66000 On ch=2 n=g5 v=100
66048 On ch=2 n=g5 v=0
66048 On ch=2 n=c#5 v=100
66096 On ch=2 n=c#5 v=0
66240 On ch=2 n=c#6 v=100
66288 On ch=2 n=c#6 v=0
66288 On ch=2 n=e5 v=100
66336 On ch=2 n=e5 v=0
66336 On ch=2 n=a#4 v=100
66384 On ch=2 n=a#4 v=0
66528 On ch=2 n=a#5 v=100
66576 On ch=2 n=a#5 v=0
66576 On ch=2 n=c#5 v=100
66624 On ch=2 n=c#5 v=0
66624 On ch=2 n=g4 v=100
66672 On ch=2 n=g4 v=0
66816 Par ch=2 c=64 v=127
66816 On ch=2 n=e5 v=100
66864 On ch=2 n=e5 v=0
66864 On ch=2 n=g4 v=100
66912 On ch=2 n=g4 v=0
66912 On ch=2 n=c#4 v=100
66960 On ch=2 n=c#4 v=0
67104 Par ch=2 c=64 v=127
67104 On ch=2 n=e5 v=100
67152 On ch=2 n=e5 v=0
67152 On ch=2 n=g4 v=100
67200 On ch=2 n=g4 v=0
67200 On ch=2 n=c4 v=100
67248 On ch=2 n=c4 v=0
67392 Par ch=2 c=64 v=127
67392 On ch=2 n=e5 v=100
67440 On ch=2 n=e5 v=0
67440 On ch=2 n=g4 v=100
67488 On ch=2 n=g4 v=0
67488 On ch=2 n=b3 v=100
67536 On ch=2 n=b3 v=0
67680 Par ch=2 c=64 v=127
67680 On ch=2 n=e5 v=100
67728 On ch=2 n=e5 v=0
67728 On ch=2 n=g4 v=100
67776 On ch=2 n=g4 v=0
67776 On ch=2 n=a#3 v=100
67824 On ch=2 n=a#3 v=0
67968 Par ch=2 c=64 v=127
67968 On ch=2 n=e5 v=100
68016 On ch=2 n=e5 v=0
68016 On ch=2 n=g4 v=100
68064 On ch=2 n=g4 v=0
68064 On ch=2 n=c#4 v=100
68112 On ch=2 n=c#4 v=0
68256 Par ch=2 c=64 v=127
68256 On ch=2 n=e5 v=100
68304 On ch=2 n=e5 v=0
68304 On ch=2 n=g4 v=100
68352 On ch=2 n=g4 v=0
68352 On ch=2 n=c4 v=100
68400 On ch=2 n=c4 v=0
68544 Par ch=2 c=64 v=127
68544 On ch=2 n=e5 v=100
68592 On ch=2 n=e5 v=0
68592 On ch=2 n=g4 v=100
68640 On ch=2 n=g4 v=0
68640 On ch=2 n=b3 v=100
68688 On ch=2 n=b3 v=0
68832 Par ch=2 c=64 v=127
68832 On ch=2 n=e5 v=100
68880 On ch=2 n=e5 v=0
68880 On ch=2 n=g4 v=100
68928 On ch=2 n=g4 v=0
68928 On ch=2 n=a#3 v=100
68976 On ch=2 n=a#3 v=0
69120 Par ch=2 c=64 v=0
69120 On ch=2 n=f3 v=100
69120 On ch=2 n=d4 v=100
69168 On ch=2 n=d4 v=0
69168 On ch=2 n=f3 v=0
69168 On ch=2 n=f#3 v=100
69216 On ch=2 n=f#3 v=0
69216 On ch=2 n=b2 v=100
69264 On ch=2 n=b2 v=0
69408 On ch=2 n=e4 v=100
69408 On ch=2 n=g4 v=100
69504 On ch=2 n=g4 v=0
69504 On ch=2 n=e4 v=0
69504 On ch=2 n=d4 v=100
69504 On ch=2 n=f#4 v=100
69600 On ch=2 n=f#4 v=0
69600 On ch=2 n=d4 v=0
69696 On ch=2 n=f3 v=100
69696 On ch=2 n=d4 v=100
69744 On ch=2 n=d4 v=0
69744 On ch=2 n=f3 v=0
69744 On ch=2 n=f#3 v=100
69792 On ch=2 n=f#3 v=0
69792 On ch=2 n=b2 v=100
69840 On ch=2 n=b2 v=0
69984 On ch=2 n=e4 v=100
69984 On ch=2 n=g4 v=100
70080 On ch=2 n=g4 v=0
70080 On ch=2 n=e4 v=0
70080 On ch=2 n=d4 v=100
70080 On ch=2 n=f#4 v=100
70176 On ch=2 n=f#4 v=0
70176 On ch=2 n=d4 v=0
70272 On ch=2 n=b3 v=100
70368 On ch=2 n=b3 v=0
70560 On ch=2 n=f#4 v=100
70560 On ch=2 n=d5 v=100
70656 On ch=2 n=d5 v=0
70656 On ch=2 n=f#4 v=0
70656 On ch=2 n=b3 v=100
70752 On ch=2 n=b3 v=0
70752 On ch=2 n=f#4 v=100
70752 On ch=2 n=d5 v=100
70848 On ch=2 n=d5 v=0
70848 On ch=2 n=f#4 v=0
70848 On ch=2 n=b3 v=100
70944 On ch=2 n=b3 v=0
70944 On ch=2 n=f#4 v=100
70944 On ch=2 n=d5 v=100
71040 On ch=2 n=d5 v=0
71040 On ch=2 n=f#4 v=0
71040 On ch=2 n=b3 v=100
71136 On ch=2 n=b3 v=0
71136 On ch=2 n=f#4 v=100
71136 On ch=2 n=d5 v=100
71232 On ch=2 n=d5 v=0
71232 On ch=2 n=f#4 v=0
71424 On ch=2 n=f#3 v=100
71424 On ch=2 n=e4 v=100
71472 On ch=2 n=e4 v=0
71472 On ch=2 n=f#3 v=0
71472 On ch=2 n=g3 v=100
71520 On ch=2 n=g3 v=0
71520 On ch=2 n=b2 v=100
71568 On ch=2 n=b2 v=0
71712 On ch=2 n=a4 v=100
71712 On ch=2 n=c5 v=100
71808 On ch=2 n=c5 v=0
71808 On ch=2 n=a4 v=0
71808 On ch=2 n=g4 v=100
71808 On ch=2 n=b4 v=100
71904 On ch=2 n=b4 v=0
71904 On ch=2 n=g4 v=0
72000 On ch=2 n=f#3 v=100
72000 On ch=2 n=e4 v=100
72048 On ch=2 n=e4 v=0
72048 On ch=2 n=f#3 v=0
72048 On ch=2 n=g3 v=100
72096 On ch=2 n=g3 v=0
72096 On ch=2 n=b2 v=100
72144 On ch=2 n=b2 v=0
72288 On ch=2 n=a4 v=100
72288 On ch=2 n=c5 v=100
72384 On ch=2 n=c5 v=0
72384 On ch=2 n=a4 v=0
72384 On ch=2 n=g4 v=100
72384 On ch=2 n=b4 v=100
72480 On ch=2 n=b4 v=0
72480 On ch=2 n=g4 v=0
72576 On ch=2 n=b3 v=100
72672 On ch=2 n=b3 v=0
72864 On ch=2 n=g4 v=100
72864 On ch=2 n=e5 v=100
72960 On ch=2 n=e5 v=0
72960 On ch=2 n=g4 v=0
72960 On ch=2 n=b3 v=100
73056 On ch=2 n=b3 v=0
73056 On ch=2 n=g4 v=100
73056 On ch=2 n=e5 v=100
73152 On ch=2 n=e5 v=0
73152 On ch=2 n=g4 v=0
73152 On ch=2 n=b3 v=100
73248 On ch=2 n=b3 v=0
73248 On ch=2 n=g4 v=100
73248 On ch=2 n=e5 v=100
73344 On ch=2 n=e5 v=0
73344 On ch=2 n=g4 v=0
73344 On ch=2 n=b3 v=100
73440 On ch=2 n=b3 v=0
73440 On ch=2 n=g4 v=100
73440 On ch=2 n=e5 v=100
73536 On ch=2 n=e5 v=0
73536 On ch=2 n=g4 v=0
73728 On ch=2 n=a#5 v=100
73728 On ch=2 n=c#6 v=100
73728 On ch=2 n=e6 v=100
73728 On ch=2 n=f#6 v=100
73824 On ch=2 n=f#6 v=0
73824 On ch=2 n=g6 v=100
74016 On ch=2 n=g6 v=0
74016 On ch=2 n=e6 v=0
74016 On ch=2 n=c#6 v=0
74016 On ch=2 n=a#5 v=0
74016 On ch=2 n=b5 v=100
74016 On ch=2 n=d6 v=100
74016 On ch=2 n=g6 v=100
74112 On ch=2 n=g6 v=0
74112 On ch=2 n=d6 v=0
74112 On ch=2 n=b5 v=0
74112 On ch=2 n=f#5 v=100
74112 On ch=2 n=f#4 v=100
74208 On ch=2 n=f#4 v=0
74208 On ch=2 n=f#5 v=0
74304 On ch=2 n=a5 v=100
74304 On ch=2 n=c#6 v=100
74400 On ch=2 n=c#6 v=0
74400 On ch=2 n=a5 v=0
74400 On ch=2 n=f#4 v=100
74496 On ch=2 n=f#4 v=0
74496 On ch=2 n=g5 v=100
74496 On ch=2 n=b5 v=100
74592 On ch=2 n=b5 v=0
74592 On ch=2 n=g5 v=0
74592 On ch=2 n=f#5 v=100
74592 On ch=2 n=a5 v=100
74688 On ch=2 n=a5 v=0
74688 On ch=2 n=f#5 v=0
74688 On ch=2 n=f#4 v=100
74784 On ch=2 n=f#4 v=0
74784 On ch=2 n=e5 v=100
74784 On ch=2 n=g5 v=100
74880 On ch=2 n=g5 v=0
74880 On ch=2 n=e5 v=0
74880 On ch=2 n=c#5 v=100
74880 On ch=2 n=g5 v=100
74976 On ch=2 n=g5 v=0
74976 On ch=2 n=f#4 v=100
75072 On ch=2 n=c#5 v=0
75072 On ch=2 n=d5 v=100
75072 On ch=2 n=f#5 v=100
75168 On ch=2 n=f#5 v=0
75168 On ch=2 n=f#4 v=0
75168 On ch=2 n=d5 v=0
75168 On ch=2 n=c#5 v=100
75168 On ch=2 n=g5 v=100
75264 On ch=2 n=g5 v=0
75264 On ch=2 n=f#4 v=100
75360 On ch=2 n=c#5 v=0
75360 On ch=2 n=d5 v=100
75360 On ch=2 n=f#5 v=100
75456 On ch=2 n=f#5 v=0
75456 On ch=2 n=d5 v=0
75456 On ch=2 n=b4 v=100
75456 On ch=2 n=f5 v=100
75552 On ch=2 n=f5 v=0
75552 On ch=2 n=f#4 v=0
75552 On ch=2 n=f#4 v=100
75648 On ch=2 n=b4 v=0
75648 On ch=2 n=c#5 v=100
75648 On ch=2 n=e5 v=100
75744 On ch=2 n=c#5 v=0
75744 On ch=2 n=a#4 v=100
75840 On ch=2 n=e5 v=0
75840 On ch=2 n=f#4 v=0
75840 On ch=2 n=f#4 v=100
75936 On ch=2 n=a#4 v=0
75936 On ch=2 n=b4 v=100
75936 On ch=2 n=d5 v=100
76032 On ch=2 n=d5 v=0
76032 On ch=2 n=b4 v=0
76032 On ch=2 n=e5 v=100
76032 On ch=2 n=a#4 v=100
76080 On ch=2 n=a#4 v=0
76080 On ch=2 n=f#4 v=0
76080 On ch=2 n=e5 v=0
76128 On ch=2 n=f#3 v=100
76128 On ch=2 n=f#2 v=100
76224 On ch=2 n=f#2 v=0
76224 On ch=2 n=f#3 v=0
76320 On ch=2 n=b3 v=100
76320 On ch=2 n=d4 v=100
76320 On ch=2 n=g4 v=100
76416 On ch=2 n=g4 v=0
76416 On ch=2 n=d4 v=0
76416 On ch=2 n=b3 v=0
76416 On ch=2 n=f#3 v=100
76416 On ch=2 n=f#2 v=100
76512 On ch=2 n=f#2 v=0
76512 On ch=2 n=f#3 v=0
76608 On ch=2 n=a3 v=100
76608 On ch=2 n=c#4 v=100
76704 On ch=2 n=c#4 v=0
76704 On ch=2 n=a3 v=0
76704 On ch=2 n=f#2 v=100
76800 On ch=2 n=f#2 v=0
76800 On ch=2 n=g3 v=100
76800 On ch=2 n=b3 v=100
76896 On ch=2 n=b3 v=0
76896 On ch=2 n=g3 v=0
76896 On ch=2 n=f#3 v=100
76896 On ch=2 n=a3 v=100
76992 On ch=2 n=a3 v=0
76992 On ch=2 n=f#3 v=0
76992 On ch=2 n=f#2 v=100
77088 On ch=2 n=f#2 v=0
77088 On ch=2 n=e3 v=100
77088 On ch=2 n=g3 v=100
77184 On ch=2 n=e3 v=0
77184 On ch=2 n=c#3 v=100
77280 On ch=2 n=c#3 v=0
77664 On ch=2 n=b2 v=100
77760 On ch=2 n=b2 v=0
77760 On ch=2 n=a#2 v=100
77856 On ch=2 n=g3 v=0
77856 On ch=2 n=a#2 v=0
78144 On ch=2 n=g4 v=100
78240 On ch=2 n=g4 v=0
78240 On ch=2 n=g4 v=100
78336 On ch=2 n=g4 v=0
78336 On ch=2 n=g4 v=100
78336 On ch=2 n=c#4 v=100
78816 On ch=2 n=c#4 v=0
78816 On ch=2 n=b3 v=100
78912 On ch=2 n=b3 v=0
78912 On ch=2 n=a#3 v=100
78960 On ch=2 n=a#3 v=0
78960 On ch=2 n=g4 v=0
79008 On ch=2 n=c#5 v=100
79008 On ch=2 n=c#4 v=100
79104 On ch=2 n=c#4 v=0
79104 On ch=2 n=c#5 v=0
79104 On ch=2 n=b4 v=100
79104 On ch=2 n=b3 v=100
79200 On ch=2 n=b3 v=0
79200 On ch=2 n=b4 v=0
79200 On ch=2 n=a#4 v=100
79200 On ch=2 n=a#3 v=100
79296 On ch=2 n=a#3 v=0
79296 On ch=2 n=a#4 v=0
79296 On ch=2 n=g4 v=100
79296 On ch=2 n=g3 v=100
79392 On ch=2 n=g3 v=0
79392 On ch=2 n=g4 v=0
79392 On ch=2 n=a#3 v=100
79392 On ch=2 n=a#2 v=100
79488 On ch=2 n=a#2 v=0
79488 On ch=2 n=a#3 v=0
79488 On ch=2 n=b3 v=100
79488 On ch=2 n=b2 v=100
80064 On ch=2 n=b2 v=0
80064 On ch=2 n=b3 v=0
80064 On ch=2 n=a#3 v=100
80064 On ch=2 n=a#2 v=100
80256 On ch=2 n=a#2 v=0
80256 On ch=2 n=a#3 v=0
80256 On ch=2 n=a3 v=100
80256 On ch=2 n=a4 v=100
80352 On ch=2 n=a4 v=0
80352 On ch=2 n=a3 v=0
80352 On ch=2 n=g#4 v=100
80352 On ch=2 n=g#3 v=100
80448 On ch=2 n=g#3 v=0
80448 On ch=2 n=g#4 v=0
80448 On ch=2 n=g4 v=100
80448 On ch=2 n=g3 v=100
80544 On ch=2 n=g3 v=0
80544 On ch=2 n=g4 v=0
80544 On ch=2 n=a#3 v=100
80544 On ch=2 n=a#2 v=100
80640 On ch=2 n=a#2 v=0
80640 On ch=2 n=a#3 v=0
80640 On ch=2 n=b3 v=100
80640 On ch=2 n=b2 v=100
81504 On ch=2 n=b2 v=0
81504 On ch=2 n=b3 v=0
81504 On ch=2 n=b3 v=100
81504 On ch=2 n=b2 v=100
81600 On ch=2 n=b2 v=0
81600 On ch=2 n=b3 v=0
81600 On ch=2 n=b3 v=100
81600 On ch=2 n=b2 v=100
81696 On ch=2 n=b2 v=0
81696 On ch=2 n=b3 v=0
81696 On ch=2 n=a#3 v=100
81696 On ch=2 n=a#2 v=100
81792 On ch=2 n=a#2 v=0
81792 On ch=2 n=a#3 v=0
81792 On ch=2 n=b3 v=100
81792 On ch=2 n=b2 v=100
82080 On ch=2 n=b2 v=0
82080 On ch=2 n=b3 v=0
82080 On ch=2 n=b3 v=100
82080 On ch=2 n=b2 v=100
82176 On ch=2 n=b2 v=0
82176 On ch=2 n=b3 v=0
82176 On ch=2 n=b3 v=100
82176 On ch=2 n=b2 v=100
82272 On ch=2 n=b2 v=0
82272 On ch=2 n=b3 v=0
82272 On ch=2 n=a#3 v=100
82272 On ch=2 n=a#2 v=100
82368 On ch=2 n=a#2 v=0
82368 On ch=2 n=a#3 v=0
82368 On ch=2 n=b3 v=100
82368 On ch=2 n=b2 v=100
82656 On ch=2 n=b2 v=0
82656 On ch=2 n=b3 v=0
82656 On ch=2 n=b3 v=100
82656 On ch=2 n=b2 v=100
82752 On ch=2 n=b2 v=0
82752 On ch=2 n=b3 v=0
82752 On ch=2 n=c#4 v=100
82752 On ch=2 n=c#3 v=100
82848 On ch=2 n=c#3 v=0
82848 On ch=2 n=c#4 v=0
82848 On ch=2 n=d4 v=100
82848 On ch=2 n=d3 v=100
82944 On ch=2 n=d3 v=0
82944 On ch=2 n=d4 v=0
82944 On ch=2 n=e3 v=100
82944 On ch=2 n=e2 v=100
83232 On ch=2 n=e2 v=0
83232 On ch=2 n=e3 v=0
83232 On ch=2 n=e5 v=100
83232 On ch=2 n=e5 v=100
83808 On ch=2 n=e5 v=0
83808 On ch=2 n=e5 v=0
83808 On ch=2 n=d5 v=100
83904 On ch=2 n=d5 v=0
83904 On ch=2 n=c#5 v=100
84000 On ch=2 n=c#5 v=0
84000 On ch=2 n=b4 v=100
84096 On ch=2 n=b4 v=0
84096 On ch=2 n=c#5 v=100
84335 Par ch=2 c=64 v=127
84337 On ch=2 n=g4 v=100
84337 On ch=2 n=g3 v=100
84384 On ch=2 n=c#5 v=0
84385 On ch=2 n=g3 v=0
84385 On ch=2 n=g4 v=0
84385 On ch=2 n=e5 v=100
84385 On ch=2 n=e5 v=100
84960 Par ch=2 c=64 v=0
84961 On ch=2 n=e5 v=0
84961 On ch=2 n=e5 v=0
84961 On ch=2 n=d5 v=100
85057 On ch=2 n=d5 v=0
85057 On ch=2 n=c#5 v=100
85153 On ch=2 n=c#5 v=0
85153 On ch=2 n=b4 v=100
85248 On ch=2 n=c#5 v=100
85248 On ch=2 n=e5 v=100
85249 On ch=2 n=e5 v=0
85249 On ch=2 n=b4 v=0
85487 Par ch=2 c=64 v=127
85488 On ch=2 n=g3 v=100
85488 On ch=2 n=g4 v=100
85536 On ch=2 n=g4 v=0
85536 On ch=2 n=c#5 v=0
85536 On ch=2 n=g3 v=0
85536 On ch=2 n=e5 v=100
85824 On ch=2 n=e5 v=0
85824 On ch=2 n=c#5 v=100
85920 On ch=2 n=c#5 v=0
85920 Par ch=2 c=64 v=0
86063 Par ch=2 c=64 v=127
86064 On ch=2 n=g3 v=100
86064 On ch=2 n=g4 v=100
86112 On ch=2 n=g4 v=0
86112 On ch=2 n=g3 v=0
86112 On ch=2 n=f5 v=100
86400 On ch=2 n=f5 v=0
86400 On ch=2 n=c#5 v=100
86400 On ch=2 n=b4 v=100
86496 On ch=2 n=b4 v=0
86496 On ch=2 n=c#5 v=0
86496 Par ch=2 c=64 v=0
86639 Par ch=2 c=64 v=127
86640 On ch=2 n=f#3 v=100
86640 On ch=2 n=f#4 v=100
86688 On ch=2 n=f#4 v=0
86688 On ch=2 n=f#3 v=0
86688 On ch=2 n=f#5 v=100
86976 On ch=2 n=f#5 v=0
86976 On ch=2 n=c#5 v=100
86976 On ch=2 n=e5 v=100
87072 On ch=2 n=e5 v=0
87072 On ch=2 n=c#5 v=0
87072 Par ch=2 c=64 v=0
87215 Par ch=2 c=64 v=127
87216 On ch=2 n=f#3 v=100
87216 On ch=2 n=f#4 v=100
87264 On ch=2 n=f#4 v=0
87264 On ch=2 n=f#3 v=0
87264 On ch=2 n=f#5 v=100
87552 On ch=2 n=f#5 v=0
87552 Par ch=2 c=67 v=127
87552 Par ch=2 c=64 v=127
87552 On ch=2 n=b2 v=80
87600 On ch=2 n=b2 v=0
87600 On ch=2 n=f#4 v=80
87648 On ch=2 n=f#4 v=0
87648 On ch=2 n=b4 v=80
87696 On ch=2 n=b4 v=0
87696 On ch=2 n=b3 v=80
87744 On ch=2 n=b3 v=0
87744 On ch=2 n=f#4 v=80
87840 On ch=2 n=f#4 v=0
87840 Par ch=2 c=64 v=127
87840 On ch=2 n=b2 v=80
87888 On ch=2 n=b2 v=0
87888 On ch=2 n=f#4 v=80
87936 On ch=2 n=f#4 v=0
87936 On ch=2 n=b4 v=80
87984 On ch=2 n=b4 v=0
87984 On ch=2 n=b3 v=80
88032 On ch=2 n=b3 v=0
88032 On ch=2 n=f#4 v=80
88128 On ch=2 n=f#4 v=0
88128 Par ch=2 c=64 v=127
88128 On ch=2 n=b2 v=80
88176 On ch=2 n=b2 v=0
88176 On ch=2 n=f#4 v=80
88224 On ch=2 n=f#4 v=0
88224 On ch=2 n=b4 v=80
88272 On ch=2 n=b4 v=0
88272 On ch=2 n=b3 v=80
88320 On ch=2 n=b3 v=0
88320 On ch=2 n=f#4 v=80
88416 On ch=2 n=f#4 v=0
88416 Par ch=2 c=64 v=127
88416 On ch=2 n=b2 v=80
88464 On ch=2 n=b2 v=0
88464 On ch=2 n=f#4 v=80
88512 On ch=2 n=f#4 v=0
88512 On ch=2 n=b4 v=80
88560 On ch=2 n=b4 v=0
88560 On ch=2 n=b3 v=80
88608 On ch=2 n=b3 v=0
88608 On ch=2 n=f#4 v=80
88704 On ch=2 n=f#4 v=0
88704 Par ch=2 c=64 v=127
88704 On ch=2 n=b2 v=80
88752 On ch=2 n=b2 v=0
88752 On ch=2 n=f#4 v=80
88800 On ch=2 n=f#4 v=0
88800 On ch=2 n=b4 v=80
88848 On ch=2 n=b4 v=0
88848 On ch=2 n=b3 v=80
88896 On ch=2 n=b3 v=0
88896 On ch=2 n=f#4 v=80
88992 On ch=2 n=f#4 v=0
88992 Par ch=2 c=67 v=0
88992 Par ch=2 c=64 v=127
88992 On ch=2 n=c3 v=100
89040 On ch=2 n=c3 v=0
89040 On ch=2 n=g#4 v=100
89088 On ch=2 n=g#4 v=0
89088 On ch=2 n=d#5 v=100
89136 On ch=2 n=d#5 v=0
89136 On ch=2 n=c4 v=100
89184 On ch=2 n=c4 v=0
89184 On ch=2 n=g#4 v=100
89280 On ch=2 n=g#4 v=0
89280 Par ch=2 c=64 v=127
89280 On ch=2 n=c#3 v=100
89328 On ch=2 n=c#3 v=0
89328 On ch=2 n=a#4 v=100
89376 On ch=2 n=a#4 v=0
89376 On ch=2 n=c#5 v=100
89424 On ch=2 n=c#5 v=0
89424 On ch=2 n=c#4 v=100
89472 On ch=2 n=c#4 v=0
89472 On ch=2 n=b4 v=100
89568 On ch=2 n=b4 v=0
89568 Par ch=2 c=64 v=127
89568 On ch=2 n=f#3 v=100
89616 On ch=2 n=f#3 v=0
89616 On ch=2 n=c#4 v=100
89664 On ch=2 n=c#4 v=0
89664 On ch=2 n=a#4 v=100
89712 On ch=2 n=a#4 v=0
89712 On ch=2 n=f#3 v=100
89760 On ch=2 n=f#3 v=0
89760 On ch=2 n=a#4 v=100
89856 On ch=2 n=a#4 v=0
89856 Par ch=2 c=64 v=127
89856 On ch=2 n=b2 v=100
89904 On ch=2 n=b2 v=0
89904 On ch=2 n=f#4 v=100
89952 On ch=2 n=f#4 v=0
89952 On ch=2 n=b4 v=100
90000 On ch=2 n=b4 v=0
90000 On ch=2 n=b3 v=100
90048 On ch=2 n=b3 v=0
90048 On ch=2 n=f#4 v=100
90144 On ch=2 n=f#4 v=0
90144 Par ch=2 c=64 v=127
90144 On ch=2 n=b2 v=100
90192 On ch=2 n=b2 v=0
90192 On ch=2 n=f#4 v=100
90240 On ch=2 n=f#4 v=0
90240 On ch=2 n=b4 v=100
90288 On ch=2 n=b4 v=0
90288 On ch=2 n=b3 v=100
90336 On ch=2 n=b3 v=0
90336 On ch=2 n=f#4 v=100
90432 On ch=2 n=f#4 v=0
90432 Par ch=2 c=64 v=127
90432 On ch=2 n=b2 v=100
90480 On ch=2 n=b2 v=0
90480 On ch=2 n=f#4 v=100
90528 On ch=2 n=f#4 v=0
90528 On ch=2 n=b4 v=100
90576 On ch=2 n=b4 v=0
90576 On ch=2 n=b3 v=100
90624 On ch=2 n=b3 v=0
90624 On ch=2 n=f#4 v=100
90720 On ch=2 n=f#4 v=0
90720 Par ch=2 c=64 v=127
90720 On ch=2 n=b2 v=100
90768 On ch=2 n=b2 v=0
90768 On ch=2 n=f#4 v=100
90816 On ch=2 n=f#4 v=0
90816 On ch=2 n=b4 v=100
90864 On ch=2 n=b4 v=0
90864 On ch=2 n=b3 v=100
90912 On ch=2 n=b3 v=0
90912 On ch=2 n=f#4 v=100
91008 On ch=2 n=f#4 v=0
91008 Par ch=2 c=64 v=127
91008 On ch=2 n=b2 v=100
91056 On ch=2 n=b2 v=0
91056 On ch=2 n=f#4 v=100
91104 On ch=2 n=f#4 v=0
91104 On ch=2 n=b4 v=100
91152 On ch=2 n=b4 v=0
91152 On ch=2 n=b3 v=100
91200 On ch=2 n=b3 v=0
91200 On ch=2 n=f#4 v=100
91296 On ch=2 n=f#4 v=0
91296 Par ch=2 c=64 v=127
91296 On ch=2 n=d#3 v=100
91344 On ch=2 n=d#3 v=0
91344 On ch=2 n=f#4 v=100
91392 On ch=2 n=f#4 v=0
91392 On ch=2 n=a#4 v=100
91440 On ch=2 n=a#4 v=0
91440 On ch=2 n=d#4 v=100
91488 On ch=2 n=d#4 v=0
91488 On ch=2 n=f#4 v=100
91584 On ch=2 n=f#4 v=0
91584 Par ch=2 c=64 v=127
91584 On ch=2 n=c#3 v=100
91632 On ch=2 n=c#3 v=0
91632 On ch=2 n=g#4 v=100
91680 On ch=2 n=g#4 v=0
91680 On ch=2 n=c#5 v=100
91728 On ch=2 n=c#5 v=0
91728 On ch=2 n=c#4 v=100
91776 On ch=2 n=c#4 v=0
91776 On ch=2 n=f#4 v=100
91872 On ch=2 n=f#4 v=0
91872 Par ch=2 c=64 v=127
91872 On ch=2 n=b3 v=100
91920 On ch=2 n=b3 v=0
91920 On ch=2 n=f#4 v=100
91968 On ch=2 n=f#4 v=0
91968 On ch=2 n=b4 v=100
92016 On ch=2 n=b4 v=0
92016 On ch=2 n=b3 v=100
92064 On ch=2 n=b3 v=0
92064 On ch=2 n=f#4 v=100
92160 On ch=2 n=f#4 v=0
92160 Par ch=2 c=64 v=127
92160 On ch=2 n=g#3 v=100
92208 On ch=2 n=g#3 v=0
92208 On ch=2 n=e4 v=100
92256 On ch=2 n=e4 v=0
92256 On ch=2 n=b4 v=100
92304 On ch=2 n=b4 v=0
92304 On ch=2 n=g#3 v=100
92352 On ch=2 n=g#3 v=0
92352 On ch=2 n=b4 v=100
92448 On ch=2 n=b4 v=0
92448 Par ch=2 c=64 v=127
92448 On ch=2 n=a#3 v=100
92496 On ch=2 n=a#3 v=0
92496 On ch=2 n=e4 v=100
92544 On ch=2 n=e4 v=0
92544 On ch=2 n=c#5 v=100
92592 On ch=2 n=c#5 v=0
92592 On ch=2 n=a#3 v=100
92640 On ch=2 n=a#3 v=0
92640 On ch=2 n=f#4 v=100
92736 On ch=2 n=f#4 v=0
92736 Par ch=2 c=64 v=127
92736 On ch=2 n=b3 v=100
92784 On ch=2 n=b3 v=0
92784 On ch=2 n=f#4 v=100
92832 On ch=2 n=f#4 v=0
92832 On ch=2 n=d#5 v=100
92880 On ch=2 n=d#5 v=0
92880 On ch=2 n=b3 v=100
92928 On ch=2 n=b3 v=0
92928 On ch=2 n=g#4 v=100
93024 On ch=2 n=g#4 v=0
93024 Par ch=2 c=64 v=127
93024 On ch=2 n=c#4 v=100
93072 On ch=2 n=c#4 v=0
93072 On ch=2 n=g#4 v=100
93120 On ch=2 n=g#4 v=0
93120 On ch=2 n=e5 v=100
93168 On ch=2 n=e5 v=0
93168 On ch=2 n=c#4 v=100
93216 On ch=2 n=c#4 v=0
93216 On ch=2 n=a#4 v=100
93312 On ch=2 n=a#4 v=0
93312 Par ch=2 c=64 v=127
93312 On ch=2 n=d#4 v=100
93360 On ch=2 n=d#4 v=0
93360 On ch=2 n=c5 v=100
93408 On ch=2 n=c5 v=0
93408 On ch=2 n=f#5 v=100
93456 On ch=2 n=f#5 v=0
93456 On ch=2 n=d#4 v=100
93504 On ch=2 n=d#4 v=0
93504 On ch=2 n=f#5 v=100
93600 On ch=2 n=f#5 v=0
93600 Par ch=2 c=64 v=127
93600 On ch=2 n=e4 v=100
93648 On ch=2 n=e4 v=0
93648 On ch=2 n=c#5 v=100
93696 On ch=2 n=c#5 v=0
93696 On ch=2 n=e5 v=100
93744 On ch=2 n=e5 v=0
93744 On ch=2 n=e4 v=100
93792 On ch=2 n=e4 v=0
93792 On ch=2 n=c#5 v=100
93888 On ch=2 n=c#5 v=0
93888 Par ch=2 c=64 v=127
93888 On ch=2 n=e4 v=100
93936 On ch=2 n=e4 v=0
93936 On ch=2 n=b4 v=100
93936 On ch=2 n=b4 v=100
93984 On ch=2 n=b4 v=0
93984 On ch=2 n=b4 v=0
93984 On ch=2 n=e5 v=100
94032 On ch=2 n=e5 v=0
94032 On ch=2 n=e4 v=100
94080 On ch=2 n=e4 v=0
94080 On ch=2 n=a#4 v=100
94176 On ch=2 n=a#4 v=0
94176 Par ch=2 c=64 v=127
94176 On ch=2 n=d#4 v=100
94224 On ch=2 n=d#4 v=0
94224 On ch=2 n=a#4 v=100
94272 On ch=2 n=a#4 v=0
94272 On ch=2 n=d#5 v=100
94320 On ch=2 n=d#5 v=0
94320 On ch=2 n=d#4 v=100
94368 On ch=2 n=d#4 v=0
94368 On ch=2 n=a#4 v=100
94464 On ch=2 n=a#4 v=0
94464 Par ch=2 c=64 v=127
94464 On ch=2 n=d#4 v=100
94512 On ch=2 n=d#4 v=0
94512 On ch=2 n=a#4 v=100
94560 On ch=2 n=a#4 v=0
94560 On ch=2 n=d#5 v=100
94608 On ch=2 n=d#5 v=0
94608 On ch=2 n=d#4 v=100
94656 On ch=2 n=d#4 v=0
94656 On ch=2 n=a#4 v=100
94752 On ch=2 n=a#4 v=0
94752 Par ch=2 c=64 v=127
94752 On ch=2 n=e4 v=100
94800 On ch=2 n=e4 v=0
94800 On ch=2 n=a#4 v=100
94848 On ch=2 n=a#4 v=0
94848 On ch=2 n=e5 v=100
94896 On ch=2 n=e5 v=0
94896 On ch=2 n=e4 v=100
94944 On ch=2 n=e4 v=0
94944 On ch=2 n=a#4 v=100
95040 On ch=2 n=a#4 v=0
95040 Par ch=2 c=64 v=127
95040 On ch=2 n=d#4 v=100
95088 On ch=2 n=d#4 v=0
95088 On ch=2 n=a#4 v=100
95136 On ch=2 n=a#4 v=0
95136 On ch=2 n=d#5 v=100
95184 On ch=2 n=d#5 v=0
95184 On ch=2 n=d#4 v=100
95232 On ch=2 n=d#4 v=0
95232 On ch=2 n=a#4 v=100
95328 On ch=2 n=a#4 v=0
95328 Par ch=2 c=64 v=127
95328 On ch=2 n=e4 v=100
95376 On ch=2 n=e4 v=0
95376 On ch=2 n=a#4 v=100
95424 On ch=2 n=a#4 v=0
95424 On ch=2 n=e5 v=100
95472 On ch=2 n=e5 v=0
95472 On ch=2 n=e4 v=100
95520 On ch=2 n=e4 v=0
95520 On ch=2 n=a#4 v=100
95616 On ch=2 n=a#4 v=0
95616 Par ch=2 c=64 v=127
95616 On ch=2 n=d#4 v=100
95664 On ch=2 n=d#4 v=0
95664 On ch=2 n=a#4 v=100
95712 On ch=2 n=a#4 v=0
95712 On ch=2 n=d#5 v=100
95760 On ch=2 n=d#5 v=0
95760 On ch=2 n=d#4 v=100
95808 On ch=2 n=d#4 v=0
95808 On ch=2 n=a#4 v=100
95904 On ch=2 n=a#4 v=0
95904 Par ch=2 c=64 v=127
95904 On ch=2 n=e4 v=100
95952 On ch=2 n=e4 v=0
95952 On ch=2 n=a#4 v=100
96000 On ch=2 n=a#4 v=0
96000 On ch=2 n=e5 v=100
96048 On ch=2 n=e5 v=0
96048 On ch=2 n=e4 v=100
96096 On ch=2 n=e4 v=0
96096 On ch=2 n=a#4 v=100
96192 On ch=2 n=a#4 v=0
96192 Par ch=2 c=64 v=127
96192 On ch=2 n=e4 v=100
96240 On ch=2 n=e4 v=0
96240 On ch=2 n=a#4 v=100
96288 On ch=2 n=a#4 v=0
96288 On ch=2 n=e5 v=100
96336 On ch=2 n=e5 v=0
96336 On ch=2 n=e4 v=100
96384 On ch=2 n=e4 v=0
96384 On ch=2 n=a#4 v=100
96480 On ch=2 n=a#4 v=0
96480 Par ch=2 c=64 v=127
96480 On ch=2 n=f#4 v=100
96528 On ch=2 n=f#4 v=0
96528 On ch=2 n=a#4 v=100
96576 On ch=2 n=a#4 v=0
96576 On ch=2 n=e5 v=100
96624 On ch=2 n=e5 v=0
96624 On ch=2 n=f#4 v=100
96672 On ch=2 n=f#4 v=0
96672 On ch=2 n=a#4 v=100
96768 On ch=2 n=a#4 v=0
96768 Par ch=2 c=64 v=127
96768 Par ch=2 c=67 v=127
96768 On ch=2 n=b2 v=80
96816 On ch=2 n=b2 v=0
96816 On ch=2 n=f#4 v=80
96864 On ch=2 n=f#4 v=0
96864 On ch=2 n=b4 v=80
96912 On ch=2 n=b4 v=0
96912 On ch=2 n=b3 v=80
96960 On ch=2 n=b3 v=0
96960 On ch=2 n=f#4 v=80
97056 On ch=2 n=f#4 v=0
97056 Par ch=2 c=64 v=127
97056 On ch=2 n=b2 v=80
97104 On ch=2 n=b2 v=0
97104 On ch=2 n=f#4 v=80
97152 On ch=2 n=f#4 v=0
97152 On ch=2 n=b4 v=80
97200 On ch=2 n=b4 v=0
97200 On ch=2 n=b3 v=80
97248 On ch=2 n=b3 v=0
97248 On ch=2 n=f#4 v=80
97344 On ch=2 n=f#4 v=0
97344 Par ch=2 c=64 v=127
97344 On ch=2 n=b2 v=80
97392 On ch=2 n=b2 v=0
97392 On ch=2 n=f#4 v=80
97440 On ch=2 n=f#4 v=0
97440 On ch=2 n=b4 v=80
97488 On ch=2 n=b4 v=0
97488 On ch=2 n=b3 v=80
97536 On ch=2 n=b3 v=0
97536 On ch=2 n=f#4 v=80
97632 On ch=2 n=f#4 v=0
97632 Par ch=2 c=64 v=127
97632 On ch=2 n=b2 v=80
97680 On ch=2 n=b2 v=0
97680 On ch=2 n=f#4 v=80
97728 On ch=2 n=f#4 v=0
97728 On ch=2 n=b4 v=80
97776 On ch=2 n=b4 v=0
97776 On ch=2 n=b3 v=80
97824 On ch=2 n=b3 v=0
97824 On ch=2 n=f#4 v=80
97920 On ch=2 n=f#4 v=0
97920 Par ch=2 c=64 v=127
97920 On ch=2 n=b2 v=80
97968 On ch=2 n=b2 v=0
97968 On ch=2 n=f#4 v=80
98016 On ch=2 n=f#4 v=0
98016 On ch=2 n=b4 v=80
98064 On ch=2 n=b4 v=0
98064 On ch=2 n=b3 v=80
98112 On ch=2 n=b3 v=0
98112 On ch=2 n=f#4 v=80
98208 On ch=2 n=f#4 v=0
98208 Par ch=2 c=64 v=127
98208 Par ch=2 c=67 v=0
98208 On ch=2 n=c3 v=100
98256 On ch=2 n=c3 v=0
98256 On ch=2 n=g#4 v=100
98304 On ch=2 n=g#4 v=0
98304 On ch=2 n=d#5 v=100
98352 On ch=2 n=d#5 v=0
98352 On ch=2 n=c4 v=100
98400 On ch=2 n=c4 v=0
98400 On ch=2 n=g#4 v=100
98496 On ch=2 n=g#4 v=0
98496 Par ch=2 c=64 v=127
98496 On ch=2 n=c#3 v=100
98544 On ch=2 n=c#3 v=0
98544 On ch=2 n=a#4 v=100
98592 On ch=2 n=a#4 v=0
98592 On ch=2 n=c#5 v=100
98640 On ch=2 n=c#5 v=0
98640 On ch=2 n=c#4 v=100
98688 On ch=2 n=c#4 v=0
98688 On ch=2 n=b4 v=100
98784 On ch=2 n=b4 v=0
98784 Par ch=2 c=64 v=127
98784 On ch=2 n=f#3 v=100
98832 On ch=2 n=f#3 v=0
98832 On ch=2 n=c#4 v=100
98880 On ch=2 n=c#4 v=0
98880 On ch=2 n=a#4 v=100
98928 On ch=2 n=a#4 v=0
98928 On ch=2 n=f#3 v=100
98976 On ch=2 n=f#3 v=0
98976 On ch=2 n=a#4 v=100
99072 On ch=2 n=a#4 v=0
99072 Par ch=2 c=64 v=127
99072 On ch=2 n=b2 v=100
99120 On ch=2 n=b2 v=0
99120 On ch=2 n=f#4 v=100
99168 On ch=2 n=f#4 v=0
99168 On ch=2 n=b4 v=100
99216 On ch=2 n=b4 v=0
99216 On ch=2 n=b3 v=100
99264 On ch=2 n=b3 v=0
99264 On ch=2 n=f#4 v=100
99360 On ch=2 n=f#4 v=0
99360 Par ch=2 c=64 v=127
99360 On ch=2 n=b2 v=100
99408 On ch=2 n=b2 v=0
99408 On ch=2 n=f#4 v=100
99456 On ch=2 n=f#4 v=0
99456 On ch=2 n=b4 v=100
99504 On ch=2 n=b4 v=0
99504 On ch=2 n=b3 v=100
99552 On ch=2 n=b3 v=0
99552 On ch=2 n=f#4 v=100
99648 On ch=2 n=f#4 v=0
99648 Par ch=2 c=64 v=127
99648 On ch=2 n=b2 v=100
99696 On ch=2 n=b2 v=0
99696 On ch=2 n=f#4 v=100
99744 On ch=2 n=f#4 v=0
99744 On ch=2 n=b4 v=100
99792 On ch=2 n=b4 v=0
99792 On ch=2 n=b3 v=100
99840 On ch=2 n=b3 v=0
99840 On ch=2 n=f#4 v=100
99936 On ch=2 n=f#4 v=0
99936 Par ch=2 c=64 v=127
99936 On ch=2 n=b2 v=100
99984 On ch=2 n=b2 v=0
99984 On ch=2 n=f#4 v=100
100032 On ch=2 n=f#4 v=0
100032 On ch=2 n=b4 v=100
100080 On ch=2 n=b4 v=0
100080 On ch=2 n=b3 v=100
100128 On ch=2 n=b3 v=0
100128 On ch=2 n=f#4 v=100
100224 On ch=2 n=f#4 v=0
100224 Par ch=2 c=64 v=127
100224 On ch=2 n=b2 v=100
100272 On ch=2 n=b2 v=0
100272 On ch=2 n=f#4 v=100
100320 On ch=2 n=f#4 v=0
100320 On ch=2 n=b4 v=100
100368 On ch=2 n=b4 v=0
100368 On ch=2 n=b3 v=100
100416 On ch=2 n=b3 v=0
100416 On ch=2 n=f#4 v=100
100512 On ch=2 n=f#4 v=0
100512 Par ch=2 c=64 v=127
100512 On ch=2 n=d#3 v=100
100560 On ch=2 n=d#3 v=0
100560 On ch=2 n=f#4 v=100
100608 On ch=2 n=f#4 v=0
100608 On ch=2 n=a#4 v=100
100656 On ch=2 n=a#4 v=0
100656 On ch=2 n=d#4 v=100
100704 On ch=2 n=d#4 v=0
100704 On ch=2 n=f#4 v=100
100800 On ch=2 n=f#4 v=0
100800 Par ch=2 c=64 v=127
100800 On ch=2 n=c#3 v=100
100848 On ch=2 n=c#3 v=0
100848 On ch=2 n=g#4 v=100
100896 On ch=2 n=g#4 v=0
100896 On ch=2 n=c#5 v=100
100944 On ch=2 n=c#5 v=0
100944 On ch=2 n=c#4 v=100
100992 On ch=2 n=c#4 v=0
100992 On ch=2 n=f#4 v=100
101088 On ch=2 n=f#4 v=0
101088 Par ch=2 c=64 v=127
101088 On ch=2 n=b3 v=100
101136 On ch=2 n=b3 v=0
101136 On ch=2 n=f#4 v=100
101184 On ch=2 n=f#4 v=0
101184 On ch=2 n=b4 v=100
101232 On ch=2 n=b4 v=0
101232 On ch=2 n=b3 v=100
101280 On ch=2 n=b3 v=0
101280 On ch=2 n=f#4 v=100
101376 On ch=2 n=f#4 v=0
101376 Par ch=2 c=64 v=127
101376 On ch=2 n=g#3 v=100
101424 On ch=2 n=g#3 v=0
101424 On ch=2 n=e4 v=100
101472 On ch=2 n=e4 v=0
101472 On ch=2 n=b4 v=100
101520 On ch=2 n=b4 v=0
101520 On ch=2 n=g#3 v=100
101568 On ch=2 n=g#3 v=0
101568 On ch=2 n=b4 v=100
101664 On ch=2 n=b4 v=0
101664 Par ch=2 c=64 v=127
101664 On ch=2 n=a#3 v=100
101712 On ch=2 n=a#3 v=0
101712 On ch=2 n=e4 v=100
101760 On ch=2 n=e4 v=0
101760 On ch=2 n=c#5 v=100
101808 On ch=2 n=c#5 v=0
101808 On ch=2 n=a#3 v=100
101856 On ch=2 n=a#3 v=0
101856 On ch=2 n=f#4 v=100
101952 On ch=2 n=f#4 v=0
101952 Par ch=2 c=64 v=127
101952 On ch=2 n=b3 v=100
102000 On ch=2 n=b3 v=0
102000 On ch=2 n=f#4 v=100
102048 On ch=2 n=f#4 v=0
102048 On ch=2 n=d#5 v=100
102096 On ch=2 n=d#5 v=0
102096 On ch=2 n=b3 v=100
102144 On ch=2 n=b3 v=0
102144 On ch=2 n=g#4 v=100
102240 On ch=2 n=g#4 v=0
102240 Par ch=2 c=64 v=127
102240 On ch=2 n=c#4 v=100
102288 On ch=2 n=c#4 v=0
102288 On ch=2 n=g#4 v=100
102336 On ch=2 n=g#4 v=0
102336 On ch=2 n=e5 v=100
102384 On ch=2 n=e5 v=0
102384 On ch=2 n=c#4 v=100
102432 On ch=2 n=c#4 v=0
102432 On ch=2 n=a#4 v=100
102528 On ch=2 n=a#4 v=0
102528 Par ch=2 c=64 v=127
102528 On ch=2 n=d#4 v=100
102576 On ch=2 n=d#4 v=0
102576 On ch=2 n=c5 v=100
102624 On ch=2 n=c5 v=0
102624 On ch=2 n=f#5 v=100
102672 On ch=2 n=f#5 v=0
102672 On ch=2 n=d#4 v=100
102720 On ch=2 n=d#4 v=0
102720 On ch=2 n=f#5 v=100
102816 On ch=2 n=f#5 v=0
102816 Par ch=2 c=64 v=127
102816 On ch=2 n=e4 v=100
102864 On ch=2 n=e4 v=0
102864 On ch=2 n=c#5 v=100
102912 On ch=2 n=c#5 v=0
102912 On ch=2 n=e5 v=100
102960 On ch=2 n=e5 v=0
102960 On ch=2 n=e4 v=100
103008 On ch=2 n=e4 v=0
103008 On ch=2 n=c#5 v=100
103104 On ch=2 n=c#5 v=0
103104 Par ch=2 c=64 v=127
103104 On ch=2 n=e4 v=100
103152 On ch=2 n=e4 v=0
103152 On ch=2 n=b4 v=100
103152 On ch=2 n=b4 v=100
103200 On ch=2 n=b4 v=0
103200 On ch=2 n=b4 v=0
103200 On ch=2 n=e5 v=100
103248 On ch=2 n=e5 v=0
103248 On ch=2 n=e4 v=100
103296 On ch=2 n=e4 v=0
103296 On ch=2 n=a#4 v=100
103392 On ch=2 n=a#4 v=0
103392 Par ch=2 c=64 v=127
103392 On ch=2 n=d#4 v=100
103440 On ch=2 n=d#4 v=0
103440 On ch=2 n=a#4 v=100
103488 On ch=2 n=a#4 v=0
103488 On ch=2 n=d#5 v=100
103536 On ch=2 n=d#5 v=0
103536 On ch=2 n=d#4 v=100
103584 On ch=2 n=d#4 v=0
103584 On ch=2 n=a#4 v=100
103680 On ch=2 n=a#4 v=0
103680 Par ch=2 c=64 v=127
103680 On ch=2 n=d#4 v=100
103728 On ch=2 n=d#4 v=0
103728 On ch=2 n=a#4 v=100
103776 On ch=2 n=a#4 v=0
103776 On ch=2 n=d#5 v=100
103824 On ch=2 n=d#5 v=0
103824 On ch=2 n=d#4 v=100
103872 On ch=2 n=d#4 v=0
103872 On ch=2 n=a#4 v=100
103968 On ch=2 n=a#4 v=0
103968 Par ch=2 c=64 v=127
103968 On ch=2 n=e4 v=100
104016 On ch=2 n=e4 v=0
104016 On ch=2 n=a#4 v=100
104064 On ch=2 n=a#4 v=0
104064 On ch=2 n=e5 v=100
104112 On ch=2 n=e5 v=0
104112 On ch=2 n=e4 v=100
104160 On ch=2 n=e4 v=0
104160 On ch=2 n=a#4 v=100
104256 On ch=2 n=a#4 v=0
104256 Par ch=2 c=64 v=127
104256 On ch=2 n=d#4 v=100
104304 On ch=2 n=d#4 v=0
104304 On ch=2 n=a#4 v=100
104352 On ch=2 n=a#4 v=0
104352 On ch=2 n=d#5 v=100
104400 On ch=2 n=d#5 v=0
104400 On ch=2 n=d#4 v=100
104448 On ch=2 n=d#4 v=0
104448 On ch=2 n=a#4 v=100
104544 On ch=2 n=a#4 v=0
104544 Par ch=2 c=64 v=127
104544 On ch=2 n=e4 v=100
104592 On ch=2 n=e4 v=0
104592 On ch=2 n=a#4 v=100
104640 On ch=2 n=a#4 v=0
104640 On ch=2 n=e5 v=100
104688 On ch=2 n=e5 v=0
104688 On ch=2 n=e4 v=100
104736 On ch=2 n=e4 v=0
104736 On ch=2 n=a#4 v=100
104832 On ch=2 n=a#4 v=0
104832 Par ch=2 c=64 v=127
104832 On ch=2 n=d#4 v=90
104880 On ch=2 n=d#4 v=0
104880 On ch=2 n=a#4 v=90
104928 On ch=2 n=a#4 v=0
104928 On ch=2 n=d#5 v=90
104976 On ch=2 n=d#5 v=0
104976 On ch=2 n=d#4 v=90
105024 On ch=2 n=d#4 v=0
105024 On ch=2 n=a#4 v=90
105120 On ch=2 n=a#4 v=0
105120 Par ch=2 c=64 v=127
105120 On ch=2 n=e4 v=86
105168 On ch=2 n=e4 v=0
105168 On ch=2 n=a#4 v=86
105216 On ch=2 n=a#4 v=0
105216 On ch=2 n=e5 v=86
105264 On ch=2 n=e5 v=0
105264 On ch=2 n=e4 v=86
105312 On ch=2 n=e4 v=0
105312 On ch=2 n=a#4 v=86
105408 On ch=2 n=a#4 v=0
105408 Par ch=2 c=64 v=127
105408 On ch=2 n=e4 v=82
105456 On ch=2 n=e4 v=0
105456 On ch=2 n=a#4 v=82
105504 On ch=2 n=a#4 v=0
105504 On ch=2 n=e5 v=82
105552 On ch=2 n=e5 v=0
105552 On ch=2 n=e4 v=82
105600 On ch=2 n=e4 v=0
105600 On ch=2 n=a#4 v=82
105696 On ch=2 n=a#4 v=0
105696 Par ch=2 c=64 v=127
105696 On ch=2 n=f#4 v=78
105744 On ch=2 n=f#4 v=0
105744 On ch=2 n=a#4 v=72
105792 On ch=2 n=a#4 v=0
105792 On ch=2 n=e5 v=68
105840 On ch=2 n=e5 v=0
105840 On ch=2 n=f#4 v=64
105888 On ch=2 n=f#4 v=0
105888 On ch=2 n=a#4 v=62
105984 On ch=2 n=a#4 v=0
105984 Par ch=2 c=67 v=127
105984 Par ch=2 c=64 v=127
105984 On ch=2 n=b2 v=56
106032 On ch=2 n=b2 v=0
106032 On ch=2 n=f#4 v=56
106080 On ch=2 n=f#4 v=0
106080 On ch=2 n=b4 v=56
106128 On ch=2 n=b4 v=0
106128 On ch=2 n=b3 v=56
106176 On ch=2 n=b3 v=0
106176 On ch=2 n=f#4 v=56
106272 On ch=2 n=f#4 v=0
106272 Par ch=2 c=64 v=127
106272 On ch=2 n=b2 v=56
106320 On ch=2 n=b2 v=0
106320 On ch=2 n=f#4 v=56
106368 On ch=2 n=f#4 v=0
106368 On ch=2 n=b4 v=56
106416 On ch=2 n=b4 v=0
106416 On ch=2 n=b3 v=56
106464 On ch=2 n=b3 v=0
106464 On ch=2 n=f#4 v=56
106560 On ch=2 n=f#4 v=0
106560 Par ch=2 c=64 v=127
106560 On ch=2 n=b2 v=56
106608 On ch=2 n=b2 v=0
106608 On ch=2 n=f#4 v=56
106656 On ch=2 n=f#4 v=0
106656 On ch=2 n=b4 v=56
106704 On ch=2 n=b4 v=0
106704 On ch=2 n=b3 v=56
106752 On ch=2 n=b3 v=0
106752 On ch=2 n=f#4 v=56
106848 On ch=2 n=f#4 v=0
106848 Par ch=2 c=64 v=127
106848 On ch=2 n=b2 v=56
106896 On ch=2 n=b2 v=0
106896 On ch=2 n=f#4 v=56
106944 On ch=2 n=f#4 v=0
106944 On ch=2 n=b4 v=56
106992 On ch=2 n=b4 v=0
106992 On ch=2 n=b3 v=56
107040 On ch=2 n=b3 v=0
107040 On ch=2 n=f#4 v=56
107136 On ch=2 n=f#4 v=0
107136 Par ch=2 c=64 v=127
107136 On ch=2 n=b2 v=56
107184 On ch=2 n=b2 v=0
107184 On ch=2 n=f#4 v=56
107232 On ch=2 n=f#4 v=0
107232 On ch=2 n=b4 v=56
107280 On ch=2 n=b4 v=0
107280 On ch=2 n=b3 v=56
107328 On ch=2 n=b3 v=0
107328 On ch=2 n=f#4 v=56
107424 On ch=2 n=f#4 v=0
107424 Par ch=2 c=67 v=0
107424 Par ch=2 c=64 v=127
107424 On ch=2 n=c3 v=70
107472 On ch=2 n=c3 v=0
107472 On ch=2 n=a#4 v=70
107472 On ch=2 n=a#4 v=100
107520 On ch=2 n=a#4 v=0
107520 On ch=2 n=a#4 v=0
107520 On ch=2 n=d#5 v=70
107568 On ch=2 n=d#5 v=0
107568 On ch=2 n=c4 v=70
107616 On ch=2 n=c4 v=0
107616 On ch=2 n=g#4 v=70
107712 On ch=2 n=g#4 v=0
107712 Par ch=2 c=64 v=127
107712 On ch=2 n=c#3 v=70
107760 On ch=2 n=c#3 v=0
107760 On ch=2 n=g#4 v=70
107808 On ch=2 n=g#4 v=0
107808 On ch=2 n=c#5 v=70
107856 On ch=2 n=c#5 v=0
107856 On ch=2 n=c#4 v=70
107904 On ch=2 n=c#4 v=0
107904 On ch=2 n=b4 v=70
108000 On ch=2 n=b4 v=0
108000 Par ch=2 c=64 v=127
108000 On ch=2 n=f#3 v=70
108048 On ch=2 n=f#3 v=0
108048 On ch=2 n=c#4 v=70
108096 On ch=2 n=c#4 v=0
108096 On ch=2 n=a#4 v=70
108144 On ch=2 n=a#4 v=0
108144 On ch=2 n=f#3 v=70
108192 On ch=2 n=f#3 v=0
108192 On ch=2 n=a#4 v=70
108288 On ch=2 n=a#4 v=0
108288 Par ch=2 c=64 v=127
108288 On ch=2 n=f#3 v=70
108336 On ch=2 n=f#3 v=0
108336 On ch=2 n=c4 v=70
108384 On ch=2 n=c4 v=0
108384 On ch=2 n=a4 v=70
108432 On ch=2 n=a4 v=0
108432 On ch=2 n=f#3 v=70
108480 On ch=2 n=f#3 v=0
108480 On ch=2 n=a4 v=70
108576 On ch=2 n=a4 v=0
108576 Par ch=2 c=64 v=127
108576 On ch=2 n=f#3 v=70
108624 On ch=2 n=f#3 v=0
108624 On ch=2 n=c4 v=70
108672 On ch=2 n=c4 v=0
108672 On ch=2 n=g#4 v=70
108720 On ch=2 n=g#4 v=0
108720 On ch=2 n=f#3 v=70
108768 On ch=2 n=f#3 v=0
108768 On ch=2 n=g#4 v=70
108864 On ch=2 n=g#4 v=0
108864 Par ch=2 c=64 v=127
108864 On ch=2 n=f#3 v=70
108912 On ch=2 n=f#3 v=0
108912 On ch=2 n=e4 v=70
108960 On ch=2 n=e4 v=0
108960 On ch=2 n=g#4 v=70
109008 On ch=2 n=g#4 v=0
109008 On ch=2 n=f#3 v=70
109056 On ch=2 n=f#3 v=0
109056 On ch=2 n=g#4 v=70
109152 On ch=2 n=g#4 v=0
109152 Par ch=2 c=64 v=127
109152 On ch=2 n=f#3 v=70
109200 On ch=2 n=f#3 v=0
109200 On ch=2 n=e4 v=70
109248 On ch=2 n=e4 v=0
109248 On ch=2 n=a#4 v=70
109296 On ch=2 n=a#4 v=0
109296 On ch=2 n=f#3 v=70
109344 On ch=2 n=f#3 v=0
109344 On ch=2 n=a#4 v=70
109440 On ch=2 n=a#4 v=0
109440 Par ch=2 c=64 v=127
109440 On ch=2 n=b2 v=70
109488 On ch=2 n=b2 v=0
109488 On ch=2 n=f#4 v=70
109536 On ch=2 n=f#4 v=0
109536 On ch=2 n=b4 v=70
109584 On ch=2 n=b4 v=0
109584 On ch=2 n=b3 v=70
109632 On ch=2 n=b3 v=0
109632 On ch=2 n=f#4 v=70
109728 On ch=2 n=f#4 v=0
109728 Par ch=2 c=64 v=127
109728 On ch=2 n=c3 v=70
109776 On ch=2 n=c3 v=0
109776 On ch=2 n=f#4 v=70
109824 On ch=2 n=f#4 v=0
109824 On ch=2 n=a4 v=70
109872 On ch=2 n=a4 v=0
109872 On ch=2 n=c4 v=70
109920 On ch=2 n=c4 v=0
109920 On ch=2 n=f#4 v=70
110016 On ch=2 n=f#4 v=0
110016 On ch=2 n=c#3 v=70
110064 On ch=2 n=c#3 v=0
110064 On ch=2 n=f#4 v=70
110112 On ch=2 n=f#4 v=0
110112 On ch=2 n=a4 v=70
110160 On ch=2 n=a4 v=0
110160 On ch=2 n=c#4 v=70
110208 On ch=2 n=f4 v=70
110208 On ch=2 n=g#4 v=70
110592 On ch=2 n=g#4 v=0
110592 On ch=2 n=f4 v=0
110592 On ch=2 n=c#4 v=0
110592 Par ch=2 c=64 v=127
110592 On ch=2 n=a5 v=112
110592 On ch=2 n=c#6 v=100
110592 On ch=2 n=e6 v=100
110592 On ch=2 n=g6 v=100
110880 On ch=2 n=g6 v=0
110880 On ch=2 n=e6 v=0
110880 On ch=2 n=c#6 v=0
110880 On ch=2 n=a5 v=0
111168 Par ch=2 c=64 v=127
111168 On ch=2 n=a#3 v=112
111168 On ch=2 n=a#2 v=100
111264 On ch=2 n=a#2 v=0
111264 On ch=2 n=a#3 v=0
111360 Par ch=2 c=64 v=0
111744 On ch=2 n=f3 v=100
111744 On ch=2 n=d4 v=100
111792 On ch=2 n=d4 v=0
111792 On ch=2 n=f3 v=0
111792 On ch=2 n=f#3 v=100
111840 On ch=2 n=f#3 v=0
111840 On ch=2 n=b2 v=100
111888 On ch=2 n=b2 v=0
112032 On ch=2 n=e4 v=100
112032 On ch=2 n=g4 v=100
112128 On ch=2 n=g4 v=0
112128 On ch=2 n=e4 v=0
112128 On ch=2 n=d4 v=100
112128 On ch=2 n=f#4 v=100
112224 On ch=2 n=f#4 v=0
112224 On ch=2 n=d4 v=0
112320 On ch=2 n=f3 v=100
112320 On ch=2 n=d4 v=100
112368 On ch=2 n=d4 v=0
112368 On ch=2 n=f3 v=0
112368 On ch=2 n=f#3 v=100
112416 On ch=2 n=f#3 v=0
112416 On ch=2 n=b2 v=100
112464 On ch=2 n=b2 v=0
112608 On ch=2 n=e4 v=100
112608 On ch=2 n=g4 v=100
112704 On ch=2 n=g4 v=0
112704 On ch=2 n=e4 v=0
112704 On ch=2 n=d4 v=100
112704 On ch=2 n=f#4 v=100
112800 On ch=2 n=f#4 v=0
112800 On ch=2 n=d4 v=0
112896 On ch=2 n=b3 v=100
112992 On ch=2 n=b3 v=0
113184 On ch=2 n=f#4 v=100
113184 On ch=2 n=d5 v=100
113280 On ch=2 n=d5 v=0
113280 On ch=2 n=f#4 v=0
113280 On ch=2 n=b3 v=100
113376 On ch=2 n=b3 v=0
113376 On ch=2 n=f#4 v=100
113376 On ch=2 n=d5 v=100
113472 On ch=2 n=d5 v=0
113472 On ch=2 n=f#4 v=0
113472 On ch=2 n=b3 v=100
113568 On ch=2 n=b3 v=0
113568 On ch=2 n=f#4 v=100
113568 On ch=2 n=d5 v=100
113664 On ch=2 n=d5 v=0
113664 On ch=2 n=f#4 v=0
113664 On ch=2 n=b3 v=100
113760 On ch=2 n=b3 v=0
113760 On ch=2 n=f#4 v=100
113760 On ch=2 n=d5 v=100
113856 On ch=2 n=d5 v=0
113856 On ch=2 n=f#4 v=0
114048 On ch=2 n=f#3 v=100
114048 On ch=2 n=e4 v=100
114096 On ch=2 n=e4 v=0
114096 On ch=2 n=f#3 v=0
114096 On ch=2 n=g3 v=100
114144 On ch=2 n=g3 v=0
114144 On ch=2 n=b2 v=100
114192 On ch=2 n=b2 v=0
114336 On ch=2 n=a4 v=100
114336 On ch=2 n=c5 v=100
114432 On ch=2 n=c5 v=0
114432 On ch=2 n=a4 v=0
114432 On ch=2 n=g4 v=100
114432 On ch=2 n=b4 v=100
114528 On ch=2 n=b4 v=0
114528 On ch=2 n=g4 v=0
114624 On ch=2 n=f#3 v=100
114624 On ch=2 n=e4 v=100
114672 On ch=2 n=e4 v=0
114672 On ch=2 n=f#3 v=0
114672 On ch=2 n=g3 v=100
114720 On ch=2 n=g3 v=0
114720 On ch=2 n=b2 v=100
114768 On ch=2 n=b2 v=0
114912 On ch=2 n=a4 v=100
114912 On ch=2 n=c5 v=100
115008 On ch=2 n=c5 v=0
115008 On ch=2 n=a4 v=0
115008 On ch=2 n=g4 v=100
115008 On ch=2 n=b4 v=100
115104 On ch=2 n=b4 v=0
115104 On ch=2 n=g4 v=0
115200 On ch=2 n=b3 v=100
115296 On ch=2 n=b3 v=0
115488 On ch=2 n=g4 v=100
115488 On ch=2 n=e5 v=100
115584 On ch=2 n=e5 v=0
115584 On ch=2 n=g4 v=0
115584 On ch=2 n=b3 v=100
115680 On ch=2 n=b3 v=0
115680 On ch=2 n=g4 v=100
115680 On ch=2 n=e5 v=100
115776 On ch=2 n=e5 v=0
115776 On ch=2 n=g4 v=0
115776 On ch=2 n=b3 v=100
115872 On ch=2 n=b3 v=0
115872 On ch=2 n=g4 v=100
115872 On ch=2 n=e5 v=100
115968 On ch=2 n=e5 v=0
115968 On ch=2 n=g4 v=0
115968 On ch=2 n=b3 v=100
116064 On ch=2 n=b3 v=0
116064 On ch=2 n=g4 v=100
116064 On ch=2 n=e5 v=100
116160 On ch=2 n=e5 v=0
116160 On ch=2 n=g4 v=0
116352 On ch=2 n=a#5 v=100
116352 On ch=2 n=c#6 v=100
116352 On ch=2 n=e6 v=100
116352 On ch=2 n=f#6 v=100
116448 On ch=2 n=f#6 v=0
116448 On ch=2 n=g6 v=100
116640 On ch=2 n=g6 v=0
116640 On ch=2 n=e6 v=0
116640 On ch=2 n=c#6 v=0
116640 On ch=2 n=a#5 v=0
116640 On ch=2 n=b5 v=100
116640 On ch=2 n=d6 v=100
116640 On ch=2 n=g6 v=100
116736 On ch=2 n=g6 v=0
116736 On ch=2 n=d6 v=0
116736 On ch=2 n=b5 v=0
116736 On ch=2 n=f#5 v=100
116736 On ch=2 n=f#4 v=100
116832 On ch=2 n=f#4 v=0
116832 On ch=2 n=f#5 v=0
116928 On ch=2 n=a5 v=100
116928 On ch=2 n=c#6 v=100
117024 On ch=2 n=c#6 v=0
117024 On ch=2 n=a5 v=0
117024 On ch=2 n=f#4 v=100
117120 On ch=2 n=f#4 v=0
117120 On ch=2 n=g5 v=100
117120 On ch=2 n=b5 v=100
117216 On ch=2 n=b5 v=0
117216 On ch=2 n=g5 v=0
117216 On ch=2 n=f#5 v=100
117216 On ch=2 n=a5 v=100
117312 On ch=2 n=a5 v=0
117312 On ch=2 n=f#5 v=0
117312 On ch=2 n=f#4 v=100
117408 On ch=2 n=f#4 v=0
117408 On ch=2 n=e5 v=100
117408 On ch=2 n=g5 v=100
117504 On ch=2 n=g5 v=0
117504 On ch=2 n=e5 v=0
117504 On ch=2 n=c#5 v=100
117504 On ch=2 n=g5 v=100
117600 On ch=2 n=g5 v=0
117600 On ch=2 n=f#4 v=100
117696 On ch=2 n=c#5 v=0
117696 On ch=2 n=d5 v=100
117696 On ch=2 n=f#5 v=100
117792 On ch=2 n=f#5 v=0
117792 On ch=2 n=f#4 v=0
117792 On ch=2 n=d5 v=0
117792 On ch=2 n=c#5 v=100
117792 On ch=2 n=g5 v=100
117888 On ch=2 n=g5 v=0
117888 On ch=2 n=f#4 v=100
117984 On ch=2 n=c#5 v=0
117984 On ch=2 n=d5 v=100
117984 On ch=2 n=f#5 v=100
118080 On ch=2 n=f#5 v=0
118080 On ch=2 n=d5 v=0
118080 On ch=2 n=b4 v=100
118080 On ch=2 n=f5 v=100
118176 On ch=2 n=f5 v=0
118176 On ch=2 n=f#4 v=0
118176 On ch=2 n=f#4 v=100
118272 On ch=2 n=b4 v=0
118272 On ch=2 n=c#5 v=100
118272 On ch=2 n=e5 v=100
118368 On ch=2 n=c#5 v=0
118368 On ch=2 n=a#4 v=100
118464 On ch=2 n=e5 v=0
118464 On ch=2 n=f#4 v=0
118464 On ch=2 n=f#4 v=100
118560 On ch=2 n=a#4 v=0
118560 On ch=2 n=b4 v=100
118560 On ch=2 n=d5 v=100
118656 On ch=2 n=d5 v=0
118656 On ch=2 n=b4 v=0
118656 On ch=2 n=e5 v=100
118656 On ch=2 n=a#4 v=100
118704 On ch=2 n=a#4 v=0
118704 On ch=2 n=f#4 v=0
118704 On ch=2 n=e5 v=0
118752 On ch=2 n=f#3 v=100
118752 On ch=2 n=f#2 v=100
118848 On ch=2 n=f#2 v=0
118848 On ch=2 n=f#3 v=0
118944 On ch=2 n=b3 v=100
118944 On ch=2 n=d4 v=100
118944 On ch=2 n=g4 v=100
119040 On ch=2 n=g4 v=0
119040 On ch=2 n=d4 v=0
119040 On ch=2 n=b3 v=0
119040 On ch=2 n=f#3 v=100
119040 On ch=2 n=f#2 v=100
119136 On ch=2 n=f#2 v=0
119136 On ch=2 n=f#3 v=0
119232 On ch=2 n=a3 v=100
119232 On ch=2 n=c#4 v=100
119328 On ch=2 n=c#4 v=0
119328 On ch=2 n=a3 v=0
119328 On ch=2 n=f#2 v=100
119424 On ch=2 n=f#2 v=0
119424 On ch=2 n=g3 v=100
119424 On ch=2 n=b3 v=100
119520 On ch=2 n=b3 v=0
119520 On ch=2 n=g3 v=0
119520 On ch=2 n=f#3 v=100
119520 On ch=2 n=a3 v=100
119616 On ch=2 n=a3 v=0
119616 On ch=2 n=f#3 v=0
119616 On ch=2 n=f#2 v=100
119712 On ch=2 n=f#2 v=0
119712 On ch=2 n=e3 v=100
119712 On ch=2 n=g3 v=100
119808 On ch=2 n=e3 v=0
119808 On ch=2 n=c#3 v=100
119904 On ch=2 n=c#3 v=0
120288 On ch=2 n=b2 v=100
120384 On ch=2 n=b2 v=0
120384 On ch=2 n=a#2 v=100
120480 On ch=2 n=g3 v=0
120480 On ch=2 n=a#2 v=0
120768 On ch=2 n=g4 v=100
120864 On ch=2 n=g4 v=0
120864 On ch=2 n=g4 v=100
120960 On ch=2 n=g4 v=0
120960 On ch=2 n=g4 v=100
120960 On ch=2 n=c#4 v=100
121440 On ch=2 n=c#4 v=0
121440 On ch=2 n=b3 v=100
121536 On ch=2 n=b3 v=0
121536 On ch=2 n=a#3 v=100
121584 On ch=2 n=a#3 v=0
121584 On ch=2 n=g4 v=0
121632 On ch=2 n=c#5 v=100
121632 On ch=2 n=c#4 v=100
121728 On ch=2 n=c#4 v=0
121728 On ch=2 n=c#5 v=0
121728 On ch=2 n=b4 v=100
121728 On ch=2 n=b3 v=100
121824 On ch=2 n=b3 v=0
121824 On ch=2 n=b4 v=0
121824 On ch=2 n=a#4 v=100
121824 On ch=2 n=a#3 v=100
121920 On ch=2 n=a#3 v=0
121920 On ch=2 n=a#4 v=0
121920 On ch=2 n=g4 v=100
121920 On ch=2 n=g3 v=100
122016 On ch=2 n=g3 v=0
122016 On ch=2 n=g4 v=0
122016 On ch=2 n=a#3 v=100
122016 On ch=2 n=a#2 v=100
122112 On ch=2 n=a#2 v=0
122112 On ch=2 n=a#3 v=0
122112 On ch=2 n=b3 v=100
122112 On ch=2 n=b2 v=100
122688 On ch=2 n=b2 v=0
122688 On ch=2 n=b3 v=0
122688 On ch=2 n=a#3 v=100
122688 On ch=2 n=a#2 v=100
122880 On ch=2 n=a#2 v=0
122880 On ch=2 n=a#3 v=0
122880 On ch=2 n=a3 v=100
122880 On ch=2 n=a4 v=100
122976 On ch=2 n=a4 v=0
122976 On ch=2 n=a3 v=0
122976 On ch=2 n=g#4 v=100
122976 On ch=2 n=g#3 v=100
123072 On ch=2 n=g#3 v=0
123072 On ch=2 n=g#4 v=0
123072 On ch=2 n=g4 v=100
123072 On ch=2 n=g3 v=100
123168 On ch=2 n=g3 v=0
123168 On ch=2 n=g4 v=0
123168 On ch=2 n=a#3 v=100
123168 On ch=2 n=a#2 v=100
123264 On ch=2 n=a#2 v=0
123264 On ch=2 n=a#3 v=0
123264 On ch=2 n=b3 v=100
123264 On ch=2 n=b2 v=100
124128 On ch=2 n=b2 v=0
124128 On ch=2 n=b3 v=0
124128 On ch=2 n=b3 v=100
124128 On ch=2 n=b2 v=100
124224 On ch=2 n=b2 v=0
124224 On ch=2 n=b3 v=0
124224 On ch=2 n=b3 v=100
124224 On ch=2 n=b2 v=100
124320 On ch=2 n=b2 v=0
124320 On ch=2 n=b3 v=0
124320 On ch=2 n=a#3 v=100
124320 On ch=2 n=a#2 v=100
124416 On ch=2 n=a#2 v=0
124416 On ch=2 n=a#3 v=0
124416 On ch=2 n=b3 v=100
124416 On ch=2 n=b2 v=100
124704 On ch=2 n=b2 v=0
124704 On ch=2 n=b3 v=0
124704 On ch=2 n=b3 v=100
124704 On ch=2 n=b2 v=100
124800 On ch=2 n=b2 v=0
124800 On ch=2 n=b3 v=0
124800 On ch=2 n=b3 v=100
124800 On ch=2 n=b2 v=100
124896 On ch=2 n=b2 v=0
124896 On ch=2 n=b3 v=0
124896 On ch=2 n=a#3 v=100
124896 On ch=2 n=a#2 v=100
124992 On ch=2 n=a#2 v=0
124992 On ch=2 n=a#3 v=0
124992 On ch=2 n=b3 v=100
124992 On ch=2 n=b2 v=100
125280 On ch=2 n=b2 v=0
125280 On ch=2 n=b3 v=0
125280 On ch=2 n=b3 v=100
125280 On ch=2 n=b2 v=100
125376 On ch=2 n=b2 v=0
125376 On ch=2 n=b3 v=0
125376 On ch=2 n=c#4 v=100
125376 On ch=2 n=c#3 v=100
125472 On ch=2 n=c#3 v=0
125472 On ch=2 n=c#4 v=0
125472 On ch=2 n=d4 v=100
125472 On ch=2 n=d3 v=100
125568 On ch=2 n=d3 v=0
125568 On ch=2 n=d4 v=0
125568 On ch=2 n=e3 v=100
125568 On ch=2 n=e2 v=100
125856 On ch=2 n=e2 v=0
125856 On ch=2 n=e3 v=0
125856 On ch=2 n=e5 v=100
125856 On ch=2 n=e5 v=100
126432 On ch=2 n=e5 v=0
126432 On ch=2 n=e5 v=0
126432 On ch=2 n=d5 v=100
126528 On ch=2 n=d5 v=0
126528 On ch=2 n=c#5 v=100
126624 On ch=2 n=c#5 v=0
126624 On ch=2 n=b4 v=100
126720 On ch=2 n=b4 v=0
126720 On ch=2 n=c#5 v=100
126959 Par ch=2 c=64 v=127
126960 On ch=2 n=g4 v=100
126960 On ch=2 n=g3 v=100
127008 On ch=2 n=g3 v=0
127008 On ch=2 n=g4 v=0
127008 On ch=2 n=c#5 v=0
127008 On ch=2 n=e5 v=100
127008 On ch=2 n=e5 v=100
127584 On ch=2 n=e5 v=0
127584 On ch=2 n=e5 v=0
127584 Par ch=2 c=64 v=0
127584 On ch=2 n=d5 v=100
127680 On ch=2 n=d5 v=0
127680 On ch=2 n=c#5 v=100
127776 On ch=2 n=c#5 v=0
127776 On ch=2 n=b4 v=100
127872 On ch=2 n=b4 v=0
127872 On ch=2 n=f#4 v=100
128448 On ch=2 n=b3 v=100
128544 On ch=2 n=b3 v=0
128544 On ch=2 n=f#4 v=0
129024 On ch=2 n=d4 v=100
129024 On ch=2 n=f#3 v=100
129072 On ch=2 n=f#3 v=0
129072 On ch=2 n=d4 v=0
129072 On ch=2 n=g3 v=100
129120 On ch=2 n=g3 v=0
129120 On ch=2 n=a#2 v=100
129168 On ch=2 n=a#2 v=0
129312 On ch=2 n=a2 v=100
129360 On ch=2 n=a2 v=0
129360 On ch=2 n=g3 v=100
129408 On ch=2 n=g3 v=0
129408 On ch=2 n=c#4 v=100
129456 On ch=2 n=c#4 v=0
129600 On ch=2 n=g#3 v=100
129600 On ch=2 n=f#4 v=100
129648 On ch=2 n=f#4 v=0
129648 On ch=2 n=g#3 v=0
129648 On ch=2 n=a3 v=100
129696 On ch=2 n=a3 v=0
129696 On ch=2 n=d3 v=100
129744 On ch=2 n=d3 v=0
130176 On ch=2 n=a#3 v=100
130176 On ch=2 n=f#4 v=100
130224 On ch=2 n=f#4 v=0
130224 On ch=2 n=a#3 v=0
130224 On ch=2 n=b3 v=100
130272 On ch=2 n=b3 v=0
130272 On ch=2 n=d3 v=100
130320 On ch=2 n=d3 v=0
130464 On ch=2 n=c#3 v=100
130512 On ch=2 n=c#3 v=0
130512 On ch=2 n=b3 v=100
130560 On ch=2 n=b3 v=0
130560 On ch=2 n=f4 v=100
130608 On ch=2 n=f4 v=0
130752 On ch=2 n=c4 v=100
130752 On ch=2 n=a4 v=100
130800 On ch=2 n=a4 v=0
130800 On ch=2 n=c4 v=0
130800 On ch=2 n=c#4 v=100
130848 On ch=2 n=c#4 v=0
130848 On ch=2 n=f#3 v=100
130896 On ch=2 n=f#3 v=0
131328 On ch=2 n=c#4 v=100
131328 On ch=2 n=a4 v=100
131376 On ch=2 n=a4 v=0
131376 On ch=2 n=c#4 v=0
131376 On ch=2 n=d4 v=100
131424 On ch=2 n=d4 v=0
131424 On ch=2 n=f3 v=100
131472 On ch=2 n=f3 v=0
131616 On ch=2 n=e3 v=100
131664 On ch=2 n=e3 v=0
131664 On ch=2 n=d4 v=100
131712 On ch=2 n=d4 v=0
131712 On ch=2 n=g#4 v=100
131760 On ch=2 n=g#4 v=0
131904 On ch=2 n=d#4 v=100
131904 On ch=2 n=c#5 v=100
131952 On ch=2 n=c#5 v=0
131952 On ch=2 n=d#4 v=0
131952 On ch=2 n=e4 v=100
132000 On ch=2 n=e4 v=0
132000 On ch=2 n=a3 v=100
132048 On ch=2 n=a3 v=0
132192 On ch=2 n=c#5 v=100
132192 On ch=2 n=d4 v=100
132240 On ch=2 n=d4 v=0
132240 On ch=2 n=c#5 v=0
132240 On ch=2 n=d#4 v=100
132288 On ch=2 n=d#4 v=0
132288 On ch=2 n=a3 v=100
132336 On ch=2 n=a3 v=0
132480 On ch=2 n=c5 v=100
132480 On ch=2 n=d4 v=100
132528 On ch=2 n=d4 v=0
132528 On ch=2 n=c5 v=0
132528 On ch=2 n=d#4 v=100
132576 On ch=2 n=d#4 v=0
132576 On ch=2 n=g#3 v=100
132624 On ch=2 n=g#3 v=0
132768 On ch=2 n=c#4 v=100
132768 On ch=2 n=c5 v=100
132816 On ch=2 n=c5 v=0
132816 On ch=2 n=c#4 v=0
132816 On ch=2 n=d4 v=100
132864 On ch=2 n=d4 v=0
132864 On ch=2 n=g#3 v=100
132912 On ch=2 n=g#3 v=0
133056 On ch=2 n=c#4 v=100
133056 On ch=2 n=b4 v=100
133104 On ch=2 n=b4 v=0
133104 On ch=2 n=c#4 v=0
133104 On ch=2 n=d4 v=100
133152 On ch=2 n=d4 v=0
133152 On ch=2 n=g3 v=100
133200 On ch=2 n=g3 v=0
133344 On ch=2 n=b4 v=100
133344 On ch=2 n=c4 v=100
133392 On ch=2 n=c4 v=0
133392 On ch=2 n=b4 v=0
133392 On ch=2 n=c#4 v=100
133440 On ch=2 n=c#4 v=0
133440 On ch=2 n=g3 v=100
133488 On ch=2 n=g3 v=0
133632 Par ch=2 c=64 v=127
133632 On ch=2 n=a#4 v=100
133680 On ch=2 n=a#4 v=0
133680 On ch=2 n=c#4 v=100
133728 On ch=2 n=c#4 v=0
133728 On ch=2 n=f#3 v=100
133776 On ch=2 n=f#3 v=0
133920 On ch=2 n=c#5 v=100
133968 On ch=2 n=c#5 v=0
133968 On ch=2 n=f#4 v=100
134016 On ch=2 n=f#4 v=0
134016 On ch=2 n=a#3 v=100
134064 On ch=2 n=a#3 v=0
134208 Par ch=2 c=64 v=127
134208 On ch=2 n=d5 v=100
134256 On ch=2 n=d5 v=0
134256 On ch=2 n=f#4 v=100
134304 On ch=2 n=f#4 v=0
134304 On ch=2 n=g#3 v=100
134352 On ch=2 n=g#3 v=0
134496 Par ch=2 c=64 v=127
134496 On ch=2 n=f5 v=100
134544 On ch=2 n=f5 v=0
134544 On ch=2 n=b4 v=100
134592 On ch=2 n=b4 v=0
134592 On ch=2 n=c#4 v=100
134640 On ch=2 n=c#4 v=0
134784 Par ch=2 c=64 v=127
134784 On ch=2 n=g#5 v=100
134832 On ch=2 n=g#5 v=0
134832 On ch=2 n=a#4 v=100
134880 On ch=2 n=a#4 v=0
134880 On ch=2 n=e4 v=100
134928 On ch=2 n=e4 v=0
135072 On ch=2 n=g5 v=100
135073 Par ch=2 c=64 v=127
135120 On ch=2 n=g5 v=0
135120 On ch=2 n=a#4 v=100
135168 On ch=2 n=a#4 v=0
135168 On ch=2 n=d#4 v=100
135216 On ch=2 n=d#4 v=0
135360 Par ch=2 c=64 v=127
135360 On ch=2 n=b5 v=100
135408 On ch=2 n=b5 v=0
135408 On ch=2 n=d#5 v=100
135456 On ch=2 n=d#5 v=0
135456 On ch=2 n=g#4 v=100
135504 On ch=2 n=g#4 v=0
135648 On ch=2 n=f5 v=100
135649 Par ch=2 c=64 v=127
135696 On ch=2 n=f5 v=0
135696 On ch=2 n=b4 v=100
135744 On ch=2 n=b4 v=0
135744 On ch=2 n=c#4 v=100
135792 On ch=2 n=c#4 v=0
135936 On ch=2 n=a#5 v=100
135937 Par ch=2 c=64 v=127
135984 On ch=2 n=a#5 v=0
135984 On ch=2 n=c#5 v=100
136032 On ch=2 n=c#5 v=0
136032 On ch=2 n=f#4 v=100
136080 On ch=2 n=f#4 v=0
136224 Par ch=2 c=64 v=127
136224 On ch=2 n=f#5 v=100
136224 On ch=2 n=c#6 v=100
136272 On ch=2 n=c#6 v=0
136272 On ch=2 n=f#5 v=0
136272 On ch=2 n=a#4 v=100
136320 On ch=2 n=a#4 v=0
136512 On ch=2 n=f#5 v=100
136512 On ch=2 n=d6 v=100
136513 Par ch=2 c=64 v=127
136560 On ch=2 n=d6 v=0
136560 On ch=2 n=f#5 v=0
136560 On ch=2 n=g#4 v=100
136608 On ch=2 n=g#4 v=0
136800 On ch=2 n=g#5 v=100
136800 On ch=2 n=b5 v=100
136800 On ch=2 n=f6 v=100
136801 Par ch=2 c=64 v=127
136848 On ch=2 n=f6 v=0
136848 On ch=2 n=b5 v=0
136848 On ch=2 n=g#5 v=0
136848 On ch=2 n=c#5 v=100
136896 On ch=2 n=c#5 v=0
137088 Par ch=2 c=64 v=127
137088 On ch=2 n=a#5 v=100
137088 On ch=2 n=c#6 v=100
137088 On ch=2 n=g#6 v=100
137136 On ch=2 n=g#6 v=0
137136 On ch=2 n=c#6 v=0
137136 On ch=2 n=a#5 v=0
137136 On ch=2 n=e5 v=100
137184 On ch=2 n=e5 v=0
137376 On ch=2 n=a#5 v=100
137376 On ch=2 n=c#6 v=100
137376 On ch=2 n=g6 v=100
137377 Par ch=2 c=64 v=127
137424 On ch=2 n=g6 v=0
137424 On ch=2 n=c#6 v=0
137424 On ch=2 n=a#5 v=0
137424 On ch=2 n=d#5 v=100
137472 On ch=2 n=d#5 v=0
137664 On ch=2 n=f#5 v=100
137664 On ch=2 n=b5 v=100
137664 On ch=2 n=f#6 v=100
137665 Par ch=2 c=64 v=127
137712 On ch=2 n=f#6 v=0
137712 On ch=2 n=b5 v=0
137712 On ch=2 n=f#5 v=0
137712 On ch=2 n=d5 v=100
137760 On ch=2 n=d5 v=0
137952 Par ch=2 c=64 v=127
137952 On ch=2 n=g#5 v=100
137952 On ch=2 n=b5 v=100
137952 On ch=2 n=f6 v=100
138000 On ch=2 n=f6 v=0
138000 On ch=2 n=b5 v=0
138000 On ch=2 n=g#5 v=0
138000 On ch=2 n=c#5 v=100
138048 On ch=2 n=c#5 v=0
138240 On ch=2 n=c#5 v=100
138240 On ch=2 n=f#5 v=100
138240 On ch=2 n=a#5 v=100
138241 Par ch=2 c=64 v=127
138288 On ch=2 n=a#5 v=0
138288 On ch=2 n=f#5 v=0
138288 On ch=2 n=c#5 v=0
138288 On ch=2 n=f#4 v=100
138336 On ch=2 n=f#4 v=0
138528 On ch=2 n=d5 v=100
138528 On ch=2 n=b5 v=100
138529 Par ch=2 c=64 v=127
138576 On ch=2 n=b5 v=0
138576 On ch=2 n=d5 v=0
138576 On ch=2 n=f#4 v=100
138624 On ch=2 n=f#4 v=0
138816 Par ch=2 c=64 v=127
138816 On ch=2 n=c#5 v=100
138816 On ch=2 n=a#5 v=100
138864 On ch=2 n=a#5 v=0
138864 On ch=2 n=c#5 v=0
138864 On ch=2 n=f#4 v=100
138912 On ch=2 n=f#4 v=0
139104 On ch=2 n=c5 v=100
139104 On ch=2 n=a5 v=100
139105 Par ch=2 c=64 v=127
139152 On ch=2 n=a5 v=0
139152 On ch=2 n=c5 v=0
139152 On ch=2 n=f#4 v=100
139200 On ch=2 n=f#4 v=0
139392 Par ch=2 c=64 v=127
139392 On ch=2 n=b4 v=100
139392 On ch=2 n=g#5 v=100
139440 On ch=2 n=g#5 v=0
139440 On ch=2 n=b4 v=0
139440 On ch=2 n=f#4 v=100
139488 On ch=2 n=f#4 v=0
139680 On ch=2 n=c5 v=100
139680 On ch=2 n=a5 v=100
139681 Par ch=2 c=64 v=127
139728 On ch=2 n=a5 v=0
139728 On ch=2 n=c5 v=0
139728 On ch=2 n=f#4 v=100
139776 On ch=2 n=f#4 v=0
139968 Par ch=2 c=64 v=127
139968 On ch=2 n=b4 v=100
139968 On ch=2 n=g#5 v=100
140016 On ch=2 n=g#5 v=0
140016 On ch=2 n=b4 v=0
140016 On ch=2 n=f#4 v=100
140064 On ch=2 n=f#4 v=0
140256 On ch=2 n=b4 v=100
140256 On ch=2 n=g5 v=100
140257 Par ch=2 c=64 v=127
140304 On ch=2 n=g5 v=0
140304 On ch=2 n=b4 v=0
140304 On ch=2 n=f#4 v=100
140352 On ch=2 n=f#4 v=0
140544 On ch=2 n=f#4 v=100
140544 On ch=2 n=c#5 v=100
140544 On ch=2 n=e5 v=100
140545 Par ch=2 c=64 v=127
140640 On ch=2 n=e5 v=0
140640 On ch=2 n=c#5 v=0
140640 On ch=2 n=f#4 v=0
140641 Par ch=2 c=64 v=0
140832 Par ch=2 c=64 v=127
140832 On ch=2 n=e7 v=100
140880 On ch=2 n=e7 v=0
140880 On ch=2 n=g6 v=100
140928 On ch=2 n=g6 v=0
140928 On ch=2 n=c#6 v=100
140976 On ch=2 n=c#6 v=0
141120 On ch=2 n=c#7 v=100
141168 On ch=2 n=c#7 v=0
141168 On ch=2 n=e6 v=100
141216 On ch=2 n=e6 v=0
141216 On ch=2 n=a#5 v=100
141264 On ch=2 n=a#5 v=0
141408 On ch=2 n=a#6 v=100
141456 On ch=2 n=a#6 v=0
141456 On ch=2 n=c#6 v=100
141504 On ch=2 n=c#6 v=0
141504 On ch=2 n=g5 v=100
141552 On ch=2 n=g5 v=0
141696 On ch=2 n=g6 v=100
141744 On ch=2 n=g6 v=0
141744 On ch=2 n=a#5 v=100
141792 On ch=2 n=a#5 v=0
141792 On ch=2 n=e5 v=100
141840 On ch=2 n=e5 v=0
141984 On ch=2 n=e6 v=100
142032 On ch=2 n=e6 v=0
142032 On ch=2 n=g5 v=100
142080 On ch=2 n=g5 v=0
142080 On ch=2 n=c#5 v=100
142128 On ch=2 n=c#5 v=0
142272 On ch=2 n=c#6 v=100
142320 On ch=2 n=c#6 v=0
142320 On ch=2 n=e5 v=100
142368 On ch=2 n=e5 v=0
142368 On ch=2 n=a#4 v=100
142416 On ch=2 n=a#4 v=0
142560 On ch=2 n=a#5 v=100
142608 On ch=2 n=a#5 v=0
142608 On ch=2 n=c#5 v=100
142656 On ch=2 n=c#5 v=0
142656 On ch=2 n=g4 v=100
142704 On ch=2 n=g4 v=0
142848 Par ch=2 c=64 v=127
142848 On ch=2 n=e5 v=100
142896 On ch=2 n=e5 v=0
142896 On ch=2 n=g4 v=100
142944 On ch=2 n=g4 v=0
142944 On ch=2 n=c#4 v=100
142992 On ch=2 n=c#4 v=0
143136 Par ch=2 c=64 v=127
143136 On ch=2 n=e5 v=100
143184 On ch=2 n=e5 v=0
143184 On ch=2 n=g4 v=100
143232 On ch=2 n=g4 v=0
143232 On ch=2 n=c4 v=100
143280 On ch=2 n=c4 v=0
143424 Par ch=2 c=64 v=127
143424 On ch=2 n=e5 v=100
143472 On ch=2 n=e5 v=0
143472 On ch=2 n=g4 v=100
143520 On ch=2 n=g4 v=0
143520 On ch=2 n=b3 v=100
143568 On ch=2 n=b3 v=0
143712 Par ch=2 c=64 v=127
143712 On ch=2 n=e5 v=100
143760 On ch=2 n=e5 v=0
143760 On ch=2 n=g4 v=100
143808 On ch=2 n=g4 v=0
143808 On ch=2 n=a#3 v=100
143856 On ch=2 n=a#3 v=0
144000 Par ch=2 c=64 v=127
144000 On ch=2 n=e5 v=100
144048 On ch=2 n=e5 v=0
144048 On ch=2 n=g4 v=100
144096 On ch=2 n=g4 v=0
144096 On ch=2 n=c#4 v=100
144144 On ch=2 n=c#4 v=0
144288 Par ch=2 c=64 v=127
144288 On ch=2 n=e5 v=100
144336 On ch=2 n=e5 v=0
144336 On ch=2 n=g4 v=100
144384 On ch=2 n=g4 v=0
144384 On ch=2 n=c4 v=100
144432 On ch=2 n=c4 v=0
144576 Par ch=2 c=64 v=127
144576 On ch=2 n=e5 v=100
144624 On ch=2 n=e5 v=0
144624 On ch=2 n=g4 v=100
144672 On ch=2 n=g4 v=0
144672 On ch=2 n=b3 v=100
144720 On ch=2 n=b3 v=0
144864 Par ch=2 c=64 v=127
144864 On ch=2 n=e5 v=100
144912 On ch=2 n=e5 v=0
144912 On ch=2 n=g4 v=100
144960 On ch=2 n=g4 v=0
144960 On ch=2 n=a#3 v=100
145008 On ch=2 n=a#3 v=0
145152 Par ch=2 c=64 v=0
145152 On ch=2 n=f3 v=100
145152 On ch=2 n=d4 v=100
145200 On ch=2 n=d4 v=0
145200 On ch=2 n=f3 v=0
145200 On ch=2 n=f#3 v=100
145248 On ch=2 n=f#3 v=0
145248 On ch=2 n=b2 v=100
145296 On ch=2 n=b2 v=0
145440 On ch=2 n=e4 v=100
145440 On ch=2 n=g4 v=100
145536 On ch=2 n=g4 v=0
145536 On ch=2 n=e4 v=0
145536 On ch=2 n=d4 v=100
145536 On ch=2 n=f#4 v=100
145632 On ch=2 n=f#4 v=0
145632 On ch=2 n=d4 v=0
145728 On ch=2 n=f3 v=100
145728 On ch=2 n=d4 v=100
145776 On ch=2 n=d4 v=0
145776 On ch=2 n=f3 v=0
145776 On ch=2 n=f#3 v=100
145824 On ch=2 n=f#3 v=0
145824 On ch=2 n=b2 v=100
145872 On ch=2 n=b2 v=0
146016 On ch=2 n=e4 v=100
146016 On ch=2 n=g4 v=100
146112 On ch=2 n=g4 v=0
146112 On ch=2 n=e4 v=0
146112 On ch=2 n=d4 v=100
146112 On ch=2 n=f#4 v=100
146208 On ch=2 n=f#4 v=0
146208 On ch=2 n=d4 v=0
146304 On ch=2 n=b3 v=100
146400 On ch=2 n=b3 v=0
146592 On ch=2 n=f#4 v=100
146592 On ch=2 n=d5 v=100
146688 On ch=2 n=d5 v=0
146688 On ch=2 n=f#4 v=0
146688 On ch=2 n=b3 v=100
146784 On ch=2 n=b3 v=0
146784 On ch=2 n=f#4 v=100
146784 On ch=2 n=d5 v=100
146880 On ch=2 n=d5 v=0
146880 On ch=2 n=f#4 v=0
146880 On ch=2 n=b3 v=100
146976 On ch=2 n=b3 v=0
146976 On ch=2 n=f#4 v=100
146976 On ch=2 n=d5 v=100
147072 On ch=2 n=d5 v=0
147072 On ch=2 n=f#4 v=0
147072 On ch=2 n=b3 v=100
147168 On ch=2 n=b3 v=0
147168 On ch=2 n=f#4 v=100
147168 On ch=2 n=d5 v=100
147264 On ch=2 n=d5 v=0
147264 On ch=2 n=f#4 v=0
147456 On ch=2 n=f#3 v=100
147456 On ch=2 n=e4 v=100
147504 On ch=2 n=e4 v=0
147504 On ch=2 n=f#3 v=0
147504 On ch=2 n=g3 v=100
147552 On ch=2 n=g3 v=0
147552 On ch=2 n=b2 v=100
147600 On ch=2 n=b2 v=0
147744 On ch=2 n=a4 v=100
147744 On ch=2 n=c5 v=100
147840 On ch=2 n=c5 v=0
147840 On ch=2 n=a4 v=0
147840 On ch=2 n=g4 v=100
147840 On ch=2 n=b4 v=100
147936 On ch=2 n=b4 v=0
147936 On ch=2 n=g4 v=0
148032 On ch=2 n=f#3 v=100
148032 On ch=2 n=e4 v=100
148080 On ch=2 n=e4 v=0
148080 On ch=2 n=f#3 v=0
148080 On ch=2 n=g3 v=100
148128 On ch=2 n=g3 v=0
148128 On ch=2 n=b2 v=100
148176 On ch=2 n=b2 v=0
148320 On ch=2 n=a4 v=100
148320 On ch=2 n=c5 v=100
148416 On ch=2 n=c5 v=0
148416 On ch=2 n=a4 v=0
148416 On ch=2 n=g4 v=100
148416 On ch=2 n=b4 v=100
148512 On ch=2 n=b4 v=0
148512 On ch=2 n=g4 v=0
148608 On ch=2 n=b3 v=100
148704 On ch=2 n=b3 v=0
148896 On ch=2 n=g4 v=100
148896 On ch=2 n=e5 v=100
148992 On ch=2 n=e5 v=0
148992 On ch=2 n=g4 v=0
148992 On ch=2 n=b3 v=100
149088 On ch=2 n=b3 v=0
149088 On ch=2 n=g4 v=100
149088 On ch=2 n=e5 v=100
149184 On ch=2 n=e5 v=0
149184 On ch=2 n=g4 v=0
149184 On ch=2 n=b3 v=100
149280 On ch=2 n=b3 v=0
149280 On ch=2 n=g4 v=100
149280 On ch=2 n=e5 v=100
149376 On ch=2 n=e5 v=0
149376 On ch=2 n=g4 v=0
149376 On ch=2 n=b3 v=100
149472 On ch=2 n=b3 v=0
149472 On ch=2 n=g4 v=100
149472 On ch=2 n=e5 v=100
149568 On ch=2 n=e5 v=0
149568 On ch=2 n=g4 v=0
149760 On ch=2 n=a#5 v=100
149760 On ch=2 n=c#6 v=100
149760 On ch=2 n=e6 v=100
149760 On ch=2 n=f#6 v=100
149856 On ch=2 n=f#6 v=0
149856 On ch=2 n=g6 v=100
150048 On ch=2 n=g6 v=0
150048 On ch=2 n=e6 v=0
150048 On ch=2 n=c#6 v=0
150048 On ch=2 n=a#5 v=0
150048 On ch=2 n=b5 v=100
150048 On ch=2 n=d6 v=100
150048 On ch=2 n=g6 v=100
150144 On ch=2 n=g6 v=0
150144 On ch=2 n=d6 v=0
150144 On ch=2 n=b5 v=0
150144 On ch=2 n=f#5 v=100
150144 On ch=2 n=f#4 v=100
150240 On ch=2 n=f#4 v=0
150240 On ch=2 n=f#5 v=0
150336 On ch=2 n=a5 v=100
150336 On ch=2 n=c#6 v=100
150432 On ch=2 n=c#6 v=0
150432 On ch=2 n=a5 v=0
150432 On ch=2 n=f#4 v=100
150528 On ch=2 n=f#4 v=0
150528 On ch=2 n=g5 v=100
150528 On ch=2 n=b5 v=100
150624 On ch=2 n=b5 v=0
150624 On ch=2 n=g5 v=0
150624 On ch=2 n=f#5 v=100
150624 On ch=2 n=a5 v=100
150720 On ch=2 n=a5 v=0
150720 On ch=2 n=f#5 v=0
150720 On ch=2 n=f#4 v=100
150816 On ch=2 n=f#4 v=0
150816 On ch=2 n=e5 v=100
150816 On ch=2 n=g5 v=100
150912 On ch=2 n=g5 v=0
150912 On ch=2 n=e5 v=0
150912 On ch=2 n=c#5 v=100
150912 On ch=2 n=g5 v=100
151008 On ch=2 n=g5 v=0
151008 On ch=2 n=f#4 v=100
151104 On ch=2 n=c#5 v=0
151104 On ch=2 n=d5 v=100
151104 On ch=2 n=f#5 v=100
151200 On ch=2 n=f#5 v=0
151200 On ch=2 n=f#4 v=0
151200 On ch=2 n=d5 v=0
151200 On ch=2 n=c#5 v=100
151200 On ch=2 n=g5 v=100
151296 On ch=2 n=g5 v=0
151296 On ch=2 n=f#4 v=100
151392 On ch=2 n=c#5 v=0
151392 On ch=2 n=d5 v=100
151392 On ch=2 n=f#5 v=100
151488 On ch=2 n=f#5 v=0
151488 On ch=2 n=d5 v=0
151488 On ch=2 n=b4 v=100
151488 On ch=2 n=f5 v=100
151584 On ch=2 n=f5 v=0
151584 On ch=2 n=f#4 v=0
151584 On ch=2 n=f#4 v=100
151680 On ch=2 n=b4 v=0
151680 On ch=2 n=c#5 v=100
151680 On ch=2 n=e5 v=100
151776 On ch=2 n=c#5 v=0
151776 On ch=2 n=a#4 v=100
151872 On ch=2 n=e5 v=0
151872 On ch=2 n=f#4 v=0
151872 On ch=2 n=f#4 v=100
151968 On ch=2 n=a#4 v=0
151968 On ch=2 n=b4 v=100
151968 On ch=2 n=d5 v=100
152064 On ch=2 n=d5 v=0
152064 On ch=2 n=b4 v=0
152064 On ch=2 n=e5 v=100
152064 On ch=2 n=a#4 v=100
152112 On ch=2 n=a#4 v=0
152112 On ch=2 n=f#4 v=0
152112 On ch=2 n=e5 v=0
152160 On ch=2 n=f#3 v=100
152160 On ch=2 n=f#2 v=100
152256 On ch=2 n=f#2 v=0
152256 On ch=2 n=f#3 v=0
152352 On ch=2 n=b3 v=100
152352 On ch=2 n=d4 v=100
152352 On ch=2 n=g4 v=100
152448 On ch=2 n=g4 v=0
152448 On ch=2 n=d4 v=0
152448 On ch=2 n=b3 v=0
152448 On ch=2 n=f#3 v=100
152448 On ch=2 n=f#2 v=100
152544 On ch=2 n=f#2 v=0
152544 On ch=2 n=f#3 v=0
152640 On ch=2 n=a3 v=100
152640 On ch=2 n=c#4 v=100
152736 On ch=2 n=c#4 v=0
152736 On ch=2 n=a3 v=0
152736 On ch=2 n=f#2 v=100
152832 On ch=2 n=f#2 v=0
152832 On ch=2 n=g3 v=100
152832 On ch=2 n=b3 v=100
152928 On ch=2 n=b3 v=0
152928 On ch=2 n=g3 v=0
152928 On ch=2 n=f#3 v=100
152928 On ch=2 n=a3 v=100
153024 On ch=2 n=a3 v=0
153024 On ch=2 n=f#3 v=0
153024 On ch=2 n=f#2 v=100
153120 On ch=2 n=f#2 v=0
153120 On ch=2 n=e3 v=100
153120 On ch=2 n=g3 v=100
153216 On ch=2 n=e3 v=0
153216 On ch=2 n=c#3 v=100
153312 On ch=2 n=c#3 v=0
153696 On ch=2 n=b2 v=100
153792 On ch=2 n=b2 v=0
153792 On ch=2 n=a#2 v=100
153888 On ch=2 n=g3 v=0
153888 On ch=2 n=a#2 v=0
154176 On ch=2 n=g4 v=100
154272 On ch=2 n=g4 v=0
154272 On ch=2 n=g4 v=100
154368 On ch=2 n=g4 v=0
154368 On ch=2 n=g4 v=100
154368 On ch=2 n=c#4 v=100
154848 On ch=2 n=c#4 v=0
154848 On ch=2 n=b3 v=100
154944 On ch=2 n=b3 v=0
154944 On ch=2 n=a#3 v=100
154992 On ch=2 n=a#3 v=0
154992 On ch=2 n=g4 v=0
155040 On ch=2 n=c#5 v=100
155040 On ch=2 n=c#4 v=100
155136 On ch=2 n=c#4 v=0
155136 On ch=2 n=c#5 v=0
155136 On ch=2 n=b4 v=100
155136 On ch=2 n=b3 v=100
155232 On ch=2 n=b3 v=0
155232 On ch=2 n=b4 v=0
155232 On ch=2 n=a#4 v=100
155232 On ch=2 n=a#3 v=100
155328 On ch=2 n=a#3 v=0
155328 On ch=2 n=a#4 v=0
155328 On ch=2 n=g4 v=100
155328 On ch=2 n=g3 v=100
155424 On ch=2 n=g3 v=0
155424 On ch=2 n=g4 v=0
155424 On ch=2 n=a#3 v=100
155424 On ch=2 n=a#2 v=100
155520 On ch=2 n=a#2 v=0
155520 On ch=2 n=a#3 v=0
155520 On ch=2 n=b3 v=100
155520 On ch=2 n=b2 v=100
156096 On ch=2 n=b2 v=0
156096 On ch=2 n=b3 v=0
156096 On ch=2 n=a#3 v=100
156096 On ch=2 n=a#2 v=100
156288 On ch=2 n=a#2 v=0
156288 On ch=2 n=a#3 v=0
156288 On ch=2 n=a3 v=100
156288 On ch=2 n=a4 v=100
156384 On ch=2 n=a4 v=0
156384 On ch=2 n=a3 v=0
156384 On ch=2 n=g#4 v=100
156384 On ch=2 n=g#3 v=100
156480 On ch=2 n=g#3 v=0
156480 On ch=2 n=g#4 v=0
156480 On ch=2 n=g4 v=100
156480 On ch=2 n=g3 v=100
156576 On ch=2 n=g3 v=0
156576 On ch=2 n=g4 v=0
156576 On ch=2 n=a#3 v=100
156576 On ch=2 n=a#2 v=100
156672 On ch=2 n=a#2 v=0
156672 On ch=2 n=a#3 v=0
156672 On ch=2 n=b3 v=100
156672 On ch=2 n=b2 v=100
157536 On ch=2 n=b2 v=0
157536 On ch=2 n=b3 v=0
157536 On ch=2 n=b3 v=100
157536 On ch=2 n=b2 v=100
157632 On ch=2 n=b2 v=0
157632 On ch=2 n=b3 v=0
157632 On ch=2 n=b3 v=100
157632 On ch=2 n=b2 v=100
157728 On ch=2 n=b2 v=0
157728 On ch=2 n=b3 v=0
157728 On ch=2 n=a#3 v=100
157728 On ch=2 n=a#2 v=100
157824 On ch=2 n=a#2 v=0
157824 On ch=2 n=a#3 v=0
157824 On ch=2 n=b3 v=100
157824 On ch=2 n=b2 v=100
158112 On ch=2 n=b2 v=0
158112 On ch=2 n=b3 v=0
158112 On ch=2 n=b3 v=100
158112 On ch=2 n=b2 v=100
158208 On ch=2 n=b2 v=0
158208 On ch=2 n=b3 v=0
158208 On ch=2 n=b3 v=100
158208 On ch=2 n=b2 v=100
158304 On ch=2 n=b2 v=0
158304 On ch=2 n=b3 v=0
158304 On ch=2 n=a#3 v=100
158304 On ch=2 n=a#2 v=100
158400 On ch=2 n=a#2 v=0
158400 On ch=2 n=a#3 v=0
158400 On ch=2 n=b3 v=100
158400 On ch=2 n=b2 v=100
158688 On ch=2 n=b2 v=0
158688 On ch=2 n=b3 v=0
158688 On ch=2 n=b3 v=100
158688 On ch=2 n=b2 v=100
158784 On ch=2 n=b2 v=0
158784 On ch=2 n=b3 v=0
158784 On ch=2 n=c#4 v=100
158784 On ch=2 n=c#3 v=100
158880 On ch=2 n=c#3 v=0
158880 On ch=2 n=c#4 v=0
158880 On ch=2 n=d4 v=100
158880 On ch=2 n=d3 v=100
158976 On ch=2 n=d3 v=0
158976 On ch=2 n=d4 v=0
158976 On ch=2 n=e3 v=100
158976 On ch=2 n=e2 v=100
159264 On ch=2 n=e2 v=0
159264 On ch=2 n=e3 v=0
159264 On ch=2 n=e5 v=100
159264 On ch=2 n=e5 v=100
159840 On ch=2 n=e5 v=0
159840 On ch=2 n=e5 v=0
159840 On ch=2 n=d5 v=100
159936 On ch=2 n=d5 v=0
159936 On ch=2 n=c#5 v=100
160032 On ch=2 n=c#5 v=0
160032 On ch=2 n=b4 v=100
160128 On ch=2 n=b4 v=0
160128 On ch=2 n=c#5 v=100
160367 Par ch=2 c=64 v=127
160368 On ch=2 n=g4 v=100
160368 On ch=2 n=g3 v=100
160416 On ch=2 n=g3 v=0
160416 On ch=2 n=g4 v=0
160416 On ch=2 n=c#5 v=0
160416 On ch=2 n=e5 v=100
160416 On ch=2 n=e5 v=100
160992 On ch=2 n=e5 v=0
160992 On ch=2 n=e5 v=0
160992 Par ch=2 c=64 v=0
160992 On ch=2 n=d5 v=100
161088 On ch=2 n=d5 v=0
161088 On ch=2 n=c#5 v=100
161184 On ch=2 n=c#5 v=0
161184 On ch=2 n=b4 v=100
161280 On ch=2 n=b4 v=0
161280 On ch=2 n=c#5 v=100
161519 Par ch=2 c=64 v=127
161520 On ch=2 n=g3 v=100
161520 On ch=2 n=g4 v=100
161568 On ch=2 n=g4 v=0
161568 On ch=2 n=g3 v=0
161568 On ch=2 n=c#5 v=0
161568 On ch=2 n=e4 v=100
161568 On ch=2 n=e5 v=100
161856 On ch=2 n=e5 v=0
161856 On ch=2 n=e4 v=0
161856 On ch=2 n=b4 v=100
161856 On ch=2 n=c#5 v=100
161952 On ch=2 n=c#5 v=0
161952 On ch=2 n=b4 v=0
161952 Par ch=2 c=64 v=0
162095 Par ch=2 c=64 v=127
162096 On ch=2 n=g4 v=100
162096 On ch=2 n=g3 v=100
162144 On ch=2 n=g3 v=0
162144 On ch=2 n=g4 v=0
162144 On ch=2 n=f4 v=100
162144 On ch=2 n=f5 v=100
162432 On ch=2 n=f5 v=0
162432 On ch=2 n=f4 v=0
162432 On ch=2 n=b4 v=100
162432 On ch=2 n=c#5 v=100
162528 On ch=2 n=c#5 v=0
162528 On ch=2 n=b4 v=0
162528 Par ch=2 c=64 v=0
162671 Par ch=2 c=64 v=127
162672 On ch=2 n=f#3 v=100
162672 On ch=2 n=f#4 v=100
162720 On ch=2 n=f#4 v=0
162720 On ch=2 n=f#3 v=0
162720 On ch=2 n=f#4 v=100
162720 On ch=2 n=f#5 v=100
163008 On ch=2 n=f#5 v=0
163008 On ch=2 n=f#4 v=0
163008 Par ch=2 c=64 v=127
163008 On ch=2 n=f#4 v=100
163008 On ch=2 n=c#5 v=100
163008 On ch=2 n=e5 v=100
163104 On ch=2 n=e5 v=0
163104 On ch=2 n=c#5 v=0
163104 On ch=2 n=f#4 v=0
163200 Par ch=2 c=64 v=0
163296 Par ch=2 c=64 v=127
163296 On ch=2 n=f#4 v=100
163296 On ch=2 n=f#3 v=100
163392 On ch=2 n=f#3 v=0
163392 On ch=2 n=f#4 v=0
163488 Par ch=2 c=64 v=0
163584 Par ch=2 c=64 v=127
163584 On ch=2 n=b3 v=127
163584 On ch=2 n=b2 v=100
163680 On ch=2 n=b2 v=0
163680 On ch=2 n=b3 v=0
163776 Par ch=2 c=64 v=0
163872 Par ch=2 c=64 v=127
163872 On ch=2 n=d3 v=100
163872 On ch=2 n=d2 v=100
163968 On ch=2 n=d2 v=0
163968 On ch=2 n=d3 v=0
163968 On ch=2 n=f#3 v=100
163968 On ch=2 n=b3 v=100
164064 On ch=2 n=b3 v=0
164064 On ch=2 n=f#3 v=0
164160 Par ch=2 c=64 v=127
164160 On ch=2 n=c#3 v=100
164160 On ch=2 n=c#2 v=100
164256 On ch=2 n=c#2 v=0
164256 On ch=2 n=c#3 v=0
164256 On ch=2 n=g3 v=100
164256 On ch=2 n=b3 v=100
164352 On ch=2 n=b3 v=0
164352 On ch=2 n=g3 v=0
164448 Par ch=2 c=64 v=127
164448 On ch=2 n=f#3 v=100
164448 On ch=2 n=f#2 v=100
164544 On ch=2 n=f#2 v=0
164544 On ch=2 n=f#3 v=0
164544 On ch=2 n=a#3 v=100
164544 On ch=2 n=e4 v=100
164640 On ch=2 n=e4 v=0
164640 On ch=2 n=a#3 v=0
164736 Par ch=2 c=64 v=127
164736 On ch=2 n=b3 v=100
164736 On ch=2 n=b2 v=100
164832 On ch=2 n=b2 v=0
164832 On ch=2 n=b3 v=0
164832 On ch=2 n=d4 v=100
164832 On ch=2 n=f#4 v=100
165024 On ch=2 n=f#4 v=0
165024 On ch=2 n=d4 v=0
165024 Par ch=2 c=64 v=127
165024 On ch=2 n=d4 v=100
165024 On ch=2 n=d3 v=100
165120 On ch=2 n=d3 v=0
165120 On ch=2 n=d4 v=0
165120 On ch=2 n=f#4 v=100
165120 On ch=2 n=b4 v=100
165312 On ch=2 n=b4 v=0
165312 On ch=2 n=f#4 v=0
165312 Par ch=2 c=64 v=127
165312 On ch=2 n=c#4 v=100
165312 On ch=2 n=c#3 v=100
165408 On ch=2 n=c#3 v=0
165408 On ch=2 n=c#4 v=0
165408 On ch=2 n=g4 v=100
165408 On ch=2 n=b4 v=100
165600 On ch=2 n=b4 v=0
165600 On ch=2 n=g4 v=0
165600 Par ch=2 c=64 v=127
165600 On ch=2 n=f#4 v=100
165600 On ch=2 n=f#3 v=100
165696 On ch=2 n=f#3 v=0
165696 On ch=2 n=f#4 v=0
165696 On ch=2 n=a#4 v=100
165696 On ch=2 n=e5 v=100
165888 On ch=2 n=e5 v=0
165888 On ch=2 n=a#4 v=0
165888 Par ch=2 c=64 v=127
165888 On ch=2 n=b4 v=100
165888 On ch=2 n=b3 v=100
165984 On ch=2 n=b3 v=0
165984 On ch=2 n=b4 v=0
165984 On ch=2 n=d5 v=100
165984 On ch=2 n=f#5 v=100
166176 On ch=2 n=f#5 v=0
166176 On ch=2 n=d5 v=0
166176 Par ch=2 c=64 v=127
166176 On ch=2 n=d5 v=100
166176 On ch=2 n=d4 v=100
166272 On ch=2 n=d4 v=0
166272 On ch=2 n=d5 v=0
166272 On ch=2 n=f#5 v=100
166272 On ch=2 n=b5 v=100
166464 On ch=2 n=b5 v=0
166464 On ch=2 n=f#5 v=0
166464 Par ch=2 c=64 v=127
166464 On ch=2 n=c#5 v=100
166464 On ch=2 n=c#4 v=100
166560 On ch=2 n=c#4 v=0
166560 On ch=2 n=c#5 v=0
166560 On ch=2 n=g5 v=100
166560 On ch=2 n=b5 v=100
166752 On ch=2 n=b5 v=0
166752 On ch=2 n=g5 v=0
166752 Par ch=2 c=64 v=127
166752 On ch=2 n=f#5 v=100
166752 On ch=2 n=f#4 v=100
166848 On ch=2 n=f#4 v=0
166848 On ch=2 n=f#5 v=0
166848 On ch=2 n=a#5 v=100
166848 On ch=2 n=e6 v=100
167040 On ch=2 n=e6 v=0
167040 On ch=2 n=a#5 v=0
167040 Par ch=2 c=64 v=127
167040 On ch=2 n=g5 v=100
167040 On ch=2 n=b5 v=100
167040 On ch=2 n=c#6 v=100
167040 On ch=2 n=e6 v=100
167040 On ch=2 n=g6 v=100
167328 On ch=2 n=g6 v=0
167328 On ch=2 n=e6 v=0
167328 On ch=2 n=c#6 v=0
167328 On ch=2 n=b5 v=0
167328 On ch=2 n=g5 v=0
167328 On ch=2 n=g5 v=100
167328 On ch=2 n=b5 v=100
167328 On ch=2 n=c#6 v=100
167328 On ch=2 n=e6 v=100
167328 On ch=2 n=g6 v=100
167616 On ch=2 n=g6 v=0
167616 On ch=2 n=e6 v=0
167616 On ch=2 n=c#6 v=0
167616 On ch=2 n=b5 v=0
167616 On ch=2 n=g5 v=0
167616 On ch=2 n=g5 v=100
167616 On ch=2 n=b5 v=100
167616 On ch=2 n=c#6 v=100
167616 On ch=2 n=e6 v=100
167616 On ch=2 n=g6 v=100
167904 On ch=2 n=g6 v=0
167904 On ch=2 n=e6 v=0
167904 On ch=2 n=c#6 v=0
167904 On ch=2 n=b5 v=0
167904 On ch=2 n=g5 v=0
167904 On ch=2 n=g5 v=100
167904 On ch=2 n=b5 v=100
167904 On ch=2 n=c#6 v=100
167904 On ch=2 n=e6 v=100
167904 On ch=2 n=g6 v=100
168192 On ch=2 n=g6 v=0
168192 On ch=2 n=e6 v=0
168192 On ch=2 n=c#6 v=0
168192 On ch=2 n=b5 v=0
168192 On ch=2 n=g5 v=0
168192 Par ch=2 c=64 v=127
168192 On ch=2 n=g#5 v=100
168192 On ch=2 n=b5 v=100
168192 On ch=2 n=c#6 v=100
168192 On ch=2 n=f6 v=100
168192 On ch=2 n=g#6 v=100
168288 On ch=2 n=g#6 v=0
168288 On ch=2 n=f6 v=0
168288 On ch=2 n=c#6 v=0
168288 On ch=2 n=b5 v=0
168288 On ch=2 n=g#5 v=0
168480 On ch=2 n=c#6 v=100
168480 On ch=2 n=c#5 v=100
168576 On ch=2 n=c#5 v=0
168576 On ch=2 n=c#6 v=0
168768 On ch=2 n=c#4 v=100
168768 On ch=2 n=c#5 v=100
168864 On ch=2 n=c#5 v=0
168864 On ch=2 n=c#4 v=0
169056 On ch=2 n=c#4 v=100
169056 On ch=2 n=c#3 v=100
169056 On ch=2 n=b4 v=100
169104 On ch=2 n=b4 v=0
169104 On ch=2 n=g#4 v=100
169152 On ch=2 n=g#4 v=0
169152 On ch=2 n=c#3 v=0
169152 On ch=2 n=c#4 v=0
169152 On ch=2 n=f4 v=100
169200 On ch=2 n=f4 v=0
169200 On ch=2 n=c#4 v=100
169248 On ch=2 n=c#4 v=0
169248 On ch=2 n=b3 v=100
169296 On ch=2 n=b3 v=0
169296 On ch=2 n=g#3 v=100
169344 On ch=2 n=g#3 v=0
169344 Par ch=2 c=64 v=0
169344 On ch=2 n=c4 v=100
169344 On ch=2 n=c3 v=100
169392 On ch=2 n=c3 v=0
169392 On ch=2 n=c4 v=0
169392 On ch=2 n=c#4 v=100
169392 On ch=2 n=c#3 v=100
169440 On ch=2 n=c#3 v=0
169440 On ch=2 n=c#4 v=0
169440 On ch=2 n=c4 v=100
169488 On ch=2 n=c4 v=0
169488 On ch=2 n=c#4 v=100
169536 On ch=2 n=c#4 v=0
169536 On ch=2 n=c4 v=100
169584 On ch=2 n=c4 v=0
169584 On ch=2 n=c#4 v=100
169632 On ch=2 n=c#4 v=0
169632 On ch=2 n=d4 v=100
169632 On ch=2 n=d3 v=100
169680 On ch=2 n=d3 v=0
169680 On ch=2 n=d4 v=0
169680 On ch=2 n=c#4 v=100
169680 On ch=2 n=c#3 v=100
169728 On ch=2 n=c#3 v=0
169728 On ch=2 n=c#4 v=0
169728 On ch=2 n=d4 v=100
169776 On ch=2 n=d4 v=0
169776 On ch=2 n=c#4 v=100
169824 On ch=2 n=c#4 v=0
169824 On ch=2 n=d4 v=100
169872 On ch=2 n=d4 v=0
169872 On ch=2 n=c#4 v=100
169920 On ch=2 n=c#4 v=0
169920 On ch=2 n=c4 v=100
169920 On ch=2 n=c3 v=100
169968 On ch=2 n=c3 v=0
169968 On ch=2 n=c4 v=0
169968 On ch=2 n=c#4 v=100
169968 On ch=2 n=c#3 v=100
170016 On ch=2 n=c#3 v=0
170016 On ch=2 n=c#4 v=0
170016 On ch=2 n=c4 v=100
170064 On ch=2 n=c4 v=0
170064 On ch=2 n=c#4 v=100
170112 On ch=2 n=c#4 v=0
170112 On ch=2 n=c4 v=100
170160 On ch=2 n=c4 v=0
170160 On ch=2 n=c#4 v=100
170208 On ch=2 n=c#4 v=0
170208 On ch=2 n=d4 v=100
170208 On ch=2 n=d3 v=100
170256 On ch=2 n=d3 v=0
170256 On ch=2 n=d4 v=0
170256 On ch=2 n=c#4 v=100
170256 On ch=2 n=c#3 v=100
170304 On ch=2 n=c#3 v=0
170304 On ch=2 n=c#4 v=0
170304 On ch=2 n=d4 v=100
170352 On ch=2 n=d4 v=0
170352 On ch=2 n=c#4 v=100
170400 On ch=2 n=c#4 v=0
170400 On ch=2 n=d4 v=100
170448 On ch=2 n=d4 v=0
170448 On ch=2 n=c#4 v=100
170496 On ch=2 n=c#4 v=0
170496 Par ch=2 c=64 v=127
170496 On ch=2 n=f#3 v=120
170496 On ch=2 n=f#2 v=120
170592 On ch=2 n=f#2 v=0
170592 On ch=2 n=f#3 v=0
170784 On ch=2 n=f#4 v=100
170784 On ch=2 n=b4 v=100
170784 On ch=2 n=d5 v=100
170784 On ch=2 n=f5 v=100
170784 On ch=2 n=g5 v=100
171168 On ch=2 n=g5 v=0
171168 On ch=2 n=f5 v=0
171168 On ch=2 n=d5 v=0
171168 On ch=2 n=b4 v=0
171168 On ch=2 n=f#4 v=0
171168 On ch=2 n=f#4 v=100
171168 On ch=2 n=b4 v=100
171168 On ch=2 n=d5 v=100
171168 On ch=2 n=f5 v=100
171168 On ch=2 n=g5 v=100
171264 On ch=2 n=g5 v=0
171264 On ch=2 n=f5 v=0
171264 On ch=2 n=d5 v=0
171264 On ch=2 n=b4 v=0
171264 On ch=2 n=f#4 v=0
171264 On ch=2 n=f#4 v=100
171264 On ch=2 n=b4 v=100
171264 On ch=2 n=d5 v=100
171264 On ch=2 n=f5 v=100
171264 On ch=2 n=g5 v=100
171360 On ch=2 n=g5 v=0
171360 On ch=2 n=f5 v=0
171360 On ch=2 n=d5 v=0
171360 On ch=2 n=b4 v=0
171360 On ch=2 n=f#4 v=0
171360 On ch=2 n=f#4 v=100
171360 On ch=2 n=b4 v=100
171360 On ch=2 n=d5 v=100
171360 On ch=2 n=f5 v=100
171360 On ch=2 n=g5 v=100
171456 On ch=2 n=g5 v=0
171456 On ch=2 n=f5 v=0
171456 On ch=2 n=d5 v=0
171456 On ch=2 n=b4 v=0
171456 On ch=2 n=f#4 v=0
171456 On ch=2 n=f#4 v=100
171456 On ch=2 n=b4 v=100
171456 On ch=2 n=d5 v=100
171456 On ch=2 n=f5 v=100
171456 On ch=2 n=g5 v=100
171552 On ch=2 n=g5 v=0
171552 On ch=2 n=f5 v=0
171552 On ch=2 n=d5 v=0
171552 On ch=2 n=b4 v=0
171552 On ch=2 n=f#4 v=0
171552 On ch=2 n=f#4 v=100
171552 On ch=2 n=b4 v=100
171552 On ch=2 n=d5 v=100
171552 On ch=2 n=f5 v=100
171552 On ch=2 n=g5 v=100
171648 On ch=2 n=g5 v=0
171648 On ch=2 n=f5 v=0
171648 On ch=2 n=d5 v=0
171648 On ch=2 n=b4 v=0
171648 On ch=2 n=f#4 v=0
171648 On ch=2 n=f#4 v=100
171648 On ch=2 n=b4 v=100
171648 On ch=2 n=d5 v=100
171648 On ch=2 n=f5 v=100
171648 On ch=2 n=g5 v=100
171936 On ch=2 n=g5 v=0
171936 On ch=2 n=f5 v=0
171936 On ch=2 n=d5 v=0
171936 On ch=2 n=b4 v=0
171936 On ch=2 n=f#4 v=0
171936 On ch=2 n=f#4 v=100
171936 On ch=2 n=b4 v=100
171936 On ch=2 n=d5 v=100
171936 On ch=2 n=f5 v=100
171936 On ch=2 n=g5 v=100
172224 On ch=2 n=g5 v=0
172224 On ch=2 n=f5 v=0
172224 On ch=2 n=d5 v=0
172224 On ch=2 n=b4 v=0
172224 On ch=2 n=f#4 v=0
172224 On ch=2 n=f#4 v=100
172224 On ch=2 n=b4 v=100
172224 On ch=2 n=d5 v=100
172224 On ch=2 n=f5 v=100
172224 On ch=2 n=g5 v=100
172512 On ch=2 n=g5 v=0
172512 On ch=2 n=f5 v=0
172512 On ch=2 n=d5 v=0
172512 On ch=2 n=b4 v=0
172512 On ch=2 n=f#4 v=0
172512 On ch=2 n=f#4 v=100
172512 On ch=2 n=c#5 v=100
172512 On ch=2 n=e5 v=100
172512 On ch=2 n=f#5 v=100
172704 On ch=2 n=f#5 v=0
172704 On ch=2 n=e5 v=0
172704 On ch=2 n=c#5 v=0
172704 On ch=2 n=f#4 v=0
172704 Par ch=2 c=64 v=0
172800 Par ch=2 c=64 v=127
172800 On ch=2 n=b2 v=100
172896 On ch=2 n=b2 v=0
173088 On ch=2 n=f#3 v=100
173088 On ch=2 n=d4 v=100
173184 On ch=2 n=d4 v=0
173184 On ch=2 n=f#3 v=0
173184 On ch=2 n=b2 v=100
173280 On ch=2 n=b2 v=0
173280 On ch=2 n=f#3 v=100
173280 On ch=2 n=d4 v=100
173376 On ch=2 n=d4 v=0
173376 On ch=2 n=f#3 v=0
173376 Par ch=2 c=64 v=0
173376 On ch=2 n=b2 v=100
173472 On ch=2 n=b2 v=0
173472 On ch=2 n=f#3 v=100
173472 On ch=2 n=d4 v=100
173568 On ch=2 n=d4 v=0
173568 On ch=2 n=f#3 v=0
173568 On ch=2 n=b2 v=100
173664 On ch=2 n=b2 v=0
173664 On ch=2 n=f#3 v=100
173664 On ch=2 n=d4 v=100
173760 On ch=2 n=d4 v=0
173760 On ch=2 n=f#3 v=0
173760 On ch=2 n=b2 v=100
173856 On ch=2 n=b2 v=0
173856 On ch=2 n=f#3 v=100
173856 On ch=2 n=d4 v=100
173952 On ch=2 n=d4 v=0
173952 On ch=2 n=f#3 v=0
173952 On ch=2 n=b2 v=100
174048 On ch=2 n=b2 v=0
174048 On ch=2 n=f#3 v=100
174048 On ch=2 n=d4 v=100
174144 On ch=2 n=d4 v=0
174144 On ch=2 n=f#3 v=0
174144 On ch=2 n=b2 v=100
174240 On ch=2 n=b2 v=0
174240 On ch=2 n=f#3 v=100
174240 On ch=2 n=d4 v=100
174336 On ch=2 n=d4 v=0
174336 On ch=2 n=f#3 v=0
174336 On ch=2 n=b2 v=100
174432 On ch=2 n=b2 v=0
174432 On ch=2 n=f#3 v=100
174432 On ch=2 n=d4 v=100
174528 On ch=2 n=d4 v=0
174528 On ch=2 n=f#3 v=0
174528 On ch=2 n=b2 v=100
174624 On ch=2 n=b2 v=0
174624 On ch=2 n=f#3 v=100
174624 On ch=2 n=d4 v=100
174720 On ch=2 n=d4 v=0
174720 On ch=2 n=f#3 v=0
174720 On ch=2 n=b2 v=100
174816 On ch=2 n=b2 v=0
174816 On ch=2 n=f#3 v=100
174816 On ch=2 n=d4 v=100
174912 On ch=2 n=d4 v=0
174912 On ch=2 n=f#3 v=0
174912 On ch=2 n=b2 v=100
175008 On ch=2 n=b2 v=0
175008 On ch=2 n=f#3 v=100
175008 On ch=2 n=d4 v=100
175104 On ch=2 n=d4 v=0
175104 On ch=2 n=f#3 v=0
175104 On ch=2 n=b2 v=100
175152 On ch=2 n=b2 v=0
175200 On ch=2 n=c#4 v=100
175200 On ch=2 n=c#3 v=100
175248 On ch=2 n=c#3 v=0
175248 On ch=2 n=c#4 v=0
175248 On ch=2 n=d4 v=100
175248 On ch=2 n=d3 v=100
175296 On ch=2 n=d3 v=0
175296 On ch=2 n=d4 v=0
175296 On ch=2 n=d#4 v=100
175296 On ch=2 n=d#3 v=100
175344 On ch=2 n=d#3 v=0
175344 On ch=2 n=d#4 v=0
175344 On ch=2 n=e4 v=100
175344 On ch=2 n=e3 v=100
175392 On ch=2 n=e3 v=0
175392 On ch=2 n=e4 v=0
175392 On ch=2 n=f3 v=100
175392 On ch=2 n=f4 v=100
175440 On ch=2 n=f4 v=0
175440 On ch=2 n=f3 v=0
175440 On ch=2 n=f#3 v=100
175440 On ch=2 n=f#4 v=100
175488 On ch=2 n=f#4 v=0
175488 On ch=2 n=f#3 v=0
175488 On ch=2 n=g3 v=100
175488 On ch=2 n=g4 v=100
175536 On ch=2 n=g4 v=0
175536 On ch=2 n=g3 v=0
175536 On ch=2 n=g#3 v=100
175536 On ch=2 n=g#4 v=100
175584 On ch=2 n=g#4 v=0
175584 On ch=2 n=g#3 v=0
175584 On ch=2 n=a3 v=100
175584 On ch=2 n=a4 v=100
175632 On ch=2 n=a4 v=0
175632 On ch=2 n=a3 v=0
175632 On ch=2 n=a#3 v=100
175632 On ch=2 n=a#4 v=100
175680 On ch=2 n=a#4 v=0
175680 On ch=2 n=a#3 v=0
175680 On ch=1 n=b3 v=100
175728 On ch=1 n=b3 v=0
175728 On ch=1 n=c4 v=100
175776 On ch=1 n=c4 v=0
175776 On ch=1 n=c#4 v=100
175824 On ch=1 n=c#4 v=0
175824 On ch=1 n=d4 v=100
175872 On ch=1 n=d4 v=0
175872 On ch=1 n=d#4 v=100
175920 On ch=1 n=d#4 v=0
175920 On ch=1 n=e4 v=100
175968 On ch=1 n=e4 v=0
175968 On ch=1 n=f4 v=100
176016 On ch=1 n=f4 v=0
176016 On ch=1 n=f#4 v=100
176064 On ch=1 n=f#4 v=0
176064 On ch=1 n=g4 v=100
176112 On ch=1 n=g4 v=0
176112 On ch=1 n=g#4 v=100
176160 On ch=1 n=g#4 v=0
176160 On ch=1 n=a4 v=100
176208 On ch=1 n=a4 v=0
176208 On ch=1 n=a#4 v=100
176256 On ch=1 n=a#4 v=0
176256 On ch=1 n=b4 v=100
176304 On ch=1 n=b4 v=0
176304 On ch=1 n=c5 v=100
176352 On ch=1 n=c5 v=0
176352 On ch=1 n=c#5 v=100
176400 On ch=1 n=c#5 v=0
176400 On ch=1 n=d5 v=100
176448 On ch=1 n=d5 v=0
176448 On ch=1 n=d#5 v=100
176496 On ch=1 n=d#5 v=0
176496 On ch=1 n=e5 v=100
176544 On ch=1 n=e5 v=0
176544 On ch=1 n=f5 v=100
176592 On ch=1 n=f5 v=0
176592 On ch=1 n=f#5 v=100
176640 On ch=1 n=f#5 v=0
176640 On ch=1 n=g5 v=100
176688 On ch=1 n=g5 v=0
176688 On ch=1 n=g#5 v=100
176736 On ch=1 n=g#5 v=0
176736 On ch=1 n=a5 v=100
176784 On ch=1 n=a5 v=0
176784 On ch=1 n=a#5 v=100
176832 On ch=1 n=a#5 v=0
176832 On ch=1 n=b5 v=100
176880 On ch=1 n=b5 v=0
176880 On ch=1 n=c6 v=100
176928 On ch=1 n=c6 v=0
176928 On ch=1 n=c#6 v=100
176976 On ch=1 n=c#6 v=0
176976 On ch=1 n=d6 v=100
177024 On ch=1 n=d6 v=0
177024 On ch=1 n=d#6 v=100
177072 On ch=1 n=d#6 v=0
177072 On ch=1 n=e6 v=100
177120 On ch=1 n=e6 v=0
177120 On ch=1 n=f6 v=100
177168 On ch=1 n=f6 v=0
177168 On ch=1 n=f#6 v=100
177216 On ch=1 n=f#6 v=0
177216 On ch=1 n=g6 v=100
177264 On ch=1 n=g6 v=0
177264 On ch=1 n=g#6 v=100
177312 On ch=1 n=g#6 v=0
177312 On ch=1 n=a6 v=100
177360 On ch=1 n=a6 v=0
177360 On ch=1 n=a#6 v=100
177408 On ch=1 n=a#6 v=0
177408 On ch=1 n=b6 v=100
177504 On ch=1 n=b6 v=0
177696 On ch=2 n=f#4 v=100
177696 On ch=2 n=c#5 v=100
177696 On ch=2 n=e5 v=100
177792 On ch=2 n=e5 v=0
177792 On ch=2 n=c#5 v=0
177792 On ch=2 n=f#4 v=0
177984 On ch=2 n=b3 v=100
177984 On ch=2 n=f#4 v=100
177984 On ch=2 n=b4 v=100
178080 On ch=2 n=b4 v=0
178080 On ch=2 n=f#4 v=0
178080 On ch=2 n=b3 v=0
178272 On ch=2 n=e3 v=100
178272 On ch=2 n=b3 v=100
178272 On ch=2 n=e4 v=100
178368 On ch=2 n=e4 v=0
178368 On ch=2 n=b3 v=0
178368 On ch=2 n=e3 v=0
178560 On ch=2 n=b2 v=100
178560 On ch=2 n=b3 v=100
178656 On ch=2 n=b3 v=0
178656 On ch=2 n=b2 v=0
179136 On ch=2 n=b2 v=112
179136 On ch=2 n=g3 v=112
179136 On ch=2 n=b3 v=112
179712 On ch=2 n=b3 v=0
179712 On ch=2 n=g3 v=0
179712 On ch=2 n=b2 v=0
179712 On ch=2 n=b2 v=112
179712 On ch=2 n=f#3 v=112
179712 On ch=2 n=b3 v=112
180000 On ch=2 n=b3 v=0
180000 On ch=2 n=f#3 v=0
180000 On ch=2 n=b2 v=0
180000 Meta TrkEnd
TrkEnd
