MFile 1 6 480
MTrk
0 SMPTE 96 0 0 0 0
0 TimeSig 4/4 24 8
0 Tempo 461538
2860 Tempo 444446
4200 Tempo 436550
4220 Tempo 428571
7700 Tempo 438253
7720 Tempo 447761
9400 Tempo 428571
14800 Tempo 421578
14820 Tempo 400000
15660 Tempo 421429
15680 Tempo 428571
18040 Tempo 365853
20540 Tempo 422306
20560 Tempo 444444
20900 Tempo 432548
20920 Tempo 428571
23720 Tempo 445125
23740 Tempo 461538
24540 Tempo 428572
25000 Tempo 454295
25020 Tempo 480000
25360 Tempo 428571
26500 Tempo 407171
26520 Tempo 368098
29040 Tempo 422243
29060 Tempo 444444
29380 Tempo 432548
29400 Tempo 428571
32800 Tempo 453382
32820 Tempo 461538
34140 Tempo 436846
34160 Tempo 428571
38680 Tempo 454547
39700 Tempo 441595
39720 Tempo 428571
44240 Tempo 444449
44740 Tempo 428571
46060 Tempo 436542
46080 Tempo 444444
46920 Tempo 436529
46940 Tempo 428571
50100 Tempo 434953
50120 Tempo 441176
51260 Tempo 428571
61480 Tempo 417003
61500 Tempo 392571
61820 Tempo 419580
62440 Tempo 405405
63560 Tempo 461540
64020 Tempo 500000
64380 Tempo 464298
64400 Tempo 428571
68420 Tempo 600000
68760 Tempo 526499
68780 Tempo 444602
69320 Tempo 436520
69340 Tempo 428572
69860 Tempo 414286
69880 Tempo 400000
71260 Tempo 450000
71280 Tempo 500000
71960 Tempo 428571
72380 Tempo 396114
72400 Tempo 363636
72740 Tempo 388720
72760 Tempo 428521
75740 Tempo 448387
75760 Tempo 499829
77640 Tempo 482182
77660 Tempo 461545
81640 Tempo 470850
81660 Tempo 480000
82440 Tempo 485198
82460 Tempo 521655
86200 Tempo 494509
86220 Tempo 428934
87280 Tempo 446488
87300 Tempo 498950
87640 Tempo 492314
87660 Tempo 461491
87980 Tempo 520579
88000 Tempo 696876
89480 Tempo 637167
89500 Tempo 430469
90280 Tempo 436507
90300 Tempo 444444
91140 Tempo 440660
91160 Tempo 461322
92320 Tempo 457454
92340 Tempo 428652
95380 Tempo 446494
95400 Tempo 499702
96600 Tempo 480794
96620 Tempo 461541
97440 Tempo 453299
97460 Tempo 460951
98800 Tempo 448977
98820 Tempo 428598
101780 Tempo 454412
101800 Tempo 480000
103900 Tempo 457646
103920 Tempo 461342
105260 Tempo 457443
105280 Tempo 428651
108360 Tempo 456281
108380 Tempo 483871
110360 Tempo 472704
110380 Tempo 461538
111620 Tempo 457433
111640 Tempo 428621
116580 Tempo 445083
116600 Tempo 461538
117180 Tempo 463327
117200 Tempo 465116
122420 Tempo 446844
122440 Tempo 428572
124280 Tempo 435193
124300 Tempo 461328
125240 Tempo 445063
125260 Tempo 428571
125840 Tempo 464285
125860 Tempo 500000
127760 Tempo 471734
127780 Tempo 487446
129020 Tempo 465645
129040 Tempo 428618
132140 Tempo 448805
132160 Tempo 468750
133240 Tempo 456075
133260 Tempo 457845
134120 Tempo 479009
134140 Tempo 500000
135440 Tempo 475564
135460 Tempo 451127
138600 Tempo 463345
138620 Tempo 499765
139660 Tempo 470021
139680 Tempo 440040
140520 Tempo 439800
140540 Tempo 472195
141880 Tempo 470288
141900 Tempo 428698
145000 Tempo 451920
145020 Tempo 521505
147020 Tempo 481055
147040 Tempo 461367
148280 Tempo 447553
148300 Tempo 428580
153540 Tempo 434537
153560 Tempo 461030
153980 Tempo 513486
154000 Tempo 599752
155400 Tempo 570057
155420 Tempo 428765
161160 Tempo 454324
161180 Tempo 480003
162100 Tempo 471114
162120 Tempo 444713
162780 Tempo 436521
162800 Tempo 428571
165520 Tempo 436813
165540 Tempo 461483
168580 Tempo 457421
168600 Tempo 444597
169160 Tempo 436535
169180 Tempo 428571
171340 Tempo 436847
171360 Tempo 461491
174900 Tempo 453105
174920 Tempo 444447
175460 Tempo 440486
175480 Tempo 428621
177060 Tempo 445082
177080 Tempo 461538
180880 Tempo 452994
180900 Tempo 444450
181320 Tempo 436511
181340 Tempo 428571
186420 Tempo 445055
186440 Tempo 461539
188580 Tempo 506332
188600 Tempo 628897
188900 Tempo 598630
188920 Tempo 523112
189240 Tempo 510262
189260 Tempo 480626
189560 Tempo 469336
189580 Tempo 444888
189900 Tempo 439297
189920 Tempo 428580
196020 Tempo 448698
196040 Tempo 468752
197340 Tempo 451767
197360 Tempo 434782
200260 Tempo 451087
200280 Tempo 499749
201580 Tempo 472234
201600 Tempo 444448
202420 Tempo 448728
202440 Tempo 461473
203760 Tempo 455810
203780 Tempo 428641
206840 Tempo 443400
206860 Tempo 487657
208880 Tempo 476190
208900 Tempo 499746
210300 Tempo 482171
210320 Tempo 428655
214540 Tempo 436999
214560 Tempo 461343
215400 Tempo 496166
215420 Tempo 599583
217080 Tempo 557149
217100 Tempo 428724
222700 Tempo 452398
222720 Tempo 476192
224480 Tempo 464290
224500 Tempo 428711
226200 Tempo 448669
226220 Tempo 468750
227980 Tempo 458727
228000 Tempo 428581
248120 Tempo 416686
248140 Tempo 400033
249560 Tempo 412194
249580 Tempo 428542
251100 Tempo 421394
251120 Tempo 387297
252460 Tempo 404782
252480 Tempo 428547
255100 Tempo 416523
255120 Tempo 400026
256720 Tempo 399410
256740 Tempo 387245
257520 Tempo 417342
257540 Tempo 479226
257960 Tempo 472298
257980 Tempo 429291
258480 Tempo 400000
259880 Tempo 450001
259900 Tempo 500000
260500 Tempo 480769
260520 Tempo 461538
260980 Tempo 444911
261000 Tempo 478478
261340 Tempo 468454
261360 Tempo 434860
264180 Tempo 442795
264200 Tempo 454494
264960 Tempo 449763
264980 Tempo 423002
265460 Tempo 433495
265480 Tempo 444444
267000 Tempo 436621
267020 Tempo 380767
267500 Tempo 413794
267820 Tempo 400000
268120 Tempo 379747
269120 Tempo 500000
269540 Tempo 472229
269560 Tempo 444456
269880 Tempo 443008
269900 Tempo 434812
272140 Tempo 451806
272160 Tempo 468771
273300 Tempo 464203
273320 Tempo 454584
274600 Tempo 444221
274620 Tempo 428575
286860 Tempo 438335
286880 Tempo 447768
287720 Tempo 438170
287740 Tempo 428571
290960 Tempo 433415
290980 Tempo 447650
291840 Tempo 442990
291860 Tempo 428579
303480 Tempo 500008
304440 Tempo 486594
304460 Tempo 461538
306140 Tempo 433559
306160 Tempo 428571
311280 Tempo 496557
311300 Tempo 499999
312600 Tempo 457207
312620 Tempo 428571
315700 Tempo 461538
316860 Tempo 456357
316880 Tempo 483871
317700 Tempo 476054
317720 Tempo 461538
319160 Tempo 450036
319180 Tempo 428571
322000 Tempo 464286
322020 Tempo 500000
323400 Tempo 444446
324300 Tempo 453885
324320 Tempo 461538
325600 Tempo 433548
325620 Tempo 428571
330760 Tempo 459195
330780 Tempo 461538
331180 Tempo 552288
331200 Tempo 582524
332580 Tempo 567152
332600 Tempo 428571
338400 Tempo 448805
338420 Tempo 468750
342580 Tempo 474375
342600 Tempo 480000
343700 Tempo 789473
344240 Tempo 465116
349380 Tempo 518376
349400 Tempo 571428
350500 Tempo 647647
350520 Tempo 666666
351000 Tempo 660535
351420 Tempo 1428571
352260 Tempo 954319
352280 Tempo 480000
357440 Tempo 482000
357460 Tempo 499999
358580 Tempo 508390
358600 Tempo 666666
359760 Tempo 1250001
360400 Tempo 849463
360420 Tempo 521739
364340 Tempo 495867
377620 Tempo 460374
377640 Tempo 447761
388160 Tempo 557301
388180 Tempo 666666
388740 Tempo 600000
388940 Tempo 540019
388960 Tempo 500000
392740 Tempo 492000
392760 Tempo 480000
395700 Tempo 471692
395720 Tempo 461538
398700 Tempo 453066
398720 Tempo 444444
402420 Tempo 435013
402440 Tempo 428571
405400 Tempo 426429
405420 Tempo 413793
406900 Tempo 412426
406920 Tempo 400000
408380 Tempo 405715
408400 Tempo 428571
408880 Tempo 500000
409580 Tempo 375000
410000 Tempo 342857
410620 Tempo 324324
413380 Tempo 428571
443060 Tempo 402530
448000 Tempo 383631
448020 Tempo 392156
450320 Tempo 428571
454820 Tempo 500007
455400 Tempo 631579
455980 Tempo 379746
457120 Tempo 404212
457140 Tempo 428571
457140 Meta TrkEnd
TrkEnd
MTrk
0 SeqSpec 43 00 01 00
0 Meta TrkName "Chopin Scherzo #3 "
580 Par ch=1 c=7 v=127
610 Par ch=1 c=64 v=127
775 On ch=1 n=f#4 v=38
786 On ch=1 n=f#3 v=24
898 On ch=1 n=f#4 v=0
903 On ch=1 n=a4 v=41
905 On ch=1 n=a3 v=25
917 On ch=1 n=f#3 v=0
1016 On ch=1 n=e3 v=36
1023 On ch=1 n=e4 v=50
1032 On ch=1 n=a4 v=0
1034 On ch=1 n=a3 v=0
1137 On ch=1 n=f3 v=45
1137 On ch=1 n=f4 v=62
1154 On ch=1 n=e3 v=0
1157 On ch=1 n=e4 v=0
1250 On ch=1 n=f4 v=0
1257 On ch=1 n=f3 v=0
1257 On ch=1 n=d5 v=82
1260 On ch=1 n=d4 v=57
1402 On ch=1 n=d4 v=0
1463 Par ch=1 c=64 v=0
1475 On ch=1 n=d5 v=0
1850 Par ch=1 c=64 v=127
1882 On ch=1 n=f4 v=41
1896 On ch=1 n=f3 v=24
2017 On ch=1 n=g#3 v=26
2024 On ch=1 n=g#4 v=42
2034 On ch=1 n=f4 v=0
2065 On ch=1 n=f3 v=0
2136 On ch=1 n=d#4 v=51
2140 On ch=1 n=g#3 v=0
2143 On ch=1 n=d#3 v=35
2147 On ch=1 n=g#4 v=0
2252 On ch=1 n=e4 v=60
2266 On ch=1 n=e3 v=45
2271 On ch=1 n=d#4 v=0
2302 On ch=1 n=d#3 v=0
2379 On ch=1 n=c#5 v=82
2384 On ch=1 n=c#4 v=57
2400 On ch=1 n=e3 v=0
2408 On ch=1 n=e4 v=0
2502 On ch=1 n=c#4 v=0
2561 Par ch=1 c=64 v=0
2573 On ch=1 n=c#5 v=0
3016 On ch=1 n=c5 v=84
3020 On ch=1 n=c4 v=73
3095 On ch=1 n=c5 v=0
3096 On ch=1 n=c4 v=0
3121 On ch=1 n=c5 v=84
3121 On ch=1 n=c4 v=74
3229 Par ch=1 c=64 v=127
3261 On ch=1 n=g4 v=75
3261 On ch=1 n=g3 v=63
3401 On ch=1 n=d4 v=78
3401 On ch=1 n=d3 v=66
3432 On ch=1 n=g4 v=0
3446 On ch=1 n=g3 v=0
3544 On ch=1 n=d#4 v=80
3558 On ch=1 n=c5 v=0
3561 On ch=1 n=c4 v=0
3564 On ch=1 n=d#3 v=69
3580 On ch=1 n=d4 v=0
3596 On ch=1 n=d3 v=0
3740 On ch=1 n=b4 v=84
3743 On ch=1 n=b3 v=71
3745 On ch=1 n=d#4 v=0
3786 On ch=1 n=d#3 v=0
3941 On ch=1 n=b3 v=0
3983 Par ch=1 c=64 v=0
3995 On ch=1 n=b4 v=0
4349 Par ch=1 c=64 v=127
4381 On ch=1 n=f#7 v=100
4384 On ch=1 n=d#5 v=76
4391 On ch=1 n=f#6 v=91
4391 On ch=1 n=f#5 v=84
4394 On ch=1 n=f#4 v=77
4404 On ch=1 n=b4 v=75
4407 On ch=1 n=d#4 v=86
4440 On ch=1 n=f#7 v=0
4443 On ch=1 n=d#5 v=0
4450 On ch=1 n=f#5 v=0
4450 On ch=1 n=f#6 v=0
4453 On ch=1 n=f#4 v=0
4463 On ch=1 n=b4 v=0
4466 On ch=1 n=d#4 v=0
4476 On ch=1 n=f#7 v=117
4486 On ch=1 n=f#6 v=88
4489 On ch=1 n=f#5 v=85
4492 On ch=1 n=d#4 v=65
4499 On ch=1 n=b4 v=72
4502 On ch=1 n=f#4 v=70
4509 On ch=1 n=d#5 v=74
4927 On ch=1 n=f#6 v=0
5007 On ch=1 n=b4 v=0
5027 On ch=1 n=f#7 v=0
5047 On ch=1 n=d#4 v=0
5088 On ch=1 n=f#5 v=0
5098 On ch=1 n=f#4 v=0
5105 On ch=1 n=d#5 v=0
5613 Par ch=1 c=64 v=0
5841 On ch=1 n=d#3 v=23
5841 On ch=1 n=d#4 v=41
5871 Par ch=1 c=64 v=127
5956 On ch=1 n=f#3 v=24
5956 On ch=1 n=f#4 v=43
5959 On ch=1 n=d#4 v=0
5975 On ch=1 n=d#3 v=0
6073 On ch=1 n=d4 v=53
6076 On ch=1 n=d3 v=34
6086 On ch=1 n=f#4 v=0
6105 On ch=1 n=f#3 v=0
6213 On ch=1 n=d#4 v=64
6216 On ch=1 n=d#3 v=44
6234 On ch=1 n=d3 v=0
6264 On ch=1 n=d4 v=0
6329 On ch=1 n=d#3 v=0
6337 On ch=1 n=b3 v=55
6337 On ch=1 n=b4 v=76
6371 On ch=1 n=d#4 v=0
6454 On ch=1 n=b3 v=0
6529 On ch=1 n=b4 v=0
6554 Par ch=1 c=64 v=0
6914 Par ch=1 c=64 v=127
6954 On ch=1 n=d3 v=24
6954 On ch=1 n=d4 v=41
7073 On ch=1 n=d3 v=0
7074 On ch=1 n=f#3 v=25
7074 On ch=1 n=f#4 v=43
7103 On ch=1 n=d4 v=0
7195 On ch=1 n=c#3 v=35
7195 On ch=1 n=c#4 v=53
7198 On ch=1 n=f#3 v=0
7213 On ch=1 n=f#4 v=0
7315 On ch=1 n=d3 v=45
7315 On ch=1 n=d4 v=63
7326 On ch=1 n=c#3 v=0
7335 On ch=1 n=c#4 v=0
7455 On ch=1 n=b4 v=75
7457 On ch=1 n=d4 v=0
7458 On ch=1 n=b3 v=55
7475 On ch=1 n=d3 v=0
7582 On ch=1 n=b3 v=0
7635 Par ch=1 c=64 v=0
7650 On ch=1 n=b4 v=0
8201 On ch=1 n=a#4 v=72
8204 On ch=1 n=a#3 v=66
8283 On ch=1 n=a#3 v=0
8283 On ch=1 n=a#4 v=0
8302 On ch=1 n=a#4 v=73
8302 On ch=1 n=a#3 v=66
8383 Par ch=1 c=64 v=127
8423 On ch=1 n=d#4 v=65
8425 On ch=1 n=d#3 v=54
8543 On ch=1 n=d#3 v=0
8555 On ch=1 n=b3 v=70
8562 On ch=1 n=d#4 v=0
8565 On ch=1 n=b2 v=60
8732 On ch=1 n=b3 v=0
8742 On ch=1 n=a#3 v=0
8743 On ch=1 n=b2 v=0
8744 On ch=1 n=c4 v=77
8744 On ch=1 n=c3 v=66
8771 On ch=1 n=a#4 v=0
8893 On ch=1 n=c3 v=0
8897 On ch=1 n=c4 v=0
8943 On ch=1 n=a3 v=73
8943 On ch=1 n=a4 v=86
9081 On ch=1 n=a3 v=0
9098 On ch=1 n=a4 v=0
9110 Par ch=1 c=64 v=0
9579 Par ch=1 c=64 v=127
9579 On ch=1 n=f#7 v=101
9585 On ch=1 n=a4 v=78
9592 On ch=1 n=f#6 v=90
9602 On ch=1 n=f#5 v=89
9602 On ch=1 n=d#5 v=87
9605 On ch=1 n=f#4 v=78
9608 On ch=1 n=d#4 v=89
9660 On ch=1 n=f#7 v=0
9663 On ch=1 n=a4 v=0
9670 On ch=1 n=f#6 v=0
9680 On ch=1 n=f#5 v=0
9683 On ch=1 n=f#4 v=0
9683 On ch=1 n=d#5 v=0
9686 On ch=1 n=d#4 v=0
9690 On ch=1 n=f#7 v=117
9700 On ch=1 n=f#5 v=89
9700 On ch=1 n=f#6 v=90
9703 On ch=1 n=a4 v=79
9706 On ch=1 n=f#4 v=78
9716 On ch=1 n=d#4 v=74
9723 On ch=1 n=d#5 v=87
10231 On ch=1 n=a4 v=0
10281 On ch=1 n=d#4 v=0
10291 On ch=1 n=d#5 v=0
10301 On ch=1 n=f#4 v=0
10301 On ch=1 n=f#5 v=0
10416 On ch=1 n=c4 v=66
10426 On ch=1 n=c3 v=71
10506 Par ch=1 c=64 v=0
10613 On ch=1 n=c4 v=0
10624 On ch=1 n=f#3 v=72
10642 On ch=1 n=c3 v=0
10658 On ch=1 n=f#2 v=65
10835 On ch=1 n=f#2 v=0
10835 On ch=1 n=f#3 v=0
10898 On ch=1 n=a3 v=76
10902 On ch=1 n=a2 v=70
11079 On ch=1 n=a2 v=0
11093 On ch=1 n=a3 v=0
11158 On ch=1 n=a3 v=75
11181 On ch=1 n=a4 v=90
11243 On ch=1 n=f#6 v=0
11266 On ch=1 n=f#7 v=0
11370 On ch=1 n=a3 v=0
11380 On ch=1 n=a4 v=0
11867 Par ch=1 c=64 v=127
11900 On ch=1 n=f#7 v=101
11910 On ch=1 n=d5 v=80
11913 On ch=1 n=f#6 v=93
11913 On ch=1 n=f#5 v=89
11916 On ch=1 n=a4 v=80
11919 On ch=1 n=f#4 v=89
11987 On ch=1 n=f#7 v=0
11988 On ch=1 n=d5 v=0
11989 On ch=1 n=f#5 v=0
11991 On ch=1 n=a4 v=0
11994 On ch=1 n=f#4 v=0
11997 On ch=1 n=f#6 v=0
12001 On ch=1 n=f#5 v=89
12008 On ch=1 n=f#7 v=117
12011 On ch=1 n=a4 v=80
12011 On ch=1 n=d5 v=87
12034 On ch=1 n=f#4 v=78
12038 On ch=1 n=f#6 v=92
12885 On ch=1 n=f#4 v=0
13010 On ch=1 n=a4 v=0
13100 On ch=1 n=f#6 v=0
13140 On ch=1 n=d5 v=0
13180 On ch=1 n=f#5 v=0
13187 On ch=1 n=f#7 v=0
13455 On ch=1 n=a3 v=84
13465 On ch=1 n=a2 v=79
13493 Par ch=1 c=64 v=0
13650 Par ch=1 c=64 v=127
14751 On ch=1 n=a3 v=0
14755 On ch=1 n=a2 v=0
14820 On ch=1 n=f#3 v=90
14860 On ch=1 n=f#2 v=84
14890 Par ch=1 c=64 v=0
15028 On ch=1 n=f#2 v=0
15069 On ch=1 n=f#3 v=0
15075 On ch=1 n=g3 v=91
15078 On ch=1 n=g2 v=85
15242 On ch=1 n=g3 v=0
15262 On ch=1 n=g2 v=0
15286 On ch=1 n=a3 v=92
15316 On ch=1 n=a2 v=87
15482 On ch=1 n=a2 v=0
15524 On ch=1 n=a3 v=0
15627 On ch=1 n=c2 v=93
15667 On ch=1 n=c3 v=105
15747 Par ch=1 c=64 v=127
16642 On ch=1 n=c3 v=0
16662 On ch=1 n=c2 v=0
16707 On ch=1 n=c#7 v=98
16717 On ch=1 n=c#6 v=86
16720 On ch=1 n=c#3 v=96
16720 On ch=1 n=c#2 v=96
16770 Par ch=1 c=64 v=0
16907 Par ch=1 c=64 v=127
16994 On ch=1 n=c#2 v=0
16994 On ch=1 n=c#3 v=0
17290 On ch=1 n=c#7 v=0
17479 On ch=1 n=c#6 v=0
17547 On ch=1 n=a6 v=93
17557 On ch=1 n=a3 v=72
17564 On ch=1 n=a4 v=96
17564 On ch=1 n=a5 v=74
17587 Par ch=1 c=64 v=0
17724 Par ch=1 c=64 v=127
17903 On ch=1 n=a5 v=0
17905 On ch=1 n=a6 v=0
17967 On ch=1 n=a3 v=0
17970 On ch=1 n=a4 v=0
18025 On ch=1 n=g#6 v=79
18036 On ch=1 n=g#3 v=70
18037 On ch=1 n=g#5 v=70
18040 On ch=1 n=g#4 v=72
18086 Par ch=1 c=64 v=0
18157 On ch=1 n=g#6 v=0
18167 On ch=1 n=g#3 v=0
18182 On ch=1 n=g#5 v=0
18182 On ch=1 n=f#6 v=73
18187 On ch=1 n=g#4 v=0
18192 On ch=1 n=f#5 v=68
18196 On ch=1 n=f#4 v=71
18200 On ch=1 n=f#3 v=65
18296 On ch=1 n=f#4 v=0
18297 On ch=1 n=f#6 v=0
18309 On ch=1 n=f#5 v=0
18319 On ch=1 n=e6 v=68
18324 On ch=1 n=f#3 v=0
18330 On ch=1 n=e5 v=61
18332 On ch=1 n=e3 v=60
18336 On ch=1 n=e4 v=65
18454 On ch=1 n=e6 v=0
18461 On ch=1 n=e5 v=0
18469 On ch=1 n=e3 v=0
18473 On ch=1 n=e4 v=0
18483 On ch=1 n=a6 v=80
18491 On ch=1 n=a5 v=76
18494 On ch=1 n=a4 v=77
18495 On ch=1 n=a3 v=71
18608 On ch=1 n=a5 v=0
18610 On ch=1 n=a6 v=0
18613 On ch=1 n=a4 v=0
18628 On ch=1 n=a3 v=0
18640 On ch=1 n=g#6 v=80
18652 On ch=1 n=g#5 v=75
18652 On ch=1 n=g#4 v=78
18654 On ch=1 n=g#3 v=72
18766 On ch=1 n=g#4 v=0
18774 On ch=1 n=g#6 v=0
18785 On ch=1 n=g#3 v=0
18790 On ch=1 n=g#5 v=0
18800 On ch=1 n=g6 v=76
18814 On ch=1 n=g5 v=71
18815 On ch=1 n=g3 v=70
18816 On ch=1 n=g4 v=75
18937 On ch=1 n=g3 v=0
18938 On ch=1 n=g6 v=0
18942 On ch=1 n=g4 v=0
18950 On ch=1 n=g5 v=0
18958 On ch=1 n=g#6 v=73
18973 On ch=1 n=g#3 v=67
18973 On ch=1 n=g#4 v=72
18976 On ch=1 n=g#5 v=69
19087 On ch=1 n=g#6 v=0
19089 On ch=1 n=g#4 v=0
19100 On ch=1 n=g#3 v=0
19118 On ch=1 n=f#6 v=68
19129 On ch=1 n=g#5 v=0
19133 On ch=1 n=f#5 v=62
19134 On ch=1 n=f#4 v=68
19134 On ch=1 n=f#3 v=63
19244 On ch=1 n=f#6 v=0
19246 On ch=1 n=f#5 v=0
19249 On ch=1 n=f#4 v=0
19250 On ch=1 n=f#3 v=0
19261 On ch=1 n=e6 v=68
19271 On ch=1 n=e5 v=62
19274 On ch=1 n=e4 v=65
19275 On ch=1 n=e3 v=61
19402 On ch=1 n=e6 v=0
19418 On ch=1 n=e3 v=0
19420 On ch=1 n=a6 v=80
19424 On ch=1 n=e4 v=0
19428 On ch=1 n=e5 v=0
19432 On ch=1 n=a5 v=75
19433 On ch=1 n=a4 v=77
19437 On ch=1 n=a3 v=72
19552 On ch=1 n=a6 v=0
19563 On ch=1 n=a3 v=0
19577 On ch=1 n=a5 v=0
19579 On ch=1 n=g#6 v=79
19583 On ch=1 n=a4 v=0
19591 On ch=1 n=g#5 v=74
19592 On ch=1 n=g#3 v=71
19594 On ch=1 n=g#4 v=77
19710 On ch=1 n=g#3 v=0
19715 On ch=1 n=g#4 v=0
19717 On ch=1 n=g#6 v=0
19735 On ch=1 n=g#5 v=0
19742 On ch=1 n=g6 v=74
19752 On ch=1 n=g3 v=67
19754 On ch=1 n=g5 v=69
19756 On ch=1 n=g4 v=71
19867 On ch=1 n=g6 v=0
19871 On ch=1 n=g4 v=0
19881 On ch=1 n=g5 v=0
19887 On ch=1 n=g3 v=0
19903 On ch=1 n=g#6 v=68
19909 On ch=1 n=g#5 v=63
19911 On ch=1 n=g#4 v=66
19914 On ch=1 n=g#3 v=61
20020 On ch=1 n=g#6 v=0
20021 On ch=1 n=g#5 v=0
20025 On ch=1 n=g#3 v=0
20040 On ch=1 n=g#4 v=0
20117 On ch=1 n=e6 v=80
20128 On ch=1 n=e5 v=74
20129 On ch=1 n=e4 v=77
20131 On ch=1 n=e3 v=73
20192 On ch=1 n=e6 v=0
20199 On ch=1 n=d#6 v=80
20201 On ch=1 n=e4 v=0
20207 On ch=1 n=e5 v=0
20209 On ch=1 n=d#5 v=76
20211 On ch=1 n=e3 v=0
20213 On ch=1 n=d#4 v=77
20215 On ch=1 n=d#3 v=73
20333 On ch=1 n=d#6 v=0
20359 On ch=1 n=d#3 v=0
20366 On ch=1 n=d#5 v=0
20375 On ch=1 n=d#4 v=0
20382 On ch=1 n=c#6 v=76
20393 On ch=1 n=c#4 v=73
20393 On ch=1 n=c#5 v=71
20397 On ch=1 n=c#3 v=70
20515 On ch=1 n=c#6 v=0
20521 On ch=1 n=c#3 v=0
20525 On ch=1 n=c#5 v=0
20541 On ch=1 n=c#4 v=0
20541 On ch=1 n=b5 v=72
20550 On ch=1 n=b3 v=64
20554 On ch=1 n=b4 v=68
20554 On ch=1 n=b2 v=66
20704 On ch=1 n=b5 v=0
20710 On ch=1 n=b3 v=0
20720 On ch=1 n=a5 v=68
20721 On ch=1 n=b2 v=0
20723 On ch=1 n=b4 v=0
20729 On ch=1 n=a3 v=65
20730 On ch=1 n=a4 v=68
20734 On ch=1 n=a2 v=60
20872 On ch=1 n=a3 v=0
20877 On ch=1 n=a5 v=0
20881 On ch=1 n=a2 v=0
20897 On ch=1 n=a4 v=0
20908 On ch=1 n=g#5 v=79
20911 On ch=1 n=g#3 v=72
20911 On ch=1 n=g#2 v=65
20918 On ch=1 n=g#4 v=62
22283 On ch=1 n=g#3 v=0
22361 Par ch=1 c=64 v=127
22423 On ch=1 n=g#4 v=0
22454 On ch=1 n=g#2 v=0
22514 On ch=1 n=g#5 v=0
22565 On ch=1 n=e5 v=42
22588 On ch=1 n=c#5 v=32
22588 On ch=1 n=c#3 v=42
22628 Par ch=1 c=64 v=0
22758 Par ch=1 c=64 v=127
22966 On ch=1 n=a#4 v=42
23056 On ch=1 n=c#3 v=0
23093 On ch=1 n=c#5 v=0
23103 On ch=1 n=e5 v=0
23105 On ch=1 n=a#4 v=0
23165 On ch=1 n=g#3 v=46
23165 On ch=1 n=c5 v=46
23165 On ch=1 n=d#5 v=40
23168 On ch=1 n=g#2 v=43
23188 Par ch=1 c=64 v=0
23307 On ch=1 n=c5 v=0
23318 Par ch=1 c=64 v=127
23344 On ch=1 n=a#4 v=50
23475 On ch=1 n=a#4 v=0
23535 On ch=1 n=g#2 v=0
23546 On ch=1 n=g#4 v=54
23597 On ch=1 n=d#5 v=0
23702 On ch=1 n=g#4 v=0
23728 On ch=1 n=e5 v=41
23728 On ch=1 n=g4 v=36
23728 On ch=1 n=c#5 v=54
23748 Par ch=1 c=64 v=0
23872 On ch=1 n=c#5 v=0
23878 Par ch=1 c=64 v=127
23924 On ch=1 n=c5 v=50
24069 On ch=1 n=c5 v=0
24125 On ch=1 n=a#4 v=46
24230 On ch=1 n=g4 v=0
24236 On ch=1 n=e5 v=0
24252 On ch=1 n=a#4 v=0
24319 On ch=1 n=g#3 v=0
24327 On ch=1 n=d#5 v=65
24328 On ch=1 n=c5 v=56
24330 On ch=1 n=g#4 v=50
24438 Par ch=1 c=64 v=0
24444 On ch=1 n=c5 v=0
24461 On ch=1 n=g#4 v=0
24471 On ch=1 n=d#5 v=0
24542 On ch=1 n=g#5 v=83
24542 On ch=1 n=g#6 v=91
24548 On ch=1 n=g#4 v=78
24548 On ch=1 n=g#3 v=71
24673 On ch=1 n=g#6 v=0
24684 On ch=1 n=g#5 v=0
24699 On ch=1 n=g#4 v=0
24704 On ch=1 n=g#3 v=0
24708 On ch=1 n=a6 v=91
24710 On ch=1 n=a4 v=71
24711 On ch=1 n=a5 v=82
24714 On ch=1 n=a3 v=68
24828 On ch=1 n=a6 v=0
24836 On ch=1 n=a5 v=0
24857 On ch=1 n=a3 v=0
24864 On ch=1 n=a4 v=0
24868 On ch=1 n=f5 v=84
24869 On ch=1 n=f4 v=81
24870 On ch=1 n=f6 v=94
24870 On ch=1 n=f3 v=75
25009 On ch=1 n=f4 v=0
25014 On ch=1 n=f3 v=0
25020 On ch=1 n=f5 v=0
25026 On ch=1 n=f6 v=0
25028 On ch=1 n=f#4 v=89
25028 On ch=1 n=f#5 v=91
25029 On ch=1 n=f#6 v=103
25032 On ch=1 n=f#3 v=84
25166 On ch=1 n=f#5 v=0
25178 On ch=1 n=f#6 v=0
25187 On ch=1 n=f#4 v=0
25199 On ch=1 n=f#3 v=0
25206 On ch=1 n=e6 v=94
25207 On ch=1 n=e5 v=84
25207 On ch=1 n=e7 v=103
25211 On ch=1 n=e4 v=80
25340 On ch=1 n=e7 v=0
25354 On ch=1 n=e5 v=0
25360 On ch=1 n=e4 v=0
25362 Par ch=1 c=64 v=127
25366 On ch=1 n=c#7 v=90
25376 On ch=1 n=c#5 v=80
25383 On ch=1 n=c#6 v=79
25384 On ch=1 n=e6 v=0
25386 On ch=1 n=c#4 v=75
25821 On ch=1 n=c#5 v=0
25827 On ch=1 n=c#7 v=0
25910 On ch=1 n=c#4 v=0
25941 On ch=1 n=a4 v=50
25944 On ch=1 n=a6 v=67
25945 On ch=1 n=a5 v=63
25946 On ch=1 n=a3 v=47
25976 Par ch=1 c=64 v=0
26106 Par ch=1 c=64 v=127
26300 On ch=1 n=c#6 v=0
26435 On ch=1 n=a6 v=0
26445 On ch=1 n=a3 v=0
26455 On ch=1 n=a4 v=0
26473 On ch=1 n=a5 v=0
26499 On ch=1 n=g#4 v=49
26500 On ch=1 n=g#3 v=50
26501 On ch=1 n=g#6 v=57
26504 On ch=1 n=g#5 v=61
26543 Par ch=1 c=64 v=0
26626 On ch=1 n=g#4 v=0
26644 On ch=1 n=g#6 v=0
26646 On ch=1 n=g#5 v=0
26652 On ch=1 n=g#3 v=0
26658 On ch=1 n=f#5 v=67
26660 On ch=1 n=f#6 v=63
26663 On ch=1 n=f#3 v=54
26666 On ch=1 n=f#4 v=57
26780 On ch=1 n=f#6 v=0
26788 On ch=1 n=f#5 v=0
26794 On ch=1 n=f#4 v=0
26798 On ch=1 n=f#3 v=0
26823 On ch=1 n=e6 v=69
26824 On ch=1 n=e4 v=63
26825 On ch=1 n=e5 v=75
26828 On ch=1 n=e3 v=61
26944 On ch=1 n=e3 v=0
26956 On ch=1 n=e6 v=0
26980 On ch=1 n=a4 v=79
26981 On ch=1 n=a5 v=91
26986 On ch=1 n=e5 v=0
26986 On ch=1 n=e4 v=0
26988 On ch=1 n=a6 v=75
26989 On ch=1 n=a3 v=69
27100 On ch=1 n=a5 v=0
27120 On ch=1 n=a6 v=0
27127 On ch=1 n=a4 v=0
27131 On ch=1 n=a3 v=0
27139 On ch=1 n=g#6 v=80
27139 On ch=1 n=g#5 v=96
27146 On ch=1 n=g#4 v=84
27149 On ch=1 n=g#3 v=74
27268 On ch=1 n=g#5 v=0
27288 On ch=1 n=g#6 v=0
27295 On ch=1 n=g#3 v=0
27299 On ch=1 n=g#4 v=0
27299 On ch=1 n=g6 v=78
27299 On ch=1 n=g5 v=92
27302 On ch=1 n=g3 v=70
27307 On ch=1 n=g4 v=81
27405 On ch=1 n=g5 v=0
27409 On ch=1 n=g3 v=0
27411 On ch=1 n=g4 v=0
27425 On ch=1 n=g6 v=0
27436 On ch=1 n=g#5 v=90
27440 On ch=1 n=g#6 v=74
27442 On ch=1 n=g#4 v=78
27448 On ch=1 n=g#3 v=67
27557 On ch=1 n=g#4 v=0
27568 On ch=1 n=g#6 v=0
27573 On ch=1 n=g#3 v=0
27583 On ch=1 n=g#5 v=0
27593 On ch=1 n=f#6 v=72
27594 On ch=1 n=f#3 v=64
27596 On ch=1 n=f#4 v=74
27599 On ch=1 n=f#5 v=86
27720 On ch=1 n=f#4 v=0
27724 On ch=1 n=f#5 v=0
27743 On ch=1 n=f#3 v=0
27745 On ch=1 n=f#6 v=0
27753 On ch=1 n=e4 v=72
27754 On ch=1 n=e3 v=61
27759 On ch=1 n=e6 v=69
27759 On ch=1 n=e5 v=84
27877 On ch=1 n=e4 v=0
27879 On ch=1 n=e5 v=0
27906 On ch=1 n=e3 v=0
27915 On ch=1 n=a4 v=73
27916 On ch=1 n=a6 v=70
27920 On ch=1 n=e6 v=0
27920 On ch=1 n=a5 v=86
27923 On ch=1 n=a3 v=63
28046 On ch=1 n=a4 v=0
28052 On ch=1 n=a3 v=0
28058 On ch=1 n=a6 v=0
28074 On ch=1 n=g#6 v=75
28075 On ch=1 n=g#3 v=66
28076 On ch=1 n=g#5 v=91
28077 On ch=1 n=a5 v=0
28078 On ch=1 n=g#4 v=77
28183 On ch=1 n=g#6 v=0
28193 On ch=1 n=g#5 v=0
28196 On ch=1 n=g#3 v=0
28207 On ch=1 n=g#4 v=0
28210 On ch=1 n=g4 v=73
28215 On ch=1 n=g6 v=69
28217 On ch=1 n=g5 v=84
28219 On ch=1 n=g3 v=62
28338 On ch=1 n=g4 v=0
28352 On ch=1 n=g5 v=0
28364 On ch=1 n=g6 v=0
28367 On ch=1 n=g3 v=0
28374 On ch=1 n=g#6 v=63
28376 On ch=1 n=g#4 v=67
28377 On ch=1 n=g#5 v=78
28380 On ch=1 n=g#3 v=54
28496 On ch=1 n=g#5 v=0
28511 On ch=1 n=g#4 v=0
28516 On ch=1 n=g#6 v=0
28526 On ch=1 n=g#3 v=0
28600 On ch=1 n=e6 v=50
28603 On ch=1 n=e4 v=54
28604 On ch=1 n=e5 v=66
28610 On ch=1 n=e3 v=45
28671 On ch=1 n=e6 v=0
28678 On ch=1 n=e5 v=0
28680 On ch=1 n=e4 v=0
28689 On ch=1 n=d#3 v=42
28689 On ch=1 n=d#6 v=52
28692 On ch=1 n=d#5 v=65
28693 On ch=1 n=e3 v=0
28696 On ch=1 n=d#4 v=55
28821 On ch=1 n=d#5 v=0
28823 On ch=1 n=d#4 v=0
28825 On ch=1 n=d#3 v=0
28830 On ch=1 n=d#6 v=0
28847 On ch=1 n=c#5 v=72
28849 On ch=1 n=c#4 v=61
28852 On ch=1 n=c#6 v=57
28852 On ch=1 n=c#3 v=51
28995 On ch=1 n=c#4 v=0
29000 On ch=1 n=c#6 v=0
29008 On ch=1 n=c#5 v=0
29017 On ch=1 n=c#3 v=0
29029 On ch=1 n=b5 v=63
29030 On ch=1 n=b3 v=65
29031 On ch=1 n=b4 v=77
29035 On ch=1 n=b2 v=57
29170 On ch=1 n=b2 v=0
29171 On ch=1 n=b5 v=0
29172 On ch=1 n=b3 v=0
29182 On ch=1 n=b4 v=0
29206 On ch=1 n=a3 v=72
29207 On ch=1 n=a5 v=69
29211 On ch=1 n=a4 v=85
29215 On ch=1 n=a2 v=61
29353 On ch=1 n=a4 v=0
29367 On ch=1 n=g#5 v=92
29369 On ch=1 n=a3 v=0
29381 On ch=1 n=a2 v=0
29385 On ch=1 n=g#4 v=84
29387 On ch=1 n=a5 v=0
29387 On ch=1 n=g#3 v=94
29391 On ch=1 n=g#2 v=83
30066 Par ch=1 c=64 v=127
30406 On ch=1 n=g#2 v=0
30504 On ch=1 n=b4 v=47
30506 On ch=1 n=e2 v=41
30510 On ch=1 n=g#3 v=0
30534 On ch=1 n=e3 v=34
30554 Par ch=1 c=64 v=0
30680 Par ch=1 c=64 v=127
30888 On ch=1 n=e2 v=0
30906 On ch=1 n=g#5 v=0
30989 On ch=1 n=e3 v=0
31036 On ch=1 n=e5 v=56
31038 On ch=1 n=b4 v=0
31040 On ch=1 n=g#4 v=0
31066 On ch=1 n=c#5 v=40
31069 On ch=1 n=a4 v=38
31072 On ch=1 n=a2 v=34
31099 On ch=1 n=a3 v=34
31119 Par ch=1 c=64 v=0
31245 Par ch=1 c=64 v=127
31455 On ch=1 n=c#5 v=0
31465 On ch=1 n=e5 v=0
31491 On ch=1 n=a2 v=0
31524 On ch=1 n=a3 v=0
31580 On ch=1 n=a4 v=0
31626 On ch=1 n=b4 v=50
31626 On ch=1 n=g#5 v=61
31629 On ch=1 n=e4 v=36
31632 On ch=1 n=e3 v=32
31642 On ch=1 n=b3 v=34
31649 On ch=1 n=g#4 v=48
31696 Par ch=1 c=64 v=0
31822 Par ch=1 c=64 v=127
31822 On ch=1 n=f#5 v=60
31841 On ch=1 n=g#5 v=0
32002 On ch=1 n=e5 v=63
32017 On ch=1 n=f#5 v=0
32035 On ch=1 n=e3 v=0
32035 On ch=1 n=e4 v=0
32052 On ch=1 n=b4 v=0
32142 On ch=1 n=e5 v=0
32190 On ch=1 n=g#4 v=0
32200 On ch=1 n=b3 v=0
32203 On ch=1 n=e4 v=41
32210 On ch=1 n=e5 v=53
32213 On ch=1 n=a3 v=39
32213 On ch=1 n=c#5 v=67
32273 Par ch=1 c=64 v=0
32399 Par ch=1 c=64 v=127
32402 On ch=1 n=b4 v=67
32427 On ch=1 n=c#5 v=0
32623 On ch=1 n=a4 v=49
32638 On ch=1 n=b4 v=0
32717 On ch=1 n=a3 v=0
32721 On ch=1 n=e4 v=0
32795 On ch=1 n=d#4 v=36
32815 Par ch=1 c=64 v=0
32825 On ch=1 n=f#5 v=60
32828 On ch=1 n=b3 v=42
32832 On ch=1 n=e5 v=0
32941 Par ch=1 c=64 v=127
33325 On ch=1 n=b3 v=0
33350 On ch=1 n=d#4 v=0
33460 On ch=1 n=f#5 v=0
33466 On ch=1 n=e5 v=57
33469 On ch=1 n=e4 v=28
33469 On ch=1 n=e3 v=34
33489 Par ch=1 c=64 v=0
33496 On ch=1 n=g#4 v=34
33507 On ch=1 n=a4 v=0
33615 Par ch=1 c=64 v=127
33644 On ch=1 n=e3 v=0
33647 On ch=1 n=g#4 v=0
33705 On ch=1 n=e4 v=0
33797 On ch=1 n=e5 v=0
34101 Par ch=1 c=64 v=0
34141 On ch=1 n=f#4 v=42
34180 On ch=1 n=f#4 v=0
34300 On ch=1 n=g#4 v=44
34342 On ch=1 n=g#4 v=0
34460 On ch=1 n=e4 v=47
34522 On ch=1 n=e4 v=0
34642 On ch=1 n=d#4 v=49
34681 On ch=1 n=d#4 v=0
34802 On ch=1 n=e4 v=51
34841 On ch=1 n=e4 v=0
34981 On ch=1 n=c#4 v=52
35020 On ch=1 n=c#4 v=0
35140 On ch=1 n=g#5 v=56
35143 On ch=1 n=c4 v=52
35163 On ch=1 n=g#4 v=40
35182 On ch=1 n=c4 v=0
35183 On ch=1 n=d#5 v=42
35300 On ch=1 n=a#3 v=46
35362 On ch=1 n=a#3 v=0
35482 On ch=1 n=g#3 v=40
35521 On ch=1 n=g#3 v=0
35547 On ch=1 n=g#4 v=0
35568 On ch=1 n=d#5 v=0
35596 On ch=1 n=g#5 v=0
35644 On ch=1 n=a#4 v=61
35644 On ch=1 n=g5 v=52
35647 On ch=1 n=e4 v=52
35681 On ch=1 n=e4 v=0
35821 On ch=1 n=d#4 v=52
35860 On ch=1 n=d#4 v=0
35980 On ch=1 n=e5 v=52
35983 On ch=1 n=c#4 v=49
36005 On ch=1 n=a#4 v=0
36020 On ch=1 n=c#4 v=0
36064 On ch=1 n=g5 v=0
36109 On ch=1 n=e5 v=0
36133 On ch=1 n=d#5 v=40
36143 On ch=1 n=g#5 v=48
36146 On ch=1 n=g#4 v=40
36146 On ch=1 n=c4 v=46
36202 On ch=1 n=c4 v=0
36322 On ch=1 n=a#3 v=43
36361 On ch=1 n=a#3 v=0
36482 On ch=1 n=g#3 v=40
36521 On ch=1 n=g#3 v=0
36585 On ch=1 n=g#5 v=0
36630 On ch=1 n=g#4 v=0
36631 On ch=1 n=d#5 v=0
36664 On ch=1 n=a#4 v=58
36664 On ch=1 n=g5 v=52
36666 On ch=1 n=e4 v=52
36703 On ch=1 n=e4 v=0
36782 On ch=1 n=a#4 v=0
36820 On ch=1 n=f#5 v=59
36820 On ch=1 n=d#4 v=52
36860 On ch=1 n=d#4 v=0
36993 On ch=1 n=f#5 v=0
37002 On ch=1 n=e5 v=57
37002 On ch=1 n=c#4 v=48
37042 On ch=1 n=c#4 v=0
37145 On ch=1 n=d#5 v=48
37150 On ch=1 n=e5 v=0
37156 On ch=1 n=g5 v=0
37162 On ch=1 n=g#5 v=48
37165 On ch=1 n=g#4 v=48
37165 On ch=1 n=c4 v=44
37201 On ch=1 n=c4 v=0
37322 On ch=1 n=a#3 v=40
37361 On ch=1 n=a#3 v=0
37501 On ch=1 n=g#3 v=40
37532 On ch=1 n=d#5 v=0
37540 On ch=1 n=g#3 v=0
37550 On ch=1 n=g#5 v=0
37663 On ch=1 n=e5 v=42
37663 On ch=1 n=c#5 v=42
37663 On ch=1 n=c#4 v=43
37700 On ch=1 n=c#4 v=0
37725 On ch=1 n=g#4 v=0
37745 On ch=1 n=e5 v=0
37780 On ch=1 n=c#5 v=0
37840 On ch=1 n=d#4 v=46
37882 On ch=1 n=d#4 v=0
37999 On ch=1 n=c#5 v=44
38002 On ch=1 n=e4 v=49
38041 On ch=1 n=e4 v=0
38162 On ch=1 n=c#5 v=0
38162 On ch=1 n=a5 v=58
38162 On ch=1 n=c5 v=52
38164 On ch=1 n=f#4 v=52
38182 On ch=1 n=a4 v=45
38201 On ch=1 n=f#4 v=0
38341 On ch=1 n=g#4 v=52
38380 On ch=1 n=g#4 v=0
38500 On ch=1 n=f#4 v=49
38540 On ch=1 n=f#4 v=0
38583 On ch=1 n=c5 v=0
38623 On ch=1 n=a4 v=0
38652 On ch=1 n=g#5 v=57
38685 On ch=1 n=c#5 v=52
38685 On ch=1 n=e4 v=46
38705 On ch=1 n=g#4 v=44
38706 On ch=1 n=a5 v=0
38722 On ch=1 n=e4 v=0
38839 On ch=1 n=d#4 v=43
38881 On ch=1 n=d#4 v=0
39002 On ch=1 n=c#4 v=40
39041 On ch=1 n=c#4 v=0
39181 On ch=1 n=d#5 v=52
39181 On ch=1 n=c4 v=40
39220 On ch=1 n=c4 v=0
39238 On ch=1 n=c#5 v=0
39340 On ch=1 n=a#3 v=40
39380 On ch=1 n=a#3 v=0
39520 On ch=1 n=g#3 v=40
39562 On ch=1 n=g#3 v=0
39636 On ch=1 n=d#5 v=0
39682 On ch=1 n=g5 v=53
39685 On ch=1 n=a#4 v=61
39691 On ch=1 n=e3 v=41
39693 On ch=1 n=e4 v=39
39697 On ch=1 n=g#5 v=0
39702 On ch=1 n=g#4 v=0
39783 On ch=1 n=e3 v=0
39802 On ch=1 n=e4 v=0
39838 On ch=1 n=d#4 v=48
39847 On ch=1 n=d#3 v=51
39948 On ch=1 n=d#3 v=0
39949 On ch=1 n=d#4 v=0
39975 On ch=1 n=a#4 v=0
40013 On ch=1 n=c#4 v=58
40024 On ch=1 n=c#3 v=62
40024 On ch=1 n=e5 v=62
40101 On ch=1 n=c#4 v=0
40118 On ch=1 n=c#3 v=0
40156 On ch=1 n=e5 v=0
40170 On ch=1 n=g5 v=0
40180 On ch=1 n=g#5 v=60
40183 On ch=1 n=g#4 v=34
40189 On ch=1 n=c4 v=73
40192 On ch=1 n=c3 v=70
40203 On ch=1 n=d#5 v=46
40297 On ch=1 n=c4 v=0
40301 On ch=1 n=c3 v=0
40350 On ch=1 n=a#2 v=77
40365 On ch=1 n=a#3 v=80
40454 On ch=1 n=a#3 v=0
40455 On ch=1 n=a#2 v=0
40528 On ch=1 n=g#3 v=94
40528 On ch=1 n=g#2 v=88
40621 On ch=1 n=g#2 v=0
40621 On ch=1 n=g#3 v=0
40649 On ch=1 n=g#5 v=0
40659 On ch=1 n=g#4 v=0
40681 On ch=1 n=g5 v=55
40683 On ch=1 n=e3 v=41
40684 On ch=1 n=a#4 v=50
40687 On ch=1 n=d#5 v=0
40691 On ch=1 n=e4 v=41
40787 On ch=1 n=e3 v=0
40803 On ch=1 n=e4 v=0
40835 On ch=1 n=a#4 v=0
40851 On ch=1 n=d#4 v=53
40865 On ch=1 n=d#3 v=53
40934 On ch=1 n=d#4 v=0
40936 On ch=1 n=f#5 v=64
40980 On ch=1 n=d#3 v=0
41005 On ch=1 n=f#5 v=0
41020 On ch=1 n=e5 v=64
41024 On ch=1 n=c#3 v=63
41027 On ch=1 n=c#4 v=61
41141 On ch=1 n=c#3 v=0
41147 On ch=1 n=c#4 v=0
41186 On ch=1 n=e5 v=0
41194 On ch=1 n=c3 v=70
41202 On ch=1 n=c4 v=72
41202 On ch=1 n=g#4 v=44
41202 On ch=1 n=g#5 v=64
41222 On ch=1 n=d#5 v=56
41236 On ch=1 n=g5 v=0
41279 On ch=1 n=c3 v=0
41282 On ch=1 n=c4 v=0
41348 On ch=1 n=a#3 v=78
41350 On ch=1 n=a#2 v=80
41440 On ch=1 n=a#3 v=0
41441 On ch=1 n=a#2 v=0
41507 On ch=1 n=g#3 v=81
41509 On ch=1 n=g#2 v=83
41605 On ch=1 n=g#5 v=0
41608 On ch=1 n=g#3 v=0
41611 On ch=1 n=g#2 v=0
41701 On ch=1 n=c#3 v=44
41701 On ch=1 n=e5 v=66
41701 On ch=1 n=c#5 v=57
41705 On ch=1 n=c#4 v=42
41709 On ch=1 n=d#5 v=0
41784 On ch=1 n=g#4 v=0
41813 On ch=1 n=c#4 v=0
41814 On ch=1 n=c#3 v=0
41841 On ch=1 n=c#5 v=0
41863 On ch=1 n=d#4 v=51
41863 On ch=1 n=d#3 v=54
41867 On ch=1 n=e5 v=0
41936 On ch=1 n=c#5 v=58
41944 On ch=1 n=d#4 v=0
41959 On ch=1 n=d#3 v=0
41997 On ch=1 n=c#5 v=0
42036 On ch=1 n=e4 v=62
42036 On ch=1 n=e3 v=60
42037 On ch=1 n=c#5 v=82
42131 On ch=1 n=e3 v=0
42143 On ch=1 n=e4 v=0
42179 On ch=1 n=a5 v=64
42189 On ch=1 n=c#5 v=0
42189 On ch=1 n=a4 v=50
42199 On ch=1 n=f#4 v=70
42199 On ch=1 n=c5 v=53
42202 On ch=1 n=f#3 v=68
42293 On ch=1 n=f#3 v=0
42296 On ch=1 n=f#4 v=0
42356 On ch=1 n=g#4 v=98
42356 On ch=1 n=g#3 v=101
42464 On ch=1 n=g#3 v=0
42501 On ch=1 n=g#4 v=0
42536 On ch=1 n=f#4 v=100
42540 On ch=1 n=f#3 v=97
42628 On ch=1 n=f#4 v=0
42632 On ch=1 n=f#3 v=0
42650 On ch=1 n=a4 v=0
42654 On ch=1 n=a5 v=0
42700 On ch=1 n=g#4 v=55
42700 On ch=1 n=g#5 v=65
42700 On ch=1 n=c#5 v=54
42701 On ch=1 n=e4 v=97
42702 On ch=1 n=e3 v=96
42709 On ch=1 n=c5 v=0
42816 On ch=1 n=e3 v=0
42819 On ch=1 n=e4 v=0
42861 On ch=1 n=g#4 v=0
42866 On ch=1 n=c#5 v=0
42876 On ch=1 n=d#3 v=99
42877 On ch=1 n=d#4 v=92
42888 On ch=1 n=g#5 v=0
42962 On ch=1 n=d#4 v=0
42980 On ch=1 n=d#3 v=0
43029 On ch=1 n=c#5 v=54
43036 On ch=1 n=c#6 v=78
43039 On ch=1 n=c#4 v=41
43039 On ch=1 n=c#3 v=47
43175 On ch=1 n=c#5 v=0
43186 On ch=1 n=c#3 v=0
43191 On ch=1 n=f5 v=48
43196 On ch=1 n=b5 v=72
43198 On ch=1 n=g#4 v=42
43341 On ch=1 n=f5 v=0
43373 On ch=1 n=d#5 v=53
43511 On ch=1 n=d#5 v=0
43529 On ch=1 n=c#5 v=55
43564 On ch=1 n=c#4 v=0
43564 On ch=1 n=c#6 v=0
43585 On ch=1 n=g#4 v=0
43601 On ch=1 n=b5 v=0
43673 On ch=1 n=c#5 v=0
43704 On ch=1 n=a5 v=45
43714 On ch=1 n=c#6 v=71
43716 On ch=1 n=a4 v=43
43716 On ch=1 n=f#4 v=43
43850 On ch=1 n=a5 v=0
43881 On ch=1 n=g#5 v=54
44026 On ch=1 n=f#5 v=55
44041 On ch=1 n=g#5 v=0
44085 On ch=1 n=f#4 v=0
44120 On ch=1 n=a4 v=0
44125 On ch=1 n=c#6 v=0
44161 On ch=1 n=f#5 v=0
44207 On ch=1 n=g#4 v=31
44211 On ch=1 n=f5 v=37
44215 On ch=1 n=c#6 v=68
44215 On ch=1 n=b5 v=35
44218 On ch=1 n=c#4 v=32
44339 On ch=1 n=f5 v=0
44356 On ch=1 n=g#4 v=0
44366 On ch=1 n=a4 v=32
44373 On ch=1 n=d#5 v=43
44521 On ch=1 n=a4 v=0
44545 On ch=1 n=c#5 v=44
44548 On ch=1 n=b4 v=30
44558 On ch=1 n=d#5 v=0
44601 On ch=1 n=c#4 v=0
44663 On ch=1 n=b5 v=0
44677 On ch=1 n=c#5 v=0
44691 On ch=1 n=b4 v=0
44691 On ch=1 n=c#6 v=0
44707 On ch=1 n=a4 v=44
44710 On ch=1 n=c#6 v=73
44714 On ch=1 n=a5 v=47
44718 On ch=1 n=f#4 v=45
44832 On ch=1 n=a4 v=0
44846 On ch=1 n=a5 v=0
44867 On ch=1 n=b4 v=45
44878 On ch=1 n=g#5 v=56
45014 On ch=1 n=b4 v=0
45019 On ch=1 n=g#5 v=0
45046 On ch=1 n=a4 v=44
45058 On ch=1 n=f#5 v=58
45120 On ch=1 n=f#4 v=0
45149 On ch=1 n=c#6 v=0
45174 On ch=1 n=f#5 v=0
45183 On ch=1 n=a4 v=0
45204 On ch=1 n=f5 v=44
45211 On ch=1 n=c#6 v=76
45211 On ch=1 n=b5 v=44
45214 On ch=1 n=c#4 v=40
45215 On ch=1 n=g#4 v=40
45357 On ch=1 n=f5 v=0
45375 On ch=1 n=g#4 v=0
45393 On ch=1 n=a4 v=40
45400 On ch=1 n=d#5 v=52
45540 On ch=1 n=a4 v=0
45556 On ch=1 n=d#5 v=0
45557 On ch=1 n=b4 v=40
45560 On ch=1 n=c#5 v=52
45594 On ch=1 n=b5 v=0
45618 On ch=1 n=c#4 v=0
45672 On ch=1 n=c#6 v=0
45681 On ch=1 n=c#5 v=0
45702 On ch=1 n=b4 v=0
45710 On ch=1 n=c#6 v=75
45714 On ch=1 n=a4 v=47
45717 On ch=1 n=f#5 v=49
45718 On ch=1 n=f#4 v=47
45879 On ch=1 n=a4 v=0
45888 On ch=1 n=f#5 v=0
45895 On ch=1 n=g#5 v=59
45972 On ch=1 n=c#6 v=0
46051 On ch=1 n=f#6 v=70
46052 On ch=1 n=c#5 v=47
46056 On ch=1 n=g#5 v=0
46058 On ch=1 n=a5 v=51
46205 On ch=1 n=c#5 v=0
46230 On ch=1 n=a5 v=0
46233 On ch=1 n=f6 v=70
46242 On ch=1 n=b5 v=49
46244 On ch=1 n=d5 v=47
46249 On ch=1 n=f#6 v=0
46369 On ch=1 n=b5 v=0
46394 On ch=1 n=c#6 v=60
46546 On ch=1 n=b5 v=60
46556 On ch=1 n=c#6 v=0
46660 On ch=1 n=d5 v=0
46711 On ch=1 n=b5 v=0
46729 On ch=1 n=f#6 v=71
46734 On ch=1 n=c#5 v=48
46741 On ch=1 n=a5 v=53
46777 On ch=1 n=f6 v=0
46852 On ch=1 n=a5 v=0
46862 On ch=1 n=f#4 v=0
46871 Par ch=1 c=64 v=127
46877 On ch=1 n=c#5 v=0
46888 On ch=1 n=g#3 v=63
46891 On ch=1 n=g#5 v=67
46891 On ch=1 n=g#4 v=63
47035 On ch=1 n=g#4 v=0
47049 On ch=1 n=g#3 v=0
47051 On ch=1 n=g#5 v=0
47061 On ch=1 n=a4 v=63
47066 On ch=1 n=f#5 v=68
47067 On ch=1 n=a3 v=63
47094 On ch=1 n=f#6 v=0
47184 On ch=1 n=a4 v=0
47189 On ch=1 n=f#5 v=0
47199 On ch=1 n=a3 v=0
47223 On ch=1 n=g#4 v=64
47226 On ch=1 n=c6 v=62
47227 On ch=1 n=g#6 v=63
47227 On ch=1 n=f#6 v=54
47230 On ch=1 n=g#3 v=64
47303 Par ch=1 c=64 v=0
47345 On ch=1 n=g#4 v=0
47356 On ch=1 n=c6 v=0
47357 On ch=1 n=g#3 v=0
47378 On ch=1 n=a#5 v=62
47531 On ch=1 n=a#5 v=0
47562 On ch=1 n=g#5 v=62
47695 On ch=1 n=g#5 v=0
47705 On ch=1 n=g#6 v=0
47722 On ch=1 n=f#6 v=0
47723 On ch=1 n=g#6 v=72
47725 On ch=1 n=g#4 v=60
47725 On ch=1 n=c#5 v=59
47731 On ch=1 n=e6 v=63
47889 On ch=1 n=e6 v=0
47897 On ch=1 n=c#5 v=0
47903 On ch=1 n=d#6 v=72
47908 On ch=1 n=d#5 v=60
48029 On ch=1 n=d#5 v=0
48055 On ch=1 n=c#6 v=71
48060 On ch=1 n=e5 v=59
48071 On ch=1 n=d#6 v=0
48119 On ch=1 n=g#6 v=0
48162 On ch=1 n=g#4 v=0
48165 On ch=1 n=c#6 v=0
48181 On ch=1 n=e5 v=0
48224 On ch=1 n=g#6 v=91
48224 On ch=1 n=f#6 v=59
48225 On ch=1 n=c6 v=67
48227 On ch=1 n=g#4 v=55
48233 On ch=1 n=d#5 v=55
48385 On ch=1 n=d#5 v=0
48388 On ch=1 n=c6 v=0
48400 On ch=1 n=e5 v=55
48403 On ch=1 n=a#5 v=66
48543 On ch=1 n=e5 v=0
48565 On ch=1 n=a#5 v=0
48565 On ch=1 n=f#5 v=55
48570 On ch=1 n=g#5 v=67
48624 On ch=1 n=g#4 v=0
48630 On ch=1 n=f#6 v=0
48683 On ch=1 n=g#6 v=0
48691 On ch=1 n=g#5 v=0
48695 On ch=1 n=f#5 v=0
48744 On ch=1 n=c#5 v=55
48745 On ch=1 n=g#6 v=68
48754 On ch=1 n=e6 v=59
48881 Par ch=1 c=64 v=127
48892 On ch=1 n=e6 v=0
48894 On ch=1 n=c#5 v=0
48901 On ch=1 n=d#5 v=63
48907 On ch=1 n=d#4 v=70
48912 On ch=1 n=d#6 v=68
49041 On ch=1 n=d#5 v=0
49050 On ch=1 n=d#4 v=0
49065 On ch=1 n=e5 v=63
49069 On ch=1 n=e4 v=70
49076 On ch=1 n=c#6 v=68
49079 On ch=1 n=d#6 v=0
49194 On ch=1 n=g#6 v=0
49205 On ch=1 n=c#6 v=0
49215 On ch=1 n=e5 v=0
49222 On ch=1 n=e4 v=0
49240 On ch=1 n=g#6 v=99
49240 On ch=1 n=f#6 v=67
49243 On ch=1 n=g#4 v=71
49246 On ch=1 n=g#3 v=71
49251 On ch=1 n=c6 v=74
49358 Par ch=1 c=64 v=0
49378 On ch=1 n=g#4 v=0
49385 On ch=1 n=g#3 v=0
49403 On ch=1 n=a#5 v=74
49408 On ch=1 n=c6 v=0
49547 On ch=1 n=a#5 v=0
49574 On ch=1 n=g#5 v=75
49584 On ch=1 n=f#5 v=63
49690 On ch=1 n=g#5 v=0
49718 On ch=1 n=f#5 v=0
49732 On ch=1 n=g#6 v=0
49737 On ch=1 n=f#6 v=0
49741 On ch=1 n=g#6 v=76
49744 On ch=1 n=c#6 v=76
49744 On ch=1 n=c#5 v=64
49749 On ch=1 n=e5 v=63
49881 On ch=1 n=e5 v=0
49893 On ch=1 n=c#6 v=0
49904 On ch=1 n=d#6 v=75
50041 On ch=1 n=d#6 v=0
50080 On ch=1 n=e6 v=66
50083 On ch=1 n=c#7 v=86
50091 On ch=1 n=g#5 v=54
50099 On ch=1 n=g#6 v=0
50144 On ch=1 n=c#5 v=0
50235 On ch=1 n=e6 v=0
50239 On ch=1 n=f#6 v=69
50240 On ch=1 n=a5 v=57
50245 On ch=1 n=c7 v=111
50247 On ch=1 n=c#7 v=0
50248 On ch=1 n=c#5 v=65
50251 On ch=1 n=g#5 v=0
50251 On ch=1 n=a5 v=64
50387 On ch=1 n=f#6 v=0
50422 On ch=1 n=g#6 v=77
50570 On ch=1 n=g#6 v=0
50582 On ch=1 n=f#6 v=76
50645 On ch=1 n=a5 v=0
50699 On ch=1 n=a5 v=0
50707 On ch=1 n=f#6 v=0
50714 On ch=1 n=c7 v=0
50736 On ch=1 n=g#5 v=56
50744 On ch=1 n=c#7 v=88
50747 On ch=1 n=e6 v=69
50867 On ch=1 n=c#5 v=0
50896 On ch=1 n=c#7 v=0
50899 On ch=1 n=g#5 v=0
50919 On ch=1 n=e6 v=0
50920 On ch=1 n=d#6 v=77
51072 On ch=1 n=c#6 v=78
51075 On ch=1 n=d#6 v=0
51232 On ch=1 n=c#6 v=0
51249 On ch=1 n=c#4 v=66
51252 On ch=1 n=e7 v=102
51255 On ch=1 n=g#6 v=65
51262 On ch=1 n=c#7 v=70
51266 On ch=1 n=c#3 v=62
51292 Par ch=1 c=64 v=127
51345 On ch=1 n=c#4 v=0
51365 On ch=1 n=c#3 v=0
51367 On ch=1 n=g#6 v=0
51421 On ch=1 n=e4 v=73
51423 On ch=1 n=e3 v=75
51428 On ch=1 n=f#6 v=65
51536 On ch=1 n=e4 v=0
51551 On ch=1 n=e3 v=0
51570 On ch=1 n=f#6 v=0
51599 On ch=1 n=f#4 v=93
51601 On ch=1 n=f#3 v=93
51602 On ch=1 n=e6 v=62
51646 On ch=1 n=e7 v=0
51728 On ch=1 n=c#7 v=0
51739 On ch=1 n=f#4 v=0
51742 On ch=1 n=f#3 v=0
51747 On ch=1 n=e6 v=0
51777 On ch=1 n=d#7 v=96
51778 On ch=1 n=g#4 v=111
51781 On ch=1 n=g#6 v=59
51788 On ch=1 n=b6 v=64
51796 On ch=1 n=g#3 v=102
51816 Par ch=1 c=64 v=0
51898 On ch=1 n=g#6 v=0
51942 Par ch=1 c=64 v=127
51962 On ch=1 n=e6 v=55
52029 On ch=1 n=g#4 v=0
52069 On ch=1 n=g#3 v=0
52072 On ch=1 n=e6 v=0
52128 On ch=1 n=d#6 v=53
52200 On ch=1 n=d#7 v=0
52247 On ch=1 n=d#6 v=0
52254 On ch=1 n=b6 v=0
52287 On ch=1 n=b3 v=66
52294 On ch=1 n=f#6 v=65
52300 On ch=1 n=b6 v=69
52300 On ch=1 n=d#7 v=102
52309 On ch=1 n=b2 v=66
52329 Par ch=1 c=64 v=0
52401 On ch=1 n=b3 v=0
52423 On ch=1 n=b2 v=0
52433 On ch=1 n=f#6 v=0
52451 On ch=1 n=d#3 v=76
52452 Par ch=1 c=64 v=127
52455 On ch=1 n=d#4 v=78
52464 On ch=1 n=e6 v=64
52544 On ch=1 n=d#3 v=0
52571 On ch=1 n=d#4 v=0
52581 On ch=1 n=e6 v=0
52627 On ch=1 n=e4 v=97
52633 On ch=1 n=e3 v=95
52635 On ch=1 n=d#6 v=62
52705 On ch=1 n=b6 v=0
52754 On ch=1 n=e4 v=0
52760 On ch=1 n=d#7 v=0
52767 On ch=1 n=e3 v=0
52791 On ch=1 n=d#6 v=0
52801 On ch=1 n=a#6 v=63
52818 On ch=1 n=f#3 v=107
52818 On ch=1 n=c#7 v=96
52823 On ch=1 n=f#6 v=46
52824 On ch=1 n=f#4 v=109
52838 Par ch=1 c=64 v=0
52964 Par ch=1 c=64 v=127
52978 On ch=1 n=f#6 v=0
52986 On ch=1 n=d#6 v=43
53035 On ch=1 n=f#3 v=0
53117 On ch=1 n=f#4 v=0
53126 On ch=1 n=d#6 v=0
53158 On ch=1 n=c#6 v=39
53241 On ch=1 n=c#7 v=0
53268 On ch=1 n=c#6 v=0
53331 On ch=1 n=a3 v=68
53333 On ch=1 n=a6 v=70
53333 On ch=1 n=c#7 v=102
53340 On ch=1 n=a#6 v=0
53343 On ch=1 n=a2 v=63
53344 On ch=1 n=e6 v=64
53363 Par ch=1 c=64 v=0
53432 On ch=1 n=a3 v=0
53454 On ch=1 n=a2 v=0
53459 On ch=1 n=e6 v=0
53489 Par ch=1 c=64 v=127
53494 On ch=1 n=c#3 v=72
53497 On ch=1 n=c#4 v=76
53500 On ch=1 n=d6 v=64
53607 On ch=1 n=c#3 v=0
53621 On ch=1 n=c#4 v=0
53627 On ch=1 n=d6 v=0
53672 On ch=1 n=c#6 v=62
53678 On ch=1 n=d3 v=92
53690 On ch=1 n=d4 v=97
53711 On ch=1 n=c#7 v=0
53727 On ch=1 n=a6 v=0
53799 On ch=1 n=d3 v=0
53819 On ch=1 n=c#6 v=0
53840 On ch=1 n=b6 v=96
53845 On ch=1 n=d4 v=0
53860 On ch=1 n=g#6 v=64
53860 On ch=1 n=e6 v=60
53861 On ch=1 n=e4 v=111
53869 On ch=1 n=e3 v=111
53889 Par ch=1 c=64 v=0
53975 On ch=1 n=e6 v=0
54015 Par ch=1 c=64 v=127
54036 On ch=1 n=c#6 v=56
54168 On ch=1 n=e4 v=0
54173 On ch=1 n=e3 v=0
54184 On ch=1 n=c#6 v=0
54215 On ch=1 n=b5 v=54
54323 On ch=1 n=g#6 v=0
54341 On ch=1 n=b6 v=0
54355 On ch=1 n=b5 v=0
54397 On ch=1 n=a#6 v=90
54420 On ch=1 n=c#4 v=80
54420 On ch=1 n=e6 v=82
54429 On ch=1 n=c#5 v=74
54437 On ch=1 n=g6 v=82
54440 Par ch=1 c=64 v=0
54566 Par ch=1 c=64 v=127
54613 On ch=1 n=a#5 v=78
54711 On ch=1 n=c#4 v=0
54712 On ch=1 n=a#6 v=0
54729 On ch=1 n=c#5 v=0
54771 On ch=1 n=e6 v=0
54783 On ch=1 n=a#5 v=0
54820 On ch=1 n=g#6 v=66
54822 On ch=1 n=d5 v=68
54823 On ch=1 n=b5 v=54
54823 On ch=1 n=g#5 v=53
54829 On ch=1 n=g6 v=0
54833 On ch=1 n=d4 v=73
54853 Par ch=1 c=64 v=0
54860 On ch=1 n=f6 v=45
54953 On ch=1 n=b5 v=0
54955 On ch=1 n=g#5 v=0
54979 Par ch=1 c=64 v=127
54980 On ch=1 n=d5 v=0
54982 On ch=1 n=g#6 v=0
54999 On ch=1 n=g6 v=78
55000 On ch=1 n=d4 v=0
55019 On ch=1 n=f6 v=0
55022 On ch=1 n=d#6 v=58
55022 On ch=1 n=a#5 v=66
55022 On ch=1 n=g5 v=66
55029 On ch=1 n=d#4 v=71
55033 On ch=1 n=d#5 v=66
55208 On ch=1 n=d#4 v=0
55214 On ch=1 n=d#5 v=0
55242 On ch=1 n=a#5 v=0
55268 On ch=1 n=g5 v=0
55271 On ch=1 n=d#6 v=0
55338 On ch=1 n=g6 v=0
55439 Par ch=1 c=64 v=0
55740 Par ch=1 c=64 v=127
55784 On ch=1 n=g#7 v=79
55794 On ch=1 n=d#7 v=71
55794 On ch=1 n=g#6 v=71
55801 On ch=1 n=c4 v=59
55816 On ch=1 n=c3 v=63
55921 On ch=1 n=c3 v=0
55928 On ch=1 n=c4 v=0
55957 On ch=1 n=c#4 v=64
55959 On ch=1 n=c#3 v=62
56068 On ch=1 n=c#3 v=0
56080 On ch=1 n=c#4 v=0
56106 On ch=1 n=g#7 v=0
56118 On ch=1 n=d#7 v=0
56128 On ch=1 n=d#3 v=63
56135 On ch=1 n=d#4 v=67
56155 On ch=1 n=g#6 v=0
56229 On ch=1 n=d#3 v=0
56231 On ch=1 n=d#4 v=0
56260 On ch=1 n=e7 v=84
56280 On ch=1 n=c#7 v=76
56283 On ch=1 n=e6 v=76
56293 On ch=1 n=e3 v=67
56293 On ch=1 n=e4 v=66
56293 On ch=1 n=g#6 v=76
56313 Par ch=1 c=64 v=0
56398 On ch=1 n=e4 v=0
56403 On ch=1 n=e3 v=0
56439 Par ch=1 c=64 v=127
56439 On ch=1 n=f#3 v=69
56445 On ch=1 n=f#4 v=67
56535 On ch=1 n=f#3 v=0
56554 On ch=1 n=f#4 v=0
56587 On ch=1 n=g#3 v=74
56591 On ch=1 n=g#4 v=75
56601 On ch=1 n=e7 v=0
56625 On ch=1 n=c#7 v=0
56641 On ch=1 n=e6 v=0
56680 On ch=1 n=g#6 v=0
56697 On ch=1 n=g#3 v=0
56717 On ch=1 n=g#4 v=0
56767 On ch=1 n=a4 v=73
56768 On ch=1 n=a6 v=76
56778 On ch=1 n=c#7 v=84
56778 On ch=1 n=e6 v=76
56781 On ch=1 n=c#6 v=76
56787 On ch=1 n=a3 v=75
56788 Par ch=1 c=64 v=0
56884 On ch=1 n=a4 v=0
56913 On ch=1 n=a3 v=0
56914 Par ch=1 c=64 v=127
56936 On ch=1 n=b3 v=80
56944 On ch=1 n=b4 v=79
57065 On ch=1 n=b3 v=0
57068 On ch=1 n=b4 v=0
57104 On ch=1 n=e6 v=0
57109 On ch=1 n=c#4 v=81
57123 On ch=1 n=c#5 v=83
57135 On ch=1 n=c#6 v=0
57137 On ch=1 n=c#7 v=0
57155 On ch=1 n=a6 v=0
57227 On ch=1 n=c#4 v=0
57248 On ch=1 n=c#5 v=0
57286 On ch=1 n=a6 v=85
57296 On ch=1 n=d#4 v=84
57299 On ch=1 n=f#6 v=75
57299 On ch=1 n=a5 v=75
57306 Par ch=1 c=64 v=0
57308 On ch=1 n=d#5 v=86
57309 On ch=1 n=c#6 v=75
57425 On ch=1 n=d#4 v=0
57426 On ch=1 n=d#5 v=0
57432 Par ch=1 c=64 v=127
57470 On ch=1 n=e5 v=86
57472 On ch=1 n=e4 v=87
57614 On ch=1 n=e5 v=0
57620 On ch=1 n=e4 v=0
57655 On ch=1 n=f#6 v=0
57658 On ch=1 n=f#4 v=89
57674 On ch=1 n=f#5 v=89
57701 On ch=1 n=c#6 v=0
57736 On ch=1 n=a5 v=0
57740 On ch=1 n=a6 v=0
57812 On ch=1 n=f#5 v=0
57835 On ch=1 n=f#4 v=0
57856 On ch=1 n=g#4 v=92
57862 On ch=1 n=g#6 v=83
57865 On ch=1 n=d#6 v=72
57865 On ch=1 n=c6 v=73
57871 On ch=1 n=g#5 v=98
57984 On ch=1 n=g#4 v=0
58184 On ch=1 n=d#6 v=0
58191 On ch=1 n=g#6 v=0
58212 On ch=1 n=c6 v=0
58232 Par ch=1 c=64 v=0
58242 On ch=1 n=g#5 v=0
58416 On ch=1 n=a5 v=96
58426 On ch=1 n=c#5 v=62
58436 On ch=1 n=f#5 v=62
58439 On ch=1 n=d#3 v=83
58446 On ch=1 n=a4 v=73
58454 On ch=1 n=d#2 v=83
58470 Par ch=1 c=64 v=127
58546 On ch=1 n=d#3 v=0
58590 On ch=1 n=d#2 v=0
58616 On ch=1 n=e3 v=84
58626 On ch=1 n=e2 v=84
58775 On ch=1 n=e3 v=0
58801 On ch=1 n=e2 v=0
58804 On ch=1 n=c#5 v=0
58823 On ch=1 n=a5 v=0
58833 On ch=1 n=a4 v=0
58840 On ch=1 n=f#3 v=86
58846 On ch=1 n=f#2 v=86
58912 On ch=1 n=f#5 v=0
59005 On ch=1 n=f#3 v=0
59007 On ch=1 n=f#2 v=0
59043 On ch=1 n=g#3 v=90
59048 On ch=1 n=d#5 v=64
59048 On ch=1 n=c5 v=65
59048 On ch=1 n=g#5 v=75
59051 On ch=1 n=g#4 v=80
59058 On ch=1 n=g#2 v=89
59088 Par ch=1 c=64 v=0
59201 On ch=1 n=g#2 v=0
59211 Par ch=1 c=64 v=127
59221 On ch=1 n=g#3 v=0
59460 On ch=1 n=g#5 v=0
59477 On ch=1 n=c5 v=0
59480 On ch=1 n=g#4 v=0
59499 On ch=1 n=d#5 v=0
59584 Par ch=1 c=64 v=0
59695 On ch=1 n=g#6 v=103
59705 On ch=1 n=g#5 v=71
59708 On ch=1 n=g#4 v=106
59708 On ch=1 n=g#3 v=90
59789 Par ch=1 c=64 v=127
60131 On ch=1 n=g#4 v=0
60171 On ch=1 n=g#6 v=0
60192 On ch=1 n=g#3 v=0
60231 On ch=1 n=g#5 v=0
60339 On ch=1 n=c#7 v=111
60349 On ch=1 n=c#5 v=93
60349 On ch=1 n=c#4 v=78
60359 On ch=1 n=c#6 v=82
60409 Par ch=1 c=64 v=0
60764 On ch=1 n=c#4 v=0
60793 On ch=1 n=c#6 v=0
60847 Par ch=1 c=64 v=127
60863 On ch=1 n=c#7 v=0
60874 On ch=1 n=c#5 v=0
60964 On ch=1 n=a6 v=111
60987 On ch=1 n=a5 v=81
60990 On ch=1 n=a3 v=78
60997 On ch=1 n=a4 v=94
61407 On ch=1 n=a6 v=0
61412 On ch=1 n=a5 v=0
61417 On ch=1 n=a3 v=0
61427 On ch=1 n=g#6 v=76
61431 On ch=1 n=a4 v=0
61441 On ch=1 n=g#5 v=81
61441 On ch=1 n=g#3 v=79
61444 On ch=1 n=g#4 v=68
61473 Par ch=1 c=64 v=0
61557 On ch=1 n=g#6 v=0
61572 On ch=1 n=g#5 v=0
61582 On ch=1 n=g#4 v=0
61592 On ch=1 n=f#6 v=74
61595 On ch=1 n=g#3 v=0
61596 On ch=1 n=f#5 v=79
61610 On ch=1 n=f#4 v=71
61611 On ch=1 n=f#3 v=77
61719 On ch=1 n=f#6 v=0
61742 On ch=1 n=f#5 v=0
61745 On ch=1 n=f#3 v=0
61745 On ch=1 n=e6 v=76
61755 On ch=1 n=e5 v=81
61761 On ch=1 n=f#4 v=0
61765 On ch=1 n=e4 v=69
61765 On ch=1 n=e3 v=76
61902 On ch=1 n=a6 v=80
61903 On ch=1 n=e4 v=0
61904 On ch=1 n=e5 v=0
61908 On ch=1 n=e6 v=0
61915 On ch=1 n=e3 v=0
61919 On ch=1 n=a5 v=90
61924 On ch=1 n=a4 v=77
61925 On ch=1 n=a3 v=84
62028 On ch=1 n=a6 v=0
62063 On ch=1 n=a4 v=0
62067 On ch=1 n=a3 v=0
62067 On ch=1 n=a5 v=0
62070 On ch=1 n=g#6 v=81
62078 On ch=1 n=g#3 v=83
62086 On ch=1 n=g#4 v=80
62087 On ch=1 n=g#5 v=86
62188 On ch=1 n=g#6 v=0
62202 On ch=1 n=g6 v=82
62203 On ch=1 n=g#5 v=0
62215 On ch=1 n=g#3 v=0
62221 On ch=1 n=g3 v=83
62225 On ch=1 n=g5 v=87
62227 On ch=1 n=g4 v=71
62228 On ch=1 n=g#4 v=0
62349 On ch=1 n=g6 v=0
62355 On ch=1 n=g5 v=0
62365 On ch=1 n=g4 v=0
62368 On ch=1 n=g#6 v=77
62371 On ch=1 n=g#5 v=84
62374 On ch=1 n=g#3 v=75
62378 On ch=1 n=g#4 v=73
62380 On ch=1 n=g3 v=0
62503 On ch=1 n=g#5 v=0
62504 On ch=1 n=g#4 v=0
62515 On ch=1 n=g#3 v=0
62522 On ch=1 n=g#6 v=0
62526 On ch=1 n=f#6 v=74
62534 On ch=1 n=f#5 v=78
62534 On ch=1 n=f#3 v=76
62537 On ch=1 n=f#4 v=67
62660 On ch=1 n=f#3 v=0
62661 On ch=1 n=f#5 v=0
62673 On ch=1 n=f#6 v=0
62691 On ch=1 n=e4 v=72
62694 On ch=1 n=e6 v=77
62697 On ch=1 n=e5 v=82
62697 On ch=1 n=e3 v=80
62702 On ch=1 n=f#4 v=0
62820 On ch=1 n=e6 v=0
62827 On ch=1 n=e3 v=0
62828 On ch=1 n=e5 v=0
62849 On ch=1 n=a6 v=86
62857 On ch=1 n=e4 v=0
62862 On ch=1 n=a5 v=91
62864 On ch=1 n=a3 v=85
62865 On ch=1 n=a4 v=79
62967 On ch=1 n=a6 v=0
62971 On ch=1 n=a4 v=0
62978 On ch=1 n=a3 v=0
62979 On ch=1 n=a5 v=0
62986 On ch=1 n=g#6 v=82
62995 On ch=1 n=g#3 v=85
62999 On ch=1 n=g#5 v=89
63000 On ch=1 n=g#4 v=74
63116 On ch=1 n=g#6 v=0
63136 On ch=1 n=g#5 v=0
63138 On ch=1 n=g#3 v=0
63139 On ch=1 n=g6 v=76
63143 On ch=1 n=g#4 v=0
63153 On ch=1 n=g5 v=86
63158 On ch=1 n=g4 v=73
63158 On ch=1 n=g3 v=78
63268 On ch=1 n=g4 v=0
63271 On ch=1 n=g6 v=0
63281 On ch=1 n=g5 v=0
63298 On ch=1 n=g#6 v=95
63310 On ch=1 n=g3 v=0
63315 On ch=1 n=g#5 v=85
63321 On ch=1 n=g#4 v=74
63325 On ch=1 n=a3 v=82
63433 On ch=1 n=g#6 v=0
63462 On ch=1 n=g#5 v=0
63472 On ch=1 n=g#4 v=0
63477 On ch=1 n=a3 v=0
63532 On ch=1 n=e6 v=56
63544 On ch=1 n=e4 v=53
63548 On ch=1 n=e3 v=59
63553 On ch=1 n=e5 v=66
63608 On ch=1 n=e6 v=0
63613 On ch=1 n=e4 v=0
63622 On ch=1 n=e5 v=0
63625 On ch=1 n=e3 v=0
63626 On ch=1 n=d#6 v=58
63627 On ch=1 n=d#5 v=66
63629 On ch=1 n=d#4 v=52
63631 On ch=1 n=d#3 v=57
63757 On ch=1 n=d#6 v=0
63769 On ch=1 n=d#4 v=0
63773 On ch=1 n=d#3 v=0
63778 On ch=1 n=c#6 v=70
63794 On ch=1 n=c#4 v=60
63795 On ch=1 n=d#5 v=0
63795 On ch=1 n=c#3 v=70
63798 On ch=1 n=c#5 v=72
63906 On ch=1 n=c#6 v=0
63938 On ch=1 n=c#3 v=0
63939 On ch=1 n=c#4 v=0
63943 On ch=1 n=b5 v=78
63951 On ch=1 n=b4 v=82
63958 On ch=1 n=b2 v=78
63959 On ch=1 n=b3 v=72
63960 On ch=1 n=c#5 v=0
64082 On ch=1 n=b4 v=0
64092 On ch=1 n=b5 v=0
64098 On ch=1 n=b3 v=0
64123 On ch=1 n=b2 v=0
64123 On ch=1 n=a4 v=93
64124 On ch=1 n=a5 v=86
64134 On ch=1 n=a3 v=80
64134 On ch=1 n=a2 v=85
64280 On ch=1 n=a5 v=0
64290 On ch=1 n=g#5 v=102
64296 On ch=1 n=a4 v=0
64301 On ch=1 n=g#2 v=96
64302 On ch=1 n=a3 v=0
64312 On ch=1 n=g#3 v=90
64315 On ch=1 n=a2 v=0
64330 On ch=1 n=g#4 v=89
64795 Par ch=1 c=64 v=127
65330 On ch=1 n=g#3 v=0
65517 On ch=1 n=g#5 v=0
65601 On ch=1 n=g#2 v=0
65630 On ch=1 n=g#4 v=0
65918 On ch=1 n=e5 v=54
65948 Par ch=1 c=64 v=0
65948 On ch=1 n=c#5 v=48
65950 On ch=1 n=c#3 v=42
66074 Par ch=1 c=64 v=127
66306 On ch=1 n=a#4 v=42
66424 On ch=1 n=c#5 v=0
66442 On ch=1 n=c#3 v=0
66456 On ch=1 n=e5 v=0
66477 On ch=1 n=a#4 v=0
66491 On ch=1 n=c5 v=46
66494 Par ch=1 c=64 v=0
66494 On ch=1 n=g#3 v=46
66494 On ch=1 n=g#2 v=46
66521 On ch=1 n=d#5 v=42
66620 Par ch=1 c=64 v=127
66637 On ch=1 n=c5 v=0
66687 On ch=1 n=a#4 v=50
66854 On ch=1 n=a#4 v=0
66866 On ch=1 n=g#4 v=54
66935 On ch=1 n=d#5 v=0
66975 On ch=1 n=g#2 v=0
66992 On ch=1 n=g#4 v=0
67018 On ch=1 n=e5 v=45
67048 On ch=1 n=c#5 v=47
67051 Par ch=1 c=64 v=0
67051 On ch=1 n=g4 v=48
67177 Par ch=1 c=64 v=127
67216 On ch=1 n=c#5 v=0
67247 On ch=1 n=c5 v=48
67363 On ch=1 n=c5 v=0
67379 On ch=1 n=g#3 v=0
67423 On ch=1 n=e5 v=0
67426 On ch=1 n=a#4 v=42
67447 On ch=1 n=g4 v=0
67608 On ch=1 n=a#4 v=0
67618 On ch=1 n=d#5 v=42
67619 On ch=1 n=c5 v=42
67633 On ch=1 n=g#4 v=39
67698 On ch=1 n=d#5 v=0
67702 On ch=1 n=c5 v=0
67754 On ch=1 n=g#4 v=0
67796 Par ch=1 c=64 v=0
67844 On ch=1 n=g#6 v=91
67846 On ch=1 n=g#3 v=82
67856 On ch=1 n=g#5 v=92
67856 On ch=1 n=g#4 v=80
67953 On ch=1 n=g#3 v=0
67959 On ch=1 n=g#6 v=0
67990 On ch=1 n=g#5 v=0
67996 On ch=1 n=g#4 v=0
68015 On ch=1 n=a6 v=94
68023 On ch=1 n=a5 v=94
68024 On ch=1 n=a4 v=77
68025 On ch=1 n=a3 v=76
68125 On ch=1 n=a4 v=0
68132 On ch=1 n=a6 v=0
68140 On ch=1 n=a5 v=0
68168 On ch=1 n=a3 v=0
68170 On ch=1 n=f6 v=95
68172 On ch=1 n=f5 v=98
68182 On ch=1 n=f4 v=82
68183 On ch=1 n=f3 v=84
68291 On ch=1 n=f5 v=0
68330 On ch=1 n=f6 v=0
68345 On ch=1 n=f#6 v=104
68347 On ch=1 n=f3 v=0
68350 On ch=1 n=f#5 v=106
68351 On ch=1 n=f#4 v=83
68352 On ch=1 n=f4 v=0
68353 On ch=1 n=f#3 v=88
68464 On ch=1 n=f#5 v=0
68493 On ch=1 n=f#6 v=0
68519 On ch=1 n=f#4 v=0
68527 On ch=1 n=f#3 v=0
68527 On ch=1 n=e6 v=100
68534 On ch=1 n=e7 v=94
68537 On ch=1 n=e5 v=94
68540 On ch=1 n=e4 v=94
68656 On ch=1 n=e5 v=0
68673 On ch=1 n=e4 v=0
68674 On ch=1 n=c#7 v=84
68693 On ch=1 n=e6 v=0
68696 On ch=1 n=c#4 v=72
68705 On ch=1 n=e7 v=0
68706 On ch=1 n=c#5 v=66
68716 On ch=1 n=c#4 v=72
68726 On ch=1 n=c#6 v=77
68864 Par ch=1 c=64 v=127
69241 On ch=1 n=c#5 v=0
69241 On ch=1 n=a6 v=84
69251 On ch=1 n=c#7 v=0
69251 On ch=1 n=a5 v=77
69254 On ch=1 n=a4 v=65
69254 On ch=1 n=a3 v=72
69284 Par ch=1 c=64 v=0
69404 Par ch=1 c=64 v=127
69777 On ch=1 n=g#6 v=77
69779 On ch=1 n=a6 v=0
69789 On ch=1 n=a5 v=0
69792 On ch=1 n=a3 v=0
69792 On ch=1 n=a4 v=0
69793 On ch=1 n=g#3 v=70
69800 On ch=1 n=g#4 v=70
69804 On ch=1 n=g#5 v=77
69824 Par ch=1 c=64 v=0
69928 On ch=1 n=g#3 v=0
69931 On ch=1 n=g#4 v=0
69937 On ch=1 n=g#5 v=0
69938 On ch=1 n=g#6 v=0
69950 On ch=1 n=f#6 v=75
69955 On ch=1 n=f#5 v=77
69959 On ch=1 n=f#4 v=67
69961 On ch=1 n=f#3 v=66
70080 On ch=1 n=f#6 v=0
70081 On ch=1 n=f#5 v=0
70084 On ch=1 n=f#4 v=0
70098 On ch=1 n=f#3 v=0
70112 On ch=1 n=e5 v=76
70112 On ch=1 n=e6 v=75
70116 On ch=1 n=e3 v=64
70118 On ch=1 n=e4 v=63
70231 On ch=1 n=e5 v=0
70248 On ch=1 n=e6 v=0
70253 On ch=1 n=e4 v=0
70253 On ch=1 n=c#4 v=0
70260 On ch=1 n=e3 v=0
70267 On ch=1 n=a5 v=75
70273 On ch=1 n=c#4 v=0
70276 On ch=1 n=a6 v=75
70279 On ch=1 n=a4 v=60
70280 On ch=1 n=c#6 v=0
70281 On ch=1 n=a3 v=61
70371 On ch=1 n=a6 v=0
70388 On ch=1 n=a4 v=0
70393 On ch=1 n=a5 v=0
70397 On ch=1 n=a3 v=0
70399 On ch=1 n=g#6 v=75
70411 On ch=1 n=g#5 v=73
70419 On ch=1 n=g#4 v=59
70419 On ch=1 n=g#3 v=63
70530 On ch=1 n=g#6 v=0
70542 On ch=1 n=g#3 v=0
70542 On ch=1 n=g#5 v=0
70546 On ch=1 n=g#4 v=0
70563 On ch=1 n=g6 v=74
70570 On ch=1 n=g3 v=62
70574 On ch=1 n=g5 v=74
70581 On ch=1 n=g4 v=62
70708 On ch=1 n=g5 v=0
70714 On ch=1 n=g6 v=0
70718 On ch=1 n=g#6 v=85
70723 On ch=1 n=g3 v=0
70725 On ch=1 n=g4 v=0
70727 On ch=1 n=g#5 v=83
70735 On ch=1 n=g#4 v=71
70747 On ch=1 n=g#3 v=70
70828 On ch=1 n=g#6 v=0
70858 On ch=1 n=g#5 v=0
70872 On ch=1 n=g#4 v=0
70875 On ch=1 n=f#6 v=85
70885 On ch=1 n=g#3 v=0
70886 On ch=1 n=f#3 v=70
70888 On ch=1 n=f#4 v=70
70891 On ch=1 n=f#5 v=81
71002 On ch=1 n=f#5 v=0
71019 On ch=1 n=f#6 v=0
71033 On ch=1 n=f#4 v=0
71039 On ch=1 n=f#3 v=0
71043 On ch=1 n=e4 v=71
71046 On ch=1 n=e6 v=83
71054 On ch=1 n=e3 v=71
71057 On ch=1 n=e5 v=84
71155 On ch=1 n=e6 v=0
71165 On ch=1 n=e4 v=0
71168 On ch=1 n=e5 v=0
71172 On ch=1 n=a6 v=78
71177 On ch=1 n=a5 v=77
71181 On ch=1 n=e3 v=0
71184 On ch=1 n=a4 v=68
71187 On ch=1 n=a3 v=68
71292 On ch=1 n=a6 v=0
71293 On ch=1 n=a4 v=0
71314 On ch=1 n=a5 v=0
71317 On ch=1 n=a3 v=0
71345 On ch=1 n=g#6 v=77
71347 On ch=1 n=g#5 v=77
71349 On ch=1 n=g#4 v=67
71353 On ch=1 n=g#3 v=67
71469 On ch=1 n=g#6 v=0
71475 On ch=1 n=g#3 v=0
71485 On ch=1 n=g6 v=74
71489 On ch=1 n=g#5 v=0
71499 On ch=1 n=g#4 v=0
71504 On ch=1 n=g5 v=73
71512 On ch=1 n=g4 v=62
71514 On ch=1 n=g3 v=64
71627 On ch=1 n=g6 v=0
71635 On ch=1 n=g5 v=0
71639 On ch=1 n=g3 v=0
71646 On ch=1 n=g#6 v=90
71651 On ch=1 n=g4 v=0
71653 On ch=1 n=g#4 v=65
71663 On ch=1 n=g#3 v=66
71669 On ch=1 n=g#5 v=80
71769 On ch=1 n=g#4 v=0
71786 On ch=1 n=g#6 v=0
71787 On ch=1 n=g#3 v=0
71812 On ch=1 n=g#5 v=0
71883 On ch=1 n=e6 v=57
71892 On ch=1 n=e5 v=57
71897 On ch=1 n=e4 v=48
71905 On ch=1 n=e3 v=46
71948 On ch=1 n=e6 v=0
71956 On ch=1 n=e4 v=0
71964 On ch=1 n=e3 v=0
71964 On ch=1 n=e5 v=0
71964 On ch=1 n=d#6 v=87
71974 On ch=1 n=d#3 v=61
71985 On ch=1 n=d#5 v=77
71985 On ch=1 n=d#4 v=61
72084 On ch=1 n=d#6 v=0
72111 On ch=1 n=d#4 v=0
72119 On ch=1 n=c#6 v=71
72128 On ch=1 n=d#5 v=0
72131 On ch=1 n=d#3 v=0
72141 On ch=1 n=c#5 v=66
72148 On ch=1 n=c#3 v=55
72151 On ch=1 n=c#4 v=58
72242 On ch=1 n=c#6 v=0
72277 On ch=1 n=c#5 v=0
72288 On ch=1 n=b5 v=75
72294 On ch=1 n=c#3 v=0
72298 On ch=1 n=b2 v=66
72303 On ch=1 n=b3 v=68
72305 On ch=1 n=c#4 v=0
72311 On ch=1 n=b4 v=77
72430 On ch=1 n=b5 v=0
72449 On ch=1 n=b4 v=0
72451 On ch=1 n=b2 v=0
72468 On ch=1 n=b3 v=0
72483 On ch=1 n=g#5 v=86
72483 On ch=1 n=g#3 v=75
72490 On ch=1 n=g#2 v=74
72491 On ch=1 n=g#4 v=89
72621 On ch=1 n=g#4 v=0
72622 On ch=1 n=g#5 v=0
72634 On ch=1 n=g#3 v=0
72644 On ch=1 n=f#5 v=115
72646 On ch=1 n=g#2 v=0
72667 On ch=1 n=f#3 v=78
72667 On ch=1 n=f#2 v=82
72684 On ch=1 n=f#4 v=84
72787 Par ch=1 c=64 v=127
73179 On ch=1 n=e5 v=67
73201 On ch=1 n=a#4 v=56
73209 Par ch=1 c=64 v=0
73329 Par ch=1 c=64 v=127
73394 On ch=1 n=f#2 v=0
73564 On ch=1 n=f#4 v=0
73683 On ch=1 n=e5 v=0
73687 On ch=1 n=a#4 v=0
73725 On ch=1 n=d#5 v=81
73745 On ch=1 n=b4 v=67
73745 On ch=1 n=b2 v=75
73745 On ch=1 n=b2 v=75
73755 Par ch=1 c=64 v=0
73875 Par ch=1 c=64 v=127
73897 On ch=1 n=b4 v=0
73941 On ch=1 n=a#4 v=63
74061 On ch=1 n=a#4 v=0
74120 On ch=1 n=g#4 v=60
74132 On ch=1 n=b2 v=0
74261 On ch=1 n=g#4 v=0
74310 On ch=1 n=d#5 v=0
74311 On ch=1 n=e5 v=71
74321 On ch=1 n=b2 v=0
74324 On ch=1 n=a#4 v=57
74324 On ch=1 n=f#2 v=65
74354 Par ch=1 c=64 v=0
74470 On ch=1 n=a#4 v=0
74474 Par ch=1 c=64 v=127
74540 On ch=1 n=g#4 v=54
74713 On ch=1 n=g#4 v=0
74761 On ch=1 n=f#4 v=58
74896 On ch=1 n=f#2 v=0
74982 On ch=1 n=b2 v=55
74996 On ch=1 n=f#3 v=0
75002 On ch=1 n=e5 v=0
75002 On ch=1 n=d#5 v=61
75002 On ch=1 n=b4 v=49
75012 Par ch=1 c=64 v=0
75132 Par ch=1 c=64 v=127
75230 On ch=1 n=f#5 v=0
75490 On ch=1 n=f#4 v=0
75501 On ch=1 n=b4 v=0
75587 On ch=1 n=b2 v=0
75631 On ch=1 n=d#5 v=0
75636 On ch=1 n=g#5 v=60
75646 On ch=1 n=g#4 v=48
75646 On ch=1 n=g#3 v=48
75649 On ch=1 n=g#2 v=48
75679 Par ch=1 c=64 v=0
75799 Par ch=1 c=64 v=127
76173 On ch=1 n=g#2 v=0
76188 On ch=1 n=g#3 v=0
76204 On ch=1 n=g#5 v=0
76235 On ch=1 n=g#4 v=0
76294 On ch=1 n=f#5 v=45
76304 On ch=1 n=f#4 v=33
76304 On ch=1 n=f#3 v=33
76307 On ch=1 n=f#2 v=33
76337 Par ch=1 c=64 v=0
76457 Par ch=1 c=64 v=127
76807 On ch=1 n=f#3 v=0
76818 On ch=1 n=f#4 v=0
76893 On ch=1 n=f#5 v=0
76909 On ch=1 n=f#2 v=0
76932 On ch=1 n=g#5 v=68
76942 On ch=1 n=g#4 v=56
76942 On ch=1 n=g#3 v=48
76942 On ch=1 n=g#2 v=48
76972 Par ch=1 c=64 v=0
77092 Par ch=1 c=64 v=127
77393 On ch=1 n=g#2 v=0
77401 On ch=1 n=g#4 v=0
77488 On ch=1 n=g#5 v=0
77520 On ch=1 n=g#3 v=0
77540 On ch=1 n=f#5 v=76
77583 On ch=1 n=f#2 v=64
77590 On ch=1 n=f#4 v=64
77600 On ch=1 n=f#3 v=56
77610 Par ch=1 c=64 v=0
77730 Par ch=1 c=64 v=127
78082 On ch=1 n=e5 v=65
78112 On ch=1 n=a#4 v=54
78142 Par ch=1 c=64 v=0
78262 Par ch=1 c=64 v=127
78346 On ch=1 n=f#2 v=0
78410 On ch=1 n=f#4 v=0
78616 On ch=1 n=a#4 v=0
78632 On ch=1 n=e5 v=0
78675 On ch=1 n=d#5 v=76
78678 On ch=1 n=b4 v=70
78678 On ch=1 n=b2 v=64
78708 Par ch=1 c=64 v=0
78828 Par ch=1 c=64 v=127
78835 On ch=1 n=f#5 v=0
78839 On ch=1 n=b4 v=0
78854 On ch=1 n=a#4 v=66
78979 On ch=1 n=a#4 v=0
79033 On ch=1 n=g#4 v=62
79126 On ch=1 n=d#5 v=0
79167 On ch=1 n=g#4 v=0
79189 On ch=1 n=b2 v=0
79215 On ch=1 n=e5 v=64
79235 On ch=1 n=a#4 v=58
79238 On ch=1 n=f#2 v=52
79268 Par ch=1 c=64 v=0
79382 On ch=1 n=a#4 v=0
79388 Par ch=1 c=64 v=127
79453 On ch=1 n=g#4 v=54
79573 On ch=1 n=f#3 v=0
79606 On ch=1 n=g#4 v=0
79652 On ch=1 n=f#4 v=50
79742 On ch=1 n=e5 v=0
79816 On ch=1 n=f#2 v=0
79818 On ch=1 n=f#4 v=0
79872 On ch=1 n=b2 v=37
79872 On ch=1 n=d#5 v=49
79880 Par ch=1 c=64 v=0
79880 On ch=1 n=b4 v=51
80022 On ch=1 n=d#5 v=0
80030 On ch=1 n=b2 v=0
80032 On ch=1 n=b4 v=0
80121 On ch=1 n=d#6 v=88
80140 On ch=1 n=d#4 v=71
80150 On ch=1 n=d#5 v=82
80167 On ch=1 n=d#3 v=66
80245 On ch=1 n=d#4 v=0
80255 On ch=1 n=d#6 v=0
80258 On ch=1 n=d#5 v=0
80298 On ch=1 n=c#6 v=89
80314 On ch=1 n=d#3 v=0
80315 On ch=1 n=c#4 v=73
80316 On ch=1 n=c#3 v=72
80317 On ch=1 n=c#5 v=83
80416 On ch=1 n=c#6 v=0
80424 On ch=1 n=c#3 v=0
80425 On ch=1 n=c#5 v=0
80435 On ch=1 n=c#4 v=0
80449 On ch=1 n=b5 v=86
80466 On ch=1 n=b3 v=69
80466 On ch=1 n=b4 v=76
80476 On ch=1 n=b2 v=71
80554 On ch=1 n=b5 v=0
80590 On ch=1 n=b3 v=0
80599 On ch=1 n=b4 v=0
80610 On ch=1 n=b2 v=0
80613 On ch=1 n=a#5 v=79
80629 On ch=1 n=a#3 v=64
80629 On ch=1 n=a#4 v=75
80633 On ch=1 n=a#2 v=59
80735 On ch=1 n=a#4 v=0
80735 On ch=1 n=a#5 v=0
80736 On ch=1 n=a#2 v=0
80759 On ch=1 n=a#3 v=0
80769 On ch=1 n=f#5 v=78
80798 On ch=1 n=f#2 v=61
80798 On ch=1 n=f#3 v=59
80802 On ch=1 n=f#4 v=68
80895 On ch=1 n=f5 v=78
80903 On ch=1 n=f#4 v=0
80909 On ch=1 n=f#2 v=0
80910 On ch=1 n=f#5 v=0
80912 On ch=1 n=f#3 v=0
80930 On ch=1 n=f2 v=59
80931 On ch=1 n=f3 v=57
80941 On ch=1 n=f4 v=59
80990 On ch=1 n=f5 v=0
81027 On ch=1 n=f3 v=0
81038 On ch=1 n=f2 v=0
81061 On ch=1 n=f4 v=0
81076 On ch=1 n=c#6 v=90
81094 On ch=1 n=c#3 v=69
81097 On ch=1 n=c#4 v=70
81102 On ch=1 n=c#5 v=82
81207 On ch=1 n=c#3 v=0
81209 On ch=1 n=c#6 v=0
81224 On ch=1 n=c#5 v=0
81230 On ch=1 n=c6 v=90
81248 On ch=1 n=c4 v=69
81250 On ch=1 n=c#4 v=0
81251 On ch=1 n=c3 v=70
81253 On ch=1 n=c5 v=84
81371 On ch=1 n=c4 v=0
81372 On ch=1 n=c3 v=0
81376 On ch=1 n=c6 v=0
81382 On ch=1 n=c5 v=0
81390 On ch=1 n=a#5 v=84
81404 On ch=1 n=a#2 v=63
81412 On ch=1 n=a#4 v=75
81414 On ch=1 n=a#3 v=61
81487 On ch=1 n=a#5 v=0
81543 On ch=1 n=g#5 v=72
81548 On ch=1 n=a#4 v=0
81549 On ch=1 n=a#2 v=0
81559 On ch=1 n=a#3 v=0
81562 On ch=1 n=g#3 v=52
81563 On ch=1 n=g#2 v=58
81570 On ch=1 n=g#4 v=65
81640 On ch=1 n=g#5 v=0
81673 On ch=1 n=g#3 v=0
81675 On ch=1 n=e5 v=66
81676 On ch=1 n=g#4 v=0
81685 On ch=1 n=g#2 v=0
81701 On ch=1 n=e2 v=50
81705 On ch=1 n=e4 v=46
81708 On ch=1 n=e3 v=46
81784 On ch=1 n=e5 v=0
81826 On ch=1 n=e2 v=0
81828 On ch=1 n=e3 v=0
81831 On ch=1 n=d#5 v=65
81843 On ch=1 n=e4 v=0
81873 On ch=1 n=d#2 v=60
81891 On ch=1 n=d#3 v=45
81901 On ch=1 n=d#4 v=53
82223 Par ch=1 c=64 v=127
82269 On ch=1 n=d#4 v=0
82366 On ch=1 n=g4 v=26
82366 On ch=1 n=c#5 v=38
82714 On ch=1 n=c#5 v=0
82751 On ch=1 n=d#2 v=0
82814 On ch=1 n=g4 v=0
82857 On ch=1 n=c5 v=47
82867 On ch=1 n=g#4 v=59
82867 On ch=1 n=g#2 v=53
82897 Par ch=1 c=64 v=0
83013 On ch=1 n=g#4 v=0
83017 Par ch=1 c=64 v=127
83044 On ch=1 n=g4 v=59
83213 On ch=1 n=g4 v=0
83223 On ch=1 n=f4 v=56
83296 On ch=1 n=c5 v=0
83372 On ch=1 n=f4 v=0
83398 On ch=1 n=g#2 v=0
83424 On ch=1 n=c#5 v=47
83427 On ch=1 n=g4 v=53
83427 On ch=1 n=d#2 v=54
83457 Par ch=1 c=64 v=0
83577 Par ch=1 c=64 v=127
83596 On ch=1 n=g4 v=0
83623 On ch=1 n=f4 v=50
83656 On ch=1 n=d#3 v=0
83840 On ch=1 n=f4 v=0
83864 On ch=1 n=d#4 v=41
83986 On ch=1 n=c#5 v=0
83994 On ch=1 n=d#2 v=0
84075 On ch=1 n=c5 v=41
84085 On ch=1 n=g#4 v=53
84088 On ch=1 n=g#2 v=53
84148 Par ch=1 c=64 v=0
84212 On ch=1 n=d#5 v=0
84234 On ch=1 n=d#4 v=0
84327 On ch=1 n=g#4 v=0
84352 On ch=1 n=c5 v=0
84392 On ch=1 n=g#2 v=0
85102 On ch=1 n=g#4 v=48
85442 Par ch=1 c=64 v=127
86101 On ch=1 n=g#4 v=0
86121 On ch=1 n=g#4 v=55
87111 On ch=1 n=g#4 v=0
87142 On ch=1 n=g#4 v=57
87162 On ch=1 n=f4 v=51
87273 Par ch=1 c=64 v=0
87524 On ch=1 n=d#4 v=50
87646 On ch=1 n=f4 v=0
87882 On ch=1 n=c#4 v=48
87949 On ch=1 n=d#4 v=0
88243 On ch=1 n=g#3 v=48
88302 On ch=1 n=c#4 v=0
88440 Par ch=1 c=64 v=127
89327 On ch=1 n=f4 v=60
89350 On ch=1 n=c#4 v=47
89370 On ch=1 n=c#3 v=54
89390 Par ch=1 c=64 v=0
89643 On ch=1 n=g#3 v=0
89705 On ch=1 n=g#4 v=0
89790 Par ch=1 c=64 v=127
89889 On ch=1 n=c#3 v=0
89943 On ch=1 n=c#4 v=0
90177 On ch=1 n=c#5 v=54
90200 On ch=1 n=c#4 v=42
90220 On ch=1 n=a#2 v=55
90230 On ch=1 n=a#3 v=48
90280 Par ch=1 c=64 v=0
90582 On ch=1 n=f4 v=0
90640 Par ch=1 c=64 v=127
90825 On ch=1 n=c#5 v=0
90829 On ch=1 n=a#2 v=0
90837 On ch=1 n=a#3 v=0
90867 On ch=1 n=c#4 v=0
91023 On ch=1 n=d#5 v=71
91043 On ch=1 n=c5 v=60
91046 On ch=1 n=g#4 v=57
91049 On ch=1 n=g#2 v=60
91069 On ch=1 n=g#3 v=58
91076 On ch=1 n=d#4 v=55
91109 Par ch=1 c=64 v=0
91459 Par ch=1 c=64 v=127
91662 On ch=1 n=c5 v=0
91663 On ch=1 n=g#4 v=0
91666 On ch=1 n=g#2 v=0
91674 On ch=1 n=d#5 v=0
91686 On ch=1 n=g#3 v=0
91693 On ch=1 n=d#4 v=0
91901 On ch=1 n=c#2 v=72
91905 On ch=1 n=c#5 v=68
91905 On ch=1 n=f5 v=80
91908 On ch=1 n=c#3 v=66
91928 On ch=1 n=g#4 v=66
91928 On ch=1 n=f4 v=62
91961 Par ch=1 c=64 v=0
92091 Par ch=1 c=64 v=127
92118 On ch=1 n=c#5 v=0
92121 On ch=1 n=c#3 v=0
92131 On ch=1 n=c#2 v=0
92138 On ch=1 n=f4 v=0
92138 On ch=1 n=g#4 v=0
92148 On ch=1 n=f5 v=0
92231 On ch=1 n=c#7 v=48
92234 On ch=1 n=a#7 v=60
92343 On ch=1 n=c#7 v=0
92352 On ch=1 n=a#7 v=0
92353 On ch=1 n=f7 v=61
92354 On ch=1 n=f6 v=49
92475 On ch=1 n=g#6 v=46
92476 On ch=1 n=f7 v=0
92479 On ch=1 n=g#7 v=61
92484 On ch=1 n=f6 v=0
92570 On ch=1 n=c#7 v=57
92577 On ch=1 n=g#7 v=0
92579 On ch=1 n=c#6 v=45
92583 On ch=1 n=g#6 v=0
92688 On ch=1 n=f#7 v=60
92700 On ch=1 n=g#6 v=48
92703 On ch=1 n=c#7 v=0
92718 On ch=1 n=c#6 v=0
92781 On ch=1 n=f#7 v=0
92792 On ch=1 n=c#6 v=47
92794 On ch=1 n=c#7 v=59
92795 On ch=1 n=g#6 v=0
92912 On ch=1 n=f6 v=46
92913 On ch=1 n=f7 v=58
92918 On ch=1 n=c#6 v=0
92925 On ch=1 n=c#7 v=0
93014 On ch=1 n=f7 v=0
93034 On ch=1 n=g#6 v=55
93039 On ch=1 n=g#5 v=43
93040 On ch=1 n=f6 v=0
93126 On ch=1 n=g#5 v=0
93130 On ch=1 n=d#7 v=54
93134 On ch=1 n=g#6 v=0
93137 On ch=1 n=f6 v=45
93234 On ch=1 n=d#7 v=0
93251 On ch=1 n=f6 v=0
93255 On ch=1 n=g#6 v=55
93260 On ch=1 n=g#5 v=44
93352 On ch=1 n=c#6 v=42
93353 On ch=1 n=g#5 v=0
93353 On ch=1 n=c#7 v=54
93362 On ch=1 n=g#6 v=0
93469 On ch=1 n=c#6 v=0
93469 On ch=1 n=f6 v=53
93478 On ch=1 n=f5 v=44
93485 On ch=1 n=c#7 v=0
93596 On ch=1 n=f6 v=0
93597 On ch=1 n=c#6 v=40
93598 On ch=1 n=a#6 v=52
93606 On ch=1 n=f5 v=0
93678 On ch=1 n=c#6 v=0
93685 On ch=1 n=a#6 v=0
93692 On ch=1 n=f6 v=54
93697 On ch=1 n=f5 v=40
93810 On ch=1 n=g#6 v=53
93815 On ch=1 n=g#5 v=41
93816 On ch=1 n=f5 v=0
93816 On ch=1 n=f6 v=0
93892 On ch=1 n=g#6 v=0
93912 On ch=1 n=c#5 v=41
93917 On ch=1 n=c#6 v=52
93927 On ch=1 n=g#5 v=0
94008 On ch=1 n=c#6 v=0
94020 On ch=1 n=c#5 v=0
94027 On ch=1 n=g#5 v=41
94034 On ch=1 n=f#6 v=52
94133 On ch=1 n=g#5 v=0
94136 On ch=1 n=f#6 v=0
94148 On ch=1 n=c#5 v=38
94152 On ch=1 n=c#6 v=51
94257 On ch=1 n=c#5 v=0
94269 On ch=1 n=f6 v=49
94274 On ch=1 n=c#6 v=0
94274 On ch=1 n=f5 v=37
94370 On ch=1 n=f6 v=0
94389 On ch=1 n=g#4 v=37
94390 On ch=1 n=g#5 v=49
94392 On ch=1 n=f5 v=0
94503 On ch=1 n=g#4 v=0
94524 On ch=1 n=g#5 v=0
94529 On ch=1 n=d#6 v=50
94536 On ch=1 n=f5 v=38
94645 On ch=1 n=g#5 v=49
94646 On ch=1 n=f5 v=0
94648 On ch=1 n=d#6 v=0
94650 On ch=1 n=g#4 v=36
94774 On ch=1 n=g#5 v=0
94776 On ch=1 n=g#4 v=0
94790 On ch=1 n=c#6 v=46
94792 On ch=1 n=f5 v=47
94793 On ch=1 n=c#4 v=37
94923 On ch=1 n=f5 v=0
94947 On ch=1 n=c#4 v=0
95010 On ch=1 n=c#6 v=0
95247 Par ch=1 c=64 v=0
95567 On ch=1 n=f5 v=89
95579 Par ch=1 c=64 v=127
95600 On ch=1 n=a4 v=60
95610 On ch=1 n=c5 v=73
95630 On ch=1 n=f4 v=64
95633 On ch=1 n=f3 v=70
96322 On ch=1 n=f5 v=0
96344 On ch=1 n=f4 v=0
96347 On ch=1 n=f3 v=0
96378 On ch=1 n=a4 v=0
96379 On ch=1 n=c5 v=0
96480 On ch=1 n=f5 v=78
96492 On ch=1 n=a#3 v=55
96500 On ch=1 n=c#5 v=61
96502 On ch=1 n=f4 v=50
96520 On ch=1 n=a#4 v=65
96583 Par ch=1 c=64 v=0
96912 Par ch=1 c=64 v=127
97206 On ch=1 n=a#3 v=0
97214 On ch=1 n=c#5 v=0
97232 On ch=1 n=f5 v=0
97236 On ch=1 n=f4 v=0
97259 On ch=1 n=a#4 v=0
97339 On ch=1 n=g#5 v=90
97349 On ch=1 n=f#4 v=75
97352 On ch=1 n=d#3 v=62
97372 On ch=1 n=a#3 v=58
97379 On ch=1 n=c#5 v=78
97409 Par ch=1 c=64 v=0
97538 Par ch=1 c=64 v=127
97709 On ch=1 n=d#3 v=0
97711 On ch=1 n=f#4 v=0
97716 On ch=1 n=c#5 v=0
97720 On ch=1 n=a#3 v=0
97722 On ch=1 n=g#5 v=0
97779 On ch=1 n=c#5 v=76
97779 On ch=1 n=f#5 v=89
97782 On ch=1 n=d#3 v=63
97789 On ch=1 n=f#4 v=70
97792 On ch=1 n=a#3 v=57
97880 On ch=1 n=d#3 v=0
97890 On ch=1 n=f#4 v=0
97899 On ch=1 n=c#5 v=0
97919 On ch=1 n=f5 v=86
97922 On ch=1 n=a#3 v=0
97929 On ch=1 n=f#5 v=0
97929 On ch=1 n=c#5 v=72
97932 On ch=1 n=d#4 v=58
97949 On ch=1 n=f#4 v=70
97953 On ch=1 n=d#3 v=63
97983 Par ch=1 c=64 v=0
98170 On ch=1 n=d#4 v=0
98218 On ch=1 n=d#5 v=77
98228 On ch=1 n=d#4 v=47
98229 On ch=1 n=f#4 v=0
98231 On ch=1 n=g#3 v=54
98233 On ch=1 n=d#3 v=0
98235 On ch=1 n=f5 v=0
98238 On ch=1 n=c5 v=55
98245 On ch=1 n=c#5 v=0
98490 Par ch=1 c=64 v=127
98499 On ch=1 n=c5 v=0
98570 On ch=1 n=g#3 v=0
98575 On ch=1 n=d#5 v=0
98595 On ch=1 n=d#4 v=0
98690 On ch=1 n=f8 v=48
98693 On ch=1 n=g#7 v=36
98787 On ch=1 n=g#7 v=0
98790 On ch=1 n=f8 v=0
98810 On ch=1 n=c8 v=48
98810 On ch=1 n=c7 v=36
98892 On ch=1 n=c8 v=0
98906 On ch=1 n=c7 v=0
98908 On ch=1 n=d#8 v=48
98911 On ch=1 n=d#7 v=36
99009 On ch=1 n=d#7 v=0
99009 On ch=1 n=d#8 v=0
99029 On ch=1 n=g#7 v=47
99032 On ch=1 n=g#6 v=35
99131 On ch=1 n=g#6 v=0
99135 On ch=1 n=g#7 v=0
99149 On ch=1 n=c#8 v=47
99152 On ch=1 n=d#7 v=35
99217 On ch=1 n=d#7 v=0
99243 On ch=1 n=c#8 v=0
99250 On ch=1 n=g#7 v=46
99250 On ch=1 n=g#6 v=34
99354 On ch=1 n=g#6 v=0
99364 On ch=1 n=g#7 v=0
99370 On ch=1 n=c8 v=46
99370 On ch=1 n=c7 v=34
99441 On ch=1 n=c8 v=0
99455 On ch=1 n=c7 v=0
99465 On ch=1 n=d#7 v=45
99468 On ch=1 n=d#6 v=33
99549 On ch=1 n=d#7 v=0
99573 On ch=1 n=d#6 v=0
99583 On ch=1 n=a#7 v=44
99586 On ch=1 n=c7 v=32
99687 On ch=1 n=a#7 v=0
99703 On ch=1 n=c7 v=0
99703 On ch=1 n=d#7 v=44
99706 On ch=1 n=d#6 v=32
99780 On ch=1 n=d#6 v=0
99798 On ch=1 n=d#7 v=0
99804 On ch=1 n=g#7 v=43
99804 On ch=1 n=g#6 v=31
99894 On ch=1 n=g#7 v=0
99898 On ch=1 n=g#6 v=0
99924 On ch=1 n=c7 v=43
99924 On ch=1 n=c6 v=31
99998 On ch=1 n=c6 v=0
100022 On ch=1 n=f7 v=42
100025 On ch=1 n=c7 v=0
100025 On ch=1 n=g#6 v=30
100128 On ch=1 n=g#6 v=0
100132 On ch=1 n=f7 v=0
100143 On ch=1 n=c7 v=42
100146 On ch=1 n=c6 v=30
100237 On ch=1 n=c7 v=0
100246 On ch=1 n=c6 v=0
100264 On ch=1 n=d#6 v=29
100267 On ch=1 n=d#7 v=41
100343 On ch=1 n=d#6 v=0
100347 On ch=1 n=d#7 v=0
100365 On ch=1 n=g#6 v=40
100371 On ch=1 n=g#5 v=28
100445 On ch=1 n=g#6 v=0
100460 On ch=1 n=g#5 v=0
100476 On ch=1 n=c#7 v=40
100482 On ch=1 n=d#6 v=28
100570 On ch=1 n=d#6 v=0
100573 On ch=1 n=c#7 v=0
100602 On ch=1 n=g#6 v=39
100605 On ch=1 n=g#5 v=27
100705 On ch=1 n=g#6 v=0
100715 On ch=1 n=g#5 v=0
100722 On ch=1 n=c7 v=39
100725 On ch=1 n=c6 v=27
100822 On ch=1 n=c7 v=0
100826 On ch=1 n=c6 v=0
100843 On ch=1 n=d#6 v=38
100846 On ch=1 n=d#5 v=26
100936 On ch=1 n=d#5 v=0
100937 On ch=1 n=d#6 v=0
100963 On ch=1 n=a#6 v=38
100963 On ch=1 n=c6 v=26
101075 On ch=1 n=c6 v=0
101097 On ch=1 n=a#6 v=0
101103 On ch=1 n=d#6 v=37
101103 On ch=1 n=d#5 v=25
101208 On ch=1 n=d#5 v=0
101224 On ch=1 n=d#6 v=0
101233 On ch=1 n=g#6 v=40
101243 On ch=1 n=g#4 v=24
101260 On ch=1 n=c6 v=30
101356 On ch=1 n=c6 v=0
101391 On ch=1 n=g#6 v=0
101401 On ch=1 n=g#4 v=0
101797 Par ch=1 c=64 v=0
102057 On ch=1 n=d#5 v=78
102080 On ch=1 n=c5 v=65
102083 On ch=1 n=g#2 v=60
102086 On ch=1 n=d#4 v=62
102113 On ch=1 n=g#3 v=51
102120 On ch=1 n=g#4 v=60
102156 Par ch=1 c=64 v=127
102714 On ch=1 n=d#5 v=0
102729 On ch=1 n=g#3 v=0
102734 On ch=1 n=c5 v=0
102741 On ch=1 n=g#2 v=0
102743 On ch=1 n=d#4 v=0
102777 On ch=1 n=g#4 v=0
102897 On ch=1 n=d#5 v=77
102900 On ch=1 n=g#3 v=53
102920 On ch=1 n=b4 v=65
102920 On ch=1 n=d#4 v=63
102930 On ch=1 n=g#2 v=60
102990 Par ch=1 c=64 v=0
103420 Par ch=1 c=64 v=127
103569 On ch=1 n=g#3 v=0
103589 On ch=1 n=b4 v=0
103599 On ch=1 n=g#2 v=0
103631 On ch=1 n=d#4 v=0
103634 On ch=1 n=d#5 v=0
103761 On ch=1 n=c#5 v=89
103767 On ch=1 n=c#3 v=63
103774 On ch=1 n=b4 v=76
103777 On ch=1 n=g#3 v=58
103814 On ch=1 n=f4 v=73
103844 On ch=1 n=c#4 v=60
103854 Par ch=1 c=64 v=0
104284 Par ch=1 c=64 v=127
104464 On ch=1 n=c#5 v=0
104467 On ch=1 n=c#3 v=0
104474 On ch=1 n=b4 v=0
104477 On ch=1 n=g#3 v=0
104514 On ch=1 n=f4 v=0
104547 On ch=1 n=c#4 v=0
104636 On ch=1 n=a#5 v=95
104651 On ch=1 n=f#2 v=73
104656 On ch=1 n=f#5 v=85
104658 On ch=1 n=a#4 v=78
104658 On ch=1 n=f#3 v=68
104658 On ch=1 n=c#5 v=82
104691 Par ch=1 c=64 v=0
104831 Par ch=1 c=64 v=127
104891 On ch=1 n=c#5 v=0
104891 On ch=1 n=f#5 v=0
104907 On ch=1 n=a#5 v=0
104969 On ch=1 n=f#3 v=0
104969 On ch=1 n=a#4 v=0
104977 On ch=1 n=f#2 v=0
105137 On ch=1 n=d#8 v=60
105140 On ch=1 n=f#7 v=48
105232 On ch=1 n=d#8 v=0
105255 On ch=1 n=a#7 v=60
105257 On ch=1 n=a#6 v=48
105261 On ch=1 n=f#7 v=0
105344 On ch=1 n=a#6 v=0
105355 On ch=1 n=c#8 v=60
105355 On ch=1 n=c#7 v=48
105357 On ch=1 n=a#7 v=0
105473 On ch=1 n=c#8 v=0
105476 On ch=1 n=f#7 v=59
105476 On ch=1 n=f#6 v=47
105480 On ch=1 n=c#7 v=0
105560 On ch=1 n=f#7 v=0
105567 On ch=1 n=f#6 v=0
105577 On ch=1 n=b7 v=59
105577 On ch=1 n=c#7 v=47
105680 On ch=1 n=c#7 v=0
105694 On ch=1 n=f#7 v=58
105697 On ch=1 n=f#6 v=46
105698 On ch=1 n=b7 v=0
105803 On ch=1 n=f#6 v=0
105815 On ch=1 n=a#7 v=58
105817 On ch=1 n=a#6 v=46
105821 On ch=1 n=f#7 v=0
105909 On ch=1 n=a#7 v=0
105915 On ch=1 n=c#7 v=57
105915 On ch=1 n=c#6 v=45
105925 On ch=1 n=a#6 v=0
106030 On ch=1 n=c#6 v=0
106030 On ch=1 n=c#7 v=0
106033 On ch=1 n=g#7 v=56
106033 On ch=1 n=a#6 v=44
106131 On ch=1 n=a#6 v=0
106131 On ch=1 n=g#7 v=0
106134 On ch=1 n=c#7 v=56
106134 On ch=1 n=c#6 v=44
106226 On ch=1 n=c#6 v=0
106251 On ch=1 n=f#7 v=55
106254 On ch=1 n=f#6 v=43
106259 On ch=1 n=c#7 v=0
106357 On ch=1 n=f#6 v=0
106369 On ch=1 n=f#7 v=0
106372 On ch=1 n=a#6 v=55
106374 On ch=1 n=a#5 v=43
106464 On ch=1 n=a#6 v=0
106472 On ch=1 n=d#7 v=54
106472 On ch=1 n=f#6 v=42
106476 On ch=1 n=a#5 v=0
106593 On ch=1 n=f#6 v=0
106593 On ch=1 n=a#6 v=54
106593 On ch=1 n=a#5 v=42
106596 On ch=1 n=d#7 v=0
106677 On ch=1 n=a#6 v=0
106689 On ch=1 n=a#5 v=0
106694 On ch=1 n=c#7 v=53
106694 On ch=1 n=c#6 v=41
106798 On ch=1 n=c#7 v=0
106799 On ch=1 n=c#6 v=0
106808 On ch=1 n=f#6 v=52
106811 On ch=1 n=f#5 v=40
106922 On ch=1 n=f#6 v=0
106929 On ch=1 n=b6 v=52
106932 On ch=1 n=c#6 v=40
106933 On ch=1 n=f#5 v=0
107026 On ch=1 n=c#6 v=0
107028 On ch=1 n=b6 v=0
107030 On ch=1 n=f#6 v=51
107030 On ch=1 n=f#5 v=39
107133 On ch=1 n=f#6 v=0
107142 On ch=1 n=f#5 v=0
107150 On ch=1 n=a#6 v=51
107150 On ch=1 n=a#5 v=39
107278 On ch=1 n=a#5 v=0
107290 On ch=1 n=c#6 v=50
107290 On ch=1 n=c#5 v=38
107293 On ch=1 n=a#6 v=0
107394 On ch=1 n=c#6 v=0
107404 On ch=1 n=c#5 v=0
107410 On ch=1 n=g#6 v=50
107410 On ch=1 n=a#5 v=38
107550 On ch=1 n=a#5 v=0
107550 On ch=1 n=c#6 v=49
107550 On ch=1 n=c#5 v=37
107555 On ch=1 n=g#6 v=0
107660 On ch=1 n=c#5 v=0
107683 On ch=1 n=c#6 v=0
107690 On ch=1 n=f#6 v=48
107690 On ch=1 n=f#4 v=36
107710 On ch=1 n=a#5 v=39
107840 On ch=1 n=a#5 v=0
107842 On ch=1 n=f#4 v=0
107888 On ch=1 n=f#6 v=0
108198 Par ch=1 c=64 v=0
108508 On ch=1 n=a#5 v=90
108528 On ch=1 n=c#5 v=77
108530 On ch=1 n=f#2 v=84
108550 Par ch=1 c=64 v=127
108550 On ch=1 n=f#3 v=67
108560 On ch=1 n=a#4 v=68
109139 On ch=1 n=f#3 v=0
109177 On ch=1 n=a#5 v=0
109184 On ch=1 n=c#5 v=0
109187 On ch=1 n=f#2 v=0
109227 On ch=1 n=a#4 v=0
109348 On ch=1 n=d#5 v=72
109368 On ch=1 n=c#5 v=54
109370 On ch=1 n=a#2 v=54
109390 On ch=1 n=a#3 v=38
109400 On ch=1 n=f#4 v=42
109420 Par ch=1 c=64 v=0
109730 Par ch=1 c=64 v=127
110038 On ch=1 n=d#5 v=0
110040 On ch=1 n=c#5 v=0
110042 On ch=1 n=a#2 v=0
110062 On ch=1 n=a#3 v=0
110093 On ch=1 n=f#4 v=0
110207 On ch=1 n=f#5 v=82
110210 On ch=1 n=g#2 v=58
110230 On ch=1 n=g#3 v=46
110237 On ch=1 n=c#5 v=59
110260 On ch=1 n=a#4 v=58
110270 Par ch=1 c=64 v=0
110550 Par ch=1 c=64 v=127
110589 On ch=1 n=g#3 v=0
110611 On ch=1 n=f#5 v=0
110627 On ch=1 n=f5 v=81
110646 On ch=1 n=c#5 v=0
110647 On ch=1 n=c5 v=58
110650 On ch=1 n=g#3 v=48
110650 On ch=1 n=g#4 v=57
110669 On ch=1 n=a#4 v=0
110729 On ch=1 n=g#3 v=0
110729 On ch=1 n=c5 v=0
110767 On ch=1 n=d#5 v=78
110771 On ch=1 n=f5 v=0
110787 On ch=1 n=c5 v=56
110790 On ch=1 n=g#3 v=43
110790 On ch=1 n=f#4 v=52
110795 On ch=1 n=g#4 v=0
111080 On ch=1 n=c#5 v=70
111082 On ch=1 n=c#3 v=46
111088 On ch=1 n=d#5 v=0
111092 On ch=1 n=g#2 v=0
111092 On ch=1 n=f4 v=55
111099 On ch=1 n=f#4 v=0
111106 On ch=1 n=c5 v=0
111152 Par ch=1 c=64 v=0
111283 On ch=1 n=f4 v=0
111292 Par ch=1 c=64 v=127
111341 On ch=1 n=c#5 v=0
111368 On ch=1 n=g#3 v=0
111370 On ch=1 n=c#3 v=0
111512 On ch=1 n=a#7 v=60
111512 On ch=1 n=c#7 v=48
111627 On ch=1 n=c#7 v=0
111630 On ch=1 n=a#7 v=0
111630 On ch=1 n=f7 v=60
111630 On ch=1 n=f6 v=48
111728 On ch=1 n=g#7 v=60
111730 On ch=1 n=g#6 v=48
111736 On ch=1 n=f7 v=0
111738 On ch=1 n=f6 v=0
111829 On ch=1 n=g#6 v=0
111844 On ch=1 n=g#7 v=0
111848 On ch=1 n=c#7 v=59
111851 On ch=1 n=c#6 v=47
111926 On ch=1 n=c#7 v=0
111935 On ch=1 n=c#6 v=0
111949 On ch=1 n=f#7 v=58
111949 On ch=1 n=g#6 v=46
112058 On ch=1 n=f#7 v=0
112069 On ch=1 n=c#7 v=57
112069 On ch=1 n=c#6 v=45
112074 On ch=1 n=g#6 v=0
112183 On ch=1 n=c#6 v=0
112184 On ch=1 n=c#7 v=0
112187 On ch=1 n=f7 v=56
112190 On ch=1 n=f6 v=44
112273 On ch=1 n=f7 v=0
112288 On ch=1 n=g#6 v=55
112290 On ch=1 n=g#5 v=43
112291 On ch=1 n=f6 v=0
112407 On ch=1 n=g#6 v=0
112408 On ch=1 n=d#7 v=54
112411 On ch=1 n=f6 v=42
112417 On ch=1 n=g#5 v=0
112503 On ch=1 n=d#7 v=0
112509 On ch=1 n=g#6 v=54
112509 On ch=1 n=g#5 v=42
112517 On ch=1 n=f6 v=0
112623 On ch=1 n=g#6 v=0
112629 On ch=1 n=g#5 v=0
112629 On ch=1 n=c#7 v=53
112629 On ch=1 n=c#6 v=41
112727 On ch=1 n=c#6 v=0
112748 On ch=1 n=c#7 v=0
112750 On ch=1 n=f6 v=52
112750 On ch=1 n=f5 v=40
112865 On ch=1 n=f6 v=0
112867 On ch=1 n=a#6 v=51
112870 On ch=1 n=c#6 v=39
112873 On ch=1 n=f5 v=0
112971 On ch=1 n=a#6 v=0
112979 On ch=1 n=c#6 v=0
112988 On ch=1 n=f6 v=50
112990 On ch=1 n=f5 v=38
113109 On ch=1 n=f5 v=0
113115 On ch=1 n=f6 v=0
113125 On ch=1 n=g#6 v=49
113127 On ch=1 n=g#5 v=37
113242 On ch=1 n=g#6 v=0
113243 On ch=1 n=g#5 v=0
113265 On ch=1 n=c#6 v=48
113267 On ch=1 n=c#5 v=36
113349 On ch=1 n=c#6 v=0
113371 On ch=1 n=c#5 v=0
113395 On ch=1 n=f#6 v=66
113405 On ch=1 n=a#5 v=55
113407 Par ch=1 c=64 v=0
113407 On ch=1 n=g#4 v=48
113425 On ch=1 n=c#6 v=55
113685 On ch=1 n=a#5 v=0
113703 On ch=1 n=f#6 v=0
113705 On ch=1 n=c#6 v=0
113716 On ch=1 n=g#4 v=0
113815 On ch=1 n=f6 v=63
113825 On ch=1 n=c6 v=55
113825 On ch=1 n=g#5 v=49
113827 On ch=1 n=g#4 v=45
113945 On ch=1 n=g#4 v=0
113946 On ch=1 n=c6 v=0
113974 On ch=1 n=d#6 v=60
113977 On ch=1 n=g#4 v=42
113984 On ch=1 n=c6 v=49
113986 On ch=1 n=f6 v=0
113994 On ch=1 n=f#5 v=49
113996 On ch=1 n=g#5 v=0
114247 On ch=1 n=c#6 v=48
114257 On ch=1 n=g#4 v=0
114264 On ch=1 n=c6 v=0
114270 On ch=1 n=c#4 v=36
114270 On ch=1 n=f5 v=43
114274 On ch=1 n=f#5 v=0
114275 On ch=1 n=d#6 v=0
114290 On ch=1 n=c#5 v=31
114476 On ch=1 n=c#6 v=0
114485 On ch=1 n=f5 v=0
114485 On ch=1 n=c#4 v=0
114505 On ch=1 n=c#5 v=0
114564 Par ch=1 c=64 v=127
114564 On ch=1 n=a#6 v=48
114564 On ch=1 n=c#6 v=36
114651 On ch=1 n=c#6 v=0
114655 On ch=1 n=a#6 v=0
114665 On ch=1 n=f6 v=48
114667 On ch=1 n=f5 v=36
114765 On ch=1 n=f5 v=0
114772 On ch=1 n=f6 v=0
114782 On ch=1 n=g#6 v=48
114782 On ch=1 n=g#5 v=36
114881 On ch=1 n=g#5 v=0
114888 On ch=1 n=g#6 v=0
114902 On ch=1 n=c#6 v=47
114902 On ch=1 n=c#5 v=35
114994 On ch=1 n=c#6 v=0
115003 On ch=1 n=f#6 v=46
115003 On ch=1 n=g#5 v=34
115010 On ch=1 n=c#5 v=0
115106 On ch=1 n=g#5 v=0
115115 On ch=1 n=f#6 v=0
115121 On ch=1 n=c#6 v=45
115124 On ch=1 n=c#5 v=33
115204 On ch=1 n=c#5 v=0
115220 On ch=1 n=c#6 v=0
115222 On ch=1 n=f6 v=44
115224 On ch=1 n=f5 v=32
115333 On ch=1 n=f6 v=0
115338 On ch=1 n=f5 v=0
115342 On ch=1 n=g#5 v=43
115342 On ch=1 n=g#4 v=31
115448 On ch=1 n=g#5 v=0
115449 On ch=1 n=g#4 v=0
115459 On ch=1 n=d#6 v=42
115459 On ch=1 n=f5 v=30
115549 On ch=1 n=d#6 v=0
115550 On ch=1 n=f5 v=0
115560 On ch=1 n=g#5 v=42
115560 On ch=1 n=g#4 v=30
115651 On ch=1 n=g#4 v=0
115678 On ch=1 n=c#6 v=41
115681 On ch=1 n=c#5 v=29
115683 On ch=1 n=g#5 v=0
115778 On ch=1 n=c#6 v=0
115798 On ch=1 n=f5 v=40
115801 On ch=1 n=f4 v=28
115807 On ch=1 n=c#5 v=0
115907 On ch=1 n=f5 v=0
115908 On ch=1 n=f4 v=0
115919 On ch=1 n=a#5 v=39
115921 On ch=1 n=c#5 v=27
116014 On ch=1 n=a#5 v=0
116026 On ch=1 n=c#5 v=0
116036 On ch=1 n=f5 v=38
116036 On ch=1 n=f4 v=26
116162 On ch=1 n=f4 v=0
116170 On ch=1 n=f5 v=0
116176 On ch=1 n=g#5 v=37
116176 On ch=1 n=g#4 v=25
116303 On ch=1 n=g#5 v=0
116305 On ch=1 n=g#4 v=0
116316 On ch=1 n=c#5 v=36
116316 On ch=1 n=c#4 v=24
116407 On ch=1 n=c#4 v=0
116424 On ch=1 n=c#5 v=0
116443 On ch=1 n=f#5 v=40
116449 On ch=1 n=g#3 v=31
116456 Par ch=1 c=64 v=0
116466 On ch=1 n=a#4 v=22
116476 On ch=1 n=c#5 v=27
116726 On ch=1 n=g#3 v=0
116744 On ch=1 n=f#5 v=0
116746 On ch=1 n=a#4 v=0
116756 On ch=1 n=c#5 v=0
116883 On ch=1 n=f5 v=43
116893 On ch=1 n=g#3 v=30
116893 On ch=1 n=c5 v=32
116913 On ch=1 n=g#4 v=22
116984 On ch=1 n=g#3 v=0
117013 On ch=1 n=c5 v=0
117019 On ch=1 n=f5 v=0
117020 On ch=1 n=d#5 v=41
117030 On ch=1 n=g#4 v=0
117030 On ch=1 n=f#4 v=26
117030 On ch=1 n=g#3 v=28
117040 On ch=1 n=c5 v=24
117332 On ch=1 n=c#5 v=42
117349 On ch=1 n=f#4 v=0
117352 On ch=1 n=g#3 v=0
117352 On ch=1 n=f4 v=16
117354 On ch=1 n=c#3 v=24
117356 On ch=1 n=d#5 v=0
117359 On ch=1 n=c5 v=0
117590 On ch=1 n=c#3 v=0
117590 On ch=1 n=f4 v=0
117821 On ch=1 n=c#5 v=0
118006 Par ch=1 c=64 v=127
118359 On ch=1 n=c#3 v=25
118359 On ch=1 n=c#2 v=36
119297 On ch=1 n=c#2 v=0
119297 On ch=1 n=c#3 v=0
119317 On ch=1 n=c#3 v=26
119320 On ch=1 n=c#2 v=36
120258 On ch=1 n=c#2 v=0
120258 On ch=1 n=c#3 v=0
120277 On ch=1 n=c#3 v=32
120277 On ch=1 n=c#2 v=42
121218 On ch=1 n=c#2 v=0
121218 On ch=1 n=c#3 v=0
121238 On ch=1 n=c#3 v=38
121238 On ch=1 n=c#2 v=48
123156 On ch=1 n=c#3 v=0
123158 On ch=1 n=c#2 v=0
123158 On ch=1 n=a#1 v=21
123178 On ch=1 n=a#2 v=32
124079 Par ch=1 c=64 v=0
124119 On ch=1 n=a#1 v=0
124122 On ch=1 n=d#2 v=21
124136 On ch=1 n=a#2 v=0
124139 On ch=1 n=d#3 v=32
125076 On ch=1 n=d#2 v=0
125079 On ch=1 n=c#2 v=10
125096 On ch=1 n=d#3 v=0
125099 On ch=1 n=c#3 v=24
125119 Par ch=1 c=64 v=127
125356 On ch=1 n=c#2 v=0
125376 On ch=1 n=c#3 v=0
125756 Par ch=1 c=64 v=0
125906 On ch=1 n=g#5 v=47
125922 On ch=1 n=c#4 v=30
125939 On ch=1 n=f5 v=32
125949 On ch=1 n=g#4 v=20
125969 On ch=1 n=c#5 v=30
125989 Par ch=1 c=64 v=127
126637 On ch=1 n=f5 v=0
126638 On ch=1 n=g#5 v=0
126641 On ch=1 n=c#5 v=0
126665 On ch=1 n=c#4 v=0
126671 On ch=1 n=g#4 v=0
126776 On ch=1 n=c#6 v=54
126782 On ch=1 n=a#3 v=36
126796 On ch=1 n=a#5 v=38
126799 On ch=1 n=a#4 v=32
126802 On ch=1 n=f4 v=25
126829 Par ch=1 c=64 v=0
126829 On ch=1 n=c#5 v=36
126839 On ch=1 n=f5 v=35
127179 Par ch=1 c=64 v=127
127468 On ch=1 n=a#5 v=0
127474 On ch=1 n=f4 v=0
127477 On ch=1 n=a#3 v=0
127492 On ch=1 n=c#6 v=0
127501 On ch=1 n=c#5 v=0
127505 On ch=1 n=a#4 v=0
127511 On ch=1 n=f5 v=0
127624 On ch=1 n=d#6 v=72
127644 On ch=1 n=g#5 v=54
127650 On ch=1 n=g#3 v=54
127664 On ch=1 n=c6 v=55
127687 Par ch=1 c=64 v=0
127687 On ch=1 n=g#4 v=44
127697 On ch=1 n=d#5 v=54
128137 Par ch=1 c=64 v=127
128346 On ch=1 n=c6 v=0
128350 On ch=1 n=d#6 v=0
128368 On ch=1 n=g#4 v=0
128378 On ch=1 n=d#5 v=0
128481 On ch=1 n=f6 v=78
128491 On ch=1 n=c#3 v=60
128498 On ch=1 n=c#6 v=59
128501 On ch=1 n=f5 v=61
128511 On ch=1 n=c#4 v=50
128515 On ch=1 n=g#5 v=0
128521 On ch=1 n=g#3 v=0
128551 Par ch=1 c=64 v=0
128691 Par ch=1 c=64 v=127
128729 On ch=1 n=c#3 v=0
128733 On ch=1 n=c#6 v=0
128736 On ch=1 n=f5 v=0
128746 On ch=1 n=c#4 v=0
128758 On ch=1 n=f6 v=0
128872 On ch=1 n=a#7 v=60
128875 On ch=1 n=c#7 v=48
128944 On ch=1 n=c#7 v=0
128965 On ch=1 n=a#7 v=0
128975 On ch=1 n=f7 v=60
128975 On ch=1 n=f6 v=48
129055 On ch=1 n=f6 v=0
129077 On ch=1 n=f7 v=0
129096 On ch=1 n=g#7 v=60
129096 On ch=1 n=g#6 v=48
129173 On ch=1 n=g#6 v=0
129174 On ch=1 n=g#7 v=0
129194 On ch=1 n=c#7 v=59
129197 On ch=1 n=c#6 v=47
129288 On ch=1 n=c#6 v=0
129296 On ch=1 n=c#7 v=0
129314 On ch=1 n=f#7 v=59
129314 On ch=1 n=g#6 v=47
129399 On ch=1 n=g#6 v=0
129407 On ch=1 n=f#7 v=0
129435 On ch=1 n=c#7 v=58
129435 On ch=1 n=c#6 v=46
129509 On ch=1 n=c#6 v=0
129519 On ch=1 n=c#7 v=0
129529 On ch=1 n=f7 v=58
129529 On ch=1 n=f6 v=46
129614 On ch=1 n=f7 v=0
129629 On ch=1 n=f6 v=0
129650 On ch=1 n=g#6 v=57
129650 On ch=1 n=g#5 v=45
129724 On ch=1 n=g#5 v=0
129738 On ch=1 n=g#6 v=0
129748 On ch=1 n=d#7 v=56
129751 On ch=1 n=f6 v=44
129841 On ch=1 n=f6 v=0
129841 On ch=1 n=d#7 v=0
129868 On ch=1 n=g#6 v=56
129868 On ch=1 n=g#5 v=44
129966 On ch=1 n=g#6 v=0
129968 On ch=1 n=g#5 v=0
129989 On ch=1 n=c#7 v=55
129989 On ch=1 n=c#6 v=43
130059 On ch=1 n=c#7 v=0
130074 On ch=1 n=c#6 v=0
130089 On ch=1 n=f6 v=55
130089 On ch=1 n=f5 v=43
130179 On ch=1 n=f5 v=0
130197 On ch=1 n=f6 v=0
130207 On ch=1 n=a#6 v=54
130207 On ch=1 n=c#6 v=42
130277 On ch=1 n=a#6 v=0
130278 On ch=1 n=c#6 v=0
130305 On ch=1 n=f6 v=54
130308 On ch=1 n=f5 v=42
130402 On ch=1 n=f6 v=0
130405 On ch=1 n=f5 v=0
130425 On ch=1 n=g#6 v=53
130425 On ch=1 n=g#5 v=41
130509 On ch=1 n=g#5 v=0
130526 On ch=1 n=g#6 v=0
130546 On ch=1 n=c#6 v=52
130546 On ch=1 n=c#5 v=40
130613 On ch=1 n=c#6 v=0
130619 On ch=1 n=c#5 v=0
130646 On ch=1 n=f#6 v=52
130646 On ch=1 n=g#5 v=40
130737 On ch=1 n=g#5 v=0
130754 On ch=1 n=f#6 v=0
130764 On ch=1 n=c#6 v=51
130767 On ch=1 n=c#5 v=39
130850 On ch=1 n=c#5 v=0
130860 On ch=1 n=c#6 v=0
130881 On ch=1 n=f6 v=51
130884 On ch=1 n=f5 v=39
130970 On ch=1 n=f6 v=0
130971 On ch=1 n=f5 v=0
131002 On ch=1 n=g#5 v=50
131005 On ch=1 n=g#4 v=38
131109 On ch=1 n=g#5 v=0
131110 On ch=1 n=g#4 v=0
131142 On ch=1 n=d#6 v=50
131145 On ch=1 n=f5 v=38
131236 On ch=1 n=d#6 v=0
131246 On ch=1 n=f5 v=0
131256 On ch=1 n=g#5 v=49
131256 On ch=1 n=g#4 v=37
131375 On ch=1 n=g#4 v=0
131375 On ch=1 n=g#5 v=0
131396 On ch=1 n=c#6 v=48
131399 On ch=1 n=c#4 v=36
131426 On ch=1 n=f5 v=40
131587 On ch=1 n=c#6 v=0
131591 On ch=1 n=f5 v=0
131597 On ch=1 n=c#4 v=0
131913 Par ch=1 c=64 v=0
132213 On ch=1 n=f6 v=79
132236 On ch=1 n=f5 v=64
132239 On ch=1 n=f3 v=60
132256 On ch=1 n=c6 v=62
132279 On ch=1 n=f4 v=60
132286 On ch=1 n=a5 v=65
132309 Par ch=1 c=64 v=127
132885 On ch=1 n=f6 v=0
132908 On ch=1 n=f5 v=0
132911 On ch=1 n=f3 v=0
132928 On ch=1 n=c6 v=0
132951 On ch=1 n=f4 v=0
132958 On ch=1 n=a5 v=0
133073 On ch=1 n=f6 v=72
133096 On ch=1 n=a#5 v=54
133099 On ch=1 n=c#5 v=56
133101 On ch=1 n=a#3 v=60
133116 On ch=1 n=f5 v=55
133139 On ch=1 n=f4 v=48
133146 On ch=1 n=c#6 v=55
133169 Par ch=1 c=64 v=0
133589 Par ch=1 c=64 v=127
133782 On ch=1 n=c#6 v=0
133783 On ch=1 n=a#5 v=0
133786 On ch=1 n=c#5 v=0
133787 On ch=1 n=f6 v=0
133789 On ch=1 n=a#3 v=0
133803 On ch=1 n=f5 v=0
133826 On ch=1 n=f4 v=0
133941 On ch=1 n=g#6 v=82
133967 On ch=1 n=g#5 v=64
133967 On ch=1 n=d#3 v=64
133974 On ch=1 n=a#5 v=62
133984 On ch=1 n=c#6 v=63
133987 On ch=1 n=d#4 v=64
133997 Par ch=1 c=64 v=0
134278 On ch=1 n=g#5 v=0
134279 On ch=1 n=g#6 v=0
134281 On ch=1 n=d#3 v=0
134288 On ch=1 n=a#5 v=0
134298 On ch=1 n=c#6 v=0
134301 On ch=1 n=d#4 v=0
134307 Par ch=1 c=64 v=127
134375 On ch=1 n=f#6 v=68
134385 On ch=1 n=c#6 v=51
134388 On ch=1 n=d#5 v=45
134395 On ch=1 n=a#5 v=52
134398 On ch=1 n=f#5 v=52
134398 On ch=1 n=a#4 v=54
134401 On ch=1 n=d#4 v=58
134490 On ch=1 n=f#5 v=0
134501 On ch=1 n=c#6 v=0
134504 On ch=1 n=d#5 v=0
134511 On ch=1 n=a#5 v=0
134514 On ch=1 n=a#4 v=0
134515 On ch=1 n=f6 v=70
134517 On ch=1 n=d#4 v=0
134519 On ch=1 n=f#6 v=0
134535 On ch=1 n=c#6 v=51
134538 On ch=1 n=f#5 v=53
134541 On ch=1 n=d#4 v=52
134548 On ch=1 n=d#5 v=38
134551 On ch=1 n=a#4 v=39
134555 On ch=1 n=a#5 v=52
134565 Par ch=1 c=64 v=0
134820 On ch=1 n=d#6 v=82
134823 On ch=1 n=c#6 v=0
134825 On ch=1 n=f#5 v=0
134828 On ch=1 n=d#4 v=0
134832 On ch=1 n=f6 v=0
134835 On ch=1 n=a#4 v=0
134835 On ch=1 n=d#5 v=0
134837 Par ch=1 c=64 v=127
134840 On ch=1 n=c6 v=67
134843 On ch=1 n=a#5 v=0
134843 On ch=1 n=g#4 v=64
134860 On ch=1 n=d#5 v=57
135072 On ch=1 n=c6 v=0
135107 On ch=1 n=d#6 v=0
135151 On ch=1 n=g#4 v=0
135171 On ch=1 n=d#5 v=0
135274 On ch=1 n=f8 v=52
135274 On ch=1 n=g#7 v=40
135348 On ch=1 n=g#7 v=0
135357 On ch=1 n=f8 v=0
135372 On ch=1 n=c8 v=52
135374 On ch=1 n=c7 v=40
135481 On ch=1 n=c7 v=0
135481 On ch=1 n=c8 v=0
135492 On ch=1 n=d#8 v=52
135495 On ch=1 n=d#7 v=40
135570 On ch=1 n=d#8 v=0
135577 On ch=1 n=d#7 v=0
135593 On ch=1 n=g#7 v=51
135593 On ch=1 n=g#6 v=39
135675 On ch=1 n=g#6 v=0
135686 On ch=1 n=g#7 v=0
135713 On ch=1 n=c#8 v=51
135713 On ch=1 n=d#7 v=39
135815 On ch=1 n=d#7 v=0
135820 On ch=1 n=c#8 v=0
135834 On ch=1 n=g#7 v=50
135834 On ch=1 n=g#6 v=38
135906 On ch=1 n=g#7 v=0
135911 On ch=1 n=g#6 v=0
135932 On ch=1 n=c8 v=50
135934 On ch=1 n=c7 v=38
136020 On ch=1 n=c7 v=0
136042 On ch=1 n=c8 v=0
136052 On ch=1 n=d#7 v=49
136052 On ch=1 n=d#6 v=37
136133 On ch=1 n=d#6 v=0
136140 On ch=1 n=d#7 v=0
136150 On ch=1 n=a#7 v=48
136150 On ch=1 n=c7 v=36
136241 On ch=1 n=c7 v=0
136244 On ch=1 n=a#7 v=0
136270 On ch=1 n=d#7 v=48
136270 On ch=1 n=d#6 v=36
136357 On ch=1 n=d#6 v=0
136362 On ch=1 n=d#7 v=0
136391 On ch=1 n=g#7 v=47
136391 On ch=1 n=g#6 v=35
136460 On ch=1 n=g#6 v=0
136461 On ch=1 n=g#7 v=0
136489 On ch=1 n=c7 v=47
136491 On ch=1 n=c6 v=35
136573 On ch=1 n=c7 v=0
136595 On ch=1 n=c6 v=0
136609 On ch=1 n=f7 v=46
136609 On ch=1 n=g#6 v=34
136675 On ch=1 n=g#6 v=0
136685 On ch=1 n=f7 v=0
136710 On ch=1 n=c7 v=46
136710 On ch=1 n=c6 v=34
136806 On ch=1 n=c6 v=0
136809 On ch=1 n=c7 v=0
136830 On ch=1 n=d#7 v=45
136830 On ch=1 n=d#6 v=33
136921 On ch=1 n=d#7 v=0
136933 On ch=1 n=d#6 v=0
136951 On ch=1 n=g#6 v=44
136951 On ch=1 n=g#5 v=32
137018 On ch=1 n=g#6 v=0
137019 On ch=1 n=g#5 v=0
137049 On ch=1 n=c#7 v=44
137051 On ch=1 n=d#6 v=32
137130 On ch=1 n=c#7 v=0
137154 On ch=1 n=d#6 v=0
137169 On ch=1 n=g#6 v=43
137169 On ch=1 n=g#5 v=31
137254 On ch=1 n=g#5 v=0
137255 On ch=1 n=g#6 v=0
137289 On ch=1 n=c7 v=43
137289 On ch=1 n=c6 v=31
137372 On ch=1 n=c6 v=0
137379 On ch=1 n=c7 v=0
137410 On ch=1 n=d#6 v=42
137410 On ch=1 n=d#5 v=30
137505 On ch=1 n=d#5 v=0
137514 On ch=1 n=d#6 v=0
137550 On ch=1 n=a#6 v=42
137550 On ch=1 n=c6 v=30
137631 On ch=1 n=a#6 v=0
137650 On ch=1 n=c6 v=0
137670 On ch=1 n=d#6 v=41
137670 On ch=1 n=d#5 v=29
137785 On ch=1 n=d#5 v=0
137793 On ch=1 n=d#6 v=0
137800 On ch=1 n=g#6 v=43
137810 On ch=1 n=g#4 v=28
137840 On ch=1 n=c6 v=34
137945 On ch=1 n=g#4 v=0
137970 On ch=1 n=c6 v=0
137973 On ch=1 n=g#6 v=0
138367 Par ch=1 c=64 v=0
138627 On ch=1 n=d#6 v=77
138653 On ch=1 n=g#3 v=60
138664 On ch=1 n=g#4 v=56
138670 On ch=1 n=g#5 v=61
138677 On ch=1 n=b5 v=62
138680 On ch=1 n=d#5 v=62
138690 On ch=1 n=d#4 v=50
138711 Par ch=1 c=64 v=127
139296 On ch=1 n=d#6 v=0
139308 On ch=1 n=d#5 v=0
139322 On ch=1 n=g#3 v=0
139331 On ch=1 n=d#4 v=0
139333 On ch=1 n=g#4 v=0
139339 On ch=1 n=g#5 v=0
139346 On ch=1 n=b5 v=0
139484 On ch=1 n=d#6 v=77
139507 On ch=1 n=f#5 v=62
139507 On ch=1 n=b4 v=47
139510 On ch=1 n=g#4 v=49
139512 On ch=1 n=b3 v=60
139517 On ch=1 n=d#5 v=61
139524 On ch=1 n=g#5 v=61
139540 On ch=1 n=d#4 v=56
139570 Par ch=1 c=64 v=0
139990 Par ch=1 c=64 v=127
140179 On ch=1 n=b4 v=0
140180 On ch=1 n=d#6 v=0
140184 On ch=1 n=b3 v=0
140189 On ch=1 n=d#5 v=0
140196 On ch=1 n=g#5 v=0
140207 On ch=1 n=g#4 v=0
140212 On ch=1 n=d#4 v=0
140246 On ch=1 n=f#5 v=0
140344 On ch=1 n=c#6 v=84
140364 On ch=1 n=b5 v=68
140369 On ch=1 n=b4 v=62
140369 On ch=1 n=c#4 v=66
140376 On ch=1 n=c#5 v=67
140396 On ch=1 n=f5 v=65
140406 On ch=1 n=g#4 v=56
140466 Par ch=1 c=64 v=0
140926 Par ch=1 c=64 v=127
141044 On ch=1 n=c#6 v=0
141056 On ch=1 n=c#4 v=0
141067 On ch=1 n=b5 v=0
141069 On ch=1 n=b4 v=0
141077 On ch=1 n=c#5 v=0
141097 On ch=1 n=f5 v=0
141109 On ch=1 n=g#4 v=0
141218 On ch=1 n=a#6 v=84
141228 On ch=1 n=a#5 v=72
141248 On ch=1 n=f#6 v=72
141248 On ch=1 n=c#6 v=71
141251 On ch=1 n=a#4 v=68
141254 On ch=1 n=f#3 v=72
141281 On ch=1 n=c#4 v=72
141304 Par ch=1 c=64 v=0
141444 Par ch=1 c=64 v=127
141472 On ch=1 n=a#5 v=0
141490 On ch=1 n=f#6 v=0
141492 On ch=1 n=c#6 v=0
141535 On ch=1 n=a#6 v=0
141568 On ch=1 n=f#3 v=0
141568 On ch=1 n=a#4 v=0
141598 On ch=1 n=c#4 v=0
141704 On ch=1 n=d#8 v=60
141704 On ch=1 n=f#7 v=48
141784 On ch=1 n=f#7 v=0
141795 On ch=1 n=d#8 v=0
141822 On ch=1 n=a#7 v=60
141825 On ch=1 n=a#6 v=48
141891 On ch=1 n=a#6 v=0
141911 On ch=1 n=a#7 v=0
141923 On ch=1 n=c#8 v=60
141923 On ch=1 n=c#7 v=48
142024 On ch=1 n=c#7 v=0
142029 On ch=1 n=c#8 v=0
142043 On ch=1 n=f#7 v=59
142043 On ch=1 n=f#6 v=47
142133 On ch=1 n=f#7 v=0
142138 On ch=1 n=f#6 v=0
142163 On ch=1 n=b7 v=59
142163 On ch=1 n=c#7 v=47
142244 On ch=1 n=c#7 v=0
142247 On ch=1 n=b7 v=0
142261 On ch=1 n=f#7 v=58
142264 On ch=1 n=f#6 v=46
142365 On ch=1 n=f#7 v=0
142370 On ch=1 n=f#6 v=0
142382 On ch=1 n=a#7 v=58
142385 On ch=1 n=a#6 v=46
142462 On ch=1 n=a#7 v=0
142464 On ch=1 n=a#6 v=0
142483 On ch=1 n=c#7 v=57
142483 On ch=1 n=c#6 v=45
142567 On ch=1 n=c#7 v=0
142571 On ch=1 n=c#6 v=0
142603 On ch=1 n=g#7 v=56
142603 On ch=1 n=a#6 v=44
142685 On ch=1 n=a#6 v=0
142711 On ch=1 n=g#7 v=0
142723 On ch=1 n=c#7 v=56
142723 On ch=1 n=c#6 v=44
142796 On ch=1 n=c#7 v=0
142813 On ch=1 n=c#6 v=0
142821 On ch=1 n=f#7 v=55
142824 On ch=1 n=f#6 v=43
142920 On ch=1 n=f#7 v=0
142922 On ch=1 n=f#6 v=0
142942 On ch=1 n=a#6 v=55
142945 On ch=1 n=a#5 v=43
143011 On ch=1 n=a#6 v=0
143022 On ch=1 n=a#5 v=0
143043 On ch=1 n=d#7 v=54
143043 On ch=1 n=f#6 v=42
143128 On ch=1 n=f#6 v=0
143138 On ch=1 n=d#7 v=0
143163 On ch=1 n=a#6 v=54
143163 On ch=1 n=a#5 v=42
143231 On ch=1 n=a#5 v=0
143240 On ch=1 n=a#6 v=0
143261 On ch=1 n=c#7 v=53
143264 On ch=1 n=c#6 v=41
143349 On ch=1 n=c#7 v=0
143350 On ch=1 n=c#6 v=0
143381 On ch=1 n=f#6 v=52
143384 On ch=1 n=f#5 v=40
143480 On ch=1 n=f#5 v=0
143488 On ch=1 n=f#6 v=0
143502 On ch=1 n=b6 v=52
143505 On ch=1 n=c#6 v=40
143579 On ch=1 n=c#6 v=0
143580 On ch=1 n=b6 v=0
143603 On ch=1 n=f#6 v=51
143603 On ch=1 n=f#5 v=39
143701 On ch=1 n=f#5 v=0
143704 On ch=1 n=f#6 v=0
143723 On ch=1 n=a#6 v=51
143723 On ch=1 n=a#5 v=39
143827 On ch=1 n=a#5 v=0
143836 On ch=1 n=a#6 v=0
143863 On ch=1 n=c#6 v=50
143863 On ch=1 n=c#5 v=38
143948 On ch=1 n=c#5 v=0
143959 On ch=1 n=c#6 v=0
143983 On ch=1 n=g#6 v=50
143983 On ch=1 n=a#5 v=38
144088 On ch=1 n=a#5 v=0
144096 On ch=1 n=g#6 v=0
144123 On ch=1 n=c#6 v=49
144123 On ch=1 n=c#5 v=37
144221 On ch=1 n=c#5 v=0
144225 On ch=1 n=c#6 v=0
144251 On ch=1 n=f#6 v=54
144273 On ch=1 n=f#4 v=36
144293 On ch=1 n=a#5 v=42
144407 On ch=1 n=f#6 v=0
144413 On ch=1 n=f#4 v=0
144431 On ch=1 n=a#5 v=0
144801 Par ch=1 c=64 v=0
145061 On ch=1 n=a#6 v=77
145086 On ch=1 n=f#2 v=60
145101 On ch=1 n=d#6 v=62
145123 On ch=1 n=f#3 v=56
145131 On ch=1 n=c#6 v=61
145143 On ch=1 n=a#5 v=59
145193 Par ch=1 c=64 v=127
145757 On ch=1 n=d#6 v=0
145780 On ch=1 n=f#3 v=0
145787 On ch=1 n=c#6 v=0
145787 On ch=1 n=a#6 v=0
145792 On ch=1 n=f#2 v=0
145800 On ch=1 n=a#5 v=0
145940 On ch=1 n=d#6 v=84
145960 On ch=1 n=c#6 v=55
145963 On ch=1 n=d#5 v=56
145966 On ch=1 n=f#3 v=63
145973 On ch=1 n=a#5 v=55
145983 On ch=1 n=f#4 v=55
146016 Par ch=1 c=64 v=0
146416 Par ch=1 c=64 v=127
146635 On ch=1 n=d#5 v=0
146640 On ch=1 n=c#6 v=0
146650 On ch=1 n=d#6 v=0
146653 On ch=1 n=f#3 v=0
146669 On ch=1 n=a#5 v=0
146671 On ch=1 n=f#4 v=0
146818 On ch=1 n=f#6 v=75
146828 On ch=1 n=c#6 v=59
146831 On ch=1 n=d#5 v=55
146831 On ch=1 n=g#3 v=58
146858 On ch=1 n=a#5 v=53
146861 Par ch=1 c=64 v=0
146871 On ch=1 n=g#4 v=42
147111 Par ch=1 c=64 v=127
147158 On ch=1 n=c#6 v=0
147161 On ch=1 n=d#5 v=0
147162 On ch=1 n=g#3 v=0
147165 On ch=1 n=g#4 v=0
147165 On ch=1 n=f#6 v=0
147190 On ch=1 n=a#5 v=0
147249 On ch=1 n=f6 v=70
147259 On ch=1 n=c6 v=53
147262 On ch=1 n=g#4 v=44
147262 On ch=1 n=d#5 v=41
147262 On ch=1 n=g#5 v=49
147352 On ch=1 n=c6 v=0
147355 On ch=1 n=g#5 v=0
147355 On ch=1 n=d#5 v=0
147355 On ch=1 n=g#4 v=0
147372 Par ch=1 c=64 v=0
147389 On ch=1 n=d#6 v=68
147394 On ch=1 n=f6 v=0
147399 On ch=1 n=c6 v=46
147405 On ch=1 n=g#4 v=42
147412 On ch=1 n=d#5 v=45
147432 On ch=1 n=f#5 v=52
147665 On ch=1 n=g#4 v=0
147693 On ch=1 n=c6 v=0
147695 On ch=1 n=c#6 v=63
147697 On ch=1 n=c#5 v=42
147703 On ch=1 n=d#5 v=0
147707 On ch=1 n=f5 v=48
147709 On ch=1 n=d#6 v=0
147710 On ch=1 n=c#4 v=51
147720 On ch=1 n=f#5 v=0
147727 On ch=1 n=g#4 v=34
147752 Par ch=1 c=64 v=127
147882 On ch=1 n=c#4 v=0
147937 On ch=1 n=c#5 v=0
147938 On ch=1 n=g#4 v=0
147948 On ch=1 n=f5 v=0
147976 On ch=1 n=c#6 v=0
148145 On ch=1 n=a#7 v=60
148145 On ch=1 n=c#7 v=48
148212 On ch=1 n=c#7 v=0
148229 On ch=1 n=a#7 v=0
148243 On ch=1 n=f7 v=60
148243 On ch=1 n=f6 v=48
148328 On ch=1 n=f6 v=0
148330 On ch=1 n=f7 v=0
148364 On ch=1 n=g#7 v=60
148364 On ch=1 n=g#6 v=48
148462 On ch=1 n=g#6 v=0
148470 On ch=1 n=g#7 v=0
148484 On ch=1 n=c#7 v=59
148484 On ch=1 n=c#6 v=47
148559 On ch=1 n=c#6 v=0
148561 On ch=1 n=c#7 v=0
148582 On ch=1 n=f#7 v=58
148585 On ch=1 n=g#6 v=46
148671 On ch=1 n=f#7 v=0
148692 On ch=1 n=g#6 v=0
148703 On ch=1 n=c#7 v=57
148705 On ch=1 n=c#6 v=45
148772 On ch=1 n=c#7 v=0
148792 On ch=1 n=c#6 v=0
148803 On ch=1 n=f7 v=56
148803 On ch=1 n=f6 v=44
148899 On ch=1 n=f6 v=0
148902 On ch=1 n=f7 v=0
148924 On ch=1 n=g#6 v=55
148924 On ch=1 n=g#5 v=43
149025 On ch=1 n=g#6 v=0
149027 On ch=1 n=g#5 v=0
149044 On ch=1 n=d#7 v=54
149044 On ch=1 n=f6 v=42
149118 On ch=1 n=d#7 v=0
149120 On ch=1 n=f6 v=0
149142 On ch=1 n=g#6 v=54
149145 On ch=1 n=g#5 v=42
149243 On ch=1 n=g#6 v=0
149250 On ch=1 n=g#5 v=0
149260 On ch=1 n=c#7 v=53
149262 On ch=1 n=c#6 v=41
149357 On ch=1 n=c#7 v=0
149369 On ch=1 n=c#6 v=0
149380 On ch=1 n=f6 v=52
149380 On ch=1 n=f5 v=40
149465 On ch=1 n=f6 v=0
149469 On ch=1 n=f5 v=0
149500 On ch=1 n=a#6 v=51
149500 On ch=1 n=c#6 v=39
149594 On ch=1 n=c#6 v=0
149599 On ch=1 n=a#6 v=0
149621 On ch=1 n=f6 v=50
149621 On ch=1 n=f5 v=38
149717 On ch=1 n=f5 v=0
149725 On ch=1 n=f6 v=0
149761 On ch=1 n=g#6 v=49
149761 On ch=1 n=g#5 v=37
149861 On ch=1 n=g#5 v=0
149876 On ch=1 n=g#6 v=0
149901 On ch=1 n=c#6 v=48
149901 On ch=1 n=c#5 v=36
149988 On ch=1 n=c#5 v=0
149999 On ch=1 n=c#6 v=0
150063 On ch=1 n=f#6 v=66
150073 Par ch=1 c=64 v=0
150073 On ch=1 n=g#4 v=64
150090 On ch=1 n=c#6 v=42
150100 On ch=1 n=a#5 v=41
150328 On ch=1 n=c#6 v=0
150350 On ch=1 n=g#4 v=0
150366 On ch=1 n=f#6 v=0
150380 On ch=1 n=a#5 v=0
150497 On ch=1 n=f6 v=62
150507 On ch=1 n=c6 v=45
150509 On ch=1 n=g#4 v=60
150509 On ch=1 n=g#5 v=45
150593 On ch=1 n=g#4 v=0
150627 On ch=1 n=c6 v=0
150637 On ch=1 n=d#6 v=60
150640 On ch=1 n=f6 v=0
150649 On ch=1 n=g#4 v=48
150658 On ch=1 n=g#5 v=0
150667 On ch=1 n=c6 v=35
150669 On ch=1 n=f#5 v=35
150961 On ch=1 n=c#6 v=54
150971 Par ch=1 c=64 v=127
150974 On ch=1 n=f5 v=36
150974 On ch=1 n=c#4 v=52
150986 On ch=1 n=d#6 v=0
150991 On ch=1 n=g#4 v=0
151009 On ch=1 n=f#5 v=0
151009 On ch=1 n=c6 v=0
151207 On ch=1 n=f5 v=0
151209 On ch=1 n=c#4 v=0
151236 On ch=1 n=c#6 v=0
151348 On ch=1 n=a#6 v=48
151348 On ch=1 n=c#6 v=36
151434 On ch=1 n=c#6 v=0
151449 On ch=1 n=a#6 v=0
151468 On ch=1 n=f6 v=48
151471 On ch=1 n=f5 v=36
151566 On ch=1 n=f5 v=0
151576 On ch=1 n=f6 v=0
151586 On ch=1 n=g#6 v=48
151586 On ch=1 n=g#5 v=36
151662 On ch=1 n=g#5 v=0
151673 On ch=1 n=g#6 v=0
151683 On ch=1 n=c#6 v=47
151683 On ch=1 n=c#5 v=35
151771 On ch=1 n=c#6 v=0
151775 On ch=1 n=c#5 v=0
151804 On ch=1 n=f#6 v=46
151804 On ch=1 n=g#5 v=34
151872 On ch=1 n=f#6 v=0
151883 On ch=1 n=g#5 v=0
151902 On ch=1 n=c#6 v=45
151905 On ch=1 n=c#5 v=33
151986 On ch=1 n=c#5 v=0
152006 On ch=1 n=c#6 v=0
152022 On ch=1 n=f6 v=44
152022 On ch=1 n=f5 v=32
152107 On ch=1 n=f6 v=0
152134 On ch=1 n=f5 v=0
152143 On ch=1 n=g#5 v=43
152143 On ch=1 n=g#4 v=31
152217 On ch=1 n=g#4 v=0
152223 On ch=1 n=g#5 v=0
152243 On ch=1 n=d#6 v=42
152243 On ch=1 n=f5 v=30
152323 On ch=1 n=f5 v=0
152339 On ch=1 n=d#6 v=0
152364 On ch=1 n=g#5 v=42
152364 On ch=1 n=g#4 v=30
152432 On ch=1 n=g#5 v=0
152435 On ch=1 n=g#4 v=0
152462 On ch=1 n=c#6 v=41
152465 On ch=1 n=c#5 v=29
152558 On ch=1 n=c#6 v=0
152570 On ch=1 n=c#5 v=0
152582 On ch=1 n=f5 v=40
152582 On ch=1 n=f4 v=28
152673 On ch=1 n=f4 v=0
152680 On ch=1 n=f5 v=0
152703 On ch=1 n=a#5 v=39
152703 On ch=1 n=c#5 v=27
152799 On ch=1 n=a#5 v=0
152831 On ch=1 n=c#5 v=0
152843 On ch=1 n=f5 v=38
152843 On ch=1 n=f4 v=26
152937 On ch=1 n=f4 v=0
152947 On ch=1 n=f5 v=0
152963 On ch=1 n=g#5 v=37
152963 On ch=1 n=g#4 v=25
153069 On ch=1 n=g#5 v=0
153070 On ch=1 n=g#4 v=0
153103 On ch=1 n=c#5 v=36
153103 On ch=1 n=c#4 v=24
153185 On ch=1 n=c#5 v=0
153201 On ch=1 n=c#4 v=0
153340 On ch=1 n=f#5 v=47
153356 On ch=1 n=g#3 v=29
153360 On ch=1 n=c#5 v=28
153363 On ch=1 n=a#4 v=25
153383 Par ch=1 c=64 v=0
153653 On ch=1 n=g#3 v=0
153663 On ch=1 n=a#4 v=0
153663 On ch=1 n=c#5 v=0
153669 On ch=1 n=f#5 v=0
153780 On ch=1 n=f5 v=47
153790 On ch=1 n=g#3 v=29
153790 On ch=1 n=c5 v=29
153790 On ch=1 n=g#4 v=32
153894 On ch=1 n=g#3 v=0
153930 On ch=1 n=g#4 v=0
153930 On ch=1 n=c5 v=0
153936 On ch=1 n=d#5 v=45
153937 On ch=1 n=f5 v=0
153949 On ch=1 n=g#3 v=29
153969 On ch=1 n=c5 v=27
153979 On ch=1 n=f#4 v=28
154251 On ch=1 n=c#5 v=43
154271 On ch=1 n=g#3 v=0
154274 On ch=1 n=c#3 v=25
154284 On ch=1 n=d#5 v=0
154288 On ch=1 n=c5 v=0
154298 On ch=1 n=f4 v=26
154334 On ch=1 n=f#4 v=0
154506 On ch=1 n=c#3 v=0
154536 On ch=1 n=f4 v=0
154574 On ch=1 n=c#5 v=0
155103 Par ch=1 c=64 v=127
155221 On ch=1 n=c#3 v=36
155221 On ch=1 n=c#2 v=29
156159 On ch=1 n=c#2 v=0
156159 On ch=1 n=c#3 v=0
156179 On ch=1 n=c#3 v=36
156179 On ch=1 n=c#2 v=28
157117 On ch=1 n=c#2 v=0
157120 On ch=1 n=c#3 v=0
157139 On ch=1 n=c#3 v=42
157139 On ch=1 n=c#2 v=35
158080 On ch=1 n=c#2 v=0
158080 On ch=1 n=c#3 v=0
158099 On ch=1 n=c#3 v=48
158099 On ch=1 n=c#2 v=40
160016 On ch=1 n=a#2 v=52
160016 On ch=1 n=a#1 v=45
160017 On ch=1 n=c#3 v=0
160020 On ch=1 n=c#2 v=0
160028 Par ch=1 c=64 v=0
160955 On ch=1 n=e4 v=59
160973 On ch=1 n=a#1 v=0
160974 On ch=1 n=a#2 v=0
160985 On ch=1 n=e3 v=48
160988 On ch=1 n=e2 v=48
161896 On ch=1 n=d#4 v=84
161923 On ch=1 n=e3 v=0
161923 On ch=1 n=e4 v=0
161926 On ch=1 n=e2 v=0
161926 On ch=1 n=d#3 v=52
161929 On ch=1 n=d#2 v=53
162163 Par ch=1 c=64 v=127
162164 On ch=1 n=d#2 v=0
162164 On ch=1 n=d#3 v=0
162164 On ch=1 n=d#4 v=0
162562 On ch=1 n=g4 v=51
162565 On ch=1 n=d#3 v=36
162636 On ch=1 n=d#3 v=0
162646 On ch=1 n=g4 v=0
162662 On ch=1 n=a#3 v=53
162662 On ch=1 n=c#5 v=36
162729 On ch=1 n=c#5 v=0
162750 On ch=1 n=a#3 v=0
162783 On ch=1 n=d#5 v=55
162783 On ch=1 n=d#4 v=37
162835 On ch=1 n=d#5 v=0
162850 On ch=1 n=d#4 v=0
162881 On ch=1 n=g5 v=57
162884 On ch=1 n=g4 v=39
162955 On ch=1 n=g5 v=0
162967 On ch=1 n=g4 v=0
163001 On ch=1 n=c#6 v=59
163004 On ch=1 n=a#4 v=40
163072 On ch=1 n=c#6 v=0
163118 On ch=1 n=a#4 v=0
163122 On ch=1 n=d#6 v=61
163122 On ch=1 n=c#5 v=42
163177 On ch=1 n=d#6 v=0
163194 On ch=1 n=c#5 v=0
163222 On ch=1 n=g6 v=63
163222 On ch=1 n=g5 v=44
163293 On ch=1 n=g6 v=0
163325 On ch=1 n=g5 v=0
163343 On ch=1 n=c#7 v=65
163343 On ch=1 n=a#5 v=45
163405 On ch=1 n=c#7 v=0
163420 On ch=1 n=a#5 v=0
163441 On ch=1 n=d#7 v=66
163444 On ch=1 n=c#6 v=47
163504 On ch=1 n=c#6 v=0
163504 On ch=1 n=d#7 v=0
163561 On ch=1 n=a#7 v=74
163564 On ch=1 n=g6 v=43
163638 On ch=1 n=g6 v=0
163682 On ch=1 n=c#6 v=45
163682 On ch=1 n=d#7 v=62
163738 On ch=1 n=a#7 v=0
163744 On ch=1 n=d#7 v=0
163751 On ch=1 n=c#6 v=0
163782 On ch=1 n=a#5 v=47
163782 On ch=1 n=c#7 v=64
163860 On ch=1 n=a#5 v=0
163878 On ch=1 n=c#7 v=0
163903 On ch=1 n=d#5 v=56
163903 On ch=1 n=g6 v=69
163961 On ch=1 n=g6 v=0
163961 On ch=1 n=d#5 v=0
164001 On ch=1 n=c#7 v=68
164004 On ch=1 n=a#5 v=50
164014 Par ch=1 c=64 v=0
164080 On ch=1 n=c#7 v=0
164084 On ch=1 n=a#5 v=0
164121 On ch=1 n=d#7 v=70
164124 On ch=1 n=c#6 v=51
164131 Par ch=1 c=64 v=127
164199 On ch=1 n=c#6 v=0
164223 On ch=1 n=d#7 v=0
164242 On ch=1 n=g#6 v=53
164242 On ch=1 n=c8 v=86
164341 On ch=1 n=g#6 v=0
164342 On ch=1 n=c#6 v=55
164342 On ch=1 n=d#7 v=74
164398 On ch=1 n=c8 v=0
164426 On ch=1 n=d#7 v=0
164454 On ch=1 n=c#6 v=0
164463 On ch=1 n=a#5 v=55
164463 On ch=1 n=c#7 v=76
164542 On ch=1 n=c#7 v=0
164547 On ch=1 n=a#5 v=0
164561 On ch=1 n=g#6 v=79
164564 On ch=1 n=d#5 v=62
164628 On ch=1 n=g#6 v=0
164663 On ch=1 n=d#5 v=0
164681 On ch=1 n=c#7 v=75
164684 On ch=1 n=a#5 v=54
164691 Par ch=1 c=64 v=0
164767 On ch=1 n=c#7 v=0
164782 On ch=1 n=a#5 v=0
164802 On ch=1 n=d#7 v=73
164804 On ch=1 n=c#6 v=53
164812 Par ch=1 c=64 v=127
164875 On ch=1 n=d#7 v=0
164880 On ch=1 n=c#6 v=0
164902 On ch=1 n=g6 v=52
164902 On ch=1 n=a#7 v=85
165009 On ch=1 n=g6 v=0
165023 On ch=1 n=c#6 v=51
165023 On ch=1 n=d#7 v=69
165066 On ch=1 n=a#7 v=0
165095 On ch=1 n=d#7 v=0
165105 On ch=1 n=c#6 v=0
165121 On ch=1 n=c#7 v=67
165124 On ch=1 n=a#5 v=49
165236 On ch=1 n=c#7 v=0
165238 On ch=1 n=a#5 v=0
165241 On ch=1 n=d#5 v=56
165241 On ch=1 n=g6 v=69
165310 On ch=1 n=d#5 v=0
165338 On ch=1 n=g6 v=0
165362 On ch=1 n=c#7 v=64
165364 On ch=1 n=a#5 v=47
165372 Par ch=1 c=64 v=0
165433 On ch=1 n=a#5 v=0
165444 On ch=1 n=c#7 v=0
165462 On ch=1 n=c#6 v=46
165462 On ch=1 n=d#7 v=62
165472 Par ch=1 c=64 v=127
165543 On ch=1 n=d#7 v=0
165551 On ch=1 n=c#6 v=0
165580 On ch=1 n=g#7 v=74
165583 On ch=1 n=f6 v=45
165645 On ch=1 n=f6 v=0
165681 On ch=1 n=d#7 v=58
165684 On ch=1 n=c#6 v=43
165732 On ch=1 n=g#7 v=0
165755 On ch=1 n=c#6 v=0
165778 On ch=1 n=d#7 v=0
165801 On ch=1 n=a#5 v=42
165801 On ch=1 n=c#7 v=57
165882 On ch=1 n=c#7 v=0
165885 On ch=1 n=a#5 v=0
165922 On ch=1 n=d#5 v=49
165922 On ch=1 n=f6 v=58
166001 On ch=1 n=f6 v=0
166010 On ch=1 n=d#5 v=0
166022 On ch=1 n=a#5 v=40
166022 On ch=1 n=a#5 v=40
166022 On ch=1 n=c#7 v=53
166032 Par ch=1 c=64 v=0
166105 On ch=1 n=a#5 v=0
166117 On ch=1 n=a#5 v=0
166118 On ch=1 n=c#7 v=0
166143 On ch=1 n=c#6 v=39
166143 On ch=1 n=d#7 v=51
166150 Par ch=1 c=64 v=127
166207 On ch=1 n=c#6 v=0
166222 On ch=1 n=d#7 v=0
166260 On ch=1 n=g7 v=63
166263 On ch=1 n=d#6 v=37
166349 On ch=1 n=d#6 v=0
166381 On ch=1 n=d#7 v=48
166384 On ch=1 n=c#6 v=36
166405 On ch=1 n=g7 v=0
166451 On ch=1 n=d#7 v=0
166482 On ch=1 n=c#6 v=0
166501 On ch=1 n=a#5 v=35
166501 On ch=1 n=c#7 v=46
166618 On ch=1 n=a#5 v=0
166626 On ch=1 n=c#7 v=0
166641 On ch=1 n=d#5 v=41
166641 On ch=1 n=d#6 v=47
166725 On ch=1 n=d#6 v=0
166735 On ch=1 n=d#5 v=0
166781 On ch=1 n=c#7 v=42
166784 On ch=1 n=a#5 v=33
166791 Par ch=1 c=64 v=0
166870 On ch=1 n=a#5 v=0
166904 On ch=1 n=c#7 v=0
166921 On ch=1 n=g#7 v=54
166924 On ch=1 n=c7 v=40
166927 On ch=1 n=g#4 v=44
166931 Par ch=1 c=64 v=127
167017 On ch=1 n=g#4 v=0
167024 On ch=1 n=d#5 v=44
167094 On ch=1 n=c6 v=44
167129 On ch=1 n=g#7 v=0
167138 On ch=1 n=c7 v=0
167145 On ch=1 n=d#5 v=0
167235 On ch=1 n=c6 v=0
167508 Par ch=1 c=64 v=0
167800 On ch=1 n=d#2 v=84
167810 Par ch=1 c=64 v=127
168080 On ch=1 n=d#2 v=0
168380 On ch=1 n=g4 v=60
168380 On ch=1 n=d#3 v=48
168491 On ch=1 n=d#3 v=0
168491 On ch=1 n=g4 v=0
168500 On ch=1 n=c#5 v=60
168500 On ch=1 n=a#3 v=48
168583 On ch=1 n=c#5 v=0
168591 On ch=1 n=a#3 v=0
168601 On ch=1 n=d#5 v=61
168601 On ch=1 n=c#4 v=48
168711 On ch=1 n=d#5 v=0
168722 On ch=1 n=g5 v=63
168722 On ch=1 n=g4 v=49
168725 On ch=1 n=c#4 v=0
168799 On ch=1 n=g5 v=0
168807 On ch=1 n=g4 v=0
168817 On ch=1 n=c#6 v=64
168819 On ch=1 n=a#4 v=50
168911 On ch=1 n=a#4 v=0
168927 On ch=1 n=c#6 v=0
168937 On ch=1 n=d#6 v=66
168940 On ch=1 n=c#5 v=51
169019 On ch=1 n=c#5 v=0
169057 On ch=1 n=g6 v=68
169057 On ch=1 n=g5 v=52
169071 On ch=1 n=d#6 v=0
169123 On ch=1 n=g5 v=0
169156 On ch=1 n=g6 v=0
169158 On ch=1 n=c#7 v=69
169161 On ch=1 n=a#5 v=52
169168 Par ch=1 c=64 v=0
169237 On ch=1 n=a#5 v=0
169265 On ch=1 n=c#7 v=0
169279 On ch=1 n=d#7 v=71
169279 On ch=1 n=c#6 v=53
169289 Par ch=1 c=64 v=127
169359 On ch=1 n=d#7 v=0
169360 On ch=1 n=c#6 v=0
169377 On ch=1 n=a#7 v=78
169379 On ch=1 n=g6 v=48
169497 On ch=1 n=d#7 v=68
169500 On ch=1 n=c#6 v=49
169504 On ch=1 n=g6 v=0
169587 On ch=1 n=a#7 v=0
169596 On ch=1 n=d#7 v=0
169598 On ch=1 n=c#6 v=0
169617 On ch=1 n=c#7 v=70
169617 On ch=1 n=a#5 v=50
169709 On ch=1 n=a#5 v=0
169714 On ch=1 n=c#7 v=0
169718 On ch=1 n=d#5 v=58
169718 On ch=1 n=f#6 v=71
169797 On ch=1 n=f#6 v=0
169824 On ch=1 n=d#5 v=0
169839 On ch=1 n=c#7 v=73
169839 On ch=1 n=a#5 v=51
169849 Par ch=1 c=64 v=0
169913 On ch=1 n=a#5 v=0
169931 On ch=1 n=c#7 v=0
169939 On ch=1 n=d#7 v=74
169939 On ch=1 n=c#6 v=52
169947 Par ch=1 c=64 v=127
170019 On ch=1 n=d#7 v=0
170021 On ch=1 n=c#6 v=0
170057 On ch=1 n=g6 v=53
170057 On ch=1 n=c8 v=88
170160 On ch=1 n=g6 v=0
170177 On ch=1 n=d#7 v=78
170177 On ch=1 n=c#6 v=54
170245 On ch=1 n=c#6 v=0
170264 On ch=1 n=c8 v=0
170274 On ch=1 n=d#7 v=0
170278 On ch=1 n=c#7 v=78
170278 On ch=1 n=a#5 v=54
170359 On ch=1 n=c#7 v=0
170369 On ch=1 n=a#5 v=0
170399 On ch=1 n=d#5 v=60
170399 On ch=1 n=g#6 v=77
170467 On ch=1 n=d#5 v=0
170468 On ch=1 n=g#6 v=0
170497 On ch=1 n=c#7 v=75
170499 On ch=1 n=a#5 v=52
170509 Par ch=1 c=64 v=0
170583 On ch=1 n=a#5 v=0
170611 On ch=1 n=c#7 v=0
170620 On ch=1 n=d#7 v=73
170620 On ch=1 n=c#6 v=51
170627 Par ch=1 c=64 v=127
170709 On ch=1 n=c#6 v=0
170721 On ch=1 n=d#7 v=0
170737 On ch=1 n=g6 v=50
170737 On ch=1 n=a#7 v=84
170808 On ch=1 n=g6 v=0
170838 On ch=1 n=d#7 v=70
170838 On ch=1 n=c#6 v=49
170920 On ch=1 n=d#7 v=0
170924 On ch=1 n=a#7 v=0
170959 On ch=1 n=c#7 v=68
170959 On ch=1 n=a#5 v=48
170976 On ch=1 n=c#6 v=0
171029 On ch=1 n=a#5 v=0
171050 On ch=1 n=c#7 v=0
171057 On ch=1 n=g6 v=66
171059 On ch=1 n=d#5 v=54
171139 On ch=1 n=g6 v=0
171146 On ch=1 n=d#5 v=0
171177 On ch=1 n=c#7 v=65
171180 On ch=1 n=a#5 v=45
171187 Par ch=1 c=64 v=0
171271 On ch=1 n=c#7 v=0
171297 On ch=1 n=d#7 v=63
171300 On ch=1 n=c#6 v=44
171307 Par ch=1 c=64 v=127
171310 On ch=1 n=a#5 v=0
171393 On ch=1 n=d#7 v=0
171395 On ch=1 n=c#6 v=0
171398 On ch=1 n=f6 v=43
171398 On ch=1 n=g#7 v=73
171490 On ch=1 n=f6 v=0
171519 On ch=1 n=d#7 v=60
171519 On ch=1 n=c#6 v=42
171605 On ch=1 n=g#7 v=0
171608 On ch=1 n=d#7 v=0
171617 On ch=1 n=c#7 v=58
171619 On ch=1 n=a#5 v=41
171630 On ch=1 n=c#6 v=0
171696 On ch=1 n=c#7 v=0
171717 On ch=1 n=a#5 v=0
171737 On ch=1 n=d#5 v=47
171737 On ch=1 n=f6 v=56
171819 On ch=1 n=d#5 v=0
171855 On ch=1 n=f6 v=0
171857 On ch=1 n=c#7 v=54
171860 On ch=1 n=a#5 v=38
171867 Par ch=1 c=64 v=0
171926 On ch=1 n=c#7 v=0
171952 On ch=1 n=a#5 v=0
171958 On ch=1 n=d#7 v=53
171958 On ch=1 n=c#6 v=37
171968 Par ch=1 c=64 v=127
172044 On ch=1 n=d#7 v=0
172076 On ch=1 n=g7 v=63
172079 On ch=1 n=d#6 v=36
172088 On ch=1 n=c#6 v=0
172176 On ch=1 n=d#6 v=0
172196 On ch=1 n=d#7 v=49
172199 On ch=1 n=c#6 v=35
172285 On ch=1 n=g7 v=0
172301 On ch=1 n=c#6 v=0
172304 On ch=1 n=d#7 v=0
172314 On ch=1 n=c#7 v=48
172316 On ch=1 n=a#5 v=34
172413 On ch=1 n=c#7 v=0
172427 On ch=1 n=a#5 v=0
172454 On ch=1 n=d#5 v=41
172454 On ch=1 n=d#6 v=46
172551 On ch=1 n=d#5 v=0
172574 On ch=1 n=c#7 v=44
172577 On ch=1 n=a#5 v=32
172583 On ch=1 n=d#6 v=0
172584 Par ch=1 c=64 v=0
172690 On ch=1 n=c#7 v=0
172694 On ch=1 n=a#5 v=0
172714 On ch=1 n=g#7 v=54
172717 On ch=1 n=b6 v=39
172720 On ch=1 n=g#4 v=44
172724 Par ch=1 c=64 v=127
172779 On ch=1 n=g#4 v=0
172810 On ch=1 n=d#5 v=44
172873 On ch=1 n=b6 v=0
172877 On ch=1 n=b5 v=44
172941 On ch=1 n=d#5 v=0
172999 On ch=1 n=b5 v=0
173000 On ch=1 n=g#7 v=0
173281 Par ch=1 c=64 v=0
173554 On ch=1 n=c#3 v=96
173554 On ch=1 n=c#2 v=96
173561 Par ch=1 c=64 v=127
173691 On ch=1 n=c#3 v=0
173694 On ch=1 n=c#2 v=0
174111 On ch=1 n=f4 v=60
174114 On ch=1 n=c#3 v=48
174219 On ch=1 n=f4 v=0
174221 On ch=1 n=c#3 v=0
174231 On ch=1 n=b4 v=60
174231 On ch=1 n=g#3 v=48
174308 On ch=1 n=b4 v=0
174317 On ch=1 n=g#3 v=0
174332 On ch=1 n=c#5 v=61
174332 On ch=1 n=c#4 v=48
174436 On ch=1 n=c#4 v=0
174445 On ch=1 n=c#5 v=0
174450 On ch=1 n=f5 v=62
174453 On ch=1 n=f4 v=49
174542 On ch=1 n=f4 v=0
174557 On ch=1 n=f5 v=0
174567 On ch=1 n=b5 v=64
174570 On ch=1 n=g#4 v=50
174650 On ch=1 n=b5 v=0
174665 On ch=1 n=g#4 v=0
174668 On ch=1 n=c#6 v=65
174668 On ch=1 n=c#5 v=50
174775 On ch=1 n=c#6 v=0
174781 On ch=1 n=c#5 v=0
174788 On ch=1 n=f6 v=66
174788 On ch=1 n=f5 v=51
174877 On ch=1 n=f6 v=0
174881 On ch=1 n=f5 v=0
174886 On ch=1 n=b6 v=68
174889 On ch=1 n=g#5 v=52
174899 Par ch=1 c=64 v=0
174989 On ch=1 n=b6 v=0
174990 On ch=1 n=g#5 v=0
175010 On ch=1 n=c#7 v=69
175010 On ch=1 n=b5 v=52
175017 Par ch=1 c=64 v=127
175112 On ch=1 n=c#7 v=0
175115 On ch=1 n=b5 v=0
175127 On ch=1 n=g#7 v=76
175127 On ch=1 n=f6 v=53
175218 On ch=1 n=f6 v=0
175228 On ch=1 n=c#7 v=72
175228 On ch=1 n=b5 v=54
175261 On ch=1 n=g#7 v=0
175325 On ch=1 n=c#7 v=0
175333 On ch=1 n=b5 v=0
175348 On ch=1 n=b6 v=73
175348 On ch=1 n=g#5 v=55
175426 On ch=1 n=g#5 v=0
175440 On ch=1 n=b6 v=0
175446 On ch=1 n=f6 v=74
175449 On ch=1 n=c#5 v=55
175550 On ch=1 n=f6 v=0
175559 On ch=1 n=c#5 v=0
175567 On ch=1 n=b6 v=76
175570 On ch=1 n=g#5 v=56
175577 Par ch=1 c=64 v=0
175673 On ch=1 n=b6 v=0
175681 On ch=1 n=g#5 v=0
175690 On ch=1 n=c#7 v=77
175690 On ch=1 n=b5 v=57
175697 Par ch=1 c=64 v=127
175760 On ch=1 n=c#7 v=0
175780 On ch=1 n=b5 v=0
175788 On ch=1 n=a#7 v=84
175788 On ch=1 n=f#6 v=57
175898 On ch=1 n=f#6 v=0
175908 On ch=1 n=c#7 v=80
175908 On ch=1 n=b5 v=58
175963 On ch=1 n=a#7 v=0
175999 On ch=1 n=b5 v=0
176000 On ch=1 n=c#7 v=0
176006 On ch=1 n=b6 v=81
176009 On ch=1 n=g#5 v=59
176110 On ch=1 n=g#5 v=0
176112 On ch=1 n=b6 v=0
176127 On ch=1 n=f#6 v=82
176130 On ch=1 n=c#5 v=60
176219 On ch=1 n=c#5 v=0
176243 On ch=1 n=f#6 v=0
176247 On ch=1 n=b6 v=84
176250 On ch=1 n=g#5 v=60
176257 Par ch=1 c=64 v=0
176328 On ch=1 n=g#5 v=0
176343 On ch=1 n=b6 v=0
176348 On ch=1 n=c#7 v=84
176351 On ch=1 n=b5 v=60
176358 Par ch=1 c=64 v=127
176447 On ch=1 n=c#7 v=0
176465 On ch=1 n=b5 v=0
176468 On ch=1 n=g#7 v=84
176468 On ch=1 n=f6 v=58
176553 On ch=1 n=f6 v=0
176563 On ch=1 n=c#7 v=72
176563 On ch=1 n=b5 v=56
176608 On ch=1 n=g#7 v=0
176669 On ch=1 n=c#7 v=0
176672 On ch=1 n=b5 v=0
176684 On ch=1 n=b6 v=66
176687 On ch=1 n=g#5 v=53
176787 On ch=1 n=b6 v=0
176795 On ch=1 n=g#5 v=0
176804 On ch=1 n=f6 v=60
176804 On ch=1 n=c#5 v=51
176877 On ch=1 n=f6 v=0
176886 On ch=1 n=c#5 v=0
176905 On ch=1 n=g#5 v=48
176905 On ch=1 n=b6 v=60
176905 On ch=1 n=g#5 v=48
176915 Par ch=1 c=64 v=0
176993 On ch=1 n=b6 v=0
177002 On ch=1 n=g#5 v=0
177005 On ch=1 n=g#5 v=0
177025 On ch=1 n=c#7 v=72
177025 On ch=1 n=b5 v=60
177035 Par ch=1 c=64 v=127
177106 On ch=1 n=c#7 v=0
177107 On ch=1 n=b5 v=0
177123 On ch=1 n=f#7 v=78
177126 On ch=1 n=d#6 v=60
177235 On ch=1 n=d#6 v=0
177244 On ch=1 n=c#7 v=70
177244 On ch=1 n=b5 v=58
177255 On ch=1 n=f#7 v=0
177342 On ch=1 n=b5 v=0
177356 On ch=1 n=c#7 v=0
177364 On ch=1 n=b6 v=68
177364 On ch=1 n=g#5 v=56
177446 On ch=1 n=g#5 v=0
177456 On ch=1 n=b6 v=0
177465 On ch=1 n=d#6 v=66
177465 On ch=1 n=c#5 v=54
177565 On ch=1 n=d#6 v=0
177567 On ch=1 n=c#5 v=0
177585 On ch=1 n=g#5 v=52
177585 On ch=1 n=b6 v=64
177585 On ch=1 n=g#5 v=52
177595 Par ch=1 c=64 v=0
177685 On ch=1 n=g#5 v=0
177695 On ch=1 n=g#5 v=0
177709 On ch=1 n=b6 v=0
177725 On ch=1 n=c#7 v=62
177725 On ch=1 n=b5 v=50
177735 Par ch=1 c=64 v=127
177832 On ch=1 n=c#7 v=0
177837 On ch=1 n=b5 v=0
177843 On ch=1 n=f7 v=65
177846 On ch=1 n=c#6 v=47
177936 On ch=1 n=c#6 v=0
177963 On ch=1 n=c#7 v=57
177966 On ch=1 n=b5 v=45
177997 On ch=1 n=f7 v=0
178071 On ch=1 n=c#7 v=0
178078 On ch=1 n=b5 v=0
178103 On ch=1 n=b6 v=55
178106 On ch=1 n=g#5 v=43
178206 On ch=1 n=b6 v=0
178240 On ch=1 n=g#5 v=0
178243 On ch=1 n=c#6 v=53
178246 On ch=1 n=c#5 v=41
178367 On ch=1 n=c#6 v=0
178394 On ch=1 n=c#5 v=0
178403 On ch=1 n=b6 v=51
178406 On ch=1 n=g#5 v=39
178416 Par ch=1 c=64 v=0
178508 On ch=1 n=b6 v=0
178516 On ch=1 n=g#5 v=0
178546 On ch=1 n=f#7 v=54
178549 On ch=1 n=f#4 v=36
178553 Par ch=1 c=64 v=127
178589 On ch=1 n=c#5 v=36
178589 On ch=1 n=a#5 v=36
178596 On ch=1 n=a#6 v=48
178676 On ch=1 n=c#5 v=0
178766 On ch=1 n=a#6 v=0
178791 On ch=1 n=f#7 v=0
178796 On ch=1 n=a#5 v=0
178797 On ch=1 n=f#4 v=0
179172 Par ch=1 c=64 v=0
179461 On ch=1 n=c#2 v=84
179471 Par ch=1 c=64 v=127
179621 On ch=1 n=c#2 v=0
180083 On ch=1 n=f4 v=60
180083 On ch=1 n=c#3 v=48
180184 On ch=1 n=b4 v=60
180184 On ch=1 n=g#3 v=48
180190 On ch=1 n=f4 v=0
180194 On ch=1 n=c#3 v=0
180304 On ch=1 n=c#5 v=62
180304 On ch=1 n=c#4 v=50
180310 On ch=1 n=g#3 v=0
180310 On ch=1 n=b4 v=0
180425 On ch=1 n=f5 v=64
180425 On ch=1 n=f4 v=52
180431 On ch=1 n=c#5 v=0
180432 On ch=1 n=c#4 v=0
180523 On ch=1 n=b5 v=66
180525 On ch=1 n=g#4 v=54
180532 On ch=1 n=f5 v=0
180533 On ch=1 n=f4 v=0
180643 On ch=1 n=c#6 v=68
180646 On ch=1 n=c#5 v=56
180653 On ch=1 n=g#4 v=0
180653 On ch=1 n=b5 v=0
180728 On ch=1 n=c#6 v=0
180730 On ch=1 n=c#5 v=0
180744 On ch=1 n=f6 v=70
180744 On ch=1 n=f5 v=58
180841 On ch=1 n=f6 v=0
180842 On ch=1 n=f5 v=0
180864 On ch=1 n=b6 v=72
180867 On ch=1 n=g#5 v=61
180874 Par ch=1 c=64 v=0
180961 On ch=1 n=b6 v=0
180969 On ch=1 n=g#5 v=0
180985 On ch=1 n=c#7 v=74
180985 On ch=1 n=b5 v=63
180995 Par ch=1 c=64 v=127
181060 On ch=1 n=c#7 v=0
181070 On ch=1 n=b5 v=0
181080 On ch=1 n=g#7 v=87
181082 On ch=1 n=f6 v=59
181198 On ch=1 n=f6 v=0
181199 On ch=1 n=g#7 v=0
181200 On ch=1 n=c#7 v=72
181203 On ch=1 n=b5 v=61
181293 On ch=1 n=b5 v=0
181295 On ch=1 n=c#7 v=0
181301 On ch=1 n=b6 v=74
181301 On ch=1 n=g#5 v=63
181390 On ch=1 n=b6 v=0
181404 On ch=1 n=g#5 v=0
181421 On ch=1 n=f6 v=76
181421 On ch=1 n=c#5 v=78
181510 On ch=1 n=c#5 v=0
181511 On ch=1 n=f6 v=0
181542 On ch=1 n=b6 v=78
181542 On ch=1 n=g#5 v=66
181552 Par ch=1 c=64 v=0
181615 On ch=1 n=g#5 v=0
181636 On ch=1 n=b6 v=0
181642 On ch=1 n=c#7 v=78
181642 On ch=1 n=b5 v=66
181650 Par ch=1 c=64 v=127
181759 On ch=1 n=b5 v=0
181760 On ch=1 n=c#7 v=0
181760 On ch=1 n=a#7 v=95
181763 On ch=1 n=f#6 v=66
181843 On ch=1 n=f#6 v=0
181861 On ch=1 n=c#7 v=77
181861 On ch=1 n=b5 v=65
181871 On ch=1 n=a#7 v=0
181948 On ch=1 n=c#7 v=0
181969 On ch=1 n=b5 v=0
181978 On ch=1 n=b6 v=76
181978 On ch=1 n=g#5 v=64
182072 On ch=1 n=g#5 v=0
182080 On ch=1 n=b6 v=0
182099 On ch=1 n=c#5 v=69
182099 On ch=1 n=f#6 v=75
182187 On ch=1 n=f#6 v=0
182190 On ch=1 n=c#5 v=0
182197 On ch=1 n=b6 v=74
182199 On ch=1 n=g#5 v=62
182209 Par ch=1 c=64 v=0
182315 On ch=1 n=g#5 v=0
182317 On ch=1 n=b6 v=0
182317 On ch=1 n=c#7 v=73
182320 On ch=1 n=b5 v=61
182327 Par ch=1 c=64 v=127
182405 On ch=1 n=b5 v=0
182408 On ch=1 n=c#7 v=0
182418 On ch=1 n=f6 v=60
182418 On ch=1 n=g#7 v=89
182518 On ch=1 n=f6 v=0
182538 On ch=1 n=c#7 v=71
182538 On ch=1 n=b5 v=59
182560 On ch=1 n=g#7 v=0
182642 On ch=1 n=c#7 v=0
182649 On ch=1 n=b5 v=0
182659 On ch=1 n=b6 v=71
182659 On ch=1 n=g#5 v=59
182734 On ch=1 n=b6 v=0
182746 On ch=1 n=g#5 v=0
182757 On ch=1 n=f6 v=70
182759 On ch=1 n=c#5 v=63
182844 On ch=1 n=f6 v=0
182854 On ch=1 n=c#5 v=0
182874 On ch=1 n=b6 v=69
182877 On ch=1 n=g5 v=57
182884 Par ch=1 c=64 v=0
182948 On ch=1 n=b6 v=0
182955 On ch=1 n=g5 v=0
182975 On ch=1 n=c7 v=68
182978 On ch=1 n=a#5 v=56
182985 Par ch=1 c=64 v=127
183064 On ch=1 n=a#5 v=0
183074 On ch=1 n=c7 v=0
183092 On ch=1 n=e6 v=55
183092 On ch=1 n=g7 v=85
183184 On ch=1 n=e6 v=0
183210 On ch=1 n=c7 v=66
183213 On ch=1 n=a#5 v=54
183240 On ch=1 n=g7 v=0
183291 On ch=1 n=a#5 v=0
183293 On ch=1 n=c7 v=0
183311 On ch=1 n=a#6 v=65
183313 On ch=1 n=g5 v=53
183413 On ch=1 n=a#6 v=0
183423 On ch=1 n=g5 v=0
183428 On ch=1 n=c5 v=58
183428 On ch=1 n=e6 v=64
183513 On ch=1 n=c5 v=0
183520 On ch=1 n=e6 v=0
183529 On ch=1 n=a#6 v=64
183532 On ch=1 n=f#5 v=52
183539 Par ch=1 c=64 v=0
183630 On ch=1 n=f#5 v=0
183636 On ch=1 n=a#6 v=0
183646 On ch=1 n=b6 v=63
183646 On ch=1 n=a5 v=51
183656 Par ch=1 c=64 v=127
183720 On ch=1 n=a5 v=0
183721 On ch=1 n=b6 v=0
183744 On ch=1 n=f#7 v=80
183747 On ch=1 n=d#6 v=50
183853 On ch=1 n=d#6 v=0
183865 On ch=1 n=b6 v=61
183867 On ch=1 n=a5 v=49
183882 On ch=1 n=f#7 v=0
183967 On ch=1 n=b6 v=0
183982 On ch=1 n=a5 v=0
183985 On ch=1 n=a6 v=60
183985 On ch=1 n=f#5 v=48
184062 On ch=1 n=f#5 v=0
184077 On ch=1 n=a6 v=0
184086 On ch=1 n=b4 v=53
184086 On ch=1 n=d#6 v=59
184185 On ch=1 n=d#6 v=0
184197 On ch=1 n=b4 v=0
184206 On ch=1 n=a6 v=58
184206 On ch=1 n=f5 v=46
184216 Par ch=1 c=64 v=0
184288 On ch=1 n=f5 v=0
184288 On ch=1 n=a6 v=0
184307 On ch=1 n=a#6 v=57
184307 On ch=1 n=g#5 v=45
184314 Par ch=1 c=64 v=127
184409 On ch=1 n=a#6 v=0
184419 On ch=1 n=g#5 v=0
184425 On ch=1 n=f7 v=74
184427 On ch=1 n=d6 v=45
184526 On ch=1 n=d6 v=0
184545 On ch=1 n=a#6 v=56
184545 On ch=1 n=g#5 v=44
184569 On ch=1 n=f7 v=0
184630 On ch=1 n=g#5 v=0
184632 On ch=1 n=a#6 v=0
184646 On ch=1 n=g#6 v=55
184646 On ch=1 n=f5 v=43
184734 On ch=1 n=f5 v=0
184754 On ch=1 n=g#6 v=0
184766 On ch=1 n=a#4 v=53
184766 On ch=1 n=d6 v=54
184861 On ch=1 n=d6 v=0
184861 On ch=1 n=a#4 v=0
184864 On ch=1 n=g#6 v=53
184867 On ch=1 n=e5 v=41
184877 Par ch=1 c=64 v=0
184956 On ch=1 n=g#6 v=0
184975 On ch=1 n=e5 v=0
184985 On ch=1 n=a6 v=52
184987 On ch=1 n=g5 v=40
184995 Par ch=1 c=64 v=127
185080 On ch=1 n=g5 v=0
185080 On ch=1 n=a6 v=0
185105 On ch=1 n=c#6 v=39
185105 On ch=1 n=e7 v=74
185184 On ch=1 n=c#6 v=0
185206 On ch=1 n=a6 v=50
185206 On ch=1 n=g5 v=38
185208 On ch=1 n=e7 v=0
185317 On ch=1 n=a6 v=0
185320 On ch=1 n=g5 v=0
185323 On ch=1 n=g6 v=50
185326 On ch=1 n=e5 v=38
185416 On ch=1 n=g6 v=0
185418 On ch=1 n=e5 v=0
185424 On ch=1 n=c#6 v=49
185427 On ch=1 n=a4 v=48
185527 On ch=1 n=c#6 v=0
185544 On ch=1 n=a4 v=0
185545 On ch=1 n=g6 v=48
185547 On ch=1 n=d#5 v=36
185555 Par ch=1 c=64 v=0
185633 On ch=1 n=g6 v=0
185656 On ch=1 n=d#5 v=0
185665 On ch=1 n=g#6 v=47
185668 On ch=1 n=f#5 v=35
185675 Par ch=1 c=64 v=127
185742 On ch=1 n=f#5 v=0
185754 On ch=1 n=g#6 v=0
185766 On ch=1 n=c6 v=34
185766 On ch=1 n=d#7 v=70
185863 On ch=1 n=c6 v=0
185883 On ch=1 n=g#6 v=45
185886 On ch=1 n=f#5 v=33
185903 On ch=1 n=d#7 v=0
185969 On ch=1 n=g#6 v=0
185972 On ch=1 n=f#5 v=0
185984 On ch=1 n=f#6 v=44
185987 On ch=1 n=d#5 v=32
186096 On ch=1 n=f#6 v=0
186098 On ch=1 n=d#5 v=0
186105 On ch=1 n=g#4 v=42
186105 On ch=1 n=c6 v=43
186198 On ch=1 n=c6 v=0
186205 On ch=1 n=g#4 v=0
186225 On ch=1 n=f#6 v=42
186225 On ch=1 n=d#5 v=30
186302 On ch=1 n=f#6 v=0
186321 On ch=1 n=d#5 v=0
186326 On ch=1 n=g#6 v=42
186326 On ch=1 n=f#5 v=30
186418 On ch=1 n=g#6 v=0
186427 On ch=1 n=f#5 v=0
186443 On ch=1 n=d#7 v=66
186446 On ch=1 n=c6 v=32
186540 On ch=1 n=c6 v=0
186564 On ch=1 n=g#6 v=46
186567 On ch=1 n=f#5 v=34
186589 On ch=1 n=d#7 v=0
186643 On ch=1 n=g#6 v=0
186663 On ch=1 n=f#5 v=0
186665 On ch=1 n=f#6 v=48
186665 On ch=1 n=d#5 v=36
186757 On ch=1 n=d#5 v=0
186759 On ch=1 n=f#6 v=0
186785 On ch=1 n=g#4 v=49
186785 On ch=1 n=c6 v=50
186874 On ch=1 n=c6 v=0
186897 On ch=1 n=g#4 v=0
186905 On ch=1 n=f#6 v=52
186905 On ch=1 n=d#5 v=40
187002 On ch=1 n=f#6 v=0
187004 On ch=1 n=d#5 v=0
187026 On ch=1 n=g#6 v=55
187026 On ch=1 n=f#5 v=42
187134 On ch=1 n=f#5 v=0
187137 On ch=1 n=g#6 v=0
187143 On ch=1 n=d#7 v=74
187146 On ch=1 n=c6 v=44
187233 On ch=1 n=c6 v=0
187264 On ch=1 n=g#6 v=59
187267 On ch=1 n=f#5 v=46
187276 On ch=1 n=d#7 v=0
187370 On ch=1 n=f#5 v=0
187380 On ch=1 n=g#6 v=0
187401 On ch=1 n=f#6 v=61
187404 On ch=1 n=d#5 v=48
187495 On ch=1 n=f#6 v=0
187506 On ch=1 n=d#5 v=0
187521 On ch=1 n=g#4 v=55
187521 On ch=1 n=c6 v=63
187625 On ch=1 n=c6 v=0
187631 On ch=1 n=g#4 v=0
187642 On ch=1 n=f#6 v=66
187642 On ch=1 n=d#5 v=52
187789 On ch=1 n=f#6 v=0
187791 On ch=1 n=d#5 v=0
187802 On ch=1 n=g#4 v=59
187802 On ch=1 n=c6 v=60
187928 On ch=1 n=c6 v=0
187949 On ch=1 n=f#6 v=66
187959 Par ch=1 c=64 v=0
187988 On ch=1 n=g#4 v=0
188069 On ch=1 n=g#6 v=73
188077 Par ch=1 c=64 v=127
188091 On ch=1 n=f#6 v=0
188187 On ch=1 n=c7 v=80
188215 On ch=1 n=g#6 v=0
188307 On ch=1 n=f#7 v=80
188345 On ch=1 n=c7 v=0
188408 On ch=1 n=g#7 v=84
188425 On ch=1 n=f#7 v=0
188506 On ch=1 n=f8 v=84
188509 On ch=1 n=g#2 v=108
188513 On ch=1 n=g#7 v=0
188627 On ch=1 n=d#8 v=84
188650 On ch=1 n=f8 v=0
188727 On ch=1 n=c#8 v=83
188772 On ch=1 n=d#8 v=0
188848 On ch=1 n=c8 v=82
188852 On ch=1 n=g#2 v=0
188874 On ch=1 n=c#8 v=0
188968 On ch=1 n=a#7 v=81
189000 On ch=1 n=c8 v=0
189066 On ch=1 n=a7 v=80
189110 On ch=1 n=a#7 v=0
189187 On ch=1 n=a#7 v=79
189189 On ch=1 n=d#4 v=67
189209 On ch=1 n=c5 v=72
189214 On ch=1 n=a7 v=0
189287 On ch=1 n=g#7 v=78
189329 On ch=1 n=a#7 v=0
189408 On ch=1 n=f#7 v=77
189445 On ch=1 n=g#7 v=0
189528 On ch=1 n=f7 v=77
189581 On ch=1 n=f#7 v=0
189626 On ch=1 n=d#7 v=76
189634 On ch=1 n=f7 v=0
189700 On ch=1 n=d#4 v=0
189720 On ch=1 n=c5 v=0
189747 On ch=1 n=d7 v=75
189801 On ch=1 n=d#7 v=0
189847 On ch=1 n=f7 v=74
189865 On ch=1 n=d7 v=0
189867 On ch=1 n=c5 v=61
189907 On ch=1 n=f#5 v=66
189968 On ch=1 n=d#7 v=73
190008 On ch=1 n=f7 v=0
190088 On ch=1 n=c#7 v=72
190135 On ch=1 n=d#7 v=0
190186 On ch=1 n=c7 v=71
190194 On ch=1 n=c#7 v=0
190307 On ch=1 n=a#6 v=70
190341 On ch=1 n=c7 v=0
190383 On ch=1 n=f#5 v=0
190407 On ch=1 n=a6 v=70
190412 On ch=1 n=c5 v=0
190417 Par ch=1 c=64 v=0
190448 On ch=1 n=a#6 v=0
190523 On ch=1 n=f#5 v=55
190531 On ch=1 n=a#6 v=69
190537 On ch=1 n=a6 v=0
190538 Par ch=1 c=64 v=127
190561 On ch=1 n=d#6 v=60
190648 On ch=1 n=g#6 v=68
190675 On ch=1 n=a#6 v=0
190749 On ch=1 n=f#6 v=67
190764 On ch=1 n=g#6 v=0
190772 On ch=1 n=f#5 v=0
190776 On ch=1 n=d#6 v=0
190867 On ch=1 n=f6 v=66
190928 On ch=1 n=f#6 v=0
190967 On ch=1 n=d#6 v=65
191002 On ch=1 n=f6 v=0
191088 On ch=1 n=d6 v=64
191127 On ch=1 n=d#6 v=0
191208 On ch=1 n=f6 v=63
191279 On ch=1 n=d6 v=0
191306 On ch=1 n=d#6 v=63
191340 On ch=1 n=f6 v=0
191427 On ch=1 n=c#6 v=62
191445 On ch=1 n=d#6 v=0
191527 On ch=1 n=c6 v=61
191588 On ch=1 n=c#6 v=0
191648 On ch=1 n=a#5 v=60
191675 On ch=1 n=c6 v=0
191765 On ch=1 n=a5 v=59
191812 On ch=1 n=a#5 v=0
191866 On ch=1 n=a#5 v=58
191927 On ch=1 n=a5 v=0
191987 On ch=1 n=g#5 v=57
192047 On ch=1 n=a#5 v=0
192087 On ch=1 n=f#5 v=56
192105 On ch=1 n=g#5 v=0
192208 On ch=1 n=f5 v=56
192230 On ch=1 n=f#5 v=0
192325 On ch=1 n=d#5 v=55
192342 On ch=1 n=f5 v=0
192426 On ch=1 n=d5 v=54
192445 On ch=1 n=d#5 v=0
192547 On ch=1 n=f5 v=53
192584 On ch=1 n=d5 v=0
192647 On ch=1 n=d#5 v=52
192702 On ch=1 n=f5 v=0
192768 On ch=1 n=c#5 v=51
192782 On ch=1 n=d#5 v=0
192885 On ch=1 n=c5 v=50
192935 On ch=1 n=c#5 v=0
192986 On ch=1 n=a#4 v=49
193048 On ch=1 n=c5 v=0
193107 On ch=1 n=a4 v=48
193174 On ch=1 n=a#4 v=0
193207 On ch=1 n=g#4 v=72
193257 On ch=1 n=a4 v=0
193337 Par ch=1 c=64 v=0
194015 On ch=1 n=f4 v=55
194047 Par ch=1 c=64 v=127
194047 On ch=1 n=c#4 v=44
194047 On ch=1 n=c#3 v=48
194067 On ch=1 n=g#3 v=37
194719 On ch=1 n=c#3 v=0
194719 On ch=1 n=c#4 v=0
194739 On ch=1 n=g#3 v=0
194885 On ch=1 n=g#4 v=0
194894 On ch=1 n=c#5 v=58
194904 On ch=1 n=c#4 v=38
194904 On ch=1 n=a#2 v=50
194924 On ch=1 n=a#3 v=46
194974 Par ch=1 c=64 v=0
195372 Par ch=1 c=64 v=127
195442 On ch=1 n=f4 v=0
195594 On ch=1 n=a#2 v=0
195609 On ch=1 n=c#5 v=0
195612 On ch=1 n=a#3 v=0
195652 On ch=1 n=c#4 v=0
195756 On ch=1 n=d#5 v=80
195766 On ch=1 n=g#4 v=52
195769 On ch=1 n=g#2 v=64
195786 On ch=1 n=c5 v=60
195789 On ch=1 n=g#3 v=60
195836 On ch=1 n=d#4 v=53
195859 Par ch=1 c=64 v=0
196257 Par ch=1 c=64 v=127
196452 On ch=1 n=g#2 v=0
196456 On ch=1 n=d#5 v=0
196472 On ch=1 n=g#3 v=0
196487 On ch=1 n=c5 v=0
196538 On ch=1 n=d#4 v=0
196616 On ch=1 n=f5 v=91
196626 On ch=1 n=c#5 v=73
196629 On ch=1 n=c#2 v=72
196649 On ch=1 n=c#3 v=72
196660 On ch=1 n=g#4 v=0
196683 Par ch=1 c=64 v=0
196709 On ch=1 n=f4 v=61
196803 Par ch=1 c=64 v=127
196854 On ch=1 n=c#5 v=0
196857 On ch=1 n=c#2 v=0
196877 On ch=1 n=c#3 v=0
196878 On ch=1 n=f5 v=0
196934 On ch=1 n=f4 v=0
197084 On ch=1 n=a#7 v=60
197084 On ch=1 n=c#7 v=48
197179 On ch=1 n=a#7 v=0
197181 On ch=1 n=c#7 v=0
197205 On ch=1 n=f7 v=60
197208 On ch=1 n=f6 v=48
197281 On ch=1 n=f7 v=0
197306 On ch=1 n=f6 v=0
197306 On ch=1 n=g#7 v=60
197306 On ch=1 n=g#6 v=48
197401 On ch=1 n=g#6 v=0
197415 On ch=1 n=g#7 v=0
197426 On ch=1 n=c#7 v=59
197426 On ch=1 n=c#6 v=47
197517 On ch=1 n=c#6 v=0
197520 On ch=1 n=c#7 v=0
197546 On ch=1 n=f#7 v=59
197546 On ch=1 n=g#6 v=47
197638 On ch=1 n=g#6 v=0
197644 On ch=1 n=c#7 v=58
197645 On ch=1 n=f#7 v=0
197647 On ch=1 n=c#6 v=46
197745 On ch=1 n=c#6 v=0
197755 On ch=1 n=c#7 v=0
197762 On ch=1 n=f7 v=58
197765 On ch=1 n=f6 v=46
197850 On ch=1 n=f6 v=0
197856 On ch=1 n=f7 v=0
197863 On ch=1 n=g#6 v=57
197863 On ch=1 n=g#5 v=45
197958 On ch=1 n=g#6 v=0
197963 On ch=1 n=g#5 v=0
197983 On ch=1 n=d#7 v=56
197983 On ch=1 n=f6 v=44
198081 On ch=1 n=f6 v=0
198098 On ch=1 n=d#7 v=0
198103 On ch=1 n=g#6 v=56
198103 On ch=1 n=g#5 v=44
198199 On ch=1 n=g#5 v=0
198201 On ch=1 n=g#6 v=0
198201 On ch=1 n=c#7 v=55
198204 On ch=1 n=c#6 v=43
198295 On ch=1 n=c#7 v=0
198300 On ch=1 n=c#6 v=0
198322 On ch=1 n=f6 v=55
198325 On ch=1 n=f5 v=43
198398 On ch=1 n=f5 v=0
198407 On ch=1 n=f6 v=0
198423 On ch=1 n=a#6 v=54
198423 On ch=1 n=c#6 v=42
198526 On ch=1 n=a#6 v=0
198537 On ch=1 n=c#6 v=0
198543 On ch=1 n=f6 v=54
198543 On ch=1 n=f5 v=42
198635 On ch=1 n=f6 v=0
198652 On ch=1 n=f5 v=0
198663 On ch=1 n=g#6 v=53
198663 On ch=1 n=g#5 v=41
198746 On ch=1 n=g#5 v=0
198746 On ch=1 n=g#6 v=0
198761 On ch=1 n=c#6 v=52
198764 On ch=1 n=c#5 v=40
198865 On ch=1 n=c#5 v=0
198869 On ch=1 n=c#6 v=0
198879 On ch=1 n=f#6 v=52
198882 On ch=1 n=g#5 v=40
198983 On ch=1 n=f#6 v=0
198984 On ch=1 n=g#5 v=0
198999 On ch=1 n=c#6 v=51
198999 On ch=1 n=c#5 v=39
199097 On ch=1 n=c#5 v=0
199107 On ch=1 n=c#6 v=0
199117 On ch=1 n=f6 v=51
199117 On ch=1 n=f5 v=39
199218 On ch=1 n=f5 v=0
199220 On ch=1 n=f6 v=0
199237 On ch=1 n=g#5 v=50
199237 On ch=1 n=g#4 v=38
199325 On ch=1 n=g#5 v=0
199328 On ch=1 n=g#4 v=0
199357 On ch=1 n=d#6 v=50
199357 On ch=1 n=f5 v=38
199461 On ch=1 n=f5 v=0
199473 On ch=1 n=d#6 v=0
199497 On ch=1 n=g#5 v=49
199497 On ch=1 n=g#4 v=37
199611 On ch=1 n=g#5 v=0
199616 On ch=1 n=g#4 v=0
199637 On ch=1 n=c#6 v=48
199647 On ch=1 n=c#4 v=36
199667 On ch=1 n=f5 v=40
199824 On ch=1 n=f5 v=0
199828 On ch=1 n=c#6 v=0
199850 On ch=1 n=c#4 v=0
200195 Par ch=1 c=64 v=0
200455 On ch=1 n=f5 v=79
200480 On ch=1 n=c#3 v=60
200505 On ch=1 n=c#5 v=56
200517 On ch=1 n=c#4 v=51
200527 On ch=1 n=f4 v=43
200537 On ch=1 n=g#3 v=44
200544 On ch=1 n=b4 v=56
200652 Par ch=1 c=64 v=127
201108 On ch=1 n=f5 v=0
201158 On ch=1 n=c#5 v=0
201168 On ch=1 n=f4 v=0
201171 On ch=1 n=c#4 v=0
201191 On ch=1 n=g#3 v=0
201198 On ch=1 n=b4 v=0
201199 On ch=1 n=c#3 v=0
201311 On ch=1 n=f5 v=78
201327 On ch=1 n=f#3 v=66
201334 On ch=1 n=f#4 v=50
201334 On ch=1 n=a#4 v=49
201354 On ch=1 n=c#4 v=57
201361 On ch=1 n=c#5 v=56
201414 Par ch=1 c=64 v=0
201812 Par ch=1 c=64 v=127
201983 On ch=1 n=f#3 v=0
201988 On ch=1 n=a#4 v=0
201990 On ch=1 n=f#4 v=0
201992 On ch=1 n=f5 v=0
202018 On ch=1 n=c#5 v=0
202054 On ch=1 n=c#4 v=0
202131 On ch=1 n=g#5 v=86
202154 On ch=1 n=d#3 v=67
202174 On ch=1 n=d#4 v=52
202174 On ch=1 n=a#4 v=62
202191 On ch=1 n=c#5 v=63
202194 Par ch=1 c=64 v=0
202402 Par ch=1 c=64 v=127
202510 On ch=1 n=a#4 v=0
202510 On ch=1 n=d#4 v=0
202518 On ch=1 n=d#3 v=0
202521 On ch=1 n=g#5 v=0
202527 On ch=1 n=c#5 v=0
202591 On ch=1 n=f#5 v=85
202601 On ch=1 n=d#4 v=52
202611 On ch=1 n=a#4 v=63
202618 On ch=1 n=c#5 v=63
202621 On ch=1 n=d#3 v=67
202683 On ch=1 n=d#4 v=0
202688 On ch=1 n=d#3 v=0
202710 On ch=1 n=c#5 v=0
202722 On ch=1 n=a#4 v=0
202728 On ch=1 n=f5 v=82
202733 On ch=1 n=f#5 v=0
202751 On ch=1 n=d#4 v=48
202751 On ch=1 n=d#3 v=63
202778 On ch=1 n=c#5 v=58
202781 On ch=1 n=f#4 v=58
203023 On ch=1 n=d#4 v=0
203033 On ch=1 n=d#5 v=73
203044 On ch=1 n=d#3 v=0
203046 On ch=1 n=f5 v=0
203056 On ch=1 n=d#4 v=40
203056 On ch=1 n=c5 v=51
203059 On ch=1 n=g#3 v=55
203068 On ch=1 n=c#5 v=0
203071 On ch=1 n=f#4 v=0
203198 Par ch=1 c=64 v=0
203281 On ch=1 n=c5 v=0
203289 On ch=1 n=d#5 v=0
203333 Par ch=1 c=64 v=127
203358 On ch=1 n=d#4 v=0
203360 On ch=1 n=g#3 v=0
203507 On ch=1 n=f8 v=60
203507 On ch=1 n=g#7 v=48
203595 On ch=1 n=f8 v=0
203606 On ch=1 n=g#7 v=0
203608 On ch=1 n=c8 v=60
203608 On ch=1 n=c7 v=48
203699 On ch=1 n=c7 v=0
203709 On ch=1 n=c8 v=0
203726 On ch=1 n=d#8 v=60
203726 On ch=1 n=d#7 v=48
203821 On ch=1 n=d#7 v=0
203822 On ch=1 n=d#8 v=0
203843 On ch=1 n=g#7 v=59
203846 On ch=1 n=g#6 v=47
203937 On ch=1 n=g#7 v=0
203944 On ch=1 n=c#8 v=59
203945 On ch=1 n=g#6 v=0
203947 On ch=1 n=d#7 v=47
204036 On ch=1 n=d#7 v=0
204054 On ch=1 n=c#8 v=0
204064 On ch=1 n=g#7 v=58
204064 On ch=1 n=g#6 v=46
204153 On ch=1 n=g#7 v=0
204161 On ch=1 n=g#6 v=0
204165 On ch=1 n=c8 v=58
204165 On ch=1 n=c7 v=46
204254 On ch=1 n=c7 v=0
204274 On ch=1 n=c8 v=0
204286 On ch=1 n=d#7 v=57
204286 On ch=1 n=d#6 v=45
204385 On ch=1 n=d#6 v=0
204392 On ch=1 n=d#7 v=0
204403 On ch=1 n=a#7 v=56
204406 On ch=1 n=c7 v=44
204491 On ch=1 n=c7 v=0
204495 On ch=1 n=a#7 v=0
204504 On ch=1 n=d#7 v=56
204507 On ch=1 n=d#6 v=44
204600 On ch=1 n=d#6 v=0
204614 On ch=1 n=d#7 v=0
204624 On ch=1 n=g#7 v=55
204624 On ch=1 n=g#6 v=43
204707 On ch=1 n=g#7 v=0
204710 On ch=1 n=g#6 v=0
204725 On ch=1 n=c7 v=55
204725 On ch=1 n=c6 v=43
204814 On ch=1 n=c7 v=0
204832 On ch=1 n=c6 v=0
204846 On ch=1 n=f7 v=54
204846 On ch=1 n=g#6 v=42
204936 On ch=1 n=f7 v=0
204954 On ch=1 n=g#6 v=0
204963 On ch=1 n=c7 v=54
204966 On ch=1 n=c6 v=42
205046 On ch=1 n=c7 v=0
205051 On ch=1 n=c6 v=0
205061 On ch=1 n=d#7 v=53
205061 On ch=1 n=d#6 v=41
205178 On ch=1 n=d#7 v=0
205181 On ch=1 n=d#6 v=0
205181 On ch=1 n=g#6 v=52
205181 On ch=1 n=g#5 v=40
205279 On ch=1 n=g#5 v=0
205280 On ch=1 n=g#6 v=0
205282 On ch=1 n=c#7 v=52
205282 On ch=1 n=d#6 v=40
205373 On ch=1 n=c#7 v=0
205396 On ch=1 n=d#6 v=0
205403 On ch=1 n=g#6 v=51
205403 On ch=1 n=g#5 v=39
205509 On ch=1 n=g#5 v=0
205518 On ch=1 n=g#6 v=0
205520 On ch=1 n=c7 v=51
205523 On ch=1 n=c6 v=39
205611 On ch=1 n=c6 v=0
205639 On ch=1 n=c7 v=0
205641 On ch=1 n=d#6 v=50
205643 On ch=1 n=d#5 v=38
205752 On ch=1 n=d#5 v=0
205754 On ch=1 n=d#6 v=0
205781 On ch=1 n=a#6 v=50
205783 On ch=1 n=c6 v=38
205883 On ch=1 n=a#6 v=0
205891 On ch=1 n=c6 v=0
205921 On ch=1 n=d#6 v=49
205923 On ch=1 n=d#5 v=37
206029 On ch=1 n=d#6 v=0
206032 On ch=1 n=d#5 v=0
206051 On ch=1 n=g#6 v=54
206063 On ch=1 n=g#4 v=36
206083 On ch=1 n=c6 v=40
206233 On ch=1 n=g#4 v=0
206238 On ch=1 n=c6 v=0
206241 On ch=1 n=g#6 v=0
206621 Par ch=1 c=64 v=0
206871 On ch=1 n=d#5 v=78
206901 On ch=1 n=b4 v=55
206903 On ch=1 n=g#2 v=60
206933 On ch=1 n=g#3 v=45
206951 On ch=1 n=d#4 v=41
207009 Par ch=1 c=64 v=127
207541 On ch=1 n=d#5 v=0
207560 On ch=1 n=g#2 v=0
207579 On ch=1 n=b4 v=0
207587 On ch=1 n=g#3 v=0
207607 On ch=1 n=d#4 v=0
207730 On ch=1 n=d#5 v=90
207760 On ch=1 n=f#4 v=56
207763 On ch=1 n=b2 v=72
207780 On ch=1 n=g#4 v=53
207783 On ch=1 n=b3 v=58
207833 Par ch=1 c=64 v=0
208231 Par ch=1 c=64 v=127
208434 On ch=1 n=g#4 v=0
208463 On ch=1 n=f#4 v=0
208466 On ch=1 n=b2 v=0
208478 On ch=1 n=b3 v=0
208528 On ch=1 n=d#5 v=0
208615 On ch=1 n=c#5 v=66
208645 On ch=1 n=b4 v=37
208651 On ch=1 n=c#3 v=54
208675 On ch=1 n=f4 v=36
208685 On ch=1 n=c#4 v=38
208705 On ch=1 n=g#3 v=45
208755 Par ch=1 c=64 v=0
209153 Par ch=1 c=64 v=127
209298 On ch=1 n=f4 v=0
209326 On ch=1 n=c#5 v=0
209359 On ch=1 n=b4 v=0
209362 On ch=1 n=c#3 v=0
209369 On ch=1 n=g#3 v=0
209399 On ch=1 n=c#4 v=0
209549 On ch=1 n=f#2 v=54
209596 On ch=1 n=f#3 v=49
209616 On ch=1 n=a#4 v=49
209649 Par ch=1 c=64 v=0
209654 On ch=1 n=a#5 v=72
209666 On ch=1 n=c#5 v=47
209684 On ch=1 n=f#5 v=48
209787 Par ch=1 c=64 v=127
209888 On ch=1 n=a#4 v=0
209896 On ch=1 n=f#2 v=0
209925 On ch=1 n=a#5 v=0
209935 On ch=1 n=c#5 v=0
209943 On ch=1 n=f#3 v=0
209952 On ch=1 n=f#5 v=0
210031 On ch=1 n=d#8 v=52
210034 On ch=1 n=f#7 v=40
210120 On ch=1 n=d#8 v=0
210141 On ch=1 n=f#7 v=0
210152 On ch=1 n=a#7 v=52
210155 On ch=1 n=a#6 v=40
210238 On ch=1 n=a#6 v=0
210255 On ch=1 n=a#7 v=0
210272 On ch=1 n=c#8 v=52
210272 On ch=1 n=c#7 v=40
210339 On ch=1 n=c#8 v=0
210340 On ch=1 n=c#7 v=0
210373 On ch=1 n=f#7 v=51
210373 On ch=1 n=f#6 v=39
210456 On ch=1 n=f#7 v=0
210466 On ch=1 n=f#6 v=0
210490 On ch=1 n=b7 v=51
210490 On ch=1 n=c#7 v=39
210560 On ch=1 n=c#7 v=0
210561 On ch=1 n=b7 v=0
210588 On ch=1 n=f#7 v=50
210591 On ch=1 n=f#6 v=38
210685 On ch=1 n=f#7 v=0
210687 On ch=1 n=f#6 v=0
210709 On ch=1 n=a#7 v=50
210712 On ch=1 n=a#6 v=38
210811 On ch=1 n=a#7 v=0
210819 On ch=1 n=a#6 v=0
210829 On ch=1 n=c#7 v=49
210829 On ch=1 n=c#6 v=37
210909 On ch=1 n=c#7 v=0
210911 On ch=1 n=c#6 v=0
210930 On ch=1 n=g#7 v=48
210930 On ch=1 n=a#6 v=36
211016 On ch=1 n=a#6 v=0
211031 On ch=1 n=g#7 v=0
211050 On ch=1 n=c#7 v=48
211050 On ch=1 n=c#6 v=36
211122 On ch=1 n=c#6 v=0
211132 On ch=1 n=c#7 v=0
211142 On ch=1 n=f#7 v=47
211145 On ch=1 n=f#6 v=35
211225 On ch=1 n=f#7 v=0
211235 On ch=1 n=f#6 v=0
211263 On ch=1 n=a#6 v=47
211266 On ch=1 n=a#5 v=35
211357 On ch=1 n=a#6 v=0
211369 On ch=1 n=a#5 v=0
211383 On ch=1 n=d#7 v=46
211383 On ch=1 n=f#6 v=34
211459 On ch=1 n=d#7 v=0
211463 On ch=1 n=f#6 v=0
211484 On ch=1 n=a#6 v=46
211484 On ch=1 n=a#5 v=34
211564 On ch=1 n=a#6 v=0
211583 On ch=1 n=a#5 v=0
211604 On ch=1 n=c#7 v=45
211604 On ch=1 n=c#6 v=33
211689 On ch=1 n=c#7 v=0
211690 On ch=1 n=c#6 v=0
211702 On ch=1 n=f#6 v=44
211705 On ch=1 n=f#5 v=32
211793 On ch=1 n=f#6 v=0
211810 On ch=1 n=f#5 v=0
211820 On ch=1 n=b6 v=44
211820 On ch=1 n=c#6 v=32
211925 On ch=1 n=b6 v=0
211929 On ch=1 n=c#6 v=0
211940 On ch=1 n=f#6 v=43
211940 On ch=1 n=f#5 v=31
212022 On ch=1 n=f#6 v=0
212024 On ch=1 n=f#5 v=0
212061 On ch=1 n=a#6 v=43
212061 On ch=1 n=a#5 v=31
212146 On ch=1 n=a#6 v=0
212153 On ch=1 n=a#5 v=0
212181 On ch=1 n=c#6 v=42
212181 On ch=1 n=c#5 v=30
212272 On ch=1 n=c#6 v=0
212287 On ch=1 n=c#5 v=0
212301 On ch=1 n=g#6 v=42
212301 On ch=1 n=a#5 v=30
212396 On ch=1 n=a#5 v=0
212405 On ch=1 n=g#6 v=0
212441 On ch=1 n=c#6 v=41
212441 On ch=1 n=c#5 v=29
212551 On ch=1 n=c#5 v=0
212557 On ch=1 n=c#6 v=0
212581 On ch=1 n=f#6 v=40
212581 On ch=1 n=f#4 v=28
212601 On ch=1 n=a#5 v=30
212719 On ch=1 n=a#5 v=0
212779 On ch=1 n=f#6 v=0
212781 On ch=1 n=f#4 v=0
213139 Par ch=1 c=64 v=0
213389 On ch=1 n=a#5 v=72
213420 On ch=1 n=a#4 v=61
213421 On ch=1 n=f#2 v=60
213430 On ch=1 n=d#5 v=63
213462 On ch=1 n=f#3 v=60
213518 Par ch=1 c=64 v=127
214061 On ch=1 n=a#5 v=0
214093 On ch=1 n=f#2 v=0
214102 On ch=1 n=d#5 v=0
214116 On ch=1 n=a#4 v=0
214134 On ch=1 n=f#3 v=0
214248 On ch=1 n=a#5 v=84
214269 On ch=1 n=f5 v=75
214284 On ch=1 n=f2 v=72
214287 On ch=1 n=c#5 v=71
214298 On ch=1 n=a#4 v=70
214314 On ch=1 n=f3 v=72
214344 Par ch=1 c=64 v=0
214742 Par ch=1 c=64 v=127
214941 On ch=1 n=f5 v=0
214956 On ch=1 n=f2 v=0
214986 On ch=1 n=f3 v=0
214994 On ch=1 n=a#4 v=0
215005 On ch=1 n=c#5 v=0
215016 On ch=1 n=a#5 v=0
215108 On ch=1 n=a5 v=96
215116 On ch=1 n=c4 v=77
215135 On ch=1 n=f5 v=86
215136 On ch=1 n=a4 v=82
215148 On ch=1 n=c5 v=79
215159 On ch=1 n=f4 v=80
215169 On ch=1 n=f3 v=80
215199 Par ch=1 c=64 v=0
215597 Par ch=1 c=64 v=127
215806 On ch=1 n=f4 v=0
215820 On ch=1 n=c4 v=0
215841 On ch=1 n=f5 v=0
215865 On ch=1 n=a4 v=0
215873 On ch=1 n=f3 v=0
215873 On ch=1 n=c5 v=0
215900 On ch=1 n=a5 v=0
216031 On ch=1 n=a#2 v=96
216051 On ch=1 n=a#3 v=88
216061 Par ch=1 c=64 v=0
216073 On ch=1 n=c#5 v=90
216077 On ch=1 n=f5 v=99
216085 On ch=1 n=c#6 v=108
216118 On ch=1 n=a#5 v=98
216189 Par ch=1 c=64 v=127
216232 On ch=1 n=c#5 v=0
216262 On ch=1 n=a#5 v=0
216329 On ch=1 n=f5 v=0
216337 On ch=1 n=c#6 v=0
216359 On ch=1 n=a#2 v=0
216379 On ch=1 n=a#3 v=0
216697 On ch=1 n=f8 v=60
216781 On ch=1 n=f8 v=0
216798 On ch=1 n=a#7 v=60
216897 On ch=1 n=a#7 v=0
216919 On ch=1 n=d#8 v=60
216919 On ch=1 n=f7 v=48
217011 On ch=1 n=f7 v=0
217017 On ch=1 n=d#8 v=0
217039 On ch=1 n=a#7 v=59
217039 On ch=1 n=a#6 v=48
217124 On ch=1 n=a#6 v=0
217127 On ch=1 n=a#7 v=0
217137 On ch=1 n=c#8 v=59
217137 On ch=1 n=c#7 v=48
217244 On ch=1 n=c#8 v=0
217249 On ch=1 n=c#7 v=0
217257 On ch=1 n=f7 v=58
217257 On ch=1 n=f6 v=47
217343 On ch=1 n=f7 v=0
217344 On ch=1 n=f6 v=0
217355 On ch=1 n=c8 v=57
217358 On ch=1 n=c#7 v=46
217446 On ch=1 n=c8 v=0
217466 On ch=1 n=c#7 v=0
217476 On ch=1 n=f7 v=57
217478 On ch=1 n=f6 v=46
217578 On ch=1 n=f7 v=0
217596 On ch=1 n=f6 v=0
217596 On ch=1 n=a#7 v=56
217596 On ch=1 n=a#6 v=45
217669 On ch=1 n=a#7 v=0
217679 On ch=1 n=a#6 v=0
217697 On ch=1 n=c#7 v=55
217697 On ch=1 n=c#6 v=44
217804 On ch=1 n=c#6 v=0
217810 On ch=1 n=c#7 v=0
217817 On ch=1 n=f#7 v=55
217817 On ch=1 n=a#6 v=44
217899 On ch=1 n=a#6 v=0
217909 On ch=1 n=f#7 v=0
217912 On ch=1 n=c#7 v=54
217915 On ch=1 n=c#6 v=43
218013 On ch=1 n=c#7 v=0
218023 On ch=1 n=c#6 v=0
218033 On ch=1 n=f7 v=54
218035 On ch=1 n=f6 v=42
218123 On ch=1 n=f6 v=0
218140 On ch=1 n=f7 v=0
218150 On ch=1 n=a#6 v=53
218150 On ch=1 n=a#5 v=41
218235 On ch=1 n=a#5 v=0
218236 On ch=1 n=a#6 v=0
218251 On ch=1 n=d#7 v=52
218251 On ch=1 n=f6 v=41
218345 On ch=1 n=f6 v=0
218345 On ch=1 n=d#7 v=0
218371 On ch=1 n=a#6 v=52
218371 On ch=1 n=a#5 v=40
218457 On ch=1 n=a#5 v=0
218463 On ch=1 n=a#6 v=0
218489 On ch=1 n=c#7 v=51
218492 On ch=1 n=c#6 v=39
218600 On ch=1 n=c#6 v=0
218611 On ch=1 n=c#7 v=0
218629 On ch=1 n=f6 v=50
218632 On ch=1 n=f5 v=39
218722 On ch=1 n=f5 v=0
218731 On ch=1 n=f6 v=0
218749 On ch=1 n=c7 v=50
218752 On ch=1 n=c#6 v=38
218856 On ch=1 n=c#6 v=0
218857 On ch=1 n=c7 v=0
218889 On ch=1 n=f6 v=49
218892 On ch=1 n=f5 v=37
219019 On ch=1 n=f6 v=0
219020 On ch=1 n=f5 v=0
219029 On ch=1 n=a#6 v=53
219032 On ch=1 n=a#4 v=36
219052 On ch=1 n=c#6 v=37
219182 On ch=1 n=a#4 v=0
219192 On ch=1 n=c#6 v=0
219223 On ch=1 n=a#6 v=0
219546 Par ch=1 c=64 v=0
219825 Par ch=1 c=64 v=127
219836 On ch=1 n=c#6 v=78
219865 On ch=1 n=a#2 v=59
219873 On ch=1 n=f5 v=63
219893 On ch=1 n=a#3 v=55
219905 On ch=1 n=c#5 v=62
220546 On ch=1 n=c#6 v=0
220562 On ch=1 n=a#2 v=0
220571 On ch=1 n=f5 v=0
220588 On ch=1 n=a#3 v=0
220603 On ch=1 n=c#5 v=0
220676 On ch=1 n=g5 v=78
220701 On ch=1 n=c#3 v=60
220716 On ch=1 n=f5 v=63
220738 On ch=1 n=a#4 v=63
220754 On ch=1 n=c#4 v=54
220766 Par ch=1 c=64 v=0
220885 Par ch=1 c=64 v=127
221415 On ch=1 n=c#3 v=0
221425 On ch=1 n=a#4 v=0
221430 On ch=1 n=f5 v=0
221432 On ch=1 n=g5 v=0
221451 On ch=1 n=c#4 v=0
221536 On ch=1 n=a#5 v=84
221542 On ch=1 n=c3 v=64
221561 On ch=1 n=c4 v=59
221575 On ch=1 n=e5 v=68
221584 On ch=1 n=a#4 v=69
221592 Par ch=1 c=64 v=0
221711 Par ch=1 c=64 v=127
221941 On ch=1 n=a#4 v=0
221947 On ch=1 n=c3 v=0
221954 On ch=1 n=e5 v=0
221956 On ch=1 n=g#5 v=86
221977 On ch=1 n=c4 v=0
221981 On ch=1 n=a#4 v=71
221982 On ch=1 n=c3 v=65
221986 On ch=1 n=a#5 v=0
221990 On ch=1 n=e5 v=71
222015 On ch=1 n=c4 v=60
222091 On ch=1 n=c3 v=0
222112 On ch=1 n=a#4 v=0
222113 On ch=1 n=e5 v=0
222115 On ch=1 n=g5 v=87
222116 On ch=1 n=c3 v=66
222131 On ch=1 n=c4 v=0
222147 On ch=1 n=e5 v=73
222161 On ch=1 n=c4 v=61
222162 On ch=1 n=a#4 v=72
222164 On ch=1 n=g#5 v=0
222369 On ch=1 n=c3 v=0
222390 On ch=1 n=g5 v=0
222395 On ch=1 n=c6 v=90
222400 On ch=1 n=e5 v=0
222414 On ch=1 n=c4 v=0
222418 On ch=1 n=a2 v=68
222425 On ch=1 n=g5 v=72
222458 On ch=1 n=c5 v=71
222458 On ch=1 n=a3 v=62
222465 On ch=1 n=e5 v=72
222468 Par ch=1 c=64 v=0
222490 On ch=1 n=a#4 v=0
222587 Par ch=1 c=64 v=127
223114 On ch=1 n=c6 v=0
223140 On ch=1 n=a2 v=0
223141 On ch=1 n=a3 v=0
223144 On ch=1 n=g5 v=0
223177 On ch=1 n=c5 v=0
223187 On ch=1 n=e5 v=0
223314 On ch=1 n=c6 v=73
223343 On ch=1 n=a4 v=46
223359 On ch=1 n=d#5 v=54
223361 On ch=1 n=a3 v=49
223370 On ch=1 n=c5 v=54
223373 On ch=1 n=f#5 v=55
223393 Par ch=1 c=64 v=0
223512 Par ch=1 c=64 v=127
223949 On ch=1 n=a3 v=0
223989 On ch=1 n=d#5 v=0
223997 On ch=1 n=a4 v=0
224004 On ch=1 n=c6 v=0
224013 On ch=1 n=f#5 v=0
224023 On ch=1 n=c5 v=0
224181 On ch=1 n=f#5 v=79
224184 On ch=1 n=a4 v=65
224186 On ch=1 n=c3 v=64
224204 Par ch=1 c=64 v=0
224211 On ch=1 n=d#5 v=64
224214 On ch=1 n=c4 v=52
224323 Par ch=1 c=64 v=127
224856 On ch=1 n=a4 v=0
224858 On ch=1 n=c3 v=0
224861 On ch=1 n=c4 v=0
224871 On ch=1 n=f#5 v=0
224872 On ch=1 n=d#5 v=0
225000 On ch=1 n=a5 v=83
225043 On ch=1 n=a4 v=72
225046 On ch=1 n=b2 v=68
225053 On ch=1 n=d#5 v=72
225063 On ch=1 n=b3 v=64
225066 Par ch=1 c=64 v=0
225185 Par ch=1 c=64 v=127
225415 On ch=1 n=a4 v=0
225417 On ch=1 n=b2 v=0
225422 On ch=1 n=d#5 v=0
225428 On ch=1 n=b3 v=0
225440 On ch=1 n=g#5 v=81
225450 On ch=1 n=a4 v=70
225460 On ch=1 n=d#5 v=70
225460 On ch=1 n=b3 v=61
225463 On ch=1 n=b2 v=65
225483 Par ch=1 c=64 v=0
225498 On ch=1 n=a5 v=0
225556 On ch=1 n=b2 v=0
225557 On ch=1 n=b3 v=0
225557 On ch=1 n=d#5 v=0
225557 On ch=1 n=a4 v=0
225577 On ch=1 n=f#5 v=80
225600 On ch=1 n=d#5 v=69
225600 On ch=1 n=a4 v=69
225600 On ch=1 n=b3 v=60
225602 Par ch=1 c=64 v=127
225603 On ch=1 n=b2 v=64
225623 Par ch=1 c=64 v=0
225647 On ch=1 n=g#5 v=0
225742 Par ch=1 c=64 v=127
225827 On ch=1 n=f#5 v=0
225846 On ch=1 n=d#5 v=0
225883 On ch=1 n=b5 v=78
225891 On ch=1 n=b3 v=0
225891 On ch=1 n=a4 v=0
225894 On ch=1 n=b2 v=0
225908 On ch=1 n=g#2 v=63
225915 On ch=1 n=f#5 v=65
225935 On ch=1 n=b4 v=61
225945 On ch=1 n=d#5 v=61
225948 Par ch=1 c=64 v=0
225948 On ch=1 n=g#3 v=63
226067 Par ch=1 c=64 v=127
226631 On ch=1 n=b5 v=0
226656 On ch=1 n=g#2 v=0
226661 On ch=1 n=f#5 v=0
226663 On ch=1 n=g#3 v=0
226671 On ch=1 n=b4 v=0
226736 On ch=1 n=d#5 v=0
226837 On ch=1 n=b5 v=54
226863 On ch=1 n=g#3 v=38
226878 On ch=1 n=f#5 v=36
226883 Par ch=1 c=64 v=0
226883 On ch=1 n=g#4 v=38
226908 On ch=1 n=b4 v=36
226916 On ch=1 n=d5 v=36
227002 Par ch=1 c=64 v=127
227511 On ch=1 n=d5 v=0
227518 On ch=1 n=b4 v=0
227519 On ch=1 n=g#3 v=0
227535 On ch=1 n=f#5 v=0
227537 On ch=1 n=g#4 v=0
227551 On ch=1 n=b5 v=0
227677 On ch=1 n=d5 v=70
227697 On ch=1 n=b4 v=42
227700 On ch=1 n=g#2 v=58
227710 On ch=1 n=f#4 v=42
227730 Par ch=1 c=64 v=0
227730 On ch=1 n=g#3 v=53
227849 Par ch=1 c=64 v=127
228367 On ch=1 n=g#3 v=0
228376 On ch=1 n=b4 v=0
228378 On ch=1 n=f#4 v=0
228380 On ch=1 n=d5 v=0
228390 On ch=1 n=g#2 v=0
228543 On ch=1 n=f#5 v=65
228565 On ch=1 n=f#4 v=36
228565 On ch=1 n=g#3 v=48
228575 On ch=1 n=b4 v=37
228585 Par ch=1 c=64 v=0
228697 On ch=1 n=b2 v=54
228704 Par ch=1 c=64 v=127
228857 On ch=1 n=b2 v=0
228859 On ch=1 n=g#2 v=52
228889 On ch=1 n=f#4 v=0
228889 On ch=1 n=f#5 v=0
228897 On ch=1 n=g#3 v=0
228911 On ch=1 n=b4 v=0
228977 On ch=1 n=e5 v=63
228983 On ch=1 n=g#2 v=0
228999 On ch=1 n=f#4 v=35
228999 On ch=1 n=g#3 v=46
229009 On ch=1 n=b4 v=34
229087 On ch=1 n=e5 v=0
229096 On ch=1 n=f#4 v=0
229103 On ch=1 n=b4 v=0
229117 On ch=1 n=d5 v=62
229139 On ch=1 n=f#4 v=33
229139 On ch=1 n=b2 v=51
229149 On ch=1 n=b4 v=34
229189 Par ch=1 c=64 v=0
229296 On ch=1 n=b2 v=0
229299 On ch=1 n=g#2 v=49
229308 Par ch=1 c=64 v=127
229335 On ch=1 n=d5 v=0
229369 On ch=1 n=f#4 v=0
229373 On ch=1 n=b4 v=0
229416 On ch=1 n=d5 v=61
229419 On ch=1 n=g#2 v=0
229439 On ch=1 n=f#4 v=32
229449 On ch=1 n=b4 v=32
229606 On ch=1 n=g#3 v=0
229634 On ch=1 n=b4 v=0
229648 On ch=1 n=f#4 v=0
229675 On ch=1 n=d5 v=0
230077 Par ch=1 c=64 v=0
230347 On ch=1 n=b5 v=49
230379 On ch=1 n=d5 v=34
230399 On ch=1 n=b4 v=34
230402 On ch=1 n=g#3 v=31
230429 On ch=1 n=f4 v=24
230474 Par ch=1 c=64 v=127
231034 On ch=1 n=b5 v=0
231067 On ch=1 n=d5 v=0
231087 On ch=1 n=b4 v=0
231090 On ch=1 n=g#3 v=0
231102 On ch=1 n=f4 v=0
231256 On ch=1 n=d5 v=40
231279 On ch=1 n=b4 v=14
231279 On ch=1 n=g#3 v=22
231281 On ch=1 n=g#2 v=27
231289 On ch=1 n=f4 v=14
231351 Par ch=1 c=64 v=0
231823 Par ch=1 c=64 v=127
231981 On ch=1 n=g#3 v=0
231993 On ch=1 n=f4 v=0
231995 On ch=1 n=d5 v=0
232024 On ch=1 n=b4 v=0
232163 On ch=1 n=f5 v=48
232180 On ch=1 n=g#2 v=0
232186 On ch=1 n=g#3 v=29
232193 On ch=1 n=a#4 v=33
232196 On ch=1 n=f4 v=21
232223 Par ch=1 c=64 v=0
232337 On ch=1 n=a#2 v=34
232345 Par ch=1 c=64 v=127
232477 On ch=1 n=a#2 v=0
232477 On ch=1 n=g#2 v=33
232533 On ch=1 n=g#3 v=0
232540 On ch=1 n=a#4 v=0
232543 On ch=1 n=f4 v=0
232545 On ch=1 n=f5 v=0
232617 On ch=1 n=d#5 v=46
232620 On ch=1 n=g#2 v=0
232639 On ch=1 n=g#3 v=27
232649 On ch=1 n=f4 v=20
232657 On ch=1 n=a#4 v=31
232761 On ch=1 n=f4 v=0
232763 On ch=1 n=d#5 v=0
232769 On ch=1 n=a#4 v=0
232776 On ch=1 n=d5 v=46
232799 On ch=1 n=a#2 v=32
232819 On ch=1 n=f4 v=18
232829 Par ch=1 c=64 v=0
232829 On ch=1 n=a#4 v=31
232951 Par ch=1 c=64 v=127
232956 On ch=1 n=a#2 v=0
232959 On ch=1 n=g#2 v=30
233061 On ch=1 n=a#4 v=0
233067 On ch=1 n=d5 v=0
233084 On ch=1 n=f4 v=0
233099 On ch=1 n=g#2 v=0
233118 On ch=1 n=c#5 v=44
233138 On ch=1 n=a#4 v=36
233138 On ch=1 n=e4 v=24
233309 On ch=1 n=g#3 v=0
233346 On ch=1 n=a#4 v=0
233409 On ch=1 n=e4 v=0
233420 On ch=1 n=c#5 v=0
233818 Par ch=1 c=64 v=0
234036 Par ch=1 c=64 v=127
234109 Par ch=1 c=67 v=127
234189 On ch=1 n=g4 v=33
234196 On ch=1 n=e4 v=21
234199 On ch=1 n=g#3 v=33
234297 On ch=1 n=a#4 v=21
234355 On ch=1 n=e4 v=0
234420 On ch=1 n=c5 v=22
234443 On ch=1 n=g4 v=0
234478 On ch=1 n=a#4 v=0
234507 On ch=1 n=g#3 v=0
234518 On ch=1 n=d#5 v=23
234572 On ch=1 n=c5 v=0
234639 On ch=1 n=c#5 v=25
234663 On ch=1 n=d#5 v=0
234729 On ch=1 n=c#5 v=0
234756 On ch=1 n=e5 v=26
234847 On ch=1 n=g5 v=33
234857 On ch=1 n=a#5 v=28
234860 On ch=1 n=g#4 v=33
234877 On ch=1 n=e5 v=0
234977 On ch=1 n=c6 v=29
235034 On ch=1 n=a#5 v=0
235078 On ch=1 n=d#6 v=30
235092 On ch=1 n=g5 v=0
235093 On ch=1 n=c6 v=0
235147 On ch=1 n=g#4 v=0
235196 On ch=1 n=c#6 v=32
235265 On ch=1 n=d#6 v=0
235316 On ch=1 n=e6 v=33
235317 On ch=1 n=c#6 v=0
235417 On ch=1 n=a#6 v=35
235488 On ch=1 n=e6 v=0
235527 On ch=1 n=g6 v=33
235537 On ch=1 n=c7 v=36
235540 On ch=1 n=g#5 v=33
235569 On ch=1 n=a#6 v=0
235638 On ch=1 n=d#7 v=37
235672 On ch=1 n=c7 v=0
235754 On ch=1 n=g#5 v=0
235759 On ch=1 n=c#7 v=39
235784 On ch=1 n=g6 v=0
235810 On ch=1 n=d#7 v=0
235862 On ch=1 n=c#7 v=0
235876 On ch=1 n=e7 v=40
235977 On ch=1 n=a#7 v=42
235981 On ch=1 n=e7 v=0
236097 On ch=1 n=c8 v=43
236130 On ch=1 n=a#7 v=0
236198 On ch=1 n=c#8 v=45
236198 On ch=1 n=g#6 v=21
236206 On ch=1 n=c8 v=0
236218 On ch=1 n=g7 v=21
236434 On ch=1 n=g#6 v=0
236484 On ch=1 n=g7 v=0
236556 On ch=1 n=c#8 v=0
236755 Par ch=1 c=64 v=0
236995 On ch=1 n=e5 v=49
237038 On ch=1 n=a#4 v=23
237041 On ch=1 n=g#2 v=36
237048 On ch=1 n=g#3 v=23
237068 On ch=1 n=e4 v=24
237091 Par ch=1 c=64 v=127
237722 On ch=1 n=e5 v=0
237724 On ch=1 n=a#4 v=0
237730 On ch=1 n=g#2 v=0
237737 On ch=1 n=g#3 v=0
237757 On ch=1 n=e4 v=0
237875 On ch=1 n=c#5 v=55
237898 On ch=1 n=a#4 v=23
237901 On ch=1 n=g#2 v=36
237908 On ch=1 n=g#3 v=23
237928 On ch=1 n=e4 v=24
237971 Par ch=1 c=64 v=0
238376 Par ch=1 c=64 v=127
238587 On ch=1 n=a#4 v=0
238590 On ch=1 n=g#2 v=0
238597 On ch=1 n=g#3 v=0
238603 On ch=1 n=c#5 v=0
238617 On ch=1 n=e4 v=0
238735 On ch=1 n=e5 v=61
238757 On ch=1 n=a#4 v=47
238767 On ch=1 n=g#3 v=47
238787 On ch=1 n=e4 v=47
238817 Par ch=1 c=64 v=0
238917 On ch=1 n=a#2 v=60
238947 Par ch=1 c=64 v=127
239057 On ch=1 n=a#2 v=0
239057 On ch=1 n=g#2 v=58
239146 On ch=1 n=a#4 v=0
239176 On ch=1 n=e4 v=0
239177 On ch=1 n=d#5 v=56
239180 On ch=1 n=g#2 v=0
239187 On ch=1 n=g#3 v=0
239197 On ch=1 n=e5 v=0
239197 On ch=1 n=a#4 v=44
239218 On ch=1 n=g#3 v=43
239227 On ch=1 n=e4 v=44
239306 On ch=1 n=a#4 v=0
239336 On ch=1 n=e4 v=0
239337 On ch=1 n=c#5 v=56
239357 On ch=1 n=a#4 v=40
239359 On ch=1 n=a#2 v=53
239370 On ch=1 n=d#5 v=0
239387 On ch=1 n=e4 v=40
239417 Par ch=1 c=64 v=0
239516 On ch=1 n=a#2 v=0
239516 On ch=1 n=g#2 v=51
239547 Par ch=1 c=64 v=127
239596 On ch=1 n=c#5 v=0
239636 On ch=1 n=e4 v=0
239639 On ch=1 n=a#5 v=56
239656 On ch=1 n=a#4 v=0
239659 On ch=1 n=g#2 v=0
239662 On ch=1 n=e5 v=35
239662 On ch=1 n=c#5 v=35
239917 On ch=1 n=c#5 v=0
240016 On ch=1 n=g#3 v=0
240036 On ch=1 n=e5 v=0
240156 On ch=1 n=a#5 v=0
240288 Par ch=1 c=64 v=0
240468 Par ch=1 c=64 v=127
240608 On ch=1 n=g#3 v=24
240658 On ch=1 n=g4 v=30
240675 On ch=1 n=e4 v=18
240759 On ch=1 n=g#3 v=0
240776 On ch=1 n=a#4 v=18
240800 On ch=1 n=e4 v=0
240894 On ch=1 n=g4 v=0
240899 On ch=1 n=c5 v=19
240924 On ch=1 n=a#4 v=0
240997 On ch=1 n=d#5 v=20
241017 On ch=1 n=c5 v=0
241115 On ch=1 n=c#5 v=22
241132 On ch=1 n=d#5 v=0
241196 On ch=1 n=c#5 v=0
241235 On ch=1 n=e5 v=23
241336 On ch=1 n=a#5 v=25
241339 On ch=1 n=g#4 v=24
241359 On ch=1 n=e5 v=0
241376 On ch=1 n=g5 v=29
241457 On ch=1 n=c6 v=26
241475 On ch=1 n=a#5 v=0
241539 On ch=1 n=g#4 v=0
241557 On ch=1 n=d#6 v=27
241575 On ch=1 n=c6 v=0
241617 On ch=1 n=g5 v=0
241675 On ch=1 n=c#6 v=29
241699 On ch=1 n=d#6 v=0
241746 On ch=1 n=c#6 v=0
241795 On ch=1 n=e6 v=30
241896 On ch=1 n=a#6 v=32
241924 On ch=1 n=e6 v=0
242017 On ch=1 n=c7 v=33
242019 On ch=1 n=g#5 v=20
242039 On ch=1 n=a#6 v=0
242047 On ch=1 n=g6 v=26
242137 On ch=1 n=d#7 v=34
242159 On ch=1 n=c7 v=0
242239 On ch=1 n=g#5 v=0
242257 On ch=1 n=c#7 v=36
242274 On ch=1 n=d#7 v=0
242305 On ch=1 n=g6 v=0
242326 On ch=1 n=c#7 v=0
242375 On ch=1 n=e7 v=37
242495 On ch=1 n=a#7 v=39
242516 On ch=1 n=e7 v=0
242635 On ch=1 n=c8 v=40
242658 On ch=1 n=a#7 v=0
242765 On ch=1 n=c#8 v=48
242775 On ch=1 n=g#6 v=20
242792 On ch=1 n=g7 v=24
242793 On ch=1 n=c8 v=0
242946 On ch=1 n=g#6 v=0
243016 On ch=1 n=g7 v=0
243083 On ch=1 n=c#8 v=0
243332 Par ch=1 c=64 v=0
243388 Par ch=1 c=67 v=0
243592 On ch=1 n=a#5 v=101
243615 On ch=1 n=g#4 v=81
243618 On ch=1 n=g#2 v=84
243645 On ch=1 n=g#3 v=84
243662 On ch=1 n=c#5 v=80
243682 On ch=1 n=e5 v=82
243752 Par ch=1 c=64 v=127
244142 Par ch=1 c=64 v=127
244281 On ch=1 n=e5 v=0
244290 On ch=1 n=a#5 v=0
244304 On ch=1 n=c#5 v=0
244310 On ch=1 n=g#4 v=0
244313 On ch=1 n=g#2 v=0
244343 On ch=1 n=g#3 v=0
244432 On ch=1 n=a#5 v=101
244452 On ch=1 n=e5 v=80
244458 On ch=1 n=c#3 v=84
244465 On ch=1 n=c#4 v=84
244495 On ch=1 n=g#4 v=81
244502 On ch=1 n=c#5 v=80
244512 Par ch=1 c=64 v=0
244982 Par ch=1 c=64 v=127
245076 On ch=1 n=c#4 v=0
245114 On ch=1 n=g#4 v=0
245150 On ch=1 n=c#3 v=0
245151 On ch=1 n=a#5 v=0
245154 On ch=1 n=e5 v=0
245178 On ch=1 n=c#5 v=0
245269 On ch=1 n=c#6 v=94
245289 On ch=1 n=e5 v=73
245292 On ch=1 n=g#3 v=77
245292 On ch=1 n=g#2 v=77
245309 On ch=1 n=c#5 v=74
245342 Par ch=1 c=64 v=0
245522 Par ch=1 c=64 v=127
245692 On ch=1 n=c6 v=91
245709 On ch=1 n=e5 v=0
245711 On ch=1 n=c#6 v=0
245712 On ch=1 n=d#5 v=70
245729 On ch=1 n=c#5 v=0
245732 On ch=1 n=c5 v=71
245832 On ch=1 n=a#5 v=90
245849 On ch=1 n=d#5 v=0
245850 On ch=1 n=c6 v=0
245852 On ch=1 n=c#5 v=69
245869 On ch=1 n=c5 v=0
245872 On ch=1 n=e5 v=69
245990 On ch=1 n=g#2 v=0
245990 On ch=1 n=g#3 v=0
246108 On ch=1 n=a#5 v=0
246109 On ch=1 n=g#5 v=66
246110 On ch=1 n=c#5 v=0
246130 On ch=1 n=e5 v=0
246132 On ch=1 n=g#3 v=72
246149 On ch=1 n=c5 v=46
246189 On ch=1 n=g#4 v=65
246192 Par ch=1 c=64 v=0
246602 Par ch=1 c=64 v=127
246788 On ch=1 n=g#3 v=0
246814 On ch=1 n=g#5 v=0
246843 On ch=1 n=g#4 v=0
246896 On ch=1 n=c5 v=0
246949 On ch=1 n=g#5 v=65
246972 On ch=1 n=e3 v=72
246979 On ch=1 n=g#4 v=38
246989 On ch=1 n=e4 v=70
247006 On ch=1 n=c#5 v=39
247046 Par ch=1 c=64 v=0
247456 Par ch=1 c=64 v=127
247634 On ch=1 n=e3 v=0
247641 On ch=1 n=g#5 v=0
247674 On ch=1 n=g#4 v=0
247684 On ch=1 n=e4 v=0
247724 On ch=1 n=c#5 v=0
247786 On ch=1 n=g#5 v=75
247806 On ch=1 n=f#5 v=61
247809 On ch=1 n=d#4 v=60
247809 On ch=1 n=d#3 v=60
247819 On ch=1 n=g#4 v=62
247846 On ch=1 n=c5 v=62
247849 Par ch=1 c=64 v=0
247971 On ch=1 n=d#4 v=0
247976 On ch=1 n=d#3 v=0
248047 On ch=1 n=c#4 v=62
248047 On ch=1 n=c#3 v=65
248209 On ch=1 n=c#4 v=0
248214 On ch=1 n=c#3 v=0
248288 On ch=1 n=c4 v=72
248288 On ch=1 n=c3 v=72
248369 Par ch=1 c=64 v=127
248411 On ch=1 n=g#4 v=0
248425 On ch=1 n=f#5 v=0
248425 On ch=1 n=g#5 v=0
248436 On ch=1 n=c3 v=0
248448 On ch=1 n=c4 v=0
248463 On ch=1 n=c5 v=0
248506 On ch=1 n=a#5 v=77
248529 On ch=1 n=c#4 v=97
248529 On ch=1 n=c#3 v=97
248531 On ch=1 n=g#4 v=64
248546 On ch=1 n=c#5 v=63
248574 On ch=1 n=e5 v=63
248609 Par ch=1 c=64 v=0
248694 On ch=1 n=c#3 v=0
248696 On ch=1 n=c#4 v=0
248767 On ch=1 n=c4 v=94
248767 On ch=1 n=c3 v=97
248934 On ch=1 n=c3 v=0
248936 On ch=1 n=c4 v=0
249008 On ch=1 n=a#3 v=97
249008 On ch=1 n=a#2 v=97
249129 Par ch=1 c=64 v=127
249139 On ch=1 n=g#4 v=0
249155 On ch=1 n=a#5 v=0
249172 On ch=1 n=a#3 v=0
249174 On ch=1 n=a#2 v=0
249175 On ch=1 n=c#5 v=0
249200 On ch=1 n=e5 v=0
249228 On ch=1 n=c6 v=72
249248 On ch=1 n=g#5 v=58
249254 On ch=1 n=g#2 v=107
249281 On ch=1 n=g#3 v=107
249281 On ch=1 n=d#5 v=59
249321 On ch=1 n=c5 v=59
249331 Par ch=1 c=64 v=0
249741 Par ch=1 c=64 v=127
249894 On ch=1 n=g#2 v=0
249897 On ch=1 n=g#5 v=0
249908 On ch=1 n=c6 v=0
249924 On ch=1 n=g#3 v=0
249943 On ch=1 n=d#5 v=0
249982 On ch=1 n=c5 v=0
250001 On ch=1 n=c#6 v=75
250024 On ch=1 n=e4 v=67
250027 On ch=1 n=e3 v=69
250044 On ch=1 n=g#5 v=60
250074 On ch=1 n=c#5 v=61
250077 Par ch=1 c=64 v=0
250487 Par ch=1 c=64 v=127
250681 On ch=1 n=c#6 v=0
250686 On ch=1 n=e4 v=0
250687 On ch=1 n=e3 v=0
250726 On ch=1 n=g#5 v=0
250757 On ch=1 n=c#5 v=0
250788 On ch=1 n=f#6 v=85
250799 On ch=1 n=c6 v=71
250800 On ch=1 n=a5 v=72
250811 On ch=1 n=d#4 v=69
250811 On ch=1 n=d#3 v=69
250830 On ch=1 n=f#5 v=72
250861 Par ch=1 c=64 v=0
250953 On ch=1 n=d#4 v=0
250957 On ch=1 n=d#3 v=0
251023 On ch=1 n=c#4 v=64
251023 On ch=1 n=c#3 v=66
251171 On ch=1 n=c#3 v=0
251178 On ch=1 n=c#4 v=0
251245 On ch=1 n=c4 v=68
251245 On ch=1 n=c3 v=72
251271 Par ch=1 c=64 v=127
251358 On ch=1 n=f#6 v=0
251375 On ch=1 n=a5 v=0
251376 On ch=1 n=c6 v=0
251396 On ch=1 n=c3 v=0
251404 On ch=1 n=c4 v=0
251407 On ch=1 n=f#5 v=0
251449 On ch=1 n=g6 v=87
251471 On ch=1 n=c#4 v=87
251474 On ch=1 n=c#3 v=88
251476 On ch=1 n=a#5 v=74
251480 On ch=1 n=e6 v=73
251490 On ch=1 n=g5 v=72
251521 Par ch=1 c=64 v=0
251617 On ch=1 n=c#4 v=0
251622 On ch=1 n=c#3 v=0
251681 On ch=1 n=c4 v=83
251681 On ch=1 n=c3 v=83
251842 On ch=1 n=c4 v=0
251846 On ch=1 n=c3 v=0
251919 On ch=1 n=a#3 v=88
251922 On ch=1 n=a#2 v=86
251931 Par ch=1 c=64 v=127
252041 On ch=1 n=g6 v=0
252068 On ch=1 n=a#5 v=0
252071 On ch=1 n=e6 v=0
252077 On ch=1 n=g5 v=0
252080 On ch=1 n=a#2 v=0
252081 On ch=1 n=a#3 v=0
252130 On ch=1 n=c6 v=67
252133 On ch=1 n=g#6 v=82
252142 On ch=1 n=g#5 v=67
252149 On ch=1 n=g#3 v=117
252149 On ch=1 n=g#2 v=117
252179 Par ch=1 c=64 v=0
252559 Par ch=1 c=64 v=127
252684 On ch=1 n=c6 v=0
252690 On ch=1 n=g#6 v=0
252699 On ch=1 n=g#5 v=0
252703 On ch=1 n=g#2 v=0
252703 On ch=1 n=g#3 v=0
252803 On ch=1 n=a5 v=66
252804 On ch=1 n=a6 v=102
252809 On ch=1 n=a3 v=78
252834 On ch=1 n=a4 v=104
252874 Par ch=1 c=64 v=127
253230 Par ch=1 c=64 v=127
253360 On ch=1 n=a5 v=0
253361 On ch=1 n=a6 v=0
253366 On ch=1 n=a3 v=0
253391 On ch=1 n=a4 v=0
253448 On ch=1 n=g#5 v=80
253458 On ch=1 n=g#4 v=69
253465 On ch=1 n=f#5 v=75
253466 On ch=1 n=c5 v=71
253467 On ch=1 n=g#2 v=85
253469 On ch=1 n=g#3 v=86
253470 On ch=1 n=f#4 v=67
253471 On ch=1 n=d#5 v=73
253529 Par ch=1 c=64 v=0
253850 Par ch=1 c=64 v=127
254002 On ch=1 n=g#5 v=0
254012 On ch=1 n=g#4 v=0
254020 On ch=1 n=c5 v=0
254021 On ch=1 n=f#5 v=0
254022 On ch=1 n=g#2 v=0
254023 On ch=1 n=g#3 v=0
254024 On ch=1 n=f#4 v=0
254025 On ch=1 n=d#5 v=0
254120 On ch=1 n=a6 v=107
254120 On ch=1 n=a5 v=79
254127 On ch=1 n=a4 v=111
254137 On ch=1 n=a3 v=82
254187 Par ch=1 c=64 v=0
254508 Par ch=1 c=64 v=127
254656 On ch=1 n=a5 v=0
254657 On ch=1 n=a6 v=0
254663 On ch=1 n=a4 v=0
254675 On ch=1 n=a3 v=0
254746 On ch=1 n=g#5 v=86
254753 On ch=1 n=d#5 v=81
254763 On ch=1 n=c5 v=75
254763 On ch=1 n=g#3 v=89
254767 On ch=1 n=f#5 v=81
254769 On ch=1 n=g#2 v=89
254771 On ch=1 n=g#4 v=72
254780 On ch=1 n=f#4 v=78
254813 Par ch=1 c=64 v=0
255134 Par ch=1 c=64 v=127
255270 On ch=1 n=g#5 v=0
255277 On ch=1 n=d#5 v=0
255284 On ch=1 n=g#3 v=0
255287 On ch=1 n=c5 v=0
255288 On ch=1 n=f#5 v=0
255293 On ch=1 n=g#2 v=0
255295 On ch=1 n=g#4 v=0
255304 On ch=1 n=f#4 v=0
255373 On ch=1 n=a3 v=85
255375 On ch=1 n=a4 v=91
255379 On ch=1 n=a6 v=87
255391 On ch=1 n=a5 v=82
255423 Par ch=1 c=64 v=0
255744 Par ch=1 c=64 v=127
255751 On ch=1 n=a6 v=0
255754 On ch=1 n=a5 v=0
255771 On ch=1 n=a3 v=0
255773 On ch=1 n=a4 v=0
255778 On ch=1 n=a5 v=85
255782 On ch=1 n=a6 v=90
255797 On ch=1 n=a4 v=92
255800 On ch=1 n=a3 v=86
255916 On ch=1 n=a5 v=0
255920 On ch=1 n=a6 v=0
255932 On ch=1 n=a4 v=0
255935 On ch=1 n=a3 v=0
255982 On ch=1 n=g#5 v=90
255997 On ch=1 n=d#5 v=86
256001 On ch=1 n=f#5 v=85
256002 On ch=1 n=g#2 v=92
256010 On ch=1 n=g#3 v=92
256011 On ch=1 n=g#4 v=84
256015 On ch=1 n=c5 v=85
256022 On ch=1 n=f#4 v=85
256062 Par ch=1 c=64 v=0
256317 On ch=1 n=g#5 v=0
256323 Par ch=1 c=64 v=127
256333 On ch=1 n=d#5 v=0
256338 On ch=1 n=g#2 v=0
256338 On ch=1 n=f#5 v=0
256347 On ch=1 n=g#4 v=0
256348 On ch=1 n=g#3 v=0
256351 On ch=1 n=c5 v=0
256358 On ch=1 n=f#4 v=0
256400 On ch=1 n=a4 v=94
256400 On ch=1 n=a5 v=88
256408 On ch=1 n=a6 v=92
256411 On ch=1 n=a3 v=88
256505 On ch=1 n=a6 v=0
256510 On ch=1 n=a5 v=0
256510 On ch=1 n=a4 v=0
256522 On ch=1 n=a3 v=0
256594 On ch=1 n=a6 v=98
256604 On ch=1 n=a5 v=90
256605 On ch=1 n=a3 v=91
256605 On ch=1 n=a4 v=99
256648 Par ch=1 c=64 v=0
256676 On ch=1 n=a6 v=0
256683 On ch=1 n=a3 v=0
256686 On ch=1 n=a5 v=0
256689 On ch=1 n=a4 v=0
256766 On ch=1 n=a3 v=95
256766 On ch=1 n=a6 v=101
256781 On ch=1 n=a4 v=103
256782 On ch=1 n=a5 v=98
256873 On ch=1 n=a6 v=0
256873 On ch=1 n=a3 v=0
256876 On ch=1 n=a5 v=0
256888 On ch=1 n=a4 v=0
256963 On ch=1 n=a3 v=104
256965 On ch=1 n=a5 v=99
256966 On ch=1 n=a6 v=108
256974 On ch=1 n=a4 v=110
257072 On ch=1 n=a5 v=0
257073 On ch=1 n=a6 v=0
257073 On ch=1 n=a3 v=0
257081 On ch=1 n=a4 v=0
257139 On ch=1 n=c#4 v=93
257159 On ch=1 n=c#7 v=114
257162 On ch=1 n=c#5 v=100
257164 On ch=1 n=c#6 v=107
257253 Par ch=1 c=64 v=127
257408 On ch=1 n=c#6 v=0
257445 On ch=1 n=c#5 v=0
257451 On ch=1 n=c#4 v=0
257521 On ch=1 n=c#7 v=0
257598 On ch=1 n=a4 v=85
257606 On ch=1 n=a6 v=117
257608 On ch=1 n=a5 v=90
257618 On ch=1 n=a3 v=77
257698 Par ch=1 c=64 v=0
257929 On ch=1 n=a5 v=0
257933 On ch=1 n=a3 v=0
257940 On ch=1 n=a4 v=0
258037 On ch=1 n=a6 v=0
258134 On ch=1 n=g#6 v=89
258144 On ch=1 n=g#5 v=81
258146 On ch=1 n=g#4 v=77
258146 On ch=1 n=g#3 v=78
258243 On ch=1 n=g#5 v=0
258246 On ch=1 n=g#6 v=0
258248 On ch=1 n=g#3 v=0
258276 On ch=1 n=g#4 v=0
258293 On ch=1 n=f#6 v=89
258303 On ch=1 n=f#5 v=87
258306 On ch=1 n=f#4 v=62
258306 On ch=1 n=f#3 v=72
258370 On ch=1 n=f#6 v=0
258388 On ch=1 n=f#3 v=0
258404 On ch=1 n=f#4 v=0
258413 On ch=1 n=f#5 v=0
258433 On ch=1 n=e6 v=65
258443 On ch=1 n=e5 v=62
258446 On ch=1 n=e4 v=52
258446 On ch=1 n=e3 v=60
258526 On ch=1 n=e4 v=0
258548 On ch=1 n=e5 v=0
258556 On ch=1 n=e3 v=0
258572 On ch=1 n=e6 v=0
258593 On ch=1 n=a6 v=90
258603 On ch=1 n=a5 v=87
258603 On ch=1 n=a4 v=76
258603 On ch=1 n=a3 v=85
258714 On ch=1 n=a5 v=0
258729 On ch=1 n=a6 v=0
258730 On ch=1 n=a3 v=0
258730 On ch=1 n=a4 v=0
258749 On ch=1 n=g#6 v=77
258759 On ch=1 n=g#5 v=77
258759 On ch=1 n=g#4 v=62
258759 On ch=1 n=g#3 v=72
258842 On ch=1 n=g#6 v=0
258852 On ch=1 n=g#4 v=0
258860 On ch=1 n=g#3 v=0
258876 On ch=1 n=g#5 v=0
258906 On ch=1 n=g6 v=73
258916 On ch=1 n=g5 v=71
258916 On ch=1 n=g4 v=61
258919 On ch=1 n=g3 v=69
259011 On ch=1 n=g6 v=0
259013 On ch=1 n=g4 v=0
259025 On ch=1 n=g5 v=0
259031 On ch=1 n=g3 v=0
259065 On ch=1 n=g#6 v=69
259075 On ch=1 n=g#5 v=66
259075 On ch=1 n=g#4 v=57
259078 On ch=1 n=g#3 v=66
259171 On ch=1 n=g#5 v=0
259180 On ch=1 n=g#3 v=0
259183 On ch=1 n=g#4 v=0
259186 On ch=1 n=g#6 v=0
259203 On ch=1 n=f#6 v=65
259215 On ch=1 n=f#5 v=63
259215 On ch=1 n=f#4 v=53
259218 On ch=1 n=f#3 v=63
259304 On ch=1 n=f#5 v=0
259335 On ch=1 n=f#6 v=0
259353 On ch=1 n=f#4 v=0
259357 On ch=1 n=f#3 v=0
259365 On ch=1 n=e6 v=65
259375 On ch=1 n=e5 v=64
259375 On ch=1 n=e4 v=50
259378 On ch=1 n=e3 v=60
259458 On ch=1 n=e6 v=0
259482 On ch=1 n=e3 v=0
259483 On ch=1 n=e4 v=0
259519 On ch=1 n=e5 v=0
259525 On ch=1 n=a6 v=90
259535 On ch=1 n=a5 v=90
259537 On ch=1 n=a4 v=75
259537 On ch=1 n=a3 v=85
259634 On ch=1 n=a6 v=0
259640 On ch=1 n=a5 v=0
259649 On ch=1 n=a4 v=0
259661 On ch=1 n=a3 v=0
259684 On ch=1 n=g#6 v=77
259694 On ch=1 n=g#5 v=74
259697 On ch=1 n=g#4 v=64
259697 On ch=1 n=g#3 v=72
259778 On ch=1 n=g#6 v=0
259787 On ch=1 n=g#3 v=0
259817 On ch=1 n=g#5 v=0
259844 On ch=1 n=g6 v=71
259847 On ch=1 n=g#4 v=0
259854 On ch=1 n=g5 v=70
259857 On ch=1 n=g4 v=58
259857 On ch=1 n=g3 v=66
259952 On ch=1 n=g4 v=0
259962 On ch=1 n=g6 v=0
259984 On ch=1 n=g5 v=0
260003 On ch=1 n=g#6 v=73
260007 On ch=1 n=g3 v=0
260016 On ch=1 n=g#5 v=73
260016 On ch=1 n=g#4 v=58
260016 On ch=1 n=g#3 v=68
260089 On ch=1 n=g#6 v=0
260097 On ch=1 n=g#3 v=0
260106 On ch=1 n=g#4 v=0
260123 On ch=1 n=g#5 v=0
260219 On ch=1 n=e6 v=77
260229 On ch=1 n=e5 v=76
260229 On ch=1 n=e4 v=63
260229 On ch=1 n=e3 v=72
260260 On ch=1 n=e6 v=0
260282 On ch=1 n=e4 v=0
260286 On ch=1 n=e3 v=0
260300 On ch=1 n=d#6 v=77
260301 On ch=1 n=e5 v=0
260313 On ch=1 n=d#5 v=74
260313 On ch=1 n=d#4 v=64
260313 On ch=1 n=d#3 v=72
260410 On ch=1 n=d#6 v=0
260420 On ch=1 n=d#3 v=0
260434 On ch=1 n=d#4 v=0
260453 On ch=1 n=d#5 v=0
260460 On ch=1 n=c#6 v=94
260462 On ch=1 n=a5 v=94
260472 On ch=1 n=c#5 v=94
260475 On ch=1 n=c#4 v=80
260475 On ch=1 n=a3 v=82
260475 On ch=1 n=c#3 v=89
260584 On ch=1 n=a5 v=0
260586 On ch=1 n=c#4 v=0
260591 On ch=1 n=a3 v=0
260601 On ch=1 n=c#5 v=0
260613 On ch=1 n=c#3 v=0
260621 On ch=1 n=c#6 v=0
260641 On ch=1 n=b5 v=69
260651 On ch=1 n=b4 v=69
260651 On ch=1 n=b3 v=57
260654 On ch=1 n=b2 v=64
260760 On ch=1 n=b4 v=0
260767 On ch=1 n=b5 v=0
260775 On ch=1 n=b2 v=0
260793 On ch=1 n=b3 v=0
260818 On ch=1 n=a5 v=65
260828 On ch=1 n=a4 v=62
260831 On ch=1 n=a3 v=52
260831 On ch=1 n=a2 v=60
260919 On ch=1 n=a5 v=0
260956 On ch=1 n=a4 v=0
260963 On ch=1 n=a2 v=0
260997 On ch=1 n=g#5 v=108
261000 On ch=1 n=a3 v=0
261010 On ch=1 n=g#2 v=72
261020 On ch=1 n=g#3 v=72
261020 On ch=1 n=g#4 v=72
262674 On ch=1 n=g#5 v=0
262674 On ch=1 n=e5 v=40
262684 On ch=1 n=g#2 v=0
262687 On ch=1 n=c#5 v=40
262687 On ch=1 n=c#3 v=40
263024 On ch=1 n=g#3 v=0
263065 On ch=1 n=a#4 v=40
263072 On ch=1 n=g#4 v=0
263186 On ch=1 n=c#5 v=0
263190 On ch=1 n=c#3 v=0
263221 On ch=1 n=a#4 v=0
263244 On ch=1 n=d#5 v=52
263244 On ch=1 n=c5 v=44
263247 On ch=1 n=g#2 v=44
263254 On ch=1 n=g#3 v=44
263256 On ch=1 n=e5 v=0
263391 On ch=1 n=c5 v=0
263443 On ch=1 n=a#4 v=48
263608 On ch=1 n=a#4 v=0
263625 On ch=1 n=g#4 v=52
263708 On ch=1 n=g#2 v=0
263827 On ch=1 n=g#4 v=0
263827 On ch=1 n=e5 v=53
263827 On ch=1 n=c#5 v=52
263829 On ch=1 n=g4 v=45
263883 On ch=1 n=d#5 v=0
264016 On ch=1 n=c#5 v=0
264025 On ch=1 n=c5 v=48
264182 On ch=1 n=c5 v=0
264224 On ch=1 n=a#4 v=44
264359 On ch=1 n=g4 v=0
264360 On ch=1 n=g#3 v=0
264375 On ch=1 n=a#4 v=0
264426 On ch=1 n=d#5 v=64
264426 On ch=1 n=c5 v=64
264429 On ch=1 n=e5 v=0
264429 On ch=1 n=g#4 v=40
264514 On ch=1 n=g#4 v=0
264530 On ch=1 n=c5 v=0
264542 On ch=1 n=d#5 v=0
264643 On ch=1 n=g#6 v=84
264643 On ch=1 n=g#5 v=84
264645 On ch=1 n=g#4 v=72
264645 On ch=1 n=g#3 v=72
264753 On ch=1 n=g#5 v=0
264764 On ch=1 n=g#4 v=0
264772 On ch=1 n=g#3 v=0
264780 On ch=1 n=g#6 v=0
264788 On ch=1 n=a6 v=84
264788 On ch=1 n=a5 v=84
264788 On ch=1 n=a4 v=72
264791 On ch=1 n=a3 v=72
264948 On ch=1 n=a6 v=0
264948 On ch=1 n=f6 v=87
264948 On ch=1 n=f5 v=87
264948 On ch=1 n=f4 v=75
264951 On ch=1 n=a5 v=0
264951 On ch=1 n=f3 v=75
264954 On ch=1 n=a3 v=0
264954 On ch=1 n=a4 v=0
265069 On ch=1 n=f5 v=0
265077 On ch=1 n=f3 v=0
265100 On ch=1 n=f6 v=0
265107 On ch=1 n=f#6 v=90
265107 On ch=1 n=f#5 v=90
265110 On ch=1 n=f#4 v=78
265110 On ch=1 n=f#3 v=78
265116 On ch=1 n=f4 v=0
265253 On ch=1 n=f#5 v=0
265257 On ch=1 n=f#4 v=0
265275 On ch=1 n=f#6 v=0
265294 On ch=1 n=f#3 v=0
265347 On ch=1 n=e7 v=93
265349 On ch=1 n=e6 v=93
265349 On ch=1 n=e5 v=81
265349 On ch=1 n=e4 v=81
265501 On ch=1 n=e6 v=0
265526 On ch=1 n=e4 v=0
265532 On ch=1 n=e5 v=0
265538 On ch=1 n=c#7 v=96
265543 On ch=1 n=e7 v=0
265548 On ch=1 n=c#5 v=84
265548 On ch=1 n=c#6 v=88
265551 On ch=1 n=c#4 v=78
266093 On ch=1 n=c#7 v=0
266095 On ch=1 n=a6 v=96
266103 On ch=1 n=c#5 v=0
266105 On ch=1 n=a5 v=90
266108 On ch=1 n=a4 v=84
266108 On ch=1 n=a3 v=75
266515 On ch=1 n=a4 v=0
266546 On ch=1 n=a6 v=0
266602 On ch=1 n=a5 v=0
266626 On ch=1 n=a3 v=0
266665 On ch=1 n=g#6 v=83
266668 On ch=1 n=g#5 v=83
266668 On ch=1 n=g#4 v=72
266671 On ch=1 n=g#3 v=77
266742 On ch=1 n=g#3 v=0
266742 On ch=1 n=g#6 v=0
266771 On ch=1 n=g#4 v=0
266790 On ch=1 n=g#5 v=0
266805 On ch=1 n=f#6 v=81
266808 On ch=1 n=f#5 v=79
266808 On ch=1 n=f#4 v=67
266811 On ch=1 n=f#3 v=75
266915 On ch=1 n=f#4 v=0
266920 On ch=1 n=f#3 v=0
266935 On ch=1 n=f#6 v=0
266953 On ch=1 n=f#5 v=0
266968 On ch=1 n=e6 v=78
266968 On ch=1 n=e5 v=77
266968 On ch=1 n=e4 v=66
266971 On ch=1 n=e3 v=72
267071 On ch=1 n=e4 v=0
267097 On ch=1 n=e5 v=0
267099 On ch=1 n=e6 v=0
267113 On ch=1 n=e3 v=0
267125 On ch=1 n=c#6 v=0
267127 On ch=1 n=c#4 v=0
267127 On ch=1 n=a6 v=98
267130 On ch=1 n=a5 v=96
267130 On ch=1 n=a4 v=87
267133 On ch=1 n=a3 v=92
267230 On ch=1 n=a4 v=0
267231 On ch=1 n=a5 v=0
267262 On ch=1 n=a3 v=0
267266 On ch=1 n=a6 v=0
267287 On ch=1 n=g#6 v=90
267287 On ch=1 n=g#5 v=89
267290 On ch=1 n=g#4 v=78
267290 On ch=1 n=g#3 v=84
267391 On ch=1 n=g#5 v=0
267391 On ch=1 n=g#6 v=0
267406 On ch=1 n=g#3 v=0
267435 On ch=1 n=g#4 v=0
267447 On ch=1 n=g6 v=87
267447 On ch=1 n=g5 v=87
267449 On ch=1 n=g4 v=73
267449 On ch=1 n=g3 v=81
267541 On ch=1 n=g3 v=0
267548 On ch=1 n=g4 v=0
267548 On ch=1 n=g6 v=0
267560 On ch=1 n=g5 v=0
267587 On ch=1 n=g#6 v=84
267587 On ch=1 n=g#5 v=83
267589 On ch=1 n=g#4 v=71
267589 On ch=1 n=g#3 v=78
267672 On ch=1 n=g#3 v=0
267690 On ch=1 n=g#5 v=0
267699 On ch=1 n=g#6 v=0
267706 On ch=1 n=g#4 v=0
267746 On ch=1 n=f#6 v=81
267749 On ch=1 n=f#5 v=80
267749 On ch=1 n=f#4 v=68
267749 On ch=1 n=f#3 v=75
267868 On ch=1 n=f#3 v=0
267868 On ch=1 n=f#6 v=0
267872 On ch=1 n=f#5 v=0
267889 On ch=1 n=f#4 v=0
267906 On ch=1 n=e6 v=78
267909 On ch=1 n=e5 v=78
267909 On ch=1 n=e4 v=66
267909 On ch=1 n=e3 v=72
268016 On ch=1 n=e6 v=0
268032 On ch=1 n=e5 v=0
268041 On ch=1 n=e3 v=0
268052 On ch=1 n=e4 v=0
268062 On ch=1 n=a6 v=90
268065 On ch=1 n=a5 v=89
268065 On ch=1 n=a4 v=77
268068 On ch=1 n=a3 v=84
268176 On ch=1 n=a3 v=0
268185 On ch=1 n=a6 v=0
268197 On ch=1 n=a4 v=0
268203 On ch=1 n=a5 v=0
268225 On ch=1 n=g#6 v=90
268225 On ch=1 n=g#5 v=91
268225 On ch=1 n=g#4 v=78
268228 On ch=1 n=g#3 v=84
268321 On ch=1 n=g#4 v=0
268335 On ch=1 n=g#3 v=0
268344 On ch=1 n=g#6 v=0
268351 On ch=1 n=g#5 v=0
268365 On ch=1 n=g6 v=84
268365 On ch=1 n=g5 v=83
268365 On ch=1 n=g4 v=70
268368 On ch=1 n=g3 v=78
268467 On ch=1 n=g4 v=0
268472 On ch=1 n=g5 v=0
268476 On ch=1 n=g6 v=0
268480 On ch=1 n=g3 v=0
268524 On ch=1 n=g#6 v=86
268524 On ch=1 n=g#5 v=92
268524 On ch=1 n=g#4 v=80
268527 On ch=1 n=g#3 v=80
268624 On ch=1 n=g#6 v=0
268646 On ch=1 n=g#4 v=0
268655 On ch=1 n=g#5 v=0
268658 On ch=1 n=g#3 v=0
268760 On ch=1 n=e6 v=66
268760 On ch=1 n=e5 v=66
268762 On ch=1 n=e4 v=53
268762 On ch=1 n=e3 v=60
268819 On ch=1 n=e4 v=0
268821 On ch=1 n=e3 v=0
268827 On ch=1 n=e6 v=0
268830 On ch=1 n=e5 v=0
268844 On ch=1 n=d#6 v=66
268844 On ch=1 n=d#5 v=64
268846 On ch=1 n=d#4 v=55
268846 On ch=1 n=d#3 v=60
268955 On ch=1 n=d#4 v=0
268969 On ch=1 n=d#5 v=0
268979 On ch=1 n=d#6 v=0
268986 On ch=1 n=d#3 v=0
269003 On ch=1 n=c#6 v=72
269003 On ch=1 n=c#5 v=72
269006 On ch=1 n=c#4 v=58
269006 On ch=1 n=c#3 v=66
269128 On ch=1 n=c#5 v=0
269143 On ch=1 n=c#6 v=0
269154 On ch=1 n=c#3 v=0
269165 On ch=1 n=c#4 v=0
269182 On ch=1 n=b5 v=78
269185 On ch=1 n=b4 v=77
269185 On ch=1 n=b3 v=67
269185 On ch=1 n=b2 v=72
269303 On ch=1 n=b4 v=0
269304 On ch=1 n=b2 v=0
269311 On ch=1 n=b3 v=0
269325 On ch=1 n=b5 v=0
269345 On ch=1 n=a5 v=71
269345 On ch=1 n=a4 v=85
269345 On ch=1 n=a3 v=72
269348 On ch=1 n=a2 v=78
269494 On ch=1 n=a2 v=0
269499 On ch=1 n=a4 v=0
269513 On ch=1 n=a5 v=0
269520 On ch=1 n=a3 v=0
269534 On ch=1 n=g#5 v=100
269544 On ch=1 n=g#4 v=84
269546 On ch=1 n=g#3 v=79
269546 On ch=1 n=g#2 v=84
270658 On ch=1 n=g#3 v=0
270661 On ch=1 n=g#2 v=0
270661 On ch=1 n=b4 v=56
270664 On ch=1 n=e2 v=48
270671 On ch=1 n=e3 v=48
271124 On ch=1 n=e2 v=0
271185 On ch=1 n=b4 v=0
271204 On ch=1 n=e5 v=68
271207 On ch=1 n=e3 v=0
271208 On ch=1 n=g#5 v=0
271218 On ch=1 n=g#4 v=0
271223 On ch=1 n=a4 v=39
271226 On ch=1 n=a2 v=43
271233 On ch=1 n=a3 v=40
271243 On ch=1 n=c#5 v=43
271327 Par ch=1 c=64 v=127
271689 On ch=1 n=a3 v=0
271710 On ch=1 n=a4 v=0
271736 On ch=1 n=c#5 v=0
271772 On ch=1 n=a2 v=0
271781 On ch=1 n=g#5 v=65
271783 On ch=1 n=e4 v=32
271786 On ch=1 n=e3 v=43
271791 On ch=1 n=b4 v=43
271794 On ch=1 n=e5 v=0
271803 Par ch=1 c=64 v=0
271803 On ch=1 n=g#4 v=43
271813 On ch=1 n=b3 v=43
271926 Par ch=1 c=64 v=127
271935 On ch=1 n=g#5 v=0
271954 On ch=1 n=f#5 v=64
272151 On ch=1 n=f#5 v=0
272153 On ch=1 n=e5 v=66
272230 On ch=1 n=e3 v=0
272238 On ch=1 n=e4 v=0
272245 On ch=1 n=e5 v=0
272320 On ch=1 n=g#4 v=0
272343 On ch=1 n=b4 v=0
272352 On ch=1 n=e5 v=62
272354 On ch=1 n=c#5 v=70
272354 On ch=1 n=a3 v=58
272364 On ch=1 n=e4 v=55
272368 On ch=1 n=b3 v=0
272384 Par ch=1 c=64 v=0
272504 On ch=1 n=c#5 v=0
272510 Par ch=1 c=64 v=127
272553 On ch=1 n=b4 v=88
272717 On ch=1 n=b4 v=0
272755 On ch=1 n=a4 v=56
272852 On ch=1 n=e4 v=0
272875 On ch=1 n=e5 v=0
272956 On ch=1 n=b3 v=39
272956 On ch=1 n=f#5 v=59
272976 On ch=1 n=d#4 v=36
272996 Par ch=1 c=64 v=0
272999 On ch=1 n=a3 v=0
273122 Par ch=1 c=64 v=127
273475 On ch=1 n=a4 v=0
273490 On ch=1 n=f#5 v=0
273596 On ch=1 n=d#4 v=0
273598 On ch=1 n=e5 v=56
273598 On ch=1 n=e4 v=33
273598 On ch=1 n=g#4 v=33
273600 On ch=1 n=e3 v=33
273610 On ch=1 n=b3 v=0
273731 On ch=1 n=g#4 v=0
273735 On ch=1 n=e4 v=0
273817 On ch=1 n=e5 v=0
273818 On ch=1 n=e3 v=0
273988 Par ch=1 c=64 v=0
274253 On ch=1 n=f#4 v=42
274292 On ch=1 n=f#4 v=0
274432 On ch=1 n=g#4 v=44
274471 On ch=1 n=g#4 v=0
274592 On ch=1 n=e4 v=47
274634 On ch=1 n=e4 v=0
274774 On ch=1 n=d#4 v=49
274813 On ch=1 n=d#4 v=0
274933 On ch=1 n=e4 v=52
274992 On ch=1 n=e4 v=0
275112 On ch=1 n=c#4 v=52
275152 On ch=1 n=c#4 v=0
275282 On ch=1 n=g#5 v=46
275294 On ch=1 n=g#4 v=40
275294 On ch=1 n=c4 v=52
275304 On ch=1 n=d#5 v=33
275334 On ch=1 n=c4 v=0
275451 On ch=1 n=a#3 v=46
275493 On ch=1 n=a#3 v=0
275633 On ch=1 n=g#3 v=40
275672 On ch=1 n=g#3 v=0
275708 On ch=1 n=g#5 v=0
275725 On ch=1 n=g#4 v=0
275756 On ch=1 n=d#5 v=0
275786 On ch=1 n=g5 v=40
275796 On ch=1 n=a#4 v=47
275798 On ch=1 n=e4 v=52
275852 On ch=1 n=e4 v=0
275972 On ch=1 n=d#4 v=52
276011 On ch=1 n=d#4 v=0
276124 On ch=1 n=a#4 v=0
276154 On ch=1 n=e5 v=47
276154 On ch=1 n=c#4 v=49
276193 On ch=1 n=c#4 v=0
276262 On ch=1 n=g5 v=0
276304 On ch=1 n=g#5 v=46
276316 On ch=1 n=g#4 v=40
276316 On ch=1 n=c4 v=46
276323 On ch=1 n=e5 v=0
276326 On ch=1 n=d#5 v=34
276353 On ch=1 n=c4 v=0
276493 On ch=1 n=a#3 v=43
276532 On ch=1 n=a#3 v=0
276652 On ch=1 n=g#3 v=40
276711 On ch=1 n=g#3 v=0
276815 On ch=1 n=g#4 v=0
276824 On ch=1 n=g5 v=52
276834 On ch=1 n=a#4 v=58
276834 On ch=1 n=e4 v=52
276835 On ch=1 n=g#5 v=0
276871 On ch=1 n=e4 v=0
276889 On ch=1 n=d#5 v=0
277003 On ch=1 n=a#4 v=0
277008 On ch=1 n=f#5 v=59
277011 On ch=1 n=d#4 v=52
277050 On ch=1 n=d#4 v=0
277170 On ch=1 n=e5 v=56
277170 On ch=1 n=c#4 v=48
277171 On ch=1 n=f#5 v=0
277209 On ch=1 n=c#4 v=0
277326 On ch=1 n=g5 v=0
277336 On ch=1 n=g#5 v=55
277346 On ch=1 n=g#4 v=48
277349 On ch=1 n=c4 v=44
277356 On ch=1 n=d#5 v=41
277379 On ch=1 n=e5 v=0
277383 On ch=1 n=c4 v=0
277523 On ch=1 n=a#3 v=40
277562 On ch=1 n=a#3 v=0
277682 On ch=1 n=g#3 v=40
277724 On ch=1 n=g#3 v=0
277740 On ch=1 n=g#5 v=0
277854 On ch=1 n=e5 v=48
277864 On ch=1 n=c#5 v=42
277864 On ch=1 n=c#4 v=43
277873 On ch=1 n=d#5 v=0
277900 On ch=1 n=c#4 v=0
278021 On ch=1 n=c#5 v=0
278024 On ch=1 n=d#4 v=46
278041 On ch=1 n=e5 v=0
278052 On ch=1 n=g#4 v=0
278080 On ch=1 n=d#4 v=0
278200 On ch=1 n=c#5 v=40
278200 On ch=1 n=e4 v=49
278239 On ch=1 n=e4 v=0
278369 On ch=1 n=a5 v=57
278379 On ch=1 n=c5 v=52
278382 On ch=1 n=f#4 v=52
278399 On ch=1 n=a4 v=52
278415 On ch=1 n=f#4 v=0
278418 On ch=1 n=c#5 v=0
278536 On ch=1 n=g#4 v=52
278580 On ch=1 n=g#4 v=0
278718 On ch=1 n=f#4 v=49
278744 On ch=1 n=a5 v=0
278754 On ch=1 n=f#4 v=0
278852 On ch=1 n=a4 v=0
278867 On ch=1 n=g#5 v=57
278877 On ch=1 n=g#4 v=52
278877 On ch=1 n=e4 v=46
278893 On ch=1 n=c5 v=0
278914 On ch=1 n=c#5 v=52
278930 On ch=1 n=e4 v=0
279051 On ch=1 n=d#4 v=43
279090 On ch=1 n=d#4 v=0
279230 On ch=1 n=c#4 v=40
279272 On ch=1 n=c#4 v=0
279375 On ch=1 n=c#5 v=0
279392 On ch=1 n=d#5 v=52
279392 On ch=1 n=c4 v=40
279431 On ch=1 n=c4 v=0
279571 On ch=1 n=a#3 v=40
279611 On ch=1 n=a#3 v=0
279637 On ch=1 n=g#5 v=0
279688 On ch=1 n=g#4 v=0
279751 On ch=1 n=g#3 v=40
279790 On ch=1 n=g#3 v=0
279871 On ch=1 n=d#5 v=0
279903 On ch=1 n=g5 v=53
279913 On ch=1 n=e4 v=41
279916 On ch=1 n=a#4 v=58
279920 On ch=1 n=e3 v=41
280032 On ch=1 n=e4 v=0
280039 On ch=1 n=e3 v=0
280089 On ch=1 n=d#3 v=49
280097 On ch=1 n=d#4 v=50
280198 On ch=1 n=d#3 v=0
280208 On ch=1 n=d#4 v=0
280252 On ch=1 n=e5 v=60
280252 On ch=1 n=c#3 v=58
280258 On ch=1 n=c#4 v=57
280263 On ch=1 n=a#4 v=0
280377 On ch=1 n=c#3 v=0
280381 On ch=1 n=c#4 v=0
280411 On ch=1 n=e5 v=0
280413 On ch=1 n=g5 v=0
280414 Par ch=1 c=64 v=127
280424 On ch=1 n=g#5 v=60
280433 On ch=1 n=c3 v=69
280434 On ch=1 n=c4 v=69
280437 On ch=1 n=g#4 v=42
280457 On ch=1 n=d#5 v=54
280556 On ch=1 n=c3 v=0
280559 On ch=1 n=c4 v=0
280610 On ch=1 n=a#3 v=76
280611 On ch=1 n=a#2 v=78
280718 On ch=1 n=a#2 v=0
280719 On ch=1 n=a#3 v=0
280767 On ch=1 n=g#2 v=77
280774 On ch=1 n=g#3 v=79
280839 On ch=1 n=g#5 v=0
280892 On ch=1 n=g#2 v=0
280895 On ch=1 n=g#3 v=0
280917 Par ch=1 c=64 v=0
280925 On ch=1 n=d#5 v=0
280928 On ch=1 n=g#4 v=0
280945 On ch=1 n=g5 v=55
280954 On ch=1 n=e4 v=43
280957 On ch=1 n=e3 v=43
280967 On ch=1 n=a#4 v=48
281060 On ch=1 n=e4 v=0
281063 On ch=1 n=e3 v=0
281109 On ch=1 n=d#4 v=50
281112 On ch=1 n=d#3 v=50
281189 On ch=1 n=a#4 v=0
281209 On ch=1 n=f#5 v=62
281234 On ch=1 n=d#3 v=0
281235 On ch=1 n=d#4 v=0
281288 On ch=1 n=f#5 v=0
281292 On ch=1 n=c#4 v=61
281293 On ch=1 n=e5 v=62
281293 On ch=1 n=c#3 v=60
281418 On ch=1 n=c#3 v=0
281421 On ch=1 n=c#4 v=0
281462 Par ch=1 c=64 v=127
281465 On ch=1 n=g#5 v=61
281475 On ch=1 n=g#4 v=44
281475 On ch=1 n=c4 v=72
281482 On ch=1 n=c3 v=71
281493 On ch=1 n=e5 v=0
281495 On ch=1 n=d#5 v=56
281513 On ch=1 n=g5 v=0
281584 On ch=1 n=c4 v=0
281588 On ch=1 n=c3 v=0
281631 On ch=1 n=a#2 v=79
281633 On ch=1 n=a#3 v=75
281759 On ch=1 n=a#2 v=0
281760 On ch=1 n=a#3 v=0
281808 On ch=1 n=g#3 v=84
281813 On ch=1 n=g#2 v=83
281874 On ch=1 n=d#5 v=0
281935 On ch=1 n=g#3 v=0
281938 On ch=1 n=g#2 v=0
281961 Par ch=1 c=64 v=0
281966 On ch=1 n=g#5 v=0
281991 On ch=1 n=c#4 v=45
281993 On ch=1 n=e5 v=57
281996 On ch=1 n=c#3 v=45
281996 On ch=1 n=c#5 v=57
282017 On ch=1 n=g#4 v=0
282101 On ch=1 n=c#4 v=0
282109 On ch=1 n=c#3 v=0
282150 On ch=1 n=c#5 v=0
282153 On ch=1 n=d#4 v=48
282155 On ch=1 n=d#3 v=47
282162 On ch=1 n=e5 v=0
282231 On ch=1 n=c#5 v=58
282257 On ch=1 n=d#4 v=0
282268 On ch=1 n=d#3 v=0
282310 On ch=1 n=c#5 v=0
282327 On ch=1 n=e4 v=52
282329 On ch=1 n=c#5 v=82
282333 On ch=1 n=e3 v=52
282436 On ch=1 n=e4 v=0
282444 On ch=1 n=e3 v=0
282482 On ch=1 n=a5 v=64
282485 On ch=1 n=a4 v=58
282489 On ch=1 n=c#5 v=0
282495 On ch=1 n=c5 v=58
282496 On ch=1 n=f#3 v=56
282501 On ch=1 n=f#4 v=56
282619 On ch=1 n=f#3 v=0
282621 On ch=1 n=f#4 v=0
282665 On ch=1 n=g#4 v=61
282672 On ch=1 n=g#3 v=61
282778 On ch=1 n=g#4 v=0
282794 On ch=1 n=g#3 v=0
282821 Par ch=1 c=64 v=127
282851 On ch=1 n=f#3 v=65
282855 On ch=1 n=f#4 v=65
282908 On ch=1 n=a4 v=0
282963 On ch=1 n=f#3 v=0
282965 On ch=1 n=a5 v=0
282966 On ch=1 n=f#4 v=0
283005 On ch=1 n=g#5 v=64
283006 On ch=1 n=c5 v=0
283012 On ch=1 n=e4 v=70
283015 On ch=1 n=c#5 v=59
283018 On ch=1 n=e3 v=69
283019 On ch=1 n=g#4 v=80
283130 On ch=1 n=e4 v=0
283142 On ch=1 n=e3 v=0
283150 On ch=1 n=g#4 v=0
283159 On ch=1 n=g#5 v=0
283189 On ch=1 n=d#4 v=74
283197 On ch=1 n=c#5 v=0
283201 On ch=1 n=d#3 v=73
283300 On ch=1 n=d#4 v=0
283308 On ch=1 n=d#3 v=0
283313 Par ch=1 c=64 v=0
283341 On ch=1 n=c#6 v=84
283350 On ch=1 n=c#5 v=59
283353 On ch=1 n=c#3 v=47
283358 On ch=1 n=c#4 v=46
283487 On ch=1 n=c#5 v=0
283527 On ch=1 n=f5 v=59
283535 On ch=1 n=c#3 v=0
283539 On ch=1 n=g#4 v=40
283541 On ch=1 n=b5 v=54
283679 On ch=1 n=f5 v=0
283706 On ch=1 n=d#5 v=60
283835 On ch=1 n=d#5 v=0
283852 On ch=1 n=c#6 v=0
283874 On ch=1 n=c#5 v=61
283936 On ch=1 n=g#4 v=0
283964 On ch=1 n=b5 v=0
283970 On ch=1 n=c#4 v=0
284035 On ch=1 n=c#5 v=0
284039 On ch=1 n=c#6 v=79
284045 On ch=1 n=a5 v=61
284049 On ch=1 n=a4 v=41
284051 On ch=1 n=f#4 v=49
284178 On ch=1 n=a5 v=0
284226 On ch=1 n=g#5 v=60
284386 On ch=1 n=g#5 v=0
284388 On ch=1 n=f#5 v=62
284422 On ch=1 n=f#4 v=0
284459 On ch=1 n=a4 v=0
284485 On ch=1 n=c#6 v=0
284551 On ch=1 n=f#5 v=0
284567 On ch=1 n=g#4 v=49
284569 On ch=1 n=c#6 v=86
284575 On ch=1 n=c#4 v=50
284577 On ch=1 n=f5 v=62
284579 On ch=1 n=b5 v=56
284689 On ch=1 n=g#4 v=0
284722 On ch=1 n=f5 v=0
284727 On ch=1 n=d#5 v=62
284737 On ch=1 n=a4 v=50
284908 On ch=1 n=a4 v=0
284908 On ch=1 n=b4 v=50
284911 On ch=1 n=d#5 v=0
284911 On ch=1 n=c#5 v=62
284951 On ch=1 n=c#6 v=0
284992 On ch=1 n=c#4 v=0
285024 On ch=1 n=b5 v=0
285047 On ch=1 n=c#5 v=0
285053 On ch=1 n=b4 v=0
285082 On ch=1 n=a4 v=50
285086 On ch=1 n=a5 v=62
285087 On ch=1 n=c#6 v=81
285090 On ch=1 n=f#4 v=43
285200 On ch=1 n=a4 v=0
285219 On ch=1 n=a5 v=0
285246 On ch=1 n=g#5 v=63
285246 On ch=1 n=b4 v=50
285389 On ch=1 n=b4 v=0
285399 On ch=1 n=g#5 v=0
285419 On ch=1 n=a4 v=50
285423 On ch=1 n=f#5 v=64
285434 On ch=1 n=f#4 v=0
285448 On ch=1 n=c#6 v=0
285518 On ch=1 n=a4 v=0
285551 On ch=1 n=f#5 v=0
285581 On ch=1 n=f5 v=63
285583 On ch=1 n=c#6 v=88
285588 On ch=1 n=c#4 v=52
285594 On ch=1 n=g#4 v=51
285595 On ch=1 n=b5 v=57
285751 On ch=1 n=g#4 v=0
285756 On ch=1 n=d#5 v=63
285758 On ch=1 n=a4 v=52
285762 On ch=1 n=f5 v=0
285885 On ch=1 n=a4 v=0
285895 On ch=1 n=d#5 v=0
285934 On ch=1 n=c#5 v=64
285942 On ch=1 n=b4 v=52
286005 On ch=1 n=c#6 v=0
286006 On ch=1 n=c#4 v=0
286048 On ch=1 n=c#5 v=0
286052 On ch=1 n=b4 v=0
286088 On ch=1 n=b5 v=0
286091 On ch=1 n=f#5 v=64
286096 On ch=1 n=a4 v=51
286099 On ch=1 n=f#4 v=46
286100 On ch=1 n=c#6 v=95
286248 On ch=1 n=a4 v=0
286279 On ch=1 n=g#5 v=65
286281 On ch=1 n=f#5 v=0
286420 On ch=1 n=g#5 v=0
286450 On ch=1 n=c#6 v=0
286455 On ch=1 n=a5 v=65
286462 On ch=1 n=f#6 v=81
286473 On ch=1 n=c#5 v=52
286588 On ch=1 n=a5 v=0
286598 On ch=1 n=c#5 v=0
286618 On ch=1 n=d5 v=54
286624 On ch=1 n=f6 v=82
286624 On ch=1 n=d5 v=54
286633 On ch=1 n=b5 v=66
286647 On ch=1 n=f#6 v=0
286784 On ch=1 n=b5 v=0
286800 On ch=1 n=c#6 v=66
286936 On ch=1 n=c#6 v=0
286955 On ch=1 n=b5 v=66
287009 On ch=1 n=d5 v=0
287091 On ch=1 n=d5 v=0
287112 On ch=1 n=b5 v=0
287139 On ch=1 n=c#5 v=54
287142 On ch=1 n=f#6 v=77
287154 On ch=1 n=a5 v=66
287200 On ch=1 n=f6 v=0
287266 On ch=1 n=a5 v=0
287267 On ch=1 n=c#5 v=0
287299 Par ch=1 c=64 v=127
287321 On ch=1 n=g#5 v=66
287324 On ch=1 n=g#3 v=62
287329 On ch=1 n=g#4 v=62
287410 On ch=1 n=f#4 v=0
287450 On ch=1 n=g#5 v=0
287470 On ch=1 n=g#4 v=0
287479 On ch=1 n=g#3 v=0
287485 On ch=1 n=a4 v=63
287486 On ch=1 n=a3 v=62
287489 On ch=1 n=f#5 v=67
287543 On ch=1 n=f#6 v=0
287632 On ch=1 n=f#5 v=0
287654 On ch=1 n=a3 v=0
287657 On ch=1 n=a4 v=0
287663 On ch=1 n=g#6 v=92
287668 On ch=1 n=g#3 v=63
287673 On ch=1 n=f#6 v=68
287674 On ch=1 n=g#4 v=63
287675 On ch=1 n=c6 v=61
287770 Par ch=1 c=64 v=0
287798 On ch=1 n=g#3 v=0
287812 On ch=1 n=g#4 v=0
287826 On ch=1 n=c6 v=0
287829 On ch=1 n=a#5 v=62
288004 On ch=1 n=a#5 v=0
288010 On ch=1 n=g#5 v=61
288045 On ch=1 n=f#6 v=0
288052 On ch=1 n=g#6 v=0
288154 On ch=1 n=g#5 v=0
288180 On ch=1 n=c#5 v=51
288181 On ch=1 n=g#6 v=87
288184 On ch=1 n=g#4 v=57
288187 On ch=1 n=e6 v=63
288341 On ch=1 n=d#6 v=64
288342 On ch=1 n=e6 v=0
288347 On ch=1 n=c#5 v=0
288351 On ch=1 n=d#5 v=50
288490 On ch=1 n=d#6 v=0
288520 On ch=1 n=c#6 v=62
288525 On ch=1 n=e5 v=52
288534 On ch=1 n=d#5 v=0
288585 On ch=1 n=g#6 v=0
288594 On ch=1 n=g#4 v=0
288643 On ch=1 n=c#6 v=0
288674 On ch=1 n=e5 v=0
288699 On ch=1 n=c6 v=63
288699 On ch=1 n=g#6 v=94
288703 On ch=1 n=d#5 v=52
288704 On ch=1 n=g#4 v=58
288712 On ch=1 n=f#6 v=70
288834 On ch=1 n=d#5 v=0
288844 On ch=1 n=c6 v=0
288855 On ch=1 n=e5 v=51
288862 On ch=1 n=a#5 v=64
289017 On ch=1 n=e5 v=0
289044 On ch=1 n=g#6 v=0
289045 On ch=1 n=g#5 v=63
289046 On ch=1 n=a#5 v=0
289046 On ch=1 n=f#5 v=51
289056 On ch=1 n=g#4 v=0
289137 On ch=1 n=f#6 v=0
289146 On ch=1 n=g#5 v=0
289192 On ch=1 n=e6 v=61
289195 On ch=1 n=f#5 v=0
289195 On ch=1 n=c#5 v=54
289197 On ch=1 n=g#6 v=89
289343 On ch=1 n=c#5 v=0
289349 On ch=1 n=e6 v=0
289363 Par ch=1 c=64 v=127
289370 On ch=1 n=d#6 v=66
289382 On ch=1 n=d#4 v=66
289383 On ch=1 n=d#5 v=67
289525 On ch=1 n=d#6 v=0
289557 On ch=1 n=d#5 v=0
289561 On ch=1 n=e4 v=67
289567 On ch=1 n=c#6 v=66
289567 On ch=1 n=e5 v=66
289569 On ch=1 n=d#4 v=0
289645 On ch=1 n=g#6 v=0
289670 On ch=1 n=e5 v=0
289681 On ch=1 n=e4 v=0
289689 On ch=1 n=c#6 v=0
289718 On ch=1 n=g#6 v=96
289719 On ch=1 n=c6 v=67
289721 On ch=1 n=g#4 v=67
289721 On ch=1 n=g#3 v=67
289728 On ch=1 n=f#6 v=72
289831 Par ch=1 c=64 v=0
289855 On ch=1 n=g#4 v=0
289874 On ch=1 n=g#3 v=0
289895 On ch=1 n=a#5 v=65
289901 On ch=1 n=c6 v=0
290041 On ch=1 n=a#5 v=0
290059 On ch=1 n=f#5 v=54
290060 On ch=1 n=g#5 v=67
290132 On ch=1 n=g#6 v=0
290138 On ch=1 n=f#6 v=0
290190 On ch=1 n=g#5 v=0
290195 On ch=1 n=f#5 v=0
290230 On ch=1 n=c#6 v=66
290236 On ch=1 n=g#6 v=97
290239 On ch=1 n=c#5 v=61
290245 On ch=1 n=e5 v=61
290370 On ch=1 n=c#6 v=0
290406 On ch=1 n=e5 v=0
290422 On ch=1 n=d#6 v=67
290508 On ch=1 n=g#6 v=0
290541 On ch=1 n=d#6 v=0
290571 On ch=1 n=g#5 v=54
290573 On ch=1 n=e6 v=68
290577 On ch=1 n=c#7 v=90
290652 On ch=1 n=c#5 v=0
290736 On ch=1 n=g#5 v=0
290752 On ch=1 n=e6 v=0
290752 On ch=1 n=f#6 v=74
290753 On ch=1 n=a5 v=62
290759 On ch=1 n=c#7 v=0
290759 On ch=1 n=c7 v=91
290765 On ch=1 n=c#5 v=62
290878 On ch=1 n=f#6 v=0
290916 On ch=1 n=g#6 v=74
291058 On ch=1 n=g#6 v=0
291102 On ch=1 n=f#6 v=73
291208 On ch=1 n=a5 v=0
291236 On ch=1 n=f#6 v=0
291270 On ch=1 n=e6 v=75
291280 On ch=1 n=c#7 v=93
291287 On ch=1 n=g#5 v=63
291305 On ch=1 n=c7 v=0
291394 On ch=1 n=e6 v=0
291396 On ch=1 n=c#7 v=0
291422 On ch=1 n=g#5 v=0
291448 On ch=1 n=d#6 v=74
291480 On ch=1 n=c#5 v=0
291609 On ch=1 n=c#6 v=74
291620 On ch=1 n=d#6 v=0
291778 Par ch=1 c=64 v=127
291784 On ch=1 n=c#6 v=0
291788 On ch=1 n=c#7 v=90
291792 On ch=1 n=a3 v=77
291798 On ch=1 n=e6 v=91
291798 On ch=1 n=a6 v=84
291812 On ch=1 n=a2 v=76
291942 On ch=1 n=e6 v=0
291951 On ch=1 n=a3 v=0
291952 On ch=1 n=a2 v=0
291954 On ch=1 n=c#3 v=74
291968 On ch=1 n=d6 v=76
291969 On ch=1 n=c#4 v=72
292102 On ch=1 n=c#3 v=0
292106 On ch=1 n=d6 v=0
292126 On ch=1 n=c#4 v=0
292136 On ch=1 n=d4 v=84
292136 On ch=1 n=c#6 v=77
292146 On ch=1 n=d3 v=85
292218 On ch=1 n=a6 v=0
292275 On ch=1 n=c#7 v=0
292311 On ch=1 n=c#6 v=0
292328 On ch=1 n=d3 v=0
292328 On ch=1 n=b6 v=79
292335 On ch=1 n=e3 v=109
292338 On ch=1 n=g#6 v=73
292341 On ch=1 n=e4 v=104
292347 On ch=1 n=e6 v=78
292350 On ch=1 n=d4 v=0
292381 Par ch=1 c=64 v=0
292499 Par ch=1 c=64 v=127
292502 On ch=1 n=e6 v=0
292512 On ch=1 n=c#6 v=80
292605 On ch=1 n=e3 v=0
292686 On ch=1 n=b5 v=79
292696 On ch=1 n=c#6 v=0
292715 On ch=1 n=e4 v=0
292774 On ch=1 n=g#6 v=0
292804 On ch=1 n=b6 v=0
292807 On ch=1 n=b5 v=0
292838 On ch=1 n=b6 v=83
292845 On ch=1 n=g3 v=67
292847 On ch=1 n=g2 v=66
292848 On ch=1 n=g6 v=78
292849 On ch=1 n=d6 v=83
292887 Par ch=1 c=64 v=0
292988 On ch=1 n=g3 v=0
293004 On ch=1 n=g2 v=0
293005 Par ch=1 c=64 v=127
293014 On ch=1 n=d6 v=0
293019 On ch=1 n=c6 v=83
293023 On ch=1 n=b3 v=77
293044 On ch=1 n=b2 v=80
293173 On ch=1 n=b2 v=0
293179 On ch=1 n=b3 v=0
293200 On ch=1 n=b5 v=82
293202 On ch=1 n=c4 v=90
293204 On ch=1 n=c6 v=0
293221 On ch=1 n=c3 v=90
293348 On ch=1 n=c4 v=0
293358 On ch=1 n=g6 v=0
293361 On ch=1 n=c3 v=0
293371 On ch=1 n=b5 v=0
293381 On ch=1 n=a6 v=86
293386 On ch=1 n=b6 v=0
293394 On ch=1 n=f#6 v=80
293398 On ch=1 n=d6 v=87
293400 On ch=1 n=d3 v=110
293403 On ch=1 n=d4 v=112
293440 Par ch=1 c=64 v=0
293549 On ch=1 n=d6 v=0
293558 Par ch=1 c=64 v=127
293569 On ch=1 n=b5 v=88
293685 On ch=1 n=d3 v=0
293712 On ch=1 n=d4 v=0
293752 On ch=1 n=a5 v=88
293759 On ch=1 n=b5 v=0
293819 On ch=1 n=a6 v=0
293850 On ch=1 n=f#6 v=0
293876 On ch=1 n=a5 v=0
293895 On ch=1 n=f3 v=70
293896 On ch=1 n=a6 v=90
293901 On ch=1 n=c6 v=89
293904 On ch=1 n=f2 v=70
293909 On ch=1 n=f6 v=84
293935 Par ch=1 c=64 v=0
294044 On ch=1 n=f3 v=0
294052 On ch=1 n=f2 v=0
294053 Par ch=1 c=64 v=127
294084 On ch=1 n=c6 v=0
294086 On ch=1 n=a3 v=82
294088 On ch=1 n=a2 v=84
294088 On ch=1 n=a#5 v=91
294218 On ch=1 n=a2 v=0
294221 On ch=1 n=a#5 v=0
294223 On ch=1 n=a3 v=0
294265 On ch=1 n=a#3 v=97
294270 On ch=1 n=a5 v=92
294280 On ch=1 n=a#2 v=97
294426 On ch=1 n=a5 v=0
294431 On ch=1 n=a#2 v=0
294442 On ch=1 n=g6 v=94
294445 On ch=1 n=c6 v=95
294451 On ch=1 n=c4 v=117
294452 On ch=1 n=a6 v=0
294452 On ch=1 n=e6 v=88
294453 On ch=1 n=a#3 v=0
294465 On ch=1 n=c3 v=116
294491 On ch=1 n=f6 v=0
294511 Par ch=1 c=64 v=0
294610 On ch=1 n=c6 v=0
294629 Par ch=1 c=64 v=127
294631 On ch=1 n=a5 v=95
294748 On ch=1 n=c3 v=0
294770 On ch=1 n=c4 v=0
294781 On ch=1 n=a5 v=0
294810 On ch=1 n=g5 v=97
294872 On ch=1 n=e6 v=0
294979 On ch=1 n=g5 v=0
294980 On ch=1 n=f#6 v=98
294984 On ch=1 n=g6 v=0
294990 On ch=1 n=d#6 v=93
294994 On ch=1 n=a3 v=76
295002 On ch=1 n=a4 v=76
295002 On ch=1 n=c6 v=93
295014 Par ch=1 c=64 v=0
295132 Par ch=1 c=64 v=127
295190 On ch=1 n=f#5 v=99
295291 On ch=1 n=d#6 v=0
295321 On ch=1 n=a4 v=0
295338 On ch=1 n=f#6 v=0
295349 On ch=1 n=a3 v=0
295363 On ch=1 n=e6 v=100
295370 On ch=1 n=e5 v=94
295372 On ch=1 n=a#4 v=100
295372 On ch=1 n=g5 v=95
295373 On ch=1 n=c#6 v=94
295377 On ch=1 n=a#3 v=101
295380 On ch=1 n=f#5 v=0
295412 On ch=1 n=c6 v=0
295537 On ch=1 n=c#6 v=0
295544 On ch=1 n=e5 v=0
295559 On ch=1 n=g5 v=0
295562 On ch=1 n=d#6 v=102
295568 On ch=1 n=b3 v=115
295571 On ch=1 n=a#4 v=0
295574 On ch=1 n=f#5 v=95
295575 On ch=1 n=e6 v=0
295581 On ch=1 n=b5 v=96
295583 On ch=1 n=d#5 v=96
295588 On ch=1 n=b4 v=116
295596 On ch=1 n=a#3 v=0
295689 On ch=1 n=b4 v=0
295695 On ch=1 n=b3 v=0
295861 On ch=1 n=b5 v=0
295863 On ch=1 n=d#5 v=0
295889 On ch=1 n=f#5 v=0
295928 On ch=1 n=d#6 v=0
295938 Par ch=1 c=64 v=0
296117 Par ch=1 c=64 v=127
296186 On ch=1 n=d#3 v=84
296188 On ch=1 n=d#4 v=106
296196 On ch=1 n=b7 v=114
296199 On ch=1 n=b6 v=93
296209 On ch=1 n=a6 v=95
296219 On ch=1 n=f#7 v=93
296293 On ch=1 n=d#4 v=0
296305 On ch=1 n=d#3 v=0
296336 On ch=1 n=e4 v=84
296342 On ch=1 n=e3 v=84
296466 On ch=1 n=e4 v=0
296519 On ch=1 n=a6 v=0
296523 On ch=1 n=f#4 v=83
296523 On ch=1 n=f#3 v=85
296543 On ch=1 n=e3 v=0
296591 On ch=1 n=b6 v=0
296615 On ch=1 n=f#7 v=0
296642 On ch=1 n=f#3 v=0
296672 On ch=1 n=f#4 v=0
296687 On ch=1 n=g7 v=112
296699 On ch=1 n=g4 v=109
296703 On ch=1 n=g3 v=85
296710 On ch=1 n=g6 v=93
296710 On ch=1 n=b6 v=94
296717 On ch=1 n=e7 v=91
296737 Par ch=1 c=64 v=0
296741 On ch=1 n=b7 v=0
296834 On ch=1 n=g3 v=0
296855 Par ch=1 c=64 v=127
296870 On ch=1 n=a4 v=86
296870 On ch=1 n=a3 v=86
296875 On ch=1 n=g4 v=0
297013 On ch=1 n=a4 v=0
297038 On ch=1 n=a3 v=0
297078 On ch=1 n=b3 v=87
297079 On ch=1 n=b4 v=88
297083 On ch=1 n=g6 v=0
297171 On ch=1 n=g7 v=0
297187 On ch=1 n=b4 v=0
297190 On ch=1 n=b3 v=0
297208 On ch=1 n=e7 v=0
297214 On ch=1 n=b6 v=0
297244 On ch=1 n=e7 v=105
297263 On ch=1 n=c4 v=90
297264 Par ch=1 c=64 v=0
297264 On ch=1 n=c7 v=86
297267 On ch=1 n=e6 v=87
297268 On ch=1 n=g6 v=84
297269 On ch=1 n=c5 v=110
297382 Par ch=1 c=64 v=127
297416 On ch=1 n=c5 v=0
297431 On ch=1 n=d4 v=87
297434 On ch=1 n=c4 v=0
297438 On ch=1 n=d5 v=88
297568 On ch=1 n=d4 v=0
297593 On ch=1 n=d5 v=0
297622 On ch=1 n=e5 v=89
297628 On ch=1 n=e4 v=90
297725 On ch=1 n=g6 v=0
297741 On ch=1 n=e5 v=0
297752 On ch=1 n=e7 v=0
297758 On ch=1 n=e6 v=0
297758 On ch=1 n=c7 v=0
297800 On ch=1 n=e4 v=0
297804 On ch=1 n=c7 v=98
297806 On ch=1 n=f#5 v=113
297817 On ch=1 n=c6 v=76
297824 On ch=1 n=f#4 v=93
297824 On ch=1 n=e6 v=77
297824 On ch=1 n=a6 v=78
297844 Par ch=1 c=64 v=0
297947 On ch=1 n=f#5 v=0
297962 Par ch=1 c=64 v=127
297974 On ch=1 n=f#4 v=0
298015 On ch=1 n=g4 v=93
298020 On ch=1 n=g5 v=93
298150 On ch=1 n=g4 v=0
298195 On ch=1 n=g5 v=0
298209 On ch=1 n=c6 v=0
298210 On ch=1 n=a4 v=92
298211 On ch=1 n=c7 v=0
298215 On ch=1 n=a5 v=92
298321 On ch=1 n=a4 v=0
298339 On ch=1 n=a6 v=0
298390 On ch=1 n=e6 v=0
298401 On ch=1 n=a5 v=0
298409 On ch=1 n=b6 v=90
298421 On ch=1 n=f#6 v=71
298421 On ch=1 n=d#6 v=72
298421 On ch=1 n=b5 v=68
298426 On ch=1 n=b4 v=95
298566 On ch=1 n=b4 v=0
298721 Par ch=1 c=64 v=0
298733 On ch=1 n=b6 v=0
298747 On ch=1 n=d#6 v=0
298750 On ch=1 n=b5 v=0
298760 On ch=1 n=f#6 v=0
299039 On ch=1 n=c6 v=72
299056 Par ch=1 c=64 v=127
299079 On ch=1 n=f#3 v=96
299079 On ch=1 n=f#2 v=71
299082 On ch=1 n=c5 v=64
299082 On ch=1 n=a5 v=65
299102 On ch=1 n=e5 v=62
299227 On ch=1 n=f#3 v=0
299234 On ch=1 n=f#2 v=0
299274 On ch=1 n=g3 v=71
299275 On ch=1 n=g2 v=72
299441 On ch=1 n=g2 v=0
299465 On ch=1 n=g3 v=0
299489 On ch=1 n=a3 v=66
299495 On ch=1 n=a2 v=66
299572 On ch=1 n=e5 v=0
299591 On ch=1 n=a5 v=0
299619 On ch=1 n=c5 v=0
299643 On ch=1 n=c6 v=0
299668 On ch=1 n=a3 v=0
299688 On ch=1 n=a2 v=0
299716 On ch=1 n=b5 v=84
299716 On ch=1 n=f#5 v=77
299717 On ch=1 n=b2 v=60
299719 On ch=1 n=d#5 v=76
299719 On ch=1 n=b4 v=76
299722 On ch=1 n=a4 v=77
299729 On ch=1 n=b3 v=60
299868 On ch=1 n=b2 v=0
299880 On ch=1 n=b3 v=0
300028 On ch=1 n=f#5 v=0
300037 On ch=1 n=a4 v=0
300044 On ch=1 n=b4 v=0
300056 On ch=1 n=d#5 v=0
300063 On ch=1 n=b5 v=0
300159 Par ch=1 c=64 v=0
300451 On ch=1 n=b4 v=84
300571 Par ch=1 c=64 v=127
301291 On ch=1 n=b3 v=60
301780 Par ch=1 c=64 v=0
302130 On ch=1 n=g#4 v=69
302150 On ch=1 n=e3 v=63
302150 On ch=1 n=e4 v=56
302582 Par ch=1 c=64 v=127
302842 On ch=1 n=b3 v=0
302906 On ch=1 n=g#4 v=0
302926 On ch=1 n=e4 v=0
302926 On ch=1 n=e3 v=0
303049 On ch=1 n=b4 v=0
303049 On ch=1 n=e5 v=77
303072 On ch=1 n=e4 v=59
303074 On ch=1 n=c#3 v=66
303082 On ch=1 n=g#4 v=60
303092 On ch=1 n=c#4 v=60
303132 Par ch=1 c=64 v=0
303594 Par ch=1 c=64 v=127
303898 On ch=1 n=c#3 v=0
303918 On ch=1 n=c#4 v=0
303927 On ch=1 n=g#4 v=0
303931 On ch=1 n=e5 v=0
303935 On ch=1 n=e4 v=0
304025 On ch=1 n=f#5 v=84
304035 On ch=1 n=d#5 v=71
304040 On ch=1 n=b2 v=69
304058 On ch=1 n=b3 v=69
304068 On ch=1 n=f#4 v=60
304078 On ch=1 n=b4 v=62
304090 Par ch=1 c=64 v=0
304552 Par ch=1 c=64 v=127
304873 On ch=1 n=d#5 v=0
304875 On ch=1 n=b4 v=0
304879 On ch=1 n=b2 v=0
304896 On ch=1 n=b3 v=0
304906 On ch=1 n=f#4 v=0
304916 On ch=1 n=f#5 v=0
305017 On ch=1 n=e2 v=63
305057 On ch=1 n=e3 v=64
305087 On ch=1 n=g#4 v=60
305095 On ch=1 n=g#5 v=81
305115 On ch=1 n=b4 v=68
305145 On ch=1 n=e5 v=69
305187 Par ch=1 c=64 v=0
305339 Par ch=1 c=64 v=127
305442 On ch=1 n=b4 v=0
305452 On ch=1 n=g#4 v=0
305532 On ch=1 n=e5 v=0
305565 On ch=1 n=g#5 v=0
305647 On ch=1 n=e2 v=0
305687 On ch=1 n=e3 v=0
305707 On ch=1 n=c#8 v=60
305707 On ch=1 n=e7 v=48
305801 On ch=1 n=c#8 v=0
305817 On ch=1 n=e7 v=0
305828 On ch=1 n=g#7 v=60
305828 On ch=1 n=g#6 v=48
305927 On ch=1 n=g#7 v=0
305929 On ch=1 n=g#6 v=0
305948 On ch=1 n=b7 v=60
305948 On ch=1 n=b6 v=48
306026 On ch=1 n=b6 v=0
306037 On ch=1 n=b7 v=0
306049 On ch=1 n=e7 v=59
306049 On ch=1 n=e6 v=47
306131 On ch=1 n=e6 v=0
306147 On ch=1 n=e7 v=0
306167 On ch=1 n=a7 v=59
306169 On ch=1 n=b6 v=47
306240 On ch=1 n=b6 v=0
306245 On ch=1 n=a7 v=0
306267 On ch=1 n=e7 v=58
306267 On ch=1 n=e6 v=46
306365 On ch=1 n=e6 v=0
306374 On ch=1 n=e7 v=0
306388 On ch=1 n=g#7 v=58
306388 On ch=1 n=g#6 v=46
306472 On ch=1 n=g#6 v=0
306476 On ch=1 n=g#7 v=0
306508 On ch=1 n=b6 v=57
306508 On ch=1 n=b5 v=45
306576 On ch=1 n=b5 v=0
306582 On ch=1 n=b6 v=0
306606 On ch=1 n=f#7 v=56
306609 On ch=1 n=g#6 v=44
306697 On ch=1 n=g#6 v=0
306698 On ch=1 n=f#7 v=0
306727 On ch=1 n=b6 v=56
306729 On ch=1 n=b5 v=44
306807 On ch=1 n=b5 v=0
306816 On ch=1 n=b6 v=0
306827 On ch=1 n=e7 v=55
306827 On ch=1 n=e6 v=43
306910 On ch=1 n=e6 v=0
306921 On ch=1 n=e7 v=0
306948 On ch=1 n=g#6 v=55
306948 On ch=1 n=g#5 v=43
307031 On ch=1 n=g#6 v=0
307034 On ch=1 n=g#5 v=0
307068 On ch=1 n=c#7 v=54
307068 On ch=1 n=e6 v=42
307146 On ch=1 n=e6 v=0
307156 On ch=1 n=c#7 v=0
307166 On ch=1 n=g#6 v=54
307169 On ch=1 n=g#5 v=42
307266 On ch=1 n=g#5 v=0
307276 On ch=1 n=g#6 v=0
307287 On ch=1 n=b6 v=53
307289 On ch=1 n=b5 v=41
307357 On ch=1 n=b6 v=0
307367 On ch=1 n=b5 v=0
307387 On ch=1 n=e6 v=52
307387 On ch=1 n=e5 v=40
307484 On ch=1 n=e6 v=0
307488 On ch=1 n=e5 v=0
307508 On ch=1 n=a6 v=52
307508 On ch=1 n=b5 v=40
307588 On ch=1 n=a6 v=0
307611 On ch=1 n=b5 v=0
307628 On ch=1 n=e6 v=51
307628 On ch=1 n=e5 v=39
307711 On ch=1 n=e5 v=0
307726 On ch=1 n=e6 v=0
307749 On ch=1 n=g#6 v=51
307749 On ch=1 n=g#5 v=39
307830 On ch=1 n=g#5 v=0
307847 On ch=1 n=g#6 v=0
307866 On ch=1 n=b5 v=50
307869 On ch=1 n=b4 v=38
307952 On ch=1 n=b5 v=0
307969 On ch=1 n=b4 v=0
307987 On ch=1 n=f#6 v=50
307989 On ch=1 n=g#5 v=38
308092 On ch=1 n=g#5 v=0
308097 On ch=1 n=f#6 v=0
308127 On ch=1 n=b5 v=49
308129 On ch=1 n=b4 v=37
308236 On ch=1 n=b5 v=0
308244 On ch=1 n=b4 v=0
308267 On ch=1 n=e6 v=48
308269 On ch=1 n=e4 v=36
308269 On ch=1 n=g#5 v=38
308407 On ch=1 n=e4 v=0
308413 On ch=1 n=g#5 v=0
308448 On ch=1 n=e6 v=0
308827 Par ch=1 c=64 v=0
309077 On ch=1 n=g#5 v=77
309107 On ch=1 n=d#5 v=61
309109 On ch=1 n=g#2 v=60
309119 On ch=1 n=g#4 v=60
309119 On ch=1 n=g#3 v=60
309147 On ch=1 n=c5 v=60
309199 Par ch=1 c=64 v=127
309816 On ch=1 n=g#5 v=0
309835 On ch=1 n=g#4 v=0
309846 On ch=1 n=d#5 v=0
309849 On ch=1 n=g#2 v=0
309859 On ch=1 n=g#3 v=0
309886 On ch=1 n=c5 v=0
309952 On ch=1 n=g#5 v=70
309977 On ch=1 n=c#3 v=58
309982 On ch=1 n=e5 v=52
309985 On ch=1 n=c#4 v=53
310005 On ch=1 n=c#5 v=53
310005 On ch=1 n=g#4 v=53
310077 Par ch=1 c=64 v=0
310522 Par ch=1 c=64 v=127
310711 On ch=1 n=c#3 v=0
310711 On ch=1 n=g#5 v=0
310716 On ch=1 n=e5 v=0
310719 On ch=1 n=c#4 v=0
310737 On ch=1 n=c#5 v=0
310739 On ch=1 n=g#4 v=0
310825 On ch=1 n=b5 v=89
310845 On ch=1 n=e5 v=73
310848 On ch=1 n=b4 v=72
310848 On ch=1 n=f#3 v=72
310851 On ch=1 n=f#2 v=72
310858 On ch=1 n=c#5 v=73
310910 Par ch=1 c=64 v=0
311060 Par ch=1 c=64 v=127
311234 On ch=1 n=f#3 v=0
311239 On ch=1 n=e5 v=0
311242 On ch=1 n=b4 v=0
311252 On ch=1 n=c#5 v=0
311262 On ch=1 n=a5 v=90
311264 On ch=1 n=f#2 v=0
311266 On ch=1 n=b5 v=0
311275 On ch=1 n=f#4 v=67
311282 On ch=1 n=e5 v=72
311285 On ch=1 n=a4 v=72
311288 On ch=1 n=c#4 v=67
311288 On ch=1 n=f#3 v=72
311295 On ch=1 n=c#5 v=72
311393 On ch=1 n=f#3 v=0
311395 On ch=1 n=e5 v=0
311398 On ch=1 n=a4 v=0
311398 On ch=1 n=f#4 v=0
311401 On ch=1 n=c#4 v=0
311408 On ch=1 n=c#5 v=0
311422 On ch=1 n=g#5 v=85
311428 On ch=1 n=a5 v=0
311442 On ch=1 n=e5 v=69
311444 On ch=1 n=a4 v=68
311447 On ch=1 n=f#4 v=63
311447 On ch=1 n=f#3 v=68
311464 On ch=1 n=c#5 v=69
311474 Par ch=1 c=64 v=0
311604 Par ch=1 c=64 v=127
311718 On ch=1 n=f#4 v=0
311727 On ch=1 n=f#5 v=78
311738 On ch=1 n=a4 v=0
311738 On ch=1 n=e5 v=0
311741 On ch=1 n=f#3 v=0
311743 On ch=1 n=g#5 v=0
311747 On ch=1 n=d#5 v=60
311749 On ch=1 n=b3 v=60
311758 On ch=1 n=c#5 v=0
311769 On ch=1 n=f#4 v=55
311789 Par ch=1 c=64 v=0
311939 Par ch=1 c=64 v=127
311996 On ch=1 n=f#4 v=0
312021 On ch=1 n=d#5 v=0
312056 On ch=1 n=b3 v=0
312056 On ch=1 n=f#5 v=0
312182 On ch=1 n=g#7 v=60
312182 On ch=1 n=b6 v=48
312266 On ch=1 n=b6 v=0
312273 On ch=1 n=g#7 v=0
312299 On ch=1 n=d#7 v=60
312302 On ch=1 n=d#6 v=48
312373 On ch=1 n=d#7 v=0
312377 On ch=1 n=d#6 v=0
312400 On ch=1 n=f#7 v=60
312400 On ch=1 n=f#6 v=48
312487 On ch=1 n=f#7 v=0
312506 On ch=1 n=f#6 v=0
312521 On ch=1 n=b6 v=59
312521 On ch=1 n=b5 v=47
312616 On ch=1 n=b5 v=0
312621 On ch=1 n=b6 v=0
312641 On ch=1 n=e7 v=59
312641 On ch=1 n=f#6 v=47
312723 On ch=1 n=f#6 v=0
312726 On ch=1 n=e7 v=0
312742 On ch=1 n=b6 v=58
312742 On ch=1 n=b5 v=46
312836 On ch=1 n=b5 v=0
312841 On ch=1 n=b6 v=0
312859 On ch=1 n=d#7 v=58
312862 On ch=1 n=d#6 v=46
312934 On ch=1 n=d#7 v=0
312943 On ch=1 n=d#6 v=0
312960 On ch=1 n=f#6 v=57
312960 On ch=1 n=f#5 v=45
313040 On ch=1 n=f#6 v=0
313062 On ch=1 n=f#5 v=0
313081 On ch=1 n=c#7 v=56
313081 On ch=1 n=d#6 v=44
313175 On ch=1 n=d#6 v=0
313176 On ch=1 n=c#7 v=0
313201 On ch=1 n=f#6 v=56
313201 On ch=1 n=f#5 v=44
313283 On ch=1 n=f#6 v=0
313288 On ch=1 n=f#5 v=0
313302 On ch=1 n=b6 v=55
313302 On ch=1 n=b5 v=43
313390 On ch=1 n=b5 v=0
313401 On ch=1 n=b6 v=0
313419 On ch=1 n=d#6 v=55
313422 On ch=1 n=d#5 v=43
313487 On ch=1 n=d#6 v=0
313501 On ch=1 n=d#5 v=0
313520 On ch=1 n=g#6 v=54
313520 On ch=1 n=b5 v=42
313610 On ch=1 n=g#6 v=0
313630 On ch=1 n=b5 v=0
313641 On ch=1 n=d#6 v=54
313641 On ch=1 n=d#5 v=42
313721 On ch=1 n=d#6 v=0
313730 On ch=1 n=d#5 v=0
313761 On ch=1 n=f#6 v=53
313761 On ch=1 n=f#5 v=41
313844 On ch=1 n=f#6 v=0
313847 On ch=1 n=f#5 v=0
313859 On ch=1 n=b5 v=52
313862 On ch=1 n=b4 v=40
313944 On ch=1 n=b5 v=0
313951 On ch=1 n=b4 v=0
313979 On ch=1 n=e6 v=52
313982 On ch=1 n=f#5 v=40
314070 On ch=1 n=f#5 v=0
314076 On ch=1 n=e6 v=0
314100 On ch=1 n=b5 v=51
314103 On ch=1 n=b4 v=39
314187 On ch=1 n=b5 v=0
314196 On ch=1 n=b4 v=0
314220 On ch=1 n=d#6 v=51
314220 On ch=1 n=d#5 v=39
314307 On ch=1 n=d#6 v=0
314327 On ch=1 n=d#5 v=0
314341 On ch=1 n=f#5 v=50
314341 On ch=1 n=f#4 v=38
314440 On ch=1 n=f#4 v=0
314441 On ch=1 n=f#5 v=0
314461 On ch=1 n=c#6 v=50
314461 On ch=1 n=d#5 v=38
314566 On ch=1 n=d#5 v=0
314571 On ch=1 n=c#6 v=0
314601 On ch=1 n=f#5 v=49
314601 On ch=1 n=f#4 v=37
314710 On ch=1 n=f#4 v=0
314727 On ch=1 n=f#5 v=0
314741 On ch=1 n=d#5 v=40
314741 On ch=1 n=b5 v=48
314741 On ch=1 n=b3 v=36
314868 On ch=1 n=d#5 v=0
314907 On ch=1 n=b5 v=0
314922 On ch=1 n=b3 v=0
315298 Par ch=1 c=64 v=0
315568 On ch=1 n=f#5 v=83
315578 On ch=1 n=b2 v=60
315588 On ch=1 n=b3 v=55
315595 On ch=1 n=d#5 v=61
315628 On ch=1 n=b4 v=61
316100 Par ch=1 c=64 v=127
316287 On ch=1 n=f#5 v=0
316297 On ch=1 n=b2 v=0
316307 On ch=1 n=b3 v=0
316314 On ch=1 n=d#5 v=0
316347 On ch=1 n=b4 v=0
316422 On ch=1 n=f#5 v=76
316437 On ch=1 n=b2 v=52
316442 On ch=1 n=d5 v=52
316445 On ch=1 n=b3 v=47
316455 On ch=1 n=f#4 v=53
316475 On ch=1 n=b4 v=53
316505 Par ch=1 c=64 v=0
316917 Par ch=1 c=64 v=127
317144 On ch=1 n=f#5 v=0
317159 On ch=1 n=b2 v=0
317167 On ch=1 n=b3 v=0
317177 On ch=1 n=d5 v=0
317182 On ch=1 n=b4 v=0
317213 On ch=1 n=f#4 v=0
317278 On ch=1 n=e5 v=78
317294 On ch=1 n=e3 v=54
317304 On ch=1 n=b3 v=49
317321 On ch=1 n=e4 v=42
317321 On ch=1 n=d5 v=54
317321 On ch=1 n=b4 v=54
317354 Par ch=1 c=64 v=0
317766 Par ch=1 c=64 v=127
318043 On ch=1 n=e5 v=0
318050 On ch=1 n=e3 v=0
318060 On ch=1 n=b3 v=0
318077 On ch=1 n=b4 v=0
318077 On ch=1 n=d5 v=0
318077 On ch=1 n=e4 v=0
318182 On ch=1 n=a2 v=64
318229 On ch=1 n=c#5 v=65
318229 On ch=1 n=a3 v=52
318239 Par ch=1 c=64 v=0
318283 On ch=1 n=e5 v=63
318343 On ch=1 n=c#6 v=82
318371 Par ch=1 c=64 v=127
318439 On ch=1 n=a3 v=0
318458 On ch=1 n=c#5 v=0
318487 On ch=1 n=a2 v=0
318515 On ch=1 n=e5 v=0
318604 On ch=1 n=c#6 v=0
318727 On ch=1 n=f#7 v=60
318729 On ch=1 n=a6 v=48
318819 On ch=1 n=f#7 v=0
318828 On ch=1 n=a6 v=0
318847 On ch=1 n=c#7 v=60
318850 On ch=1 n=c#6 v=48
318919 On ch=1 n=c#6 v=0
318923 On ch=1 n=c#7 v=0
318948 On ch=1 n=e7 v=60
318948 On ch=1 n=e6 v=48
319031 On ch=1 n=e7 v=0
319054 On ch=1 n=e6 v=0
319068 On ch=1 n=a6 v=59
319068 On ch=1 n=a5 v=47
319135 On ch=1 n=a5 v=0
319139 On ch=1 n=a6 v=0
319166 On ch=1 n=d7 v=59
319169 On ch=1 n=e6 v=47
319249 On ch=1 n=e6 v=0
319252 On ch=1 n=d7 v=0
319287 On ch=1 n=a6 v=58
319289 On ch=1 n=a5 v=46
319379 On ch=1 n=a5 v=0
319388 On ch=1 n=a6 v=0
319407 On ch=1 n=c#7 v=58
319407 On ch=1 n=c#6 v=46
319490 On ch=1 n=c#7 v=0
319493 On ch=1 n=c#6 v=0
319508 On ch=1 n=e6 v=57
319508 On ch=1 n=e5 v=45
319600 On ch=1 n=e5 v=0
319615 On ch=1 n=e6 v=0
319625 On ch=1 n=b6 v=56
319625 On ch=1 n=c#6 v=44
319693 On ch=1 n=b6 v=0
319705 On ch=1 n=c#6 v=0
319723 On ch=1 n=e6 v=56
319726 On ch=1 n=e5 v=44
319806 On ch=1 n=e5 v=0
319833 On ch=1 n=e6 v=0
319844 On ch=1 n=a6 v=55
319846 On ch=1 n=a5 v=43
319928 On ch=1 n=a5 v=0
319945 On ch=1 n=a6 v=0
319964 On ch=1 n=c#6 v=55
319967 On ch=1 n=c#5 v=43
320032 On ch=1 n=c#5 v=0
320042 On ch=1 n=c#6 v=0
320065 On ch=1 n=f#6 v=54
320065 On ch=1 n=a5 v=42
320151 On ch=1 n=a5 v=0
320155 On ch=1 n=f#6 v=0
320185 On ch=1 n=c#6 v=54
320185 On ch=1 n=c#5 v=42
320254 On ch=1 n=c#5 v=0
320256 On ch=1 n=c#6 v=0
320283 On ch=1 n=e6 v=53
320286 On ch=1 n=e5 v=41
320376 On ch=1 n=e6 v=0
320381 On ch=1 n=e5 v=0
320404 On ch=1 n=c#6 v=52
320406 On ch=1 n=a4 v=40
320494 On ch=1 n=c#6 v=0
320496 On ch=1 n=a4 v=0
320524 On ch=1 n=d6 v=52
320524 On ch=1 n=e5 v=40
320599 On ch=1 n=d6 v=0
320611 On ch=1 n=e5 v=0
320625 On ch=1 n=a5 v=51
320625 On ch=1 n=a4 v=39
320705 On ch=1 n=a5 v=0
320708 On ch=1 n=a4 v=0
320745 On ch=1 n=c#6 v=51
320745 On ch=1 n=c#5 v=39
320855 On ch=1 n=c#5 v=0
320871 On ch=1 n=c#6 v=0
320885 On ch=1 n=e5 v=50
320885 On ch=1 n=e4 v=38
320979 On ch=1 n=e4 v=0
320989 On ch=1 n=e5 v=0
321003 On ch=1 n=b5 v=50
321003 On ch=1 n=c#5 v=38
321118 On ch=1 n=b5 v=0
321125 On ch=1 n=c#5 v=0
321140 On ch=1 n=e5 v=49
321143 On ch=1 n=e4 v=37
321260 On ch=1 n=e4 v=0
321266 On ch=1 n=e5 v=0
321280 On ch=1 n=a5 v=48
321283 On ch=1 n=c#5 v=38
321283 On ch=1 n=a3 v=36
321380 On ch=1 n=c#5 v=0
321452 On ch=1 n=a5 v=0
321457 On ch=1 n=a3 v=0
321840 Par ch=1 c=64 v=0
322100 On ch=1 n=c#6 v=78
322123 On ch=1 n=a2 v=60
322135 On ch=1 n=e5 v=61
322143 On ch=1 n=c#5 v=59
322143 On ch=1 n=a3 v=60
322643 Par ch=1 c=64 v=127
322825 On ch=1 n=c#6 v=0
322828 On ch=1 n=a2 v=0
322840 On ch=1 n=c#5 v=0
322840 On ch=1 n=e5 v=0
322848 On ch=1 n=a3 v=0
322940 On ch=1 n=f#5 v=68
322963 On ch=1 n=f#4 v=57
322967 On ch=1 n=e5 v=50
322969 On ch=1 n=a4 v=44
322972 On ch=1 n=c#5 v=51
322983 On ch=1 n=a3 v=56
323013 Par ch=1 c=64 v=0
323441 Par ch=1 c=64 v=127
323682 On ch=1 n=c#5 v=0
323685 On ch=1 n=f#4 v=0
323689 On ch=1 n=e5 v=0
323691 On ch=1 n=a4 v=0
323691 On ch=1 n=f#5 v=0
323705 On ch=1 n=a3 v=0
323799 On ch=1 n=a5 v=76
323829 On ch=1 n=c#5 v=58
323830 On ch=1 n=e5 v=58
323832 On ch=1 n=b2 v=58
323842 On ch=1 n=b3 v=53
323892 Par ch=1 c=64 v=0
324020 Par ch=1 c=64 v=127
324223 On ch=1 n=a5 v=0
324235 On ch=1 n=b2 v=0
324239 On ch=1 n=g#5 v=76
324245 On ch=1 n=b3 v=0
324250 On ch=1 n=e5 v=0
324262 On ch=1 n=b2 v=58
324270 On ch=1 n=c#5 v=0
324272 On ch=1 n=b3 v=53
324274 On ch=1 n=d#5 v=58
324275 On ch=1 n=b4 v=58
324377 On ch=1 n=b2 v=0
324379 On ch=1 n=f#5 v=72
324387 On ch=1 n=b3 v=0
324390 On ch=1 n=g#5 v=0
324392 On ch=1 n=b2 v=54
324393 On ch=1 n=d#5 v=0
324402 On ch=1 n=b3 v=49
324412 On ch=1 n=b4 v=0
324414 On ch=1 n=d#5 v=53
324422 On ch=1 n=a4 v=54
324442 Par ch=1 c=64 v=0
324570 Par ch=1 c=64 v=127
324679 On ch=1 n=b2 v=0
324701 On ch=1 n=e5 v=64
324702 On ch=1 n=d#5 v=0
324702 On ch=1 n=f#5 v=0
324704 On ch=1 n=e3 v=46
324704 On ch=1 n=g#4 v=47
324709 On ch=1 n=a4 v=0
324774 Par ch=1 c=64 v=0
324902 Par ch=1 c=64 v=127
324939 On ch=1 n=g#4 v=0
324973 On ch=1 n=e5 v=0
324993 On ch=1 n=b3 v=0
325021 On ch=1 n=e3 v=0
325141 On ch=1 n=c#8 v=60
325143 On ch=1 n=e7 v=48
325222 On ch=1 n=c#8 v=0
325225 On ch=1 n=e7 v=0
325241 On ch=1 n=g#7 v=60
325241 On ch=1 n=g#6 v=48
325324 On ch=1 n=g#7 v=0
325347 On ch=1 n=g#6 v=0
325359 On ch=1 n=b7 v=60
325362 On ch=1 n=b6 v=48
325456 On ch=1 n=b6 v=0
325463 On ch=1 n=b7 v=0
325479 On ch=1 n=e7 v=59
325482 On ch=1 n=e6 v=47
325554 On ch=1 n=e6 v=0
325556 On ch=1 n=e7 v=0
325580 On ch=1 n=a7 v=58
325580 On ch=1 n=b6 v=46
325675 On ch=1 n=a7 v=0
325677 On ch=1 n=b6 v=0
325701 On ch=1 n=e7 v=57
325701 On ch=1 n=e6 v=45
325785 On ch=1 n=e7 v=0
325787 On ch=1 n=e6 v=0
325801 On ch=1 n=g#7 v=56
325801 On ch=1 n=g#6 v=44
325890 On ch=1 n=g#6 v=0
325896 On ch=1 n=g#7 v=0
325919 On ch=1 n=b6 v=55
325922 On ch=1 n=b5 v=43
326017 On ch=1 n=b5 v=0
326027 On ch=1 n=b6 v=0
326039 On ch=1 n=f#7 v=54
326042 On ch=1 n=g#6 v=42
326112 On ch=1 n=f#7 v=0
326115 On ch=1 n=g#6 v=0
326140 On ch=1 n=b6 v=54
326140 On ch=1 n=b5 v=42
326224 On ch=1 n=b5 v=0
326234 On ch=1 n=b6 v=0
326258 On ch=1 n=e7 v=53
326258 On ch=1 n=e6 v=41
326342 On ch=1 n=e6 v=0
326348 On ch=1 n=e7 v=0
326378 On ch=1 n=g#6 v=52
326378 On ch=1 n=g#5 v=40
326472 On ch=1 n=g#6 v=0
326475 On ch=1 n=g#5 v=0
326498 On ch=1 n=c#7 v=51
326498 On ch=1 n=e6 v=39
326595 On ch=1 n=e6 v=0
326599 On ch=1 n=c#7 v=0
326616 On ch=1 n=g#6 v=50
326619 On ch=1 n=g#5 v=38
326703 On ch=1 n=g#5 v=0
326725 On ch=1 n=g#6 v=0
326736 On ch=1 n=b6 v=49
326739 On ch=1 n=b5 v=37
326845 On ch=1 n=b5 v=0
326852 On ch=1 n=b6 v=0
326876 On ch=1 n=e6 v=48
326879 On ch=1 n=e5 v=36
326956 On ch=1 n=e6 v=0
326982 On ch=1 n=e5 v=0
327051 On ch=1 n=e6 v=48
327051 On ch=1 n=c#6 v=48
327051 On ch=1 n=a6 v=66
327054 On ch=1 n=b4 v=48
327094 Par ch=1 c=64 v=0
327359 On ch=1 n=c#6 v=0
327362 On ch=1 n=e6 v=0
327371 On ch=1 n=b4 v=0
327380 On ch=1 n=a6 v=0
327464 On ch=1 n=b4 v=45
327471 On ch=1 n=d#6 v=45
327471 On ch=1 n=g#6 v=62
327491 On ch=1 n=b5 v=46
327628 On ch=1 n=b4 v=0
327629 On ch=1 n=d#6 v=0
327631 On ch=1 n=a5 v=43
327631 On ch=1 n=f#6 v=60
327651 On ch=1 n=d#6 v=43
327654 On ch=1 n=b4 v=42
327655 On ch=1 n=g#6 v=0
327663 On ch=1 n=b5 v=0
327975 On ch=1 n=e4 v=36
327975 On ch=1 n=e6 v=53
327985 On ch=1 n=g#5 v=37
328006 On ch=1 n=a5 v=0
328010 On ch=1 n=f#6 v=0
328017 On ch=1 n=d#6 v=0
328026 On ch=1 n=b4 v=0
328071 Par ch=1 c=64 v=127
328217 On ch=1 n=g#5 v=0
328260 On ch=1 n=e6 v=0
328266 On ch=1 n=e4 v=0
328371 On ch=1 n=c#7 v=60
328371 On ch=1 n=e6 v=48
328474 On ch=1 n=e6 v=0
328475 On ch=1 n=c#7 v=0
328492 On ch=1 n=g#6 v=60
328492 On ch=1 n=g#5 v=48
328581 On ch=1 n=g#6 v=0
328584 On ch=1 n=g#5 v=0
328612 On ch=1 n=b6 v=60
328612 On ch=1 n=b5 v=47
328692 On ch=1 n=b5 v=0
328701 On ch=1 n=b6 v=0
328713 On ch=1 n=e6 v=59
328713 On ch=1 n=e5 v=45
328795 On ch=1 n=e5 v=0
328799 On ch=1 n=e6 v=0
328831 On ch=1 n=a6 v=58
328833 On ch=1 n=b5 v=43
328911 On ch=1 n=b5 v=0
328920 On ch=1 n=a6 v=0
328931 On ch=1 n=e6 v=57
328934 On ch=1 n=e5 v=41
329014 On ch=1 n=e5 v=0
329016 On ch=1 n=e6 v=0
329052 On ch=1 n=g#6 v=56
329052 On ch=1 n=g#5 v=39
329150 On ch=1 n=g#6 v=0
329158 On ch=1 n=g#5 v=0
329172 On ch=1 n=b5 v=55
329172 On ch=1 n=b4 v=37
329242 On ch=1 n=b4 v=0
329243 On ch=1 n=b5 v=0
329273 On ch=1 n=f#6 v=54
329273 On ch=1 n=g#5 v=36
329356 On ch=1 n=f#6 v=0
329366 On ch=1 n=g#5 v=0
329391 On ch=1 n=b5 v=54
329393 On ch=1 n=b4 v=34
329462 On ch=1 n=b4 v=0
329469 On ch=1 n=b5 v=0
329491 On ch=1 n=e6 v=53
329491 On ch=1 n=e5 v=32
329585 On ch=1 n=e6 v=0
329587 On ch=1 n=e5 v=0
329612 On ch=1 n=g#5 v=52
329612 On ch=1 n=g#4 v=30
329699 On ch=1 n=g#4 v=0
329708 On ch=1 n=g#5 v=0
329732 On ch=1 n=c#6 v=51
329732 On ch=1 n=e5 v=28
329833 On ch=1 n=e5 v=0
329833 On ch=1 n=c#6 v=0
329853 On ch=1 n=g#5 v=50
329853 On ch=1 n=g#4 v=26
329958 On ch=1 n=g#4 v=0
329974 On ch=1 n=g#5 v=0
329993 On ch=1 n=b5 v=49
329993 On ch=1 n=b4 v=24
330115 On ch=1 n=b5 v=0
330120 On ch=1 n=b4 v=0
330130 On ch=1 n=e5 v=48
330130 On ch=1 n=e4 v=24
330202 On ch=1 n=e5 v=0
330209 On ch=1 n=e4 v=0
330307 On ch=1 n=a5 v=54
330327 On ch=1 n=e5 v=42
330330 Par ch=1 c=64 v=0
330330 On ch=1 n=c#5 v=42
330330 On ch=1 n=b3 v=42
330633 On ch=1 n=e5 v=0
330637 On ch=1 n=b3 v=0
330639 On ch=1 n=a5 v=0
330645 On ch=1 n=c#5 v=0
330727 On ch=1 n=g#5 v=51
330737 On ch=1 n=d#5 v=40
330740 On ch=1 n=b3 v=42
330760 On ch=1 n=b4 v=40
330867 On ch=1 n=f#5 v=48
330884 On ch=1 n=d#5 v=0
330887 On ch=1 n=b3 v=0
330890 On ch=1 n=a4 v=37
330897 On ch=1 n=d#5 v=37
330900 On ch=1 n=b3 v=41
330903 On ch=1 n=b4 v=0
330906 On ch=1 n=g#5 v=0
331202 On ch=1 n=e5 v=42
331212 On ch=1 n=e4 v=25
331212 On ch=1 n=g#4 v=30
331214 On ch=1 n=e3 v=37
331241 On ch=1 n=a4 v=0
331242 On ch=1 n=f#5 v=0
331243 On ch=1 n=b3 v=0
331244 On ch=1 n=d#5 v=0
331442 On ch=1 n=g#4 v=0
331452 On ch=1 n=e4 v=0
331487 On ch=1 n=e3 v=0
331522 On ch=1 n=e5 v=0
331847 Par ch=1 c=64 v=127
332166 On ch=1 n=e3 v=36
332166 On ch=1 n=e2 v=36
333088 On ch=1 n=e2 v=0
333088 On ch=1 n=e3 v=0
333107 On ch=1 n=e3 v=36
333107 On ch=1 n=e2 v=36
334045 On ch=1 n=e3 v=0
334048 On ch=1 n=e2 v=0
334065 On ch=1 n=e3 v=42
334068 On ch=1 n=e2 v=42
335006 On ch=1 n=e2 v=0
335006 On ch=1 n=e3 v=0
335025 On ch=1 n=e3 v=48
335028 On ch=1 n=e2 v=48
336966 On ch=1 n=e2 v=0
336966 On ch=1 n=e3 v=0
336968 On ch=1 n=c#3 v=32
336968 On ch=1 n=c#2 v=32
337946 On ch=1 n=c#2 v=0
337946 On ch=1 n=c#3 v=0
337948 Par ch=1 c=64 v=0
337948 On ch=1 n=f#3 v=32
337948 On ch=1 n=f#2 v=32
338926 On ch=1 n=f#2 v=0
338926 On ch=1 n=f#3 v=0
338926 Par ch=1 c=64 v=127
338928 On ch=1 n=e3 v=16
338928 On ch=1 n=e2 v=16
339284 On ch=1 n=e3 v=0
339287 On ch=1 n=e2 v=0
339355 Par ch=1 c=67 v=127
339626 Par ch=1 c=64 v=0
339984 On ch=1 n=b3 v=54
340112 Par ch=1 c=64 v=127
341045 On ch=1 n=e4 v=42
341065 On ch=1 n=b3 v=0
341075 On ch=1 n=c3 v=40
341215 Par ch=1 c=64 v=0
341923 Par ch=1 c=64 v=127
342043 On ch=1 n=e4 v=0
342091 On ch=1 n=c3 v=0
342133 On ch=1 n=f#4 v=30
342145 On ch=1 n=b3 v=10
342185 On ch=1 n=b2 v=12
342282 Par ch=1 c=64 v=0
342840 Par ch=1 c=64 v=127
343133 On ch=1 n=b3 v=0
343152 On ch=1 n=f#4 v=0
343173 On ch=1 n=b2 v=0
343236 On ch=1 n=g4 v=34
343246 On ch=1 n=e2 v=9
343263 On ch=1 n=e4 v=14
343306 Par ch=1 c=64 v=0
343434 Par ch=1 c=64 v=127
343559 On ch=1 n=e2 v=0
343579 On ch=1 n=e4 v=0
343611 On ch=1 n=g4 v=0
343778 On ch=1 n=c8 v=48
343781 On ch=1 n=e7 v=36
343863 On ch=1 n=c8 v=0
343877 On ch=1 n=e7 v=0
343901 On ch=1 n=g7 v=48
343901 On ch=1 n=g6 v=36
343999 On ch=1 n=g6 v=0
343999 On ch=1 n=g7 v=0
344022 On ch=1 n=b7 v=48
344022 On ch=1 n=b6 v=36
344116 On ch=1 n=b7 v=0
344126 On ch=1 n=b6 v=0
344142 On ch=1 n=e7 v=47
344142 On ch=1 n=e6 v=35
344257 On ch=1 n=e7 v=0
344265 On ch=1 n=e6 v=0
344282 On ch=1 n=a7 v=47
344282 On ch=1 n=b6 v=35
344363 On ch=1 n=a7 v=0
344375 On ch=1 n=b6 v=0
344400 On ch=1 n=e7 v=46
344403 On ch=1 n=e6 v=34
344497 On ch=1 n=e6 v=0
344501 On ch=1 n=e7 v=0
344520 On ch=1 n=g7 v=46
344523 On ch=1 n=g6 v=34
344606 On ch=1 n=g6 v=0
344607 On ch=1 n=g7 v=0
344641 On ch=1 n=b6 v=45
344641 On ch=1 n=b5 v=33
344743 On ch=1 n=b5 v=0
344750 On ch=1 n=b6 v=0
344781 On ch=1 n=f#7 v=44
344781 On ch=1 n=g6 v=32
344876 On ch=1 n=g6 v=0
344885 On ch=1 n=f#7 v=0
344901 On ch=1 n=b6 v=44
344901 On ch=1 n=b5 v=32
344982 On ch=1 n=b6 v=0
344999 On ch=1 n=b5 v=0
345021 On ch=1 n=e7 v=43
345021 On ch=1 n=e6 v=31
345123 On ch=1 n=e7 v=0
345127 On ch=1 n=e6 v=0
345142 On ch=1 n=g6 v=43
345142 On ch=1 n=g5 v=31
345234 On ch=1 n=g6 v=0
345244 On ch=1 n=g5 v=0
345262 On ch=1 n=c7 v=42
345262 On ch=1 n=e6 v=30
345360 On ch=1 n=c7 v=0
345363 On ch=1 n=e6 v=0
345402 On ch=1 n=g6 v=42
345402 On ch=1 n=g5 v=30
345483 On ch=1 n=g6 v=0
345493 On ch=1 n=g5 v=0
345517 On ch=1 n=b6 v=41
345520 On ch=1 n=b5 v=29
345615 On ch=1 n=b6 v=0
345623 On ch=1 n=b5 v=0
345637 On ch=1 n=e6 v=40
345640 On ch=1 n=e5 v=28
345720 On ch=1 n=e5 v=0
345723 On ch=1 n=e6 v=0
345758 On ch=1 n=a6 v=40
345758 On ch=1 n=b5 v=28
345872 On ch=1 n=a6 v=0
345880 On ch=1 n=b5 v=0
345898 On ch=1 n=e6 v=39
345898 On ch=1 n=e5 v=27
345996 On ch=1 n=e5 v=0
346005 On ch=1 n=e6 v=0
346038 On ch=1 n=g6 v=39
346038 On ch=1 n=g5 v=27
346137 On ch=1 n=g5 v=0
346163 On ch=1 n=g6 v=0
346178 On ch=1 n=b5 v=38
346178 On ch=1 n=b4 v=26
346299 On ch=1 n=b5 v=0
346306 On ch=1 n=b4 v=0
346337 On ch=1 n=f#6 v=38
346337 On ch=1 n=g5 v=26
346460 On ch=1 n=f#6 v=0
346482 On ch=1 n=g5 v=0
346516 On ch=1 n=b5 v=37
346519 On ch=1 n=b4 v=25
346640 On ch=1 n=b4 v=0
346650 On ch=1 n=b5 v=0
346688 On ch=1 n=e6 v=42
346698 On ch=1 n=e4 v=24
346715 On ch=1 n=g5 v=30
346833 On ch=1 n=e4 v=0
346889 On ch=1 n=g5 v=0
346984 On ch=1 n=e6 v=0
347451 Par ch=1 c=64 v=0
347803 On ch=1 n=g4 v=30
347813 On ch=1 n=b3 v=19
347815 On ch=1 n=e3 v=25
348105 Par ch=1 c=64 v=127
348793 On ch=1 n=g4 v=0
348803 On ch=1 n=e3 v=0
348803 On ch=1 n=b3 v=0
348923 On ch=1 n=g4 v=42
348933 On ch=1 n=b3 v=22
348935 On ch=1 n=e3 v=28
348995 Par ch=1 c=64 v=0
349678 Par ch=1 c=64 v=127
349941 On ch=1 n=b3 v=0
349943 On ch=1 n=e3 v=0
349953 On ch=1 n=g4 v=0
350032 On ch=1 n=b4 v=46
350052 On ch=1 n=c4 v=17
350055 On ch=1 n=a2 v=23
350095 Par ch=1 c=64 v=0
350521 On ch=1 n=a4 v=46
350627 On ch=1 n=b4 v=0
350778 Par ch=1 c=64 v=127
350916 On ch=1 n=e4 v=40
350964 On ch=1 n=a4 v=0
351198 On ch=1 n=c4 v=0
351201 On ch=1 n=a2 v=0
351319 On ch=1 n=f#4 v=34
351329 On ch=1 n=d3 v=26
351337 On ch=1 n=e4 v=0
351346 On ch=1 n=a3 v=26
351389 Par ch=1 c=64 v=0
351531 On ch=1 n=d3 v=0
351582 Par ch=1 c=64 v=127
351601 On ch=1 n=a3 v=0
351667 On ch=1 n=f#4 v=0
351786 On ch=1 n=b7 v=48
351786 On ch=1 n=d7 v=36
351866 On ch=1 n=d7 v=0
351882 On ch=1 n=b7 v=0
351904 On ch=1 n=f#7 v=48
351907 On ch=1 n=f#6 v=36
351989 On ch=1 n=f#6 v=0
351992 On ch=1 n=f#7 v=0
352024 On ch=1 n=a7 v=48
352024 On ch=1 n=a6 v=36
352109 On ch=1 n=a7 v=0
352130 On ch=1 n=a6 v=0
352145 On ch=1 n=d7 v=47
352145 On ch=1 n=d6 v=35
352247 On ch=1 n=d7 v=0
352251 On ch=1 n=d6 v=0
352265 On ch=1 n=g7 v=47
352265 On ch=1 n=a6 v=35
352361 On ch=1 n=g7 v=0
352375 On ch=1 n=a6 v=0
352405 On ch=1 n=d7 v=46
352405 On ch=1 n=d6 v=34
352499 On ch=1 n=d7 v=0
352501 On ch=1 n=d6 v=0
352526 On ch=1 n=f#7 v=46
352526 On ch=1 n=f#6 v=34
352612 On ch=1 n=f#6 v=0
352623 On ch=1 n=f#7 v=0
352646 On ch=1 n=a6 v=45
352646 On ch=1 n=a5 v=33
352729 On ch=1 n=a6 v=0
352743 On ch=1 n=a5 v=0
352764 On ch=1 n=e7 v=44
352766 On ch=1 n=f#6 v=32
352866 On ch=1 n=e7 v=0
352885 On ch=1 n=f#6 v=0
352904 On ch=1 n=a6 v=44
352906 On ch=1 n=a5 v=32
352996 On ch=1 n=a6 v=0
353011 On ch=1 n=a5 v=0
353021 On ch=1 n=d7 v=43
353024 On ch=1 n=d6 v=31
353105 On ch=1 n=d7 v=0
353123 On ch=1 n=d6 v=0
353141 On ch=1 n=f#6 v=43
353141 On ch=1 n=f#5 v=31
353225 On ch=1 n=f#6 v=0
353236 On ch=1 n=f#5 v=0
353262 On ch=1 n=b6 v=42
353262 On ch=1 n=d6 v=30
353345 On ch=1 n=d6 v=0
353365 On ch=1 n=b6 v=0
353382 On ch=1 n=f#6 v=42
353382 On ch=1 n=f#5 v=30
353491 On ch=1 n=f#6 v=0
353493 On ch=1 n=f#5 v=0
353522 On ch=1 n=a6 v=41
353522 On ch=1 n=a5 v=29
353627 On ch=1 n=a5 v=0
353629 On ch=1 n=a6 v=0
353643 On ch=1 n=d6 v=40
353643 On ch=1 n=d5 v=28
353724 On ch=1 n=d6 v=0
353746 On ch=1 n=d5 v=0
353760 On ch=1 n=g6 v=40
353763 On ch=1 n=a5 v=28
353861 On ch=1 n=a5 v=0
353877 On ch=1 n=g6 v=0
353900 On ch=1 n=d6 v=39
353903 On ch=1 n=d5 v=27
353997 On ch=1 n=d6 v=0
354018 On ch=1 n=d5 v=0
354040 On ch=1 n=f#6 v=39
354043 On ch=1 n=f#5 v=27
354139 On ch=1 n=f#6 v=0
354142 On ch=1 n=f#5 v=0
354180 On ch=1 n=a5 v=38
354183 On ch=1 n=a4 v=26
354290 On ch=1 n=a5 v=0
354307 On ch=1 n=a4 v=0
354343 On ch=1 n=e6 v=38
354343 On ch=1 n=f#5 v=26
354475 On ch=1 n=e6 v=0
354492 On ch=1 n=f#5 v=0
354522 On ch=1 n=a5 v=37
354522 On ch=1 n=a4 v=25
354652 On ch=1 n=a4 v=0
354671 On ch=1 n=a5 v=0
354701 On ch=1 n=f#5 v=20
354701 On ch=1 n=d6 v=36
354704 On ch=1 n=d4 v=24
354870 On ch=1 n=f#5 v=0
354889 On ch=1 n=d4 v=0
354906 On ch=1 n=d6 v=0
355440 Par ch=1 c=64 v=0
355808 On ch=1 n=f#4 v=47
355818 On ch=1 n=a3 v=3
355838 On ch=1 n=d3 v=16
356058 Par ch=1 c=64 v=127
356813 On ch=1 n=f#4 v=0
356820 On ch=1 n=a3 v=0
356858 On ch=1 n=d3 v=0
356945 On ch=1 n=f#4 v=54
356955 On ch=1 n=a3 v=10
356955 On ch=1 n=c#3 v=24
357095 Par ch=1 c=64 v=0
357654 Par ch=1 c=64 v=127
357980 On ch=1 n=c#3 v=0
357999 On ch=1 n=f#4 v=0
358009 On ch=1 n=a3 v=0
358101 On ch=1 n=f4 v=42
358111 On ch=1 n=g#3 v=1
358111 On ch=1 n=c#3 v=11
358191 Par ch=1 c=64 v=0
358750 Par ch=1 c=64 v=127
359157 On ch=1 n=c#3 v=0
359169 On ch=1 n=f4 v=0
359185 On ch=1 n=g#3 v=0
359263 On ch=1 n=a4 v=35
359273 On ch=1 n=c#4 v=9
359276 On ch=1 n=f#2 v=7
359326 Par ch=1 c=64 v=0
359475 Par ch=1 c=64 v=127
359490 On ch=1 n=c#4 v=0
359540 On ch=1 n=f#2 v=0
359615 On ch=1 n=a4 v=0
359910 On ch=1 n=d8 v=48
359913 On ch=1 n=f#7 v=36
360012 On ch=1 n=f#7 v=0
360030 On ch=1 n=d8 v=0
360050 On ch=1 n=a7 v=48
360053 On ch=1 n=a6 v=36
360146 On ch=1 n=a7 v=0
360147 On ch=1 n=a6 v=0
360170 On ch=1 n=c#8 v=48
360173 On ch=1 n=c#7 v=36
360255 On ch=1 n=c#8 v=0
360265 On ch=1 n=c#7 v=0
360288 On ch=1 n=f#7 v=47
360291 On ch=1 n=f#6 v=35
360370 On ch=1 n=f#7 v=0
360390 On ch=1 n=f#6 v=0
360408 On ch=1 n=b7 v=47
360408 On ch=1 n=c#7 v=35
360501 On ch=1 n=b7 v=0
360509 On ch=1 n=c#7 v=0
360529 On ch=1 n=f#7 v=46
360529 On ch=1 n=f#6 v=34
360628 On ch=1 n=f#7 v=0
360648 On ch=1 n=f#6 v=0
360669 On ch=1 n=a7 v=46
360669 On ch=1 n=a6 v=34
360755 On ch=1 n=a6 v=0
360757 On ch=1 n=a7 v=0
360789 On ch=1 n=c#7 v=45
360789 On ch=1 n=c#6 v=33
360884 On ch=1 n=c#7 v=0
360888 On ch=1 n=c#6 v=0
360909 On ch=1 n=g#7 v=44
360909 On ch=1 n=a6 v=32
361002 On ch=1 n=g#7 v=0
361003 On ch=1 n=a6 v=0
361027 On ch=1 n=c#7 v=44
361030 On ch=1 n=c#6 v=32
361137 On ch=1 n=c#6 v=0
361146 On ch=1 n=c#7 v=0
361167 On ch=1 n=f#7 v=43
361170 On ch=1 n=f#6 v=31
361268 On ch=1 n=f#7 v=0
361271 On ch=1 n=f#6 v=0
361287 On ch=1 n=a6 v=43
361290 On ch=1 n=a5 v=31
361370 On ch=1 n=a6 v=0
361378 On ch=1 n=a5 v=0
361410 On ch=1 n=d7 v=42
361410 On ch=1 n=f#6 v=30
361497 On ch=1 n=f#6 v=0
361515 On ch=1 n=d7 v=0
361525 On ch=1 n=a5 v=30
361531 On ch=1 n=a6 v=42
361629 On ch=1 n=a6 v=0
361633 On ch=1 n=a5 v=0
361647 On ch=1 n=c#7 v=41
361653 On ch=1 n=c#6 v=29
361754 On ch=1 n=c#7 v=0
361779 On ch=1 n=c#6 v=0
361784 On ch=1 n=f#6 v=40
361793 On ch=1 n=f#5 v=28
361873 On ch=1 n=f#5 v=0
361878 On ch=1 n=f#6 v=0
361903 On ch=1 n=b6 v=40
361904 On ch=1 n=c#6 v=28
362001 On ch=1 n=b6 v=0
362023 On ch=1 n=c#6 v=0
362045 On ch=1 n=f#5 v=27
362054 On ch=1 n=f#6 v=39
362160 On ch=1 n=f#5 v=0
362176 On ch=1 n=f#6 v=0
362187 On ch=1 n=a6 v=39
362187 On ch=1 n=a5 v=27
362286 On ch=1 n=a6 v=0
362302 On ch=1 n=a5 v=0
362325 On ch=1 n=c#6 v=38
362334 On ch=1 n=c#5 v=26
362444 On ch=1 n=c#5 v=0
362463 On ch=1 n=c#6 v=0
362492 On ch=1 n=g#6 v=38
362494 On ch=1 n=a5 v=26
362617 On ch=1 n=g#6 v=0
362656 On ch=1 n=a5 v=0
362663 On ch=1 n=c#5 v=25
362666 On ch=1 n=c#6 v=37
362787 On ch=1 n=c#5 v=0
362797 On ch=1 n=c#6 v=0
362847 On ch=1 n=f#6 v=42
362850 On ch=1 n=f#4 v=24
362890 On ch=1 n=a5 v=30
363077 On ch=1 n=a5 v=0
363127 On ch=1 n=f#4 v=0
363127 On ch=1 n=f#6 v=0
363586 Par ch=1 c=64 v=0
363947 On ch=1 n=c#5 v=30
363967 On ch=1 n=a4 v=18
363967 On ch=1 n=f#4 v=17
363970 On ch=1 n=c#4 v=17
364187 Par ch=1 c=64 v=127
365087 On ch=1 n=a5 v=50
365107 On ch=1 n=f#3 v=32
365107 On ch=1 n=f#5 v=38
365267 Par ch=1 c=64 v=0
365391 On ch=1 n=f#4 v=0
365603 On ch=1 n=c#4 v=0
365762 On ch=1 n=c#5 v=0
365781 On ch=1 n=a4 v=0
365889 Par ch=1 c=64 v=127
366246 On ch=1 n=c#5 v=46
366266 On ch=1 n=f#4 v=33
366266 On ch=1 n=a4 v=34
366269 On ch=1 n=c#4 v=34
366346 Par ch=1 c=64 v=0
366528 On ch=1 n=f#3 v=0
366564 On ch=1 n=f#5 v=0
366782 On ch=1 n=a5 v=0
366968 Par ch=1 c=64 v=127
367061 On ch=1 n=f#4 v=0
367189 On ch=1 n=c#4 v=0
367421 On ch=1 n=a5 v=57
367433 On ch=1 n=f#4 v=34
367433 On ch=1 n=c#4 v=34
367433 On ch=1 n=f#5 v=46
367436 On ch=1 n=f#3 v=40
367479 On ch=1 n=a4 v=0
367496 Par ch=1 c=64 v=0
367562 On ch=1 n=c#5 v=0
367648 Par ch=1 c=64 v=127
367767 On ch=1 n=a5 v=0
367774 On ch=1 n=f#5 v=0
367779 On ch=1 n=f#3 v=0
367814 On ch=1 n=f#4 v=0
367818 On ch=1 n=c#4 v=0
368274 On ch=1 n=d7 v=48
368274 On ch=1 n=f#6 v=36
368354 On ch=1 n=d7 v=0
368370 On ch=1 n=f#6 v=0
368386 On ch=1 n=a6 v=48
368389 On ch=1 n=a5 v=36
368503 On ch=1 n=a6 v=0
368514 On ch=1 n=a5 v=0
368529 On ch=1 n=c#7 v=48
368529 On ch=1 n=c#6 v=36
368622 On ch=1 n=c#6 v=0
368632 On ch=1 n=c#7 v=0
368647 On ch=1 n=f#6 v=47
368650 On ch=1 n=f#5 v=35
368731 On ch=1 n=f#6 v=0
368741 On ch=1 n=f#5 v=0
368764 On ch=1 n=b6 v=47
368767 On ch=1 n=c#6 v=35
368844 On ch=1 n=b6 v=0
368849 On ch=1 n=c#6 v=0
368885 On ch=1 n=f#6 v=46
368885 On ch=1 n=f#5 v=34
368993 On ch=1 n=f#5 v=0
369010 On ch=1 n=f#6 v=0
369025 On ch=1 n=a6 v=46
369025 On ch=1 n=a5 v=34
369113 On ch=1 n=a6 v=0
369123 On ch=1 n=a5 v=0
369145 On ch=1 n=c#6 v=45
369145 On ch=1 n=c#5 v=33
369241 On ch=1 n=c#5 v=0
369242 On ch=1 n=c#6 v=0
369265 On ch=1 n=g#6 v=44
369265 On ch=1 n=a5 v=32
369348 On ch=1 n=g#6 v=0
369360 On ch=1 n=a5 v=0
369386 On ch=1 n=c#6 v=44
369386 On ch=1 n=c#5 v=32
369488 On ch=1 n=c#5 v=0
369492 On ch=1 n=c#6 v=0
369503 On ch=1 n=f#6 v=43
369506 On ch=1 n=f#5 v=31
369613 On ch=1 n=f#6 v=0
369618 On ch=1 n=f#5 v=0
369643 On ch=1 n=a5 v=43
369646 On ch=1 n=a4 v=31
369740 On ch=1 n=a5 v=0
369747 On ch=1 n=a4 v=0
369764 On ch=1 n=d6 v=42
369767 On ch=1 n=f#5 v=30
369861 On ch=1 n=d6 v=0
369869 On ch=1 n=f#5 v=0
369884 On ch=1 n=a5 v=42
369887 On ch=1 n=a4 v=30
369971 On ch=1 n=a5 v=0
369994 On ch=1 n=a4 v=0
370005 On ch=1 n=c#6 v=41
370005 On ch=1 n=c#5 v=29
370109 On ch=1 n=c#5 v=0
370115 On ch=1 n=c#6 v=0
370145 On ch=1 n=f#5 v=40
370145 On ch=1 n=f#4 v=28
370230 On ch=1 n=f#4 v=0
370251 On ch=1 n=f#5 v=0
370265 On ch=1 n=b5 v=40
370265 On ch=1 n=c#5 v=28
370348 On ch=1 n=c#5 v=0
370364 On ch=1 n=b5 v=0
370385 On ch=1 n=f#5 v=39
370385 On ch=1 n=f#4 v=27
370481 On ch=1 n=f#5 v=0
370503 On ch=1 n=f#4 v=0
370525 On ch=1 n=a5 v=39
370525 On ch=1 n=a4 v=27
370647 On ch=1 n=a4 v=0
370666 On ch=1 n=a5 v=0
370685 On ch=1 n=c#5 v=38
370685 On ch=1 n=c#4 v=26
370802 On ch=1 n=c#5 v=0
370816 On ch=1 n=c#4 v=0
370845 On ch=1 n=g#5 v=38
370845 On ch=1 n=a4 v=26
370965 On ch=1 n=a4 v=0
370966 On ch=1 n=g#5 v=0
371004 On ch=1 n=c#5 v=37
371004 On ch=1 n=c#4 v=25
371165 On ch=1 n=c#4 v=0
371171 On ch=1 n=c#5 v=0
371206 On ch=1 n=f#3 v=24
371206 On ch=1 n=f#5 v=40
371226 On ch=1 n=a4 v=30
371465 On ch=1 n=f#3 v=0
371485 On ch=1 n=a4 v=0
371561 On ch=1 n=f#5 v=0
371942 Par ch=1 c=64 v=0
372303 On ch=1 n=d#5 v=41
372323 On ch=1 n=c#5 v=30
372323 On ch=1 n=a4 v=18
372326 On ch=1 n=f#4 v=19
373472 On ch=1 n=c#6 v=45
373482 On ch=1 n=f#5 v=33
373485 On ch=1 n=a3 v=28
373495 On ch=1 n=d#4 v=28
373884 On ch=1 n=f#4 v=0
373931 On ch=1 n=a4 v=0
374174 On ch=1 n=d#5 v=0
374297 On ch=1 n=c#5 v=0
374621 On ch=1 n=d#5 v=49
374644 On ch=1 n=f#4 v=25
374644 On ch=1 n=a4 v=26
374644 On ch=1 n=c#5 v=38
374844 Par ch=1 c=64 v=127
374975 On ch=1 n=c#6 v=0
375123 On ch=1 n=a3 v=0
375309 On ch=1 n=d#4 v=0
375526 Par ch=1 c=64 v=0
375537 On ch=1 n=f#5 v=0
375698 On ch=1 n=c#5 v=0
375743 On ch=1 n=f#4 v=0
375833 On ch=1 n=c#6 v=36
375843 On ch=1 n=f#5 v=25
375843 On ch=1 n=d#4 v=19
375845 On ch=1 n=a3 v=17
375848 On ch=1 n=a4 v=0
375900 On ch=1 n=d#5 v=0
375945 Par ch=1 c=64 v=127
376146 On ch=1 n=d#4 v=0
376239 On ch=1 n=f#5 v=0
376283 On ch=1 n=a3 v=0
376352 On ch=1 n=c#6 v=0
377181 Par ch=1 c=64 v=0
377184 On ch=1 n=a2 v=42
377310 Par ch=1 c=64 v=127
377422 On ch=1 n=a2 v=0
377422 On ch=1 n=f#4 v=36
377525 On ch=1 n=f#4 v=0
377562 On ch=1 n=c#5 v=36
377682 On ch=1 n=c#5 v=0
377682 On ch=1 n=e5 v=36
377803 On ch=1 n=e5 v=0
377803 On ch=1 n=d#5 v=37
377875 On ch=1 n=d#5 v=0
377923 On ch=1 n=a3 v=48
377923 On ch=1 n=f#5 v=38
377983 On ch=1 n=a4 v=48
378035 On ch=1 n=f#5 v=0
378063 On ch=1 n=c#6 v=39
378155 On ch=1 n=a3 v=0
378181 On ch=1 n=c#6 v=0
378183 On ch=1 n=e6 v=40
378243 On ch=1 n=a4 v=0
378301 On ch=1 n=e6 v=0
378301 On ch=1 n=d#6 v=40
378385 On ch=1 n=d#6 v=0
378421 On ch=1 n=f#6 v=41
378532 On ch=1 n=f#6 v=0
378542 On ch=1 n=c#7 v=42
378682 On ch=1 n=c#7 v=0
378682 On ch=1 n=e7 v=43
378685 On ch=1 n=a4 v=24
378742 On ch=1 n=a5 v=24
378802 On ch=1 n=e7 v=0
378802 On ch=1 n=d#7 v=44
378885 On ch=1 n=d#7 v=0
378942 On ch=1 n=a4 v=0
378945 On ch=1 n=f#7 v=44
378995 On ch=1 n=a5 v=0
379045 On ch=1 n=f#7 v=0
379082 On ch=1 n=c#8 v=45
379242 On ch=1 n=c#8 v=0
379242 On ch=1 n=e8 v=46
379401 On ch=1 n=e8 v=0
379401 On ch=1 n=d#8 v=47
379561 On ch=1 n=d#8 v=0
379581 On ch=1 n=d#8 v=48
379583 On ch=1 n=a5 v=36
379631 On ch=1 n=a6 v=36
379942 On ch=1 n=a5 v=0
379942 On ch=1 n=d#8 v=0
379992 On ch=1 n=a6 v=0
380622 On ch=1 n=c#6 v=53
380645 On ch=1 n=a2 v=36
380672 On ch=1 n=d#5 v=38
380672 On ch=1 n=c#5 v=40
380682 On ch=1 n=a3 v=36
380722 Par ch=1 c=64 v=0
380851 Par ch=1 c=64 v=127
381635 On ch=1 n=c#5 v=0
381635 On ch=1 n=d#5 v=0
381636 On ch=1 n=a3 v=0
381638 On ch=1 n=a2 v=0
381672 On ch=1 n=c#6 v=0
381719 On ch=1 n=f#5 v=49
381739 On ch=1 n=d#5 v=34
381742 On ch=1 n=a3 v=32
381749 On ch=1 n=c#5 v=35
381759 On ch=1 n=a4 v=24
382774 On ch=1 n=a3 v=0
382791 On ch=1 n=a4 v=0
382797 On ch=1 n=c#5 v=0
382805 On ch=1 n=f#5 v=0
382815 On ch=1 n=d#5 v=0
382859 On ch=1 n=a5 v=45
382882 On ch=1 n=f#4 v=18
382882 On ch=1 n=a3 v=28
382899 On ch=1 n=c#5 v=32
382919 On ch=1 n=d#5 v=31
383415 On ch=1 n=c#5 v=0
383416 On ch=1 n=d#5 v=0
383417 On ch=1 n=a3 v=0
383417 On ch=1 n=f#4 v=0
383438 On ch=1 n=g#5 v=43
383448 On ch=1 n=a5 v=0
383455 On ch=1 n=d#5 v=31
383455 On ch=1 n=c#5 v=30
383458 On ch=1 n=g#4 v=16
383458 On ch=1 n=a3 v=26
383628 On ch=1 n=d#5 v=0
383630 On ch=1 n=a3 v=0
383630 On ch=1 n=g#4 v=0
383630 On ch=1 n=c#5 v=0
383634 On ch=1 n=f#5 v=43
383654 On ch=1 n=d#5 v=29
383657 On ch=1 n=c#5 v=29
383657 On ch=1 n=a4 v=19
383659 On ch=1 n=g#5 v=0
383660 On ch=1 n=a3 v=26
384019 On ch=1 n=f#5 v=0
384039 On ch=1 n=d#5 v=0
384041 On ch=1 n=a3 v=0
384041 On ch=1 n=a4 v=0
384041 On ch=1 n=c#5 v=0
384051 On ch=1 n=f#5 v=41
384071 On ch=1 n=d#5 v=28
384074 On ch=1 n=c#5 v=27
384074 On ch=1 n=a4 v=16
384074 On ch=1 n=a3 v=24
384121 Par ch=1 c=64 v=0
384244 Par ch=1 c=64 v=127
384446 On ch=1 n=d#5 v=0
384471 On ch=1 n=f#5 v=0
384494 On ch=1 n=c#5 v=0
384631 On ch=1 n=a3 v=0
384631 On ch=1 n=a4 v=0
385684 On ch=1 n=a5 v=29
385694 On ch=1 n=a4 v=29
385754 On ch=1 n=f#5 v=41
385872 On ch=1 n=f#5 v=0
385872 On ch=1 n=c#6 v=41
385942 On ch=1 n=a5 v=0
385952 On ch=1 n=a4 v=0
385966 On ch=1 n=c#6 v=0
386014 On ch=1 n=e6 v=43
386126 On ch=1 n=e6 v=0
386152 On ch=1 n=d#6 v=45
386292 On ch=1 n=d#6 v=0
386292 On ch=1 n=f#6 v=48
386412 On ch=1 n=f#6 v=0
386412 On ch=1 n=c#7 v=50
386552 On ch=1 n=c#7 v=0
386552 On ch=1 n=d#7 v=53
386555 On ch=1 n=a5 v=17
386602 On ch=1 n=a6 v=17
386851 On ch=1 n=a6 v=0
386933 On ch=1 n=a5 v=0
387096 On ch=1 n=d#7 v=0
387232 Par ch=1 c=67 v=0
387291 Par ch=1 c=64 v=0
387422 Par ch=1 c=64 v=127
387672 On ch=1 n=a2 v=41
387672 On ch=1 n=a3 v=41
388232 On ch=1 n=g#3 v=41
388235 On ch=1 n=g#2 v=41
388237 On ch=1 n=a3 v=0
388243 On ch=1 n=a2 v=0
388411 On ch=1 n=g3 v=42
388414 On ch=1 n=g2 v=42
388420 On ch=1 n=g#2 v=0
388423 On ch=1 n=g#3 v=0
388750 On ch=1 n=g3 v=0
388753 On ch=1 n=g2 v=0
388813 On ch=1 n=g#2 v=40
388970 On ch=1 n=g#2 v=0
388972 On ch=1 n=g#3 v=42
389152 On ch=1 n=g#3 v=0
389152 On ch=1 n=c#4 v=43
389266 On ch=1 n=c#4 v=0
389311 On ch=1 n=d#4 v=45
389471 On ch=1 n=d#4 v=0
389471 On ch=1 n=f4 v=45
389630 On ch=1 n=f4 v=0
389633 On ch=1 n=d#4 v=47
389751 On ch=1 n=d#4 v=0
389770 On ch=1 n=g#5 v=66
389793 On ch=1 n=f5 v=53
389796 On ch=1 n=g#4 v=52
389796 On ch=1 n=c#4 v=47
389803 On ch=1 n=c#5 v=53
389810 Par ch=1 c=64 v=0
389886 On ch=1 n=c#4 v=0
389930 On ch=1 n=g#3 v=47
389970 Par ch=1 c=64 v=127
390090 On ch=1 n=g#3 v=0
390092 On ch=1 n=g#2 v=47
390230 On ch=1 n=g#2 v=0
390232 On ch=1 n=g#3 v=47
390370 On ch=1 n=g#3 v=0
390372 On ch=1 n=g#2 v=47
390510 On ch=1 n=g#2 v=0
390512 On ch=1 n=g#3 v=47
390559 On ch=1 n=f5 v=0
390562 On ch=1 n=c#5 v=0
390566 On ch=1 n=g#4 v=0
390583 On ch=1 n=g#5 v=0
390645 On ch=1 n=c#6 v=74
390655 On ch=1 n=g#3 v=0
390661 On ch=1 n=g#2 v=47
390671 On ch=1 n=c#5 v=60
390678 On ch=1 n=f5 v=60
390698 On ch=1 n=g#5 v=61
390712 Par ch=1 c=64 v=0
390790 On ch=1 n=g#2 v=0
390792 On ch=1 n=g#3 v=48
390855 Par ch=1 c=64 v=127
390886 On ch=1 n=g#3 v=0
390932 On ch=1 n=c#4 v=48
391070 On ch=1 n=c#4 v=0
391072 On ch=1 n=d#4 v=48
391190 On ch=1 n=d#4 v=0
391190 On ch=1 n=f4 v=48
391330 On ch=1 n=f4 v=0
391333 On ch=1 n=d#4 v=48
391358 On ch=1 n=g#5 v=0
391384 On ch=1 n=c#5 v=0
391388 On ch=1 n=c#6 v=0
391394 On ch=1 n=f5 v=0
391436 On ch=1 n=d#6 v=82
391453 On ch=1 n=d#4 v=0
391459 On ch=1 n=g#5 v=69
391459 On ch=1 n=d#5 v=69
391462 On ch=1 n=c#4 v=48
391500 Par ch=1 c=64 v=0
391506 On ch=1 n=c#6 v=69
391536 On ch=1 n=c#4 v=0
391590 On ch=1 n=g#3 v=49
391626 Par ch=1 c=64 v=127
391711 On ch=1 n=g#3 v=0
391711 On ch=1 n=g#2 v=49
391831 On ch=1 n=g#2 v=0
391831 On ch=1 n=g#3 v=49
391949 On ch=1 n=g#3 v=0
391952 On ch=1 n=g#2 v=49
392069 On ch=1 n=g#2 v=0
392072 On ch=1 n=g#3 v=49
392118 On ch=1 n=g#5 v=0
392132 On ch=1 n=c#6 v=0
392134 On ch=1 n=d#6 v=0
392137 On ch=1 n=d#5 v=0
392195 On ch=1 n=f6 v=90
392215 On ch=1 n=g#3 v=0
392218 On ch=1 n=c#6 v=76
392220 On ch=1 n=f5 v=77
392220 On ch=1 n=g#2 v=49
392228 On ch=1 n=g#5 v=76
392272 Par ch=1 c=64 v=0
392330 On ch=1 n=g#2 v=0
392330 On ch=1 n=g#3 v=50
392415 Par ch=1 c=64 v=127
392416 On ch=1 n=g#3 v=0
392450 On ch=1 n=c#4 v=50
392570 On ch=1 n=c#4 v=0
392570 On ch=1 n=d#4 v=50
392710 On ch=1 n=d#4 v=0
392710 On ch=1 n=f4 v=50
392831 On ch=1 n=f4 v=0
392831 On ch=1 n=d#4 v=50
392891 Par ch=1 c=64 v=0
392951 On ch=1 n=d#4 v=0
392951 On ch=1 n=c#4 v=50
393011 Par ch=1 c=64 v=127
393069 On ch=1 n=c#4 v=0
393072 On ch=1 n=g#3 v=51
393189 On ch=1 n=g#3 v=0
393192 On ch=1 n=g#2 v=51
393329 On ch=1 n=g#2 v=0
393332 On ch=1 n=g#3 v=51
393450 On ch=1 n=g#3 v=0
393450 On ch=1 n=g#2 v=51
393508 On ch=1 n=c#6 v=0
393526 On ch=1 n=f5 v=0
393545 On ch=1 n=f6 v=0
393553 On ch=1 n=g#5 v=0
393570 On ch=1 n=g#2 v=0
393573 On ch=1 n=g#3 v=51
393686 On ch=1 n=g#5 v=72
393693 On ch=1 n=g#3 v=0
393696 On ch=1 n=g#4 v=78
393699 On ch=1 n=f5 v=72
393699 On ch=1 n=c#5 v=72
393699 On ch=1 n=g#2 v=51
393780 Par ch=1 c=64 v=0
393830 On ch=1 n=g#2 v=0
393830 On ch=1 n=g#3 v=51
393906 Par ch=1 c=64 v=127
393916 On ch=1 n=g#3 v=0
393951 On ch=1 n=c#4 v=52
394068 On ch=1 n=c#4 v=0
394071 On ch=1 n=d#4 v=52
394189 On ch=1 n=d#4 v=0
394192 On ch=1 n=f4 v=52
394309 On ch=1 n=f4 v=0
394312 On ch=1 n=d#4 v=52
394348 On ch=1 n=g#5 v=0
394374 On ch=1 n=g#4 v=0
394377 On ch=1 n=c#5 v=0
394377 On ch=1 n=f5 v=0
394435 On ch=1 n=f#6 v=72
394455 On ch=1 n=d#4 v=0
394458 On ch=1 n=c#6 v=73
394458 On ch=1 n=f#5 v=60
394460 On ch=1 n=c#4 v=52
394468 On ch=1 n=g#5 v=72
394519 Par ch=1 c=64 v=0
394536 On ch=1 n=c#4 v=0
394570 On ch=1 n=g#3 v=52
394665 Par ch=1 c=64 v=127
394690 On ch=1 n=g#3 v=0
394690 On ch=1 n=g#2 v=53
394810 On ch=1 n=g#2 v=0
394810 On ch=1 n=g#3 v=53
394931 On ch=1 n=g#3 v=0
394931 On ch=1 n=g#2 v=53
395071 On ch=1 n=g#2 v=0
395071 On ch=1 n=g#3 v=53
395100 On ch=1 n=c#6 v=0
395110 On ch=1 n=g#5 v=0
395118 On ch=1 n=f#5 v=0
395141 On ch=1 n=f#6 v=0
395177 On ch=1 n=f6 v=82
395187 On ch=1 n=g#5 v=76
395194 On ch=1 n=g#3 v=0
395197 On ch=1 n=c#6 v=76
395200 On ch=1 n=f5 v=76
395200 On ch=1 n=g#2 v=53
395221 Par ch=1 c=64 v=0
395309 On ch=1 n=g#2 v=0
395312 On ch=1 n=g#3 v=53
395344 Par ch=1 c=64 v=127
395396 On ch=1 n=g#3 v=0
395429 On ch=1 n=c#4 v=54
395569 On ch=1 n=c#4 v=0
395569 On ch=1 n=d#4 v=54
395690 On ch=1 n=d#4 v=0
395690 On ch=1 n=f4 v=54
395810 On ch=1 n=f4 v=0
395810 On ch=1 n=d#4 v=54
395821 On ch=1 n=g#5 v=0
395853 On ch=1 n=f5 v=0
395857 On ch=1 n=c#6 v=0
395883 On ch=1 n=f6 v=0
395916 On ch=1 n=g#5 v=92
395933 On ch=1 n=d#4 v=0
395936 On ch=1 n=f5 v=70
395939 On ch=1 n=g#4 v=71
395939 On ch=1 n=c#4 v=54
395959 On ch=1 n=c#5 v=73
395960 Par ch=1 c=64 v=0
396048 On ch=1 n=c#4 v=0
396051 On ch=1 n=g#3 v=54
396083 Par ch=1 c=64 v=127
396188 On ch=1 n=g#3 v=0
396191 On ch=1 n=g#2 v=54
396308 On ch=1 n=g#2 v=0
396311 On ch=1 n=g#3 v=54
396429 On ch=1 n=g#3 v=0
396429 On ch=1 n=g#2 v=54
396549 On ch=1 n=g#2 v=0
396549 On ch=1 n=g#3 v=54
396614 On ch=1 n=f5 v=0
396617 On ch=1 n=g#4 v=0
396632 On ch=1 n=g#5 v=0
396637 On ch=1 n=c#5 v=0
396675 On ch=1 n=f6 v=90
396692 On ch=1 n=g#3 v=0
396698 On ch=1 n=f5 v=75
396698 On ch=1 n=b5 v=74
396700 On ch=1 n=g#2 v=54
396718 On ch=1 n=d6 v=77
396752 Par ch=1 c=64 v=0
396810 On ch=1 n=g#2 v=0
396810 On ch=1 n=g#3 v=54
396895 Par ch=1 c=64 v=127
396896 On ch=1 n=g#3 v=0
396930 On ch=1 n=d4 v=54
397050 On ch=1 n=d4 v=0
397050 On ch=1 n=d#4 v=55
397168 On ch=1 n=d#4 v=0
397171 On ch=1 n=f4 v=55
397308 On ch=1 n=f4 v=0
397311 On ch=1 n=d#4 v=55
397342 On ch=1 n=b5 v=0
397358 On ch=1 n=f5 v=0
397362 On ch=1 n=d6 v=0
397364 On ch=1 n=f6 v=0
397371 Par ch=1 c=64 v=0
397414 On ch=1 n=g#6 v=77
397434 On ch=1 n=d#4 v=0
397437 On ch=1 n=b5 v=63
397440 On ch=1 n=d4 v=55
397447 On ch=1 n=d6 v=62
397457 On ch=1 n=g#5 v=63
397491 Par ch=1 c=64 v=127
397503 On ch=1 n=d4 v=0
397546 On ch=1 n=g#3 v=55
397666 On ch=1 n=g#3 v=0
397666 On ch=1 n=g#2 v=55
397743 On ch=1 n=g#6 v=0
397754 On ch=1 n=d6 v=0
397757 On ch=1 n=g#5 v=0
397762 On ch=1 n=b5 v=0
397770 On ch=1 n=g#2 v=0
397786 On ch=1 n=f#6 v=90
397806 On ch=1 n=d6 v=77
397809 On ch=1 n=f#5 v=76
397809 On ch=1 n=b5 v=75
397809 On ch=1 n=g#3 v=56
397897 On ch=1 n=b5 v=0
397897 On ch=1 n=d6 v=0
397907 On ch=1 n=f#6 v=0
397907 On ch=1 n=f6 v=95
397910 On ch=1 n=g#3 v=0
397917 Par ch=1 c=64 v=0
397925 On ch=1 n=f#5 v=0
397927 On ch=1 n=d6 v=81
397927 On ch=1 n=b5 v=82
397929 On ch=1 n=f5 v=83
397929 On ch=1 n=g#2 v=56
398040 Par ch=1 c=64 v=127
398047 On ch=1 n=g#2 v=0
398047 On ch=1 n=g#3 v=56
398143 On ch=1 n=f5 v=0
398143 On ch=1 n=b5 v=0
398143 On ch=1 n=d6 v=0
398151 On ch=1 n=f6 v=0
398153 On ch=1 n=a#6 v=102
398170 On ch=1 n=g#3 v=0
398173 On ch=1 n=f#6 v=96
398176 On ch=1 n=a#5 v=96
398176 On ch=1 n=g#2 v=56
398203 On ch=1 n=d#6 v=96
398285 On ch=1 n=g#2 v=0
398288 On ch=1 n=g#3 v=56
398326 Par ch=1 c=64 v=0
398373 On ch=1 n=g#3 v=0
398428 On ch=1 n=d#4 v=56
398466 Par ch=1 c=64 v=127
398545 On ch=1 n=d#4 v=0
398545 On ch=1 n=f#4 v=57
398666 On ch=1 n=f#4 v=0
398666 On ch=1 n=a#4 v=57
398786 On ch=1 n=a#4 v=0
398789 On ch=1 n=f#4 v=57
398926 On ch=1 n=f#4 v=0
398929 On ch=1 n=d#4 v=57
398993 On ch=1 n=d#4 v=0
399047 On ch=1 n=g#3 v=57
399167 On ch=1 n=g#3 v=0
399167 On ch=1 n=g#2 v=57
399285 On ch=1 n=g#2 v=0
399287 On ch=1 n=g#3 v=58
399405 On ch=1 n=g#3 v=0
399408 On ch=1 n=g#2 v=58
399515 On ch=1 n=a#6 v=0
399516 On ch=1 n=f#6 v=0
399519 On ch=1 n=a#5 v=0
399529 On ch=1 n=d#6 v=0
399539 On ch=1 n=g#2 v=0
399542 On ch=1 n=g#3 v=58
399645 On ch=1 n=c#7 v=100
399662 On ch=1 n=g#3 v=0
399662 Par ch=1 c=64 v=0
399668 On ch=1 n=c#6 v=78
399671 On ch=1 n=g#2 v=58
399678 On ch=1 n=d#6 v=80
399688 On ch=1 n=f#6 v=80
399780 On ch=1 n=g#2 v=0
399780 On ch=1 n=g#3 v=58
399785 Par ch=1 c=64 v=127
399867 On ch=1 n=g#3 v=0
399900 On ch=1 n=f#4 v=58
400040 On ch=1 n=f#4 v=0
400040 On ch=1 n=a#4 v=58
400161 On ch=1 n=a#4 v=0
400161 On ch=1 n=d#5 v=59
400281 On ch=1 n=d#5 v=0
400281 Par ch=1 c=64 v=0
400281 On ch=1 n=a#4 v=59
400331 On ch=1 n=c#7 v=0
400338 On ch=1 n=d#6 v=0
400348 On ch=1 n=f#6 v=0
400354 On ch=1 n=c#6 v=0
400397 On ch=1 n=c7 v=89
400404 On ch=1 n=a#4 v=0
400404 Par ch=1 c=64 v=127
400410 On ch=1 n=c6 v=70
400410 On ch=1 n=f#4 v=59
400427 On ch=1 n=d#6 v=68
400427 On ch=1 n=f#6 v=71
400493 On ch=1 n=f#4 v=0
400522 On ch=1 n=g#3 v=59
400659 On ch=1 n=g#3 v=0
400662 On ch=1 n=g#2 v=59
400779 On ch=1 n=g#2 v=0
400779 On ch=1 n=g#3 v=59
400837 On ch=1 n=f#6 v=0
400843 On ch=1 n=c7 v=0
400853 On ch=1 n=d#6 v=0
400862 On ch=1 n=c6 v=0
400883 On ch=1 n=g#3 v=0
400890 On ch=1 n=a#6 v=84
400900 On ch=1 n=f#6 v=65
400903 On ch=1 n=a#5 v=65
400903 On ch=1 n=g#2 v=60
400913 On ch=1 n=d#6 v=63
401020 On ch=1 n=g#2 v=0
401020 Par ch=1 c=64 v=0
401020 On ch=1 n=g#3 v=60
401116 On ch=1 n=a#6 v=0
401121 On ch=1 n=a#5 v=0
401126 On ch=1 n=f#6 v=0
401144 On ch=1 n=d#6 v=0
401156 On ch=1 n=a#6 v=73
401163 On ch=1 n=g#3 v=0
401163 Par ch=1 c=64 v=127
401169 On ch=1 n=a#5 v=61
401169 On ch=1 n=g#2 v=60
401176 On ch=1 n=f#6 v=60
401179 On ch=1 n=d#6 v=59
401281 On ch=1 n=g#2 v=0
401281 On ch=1 n=g#3 v=60
401351 On ch=1 n=g#3 v=0
401401 On ch=1 n=d#4 v=60
401519 On ch=1 n=d#4 v=0
401521 On ch=1 n=f#4 v=60
401639 On ch=1 n=f#4 v=0
401639 On ch=1 n=a#4 v=61
401779 On ch=1 n=a#4 v=0
401782 On ch=1 n=f#4 v=61
401793 On ch=1 n=a#5 v=0
401816 On ch=1 n=a#6 v=0
401836 On ch=1 n=f#6 v=0
401839 On ch=1 n=d#6 v=0
401885 On ch=1 n=a#5 v=65
401902 On ch=1 n=f#4 v=0
401908 On ch=1 n=d#5 v=51
401908 On ch=1 n=a#4 v=51
401911 On ch=1 n=d#4 v=61
401918 On ch=1 n=f#5 v=52
401985 On ch=1 n=d#4 v=0
401999 Par ch=1 c=64 v=0
402020 On ch=1 n=g#3 v=61
402125 Par ch=1 c=64 v=127
402140 On ch=1 n=g#3 v=0
402140 On ch=1 n=g#2 v=61
402280 On ch=1 n=g#2 v=0
402280 On ch=1 n=g#3 v=61
402401 On ch=1 n=g#3 v=0
402401 On ch=1 n=g#2 v=62
402518 On ch=1 n=g#2 v=0
402521 On ch=1 n=g#3 v=62
402557 On ch=1 n=a#5 v=0
402568 On ch=1 n=a#4 v=0
402568 On ch=1 n=d#5 v=0
402578 On ch=1 n=f#5 v=0
402624 On ch=1 n=d#6 v=65
402644 On ch=1 n=g#3 v=0
402647 On ch=1 n=a#5 v=64
402650 On ch=1 n=d#5 v=67
402650 On ch=1 n=g#2 v=62
402667 On ch=1 n=f#5 v=67
402741 Par ch=1 c=64 v=0
402759 On ch=1 n=g#2 v=0
402759 On ch=1 n=g#3 v=62
402861 On ch=1 n=g#3 v=0
402864 Par ch=1 c=64 v=127
402899 On ch=1 n=d#4 v=62
403019 On ch=1 n=d#4 v=0
403019 On ch=1 n=f#4 v=68
403140 On ch=1 n=f#4 v=0
403140 On ch=1 n=a#4 v=68
403260 On ch=1 n=a#4 v=0
403260 On ch=1 n=f#4 v=69
403315 On ch=1 n=d#6 v=0
403325 On ch=1 n=a#5 v=0
403328 On ch=1 n=d#5 v=0
403345 On ch=1 n=f#5 v=0
403396 On ch=1 n=f6 v=79
403403 On ch=1 n=f#4 v=0
403409 On ch=1 n=a#5 v=65
403409 On ch=1 n=d#4 v=63
403416 On ch=1 n=d#6 v=64
403426 On ch=1 n=f5 v=59
403488 On ch=1 n=d#4 v=0
403518 On ch=1 n=g#3 v=63
403635 On ch=1 n=g#3 v=0
403638 On ch=1 n=g#2 v=63
403756 On ch=1 n=g#2 v=0
403756 On ch=1 n=g#3 v=63
403876 On ch=1 n=g#3 v=0
403876 On ch=1 n=g#2 v=63
404016 On ch=1 n=g#2 v=0
404019 On ch=1 n=g#3 v=63
404053 On ch=1 n=d#6 v=0
404053 On ch=1 n=f6 v=0
404063 On ch=1 n=a#5 v=0
404086 On ch=1 n=f5 v=0
404132 On ch=1 n=f#6 v=90
404139 On ch=1 n=g#3 v=0
404145 On ch=1 n=a#5 v=75
404145 On ch=1 n=f#5 v=77
404148 On ch=1 n=g#2 v=63
404152 On ch=1 n=d#6 v=75
404257 On ch=1 n=g#2 v=0
404257 On ch=1 n=g#3 v=63
404341 On ch=1 n=g#3 v=0
404377 On ch=1 n=d#4 v=63
404517 On ch=1 n=d#4 v=0
404517 On ch=1 n=f#4 v=63
404635 On ch=1 n=f#4 v=0
404638 On ch=1 n=a#4 v=63
404755 On ch=1 n=a#4 v=0
404758 On ch=1 n=f#4 v=64
404793 On ch=1 n=f#6 v=0
404805 On ch=1 n=f#5 v=0
404805 On ch=1 n=a#5 v=0
404813 On ch=1 n=d#6 v=0
404871 On ch=1 n=a#6 v=88
404878 On ch=1 n=f#4 v=0
404884 On ch=1 n=a#5 v=77
404884 On ch=1 n=f#6 v=76
404887 On ch=1 n=d#4 v=64
404894 On ch=1 n=d#6 v=75
404964 On ch=1 n=d#4 v=0
404996 On ch=1 n=g#3 v=64
405136 On ch=1 n=g#3 v=0
405136 On ch=1 n=g#2 v=64
405256 On ch=1 n=g#2 v=0
405256 On ch=1 n=g#3 v=64
405377 On ch=1 n=g#3 v=0
405377 On ch=1 n=g#2 v=64
405494 On ch=1 n=g#2 v=0
405497 On ch=1 n=g#3 v=65
405537 On ch=1 n=f#6 v=0
405545 On ch=1 n=a#5 v=0
405547 On ch=1 n=d#6 v=0
405588 On ch=1 n=a#6 v=0
405610 On ch=1 n=c7 v=95
405620 On ch=1 n=g#3 v=0
405623 On ch=1 n=f#6 v=80
405626 On ch=1 n=c6 v=82
405626 On ch=1 n=g#2 v=65
405633 On ch=1 n=d#6 v=82
405755 On ch=1 n=g#2 v=0
405758 On ch=1 n=g#3 v=65
405850 On ch=1 n=g#3 v=0
405875 On ch=1 n=d#4 v=65
405996 On ch=1 n=d#4 v=0
405996 On ch=1 n=f#4 v=65
406116 On ch=1 n=f#4 v=0
406116 On ch=1 n=a#4 v=65
406256 On ch=1 n=a#4 v=0
406256 On ch=1 n=f#4 v=65
406301 On ch=1 n=f#6 v=0
406304 On ch=1 n=c6 v=0
406311 On ch=1 n=d#6 v=0
406347 On ch=1 n=c7 v=0
406372 On ch=1 n=c#7 v=100
406379 On ch=1 n=f#4 v=0
406382 On ch=1 n=a#6 v=90
406385 On ch=1 n=f#6 v=93
406385 On ch=1 n=c#6 v=92
406388 On ch=1 n=d#4 v=66
406405 On ch=1 n=d#6 v=92
406467 On ch=1 n=d#4 v=0
406497 On ch=1 n=g#3 v=66
406614 On ch=1 n=g#3 v=0
406617 On ch=1 n=g#2 v=66
406735 On ch=1 n=g#2 v=0
406738 On ch=1 n=g#3 v=66
406875 On ch=1 n=g#3 v=0
406878 On ch=1 n=g#2 v=66
406995 On ch=1 n=g#2 v=0
406995 On ch=1 n=g#3 v=66
407043 On ch=1 n=a#6 v=0
407045 On ch=1 n=c#6 v=0
407045 On ch=1 n=f#6 v=0
407063 On ch=1 n=c#7 v=0
407065 On ch=1 n=d#6 v=0
407111 On ch=1 n=d7 v=110
407121 On ch=1 n=g#3 v=0
407124 On ch=1 n=f#6 v=103
407127 On ch=1 n=d6 v=101
407127 On ch=1 n=g#2 v=67
407144 On ch=1 n=g#6 v=102
407236 On ch=1 n=g#2 v=0
407236 On ch=1 n=g#3 v=67
407338 On ch=1 n=g#3 v=0
407376 On ch=1 n=d#4 v=67
407496 On ch=1 n=d#4 v=0
407496 On ch=1 n=f#4 v=67
407614 On ch=1 n=f#4 v=0
407617 On ch=1 n=c5 v=67
407734 On ch=1 n=c5 v=0
407737 On ch=1 n=f#4 v=67
407763 On ch=1 n=f#6 v=0
407780 On ch=1 n=g#6 v=0
407785 On ch=1 n=d6 v=0
407802 On ch=1 n=d7 v=0
407850 On ch=1 n=d#7 v=98
407860 On ch=1 n=f#4 v=0
407863 On ch=1 n=d#6 v=89
407866 On ch=1 n=d#4 v=68
407873 On ch=1 n=g#6 v=89
407893 On ch=1 n=f#6 v=91
407927 Par ch=1 c=64 v=0
407958 On ch=1 n=d#4 v=0
407995 On ch=1 n=g#3 v=68
408050 Par ch=1 c=64 v=127
408115 On ch=1 n=g#3 v=0
408115 On ch=1 n=g#2 v=68
408236 On ch=1 n=g#2 v=0
408236 On ch=1 n=g#3 v=68
408296 On ch=1 n=d#7 v=0
408306 On ch=1 n=d#6 v=0
408314 On ch=1 n=g#6 v=0
408324 On ch=1 n=g#3 v=0
408334 On ch=1 n=f#6 v=0
408356 On ch=1 n=a7 v=102
408359 On ch=1 n=a6 v=94
408359 On ch=1 n=d#4 v=68
408493 On ch=1 n=d#4 v=0
408493 On ch=1 n=f#4 v=75
408568 On ch=1 n=a7 v=0
408571 On ch=1 n=a6 v=0
408594 On ch=1 n=f#4 v=0
408613 Par ch=1 c=64 v=0
408613 On ch=1 n=a6 v=100
408613 On ch=1 n=a7 v=106
408616 On ch=1 n=c5 v=72
408711 On ch=1 n=a7 v=0
408714 On ch=1 n=a6 v=0
408807 On ch=1 n=a5 v=78
408812 On ch=1 n=c5 v=0
408815 On ch=1 n=a6 v=89
408818 On ch=1 n=a7 v=95
408820 On ch=1 n=a4 v=83
408957 On ch=1 n=a6 v=0
408957 On ch=1 n=a5 v=0
408971 On ch=1 n=a7 v=0
408983 On ch=1 n=a4 v=0
409026 On ch=1 n=g#6 v=88
409033 On ch=1 n=g#4 v=83
409039 On ch=1 n=g#7 v=96
409045 On ch=1 n=g#5 v=77
409166 On ch=1 n=g#4 v=0
409168 On ch=1 n=g#6 v=0
409172 On ch=1 n=g#5 v=0
409175 On ch=1 n=g#7 v=0
409236 On ch=1 n=g6 v=83
409236 On ch=1 n=g5 v=70
409240 On ch=1 n=g4 v=77
409242 On ch=1 n=g7 v=90
409387 On ch=1 n=g5 v=0
409393 On ch=1 n=g4 v=0
409397 On ch=1 n=g7 v=0
409399 On ch=1 n=g6 v=0
409451 On ch=1 n=d#7 v=84
409456 On ch=1 n=d#4 v=72
409459 On ch=1 n=d#6 v=76
409465 On ch=1 n=d#5 v=66
409581 On ch=1 n=d#7 v=0
409597 On ch=1 n=d#4 v=0
409599 On ch=1 n=d#5 v=0
409600 On ch=1 n=d#6 v=0
409650 On ch=1 n=f#7 v=96
409656 On ch=1 n=f#5 v=79
409659 On ch=1 n=f#4 v=84
409666 On ch=1 n=f#6 v=90
409801 On ch=1 n=f#4 v=0
409804 On ch=1 n=f#5 v=0
409812 On ch=1 n=f#6 v=0
409813 On ch=1 n=f#7 v=0
409867 On ch=1 n=c6 v=87
409870 On ch=1 n=c7 v=96
409872 On ch=1 n=c4 v=83
409876 On ch=1 n=c5 v=76
409998 On ch=1 n=c6 v=0
410004 On ch=1 n=c7 v=0
410006 On ch=1 n=c5 v=0
410007 On ch=1 n=c4 v=0
410072 On ch=1 n=g#6 v=91
410073 On ch=1 n=g#5 v=86
410074 On ch=1 n=g#4 v=72
410076 On ch=1 n=g#3 v=80
410214 On ch=1 n=g#6 v=0
410225 On ch=1 n=g#4 v=0
410225 On ch=1 n=g#5 v=0
410226 On ch=1 n=g#3 v=0
410290 On ch=1 n=a3 v=75
410297 On ch=1 n=a6 v=88
410297 On ch=1 n=a4 v=71
410302 On ch=1 n=a5 v=80
410432 On ch=1 n=a3 v=0
410449 On ch=1 n=a5 v=0
410450 On ch=1 n=a4 v=0
410452 On ch=1 n=a6 v=0
410513 On ch=1 n=g4 v=65
410513 On ch=1 n=g5 v=79
410517 On ch=1 n=g6 v=83
410526 On ch=1 n=g3 v=72
410660 On ch=1 n=g4 v=0
410661 On ch=1 n=g5 v=0
410664 On ch=1 n=g6 v=0
410672 On ch=1 n=g3 v=0
410729 On ch=1 n=d#6 v=83
410734 On ch=1 n=d#4 v=63
410735 On ch=1 n=d#3 v=72
410737 On ch=1 n=d#5 v=76
410880 On ch=1 n=d#4 v=0
410886 On ch=1 n=d#3 v=0
410887 On ch=1 n=d#6 v=0
410891 On ch=1 n=d#5 v=0
410945 On ch=1 n=f#5 v=80
410949 On ch=1 n=f#6 v=85
410953 On ch=1 n=f#4 v=66
410956 On ch=1 n=f#3 v=73
411103 On ch=1 n=f#5 v=0
411113 On ch=1 n=f#6 v=0
411116 On ch=1 n=f#3 v=0
411128 On ch=1 n=f#4 v=0
411188 On ch=1 n=c6 v=86
411192 On ch=1 n=c5 v=80
411196 On ch=1 n=c3 v=74
411198 On ch=1 n=c4 v=69
411368 On ch=1 n=c4 v=0
411370 On ch=1 n=c6 v=0
411376 On ch=1 n=c5 v=0
411381 On ch=1 n=c3 v=0
411426 Par ch=1 c=64 v=127
411445 On ch=1 n=g4 v=71
411450 On ch=1 n=g3 v=71
411456 On ch=1 n=g5 v=88
411457 On ch=1 n=g2 v=77
411628 On ch=1 n=g5 v=0
411632 On ch=1 n=g3 v=0
411634 On ch=1 n=g4 v=0
411654 On ch=1 n=g2 v=0
411709 On ch=1 n=g#4 v=70
411716 On ch=1 n=g#5 v=90
411718 On ch=1 n=g#3 v=69
411722 On ch=1 n=g#2 v=77
411894 On ch=1 n=g#4 v=0
411898 On ch=1 n=g#3 v=0
411905 On ch=1 n=g#5 v=0
411927 On ch=1 n=g#2 v=0
411967 On ch=1 n=a3 v=74
411972 On ch=1 n=a2 v=80
411973 On ch=1 n=a4 v=73
411973 On ch=1 n=a5 v=91
412069 Par ch=1 c=64 v=0
412155 On ch=1 n=a3 v=0
412163 On ch=1 n=a5 v=0
412171 On ch=1 n=a4 v=0
412178 On ch=1 n=a2 v=0
412303 On ch=1 n=d#3 v=74
412311 On ch=1 n=d#5 v=101
412316 On ch=1 n=d#2 v=82
412323 On ch=1 n=d#4 v=73
412459 On ch=1 n=d#4 v=0
412465 On ch=1 n=d#3 v=0
412482 On ch=1 n=d#2 v=0
412507 On ch=1 n=d#5 v=0
412591 On ch=1 n=g#5 v=95
412592 On ch=1 n=g#4 v=83
412593 On ch=1 n=g#2 v=83
412594 On ch=1 n=g#3 v=83
412717 On ch=1 n=g#5 v=0
412746 On ch=1 n=g#2 v=0
412751 On ch=1 n=g#3 v=0
412857 On ch=1 n=g#4 v=0
412866 On ch=1 n=c#3 v=83
412962 On ch=1 n=c#3 v=0
412967 On ch=1 n=a4 v=80
412973 On ch=1 n=a3 v=81
413066 On ch=1 n=a3 v=0
413067 On ch=1 n=a4 v=0
413071 On ch=1 n=g#4 v=77
413072 On ch=1 n=g#3 v=77
413149 On ch=1 n=g#4 v=0
413184 On ch=1 n=e5 v=87
413226 On ch=1 n=g#3 v=0
413277 On ch=1 n=e5 v=0
413292 On ch=1 n=d#5 v=83
413382 On ch=1 n=c#5 v=80
413392 On ch=1 n=d#5 v=0
413477 On ch=1 n=c#5 v=0
413487 On ch=1 n=g4 v=65
413488 On ch=1 n=d#3 v=65
413579 On ch=1 n=g4 v=0
413584 On ch=1 n=g#4 v=63
413588 On ch=1 n=e4 v=62
413590 On ch=1 n=d#3 v=0
413681 On ch=1 n=e4 v=0
413683 On ch=1 n=g#4 v=0
413688 On ch=1 n=d#4 v=60
413693 On ch=1 n=g4 v=59
413766 On ch=1 n=g4 v=0
413783 On ch=1 n=e5 v=72
413843 On ch=1 n=d#4 v=0
413885 On ch=1 n=e5 v=0
413890 On ch=1 n=d#5 v=71
414003 On ch=1 n=d#5 v=0
414006 On ch=1 n=c#5 v=71
414101 On ch=1 n=c#5 v=0
414104 On ch=1 n=c5 v=71
414109 On ch=1 n=a4 v=76
414204 On ch=1 n=c5 v=0
414207 On ch=1 n=a4 v=0
414210 On ch=1 n=c#5 v=72
414214 On ch=1 n=g#4 v=59
414301 On ch=1 n=c5 v=71
414302 On ch=1 n=c#5 v=0
414307 On ch=1 n=g4 v=63
414312 On ch=1 n=g#4 v=0
414403 On ch=1 n=c5 v=0
414406 On ch=1 n=g4 v=0
414408 On ch=1 n=f#4 v=70
414410 On ch=1 n=a5 v=71
414503 On ch=1 n=f4 v=75
414506 On ch=1 n=f#4 v=0
414510 On ch=1 n=g#5 v=71
414513 On ch=1 n=a5 v=0
414596 On ch=1 n=f4 v=0
414602 On ch=1 n=g5 v=72
414609 On ch=1 n=g#5 v=0
414610 On ch=1 n=e4 v=80
414701 On ch=1 n=g5 v=0
414708 On ch=1 n=d#4 v=89
414708 On ch=1 n=f#5 v=72
414709 On ch=1 n=e4 v=0
414803 On ch=1 n=g#3 v=64
414805 On ch=1 n=g#5 v=72
414806 On ch=1 n=d#4 v=0
414809 On ch=1 n=f#5 v=0
414921 On ch=1 n=g#5 v=0
414922 On ch=1 n=g#3 v=0
414930 On ch=1 n=f#5 v=71
414933 On ch=1 n=c5 v=64
415030 On ch=1 n=e6 v=72
415033 On ch=1 n=f#5 v=0
415074 On ch=1 n=c5 v=0
415129 On ch=1 n=d#6 v=72
415133 On ch=1 n=e6 v=0
415227 On ch=1 n=d#6 v=0
415230 On ch=1 n=f#5 v=71
415328 On ch=1 n=c#4 v=68
415331 On ch=1 n=e5 v=72
415334 On ch=1 n=f#5 v=0
415423 On ch=1 n=a5 v=72
415426 On ch=1 n=e5 v=0
415431 On ch=1 n=a4 v=68
415434 On ch=1 n=c#4 v=0
415523 On ch=1 n=g#5 v=71
415524 On ch=1 n=a5 v=0
415531 On ch=1 n=a4 v=0
415532 On ch=1 n=g#4 v=68
415616 On ch=1 n=g#5 v=0
415620 On ch=1 n=e6 v=71
415692 On ch=1 n=g#4 v=0
415742 On ch=1 n=e6 v=0
415744 On ch=1 n=d#6 v=72
415843 On ch=1 n=d#6 v=0
415852 On ch=1 n=c#6 v=72
415944 On ch=1 n=c#6 v=0
415945 On ch=1 n=d#4 v=72
415948 On ch=1 n=g5 v=71
416043 On ch=1 n=d#4 v=0
416046 On ch=1 n=e5 v=71
416047 On ch=1 n=g5 v=0
416050 On ch=1 n=g#5 v=72
416139 On ch=1 n=e5 v=0
416143 On ch=1 n=d#5 v=72
416151 On ch=1 n=g#5 v=0
416151 On ch=1 n=g5 v=72
416243 On ch=1 n=g5 v=0
416250 On ch=1 n=e6 v=71
416300 On ch=1 n=d#5 v=0
416340 On ch=1 n=d#6 v=71
416343 On ch=1 n=e6 v=0
416446 On ch=1 n=d#6 v=0
416450 On ch=1 n=c#6 v=71
416560 On ch=1 n=c6 v=72
416563 On ch=1 n=c#6 v=0
416565 On ch=1 n=a5 v=92
416652 On ch=1 n=c6 v=0
416660 On ch=1 n=a5 v=0
416666 On ch=1 n=c#6 v=72
416668 On ch=1 n=g#5 v=74
416764 On ch=1 n=c6 v=71
416769 On ch=1 n=c#6 v=0
416771 On ch=1 n=g#5 v=0
416773 On ch=1 n=g5 v=82
416863 On ch=1 n=c6 v=0
416864 On ch=1 n=a6 v=72
416869 On ch=1 n=f#5 v=91
416876 On ch=1 n=g5 v=0
416964 On ch=1 n=f#5 v=0
416966 On ch=1 n=a6 v=0
416966 On ch=1 n=g#6 v=72
416967 On ch=1 n=f5 v=95
417063 On ch=1 n=e5 v=104
417065 On ch=1 n=g6 v=71
417066 On ch=1 n=g#6 v=0
417069 On ch=1 n=f5 v=0
417160 On ch=1 n=f#6 v=71
417161 On ch=1 n=e5 v=0
417167 On ch=1 n=g6 v=0
417170 On ch=1 n=d#5 v=113
417259 On ch=1 n=f#6 v=0
417260 On ch=1 n=g#4 v=79
417269 On ch=1 n=g#6 v=71
417271 On ch=1 n=d#5 v=0
417385 On ch=1 n=g#4 v=0
417389 On ch=1 n=f#6 v=71
417390 On ch=1 n=c6 v=81
417391 On ch=1 n=g#6 v=0
417484 On ch=1 n=e7 v=72
417485 On ch=1 n=f#6 v=0
417532 On ch=1 n=c6 v=0
417588 On ch=1 n=e7 v=0
417590 On ch=1 n=d#7 v=71
417680 On ch=1 n=f#6 v=71
417688 On ch=1 n=d#7 v=0
417759 On ch=1 n=f#6 v=0
417780 On ch=1 n=e6 v=72
417781 On ch=1 n=c#4 v=83
417784 Par ch=1 c=64 v=127
417786 On ch=1 n=c#3 v=83
417877 On ch=1 n=e6 v=0
417885 On ch=1 n=f#6 v=72
417895 On ch=1 n=c#3 v=0
417895 On ch=1 n=c#4 v=0
417983 On ch=1 n=e6 v=77
417986 On ch=1 n=f#6 v=0
417986 On ch=1 n=c#5 v=83
417991 On ch=1 n=c#6 v=108
418082 On ch=1 n=e6 v=0
418082 On ch=1 n=e7 v=83
418124 On ch=1 n=c#6 v=0
418125 On ch=1 n=c#5 v=0
418184 On ch=1 n=e7 v=0
418187 Par ch=1 c=64 v=0
418190 On ch=1 n=d#7 v=84
418303 On ch=1 n=d#7 v=0
418310 On ch=1 n=c#7 v=77
418401 On ch=1 n=d#4 v=87
418405 On ch=1 n=f#6 v=72
418406 Par ch=1 c=64 v=127
418409 On ch=1 n=c#7 v=0
418414 On ch=1 n=d#3 v=87
418499 On ch=1 n=f#6 v=0
418503 On ch=1 n=g#6 v=71
418518 On ch=1 n=d#4 v=0
418524 On ch=1 n=d#3 v=0
418595 On ch=1 n=g#6 v=0
418607 On ch=1 n=c#5 v=87
418608 On ch=1 n=c#6 v=111
418608 On ch=1 n=f#6 v=78
418703 On ch=1 n=e7 v=84
418707 On ch=1 n=f#6 v=0
418744 On ch=1 n=c#5 v=0
418751 On ch=1 n=c#6 v=0
418804 On ch=1 n=e7 v=0
418804 On ch=1 n=d#7 v=83
418809 Par ch=1 c=64 v=0
418898 On ch=1 n=c#7 v=78
418899 On ch=1 n=d#7 v=0
418993 On ch=1 n=c#7 v=0
419004 On ch=1 n=e4 v=91
419004 On ch=1 n=e3 v=90
419004 On ch=1 n=g#6 v=72
419005 Par ch=1 c=64 v=127
419126 On ch=1 n=g#6 v=0
419129 On ch=1 n=a6 v=72
419134 On ch=1 n=e4 v=0
419141 On ch=1 n=e3 v=0
419225 On ch=1 n=g#6 v=77
419226 On ch=1 n=a6 v=0
419232 On ch=1 n=c#6 v=116
419233 On ch=1 n=c#5 v=91
419324 On ch=1 n=e7 v=84
419325 On ch=1 n=g#6 v=0
419367 On ch=1 n=c#6 v=0
419372 On ch=1 n=c#5 v=0
419422 On ch=1 n=d#7 v=84
419426 On ch=1 n=e7 v=0
419428 Par ch=1 c=64 v=0
419517 On ch=1 n=d#7 v=0
419528 On ch=1 n=c#7 v=77
419624 Par ch=1 c=64 v=127
419631 On ch=1 n=c#7 v=0
419631 On ch=1 n=f#4 v=95
419632 On ch=1 n=f#3 v=95
419632 On ch=1 n=a6 v=71
419727 On ch=1 n=a6 v=0
419727 On ch=1 n=b6 v=72
419737 On ch=1 n=f#3 v=0
419746 On ch=1 n=f#4 v=0
419821 On ch=1 n=b6 v=0
419829 On ch=1 n=c#6 v=117
419831 On ch=1 n=c#5 v=96
419833 On ch=1 n=a6 v=77
419948 On ch=1 n=a6 v=0
419951 On ch=1 n=e7 v=84
419982 On ch=1 n=c#6 v=0
419984 On ch=1 n=c#5 v=0
420044 On ch=1 n=d#7 v=83
420049 Par ch=1 c=64 v=0
420054 On ch=1 n=e7 v=0
420141 On ch=1 n=d#7 v=0
420143 On ch=1 n=c#7 v=78
420218 On ch=1 n=c#7 v=0
420243 On ch=1 n=d#6 v=71
420244 On ch=1 n=b3 v=99
420245 Par ch=1 c=64 v=127
420246 On ch=1 n=b2 v=98
420342 On ch=1 n=d#6 v=0
420348 On ch=1 n=e6 v=72
420352 On ch=1 n=b3 v=0
420355 On ch=1 n=b2 v=0
420442 On ch=1 n=b5 v=117
420445 On ch=1 n=b4 v=99
420448 On ch=1 n=e6 v=0
420452 On ch=1 n=d#6 v=78
420544 On ch=1 n=d#7 v=83
420553 On ch=1 n=d#6 v=0
420635 On ch=1 n=b4 v=0
420637 On ch=1 n=d#7 v=0
420639 On ch=1 n=b5 v=0
420649 Par ch=1 c=64 v=0
420651 On ch=1 n=c#7 v=84
420762 On ch=1 n=b6 v=77
420773 On ch=1 n=c#7 v=0
420854 On ch=1 n=b6 v=0
420864 Par ch=1 c=64 v=127
420866 On ch=1 n=c#4 v=102
420867 On ch=1 n=c#3 v=103
420868 On ch=1 n=e6 v=72
420963 On ch=1 n=f#6 v=72
420968 On ch=1 n=e6 v=0
420974 On ch=1 n=c#4 v=0
420977 On ch=1 n=c#3 v=0
421062 On ch=1 n=f#6 v=0
421065 On ch=1 n=e6 v=77
421071 On ch=1 n=b5 v=117
421072 On ch=1 n=b4 v=103
421160 On ch=1 n=e6 v=0
421161 On ch=1 n=d#7 v=83
421261 On ch=1 n=d#7 v=0
421263 On ch=1 n=c#7 v=83
421267 Par ch=1 c=64 v=0
421268 On ch=1 n=b4 v=0
421268 On ch=1 n=b5 v=0
421359 On ch=1 n=b6 v=79
421364 On ch=1 n=c#7 v=0
421458 On ch=1 n=b6 v=0
421460 On ch=1 n=d#4 v=107
421463 Par ch=1 c=64 v=127
421467 On ch=1 n=d#3 v=106
421467 On ch=1 n=f#6 v=76
421582 On ch=1 n=f#6 v=0
421586 On ch=1 n=d#4 v=0
421588 On ch=1 n=g#6 v=71
421595 On ch=1 n=d#3 v=0
421686 On ch=1 n=f#6 v=72
421691 On ch=1 n=g#6 v=0
421692 On ch=1 n=b5 v=117
421692 On ch=1 n=b4 v=107
421784 On ch=1 n=f#6 v=0
421789 On ch=1 n=d#7 v=84
421880 On ch=1 n=c#7 v=84
421882 On ch=1 n=b4 v=0
421882 On ch=1 n=b5 v=0
421886 Par ch=1 c=64 v=0
421887 On ch=1 n=d#7 v=0
421980 On ch=1 n=c#7 v=0
421986 On ch=1 n=b6 v=77
422084 On ch=1 n=b6 v=0
422084 On ch=1 n=g#6 v=72
422085 Par ch=1 c=64 v=127
422087 On ch=1 n=e4 v=96
422092 On ch=1 n=e3 v=95
422178 On ch=1 n=g#6 v=0
422184 On ch=1 n=a6 v=71
422189 On ch=1 n=e4 v=0
422200 On ch=1 n=e3 v=0
422276 On ch=1 n=a6 v=0
422281 On ch=1 n=b5 v=117
422284 On ch=1 n=b4 v=95
422287 On ch=1 n=g#6 v=78
422381 On ch=1 n=d#7 v=84
422382 On ch=1 n=g#6 v=0
422494 On ch=1 n=b4 v=0
422503 On ch=1 n=b5 v=0
422503 On ch=1 n=c#7 v=83
422505 On ch=1 n=d#7 v=0
422558 Par ch=1 c=64 v=0
422601 On ch=1 n=c#7 v=0
422605 On ch=1 n=b6 v=77
422687 On ch=1 n=b6 v=0
422702 On ch=1 n=a3 v=93
422702 On ch=1 n=c#6 v=71
422703 On ch=1 n=a2 v=92
422800 On ch=1 n=c#6 v=0
422802 On ch=1 n=e6 v=84
422805 On ch=1 n=c#7 v=83
422813 On ch=1 n=a2 v=0
422816 On ch=1 n=a3 v=0
422902 On ch=1 n=e6 v=0
422905 On ch=1 n=c#6 v=72
422908 On ch=1 n=c#7 v=0
423002 On ch=1 n=c#6 v=0
423005 On ch=1 n=d#6 v=71
423099 On ch=1 n=f#6 v=75
423108 On ch=1 n=d#6 v=0
423195 On ch=1 n=f#6 v=0
423203 On ch=1 n=e6 v=78
423276 On ch=1 n=e6 v=0
423305 On ch=1 n=e5 v=89
423317 Par ch=1 c=64 v=127
423319 On ch=1 n=e6 v=81
423322 On ch=1 n=c#5 v=80
423327 On ch=1 n=e4 v=87
423327 On ch=1 n=g4 v=83
423328 On ch=1 n=a4 v=88
423413 On ch=1 n=e6 v=0
423421 On ch=1 n=e7 v=84
423424 On ch=1 n=g6 v=83
423518 On ch=1 n=e7 v=0
423525 On ch=1 n=e6 v=72
423527 On ch=1 n=g6 v=0
423624 On ch=1 n=f#6 v=71
423625 On ch=1 n=e6 v=0
423703 On ch=1 n=e5 v=0
423718 On ch=1 n=f#6 v=0
423722 On ch=1 n=e4 v=0
423723 On ch=1 n=g4 v=0
423727 On ch=1 n=c#5 v=0
423728 On ch=1 n=a4 v=0
423730 On ch=1 n=a6 v=74
423827 On ch=1 n=a6 v=0
423828 On ch=1 n=g6 v=78
423907 On ch=1 n=a5 v=108
423909 On ch=1 n=g6 v=0
423916 On ch=1 n=g5 v=84
423920 On ch=1 n=g6 v=80
423930 On ch=1 n=e5 v=82
423937 On ch=1 n=a4 v=83
423945 On ch=1 n=c#5 v=84
423985 Par ch=1 c=64 v=0
424015 On ch=1 n=g6 v=0
424019 On ch=1 n=c#7 v=83
424021 On ch=1 n=g7 v=84
424086 Par ch=1 c=64 v=127
424135 On ch=1 n=c#7 v=0
424142 On ch=1 n=g7 v=0
424146 On ch=1 n=g6 v=71
424239 On ch=1 n=c7 v=72
424240 On ch=1 n=g6 v=0
424305 On ch=1 n=a4 v=0
424305 On ch=1 n=a5 v=0
424314 On ch=1 n=g5 v=0
424316 On ch=1 n=c7 v=0
424325 On ch=1 n=a5 v=85
424328 On ch=1 n=e5 v=0
424338 On ch=1 n=e5 v=85
424340 On ch=1 n=a4 v=85
424340 On ch=1 n=g5 v=84
424340 On ch=1 n=d7 v=74
424343 On ch=1 n=c#5 v=0
424362 On ch=1 n=c#5 v=85
424441 On ch=1 n=d7 v=0
424443 On ch=1 n=c#7 v=78
424523 On ch=1 n=a5 v=0
424527 On ch=1 n=c#7 v=0
424537 On ch=1 n=e5 v=0
424541 On ch=1 n=g5 v=0
424542 On ch=1 n=a4 v=0
424542 On ch=1 n=a5 v=93
424543 On ch=1 n=c#7 v=81
424561 On ch=1 n=c#5 v=0
424566 On ch=1 n=a4 v=92
424642 On ch=1 n=c#7 v=0
424643 On ch=1 n=g7 v=83
424648 On ch=1 n=c#8 v=84
424715 On ch=1 n=a5 v=0
424723 On ch=1 n=g7 v=0
424732 On ch=1 n=c#8 v=0
424738 On ch=1 n=c#7 v=72
424739 On ch=1 n=a4 v=0
424745 On ch=1 n=a5 v=95
424755 On ch=1 n=a4 v=95
424838 On ch=1 n=c#7 v=0
424842 On ch=1 n=f#7 v=72
424924 On ch=1 n=a5 v=0
424928 On ch=1 n=f#7 v=0
424934 On ch=1 n=a4 v=0
424943 On ch=1 n=a5 v=98
424952 On ch=1 n=a4 v=98
424959 On ch=1 n=a7 v=74
425064 On ch=1 n=a7 v=0
425064 Par ch=1 c=64 v=0
425068 On ch=1 n=g7 v=77
425145 On ch=1 n=a5 v=0
425151 On ch=1 n=a4 v=0
425159 On ch=1 n=g7 v=0
425165 Par ch=1 c=64 v=127
425168 On ch=1 n=a5 v=101
425171 On ch=1 n=a4 v=100
425171 On ch=1 n=g7 v=80
425263 On ch=1 n=g7 v=0
425266 On ch=1 n=e8 v=83
425268 On ch=1 n=c8 v=83
425362 On ch=1 n=c8 v=0
425363 On ch=1 n=e8 v=0
425364 On ch=1 n=a5 v=0
425367 On ch=1 n=a4 v=0
425370 On ch=1 n=c#8 v=84
425464 On ch=1 n=c#8 v=0
425467 On ch=1 n=g7 v=81
425563 On ch=1 n=g7 v=0
425565 On ch=1 n=e7 v=78
425570 On ch=1 n=c7 v=78
425662 On ch=1 n=e7 v=0
425664 On ch=1 n=c#7 v=74
425665 On ch=1 n=c7 v=0
425764 On ch=1 n=e6 v=117
425765 On ch=1 n=g6 v=71
425767 On ch=1 n=c#7 v=0
425767 On ch=1 n=a5 v=94
425885 On ch=1 n=g6 v=0
425885 On ch=1 n=e7 v=84
425886 On ch=1 n=c7 v=83
425981 On ch=1 n=e7 v=0
425983 On ch=1 n=c#7 v=83
425985 On ch=1 n=a5 v=0
425985 On ch=1 n=e6 v=0
425987 On ch=1 n=c7 v=0
426080 On ch=1 n=g6 v=83
426083 On ch=1 n=c#7 v=0
426179 On ch=1 n=e6 v=81
426179 On ch=1 n=c6 v=81
426180 On ch=1 n=g6 v=0
426276 On ch=1 n=e6 v=0
426283 On ch=1 n=c6 v=0
426290 On ch=1 n=c#6 v=81
426382 On ch=1 n=e5 v=112
426384 On ch=1 n=g5 v=79
426387 On ch=1 n=a4 v=88
426388 On ch=1 n=c#6 v=0
426485 On ch=1 n=g5 v=0
426487 On ch=1 n=e6 v=78
426488 On ch=1 n=c6 v=78
426578 On ch=1 n=e5 v=0
426580 On ch=1 n=e6 v=0
426580 On ch=1 n=a4 v=0
426591 On ch=1 n=c#6 v=76
426592 On ch=1 n=c6 v=0
426704 On ch=1 n=g5 v=75
426709 On ch=1 n=c#6 v=0
426802 On ch=1 n=c5 v=75
426804 On ch=1 n=g5 v=0
426806 On ch=1 n=e5 v=74
426897 On ch=1 n=c5 v=0
426904 On ch=1 n=e5 v=0
426905 On ch=1 n=c#5 v=74
427005 On ch=1 n=a3 v=106
427005 On ch=1 n=a2 v=82
427007 On ch=1 n=c#5 v=0
427009 On ch=1 n=g4 v=71
427098 On ch=1 n=e5 v=72
427107 On ch=1 n=c#5 v=71
427112 On ch=1 n=g4 v=0
427193 On ch=1 n=e5 v=0
427204 On ch=1 n=d#5 v=73
427208 On ch=1 n=c#5 v=0
427300 On ch=1 n=c#5 v=73
427309 On ch=1 n=d#5 v=0
427393 On ch=1 n=c#5 v=0
427410 On ch=1 n=g4 v=74
427510 On ch=1 n=g5 v=76
427519 On ch=1 n=e5 v=76
427522 On ch=1 n=g4 v=0
427525 Par ch=1 c=64 v=0
427603 On ch=1 n=e5 v=0
427604 On ch=1 n=a3 v=0
427607 On ch=1 n=a2 v=0
427617 On ch=1 n=g#5 v=76
427626 On ch=1 n=g#3 v=76
427626 On ch=1 n=g#2 v=76
427627 On ch=1 n=e5 v=76
427627 On ch=1 n=g#4 v=76
427647 On ch=1 n=g5 v=0
427825 On ch=1 n=e5 v=0
427825 On ch=1 n=g#3 v=0
427826 On ch=1 n=g#4 v=0
427828 On ch=1 n=g#2 v=0
427870 On ch=1 n=g#5 v=0
428024 On ch=1 n=g3 v=72
428122 On ch=1 n=g3 v=0
428125 On ch=1 n=g#3 v=72
428223 On ch=1 n=g#3 v=0
428223 On ch=1 n=g3 v=72
428281 On ch=1 n=g3 v=0
428284 On ch=1 n=g#3 v=72
428333 On ch=1 n=a5 v=92
428343 On ch=1 n=g#3 v=0
428346 On ch=1 n=a3 v=72
428376 On ch=1 n=a4 v=76
428396 On ch=1 n=f#5 v=76
428444 On ch=1 n=a3 v=0
428444 On ch=1 n=g#3 v=73
428542 On ch=1 n=g#3 v=0
428545 On ch=1 n=a3 v=73
428643 On ch=1 n=a3 v=0
428643 On ch=1 n=g#3 v=74
428727 On ch=1 n=g#3 v=0
428730 On ch=1 n=f#5 v=0
428740 On ch=1 n=f#4 v=53
428740 On ch=1 n=f#5 v=68
428743 On ch=1 n=a3 v=75
428751 On ch=1 n=a4 v=0
428758 On ch=1 n=a5 v=0
428760 On ch=1 n=d#5 v=53
428838 On ch=1 n=a3 v=0
428841 On ch=1 n=g#3 v=75
428935 On ch=1 n=g#5 v=80
428942 On ch=1 n=g#3 v=0
428942 On ch=1 n=f#4 v=0
428948 On ch=1 n=a3 v=76
428965 On ch=1 n=e5 v=64
428967 On ch=1 n=f#5 v=0
428995 On ch=1 n=g#4 v=65
429040 On ch=1 n=a3 v=0
429040 On ch=1 n=g#3 v=76
429047 On ch=1 n=d#5 v=0
429160 On ch=1 n=g#3 v=0
429160 On ch=1 n=a3 v=77
429258 On ch=1 n=a3 v=0
429261 On ch=1 n=g#3 v=78
429359 On ch=1 n=g#3 v=0
429359 On ch=1 n=a3 v=78
429460 On ch=1 n=a3 v=0
429460 On ch=1 n=g#3 v=79
429554 On ch=1 n=a5 v=92
429564 On ch=1 n=g#3 v=0
429564 On ch=1 n=f#5 v=76
429566 On ch=1 n=a4 v=76
429566 On ch=1 n=a3 v=79
429581 On ch=1 n=e5 v=0
429598 On ch=1 n=g#5 v=0
429608 On ch=1 n=g#4 v=0
429656 On ch=1 n=a3 v=0
429659 On ch=1 n=g#3 v=80
429674 On ch=1 n=a4 v=0
429717 On ch=1 n=f#5 v=0
429754 On ch=1 n=a5 v=0
429757 On ch=1 n=g#3 v=0
429757 On ch=1 n=a3 v=81
429857 On ch=1 n=a3 v=0
429857 On ch=1 n=g#3 v=81
429955 On ch=1 n=g#3 v=0
429958 On ch=1 n=f#5 v=91
429961 On ch=1 n=a3 v=82
429978 On ch=1 n=f#4 v=76
429988 On ch=1 n=d#5 v=75
430076 On ch=1 n=a3 v=0
430076 On ch=1 n=g#3 v=82
430179 On ch=1 n=g#3 v=0
430179 On ch=1 n=g#5 v=89
430182 On ch=1 n=e5 v=73
430182 On ch=1 n=g#4 v=73
430182 On ch=1 n=a3 v=83
430199 On ch=1 n=f#4 v=0
430205 On ch=1 n=f#5 v=0
430207 On ch=1 n=d#5 v=0
430277 On ch=1 n=a3 v=0
430277 On ch=1 n=g#3 v=84
430356 On ch=1 n=e5 v=0
430359 On ch=1 n=g#3 v=0
430359 On ch=1 n=g#4 v=0
430375 On ch=1 n=a5 v=86
430378 On ch=1 n=e5 v=71
430378 On ch=1 n=a4 v=77
430378 On ch=1 n=a3 v=84
430384 On ch=1 n=g#5 v=0
430476 On ch=1 n=a3 v=0
430476 On ch=1 n=g3 v=83
430577 On ch=1 n=g3 v=0
430577 On ch=1 n=a3 v=81
430675 On ch=1 n=a3 v=0
430678 On ch=1 n=g3 v=79
430776 On ch=1 n=g3 v=0
430776 On ch=1 n=a3 v=78
430896 On ch=1 n=a3 v=0
430896 On ch=1 n=g3 v=76
430997 On ch=1 n=g3 v=0
430997 On ch=1 n=a3 v=74
431095 On ch=1 n=a3 v=0
431098 On ch=1 n=g3 v=72
431176 On ch=1 n=e5 v=0
431176 On ch=1 n=c#5 v=79
431179 On ch=1 n=g3 v=0
431179 On ch=1 n=a4 v=0
431199 On ch=1 n=e4 v=64
431199 On ch=1 n=a3 v=72
431204 On ch=1 n=a5 v=0
431216 On ch=1 n=a4 v=64
431297 On ch=1 n=a3 v=0
431297 On ch=1 n=g3 v=72
431374 On ch=1 n=a4 v=0
431377 On ch=1 n=e5 v=77
431378 On ch=1 n=g3 v=0
431378 On ch=1 n=e4 v=0
431397 On ch=1 n=e4 v=78
431400 On ch=1 n=g#3 v=84
431407 On ch=1 n=g#4 v=76
431434 On ch=1 n=c#5 v=0
431495 On ch=1 n=g#3 v=0
431498 On ch=1 n=g3 v=84
431544 On ch=1 n=e4 v=0
431596 On ch=1 n=g3 v=0
431596 On ch=1 n=f#3 v=83
431694 On ch=1 n=g#4 v=0
431717 On ch=1 n=f#3 v=0
431717 On ch=1 n=f3 v=82
431816 On ch=1 n=e5 v=0
431817 On ch=1 n=f3 v=0
431820 On ch=1 n=e3 v=81
431915 On ch=1 n=e3 v=0
431918 On ch=1 n=d#3 v=80
432016 On ch=1 n=d#3 v=0
432016 On ch=1 n=d3 v=78
432117 On ch=1 n=d3 v=0
432117 On ch=1 n=c#3 v=77
432215 On ch=1 n=c#3 v=0
432218 On ch=1 n=c3 v=76
432316 On ch=1 n=c3 v=0
432316 On ch=1 n=b2 v=75
432397 On ch=1 n=d#5 v=68
432417 On ch=1 n=b2 v=0
432417 On ch=1 n=c5 v=66
432419 On ch=1 n=f#4 v=67
432419 On ch=1 n=a2 v=74
432524 On ch=1 n=f#4 v=0
432534 On ch=1 n=a2 v=0
432534 On ch=1 n=g#2 v=72
432631 On ch=1 n=d#5 v=0
432635 On ch=1 n=g#2 v=0
432635 On ch=1 n=c5 v=0
432638 On ch=1 n=c#5 v=60
432638 On ch=1 n=e4 v=60
432640 On ch=1 n=c#2 v=96
432733 On ch=1 n=e4 v=0
432733 On ch=1 n=c#5 v=0
432736 On ch=1 n=a4 v=60
432834 On ch=1 n=a4 v=0
432834 On ch=1 n=c#2 v=0
432834 On ch=1 n=g#4 v=60
432932 On ch=1 n=g#4 v=0
432934 On ch=1 n=e5 v=61
433032 On ch=1 n=e5 v=0
433032 On ch=1 n=d#5 v=61
433133 On ch=1 n=d#5 v=0
433133 On ch=1 n=c#5 v=62
433234 On ch=1 n=c#5 v=0
433234 On ch=1 n=g4 v=62
433234 On ch=1 n=d#3 v=60
433332 On ch=1 n=g4 v=0
433335 On ch=1 n=d#3 v=0
433335 On ch=1 n=g#4 v=63
433335 On ch=1 n=e4 v=60
433452 On ch=1 n=e4 v=0
433452 On ch=1 n=g#4 v=0
433455 On ch=1 n=g4 v=63
433455 On ch=1 n=d#4 v=60
433553 On ch=1 n=g4 v=0
433553 On ch=1 n=e5 v=64
433592 On ch=1 n=d#4 v=0
433654 On ch=1 n=e5 v=0
433654 On ch=1 n=d#5 v=64
433752 On ch=1 n=d#5 v=0
433755 On ch=1 n=c#5 v=65
433853 On ch=1 n=c#5 v=0
433853 On ch=1 n=c5 v=65
433856 On ch=1 n=a4 v=57
433954 On ch=1 n=c5 v=0
433954 On ch=1 n=c#5 v=66
433956 On ch=1 n=g#4 v=63
433967 On ch=1 n=a4 v=0
434052 On ch=1 n=c#5 v=0
434054 On ch=1 n=g4 v=70
434054 On ch=1 n=c5 v=66
434065 On ch=1 n=g#4 v=0
434152 On ch=1 n=c5 v=0
434155 On ch=1 n=f#4 v=76
434155 On ch=1 n=a5 v=67
434169 On ch=1 n=g4 v=0
434273 On ch=1 n=a5 v=0
434276 On ch=1 n=f4 v=83
434276 On ch=1 n=g#5 v=67
434286 On ch=1 n=f#4 v=0
434374 On ch=1 n=g#5 v=0
434374 On ch=1 n=g5 v=68
434376 On ch=1 n=e4 v=91
434394 On ch=1 n=f4 v=0
434472 On ch=1 n=g5 v=0
434474 On ch=1 n=d#4 v=98
434474 On ch=1 n=f#5 v=68
434490 On ch=1 n=e4 v=0
434572 On ch=1 n=f#5 v=0
434575 On ch=1 n=g#5 v=68
434575 On ch=1 n=g#3 v=71
434584 On ch=1 n=d#4 v=0
434673 On ch=1 n=g#3 v=0
434673 On ch=1 n=g#5 v=0
434673 On ch=1 n=f#5 v=69
434676 On ch=1 n=c5 v=72
434771 On ch=1 n=f#5 v=0
434774 On ch=1 n=e6 v=69
434833 On ch=1 n=c5 v=0
434872 On ch=1 n=e6 v=0
434872 On ch=1 n=d#6 v=70
434973 On ch=1 n=d#6 v=0
434973 On ch=1 n=f#5 v=70
435093 On ch=1 n=f#5 v=0
435093 On ch=1 n=e5 v=71
435093 On ch=1 n=c#4 v=76
435191 On ch=1 n=e5 v=0
435194 On ch=1 n=c#4 v=0
435194 On ch=1 n=a5 v=71
435194 On ch=1 n=a4 v=77
435292 On ch=1 n=a4 v=0
435292 On ch=1 n=a5 v=0
435295 On ch=1 n=g#5 v=72
435295 On ch=1 n=g#4 v=78
435393 On ch=1 n=g#5 v=0
435393 On ch=1 n=e6 v=72
435432 On ch=1 n=g#4 v=0
435494 On ch=1 n=e6 v=0
435494 On ch=1 n=d#6 v=73
435592 On ch=1 n=d#6 v=0
435594 On ch=1 n=c#6 v=73
435692 On ch=1 n=c#6 v=0
435692 On ch=1 n=g5 v=74
435695 On ch=1 n=d#4 v=82
435793 On ch=1 n=d#4 v=0
435793 On ch=1 n=g5 v=0
435793 On ch=1 n=g#5 v=74
435796 On ch=1 n=e5 v=83
435914 On ch=1 n=e5 v=0
435914 On ch=1 n=g#5 v=0
435914 On ch=1 n=g5 v=75
435916 On ch=1 n=d#5 v=84
436012 On ch=1 n=g5 v=0
436014 On ch=1 n=e6 v=75
436054 On ch=1 n=d#5 v=0
436112 On ch=1 n=e6 v=0
436112 On ch=1 n=d#6 v=76
436213 On ch=1 n=d#6 v=0
436213 On ch=1 n=c#6 v=76
436311 On ch=1 n=c#6 v=0
436314 On ch=1 n=a5 v=105
436314 On ch=1 n=c6 v=76
436412 On ch=1 n=c6 v=0
436415 On ch=1 n=g#5 v=89
436415 On ch=1 n=c#6 v=77
436426 On ch=1 n=a5 v=0
436513 On ch=1 n=c#6 v=0
436513 On ch=1 n=c6 v=77
436516 On ch=1 n=g5 v=97
436532 On ch=1 n=g#5 v=0
436611 On ch=1 n=c6 v=0
436614 On ch=1 n=a6 v=78
436616 On ch=1 n=f#5 v=106
436634 On ch=1 n=g5 v=0
436731 On ch=1 n=a6 v=0
436734 On ch=1 n=f5 v=115
436734 On ch=1 n=g#6 v=78
436751 On ch=1 n=f#5 v=0
436832 On ch=1 n=g#6 v=0
436835 On ch=1 n=e5 v=117
436835 On ch=1 n=g6 v=79
436851 On ch=1 n=f5 v=0
436933 On ch=1 n=g6 v=0
436933 On ch=1 n=f#6 v=79
436936 On ch=1 n=d#5 v=117
436950 On ch=1 n=e5 v=0
437031 On ch=1 n=f#6 v=0
437034 On ch=1 n=g#6 v=80
437036 On ch=1 n=g#4 v=95
437052 On ch=1 n=d#5 v=0
437132 On ch=1 n=g#4 v=0
437132 On ch=1 n=g#6 v=0
437134 On ch=1 n=f#6 v=80
437134 On ch=1 n=c6 v=96
437232 On ch=1 n=f#6 v=0
437232 On ch=1 n=e7 v=81
437291 On ch=1 n=c6 v=0
437333 On ch=1 n=e7 v=0
437333 On ch=1 n=d#7 v=81
437431 On ch=1 n=d#7 v=0
437434 On ch=1 n=f#6 v=82
437512 On ch=1 n=f#6 v=0
437532 Par ch=1 c=64 v=127
437532 On ch=1 n=e6 v=82
437535 On ch=1 n=c#4 v=84
437535 On ch=1 n=c#3 v=84
437646 On ch=1 n=c#3 v=0
437646 On ch=1 n=c#4 v=0
437652 On ch=1 n=e6 v=0
437652 On ch=1 n=f#6 v=83
437753 On ch=1 n=f#6 v=0
437756 On ch=1 n=c#6 v=108
437756 On ch=1 n=e6 v=83
437756 On ch=1 n=c#5 v=84
437851 On ch=1 n=e6 v=0
437854 On ch=1 n=e7 v=84
437876 On ch=1 n=c#6 v=0
437952 On ch=1 n=e7 v=0
437955 On ch=1 n=c#5 v=0
437955 Par ch=1 c=64 v=0
437955 On ch=1 n=d#7 v=84
438053 On ch=1 n=d#7 v=0
438053 On ch=1 n=c#7 v=78
438151 On ch=1 n=c#7 v=0
438154 Par ch=1 c=64 v=127
438154 On ch=1 n=d#4 v=86
438154 On ch=1 n=f#6 v=72
438156 On ch=1 n=d#3 v=86
438245 On ch=1 n=d#3 v=0
438245 On ch=1 n=d#4 v=0
438252 On ch=1 n=f#6 v=0
438252 On ch=1 n=g#6 v=72
438352 On ch=1 n=g#6 v=0
438355 On ch=1 n=c#6 v=111
438355 On ch=1 n=f#6 v=78
438358 On ch=1 n=c#5 v=87
438473 On ch=1 n=f#6 v=0
438473 On ch=1 n=e7 v=84
438498 On ch=1 n=c#6 v=0
438571 On ch=1 n=e7 v=0
438574 On ch=1 n=c#5 v=0
438574 On ch=1 n=d#7 v=84
438576 Par ch=1 c=64 v=0
438672 On ch=1 n=d#7 v=0
438672 On ch=1 n=c#7 v=78
438772 On ch=1 n=c#7 v=0
438772 Par ch=1 c=64 v=127
438772 On ch=1 n=g#6 v=72
438775 On ch=1 n=e4 v=89
438775 On ch=1 n=e3 v=89
438867 On ch=1 n=e3 v=0
438867 On ch=1 n=e4 v=0
438873 On ch=1 n=g#6 v=0
438873 On ch=1 n=a6 v=72
438971 On ch=1 n=a6 v=0
438974 On ch=1 n=g#6 v=78
438977 On ch=1 n=c#6 v=114
438977 On ch=1 n=c#5 v=90
439072 On ch=1 n=g#6 v=0
439072 On ch=1 n=e7 v=84
439097 On ch=1 n=c#6 v=0
439173 On ch=1 n=e7 v=0
439173 On ch=1 n=c#5 v=0
439176 Par ch=1 c=64 v=0
439176 On ch=1 n=d#7 v=84
439290 On ch=1 n=d#7 v=0
439293 On ch=1 n=c#7 v=78
439391 On ch=1 n=c#7 v=0
439391 On ch=1 n=a6 v=72
439394 On ch=1 n=f#4 v=92
439394 On ch=1 n=f#3 v=92
439486 On ch=1 n=f#3 v=0
439486 On ch=1 n=f#4 v=0
439492 On ch=1 n=a6 v=0
439492 On ch=1 n=b6 v=72
439593 On ch=1 n=b6 v=0
439596 On ch=1 n=c#6 v=117
439596 On ch=1 n=a6 v=78
439596 On ch=1 n=c#5 v=93
439691 On ch=1 n=a6 v=0
439694 On ch=1 n=e7 v=84
439716 On ch=1 n=c#6 v=0
439792 On ch=1 n=e7 v=0
439794 On ch=1 n=c#5 v=0
439794 On ch=1 n=d#7 v=84
439892 On ch=1 n=d#7 v=0
439892 On ch=1 n=c#7 v=78
439971 On ch=1 n=c#7 v=0
439990 Par ch=1 c=64 v=127
439993 On ch=1 n=d5 v=96
439996 On ch=1 n=g2 v=95
439998 On ch=1 n=g3 v=96
440111 On ch=1 n=d5 v=0
440114 On ch=1 n=d#5 v=72
440212 On ch=1 n=d#5 v=0
440214 On ch=1 n=f5 v=73
440215 On ch=1 n=g3 v=0
440220 On ch=1 n=g2 v=0
440312 On ch=1 n=f5 v=0
440312 On ch=1 n=g5 v=74
440410 On ch=1 n=g5 v=0
440413 On ch=1 n=g#5 v=75
440511 On ch=1 n=g#5 v=0
440511 On ch=1 n=a#5 v=76
440598 On ch=1 n=d#5 v=85
440605 On ch=1 n=d#4 v=86
440605 On ch=1 n=c#5 v=83
440612 On ch=1 n=a#5 v=0
440612 On ch=1 n=c6 v=77
440613 On ch=1 n=a#4 v=85
440713 On ch=1 n=c6 v=0
440713 On ch=1 n=c#6 v=78
440801 On ch=1 n=d#4 v=0
440803 On ch=1 n=d#5 v=0
440809 On ch=1 n=c#5 v=0
440811 On ch=1 n=c#6 v=0
440814 On ch=1 n=a#4 v=0
440816 On ch=1 n=d#6 v=79
440912 On ch=1 n=d#6 v=0
440912 On ch=1 n=f6 v=80
441021 On ch=1 n=c#6 v=84
441024 On ch=1 n=d#6 v=90
441025 On ch=1 n=a#5 v=87
441025 On ch=1 n=d#5 v=85
441032 On ch=1 n=f6 v=0
441032 On ch=1 n=g6 v=81
441133 On ch=1 n=g6 v=0
441133 On ch=1 n=g#6 v=82
441197 On ch=1 n=d#6 v=0
441199 On ch=1 n=d#5 v=0
441200 On ch=1 n=c#6 v=0
441207 On ch=1 n=a#5 v=0
441211 On ch=1 n=g#6 v=0
441221 On ch=1 n=c#6 v=93
441228 On ch=1 n=a#6 v=83
441235 On ch=1 n=d#6 v=94
441236 On ch=1 n=d#5 v=90
441238 On ch=1 n=a#5 v=90
441329 On ch=1 n=a#6 v=0
441329 On ch=1 n=c7 v=84
441419 On ch=1 n=c#6 v=0
441429 On ch=1 n=c7 v=0
441432 On ch=1 n=c#7 v=85
441433 On ch=1 n=e6 v=117
441436 On ch=1 n=d#6 v=0
441438 On ch=1 n=d#5 v=0
441440 On ch=1 n=e5 v=98
441442 On ch=1 n=a#5 v=0
441527 On ch=1 n=c#7 v=0
441530 On ch=1 n=d#7 v=86
441623 On ch=1 n=e6 v=0
441623 On ch=1 n=c#6 v=95
441624 On ch=1 n=d#6 v=103
441628 On ch=1 n=d#7 v=0
441630 On ch=1 n=d#5 v=99
441631 On ch=1 n=f7 v=87
441632 On ch=1 n=e5 v=0
441647 On ch=1 n=a#5 v=98
441729 On ch=1 n=f7 v=0
441729 On ch=1 n=g7 v=88
441837 On ch=1 n=d#6 v=0
441839 On ch=1 n=c#6 v=0
441843 On ch=1 n=d#5 v=0
441849 On ch=1 n=g7 v=0
441849 On ch=1 n=d#6 v=108
441852 On ch=1 n=g#7 v=89
441862 On ch=1 n=a#5 v=0
441863 On ch=1 n=c#6 v=104
441866 On ch=1 n=d#5 v=98
441873 On ch=1 n=a#5 v=107
441944 On ch=1 n=g#7 v=0
441947 On ch=1 n=a#7 v=90
441979 On ch=1 n=d#6 v=0
441998 On ch=1 n=a#5 v=0
442001 On ch=1 n=c#6 v=0
442004 On ch=1 n=d#5 v=0
442045 On ch=1 n=a#7 v=0
442045 On ch=1 n=b7 v=91
442146 On ch=1 n=b7 v=0
442146 On ch=1 n=c8 v=92
442244 On ch=1 n=c8 v=0
442247 On ch=1 n=c#8 v=93
442345 On ch=1 n=c#8 v=0
442345 On ch=1 n=d#8 v=94
442348 Par ch=1 c=64 v=0
442439 On ch=1 n=g#2 v=84
442446 On ch=1 n=d#8 v=0
442446 On ch=1 n=e8 v=96
442534 On ch=1 n=c#3 v=83
442542 On ch=1 n=g#2 v=0
442605 On ch=1 n=e8 v=0
442653 On ch=1 n=c#3 v=0
442663 On ch=1 n=b2 v=74
442750 On ch=1 n=a2 v=65
442765 On ch=1 n=b2 v=0
442849 On ch=1 n=a2 v=0
442874 On ch=1 n=g#2 v=56
442965 On ch=1 n=f#3 v=47
442969 On ch=1 n=f#4 v=59
442979 On ch=1 n=g#2 v=0
443054 On ch=1 n=e3 v=47
443065 On ch=1 n=f#3 v=0
443069 On ch=1 n=f#4 v=0
443071 On ch=1 n=e4 v=60
443154 On ch=1 n=e3 v=0
443154 On ch=1 n=d#3 v=49
443160 On ch=1 n=d#4 v=61
443163 On ch=1 n=e4 v=0
443252 On ch=1 n=c#3 v=49
443253 On ch=1 n=d#3 v=0
443256 On ch=1 n=d#4 v=0
443261 On ch=1 n=c#4 v=61
443351 On ch=1 n=c#3 v=0
443359 On ch=1 n=c#4 v=0
443365 On ch=1 n=a3 v=51
443368 On ch=1 n=a4 v=63
443475 On ch=1 n=g#3 v=52
443479 On ch=1 n=a3 v=0
443489 On ch=1 n=a4 v=0
443494 On ch=1 n=g#4 v=63
443570 On ch=1 n=g#3 v=0
443580 On ch=1 n=f#4 v=64
443588 On ch=1 n=g#4 v=0
443592 On ch=1 n=f#3 v=53
443665 On ch=1 n=e4 v=65
443672 On ch=1 n=e3 v=54
443677 On ch=1 n=f#4 v=0
443691 On ch=1 n=f#3 v=0
443766 On ch=1 n=e4 v=0
443775 On ch=1 n=e3 v=0
443789 On ch=1 n=c#4 v=55
443792 On ch=1 n=c#5 v=68
443870 On ch=1 n=a3 v=57
443873 On ch=1 n=a4 v=68
443883 On ch=1 n=c#4 v=0
443894 On ch=1 n=c#5 v=0
443972 On ch=1 n=a4 v=0
443973 On ch=1 n=a3 v=0
443974 On ch=1 n=c#5 v=69
443979 On ch=1 n=c#4 v=57
444067 On ch=1 n=c#5 v=0
444071 On ch=1 n=g#4 v=70
444076 On ch=1 n=g#3 v=59
444078 On ch=1 n=c#4 v=0
444168 On ch=1 n=g#3 v=0
444171 On ch=1 n=g#4 v=0
444178 On ch=1 n=f#4 v=59
444190 On ch=1 n=f#5 v=71
444295 On ch=1 n=e5 v=72
444297 On ch=1 n=e4 v=60
444298 On ch=1 n=f#4 v=0
444305 On ch=1 n=f#5 v=0
444395 On ch=1 n=e5 v=0
444400 On ch=1 n=e4 v=0
444401 On ch=1 n=d#5 v=73
444402 On ch=1 n=d#4 v=61
444496 On ch=1 n=d#5 v=0
444500 On ch=1 n=d#4 v=0
444502 On ch=1 n=c#4 v=63
444513 On ch=1 n=c#5 v=75
444599 On ch=1 n=a4 v=64
444600 On ch=1 n=c#4 v=0
444612 On ch=1 n=a5 v=76
444616 On ch=1 n=c#5 v=0
444696 On ch=1 n=g#5 v=77
444698 On ch=1 n=a4 v=0
444704 On ch=1 n=g#4 v=65
444706 On ch=1 n=a5 v=0
444793 On ch=1 n=g#5 v=0
444798 On ch=1 n=g#4 v=0
444801 On ch=1 n=f#5 v=79
444806 On ch=1 n=f#4 v=66
444888 On ch=1 n=e4 v=67
444898 On ch=1 n=f#4 v=0
444898 On ch=1 n=f#5 v=0
444909 On ch=1 n=e5 v=79
444978 On ch=1 n=e4 v=0
444998 On ch=1 n=c#5 v=68
445008 On ch=1 n=e5 v=0
445011 On ch=1 n=c#6 v=80
445092 On ch=1 n=c#5 v=0
445106 On ch=1 n=c#6 v=0
445109 On ch=1 n=b5 v=81
445111 On ch=1 n=b4 v=70
445211 On ch=1 n=a4 v=71
445231 On ch=1 n=a5 v=84
445232 On ch=1 n=b5 v=0
445233 On ch=1 n=b4 v=0
445307 On ch=1 n=g#4 v=73
445316 On ch=1 n=a4 v=0
445319 On ch=1 n=g#5 v=84
445330 On ch=1 n=a5 v=0
445409 On ch=1 n=g#4 v=0
445417 On ch=1 n=g#5 v=0
445420 On ch=1 n=f#6 v=86
445426 On ch=1 n=f#5 v=74
445504 On ch=1 n=e6 v=86
445520 On ch=1 n=f#5 v=0
445521 On ch=1 n=f#6 v=0
445533 On ch=1 n=e5 v=74
445598 On ch=1 n=e6 v=0
445623 On ch=1 n=d#5 v=76
445625 On ch=1 n=e5 v=0
445629 On ch=1 n=d#6 v=87
445706 On ch=1 n=c#5 v=77
445711 On ch=1 n=c#6 v=88
445721 On ch=1 n=d#5 v=0
445728 On ch=1 n=d#6 v=0
445801 On ch=1 n=c#6 v=0
445805 On ch=1 n=c#5 v=0
445805 On ch=1 n=a5 v=78
445820 On ch=1 n=a6 v=90
445905 On ch=1 n=a5 v=0
445915 On ch=1 n=a6 v=0
445919 On ch=1 n=g#6 v=92
445925 On ch=1 n=g#5 v=80
446029 On ch=1 n=f#6 v=92
446031 On ch=1 n=g#6 v=0
446042 On ch=1 n=g#5 v=0
446046 On ch=1 n=f#5 v=81
446122 On ch=1 n=e5 v=82
446128 On ch=1 n=e6 v=93
446131 On ch=1 n=f#6 v=0
446140 On ch=1 n=f#5 v=0
446214 On ch=1 n=e5 v=0
446226 On ch=1 n=c#7 v=94
446229 On ch=1 n=e6 v=0
446247 On ch=1 n=c#6 v=83
446320 On ch=1 n=c#7 v=0
446322 On ch=1 n=a6 v=96
446331 On ch=1 n=a5 v=84
446341 On ch=1 n=c#6 v=0
446414 On ch=1 n=a6 v=0
446417 On ch=1 n=c#6 v=85
446426 On ch=1 n=a5 v=0
446436 On ch=1 n=c#7 v=97
446511 On ch=1 n=c#6 v=0
446526 On ch=1 n=g#6 v=97
446532 On ch=1 n=c#7 v=0
446535 On ch=1 n=g#5 v=85
446627 On ch=1 n=g#6 v=0
446630 On ch=1 n=g#5 v=0
446633 On ch=1 n=f#6 v=88
446638 On ch=1 n=f#7 v=99
446730 On ch=1 n=e7 v=100
446730 On ch=1 n=e6 v=88
446733 On ch=1 n=f#7 v=0
446734 On ch=1 n=f#6 v=0
446844 On ch=1 n=e7 v=0
446844 On ch=1 n=d#7 v=101
446846 On ch=1 n=e6 v=0
446850 On ch=1 n=d#6 v=89
446938 On ch=1 n=c#6 v=90
446943 On ch=1 n=d#7 v=0
446951 On ch=1 n=d#6 v=0
446961 On ch=1 n=c#7 v=103
447039 On ch=1 n=c#6 v=0
447042 On ch=1 n=a7 v=103
447059 On ch=1 n=c#7 v=0
447063 On ch=1 n=a6 v=92
447140 On ch=1 n=a7 v=0
447140 On ch=1 n=g6 v=92
447152 On ch=1 n=g7 v=105
447161 On ch=1 n=a6 v=0
447236 On ch=1 n=g6 v=0
447246 On ch=1 n=a7 v=106
447249 On ch=1 n=g7 v=0
447253 On ch=1 n=a6 v=94
447340 On ch=1 n=a7 v=0
447347 Par ch=1 c=64 v=127
447355 On ch=1 n=a6 v=0
447356 On ch=1 n=g#7 v=107
447357 On ch=1 n=g#6 v=95
447448 On ch=1 n=e8 v=108
447456 On ch=1 n=g#7 v=0
447529 On ch=1 n=g#6 v=0
447529 On ch=1 n=d#8 v=107
447564 On ch=1 n=e8 v=0
447627 On ch=1 n=c#8 v=106
447658 On ch=1 n=d#8 v=0
447728 On ch=1 n=g#7 v=105
447767 On ch=1 n=c#8 v=0
447806 On ch=1 n=e7 v=104
447843 On ch=1 n=g#7 v=0
447862 On ch=1 n=e7 v=0
447907 On ch=1 n=d#7 v=103
448008 On ch=1 n=c#7 v=102
448041 On ch=1 n=d#7 v=0
448086 On ch=1 n=g#6 v=101
448125 On ch=1 n=c#7 v=0
448187 On ch=1 n=e6 v=100
448222 On ch=1 n=g#6 v=0
448242 On ch=1 n=e6 v=0
448288 On ch=1 n=d#6 v=99
448386 On ch=1 n=c#6 v=98
448425 On ch=1 n=d#6 v=0
448467 On ch=1 n=g#5 v=97
448498 On ch=1 n=c#6 v=0
448568 On ch=1 n=e5 v=96
448602 On ch=1 n=g#5 v=0
448642 On ch=1 n=e5 v=0
448666 On ch=1 n=d#5 v=95
448747 On ch=1 n=c#5 v=94
448780 On ch=1 n=d#5 v=0
448848 On ch=1 n=g#4 v=93
448882 On ch=1 n=c#5 v=0
448946 On ch=1 n=e4 v=92
448983 On ch=1 n=g#4 v=0
449022 On ch=1 n=e4 v=0
449027 Par ch=1 c=64 v=0
449027 On ch=1 n=d#4 v=91
449128 On ch=1 n=c#4 v=90
449161 On ch=1 n=d#4 v=0
449226 On ch=1 n=g#3 v=89
449265 On ch=1 n=c#4 v=0
449307 On ch=1 n=e3 v=88
449349 On ch=1 n=g#3 v=0
449372 On ch=1 n=e3 v=0
449408 On ch=1 n=d#3 v=87
449506 On ch=1 n=c#3 v=86
449547 On ch=1 n=d#3 v=0
449587 Par ch=1 c=64 v=127
449587 On ch=1 n=a2 v=94
449620 On ch=1 n=c#3 v=0
449723 On ch=1 n=a2 v=0
450127 On ch=1 n=c#6 v=90
450133 On ch=1 n=a3 v=72
450148 On ch=1 n=e4 v=67
450150 On ch=1 n=e5 v=74
450171 On ch=1 n=c#5 v=76
450181 On ch=1 n=a4 v=61
450196 On ch=1 n=a5 v=74
450273 Par ch=1 c=64 v=0
450397 On ch=1 n=a4 v=0
450427 On ch=1 n=c#5 v=0
450447 Par ch=1 c=64 v=127
450532 On ch=1 n=a3 v=0
450542 On ch=1 n=e5 v=0
450564 On ch=1 n=e4 v=0
450599 On ch=1 n=a5 v=0
450634 On ch=1 n=c#6 v=0
450704 On ch=1 n=f#6 v=95
450705 On ch=1 n=d3 v=73
450710 Par ch=1 c=64 v=0
450724 On ch=1 n=d6 v=82
450731 On ch=1 n=d4 v=62
450733 On ch=1 n=f#5 v=78
450743 On ch=1 n=a5 v=81
450903 Par ch=1 c=64 v=127
450934 On ch=1 n=a5 v=0
451004 On ch=1 n=d4 v=0
451064 On ch=1 n=f#5 v=0
451102 On ch=1 n=d3 v=0
451124 On ch=1 n=d6 v=0
451174 On ch=1 n=f#6 v=0
451299 Par ch=1 c=64 v=0
451303 On ch=1 n=c6 v=100
451310 On ch=1 n=g#3 v=77
451325 On ch=1 n=g#4 v=72
451336 On ch=1 n=d#4 v=71
451342 On ch=1 n=g#5 v=85
451351 On ch=1 n=f#5 v=82
451367 On ch=1 n=c5 v=83
451493 Par ch=1 c=64 v=0
451564 On ch=1 n=c5 v=0
451654 On ch=1 n=g#5 v=0
451674 On ch=1 n=d#4 v=0
451695 On ch=1 n=g#3 v=0
451703 On ch=1 n=g#4 v=0
451724 On ch=1 n=c6 v=0
451727 On ch=1 n=f#5 v=0
451903 On ch=1 n=c#7 v=96
451905 On ch=1 n=c#3 v=79
451905 On ch=1 n=c#6 v=90
451905 On ch=1 n=c#2 v=84
452085 Par ch=1 c=64 v=127
452372 On ch=1 n=c#6 v=0
452372 On ch=1 n=c#7 v=0
452375 On ch=1 n=c#2 v=0
452375 On ch=1 n=c#3 v=0
452485 On ch=1 n=a6 v=96
452488 On ch=1 n=a5 v=86
452488 On ch=1 n=a4 v=84
452491 On ch=1 n=a3 v=76
452521 Par ch=1 c=64 v=0
452671 Par ch=1 c=64 v=127
452967 On ch=1 n=a6 v=0
452970 On ch=1 n=a4 v=0
452970 On ch=1 n=a5 v=0
452972 On ch=1 n=a3 v=0
453087 On ch=1 n=c#7 v=97
453090 On ch=1 n=c#6 v=90
453090 On ch=1 n=c#4 v=85
453093 On ch=1 n=c#3 v=79
453157 Par ch=1 c=64 v=0
453307 Par ch=1 c=64 v=127
453552 On ch=1 n=c#7 v=0
453555 On ch=1 n=c#4 v=0
453555 On ch=1 n=c#6 v=0
453556 On ch=1 n=c#3 v=0
453667 On ch=1 n=g#5 v=92
453667 On ch=1 n=g#6 v=99
453669 On ch=1 n=g#3 v=80
453669 On ch=1 n=g#4 v=87
453707 Par ch=1 c=64 v=0
453857 Par ch=1 c=64 v=127
454133 On ch=1 n=g#6 v=0
454133 On ch=1 n=g#5 v=0
454134 On ch=1 n=g#4 v=0
454136 On ch=1 n=g#3 v=0
454249 On ch=1 n=c#6 v=95
454249 On ch=1 n=c#7 v=101
454249 On ch=1 n=c#4 v=89
454252 On ch=1 n=c#3 v=83
454266 Par ch=1 c=64 v=0
454388 Par ch=1 c=64 v=127
454731 On ch=1 n=c#4 v=0
454731 On ch=1 n=c#7 v=0
454731 On ch=1 n=c#6 v=0
454733 On ch=1 n=c#3 v=0
454845 On ch=1 n=g6 v=102
454848 On ch=1 n=g4 v=90
454848 On ch=1 n=g3 v=84
454848 On ch=1 n=g5 v=97
454958 Par ch=1 c=64 v=0
455108 Par ch=1 c=64 v=127
455312 On ch=1 n=g6 v=0
455313 On ch=1 n=g5 v=0
455315 On ch=1 n=g3 v=0
455315 On ch=1 n=g4 v=0
455425 On ch=1 n=c#7 v=104
455428 On ch=1 n=c#6 v=104
455428 On ch=1 n=c#4 v=92
455431 On ch=1 n=c#3 v=92
455523 On ch=1 n=c#4 v=0
455523 On ch=1 n=c#6 v=0
455523 On ch=1 n=c#7 v=0
455526 On ch=1 n=c#3 v=0
455621 On ch=1 n=f#6 v=105
455624 On ch=1 n=f#5 v=105
455624 On ch=1 n=f#4 v=93
455624 On ch=1 n=f#3 v=93
455722 On ch=1 n=f#5 v=0
455722 On ch=1 n=f#6 v=0
455725 On ch=1 n=f#3 v=0
455725 On ch=1 n=f#4 v=0
455803 On ch=1 n=c#7 v=105
455803 On ch=1 n=c#6 v=105
455803 On ch=1 n=c#4 v=93
455806 On ch=1 n=c#3 v=93
455901 On ch=1 n=c#7 v=0
455904 On ch=1 n=c#3 v=0
455904 On ch=1 n=c#4 v=0
455904 On ch=1 n=c#6 v=0
456021 On ch=1 n=f6 v=106
456021 On ch=1 n=f5 v=106
456024 On ch=1 n=f4 v=94
456024 On ch=1 n=f3 v=94
456063 Par ch=1 c=64 v=127
456122 On ch=1 n=f4 v=0
456122 On ch=1 n=f5 v=0
456122 On ch=1 n=f6 v=0
456125 On ch=1 n=f3 v=0
456223 On ch=1 n=c#7 v=106
456223 On ch=1 n=c#6 v=106
456223 On ch=1 n=c#4 v=94
456226 On ch=1 n=c#3 v=94
456341 On ch=1 n=c#7 v=0
456343 On ch=1 n=c#3 v=0
456343 On ch=1 n=c#4 v=0
456343 On ch=1 n=c#6 v=0
456571 On ch=1 n=f5 v=107
456581 On ch=1 n=c#5 v=100
456584 On ch=1 n=g#4 v=88
456584 On ch=1 n=f4 v=86
456587 On ch=1 n=c#4 v=85
456587 On ch=1 n=g#3 v=89
456587 On ch=1 n=c#3 v=85
456672 On ch=1 n=f5 v=0
456682 On ch=1 n=g#4 v=0
456682 On ch=1 n=c#5 v=0
456685 On ch=1 n=c#4 v=0
456685 On ch=1 n=f4 v=0
456688 On ch=1 n=c#3 v=0
456688 On ch=1 n=g#3 v=0
456692 On ch=1 n=f5 v=108
456702 On ch=1 n=c#5 v=100
456705 On ch=1 n=g#4 v=86
456705 On ch=1 n=f4 v=88
456705 On ch=1 n=c#4 v=86
456707 On ch=1 n=g#3 v=86
456707 On ch=1 n=c#3 v=91
457183 On ch=1 n=f4 v=0
457183 On ch=1 n=g#4 v=0
457183 On ch=1 n=c#5 v=0
457186 On ch=1 n=g#3 v=0
457186 On ch=1 n=c#4 v=0
457189 On ch=1 n=c#3 v=0
457234 On ch=1 n=f5 v=0
457421 Par ch=1 c=64 v=0
458071 Par ch=1 c=64 v=127
458091 On ch=1 n=c#8 v=108
458136 On ch=1 n=f5 v=89
458144 On ch=1 n=c#7 v=103
458154 On ch=1 n=c#6 v=87
458179 On ch=1 n=g#5 v=89
458204 On ch=1 n=f6 v=89
458504 On ch=1 n=g#5 v=0
458613 On ch=1 n=f5 v=0
458628 On ch=1 n=c#7 v=0
458630 On ch=1 n=c#6 v=0
458685 On ch=1 n=f6 v=0
458774 On ch=1 n=c#8 v=0
459580 On ch=1 n=c#4 v=112
459583 On ch=1 n=c#2 v=108
459593 On ch=1 n=c#3 v=110
461602 On ch=1 n=c#2 v=0
461809 On ch=1 n=c#3 v=0
461861 Par ch=1 c=64 v=0
462489 On ch=1 n=c#4 v=0
462489 Meta TrkEnd
TrkEnd
MTrk
0 SeqSpec 43 00 01 00
0 Meta TrkName "Sequencing"
