MFile 1 6 480
MTrk
0 TimeSig 2/4 24 8
0 Tempo 600000
720 Tempo 1000000
840 Tempo 1034482
960 Tempo 1000000
1800 Tempo 1034482
1920 Tempo 1000000
2760 Tempo 1111111
2880 Tempo 1000000
3730 Tempo 1034482
3840 Tempo 1000000
4690 Tempo 1071428
4800 Tempo 1034482
5647 Tempo 1071428
5760 Tempo 1034482
6600 Tempo 1071428
6720 Tempo 1034482
7560 Tempo 1071428
8040 Tempo 1111111
8100 Tempo 1132075
8170 Tempo 1176470
8440 Tempo 1034482
8640 Tempo 1000000
9480 Tempo 1034482
9600 Tempo 1000000
10440 Tempo 1111111
10560 Tempo 1000000
11410 Tempo 1034482
11520 Tempo 1000000
12370 Tempo 1034482
13320 Tempo 1071428
13440 Tempo 769230
13560 Tempo 1111111
13680 Tempo 1071428
13920 Tempo 769230
14040 Tempo 1111111
14160 Tempo 1071428
14400 Tempo 769230
14520 Tempo 1034482
15240 Tempo 2068965
15300 Tempo 2500000
15360 Tempo 1000000
17235 Tempo 1034482
17280 Tempo 1000000
19147 Tempo 1034482
19200 Tempo 1000000
22980 Tempo 1034482
23060 Tempo 1000000
23880 Tempo 1132075
24000 Tempo 1000000
27720 Tempo 1034482
27840 Tempo 1034482
27900 Tempo 1000000
29720 Tempo 1034482
29760 Tempo 1000000
31620 Tempo 1071428
32160 Tempo 1176470
32280 Tempo 1578947
32400 Tempo 1000000
32520 Tempo 1034482
32640 Tempo 1000000
33480 Tempo 1034482
33600 Tempo 1000000
34440 Tempo 1111111
34560 Tempo 1000000
35410 Tempo 1034482
35520 Tempo 1000000
36370 Tempo 1071428
36480 Tempo 1034482
37327 Tempo 1071428
37440 Tempo 1034482
38280 Tempo 1071428
38400 Tempo 1034482
39240 Tempo 1071428
39720 Tempo 1111111
39780 Tempo 1132075
39850 Tempo 1176470
40120 Tempo 1034482
40320 Tempo 1000000
41160 Tempo 1034482
41280 Tempo 1000000
42120 Tempo 1111111
42240 Tempo 1000000
43090 Tempo 1034482
43200 Tempo 1000000
44050 Tempo 1034482
45000 Tempo 1071428
45120 Tempo 769230
45240 Tempo 1111111
45360 Tempo 1071428
45600 Tempo 769230
45720 Tempo 1111111
45840 Tempo 1071428
46080 Tempo 769230
46200 Tempo 1034482
46920 Tempo 2068965
46980 Tempo 2500000
47040 Tempo 1000000
48915 Tempo 1034482
48960 Tempo 1000000
50827 Tempo 1034482
50880 Tempo 1000000
54660 Tempo 1034482
54740 Tempo 1000000
55560 Tempo 1132075
55680 Tempo 1000000
59400 Tempo 1034482
59520 Tempo 1034482
59580 Tempo 1000000
61400 Tempo 1034482
61440 Tempo 1000000
63300 Tempo 1071428
63840 Tempo 1176470
63960 Tempo 1224489
64080 Tempo 1000000
65005 Tempo 1034482
65040 Tempo 1000000
65960 Tempo 1034482
66000 Tempo 1000000
67140 Tempo 1034482
68047 Tempo 1071428
68210 Tempo 1000000
69660 Tempo 1034482
69720 Tempo 1000000
71940 Tempo 1034482
72000 Tempo 1000000
72540 Tempo 1034482
72600 Tempo 1000000
73500 Tempo 1034482
73560 Tempo 1000000
74460 Tempo 1034482
74520 Tempo 1000000
75780 Tempo 1034482
75840 Tempo 1000000
75900 Tempo 1000000
77700 Tempo 1034482
77760 Tempo 1000000
79620 Tempo 1034482
79680 Tempo 1000000
81540 Tempo 1034482
81600 Tempo 1000000
83460 Tempo 1034482
83520 Tempo 1000000
88260 Tempo 1034482
88320 Tempo 1000000
90180 Tempo 1034482
90240 Tempo 1000000
92000 Tempo 1071428
92100 Tempo 1111111
92160 Tempo 1034482
92400 Tempo 1111111
92640 Tempo 1224489
92880 Tempo 952380
93120 Tempo 400000
94080 Tempo 1071428
94280 Tempo 1000000
94920 Tempo 1034482
95040 Tempo 1000000
95880 Tempo 1111111
96000 Tempo 1000000
96850 Tempo 1034482
96960 Tempo 1000000
97810 Tempo 1071428
97920 Tempo 1034482
98767 Tempo 1071428
98880 Tempo 1034482
99720 Tempo 1071428
99840 Tempo 1034482
100680 Tempo 1071428
101220 Tempo 1111111
101290 Tempo 1132075
101520 Tempo 1000000
101640 Tempo 1034482
101760 Tempo 1000000
102600 Tempo 1034482
102760 Tempo 1000000
103560 Tempo 1071428
103680 Tempo 1000000
104530 Tempo 1034482
104670 Tempo 1000000
105490 Tempo 1034482
105600 Tempo 1000000
106447 Tempo 1034482
106560 Tempo 1000000
107400 Tempo 1071428
107520 Tempo 1000000
108360 Tempo 1034482
109280 Tempo 1071428
109320 Tempo 1176470
109440 Tempo 1000000
110280 Tempo 1034482
110400 Tempo 1000000
111240 Tempo 1071428
111360 Tempo 1000000
112270 Tempo 1034482
112320 Tempo 1000000
113170 Tempo 1034482
113280 Tempo 1000000
118010 Tempo 1034482
118080 Tempo 1000000
119940 Tempo 1034482
120050 Tempo 1000000
120900 Tempo 1034482
121010 Tempo 1000000
121380 Tempo 1034482
121490 Tempo 1000000
121860 Tempo 1034482
121970 Tempo 1000000
123780 Tempo 1034482
123890 Tempo 1000000
125700 Tempo 1034482
131460 Tempo 1071428
131570 Tempo 1034482
133380 Tempo 1071428
133490 Tempo 1034482
135300 Tempo 1071428
136260 Tempo 1111111
137220 Tempo 1176470
137700 Tempo 1276595
138010 Tempo 1935483
138240 Tempo 2727272
139200 TimeSig 6/8 24 8
139200 Tempo 600000
139200 Meta Marker "<2>"
140640 Tempo 434782
145440 Tempo 441176
145680 Tempo 434782
145790 Tempo 540540
145920 Tempo 434782
146760 Tempo 447761
146880 Tempo 434782
152040 Tempo 441176
152160 Tempo 454545
152640 Tempo 434782
157627 Tempo 441176
157680 Tempo 487804
157920 Tempo 2068965
158400 Tempo 434782
163560 Tempo 441176
163680 Tempo 500000
164170 Tempo 434782
165000 Tempo 441176
165585 Tempo 434782
166440 Tempo 441176
167055 Tempo 434782
167880 Tempo 441176
169320 Tempo 447761
169530 Tempo 434782
175080 Tempo 441176
175200 Tempo 434782
177960 Tempo 441176
178080 Tempo 434782
181320 Tempo 441176
181440 Tempo 434782
183840 Tempo 441176
183960 Tempo 434782
186390 Tempo 441176
186520 Tempo 447761
186720 Tempo 434782
192360 Tempo 441176
192480 Tempo 434782
198120 Tempo 441176
198240 Tempo 434782
203880 Tempo 441176
204000 Tempo 434782
209640 Tempo 441176
209760 Tempo 441176
210240 Tempo 461538
210360 Tempo 441176
211080 Tempo 447761
211200 Tempo 441176
212520 Tempo 447761
212640 Tempo 441176
213960 Tempo 447761
214080 Tempo 441176
215400 Tempo 447761
215520 Tempo 441176
216000 Tempo 461538
216120 Tempo 434782
221160 Tempo 441176
221280 Tempo 441176
221760 Tempo 461538
221880 Tempo 441176
222600 Tempo 447761
222720 Tempo 441176
224040 Tempo 447761
224160 Tempo 441176
225600 Tempo 447761
225720 Tempo 441176
227040 Tempo 447761
227160 Tempo 441176
227520 Tempo 461538
227640 Tempo 434782
232710 Tempo 441176
232800 Tempo 500000
233290 Tempo 434782
234120 Tempo 441176
234705 Tempo 434782
235560 Tempo 441176
236175 Tempo 434782
237000 Tempo 441176
238440 Tempo 447761
238650 Tempo 434782
244200 Tempo 441176
244320 Tempo 434782
247080 Tempo 441176
247200 Tempo 434782
250440 Tempo 441176
250560 Tempo 434782
252900 Tempo 441176
253320 Tempo 454545
253440 Tempo 434782
255840 Tempo 441176
256090 Tempo 1578947
256320 Tempo 434782
260640 Tempo 441176
260880 Tempo 434782
260990 Tempo 540540
261120 Tempo 434782
261960 Tempo 447761
262080 Tempo 434782
267240 Tempo 441176
267360 Tempo 454545
267840 Tempo 434782
272827 Tempo 441176
272880 Tempo 487804
273120 Tempo 1935483
273600 Tempo 434782
278760 Tempo 441176
278880 Tempo 500000
279370 Tempo 434782
288960 Tempo 434782
294600 Tempo 441176
294720 Tempo 434782
300360 Tempo 441176
300480 Tempo 434782
306120 Tempo 441176
306240 Tempo 434782
311880 Tempo 441176
312000 Tempo 441176
312480 Tempo 461538
312600 Tempo 441176
313320 Tempo 447761
313440 Tempo 441176
314760 Tempo 447761
314880 Tempo 441176
316200 Tempo 447761
316320 Tempo 441176
317640 Tempo 447761
317760 Tempo 441176
318240 Tempo 461538
318360 Tempo 434782
323400 Tempo 441176
323520 Tempo 441176
324000 Tempo 461538
324120 Tempo 441176
324840 Tempo 447761
324960 Tempo 441176
326280 Tempo 447761
326400 Tempo 441176
327840 Tempo 447761
327960 Tempo 441176
329280 Tempo 447761
329400 Tempo 441176
329760 Tempo 461538
329880 Tempo 434782
334950 Tempo 441176
335250 Tempo 434782
352200 Tempo 454545
352380 Tempo 550458
353745 Tempo 1034482
355200 Tempo 434782
362280 Tempo 441176
362400 Tempo 434782
376800 Tempo 441176
377280 Tempo 461538
377520 Tempo 461538
377940 Tempo 465116
378000 Tempo 600000
378240 Tempo 769230
378240 Meta TrkEnd
TrkEnd
MTrk
0 SeqSpec 43 00 01 00
0 Meta TrkName "No Name"
0 Par ch=2 c=0 v=0
0 Par ch=2 c=32 v=0
0 PrCh ch=2 p=0
0 Par ch=2 c=7 v=127
0 Pb ch=2 v=8192
0 Par ch=2 c=1 v=0
0 Par ch=2 c=64 v=0
0 Par ch=2 c=93 v=28
0 Par ch=2 c=91 v=100
0 Par ch=2 c=10 v=73
720 Par ch=2 c=64 v=0
720 On ch=2 n=d5 v=46
960 On ch=2 n=d5 v=0
960 On ch=2 n=a#5 v=46
1200 On ch=2 n=a#5 v=0
1200 On ch=2 n=g5 v=49
1440 On ch=2 n=g5 v=0
1440 On ch=2 n=f#5 v=51
1680 On ch=2 n=f#5 v=0
1680 On ch=2 n=g5 v=54
1920 On ch=2 n=g5 v=0
1920 On ch=2 n=c6 v=57
2880 On ch=2 n=c6 v=0
2880 On ch=2 n=a#5 v=48
3120 On ch=2 n=a#5 v=0
3120 On ch=2 n=g5 v=50
3360 On ch=2 n=g5 v=0
3360 On ch=2 n=f#5 v=53
3600 On ch=2 n=f#5 v=0
3600 On ch=2 n=g5 v=57
3840 On ch=2 n=g5 v=0
3840 On ch=2 n=d#6 v=60
4800 On ch=2 n=d#6 v=0
4800 On ch=2 n=d6 v=54
4956 On ch=2 n=d6 v=0
5040 On ch=2 n=f#6 v=54
5280 On ch=2 n=f#6 v=0
5280 On ch=2 n=g6 v=53
5436 On ch=2 n=g6 v=0
5520 On ch=2 n=d6 v=52
5760 On ch=2 n=d6 v=0
5760 On ch=2 n=c6 v=52
5916 On ch=2 n=c6 v=0
6000 On ch=2 n=g#6 v=51
6240 On ch=2 n=g#6 v=0
6240 On ch=2 n=a6 v=50
6396 On ch=2 n=a6 v=0
6480 On ch=2 n=c6 v=49
6720 On ch=2 n=c6 v=0
6720 On ch=2 n=a#5 v=49
6960 On ch=2 n=a#5 v=0
6960 On ch=2 n=g6 v=48
7200 On ch=2 n=g6 v=0
7200 On ch=2 n=a5 v=47
7440 On ch=2 n=a5 v=0
7440 On ch=2 n=d#6 v=46
7680 On ch=2 n=d#6 v=0
7680 On ch=2 n=g5 v=46
8040 On ch=2 n=g5 v=0
8040 On ch=2 n=a5 v=44
8100 On ch=2 n=a5 v=0
8100 On ch=2 n=g5 v=43
8160 On ch=2 n=g5 v=0
8160 On ch=2 n=f#5 v=42
8316 On ch=2 n=f#5 v=0
8400 On ch=2 n=d5 v=44
8640 On ch=2 n=d5 v=0
8640 On ch=2 n=a#5 v=46
8880 On ch=2 n=a#5 v=0
8880 On ch=2 n=g5 v=46
9120 On ch=2 n=g5 v=0
9120 On ch=2 n=f#5 v=49
9360 On ch=2 n=f#5 v=0
9360 On ch=2 n=g5 v=52
9600 On ch=2 n=g5 v=0
9600 On ch=2 n=c6 v=55
10560 On ch=2 n=c6 v=0
10560 On ch=2 n=a#5 v=44
10800 On ch=2 n=a#5 v=0
10800 On ch=2 n=g5 v=47
11040 On ch=2 n=g5 v=0
11040 On ch=2 n=f#5 v=51
11280 On ch=2 n=f#5 v=0
11280 On ch=2 n=g5 v=54
11520 On ch=2 n=g5 v=0
11520 On ch=2 n=d#6 v=61
12240 On ch=2 n=d#6 v=0
12240 On ch=2 n=d#6 v=56
12600 On ch=2 n=d#6 v=0
12600 On ch=2 n=d6 v=56
12720 On ch=2 n=d6 v=0
12720 On ch=2 n=f6 v=57
12840 On ch=2 n=f6 v=0
12840 On ch=2 n=e6 v=58
12960 On ch=2 n=e6 v=0
12960 On ch=2 n=g6 v=59
13080 On ch=2 n=g6 v=0
13080 On ch=2 n=f6 v=60
13200 On ch=2 n=f6 v=0
13200 On ch=2 n=d#6 v=62
13320 On ch=2 n=d#6 v=0
13320 On ch=2 n=d6 v=58
13440 On ch=2 n=d6 v=0
13440 On ch=2 n=c6 v=57
13480 On ch=2 n=c6 v=0
13480 On ch=2 n=d6 v=56
13520 On ch=2 n=d6 v=0
13520 On ch=2 n=d#6 v=56
13560 On ch=2 n=d#6 v=0
13560 On ch=2 n=d6 v=56
13680 On ch=2 n=c6 v=55
13685 On ch=2 n=d6 v=0
13920 On ch=2 n=c6 v=0
13920 On ch=2 n=b5 v=52
13960 On ch=2 n=b5 v=0
13960 On ch=2 n=c6 v=52
14000 On ch=2 n=c6 v=0
14000 On ch=2 n=d6 v=52
14040 On ch=2 n=d6 v=0
14040 On ch=2 n=c6 v=51
14160 On ch=2 n=a#5 v=50
14165 On ch=2 n=c6 v=0
14400 On ch=2 n=a#5 v=0
14400 On ch=2 n=a5 v=48
14440 On ch=2 n=a5 v=0
14440 On ch=2 n=a#5 v=48
14480 On ch=2 n=a#5 v=0
14480 On ch=2 n=c6 v=47
14520 On ch=2 n=c6 v=0
14520 On ch=2 n=a#5 v=47
14640 On ch=2 n=a#5 v=0
14640 On ch=2 n=a5 v=46
14760 On ch=2 n=a5 v=0
14760 On ch=2 n=g5 v=45
14880 On ch=2 n=g5 v=0
14880 On ch=2 n=f5 v=44
15000 On ch=2 n=f5 v=0
15000 On ch=2 n=e5 v=43
15120 On ch=2 n=e5 v=0
15120 On ch=2 n=f5 v=42
15240 On ch=2 n=f5 v=0
15240 On ch=2 n=g5 v=42
15300 On ch=2 n=g5 v=0
15300 On ch=2 n=f5 v=42
15360 On ch=2 n=f5 v=0
15360 On ch=2 n=d#6 v=46
15600 On ch=2 n=d#6 v=0
15600 On ch=2 n=a5 v=46
15756 On ch=2 n=a5 v=0
15840 On ch=2 n=a5 v=46
15996 On ch=2 n=a5 v=0
16080 On ch=2 n=a5 v=47
16236 On ch=2 n=a5 v=0
16320 On ch=2 n=a#5 v=47
16440 On ch=2 n=a#5 v=0
16440 On ch=2 n=c6 v=47
16480 On ch=2 n=c6 v=0
16480 On ch=2 n=a#5 v=47
16520 On ch=2 n=a#5 v=0
16520 On ch=2 n=a5 v=47
16560 On ch=2 n=a5 v=0
16560 On ch=2 n=a#5 v=48
16680 On ch=2 n=a#5 v=0
16680 On ch=2 n=d6 v=48
16800 On ch=2 n=d6 v=0
16800 On ch=2 n=f6 v=48
16992 On ch=2 n=f6 v=0
17040 On ch=2 n=f6 v=48
17280 On ch=2 n=f6 v=0
17280 On ch=2 n=d#7 v=49
17520 On ch=2 n=d#7 v=0
17520 On ch=2 n=a6 v=49
17676 On ch=2 n=a6 v=0
17760 On ch=2 n=a6 v=50
17916 On ch=2 n=a6 v=0
18000 On ch=2 n=a6 v=50
18156 On ch=2 n=a6 v=0
18240 On ch=2 n=a#6 v=50
18360 On ch=2 n=a#6 v=0
18360 On ch=2 n=c7 v=51
18400 On ch=2 n=c7 v=0
18400 On ch=2 n=a#6 v=51
18440 On ch=2 n=a#6 v=0
18440 On ch=2 n=a6 v=51
18480 On ch=2 n=a6 v=0
18480 On ch=2 n=a#6 v=51
18600 On ch=2 n=a#6 v=0
18600 On ch=2 n=d7 v=51
18720 On ch=2 n=d7 v=0
18720 On ch=2 n=f7 v=51
18912 On ch=2 n=f7 v=0
18960 On ch=2 n=f5 v=51
19200 On ch=2 n=f5 v=0
19200 On ch=2 n=d#6 v=52
19440 On ch=2 n=d#6 v=0
19440 On ch=2 n=a5 v=52
19596 On ch=2 n=a5 v=0
19680 On ch=2 n=a5 v=53
19836 On ch=2 n=a5 v=0
19920 On ch=2 n=a5 v=53
20076 On ch=2 n=a5 v=0
20160 On ch=2 n=a#5 v=53
20280 On ch=2 n=a#5 v=0
20280 On ch=2 n=c6 v=51
20320 On ch=2 n=c6 v=0
20320 On ch=2 n=a#5 v=52
20360 On ch=2 n=a#5 v=0
20360 On ch=2 n=a5 v=52
20400 On ch=2 n=a5 v=0
20400 On ch=2 n=a#5 v=52
20520 On ch=2 n=a#5 v=0
20520 On ch=2 n=c6 v=52
20640 On ch=2 n=c6 v=0
20640 On ch=2 n=d6 v=52
20760 On ch=2 n=d6 v=0
20760 On ch=2 n=a#5 v=52
20880 On ch=2 n=a#5 v=0
20880 On ch=2 n=c6 v=53
21000 On ch=2 n=c6 v=0
21000 On ch=2 n=d6 v=53
21120 On ch=2 n=d6 v=0
21120 On ch=2 n=d#6 v=53
21240 On ch=2 n=d#6 v=0
21240 On ch=2 n=f6 v=53
21280 On ch=2 n=f6 v=0
21280 On ch=2 n=d#6 v=53
21320 On ch=2 n=d#6 v=0
21320 On ch=2 n=d6 v=54
21360 On ch=2 n=d6 v=0
21360 On ch=2 n=d#6 v=54
21480 On ch=2 n=d#6 v=0
21480 On ch=2 n=f6 v=54
21600 On ch=2 n=f6 v=0
21600 On ch=2 n=g6 v=54
21720 On ch=2 n=g6 v=0
21720 On ch=2 n=a6 v=54
21840 On ch=2 n=a6 v=0
21840 On ch=2 n=a#6 v=55
21960 On ch=2 n=a#6 v=0
21960 On ch=2 n=g6 v=55
22080 On ch=2 n=g6 v=0
22080 On ch=2 n=e6 v=57
22200 On ch=2 n=e6 v=0
22200 On ch=2 n=f6 v=56
22320 On ch=2 n=f6 v=0
22320 On ch=2 n=g6 v=56
22440 On ch=2 n=g6 v=0
22440 On ch=2 n=f6 v=55
22560 On ch=2 n=f6 v=0
22560 On ch=2 n=f6 v=54
22680 On ch=2 n=f6 v=0
22680 On ch=2 n=d#6 v=54
22800 On ch=2 n=d#6 v=0
22800 On ch=2 n=d6 v=53
22920 On ch=2 n=d6 v=0
22920 On ch=2 n=c6 v=52
23040 On ch=2 n=c6 v=0
23040 On ch=2 n=c#6 v=51
23160 On ch=2 n=c#6 v=0
23160 On ch=2 n=d6 v=51
23280 On ch=2 n=d6 v=0
23280 On ch=2 n=d#6 v=50
23400 On ch=2 n=d#6 v=0
23400 On ch=2 n=d6 v=49
23520 On ch=2 n=d6 v=0
23520 On ch=2 n=f6 v=49
23640 On ch=2 n=f6 v=0
23640 On ch=2 n=d#6 v=48
23760 On ch=2 n=d#6 v=0
23760 On ch=2 n=d6 v=47
23880 On ch=2 n=d6 v=0
23880 On ch=2 n=c6 v=46
24000 On ch=2 n=c6 v=0
24000 On ch=2 n=a#5 v=46
24120 On ch=2 n=a#5 v=0
24120 On ch=2 n=c6 v=47
24160 On ch=2 n=c6 v=0
24160 On ch=2 n=a#5 v=47
24200 On ch=2 n=a#5 v=0
24200 On ch=2 n=a5 v=48
24240 On ch=2 n=a5 v=0
24240 On ch=2 n=a#5 v=48
24360 On ch=2 n=a#5 v=0
24360 On ch=2 n=c6 v=49
24480 On ch=2 n=c6 v=0
24480 On ch=2 n=d6 v=50
24600 On ch=2 n=d6 v=0
24600 On ch=2 n=a#5 v=51
24720 On ch=2 n=a#5 v=0
24720 On ch=2 n=c6 v=52
24840 On ch=2 n=c6 v=0
24840 On ch=2 n=d6 v=53
24960 On ch=2 n=d6 v=0
24960 On ch=2 n=d#6 v=54
25080 On ch=2 n=d#6 v=0
25080 On ch=2 n=f6 v=55
25200 On ch=2 n=f6 v=0
25200 On ch=2 n=g6 v=56
25320 On ch=2 n=g6 v=0
25320 On ch=2 n=a6 v=56
25440 On ch=2 n=a6 v=0
25440 On ch=2 n=c7 v=57
25560 On ch=2 n=c7 v=0
25560 On ch=2 n=a#6 v=58
25680 On ch=2 n=a#6 v=0
25680 On ch=2 n=a6 v=59
25800 On ch=2 n=a6 v=0
25800 On ch=2 n=g6 v=60
25920 On ch=2 n=g6 v=0
25920 On ch=2 n=g6 v=61
26040 On ch=2 n=g6 v=0
26040 On ch=2 n=f6 v=59
26160 On ch=2 n=f6 v=0
26160 On ch=2 n=e6 v=59
26280 On ch=2 n=e6 v=0
26280 On ch=2 n=f6 v=58
26400 On ch=2 n=f6 v=0
26400 On ch=2 n=a6 v=58
26520 On ch=2 n=a6 v=0
26520 On ch=2 n=g6 v=58
26640 On ch=2 n=g6 v=0
26640 On ch=2 n=f6 v=57
26760 On ch=2 n=f6 v=0
26760 On ch=2 n=d#6 v=57
26880 On ch=2 n=d#6 v=0
26880 On ch=2 n=d#6 v=56
27000 On ch=2 n=d#6 v=0
27000 On ch=2 n=d6 v=56
27120 On ch=2 n=d6 v=0
27120 On ch=2 n=c#6 v=56
27240 On ch=2 n=c#6 v=0
27240 On ch=2 n=d6 v=55
27360 On ch=2 n=d6 v=0
27360 On ch=2 n=f6 v=55
27480 On ch=2 n=f6 v=0
27480 On ch=2 n=d#6 v=54
27600 On ch=2 n=d#6 v=0
27600 On ch=2 n=d6 v=53
27720 On ch=2 n=d6 v=0
27720 On ch=2 n=c6 v=51
27840 On ch=2 n=c6 v=0
27840 On ch=2 n=a#5 v=50
28320 On ch=2 n=a#5 v=0
28560 On ch=2 n=c6 v=51
28680 On ch=2 n=c6 v=0
28680 On ch=2 n=d6 v=51
28800 On ch=2 n=d6 v=0
28800 On ch=2 n=d#6 v=50
29040 On ch=2 n=d#6 v=0
29040 On ch=2 n=a5 v=50
29196 On ch=2 n=a5 v=0
29280 On ch=2 n=a5 v=49
29436 On ch=2 n=a5 v=0
29520 On ch=2 n=a5 v=48
29676 On ch=2 n=a5 v=0
29760 On ch=2 n=a#5 v=46
30240 On ch=2 n=a#5 v=0
30480 On ch=2 n=c6 v=45
30600 On ch=2 n=c6 v=0
30600 On ch=2 n=d6 v=45
30720 On ch=2 n=d6 v=0
30720 On ch=2 n=d#6 v=44
30960 On ch=2 n=d#6 v=0
30960 On ch=2 n=a5 v=44
31116 On ch=2 n=a5 v=0
31200 On ch=2 n=a5 v=43
31356 On ch=2 n=a5 v=0
31440 On ch=2 n=a5 v=42
31596 On ch=2 n=a5 v=0
31680 On ch=2 n=c6 v=41
32160 On ch=2 n=c6 v=0
32160 On ch=2 n=a#5 v=37
32352 On ch=2 n=a#5 v=0
32400 Par ch=2 c=64 v=0
32400 On ch=2 n=d5 v=46
32640 On ch=2 n=d5 v=0
32640 On ch=2 n=a#5 v=46
32880 On ch=2 n=a#5 v=0
32880 On ch=2 n=g5 v=49
33120 On ch=2 n=g5 v=0
33120 On ch=2 n=f#5 v=51
33360 On ch=2 n=f#5 v=0
33360 On ch=2 n=g5 v=54
33600 On ch=2 n=g5 v=0
33600 On ch=2 n=c6 v=57
34560 On ch=2 n=c6 v=0
34560 On ch=2 n=a#5 v=48
34800 On ch=2 n=a#5 v=0
34800 On ch=2 n=g5 v=50
35040 On ch=2 n=g5 v=0
35040 On ch=2 n=f#5 v=53
35280 On ch=2 n=f#5 v=0
35280 On ch=2 n=g5 v=57
35520 On ch=2 n=g5 v=0
35520 On ch=2 n=d#6 v=60
36480 On ch=2 n=d#6 v=0
36480 On ch=2 n=d6 v=54
36636 On ch=2 n=d6 v=0
36720 On ch=2 n=f#6 v=54
36960 On ch=2 n=f#6 v=0
36960 On ch=2 n=g6 v=53
37116 On ch=2 n=g6 v=0
37200 On ch=2 n=d6 v=52
37440 On ch=2 n=d6 v=0
37440 On ch=2 n=c6 v=52
37596 On ch=2 n=c6 v=0
37680 On ch=2 n=g#6 v=51
37920 On ch=2 n=g#6 v=0
37920 On ch=2 n=a6 v=50
38076 On ch=2 n=a6 v=0
38160 On ch=2 n=c6 v=49
38400 On ch=2 n=c6 v=0
38400 On ch=2 n=a#5 v=49
38640 On ch=2 n=a#5 v=0
38640 On ch=2 n=g6 v=48
38880 On ch=2 n=g6 v=0
38880 On ch=2 n=a5 v=47
39120 On ch=2 n=a5 v=0
39120 On ch=2 n=d#6 v=46
39360 On ch=2 n=d#6 v=0
39360 On ch=2 n=g5 v=46
39720 On ch=2 n=g5 v=0
39720 On ch=2 n=a5 v=44
39780 On ch=2 n=a5 v=0
39780 On ch=2 n=g5 v=43
39840 On ch=2 n=g5 v=0
39840 On ch=2 n=f#5 v=42
39996 On ch=2 n=f#5 v=0
40080 On ch=2 n=d5 v=44
40320 On ch=2 n=d5 v=0
40320 On ch=2 n=a#5 v=46
40560 On ch=2 n=a#5 v=0
40560 On ch=2 n=g5 v=46
40800 On ch=2 n=g5 v=0
40800 On ch=2 n=f#5 v=49
41040 On ch=2 n=f#5 v=0
41040 On ch=2 n=g5 v=52
41280 On ch=2 n=g5 v=0
41280 On ch=2 n=c6 v=55
42240 On ch=2 n=c6 v=0
42240 On ch=2 n=a#5 v=44
42480 On ch=2 n=a#5 v=0
42480 On ch=2 n=g5 v=47
42720 On ch=2 n=g5 v=0
42720 On ch=2 n=f#5 v=51
42960 On ch=2 n=f#5 v=0
42960 On ch=2 n=g5 v=54
43200 On ch=2 n=g5 v=0
43200 On ch=2 n=d#6 v=61
43920 On ch=2 n=d#6 v=0
43920 On ch=2 n=d#6 v=56
44280 On ch=2 n=d#6 v=0
44280 On ch=2 n=d6 v=56
44400 On ch=2 n=d6 v=0
44400 On ch=2 n=f6 v=57
44520 On ch=2 n=f6 v=0
44520 On ch=2 n=e6 v=58
44640 On ch=2 n=e6 v=0
44640 On ch=2 n=g6 v=59
44760 On ch=2 n=g6 v=0
44760 On ch=2 n=f6 v=60
44880 On ch=2 n=f6 v=0
44880 On ch=2 n=d#6 v=62
45000 On ch=2 n=d#6 v=0
45000 On ch=2 n=d6 v=58
45120 On ch=2 n=d6 v=0
45120 On ch=2 n=c6 v=57
45160 On ch=2 n=c6 v=0
45160 On ch=2 n=d6 v=56
45200 On ch=2 n=d6 v=0
45200 On ch=2 n=d#6 v=56
45240 On ch=2 n=d#6 v=0
45240 On ch=2 n=d6 v=56
45360 On ch=2 n=c6 v=55
45365 On ch=2 n=d6 v=0
45600 On ch=2 n=c6 v=0
45600 On ch=2 n=b5 v=52
45640 On ch=2 n=b5 v=0
45640 On ch=2 n=c6 v=52
45680 On ch=2 n=c6 v=0
45680 On ch=2 n=d6 v=52
45720 On ch=2 n=d6 v=0
45720 On ch=2 n=c6 v=51
45840 On ch=2 n=a#5 v=50
45845 On ch=2 n=c6 v=0
46080 On ch=2 n=a#5 v=0
46080 On ch=2 n=a5 v=48
46120 On ch=2 n=a5 v=0
46120 On ch=2 n=a#5 v=48
46160 On ch=2 n=a#5 v=0
46160 On ch=2 n=c6 v=47
46200 On ch=2 n=c6 v=0
46200 On ch=2 n=a#5 v=47
46320 On ch=2 n=a#5 v=0
46320 On ch=2 n=a5 v=46
46440 On ch=2 n=a5 v=0
46440 On ch=2 n=g5 v=45
46560 On ch=2 n=g5 v=0
46560 On ch=2 n=f5 v=44
46680 On ch=2 n=f5 v=0
46680 On ch=2 n=e5 v=43
46800 On ch=2 n=e5 v=0
46800 On ch=2 n=f5 v=42
46920 On ch=2 n=f5 v=0
46920 On ch=2 n=g5 v=42
46980 On ch=2 n=g5 v=0
46980 On ch=2 n=f5 v=42
47040 On ch=2 n=f5 v=0
47040 On ch=2 n=d#6 v=46
47280 On ch=2 n=d#6 v=0
47280 On ch=2 n=a5 v=46
47436 On ch=2 n=a5 v=0
47520 On ch=2 n=a5 v=46
47676 On ch=2 n=a5 v=0
47760 On ch=2 n=a5 v=47
47916 On ch=2 n=a5 v=0
48000 On ch=2 n=a#5 v=47
48120 On ch=2 n=a#5 v=0
48120 On ch=2 n=c6 v=47
48160 On ch=2 n=c6 v=0
48160 On ch=2 n=a#5 v=47
48200 On ch=2 n=a#5 v=0
48200 On ch=2 n=a5 v=47
48240 On ch=2 n=a5 v=0
48240 On ch=2 n=a#5 v=48
48360 On ch=2 n=a#5 v=0
48360 On ch=2 n=d6 v=48
48480 On ch=2 n=d6 v=0
48480 On ch=2 n=f6 v=48
48672 On ch=2 n=f6 v=0
48720 On ch=2 n=f6 v=48
48960 On ch=2 n=f6 v=0
48960 On ch=2 n=d#7 v=49
49200 On ch=2 n=d#7 v=0
49200 On ch=2 n=a6 v=49
49356 On ch=2 n=a6 v=0
49440 On ch=2 n=a6 v=50
49596 On ch=2 n=a6 v=0
49680 On ch=2 n=a6 v=50
49836 On ch=2 n=a6 v=0
49920 On ch=2 n=a#6 v=50
50040 On ch=2 n=a#6 v=0
50040 On ch=2 n=c7 v=51
50080 On ch=2 n=c7 v=0
50080 On ch=2 n=a#6 v=51
50120 On ch=2 n=a#6 v=0
50120 On ch=2 n=a6 v=51
50160 On ch=2 n=a6 v=0
50160 On ch=2 n=a#6 v=51
50280 On ch=2 n=a#6 v=0
50280 On ch=2 n=d7 v=51
50400 On ch=2 n=d7 v=0
50400 On ch=2 n=f7 v=51
50592 On ch=2 n=f7 v=0
50640 On ch=2 n=f5 v=51
50880 On ch=2 n=f5 v=0
50880 On ch=2 n=d#6 v=52
51120 On ch=2 n=d#6 v=0
51120 On ch=2 n=a5 v=52
51276 On ch=2 n=a5 v=0
51360 On ch=2 n=a5 v=53
51516 On ch=2 n=a5 v=0
51600 On ch=2 n=a5 v=53
51756 On ch=2 n=a5 v=0
51840 On ch=2 n=a#5 v=53
51960 On ch=2 n=a#5 v=0
51960 On ch=2 n=c6 v=51
52000 On ch=2 n=c6 v=0
52000 On ch=2 n=a#5 v=52
52040 On ch=2 n=a#5 v=0
52040 On ch=2 n=a5 v=52
52080 On ch=2 n=a5 v=0
52080 On ch=2 n=a#5 v=52
52200 On ch=2 n=a#5 v=0
52200 On ch=2 n=c6 v=52
52320 On ch=2 n=c6 v=0
52320 On ch=2 n=d6 v=52
52440 On ch=2 n=d6 v=0
52440 On ch=2 n=a#5 v=52
52560 On ch=2 n=a#5 v=0
52560 On ch=2 n=c6 v=53
52680 On ch=2 n=c6 v=0
52680 On ch=2 n=d6 v=53
52800 On ch=2 n=d6 v=0
52800 On ch=2 n=d#6 v=53
52920 On ch=2 n=d#6 v=0
52920 On ch=2 n=f6 v=53
52960 On ch=2 n=f6 v=0
52960 On ch=2 n=d#6 v=53
53000 On ch=2 n=d#6 v=0
53000 On ch=2 n=d6 v=54
53040 On ch=2 n=d6 v=0
53040 On ch=2 n=d#6 v=54
53160 On ch=2 n=d#6 v=0
53160 On ch=2 n=f6 v=54
53280 On ch=2 n=f6 v=0
53280 On ch=2 n=g6 v=54
53400 On ch=2 n=g6 v=0
53400 On ch=2 n=a6 v=54
53520 On ch=2 n=a6 v=0
53520 On ch=2 n=a#6 v=55
53640 On ch=2 n=a#6 v=0
53640 On ch=2 n=g6 v=55
53760 On ch=2 n=g6 v=0
53760 On ch=2 n=e6 v=57
53880 On ch=2 n=e6 v=0
53880 On ch=2 n=f6 v=56
54000 On ch=2 n=f6 v=0
54000 On ch=2 n=g6 v=56
54120 On ch=2 n=g6 v=0
54120 On ch=2 n=f6 v=55
54240 On ch=2 n=f6 v=0
54240 On ch=2 n=f6 v=54
54360 On ch=2 n=f6 v=0
54360 On ch=2 n=d#6 v=54
54480 On ch=2 n=d#6 v=0
54480 On ch=2 n=d6 v=53
54600 On ch=2 n=d6 v=0
54600 On ch=2 n=c6 v=52
54720 On ch=2 n=c6 v=0
54720 On ch=2 n=c#6 v=51
54840 On ch=2 n=c#6 v=0
54840 On ch=2 n=d6 v=51
54960 On ch=2 n=d6 v=0
54960 On ch=2 n=d#6 v=50
55080 On ch=2 n=d#6 v=0
55080 On ch=2 n=d6 v=49
55200 On ch=2 n=d6 v=0
55200 On ch=2 n=f6 v=49
55320 On ch=2 n=f6 v=0
55320 On ch=2 n=d#6 v=48
55440 On ch=2 n=d#6 v=0
55440 On ch=2 n=d6 v=47
55560 On ch=2 n=d6 v=0
55560 On ch=2 n=c6 v=46
55680 On ch=2 n=c6 v=0
55680 On ch=2 n=a#5 v=46
55800 On ch=2 n=a#5 v=0
55800 On ch=2 n=c6 v=47
55840 On ch=2 n=c6 v=0
55840 On ch=2 n=a#5 v=47
55880 On ch=2 n=a#5 v=0
55880 On ch=2 n=a5 v=48
55920 On ch=2 n=a5 v=0
55920 On ch=2 n=a#5 v=48
56040 On ch=2 n=a#5 v=0
56040 On ch=2 n=c6 v=49
56160 On ch=2 n=c6 v=0
56160 On ch=2 n=d6 v=50
56280 On ch=2 n=d6 v=0
56280 On ch=2 n=a#5 v=51
56400 On ch=2 n=a#5 v=0
56400 On ch=2 n=c6 v=52
56520 On ch=2 n=c6 v=0
56520 On ch=2 n=d6 v=53
56640 On ch=2 n=d6 v=0
56640 On ch=2 n=d#6 v=54
56760 On ch=2 n=d#6 v=0
56760 On ch=2 n=f6 v=55
56880 On ch=2 n=f6 v=0
56880 On ch=2 n=g6 v=56
57000 On ch=2 n=g6 v=0
57000 On ch=2 n=a6 v=56
57120 On ch=2 n=a6 v=0
57120 On ch=2 n=c7 v=57
57240 On ch=2 n=c7 v=0
57240 On ch=2 n=a#6 v=58
57360 On ch=2 n=a#6 v=0
57360 On ch=2 n=a6 v=59
57480 On ch=2 n=a6 v=0
57480 On ch=2 n=g6 v=60
57600 On ch=2 n=g6 v=0
57600 On ch=2 n=g6 v=61
57720 On ch=2 n=g6 v=0
57720 On ch=2 n=f6 v=59
57840 On ch=2 n=f6 v=0
57840 On ch=2 n=e6 v=59
57960 On ch=2 n=e6 v=0
57960 On ch=2 n=f6 v=58
58080 On ch=2 n=f6 v=0
58080 On ch=2 n=a6 v=58
58200 On ch=2 n=a6 v=0
58200 On ch=2 n=g6 v=58
58320 On ch=2 n=g6 v=0
58320 On ch=2 n=f6 v=57
58440 On ch=2 n=f6 v=0
58440 On ch=2 n=d#6 v=57
58560 On ch=2 n=d#6 v=0
58560 On ch=2 n=d#6 v=56
58680 On ch=2 n=d#6 v=0
58680 On ch=2 n=d6 v=56
58800 On ch=2 n=d6 v=0
58800 On ch=2 n=c#6 v=56
58920 On ch=2 n=c#6 v=0
58920 On ch=2 n=d6 v=55
59040 On ch=2 n=d6 v=0
59040 On ch=2 n=f6 v=55
59160 On ch=2 n=f6 v=0
59160 On ch=2 n=d#6 v=54
59280 On ch=2 n=d#6 v=0
59280 On ch=2 n=d6 v=53
59400 On ch=2 n=d6 v=0
59400 On ch=2 n=c6 v=51
59520 On ch=2 n=c6 v=0
59520 On ch=2 n=a#5 v=50
60000 On ch=2 n=a#5 v=0
60240 On ch=2 n=c6 v=51
60360 On ch=2 n=c6 v=0
60360 On ch=2 n=d6 v=51
60480 On ch=2 n=d6 v=0
60480 On ch=2 n=d#6 v=50
60720 On ch=2 n=d#6 v=0
60720 On ch=2 n=a5 v=50
60876 On ch=2 n=a5 v=0
60960 On ch=2 n=a5 v=49
61116 On ch=2 n=a5 v=0
61200 On ch=2 n=a5 v=48
61356 On ch=2 n=a5 v=0
61440 On ch=2 n=a#5 v=46
61920 On ch=2 n=a#5 v=0
62160 On ch=2 n=c6 v=45
62280 On ch=2 n=c6 v=0
62280 On ch=2 n=d6 v=45
62400 On ch=2 n=d6 v=0
62400 On ch=2 n=d#6 v=44
62640 On ch=2 n=d#6 v=0
62640 On ch=2 n=a5 v=44
62796 On ch=2 n=a5 v=0
62880 On ch=2 n=a5 v=43
63036 On ch=2 n=a5 v=0
63120 On ch=2 n=a5 v=42
63276 On ch=2 n=a5 v=0
63360 On ch=2 n=c6 v=41
63840 On ch=2 n=c6 v=0
63840 On ch=2 n=a#5 v=37
64080 On ch=2 n=a#5 v=0
64080 Par ch=2 c=64 v=0
64080 On ch=2 n=a#4 v=63
64120 On ch=2 n=a#4 v=0
64120 On ch=2 n=c5 v=64
64160 On ch=2 n=c5 v=0
64160 On ch=2 n=a#4 v=65
64200 On ch=2 n=a#4 v=0
64200 On ch=2 n=a4 v=66
64260 On ch=2 n=a4 v=0
64260 On ch=2 n=a#4 v=67
64320 On ch=2 n=a#4 v=0
64320 On ch=2 n=f5 v=71
64560 On ch=2 n=f5 v=0
64560 On ch=2 n=a#4 v=69
64716 On ch=2 n=a#4 v=0
64800 On ch=2 n=a#4 v=67
64956 On ch=2 n=a#4 v=0
65040 On ch=2 n=a#4 v=67
65080 On ch=2 n=a#4 v=0
65080 On ch=2 n=c5 v=68
65120 On ch=2 n=c5 v=0
65120 On ch=2 n=a#4 v=70
65160 On ch=2 n=a#4 v=0
65160 On ch=2 n=a4 v=71
65220 On ch=2 n=a4 v=0
65220 On ch=2 n=a#4 v=73
65280 On ch=2 n=a#4 v=0
65280 On ch=2 n=f5 v=76
65520 On ch=2 n=f5 v=0
65520 On ch=2 n=g#4 v=73
65676 On ch=2 n=g#4 v=0
65760 On ch=2 n=g#4 v=71
65916 On ch=2 n=g#4 v=0
66000 On ch=2 n=g#4 v=71
66040 On ch=2 n=g#4 v=0
66040 On ch=2 n=a#4 v=72
66080 On ch=2 n=a#4 v=0
66080 On ch=2 n=g#4 v=73
66120 On ch=2 n=g#4 v=0
66120 On ch=2 n=g4 v=74
66180 On ch=2 n=g4 v=0
66180 On ch=2 n=g#4 v=76
66240 On ch=2 n=g#4 v=0
66240 On ch=2 n=g4 v=79
66480 On ch=2 n=g4 v=0
66480 On ch=2 n=a#4 v=77
66720 On ch=2 n=a#4 v=0
66720 On ch=2 n=d#5 v=74
66960 On ch=2 n=d#5 v=0
66960 On ch=2 n=g5 v=71
67200 On ch=2 n=g5 v=0
67200 On ch=2 n=f5 v=68
67440 On ch=2 n=f5 v=0
67440 On ch=2 n=g#5 v=60
67680 On ch=2 n=g#5 v=0
67680 On ch=2 n=d5 v=55
67920 On ch=2 n=d5 v=0
67920 On ch=2 n=a#4 v=51
68160 On ch=2 n=a#4 v=0
68160 On ch=2 n=d#5 v=46
68640 On ch=2 n=d#5 v=0
68760 On ch=2 n=g6 v=45
68880 On ch=2 n=g6 v=0
68880 On ch=2 n=f6 v=45
69000 On ch=2 n=f6 v=0
69000 On ch=2 n=d#6 v=45
69120 On ch=2 n=d#6 v=0
69120 On ch=2 n=d6 v=46
69360 On ch=2 n=d6 v=0
69720 On ch=2 n=g#6 v=48
69840 On ch=2 n=g#6 v=0
69840 On ch=2 n=g6 v=48
69960 On ch=2 n=g6 v=0
69960 On ch=2 n=f6 v=48
70080 On ch=2 n=f6 v=0
70080 On ch=2 n=d#6 v=49
70320 On ch=2 n=d#6 v=0
70440 On ch=2 n=d#7 v=50
70560 On ch=2 n=d#7 v=0
70560 On ch=2 n=d7 v=50
70680 On ch=2 n=d7 v=0
70680 On ch=2 n=d#7 v=50
70800 On ch=2 n=d#7 v=0
70800 On ch=2 n=d7 v=51
70920 On ch=2 n=d7 v=0
70920 On ch=2 n=c7 v=51
71040 On ch=2 n=c7 v=0
71040 On ch=2 n=b6 v=51
71160 On ch=2 n=b6 v=0
71160 On ch=2 n=c7 v=50
71280 On ch=2 n=c7 v=0
71280 On ch=2 n=a#6 v=49
71400 On ch=2 n=a#6 v=0
71400 On ch=2 n=g#6 v=48
71520 On ch=2 n=g#6 v=0
71520 On ch=2 n=g6 v=48
71640 On ch=2 n=g6 v=0
71640 On ch=2 n=f6 v=47
71760 On ch=2 n=f6 v=0
71760 On ch=2 n=c7 v=46
71880 On ch=2 n=c7 v=0
71880 On ch=2 n=a#6 v=45
72000 On ch=2 n=a#6 v=0
72000 On ch=2 n=g#6 v=44
72240 On ch=2 n=g#6 v=0
72240 On ch=2 n=g6 v=42
72480 On ch=2 n=g6 v=0
72600 On ch=2 n=g6 v=42
72660 On ch=2 n=g6 v=0
72660 On ch=2 n=f6 v=43
72720 On ch=2 n=f6 v=0
72720 On ch=2 n=g#6 v=43
72780 On ch=2 n=g#6 v=0
72780 On ch=2 n=g6 v=44
72840 On ch=2 n=g6 v=0
72840 On ch=2 n=f6 v=44
72900 On ch=2 n=f6 v=0
72900 On ch=2 n=d#6 v=45
72920 On ch=2 n=f6 v=45
72960 On ch=2 n=f6 v=0
72960 On ch=2 n=d#6 v=0
72960 On ch=2 n=d#6 v=46
73080 On ch=2 n=d#6 v=0
73080 On ch=2 n=d6 v=46
73200 On ch=2 n=d6 v=0
73200 On ch=2 n=d6 v=46
73440 On ch=2 n=d6 v=0
73560 On ch=2 n=g#6 v=42
73620 On ch=2 n=g#6 v=0
73620 On ch=2 n=g6 v=43
73680 On ch=2 n=g6 v=0
73680 On ch=2 n=a#6 v=44
73740 On ch=2 n=a#6 v=0
73740 On ch=2 n=g#6 v=45
73800 On ch=2 n=g#6 v=0
73800 On ch=2 n=g6 v=46
73860 On ch=2 n=g6 v=0
73860 On ch=2 n=f6 v=47
73880 On ch=2 n=g6 v=47
73920 On ch=2 n=g6 v=0
73920 On ch=2 n=f6 v=0
73920 On ch=2 n=f6 v=48
74040 On ch=2 n=f6 v=0
74040 On ch=2 n=d#6 v=49
74160 On ch=2 n=d#6 v=0
74160 On ch=2 n=d#6 v=49
74400 On ch=2 n=d#6 v=0
74520 On ch=2 n=d#7 v=46
74580 On ch=2 n=d#7 v=0
74580 On ch=2 n=d7 v=47
74640 On ch=2 n=d7 v=0
74640 On ch=2 n=f7 v=48
74700 On ch=2 n=f7 v=0
74700 On ch=2 n=d#7 v=48
74760 On ch=2 n=d#7 v=0
74760 On ch=2 n=d7 v=49
74820 On ch=2 n=d7 v=0
74820 On ch=2 n=c7 v=51
74880 On ch=2 n=c7 v=0
74880 On ch=2 n=b6 v=51
75000 On ch=2 n=b6 v=0
75000 On ch=2 n=c7 v=51
75120 On ch=2 n=c7 v=0
75120 On ch=2 n=a#6 v=50
75240 On ch=2 n=a#6 v=0
75240 On ch=2 n=g#6 v=49
75360 On ch=2 n=g#6 v=0
75360 On ch=2 n=g6 v=48
75480 On ch=2 n=g6 v=0
75480 On ch=2 n=f6 v=48
75600 On ch=2 n=f6 v=0
75600 On ch=2 n=g#6 v=47
75720 On ch=2 n=g#6 v=0
75720 On ch=2 n=d6 v=46
75840 On ch=2 n=d6 v=0
75840 On ch=2 n=d#6 v=45
76320 On ch=2 n=d#6 v=0
76560 On ch=2 n=f6 v=50
76680 On ch=2 n=f6 v=0
76680 On ch=2 n=g6 v=52
76800 On ch=2 n=g6 v=0
76800 On ch=2 n=g#6 v=53
77040 On ch=2 n=g#6 v=0
77040 On ch=2 n=d6 v=52
77196 On ch=2 n=d6 v=0
77280 On ch=2 n=d6 v=51
77436 On ch=2 n=d6 v=0
77520 On ch=2 n=d6 v=49
77676 On ch=2 n=d6 v=0
77760 On ch=2 n=d#6 v=48
78240 On ch=2 n=d#6 v=0
78480 On ch=2 n=d6 v=42
78600 On ch=2 n=d6 v=0
78600 On ch=2 n=d#6 v=44
78720 On ch=2 n=d#6 v=0
78720 On ch=2 n=f6 v=47
78960 On ch=2 n=f6 v=0
78960 On ch=2 n=b5 v=46
79116 On ch=2 n=b5 v=0
79200 On ch=2 n=b5 v=44
79356 On ch=2 n=b5 v=0
79440 On ch=2 n=b5 v=42
79596 On ch=2 n=b5 v=0
79680 On ch=2 n=c6 v=41
80160 On ch=2 n=c6 v=0
80400 On ch=2 n=a6 v=62
80520 On ch=2 n=a6 v=0
80520 On ch=2 n=a#6 v=69
80640 On ch=2 n=a#6 v=0
80640 On ch=2 n=c7 v=79
80880 On ch=2 n=c7 v=0
80880 On ch=2 n=f#6 v=72
81036 On ch=2 n=f#6 v=0
81120 On ch=2 n=f#6 v=73
81276 On ch=2 n=f#6 v=0
81360 On ch=2 n=f#6 v=74
81516 On ch=2 n=f#6 v=0
81600 On ch=2 n=g6 v=81
82080 On ch=2 n=g6 v=0
82080 On ch=2 n=a6 v=76
82560 On ch=2 n=a6 v=0
82560 On ch=2 n=c7 v=70
82800 On ch=2 n=c7 v=0
82800 On ch=2 n=a#6 v=68
83040 On ch=2 n=a#6 v=0
83040 On ch=2 n=a6 v=65
83280 On ch=2 n=a6 v=0
83280 On ch=2 n=g6 v=62
83520 On ch=2 n=g6 v=0
83520 On ch=2 n=f#6 v=59
84000 On ch=2 n=f#6 v=0
84120 On ch=2 n=d6 v=44
84240 On ch=2 n=d6 v=0
84240 On ch=2 n=c#6 v=46
84360 On ch=2 n=c#6 v=0
84360 On ch=2 n=d6 v=47
84480 On ch=2 n=d6 v=0
84480 On ch=2 n=g6 v=49
84720 On ch=2 n=g6 v=0
85080 On ch=2 n=d6 v=44
85200 On ch=2 n=d6 v=0
85200 On ch=2 n=c#6 v=46
85320 On ch=2 n=c#6 v=0
85320 On ch=2 n=d6 v=48
85440 On ch=2 n=d6 v=0
85440 On ch=2 n=a5 v=50
85680 On ch=2 n=a5 v=0
86040 On ch=2 n=d6 v=49
86160 On ch=2 n=d6 v=0
86160 On ch=2 n=c#6 v=51
86280 On ch=2 n=c#6 v=0
86280 On ch=2 n=d6 v=52
86400 On ch=2 n=d6 v=0
86400 On ch=2 n=g6 v=53
86640 On ch=2 n=g6 v=0
87000 On ch=2 n=d6 v=52
87120 On ch=2 n=d6 v=0
87120 On ch=2 n=c#6 v=53
87240 On ch=2 n=c#6 v=0
87240 On ch=2 n=d6 v=55
87360 On ch=2 n=d6 v=0
87360 On ch=2 n=a5 v=56
87840 On ch=2 n=a5 v=0
87840 On ch=2 n=b5 v=60
88320 On ch=2 n=b5 v=0
88320 On ch=2 n=c6 v=68
89040 On ch=2 n=c6 v=0
89040 On ch=2 n=a#5 v=59
89280 On ch=2 n=a#5 v=0
89280 On ch=2 n=a5 v=60
89520 On ch=2 n=a6 v=61
89760 On ch=2 n=a6 v=0
89760 On ch=2 n=b5 v=62
89780 On ch=2 n=a5 v=0
90000 On ch=2 n=b6 v=64
90208 On ch=2 n=b5 v=0
90240 On ch=2 n=b6 v=0
90240 On ch=2 n=c6 v=65
90480 On ch=2 n=c7 v=78
90960 On ch=2 n=c7 v=0
90960 On ch=2 n=a#5 v=60
90974 On ch=2 n=c6 v=0
91200 On ch=2 n=a#5 v=0
91200 On ch=2 n=a5 v=61
91440 On ch=2 n=a6 v=63
91674 On ch=2 n=a5 v=0
91680 On ch=2 n=a6 v=0
91680 On ch=2 n=b5 v=65
91920 On ch=2 n=b6 v=66
92154 On ch=2 n=b5 v=0
92160 On ch=2 n=b6 v=0
92160 On ch=2 n=c6 v=69
92400 On ch=2 n=c7 v=65
92632 On ch=2 n=c6 v=0
92640 On ch=2 n=c7 v=0
92640 Par ch=2 c=64 v=127
92640 On ch=2 n=c#6 v=62
92880 On ch=2 n=c#7 v=52
93114 On ch=2 n=c#6 v=0
93120 On ch=2 n=c#7 v=0
94080 Par ch=2 c=64 v=0
94080 On ch=2 n=a#5 v=47
94320 On ch=2 n=a#5 v=0
94320 On ch=2 n=g5 v=48
94560 On ch=2 n=g5 v=0
94560 On ch=2 n=f#5 v=49
94800 On ch=2 n=f#5 v=0
94800 On ch=2 n=g5 v=50
95040 On ch=2 n=g5 v=0
95040 On ch=2 n=c6 v=54
96000 On ch=2 n=c6 v=0
96000 On ch=2 n=a#5 v=48
96240 On ch=2 n=a#5 v=0
96240 On ch=2 n=g5 v=50
96480 On ch=2 n=g5 v=0
96480 On ch=2 n=f#5 v=52
96720 On ch=2 n=f#5 v=0
96720 On ch=2 n=g5 v=54
96960 On ch=2 n=g5 v=0
96960 On ch=2 n=d#6 v=60
97920 On ch=2 n=d#6 v=0
97920 On ch=2 n=d6 v=54
98076 On ch=2 n=d6 v=0
98160 On ch=2 n=f#6 v=54
98400 On ch=2 n=f#6 v=0
98400 On ch=2 n=g6 v=53
98556 On ch=2 n=g6 v=0
98640 On ch=2 n=d6 v=52
98880 On ch=2 n=d6 v=0
98880 On ch=2 n=c6 v=52
99036 On ch=2 n=c6 v=0
99120 On ch=2 n=g#6 v=51
99360 On ch=2 n=g#6 v=0
99360 On ch=2 n=a6 v=50
99516 On ch=2 n=a6 v=0
99600 On ch=2 n=c6 v=49
99840 On ch=2 n=c6 v=0
99840 On ch=2 n=a#5 v=49
100080 On ch=2 n=a#5 v=0
100080 On ch=2 n=g6 v=48
100320 On ch=2 n=g6 v=0
100320 On ch=2 n=a5 v=47
100560 On ch=2 n=a5 v=0
100560 On ch=2 n=d#6 v=46
100800 On ch=2 n=d#6 v=0
100800 On ch=2 n=g5 v=46
101160 On ch=2 n=g5 v=0
101160 On ch=2 n=a5 v=46
101220 On ch=2 n=a5 v=0
101220 On ch=2 n=g5 v=45
101280 On ch=2 n=g5 v=0
101280 On ch=2 n=f#5 v=43
101436 On ch=2 n=f#5 v=0
102000 On ch=2 n=a#6 v=42
102240 On ch=2 n=a#6 v=0
102240 On ch=2 n=a6 v=43
102480 On ch=2 n=a6 v=0
102480 On ch=2 n=g6 v=44
102720 On ch=2 n=g6 v=0
102720 On ch=2 n=f#6 v=45
102840 On ch=2 n=d6 v=46
102960 On ch=2 n=d6 v=0
102960 On ch=2 n=f#6 v=0
102960 On ch=2 n=c#6 v=46
103080 On ch=2 n=c#6 v=0
103080 On ch=2 n=d6 v=47
103200 On ch=2 n=d6 v=0
103200 On ch=2 n=e6 v=47
103320 On ch=2 n=e6 v=0
103320 On ch=2 n=f#6 v=48
103440 On ch=2 n=f#6 v=0
103440 On ch=2 n=g6 v=48
103560 On ch=2 n=g6 v=0
103560 On ch=2 n=a6 v=49
103680 On ch=2 n=a6 v=0
103680 On ch=2 n=a#6 v=49
103920 On ch=2 n=a#6 v=0
103920 On ch=2 n=d7 v=50
104160 On ch=2 n=d7 v=0
104160 On ch=2 n=c7 v=51
104400 On ch=2 n=c7 v=0
104400 On ch=2 n=a#6 v=52
104640 On ch=2 n=a#6 v=0
104640 On ch=2 n=a6 v=53
104760 On ch=2 n=f6 v=54
104880 On ch=2 n=f6 v=0
104880 On ch=2 n=a6 v=0
104880 On ch=2 n=e6 v=54
105000 On ch=2 n=e6 v=0
105000 On ch=2 n=f6 v=55
105120 On ch=2 n=f6 v=0
105120 On ch=2 n=g6 v=55
105240 On ch=2 n=g6 v=0
105240 On ch=2 n=a6 v=56
105360 On ch=2 n=a6 v=0
105360 On ch=2 n=a#6 v=56
105480 On ch=2 n=a#6 v=0
105480 On ch=2 n=c7 v=57
105600 On ch=2 n=c7 v=0
105600 On ch=2 n=d7 v=56
105840 On ch=2 n=d7 v=0
105840 On ch=2 n=f7 v=57
106080 On ch=2 n=f7 v=0
106080 On ch=2 n=d#7 v=59
106320 On ch=2 n=d#7 v=0
106320 On ch=2 n=d7 v=61
106560 On ch=2 n=d7 v=0
106560 On ch=2 n=c7 v=63
106800 On ch=2 n=c7 v=0
106800 On ch=2 n=g6 v=64
106800 On ch=2 n=a#6 v=64
107040 On ch=2 n=a#6 v=0
107040 On ch=2 n=g6 v=0
107040 On ch=2 n=a6 v=66
107280 On ch=2 n=a6 v=0
107280 On ch=2 n=g6 v=68
107520 On ch=2 n=g6 v=0
107640 On ch=2 n=a5 v=64
107760 On ch=2 n=a5 v=0
107760 On ch=2 n=d#6 v=63
107880 On ch=2 n=d#6 v=0
107880 On ch=2 n=d6 v=62
108000 On ch=2 n=d6 v=0
108000 On ch=2 n=c6 v=60
108120 On ch=2 n=c6 v=0
108120 On ch=2 n=a#5 v=59
108240 On ch=2 n=a#5 v=0
108240 On ch=2 n=a5 v=58
108360 On ch=2 n=a5 v=0
108360 On ch=2 n=g5 v=57
108480 On ch=2 n=g5 v=0
108480 On ch=2 n=f#5 v=56
108600 On ch=2 n=f#5 v=0
108600 On ch=2 n=g5 v=55
108720 On ch=2 n=g5 v=0
108720 On ch=2 n=a5 v=54
108840 On ch=2 n=a5 v=0
108840 On ch=2 n=g#5 v=52
108960 On ch=2 n=g#5 v=0
108960 On ch=2 n=a5 v=51
109080 On ch=2 n=a5 v=0
109080 On ch=2 n=b5 v=50
109200 On ch=2 n=b5 v=0
109200 On ch=2 n=c6 v=49
109320 On ch=2 n=c6 v=0
109320 On ch=2 n=b5 v=48
109440 On ch=2 n=b5 v=0
109440 On ch=2 n=c6 v=51
109680 On ch=2 n=c6 v=0
109680 On ch=2 n=f#5 v=50
109836 On ch=2 n=f#5 v=0
109920 On ch=2 n=f#5 v=48
110076 On ch=2 n=f#5 v=0
110160 On ch=2 n=f#5 v=47
110316 On ch=2 n=f#5 v=0
110400 On ch=2 n=g5 v=48
110520 On ch=2 n=g5 v=0
110520 On ch=2 n=a5 v=48
110560 On ch=2 n=a5 v=0
110560 On ch=2 n=g5 v=49
110600 On ch=2 n=g5 v=0
110600 On ch=2 n=f#5 v=49
110640 On ch=2 n=f#5 v=0
110640 On ch=2 n=g5 v=49
110760 On ch=2 n=g5 v=0
110760 On ch=2 n=a#5 v=49
110880 On ch=2 n=a#5 v=0
110880 On ch=2 n=d6 v=49
111060 On ch=2 n=d6 v=0
111120 On ch=2 n=d6 v=50
111360 On ch=2 n=d6 v=0
111360 On ch=2 n=c7 v=55
111600 On ch=2 n=c7 v=0
111600 On ch=2 n=f#6 v=54
111756 On ch=2 n=f#6 v=0
111840 On ch=2 n=f#6 v=52
111996 On ch=2 n=f#6 v=0
112080 On ch=2 n=f#6 v=50
112236 On ch=2 n=f#6 v=0
112320 On ch=2 n=g6 v=54
112440 On ch=2 n=g6 v=0
112440 On ch=2 n=a6 v=54
112480 On ch=2 n=a6 v=0
112480 On ch=2 n=g6 v=54
112520 On ch=2 n=g6 v=0
112520 On ch=2 n=f#6 v=54
112560 On ch=2 n=f#6 v=0
112560 On ch=2 n=g6 v=54
112680 On ch=2 n=g6 v=0
112680 On ch=2 n=a#6 v=55
112800 On ch=2 n=a#6 v=0
112800 On ch=2 n=d7 v=55
112980 On ch=2 n=d7 v=0
113040 On ch=2 n=d5 v=56
113280 On ch=2 n=d5 v=0
113280 On ch=2 n=c6 v=61
113520 On ch=2 n=c6 v=0
113520 On ch=2 n=f#5 v=60
113676 On ch=2 n=f#5 v=0
113760 On ch=2 n=f#5 v=59
113916 On ch=2 n=f#5 v=0
114000 On ch=2 n=f#5 v=58
114156 On ch=2 n=f#5 v=0
114240 On ch=2 n=g5 v=60
114360 On ch=2 n=g5 v=0
114360 On ch=2 n=a5 v=60
114400 On ch=2 n=a5 v=0
114400 On ch=2 n=g5 v=61
114440 On ch=2 n=g5 v=0
114440 On ch=2 n=f#5 v=61
114480 On ch=2 n=f#5 v=0
114480 On ch=2 n=g5 v=61
114600 On ch=2 n=g5 v=0
114600 On ch=2 n=a5 v=61
114720 On ch=2 n=a5 v=0
114720 On ch=2 n=b5 v=62
114840 On ch=2 n=b5 v=0
114840 On ch=2 n=g5 v=62
114960 On ch=2 n=g5 v=0
114960 On ch=2 n=a5 v=63
115080 On ch=2 n=a5 v=0
115080 On ch=2 n=b5 v=63
115200 On ch=2 n=b5 v=0
115200 On ch=2 n=c6 v=63
115320 On ch=2 n=c6 v=0
115320 On ch=2 n=d6 v=64
115360 On ch=2 n=d6 v=0
115360 On ch=2 n=c6 v=64
115400 On ch=2 n=c6 v=0
115400 On ch=2 n=b5 v=64
115440 On ch=2 n=b5 v=0
115440 On ch=2 n=c6 v=64
115560 On ch=2 n=c6 v=0
115560 On ch=2 n=d6 v=65
115680 On ch=2 n=d6 v=0
115680 On ch=2 n=d#6 v=65
115800 On ch=2 n=d#6 v=0
115800 On ch=2 n=f6 v=66
115920 On ch=2 n=f6 v=0
115920 On ch=2 n=g6 v=66
116040 On ch=2 n=g6 v=0
116040 On ch=2 n=d#6 v=66
116160 On ch=2 n=d#6 v=0
116160 On ch=2 n=d6 v=67
116400 On ch=2 n=d6 v=0
116400 On ch=2 n=d#6 v=66
116520 On ch=2 n=d#6 v=0
116520 On ch=2 n=d6 v=65
116640 On ch=2 n=d6 v=0
116640 On ch=2 n=f6 v=65
116760 On ch=2 n=f6 v=0
116760 On ch=2 n=d#6 v=64
116880 On ch=2 n=d#6 v=0
116880 On ch=2 n=d6 v=64
117000 On ch=2 n=d6 v=0
117000 On ch=2 n=c6 v=63
117120 On ch=2 n=c6 v=0
117120 On ch=2 n=a#5 v=62
117480 On ch=2 n=a#5 v=0
117480 On ch=2 n=c6 v=61
117510 On ch=2 n=a#5 v=61
117540 On ch=2 n=c6 v=0
117540 On ch=2 n=a5 v=60
117570 On ch=2 n=a#5 v=0
117570 On ch=2 n=a#5 v=60
117600 On ch=2 n=a5 v=0
117600 On ch=2 n=d6 v=60
117630 On ch=2 n=a#5 v=0
117720 On ch=2 n=d6 v=0
117720 On ch=2 n=c6 v=59
117840 On ch=2 n=c6 v=0
117840 On ch=2 n=a#5 v=59
117960 On ch=2 n=a#5 v=0
117960 On ch=2 n=a5 v=58
118080 On ch=2 n=a5 v=0
118080 On ch=2 n=g5 v=58
118200 On ch=2 n=g5 v=0
118200 On ch=2 n=a5 v=60
118240 On ch=2 n=a5 v=0
118240 On ch=2 n=g5 v=61
118280 On ch=2 n=g5 v=0
118280 On ch=2 n=f#5 v=61
118320 On ch=2 n=f#5 v=0
118320 On ch=2 n=g5 v=61
118440 On ch=2 n=g5 v=0
118440 On ch=2 n=a5 v=62
118560 On ch=2 n=a5 v=0
118560 On ch=2 n=b5 v=63
118680 On ch=2 n=b5 v=0
118680 On ch=2 n=g5 v=64
118800 On ch=2 n=g5 v=0
118800 On ch=2 n=a5 v=65
118920 On ch=2 n=a5 v=0
118920 On ch=2 n=b5 v=66
119040 On ch=2 n=b5 v=0
119040 On ch=2 n=c6 v=66
119160 On ch=2 n=c6 v=0
119160 On ch=2 n=d6 v=67
119200 On ch=2 n=c6 v=68
119220 On ch=2 n=d6 v=0
119240 On ch=2 n=c6 v=0
119240 On ch=2 n=b5 v=68
119280 On ch=2 n=b5 v=0
119280 On ch=2 n=c6 v=68
119400 On ch=2 n=c6 v=0
119400 On ch=2 n=d6 v=69
119520 On ch=2 n=d6 v=0
119520 On ch=2 n=d#6 v=70
119640 On ch=2 n=d#6 v=0
119640 On ch=2 n=e6 v=71
119760 On ch=2 n=e6 v=0
119760 On ch=2 n=f6 v=72
119880 On ch=2 n=f6 v=0
119880 On ch=2 n=f#6 v=73
120000 On ch=2 n=f#6 v=0
120000 On ch=2 n=g6 v=73
120600 On ch=2 n=g6 v=0
120600 On ch=2 n=a6 v=77
120640 On ch=2 n=a6 v=0
120640 On ch=2 n=g6 v=78
120680 On ch=2 n=g6 v=0
120680 On ch=2 n=f#6 v=78
120720 On ch=2 n=f#6 v=0
120720 On ch=2 n=g6 v=79
120840 On ch=2 n=g6 v=0
120840 On ch=2 n=a6 v=81
120960 On ch=2 n=a6 v=0
120960 On ch=2 n=a#6 v=82
121440 On ch=2 n=a#6 v=0
121440 On ch=2 n=c#5 v=90
121920 On ch=2 n=c#5 v=0
121920 On ch=2 n=d5 v=79
122160 On ch=2 n=d5 v=0
122160 On ch=2 n=d6 v=90
122640 On ch=2 n=d6 v=0
122640 On ch=2 n=c#6 v=82
122760 On ch=2 n=c#6 v=0
122760 On ch=2 n=d6 v=81
122880 On ch=2 n=d6 v=0
122880 On ch=2 n=d#6 v=80
123000 On ch=2 n=d#6 v=0
123000 On ch=2 n=d6 v=79
123120 On ch=2 n=d6 v=0
123120 On ch=2 n=c6 v=78
123240 On ch=2 n=c6 v=0
123240 On ch=2 n=a#5 v=77
123360 On ch=2 n=a#5 v=0
123360 On ch=2 n=a5 v=76
123480 On ch=2 n=a5 v=0
123480 On ch=2 n=a#5 v=75
123600 On ch=2 n=a#5 v=0
123600 On ch=2 n=c6 v=74
123720 On ch=2 n=c6 v=0
123720 On ch=2 n=f#5 v=73
123840 On ch=2 n=f#5 v=0
123840 On ch=2 n=g5 v=72
124080 On ch=2 n=g5 v=0
124080 On ch=2 n=g6 v=85
124560 On ch=2 n=g6 v=0
124560 On ch=2 n=c#6 v=76
124680 On ch=2 n=c#6 v=0
124680 On ch=2 n=d6 v=75
124800 On ch=2 n=d6 v=0
124800 On ch=2 n=d#6 v=74
124920 On ch=2 n=d#6 v=0
124920 On ch=2 n=d6 v=73
125040 On ch=2 n=d6 v=0
125040 On ch=2 n=c6 v=72
125160 On ch=2 n=c6 v=0
125160 On ch=2 n=a#5 v=71
125280 On ch=2 n=a#5 v=0
125280 On ch=2 n=a5 v=71
125400 On ch=2 n=a5 v=0
125400 On ch=2 n=a#5 v=70
125520 On ch=2 n=a#5 v=0
125520 On ch=2 n=c6 v=69
125640 On ch=2 n=c6 v=0
125640 On ch=2 n=f#5 v=68
125760 On ch=2 n=f#5 v=0
125760 On ch=2 n=g5 v=62
126000 On ch=2 n=d5 v=39
126240 On ch=2 n=d5 v=0
126240 On ch=2 n=d5 v=39
126480 On ch=2 n=d5 v=0
126480 On ch=2 n=d5 v=39
126720 On ch=2 n=d5 v=0
126720 On ch=2 n=d5 v=39
126960 On ch=2 n=d5 v=0
126960 On ch=2 n=d5 v=38
127200 On ch=2 n=d5 v=0
127200 On ch=2 n=d5 v=38
127440 On ch=2 n=d5 v=0
127440 On ch=2 n=d5 v=38
127680 On ch=2 n=d5 v=0
127680 On ch=2 n=g5 v=0
127680 On ch=2 n=g5 v=52
127920 On ch=2 n=d5 v=38
128160 On ch=2 n=d5 v=0
128160 On ch=2 n=d5 v=37
128400 On ch=2 n=d5 v=0
128400 On ch=2 n=d5 v=37
128640 On ch=2 n=d5 v=0
128640 On ch=2 n=d5 v=37
128880 On ch=2 n=d5 v=0
128880 On ch=2 n=d5 v=37
129120 On ch=2 n=d5 v=0
129120 On ch=2 n=d5 v=36
129360 On ch=2 n=d5 v=0
129360 On ch=2 n=d5 v=36
129600 On ch=2 n=d5 v=0
129600 On ch=2 n=g5 v=0
129600 On ch=2 n=g5 v=48
129840 On ch=2 n=d5 v=36
130080 On ch=2 n=d5 v=0
130080 On ch=2 n=d5 v=36
130320 On ch=2 n=d5 v=0
130320 On ch=2 n=d5 v=35
130560 On ch=2 n=d5 v=0
130560 On ch=2 n=d5 v=35
130800 On ch=2 n=d5 v=0
130800 On ch=2 n=d5 v=35
131040 On ch=2 n=d5 v=0
131040 On ch=2 n=d5 v=35
131280 On ch=2 n=d5 v=0
131280 On ch=2 n=d5 v=34
131520 On ch=2 n=d5 v=0
131520 On ch=2 n=g5 v=0
131520 On ch=2 n=d5 v=42
132000 On ch=2 n=d5 v=0
132000 On ch=2 n=f5 v=41
132480 On ch=2 n=f5 v=0
132480 On ch=2 n=d#5 v=40
132960 On ch=2 n=d#5 v=0
132960 On ch=2 n=c5 v=40
133440 On ch=2 n=c5 v=0
133440 On ch=2 n=b4 v=39
133920 On ch=2 n=b4 v=0
133920 On ch=2 n=d5 v=38
134400 On ch=2 n=d5 v=0
134400 On ch=2 n=c5 v=38
134880 On ch=2 n=c5 v=0
134880 On ch=2 n=f#4 v=37
135360 On ch=2 n=f#4 v=0
135360 On ch=2 n=g4 v=36
135840 On ch=2 n=g4 v=0
135840 On ch=2 n=f#4 v=35
136320 On ch=2 n=f#4 v=0
136320 On ch=2 n=g4 v=35
136800 On ch=2 n=g4 v=0
136800 On ch=2 n=f#4 v=34
137280 On ch=2 n=f#4 v=0
137280 On ch=2 n=g4 v=33
137760 On ch=2 n=g4 v=0
137760 On ch=2 n=g4 v=33
138240 On ch=2 n=g4 v=0
138240 On ch=2 n=g4 v=32
138720 On ch=2 n=g4 v=0
139200 Par ch=2 c=64 v=0
140640 Par ch=2 c=64 v=0
141120 On ch=2 n=d5 v=46
141276 On ch=2 n=d5 v=0
141360 On ch=2 n=d5 v=48
141516 On ch=2 n=d5 v=0
141600 On ch=2 n=g5 v=50
141756 On ch=2 n=g5 v=0
141840 On ch=2 n=a5 v=51
141996 On ch=2 n=a5 v=0
142080 On ch=2 n=b5 v=54
142320 On ch=2 n=b5 v=0
142320 On ch=2 n=g5 v=50
142476 On ch=2 n=g5 v=0
142560 On ch=2 n=e5 v=46
142716 On ch=2 n=e5 v=0
142800 On ch=2 n=e5 v=49
142956 On ch=2 n=e5 v=0
143040 On ch=2 n=a5 v=51
143196 On ch=2 n=a5 v=0
143280 On ch=2 n=b5 v=54
143436 On ch=2 n=b5 v=0
143520 On ch=2 n=c6 v=56
143760 On ch=2 n=c6 v=0
143760 On ch=2 n=a5 v=49
143916 On ch=2 n=a5 v=0
144000 On ch=2 n=e6 v=49
144156 On ch=2 n=e6 v=0
144240 On ch=2 n=d6 v=52
144396 On ch=2 n=d6 v=0
144480 On ch=2 n=c6 v=54
144636 On ch=2 n=c6 v=0
144720 On ch=2 n=b5 v=57
144876 On ch=2 n=b5 v=0
144960 On ch=2 n=a5 v=59
145116 On ch=2 n=a5 v=0
145200 On ch=2 n=g5 v=62
145356 On ch=2 n=g5 v=0
145440 On ch=2 n=a5 v=64
145596 On ch=2 n=a5 v=0
145680 On ch=2 n=g5 v=60
145720 On ch=2 n=a5 v=63
145740 On ch=2 n=g5 v=0
145760 On ch=2 n=a#5 v=66
145780 On ch=2 n=a5 v=0
145920 On ch=2 n=a#5 v=0
145920 On ch=2 n=a5 v=75
146076 On ch=2 n=a5 v=0
146160 On ch=2 n=g5 v=64
146316 On ch=2 n=g5 v=0
146400 On ch=2 n=f#5 v=57
146640 On ch=2 n=f#5 v=0
146640 On ch=2 n=d5 v=51
146796 On ch=2 n=d5 v=0
146880 On ch=2 n=d5 v=48
147036 On ch=2 n=d5 v=0
147120 On ch=2 n=d5 v=50
147276 On ch=2 n=d5 v=0
147360 On ch=2 n=g5 v=52
147516 On ch=2 n=g5 v=0
147600 On ch=2 n=a5 v=53
147756 On ch=2 n=a5 v=0
147840 On ch=2 n=b5 v=55
148080 On ch=2 n=b5 v=0
148080 On ch=2 n=g5 v=50
148236 On ch=2 n=g5 v=0
148320 On ch=2 n=e5 v=53
148476 On ch=2 n=e5 v=0
148560 On ch=2 n=e5 v=55
148716 On ch=2 n=e5 v=0
148800 On ch=2 n=a5 v=57
148956 On ch=2 n=a5 v=0
149040 On ch=2 n=b5 v=59
149196 On ch=2 n=b5 v=0
149280 On ch=2 n=c6 v=61
149520 On ch=2 n=c6 v=0
149520 On ch=2 n=a5 v=58
149676 On ch=2 n=a5 v=0
149760 On ch=2 n=e6 v=63
149916 On ch=2 n=e6 v=0
150000 On ch=2 n=d6 v=61
150156 On ch=2 n=d6 v=0
150240 On ch=2 n=c6 v=59
150396 On ch=2 n=c6 v=0
150480 On ch=2 n=b5 v=57
150636 On ch=2 n=b5 v=0
150720 On ch=2 n=a5 v=55
150876 On ch=2 n=a5 v=0
150960 On ch=2 n=g5 v=53
151116 On ch=2 n=g5 v=0
151200 On ch=2 n=a5 v=51
151356 On ch=2 n=a5 v=0
151440 On ch=2 n=d5 v=48
151680 On ch=2 n=g5 v=46
151920 On ch=2 n=g5 v=0
151920 On ch=2 n=d5 v=0
151920 On ch=2 n=f#5 v=44
152160 On ch=2 n=f#5 v=0
152160 On ch=2 n=g5 v=42
152520 On ch=2 n=g5 v=0
152640 On ch=2 n=d5 v=40
152796 On ch=2 n=d5 v=0
152880 On ch=2 n=g5 v=41
153036 On ch=2 n=g5 v=0
153120 On ch=2 n=b5 v=41
153276 On ch=2 n=b5 v=0
153360 On ch=2 n=d6 v=42
153516 On ch=2 n=d6 v=0
153600 On ch=2 n=d6 v=43
153840 On ch=2 n=d6 v=0
153840 On ch=2 n=c6 v=43
153996 On ch=2 n=c6 v=0
154080 On ch=2 n=c6 v=44
154236 On ch=2 n=c6 v=0
154320 On ch=2 n=d6 v=45
154560 On ch=2 n=d6 v=0
154560 On ch=2 n=b5 v=46
154716 On ch=2 n=b5 v=0
154800 On ch=2 n=b5 v=46
154956 On ch=2 n=b5 v=0
155040 On ch=2 n=d6 v=47
155280 On ch=2 n=d6 v=0
155280 On ch=2 n=c6 v=48
155436 On ch=2 n=c6 v=0
155520 On ch=2 n=c6 v=48
155676 On ch=2 n=c6 v=0
155760 On ch=2 n=d6 v=49
156000 On ch=2 n=d6 v=0
156000 On ch=2 n=b5 v=50
156156 On ch=2 n=b5 v=0
156240 On ch=2 n=b5 v=51
156396 On ch=2 n=b5 v=0
156480 On ch=2 n=d6 v=53
156720 On ch=2 n=d6 v=0
156720 On ch=2 n=c6 v=56
156876 On ch=2 n=c6 v=0
156960 On ch=2 n=b5 v=60
157116 On ch=2 n=b5 v=0
157200 On ch=2 n=d6 v=63
157440 On ch=2 n=d6 v=0
157440 On ch=2 n=c6 v=70
157596 On ch=2 n=c6 v=0
157680 On ch=2 n=b5 v=76
157836 On ch=2 n=b5 v=0
157920 On ch=2 n=d6 v=84
158340 On ch=2 n=d6 v=0
158400 On ch=2 n=d6 v=46
158556 On ch=2 n=d6 v=0
158640 On ch=2 n=d6 v=48
158796 On ch=2 n=d6 v=0
158880 On ch=2 n=g6 v=51
159036 On ch=2 n=g6 v=0
159120 On ch=2 n=a6 v=53
159276 On ch=2 n=a6 v=0
159360 On ch=2 n=b6 v=57
159600 On ch=2 n=b6 v=0
159600 On ch=2 n=g6 v=52
159756 On ch=2 n=g6 v=0
159840 On ch=2 n=e6 v=51
159996 On ch=2 n=e6 v=0
160080 On ch=2 n=e6 v=54
160236 On ch=2 n=e6 v=0
160320 On ch=2 n=a6 v=57
160476 On ch=2 n=a6 v=0
160560 On ch=2 n=b6 v=60
160716 On ch=2 n=b6 v=0
160800 On ch=2 n=c7 v=63
161040 On ch=2 n=c7 v=0
161040 On ch=2 n=a6 v=57
161196 On ch=2 n=a6 v=0
161280 On ch=2 n=e7 v=67
161436 On ch=2 n=e7 v=0
161520 On ch=2 n=d7 v=65
161676 On ch=2 n=d7 v=0
161760 On ch=2 n=c7 v=63
161916 On ch=2 n=c7 v=0
162000 On ch=2 n=b6 v=61
162156 On ch=2 n=b6 v=0
162180 On ch=2 n=b6 v=59
162240 On ch=2 n=b6 v=0
162240 On ch=2 n=a6 v=59
162396 On ch=2 n=a6 v=0
162480 On ch=2 n=g6 v=57
162636 On ch=2 n=g6 v=0
162720 On ch=2 n=a6 v=55
162876 On ch=2 n=a6 v=0
162960 On ch=2 n=d6 v=53
163200 On ch=2 n=g6 v=51
163440 On ch=2 n=g6 v=0
163440 On ch=2 n=d6 v=0
163440 On ch=2 n=f#6 v=49
163680 On ch=2 n=f#6 v=0
163680 On ch=2 n=g6 v=47
164040 On ch=2 n=g6 v=0
164160 On ch=2 n=d6 v=81
164360 On ch=2 n=d#6 v=82
164400 On ch=2 n=d#6 v=0
164400 On ch=2 n=d6 v=0
164400 On ch=2 n=d6 v=83
164640 On ch=2 n=d6 v=0
164640 On ch=2 n=c#6 v=84
164880 On ch=2 n=c#6 v=0
164880 On ch=2 n=d6 v=89
165120 On ch=2 n=d6 v=0
165120 On ch=2 n=d#6 v=96
165600 On ch=2 n=d#6 v=0
165600 On ch=2 n=d6 v=88
165840 On ch=2 n=d6 v=0
165840 On ch=2 n=c6 v=86
165996 On ch=2 n=c6 v=0
166080 On ch=2 n=a#5 v=83
166236 On ch=2 n=a#5 v=0
166320 On ch=2 n=a5 v=81
166476 On ch=2 n=a5 v=0
166560 On ch=2 n=d6 v=92
167040 On ch=2 n=d6 v=0
167040 On ch=2 n=c6 v=86
167280 On ch=2 n=c6 v=0
167280 On ch=2 n=a#5 v=84
167436 On ch=2 n=a#5 v=0
167520 On ch=2 n=a5 v=82
167676 On ch=2 n=a5 v=0
167760 On ch=2 n=g5 v=80
167916 On ch=2 n=g5 v=0
168000 On ch=2 n=d#5 v=79
168240 On ch=2 n=d#5 v=0
168240 On ch=2 n=c6 v=77
168396 On ch=2 n=c6 v=0
168480 On ch=2 n=a#5 v=75
168636 On ch=2 n=a#5 v=0
168720 On ch=2 n=a5 v=73
168876 On ch=2 n=a5 v=0
168960 On ch=2 n=g5 v=72
169116 On ch=2 n=g5 v=0
169200 On ch=2 n=f#5 v=70
169356 On ch=2 n=f#5 v=0
169440 On ch=2 n=g5 v=68
169920 On ch=2 n=g5 v=0
169920 On ch=2 n=d7 v=54
170076 On ch=2 n=d7 v=0
170160 On ch=2 n=d7 v=56
170400 On ch=2 n=d7 v=0
170400 On ch=2 n=c#7 v=58
170556 On ch=2 n=c#7 v=0
170640 On ch=2 n=d7 v=60
170796 On ch=2 n=d7 v=0
170880 On ch=2 n=d7 v=62
171120 On ch=2 n=d7 v=0
171120 On ch=2 n=c#7 v=66
171276 On ch=2 n=c#7 v=0
171360 On ch=2 n=d7 v=69
171516 On ch=2 n=d7 v=0
171600 On ch=2 n=d7 v=73
171840 On ch=2 n=d7 v=0
171840 On ch=2 n=c#7 v=77
171996 On ch=2 n=c#7 v=0
172080 On ch=2 n=d7 v=81
172236 On ch=2 n=d7 v=0
172320 On ch=2 n=d7 v=86
172560 On ch=2 n=d7 v=0
172560 On ch=2 n=c7 v=80
172716 On ch=2 n=c7 v=0
172800 On ch=2 n=a#6 v=79
172956 On ch=2 n=a#6 v=0
172980 On ch=2 n=c7 v=77
173040 On ch=2 n=c7 v=0
173040 On ch=2 n=a#6 v=77
173280 On ch=2 n=a#6 v=0
173280 On ch=2 n=a6 v=75
173436 On ch=2 n=a6 v=0
173520 On ch=2 n=g6 v=74
173676 On ch=2 n=g6 v=0
173760 On ch=2 n=f6 v=72
174000 On ch=2 n=f6 v=0
174000 On ch=2 n=g6 v=71
174156 On ch=2 n=g6 v=0
174240 On ch=2 n=e6 v=69
174396 On ch=2 n=e6 v=0
174480 On ch=2 n=d6 v=67
174960 On ch=2 n=d6 v=0
174960 On ch=2 n=d6 v=64
175140 On ch=2 n=d#7 v=52
175200 On ch=2 n=d#7 v=0
175200 On ch=2 n=d6 v=0
175200 On ch=2 n=d7 v=52
175440 On ch=2 n=d7 v=0
175440 On ch=2 n=c#7 v=54
175596 On ch=2 n=c#7 v=0
175680 On ch=2 n=d7 v=55
175836 On ch=2 n=d7 v=0
175860 On ch=2 n=d#7 v=56
175920 On ch=2 n=d#7 v=0
175920 On ch=2 n=d7 v=56
176160 On ch=2 n=d7 v=0
176160 On ch=2 n=c#7 v=58
176316 On ch=2 n=c#7 v=0
176400 On ch=2 n=d7 v=59
176556 On ch=2 n=d7 v=0
176580 On ch=2 n=d#7 v=63
176640 On ch=2 n=d#7 v=0
176640 On ch=2 n=d7 v=64
176880 On ch=2 n=d7 v=0
176880 On ch=2 n=c#7 v=69
177036 On ch=2 n=c#7 v=0
177120 On ch=2 n=d7 v=73
177276 On ch=2 n=d7 v=0
177300 On ch=2 n=f7 v=77
177360 On ch=2 n=f7 v=0
177360 On ch=2 n=d#7 v=77
177600 On ch=2 n=d#7 v=0
177600 On ch=2 n=d7 v=83
177756 On ch=2 n=d7 v=0
177840 On ch=2 n=d#7 v=90
177996 On ch=2 n=d#7 v=0
178020 On ch=2 n=f6 v=95
178080 On ch=2 n=f7 v=100
178500 On ch=2 n=f6 v=0
179040 On ch=2 n=f7 v=0
179040 On ch=2 n=d#7 v=87
179196 On ch=2 n=d#7 v=0
179280 On ch=2 n=d7 v=83
179436 On ch=2 n=d7 v=0
179460 On ch=2 n=d7 v=81
179520 On ch=2 n=d7 v=0
179520 On ch=2 n=c7 v=80
179760 On ch=2 n=c7 v=0
179760 On ch=2 n=b6 v=77
179916 On ch=2 n=b6 v=0
180000 On ch=2 n=c7 v=76
180156 On ch=2 n=c7 v=0
180240 On ch=2 n=d#7 v=74
180480 On ch=2 n=d#7 v=0
180480 On ch=2 n=c7 v=72
180636 On ch=2 n=c7 v=0
180720 On ch=2 n=a6 v=70
180876 On ch=2 n=a6 v=0
180960 On ch=2 n=a#6 v=72
181200 On ch=2 n=a#6 v=0
181200 On ch=2 n=d7 v=77
181440 On ch=2 n=d7 v=0
181440 On ch=2 n=f7 v=90
181920 On ch=2 n=f7 v=0
181920 On ch=2 n=d#7 v=85
182076 On ch=2 n=d#7 v=0
182160 On ch=2 n=d7 v=83
182316 On ch=2 n=d7 v=0
182340 On ch=2 n=d7 v=81
182400 On ch=2 n=d7 v=0
182400 On ch=2 n=c7 v=81
182640 On ch=2 n=c7 v=0
182640 On ch=2 n=b6 v=79
182796 On ch=2 n=b6 v=0
182880 On ch=2 n=c7 v=77
183036 On ch=2 n=c7 v=0
183120 On ch=2 n=d#7 v=75
183360 On ch=2 n=d#7 v=0
183360 On ch=2 n=c7 v=73
183516 On ch=2 n=c7 v=0
183600 On ch=2 n=a6 v=72
183756 On ch=2 n=a6 v=0
183840 On ch=2 n=a#6 v=70
183996 On ch=2 n=a#6 v=0
184080 On ch=2 n=d7 v=77
184320 On ch=2 n=d7 v=0
184320 On ch=2 n=c7 v=73
184560 On ch=2 n=c7 v=0
184560 On ch=2 n=a#6 v=71
184800 On ch=2 n=a#6 v=0
184800 On ch=2 n=a6 v=70
185040 On ch=2 n=a6 v=0
185040 On ch=2 n=g6 v=68
185280 On ch=2 n=g6 v=0
185280 On ch=2 n=f6 v=67
185520 On ch=2 n=f6 v=0
185520 On ch=2 n=e6 v=66
185760 On ch=2 n=e6 v=0
185760 On ch=2 n=f6 v=64
186000 On ch=2 n=f6 v=0
186000 On ch=2 n=f#6 v=63
186240 On ch=2 n=f#6 v=0
186240 On ch=2 n=g6 v=61
186480 On ch=2 n=g6 v=0
186480 On ch=2 n=d#6 v=60
186720 On ch=2 n=d#6 v=0
186720 On ch=2 n=d6 v=65
187380 On ch=2 n=d#6 v=63
187440 On ch=2 n=d#6 v=0
187440 On ch=2 n=d6 v=0
187440 On ch=2 n=d6 v=63
187680 On ch=2 n=d6 v=0
187680 On ch=2 n=c6 v=62
187920 On ch=2 n=c6 v=0
187920 On ch=2 n=d6 v=61
188160 On ch=2 n=d6 v=0
188160 On ch=2 n=d#6 v=60
188820 On ch=2 n=d6 v=58
188880 On ch=2 n=d6 v=0
188880 On ch=2 n=d#6 v=0
188880 On ch=2 n=c6 v=58
189120 On ch=2 n=c6 v=0
189120 On ch=2 n=b5 v=57
189360 On ch=2 n=b5 v=0
189360 On ch=2 n=c6 v=56
189600 On ch=2 n=c6 v=0
189600 On ch=2 n=f6 v=55
190560 On ch=2 n=f6 v=0
190560 On ch=2 n=d#6 v=52
190800 On ch=2 n=d#6 v=0
190800 On ch=2 n=d6 v=51
191040 On ch=2 n=d6 v=0
191040 On ch=2 n=c6 v=51
191280 On ch=2 n=c6 v=0
191280 On ch=2 n=d6 v=50
191436 On ch=2 n=d6 v=0
191520 On ch=2 n=a#5 v=49
191676 On ch=2 n=a#5 v=0
191760 On ch=2 n=a5 v=48
192000 On ch=2 n=a5 v=0
192000 On ch=2 n=a#5 v=47
192156 On ch=2 n=a#5 v=0
192240 On ch=2 n=g5 v=46
192396 On ch=2 n=g5 v=0
192480 On ch=2 n=f5 v=46
193440 On ch=2 n=f5 v=0
193440 On ch=2 n=g5 v=48
193680 On ch=2 n=g5 v=0
193680 On ch=2 n=a5 v=49
193860 On ch=2 n=c6 v=50
193920 On ch=2 n=c6 v=0
193920 On ch=2 n=a5 v=0
193920 On ch=2 n=a#5 v=50
194160 On ch=2 n=a#5 v=0
194160 On ch=2 n=a5 v=51
194400 On ch=2 n=a5 v=0
194400 On ch=2 n=a#5 v=52
194640 On ch=2 n=a#5 v=0
194640 On ch=2 n=f5 v=53
194880 On ch=2 n=f5 v=0
194880 On ch=2 n=a5 v=54
195120 On ch=2 n=a5 v=0
195120 On ch=2 n=a#5 v=55
195300 On ch=2 n=d6 v=56
195360 On ch=2 n=d6 v=0
195360 On ch=2 n=a#5 v=0
195360 On ch=2 n=c6 v=56
195600 On ch=2 n=c6 v=0
195600 On ch=2 n=b5 v=57
195840 On ch=2 n=b5 v=0
195840 On ch=2 n=c6 v=58
196080 On ch=2 n=c6 v=0
196080 On ch=2 n=f5 v=59
196320 On ch=2 n=f5 v=0
196320 On ch=2 n=a#5 v=60
196560 On ch=2 n=a#5 v=0
196560 On ch=2 n=c6 v=61
196740 On ch=2 n=d#6 v=62
196800 On ch=2 n=d#6 v=0
196800 On ch=2 n=c6 v=0
196800 On ch=2 n=d6 v=62
197040 On ch=2 n=d6 v=0
197040 On ch=2 n=c6 v=63
197280 On ch=2 n=c6 v=0
197280 On ch=2 n=d6 v=64
197520 On ch=2 n=d6 v=0
197520 On ch=2 n=d#6 v=65
197760 On ch=2 n=d#6 v=0
197760 On ch=2 n=f6 v=66
198000 On ch=2 n=f6 v=0
198000 On ch=2 n=g6 v=67
198240 On ch=2 n=g6 v=0
198240 On ch=2 n=c6 v=62
198900 On ch=2 n=d#6 v=65
198960 On ch=2 n=d#6 v=0
198960 On ch=2 n=c6 v=0
198960 On ch=2 n=d6 v=64
199200 On ch=2 n=d6 v=0
199200 On ch=2 n=c6 v=63
199440 On ch=2 n=c6 v=0
199440 On ch=2 n=d6 v=62
199680 On ch=2 n=d6 v=0
199680 On ch=2 n=d#6 v=62
200340 On ch=2 n=d6 v=59
200400 On ch=2 n=d6 v=0
200400 On ch=2 n=d#6 v=0
200400 On ch=2 n=c6 v=59
200640 On ch=2 n=c6 v=0
200640 On ch=2 n=b5 v=58
200880 On ch=2 n=b5 v=0
200880 On ch=2 n=c6 v=57
201120 On ch=2 n=c6 v=0
201120 On ch=2 n=f6 v=56
202080 On ch=2 n=f6 v=0
202080 On ch=2 n=d#6 v=52
202320 On ch=2 n=d#6 v=0
202320 On ch=2 n=d6 v=51
202560 On ch=2 n=d6 v=0
202560 On ch=2 n=c6 v=50
202800 On ch=2 n=c6 v=0
202800 On ch=2 n=d6 v=49
202956 On ch=2 n=d6 v=0
203040 On ch=2 n=a#5 v=48
203196 On ch=2 n=a#5 v=0
203280 On ch=2 n=a5 v=47
203520 On ch=2 n=a5 v=0
203520 On ch=2 n=a#5 v=46
203676 On ch=2 n=a#5 v=0
203760 On ch=2 n=g5 v=45
203916 On ch=2 n=g5 v=0
204000 On ch=2 n=f5 v=44
204960 On ch=2 n=f5 v=0
204960 On ch=2 n=g5 v=46
205200 On ch=2 n=g5 v=0
205200 On ch=2 n=a5 v=47
205380 On ch=2 n=c6 v=48
205440 On ch=2 n=c6 v=0
205440 On ch=2 n=a5 v=0
205440 On ch=2 n=a#5 v=48
205680 On ch=2 n=a#5 v=0
205680 On ch=2 n=a5 v=49
205920 On ch=2 n=a5 v=0
205920 On ch=2 n=a#5 v=50
206160 On ch=2 n=a#5 v=0
206160 On ch=2 n=f5 v=51
206400 On ch=2 n=f5 v=0
206400 On ch=2 n=a5 v=52
206640 On ch=2 n=a5 v=0
206640 On ch=2 n=a#5 v=53
206820 On ch=2 n=d6 v=54
206880 On ch=2 n=d6 v=0
206880 On ch=2 n=a#5 v=0
206880 On ch=2 n=c6 v=54
207120 On ch=2 n=c6 v=0
207120 On ch=2 n=b5 v=55
207360 On ch=2 n=b5 v=0
207360 On ch=2 n=c6 v=56
207540 On ch=2 n=d#6 v=57
207600 On ch=2 n=d#6 v=0
207600 On ch=2 n=c6 v=0
207600 On ch=2 n=d6 v=57
207840 On ch=2 n=d6 v=0
207840 On ch=2 n=c6 v=58
208080 On ch=2 n=c6 v=0
208080 On ch=2 n=d6 v=59
208320 On ch=2 n=d6 v=0
208320 On ch=2 n=d#6 v=60
208560 On ch=2 n=d#6 v=0
208560 On ch=2 n=f6 v=61
208800 On ch=2 n=f6 v=0
208800 On ch=2 n=g6 v=62
209040 On ch=2 n=g6 v=0
209040 On ch=2 n=a#5 v=60
209520 On ch=2 n=a#5 v=0
209520 On ch=2 n=d6 v=55
209640 On ch=2 n=d6 v=0
209640 On ch=2 n=c6 v=54
209760 On ch=2 n=c6 v=0
209760 On ch=2 n=a#5 v=52
210240 On ch=2 n=a#5 v=0
210420 On ch=2 n=c6 v=52
210480 On ch=2 n=c6 v=0
210480 On ch=2 n=a#5 v=52
210720 On ch=2 n=a#5 v=0
210720 On ch=2 n=a5 v=54
210960 On ch=2 n=a5 v=0
210960 On ch=2 n=a#5 v=55
211200 On ch=2 n=a#5 v=0
211200 On ch=2 n=f6 v=56
211680 On ch=2 n=f6 v=0
211680 On ch=2 n=f6 v=59
211920 On ch=2 n=f6 v=0
211920 On ch=2 n=f6 v=60
212400 On ch=2 n=f6 v=0
212400 On ch=2 n=f6 v=62
212640 On ch=2 n=f6 v=0
212640 On ch=2 n=f6 v=64
213120 On ch=2 n=f6 v=0
213120 On ch=2 n=e6 v=59
213300 On ch=2 n=d6 v=52
213360 On ch=2 n=d6 v=0
213360 On ch=2 n=e6 v=0
213360 On ch=2 n=c6 v=52
213600 On ch=2 n=c6 v=0
213600 On ch=2 n=b5 v=53
213840 On ch=2 n=b5 v=0
213840 On ch=2 n=c6 v=53
214080 On ch=2 n=c6 v=0
214080 On ch=2 n=d#6 v=54
214560 On ch=2 n=d#6 v=0
214560 On ch=2 n=d#6 v=55
214800 On ch=2 n=d#6 v=0
214800 On ch=2 n=d#6 v=55
215280 On ch=2 n=d#6 v=0
215280 On ch=2 n=d#6 v=57
215520 On ch=2 n=d#6 v=0
215520 On ch=2 n=d#6 v=59
216000 On ch=2 n=d#6 v=0
216000 On ch=2 n=d6 v=58
216180 On ch=2 n=d#6 v=57
216240 On ch=2 n=d#6 v=0
216240 On ch=2 n=d6 v=0
216240 On ch=2 n=d6 v=57
216480 On ch=2 n=d6 v=0
216480 On ch=2 n=c6 v=57
216720 On ch=2 n=c6 v=0
216720 On ch=2 n=d6 v=56
216960 On ch=2 n=d6 v=0
216960 On ch=2 n=d#6 v=59
217620 On ch=2 n=d6 v=57
217680 On ch=2 n=d6 v=0
217680 On ch=2 n=d#6 v=0
217680 On ch=2 n=c6 v=57
217920 On ch=2 n=c6 v=0
217920 On ch=2 n=b5 v=56
218160 On ch=2 n=b5 v=0
218160 On ch=2 n=c6 v=56
218400 On ch=2 n=c6 v=0
218400 On ch=2 n=f6 v=55
219360 On ch=2 n=f6 v=0
219360 On ch=2 n=f#6 v=52
219600 On ch=2 n=f#6 v=0
219600 On ch=2 n=g6 v=52
219840 On ch=2 n=g6 v=0
219840 On ch=2 n=a#5 v=53
220320 On ch=2 n=a#5 v=0
220320 On ch=2 n=c6 v=51
220380 On ch=2 n=c6 v=0
220380 On ch=2 n=a#5 v=51
220440 On ch=2 n=a#5 v=0
220440 On ch=2 n=a5 v=51
220500 On ch=2 n=a5 v=0
220500 On ch=2 n=a#5 v=50
220560 On ch=2 n=a#5 v=0
220560 On ch=2 n=d6 v=50
221040 On ch=2 n=d6 v=0
221040 On ch=2 n=c6 v=48
221280 On ch=2 n=c6 v=0
221280 On ch=2 n=a#5 v=47
221760 On ch=2 n=a#5 v=0
221940 On ch=2 n=c6 v=50
222000 On ch=2 n=c6 v=0
222000 On ch=2 n=a#5 v=50
222240 On ch=2 n=a#5 v=0
222240 On ch=2 n=a5 v=51
222480 On ch=2 n=a5 v=0
222480 On ch=2 n=a#5 v=52
222720 On ch=2 n=a#5 v=0
222720 On ch=2 n=f6 v=53
223200 On ch=2 n=f6 v=0
223200 On ch=2 n=f6 v=55
223440 On ch=2 n=f6 v=0
223440 On ch=2 n=f6 v=56
223920 On ch=2 n=f6 v=0
223920 On ch=2 n=f6 v=58
224160 On ch=2 n=f6 v=0
224160 On ch=2 n=f6 v=62
224640 On ch=2 n=f6 v=0
224640 On ch=2 n=e6 v=52
224820 On ch=2 n=d6 v=48
224880 On ch=2 n=d6 v=0
224880 On ch=2 n=e6 v=0
224880 On ch=2 n=c6 v=47
225120 On ch=2 n=c6 v=0
225120 On ch=2 n=b5 v=46
225360 On ch=2 n=b5 v=0
225360 On ch=2 n=c6 v=48
225600 On ch=2 n=c6 v=0
225600 On ch=2 n=d#6 v=49
226080 On ch=2 n=d#6 v=0
226080 On ch=2 n=d#6 v=52
226320 On ch=2 n=d#6 v=0
226320 On ch=2 n=d#6 v=54
226800 On ch=2 n=d#6 v=0
226800 On ch=2 n=d#6 v=57
227040 On ch=2 n=d#6 v=0
227040 On ch=2 n=d#6 v=59
227520 On ch=2 n=d#6 v=0
227520 On ch=2 n=d6 v=57
227700 On ch=2 n=d#6 v=56
227760 On ch=2 n=d#6 v=0
227760 On ch=2 n=d6 v=0
227760 On ch=2 n=d6 v=56
228000 On ch=2 n=d6 v=0
228000 On ch=2 n=c6 v=55
228240 On ch=2 n=c6 v=0
228240 On ch=2 n=d6 v=55
228480 On ch=2 n=d6 v=0
228480 On ch=2 n=d#6 v=54
229140 On ch=2 n=d6 v=52
229200 On ch=2 n=d6 v=0
229200 On ch=2 n=d#6 v=0
229200 On ch=2 n=c6 v=52
229440 On ch=2 n=c6 v=0
229440 On ch=2 n=b5 v=51
229680 On ch=2 n=b5 v=0
229680 On ch=2 n=c6 v=51
229920 On ch=2 n=c6 v=0
229920 On ch=2 n=f6 v=50
230880 On ch=2 n=f6 v=0
230880 On ch=2 n=f#6 v=48
231120 On ch=2 n=f#6 v=0
231120 On ch=2 n=g6 v=47
231360 On ch=2 n=g6 v=0
231360 On ch=2 n=a#5 v=51
231840 On ch=2 n=a#5 v=0
231840 On ch=2 n=c6 v=48
231900 On ch=2 n=c6 v=0
231900 On ch=2 n=a#5 v=48
231960 On ch=2 n=a#5 v=0
231960 On ch=2 n=a5 v=48
232020 On ch=2 n=a5 v=0
232020 On ch=2 n=a#5 v=47
232080 On ch=2 n=a#5 v=0
232080 On ch=2 n=d6 v=47
232560 On ch=2 n=d6 v=0
232560 On ch=2 n=c6 v=44
232800 On ch=2 n=c6 v=0
232800 Par ch=2 c=64 v=0
232800 On ch=2 n=a#5 v=47
233169 On ch=2 n=a#5 v=0
233280 On ch=2 n=d6 v=81
233480 On ch=2 n=d#6 v=82
233520 On ch=2 n=d#6 v=0
233520 On ch=2 n=d6 v=0
233520 On ch=2 n=d6 v=83
233760 On ch=2 n=d6 v=0
233760 On ch=2 n=c#6 v=84
234000 On ch=2 n=c#6 v=0
234000 On ch=2 n=d6 v=89
234240 On ch=2 n=d6 v=0
234240 On ch=2 n=d#6 v=96
234720 On ch=2 n=d#6 v=0
234720 On ch=2 n=d6 v=88
234960 On ch=2 n=d6 v=0
234960 On ch=2 n=c6 v=86
235116 On ch=2 n=c6 v=0
235200 On ch=2 n=a#5 v=83
235356 On ch=2 n=a#5 v=0
235440 On ch=2 n=a5 v=81
235596 On ch=2 n=a5 v=0
235680 On ch=2 n=d6 v=92
236160 On ch=2 n=d6 v=0
236160 On ch=2 n=c6 v=86
236400 On ch=2 n=c6 v=0
236400 On ch=2 n=a#5 v=84
236556 On ch=2 n=a#5 v=0
236640 On ch=2 n=a5 v=82
236796 On ch=2 n=a5 v=0
236880 On ch=2 n=g5 v=80
237036 On ch=2 n=g5 v=0
237120 On ch=2 n=d#5 v=79
237360 On ch=2 n=d#5 v=0
237360 On ch=2 n=c6 v=77
237516 On ch=2 n=c6 v=0
237600 On ch=2 n=a#5 v=75
237756 On ch=2 n=a#5 v=0
237840 On ch=2 n=a5 v=73
237996 On ch=2 n=a5 v=0
238080 On ch=2 n=g5 v=72
238236 On ch=2 n=g5 v=0
238320 On ch=2 n=f#5 v=70
238476 On ch=2 n=f#5 v=0
238560 On ch=2 n=g5 v=68
239040 On ch=2 n=g5 v=0
239040 On ch=2 n=d7 v=54
239196 On ch=2 n=d7 v=0
239280 On ch=2 n=d7 v=56
239520 On ch=2 n=d7 v=0
239520 On ch=2 n=c#7 v=58
239676 On ch=2 n=c#7 v=0
239760 On ch=2 n=d7 v=60
239916 On ch=2 n=d7 v=0
240000 On ch=2 n=d7 v=62
240240 On ch=2 n=d7 v=0
240240 On ch=2 n=c#7 v=66
240396 On ch=2 n=c#7 v=0
240480 On ch=2 n=d7 v=69
240636 On ch=2 n=d7 v=0
240720 On ch=2 n=d7 v=73
240960 On ch=2 n=d7 v=0
240960 On ch=2 n=c#7 v=77
241116 On ch=2 n=c#7 v=0
241200 On ch=2 n=d7 v=81
241356 On ch=2 n=d7 v=0
241440 On ch=2 n=d7 v=86
241680 On ch=2 n=d7 v=0
241680 On ch=2 n=c7 v=80
241836 On ch=2 n=c7 v=0
241920 On ch=2 n=a#6 v=79
242076 On ch=2 n=a#6 v=0
242100 On ch=2 n=c7 v=77
242160 On ch=2 n=c7 v=0
242160 On ch=2 n=a#6 v=77
242400 On ch=2 n=a#6 v=0
242400 On ch=2 n=a6 v=75
242556 On ch=2 n=a6 v=0
242640 On ch=2 n=g6 v=74
242796 On ch=2 n=g6 v=0
242880 On ch=2 n=f6 v=72
243120 On ch=2 n=f6 v=0
243120 On ch=2 n=g6 v=71
243276 On ch=2 n=g6 v=0
243360 On ch=2 n=e6 v=69
243516 On ch=2 n=e6 v=0
243600 On ch=2 n=d6 v=67
244080 On ch=2 n=d6 v=0
244080 On ch=2 n=d6 v=64
244260 On ch=2 n=d#7 v=52
244320 On ch=2 n=d#7 v=0
244320 On ch=2 n=d6 v=0
244320 On ch=2 n=d7 v=52
244560 On ch=2 n=d7 v=0
244560 On ch=2 n=c#7 v=54
244716 On ch=2 n=c#7 v=0
244800 On ch=2 n=d7 v=55
244956 On ch=2 n=d7 v=0
244980 On ch=2 n=d#7 v=56
245040 On ch=2 n=d#7 v=0
245040 On ch=2 n=d7 v=56
245280 On ch=2 n=d7 v=0
245280 On ch=2 n=c#7 v=58
245436 On ch=2 n=c#7 v=0
245520 On ch=2 n=d7 v=59
245676 On ch=2 n=d7 v=0
245700 On ch=2 n=d#7 v=63
245760 On ch=2 n=d#7 v=0
245760 On ch=2 n=d7 v=64
246000 On ch=2 n=d7 v=0
246000 On ch=2 n=c#7 v=69
246156 On ch=2 n=c#7 v=0
246240 On ch=2 n=d7 v=73
246396 On ch=2 n=d7 v=0
246420 On ch=2 n=f7 v=77
246480 On ch=2 n=f7 v=0
246480 On ch=2 n=d#7 v=77
246720 On ch=2 n=d#7 v=0
246720 On ch=2 n=d7 v=83
246876 On ch=2 n=d7 v=0
246960 On ch=2 n=d#7 v=90
247116 On ch=2 n=d#7 v=0
247140 On ch=2 n=f6 v=95
247200 Par ch=2 c=64 v=0
247200 On ch=2 n=f7 v=102
247440 On ch=2 n=f6 v=0
248160 On ch=2 n=f7 v=0
248160 On ch=2 n=d#7 v=90
248316 On ch=2 n=d#7 v=0
248400 On ch=2 n=d7 v=89
248556 On ch=2 n=d7 v=0
248580 On ch=2 n=d#6 v=95
248640 On ch=2 n=d#7 v=98
248895 On ch=2 n=d#6 v=0
249600 On ch=2 n=d#7 v=0
249600 On ch=2 n=d7 v=87
249756 On ch=2 n=d7 v=0
249840 On ch=2 n=c7 v=83
249996 On ch=2 n=c7 v=0
250020 On ch=2 n=d6 v=91
250080 On ch=2 n=d7 v=95
250350 On ch=2 n=d6 v=0
251040 On ch=2 n=d7 v=0
251040 On ch=2 n=c7 v=87
251196 On ch=2 n=c7 v=0
251280 On ch=2 n=a#6 v=83
251436 On ch=2 n=a#6 v=0
251520 On ch=2 n=a6 v=79
251760 On ch=2 n=a6 v=0
251760 On ch=2 n=a#6 v=77
251916 On ch=2 n=a#6 v=0
252000 On ch=2 n=c7 v=75
252156 On ch=2 n=c7 v=0
252240 On ch=2 n=f#6 v=73
252480 On ch=2 n=f#6 v=0
252480 On ch=2 n=g6 v=72
252636 On ch=2 n=g6 v=0
252720 On ch=2 n=a6 v=70
252876 On ch=2 n=a6 v=0
252960 On ch=2 n=g6 v=70
253440 On ch=2 n=g6 v=0
253440 On ch=2 n=d5 v=42
253596 On ch=2 n=d5 v=0
253680 On ch=2 n=d5 v=44
253836 On ch=2 n=d5 v=0
253920 On ch=2 n=g5 v=46
254076 On ch=2 n=g5 v=0
254160 On ch=2 n=a5 v=48
254316 On ch=2 n=a5 v=0
254400 On ch=2 n=b5 v=49
254640 On ch=2 n=b5 v=0
254640 On ch=2 n=g5 v=44
254796 On ch=2 n=g5 v=0
254880 On ch=2 n=d5 v=30
255036 On ch=2 n=d5 v=0
255120 On ch=2 n=d5 v=33
255276 On ch=2 n=d5 v=0
255360 On ch=2 n=a5 v=36
255516 On ch=2 n=a5 v=0
255600 On ch=2 n=b5 v=39
255756 On ch=2 n=b5 v=0
255840 On ch=2 n=c6 v=44
256080 On ch=2 n=c6 v=0
256080 On ch=2 n=a5 v=37
256176 On ch=2 n=a5 v=0
256320 Par ch=2 c=64 v=0
256320 On ch=2 n=d5 v=46
256476 On ch=2 n=d5 v=0
256560 On ch=2 n=d5 v=48
256716 On ch=2 n=d5 v=0
256800 On ch=2 n=g5 v=50
256956 On ch=2 n=g5 v=0
257040 On ch=2 n=a5 v=51
257196 On ch=2 n=a5 v=0
257280 On ch=2 n=b5 v=54
257520 On ch=2 n=b5 v=0
257520 On ch=2 n=g5 v=50
257676 On ch=2 n=g5 v=0
257760 On ch=2 n=e5 v=46
257916 On ch=2 n=e5 v=0
258000 On ch=2 n=e5 v=49
258156 On ch=2 n=e5 v=0
258240 On ch=2 n=a5 v=51
258396 On ch=2 n=a5 v=0
258480 On ch=2 n=b5 v=54
258636 On ch=2 n=b5 v=0
258720 On ch=2 n=c6 v=56
258960 On ch=2 n=c6 v=0
258960 On ch=2 n=a5 v=49
259116 On ch=2 n=a5 v=0
259200 On ch=2 n=e6 v=49
259356 On ch=2 n=e6 v=0
259440 On ch=2 n=d6 v=52
259596 On ch=2 n=d6 v=0
259680 On ch=2 n=c6 v=54
259836 On ch=2 n=c6 v=0
259920 On ch=2 n=b5 v=57
260076 On ch=2 n=b5 v=0
260160 On ch=2 n=a5 v=59
260316 On ch=2 n=a5 v=0
260400 On ch=2 n=g5 v=62
260556 On ch=2 n=g5 v=0
260640 On ch=2 n=a5 v=64
260796 On ch=2 n=a5 v=0
260880 On ch=2 n=g5 v=60
260920 On ch=2 n=a5 v=63
260940 On ch=2 n=g5 v=0
260960 On ch=2 n=a#5 v=66
260980 On ch=2 n=a5 v=0
261120 On ch=2 n=a#5 v=0
261120 On ch=2 n=a5 v=75
261276 On ch=2 n=a5 v=0
261360 On ch=2 n=g5 v=64
261516 On ch=2 n=g5 v=0
261600 On ch=2 n=f#5 v=57
261840 On ch=2 n=f#5 v=0
261840 On ch=2 n=d5 v=51
261996 On ch=2 n=d5 v=0
262080 On ch=2 n=d5 v=48
262236 On ch=2 n=d5 v=0
262320 On ch=2 n=d5 v=50
262476 On ch=2 n=d5 v=0
262560 On ch=2 n=g5 v=52
262716 On ch=2 n=g5 v=0
262800 On ch=2 n=a5 v=53
262956 On ch=2 n=a5 v=0
263040 On ch=2 n=b5 v=55
263280 On ch=2 n=b5 v=0
263280 On ch=2 n=g5 v=50
263436 On ch=2 n=g5 v=0
263520 On ch=2 n=e5 v=53
263676 On ch=2 n=e5 v=0
263760 On ch=2 n=e5 v=55
263916 On ch=2 n=e5 v=0
264000 On ch=2 n=a5 v=57
264156 On ch=2 n=a5 v=0
264240 On ch=2 n=b5 v=59
264396 On ch=2 n=b5 v=0
264480 On ch=2 n=c6 v=61
264720 On ch=2 n=c6 v=0
264720 On ch=2 n=a5 v=58
264876 On ch=2 n=a5 v=0
264960 On ch=2 n=e6 v=63
265116 On ch=2 n=e6 v=0
265200 On ch=2 n=d6 v=61
265356 On ch=2 n=d6 v=0
265440 On ch=2 n=c6 v=59
265596 On ch=2 n=c6 v=0
265680 On ch=2 n=b5 v=57
265836 On ch=2 n=b5 v=0
265920 On ch=2 n=a5 v=55
266076 On ch=2 n=a5 v=0
266160 On ch=2 n=g5 v=53
266316 On ch=2 n=g5 v=0
266400 On ch=2 n=a5 v=51
266556 On ch=2 n=a5 v=0
266640 On ch=2 n=d5 v=48
266880 On ch=2 n=g5 v=46
267120 On ch=2 n=g5 v=0
267120 On ch=2 n=d5 v=0
267120 On ch=2 n=f#5 v=44
267360 On ch=2 n=f#5 v=0
267360 On ch=2 n=g5 v=42
267720 On ch=2 n=g5 v=0
267840 On ch=2 n=d5 v=40
267996 On ch=2 n=d5 v=0
268080 On ch=2 n=g5 v=41
268236 On ch=2 n=g5 v=0
268320 On ch=2 n=b5 v=41
268476 On ch=2 n=b5 v=0
268560 On ch=2 n=d6 v=42
268716 On ch=2 n=d6 v=0
268800 On ch=2 n=d6 v=43
269040 On ch=2 n=d6 v=0
269040 On ch=2 n=c6 v=43
269196 On ch=2 n=c6 v=0
269280 On ch=2 n=c6 v=44
269436 On ch=2 n=c6 v=0
269520 On ch=2 n=d6 v=45
269760 On ch=2 n=d6 v=0
269760 On ch=2 n=b5 v=46
269916 On ch=2 n=b5 v=0
270000 On ch=2 n=b5 v=46
270156 On ch=2 n=b5 v=0
270240 On ch=2 n=d6 v=47
270480 On ch=2 n=d6 v=0
270480 On ch=2 n=c6 v=48
270636 On ch=2 n=c6 v=0
270720 On ch=2 n=c6 v=48
270876 On ch=2 n=c6 v=0
270960 On ch=2 n=d6 v=49
271200 On ch=2 n=d6 v=0
271200 On ch=2 n=b5 v=50
271356 On ch=2 n=b5 v=0
271440 On ch=2 n=b5 v=51
271596 On ch=2 n=b5 v=0
271680 On ch=2 n=d6 v=53
271920 On ch=2 n=d6 v=0
271920 On ch=2 n=c6 v=56
272076 On ch=2 n=c6 v=0
272160 On ch=2 n=b5 v=60
272316 On ch=2 n=b5 v=0
272400 On ch=2 n=d6 v=63
272640 On ch=2 n=d6 v=0
272640 On ch=2 n=c6 v=69
272796 On ch=2 n=c6 v=0
272880 On ch=2 n=b5 v=75
273036 On ch=2 n=b5 v=0
273120 On ch=2 n=d6 v=83
273540 On ch=2 n=d6 v=0
273600 On ch=2 n=d6 v=46
273756 On ch=2 n=d6 v=0
273840 On ch=2 n=d6 v=48
273996 On ch=2 n=d6 v=0
274080 On ch=2 n=g6 v=51
274236 On ch=2 n=g6 v=0
274320 On ch=2 n=a6 v=53
274476 On ch=2 n=a6 v=0
274560 On ch=2 n=b6 v=57
274800 On ch=2 n=b6 v=0
274800 On ch=2 n=g6 v=52
274956 On ch=2 n=g6 v=0
275040 On ch=2 n=e6 v=51
275196 On ch=2 n=e6 v=0
275280 On ch=2 n=e6 v=54
275436 On ch=2 n=e6 v=0
275520 On ch=2 n=a6 v=57
275676 On ch=2 n=a6 v=0
275760 On ch=2 n=b6 v=60
275916 On ch=2 n=b6 v=0
276000 On ch=2 n=c7 v=63
276240 On ch=2 n=c7 v=0
276240 On ch=2 n=a6 v=65
276396 On ch=2 n=a6 v=0
276480 On ch=2 n=e7 v=67
276636 On ch=2 n=e7 v=0
276720 On ch=2 n=d7 v=67
276876 On ch=2 n=d7 v=0
276960 On ch=2 n=c7 v=66
277116 On ch=2 n=c7 v=0
277200 On ch=2 n=b6 v=65
277356 On ch=2 n=b6 v=0
277380 On ch=2 n=b6 v=64
277440 On ch=2 n=b6 v=0
277440 On ch=2 n=a6 v=64
277596 On ch=2 n=a6 v=0
277680 On ch=2 n=g6 v=63
277836 On ch=2 n=g6 v=0
277920 On ch=2 n=a6 v=62
278076 On ch=2 n=a6 v=0
278160 On ch=2 n=d6 v=61
278400 On ch=2 n=g6 v=60
278640 On ch=2 n=g6 v=0
278640 On ch=2 n=d6 v=0
278640 On ch=2 n=f#6 v=59
278880 On ch=2 n=f#6 v=0
278880 On ch=2 n=g6 v=58
279240 On ch=2 n=g6 v=0
279840 On ch=2 n=c7 v=54
279996 On ch=2 n=c7 v=0
280080 On ch=2 n=b6 v=53
280236 On ch=2 n=b6 v=0
280320 On ch=2 n=a6 v=52
280476 On ch=2 n=a6 v=0
280560 On ch=2 n=g6 v=51
280716 On ch=2 n=g6 v=0
280800 On ch=2 n=f#6 v=50
280956 On ch=2 n=f#6 v=0
281040 On ch=2 n=b5 v=49
281280 On ch=2 n=e6 v=48
281436 On ch=2 n=e6 v=0
281520 On ch=2 n=b5 v=0
281520 On ch=2 n=d#6 v=47
281676 On ch=2 n=d#6 v=0
281760 On ch=2 n=f#6 v=46
282000 On ch=2 n=f#6 v=0
282000 On ch=2 n=e6 v=41
282156 On ch=2 n=e6 v=0
282240 On ch=2 n=a6 v=44
282396 On ch=2 n=a6 v=0
282480 On ch=2 n=g6 v=43
282636 On ch=2 n=g6 v=0
282720 On ch=2 n=f6 v=42
282876 On ch=2 n=f6 v=0
282960 On ch=2 n=e6 v=41
283116 On ch=2 n=e6 v=0
283200 On ch=2 n=d6 v=40
283356 On ch=2 n=d6 v=0
283440 On ch=2 n=c6 v=39
283596 On ch=2 n=c6 v=0
283680 On ch=2 n=d6 v=42
283836 On ch=2 n=d6 v=0
283920 On ch=2 n=g5 v=77
284160 On ch=2 n=c6 v=77
284316 On ch=2 n=c6 v=0
284400 On ch=2 n=g5 v=0
284400 On ch=2 n=b5 v=76
284556 On ch=2 n=b5 v=0
284640 On ch=2 n=d6 v=76
284880 On ch=2 n=d6 v=0
284880 On ch=2 n=c6 v=70
285036 On ch=2 n=c6 v=0
285120 On ch=2 n=c6 v=75
285276 On ch=2 n=c6 v=0
285360 On ch=2 n=e5 v=75
285600 On ch=2 n=a5 v=74
285756 On ch=2 n=a5 v=0
285840 On ch=2 n=e5 v=0
285840 On ch=2 n=g#5 v=74
285996 On ch=2 n=g#5 v=0
286080 On ch=2 n=b5 v=73
286320 On ch=2 n=b5 v=0
286320 On ch=2 n=a5 v=73
286476 On ch=2 n=a5 v=0
286560 On ch=2 n=a5 v=72
286716 On ch=2 n=a5 v=0
286800 On ch=2 n=d5 v=72
287040 On ch=2 n=g5 v=71
287196 On ch=2 n=g5 v=0
287280 On ch=2 n=d5 v=0
287280 On ch=2 n=f#5 v=71
287436 On ch=2 n=f#5 v=0
287760 On ch=2 n=g5 v=70
287916 On ch=2 n=g5 v=0
288000 On ch=2 n=g5 v=69
288156 On ch=2 n=g5 v=0
288480 On ch=2 n=c#5 v=68
288636 On ch=2 n=c#5 v=0
288720 On ch=2 n=c#5 v=68
288876 On ch=2 n=c#5 v=0
288960 On ch=2 n=d5 v=65
289440 On ch=2 n=d5 v=0
289620 On ch=2 n=c6 v=63
289680 On ch=2 n=c6 v=0
289680 On ch=2 n=b5 v=63
289920 On ch=2 n=b5 v=0
289920 On ch=2 n=a5 v=62
290160 On ch=2 n=a5 v=0
290160 On ch=2 n=b5 v=61
290400 On ch=2 n=b5 v=0
290400 On ch=2 n=c6 v=60
291060 On ch=2 n=b5 v=58
291120 On ch=2 n=b5 v=0
291120 On ch=2 n=c6 v=0
291120 On ch=2 n=a5 v=58
291360 On ch=2 n=a5 v=0
291360 On ch=2 n=g#5 v=57
291600 On ch=2 n=g#5 v=0
291600 On ch=2 n=a5 v=56
291840 On ch=2 n=a5 v=0
291840 On ch=2 n=d6 v=55
292800 On ch=2 n=d6 v=0
292800 On ch=2 n=c6 v=52
293040 On ch=2 n=c6 v=0
293040 On ch=2 n=b5 v=51
293280 On ch=2 n=b5 v=0
293280 On ch=2 n=a5 v=51
293520 On ch=2 n=a5 v=0
293520 On ch=2 n=b5 v=50
293676 On ch=2 n=b5 v=0
293760 On ch=2 n=g5 v=49
293916 On ch=2 n=g5 v=0
294000 On ch=2 n=f#5 v=48
294240 On ch=2 n=f#5 v=0
294240 On ch=2 n=g5 v=47
294396 On ch=2 n=g5 v=0
294480 On ch=2 n=e5 v=46
294636 On ch=2 n=e5 v=0
294720 On ch=2 n=d5 v=46
295680 On ch=2 n=d5 v=0
295680 On ch=2 n=e5 v=48
295920 On ch=2 n=e5 v=0
295920 On ch=2 n=f#5 v=49
296100 On ch=2 n=a5 v=50
296160 On ch=2 n=a5 v=0
296160 On ch=2 n=f#5 v=0
296160 On ch=2 n=g5 v=50
296400 On ch=2 n=g5 v=0
296400 On ch=2 n=f#5 v=51
296640 On ch=2 n=f#5 v=0
296640 On ch=2 n=g5 v=52
296880 On ch=2 n=g5 v=0
296880 On ch=2 n=d5 v=53
297120 On ch=2 n=d5 v=0
297120 On ch=2 n=f#5 v=54
297360 On ch=2 n=f#5 v=0
297360 On ch=2 n=g5 v=55
297540 On ch=2 n=b5 v=56
297600 On ch=2 n=b5 v=0
297600 On ch=2 n=g5 v=0
297600 On ch=2 n=a5 v=56
297840 On ch=2 n=a5 v=0
297840 On ch=2 n=g#5 v=57
298080 On ch=2 n=g#5 v=0
298080 On ch=2 n=a5 v=58
298320 On ch=2 n=a5 v=0
298320 On ch=2 n=d5 v=59
298560 On ch=2 n=d5 v=0
298560 On ch=2 n=g5 v=60
298800 On ch=2 n=g5 v=0
298800 On ch=2 n=a5 v=61
298980 On ch=2 n=c6 v=62
299040 On ch=2 n=c6 v=0
299040 On ch=2 n=a5 v=0
299040 On ch=2 n=b5 v=62
299280 On ch=2 n=b5 v=0
299280 On ch=2 n=a5 v=63
299520 On ch=2 n=a5 v=0
299520 On ch=2 n=b5 v=64
299760 On ch=2 n=b5 v=0
299760 On ch=2 n=c6 v=65
300000 On ch=2 n=c6 v=0
300000 On ch=2 n=d6 v=66
300240 On ch=2 n=d6 v=0
300240 On ch=2 n=e6 v=67
300480 On ch=2 n=e6 v=0
300480 On ch=2 n=a5 v=62
301140 On ch=2 n=c7 v=65
301200 On ch=2 n=c7 v=0
301200 On ch=2 n=a5 v=0
301200 On ch=2 n=b6 v=64
301440 On ch=2 n=b6 v=0
301440 On ch=2 n=a6 v=63
301680 On ch=2 n=a6 v=0
301680 On ch=2 n=b6 v=62
301920 On ch=2 n=b6 v=0
301920 On ch=2 n=c7 v=62
302580 On ch=2 n=b6 v=59
302640 On ch=2 n=b6 v=0
302640 On ch=2 n=c7 v=0
302640 On ch=2 n=a6 v=59
302880 On ch=2 n=a6 v=0
302880 On ch=2 n=g#6 v=58
303120 On ch=2 n=g#6 v=0
303120 On ch=2 n=a6 v=57
303360 On ch=2 n=a6 v=0
303360 On ch=2 n=d7 v=56
304320 On ch=2 n=d7 v=0
304320 On ch=2 n=c7 v=52
304560 On ch=2 n=c7 v=0
304560 On ch=2 n=b6 v=51
304800 On ch=2 n=b6 v=0
304800 On ch=2 n=a6 v=50
305040 On ch=2 n=a6 v=0
305040 On ch=2 n=b6 v=49
305196 On ch=2 n=b6 v=0
305280 On ch=2 n=g6 v=48
305436 On ch=2 n=g6 v=0
305520 On ch=2 n=f#6 v=47
305760 On ch=2 n=f#6 v=0
305760 On ch=2 n=g6 v=46
305916 On ch=2 n=g6 v=0
306000 On ch=2 n=e6 v=45
306156 On ch=2 n=e6 v=0
306240 On ch=2 n=d6 v=44
307200 On ch=2 n=d6 v=0
307200 On ch=2 n=e6 v=46
307440 On ch=2 n=e6 v=0
307440 On ch=2 n=f#6 v=47
307620 On ch=2 n=a6 v=48
307680 On ch=2 n=a6 v=0
307680 On ch=2 n=f#6 v=0
307680 On ch=2 n=g6 v=48
307920 On ch=2 n=g6 v=0
307920 On ch=2 n=f#6 v=49
308160 On ch=2 n=f#6 v=0
308160 On ch=2 n=g6 v=50
308400 On ch=2 n=g6 v=0
308400 On ch=2 n=d6 v=51
308640 On ch=2 n=d6 v=0
308640 On ch=2 n=f#6 v=52
308880 On ch=2 n=f#6 v=0
308880 On ch=2 n=g6 v=53
309060 On ch=2 n=b6 v=54
309120 On ch=2 n=b6 v=0
309120 On ch=2 n=g6 v=0
309120 On ch=2 n=a6 v=54
309360 On ch=2 n=a6 v=0
309360 On ch=2 n=g#6 v=55
309600 On ch=2 n=g#6 v=0
309600 On ch=2 n=a6 v=56
309780 On ch=2 n=c7 v=57
309840 On ch=2 n=c7 v=0
309840 On ch=2 n=a6 v=0
309840 On ch=2 n=b6 v=57
310080 On ch=2 n=b6 v=0
310080 On ch=2 n=a6 v=58
310320 On ch=2 n=a6 v=0
310320 On ch=2 n=b6 v=59
310500 On ch=2 n=d7 v=60
310560 On ch=2 n=d7 v=0
310560 On ch=2 n=b6 v=0
310560 On ch=2 n=c7 v=60
310800 On ch=2 n=c7 v=0
310800 On ch=2 n=b6 v=61
311040 On ch=2 n=b6 v=0
311040 On ch=2 n=c7 v=62
311280 On ch=2 n=c7 v=0
311280 On ch=2 n=e7 v=60
311760 On ch=2 n=e7 v=0
311760 On ch=2 n=f#6 v=55
312000 On ch=2 n=f#6 v=0
312000 On ch=2 n=g6 v=52
312480 On ch=2 n=g6 v=0
312660 On ch=2 n=a5 v=52
312720 On ch=2 n=a5 v=0
312720 On ch=2 n=g5 v=52
312960 On ch=2 n=g5 v=0
312960 On ch=2 n=f#5 v=54
313200 On ch=2 n=f#5 v=0
313200 On ch=2 n=g5 v=55
313440 On ch=2 n=g5 v=0
313440 On ch=2 n=d6 v=56
313920 On ch=2 n=d6 v=0
313920 On ch=2 n=d6 v=59
314160 On ch=2 n=d6 v=0
314160 On ch=2 n=d6 v=60
314640 On ch=2 n=d6 v=0
314640 On ch=2 n=d6 v=62
314880 On ch=2 n=d6 v=0
314880 Par ch=2 c=64 v=0
314880 On ch=2 n=d6 v=64
315360 On ch=2 n=d6 v=0
315360 On ch=2 n=c#6 v=59
315540 On ch=2 n=b5 v=52
315600 On ch=2 n=b5 v=0
315600 On ch=2 n=c#6 v=0
315600 On ch=2 n=a5 v=52
315840 On ch=2 n=a5 v=0
315840 On ch=2 n=g#5 v=53
316080 On ch=2 n=g#5 v=0
316080 On ch=2 n=a5 v=53
316320 On ch=2 n=a5 v=0
316320 On ch=2 n=c6 v=54
316800 On ch=2 n=c6 v=0
316800 On ch=2 n=c6 v=55
317040 On ch=2 n=c6 v=0
317040 On ch=2 n=c6 v=55
317520 On ch=2 n=c6 v=0
317520 On ch=2 n=c6 v=57
317760 On ch=2 n=c6 v=0
317760 On ch=2 n=c6 v=59
318240 On ch=2 n=c6 v=0
318240 On ch=2 n=b5 v=58
318420 On ch=2 n=c6 v=57
318480 On ch=2 n=c6 v=0
318480 On ch=2 n=b5 v=0
318480 On ch=2 n=b5 v=57
318720 On ch=2 n=b5 v=0
318720 On ch=2 n=a5 v=57
318960 On ch=2 n=a5 v=0
318960 On ch=2 n=b5 v=56
319200 On ch=2 n=b5 v=0
319200 On ch=2 n=c6 v=59
319860 On ch=2 n=b5 v=57
319920 On ch=2 n=b5 v=0
319920 On ch=2 n=c6 v=0
319920 On ch=2 n=a5 v=57
320160 On ch=2 n=a5 v=0
320160 On ch=2 n=g#5 v=56
320400 On ch=2 n=g#5 v=0
320400 On ch=2 n=a5 v=56
320640 On ch=2 n=a5 v=0
320640 On ch=2 n=d6 v=55
321600 On ch=2 n=d6 v=0
321600 On ch=2 n=d#6 v=52
321840 On ch=2 n=d#6 v=0
321840 On ch=2 n=e6 v=52
322080 On ch=2 n=e6 v=0
322080 On ch=2 n=g5 v=53
322560 On ch=2 n=g5 v=0
322560 On ch=2 n=a5 v=51
322620 On ch=2 n=a5 v=0
322620 On ch=2 n=g5 v=51
322680 On ch=2 n=g5 v=0
322680 On ch=2 n=f#5 v=51
322740 On ch=2 n=f#5 v=0
322740 On ch=2 n=g5 v=50
322800 On ch=2 n=g5 v=0
322800 On ch=2 n=b5 v=50
323280 On ch=2 n=b5 v=0
323280 On ch=2 n=a5 v=48
323520 On ch=2 n=a5 v=0
323520 On ch=2 n=g5 v=47
324000 On ch=2 n=g5 v=0
324180 On ch=2 n=a5 v=50
324240 On ch=2 n=a5 v=0
324240 On ch=2 n=g5 v=50
324480 On ch=2 n=g5 v=0
324480 On ch=2 n=f#5 v=51
324720 On ch=2 n=f#5 v=0
324720 On ch=2 n=g5 v=52
324960 On ch=2 n=g5 v=0
324960 On ch=2 n=d6 v=53
325440 On ch=2 n=d6 v=0
325440 On ch=2 n=d6 v=55
325680 On ch=2 n=d6 v=0
325680 On ch=2 n=d6 v=56
326160 On ch=2 n=d6 v=0
326160 On ch=2 n=d6 v=58
326400 On ch=2 n=d6 v=0
326400 On ch=2 n=d6 v=62
326880 On ch=2 n=d6 v=0
326880 On ch=2 n=c#6 v=50
327060 On ch=2 n=b5 v=44
327120 On ch=2 n=b5 v=0
327120 On ch=2 n=c#6 v=0
327120 On ch=2 n=a5 v=44
327360 On ch=2 n=a5 v=0
327360 On ch=2 n=g#5 v=46
327600 On ch=2 n=g#5 v=0
327600 On ch=2 n=a5 v=48
327840 On ch=2 n=a5 v=0
327840 On ch=2 n=c6 v=49
328320 On ch=2 n=c6 v=0
328320 On ch=2 n=c6 v=52
328560 On ch=2 n=c6 v=0
328560 On ch=2 n=c6 v=54
329040 On ch=2 n=c6 v=0
329040 On ch=2 n=c6 v=57
329280 On ch=2 n=c6 v=0
329280 On ch=2 n=c6 v=59
329760 On ch=2 n=c6 v=0
329760 On ch=2 n=b5 v=57
329940 On ch=2 n=c6 v=56
330000 On ch=2 n=c6 v=0
330000 On ch=2 n=b5 v=0
330000 On ch=2 n=b5 v=56
330240 On ch=2 n=b5 v=0
330240 On ch=2 n=a5 v=55
330480 On ch=2 n=a5 v=0
330480 On ch=2 n=b5 v=55
330720 On ch=2 n=b5 v=0
330720 On ch=2 n=c6 v=54
331380 On ch=2 n=b5 v=52
331440 On ch=2 n=b5 v=0
331440 On ch=2 n=c6 v=0
331440 On ch=2 n=a5 v=52
331680 On ch=2 n=a5 v=0
331680 On ch=2 n=g#5 v=51
331920 On ch=2 n=g#5 v=0
331920 On ch=2 n=a5 v=51
332160 On ch=2 n=a5 v=0
332160 On ch=2 n=d6 v=50
333120 On ch=2 n=d6 v=0
333120 On ch=2 n=d#6 v=48
333360 On ch=2 n=d#6 v=0
333360 On ch=2 n=e6 v=47
333600 On ch=2 n=e6 v=0
333600 On ch=2 n=g5 v=51
334080 On ch=2 n=g5 v=0
334080 On ch=2 n=a5 v=48
334140 On ch=2 n=a5 v=0
334140 On ch=2 n=g5 v=48
334200 On ch=2 n=g5 v=0
334200 On ch=2 n=f#5 v=48
334260 On ch=2 n=f#5 v=0
334260 On ch=2 n=g5 v=47
334320 On ch=2 n=g5 v=0
334320 On ch=2 n=b5 v=47
334800 On ch=2 n=b5 v=0
334800 On ch=2 n=a5 v=44
335040 On ch=2 n=a5 v=0
335040 On ch=2 n=g5 v=42
335400 On ch=2 n=g5 v=0
335520 On ch=2 n=d5 v=46
335676 On ch=2 n=d5 v=0
335760 On ch=2 n=d5 v=48
335916 On ch=2 n=d5 v=0
336000 On ch=2 n=g5 v=50
336156 On ch=2 n=g5 v=0
336240 On ch=2 n=a5 v=51
336396 On ch=2 n=a5 v=0
336480 On ch=2 n=b5 v=54
336720 On ch=2 n=b5 v=0
336720 On ch=2 n=g5 v=50
336876 On ch=2 n=g5 v=0
336960 On ch=2 n=e5 v=46
337116 On ch=2 n=e5 v=0
337200 On ch=2 n=e5 v=49
337356 On ch=2 n=e5 v=0
337440 On ch=2 n=a5 v=51
337596 On ch=2 n=a5 v=0
337680 On ch=2 n=b5 v=54
337836 On ch=2 n=b5 v=0
337920 On ch=2 n=c6 v=56
338160 On ch=2 n=c6 v=0
338160 On ch=2 n=a5 v=49
338316 On ch=2 n=a5 v=0
338880 On ch=2 n=d6 v=62
339036 On ch=2 n=d6 v=0
339120 On ch=2 n=c6 v=64
339276 On ch=2 n=c6 v=0
339360 On ch=2 n=b5 v=65
339600 On ch=2 n=b5 v=0
339600 On ch=2 n=d5 v=66
339756 On ch=2 n=d5 v=0
340320 On ch=2 n=c6 v=69
340476 On ch=2 n=c6 v=0
340560 On ch=2 n=b5 v=70
340716 On ch=2 n=b5 v=0
340800 On ch=2 n=a5 v=71
341040 On ch=2 n=a5 v=0
341040 On ch=2 n=d5 v=73
341196 On ch=2 n=d5 v=0
341280 On ch=2 n=d5 v=46
341436 On ch=2 n=d5 v=0
341520 On ch=2 n=d5 v=48
341676 On ch=2 n=d5 v=0
341760 On ch=2 n=g5 v=50
341916 On ch=2 n=g5 v=0
342000 On ch=2 n=a5 v=51
342156 On ch=2 n=a5 v=0
342240 On ch=2 n=b5 v=54
342480 On ch=2 n=b5 v=0
342480 On ch=2 n=g5 v=50
342636 On ch=2 n=g5 v=0
342720 On ch=2 n=e5 v=46
342876 On ch=2 n=e5 v=0
342960 On ch=2 n=e5 v=49
343116 On ch=2 n=e5 v=0
343200 On ch=2 n=a5 v=51
343356 On ch=2 n=a5 v=0
343440 On ch=2 n=b5 v=54
343596 On ch=2 n=b5 v=0
343680 On ch=2 n=c6 v=56
343920 On ch=2 n=c6 v=0
343920 On ch=2 n=a5 v=53
344076 On ch=2 n=a5 v=0
344160 On ch=2 n=e6 v=52
344316 On ch=2 n=e6 v=0
344400 On ch=2 n=d6 v=50
344556 On ch=2 n=d6 v=0
344640 On ch=2 n=c6 v=49
344796 On ch=2 n=c6 v=0
344880 On ch=2 n=b5 v=47
345036 On ch=2 n=b5 v=0
345120 On ch=2 n=a5 v=46
345360 On ch=2 n=a5 v=0
345360 On ch=2 n=g5 v=44
345516 On ch=2 n=g5 v=0
346080 On ch=2 n=e6 v=79
346236 On ch=2 n=e6 v=0
346320 On ch=2 n=g6 v=78
346476 On ch=2 n=g6 v=0
346560 On ch=2 n=f#6 v=81
346800 On ch=2 n=f#6 v=0
346800 On ch=2 n=g6 v=74
346956 On ch=2 n=g6 v=0
347040 On ch=2 n=e6 v=53
347196 On ch=2 n=e6 v=0
347280 On ch=2 n=d6 v=51
347436 On ch=2 n=d6 v=0
347520 On ch=2 n=c6 v=50
347676 On ch=2 n=c6 v=0
347760 On ch=2 n=b5 v=49
347916 On ch=2 n=b5 v=0
348000 On ch=2 n=a5 v=47
348240 On ch=2 n=a5 v=0
348240 On ch=2 n=g5 v=46
348396 On ch=2 n=g5 v=0
348960 On ch=2 n=e6 v=74
349116 On ch=2 n=e6 v=0
349200 On ch=2 n=g6 v=72
349356 On ch=2 n=g6 v=0
349440 On ch=2 n=f#6 v=75
349680 On ch=2 n=f#6 v=0
349680 On ch=2 n=g6 v=68
349836 On ch=2 n=g6 v=0
350160 On ch=2 n=g#6 v=52
350400 On ch=2 n=g#6 v=0
350400 On ch=2 n=a6 v=57
350556 On ch=2 n=a6 v=0
350880 On ch=2 n=a6 v=65
351120 On ch=2 n=a6 v=0
351120 On ch=2 n=b6 v=69
351276 On ch=2 n=b6 v=0
351600 On ch=2 n=b6 v=77
351840 On ch=2 n=b6 v=0
351840 On ch=2 n=c7 v=81
351996 On ch=2 n=c7 v=0
352320 Par ch=2 c=64 v=127
352320 On ch=2 n=c7 v=90
353520 On ch=2 n=c7 v=0
353520 On ch=2 n=a6 v=66
353760 On ch=2 n=a6 v=0
353760 On ch=2 n=f#6 v=63
354240 On ch=2 n=f#6 v=0
355200 Par ch=2 c=64 v=0
356640 On ch=2 n=d5 v=51
357360 On ch=2 n=d5 v=0
357360 On ch=2 n=d5 v=50
358080 On ch=2 n=d5 v=0
358080 On ch=2 n=f#5 v=49
358800 On ch=2 n=f#5 v=0
358800 On ch=2 n=g5 v=48
359520 On ch=2 n=g5 v=0
359760 On ch=2 n=e5 v=46
360000 On ch=2 n=e5 v=0
360000 On ch=2 n=g#5 v=46
360240 On ch=2 n=g#5 v=0
360240 On ch=2 n=a5 v=46
360480 On ch=2 n=a5 v=0
360480 On ch=2 n=c6 v=45
360720 On ch=2 n=c6 v=0
360720 On ch=2 n=a5 v=45
360960 On ch=2 n=a5 v=0
360960 On ch=2 n=g5 v=45
361200 On ch=2 n=g5 v=0
361200 On ch=2 n=b5 v=44
361440 On ch=2 n=b5 v=0
361440 On ch=2 n=g5 v=44
361680 On ch=2 n=g5 v=0
361680 On ch=2 n=f#5 v=43
361920 On ch=2 n=f#5 v=0
361920 On ch=2 n=a5 v=43
362160 On ch=2 n=a5 v=0
362160 On ch=2 n=f#5 v=43
362400 On ch=2 n=f#5 v=0
362400 On ch=2 n=g5 v=42
362880 On ch=2 n=g5 v=0
362880 On ch=2 n=d5 v=45
363120 On ch=2 n=d5 v=0
363120 On ch=2 n=d5 v=46
363360 On ch=2 n=d5 v=0
363360 On ch=2 n=a5 v=47
363600 On ch=2 n=a5 v=0
363600 On ch=2 n=b5 v=48
363840 On ch=2 n=b5 v=0
363840 On ch=2 n=c6 v=49
364200 On ch=2 n=c6 v=0
364320 On ch=2 n=d6 v=51
364560 On ch=2 n=d6 v=0
364560 On ch=2 n=d6 v=52
364800 On ch=2 n=d6 v=0
364800 On ch=2 n=a6 v=53
365040 On ch=2 n=a6 v=0
365040 On ch=2 n=b6 v=54
365280 On ch=2 n=b6 v=0
365280 On ch=2 n=c7 v=55
365640 On ch=2 n=c7 v=0
365760 On ch=2 n=d5 v=57
366000 On ch=2 n=d5 v=0
366000 On ch=2 n=d5 v=58
366240 On ch=2 n=d5 v=0
366240 On ch=2 n=d6 v=59
366480 On ch=2 n=d6 v=0
366480 On ch=2 n=c6 v=60
366720 On ch=2 n=c6 v=0
366720 On ch=2 n=b5 v=61
367080 On ch=2 n=b5 v=0
367200 On ch=2 n=d6 v=63
367440 On ch=2 n=d6 v=0
367440 On ch=2 n=d6 v=64
367680 On ch=2 n=d6 v=0
367680 On ch=2 n=d7 v=65
367920 On ch=2 n=d7 v=0
367920 On ch=2 n=c7 v=66
368160 On ch=2 n=c7 v=0
368160 On ch=2 n=b6 v=67
368520 On ch=2 n=b6 v=0
368640 On ch=2 n=d5 v=69
368880 On ch=2 n=d5 v=0
368880 On ch=2 n=d5 v=70
369120 On ch=2 n=d5 v=0
369120 On ch=2 n=a5 v=71
369360 On ch=2 n=a5 v=0
369360 On ch=2 n=b5 v=72
369600 On ch=2 n=b5 v=0
369600 On ch=2 n=c6 v=73
369960 On ch=2 n=c6 v=0
370080 On ch=2 n=d6 v=75
370320 On ch=2 n=d6 v=0
370320 On ch=2 n=d6 v=76
370560 On ch=2 n=d6 v=0
370560 On ch=2 n=a6 v=77
370800 On ch=2 n=a6 v=0
370800 On ch=2 n=b6 v=78
371040 On ch=2 n=b6 v=0
371040 On ch=2 n=c7 v=79
371400 On ch=2 n=c7 v=0
371520 On ch=2 n=d5 v=81
371760 On ch=2 n=d5 v=0
371760 On ch=2 n=d5 v=82
372000 On ch=2 n=d5 v=0
372000 On ch=2 n=d6 v=83
372240 On ch=2 n=d6 v=0
372240 On ch=2 n=c6 v=84
372480 On ch=2 n=c6 v=0
372480 On ch=2 n=b5 v=85
372840 On ch=2 n=b5 v=0
372960 On ch=2 n=d6 v=87
373200 On ch=2 n=d6 v=0
373200 On ch=2 n=d6 v=88
373440 On ch=2 n=d6 v=0
373440 On ch=2 n=d7 v=89
373680 On ch=2 n=d7 v=0
373680 On ch=2 n=c7 v=90
373920 On ch=2 n=c7 v=0
373920 On ch=2 n=b6 v=91
374280 On ch=2 n=b6 v=0
374400 On ch=2 n=d5 v=93
374640 On ch=2 n=d5 v=0
374640 On ch=2 n=d5 v=94
374880 On ch=2 n=d5 v=0
374880 On ch=2 n=d6 v=95
375120 On ch=2 n=d6 v=0
375120 On ch=2 n=c6 v=96
375360 On ch=2 n=c6 v=0
375360 On ch=2 n=b5 v=97
375720 On ch=2 n=b5 v=0
375840 On ch=2 n=d6 v=99
376080 On ch=2 n=d6 v=0
376080 On ch=2 n=d6 v=100
376320 On ch=2 n=d6 v=0
376320 On ch=2 n=d7 v=101
376560 On ch=2 n=d7 v=0
376560 On ch=2 n=c7 v=102
376800 On ch=2 n=c7 v=0
376800 On ch=2 n=b6 v=103
377160 On ch=2 n=b6 v=0
377520 On ch=2 n=b5 v=106
377520 On ch=2 n=b6 v=106
377880 On ch=2 n=b6 v=0
377880 On ch=2 n=b5 v=0
378240 On ch=2 n=g6 v=106
378240 On ch=2 n=g5 v=106
378600 On ch=2 n=g5 v=0
378600 On ch=2 n=g6 v=0
378600 Meta TrkEnd
TrkEnd
MTrk
0 SeqSpec 43 00 01 00
0 Meta TrkName "No Name"
0 Par ch=3 c=0 v=0
0 Par ch=3 c=32 v=0
0 PrCh ch=3 p=0
0 Par ch=3 c=10 v=73
0 Par ch=3 c=91 v=100
0 Par ch=3 c=93 v=28
0 Par ch=3 c=64 v=0
0 Par ch=3 c=1 v=0
0 Pb ch=3 v=8192
0 Par ch=3 c=7 v=122
720 Par ch=3 c=64 v=0
1920 On ch=3 n=d5 v=57
2880 On ch=3 n=d5 v=0
3840 On ch=3 n=g5 v=60
4800 On ch=3 n=g5 v=0
9600 On ch=3 n=d5 v=55
10560 On ch=3 n=d5 v=0
31680 On ch=3 n=a5 v=41
32160 On ch=3 n=a5 v=0
32400 Par ch=3 c=64 v=0
33600 On ch=3 n=d5 v=57
34560 On ch=3 n=d5 v=0
35520 On ch=3 n=g5 v=60
36480 On ch=3 n=g5 v=0
41280 On ch=3 n=d5 v=55
42240 On ch=3 n=d5 v=0
63360 On ch=3 n=a5 v=41
63840 On ch=3 n=a5 v=0
64080 Par ch=3 c=64 v=0
67200 On ch=3 n=c5 v=68
67680 On ch=3 n=c5 v=0
67680 On ch=3 n=g#4 v=55
68160 On ch=3 n=g#4 v=0
68160 On ch=3 n=g4 v=46
68160 On ch=3 n=a#4 v=46
68640 On ch=3 n=a#4 v=0
68640 On ch=3 n=g4 v=0
80400 On ch=3 n=a5 v=62
80520 On ch=3 n=a5 v=0
80520 On ch=3 n=a#5 v=69
80640 On ch=3 n=a#5 v=0
80640 On ch=3 n=c6 v=79
80880 On ch=3 n=c6 v=0
80880 On ch=3 n=f#5 v=72
81036 On ch=3 n=f#5 v=0
81120 On ch=3 n=f#5 v=73
81276 On ch=3 n=f#5 v=0
81360 On ch=3 n=f#5 v=74
81516 On ch=3 n=f#5 v=0
81600 On ch=3 n=g5 v=81
82080 On ch=3 n=g5 v=0
82080 On ch=3 n=a5 v=76
82560 On ch=3 n=a5 v=0
82560 On ch=3 n=c6 v=70
82800 On ch=3 n=c6 v=0
82800 On ch=3 n=a#5 v=68
83040 On ch=3 n=a#5 v=0
83040 On ch=3 n=a5 v=65
83280 On ch=3 n=a5 v=0
83280 On ch=3 n=g5 v=62
83520 On ch=3 n=g5 v=0
83520 On ch=3 n=f#5 v=59
84000 On ch=3 n=f#5 v=0
84480 On ch=3 n=a#5 v=49
84720 On ch=3 n=a#5 v=0
86400 On ch=3 n=a#5 v=51
86640 On ch=3 n=a#5 v=0
95040 On ch=3 n=d5 v=54
96000 On ch=3 n=d5 v=0
96960 On ch=3 n=g5 v=60
97920 On ch=3 n=g5 v=0
101880 On ch=3 n=d6 v=42
102000 On ch=3 n=d6 v=0
102120 On ch=3 n=d6 v=43
102240 On ch=3 n=d6 v=0
102360 On ch=3 n=d6 v=44
102480 On ch=3 n=d6 v=0
102600 On ch=3 n=d6 v=45
102720 On ch=3 n=d6 v=0
103800 On ch=3 n=d6 v=50
103920 On ch=3 n=d6 v=0
103920 On ch=3 n=a#6 v=50
104040 On ch=3 n=d6 v=51
104160 On ch=3 n=d6 v=0
104160 On ch=3 n=a#6 v=0
104160 On ch=3 n=a6 v=51
104280 On ch=3 n=d6 v=52
104400 On ch=3 n=d6 v=0
104400 On ch=3 n=a6 v=0
104400 On ch=3 n=g6 v=52
104520 On ch=3 n=d6 v=53
104640 On ch=3 n=d6 v=0
104640 On ch=3 n=g6 v=0
105720 On ch=3 n=f6 v=57
105840 On ch=3 n=f6 v=0
105840 On ch=3 n=d7 v=57
105960 On ch=3 n=f6 v=58
106080 On ch=3 n=f6 v=0
106080 On ch=3 n=d7 v=0
106080 On ch=3 n=c7 v=59
106200 On ch=3 n=f6 v=60
106320 On ch=3 n=f6 v=0
106320 On ch=3 n=c7 v=0
106320 On ch=3 n=a#6 v=61
106440 On ch=3 n=f6 v=62
106560 On ch=3 n=f6 v=0
106560 On ch=3 n=a#6 v=0
106560 On ch=3 n=a6 v=63
106680 On ch=3 n=d6 v=64
106800 On ch=3 n=d6 v=0
106800 On ch=3 n=a6 v=0
106920 On ch=3 n=d6 v=65
107040 On ch=3 n=d6 v=0
107040 On ch=3 n=f#6 v=66
107160 On ch=3 n=c6 v=67
107280 On ch=3 n=c6 v=0
107280 On ch=3 n=f#6 v=0
107400 On ch=3 n=a#5 v=69
107520 On ch=3 n=a#5 v=0
126000 On ch=3 n=a#4 v=39
126000 On ch=3 n=g4 v=39
126240 On ch=3 n=g4 v=0
126240 On ch=3 n=a#4 v=0
126240 On ch=3 n=a#4 v=39
126240 On ch=3 n=g4 v=39
126480 On ch=3 n=g4 v=0
126480 On ch=3 n=a#4 v=0
126480 On ch=3 n=g4 v=39
126480 On ch=3 n=a#4 v=39
126720 On ch=3 n=a#4 v=0
126720 On ch=3 n=g4 v=0
126720 On ch=3 n=a4 v=39
126720 On ch=3 n=c5 v=39
126960 On ch=3 n=c5 v=0
126960 On ch=3 n=a4 v=0
126960 On ch=3 n=a4 v=38
126960 On ch=3 n=c5 v=38
127200 On ch=3 n=c5 v=0
127200 On ch=3 n=a4 v=0
127200 On ch=3 n=a4 v=38
127200 On ch=3 n=c5 v=38
127440 On ch=3 n=c5 v=0
127440 On ch=3 n=a4 v=0
127440 On ch=3 n=a4 v=38
127440 On ch=3 n=c5 v=38
127680 On ch=3 n=c5 v=0
127680 On ch=3 n=a4 v=0
127680 On ch=3 n=a#4 v=38
127680 On ch=3 n=g4 v=38
127920 On ch=3 n=g4 v=0
127920 On ch=3 n=a#4 v=0
127920 On ch=3 n=a#4 v=38
127920 On ch=3 n=g4 v=38
128160 On ch=3 n=g4 v=0
128160 On ch=3 n=a#4 v=0
128160 On ch=3 n=a#4 v=37
128160 On ch=3 n=g4 v=37
128400 On ch=3 n=g4 v=0
128400 On ch=3 n=a#4 v=0
128400 On ch=3 n=a#4 v=37
128400 On ch=3 n=g4 v=37
128640 On ch=3 n=g4 v=0
128640 On ch=3 n=a#4 v=0
128640 On ch=3 n=c5 v=37
128640 On ch=3 n=a4 v=37
128880 On ch=3 n=a4 v=0
128880 On ch=3 n=c5 v=0
128880 On ch=3 n=a4 v=37
128880 On ch=3 n=c5 v=37
129120 On ch=3 n=c5 v=0
129120 On ch=3 n=a4 v=0
129120 On ch=3 n=a4 v=36
129120 On ch=3 n=c5 v=36
129360 On ch=3 n=c5 v=0
129360 On ch=3 n=a4 v=0
129360 On ch=3 n=a4 v=36
129360 On ch=3 n=c5 v=36
129600 On ch=3 n=c5 v=0
129600 On ch=3 n=a4 v=0
129600 On ch=3 n=g4 v=36
129600 On ch=3 n=a#4 v=36
129840 On ch=3 n=a#4 v=0
129840 On ch=3 n=g4 v=0
129840 On ch=3 n=g4 v=36
129840 On ch=3 n=a#4 v=36
130080 On ch=3 n=a#4 v=0
130080 On ch=3 n=g4 v=0
130080 On ch=3 n=a#4 v=36
130080 On ch=3 n=g4 v=36
130320 On ch=3 n=g4 v=0
130320 On ch=3 n=a#4 v=0
130320 On ch=3 n=a#4 v=35
130320 On ch=3 n=g4 v=35
130560 On ch=3 n=g4 v=0
130560 On ch=3 n=a#4 v=0
130560 On ch=3 n=a4 v=35
130560 On ch=3 n=c5 v=35
130800 On ch=3 n=c5 v=0
130800 On ch=3 n=a4 v=0
130800 On ch=3 n=a4 v=35
130800 On ch=3 n=c5 v=35
131040 On ch=3 n=c5 v=0
131040 On ch=3 n=a4 v=0
131040 On ch=3 n=a4 v=35
131040 On ch=3 n=c5 v=35
131280 On ch=3 n=c5 v=0
131280 On ch=3 n=a4 v=0
131280 On ch=3 n=a4 v=34
131280 On ch=3 n=c5 v=34
131520 On ch=3 n=c5 v=0
131520 On ch=3 n=a4 v=0
131520 On ch=3 n=a#4 v=34
131760 On ch=3 n=g4 v=34
132000 On ch=3 n=g4 v=0
132000 On ch=3 n=a#4 v=0
132000 On ch=3 n=b4 v=34
132240 On ch=3 n=g4 v=33
132480 On ch=3 n=g4 v=0
132480 On ch=3 n=b4 v=0
132480 On ch=3 n=c5 v=33
132720 On ch=3 n=g4 v=33
132960 On ch=3 n=g4 v=0
132960 On ch=3 n=c5 v=0
132960 On ch=3 n=d#4 v=33
133200 On ch=3 n=f#4 v=33
133440 On ch=3 n=f#4 v=0
133440 On ch=3 n=d#4 v=0
133440 On ch=3 n=d4 v=32
133680 On ch=3 n=g4 v=32
133920 On ch=3 n=g4 v=0
133920 On ch=3 n=d4 v=0
133920 On ch=3 n=f4 v=32
134160 On ch=3 n=g4 v=32
134400 On ch=3 n=g4 v=0
134400 On ch=3 n=f4 v=0
134400 On ch=3 n=d#4 v=31
134640 On ch=3 n=g4 v=31
134880 On ch=3 n=g4 v=0
134880 On ch=3 n=d#4 v=0
134880 On ch=3 n=c4 v=31
135120 On ch=3 n=d#4 v=31
135360 On ch=3 n=d#4 v=0
135360 On ch=3 n=c4 v=0
135360 On ch=3 n=b3 v=31
135840 On ch=3 n=b3 v=0
135840 On ch=3 n=c4 v=30
136080 On ch=3 n=d#4 v=30
136320 On ch=3 n=d#4 v=0
136320 On ch=3 n=c4 v=0
136320 On ch=3 n=b3 v=30
136560 On ch=3 n=d4 v=29
136800 On ch=3 n=d4 v=0
136800 On ch=3 n=b3 v=0
136800 On ch=3 n=c4 v=29
137040 On ch=3 n=d#4 v=29
137280 On ch=3 n=d#4 v=0
137280 On ch=3 n=c4 v=0
137280 On ch=3 n=b3 v=29
137520 On ch=3 n=d4 v=28
137760 On ch=3 n=d4 v=0
137760 On ch=3 n=b3 v=0
137760 On ch=3 n=b3 v=28
138000 On ch=3 n=d4 v=28
138240 On ch=3 n=d4 v=0
138240 On ch=3 n=b3 v=0
138240 On ch=3 n=b3 v=28
138720 On ch=3 n=b3 v=0
139200 Par ch=3 c=64 v=0
140640 Par ch=3 c=64 v=0
151920 On ch=3 n=c5 v=44
152160 On ch=3 n=c5 v=0
152160 On ch=3 n=g4 v=42
152520 On ch=3 n=g4 v=0
153840 On ch=3 n=a5 v=43
153996 On ch=3 n=a5 v=0
154080 On ch=3 n=a5 v=44
154236 On ch=3 n=a5 v=0
154560 On ch=3 n=g5 v=46
154716 On ch=3 n=g5 v=0
155280 On ch=3 n=a5 v=48
155436 On ch=3 n=a5 v=0
155520 On ch=3 n=a5 v=48
155676 On ch=3 n=a5 v=0
156000 On ch=3 n=g5 v=50
156156 On ch=3 n=g5 v=0
156720 On ch=3 n=a5 v=56
156876 On ch=3 n=a5 v=0
156960 On ch=3 n=g5 v=60
157116 On ch=3 n=g5 v=0
157440 On ch=3 n=a5 v=70
157596 On ch=3 n=a5 v=0
157680 On ch=3 n=g5 v=76
157836 On ch=3 n=g5 v=0
157920 On ch=3 n=a5 v=84
157920 On ch=3 n=c6 v=84
158340 On ch=3 n=c6 v=0
158340 On ch=3 n=a5 v=0
163440 On ch=3 n=c6 v=49
163680 On ch=3 n=c6 v=0
163680 On ch=3 n=g5 v=47
164040 On ch=3 n=g5 v=0
169680 On ch=3 n=a#4 v=47
169800 On ch=3 n=a#4 v=0
169920 On ch=3 n=a#4 v=48
170040 On ch=3 n=a#4 v=0
170400 On ch=3 n=a4 v=52
170520 On ch=3 n=a4 v=0
170640 On ch=3 n=a4 v=53
170760 On ch=3 n=a4 v=0
171120 On ch=3 n=a#4 v=61
171240 On ch=3 n=a#4 v=0
171360 On ch=3 n=a#4 v=65
171480 On ch=3 n=a#4 v=0
171840 On ch=3 n=a4 v=74
171960 On ch=3 n=a4 v=0
172080 On ch=3 n=a4 v=78
172200 On ch=3 n=a4 v=0
172560 On ch=3 n=a#4 v=82
172680 On ch=3 n=a#4 v=0
172800 On ch=3 n=a#4 v=81
172920 On ch=3 n=a#4 v=0
173280 On ch=3 n=a#4 v=79
173400 On ch=3 n=a#4 v=0
173520 On ch=3 n=a#4 v=77
173640 On ch=3 n=a#4 v=0
174360 On ch=3 n=c#5 v=73
174480 On ch=3 n=c#5 v=0
174720 On ch=3 n=c#5 v=72
174840 On ch=3 n=c#5 v=0
174960 On ch=3 n=c5 v=70
175080 On ch=3 n=c5 v=0
175080 On ch=3 n=a4 v=70
175200 On ch=3 n=a4 v=0
175440 On ch=3 n=a#4 v=46
175560 On ch=3 n=a#4 v=0
175680 On ch=3 n=a#4 v=48
175800 On ch=3 n=a#4 v=0
176160 On ch=3 n=a4 v=52
176280 On ch=3 n=a4 v=0
176400 On ch=3 n=a4 v=54
176520 On ch=3 n=a4 v=0
176880 On ch=3 n=a#4 v=59
177000 On ch=3 n=a#4 v=0
177120 On ch=3 n=a#4 v=63
177240 On ch=3 n=a#4 v=0
177600 On ch=3 n=a#4 v=69
177720 On ch=3 n=a#4 v=0
177840 On ch=3 n=a#4 v=73
177960 On ch=3 n=a#4 v=0
178320 On ch=3 n=c5 v=77
178440 On ch=3 n=c5 v=0
178560 On ch=3 n=c5 v=76
178680 On ch=3 n=c5 v=0
179040 On ch=3 n=d5 v=74
179160 On ch=3 n=d5 v=0
179280 On ch=3 n=d5 v=73
179400 On ch=3 n=d5 v=0
179760 On ch=3 n=g4 v=72
179880 On ch=3 n=g4 v=0
180000 On ch=3 n=g4 v=71
180120 On ch=3 n=g4 v=0
180480 On ch=3 n=a4 v=69
180600 On ch=3 n=a4 v=0
180720 On ch=3 n=a4 v=68
180840 On ch=3 n=a4 v=0
181200 On ch=3 n=a#4 v=74
181320 On ch=3 n=a#4 v=0
181440 On ch=3 n=a#4 v=77
181560 On ch=3 n=a#4 v=0
181920 On ch=3 n=a#4 v=74
182040 On ch=3 n=a#4 v=0
182160 On ch=3 n=a#4 v=73
182280 On ch=3 n=a#4 v=0
182640 On ch=3 n=g4 v=70
182760 On ch=3 n=g4 v=0
182880 On ch=3 n=g4 v=69
183000 On ch=3 n=g4 v=0
183360 On ch=3 n=c5 v=66
183480 On ch=3 n=c5 v=0
183600 On ch=3 n=c5 v=64
183720 On ch=3 n=c5 v=0
183840 On ch=3 n=d5 v=62
184320 On ch=3 n=d5 v=0
211200 On ch=3 n=a#5 v=56
211920 On ch=3 n=a#5 v=0
211920 On ch=3 n=b5 v=60
212640 On ch=3 n=b5 v=0
212640 On ch=3 n=c6 v=64
213360 On ch=3 n=c6 v=0
214080 On ch=3 n=c6 v=54
214800 On ch=3 n=c6 v=0
214800 On ch=3 n=c6 v=55
215520 On ch=3 n=c6 v=0
215520 On ch=3 n=a#5 v=59
216240 On ch=3 n=a#5 v=0
222720 On ch=3 n=a#5 v=53
223440 On ch=3 n=a#5 v=0
223440 On ch=3 n=b5 v=56
224160 On ch=3 n=b5 v=0
224160 On ch=3 n=c6 v=62
224880 On ch=3 n=c6 v=0
225600 On ch=3 n=c6 v=49
226320 On ch=3 n=c6 v=0
226320 On ch=3 n=c6 v=54
227040 On ch=3 n=c6 v=0
227040 On ch=3 n=a#5 v=59
227760 On ch=3 n=a#5 v=0
232800 Par ch=3 c=64 v=0
238800 On ch=3 n=a#4 v=47
238920 On ch=3 n=a#4 v=0
239040 On ch=3 n=a#4 v=48
239160 On ch=3 n=a#4 v=0
239520 On ch=3 n=a4 v=52
239640 On ch=3 n=a4 v=0
239760 On ch=3 n=a4 v=53
239880 On ch=3 n=a4 v=0
240240 On ch=3 n=a#4 v=61
240360 On ch=3 n=a#4 v=0
240480 On ch=3 n=a#4 v=65
240600 On ch=3 n=a#4 v=0
240960 On ch=3 n=a4 v=74
241080 On ch=3 n=a4 v=0
241200 On ch=3 n=a4 v=78
241320 On ch=3 n=a4 v=0
241680 On ch=3 n=a#4 v=82
241800 On ch=3 n=a#4 v=0
241920 On ch=3 n=a#4 v=81
242040 On ch=3 n=a#4 v=0
242400 On ch=3 n=a#4 v=79
242520 On ch=3 n=a#4 v=0
242640 On ch=3 n=a#4 v=77
242760 On ch=3 n=a#4 v=0
243480 On ch=3 n=c#5 v=73
243600 On ch=3 n=c#5 v=0
243840 On ch=3 n=c#5 v=72
243960 On ch=3 n=c#5 v=0
244080 On ch=3 n=c5 v=70
244200 On ch=3 n=c5 v=0
244200 On ch=3 n=a4 v=70
244320 On ch=3 n=a4 v=0
244560 On ch=3 n=a#4 v=46
244680 On ch=3 n=a#4 v=0
244800 On ch=3 n=a#4 v=48
244920 On ch=3 n=a#4 v=0
245280 On ch=3 n=a4 v=52
245400 On ch=3 n=a4 v=0
245520 On ch=3 n=a4 v=54
245640 On ch=3 n=a4 v=0
246000 On ch=3 n=a#4 v=59
246120 On ch=3 n=a#4 v=0
246240 On ch=3 n=a#4 v=63
246360 On ch=3 n=a#4 v=0
246720 On ch=3 n=a#4 v=69
246840 On ch=3 n=a#4 v=0
246960 On ch=3 n=a#4 v=73
247080 On ch=3 n=a#4 v=0
247200 Par ch=3 c=64 v=0
247440 On ch=3 n=c5 v=77
247560 On ch=3 n=c5 v=0
247680 On ch=3 n=c5 v=76
247800 On ch=3 n=c5 v=0
248160 On ch=3 n=d5 v=74
248280 On ch=3 n=d5 v=0
248400 On ch=3 n=d5 v=73
248520 On ch=3 n=d5 v=0
248880 On ch=3 n=a#4 v=72
249000 On ch=3 n=a#4 v=0
249120 On ch=3 n=a#4 v=71
249240 On ch=3 n=a#4 v=0
249600 On ch=3 n=c5 v=69
249720 On ch=3 n=c5 v=0
249840 On ch=3 n=c5 v=68
249960 On ch=3 n=c5 v=0
250320 On ch=3 n=a4 v=74
250440 On ch=3 n=a4 v=0
250560 On ch=3 n=a4 v=77
250680 On ch=3 n=a4 v=0
251040 On ch=3 n=a#4 v=74
251160 On ch=3 n=a#4 v=0
251280 On ch=3 n=a#4 v=73
251400 On ch=3 n=a#4 v=0
251760 On ch=3 n=d#4 v=70
251880 On ch=3 n=d#4 v=0
252000 On ch=3 n=d#4 v=69
252120 On ch=3 n=d#4 v=0
252480 On ch=3 n=f#4 v=66
252600 On ch=3 n=f#4 v=0
252720 On ch=3 n=f#4 v=64
252840 On ch=3 n=f#4 v=0
256320 Par ch=3 c=64 v=0
267120 On ch=3 n=c5 v=44
267360 On ch=3 n=c5 v=0
267360 On ch=3 n=g4 v=42
267720 On ch=3 n=g4 v=0
269040 On ch=3 n=a5 v=43
269196 On ch=3 n=a5 v=0
269280 On ch=3 n=a5 v=44
269436 On ch=3 n=a5 v=0
269760 On ch=3 n=g5 v=46
269916 On ch=3 n=g5 v=0
270480 On ch=3 n=a5 v=48
270636 On ch=3 n=a5 v=0
270720 On ch=3 n=a5 v=48
270876 On ch=3 n=a5 v=0
271200 On ch=3 n=g5 v=50
271356 On ch=3 n=g5 v=0
271920 On ch=3 n=a5 v=56
272076 On ch=3 n=a5 v=0
272160 On ch=3 n=g5 v=60
272316 On ch=3 n=g5 v=0
272640 On ch=3 n=a5 v=69
272796 On ch=3 n=a5 v=0
272880 On ch=3 n=g5 v=75
273036 On ch=3 n=g5 v=0
273120 On ch=3 n=a5 v=83
273120 On ch=3 n=c6 v=83
273540 On ch=3 n=c6 v=0
273540 On ch=3 n=a5 v=0
278640 On ch=3 n=c6 v=59
278880 On ch=3 n=c6 v=0
278880 On ch=3 n=g5 v=58
279240 On ch=3 n=g5 v=0
281520 On ch=3 n=a5 v=47
281760 On ch=3 n=a5 v=0
281760 On ch=3 n=g5 v=46
282240 On ch=3 n=g5 v=0
284400 On ch=3 n=f5 v=76
284640 On ch=3 n=f5 v=0
284640 On ch=3 n=e5 v=76
285120 On ch=3 n=e5 v=0
285120 On ch=3 n=d5 v=75
285360 On ch=3 n=d5 v=0
285840 On ch=3 n=d5 v=74
286080 On ch=3 n=d5 v=0
286080 On ch=3 n=c5 v=73
286560 On ch=3 n=c5 v=0
287280 On ch=3 n=c5 v=71
287520 On ch=3 n=c5 v=0
287520 On ch=3 n=b4 v=70
288240 On ch=3 n=b4 v=0
288240 On ch=3 n=g4 v=69
288960 On ch=3 n=g4 v=0
288960 On ch=3 n=f#4 v=65
289440 On ch=3 n=f#4 v=0
313440 On ch=3 n=g5 v=56
314160 On ch=3 n=g5 v=0
314160 On ch=3 n=g#5 v=60
314880 On ch=3 n=g#5 v=0
314880 Par ch=3 c=64 v=0
314880 On ch=3 n=a5 v=64
315600 On ch=3 n=a5 v=0
316320 On ch=3 n=a5 v=54
317040 On ch=3 n=a5 v=0
317040 On ch=3 n=a5 v=55
317760 On ch=3 n=a5 v=0
317760 On ch=3 n=g5 v=59
318480 On ch=3 n=g5 v=0
324960 On ch=3 n=g5 v=53
325680 On ch=3 n=g5 v=0
325680 On ch=3 n=g#5 v=56
326400 On ch=3 n=g#5 v=0
326400 On ch=3 n=a5 v=62
327120 On ch=3 n=a5 v=0
327840 On ch=3 n=a5 v=49
328560 On ch=3 n=a5 v=0
328560 On ch=3 n=a5 v=54
329280 On ch=3 n=a5 v=0
329280 On ch=3 n=g5 v=59
330000 On ch=3 n=g5 v=0
338880 On ch=3 n=b5 v=62
339036 On ch=3 n=b5 v=0
339120 On ch=3 n=a5 v=64
339276 On ch=3 n=a5 v=0
339360 On ch=3 n=g5 v=65
339600 On ch=3 n=g5 v=0
340320 On ch=3 n=a5 v=69
340476 On ch=3 n=a5 v=0
340560 On ch=3 n=g5 v=70
340716 On ch=3 n=g5 v=0
340800 On ch=3 n=f#5 v=71
341040 On ch=3 n=f#5 v=0
346320 On ch=3 n=d6 v=78
346476 On ch=3 n=d6 v=0
346560 On ch=3 n=c6 v=81
346800 On ch=3 n=c6 v=0
346800 On ch=3 n=b5 v=74
346956 On ch=3 n=b5 v=0
349200 On ch=3 n=d6 v=72
349356 On ch=3 n=d6 v=0
349440 On ch=3 n=c6 v=75
349680 On ch=3 n=c6 v=0
349680 On ch=3 n=b5 v=68
349836 On ch=3 n=b5 v=0
350160 On ch=3 n=f6 v=52
350400 On ch=3 n=f6 v=0
350400 On ch=3 n=f#6 v=57
350556 On ch=3 n=f#6 v=0
350880 On ch=3 n=f#6 v=65
351120 On ch=3 n=f#6 v=0
351120 On ch=3 n=g6 v=69
351276 On ch=3 n=g6 v=0
351600 On ch=3 n=g#6 v=77
351840 On ch=3 n=g#6 v=0
351840 On ch=3 n=a6 v=81
351996 On ch=3 n=a6 v=0
352320 Par ch=3 c=64 v=127
352320 On ch=3 n=f#6 v=90
352320 On ch=3 n=a6 v=90
352320 On ch=3 n=c6 v=90
353512 On ch=3 n=a6 v=0
353752 On ch=3 n=f#6 v=0
353760 On ch=3 n=c6 v=0
355200 Par ch=3 c=64 v=0
356640 On ch=3 n=f#4 v=51
356880 On ch=3 n=f#4 v=0
356880 On ch=3 n=a4 v=51
357120 On ch=3 n=a4 v=0
357120 On ch=3 n=f#4 v=50
357360 On ch=3 n=f#4 v=0
357360 On ch=3 n=g4 v=50
357600 On ch=3 n=g4 v=0
357600 On ch=3 n=b4 v=50
357840 On ch=3 n=b4 v=0
357840 On ch=3 n=g4 v=49
358080 On ch=3 n=g4 v=0
358080 On ch=3 n=c5 v=49
358320 On ch=3 n=c5 v=0
358320 On ch=3 n=d5 v=49
358560 On ch=3 n=d5 v=0
358560 On ch=3 n=c5 v=48
358800 On ch=3 n=c5 v=0
358800 On ch=3 n=b4 v=48
359040 On ch=3 n=b4 v=0
359040 On ch=3 n=d5 v=48
359280 On ch=3 n=d5 v=0
359280 On ch=3 n=b4 v=47
359520 On ch=3 n=b4 v=0
360960 On ch=3 n=d5 v=45
361680 On ch=3 n=d5 v=0
361680 On ch=3 n=c5 v=43
362400 On ch=3 n=c5 v=0
362400 On ch=3 n=b4 v=42
362880 On ch=3 n=b4 v=0
377520 On ch=3 n=g6 v=106
377520 On ch=3 n=d6 v=106
377880 On ch=3 n=d6 v=0
377880 On ch=3 n=g6 v=0
378240 On ch=3 n=b5 v=106
378240 On ch=3 n=d6 v=106
378600 On ch=3 n=d6 v=0
378600 On ch=3 n=b5 v=0
378600 Meta TrkEnd
TrkEnd
MTrk
0 SeqSpec 43 00 01 00
0 Meta TrkName "No Name"
0 Par ch=4 c=0 v=0
0 Par ch=4 c=32 v=0
0 PrCh ch=4 p=0
0 Par ch=4 c=10 v=64
0 Par ch=4 c=91 v=100
0 Par ch=4 c=93 v=28
0 Par ch=4 c=64 v=0
0 Par ch=4 c=1 v=0
0 Pb ch=4 v=8192
0 Par ch=4 c=7 v=112
720 Par ch=4 c=64 v=0
15480 On ch=4 n=f5 v=38
15600 On ch=4 n=f5 v=0
15720 On ch=4 n=f5 v=38
15840 On ch=4 n=f5 v=0
15960 On ch=4 n=f5 v=38
16080 On ch=4 n=f5 v=0
16200 On ch=4 n=f5 v=39
16320 On ch=4 n=f5 v=0
16440 On ch=4 n=f5 v=39
16560 On ch=4 n=f5 v=0
16680 On ch=4 n=f5 v=39
16800 On ch=4 n=f5 v=0
16920 On ch=4 n=f5 v=39
17040 On ch=4 n=f5 v=0
17160 On ch=4 n=f5 v=40
17280 On ch=4 n=f5 v=0
17400 On ch=4 n=f5 v=40
17520 On ch=4 n=f5 v=0
17640 On ch=4 n=f5 v=40
17760 On ch=4 n=f5 v=0
17880 On ch=4 n=f5 v=41
18000 On ch=4 n=f5 v=0
18120 On ch=4 n=f5 v=41
18240 On ch=4 n=f5 v=0
18360 On ch=4 n=f5 v=41
18480 On ch=4 n=f5 v=0
18600 On ch=4 n=f5 v=41
18720 On ch=4 n=f5 v=0
18840 On ch=4 n=f5 v=42
18960 On ch=4 n=f5 v=0
19080 On ch=4 n=f5 v=34
19200 On ch=4 n=f5 v=0
19320 On ch=4 n=f5 v=42
19440 On ch=4 n=f5 v=0
19560 On ch=4 n=f5 v=43
19680 On ch=4 n=f5 v=0
19800 On ch=4 n=f5 v=43
19920 On ch=4 n=f5 v=0
20040 On ch=4 n=f5 v=43
20160 On ch=4 n=f5 v=0
20280 On ch=4 n=f5 v=43
20400 On ch=4 n=f5 v=0
20520 On ch=4 n=f5 v=44
20640 On ch=4 n=f5 v=0
20760 On ch=4 n=f5 v=44
20880 On ch=4 n=f5 v=0
21000 On ch=4 n=f5 v=44
21120 On ch=4 n=f5 v=0
21240 On ch=4 n=d#5 v=45
21360 On ch=4 n=d#5 v=0
21480 On ch=4 n=d#5 v=45
21600 On ch=4 n=d#5 v=0
21720 On ch=4 n=d#5 v=45
21840 On ch=4 n=d#5 v=0
21960 On ch=4 n=d#5 v=45
22080 On ch=4 n=d#5 v=0
22200 On ch=4 n=d5 v=45
22320 On ch=4 n=d5 v=0
22440 On ch=4 n=d5 v=43
22560 On ch=4 n=d5 v=0
22680 On ch=4 n=d#5 v=42
22800 On ch=4 n=d#5 v=0
22920 On ch=4 n=d#5 v=41
23040 On ch=4 n=d#5 v=0
24120 On ch=4 n=f5 v=41
24240 On ch=4 n=f5 v=0
24360 On ch=4 n=f5 v=42
24480 On ch=4 n=f5 v=0
24600 On ch=4 n=f5 v=43
24720 On ch=4 n=f5 v=0
24840 On ch=4 n=f5 v=45
24960 On ch=4 n=f5 v=0
25080 On ch=4 n=d#5 v=46
25200 On ch=4 n=d#5 v=0
25320 On ch=4 n=d#5 v=47
25440 On ch=4 n=d#5 v=0
25560 On ch=4 n=d#5 v=49
25680 On ch=4 n=d#5 v=0
25800 On ch=4 n=d#5 v=50
25920 On ch=4 n=d#5 v=0
26040 On ch=4 n=d5 v=51
26160 On ch=4 n=d5 v=0
26280 On ch=4 n=d5 v=50
26400 On ch=4 n=d5 v=0
26520 On ch=4 n=c5 v=50
26640 On ch=4 n=c5 v=0
26760 On ch=4 n=c5 v=49
26880 On ch=4 n=c5 v=0
27000 On ch=4 n=d5 v=48
27120 On ch=4 n=d5 v=0
27240 On ch=4 n=d5 v=48
27360 On ch=4 n=d5 v=0
27480 On ch=4 n=d#5 v=47
27600 On ch=4 n=d#5 v=0
27720 On ch=4 n=d#5 v=46
27840 On ch=4 n=d#5 v=0
28920 On ch=4 n=f5 v=43
29040 On ch=4 n=f5 v=0
29160 On ch=4 n=f5 v=42
29280 On ch=4 n=f5 v=0
29400 On ch=4 n=f5 v=42
29520 On ch=4 n=f5 v=0
29640 On ch=4 n=f5 v=41
29760 On ch=4 n=f5 v=0
30840 On ch=4 n=f5 v=38
30960 On ch=4 n=f5 v=0
31080 On ch=4 n=f5 v=37
31200 On ch=4 n=f5 v=0
31320 On ch=4 n=f5 v=36
31440 On ch=4 n=f5 v=0
31560 On ch=4 n=f5 v=35
31680 On ch=4 n=f5 v=0
32400 Par ch=4 c=64 v=0
47160 On ch=4 n=f5 v=38
47280 On ch=4 n=f5 v=0
47400 On ch=4 n=f5 v=38
47520 On ch=4 n=f5 v=0
47640 On ch=4 n=f5 v=38
47760 On ch=4 n=f5 v=0
47880 On ch=4 n=f5 v=39
48000 On ch=4 n=f5 v=0
48120 On ch=4 n=f5 v=39
48240 On ch=4 n=f5 v=0
48360 On ch=4 n=f5 v=39
48480 On ch=4 n=f5 v=0
48600 On ch=4 n=f5 v=39
48720 On ch=4 n=f5 v=0
48840 On ch=4 n=f5 v=40
48960 On ch=4 n=f5 v=0
49080 On ch=4 n=f5 v=40
49200 On ch=4 n=f5 v=0
49320 On ch=4 n=f5 v=40
49440 On ch=4 n=f5 v=0
49560 On ch=4 n=f5 v=41
49680 On ch=4 n=f5 v=0
49800 On ch=4 n=f5 v=41
49920 On ch=4 n=f5 v=0
50040 On ch=4 n=f5 v=41
50160 On ch=4 n=f5 v=0
50280 On ch=4 n=f5 v=41
50400 On ch=4 n=f5 v=0
50520 On ch=4 n=f5 v=42
50640 On ch=4 n=f5 v=0
50760 On ch=4 n=f5 v=34
50880 On ch=4 n=f5 v=0
51000 On ch=4 n=f5 v=42
51120 On ch=4 n=f5 v=0
51240 On ch=4 n=f5 v=43
51360 On ch=4 n=f5 v=0
51480 On ch=4 n=f5 v=43
51600 On ch=4 n=f5 v=0
51720 On ch=4 n=f5 v=43
51840 On ch=4 n=f5 v=0
51960 On ch=4 n=f5 v=43
52080 On ch=4 n=f5 v=0
52200 On ch=4 n=f5 v=44
52320 On ch=4 n=f5 v=0
52440 On ch=4 n=f5 v=44
52560 On ch=4 n=f5 v=0
52680 On ch=4 n=f5 v=44
52800 On ch=4 n=f5 v=0
52920 On ch=4 n=d#5 v=45
53040 On ch=4 n=d#5 v=0
53160 On ch=4 n=d#5 v=45
53280 On ch=4 n=d#5 v=0
53400 On ch=4 n=d#5 v=45
53520 On ch=4 n=d#5 v=0
53640 On ch=4 n=d#5 v=45
53760 On ch=4 n=d#5 v=0
53880 On ch=4 n=d5 v=45
54000 On ch=4 n=d5 v=0
54120 On ch=4 n=d5 v=43
54240 On ch=4 n=d5 v=0
54360 On ch=4 n=d#5 v=42
54480 On ch=4 n=d#5 v=0
54600 On ch=4 n=d#5 v=41
54720 On ch=4 n=d#5 v=0
55800 On ch=4 n=f5 v=41
55920 On ch=4 n=f5 v=0
56040 On ch=4 n=f5 v=42
56160 On ch=4 n=f5 v=0
56280 On ch=4 n=f5 v=43
56400 On ch=4 n=f5 v=0
56520 On ch=4 n=f5 v=45
56640 On ch=4 n=f5 v=0
56760 On ch=4 n=d#5 v=46
56880 On ch=4 n=d#5 v=0
57000 On ch=4 n=d#5 v=47
57120 On ch=4 n=d#5 v=0
57240 On ch=4 n=d#5 v=49
57360 On ch=4 n=d#5 v=0
57480 On ch=4 n=d#5 v=50
57600 On ch=4 n=d#5 v=0
57720 On ch=4 n=d5 v=51
57840 On ch=4 n=d5 v=0
57960 On ch=4 n=d5 v=50
58080 On ch=4 n=d5 v=0
58200 On ch=4 n=c5 v=50
58320 On ch=4 n=c5 v=0
58440 On ch=4 n=c5 v=49
58560 On ch=4 n=c5 v=0
58680 On ch=4 n=d5 v=48
58800 On ch=4 n=d5 v=0
58920 On ch=4 n=d5 v=48
59040 On ch=4 n=d5 v=0
59160 On ch=4 n=d#5 v=47
59280 On ch=4 n=d#5 v=0
59400 On ch=4 n=d#5 v=46
59520 On ch=4 n=d#5 v=0
60600 On ch=4 n=f5 v=43
60720 On ch=4 n=f5 v=0
60840 On ch=4 n=f5 v=42
60960 On ch=4 n=f5 v=0
61080 On ch=4 n=f5 v=42
61200 On ch=4 n=f5 v=0
61320 On ch=4 n=f5 v=41
61440 On ch=4 n=f5 v=0
62520 On ch=4 n=f5 v=38
62640 On ch=4 n=f5 v=0
62760 On ch=4 n=f5 v=37
62880 On ch=4 n=f5 v=0
63000 On ch=4 n=f5 v=36
63120 On ch=4 n=f5 v=0
63240 On ch=4 n=f5 v=35
63360 On ch=4 n=f5 v=0
64080 Par ch=4 c=64 v=0
76920 On ch=4 n=a#5 v=46
77040 On ch=4 n=a#5 v=0
77160 On ch=4 n=a#5 v=45
77280 On ch=4 n=a#5 v=0
77400 On ch=4 n=a#5 v=43
77520 On ch=4 n=a#5 v=0
77640 On ch=4 n=a#5 v=41
77760 On ch=4 n=a#5 v=0
78840 On ch=4 n=g5 v=44
78960 On ch=4 n=g5 v=0
79080 On ch=4 n=g5 v=43
79200 On ch=4 n=g5 v=0
79320 On ch=4 n=g5 v=41
79440 On ch=4 n=g5 v=0
79560 On ch=4 n=g5 v=39
79680 On ch=4 n=g5 v=0
80760 On ch=4 n=d5 v=64
80880 On ch=4 n=d5 v=0
81000 On ch=4 n=d5 v=62
81120 On ch=4 n=d5 v=0
81240 On ch=4 n=d5 v=59
81360 On ch=4 n=d5 v=0
81480 On ch=4 n=d5 v=57
81600 On ch=4 n=d5 v=0
81720 On ch=4 n=d5 v=54
81840 On ch=4 n=d5 v=0
81960 On ch=4 n=d5 v=52
82080 On ch=4 n=d5 v=0
82200 On ch=4 n=d5 v=49
82320 On ch=4 n=d5 v=0
82440 On ch=4 n=d5 v=47
82560 On ch=4 n=d5 v=0
82680 On ch=4 n=d5 v=45
82800 On ch=4 n=d5 v=0
82920 On ch=4 n=d5 v=42
83040 On ch=4 n=d5 v=0
83160 On ch=4 n=c#5 v=40
83280 On ch=4 n=c#5 v=0
83400 On ch=4 n=c#5 v=37
83520 On ch=4 n=c#5 v=0
83640 On ch=4 n=d5 v=38
83760 On ch=4 n=d5 v=0
83880 On ch=4 n=d5 v=39
84000 On ch=4 n=d5 v=0
84120 On ch=4 n=d5 v=40
84240 On ch=4 n=d5 v=0
84360 On ch=4 n=d5 v=41
84480 On ch=4 n=d5 v=0
84600 On ch=4 n=d5 v=42
84720 On ch=4 n=d5 v=0
84840 On ch=4 n=d5 v=43
84960 On ch=4 n=d5 v=0
85080 On ch=4 n=d5 v=43
85200 On ch=4 n=d5 v=0
85320 On ch=4 n=d5 v=44
85440 On ch=4 n=d5 v=0
85560 On ch=4 n=d5 v=45
85680 On ch=4 n=d5 v=0
85800 On ch=4 n=d5 v=46
85920 On ch=4 n=d5 v=0
86040 On ch=4 n=d5 v=47
86160 On ch=4 n=d5 v=0
86280 On ch=4 n=d5 v=48
86400 On ch=4 n=d5 v=0
86520 On ch=4 n=d5 v=49
86640 On ch=4 n=d5 v=0
86760 On ch=4 n=d5 v=49
86880 On ch=4 n=d5 v=0
87000 On ch=4 n=d5 v=50
87120 On ch=4 n=d5 v=0
87240 On ch=4 n=d5 v=51
87360 On ch=4 n=d5 v=0
87480 On ch=4 n=d5 v=52
87600 On ch=4 n=d5 v=0
87720 On ch=4 n=d5 v=53
87840 On ch=4 n=d5 v=0
87960 On ch=4 n=d5 v=54
88080 On ch=4 n=d5 v=0
88200 On ch=4 n=d5 v=55
88320 On ch=4 n=d5 v=0
88440 On ch=4 n=d5 v=56
88560 On ch=4 n=d5 v=0
88680 On ch=4 n=d5 v=56
88800 On ch=4 n=d5 v=0
88920 On ch=4 n=d5 v=57
89040 On ch=4 n=d5 v=0
89160 On ch=4 n=d5 v=58
89280 On ch=4 n=d5 v=0
89400 On ch=4 n=d5 v=59
89520 On ch=4 n=d5 v=0
89640 On ch=4 n=d5 v=60
89760 On ch=4 n=d5 v=0
89880 On ch=4 n=d5 v=61
90000 On ch=4 n=d5 v=0
90120 On ch=4 n=d5 v=62
90240 On ch=4 n=d5 v=0
90360 On ch=4 n=d5 v=62
90480 On ch=4 n=d5 v=0
90600 On ch=4 n=d5 v=63
90720 On ch=4 n=d5 v=0
90840 On ch=4 n=d5 v=64
90960 On ch=4 n=d5 v=0
91080 On ch=4 n=d5 v=65
91200 On ch=4 n=d5 v=0
91320 On ch=4 n=d5 v=66
91440 On ch=4 n=d5 v=0
91560 On ch=4 n=d5 v=67
91680 On ch=4 n=d5 v=0
91800 On ch=4 n=d5 v=68
91920 On ch=4 n=d5 v=0
92040 On ch=4 n=d5 v=68
92160 On ch=4 n=d5 v=0
109560 On ch=4 n=d5 v=38
109680 On ch=4 n=d5 v=0
109800 On ch=4 n=d5 v=38
109920 On ch=4 n=d5 v=0
110040 On ch=4 n=d5 v=39
110160 On ch=4 n=d5 v=0
110280 On ch=4 n=d5 v=39
110400 On ch=4 n=d5 v=0
110520 On ch=4 n=d5 v=40
110640 On ch=4 n=d5 v=0
110760 On ch=4 n=d5 v=40
110880 On ch=4 n=d5 v=0
111000 On ch=4 n=d5 v=40
111120 On ch=4 n=d5 v=0
111240 On ch=4 n=d5 v=41
111360 On ch=4 n=d5 v=0
111480 On ch=4 n=d5 v=41
111600 On ch=4 n=d5 v=0
111720 On ch=4 n=d5 v=42
111840 On ch=4 n=d5 v=0
111960 On ch=4 n=d5 v=42
112080 On ch=4 n=d5 v=0
112200 On ch=4 n=d5 v=42
112320 On ch=4 n=d5 v=0
112440 On ch=4 n=d5 v=43
112560 On ch=4 n=d5 v=0
112680 On ch=4 n=d5 v=43
112800 On ch=4 n=d5 v=0
112920 On ch=4 n=d5 v=44
113040 On ch=4 n=d5 v=0
113160 On ch=4 n=d5 v=44
113280 On ch=4 n=d5 v=0
113400 On ch=4 n=d5 v=45
113520 On ch=4 n=d5 v=0
113640 On ch=4 n=d5 v=45
113760 On ch=4 n=d5 v=0
113880 On ch=4 n=d5 v=45
114000 On ch=4 n=d5 v=0
114120 On ch=4 n=d5 v=46
114240 On ch=4 n=d5 v=0
114360 On ch=4 n=d5 v=46
114480 On ch=4 n=d5 v=0
114600 On ch=4 n=d5 v=47
114720 On ch=4 n=d5 v=0
114840 On ch=4 n=d5 v=46
114960 On ch=4 n=d5 v=0
115080 On ch=4 n=d5 v=47
115200 On ch=4 n=d5 v=0
115320 On ch=4 n=c5 v=48
115440 On ch=4 n=c5 v=0
115560 On ch=4 n=c5 v=49
115680 On ch=4 n=c5 v=0
115800 On ch=4 n=g4 v=50
115920 On ch=4 n=g4 v=0
116040 On ch=4 n=g4 v=51
116160 On ch=4 n=g4 v=0
116280 On ch=4 n=g4 v=52
116400 On ch=4 n=g4 v=0
116520 On ch=4 n=g4 v=53
116640 On ch=4 n=g4 v=0
116760 On ch=4 n=a4 v=51
116880 On ch=4 n=a4 v=0
117000 On ch=4 n=a4 v=50
117120 On ch=4 n=a4 v=0
117240 On ch=4 n=a#4 v=49
117360 On ch=4 n=a#4 v=0
117480 On ch=4 n=a#4 v=48
117600 On ch=4 n=a#4 v=0
117720 On ch=4 n=c5 v=47
117840 On ch=4 n=c5 v=0
117960 On ch=4 n=c5 v=46
118080 On ch=4 n=c5 v=0
118200 On ch=4 n=d5 v=45
118320 On ch=4 n=d5 v=0
118440 On ch=4 n=d5 v=44
118560 On ch=4 n=d5 v=0
118680 On ch=4 n=d5 v=45
118800 On ch=4 n=d5 v=0
118920 On ch=4 n=d5 v=46
119040 On ch=4 n=d5 v=0
119160 On ch=4 n=c5 v=47
119280 On ch=4 n=c5 v=0
119400 On ch=4 n=c5 v=49
119520 On ch=4 n=c5 v=0
119640 On ch=4 n=g4 v=50
119760 On ch=4 n=g4 v=0
119880 On ch=4 n=g4 v=51
120000 On ch=4 n=g4 v=0
120120 On ch=4 n=a#4 v=53
120240 On ch=4 n=a#4 v=0
120360 On ch=4 n=a#4 v=54
120480 On ch=4 n=a#4 v=0
120600 On ch=4 n=a#4 v=55
120720 On ch=4 n=a#4 v=0
120840 On ch=4 n=a#4 v=57
120960 On ch=4 n=a#4 v=0
121080 On ch=4 n=a#4 v=58
121200 On ch=4 n=a#4 v=0
121320 On ch=4 n=a#4 v=58
121440 On ch=4 n=a#4 v=0
121560 On ch=4 n=a#4 v=59
121680 On ch=4 n=a#4 v=0
121800 On ch=4 n=a#4 v=59
121920 On ch=4 n=a#4 v=0
122040 On ch=4 n=d5 v=59
122160 On ch=4 n=d5 v=0
122280 On ch=4 n=d5 v=58
122400 On ch=4 n=d5 v=0
122520 On ch=4 n=d5 v=57
122640 On ch=4 n=d5 v=0
122760 On ch=4 n=d5 v=56
122880 On ch=4 n=d5 v=0
123000 On ch=4 n=d5 v=55
123120 On ch=4 n=d5 v=0
123240 On ch=4 n=d5 v=54
123360 On ch=4 n=d5 v=0
123480 On ch=4 n=d5 v=53
123600 On ch=4 n=d5 v=0
123720 On ch=4 n=d5 v=52
123840 On ch=4 n=d5 v=0
123960 On ch=4 n=d5 v=51
124080 On ch=4 n=d5 v=0
124200 On ch=4 n=d5 v=51
124320 On ch=4 n=d5 v=0
124440 On ch=4 n=d5 v=50
124560 On ch=4 n=d5 v=0
124680 On ch=4 n=d5 v=49
124800 On ch=4 n=d5 v=0
124920 On ch=4 n=d5 v=48
125040 On ch=4 n=d5 v=0
125160 On ch=4 n=d5 v=47
125280 On ch=4 n=d5 v=0
125400 On ch=4 n=d5 v=46
125520 On ch=4 n=d5 v=0
125640 On ch=4 n=d5 v=45
125760 On ch=4 n=d5 v=0
139200 Par ch=4 c=64 v=0
169560 On ch=4 n=d5 v=49
169680 On ch=4 n=d5 v=0
169800 On ch=4 n=d5 v=51
169920 On ch=4 n=d5 v=0
170040 On ch=4 n=d5 v=53
170160 On ch=4 n=d5 v=0
170280 On ch=4 n=d5 v=55
170400 On ch=4 n=d5 v=0
170520 On ch=4 n=d5 v=56
170640 On ch=4 n=d5 v=0
170760 On ch=4 n=d5 v=60
170880 On ch=4 n=d5 v=0
171000 On ch=4 n=d5 v=63
171120 On ch=4 n=d5 v=0
171240 On ch=4 n=d5 v=66
171360 On ch=4 n=d5 v=0
171480 On ch=4 n=d5 v=70
171600 On ch=4 n=d5 v=0
171720 On ch=4 n=d5 v=73
171840 On ch=4 n=d5 v=0
171960 On ch=4 n=d5 v=76
172080 On ch=4 n=d5 v=0
172200 On ch=4 n=d5 v=81
172320 On ch=4 n=d5 v=0
172440 On ch=4 n=d5 v=83
172560 On ch=4 n=d5 v=0
172680 On ch=4 n=d5 v=82
172800 On ch=4 n=d5 v=0
172920 On ch=4 n=d5 v=80
173040 On ch=4 n=d5 v=0
173160 On ch=4 n=d5 v=79
173280 On ch=4 n=d5 v=0
173400 On ch=4 n=d5 v=78
173520 On ch=4 n=d5 v=0
173640 On ch=4 n=d5 v=77
173760 On ch=4 n=d5 v=0
173880 On ch=4 n=d5 v=76
174000 On ch=4 n=d5 v=0
174120 On ch=4 n=d5 v=74
174240 On ch=4 n=d5 v=0
174600 On ch=4 n=d5 v=72
174720 On ch=4 n=d5 v=0
174840 On ch=4 n=d5 v=71
174960 On ch=4 n=d5 v=0
175320 On ch=4 n=d5 v=49
175440 On ch=4 n=d5 v=0
175560 On ch=4 n=d5 v=51
175680 On ch=4 n=d5 v=0
175800 On ch=4 n=d5 v=53
175920 On ch=4 n=d5 v=0
176040 On ch=4 n=d5 v=54
176160 On ch=4 n=d5 v=0
176280 On ch=4 n=d5 v=56
176400 On ch=4 n=d5 v=0
176520 On ch=4 n=d5 v=57
176640 On ch=4 n=d5 v=0
176760 On ch=4 n=d5 v=60
176880 On ch=4 n=d5 v=0
177000 On ch=4 n=d5 v=64
177120 On ch=4 n=d5 v=0
177240 On ch=4 n=d5 v=67
177360 On ch=4 n=d5 v=0
177480 On ch=4 n=d#5 v=71
177600 On ch=4 n=d#5 v=0
177720 On ch=4 n=d#5 v=74
177840 On ch=4 n=d#5 v=0
177960 On ch=4 n=d#5 v=78
178080 On ch=4 n=d#5 v=0
178200 On ch=4 n=f5 v=83
178320 On ch=4 n=f5 v=0
178440 On ch=4 n=f5 v=82
178560 On ch=4 n=f5 v=0
178680 On ch=4 n=f5 v=80
178800 On ch=4 n=f5 v=0
178920 On ch=4 n=f5 v=79
179040 On ch=4 n=f5 v=0
179160 On ch=4 n=f5 v=77
179280 On ch=4 n=f5 v=0
179400 On ch=4 n=f5 v=76
179520 On ch=4 n=f5 v=0
179640 On ch=4 n=c5 v=75
179760 On ch=4 n=c5 v=0
179880 On ch=4 n=c5 v=73
180000 On ch=4 n=c5 v=0
180120 On ch=4 n=c5 v=72
180240 On ch=4 n=c5 v=0
180360 On ch=4 n=c5 v=71
180480 On ch=4 n=c5 v=0
180600 On ch=4 n=c5 v=69
180720 On ch=4 n=c5 v=0
180840 On ch=4 n=c5 v=68
180960 On ch=4 n=c5 v=0
181080 On ch=4 n=d5 v=72
181200 On ch=4 n=d5 v=0
181320 On ch=4 n=d5 v=75
181440 On ch=4 n=d5 v=0
181560 On ch=4 n=d5 v=81
181680 On ch=4 n=d5 v=0
181800 On ch=4 n=d5 v=79
181920 On ch=4 n=d5 v=0
182040 On ch=4 n=d5 v=77
182160 On ch=4 n=d5 v=0
182280 On ch=4 n=d5 v=75
182400 On ch=4 n=d5 v=0
182520 On ch=4 n=c5 v=72
182640 On ch=4 n=c5 v=0
182760 On ch=4 n=c5 v=70
182880 On ch=4 n=c5 v=0
183000 On ch=4 n=c5 v=68
183120 On ch=4 n=c5 v=0
183240 On ch=4 n=d#5 v=66
183360 On ch=4 n=d#5 v=0
183480 On ch=4 n=d#5 v=64
183600 On ch=4 n=d#5 v=0
183720 On ch=4 n=d#5 v=62
183840 On ch=4 n=d#5 v=0
186960 On ch=4 n=f5 v=53
187116 On ch=4 n=f5 v=0
187200 On ch=4 n=f5 v=52
187356 On ch=4 n=f5 v=0
187680 On ch=4 n=f5 v=51
187836 On ch=4 n=f5 v=0
187920 On ch=4 n=f5 v=51
188076 On ch=4 n=f5 v=0
188400 On ch=4 n=f5 v=50
188556 On ch=4 n=f5 v=0
188640 On ch=4 n=f5 v=49
188796 On ch=4 n=f5 v=0
189120 On ch=4 n=f5 v=49
189276 On ch=4 n=f5 v=0
189360 On ch=4 n=f5 v=48
189516 On ch=4 n=f5 v=0
189840 On ch=4 n=f5 v=47
189996 On ch=4 n=f5 v=0
190080 On ch=4 n=f5 v=47
190236 On ch=4 n=f5 v=0
190560 On ch=4 n=f5 v=46
190716 On ch=4 n=f5 v=0
190800 On ch=4 n=f5 v=45
190956 On ch=4 n=f5 v=0
191280 On ch=4 n=f5 v=44
191436 On ch=4 n=f5 v=0
191520 On ch=4 n=f5 v=44
191676 On ch=4 n=f5 v=0
192000 On ch=4 n=e5 v=43
192156 On ch=4 n=e5 v=0
192240 On ch=4 n=e5 v=42
192396 On ch=4 n=e5 v=0
192720 On ch=4 n=a4 v=43
192960 On ch=4 n=a4 v=0
192960 On ch=4 n=c5 v=44
193200 On ch=4 n=c5 v=0
193440 On ch=4 n=a4 v=45
193680 On ch=4 n=a4 v=0
193680 On ch=4 n=c5 v=46
193920 On ch=4 n=c5 v=0
194160 On ch=4 n=f4 v=47
194316 On ch=4 n=f4 v=0
194400 On ch=4 n=f4 v=47
194556 On ch=4 n=f4 v=0
194880 On ch=4 n=f4 v=49
195036 On ch=4 n=f4 v=0
195120 On ch=4 n=f4 v=49
195276 On ch=4 n=f4 v=0
195600 On ch=4 n=f4 v=51
195756 On ch=4 n=f4 v=0
195840 On ch=4 n=f4 v=51
195996 On ch=4 n=f4 v=0
196320 On ch=4 n=f4 v=53
196476 On ch=4 n=f4 v=0
196560 On ch=4 n=f4 v=53
196716 On ch=4 n=f4 v=0
197040 On ch=4 n=f4 v=55
197280 On ch=4 n=f4 v=0
197280 On ch=4 n=a#4 v=55
197520 On ch=4 n=a#4 v=0
197760 On ch=4 n=g4 v=56
198000 On ch=4 n=g4 v=0
198000 On ch=4 n=c5 v=57
198240 On ch=4 n=c5 v=0
198480 On ch=4 n=f5 v=53
198636 On ch=4 n=f5 v=0
198720 On ch=4 n=f5 v=49
198876 On ch=4 n=f5 v=0
199200 On ch=4 n=f5 v=55
199356 On ch=4 n=f5 v=0
199440 On ch=4 n=f5 v=54
199596 On ch=4 n=f5 v=0
199920 On ch=4 n=f5 v=53
200076 On ch=4 n=f5 v=0
200160 On ch=4 n=f5 v=52
200316 On ch=4 n=f5 v=0
200640 On ch=4 n=f5 v=51
200796 On ch=4 n=f5 v=0
200880 On ch=4 n=f5 v=50
201036 On ch=4 n=f5 v=0
201360 On ch=4 n=f5 v=49
201516 On ch=4 n=f5 v=0
201600 On ch=4 n=f5 v=48
201756 On ch=4 n=f5 v=0
202080 On ch=4 n=f5 v=47
202236 On ch=4 n=f5 v=0
202320 On ch=4 n=f5 v=47
202476 On ch=4 n=f5 v=0
202800 On ch=4 n=f5 v=45
202956 On ch=4 n=f5 v=0
203040 On ch=4 n=f5 v=45
203196 On ch=4 n=f5 v=0
203520 On ch=4 n=e5 v=43
203676 On ch=4 n=e5 v=0
203760 On ch=4 n=e5 v=42
203916 On ch=4 n=e5 v=0
204240 On ch=4 n=a4 v=43
204480 On ch=4 n=a4 v=0
204480 On ch=4 n=c5 v=44
204720 On ch=4 n=c5 v=0
204960 On ch=4 n=a4 v=46
205200 On ch=4 n=a4 v=0
205200 On ch=4 n=c5 v=47
205440 On ch=4 n=c5 v=0
205680 On ch=4 n=f4 v=48
206278 On ch=4 n=f4 v=0
206400 On ch=4 n=f4 v=51
206556 On ch=4 n=f4 v=0
206640 On ch=4 n=f4 v=51
206796 On ch=4 n=f4 v=0
207120 On ch=4 n=f4 v=53
207276 On ch=4 n=f4 v=0
207360 On ch=4 n=f4 v=54
207516 On ch=4 n=f4 v=0
207840 On ch=4 n=f4 v=55
207996 On ch=4 n=f4 v=0
208080 On ch=4 n=f4 v=56
208236 On ch=4 n=f4 v=0
208560 On ch=4 n=g4 v=56
208800 On ch=4 n=g4 v=0
208800 On ch=4 n=c5 v=55
209040 On ch=4 n=c5 v=0
209280 On ch=4 n=d5 v=53
209520 On ch=4 n=d5 v=0
209520 On ch=4 n=d#5 v=52
209760 On ch=4 n=d#5 v=0
210000 On ch=4 n=d5 v=50
210240 On ch=4 n=d5 v=0
210240 On ch=4 n=f5 v=49
210480 On ch=4 n=f5 v=0
216480 On ch=4 n=f5 v=53
216636 On ch=4 n=f5 v=0
216720 On ch=4 n=f5 v=52
216876 On ch=4 n=f5 v=0
217200 On ch=4 n=f5 v=51
217356 On ch=4 n=f5 v=0
217440 On ch=4 n=f5 v=50
217596 On ch=4 n=f5 v=0
217920 On ch=4 n=f5 v=49
218076 On ch=4 n=f5 v=0
218160 On ch=4 n=f5 v=49
218316 On ch=4 n=f5 v=0
218640 On ch=4 n=a#4 v=48
218796 On ch=4 n=a#4 v=0
218880 On ch=4 n=a#4 v=47
219036 On ch=4 n=a#4 v=0
219360 On ch=4 n=a#4 v=46
219516 On ch=4 n=a#4 v=0
219600 On ch=4 n=a#4 v=46
219756 On ch=4 n=a#4 v=0
220080 On ch=4 n=a#4 v=44
220236 On ch=4 n=a#4 v=0
220320 On ch=4 n=a#4 v=44
220476 On ch=4 n=a#4 v=0
220800 On ch=4 n=a4 v=43
220956 On ch=4 n=a4 v=0
221040 On ch=4 n=a4 v=42
221196 On ch=4 n=a4 v=0
221520 On ch=4 n=a#4 v=41
221676 On ch=4 n=a#4 v=0
221760 On ch=4 n=a#4 v=41
221916 On ch=4 n=a#4 v=0
222960 On ch=4 n=f5 v=52
223116 On ch=4 n=f5 v=0
223200 On ch=4 n=f5 v=53
223356 On ch=4 n=f5 v=0
223680 On ch=4 n=f5 v=55
223836 On ch=4 n=f5 v=0
223920 On ch=4 n=f5 v=56
224076 On ch=4 n=f5 v=0
224400 On ch=4 n=g5 v=53
224556 On ch=4 n=g5 v=0
224640 On ch=4 n=g5 v=51
224796 On ch=4 n=g5 v=0
224880 On ch=4 n=g5 v=49
225036 On ch=4 n=g5 v=0
225120 On ch=4 n=g5 v=47
225276 On ch=4 n=g5 v=0
225360 On ch=4 n=g5 v=45
225516 On ch=4 n=g5 v=0
225840 On ch=4 n=g5 v=45
225996 On ch=4 n=g5 v=0
226080 On ch=4 n=g5 v=47
226236 On ch=4 n=g5 v=0
226560 On ch=4 n=f#5 v=51
226716 On ch=4 n=f#5 v=0
226800 On ch=4 n=f#5 v=52
226956 On ch=4 n=f#5 v=0
227280 On ch=4 n=f5 v=55
227436 On ch=4 n=f5 v=0
227520 On ch=4 n=f5 v=54
227676 On ch=4 n=f5 v=0
227760 On ch=4 n=f5 v=54
227916 On ch=4 n=f5 v=0
228000 On ch=4 n=f5 v=53
228156 On ch=4 n=f5 v=0
228240 On ch=4 n=f5 v=53
228396 On ch=4 n=f5 v=0
228720 On ch=4 n=f5 v=52
228876 On ch=4 n=f5 v=0
228960 On ch=4 n=f5 v=51
229116 On ch=4 n=f5 v=0
229440 On ch=4 n=f5 v=50
229596 On ch=4 n=f5 v=0
229680 On ch=4 n=f5 v=49
229836 On ch=4 n=f5 v=0
230160 On ch=4 n=a#4 v=48
230316 On ch=4 n=a#4 v=0
230400 On ch=4 n=a#4 v=48
230556 On ch=4 n=a#4 v=0
230880 On ch=4 n=a#4 v=47
231120 On ch=4 n=a#4 v=0
231120 On ch=4 n=d#5 v=46
231360 On ch=4 n=d#5 v=0
231600 On ch=4 n=a#4 v=45
231840 On ch=4 n=a#4 v=0
231840 On ch=4 n=d5 v=44
232080 On ch=4 n=d5 v=0
232320 On ch=4 n=a4 v=43
232560 On ch=4 n=a4 v=0
232560 On ch=4 n=d#5 v=43
232800 On ch=4 n=d#5 v=0
232800 On ch=4 n=d5 v=44
233160 On ch=4 n=d5 v=0
238680 On ch=4 n=d5 v=49
238800 On ch=4 n=d5 v=0
238920 On ch=4 n=d5 v=51
239040 On ch=4 n=d5 v=0
239160 On ch=4 n=d5 v=53
239280 On ch=4 n=d5 v=0
239400 On ch=4 n=d5 v=55
239520 On ch=4 n=d5 v=0
239640 On ch=4 n=d5 v=56
239760 On ch=4 n=d5 v=0
239880 On ch=4 n=d5 v=60
240000 On ch=4 n=d5 v=0
240120 On ch=4 n=d5 v=63
240240 On ch=4 n=d5 v=0
240360 On ch=4 n=d5 v=66
240480 On ch=4 n=d5 v=0
240600 On ch=4 n=d5 v=70
240720 On ch=4 n=d5 v=0
240840 On ch=4 n=d5 v=73
240960 On ch=4 n=d5 v=0
241080 On ch=4 n=d5 v=76
241200 On ch=4 n=d5 v=0
241320 On ch=4 n=d5 v=81
241440 On ch=4 n=d5 v=0
241560 On ch=4 n=d5 v=83
241680 On ch=4 n=d5 v=0
241800 On ch=4 n=d5 v=82
241920 On ch=4 n=d5 v=0
242040 On ch=4 n=d5 v=80
242160 On ch=4 n=d5 v=0
242280 On ch=4 n=d5 v=79
242400 On ch=4 n=d5 v=0
242520 On ch=4 n=d5 v=78
242640 On ch=4 n=d5 v=0
242760 On ch=4 n=d5 v=77
242880 On ch=4 n=d5 v=0
243000 On ch=4 n=d5 v=76
243120 On ch=4 n=d5 v=0
243240 On ch=4 n=d5 v=74
243360 On ch=4 n=d5 v=0
243720 On ch=4 n=d5 v=72
243840 On ch=4 n=d5 v=0
243960 On ch=4 n=d5 v=71
244080 On ch=4 n=d5 v=0
244440 On ch=4 n=d5 v=49
244560 On ch=4 n=d5 v=0
244680 On ch=4 n=d5 v=51
244800 On ch=4 n=d5 v=0
244920 On ch=4 n=d5 v=53
245040 On ch=4 n=d5 v=0
245160 On ch=4 n=d5 v=54
245280 On ch=4 n=d5 v=0
245400 On ch=4 n=d5 v=56
245520 On ch=4 n=d5 v=0
245640 On ch=4 n=d5 v=57
245760 On ch=4 n=d5 v=0
245880 On ch=4 n=d5 v=60
246000 On ch=4 n=d5 v=0
246120 On ch=4 n=d5 v=64
246240 On ch=4 n=d5 v=0
246360 On ch=4 n=d5 v=67
246480 On ch=4 n=d5 v=0
246600 On ch=4 n=d#5 v=71
246720 On ch=4 n=d#5 v=0
246840 On ch=4 n=d#5 v=74
246960 On ch=4 n=d#5 v=0
247080 On ch=4 n=d#5 v=78
247200 On ch=4 n=d#5 v=0
247320 On ch=4 n=f5 v=83
247440 On ch=4 n=f5 v=0
247560 On ch=4 n=f5 v=82
247680 On ch=4 n=f5 v=0
247800 On ch=4 n=f5 v=80
247920 On ch=4 n=f5 v=0
248040 On ch=4 n=f5 v=79
248160 On ch=4 n=f5 v=0
248280 On ch=4 n=f5 v=77
248400 On ch=4 n=f5 v=0
248520 On ch=4 n=f5 v=76
248640 On ch=4 n=f5 v=0
248760 On ch=4 n=d#5 v=75
248880 On ch=4 n=d#5 v=0
249000 On ch=4 n=d#5 v=73
249120 On ch=4 n=d#5 v=0
249240 On ch=4 n=d#5 v=72
249360 On ch=4 n=d#5 v=0
249480 On ch=4 n=d#5 v=71
249600 On ch=4 n=d#5 v=0
249720 On ch=4 n=d#5 v=69
249840 On ch=4 n=d#5 v=0
249960 On ch=4 n=d#5 v=68
250080 On ch=4 n=d#5 v=0
250200 On ch=4 n=d5 v=72
250320 On ch=4 n=d5 v=0
250440 On ch=4 n=d5 v=75
250560 On ch=4 n=d5 v=0
250680 On ch=4 n=d5 v=81
250800 On ch=4 n=d5 v=0
250920 On ch=4 n=d5 v=79
251040 On ch=4 n=d5 v=0
251160 On ch=4 n=d5 v=77
251280 On ch=4 n=d5 v=0
251400 On ch=4 n=d5 v=75
251520 On ch=4 n=d5 v=0
251640 On ch=4 n=a4 v=72
251760 On ch=4 n=a4 v=0
251880 On ch=4 n=a4 v=70
252000 On ch=4 n=a4 v=0
252120 On ch=4 n=a4 v=68
252240 On ch=4 n=a4 v=0
252360 On ch=4 n=a4 v=66
252480 On ch=4 n=a4 v=0
252600 On ch=4 n=a4 v=64
252720 On ch=4 n=a4 v=0
252840 On ch=4 n=a4 v=62
252960 On ch=4 n=a4 v=0
289200 On ch=4 n=d4 v=53
289356 On ch=4 n=d4 v=0
289440 On ch=4 n=d4 v=52
289596 On ch=4 n=d4 v=0
289920 On ch=4 n=d4 v=51
290076 On ch=4 n=d4 v=0
290160 On ch=4 n=d4 v=51
290316 On ch=4 n=d4 v=0
290640 On ch=4 n=d4 v=50
290796 On ch=4 n=d4 v=0
290880 On ch=4 n=d4 v=49
291036 On ch=4 n=d4 v=0
291360 On ch=4 n=d4 v=49
291516 On ch=4 n=d4 v=0
291600 On ch=4 n=d4 v=48
291756 On ch=4 n=d4 v=0
292080 On ch=4 n=d4 v=47
292236 On ch=4 n=d4 v=0
292320 On ch=4 n=d4 v=47
292476 On ch=4 n=d4 v=0
292800 On ch=4 n=d4 v=46
292956 On ch=4 n=d4 v=0
293040 On ch=4 n=d4 v=45
293196 On ch=4 n=d4 v=0
293520 On ch=4 n=d4 v=44
293676 On ch=4 n=d4 v=0
293760 On ch=4 n=d4 v=44
293916 On ch=4 n=d4 v=0
294240 On ch=4 n=c#4 v=43
294396 On ch=4 n=c#4 v=0
294480 On ch=4 n=c#4 v=42
294636 On ch=4 n=c#4 v=0
294960 On ch=4 n=d4 v=43
295116 On ch=4 n=d4 v=0
295200 On ch=4 n=d4 v=44
295356 On ch=4 n=d4 v=0
295680 On ch=4 n=d4 v=45
295836 On ch=4 n=d4 v=0
295920 On ch=4 n=d4 v=46
296076 On ch=4 n=d4 v=0
296400 On ch=4 n=d4 v=47
296556 On ch=4 n=d4 v=0
296640 On ch=4 n=d4 v=47
296796 On ch=4 n=d4 v=0
297120 On ch=4 n=d4 v=49
297276 On ch=4 n=d4 v=0
297360 On ch=4 n=d4 v=49
297516 On ch=4 n=d4 v=0
297840 On ch=4 n=d4 v=51
297996 On ch=4 n=d4 v=0
298080 On ch=4 n=d4 v=51
298236 On ch=4 n=d4 v=0
298560 On ch=4 n=d4 v=53
298716 On ch=4 n=d4 v=0
298800 On ch=4 n=d4 v=53
298956 On ch=4 n=d4 v=0
299280 On ch=4 n=d4 v=55
299520 On ch=4 n=d4 v=0
299520 On ch=4 n=g4 v=55
299760 On ch=4 n=g4 v=0
300000 On ch=4 n=e4 v=56
300240 On ch=4 n=e4 v=0
300240 On ch=4 n=a4 v=57
300480 On ch=4 n=a4 v=0
300720 On ch=4 n=d5 v=53
300876 On ch=4 n=d5 v=0
300960 On ch=4 n=d5 v=49
301116 On ch=4 n=d5 v=0
301440 On ch=4 n=d5 v=55
301596 On ch=4 n=d5 v=0
301680 On ch=4 n=d5 v=54
301836 On ch=4 n=d5 v=0
302160 On ch=4 n=d5 v=53
302316 On ch=4 n=d5 v=0
302400 On ch=4 n=d5 v=52
302556 On ch=4 n=d5 v=0
302880 On ch=4 n=d5 v=51
303036 On ch=4 n=d5 v=0
303120 On ch=4 n=d5 v=50
303276 On ch=4 n=d5 v=0
303600 On ch=4 n=d5 v=49
303756 On ch=4 n=d5 v=0
303840 On ch=4 n=d5 v=48
303996 On ch=4 n=d5 v=0
304320 On ch=4 n=d5 v=47
304476 On ch=4 n=d5 v=0
304560 On ch=4 n=d5 v=47
304716 On ch=4 n=d5 v=0
305040 On ch=4 n=d5 v=45
305196 On ch=4 n=d5 v=0
305280 On ch=4 n=d5 v=45
305436 On ch=4 n=d5 v=0
305760 On ch=4 n=c#5 v=43
305916 On ch=4 n=c#5 v=0
306000 On ch=4 n=c#5 v=42
306156 On ch=4 n=c#5 v=0
306480 On ch=4 n=d5 v=43
306636 On ch=4 n=d5 v=0
306720 On ch=4 n=d5 v=44
306876 On ch=4 n=d5 v=0
307200 On ch=4 n=d5 v=46
307356 On ch=4 n=d5 v=0
307440 On ch=4 n=d5 v=47
307596 On ch=4 n=d5 v=0
307920 On ch=4 n=d5 v=48
308076 On ch=4 n=d5 v=0
308160 On ch=4 n=d5 v=48
308316 On ch=4 n=d5 v=0
308640 On ch=4 n=d5 v=51
308796 On ch=4 n=d5 v=0
308880 On ch=4 n=d5 v=51
309036 On ch=4 n=d5 v=0
309360 On ch=4 n=d5 v=53
309516 On ch=4 n=d5 v=0
309600 On ch=4 n=d5 v=54
309756 On ch=4 n=d5 v=0
310080 On ch=4 n=d5 v=55
310236 On ch=4 n=d5 v=0
310320 On ch=4 n=d5 v=56
310476 On ch=4 n=d5 v=0
310800 On ch=4 n=e4 v=56
311040 On ch=4 n=e4 v=0
311040 On ch=4 n=a4 v=55
311280 On ch=4 n=a4 v=0
311520 On ch=4 n=f#4 v=53
311520 On ch=4 n=a4 v=53
311760 On ch=4 n=a4 v=0
311760 On ch=4 n=f#4 v=0
311760 On ch=4 n=c5 v=52
312000 On ch=4 n=c5 v=0
312240 On ch=4 n=b4 v=50
312480 On ch=4 n=b4 v=0
312480 On ch=4 n=d5 v=49
312720 On ch=4 n=d5 v=0
318720 On ch=4 n=d5 v=53
318876 On ch=4 n=d5 v=0
318960 On ch=4 n=d5 v=52
319116 On ch=4 n=d5 v=0
319440 On ch=4 n=d5 v=51
319596 On ch=4 n=d5 v=0
319680 On ch=4 n=d5 v=50
319836 On ch=4 n=d5 v=0
320160 On ch=4 n=d5 v=49
320316 On ch=4 n=d5 v=0
320400 On ch=4 n=d5 v=49
320556 On ch=4 n=d5 v=0
320880 On ch=4 n=g4 v=48
321036 On ch=4 n=g4 v=0
321120 On ch=4 n=g4 v=47
321276 On ch=4 n=g4 v=0
321600 On ch=4 n=g4 v=46
321756 On ch=4 n=g4 v=0
321840 On ch=4 n=g4 v=46
321996 On ch=4 n=g4 v=0
322320 On ch=4 n=g4 v=44
322476 On ch=4 n=g4 v=0
322560 On ch=4 n=g4 v=44
322716 On ch=4 n=g4 v=0
323040 On ch=4 n=f#4 v=43
323196 On ch=4 n=f#4 v=0
323280 On ch=4 n=f#4 v=42
323436 On ch=4 n=f#4 v=0
323760 On ch=4 n=g4 v=41
323916 On ch=4 n=g4 v=0
324000 On ch=4 n=g4 v=41
324156 On ch=4 n=g4 v=0
325200 On ch=4 n=d5 v=52
325356 On ch=4 n=d5 v=0
325440 On ch=4 n=d5 v=53
325596 On ch=4 n=d5 v=0
325920 On ch=4 n=d5 v=55
326076 On ch=4 n=d5 v=0
326160 On ch=4 n=d5 v=56
326316 On ch=4 n=d5 v=0
326640 On ch=4 n=e5 v=53
326796 On ch=4 n=e5 v=0
326880 On ch=4 n=e5 v=51
327036 On ch=4 n=e5 v=0
327120 On ch=4 n=e5 v=49
327276 On ch=4 n=e5 v=0
327360 On ch=4 n=e5 v=47
327516 On ch=4 n=e5 v=0
327600 On ch=4 n=e5 v=45
327756 On ch=4 n=e5 v=0
328080 On ch=4 n=e5 v=45
328236 On ch=4 n=e5 v=0
328320 On ch=4 n=e5 v=47
328476 On ch=4 n=e5 v=0
328800 On ch=4 n=d#5 v=51
328956 On ch=4 n=d#5 v=0
329040 On ch=4 n=d#5 v=52
329196 On ch=4 n=d#5 v=0
329520 On ch=4 n=d5 v=55
329676 On ch=4 n=d5 v=0
329760 On ch=4 n=d5 v=54
329916 On ch=4 n=d5 v=0
330000 On ch=4 n=d5 v=54
330156 On ch=4 n=d5 v=0
330240 On ch=4 n=d5 v=53
330396 On ch=4 n=d5 v=0
330480 On ch=4 n=d5 v=53
330636 On ch=4 n=d5 v=0
330960 On ch=4 n=d5 v=52
331116 On ch=4 n=d5 v=0
331200 On ch=4 n=d5 v=51
331356 On ch=4 n=d5 v=0
331680 On ch=4 n=d5 v=50
331836 On ch=4 n=d5 v=0
331920 On ch=4 n=d5 v=49
332076 On ch=4 n=d5 v=0
332400 On ch=4 n=g4 v=48
332556 On ch=4 n=g4 v=0
332640 On ch=4 n=g4 v=48
332796 On ch=4 n=g4 v=0
333120 On ch=4 n=g4 v=47
333360 On ch=4 n=g4 v=0
333360 On ch=4 n=c5 v=46
333600 On ch=4 n=c5 v=0
333840 On ch=4 n=g4 v=45
334080 On ch=4 n=g4 v=0
334080 On ch=4 n=b4 v=44
334320 On ch=4 n=b4 v=0
334560 On ch=4 n=f#4 v=43
334800 On ch=4 n=f#4 v=0
334800 On ch=4 n=c5 v=43
335040 On ch=4 n=c5 v=0
335040 On ch=4 n=b4 v=42
335400 On ch=4 n=b4 v=0
362640 On ch=4 n=d4 v=43
362880 On ch=4 n=g4 v=44
363084 On ch=4 n=d4 v=0
363120 On ch=4 n=g4 v=0
363360 On ch=4 n=d4 v=45
363600 On ch=4 n=g4 v=46
363804 On ch=4 n=d4 v=0
363840 On ch=4 n=g4 v=0
364080 On ch=4 n=d4 v=48
364320 On ch=4 n=f#4 v=49
364524 On ch=4 n=d4 v=0
364560 On ch=4 n=f#4 v=0
364800 On ch=4 n=d4 v=51
365040 On ch=4 n=f#4 v=52
365244 On ch=4 n=d4 v=0
365280 On ch=4 n=f#4 v=0
365520 On ch=4 n=d4 v=54
365760 On ch=4 n=f#4 v=54
365964 On ch=4 n=d4 v=0
366000 On ch=4 n=f#4 v=0
366240 On ch=4 n=d4 v=56
366480 On ch=4 n=f#4 v=57
366684 On ch=4 n=d4 v=0
366720 On ch=4 n=f#4 v=0
366960 On ch=4 n=d4 v=59
367200 On ch=4 n=g4 v=60
367404 On ch=4 n=d4 v=0
367440 On ch=4 n=g4 v=0
367680 On ch=4 n=d4 v=62
367920 On ch=4 n=f#4 v=63
368124 On ch=4 n=d4 v=0
368160 On ch=4 n=f#4 v=0
368400 On ch=4 n=d4 v=65
368640 On ch=4 n=g4 v=65
368844 On ch=4 n=d4 v=0
368880 On ch=4 n=g4 v=0
369120 On ch=4 n=d4 v=67
369360 On ch=4 n=g4 v=68
369564 On ch=4 n=d4 v=0
369600 On ch=4 n=g4 v=0
369840 On ch=4 n=d4 v=70
370080 On ch=4 n=f#4 v=71
370284 On ch=4 n=d4 v=0
370320 On ch=4 n=f#4 v=0
370560 On ch=4 n=d4 v=73
370800 On ch=4 n=f#4 v=74
371004 On ch=4 n=d4 v=0
371040 On ch=4 n=f#4 v=0
371280 On ch=4 n=d4 v=75
371520 On ch=4 n=f#4 v=76
371724 On ch=4 n=d4 v=0
371760 On ch=4 n=f#4 v=0
372000 On ch=4 n=d4 v=78
372240 On ch=4 n=f#4 v=79
372444 On ch=4 n=d4 v=0
372480 On ch=4 n=f#4 v=0
372720 On ch=4 n=d4 v=81
372960 On ch=4 n=g4 v=82
373164 On ch=4 n=d4 v=0
373200 On ch=4 n=g4 v=0
373440 On ch=4 n=d4 v=84
373680 On ch=4 n=f#4 v=85
373884 On ch=4 n=d4 v=0
373920 On ch=4 n=f#4 v=0
374160 On ch=4 n=d4 v=86
374400 On ch=4 n=g4 v=87
374604 On ch=4 n=d4 v=0
374640 On ch=4 n=g4 v=0
374880 On ch=4 n=d4 v=89
375120 On ch=4 n=f#4 v=90
375324 On ch=4 n=d4 v=0
375360 On ch=4 n=f#4 v=0
375600 On ch=4 n=d4 v=92
375840 On ch=4 n=g4 v=93
376044 On ch=4 n=d4 v=0
376080 On ch=4 n=g4 v=0
376320 On ch=4 n=d4 v=95
376560 On ch=4 n=f#4 v=96
376764 On ch=4 n=d4 v=0
376800 On ch=4 n=f#4 v=0
377040 On ch=4 n=d4 v=97
377280 On ch=4 n=g4 v=98
377484 On ch=4 n=d4 v=0
377520 On ch=4 n=g4 v=0
377760 On ch=4 n=d4 v=100
378000 On ch=4 n=g4 v=101
378204 On ch=4 n=d4 v=0
378240 On ch=4 n=g4 v=0
378240 Meta TrkEnd
TrkEnd
MTrk
0 SeqSpec 43 00 01 00
0 Meta TrkName "No Name"
0 Par ch=5 c=0 v=0
0 Par ch=5 c=32 v=0
0 PrCh ch=5 p=0
0 Par ch=5 c=7 v=120
0 Pb ch=5 v=8192
0 Par ch=5 c=1 v=0
0 Par ch=5 c=64 v=0
0 Par ch=5 c=93 v=28
0 Par ch=5 c=91 v=100
0 Par ch=5 c=10 v=55
720 Par ch=5 c=64 v=0
1200 On ch=5 n=d5 v=43
1440 On ch=5 n=d5 v=0
1440 On ch=5 n=c5 v=44
1680 On ch=5 n=c5 v=0
1680 On ch=5 n=a#4 v=46
1920 On ch=5 n=a#4 v=0
1920 On ch=5 n=a4 v=50
2160 On ch=5 n=a4 v=0
2160 On ch=5 n=f#4 v=47
2400 On ch=5 n=f#4 v=0
2400 On ch=5 n=g4 v=45
2640 On ch=5 n=g4 v=0
2640 On ch=5 n=a4 v=42
2880 On ch=5 n=a4 v=0
2880 On ch=5 n=a#4 v=42
3120 On ch=5 n=a#4 v=0
3120 On ch=5 n=d5 v=45
3360 On ch=5 n=d5 v=0
3360 On ch=5 n=c5 v=48
3600 On ch=5 n=c5 v=0
3600 On ch=5 n=a#4 v=50
3840 On ch=5 n=a#4 v=0
5520 On ch=5 n=d5 v=43
5760 On ch=5 n=d5 v=0
5760 On ch=5 n=d5 v=42
6240 On ch=5 n=d5 v=0
6480 On ch=5 n=d5 v=39
6720 On ch=5 n=d5 v=0
6720 On ch=5 n=d5 v=38
7200 On ch=5 n=d5 v=0
7200 On ch=5 n=c5 v=36
7680 On ch=5 n=c5 v=0
7680 On ch=5 n=a#4 v=34
8160 On ch=5 n=a#4 v=0
8160 On ch=5 n=a4 v=32
8400 On ch=5 n=a4 v=0
8880 On ch=5 n=d5 v=40
9120 On ch=5 n=d5 v=0
9120 On ch=5 n=c5 v=42
9360 On ch=5 n=c5 v=0
9360 On ch=5 n=a#4 v=44
9600 On ch=5 n=a#4 v=0
9600 On ch=5 n=a4 v=47
9840 On ch=5 n=a4 v=0
9840 On ch=5 n=f#4 v=40
10080 On ch=5 n=f#4 v=0
10080 On ch=5 n=g4 v=39
10320 On ch=5 n=g4 v=0
10320 On ch=5 n=a4 v=38
10560 On ch=5 n=a4 v=0
10560 On ch=5 n=a#4 v=38
10800 On ch=5 n=a#4 v=0
10800 On ch=5 n=d5 v=40
11040 On ch=5 n=d5 v=0
11040 On ch=5 n=c5 v=42
11280 On ch=5 n=c5 v=0
11280 On ch=5 n=a#4 v=45
11520 On ch=5 n=a#4 v=0
11760 On ch=5 n=d#4 v=47
12000 On ch=5 n=d#4 v=0
12000 On ch=5 n=g4 v=45
12240 On ch=5 n=g4 v=0
12240 On ch=5 n=a4 v=44
12480 On ch=5 n=a4 v=0
12480 On ch=5 n=a#4 v=42
12960 On ch=5 n=a#4 v=0
13200 On ch=5 n=f4 v=51
13440 On ch=5 n=f4 v=0
13440 On ch=5 n=g4 v=46
13680 On ch=5 n=c5 v=44
13685 On ch=5 n=g4 v=0
13920 On ch=5 n=c5 v=0
13920 On ch=5 n=g4 v=42
14160 On ch=5 n=g4 v=0
14160 On ch=5 n=c5 v=40
14400 On ch=5 n=c5 v=0
14400 On ch=5 n=c5 v=38
14880 On ch=5 n=c5 v=0
20880 On ch=5 n=a#4 v=44
21096 On ch=5 n=a#4 v=0
21360 On ch=5 n=a#4 v=45
21576 On ch=5 n=a#4 v=0
21840 On ch=5 n=a#4 v=45
22056 On ch=5 n=a#4 v=0
22320 On ch=5 n=a#4 v=44
22536 On ch=5 n=a#4 v=0
22800 On ch=5 n=a4 v=42
23016 On ch=5 n=a4 v=0
23040 On ch=5 n=d5 v=40
23520 On ch=5 n=d5 v=0
24720 On ch=5 n=a#4 v=44
24936 On ch=5 n=a#4 v=0
25200 On ch=5 n=a#4 v=47
25416 On ch=5 n=a#4 v=0
25680 On ch=5 n=a#4 v=49
25896 On ch=5 n=a#4 v=0
26160 On ch=5 n=a#4 v=51
26376 On ch=5 n=a#4 v=0
26640 On ch=5 n=g4 v=49
26856 On ch=5 n=g4 v=0
27120 On ch=5 n=a#4 v=48
27336 On ch=5 n=a#4 v=0
27600 On ch=5 n=a4 v=47
27816 On ch=5 n=a4 v=0
27840 On ch=5 n=d5 v=46
27960 On ch=5 n=f5 v=46
28080 On ch=5 n=f5 v=0
28080 On ch=5 n=e5 v=45
28200 On ch=5 n=e5 v=0
28200 On ch=5 n=f5 v=45
28296 On ch=5 n=d5 v=0
28320 On ch=5 n=f5 v=0
28320 On ch=5 n=g5 v=45
28440 On ch=5 n=g5 v=0
28440 On ch=5 n=f5 v=44
28560 On ch=5 n=f5 v=0
28560 On ch=5 n=d#5 v=44
28680 On ch=5 n=d#5 v=0
28680 On ch=5 n=d5 v=44
28800 On ch=5 n=d5 v=0
29040 On ch=5 n=d#5 v=43
29256 On ch=5 n=d#5 v=0
29280 On ch=5 n=c5 v=42
29520 On ch=5 n=d#5 v=41
29720 On ch=5 n=c5 v=0
29736 On ch=5 n=d#5 v=0
29760 On ch=5 n=d5 v=41
29880 On ch=5 n=f5 v=40
30000 On ch=5 n=f5 v=0
30000 On ch=5 n=e5 v=40
30120 On ch=5 n=e5 v=0
30120 On ch=5 n=f5 v=40
30216 On ch=5 n=d5 v=0
30240 On ch=5 n=f5 v=0
30240 On ch=5 n=g5 v=39
30360 On ch=5 n=g5 v=0
30360 On ch=5 n=f5 v=39
30480 On ch=5 n=f5 v=0
30480 On ch=5 n=d#5 v=39
30600 On ch=5 n=d#5 v=0
30600 On ch=5 n=d5 v=38
30720 On ch=5 n=d5 v=0
30960 On ch=5 n=d#5 v=37
31160 On ch=5 n=d#5 v=0
31200 On ch=5 n=c5 v=37
31440 On ch=5 n=d#5 v=36
31640 On ch=5 n=d#5 v=0
31656 On ch=5 n=c5 v=0
31680 On ch=5 n=d#5 v=35
32160 On ch=5 n=d#5 v=0
32400 Par ch=5 c=64 v=0
32880 On ch=5 n=d5 v=43
33120 On ch=5 n=d5 v=0
33120 On ch=5 n=c5 v=44
33360 On ch=5 n=c5 v=0
33360 On ch=5 n=a#4 v=46
33600 On ch=5 n=a#4 v=0
33600 On ch=5 n=a4 v=50
33840 On ch=5 n=a4 v=0
33840 On ch=5 n=f#4 v=47
34080 On ch=5 n=f#4 v=0
34080 On ch=5 n=g4 v=45
34320 On ch=5 n=g4 v=0
34320 On ch=5 n=a4 v=42
34560 On ch=5 n=a4 v=0
34560 On ch=5 n=a#4 v=42
34800 On ch=5 n=a#4 v=0
34800 On ch=5 n=d5 v=45
35040 On ch=5 n=d5 v=0
35040 On ch=5 n=c5 v=48
35280 On ch=5 n=c5 v=0
35280 On ch=5 n=a#4 v=50
35520 On ch=5 n=a#4 v=0
37200 On ch=5 n=d5 v=43
37440 On ch=5 n=d5 v=0
37440 On ch=5 n=d5 v=42
37920 On ch=5 n=d5 v=0
38160 On ch=5 n=d5 v=39
38400 On ch=5 n=d5 v=0
38400 On ch=5 n=d5 v=38
38880 On ch=5 n=d5 v=0
38880 On ch=5 n=c5 v=36
39360 On ch=5 n=c5 v=0
39360 On ch=5 n=a#4 v=34
39840 On ch=5 n=a#4 v=0
39840 On ch=5 n=a4 v=32
40080 On ch=5 n=a4 v=0
40560 On ch=5 n=d5 v=40
40800 On ch=5 n=d5 v=0
40800 On ch=5 n=c5 v=42
41040 On ch=5 n=c5 v=0
41040 On ch=5 n=a#4 v=44
41280 On ch=5 n=a#4 v=0
41280 On ch=5 n=a4 v=47
41520 On ch=5 n=a4 v=0
41520 On ch=5 n=f#4 v=40
41760 On ch=5 n=f#4 v=0
41760 On ch=5 n=g4 v=39
42000 On ch=5 n=g4 v=0
42000 On ch=5 n=a4 v=38
42240 On ch=5 n=a4 v=0
42240 On ch=5 n=a#4 v=38
42480 On ch=5 n=a#4 v=0
42480 On ch=5 n=d5 v=40
42720 On ch=5 n=d5 v=0
42720 On ch=5 n=c5 v=42
42960 On ch=5 n=c5 v=0
42960 On ch=5 n=a#4 v=45
43200 On ch=5 n=a#4 v=0
43440 On ch=5 n=d#4 v=47
43680 On ch=5 n=d#4 v=0
43680 On ch=5 n=g4 v=45
43920 On ch=5 n=g4 v=0
43920 On ch=5 n=a4 v=44
44160 On ch=5 n=a4 v=0
44160 On ch=5 n=a#4 v=42
44640 On ch=5 n=a#4 v=0
44880 On ch=5 n=f4 v=51
45120 On ch=5 n=f4 v=0
45120 On ch=5 n=g4 v=46
45360 On ch=5 n=c5 v=44
45365 On ch=5 n=g4 v=0
45600 On ch=5 n=c5 v=0
45600 On ch=5 n=g4 v=42
45840 On ch=5 n=g4 v=0
45840 On ch=5 n=c5 v=40
46080 On ch=5 n=c5 v=0
46080 On ch=5 n=c5 v=38
46560 On ch=5 n=c5 v=0
52560 On ch=5 n=a#4 v=44
52776 On ch=5 n=a#4 v=0
53040 On ch=5 n=a#4 v=45
53256 On ch=5 n=a#4 v=0
53520 On ch=5 n=a#4 v=45
53736 On ch=5 n=a#4 v=0
54000 On ch=5 n=a#4 v=44
54216 On ch=5 n=a#4 v=0
54480 On ch=5 n=a4 v=42
54696 On ch=5 n=a4 v=0
54720 On ch=5 n=d5 v=40
55200 On ch=5 n=d5 v=0
56400 On ch=5 n=a#4 v=44
56616 On ch=5 n=a#4 v=0
56880 On ch=5 n=a#4 v=47
57096 On ch=5 n=a#4 v=0
57360 On ch=5 n=a#4 v=49
57576 On ch=5 n=a#4 v=0
57840 On ch=5 n=a#4 v=51
58056 On ch=5 n=a#4 v=0
58320 On ch=5 n=g4 v=49
58536 On ch=5 n=g4 v=0
58800 On ch=5 n=a#4 v=48
59016 On ch=5 n=a#4 v=0
59280 On ch=5 n=a4 v=47
59496 On ch=5 n=a4 v=0
59520 On ch=5 n=d5 v=46
59640 On ch=5 n=f5 v=46
59760 On ch=5 n=f5 v=0
59760 On ch=5 n=e5 v=45
59880 On ch=5 n=e5 v=0
59880 On ch=5 n=f5 v=45
59976 On ch=5 n=d5 v=0
60000 On ch=5 n=f5 v=0
60000 On ch=5 n=g5 v=45
60120 On ch=5 n=g5 v=0
60120 On ch=5 n=f5 v=44
60240 On ch=5 n=f5 v=0
60240 On ch=5 n=d#5 v=44
60360 On ch=5 n=d#5 v=0
60360 On ch=5 n=d5 v=44
60480 On ch=5 n=d5 v=0
60720 On ch=5 n=d#5 v=43
60936 On ch=5 n=d#5 v=0
60960 On ch=5 n=c5 v=42
61200 On ch=5 n=d#5 v=41
61400 On ch=5 n=c5 v=0
61416 On ch=5 n=d#5 v=0
61440 On ch=5 n=d5 v=41
61560 On ch=5 n=f5 v=40
61680 On ch=5 n=f5 v=0
61680 On ch=5 n=e5 v=40
61800 On ch=5 n=e5 v=0
61800 On ch=5 n=f5 v=40
61896 On ch=5 n=d5 v=0
61920 On ch=5 n=f5 v=0
61920 On ch=5 n=g5 v=39
62040 On ch=5 n=g5 v=0
62040 On ch=5 n=f5 v=39
62160 On ch=5 n=f5 v=0
62160 On ch=5 n=d#5 v=39
62280 On ch=5 n=d#5 v=0
62280 On ch=5 n=d5 v=38
62400 On ch=5 n=d5 v=0
62640 On ch=5 n=d#5 v=37
62840 On ch=5 n=d#5 v=0
62880 On ch=5 n=c5 v=37
63120 On ch=5 n=d#5 v=36
63320 On ch=5 n=d#5 v=0
63336 On ch=5 n=c5 v=0
63360 On ch=5 n=d#5 v=35
63840 On ch=5 n=d#5 v=0
64080 Par ch=5 c=64 v=0
66480 On ch=5 n=a#3 v=77
66720 On ch=5 n=a#3 v=0
66720 On ch=5 n=d#4 v=74
66960 On ch=5 n=d#4 v=0
66960 On ch=5 n=g4 v=70
67200 On ch=5 n=g4 v=0
67200 On ch=5 n=g#4 v=67
67440 On ch=5 n=g#4 v=0
67440 On ch=5 n=f4 v=59
67680 On ch=5 n=f4 v=0
67680 On ch=5 n=f4 v=54
67920 On ch=5 n=f4 v=0
67920 On ch=5 n=d4 v=50
68160 On ch=5 n=d4 v=0
68160 On ch=5 n=d#4 v=45
68400 On ch=5 n=d#4 v=0
68400 On ch=5 n=g5 v=42
68640 On ch=5 n=g5 v=0
68640 On ch=5 n=g5 v=40
68880 On ch=5 n=g5 v=0
69360 On ch=5 n=g#5 v=42
69600 On ch=5 n=g#5 v=0
69600 On ch=5 n=g#5 v=42
69840 On ch=5 n=g#5 v=0
70320 On ch=5 n=a#5 v=44
70560 On ch=5 n=a#5 v=0
70560 On ch=5 n=a#5 v=45
70800 On ch=5 n=a#5 v=0
70800 On ch=5 n=a#5 v=46
71040 On ch=5 n=a#5 v=0
71040 On ch=5 n=c6 v=50
71520 On ch=5 n=c6 v=0
71520 On ch=5 n=d6 v=44
72000 On ch=5 n=d6 v=0
72240 On ch=5 n=a#5 v=38
72480 On ch=5 n=a#5 v=0
72480 On ch=5 n=g5 v=39
72720 On ch=5 n=g5 v=0
73200 On ch=5 n=g#5 v=41
73440 On ch=5 n=g#5 v=0
73440 On ch=5 n=g#5 v=42
73680 On ch=5 n=g#5 v=0
74160 On ch=5 n=a#5 v=45
74400 On ch=5 n=a#5 v=0
74400 On ch=5 n=a#5 v=46
74640 On ch=5 n=a#5 v=0
74640 On ch=5 n=a#5 v=47
74880 On ch=5 n=a#5 v=0
74880 On ch=5 n=c6 v=49
75360 On ch=5 n=c6 v=0
75360 On ch=5 n=g#5 v=47
75360 On ch=5 n=f5 v=47
75840 On ch=5 n=f5 v=0
75840 On ch=5 n=g#5 v=0
75840 On ch=5 n=g5 v=40
76324 On ch=5 n=g5 v=0
80880 On ch=5 n=a4 v=63
81104 On ch=5 n=a4 v=0
81120 On ch=5 n=c5 v=60
81344 On ch=5 n=c5 v=0
81360 On ch=5 n=a4 v=58
81584 On ch=5 n=a4 v=0
82320 On ch=5 n=a4 v=48
82544 On ch=5 n=a4 v=0
82800 On ch=5 n=a#4 v=43
83024 On ch=5 n=a#4 v=0
83280 On ch=5 n=g4 v=39
83504 On ch=5 n=g4 v=0
83760 On ch=5 n=f#4 v=39
83984 On ch=5 n=f#4 v=0
84000 On ch=5 n=a4 v=40
84224 On ch=5 n=a4 v=0
84240 On ch=5 n=f#4 v=40
84464 On ch=5 n=f#4 v=0
84720 On ch=5 n=g4 v=42
84944 On ch=5 n=g4 v=0
84960 On ch=5 n=a#4 v=43
85184 On ch=5 n=a#4 v=0
85200 On ch=5 n=g4 v=44
85424 On ch=5 n=g4 v=0
85680 On ch=5 n=f#4 v=46
85904 On ch=5 n=f#4 v=0
85920 On ch=5 n=a4 v=46
86144 On ch=5 n=a4 v=0
86160 On ch=5 n=f#4 v=47
86384 On ch=5 n=f#4 v=0
86640 On ch=5 n=g4 v=49
86864 On ch=5 n=g4 v=0
86880 On ch=5 n=a#4 v=50
87104 On ch=5 n=a#4 v=0
87120 On ch=5 n=g4 v=51
87344 On ch=5 n=g4 v=0
87600 On ch=5 n=f#4 v=52
87824 On ch=5 n=f#4 v=0
88080 On ch=5 n=g#4 v=57
88304 On ch=5 n=g#4 v=0
88560 On ch=5 n=g#4 v=61
88784 On ch=5 n=g#4 v=0
88800 On ch=5 n=a4 v=57
89024 On ch=5 n=a4 v=0
89040 On ch=5 n=g4 v=58
89264 On ch=5 n=g4 v=0
89520 On ch=5 n=f#4 v=61
89744 On ch=5 n=f#4 v=0
90000 On ch=5 n=g#4 v=67
90224 On ch=5 n=g#4 v=0
90480 On ch=5 n=g#4 v=68
90704 On ch=5 n=g#4 v=0
90720 On ch=5 n=a4 v=64
90944 On ch=5 n=a4 v=0
90960 On ch=5 n=g4 v=65
91184 On ch=5 n=g4 v=0
91440 On ch=5 n=f#4 v=66
91664 On ch=5 n=f#4 v=0
91920 On ch=5 n=g#4 v=68
92144 On ch=5 n=g#4 v=0
94320 On ch=5 n=d5 v=43
94560 On ch=5 n=d5 v=0
94560 On ch=5 n=c5 v=44
94800 On ch=5 n=c5 v=0
94800 On ch=5 n=a#4 v=46
95040 On ch=5 n=a#4 v=0
95040 On ch=5 n=a4 v=49
95280 On ch=5 n=a4 v=0
95280 On ch=5 n=f#4 v=46
95520 On ch=5 n=f#4 v=0
95520 On ch=5 n=g4 v=45
95760 On ch=5 n=g4 v=0
95760 On ch=5 n=a4 v=44
96000 On ch=5 n=a4 v=0
96000 On ch=5 n=a#4 v=42
96240 On ch=5 n=a#4 v=0
96240 On ch=5 n=d5 v=45
96480 On ch=5 n=d5 v=0
96480 On ch=5 n=c5 v=48
96720 On ch=5 n=c5 v=0
96720 On ch=5 n=a#4 v=50
96960 On ch=5 n=a#4 v=0
98640 On ch=5 n=d5 v=43
98880 On ch=5 n=d5 v=0
98880 On ch=5 n=d5 v=42
99360 On ch=5 n=d5 v=0
99600 On ch=5 n=d5 v=39
99840 On ch=5 n=d5 v=0
99840 On ch=5 n=d5 v=38
100320 On ch=5 n=d5 v=0
100320 On ch=5 n=c5 v=36
100800 On ch=5 n=c5 v=0
100800 On ch=5 n=a#4 v=34
101280 On ch=5 n=a#4 v=0
101280 On ch=5 n=a4 v=32
101520 On ch=5 n=a4 v=0
102720 On ch=5 n=d5 v=58
103680 On ch=5 n=d5 v=0
104640 On ch=5 n=f5 v=60
105600 On ch=5 n=f5 v=0
105600 On ch=5 n=a#5 v=54
105756 On ch=5 n=a#5 v=0
114960 On ch=5 n=g4 v=46
115192 On ch=5 n=g4 v=0
115440 On ch=5 n=g4 v=48
115672 On ch=5 n=g4 v=0
115920 On ch=5 n=d#4 v=50
116136 On ch=5 n=d#4 v=0
116400 On ch=5 n=d4 v=52
116616 On ch=5 n=d4 v=0
116880 On ch=5 n=d#4 v=50
117096 On ch=5 n=d#4 v=0
117360 On ch=5 n=g4 v=48
117576 On ch=5 n=g4 v=0
117840 On ch=5 n=f#4 v=47
118056 On ch=5 n=f#4 v=0
118320 On ch=5 n=a#4 v=45
118552 On ch=5 n=a#4 v=0
118800 On ch=5 n=g4 v=45
119000 On ch=5 n=g4 v=0
119280 On ch=5 n=g4 v=48
119480 On ch=5 n=g4 v=0
119760 On ch=5 n=d#4 v=51
119976 On ch=5 n=d#4 v=0
120240 On ch=5 n=e4 v=53
120456 On ch=5 n=e4 v=0
120480 On ch=5 n=g4 v=55
120712 On ch=5 n=g4 v=0
120720 On ch=5 n=e4 v=56
120936 On ch=5 n=e4 v=0
121200 On ch=5 n=e4 v=58
121416 On ch=5 n=e4 v=0
121440 On ch=5 n=g4 v=58
121656 On ch=5 n=g4 v=0
122160 On ch=5 n=g4 v=58
122376 On ch=5 n=g4 v=0
122400 On ch=5 n=a#4 v=57
122616 On ch=5 n=a#4 v=0
122640 On ch=5 n=g4 v=57
122856 On ch=5 n=g4 v=0
123120 On ch=5 n=a4 v=55
123336 On ch=5 n=a4 v=0
123360 On ch=5 n=c5 v=54
123576 On ch=5 n=c5 v=0
123600 On ch=5 n=a4 v=53
123816 On ch=5 n=a4 v=0
124080 On ch=5 n=g4 v=51
124296 On ch=5 n=g4 v=0
124320 On ch=5 n=a#4 v=50
124536 On ch=5 n=a#4 v=0
124560 On ch=5 n=g4 v=49
124776 On ch=5 n=g4 v=0
125040 On ch=5 n=a4 v=47
125256 On ch=5 n=a4 v=0
125280 On ch=5 n=c5 v=46
125496 On ch=5 n=c5 v=0
125520 On ch=5 n=a4 v=45
125736 On ch=5 n=a4 v=0
139200 Par ch=5 c=64 v=0
140640 Par ch=5 c=64 v=0
141600 On ch=5 n=d5 v=41
141756 On ch=5 n=d5 v=0
141840 On ch=5 n=c5 v=42
141996 On ch=5 n=c5 v=0
142080 On ch=5 n=b4 v=44
142560 On ch=5 n=b4 v=0
143040 On ch=5 n=c5 v=47
143196 On ch=5 n=c5 v=0
143280 On ch=5 n=b4 v=50
143436 On ch=5 n=b4 v=0
143520 On ch=5 n=c5 v=52
144000 On ch=5 n=c5 v=0
144480 On ch=5 n=a4 v=57
144636 On ch=5 n=a4 v=0
144720 On ch=5 n=b4 v=58
144876 On ch=5 n=b4 v=0
144960 On ch=5 n=c5 v=59
145116 On ch=5 n=c5 v=0
145200 On ch=5 n=d5 v=61
145356 On ch=5 n=d5 v=0
145440 On ch=5 n=e5 v=62
145596 On ch=5 n=e5 v=0
145680 On ch=5 n=e5 v=71
146400 On ch=5 n=e5 v=0
147360 On ch=5 n=d5 v=47
147516 On ch=5 n=d5 v=0
147600 On ch=5 n=c5 v=49
147756 On ch=5 n=c5 v=0
147840 On ch=5 n=b4 v=52
148320 On ch=5 n=b4 v=0
148800 On ch=5 n=e5 v=55
148956 On ch=5 n=e5 v=0
149040 On ch=5 n=d5 v=58
149196 On ch=5 n=d5 v=0
149280 On ch=5 n=c5 v=61
149760 On ch=5 n=c5 v=0
150240 On ch=5 n=a4 v=57
150396 On ch=5 n=a4 v=0
150480 On ch=5 n=b4 v=56
150636 On ch=5 n=b4 v=0
150720 On ch=5 n=c5 v=54
150876 On ch=5 n=c5 v=0
150960 On ch=5 n=d5 v=53
151116 On ch=5 n=d5 v=0
151200 On ch=5 n=e5 v=52
151356 On ch=5 n=e5 v=0
151440 On ch=5 n=b4 v=50
151920 On ch=5 n=b4 v=0
151920 On ch=5 n=a4 v=48
152160 On ch=5 n=a4 v=0
152160 On ch=5 n=g4 v=46
152520 On ch=5 n=g4 v=0
153840 On ch=5 n=d5 v=44
153996 On ch=5 n=d5 v=0
154080 On ch=5 n=d5 v=45
154236 On ch=5 n=d5 v=0
154560 On ch=5 n=d5 v=46
154716 On ch=5 n=d5 v=0
154800 On ch=5 n=d5 v=47
154956 On ch=5 n=d5 v=0
155280 On ch=5 n=d5 v=49
155436 On ch=5 n=d5 v=0
155520 On ch=5 n=d5 v=50
155676 On ch=5 n=d5 v=0
156000 On ch=5 n=d5 v=51
156156 On ch=5 n=d5 v=0
156240 On ch=5 n=d5 v=52
156396 On ch=5 n=d5 v=0
156720 On ch=5 n=d5 v=58
156876 On ch=5 n=d5 v=0
156960 On ch=5 n=d5 v=61
157116 On ch=5 n=d5 v=0
157440 On ch=5 n=d5 v=70
157596 On ch=5 n=d5 v=0
157680 On ch=5 n=d5 v=77
157836 On ch=5 n=d5 v=0
157920 On ch=5 n=d5 v=87
158340 On ch=5 n=d5 v=0
158880 On ch=5 n=d6 v=44
159036 On ch=5 n=d6 v=0
159120 On ch=5 n=c6 v=46
159276 On ch=5 n=c6 v=0
159360 On ch=5 n=b5 v=47
159840 On ch=5 n=b5 v=0
160320 On ch=5 n=e6 v=53
160476 On ch=5 n=e6 v=0
160560 On ch=5 n=d6 v=55
160716 On ch=5 n=d6 v=0
160800 On ch=5 n=c6 v=56
161280 On ch=5 n=c6 v=0
161760 On ch=5 n=a5 v=62
161916 On ch=5 n=a5 v=0
162000 On ch=5 n=b5 v=60
162156 On ch=5 n=b5 v=0
162240 On ch=5 n=c6 v=57
162396 On ch=5 n=c6 v=0
162480 On ch=5 n=d6 v=55
162636 On ch=5 n=d6 v=0
162720 On ch=5 n=e6 v=53
162876 On ch=5 n=e6 v=0
162960 On ch=5 n=b5 v=51
163440 On ch=5 n=b5 v=0
163440 On ch=5 n=a5 v=46
163680 On ch=5 n=a5 v=0
163680 On ch=5 n=g5 v=44
164040 On ch=5 n=g5 v=0
211200 On ch=5 n=f5 v=57
211920 On ch=5 n=f5 v=0
211920 On ch=5 n=f5 v=59
212640 On ch=5 n=f5 v=0
212640 On ch=5 n=g5 v=62
213360 On ch=5 n=g5 v=0
214080 On ch=5 n=g5 v=53
214800 On ch=5 n=g5 v=0
214800 On ch=5 n=f#5 v=56
215520 On ch=5 n=f#5 v=0
215520 On ch=5 n=f5 v=58
216240 On ch=5 n=f5 v=0
232800 Par ch=5 c=64 v=0
247200 Par ch=5 c=64 v=0
256320 Par ch=5 c=64 v=0
256800 On ch=5 n=d5 v=41
256956 On ch=5 n=d5 v=0
257040 On ch=5 n=c5 v=42
257196 On ch=5 n=c5 v=0
257280 On ch=5 n=b4 v=44
257760 On ch=5 n=b4 v=0
258240 On ch=5 n=c5 v=47
258396 On ch=5 n=c5 v=0
258480 On ch=5 n=b4 v=50
258636 On ch=5 n=b4 v=0
258720 On ch=5 n=c5 v=52
259200 On ch=5 n=c5 v=0
259680 On ch=5 n=a4 v=57
259836 On ch=5 n=a4 v=0
259920 On ch=5 n=b4 v=58
260076 On ch=5 n=b4 v=0
260160 On ch=5 n=c5 v=59
260316 On ch=5 n=c5 v=0
260400 On ch=5 n=d5 v=61
260556 On ch=5 n=d5 v=0
260640 On ch=5 n=e5 v=62
260796 On ch=5 n=e5 v=0
260880 On ch=5 n=e5 v=71
261600 On ch=5 n=e5 v=0
262560 On ch=5 n=d5 v=47
262716 On ch=5 n=d5 v=0
262800 On ch=5 n=c5 v=49
262956 On ch=5 n=c5 v=0
263040 On ch=5 n=b4 v=52
263520 On ch=5 n=b4 v=0
264000 On ch=5 n=e5 v=55
264156 On ch=5 n=e5 v=0
264240 On ch=5 n=d5 v=58
264396 On ch=5 n=d5 v=0
264480 On ch=5 n=c5 v=61
264960 On ch=5 n=c5 v=0
265440 On ch=5 n=a4 v=57
265596 On ch=5 n=a4 v=0
265680 On ch=5 n=b4 v=56
265836 On ch=5 n=b4 v=0
265920 On ch=5 n=c5 v=54
266076 On ch=5 n=c5 v=0
266160 On ch=5 n=d5 v=53
266316 On ch=5 n=d5 v=0
266400 On ch=5 n=e5 v=52
266556 On ch=5 n=e5 v=0
266640 On ch=5 n=b4 v=50
267120 On ch=5 n=b4 v=0
267120 On ch=5 n=a4 v=48
267360 On ch=5 n=a4 v=0
267360 On ch=5 n=g4 v=46
267720 On ch=5 n=g4 v=0
269040 On ch=5 n=d5 v=44
269196 On ch=5 n=d5 v=0
269280 On ch=5 n=d5 v=45
269436 On ch=5 n=d5 v=0
269760 On ch=5 n=d5 v=46
269916 On ch=5 n=d5 v=0
270000 On ch=5 n=d5 v=47
270156 On ch=5 n=d5 v=0
270480 On ch=5 n=d5 v=49
270636 On ch=5 n=d5 v=0
270720 On ch=5 n=d5 v=50
270876 On ch=5 n=d5 v=0
271200 On ch=5 n=d5 v=51
271356 On ch=5 n=d5 v=0
271440 On ch=5 n=d5 v=52
271596 On ch=5 n=d5 v=0
271920 On ch=5 n=d5 v=58
272076 On ch=5 n=d5 v=0
272160 On ch=5 n=d5 v=61
272316 On ch=5 n=d5 v=0
272640 On ch=5 n=d5 v=68
272796 On ch=5 n=d5 v=0
272880 On ch=5 n=d5 v=75
273036 On ch=5 n=d5 v=0
273120 On ch=5 n=d5 v=82
273540 On ch=5 n=d5 v=0
274080 On ch=5 n=d6 v=44
274236 On ch=5 n=d6 v=0
274320 On ch=5 n=c6 v=46
274476 On ch=5 n=c6 v=0
274560 On ch=5 n=b5 v=47
275040 On ch=5 n=b5 v=0
275520 On ch=5 n=e6 v=53
275676 On ch=5 n=e6 v=0
275760 On ch=5 n=d6 v=55
275916 On ch=5 n=d6 v=0
276000 On ch=5 n=c6 v=56
276480 On ch=5 n=c6 v=0
276960 On ch=5 n=a5 v=69
277116 On ch=5 n=a5 v=0
277200 On ch=5 n=b5 v=68
277356 On ch=5 n=b5 v=0
277440 On ch=5 n=c6 v=67
277596 On ch=5 n=c6 v=0
277680 On ch=5 n=d6 v=66
277836 On ch=5 n=d6 v=0
277920 On ch=5 n=e6 v=65
278076 On ch=5 n=e6 v=0
278160 On ch=5 n=b5 v=64
278640 On ch=5 n=b5 v=0
278640 On ch=5 n=a5 v=62
278880 On ch=5 n=a5 v=0
278880 On ch=5 n=g5 v=61
279240 On ch=5 n=g5 v=0
313440 On ch=5 n=d5 v=57
314160 On ch=5 n=d5 v=0
314160 On ch=5 n=d5 v=59
314880 On ch=5 n=d5 v=0
314880 Par ch=5 c=64 v=0
314880 On ch=5 n=e5 v=62
315600 On ch=5 n=e5 v=0
316320 On ch=5 n=e5 v=53
317040 On ch=5 n=e5 v=0
317040 On ch=5 n=d#5 v=56
317760 On ch=5 n=d#5 v=0
317760 On ch=5 n=d5 v=58
318480 On ch=5 n=d5 v=0
336000 On ch=5 n=d5 v=41
336156 On ch=5 n=d5 v=0
336240 On ch=5 n=c5 v=42
336396 On ch=5 n=c5 v=0
336480 On ch=5 n=b4 v=44
336960 On ch=5 n=b4 v=0
337440 On ch=5 n=c5 v=47
337596 On ch=5 n=c5 v=0
337680 On ch=5 n=b4 v=50
337836 On ch=5 n=b4 v=0
337920 On ch=5 n=a4 v=52
338400 On ch=5 n=a4 v=0
341760 On ch=5 n=d5 v=41
341916 On ch=5 n=d5 v=0
342000 On ch=5 n=c5 v=42
342156 On ch=5 n=c5 v=0
342240 On ch=5 n=b4 v=44
342720 On ch=5 n=b4 v=0
343200 On ch=5 n=e5 v=47
343356 On ch=5 n=e5 v=0
343440 On ch=5 n=d5 v=50
343596 On ch=5 n=d5 v=0
343680 On ch=5 n=c5 v=52
344160 On ch=5 n=c5 v=0
344640 On ch=5 n=a4 v=47
344796 On ch=5 n=a4 v=0
344880 On ch=5 n=b4 v=46
345036 On ch=5 n=b4 v=0
345120 On ch=5 n=c5 v=44
345360 On ch=5 n=c5 v=0
345360 On ch=5 n=d5 v=42
345516 On ch=5 n=d5 v=0
347520 On ch=5 n=a4 v=52
347676 On ch=5 n=a4 v=0
347760 On ch=5 n=b4 v=50
347916 On ch=5 n=b4 v=0
348000 On ch=5 n=c5 v=48
348240 On ch=5 n=c5 v=0
348240 On ch=5 n=d5 v=47
348396 On ch=5 n=d5 v=0
348396 Meta TrkEnd
TrkEnd
MTrk
0 SeqSpec 43 00 01 00
0 Meta TrkName "No Name"
0 Par ch=6 c=0 v=0
0 Par ch=6 c=32 v=0
0 PrCh ch=6 p=0
0 Par ch=6 c=10 v=55
0 Par ch=6 c=91 v=100
0 Par ch=6 c=93 v=28
0 Par ch=6 c=64 v=0
0 Par ch=6 c=1 v=0
0 Pb ch=6 v=8192
0 Par ch=6 c=7 v=125
720 Par ch=6 c=64 v=0
1200 On ch=6 n=a#4 v=43
1440 On ch=6 n=a#4 v=0
1440 On ch=6 n=a4 v=44
1680 On ch=6 n=a4 v=0
1680 On ch=6 n=g4 v=46
1920 On ch=6 n=g4 v=0
1920 On ch=6 n=f#4 v=50
2160 On ch=6 n=f#4 v=0
2160 On ch=6 n=d4 v=47
2400 On ch=6 n=d4 v=0
2400 On ch=6 n=e4 v=45
2640 On ch=6 n=e4 v=0
2640 On ch=6 n=f#4 v=42
2880 On ch=6 n=f#4 v=0
2880 On ch=6 n=g4 v=42
3120 On ch=6 n=g4 v=0
3120 On ch=6 n=a#4 v=45
3360 On ch=6 n=a#4 v=0
3360 On ch=6 n=a4 v=48
3600 On ch=6 n=a4 v=0
3600 On ch=6 n=g4 v=50
3840 On ch=6 n=g4 v=0
3840 On ch=6 n=c4 v=57
4080 On ch=6 n=d#4 v=50
4320 On ch=6 n=d#4 v=0
4320 On ch=6 n=g4 v=48
4560 On ch=6 n=g4 v=0
4560 On ch=6 n=c5 v=46
4800 On ch=6 n=c5 v=0
4800 On ch=6 n=c4 v=0
4800 On ch=6 n=a#4 v=44
5280 On ch=6 n=a#4 v=0
5520 On ch=6 n=a#4 v=43
5760 On ch=6 n=a#4 v=0
5760 On ch=6 n=f#4 v=42
6240 On ch=6 n=f#4 v=0
6480 On ch=6 n=f#4 v=39
6720 On ch=6 n=f#4 v=0
6720 On ch=6 n=g4 v=38
7200 On ch=6 n=g4 v=0
7200 On ch=6 n=c4 v=36
7680 On ch=6 n=c4 v=0
7680 On ch=6 n=d4 v=34
8400 On ch=6 n=d4 v=0
8880 On ch=6 n=a#4 v=40
9120 On ch=6 n=a#4 v=0
9120 On ch=6 n=a4 v=42
9360 On ch=6 n=a4 v=0
9360 On ch=6 n=g4 v=44
9600 On ch=6 n=g4 v=0
9600 On ch=6 n=f#4 v=47
9840 On ch=6 n=f#4 v=0
9840 On ch=6 n=d4 v=40
10080 On ch=6 n=d4 v=0
10080 On ch=6 n=e4 v=39
10320 On ch=6 n=e4 v=0
10320 On ch=6 n=f#4 v=38
10560 On ch=6 n=f#4 v=0
10560 On ch=6 n=g4 v=38
10800 On ch=6 n=g4 v=0
10800 On ch=6 n=a#4 v=40
11040 On ch=6 n=a#4 v=0
11040 On ch=6 n=a4 v=42
11280 On ch=6 n=a4 v=0
11280 On ch=6 n=g4 v=45
11520 On ch=6 n=g4 v=0
11520 On ch=6 n=c4 v=54
12240 On ch=6 n=c4 v=0
12240 On ch=6 n=c4 v=44
12480 On ch=6 n=c4 v=0
12480 On ch=6 n=d4 v=42
12960 On ch=6 n=d4 v=0
13200 On ch=6 n=d4 v=51
13440 On ch=6 n=d4 v=0
13440 On ch=6 n=d#4 v=46
13920 On ch=6 n=d#4 v=0
13920 On ch=6 n=e4 v=42
14400 On ch=6 n=e4 v=0
14400 On ch=6 n=f4 v=38
14880 On ch=6 n=f4 v=0
15360 On ch=6 n=a4 v=38
15576 On ch=6 n=a4 v=0
15600 On ch=6 n=c5 v=38
15816 On ch=6 n=c5 v=0
15840 On ch=6 n=d#5 v=38
16056 On ch=6 n=d#5 v=0
16080 On ch=6 n=c5 v=38
16296 On ch=6 n=c5 v=0
16320 On ch=6 n=d5 v=39
16536 On ch=6 n=d5 v=0
16560 On ch=6 n=a#4 v=39
16776 On ch=6 n=a#4 v=0
16800 On ch=6 n=d5 v=39
17016 On ch=6 n=d5 v=0
17040 On ch=6 n=a#4 v=40
17256 On ch=6 n=a#4 v=0
17280 On ch=6 n=a4 v=40
17496 On ch=6 n=a4 v=0
17520 On ch=6 n=c5 v=40
17736 On ch=6 n=c5 v=0
17760 On ch=6 n=d#5 v=40
17976 On ch=6 n=d#5 v=0
18000 On ch=6 n=c5 v=41
18216 On ch=6 n=c5 v=0
18240 On ch=6 n=d5 v=41
18456 On ch=6 n=d5 v=0
18480 On ch=6 n=a#4 v=41
18696 On ch=6 n=a#4 v=0
18720 On ch=6 n=d5 v=42
18936 On ch=6 n=d5 v=0
18960 On ch=6 n=a#4 v=42
19176 On ch=6 n=a#4 v=0
19200 On ch=6 n=a4 v=42
19416 On ch=6 n=a4 v=0
19440 On ch=6 n=c5 v=42
19656 On ch=6 n=c5 v=0
19680 On ch=6 n=d#5 v=43
19896 On ch=6 n=d#5 v=0
19920 On ch=6 n=c5 v=43
20136 On ch=6 n=c5 v=0
20160 On ch=6 n=d5 v=43
20376 On ch=6 n=d5 v=0
20400 On ch=6 n=a#4 v=44
20616 On ch=6 n=a#4 v=0
20640 On ch=6 n=g#4 v=44
21096 On ch=6 n=g#4 v=0
21120 On ch=6 n=g4 v=44
21576 On ch=6 n=g4 v=0
21600 On ch=6 n=d#4 v=45
22056 On ch=6 n=d#4 v=0
22080 On ch=6 n=f4 v=45
22536 On ch=6 n=f4 v=0
22560 On ch=6 n=f4 v=43
23016 On ch=6 n=f4 v=0
23040 On ch=6 n=a#4 v=40
23520 On ch=6 n=a#4 v=0
24000 On ch=6 n=d5 v=40
24216 On ch=6 n=d5 v=0
24240 On ch=6 n=a#4 v=41
24456 On ch=6 n=a#4 v=0
24480 On ch=6 n=g#4 v=43
24952 On ch=6 n=g#4 v=0
24960 On ch=6 n=g4 v=45
25416 On ch=6 n=g4 v=0
25440 On ch=6 n=d#4 v=48
25896 On ch=6 n=d#4 v=0
25920 On ch=6 n=d4 v=51
26376 On ch=6 n=d4 v=0
26400 On ch=6 n=d#4 v=50
26856 On ch=6 n=d#4 v=0
26880 On ch=6 n=f4 v=49
27336 On ch=6 n=f4 v=0
27360 On ch=6 n=f4 v=47
27816 On ch=6 n=f4 v=0
27840 On ch=6 n=a#4 v=46
28296 On ch=6 n=a#4 v=0
28800 On ch=6 n=c5 v=43
29240 On ch=6 n=c5 v=0
29280 On ch=6 n=f4 v=42
29720 On ch=6 n=f4 v=0
29760 On ch=6 n=a#4 v=41
30216 On ch=6 n=a#4 v=0
30720 On ch=6 n=c5 v=38
31176 On ch=6 n=c5 v=0
31200 On ch=6 n=f4 v=37
31656 On ch=6 n=f4 v=0
31680 On ch=6 n=a#4 v=35
32160 On ch=6 n=d5 v=34
32352 On ch=6 n=d5 v=0
32362 On ch=6 n=a#4 v=0
32400 Par ch=6 c=64 v=0
32880 On ch=6 n=a#4 v=43
33120 On ch=6 n=a#4 v=0
33120 On ch=6 n=a4 v=44
33360 On ch=6 n=a4 v=0
33360 On ch=6 n=g4 v=46
33600 On ch=6 n=g4 v=0
33600 On ch=6 n=f#4 v=50
33840 On ch=6 n=f#4 v=0
33840 On ch=6 n=d4 v=47
34080 On ch=6 n=d4 v=0
34080 On ch=6 n=e4 v=45
34320 On ch=6 n=e4 v=0
34320 On ch=6 n=f#4 v=42
34560 On ch=6 n=f#4 v=0
34560 On ch=6 n=g4 v=42
34800 On ch=6 n=g4 v=0
34800 On ch=6 n=a#4 v=45
35040 On ch=6 n=a#4 v=0
35040 On ch=6 n=a4 v=48
35280 On ch=6 n=a4 v=0
35280 On ch=6 n=g4 v=50
35520 On ch=6 n=g4 v=0
35520 On ch=6 n=c4 v=57
35760 On ch=6 n=d#4 v=50
36000 On ch=6 n=d#4 v=0
36000 On ch=6 n=g4 v=48
36240 On ch=6 n=g4 v=0
36240 On ch=6 n=c5 v=46
36480 On ch=6 n=c5 v=0
36480 On ch=6 n=c4 v=0
36480 On ch=6 n=a#4 v=44
36960 On ch=6 n=a#4 v=0
37200 On ch=6 n=a#4 v=43
37440 On ch=6 n=a#4 v=0
37440 On ch=6 n=f#4 v=42
37920 On ch=6 n=f#4 v=0
38160 On ch=6 n=f#4 v=39
38400 On ch=6 n=f#4 v=0
38400 On ch=6 n=g4 v=38
38880 On ch=6 n=g4 v=0
38880 On ch=6 n=c4 v=36
39360 On ch=6 n=c4 v=0
39360 On ch=6 n=d4 v=34
40080 On ch=6 n=d4 v=0
40560 On ch=6 n=a#4 v=40
40800 On ch=6 n=a#4 v=0
40800 On ch=6 n=a4 v=42
41040 On ch=6 n=a4 v=0
41040 On ch=6 n=g4 v=44
41280 On ch=6 n=g4 v=0
41280 On ch=6 n=f#4 v=47
41520 On ch=6 n=f#4 v=0
41520 On ch=6 n=d4 v=40
41760 On ch=6 n=d4 v=0
41760 On ch=6 n=e4 v=39
42000 On ch=6 n=e4 v=0
42000 On ch=6 n=f#4 v=38
42240 On ch=6 n=f#4 v=0
42240 On ch=6 n=g4 v=38
42480 On ch=6 n=g4 v=0
42480 On ch=6 n=a#4 v=40
42720 On ch=6 n=a#4 v=0
42720 On ch=6 n=a4 v=42
42960 On ch=6 n=a4 v=0
42960 On ch=6 n=g4 v=45
43200 On ch=6 n=g4 v=0
43200 On ch=6 n=c4 v=54
43920 On ch=6 n=c4 v=0
43920 On ch=6 n=c4 v=44
44160 On ch=6 n=c4 v=0
44160 On ch=6 n=d4 v=42
44640 On ch=6 n=d4 v=0
44880 On ch=6 n=d4 v=51
45120 On ch=6 n=d4 v=0
45120 On ch=6 n=d#4 v=46
45600 On ch=6 n=d#4 v=0
45600 On ch=6 n=e4 v=42
46080 On ch=6 n=e4 v=0
46080 On ch=6 n=f4 v=38
46560 On ch=6 n=f4 v=0
47040 On ch=6 n=a4 v=38
47256 On ch=6 n=a4 v=0
47280 On ch=6 n=c5 v=38
47496 On ch=6 n=c5 v=0
47520 On ch=6 n=d#5 v=38
47736 On ch=6 n=d#5 v=0
47760 On ch=6 n=c5 v=38
47976 On ch=6 n=c5 v=0
48000 On ch=6 n=d5 v=39
48216 On ch=6 n=d5 v=0
48240 On ch=6 n=a#4 v=39
48456 On ch=6 n=a#4 v=0
48480 On ch=6 n=d5 v=39
48696 On ch=6 n=d5 v=0
48720 On ch=6 n=a#4 v=40
48936 On ch=6 n=a#4 v=0
48960 On ch=6 n=a4 v=40
49176 On ch=6 n=a4 v=0
49200 On ch=6 n=c5 v=40
49416 On ch=6 n=c5 v=0
49440 On ch=6 n=d#5 v=40
49656 On ch=6 n=d#5 v=0
49680 On ch=6 n=c5 v=41
49896 On ch=6 n=c5 v=0
49920 On ch=6 n=d5 v=41
50136 On ch=6 n=d5 v=0
50160 On ch=6 n=a#4 v=41
50376 On ch=6 n=a#4 v=0
50400 On ch=6 n=d5 v=42
50616 On ch=6 n=d5 v=0
50640 On ch=6 n=a#4 v=42
50856 On ch=6 n=a#4 v=0
50880 On ch=6 n=a4 v=42
51096 On ch=6 n=a4 v=0
51120 On ch=6 n=c5 v=42
51336 On ch=6 n=c5 v=0
51360 On ch=6 n=d#5 v=43
51576 On ch=6 n=d#5 v=0
51600 On ch=6 n=c5 v=43
51816 On ch=6 n=c5 v=0
51840 On ch=6 n=d5 v=43
52056 On ch=6 n=d5 v=0
52080 On ch=6 n=a#4 v=44
52296 On ch=6 n=a#4 v=0
52320 On ch=6 n=g#4 v=44
52776 On ch=6 n=g#4 v=0
52800 On ch=6 n=g4 v=44
53256 On ch=6 n=g4 v=0
53280 On ch=6 n=d#4 v=45
53736 On ch=6 n=d#4 v=0
53760 On ch=6 n=f4 v=45
54216 On ch=6 n=f4 v=0
54240 On ch=6 n=f4 v=43
54696 On ch=6 n=f4 v=0
54720 On ch=6 n=a#4 v=40
55200 On ch=6 n=a#4 v=0
55680 On ch=6 n=d5 v=40
55896 On ch=6 n=d5 v=0
55920 On ch=6 n=a#4 v=41
56136 On ch=6 n=a#4 v=0
56160 On ch=6 n=g#4 v=43
56632 On ch=6 n=g#4 v=0
56640 On ch=6 n=g4 v=45
57096 On ch=6 n=g4 v=0
57120 On ch=6 n=d#4 v=48
57576 On ch=6 n=d#4 v=0
57600 On ch=6 n=d4 v=51
58056 On ch=6 n=d4 v=0
58080 On ch=6 n=d#4 v=50
58536 On ch=6 n=d#4 v=0
58560 On ch=6 n=f4 v=49
59016 On ch=6 n=f4 v=0
59040 On ch=6 n=f4 v=47
59496 On ch=6 n=f4 v=0
59520 On ch=6 n=a#4 v=46
59976 On ch=6 n=a#4 v=0
60480 On ch=6 n=c5 v=43
60920 On ch=6 n=c5 v=0
60960 On ch=6 n=f4 v=42
61400 On ch=6 n=f4 v=0
61440 On ch=6 n=a#4 v=41
61896 On ch=6 n=a#4 v=0
62400 On ch=6 n=c5 v=38
62856 On ch=6 n=c5 v=0
62880 On ch=6 n=f4 v=37
63336 On ch=6 n=f4 v=0
63360 On ch=6 n=a#4 v=35
63840 On ch=6 n=d5 v=34
64080 On ch=6 n=d5 v=0
64080 On ch=6 n=a#4 v=0
64080 Par ch=6 c=64 v=0
64080 On ch=6 n=a#3 v=62
64120 On ch=6 n=a#3 v=0
64120 On ch=6 n=c4 v=63
64160 On ch=6 n=c4 v=0
64160 On ch=6 n=a#3 v=65
64200 On ch=6 n=a#3 v=0
64200 On ch=6 n=a3 v=66
64260 On ch=6 n=a3 v=0
64260 On ch=6 n=a#3 v=69
64320 On ch=6 n=a#3 v=0
64320 On ch=6 n=f4 v=73
64560 On ch=6 n=f4 v=0
64560 On ch=6 n=a#3 v=71
64716 On ch=6 n=a#3 v=0
64800 On ch=6 n=a#3 v=69
64956 On ch=6 n=a#3 v=0
65040 On ch=6 n=a#3 v=66
65080 On ch=6 n=a#3 v=0
65080 On ch=6 n=c4 v=67
65120 On ch=6 n=c4 v=0
65120 On ch=6 n=a#3 v=69
65160 On ch=6 n=a#3 v=0
65160 On ch=6 n=a3 v=70
65220 On ch=6 n=a3 v=0
65220 On ch=6 n=a#3 v=72
65280 On ch=6 n=a#3 v=0
65280 On ch=6 n=f4 v=77
65520 On ch=6 n=f4 v=0
65520 On ch=6 n=g#3 v=75
65676 On ch=6 n=g#3 v=0
65760 On ch=6 n=g#3 v=73
65916 On ch=6 n=g#3 v=0
66000 On ch=6 n=g#3 v=71
66040 On ch=6 n=g#3 v=0
66040 On ch=6 n=a#3 v=72
66080 On ch=6 n=a#3 v=0
66080 On ch=6 n=g#3 v=74
66120 On ch=6 n=g#3 v=0
66120 On ch=6 n=g3 v=75
66180 On ch=6 n=g3 v=0
66180 On ch=6 n=g#3 v=77
66240 On ch=6 n=g#3 v=0
66240 On ch=6 n=g3 v=80
67169 On ch=6 n=g3 v=0
67200 On ch=6 n=g#3 v=67
67680 On ch=6 n=g#3 v=0
67680 On ch=6 n=a#3 v=54
68160 On ch=6 n=a#3 v=0
68160 On ch=6 n=d#3 v=45
68400 On ch=6 n=d#3 v=0
68400 On ch=6 n=d#5 v=42
68640 On ch=6 n=d#5 v=0
68640 On ch=6 n=d#5 v=40
68880 On ch=6 n=d#5 v=0
69360 On ch=6 n=f5 v=42
69600 On ch=6 n=f5 v=0
69600 On ch=6 n=f5 v=42
69840 On ch=6 n=f5 v=0
70320 On ch=6 n=g5 v=44
70560 On ch=6 n=g5 v=0
70560 On ch=6 n=g5 v=45
70800 On ch=6 n=g5 v=0
70800 On ch=6 n=g5 v=46
71040 On ch=6 n=g5 v=0
71040 On ch=6 n=g#5 v=50
71520 On ch=6 n=g#5 v=0
71520 On ch=6 n=a#5 v=44
72000 On ch=6 n=a#5 v=0
72240 On ch=6 n=d#5 v=38
72480 On ch=6 n=d#5 v=0
72480 On ch=6 n=d#5 v=39
72720 On ch=6 n=d#5 v=0
73200 On ch=6 n=f5 v=41
73440 On ch=6 n=f5 v=0
73440 On ch=6 n=f5 v=42
73680 On ch=6 n=f5 v=0
74160 On ch=6 n=g5 v=45
74400 On ch=6 n=g5 v=0
74400 On ch=6 n=g5 v=46
74640 On ch=6 n=g5 v=0
74640 On ch=6 n=g5 v=47
74880 On ch=6 n=g5 v=0
74880 On ch=6 n=g#5 v=49
75360 On ch=6 n=g#5 v=0
75360 On ch=6 n=a#4 v=47
75840 On ch=6 n=a#4 v=0
75840 On ch=6 n=d#5 v=40
75960 On ch=6 n=a#5 v=41
76080 On ch=6 n=a#5 v=0
76080 On ch=6 n=a5 v=42
76200 On ch=6 n=a5 v=0
76200 On ch=6 n=a#5 v=44
76320 On ch=6 n=a#5 v=0
76320 On ch=6 n=c6 v=45
76324 On ch=6 n=d#5 v=0
76440 On ch=6 n=c6 v=0
76440 On ch=6 n=a#5 v=46
76560 On ch=6 n=a#5 v=0
76560 On ch=6 n=g#5 v=47
76680 On ch=6 n=g#5 v=0
76680 On ch=6 n=g5 v=48
76800 On ch=6 n=g5 v=0
76800 On ch=6 n=f5 v=47
77040 On ch=6 n=g#5 v=46
77280 On ch=6 n=g#5 v=0
77280 On ch=6 n=a#4 v=49
77520 On ch=6 n=g#5 v=42
77760 On ch=6 n=g#5 v=0
77760 On ch=6 n=d#5 v=40
77764 On ch=6 n=a#4 v=0
77764 On ch=6 n=f5 v=0
77880 On ch=6 n=g5 v=40
78000 On ch=6 n=g5 v=0
78000 On ch=6 n=f#5 v=41
78120 On ch=6 n=f#5 v=0
78120 On ch=6 n=g5 v=42
78240 On ch=6 n=g5 v=0
78240 On ch=6 n=g#5 v=43
78244 On ch=6 n=d#5 v=0
78360 On ch=6 n=g#5 v=0
78360 On ch=6 n=g5 v=43
78480 On ch=6 n=g5 v=0
78480 On ch=6 n=f5 v=44
78600 On ch=6 n=f5 v=0
78600 On ch=6 n=d#5 v=45
78720 On ch=6 n=d#5 v=0
78720 On ch=6 n=d5 v=45
78960 On ch=6 n=f5 v=43
79178 On ch=6 n=d5 v=0
79200 On ch=6 n=f5 v=0
79200 On ch=6 n=d5 v=46
79200 On ch=6 n=g4 v=46
79440 On ch=6 n=f5 v=40
79658 On ch=6 n=g4 v=0
79658 On ch=6 n=d5 v=0
79680 On ch=6 n=f5 v=0
79680 On ch=6 n=c5 v=39
79800 On ch=6 n=c5 v=0
79800 On ch=6 n=d5 v=42
79920 On ch=6 n=d5 v=0
79920 On ch=6 n=d#5 v=45
80040 On ch=6 n=d#5 v=0
80040 On ch=6 n=d5 v=48
80160 On ch=6 n=d5 v=0
80160 On ch=6 n=c5 v=51
80280 On ch=6 n=c5 v=0
80280 On ch=6 n=a#4 v=54
80400 On ch=6 n=a#4 v=0
80400 On ch=6 n=a4 v=57
80520 On ch=6 n=a4 v=0
80520 On ch=6 n=g4 v=60
80640 On ch=6 n=g4 v=0
80640 On ch=6 n=f#4 v=65
81600 On ch=6 n=a#4 v=56
81605 On ch=6 n=f#4 v=0
81824 On ch=6 n=a#4 v=0
81840 On ch=6 n=g4 v=53
82064 On ch=6 n=g4 v=0
82080 On ch=6 n=f#4 v=51
82551 On ch=6 n=f#4 v=0
82560 On ch=6 n=g4 v=46
83040 On ch=6 n=g4 v=0
83040 On ch=6 n=d#4 v=41
83520 On ch=6 n=d#4 v=0
83520 On ch=6 n=d4 v=38
84472 On ch=6 n=d4 v=0
84480 On ch=6 n=d4 v=41
85432 On ch=6 n=d4 v=0
85440 On ch=6 n=d4 v=45
86392 On ch=6 n=d4 v=0
86400 On ch=6 n=d4 v=48
87352 On ch=6 n=d4 v=0
87360 On ch=6 n=d4 v=52
87840 On ch=6 n=d4 v=0
87840 On ch=6 n=d4 v=55
88320 On ch=6 n=d4 v=0
88320 On ch=6 n=d4 v=62
89246 On ch=6 n=d4 v=0
89280 On ch=6 n=d4 v=59
89760 On ch=6 n=d4 v=0
89760 On ch=6 n=d4 v=64
90240 On ch=6 n=d4 v=0
90240 On ch=6 n=d4 v=68
91153 On ch=6 n=d4 v=0
91200 On ch=6 n=d4 v=65
91680 On ch=6 n=d4 v=0
91680 On ch=6 n=d4 v=67
92030 On ch=6 n=d4 v=0
92120 Par ch=6 c=64 v=127
92120 On ch=6 n=d4 v=69
92140 On ch=6 n=a4 v=69
92160 On ch=6 n=d5 v=69
92180 On ch=6 n=d4 v=0
92200 On ch=6 n=a4 v=0
92220 On ch=6 n=d5 v=0
94080 Par ch=6 c=64 v=0
94320 On ch=6 n=a#4 v=43
94560 On ch=6 n=a#4 v=0
94560 On ch=6 n=a4 v=44
94800 On ch=6 n=a4 v=0
94800 On ch=6 n=g4 v=46
95040 On ch=6 n=g4 v=0
95040 On ch=6 n=f#4 v=49
95280 On ch=6 n=f#4 v=0
95280 On ch=6 n=d4 v=46
95520 On ch=6 n=d4 v=0
95520 On ch=6 n=e4 v=45
95760 On ch=6 n=e4 v=0
95760 On ch=6 n=f#4 v=44
96000 On ch=6 n=f#4 v=0
96000 On ch=6 n=g4 v=42
96240 On ch=6 n=g4 v=0
96240 On ch=6 n=a#4 v=45
96480 On ch=6 n=a#4 v=0
96480 On ch=6 n=a4 v=48
96720 On ch=6 n=a4 v=0
96720 On ch=6 n=g4 v=50
96960 On ch=6 n=g4 v=0
96960 On ch=6 n=c4 v=57
97200 On ch=6 n=d#4 v=50
97440 On ch=6 n=d#4 v=0
97440 On ch=6 n=g4 v=48
97680 On ch=6 n=g4 v=0
97680 On ch=6 n=c5 v=46
97920 On ch=6 n=c5 v=0
97920 On ch=6 n=c4 v=0
97920 On ch=6 n=a#4 v=44
98400 On ch=6 n=a#4 v=0
98640 On ch=6 n=a#4 v=43
98880 On ch=6 n=a#4 v=0
98880 On ch=6 n=f#4 v=42
99360 On ch=6 n=f#4 v=0
99600 On ch=6 n=f#4 v=39
99840 On ch=6 n=f#4 v=0
99840 On ch=6 n=g4 v=38
100320 On ch=6 n=g4 v=0
100320 On ch=6 n=c4 v=36
100800 On ch=6 n=c4 v=0
100800 On ch=6 n=d4 v=34
101520 On ch=6 n=d4 v=0
101520 On ch=6 n=d5 v=46
101760 On ch=6 n=d5 v=0
101760 On ch=6 n=a#5 v=46
102000 On ch=6 n=a#5 v=0
102000 On ch=6 n=g5 v=49
102240 On ch=6 n=g5 v=0
102240 On ch=6 n=f#5 v=51
102480 On ch=6 n=f#5 v=0
102480 On ch=6 n=g5 v=53
102720 On ch=6 n=g5 v=0
102720 On ch=6 n=c6 v=58
103680 On ch=6 n=c6 v=0
103680 On ch=6 n=a#5 v=50
103920 On ch=6 n=a#5 v=0
103920 On ch=6 n=g5 v=52
104160 On ch=6 n=g5 v=0
104160 On ch=6 n=f#5 v=54
104400 On ch=6 n=f#5 v=0
104400 On ch=6 n=g5 v=56
104640 On ch=6 n=g5 v=0
104640 On ch=6 n=d#6 v=60
105600 On ch=6 n=d#6 v=0
105600 On ch=6 n=d6 v=54
105756 On ch=6 n=d6 v=0
105840 On ch=6 n=a#5 v=54
106080 On ch=6 n=a#5 v=0
106080 On ch=6 n=a5 v=56
106320 On ch=6 n=a5 v=0
106320 On ch=6 n=a#5 v=59
106560 On ch=6 n=a#5 v=0
106560 On ch=6 n=f#5 v=69
106800 On ch=6 n=f#5 v=0
106800 On ch=6 n=g5 v=65
106956 On ch=6 n=g5 v=0
107040 On ch=6 n=d5 v=72
107280 On ch=6 n=d5 v=0
107280 On ch=6 n=d#5 v=68
107436 On ch=6 n=d#5 v=0
107520 On ch=6 n=c5 v=82
108240 On ch=6 n=c5 v=0
108240 On ch=6 n=c#5 v=64
108480 On ch=6 n=c#5 v=0
108480 On ch=6 n=d5 v=60
108720 On ch=6 n=d5 v=0
109440 On ch=6 n=f#4 v=38
109672 On ch=6 n=f#4 v=0
109680 On ch=6 n=a4 v=38
109912 On ch=6 n=a4 v=0
109920 On ch=6 n=c5 v=38
110152 On ch=6 n=c5 v=0
110160 On ch=6 n=a4 v=39
110392 On ch=6 n=a4 v=0
110400 On ch=6 n=a#4 v=39
110632 On ch=6 n=a#4 v=0
110640 On ch=6 n=g4 v=40
110872 On ch=6 n=g4 v=0
110880 On ch=6 n=a#4 v=40
111112 On ch=6 n=a#4 v=0
111120 On ch=6 n=g4 v=41
111352 On ch=6 n=g4 v=0
111360 On ch=6 n=f#4 v=41
111592 On ch=6 n=f#4 v=0
111600 On ch=6 n=a4 v=41
111832 On ch=6 n=a4 v=0
111840 On ch=6 n=c5 v=42
112072 On ch=6 n=c5 v=0
112080 On ch=6 n=a4 v=42
112312 On ch=6 n=a4 v=0
112320 On ch=6 n=a#4 v=43
112552 On ch=6 n=a#4 v=0
112560 On ch=6 n=g4 v=43
112792 On ch=6 n=g4 v=0
112800 On ch=6 n=a#4 v=43
113032 On ch=6 n=a#4 v=0
113040 On ch=6 n=g4 v=44
113272 On ch=6 n=g4 v=0
113280 On ch=6 n=f#4 v=44
113512 On ch=6 n=f#4 v=0
113520 On ch=6 n=a4 v=45
113752 On ch=6 n=a4 v=0
113760 On ch=6 n=c5 v=45
113992 On ch=6 n=c5 v=0
114000 On ch=6 n=a4 v=46
114232 On ch=6 n=a4 v=0
114240 On ch=6 n=a#4 v=46
114472 On ch=6 n=a#4 v=0
114480 On ch=6 n=g4 v=46
114712 On ch=6 n=g4 v=0
114720 On ch=6 n=f4 v=47
115192 On ch=6 n=f4 v=0
115200 On ch=6 n=d#4 v=48
115656 On ch=6 n=d#4 v=0
115680 On ch=6 n=c4 v=48
116136 On ch=6 n=c4 v=0
116160 On ch=6 n=a#3 v=49
116632 On ch=6 n=a#3 v=0
116640 On ch=6 n=c4 v=53
117112 On ch=6 n=c4 v=0
117120 On ch=6 n=d4 v=52
117576 On ch=6 n=d4 v=0
117600 On ch=6 n=d4 v=50
118056 On ch=6 n=d4 v=0
118080 On ch=6 n=g4 v=48
118560 On ch=6 n=f4 v=50
118568 On ch=6 n=g4 v=0
119032 On ch=6 n=f4 v=0
119040 On ch=6 n=d#4 v=52
119512 On ch=6 n=d#4 v=0
119520 On ch=6 n=c4 v=55
119992 On ch=6 n=c4 v=0
120000 On ch=6 n=c#4 v=58
120929 On ch=6 n=c#4 v=0
120960 On ch=6 n=c#4 v=63
121649 On ch=6 n=c#4 v=0
121680 On ch=6 n=c#4 v=67
121920 On ch=6 n=d4 v=64
121921 On ch=6 n=c#4 v=0
122849 On ch=6 n=d4 v=0
122880 On ch=6 n=d4 v=56
123809 On ch=6 n=d4 v=0
123840 On ch=6 n=d4 v=52
124769 On ch=6 n=d4 v=0
124800 On ch=6 n=d4 v=48
125729 On ch=6 n=d4 v=0
125760 On ch=6 n=g4 v=44
126240 On ch=6 n=g4 v=0
126480 On ch=6 n=d3 v=51
126720 On ch=6 n=d3 v=0
126720 On ch=6 n=c4 v=55
126960 On ch=6 n=c4 v=0
126960 On ch=6 n=f#3 v=53
127116 On ch=6 n=f#3 v=0
127200 On ch=6 n=f#3 v=51
127356 On ch=6 n=f#3 v=0
127440 On ch=6 n=f#3 v=49
127596 On ch=6 n=f#3 v=0
127680 On ch=6 n=g3 v=47
128160 On ch=6 n=g3 v=0
128400 On ch=6 n=d3 v=49
128640 On ch=6 n=d3 v=0
128640 On ch=6 n=c4 v=53
128880 On ch=6 n=c4 v=0
128880 On ch=6 n=f#3 v=51
129036 On ch=6 n=f#3 v=0
129120 On ch=6 n=f#3 v=49
129276 On ch=6 n=f#3 v=0
129360 On ch=6 n=f#3 v=47
129516 On ch=6 n=f#3 v=0
129600 On ch=6 n=g3 v=45
130080 On ch=6 n=g3 v=0
130320 On ch=6 n=d3 v=46
130560 On ch=6 n=d3 v=0
130560 On ch=6 n=c4 v=51
130800 On ch=6 n=c4 v=0
130800 On ch=6 n=f#3 v=48
130956 On ch=6 n=f#3 v=0
131040 On ch=6 n=f#3 v=46
131196 On ch=6 n=f#3 v=0
131280 On ch=6 n=f#3 v=44
131436 On ch=6 n=f#3 v=0
131520 On ch=6 n=g3 v=41
132480 On ch=6 n=g3 v=0
132480 On ch=6 n=g2 v=43
133440 On ch=6 n=g2 v=0
133440 On ch=6 n=g3 v=41
134400 On ch=6 n=g3 v=0
134400 On ch=6 n=g2 v=40
135360 On ch=6 n=g2 v=0
135360 On ch=6 n=g3 v=39
135360 On ch=6 n=g2 v=39
136320 On ch=6 n=g2 v=0
136320 On ch=6 n=g3 v=0
136320 On ch=6 n=g2 v=37
136320 On ch=6 n=g3 v=37
137280 On ch=6 n=g3 v=0
137280 On ch=6 n=g2 v=0
137280 On ch=6 n=g2 v=36
137280 On ch=6 n=g3 v=36
137760 On ch=6 n=g3 v=0
137760 On ch=6 n=g2 v=0
137760 On ch=6 n=g3 v=35
137760 On ch=6 n=g2 v=35
138240 On ch=6 n=g2 v=0
138240 On ch=6 n=g3 v=0
138240 On ch=6 n=g3 v=35
138240 On ch=6 n=g2 v=35
138720 On ch=6 n=g2 v=0
138720 On ch=6 n=g3 v=0
140640 Par ch=6 c=64 v=0
141600 On ch=6 n=b4 v=41
141756 On ch=6 n=b4 v=0
141840 On ch=6 n=a4 v=42
141996 On ch=6 n=a4 v=0
142080 On ch=6 n=g4 v=44
142560 On ch=6 n=g4 v=0
143040 On ch=6 n=a4 v=47
143196 On ch=6 n=a4 v=0
143280 On ch=6 n=g4 v=50
143436 On ch=6 n=g4 v=0
143520 On ch=6 n=a4 v=52
144000 On ch=6 n=a4 v=0
144480 On ch=6 n=f#4 v=57
144636 On ch=6 n=f#4 v=0
144720 On ch=6 n=g4 v=58
144876 On ch=6 n=g4 v=0
144960 On ch=6 n=a4 v=59
145116 On ch=6 n=a4 v=0
145200 On ch=6 n=b4 v=61
145356 On ch=6 n=b4 v=0
145440 On ch=6 n=c5 v=62
145596 On ch=6 n=c5 v=0
145680 On ch=6 n=c#5 v=71
146400 On ch=6 n=c#5 v=0
146400 On ch=6 n=d5 v=53
146880 On ch=6 n=d5 v=0
147360 On ch=6 n=b4 v=47
147516 On ch=6 n=b4 v=0
147600 On ch=6 n=a4 v=49
147756 On ch=6 n=a4 v=0
147840 On ch=6 n=g4 v=52
148320 On ch=6 n=g4 v=0
148800 On ch=6 n=c5 v=55
148956 On ch=6 n=c5 v=0
149040 On ch=6 n=b4 v=58
149196 On ch=6 n=b4 v=0
149280 On ch=6 n=a4 v=61
149760 On ch=6 n=a4 v=0
150240 On ch=6 n=f#4 v=57
150396 On ch=6 n=f#4 v=0
150480 On ch=6 n=g4 v=56
150636 On ch=6 n=g4 v=0
150720 On ch=6 n=a4 v=54
150876 On ch=6 n=a4 v=0
150960 On ch=6 n=b4 v=53
151116 On ch=6 n=b4 v=0
151200 On ch=6 n=c5 v=52
151356 On ch=6 n=c5 v=0
151440 On ch=6 n=d4 v=50
151920 On ch=6 n=d4 v=0
151920 On ch=6 n=d4 v=48
152160 On ch=6 n=d4 v=0
152160 On ch=6 n=g3 v=46
152520 On ch=6 n=g3 v=0
153840 On ch=6 n=f#4 v=44
153996 On ch=6 n=f#4 v=0
154080 On ch=6 n=f#4 v=45
154236 On ch=6 n=f#4 v=0
154560 On ch=6 n=g4 v=46
154716 On ch=6 n=g4 v=0
154800 On ch=6 n=g4 v=47
154956 On ch=6 n=g4 v=0
155280 On ch=6 n=f#4 v=49
155436 On ch=6 n=f#4 v=0
155520 On ch=6 n=f#4 v=50
155676 On ch=6 n=f#4 v=0
156000 On ch=6 n=g4 v=51
156156 On ch=6 n=g4 v=0
156240 On ch=6 n=g4 v=52
156396 On ch=6 n=g4 v=0
156720 On ch=6 n=f#4 v=58
156876 On ch=6 n=f#4 v=0
156960 On ch=6 n=g4 v=61
157116 On ch=6 n=g4 v=0
157440 On ch=6 n=f#4 v=70
157596 On ch=6 n=f#4 v=0
157680 On ch=6 n=g4 v=77
157836 On ch=6 n=g4 v=0
157920 On ch=6 n=f#4 v=87
158340 On ch=6 n=f#4 v=0
158880 On ch=6 n=b5 v=44
159036 On ch=6 n=b5 v=0
159120 On ch=6 n=a5 v=46
159276 On ch=6 n=a5 v=0
159360 On ch=6 n=g5 v=47
159840 On ch=6 n=g5 v=0
160320 On ch=6 n=c6 v=53
160476 On ch=6 n=c6 v=0
160560 On ch=6 n=b5 v=55
160716 On ch=6 n=b5 v=0
160800 On ch=6 n=a5 v=56
161280 On ch=6 n=a5 v=0
161760 On ch=6 n=f#5 v=62
161916 On ch=6 n=f#5 v=0
162000 On ch=6 n=g5 v=60
162156 On ch=6 n=g5 v=0
162240 On ch=6 n=a5 v=57
162396 On ch=6 n=a5 v=0
162480 On ch=6 n=b5 v=55
162636 On ch=6 n=b5 v=0
162720 On ch=6 n=c6 v=53
162876 On ch=6 n=c6 v=0
162960 On ch=6 n=d5 v=51
163440 On ch=6 n=d5 v=0
163440 On ch=6 n=d5 v=46
163680 On ch=6 n=d5 v=0
163680 On ch=6 n=g4 v=44
164040 On ch=6 n=g4 v=0
164160 On ch=6 n=d5 v=79
164360 On ch=6 n=d#5 v=80
164400 On ch=6 n=d#5 v=0
164400 On ch=6 n=d5 v=0
164400 On ch=6 n=d5 v=81
164640 On ch=6 n=d5 v=0
164640 On ch=6 n=c#5 v=83
164880 On ch=6 n=c#5 v=0
164880 On ch=6 n=d5 v=88
165120 On ch=6 n=d5 v=0
165120 On ch=6 n=d#5 v=96
165600 On ch=6 n=d#5 v=0
165600 On ch=6 n=d5 v=86
165840 On ch=6 n=d5 v=0
165840 On ch=6 n=c5 v=83
165996 On ch=6 n=c5 v=0
166080 On ch=6 n=a#4 v=81
166236 On ch=6 n=a#4 v=0
166320 On ch=6 n=a4 v=78
166476 On ch=6 n=a4 v=0
166560 On ch=6 n=d5 v=88
167040 On ch=6 n=d5 v=0
167040 On ch=6 n=c5 v=82
167280 On ch=6 n=c5 v=0
167280 On ch=6 n=a#4 v=81
167436 On ch=6 n=a#4 v=0
167520 On ch=6 n=a4 v=80
167676 On ch=6 n=a4 v=0
167760 On ch=6 n=g4 v=78
167916 On ch=6 n=g4 v=0
168000 On ch=6 n=c4 v=77
168000 On ch=6 n=a4 v=77
168720 On ch=6 n=a4 v=0
168720 On ch=6 n=c4 v=0
168720 On ch=6 n=d4 v=73
168720 On ch=6 n=c5 v=73
169440 On ch=6 n=c5 v=0
169440 On ch=6 n=d4 v=0
169440 On ch=6 n=g4 v=66
170138 On ch=6 n=g4 v=0
170160 On ch=6 n=f#4 v=62
170858 On ch=6 n=f#4 v=0
170880 On ch=6 n=g4 v=68
171578 On ch=6 n=g4 v=0
171600 On ch=6 n=f#4 v=74
172298 On ch=6 n=f#4 v=0
172320 On ch=6 n=g4 v=83
173018 On ch=6 n=g4 v=0
173040 On ch=6 n=g4 v=80
173738 On ch=6 n=g4 v=0
173760 On ch=6 n=a4 v=76
173965 On ch=6 n=a4 v=0
174000 On ch=6 n=a4 v=75
174205 On ch=6 n=a4 v=0
174240 On ch=6 n=a4 v=74
174445 On ch=6 n=a4 v=0
174480 On ch=6 n=d4 v=73
175178 On ch=6 n=d4 v=0
175200 On ch=6 n=g4 v=58
175898 On ch=6 n=g4 v=0
175920 On ch=6 n=f#4 v=62
176618 On ch=6 n=f#4 v=0
176640 On ch=6 n=g4 v=68
177338 On ch=6 n=g4 v=0
177360 On ch=6 n=g4 v=76
178058 On ch=6 n=g4 v=0
178080 On ch=6 n=a4 v=88
178800 On ch=6 n=a#4 v=79
178812 On ch=6 n=a4 v=0
179520 On ch=6 n=d#4 v=76
179532 On ch=6 n=a#4 v=0
180201 On ch=6 n=d#4 v=0
180240 On ch=6 n=f4 v=74
180921 On ch=6 n=f4 v=0
180960 On ch=6 n=d4 v=72
181641 On ch=6 n=d4 v=0
181680 On ch=6 n=f4 v=82
182361 On ch=6 n=f4 v=0
182400 On ch=6 n=d#4 v=72
183081 On ch=6 n=d#4 v=0
183120 On ch=6 n=f4 v=67
183801 On ch=6 n=f4 v=0
183840 On ch=6 n=a#4 v=62
184320 On ch=6 n=a#4 v=0
187440 On ch=6 n=a#4 v=55
188122 On ch=6 n=a#4 v=0
188160 On ch=6 n=c5 v=54
188842 On ch=6 n=c5 v=0
188880 On ch=6 n=d#5 v=52
189562 On ch=6 n=d#5 v=0
189600 On ch=6 n=d5 v=51
190282 On ch=6 n=d5 v=0
190320 On ch=6 n=a#4 v=49
191002 On ch=6 n=a#4 v=0
191040 On ch=6 n=c5 v=48
191722 On ch=6 n=c5 v=0
191760 On ch=6 n=c5 v=46
192442 On ch=6 n=c5 v=0
192480 On ch=6 n=f4 v=49
193162 On ch=6 n=f4 v=0
193200 On ch=6 n=d#4 v=51
193882 On ch=6 n=d#4 v=0
193920 On ch=6 n=d4 v=52
194602 On ch=6 n=d4 v=0
194640 On ch=6 n=a#3 v=54
195322 On ch=6 n=a#3 v=0
195360 On ch=6 n=a3 v=56
196042 On ch=6 n=a3 v=0
196080 On ch=6 n=f3 v=58
196762 On ch=6 n=f3 v=0
196800 On ch=6 n=a#3 v=59
197482 On ch=6 n=a#3 v=0
197520 On ch=6 n=d#4 v=61
198202 On ch=6 n=d#4 v=0
198240 On ch=6 n=f4 v=60
198956 On ch=6 n=f4 v=0
198960 On ch=6 n=a#4 v=58
199642 On ch=6 n=a#4 v=0
199680 On ch=6 n=c5 v=57
200362 On ch=6 n=c5 v=0
200400 On ch=6 n=d#5 v=55
201082 On ch=6 n=d#5 v=0
201120 On ch=6 n=d5 v=54
201802 On ch=6 n=d5 v=0
201840 On ch=6 n=a#4 v=52
202522 On ch=6 n=a#4 v=0
202560 On ch=6 n=c5 v=51
203242 On ch=6 n=c5 v=0
203280 On ch=6 n=c5 v=49
203962 On ch=6 n=c5 v=0
204000 On ch=6 n=f4 v=48
204682 On ch=6 n=f4 v=0
204720 On ch=6 n=d#4 v=51
205402 On ch=6 n=d#4 v=0
205440 On ch=6 n=d4 v=53
206122 On ch=6 n=d4 v=0
206160 On ch=6 n=a#3 v=56
206808 On ch=6 n=a#3 v=0
206880 On ch=6 n=a3 v=58
207528 On ch=6 n=a3 v=0
207600 On ch=6 n=a#3 v=61
208248 On ch=6 n=a#3 v=0
208320 On ch=6 n=d#4 v=65
208968 On ch=6 n=d#4 v=0
209040 On ch=6 n=f4 v=60
209688 On ch=6 n=f4 v=0
209760 On ch=6 n=a#4 v=55
210408 On ch=6 n=a#4 v=0
211200 On ch=6 n=d5 v=57
211920 On ch=6 n=d5 v=0
211920 On ch=6 n=c#5 v=59
212640 On ch=6 n=c#5 v=0
212640 On ch=6 n=c5 v=62
213360 On ch=6 n=c5 v=0
214080 On ch=6 n=c5 v=53
214800 On ch=6 n=c5 v=0
214800 On ch=6 n=a4 v=56
215520 On ch=6 n=a4 v=0
215520 On ch=6 n=a#4 v=58
216240 On ch=6 n=a#4 v=0
216240 On ch=6 n=a#4 v=57
216888 On ch=6 n=a#4 v=0
216960 On ch=6 n=c5 v=56
217608 On ch=6 n=c5 v=0
217680 On ch=6 n=d#5 v=55
218328 On ch=6 n=d#5 v=0
218400 On ch=6 n=d5 v=54
219116 On ch=6 n=d5 v=0
219120 On ch=6 n=d#4 v=52
219768 On ch=6 n=d#4 v=0
219840 On ch=6 n=f4 v=51
220488 On ch=6 n=f4 v=0
220560 On ch=6 n=f4 v=50
221208 On ch=6 n=f4 v=0
221280 On ch=6 n=a#3 v=49
221928 On ch=6 n=a#3 v=0
222720 On ch=6 n=d5 v=51
223368 On ch=6 n=d5 v=0
223440 On ch=6 n=c#5 v=54
224088 On ch=6 n=c#5 v=0
224160 On ch=6 n=c5 v=57
225522 On ch=6 n=c5 v=0
225600 On ch=6 n=c5 v=49
226248 On ch=6 n=c5 v=0
226320 On ch=6 n=a4 v=53
226968 On ch=6 n=a4 v=0
227040 On ch=6 n=a#4 v=60
228436 On ch=6 n=a#4 v=0
228480 On ch=6 n=c5 v=57
229128 On ch=6 n=c5 v=0
229200 On ch=6 n=d#5 v=56
229848 On ch=6 n=d#5 v=0
229920 On ch=6 n=d5 v=54
230568 On ch=6 n=d5 v=0
230640 On ch=6 n=d#4 v=52
231360 On ch=6 n=f4 v=51
231390 On ch=6 n=d#4 v=0
232080 On ch=6 n=f4 v=0
232080 On ch=6 n=f4 v=51
232800 On ch=6 n=f4 v=0
232800 Par ch=6 c=64 v=0
232800 On ch=6 n=a#4 v=44
233160 On ch=6 n=a#4 v=0
233280 On ch=6 n=d5 v=79
233480 On ch=6 n=d#5 v=80
233520 On ch=6 n=d#5 v=0
233520 On ch=6 n=d5 v=0
233520 On ch=6 n=d5 v=81
233760 On ch=6 n=d5 v=0
233760 On ch=6 n=c#5 v=83
234000 On ch=6 n=c#5 v=0
234000 On ch=6 n=d5 v=88
234240 On ch=6 n=d5 v=0
234240 On ch=6 n=d#5 v=96
234720 On ch=6 n=d#5 v=0
234720 On ch=6 n=d5 v=86
234960 On ch=6 n=d5 v=0
234960 On ch=6 n=c5 v=83
235116 On ch=6 n=c5 v=0
235200 On ch=6 n=a#4 v=81
235356 On ch=6 n=a#4 v=0
235440 On ch=6 n=a4 v=78
235596 On ch=6 n=a4 v=0
235680 On ch=6 n=d5 v=88
236160 On ch=6 n=d5 v=0
236160 On ch=6 n=c5 v=82
236400 On ch=6 n=c5 v=0
236400 On ch=6 n=a#4 v=81
236556 On ch=6 n=a#4 v=0
236640 On ch=6 n=a4 v=80
236796 On ch=6 n=a4 v=0
236880 On ch=6 n=g4 v=78
237036 On ch=6 n=g4 v=0
237120 On ch=6 n=a4 v=77
237120 On ch=6 n=c4 v=77
237840 On ch=6 n=c4 v=0
237840 On ch=6 n=a4 v=0
237840 On ch=6 n=c5 v=73
237840 On ch=6 n=d4 v=73
238560 On ch=6 n=d4 v=0
238560 On ch=6 n=c5 v=0
238560 On ch=6 n=g4 v=66
239258 On ch=6 n=g4 v=0
239280 On ch=6 n=f#4 v=62
239978 On ch=6 n=f#4 v=0
240000 On ch=6 n=g4 v=68
240698 On ch=6 n=g4 v=0
240720 On ch=6 n=f#4 v=74
241418 On ch=6 n=f#4 v=0
241440 On ch=6 n=g4 v=83
242138 On ch=6 n=g4 v=0
242160 On ch=6 n=g4 v=80
242858 On ch=6 n=g4 v=0
242880 On ch=6 n=a4 v=76
243085 On ch=6 n=a4 v=0
243120 On ch=6 n=a4 v=75
243325 On ch=6 n=a4 v=0
243360 On ch=6 n=a4 v=74
243565 On ch=6 n=a4 v=0
243600 On ch=6 n=d4 v=73
244298 On ch=6 n=d4 v=0
244320 On ch=6 n=g4 v=58
245018 On ch=6 n=g4 v=0
245040 On ch=6 n=f#4 v=62
245738 On ch=6 n=f#4 v=0
245760 On ch=6 n=g4 v=68
246458 On ch=6 n=g4 v=0
246480 On ch=6 n=g4 v=76
247178 On ch=6 n=g4 v=0
247200 Par ch=6 c=64 v=0
247200 On ch=6 n=a4 v=88
247920 On ch=6 n=a#4 v=79
247932 On ch=6 n=a4 v=0
248640 On ch=6 n=g4 v=76
248652 On ch=6 n=a#4 v=0
249321 On ch=6 n=g4 v=0
249360 On ch=6 n=a4 v=74
250041 On ch=6 n=a4 v=0
250080 On ch=6 n=f#4 v=72
250761 On ch=6 n=f#4 v=0
250800 On ch=6 n=g4 v=82
251481 On ch=6 n=g4 v=0
251520 On ch=6 n=c4 v=72
252201 On ch=6 n=c4 v=0
252240 On ch=6 n=d4 v=67
252921 On ch=6 n=d4 v=0
252960 On ch=6 n=g3 v=60
253200 On ch=6 n=g3 v=0
253200 On ch=6 n=g4 v=55
253440 On ch=6 n=g4 v=0
256320 Par ch=6 c=64 v=0
256800 On ch=6 n=b4 v=41
256956 On ch=6 n=b4 v=0
257040 On ch=6 n=a4 v=42
257196 On ch=6 n=a4 v=0
257280 On ch=6 n=g4 v=44
257760 On ch=6 n=g4 v=0
258240 On ch=6 n=a4 v=47
258396 On ch=6 n=a4 v=0
258480 On ch=6 n=g4 v=50
258636 On ch=6 n=g4 v=0
258720 On ch=6 n=a4 v=52
259200 On ch=6 n=a4 v=0
259680 On ch=6 n=f#4 v=57
259836 On ch=6 n=f#4 v=0
259920 On ch=6 n=g4 v=58
260076 On ch=6 n=g4 v=0
260160 On ch=6 n=a4 v=59
260316 On ch=6 n=a4 v=0
260400 On ch=6 n=b4 v=61
260556 On ch=6 n=b4 v=0
260640 On ch=6 n=c5 v=62
260796 On ch=6 n=c5 v=0
260880 On ch=6 n=c#5 v=71
261600 On ch=6 n=c#5 v=0
261600 On ch=6 n=d5 v=53
262080 On ch=6 n=d5 v=0
262560 On ch=6 n=b4 v=47
262716 On ch=6 n=b4 v=0
262800 On ch=6 n=a4 v=49
262956 On ch=6 n=a4 v=0
263040 On ch=6 n=g4 v=52
263520 On ch=6 n=g4 v=0
264000 On ch=6 n=c5 v=55
264156 On ch=6 n=c5 v=0
264240 On ch=6 n=b4 v=58
264396 On ch=6 n=b4 v=0
264480 On ch=6 n=a4 v=61
264960 On ch=6 n=a4 v=0
265440 On ch=6 n=f#4 v=57
265596 On ch=6 n=f#4 v=0
265680 On ch=6 n=g4 v=56
265836 On ch=6 n=g4 v=0
265920 On ch=6 n=a4 v=54
266076 On ch=6 n=a4 v=0
266160 On ch=6 n=b4 v=53
266316 On ch=6 n=b4 v=0
266400 On ch=6 n=c5 v=52
266556 On ch=6 n=c5 v=0
266640 On ch=6 n=d4 v=50
267120 On ch=6 n=d4 v=0
267120 On ch=6 n=d4 v=48
267360 On ch=6 n=d4 v=0
267360 On ch=6 n=g3 v=46
267720 On ch=6 n=g3 v=0
269040 On ch=6 n=f#4 v=44
269196 On ch=6 n=f#4 v=0
269280 On ch=6 n=f#4 v=45
269436 On ch=6 n=f#4 v=0
269760 On ch=6 n=g4 v=46
269916 On ch=6 n=g4 v=0
270000 On ch=6 n=g4 v=47
270156 On ch=6 n=g4 v=0
270480 On ch=6 n=f#4 v=49
270636 On ch=6 n=f#4 v=0
270720 On ch=6 n=f#4 v=50
270876 On ch=6 n=f#4 v=0
271200 On ch=6 n=g4 v=51
271356 On ch=6 n=g4 v=0
271440 On ch=6 n=g4 v=52
271596 On ch=6 n=g4 v=0
271920 On ch=6 n=f#4 v=58
272076 On ch=6 n=f#4 v=0
272160 On ch=6 n=g4 v=61
272316 On ch=6 n=g4 v=0
272640 On ch=6 n=f#4 v=68
272796 On ch=6 n=f#4 v=0
272880 On ch=6 n=g4 v=75
273036 On ch=6 n=g4 v=0
273120 On ch=6 n=f#4 v=82
273540 On ch=6 n=f#4 v=0
274080 On ch=6 n=b5 v=44
274236 On ch=6 n=b5 v=0
274320 On ch=6 n=a5 v=46
274476 On ch=6 n=a5 v=0
274560 On ch=6 n=g5 v=47
275040 On ch=6 n=g5 v=0
275520 On ch=6 n=c6 v=53
275676 On ch=6 n=c6 v=0
275760 On ch=6 n=b5 v=55
275916 On ch=6 n=b5 v=0
276000 On ch=6 n=a5 v=56
276480 On ch=6 n=a5 v=0
276960 On ch=6 n=f#5 v=69
277116 On ch=6 n=f#5 v=0
277200 On ch=6 n=g5 v=68
277356 On ch=6 n=g5 v=0
277440 On ch=6 n=a5 v=67
277596 On ch=6 n=a5 v=0
277680 On ch=6 n=b5 v=66
277836 On ch=6 n=b5 v=0
277920 On ch=6 n=c6 v=65
278076 On ch=6 n=c6 v=0
278160 On ch=6 n=d5 v=64
278640 On ch=6 n=d5 v=0
278640 On ch=6 n=d5 v=62
278880 On ch=6 n=d5 v=0
278880 On ch=6 n=g4 v=61
279240 On ch=6 n=g4 v=0
279360 On ch=6 n=c6 v=59
279516 On ch=6 n=c6 v=0
279600 On ch=6 n=b5 v=58
279756 On ch=6 n=b5 v=0
279840 On ch=6 n=a5 v=56
279996 On ch=6 n=a5 v=0
280080 On ch=6 n=g5 v=55
280236 On ch=6 n=g5 v=0
280320 On ch=6 n=f#5 v=54
280476 On ch=6 n=f#5 v=0
280560 On ch=6 n=e5 v=53
280716 On ch=6 n=e5 v=0
280800 On ch=6 n=f#5 v=52
280956 On ch=6 n=f#5 v=0
281040 On ch=6 n=g5 v=51
281040 On ch=6 n=b4 v=51
281520 On ch=6 n=g5 v=0
281520 On ch=6 n=f#5 v=49
281760 On ch=6 n=f#5 v=0
281760 On ch=6 n=b4 v=0
281760 On ch=6 n=e5 v=48
282240 On ch=6 n=e5 v=0
282720 On ch=6 n=a5 v=44
282876 On ch=6 n=a5 v=0
282960 On ch=6 n=g5 v=43
283116 On ch=6 n=g5 v=0
283200 On ch=6 n=f5 v=42
283356 On ch=6 n=f5 v=0
283440 On ch=6 n=e5 v=41
283596 On ch=6 n=e5 v=0
283680 On ch=6 n=f5 v=39
283836 On ch=6 n=f5 v=0
283920 On ch=6 n=g4 v=77
283920 On ch=6 n=e5 v=77
284400 On ch=6 n=e5 v=0
284400 On ch=6 n=d5 v=76
284640 On ch=6 n=d5 v=0
284640 On ch=6 n=g4 v=0
284640 On ch=6 n=c4 v=76
284640 On ch=6 n=c5 v=76
285120 On ch=6 n=c5 v=0
285120 On ch=6 n=c4 v=0
285360 On ch=6 n=e4 v=74
285360 On ch=6 n=c5 v=74
285840 On ch=6 n=c5 v=0
285840 On ch=6 n=b4 v=73
286080 On ch=6 n=b4 v=0
286080 On ch=6 n=e4 v=0
286080 On ch=6 n=a4 v=73
286080 On ch=6 n=a3 v=73
286560 On ch=6 n=a3 v=0
286560 On ch=6 n=a4 v=0
286800 On ch=6 n=d4 v=71
286800 On ch=6 n=b4 v=71
287280 On ch=6 n=b4 v=0
287280 On ch=6 n=a4 v=70
287520 On ch=6 n=a4 v=0
287520 On ch=6 n=d4 v=0
287520 On ch=6 n=g3 v=69
287520 On ch=6 n=g4 v=69
288240 On ch=6 n=g4 v=0
288240 On ch=6 n=g3 v=0
288240 On ch=6 n=a3 v=68
288240 On ch=6 n=e4 v=68
288960 On ch=6 n=e4 v=0
288960 On ch=6 n=a3 v=0
288960 On ch=6 n=d3 v=65
289440 On ch=6 n=d3 v=0
289680 On ch=6 n=g3 v=57
290362 On ch=6 n=g3 v=0
290400 On ch=6 n=a3 v=56
291082 On ch=6 n=a3 v=0
291120 On ch=6 n=c4 v=55
291802 On ch=6 n=c4 v=0
291840 On ch=6 n=b3 v=53
292522 On ch=6 n=b3 v=0
292560 On ch=6 n=g3 v=52
293242 On ch=6 n=g3 v=0
293280 On ch=6 n=a3 v=50
293962 On ch=6 n=a3 v=0
294000 On ch=6 n=a3 v=49
294682 On ch=6 n=a3 v=0
294720 On ch=6 n=d3 v=50
295402 On ch=6 n=d3 v=0
295440 On ch=6 n=c4 v=51
296122 On ch=6 n=c4 v=0
296160 On ch=6 n=b3 v=53
296842 On ch=6 n=b3 v=0
296880 On ch=6 n=g3 v=54
297562 On ch=6 n=g3 v=0
297600 On ch=6 n=f#3 v=55
298282 On ch=6 n=f#3 v=0
298320 On ch=6 n=d3 v=57
299002 On ch=6 n=d3 v=0
299040 On ch=6 n=g3 v=58
299722 On ch=6 n=g3 v=0
299760 On ch=6 n=c4 v=60
300442 On ch=6 n=c4 v=0
300480 On ch=6 n=d4 v=63
301196 On ch=6 n=d4 v=0
301200 On ch=6 n=g4 v=61
301882 On ch=6 n=g4 v=0
301920 On ch=6 n=a4 v=59
302602 On ch=6 n=a4 v=0
302640 On ch=6 n=c5 v=57
303322 On ch=6 n=c5 v=0
303360 On ch=6 n=b4 v=55
304042 On ch=6 n=b4 v=0
304080 On ch=6 n=g4 v=53
304762 On ch=6 n=g4 v=0
304800 On ch=6 n=a4 v=51
305482 On ch=6 n=a4 v=0
305520 On ch=6 n=a4 v=49
306202 On ch=6 n=a4 v=0
306240 On ch=6 n=d4 v=48
306922 On ch=6 n=d4 v=0
306960 On ch=6 n=c5 v=50
307642 On ch=6 n=c5 v=0
307680 On ch=6 n=b4 v=53
308362 On ch=6 n=b4 v=0
308400 On ch=6 n=g4 v=55
309048 On ch=6 n=g4 v=0
309120 On ch=6 n=f#4 v=58
309768 On ch=6 n=f#4 v=0
309840 On ch=6 n=g4 v=60
310488 On ch=6 n=g4 v=0
310560 On ch=6 n=c4 v=65
311208 On ch=6 n=c4 v=0
311280 On ch=6 n=d4 v=60
311928 On ch=6 n=d4 v=0
312000 On ch=6 n=g4 v=54
312648 On ch=6 n=g4 v=0
313440 On ch=6 n=b4 v=57
314160 On ch=6 n=b4 v=0
314160 On ch=6 n=a#4 v=59
314880 On ch=6 n=a#4 v=0
314880 Par ch=6 c=64 v=0
314880 On ch=6 n=a4 v=62
315600 On ch=6 n=a4 v=0
316320 On ch=6 n=a4 v=53
317040 On ch=6 n=a4 v=0
317040 On ch=6 n=f#4 v=56
317760 On ch=6 n=f#4 v=0
317760 On ch=6 n=g4 v=58
318480 On ch=6 n=g4 v=0
318480 On ch=6 n=g4 v=57
319128 On ch=6 n=g4 v=0
319200 On ch=6 n=a4 v=55
319848 On ch=6 n=a4 v=0
319920 On ch=6 n=c5 v=54
320568 On ch=6 n=c5 v=0
320640 On ch=6 n=b4 v=53
321356 On ch=6 n=b4 v=0
321360 On ch=6 n=c4 v=51
322008 On ch=6 n=c4 v=0
322080 On ch=6 n=d4 v=50
322728 On ch=6 n=d4 v=0
322800 On ch=6 n=d4 v=48
323448 On ch=6 n=d4 v=0
323520 On ch=6 n=g3 v=47
324168 On ch=6 n=g3 v=0
324960 On ch=6 n=b4 v=51
325608 On ch=6 n=b4 v=0
325680 On ch=6 n=a#4 v=54
326328 On ch=6 n=a#4 v=0
326400 On ch=6 n=a4 v=57
327762 On ch=6 n=a4 v=0
327840 On ch=6 n=a4 v=44
328488 On ch=6 n=a4 v=0
328560 On ch=6 n=f#4 v=49
329208 On ch=6 n=f#4 v=0
329280 On ch=6 n=g4 v=56
330676 On ch=6 n=g4 v=0
330720 On ch=6 n=a4 v=52
331368 On ch=6 n=a4 v=0
331440 On ch=6 n=c5 v=51
332088 On ch=6 n=c5 v=0
332160 On ch=6 n=b4 v=49
332808 On ch=6 n=b4 v=0
332880 On ch=6 n=c4 v=47
333600 On ch=6 n=d4 v=46
333630 On ch=6 n=c4 v=0
335040 On ch=6 n=g4 v=42
335070 On ch=6 n=d4 v=0
335400 On ch=6 n=g4 v=0
336000 On ch=6 n=b4 v=41
336156 On ch=6 n=b4 v=0
336240 On ch=6 n=a4 v=42
336396 On ch=6 n=a4 v=0
336480 On ch=6 n=g4 v=44
336960 On ch=6 n=g4 v=0
337440 On ch=6 n=a4 v=47
337596 On ch=6 n=a4 v=0
337680 On ch=6 n=g4 v=50
337836 On ch=6 n=g4 v=0
337920 On ch=6 n=f#4 v=52
338400 On ch=6 n=f#4 v=0
338400 On ch=6 n=d4 v=68
338640 On ch=6 n=d4 v=0
338640 On ch=6 n=d4 v=69
338880 On ch=6 n=d4 v=0
338880 On ch=6 n=g4 v=71
339120 On ch=6 n=g4 v=0
339120 On ch=6 n=a4 v=72
339360 On ch=6 n=a4 v=0
339360 On ch=6 n=b4 v=73
339840 On ch=6 n=b4 v=0
339840 On ch=6 n=d4 v=75
340080 On ch=6 n=d4 v=0
340080 On ch=6 n=d4 v=76
340320 On ch=6 n=d4 v=0
340320 On ch=6 n=a4 v=77
340560 On ch=6 n=a4 v=0
340560 On ch=6 n=b4 v=79
340800 On ch=6 n=b4 v=0
340800 On ch=6 n=c5 v=80
341280 On ch=6 n=c5 v=0
341760 On ch=6 n=b4 v=41
341916 On ch=6 n=b4 v=0
342000 On ch=6 n=a4 v=42
342156 On ch=6 n=a4 v=0
342240 On ch=6 n=g4 v=44
342720 On ch=6 n=g4 v=0
343200 On ch=6 n=c5 v=47
343356 On ch=6 n=c5 v=0
343440 On ch=6 n=b4 v=50
343596 On ch=6 n=b4 v=0
343680 On ch=6 n=a4 v=52
344160 On ch=6 n=a4 v=0
344640 On ch=6 n=f#4 v=47
344796 On ch=6 n=f#4 v=0
344880 On ch=6 n=g4 v=46
345036 On ch=6 n=g4 v=0
345120 On ch=6 n=a4 v=44
345360 On ch=6 n=a4 v=0
345360 On ch=6 n=b4 v=42
345516 On ch=6 n=b4 v=0
345600 On ch=6 n=e5 v=84
345756 On ch=6 n=e5 v=0
345840 On ch=6 n=d5 v=80
345996 On ch=6 n=d5 v=0
346080 On ch=6 n=c5 v=78
346236 On ch=6 n=c5 v=0
346320 On ch=6 n=b4 v=75
346476 On ch=6 n=b4 v=0
346560 On ch=6 n=a4 v=78
346800 On ch=6 n=a4 v=0
346800 On ch=6 n=g4 v=71
346956 On ch=6 n=g4 v=0
347520 On ch=6 n=f#4 v=52
347676 On ch=6 n=f#4 v=0
347760 On ch=6 n=g4 v=50
347916 On ch=6 n=g4 v=0
348000 On ch=6 n=a4 v=48
348240 On ch=6 n=a4 v=0
348240 On ch=6 n=b4 v=47
348396 On ch=6 n=b4 v=0
348480 On ch=6 n=e5 v=82
348636 On ch=6 n=e5 v=0
348720 On ch=6 n=d5 v=76
348876 On ch=6 n=d5 v=0
348960 On ch=6 n=c5 v=73
349116 On ch=6 n=c5 v=0
349200 On ch=6 n=b4 v=71
349356 On ch=6 n=b4 v=0
349440 On ch=6 n=a4 v=73
349680 On ch=6 n=a4 v=0
349680 On ch=6 n=g4 v=66
349836 On ch=6 n=g4 v=0
349920 On ch=6 n=d5 v=63
350160 On ch=6 n=d5 v=0
350640 On ch=6 n=d5 v=59
350796 On ch=6 n=d5 v=0
351360 On ch=6 n=d5 v=71
351516 On ch=6 n=d5 v=0
352080 On ch=6 n=d5 v=83
352236 On ch=6 n=d5 v=0
352320 Par ch=6 c=64 v=127
352320 On ch=6 n=f#4 v=88
352320 On ch=6 n=d5 v=88
352320 On ch=6 n=d4 v=88
352320 On ch=6 n=a4 v=88
354240 On ch=6 n=a4 v=0
354240 On ch=6 n=d4 v=0
354240 On ch=6 n=d5 v=0
354240 On ch=6 n=f#4 v=0
355200 Par ch=6 c=64 v=0
355680 On ch=6 n=d3 v=41
355836 On ch=6 n=d3 v=0
355920 On ch=6 n=d3 v=44
356076 On ch=6 n=d3 v=0
356160 On ch=6 n=a3 v=47
356316 On ch=6 n=a3 v=0
356400 On ch=6 n=b3 v=50
356556 On ch=6 n=b3 v=0
356640 On ch=6 n=c4 v=55
357360 On ch=6 n=c4 v=0
357360 On ch=6 n=b3 v=53
358080 On ch=6 n=b3 v=0
358080 On ch=6 n=a3 v=51
358800 On ch=6 n=a3 v=0
358800 On ch=6 n=g3 v=49
359520 On ch=6 n=g3 v=0
359520 On ch=6 n=c4 v=47
360240 On ch=6 n=c5 v=45
360960 On ch=6 n=c5 v=0
360960 On ch=6 n=c4 v=0
360960 On ch=6 n=d4 v=43
360960 On ch=6 n=b4 v=43
361680 On ch=6 n=b4 v=0
361680 On ch=6 n=d4 v=0
361680 On ch=6 n=d4 v=41
361680 On ch=6 n=a4 v=41
362400 On ch=6 n=a4 v=0
362400 On ch=6 n=d4 v=0
362400 On ch=6 n=g3 v=42
363032 On ch=6 n=g3 v=0
363120 On ch=6 n=g3 v=44
363752 On ch=6 n=g3 v=0
363840 On ch=6 n=g3 v=47
364472 On ch=6 n=g3 v=0
364560 On ch=6 n=g3 v=50
365192 On ch=6 n=g3 v=0
365280 On ch=6 n=g3 v=53
365912 On ch=6 n=g3 v=0
366000 On ch=6 n=g3 v=55
366632 On ch=6 n=g3 v=0
366720 On ch=6 n=g3 v=58
367352 On ch=6 n=g3 v=0
367440 On ch=6 n=g3 v=61
368072 On ch=6 n=g3 v=0
368160 On ch=6 n=g3 v=64
368792 On ch=6 n=g3 v=0
368880 On ch=6 n=g3 v=66
369512 On ch=6 n=g3 v=0
369600 On ch=6 n=g3 v=69
370232 On ch=6 n=g3 v=0
370320 On ch=6 n=g3 v=72
370952 On ch=6 n=g3 v=0
371040 On ch=6 n=g3 v=75
371672 On ch=6 n=g3 v=0
371760 On ch=6 n=g3 v=77
372392 On ch=6 n=g3 v=0
372480 On ch=6 n=g3 v=80
373112 On ch=6 n=g3 v=0
373200 On ch=6 n=g3 v=83
373832 On ch=6 n=g3 v=0
373920 On ch=6 n=g3 v=85
374552 On ch=6 n=g3 v=0
374640 On ch=6 n=g3 v=88
375272 On ch=6 n=g3 v=0
375360 On ch=6 n=g3 v=91
375992 On ch=6 n=g3 v=0
376080 On ch=6 n=g3 v=94
376712 On ch=6 n=g3 v=0
376800 On ch=6 n=g3 v=96
377432 On ch=6 n=g3 v=0
377520 On ch=6 n=g3 v=99
378152 On ch=6 n=g3 v=0
378240 On ch=6 n=g3 v=99
378720 On ch=6 n=g3 v=0
378720 Meta TrkEnd
TrkEnd
