MFile 1 6 480
MTrk
0 TimeSig 4/4 24 8
0 Tempo 600000
1920 Tempo 434782
2880 Tempo 419580
4200 Tempo 425531
4320 Tempo 419580
8880 Tempo 419580
9360 Tempo 447761
9600 Tempo 434782
10560 Tempo 419580
11880 Tempo 425531
12000 Tempo 419580
13440 Tempo 425531
16260 Tempo 425531
16560 Tempo 419580
17160 Tempo 425531
17280 Tempo 419580
19080 Tempo 425531
19200 Tempo 419580
21000 Tempo 425531
22920 Tempo 428571
23040 Tempo 425531
24855 Tempo 428571
24960 Tempo 419580
26760 Tempo 425531
26880 Tempo 419580
28680 Tempo 425531
28800 Tempo 419580
32625 Tempo 425531
32640 Tempo 419580
36465 Tempo 425531
36480 Tempo 419580
38400 Tempo 425531
39360 Tempo 428571
39600 Tempo 425531
42120 Tempo 428571
42240 Tempo 425531
43440 Tempo 425531
44040 Tempo 428571
44160 Tempo 425531
45960 Tempo 428571
46080 Tempo 425531
47880 Tempo 428571
48000 Tempo 425531
49800 Tempo 428571
49920 Tempo 425531
51720 Tempo 428571
51840 Tempo 425531
53640 Tempo 428571
55560 Tempo 434782
55680 Tempo 425531
57480 Tempo 428571
57600 Tempo 425531
59400 Tempo 428571
59520 Tempo 425531
61320 Tempo 428571
61440 Tempo 425531
63240 Tempo 428571
63360 Tempo 425531
65160 Tempo 428571
65280 Tempo 425531
67080 Tempo 428571
68880 Tempo 434782
69120 Tempo 419580
72840 Tempo 425531
72960 Tempo 419580
76560 Tempo 425531
76800 Tempo 419580
80520 Tempo 425531
80640 Tempo 419580
81825 Tempo 425531
82305 Tempo 434782
82560 Tempo 419580
84360 Tempo 425531
84480 Tempo 419580
86280 Tempo 425531
88200 Tempo 434782
88320 Tempo 419580
90120 Tempo 425531
90240 Tempo 419580
92040 Tempo 425531
93960 Tempo 434782
94080 Tempo 419580
99720 Tempo 425531
99840 Tempo 434782
100320 Tempo 441176
100800 Tempo 500000
101280 Tempo 461538
101760 Tempo 434782
101760 Meta Marker "Piano Sonata No.20 copy"
102720 Tempo 419580
103680 Meta Marker "Bunji Hisamori copy"
104040 Tempo 425531
104160 Tempo 419580
105600 Meta Marker "Mar. 1998 copy"
107520 Meta Marker "June 1999,  Rev.1 copy"
108420 Tempo 425531
108720 Tempo 419580
109200 Tempo 447761
109440 Tempo 434782
110400 Tempo 419580
111720 Tempo 425531
111840 Tempo 419580
113280 Tempo 425531
116100 Tempo 425531
116400 Tempo 419580
117000 Tempo 425531
117120 Tempo 419580
118920 Tempo 425531
119040 Tempo 419580
120840 Tempo 425531
122760 Tempo 428571
122880 Tempo 425531
124695 Tempo 428571
124800 Tempo 419580
126600 Tempo 425531
126720 Tempo 419580
128520 Tempo 425531
128640 Tempo 419580
132465 Tempo 425531
132480 Tempo 419580
136305 Tempo 425531
136320 Tempo 419580
138240 Tempo 425531
139200 Tempo 428571
139440 Tempo 425531
141960 Tempo 428571
142080 Tempo 425531
143280 Tempo 425531
143880 Tempo 428571
144000 Tempo 425531
145800 Tempo 428571
145920 Tempo 425531
147720 Tempo 428571
147840 Tempo 425531
149640 Tempo 428571
149760 Tempo 425531
151560 Tempo 428571
151680 Tempo 425531
153480 Tempo 428571
155400 Tempo 434782
155520 Tempo 425531
157320 Tempo 428571
157440 Tempo 425531
159240 Tempo 428571
159360 Tempo 425531
161160 Tempo 428571
161280 Tempo 425531
163080 Tempo 428571
163200 Tempo 425531
165000 Tempo 428571
165120 Tempo 425531
166920 Tempo 428571
168720 Tempo 434782
168960 Tempo 419580
172680 Tempo 425531
172800 Tempo 419580
176400 Tempo 425531
176640 Tempo 419580
180360 Tempo 425531
180480 Tempo 419580
181665 Tempo 425531
182145 Tempo 434782
182400 Tempo 419580
184200 Tempo 425531
184320 Tempo 419580
186120 Tempo 425531
188040 Tempo 434782
188160 Tempo 419580
189960 Tempo 425531
190080 Tempo 419580
191880 Tempo 425531
193800 Tempo 434782
193920 Tempo 419580
199560 Tempo 425531
199680 Tempo 434782
200160 Tempo 441176
200640 Tempo 500000
201120 Tempo 461538
201600 Tempo 428571
201600 Meta Marker "New Marker 7"
202560 Tempo 419580
203520 Tempo 425531
203640 Tempo 419580
206880 Tempo 425531
207360 Tempo 419580
209280 Tempo 425531
209400 Tempo 419580
213000 Tempo 425531
213120 Tempo 419580
216705 Tempo 425531
216960 Tempo 419580
220545 Tempo 425531
220800 Tempo 419580
222600 Tempo 425531
222720 Tempo 419580
224520 Tempo 425531
224640 Tempo 419580
228045 Tempo 425531
228240 Tempo 447761
228480 Tempo 434782
229440 Tempo 419580
230760 Tempo 425531
230880 Tempo 419580
235140 Tempo 425531
235440 Tempo 419580
235920 Tempo 447761
236160 Tempo 434782
237120 Tempo 419580
238440 Tempo 425531
238560 Tempo 419580
240000 Tempo 425531
243600 Tempo 434782
243840 Tempo 419580
247560 Tempo 425531
247680 Tempo 419580
251280 Tempo 425531
251520 Tempo 419580
255240 Tempo 425531
255360 Tempo 419580
257160 Tempo 425531
257280 Tempo 419580
261105 Tempo 425531
261120 Tempo 419580
264945 Tempo 425531
264960 Tempo 419580
266880 Tempo 425531
267840 Tempo 428571
268080 Tempo 425531
270600 Tempo 428571
270720 Tempo 425531
271920 Tempo 425531
272520 Tempo 428571
272640 Tempo 425531
274440 Tempo 428571
274560 Tempo 425531
276360 Tempo 428571
276480 Tempo 425531
278280 Tempo 428571
278400 Tempo 425531
280200 Tempo 428571
280320 Tempo 425531
282120 Tempo 428571
284040 Tempo 434782
284160 Tempo 425531
285960 Tempo 428571
286080 Tempo 425531
287880 Tempo 428571
288000 Tempo 425531
289800 Tempo 428571
289920 Tempo 425531
291720 Tempo 428571
291840 Tempo 425531
293640 Tempo 428571
293760 Tempo 425531
295560 Tempo 428571
297360 Tempo 434782
297600 Tempo 419580
301320 Tempo 425531
301440 Tempo 419580
305040 Tempo 425531
305280 Tempo 419580
309000 Tempo 425531
309120 Tempo 419580
310305 Tempo 425531
310785 Tempo 434782
311040 Tempo 419580
312840 Tempo 425531
312960 Tempo 419580
314760 Tempo 425531
316680 Tempo 434782
316800 Tempo 419580
318600 Tempo 425531
318720 Tempo 419580
320520 Tempo 425531
322440 Tempo 434782
322560 Tempo 419580
326400 Tempo 419580
332040 Tempo 425531
332160 Tempo 434782
332640 Tempo 441176
333120 Tempo 500000
333600 Tempo 487804
334080 Tempo 508474
335050 Tempo 1111111
336000 TimeSig 3/4 24 8
336810 Meta Marker "<2>"
336960 Tempo 600000
340320 Tempo 600000
342705 Tempo 600000
347520 Tempo 612244
348240 Tempo 652173
348480 Tempo 612244
353760 Tempo 652173
354240 Tempo 600000
365280 Tempo 652173
365745 Tempo 600000
367560 Tempo 612244
367680 Tempo 600000
369000 Tempo 612244
369120 Tempo 600000
370545 Tempo 612244
370560 Tempo 600000
371880 Tempo 625000
372000 Tempo 600000
373320 Tempo 612244
373440 Tempo 600000
374790 Tempo 612244
376200 Tempo 625000
376320 Tempo 600000
381960 Tempo 612244
382080 Tempo 600000
387720 Tempo 612244
387840 Tempo 600000
389160 Tempo 612244
389280 Tempo 600000
390600 Tempo 612244
392040 Tempo 625000
392160 Tempo 600000
394920 Tempo 612244
396360 Tempo 625000
396480 Tempo 600000
399240 Tempo 612244
399360 Tempo 600000
402120 Tempo 612244
402240 Tempo 600000
403665 Tempo 612244
404040 Tempo 638297
404400 Tempo 674157
404520 Tempo 638297
405030 Tempo 638297
405120 Tempo 600000
415200 Tempo 612244
415920 Tempo 652173
416145 Tempo 612244
421680 Tempo 625000
421905 Tempo 600000
432480 Tempo 612244
432945 Tempo 638297
433455 Tempo 600000
438840 Tempo 612244
438960 Tempo 600000
444600 Tempo 612244
444720 Tempo 600000
450360 Tempo 612244
450480 Tempo 600000
456840 Tempo 612244
456960 Tempo 600000
461850 Tempo 612244
462000 Tempo 674157
462285 Tempo 600000
472800 Tempo 612244
473520 Tempo 652173
473775 Tempo 600000
479280 Tempo 652173
479550 Tempo 600000
490080 Tempo 612244
490560 Tempo 652173
491040 Tempo 600000
501480 Tempo 612244
501600 Tempo 600000
506280 Tempo 612244
506880 Tempo 625000
507330 Tempo 638297
508335 Tempo 845070
508800 Tempo 1111111
508800 Meta TrkEnd
TrkEnd
MTrk
0 SeqSpec 43 00 01 00
0 Meta TrkName "No Name"
0 Par ch=2 c=0 v=0
0 Par ch=2 c=32 v=0
0 PrCh ch=2 p=0
0 Par ch=2 c=7 v=127
0 Pb ch=2 v=8192
0 Par ch=2 c=1 v=0
0 Par ch=2 c=64 v=0
0 Par ch=2 c=93 v=28
0 Par ch=2 c=91 v=100
0 Par ch=2 c=10 v=73
1920 Par ch=2 c=64 v=0
1920 On ch=2 n=g5 v=81
2880 On ch=2 n=g5 v=0
2880 On ch=2 n=d5 v=77
3040 On ch=2 n=d5 v=0
3040 On ch=2 n=g5 v=76
3200 On ch=2 n=g5 v=0
3200 On ch=2 n=b5 v=75
3360 On ch=2 n=b5 v=0
3360 On ch=2 n=d6 v=75
3520 On ch=2 n=d6 v=0
3520 On ch=2 n=c6 v=74
3680 On ch=2 n=c6 v=0
3680 On ch=2 n=a5 v=73
3840 On ch=2 n=a5 v=0
3840 On ch=2 n=g5 v=71
4320 On ch=2 n=g5 v=0
4320 On ch=2 n=g5 v=57
4800 On ch=2 n=g5 v=0
4800 On ch=2 n=f#5 v=55
5280 On ch=2 n=f#5 v=0
5280 On ch=2 n=g5 v=52
5760 On ch=2 n=g5 v=0
5760 On ch=2 n=a5 v=50
6480 On ch=2 n=a5 v=0
6480 On ch=2 n=a5 v=53
6720 On ch=2 n=a5 v=0
6720 On ch=2 n=b5 v=55
7440 On ch=2 n=b5 v=0
7440 On ch=2 n=b5 v=58
7680 On ch=2 n=b5 v=0
7680 On ch=2 n=d6 v=59
8160 On ch=2 n=d6 v=0
8160 On ch=2 n=c6 v=54
8220 On ch=2 n=c6 v=0
8220 On ch=2 n=d6 v=52
8280 On ch=2 n=d6 v=0
8280 On ch=2 n=c6 v=51
8340 On ch=2 n=c6 v=0
8340 On ch=2 n=d6 v=50
8400 On ch=2 n=d6 v=0
8400 On ch=2 n=c6 v=49
8440 On ch=2 n=c6 v=0
8440 On ch=2 n=d6 v=48
8480 On ch=2 n=d6 v=0
8480 On ch=2 n=c6 v=47
8520 On ch=2 n=c6 v=0
8520 On ch=2 n=b5 v=46
8580 On ch=2 n=b5 v=0
8580 On ch=2 n=c6 v=45
8640 On ch=2 n=c6 v=0
8640 On ch=2 n=b5 v=43
9120 On ch=2 n=b5 v=0
9600 On ch=2 n=g6 v=79
10560 On ch=2 n=g6 v=0
10560 On ch=2 n=d6 v=75
10720 On ch=2 n=d6 v=0
10720 On ch=2 n=g6 v=74
10880 On ch=2 n=g6 v=0
10880 On ch=2 n=b6 v=73
11040 On ch=2 n=b6 v=0
11040 On ch=2 n=d7 v=72
11200 On ch=2 n=d7 v=0
11200 On ch=2 n=c7 v=72
11360 On ch=2 n=c7 v=0
11360 On ch=2 n=a6 v=71
11520 On ch=2 n=a6 v=0
11520 On ch=2 n=g6 v=68
12000 On ch=2 n=g6 v=0
12000 On ch=2 n=g6 v=56
12480 On ch=2 n=g6 v=0
12480 On ch=2 n=f#6 v=53
12960 On ch=2 n=f#6 v=0
12960 On ch=2 n=g6 v=51
13440 On ch=2 n=g6 v=0
13440 On ch=2 n=a6 v=51
14160 On ch=2 n=a6 v=0
14160 On ch=2 n=a6 v=55
14400 On ch=2 n=a6 v=0
14400 On ch=2 n=b6 v=56
15120 On ch=2 n=b6 v=0
15120 On ch=2 n=b6 v=59
15360 On ch=2 n=b6 v=0
15360 On ch=2 n=d7 v=61
15840 On ch=2 n=d7 v=0
15840 On ch=2 n=c7 v=53
15900 On ch=2 n=c7 v=0
15900 On ch=2 n=d7 v=52
15960 On ch=2 n=d7 v=0
15960 On ch=2 n=c7 v=51
16020 On ch=2 n=c7 v=0
16020 On ch=2 n=d7 v=50
16080 On ch=2 n=d7 v=0
16080 On ch=2 n=c7 v=48
16120 On ch=2 n=c7 v=0
16120 On ch=2 n=d7 v=47
16160 On ch=2 n=d7 v=0
16160 On ch=2 n=c7 v=47
16200 On ch=2 n=c7 v=0
16200 On ch=2 n=b6 v=46
16260 On ch=2 n=b6 v=0
16260 On ch=2 n=c7 v=44
16320 On ch=2 n=c7 v=0
16320 On ch=2 n=b6 v=43
16560 On ch=2 n=b6 v=0
16560 On ch=2 n=c7 v=50
16800 On ch=2 n=c7 v=0
16800 On ch=2 n=c#7 v=52
17040 On ch=2 n=c#7 v=0
17040 On ch=2 n=d7 v=53
17280 On ch=2 n=d7 v=0
17280 On ch=2 n=d#7 v=57
17520 On ch=2 n=d#7 v=0
17520 On ch=2 n=e7 v=57
17760 On ch=2 n=e7 v=0
18000 On ch=2 n=e7 v=55
18240 On ch=2 n=e7 v=0
18240 On ch=2 n=d7 v=54
18480 On ch=2 n=d7 v=0
18480 On ch=2 n=c7 v=54
18720 On ch=2 n=c7 v=0
18720 On ch=2 n=b6 v=53
18960 On ch=2 n=b6 v=0
18960 On ch=2 n=a6 v=52
19200 On ch=2 n=a6 v=0
19200 On ch=2 n=c#7 v=52
19440 On ch=2 n=c#7 v=0
19440 On ch=2 n=d7 v=51
19680 On ch=2 n=d7 v=0
19920 On ch=2 n=d7 v=49
20160 On ch=2 n=d7 v=0
20160 On ch=2 n=c7 v=49
20400 On ch=2 n=c7 v=0
20400 On ch=2 n=b6 v=48
20640 On ch=2 n=b6 v=0
20640 On ch=2 n=a6 v=47
20880 On ch=2 n=a6 v=0
20880 On ch=2 n=g6 v=46
21120 On ch=2 n=g6 v=0
21120 On ch=2 n=f#6 v=46
21360 On ch=2 n=f#6 v=0
21360 On ch=2 n=e6 v=45
21600 On ch=2 n=e6 v=0
21600 On ch=2 n=d6 v=44
21840 On ch=2 n=d6 v=0
21840 On ch=2 n=c6 v=43
22080 On ch=2 n=c6 v=0
22080 On ch=2 n=b5 v=43
22320 On ch=2 n=b5 v=0
22320 On ch=2 n=a5 v=42
22560 On ch=2 n=a5 v=0
22560 On ch=2 n=g5 v=41
22800 On ch=2 n=g5 v=0
22800 On ch=2 n=f#5 v=41
23040 On ch=2 n=f#5 v=0
23040 On ch=2 n=g5 v=40
23280 On ch=2 n=g5 v=0
23280 On ch=2 n=a5 v=42
23360 On ch=2 n=a5 v=0
23360 On ch=2 n=g5 v=42
23440 On ch=2 n=g5 v=0
23440 On ch=2 n=f#5 v=43
23520 On ch=2 n=f#5 v=0
23520 On ch=2 n=g5 v=43
23760 On ch=2 n=g5 v=0
23760 On ch=2 n=a5 v=45
24000 On ch=2 n=a5 v=0
24000 On ch=2 n=b5 v=47
24240 On ch=2 n=b5 v=0
24240 On ch=2 n=c6 v=48
24480 On ch=2 n=c6 v=0
24480 On ch=2 n=c#6 v=50
24720 On ch=2 n=c#6 v=0
24720 On ch=2 n=d6 v=51
24960 On ch=2 n=d6 v=0
24960 On ch=2 n=d#6 v=53
25200 On ch=2 n=d#6 v=0
25200 On ch=2 n=e6 v=54
25440 On ch=2 n=e6 v=0
25680 On ch=2 n=e6 v=58
25920 On ch=2 n=e6 v=0
25920 On ch=2 n=d6 v=59
26160 On ch=2 n=d6 v=0
26160 On ch=2 n=c6 v=61
26400 On ch=2 n=c6 v=0
26400 On ch=2 n=b5 v=62
26640 On ch=2 n=b5 v=0
26640 On ch=2 n=a5 v=64
26880 On ch=2 n=a5 v=0
26880 On ch=2 n=d#6 v=65
27120 On ch=2 n=d#6 v=0
27120 On ch=2 n=e6 v=69
27360 On ch=2 n=e6 v=0
27600 On ch=2 n=e6 v=76
27840 On ch=2 n=e6 v=0
27840 On ch=2 n=e6 v=76
28080 On ch=2 n=e6 v=0
28080 On ch=2 n=c#6 v=74
28320 On ch=2 n=c#6 v=0
28320 On ch=2 n=a5 v=72
28560 On ch=2 n=a5 v=0
28560 On ch=2 n=g5 v=70
28800 On ch=2 n=g5 v=0
28800 On ch=2 n=f#5 v=68
29280 On ch=2 n=f#5 v=0
29280 On ch=2 n=a6 v=83
29440 On ch=2 n=a6 v=0
29440 On ch=2 n=f#6 v=83
29600 On ch=2 n=f#6 v=0
29600 On ch=2 n=d6 v=82
29760 On ch=2 n=d6 v=0
29760 On ch=2 n=c6 v=82
30240 On ch=2 n=c6 v=0
30240 On ch=2 n=a6 v=82
30400 On ch=2 n=a6 v=0
30400 On ch=2 n=f#6 v=81
30560 On ch=2 n=f#6 v=0
30560 On ch=2 n=c6 v=81
30720 On ch=2 n=c6 v=0
30720 On ch=2 n=b5 v=81
31200 On ch=2 n=b5 v=0
31200 On ch=2 n=g6 v=81
31360 On ch=2 n=g6 v=0
31360 On ch=2 n=d6 v=80
31520 On ch=2 n=d6 v=0
31520 On ch=2 n=b5 v=80
31680 On ch=2 n=b5 v=0
31680 On ch=2 n=g5 v=80
32160 On ch=2 n=g5 v=0
32160 On ch=2 n=d6 v=79
32320 On ch=2 n=d6 v=0
32320 On ch=2 n=b5 v=79
32480 On ch=2 n=b5 v=0
32480 On ch=2 n=g5 v=79
32640 On ch=2 n=g5 v=0
32640 On ch=2 n=f#5 v=79
33120 On ch=2 n=f#5 v=0
33120 On ch=2 n=a6 v=78
33280 On ch=2 n=a6 v=0
33280 On ch=2 n=f#6 v=78
33440 On ch=2 n=f#6 v=0
33440 On ch=2 n=d6 v=78
33600 On ch=2 n=d6 v=0
33600 On ch=2 n=c6 v=78
34080 On ch=2 n=c6 v=0
34080 On ch=2 n=a6 v=77
34240 On ch=2 n=a6 v=0
34240 On ch=2 n=f#6 v=77
34400 On ch=2 n=f#6 v=0
34400 On ch=2 n=c6 v=77
34560 On ch=2 n=c6 v=0
34560 On ch=2 n=b5 v=76
35040 On ch=2 n=b5 v=0
35040 On ch=2 n=g6 v=76
35200 On ch=2 n=g6 v=0
35200 On ch=2 n=d6 v=76
35360 On ch=2 n=d6 v=0
35360 On ch=2 n=b5 v=75
35520 On ch=2 n=b5 v=0
35520 On ch=2 n=g5 v=75
36000 On ch=2 n=g5 v=0
36000 On ch=2 n=d6 v=75
36160 On ch=2 n=d6 v=0
36160 On ch=2 n=b5 v=74
36320 On ch=2 n=b5 v=0
36320 On ch=2 n=g5 v=74
36480 On ch=2 n=g5 v=0
36480 On ch=2 n=d5 v=74
36960 On ch=2 n=d5 v=0
36960 On ch=2 n=d6 v=74
37120 On ch=2 n=d6 v=0
37120 On ch=2 n=b5 v=73
37280 On ch=2 n=b5 v=0
37280 On ch=2 n=g5 v=73
37440 On ch=2 n=g5 v=0
37440 On ch=2 n=d5 v=73
37920 On ch=2 n=d5 v=0
37920 On ch=2 n=d6 v=73
38080 On ch=2 n=d6 v=0
38080 On ch=2 n=b5 v=72
38240 On ch=2 n=b5 v=0
38240 On ch=2 n=g5 v=71
38400 On ch=2 n=g5 v=0
38400 On ch=2 n=d5 v=70
38880 On ch=2 n=d5 v=0
39600 On ch=2 n=a5 v=40
39840 On ch=2 n=a5 v=0
39840 On ch=2 n=a5 v=41
40080 On ch=2 n=a5 v=0
40080 On ch=2 n=a5 v=41
40320 On ch=2 n=a5 v=0
40320 On ch=2 n=d6 v=42
40800 On ch=2 n=d6 v=0
40800 On ch=2 n=c#6 v=43
41280 On ch=2 n=c#6 v=0
41280 On ch=2 n=d6 v=45
41760 On ch=2 n=d6 v=0
41760 On ch=2 n=e6 v=46
42240 On ch=2 n=e6 v=0
42240 On ch=2 n=g6 v=49
42480 On ch=2 n=g6 v=0
42480 On ch=2 n=f#6 v=47
42720 On ch=2 n=f#6 v=0
42720 On ch=2 n=e6 v=45
43200 On ch=2 n=e6 v=0
43440 On ch=2 n=a5 v=42
43680 On ch=2 n=a5 v=0
43680 On ch=2 n=a5 v=43
43920 On ch=2 n=a5 v=0
43920 On ch=2 n=a5 v=43
44160 On ch=2 n=a5 v=0
44160 On ch=2 n=e6 v=44
44640 On ch=2 n=e6 v=0
44640 On ch=2 n=d6 v=46
45120 On ch=2 n=d6 v=0
45120 On ch=2 n=e6 v=48
45600 On ch=2 n=e6 v=0
45600 On ch=2 n=f#6 v=49
46080 On ch=2 n=f#6 v=0
46080 On ch=2 n=a6 v=53
46320 On ch=2 n=a6 v=0
46320 On ch=2 n=g6 v=51
46560 On ch=2 n=g6 v=0
46560 On ch=2 n=f#6 v=49
47040 On ch=2 n=f#6 v=0
47280 On ch=2 n=a6 v=46
47520 On ch=2 n=a6 v=0
47520 On ch=2 n=g6 v=46
47760 On ch=2 n=g6 v=0
47760 On ch=2 n=f#6 v=46
48000 On ch=2 n=f#6 v=0
48000 On ch=2 n=f#6 v=47
48240 On ch=2 n=f#6 v=0
48240 On ch=2 n=e6 v=47
48396 On ch=2 n=e6 v=0
48480 On ch=2 n=e6 v=47
48636 On ch=2 n=e6 v=0
48720 On ch=2 n=e6 v=47
48876 On ch=2 n=e6 v=0
48960 On ch=2 n=d6 v=47
49200 On ch=2 n=d6 v=0
49200 On ch=2 n=a6 v=47
49440 On ch=2 n=a6 v=0
49440 On ch=2 n=g6 v=48
49680 On ch=2 n=g6 v=0
49680 On ch=2 n=f#6 v=48
49920 On ch=2 n=f#6 v=0
49920 On ch=2 n=f#6 v=48
50160 On ch=2 n=f#6 v=0
50160 On ch=2 n=e6 v=48
50316 On ch=2 n=e6 v=0
50400 On ch=2 n=e6 v=48
50556 On ch=2 n=e6 v=0
50640 On ch=2 n=e6 v=49
50796 On ch=2 n=e6 v=0
50880 On ch=2 n=d6 v=49
51120 On ch=2 n=d6 v=0
51120 On ch=2 n=a6 v=49
51360 On ch=2 n=a6 v=0
51360 On ch=2 n=g6 v=49
51600 On ch=2 n=g6 v=0
51600 On ch=2 n=f#6 v=49
51840 On ch=2 n=f#6 v=0
51840 On ch=2 n=f#6 v=51
52080 On ch=2 n=f#6 v=0
52080 On ch=2 n=e6 v=50
52236 On ch=2 n=e6 v=0
52560 On ch=2 n=e6 v=48
52716 On ch=2 n=e6 v=0
52800 On ch=2 n=e6 v=47
53040 On ch=2 n=e6 v=0
53040 On ch=2 n=d6 v=46
53196 On ch=2 n=d6 v=0
53520 On ch=2 n=d6 v=45
53760 On ch=2 n=d6 v=0
53760 On ch=2 n=d6 v=44
54000 On ch=2 n=d6 v=0
54000 On ch=2 n=c#6 v=45
54240 On ch=2 n=c#6 v=0
54240 On ch=2 n=b5 v=46
54480 On ch=2 n=b5 v=0
54480 On ch=2 n=a5 v=47
54720 On ch=2 n=a5 v=0
54720 On ch=2 n=g#5 v=48
54960 On ch=2 n=g#5 v=0
54960 On ch=2 n=a5 v=49
55200 On ch=2 n=a5 v=0
55200 On ch=2 n=b5 v=50
55440 On ch=2 n=b5 v=0
55440 On ch=2 n=c#6 v=51
55680 On ch=2 n=c#6 v=0
55680 On ch=2 n=d6 v=52
56160 On ch=2 n=d6 v=0
56160 On ch=2 n=c#6 v=53
56640 On ch=2 n=c#6 v=0
56640 On ch=2 n=d6 v=55
57120 On ch=2 n=d6 v=0
57120 On ch=2 n=e6 v=57
57600 On ch=2 n=e6 v=0
57600 On ch=2 n=g6 v=61
57840 On ch=2 n=g6 v=0
57840 On ch=2 n=f#6 v=59
58080 On ch=2 n=f#6 v=0
58080 On ch=2 n=e6 v=57
58560 On ch=2 n=e6 v=0
58800 On ch=2 n=a5 v=52
59040 On ch=2 n=a5 v=0
59040 On ch=2 n=a5 v=53
59280 On ch=2 n=a5 v=0
59280 On ch=2 n=a5 v=54
59520 On ch=2 n=a5 v=0
59520 On ch=2 n=e6 v=55
60000 On ch=2 n=e6 v=0
60000 On ch=2 n=d6 v=57
60480 On ch=2 n=d6 v=0
60480 On ch=2 n=e6 v=59
60960 On ch=2 n=e6 v=0
60960 On ch=2 n=f#6 v=61
61440 On ch=2 n=f#6 v=0
61440 On ch=2 n=a6 v=67
61680 On ch=2 n=a6 v=0
61680 On ch=2 n=g6 v=65
61920 On ch=2 n=g6 v=0
61920 On ch=2 n=f#6 v=63
62400 On ch=2 n=f#6 v=0
62640 On ch=2 n=a6 v=58
62880 On ch=2 n=a6 v=0
62880 On ch=2 n=g6 v=59
63120 On ch=2 n=g6 v=0
63120 On ch=2 n=f#6 v=59
63360 On ch=2 n=f#6 v=0
63360 On ch=2 n=f#6 v=59
63600 On ch=2 n=f#6 v=0
63600 On ch=2 n=e6 v=59
63756 On ch=2 n=e6 v=0
63840 On ch=2 n=e6 v=59
63996 On ch=2 n=e6 v=0
64080 On ch=2 n=e6 v=60
64236 On ch=2 n=e6 v=0
64320 On ch=2 n=d6 v=60
64560 On ch=2 n=d6 v=0
64560 On ch=2 n=a6 v=60
64800 On ch=2 n=a6 v=0
64800 On ch=2 n=g6 v=60
65040 On ch=2 n=g6 v=0
65040 On ch=2 n=f#6 v=60
65280 On ch=2 n=f#6 v=0
65280 On ch=2 n=f#6 v=61
65520 On ch=2 n=f#6 v=0
65520 On ch=2 n=e6 v=61
65676 On ch=2 n=e6 v=0
65760 On ch=2 n=e6 v=61
65916 On ch=2 n=e6 v=0
66000 On ch=2 n=e6 v=61
66156 On ch=2 n=e6 v=0
66240 On ch=2 n=d6 v=61
66480 On ch=2 n=d6 v=0
66480 On ch=2 n=a6 v=61
66720 On ch=2 n=a6 v=0
66720 On ch=2 n=g6 v=62
66960 On ch=2 n=g6 v=0
66960 On ch=2 n=f#6 v=62
67200 On ch=2 n=f#6 v=0
67200 On ch=2 n=f#6 v=65
67440 On ch=2 n=f#6 v=0
67440 On ch=2 n=e6 v=64
67680 On ch=2 n=e6 v=0
67680 On ch=2 n=g6 v=63
67920 On ch=2 n=g6 v=0
67920 On ch=2 n=e6 v=62
68160 On ch=2 n=e6 v=0
68160 On ch=2 n=e6 v=61
68400 On ch=2 n=e6 v=0
68400 On ch=2 n=d6 v=60
68556 On ch=2 n=d6 v=0
68640 On ch=2 n=d6 v=59
68880 On ch=2 n=d6 v=0
68880 On ch=2 n=c#6 v=58
69036 On ch=2 n=c#6 v=0
69060 On ch=2 n=d6 v=87
69120 On ch=2 n=a6 v=87
69280 On ch=2 n=a6 v=0
69280 On ch=2 n=g6 v=87
69285 On ch=2 n=d6 v=0
69440 On ch=2 n=g6 v=0
69440 On ch=2 n=f#6 v=87
69600 On ch=2 n=f#6 v=0
69600 On ch=2 n=e6 v=87
69760 On ch=2 n=e6 v=0
69760 On ch=2 n=d6 v=87
69920 On ch=2 n=d6 v=0
69920 On ch=2 n=c#6 v=86
70080 On ch=2 n=c#6 v=0
70080 On ch=2 n=b5 v=86
70240 On ch=2 n=b5 v=0
70240 On ch=2 n=a5 v=86
70400 On ch=2 n=a5 v=0
70400 On ch=2 n=g5 v=86
70560 On ch=2 n=g5 v=0
70560 On ch=2 n=f#5 v=85
70720 On ch=2 n=f#5 v=0
70720 On ch=2 n=e5 v=85
70880 On ch=2 n=e5 v=0
70880 On ch=2 n=d5 v=85
71040 On ch=2 n=d5 v=0
71040 On ch=2 n=c#5 v=85
71520 On ch=2 n=c#5 v=0
71520 On ch=2 n=c#5 v=84
72000 On ch=2 n=c#5 v=0
72000 On ch=2 n=c#5 v=84
72480 On ch=2 n=c#5 v=0
72480 On ch=2 n=c#5 v=83
72960 On ch=2 n=c#5 v=0
72960 On ch=2 n=d5 v=82
73120 On ch=2 n=d5 v=0
73120 On ch=2 n=e5 v=82
73280 On ch=2 n=e5 v=0
73280 On ch=2 n=f#5 v=82
73440 On ch=2 n=f#5 v=0
73440 On ch=2 n=g5 v=82
73600 On ch=2 n=g5 v=0
73600 On ch=2 n=a5 v=81
73760 On ch=2 n=a5 v=0
73760 On ch=2 n=b5 v=81
73920 On ch=2 n=b5 v=0
73920 On ch=2 n=c#6 v=81
74080 On ch=2 n=c#6 v=0
74080 On ch=2 n=d6 v=81
74240 On ch=2 n=d6 v=0
74240 On ch=2 n=e6 v=81
74400 On ch=2 n=e6 v=0
74400 On ch=2 n=f#6 v=80
74560 On ch=2 n=f#6 v=0
74560 On ch=2 n=g6 v=80
74720 On ch=2 n=g6 v=0
74720 On ch=2 n=a6 v=80
74880 On ch=2 n=a6 v=0
74880 On ch=2 n=g6 v=80
75360 On ch=2 n=g6 v=0
75360 On ch=2 n=g6 v=79
75840 On ch=2 n=g6 v=0
75840 On ch=2 n=g6 v=78
76320 On ch=2 n=g6 v=0
76320 On ch=2 n=g6 v=78
76740 On ch=2 n=d6 v=77
76747 On ch=2 n=g6 v=0
76800 On ch=2 n=a6 v=77
76957 On ch=2 n=d6 v=0
76960 On ch=2 n=a6 v=0
76960 On ch=2 n=g6 v=77
77120 On ch=2 n=g6 v=0
77120 On ch=2 n=f#6 v=77
77280 On ch=2 n=f#6 v=0
77280 On ch=2 n=e6 v=77
77440 On ch=2 n=e6 v=0
77440 On ch=2 n=d6 v=76
77600 On ch=2 n=d6 v=0
77600 On ch=2 n=c#6 v=76
77760 On ch=2 n=c#6 v=0
77760 On ch=2 n=b5 v=76
77920 On ch=2 n=b5 v=0
77920 On ch=2 n=a5 v=76
78080 On ch=2 n=a5 v=0
78080 On ch=2 n=g5 v=75
78240 On ch=2 n=g5 v=0
78240 On ch=2 n=f#5 v=75
78400 On ch=2 n=f#5 v=0
78400 On ch=2 n=e5 v=75
78560 On ch=2 n=e5 v=0
78560 On ch=2 n=d5 v=75
78720 On ch=2 n=d5 v=0
78720 On ch=2 n=c5 v=75
79200 On ch=2 n=c5 v=0
79200 On ch=2 n=c5 v=74
79680 On ch=2 n=c5 v=0
79680 On ch=2 n=c5 v=73
80160 On ch=2 n=c5 v=0
80160 On ch=2 n=c5 v=73
80640 On ch=2 n=c5 v=0
80640 On ch=2 n=b4 v=72
80800 On ch=2 n=b4 v=0
80800 On ch=2 n=e5 v=72
80960 On ch=2 n=e5 v=0
80960 On ch=2 n=g5 v=72
81120 On ch=2 n=g5 v=0
81120 On ch=2 n=b5 v=71
81280 On ch=2 n=b5 v=0
81280 On ch=2 n=g5 v=71
81440 On ch=2 n=g5 v=0
81440 On ch=2 n=e5 v=71
81600 On ch=2 n=e5 v=0
81600 On ch=2 n=d5 v=71
82080 On ch=2 n=d5 v=0
82080 On ch=2 n=f#5 v=68
82320 On ch=2 n=f#5 v=0
82320 On ch=2 n=e5 v=66
82560 On ch=2 n=e5 v=0
82560 On ch=2 n=d5 v=71
82720 On ch=2 n=d5 v=0
82720 On ch=2 n=e5 v=72
82880 On ch=2 n=e5 v=0
82880 On ch=2 n=f#5 v=74
83040 On ch=2 n=f#5 v=0
83040 On ch=2 n=g5 v=76
83200 On ch=2 n=g5 v=0
83200 On ch=2 n=a5 v=77
83360 On ch=2 n=a5 v=0
83360 On ch=2 n=b5 v=79
83520 On ch=2 n=b5 v=0
83520 On ch=2 n=c#6 v=80
83680 On ch=2 n=c#6 v=0
83680 On ch=2 n=d6 v=82
83840 On ch=2 n=d6 v=0
83840 On ch=2 n=e6 v=84
84000 On ch=2 n=e6 v=0
84000 On ch=2 n=f#6 v=85
84160 On ch=2 n=f#6 v=0
84160 On ch=2 n=g6 v=87
84320 On ch=2 n=g6 v=0
84320 On ch=2 n=a6 v=88
84480 On ch=2 n=a6 v=0
84480 On ch=2 n=b6 v=97
86400 On ch=2 n=b6 v=0
86400 On ch=2 n=a6 v=76
86592 On ch=2 n=a6 v=0
86880 On ch=2 n=g6 v=71
87072 On ch=2 n=g6 v=0
87360 On ch=2 n=f#6 v=66
87552 On ch=2 n=f#6 v=0
87840 On ch=2 n=e6 v=61
88032 On ch=2 n=e6 v=0
88320 On ch=2 n=a6 v=66
88480 On ch=2 n=a6 v=0
88480 On ch=2 n=g6 v=67
88640 On ch=2 n=g6 v=0
88640 On ch=2 n=f#6 v=69
88800 On ch=2 n=f#6 v=0
88800 On ch=2 n=e6 v=71
88960 On ch=2 n=e6 v=0
88960 On ch=2 n=d6 v=73
89120 On ch=2 n=d6 v=0
89120 On ch=2 n=c#6 v=74
89280 On ch=2 n=c#6 v=0
89280 On ch=2 n=b5 v=76
89440 On ch=2 n=b5 v=0
89440 On ch=2 n=a5 v=78
89600 On ch=2 n=a5 v=0
89600 On ch=2 n=g5 v=80
89760 On ch=2 n=g5 v=0
89760 On ch=2 n=f#5 v=82
89920 On ch=2 n=f#5 v=0
89920 On ch=2 n=e5 v=83
90080 On ch=2 n=e5 v=0
90080 On ch=2 n=d5 v=85
90240 On ch=2 n=d5 v=0
90240 On ch=2 n=b5 v=89
92160 On ch=2 n=b5 v=0
92160 On ch=2 n=a5 v=68
92352 On ch=2 n=a5 v=0
92640 On ch=2 n=g5 v=63
92832 On ch=2 n=g5 v=0
93120 On ch=2 n=f#5 v=57
93312 On ch=2 n=f#5 v=0
93600 On ch=2 n=e5 v=52
93792 On ch=2 n=e5 v=0
94080 On ch=2 n=d5 v=85
94560 On ch=2 n=d5 v=0
94560 On ch=2 n=a6 v=84
94720 On ch=2 n=a6 v=0
94720 On ch=2 n=f#6 v=84
94880 On ch=2 n=f#6 v=0
94880 On ch=2 n=d6 v=84
95040 On ch=2 n=d6 v=0
95040 On ch=2 n=c#6 v=83
95520 On ch=2 n=c#6 v=0
95520 On ch=2 n=g6 v=82
95680 On ch=2 n=g6 v=0
95680 On ch=2 n=e6 v=82
95840 On ch=2 n=e6 v=0
95840 On ch=2 n=c#6 v=81
96000 On ch=2 n=c#6 v=0
96000 On ch=2 n=d6 v=81
96480 On ch=2 n=d6 v=0
96480 On ch=2 n=a5 v=80
96640 On ch=2 n=a5 v=0
96640 On ch=2 n=f#5 v=80
96800 On ch=2 n=f#5 v=0
96800 On ch=2 n=d5 v=79
96960 On ch=2 n=d5 v=0
96960 On ch=2 n=c#5 v=79
97440 On ch=2 n=c#5 v=0
97440 On ch=2 n=g5 v=78
97600 On ch=2 n=g5 v=0
97600 On ch=2 n=e5 v=78
97760 On ch=2 n=e5 v=0
97760 On ch=2 n=c#5 v=77
97920 On ch=2 n=c#5 v=0
97920 On ch=2 n=d5 v=77
98400 On ch=2 n=d5 v=0
98400 On ch=2 n=g5 v=76
98560 On ch=2 n=g5 v=0
98560 On ch=2 n=e5 v=76
98720 On ch=2 n=e5 v=0
98720 On ch=2 n=c#5 v=75
98880 On ch=2 n=c#5 v=0
98880 On ch=2 n=d5 v=75
99360 On ch=2 n=d5 v=0
99360 On ch=2 n=g5 v=74
99520 On ch=2 n=g5 v=0
99520 On ch=2 n=e5 v=73
99680 On ch=2 n=e5 v=0
99680 On ch=2 n=c#5 v=73
99840 On ch=2 n=c#5 v=0
99840 On ch=2 n=d5 v=73
100032 On ch=2 n=d5 v=0
100320 On ch=2 n=d5 v=70
100512 On ch=2 n=d5 v=0
100800 On ch=2 n=d5 v=65
100992 On ch=2 n=d5 v=0
101760 Par ch=2 c=64 v=0
101760 On ch=2 n=g5 v=81
102720 On ch=2 n=g5 v=0
102720 On ch=2 n=d5 v=77
102880 On ch=2 n=d5 v=0
102880 On ch=2 n=g5 v=76
103040 On ch=2 n=g5 v=0
103040 On ch=2 n=b5 v=75
103200 On ch=2 n=b5 v=0
103200 On ch=2 n=d6 v=75
103360 On ch=2 n=d6 v=0
103360 On ch=2 n=c6 v=74
103520 On ch=2 n=c6 v=0
103520 On ch=2 n=a5 v=73
103680 On ch=2 n=a5 v=0
103680 On ch=2 n=g5 v=71
104160 On ch=2 n=g5 v=0
104160 On ch=2 n=g5 v=57
104640 On ch=2 n=g5 v=0
104640 On ch=2 n=f#5 v=55
105120 On ch=2 n=f#5 v=0
105120 On ch=2 n=g5 v=52
105600 On ch=2 n=g5 v=0
105600 On ch=2 n=a5 v=50
106320 On ch=2 n=a5 v=0
106320 On ch=2 n=a5 v=53
106560 On ch=2 n=a5 v=0
106560 On ch=2 n=b5 v=55
107280 On ch=2 n=b5 v=0
107280 On ch=2 n=b5 v=58
107520 On ch=2 n=b5 v=0
107520 On ch=2 n=d6 v=59
108000 On ch=2 n=d6 v=0
108000 On ch=2 n=c6 v=54
108060 On ch=2 n=c6 v=0
108060 On ch=2 n=d6 v=52
108120 On ch=2 n=d6 v=0
108120 On ch=2 n=c6 v=51
108180 On ch=2 n=c6 v=0
108180 On ch=2 n=d6 v=50
108240 On ch=2 n=d6 v=0
108240 On ch=2 n=c6 v=49
108280 On ch=2 n=c6 v=0
108280 On ch=2 n=d6 v=48
108320 On ch=2 n=d6 v=0
108320 On ch=2 n=c6 v=47
108360 On ch=2 n=c6 v=0
108360 On ch=2 n=b5 v=46
108420 On ch=2 n=b5 v=0
108420 On ch=2 n=c6 v=45
108480 On ch=2 n=c6 v=0
108480 On ch=2 n=b5 v=43
108960 On ch=2 n=b5 v=0
109440 On ch=2 n=g6 v=79
110400 On ch=2 n=g6 v=0
110400 On ch=2 n=d6 v=75
110560 On ch=2 n=d6 v=0
110560 On ch=2 n=g6 v=74
110720 On ch=2 n=g6 v=0
110720 On ch=2 n=b6 v=73
110880 On ch=2 n=b6 v=0
110880 On ch=2 n=d7 v=72
111040 On ch=2 n=d7 v=0
111040 On ch=2 n=c7 v=72
111200 On ch=2 n=c7 v=0
111200 On ch=2 n=a6 v=71
111360 On ch=2 n=a6 v=0
111360 On ch=2 n=g6 v=68
111840 On ch=2 n=g6 v=0
111840 On ch=2 n=g6 v=56
112320 On ch=2 n=g6 v=0
112320 On ch=2 n=f#6 v=53
112800 On ch=2 n=f#6 v=0
112800 On ch=2 n=g6 v=51
113280 On ch=2 n=g6 v=0
113280 On ch=2 n=a6 v=51
114000 On ch=2 n=a6 v=0
114000 On ch=2 n=a6 v=55
114240 On ch=2 n=a6 v=0
114240 On ch=2 n=b6 v=56
114960 On ch=2 n=b6 v=0
114960 On ch=2 n=b6 v=59
115200 On ch=2 n=b6 v=0
115200 On ch=2 n=d7 v=61
115680 On ch=2 n=d7 v=0
115680 On ch=2 n=c7 v=53
115740 On ch=2 n=c7 v=0
115740 On ch=2 n=d7 v=52
115800 On ch=2 n=d7 v=0
115800 On ch=2 n=c7 v=51
115860 On ch=2 n=c7 v=0
115860 On ch=2 n=d7 v=50
115920 On ch=2 n=d7 v=0
115920 On ch=2 n=c7 v=48
115960 On ch=2 n=c7 v=0
115960 On ch=2 n=d7 v=47
116000 On ch=2 n=d7 v=0
116000 On ch=2 n=c7 v=47
116040 On ch=2 n=c7 v=0
116040 On ch=2 n=b6 v=46
116100 On ch=2 n=b6 v=0
116100 On ch=2 n=c7 v=44
116160 On ch=2 n=c7 v=0
116160 On ch=2 n=b6 v=43
116400 On ch=2 n=b6 v=0
116400 On ch=2 n=c7 v=50
116640 On ch=2 n=c7 v=0
116640 On ch=2 n=c#7 v=52
116880 On ch=2 n=c#7 v=0
116880 On ch=2 n=d7 v=53
117120 On ch=2 n=d7 v=0
117120 On ch=2 n=d#7 v=57
117360 On ch=2 n=d#7 v=0
117360 On ch=2 n=e7 v=57
117600 On ch=2 n=e7 v=0
117840 On ch=2 n=e7 v=55
118080 On ch=2 n=e7 v=0
118080 On ch=2 n=d7 v=54
118320 On ch=2 n=d7 v=0
118320 On ch=2 n=c7 v=54
118560 On ch=2 n=c7 v=0
118560 On ch=2 n=b6 v=53
118800 On ch=2 n=b6 v=0
118800 On ch=2 n=a6 v=52
119040 On ch=2 n=a6 v=0
119040 On ch=2 n=c#7 v=52
119280 On ch=2 n=c#7 v=0
119280 On ch=2 n=d7 v=51
119520 On ch=2 n=d7 v=0
119760 On ch=2 n=d7 v=49
120000 On ch=2 n=d7 v=0
120000 On ch=2 n=c7 v=49
120240 On ch=2 n=c7 v=0
120240 On ch=2 n=b6 v=48
120480 On ch=2 n=b6 v=0
120480 On ch=2 n=a6 v=47
120720 On ch=2 n=a6 v=0
120720 On ch=2 n=g6 v=46
120960 On ch=2 n=g6 v=0
120960 On ch=2 n=f#6 v=46
121200 On ch=2 n=f#6 v=0
121200 On ch=2 n=e6 v=45
121440 On ch=2 n=e6 v=0
121440 On ch=2 n=d6 v=44
121680 On ch=2 n=d6 v=0
121680 On ch=2 n=c6 v=43
121920 On ch=2 n=c6 v=0
121920 On ch=2 n=b5 v=43
122160 On ch=2 n=b5 v=0
122160 On ch=2 n=a5 v=42
122400 On ch=2 n=a5 v=0
122400 On ch=2 n=g5 v=41
122640 On ch=2 n=g5 v=0
122640 On ch=2 n=f#5 v=41
122880 On ch=2 n=f#5 v=0
122880 On ch=2 n=g5 v=40
123120 On ch=2 n=g5 v=0
123120 On ch=2 n=a5 v=42
123200 On ch=2 n=a5 v=0
123200 On ch=2 n=g5 v=42
123280 On ch=2 n=g5 v=0
123280 On ch=2 n=f#5 v=43
123360 On ch=2 n=f#5 v=0
123360 On ch=2 n=g5 v=43
123600 On ch=2 n=g5 v=0
123600 On ch=2 n=a5 v=45
123840 On ch=2 n=a5 v=0
123840 On ch=2 n=b5 v=47
124080 On ch=2 n=b5 v=0
124080 On ch=2 n=c6 v=48
124320 On ch=2 n=c6 v=0
124320 On ch=2 n=c#6 v=50
124560 On ch=2 n=c#6 v=0
124560 On ch=2 n=d6 v=51
124800 On ch=2 n=d6 v=0
124800 On ch=2 n=d#6 v=53
125040 On ch=2 n=d#6 v=0
125040 On ch=2 n=e6 v=54
125280 On ch=2 n=e6 v=0
125520 On ch=2 n=e6 v=58
125760 On ch=2 n=e6 v=0
125760 On ch=2 n=d6 v=59
126000 On ch=2 n=d6 v=0
126000 On ch=2 n=c6 v=61
126240 On ch=2 n=c6 v=0
126240 On ch=2 n=b5 v=62
126480 On ch=2 n=b5 v=0
126480 On ch=2 n=a5 v=64
126720 On ch=2 n=a5 v=0
126720 On ch=2 n=d#6 v=65
126960 On ch=2 n=d#6 v=0
126960 On ch=2 n=e6 v=69
127200 On ch=2 n=e6 v=0
127440 On ch=2 n=e6 v=76
127680 On ch=2 n=e6 v=0
127680 On ch=2 n=e6 v=76
127920 On ch=2 n=e6 v=0
127920 On ch=2 n=c#6 v=74
128160 On ch=2 n=c#6 v=0
128160 On ch=2 n=a5 v=72
128400 On ch=2 n=a5 v=0
128400 On ch=2 n=g5 v=70
128640 On ch=2 n=g5 v=0
128640 On ch=2 n=f#5 v=68
129120 On ch=2 n=f#5 v=0
129120 On ch=2 n=a6 v=83
129280 On ch=2 n=a6 v=0
129280 On ch=2 n=f#6 v=83
129440 On ch=2 n=f#6 v=0
129440 On ch=2 n=d6 v=82
129600 On ch=2 n=d6 v=0
129600 On ch=2 n=c6 v=82
130080 On ch=2 n=c6 v=0
130080 On ch=2 n=a6 v=82
130240 On ch=2 n=a6 v=0
130240 On ch=2 n=f#6 v=81
130400 On ch=2 n=f#6 v=0
130400 On ch=2 n=c6 v=81
130560 On ch=2 n=c6 v=0
130560 On ch=2 n=b5 v=81
131040 On ch=2 n=b5 v=0
131040 On ch=2 n=g6 v=81
131200 On ch=2 n=g6 v=0
131200 On ch=2 n=d6 v=80
131360 On ch=2 n=d6 v=0
131360 On ch=2 n=b5 v=80
131520 On ch=2 n=b5 v=0
131520 On ch=2 n=g5 v=80
132000 On ch=2 n=g5 v=0
132000 On ch=2 n=d6 v=79
132160 On ch=2 n=d6 v=0
132160 On ch=2 n=b5 v=79
132320 On ch=2 n=b5 v=0
132320 On ch=2 n=g5 v=79
132480 On ch=2 n=g5 v=0
132480 On ch=2 n=f#5 v=79
132960 On ch=2 n=f#5 v=0
132960 On ch=2 n=a6 v=78
133120 On ch=2 n=a6 v=0
133120 On ch=2 n=f#6 v=78
133280 On ch=2 n=f#6 v=0
133280 On ch=2 n=d6 v=78
133440 On ch=2 n=d6 v=0
133440 On ch=2 n=c6 v=78
133920 On ch=2 n=c6 v=0
133920 On ch=2 n=a6 v=77
134080 On ch=2 n=a6 v=0
134080 On ch=2 n=f#6 v=77
134240 On ch=2 n=f#6 v=0
134240 On ch=2 n=c6 v=77
134400 On ch=2 n=c6 v=0
134400 On ch=2 n=b5 v=76
134880 On ch=2 n=b5 v=0
134880 On ch=2 n=g6 v=76
135040 On ch=2 n=g6 v=0
135040 On ch=2 n=d6 v=76
135200 On ch=2 n=d6 v=0
135200 On ch=2 n=b5 v=75
135360 On ch=2 n=b5 v=0
135360 On ch=2 n=g5 v=75
135840 On ch=2 n=g5 v=0
135840 On ch=2 n=d6 v=75
136000 On ch=2 n=d6 v=0
136000 On ch=2 n=b5 v=74
136160 On ch=2 n=b5 v=0
136160 On ch=2 n=g5 v=74
136320 On ch=2 n=g5 v=0
136320 On ch=2 n=d5 v=74
136800 On ch=2 n=d5 v=0
136800 On ch=2 n=d6 v=74
136960 On ch=2 n=d6 v=0
136960 On ch=2 n=b5 v=73
137120 On ch=2 n=b5 v=0
137120 On ch=2 n=g5 v=73
137280 On ch=2 n=g5 v=0
137280 On ch=2 n=d5 v=73
137760 On ch=2 n=d5 v=0
137760 On ch=2 n=d6 v=73
137920 On ch=2 n=d6 v=0
137920 On ch=2 n=b5 v=72
138080 On ch=2 n=b5 v=0
138080 On ch=2 n=g5 v=71
138240 On ch=2 n=g5 v=0
138240 On ch=2 n=d5 v=70
138720 On ch=2 n=d5 v=0
139440 On ch=2 n=a5 v=40
139680 On ch=2 n=a5 v=0
139680 On ch=2 n=a5 v=41
139920 On ch=2 n=a5 v=0
139920 On ch=2 n=a5 v=41
140160 On ch=2 n=a5 v=0
140160 On ch=2 n=d6 v=42
140640 On ch=2 n=d6 v=0
140640 On ch=2 n=c#6 v=43
141120 On ch=2 n=c#6 v=0
141120 On ch=2 n=d6 v=45
141600 On ch=2 n=d6 v=0
141600 On ch=2 n=e6 v=46
142080 On ch=2 n=e6 v=0
142080 On ch=2 n=g6 v=49
142320 On ch=2 n=g6 v=0
142320 On ch=2 n=f#6 v=47
142560 On ch=2 n=f#6 v=0
142560 On ch=2 n=e6 v=45
143040 On ch=2 n=e6 v=0
143280 On ch=2 n=a5 v=42
143520 On ch=2 n=a5 v=0
143520 On ch=2 n=a5 v=43
143760 On ch=2 n=a5 v=0
143760 On ch=2 n=a5 v=43
144000 On ch=2 n=a5 v=0
144000 On ch=2 n=e6 v=44
144480 On ch=2 n=e6 v=0
144480 On ch=2 n=d6 v=46
144960 On ch=2 n=d6 v=0
144960 On ch=2 n=e6 v=48
145440 On ch=2 n=e6 v=0
145440 On ch=2 n=f#6 v=49
145920 On ch=2 n=f#6 v=0
145920 On ch=2 n=a6 v=53
146160 On ch=2 n=a6 v=0
146160 On ch=2 n=g6 v=51
146400 On ch=2 n=g6 v=0
146400 On ch=2 n=f#6 v=49
146880 On ch=2 n=f#6 v=0
147120 On ch=2 n=a6 v=46
147360 On ch=2 n=a6 v=0
147360 On ch=2 n=g6 v=46
147600 On ch=2 n=g6 v=0
147600 On ch=2 n=f#6 v=46
147840 On ch=2 n=f#6 v=0
147840 On ch=2 n=f#6 v=47
148080 On ch=2 n=f#6 v=0
148080 On ch=2 n=e6 v=47
148236 On ch=2 n=e6 v=0
148320 On ch=2 n=e6 v=47
148476 On ch=2 n=e6 v=0
148560 On ch=2 n=e6 v=47
148716 On ch=2 n=e6 v=0
148800 On ch=2 n=d6 v=47
149040 On ch=2 n=d6 v=0
149040 On ch=2 n=a6 v=47
149280 On ch=2 n=a6 v=0
149280 On ch=2 n=g6 v=48
149520 On ch=2 n=g6 v=0
149520 On ch=2 n=f#6 v=48
149760 On ch=2 n=f#6 v=0
149760 On ch=2 n=f#6 v=48
150000 On ch=2 n=f#6 v=0
150000 On ch=2 n=e6 v=48
150156 On ch=2 n=e6 v=0
150240 On ch=2 n=e6 v=48
150396 On ch=2 n=e6 v=0
150480 On ch=2 n=e6 v=49
150636 On ch=2 n=e6 v=0
150720 On ch=2 n=d6 v=49
150960 On ch=2 n=d6 v=0
150960 On ch=2 n=a6 v=49
151200 On ch=2 n=a6 v=0
151200 On ch=2 n=g6 v=49
151440 On ch=2 n=g6 v=0
151440 On ch=2 n=f#6 v=49
151680 On ch=2 n=f#6 v=0
151680 On ch=2 n=f#6 v=51
151920 On ch=2 n=f#6 v=0
151920 On ch=2 n=e6 v=50
152076 On ch=2 n=e6 v=0
152400 On ch=2 n=e6 v=48
152556 On ch=2 n=e6 v=0
152640 On ch=2 n=e6 v=47
152880 On ch=2 n=e6 v=0
152880 On ch=2 n=d6 v=46
153036 On ch=2 n=d6 v=0
153360 On ch=2 n=d6 v=45
153600 On ch=2 n=d6 v=0
153600 On ch=2 n=d6 v=44
153840 On ch=2 n=d6 v=0
153840 On ch=2 n=c#6 v=45
154080 On ch=2 n=c#6 v=0
154080 On ch=2 n=b5 v=46
154320 On ch=2 n=b5 v=0
154320 On ch=2 n=a5 v=47
154560 On ch=2 n=a5 v=0
154560 On ch=2 n=g#5 v=48
154800 On ch=2 n=g#5 v=0
154800 On ch=2 n=a5 v=49
155040 On ch=2 n=a5 v=0
155040 On ch=2 n=b5 v=50
155280 On ch=2 n=b5 v=0
155280 On ch=2 n=c#6 v=51
155520 On ch=2 n=c#6 v=0
155520 On ch=2 n=d6 v=52
156000 On ch=2 n=d6 v=0
156000 On ch=2 n=c#6 v=53
156480 On ch=2 n=c#6 v=0
156480 On ch=2 n=d6 v=55
156960 On ch=2 n=d6 v=0
156960 On ch=2 n=e6 v=57
157440 On ch=2 n=e6 v=0
157440 On ch=2 n=g6 v=61
157680 On ch=2 n=g6 v=0
157680 On ch=2 n=f#6 v=59
157920 On ch=2 n=f#6 v=0
157920 On ch=2 n=e6 v=57
158400 On ch=2 n=e6 v=0
158640 On ch=2 n=a5 v=52
158880 On ch=2 n=a5 v=0
158880 On ch=2 n=a5 v=53
159120 On ch=2 n=a5 v=0
159120 On ch=2 n=a5 v=54
159360 On ch=2 n=a5 v=0
159360 On ch=2 n=e6 v=55
159840 On ch=2 n=e6 v=0
159840 On ch=2 n=d6 v=57
160320 On ch=2 n=d6 v=0
160320 On ch=2 n=e6 v=59
160800 On ch=2 n=e6 v=0
160800 On ch=2 n=f#6 v=61
161280 On ch=2 n=f#6 v=0
161280 On ch=2 n=a6 v=67
161520 On ch=2 n=a6 v=0
161520 On ch=2 n=g6 v=65
161760 On ch=2 n=g6 v=0
161760 On ch=2 n=f#6 v=63
162240 On ch=2 n=f#6 v=0
162480 On ch=2 n=a6 v=58
162720 On ch=2 n=a6 v=0
162720 On ch=2 n=g6 v=59
162960 On ch=2 n=g6 v=0
162960 On ch=2 n=f#6 v=59
163200 On ch=2 n=f#6 v=0
163200 On ch=2 n=f#6 v=59
163440 On ch=2 n=f#6 v=0
163440 On ch=2 n=e6 v=59
163596 On ch=2 n=e6 v=0
163680 On ch=2 n=e6 v=59
163836 On ch=2 n=e6 v=0
163920 On ch=2 n=e6 v=60
164076 On ch=2 n=e6 v=0
164160 On ch=2 n=d6 v=60
164400 On ch=2 n=d6 v=0
164400 On ch=2 n=a6 v=60
164640 On ch=2 n=a6 v=0
164640 On ch=2 n=g6 v=60
164880 On ch=2 n=g6 v=0
164880 On ch=2 n=f#6 v=60
165120 On ch=2 n=f#6 v=0
165120 On ch=2 n=f#6 v=61
165360 On ch=2 n=f#6 v=0
165360 On ch=2 n=e6 v=61
165516 On ch=2 n=e6 v=0
165600 On ch=2 n=e6 v=61
165756 On ch=2 n=e6 v=0
165840 On ch=2 n=e6 v=61
165996 On ch=2 n=e6 v=0
166080 On ch=2 n=d6 v=61
166320 On ch=2 n=d6 v=0
166320 On ch=2 n=a6 v=61
166560 On ch=2 n=a6 v=0
166560 On ch=2 n=g6 v=62
166800 On ch=2 n=g6 v=0
166800 On ch=2 n=f#6 v=62
167040 On ch=2 n=f#6 v=0
167040 On ch=2 n=f#6 v=65
167280 On ch=2 n=f#6 v=0
167280 On ch=2 n=e6 v=64
167520 On ch=2 n=e6 v=0
167520 On ch=2 n=g6 v=63
167760 On ch=2 n=g6 v=0
167760 On ch=2 n=e6 v=62
168000 On ch=2 n=e6 v=0
168000 On ch=2 n=e6 v=61
168240 On ch=2 n=e6 v=0
168240 On ch=2 n=d6 v=60
168396 On ch=2 n=d6 v=0
168480 On ch=2 n=d6 v=59
168720 On ch=2 n=d6 v=0
168720 On ch=2 n=c#6 v=58
168876 On ch=2 n=c#6 v=0
168900 On ch=2 n=d6 v=87
168960 On ch=2 n=a6 v=87
169120 On ch=2 n=a6 v=0
169120 On ch=2 n=g6 v=87
169125 On ch=2 n=d6 v=0
169280 On ch=2 n=g6 v=0
169280 On ch=2 n=f#6 v=87
169440 On ch=2 n=f#6 v=0
169440 On ch=2 n=e6 v=87
169600 On ch=2 n=e6 v=0
169600 On ch=2 n=d6 v=87
169760 On ch=2 n=d6 v=0
169760 On ch=2 n=c#6 v=86
169920 On ch=2 n=c#6 v=0
169920 On ch=2 n=b5 v=86
170080 On ch=2 n=b5 v=0
170080 On ch=2 n=a5 v=86
170240 On ch=2 n=a5 v=0
170240 On ch=2 n=g5 v=86
170400 On ch=2 n=g5 v=0
170400 On ch=2 n=f#5 v=85
170560 On ch=2 n=f#5 v=0
170560 On ch=2 n=e5 v=85
170720 On ch=2 n=e5 v=0
170720 On ch=2 n=d5 v=85
170880 On ch=2 n=d5 v=0
170880 On ch=2 n=c#5 v=85
171360 On ch=2 n=c#5 v=0
171360 On ch=2 n=c#5 v=84
171840 On ch=2 n=c#5 v=0
171840 On ch=2 n=c#5 v=84
172320 On ch=2 n=c#5 v=0
172320 On ch=2 n=c#5 v=83
172800 On ch=2 n=c#5 v=0
172800 On ch=2 n=d5 v=82
172960 On ch=2 n=d5 v=0
172960 On ch=2 n=e5 v=82
173120 On ch=2 n=e5 v=0
173120 On ch=2 n=f#5 v=82
173280 On ch=2 n=f#5 v=0
173280 On ch=2 n=g5 v=82
173440 On ch=2 n=g5 v=0
173440 On ch=2 n=a5 v=81
173600 On ch=2 n=a5 v=0
173600 On ch=2 n=b5 v=81
173760 On ch=2 n=b5 v=0
173760 On ch=2 n=c#6 v=81
173920 On ch=2 n=c#6 v=0
173920 On ch=2 n=d6 v=81
174080 On ch=2 n=d6 v=0
174080 On ch=2 n=e6 v=81
174240 On ch=2 n=e6 v=0
174240 On ch=2 n=f#6 v=80
174400 On ch=2 n=f#6 v=0
174400 On ch=2 n=g6 v=80
174560 On ch=2 n=g6 v=0
174560 On ch=2 n=a6 v=80
174720 On ch=2 n=a6 v=0
174720 On ch=2 n=g6 v=80
175200 On ch=2 n=g6 v=0
175200 On ch=2 n=g6 v=79
175680 On ch=2 n=g6 v=0
175680 On ch=2 n=g6 v=78
176160 On ch=2 n=g6 v=0
176160 On ch=2 n=g6 v=78
176580 On ch=2 n=d6 v=77
176587 On ch=2 n=g6 v=0
176640 On ch=2 n=a6 v=77
176797 On ch=2 n=d6 v=0
176800 On ch=2 n=a6 v=0
176800 On ch=2 n=g6 v=77
176960 On ch=2 n=g6 v=0
176960 On ch=2 n=f#6 v=77
177120 On ch=2 n=f#6 v=0
177120 On ch=2 n=e6 v=77
177280 On ch=2 n=e6 v=0
177280 On ch=2 n=d6 v=76
177440 On ch=2 n=d6 v=0
177440 On ch=2 n=c#6 v=76
177600 On ch=2 n=c#6 v=0
177600 On ch=2 n=b5 v=76
177760 On ch=2 n=b5 v=0
177760 On ch=2 n=a5 v=76
177920 On ch=2 n=a5 v=0
177920 On ch=2 n=g5 v=75
178080 On ch=2 n=g5 v=0
178080 On ch=2 n=f#5 v=75
178240 On ch=2 n=f#5 v=0
178240 On ch=2 n=e5 v=75
178400 On ch=2 n=e5 v=0
178400 On ch=2 n=d5 v=75
178560 On ch=2 n=d5 v=0
178560 On ch=2 n=c5 v=75
179040 On ch=2 n=c5 v=0
179040 On ch=2 n=c5 v=74
179520 On ch=2 n=c5 v=0
179520 On ch=2 n=c5 v=73
180000 On ch=2 n=c5 v=0
180000 On ch=2 n=c5 v=73
180480 On ch=2 n=c5 v=0
180480 On ch=2 n=b4 v=72
180640 On ch=2 n=b4 v=0
180640 On ch=2 n=e5 v=72
180800 On ch=2 n=e5 v=0
180800 On ch=2 n=g5 v=72
180960 On ch=2 n=g5 v=0
180960 On ch=2 n=b5 v=71
181120 On ch=2 n=b5 v=0
181120 On ch=2 n=g5 v=71
181280 On ch=2 n=g5 v=0
181280 On ch=2 n=e5 v=71
181440 On ch=2 n=e5 v=0
181440 On ch=2 n=d5 v=71
181920 On ch=2 n=d5 v=0
181920 On ch=2 n=f#5 v=68
182160 On ch=2 n=f#5 v=0
182160 On ch=2 n=e5 v=66
182400 On ch=2 n=e5 v=0
182400 On ch=2 n=d5 v=71
182560 On ch=2 n=d5 v=0
182560 On ch=2 n=e5 v=72
182720 On ch=2 n=e5 v=0
182720 On ch=2 n=f#5 v=74
182880 On ch=2 n=f#5 v=0
182880 On ch=2 n=g5 v=76
183040 On ch=2 n=g5 v=0
183040 On ch=2 n=a5 v=77
183200 On ch=2 n=a5 v=0
183200 On ch=2 n=b5 v=79
183360 On ch=2 n=b5 v=0
183360 On ch=2 n=c#6 v=80
183520 On ch=2 n=c#6 v=0
183520 On ch=2 n=d6 v=82
183680 On ch=2 n=d6 v=0
183680 On ch=2 n=e6 v=84
183840 On ch=2 n=e6 v=0
183840 On ch=2 n=f#6 v=85
184000 On ch=2 n=f#6 v=0
184000 On ch=2 n=g6 v=87
184160 On ch=2 n=g6 v=0
184160 On ch=2 n=a6 v=88
184320 On ch=2 n=a6 v=0
184320 On ch=2 n=b6 v=97
186240 On ch=2 n=b6 v=0
186240 On ch=2 n=a6 v=76
186432 On ch=2 n=a6 v=0
186720 On ch=2 n=g6 v=71
186912 On ch=2 n=g6 v=0
187200 On ch=2 n=f#6 v=66
187392 On ch=2 n=f#6 v=0
187680 On ch=2 n=e6 v=61
187872 On ch=2 n=e6 v=0
188160 On ch=2 n=a6 v=66
188320 On ch=2 n=a6 v=0
188320 On ch=2 n=g6 v=67
188480 On ch=2 n=g6 v=0
188480 On ch=2 n=f#6 v=69
188640 On ch=2 n=f#6 v=0
188640 On ch=2 n=e6 v=71
188800 On ch=2 n=e6 v=0
188800 On ch=2 n=d6 v=73
188960 On ch=2 n=d6 v=0
188960 On ch=2 n=c#6 v=74
189120 On ch=2 n=c#6 v=0
189120 On ch=2 n=b5 v=76
189280 On ch=2 n=b5 v=0
189280 On ch=2 n=a5 v=78
189440 On ch=2 n=a5 v=0
189440 On ch=2 n=g5 v=80
189600 On ch=2 n=g5 v=0
189600 On ch=2 n=f#5 v=82
189760 On ch=2 n=f#5 v=0
189760 On ch=2 n=e5 v=83
189920 On ch=2 n=e5 v=0
189920 On ch=2 n=d5 v=85
190080 On ch=2 n=d5 v=0
190080 On ch=2 n=b5 v=89
192000 On ch=2 n=b5 v=0
192000 On ch=2 n=a5 v=68
192192 On ch=2 n=a5 v=0
192480 On ch=2 n=g5 v=63
192672 On ch=2 n=g5 v=0
192960 On ch=2 n=f#5 v=57
193152 On ch=2 n=f#5 v=0
193440 On ch=2 n=e5 v=52
193632 On ch=2 n=e5 v=0
193920 On ch=2 n=d5 v=85
194400 On ch=2 n=d5 v=0
194400 On ch=2 n=a6 v=84
194560 On ch=2 n=a6 v=0
194560 On ch=2 n=f#6 v=84
194720 On ch=2 n=f#6 v=0
194720 On ch=2 n=d6 v=84
194880 On ch=2 n=d6 v=0
194880 On ch=2 n=c#6 v=83
195360 On ch=2 n=c#6 v=0
195360 On ch=2 n=g6 v=82
195520 On ch=2 n=g6 v=0
195520 On ch=2 n=e6 v=82
195680 On ch=2 n=e6 v=0
195680 On ch=2 n=c#6 v=81
195840 On ch=2 n=c#6 v=0
195840 On ch=2 n=d6 v=81
196320 On ch=2 n=d6 v=0
196320 On ch=2 n=a5 v=80
196480 On ch=2 n=a5 v=0
196480 On ch=2 n=f#5 v=80
196640 On ch=2 n=f#5 v=0
196640 On ch=2 n=d5 v=79
196800 On ch=2 n=d5 v=0
196800 On ch=2 n=c#5 v=79
197280 On ch=2 n=c#5 v=0
197280 On ch=2 n=g5 v=78
197440 On ch=2 n=g5 v=0
197440 On ch=2 n=e5 v=78
197600 On ch=2 n=e5 v=0
197600 On ch=2 n=c#5 v=77
197760 On ch=2 n=c#5 v=0
197760 On ch=2 n=d5 v=77
198240 On ch=2 n=d5 v=0
198240 On ch=2 n=g5 v=76
198400 On ch=2 n=g5 v=0
198400 On ch=2 n=e5 v=76
198560 On ch=2 n=e5 v=0
198560 On ch=2 n=c#5 v=75
198720 On ch=2 n=c#5 v=0
198720 On ch=2 n=d5 v=75
199200 On ch=2 n=d5 v=0
199200 On ch=2 n=g5 v=74
199360 On ch=2 n=g5 v=0
199360 On ch=2 n=e5 v=73
199520 On ch=2 n=e5 v=0
199520 On ch=2 n=c#5 v=73
199680 On ch=2 n=c#5 v=0
199680 On ch=2 n=d5 v=73
199872 On ch=2 n=d5 v=0
200160 On ch=2 n=d5 v=70
200352 On ch=2 n=d5 v=0
200640 On ch=2 n=d5 v=65
200832 On ch=2 n=d5 v=0
201600 Par ch=2 c=64 v=0
201600 On ch=2 n=d6 v=88
202720 On ch=2 n=d6 v=0
202720 On ch=2 n=f6 v=66
202880 On ch=2 n=f6 v=0
202880 On ch=2 n=e6 v=64
203040 On ch=2 n=e6 v=0
203040 On ch=2 n=d6 v=61
203200 On ch=2 n=d6 v=0
203200 On ch=2 n=c6 v=59
203360 On ch=2 n=c6 v=0
203360 On ch=2 n=b5 v=56
203520 On ch=2 n=b5 v=0
203520 On ch=2 n=a5 v=52
204000 On ch=2 n=a5 v=0
204000 On ch=2 n=g#5 v=53
204480 On ch=2 n=g#5 v=0
204480 On ch=2 n=a5 v=55
204960 On ch=2 n=a5 v=0
204960 On ch=2 n=b5 v=56
205440 On ch=2 n=b5 v=0
205440 On ch=2 n=c6 v=58
205920 On ch=2 n=c6 v=0
205920 On ch=2 n=d6 v=60
206400 On ch=2 n=d6 v=0
206400 On ch=2 n=e6 v=61
206880 On ch=2 n=e6 v=0
206880 On ch=2 n=d6 v=59
207240 On ch=2 n=c6 v=75
207248 On ch=2 n=d6 v=0
207300 On ch=2 n=e6 v=78
207360 On ch=2 n=a6 v=83
207690 On ch=2 n=c6 v=0
207780 On ch=2 n=e6 v=0
208480 On ch=2 n=a6 v=0
208480 On ch=2 n=c7 v=66
208640 On ch=2 n=c7 v=0
208640 On ch=2 n=b6 v=64
208800 On ch=2 n=b6 v=0
208800 On ch=2 n=a6 v=62
208960 On ch=2 n=a6 v=0
208960 On ch=2 n=g6 v=60
209120 On ch=2 n=g6 v=0
209120 On ch=2 n=f#6 v=58
209280 On ch=2 n=f#6 v=0
209280 On ch=2 n=e6 v=56
209760 On ch=2 n=e6 v=0
209760 On ch=2 n=d#6 v=51
210240 On ch=2 n=d#6 v=0
210240 On ch=2 n=e6 v=53
210720 On ch=2 n=e6 v=0
210720 On ch=2 n=f#6 v=54
211200 On ch=2 n=f#6 v=0
211200 On ch=2 n=g6 v=57
211920 On ch=2 n=g6 v=0
211920 On ch=2 n=f#6 v=54
212040 On ch=2 n=f#6 v=0
212040 On ch=2 n=g6 v=53
212160 On ch=2 n=g6 v=0
212160 On ch=2 n=a6 v=52
212400 On ch=2 n=a6 v=0
212400 On ch=2 n=g6 v=50
212640 On ch=2 n=g6 v=0
212640 On ch=2 n=f#6 v=48
212880 On ch=2 n=f#6 v=0
212880 On ch=2 n=e6 v=45
213120 On ch=2 n=e6 v=0
213120 On ch=2 n=d#6 v=43
213600 On ch=2 n=d#6 v=0
213840 On ch=2 n=b6 v=51
214080 On ch=2 n=b6 v=0
214080 On ch=2 n=a6 v=47
214560 On ch=2 n=a6 v=0
214800 On ch=2 n=f#6 v=52
215040 On ch=2 n=f#6 v=0
215040 On ch=2 n=g6 v=48
215520 On ch=2 n=g6 v=0
215760 On ch=2 n=g6 v=57
216000 On ch=2 n=g6 v=0
216000 On ch=2 n=f#6 v=52
216480 On ch=2 n=f#6 v=0
216480 On ch=2 n=g6 v=53
216960 On ch=2 n=g6 v=0
216960 On ch=2 n=f#6 v=50
217440 On ch=2 n=f#6 v=0
217680 On ch=2 n=b6 v=59
217920 On ch=2 n=b6 v=0
217920 On ch=2 n=a6 v=56
218400 On ch=2 n=a6 v=0
218640 On ch=2 n=f#6 v=61
218880 On ch=2 n=f#6 v=0
218880 On ch=2 n=g6 v=56
219360 On ch=2 n=g6 v=0
219600 On ch=2 n=g6 v=67
219840 On ch=2 n=g6 v=0
219840 On ch=2 n=f#6 v=62
220320 On ch=2 n=f#6 v=0
220320 On ch=2 n=g6 v=64
220800 On ch=2 n=g6 v=0
220800 On ch=2 n=f#6 v=61
221280 On ch=2 n=f#6 v=0
222720 On ch=2 n=g6 v=68
223200 On ch=2 n=g6 v=0
224640 On ch=2 n=c7 v=72
224880 On ch=2 n=c7 v=0
224880 On ch=2 n=b6 v=73
225120 On ch=2 n=b6 v=0
225120 On ch=2 n=c7 v=74
225360 On ch=2 n=c7 v=0
225360 On ch=2 n=b6 v=75
225600 On ch=2 n=b6 v=0
225600 On ch=2 n=c7 v=76
225840 On ch=2 n=c7 v=0
225840 On ch=2 n=b6 v=77
226080 On ch=2 n=b6 v=0
226080 On ch=2 n=a6 v=77
226320 On ch=2 n=a6 v=0
226320 On ch=2 n=g6 v=78
226560 On ch=2 n=g6 v=0
226560 On ch=2 n=f#6 v=79
226800 On ch=2 n=f#6 v=0
226800 On ch=2 n=e6 v=80
227040 On ch=2 n=e6 v=0
227040 On ch=2 n=d6 v=81
227280 On ch=2 n=d6 v=0
227280 On ch=2 n=c6 v=82
227520 On ch=2 n=c6 v=0
227520 On ch=2 n=b5 v=83
227760 On ch=2 n=b5 v=0
227760 On ch=2 n=a5 v=84
228000 On ch=2 n=a5 v=0
228000 On ch=2 n=g5 v=85
228240 On ch=2 n=g5 v=0
228240 On ch=2 n=f#5 v=86
228480 On ch=2 n=f#5 v=0
228480 On ch=2 n=g5 v=81
229440 On ch=2 n=g5 v=0
229440 On ch=2 n=d5 v=77
229600 On ch=2 n=d5 v=0
229600 On ch=2 n=g5 v=76
229760 On ch=2 n=g5 v=0
229760 On ch=2 n=b5 v=75
229920 On ch=2 n=b5 v=0
229920 On ch=2 n=d6 v=75
230080 On ch=2 n=d6 v=0
230080 On ch=2 n=c6 v=74
230240 On ch=2 n=c6 v=0
230240 On ch=2 n=a5 v=73
230400 On ch=2 n=a5 v=0
230400 On ch=2 n=g5 v=71
230880 On ch=2 n=g5 v=0
230880 On ch=2 n=g5 v=57
231360 On ch=2 n=g5 v=0
231360 On ch=2 n=f#5 v=55
231840 On ch=2 n=f#5 v=0
231840 On ch=2 n=g5 v=52
232320 On ch=2 n=g5 v=0
232320 On ch=2 n=a5 v=50
233040 On ch=2 n=a5 v=0
233040 On ch=2 n=a5 v=53
233280 On ch=2 n=a5 v=0
233280 On ch=2 n=b5 v=55
234000 On ch=2 n=b5 v=0
234000 On ch=2 n=b5 v=58
234240 On ch=2 n=b5 v=0
234240 On ch=2 n=d6 v=59
234720 On ch=2 n=d6 v=0
234720 On ch=2 n=c6 v=54
234780 On ch=2 n=c6 v=0
234780 On ch=2 n=d6 v=52
234840 On ch=2 n=d6 v=0
234840 On ch=2 n=c6 v=51
234900 On ch=2 n=c6 v=0
234900 On ch=2 n=d6 v=50
234960 On ch=2 n=d6 v=0
234960 On ch=2 n=c6 v=49
235000 On ch=2 n=c6 v=0
235000 On ch=2 n=d6 v=48
235040 On ch=2 n=d6 v=0
235040 On ch=2 n=c6 v=47
235080 On ch=2 n=c6 v=0
235080 On ch=2 n=b5 v=46
235140 On ch=2 n=b5 v=0
235140 On ch=2 n=c6 v=45
235200 On ch=2 n=c6 v=0
235200 On ch=2 n=b5 v=43
235680 On ch=2 n=b5 v=0
236160 On ch=2 n=g6 v=79
237120 On ch=2 n=g6 v=0
237120 On ch=2 n=d6 v=75
237280 On ch=2 n=d6 v=0
237280 On ch=2 n=g6 v=74
237440 On ch=2 n=g6 v=0
237440 On ch=2 n=b6 v=73
237600 On ch=2 n=b6 v=0
237600 On ch=2 n=d7 v=72
237760 On ch=2 n=d7 v=0
237760 On ch=2 n=c7 v=72
237920 On ch=2 n=c7 v=0
237920 On ch=2 n=a6 v=71
238080 On ch=2 n=a6 v=0
238080 On ch=2 n=g6 v=68
238560 On ch=2 n=g6 v=0
238560 On ch=2 n=g6 v=56
239040 On ch=2 n=g6 v=0
239040 On ch=2 n=f#6 v=53
239520 On ch=2 n=f#6 v=0
239520 On ch=2 n=g6 v=51
240000 On ch=2 n=g6 v=0
240000 On ch=2 n=a6 v=51
240480 On ch=2 n=a6 v=0
240720 On ch=2 n=a6 v=55
240960 On ch=2 n=a6 v=0
240960 On ch=2 n=b6 v=56
241440 On ch=2 n=b6 v=0
241680 On ch=2 n=b6 v=59
241920 On ch=2 n=b6 v=0
241920 On ch=2 n=c7 v=65
242160 On ch=2 n=c7 v=0
242160 On ch=2 n=g6 v=64
242400 On ch=2 n=g6 v=0
242400 On ch=2 n=a6 v=63
242640 On ch=2 n=a6 v=0
242640 On ch=2 n=f6 v=62
242880 On ch=2 n=f6 v=0
242880 On ch=2 n=e6 v=61
243120 On ch=2 n=e6 v=0
243120 On ch=2 n=g6 v=60
243360 On ch=2 n=g6 v=0
243360 On ch=2 n=f6 v=59
243600 On ch=2 n=f6 v=0
243600 On ch=2 n=d6 v=58
243780 On ch=2 n=d6 v=0
243780 On ch=2 n=c6 v=73
243840 On ch=2 n=g6 v=73
243990 On ch=2 n=c6 v=0
244000 On ch=2 n=g6 v=0
244000 On ch=2 n=f6 v=73
244160 On ch=2 n=f6 v=0
244160 On ch=2 n=e6 v=73
244320 On ch=2 n=e6 v=0
244320 On ch=2 n=d6 v=73
244480 On ch=2 n=d6 v=0
244480 On ch=2 n=c6 v=73
244640 On ch=2 n=c6 v=0
244640 On ch=2 n=b5 v=73
244800 On ch=2 n=b5 v=0
244800 On ch=2 n=a5 v=73
244960 On ch=2 n=a5 v=0
244960 On ch=2 n=g5 v=72
245120 On ch=2 n=g5 v=0
245120 On ch=2 n=f5 v=72
245280 On ch=2 n=f5 v=0
245280 On ch=2 n=e5 v=72
245440 On ch=2 n=e5 v=0
245440 On ch=2 n=d5 v=72
245600 On ch=2 n=d5 v=0
245600 On ch=2 n=c5 v=72
245760 On ch=2 n=c5 v=0
245760 On ch=2 n=b4 v=72
246240 On ch=2 n=b4 v=0
246240 On ch=2 n=b4 v=71
246720 On ch=2 n=b4 v=0
246720 On ch=2 n=b4 v=71
247200 On ch=2 n=b4 v=0
247200 On ch=2 n=b4 v=71
247680 On ch=2 n=b4 v=0
247680 On ch=2 n=c5 v=70
247840 On ch=2 n=c5 v=0
247840 On ch=2 n=d5 v=70
248000 On ch=2 n=d5 v=0
248000 On ch=2 n=e5 v=70
248160 On ch=2 n=e5 v=0
248160 On ch=2 n=f5 v=70
248320 On ch=2 n=f5 v=0
248320 On ch=2 n=g5 v=70
248480 On ch=2 n=g5 v=0
248480 On ch=2 n=a5 v=69
248640 On ch=2 n=a5 v=0
248640 On ch=2 n=b5 v=69
248800 On ch=2 n=b5 v=0
248800 On ch=2 n=c6 v=69
248960 On ch=2 n=c6 v=0
248960 On ch=2 n=d6 v=69
249120 On ch=2 n=d6 v=0
249120 On ch=2 n=e6 v=69
249280 On ch=2 n=e6 v=0
249280 On ch=2 n=f6 v=69
249440 On ch=2 n=f6 v=0
249440 On ch=2 n=g6 v=69
249600 On ch=2 n=g6 v=0
249600 On ch=2 n=f6 v=68
250080 On ch=2 n=f6 v=0
250080 On ch=2 n=f6 v=68
250560 On ch=2 n=f6 v=0
250560 On ch=2 n=f6 v=68
251040 On ch=2 n=f6 v=0
251040 On ch=2 n=f6 v=67
251460 On ch=2 n=f6 v=0
251460 On ch=2 n=c6 v=67
251520 On ch=2 n=e6 v=67
251680 On ch=2 n=e6 v=0
251680 On ch=2 n=d6 v=67
251700 On ch=2 n=c6 v=0
251840 On ch=2 n=d6 v=0
251840 On ch=2 n=c6 v=67
252000 On ch=2 n=c6 v=0
252000 On ch=2 n=b5 v=66
252160 On ch=2 n=b5 v=0
252160 On ch=2 n=a5 v=66
252320 On ch=2 n=a5 v=0
252320 On ch=2 n=g5 v=66
252480 On ch=2 n=g5 v=0
252480 On ch=2 n=f5 v=66
252640 On ch=2 n=f5 v=0
252640 On ch=2 n=e5 v=66
252800 On ch=2 n=e5 v=0
252800 On ch=2 n=d5 v=66
252960 On ch=2 n=d5 v=0
252960 On ch=2 n=c5 v=66
253120 On ch=2 n=c5 v=0
253120 On ch=2 n=b4 v=65
253280 On ch=2 n=b4 v=0
253280 On ch=2 n=a4 v=65
253440 On ch=2 n=a4 v=0
253440 On ch=2 n=g#4 v=65
253920 On ch=2 n=g#4 v=0
253920 On ch=2 n=g#4 v=65
254400 On ch=2 n=g#4 v=0
254400 On ch=2 n=g#4 v=64
254880 On ch=2 n=g#4 v=0
254880 On ch=2 n=g#4 v=64
255360 On ch=2 n=g#4 v=0
255360 On ch=2 n=a4 v=65
255840 On ch=2 n=a4 v=0
255840 On ch=2 n=a5 v=69
256800 On ch=2 n=a5 v=0
256800 On ch=2 n=g5 v=78
257280 On ch=2 n=g5 v=0
257280 On ch=2 n=f#5 v=82
257760 On ch=2 n=f#5 v=0
257760 On ch=2 n=a6 v=83
257920 On ch=2 n=a6 v=0
257920 On ch=2 n=f#6 v=83
258080 On ch=2 n=f#6 v=0
258080 On ch=2 n=d6 v=82
258240 On ch=2 n=d6 v=0
258240 On ch=2 n=c6 v=82
258720 On ch=2 n=c6 v=0
258720 On ch=2 n=a6 v=82
258880 On ch=2 n=a6 v=0
258880 On ch=2 n=f#6 v=81
259040 On ch=2 n=f#6 v=0
259040 On ch=2 n=c6 v=81
259200 On ch=2 n=c6 v=0
259200 On ch=2 n=b5 v=81
259680 On ch=2 n=b5 v=0
259680 On ch=2 n=g6 v=81
259840 On ch=2 n=g6 v=0
259840 On ch=2 n=d6 v=80
260000 On ch=2 n=d6 v=0
260000 On ch=2 n=b5 v=80
260160 On ch=2 n=b5 v=0
260160 On ch=2 n=g5 v=80
260640 On ch=2 n=g5 v=0
260640 On ch=2 n=d6 v=79
260800 On ch=2 n=d6 v=0
260800 On ch=2 n=b5 v=79
260960 On ch=2 n=b5 v=0
260960 On ch=2 n=g5 v=79
261120 On ch=2 n=g5 v=0
261120 On ch=2 n=f#5 v=79
261600 On ch=2 n=f#5 v=0
261600 On ch=2 n=a6 v=78
261760 On ch=2 n=a6 v=0
261760 On ch=2 n=f#6 v=78
261920 On ch=2 n=f#6 v=0
261920 On ch=2 n=d6 v=78
262080 On ch=2 n=d6 v=0
262080 On ch=2 n=c6 v=78
262560 On ch=2 n=c6 v=0
262560 On ch=2 n=a6 v=77
262720 On ch=2 n=a6 v=0
262720 On ch=2 n=f#6 v=77
262880 On ch=2 n=f#6 v=0
262880 On ch=2 n=c6 v=77
263040 On ch=2 n=c6 v=0
263040 On ch=2 n=b5 v=76
263520 On ch=2 n=b5 v=0
263520 On ch=2 n=g6 v=76
263680 On ch=2 n=g6 v=0
263680 On ch=2 n=d6 v=76
263840 On ch=2 n=d6 v=0
263840 On ch=2 n=b5 v=75
264000 On ch=2 n=b5 v=0
264000 On ch=2 n=g5 v=75
264480 On ch=2 n=g5 v=0
264480 On ch=2 n=d6 v=75
264640 On ch=2 n=d6 v=0
264640 On ch=2 n=b5 v=74
264800 On ch=2 n=b5 v=0
264800 On ch=2 n=g5 v=74
264960 On ch=2 n=g5 v=0
264960 On ch=2 n=d5 v=74
265440 On ch=2 n=d5 v=0
265440 On ch=2 n=d6 v=74
265600 On ch=2 n=d6 v=0
265600 On ch=2 n=b5 v=73
265760 On ch=2 n=b5 v=0
265760 On ch=2 n=g5 v=73
265920 On ch=2 n=g5 v=0
265920 On ch=2 n=d5 v=73
266400 On ch=2 n=d5 v=0
266400 On ch=2 n=d6 v=73
266560 On ch=2 n=d6 v=0
266560 On ch=2 n=b5 v=72
266720 On ch=2 n=b5 v=0
266720 On ch=2 n=g5 v=71
266880 On ch=2 n=g5 v=0
266880 On ch=2 n=d5 v=69
267360 On ch=2 n=d5 v=0
268080 On ch=2 n=d5 v=40
268320 On ch=2 n=d5 v=0
268320 On ch=2 n=d5 v=41
268560 On ch=2 n=d5 v=0
268560 On ch=2 n=d5 v=41
268800 On ch=2 n=d5 v=0
268800 On ch=2 n=g5 v=42
269280 On ch=2 n=g5 v=0
269280 On ch=2 n=f#5 v=43
269760 On ch=2 n=f#5 v=0
269760 On ch=2 n=g5 v=45
270240 On ch=2 n=g5 v=0
270240 On ch=2 n=a5 v=46
270720 On ch=2 n=a5 v=0
270720 On ch=2 n=c6 v=49
270960 On ch=2 n=c6 v=0
270960 On ch=2 n=b5 v=47
271200 On ch=2 n=b5 v=0
271200 On ch=2 n=a5 v=45
271680 On ch=2 n=a5 v=0
271920 On ch=2 n=d5 v=42
272160 On ch=2 n=d5 v=0
272160 On ch=2 n=d5 v=43
272400 On ch=2 n=d5 v=0
272400 On ch=2 n=d5 v=43
272640 On ch=2 n=d5 v=0
272640 On ch=2 n=a5 v=44
273120 On ch=2 n=a5 v=0
273120 On ch=2 n=g5 v=46
273600 On ch=2 n=g5 v=0
273600 On ch=2 n=a5 v=48
274080 On ch=2 n=a5 v=0
274080 On ch=2 n=b5 v=49
274560 On ch=2 n=b5 v=0
274560 On ch=2 n=d6 v=53
274800 On ch=2 n=d6 v=0
274800 On ch=2 n=c6 v=51
275040 On ch=2 n=c6 v=0
275040 On ch=2 n=b5 v=49
275520 On ch=2 n=b5 v=0
275760 On ch=2 n=d6 v=46
276000 On ch=2 n=d6 v=0
276000 On ch=2 n=c6 v=46
276240 On ch=2 n=c6 v=0
276240 On ch=2 n=b5 v=46
276480 On ch=2 n=b5 v=0
276480 On ch=2 n=b5 v=47
276720 On ch=2 n=b5 v=0
276720 On ch=2 n=a5 v=47
276876 On ch=2 n=a5 v=0
276960 On ch=2 n=a5 v=47
277116 On ch=2 n=a5 v=0
277200 On ch=2 n=a5 v=47
277356 On ch=2 n=a5 v=0
277440 On ch=2 n=g5 v=47
277680 On ch=2 n=g5 v=0
277680 On ch=2 n=d6 v=47
277920 On ch=2 n=d6 v=0
277920 On ch=2 n=c6 v=48
278160 On ch=2 n=c6 v=0
278160 On ch=2 n=b5 v=48
278400 On ch=2 n=b5 v=0
278400 On ch=2 n=b5 v=48
278640 On ch=2 n=b5 v=0
278640 On ch=2 n=a5 v=48
278796 On ch=2 n=a5 v=0
278880 On ch=2 n=a5 v=48
279036 On ch=2 n=a5 v=0
279120 On ch=2 n=a5 v=49
279276 On ch=2 n=a5 v=0
279360 On ch=2 n=g5 v=49
279600 On ch=2 n=g5 v=0
279600 On ch=2 n=d6 v=49
279840 On ch=2 n=d6 v=0
279840 On ch=2 n=c6 v=49
280080 On ch=2 n=c6 v=0
280080 On ch=2 n=b5 v=49
280320 On ch=2 n=b5 v=0
280320 On ch=2 n=b5 v=51
280560 On ch=2 n=b5 v=0
280560 On ch=2 n=a5 v=50
280716 On ch=2 n=a5 v=0
281040 On ch=2 n=a5 v=48
281196 On ch=2 n=a5 v=0
281280 On ch=2 n=a5 v=47
281520 On ch=2 n=a5 v=0
281520 On ch=2 n=g5 v=46
281676 On ch=2 n=g5 v=0
282000 On ch=2 n=g5 v=45
282240 On ch=2 n=g5 v=0
282240 On ch=2 n=f#5 v=44
282396 On ch=2 n=f#5 v=0
282480 On ch=2 n=g5 v=45
282636 On ch=2 n=g5 v=0
282720 On ch=2 n=a5 v=46
282876 On ch=2 n=a5 v=0
282960 On ch=2 n=b5 v=47
283116 On ch=2 n=b5 v=0
283200 On ch=2 n=c6 v=48
283356 On ch=2 n=c6 v=0
283440 On ch=2 n=d6 v=49
283596 On ch=2 n=d6 v=0
283680 On ch=2 n=e6 v=50
283836 On ch=2 n=e6 v=0
283920 On ch=2 n=f#6 v=51
284076 On ch=2 n=f#6 v=0
284160 On ch=2 n=g6 v=52
284640 On ch=2 n=g6 v=0
284640 On ch=2 n=f#6 v=53
285120 On ch=2 n=f#6 v=0
285120 On ch=2 n=g6 v=55
285600 On ch=2 n=g6 v=0
285600 On ch=2 n=a6 v=57
286080 On ch=2 n=a6 v=0
286080 On ch=2 n=c7 v=61
286320 On ch=2 n=c7 v=0
286320 On ch=2 n=b6 v=59
286560 On ch=2 n=b6 v=0
286560 On ch=2 n=a6 v=57
287040 On ch=2 n=a6 v=0
287280 On ch=2 n=d6 v=52
287520 On ch=2 n=d6 v=0
287520 On ch=2 n=d6 v=53
287760 On ch=2 n=d6 v=0
287760 On ch=2 n=d6 v=54
288000 On ch=2 n=d6 v=0
288000 On ch=2 n=a6 v=55
288480 On ch=2 n=a6 v=0
288480 On ch=2 n=g6 v=57
288960 On ch=2 n=g6 v=0
288960 On ch=2 n=a6 v=59
289440 On ch=2 n=a6 v=0
289440 On ch=2 n=b6 v=61
289920 On ch=2 n=b6 v=0
289920 On ch=2 n=d7 v=67
290160 On ch=2 n=d7 v=0
290160 On ch=2 n=c7 v=65
290400 On ch=2 n=c7 v=0
290400 On ch=2 n=b6 v=63
290880 On ch=2 n=b6 v=0
291120 On ch=2 n=d7 v=58
291360 On ch=2 n=d7 v=0
291360 On ch=2 n=c7 v=59
291600 On ch=2 n=c7 v=0
291600 On ch=2 n=b6 v=59
291840 On ch=2 n=b6 v=0
291840 On ch=2 n=b6 v=59
292080 On ch=2 n=b6 v=0
292080 On ch=2 n=a6 v=59
292236 On ch=2 n=a6 v=0
292320 On ch=2 n=a6 v=59
292476 On ch=2 n=a6 v=0
292560 On ch=2 n=a6 v=60
292716 On ch=2 n=a6 v=0
292800 On ch=2 n=g6 v=60
293040 On ch=2 n=g6 v=0
293040 On ch=2 n=d7 v=60
293280 On ch=2 n=d7 v=0
293280 On ch=2 n=c7 v=60
293520 On ch=2 n=c7 v=0
293520 On ch=2 n=b6 v=60
293760 On ch=2 n=b6 v=0
293760 On ch=2 n=b6 v=61
294000 On ch=2 n=b6 v=0
294000 On ch=2 n=a6 v=61
294156 On ch=2 n=a6 v=0
294240 On ch=2 n=a6 v=61
294396 On ch=2 n=a6 v=0
294480 On ch=2 n=a6 v=61
294636 On ch=2 n=a6 v=0
294720 On ch=2 n=g6 v=61
294960 On ch=2 n=g6 v=0
294960 On ch=2 n=d7 v=61
295200 On ch=2 n=d7 v=0
295200 On ch=2 n=c7 v=62
295440 On ch=2 n=c7 v=0
295440 On ch=2 n=b6 v=62
295680 On ch=2 n=b6 v=0
295680 On ch=2 n=b6 v=65
295920 On ch=2 n=b6 v=0
295920 On ch=2 n=a6 v=64
296160 On ch=2 n=a6 v=0
296160 On ch=2 n=c7 v=63
296400 On ch=2 n=c7 v=0
296400 On ch=2 n=a6 v=62
296640 On ch=2 n=a6 v=0
296640 On ch=2 n=a6 v=61
296880 On ch=2 n=a6 v=0
296880 On ch=2 n=g6 v=60
297036 On ch=2 n=g6 v=0
297120 On ch=2 n=g6 v=59
297360 On ch=2 n=g6 v=0
297360 On ch=2 n=f#6 v=58
297516 On ch=2 n=f#6 v=0
297540 On ch=2 n=g6 v=87
297600 On ch=2 n=d7 v=87
297760 On ch=2 n=d7 v=0
297760 On ch=2 n=c7 v=87
297765 On ch=2 n=g6 v=0
297920 On ch=2 n=c7 v=0
297920 On ch=2 n=b6 v=87
298080 On ch=2 n=b6 v=0
298080 On ch=2 n=a6 v=87
298240 On ch=2 n=a6 v=0
298240 On ch=2 n=g6 v=87
298400 On ch=2 n=g6 v=0
298400 On ch=2 n=f#6 v=86
298560 On ch=2 n=f#6 v=0
298560 On ch=2 n=e6 v=86
298720 On ch=2 n=e6 v=0
298720 On ch=2 n=d6 v=86
298880 On ch=2 n=d6 v=0
298880 On ch=2 n=c6 v=86
299040 On ch=2 n=c6 v=0
299040 On ch=2 n=b5 v=85
299200 On ch=2 n=b5 v=0
299200 On ch=2 n=a5 v=85
299360 On ch=2 n=a5 v=0
299360 On ch=2 n=g5 v=85
299520 On ch=2 n=g5 v=0
299520 On ch=2 n=f#5 v=85
300000 On ch=2 n=f#5 v=0
300000 On ch=2 n=f#5 v=84
300480 On ch=2 n=f#5 v=0
300480 On ch=2 n=f#5 v=84
300960 On ch=2 n=f#5 v=0
300960 On ch=2 n=f#5 v=83
301440 On ch=2 n=f#5 v=0
301440 On ch=2 n=g5 v=82
301600 On ch=2 n=g5 v=0
301600 On ch=2 n=a5 v=82
301760 On ch=2 n=a5 v=0
301760 On ch=2 n=b5 v=82
301920 On ch=2 n=b5 v=0
301920 On ch=2 n=c6 v=82
302080 On ch=2 n=c6 v=0
302080 On ch=2 n=d6 v=81
302240 On ch=2 n=d6 v=0
302240 On ch=2 n=e6 v=81
302400 On ch=2 n=e6 v=0
302400 On ch=2 n=f#6 v=81
302560 On ch=2 n=f#6 v=0
302560 On ch=2 n=g6 v=81
302720 On ch=2 n=g6 v=0
302720 On ch=2 n=a6 v=81
302880 On ch=2 n=a6 v=0
302880 On ch=2 n=b6 v=80
303040 On ch=2 n=b6 v=0
303040 On ch=2 n=c7 v=80
303200 On ch=2 n=c7 v=0
303200 On ch=2 n=d7 v=80
303360 On ch=2 n=d7 v=0
303360 On ch=2 n=c7 v=80
303840 On ch=2 n=c7 v=0
303840 On ch=2 n=c7 v=79
304320 On ch=2 n=c7 v=0
304320 On ch=2 n=c7 v=78
304800 On ch=2 n=c7 v=0
304800 On ch=2 n=c7 v=78
305220 On ch=2 n=g6 v=77
305227 On ch=2 n=c7 v=0
305280 On ch=2 n=d7 v=77
305437 On ch=2 n=g6 v=0
305440 On ch=2 n=d7 v=0
305440 On ch=2 n=c7 v=77
305600 On ch=2 n=c7 v=0
305600 On ch=2 n=b6 v=77
305760 On ch=2 n=b6 v=0
305760 On ch=2 n=a6 v=77
305920 On ch=2 n=a6 v=0
305920 On ch=2 n=g6 v=76
306080 On ch=2 n=g6 v=0
306080 On ch=2 n=f#6 v=76
306240 On ch=2 n=f#6 v=0
306240 On ch=2 n=e6 v=76
306400 On ch=2 n=e6 v=0
306400 On ch=2 n=d6 v=76
306560 On ch=2 n=d6 v=0
306560 On ch=2 n=c6 v=75
306720 On ch=2 n=c6 v=0
306720 On ch=2 n=b5 v=75
306880 On ch=2 n=b5 v=0
306880 On ch=2 n=a5 v=75
307040 On ch=2 n=a5 v=0
307040 On ch=2 n=g5 v=75
307200 On ch=2 n=g5 v=0
307200 On ch=2 n=f5 v=75
307680 On ch=2 n=f5 v=0
307680 On ch=2 n=f5 v=74
308160 On ch=2 n=f5 v=0
308160 On ch=2 n=f5 v=73
308640 On ch=2 n=f5 v=0
308640 On ch=2 n=f5 v=73
309120 On ch=2 n=f5 v=0
309120 On ch=2 n=e5 v=73
309280 On ch=2 n=e5 v=0
309280 On ch=2 n=a5 v=72
309440 On ch=2 n=a5 v=0
309440 On ch=2 n=c6 v=72
309600 On ch=2 n=c6 v=0
309600 On ch=2 n=e6 v=71
309760 On ch=2 n=e6 v=0
309760 On ch=2 n=c6 v=70
309920 On ch=2 n=c6 v=0
309920 On ch=2 n=a5 v=70
310080 On ch=2 n=a5 v=0
310080 On ch=2 n=g5 v=69
310560 On ch=2 n=g5 v=0
310560 On ch=2 n=a5 v=66
310640 On ch=2 n=b5 v=66
310680 On ch=2 n=a5 v=0
310720 On ch=2 n=a5 v=66
310760 On ch=2 n=b5 v=0
310800 On ch=2 n=g5 v=68
310840 On ch=2 n=a5 v=0
310920 On ch=2 n=g5 v=0
310920 On ch=2 n=a5 v=66
311040 On ch=2 n=g5 v=71
311047 On ch=2 n=a5 v=0
311200 On ch=2 n=g5 v=0
311200 On ch=2 n=a5 v=72
311360 On ch=2 n=a5 v=0
311360 On ch=2 n=b5 v=74
311520 On ch=2 n=b5 v=0
311520 On ch=2 n=c6 v=76
311680 On ch=2 n=c6 v=0
311680 On ch=2 n=d6 v=77
311840 On ch=2 n=d6 v=0
311840 On ch=2 n=e6 v=79
312000 On ch=2 n=e6 v=0
312000 On ch=2 n=f#6 v=80
312160 On ch=2 n=f#6 v=0
312160 On ch=2 n=g6 v=82
312320 On ch=2 n=g6 v=0
312320 On ch=2 n=a6 v=84
312480 On ch=2 n=a6 v=0
312480 On ch=2 n=b6 v=85
312640 On ch=2 n=b6 v=0
312640 On ch=2 n=c7 v=87
312800 On ch=2 n=c7 v=0
312800 On ch=2 n=d7 v=88
312960 On ch=2 n=d7 v=0
312960 On ch=2 n=e7 v=97
314880 On ch=2 n=e7 v=0
314880 On ch=2 n=d7 v=76
315072 On ch=2 n=d7 v=0
315360 On ch=2 n=c7 v=71
315552 On ch=2 n=c7 v=0
315840 On ch=2 n=b6 v=66
316032 On ch=2 n=b6 v=0
316320 On ch=2 n=a6 v=61
316512 On ch=2 n=a6 v=0
316800 On ch=2 n=d7 v=66
316960 On ch=2 n=d7 v=0
316960 On ch=2 n=c7 v=67
317120 On ch=2 n=c7 v=0
317120 On ch=2 n=b6 v=69
317280 On ch=2 n=b6 v=0
317280 On ch=2 n=a6 v=71
317440 On ch=2 n=a6 v=0
317440 On ch=2 n=g6 v=73
317600 On ch=2 n=g6 v=0
317600 On ch=2 n=f#6 v=74
317760 On ch=2 n=f#6 v=0
317760 On ch=2 n=e6 v=76
317920 On ch=2 n=e6 v=0
317920 On ch=2 n=d6 v=78
318080 On ch=2 n=d6 v=0
318080 On ch=2 n=c6 v=80
318240 On ch=2 n=c6 v=0
318240 On ch=2 n=b5 v=82
318400 On ch=2 n=b5 v=0
318400 On ch=2 n=a5 v=83
318560 On ch=2 n=a5 v=0
318560 On ch=2 n=g5 v=85
318720 On ch=2 n=g5 v=0
318720 On ch=2 n=e6 v=89
320640 On ch=2 n=e6 v=0
320640 On ch=2 n=d6 v=68
320832 On ch=2 n=d6 v=0
321120 On ch=2 n=c6 v=63
321312 On ch=2 n=c6 v=0
321600 On ch=2 n=b5 v=57
321792 On ch=2 n=b5 v=0
322080 On ch=2 n=a5 v=52
322272 On ch=2 n=a5 v=0
322560 On ch=2 n=g5 v=85
323040 On ch=2 n=g5 v=0
323040 On ch=2 n=d7 v=84
323200 On ch=2 n=d7 v=0
323200 On ch=2 n=b6 v=84
323360 On ch=2 n=b6 v=0
323360 On ch=2 n=g6 v=84
323520 On ch=2 n=g6 v=0
323520 On ch=2 n=f#6 v=83
324000 On ch=2 n=f#6 v=0
324000 On ch=2 n=c7 v=82
324160 On ch=2 n=c7 v=0
324160 On ch=2 n=a6 v=82
324320 On ch=2 n=a6 v=0
324320 On ch=2 n=f#6 v=81
324480 On ch=2 n=f#6 v=0
324480 On ch=2 n=g6 v=81
324960 On ch=2 n=g6 v=0
324960 On ch=2 n=d6 v=80
325120 On ch=2 n=d6 v=0
325120 On ch=2 n=b5 v=80
325280 On ch=2 n=b5 v=0
325280 On ch=2 n=g5 v=79
325440 On ch=2 n=g5 v=0
325440 On ch=2 n=f#5 v=79
325920 On ch=2 n=f#5 v=0
325920 On ch=2 n=c6 v=78
326080 On ch=2 n=c6 v=0
326080 On ch=2 n=a5 v=78
326240 On ch=2 n=a5 v=0
326240 On ch=2 n=f#5 v=77
326400 On ch=2 n=f#5 v=0
326400 On ch=2 n=g5 v=81
326880 On ch=2 n=g5 v=0
326880 On ch=2 n=d7 v=80
327040 On ch=2 n=d7 v=0
327040 On ch=2 n=b6 v=80
327200 On ch=2 n=b6 v=0
327200 On ch=2 n=g6 v=80
327360 On ch=2 n=g6 v=0
327360 On ch=2 n=f#6 v=79
327840 On ch=2 n=f#6 v=0
327840 On ch=2 n=c7 v=78
328000 On ch=2 n=c7 v=0
328000 On ch=2 n=a6 v=78
328160 On ch=2 n=a6 v=0
328160 On ch=2 n=f#6 v=78
328320 On ch=2 n=f#6 v=0
328320 On ch=2 n=g6 v=78
328800 On ch=2 n=g6 v=0
328800 On ch=2 n=d6 v=77
328960 On ch=2 n=d6 v=0
328960 On ch=2 n=b5 v=76
329120 On ch=2 n=b5 v=0
329120 On ch=2 n=g5 v=76
329280 On ch=2 n=g5 v=0
329280 On ch=2 n=f#5 v=76
329760 On ch=2 n=f#5 v=0
329760 On ch=2 n=c6 v=75
329920 On ch=2 n=c6 v=0
329920 On ch=2 n=a5 v=74
330080 On ch=2 n=a5 v=0
330080 On ch=2 n=f#5 v=74
330240 On ch=2 n=f#5 v=0
330240 On ch=2 n=g5 v=74
330720 On ch=2 n=g5 v=0
330720 On ch=2 n=c6 v=73
330880 On ch=2 n=c6 v=0
330880 On ch=2 n=a5 v=72
331040 On ch=2 n=a5 v=0
331040 On ch=2 n=f#5 v=72
331200 On ch=2 n=f#5 v=0
331200 On ch=2 n=g5 v=72
331680 On ch=2 n=g5 v=0
331680 On ch=2 n=c6 v=71
331840 On ch=2 n=c6 v=0
331840 On ch=2 n=a5 v=70
332000 On ch=2 n=a5 v=0
332000 On ch=2 n=f#5 v=70
332160 On ch=2 n=f#5 v=0
332160 On ch=2 n=g5 v=70
332352 On ch=2 n=g5 v=0
333120 On ch=2 n=f#6 v=68
333312 On ch=2 n=f#6 v=0
334080 On ch=2 n=g6 v=66
334272 On ch=2 n=g6 v=0
336960 Par ch=2 c=64 v=0
336960 On ch=2 n=g5 v=46
337320 On ch=2 n=g5 v=0
337320 On ch=2 n=f#5 v=46
337440 On ch=2 n=f#5 v=0
337440 On ch=2 n=f#5 v=46
338400 On ch=2 n=f#5 v=0
338400 On ch=2 n=f#5 v=48
338760 On ch=2 n=f#5 v=0
338760 On ch=2 n=g5 v=49
338880 On ch=2 n=g5 v=0
338880 On ch=2 n=g5 v=49
339840 On ch=2 n=g5 v=0
339840 On ch=2 n=g5 v=50
340200 On ch=2 n=g5 v=0
340200 On ch=2 n=b5 v=51
340320 On ch=2 n=b5 v=0
340320 On ch=2 n=d6 v=52
341040 On ch=2 n=d6 v=0
341040 On ch=2 n=e6 v=50
341280 On ch=2 n=e6 v=0
341280 On ch=2 n=d6 v=49
341520 On ch=2 n=d6 v=0
341520 On ch=2 n=c6 v=49
341760 On ch=2 n=c6 v=0
341760 On ch=2 n=b5 v=48
342240 On ch=2 n=b5 v=0
342240 On ch=2 n=g5 v=47
342480 On ch=2 n=g5 v=0
342720 On ch=2 n=g5 v=46
343080 On ch=2 n=g5 v=0
343080 On ch=2 n=f#5 v=47
343200 On ch=2 n=f#5 v=0
343200 On ch=2 n=f#5 v=47
344160 On ch=2 n=f#5 v=0
344160 On ch=2 n=f#5 v=51
344520 On ch=2 n=f#5 v=0
344520 On ch=2 n=g5 v=52
344640 On ch=2 n=g5 v=0
344640 On ch=2 n=g5 v=52
345600 On ch=2 n=g5 v=0
345600 On ch=2 n=g5 v=55
345960 On ch=2 n=g5 v=0
345960 On ch=2 n=b5 v=57
346080 On ch=2 n=b5 v=0
346080 On ch=2 n=d6 v=59
346800 On ch=2 n=d6 v=0
346800 On ch=2 n=c#6 v=57
347040 On ch=2 n=c#6 v=0
347040 On ch=2 n=c6 v=54
347280 On ch=2 n=c6 v=0
347280 On ch=2 n=a5 v=52
347520 On ch=2 n=a5 v=0
347520 On ch=2 n=g5 v=49
348000 On ch=2 n=g5 v=0
348480 On ch=2 n=b5 v=40
348840 On ch=2 n=b5 v=0
348840 On ch=2 n=b5 v=40
348960 On ch=2 n=b5 v=0
348960 On ch=2 n=b5 v=41
349440 On ch=2 n=b5 v=0
349440 On ch=2 n=c6 v=36
349680 On ch=2 n=c6 v=0
349920 On ch=2 n=c6 v=43
350280 On ch=2 n=c6 v=0
350280 On ch=2 n=c6 v=43
350400 On ch=2 n=c6 v=0
350400 On ch=2 n=c6 v=44
350880 On ch=2 n=c6 v=0
350880 On ch=2 n=b5 v=39
351120 On ch=2 n=b5 v=0
351360 On ch=2 n=b5 v=45
351720 On ch=2 n=b5 v=0
351720 On ch=2 n=b5 v=46
351840 On ch=2 n=b5 v=0
351840 On ch=2 n=b5 v=46
352080 On ch=2 n=b5 v=0
352080 On ch=2 n=a5 v=47
352320 On ch=2 n=a5 v=0
352320 On ch=2 n=g#5 v=47
352560 On ch=2 n=g#5 v=0
352560 On ch=2 n=a5 v=48
352800 On ch=2 n=a5 v=0
352800 On ch=2 n=d#6 v=48
353040 On ch=2 n=d#6 v=0
353040 On ch=2 n=e6 v=49
353280 On ch=2 n=e6 v=0
353280 On ch=2 n=g5 v=48
353760 On ch=2 n=g5 v=0
353760 On ch=2 n=f#5 v=41
354000 On ch=2 n=f#5 v=0
354240 On ch=2 n=g6 v=48
354600 On ch=2 n=g6 v=0
354600 On ch=2 n=f#6 v=48
354720 On ch=2 n=f#6 v=0
354720 On ch=2 n=f#6 v=48
355680 On ch=2 n=f#6 v=0
355680 On ch=2 n=f#6 v=50
356040 On ch=2 n=f#6 v=0
356040 On ch=2 n=g6 v=50
356160 On ch=2 n=g6 v=0
356160 On ch=2 n=g6 v=51
357120 On ch=2 n=g6 v=0
357120 On ch=2 n=g6 v=52
357480 On ch=2 n=g6 v=0
357480 On ch=2 n=b6 v=53
357600 On ch=2 n=b6 v=0
357600 On ch=2 n=d7 v=53
358320 On ch=2 n=d7 v=0
358320 On ch=2 n=e7 v=50
358560 On ch=2 n=e7 v=0
358560 On ch=2 n=d7 v=49
358800 On ch=2 n=d7 v=0
358800 On ch=2 n=c7 v=48
359040 On ch=2 n=c7 v=0
359040 On ch=2 n=b6 v=47
359520 On ch=2 n=b6 v=0
359520 On ch=2 n=g6 v=45
359760 On ch=2 n=g6 v=0
360000 On ch=2 n=g6 v=47
360360 On ch=2 n=g6 v=0
360360 On ch=2 n=f#6 v=48
360480 On ch=2 n=f#6 v=0
360480 On ch=2 n=f#6 v=49
361440 On ch=2 n=f#6 v=0
361440 On ch=2 n=f#6 v=54
361800 On ch=2 n=f#6 v=0
361800 On ch=2 n=g6 v=56
361920 On ch=2 n=g6 v=0
361920 On ch=2 n=g6 v=57
362880 On ch=2 n=g6 v=0
362880 On ch=2 n=g6 v=62
363240 On ch=2 n=g6 v=0
363240 On ch=2 n=b6 v=68
363360 On ch=2 n=b6 v=0
363360 On ch=2 n=d7 v=76
363840 On ch=2 n=d7 v=0
363840 On ch=2 n=d7 v=68
363960 On ch=2 n=d7 v=0
363960 On ch=2 n=c#7 v=65
364080 On ch=2 n=c#7 v=0
364080 On ch=2 n=d7 v=63
364200 On ch=2 n=d7 v=0
364200 On ch=2 n=c#7 v=61
364320 On ch=2 n=c#7 v=0
364320 On ch=2 n=d7 v=59
364440 On ch=2 n=d7 v=0
364440 On ch=2 n=c7 v=57
364560 On ch=2 n=c7 v=0
364560 On ch=2 n=b6 v=54
364680 On ch=2 n=b6 v=0
364680 On ch=2 n=a6 v=52
364800 On ch=2 n=a6 v=0
364800 On ch=2 n=g6 v=50
365280 On ch=2 n=g6 v=0
365760 On ch=2 n=d6 v=44
366240 On ch=2 n=d6 v=0
366240 On ch=2 n=g6 v=45
366720 On ch=2 n=g6 v=0
367200 On ch=2 n=f#6 v=47
367680 On ch=2 n=f#6 v=0
367680 On ch=2 n=e6 v=48
368160 On ch=2 n=e6 v=0
368640 On ch=2 n=d6 v=50
369120 On ch=2 n=d6 v=0
369120 On ch=2 n=d6 v=51
369600 On ch=2 n=d6 v=0
369600 On ch=2 n=d6 v=52
370080 On ch=2 n=d6 v=0
370080 On ch=2 n=d6 v=53
370560 On ch=2 n=d6 v=0
370560 On ch=2 n=d6 v=47
371040 On ch=2 n=d6 v=0
372120 On ch=2 n=d6 v=48
372240 On ch=2 n=d6 v=0
372240 On ch=2 n=e6 v=49
372360 On ch=2 n=e6 v=0
372360 On ch=2 n=f#6 v=50
372480 On ch=2 n=f#6 v=0
372480 On ch=2 n=g6 v=51
372600 On ch=2 n=g6 v=0
372600 On ch=2 n=a6 v=52
372720 On ch=2 n=a6 v=0
372720 On ch=2 n=b6 v=52
372840 On ch=2 n=b6 v=0
372840 On ch=2 n=c#7 v=53
372960 On ch=2 n=c#7 v=0
372960 On ch=2 n=d7 v=54
373080 On ch=2 n=d7 v=0
373200 On ch=2 n=d7 v=56
373320 On ch=2 n=d7 v=0
373560 On ch=2 n=d6 v=58
373680 On ch=2 n=d6 v=0
373680 On ch=2 n=e6 v=59
373800 On ch=2 n=e6 v=0
373800 On ch=2 n=f#6 v=60
373920 On ch=2 n=f#6 v=0
373920 On ch=2 n=g6 v=60
374040 On ch=2 n=g6 v=0
374040 On ch=2 n=a6 v=61
374160 On ch=2 n=a6 v=0
374160 On ch=2 n=b6 v=62
374280 On ch=2 n=b6 v=0
374280 On ch=2 n=c#7 v=63
374400 On ch=2 n=c#7 v=0
374400 On ch=2 n=d7 v=64
374520 On ch=2 n=d7 v=0
374640 On ch=2 n=d7 v=65
374760 On ch=2 n=d7 v=0
374880 On ch=2 n=b6 v=67
375120 On ch=2 n=b6 v=0
375120 On ch=2 n=a6 v=68
375360 On ch=2 n=a6 v=0
375360 On ch=2 n=g6 v=70
375600 On ch=2 n=g6 v=0
375600 On ch=2 n=f#6 v=72
375840 On ch=2 n=f#6 v=0
375840 On ch=2 n=e6 v=73
376080 On ch=2 n=e6 v=0
376080 On ch=2 n=d6 v=75
376260 On ch=2 n=c#6 v=83
376320 On ch=2 n=c#6 v=0
376320 On ch=2 n=d6 v=0
376320 On ch=2 n=a6 v=83
377040 On ch=2 n=a6 v=0
377040 On ch=2 n=b6 v=81
377160 On ch=2 n=b6 v=0
377160 On ch=2 n=a6 v=80
377280 On ch=2 n=a6 v=0
377280 On ch=2 n=g6 v=80
377400 On ch=2 n=g6 v=0
377520 On ch=2 n=a6 v=79
377640 On ch=2 n=a6 v=0
377640 On ch=2 n=g6 v=78
377760 On ch=2 n=g6 v=0
377760 On ch=2 n=f#6 v=78
377880 On ch=2 n=f#6 v=0
378000 On ch=2 n=g6 v=77
378120 On ch=2 n=g6 v=0
378120 On ch=2 n=f#6 v=76
378240 On ch=2 n=f#6 v=0
378240 On ch=2 n=e6 v=76
378360 On ch=2 n=e6 v=0
378480 On ch=2 n=f#6 v=75
378600 On ch=2 n=f#6 v=0
378600 On ch=2 n=e6 v=75
378720 On ch=2 n=e6 v=0
378720 On ch=2 n=d6 v=74
378840 On ch=2 n=d6 v=0
378960 On ch=2 n=e6 v=73
379080 On ch=2 n=e6 v=0
379080 On ch=2 n=d6 v=73
379200 On ch=2 n=d6 v=0
379200 On ch=2 n=c#6 v=74
379680 On ch=2 n=c#6 v=0
379920 On ch=2 n=c#6 v=75
380160 On ch=2 n=c#6 v=0
380160 On ch=2 n=d6 v=75
380280 On ch=2 n=d6 v=0
380280 On ch=2 n=c#6 v=75
380400 On ch=2 n=c#6 v=0
380400 On ch=2 n=b5 v=75
380520 On ch=2 n=b5 v=0
380520 On ch=2 n=c#6 v=75
380640 On ch=2 n=c#6 v=0
380640 On ch=2 n=d6 v=76
381120 On ch=2 n=d6 v=0
381360 On ch=2 n=d6 v=77
381600 On ch=2 n=d6 v=0
381600 On ch=2 n=e6 v=76
381720 On ch=2 n=e6 v=0
381720 On ch=2 n=d6 v=77
381840 On ch=2 n=d6 v=0
381840 On ch=2 n=c#6 v=78
381960 On ch=2 n=c#6 v=0
381960 On ch=2 n=d6 v=79
382080 On ch=2 n=d6 v=0
382080 On ch=2 n=a6 v=81
382800 On ch=2 n=a6 v=0
382800 On ch=2 n=b6 v=77
382920 On ch=2 n=b6 v=0
382920 On ch=2 n=a6 v=77
383040 On ch=2 n=a6 v=0
383040 On ch=2 n=g6 v=76
383160 On ch=2 n=g6 v=0
383280 On ch=2 n=a6 v=76
383400 On ch=2 n=a6 v=0
383400 On ch=2 n=g6 v=75
383520 On ch=2 n=g6 v=0
383520 On ch=2 n=f#6 v=75
383640 On ch=2 n=f#6 v=0
383760 On ch=2 n=g6 v=74
383880 On ch=2 n=g6 v=0
383880 On ch=2 n=f#6 v=74
384000 On ch=2 n=f#6 v=0
384000 On ch=2 n=e6 v=73
384120 On ch=2 n=e6 v=0
384240 On ch=2 n=f#6 v=73
384360 On ch=2 n=f#6 v=0
384360 On ch=2 n=e6 v=72
384480 On ch=2 n=e6 v=0
384480 On ch=2 n=d6 v=72
384600 On ch=2 n=d6 v=0
384720 On ch=2 n=e6 v=71
384840 On ch=2 n=e6 v=0
384840 On ch=2 n=d6 v=71
384960 On ch=2 n=d6 v=0
384960 On ch=2 n=c#6 v=70
385440 On ch=2 n=c#6 v=0
385680 On ch=2 n=c#6 v=66
385920 On ch=2 n=c#6 v=0
385920 On ch=2 n=d6 v=66
386040 On ch=2 n=d6 v=0
386040 On ch=2 n=c#6 v=65
386160 On ch=2 n=c#6 v=0
386160 On ch=2 n=b5 v=65
386280 On ch=2 n=b5 v=0
386280 On ch=2 n=c#6 v=65
386400 On ch=2 n=c#6 v=0
386400 On ch=2 n=e6 v=65
386760 On ch=2 n=e6 v=0
386760 On ch=2 n=g6 v=63
386880 On ch=2 n=g6 v=0
386880 On ch=2 n=d6 v=63
387360 On ch=2 n=d6 v=0
387360 On ch=2 n=c#6 v=60
387840 On ch=2 n=c#6 v=0
387840 On ch=2 n=d6 v=60
388080 On ch=2 n=d6 v=0
388080 On ch=2 n=e6 v=60
388200 On ch=2 n=e6 v=0
388200 On ch=2 n=f#6 v=61
388320 On ch=2 n=f#6 v=0
388320 On ch=2 n=g6 v=61
388440 On ch=2 n=g6 v=0
388440 On ch=2 n=a6 v=61
388560 On ch=2 n=a6 v=0
388560 On ch=2 n=b6 v=62
388680 On ch=2 n=b6 v=0
388680 On ch=2 n=c#7 v=62
388800 On ch=2 n=c#7 v=0
388800 On ch=2 n=d7 v=62
388920 On ch=2 n=d7 v=0
389040 On ch=2 n=d7 v=63
389160 On ch=2 n=d7 v=0
389280 On ch=2 n=d7 v=67
389520 On ch=2 n=d7 v=0
389520 On ch=2 n=a6 v=66
389640 On ch=2 n=a6 v=0
389760 On ch=2 n=a6 v=65
390000 On ch=2 n=a6 v=0
390000 On ch=2 n=f#6 v=63
390120 On ch=2 n=f#6 v=0
390240 On ch=2 n=f#6 v=62
390480 On ch=2 n=f#6 v=0
390480 On ch=2 n=d6 v=61
390600 On ch=2 n=d6 v=0
390720 On ch=2 n=d6 v=59
391680 On ch=2 n=d6 v=0
391680 On ch=2 n=e6 v=54
392040 On ch=2 n=e6 v=0
392040 On ch=2 n=c#6 v=52
392160 On ch=2 n=c#6 v=0
392160 On ch=2 n=d6 v=50
392400 On ch=2 n=d6 v=0
392400 On ch=2 n=e6 v=52
392520 On ch=2 n=e6 v=0
392520 On ch=2 n=f#6 v=52
392640 On ch=2 n=f#6 v=0
392640 On ch=2 n=g6 v=53
392760 On ch=2 n=g6 v=0
392760 On ch=2 n=a6 v=54
392880 On ch=2 n=a6 v=0
392880 On ch=2 n=b6 v=54
393000 On ch=2 n=b6 v=0
393000 On ch=2 n=c#7 v=55
393120 On ch=2 n=c#7 v=0
393120 On ch=2 n=d7 v=56
393240 On ch=2 n=d7 v=0
393360 On ch=2 n=d7 v=57
393480 On ch=2 n=d7 v=0
393600 On ch=2 n=d7 v=61
393760 On ch=2 n=d7 v=0
393760 On ch=2 n=a6 v=60
393864 On ch=2 n=a6 v=0
393920 On ch=2 n=a6 v=59
394024 On ch=2 n=a6 v=0
394080 On ch=2 n=a6 v=58
394240 On ch=2 n=a6 v=0
394240 On ch=2 n=f#6 v=57
394344 On ch=2 n=f#6 v=0
394400 On ch=2 n=f#6 v=56
394504 On ch=2 n=f#6 v=0
394560 On ch=2 n=f#6 v=55
394720 On ch=2 n=f#6 v=0
394720 On ch=2 n=d6 v=54
394824 On ch=2 n=d6 v=0
394880 On ch=2 n=d6 v=53
394984 On ch=2 n=d6 v=0
395040 On ch=2 n=d6 v=52
396000 On ch=2 n=d6 v=0
396000 On ch=2 n=e6 v=53
396360 On ch=2 n=e6 v=0
396360 On ch=2 n=c#6 v=53
396480 On ch=2 n=c#6 v=0
396480 On ch=2 n=d6 v=52
396840 On ch=2 n=d6 v=0
396840 On ch=2 n=d6 v=52
396960 On ch=2 n=d6 v=0
396960 On ch=2 n=c#6 v=51
397320 On ch=2 n=c#6 v=0
397320 On ch=2 n=d6 v=51
397440 On ch=2 n=d6 v=0
397440 On ch=2 n=c6 v=51
397800 On ch=2 n=c6 v=0
397800 On ch=2 n=d6 v=50
397920 On ch=2 n=d6 v=0
397920 On ch=2 n=b5 v=50
398280 On ch=2 n=b5 v=0
398280 On ch=2 n=d6 v=49
398400 On ch=2 n=d6 v=0
398400 On ch=2 n=b5 v=49
398760 On ch=2 n=b5 v=0
398760 On ch=2 n=d6 v=48
398880 On ch=2 n=d6 v=0
398880 On ch=2 n=c#6 v=48
399240 On ch=2 n=c#6 v=0
399240 On ch=2 n=e6 v=47
399360 On ch=2 n=e6 v=0
399360 On ch=2 n=d6 v=47
399720 On ch=2 n=d6 v=0
399720 On ch=2 n=d6 v=46
399840 On ch=2 n=d6 v=0
399840 On ch=2 n=c#6 v=46
400200 On ch=2 n=c#6 v=0
400200 On ch=2 n=d6 v=45
400320 On ch=2 n=d6 v=0
400320 On ch=2 n=c6 v=45
400680 On ch=2 n=c6 v=0
400680 On ch=2 n=d6 v=44
400800 On ch=2 n=d6 v=0
400800 On ch=2 n=b5 v=44
401160 On ch=2 n=b5 v=0
401160 On ch=2 n=d6 v=43
401280 On ch=2 n=d6 v=0
401280 On ch=2 n=b5 v=43
401640 On ch=2 n=b5 v=0
401640 On ch=2 n=d6 v=42
401760 On ch=2 n=d6 v=0
401760 On ch=2 n=c#6 v=42
402120 On ch=2 n=c#6 v=0
402120 On ch=2 n=e6 v=41
402240 On ch=2 n=e6 v=0
402240 On ch=2 n=d6 v=41
402600 On ch=2 n=d6 v=0
402600 On ch=2 n=d6 v=40
402720 On ch=2 n=d6 v=0
402720 On ch=2 n=c#6 v=40
403080 On ch=2 n=c#6 v=0
403080 On ch=2 n=d6 v=39
403200 On ch=2 n=d6 v=0
403200 On ch=2 n=c6 v=39
403560 On ch=2 n=c6 v=0
403560 On ch=2 n=d6 v=38
403680 On ch=2 n=d6 v=0
403680 On ch=2 n=b5 v=38
404040 On ch=2 n=b5 v=0
404040 On ch=2 n=d6 v=41
404160 On ch=2 n=d6 v=0
404160 On ch=2 n=a5 v=42
404520 On ch=2 n=a5 v=0
404520 On ch=2 n=d6 v=46
404640 On ch=2 n=d6 v=0
404640 Par ch=2 c=64 v=0
404640 On ch=2 n=g5 v=47
405000 On ch=2 n=g5 v=0
405000 On ch=2 n=f#5 v=46
405120 On ch=2 n=f#5 v=0
405120 On ch=2 n=f#5 v=46
406080 On ch=2 n=f#5 v=0
406080 On ch=2 n=f#5 v=48
406440 On ch=2 n=f#5 v=0
406440 On ch=2 n=g5 v=49
406560 On ch=2 n=g5 v=0
406560 On ch=2 n=g5 v=49
407520 On ch=2 n=g5 v=0
407520 On ch=2 n=g5 v=50
407880 On ch=2 n=g5 v=0
407880 On ch=2 n=b5 v=51
408000 On ch=2 n=b5 v=0
408000 On ch=2 n=d6 v=52
408720 On ch=2 n=d6 v=0
408720 On ch=2 n=e6 v=50
408960 On ch=2 n=e6 v=0
408960 On ch=2 n=d6 v=49
409200 On ch=2 n=d6 v=0
409200 On ch=2 n=c6 v=49
409440 On ch=2 n=c6 v=0
409440 On ch=2 n=b5 v=48
409920 On ch=2 n=b5 v=0
409920 On ch=2 n=g5 v=47
410160 On ch=2 n=g5 v=0
410400 On ch=2 n=g5 v=46
410760 On ch=2 n=g5 v=0
410760 On ch=2 n=f#5 v=47
410880 On ch=2 n=f#5 v=0
410880 On ch=2 n=f#5 v=47
411840 On ch=2 n=f#5 v=0
411840 On ch=2 n=f#5 v=51
412200 On ch=2 n=f#5 v=0
412200 On ch=2 n=g5 v=52
412320 On ch=2 n=g5 v=0
412320 On ch=2 n=g5 v=52
413280 On ch=2 n=g5 v=0
413280 On ch=2 n=g5 v=55
413640 On ch=2 n=g5 v=0
413640 On ch=2 n=b5 v=57
413760 On ch=2 n=b5 v=0
413760 On ch=2 n=d6 v=59
414480 On ch=2 n=d6 v=0
414480 On ch=2 n=c#6 v=54
414720 On ch=2 n=c#6 v=0
414720 On ch=2 n=c6 v=52
414960 On ch=2 n=c6 v=0
414960 On ch=2 n=a5 v=50
415200 On ch=2 n=a5 v=0
415200 On ch=2 n=g5 v=49
415680 On ch=2 n=g5 v=0
416160 On ch=2 n=b5 v=40
416520 On ch=2 n=b5 v=0
416520 On ch=2 n=b5 v=41
416640 On ch=2 n=b5 v=0
416640 On ch=2 n=b5 v=41
417120 On ch=2 n=b5 v=0
417120 On ch=2 n=c6 v=36
417360 On ch=2 n=c6 v=0
417600 On ch=2 n=c6 v=43
417960 On ch=2 n=c6 v=0
417960 On ch=2 n=c6 v=43
418080 On ch=2 n=c6 v=0
418080 On ch=2 n=c6 v=44
418560 On ch=2 n=c6 v=0
418560 On ch=2 n=b5 v=39
418800 On ch=2 n=b5 v=0
419040 On ch=2 n=b5 v=46
419400 On ch=2 n=b5 v=0
419400 On ch=2 n=b5 v=46
419520 On ch=2 n=b5 v=0
419520 On ch=2 n=b5 v=47
419760 On ch=2 n=b5 v=0
419760 On ch=2 n=a5 v=47
420000 On ch=2 n=a5 v=0
420000 On ch=2 n=g#5 v=48
420240 On ch=2 n=g#5 v=0
420240 On ch=2 n=a5 v=48
420480 On ch=2 n=a5 v=0
420480 On ch=2 n=d#6 v=49
420720 On ch=2 n=d#6 v=0
420720 On ch=2 n=e6 v=49
420960 On ch=2 n=e6 v=0
420960 On ch=2 n=g5 v=46
421440 On ch=2 n=g5 v=0
421440 On ch=2 n=f#5 v=40
421680 On ch=2 n=f#5 v=0
421920 On ch=2 n=g6 v=54
422280 On ch=2 n=g6 v=0
422280 On ch=2 n=f#6 v=54
422400 On ch=2 n=f#6 v=0
422400 On ch=2 n=f#6 v=55
423360 On ch=2 n=f#6 v=0
423360 On ch=2 n=f#6 v=56
423720 On ch=2 n=f#6 v=0
423720 On ch=2 n=g6 v=57
423840 On ch=2 n=g6 v=0
423840 On ch=2 n=g6 v=57
424800 On ch=2 n=g6 v=0
424800 On ch=2 n=g6 v=58
425160 On ch=2 n=g6 v=0
425160 On ch=2 n=b6 v=59
425280 On ch=2 n=b6 v=0
425280 On ch=2 n=d7 v=59
426000 On ch=2 n=d7 v=0
426000 On ch=2 n=e7 v=57
426240 On ch=2 n=e7 v=0
426240 On ch=2 n=d7 v=56
426480 On ch=2 n=d7 v=0
426480 On ch=2 n=c7 v=54
426720 On ch=2 n=c7 v=0
426720 On ch=2 n=b6 v=53
427200 On ch=2 n=b6 v=0
427200 On ch=2 n=g6 v=50
427440 On ch=2 n=g6 v=0
427680 On ch=2 n=g6 v=53
428040 On ch=2 n=g6 v=0
428040 On ch=2 n=f#6 v=55
428160 On ch=2 n=f#6 v=0
428160 On ch=2 n=f#6 v=55
429120 On ch=2 n=f#6 v=0
429120 On ch=2 n=f#6 v=61
429480 On ch=2 n=f#6 v=0
429480 On ch=2 n=g6 v=63
429600 On ch=2 n=g6 v=0
429600 On ch=2 n=g6 v=64
430560 On ch=2 n=g6 v=0
430560 On ch=2 n=g6 v=69
430920 On ch=2 n=g6 v=0
430920 On ch=2 n=b6 v=71
431040 On ch=2 n=b6 v=0
431040 On ch=2 n=d7 v=79
431520 On ch=2 n=d7 v=0
431520 On ch=2 n=d7 v=72
431640 On ch=2 n=d7 v=0
431640 On ch=2 n=c#7 v=70
431760 On ch=2 n=c#7 v=0
431760 On ch=2 n=d7 v=69
431880 On ch=2 n=d7 v=0
431880 On ch=2 n=c#7 v=67
432000 On ch=2 n=c#7 v=0
432000 On ch=2 n=d7 v=65
432120 On ch=2 n=d7 v=0
432120 On ch=2 n=c7 v=64
432240 On ch=2 n=c7 v=0
432240 On ch=2 n=b6 v=62
432360 On ch=2 n=b6 v=0
432360 On ch=2 n=a6 v=60
432480 On ch=2 n=a6 v=0
432480 On ch=2 n=g6 v=59
432960 On ch=2 n=g6 v=0
433440 Par ch=2 c=64 v=0
433440 On ch=2 n=c6 v=78
433800 On ch=2 n=c6 v=0
433800 On ch=2 n=e6 v=81
433920 On ch=2 n=e6 v=0
433920 On ch=2 n=g6 v=83
434640 On ch=2 n=g6 v=0
434640 On ch=2 n=e6 v=82
434880 On ch=2 n=e6 v=0
434880 On ch=2 n=f6 v=81
435120 On ch=2 n=f6 v=0
435120 On ch=2 n=d6 v=81
435360 On ch=2 n=d6 v=0
435360 On ch=2 n=c6 v=80
435840 On ch=2 n=c6 v=0
435840 On ch=2 n=c6 v=72
436080 On ch=2 n=c6 v=0
436080 On ch=2 n=g5 v=74
436320 On ch=2 n=g5 v=0
436320 On ch=2 n=c6 v=76
436560 On ch=2 n=c6 v=0
436560 On ch=2 n=e6 v=78
436800 On ch=2 n=e6 v=0
436800 On ch=2 n=g6 v=81
437520 On ch=2 n=g6 v=0
437520 On ch=2 n=e6 v=76
437760 On ch=2 n=e6 v=0
437760 On ch=2 n=f6 v=74
438000 On ch=2 n=f6 v=0
438000 On ch=2 n=d6 v=72
438240 On ch=2 n=d6 v=0
438240 On ch=2 n=c6 v=70
438720 On ch=2 n=c6 v=0
438960 On ch=2 n=c6 v=58
439200 On ch=2 n=c6 v=0
439200 On ch=2 n=b5 v=58
439440 On ch=2 n=b5 v=0
439440 On ch=2 n=c6 v=58
439680 On ch=2 n=c6 v=0
439680 On ch=2 n=d6 v=57
439920 On ch=2 n=d6 v=0
439920 On ch=2 n=b5 v=57
440160 On ch=2 n=b5 v=0
440160 On ch=2 n=g5 v=56
440400 On ch=2 n=g5 v=0
440400 On ch=2 n=d6 v=56
440640 On ch=2 n=d6 v=0
440640 On ch=2 n=c6 v=55
440880 On ch=2 n=c6 v=0
440880 On ch=2 n=d6 v=55
441120 On ch=2 n=d6 v=0
441120 On ch=2 n=e6 v=54
441360 On ch=2 n=e6 v=0
441360 On ch=2 n=c6 v=54
441600 On ch=2 n=c6 v=0
441600 On ch=2 n=g5 v=53
441840 On ch=2 n=g5 v=0
441840 On ch=2 n=e6 v=53
442080 On ch=2 n=e6 v=0
442080 On ch=2 n=d6 v=52
442320 On ch=2 n=d6 v=0
442320 On ch=2 n=e6 v=52
442560 On ch=2 n=e6 v=0
442560 On ch=2 n=f6 v=52
442800 On ch=2 n=f6 v=0
442800 On ch=2 n=g6 v=51
443040 On ch=2 n=g6 v=0
443040 On ch=2 n=a6 v=51
443280 On ch=2 n=a6 v=0
443280 On ch=2 n=e6 v=50
443520 On ch=2 n=e6 v=0
443520 On ch=2 n=f6 v=50
443760 On ch=2 n=f6 v=0
443760 On ch=2 n=d6 v=49
444000 On ch=2 n=d6 v=0
444000 On ch=2 n=c6 v=49
444480 On ch=2 n=c6 v=0
444480 On ch=2 n=b5 v=48
444720 On ch=2 n=b5 v=0
444720 On ch=2 n=g5 v=72
444960 On ch=2 n=g5 v=0
444960 On ch=2 n=c6 v=75
445200 On ch=2 n=c6 v=0
445200 On ch=2 n=e6 v=78
445440 On ch=2 n=e6 v=0
445440 On ch=2 n=g6 v=83
446160 On ch=2 n=g6 v=0
446160 On ch=2 n=e6 v=79
446400 On ch=2 n=e6 v=0
446400 On ch=2 n=f6 v=78
446640 On ch=2 n=f6 v=0
446640 On ch=2 n=d6 v=76
446880 On ch=2 n=d6 v=0
446880 On ch=2 n=c6 v=75
447360 On ch=2 n=c6 v=0
447360 On ch=2 n=c6 v=68
447600 On ch=2 n=c6 v=0
447600 On ch=2 n=g5 v=71
447840 On ch=2 n=g5 v=0
447840 On ch=2 n=c6 v=74
448080 On ch=2 n=c6 v=0
448080 On ch=2 n=e6 v=76
448320 On ch=2 n=e6 v=0
448320 On ch=2 n=g6 v=81
449040 On ch=2 n=g6 v=0
449040 On ch=2 n=e6 v=76
449280 On ch=2 n=e6 v=0
449280 On ch=2 n=f6 v=75
449520 On ch=2 n=f6 v=0
449520 On ch=2 n=d6 v=73
449760 On ch=2 n=d6 v=0
449760 On ch=2 n=c6 v=72
450240 On ch=2 n=c6 v=0
450480 On ch=2 n=c6 v=46
450720 On ch=2 n=c6 v=0
450720 On ch=2 n=b5 v=46
450960 On ch=2 n=b5 v=0
450960 On ch=2 n=c6 v=47
451200 On ch=2 n=c6 v=0
451200 On ch=2 n=d6 v=47
451440 On ch=2 n=d6 v=0
451440 On ch=2 n=b5 v=48
451680 On ch=2 n=b5 v=0
451680 On ch=2 n=g5 v=48
451920 On ch=2 n=g5 v=0
451920 On ch=2 n=d6 v=48
452160 On ch=2 n=d6 v=0
452160 On ch=2 n=c6 v=49
452400 On ch=2 n=c6 v=0
452400 On ch=2 n=d6 v=49
452640 On ch=2 n=d6 v=0
452640 On ch=2 n=e6 v=50
452880 On ch=2 n=e6 v=0
452880 On ch=2 n=c6 v=50
453120 On ch=2 n=c6 v=0
453120 On ch=2 n=g5 v=51
453360 On ch=2 n=g5 v=0
453360 On ch=2 n=e6 v=51
453600 On ch=2 n=e6 v=0
453600 On ch=2 n=d6 v=52
453840 On ch=2 n=d6 v=0
453840 On ch=2 n=e6 v=52
454080 On ch=2 n=e6 v=0
454080 On ch=2 n=f#6 v=52
454320 On ch=2 n=f#6 v=0
454320 On ch=2 n=c6 v=53
454560 On ch=2 n=c6 v=0
454560 On ch=2 n=a5 v=53
454800 On ch=2 n=a5 v=0
454800 On ch=2 n=f#6 v=54
455040 On ch=2 n=f#6 v=0
455040 On ch=2 n=e6 v=54
455280 On ch=2 n=e6 v=0
455280 On ch=2 n=f#6 v=55
455520 On ch=2 n=f#6 v=0
455520 On ch=2 n=g6 v=55
455760 On ch=2 n=g6 v=0
455760 On ch=2 n=d6 v=56
456000 On ch=2 n=d6 v=0
456000 On ch=2 n=b5 v=56
456240 On ch=2 n=b5 v=0
456240 On ch=2 n=g6 v=56
456480 On ch=2 n=g6 v=0
456480 On ch=2 n=a6 v=57
456720 On ch=2 n=a6 v=0
456720 On ch=2 n=b6 v=57
456960 On ch=2 n=b6 v=0
456960 On ch=2 n=c7 v=59
457200 On ch=2 n=c7 v=0
457200 On ch=2 n=b6 v=58
457440 On ch=2 n=b6 v=0
457440 On ch=2 n=a6 v=57
457680 On ch=2 n=a6 v=0
457680 On ch=2 n=g6 v=55
457920 On ch=2 n=g6 v=0
457920 On ch=2 n=f#6 v=54
458160 On ch=2 n=f#6 v=0
458160 On ch=2 n=e6 v=53
458400 On ch=2 n=e6 v=0
458400 On ch=2 n=d6 v=51
458640 On ch=2 n=d6 v=0
458640 On ch=2 n=c6 v=50
458880 On ch=2 n=c6 v=0
458880 On ch=2 n=b5 v=49
459120 On ch=2 n=b5 v=0
459120 On ch=2 n=a5 v=47
459360 On ch=2 n=a5 v=0
459360 On ch=2 n=g5 v=46
459600 On ch=2 n=g5 v=0
459600 On ch=2 n=f#5 v=45
459840 On ch=2 n=f#5 v=0
459840 On ch=2 n=e5 v=44
460080 On ch=2 n=e5 v=0
460080 On ch=2 n=d5 v=42
460320 On ch=2 n=d5 v=0
462240 Par ch=2 c=64 v=0
462240 On ch=2 n=g5 v=46
462600 On ch=2 n=g5 v=0
462600 On ch=2 n=f#5 v=46
462720 On ch=2 n=f#5 v=0
462720 On ch=2 n=f#5 v=46
463680 On ch=2 n=f#5 v=0
463680 On ch=2 n=f#5 v=48
464040 On ch=2 n=f#5 v=0
464040 On ch=2 n=g5 v=49
464160 On ch=2 n=g5 v=0
464160 On ch=2 n=g5 v=49
465120 On ch=2 n=g5 v=0
465120 On ch=2 n=g5 v=50
465480 On ch=2 n=g5 v=0
465480 On ch=2 n=b5 v=51
465600 On ch=2 n=b5 v=0
465600 On ch=2 n=d6 v=52
466320 On ch=2 n=d6 v=0
466320 On ch=2 n=e6 v=50
466560 On ch=2 n=e6 v=0
466560 On ch=2 n=d6 v=49
466800 On ch=2 n=d6 v=0
466800 On ch=2 n=c6 v=49
467040 On ch=2 n=c6 v=0
467040 On ch=2 n=b5 v=48
467520 On ch=2 n=b5 v=0
467520 On ch=2 n=g5 v=47
467760 On ch=2 n=g5 v=0
468000 On ch=2 n=g5 v=46
468360 On ch=2 n=g5 v=0
468360 On ch=2 n=f#5 v=47
468480 On ch=2 n=f#5 v=0
468480 On ch=2 n=f#5 v=47
469440 On ch=2 n=f#5 v=0
469440 On ch=2 n=f#5 v=51
469800 On ch=2 n=f#5 v=0
469800 On ch=2 n=g5 v=52
469920 On ch=2 n=g5 v=0
469920 On ch=2 n=g5 v=52
470880 On ch=2 n=g5 v=0
470880 On ch=2 n=g5 v=55
471240 On ch=2 n=g5 v=0
471240 On ch=2 n=b5 v=57
471360 On ch=2 n=b5 v=0
471360 On ch=2 n=d6 v=59
472080 On ch=2 n=d6 v=0
472080 On ch=2 n=c#6 v=54
472320 On ch=2 n=c#6 v=0
472320 On ch=2 n=c6 v=52
472560 On ch=2 n=c6 v=0
472560 On ch=2 n=a5 v=50
472800 On ch=2 n=a5 v=0
472800 On ch=2 n=g5 v=49
473280 On ch=2 n=g5 v=0
473760 On ch=2 n=b5 v=40
474120 On ch=2 n=b5 v=0
474120 On ch=2 n=b5 v=40
474240 On ch=2 n=b5 v=0
474240 On ch=2 n=b5 v=41
474720 On ch=2 n=b5 v=0
474720 On ch=2 n=c6 v=36
474960 On ch=2 n=c6 v=0
475200 On ch=2 n=c6 v=43
475560 On ch=2 n=c6 v=0
475560 On ch=2 n=c6 v=43
475680 On ch=2 n=c6 v=0
475680 On ch=2 n=c6 v=44
476160 On ch=2 n=c6 v=0
476160 On ch=2 n=b5 v=39
476400 On ch=2 n=b5 v=0
476640 On ch=2 n=b5 v=46
477000 On ch=2 n=b5 v=0
477000 On ch=2 n=b5 v=46
477120 On ch=2 n=b5 v=0
477120 On ch=2 n=b5 v=47
477360 On ch=2 n=b5 v=0
477360 On ch=2 n=a5 v=47
477600 On ch=2 n=a5 v=0
477600 On ch=2 n=g#5 v=48
477840 On ch=2 n=g#5 v=0
477840 On ch=2 n=a5 v=48
478080 On ch=2 n=a5 v=0
478080 On ch=2 n=d#6 v=49
478320 On ch=2 n=d#6 v=0
478320 On ch=2 n=e6 v=49
478560 On ch=2 n=e6 v=0
478560 On ch=2 n=g5 v=46
479040 On ch=2 n=g5 v=0
479040 On ch=2 n=f#5 v=39
479280 On ch=2 n=f#5 v=0
479520 On ch=2 n=g6 v=54
479880 On ch=2 n=g6 v=0
479880 On ch=2 n=f#6 v=54
480000 On ch=2 n=f#6 v=0
480000 On ch=2 n=f#6 v=54
480960 On ch=2 n=f#6 v=0
480960 On ch=2 n=f#6 v=56
481320 On ch=2 n=f#6 v=0
481320 On ch=2 n=g6 v=57
481440 On ch=2 n=g6 v=0
481440 On ch=2 n=g6 v=57
482400 On ch=2 n=g6 v=0
482400 On ch=2 n=g6 v=58
482760 On ch=2 n=g6 v=0
482760 On ch=2 n=b6 v=59
482880 On ch=2 n=b6 v=0
482880 On ch=2 n=d7 v=59
483600 On ch=2 n=d7 v=0
483600 On ch=2 n=e7 v=55
483840 On ch=2 n=e7 v=0
483840 On ch=2 n=d7 v=54
484080 On ch=2 n=d7 v=0
484080 On ch=2 n=c7 v=52
484320 On ch=2 n=c7 v=0
484320 On ch=2 n=b6 v=51
484800 On ch=2 n=b6 v=0
484800 On ch=2 n=g6 v=48
485040 On ch=2 n=g6 v=0
485280 On ch=2 n=g6 v=52
485640 On ch=2 n=g6 v=0
485640 On ch=2 n=f#6 v=54
485760 On ch=2 n=f#6 v=0
485760 On ch=2 n=f#6 v=54
486720 On ch=2 n=f#6 v=0
486720 On ch=2 n=f#6 v=59
487080 On ch=2 n=f#6 v=0
487080 On ch=2 n=g6 v=61
487200 On ch=2 n=g6 v=0
487200 On ch=2 n=g6 v=62
488160 On ch=2 n=g6 v=0
488160 On ch=2 n=g6 v=67
488520 On ch=2 n=g6 v=0
488520 On ch=2 n=b6 v=69
488640 On ch=2 n=b6 v=0
488640 On ch=2 n=d7 v=79
489120 On ch=2 n=d7 v=0
489120 On ch=2 n=d7 v=71
489240 On ch=2 n=d7 v=0
489240 On ch=2 n=c#7 v=69
489360 On ch=2 n=c#7 v=0
489360 On ch=2 n=d7 v=67
489480 On ch=2 n=d7 v=0
489480 On ch=2 n=c#7 v=65
489600 On ch=2 n=c#7 v=0
489600 On ch=2 n=d7 v=63
489720 On ch=2 n=d7 v=0
489720 On ch=2 n=c7 v=61
489840 On ch=2 n=c7 v=0
489840 On ch=2 n=b6 v=59
489960 On ch=2 n=b6 v=0
489960 On ch=2 n=a6 v=57
490080 On ch=2 n=a6 v=0
490080 On ch=2 n=g6 v=55
490560 On ch=2 n=g6 v=0
491040 Par ch=2 c=64 v=0
491040 On ch=2 n=g6 v=61
491400 On ch=2 n=g6 v=0
491400 On ch=2 n=f6 v=61
491520 On ch=2 n=f6 v=0
491520 On ch=2 n=f6 v=61
492000 On ch=2 n=f6 v=0
492480 On ch=2 n=f6 v=60
492840 On ch=2 n=f6 v=0
492840 On ch=2 n=e6 v=59
492960 On ch=2 n=e6 v=0
492960 On ch=2 n=e6 v=59
493440 On ch=2 n=e6 v=0
493920 On ch=2 n=e6 v=58
494280 On ch=2 n=e6 v=0
494280 On ch=2 n=d6 v=58
494400 On ch=2 n=d6 v=0
494400 On ch=2 n=d6 v=58
494880 On ch=2 n=d6 v=0
495360 On ch=2 n=d6 v=57
495720 On ch=2 n=d6 v=0
495720 On ch=2 n=c6 v=56
495840 On ch=2 n=c6 v=0
495840 On ch=2 n=c6 v=56
496320 On ch=2 n=c6 v=0
496800 On ch=2 n=c6 v=55
497160 On ch=2 n=c6 v=0
497160 On ch=2 n=a5 v=55
497280 On ch=2 n=a5 v=0
497280 On ch=2 n=g5 v=54
497520 On ch=2 n=g5 v=0
497520 On ch=2 n=f#5 v=57
497760 On ch=2 n=f#5 v=0
497760 On ch=2 n=d6 v=64
498480 On ch=2 n=d6 v=0
498480 On ch=2 n=g5 v=54
498720 On ch=2 n=g5 v=0
498720 On ch=2 n=g5 v=53
498960 On ch=2 n=g5 v=0
498960 On ch=2 n=f#5 v=58
499200 On ch=2 n=f#5 v=0
499200 On ch=2 n=d6 v=62
499920 On ch=2 n=d6 v=0
499920 On ch=2 n=b5 v=51
500160 On ch=2 n=b5 v=0
500400 On ch=2 n=a5 v=51
500520 On ch=2 n=a5 v=0
500520 On ch=2 n=c6 v=51
500640 On ch=2 n=c6 v=0
500880 On ch=2 n=g5 v=50
501000 On ch=2 n=g5 v=0
501000 On ch=2 n=b5 v=50
501120 On ch=2 n=b5 v=0
501360 On ch=2 n=f#5 v=50
501480 On ch=2 n=f#5 v=0
501480 On ch=2 n=a5 v=50
501600 On ch=2 n=a5 v=0
501720 On ch=2 n=g5 v=55
501840 On ch=2 n=g5 v=0
501840 On ch=2 n=a5 v=57
501960 On ch=2 n=a5 v=0
501960 On ch=2 n=b5 v=60
502080 On ch=2 n=b5 v=0
502080 On ch=2 n=c6 v=62
502200 On ch=2 n=c6 v=0
502200 On ch=2 n=d6 v=65
502320 On ch=2 n=d6 v=0
502320 On ch=2 n=e6 v=67
502440 On ch=2 n=e6 v=0
502440 On ch=2 n=f#6 v=69
502560 On ch=2 n=f#6 v=0
502560 On ch=2 n=g6 v=72
502680 On ch=2 n=g6 v=0
502680 On ch=2 n=a6 v=74
502800 On ch=2 n=a6 v=0
502800 On ch=2 n=b6 v=76
502920 On ch=2 n=b6 v=0
502920 On ch=2 n=g6 v=79
503040 On ch=2 n=g6 v=0
503040 On ch=2 n=f#6 v=81
503280 On ch=2 n=f#6 v=0
503280 On ch=2 n=d7 v=87
503760 On ch=2 n=d7 v=0
503760 On ch=2 n=d7 v=86
504000 On ch=2 n=d7 v=0
504000 On ch=2 n=c7 v=85
504120 On ch=2 n=c7 v=0
504120 On ch=2 n=b6 v=85
504240 On ch=2 n=b6 v=0
504240 On ch=2 n=a6 v=84
504360 On ch=2 n=a6 v=0
504360 On ch=2 n=g6 v=84
504480 On ch=2 n=g6 v=0
504480 On ch=2 n=f#6 v=83
504600 On ch=2 n=f#6 v=0
504600 On ch=2 n=d7 v=83
504720 On ch=2 n=d7 v=0
504720 On ch=2 n=c#7 v=83
504840 On ch=2 n=c#7 v=0
504840 On ch=2 n=d7 v=82
504960 On ch=2 n=d7 v=0
504960 On ch=2 n=c#7 v=82
505080 On ch=2 n=c#7 v=0
505080 On ch=2 n=d7 v=81
505200 On ch=2 n=d7 v=0
505200 On ch=2 n=c#7 v=81
505320 On ch=2 n=c#7 v=0
505320 On ch=2 n=d7 v=81
505440 On ch=2 n=d7 v=0
505440 On ch=2 n=c7 v=80
505560 On ch=2 n=c7 v=0
505560 On ch=2 n=b6 v=80
505680 On ch=2 n=b6 v=0
505680 On ch=2 n=a6 v=79
505800 On ch=2 n=a6 v=0
505800 On ch=2 n=g6 v=79
505920 On ch=2 n=g6 v=0
505920 On ch=2 n=d#7 v=79
506040 On ch=2 n=d#7 v=0
506040 On ch=2 n=e7 v=78
506160 On ch=2 n=e7 v=0
506160 On ch=2 n=d#7 v=78
506280 On ch=2 n=d#7 v=0
506280 On ch=2 n=e7 v=77
506400 On ch=2 n=e7 v=0
506400 On ch=2 n=g6 v=77
506880 On ch=2 n=g6 v=0
506880 On ch=2 n=b6 v=72
507000 On ch=2 n=b6 v=0
507000 On ch=2 n=a6 v=70
507120 On ch=2 n=a6 v=0
507120 On ch=2 n=g6 v=69
507240 On ch=2 n=g6 v=0
507240 On ch=2 n=a6 v=65
507360 On ch=2 n=a6 v=0
507360 On ch=2 n=g6 v=61
507840 On ch=2 n=g6 v=0
508320 On ch=2 n=f#5 v=47
508680 On ch=2 n=f#5 v=0
508800 On ch=2 n=g5 v=47
509160 On ch=2 n=g5 v=0
509160 Meta TrkEnd
TrkEnd
MTrk
0 SeqSpec 43 00 01 00
0 Meta TrkName "No Name"
0 Par ch=3 c=0 v=0
0 Par ch=3 c=32 v=0
0 PrCh ch=3 p=0
0 Par ch=3 c=10 v=73
0 Par ch=3 c=91 v=100
0 Par ch=3 c=93 v=28
0 Par ch=3 c=64 v=0
0 Par ch=3 c=1 v=0
0 Pb ch=3 v=8192
0 Par ch=3 c=7 v=122
1920 Par ch=3 c=64 v=0
1920 On ch=3 n=b4 v=81
1920 On ch=3 n=d5 v=81
2880 On ch=3 n=d5 v=0
2880 On ch=3 n=b4 v=0
9600 On ch=3 n=b5 v=79
9600 On ch=3 n=d6 v=79
10560 On ch=3 n=d6 v=0
10560 On ch=3 n=b5 v=0
45120 On ch=3 n=c#6 v=48
45600 On ch=3 n=c#6 v=0
45600 On ch=3 n=d6 v=49
46080 On ch=3 n=d6 v=0
46080 On ch=3 n=e6 v=53
46560 On ch=3 n=d6 v=49
46600 On ch=3 n=e6 v=0
47040 On ch=3 n=d6 v=0
57600 On ch=3 n=d6 v=61
58080 On ch=3 n=d6 v=0
58080 On ch=3 n=c#6 v=57
58560 On ch=3 n=c#6 v=0
60480 On ch=3 n=c#6 v=59
60960 On ch=3 n=c#6 v=0
60960 On ch=3 n=d6 v=61
61440 On ch=3 n=d6 v=0
61440 On ch=3 n=e6 v=67
61920 On ch=3 n=e6 v=0
61920 On ch=3 n=d6 v=63
62400 On ch=3 n=d6 v=0
84480 On ch=3 n=g6 v=97
86400 On ch=3 n=g6 v=0
86400 On ch=3 n=f#6 v=76
86592 On ch=3 n=f#6 v=0
86880 On ch=3 n=e6 v=71
87072 On ch=3 n=e6 v=0
87360 On ch=3 n=d6 v=66
87552 On ch=3 n=d6 v=0
87840 On ch=3 n=c#6 v=61
88032 On ch=3 n=c#6 v=0
90240 On ch=3 n=g5 v=89
92160 On ch=3 n=g5 v=0
92160 On ch=3 n=f#5 v=68
92352 On ch=3 n=f#5 v=0
92640 On ch=3 n=e5 v=63
92832 On ch=3 n=e5 v=0
93120 On ch=3 n=d5 v=57
93312 On ch=3 n=d5 v=0
93600 On ch=3 n=c#5 v=52
93792 On ch=3 n=c#5 v=0
100320 On ch=3 n=f#4 v=70
100320 On ch=3 n=a4 v=70
100512 On ch=3 n=a4 v=0
100512 On ch=3 n=f#4 v=0
100800 On ch=3 n=a4 v=65
100800 On ch=3 n=f#4 v=65
100992 On ch=3 n=f#4 v=0
100992 On ch=3 n=a4 v=0
101760 Par ch=3 c=64 v=0
101760 On ch=3 n=d5 v=81
101760 On ch=3 n=b4 v=81
102720 On ch=3 n=b4 v=0
102720 On ch=3 n=d5 v=0
109440 On ch=3 n=d6 v=79
109440 On ch=3 n=b5 v=79
110400 On ch=3 n=b5 v=0
110400 On ch=3 n=d6 v=0
144960 On ch=3 n=c#6 v=48
145440 On ch=3 n=c#6 v=0
145440 On ch=3 n=d6 v=49
145920 On ch=3 n=d6 v=0
145920 On ch=3 n=e6 v=53
146400 On ch=3 n=d6 v=49
146440 On ch=3 n=e6 v=0
146880 On ch=3 n=d6 v=0
157440 On ch=3 n=d6 v=61
157920 On ch=3 n=d6 v=0
157920 On ch=3 n=c#6 v=57
158400 On ch=3 n=c#6 v=0
160320 On ch=3 n=c#6 v=59
160800 On ch=3 n=c#6 v=0
160800 On ch=3 n=d6 v=61
161280 On ch=3 n=d6 v=0
161280 On ch=3 n=e6 v=67
161760 On ch=3 n=e6 v=0
161760 On ch=3 n=d6 v=63
162240 On ch=3 n=d6 v=0
184320 On ch=3 n=g6 v=97
186240 On ch=3 n=g6 v=0
186240 On ch=3 n=f#6 v=76
186432 On ch=3 n=f#6 v=0
186720 On ch=3 n=e6 v=71
186912 On ch=3 n=e6 v=0
187200 On ch=3 n=d6 v=66
187392 On ch=3 n=d6 v=0
187680 On ch=3 n=c#6 v=61
187872 On ch=3 n=c#6 v=0
190080 On ch=3 n=g5 v=89
192000 On ch=3 n=g5 v=0
192000 On ch=3 n=f#5 v=68
192192 On ch=3 n=f#5 v=0
192480 On ch=3 n=e5 v=63
192672 On ch=3 n=e5 v=0
192960 On ch=3 n=d5 v=57
193152 On ch=3 n=d5 v=0
193440 On ch=3 n=c#5 v=52
193632 On ch=3 n=c#5 v=0
200160 On ch=3 n=a4 v=70
200160 On ch=3 n=f#4 v=70
200352 On ch=3 n=f#4 v=0
200352 On ch=3 n=a4 v=0
200640 On ch=3 n=f#4 v=65
200640 On ch=3 n=a4 v=65
200832 On ch=3 n=a4 v=0
200832 On ch=3 n=f#4 v=0
201600 Par ch=3 c=64 v=0
201600 On ch=3 n=a5 v=88
201600 On ch=3 n=f5 v=88
202560 On ch=3 n=f5 v=0
202560 On ch=3 n=a5 v=0
213840 On ch=3 n=g6 v=51
214080 On ch=3 n=g6 v=0
214080 On ch=3 n=f#6 v=47
214560 On ch=3 n=f#6 v=0
214800 On ch=3 n=d#6 v=52
215040 On ch=3 n=d#6 v=0
215040 On ch=3 n=e6 v=48
215520 On ch=3 n=e6 v=0
215760 On ch=3 n=e6 v=57
216000 On ch=3 n=e6 v=0
216000 On ch=3 n=d#6 v=52
216480 On ch=3 n=d#6 v=0
216480 On ch=3 n=e6 v=53
216960 On ch=3 n=e6 v=0
216960 On ch=3 n=d#6 v=50
217440 On ch=3 n=d#6 v=0
217680 On ch=3 n=g6 v=59
217920 On ch=3 n=g6 v=0
217920 On ch=3 n=f#6 v=56
218400 On ch=3 n=f#6 v=0
218640 On ch=3 n=d#6 v=61
218880 On ch=3 n=d#6 v=0
218880 On ch=3 n=e6 v=56
219360 On ch=3 n=e6 v=0
219600 On ch=3 n=e6 v=67
219840 On ch=3 n=e6 v=0
219840 On ch=3 n=d#6 v=62
220320 On ch=3 n=d#6 v=0
220320 On ch=3 n=e6 v=64
220800 On ch=3 n=e6 v=0
220800 On ch=3 n=d#6 v=61
221280 On ch=3 n=d#6 v=0
222720 On ch=3 n=e6 v=68
223200 On ch=3 n=e6 v=0
228480 On ch=3 n=b4 v=81
228480 On ch=3 n=d5 v=81
229440 On ch=3 n=d5 v=0
229440 On ch=3 n=b4 v=0
236160 On ch=3 n=d6 v=79
236160 On ch=3 n=b5 v=79
237120 On ch=3 n=b5 v=0
237120 On ch=3 n=d6 v=0
273600 On ch=3 n=f#5 v=48
274080 On ch=3 n=f#5 v=0
274080 On ch=3 n=g5 v=49
274560 On ch=3 n=g5 v=0
274560 On ch=3 n=a5 v=53
275040 On ch=3 n=g5 v=49
275080 On ch=3 n=a5 v=0
275520 On ch=3 n=g5 v=0
288960 On ch=3 n=f#6 v=59
289440 On ch=3 n=f#6 v=0
289440 On ch=3 n=g6 v=61
289920 On ch=3 n=g6 v=0
289920 On ch=3 n=a6 v=67
290400 On ch=3 n=a6 v=0
290400 On ch=3 n=g6 v=63
290880 On ch=3 n=g6 v=0
312960 On ch=3 n=c7 v=97
314880 On ch=3 n=c7 v=0
314880 On ch=3 n=b6 v=76
315072 On ch=3 n=b6 v=0
315360 On ch=3 n=a6 v=71
315552 On ch=3 n=a6 v=0
315840 On ch=3 n=g6 v=66
316032 On ch=3 n=g6 v=0
316320 On ch=3 n=f#6 v=61
316512 On ch=3 n=f#6 v=0
318720 On ch=3 n=c6 v=89
320640 On ch=3 n=c6 v=0
320640 On ch=3 n=b5 v=68
320832 On ch=3 n=b5 v=0
321120 On ch=3 n=a5 v=63
321312 On ch=3 n=a5 v=0
321600 On ch=3 n=g5 v=57
321792 On ch=3 n=g5 v=0
322080 On ch=3 n=f#5 v=52
322272 On ch=3 n=f#5 v=0
333120 On ch=3 n=d6 v=68
333120 On ch=3 n=c6 v=68
333120 On ch=3 n=a5 v=68
333312 On ch=3 n=a5 v=0
333312 On ch=3 n=c6 v=0
333312 On ch=3 n=d6 v=0
334080 On ch=3 n=d6 v=66
334080 On ch=3 n=b5 v=66
334272 On ch=3 n=b5 v=0
334272 On ch=3 n=d6 v=0
365760 On ch=3 n=b5 v=44
366240 On ch=3 n=b5 v=0
366240 On ch=3 n=e6 v=45
366720 On ch=3 n=e6 v=0
367200 On ch=3 n=d6 v=47
367680 On ch=3 n=d6 v=0
367680 On ch=3 n=c6 v=48
368160 On ch=3 n=c6 v=0
368640 On ch=3 n=b5 v=50
369120 On ch=3 n=b5 v=0
369120 On ch=3 n=c6 v=51
369600 On ch=3 n=c6 v=0
369600 On ch=3 n=c6 v=52
370080 On ch=3 n=c6 v=0
370080 On ch=3 n=c6 v=53
370560 On ch=3 n=c6 v=0
370560 On ch=3 n=b5 v=47
371040 On ch=3 n=b5 v=0
433920 On ch=3 n=e6 v=83
434640 On ch=3 n=e6 v=0
434640 On ch=3 n=g5 v=82
434880 On ch=3 n=g5 v=0
434880 On ch=3 n=a5 v=81
435120 On ch=3 n=a5 v=0
435120 On ch=3 n=f5 v=81
435360 On ch=3 n=f5 v=0
435360 On ch=3 n=e5 v=80
435840 On ch=3 n=e5 v=0
435840 On ch=3 n=e5 v=72
436080 On ch=3 n=e5 v=0
436800 On ch=3 n=e6 v=81
437520 On ch=3 n=e6 v=0
437520 On ch=3 n=g5 v=76
437760 On ch=3 n=g5 v=0
437760 On ch=3 n=a5 v=74
438000 On ch=3 n=a5 v=0
438000 On ch=3 n=f5 v=72
438240 On ch=3 n=f5 v=0
438240 On ch=3 n=e5 v=70
438720 On ch=3 n=e5 v=0
445440 On ch=3 n=e6 v=83
446160 On ch=3 n=e6 v=0
446160 On ch=3 n=g5 v=79
446400 On ch=3 n=g5 v=0
446400 On ch=3 n=a5 v=78
446640 On ch=3 n=a5 v=0
446640 On ch=3 n=f5 v=76
446880 On ch=3 n=f5 v=0
446880 On ch=3 n=e5 v=75
447360 On ch=3 n=e5 v=0
447360 On ch=3 n=e5 v=68
447600 On ch=3 n=e5 v=0
448320 On ch=3 n=e6 v=81
449040 On ch=3 n=e6 v=0
449040 On ch=3 n=g5 v=76
449280 On ch=3 n=g5 v=0
449280 On ch=3 n=a5 v=75
449520 On ch=3 n=a5 v=0
449520 On ch=3 n=f5 v=73
449760 On ch=3 n=f5 v=0
449760 On ch=3 n=e5 v=72
450240 On ch=3 n=e5 v=0
508320 On ch=3 n=c5 v=47
508680 On ch=3 n=c5 v=0
508800 On ch=3 n=b4 v=47
509160 On ch=3 n=b4 v=0
509160 Meta TrkEnd
TrkEnd
MTrk
0 SeqSpec 43 00 01 00
0 Meta TrkName "No Name"
0 Par ch=4 c=0 v=0
0 Par ch=4 c=32 v=0
0 PrCh ch=4 p=0
0 Par ch=4 c=10 v=64
0 Par ch=4 c=91 v=100
0 Par ch=4 c=93 v=28
0 Par ch=4 c=64 v=0
0 Par ch=4 c=1 v=0
0 Pb ch=4 v=8192
0 Par ch=4 c=7 v=112
1920 Par ch=4 c=64 v=0
12240 On ch=4 n=d6 v=52
12480 On ch=4 n=d6 v=0
12720 On ch=4 n=d6 v=50
12960 On ch=4 n=d6 v=0
13200 On ch=4 n=d6 v=47
13440 On ch=4 n=d6 v=0
13680 On ch=4 n=d6 v=47
13920 On ch=4 n=d6 v=0
14160 On ch=4 n=d6 v=49
14400 On ch=4 n=d6 v=0
14640 On ch=4 n=d6 v=52
14880 On ch=4 n=d6 v=0
15120 On ch=4 n=d6 v=54
15360 On ch=4 n=d6 v=0
28960 On ch=4 n=f#4 v=67
29120 On ch=4 n=f#4 v=0
29120 On ch=4 n=a4 v=67
29280 On ch=4 n=a4 v=0
29440 On ch=4 n=f#4 v=66
29600 On ch=4 n=f#4 v=0
29600 On ch=4 n=a4 v=66
29760 On ch=4 n=a4 v=0
29920 On ch=4 n=f#4 v=66
30080 On ch=4 n=f#4 v=0
30080 On ch=4 n=a4 v=65
30240 On ch=4 n=a4 v=0
30400 On ch=4 n=f#4 v=65
30560 On ch=4 n=f#4 v=0
30560 On ch=4 n=a4 v=65
30720 On ch=4 n=a4 v=0
30880 On ch=4 n=g4 v=64
31040 On ch=4 n=g4 v=0
31040 On ch=4 n=b4 v=64
31200 On ch=4 n=b4 v=0
31360 On ch=4 n=g4 v=64
31520 On ch=4 n=g4 v=0
31520 On ch=4 n=b4 v=63
31680 On ch=4 n=b4 v=0
31840 On ch=4 n=g4 v=63
32000 On ch=4 n=g4 v=0
32000 On ch=4 n=b4 v=63
32160 On ch=4 n=b4 v=0
32320 On ch=4 n=g4 v=62
32480 On ch=4 n=g4 v=0
32480 On ch=4 n=b4 v=62
32640 On ch=4 n=b4 v=0
32800 On ch=4 n=f#4 v=62
32960 On ch=4 n=f#4 v=0
32960 On ch=4 n=a4 v=61
33120 On ch=4 n=a4 v=0
33280 On ch=4 n=f#4 v=61
33440 On ch=4 n=f#4 v=0
33440 On ch=4 n=a4 v=61
33600 On ch=4 n=a4 v=0
33760 On ch=4 n=f#4 v=60
33920 On ch=4 n=f#4 v=0
33920 On ch=4 n=a4 v=60
34080 On ch=4 n=a4 v=0
34240 On ch=4 n=f#4 v=60
34400 On ch=4 n=f#4 v=0
34400 On ch=4 n=a4 v=59
34560 On ch=4 n=a4 v=0
34720 On ch=4 n=g4 v=59
34880 On ch=4 n=g4 v=0
34880 On ch=4 n=b4 v=59
35040 On ch=4 n=b4 v=0
35200 On ch=4 n=g4 v=58
35360 On ch=4 n=g4 v=0
35360 On ch=4 n=b4 v=58
35520 On ch=4 n=b4 v=0
35680 On ch=4 n=g4 v=58
35840 On ch=4 n=g4 v=0
35840 On ch=4 n=b4 v=58
36000 On ch=4 n=b4 v=0
36160 On ch=4 n=g4 v=57
36320 On ch=4 n=g4 v=0
36320 On ch=4 n=b4 v=57
36480 On ch=4 n=b4 v=0
36640 On ch=4 n=f#4 v=56
36800 On ch=4 n=f#4 v=0
36800 On ch=4 n=a4 v=56
36960 On ch=4 n=a4 v=0
37120 On ch=4 n=g4 v=56
37280 On ch=4 n=g4 v=0
37280 On ch=4 n=b4 v=56
37440 On ch=4 n=b4 v=0
37600 On ch=4 n=f#4 v=55
37760 On ch=4 n=f#4 v=0
37760 On ch=4 n=a4 v=55
37920 On ch=4 n=a4 v=0
38080 On ch=4 n=g4 v=54
38240 On ch=4 n=g4 v=0
38240 On ch=4 n=b4 v=54
38400 On ch=4 n=b4 v=0
38400 On ch=4 n=f#4 v=55
38880 On ch=4 n=f#4 v=0
40560 On ch=4 n=a5 v=38
40800 On ch=4 n=a5 v=0
41040 On ch=4 n=a5 v=40
41280 On ch=4 n=a5 v=0
41520 On ch=4 n=a5 v=42
41760 On ch=4 n=a5 v=0
42000 On ch=4 n=a5 v=44
42240 On ch=4 n=a5 v=0
42480 On ch=4 n=a5 v=45
42720 On ch=4 n=a5 v=0
42960 On ch=4 n=a5 v=41
43200 On ch=4 n=a5 v=0
44400 On ch=4 n=a5 v=44
44640 On ch=4 n=a5 v=0
44880 On ch=4 n=a5 v=47
45120 On ch=4 n=a5 v=0
45360 On ch=4 n=a5 v=49
45600 On ch=4 n=a5 v=0
45840 On ch=4 n=a5 v=51
46080 On ch=4 n=a5 v=0
46320 On ch=4 n=a5 v=51
46560 On ch=4 n=a5 v=0
46800 On ch=4 n=a5 v=48
47040 On ch=4 n=a5 v=0
55920 On ch=4 n=a5 v=54
56160 On ch=4 n=a5 v=0
56400 On ch=4 n=a5 v=56
56640 On ch=4 n=a5 v=0
56880 On ch=4 n=a5 v=59
57120 On ch=4 n=a5 v=0
57360 On ch=4 n=a5 v=61
57600 On ch=4 n=a5 v=0
57840 On ch=4 n=a5 v=62
58080 On ch=4 n=a5 v=0
58320 On ch=4 n=a5 v=59
58560 On ch=4 n=a5 v=0
59760 On ch=4 n=a5 v=56
60000 On ch=4 n=a5 v=0
60240 On ch=4 n=a5 v=59
60480 On ch=4 n=a5 v=0
60720 On ch=4 n=a5 v=62
60960 On ch=4 n=a5 v=0
61200 On ch=4 n=a5 v=64
61440 On ch=4 n=a5 v=0
61680 On ch=4 n=a5 v=66
61920 On ch=4 n=a5 v=0
62160 On ch=4 n=a5 v=62
62400 On ch=4 n=a5 v=0
71200 On ch=4 n=g4 v=78
71360 On ch=4 n=g4 v=0
71360 On ch=4 n=a4 v=77
71520 On ch=4 n=a4 v=0
71680 On ch=4 n=g4 v=77
71840 On ch=4 n=g4 v=0
71840 On ch=4 n=a4 v=76
72000 On ch=4 n=a4 v=0
72160 On ch=4 n=g4 v=76
72320 On ch=4 n=g4 v=0
72320 On ch=4 n=a4 v=76
72480 On ch=4 n=a4 v=0
72640 On ch=4 n=g4 v=75
72800 On ch=4 n=g4 v=0
72800 On ch=4 n=a4 v=75
72960 On ch=4 n=a4 v=0
72960 On ch=4 n=f#4 v=74
73440 On ch=4 n=f#4 v=0
75040 On ch=4 n=e4 v=71
75200 On ch=4 n=e4 v=0
75200 On ch=4 n=a4 v=70
75360 On ch=4 n=a4 v=0
75520 On ch=4 n=e4 v=70
75680 On ch=4 n=e4 v=0
75680 On ch=4 n=a4 v=70
75840 On ch=4 n=a4 v=0
76000 On ch=4 n=e4 v=69
76160 On ch=4 n=e4 v=0
76160 On ch=4 n=a4 v=69
76320 On ch=4 n=a4 v=0
76480 On ch=4 n=e4 v=68
76640 On ch=4 n=e4 v=0
76640 On ch=4 n=a4 v=68
76800 On ch=4 n=a4 v=0
78880 On ch=4 n=f#4 v=64
79040 On ch=4 n=f#4 v=0
79040 On ch=4 n=a4 v=64
79200 On ch=4 n=a4 v=0
79360 On ch=4 n=f#4 v=63
79520 On ch=4 n=f#4 v=0
79520 On ch=4 n=a4 v=63
79680 On ch=4 n=a4 v=0
79840 On ch=4 n=f#4 v=62
80000 On ch=4 n=f#4 v=0
80000 On ch=4 n=a4 v=62
80160 On ch=4 n=a4 v=0
80320 On ch=4 n=f#4 v=61
80480 On ch=4 n=f#4 v=0
80480 On ch=4 n=a4 v=61
80640 On ch=4 n=a4 v=0
94240 On ch=4 n=f#4 v=77
94400 On ch=4 n=f#4 v=0
94400 On ch=4 n=a4 v=77
94560 On ch=4 n=a4 v=0
94720 On ch=4 n=f#4 v=76
94880 On ch=4 n=f#4 v=0
94880 On ch=4 n=a4 v=76
95040 On ch=4 n=a4 v=0
95200 On ch=4 n=g4 v=75
95360 On ch=4 n=g4 v=0
95360 On ch=4 n=a4 v=75
95520 On ch=4 n=a4 v=0
95680 On ch=4 n=g4 v=74
95840 On ch=4 n=g4 v=0
95840 On ch=4 n=a4 v=74
96000 On ch=4 n=a4 v=0
96160 On ch=4 n=f#4 v=73
96320 On ch=4 n=f#4 v=0
96320 On ch=4 n=a4 v=73
96480 On ch=4 n=a4 v=0
96640 On ch=4 n=f#4 v=72
96800 On ch=4 n=f#4 v=0
96800 On ch=4 n=a4 v=72
96960 On ch=4 n=a4 v=0
97120 On ch=4 n=g4 v=71
97280 On ch=4 n=g4 v=0
97280 On ch=4 n=a4 v=71
97440 On ch=4 n=a4 v=0
97600 On ch=4 n=g4 v=70
97760 On ch=4 n=g4 v=0
97760 On ch=4 n=a4 v=70
97920 On ch=4 n=a4 v=0
98080 On ch=4 n=f#4 v=69
98240 On ch=4 n=f#4 v=0
98240 On ch=4 n=a4 v=69
98400 On ch=4 n=a4 v=0
98560 On ch=4 n=g4 v=69
98720 On ch=4 n=g4 v=0
98720 On ch=4 n=a4 v=68
98880 On ch=4 n=a4 v=0
99040 On ch=4 n=f#4 v=68
99200 On ch=4 n=f#4 v=0
99200 On ch=4 n=a4 v=67
99360 On ch=4 n=a4 v=0
99520 On ch=4 n=g4 v=67
99680 On ch=4 n=g4 v=0
99680 On ch=4 n=a4 v=66
99840 On ch=4 n=a4 v=0
99840 On ch=4 n=f#4 v=67
100032 On ch=4 n=f#4 v=0
101760 Par ch=4 c=64 v=0
112080 On ch=4 n=d6 v=52
112320 On ch=4 n=d6 v=0
112560 On ch=4 n=d6 v=50
112800 On ch=4 n=d6 v=0
113040 On ch=4 n=d6 v=47
113280 On ch=4 n=d6 v=0
113520 On ch=4 n=d6 v=47
113760 On ch=4 n=d6 v=0
114000 On ch=4 n=d6 v=49
114240 On ch=4 n=d6 v=0
114480 On ch=4 n=d6 v=52
114720 On ch=4 n=d6 v=0
114960 On ch=4 n=d6 v=54
115200 On ch=4 n=d6 v=0
128800 On ch=4 n=f#4 v=67
128960 On ch=4 n=f#4 v=0
128960 On ch=4 n=a4 v=67
129120 On ch=4 n=a4 v=0
129280 On ch=4 n=f#4 v=66
129440 On ch=4 n=f#4 v=0
129440 On ch=4 n=a4 v=66
129600 On ch=4 n=a4 v=0
129760 On ch=4 n=f#4 v=66
129920 On ch=4 n=f#4 v=0
129920 On ch=4 n=a4 v=65
130080 On ch=4 n=a4 v=0
130240 On ch=4 n=f#4 v=65
130400 On ch=4 n=f#4 v=0
130400 On ch=4 n=a4 v=65
130560 On ch=4 n=a4 v=0
130720 On ch=4 n=g4 v=64
130880 On ch=4 n=g4 v=0
130880 On ch=4 n=b4 v=64
131040 On ch=4 n=b4 v=0
131200 On ch=4 n=g4 v=64
131360 On ch=4 n=g4 v=0
131360 On ch=4 n=b4 v=63
131520 On ch=4 n=b4 v=0
131680 On ch=4 n=g4 v=63
131840 On ch=4 n=g4 v=0
131840 On ch=4 n=b4 v=63
132000 On ch=4 n=b4 v=0
132160 On ch=4 n=g4 v=62
132320 On ch=4 n=g4 v=0
132320 On ch=4 n=b4 v=62
132480 On ch=4 n=b4 v=0
132640 On ch=4 n=f#4 v=62
132800 On ch=4 n=f#4 v=0
132800 On ch=4 n=a4 v=61
132960 On ch=4 n=a4 v=0
133120 On ch=4 n=f#4 v=61
133280 On ch=4 n=f#4 v=0
133280 On ch=4 n=a4 v=61
133440 On ch=4 n=a4 v=0
133600 On ch=4 n=f#4 v=60
133760 On ch=4 n=f#4 v=0
133760 On ch=4 n=a4 v=60
133920 On ch=4 n=a4 v=0
134080 On ch=4 n=f#4 v=60
134240 On ch=4 n=f#4 v=0
134240 On ch=4 n=a4 v=59
134400 On ch=4 n=a4 v=0
134560 On ch=4 n=g4 v=59
134720 On ch=4 n=g4 v=0
134720 On ch=4 n=b4 v=59
134880 On ch=4 n=b4 v=0
135040 On ch=4 n=g4 v=58
135200 On ch=4 n=g4 v=0
135200 On ch=4 n=b4 v=58
135360 On ch=4 n=b4 v=0
135520 On ch=4 n=g4 v=58
135680 On ch=4 n=g4 v=0
135680 On ch=4 n=b4 v=58
135840 On ch=4 n=b4 v=0
136000 On ch=4 n=g4 v=57
136160 On ch=4 n=g4 v=0
136160 On ch=4 n=b4 v=57
136320 On ch=4 n=b4 v=0
136480 On ch=4 n=f#4 v=56
136640 On ch=4 n=f#4 v=0
136640 On ch=4 n=a4 v=56
136800 On ch=4 n=a4 v=0
136960 On ch=4 n=g4 v=56
137120 On ch=4 n=g4 v=0
137120 On ch=4 n=b4 v=56
137280 On ch=4 n=b4 v=0
137440 On ch=4 n=f#4 v=55
137600 On ch=4 n=f#4 v=0
137600 On ch=4 n=a4 v=55
137760 On ch=4 n=a4 v=0
137920 On ch=4 n=g4 v=54
138080 On ch=4 n=g4 v=0
138080 On ch=4 n=b4 v=54
138240 On ch=4 n=b4 v=0
138240 On ch=4 n=f#4 v=55
138720 On ch=4 n=f#4 v=0
140400 On ch=4 n=a5 v=38
140640 On ch=4 n=a5 v=0
140880 On ch=4 n=a5 v=40
141120 On ch=4 n=a5 v=0
141360 On ch=4 n=a5 v=42
141600 On ch=4 n=a5 v=0
141840 On ch=4 n=a5 v=44
142080 On ch=4 n=a5 v=0
142320 On ch=4 n=a5 v=45
142560 On ch=4 n=a5 v=0
142800 On ch=4 n=a5 v=41
143040 On ch=4 n=a5 v=0
144240 On ch=4 n=a5 v=44
144480 On ch=4 n=a5 v=0
144720 On ch=4 n=a5 v=47
144960 On ch=4 n=a5 v=0
145200 On ch=4 n=a5 v=49
145440 On ch=4 n=a5 v=0
145680 On ch=4 n=a5 v=51
145920 On ch=4 n=a5 v=0
146160 On ch=4 n=a5 v=51
146400 On ch=4 n=a5 v=0
146640 On ch=4 n=a5 v=48
146880 On ch=4 n=a5 v=0
155760 On ch=4 n=a5 v=54
156000 On ch=4 n=a5 v=0
156240 On ch=4 n=a5 v=56
156480 On ch=4 n=a5 v=0
156720 On ch=4 n=a5 v=59
156960 On ch=4 n=a5 v=0
157200 On ch=4 n=a5 v=61
157440 On ch=4 n=a5 v=0
157680 On ch=4 n=a5 v=62
157920 On ch=4 n=a5 v=0
158160 On ch=4 n=a5 v=59
158400 On ch=4 n=a5 v=0
159600 On ch=4 n=a5 v=56
159840 On ch=4 n=a5 v=0
160080 On ch=4 n=a5 v=59
160320 On ch=4 n=a5 v=0
160560 On ch=4 n=a5 v=62
160800 On ch=4 n=a5 v=0
161040 On ch=4 n=a5 v=64
161280 On ch=4 n=a5 v=0
161520 On ch=4 n=a5 v=66
161760 On ch=4 n=a5 v=0
162000 On ch=4 n=a5 v=62
162240 On ch=4 n=a5 v=0
171040 On ch=4 n=g4 v=78
171200 On ch=4 n=g4 v=0
171200 On ch=4 n=a4 v=77
171360 On ch=4 n=a4 v=0
171520 On ch=4 n=g4 v=77
171680 On ch=4 n=g4 v=0
171680 On ch=4 n=a4 v=76
171840 On ch=4 n=a4 v=0
172000 On ch=4 n=g4 v=76
172160 On ch=4 n=g4 v=0
172160 On ch=4 n=a4 v=76
172320 On ch=4 n=a4 v=0
172480 On ch=4 n=g4 v=75
172640 On ch=4 n=g4 v=0
172640 On ch=4 n=a4 v=75
172800 On ch=4 n=a4 v=0
172800 On ch=4 n=f#4 v=74
173280 On ch=4 n=f#4 v=0
174880 On ch=4 n=e4 v=71
175040 On ch=4 n=e4 v=0
175040 On ch=4 n=a4 v=70
175200 On ch=4 n=a4 v=0
175360 On ch=4 n=e4 v=70
175520 On ch=4 n=e4 v=0
175520 On ch=4 n=a4 v=70
175680 On ch=4 n=a4 v=0
175840 On ch=4 n=e4 v=69
176000 On ch=4 n=e4 v=0
176000 On ch=4 n=a4 v=69
176160 On ch=4 n=a4 v=0
176320 On ch=4 n=e4 v=68
176480 On ch=4 n=e4 v=0
176480 On ch=4 n=a4 v=68
176640 On ch=4 n=a4 v=0
178720 On ch=4 n=f#4 v=64
178880 On ch=4 n=f#4 v=0
178880 On ch=4 n=a4 v=64
179040 On ch=4 n=a4 v=0
179200 On ch=4 n=f#4 v=63
179360 On ch=4 n=f#4 v=0
179360 On ch=4 n=a4 v=63
179520 On ch=4 n=a4 v=0
179680 On ch=4 n=f#4 v=62
179840 On ch=4 n=f#4 v=0
179840 On ch=4 n=a4 v=62
180000 On ch=4 n=a4 v=0
180160 On ch=4 n=f#4 v=61
180320 On ch=4 n=f#4 v=0
180320 On ch=4 n=a4 v=61
180480 On ch=4 n=a4 v=0
194080 On ch=4 n=f#4 v=77
194240 On ch=4 n=f#4 v=0
194240 On ch=4 n=a4 v=77
194400 On ch=4 n=a4 v=0
194560 On ch=4 n=f#4 v=76
194720 On ch=4 n=f#4 v=0
194720 On ch=4 n=a4 v=76
194880 On ch=4 n=a4 v=0
195040 On ch=4 n=g4 v=75
195200 On ch=4 n=g4 v=0
195200 On ch=4 n=a4 v=75
195360 On ch=4 n=a4 v=0
195520 On ch=4 n=g4 v=74
195680 On ch=4 n=g4 v=0
195680 On ch=4 n=a4 v=74
195840 On ch=4 n=a4 v=0
196000 On ch=4 n=f#4 v=73
196160 On ch=4 n=f#4 v=0
196160 On ch=4 n=a4 v=73
196320 On ch=4 n=a4 v=0
196480 On ch=4 n=f#4 v=72
196640 On ch=4 n=f#4 v=0
196640 On ch=4 n=a4 v=72
196800 On ch=4 n=a4 v=0
196960 On ch=4 n=g4 v=71
197120 On ch=4 n=g4 v=0
197120 On ch=4 n=a4 v=71
197280 On ch=4 n=a4 v=0
197440 On ch=4 n=g4 v=70
197600 On ch=4 n=g4 v=0
197600 On ch=4 n=a4 v=70
197760 On ch=4 n=a4 v=0
197920 On ch=4 n=f#4 v=69
198080 On ch=4 n=f#4 v=0
198080 On ch=4 n=a4 v=69
198240 On ch=4 n=a4 v=0
198400 On ch=4 n=g4 v=69
198560 On ch=4 n=g4 v=0
198560 On ch=4 n=a4 v=68
198720 On ch=4 n=a4 v=0
198880 On ch=4 n=f#4 v=68
199040 On ch=4 n=f#4 v=0
199040 On ch=4 n=a4 v=67
199200 On ch=4 n=a4 v=0
199360 On ch=4 n=g4 v=67
199520 On ch=4 n=g4 v=0
199520 On ch=4 n=a4 v=66
199680 On ch=4 n=a4 v=0
199680 On ch=4 n=f#4 v=67
199872 On ch=4 n=f#4 v=0
201600 Par ch=4 c=64 v=0
203760 On ch=4 n=e5 v=48
204000 On ch=4 n=e5 v=0
204240 On ch=4 n=e5 v=49
204480 On ch=4 n=e5 v=0
204720 On ch=4 n=e5 v=50
204960 On ch=4 n=e5 v=0
205200 On ch=4 n=e5 v=51
205440 On ch=4 n=e5 v=0
205680 On ch=4 n=e5 v=52
205920 On ch=4 n=e5 v=0
206160 On ch=4 n=e5 v=53
206400 On ch=4 n=e5 v=0
206640 On ch=4 n=e5 v=54
206880 On ch=4 n=e5 v=0
207120 On ch=4 n=e5 v=51
207360 On ch=4 n=e5 v=0
209520 On ch=4 n=b5 v=43
209760 On ch=4 n=b5 v=0
210000 On ch=4 n=b5 v=45
210240 On ch=4 n=b5 v=0
210480 On ch=4 n=b5 v=48
210720 On ch=4 n=b5 v=0
210960 On ch=4 n=b5 v=51
211200 On ch=4 n=b5 v=0
211440 On ch=4 n=b5 v=50
211680 On ch=4 n=b5 v=0
211920 On ch=4 n=b5 v=48
212160 On ch=4 n=b5 v=0
212400 On ch=4 n=a#5 v=45
212640 On ch=4 n=a#5 v=0
212880 On ch=4 n=a#5 v=43
213120 On ch=4 n=a#5 v=0
238800 On ch=4 n=d6 v=52
239040 On ch=4 n=d6 v=0
239280 On ch=4 n=d6 v=50
239520 On ch=4 n=d6 v=0
239760 On ch=4 n=d6 v=47
240000 On ch=4 n=d6 v=0
240240 On ch=4 n=d6 v=47
240480 On ch=4 n=d6 v=0
240720 On ch=4 n=d6 v=49
240960 On ch=4 n=d6 v=0
241200 On ch=4 n=d6 v=52
241440 On ch=4 n=d6 v=0
241680 On ch=4 n=d6 v=54
241920 On ch=4 n=d6 v=0
245920 On ch=4 n=f4 v=68
246080 On ch=4 n=f4 v=0
246080 On ch=4 n=g4 v=67
246240 On ch=4 n=g4 v=0
246400 On ch=4 n=f4 v=67
246560 On ch=4 n=f4 v=0
246560 On ch=4 n=g4 v=67
246720 On ch=4 n=g4 v=0
246880 On ch=4 n=f4 v=67
247040 On ch=4 n=f4 v=0
247040 On ch=4 n=g4 v=67
247200 On ch=4 n=g4 v=0
247360 On ch=4 n=f4 v=66
247520 On ch=4 n=f4 v=0
247520 On ch=4 n=g4 v=66
247680 On ch=4 n=g4 v=0
247680 On ch=4 n=e4 v=66
248160 On ch=4 n=e4 v=0
249760 On ch=4 n=d4 v=64
249920 On ch=4 n=d4 v=0
249920 On ch=4 n=g4 v=64
250080 On ch=4 n=g4 v=0
250240 On ch=4 n=d4 v=64
250400 On ch=4 n=d4 v=0
250400 On ch=4 n=g4 v=64
250560 On ch=4 n=g4 v=0
250720 On ch=4 n=d4 v=64
250880 On ch=4 n=d4 v=0
250880 On ch=4 n=g4 v=63
251040 On ch=4 n=g4 v=0
251200 On ch=4 n=d4 v=63
251360 On ch=4 n=d4 v=0
251360 On ch=4 n=g4 v=63
251520 On ch=4 n=g4 v=0
253600 On ch=4 n=d4 v=61
253760 On ch=4 n=d4 v=0
253760 On ch=4 n=f4 v=61
253920 On ch=4 n=f4 v=0
254080 On ch=4 n=d4 v=61
254240 On ch=4 n=d4 v=0
254240 On ch=4 n=f4 v=60
254400 On ch=4 n=f4 v=0
254560 On ch=4 n=d4 v=60
254720 On ch=4 n=d4 v=0
254720 On ch=4 n=f4 v=60
254880 On ch=4 n=f4 v=0
255040 On ch=4 n=d4 v=60
255200 On ch=4 n=d4 v=0
255200 On ch=4 n=f4 v=60
255360 On ch=4 n=f4 v=0
255520 On ch=4 n=e4 v=65
255680 On ch=4 n=e4 v=0
255680 On ch=4 n=a4 v=67
255840 On ch=4 n=a4 v=0
256000 On ch=4 n=e4 v=69
256160 On ch=4 n=e4 v=0
256160 On ch=4 n=a4 v=71
256320 On ch=4 n=a4 v=0
256480 On ch=4 n=e4 v=73
256640 On ch=4 n=e4 v=0
256640 On ch=4 n=a4 v=75
256800 On ch=4 n=a4 v=0
256960 On ch=4 n=e4 v=77
257120 On ch=4 n=e4 v=0
257120 On ch=4 n=a4 v=79
257280 On ch=4 n=a4 v=0
257440 On ch=4 n=f#4 v=81
257600 On ch=4 n=f#4 v=0
257600 On ch=4 n=a4 v=81
257760 On ch=4 n=a4 v=0
257920 On ch=4 n=f#4 v=81
258080 On ch=4 n=f#4 v=0
258080 On ch=4 n=a4 v=80
258240 On ch=4 n=a4 v=0
258400 On ch=4 n=f#4 v=80
258560 On ch=4 n=f#4 v=0
258560 On ch=4 n=a4 v=80
258720 On ch=4 n=a4 v=0
258880 On ch=4 n=f#4 v=79
259040 On ch=4 n=f#4 v=0
259040 On ch=4 n=a4 v=79
259200 On ch=4 n=a4 v=0
259360 On ch=4 n=g4 v=79
259520 On ch=4 n=g4 v=0
259520 On ch=4 n=b4 v=78
259680 On ch=4 n=b4 v=0
259840 On ch=4 n=g4 v=78
260000 On ch=4 n=g4 v=0
260000 On ch=4 n=b4 v=78
260160 On ch=4 n=b4 v=0
260320 On ch=4 n=g4 v=77
260480 On ch=4 n=g4 v=0
260480 On ch=4 n=b4 v=77
260640 On ch=4 n=b4 v=0
260800 On ch=4 n=g4 v=77
260960 On ch=4 n=g4 v=0
260960 On ch=4 n=b4 v=76
261120 On ch=4 n=b4 v=0
261280 On ch=4 n=f#4 v=76
261440 On ch=4 n=f#4 v=0
261440 On ch=4 n=a4 v=76
261600 On ch=4 n=a4 v=0
261760 On ch=4 n=f#4 v=75
261920 On ch=4 n=f#4 v=0
261920 On ch=4 n=a4 v=75
262080 On ch=4 n=a4 v=0
262240 On ch=4 n=f#4 v=74
262400 On ch=4 n=f#4 v=0
262400 On ch=4 n=a4 v=74
262560 On ch=4 n=a4 v=0
262720 On ch=4 n=f#4 v=74
262880 On ch=4 n=f#4 v=0
262880 On ch=4 n=a4 v=74
263040 On ch=4 n=a4 v=0
263200 On ch=4 n=g4 v=73
263360 On ch=4 n=g4 v=0
263360 On ch=4 n=b4 v=73
263520 On ch=4 n=b4 v=0
263680 On ch=4 n=g4 v=72
263840 On ch=4 n=g4 v=0
263840 On ch=4 n=b4 v=72
264000 On ch=4 n=b4 v=0
264160 On ch=4 n=g4 v=72
264320 On ch=4 n=g4 v=0
264320 On ch=4 n=b4 v=72
264480 On ch=4 n=b4 v=0
264640 On ch=4 n=g4 v=71
264800 On ch=4 n=g4 v=0
264800 On ch=4 n=b4 v=71
264960 On ch=4 n=b4 v=0
265120 On ch=4 n=f#4 v=70
265280 On ch=4 n=f#4 v=0
265280 On ch=4 n=a4 v=70
265440 On ch=4 n=a4 v=0
265600 On ch=4 n=g4 v=70
265760 On ch=4 n=g4 v=0
265760 On ch=4 n=b4 v=70
265920 On ch=4 n=b4 v=0
266080 On ch=4 n=f#4 v=69
266240 On ch=4 n=f#4 v=0
266240 On ch=4 n=a4 v=69
266400 On ch=4 n=a4 v=0
266560 On ch=4 n=g4 v=68
266720 On ch=4 n=g4 v=0
266720 On ch=4 n=b4 v=68
266880 On ch=4 n=b4 v=0
266880 On ch=4 n=f#4 v=66
267360 On ch=4 n=f#4 v=0
269040 On ch=4 n=d5 v=39
269280 On ch=4 n=d5 v=0
269520 On ch=4 n=d5 v=41
269760 On ch=4 n=d5 v=0
270000 On ch=4 n=d5 v=42
270240 On ch=4 n=d5 v=0
270480 On ch=4 n=d5 v=44
270720 On ch=4 n=d5 v=0
270960 On ch=4 n=d5 v=44
271200 On ch=4 n=d5 v=0
271440 On ch=4 n=d5 v=40
271680 On ch=4 n=d5 v=0
272880 On ch=4 n=d5 v=44
273120 On ch=4 n=d5 v=0
273360 On ch=4 n=d5 v=47
273600 On ch=4 n=d5 v=0
273840 On ch=4 n=d5 v=49
274080 On ch=4 n=d5 v=0
274320 On ch=4 n=d5 v=51
274560 On ch=4 n=d5 v=0
274800 On ch=4 n=d5 v=51
275040 On ch=4 n=d5 v=0
275280 On ch=4 n=d5 v=48
275520 On ch=4 n=d5 v=0
284400 On ch=4 n=d6 v=54
284640 On ch=4 n=d6 v=0
284880 On ch=4 n=d6 v=56
285120 On ch=4 n=d6 v=0
285360 On ch=4 n=d6 v=59
285600 On ch=4 n=d6 v=0
285840 On ch=4 n=d6 v=61
286080 On ch=4 n=d6 v=0
286320 On ch=4 n=d6 v=62
286560 On ch=4 n=d6 v=0
286800 On ch=4 n=d6 v=59
287040 On ch=4 n=d6 v=0
288240 On ch=4 n=d6 v=56
288480 On ch=4 n=d6 v=0
288720 On ch=4 n=d6 v=59
288960 On ch=4 n=d6 v=0
289200 On ch=4 n=d6 v=62
289440 On ch=4 n=d6 v=0
289680 On ch=4 n=d6 v=64
289920 On ch=4 n=d6 v=0
290160 On ch=4 n=d6 v=66
290400 On ch=4 n=d6 v=0
290640 On ch=4 n=d6 v=62
290880 On ch=4 n=d6 v=0
299680 On ch=4 n=c5 v=78
299840 On ch=4 n=c5 v=0
299840 On ch=4 n=d5 v=77
300000 On ch=4 n=d5 v=0
300160 On ch=4 n=c5 v=77
300320 On ch=4 n=c5 v=0
300320 On ch=4 n=d5 v=76
300480 On ch=4 n=d5 v=0
300640 On ch=4 n=c5 v=76
300800 On ch=4 n=c5 v=0
300800 On ch=4 n=d5 v=76
300960 On ch=4 n=d5 v=0
301120 On ch=4 n=c5 v=75
301280 On ch=4 n=c5 v=0
301280 On ch=4 n=d5 v=75
301440 On ch=4 n=d5 v=0
301440 On ch=4 n=b4 v=74
301920 On ch=4 n=b4 v=0
303520 On ch=4 n=a4 v=71
303680 On ch=4 n=a4 v=0
303680 On ch=4 n=d5 v=70
303840 On ch=4 n=d5 v=0
304000 On ch=4 n=a4 v=70
304160 On ch=4 n=a4 v=0
304160 On ch=4 n=d5 v=70
304320 On ch=4 n=d5 v=0
304480 On ch=4 n=a4 v=69
304640 On ch=4 n=a4 v=0
304640 On ch=4 n=d5 v=69
304800 On ch=4 n=d5 v=0
304960 On ch=4 n=a4 v=68
305120 On ch=4 n=a4 v=0
305120 On ch=4 n=d5 v=68
305280 On ch=4 n=d5 v=0
305280 On ch=4 n=b4 v=68
305760 On ch=4 n=b4 v=0
307360 On ch=4 n=d4 v=64
307520 On ch=4 n=d4 v=0
307520 On ch=4 n=g4 v=64
307680 On ch=4 n=g4 v=0
307840 On ch=4 n=d4 v=63
308000 On ch=4 n=d4 v=0
308000 On ch=4 n=g4 v=63
308160 On ch=4 n=g4 v=0
308320 On ch=4 n=d4 v=62
308480 On ch=4 n=d4 v=0
308480 On ch=4 n=g#4 v=62
308640 On ch=4 n=g#4 v=0
308800 On ch=4 n=d4 v=61
308960 On ch=4 n=d4 v=0
308960 On ch=4 n=g#4 v=61
309120 On ch=4 n=g#4 v=0
309280 On ch=4 n=e4 v=64
309440 On ch=4 n=e4 v=0
309440 On ch=4 n=a4 v=64
309600 On ch=4 n=a4 v=0
309760 On ch=4 n=e4 v=63
309920 On ch=4 n=e4 v=0
309920 On ch=4 n=a4 v=63
310080 On ch=4 n=a4 v=0
310240 On ch=4 n=g4 v=62
310400 On ch=4 n=g4 v=0
310400 On ch=4 n=b4 v=62
310560 On ch=4 n=b4 v=0
310720 On ch=4 n=c5 v=61
310720 On ch=4 n=f#4 v=61
310880 On ch=4 n=f#4 v=0
310880 On ch=4 n=c5 v=0
311040 On ch=4 n=b4 v=58
311520 On ch=4 n=b4 v=0
322720 On ch=4 n=b3 v=73
322880 On ch=4 n=b3 v=0
322880 On ch=4 n=d4 v=72
323040 On ch=4 n=d4 v=0
323200 On ch=4 n=b3 v=72
323360 On ch=4 n=b3 v=0
323360 On ch=4 n=d4 v=71
323520 On ch=4 n=d4 v=0
323680 On ch=4 n=c4 v=71
323840 On ch=4 n=c4 v=0
323840 On ch=4 n=d4 v=71
324000 On ch=4 n=d4 v=0
324160 On ch=4 n=c4 v=70
324320 On ch=4 n=c4 v=0
324320 On ch=4 n=d4 v=70
324480 On ch=4 n=d4 v=0
324640 On ch=4 n=b3 v=69
324800 On ch=4 n=b3 v=0
324800 On ch=4 n=d4 v=69
324960 On ch=4 n=d4 v=0
325120 On ch=4 n=b3 v=68
325280 On ch=4 n=b3 v=0
325280 On ch=4 n=d4 v=68
325440 On ch=4 n=d4 v=0
325600 On ch=4 n=c4 v=67
325760 On ch=4 n=c4 v=0
325760 On ch=4 n=d4 v=67
325920 On ch=4 n=d4 v=0
326080 On ch=4 n=c4 v=66
326240 On ch=4 n=c4 v=0
326240 On ch=4 n=d4 v=66
326400 On ch=4 n=d4 v=0
326560 On ch=4 n=b3 v=69
326720 On ch=4 n=b3 v=0
326720 On ch=4 n=d4 v=69
326880 On ch=4 n=d4 v=0
327040 On ch=4 n=b3 v=69
327200 On ch=4 n=b3 v=0
327200 On ch=4 n=d4 v=68
327360 On ch=4 n=d4 v=0
327520 On ch=4 n=c4 v=68
327680 On ch=4 n=c4 v=0
327680 On ch=4 n=d4 v=68
327840 On ch=4 n=d4 v=0
328000 On ch=4 n=c4 v=68
328160 On ch=4 n=c4 v=0
328160 On ch=4 n=d4 v=67
328320 On ch=4 n=d4 v=0
328480 On ch=4 n=b3 v=67
328640 On ch=4 n=b3 v=0
328640 On ch=4 n=d4 v=67
328800 On ch=4 n=d4 v=0
328960 On ch=4 n=b3 v=66
329120 On ch=4 n=b3 v=0
329120 On ch=4 n=d4 v=66
329280 On ch=4 n=d4 v=0
329440 On ch=4 n=c4 v=66
329600 On ch=4 n=c4 v=0
329600 On ch=4 n=d4 v=66
329760 On ch=4 n=d4 v=0
329920 On ch=4 n=c4 v=65
330080 On ch=4 n=c4 v=0
330080 On ch=4 n=d4 v=65
330240 On ch=4 n=d4 v=0
330400 On ch=4 n=b3 v=65
330560 On ch=4 n=b3 v=0
330560 On ch=4 n=d4 v=64
330720 On ch=4 n=d4 v=0
330880 On ch=4 n=c4 v=64
331040 On ch=4 n=c4 v=0
331040 On ch=4 n=d4 v=64
331200 On ch=4 n=d4 v=0
331360 On ch=4 n=b3 v=64
331520 On ch=4 n=b3 v=0
331520 On ch=4 n=d4 v=63
331680 On ch=4 n=d4 v=0
331840 On ch=4 n=c4 v=63
332000 On ch=4 n=c4 v=0
332000 On ch=4 n=d4 v=63
332160 On ch=4 n=d4 v=0
337200 On ch=4 n=d5 v=38
337440 On ch=4 n=d5 v=0
337680 On ch=4 n=d5 v=39
337920 On ch=4 n=d5 v=0
338160 On ch=4 n=d5 v=40
338400 On ch=4 n=d5 v=0
338640 On ch=4 n=d5 v=41
338880 On ch=4 n=d5 v=0
339120 On ch=4 n=d5 v=42
339360 On ch=4 n=d5 v=0
339600 On ch=4 n=d5 v=44
339840 On ch=4 n=d5 v=0
340080 On ch=4 n=d5 v=45
340320 On ch=4 n=d5 v=0
340560 On ch=4 n=d5 v=44
340800 On ch=4 n=d5 v=0
341040 On ch=4 n=d5 v=43
341280 On ch=4 n=d5 v=0
341520 On ch=4 n=d5 v=41
341760 On ch=4 n=d5 v=0
342000 On ch=4 n=d5 v=40
342240 On ch=4 n=d5 v=0
342480 On ch=4 n=d5 v=41
342720 On ch=4 n=d5 v=0
342960 On ch=4 n=d5 v=43
343200 On ch=4 n=d5 v=0
343440 On ch=4 n=d5 v=44
343680 On ch=4 n=d5 v=0
343920 On ch=4 n=d5 v=45
344160 On ch=4 n=d5 v=0
344400 On ch=4 n=d5 v=47
344640 On ch=4 n=d5 v=0
344880 On ch=4 n=d5 v=48
345120 On ch=4 n=d5 v=0
345360 On ch=4 n=d5 v=49
345600 On ch=4 n=d5 v=0
345840 On ch=4 n=d5 v=50
346080 On ch=4 n=d5 v=0
354960 On ch=4 n=d5 v=40
355200 On ch=4 n=d5 v=0
355440 On ch=4 n=d5 v=41
355680 On ch=4 n=d5 v=0
355920 On ch=4 n=d5 v=42
356160 On ch=4 n=d5 v=0
356400 On ch=4 n=d5 v=43
356640 On ch=4 n=d5 v=0
356880 On ch=4 n=d5 v=44
357120 On ch=4 n=d5 v=0
357360 On ch=4 n=d5 v=45
357600 On ch=4 n=d5 v=0
357840 On ch=4 n=d5 v=44
358080 On ch=4 n=d5 v=0
358320 On ch=4 n=d5 v=42
358560 On ch=4 n=d5 v=0
358800 On ch=4 n=d5 v=40
359040 On ch=4 n=d5 v=0
359280 On ch=4 n=d5 v=43
359520 On ch=4 n=d5 v=0
359760 On ch=4 n=d5 v=45
360000 On ch=4 n=d5 v=0
360240 On ch=4 n=d5 v=47
360480 On ch=4 n=d5 v=0
360720 On ch=4 n=d5 v=49
360960 On ch=4 n=d5 v=0
361200 On ch=4 n=d5 v=51
361440 On ch=4 n=d5 v=0
361680 On ch=4 n=d5 v=54
361920 On ch=4 n=d5 v=0
362160 On ch=4 n=d5 v=56
362400 On ch=4 n=d5 v=0
362640 On ch=4 n=d5 v=58
362880 On ch=4 n=d5 v=0
363120 On ch=4 n=d5 v=60
363360 On ch=4 n=d5 v=0
376440 On ch=4 n=c#5 v=71
376560 On ch=4 n=c#5 v=0
376560 On ch=4 n=e5 v=71
376680 On ch=4 n=e5 v=0
376680 On ch=4 n=c#5 v=70
376800 On ch=4 n=c#5 v=0
376920 On ch=4 n=c#5 v=69
377040 On ch=4 n=c#5 v=0
377040 On ch=4 n=e5 v=69
377160 On ch=4 n=e5 v=0
377160 On ch=4 n=c#5 v=69
377280 On ch=4 n=c#5 v=0
377400 On ch=4 n=c#5 v=68
377520 On ch=4 n=c#5 v=0
377520 On ch=4 n=e5 v=67
377640 On ch=4 n=e5 v=0
377640 On ch=4 n=c#5 v=67
377760 On ch=4 n=c#5 v=0
377880 On ch=4 n=d5 v=66
378000 On ch=4 n=d5 v=0
378000 On ch=4 n=f#5 v=66
378120 On ch=4 n=f#5 v=0
378120 On ch=4 n=d5 v=65
378240 On ch=4 n=d5 v=0
378360 On ch=4 n=d5 v=65
378480 On ch=4 n=d5 v=0
378480 On ch=4 n=f#5 v=64
378600 On ch=4 n=f#5 v=0
378600 On ch=4 n=d5 v=64
378720 On ch=4 n=d5 v=0
378840 On ch=4 n=d5 v=63
378960 On ch=4 n=d5 v=0
378960 On ch=4 n=f#5 v=63
379080 On ch=4 n=f#5 v=0
379080 On ch=4 n=d5 v=62
379200 On ch=4 n=d5 v=0
379320 On ch=4 n=e5 v=62
379440 On ch=4 n=e5 v=0
379440 On ch=4 n=g5 v=62
379560 On ch=4 n=g5 v=0
379560 On ch=4 n=e5 v=63
379680 On ch=4 n=e5 v=0
379800 On ch=4 n=e5 v=63
379920 On ch=4 n=e5 v=0
379920 On ch=4 n=g5 v=63
380040 On ch=4 n=g5 v=0
380040 On ch=4 n=e5 v=64
380160 On ch=4 n=e5 v=0
380280 On ch=4 n=e5 v=64
380400 On ch=4 n=e5 v=0
380400 On ch=4 n=g5 v=65
380520 On ch=4 n=g5 v=0
380520 On ch=4 n=e5 v=65
380640 On ch=4 n=e5 v=0
380760 On ch=4 n=d5 v=66
380880 On ch=4 n=d5 v=0
380880 On ch=4 n=f#5 v=66
381000 On ch=4 n=f#5 v=0
381000 On ch=4 n=d5 v=66
381120 On ch=4 n=d5 v=0
381240 On ch=4 n=d5 v=67
381360 On ch=4 n=d5 v=0
381360 On ch=4 n=f#5 v=67
381480 On ch=4 n=f#5 v=0
381480 On ch=4 n=d5 v=68
381600 On ch=4 n=d5 v=0
381720 On ch=4 n=d5 v=68
381840 On ch=4 n=d5 v=0
381840 On ch=4 n=f#5 v=69
381960 On ch=4 n=f#5 v=0
381960 On ch=4 n=d5 v=69
382080 On ch=4 n=d5 v=0
382200 On ch=4 n=c#5 v=67
382320 On ch=4 n=c#5 v=0
382320 On ch=4 n=e5 v=67
382440 On ch=4 n=e5 v=0
382440 On ch=4 n=c#5 v=67
382560 On ch=4 n=c#5 v=0
382680 On ch=4 n=c#5 v=66
382800 On ch=4 n=c#5 v=0
382800 On ch=4 n=e5 v=66
382920 On ch=4 n=e5 v=0
382920 On ch=4 n=c#5 v=66
383040 On ch=4 n=c#5 v=0
383160 On ch=4 n=c#5 v=65
383280 On ch=4 n=c#5 v=0
383280 On ch=4 n=e5 v=65
383400 On ch=4 n=e5 v=0
383400 On ch=4 n=c#5 v=65
383520 On ch=4 n=c#5 v=0
383640 On ch=4 n=d5 v=64
383760 On ch=4 n=d5 v=0
383760 On ch=4 n=f#5 v=64
383880 On ch=4 n=f#5 v=0
383880 On ch=4 n=d5 v=63
384000 On ch=4 n=d5 v=0
384120 On ch=4 n=d5 v=63
384240 On ch=4 n=d5 v=0
384240 On ch=4 n=f#5 v=63
384360 On ch=4 n=f#5 v=0
384360 On ch=4 n=d5 v=62
384480 On ch=4 n=d5 v=0
384600 On ch=4 n=d5 v=62
384720 On ch=4 n=d5 v=0
384720 On ch=4 n=f#5 v=62
384840 On ch=4 n=f#5 v=0
384840 On ch=4 n=d5 v=61
384960 On ch=4 n=d5 v=0
385080 On ch=4 n=e5 v=61
385200 On ch=4 n=e5 v=0
385200 On ch=4 n=g5 v=60
385320 On ch=4 n=g5 v=0
385320 On ch=4 n=e5 v=60
385440 On ch=4 n=e5 v=0
385560 On ch=4 n=e5 v=60
385680 On ch=4 n=e5 v=0
385680 On ch=4 n=g5 v=59
385800 On ch=4 n=g5 v=0
385800 On ch=4 n=e5 v=59
385920 On ch=4 n=e5 v=0
386040 On ch=4 n=d5 v=59
386160 On ch=4 n=d5 v=0
386160 On ch=4 n=f#5 v=58
386280 On ch=4 n=f#5 v=0
386280 On ch=4 n=d5 v=58
386400 On ch=4 n=d5 v=0
404880 On ch=4 n=d5 v=38
405120 On ch=4 n=d5 v=0
405360 On ch=4 n=d5 v=39
405600 On ch=4 n=d5 v=0
405840 On ch=4 n=d5 v=40
406080 On ch=4 n=d5 v=0
406320 On ch=4 n=d5 v=41
406560 On ch=4 n=d5 v=0
406800 On ch=4 n=d5 v=42
407040 On ch=4 n=d5 v=0
407280 On ch=4 n=d5 v=44
407520 On ch=4 n=d5 v=0
407760 On ch=4 n=d5 v=45
408000 On ch=4 n=d5 v=0
408240 On ch=4 n=d5 v=44
408480 On ch=4 n=d5 v=0
408720 On ch=4 n=d5 v=43
408960 On ch=4 n=d5 v=0
409200 On ch=4 n=d5 v=41
409440 On ch=4 n=d5 v=0
409680 On ch=4 n=d5 v=40
409920 On ch=4 n=d5 v=0
410160 On ch=4 n=d5 v=41
410400 On ch=4 n=d5 v=0
410640 On ch=4 n=d5 v=43
410880 On ch=4 n=d5 v=0
411120 On ch=4 n=d5 v=44
411360 On ch=4 n=d5 v=0
411600 On ch=4 n=d5 v=45
411840 On ch=4 n=d5 v=0
412080 On ch=4 n=d5 v=47
412320 On ch=4 n=d5 v=0
412560 On ch=4 n=d5 v=48
412800 On ch=4 n=d5 v=0
413040 On ch=4 n=d5 v=49
413280 On ch=4 n=d5 v=0
413520 On ch=4 n=d5 v=50
413760 On ch=4 n=d5 v=0
422640 On ch=4 n=d5 v=45
422880 On ch=4 n=d5 v=0
423120 On ch=4 n=d5 v=46
423360 On ch=4 n=d5 v=0
423600 On ch=4 n=d5 v=47
423840 On ch=4 n=d5 v=0
424080 On ch=4 n=d5 v=48
424320 On ch=4 n=d5 v=0
424560 On ch=4 n=d5 v=49
424800 On ch=4 n=d5 v=0
425040 On ch=4 n=d5 v=50
425280 On ch=4 n=d5 v=0
425520 On ch=4 n=d5 v=51
425760 On ch=4 n=d5 v=0
426000 On ch=4 n=d5 v=48
426240 On ch=4 n=d5 v=0
426480 On ch=4 n=d5 v=44
426720 On ch=4 n=d5 v=0
426960 On ch=4 n=d5 v=47
427200 On ch=4 n=d5 v=0
427440 On ch=4 n=d5 v=49
427680 On ch=4 n=d5 v=0
427920 On ch=4 n=d5 v=52
428160 On ch=4 n=d5 v=0
428400 On ch=4 n=d5 v=54
428640 On ch=4 n=d5 v=0
428880 On ch=4 n=d5 v=57
429120 On ch=4 n=d5 v=0
429360 On ch=4 n=d5 v=59
429600 On ch=4 n=d5 v=0
429840 On ch=4 n=d5 v=62
430080 On ch=4 n=d5 v=0
430320 On ch=4 n=d5 v=64
430560 On ch=4 n=d5 v=0
430800 On ch=4 n=d5 v=67
431040 On ch=4 n=d5 v=0
434160 On ch=4 n=c5 v=79
434400 On ch=4 n=c5 v=0
434640 On ch=4 n=c5 v=78
434880 On ch=4 n=c5 v=0
435120 On ch=4 n=c5 v=77
435360 On ch=4 n=c5 v=0
435600 On ch=4 n=c5 v=75
435840 On ch=4 n=c5 v=0
436080 On ch=4 n=c5 v=74
436320 On ch=4 n=c5 v=0
436560 On ch=4 n=c5 v=73
436800 On ch=4 n=c5 v=0
437040 On ch=4 n=c5 v=72
437280 On ch=4 n=c5 v=0
437520 On ch=4 n=c5 v=71
437760 On ch=4 n=c5 v=0
438000 On ch=4 n=c5 v=70
438240 On ch=4 n=c5 v=0
438480 On ch=4 n=c5 v=69
438720 On ch=4 n=c5 v=0
445680 On ch=4 n=c5 v=73
445920 On ch=4 n=c5 v=0
446160 On ch=4 n=c5 v=72
446400 On ch=4 n=c5 v=0
446640 On ch=4 n=c5 v=71
446880 On ch=4 n=c5 v=0
447120 On ch=4 n=c5 v=70
447360 On ch=4 n=c5 v=0
447600 On ch=4 n=c5 v=69
447840 On ch=4 n=c5 v=0
448080 On ch=4 n=c5 v=68
448320 On ch=4 n=c5 v=0
448560 On ch=4 n=c5 v=67
448800 On ch=4 n=c5 v=0
449040 On ch=4 n=c5 v=66
449280 On ch=4 n=c5 v=0
449520 On ch=4 n=c5 v=66
449760 On ch=4 n=c5 v=0
450000 On ch=4 n=c5 v=65
450240 On ch=4 n=c5 v=0
460560 On ch=4 n=d5 v=41
460800 On ch=4 n=d5 v=0
461040 On ch=4 n=d5 v=38
461280 On ch=4 n=d5 v=0
461520 On ch=4 n=d5 v=35
461760 On ch=4 n=d5 v=0
462000 On ch=4 n=d5 v=32
462240 On ch=4 n=d5 v=0
462480 On ch=4 n=d5 v=38
462720 On ch=4 n=d5 v=0
462960 On ch=4 n=d5 v=39
463200 On ch=4 n=d5 v=0
463440 On ch=4 n=d5 v=40
463680 On ch=4 n=d5 v=0
463920 On ch=4 n=d5 v=41
464160 On ch=4 n=d5 v=0
464400 On ch=4 n=d5 v=42
464640 On ch=4 n=d5 v=0
464880 On ch=4 n=d5 v=44
465120 On ch=4 n=d5 v=0
465360 On ch=4 n=d5 v=45
465600 On ch=4 n=d5 v=0
465840 On ch=4 n=d5 v=44
466080 On ch=4 n=d5 v=0
466320 On ch=4 n=d5 v=43
466560 On ch=4 n=d5 v=0
466800 On ch=4 n=d5 v=41
467040 On ch=4 n=d5 v=0
467280 On ch=4 n=d5 v=40
467520 On ch=4 n=d5 v=0
467760 On ch=4 n=d5 v=41
468000 On ch=4 n=d5 v=0
468240 On ch=4 n=d5 v=43
468480 On ch=4 n=d5 v=0
468720 On ch=4 n=d5 v=44
468960 On ch=4 n=d5 v=0
469200 On ch=4 n=d5 v=45
469440 On ch=4 n=d5 v=0
469680 On ch=4 n=d5 v=47
469920 On ch=4 n=d5 v=0
470160 On ch=4 n=d5 v=48
470400 On ch=4 n=d5 v=0
470640 On ch=4 n=d5 v=49
470880 On ch=4 n=d5 v=0
471120 On ch=4 n=d5 v=50
471360 On ch=4 n=d5 v=0
480240 On ch=4 n=d5 v=40
480480 On ch=4 n=d5 v=0
480720 On ch=4 n=d5 v=41
480960 On ch=4 n=d5 v=0
481200 On ch=4 n=d5 v=42
481440 On ch=4 n=d5 v=0
481680 On ch=4 n=d5 v=43
481920 On ch=4 n=d5 v=0
482160 On ch=4 n=d5 v=44
482400 On ch=4 n=d5 v=0
482640 On ch=4 n=d5 v=45
482880 On ch=4 n=d5 v=0
483120 On ch=4 n=d5 v=44
483360 On ch=4 n=d5 v=0
483600 On ch=4 n=d5 v=42
483840 On ch=4 n=d5 v=0
484080 On ch=4 n=d5 v=40
484320 On ch=4 n=d5 v=0
484560 On ch=4 n=d5 v=43
484800 On ch=4 n=d5 v=0
485040 On ch=4 n=d5 v=45
485280 On ch=4 n=d5 v=0
485520 On ch=4 n=d5 v=47
485760 On ch=4 n=d5 v=0
486000 On ch=4 n=d5 v=49
486240 On ch=4 n=d5 v=0
486480 On ch=4 n=d5 v=51
486720 On ch=4 n=d5 v=0
486960 On ch=4 n=d5 v=54
487200 On ch=4 n=d5 v=0
487440 On ch=4 n=d5 v=56
487680 On ch=4 n=d5 v=0
487920 On ch=4 n=d5 v=58
488160 On ch=4 n=d5 v=0
488400 On ch=4 n=d5 v=60
488640 On ch=4 n=d5 v=0
491760 On ch=4 n=g5 v=47
492000 On ch=4 n=g5 v=0
492240 On ch=4 n=g5 v=46
492480 On ch=4 n=g5 v=0
492720 On ch=4 n=g5 v=46
492960 On ch=4 n=g5 v=0
493200 On ch=4 n=e5 v=45
493440 On ch=4 n=e5 v=0
493680 On ch=4 n=e5 v=44
493920 On ch=4 n=e5 v=0
494160 On ch=4 n=e5 v=44
494400 On ch=4 n=e5 v=0
494640 On ch=4 n=e5 v=43
494880 On ch=4 n=e5 v=0
495120 On ch=4 n=e5 v=43
495360 On ch=4 n=e5 v=0
495600 On ch=4 n=e5 v=42
495840 On ch=4 n=e5 v=0
496080 On ch=4 n=e5 v=41
496320 On ch=4 n=e5 v=0
496560 On ch=4 n=e5 v=41
496800 On ch=4 n=e5 v=0
497040 On ch=4 n=e5 v=40
497280 On ch=4 n=e5 v=0
497520 On ch=4 n=d5 v=43
497760 On ch=4 n=d5 v=0
498000 On ch=4 n=d5 v=42
498240 On ch=4 n=d5 v=0
498480 On ch=4 n=d5 v=38
498720 On ch=4 n=d5 v=0
498960 On ch=4 n=d5 v=40
499200 On ch=4 n=d5 v=0
499440 On ch=4 n=d5 v=40
499680 On ch=4 n=d5 v=0
499920 On ch=4 n=d5 v=36
500160 On ch=4 n=d5 v=0
503280 On ch=4 n=d6 v=73
503520 On ch=4 n=d6 v=0
503760 On ch=4 n=d6 v=71
504000 On ch=4 n=d6 v=0
504240 On ch=4 n=d6 v=69
504480 On ch=4 n=d6 v=0
504720 On ch=4 n=d6 v=68
504960 On ch=4 n=d6 v=0
505200 On ch=4 n=d6 v=66
505440 On ch=4 n=d6 v=0
505680 On ch=4 n=d6 v=64
505920 On ch=4 n=d6 v=0
505920 Meta TrkEnd
TrkEnd
MTrk
0 SeqSpec 43 00 01 00
0 Meta TrkName "No Name"
0 Par ch=5 c=0 v=0
0 Par ch=5 c=32 v=0
0 PrCh ch=5 p=0
0 Par ch=5 c=10 v=55
0 Par ch=5 c=91 v=100
0 Par ch=5 c=93 v=28
0 Par ch=5 c=64 v=0
0 Par ch=5 c=1 v=0
0 Pb ch=5 v=8192
0 Par ch=5 c=7 v=120
1920 Par ch=5 c=64 v=0
17760 On ch=5 n=e5 v=54
17760 On ch=5 n=a5 v=54
18240 On ch=5 n=a5 v=0
18240 On ch=5 n=e5 v=0
19680 On ch=5 n=g5 v=49
19680 On ch=5 n=d5 v=49
20160 On ch=5 n=d5 v=0
20160 On ch=5 n=g5 v=0
25440 On ch=5 n=e4 v=50
25440 On ch=5 n=a4 v=50
25920 On ch=5 n=a4 v=0
25920 On ch=5 n=e4 v=0
27360 On ch=5 n=e4 v=57
27360 On ch=5 n=a4 v=57
27840 On ch=5 n=a4 v=0
27840 On ch=5 n=e4 v=0
48000 On ch=5 n=b5 v=49
48960 On ch=5 n=b5 v=0
48960 On ch=5 n=a5 v=40
49440 On ch=5 n=a5 v=0
49920 On ch=5 n=b5 v=53
50880 On ch=5 n=a5 v=46
50898 On ch=5 n=b5 v=0
51360 On ch=5 n=a5 v=0
63360 On ch=5 n=b5 v=63
64320 On ch=5 n=b5 v=0
64320 On ch=5 n=a5 v=54
64800 On ch=5 n=a5 v=0
65280 On ch=5 n=b5 v=68
66240 On ch=5 n=b5 v=0
66240 On ch=5 n=a5 v=58
66720 On ch=5 n=a5 v=0
81120 On ch=5 n=g4 v=60
81600 On ch=5 n=g4 v=0
81600 On ch=5 n=f#4 v=59
82080 On ch=5 n=f#4 v=0
82080 On ch=5 n=g4 v=58
82560 On ch=5 n=g4 v=0
82560 On ch=5 n=f#4 v=58
83040 On ch=5 n=f#4 v=0
101760 Par ch=5 c=64 v=0
117600 On ch=5 n=a5 v=54
117600 On ch=5 n=e5 v=54
118080 On ch=5 n=e5 v=0
118080 On ch=5 n=a5 v=0
119520 On ch=5 n=d5 v=49
119520 On ch=5 n=g5 v=49
120000 On ch=5 n=g5 v=0
120000 On ch=5 n=d5 v=0
125280 On ch=5 n=a4 v=50
125280 On ch=5 n=e4 v=50
125760 On ch=5 n=e4 v=0
125760 On ch=5 n=a4 v=0
127200 On ch=5 n=a4 v=57
127200 On ch=5 n=e4 v=57
127680 On ch=5 n=e4 v=0
127680 On ch=5 n=a4 v=0
147840 On ch=5 n=b5 v=49
148800 On ch=5 n=b5 v=0
148800 On ch=5 n=a5 v=40
149280 On ch=5 n=a5 v=0
149760 On ch=5 n=b5 v=53
150720 On ch=5 n=a5 v=46
150738 On ch=5 n=b5 v=0
151200 On ch=5 n=a5 v=0
163200 On ch=5 n=b5 v=63
164160 On ch=5 n=b5 v=0
164160 On ch=5 n=a5 v=54
164640 On ch=5 n=a5 v=0
165120 On ch=5 n=b5 v=68
166080 On ch=5 n=b5 v=0
166080 On ch=5 n=a5 v=58
166560 On ch=5 n=a5 v=0
180960 On ch=5 n=g4 v=60
181440 On ch=5 n=g4 v=0
181440 On ch=5 n=f#4 v=59
181920 On ch=5 n=f#4 v=0
181920 On ch=5 n=g4 v=58
182400 On ch=5 n=g4 v=0
182400 On ch=5 n=f#4 v=58
182880 On ch=5 n=f#4 v=0
201600 Par ch=5 c=64 v=0
227520 On ch=5 n=c5 v=87
228480 On ch=5 n=c5 v=0
276480 On ch=5 n=e5 v=49
277440 On ch=5 n=e5 v=0
277440 On ch=5 n=d5 v=40
277920 On ch=5 n=d5 v=0
278400 On ch=5 n=e5 v=53
279360 On ch=5 n=d5 v=46
279378 On ch=5 n=e5 v=0
279840 On ch=5 n=d5 v=0
280800 On ch=5 n=e5 v=58
281280 On ch=5 n=e5 v=0
281760 On ch=5 n=e5 v=53
282240 On ch=5 n=e5 v=0
291840 On ch=5 n=e6 v=63
292320 On ch=5 n=e6 v=0
292320 On ch=5 n=f#6 v=54
292800 On ch=5 n=f#6 v=0
292800 On ch=5 n=d6 v=54
293280 On ch=5 n=d6 v=0
293760 On ch=5 n=e6 v=68
294240 On ch=5 n=e6 v=0
294240 On ch=5 n=f#6 v=58
294720 On ch=5 n=f#6 v=0
294720 On ch=5 n=d6 v=58
295200 On ch=5 n=d6 v=0
336960 On ch=5 n=b4 v=38
337440 On ch=5 n=b4 v=0
337440 On ch=5 n=c5 v=39
337920 On ch=5 n=c5 v=0
338400 On ch=5 n=c5 v=41
338880 On ch=5 n=c5 v=0
338880 On ch=5 n=b4 v=42
339360 On ch=5 n=b4 v=0
339840 On ch=5 n=b4 v=44
340320 On ch=5 n=b4 v=0
340320 On ch=5 n=a4 v=45
340800 On ch=5 n=a4 v=0
341280 On ch=5 n=a4 v=42
341760 On ch=5 n=a4 v=0
341760 On ch=5 n=b4 v=40
342240 On ch=5 n=b4 v=0
342720 On ch=5 n=b4 v=42
343200 On ch=5 n=b4 v=0
343200 On ch=5 n=c5 v=43
343680 On ch=5 n=c5 v=0
344160 On ch=5 n=c5 v=46
344640 On ch=5 n=c5 v=0
344640 On ch=5 n=b4 v=47
345120 On ch=5 n=b4 v=0
345600 On ch=5 n=b4 v=50
346080 On ch=5 n=b4 v=0
346560 On ch=5 n=c5 v=50
347040 On ch=5 n=c5 v=0
347040 On ch=5 n=c5 v=48
347520 On ch=5 n=c5 v=0
347520 On ch=5 n=b4 v=45
348000 On ch=5 n=b4 v=0
348960 On ch=5 n=f#5 v=40
349440 On ch=5 n=f#5 v=0
349440 On ch=5 n=g5 v=35
349680 On ch=5 n=g5 v=0
350400 On ch=5 n=g5 v=43
350880 On ch=5 n=g5 v=0
350880 On ch=5 n=f#5 v=38
351120 On ch=5 n=f#5 v=0
354720 On ch=5 n=c5 v=40
355200 On ch=5 n=c5 v=0
355680 On ch=5 n=c5 v=42
356160 On ch=5 n=c5 v=0
356160 On ch=5 n=b4 v=43
356640 On ch=5 n=b4 v=0
357120 On ch=5 n=b4 v=44
357600 On ch=5 n=b4 v=0
357600 On ch=5 n=a4 v=45
358080 On ch=5 n=a4 v=0
358560 On ch=5 n=a4 v=41
359040 On ch=5 n=a4 v=0
359040 On ch=5 n=b4 v=42
359520 On ch=5 n=b4 v=0
360000 On ch=5 n=b4 v=46
360480 On ch=5 n=b4 v=0
360480 On ch=5 n=c5 v=48
360960 On ch=5 n=c5 v=0
361440 On ch=5 n=c5 v=53
361920 On ch=5 n=c5 v=0
361920 On ch=5 n=b4 v=55
362400 On ch=5 n=b4 v=0
362880 On ch=5 n=b4 v=59
363360 On ch=5 n=b4 v=0
363840 On ch=5 n=c5 v=67
364320 On ch=5 n=c5 v=0
364320 On ch=5 n=c5 v=60
364800 On ch=5 n=c5 v=0
364800 On ch=5 n=b4 v=53
365280 On ch=5 n=b4 v=0
386640 On ch=5 n=g5 v=57
386880 On ch=5 n=g5 v=0
386880 On ch=5 n=f#5 v=57
387360 On ch=5 n=f#5 v=0
387360 On ch=5 n=e5 v=56
387840 On ch=5 n=e5 v=0
387840 On ch=5 n=f#5 v=54
388320 On ch=5 n=f#5 v=0
391200 On ch=5 n=f#5 v=47
391680 On ch=5 n=f#5 v=0
391680 On ch=5 n=g5 v=46
392160 On ch=5 n=g5 v=0
392160 On ch=5 n=f#5 v=45
392640 On ch=5 n=f#5 v=0
395520 On ch=5 n=f#5 v=51
396000 On ch=5 n=f#5 v=0
396000 On ch=5 n=g5 v=50
396480 On ch=5 n=g5 v=0
396480 On ch=5 n=f#5 v=48
396960 On ch=5 n=f#5 v=0
397440 On ch=5 n=f#5 v=46
397920 On ch=5 n=f#5 v=0
397920 On ch=5 n=g5 v=44
398400 On ch=5 n=g5 v=0
398880 On ch=5 n=e5 v=41
399360 On ch=5 n=e5 v=0
399360 On ch=5 n=f#5 v=40
399840 On ch=5 n=f#5 v=0
400320 On ch=5 n=f#5 v=37
400800 On ch=5 n=f#5 v=0
400800 On ch=5 n=g5 v=36
401280 On ch=5 n=g5 v=0
401760 On ch=5 n=e5 v=33
402240 On ch=5 n=e5 v=0
402240 On ch=5 n=f#5 v=32
402720 On ch=5 n=f#5 v=0
404640 On ch=5 n=b4 v=38
405120 On ch=5 n=b4 v=0
405120 On ch=5 n=c5 v=39
405600 On ch=5 n=c5 v=0
406080 On ch=5 n=c5 v=41
406560 On ch=5 n=c5 v=0
406560 On ch=5 n=b4 v=42
407040 On ch=5 n=b4 v=0
407520 On ch=5 n=b4 v=44
408000 On ch=5 n=b4 v=0
408000 On ch=5 n=a4 v=45
408480 On ch=5 n=a4 v=0
408960 On ch=5 n=a4 v=42
409440 On ch=5 n=a4 v=0
409440 On ch=5 n=b4 v=40
409920 On ch=5 n=b4 v=0
410400 On ch=5 n=b4 v=42
410880 On ch=5 n=b4 v=0
410880 On ch=5 n=c5 v=43
411360 On ch=5 n=c5 v=0
411840 On ch=5 n=c5 v=46
412320 On ch=5 n=c5 v=0
412320 On ch=5 n=b4 v=47
412800 On ch=5 n=b4 v=0
413280 On ch=5 n=b4 v=50
413760 On ch=5 n=b4 v=0
414240 On ch=5 n=c5 v=50
414720 On ch=5 n=c5 v=0
414720 On ch=5 n=c5 v=48
415200 On ch=5 n=c5 v=0
415200 On ch=5 n=b4 v=45
415680 On ch=5 n=b4 v=0
422400 On ch=5 n=c5 v=44
422880 On ch=5 n=c5 v=0
423360 On ch=5 n=c5 v=46
423840 On ch=5 n=c5 v=0
423840 On ch=5 n=b4 v=47
424320 On ch=5 n=b4 v=0
424800 On ch=5 n=b4 v=49
425280 On ch=5 n=b4 v=0
425280 On ch=5 n=a4 v=51
425760 On ch=5 n=a4 v=0
426240 On ch=5 n=a4 v=45
426720 On ch=5 n=a4 v=0
426720 On ch=5 n=b4 v=46
427200 On ch=5 n=b4 v=0
427680 On ch=5 n=b4 v=51
428160 On ch=5 n=b4 v=0
428160 On ch=5 n=c5 v=53
428640 On ch=5 n=c5 v=0
429120 On ch=5 n=c5 v=58
429600 On ch=5 n=c5 v=0
429600 On ch=5 n=b4 v=61
430080 On ch=5 n=b4 v=0
430560 On ch=5 n=b4 v=66
431040 On ch=5 n=b4 v=0
431520 On ch=5 n=c5 v=72
432000 On ch=5 n=c5 v=0
432000 On ch=5 n=c5 v=64
432480 On ch=5 n=c5 v=0
432480 On ch=5 n=b4 v=55
432960 On ch=5 n=b4 v=0
440160 On ch=5 n=b4 v=49
440160 On ch=5 n=d5 v=49
440640 On ch=5 n=d5 v=0
440640 On ch=5 n=b4 v=0
441600 On ch=5 n=e5 v=44
442080 On ch=5 n=e5 v=0
451680 On ch=5 n=d5 v=36
451680 On ch=5 n=b4 v=36
452160 On ch=5 n=b4 v=0
452160 On ch=5 n=d5 v=0
453120 On ch=5 n=e5 v=39
453600 On ch=5 n=e5 v=0
454560 On ch=5 n=d5 v=42
455040 On ch=5 n=d5 v=0
456000 On ch=5 n=d5 v=45
456480 On ch=5 n=d5 v=0
457440 On ch=5 n=d5 v=48
457920 On ch=5 n=d5 v=0
460320 On ch=5 n=c#5 v=43
460560 On ch=5 n=c#5 v=0
460800 On ch=5 n=c#5 v=40
461040 On ch=5 n=c#5 v=0
461280 On ch=5 n=c5 v=37
461520 On ch=5 n=c5 v=0
461760 On ch=5 n=c5 v=34
462000 On ch=5 n=c5 v=0
462240 On ch=5 n=b4 v=38
462720 On ch=5 n=b4 v=0
462720 On ch=5 n=c5 v=39
463200 On ch=5 n=c5 v=0
463680 On ch=5 n=c5 v=41
464160 On ch=5 n=c5 v=0
464160 On ch=5 n=b4 v=42
464640 On ch=5 n=b4 v=0
465120 On ch=5 n=b4 v=44
465600 On ch=5 n=b4 v=0
465600 On ch=5 n=a4 v=45
466080 On ch=5 n=a4 v=0
466560 On ch=5 n=a4 v=42
467040 On ch=5 n=a4 v=0
467040 On ch=5 n=b4 v=40
467520 On ch=5 n=b4 v=0
468000 On ch=5 n=b4 v=42
468480 On ch=5 n=b4 v=0
468480 On ch=5 n=c5 v=43
468960 On ch=5 n=c5 v=0
469440 On ch=5 n=c5 v=46
469920 On ch=5 n=c5 v=0
469920 On ch=5 n=b4 v=47
470400 On ch=5 n=b4 v=0
470880 On ch=5 n=b4 v=50
471360 On ch=5 n=b4 v=0
471840 On ch=5 n=c5 v=50
472320 On ch=5 n=c5 v=0
472320 On ch=5 n=c5 v=48
472800 On ch=5 n=c5 v=0
472800 On ch=5 n=b4 v=45
473280 On ch=5 n=b4 v=0
480000 On ch=5 n=c5 v=40
480480 On ch=5 n=c5 v=0
480960 On ch=5 n=c5 v=42
481440 On ch=5 n=c5 v=0
481440 On ch=5 n=b4 v=43
481920 On ch=5 n=b4 v=0
482400 On ch=5 n=b4 v=44
482880 On ch=5 n=b4 v=0
482880 On ch=5 n=a4 v=45
483360 On ch=5 n=a4 v=0
483840 On ch=5 n=a4 v=41
484320 On ch=5 n=a4 v=0
484320 On ch=5 n=b4 v=42
484800 On ch=5 n=b4 v=0
485280 On ch=5 n=b4 v=46
485760 On ch=5 n=b4 v=0
485760 On ch=5 n=c5 v=48
486240 On ch=5 n=c5 v=0
486720 On ch=5 n=c5 v=53
487200 On ch=5 n=c5 v=0
487200 On ch=5 n=b4 v=55
487680 On ch=5 n=b4 v=0
488160 On ch=5 n=b4 v=59
488640 On ch=5 n=b4 v=0
489120 On ch=5 n=c5 v=65
489600 On ch=5 n=c5 v=0
489600 On ch=5 n=c5 v=57
490080 On ch=5 n=c5 v=0
490080 On ch=5 n=b4 v=49
490560 On ch=5 n=b4 v=0
497280 On ch=5 n=c5 v=40
497680 On ch=5 n=c5 v=0
497760 On ch=5 n=a4 v=47
498160 On ch=5 n=a4 v=0
498240 On ch=5 n=b4 v=38
498640 On ch=5 n=b4 v=0
498720 On ch=5 n=c5 v=38
499120 On ch=5 n=c5 v=0
499200 On ch=5 n=a4 v=43
499600 On ch=5 n=a4 v=0
499680 On ch=5 n=b4 v=36
500080 On ch=5 n=b4 v=0
502800 On ch=5 n=b5 v=71
503040 On ch=5 n=b5 v=0
503040 On ch=5 n=c6 v=74
503472 On ch=5 n=c6 v=0
503520 On ch=5 n=a5 v=72
503952 On ch=5 n=a5 v=0
504000 On ch=5 n=b5 v=70
504432 On ch=5 n=b5 v=0
504480 On ch=5 n=c6 v=69
504912 On ch=5 n=c6 v=0
504960 On ch=5 n=a5 v=67
505392 On ch=5 n=a5 v=0
505440 On ch=5 n=b5 v=65
505872 On ch=5 n=b5 v=0
506400 On ch=5 n=b5 v=61
506880 On ch=5 n=b5 v=0
506880 On ch=5 n=c6 v=62
507360 On ch=5 n=c6 v=0
507360 On ch=5 n=b5 v=52
507840 On ch=5 n=b5 v=0
508320 On ch=5 n=a4 v=50
508680 On ch=5 n=a4 v=0
508800 On ch=5 n=g4 v=46
509160 On ch=5 n=g4 v=0
509160 Meta TrkEnd
TrkEnd
MTrk
0 SeqSpec 43 00 01 00
0 Meta TrkName "No Name"
0 Par ch=6 c=0 v=0
0 Par ch=6 c=32 v=0
0 PrCh ch=6 p=0
0 Par ch=6 c=10 v=55
0 Par ch=6 c=91 v=100
0 Par ch=6 c=93 v=28
0 Par ch=6 c=64 v=0
0 Par ch=6 c=1 v=0
0 Pb ch=6 v=8192
0 Par ch=6 c=7 v=122
1920 Par ch=6 c=64 v=0
1920 On ch=6 n=g4 v=79
1920 On ch=6 n=g3 v=79
2880 On ch=6 n=g3 v=0
2880 On ch=6 n=g4 v=0
4320 On ch=6 n=b4 v=55
4800 On ch=6 n=b4 v=0
4800 On ch=6 n=a4 v=53
5280 On ch=6 n=a4 v=0
5280 On ch=6 n=g4 v=51
5760 On ch=6 n=g4 v=0
5760 On ch=6 n=f#4 v=48
6240 On ch=6 n=f#4 v=0
6240 On ch=6 n=d4 v=50
6720 On ch=6 n=d4 v=0
6720 On ch=6 n=g4 v=51
7200 On ch=6 n=g4 v=0
7200 On ch=6 n=f4 v=53
7680 On ch=6 n=f4 v=0
7680 On ch=6 n=e4 v=58
8160 On ch=6 n=e4 v=0
8160 On ch=6 n=f#4 v=53
8640 On ch=6 n=f#4 v=0
8640 On ch=6 n=g4 v=48
8880 On ch=6 n=g4 v=0
8880 On ch=6 n=g4 v=50
9120 On ch=6 n=g4 v=0
9120 On ch=6 n=b4 v=60
9360 On ch=6 n=b4 v=0
9360 On ch=6 n=d5 v=69
9600 On ch=6 n=d5 v=0
9600 On ch=6 n=g5 v=79
9600 On ch=6 n=g4 v=79
10560 On ch=6 n=g4 v=0
10560 On ch=6 n=g5 v=0
12000 On ch=6 n=b5 v=53
12447 On ch=6 n=b5 v=0
12480 On ch=6 n=a5 v=51
12927 On ch=6 n=a5 v=0
12960 On ch=6 n=g5 v=49
13407 On ch=6 n=g5 v=0
13440 On ch=6 n=f#5 v=46
13887 On ch=6 n=f#5 v=0
13920 On ch=6 n=d5 v=48
14367 On ch=6 n=d5 v=0
14400 On ch=6 n=g5 v=50
14847 On ch=6 n=g5 v=0
14880 On ch=6 n=f5 v=53
15327 On ch=6 n=f5 v=0
15360 On ch=6 n=e5 v=59
15600 On ch=6 n=e5 v=0
15600 On ch=6 n=g5 v=59
15840 On ch=6 n=g5 v=0
15840 On ch=6 n=f#5 v=58
16080 On ch=6 n=f#5 v=0
16080 On ch=6 n=a5 v=58
16320 On ch=6 n=a5 v=0
16320 On ch=6 n=g5 v=57
16800 On ch=6 n=g5 v=0
17760 On ch=6 n=c5 v=54
18240 On ch=6 n=c5 v=0
19680 On ch=6 n=b4 v=49
20160 On ch=6 n=b4 v=0
21120 On ch=6 n=c5 v=46
21600 On ch=6 n=c5 v=0
22080 On ch=6 n=d5 v=44
22560 On ch=6 n=d5 v=0
23040 On ch=6 n=g4 v=42
23520 On ch=6 n=g4 v=0
25440 On ch=6 n=c4 v=50
25920 On ch=6 n=c4 v=0
27360 On ch=6 n=c#4 v=57
27840 On ch=6 n=c#4 v=0
28800 On ch=6 n=d4 v=67
29236 On ch=6 n=d4 v=0
29280 On ch=6 n=d4 v=67
29716 On ch=6 n=d4 v=0
29760 On ch=6 n=d4 v=66
30196 On ch=6 n=d4 v=0
30240 On ch=6 n=d4 v=65
30676 On ch=6 n=d4 v=0
30720 On ch=6 n=d4 v=65
31156 On ch=6 n=d4 v=0
31200 On ch=6 n=d4 v=64
31636 On ch=6 n=d4 v=0
31680 On ch=6 n=d4 v=63
32116 On ch=6 n=d4 v=0
32160 On ch=6 n=d4 v=63
32596 On ch=6 n=d4 v=0
32640 On ch=6 n=d4 v=62
33076 On ch=6 n=d4 v=0
33120 On ch=6 n=d4 v=61
33556 On ch=6 n=d4 v=0
33600 On ch=6 n=d4 v=61
34036 On ch=6 n=d4 v=0
34080 On ch=6 n=d4 v=60
34516 On ch=6 n=d4 v=0
34560 On ch=6 n=d4 v=59
34996 On ch=6 n=d4 v=0
35040 On ch=6 n=d4 v=59
35476 On ch=6 n=d4 v=0
35520 On ch=6 n=d4 v=58
35956 On ch=6 n=d4 v=0
36000 On ch=6 n=d4 v=57
36436 On ch=6 n=d4 v=0
36480 On ch=6 n=d4 v=57
36916 On ch=6 n=d4 v=0
36960 On ch=6 n=d4 v=56
37396 On ch=6 n=d4 v=0
37440 On ch=6 n=d4 v=55
37876 On ch=6 n=d4 v=0
37920 On ch=6 n=d4 v=55
38356 On ch=6 n=d4 v=0
38400 On ch=6 n=d4 v=55
38880 On ch=6 n=d4 v=0
40320 On ch=6 n=f#5 v=37
40790 On ch=6 n=f#5 v=0
40800 On ch=6 n=g5 v=39
41270 On ch=6 n=g5 v=0
41280 On ch=6 n=f#5 v=41
41750 On ch=6 n=f#5 v=0
41760 On ch=6 n=c#5 v=43
42230 On ch=6 n=c#5 v=0
42240 On ch=6 n=d5 v=47
42710 On ch=6 n=d5 v=0
42720 On ch=6 n=c#5 v=43
43190 On ch=6 n=c#5 v=0
43200 On ch=6 n=a4 v=39
43680 On ch=6 n=a4 v=0
44160 On ch=6 n=g5 v=43
44607 On ch=6 n=g5 v=0
44640 On ch=6 n=f#5 v=46
45087 On ch=6 n=f#5 v=0
45120 On ch=6 n=e5 v=48
45567 On ch=6 n=e5 v=0
45600 On ch=6 n=d5 v=50
46047 On ch=6 n=d5 v=0
46080 On ch=6 n=c#5 v=53
46527 On ch=6 n=c#5 v=0
46560 On ch=6 n=d5 v=50
47007 On ch=6 n=d5 v=0
47040 On ch=6 n=d5 v=46
47520 On ch=6 n=d5 v=0
48000 On ch=6 n=g5 v=49
48960 On ch=6 n=g5 v=0
48960 On ch=6 n=f#5 v=40
49440 On ch=6 n=f#5 v=0
49920 On ch=6 n=g5 v=53
50880 On ch=6 n=f#5 v=46
50898 On ch=6 n=g5 v=0
51360 On ch=6 n=f#5 v=0
52320 On ch=6 n=g5 v=58
52800 On ch=6 n=g5 v=0
53280 On ch=6 n=g#5 v=53
53760 On ch=6 n=g#5 v=0
53760 On ch=6 n=a5 v=51
54240 On ch=6 n=a5 v=0
54240 On ch=6 n=a4 v=47
54720 On ch=6 n=a4 v=0
55680 On ch=6 n=f#5 v=53
56127 On ch=6 n=f#5 v=0
56160 On ch=6 n=g5 v=55
56607 On ch=6 n=g5 v=0
56640 On ch=6 n=f#5 v=58
57087 On ch=6 n=f#5 v=0
57120 On ch=6 n=c#5 v=60
57567 On ch=6 n=c#5 v=0
57600 On ch=6 n=d5 v=63
58047 On ch=6 n=d5 v=0
58080 On ch=6 n=a4 v=60
58527 On ch=6 n=a4 v=0
58560 On ch=6 n=a4 v=57
59040 On ch=6 n=a4 v=0
59520 On ch=6 n=g5 v=55
59990 On ch=6 n=g5 v=0
60000 On ch=6 n=f#5 v=58
60470 On ch=6 n=f#5 v=0
60480 On ch=6 n=e5 v=60
60950 On ch=6 n=e5 v=0
60960 On ch=6 n=d5 v=63
61430 On ch=6 n=d5 v=0
61440 On ch=6 n=c#5 v=67
61910 On ch=6 n=c#5 v=0
61920 On ch=6 n=d5 v=64
62390 On ch=6 n=d5 v=0
62400 On ch=6 n=d5 v=61
62880 On ch=6 n=d5 v=0
63360 On ch=6 n=g5 v=63
64320 On ch=6 n=g5 v=0
64320 On ch=6 n=f#5 v=54
64800 On ch=6 n=f#5 v=0
65280 On ch=6 n=g5 v=68
66240 On ch=6 n=g5 v=0
66240 On ch=6 n=f#5 v=58
66720 On ch=6 n=f#5 v=0
67680 On ch=6 n=g4 v=69
68160 On ch=6 n=g4 v=0
68160 On ch=6 n=a4 v=64
68640 On ch=6 n=a4 v=0
68640 On ch=6 n=a3 v=60
69120 On ch=6 n=a3 v=0
69120 On ch=6 n=d4 v=81
69600 On ch=6 n=d4 v=0
71040 On ch=6 n=e4 v=78
71476 On ch=6 n=e4 v=0
71520 On ch=6 n=e4 v=77
71956 On ch=6 n=e4 v=0
72000 On ch=6 n=e4 v=76
72436 On ch=6 n=e4 v=0
72480 On ch=6 n=e4 v=75
72916 On ch=6 n=e4 v=0
72960 On ch=6 n=d4 v=74
73440 On ch=6 n=d4 v=0
74880 On ch=6 n=c#4 v=71
75316 On ch=6 n=c#4 v=0
75360 On ch=6 n=c#4 v=70
75796 On ch=6 n=c#4 v=0
75840 On ch=6 n=c#4 v=69
76276 On ch=6 n=c#4 v=0
76320 On ch=6 n=c#4 v=68
76756 On ch=6 n=c#4 v=0
76800 On ch=6 n=d4 v=68
77280 On ch=6 n=d4 v=0
78720 On ch=6 n=d4 v=64
79133 On ch=6 n=d4 v=0
79200 On ch=6 n=d4 v=63
79613 On ch=6 n=d4 v=0
79680 On ch=6 n=d4 v=62
80093 On ch=6 n=d4 v=0
80160 On ch=6 n=d4 v=62
80573 On ch=6 n=d4 v=0
80640 On ch=6 n=g3 v=61
81600 On ch=6 n=g3 v=0
81600 On ch=6 n=a3 v=59
82080 On ch=6 n=a3 v=0
82080 On ch=6 n=a3 v=58
82560 On ch=6 n=a3 v=0
82560 On ch=6 n=d4 v=58
83040 On ch=6 n=d4 v=0
84640 On ch=6 n=g4 v=91
84800 On ch=6 n=g4 v=0
84800 On ch=6 n=a4 v=89
84960 On ch=6 n=a4 v=0
84960 On ch=6 n=b4 v=87
85120 On ch=6 n=b4 v=0
85120 On ch=6 n=c#5 v=85
85280 On ch=6 n=c#5 v=0
85280 On ch=6 n=d5 v=83
85440 On ch=6 n=d5 v=0
85440 On ch=6 n=e5 v=82
85600 On ch=6 n=e5 v=0
85600 On ch=6 n=f#5 v=80
85760 On ch=6 n=f#5 v=0
85760 On ch=6 n=g5 v=78
85920 On ch=6 n=g5 v=0
85920 On ch=6 n=a5 v=76
86080 On ch=6 n=a5 v=0
86080 On ch=6 n=b5 v=74
86240 On ch=6 n=b5 v=0
86240 On ch=6 n=c#6 v=72
86400 On ch=6 n=c#6 v=0
86400 On ch=6 n=d6 v=70
86592 On ch=6 n=d6 v=0
86880 On ch=6 n=g5 v=65
87072 On ch=6 n=g5 v=0
87360 On ch=6 n=a5 v=59
87552 On ch=6 n=a5 v=0
87840 On ch=6 n=a4 v=54
88032 On ch=6 n=a4 v=0
90400 On ch=6 n=g3 v=82
90560 On ch=6 n=g3 v=0
90560 On ch=6 n=a3 v=83
90720 On ch=6 n=a3 v=0
90720 On ch=6 n=b3 v=81
90880 On ch=6 n=b3 v=0
90880 On ch=6 n=c#4 v=79
91040 On ch=6 n=c#4 v=0
91040 On ch=6 n=d4 v=77
91200 On ch=6 n=d4 v=0
91200 On ch=6 n=e4 v=75
91360 On ch=6 n=e4 v=0
91360 On ch=6 n=f#4 v=72
91520 On ch=6 n=f#4 v=0
91520 On ch=6 n=g4 v=70
91680 On ch=6 n=g4 v=0
91680 On ch=6 n=a4 v=68
91840 On ch=6 n=a4 v=0
91840 On ch=6 n=b4 v=66
92000 On ch=6 n=b4 v=0
92000 On ch=6 n=c#5 v=63
92160 On ch=6 n=c#5 v=0
92160 On ch=6 n=d5 v=61
92352 On ch=6 n=d5 v=0
92640 On ch=6 n=g4 v=54
92832 On ch=6 n=g4 v=0
93120 On ch=6 n=a4 v=48
93312 On ch=6 n=a4 v=0
93600 On ch=6 n=a3 v=41
93792 On ch=6 n=a3 v=0
94080 On ch=6 n=d4 v=77
94516 On ch=6 n=d4 v=0
94560 On ch=6 n=d4 v=76
94996 On ch=6 n=d4 v=0
95040 On ch=6 n=d4 v=75
95476 On ch=6 n=d4 v=0
95520 On ch=6 n=d4 v=75
95956 On ch=6 n=d4 v=0
96000 On ch=6 n=d4 v=74
96436 On ch=6 n=d4 v=0
96480 On ch=6 n=d4 v=73
96916 On ch=6 n=d4 v=0
96960 On ch=6 n=d4 v=72
97396 On ch=6 n=d4 v=0
97440 On ch=6 n=d4 v=71
97876 On ch=6 n=d4 v=0
97920 On ch=6 n=d4 v=70
98356 On ch=6 n=d4 v=0
98400 On ch=6 n=d4 v=69
98836 On ch=6 n=d4 v=0
98880 On ch=6 n=d4 v=68
99316 On ch=6 n=d4 v=0
99360 On ch=6 n=d4 v=67
99796 On ch=6 n=d4 v=0
99840 On ch=6 n=d4 v=67
100032 On ch=6 n=d4 v=0
100320 On ch=6 n=d3 v=64
100320 On ch=6 n=d4 v=64
100512 On ch=6 n=d4 v=0
100512 On ch=6 n=d3 v=0
100800 On ch=6 n=d4 v=61
100800 On ch=6 n=d3 v=61
100992 On ch=6 n=d3 v=0
100992 On ch=6 n=d4 v=0
101760 Par ch=6 c=64 v=0
101760 On ch=6 n=g3 v=79
101760 On ch=6 n=g4 v=79
102720 On ch=6 n=g4 v=0
102720 On ch=6 n=g3 v=0
104160 On ch=6 n=b4 v=55
104640 On ch=6 n=b4 v=0
104640 On ch=6 n=a4 v=53
105120 On ch=6 n=a4 v=0
105120 On ch=6 n=g4 v=51
105600 On ch=6 n=g4 v=0
105600 On ch=6 n=f#4 v=48
106080 On ch=6 n=f#4 v=0
106080 On ch=6 n=d4 v=50
106560 On ch=6 n=d4 v=0
106560 On ch=6 n=g4 v=51
107040 On ch=6 n=g4 v=0
107040 On ch=6 n=f4 v=53
107520 On ch=6 n=f4 v=0
107520 On ch=6 n=e4 v=58
108000 On ch=6 n=e4 v=0
108000 On ch=6 n=f#4 v=53
108480 On ch=6 n=f#4 v=0
108480 On ch=6 n=g4 v=48
108720 On ch=6 n=g4 v=0
108720 On ch=6 n=g4 v=50
108960 On ch=6 n=g4 v=0
108960 On ch=6 n=b4 v=60
109200 On ch=6 n=b4 v=0
109200 On ch=6 n=d5 v=69
109440 On ch=6 n=d5 v=0
109440 On ch=6 n=g4 v=79
109440 On ch=6 n=g5 v=79
110400 On ch=6 n=g5 v=0
110400 On ch=6 n=g4 v=0
111840 On ch=6 n=b5 v=53
112287 On ch=6 n=b5 v=0
112320 On ch=6 n=a5 v=51
112767 On ch=6 n=a5 v=0
112800 On ch=6 n=g5 v=49
113247 On ch=6 n=g5 v=0
113280 On ch=6 n=f#5 v=46
113727 On ch=6 n=f#5 v=0
113760 On ch=6 n=d5 v=48
114207 On ch=6 n=d5 v=0
114240 On ch=6 n=g5 v=50
114687 On ch=6 n=g5 v=0
114720 On ch=6 n=f5 v=53
115167 On ch=6 n=f5 v=0
115200 On ch=6 n=e5 v=59
115440 On ch=6 n=e5 v=0
115440 On ch=6 n=g5 v=59
115680 On ch=6 n=g5 v=0
115680 On ch=6 n=f#5 v=58
115920 On ch=6 n=f#5 v=0
115920 On ch=6 n=a5 v=58
116160 On ch=6 n=a5 v=0
116160 On ch=6 n=g5 v=57
116640 On ch=6 n=g5 v=0
117600 On ch=6 n=c5 v=54
118080 On ch=6 n=c5 v=0
119520 On ch=6 n=b4 v=49
120000 On ch=6 n=b4 v=0
120960 On ch=6 n=c5 v=46
121440 On ch=6 n=c5 v=0
121920 On ch=6 n=d5 v=44
122400 On ch=6 n=d5 v=0
122880 On ch=6 n=g4 v=42
123360 On ch=6 n=g4 v=0
125280 On ch=6 n=c4 v=50
125760 On ch=6 n=c4 v=0
127200 On ch=6 n=c#4 v=57
127680 On ch=6 n=c#4 v=0
128640 On ch=6 n=d4 v=67
129076 On ch=6 n=d4 v=0
129120 On ch=6 n=d4 v=67
129556 On ch=6 n=d4 v=0
129600 On ch=6 n=d4 v=66
130036 On ch=6 n=d4 v=0
130080 On ch=6 n=d4 v=65
130516 On ch=6 n=d4 v=0
130560 On ch=6 n=d4 v=65
130996 On ch=6 n=d4 v=0
131040 On ch=6 n=d4 v=64
131476 On ch=6 n=d4 v=0
131520 On ch=6 n=d4 v=63
131956 On ch=6 n=d4 v=0
132000 On ch=6 n=d4 v=63
132436 On ch=6 n=d4 v=0
132480 On ch=6 n=d4 v=62
132916 On ch=6 n=d4 v=0
132960 On ch=6 n=d4 v=61
133396 On ch=6 n=d4 v=0
133440 On ch=6 n=d4 v=61
133876 On ch=6 n=d4 v=0
133920 On ch=6 n=d4 v=60
134356 On ch=6 n=d4 v=0
134400 On ch=6 n=d4 v=59
134836 On ch=6 n=d4 v=0
134880 On ch=6 n=d4 v=59
135316 On ch=6 n=d4 v=0
135360 On ch=6 n=d4 v=58
135796 On ch=6 n=d4 v=0
135840 On ch=6 n=d4 v=57
136276 On ch=6 n=d4 v=0
136320 On ch=6 n=d4 v=57
136756 On ch=6 n=d4 v=0
136800 On ch=6 n=d4 v=56
137236 On ch=6 n=d4 v=0
137280 On ch=6 n=d4 v=55
137716 On ch=6 n=d4 v=0
137760 On ch=6 n=d4 v=55
138196 On ch=6 n=d4 v=0
138240 On ch=6 n=d4 v=55
138720 On ch=6 n=d4 v=0
140160 On ch=6 n=f#5 v=37
140630 On ch=6 n=f#5 v=0
140640 On ch=6 n=g5 v=39
141110 On ch=6 n=g5 v=0
141120 On ch=6 n=f#5 v=41
141590 On ch=6 n=f#5 v=0
141600 On ch=6 n=c#5 v=43
142070 On ch=6 n=c#5 v=0
142080 On ch=6 n=d5 v=47
142550 On ch=6 n=d5 v=0
142560 On ch=6 n=c#5 v=43
143030 On ch=6 n=c#5 v=0
143040 On ch=6 n=a4 v=39
143520 On ch=6 n=a4 v=0
144000 On ch=6 n=g5 v=43
144447 On ch=6 n=g5 v=0
144480 On ch=6 n=f#5 v=46
144927 On ch=6 n=f#5 v=0
144960 On ch=6 n=e5 v=48
145407 On ch=6 n=e5 v=0
145440 On ch=6 n=d5 v=50
145887 On ch=6 n=d5 v=0
145920 On ch=6 n=c#5 v=53
146367 On ch=6 n=c#5 v=0
146400 On ch=6 n=d5 v=50
146847 On ch=6 n=d5 v=0
146880 On ch=6 n=d5 v=46
147360 On ch=6 n=d5 v=0
147840 On ch=6 n=g5 v=49
148800 On ch=6 n=g5 v=0
148800 On ch=6 n=f#5 v=40
149280 On ch=6 n=f#5 v=0
149760 On ch=6 n=g5 v=53
150720 On ch=6 n=f#5 v=46
150738 On ch=6 n=g5 v=0
151200 On ch=6 n=f#5 v=0
152160 On ch=6 n=g5 v=58
152640 On ch=6 n=g5 v=0
153120 On ch=6 n=g#5 v=53
153600 On ch=6 n=g#5 v=0
153600 On ch=6 n=a5 v=51
154080 On ch=6 n=a5 v=0
154080 On ch=6 n=a4 v=47
154560 On ch=6 n=a4 v=0
155520 On ch=6 n=f#5 v=53
155967 On ch=6 n=f#5 v=0
156000 On ch=6 n=g5 v=55
156447 On ch=6 n=g5 v=0
156480 On ch=6 n=f#5 v=58
156927 On ch=6 n=f#5 v=0
156960 On ch=6 n=c#5 v=60
157407 On ch=6 n=c#5 v=0
157440 On ch=6 n=d5 v=63
157887 On ch=6 n=d5 v=0
157920 On ch=6 n=a4 v=60
158367 On ch=6 n=a4 v=0
158400 On ch=6 n=a4 v=57
158880 On ch=6 n=a4 v=0
159360 On ch=6 n=g5 v=55
159830 On ch=6 n=g5 v=0
159840 On ch=6 n=f#5 v=58
160310 On ch=6 n=f#5 v=0
160320 On ch=6 n=e5 v=60
160790 On ch=6 n=e5 v=0
160800 On ch=6 n=d5 v=63
161270 On ch=6 n=d5 v=0
161280 On ch=6 n=c#5 v=67
161750 On ch=6 n=c#5 v=0
161760 On ch=6 n=d5 v=64
162230 On ch=6 n=d5 v=0
162240 On ch=6 n=d5 v=61
162720 On ch=6 n=d5 v=0
163200 On ch=6 n=g5 v=63
164160 On ch=6 n=g5 v=0
164160 On ch=6 n=f#5 v=54
164640 On ch=6 n=f#5 v=0
165120 On ch=6 n=g5 v=68
166080 On ch=6 n=g5 v=0
166080 On ch=6 n=f#5 v=58
166560 On ch=6 n=f#5 v=0
167520 On ch=6 n=g4 v=69
168000 On ch=6 n=g4 v=0
168000 On ch=6 n=a4 v=64
168480 On ch=6 n=a4 v=0
168480 On ch=6 n=a3 v=60
168960 On ch=6 n=a3 v=0
168960 On ch=6 n=d4 v=81
169440 On ch=6 n=d4 v=0
170880 On ch=6 n=e4 v=78
171316 On ch=6 n=e4 v=0
171360 On ch=6 n=e4 v=77
171796 On ch=6 n=e4 v=0
171840 On ch=6 n=e4 v=76
172276 On ch=6 n=e4 v=0
172320 On ch=6 n=e4 v=75
172756 On ch=6 n=e4 v=0
172800 On ch=6 n=d4 v=74
173280 On ch=6 n=d4 v=0
174720 On ch=6 n=c#4 v=71
175156 On ch=6 n=c#4 v=0
175200 On ch=6 n=c#4 v=70
175636 On ch=6 n=c#4 v=0
175680 On ch=6 n=c#4 v=69
176116 On ch=6 n=c#4 v=0
176160 On ch=6 n=c#4 v=68
176596 On ch=6 n=c#4 v=0
176640 On ch=6 n=d4 v=68
177120 On ch=6 n=d4 v=0
178560 On ch=6 n=d4 v=64
178973 On ch=6 n=d4 v=0
179040 On ch=6 n=d4 v=63
179453 On ch=6 n=d4 v=0
179520 On ch=6 n=d4 v=62
179933 On ch=6 n=d4 v=0
180000 On ch=6 n=d4 v=62
180413 On ch=6 n=d4 v=0
180480 On ch=6 n=g3 v=61
181440 On ch=6 n=g3 v=0
181440 On ch=6 n=a3 v=59
181920 On ch=6 n=a3 v=0
181920 On ch=6 n=a3 v=58
182400 On ch=6 n=a3 v=0
182400 On ch=6 n=d4 v=58
182880 On ch=6 n=d4 v=0
184480 On ch=6 n=g4 v=91
184640 On ch=6 n=g4 v=0
184640 On ch=6 n=a4 v=89
184800 On ch=6 n=a4 v=0
184800 On ch=6 n=b4 v=87
184960 On ch=6 n=b4 v=0
184960 On ch=6 n=c#5 v=85
185120 On ch=6 n=c#5 v=0
185120 On ch=6 n=d5 v=83
185280 On ch=6 n=d5 v=0
185280 On ch=6 n=e5 v=82
185440 On ch=6 n=e5 v=0
185440 On ch=6 n=f#5 v=80
185600 On ch=6 n=f#5 v=0
185600 On ch=6 n=g5 v=78
185760 On ch=6 n=g5 v=0
185760 On ch=6 n=a5 v=76
185920 On ch=6 n=a5 v=0
185920 On ch=6 n=b5 v=74
186080 On ch=6 n=b5 v=0
186080 On ch=6 n=c#6 v=72
186240 On ch=6 n=c#6 v=0
186240 On ch=6 n=d6 v=70
186432 On ch=6 n=d6 v=0
186720 On ch=6 n=g5 v=65
186912 On ch=6 n=g5 v=0
187200 On ch=6 n=a5 v=59
187392 On ch=6 n=a5 v=0
187680 On ch=6 n=a4 v=54
187872 On ch=6 n=a4 v=0
190240 On ch=6 n=g3 v=82
190400 On ch=6 n=g3 v=0
190400 On ch=6 n=a3 v=83
190560 On ch=6 n=a3 v=0
190560 On ch=6 n=b3 v=81
190720 On ch=6 n=b3 v=0
190720 On ch=6 n=c#4 v=79
190880 On ch=6 n=c#4 v=0
190880 On ch=6 n=d4 v=77
191040 On ch=6 n=d4 v=0
191040 On ch=6 n=e4 v=75
191200 On ch=6 n=e4 v=0
191200 On ch=6 n=f#4 v=72
191360 On ch=6 n=f#4 v=0
191360 On ch=6 n=g4 v=70
191520 On ch=6 n=g4 v=0
191520 On ch=6 n=a4 v=68
191680 On ch=6 n=a4 v=0
191680 On ch=6 n=b4 v=66
191840 On ch=6 n=b4 v=0
191840 On ch=6 n=c#5 v=63
192000 On ch=6 n=c#5 v=0
192000 On ch=6 n=d5 v=61
192192 On ch=6 n=d5 v=0
192480 On ch=6 n=g4 v=54
192672 On ch=6 n=g4 v=0
192960 On ch=6 n=a4 v=48
193152 On ch=6 n=a4 v=0
193440 On ch=6 n=a3 v=41
193632 On ch=6 n=a3 v=0
193920 On ch=6 n=d4 v=77
194356 On ch=6 n=d4 v=0
194400 On ch=6 n=d4 v=76
194836 On ch=6 n=d4 v=0
194880 On ch=6 n=d4 v=75
195316 On ch=6 n=d4 v=0
195360 On ch=6 n=d4 v=75
195796 On ch=6 n=d4 v=0
195840 On ch=6 n=d4 v=74
196276 On ch=6 n=d4 v=0
196320 On ch=6 n=d4 v=73
196756 On ch=6 n=d4 v=0
196800 On ch=6 n=d4 v=72
197236 On ch=6 n=d4 v=0
197280 On ch=6 n=d4 v=71
197716 On ch=6 n=d4 v=0
197760 On ch=6 n=d4 v=70
198196 On ch=6 n=d4 v=0
198240 On ch=6 n=d4 v=69
198676 On ch=6 n=d4 v=0
198720 On ch=6 n=d4 v=68
199156 On ch=6 n=d4 v=0
199200 On ch=6 n=d4 v=67
199636 On ch=6 n=d4 v=0
199680 On ch=6 n=d4 v=67
199872 On ch=6 n=d4 v=0
200160 On ch=6 n=d4 v=64
200160 On ch=6 n=d3 v=64
200352 On ch=6 n=d3 v=0
200352 On ch=6 n=d4 v=0
200640 On ch=6 n=d3 v=61
200640 On ch=6 n=d4 v=61
200832 On ch=6 n=d4 v=0
200832 On ch=6 n=d3 v=0
201600 Par ch=6 c=64 v=0
201600 On ch=6 n=d4 v=84
201600 On ch=6 n=d5 v=84
202560 On ch=6 n=d5 v=0
202560 On ch=6 n=d4 v=0
204000 On ch=6 n=d5 v=48
204447 On ch=6 n=d5 v=0
204480 On ch=6 n=c5 v=49
204927 On ch=6 n=c5 v=0
204960 On ch=6 n=g#4 v=51
205407 On ch=6 n=g#4 v=0
205440 On ch=6 n=a4 v=52
205887 On ch=6 n=a4 v=0
205920 On ch=6 n=b4 v=53
206367 On ch=6 n=b4 v=0
206400 On ch=6 n=c5 v=54
206847 On ch=6 n=c5 v=0
206880 On ch=6 n=b4 v=53
207327 On ch=6 n=b4 v=0
207360 On ch=6 n=a4 v=86
207520 On ch=6 n=c5 v=84
207680 On ch=6 n=c5 v=0
207680 On ch=6 n=e5 v=82
207840 On ch=6 n=e5 v=0
207840 On ch=6 n=a5 v=80
208000 On ch=6 n=a5 v=0
208000 On ch=6 n=e5 v=78
208160 On ch=6 n=e5 v=0
208160 On ch=6 n=c5 v=76
208320 On ch=6 n=c5 v=0
208320 On ch=6 n=a4 v=0
208320 On ch=6 n=a4 v=74
208800 On ch=6 n=a4 v=0
209760 On ch=6 n=a5 v=44
210207 On ch=6 n=a5 v=0
210240 On ch=6 n=g5 v=47
210687 On ch=6 n=g5 v=0
210720 On ch=6 n=d#5 v=49
211167 On ch=6 n=d#5 v=0
211200 On ch=6 n=e5 v=51
211647 On ch=6 n=e5 v=0
211680 On ch=6 n=e5 v=49
212127 On ch=6 n=e5 v=0
212160 On ch=6 n=c5 v=46
212607 On ch=6 n=c5 v=0
212640 On ch=6 n=c5 v=44
213087 On ch=6 n=c5 v=0
213120 On ch=6 n=b4 v=44
213360 On ch=6 n=b5 v=44
213516 On ch=6 n=b5 v=0
213600 On ch=6 n=b5 v=44
213756 On ch=6 n=b5 v=0
213840 On ch=6 n=b5 v=45
213996 On ch=6 n=b5 v=0
214080 On ch=6 n=b5 v=45
214236 On ch=6 n=b5 v=0
214320 On ch=6 n=b5 v=45
214476 On ch=6 n=b5 v=0
214560 On ch=6 n=b5 v=46
214716 On ch=6 n=b5 v=0
214800 On ch=6 n=b5 v=46
214956 On ch=6 n=b5 v=0
215040 On ch=6 n=b5 v=47
215196 On ch=6 n=b5 v=0
215280 On ch=6 n=b5 v=47
215436 On ch=6 n=b5 v=0
215520 On ch=6 n=b5 v=47
215676 On ch=6 n=b5 v=0
215760 On ch=6 n=b5 v=48
215916 On ch=6 n=b5 v=0
216000 On ch=6 n=b5 v=51
216156 On ch=6 n=b5 v=0
216240 On ch=6 n=b5 v=49
216396 On ch=6 n=b5 v=0
216480 On ch=6 n=b5 v=47
216636 On ch=6 n=b5 v=0
216720 On ch=6 n=b5 v=46
216876 On ch=6 n=b5 v=0
216879 On ch=6 n=b4 v=0
216960 On ch=6 n=b4 v=46
217200 On ch=6 n=b5 v=47
217356 On ch=6 n=b5 v=0
217440 On ch=6 n=b5 v=48
217596 On ch=6 n=b5 v=0
217680 On ch=6 n=b5 v=48
217836 On ch=6 n=b5 v=0
217920 On ch=6 n=b5 v=49
218076 On ch=6 n=b5 v=0
218160 On ch=6 n=b5 v=50
218316 On ch=6 n=b5 v=0
218400 On ch=6 n=b5 v=51
218556 On ch=6 n=b5 v=0
218640 On ch=6 n=b5 v=51
218796 On ch=6 n=b5 v=0
218880 On ch=6 n=b5 v=52
219036 On ch=6 n=b5 v=0
219120 On ch=6 n=b5 v=53
219276 On ch=6 n=b5 v=0
219360 On ch=6 n=b5 v=53
219516 On ch=6 n=b5 v=0
219600 On ch=6 n=b5 v=54
219756 On ch=6 n=b5 v=0
219840 On ch=6 n=b5 v=55
219996 On ch=6 n=b5 v=0
220080 On ch=6 n=b5 v=54
220236 On ch=6 n=b5 v=0
220320 On ch=6 n=b5 v=55
220476 On ch=6 n=b5 v=0
220560 On ch=6 n=b5 v=52
220716 On ch=6 n=b5 v=0
220719 On ch=6 n=b4 v=0
220800 On ch=6 n=b5 v=53
221040 On ch=6 n=b5 v=0
221040 On ch=6 n=a#5 v=54
221280 On ch=6 n=a#5 v=0
221280 On ch=6 n=b5 v=54
221520 On ch=6 n=b5 v=0
221520 On ch=6 n=a#5 v=55
221760 On ch=6 n=a#5 v=0
221760 On ch=6 n=b5 v=56
222000 On ch=6 n=b5 v=0
222000 On ch=6 n=a5 v=57
222240 On ch=6 n=a5 v=0
222240 On ch=6 n=g5 v=58
222480 On ch=6 n=g5 v=0
222480 On ch=6 n=f#5 v=59
222720 On ch=6 n=f#5 v=0
222720 On ch=6 n=e5 v=60
222960 On ch=6 n=e5 v=0
222960 On ch=6 n=d#5 v=62
223200 On ch=6 n=d#5 v=0
223200 On ch=6 n=e5 v=63
223440 On ch=6 n=e5 v=0
223440 On ch=6 n=d#5 v=64
223680 On ch=6 n=d#5 v=0
223680 On ch=6 n=e5 v=66
223920 On ch=6 n=e5 v=0
223920 On ch=6 n=d5 v=67
224160 On ch=6 n=d5 v=0
224160 On ch=6 n=c5 v=69
224400 On ch=6 n=c5 v=0
224400 On ch=6 n=b4 v=70
224640 On ch=6 n=b4 v=0
224640 On ch=6 n=a4 v=66
224880 On ch=6 n=a4 v=0
224880 On ch=6 n=g#4 v=68
225120 On ch=6 n=g#4 v=0
225120 On ch=6 n=a4 v=70
225360 On ch=6 n=a4 v=0
225360 On ch=6 n=g#4 v=71
225600 On ch=6 n=g#4 v=0
225600 On ch=6 n=a4 v=73
225840 On ch=6 n=a4 v=0
225840 On ch=6 n=g4 v=75
226080 On ch=6 n=g4 v=0
226080 On ch=6 n=f#4 v=77
226320 On ch=6 n=f#4 v=0
226320 On ch=6 n=e4 v=78
226560 On ch=6 n=e4 v=0
226560 On ch=6 n=d4 v=86
228480 On ch=6 n=d4 v=0
228480 On ch=6 n=g4 v=79
228480 On ch=6 n=g3 v=79
229440 On ch=6 n=g3 v=0
229440 On ch=6 n=g4 v=0
230880 On ch=6 n=b4 v=55
231360 On ch=6 n=b4 v=0
231360 On ch=6 n=a4 v=53
231840 On ch=6 n=a4 v=0
231840 On ch=6 n=g4 v=51
232320 On ch=6 n=g4 v=0
232320 On ch=6 n=f#4 v=48
232800 On ch=6 n=f#4 v=0
232800 On ch=6 n=d4 v=50
233280 On ch=6 n=d4 v=0
233280 On ch=6 n=g4 v=51
233760 On ch=6 n=g4 v=0
233760 On ch=6 n=f4 v=53
234240 On ch=6 n=f4 v=0
234240 On ch=6 n=e4 v=58
234720 On ch=6 n=e4 v=0
234720 On ch=6 n=f#4 v=53
235200 On ch=6 n=f#4 v=0
235200 On ch=6 n=g4 v=48
235440 On ch=6 n=g4 v=0
235440 On ch=6 n=g4 v=50
235680 On ch=6 n=g4 v=0
235680 On ch=6 n=b4 v=60
235920 On ch=6 n=b4 v=0
235920 On ch=6 n=d5 v=69
236160 On ch=6 n=d5 v=0
236160 On ch=6 n=g4 v=79
236160 On ch=6 n=g5 v=79
237120 On ch=6 n=g5 v=0
237120 On ch=6 n=g4 v=0
238560 On ch=6 n=b5 v=53
239007 On ch=6 n=b5 v=0
239040 On ch=6 n=a5 v=51
239487 On ch=6 n=a5 v=0
239520 On ch=6 n=g5 v=49
239967 On ch=6 n=g5 v=0
240000 On ch=6 n=f#5 v=46
240447 On ch=6 n=f#5 v=0
240480 On ch=6 n=d5 v=48
240927 On ch=6 n=d5 v=0
240960 On ch=6 n=g5 v=50
241407 On ch=6 n=g5 v=0
241440 On ch=6 n=f5 v=53
241887 On ch=6 n=f5 v=0
241920 On ch=6 n=e5 v=69
242400 On ch=6 n=e5 v=0
242400 On ch=6 n=f5 v=64
242880 On ch=6 n=f5 v=0
242880 On ch=6 n=g5 v=60
243360 On ch=6 n=g5 v=0
243360 On ch=6 n=g4 v=59
243840 On ch=6 n=g4 v=0
245760 On ch=6 n=d4 v=68
246196 On ch=6 n=d4 v=0
246240 On ch=6 n=d4 v=67
246676 On ch=6 n=d4 v=0
246720 On ch=6 n=d4 v=67
247156 On ch=6 n=d4 v=0
247200 On ch=6 n=d4 v=67
247636 On ch=6 n=d4 v=0
247680 On ch=6 n=c4 v=66
248160 On ch=6 n=c4 v=0
249600 On ch=6 n=b3 v=64
250036 On ch=6 n=b3 v=0
250080 On ch=6 n=b3 v=64
250516 On ch=6 n=b3 v=0
250560 On ch=6 n=b3 v=64
250996 On ch=6 n=b3 v=0
251040 On ch=6 n=b3 v=63
251476 On ch=6 n=b3 v=0
251520 On ch=6 n=c4 v=63
252000 On ch=6 n=c4 v=0
253440 On ch=6 n=b3 v=61
253853 On ch=6 n=b3 v=0
253920 On ch=6 n=b3 v=61
254333 On ch=6 n=b3 v=0
254400 On ch=6 n=b3 v=60
254813 On ch=6 n=b3 v=0
254880 On ch=6 n=b3 v=60
255293 On ch=6 n=b3 v=0
255360 On ch=6 n=c4 v=64
255773 On ch=6 n=c4 v=0
255840 On ch=6 n=c4 v=68
256253 On ch=6 n=c4 v=0
256320 On ch=6 n=c#4 v=72
256733 On ch=6 n=c#4 v=0
256800 On ch=6 n=c#4 v=76
257213 On ch=6 n=c#4 v=0
257280 On ch=6 n=d4 v=81
257716 On ch=6 n=d4 v=0
257760 On ch=6 n=d4 v=81
258196 On ch=6 n=d4 v=0
258240 On ch=6 n=d4 v=80
258676 On ch=6 n=d4 v=0
258720 On ch=6 n=d4 v=79
259156 On ch=6 n=d4 v=0
259200 On ch=6 n=d4 v=79
259636 On ch=6 n=d4 v=0
259680 On ch=6 n=d4 v=78
260116 On ch=6 n=d4 v=0
260160 On ch=6 n=d4 v=77
260596 On ch=6 n=d4 v=0
260640 On ch=6 n=d4 v=77
261076 On ch=6 n=d4 v=0
261120 On ch=6 n=d4 v=76
261556 On ch=6 n=d4 v=0
261600 On ch=6 n=d4 v=75
262036 On ch=6 n=d4 v=0
262080 On ch=6 n=d4 v=75
262516 On ch=6 n=d4 v=0
262560 On ch=6 n=d4 v=74
262996 On ch=6 n=d4 v=0
263040 On ch=6 n=d4 v=73
263476 On ch=6 n=d4 v=0
263520 On ch=6 n=d4 v=73
263956 On ch=6 n=d4 v=0
264000 On ch=6 n=d4 v=72
264436 On ch=6 n=d4 v=0
264480 On ch=6 n=d4 v=71
264916 On ch=6 n=d4 v=0
264960 On ch=6 n=d4 v=71
265396 On ch=6 n=d4 v=0
265440 On ch=6 n=d4 v=70
265876 On ch=6 n=d4 v=0
265920 On ch=6 n=d4 v=69
266356 On ch=6 n=d4 v=0
266400 On ch=6 n=d4 v=69
266836 On ch=6 n=d4 v=0
266880 On ch=6 n=d4 v=66
267360 On ch=6 n=d4 v=0
268800 On ch=6 n=b4 v=38
269270 On ch=6 n=b4 v=0
269280 On ch=6 n=c5 v=40
269750 On ch=6 n=c5 v=0
269760 On ch=6 n=b4 v=41
270230 On ch=6 n=b4 v=0
270240 On ch=6 n=f#4 v=43
270710 On ch=6 n=f#4 v=0
270720 On ch=6 n=g4 v=46
271190 On ch=6 n=g4 v=0
271200 On ch=6 n=f#4 v=42
271670 On ch=6 n=f#4 v=0
271680 On ch=6 n=d4 v=38
272160 On ch=6 n=d4 v=0
272640 On ch=6 n=c5 v=43
273087 On ch=6 n=c5 v=0
273120 On ch=6 n=b4 v=46
273567 On ch=6 n=b4 v=0
273600 On ch=6 n=a4 v=48
274047 On ch=6 n=a4 v=0
274080 On ch=6 n=g4 v=50
274527 On ch=6 n=g4 v=0
274560 On ch=6 n=f#4 v=53
275007 On ch=6 n=f#4 v=0
275040 On ch=6 n=g4 v=50
275487 On ch=6 n=g4 v=0
275520 On ch=6 n=g4 v=46
276000 On ch=6 n=g4 v=0
276480 On ch=6 n=c5 v=49
277440 On ch=6 n=c5 v=0
277440 On ch=6 n=b4 v=40
277920 On ch=6 n=b4 v=0
278400 On ch=6 n=c5 v=53
279360 On ch=6 n=b4 v=46
279378 On ch=6 n=c5 v=0
279840 On ch=6 n=b4 v=0
280800 On ch=6 n=c5 v=58
281280 On ch=6 n=c5 v=0
281760 On ch=6 n=c#5 v=53
282240 On ch=6 n=c#5 v=0
282240 On ch=6 n=d5 v=51
282720 On ch=6 n=d5 v=0
284160 On ch=6 n=b5 v=53
284607 On ch=6 n=b5 v=0
284640 On ch=6 n=c6 v=55
285087 On ch=6 n=c6 v=0
285120 On ch=6 n=b5 v=58
285567 On ch=6 n=b5 v=0
285600 On ch=6 n=f#5 v=60
286047 On ch=6 n=f#5 v=0
286080 On ch=6 n=g5 v=63
286527 On ch=6 n=g5 v=0
286560 On ch=6 n=f#5 v=60
287017 On ch=6 n=f#5 v=0
287040 On ch=6 n=d5 v=57
287520 On ch=6 n=d5 v=0
288000 On ch=6 n=c6 v=55
288470 On ch=6 n=c6 v=0
288480 On ch=6 n=b5 v=58
288950 On ch=6 n=b5 v=0
288960 On ch=6 n=a5 v=60
289430 On ch=6 n=a5 v=0
289440 On ch=6 n=g5 v=63
289910 On ch=6 n=g5 v=0
289920 On ch=6 n=f#5 v=67
290390 On ch=6 n=f#5 v=0
290400 On ch=6 n=g5 v=64
290870 On ch=6 n=g5 v=0
290880 On ch=6 n=g5 v=61
291360 On ch=6 n=g5 v=0
291840 On ch=6 n=c6 v=63
292800 On ch=6 n=c6 v=0
292800 On ch=6 n=b5 v=54
293280 On ch=6 n=b5 v=0
293760 On ch=6 n=c6 v=68
294720 On ch=6 n=c6 v=0
294720 On ch=6 n=b5 v=58
295200 On ch=6 n=b5 v=0
296160 On ch=6 n=c6 v=69
296640 On ch=6 n=c6 v=0
296640 On ch=6 n=d6 v=64
297120 On ch=6 n=d6 v=0
297120 On ch=6 n=d5 v=60
297600 On ch=6 n=d5 v=0
297600 On ch=6 n=g5 v=81
298080 On ch=6 n=g5 v=0
299520 On ch=6 n=a4 v=78
299956 On ch=6 n=a4 v=0
300000 On ch=6 n=a4 v=77
300436 On ch=6 n=a4 v=0
300480 On ch=6 n=a4 v=76
300916 On ch=6 n=a4 v=0
300960 On ch=6 n=a4 v=75
301396 On ch=6 n=a4 v=0
301440 On ch=6 n=g4 v=74
301920 On ch=6 n=g4 v=0
303360 On ch=6 n=f#4 v=71
303796 On ch=6 n=f#4 v=0
303840 On ch=6 n=f#4 v=70
304276 On ch=6 n=f#4 v=0
304320 On ch=6 n=f#4 v=69
304756 On ch=6 n=f#4 v=0
304800 On ch=6 n=f#4 v=68
305236 On ch=6 n=f#4 v=0
305280 On ch=6 n=g4 v=68
305760 On ch=6 n=g4 v=0
307200 On ch=6 n=b3 v=64
307613 On ch=6 n=b3 v=0
307680 On ch=6 n=b3 v=63
308093 On ch=6 n=b3 v=0
308160 On ch=6 n=b3 v=62
308573 On ch=6 n=b3 v=0
308640 On ch=6 n=b3 v=62
309053 On ch=6 n=b3 v=0
309120 On ch=6 n=c4 v=64
309533 On ch=6 n=c4 v=0
309600 On ch=6 n=c4 v=63
310013 On ch=6 n=c4 v=0
310080 On ch=6 n=d4 v=62
310493 On ch=6 n=d4 v=0
310560 On ch=6 n=d4 v=62
310973 On ch=6 n=d4 v=0
311040 On ch=6 n=g4 v=58
311520 On ch=6 n=g4 v=0
313120 On ch=6 n=c5 v=91
313280 On ch=6 n=c5 v=0
313280 On ch=6 n=d5 v=89
313440 On ch=6 n=d5 v=0
313440 On ch=6 n=e5 v=87
313600 On ch=6 n=e5 v=0
313600 On ch=6 n=f#5 v=85
313760 On ch=6 n=f#5 v=0
313760 On ch=6 n=g5 v=83
313920 On ch=6 n=g5 v=0
313920 On ch=6 n=a5 v=82
314080 On ch=6 n=a5 v=0
314080 On ch=6 n=b5 v=80
314240 On ch=6 n=b5 v=0
314240 On ch=6 n=c6 v=78
314400 On ch=6 n=c6 v=0
314400 On ch=6 n=d6 v=76
314560 On ch=6 n=d6 v=0
314560 On ch=6 n=e6 v=74
314720 On ch=6 n=e6 v=0
314720 On ch=6 n=f#6 v=72
314880 On ch=6 n=f#6 v=0
314880 On ch=6 n=g6 v=70
315072 On ch=6 n=g6 v=0
315360 On ch=6 n=c6 v=65
315552 On ch=6 n=c6 v=0
315840 On ch=6 n=d6 v=59
316032 On ch=6 n=d6 v=0
316320 On ch=6 n=d5 v=54
316512 On ch=6 n=d5 v=0
318880 On ch=6 n=c4 v=82
319040 On ch=6 n=c4 v=0
319040 On ch=6 n=d4 v=83
319200 On ch=6 n=d4 v=0
319200 On ch=6 n=e4 v=81
319360 On ch=6 n=e4 v=0
319360 On ch=6 n=f#4 v=79
319520 On ch=6 n=f#4 v=0
319520 On ch=6 n=g4 v=77
319680 On ch=6 n=g4 v=0
319680 On ch=6 n=a4 v=75
319840 On ch=6 n=a4 v=0
319840 On ch=6 n=b4 v=72
320000 On ch=6 n=b4 v=0
320000 On ch=6 n=c5 v=70
320160 On ch=6 n=c5 v=0
320160 On ch=6 n=d5 v=68
320320 On ch=6 n=d5 v=0
320320 On ch=6 n=e5 v=66
320480 On ch=6 n=e5 v=0
320480 On ch=6 n=f#5 v=63
320640 On ch=6 n=f#5 v=0
320640 On ch=6 n=g5 v=61
320832 On ch=6 n=g5 v=0
321120 On ch=6 n=c5 v=54
321312 On ch=6 n=c5 v=0
321600 On ch=6 n=d5 v=48
321792 On ch=6 n=d5 v=0
322080 On ch=6 n=d4 v=41
322272 On ch=6 n=d4 v=0
322560 On ch=6 n=g3 v=73
322996 On ch=6 n=g3 v=0
323040 On ch=6 n=g3 v=72
323476 On ch=6 n=g3 v=0
323520 On ch=6 n=g3 v=71
323956 On ch=6 n=g3 v=0
324000 On ch=6 n=g3 v=70
324436 On ch=6 n=g3 v=0
324480 On ch=6 n=g3 v=69
324916 On ch=6 n=g3 v=0
324960 On ch=6 n=g3 v=68
325396 On ch=6 n=g3 v=0
325440 On ch=6 n=g3 v=67
325876 On ch=6 n=g3 v=0
325920 On ch=6 n=g3 v=66
326356 On ch=6 n=g3 v=0
326400 On ch=6 n=g3 v=69
326836 On ch=6 n=g3 v=0
326880 On ch=6 n=g3 v=69
327316 On ch=6 n=g3 v=0
327360 On ch=6 n=g3 v=68
327796 On ch=6 n=g3 v=0
327840 On ch=6 n=g3 v=68
328276 On ch=6 n=g3 v=0
328320 On ch=6 n=g3 v=67
328756 On ch=6 n=g3 v=0
328800 On ch=6 n=g3 v=67
329236 On ch=6 n=g3 v=0
329280 On ch=6 n=g3 v=66
329716 On ch=6 n=g3 v=0
329760 On ch=6 n=g3 v=65
330196 On ch=6 n=g3 v=0
330240 On ch=6 n=g3 v=65
330676 On ch=6 n=g3 v=0
330720 On ch=6 n=g3 v=64
331156 On ch=6 n=g3 v=0
331200 On ch=6 n=g3 v=64
331636 On ch=6 n=g3 v=0
331680 On ch=6 n=g3 v=63
332116 On ch=6 n=g3 v=0
332160 On ch=6 n=g3 v=63
332352 On ch=6 n=g3 v=0
333120 On ch=6 n=d3 v=61
333120 On ch=6 n=d4 v=61
333312 On ch=6 n=d4 v=0
333312 On ch=6 n=d3 v=0
334080 On ch=6 n=g2 v=60
334080 On ch=6 n=g3 v=60
334272 On ch=6 n=g3 v=0
334272 On ch=6 n=g2 v=0
336960 Par ch=6 c=64 v=0
336960 On ch=6 n=g4 v=38
337440 On ch=6 n=g4 v=0
337440 On ch=6 n=a4 v=39
337920 On ch=6 n=a4 v=0
337920 On ch=6 n=d4 v=40
338400 On ch=6 n=a4 v=41
338880 On ch=6 n=a4 v=0
338880 On ch=6 n=d4 v=0
338880 On ch=6 n=g4 v=42
339360 On ch=6 n=g4 v=0
339360 On ch=6 n=d4 v=43
339840 On ch=6 n=g4 v=44
340320 On ch=6 n=g4 v=0
340320 On ch=6 n=d4 v=0
340320 On ch=6 n=f#4 v=45
340800 On ch=6 n=f#4 v=0
340800 On ch=6 n=d4 v=44
341280 On ch=6 n=f#4 v=42
341760 On ch=6 n=f#4 v=0
341760 On ch=6 n=d4 v=0
341760 On ch=6 n=g4 v=40
342240 On ch=6 n=g4 v=0
342240 On ch=6 n=d4 v=41
342720 On ch=6 n=g4 v=42
343200 On ch=6 n=g4 v=0
343200 On ch=6 n=d4 v=0
343200 On ch=6 n=a4 v=43
343680 On ch=6 n=a4 v=0
343680 On ch=6 n=d4 v=45
344160 On ch=6 n=a4 v=46
344640 On ch=6 n=a4 v=0
344640 On ch=6 n=d4 v=0
344640 On ch=6 n=g4 v=47
345120 On ch=6 n=g4 v=0
345120 On ch=6 n=d4 v=48
345600 On ch=6 n=g4 v=50
346080 On ch=6 n=g4 v=0
346080 On ch=6 n=d4 v=0
346560 On ch=6 n=d4 v=50
347040 On ch=6 n=d4 v=0
347040 On ch=6 n=d4 v=48
347520 On ch=6 n=d4 v=0
347520 On ch=6 n=g4 v=45
348000 On ch=6 n=g4 v=0
348000 On ch=6 n=g3 v=43
348480 On ch=6 n=g3 v=0
348960 On ch=6 n=d#5 v=40
349440 On ch=6 n=d#5 v=0
349440 On ch=6 n=e5 v=35
349680 On ch=6 n=e5 v=0
350400 On ch=6 n=e5 v=43
350880 On ch=6 n=e5 v=0
350880 On ch=6 n=d5 v=38
351120 On ch=6 n=d5 v=0
352320 On ch=6 n=c5 v=47
352800 On ch=6 n=c5 v=0
352800 On ch=6 n=c5 v=49
353280 On ch=6 n=c5 v=0
353280 On ch=6 n=b4 v=49
353280 On ch=6 n=d4 v=49
353760 On ch=6 n=b4 v=0
353760 On ch=6 n=a4 v=43
354000 On ch=6 n=a4 v=0
354000 On ch=6 n=d4 v=0
354720 On ch=6 n=a4 v=40
355200 On ch=6 n=a4 v=0
355200 On ch=6 n=d4 v=41
355680 On ch=6 n=a4 v=42
356160 On ch=6 n=a4 v=0
356160 On ch=6 n=d4 v=0
356160 On ch=6 n=g4 v=43
356640 On ch=6 n=g4 v=0
356640 On ch=6 n=d4 v=44
357120 On ch=6 n=g4 v=44
357600 On ch=6 n=g4 v=0
357600 On ch=6 n=d4 v=0
357600 On ch=6 n=f#4 v=45
358080 On ch=6 n=f#4 v=0
358080 On ch=6 n=d4 v=43
358560 On ch=6 n=f#4 v=41
359040 On ch=6 n=f#4 v=0
359040 On ch=6 n=d4 v=0
359040 On ch=6 n=g4 v=42
359520 On ch=6 n=g4 v=0
359520 On ch=6 n=d4 v=44
360000 On ch=6 n=g4 v=46
360480 On ch=6 n=g4 v=0
360480 On ch=6 n=d4 v=0
360480 On ch=6 n=a4 v=48
360960 On ch=6 n=a4 v=0
360960 On ch=6 n=d4 v=50
361440 On ch=6 n=a4 v=53
361920 On ch=6 n=a4 v=0
361920 On ch=6 n=d4 v=0
361920 On ch=6 n=g4 v=55
362400 On ch=6 n=g4 v=0
362400 On ch=6 n=d4 v=57
362880 On ch=6 n=g4 v=59
363360 On ch=6 n=g4 v=0
363360 On ch=6 n=d4 v=0
363840 On ch=6 n=d4 v=67
364320 On ch=6 n=d4 v=0
364320 On ch=6 n=d4 v=60
364800 On ch=6 n=d4 v=0
364800 On ch=6 n=g4 v=53
365280 On ch=6 n=g4 v=0
365280 On ch=6 n=g3 v=46
365760 On ch=6 n=g3 v=0
366360 On ch=6 n=g4 v=44
366480 On ch=6 n=g4 v=0
366480 On ch=6 n=a4 v=44
366600 On ch=6 n=a4 v=0
366600 On ch=6 n=b4 v=45
366720 On ch=6 n=b4 v=0
366720 On ch=6 n=c5 v=45
366840 On ch=6 n=c5 v=0
366840 On ch=6 n=d5 v=45
366960 On ch=6 n=d5 v=0
366960 On ch=6 n=e5 v=45
367080 On ch=6 n=e5 v=0
367080 On ch=6 n=f#5 v=46
367200 On ch=6 n=f#5 v=0
367200 On ch=6 n=g5 v=46
367320 On ch=6 n=g5 v=0
367440 On ch=6 n=g5 v=46
367560 On ch=6 n=g5 v=0
367800 On ch=6 n=g4 v=47
367920 On ch=6 n=g4 v=0
367920 On ch=6 n=a4 v=47
368040 On ch=6 n=a4 v=0
368040 On ch=6 n=b4 v=48
368160 On ch=6 n=b4 v=0
368160 On ch=6 n=c5 v=48
368280 On ch=6 n=c5 v=0
368280 On ch=6 n=d5 v=48
368400 On ch=6 n=d5 v=0
368400 On ch=6 n=e5 v=48
368520 On ch=6 n=e5 v=0
368520 On ch=6 n=f#5 v=49
368640 On ch=6 n=f#5 v=0
368640 On ch=6 n=g5 v=49
368760 On ch=6 n=g5 v=0
368880 On ch=6 n=g5 v=50
369000 On ch=6 n=g5 v=0
369120 On ch=6 n=f#5 v=50
369360 On ch=6 n=f#5 v=0
369360 On ch=6 n=e5 v=51
369600 On ch=6 n=e5 v=0
369600 On ch=6 n=f#5 v=51
369840 On ch=6 n=f#5 v=0
369840 On ch=6 n=d5 v=52
370080 On ch=6 n=d5 v=0
370080 On ch=6 n=e5 v=52
370320 On ch=6 n=e5 v=0
370320 On ch=6 n=f#5 v=53
370560 On ch=6 n=f#5 v=0
370560 On ch=6 n=g5 v=53
370800 On ch=6 n=g5 v=0
370800 On ch=6 n=d5 v=49
371040 On ch=6 n=d5 v=0
371040 On ch=6 n=e5 v=47
371280 On ch=6 n=e5 v=0
371280 On ch=6 n=f#5 v=45
371520 On ch=6 n=f#5 v=0
371520 On ch=6 n=g5 v=44
371760 On ch=6 n=g5 v=0
371760 On ch=6 n=a5 v=42
372000 On ch=6 n=a5 v=0
372000 On ch=6 n=b5 v=40
372000 On ch=6 n=g5 v=40
372480 On ch=6 n=g5 v=0
372480 On ch=6 n=b5 v=0
372960 On ch=6 n=f#5 v=45
372960 On ch=6 n=a5 v=45
373440 On ch=6 n=a5 v=0
373440 On ch=6 n=f#5 v=0
373440 On ch=6 n=g5 v=48
373440 On ch=6 n=e5 v=48
373920 On ch=6 n=e5 v=0
373920 On ch=6 n=g5 v=0
374400 On ch=6 n=f#5 v=53
374400 On ch=6 n=d5 v=53
374880 On ch=6 n=d5 v=0
374880 On ch=6 n=f#5 v=0
375360 On ch=6 n=g4 v=59
375840 On ch=6 n=g4 v=0
375840 On ch=6 n=g#4 v=61
376320 On ch=6 n=g#4 v=0
376320 On ch=6 n=a4 v=71
376800 On ch=6 n=a4 v=0
376800 On ch=6 n=a4 v=70
377280 On ch=6 n=a4 v=0
377280 On ch=6 n=a4 v=68
377760 On ch=6 n=a4 v=0
377760 On ch=6 n=a4 v=67
378240 On ch=6 n=a4 v=0
378240 On ch=6 n=a4 v=65
378720 On ch=6 n=a4 v=0
378720 On ch=6 n=a4 v=63
379200 On ch=6 n=a4 v=0
379200 On ch=6 n=a4 v=62
379680 On ch=6 n=a4 v=0
379680 On ch=6 n=a4 v=63
380160 On ch=6 n=a4 v=0
380160 On ch=6 n=a4 v=64
380640 On ch=6 n=a4 v=0
380640 On ch=6 n=a4 v=65
381120 On ch=6 n=a4 v=0
381120 On ch=6 n=a4 v=67
381600 On ch=6 n=a4 v=0
381600 On ch=6 n=a4 v=68
382080 On ch=6 n=a4 v=0
382080 On ch=6 n=a4 v=69
382560 On ch=6 n=a4 v=0
382560 On ch=6 n=a4 v=66
383040 On ch=6 n=a4 v=0
383040 On ch=6 n=a4 v=65
383520 On ch=6 n=a4 v=0
383520 On ch=6 n=a4 v=64
384000 On ch=6 n=a4 v=0
384000 On ch=6 n=a4 v=63
384480 On ch=6 n=a4 v=0
384480 On ch=6 n=a4 v=62
384960 On ch=6 n=a4 v=0
384960 On ch=6 n=a4 v=61
385440 On ch=6 n=a4 v=0
385440 On ch=6 n=a#4 v=60
385920 On ch=6 n=a#4 v=0
385920 On ch=6 n=b4 v=59
386400 On ch=6 n=b4 v=0
386400 On ch=6 n=g4 v=58
386880 On ch=6 n=g4 v=0
386880 On ch=6 n=a4 v=57
387360 On ch=6 n=a4 v=0
387360 On ch=6 n=a4 v=56
387840 On ch=6 n=a4 v=0
387840 On ch=6 n=d5 v=54
388320 On ch=6 n=d5 v=0
391200 On ch=6 n=a4 v=47
391680 On ch=6 n=a4 v=0
391680 On ch=6 n=a4 v=46
392160 On ch=6 n=a4 v=0
392160 On ch=6 n=d5 v=45
392640 On ch=6 n=d5 v=0
395520 On ch=6 n=a4 v=51
396000 On ch=6 n=a4 v=0
396000 On ch=6 n=a4 v=50
396480 On ch=6 n=a4 v=0
396480 On ch=6 n=d5 v=49
396960 On ch=6 n=d5 v=0
397440 On ch=6 n=d5 v=46
397920 On ch=6 n=d5 v=0
397920 On ch=6 n=d5 v=45
398400 On ch=6 n=d5 v=0
398880 On ch=6 n=d5 v=43
399360 On ch=6 n=d5 v=0
399360 On ch=6 n=d5 v=41
399840 On ch=6 n=d5 v=0
400320 On ch=6 n=d5 v=39
400800 On ch=6 n=d5 v=0
400800 On ch=6 n=d5 v=38
401280 On ch=6 n=d5 v=0
401760 On ch=6 n=d5 v=35
402240 On ch=6 n=d5 v=0
402240 On ch=6 n=d5 v=34
402720 On ch=6 n=d5 v=0
404640 Par ch=6 c=64 v=0
404640 On ch=6 n=g4 v=38
405120 On ch=6 n=g4 v=0
405120 On ch=6 n=a4 v=39
405600 On ch=6 n=a4 v=0
405600 On ch=6 n=d4 v=40
406080 On ch=6 n=a4 v=41
406560 On ch=6 n=a4 v=0
406560 On ch=6 n=d4 v=0
406560 On ch=6 n=g4 v=42
407040 On ch=6 n=g4 v=0
407040 On ch=6 n=d4 v=43
407520 On ch=6 n=g4 v=44
408000 On ch=6 n=g4 v=0
408000 On ch=6 n=d4 v=0
408000 On ch=6 n=f#4 v=45
408480 On ch=6 n=f#4 v=0
408480 On ch=6 n=d4 v=44
408960 On ch=6 n=f#4 v=42
409440 On ch=6 n=f#4 v=0
409440 On ch=6 n=d4 v=0
409440 On ch=6 n=g4 v=40
409920 On ch=6 n=g4 v=0
409920 On ch=6 n=d4 v=41
410400 On ch=6 n=g4 v=42
410880 On ch=6 n=g4 v=0
410880 On ch=6 n=d4 v=0
410880 On ch=6 n=a4 v=43
411360 On ch=6 n=a4 v=0
411360 On ch=6 n=d4 v=45
411840 On ch=6 n=a4 v=46
412320 On ch=6 n=a4 v=0
412320 On ch=6 n=d4 v=0
412320 On ch=6 n=g4 v=47
412800 On ch=6 n=g4 v=0
412800 On ch=6 n=d4 v=48
413280 On ch=6 n=g4 v=50
413760 On ch=6 n=g4 v=0
413760 On ch=6 n=d4 v=0
414240 On ch=6 n=d4 v=50
414720 On ch=6 n=d4 v=0
414720 On ch=6 n=d4 v=48
415200 On ch=6 n=d4 v=0
415200 On ch=6 n=g4 v=45
415680 On ch=6 n=g4 v=0
415680 On ch=6 n=g3 v=43
416160 On ch=6 n=g3 v=0
416640 On ch=6 n=d#5 v=42
416640 On ch=6 n=f#5 v=42
417120 On ch=6 n=f#5 v=0
417120 On ch=6 n=d#5 v=0
417120 On ch=6 n=e5 v=37
417120 On ch=6 n=g5 v=37
417360 On ch=6 n=g5 v=0
417360 On ch=6 n=e5 v=0
418080 On ch=6 n=g5 v=43
418080 On ch=6 n=e5 v=43
418560 On ch=6 n=e5 v=0
418560 On ch=6 n=g5 v=0
418560 On ch=6 n=f#5 v=38
418560 On ch=6 n=d5 v=38
418800 On ch=6 n=d5 v=0
418800 On ch=6 n=f#5 v=0
420000 On ch=6 n=c5 v=45
420480 On ch=6 n=c5 v=0
420480 On ch=6 n=c5 v=45
420960 On ch=6 n=c5 v=0
420960 On ch=6 n=d4 v=47
420960 On ch=6 n=b4 v=47
421440 On ch=6 n=b4 v=0
421440 On ch=6 n=a4 v=41
421680 On ch=6 n=a4 v=0
421680 On ch=6 n=d4 v=0
422400 On ch=6 n=a4 v=44
422880 On ch=6 n=a4 v=0
422880 On ch=6 n=d4 v=45
423360 On ch=6 n=a4 v=46
423840 On ch=6 n=a4 v=0
423840 On ch=6 n=d4 v=0
423840 On ch=6 n=g4 v=47
424320 On ch=6 n=g4 v=0
424320 On ch=6 n=d4 v=48
424800 On ch=6 n=g4 v=49
425280 On ch=6 n=g4 v=0
425280 On ch=6 n=d4 v=0
425280 On ch=6 n=f#4 v=51
425760 On ch=6 n=f#4 v=0
425760 On ch=6 n=d4 v=50
426240 On ch=6 n=f#4 v=45
426720 On ch=6 n=f#4 v=0
426720 On ch=6 n=d4 v=0
426720 On ch=6 n=g4 v=46
427200 On ch=6 n=g4 v=0
427200 On ch=6 n=d4 v=48
427680 On ch=6 n=g4 v=51
428160 On ch=6 n=g4 v=0
428160 On ch=6 n=d4 v=0
428160 On ch=6 n=a4 v=53
428640 On ch=6 n=a4 v=0
428640 On ch=6 n=d4 v=56
429120 On ch=6 n=a4 v=58
429600 On ch=6 n=a4 v=0
429600 On ch=6 n=d4 v=0
429600 On ch=6 n=g4 v=61
430080 On ch=6 n=g4 v=0
430080 On ch=6 n=d4 v=63
430560 On ch=6 n=g4 v=66
431040 On ch=6 n=g4 v=0
431040 On ch=6 n=d4 v=0
431520 On ch=6 n=d4 v=72
432000 On ch=6 n=d4 v=0
432000 On ch=6 n=d4 v=64
432480 On ch=6 n=d4 v=0
432480 On ch=6 n=g4 v=55
432960 On ch=6 n=g4 v=0
432960 On ch=6 n=g3 v=47
433320 On ch=6 n=g3 v=0
433440 Par ch=6 c=64 v=0
433920 On ch=6 n=c4 v=79
434400 On ch=6 n=c4 v=0
434400 On ch=6 n=c4 v=78
434880 On ch=6 n=c4 v=0
434880 On ch=6 n=c4 v=77
435360 On ch=6 n=c4 v=0
435360 On ch=6 n=c4 v=76
435840 On ch=6 n=c4 v=0
435840 On ch=6 n=c4 v=75
436320 On ch=6 n=c4 v=0
436320 On ch=6 n=c4 v=74
436800 On ch=6 n=c4 v=0
436800 On ch=6 n=c4 v=73
437280 On ch=6 n=c4 v=0
437280 On ch=6 n=c4 v=72
437760 On ch=6 n=c4 v=0
437760 On ch=6 n=c4 v=71
438240 On ch=6 n=c4 v=0
438240 On ch=6 n=c4 v=69
438720 On ch=6 n=c4 v=0
438720 On ch=6 n=c4 v=68
438960 On ch=6 n=c4 v=0
440160 On ch=6 n=g4 v=49
440640 On ch=6 n=g4 v=0
441600 On ch=6 n=c5 v=44
442080 On ch=6 n=c5 v=0
443280 On ch=6 n=c#5 v=39
443520 On ch=6 n=c#5 v=0
443520 On ch=6 n=d5 v=38
443760 On ch=6 n=d5 v=0
443760 On ch=6 n=f5 v=38
444000 On ch=6 n=f5 v=0
444000 On ch=6 n=g4 v=37
444000 On ch=6 n=e5 v=37
444480 On ch=6 n=e5 v=0
444480 On ch=6 n=d5 v=35
444720 On ch=6 n=d5 v=0
444720 On ch=6 n=g4 v=0
445440 On ch=6 n=c4 v=73
445920 On ch=6 n=c4 v=0
445920 On ch=6 n=c4 v=72
446400 On ch=6 n=c4 v=0
446400 On ch=6 n=c4 v=71
446880 On ch=6 n=c4 v=0
446880 On ch=6 n=c4 v=71
447360 On ch=6 n=c4 v=0
447360 On ch=6 n=c4 v=70
447840 On ch=6 n=c4 v=0
447840 On ch=6 n=c4 v=69
448320 On ch=6 n=c4 v=0
448320 On ch=6 n=c4 v=68
448800 On ch=6 n=c4 v=0
448800 On ch=6 n=c4 v=67
449280 On ch=6 n=c4 v=0
449280 On ch=6 n=c4 v=66
449760 On ch=6 n=c4 v=0
449760 On ch=6 n=c4 v=65
450240 On ch=6 n=c4 v=0
450240 On ch=6 n=c4 v=64
450480 On ch=6 n=c4 v=0
451680 On ch=6 n=g4 v=36
452160 On ch=6 n=g4 v=0
453120 On ch=6 n=c5 v=39
453600 On ch=6 n=c5 v=0
454560 On ch=6 n=c5 v=42
455040 On ch=6 n=c5 v=0
456000 On ch=6 n=b4 v=45
456480 On ch=6 n=b4 v=0
457440 On ch=6 n=f#4 v=48
457920 On ch=6 n=f#4 v=0
462240 Par ch=6 c=64 v=0
462240 On ch=6 n=g4 v=38
462720 On ch=6 n=g4 v=0
462720 On ch=6 n=a4 v=39
463200 On ch=6 n=a4 v=0
463200 On ch=6 n=d4 v=40
463680 On ch=6 n=a4 v=41
464160 On ch=6 n=a4 v=0
464160 On ch=6 n=d4 v=0
464160 On ch=6 n=g4 v=42
464640 On ch=6 n=g4 v=0
464640 On ch=6 n=d4 v=43
465120 On ch=6 n=g4 v=44
465600 On ch=6 n=g4 v=0
465600 On ch=6 n=d4 v=0
465600 On ch=6 n=f#4 v=45
466080 On ch=6 n=f#4 v=0
466080 On ch=6 n=d4 v=44
466560 On ch=6 n=f#4 v=42
467040 On ch=6 n=f#4 v=0
467040 On ch=6 n=d4 v=0
467040 On ch=6 n=g4 v=40
467520 On ch=6 n=g4 v=0
467520 On ch=6 n=d4 v=41
468000 On ch=6 n=g4 v=42
468480 On ch=6 n=g4 v=0
468480 On ch=6 n=d4 v=0
468480 On ch=6 n=a4 v=43
468960 On ch=6 n=a4 v=0
468960 On ch=6 n=d4 v=45
469440 On ch=6 n=a4 v=46
469920 On ch=6 n=a4 v=0
469920 On ch=6 n=d4 v=0
469920 On ch=6 n=g4 v=47
470400 On ch=6 n=g4 v=0
470400 On ch=6 n=d4 v=48
470880 On ch=6 n=g4 v=50
471360 On ch=6 n=g4 v=0
471360 On ch=6 n=d4 v=0
471840 On ch=6 n=d4 v=50
472320 On ch=6 n=d4 v=0
472320 On ch=6 n=d4 v=48
472800 On ch=6 n=d4 v=0
472800 On ch=6 n=g4 v=45
473280 On ch=6 n=g4 v=0
473280 On ch=6 n=g3 v=43
473760 On ch=6 n=g3 v=0
474240 On ch=6 n=d#5 v=42
474240 On ch=6 n=f#5 v=42
474720 On ch=6 n=f#5 v=0
474720 On ch=6 n=d#5 v=0
474720 On ch=6 n=e5 v=37
474720 On ch=6 n=g5 v=37
474960 On ch=6 n=g5 v=0
474960 On ch=6 n=e5 v=0
475680 On ch=6 n=g5 v=43
475680 On ch=6 n=e5 v=43
476160 On ch=6 n=e5 v=0
476160 On ch=6 n=g5 v=0
476160 On ch=6 n=f#5 v=38
476160 On ch=6 n=d5 v=38
476400 On ch=6 n=d5 v=0
476400 On ch=6 n=f#5 v=0
477600 On ch=6 n=c5 v=45
478080 On ch=6 n=c5 v=0
478080 On ch=6 n=c5 v=45
478560 On ch=6 n=c5 v=0
478560 On ch=6 n=d4 v=47
478560 On ch=6 n=b4 v=47
479040 On ch=6 n=b4 v=0
479040 On ch=6 n=a4 v=41
479280 On ch=6 n=a4 v=0
479280 On ch=6 n=d4 v=0
480000 On ch=6 n=a4 v=40
480480 On ch=6 n=a4 v=0
480480 On ch=6 n=d4 v=41
480960 On ch=6 n=a4 v=42
481440 On ch=6 n=a4 v=0
481440 On ch=6 n=d4 v=0
481440 On ch=6 n=g4 v=43
481920 On ch=6 n=g4 v=0
481920 On ch=6 n=d4 v=44
482400 On ch=6 n=g4 v=44
482880 On ch=6 n=g4 v=0
482880 On ch=6 n=d4 v=0
482880 On ch=6 n=f#4 v=45
483360 On ch=6 n=f#4 v=0
483360 On ch=6 n=d4 v=43
483840 On ch=6 n=f#4 v=41
484320 On ch=6 n=f#4 v=0
484320 On ch=6 n=d4 v=0
484320 On ch=6 n=g4 v=42
484800 On ch=6 n=g4 v=0
484800 On ch=6 n=d4 v=44
485280 On ch=6 n=g4 v=46
485760 On ch=6 n=g4 v=0
485760 On ch=6 n=d4 v=0
485760 On ch=6 n=a4 v=48
486240 On ch=6 n=a4 v=0
486240 On ch=6 n=d4 v=50
486720 On ch=6 n=a4 v=53
487200 On ch=6 n=a4 v=0
487200 On ch=6 n=d4 v=0
487200 On ch=6 n=g4 v=55
487680 On ch=6 n=g4 v=0
487680 On ch=6 n=d4 v=57
488160 On ch=6 n=g4 v=59
488640 On ch=6 n=g4 v=0
488640 On ch=6 n=d4 v=0
489120 On ch=6 n=d4 v=65
489600 On ch=6 n=d4 v=0
489600 On ch=6 n=d4 v=57
490080 On ch=6 n=d4 v=0
490080 On ch=6 n=g4 v=49
490560 On ch=6 n=g4 v=0
490560 On ch=6 n=g3 v=41
491040 On ch=6 n=g3 v=0
491040 Par ch=6 c=64 v=0
491520 On ch=6 n=b4 v=47
491952 On ch=6 n=b4 v=0
492000 On ch=6 n=d5 v=47
492432 On ch=6 n=d5 v=0
492480 On ch=6 n=b4 v=46
492912 On ch=6 n=b4 v=0
492960 On ch=6 n=c5 v=45
493392 On ch=6 n=c5 v=0
493440 On ch=6 n=c5 v=45
493872 On ch=6 n=c5 v=0
493920 On ch=6 n=c5 v=44
494352 On ch=6 n=c5 v=0
494400 On ch=6 n=g#4 v=43
494832 On ch=6 n=g#4 v=0
494880 On ch=6 n=b4 v=43
495312 On ch=6 n=b4 v=0
495360 On ch=6 n=g#4 v=42
495792 On ch=6 n=g#4 v=0
495840 On ch=6 n=a4 v=42
496272 On ch=6 n=a4 v=0
496320 On ch=6 n=c5 v=41
496752 On ch=6 n=c5 v=0
496800 On ch=6 n=c5 v=40
497232 On ch=6 n=c5 v=0
497280 On ch=6 n=a4 v=40
497680 On ch=6 n=a4 v=0
497760 On ch=6 n=f#4 v=47
498160 On ch=6 n=f#4 v=0
498240 On ch=6 n=g4 v=41
498640 On ch=6 n=g4 v=0
498720 On ch=6 n=a4 v=38
499120 On ch=6 n=a4 v=0
499200 On ch=6 n=f#4 v=44
499600 On ch=6 n=f#4 v=0
499680 On ch=6 n=g4 v=39
500080 On ch=6 n=g4 v=0
500160 On ch=6 n=c4 v=36
500640 On ch=6 n=c4 v=0
500640 On ch=6 n=d4 v=35
501120 On ch=6 n=d4 v=0
501120 On ch=6 n=d4 v=35
501600 On ch=6 n=d4 v=0
501600 On ch=6 n=g4 v=34
502080 On ch=6 n=g4 v=0
502800 On ch=6 n=g5 v=71
503040 On ch=6 n=g5 v=0
503040 On ch=6 n=a5 v=74
503472 On ch=6 n=a5 v=0
503520 On ch=6 n=f#5 v=72
503952 On ch=6 n=f#5 v=0
504000 On ch=6 n=g5 v=70
504432 On ch=6 n=g5 v=0
504480 On ch=6 n=a5 v=69
504912 On ch=6 n=a5 v=0
504960 On ch=6 n=f#5 v=67
505392 On ch=6 n=f#5 v=0
505440 On ch=6 n=g5 v=65
505872 On ch=6 n=g5 v=0
505920 On ch=6 n=c5 v=63
506400 On ch=6 n=c5 v=0
506400 On ch=6 n=d5 v=61
506880 On ch=6 n=d5 v=0
506880 On ch=6 n=d5 v=62
507360 On ch=6 n=d5 v=0
507360 On ch=6 n=g5 v=52
507840 On ch=6 n=g5 v=0
508320 On ch=6 n=d4 v=50
508680 On ch=6 n=d4 v=0
508800 On ch=6 n=g3 v=46
509160 On ch=6 n=g3 v=0
509160 Meta TrkEnd
TrkEnd
