MFile 1 6 480
MTrk
0 TimeSig 3/4 24 8
0 Tempo 600000
1440 Tempo 288461
2830 Tempo 289855
2880 Tempo 288461
8580 Tempo 289855
8640 Tempo 288461
9960 Tempo 289855
11400 Tempo 301507
11520 Tempo 288461
17160 Tempo 292682
17505 Tempo 288461
22920 Tempo 289855
23250 Tempo 288461
28680 Tempo 289855
29025 Tempo 288461
34440 Tempo 295566
34560 Tempo 288461
37380 Tempo 289855
37440 Tempo 288461
40200 Tempo 289855
40320 Tempo 288461
43140 Tempo 289855
43200 Tempo 288461
45960 Tempo 289855
46080 Tempo 288461
48900 Tempo 289855
48960 Tempo 288461
51780 Tempo 289855
51840 Tempo 288461
54660 Tempo 289855
54720 Tempo 288461
57480 Tempo 289855
57600 Tempo 288461
60420 Tempo 289855
60480 Tempo 288461
64680 Tempo 289855
66120 Tempo 292682
66240 Tempo 288461
69000 Tempo 301507
69120 Tempo 288461
70320 Tempo 289855
71280 Tempo 298507
71760 Tempo 359281
72000 Tempo 288461
73390 Tempo 289855
73440 Tempo 288461
79140 Tempo 289855
79200 Tempo 288461
80520 Tempo 289855
81960 Tempo 301507
82080 Tempo 288461
87720 Tempo 292682
88065 Tempo 288461
93480 Tempo 289855
93810 Tempo 288461
99240 Tempo 289855
99585 Tempo 288461
105000 Tempo 295566
105120 Tempo 288461
107940 Tempo 289855
108000 Tempo 288461
110760 Tempo 289855
110880 Tempo 288461
113700 Tempo 289855
113760 Tempo 288461
116520 Tempo 289855
116640 Tempo 288461
119460 Tempo 289855
119520 Tempo 288461
122340 Tempo 289855
122400 Tempo 288461
125220 Tempo 289855
125280 Tempo 288461
128040 Tempo 289855
128160 Tempo 288461
130980 Tempo 289855
131040 Tempo 288461
135240 Tempo 289855
136680 Tempo 292682
136800 Tempo 288461
139560 Tempo 301507
139680 Tempo 288461
142440 Tempo 298507
142560 Tempo 288461
142560 Meta Marker "New Marker 10"
143880 Tempo 289855
144480 Tempo 292682
145200 Tempo 1276595
145440 Tempo 288461
146820 Tempo 289855
146880 Tempo 288461
152580 Tempo 289855
152640 Tempo 288461
153960 Tempo 289855
155400 Tempo 301507
155520 Tempo 288461
155520 Meta Marker "New Marker 8"
161280 Tempo 288461
166930 Tempo 298507
167040 Tempo 288461
172800 Tempo 288461
178440 Tempo 298507
178560 Tempo 288461
184200 Tempo 292682
184320 Tempo 288461
185040 Tempo 292682
185280 Tempo 288461
187920 Tempo 289855
188160 Tempo 288461
189960 Tempo 295566
190080 Tempo 288461
195780 Tempo 289855
195840 Tempo 288461
201480 Tempo 289855
201600 Tempo 288461
207300 Tempo 289855
207360 Tempo 288461
213000 Tempo 289855
213120 Tempo 288461
218760 Tempo 292682
219120 Tempo 288461
221640 Tempo 292682
222000 Tempo 288461
224520 Tempo 289855
224880 Tempo 288461
230280 Tempo 301507
230400 Tempo 288461
236100 Tempo 289855
236160 Tempo 288461
241905 Tempo 289855
241920 Tempo 288461
247140 Tempo 289855
247200 Tempo 288461
247560 Tempo 331491
247680 Tempo 288461
249060 Tempo 289855
249120 Tempo 288461
254820 Tempo 289855
254880 Tempo 288461
256260 Tempo 289855
257640 Tempo 301507
257760 Tempo 288461
263400 Tempo 289855
263760 Tempo 288461
269160 Tempo 289855
269520 Tempo 288461
274920 Tempo 289855
275265 Tempo 288461
280680 Tempo 289855
280800 Tempo 288461
283620 Tempo 289855
283680 Tempo 288461
286440 Tempo 289855
286560 Tempo 288461
289380 Tempo 289855
289440 Tempo 288461
292200 Tempo 289855
292320 Tempo 288461
295140 Tempo 289855
295200 Tempo 288461
298020 Tempo 289855
298080 Tempo 288461
303720 Tempo 289855
303840 Tempo 288461
310920 Tempo 289855
312360 Tempo 292682
312480 Tempo 288461
315240 Tempo 295566
315360 Tempo 288461
318120 Tempo 295566
318240 Tempo 288461
318240 Meta Marker "New Marker 10 copy"
319560 Tempo 289855
320160 Tempo 292682
320880 Tempo 1276595
321120 Tempo 288461
322500 Tempo 289855
322560 Tempo 288461
328260 Tempo 289855
328320 Tempo 288461
329640 Tempo 289855
331080 Tempo 301507
331200 Tempo 288461
331200 Meta Marker "New Marker 8 copy"
336960 Tempo 288461
342610 Tempo 298507
342720 Tempo 288461
348480 Tempo 288461
354120 Tempo 298507
354240 Tempo 288461
359880 Tempo 292682
360000 Tempo 288461
360720 Tempo 292682
360960 Tempo 288461
363600 Tempo 289855
363840 Tempo 288461
365640 Tempo 295566
365760 Tempo 288461
371460 Tempo 289855
371520 Tempo 288461
377160 Tempo 289855
377280 Tempo 288461
382980 Tempo 289855
383040 Tempo 288461
388680 Tempo 289855
388800 Tempo 288461
394440 Tempo 292682
394800 Tempo 288461
397320 Tempo 292682
397680 Tempo 288461
400200 Tempo 289855
400560 Tempo 288461
405960 Tempo 301507
406080 Tempo 288461
411780 Tempo 289855
411840 Tempo 288461
417585 Tempo 289855
417600 Tempo 288461
422820 Tempo 289855
422880 Tempo 288461
423240 Tempo 377358
423360 Tempo 288461
424740 Tempo 289855
424800 Tempo 288461
430500 Tempo 289855
430560 Tempo 288461
431940 Tempo 289855
433320 Tempo 301507
433440 Tempo 288461
439080 Tempo 289855
439440 Tempo 288461
444840 Tempo 289855
445200 Tempo 288461
450600 Tempo 289855
450945 Tempo 288461
456360 Tempo 289855
456480 Tempo 288461
459300 Tempo 289855
459360 Tempo 288461
462120 Tempo 289855
462240 Tempo 288461
465060 Tempo 289855
465120 Tempo 288461
467880 Tempo 289855
468000 Tempo 288461
470820 Tempo 289855
470880 Tempo 288461
473700 Tempo 289855
473760 Tempo 288461
479400 Tempo 289855
479520 Tempo 288461
486600 Tempo 289855
488040 Tempo 292682
488160 Tempo 288461
490920 Tempo 295566
491040 Tempo 288461
493800 Tempo 295566
493920 Tempo 288461
493920 Meta Marker "New Marker 9"
496680 Tempo 295566
496800 Tempo 288461
498120 Tempo 289855
498960 Tempo 292682
499560 Tempo 638297
499680 Tempo 288461
501060 Tempo 289855
501120 Tempo 288461
505320 Tempo 298507
505440 Tempo 288461
506820 Tempo 289855
506880 Tempo 288461
511080 Tempo 301507
511200 Tempo 288461
512580 Tempo 289855
512640 Tempo 288461
516840 Tempo 298507
516960 Tempo 288461
518340 Tempo 289855
518400 Tempo 288461
521160 Tempo 289855
521280 Tempo 288461
527010 Tempo 289855
527040 Tempo 288461
532680 Tempo 289855
532800 Tempo 288461
535185 Tempo 289855
535380 Tempo 295566
535485 Tempo 298507
537120 TimeSig 9/8 24 8
537120 Tempo 1071428
537120 Meta Marker "<2>"
539280 Tempo 895522
539280 Meta Marker "New Marker 13"
541380 Tempo 923076
541440 Tempo 895522
543240 Tempo 923076
543375 Tempo 1071428
543600 Tempo 895522
545700 Tempo 923076
545760 Tempo 895522
547560 Tempo 923076
547680 Tempo 1111111
547920 Tempo 895522
550020 Tempo 923076
550080 Tempo 895522
551640 Tempo 923076
552015 Tempo 1071428
552240 Tempo 895522
554340 Tempo 923076
554400 Tempo 895522
556170 Tempo 923076
556320 Tempo 1071428
556560 Tempo 1176470
557280 Tempo 1224489
558000 Tempo 1333333
558720 Tempo 869565
558840 Tempo 845070
560120 Tempo 869565
560160 Tempo 845070
560650 Tempo 869565
560880 Tempo 845070
562280 Tempo 869565
562320 Tempo 845070
562800 Tempo 895522
563040 Tempo 845070
564440 Tempo 869565
564480 Tempo 845070
565080 Tempo 869565
565200 Tempo 845070
566840 Tempo 869565
566880 Tempo 845070
567120 Tempo 869565
567240 Tempo 895522
567360 Tempo 845070
569040 Tempo 869565
569400 Tempo 895522
569520 Tempo 845070
570920 Tempo 869565
570960 Tempo 845070
571570 Tempo 869565
571680 Tempo 845070
573060 Tempo 869565
573480 Tempo 895522
573580 Tempo 952380
573930 Tempo 845070
575240 Tempo 869565
575280 Tempo 845070
575880 Tempo 869565
576000 Tempo 845070
577400 Tempo 869565
577860 Tempo 895522
578090 Tempo 923076
578270 Tempo 845070
579560 Tempo 869565
580200 Tempo 895522
580320 Tempo 845070
581420 Tempo 869565
582080 Tempo 895522
582240 Tempo 923076
582360 Tempo 1111111
582585 Tempo 895522
583920 Tempo 923076
584040 Tempo 895522
584350 Tempo 952380
584400 Tempo 1034482
584520 Tempo 1428571
584700 Tempo 895522
586740 Tempo 923076
586800 Tempo 895522
588600 Tempo 923076
588735 Tempo 1071428
588960 Tempo 895522
591060 Tempo 923076
591120 Tempo 895522
592920 Tempo 923076
593040 Tempo 1111111
593280 Tempo 895522
595380 Tempo 923076
595440 Tempo 895522
597000 Tempo 923076
597375 Tempo 1071428
597600 Tempo 895522
599700 Tempo 923076
599760 Tempo 895522
600960 Tempo 923076
601200 Tempo 895522
601800 Tempo 923076
601840 Tempo 967741
601920 Tempo 895522
604020 Tempo 923076
604080 Tempo 895522
606120 Tempo 952380
606250 Tempo 895522
608160 Tempo 923076
608280 Tempo 952380
608400 Tempo 952380
608760 Tempo 967741
609830 Tempo 1000000
610310 Tempo 1276595
610560 Tempo 1333333
611280 Tempo 1935483
612720 TimeSig 2/4 24 8
612720 Tempo 1176470
612720 Meta Marker "<3>"
613680 Tempo 340909
615380 Tempo 344827
615600 Tempo 340909
617300 Tempo 348837
617520 Tempo 340909
619190 Tempo 344827
619440 Tempo 340909
620280 Tempo 344827
620890 Tempo 363636
621360 Tempo 340909
623060 Tempo 344827
623280 Tempo 340909
624980 Tempo 348837
625200 Tempo 340909
626870 Tempo 344827
627120 Tempo 340909
627960 Tempo 344827
628080 Tempo 359281
628335 Tempo 355029
629040 Tempo 340909
629940 Tempo 344827
630480 Tempo 352941
630840 Tempo 344827
630960 Tempo 340909
631890 Tempo 344827
632280 Tempo 363636
632640 Tempo 368098
632880 Tempo 340909
633780 Tempo 344827
634305 Tempo 363636
634800 Tempo 352941
635760 Tempo 355029
636495 Tempo 359281
636720 Tempo 340909
637620 Tempo 344827
638160 Tempo 352941
638520 Tempo 344827
638640 Tempo 340909
639585 Tempo 344827
639950 Tempo 363636
640320 Tempo 368098
640560 Tempo 340909
641460 Tempo 344827
641985 Tempo 363636
642480 Tempo 352941
643440 Tempo 363636
643920 Tempo 340909
645120 Tempo 344827
645240 Tempo 359281
645360 Tempo 340909
645720 Tempo 344827
645840 Tempo 340909
647220 Tempo 344827
647280 Tempo 340909
647640 Tempo 344827
647760 Tempo 340909
649800 Tempo 348837
649920 Tempo 340909
650160 Tempo 344827
650895 Tempo 352941
651000 Tempo 359281
651120 Tempo 359281
651350 Tempo 355029
651610 Tempo 340909
652560 Tempo 368098
653520 Tempo 340909
654480 Tempo 368098
655430 Tempo 340909
656280 Tempo 344827
656400 Tempo 340909
662040 Tempo 344827
662400 Tempo 352941
662520 Tempo 408163
662640 Tempo 340909
664440 Tempo 344827
664560 Tempo 340909
666360 Tempo 344827
666480 Tempo 340909
668280 Tempo 344827
669240 Tempo 348837
670070 Tempo 352941
670200 Tempo 363636
670320 Tempo 340909
671220 Tempo 344827
671760 Tempo 352941
671990 Tempo 344827
672240 Tempo 340909
673140 Tempo 344827
673560 Tempo 363636
673920 Tempo 372670
674170 Tempo 340909
675060 Tempo 344827
675615 Tempo 359281
676080 Tempo 344827
676995 Tempo 348837
677355 Tempo 372670
677640 Tempo 340909
678920 Tempo 359281
678960 Tempo 355029
680745 Tempo 344827
680880 Tempo 355029
681470 Tempo 340909
682760 Tempo 359281
682800 Tempo 355029
684600 Tempo 344827
684720 Tempo 355029
685310 Tempo 340909
686600 Tempo 359281
686640 Tempo 355029
688425 Tempo 344827
688560 Tempo 355029
689150 Tempo 340909
690440 Tempo 359281
690480 Tempo 355029
692265 Tempo 344827
692400 Tempo 359281
692640 Tempo 355029
693370 Tempo 340909
697920 Tempo 348837
698040 Tempo 394736
698160 Tempo 340909
699960 Tempo 344827
700080 Tempo 340909
701880 Tempo 348837
702000 Tempo 340909
703800 Tempo 344827
703920 Tempo 340909
705600 Tempo 344827
705720 Tempo 352941
705840 Tempo 340909
709560 Tempo 348837
709680 Tempo 340909
712440 Tempo 344827
713280 Tempo 348837
713400 Tempo 377358
713520 Tempo 340909
714420 Tempo 344827
714960 Tempo 352941
715335 Tempo 344827
715440 Tempo 340909
716340 Tempo 344827
716760 Tempo 363636
717120 Tempo 368098
717360 Tempo 340909
720120 Tempo 344827
720960 Tempo 348837
721080 Tempo 359281
721200 Tempo 340909
722100 Tempo 344827
722640 Tempo 352941
723120 Tempo 340909
724800 Tempo 344827
725040 Tempo 340909
725940 Tempo 344827
726480 Tempo 348837
726960 Tempo 340909
728400 Tempo 344827
728880 Tempo 340909
730680 Tempo 344827
730800 Tempo 340909
734520 Tempo 344827
734640 Tempo 340909
737400 Tempo 344827
737520 Tempo 340909
740385 Tempo 359281
740835 Tempo 379746
741120 Tempo 434782
741240 Tempo 454545
741360 Tempo 612244
741360 Meta TrkEnd
TrkEnd
MTrk
0 SeqSpec 43 00 01 00
0 Meta TrkName "No Name"
0 Par ch=2 c=0 v=0
0 Par ch=2 c=32 v=0
0 PrCh ch=2 p=0
0 Par ch=2 c=7 v=127
0 Pb ch=2 v=8192
0 Par ch=2 c=1 v=0
0 Par ch=2 c=64 v=0
0 Par ch=2 c=93 v=28
0 Par ch=2 c=91 v=100
0 Par ch=2 c=10 v=73
1440 Par ch=2 c=64 v=0
1440 On ch=2 n=g6 v=77
1680 On ch=2 n=g6 v=0
1920 On ch=2 n=b6 v=80
2112 On ch=2 n=b6 v=0
2400 On ch=2 n=g6 v=82
2592 On ch=2 n=g6 v=0
2880 On ch=2 n=d7 v=88
3840 On ch=2 n=d7 v=0
3840 On ch=2 n=c7 v=82
4080 On ch=2 n=c7 v=0
4080 On ch=2 n=b6 v=82
4320 On ch=2 n=b6 v=0
4320 On ch=2 n=a6 v=82
4560 On ch=2 n=a6 v=0
4560 On ch=2 n=g6 v=81
4800 On ch=2 n=g6 v=0
4800 On ch=2 n=f#6 v=81
5040 On ch=2 n=f#6 v=0
5040 On ch=2 n=g6 v=81
5280 On ch=2 n=g6 v=0
5280 On ch=2 n=b6 v=80
5520 On ch=2 n=b6 v=0
5520 On ch=2 n=g6 v=80
5760 On ch=2 n=g6 v=0
5760 On ch=2 n=f#6 v=80
6240 On ch=2 n=f#6 v=0
6240 On ch=2 n=e6 v=76
6600 On ch=2 n=e6 v=0
6720 On ch=2 n=d6 v=78
6960 On ch=2 n=d6 v=0
6960 On ch=2 n=c6 v=78
7200 On ch=2 n=c6 v=0
7200 On ch=2 n=b5 v=78
7440 On ch=2 n=b5 v=0
7440 On ch=2 n=a5 v=77
7680 On ch=2 n=a5 v=0
7680 On ch=2 n=g#5 v=77
7920 On ch=2 n=g#5 v=0
7920 On ch=2 n=a5 v=77
8160 On ch=2 n=a5 v=0
8160 On ch=2 n=c6 v=76
8400 On ch=2 n=c6 v=0
8400 On ch=2 n=a5 v=76
8640 On ch=2 n=a5 v=0
8640 On ch=2 n=f#5 v=76
9600 On ch=2 n=f#5 v=0
9600 On ch=2 n=a5 v=74
9840 On ch=2 n=a5 v=0
10080 On ch=2 n=c6 v=74
10272 On ch=2 n=c6 v=0
10560 On ch=2 n=a5 v=73
10752 On ch=2 n=a5 v=0
11040 On ch=2 n=f#5 v=72
11232 On ch=2 n=f#5 v=0
11520 On ch=2 n=g5 v=72
11760 On ch=2 n=g5 v=0
11760 On ch=2 n=d5 v=73
12000 On ch=2 n=d5 v=0
12000 On ch=2 n=c#5 v=73
12240 On ch=2 n=c#5 v=0
12240 On ch=2 n=d5 v=74
12480 On ch=2 n=d5 v=0
12480 On ch=2 n=f#5 v=75
12720 On ch=2 n=f#5 v=0
12720 On ch=2 n=g5 v=76
12960 On ch=2 n=g5 v=0
12960 On ch=2 n=a5 v=76
13200 On ch=2 n=a5 v=0
13200 On ch=2 n=d5 v=77
13440 On ch=2 n=d5 v=0
13440 On ch=2 n=c#5 v=78
13680 On ch=2 n=c#5 v=0
13680 On ch=2 n=d5 v=78
13920 On ch=2 n=d5 v=0
13920 On ch=2 n=g5 v=79
14160 On ch=2 n=g5 v=0
14160 On ch=2 n=a5 v=80
14400 On ch=2 n=a5 v=0
14400 On ch=2 n=b5 v=81
14640 On ch=2 n=b5 v=0
14640 On ch=2 n=g5 v=81
14880 On ch=2 n=g5 v=0
14880 On ch=2 n=f#5 v=82
15120 On ch=2 n=f#5 v=0
15120 On ch=2 n=g5 v=83
15360 On ch=2 n=g5 v=0
15360 On ch=2 n=c6 v=84
15600 On ch=2 n=c6 v=0
15600 On ch=2 n=d6 v=84
15840 On ch=2 n=d6 v=0
15840 On ch=2 n=e6 v=88
16080 On ch=2 n=e6 v=0
16080 On ch=2 n=d6 v=86
16320 On ch=2 n=d6 v=0
16320 On ch=2 n=c6 v=82
16560 On ch=2 n=c6 v=0
16560 On ch=2 n=b5 v=78
16800 On ch=2 n=b5 v=0
16800 On ch=2 n=a5 v=74
17040 On ch=2 n=a5 v=0
17040 On ch=2 n=g5 v=70
17280 On ch=2 n=g5 v=0
17280 On ch=2 n=f#5 v=59
17760 On ch=2 n=f#5 v=0
18000 Par ch=2 c=64 v=127
18000 On ch=2 n=d5 v=55
18240 On ch=2 n=d5 v=0
18240 On ch=2 n=f#5 v=55
18480 On ch=2 n=f#5 v=0
18480 On ch=2 n=a5 v=54
18720 On ch=2 n=a5 v=0
18720 On ch=2 n=d6 v=54
18960 On ch=2 n=d6 v=0
18960 On ch=2 n=f#5 v=54
19200 On ch=2 n=f#5 v=0
19200 On ch=2 n=a5 v=54
19440 On ch=2 n=a5 v=0
19440 On ch=2 n=d6 v=53
19680 On ch=2 n=d6 v=0
19680 On ch=2 n=f#6 v=53
19920 On ch=2 n=f#6 v=0
19920 On ch=2 n=a5 v=53
20160 On ch=2 n=a5 v=0
20160 On ch=2 n=d6 v=53
20400 On ch=2 n=d6 v=0
20400 On ch=2 n=f#6 v=52
20640 On ch=2 n=f#6 v=0
20640 On ch=2 n=a6 v=52
20880 On ch=2 n=a6 v=0
20880 On ch=2 n=d6 v=52
21120 On ch=2 n=d6 v=0
21120 On ch=2 n=f#6 v=52
21360 On ch=2 n=f#6 v=0
21360 On ch=2 n=a6 v=51
21600 On ch=2 n=a6 v=0
21600 On ch=2 n=d7 v=51
21840 On ch=2 n=d7 v=0
21840 On ch=2 n=f#6 v=51
22080 On ch=2 n=f#6 v=0
22080 On ch=2 n=a6 v=51
22320 On ch=2 n=a6 v=0
22320 On ch=2 n=d7 v=50
22560 On ch=2 n=d7 v=0
22560 On ch=2 n=f#7 v=50
22800 On ch=2 n=f#7 v=0
22800 On ch=2 n=e7 v=50
23040 On ch=2 n=e7 v=0
23040 Par ch=2 c=64 v=0
23040 On ch=2 n=d7 v=50
23520 On ch=2 n=d7 v=0
23760 Par ch=2 c=64 v=127
23760 On ch=2 n=d5 v=49
24000 On ch=2 n=d5 v=0
24000 On ch=2 n=f#5 v=49
24240 On ch=2 n=f#5 v=0
24240 On ch=2 n=b5 v=49
24480 On ch=2 n=b5 v=0
24480 On ch=2 n=d6 v=48
24720 On ch=2 n=d6 v=0
24720 On ch=2 n=f#5 v=48
24960 On ch=2 n=f#5 v=0
24960 On ch=2 n=b5 v=48
25200 On ch=2 n=b5 v=0
25200 On ch=2 n=d6 v=48
25440 On ch=2 n=d6 v=0
25440 On ch=2 n=f#6 v=47
25680 On ch=2 n=f#6 v=0
25680 On ch=2 n=b5 v=47
25920 On ch=2 n=b5 v=0
25920 On ch=2 n=d6 v=47
26160 On ch=2 n=d6 v=0
26160 On ch=2 n=f#6 v=47
26400 On ch=2 n=f#6 v=0
26400 On ch=2 n=b6 v=46
26640 On ch=2 n=b6 v=0
26640 On ch=2 n=d6 v=46
26880 On ch=2 n=d6 v=0
26880 On ch=2 n=f#6 v=46
27120 On ch=2 n=f#6 v=0
27120 On ch=2 n=b6 v=46
27360 On ch=2 n=b6 v=0
27360 On ch=2 n=d7 v=45
27600 On ch=2 n=d7 v=0
27600 On ch=2 n=f#6 v=45
27840 On ch=2 n=f#6 v=0
27840 On ch=2 n=b6 v=45
28080 On ch=2 n=b6 v=0
28080 On ch=2 n=d7 v=45
28320 On ch=2 n=d7 v=0
28320 On ch=2 n=f#7 v=44
28560 On ch=2 n=f#7 v=0
28560 On ch=2 n=e7 v=44
28800 On ch=2 n=e7 v=0
28800 Par ch=2 c=64 v=0
28800 On ch=2 n=d7 v=44
28860 Par ch=2 c=64 v=0
29280 On ch=2 n=d7 v=0
29520 Par ch=2 c=64 v=127
29520 On ch=2 n=d5 v=43
29760 On ch=2 n=d5 v=0
29760 On ch=2 n=e5 v=43
30000 On ch=2 n=e5 v=0
30000 On ch=2 n=g#5 v=43
30240 On ch=2 n=g#5 v=0
30240 On ch=2 n=b5 v=43
30480 On ch=2 n=b5 v=0
30480 On ch=2 n=e5 v=42
30720 On ch=2 n=e5 v=0
30720 On ch=2 n=g#5 v=42
30960 On ch=2 n=g#5 v=0
30960 On ch=2 n=b5 v=42
31200 On ch=2 n=b5 v=0
31200 On ch=2 n=d6 v=42
31440 On ch=2 n=d6 v=0
31440 On ch=2 n=g#5 v=41
31680 On ch=2 n=g#5 v=0
31680 On ch=2 n=b5 v=41
31920 On ch=2 n=b5 v=0
31920 On ch=2 n=d6 v=41
32160 On ch=2 n=d6 v=0
32160 On ch=2 n=g#6 v=41
32400 On ch=2 n=g#6 v=0
32400 On ch=2 n=b5 v=40
32640 On ch=2 n=b5 v=0
32640 On ch=2 n=d6 v=40
32880 On ch=2 n=d6 v=0
32880 On ch=2 n=g#6 v=40
33120 On ch=2 n=g#6 v=0
33120 On ch=2 n=b6 v=40
33360 On ch=2 n=b6 v=0
33360 On ch=2 n=g#6 v=39
33600 On ch=2 n=g#6 v=0
33600 On ch=2 n=e6 v=39
33840 On ch=2 n=e6 v=0
33840 On ch=2 n=f#6 v=39
34080 On ch=2 n=f#6 v=0
34080 On ch=2 n=e6 v=39
34320 On ch=2 n=e6 v=0
34320 On ch=2 n=f#6 v=38
34560 On ch=2 n=f#6 v=0
34560 Par ch=2 c=64 v=0
34560 On ch=2 n=e6 v=42
36000 On ch=2 n=e6 v=0
36000 On ch=2 n=e6 v=48
37440 On ch=2 n=e6 v=0
37440 On ch=2 n=g6 v=62
38880 On ch=2 n=g6 v=0
38880 On ch=2 n=f#6 v=54
39360 On ch=2 n=f#6 v=0
39360 On ch=2 n=f#6 v=50
39840 On ch=2 n=f#6 v=0
39840 On ch=2 n=f#6 v=46
40320 On ch=2 n=f#6 v=0
40320 On ch=2 n=e6 v=43
41760 On ch=2 n=e6 v=0
41760 On ch=2 n=e6 v=46
43200 On ch=2 n=e6 v=0
43200 On ch=2 n=g6 v=59
44640 On ch=2 n=g6 v=0
44640 On ch=2 n=f#6 v=53
45120 On ch=2 n=f#6 v=0
45120 On ch=2 n=f#6 v=49
45600 On ch=2 n=f#6 v=0
45600 On ch=2 n=f#6 v=46
46080 On ch=2 n=f#6 v=0
46080 On ch=2 n=e6 v=44
46320 On ch=2 n=e6 v=0
46320 On ch=2 n=d6 v=44
46560 On ch=2 n=d6 v=0
46560 On ch=2 n=e6 v=45
46800 On ch=2 n=e6 v=0
46800 On ch=2 n=f#6 v=45
47040 On ch=2 n=f#6 v=0
47040 On ch=2 n=g#6 v=46
47280 On ch=2 n=g#6 v=0
47280 On ch=2 n=a6 v=46
47520 On ch=2 n=a6 v=0
47520 On ch=2 n=g#6 v=47
47760 On ch=2 n=g#6 v=0
47760 On ch=2 n=f#6 v=47
48000 On ch=2 n=f#6 v=0
48000 On ch=2 n=e6 v=47
48240 On ch=2 n=e6 v=0
48240 On ch=2 n=d6 v=48
48480 On ch=2 n=d6 v=0
48480 On ch=2 n=c#6 v=48
48720 On ch=2 n=c#6 v=0
48720 On ch=2 n=b5 v=49
48960 On ch=2 n=b5 v=0
48960 On ch=2 n=d6 v=49
49200 On ch=2 n=d6 v=0
49200 On ch=2 n=e6 v=50
49440 On ch=2 n=e6 v=0
49440 On ch=2 n=f#6 v=50
49680 On ch=2 n=f#6 v=0
49680 On ch=2 n=g#6 v=51
49920 On ch=2 n=g#6 v=0
49920 On ch=2 n=a6 v=51
50160 On ch=2 n=a6 v=0
50160 On ch=2 n=b6 v=52
50400 On ch=2 n=b6 v=0
50400 On ch=2 n=a6 v=52
50640 On ch=2 n=a6 v=0
50640 On ch=2 n=g6 v=53
50880 On ch=2 n=g6 v=0
50880 On ch=2 n=f#6 v=53
51120 On ch=2 n=f#6 v=0
51120 On ch=2 n=e6 v=53
51360 On ch=2 n=e6 v=0
51360 On ch=2 n=d6 v=54
51600 On ch=2 n=d6 v=0
51600 On ch=2 n=c#6 v=54
51840 On ch=2 n=c#6 v=0
51840 Par ch=2 c=64 v=0
51840 On ch=2 n=e6 v=55
51900 Par ch=2 c=64 v=127
52080 On ch=2 n=e6 v=0
52080 On ch=2 n=g6 v=55
52320 On ch=2 n=g6 v=0
52320 On ch=2 n=c#7 v=56
52560 On ch=2 n=c#7 v=0
52560 On ch=2 n=g6 v=56
52800 On ch=2 n=g6 v=0
52800 On ch=2 n=e7 v=57
53040 On ch=2 n=e7 v=0
53040 On ch=2 n=c#7 v=57
53280 On ch=2 n=c#7 v=0
53280 On ch=2 n=e7 v=68
53520 On ch=2 n=e7 v=0
53520 On ch=2 n=c#7 v=58
53760 On ch=2 n=c#7 v=0
53760 On ch=2 n=e7 v=59
54000 On ch=2 n=e7 v=0
54000 On ch=2 n=c#7 v=59
54240 On ch=2 n=c#7 v=0
54240 On ch=2 n=e7 v=60
54480 On ch=2 n=e7 v=0
54480 On ch=2 n=c#7 v=60
54720 On ch=2 n=c#7 v=0
54720 On ch=2 n=e7 v=72
54960 On ch=2 n=e7 v=0
54960 On ch=2 n=c#7 v=63
55200 On ch=2 n=c#7 v=0
55200 On ch=2 n=a6 v=62
55440 On ch=2 n=a6 v=0
55440 On ch=2 n=b6 v=62
55680 On ch=2 n=b6 v=0
55680 On ch=2 n=c#7 v=61
55920 On ch=2 n=c#7 v=0
55920 On ch=2 n=a6 v=60
56160 On ch=2 n=a6 v=0
56160 Par ch=2 c=64 v=0
56160 On ch=2 n=d7 v=60
56220 Par ch=2 c=64 v=127
56400 On ch=2 n=d7 v=0
56400 On ch=2 n=a6 v=59
56640 On ch=2 n=a6 v=0
56640 On ch=2 n=d7 v=58
56880 On ch=2 n=d7 v=0
56880 On ch=2 n=a6 v=57
57120 On ch=2 n=a6 v=0
57120 On ch=2 n=f#6 v=57
57360 On ch=2 n=f#6 v=0
57360 On ch=2 n=d6 v=56
57600 On ch=2 n=d6 v=0
57600 Par ch=2 c=64 v=0
57600 On ch=2 n=e6 v=56
57660 Par ch=2 c=64 v=127
57840 On ch=2 n=e6 v=0
57840 On ch=2 n=g6 v=59
58080 On ch=2 n=g6 v=0
58080 On ch=2 n=c#7 v=60
58320 On ch=2 n=c#7 v=0
58320 On ch=2 n=g6 v=61
58560 On ch=2 n=g6 v=0
58560 On ch=2 n=e7 v=62
58800 On ch=2 n=e7 v=0
58800 On ch=2 n=c#7 v=63
59040 On ch=2 n=c#7 v=0
59040 On ch=2 n=e7 v=74
59280 On ch=2 n=e7 v=0
59280 On ch=2 n=c#7 v=65
59520 On ch=2 n=c#7 v=0
59520 On ch=2 n=e7 v=66
59760 On ch=2 n=e7 v=0
59760 On ch=2 n=c#7 v=67
60000 On ch=2 n=c#7 v=0
60000 On ch=2 n=e7 v=67
60240 On ch=2 n=e7 v=0
60240 On ch=2 n=c#7 v=68
60480 On ch=2 n=c#7 v=0
60480 Par ch=2 c=64 v=0
60480 On ch=2 n=e7 v=78
60540 Par ch=2 c=64 v=127
60720 On ch=2 n=e7 v=0
60720 On ch=2 n=c#7 v=71
60960 On ch=2 n=c#7 v=0
60960 On ch=2 n=a6 v=70
61200 On ch=2 n=a6 v=0
61200 On ch=2 n=b6 v=69
61440 On ch=2 n=b6 v=0
61440 On ch=2 n=c#7 v=68
61680 On ch=2 n=c#7 v=0
61680 On ch=2 n=a6 v=67
61920 On ch=2 n=a6 v=0
61920 Par ch=2 c=64 v=0
61920 On ch=2 n=d7 v=66
61980 Par ch=2 c=64 v=127
62160 On ch=2 n=d7 v=0
62160 On ch=2 n=a6 v=65
62400 On ch=2 n=a6 v=0
62400 On ch=2 n=d7 v=64
62640 On ch=2 n=d7 v=0
62640 On ch=2 n=a6 v=63
62880 On ch=2 n=a6 v=0
62880 On ch=2 n=f#6 v=62
63120 On ch=2 n=f#6 v=0
63120 On ch=2 n=d6 v=61
63360 On ch=2 n=d6 v=0
63360 Par ch=2 c=64 v=0
63360 On ch=2 n=b6 v=60
63420 Par ch=2 c=64 v=127
63600 On ch=2 n=b6 v=0
63600 On ch=2 n=g6 v=59
63840 On ch=2 n=g6 v=0
63840 On ch=2 n=b6 v=58
64080 On ch=2 n=b6 v=0
64080 On ch=2 n=g6 v=57
64320 On ch=2 n=g6 v=0
64320 On ch=2 n=d6 v=56
64560 On ch=2 n=d6 v=0
64560 On ch=2 n=b5 v=55
64800 On ch=2 n=b5 v=0
64800 Par ch=2 c=64 v=0
64800 On ch=2 n=a5 v=54
65760 On ch=2 n=a5 v=0
65760 On ch=2 n=e6 v=50
65820 On ch=2 n=e6 v=0
65820 On ch=2 n=f#6 v=52
65880 On ch=2 n=f#6 v=0
65880 On ch=2 n=e6 v=53
65940 On ch=2 n=e6 v=0
65940 On ch=2 n=f#6 v=55
66000 On ch=2 n=f#6 v=0
66000 On ch=2 n=e6 v=56
66040 On ch=2 n=e6 v=0
66040 On ch=2 n=f#6 v=57
66080 On ch=2 n=f#6 v=0
66080 On ch=2 n=e6 v=58
66120 On ch=2 n=e6 v=0
66120 On ch=2 n=d6 v=61
66180 On ch=2 n=d6 v=0
66180 On ch=2 n=e6 v=66
66240 On ch=2 n=e6 v=0
66240 On ch=2 n=d6 v=83
66480 On ch=2 n=d6 v=0
66720 On ch=2 n=a6 v=82
66912 On ch=2 n=a6 v=0
67200 On ch=2 n=d6 v=81
67392 On ch=2 n=d6 v=0
68160 On ch=2 n=g6 v=78
68352 On ch=2 n=g6 v=0
68640 On ch=2 n=c#6 v=76
68832 On ch=2 n=c#6 v=0
69600 On ch=2 n=d6 v=53
69792 On ch=2 n=d6 v=0
70080 On ch=2 n=b5 v=51
70272 On ch=2 n=b5 v=0
71040 On ch=2 n=c6 v=48
71232 On ch=2 n=c6 v=0
71520 On ch=2 n=a5 v=46
71712 On ch=2 n=a5 v=0
72000 Par ch=2 c=64 v=0
72000 On ch=2 n=g6 v=77
72240 On ch=2 n=g6 v=0
72480 On ch=2 n=b6 v=80
72672 On ch=2 n=b6 v=0
72960 On ch=2 n=g6 v=82
73152 On ch=2 n=g6 v=0
73440 On ch=2 n=d7 v=88
74400 On ch=2 n=d7 v=0
74400 On ch=2 n=c7 v=82
74640 On ch=2 n=c7 v=0
74640 On ch=2 n=b6 v=82
74880 On ch=2 n=b6 v=0
74880 On ch=2 n=a6 v=82
75120 On ch=2 n=a6 v=0
75120 On ch=2 n=g6 v=81
75360 On ch=2 n=g6 v=0
75360 On ch=2 n=f#6 v=81
75600 On ch=2 n=f#6 v=0
75600 On ch=2 n=g6 v=81
75840 On ch=2 n=g6 v=0
75840 On ch=2 n=b6 v=80
76080 On ch=2 n=b6 v=0
76080 On ch=2 n=g6 v=80
76320 On ch=2 n=g6 v=0
76320 On ch=2 n=f#6 v=80
76800 On ch=2 n=f#6 v=0
76800 On ch=2 n=e6 v=76
77160 On ch=2 n=e6 v=0
77280 On ch=2 n=d6 v=78
77520 On ch=2 n=d6 v=0
77520 On ch=2 n=c6 v=78
77760 On ch=2 n=c6 v=0
77760 On ch=2 n=b5 v=78
78000 On ch=2 n=b5 v=0
78000 On ch=2 n=a5 v=77
78240 On ch=2 n=a5 v=0
78240 On ch=2 n=g#5 v=77
78480 On ch=2 n=g#5 v=0
78480 On ch=2 n=a5 v=77
78720 On ch=2 n=a5 v=0
78720 On ch=2 n=c6 v=76
78960 On ch=2 n=c6 v=0
78960 On ch=2 n=a5 v=76
79200 On ch=2 n=a5 v=0
79200 On ch=2 n=f#5 v=76
80160 On ch=2 n=f#5 v=0
80160 On ch=2 n=a5 v=74
80400 On ch=2 n=a5 v=0
80640 On ch=2 n=c6 v=74
80832 On ch=2 n=c6 v=0
81120 On ch=2 n=a5 v=73
81312 On ch=2 n=a5 v=0
81600 On ch=2 n=f#5 v=72
81792 On ch=2 n=f#5 v=0
82080 On ch=2 n=g5 v=72
82320 On ch=2 n=g5 v=0
82320 On ch=2 n=d5 v=73
82560 On ch=2 n=d5 v=0
82560 On ch=2 n=c#5 v=73
82800 On ch=2 n=c#5 v=0
82800 On ch=2 n=d5 v=74
83040 On ch=2 n=d5 v=0
83040 On ch=2 n=f#5 v=75
83280 On ch=2 n=f#5 v=0
83280 On ch=2 n=g5 v=76
83520 On ch=2 n=g5 v=0
83520 On ch=2 n=a5 v=76
83760 On ch=2 n=a5 v=0
83760 On ch=2 n=d5 v=77
84000 On ch=2 n=d5 v=0
84000 On ch=2 n=c#5 v=78
84240 On ch=2 n=c#5 v=0
84240 On ch=2 n=d5 v=78
84480 On ch=2 n=d5 v=0
84480 On ch=2 n=g5 v=79
84720 On ch=2 n=g5 v=0
84720 On ch=2 n=a5 v=80
84960 On ch=2 n=a5 v=0
84960 On ch=2 n=b5 v=81
85200 On ch=2 n=b5 v=0
85200 On ch=2 n=g5 v=81
85440 On ch=2 n=g5 v=0
85440 On ch=2 n=f#5 v=82
85680 On ch=2 n=f#5 v=0
85680 On ch=2 n=g5 v=83
85920 On ch=2 n=g5 v=0
85920 On ch=2 n=c6 v=84
86160 On ch=2 n=c6 v=0
86160 On ch=2 n=d6 v=84
86400 On ch=2 n=d6 v=0
86400 On ch=2 n=e6 v=88
86640 On ch=2 n=e6 v=0
86640 On ch=2 n=d6 v=86
86880 On ch=2 n=d6 v=0
86880 On ch=2 n=c6 v=82
87120 On ch=2 n=c6 v=0
87120 On ch=2 n=b5 v=78
87360 On ch=2 n=b5 v=0
87360 On ch=2 n=a5 v=74
87600 On ch=2 n=a5 v=0
87600 On ch=2 n=g5 v=70
87840 On ch=2 n=g5 v=0
87840 On ch=2 n=f#5 v=59
88320 On ch=2 n=f#5 v=0
88560 Par ch=2 c=64 v=127
88560 On ch=2 n=d5 v=55
88800 On ch=2 n=d5 v=0
88800 On ch=2 n=f#5 v=55
89040 On ch=2 n=f#5 v=0
89040 On ch=2 n=a5 v=54
89280 On ch=2 n=a5 v=0
89280 On ch=2 n=d6 v=54
89520 On ch=2 n=d6 v=0
89520 On ch=2 n=f#5 v=54
89760 On ch=2 n=f#5 v=0
89760 On ch=2 n=a5 v=54
90000 On ch=2 n=a5 v=0
90000 On ch=2 n=d6 v=53
90240 On ch=2 n=d6 v=0
90240 On ch=2 n=f#6 v=53
90480 On ch=2 n=f#6 v=0
90480 On ch=2 n=a5 v=53
90720 On ch=2 n=a5 v=0
90720 On ch=2 n=d6 v=53
90960 On ch=2 n=d6 v=0
90960 On ch=2 n=f#6 v=52
91200 On ch=2 n=f#6 v=0
91200 On ch=2 n=a6 v=52
91440 On ch=2 n=a6 v=0
91440 On ch=2 n=d6 v=52
91680 On ch=2 n=d6 v=0
91680 On ch=2 n=f#6 v=52
91920 On ch=2 n=f#6 v=0
91920 On ch=2 n=a6 v=51
92160 On ch=2 n=a6 v=0
92160 On ch=2 n=d7 v=51
92400 On ch=2 n=d7 v=0
92400 On ch=2 n=f#6 v=51
92640 On ch=2 n=f#6 v=0
92640 On ch=2 n=a6 v=51
92880 On ch=2 n=a6 v=0
92880 On ch=2 n=d7 v=50
93120 On ch=2 n=d7 v=0
93120 On ch=2 n=f#7 v=50
93360 On ch=2 n=f#7 v=0
93360 On ch=2 n=e7 v=50
93600 On ch=2 n=e7 v=0
93600 Par ch=2 c=64 v=0
93600 On ch=2 n=d7 v=50
94080 On ch=2 n=d7 v=0
94320 Par ch=2 c=64 v=127
94320 On ch=2 n=d5 v=49
94560 On ch=2 n=d5 v=0
94560 On ch=2 n=f#5 v=49
94800 On ch=2 n=f#5 v=0
94800 On ch=2 n=b5 v=49
95040 On ch=2 n=b5 v=0
95040 On ch=2 n=d6 v=48
95280 On ch=2 n=d6 v=0
95280 On ch=2 n=f#5 v=48
95520 On ch=2 n=f#5 v=0
95520 On ch=2 n=b5 v=48
95760 On ch=2 n=b5 v=0
95760 On ch=2 n=d6 v=48
96000 On ch=2 n=d6 v=0
96000 On ch=2 n=f#6 v=47
96240 On ch=2 n=f#6 v=0
96240 On ch=2 n=b5 v=47
96480 On ch=2 n=b5 v=0
96480 On ch=2 n=d6 v=47
96720 On ch=2 n=d6 v=0
96720 On ch=2 n=f#6 v=47
96960 On ch=2 n=f#6 v=0
96960 On ch=2 n=b6 v=46
97200 On ch=2 n=b6 v=0
97200 On ch=2 n=d6 v=46
97440 On ch=2 n=d6 v=0
97440 On ch=2 n=f#6 v=46
97680 On ch=2 n=f#6 v=0
97680 On ch=2 n=b6 v=46
97920 On ch=2 n=b6 v=0
97920 On ch=2 n=d7 v=45
98160 On ch=2 n=d7 v=0
98160 On ch=2 n=f#6 v=45
98400 On ch=2 n=f#6 v=0
98400 On ch=2 n=b6 v=45
98640 On ch=2 n=b6 v=0
98640 On ch=2 n=d7 v=45
98880 On ch=2 n=d7 v=0
98880 On ch=2 n=f#7 v=44
99120 On ch=2 n=f#7 v=0
99120 On ch=2 n=e7 v=44
99360 On ch=2 n=e7 v=0
99360 Par ch=2 c=64 v=0
99360 On ch=2 n=d7 v=44
99420 Par ch=2 c=64 v=0
99840 On ch=2 n=d7 v=0
100080 Par ch=2 c=64 v=127
100080 On ch=2 n=d5 v=43
100320 On ch=2 n=d5 v=0
100320 On ch=2 n=e5 v=43
100560 On ch=2 n=e5 v=0
100560 On ch=2 n=g#5 v=43
100800 On ch=2 n=g#5 v=0
100800 On ch=2 n=b5 v=43
101040 On ch=2 n=b5 v=0
101040 On ch=2 n=e5 v=42
101280 On ch=2 n=e5 v=0
101280 On ch=2 n=g#5 v=42
101520 On ch=2 n=g#5 v=0
101520 On ch=2 n=b5 v=42
101760 On ch=2 n=b5 v=0
101760 On ch=2 n=d6 v=42
102000 On ch=2 n=d6 v=0
102000 On ch=2 n=g#5 v=41
102240 On ch=2 n=g#5 v=0
102240 On ch=2 n=b5 v=41
102480 On ch=2 n=b5 v=0
102480 On ch=2 n=d6 v=41
102720 On ch=2 n=d6 v=0
102720 On ch=2 n=g#6 v=41
102960 On ch=2 n=g#6 v=0
102960 On ch=2 n=b5 v=40
103200 On ch=2 n=b5 v=0
103200 On ch=2 n=d6 v=40
103440 On ch=2 n=d6 v=0
103440 On ch=2 n=g#6 v=40
103680 On ch=2 n=g#6 v=0
103680 On ch=2 n=b6 v=40
103920 On ch=2 n=b6 v=0
103920 On ch=2 n=g#6 v=39
104160 On ch=2 n=g#6 v=0
104160 On ch=2 n=e6 v=39
104400 On ch=2 n=e6 v=0
104400 On ch=2 n=f#6 v=39
104640 On ch=2 n=f#6 v=0
104640 On ch=2 n=e6 v=39
104880 On ch=2 n=e6 v=0
104880 On ch=2 n=f#6 v=38
105120 On ch=2 n=f#6 v=0
105120 Par ch=2 c=64 v=0
105120 On ch=2 n=e6 v=42
106560 On ch=2 n=e6 v=0
106560 On ch=2 n=e6 v=48
108000 On ch=2 n=e6 v=0
108000 On ch=2 n=g6 v=62
109440 On ch=2 n=g6 v=0
109440 On ch=2 n=f#6 v=54
109920 On ch=2 n=f#6 v=0
109920 On ch=2 n=f#6 v=50
110400 On ch=2 n=f#6 v=0
110400 On ch=2 n=f#6 v=46
110880 On ch=2 n=f#6 v=0
110880 On ch=2 n=e6 v=43
112320 On ch=2 n=e6 v=0
112320 On ch=2 n=e6 v=46
113760 On ch=2 n=e6 v=0
113760 On ch=2 n=g6 v=59
115200 On ch=2 n=g6 v=0
115200 On ch=2 n=f#6 v=53
115680 On ch=2 n=f#6 v=0
115680 On ch=2 n=f#6 v=49
116160 On ch=2 n=f#6 v=0
116160 On ch=2 n=f#6 v=46
116640 On ch=2 n=f#6 v=0
116640 On ch=2 n=e6 v=44
116880 On ch=2 n=e6 v=0
116880 On ch=2 n=d6 v=44
117120 On ch=2 n=d6 v=0
117120 On ch=2 n=e6 v=45
117360 On ch=2 n=e6 v=0
117360 On ch=2 n=f#6 v=45
117600 On ch=2 n=f#6 v=0
117600 On ch=2 n=g#6 v=46
117840 On ch=2 n=g#6 v=0
117840 On ch=2 n=a6 v=46
118080 On ch=2 n=a6 v=0
118080 On ch=2 n=g#6 v=47
118320 On ch=2 n=g#6 v=0
118320 On ch=2 n=f#6 v=47
118560 On ch=2 n=f#6 v=0
118560 On ch=2 n=e6 v=47
118800 On ch=2 n=e6 v=0
118800 On ch=2 n=d6 v=48
119040 On ch=2 n=d6 v=0
119040 On ch=2 n=c#6 v=48
119280 On ch=2 n=c#6 v=0
119280 On ch=2 n=b5 v=49
119520 On ch=2 n=b5 v=0
119520 On ch=2 n=d6 v=49
119760 On ch=2 n=d6 v=0
119760 On ch=2 n=e6 v=50
120000 On ch=2 n=e6 v=0
120000 On ch=2 n=f#6 v=50
120240 On ch=2 n=f#6 v=0
120240 On ch=2 n=g#6 v=51
120480 On ch=2 n=g#6 v=0
120480 On ch=2 n=a6 v=51
120720 On ch=2 n=a6 v=0
120720 On ch=2 n=b6 v=52
120960 On ch=2 n=b6 v=0
120960 On ch=2 n=a6 v=52
121200 On ch=2 n=a6 v=0
121200 On ch=2 n=g6 v=53
121440 On ch=2 n=g6 v=0
121440 On ch=2 n=f#6 v=53
121680 On ch=2 n=f#6 v=0
121680 On ch=2 n=e6 v=53
121920 On ch=2 n=e6 v=0
121920 On ch=2 n=d6 v=54
122160 On ch=2 n=d6 v=0
122160 On ch=2 n=c#6 v=54
122400 On ch=2 n=c#6 v=0
122400 Par ch=2 c=64 v=0
122400 On ch=2 n=e6 v=55
122460 Par ch=2 c=64 v=127
122640 On ch=2 n=e6 v=0
122640 On ch=2 n=g6 v=55
122880 On ch=2 n=g6 v=0
122880 On ch=2 n=c#7 v=56
123120 On ch=2 n=c#7 v=0
123120 On ch=2 n=g6 v=56
123360 On ch=2 n=g6 v=0
123360 On ch=2 n=e7 v=57
123600 On ch=2 n=e7 v=0
123600 On ch=2 n=c#7 v=57
123840 On ch=2 n=c#7 v=0
123840 On ch=2 n=e7 v=68
124080 On ch=2 n=e7 v=0
124080 On ch=2 n=c#7 v=58
124320 On ch=2 n=c#7 v=0
124320 On ch=2 n=e7 v=59
124560 On ch=2 n=e7 v=0
124560 On ch=2 n=c#7 v=59
124800 On ch=2 n=c#7 v=0
124800 On ch=2 n=e7 v=60
125040 On ch=2 n=e7 v=0
125040 On ch=2 n=c#7 v=60
125280 On ch=2 n=c#7 v=0
125280 On ch=2 n=e7 v=72
125520 On ch=2 n=e7 v=0
125520 On ch=2 n=c#7 v=63
125760 On ch=2 n=c#7 v=0
125760 On ch=2 n=a6 v=62
126000 On ch=2 n=a6 v=0
126000 On ch=2 n=b6 v=62
126240 On ch=2 n=b6 v=0
126240 On ch=2 n=c#7 v=61
126480 On ch=2 n=c#7 v=0
126480 On ch=2 n=a6 v=60
126720 On ch=2 n=a6 v=0
126720 Par ch=2 c=64 v=0
126720 On ch=2 n=d7 v=60
126780 Par ch=2 c=64 v=127
126960 On ch=2 n=d7 v=0
126960 On ch=2 n=a6 v=59
127200 On ch=2 n=a6 v=0
127200 On ch=2 n=d7 v=58
127440 On ch=2 n=d7 v=0
127440 On ch=2 n=a6 v=57
127680 On ch=2 n=a6 v=0
127680 On ch=2 n=f#6 v=57
127920 On ch=2 n=f#6 v=0
127920 On ch=2 n=d6 v=56
128160 On ch=2 n=d6 v=0
128160 Par ch=2 c=64 v=0
128160 On ch=2 n=e6 v=56
128220 Par ch=2 c=64 v=127
128400 On ch=2 n=e6 v=0
128400 On ch=2 n=g6 v=59
128640 On ch=2 n=g6 v=0
128640 On ch=2 n=c#7 v=60
128880 On ch=2 n=c#7 v=0
128880 On ch=2 n=g6 v=61
129120 On ch=2 n=g6 v=0
129120 On ch=2 n=e7 v=62
129360 On ch=2 n=e7 v=0
129360 On ch=2 n=c#7 v=63
129600 On ch=2 n=c#7 v=0
129600 On ch=2 n=e7 v=74
129840 On ch=2 n=e7 v=0
129840 On ch=2 n=c#7 v=65
130080 On ch=2 n=c#7 v=0
130080 On ch=2 n=e7 v=66
130320 On ch=2 n=e7 v=0
130320 On ch=2 n=c#7 v=67
130560 On ch=2 n=c#7 v=0
130560 On ch=2 n=e7 v=67
130800 On ch=2 n=e7 v=0
130800 On ch=2 n=c#7 v=68
131040 On ch=2 n=c#7 v=0
131040 Par ch=2 c=64 v=0
131040 On ch=2 n=e7 v=78
131100 Par ch=2 c=64 v=127
131280 On ch=2 n=e7 v=0
131280 On ch=2 n=c#7 v=71
131520 On ch=2 n=c#7 v=0
131520 On ch=2 n=a6 v=70
131760 On ch=2 n=a6 v=0
131760 On ch=2 n=b6 v=69
132000 On ch=2 n=b6 v=0
132000 On ch=2 n=c#7 v=68
132240 On ch=2 n=c#7 v=0
132240 On ch=2 n=a6 v=67
132480 On ch=2 n=a6 v=0
132480 Par ch=2 c=64 v=0
132480 On ch=2 n=d7 v=66
132540 Par ch=2 c=64 v=127
132720 On ch=2 n=d7 v=0
132720 On ch=2 n=a6 v=65
132960 On ch=2 n=a6 v=0
132960 On ch=2 n=d7 v=64
133200 On ch=2 n=d7 v=0
133200 On ch=2 n=a6 v=63
133440 On ch=2 n=a6 v=0
133440 On ch=2 n=f#6 v=62
133680 On ch=2 n=f#6 v=0
133680 On ch=2 n=d6 v=61
133920 On ch=2 n=d6 v=0
133920 Par ch=2 c=64 v=0
133920 On ch=2 n=b6 v=60
133980 Par ch=2 c=64 v=127
134160 On ch=2 n=b6 v=0
134160 On ch=2 n=g6 v=59
134400 On ch=2 n=g6 v=0
134400 On ch=2 n=b6 v=58
134640 On ch=2 n=b6 v=0
134640 On ch=2 n=g6 v=57
134880 On ch=2 n=g6 v=0
134880 On ch=2 n=d6 v=56
135120 On ch=2 n=d6 v=0
135120 On ch=2 n=b5 v=55
135360 On ch=2 n=b5 v=0
135360 Par ch=2 c=64 v=0
135360 On ch=2 n=a5 v=54
136320 On ch=2 n=a5 v=0
136320 On ch=2 n=e6 v=50
136380 On ch=2 n=e6 v=0
136380 On ch=2 n=f#6 v=52
136440 On ch=2 n=f#6 v=0
136440 On ch=2 n=e6 v=53
136500 On ch=2 n=e6 v=0
136500 On ch=2 n=f#6 v=55
136560 On ch=2 n=f#6 v=0
136560 On ch=2 n=e6 v=56
136600 On ch=2 n=e6 v=0
136600 On ch=2 n=f#6 v=57
136640 On ch=2 n=f#6 v=0
136640 On ch=2 n=e6 v=58
136680 On ch=2 n=e6 v=0
136680 On ch=2 n=d6 v=61
136740 On ch=2 n=d6 v=0
136740 On ch=2 n=e6 v=66
136800 On ch=2 n=e6 v=0
136800 On ch=2 n=d6 v=83
137040 On ch=2 n=d6 v=0
137280 On ch=2 n=a6 v=82
137472 On ch=2 n=a6 v=0
137760 On ch=2 n=d6 v=81
137952 On ch=2 n=d6 v=0
138720 On ch=2 n=g6 v=78
138912 On ch=2 n=g6 v=0
139200 On ch=2 n=c#6 v=76
139392 On ch=2 n=c#6 v=0
140160 On ch=2 n=d6 v=53
140352 On ch=2 n=d6 v=0
140640 On ch=2 n=b5 v=51
140832 On ch=2 n=b5 v=0
141600 On ch=2 n=c6 v=48
141792 On ch=2 n=c6 v=0
142080 On ch=2 n=a5 v=46
142272 On ch=2 n=a5 v=0
142560 Par ch=2 c=64 v=0
143040 On ch=2 n=b6 v=83
143232 On ch=2 n=b6 v=0
143520 On ch=2 n=g#6 v=81
143712 On ch=2 n=g#6 v=0
144480 On ch=2 n=a6 v=76
144672 On ch=2 n=a6 v=0
144960 On ch=2 n=f#6 v=74
145152 On ch=2 n=f#6 v=0
145440 On ch=2 n=e6 v=74
145632 On ch=2 n=e6 v=0
145920 On ch=2 n=g#6 v=77
146112 On ch=2 n=g#6 v=0
146400 On ch=2 n=e6 v=80
146592 On ch=2 n=e6 v=0
146880 On ch=2 n=b6 v=89
147840 On ch=2 n=b6 v=0
147840 On ch=2 n=a6 v=85
148080 On ch=2 n=a6 v=0
148080 On ch=2 n=g#6 v=84
148320 On ch=2 n=g#6 v=0
148320 On ch=2 n=f#6 v=84
148560 On ch=2 n=f#6 v=0
148560 On ch=2 n=e6 v=83
148800 On ch=2 n=e6 v=0
148800 On ch=2 n=d#6 v=82
149040 On ch=2 n=d#6 v=0
149040 On ch=2 n=e6 v=81
149280 On ch=2 n=e6 v=0
149280 On ch=2 n=g#6 v=81
149520 On ch=2 n=g#6 v=0
149520 On ch=2 n=e6 v=80
149760 On ch=2 n=e6 v=0
149760 On ch=2 n=d#6 v=79
150240 On ch=2 n=d#6 v=0
150240 On ch=2 n=c#6 v=75
150600 On ch=2 n=c#6 v=0
150720 On ch=2 n=b5 v=77
150960 On ch=2 n=b5 v=0
150960 On ch=2 n=a5 v=76
151200 On ch=2 n=a5 v=0
151200 On ch=2 n=g#5 v=75
151440 On ch=2 n=g#5 v=0
151440 On ch=2 n=f#5 v=75
151680 On ch=2 n=f#5 v=0
151680 On ch=2 n=f5 v=74
151920 On ch=2 n=f5 v=0
151920 On ch=2 n=f#5 v=73
152160 On ch=2 n=f#5 v=0
152160 On ch=2 n=a5 v=72
152400 On ch=2 n=a5 v=0
152400 On ch=2 n=f#5 v=72
152640 On ch=2 n=f#5 v=0
152640 On ch=2 n=d#5 v=71
153600 On ch=2 n=d#5 v=0
153600 On ch=2 n=f#5 v=68
153840 On ch=2 n=f#5 v=0
154080 On ch=2 n=a5 v=67
154272 On ch=2 n=a5 v=0
154560 On ch=2 n=f#5 v=66
154752 On ch=2 n=f#5 v=0
155040 On ch=2 n=d#5 v=64
155232 On ch=2 n=d#5 v=0
155520 On ch=2 n=e5 v=57
155712 On ch=2 n=e5 v=0
156000 On ch=2 n=g#5 v=57
156192 On ch=2 n=g#5 v=0
156480 On ch=2 n=e5 v=56
156672 On ch=2 n=e5 v=0
156960 On ch=2 n=e5 v=56
157152 On ch=2 n=e5 v=0
157440 On ch=2 n=g#5 v=56
157632 On ch=2 n=g#5 v=0
157920 On ch=2 n=e5 v=55
158112 On ch=2 n=e5 v=0
158400 On ch=2 n=e5 v=55
158592 On ch=2 n=e5 v=0
158880 On ch=2 n=g#5 v=55
159072 On ch=2 n=g#5 v=0
159360 On ch=2 n=e5 v=54
159552 On ch=2 n=e5 v=0
159840 On ch=2 n=d#5 v=54
160032 On ch=2 n=d#5 v=0
160320 On ch=2 n=f#5 v=54
160512 On ch=2 n=f#5 v=0
160800 On ch=2 n=d#5 v=53
160992 On ch=2 n=d#5 v=0
161280 On ch=2 n=d#5 v=53
161472 On ch=2 n=d#5 v=0
161760 On ch=2 n=f#5 v=52
161952 On ch=2 n=f#5 v=0
162240 On ch=2 n=d#5 v=52
162432 On ch=2 n=d#5 v=0
162720 On ch=2 n=d#5 v=52
162912 On ch=2 n=d#5 v=0
163200 On ch=2 n=f#5 v=51
163392 On ch=2 n=f#5 v=0
163680 On ch=2 n=d#5 v=51
163872 On ch=2 n=d#5 v=0
164160 On ch=2 n=d#5 v=51
164352 On ch=2 n=d#5 v=0
164640 On ch=2 n=f#5 v=50
164832 On ch=2 n=f#5 v=0
165120 On ch=2 n=d#5 v=50
165312 On ch=2 n=d#5 v=0
165600 On ch=2 n=e5 v=45
165792 On ch=2 n=e5 v=0
166080 On ch=2 n=e5 v=42
166272 On ch=2 n=e5 v=0
166560 On ch=2 n=e5 v=43
166752 On ch=2 n=e5 v=0
167040 On ch=2 n=c5 v=43
167232 On ch=2 n=c5 v=0
167520 On ch=2 n=e5 v=42
167712 On ch=2 n=e5 v=0
168000 On ch=2 n=c5 v=42
168192 On ch=2 n=c5 v=0
168480 On ch=2 n=c5 v=42
168672 On ch=2 n=c5 v=0
168960 On ch=2 n=e5 v=41
169152 On ch=2 n=e5 v=0
169440 On ch=2 n=c5 v=41
169632 On ch=2 n=c5 v=0
169920 On ch=2 n=c5 v=41
170112 On ch=2 n=c5 v=0
170400 On ch=2 n=e5 v=40
170592 On ch=2 n=e5 v=0
170880 On ch=2 n=c5 v=40
171072 On ch=2 n=c5 v=0
171360 On ch=2 n=b4 v=40
171552 On ch=2 n=b4 v=0
171840 On ch=2 n=d5 v=40
172032 On ch=2 n=d5 v=0
172320 On ch=2 n=b4 v=39
172512 On ch=2 n=b4 v=0
172800 On ch=2 n=b4 v=39
172992 On ch=2 n=b4 v=0
173280 On ch=2 n=d5 v=39
173472 On ch=2 n=d5 v=0
173760 On ch=2 n=b4 v=38
173952 On ch=2 n=b4 v=0
174240 On ch=2 n=b4 v=38
174432 On ch=2 n=b4 v=0
174720 On ch=2 n=d5 v=38
174912 On ch=2 n=d5 v=0
175200 On ch=2 n=b4 v=38
175392 On ch=2 n=b4 v=0
175680 On ch=2 n=b4 v=37
175872 On ch=2 n=b4 v=0
176160 On ch=2 n=d5 v=37
176352 On ch=2 n=d5 v=0
176640 On ch=2 n=b4 v=37
176832 On ch=2 n=b4 v=0
177120 On ch=2 n=c5 v=36
177312 On ch=2 n=c5 v=0
177600 On ch=2 n=c5 v=36
177792 On ch=2 n=c5 v=0
178080 On ch=2 n=c5 v=36
178272 On ch=2 n=c5 v=0
178560 On ch=2 n=c5 v=72
178800 On ch=2 n=c5 v=0
178800 On ch=2 n=g4 v=72
179040 On ch=2 n=g4 v=0
179040 On ch=2 n=f#4 v=73
179280 On ch=2 n=f#4 v=0
179280 On ch=2 n=g4 v=73
179520 On ch=2 n=g4 v=0
179520 On ch=2 n=b4 v=74
179760 On ch=2 n=b4 v=0
179760 On ch=2 n=c5 v=74
180000 On ch=2 n=c5 v=0
180000 On ch=2 n=d5 v=75
180240 On ch=2 n=d5 v=0
180240 On ch=2 n=g4 v=75
180480 On ch=2 n=g4 v=0
180480 On ch=2 n=f#4 v=76
180720 On ch=2 n=f#4 v=0
180720 On ch=2 n=g4 v=76
180960 On ch=2 n=g4 v=0
180960 On ch=2 n=c5 v=77
181200 On ch=2 n=c5 v=0
181200 On ch=2 n=d5 v=77
181440 On ch=2 n=d5 v=0
181440 On ch=2 n=e5 v=78
181680 On ch=2 n=e5 v=0
181680 On ch=2 n=c5 v=79
181920 On ch=2 n=c5 v=0
181920 On ch=2 n=b4 v=79
182160 On ch=2 n=b4 v=0
182160 On ch=2 n=c5 v=80
182400 On ch=2 n=c5 v=0
182400 On ch=2 n=f5 v=80
182640 On ch=2 n=f5 v=0
182640 On ch=2 n=g5 v=81
182880 On ch=2 n=g5 v=0
182880 On ch=2 n=a5 v=83
183120 On ch=2 n=a5 v=0
183120 On ch=2 n=g5 v=82
183360 On ch=2 n=g5 v=0
183360 On ch=2 n=f5 v=80
183600 On ch=2 n=f5 v=0
183600 On ch=2 n=e5 v=80
183840 On ch=2 n=e5 v=0
183840 On ch=2 n=d5 v=77
184080 On ch=2 n=d5 v=0
184080 On ch=2 n=c5 v=75
184320 On ch=2 n=c5 v=0
184320 On ch=2 n=b4 v=72
184800 On ch=2 n=b4 v=0
185280 On ch=2 n=f6 v=48
185520 On ch=2 n=f6 v=0
185520 On ch=2 n=g6 v=50
185760 On ch=2 n=g6 v=0
185760 On ch=2 n=a6 v=55
186000 On ch=2 n=a6 v=0
186000 On ch=2 n=g6 v=53
186240 On ch=2 n=g6 v=0
186240 On ch=2 n=f6 v=51
186480 On ch=2 n=f6 v=0
186480 On ch=2 n=e6 v=50
186720 On ch=2 n=e6 v=0
186720 On ch=2 n=d6 v=48
186960 On ch=2 n=d6 v=0
186960 On ch=2 n=c6 v=46
187200 On ch=2 n=c6 v=0
187200 On ch=2 n=b5 v=44
187680 On ch=2 n=b5 v=0
188160 On ch=2 n=f5 v=48
188400 On ch=2 n=f5 v=0
188400 On ch=2 n=g5 v=52
188640 On ch=2 n=g5 v=0
188640 On ch=2 n=g#5 v=55
188880 On ch=2 n=g#5 v=0
188880 On ch=2 n=g5 v=59
189120 On ch=2 n=g5 v=0
189120 On ch=2 n=f5 v=62
189360 On ch=2 n=f5 v=0
189360 On ch=2 n=d#5 v=66
189600 On ch=2 n=d#5 v=0
189600 On ch=2 n=d5 v=69
189840 On ch=2 n=d5 v=0
189840 On ch=2 n=g5 v=73
190080 On ch=2 n=g5 v=0
190080 On ch=2 n=c5 v=71
190272 On ch=2 n=c5 v=0
190560 On ch=2 n=d#5 v=71
190752 On ch=2 n=d#5 v=0
191040 On ch=2 n=c5 v=71
191232 On ch=2 n=c5 v=0
191520 On ch=2 n=c5 v=70
191712 On ch=2 n=c5 v=0
192000 On ch=2 n=d#5 v=70
192192 On ch=2 n=d#5 v=0
192480 On ch=2 n=c5 v=70
192672 On ch=2 n=c5 v=0
192960 On ch=2 n=c5 v=69
193152 On ch=2 n=c5 v=0
193440 On ch=2 n=d#5 v=69
193632 On ch=2 n=d#5 v=0
193920 On ch=2 n=c5 v=68
194112 On ch=2 n=c5 v=0
194400 On ch=2 n=b4 v=68
194592 On ch=2 n=b4 v=0
194880 On ch=2 n=d5 v=68
195072 On ch=2 n=d5 v=0
195360 On ch=2 n=b4 v=67
195552 On ch=2 n=b4 v=0
195840 On ch=2 n=b4 v=67
196032 On ch=2 n=b4 v=0
196320 On ch=2 n=d5 v=66
196512 On ch=2 n=d5 v=0
196800 On ch=2 n=b4 v=66
196992 On ch=2 n=b4 v=0
197280 On ch=2 n=b4 v=66
197472 On ch=2 n=b4 v=0
197760 On ch=2 n=d5 v=65
197952 On ch=2 n=d5 v=0
198240 On ch=2 n=b4 v=65
198432 On ch=2 n=b4 v=0
198720 On ch=2 n=b4 v=65
198912 On ch=2 n=b4 v=0
199200 On ch=2 n=d5 v=64
199392 On ch=2 n=d5 v=0
199680 On ch=2 n=b4 v=64
199872 On ch=2 n=b4 v=0
200160 On ch=2 n=c5 v=51
200352 On ch=2 n=c5 v=0
200640 On ch=2 n=c5 v=51
200880 On ch=2 n=c5 v=0
201120 On ch=2 n=d5 v=50
201360 On ch=2 n=d5 v=0
201600 On ch=2 n=d#5 v=50
201792 On ch=2 n=d#5 v=0
202080 On ch=2 n=g5 v=50
202272 On ch=2 n=g5 v=0
202560 On ch=2 n=d#5 v=49
202752 On ch=2 n=d#5 v=0
203040 On ch=2 n=d#5 v=49
203232 On ch=2 n=d#5 v=0
203520 On ch=2 n=g5 v=48
203712 On ch=2 n=g5 v=0
204000 On ch=2 n=d#5 v=48
204192 On ch=2 n=d#5 v=0
204480 On ch=2 n=d#5 v=47
204672 On ch=2 n=d#5 v=0
204960 On ch=2 n=g5 v=47
205152 On ch=2 n=g5 v=0
205440 On ch=2 n=d#5 v=46
205632 On ch=2 n=d#5 v=0
205920 On ch=2 n=d5 v=46
206112 On ch=2 n=d5 v=0
206400 On ch=2 n=f5 v=46
206592 On ch=2 n=f5 v=0
206880 On ch=2 n=d5 v=45
207072 On ch=2 n=d5 v=0
207360 On ch=2 n=d5 v=45
207552 On ch=2 n=d5 v=0
207840 On ch=2 n=f5 v=44
208032 On ch=2 n=f5 v=0
208320 On ch=2 n=d5 v=44
208512 On ch=2 n=d5 v=0
208800 On ch=2 n=d5 v=43
208992 On ch=2 n=d5 v=0
209280 On ch=2 n=f5 v=43
209472 On ch=2 n=f5 v=0
209760 On ch=2 n=d5 v=42
209952 On ch=2 n=d5 v=0
210240 On ch=2 n=d5 v=42
210432 On ch=2 n=d5 v=0
210720 On ch=2 n=f5 v=42
210912 On ch=2 n=f5 v=0
211200 On ch=2 n=d5 v=41
211392 On ch=2 n=d5 v=0
211680 On ch=2 n=d#5 v=41
211872 On ch=2 n=d#5 v=0
212160 On ch=2 n=d#5 v=40
212352 On ch=2 n=d#5 v=0
212640 On ch=2 n=d#5 v=40
212832 On ch=2 n=d#5 v=0
213120 On ch=2 n=d#5 v=68
213360 On ch=2 n=d#5 v=0
213360 On ch=2 n=a#4 v=68
213600 On ch=2 n=a#4 v=0
213600 On ch=2 n=a4 v=69
213840 On ch=2 n=a4 v=0
213840 On ch=2 n=a#4 v=69
214080 On ch=2 n=a#4 v=0
214080 On ch=2 n=d5 v=70
214320 On ch=2 n=d5 v=0
214320 On ch=2 n=d#5 v=70
214560 On ch=2 n=d#5 v=0
214560 On ch=2 n=f5 v=71
214800 On ch=2 n=f5 v=0
214800 On ch=2 n=a#4 v=71
215040 On ch=2 n=a#4 v=0
215040 On ch=2 n=a4 v=72
215280 On ch=2 n=a4 v=0
215280 On ch=2 n=a#4 v=72
215520 On ch=2 n=a#4 v=0
215520 On ch=2 n=d#5 v=73
215760 On ch=2 n=d#5 v=0
215760 On ch=2 n=f5 v=73
216000 On ch=2 n=f5 v=0
216000 On ch=2 n=g5 v=73
216240 On ch=2 n=g5 v=0
216240 On ch=2 n=d#5 v=74
216480 On ch=2 n=d#5 v=0
216480 On ch=2 n=d5 v=74
216720 On ch=2 n=d5 v=0
216720 On ch=2 n=d#5 v=75
216960 On ch=2 n=d#5 v=0
216960 On ch=2 n=g#5 v=75
217200 On ch=2 n=g#5 v=0
217200 On ch=2 n=a#5 v=76
217440 On ch=2 n=a#5 v=0
217440 On ch=2 n=c6 v=79
217680 On ch=2 n=c6 v=0
217680 On ch=2 n=a#5 v=78
217920 On ch=2 n=a#5 v=0
217920 On ch=2 n=g#5 v=77
218160 On ch=2 n=g#5 v=0
218160 On ch=2 n=g5 v=76
218400 On ch=2 n=g5 v=0
218400 On ch=2 n=f5 v=74
218640 On ch=2 n=f5 v=0
218640 On ch=2 n=d#5 v=72
218880 On ch=2 n=d#5 v=0
218880 On ch=2 n=d5 v=70
219360 On ch=2 n=d5 v=0
219840 On ch=2 n=g#6 v=48
220080 On ch=2 n=g#6 v=0
220080 On ch=2 n=a#6 v=50
220320 On ch=2 n=a#6 v=0
220320 On ch=2 n=c7 v=53
220560 On ch=2 n=c7 v=0
220560 On ch=2 n=a#6 v=52
220800 On ch=2 n=a#6 v=0
220800 On ch=2 n=g#6 v=50
221040 On ch=2 n=g#6 v=0
221040 On ch=2 n=g6 v=49
221280 On ch=2 n=g6 v=0
221280 On ch=2 n=f6 v=47
221520 On ch=2 n=f6 v=0
221520 On ch=2 n=d#6 v=46
221760 On ch=2 n=d#6 v=0
221760 On ch=2 n=d6 v=44
222240 On ch=2 n=d6 v=0
222720 On ch=2 n=c5 v=71
222960 On ch=2 n=c5 v=0
222960 On ch=2 n=d5 v=74
223200 On ch=2 n=d5 v=0
223200 On ch=2 n=d#5 v=77
223440 On ch=2 n=d#5 v=0
223440 On ch=2 n=d5 v=76
223680 On ch=2 n=d5 v=0
223680 On ch=2 n=c5 v=74
223920 On ch=2 n=c5 v=0
223920 On ch=2 n=a#4 v=73
224160 On ch=2 n=a#4 v=0
224160 On ch=2 n=a4 v=72
224400 On ch=2 n=a4 v=0
224400 On ch=2 n=g4 v=70
224640 On ch=2 n=g4 v=0
224640 On ch=2 n=f#4 v=69
225120 On ch=2 n=f#4 v=0
225600 On ch=2 n=c7 v=47
225840 On ch=2 n=c7 v=0
225840 On ch=2 n=d7 v=48
226080 On ch=2 n=d7 v=0
226080 On ch=2 n=d#7 v=50
226320 On ch=2 n=d#7 v=0
226320 On ch=2 n=d7 v=52
226560 On ch=2 n=d7 v=0
226560 On ch=2 n=c7 v=54
226800 On ch=2 n=c7 v=0
226800 On ch=2 n=a#6 v=56
227040 On ch=2 n=a#6 v=0
227040 On ch=2 n=a6 v=58
227280 On ch=2 n=a6 v=0
227280 On ch=2 n=g6 v=59
227520 On ch=2 n=g6 v=0
227520 On ch=2 n=f#6 v=61
227760 On ch=2 n=f#6 v=0
227760 On ch=2 n=d#6 v=63
228000 On ch=2 n=d#6 v=0
228000 On ch=2 n=d6 v=65
228240 On ch=2 n=d6 v=0
228240 On ch=2 n=c6 v=67
228480 On ch=2 n=c6 v=0
228480 On ch=2 n=a#5 v=69
228720 On ch=2 n=a#5 v=0
228720 On ch=2 n=a5 v=70
228960 On ch=2 n=a5 v=0
228960 On ch=2 n=g5 v=72
229200 On ch=2 n=g5 v=0
229200 On ch=2 n=f#5 v=69
229440 On ch=2 n=f#5 v=0
229440 On ch=2 n=g5 v=69
229680 On ch=2 n=g5 v=0
229680 On ch=2 n=a5 v=68
229920 On ch=2 n=a5 v=0
229920 On ch=2 n=a#5 v=68
230160 On ch=2 n=a#5 v=0
230160 On ch=2 n=g5 v=67
230400 On ch=2 n=g5 v=0
230400 On ch=2 n=f#5 v=67
230880 On ch=2 n=f#5 v=0
230880 On ch=2 n=f#5 v=66
231072 On ch=2 n=f#5 v=0
231360 On ch=2 n=d5 v=65
231552 On ch=2 n=d5 v=0
231840 On ch=2 n=d5 v=64
232032 On ch=2 n=d5 v=0
232320 On ch=2 n=f#5 v=63
232512 On ch=2 n=f#5 v=0
232800 On ch=2 n=d5 v=62
232992 On ch=2 n=d5 v=0
233280 On ch=2 n=d5 v=61
233472 On ch=2 n=d5 v=0
233760 On ch=2 n=f#5 v=60
233952 On ch=2 n=f#5 v=0
234240 On ch=2 n=d5 v=59
234432 On ch=2 n=d5 v=0
234720 On ch=2 n=c#5 v=58
234912 On ch=2 n=c#5 v=0
235200 On ch=2 n=e5 v=57
235392 On ch=2 n=e5 v=0
235680 On ch=2 n=c#5 v=56
235872 On ch=2 n=c#5 v=0
236160 On ch=2 n=c#5 v=55
236352 On ch=2 n=c#5 v=0
236640 On ch=2 n=e5 v=54
236832 On ch=2 n=e5 v=0
237120 On ch=2 n=c#5 v=53
237312 On ch=2 n=c#5 v=0
237600 On ch=2 n=c#5 v=52
237792 On ch=2 n=c#5 v=0
238080 On ch=2 n=e5 v=51
238272 On ch=2 n=e5 v=0
238560 On ch=2 n=c#5 v=50
238752 On ch=2 n=c#5 v=0
239040 On ch=2 n=c#5 v=49
239232 On ch=2 n=c#5 v=0
239520 On ch=2 n=e5 v=48
239712 On ch=2 n=e5 v=0
240000 On ch=2 n=c#5 v=48
240192 On ch=2 n=c#5 v=0
240480 On ch=2 n=d5 v=47
240672 On ch=2 n=d5 v=0
240960 On ch=2 n=a5 v=46
241152 On ch=2 n=a5 v=0
241440 On ch=2 n=a5 v=45
241632 On ch=2 n=a5 v=0
241920 On ch=2 n=d6 v=44
242112 On ch=2 n=d6 v=0
242400 On ch=2 n=d6 v=45
242592 On ch=2 n=d6 v=0
242880 On ch=2 n=d6 v=48
243072 On ch=2 n=d6 v=0
243360 On ch=2 n=d6 v=51
243552 On ch=2 n=d6 v=0
243840 On ch=2 n=d6 v=54
244032 On ch=2 n=d6 v=0
244320 On ch=2 n=d6 v=57
244512 On ch=2 n=d6 v=0
244800 On ch=2 n=c6 v=60
244992 On ch=2 n=c6 v=0
245280 On ch=2 n=c6 v=63
245472 On ch=2 n=c6 v=0
245760 On ch=2 n=c6 v=66
245952 On ch=2 n=c6 v=0
246240 On ch=2 n=c6 v=69
246432 On ch=2 n=c6 v=0
246720 On ch=2 n=c6 v=72
246912 On ch=2 n=c6 v=0
247200 On ch=2 n=c6 v=75
247392 On ch=2 n=c6 v=0
247680 On ch=2 n=g5 v=80
247680 On ch=2 n=g6 v=80
247920 On ch=2 n=g6 v=0
247920 On ch=2 n=g5 v=0
248160 On ch=2 n=b5 v=83
248160 On ch=2 n=b6 v=83
248352 On ch=2 n=b6 v=0
248400 On ch=2 n=b5 v=0
248640 On ch=2 n=g5 v=85
248640 On ch=2 n=g6 v=85
248832 On ch=2 n=g6 v=0
248880 On ch=2 n=g5 v=0
249120 On ch=2 n=d6 v=88
249120 On ch=2 n=d7 v=88
250080 On ch=2 n=d7 v=0
250080 On ch=2 n=d6 v=0
250080 On ch=2 n=c7 v=82
250320 On ch=2 n=c7 v=0
250320 On ch=2 n=b6 v=82
250560 On ch=2 n=b6 v=0
250560 On ch=2 n=a6 v=81
250800 On ch=2 n=a6 v=0
250800 On ch=2 n=g6 v=81
251040 On ch=2 n=g6 v=0
251040 On ch=2 n=f#6 v=81
251280 On ch=2 n=f#6 v=0
251280 On ch=2 n=g6 v=80
251520 On ch=2 n=g6 v=0
251520 On ch=2 n=b6 v=80
251760 On ch=2 n=b6 v=0
251760 On ch=2 n=g6 v=79
252000 On ch=2 n=g6 v=0
252000 On ch=2 n=f#6 v=79
252480 On ch=2 n=f#6 v=0
252480 On ch=2 n=e6 v=75
252840 On ch=2 n=e6 v=0
252960 On ch=2 n=d6 v=78
253200 On ch=2 n=d6 v=0
253200 On ch=2 n=c6 v=77
253440 On ch=2 n=c6 v=0
253440 On ch=2 n=b5 v=77
253680 On ch=2 n=b5 v=0
253680 On ch=2 n=a5 v=76
253920 On ch=2 n=a5 v=0
253920 On ch=2 n=g#5 v=76
254160 On ch=2 n=g#5 v=0
254160 On ch=2 n=a5 v=76
254400 On ch=2 n=a5 v=0
254400 On ch=2 n=c6 v=75
254640 On ch=2 n=c6 v=0
254640 On ch=2 n=a5 v=75
254880 On ch=2 n=a5 v=0
254880 On ch=2 n=f#5 v=74
255600 On ch=2 n=b5 v=73
255630 On ch=2 n=f#5 v=0
255680 On ch=2 n=b5 v=0
255680 On ch=2 n=a5 v=73
255760 On ch=2 n=a5 v=0
255760 On ch=2 n=g#5 v=73
255840 On ch=2 n=g#5 v=0
255840 On ch=2 n=a5 v=73
256320 On ch=2 n=a5 v=0
256320 On ch=2 n=c6 v=72
256560 On ch=2 n=c6 v=0
256800 On ch=2 n=a5 v=71
256992 On ch=2 n=a5 v=0
257280 On ch=2 n=f#5 v=71
257472 On ch=2 n=f#5 v=0
257760 On ch=2 n=g5 v=74
258000 On ch=2 n=g5 v=0
258000 On ch=2 n=d5 v=74
258240 On ch=2 n=d5 v=0
258240 On ch=2 n=c#5 v=74
258480 On ch=2 n=c#5 v=0
258480 On ch=2 n=d5 v=74
258720 On ch=2 n=d5 v=0
258720 On ch=2 n=f#5 v=75
258960 On ch=2 n=f#5 v=0
258960 On ch=2 n=g5 v=75
259200 On ch=2 n=g5 v=0
259200 On ch=2 n=a5 v=75
259440 On ch=2 n=a5 v=0
259440 On ch=2 n=d5 v=75
259680 On ch=2 n=d5 v=0
259680 On ch=2 n=c#5 v=76
259920 On ch=2 n=c#5 v=0
259920 On ch=2 n=d5 v=76
260160 On ch=2 n=d5 v=0
260160 On ch=2 n=g5 v=76
260400 On ch=2 n=g5 v=0
260400 On ch=2 n=a5 v=76
260640 On ch=2 n=a5 v=0
260640 On ch=2 n=b5 v=77
260880 On ch=2 n=b5 v=0
260880 On ch=2 n=g5 v=77
261120 On ch=2 n=g5 v=0
261120 On ch=2 n=f#5 v=77
261360 On ch=2 n=f#5 v=0
261360 On ch=2 n=g5 v=77
261600 On ch=2 n=g5 v=0
261600 On ch=2 n=a5 v=78
261840 On ch=2 n=a5 v=0
261840 On ch=2 n=b5 v=78
262080 On ch=2 n=b5 v=0
262080 On ch=2 n=c6 v=78
262320 On ch=2 n=c6 v=0
262320 On ch=2 n=g5 v=78
262560 On ch=2 n=g5 v=0
262560 On ch=2 n=f#5 v=79
262800 On ch=2 n=f#5 v=0
262800 On ch=2 n=g5 v=79
263040 On ch=2 n=g5 v=0
263040 On ch=2 n=b5 v=79
263280 On ch=2 n=b5 v=0
263280 On ch=2 n=c6 v=79
263520 On ch=2 n=c6 v=0
263520 On ch=2 n=d6 v=59
264000 On ch=2 n=d6 v=0
264000 Par ch=2 c=64 v=127
264240 On ch=2 n=d5 v=59
264480 On ch=2 n=d5 v=0
264480 On ch=2 n=g5 v=59
264720 On ch=2 n=g5 v=0
264720 On ch=2 n=b5 v=58
264960 On ch=2 n=b5 v=0
264960 On ch=2 n=d6 v=58
265200 On ch=2 n=d6 v=0
265200 On ch=2 n=g5 v=58
265440 On ch=2 n=g5 v=0
265440 On ch=2 n=b5 v=58
265680 On ch=2 n=b5 v=0
265680 On ch=2 n=d6 v=57
265920 On ch=2 n=d6 v=0
265920 On ch=2 n=g6 v=57
266160 On ch=2 n=g6 v=0
266160 On ch=2 n=b5 v=57
266400 On ch=2 n=b5 v=0
266400 On ch=2 n=d6 v=57
266640 On ch=2 n=d6 v=0
266640 On ch=2 n=g6 v=57
266880 On ch=2 n=g6 v=0
266880 On ch=2 n=b6 v=56
267120 On ch=2 n=b6 v=0
267120 On ch=2 n=d6 v=56
267360 On ch=2 n=d6 v=0
267360 On ch=2 n=g6 v=56
267600 On ch=2 n=g6 v=0
267600 On ch=2 n=b6 v=56
267840 On ch=2 n=b6 v=0
267840 Par ch=2 c=64 v=0
267840 On ch=2 n=d7 v=56
268080 On ch=2 n=d7 v=0
268080 On ch=2 n=c7 v=55
268320 On ch=2 n=c7 v=0
268320 On ch=2 n=b6 v=55
268560 On ch=2 n=b6 v=0
268560 On ch=2 n=a6 v=55
268800 On ch=2 n=a6 v=0
268800 On ch=2 n=g6 v=55
269040 On ch=2 n=g6 v=0
269040 On ch=2 n=f6 v=54
269280 On ch=2 n=f6 v=0
269280 On ch=2 n=e6 v=54
269760 On ch=2 n=e6 v=0
269760 Par ch=2 c=64 v=127
270000 On ch=2 n=e5 v=54
270240 On ch=2 n=e5 v=0
270240 On ch=2 n=g5 v=53
270480 On ch=2 n=g5 v=0
270480 On ch=2 n=c6 v=53
270720 On ch=2 n=c6 v=0
270720 On ch=2 n=e6 v=53
270960 On ch=2 n=e6 v=0
270960 On ch=2 n=e5 v=53
271200 On ch=2 n=e5 v=0
271200 On ch=2 n=g5 v=53
271440 On ch=2 n=g5 v=0
271440 On ch=2 n=c6 v=52
271680 On ch=2 n=c6 v=0
271680 On ch=2 n=e6 v=52
271920 On ch=2 n=e6 v=0
271920 On ch=2 n=g5 v=52
272160 On ch=2 n=g5 v=0
272160 On ch=2 n=c6 v=52
272400 On ch=2 n=c6 v=0
272400 On ch=2 n=e6 v=51
272640 On ch=2 n=e6 v=0
272640 On ch=2 n=g6 v=51
272880 On ch=2 n=g6 v=0
272880 On ch=2 n=c6 v=51
273120 On ch=2 n=c6 v=0
273120 On ch=2 n=e6 v=51
273360 On ch=2 n=e6 v=0
273360 On ch=2 n=g6 v=51
273600 On ch=2 n=g6 v=0
273600 On ch=2 n=c7 v=50
273840 On ch=2 n=c7 v=0
273840 On ch=2 n=e6 v=50
274080 On ch=2 n=e6 v=0
274080 On ch=2 n=g6 v=50
274320 On ch=2 n=g6 v=0
274320 On ch=2 n=c7 v=50
274560 On ch=2 n=c7 v=0
274560 On ch=2 n=e7 v=50
274800 On ch=2 n=e7 v=0
274800 On ch=2 n=d7 v=49
275040 On ch=2 n=d7 v=0
275040 Par ch=2 c=64 v=0
275040 On ch=2 n=c#6 v=49
275520 On ch=2 n=c#6 v=0
275520 Par ch=2 c=64 v=127
275760 On ch=2 n=c#5 v=48
276000 On ch=2 n=c#5 v=0
276000 On ch=2 n=e5 v=48
276240 On ch=2 n=e5 v=0
276240 On ch=2 n=g5 v=48
276480 On ch=2 n=g5 v=0
276480 On ch=2 n=c#6 v=48
276720 On ch=2 n=c#6 v=0
276720 On ch=2 n=e5 v=48
276960 On ch=2 n=e5 v=0
276960 On ch=2 n=g5 v=47
277200 On ch=2 n=g5 v=0
277200 On ch=2 n=c#6 v=47
277440 On ch=2 n=c#6 v=0
277440 On ch=2 n=e6 v=47
277680 On ch=2 n=e6 v=0
277680 On ch=2 n=g5 v=47
277920 On ch=2 n=g5 v=0
277920 On ch=2 n=c#6 v=47
278160 On ch=2 n=c#6 v=0
278160 On ch=2 n=e6 v=46
278400 On ch=2 n=e6 v=0
278400 On ch=2 n=g6 v=46
278640 On ch=2 n=g6 v=0
278640 On ch=2 n=c#6 v=46
278880 On ch=2 n=c#6 v=0
278880 On ch=2 n=e6 v=46
279120 On ch=2 n=e6 v=0
279120 On ch=2 n=g6 v=45
279360 On ch=2 n=g6 v=0
279360 On ch=2 n=c#7 v=45
279600 On ch=2 n=c#7 v=0
279600 On ch=2 n=e7 v=45
279840 On ch=2 n=e7 v=0
279840 Par ch=2 c=64 v=0
279840 On ch=2 n=a6 v=45
280080 On ch=2 n=a6 v=0
280080 On ch=2 n=b6 v=45
280320 On ch=2 n=b6 v=0
280320 On ch=2 n=a6 v=44
280560 On ch=2 n=a6 v=0
280560 On ch=2 n=b6 v=44
280800 On ch=2 n=b6 v=0
280800 On ch=2 n=a6 v=50
282240 On ch=2 n=a6 v=0
282240 On ch=2 n=a6 v=54
283680 On ch=2 n=a6 v=0
283680 On ch=2 n=c7 v=61
285120 On ch=2 n=c7 v=0
285120 On ch=2 n=b6 v=52
285600 On ch=2 n=b6 v=0
285600 On ch=2 n=b6 v=50
286080 On ch=2 n=b6 v=0
286080 On ch=2 n=b6 v=48
286560 On ch=2 n=b6 v=0
286560 On ch=2 n=a6 v=46
288000 On ch=2 n=a6 v=0
288000 On ch=2 n=a6 v=49
289440 On ch=2 n=a6 v=0
289440 On ch=2 n=c7 v=56
290880 On ch=2 n=c7 v=0
290880 On ch=2 n=b6 v=49
291360 On ch=2 n=b6 v=0
291360 On ch=2 n=b6 v=47
291840 On ch=2 n=b6 v=0
291840 On ch=2 n=b6 v=48
292320 On ch=2 n=b6 v=0
292320 On ch=2 n=a6 v=49
292560 On ch=2 n=a6 v=0
292560 On ch=2 n=g6 v=49
292800 On ch=2 n=g6 v=0
292800 On ch=2 n=a6 v=50
293040 On ch=2 n=a6 v=0
293040 On ch=2 n=b6 v=50
293280 On ch=2 n=b6 v=0
293280 On ch=2 n=c#7 v=51
293520 On ch=2 n=c#7 v=0
293520 On ch=2 n=d7 v=51
293760 On ch=2 n=d7 v=0
293760 On ch=2 n=c#7 v=52
294000 On ch=2 n=c#7 v=0
294000 On ch=2 n=b6 v=52
294240 On ch=2 n=b6 v=0
294240 On ch=2 n=a6 v=53
294480 On ch=2 n=a6 v=0
294480 On ch=2 n=g6 v=53
294720 On ch=2 n=g6 v=0
294720 On ch=2 n=f#6 v=54
294960 On ch=2 n=f#6 v=0
294960 On ch=2 n=e6 v=54
295200 On ch=2 n=e6 v=0
295200 On ch=2 n=g6 v=55
295440 On ch=2 n=g6 v=0
295440 On ch=2 n=a6 v=55
295680 On ch=2 n=a6 v=0
295680 On ch=2 n=b6 v=56
295920 On ch=2 n=b6 v=0
295920 On ch=2 n=c#7 v=56
296160 On ch=2 n=c#7 v=0
296160 On ch=2 n=d7 v=57
296400 On ch=2 n=d7 v=0
296400 On ch=2 n=e7 v=57
296640 On ch=2 n=e7 v=0
296640 On ch=2 n=d7 v=58
296880 On ch=2 n=d7 v=0
296880 On ch=2 n=c7 v=58
297120 On ch=2 n=c7 v=0
297120 On ch=2 n=b6 v=59
297360 On ch=2 n=b6 v=0
297360 On ch=2 n=a6 v=60
297600 On ch=2 n=a6 v=0
297600 On ch=2 n=g6 v=60
297840 On ch=2 n=g6 v=0
297840 On ch=2 n=f#6 v=61
298080 On ch=2 n=f#6 v=0
298080 Par ch=2 c=64 v=0
298080 On ch=2 n=a6 v=61
298140 Par ch=2 c=64 v=127
298320 On ch=2 n=a6 v=0
298320 On ch=2 n=c7 v=62
298560 On ch=2 n=c7 v=0
298560 On ch=2 n=f#7 v=62
298800 On ch=2 n=f#7 v=0
298800 On ch=2 n=c7 v=63
299040 On ch=2 n=c7 v=0
299040 On ch=2 n=a7 v=63
299280 On ch=2 n=a7 v=0
299280 On ch=2 n=f#7 v=64
299520 On ch=2 n=f#7 v=0
299520 On ch=2 n=a7 v=72
299760 On ch=2 n=a7 v=0
299760 On ch=2 n=f#7 v=65
300000 On ch=2 n=f#7 v=0
300000 On ch=2 n=a7 v=65
300240 On ch=2 n=a7 v=0
300240 On ch=2 n=f#7 v=66
300480 On ch=2 n=f#7 v=0
300480 On ch=2 n=a7 v=66
300720 On ch=2 n=a7 v=0
300720 On ch=2 n=f#7 v=67
300960 On ch=2 n=f#7 v=0
300960 Par ch=2 c=64 v=0
300960 On ch=2 n=a7 v=74
301020 Par ch=2 c=64 v=127
301200 On ch=2 n=a7 v=0
301200 On ch=2 n=f#7 v=66
301440 On ch=2 n=f#7 v=0
301440 On ch=2 n=d7 v=64
301680 On ch=2 n=d7 v=0
301680 On ch=2 n=e7 v=63
301920 On ch=2 n=e7 v=0
301920 On ch=2 n=f#7 v=61
302160 On ch=2 n=f#7 v=0
302160 On ch=2 n=d7 v=60
302400 On ch=2 n=d7 v=0
302400 Par ch=2 c=64 v=0
302400 On ch=2 n=g7 v=59
302460 Par ch=2 c=64 v=127
302640 On ch=2 n=g7 v=0
302640 On ch=2 n=d7 v=57
302880 On ch=2 n=d7 v=0
302880 On ch=2 n=g7 v=56
303120 On ch=2 n=g7 v=0
303120 On ch=2 n=d7 v=54
303360 On ch=2 n=d7 v=0
303360 On ch=2 n=b6 v=53
303600 On ch=2 n=b6 v=0
303600 On ch=2 n=g6 v=52
303840 On ch=2 n=g6 v=0
303840 Par ch=2 c=64 v=0
303840 On ch=2 n=a6 v=52
303900 Par ch=2 c=64 v=127
304080 On ch=2 n=a6 v=0
304080 On ch=2 n=c7 v=53
304320 On ch=2 n=c7 v=0
304320 On ch=2 n=f#7 v=54
304560 On ch=2 n=f#7 v=0
304560 On ch=2 n=c7 v=54
304800 On ch=2 n=c7 v=0
304800 On ch=2 n=a7 v=55
305040 On ch=2 n=a7 v=0
305040 On ch=2 n=f#7 v=55
305280 On ch=2 n=f#7 v=0
305280 On ch=2 n=a7 v=68
305520 On ch=2 n=a7 v=0
305520 On ch=2 n=f#7 v=57
305760 On ch=2 n=f#7 v=0
305760 On ch=2 n=a7 v=57
306000 On ch=2 n=a7 v=0
306000 On ch=2 n=f#7 v=58
306240 On ch=2 n=f#7 v=0
306240 On ch=2 n=a7 v=59
306480 On ch=2 n=a7 v=0
306480 On ch=2 n=f#7 v=59
306720 On ch=2 n=f#7 v=0
306720 Par ch=2 c=64 v=0
306720 On ch=2 n=a7 v=72
306780 Par ch=2 c=64 v=127
306960 On ch=2 n=a7 v=0
306960 On ch=2 n=f#7 v=63
307200 On ch=2 n=f#7 v=0
307200 On ch=2 n=d7 v=62
307440 On ch=2 n=d7 v=0
307440 On ch=2 n=e7 v=61
307680 On ch=2 n=e7 v=0
307680 On ch=2 n=f#7 v=61
307920 On ch=2 n=f#7 v=0
307920 On ch=2 n=d7 v=60
308160 On ch=2 n=d7 v=0
308160 Par ch=2 c=64 v=0
308160 On ch=2 n=g7 v=59
308220 Par ch=2 c=64 v=127
308400 On ch=2 n=g7 v=0
308400 On ch=2 n=d7 v=59
308640 On ch=2 n=d7 v=0
308640 On ch=2 n=g7 v=58
308880 On ch=2 n=g7 v=0
308880 On ch=2 n=d7 v=57
309120 On ch=2 n=d7 v=0
309120 On ch=2 n=b6 v=57
309360 On ch=2 n=b6 v=0
309360 On ch=2 n=g6 v=56
309600 On ch=2 n=g6 v=0
309600 Par ch=2 c=64 v=0
309600 On ch=2 n=e7 v=55
309660 Par ch=2 c=64 v=127
309840 On ch=2 n=e7 v=0
309840 On ch=2 n=c7 v=55
310080 On ch=2 n=c7 v=0
310080 On ch=2 n=e7 v=54
310320 On ch=2 n=e7 v=0
310320 On ch=2 n=c7 v=53
310560 On ch=2 n=c7 v=0
310560 On ch=2 n=g6 v=53
310800 On ch=2 n=g6 v=0
310800 On ch=2 n=e6 v=52
311040 On ch=2 n=e6 v=0
311040 Par ch=2 c=64 v=0
311040 On ch=2 n=d6 v=51
312000 On ch=2 n=d6 v=0
312000 On ch=2 n=a6 v=49
312060 On ch=2 n=a6 v=0
312060 On ch=2 n=b6 v=52
312120 On ch=2 n=b6 v=0
312120 On ch=2 n=a6 v=55
312180 On ch=2 n=a6 v=0
312180 On ch=2 n=b6 v=58
312240 On ch=2 n=b6 v=0
312240 On ch=2 n=a6 v=61
312280 On ch=2 n=a6 v=0
312280 On ch=2 n=b6 v=63
312320 On ch=2 n=b6 v=0
312320 On ch=2 n=a6 v=65
312360 On ch=2 n=a6 v=0
312360 On ch=2 n=g6 v=67
312420 On ch=2 n=g6 v=0
312420 On ch=2 n=a6 v=70
312480 On ch=2 n=a6 v=0
312480 On ch=2 n=g6 v=83
312720 On ch=2 n=g6 v=0
312960 On ch=2 n=d7 v=82
313152 On ch=2 n=d7 v=0
313440 On ch=2 n=g6 v=80
313632 On ch=2 n=g6 v=0
314400 On ch=2 n=a6 v=77
314592 On ch=2 n=a6 v=0
314880 On ch=2 n=f#6 v=76
315072 On ch=2 n=f#6 v=0
315840 On ch=2 n=d6 v=53
316032 On ch=2 n=d6 v=0
316320 On ch=2 n=g5 v=52
316512 On ch=2 n=g5 v=0
317280 On ch=2 n=c6 v=50
317472 On ch=2 n=c6 v=0
317760 On ch=2 n=f#5 v=48
317952 On ch=2 n=f#5 v=0
318240 Par ch=2 c=64 v=0
318720 On ch=2 n=b6 v=83
318912 On ch=2 n=b6 v=0
319200 On ch=2 n=g#6 v=81
319392 On ch=2 n=g#6 v=0
320160 On ch=2 n=a6 v=76
320352 On ch=2 n=a6 v=0
320640 On ch=2 n=f#6 v=74
320832 On ch=2 n=f#6 v=0
321120 On ch=2 n=e6 v=74
321312 On ch=2 n=e6 v=0
321600 On ch=2 n=g#6 v=77
321792 On ch=2 n=g#6 v=0
322080 On ch=2 n=e6 v=80
322272 On ch=2 n=e6 v=0
322560 On ch=2 n=b6 v=89
323520 On ch=2 n=b6 v=0
323520 On ch=2 n=a6 v=85
323760 On ch=2 n=a6 v=0
323760 On ch=2 n=g#6 v=84
324000 On ch=2 n=g#6 v=0
324000 On ch=2 n=f#6 v=84
324240 On ch=2 n=f#6 v=0
324240 On ch=2 n=e6 v=83
324480 On ch=2 n=e6 v=0
324480 On ch=2 n=d#6 v=82
324720 On ch=2 n=d#6 v=0
324720 On ch=2 n=e6 v=81
324960 On ch=2 n=e6 v=0
324960 On ch=2 n=g#6 v=81
325200 On ch=2 n=g#6 v=0
325200 On ch=2 n=e6 v=80
325440 On ch=2 n=e6 v=0
325440 On ch=2 n=d#6 v=79
325920 On ch=2 n=d#6 v=0
325920 On ch=2 n=c#6 v=75
326280 On ch=2 n=c#6 v=0
326400 On ch=2 n=b5 v=77
326640 On ch=2 n=b5 v=0
326640 On ch=2 n=a5 v=76
326880 On ch=2 n=a5 v=0
326880 On ch=2 n=g#5 v=75
327120 On ch=2 n=g#5 v=0
327120 On ch=2 n=f#5 v=75
327360 On ch=2 n=f#5 v=0
327360 On ch=2 n=f5 v=74
327600 On ch=2 n=f5 v=0
327600 On ch=2 n=f#5 v=73
327840 On ch=2 n=f#5 v=0
327840 On ch=2 n=a5 v=72
328080 On ch=2 n=a5 v=0
328080 On ch=2 n=f#5 v=72
328320 On ch=2 n=f#5 v=0
328320 On ch=2 n=d#5 v=71
329280 On ch=2 n=d#5 v=0
329280 On ch=2 n=f#5 v=68
329520 On ch=2 n=f#5 v=0
329760 On ch=2 n=a5 v=67
329952 On ch=2 n=a5 v=0
330240 On ch=2 n=f#5 v=66
330432 On ch=2 n=f#5 v=0
330720 On ch=2 n=d#5 v=64
330912 On ch=2 n=d#5 v=0
331200 On ch=2 n=e5 v=57
331392 On ch=2 n=e5 v=0
331680 On ch=2 n=g#5 v=57
331872 On ch=2 n=g#5 v=0
332160 On ch=2 n=e5 v=56
332352 On ch=2 n=e5 v=0
332640 On ch=2 n=e5 v=56
332832 On ch=2 n=e5 v=0
333120 On ch=2 n=g#5 v=56
333312 On ch=2 n=g#5 v=0
333600 On ch=2 n=e5 v=55
333792 On ch=2 n=e5 v=0
334080 On ch=2 n=e5 v=55
334272 On ch=2 n=e5 v=0
334560 On ch=2 n=g#5 v=55
334752 On ch=2 n=g#5 v=0
335040 On ch=2 n=e5 v=54
335232 On ch=2 n=e5 v=0
335520 On ch=2 n=d#5 v=54
335712 On ch=2 n=d#5 v=0
336000 On ch=2 n=f#5 v=54
336192 On ch=2 n=f#5 v=0
336480 On ch=2 n=d#5 v=53
336672 On ch=2 n=d#5 v=0
336960 On ch=2 n=d#5 v=53
337152 On ch=2 n=d#5 v=0
337440 On ch=2 n=f#5 v=52
337632 On ch=2 n=f#5 v=0
337920 On ch=2 n=d#5 v=52
338112 On ch=2 n=d#5 v=0
338400 On ch=2 n=d#5 v=52
338592 On ch=2 n=d#5 v=0
338880 On ch=2 n=f#5 v=51
339072 On ch=2 n=f#5 v=0
339360 On ch=2 n=d#5 v=51
339552 On ch=2 n=d#5 v=0
339840 On ch=2 n=d#5 v=51
340032 On ch=2 n=d#5 v=0
340320 On ch=2 n=f#5 v=50
340512 On ch=2 n=f#5 v=0
340800 On ch=2 n=d#5 v=50
340992 On ch=2 n=d#5 v=0
341280 On ch=2 n=e5 v=45
341472 On ch=2 n=e5 v=0
341760 On ch=2 n=e5 v=42
341952 On ch=2 n=e5 v=0
342240 On ch=2 n=e5 v=43
342432 On ch=2 n=e5 v=0
342720 On ch=2 n=c5 v=43
342912 On ch=2 n=c5 v=0
343200 On ch=2 n=e5 v=42
343392 On ch=2 n=e5 v=0
343680 On ch=2 n=c5 v=42
343872 On ch=2 n=c5 v=0
344160 On ch=2 n=c5 v=42
344352 On ch=2 n=c5 v=0
344640 On ch=2 n=e5 v=41
344832 On ch=2 n=e5 v=0
345120 On ch=2 n=c5 v=41
345312 On ch=2 n=c5 v=0
345600 On ch=2 n=c5 v=41
345792 On ch=2 n=c5 v=0
346080 On ch=2 n=e5 v=40
346272 On ch=2 n=e5 v=0
346560 On ch=2 n=c5 v=40
346752 On ch=2 n=c5 v=0
347040 On ch=2 n=b4 v=40
347232 On ch=2 n=b4 v=0
347520 On ch=2 n=d5 v=40
347712 On ch=2 n=d5 v=0
348000 On ch=2 n=b4 v=39
348192 On ch=2 n=b4 v=0
348480 On ch=2 n=b4 v=39
348672 On ch=2 n=b4 v=0
348960 On ch=2 n=d5 v=39
349152 On ch=2 n=d5 v=0
349440 On ch=2 n=b4 v=38
349632 On ch=2 n=b4 v=0
349920 On ch=2 n=b4 v=38
350112 On ch=2 n=b4 v=0
350400 On ch=2 n=d5 v=38
350592 On ch=2 n=d5 v=0
350880 On ch=2 n=b4 v=38
351072 On ch=2 n=b4 v=0
351360 On ch=2 n=b4 v=37
351552 On ch=2 n=b4 v=0
351840 On ch=2 n=d5 v=37
352032 On ch=2 n=d5 v=0
352320 On ch=2 n=b4 v=37
352512 On ch=2 n=b4 v=0
352800 On ch=2 n=c5 v=36
352992 On ch=2 n=c5 v=0
353280 On ch=2 n=c5 v=36
353472 On ch=2 n=c5 v=0
353760 On ch=2 n=c5 v=36
353952 On ch=2 n=c5 v=0
354240 On ch=2 n=c5 v=72
354480 On ch=2 n=c5 v=0
354480 On ch=2 n=g4 v=72
354720 On ch=2 n=g4 v=0
354720 On ch=2 n=f#4 v=73
354960 On ch=2 n=f#4 v=0
354960 On ch=2 n=g4 v=73
355200 On ch=2 n=g4 v=0
355200 On ch=2 n=b4 v=74
355440 On ch=2 n=b4 v=0
355440 On ch=2 n=c5 v=74
355680 On ch=2 n=c5 v=0
355680 On ch=2 n=d5 v=75
355920 On ch=2 n=d5 v=0
355920 On ch=2 n=g4 v=75
356160 On ch=2 n=g4 v=0
356160 On ch=2 n=f#4 v=76
356400 On ch=2 n=f#4 v=0
356400 On ch=2 n=g4 v=76
356640 On ch=2 n=g4 v=0
356640 On ch=2 n=c5 v=77
356880 On ch=2 n=c5 v=0
356880 On ch=2 n=d5 v=77
357120 On ch=2 n=d5 v=0
357120 On ch=2 n=e5 v=78
357360 On ch=2 n=e5 v=0
357360 On ch=2 n=c5 v=79
357600 On ch=2 n=c5 v=0
357600 On ch=2 n=b4 v=79
357840 On ch=2 n=b4 v=0
357840 On ch=2 n=c5 v=80
358080 On ch=2 n=c5 v=0
358080 On ch=2 n=f5 v=80
358320 On ch=2 n=f5 v=0
358320 On ch=2 n=g5 v=81
358560 On ch=2 n=g5 v=0
358560 On ch=2 n=a5 v=83
358800 On ch=2 n=a5 v=0
358800 On ch=2 n=g5 v=82
359040 On ch=2 n=g5 v=0
359040 On ch=2 n=f5 v=80
359280 On ch=2 n=f5 v=0
359280 On ch=2 n=e5 v=80
359520 On ch=2 n=e5 v=0
359520 On ch=2 n=d5 v=77
359760 On ch=2 n=d5 v=0
359760 On ch=2 n=c5 v=75
360000 On ch=2 n=c5 v=0
360000 On ch=2 n=b4 v=72
360480 On ch=2 n=b4 v=0
360960 On ch=2 n=f6 v=48
361200 On ch=2 n=f6 v=0
361200 On ch=2 n=g6 v=50
361440 On ch=2 n=g6 v=0
361440 On ch=2 n=a6 v=55
361680 On ch=2 n=a6 v=0
361680 On ch=2 n=g6 v=53
361920 On ch=2 n=g6 v=0
361920 On ch=2 n=f6 v=51
362160 On ch=2 n=f6 v=0
362160 On ch=2 n=e6 v=50
362400 On ch=2 n=e6 v=0
362400 On ch=2 n=d6 v=48
362640 On ch=2 n=d6 v=0
362640 On ch=2 n=c6 v=46
362880 On ch=2 n=c6 v=0
362880 On ch=2 n=b5 v=44
363360 On ch=2 n=b5 v=0
363840 On ch=2 n=f5 v=48
364080 On ch=2 n=f5 v=0
364080 On ch=2 n=g5 v=52
364320 On ch=2 n=g5 v=0
364320 On ch=2 n=g#5 v=55
364560 On ch=2 n=g#5 v=0
364560 On ch=2 n=g5 v=59
364800 On ch=2 n=g5 v=0
364800 On ch=2 n=f5 v=62
365040 On ch=2 n=f5 v=0
365040 On ch=2 n=d#5 v=66
365280 On ch=2 n=d#5 v=0
365280 On ch=2 n=d5 v=69
365520 On ch=2 n=d5 v=0
365520 On ch=2 n=g5 v=73
365760 On ch=2 n=g5 v=0
365760 On ch=2 n=c5 v=71
365952 On ch=2 n=c5 v=0
366240 On ch=2 n=d#5 v=71
366432 On ch=2 n=d#5 v=0
366720 On ch=2 n=c5 v=71
366912 On ch=2 n=c5 v=0
367200 On ch=2 n=c5 v=70
367392 On ch=2 n=c5 v=0
367680 On ch=2 n=d#5 v=70
367872 On ch=2 n=d#5 v=0
368160 On ch=2 n=c5 v=70
368352 On ch=2 n=c5 v=0
368640 On ch=2 n=c5 v=69
368832 On ch=2 n=c5 v=0
369120 On ch=2 n=d#5 v=69
369312 On ch=2 n=d#5 v=0
369600 On ch=2 n=c5 v=68
369792 On ch=2 n=c5 v=0
370080 On ch=2 n=b4 v=68
370272 On ch=2 n=b4 v=0
370560 On ch=2 n=d5 v=68
370752 On ch=2 n=d5 v=0
371040 On ch=2 n=b4 v=67
371232 On ch=2 n=b4 v=0
371520 On ch=2 n=b4 v=67
371712 On ch=2 n=b4 v=0
372000 On ch=2 n=d5 v=66
372192 On ch=2 n=d5 v=0
372480 On ch=2 n=b4 v=66
372672 On ch=2 n=b4 v=0
372960 On ch=2 n=b4 v=66
373152 On ch=2 n=b4 v=0
373440 On ch=2 n=d5 v=65
373632 On ch=2 n=d5 v=0
373920 On ch=2 n=b4 v=65
374112 On ch=2 n=b4 v=0
374400 On ch=2 n=b4 v=65
374592 On ch=2 n=b4 v=0
374880 On ch=2 n=d5 v=64
375072 On ch=2 n=d5 v=0
375360 On ch=2 n=b4 v=64
375552 On ch=2 n=b4 v=0
375840 On ch=2 n=c5 v=51
376032 On ch=2 n=c5 v=0
376320 On ch=2 n=c5 v=51
376560 On ch=2 n=c5 v=0
376800 On ch=2 n=d5 v=50
377040 On ch=2 n=d5 v=0
377280 On ch=2 n=d#5 v=50
377472 On ch=2 n=d#5 v=0
377760 On ch=2 n=g5 v=50
377952 On ch=2 n=g5 v=0
378240 On ch=2 n=d#5 v=49
378432 On ch=2 n=d#5 v=0
378720 On ch=2 n=d#5 v=49
378912 On ch=2 n=d#5 v=0
379200 On ch=2 n=g5 v=48
379392 On ch=2 n=g5 v=0
379680 On ch=2 n=d#5 v=48
379872 On ch=2 n=d#5 v=0
380160 On ch=2 n=d#5 v=47
380352 On ch=2 n=d#5 v=0
380640 On ch=2 n=g5 v=47
380832 On ch=2 n=g5 v=0
381120 On ch=2 n=d#5 v=46
381312 On ch=2 n=d#5 v=0
381600 On ch=2 n=d5 v=46
381792 On ch=2 n=d5 v=0
382080 On ch=2 n=f5 v=46
382272 On ch=2 n=f5 v=0
382560 On ch=2 n=d5 v=45
382752 On ch=2 n=d5 v=0
383040 On ch=2 n=d5 v=45
383232 On ch=2 n=d5 v=0
383520 On ch=2 n=f5 v=44
383712 On ch=2 n=f5 v=0
384000 On ch=2 n=d5 v=44
384192 On ch=2 n=d5 v=0
384480 On ch=2 n=d5 v=43
384672 On ch=2 n=d5 v=0
384960 On ch=2 n=f5 v=43
385152 On ch=2 n=f5 v=0
385440 On ch=2 n=d5 v=42
385632 On ch=2 n=d5 v=0
385920 On ch=2 n=d5 v=42
386112 On ch=2 n=d5 v=0
386400 On ch=2 n=f5 v=42
386592 On ch=2 n=f5 v=0
386880 On ch=2 n=d5 v=41
387072 On ch=2 n=d5 v=0
387360 On ch=2 n=d#5 v=41
387552 On ch=2 n=d#5 v=0
387840 On ch=2 n=d#5 v=40
388032 On ch=2 n=d#5 v=0
388320 On ch=2 n=d#5 v=40
388512 On ch=2 n=d#5 v=0
388800 On ch=2 n=d#5 v=68
389040 On ch=2 n=d#5 v=0
389040 On ch=2 n=a#4 v=68
389280 On ch=2 n=a#4 v=0
389280 On ch=2 n=a4 v=69
389520 On ch=2 n=a4 v=0
389520 On ch=2 n=a#4 v=69
389760 On ch=2 n=a#4 v=0
389760 On ch=2 n=d5 v=70
390000 On ch=2 n=d5 v=0
390000 On ch=2 n=d#5 v=70
390240 On ch=2 n=d#5 v=0
390240 On ch=2 n=f5 v=71
390480 On ch=2 n=f5 v=0
390480 On ch=2 n=a#4 v=71
390720 On ch=2 n=a#4 v=0
390720 On ch=2 n=a4 v=72
390960 On ch=2 n=a4 v=0
390960 On ch=2 n=a#4 v=72
391200 On ch=2 n=a#4 v=0
391200 On ch=2 n=d#5 v=73
391440 On ch=2 n=d#5 v=0
391440 On ch=2 n=f5 v=73
391680 On ch=2 n=f5 v=0
391680 On ch=2 n=g5 v=73
391920 On ch=2 n=g5 v=0
391920 On ch=2 n=d#5 v=74
392160 On ch=2 n=d#5 v=0
392160 On ch=2 n=d5 v=74
392400 On ch=2 n=d5 v=0
392400 On ch=2 n=d#5 v=75
392640 On ch=2 n=d#5 v=0
392640 On ch=2 n=g#5 v=75
392880 On ch=2 n=g#5 v=0
392880 On ch=2 n=a#5 v=76
393120 On ch=2 n=a#5 v=0
393120 On ch=2 n=c6 v=79
393360 On ch=2 n=c6 v=0
393360 On ch=2 n=a#5 v=78
393600 On ch=2 n=a#5 v=0
393600 On ch=2 n=g#5 v=77
393840 On ch=2 n=g#5 v=0
393840 On ch=2 n=g5 v=76
394080 On ch=2 n=g5 v=0
394080 On ch=2 n=f5 v=74
394320 On ch=2 n=f5 v=0
394320 On ch=2 n=d#5 v=72
394560 On ch=2 n=d#5 v=0
394560 On ch=2 n=d5 v=70
395040 On ch=2 n=d5 v=0
395520 On ch=2 n=g#6 v=48
395760 On ch=2 n=g#6 v=0
395760 On ch=2 n=a#6 v=50
396000 On ch=2 n=a#6 v=0
396000 On ch=2 n=c7 v=53
396240 On ch=2 n=c7 v=0
396240 On ch=2 n=a#6 v=52
396480 On ch=2 n=a#6 v=0
396480 On ch=2 n=g#6 v=50
396720 On ch=2 n=g#6 v=0
396720 On ch=2 n=g6 v=49
396960 On ch=2 n=g6 v=0
396960 On ch=2 n=f6 v=47
397200 On ch=2 n=f6 v=0
397200 On ch=2 n=d#6 v=46
397440 On ch=2 n=d#6 v=0
397440 On ch=2 n=d6 v=44
397920 On ch=2 n=d6 v=0
398400 On ch=2 n=c5 v=71
398640 On ch=2 n=c5 v=0
398640 On ch=2 n=d5 v=74
398880 On ch=2 n=d5 v=0
398880 On ch=2 n=d#5 v=77
399120 On ch=2 n=d#5 v=0
399120 On ch=2 n=d5 v=76
399360 On ch=2 n=d5 v=0
399360 On ch=2 n=c5 v=74
399600 On ch=2 n=c5 v=0
399600 On ch=2 n=a#4 v=73
399840 On ch=2 n=a#4 v=0
399840 On ch=2 n=a4 v=72
400080 On ch=2 n=a4 v=0
400080 On ch=2 n=g4 v=70
400320 On ch=2 n=g4 v=0
400320 On ch=2 n=f#4 v=69
400800 On ch=2 n=f#4 v=0
401280 On ch=2 n=c7 v=47
401520 On ch=2 n=c7 v=0
401520 On ch=2 n=d7 v=48
401760 On ch=2 n=d7 v=0
401760 On ch=2 n=d#7 v=50
402000 On ch=2 n=d#7 v=0
402000 On ch=2 n=d7 v=52
402240 On ch=2 n=d7 v=0
402240 On ch=2 n=c7 v=54
402480 On ch=2 n=c7 v=0
402480 On ch=2 n=a#6 v=56
402720 On ch=2 n=a#6 v=0
402720 On ch=2 n=a6 v=58
402960 On ch=2 n=a6 v=0
402960 On ch=2 n=g6 v=59
403200 On ch=2 n=g6 v=0
403200 On ch=2 n=f#6 v=61
403440 On ch=2 n=f#6 v=0
403440 On ch=2 n=d#6 v=63
403680 On ch=2 n=d#6 v=0
403680 On ch=2 n=d6 v=65
403920 On ch=2 n=d6 v=0
403920 On ch=2 n=c6 v=67
404160 On ch=2 n=c6 v=0
404160 On ch=2 n=a#5 v=69
404400 On ch=2 n=a#5 v=0
404400 On ch=2 n=a5 v=70
404640 On ch=2 n=a5 v=0
404640 On ch=2 n=g5 v=72
404880 On ch=2 n=g5 v=0
404880 On ch=2 n=f#5 v=69
405120 On ch=2 n=f#5 v=0
405120 On ch=2 n=g5 v=69
405360 On ch=2 n=g5 v=0
405360 On ch=2 n=a5 v=68
405600 On ch=2 n=a5 v=0
405600 On ch=2 n=a#5 v=68
405840 On ch=2 n=a#5 v=0
405840 On ch=2 n=g5 v=67
406080 On ch=2 n=g5 v=0
406080 On ch=2 n=f#5 v=67
406560 On ch=2 n=f#5 v=0
406560 On ch=2 n=f#5 v=66
406752 On ch=2 n=f#5 v=0
407040 On ch=2 n=d5 v=65
407232 On ch=2 n=d5 v=0
407520 On ch=2 n=d5 v=64
407712 On ch=2 n=d5 v=0
408000 On ch=2 n=f#5 v=63
408192 On ch=2 n=f#5 v=0
408480 On ch=2 n=d5 v=62
408672 On ch=2 n=d5 v=0
408960 On ch=2 n=d5 v=61
409152 On ch=2 n=d5 v=0
409440 On ch=2 n=f#5 v=60
409632 On ch=2 n=f#5 v=0
409920 On ch=2 n=d5 v=59
410112 On ch=2 n=d5 v=0
410400 On ch=2 n=c#5 v=58
410592 On ch=2 n=c#5 v=0
410880 On ch=2 n=e5 v=57
411072 On ch=2 n=e5 v=0
411360 On ch=2 n=c#5 v=56
411552 On ch=2 n=c#5 v=0
411840 On ch=2 n=c#5 v=55
412032 On ch=2 n=c#5 v=0
412320 On ch=2 n=e5 v=54
412512 On ch=2 n=e5 v=0
412800 On ch=2 n=c#5 v=53
412992 On ch=2 n=c#5 v=0
413280 On ch=2 n=c#5 v=52
413472 On ch=2 n=c#5 v=0
413760 On ch=2 n=e5 v=51
413952 On ch=2 n=e5 v=0
414240 On ch=2 n=c#5 v=50
414432 On ch=2 n=c#5 v=0
414720 On ch=2 n=c#5 v=49
414912 On ch=2 n=c#5 v=0
415200 On ch=2 n=e5 v=48
415392 On ch=2 n=e5 v=0
415680 On ch=2 n=c#5 v=48
415872 On ch=2 n=c#5 v=0
416160 On ch=2 n=d5 v=47
416352 On ch=2 n=d5 v=0
416640 On ch=2 n=a5 v=46
416832 On ch=2 n=a5 v=0
417120 On ch=2 n=a5 v=45
417312 On ch=2 n=a5 v=0
417600 On ch=2 n=d6 v=44
417792 On ch=2 n=d6 v=0
418080 On ch=2 n=d6 v=45
418272 On ch=2 n=d6 v=0
418560 On ch=2 n=d6 v=48
418752 On ch=2 n=d6 v=0
419040 On ch=2 n=d6 v=51
419232 On ch=2 n=d6 v=0
419520 On ch=2 n=d6 v=54
419712 On ch=2 n=d6 v=0
420000 On ch=2 n=d6 v=57
420192 On ch=2 n=d6 v=0
420480 On ch=2 n=c6 v=60
420672 On ch=2 n=c6 v=0
420960 On ch=2 n=c6 v=63
421152 On ch=2 n=c6 v=0
421440 On ch=2 n=c6 v=66
421632 On ch=2 n=c6 v=0
421920 On ch=2 n=c6 v=69
422112 On ch=2 n=c6 v=0
422400 On ch=2 n=c6 v=72
422592 On ch=2 n=c6 v=0
422880 On ch=2 n=c6 v=75
423072 On ch=2 n=c6 v=0
423360 On ch=2 n=g6 v=80
423360 On ch=2 n=g5 v=80
423600 On ch=2 n=g5 v=0
423600 On ch=2 n=g6 v=0
423840 On ch=2 n=b6 v=83
423840 On ch=2 n=b5 v=83
424032 On ch=2 n=b6 v=0
424080 On ch=2 n=b5 v=0
424320 On ch=2 n=g6 v=85
424320 On ch=2 n=g5 v=85
424512 On ch=2 n=g6 v=0
424560 On ch=2 n=g5 v=0
424800 On ch=2 n=d7 v=88
424800 On ch=2 n=d6 v=88
425760 On ch=2 n=d6 v=0
425760 On ch=2 n=d7 v=0
425760 On ch=2 n=c7 v=82
426000 On ch=2 n=c7 v=0
426000 On ch=2 n=b6 v=82
426240 On ch=2 n=b6 v=0
426240 On ch=2 n=a6 v=81
426480 On ch=2 n=a6 v=0
426480 On ch=2 n=g6 v=81
426720 On ch=2 n=g6 v=0
426720 On ch=2 n=f#6 v=81
426960 On ch=2 n=f#6 v=0
426960 On ch=2 n=g6 v=80
427200 On ch=2 n=g6 v=0
427200 On ch=2 n=b6 v=80
427440 On ch=2 n=b6 v=0
427440 On ch=2 n=g6 v=79
427680 On ch=2 n=g6 v=0
427680 On ch=2 n=f#6 v=79
428160 On ch=2 n=f#6 v=0
428160 On ch=2 n=e6 v=75
428520 On ch=2 n=e6 v=0
428640 On ch=2 n=d6 v=78
428880 On ch=2 n=d6 v=0
428880 On ch=2 n=c6 v=77
429120 On ch=2 n=c6 v=0
429120 On ch=2 n=b5 v=77
429360 On ch=2 n=b5 v=0
429360 On ch=2 n=a5 v=76
429600 On ch=2 n=a5 v=0
429600 On ch=2 n=g#5 v=76
429840 On ch=2 n=g#5 v=0
429840 On ch=2 n=a5 v=76
430080 On ch=2 n=a5 v=0
430080 On ch=2 n=c6 v=75
430320 On ch=2 n=c6 v=0
430320 On ch=2 n=a5 v=75
430560 On ch=2 n=a5 v=0
430560 On ch=2 n=f#5 v=74
431280 On ch=2 n=b5 v=73
431310 On ch=2 n=f#5 v=0
431360 On ch=2 n=b5 v=0
431360 On ch=2 n=a5 v=73
431440 On ch=2 n=a5 v=0
431440 On ch=2 n=g#5 v=73
431520 On ch=2 n=g#5 v=0
431520 On ch=2 n=a5 v=73
432000 On ch=2 n=a5 v=0
432000 On ch=2 n=c6 v=72
432240 On ch=2 n=c6 v=0
432480 On ch=2 n=a5 v=71
432672 On ch=2 n=a5 v=0
432960 On ch=2 n=f#5 v=71
433152 On ch=2 n=f#5 v=0
433440 On ch=2 n=g5 v=74
433680 On ch=2 n=g5 v=0
433680 On ch=2 n=d5 v=74
433920 On ch=2 n=d5 v=0
433920 On ch=2 n=c#5 v=74
434160 On ch=2 n=c#5 v=0
434160 On ch=2 n=d5 v=74
434400 On ch=2 n=d5 v=0
434400 On ch=2 n=f#5 v=75
434640 On ch=2 n=f#5 v=0
434640 On ch=2 n=g5 v=75
434880 On ch=2 n=g5 v=0
434880 On ch=2 n=a5 v=75
435120 On ch=2 n=a5 v=0
435120 On ch=2 n=d5 v=75
435360 On ch=2 n=d5 v=0
435360 On ch=2 n=c#5 v=76
435600 On ch=2 n=c#5 v=0
435600 On ch=2 n=d5 v=76
435840 On ch=2 n=d5 v=0
435840 On ch=2 n=g5 v=76
436080 On ch=2 n=g5 v=0
436080 On ch=2 n=a5 v=76
436320 On ch=2 n=a5 v=0
436320 On ch=2 n=b5 v=77
436560 On ch=2 n=b5 v=0
436560 On ch=2 n=g5 v=77
436800 On ch=2 n=g5 v=0
436800 On ch=2 n=f#5 v=77
437040 On ch=2 n=f#5 v=0
437040 On ch=2 n=g5 v=77
437280 On ch=2 n=g5 v=0
437280 On ch=2 n=a5 v=78
437520 On ch=2 n=a5 v=0
437520 On ch=2 n=b5 v=78
437760 On ch=2 n=b5 v=0
437760 On ch=2 n=c6 v=78
438000 On ch=2 n=c6 v=0
438000 On ch=2 n=g5 v=78
438240 On ch=2 n=g5 v=0
438240 On ch=2 n=f#5 v=79
438480 On ch=2 n=f#5 v=0
438480 On ch=2 n=g5 v=79
438720 On ch=2 n=g5 v=0
438720 On ch=2 n=b5 v=79
438960 On ch=2 n=b5 v=0
438960 On ch=2 n=c6 v=79
439200 On ch=2 n=c6 v=0
439200 On ch=2 n=d6 v=59
439680 On ch=2 n=d6 v=0
439680 Par ch=2 c=64 v=127
439920 On ch=2 n=d5 v=59
440160 On ch=2 n=d5 v=0
440160 On ch=2 n=g5 v=59
440400 On ch=2 n=g5 v=0
440400 On ch=2 n=b5 v=58
440640 On ch=2 n=b5 v=0
440640 On ch=2 n=d6 v=58
440880 On ch=2 n=d6 v=0
440880 On ch=2 n=g5 v=58
441120 On ch=2 n=g5 v=0
441120 On ch=2 n=b5 v=58
441360 On ch=2 n=b5 v=0
441360 On ch=2 n=d6 v=57
441600 On ch=2 n=d6 v=0
441600 On ch=2 n=g6 v=57
441840 On ch=2 n=g6 v=0
441840 On ch=2 n=b5 v=57
442080 On ch=2 n=b5 v=0
442080 On ch=2 n=d6 v=57
442320 On ch=2 n=d6 v=0
442320 On ch=2 n=g6 v=57
442560 On ch=2 n=g6 v=0
442560 On ch=2 n=b6 v=56
442800 On ch=2 n=b6 v=0
442800 On ch=2 n=d6 v=56
443040 On ch=2 n=d6 v=0
443040 On ch=2 n=g6 v=56
443280 On ch=2 n=g6 v=0
443280 On ch=2 n=b6 v=56
443520 On ch=2 n=b6 v=0
443520 Par ch=2 c=64 v=0
443520 On ch=2 n=d7 v=56
443760 On ch=2 n=d7 v=0
443760 On ch=2 n=c7 v=55
444000 On ch=2 n=c7 v=0
444000 On ch=2 n=b6 v=55
444240 On ch=2 n=b6 v=0
444240 On ch=2 n=a6 v=55
444480 On ch=2 n=a6 v=0
444480 On ch=2 n=g6 v=55
444720 On ch=2 n=g6 v=0
444720 On ch=2 n=f6 v=54
444960 On ch=2 n=f6 v=0
444960 On ch=2 n=e6 v=54
445440 On ch=2 n=e6 v=0
445440 Par ch=2 c=64 v=127
445680 On ch=2 n=e5 v=54
445920 On ch=2 n=e5 v=0
445920 On ch=2 n=g5 v=53
446160 On ch=2 n=g5 v=0
446160 On ch=2 n=c6 v=53
446400 On ch=2 n=c6 v=0
446400 On ch=2 n=e6 v=53
446640 On ch=2 n=e6 v=0
446640 On ch=2 n=e5 v=53
446880 On ch=2 n=e5 v=0
446880 On ch=2 n=g5 v=53
447120 On ch=2 n=g5 v=0
447120 On ch=2 n=c6 v=52
447360 On ch=2 n=c6 v=0
447360 On ch=2 n=e6 v=52
447600 On ch=2 n=e6 v=0
447600 On ch=2 n=g5 v=52
447840 On ch=2 n=g5 v=0
447840 On ch=2 n=c6 v=52
448080 On ch=2 n=c6 v=0
448080 On ch=2 n=e6 v=51
448320 On ch=2 n=e6 v=0
448320 On ch=2 n=g6 v=51
448560 On ch=2 n=g6 v=0
448560 On ch=2 n=c6 v=51
448800 On ch=2 n=c6 v=0
448800 On ch=2 n=e6 v=51
449040 On ch=2 n=e6 v=0
449040 On ch=2 n=g6 v=51
449280 On ch=2 n=g6 v=0
449280 On ch=2 n=c7 v=50
449520 On ch=2 n=c7 v=0
449520 On ch=2 n=e6 v=50
449760 On ch=2 n=e6 v=0
449760 On ch=2 n=g6 v=50
450000 On ch=2 n=g6 v=0
450000 On ch=2 n=c7 v=50
450240 On ch=2 n=c7 v=0
450240 On ch=2 n=e7 v=50
450480 On ch=2 n=e7 v=0
450480 On ch=2 n=d7 v=49
450720 On ch=2 n=d7 v=0
450720 Par ch=2 c=64 v=0
450720 On ch=2 n=c#6 v=49
451200 On ch=2 n=c#6 v=0
451200 Par ch=2 c=64 v=127
451440 On ch=2 n=c#5 v=48
451680 On ch=2 n=c#5 v=0
451680 On ch=2 n=e5 v=48
451920 On ch=2 n=e5 v=0
451920 On ch=2 n=g5 v=48
452160 On ch=2 n=g5 v=0
452160 On ch=2 n=c#6 v=48
452400 On ch=2 n=c#6 v=0
452400 On ch=2 n=e5 v=48
452640 On ch=2 n=e5 v=0
452640 On ch=2 n=g5 v=47
452880 On ch=2 n=g5 v=0
452880 On ch=2 n=c#6 v=47
453120 On ch=2 n=c#6 v=0
453120 On ch=2 n=e6 v=47
453360 On ch=2 n=e6 v=0
453360 On ch=2 n=g5 v=47
453600 On ch=2 n=g5 v=0
453600 On ch=2 n=c#6 v=47
453840 On ch=2 n=c#6 v=0
453840 On ch=2 n=e6 v=46
454080 On ch=2 n=e6 v=0
454080 On ch=2 n=g6 v=46
454320 On ch=2 n=g6 v=0
454320 On ch=2 n=c#6 v=46
454560 On ch=2 n=c#6 v=0
454560 On ch=2 n=e6 v=46
454800 On ch=2 n=e6 v=0
454800 On ch=2 n=g6 v=45
455040 On ch=2 n=g6 v=0
455040 On ch=2 n=c#7 v=45
455280 On ch=2 n=c#7 v=0
455280 On ch=2 n=e7 v=45
455520 On ch=2 n=e7 v=0
455520 Par ch=2 c=64 v=0
455520 On ch=2 n=a6 v=45
455760 On ch=2 n=a6 v=0
455760 On ch=2 n=b6 v=45
456000 On ch=2 n=b6 v=0
456000 On ch=2 n=a6 v=44
456240 On ch=2 n=a6 v=0
456240 On ch=2 n=b6 v=44
456480 On ch=2 n=b6 v=0
456480 On ch=2 n=a6 v=50
457920 On ch=2 n=a6 v=0
457920 On ch=2 n=a6 v=54
459360 On ch=2 n=a6 v=0
459360 On ch=2 n=c7 v=61
460800 On ch=2 n=c7 v=0
460800 On ch=2 n=b6 v=52
461280 On ch=2 n=b6 v=0
461280 On ch=2 n=b6 v=50
461760 On ch=2 n=b6 v=0
461760 On ch=2 n=b6 v=48
462240 On ch=2 n=b6 v=0
462240 On ch=2 n=a6 v=46
463680 On ch=2 n=a6 v=0
463680 On ch=2 n=a6 v=49
465120 On ch=2 n=a6 v=0
465120 On ch=2 n=c7 v=56
466560 On ch=2 n=c7 v=0
466560 On ch=2 n=b6 v=49
467040 On ch=2 n=b6 v=0
467040 On ch=2 n=b6 v=47
467520 On ch=2 n=b6 v=0
467520 On ch=2 n=b6 v=48
468000 On ch=2 n=b6 v=0
468000 On ch=2 n=a6 v=49
468240 On ch=2 n=a6 v=0
468240 On ch=2 n=g6 v=49
468480 On ch=2 n=g6 v=0
468480 On ch=2 n=a6 v=50
468720 On ch=2 n=a6 v=0
468720 On ch=2 n=b6 v=50
468960 On ch=2 n=b6 v=0
468960 On ch=2 n=c#7 v=51
469200 On ch=2 n=c#7 v=0
469200 On ch=2 n=d7 v=51
469440 On ch=2 n=d7 v=0
469440 On ch=2 n=c#7 v=52
469680 On ch=2 n=c#7 v=0
469680 On ch=2 n=b6 v=52
469920 On ch=2 n=b6 v=0
469920 On ch=2 n=a6 v=53
470160 On ch=2 n=a6 v=0
470160 On ch=2 n=g6 v=53
470400 On ch=2 n=g6 v=0
470400 On ch=2 n=f#6 v=54
470640 On ch=2 n=f#6 v=0
470640 On ch=2 n=e6 v=54
470880 On ch=2 n=e6 v=0
470880 On ch=2 n=g6 v=55
471120 On ch=2 n=g6 v=0
471120 On ch=2 n=a6 v=55
471360 On ch=2 n=a6 v=0
471360 On ch=2 n=b6 v=56
471600 On ch=2 n=b6 v=0
471600 On ch=2 n=c#7 v=56
471840 On ch=2 n=c#7 v=0
471840 On ch=2 n=d7 v=57
472080 On ch=2 n=d7 v=0
472080 On ch=2 n=e7 v=57
472320 On ch=2 n=e7 v=0
472320 On ch=2 n=d7 v=58
472560 On ch=2 n=d7 v=0
472560 On ch=2 n=c7 v=58
472800 On ch=2 n=c7 v=0
472800 On ch=2 n=b6 v=59
473040 On ch=2 n=b6 v=0
473040 On ch=2 n=a6 v=60
473280 On ch=2 n=a6 v=0
473280 On ch=2 n=g6 v=60
473520 On ch=2 n=g6 v=0
473520 On ch=2 n=f#6 v=61
473760 On ch=2 n=f#6 v=0
473760 Par ch=2 c=64 v=0
473760 On ch=2 n=a6 v=61
473820 Par ch=2 c=64 v=127
474000 On ch=2 n=a6 v=0
474000 On ch=2 n=c7 v=62
474240 On ch=2 n=c7 v=0
474240 On ch=2 n=f#7 v=62
474480 On ch=2 n=f#7 v=0
474480 On ch=2 n=c7 v=63
474720 On ch=2 n=c7 v=0
474720 On ch=2 n=a7 v=63
474960 On ch=2 n=a7 v=0
474960 On ch=2 n=f#7 v=64
475200 On ch=2 n=f#7 v=0
475200 On ch=2 n=a7 v=72
475440 On ch=2 n=a7 v=0
475440 On ch=2 n=f#7 v=65
475680 On ch=2 n=f#7 v=0
475680 On ch=2 n=a7 v=65
475920 On ch=2 n=a7 v=0
475920 On ch=2 n=f#7 v=66
476160 On ch=2 n=f#7 v=0
476160 On ch=2 n=a7 v=66
476400 On ch=2 n=a7 v=0
476400 On ch=2 n=f#7 v=67
476640 On ch=2 n=f#7 v=0
476640 Par ch=2 c=64 v=0
476640 On ch=2 n=a7 v=74
476700 Par ch=2 c=64 v=127
476880 On ch=2 n=a7 v=0
476880 On ch=2 n=f#7 v=66
477120 On ch=2 n=f#7 v=0
477120 On ch=2 n=d7 v=64
477360 On ch=2 n=d7 v=0
477360 On ch=2 n=e7 v=63
477600 On ch=2 n=e7 v=0
477600 On ch=2 n=f#7 v=61
477840 On ch=2 n=f#7 v=0
477840 On ch=2 n=d7 v=60
478080 On ch=2 n=d7 v=0
478080 Par ch=2 c=64 v=0
478080 On ch=2 n=g7 v=59
478140 Par ch=2 c=64 v=127
478320 On ch=2 n=g7 v=0
478320 On ch=2 n=d7 v=57
478560 On ch=2 n=d7 v=0
478560 On ch=2 n=g7 v=56
478800 On ch=2 n=g7 v=0
478800 On ch=2 n=d7 v=54
479040 On ch=2 n=d7 v=0
479040 On ch=2 n=b6 v=53
479280 On ch=2 n=b6 v=0
479280 On ch=2 n=g6 v=52
479520 On ch=2 n=g6 v=0
479520 Par ch=2 c=64 v=0
479520 On ch=2 n=a6 v=52
479580 Par ch=2 c=64 v=127
479760 On ch=2 n=a6 v=0
479760 On ch=2 n=c7 v=53
480000 On ch=2 n=c7 v=0
480000 On ch=2 n=f#7 v=54
480240 On ch=2 n=f#7 v=0
480240 On ch=2 n=c7 v=54
480480 On ch=2 n=c7 v=0
480480 On ch=2 n=a7 v=55
480720 On ch=2 n=a7 v=0
480720 On ch=2 n=f#7 v=55
480960 On ch=2 n=f#7 v=0
480960 On ch=2 n=a7 v=68
481200 On ch=2 n=a7 v=0
481200 On ch=2 n=f#7 v=57
481440 On ch=2 n=f#7 v=0
481440 On ch=2 n=a7 v=57
481680 On ch=2 n=a7 v=0
481680 On ch=2 n=f#7 v=58
481920 On ch=2 n=f#7 v=0
481920 On ch=2 n=a7 v=59
482160 On ch=2 n=a7 v=0
482160 On ch=2 n=f#7 v=59
482400 On ch=2 n=f#7 v=0
482400 Par ch=2 c=64 v=0
482400 On ch=2 n=a7 v=72
482460 Par ch=2 c=64 v=127
482640 On ch=2 n=a7 v=0
482640 On ch=2 n=f#7 v=63
482880 On ch=2 n=f#7 v=0
482880 On ch=2 n=d7 v=62
483120 On ch=2 n=d7 v=0
483120 On ch=2 n=e7 v=61
483360 On ch=2 n=e7 v=0
483360 On ch=2 n=f#7 v=61
483600 On ch=2 n=f#7 v=0
483600 On ch=2 n=d7 v=60
483840 On ch=2 n=d7 v=0
483840 Par ch=2 c=64 v=0
483840 On ch=2 n=g7 v=59
483900 Par ch=2 c=64 v=127
484080 On ch=2 n=g7 v=0
484080 On ch=2 n=d7 v=59
484320 On ch=2 n=d7 v=0
484320 On ch=2 n=g7 v=58
484560 On ch=2 n=g7 v=0
484560 On ch=2 n=d7 v=57
484800 On ch=2 n=d7 v=0
484800 On ch=2 n=b6 v=57
485040 On ch=2 n=b6 v=0
485040 On ch=2 n=g6 v=56
485280 On ch=2 n=g6 v=0
485280 Par ch=2 c=64 v=0
485280 On ch=2 n=e7 v=55
485340 Par ch=2 c=64 v=127
485520 On ch=2 n=e7 v=0
485520 On ch=2 n=c7 v=55
485760 On ch=2 n=c7 v=0
485760 On ch=2 n=e7 v=54
486000 On ch=2 n=e7 v=0
486000 On ch=2 n=c7 v=53
486240 On ch=2 n=c7 v=0
486240 On ch=2 n=g6 v=53
486480 On ch=2 n=g6 v=0
486480 On ch=2 n=e6 v=52
486720 On ch=2 n=e6 v=0
486720 Par ch=2 c=64 v=0
486720 On ch=2 n=d6 v=51
487680 On ch=2 n=d6 v=0
487680 On ch=2 n=a6 v=49
487740 On ch=2 n=a6 v=0
487740 On ch=2 n=b6 v=52
487800 On ch=2 n=b6 v=0
487800 On ch=2 n=a6 v=55
487860 On ch=2 n=a6 v=0
487860 On ch=2 n=b6 v=58
487920 On ch=2 n=b6 v=0
487920 On ch=2 n=a6 v=61
487960 On ch=2 n=a6 v=0
487960 On ch=2 n=b6 v=63
488000 On ch=2 n=b6 v=0
488000 On ch=2 n=a6 v=65
488040 On ch=2 n=a6 v=0
488040 On ch=2 n=g6 v=67
488100 On ch=2 n=g6 v=0
488100 On ch=2 n=a6 v=70
488160 On ch=2 n=a6 v=0
488160 On ch=2 n=g6 v=83
488400 On ch=2 n=g6 v=0
488640 On ch=2 n=d7 v=82
488832 On ch=2 n=d7 v=0
489120 On ch=2 n=g6 v=80
489312 On ch=2 n=g6 v=0
490080 On ch=2 n=a6 v=77
490272 On ch=2 n=a6 v=0
490560 On ch=2 n=f#6 v=76
490752 On ch=2 n=f#6 v=0
491520 On ch=2 n=d6 v=53
491712 On ch=2 n=d6 v=0
492000 On ch=2 n=g5 v=52
492192 On ch=2 n=g5 v=0
492960 On ch=2 n=c6 v=50
493152 On ch=2 n=c6 v=0
493440 On ch=2 n=f#5 v=48
493632 On ch=2 n=f#5 v=0
493920 Par ch=2 c=64 v=0
494400 On ch=2 n=d7 v=75
494592 On ch=2 n=d7 v=0
494880 On ch=2 n=g6 v=73
495072 On ch=2 n=g6 v=0
495840 On ch=2 n=c7 v=70
496032 On ch=2 n=c7 v=0
496320 On ch=2 n=f#6 v=68
496512 On ch=2 n=f#6 v=0
497280 On ch=2 n=d6 v=45
497472 On ch=2 n=d6 v=0
497760 On ch=2 n=g5 v=44
497952 On ch=2 n=g5 v=0
498720 On ch=2 n=c6 v=42
498912 On ch=2 n=c6 v=0
499200 On ch=2 n=f#5 v=41
499392 On ch=2 n=f#5 v=0
505440 On ch=2 n=a5 v=74
505680 On ch=2 n=a5 v=0
505920 On ch=2 n=c6 v=76
506112 On ch=2 n=c6 v=0
506400 On ch=2 n=a5 v=79
506592 On ch=2 n=a5 v=0
506880 On ch=2 n=e6 v=81
507840 On ch=2 n=e6 v=0
507840 On ch=2 n=d6 v=79
508080 On ch=2 n=d6 v=0
508080 On ch=2 n=c6 v=78
508320 On ch=2 n=c6 v=0
508320 On ch=2 n=b5 v=77
508560 On ch=2 n=b5 v=0
508560 On ch=2 n=a5 v=76
508800 On ch=2 n=a5 v=0
508800 On ch=2 n=c6 v=76
509040 On ch=2 n=c6 v=0
509040 On ch=2 n=a5 v=75
509280 On ch=2 n=a5 v=0
509280 On ch=2 n=f#5 v=74
509520 On ch=2 n=f#5 v=0
509520 On ch=2 n=a5 v=74
509760 On ch=2 n=a5 v=0
509760 On ch=2 n=a5 v=73
510240 On ch=2 n=a5 v=0
510240 On ch=2 n=g5 v=72
510432 On ch=2 n=g5 v=0
510720 On ch=2 n=g5 v=70
510912 On ch=2 n=g5 v=0
516960 On ch=2 n=g#6 v=78
517020 On ch=2 n=a6 v=79
517087 On ch=2 n=g#6 v=0
517145 On ch=2 n=a6 v=0
517440 On ch=2 n=b6 v=82
517500 On ch=2 n=c7 v=82
517567 On ch=2 n=b6 v=0
517625 On ch=2 n=c7 v=0
517920 On ch=2 n=g#6 v=85
517980 On ch=2 n=a6 v=86
518040 On ch=2 n=g#6 v=0
518100 On ch=2 n=a6 v=0
518400 On ch=2 n=d#7 v=89
518460 On ch=2 n=e7 v=89
518527 On ch=2 n=d#7 v=0
519360 On ch=2 n=e7 v=0
519360 On ch=2 n=d7 v=82
519600 On ch=2 n=d7 v=0
519600 On ch=2 n=c7 v=80
519840 On ch=2 n=c7 v=0
519840 On ch=2 n=b6 v=79
520080 On ch=2 n=b6 v=0
520080 On ch=2 n=a6 v=77
520320 On ch=2 n=a6 v=0
520320 On ch=2 n=c7 v=76
520560 On ch=2 n=c7 v=0
520560 On ch=2 n=a6 v=75
520800 On ch=2 n=a6 v=0
520800 On ch=2 n=f#6 v=73
521040 On ch=2 n=f#6 v=0
521040 On ch=2 n=a6 v=72
521280 On ch=2 n=a6 v=0
521280 On ch=2 n=g6 v=65
521520 On ch=2 n=g6 v=0
521520 On ch=2 n=d6 v=65
521760 On ch=2 n=d6 v=0
521760 On ch=2 n=b6 v=65
522000 On ch=2 n=b6 v=0
522000 On ch=2 n=g6 v=65
522240 On ch=2 n=g6 v=0
522240 On ch=2 n=d6 v=64
522480 On ch=2 n=d6 v=0
522480 On ch=2 n=b5 v=64
522720 On ch=2 n=b5 v=0
522720 On ch=2 n=g6 v=64
522960 On ch=2 n=g6 v=0
522960 On ch=2 n=d6 v=64
523200 On ch=2 n=d6 v=0
523200 On ch=2 n=b6 v=64
523440 On ch=2 n=b6 v=0
523440 On ch=2 n=g6 v=63
523680 On ch=2 n=g6 v=0
523680 On ch=2 n=d6 v=63
523920 On ch=2 n=d6 v=0
523920 On ch=2 n=b5 v=63
524160 On ch=2 n=b5 v=0
524160 On ch=2 n=g6 v=63
524400 On ch=2 n=g6 v=0
524400 On ch=2 n=d6 v=62
524640 On ch=2 n=d6 v=0
524640 On ch=2 n=b6 v=62
524880 On ch=2 n=b6 v=0
524880 On ch=2 n=g6 v=62
525120 On ch=2 n=g6 v=0
525120 On ch=2 n=d6 v=62
525360 On ch=2 n=d6 v=0
525360 On ch=2 n=b5 v=61
525600 On ch=2 n=b5 v=0
525600 On ch=2 n=f#6 v=61
525840 On ch=2 n=f#6 v=0
525840 On ch=2 n=d6 v=61
526080 On ch=2 n=d6 v=0
526080 On ch=2 n=a6 v=61
526320 On ch=2 n=a6 v=0
526320 On ch=2 n=f#6 v=60
526560 On ch=2 n=f#6 v=0
526560 On ch=2 n=d6 v=60
526800 On ch=2 n=d6 v=0
526800 On ch=2 n=c6 v=60
527040 On ch=2 n=c6 v=0
527040 On ch=2 n=d6 v=60
527280 On ch=2 n=d6 v=0
527280 On ch=2 n=b5 v=59
527520 On ch=2 n=b5 v=0
527520 On ch=2 n=g6 v=59
527760 On ch=2 n=g6 v=0
527760 On ch=2 n=d6 v=59
528000 On ch=2 n=d6 v=0
528000 On ch=2 n=b5 v=59
528240 On ch=2 n=b5 v=0
528240 On ch=2 n=g5 v=58
528480 On ch=2 n=g5 v=0
528480 On ch=2 n=d6 v=58
528720 On ch=2 n=d6 v=0
528720 On ch=2 n=b5 v=58
528960 On ch=2 n=b5 v=0
528960 On ch=2 n=g6 v=58
529200 On ch=2 n=g6 v=0
529200 On ch=2 n=d6 v=57
529440 On ch=2 n=d6 v=0
529440 On ch=2 n=b5 v=57
529680 On ch=2 n=b5 v=0
529680 On ch=2 n=g5 v=57
529920 On ch=2 n=g5 v=0
529920 On ch=2 n=d6 v=57
530160 On ch=2 n=d6 v=0
530160 On ch=2 n=b5 v=56
530400 On ch=2 n=b5 v=0
530400 On ch=2 n=g6 v=56
530640 On ch=2 n=g6 v=0
530640 On ch=2 n=d6 v=56
530880 On ch=2 n=d6 v=0
530880 On ch=2 n=b5 v=56
531120 On ch=2 n=b5 v=0
531120 On ch=2 n=g5 v=55
531360 On ch=2 n=g5 v=0
531360 On ch=2 n=c6 v=55
531600 On ch=2 n=c6 v=0
531600 On ch=2 n=a5 v=55
531840 On ch=2 n=a5 v=0
531840 On ch=2 n=d6 v=55
532080 On ch=2 n=d6 v=0
532080 On ch=2 n=c6 v=54
532320 On ch=2 n=c6 v=0
532320 On ch=2 n=a5 v=54
532560 On ch=2 n=a5 v=0
532560 On ch=2 n=f#5 v=54
532800 On ch=2 n=f#5 v=0
532800 On ch=2 n=g5 v=54
533280 On ch=2 n=g5 v=0
533520 On ch=2 n=g4 v=53
533760 On ch=2 n=g4 v=0
533760 On ch=2 n=b4 v=53
534000 On ch=2 n=b4 v=0
534000 On ch=2 n=d5 v=52
534240 On ch=2 n=d5 v=0
534240 On ch=2 n=g5 v=52
534480 On ch=2 n=g5 v=0
534480 On ch=2 n=b5 v=52
534720 On ch=2 n=b5 v=0
534720 On ch=2 n=d6 v=52
534960 On ch=2 n=d6 v=0
534960 On ch=2 n=g6 v=51
535200 On ch=2 n=g6 v=0
535200 On ch=2 n=b6 v=51
535440 On ch=2 n=b6 v=0
535440 On ch=2 n=d7 v=51
535680 On ch=2 n=d7 v=0
535680 On ch=2 n=g7 v=51
536160 On ch=2 n=g7 v=0
537120 Par ch=2 c=91 v=91
537120 Par ch=2 c=93 v=28
539280 Par ch=2 c=64 v=0
539280 On ch=2 n=g5 v=48
540000 On ch=2 n=g5 v=0
540000 On ch=2 n=a#5 v=51
540480 On ch=2 n=a#5 v=0
540480 On ch=2 n=c6 v=53
540720 On ch=2 n=c6 v=0
540720 On ch=2 n=d6 v=53
541200 On ch=2 n=d6 v=0
541200 On ch=2 n=d6 v=55
541440 On ch=2 n=d6 v=0
541440 On ch=2 n=d6 v=57
541920 On ch=2 n=d6 v=0
541920 On ch=2 n=a#5 v=54
542160 On ch=2 n=a#5 v=0
542160 On ch=2 n=g5 v=53
542640 On ch=2 n=g5 v=0
542640 On ch=2 n=a#5 v=50
542880 On ch=2 n=a#5 v=0
542880 On ch=2 n=a5 v=49
543600 On ch=2 n=a5 v=0
543600 On ch=2 n=g5 v=46
544320 On ch=2 n=g5 v=0
544320 On ch=2 n=a#5 v=48
544800 On ch=2 n=a#5 v=0
544800 On ch=2 n=c6 v=50
545040 On ch=2 n=c6 v=0
545040 On ch=2 n=d6 v=51
545520 On ch=2 n=d6 v=0
545520 On ch=2 n=d6 v=53
545760 On ch=2 n=d6 v=0
545760 On ch=2 n=d6 v=54
546240 On ch=2 n=d6 v=0
546240 On ch=2 n=a#5 v=50
546480 On ch=2 n=a#5 v=0
546480 On ch=2 n=c6 v=49
546720 On ch=2 n=c6 v=0
546720 On ch=2 n=d#6 v=48
546960 On ch=2 n=d#6 v=0
546960 On ch=2 n=a5 v=46
547200 On ch=2 n=a5 v=0
547200 On ch=2 n=a#5 v=45
547920 On ch=2 n=a#5 v=0
547920 On ch=2 n=d6 v=42
548400 On ch=2 n=d6 v=0
548400 On ch=2 n=a#5 v=45
548640 On ch=2 n=a#5 v=0
548640 On ch=2 n=c6 v=46
549120 On ch=2 n=c6 v=0
549120 On ch=2 n=d6 v=49
549360 On ch=2 n=d6 v=0
549360 On ch=2 n=d#6 v=51
549840 On ch=2 n=d#6 v=0
549840 On ch=2 n=d#6 v=54
550080 On ch=2 n=d#6 v=0
550080 On ch=2 n=d#6 v=57
550560 On ch=2 n=d#6 v=0
550560 On ch=2 n=c6 v=55
550800 On ch=2 n=c6 v=0
550800 On ch=2 n=a5 v=53
551040 On ch=2 n=a5 v=0
551040 On ch=2 n=c6 v=52
551280 On ch=2 n=c6 v=0
551280 On ch=2 n=a5 v=50
551520 On ch=2 n=a5 v=0
551520 On ch=2 n=a#5 v=49
551760 On ch=2 n=a#5 v=0
551760 On ch=2 n=a#5 v=47
552000 On ch=2 n=a#5 v=0
552000 On ch=2 n=c6 v=46
552240 On ch=2 n=c6 v=0
552240 On ch=2 n=d6 v=44
552720 On ch=2 n=d6 v=0
552720 On ch=2 n=a#5 v=46
552960 On ch=2 n=a#5 v=0
552960 On ch=2 n=c6 v=47
553440 On ch=2 n=c6 v=0
553440 On ch=2 n=d6 v=49
553680 On ch=2 n=d6 v=0
553680 On ch=2 n=d#6 v=50
554160 On ch=2 n=d#6 v=0
554160 On ch=2 n=d#6 v=52
554400 On ch=2 n=d#6 v=0
554400 On ch=2 n=d#6 v=54
554880 On ch=2 n=d#6 v=0
554880 On ch=2 n=c6 v=51
555120 On ch=2 n=c6 v=0
555120 On ch=2 n=a5 v=50
555360 On ch=2 n=a5 v=0
555360 On ch=2 n=c6 v=49
555600 On ch=2 n=c6 v=0
555600 On ch=2 n=a5 v=48
555840 On ch=2 n=a5 v=0
555840 On ch=2 n=g5 v=47
556560 On ch=2 n=g5 v=0
557280 On ch=2 n=a#4 v=42
558000 On ch=2 n=a#4 v=0
558000 On ch=2 n=d5 v=46
558720 On ch=2 n=d5 v=0
558720 On ch=2 n=d#5 v=44
559200 On ch=2 n=d#5 v=0
559680 On ch=2 n=g5 v=46
559920 On ch=2 n=g5 v=0
559920 On ch=2 n=g5 v=46
560160 On ch=2 n=g5 v=0
560160 On ch=2 n=g5 v=47
560400 On ch=2 n=g5 v=0
560400 On ch=2 n=a#5 v=47
560640 On ch=2 n=a#5 v=0
560640 On ch=2 n=a#5 v=48
560820 On ch=2 n=a#5 v=0
560820 On ch=2 n=a#5 v=48
560880 On ch=2 n=a#5 v=0
560880 On ch=2 n=d#6 v=53
561120 On ch=2 n=d#6 v=0
561120 On ch=2 n=d6 v=48
561360 On ch=2 n=d6 v=0
561360 On ch=2 n=c6 v=49
561600 On ch=2 n=c6 v=0
561600 On ch=2 n=a#5 v=49
561840 On ch=2 n=a#5 v=0
561840 On ch=2 n=g#5 v=50
562080 On ch=2 n=g#5 v=0
562080 On ch=2 n=g5 v=50
562320 On ch=2 n=g5 v=0
562320 On ch=2 n=a#5 v=51
562800 On ch=2 n=a#5 v=0
562800 On ch=2 n=g#5 v=47
562980 On ch=2 n=f5 v=52
562985 On ch=2 n=g#5 v=0
563040 On ch=2 n=f6 v=55
563100 On ch=2 n=f5 v=0
563280 On ch=2 n=f6 v=0
563280 On ch=2 n=d#6 v=52
563520 On ch=2 n=d#6 v=0
563520 On ch=2 n=d6 v=53
563760 On ch=2 n=d6 v=0
563760 On ch=2 n=c6 v=53
564000 On ch=2 n=c6 v=0
564000 On ch=2 n=a#5 v=53
564240 On ch=2 n=a#5 v=0
564240 On ch=2 n=g#5 v=54
564480 On ch=2 n=g#5 v=0
564480 On ch=2 n=f#5 v=54
564960 On ch=2 n=f#5 v=0
564960 On ch=2 n=g5 v=50
565200 On ch=2 n=g5 v=0
565200 On ch=2 n=f5 v=56
565680 On ch=2 n=f5 v=0
565680 On ch=2 n=g#5 v=56
565800 On ch=2 n=g#5 v=0
565800 On ch=2 n=g5 v=57
565920 On ch=2 n=g5 v=0
565920 On ch=2 n=f5 v=57
566040 On ch=2 n=f5 v=0
566040 On ch=2 n=g5 v=57
566160 On ch=2 n=g5 v=0
566160 On ch=2 n=g#5 v=57
566280 On ch=2 n=g#5 v=0
566280 On ch=2 n=a#5 v=57
566400 On ch=2 n=a#5 v=0
566400 On ch=2 n=c6 v=58
566520 On ch=2 n=c6 v=0
566520 On ch=2 n=a#5 v=58
566640 On ch=2 n=a#5 v=0
566640 On ch=2 n=a#5 v=60
566680 On ch=2 n=a#5 v=0
566680 On ch=2 n=c6 v=60
566720 On ch=2 n=c6 v=0
566720 On ch=2 n=a#5 v=61
566760 On ch=2 n=a#5 v=0
566760 On ch=2 n=a5 v=61
566820 On ch=2 n=a5 v=0
566820 On ch=2 n=a#5 v=62
566880 On ch=2 n=a#5 v=0
566880 On ch=2 n=d#6 v=63
567120 On ch=2 n=d#6 v=0
567120 On ch=2 n=g5 v=57
567360 On ch=2 n=g5 v=0
567360 On ch=2 n=f6 v=56
567840 On ch=2 n=f6 v=0
567840 On ch=2 n=g#6 v=59
567960 On ch=2 n=g#6 v=0
567960 On ch=2 n=g6 v=60
568080 On ch=2 n=g6 v=0
568080 On ch=2 n=f6 v=61
568200 On ch=2 n=f6 v=0
568200 On ch=2 n=g6 v=61
568320 On ch=2 n=g6 v=0
568320 On ch=2 n=g#6 v=62
568440 On ch=2 n=g#6 v=0
568440 On ch=2 n=a#6 v=63
568560 On ch=2 n=a#6 v=0
568560 On ch=2 n=c7 v=64
568680 On ch=2 n=c7 v=0
568680 On ch=2 n=a#6 v=64
568800 On ch=2 n=a#6 v=0
568800 On ch=2 n=a#6 v=63
568840 On ch=2 n=a#6 v=0
568840 On ch=2 n=c7 v=64
568880 On ch=2 n=c7 v=0
568880 On ch=2 n=a#6 v=65
568920 On ch=2 n=a#6 v=0
568920 On ch=2 n=a6 v=66
568980 On ch=2 n=a6 v=0
568980 On ch=2 n=a#6 v=67
569040 On ch=2 n=a#6 v=0
569040 On ch=2 n=d#7 v=69
569280 On ch=2 n=d#7 v=0
569280 On ch=2 n=g6 v=61
569520 On ch=2 n=g6 v=0
569520 On ch=2 n=f6 v=56
569760 On ch=2 n=f6 v=0
569760 On ch=2 n=g#6 v=57
570000 On ch=2 n=g#6 v=0
570000 On ch=2 n=c7 v=57
570240 On ch=2 n=c7 v=0
570240 On ch=2 n=d6 v=58
570480 On ch=2 n=d6 v=0
570480 On ch=2 n=f6 v=59
570720 On ch=2 n=f6 v=0
570720 On ch=2 n=a#6 v=60
570960 On ch=2 n=a#6 v=0
570960 On ch=2 n=g#6 v=63
571440 On ch=2 n=g#6 v=0
571440 On ch=2 n=g6 v=58
571680 On ch=2 n=g6 v=0
571680 On ch=2 n=f5 v=55
571920 On ch=2 n=f5 v=0
571920 On ch=2 n=g#5 v=53
572160 On ch=2 n=g#5 v=0
572160 On ch=2 n=c6 v=52
572400 On ch=2 n=c6 v=0
572400 On ch=2 n=d#5 v=51
572640 On ch=2 n=d#5 v=0
572640 On ch=2 n=g5 v=50
572880 On ch=2 n=g5 v=0
572880 On ch=2 n=a#5 v=49
573120 On ch=2 n=a#5 v=0
573120 On ch=2 n=g#4 v=48
573360 On ch=2 n=g#4 v=0
573360 On ch=2 n=a#4 v=47
573600 On ch=2 n=a#4 v=0
573600 On ch=2 n=d5 v=46
573840 On ch=2 n=d5 v=0
573840 On ch=2 n=d#5 v=46
574560 On ch=2 n=d#5 v=0
574800 On ch=2 n=d#6 v=50
575040 On ch=2 n=d#6 v=0
575040 On ch=2 n=d#6 v=52
575280 On ch=2 n=d#6 v=0
575280 On ch=2 n=d#6 v=57
575760 On ch=2 n=d#6 v=0
575760 On ch=2 n=c6 v=54
576000 On ch=2 n=c6 v=0
576000 On ch=2 n=a#5 v=52
576720 On ch=2 n=a#5 v=0
576720 On ch=2 n=g5 v=50
577200 On ch=2 n=g5 v=0
577200 On ch=2 n=a#5 v=48
577440 On ch=2 n=a#5 v=0
577440 On ch=2 n=a#5 v=47
577680 On ch=2 n=a#5 v=0
577680 On ch=2 n=g#5 v=46
577920 On ch=2 n=g#5 v=0
577920 On ch=2 n=g5 v=45
578000 On ch=2 n=g5 v=0
578000 On ch=2 n=a#5 v=45
578080 On ch=2 n=a#5 v=0
578080 On ch=2 n=g#5 v=44
578160 On ch=2 n=g#5 v=0
578160 On ch=2 n=g5 v=44
578880 On ch=2 n=g5 v=0
578880 On ch=2 n=d#5 v=44
578960 On ch=2 n=d#5 v=0
578960 On ch=2 n=f5 v=45
579040 On ch=2 n=f5 v=0
579040 On ch=2 n=d#5 v=45
579120 On ch=2 n=d#5 v=0
579120 On ch=2 n=d5 v=46
579180 On ch=2 n=d5 v=0
579180 On ch=2 n=d#5 v=47
579240 On ch=2 n=d#5 v=0
579240 On ch=2 n=f5 v=47
579300 On ch=2 n=f5 v=0
579300 On ch=2 n=g5 v=48
579360 On ch=2 n=g5 v=0
579360 On ch=2 n=g#5 v=48
579400 On ch=2 n=g#5 v=0
579400 On ch=2 n=a#5 v=48
579440 On ch=2 n=a#5 v=0
579440 On ch=2 n=c6 v=49
579480 On ch=2 n=c6 v=0
579480 On ch=2 n=d6 v=49
579540 On ch=2 n=d6 v=0
579540 On ch=2 n=d#6 v=50
579600 On ch=2 n=d#6 v=0
579600 On ch=2 n=f6 v=50
579720 On ch=2 n=f6 v=0
579720 On ch=2 n=d#6 v=51
579840 On ch=2 n=d#6 v=0
579840 On ch=2 n=d6 v=52
579960 On ch=2 n=d6 v=0
579960 On ch=2 n=c6 v=53
580080 On ch=2 n=c6 v=0
580080 On ch=2 n=d#6 v=54
580200 On ch=2 n=d#6 v=0
580200 On ch=2 n=c6 v=55
580320 On ch=2 n=c6 v=0
580320 On ch=2 n=a#5 v=53
581040 On ch=2 n=a#5 v=0
581040 On ch=2 n=g5 v=46
581520 On ch=2 n=g5 v=0
581520 On ch=2 n=a#5 v=42
581760 On ch=2 n=g5 v=40
581765 On ch=2 n=a#5 v=0
582120 On ch=2 n=a#5 v=38
582125 On ch=2 n=g5 v=0
582240 On ch=2 n=a#5 v=0
582240 On ch=2 n=a5 v=37
582360 On ch=2 n=a5 v=0
582360 On ch=2 n=g5 v=36
582480 On ch=2 n=g5 v=0
582480 On ch=2 n=f#5 v=35
583200 On ch=2 n=f#5 v=0
583200 On ch=2 n=a5 v=35
583680 On ch=2 n=a#5 v=42
583685 On ch=2 n=a5 v=0
583920 On ch=2 n=a#5 v=0
583920 On ch=2 n=c6 v=46
584040 On ch=2 n=c6 v=0
584040 On ch=2 n=d#6 v=44
584160 On ch=2 n=d#6 v=0
584160 On ch=2 n=d6 v=41
584280 On ch=2 n=d6 v=0
584280 On ch=2 n=c6 v=39
584400 On ch=2 n=c6 v=0
584400 On ch=2 n=a#5 v=36
584520 On ch=2 n=a#5 v=0
584520 On ch=2 n=a5 v=33
584640 On ch=2 n=a5 v=0
584640 On ch=2 n=g5 v=32
585360 On ch=2 n=g5 v=0
585360 On ch=2 n=a#5 v=35
585840 On ch=2 n=a#5 v=0
585840 On ch=2 n=c6 v=38
586080 On ch=2 n=c6 v=0
586080 On ch=2 n=d6 v=39
586560 On ch=2 n=d6 v=0
586560 On ch=2 n=d6 v=41
586800 On ch=2 n=d6 v=0
586800 On ch=2 n=d6 v=43
587280 On ch=2 n=d6 v=0
587280 On ch=2 n=a#5 v=41
587520 On ch=2 n=a#5 v=0
587520 On ch=2 n=g5 v=40
588000 On ch=2 n=g5 v=0
588000 On ch=2 n=a#5 v=37
588240 On ch=2 n=a#5 v=0
588240 On ch=2 n=a5 v=36
588960 On ch=2 n=a5 v=0
588960 On ch=2 n=g5 v=34
589680 On ch=2 n=g5 v=0
589680 On ch=2 n=a#5 v=36
590160 On ch=2 n=a#5 v=0
590160 On ch=2 n=c6 v=37
590400 On ch=2 n=c6 v=0
590400 On ch=2 n=d6 v=37
590880 On ch=2 n=d6 v=0
590880 On ch=2 n=d6 v=39
591120 On ch=2 n=d6 v=0
591120 On ch=2 n=d6 v=41
591600 On ch=2 n=d6 v=0
591600 On ch=2 n=a#5 v=39
591840 On ch=2 n=a#5 v=0
591840 On ch=2 n=c6 v=37
592080 On ch=2 n=c6 v=0
592080 On ch=2 n=d#6 v=36
592320 On ch=2 n=d#6 v=0
592320 On ch=2 n=a5 v=35
592560 On ch=2 n=a5 v=0
592560 On ch=2 n=a#5 v=34
593280 On ch=2 n=a#5 v=0
593280 On ch=2 n=d6 v=32
593760 On ch=2 n=d6 v=0
593760 On ch=2 n=a#5 v=35
594000 On ch=2 n=a#5 v=0
594000 On ch=2 n=c6 v=36
594480 On ch=2 n=c6 v=0
594480 On ch=2 n=d6 v=38
594720 On ch=2 n=d6 v=0
594720 On ch=2 n=d#6 v=39
595200 On ch=2 n=d#6 v=0
595200 On ch=2 n=d#6 v=42
595440 On ch=2 n=d#6 v=0
595440 On ch=2 n=d#6 v=44
595920 On ch=2 n=d#6 v=0
595920 On ch=2 n=c6 v=41
596160 On ch=2 n=c6 v=0
596160 On ch=2 n=a5 v=41
596400 On ch=2 n=a5 v=0
596400 On ch=2 n=c6 v=40
596640 On ch=2 n=c6 v=0
596640 On ch=2 n=a5 v=39
596880 On ch=2 n=a5 v=0
596880 On ch=2 n=a#5 v=38
597120 On ch=2 n=a#5 v=0
597120 On ch=2 n=a#5 v=37
597360 On ch=2 n=a#5 v=0
597360 On ch=2 n=c6 v=36
597600 On ch=2 n=c6 v=0
597600 On ch=2 n=d6 v=36
598080 On ch=2 n=d6 v=0
598080 On ch=2 n=a#5 v=38
598320 On ch=2 n=a#5 v=0
598320 On ch=2 n=c6 v=39
598800 On ch=2 n=c6 v=0
598800 On ch=2 n=d6 v=42
599040 On ch=2 n=d6 v=0
599040 On ch=2 n=d#6 v=43
599520 On ch=2 n=d#6 v=0
599520 On ch=2 n=d#6 v=45
599760 On ch=2 n=d#6 v=0
599760 On ch=2 n=d#6 v=48
600240 On ch=2 n=d#6 v=0
600240 On ch=2 n=c6 v=44
600480 On ch=2 n=c6 v=0
600480 On ch=2 n=a5 v=43
600720 On ch=2 n=a5 v=0
600720 On ch=2 n=c6 v=41
600960 On ch=2 n=c6 v=0
600960 On ch=2 n=a5 v=39
601200 On ch=2 n=a5 v=0
601200 On ch=2 n=g5 v=38
601920 On ch=2 n=g5 v=0
601920 On ch=2 n=g6 v=44
602640 On ch=2 n=g6 v=0
602640 On ch=2 n=a#6 v=48
603120 On ch=2 n=a#6 v=0
603120 On ch=2 n=c7 v=50
603360 On ch=2 n=c7 v=0
603360 On ch=2 n=d7 v=52
603840 On ch=2 n=d7 v=0
603840 On ch=2 n=d7 v=54
604080 On ch=2 n=d7 v=0
604080 On ch=2 n=d7 v=57
604560 On ch=2 n=d7 v=0
604560 On ch=2 n=a#6 v=54
604800 On ch=2 n=a#6 v=0
604800 On ch=2 n=g6 v=52
605280 On ch=2 n=g6 v=0
605280 On ch=2 n=a#6 v=49
605520 On ch=2 n=a#6 v=0
605520 On ch=2 n=a6 v=47
606240 On ch=2 n=a6 v=0
606240 On ch=2 n=c7 v=53
606720 On ch=2 n=c7 v=0
606720 On ch=2 n=a6 v=52
606960 On ch=2 n=a6 v=0
606960 On ch=2 n=f#6 v=51
607440 On ch=2 n=f#6 v=0
607440 On ch=2 n=a6 v=50
607680 On ch=2 n=a6 v=0
607680 On ch=2 n=g6 v=49
608400 On ch=2 n=g6 v=0
608400 On ch=2 n=c6 v=49
608760 On ch=2 n=c6 v=0
608880 On ch=2 n=a5 v=42
609072 On ch=2 n=a5 v=0
609840 On ch=2 n=f#5 v=45
610200 On ch=2 n=f#5 v=0
610320 On ch=2 n=a5 v=41
610512 On ch=2 n=a5 v=0
610560 On ch=2 n=f#5 v=38
611040 On ch=2 n=f#5 v=0
611280 On ch=2 n=g5 v=35
611760 On ch=2 n=g5 v=0
612720 Par ch=2 c=93 v=28
612720 Par ch=2 c=91 v=91
613680 On ch=2 n=b5 v=46
613920 On ch=2 n=b5 v=0
613920 On ch=2 n=c6 v=47
614040 On ch=2 n=c6 v=0
614040 On ch=2 n=b5 v=48
614160 On ch=2 n=b5 v=0
614160 On ch=2 n=d6 v=48
614400 On ch=2 n=d6 v=0
614400 On ch=2 n=e6 v=49
614520 On ch=2 n=e6 v=0
614520 On ch=2 n=d6 v=50
614640 On ch=2 n=d6 v=0
614640 On ch=2 n=g5 v=50
614880 On ch=2 n=g5 v=0
614880 On ch=2 n=a5 v=52
615000 On ch=2 n=a5 v=0
615000 On ch=2 n=g5 v=52
615120 On ch=2 n=g5 v=0
615120 On ch=2 n=b5 v=53
615600 On ch=2 n=b5 v=0
615600 On ch=2 n=e5 v=52
615840 On ch=2 n=e5 v=0
615840 On ch=2 n=f#5 v=52
615960 On ch=2 n=f#5 v=0
615960 On ch=2 n=e5 v=51
616080 On ch=2 n=e5 v=0
616080 On ch=2 n=g5 v=51
616320 On ch=2 n=g5 v=0
616320 On ch=2 n=a5 v=50
616440 On ch=2 n=a5 v=0
616440 On ch=2 n=g5 v=50
616560 On ch=2 n=g5 v=0
616560 On ch=2 n=a5 v=50
616800 On ch=2 n=a5 v=0
616800 On ch=2 n=b5 v=49
616920 On ch=2 n=b5 v=0
616920 On ch=2 n=a5 v=49
617040 On ch=2 n=a5 v=0
617040 On ch=2 n=b5 v=48
617520 On ch=2 n=b5 v=0
617520 On ch=2 n=b5 v=48
617760 On ch=2 n=b5 v=0
617760 On ch=2 n=c6 v=48
617880 On ch=2 n=c6 v=0
617880 On ch=2 n=b5 v=48
618000 On ch=2 n=b5 v=0
618000 On ch=2 n=d6 v=49
618240 On ch=2 n=d6 v=0
618240 On ch=2 n=e6 v=49
618360 On ch=2 n=e6 v=0
618360 On ch=2 n=d6 v=49
618480 On ch=2 n=d6 v=0
618480 On ch=2 n=g6 v=49
618720 On ch=2 n=g6 v=0
618720 On ch=2 n=a6 v=50
618840 On ch=2 n=a6 v=0
618840 On ch=2 n=g6 v=50
618960 On ch=2 n=g6 v=0
618960 On ch=2 n=f#6 v=53
619440 On ch=2 n=f#6 v=0
619440 On ch=2 n=e6 v=50
619680 On ch=2 n=e6 v=0
619680 On ch=2 n=f#6 v=49
619800 On ch=2 n=f#6 v=0
619800 On ch=2 n=e6 v=48
619920 On ch=2 n=e6 v=0
619920 On ch=2 n=c#6 v=48
619980 On ch=2 n=c#6 v=0
619980 On ch=2 n=d6 v=47
620040 On ch=2 n=d6 v=0
620040 On ch=2 n=c#6 v=47
620152 On ch=2 n=c#6 v=0
620160 On ch=2 n=b5 v=46
620280 On ch=2 n=b5 v=0
620280 On ch=2 n=c#6 v=45
620400 On ch=2 n=c#6 v=0
620400 On ch=2 n=d6 v=45
620640 On ch=2 n=d6 v=0
621360 Par ch=2 c=64 v=0
621360 On ch=2 n=b5 v=46
621600 On ch=2 n=b5 v=0
621600 On ch=2 n=c6 v=47
621720 On ch=2 n=c6 v=0
621720 On ch=2 n=b5 v=48
621840 On ch=2 n=b5 v=0
621840 On ch=2 n=d6 v=48
622080 On ch=2 n=d6 v=0
622080 On ch=2 n=e6 v=49
622200 On ch=2 n=e6 v=0
622200 On ch=2 n=d6 v=50
622320 On ch=2 n=d6 v=0
622320 On ch=2 n=g5 v=50
622560 On ch=2 n=g5 v=0
622560 On ch=2 n=a5 v=52
622680 On ch=2 n=a5 v=0
622680 On ch=2 n=g5 v=52
622800 On ch=2 n=g5 v=0
622800 On ch=2 n=b5 v=53
623280 On ch=2 n=b5 v=0
623280 On ch=2 n=e5 v=52
623520 On ch=2 n=e5 v=0
623520 On ch=2 n=f#5 v=52
623640 On ch=2 n=f#5 v=0
623640 On ch=2 n=e5 v=51
623760 On ch=2 n=e5 v=0
623760 On ch=2 n=g5 v=51
624000 On ch=2 n=g5 v=0
624000 On ch=2 n=a5 v=50
624120 On ch=2 n=a5 v=0
624120 On ch=2 n=g5 v=50
624240 On ch=2 n=g5 v=0
624240 On ch=2 n=a5 v=50
624480 On ch=2 n=a5 v=0
624480 On ch=2 n=b5 v=49
624600 On ch=2 n=b5 v=0
624600 On ch=2 n=a5 v=49
624720 On ch=2 n=a5 v=0
624720 On ch=2 n=b5 v=48
625200 On ch=2 n=b5 v=0
625200 On ch=2 n=b5 v=48
625440 On ch=2 n=b5 v=0
625440 On ch=2 n=c6 v=48
625560 On ch=2 n=c6 v=0
625560 On ch=2 n=b5 v=48
625680 On ch=2 n=b5 v=0
625680 On ch=2 n=d6 v=49
625920 On ch=2 n=d6 v=0
625920 On ch=2 n=e6 v=49
626040 On ch=2 n=e6 v=0
626040 On ch=2 n=d6 v=49
626160 On ch=2 n=d6 v=0
626160 On ch=2 n=g6 v=49
626400 On ch=2 n=g6 v=0
626400 On ch=2 n=a6 v=50
626520 On ch=2 n=a6 v=0
626520 On ch=2 n=g6 v=50
626640 On ch=2 n=g6 v=0
626640 On ch=2 n=f#6 v=53
627120 On ch=2 n=f#6 v=0
627120 On ch=2 n=e6 v=50
627360 On ch=2 n=e6 v=0
627360 On ch=2 n=f#6 v=49
627480 On ch=2 n=f#6 v=0
627480 On ch=2 n=e6 v=48
627600 On ch=2 n=e6 v=0
627600 On ch=2 n=c#6 v=48
627660 On ch=2 n=c#6 v=0
627660 On ch=2 n=d6 v=47
627720 On ch=2 n=d6 v=0
627720 On ch=2 n=c#6 v=47
627832 On ch=2 n=c#6 v=0
627840 On ch=2 n=b5 v=46
627960 On ch=2 n=b5 v=0
627960 On ch=2 n=c#6 v=45
628080 On ch=2 n=c#6 v=0
628080 On ch=2 n=d6 v=45
628320 On ch=2 n=d6 v=0
629040 On ch=2 n=d5 v=81
629280 On ch=2 n=d5 v=0
629280 On ch=2 n=e5 v=81
629400 On ch=2 n=e5 v=0
629400 On ch=2 n=d5 v=81
629520 On ch=2 n=d5 v=0
629520 On ch=2 n=b4 v=80
629640 On ch=2 n=b4 v=0
629760 On ch=2 n=c#5 v=80
629880 On ch=2 n=c#5 v=0
630000 On ch=2 n=d5 v=79
630480 On ch=2 n=d5 v=0
630480 On ch=2 n=d4 v=76
630840 On ch=2 n=d4 v=0
630900 On ch=2 n=f#4 v=77
630960 On ch=2 n=f#4 v=0
630960 On ch=2 n=e4 v=77
631080 On ch=2 n=e4 v=0
631200 On ch=2 n=d4 v=76
631320 On ch=2 n=d4 v=0
631440 On ch=2 n=e4 v=76
631560 On ch=2 n=e4 v=0
631680 On ch=2 n=f#4 v=75
631800 On ch=2 n=f#4 v=0
631920 On ch=2 n=g4 v=75
632400 On ch=2 n=g4 v=0
632400 On ch=2 n=g3 v=72
632760 On ch=2 n=g3 v=0
632880 On ch=2 n=d6 v=51
633120 On ch=2 n=e6 v=51
633132 On ch=2 n=d6 v=0
633240 On ch=2 n=e6 v=0
633240 On ch=2 n=d6 v=51
633360 On ch=2 n=d6 v=0
633360 On ch=2 n=b5 v=50
633600 On ch=2 n=b5 v=0
633600 On ch=2 n=c#6 v=49
633840 On ch=2 n=c#6 v=0
633840 On ch=2 n=d6 v=49
634320 On ch=2 n=d6 v=0
634320 On ch=2 n=b5 v=48
634800 On ch=2 n=b5 v=0
634800 On ch=2 n=d6 v=46
635040 On ch=2 n=d6 v=0
635040 On ch=2 n=c6 v=46
635196 On ch=2 n=c6 v=0
635280 On ch=2 n=a5 v=45
635436 On ch=2 n=a5 v=0
635520 On ch=2 n=f#5 v=44
635676 On ch=2 n=f#5 v=0
635760 On ch=2 n=g5 v=41
636000 On ch=2 n=g5 v=0
636720 Par ch=2 c=64 v=0
636720 On ch=2 n=d5 v=81
636960 On ch=2 n=d5 v=0
636960 On ch=2 n=e5 v=81
637080 On ch=2 n=e5 v=0
637080 On ch=2 n=d5 v=81
637200 On ch=2 n=d5 v=0
637200 On ch=2 n=b4 v=80
637320 On ch=2 n=b4 v=0
637440 On ch=2 n=c#5 v=80
637560 On ch=2 n=c#5 v=0
637680 On ch=2 n=d5 v=79
638160 On ch=2 n=d5 v=0
638160 On ch=2 n=d4 v=76
638520 On ch=2 n=d4 v=0
638580 On ch=2 n=f#4 v=77
638640 On ch=2 n=f#4 v=0
638640 On ch=2 n=e4 v=77
638760 On ch=2 n=e4 v=0
638880 On ch=2 n=d4 v=76
639000 On ch=2 n=d4 v=0
639120 On ch=2 n=e4 v=76
639240 On ch=2 n=e4 v=0
639360 On ch=2 n=f#4 v=75
639480 On ch=2 n=f#4 v=0
639600 On ch=2 n=g4 v=75
640080 On ch=2 n=g4 v=0
640080 On ch=2 n=g3 v=72
640440 On ch=2 n=g3 v=0
640560 On ch=2 n=d6 v=51
640800 On ch=2 n=e6 v=51
640812 On ch=2 n=d6 v=0
640920 On ch=2 n=e6 v=0
640920 On ch=2 n=d6 v=51
641040 On ch=2 n=d6 v=0
641040 On ch=2 n=b5 v=50
641280 On ch=2 n=b5 v=0
641280 On ch=2 n=c#6 v=49
641520 On ch=2 n=c#6 v=0
641520 On ch=2 n=d6 v=49
642000 On ch=2 n=d6 v=0
642000 On ch=2 n=b5 v=48
642480 On ch=2 n=b5 v=0
642480 On ch=2 n=d6 v=46
642720 On ch=2 n=d6 v=0
642720 On ch=2 n=c6 v=46
642876 On ch=2 n=c6 v=0
642960 On ch=2 n=a5 v=45
643116 On ch=2 n=a5 v=0
643200 On ch=2 n=f#5 v=44
643356 On ch=2 n=f#5 v=0
643440 On ch=2 n=g5 v=41
643680 On ch=2 n=g5 v=0
643920 On ch=2 n=g4 v=78
644160 On ch=2 n=g4 v=0
644160 On ch=2 n=a4 v=79
644280 On ch=2 n=a4 v=0
644280 On ch=2 n=g4 v=79
644400 On ch=2 n=g4 v=0
644400 On ch=2 n=b4 v=80
644640 On ch=2 n=b4 v=0
644640 On ch=2 n=c5 v=81
644760 On ch=2 n=c5 v=0
644760 On ch=2 n=b4 v=82
644880 On ch=2 n=b4 v=0
644880 On ch=2 n=b5 v=82
645120 On ch=2 n=b5 v=0
645120 On ch=2 n=c6 v=84
645240 On ch=2 n=c6 v=0
645240 On ch=2 n=b5 v=84
645360 On ch=2 n=b5 v=0
645360 On ch=2 n=e5 v=85
645600 On ch=2 n=e5 v=0
645600 On ch=2 n=f#5 v=88
645720 On ch=2 n=f#5 v=0
645720 On ch=2 n=e5 v=90
645840 On ch=2 n=e5 v=0
645840 On ch=2 n=g6 v=94
646320 On ch=2 n=g6 v=0
646320 On ch=2 n=f#6 v=86
646560 On ch=2 n=f#6 v=0
646560 On ch=2 n=a6 v=86
646800 On ch=2 n=a6 v=0
646800 On ch=2 n=f#6 v=85
647040 On ch=2 n=f#6 v=0
647040 On ch=2 n=d#6 v=85
647280 On ch=2 n=d#6 v=0
647280 On ch=2 n=e6 v=84
647760 On ch=2 n=e6 v=0
647760 On ch=2 n=b5 v=83
647952 On ch=2 n=b5 v=0
648000 On ch=2 n=b5 v=82
648240 On ch=2 n=b5 v=0
648240 On ch=2 n=c6 v=85
648360 On ch=2 n=c6 v=0
648360 On ch=2 n=b5 v=85
648480 On ch=2 n=b5 v=0
648480 On ch=2 n=a5 v=84
648600 On ch=2 n=a5 v=0
648600 On ch=2 n=g5 v=83
648720 On ch=2 n=g5 v=0
648720 On ch=2 n=f#5 v=82
648840 On ch=2 n=f#5 v=0
648840 On ch=2 n=g5 v=82
648960 On ch=2 n=g5 v=0
648960 On ch=2 n=f#5 v=81
649080 On ch=2 n=f#5 v=0
649080 On ch=2 n=e5 v=80
649200 On ch=2 n=e5 v=0
649200 On ch=2 n=d#5 v=79
649320 On ch=2 n=d#5 v=0
649320 On ch=2 n=e5 v=79
649440 On ch=2 n=e5 v=0
649440 On ch=2 n=f#5 v=78
649560 On ch=2 n=f#5 v=0
649560 On ch=2 n=d#5 v=77
649680 On ch=2 n=d#5 v=0
649680 On ch=2 n=b4 v=76
649800 On ch=2 n=b4 v=0
649920 On ch=2 n=f#5 v=77
649920 On ch=2 n=d#5 v=77
649920 On ch=2 n=b4 v=77
650040 On ch=2 n=b4 v=0
650040 On ch=2 n=d#5 v=0
650040 On ch=2 n=f#5 v=0
650160 On ch=2 n=g5 v=77
650160 On ch=2 n=e5 v=77
650160 On ch=2 n=b4 v=77
650280 On ch=2 n=b4 v=0
650280 On ch=2 n=e5 v=0
650280 On ch=2 n=g5 v=0
650400 On ch=2 n=e5 v=76
650400 On ch=2 n=g5 v=76
650520 On ch=2 n=g5 v=0
650520 On ch=2 n=e5 v=0
650640 On ch=2 n=e5 v=75
650640 On ch=2 n=g5 v=75
650760 On ch=2 n=g5 v=0
650760 On ch=2 n=e5 v=0
650880 On ch=2 n=b4 v=74
650880 On ch=2 n=g5 v=74
650880 On ch=2 n=e5 v=74
651000 On ch=2 n=e5 v=0
651000 On ch=2 n=g5 v=0
651000 On ch=2 n=b4 v=0
651120 On ch=2 n=b4 v=70
651120 On ch=2 n=d#5 v=70
651120 On ch=2 n=f#5 v=70
651360 On ch=2 n=f#5 v=0
651360 On ch=2 n=d#5 v=0
651360 On ch=2 n=b4 v=0
651600 On ch=2 n=b4 v=76
651840 On ch=2 n=b4 v=0
651840 On ch=2 n=c5 v=76
651960 On ch=2 n=c5 v=0
651960 On ch=2 n=b4 v=76
652080 On ch=2 n=b4 v=0
652080 On ch=2 n=b5 v=76
652320 On ch=2 n=b5 v=0
652320 On ch=2 n=c6 v=77
652440 On ch=2 n=c6 v=0
652440 On ch=2 n=b5 v=77
652560 On ch=2 n=b5 v=0
652560 On ch=2 n=b6 v=88
653040 On ch=2 n=b6 v=0
653520 On ch=2 n=a4 v=79
653760 On ch=2 n=a4 v=0
653760 On ch=2 n=b4 v=79
653880 On ch=2 n=b4 v=0
653880 On ch=2 n=a4 v=79
654000 On ch=2 n=a4 v=0
654000 On ch=2 n=c6 v=79
654240 On ch=2 n=c6 v=0
654240 On ch=2 n=d6 v=80
654360 On ch=2 n=d6 v=0
654360 On ch=2 n=c6 v=80
654480 On ch=2 n=c6 v=0
654480 On ch=2 n=c7 v=88
654960 On ch=2 n=c7 v=0
655440 On ch=2 n=f#4 v=82
655680 On ch=2 n=f#4 v=0
655680 On ch=2 n=g4 v=82
655800 On ch=2 n=g4 v=0
655800 On ch=2 n=f#4 v=82
655920 On ch=2 n=f#4 v=0
655920 On ch=2 n=c6 v=83
656160 On ch=2 n=c6 v=0
656160 On ch=2 n=d6 v=83
656280 On ch=2 n=d6 v=0
656280 On ch=2 n=c6 v=83
656400 On ch=2 n=c6 v=0
656400 On ch=2 n=a6 v=86
656640 On ch=2 n=a6 v=0
656640 On ch=2 n=b6 v=80
656760 On ch=2 n=b6 v=0
656760 On ch=2 n=a6 v=79
656880 On ch=2 n=a6 v=0
656880 On ch=2 n=c6 v=79
657120 On ch=2 n=c6 v=0
657120 On ch=2 n=d6 v=78
657240 On ch=2 n=d6 v=0
657240 On ch=2 n=c6 v=77
657360 On ch=2 n=c6 v=0
657360 On ch=2 n=a6 v=76
657600 On ch=2 n=a6 v=0
657600 On ch=2 n=b6 v=75
657720 On ch=2 n=b6 v=0
657720 On ch=2 n=a6 v=75
657840 On ch=2 n=a6 v=0
657840 On ch=2 n=c6 v=74
658080 On ch=2 n=c6 v=0
658080 On ch=2 n=d6 v=73
658200 On ch=2 n=d6 v=0
658200 On ch=2 n=c6 v=72
658320 On ch=2 n=c6 v=0
658320 On ch=2 n=f#6 v=72
658560 On ch=2 n=f#6 v=0
658560 On ch=2 n=g6 v=70
658680 On ch=2 n=g6 v=0
658680 On ch=2 n=f#6 v=70
658800 On ch=2 n=f#6 v=0
658800 On ch=2 n=c6 v=69
659040 On ch=2 n=c6 v=0
659040 On ch=2 n=d6 v=68
659160 On ch=2 n=d6 v=0
659160 On ch=2 n=c6 v=68
659280 On ch=2 n=c6 v=0
659280 On ch=2 n=f#6 v=67
659520 On ch=2 n=f#6 v=0
659520 On ch=2 n=g6 v=66
659640 On ch=2 n=g6 v=0
659640 On ch=2 n=f#6 v=65
659760 On ch=2 n=f#6 v=0
659760 On ch=2 n=c6 v=65
660000 On ch=2 n=c6 v=0
660000 On ch=2 n=d6 v=63
660120 On ch=2 n=d6 v=0
660120 On ch=2 n=c6 v=63
660240 On ch=2 n=c6 v=0
660240 On ch=2 n=d6 v=62
660480 On ch=2 n=d6 v=0
660480 On ch=2 n=e6 v=61
660600 On ch=2 n=e6 v=0
660600 On ch=2 n=d6 v=61
660720 On ch=2 n=d6 v=0
660720 On ch=2 n=c#6 v=60
660960 On ch=2 n=c#6 v=0
660960 On ch=2 n=d6 v=59
661080 On ch=2 n=d6 v=0
661080 On ch=2 n=c#6 v=58
661200 On ch=2 n=c#6 v=0
661200 On ch=2 n=d6 v=58
661440 On ch=2 n=d6 v=0
661440 On ch=2 n=e6 v=56
661560 On ch=2 n=e6 v=0
661560 On ch=2 n=d6 v=56
661680 On ch=2 n=d6 v=0
661680 On ch=2 n=c6 v=55
661920 On ch=2 n=c6 v=0
661920 On ch=2 n=d6 v=54
662040 On ch=2 n=d6 v=0
662040 On ch=2 n=c6 v=53
662160 On ch=2 n=c6 v=0
662160 On ch=2 n=d6 v=53
662400 On ch=2 n=d6 v=0
662400 On ch=2 n=e6 v=52
662520 On ch=2 n=e6 v=0
662520 On ch=2 n=d6 v=51
662640 On ch=2 n=d6 v=0
662640 On ch=2 n=b5 v=51
662880 On ch=2 n=b5 v=0
662880 On ch=2 n=c6 v=51
663000 On ch=2 n=c6 v=0
663000 On ch=2 n=b5 v=51
663120 On ch=2 n=b5 v=0
663120 On ch=2 n=d6 v=50
663360 On ch=2 n=d6 v=0
663360 On ch=2 n=e6 v=50
663480 On ch=2 n=e6 v=0
663480 On ch=2 n=d6 v=49
663600 On ch=2 n=d6 v=0
663600 On ch=2 n=g5 v=49
663840 On ch=2 n=g5 v=0
663840 On ch=2 n=a5 v=48
663960 On ch=2 n=a5 v=0
663960 On ch=2 n=g5 v=48
664080 On ch=2 n=g5 v=0
664080 On ch=2 n=b5 v=48
664560 On ch=2 n=b5 v=0
664560 On ch=2 n=e5 v=47
664800 On ch=2 n=e5 v=0
664800 On ch=2 n=f#5 v=46
664920 On ch=2 n=f#5 v=0
664920 On ch=2 n=e5 v=46
665040 On ch=2 n=e5 v=0
665040 On ch=2 n=g5 v=45
665280 On ch=2 n=g5 v=0
665280 On ch=2 n=a5 v=45
665400 On ch=2 n=a5 v=0
665400 On ch=2 n=g5 v=45
665520 On ch=2 n=g5 v=0
665520 On ch=2 n=a5 v=44
665760 On ch=2 n=a5 v=0
665760 On ch=2 n=b5 v=44
665880 On ch=2 n=b5 v=0
665880 On ch=2 n=a5 v=43
666000 On ch=2 n=a5 v=0
666000 On ch=2 n=b5 v=43
666480 On ch=2 n=b5 v=0
666480 On ch=2 n=b5 v=45
666720 On ch=2 n=b5 v=0
666720 On ch=2 n=c6 v=47
666840 On ch=2 n=c6 v=0
666840 On ch=2 n=b5 v=48
666960 On ch=2 n=b5 v=0
666960 On ch=2 n=d6 v=48
667200 On ch=2 n=d6 v=0
667200 On ch=2 n=e6 v=50
667320 On ch=2 n=e6 v=0
667320 On ch=2 n=d6 v=51
667440 On ch=2 n=d6 v=0
667440 On ch=2 n=g6 v=52
667680 On ch=2 n=g6 v=0
667680 On ch=2 n=a6 v=53
667800 On ch=2 n=a6 v=0
667800 On ch=2 n=g6 v=54
667920 On ch=2 n=g6 v=0
667920 On ch=2 n=f#6 v=55
668400 On ch=2 n=f#6 v=0
668400 On ch=2 n=e6 v=53
668640 On ch=2 n=e6 v=0
668640 On ch=2 n=f#6 v=52
668760 On ch=2 n=f#6 v=0
668760 On ch=2 n=e6 v=52
668880 On ch=2 n=e6 v=0
668880 On ch=2 n=c#6 v=51
668940 On ch=2 n=c#6 v=0
668940 On ch=2 n=d6 v=51
669000 On ch=2 n=d6 v=0
669000 On ch=2 n=c#6 v=50
669112 On ch=2 n=c#6 v=0
669120 On ch=2 n=b5 v=50
669240 On ch=2 n=b5 v=0
669240 On ch=2 n=c#6 v=49
669360 On ch=2 n=c#6 v=0
669360 On ch=2 n=d6 v=48
669600 On ch=2 n=d6 v=0
670320 On ch=2 n=d5 v=83
670560 On ch=2 n=d5 v=0
670560 On ch=2 n=e5 v=82
670680 On ch=2 n=e5 v=0
670680 On ch=2 n=d5 v=82
670800 On ch=2 n=d5 v=0
670800 On ch=2 n=b4 v=81
670920 On ch=2 n=b4 v=0
671040 On ch=2 n=c#5 v=81
671160 On ch=2 n=c#5 v=0
671280 On ch=2 n=d5 v=80
671760 On ch=2 n=d5 v=0
671760 On ch=2 n=d4 v=76
672120 On ch=2 n=d4 v=0
672180 On ch=2 n=f#4 v=77
672240 On ch=2 n=f#4 v=0
672240 On ch=2 n=e4 v=77
672360 On ch=2 n=e4 v=0
672480 On ch=2 n=d4 v=76
672600 On ch=2 n=d4 v=0
672720 On ch=2 n=e4 v=75
672840 On ch=2 n=e4 v=0
672960 On ch=2 n=f#4 v=74
673080 On ch=2 n=f#4 v=0
673200 On ch=2 n=g4 v=73
673680 On ch=2 n=g4 v=0
673680 On ch=2 n=g3 v=70
674040 On ch=2 n=g3 v=0
674160 On ch=2 n=d6 v=51
674400 On ch=2 n=d6 v=0
674400 On ch=2 n=e6 v=50
674520 On ch=2 n=e6 v=0
674520 On ch=2 n=d6 v=49
674640 On ch=2 n=d6 v=0
674640 On ch=2 n=b5 v=49
674760 On ch=2 n=b5 v=0
674880 On ch=2 n=c#6 v=48
675000 On ch=2 n=c#6 v=0
675120 On ch=2 n=d6 v=47
675600 On ch=2 n=d6 v=0
675600 On ch=2 n=b5 v=42
675960 On ch=2 n=b5 v=0
676080 On ch=2 n=d6 v=44
676320 On ch=2 n=d6 v=0
676320 On ch=2 n=c6 v=43
676476 On ch=2 n=c6 v=0
676560 On ch=2 n=a5 v=42
676716 On ch=2 n=a5 v=0
676800 On ch=2 n=f#5 v=41
676956 On ch=2 n=f#5 v=0
677040 On ch=2 n=g5 v=40
677520 On ch=2 n=g5 v=0
677640 On ch=2 n=g4 v=58
677760 On ch=2 n=g4 v=0
677760 On ch=2 n=a4 v=58
677880 On ch=2 n=a4 v=0
677880 On ch=2 n=b4 v=59
678000 On ch=2 n=b4 v=0
678000 On ch=2 n=c5 v=59
678120 On ch=2 n=c5 v=0
678120 On ch=2 n=g4 v=59
678240 On ch=2 n=g4 v=0
678240 On ch=2 n=a4 v=60
678360 On ch=2 n=a4 v=0
678360 On ch=2 n=b4 v=60
678480 On ch=2 n=b4 v=0
678480 On ch=2 n=c5 v=61
678600 On ch=2 n=c5 v=0
678600 On ch=2 n=d5 v=61
678720 On ch=2 n=d5 v=0
678720 On ch=2 n=e5 v=61
678840 On ch=2 n=e5 v=0
678840 On ch=2 n=f5 v=62
678960 On ch=2 n=f5 v=0
678960 On ch=2 n=g5 v=62
679080 On ch=2 n=g5 v=0
679200 On ch=2 n=e5 v=63
679320 On ch=2 n=e5 v=0
679440 On ch=2 n=c6 v=64
679560 On ch=2 n=c6 v=0
679680 On ch=2 n=g5 v=65
679800 On ch=2 n=g5 v=0
679920 On ch=2 n=e6 v=65
680040 On ch=2 n=e6 v=0
680160 On ch=2 n=c6 v=66
680280 On ch=2 n=c6 v=0
680400 On ch=2 n=g6 v=67
680520 On ch=2 n=g6 v=0
680640 On ch=2 n=e6 v=68
680760 On ch=2 n=e6 v=0
680880 On ch=2 n=a6 v=62
681480 On ch=2 n=a6 v=0
681480 On ch=2 n=c5 v=60
681600 On ch=2 n=c5 v=0
681600 On ch=2 n=d5 v=61
681720 On ch=2 n=d5 v=0
681720 On ch=2 n=e5 v=61
681840 On ch=2 n=e5 v=0
681840 On ch=2 n=f5 v=61
681960 On ch=2 n=f5 v=0
681960 On ch=2 n=c5 v=62
682080 On ch=2 n=c5 v=0
682080 On ch=2 n=d5 v=62
682200 On ch=2 n=d5 v=0
682200 On ch=2 n=e5 v=63
682320 On ch=2 n=e5 v=0
682320 On ch=2 n=f5 v=63
682440 On ch=2 n=f5 v=0
682440 On ch=2 n=g5 v=64
682560 On ch=2 n=g5 v=0
682560 On ch=2 n=a5 v=64
682680 On ch=2 n=a5 v=0
682680 On ch=2 n=a#5 v=64
682800 On ch=2 n=a#5 v=0
682800 On ch=2 n=c6 v=65
682920 On ch=2 n=c6 v=0
683040 On ch=2 n=a5 v=66
683160 On ch=2 n=a5 v=0
683280 On ch=2 n=f6 v=67
683400 On ch=2 n=f6 v=0
683520 On ch=2 n=c6 v=67
683640 On ch=2 n=c6 v=0
683760 On ch=2 n=a6 v=68
683880 On ch=2 n=a6 v=0
684000 On ch=2 n=f6 v=69
684120 On ch=2 n=f6 v=0
684240 On ch=2 n=f7 v=70
684360 On ch=2 n=f7 v=0
684480 On ch=2 n=b6 v=71
684600 On ch=2 n=b6 v=0
684720 On ch=2 n=c7 v=66
685320 On ch=2 n=c7 v=0
685320 On ch=2 n=g4 v=66
685440 On ch=2 n=g4 v=0
685440 On ch=2 n=a4 v=66
685560 On ch=2 n=a4 v=0
685560 On ch=2 n=b4 v=67
685680 On ch=2 n=b4 v=0
685680 On ch=2 n=c5 v=67
685800 On ch=2 n=c5 v=0
685800 On ch=2 n=g4 v=67
685920 On ch=2 n=g4 v=0
685920 On ch=2 n=a4 v=68
686040 On ch=2 n=a4 v=0
686040 On ch=2 n=b4 v=68
686160 On ch=2 n=b4 v=0
686160 On ch=2 n=c5 v=69
686280 On ch=2 n=c5 v=0
686280 On ch=2 n=d5 v=69
686400 On ch=2 n=d5 v=0
686400 On ch=2 n=e5 v=69
686520 On ch=2 n=e5 v=0
686520 On ch=2 n=f5 v=70
686640 On ch=2 n=f5 v=0
686640 On ch=2 n=g5 v=70
686760 On ch=2 n=g5 v=0
686760 On ch=2 n=e5 v=71
686880 On ch=2 n=e5 v=0
686880 On ch=2 n=c5 v=71
687000 On ch=2 n=c5 v=0
687000 On ch=2 n=g5 v=71
687120 On ch=2 n=g5 v=0
687120 On ch=2 n=c6 v=72
687240 On ch=2 n=c6 v=0
687240 On ch=2 n=g5 v=72
687360 On ch=2 n=g5 v=0
687360 On ch=2 n=e5 v=73
687480 On ch=2 n=e5 v=0
687480 On ch=2 n=c6 v=73
687600 On ch=2 n=c6 v=0
687600 On ch=2 n=e6 v=73
687720 On ch=2 n=e6 v=0
687720 On ch=2 n=c6 v=74
687840 On ch=2 n=c6 v=0
687840 On ch=2 n=g5 v=74
687960 On ch=2 n=g5 v=0
687960 On ch=2 n=e6 v=75
688080 On ch=2 n=e6 v=0
688080 On ch=2 n=g6 v=75
688200 On ch=2 n=g6 v=0
688200 On ch=2 n=e6 v=76
688320 On ch=2 n=e6 v=0
688320 On ch=2 n=c6 v=76
688440 On ch=2 n=c6 v=0
688440 On ch=2 n=g6 v=76
688560 On ch=2 n=g6 v=0
688560 On ch=2 n=a6 v=72
689160 On ch=2 n=a6 v=0
689160 On ch=2 n=c5 v=70
689280 On ch=2 n=c5 v=0
689280 On ch=2 n=d5 v=70
689400 On ch=2 n=d5 v=0
689400 On ch=2 n=e5 v=70
689520 On ch=2 n=e5 v=0
689520 On ch=2 n=f5 v=71
689640 On ch=2 n=f5 v=0
689640 On ch=2 n=c5 v=71
689760 On ch=2 n=c5 v=0
689760 On ch=2 n=d5 v=71
689880 On ch=2 n=d5 v=0
689880 On ch=2 n=e5 v=72
690000 On ch=2 n=e5 v=0
690000 On ch=2 n=f5 v=72
690120 On ch=2 n=f5 v=0
690120 On ch=2 n=g5 v=73
690240 On ch=2 n=g5 v=0
690240 On ch=2 n=a5 v=73
690360 On ch=2 n=a5 v=0
690360 On ch=2 n=a#5 v=73
690480 On ch=2 n=a#5 v=0
690480 On ch=2 n=c6 v=74
690600 On ch=2 n=c6 v=0
690600 On ch=2 n=a5 v=74
690720 On ch=2 n=a5 v=0
690720 On ch=2 n=f5 v=74
690840 On ch=2 n=f5 v=0
690840 On ch=2 n=a5 v=75
690960 On ch=2 n=a5 v=0
690960 On ch=2 n=f6 v=75
691080 On ch=2 n=f6 v=0
691080 On ch=2 n=c6 v=75
691200 On ch=2 n=c6 v=0
691200 On ch=2 n=a5 v=76
691320 On ch=2 n=a5 v=0
691320 On ch=2 n=f6 v=76
691440 On ch=2 n=f6 v=0
691440 On ch=2 n=a6 v=76
691560 On ch=2 n=a6 v=0
691560 On ch=2 n=f6 v=77
691680 On ch=2 n=f6 v=0
691680 On ch=2 n=c6 v=77
691800 On ch=2 n=c6 v=0
691800 On ch=2 n=a6 v=78
691920 On ch=2 n=a6 v=0
691920 On ch=2 n=f6 v=78
692040 On ch=2 n=f6 v=0
692040 On ch=2 n=f7 v=78
692160 On ch=2 n=f7 v=0
692160 On ch=2 n=d7 v=79
692280 On ch=2 n=d7 v=0
692280 On ch=2 n=b6 v=79
692400 On ch=2 n=b6 v=0
692400 On ch=2 n=c7 v=75
692640 On ch=2 n=c7 v=0
693360 On ch=2 n=e6 v=48
693600 On ch=2 n=f6 v=48
693720 On ch=2 n=f6 v=0
693720 On ch=2 n=e6 v=0
693720 On ch=2 n=e6 v=48
693840 On ch=2 n=e6 v=0
693840 On ch=2 n=g6 v=48
694080 On ch=2 n=a6 v=49
694200 On ch=2 n=a6 v=0
694200 On ch=2 n=g6 v=0
694200 On ch=2 n=g6 v=49
694320 On ch=2 n=g6 v=0
694320 On ch=2 n=e6 v=49
694560 On ch=2 n=f6 v=49
694680 On ch=2 n=f6 v=0
694680 On ch=2 n=e6 v=0
694680 On ch=2 n=e6 v=49
694800 On ch=2 n=e6 v=0
694800 On ch=2 n=g6 v=49
695040 On ch=2 n=a6 v=50
695160 On ch=2 n=a6 v=0
695160 On ch=2 n=g6 v=0
695160 On ch=2 n=g6 v=50
695280 On ch=2 n=g6 v=0
695280 Par ch=2 c=64 v=0
695280 On ch=2 n=c6 v=50
695520 On ch=2 n=d6 v=50
695640 On ch=2 n=d6 v=0
695640 On ch=2 n=c6 v=0
695640 On ch=2 n=c6 v=50
695760 On ch=2 n=c6 v=0
695760 On ch=2 n=e6 v=50
696000 On ch=2 n=f6 v=51
696120 On ch=2 n=f6 v=0
696120 On ch=2 n=e6 v=0
696120 On ch=2 n=e6 v=51
696240 On ch=2 n=e6 v=0
696240 On ch=2 n=c6 v=51
696480 On ch=2 n=c6 v=0
696480 On ch=2 n=d6 v=51
696600 On ch=2 n=d6 v=0
696600 On ch=2 n=c6 v=51
696720 On ch=2 n=c6 v=0
696720 On ch=2 n=e6 v=51
696960 On ch=2 n=e6 v=0
696960 On ch=2 n=f6 v=51
697080 On ch=2 n=f6 v=0
697080 On ch=2 n=e6 v=52
697200 On ch=2 n=e6 v=0
697200 On ch=2 n=c6 v=52
697440 On ch=2 n=c6 v=0
697440 On ch=2 n=d6 v=52
697560 On ch=2 n=d6 v=0
697560 On ch=2 n=c6 v=52
697680 On ch=2 n=c6 v=0
697680 On ch=2 n=d6 v=52
697920 On ch=2 n=d6 v=0
697920 On ch=2 n=e6 v=52
698040 On ch=2 n=e6 v=0
698040 On ch=2 n=d6 v=52
698160 On ch=2 n=d6 v=0
698160 On ch=2 n=b5 v=53
698400 On ch=2 n=b5 v=0
698400 On ch=2 n=c6 v=53
698520 On ch=2 n=c6 v=0
698520 On ch=2 n=b5 v=53
698640 On ch=2 n=b5 v=0
698640 On ch=2 n=d6 v=53
698880 On ch=2 n=d6 v=0
698880 On ch=2 n=e6 v=53
699000 On ch=2 n=e6 v=0
699000 On ch=2 n=d6 v=53
699120 On ch=2 n=d6 v=0
699120 On ch=2 n=g5 v=54
699360 On ch=2 n=g5 v=0
699360 On ch=2 n=a5 v=54
699480 On ch=2 n=a5 v=0
699480 On ch=2 n=g5 v=54
699600 On ch=2 n=g5 v=0
699600 On ch=2 n=b5 v=54
700080 On ch=2 n=b5 v=0
700080 On ch=2 n=e5 v=54
700320 On ch=2 n=e5 v=0
700320 On ch=2 n=f#5 v=55
700440 On ch=2 n=f#5 v=0
700440 On ch=2 n=e5 v=55
700560 On ch=2 n=e5 v=0
700560 On ch=2 n=g5 v=55
700800 On ch=2 n=g5 v=0
700800 On ch=2 n=a5 v=55
700920 On ch=2 n=a5 v=0
700920 On ch=2 n=g5 v=55
701040 On ch=2 n=g5 v=0
701040 On ch=2 n=a5 v=55
701280 On ch=2 n=a5 v=0
701280 On ch=2 n=b5 v=56
701400 On ch=2 n=b5 v=0
701400 On ch=2 n=a5 v=56
701520 On ch=2 n=a5 v=0
701520 On ch=2 n=b5 v=56
702000 On ch=2 n=b5 v=0
702000 On ch=2 n=b5 v=56
702240 On ch=2 n=b5 v=0
702240 On ch=2 n=c6 v=57
702360 On ch=2 n=c6 v=0
702360 On ch=2 n=b5 v=57
702480 On ch=2 n=b5 v=0
702480 On ch=2 n=d6 v=57
702720 On ch=2 n=d6 v=0
702720 On ch=2 n=e6 v=57
702840 On ch=2 n=e6 v=0
702840 On ch=2 n=d6 v=57
702960 On ch=2 n=d6 v=0
702960 On ch=2 n=g6 v=57
703200 On ch=2 n=g6 v=0
703200 On ch=2 n=a6 v=58
703320 On ch=2 n=a6 v=0
703320 On ch=2 n=g6 v=58
703440 On ch=2 n=g6 v=0
703440 On ch=2 n=f#6 v=58
703920 On ch=2 n=f#6 v=0
703920 On ch=2 n=e6 v=58
704160 On ch=2 n=e6 v=0
704160 On ch=2 n=f#6 v=57
704280 On ch=2 n=f#6 v=0
704280 On ch=2 n=e6 v=57
704340 On ch=2 n=d6 v=57
704362 On ch=2 n=e6 v=0
704400 On ch=2 n=d6 v=0
704400 On ch=2 n=c#6 v=57
704640 On ch=2 n=c#6 v=0
704640 On ch=2 n=b5 v=56
704760 On ch=2 n=b5 v=0
704760 On ch=2 n=c#6 v=55
704880 On ch=2 n=c#6 v=0
704880 On ch=2 n=d6 v=55
705120 On ch=2 n=d6 v=0
706000 On ch=2 n=b5 v=55
706160 On ch=2 n=b6 v=55
706304 On ch=2 n=b5 v=0
706320 On ch=2 n=b6 v=0
706480 On ch=2 n=d6 v=56
706640 On ch=2 n=d7 v=56
706784 On ch=2 n=d6 v=0
706800 On ch=2 n=d7 v=0
706960 On ch=2 n=g5 v=57
707120 On ch=2 n=g6 v=58
707264 On ch=2 n=g5 v=0
707280 On ch=2 n=g6 v=0
707440 On ch=2 n=b5 v=58
707600 On ch=2 n=b6 v=59
707744 On ch=2 n=b5 v=0
707760 On ch=2 n=b6 v=0
707920 On ch=2 n=e5 v=60
708080 On ch=2 n=e6 v=60
708224 On ch=2 n=e5 v=0
708240 On ch=2 n=e6 v=0
708400 On ch=2 n=g5 v=61
708560 On ch=2 n=g6 v=61
708704 On ch=2 n=g5 v=0
708720 On ch=2 n=g6 v=0
708880 On ch=2 n=a5 v=62
709040 On ch=2 n=a6 v=63
709184 On ch=2 n=a5 v=0
709200 On ch=2 n=a6 v=0
709360 On ch=2 n=b5 v=63
709520 On ch=2 n=b6 v=64
709664 On ch=2 n=b5 v=0
709680 On ch=2 n=b6 v=0
709840 On ch=2 n=b5 v=65
710000 On ch=2 n=b6 v=65
710144 On ch=2 n=b5 v=0
710160 On ch=2 n=b6 v=0
710320 On ch=2 n=d6 v=66
710480 On ch=2 n=d7 v=66
710624 On ch=2 n=d6 v=0
710640 On ch=2 n=d7 v=0
710800 On ch=2 n=g6 v=67
710960 On ch=2 n=g7 v=67
711120 On ch=2 n=g7 v=0
711128 On ch=2 n=g6 v=0
711280 On ch=2 n=f#6 v=68
711440 On ch=2 n=f#7 v=69
711600 On ch=2 n=f#7 v=0
711608 On ch=2 n=f#6 v=0
711760 On ch=2 n=e6 v=70
711920 On ch=2 n=e7 v=70
712080 On ch=2 n=e7 v=0
712088 On ch=2 n=e6 v=0
712240 On ch=2 n=c#6 v=71
712400 On ch=2 n=c#7 v=71
712544 On ch=2 n=c#6 v=0
712560 On ch=2 n=c#7 v=0
712720 On ch=2 n=d6 v=72
712880 On ch=2 n=d7 v=72
713024 On ch=2 n=d6 v=0
713040 On ch=2 n=d7 v=0
713520 On ch=2 n=d5 v=87
713760 On ch=2 n=d5 v=0
713760 On ch=2 n=e5 v=87
713880 On ch=2 n=e5 v=0
713880 On ch=2 n=d5 v=86
714000 On ch=2 n=d5 v=0
714000 On ch=2 n=b4 v=86
714120 On ch=2 n=b4 v=0
714240 On ch=2 n=c#5 v=85
714360 On ch=2 n=c#5 v=0
714480 On ch=2 n=d5 v=85
714960 On ch=2 n=d5 v=0
714960 On ch=2 n=d4 v=80
715320 On ch=2 n=d4 v=0
715380 On ch=2 n=f#4 v=82
715440 On ch=2 n=f#4 v=0
715440 On ch=2 n=e4 v=82
715560 On ch=2 n=e4 v=0
715680 On ch=2 n=d4 v=82
715800 On ch=2 n=d4 v=0
715920 On ch=2 n=e4 v=81
716040 On ch=2 n=e4 v=0
716160 On ch=2 n=f#4 v=80
716280 On ch=2 n=f#4 v=0
716400 On ch=2 n=g4 v=80
716880 On ch=2 n=g4 v=0
716880 On ch=2 n=g3 v=76
717240 On ch=2 n=g3 v=0
717520 On ch=2 n=b5 v=53
717680 On ch=2 n=b6 v=53
717824 On ch=2 n=b5 v=0
717840 On ch=2 n=b6 v=0
718000 On ch=2 n=c#6 v=52
718160 On ch=2 n=c#7 v=52
718304 On ch=2 n=c#6 v=0
718320 On ch=2 n=c#7 v=0
718480 On ch=2 n=d6 v=51
718640 On ch=2 n=d7 v=51
718784 On ch=2 n=d6 v=0
718800 On ch=2 n=d7 v=0
718960 On ch=2 n=b5 v=50
719120 On ch=2 n=b6 v=50
719264 On ch=2 n=b5 v=0
719280 On ch=2 n=b6 v=0
719440 On ch=2 n=c6 v=49
719600 On ch=2 n=c7 v=49
719744 On ch=2 n=c6 v=0
719760 On ch=2 n=c7 v=0
719920 On ch=2 n=f#5 v=48
720080 On ch=2 n=f#6 v=48
720224 On ch=2 n=f#5 v=0
720240 On ch=2 n=f#6 v=0
720240 On ch=2 n=g5 v=46
720240 On ch=2 n=g6 v=46
720720 On ch=2 n=g6 v=0
720720 On ch=2 n=g5 v=0
721200 On ch=2 n=d5 v=79
721440 On ch=2 n=d5 v=0
721440 On ch=2 n=e5 v=78
721560 On ch=2 n=e5 v=0
721560 On ch=2 n=d5 v=78
721680 On ch=2 n=d5 v=0
721680 On ch=2 n=b4 v=78
721800 On ch=2 n=b4 v=0
721920 On ch=2 n=c#5 v=77
722040 On ch=2 n=c#5 v=0
722160 On ch=2 n=d5 v=76
722640 On ch=2 n=d5 v=0
722640 On ch=2 n=d4 v=72
723000 On ch=2 n=d4 v=0
723120 On ch=2 n=d7 v=49
723360 On ch=2 n=d7 v=0
723360 On ch=2 n=e7 v=47
723480 On ch=2 n=e7 v=0
723480 On ch=2 n=d7 v=46
723600 On ch=2 n=d7 v=0
723600 On ch=2 n=b6 v=46
723720 On ch=2 n=b6 v=0
723840 On ch=2 n=c#7 v=44
723960 On ch=2 n=c#7 v=0
724080 On ch=2 n=d7 v=42
724320 On ch=2 n=d7 v=0
724980 On ch=2 n=f#4 v=73
725040 On ch=2 n=f#4 v=0
725040 On ch=2 n=e4 v=73
725160 On ch=2 n=e4 v=0
725280 On ch=2 n=d4 v=72
725400 On ch=2 n=d4 v=0
725520 On ch=2 n=e4 v=71
725640 On ch=2 n=e4 v=0
725760 On ch=2 n=f#4 v=70
725880 On ch=2 n=f#4 v=0
726000 On ch=2 n=g4 v=68
726480 On ch=2 n=g4 v=0
726480 On ch=2 n=g3 v=60
726840 On ch=2 n=g3 v=0
726900 On ch=2 n=f#7 v=49
726960 On ch=2 n=f#7 v=0
726960 On ch=2 n=e7 v=49
727080 On ch=2 n=e7 v=0
727200 On ch=2 n=d7 v=48
727320 On ch=2 n=d7 v=0
727440 On ch=2 n=e7 v=47
727560 On ch=2 n=e7 v=0
727680 On ch=2 n=f#7 v=46
727800 On ch=2 n=f#7 v=0
727920 On ch=2 n=g7 v=45
728160 On ch=2 n=g7 v=0
728820 On ch=2 n=f#6 v=47
728880 On ch=2 n=f#6 v=0
728880 On ch=2 n=e6 v=47
729000 On ch=2 n=e6 v=0
729120 On ch=2 n=d6 v=45
729240 On ch=2 n=d6 v=0
729360 On ch=2 n=e6 v=44
729480 On ch=2 n=e6 v=0
729600 On ch=2 n=f#6 v=42
729720 On ch=2 n=f#6 v=0
729840 On ch=2 n=g6 v=40
730080 On ch=2 n=g6 v=0
730320 On ch=2 n=d6 v=41
730560 On ch=2 n=d6 v=0
730560 On ch=2 n=e6 v=41
730680 On ch=2 n=e6 v=0
730680 On ch=2 n=d6 v=42
730800 On ch=2 n=d6 v=0
730800 On ch=2 n=c6 v=42
731040 On ch=2 n=c6 v=0
731040 On ch=2 n=d6 v=43
731160 On ch=2 n=d6 v=0
731160 On ch=2 n=c6 v=43
731280 On ch=2 n=c6 v=0
731280 On ch=2 n=a5 v=43
731520 On ch=2 n=a5 v=0
731520 On ch=2 n=b5 v=44
731640 On ch=2 n=b5 v=0
731640 On ch=2 n=a5 v=44
731760 On ch=2 n=a5 v=0
731760 On ch=2 n=b5 v=45
732000 On ch=2 n=b5 v=0
732000 On ch=2 n=c6 v=45
732120 On ch=2 n=c6 v=0
732120 On ch=2 n=b5 v=45
732240 On ch=2 n=b5 v=0
732240 On ch=2 n=d6 v=46
732480 On ch=2 n=d6 v=0
732480 On ch=2 n=e6 v=46
732600 On ch=2 n=e6 v=0
732600 On ch=2 n=d6 v=47
732720 On ch=2 n=d6 v=0
732720 On ch=2 n=c6 v=47
732960 On ch=2 n=c6 v=0
732960 On ch=2 n=d6 v=48
733080 On ch=2 n=d6 v=0
733080 On ch=2 n=c6 v=48
733200 On ch=2 n=c6 v=0
733200 On ch=2 n=a5 v=48
733440 On ch=2 n=a5 v=0
733440 On ch=2 n=b5 v=49
733560 On ch=2 n=b5 v=0
733560 On ch=2 n=a5 v=49
733680 On ch=2 n=a5 v=0
733680 On ch=2 n=b5 v=49
733920 On ch=2 n=b5 v=0
734320 On ch=2 n=d6 v=51
734480 On ch=2 n=d7 v=52
734624 On ch=2 n=d6 v=0
734640 On ch=2 n=d7 v=0
734800 On ch=2 n=c6 v=52
734960 On ch=2 n=c7 v=53
735104 On ch=2 n=c6 v=0
735120 On ch=2 n=c7 v=0
735280 On ch=2 n=a5 v=54
735440 On ch=2 n=a6 v=54
735584 On ch=2 n=a5 v=0
735600 On ch=2 n=a6 v=0
735760 On ch=2 n=b5 v=55
735920 On ch=2 n=b6 v=55
736064 On ch=2 n=b5 v=0
736080 On ch=2 n=b6 v=0
736240 On ch=2 n=d6 v=56
736400 On ch=2 n=d7 v=56
736544 On ch=2 n=d6 v=0
736560 On ch=2 n=d7 v=0
736720 On ch=2 n=c6 v=57
736880 On ch=2 n=c7 v=58
737024 On ch=2 n=c6 v=0
737040 On ch=2 n=c7 v=0
737200 On ch=2 n=a5 v=59
737360 On ch=2 n=a6 v=59
737504 On ch=2 n=a5 v=0
737520 On ch=2 n=a6 v=0
737520 On ch=2 n=b5 v=59
737760 On ch=2 n=b5 v=0
737760 On ch=2 n=c6 v=61
737880 On ch=2 n=c6 v=0
737880 On ch=2 n=b5 v=62
738000 On ch=2 n=b5 v=0
738000 On ch=2 n=d6 v=63
738240 On ch=2 n=d6 v=0
738240 On ch=2 n=e6 v=66
738360 On ch=2 n=e6 v=0
738360 On ch=2 n=d6 v=67
738480 On ch=2 n=d6 v=0
738480 On ch=2 n=b5 v=68
738720 On ch=2 n=b5 v=0
738720 On ch=2 n=c6 v=70
738840 On ch=2 n=c6 v=0
738840 On ch=2 n=b5 v=71
738960 On ch=2 n=b5 v=0
738960 On ch=2 n=g6 v=73
739200 On ch=2 n=g6 v=0
739200 On ch=2 n=a6 v=75
739320 On ch=2 n=a6 v=0
739320 On ch=2 n=g6 v=76
739440 On ch=2 n=g6 v=0
739440 On ch=2 n=d6 v=77
739680 On ch=2 n=d6 v=0
739680 On ch=2 n=e6 v=80
739800 On ch=2 n=e6 v=0
739800 On ch=2 n=d6 v=81
739920 On ch=2 n=d6 v=0
739920 On ch=2 n=b6 v=82
740160 On ch=2 n=b6 v=0
740160 On ch=2 n=c7 v=84
740280 On ch=2 n=c7 v=0
740280 On ch=2 n=b6 v=86
740400 On ch=2 n=b6 v=0
740400 On ch=2 n=g6 v=90
740640 On ch=2 n=g6 v=0
740880 On ch=2 n=d7 v=72
741120 On ch=2 n=d7 v=0
741360 On ch=2 n=b6 v=53
741600 On ch=2 n=b6 v=0
741600 Meta TrkEnd
TrkEnd
MTrk
0 SeqSpec 43 00 01 00
0 Meta TrkName "No Name"
0 Par ch=3 c=0 v=0
0 Par ch=3 c=32 v=0
0 PrCh ch=3 p=0
0 Par ch=3 c=7 v=122
0 Pb ch=3 v=8192
0 Par ch=3 c=1 v=0
0 Par ch=3 c=64 v=0
0 Par ch=3 c=93 v=28
0 Par ch=3 c=91 v=100
0 Par ch=3 c=10 v=73
1440 Par ch=3 c=64 v=0
1440 On ch=3 n=g5 v=77
1680 On ch=3 n=g5 v=0
1920 On ch=3 n=b5 v=80
2160 On ch=3 n=b5 v=0
2400 On ch=3 n=g5 v=82
2640 On ch=3 n=g5 v=0
2880 On ch=3 n=d6 v=88
3840 On ch=3 n=d6 v=0
34560 On ch=3 n=c#6 v=42
36000 On ch=3 n=c#6 v=0
36000 On ch=3 n=d6 v=48
37440 On ch=3 n=d6 v=0
37440 On ch=3 n=e6 v=62
38880 On ch=3 n=e6 v=0
38880 On ch=3 n=d6 v=49
39360 On ch=3 n=d6 v=0
39360 On ch=3 n=d6 v=46
39840 On ch=3 n=d6 v=0
39840 On ch=3 n=d6 v=43
40320 On ch=3 n=d6 v=0
40320 On ch=3 n=c#6 v=40
41760 On ch=3 n=c#6 v=0
41760 On ch=3 n=d6 v=46
43200 On ch=3 n=d6 v=0
43200 On ch=3 n=e6 v=59
44640 On ch=3 n=e6 v=0
44640 On ch=3 n=d6 v=48
45120 On ch=3 n=d6 v=0
45120 On ch=3 n=d6 v=46
45600 On ch=3 n=d6 v=0
45600 On ch=3 n=d6 v=44
46080 On ch=3 n=d6 v=0
46080 On ch=3 n=c#6 v=44
46320 On ch=3 n=c#6 v=0
66720 On ch=3 n=a5 v=82
66960 On ch=3 n=a5 v=0
67200 On ch=3 n=d5 v=81
67440 On ch=3 n=d5 v=0
68160 On ch=3 n=g5 v=78
68400 On ch=3 n=g5 v=0
68640 On ch=3 n=c#5 v=76
68880 On ch=3 n=c#5 v=0
69600 On ch=3 n=d5 v=53
69840 On ch=3 n=d5 v=0
70080 On ch=3 n=b4 v=51
70320 On ch=3 n=b4 v=0
71040 On ch=3 n=c5 v=48
71280 On ch=3 n=c5 v=0
71520 On ch=3 n=a4 v=46
71760 On ch=3 n=a4 v=0
72000 Par ch=3 c=64 v=0
72000 On ch=3 n=g5 v=77
72240 On ch=3 n=g5 v=0
72480 On ch=3 n=b5 v=80
72720 On ch=3 n=b5 v=0
72960 On ch=3 n=g5 v=82
73200 On ch=3 n=g5 v=0
73440 On ch=3 n=d6 v=88
74400 On ch=3 n=d6 v=0
105120 On ch=3 n=c#6 v=42
106560 On ch=3 n=c#6 v=0
106560 On ch=3 n=d6 v=48
108000 On ch=3 n=d6 v=0
108000 On ch=3 n=e6 v=62
109440 On ch=3 n=e6 v=0
109440 On ch=3 n=d6 v=49
109920 On ch=3 n=d6 v=0
109920 On ch=3 n=d6 v=46
110400 On ch=3 n=d6 v=0
110400 On ch=3 n=d6 v=43
110880 On ch=3 n=d6 v=0
110880 On ch=3 n=c#6 v=40
112320 On ch=3 n=c#6 v=0
112320 On ch=3 n=d6 v=46
113760 On ch=3 n=d6 v=0
113760 On ch=3 n=e6 v=59
115200 On ch=3 n=e6 v=0
115200 On ch=3 n=d6 v=48
115680 On ch=3 n=d6 v=0
115680 On ch=3 n=d6 v=46
116160 On ch=3 n=d6 v=0
116160 On ch=3 n=d6 v=44
116640 On ch=3 n=d6 v=0
116640 On ch=3 n=c#6 v=44
116880 On ch=3 n=c#6 v=0
137280 On ch=3 n=a5 v=82
137520 On ch=3 n=a5 v=0
137760 On ch=3 n=d5 v=81
138000 On ch=3 n=d5 v=0
138720 On ch=3 n=g5 v=78
138960 On ch=3 n=g5 v=0
139200 On ch=3 n=c#5 v=76
139440 On ch=3 n=c#5 v=0
140160 On ch=3 n=d5 v=53
140400 On ch=3 n=d5 v=0
140640 On ch=3 n=b4 v=51
140880 On ch=3 n=b4 v=0
141600 On ch=3 n=c5 v=48
141840 On ch=3 n=c5 v=0
142080 On ch=3 n=a4 v=46
142320 On ch=3 n=a4 v=0
142560 Par ch=3 c=64 v=0
143040 On ch=3 n=b5 v=83
143280 On ch=3 n=b5 v=0
143520 On ch=3 n=g#5 v=81
143760 On ch=3 n=g#5 v=0
144480 On ch=3 n=a5 v=76
144720 On ch=3 n=a5 v=0
144960 On ch=3 n=f#5 v=74
145200 On ch=3 n=f#5 v=0
145440 On ch=3 n=e5 v=74
145680 On ch=3 n=e5 v=0
145920 On ch=3 n=g#5 v=77
146160 On ch=3 n=g#5 v=0
146400 On ch=3 n=e5 v=80
146640 On ch=3 n=e5 v=0
146880 On ch=3 n=b5 v=89
147840 On ch=3 n=b5 v=0
280800 On ch=3 n=f#6 v=50
282240 On ch=3 n=f#6 v=0
282240 On ch=3 n=g6 v=54
283680 On ch=3 n=g6 v=0
283680 On ch=3 n=a6 v=61
285120 On ch=3 n=a6 v=0
285120 On ch=3 n=g6 v=52
285600 On ch=3 n=g6 v=0
285600 On ch=3 n=g6 v=50
286080 On ch=3 n=g6 v=0
286080 On ch=3 n=g6 v=48
286560 On ch=3 n=g6 v=0
286560 On ch=3 n=f#6 v=46
288000 On ch=3 n=f#6 v=0
288000 On ch=3 n=g6 v=49
289440 On ch=3 n=g6 v=0
289440 On ch=3 n=a6 v=56
290880 On ch=3 n=a6 v=0
290880 On ch=3 n=g6 v=49
291360 On ch=3 n=g6 v=0
291360 On ch=3 n=g6 v=47
291840 On ch=3 n=g6 v=0
291840 On ch=3 n=g6 v=48
292320 On ch=3 n=g6 v=0
292320 On ch=3 n=f#6 v=49
292560 On ch=3 n=f#6 v=0
312960 On ch=3 n=d6 v=82
313200 On ch=3 n=d6 v=0
313440 On ch=3 n=g5 v=80
313680 On ch=3 n=g5 v=0
314400 On ch=3 n=a5 v=77
314640 On ch=3 n=a5 v=0
314880 On ch=3 n=f#5 v=76
315120 On ch=3 n=f#5 v=0
315840 On ch=3 n=d5 v=53
316080 On ch=3 n=d5 v=0
316320 On ch=3 n=g4 v=52
316560 On ch=3 n=g4 v=0
317280 On ch=3 n=c5 v=50
317520 On ch=3 n=c5 v=0
317760 On ch=3 n=f#4 v=48
318000 On ch=3 n=f#4 v=0
318240 Par ch=3 c=64 v=0
318720 On ch=3 n=b5 v=83
318960 On ch=3 n=b5 v=0
319200 On ch=3 n=g#5 v=81
319440 On ch=3 n=g#5 v=0
320160 On ch=3 n=a5 v=76
320400 On ch=3 n=a5 v=0
320640 On ch=3 n=f#5 v=74
320880 On ch=3 n=f#5 v=0
321120 On ch=3 n=e5 v=74
321360 On ch=3 n=e5 v=0
321600 On ch=3 n=g#5 v=77
321840 On ch=3 n=g#5 v=0
322080 On ch=3 n=e5 v=80
322320 On ch=3 n=e5 v=0
322560 On ch=3 n=b5 v=89
323520 On ch=3 n=b5 v=0
456480 On ch=3 n=f#6 v=50
457920 On ch=3 n=f#6 v=0
457920 On ch=3 n=g6 v=54
459360 On ch=3 n=g6 v=0
459360 On ch=3 n=a6 v=61
460800 On ch=3 n=a6 v=0
460800 On ch=3 n=g6 v=52
461280 On ch=3 n=g6 v=0
461280 On ch=3 n=g6 v=50
461760 On ch=3 n=g6 v=0
461760 On ch=3 n=g6 v=48
462240 On ch=3 n=g6 v=0
462240 On ch=3 n=f#6 v=46
463680 On ch=3 n=f#6 v=0
463680 On ch=3 n=g6 v=49
465120 On ch=3 n=g6 v=0
465120 On ch=3 n=a6 v=56
466560 On ch=3 n=a6 v=0
466560 On ch=3 n=g6 v=49
467040 On ch=3 n=g6 v=0
467040 On ch=3 n=g6 v=47
467520 On ch=3 n=g6 v=0
467520 On ch=3 n=g6 v=48
468000 On ch=3 n=g6 v=0
468000 On ch=3 n=f#6 v=49
468240 On ch=3 n=f#6 v=0
488640 On ch=3 n=d6 v=82
488880 On ch=3 n=d6 v=0
489120 On ch=3 n=g5 v=80
489360 On ch=3 n=g5 v=0
490080 On ch=3 n=a5 v=77
490320 On ch=3 n=a5 v=0
490560 On ch=3 n=f#5 v=76
490800 On ch=3 n=f#5 v=0
491520 On ch=3 n=d5 v=53
491760 On ch=3 n=d5 v=0
492000 On ch=3 n=g4 v=52
492240 On ch=3 n=g4 v=0
492960 On ch=3 n=c5 v=50
493200 On ch=3 n=c5 v=0
493440 On ch=3 n=f#4 v=48
493680 On ch=3 n=f#4 v=0
493920 Par ch=3 c=64 v=0
494400 On ch=3 n=d6 v=75
494640 On ch=3 n=d6 v=0
494880 On ch=3 n=g5 v=73
495120 On ch=3 n=g5 v=0
495840 On ch=3 n=c6 v=70
496080 On ch=3 n=c6 v=0
496320 On ch=3 n=f#5 v=68
496560 On ch=3 n=f#5 v=0
497280 On ch=3 n=d5 v=45
497520 On ch=3 n=d5 v=0
497760 On ch=3 n=g4 v=44
498000 On ch=3 n=g4 v=0
498720 On ch=3 n=c5 v=42
498960 On ch=3 n=c5 v=0
499200 On ch=3 n=f#4 v=41
499440 On ch=3 n=f#4 v=0
499680 On ch=3 n=b5 v=62
499920 On ch=3 n=b5 v=0
500160 On ch=3 n=b5 v=65
500400 On ch=3 n=b5 v=0
500640 On ch=3 n=b5 v=68
500880 On ch=3 n=b5 v=0
501120 On ch=3 n=b5 v=71
501360 On ch=3 n=b5 v=0
501600 On ch=3 n=b5 v=65
501840 On ch=3 n=b5 v=0
502080 On ch=3 n=b5 v=64
502320 On ch=3 n=b5 v=0
502560 On ch=3 n=b5 v=63
502800 On ch=3 n=b5 v=0
503040 On ch=3 n=b5 v=62
503280 On ch=3 n=b5 v=0
503520 On ch=3 n=b5 v=61
503760 On ch=3 n=b5 v=0
504000 On ch=3 n=c6 v=60
504240 On ch=3 n=c6 v=0
504480 On ch=3 n=c6 v=59
504720 On ch=3 n=c6 v=0
504960 On ch=3 n=c6 v=58
505200 On ch=3 n=c6 v=0
511200 On ch=3 n=d6 v=64
511440 On ch=3 n=d6 v=0
511680 On ch=3 n=d6 v=67
511920 On ch=3 n=d6 v=0
512160 On ch=3 n=d6 v=70
512400 On ch=3 n=d6 v=0
512640 On ch=3 n=d6 v=72
512880 On ch=3 n=d6 v=0
513120 On ch=3 n=d6 v=67
513360 On ch=3 n=d6 v=0
513600 On ch=3 n=d6 v=66
513840 On ch=3 n=d6 v=0
514080 On ch=3 n=d6 v=65
514320 On ch=3 n=d6 v=0
514560 On ch=3 n=d6 v=64
514800 On ch=3 n=d6 v=0
515040 On ch=3 n=d6 v=63
515280 On ch=3 n=d6 v=0
515520 On ch=3 n=g6 v=62
515760 On ch=3 n=g6 v=0
516000 On ch=3 n=g6 v=61
516240 On ch=3 n=g6 v=0
516480 On ch=3 n=g6 v=60
516720 On ch=3 n=g6 v=0
537120 Par ch=3 c=93 v=28
537120 Par ch=3 c=91 v=91
539280 Par ch=3 c=64 v=0
539280 On ch=3 n=a#4 v=48
540000 On ch=3 n=a#4 v=0
540000 On ch=3 n=g5 v=51
540480 On ch=3 n=g5 v=0
540480 On ch=3 n=a5 v=53
540720 On ch=3 n=a5 v=0
540720 On ch=3 n=a#5 v=53
541200 On ch=3 n=a#5 v=0
541200 On ch=3 n=a#5 v=55
541440 On ch=3 n=a#5 v=0
541440 On ch=3 n=a#5 v=57
541920 On ch=3 n=a#5 v=0
541920 On ch=3 n=g5 v=54
542160 On ch=3 n=g5 v=0
542160 On ch=3 n=a#4 v=53
542640 On ch=3 n=a#4 v=0
542640 On ch=3 n=g5 v=50
542880 On ch=3 n=g5 v=0
542880 On ch=3 n=f#5 v=49
543600 On ch=3 n=a#4 v=46
543607 On ch=3 n=f#5 v=0
544320 On ch=3 n=a#4 v=0
544320 On ch=3 n=g5 v=48
544800 On ch=3 n=g5 v=0
544800 On ch=3 n=a5 v=50
545040 On ch=3 n=a5 v=0
545040 On ch=3 n=a#5 v=51
545520 On ch=3 n=a#5 v=0
545520 On ch=3 n=a#5 v=53
545760 On ch=3 n=a#5 v=0
545760 On ch=3 n=a#5 v=54
546240 On ch=3 n=a#5 v=0
546240 On ch=3 n=d5 v=50
546480 On ch=3 n=d5 v=0
546480 On ch=3 n=d#5 v=49
546720 On ch=3 n=d#5 v=0
546720 On ch=3 n=g5 v=48
546960 On ch=3 n=g5 v=0
546960 On ch=3 n=c5 v=46
547200 On ch=3 n=c5 v=0
547200 On ch=3 n=d5 v=45
547920 On ch=3 n=d5 v=0
547920 On ch=3 n=a#5 v=42
548400 On ch=3 n=a#5 v=0
548400 On ch=3 n=d5 v=45
548640 On ch=3 n=d5 v=0
548640 On ch=3 n=a5 v=46
549120 On ch=3 n=a5 v=0
549120 On ch=3 n=b5 v=49
549360 On ch=3 n=b5 v=0
549360 On ch=3 n=c6 v=51
549840 On ch=3 n=c6 v=0
549840 On ch=3 n=c6 v=54
550080 On ch=3 n=c6 v=0
550080 On ch=3 n=c6 v=57
550560 On ch=3 n=c6 v=0
550560 On ch=3 n=a5 v=55
550800 On ch=3 n=a5 v=0
550800 On ch=3 n=f#5 v=53
551040 On ch=3 n=f#5 v=0
551040 On ch=3 n=a5 v=52
551280 On ch=3 n=a5 v=0
551280 On ch=3 n=f#5 v=50
551520 On ch=3 n=f#5 v=0
551520 On ch=3 n=g5 v=49
551760 On ch=3 n=g5 v=0
551760 On ch=3 n=g5 v=47
552000 On ch=3 n=g5 v=0
552000 On ch=3 n=a5 v=46
552240 On ch=3 n=a5 v=0
552240 On ch=3 n=a#5 v=44
552720 On ch=3 n=a#5 v=0
552720 On ch=3 n=d5 v=46
552960 On ch=3 n=d5 v=0
552960 On ch=3 n=a5 v=47
553440 On ch=3 n=a5 v=0
553440 On ch=3 n=b5 v=49
553680 On ch=3 n=b5 v=0
553680 On ch=3 n=c6 v=50
554160 On ch=3 n=c6 v=0
554160 On ch=3 n=c6 v=52
554400 On ch=3 n=c6 v=0
554400 On ch=3 n=c6 v=53
554880 On ch=3 n=c6 v=0
554880 On ch=3 n=a5 v=51
555120 On ch=3 n=a5 v=0
555120 On ch=3 n=f#5 v=50
555360 On ch=3 n=f#5 v=0
555360 On ch=3 n=a5 v=49
555600 On ch=3 n=a5 v=0
555600 On ch=3 n=f#5 v=48
555840 On ch=3 n=f#5 v=0
555840 On ch=3 n=a#4 v=47
556560 On ch=3 n=a#4 v=0
558000 On ch=3 n=a#4 v=46
558000 On ch=3 n=g#4 v=46
558720 On ch=3 n=g#4 v=0
558720 On ch=3 n=a#4 v=0
558720 On ch=3 n=a#4 v=44
558720 On ch=3 n=g4 v=44
559200 On ch=3 n=g4 v=0
559200 On ch=3 n=a#4 v=0
573840 On ch=3 n=g4 v=46
573840 On ch=3 n=a#4 v=46
574560 On ch=3 n=a#4 v=0
574560 On ch=3 n=g4 v=0
574800 On ch=3 n=d#5 v=49
574800 On ch=3 n=c6 v=49
575040 On ch=3 n=c6 v=0
575040 On ch=3 n=d#5 v=0
575040 On ch=3 n=d#5 v=52
575040 On ch=3 n=c6 v=52
575280 On ch=3 n=c6 v=0
575280 On ch=3 n=d#5 v=0
575280 On ch=3 n=d#5 v=55
575280 On ch=3 n=c6 v=55
575760 On ch=3 n=c6 v=0
575760 On ch=3 n=g#5 v=52
576000 On ch=3 n=g#5 v=0
576000 On ch=3 n=d#5 v=0
576000 On ch=3 n=d#5 v=50
576720 On ch=3 n=d#5 v=0
576720 On ch=3 n=a#4 v=50
576720 On ch=3 n=d#5 v=50
577440 On ch=3 n=d#5 v=0
577440 On ch=3 n=a#4 v=0
577440 On ch=3 n=d5 v=47
578160 On ch=3 n=d5 v=0
578160 On ch=3 n=d#5 v=44
578160 On ch=3 n=a#4 v=44
578880 On ch=3 n=a#4 v=0
578880 On ch=3 n=d#5 v=0
581040 On ch=3 n=a#4 v=45
581520 On ch=3 n=a#4 v=0
581520 On ch=3 n=c#5 v=40
581760 On ch=3 n=c#5 v=0
581760 On ch=3 n=c#5 v=38
582240 On ch=3 n=c#5 v=0
582240 On ch=3 n=c#5 v=33
582480 On ch=3 n=c#5 v=0
582480 On ch=3 n=d5 v=28
583200 On ch=3 n=d5 v=0
583200 On ch=3 n=f#5 v=35
583680 On ch=3 n=g5 v=38
583685 On ch=3 n=f#5 v=0
583920 On ch=3 n=a5 v=46
583925 On ch=3 n=g5 v=0
584170 On ch=3 n=a5 v=0
584640 On ch=3 n=a#4 v=32
585360 On ch=3 n=a#4 v=0
585360 On ch=3 n=g5 v=35
585840 On ch=3 n=g5 v=0
585840 On ch=3 n=a5 v=38
586080 On ch=3 n=a5 v=0
586080 On ch=3 n=a#5 v=39
586560 On ch=3 n=a#5 v=0
586560 On ch=3 n=a#5 v=41
586800 On ch=3 n=a#5 v=0
586800 On ch=3 n=a#5 v=43
587280 On ch=3 n=a#5 v=0
587280 On ch=3 n=g5 v=41
587520 On ch=3 n=g5 v=0
587520 On ch=3 n=a#4 v=40
588000 On ch=3 n=a#4 v=0
588000 On ch=3 n=g5 v=37
588240 On ch=3 n=g5 v=0
588240 On ch=3 n=f#5 v=36
588960 On ch=3 n=f#5 v=0
588960 On ch=3 n=a#4 v=34
589680 On ch=3 n=a#4 v=0
589680 On ch=3 n=g5 v=36
590160 On ch=3 n=g5 v=0
590160 On ch=3 n=a5 v=37
590400 On ch=3 n=a5 v=0
590400 On ch=3 n=a#5 v=37
590880 On ch=3 n=a#5 v=0
590880 On ch=3 n=a#5 v=39
591120 On ch=3 n=a#5 v=0
591120 On ch=3 n=a#5 v=41
591600 On ch=3 n=a#5 v=0
591600 On ch=3 n=d5 v=39
591840 On ch=3 n=d5 v=0
591840 On ch=3 n=d#5 v=37
592080 On ch=3 n=d#5 v=0
592080 On ch=3 n=g5 v=36
592320 On ch=3 n=g5 v=0
592320 On ch=3 n=c5 v=35
592560 On ch=3 n=c5 v=0
592560 On ch=3 n=d5 v=34
593280 On ch=3 n=d5 v=0
593280 On ch=3 n=a#5 v=32
593760 On ch=3 n=a#5 v=0
593760 On ch=3 n=d5 v=35
594000 On ch=3 n=d5 v=0
594000 On ch=3 n=a5 v=36
594480 On ch=3 n=a5 v=0
594480 On ch=3 n=b5 v=38
594720 On ch=3 n=b5 v=0
594720 On ch=3 n=c6 v=39
595200 On ch=3 n=c6 v=0
595200 On ch=3 n=c6 v=42
595440 On ch=3 n=c6 v=0
595440 On ch=3 n=c6 v=43
595920 On ch=3 n=c6 v=0
595920 On ch=3 n=a5 v=41
596160 On ch=3 n=a5 v=0
596160 On ch=3 n=f#5 v=41
596400 On ch=3 n=f#5 v=0
596400 On ch=3 n=a5 v=40
596640 On ch=3 n=a5 v=0
596640 On ch=3 n=f#5 v=39
596880 On ch=3 n=f#5 v=0
596880 On ch=3 n=g5 v=38
597120 On ch=3 n=g5 v=0
597120 On ch=3 n=g5 v=37
597360 On ch=3 n=g5 v=0
597360 On ch=3 n=a5 v=36
597600 On ch=3 n=a5 v=0
597600 On ch=3 n=a#5 v=36
598080 On ch=3 n=a#5 v=0
598080 On ch=3 n=d5 v=38
598320 On ch=3 n=d5 v=0
598320 On ch=3 n=a5 v=39
598800 On ch=3 n=a5 v=0
598800 On ch=3 n=b5 v=42
599040 On ch=3 n=b5 v=0
599040 On ch=3 n=c6 v=43
599520 On ch=3 n=c6 v=0
599520 On ch=3 n=c6 v=45
599760 On ch=3 n=c6 v=0
599760 On ch=3 n=c6 v=47
600240 On ch=3 n=c6 v=0
600240 On ch=3 n=a5 v=44
600480 On ch=3 n=a5 v=0
600480 On ch=3 n=f#5 v=43
600720 On ch=3 n=f#5 v=0
600720 On ch=3 n=a5 v=41
600960 On ch=3 n=a5 v=0
600960 On ch=3 n=f#5 v=39
601200 On ch=3 n=f#5 v=0
601200 On ch=3 n=a#4 v=38
601920 On ch=3 n=a#4 v=0
601920 On ch=3 n=g5 v=42
602640 On ch=3 n=g5 v=0
602640 On ch=3 n=a#5 v=46
603120 On ch=3 n=a#5 v=0
603120 On ch=3 n=c6 v=49
603360 On ch=3 n=c6 v=0
603360 On ch=3 n=d6 v=50
603840 On ch=3 n=d6 v=0
603840 On ch=3 n=d6 v=53
604080 On ch=3 n=d6 v=0
604080 On ch=3 n=d6 v=57
604560 On ch=3 n=d6 v=0
604560 On ch=3 n=a#5 v=54
604800 On ch=3 n=a#5 v=0
604800 On ch=3 n=g5 v=52
605280 On ch=3 n=g5 v=0
605280 On ch=3 n=a#5 v=49
605520 On ch=3 n=a#5 v=0
605520 On ch=3 n=a5 v=47
606240 On ch=3 n=a5 v=0
606240 On ch=3 n=c6 v=53
606720 On ch=3 n=c6 v=0
606720 On ch=3 n=a5 v=52
606960 On ch=3 n=a5 v=0
606960 On ch=3 n=f#5 v=51
607440 On ch=3 n=f#5 v=0
607440 On ch=3 n=a5 v=50
607680 On ch=3 n=a5 v=0
607680 On ch=3 n=g5 v=49
608400 On ch=3 n=g5 v=0
608400 On ch=3 n=d#5 v=49
608760 On ch=3 n=d#5 v=0
608880 On ch=3 n=d#5 v=42
609072 On ch=3 n=d#5 v=0
609840 On ch=3 n=c5 v=45
610200 On ch=3 n=c5 v=0
610320 On ch=3 n=f#5 v=41
610512 On ch=3 n=f#5 v=0
610560 On ch=3 n=c5 v=38
610560 On ch=3 n=d5 v=38
611040 On ch=3 n=d5 v=0
611040 On ch=3 n=c5 v=0
611280 On ch=3 n=a#4 v=35
611280 On ch=3 n=d5 v=35
611760 On ch=3 n=d5 v=0
611760 On ch=3 n=a#4 v=0
633360 On ch=3 n=g5 v=50
633840 On ch=3 n=g5 v=0
633840 On ch=3 n=f#5 v=49
634320 On ch=3 n=f#5 v=0
634320 On ch=3 n=f5 v=48
634800 On ch=3 n=f5 v=0
634800 On ch=3 n=e5 v=46
635280 On ch=3 n=e5 v=0
635280 On ch=3 n=c5 v=45
635760 On ch=3 n=c5 v=0
635760 On ch=3 n=b4 v=41
636000 On ch=3 n=b4 v=0
636720 Par ch=3 c=64 v=0
641040 On ch=3 n=g5 v=50
641520 On ch=3 n=g5 v=0
641520 On ch=3 n=f#5 v=49
642000 On ch=3 n=f#5 v=0
642000 On ch=3 n=f5 v=48
642480 On ch=3 n=f5 v=0
642480 On ch=3 n=e5 v=46
642960 On ch=3 n=e5 v=0
642960 On ch=3 n=c5 v=45
643440 On ch=3 n=c5 v=0
643440 On ch=3 n=b4 v=41
643680 On ch=3 n=b4 v=0
680880 On ch=3 n=a5 v=62
681480 On ch=3 n=a5 v=0
684720 On ch=3 n=c6 v=66
685320 On ch=3 n=c6 v=0
688560 On ch=3 n=a5 v=72
688560 On ch=3 n=f6 v=72
688560 On ch=3 n=c6 v=72
689160 On ch=3 n=c6 v=0
689160 On ch=3 n=f6 v=0
689160 On ch=3 n=a5 v=0
740880 On ch=3 n=a6 v=72
740880 On ch=3 n=f#6 v=72
740880 On ch=3 n=d6 v=72
741120 On ch=3 n=d6 v=0
741120 On ch=3 n=f#6 v=0
741120 On ch=3 n=a6 v=0
741360 On ch=3 n=g6 v=53
741360 On ch=3 n=b5 v=53
741600 On ch=3 n=b5 v=0
741600 On ch=3 n=g6 v=0
741600 Meta TrkEnd
TrkEnd
MTrk
0 SeqSpec 43 00 01 00
0 Meta TrkName "No Name"
0 Par ch=4 c=0 v=0
0 Par ch=4 c=32 v=0
0 PrCh ch=4 p=0
0 Par ch=4 c=10 v=64
0 Par ch=4 c=91 v=100
0 Par ch=4 c=93 v=28
0 Par ch=4 c=64 v=0
0 Par ch=4 c=1 v=0
0 Pb ch=4 v=8192
0 Par ch=4 c=7 v=112
1440 Par ch=4 c=64 v=0
1440 On ch=4 n=b4 v=64
1680 On ch=4 n=d5 v=66
1920 On ch=4 n=d5 v=0
1920 On ch=4 n=b4 v=0
1920 On ch=4 n=b4 v=67
2160 On ch=4 n=d5 v=69
2400 On ch=4 n=d5 v=0
2400 On ch=4 n=b4 v=0
2400 On ch=4 n=b4 v=70
2640 On ch=4 n=d5 v=72
2880 On ch=4 n=d5 v=0
2880 On ch=4 n=b4 v=0
2880 On ch=4 n=b4 v=77
3120 On ch=4 n=d5 v=69
3360 On ch=4 n=d5 v=0
3360 On ch=4 n=b4 v=0
3360 On ch=4 n=b4 v=69
3600 On ch=4 n=d5 v=68
3840 On ch=4 n=d5 v=0
3840 On ch=4 n=b4 v=0
3840 On ch=4 n=b4 v=68
4080 On ch=4 n=d5 v=68
4320 On ch=4 n=d5 v=0
4320 On ch=4 n=b4 v=0
4320 On ch=4 n=b4 v=67
4560 On ch=4 n=d5 v=67
4800 On ch=4 n=d5 v=0
4800 On ch=4 n=b4 v=0
4800 On ch=4 n=b4 v=66
5040 On ch=4 n=d5 v=66
5280 On ch=4 n=d5 v=0
5280 On ch=4 n=b4 v=0
5280 On ch=4 n=b4 v=66
5520 On ch=4 n=d5 v=65
5760 On ch=4 n=d5 v=0
5760 On ch=4 n=b4 v=0
5760 On ch=4 n=c5 v=65
6000 On ch=4 n=e5 v=65
6240 On ch=4 n=e5 v=0
6240 On ch=4 n=c5 v=0
6240 On ch=4 n=c5 v=64
6480 On ch=4 n=e5 v=64
6720 On ch=4 n=e5 v=0
6720 On ch=4 n=c5 v=0
6720 On ch=4 n=c5 v=63
6960 On ch=4 n=e5 v=63
7200 On ch=4 n=e5 v=0
7200 On ch=4 n=c5 v=0
7200 On ch=4 n=c5 v=63
7440 On ch=4 n=e5 v=62
7680 On ch=4 n=e5 v=0
7680 On ch=4 n=c5 v=0
7680 On ch=4 n=c5 v=62
7920 On ch=4 n=e5 v=61
8160 On ch=4 n=e5 v=0
8160 On ch=4 n=c5 v=0
8160 On ch=4 n=c5 v=61
8400 On ch=4 n=e5 v=61
8640 On ch=4 n=e5 v=0
8640 On ch=4 n=c5 v=0
8640 On ch=4 n=a4 v=60
8640 On ch=4 n=c5 v=60
8880 On ch=4 n=d5 v=60
9120 On ch=4 n=d5 v=0
9120 On ch=4 n=c5 v=0
9120 On ch=4 n=a4 v=0
9120 On ch=4 n=a4 v=59
9120 On ch=4 n=c5 v=59
9360 On ch=4 n=d5 v=59
9600 On ch=4 n=d5 v=0
9600 On ch=4 n=c5 v=0
9600 On ch=4 n=a4 v=0
9600 On ch=4 n=c5 v=59
9600 On ch=4 n=a4 v=59
9840 On ch=4 n=d5 v=58
10080 On ch=4 n=d5 v=0
10080 On ch=4 n=a4 v=0
10080 On ch=4 n=c5 v=0
10080 On ch=4 n=c5 v=58
10080 On ch=4 n=a4 v=58
10320 On ch=4 n=d5 v=57
10560 On ch=4 n=d5 v=0
10560 On ch=4 n=a4 v=0
10560 On ch=4 n=c5 v=0
10560 On ch=4 n=a4 v=57
10560 On ch=4 n=c5 v=57
10800 On ch=4 n=d5 v=57
11040 On ch=4 n=d5 v=0
11040 On ch=4 n=c5 v=0
11040 On ch=4 n=a4 v=0
11040 On ch=4 n=a4 v=56
11040 On ch=4 n=c5 v=56
11280 On ch=4 n=d5 v=56
11520 On ch=4 n=d5 v=0
11520 On ch=4 n=c5 v=0
11520 On ch=4 n=a4 v=0
66240 On ch=4 n=f#4 v=77
66480 On ch=4 n=a4 v=77
66680 On ch=4 n=f#4 v=0
66720 On ch=4 n=a4 v=0
66720 On ch=4 n=f#4 v=76
66960 On ch=4 n=a4 v=75
67160 On ch=4 n=f#4 v=0
67200 On ch=4 n=a4 v=0
67200 On ch=4 n=f#4 v=74
67440 On ch=4 n=a4 v=74
67640 On ch=4 n=f#4 v=0
67680 On ch=4 n=a4 v=0
67680 On ch=4 n=e4 v=73
67680 On ch=4 n=g4 v=73
67920 On ch=4 n=a4 v=72
68120 On ch=4 n=g4 v=0
68120 On ch=4 n=e4 v=0
68160 On ch=4 n=a4 v=0
68160 On ch=4 n=e4 v=71
68160 On ch=4 n=g4 v=71
68400 On ch=4 n=a4 v=71
68600 On ch=4 n=g4 v=0
68600 On ch=4 n=e4 v=0
68640 On ch=4 n=a4 v=0
68640 On ch=4 n=e4 v=70
68640 On ch=4 n=g4 v=70
68880 On ch=4 n=a4 v=69
69080 On ch=4 n=g4 v=0
69080 On ch=4 n=e4 v=0
69120 On ch=4 n=a4 v=0
72000 Par ch=4 c=64 v=0
72480 On ch=4 n=b4 v=67
72720 On ch=4 n=d5 v=69
72960 On ch=4 n=d5 v=0
72960 On ch=4 n=b4 v=0
72960 On ch=4 n=b4 v=70
73200 On ch=4 n=d5 v=72
73440 On ch=4 n=d5 v=0
73440 On ch=4 n=b4 v=0
73440 On ch=4 n=b4 v=77
73680 On ch=4 n=d5 v=69
73920 On ch=4 n=d5 v=0
73920 On ch=4 n=b4 v=0
73920 On ch=4 n=b4 v=69
74160 On ch=4 n=d5 v=68
74400 On ch=4 n=d5 v=0
74400 On ch=4 n=b4 v=0
74400 On ch=4 n=b4 v=68
74640 On ch=4 n=d5 v=68
74880 On ch=4 n=d5 v=0
74880 On ch=4 n=b4 v=0
74880 On ch=4 n=b4 v=67
75120 On ch=4 n=d5 v=67
75360 On ch=4 n=d5 v=0
75360 On ch=4 n=b4 v=0
75360 On ch=4 n=b4 v=66
75600 On ch=4 n=d5 v=66
75840 On ch=4 n=d5 v=0
75840 On ch=4 n=b4 v=0
75840 On ch=4 n=b4 v=66
76080 On ch=4 n=d5 v=65
76320 On ch=4 n=d5 v=0
76320 On ch=4 n=b4 v=0
76320 On ch=4 n=c5 v=65
76560 On ch=4 n=e5 v=65
76800 On ch=4 n=e5 v=0
76800 On ch=4 n=c5 v=0
76800 On ch=4 n=c5 v=64
77040 On ch=4 n=e5 v=64
77280 On ch=4 n=e5 v=0
77280 On ch=4 n=c5 v=0
77280 On ch=4 n=c5 v=63
77520 On ch=4 n=e5 v=63
77760 On ch=4 n=e5 v=0
77760 On ch=4 n=c5 v=0
77760 On ch=4 n=c5 v=63
78000 On ch=4 n=e5 v=62
78240 On ch=4 n=e5 v=0
78240 On ch=4 n=c5 v=0
78240 On ch=4 n=c5 v=62
78480 On ch=4 n=e5 v=61
78720 On ch=4 n=e5 v=0
78720 On ch=4 n=c5 v=0
78720 On ch=4 n=c5 v=61
78960 On ch=4 n=e5 v=61
79200 On ch=4 n=e5 v=0
79200 On ch=4 n=c5 v=0
79200 On ch=4 n=c5 v=60
79200 On ch=4 n=a4 v=60
79440 On ch=4 n=d5 v=60
79680 On ch=4 n=d5 v=0
79680 On ch=4 n=a4 v=0
79680 On ch=4 n=c5 v=0
79680 On ch=4 n=c5 v=59
79680 On ch=4 n=a4 v=59
79920 On ch=4 n=d5 v=59
80160 On ch=4 n=d5 v=0
80160 On ch=4 n=a4 v=0
80160 On ch=4 n=c5 v=0
80160 On ch=4 n=a4 v=59
80160 On ch=4 n=c5 v=59
80400 On ch=4 n=d5 v=58
80640 On ch=4 n=d5 v=0
80640 On ch=4 n=c5 v=0
80640 On ch=4 n=a4 v=0
80640 On ch=4 n=a4 v=58
80640 On ch=4 n=c5 v=58
80880 On ch=4 n=d5 v=57
81120 On ch=4 n=d5 v=0
81120 On ch=4 n=c5 v=0
81120 On ch=4 n=a4 v=0
81120 On ch=4 n=c5 v=57
81120 On ch=4 n=a4 v=57
81360 On ch=4 n=d5 v=57
81600 On ch=4 n=d5 v=0
81600 On ch=4 n=a4 v=0
81600 On ch=4 n=c5 v=0
81600 On ch=4 n=c5 v=56
81600 On ch=4 n=a4 v=56
81840 On ch=4 n=d5 v=56
82080 On ch=4 n=d5 v=0
82080 On ch=4 n=a4 v=0
82080 On ch=4 n=c5 v=0
136800 On ch=4 n=f#4 v=77
137040 On ch=4 n=a4 v=77
137240 On ch=4 n=f#4 v=0
137280 On ch=4 n=a4 v=0
137280 On ch=4 n=f#4 v=76
137520 On ch=4 n=a4 v=75
137720 On ch=4 n=f#4 v=0
137760 On ch=4 n=a4 v=0
137760 On ch=4 n=f#4 v=74
138000 On ch=4 n=a4 v=74
138200 On ch=4 n=f#4 v=0
138240 On ch=4 n=a4 v=0
138240 On ch=4 n=g4 v=73
138240 On ch=4 n=e4 v=73
138480 On ch=4 n=a4 v=72
138680 On ch=4 n=e4 v=0
138680 On ch=4 n=g4 v=0
138720 On ch=4 n=a4 v=0
138720 On ch=4 n=g4 v=71
138720 On ch=4 n=e4 v=71
138960 On ch=4 n=a4 v=71
139160 On ch=4 n=e4 v=0
139160 On ch=4 n=g4 v=0
139200 On ch=4 n=a4 v=0
139200 On ch=4 n=g4 v=70
139200 On ch=4 n=e4 v=70
139440 On ch=4 n=a4 v=69
139640 On ch=4 n=e4 v=0
139640 On ch=4 n=g4 v=0
139680 On ch=4 n=a4 v=0
142560 Par ch=4 c=64 v=0
145440 On ch=4 n=g#4 v=70
145680 On ch=4 n=b4 v=72
145920 On ch=4 n=b4 v=0
145920 On ch=4 n=g#4 v=0
145920 On ch=4 n=g#4 v=73
146160 On ch=4 n=b4 v=75
146400 On ch=4 n=b4 v=0
146400 On ch=4 n=g#4 v=0
146400 On ch=4 n=g#4 v=77
146640 On ch=4 n=b4 v=79
146880 On ch=4 n=b4 v=0
146880 On ch=4 n=g#4 v=0
146880 On ch=4 n=g#4 v=85
147120 On ch=4 n=b4 v=73
147360 On ch=4 n=b4 v=0
147360 On ch=4 n=g#4 v=0
147360 On ch=4 n=g#4 v=73
147600 On ch=4 n=b4 v=72
147840 On ch=4 n=b4 v=0
147840 On ch=4 n=g#4 v=0
147840 On ch=4 n=g#4 v=72
148080 On ch=4 n=b4 v=71
148320 On ch=4 n=b4 v=0
148320 On ch=4 n=g#4 v=0
148320 On ch=4 n=g#4 v=71
148560 On ch=4 n=b4 v=71
148800 On ch=4 n=b4 v=0
148800 On ch=4 n=g#4 v=0
148800 On ch=4 n=g#4 v=70
149040 On ch=4 n=b4 v=70
149280 On ch=4 n=b4 v=0
149280 On ch=4 n=g#4 v=0
149280 On ch=4 n=g#4 v=69
149520 On ch=4 n=b4 v=69
149760 On ch=4 n=b4 v=0
149760 On ch=4 n=g#4 v=0
149760 On ch=4 n=a4 v=68
150000 On ch=4 n=c#5 v=68
150240 On ch=4 n=c#5 v=0
150240 On ch=4 n=a4 v=0
150240 On ch=4 n=a4 v=67
150480 On ch=4 n=c#5 v=67
150720 On ch=4 n=c#5 v=0
150720 On ch=4 n=a4 v=0
150720 On ch=4 n=a4 v=67
150960 On ch=4 n=c#5 v=66
151200 On ch=4 n=c#5 v=0
151200 On ch=4 n=a4 v=0
151200 On ch=4 n=a4 v=66
151440 On ch=4 n=c#5 v=65
151680 On ch=4 n=c#5 v=0
151680 On ch=4 n=a4 v=0
151680 On ch=4 n=a4 v=65
151920 On ch=4 n=c#5 v=64
152160 On ch=4 n=c#5 v=0
152160 On ch=4 n=a4 v=0
152160 On ch=4 n=a4 v=64
152400 On ch=4 n=c#5 v=64
152640 On ch=4 n=c#5 v=0
152640 On ch=4 n=a4 v=0
152640 On ch=4 n=a4 v=63
152640 On ch=4 n=f#4 v=63
152880 On ch=4 n=b4 v=63
153120 On ch=4 n=b4 v=0
153120 On ch=4 n=f#4 v=0
153120 On ch=4 n=a4 v=0
153120 On ch=4 n=a4 v=62
153120 On ch=4 n=f#4 v=62
153360 On ch=4 n=b4 v=62
153600 On ch=4 n=b4 v=0
153600 On ch=4 n=f#4 v=0
153600 On ch=4 n=a4 v=0
153600 On ch=4 n=a4 v=61
153600 On ch=4 n=f#4 v=61
153840 On ch=4 n=b4 v=61
154080 On ch=4 n=b4 v=0
154080 On ch=4 n=f#4 v=0
154080 On ch=4 n=a4 v=0
154080 On ch=4 n=a4 v=60
154080 On ch=4 n=f#4 v=60
154320 On ch=4 n=b4 v=60
154560 On ch=4 n=b4 v=0
154560 On ch=4 n=f#4 v=0
154560 On ch=4 n=a4 v=0
154560 On ch=4 n=f#4 v=60
154560 On ch=4 n=a4 v=60
154800 On ch=4 n=b4 v=59
155040 On ch=4 n=b4 v=0
155040 On ch=4 n=a4 v=0
155040 On ch=4 n=f#4 v=0
155040 On ch=4 n=a4 v=59
155040 On ch=4 n=f#4 v=59
155280 On ch=4 n=b4 v=58
155520 On ch=4 n=b4 v=0
155520 On ch=4 n=f#4 v=0
155520 On ch=4 n=a4 v=0
155760 On ch=4 n=b4 v=57
155952 On ch=4 n=b4 v=0
156240 On ch=4 n=b4 v=57
156432 On ch=4 n=b4 v=0
156720 On ch=4 n=b4 v=56
156912 On ch=4 n=b4 v=0
157200 On ch=4 n=b4 v=56
157392 On ch=4 n=b4 v=0
157680 On ch=4 n=b4 v=56
157872 On ch=4 n=b4 v=0
158160 On ch=4 n=b4 v=55
158352 On ch=4 n=b4 v=0
158640 On ch=4 n=b4 v=55
158832 On ch=4 n=b4 v=0
159120 On ch=4 n=b4 v=54
159312 On ch=4 n=b4 v=0
159600 On ch=4 n=b4 v=54
159792 On ch=4 n=b4 v=0
160080 On ch=4 n=b4 v=54
160272 On ch=4 n=b4 v=0
160560 On ch=4 n=b4 v=53
160752 On ch=4 n=b4 v=0
161040 On ch=4 n=b4 v=53
161232 On ch=4 n=b4 v=0
161520 On ch=4 n=b4 v=53
161712 On ch=4 n=b4 v=0
162000 On ch=4 n=b4 v=52
162192 On ch=4 n=b4 v=0
162480 On ch=4 n=b4 v=52
162672 On ch=4 n=b4 v=0
162960 On ch=4 n=b4 v=51
163152 On ch=4 n=b4 v=0
163440 On ch=4 n=b4 v=51
163632 On ch=4 n=b4 v=0
163920 On ch=4 n=b4 v=51
164112 On ch=4 n=b4 v=0
164400 On ch=4 n=b4 v=50
164592 On ch=4 n=b4 v=0
164880 On ch=4 n=b4 v=50
165072 On ch=4 n=b4 v=0
165360 On ch=4 n=b4 v=50
165552 On ch=4 n=b4 v=0
165840 On ch=4 n=b4 v=43
166032 On ch=4 n=b4 v=0
166320 On ch=4 n=b4 v=43
166512 On ch=4 n=b4 v=0
166800 On ch=4 n=b4 v=43
166992 On ch=4 n=b4 v=0
167280 On ch=4 n=g4 v=42
167472 On ch=4 n=g4 v=0
167760 On ch=4 n=g4 v=42
167952 On ch=4 n=g4 v=0
168240 On ch=4 n=g4 v=42
168432 On ch=4 n=g4 v=0
168720 On ch=4 n=g4 v=42
168912 On ch=4 n=g4 v=0
169200 On ch=4 n=g4 v=41
169392 On ch=4 n=g4 v=0
169680 On ch=4 n=g4 v=41
169872 On ch=4 n=g4 v=0
170160 On ch=4 n=g4 v=41
170352 On ch=4 n=g4 v=0
170640 On ch=4 n=g4 v=40
170832 On ch=4 n=g4 v=0
171120 On ch=4 n=g4 v=40
171312 On ch=4 n=g4 v=0
171600 On ch=4 n=g4 v=40
171792 On ch=4 n=g4 v=0
172080 On ch=4 n=g4 v=39
172272 On ch=4 n=g4 v=0
172560 On ch=4 n=g4 v=39
172752 On ch=4 n=g4 v=0
173040 On ch=4 n=g4 v=39
173232 On ch=4 n=g4 v=0
173520 On ch=4 n=g4 v=39
173712 On ch=4 n=g4 v=0
174000 On ch=4 n=g4 v=38
174192 On ch=4 n=g4 v=0
174480 On ch=4 n=g4 v=38
174672 On ch=4 n=g4 v=0
174960 On ch=4 n=g4 v=38
175152 On ch=4 n=g4 v=0
175440 On ch=4 n=g4 v=37
175632 On ch=4 n=g4 v=0
175920 On ch=4 n=g4 v=37
176112 On ch=4 n=g4 v=0
176400 On ch=4 n=g4 v=37
176592 On ch=4 n=g4 v=0
176880 On ch=4 n=g4 v=36
177072 On ch=4 n=g4 v=0
177360 On ch=4 n=g4 v=36
177552 On ch=4 n=g4 v=0
177840 On ch=4 n=g4 v=36
178032 On ch=4 n=g4 v=0
178320 On ch=4 n=g4 v=36
178512 On ch=4 n=g4 v=0
190320 On ch=4 n=g4 v=71
190512 On ch=4 n=g4 v=0
190800 On ch=4 n=g4 v=71
190992 On ch=4 n=g4 v=0
191280 On ch=4 n=g4 v=70
191472 On ch=4 n=g4 v=0
191760 On ch=4 n=g4 v=70
191952 On ch=4 n=g4 v=0
192240 On ch=4 n=g4 v=70
192432 On ch=4 n=g4 v=0
192720 On ch=4 n=g4 v=69
192912 On ch=4 n=g4 v=0
193200 On ch=4 n=g4 v=69
193392 On ch=4 n=g4 v=0
193680 On ch=4 n=g4 v=69
193872 On ch=4 n=g4 v=0
194160 On ch=4 n=g4 v=68
194352 On ch=4 n=g4 v=0
194640 On ch=4 n=g4 v=68
194832 On ch=4 n=g4 v=0
195120 On ch=4 n=g4 v=67
195312 On ch=4 n=g4 v=0
195600 On ch=4 n=g4 v=67
195792 On ch=4 n=g4 v=0
196080 On ch=4 n=g4 v=67
196272 On ch=4 n=g4 v=0
196560 On ch=4 n=g4 v=66
196752 On ch=4 n=g4 v=0
197040 On ch=4 n=g4 v=66
197232 On ch=4 n=g4 v=0
197520 On ch=4 n=g4 v=66
197712 On ch=4 n=g4 v=0
198000 On ch=4 n=g4 v=65
198192 On ch=4 n=g4 v=0
198480 On ch=4 n=g4 v=65
198672 On ch=4 n=g4 v=0
198960 On ch=4 n=g4 v=64
199152 On ch=4 n=g4 v=0
199440 On ch=4 n=g4 v=64
199632 On ch=4 n=g4 v=0
199920 On ch=4 n=g4 v=64
200112 On ch=4 n=g4 v=0
200400 On ch=4 n=g4 v=51
200592 On ch=4 n=g4 v=0
200880 On ch=4 n=g4 v=51
201072 On ch=4 n=g4 v=0
201360 On ch=4 n=a#4 v=50
201552 On ch=4 n=a#4 v=0
201840 On ch=4 n=a#4 v=50
202032 On ch=4 n=a#4 v=0
202320 On ch=4 n=a#4 v=49
202512 On ch=4 n=a#4 v=0
202800 On ch=4 n=a#4 v=49
202992 On ch=4 n=a#4 v=0
203280 On ch=4 n=a#4 v=48
203472 On ch=4 n=a#4 v=0
203760 On ch=4 n=a#4 v=48
203952 On ch=4 n=a#4 v=0
204240 On ch=4 n=a#4 v=48
204432 On ch=4 n=a#4 v=0
204720 On ch=4 n=a#4 v=47
204912 On ch=4 n=a#4 v=0
205200 On ch=4 n=a#4 v=47
205392 On ch=4 n=a#4 v=0
205680 On ch=4 n=a#4 v=46
205872 On ch=4 n=a#4 v=0
206160 On ch=4 n=a#4 v=46
206352 On ch=4 n=a#4 v=0
206640 On ch=4 n=a#4 v=45
206832 On ch=4 n=a#4 v=0
207120 On ch=4 n=a#4 v=45
207312 On ch=4 n=a#4 v=0
207600 On ch=4 n=a#4 v=44
207792 On ch=4 n=a#4 v=0
208080 On ch=4 n=a#4 v=44
208272 On ch=4 n=a#4 v=0
208560 On ch=4 n=a#4 v=44
208752 On ch=4 n=a#4 v=0
209040 On ch=4 n=a#4 v=43
209232 On ch=4 n=a#4 v=0
209520 On ch=4 n=a#4 v=43
209712 On ch=4 n=a#4 v=0
210000 On ch=4 n=a#4 v=42
210192 On ch=4 n=a#4 v=0
210480 On ch=4 n=a#4 v=42
210672 On ch=4 n=a#4 v=0
210960 On ch=4 n=a#4 v=41
211152 On ch=4 n=a#4 v=0
211440 On ch=4 n=a#4 v=41
211632 On ch=4 n=a#4 v=0
211920 On ch=4 n=a#4 v=40
212112 On ch=4 n=a#4 v=0
212400 On ch=4 n=a#4 v=40
212592 On ch=4 n=a#4 v=0
212880 On ch=4 n=a#4 v=40
213072 On ch=4 n=a#4 v=0
231120 On ch=4 n=a4 v=65
231312 On ch=4 n=a4 v=0
231600 On ch=4 n=a4 v=64
231792 On ch=4 n=a4 v=0
232080 On ch=4 n=a4 v=63
232272 On ch=4 n=a4 v=0
232560 On ch=4 n=a4 v=62
232752 On ch=4 n=a4 v=0
233040 On ch=4 n=a4 v=61
233232 On ch=4 n=a4 v=0
233520 On ch=4 n=a4 v=60
233712 On ch=4 n=a4 v=0
234000 On ch=4 n=a4 v=60
234192 On ch=4 n=a4 v=0
234480 On ch=4 n=a4 v=59
234672 On ch=4 n=a4 v=0
234960 On ch=4 n=a4 v=58
235152 On ch=4 n=a4 v=0
235440 On ch=4 n=a4 v=57
235632 On ch=4 n=a4 v=0
235920 On ch=4 n=a4 v=56
236112 On ch=4 n=a4 v=0
236400 On ch=4 n=a4 v=55
236592 On ch=4 n=a4 v=0
236880 On ch=4 n=a4 v=54
237072 On ch=4 n=a4 v=0
237360 On ch=4 n=a4 v=53
237552 On ch=4 n=a4 v=0
237840 On ch=4 n=a4 v=52
238032 On ch=4 n=a4 v=0
238320 On ch=4 n=a4 v=51
238512 On ch=4 n=a4 v=0
238800 On ch=4 n=a4 v=50
238992 On ch=4 n=a4 v=0
239280 On ch=4 n=a4 v=49
239472 On ch=4 n=a4 v=0
239760 On ch=4 n=a4 v=48
239952 On ch=4 n=a4 v=0
240240 On ch=4 n=a4 v=47
240432 On ch=4 n=a4 v=0
240720 On ch=4 n=a4 v=46
240912 On ch=4 n=a4 v=0
241200 On ch=4 n=d5 v=45
241392 On ch=4 n=d5 v=0
241680 On ch=4 n=f#5 v=44
241872 On ch=4 n=f#5 v=0
241920 On ch=4 n=a5 v=44
242160 On ch=4 n=d5 v=44
242400 On ch=4 n=d5 v=0
242400 On ch=4 n=a5 v=0
242400 On ch=4 n=a5 v=45
242640 On ch=4 n=d5 v=47
242880 On ch=4 n=d5 v=0
242880 On ch=4 n=a5 v=0
242880 On ch=4 n=a5 v=48
243120 On ch=4 n=d5 v=50
243360 On ch=4 n=d5 v=0
243360 On ch=4 n=a5 v=0
243360 On ch=4 n=a5 v=51
243600 On ch=4 n=d5 v=53
243840 On ch=4 n=d5 v=0
243840 On ch=4 n=a5 v=0
243840 On ch=4 n=a5 v=54
244080 On ch=4 n=d5 v=56
244320 On ch=4 n=d5 v=0
244320 On ch=4 n=a5 v=0
244320 On ch=4 n=a5 v=57
244560 On ch=4 n=d5 v=59
244800 On ch=4 n=d5 v=0
244800 On ch=4 n=a5 v=0
244800 On ch=4 n=a5 v=60
245040 On ch=4 n=d5 v=62
245280 On ch=4 n=d5 v=0
245280 On ch=4 n=a5 v=0
245280 On ch=4 n=a5 v=63
245520 On ch=4 n=d5 v=64
245760 On ch=4 n=d5 v=0
245760 On ch=4 n=a5 v=0
245760 On ch=4 n=a5 v=66
246000 On ch=4 n=d5 v=67
246240 On ch=4 n=d5 v=0
246240 On ch=4 n=a5 v=0
246240 On ch=4 n=a5 v=69
246480 On ch=4 n=d5 v=70
246720 On ch=4 n=d5 v=0
246720 On ch=4 n=a5 v=0
246720 On ch=4 n=a5 v=72
246960 On ch=4 n=d5 v=73
247200 On ch=4 n=d5 v=0
247200 On ch=4 n=a5 v=0
247200 On ch=4 n=a5 v=75
247440 On ch=4 n=d5 v=76
247680 On ch=4 n=d5 v=0
247680 On ch=4 n=a5 v=0
248160 On ch=4 n=b4 v=78
248400 On ch=4 n=d5 v=80
248640 On ch=4 n=d5 v=0
248640 On ch=4 n=b4 v=0
248640 On ch=4 n=b4 v=82
248880 On ch=4 n=d5 v=84
249120 On ch=4 n=d5 v=0
249120 On ch=4 n=b4 v=0
249120 On ch=4 n=b4 v=86
249360 On ch=4 n=d5 v=81
249600 On ch=4 n=d5 v=0
249600 On ch=4 n=b4 v=0
249600 On ch=4 n=b4 v=81
249840 On ch=4 n=d5 v=80
250080 On ch=4 n=d5 v=0
250080 On ch=4 n=b4 v=0
250080 On ch=4 n=b4 v=80
250320 On ch=4 n=d5 v=80
250560 On ch=4 n=d5 v=0
250560 On ch=4 n=b4 v=0
250560 On ch=4 n=b4 v=79
250800 On ch=4 n=d5 v=79
251040 On ch=4 n=d5 v=0
251040 On ch=4 n=b4 v=0
251040 On ch=4 n=b4 v=78
251280 On ch=4 n=d5 v=78
251520 On ch=4 n=d5 v=0
251520 On ch=4 n=b4 v=0
251520 On ch=4 n=b4 v=78
251760 On ch=4 n=d5 v=77
252000 On ch=4 n=d5 v=0
252000 On ch=4 n=b4 v=0
252000 On ch=4 n=c5 v=77
252240 On ch=4 n=e5 v=76
252480 On ch=4 n=e5 v=0
252480 On ch=4 n=c5 v=0
252480 On ch=4 n=c5 v=76
252720 On ch=4 n=e5 v=76
252960 On ch=4 n=e5 v=0
252960 On ch=4 n=c5 v=0
252960 On ch=4 n=c5 v=75
253200 On ch=4 n=e5 v=75
253440 On ch=4 n=e5 v=0
253440 On ch=4 n=c5 v=0
253440 On ch=4 n=c5 v=74
253680 On ch=4 n=e5 v=74
253920 On ch=4 n=e5 v=0
253920 On ch=4 n=c5 v=0
253920 On ch=4 n=c5 v=74
254160 On ch=4 n=e5 v=73
254400 On ch=4 n=e5 v=0
254400 On ch=4 n=c5 v=0
254400 On ch=4 n=c5 v=73
254640 On ch=4 n=e5 v=72
254880 On ch=4 n=e5 v=0
254880 On ch=4 n=c5 v=0
254880 On ch=4 n=a4 v=72
254880 On ch=4 n=c5 v=72
255120 On ch=4 n=d5 v=72
255360 On ch=4 n=d5 v=0
255360 On ch=4 n=c5 v=0
255360 On ch=4 n=a4 v=0
255360 On ch=4 n=c5 v=71
255360 On ch=4 n=a4 v=71
255600 On ch=4 n=d5 v=71
255840 On ch=4 n=d5 v=0
255840 On ch=4 n=a4 v=0
255840 On ch=4 n=c5 v=0
255840 On ch=4 n=c5 v=71
255840 On ch=4 n=a4 v=71
256080 On ch=4 n=d5 v=70
256320 On ch=4 n=d5 v=0
256320 On ch=4 n=a4 v=0
256320 On ch=4 n=c5 v=0
256320 On ch=4 n=c5 v=70
256320 On ch=4 n=a4 v=70
256560 On ch=4 n=d5 v=69
256800 On ch=4 n=d5 v=0
256800 On ch=4 n=a4 v=0
256800 On ch=4 n=c5 v=0
256800 On ch=4 n=c5 v=69
256800 On ch=4 n=a4 v=69
257040 On ch=4 n=d5 v=69
257280 On ch=4 n=d5 v=0
257280 On ch=4 n=a4 v=0
257280 On ch=4 n=c5 v=0
257280 On ch=4 n=a4 v=68
257280 On ch=4 n=c5 v=68
257520 On ch=4 n=d5 v=68
257760 On ch=4 n=d5 v=0
257760 On ch=4 n=c5 v=0
257760 On ch=4 n=a4 v=0
312480 On ch=4 n=b4 v=77
312720 On ch=4 n=d5 v=76
312960 On ch=4 n=d5 v=0
312960 On ch=4 n=b4 v=0
312960 On ch=4 n=b4 v=76
313200 On ch=4 n=d5 v=75
313440 On ch=4 n=d5 v=0
313440 On ch=4 n=b4 v=0
313440 On ch=4 n=b4 v=74
313680 On ch=4 n=d5 v=73
313920 On ch=4 n=d5 v=0
313920 On ch=4 n=b4 v=0
313920 On ch=4 n=c5 v=72
313920 On ch=4 n=a4 v=72
314160 On ch=4 n=d5 v=71
314400 On ch=4 n=d5 v=0
314400 On ch=4 n=a4 v=0
314400 On ch=4 n=c5 v=0
314400 On ch=4 n=c5 v=70
314400 On ch=4 n=a4 v=70
314640 On ch=4 n=d5 v=70
314880 On ch=4 n=d5 v=0
314880 On ch=4 n=a4 v=0
314880 On ch=4 n=c5 v=0
314880 On ch=4 n=a4 v=69
314880 On ch=4 n=c5 v=69
315120 On ch=4 n=d5 v=68
315360 On ch=4 n=d5 v=0
315360 On ch=4 n=c5 v=0
315360 On ch=4 n=a4 v=0
315600 On ch=4 n=d4 v=47
315840 On ch=4 n=d4 v=0
316080 On ch=4 n=d4 v=45
316320 On ch=4 n=d4 v=0
316560 On ch=4 n=d4 v=44
316800 On ch=4 n=d4 v=0
317040 On ch=4 n=d4 v=43
317280 On ch=4 n=d4 v=0
317520 On ch=4 n=d4 v=41
317760 On ch=4 n=d4 v=0
318000 On ch=4 n=d4 v=40
318240 On ch=4 n=d4 v=0
318240 Par ch=4 c=64 v=0
321120 On ch=4 n=g#4 v=70
321360 On ch=4 n=b4 v=72
321600 On ch=4 n=b4 v=0
321600 On ch=4 n=g#4 v=0
321600 On ch=4 n=g#4 v=73
321840 On ch=4 n=b4 v=75
322080 On ch=4 n=b4 v=0
322080 On ch=4 n=g#4 v=0
322080 On ch=4 n=g#4 v=77
322320 On ch=4 n=b4 v=79
322560 On ch=4 n=b4 v=0
322560 On ch=4 n=g#4 v=0
322560 On ch=4 n=g#4 v=85
322800 On ch=4 n=b4 v=73
323040 On ch=4 n=b4 v=0
323040 On ch=4 n=g#4 v=0
323040 On ch=4 n=g#4 v=73
323280 On ch=4 n=b4 v=72
323520 On ch=4 n=b4 v=0
323520 On ch=4 n=g#4 v=0
323520 On ch=4 n=g#4 v=72
323760 On ch=4 n=b4 v=71
324000 On ch=4 n=b4 v=0
324000 On ch=4 n=g#4 v=0
324000 On ch=4 n=g#4 v=71
324240 On ch=4 n=b4 v=71
324480 On ch=4 n=b4 v=0
324480 On ch=4 n=g#4 v=0
324480 On ch=4 n=g#4 v=70
324720 On ch=4 n=b4 v=70
324960 On ch=4 n=b4 v=0
324960 On ch=4 n=g#4 v=0
324960 On ch=4 n=g#4 v=69
325200 On ch=4 n=b4 v=69
325440 On ch=4 n=b4 v=0
325440 On ch=4 n=g#4 v=0
325440 On ch=4 n=a4 v=68
325680 On ch=4 n=c#5 v=68
325920 On ch=4 n=c#5 v=0
325920 On ch=4 n=a4 v=0
325920 On ch=4 n=a4 v=67
326160 On ch=4 n=c#5 v=67
326400 On ch=4 n=c#5 v=0
326400 On ch=4 n=a4 v=0
326400 On ch=4 n=a4 v=67
326640 On ch=4 n=c#5 v=66
326880 On ch=4 n=c#5 v=0
326880 On ch=4 n=a4 v=0
326880 On ch=4 n=a4 v=66
327120 On ch=4 n=c#5 v=65
327360 On ch=4 n=c#5 v=0
327360 On ch=4 n=a4 v=0
327360 On ch=4 n=a4 v=65
327600 On ch=4 n=c#5 v=64
327840 On ch=4 n=c#5 v=0
327840 On ch=4 n=a4 v=0
327840 On ch=4 n=a4 v=64
328080 On ch=4 n=c#5 v=64
328320 On ch=4 n=c#5 v=0
328320 On ch=4 n=a4 v=0
328320 On ch=4 n=f#4 v=63
328320 On ch=4 n=a4 v=63
328560 On ch=4 n=b4 v=63
328800 On ch=4 n=b4 v=0
328800 On ch=4 n=a4 v=0
328800 On ch=4 n=f#4 v=0
328800 On ch=4 n=f#4 v=62
328800 On ch=4 n=a4 v=62
329040 On ch=4 n=b4 v=62
329280 On ch=4 n=b4 v=0
329280 On ch=4 n=a4 v=0
329280 On ch=4 n=f#4 v=0
329280 On ch=4 n=f#4 v=61
329280 On ch=4 n=a4 v=61
329520 On ch=4 n=b4 v=61
329760 On ch=4 n=b4 v=0
329760 On ch=4 n=a4 v=0
329760 On ch=4 n=f#4 v=0
329760 On ch=4 n=f#4 v=60
329760 On ch=4 n=a4 v=60
330000 On ch=4 n=b4 v=60
330240 On ch=4 n=b4 v=0
330240 On ch=4 n=a4 v=0
330240 On ch=4 n=f#4 v=0
330240 On ch=4 n=a4 v=60
330240 On ch=4 n=f#4 v=60
330480 On ch=4 n=b4 v=59
330720 On ch=4 n=b4 v=0
330720 On ch=4 n=f#4 v=0
330720 On ch=4 n=a4 v=0
330720 On ch=4 n=f#4 v=59
330720 On ch=4 n=a4 v=59
330960 On ch=4 n=b4 v=58
331200 On ch=4 n=b4 v=0
331200 On ch=4 n=a4 v=0
331200 On ch=4 n=f#4 v=0
331440 On ch=4 n=b4 v=57
331632 On ch=4 n=b4 v=0
331920 On ch=4 n=b4 v=57
332112 On ch=4 n=b4 v=0
332400 On ch=4 n=b4 v=56
332592 On ch=4 n=b4 v=0
332880 On ch=4 n=b4 v=56
333072 On ch=4 n=b4 v=0
333360 On ch=4 n=b4 v=56
333552 On ch=4 n=b4 v=0
333840 On ch=4 n=b4 v=55
334032 On ch=4 n=b4 v=0
334320 On ch=4 n=b4 v=55
334512 On ch=4 n=b4 v=0
334800 On ch=4 n=b4 v=54
334992 On ch=4 n=b4 v=0
335280 On ch=4 n=b4 v=54
335472 On ch=4 n=b4 v=0
335760 On ch=4 n=b4 v=54
335952 On ch=4 n=b4 v=0
336240 On ch=4 n=b4 v=53
336432 On ch=4 n=b4 v=0
336720 On ch=4 n=b4 v=53
336912 On ch=4 n=b4 v=0
337200 On ch=4 n=b4 v=53
337392 On ch=4 n=b4 v=0
337680 On ch=4 n=b4 v=52
337872 On ch=4 n=b4 v=0
338160 On ch=4 n=b4 v=52
338352 On ch=4 n=b4 v=0
338640 On ch=4 n=b4 v=51
338832 On ch=4 n=b4 v=0
339120 On ch=4 n=b4 v=51
339312 On ch=4 n=b4 v=0
339600 On ch=4 n=b4 v=51
339792 On ch=4 n=b4 v=0
340080 On ch=4 n=b4 v=50
340272 On ch=4 n=b4 v=0
340560 On ch=4 n=b4 v=50
340752 On ch=4 n=b4 v=0
341040 On ch=4 n=b4 v=50
341232 On ch=4 n=b4 v=0
341520 On ch=4 n=b4 v=43
341712 On ch=4 n=b4 v=0
342000 On ch=4 n=b4 v=43
342192 On ch=4 n=b4 v=0
342480 On ch=4 n=b4 v=43
342672 On ch=4 n=b4 v=0
342960 On ch=4 n=g4 v=42
343152 On ch=4 n=g4 v=0
343440 On ch=4 n=g4 v=42
343632 On ch=4 n=g4 v=0
343920 On ch=4 n=g4 v=42
344112 On ch=4 n=g4 v=0
344400 On ch=4 n=g4 v=42
344592 On ch=4 n=g4 v=0
344880 On ch=4 n=g4 v=41
345072 On ch=4 n=g4 v=0
345360 On ch=4 n=g4 v=41
345552 On ch=4 n=g4 v=0
345840 On ch=4 n=g4 v=41
346032 On ch=4 n=g4 v=0
346320 On ch=4 n=g4 v=40
346512 On ch=4 n=g4 v=0
346800 On ch=4 n=g4 v=40
346992 On ch=4 n=g4 v=0
347280 On ch=4 n=g4 v=40
347472 On ch=4 n=g4 v=0
347760 On ch=4 n=g4 v=39
347952 On ch=4 n=g4 v=0
348240 On ch=4 n=g4 v=39
348432 On ch=4 n=g4 v=0
348720 On ch=4 n=g4 v=39
348912 On ch=4 n=g4 v=0
349200 On ch=4 n=g4 v=39
349392 On ch=4 n=g4 v=0
349680 On ch=4 n=g4 v=38
349872 On ch=4 n=g4 v=0
350160 On ch=4 n=g4 v=38
350352 On ch=4 n=g4 v=0
350640 On ch=4 n=g4 v=38
350832 On ch=4 n=g4 v=0
351120 On ch=4 n=g4 v=37
351312 On ch=4 n=g4 v=0
351600 On ch=4 n=g4 v=37
351792 On ch=4 n=g4 v=0
352080 On ch=4 n=g4 v=37
352272 On ch=4 n=g4 v=0
352560 On ch=4 n=g4 v=36
352752 On ch=4 n=g4 v=0
353040 On ch=4 n=g4 v=36
353232 On ch=4 n=g4 v=0
353520 On ch=4 n=g4 v=36
353712 On ch=4 n=g4 v=0
354000 On ch=4 n=g4 v=36
354192 On ch=4 n=g4 v=0
366000 On ch=4 n=g4 v=71
366192 On ch=4 n=g4 v=0
366480 On ch=4 n=g4 v=71
366672 On ch=4 n=g4 v=0
366960 On ch=4 n=g4 v=70
367152 On ch=4 n=g4 v=0
367440 On ch=4 n=g4 v=70
367632 On ch=4 n=g4 v=0
367920 On ch=4 n=g4 v=70
368112 On ch=4 n=g4 v=0
368400 On ch=4 n=g4 v=69
368592 On ch=4 n=g4 v=0
368880 On ch=4 n=g4 v=69
369072 On ch=4 n=g4 v=0
369360 On ch=4 n=g4 v=69
369552 On ch=4 n=g4 v=0
369840 On ch=4 n=g4 v=68
370032 On ch=4 n=g4 v=0
370320 On ch=4 n=g4 v=68
370512 On ch=4 n=g4 v=0
370800 On ch=4 n=g4 v=67
370992 On ch=4 n=g4 v=0
371280 On ch=4 n=g4 v=67
371472 On ch=4 n=g4 v=0
371760 On ch=4 n=g4 v=67
371952 On ch=4 n=g4 v=0
372240 On ch=4 n=g4 v=66
372432 On ch=4 n=g4 v=0
372720 On ch=4 n=g4 v=66
372912 On ch=4 n=g4 v=0
373200 On ch=4 n=g4 v=66
373392 On ch=4 n=g4 v=0
373680 On ch=4 n=g4 v=65
373872 On ch=4 n=g4 v=0
374160 On ch=4 n=g4 v=65
374352 On ch=4 n=g4 v=0
374640 On ch=4 n=g4 v=64
374832 On ch=4 n=g4 v=0
375120 On ch=4 n=g4 v=64
375312 On ch=4 n=g4 v=0
375600 On ch=4 n=g4 v=64
375792 On ch=4 n=g4 v=0
376080 On ch=4 n=g4 v=51
376272 On ch=4 n=g4 v=0
376560 On ch=4 n=g4 v=51
376752 On ch=4 n=g4 v=0
377040 On ch=4 n=a#4 v=50
377232 On ch=4 n=a#4 v=0
377520 On ch=4 n=a#4 v=50
377712 On ch=4 n=a#4 v=0
378000 On ch=4 n=a#4 v=49
378192 On ch=4 n=a#4 v=0
378480 On ch=4 n=a#4 v=49
378672 On ch=4 n=a#4 v=0
378960 On ch=4 n=a#4 v=48
379152 On ch=4 n=a#4 v=0
379440 On ch=4 n=a#4 v=48
379632 On ch=4 n=a#4 v=0
379920 On ch=4 n=a#4 v=48
380112 On ch=4 n=a#4 v=0
380400 On ch=4 n=a#4 v=47
380592 On ch=4 n=a#4 v=0
380880 On ch=4 n=a#4 v=47
381072 On ch=4 n=a#4 v=0
381360 On ch=4 n=a#4 v=46
381552 On ch=4 n=a#4 v=0
381840 On ch=4 n=a#4 v=46
382032 On ch=4 n=a#4 v=0
382320 On ch=4 n=a#4 v=45
382512 On ch=4 n=a#4 v=0
382800 On ch=4 n=a#4 v=45
382992 On ch=4 n=a#4 v=0
383280 On ch=4 n=a#4 v=44
383472 On ch=4 n=a#4 v=0
383760 On ch=4 n=a#4 v=44
383952 On ch=4 n=a#4 v=0
384240 On ch=4 n=a#4 v=44
384432 On ch=4 n=a#4 v=0
384720 On ch=4 n=a#4 v=43
384912 On ch=4 n=a#4 v=0
385200 On ch=4 n=a#4 v=43
385392 On ch=4 n=a#4 v=0
385680 On ch=4 n=a#4 v=42
385872 On ch=4 n=a#4 v=0
386160 On ch=4 n=a#4 v=42
386352 On ch=4 n=a#4 v=0
386640 On ch=4 n=a#4 v=41
386832 On ch=4 n=a#4 v=0
387120 On ch=4 n=a#4 v=41
387312 On ch=4 n=a#4 v=0
387600 On ch=4 n=a#4 v=40
387792 On ch=4 n=a#4 v=0
388080 On ch=4 n=a#4 v=40
388272 On ch=4 n=a#4 v=0
388560 On ch=4 n=a#4 v=40
388752 On ch=4 n=a#4 v=0
406800 On ch=4 n=a4 v=65
406992 On ch=4 n=a4 v=0
407280 On ch=4 n=a4 v=64
407472 On ch=4 n=a4 v=0
407760 On ch=4 n=a4 v=63
407952 On ch=4 n=a4 v=0
408240 On ch=4 n=a4 v=62
408432 On ch=4 n=a4 v=0
408720 On ch=4 n=a4 v=61
408912 On ch=4 n=a4 v=0
409200 On ch=4 n=a4 v=60
409392 On ch=4 n=a4 v=0
409680 On ch=4 n=a4 v=60
409872 On ch=4 n=a4 v=0
410160 On ch=4 n=a4 v=59
410352 On ch=4 n=a4 v=0
410640 On ch=4 n=a4 v=58
410832 On ch=4 n=a4 v=0
411120 On ch=4 n=a4 v=57
411312 On ch=4 n=a4 v=0
411600 On ch=4 n=a4 v=56
411792 On ch=4 n=a4 v=0
412080 On ch=4 n=a4 v=55
412272 On ch=4 n=a4 v=0
412560 On ch=4 n=a4 v=54
412752 On ch=4 n=a4 v=0
413040 On ch=4 n=a4 v=53
413232 On ch=4 n=a4 v=0
413520 On ch=4 n=a4 v=52
413712 On ch=4 n=a4 v=0
414000 On ch=4 n=a4 v=51
414192 On ch=4 n=a4 v=0
414480 On ch=4 n=a4 v=50
414672 On ch=4 n=a4 v=0
414960 On ch=4 n=a4 v=49
415152 On ch=4 n=a4 v=0
415440 On ch=4 n=a4 v=48
415632 On ch=4 n=a4 v=0
415920 On ch=4 n=a4 v=47
416112 On ch=4 n=a4 v=0
416400 On ch=4 n=a4 v=46
416592 On ch=4 n=a4 v=0
416880 On ch=4 n=d5 v=45
417072 On ch=4 n=d5 v=0
417360 On ch=4 n=f#5 v=44
417552 On ch=4 n=f#5 v=0
417600 On ch=4 n=a5 v=44
417840 On ch=4 n=d5 v=44
418080 On ch=4 n=d5 v=0
418080 On ch=4 n=a5 v=0
418080 On ch=4 n=a5 v=45
418320 On ch=4 n=d5 v=47
418560 On ch=4 n=d5 v=0
418560 On ch=4 n=a5 v=0
418560 On ch=4 n=a5 v=48
418800 On ch=4 n=d5 v=50
419040 On ch=4 n=d5 v=0
419040 On ch=4 n=a5 v=0
419040 On ch=4 n=a5 v=51
419280 On ch=4 n=d5 v=53
419520 On ch=4 n=d5 v=0
419520 On ch=4 n=a5 v=0
419520 On ch=4 n=a5 v=54
419760 On ch=4 n=d5 v=56
420000 On ch=4 n=d5 v=0
420000 On ch=4 n=a5 v=0
420000 On ch=4 n=a5 v=57
420240 On ch=4 n=d5 v=59
420480 On ch=4 n=d5 v=0
420480 On ch=4 n=a5 v=0
420480 On ch=4 n=a5 v=60
420720 On ch=4 n=d5 v=62
420960 On ch=4 n=d5 v=0
420960 On ch=4 n=a5 v=0
420960 On ch=4 n=a5 v=63
421200 On ch=4 n=d5 v=64
421440 On ch=4 n=d5 v=0
421440 On ch=4 n=a5 v=0
421440 On ch=4 n=a5 v=66
421680 On ch=4 n=d5 v=67
421920 On ch=4 n=d5 v=0
421920 On ch=4 n=a5 v=0
421920 On ch=4 n=a5 v=69
422160 On ch=4 n=d5 v=70
422400 On ch=4 n=d5 v=0
422400 On ch=4 n=a5 v=0
422400 On ch=4 n=a5 v=72
422640 On ch=4 n=d5 v=73
422880 On ch=4 n=d5 v=0
422880 On ch=4 n=a5 v=0
422880 On ch=4 n=a5 v=75
423120 On ch=4 n=d5 v=76
423360 On ch=4 n=d5 v=0
423360 On ch=4 n=a5 v=0
423840 On ch=4 n=b4 v=78
424080 On ch=4 n=d5 v=80
424320 On ch=4 n=d5 v=0
424320 On ch=4 n=b4 v=0
424320 On ch=4 n=b4 v=82
424560 On ch=4 n=d5 v=84
424800 On ch=4 n=d5 v=0
424800 On ch=4 n=b4 v=0
424800 On ch=4 n=b4 v=86
425040 On ch=4 n=d5 v=81
425280 On ch=4 n=d5 v=0
425280 On ch=4 n=b4 v=0
425280 On ch=4 n=b4 v=81
425520 On ch=4 n=d5 v=80
425760 On ch=4 n=d5 v=0
425760 On ch=4 n=b4 v=0
425760 On ch=4 n=b4 v=80
426000 On ch=4 n=d5 v=80
426240 On ch=4 n=d5 v=0
426240 On ch=4 n=b4 v=0
426240 On ch=4 n=b4 v=79
426480 On ch=4 n=d5 v=79
426720 On ch=4 n=d5 v=0
426720 On ch=4 n=b4 v=0
426720 On ch=4 n=b4 v=78
426960 On ch=4 n=d5 v=78
427200 On ch=4 n=d5 v=0
427200 On ch=4 n=b4 v=0
427200 On ch=4 n=b4 v=78
427440 On ch=4 n=d5 v=77
427680 On ch=4 n=d5 v=0
427680 On ch=4 n=b4 v=0
427680 On ch=4 n=c5 v=77
427920 On ch=4 n=e5 v=76
428160 On ch=4 n=e5 v=0
428160 On ch=4 n=c5 v=0
428160 On ch=4 n=c5 v=76
428400 On ch=4 n=e5 v=76
428640 On ch=4 n=e5 v=0
428640 On ch=4 n=c5 v=0
428640 On ch=4 n=c5 v=75
428880 On ch=4 n=e5 v=75
429120 On ch=4 n=e5 v=0
429120 On ch=4 n=c5 v=0
429120 On ch=4 n=c5 v=74
429360 On ch=4 n=e5 v=74
429600 On ch=4 n=e5 v=0
429600 On ch=4 n=c5 v=0
429600 On ch=4 n=c5 v=74
429840 On ch=4 n=e5 v=73
430080 On ch=4 n=e5 v=0
430080 On ch=4 n=c5 v=0
430080 On ch=4 n=c5 v=73
430320 On ch=4 n=e5 v=72
430560 On ch=4 n=e5 v=0
430560 On ch=4 n=c5 v=0
430560 On ch=4 n=c5 v=72
430560 On ch=4 n=a4 v=72
430800 On ch=4 n=d5 v=72
431040 On ch=4 n=d5 v=0
431040 On ch=4 n=a4 v=0
431040 On ch=4 n=c5 v=0
431040 On ch=4 n=a4 v=71
431040 On ch=4 n=c5 v=71
431280 On ch=4 n=d5 v=71
431520 On ch=4 n=d5 v=0
431520 On ch=4 n=c5 v=0
431520 On ch=4 n=a4 v=0
431520 On ch=4 n=a4 v=71
431520 On ch=4 n=c5 v=71
431760 On ch=4 n=d5 v=70
432000 On ch=4 n=d5 v=0
432000 On ch=4 n=c5 v=0
432000 On ch=4 n=a4 v=0
432000 On ch=4 n=a4 v=70
432000 On ch=4 n=c5 v=70
432240 On ch=4 n=d5 v=69
432480 On ch=4 n=d5 v=0
432480 On ch=4 n=c5 v=0
432480 On ch=4 n=a4 v=0
432480 On ch=4 n=a4 v=69
432480 On ch=4 n=c5 v=69
432720 On ch=4 n=d5 v=69
432960 On ch=4 n=d5 v=0
432960 On ch=4 n=c5 v=0
432960 On ch=4 n=a4 v=0
432960 On ch=4 n=c5 v=68
432960 On ch=4 n=a4 v=68
433200 On ch=4 n=d5 v=68
433440 On ch=4 n=d5 v=0
433440 On ch=4 n=a4 v=0
433440 On ch=4 n=c5 v=0
488160 On ch=4 n=b4 v=77
488400 On ch=4 n=d5 v=76
488640 On ch=4 n=d5 v=0
488640 On ch=4 n=b4 v=0
488640 On ch=4 n=b4 v=76
488880 On ch=4 n=d5 v=75
489120 On ch=4 n=d5 v=0
489120 On ch=4 n=b4 v=0
489120 On ch=4 n=b4 v=74
489360 On ch=4 n=d5 v=73
489600 On ch=4 n=d5 v=0
489600 On ch=4 n=b4 v=0
489600 On ch=4 n=a4 v=72
489600 On ch=4 n=c5 v=72
489840 On ch=4 n=d5 v=71
490080 On ch=4 n=d5 v=0
490080 On ch=4 n=c5 v=0
490080 On ch=4 n=a4 v=0
490080 On ch=4 n=a4 v=70
490080 On ch=4 n=c5 v=70
490320 On ch=4 n=d5 v=70
490560 On ch=4 n=d5 v=0
490560 On ch=4 n=c5 v=0
490560 On ch=4 n=a4 v=0
490560 On ch=4 n=c5 v=69
490560 On ch=4 n=a4 v=69
490800 On ch=4 n=d5 v=68
491040 On ch=4 n=d5 v=0
491040 On ch=4 n=a4 v=0
491040 On ch=4 n=c5 v=0
491280 On ch=4 n=d4 v=47
491520 On ch=4 n=d4 v=0
491760 On ch=4 n=d4 v=45
492000 On ch=4 n=d4 v=0
492240 On ch=4 n=d4 v=44
492480 On ch=4 n=d4 v=0
492720 On ch=4 n=d4 v=43
492960 On ch=4 n=d4 v=0
493200 On ch=4 n=d4 v=41
493440 On ch=4 n=d4 v=0
493680 On ch=4 n=d4 v=40
493920 On ch=4 n=d4 v=0
493920 Par ch=4 c=64 v=0
493920 On ch=4 n=b4 v=71
494160 On ch=4 n=d5 v=70
494400 On ch=4 n=d5 v=0
494400 On ch=4 n=b4 v=0
494400 On ch=4 n=b4 v=69
494640 On ch=4 n=d5 v=69
494880 On ch=4 n=d5 v=0
494880 On ch=4 n=b4 v=0
494880 On ch=4 n=b4 v=68
495120 On ch=4 n=d5 v=67
495360 On ch=4 n=d5 v=0
495360 On ch=4 n=b4 v=0
495360 On ch=4 n=c5 v=66
495360 On ch=4 n=a4 v=66
495600 On ch=4 n=d5 v=65
495840 On ch=4 n=d5 v=0
495840 On ch=4 n=a4 v=0
495840 On ch=4 n=c5 v=0
495840 On ch=4 n=c5 v=64
495840 On ch=4 n=a4 v=64
496080 On ch=4 n=d5 v=63
496320 On ch=4 n=d5 v=0
496320 On ch=4 n=a4 v=0
496320 On ch=4 n=c5 v=0
496320 On ch=4 n=c5 v=63
496320 On ch=4 n=a4 v=63
496560 On ch=4 n=d5 v=62
496800 On ch=4 n=d5 v=0
496800 On ch=4 n=a4 v=0
496800 On ch=4 n=c5 v=0
497040 On ch=4 n=d4 v=43
497280 On ch=4 n=d4 v=0
497520 On ch=4 n=d4 v=41
497760 On ch=4 n=d4 v=0
498000 On ch=4 n=d4 v=40
498240 On ch=4 n=d4 v=0
498480 On ch=4 n=d4 v=39
498720 On ch=4 n=d4 v=0
498960 On ch=4 n=d4 v=37
499200 On ch=4 n=d4 v=0
499440 On ch=4 n=d4 v=36
499680 On ch=4 n=d4 v=0
499680 On ch=4 n=g5 v=62
499920 On ch=4 n=d5 v=63
500141 On ch=4 n=g5 v=0
500160 On ch=4 n=d5 v=0
500160 On ch=4 n=g5 v=65
500400 On ch=4 n=d5 v=67
500621 On ch=4 n=g5 v=0
500640 On ch=4 n=d5 v=0
500640 On ch=4 n=g5 v=68
500880 On ch=4 n=d5 v=70
501101 On ch=4 n=g5 v=0
501120 On ch=4 n=d5 v=0
501120 On ch=4 n=g5 v=71
501360 On ch=4 n=d5 v=65
501581 On ch=4 n=g5 v=0
501600 On ch=4 n=d5 v=0
501600 On ch=4 n=g5 v=65
501840 On ch=4 n=d5 v=64
502061 On ch=4 n=g5 v=0
502080 On ch=4 n=d5 v=0
502080 On ch=4 n=g5 v=64
502320 On ch=4 n=d5 v=63
502541 On ch=4 n=g5 v=0
502560 On ch=4 n=d5 v=0
502560 On ch=4 n=g5 v=63
502800 On ch=4 n=d5 v=62
503021 On ch=4 n=g5 v=0
503040 On ch=4 n=d5 v=0
503040 On ch=4 n=g5 v=62
503280 On ch=4 n=d5 v=61
503501 On ch=4 n=g5 v=0
503520 On ch=4 n=d5 v=0
503520 On ch=4 n=g5 v=61
503760 On ch=4 n=d5 v=60
503981 On ch=4 n=g5 v=0
504000 On ch=4 n=d5 v=0
504000 On ch=4 n=g5 v=60
504240 On ch=4 n=c5 v=60
504461 On ch=4 n=g5 v=0
504480 On ch=4 n=c5 v=0
504480 On ch=4 n=g5 v=59
504720 On ch=4 n=c5 v=59
504941 On ch=4 n=g5 v=0
504960 On ch=4 n=c5 v=0
504960 On ch=4 n=g5 v=58
505200 On ch=4 n=c5 v=58
505421 On ch=4 n=g5 v=0
505440 On ch=4 n=c5 v=0
505440 On ch=4 n=e4 v=60
505680 On ch=4 n=a4 v=61
505920 On ch=4 n=a4 v=0
505920 On ch=4 n=e4 v=0
505920 On ch=4 n=e4 v=63
506160 On ch=4 n=a4 v=64
506400 On ch=4 n=a4 v=0
506400 On ch=4 n=e4 v=0
506400 On ch=4 n=e4 v=65
506640 On ch=4 n=a4 v=66
506880 On ch=4 n=a4 v=0
506880 On ch=4 n=e4 v=0
506880 On ch=4 n=e4 v=67
507120 On ch=4 n=a4 v=61
507360 On ch=4 n=a4 v=0
507360 On ch=4 n=e4 v=0
507360 On ch=4 n=e4 v=61
507600 On ch=4 n=a4 v=61
507840 On ch=4 n=a4 v=0
507840 On ch=4 n=e4 v=0
507840 On ch=4 n=e4 v=60
508080 On ch=4 n=a4 v=60
508320 On ch=4 n=a4 v=0
508320 On ch=4 n=e4 v=0
508320 On ch=4 n=a4 v=60
508560 On ch=4 n=c5 v=59
508800 On ch=4 n=c5 v=0
508800 On ch=4 n=a4 v=0
508800 On ch=4 n=a4 v=59
509040 On ch=4 n=c5 v=58
509280 On ch=4 n=c5 v=0
509280 On ch=4 n=a4 v=0
509280 On ch=4 n=a4 v=58
509520 On ch=4 n=c5 v=58
509760 On ch=4 n=c5 v=0
509760 On ch=4 n=a4 v=0
509760 On ch=4 n=b4 v=57
510000 On ch=4 n=d5 v=57
510240 On ch=4 n=d5 v=0
510240 On ch=4 n=b4 v=0
510240 On ch=4 n=b4 v=57
510480 On ch=4 n=d5 v=56
510720 On ch=4 n=d5 v=0
510720 On ch=4 n=b4 v=0
510720 On ch=4 n=b4 v=56
510960 On ch=4 n=d5 v=56
511200 On ch=4 n=d5 v=0
511200 On ch=4 n=b4 v=0
511200 On ch=4 n=b5 v=64
511440 On ch=4 n=g5 v=66
511644 On ch=4 n=b5 v=0
511680 On ch=4 n=g5 v=0
511680 On ch=4 n=b5 v=67
511920 On ch=4 n=g5 v=68
512124 On ch=4 n=b5 v=0
512160 On ch=4 n=g5 v=0
512160 On ch=4 n=b5 v=70
512400 On ch=4 n=g5 v=71
512604 On ch=4 n=b5 v=0
512640 On ch=4 n=g5 v=0
512640 On ch=4 n=b5 v=72
512880 On ch=4 n=g5 v=67
513084 On ch=4 n=b5 v=0
513120 On ch=4 n=g5 v=0
513120 On ch=4 n=b5 v=67
513360 On ch=4 n=g5 v=66
513564 On ch=4 n=b5 v=0
513600 On ch=4 n=g5 v=0
513600 On ch=4 n=b5 v=66
513840 On ch=4 n=g5 v=65
514044 On ch=4 n=b5 v=0
514080 On ch=4 n=g5 v=0
514080 On ch=4 n=b5 v=65
514320 On ch=4 n=g5 v=64
514524 On ch=4 n=b5 v=0
514560 On ch=4 n=g5 v=0
514560 On ch=4 n=b5 v=64
514800 On ch=4 n=g5 v=63
515004 On ch=4 n=b5 v=0
515040 On ch=4 n=g5 v=0
515040 On ch=4 n=b5 v=63
515280 On ch=4 n=g5 v=63
515484 On ch=4 n=b5 v=0
515520 On ch=4 n=g5 v=0
515520 On ch=4 n=c6 v=62
515760 On ch=4 n=g5 v=62
515964 On ch=4 n=c6 v=0
516000 On ch=4 n=g5 v=0
516000 On ch=4 n=c6 v=61
516240 On ch=4 n=g5 v=61
516444 On ch=4 n=c6 v=0
516480 On ch=4 n=g5 v=0
516480 On ch=4 n=c6 v=60
516720 On ch=4 n=g5 v=60
516924 On ch=4 n=c6 v=0
516960 On ch=4 n=g5 v=0
516960 On ch=4 n=e4 v=76
517200 On ch=4 n=a4 v=78
517440 On ch=4 n=a4 v=0
517440 On ch=4 n=e4 v=0
517440 On ch=4 n=e4 v=79
517680 On ch=4 n=a4 v=80
517920 On ch=4 n=a4 v=0
517920 On ch=4 n=e4 v=0
517920 On ch=4 n=e4 v=81
518160 On ch=4 n=a4 v=83
518400 On ch=4 n=a4 v=0
518400 On ch=4 n=e4 v=0
518400 On ch=4 n=e4 v=85
518640 On ch=4 n=a4 v=77
518880 On ch=4 n=a4 v=0
518880 On ch=4 n=e4 v=0
518880 On ch=4 n=e4 v=75
519120 On ch=4 n=a4 v=74
519360 On ch=4 n=a4 v=0
519360 On ch=4 n=e4 v=0
519360 On ch=4 n=e4 v=73
519600 On ch=4 n=a4 v=72
519840 On ch=4 n=a4 v=0
519840 On ch=4 n=e4 v=0
519840 On ch=4 n=a4 v=70
520080 On ch=4 n=c5 v=69
520320 On ch=4 n=c5 v=0
520320 On ch=4 n=a4 v=0
520320 On ch=4 n=a4 v=68
520560 On ch=4 n=c5 v=66
520800 On ch=4 n=c5 v=0
520800 On ch=4 n=a4 v=0
520800 On ch=4 n=a4 v=65
521040 On ch=4 n=c5 v=64
521280 On ch=4 n=c5 v=0
521280 On ch=4 n=a4 v=0
539280 Par ch=4 c=64 v=0
539520 On ch=4 n=d4 v=38
539760 On ch=4 n=d4 v=0
539760 On ch=4 n=d4 v=39
540000 On ch=4 n=d4 v=0
540240 On ch=4 n=d4 v=41
540480 On ch=4 n=d4 v=0
540480 On ch=4 n=d4 v=41
540720 On ch=4 n=d4 v=0
540960 On ch=4 n=d4 v=43
541200 On ch=4 n=d4 v=0
541200 On ch=4 n=d4 v=44
541440 On ch=4 n=d4 v=0
541680 On ch=4 n=d4 v=45
541920 On ch=4 n=d4 v=0
541920 On ch=4 n=d4 v=44
542160 On ch=4 n=d4 v=0
542400 On ch=4 n=d4 v=42
542640 On ch=4 n=d4 v=0
542640 On ch=4 n=d4 v=41
542880 On ch=4 n=d4 v=0
543120 On ch=4 n=d4 v=40
543360 On ch=4 n=d4 v=0
543360 On ch=4 n=d4 v=39
543600 On ch=4 n=d4 v=0
543840 On ch=4 n=d4 v=37
544080 On ch=4 n=d4 v=0
544080 On ch=4 n=d4 v=36
544320 On ch=4 n=d4 v=0
544560 On ch=4 n=d4 v=38
544800 On ch=4 n=d4 v=0
544800 On ch=4 n=d4 v=39
545040 On ch=4 n=d4 v=0
545280 On ch=4 n=d4 v=40
545520 On ch=4 n=d4 v=0
545520 On ch=4 n=d4 v=41
545760 On ch=4 n=d4 v=0
546000 On ch=4 n=f4 v=42
546240 On ch=4 n=f4 v=0
546240 On ch=4 n=f4 v=42
546480 On ch=4 n=f4 v=0
546720 On ch=4 n=f4 v=40
546960 On ch=4 n=f4 v=0
546960 On ch=4 n=f4 v=39
547200 On ch=4 n=f4 v=0
547440 On ch=4 n=f4 v=38
547680 On ch=4 n=f4 v=0
547680 On ch=4 n=f4 v=37
547920 On ch=4 n=f4 v=0
548160 On ch=4 n=f4 v=35
548400 On ch=4 n=f4 v=0
548400 On ch=4 n=f4 v=35
548640 On ch=4 n=f4 v=0
548880 On ch=4 n=f4 v=37
549120 On ch=4 n=f4 v=0
549120 On ch=4 n=f4 v=38
549360 On ch=4 n=f4 v=0
549600 On ch=4 n=c4 v=40
549840 On ch=4 n=c4 v=0
549840 On ch=4 n=c4 v=41
550080 On ch=4 n=c4 v=0
550320 On ch=4 n=c4 v=43
550560 On ch=4 n=c4 v=0
550560 On ch=4 n=c4 v=43
550800 On ch=4 n=c4 v=0
551040 On ch=4 n=d4 v=41
551280 On ch=4 n=d4 v=0
551760 On ch=4 n=g4 v=38
552000 On ch=4 n=g4 v=0
552000 On ch=4 n=f4 v=37
552240 On ch=4 n=f4 v=0
552480 On ch=4 n=f4 v=35
552720 On ch=4 n=f4 v=0
552720 On ch=4 n=f4 v=36
552960 On ch=4 n=f4 v=0
553200 On ch=4 n=f4 v=38
553440 On ch=4 n=f4 v=0
553440 On ch=4 n=f4 v=39
553680 On ch=4 n=f4 v=0
553920 On ch=4 n=c4 v=41
554160 On ch=4 n=c4 v=0
554160 On ch=4 n=c4 v=43
554400 On ch=4 n=c4 v=0
554640 On ch=4 n=c4 v=41
554880 On ch=4 n=c4 v=0
554880 On ch=4 n=c4 v=40
555120 On ch=4 n=c4 v=0
555360 On ch=4 n=d4 v=38
555600 On ch=4 n=d4 v=0
555600 On ch=4 n=d4 v=37
555840 On ch=4 n=d4 v=0
556080 On ch=4 n=g4 v=35
556320 On ch=4 n=g4 v=0
556320 On ch=4 n=g4 v=34
556560 On ch=4 n=g4 v=0
558720 Par ch=4 c=64 v=0
558720 Par ch=4 c=64 v=0
558780 Par ch=4 c=64 v=127
558780 Par ch=4 c=64 v=127
558840 On ch=4 n=g4 v=34
558960 On ch=4 n=g4 v=0
558960 On ch=4 n=a#4 v=34
559080 On ch=4 n=a#4 v=0
559080 On ch=4 n=g4 v=34
559200 On ch=4 n=g4 v=0
559200 On ch=4 n=d#4 v=34
559320 On ch=4 n=d#4 v=0
559320 On ch=4 n=a#3 v=34
559440 Par ch=4 c=64 v=0
559440 Par ch=4 c=64 v=0
559441 On ch=4 n=a#3 v=0
559500 Par ch=4 c=64 v=127
559500 Par ch=4 c=64 v=127
559560 On ch=4 n=g4 v=35
559680 On ch=4 n=g4 v=0
559680 On ch=4 n=a#4 v=35
559800 On ch=4 n=a#4 v=0
559800 On ch=4 n=g4 v=35
559920 On ch=4 n=g4 v=0
559920 On ch=4 n=d#4 v=35
560040 On ch=4 n=d#4 v=0
560040 On ch=4 n=a#3 v=35
560160 Par ch=4 c=64 v=0
560160 Par ch=4 c=64 v=0
560161 On ch=4 n=a#3 v=0
560220 Par ch=4 c=64 v=127
560220 Par ch=4 c=64 v=127
560280 On ch=4 n=g4 v=36
560400 On ch=4 n=g4 v=0
560400 On ch=4 n=a#4 v=36
560520 On ch=4 n=a#4 v=0
560520 On ch=4 n=g4 v=36
560640 On ch=4 n=g4 v=0
560640 On ch=4 n=d#4 v=36
560760 On ch=4 n=d#4 v=0
560760 On ch=4 n=a#3 v=36
560880 Par ch=4 c=64 v=0
560880 Par ch=4 c=64 v=0
560881 On ch=4 n=a#3 v=0
560940 Par ch=4 c=64 v=127
560940 Par ch=4 c=64 v=127
561000 On ch=4 n=g4 v=36
561120 On ch=4 n=g4 v=0
561120 On ch=4 n=a#4 v=37
561240 On ch=4 n=a#4 v=0
561240 On ch=4 n=g4 v=37
561360 On ch=4 n=g4 v=0
561360 On ch=4 n=d#4 v=37
561480 On ch=4 n=d#4 v=0
561480 On ch=4 n=a#3 v=37
561600 Par ch=4 c=64 v=0
561600 Par ch=4 c=64 v=0
561601 On ch=4 n=a#3 v=0
561660 Par ch=4 c=64 v=127
561660 Par ch=4 c=64 v=127
561720 On ch=4 n=g4 v=37
561840 On ch=4 n=g4 v=0
561840 On ch=4 n=a#4 v=37
561960 On ch=4 n=a#4 v=0
561960 On ch=4 n=g4 v=38
562080 On ch=4 n=g4 v=0
562080 On ch=4 n=d#4 v=38
562200 On ch=4 n=d#4 v=0
562200 On ch=4 n=a#3 v=38
562320 Par ch=4 c=64 v=0
562320 Par ch=4 c=64 v=0
562321 On ch=4 n=a#3 v=0
562380 Par ch=4 c=64 v=127
562380 Par ch=4 c=64 v=127
562440 On ch=4 n=g#4 v=38
562560 On ch=4 n=g#4 v=0
562560 On ch=4 n=a#4 v=38
562680 On ch=4 n=a#4 v=0
562680 On ch=4 n=g#4 v=38
562800 On ch=4 n=g#4 v=0
562800 On ch=4 n=f4 v=39
562920 On ch=4 n=f4 v=0
562920 On ch=4 n=a#3 v=39
563040 Par ch=4 c=64 v=0
563040 Par ch=4 c=64 v=0
563041 On ch=4 n=a#3 v=0
563100 Par ch=4 c=64 v=127
563100 Par ch=4 c=64 v=127
563160 On ch=4 n=f4 v=39
563280 On ch=4 n=f4 v=0
563280 On ch=4 n=a#4 v=39
563400 On ch=4 n=a#4 v=0
563400 On ch=4 n=f4 v=39
563520 On ch=4 n=f4 v=0
563520 On ch=4 n=d4 v=39
563640 On ch=4 n=d4 v=0
563640 On ch=4 n=a#3 v=40
563760 Par ch=4 c=64 v=0
563760 Par ch=4 c=64 v=0
563761 On ch=4 n=a#3 v=0
563820 Par ch=4 c=64 v=127
563820 Par ch=4 c=64 v=127
563880 On ch=4 n=f4 v=40
564000 On ch=4 n=f4 v=0
564000 On ch=4 n=a#4 v=40
564120 On ch=4 n=a#4 v=0
564120 On ch=4 n=f4 v=40
564240 On ch=4 n=f4 v=0
564240 On ch=4 n=d4 v=40
564360 On ch=4 n=d4 v=0
564360 On ch=4 n=a#3 v=41
564480 Par ch=4 c=64 v=0
564480 Par ch=4 c=64 v=0
564481 On ch=4 n=a#3 v=0
564540 Par ch=4 c=64 v=127
564540 Par ch=4 c=64 v=127
564600 On ch=4 n=g4 v=41
564720 On ch=4 n=g4 v=0
564720 On ch=4 n=a#4 v=41
564840 On ch=4 n=a#4 v=0
564840 On ch=4 n=g4 v=41
564960 On ch=4 n=g4 v=0
564960 On ch=4 n=d#4 v=41
565080 On ch=4 n=d#4 v=0
565080 On ch=4 n=a#3 v=41
565200 On ch=4 n=a#3 v=0
565200 Par ch=4 c=64 v=0
565200 Par ch=4 c=64 v=0
565260 Par ch=4 c=64 v=127
565260 Par ch=4 c=64 v=127
565320 On ch=4 n=a#3 v=40
565440 On ch=4 n=a#3 v=0
565440 On ch=4 n=d4 v=41
565560 On ch=4 n=d4 v=0
565560 On ch=4 n=f4 v=42
565680 On ch=4 n=f4 v=0
565680 On ch=4 n=d4 v=42
565800 On ch=4 n=d4 v=0
565800 On ch=4 n=a#3 v=43
565920 On ch=4 n=a#3 v=0
565920 Par ch=4 c=64 v=0
565920 Par ch=4 c=64 v=0
565980 Par ch=4 c=64 v=127
565980 Par ch=4 c=64 v=127
566040 On ch=4 n=a#3 v=44
566160 On ch=4 n=a#3 v=0
566160 On ch=4 n=d4 v=45
566280 On ch=4 n=d4 v=0
566280 On ch=4 n=f4 v=45
566400 On ch=4 n=f4 v=0
566400 On ch=4 n=d4 v=46
566520 On ch=4 n=d4 v=0
566520 On ch=4 n=a#3 v=47
566640 On ch=4 n=a#3 v=0
566640 Par ch=4 c=64 v=0
566640 Par ch=4 c=64 v=0
566700 Par ch=4 c=64 v=127
566700 Par ch=4 c=64 v=127
566760 On ch=4 n=a#3 v=46
566880 On ch=4 n=a#3 v=0
566880 On ch=4 n=d#4 v=45
567000 On ch=4 n=d#4 v=0
567000 On ch=4 n=g4 v=44
567120 On ch=4 n=g4 v=0
567120 On ch=4 n=a#4 v=43
567240 On ch=4 n=a#4 v=0
567240 On ch=4 n=g4 v=42
567360 On ch=4 n=g4 v=0
567360 Par ch=4 c=64 v=0
567360 Par ch=4 c=64 v=0
567420 Par ch=4 c=64 v=127
567420 Par ch=4 c=64 v=127
567480 On ch=4 n=a#4 v=42
567600 On ch=4 n=a#4 v=0
567600 On ch=4 n=d5 v=43
567720 On ch=4 n=d5 v=0
567720 On ch=4 n=f5 v=44
567840 On ch=4 n=f5 v=0
567840 On ch=4 n=d5 v=44
567960 On ch=4 n=d5 v=0
567960 On ch=4 n=a#4 v=45
568080 On ch=4 n=a#4 v=0
568080 Par ch=4 c=64 v=0
568080 Par ch=4 c=64 v=0
568140 Par ch=4 c=64 v=127
568140 Par ch=4 c=64 v=127
568200 On ch=4 n=a#4 v=46
568320 On ch=4 n=a#4 v=0
568320 On ch=4 n=d5 v=47
568440 On ch=4 n=d5 v=0
568440 On ch=4 n=f5 v=47
568560 On ch=4 n=f5 v=0
568560 On ch=4 n=d5 v=48
568680 On ch=4 n=d5 v=0
568680 On ch=4 n=a#4 v=49
568800 On ch=4 n=a#4 v=0
568800 Par ch=4 c=64 v=0
568800 Par ch=4 c=64 v=0
568860 Par ch=4 c=64 v=127
568860 Par ch=4 c=64 v=127
568920 On ch=4 n=a#4 v=50
569040 On ch=4 n=a#4 v=0
569040 On ch=4 n=d#5 v=49
569160 On ch=4 n=d#5 v=0
569160 On ch=4 n=g5 v=48
569280 On ch=4 n=g5 v=0
569280 On ch=4 n=d#5 v=47
569400 On ch=4 n=d#5 v=0
569400 On ch=4 n=a#4 v=46
569520 On ch=4 n=a#4 v=0
569520 Par ch=4 c=64 v=0
569520 Par ch=4 c=64 v=0
569580 Par ch=4 c=64 v=127
569580 Par ch=4 c=64 v=127
569640 On ch=4 n=c5 v=44
569760 On ch=4 n=c5 v=0
569760 On ch=4 n=f5 v=45
569880 On ch=4 n=f5 v=0
569880 On ch=4 n=g#5 v=46
570000 On ch=4 n=g#5 v=0
570000 On ch=4 n=f5 v=46
570120 On ch=4 n=f5 v=0
570120 On ch=4 n=c5 v=47
570240 On ch=4 n=c5 v=0
570240 Par ch=4 c=64 v=0
570240 Par ch=4 c=64 v=0
570300 Par ch=4 c=64 v=127
570300 Par ch=4 c=64 v=127
570360 On ch=4 n=d5 v=48
570480 On ch=4 n=d5 v=0
570480 On ch=4 n=f5 v=49
570600 On ch=4 n=f5 v=0
570600 On ch=4 n=g#5 v=49
570720 On ch=4 n=g#5 v=0
570720 On ch=4 n=f5 v=50
570840 On ch=4 n=f5 v=0
570840 On ch=4 n=d5 v=51
570960 On ch=4 n=d5 v=0
570960 Par ch=4 c=64 v=0
570960 Par ch=4 c=64 v=0
570960 On ch=4 n=c5 v=51
571080 On ch=4 n=c5 v=0
571200 On ch=4 n=c5 v=50
571320 On ch=4 n=c5 v=0
571320 On ch=4 n=d5 v=49
571440 On ch=4 n=d5 v=0
571440 On ch=4 n=d#5 v=48
571560 On ch=4 n=d#5 v=0
571560 On ch=4 n=c5 v=47
571680 On ch=4 n=c5 v=0
571680 Par ch=4 c=64 v=0
571680 Par ch=4 c=64 v=0
571740 Par ch=4 c=64 v=127
571740 Par ch=4 c=64 v=127
571800 On ch=4 n=c4 v=44
571920 On ch=4 n=c4 v=0
571920 On ch=4 n=f4 v=44
572040 On ch=4 n=f4 v=0
572040 On ch=4 n=g#4 v=44
572160 On ch=4 n=g#4 v=0
572160 On ch=4 n=c5 v=43
572280 On ch=4 n=c5 v=0
572280 On ch=4 n=g#4 v=43
572400 On ch=4 n=g#4 v=0
572400 Par ch=4 c=64 v=0
572400 Par ch=4 c=64 v=0
572460 Par ch=4 c=64 v=127
572460 Par ch=4 c=64 v=127
572520 On ch=4 n=d#4 v=42
572640 On ch=4 n=d#4 v=0
572640 On ch=4 n=g4 v=42
572760 On ch=4 n=g4 v=0
572760 On ch=4 n=a#4 v=41
572880 On ch=4 n=a#4 v=0
572880 On ch=4 n=g4 v=41
573000 On ch=4 n=g4 v=0
573000 On ch=4 n=d#4 v=41
573120 On ch=4 n=d#4 v=0
573120 Par ch=4 c=64 v=0
573120 Par ch=4 c=64 v=0
573180 Par ch=4 c=64 v=127
573180 Par ch=4 c=64 v=127
573240 On ch=4 n=d4 v=40
573360 On ch=4 n=d4 v=0
573360 On ch=4 n=f4 v=40
573480 On ch=4 n=f4 v=0
573480 On ch=4 n=g#4 v=39
573600 On ch=4 n=g#4 v=0
573600 On ch=4 n=f4 v=39
573720 On ch=4 n=f4 v=0
573720 On ch=4 n=g#4 v=38
573840 On ch=4 n=g#4 v=0
573840 Par ch=4 c=64 v=0
573840 Par ch=4 c=64 v=0
573840 Par ch=4 c=64 v=0
573840 Par ch=4 c=64 v=0
573900 Par ch=4 c=64 v=127
573900 Par ch=4 c=64 v=127
573900 Par ch=4 c=64 v=127
573900 Par ch=4 c=64 v=127
573960 On ch=4 n=a#3 v=39
574080 On ch=4 n=a#3 v=0
574080 On ch=4 n=d#4 v=39
574200 On ch=4 n=d#4 v=0
574200 On ch=4 n=a#3 v=40
574320 On ch=4 n=a#3 v=0
574320 On ch=4 n=g3 v=41
574440 On ch=4 n=g3 v=0
574560 Par ch=4 c=64 v=0
574560 Par ch=4 c=64 v=0
574560 Par ch=4 c=64 v=0
574560 Par ch=4 c=64 v=0
574560 On ch=4 n=g#3 v=43
574620 Par ch=4 c=64 v=127
574620 Par ch=4 c=64 v=127
574620 Par ch=4 c=64 v=127
574620 Par ch=4 c=64 v=127
574680 On ch=4 n=c4 v=43
574800 On ch=4 n=c4 v=0
574800 On ch=4 n=d#4 v=44
574920 On ch=4 n=d#4 v=0
574920 On ch=4 n=c4 v=45
575020 On ch=4 n=g#3 v=0
575040 On ch=4 n=c4 v=0
575040 On ch=4 n=g#3 v=46
575160 On ch=4 n=g#3 v=0
575280 Par ch=4 c=64 v=0
575280 Par ch=4 c=64 v=0
575280 Par ch=4 c=64 v=0
575280 Par ch=4 c=64 v=0
575280 On ch=4 n=g#3 v=47
575340 Par ch=4 c=64 v=127
575340 Par ch=4 c=64 v=127
575340 Par ch=4 c=64 v=127
575340 Par ch=4 c=64 v=127
575400 On ch=4 n=c4 v=47
575520 On ch=4 n=c4 v=0
575520 On ch=4 n=d#4 v=47
575640 On ch=4 n=d#4 v=0
575640 On ch=4 n=c4 v=46
575757 On ch=4 n=g#3 v=0
575760 On ch=4 n=c4 v=0
575760 On ch=4 n=g#3 v=46
575880 On ch=4 n=g#3 v=0
575880 On ch=4 n=d#3 v=46
576000 Par ch=4 c=64 v=0
576000 Par ch=4 c=64 v=0
576000 Par ch=4 c=64 v=0
576000 Par ch=4 c=64 v=0
576006 On ch=4 n=d#3 v=0
576060 Par ch=4 c=64 v=127
576060 Par ch=4 c=64 v=127
576060 Par ch=4 c=64 v=127
576060 Par ch=4 c=64 v=127
576120 On ch=4 n=a#3 v=45
576240 On ch=4 n=a#3 v=0
576240 On ch=4 n=d#4 v=45
576360 On ch=4 n=d#4 v=0
576360 On ch=4 n=a#3 v=44
576480 On ch=4 n=a#3 v=0
576480 On ch=4 n=g3 v=44
576600 On ch=4 n=g3 v=0
576720 Par ch=4 c=64 v=0
576720 Par ch=4 c=64 v=0
576720 On ch=4 n=g3 v=44
576780 Par ch=4 c=64 v=127
576780 Par ch=4 c=64 v=127
576840 On ch=4 n=a#3 v=43
576960 On ch=4 n=a#3 v=0
576960 On ch=4 n=d#4 v=43
577080 On ch=4 n=d#4 v=0
577080 On ch=4 n=a#3 v=43
577180 On ch=4 n=g3 v=0
577200 On ch=4 n=a#3 v=0
577200 On ch=4 n=g3 v=42
577320 On ch=4 n=g3 v=0
577440 Par ch=4 c=64 v=0
577440 Par ch=4 c=64 v=0
577440 On ch=4 n=f3 v=42
577500 Par ch=4 c=64 v=127
577500 Par ch=4 c=64 v=127
577560 On ch=4 n=g#3 v=41
577680 On ch=4 n=g#3 v=0
577680 On ch=4 n=d4 v=41
577800 On ch=4 n=d4 v=0
577800 On ch=4 n=g#3 v=41
577900 On ch=4 n=f3 v=0
577920 On ch=4 n=g#3 v=0
577920 On ch=4 n=f3 v=40
578040 On ch=4 n=f3 v=0
578040 On ch=4 n=d#3 v=40
578160 Par ch=4 c=64 v=0
578160 Par ch=4 c=64 v=0
578166 On ch=4 n=d#3 v=0
578220 Par ch=4 c=64 v=127
578220 Par ch=4 c=64 v=127
578280 On ch=4 n=a#3 v=38
578400 On ch=4 n=a#3 v=0
578400 On ch=4 n=d#4 v=38
578520 On ch=4 n=d#4 v=0
578520 On ch=4 n=a#3 v=39
578640 On ch=4 n=a#3 v=0
578640 On ch=4 n=g3 v=39
578760 On ch=4 n=g3 v=0
578880 Par ch=4 c=64 v=0
578880 Par ch=4 c=64 v=0
578880 On ch=4 n=g#3 v=40
578940 Par ch=4 c=64 v=127
578940 Par ch=4 c=64 v=127
579000 On ch=4 n=c4 v=41
579120 On ch=4 n=c4 v=0
579120 On ch=4 n=d#4 v=41
579240 On ch=4 n=d#4 v=0
579240 On ch=4 n=c4 v=42
579340 On ch=4 n=g#3 v=0
579360 On ch=4 n=c4 v=0
579360 On ch=4 n=g#3 v=42
579480 On ch=4 n=g#3 v=0
579600 Par ch=4 c=64 v=0
579600 Par ch=4 c=64 v=0
579600 On ch=4 n=g#3 v=43
579660 Par ch=4 c=64 v=127
579660 Par ch=4 c=64 v=127
579720 On ch=4 n=c4 v=43
579840 On ch=4 n=c4 v=0
579840 On ch=4 n=d#4 v=44
579960 On ch=4 n=d#4 v=0
579960 On ch=4 n=c4 v=44
580060 On ch=4 n=g#3 v=0
580080 On ch=4 n=c4 v=0
580080 On ch=4 n=g#3 v=45
580200 On ch=4 n=g#3 v=0
580200 On ch=4 n=d#3 v=45
580320 On ch=4 n=d#3 v=0
580320 Par ch=4 c=64 v=0
580320 Par ch=4 c=64 v=0
580380 Par ch=4 c=64 v=127
580380 Par ch=4 c=64 v=127
580440 On ch=4 n=a#3 v=42
580560 On ch=4 n=a#3 v=0
580560 On ch=4 n=d#4 v=42
580680 On ch=4 n=d#4 v=0
580680 On ch=4 n=a#3 v=41
580800 On ch=4 n=a#3 v=0
580800 On ch=4 n=g3 v=40
580920 On ch=4 n=g3 v=0
581040 Par ch=4 c=64 v=0
581040 Par ch=4 c=64 v=0
581040 On ch=4 n=g3 v=39
581100 Par ch=4 c=64 v=127
581100 Par ch=4 c=64 v=127
581160 On ch=4 n=g3 v=0
581160 On ch=4 n=a#3 v=38
581280 On ch=4 n=a#3 v=0
581280 On ch=4 n=d#4 v=38
581400 On ch=4 n=d#4 v=0
581400 On ch=4 n=a#3 v=37
581520 On ch=4 n=a#3 v=0
581520 On ch=4 n=g3 v=36
581640 On ch=4 n=g3 v=0
581760 Par ch=4 c=64 v=0
581760 Par ch=4 c=64 v=0
581760 On ch=4 n=g3 v=35
581820 Par ch=4 c=64 v=127
581820 Par ch=4 c=64 v=127
581880 On ch=4 n=g3 v=0
581880 On ch=4 n=a#3 v=34
582000 On ch=4 n=a#3 v=0
582000 On ch=4 n=d#4 v=34
582120 On ch=4 n=d#4 v=0
582120 On ch=4 n=d#3 v=33
582240 On ch=4 n=d#3 v=0
582240 On ch=4 n=d#4 v=32
582360 On ch=4 n=d#4 v=0
582360 On ch=4 n=d#3 v=32
582480 On ch=4 n=d#3 v=0
582480 Par ch=4 c=64 v=0
582480 Par ch=4 c=64 v=0
582720 On ch=4 n=d4 v=29
582960 On ch=4 n=d4 v=0
582960 On ch=4 n=d4 v=31
583200 On ch=4 n=d4 v=0
583440 On ch=4 n=d5 v=36
583680 On ch=4 n=d5 v=0
583680 On ch=4 n=d5 v=38
583920 On ch=4 n=d5 v=0
584400 On ch=4 n=d4 v=28
584640 On ch=4 n=d4 v=0
584880 On ch=4 n=d4 v=29
585120 On ch=4 n=d4 v=0
585120 On ch=4 n=d4 v=30
585360 On ch=4 n=d4 v=0
585600 On ch=4 n=d4 v=31
585840 On ch=4 n=d4 v=0
585840 On ch=4 n=d4 v=31
586080 On ch=4 n=d4 v=0
586320 On ch=4 n=d4 v=32
586560 On ch=4 n=d4 v=0
586560 On ch=4 n=d4 v=33
586800 On ch=4 n=d4 v=0
587040 On ch=4 n=d4 v=32
587280 On ch=4 n=d4 v=0
587280 On ch=4 n=d4 v=31
587520 On ch=4 n=d4 v=0
587760 On ch=4 n=d4 v=30
588000 On ch=4 n=d4 v=0
588000 On ch=4 n=d4 v=29
588240 On ch=4 n=d4 v=0
588480 On ch=4 n=d4 v=28
588720 On ch=4 n=d4 v=0
588720 On ch=4 n=d4 v=27
588960 On ch=4 n=d4 v=0
589200 On ch=4 n=d4 v=27
589440 On ch=4 n=d4 v=0
589440 On ch=4 n=d4 v=28
589680 On ch=4 n=d4 v=0
589920 On ch=4 n=d4 v=30
590160 On ch=4 n=d4 v=0
590160 On ch=4 n=d4 v=31
590400 On ch=4 n=d4 v=0
590640 On ch=4 n=d4 v=33
590880 On ch=4 n=d4 v=0
590880 On ch=4 n=d4 v=34
591120 On ch=4 n=d4 v=0
591360 On ch=4 n=f4 v=33
591600 On ch=4 n=f4 v=0
591600 On ch=4 n=f4 v=32
591840 On ch=4 n=f4 v=0
592080 On ch=4 n=f4 v=31
592320 On ch=4 n=f4 v=0
592320 On ch=4 n=f4 v=30
592560 On ch=4 n=f4 v=0
592800 On ch=4 n=f4 v=29
593040 On ch=4 n=f4 v=0
593040 On ch=4 n=f4 v=29
593280 On ch=4 n=f4 v=0
593520 On ch=4 n=f4 v=28
593760 On ch=4 n=f4 v=0
593760 On ch=4 n=f4 v=29
594000 On ch=4 n=f4 v=0
594240 On ch=4 n=f4 v=31
594480 On ch=4 n=f4 v=0
594480 On ch=4 n=f4 v=32
594720 On ch=4 n=f4 v=0
594960 On ch=4 n=c4 v=33
595200 On ch=4 n=c4 v=0
595200 On ch=4 n=c4 v=34
595440 On ch=4 n=c4 v=0
595680 On ch=4 n=c4 v=35
595920 On ch=4 n=c4 v=0
595920 On ch=4 n=c4 v=35
596160 On ch=4 n=c4 v=0
596400 On ch=4 n=d4 v=36
596640 On ch=4 n=d4 v=0
597120 On ch=4 n=g4 v=33
597360 On ch=4 n=g4 v=0
597360 On ch=4 n=f4 v=32
597600 On ch=4 n=f4 v=0
597840 On ch=4 n=f4 v=31
598080 On ch=4 n=f4 v=0
598080 On ch=4 n=f4 v=32
598320 On ch=4 n=f4 v=0
598560 On ch=4 n=f4 v=33
598800 On ch=4 n=f4 v=0
598800 On ch=4 n=f4 v=34
599040 On ch=4 n=f4 v=0
599280 On ch=4 n=c4 v=36
599520 On ch=4 n=c4 v=0
599520 On ch=4 n=c4 v=37
599760 On ch=4 n=c4 v=0
600000 On ch=4 n=c4 v=36
600240 On ch=4 n=c4 v=0
600240 On ch=4 n=c4 v=35
600480 On ch=4 n=c4 v=0
600720 On ch=4 n=d4 v=33
600960 On ch=4 n=d4 v=0
600960 On ch=4 n=d4 v=33
601200 On ch=4 n=d4 v=0
601200 Par ch=4 c=64 v=0
601260 Par ch=4 c=64 v=127
601320 On ch=4 n=a#3 v=31
601440 On ch=4 n=a#3 v=0
601440 On ch=4 n=d4 v=32
601560 On ch=4 n=d4 v=0
601560 On ch=4 n=g3 v=33
601680 On ch=4 n=a#3 v=34
601800 On ch=4 n=a#3 v=0
601800 On ch=4 n=d4 v=35
601904 On ch=4 n=g3 v=0
601920 On ch=4 n=d4 v=0
601920 Par ch=4 c=64 v=0
601980 Par ch=4 c=64 v=127
602040 On ch=4 n=a#4 v=37
602160 On ch=4 n=a#4 v=0
602160 On ch=4 n=d5 v=37
602280 On ch=4 n=d5 v=0
602280 On ch=4 n=a#4 v=38
602400 On ch=4 n=a#4 v=0
602400 On ch=4 n=g4 v=39
602520 On ch=4 n=g4 v=0
602520 On ch=4 n=d4 v=40
602640 On ch=4 n=d4 v=0
602640 Par ch=4 c=64 v=0
602700 Par ch=4 c=64 v=127
602760 On ch=4 n=a#4 v=42
602880 On ch=4 n=a#4 v=0
602880 On ch=4 n=d5 v=43
603000 On ch=4 n=d5 v=0
603000 On ch=4 n=a#4 v=44
603120 On ch=4 n=a#4 v=0
603120 On ch=4 n=g4 v=45
603240 On ch=4 n=g4 v=0
603240 On ch=4 n=d4 v=46
603360 On ch=4 n=d4 v=0
603360 Par ch=4 c=64 v=0
603420 Par ch=4 c=64 v=127
603480 On ch=4 n=a#4 v=47
603600 On ch=4 n=a#4 v=0
603600 On ch=4 n=d5 v=48
603720 On ch=4 n=d5 v=0
603720 On ch=4 n=a#4 v=49
603840 On ch=4 n=a#4 v=0
603840 On ch=4 n=g4 v=50
603960 On ch=4 n=g4 v=0
603960 On ch=4 n=d4 v=51
604080 On ch=4 n=d4 v=0
604080 Par ch=4 c=64 v=0
604140 Par ch=4 c=64 v=127
604200 On ch=4 n=a#4 v=50
604320 On ch=4 n=a#4 v=0
604320 On ch=4 n=d5 v=50
604440 On ch=4 n=d5 v=0
604440 On ch=4 n=a#4 v=49
604560 On ch=4 n=a#4 v=0
604560 On ch=4 n=g4 v=48
604680 On ch=4 n=g4 v=0
604680 On ch=4 n=d4 v=47
604800 On ch=4 n=d4 v=0
604800 Par ch=4 c=64 v=0
604860 Par ch=4 c=64 v=127
604920 On ch=4 n=a#4 v=46
605040 On ch=4 n=a#4 v=0
605040 On ch=4 n=d5 v=45
605160 On ch=4 n=d5 v=0
605160 On ch=4 n=a#4 v=44
605280 On ch=4 n=a#4 v=0
605280 On ch=4 n=g4 v=43
605400 On ch=4 n=g4 v=0
605400 On ch=4 n=d4 v=43
605520 On ch=4 n=d4 v=0
605520 Par ch=4 c=64 v=0
605580 Par ch=4 c=64 v=127
605640 On ch=4 n=a4 v=41
605760 On ch=4 n=a4 v=0
605760 On ch=4 n=d5 v=40
605880 On ch=4 n=d5 v=0
605880 On ch=4 n=a4 v=40
606000 On ch=4 n=a4 v=0
606000 On ch=4 n=f#4 v=39
606120 On ch=4 n=f#4 v=0
606120 On ch=4 n=d4 v=38
606240 On ch=4 n=d4 v=0
606240 Par ch=4 c=64 v=0
606300 Par ch=4 c=64 v=127
606360 On ch=4 n=a4 v=49
606480 On ch=4 n=a4 v=0
606480 On ch=4 n=d5 v=48
606600 On ch=4 n=d5 v=0
606600 On ch=4 n=a4 v=48
606720 On ch=4 n=a4 v=0
606720 On ch=4 n=f#4 v=47
606840 On ch=4 n=f#4 v=0
606840 On ch=4 n=d4 v=46
606960 On ch=4 n=d4 v=0
606960 Par ch=4 c=64 v=0
607020 Par ch=4 c=64 v=127
607080 On ch=4 n=a4 v=45
607200 On ch=4 n=a4 v=0
607200 On ch=4 n=d5 v=44
607320 On ch=4 n=d5 v=0
607320 On ch=4 n=a4 v=43
607440 On ch=4 n=a4 v=0
607440 On ch=4 n=f#4 v=43
607560 On ch=4 n=f#4 v=0
607560 On ch=4 n=d4 v=42
607680 On ch=4 n=d4 v=0
607680 Par ch=4 c=64 v=0
607680 On ch=4 n=d#4 v=41
607740 Par ch=4 c=64 v=127
607920 On ch=4 n=a#4 v=40
608040 On ch=4 n=a#4 v=0
608040 On ch=4 n=g4 v=39
608136 On ch=4 n=d#4 v=0
608160 On ch=4 n=g4 v=0
608160 On ch=4 n=d#4 v=38
608280 On ch=4 n=d#4 v=0
608280 On ch=4 n=d4 v=37
608400 On ch=4 n=d4 v=0
608400 Par ch=4 c=64 v=0
645360 On ch=4 n=g4 v=74
645480 On ch=4 n=b4 v=76
645584 On ch=4 n=g4 v=0
645600 On ch=4 n=b4 v=0
645600 On ch=4 n=g4 v=77
645720 On ch=4 n=b4 v=79
645824 On ch=4 n=g4 v=0
645840 On ch=4 n=b4 v=0
645840 On ch=4 n=g4 v=80
645960 On ch=4 n=b4 v=77
646064 On ch=4 n=g4 v=0
646080 On ch=4 n=b4 v=0
646080 On ch=4 n=g4 v=77
646200 On ch=4 n=b4 v=77
646304 On ch=4 n=g4 v=0
646320 On ch=4 n=b4 v=0
646320 On ch=4 n=a4 v=76
646320 On ch=4 n=f#4 v=76
646440 On ch=4 n=b4 v=76
646544 On ch=4 n=f#4 v=0
646544 On ch=4 n=a4 v=0
646560 On ch=4 n=b4 v=0
646560 On ch=4 n=a4 v=76
646560 On ch=4 n=f#4 v=76
646680 On ch=4 n=b4 v=75
646784 On ch=4 n=f#4 v=0
646784 On ch=4 n=a4 v=0
646800 On ch=4 n=b4 v=0
646800 On ch=4 n=a4 v=75
646800 On ch=4 n=f#4 v=75
646920 On ch=4 n=b4 v=75
647024 On ch=4 n=f#4 v=0
647024 On ch=4 n=a4 v=0
647040 On ch=4 n=b4 v=0
647040 On ch=4 n=a4 v=75
647040 On ch=4 n=f#4 v=75
647160 On ch=4 n=b4 v=74
647264 On ch=4 n=f#4 v=0
647264 On ch=4 n=a4 v=0
647280 On ch=4 n=b4 v=0
647280 On ch=4 n=g4 v=74
647400 On ch=4 n=b4 v=74
647504 On ch=4 n=g4 v=0
647520 On ch=4 n=b4 v=0
647520 On ch=4 n=g4 v=73
647640 On ch=4 n=b4 v=73
647744 On ch=4 n=g4 v=0
647760 On ch=4 n=b4 v=0
647760 On ch=4 n=g4 v=73
647880 On ch=4 n=b4 v=72
647984 On ch=4 n=g4 v=0
648000 On ch=4 n=b4 v=0
648000 On ch=4 n=g4 v=72
648120 On ch=4 n=b4 v=72
648224 On ch=4 n=g4 v=0
648240 On ch=4 n=b4 v=0
662800 On ch=4 n=b4 v=53
662960 On ch=4 n=b4 v=0
662960 On ch=4 n=d5 v=52
663120 On ch=4 n=d5 v=0
663280 On ch=4 n=b4 v=51
663440 On ch=4 n=b4 v=0
663440 On ch=4 n=a4 v=51
663600 On ch=4 n=a4 v=0
663760 On ch=4 n=g4 v=50
663920 On ch=4 n=g4 v=0
663920 On ch=4 n=b4 v=49
664080 On ch=4 n=b4 v=0
664240 On ch=4 n=f#4 v=48
664400 On ch=4 n=f#4 v=0
664400 On ch=4 n=b4 v=48
664560 On ch=4 n=b4 v=0
664720 On ch=4 n=e4 v=47
664880 On ch=4 n=e4 v=0
664880 On ch=4 n=g4 v=46
665040 On ch=4 n=g4 v=0
665200 On ch=4 n=d4 v=46
665360 On ch=4 n=d4 v=0
665360 On ch=4 n=g4 v=45
665520 On ch=4 n=g4 v=0
665680 On ch=4 n=d4 v=44
665840 On ch=4 n=d4 v=0
665840 On ch=4 n=f#4 v=44
666000 On ch=4 n=f#4 v=0
666160 On ch=4 n=d4 v=43
666320 On ch=4 n=d4 v=0
666320 On ch=4 n=g4 v=42
666480 On ch=4 n=g4 v=0
666640 On ch=4 n=b4 v=44
666800 On ch=4 n=b4 v=0
666800 On ch=4 n=d5 v=45
666960 On ch=4 n=d5 v=0
667120 On ch=4 n=a4 v=46
667280 On ch=4 n=a4 v=0
667280 On ch=4 n=d5 v=46
667440 On ch=4 n=d5 v=0
667600 On ch=4 n=a4 v=48
667760 On ch=4 n=a4 v=0
667760 On ch=4 n=c#5 v=48
667920 On ch=4 n=c#5 v=0
668080 On ch=4 n=a4 v=49
668240 On ch=4 n=a4 v=0
668240 On ch=4 n=d5 v=50
668400 On ch=4 n=d5 v=0
668560 On ch=4 n=b4 v=51
668720 On ch=4 n=b4 v=0
668720 On ch=4 n=e5 v=51
668880 On ch=4 n=e5 v=0
669040 On ch=4 n=e5 v=53
669200 On ch=4 n=e5 v=0
669200 On ch=4 n=g5 v=53
669360 On ch=4 n=g5 v=0
674320 On ch=4 n=f#4 v=53
674480 On ch=4 n=f#4 v=0
674480 On ch=4 n=a4 v=52
674640 On ch=4 n=a4 v=0
674800 On ch=4 n=g4 v=51
674960 On ch=4 n=g4 v=0
674960 On ch=4 n=a4 v=50
675120 On ch=4 n=a4 v=0
675280 On ch=4 n=f#4 v=49
675440 On ch=4 n=f#4 v=0
675440 On ch=4 n=a4 v=49
675600 On ch=4 n=a4 v=0
675760 On ch=4 n=f4 v=48
675920 On ch=4 n=f4 v=0
675920 On ch=4 n=g4 v=47
676080 On ch=4 n=g4 v=0
676240 On ch=4 n=e4 v=46
676400 On ch=4 n=e4 v=0
676400 On ch=4 n=a4 v=45
676560 On ch=4 n=a4 v=0
676720 On ch=4 n=f#4 v=44
676880 On ch=4 n=f#4 v=0
676880 On ch=4 n=a4 v=44
677040 On ch=4 n=a4 v=0
677200 On ch=4 n=d4 v=43
677360 On ch=4 n=d4 v=0
677360 On ch=4 n=g4 v=42
677520 On ch=4 n=g4 v=0
693520 On ch=4 n=e5 v=46
693680 On ch=4 n=e5 v=0
693680 On ch=4 n=g5 v=46
693840 On ch=4 n=g5 v=0
694000 On ch=4 n=d5 v=46
694160 On ch=4 n=d5 v=0
694160 On ch=4 n=g5 v=47
694320 On ch=4 n=g5 v=0
694480 On ch=4 n=e5 v=47
694640 On ch=4 n=e5 v=0
694640 On ch=4 n=g5 v=47
694800 On ch=4 n=g5 v=0
694960 On ch=4 n=d5 v=47
695120 On ch=4 n=d5 v=0
695120 On ch=4 n=g5 v=48
695280 On ch=4 n=g5 v=0
695440 On ch=4 n=c5 v=48
695600 On ch=4 n=c5 v=0
695600 On ch=4 n=e5 v=48
695760 On ch=4 n=e5 v=0
695920 On ch=4 n=b4 v=48
696080 On ch=4 n=b4 v=0
696080 On ch=4 n=e5 v=49
696240 On ch=4 n=e5 v=0
696400 On ch=4 n=c5 v=49
696560 On ch=4 n=c5 v=0
696560 On ch=4 n=e5 v=49
696720 On ch=4 n=e5 v=0
696880 On ch=4 n=b4 v=49
697040 On ch=4 n=b4 v=0
697040 On ch=4 n=e5 v=50
697200 On ch=4 n=e5 v=0
697360 On ch=4 n=c5 v=50
697520 On ch=4 n=c5 v=0
697520 On ch=4 n=e5 v=50
697680 On ch=4 n=e5 v=0
697840 On ch=4 n=a4 v=51
698000 On ch=4 n=a4 v=0
698000 On ch=4 n=d5 v=51
698160 On ch=4 n=d5 v=0
698280 On ch=4 n=b4 v=51
698400 On ch=4 n=b4 v=0
698400 On ch=4 n=d5 v=51
698520 On ch=4 n=d5 v=0
698520 On ch=4 n=b4 v=51
698640 On ch=4 n=b4 v=0
698760 On ch=4 n=a4 v=52
698880 On ch=4 n=a4 v=0
698880 On ch=4 n=d5 v=52
699000 On ch=4 n=d5 v=0
699000 On ch=4 n=a4 v=52
699120 On ch=4 n=a4 v=0
699240 On ch=4 n=g4 v=52
699360 On ch=4 n=g4 v=0
699360 On ch=4 n=b4 v=52
699480 On ch=4 n=b4 v=0
699480 On ch=4 n=g4 v=52
699600 On ch=4 n=g4 v=0
699720 On ch=4 n=f#4 v=53
699840 On ch=4 n=f#4 v=0
699840 On ch=4 n=b4 v=53
699960 On ch=4 n=b4 v=0
699960 On ch=4 n=f#4 v=53
700080 On ch=4 n=f#4 v=0
700200 On ch=4 n=e4 v=53
700320 On ch=4 n=e4 v=0
700320 On ch=4 n=g4 v=53
700440 On ch=4 n=g4 v=0
700440 On ch=4 n=e4 v=53
700560 On ch=4 n=e4 v=0
700680 On ch=4 n=d4 v=54
700800 On ch=4 n=d4 v=0
700800 On ch=4 n=g4 v=54
700920 On ch=4 n=g4 v=0
700920 On ch=4 n=d4 v=54
701040 On ch=4 n=d4 v=0
701160 On ch=4 n=d4 v=54
701280 On ch=4 n=d4 v=0
701280 On ch=4 n=f#4 v=54
701400 On ch=4 n=f#4 v=0
701400 On ch=4 n=d4 v=54
701520 On ch=4 n=d4 v=0
701640 On ch=4 n=d4 v=55
701760 On ch=4 n=d4 v=0
701760 On ch=4 n=g4 v=55
701880 On ch=4 n=g4 v=0
701880 On ch=4 n=d4 v=55
702000 On ch=4 n=d4 v=0
702120 On ch=4 n=b4 v=55
702240 On ch=4 n=b4 v=0
702240 On ch=4 n=d5 v=55
702360 On ch=4 n=d5 v=0
702360 On ch=4 n=b4 v=55
702480 On ch=4 n=b4 v=0
702600 On ch=4 n=a4 v=56
702720 On ch=4 n=a4 v=0
702720 On ch=4 n=d5 v=56
702840 On ch=4 n=d5 v=0
702840 On ch=4 n=a4 v=56
702960 On ch=4 n=a4 v=0
703080 On ch=4 n=a4 v=56
703200 On ch=4 n=a4 v=0
703200 On ch=4 n=c#5 v=56
703320 On ch=4 n=c#5 v=0
703320 On ch=4 n=a4 v=56
703440 On ch=4 n=a4 v=0
703560 On ch=4 n=a4 v=57
703680 On ch=4 n=a4 v=0
703680 On ch=4 n=d5 v=57
703800 On ch=4 n=d5 v=0
703800 On ch=4 n=a4 v=57
703920 On ch=4 n=a4 v=0
704040 On ch=4 n=b4 v=57
704160 On ch=4 n=b4 v=0
704160 On ch=4 n=d5 v=57
704280 On ch=4 n=d5 v=0
704280 On ch=4 n=b4 v=58
704400 On ch=4 n=b4 v=0
704520 On ch=4 n=e5 v=58
704640 On ch=4 n=e5 v=0
704640 On ch=4 n=g5 v=58
704760 On ch=4 n=g5 v=0
704760 On ch=4 n=e5 v=58
704880 On ch=4 n=e5 v=0
705960 On ch=4 n=d5 v=52
706080 On ch=4 n=d5 v=0
706080 On ch=4 n=b4 v=52
706200 On ch=4 n=b4 v=0
706200 On ch=4 n=d5 v=53
706320 On ch=4 n=d5 v=0
706440 On ch=4 n=d5 v=53
706560 On ch=4 n=d5 v=0
706560 On ch=4 n=a4 v=53
706680 On ch=4 n=a4 v=0
706680 On ch=4 n=d5 v=54
706800 On ch=4 n=d5 v=0
706920 On ch=4 n=b4 v=54
707040 On ch=4 n=b4 v=0
707040 On ch=4 n=g4 v=55
707160 On ch=4 n=g4 v=0
707160 On ch=4 n=b4 v=55
707280 On ch=4 n=b4 v=0
707400 On ch=4 n=b4 v=55
707520 On ch=4 n=b4 v=0
707520 On ch=4 n=g4 v=56
707640 On ch=4 n=g4 v=0
707640 On ch=4 n=b4 v=56
707760 On ch=4 n=b4 v=0
707880 On ch=4 n=g4 v=57
708000 On ch=4 n=g4 v=0
708000 On ch=4 n=e4 v=57
708120 On ch=4 n=e4 v=0
708120 On ch=4 n=g4 v=57
708240 On ch=4 n=g4 v=0
708360 On ch=4 n=g4 v=58
708480 On ch=4 n=g4 v=0
708480 On ch=4 n=d4 v=58
708600 On ch=4 n=d4 v=0
708600 On ch=4 n=g4 v=58
708720 On ch=4 n=g4 v=0
708840 On ch=4 n=f#4 v=59
708960 On ch=4 n=f#4 v=0
708960 On ch=4 n=d4 v=59
709080 On ch=4 n=d4 v=0
709080 On ch=4 n=f#4 v=59
709200 On ch=4 n=f#4 v=0
709320 On ch=4 n=g4 v=60
709440 On ch=4 n=g4 v=0
709440 On ch=4 n=d4 v=60
709560 On ch=4 n=d4 v=0
709560 On ch=4 n=g4 v=60
709680 On ch=4 n=g4 v=0
709800 On ch=4 n=d5 v=61
709920 On ch=4 n=d5 v=0
709920 On ch=4 n=b4 v=61
710040 On ch=4 n=b4 v=0
710040 On ch=4 n=d5 v=62
710160 On ch=4 n=d5 v=0
710280 On ch=4 n=d5 v=62
710400 On ch=4 n=d5 v=0
710400 On ch=4 n=a4 v=62
710520 On ch=4 n=a4 v=0
710520 On ch=4 n=d5 v=63
710640 On ch=4 n=d5 v=0
710760 On ch=4 n=c#5 v=63
710880 On ch=4 n=c#5 v=0
710880 On ch=4 n=g4 v=64
711000 On ch=4 n=g4 v=0
711000 On ch=4 n=c#5 v=64
711120 On ch=4 n=c#5 v=0
711240 On ch=4 n=d5 v=64
711360 On ch=4 n=d5 v=0
711360 On ch=4 n=a4 v=65
711480 On ch=4 n=a4 v=0
711480 On ch=4 n=d5 v=65
711600 On ch=4 n=d5 v=0
711720 On ch=4 n=e5 v=65
711840 On ch=4 n=e5 v=0
711840 On ch=4 n=b4 v=66
711960 On ch=4 n=b4 v=0
711960 On ch=4 n=e5 v=66
712080 On ch=4 n=e5 v=0
712200 On ch=4 n=g5 v=67
712320 On ch=4 n=g5 v=0
712320 On ch=4 n=e5 v=67
712440 On ch=4 n=e5 v=0
712440 On ch=4 n=g5 v=67
712560 On ch=4 n=g5 v=0
717480 On ch=4 n=a4 v=51
717600 On ch=4 n=a4 v=0
717600 On ch=4 n=f#4 v=51
717720 On ch=4 n=f#4 v=0
717720 On ch=4 n=a4 v=51
717840 On ch=4 n=a4 v=0
717960 On ch=4 n=a4 v=50
718080 On ch=4 n=a4 v=0
718080 On ch=4 n=g4 v=50
718200 On ch=4 n=g4 v=0
718200 On ch=4 n=a4 v=50
718320 On ch=4 n=a4 v=0
718440 On ch=4 n=a4 v=50
718560 On ch=4 n=a4 v=0
718560 On ch=4 n=f#4 v=50
718680 On ch=4 n=f#4 v=0
718680 On ch=4 n=a4 v=49
718800 On ch=4 n=a4 v=0
718920 On ch=4 n=g4 v=49
719040 On ch=4 n=g4 v=0
719040 On ch=4 n=f4 v=49
719160 On ch=4 n=f4 v=0
719160 On ch=4 n=g4 v=49
719280 On ch=4 n=g4 v=0
719400 On ch=4 n=a4 v=48
719520 On ch=4 n=a4 v=0
719520 On ch=4 n=e4 v=48
719640 On ch=4 n=e4 v=0
719640 On ch=4 n=a4 v=48
719760 On ch=4 n=a4 v=0
719880 On ch=4 n=c5 v=47
720000 On ch=4 n=c5 v=0
720000 On ch=4 n=a4 v=47
720120 On ch=4 n=a4 v=0
720120 On ch=4 n=c5 v=47
720240 On ch=4 n=c5 v=0
720240 On ch=4 n=b4 v=47
720460 On ch=4 n=b4 v=0
723240 On ch=4 n=f#6 v=47
723360 On ch=4 n=f#6 v=0
723480 On ch=4 n=f#6 v=45
723600 On ch=4 n=f#6 v=0
723720 On ch=4 n=g6 v=44
723840 On ch=4 n=g6 v=0
723960 On ch=4 n=g6 v=43
724080 On ch=4 n=g6 v=0
724080 On ch=4 n=f#6 v=43
724320 On ch=4 n=f#6 v=0
727080 On ch=4 n=e6 v=43
727200 On ch=4 n=e6 v=0
727320 On ch=4 n=d6 v=42
727440 On ch=4 n=d6 v=0
727560 On ch=4 n=e6 v=41
727680 On ch=4 n=e6 v=0
727800 On ch=4 n=c6 v=40
727920 On ch=4 n=c6 v=0
727920 On ch=4 n=d6 v=40
728160 On ch=4 n=d6 v=0
729000 On ch=4 n=e5 v=41
729120 On ch=4 n=e5 v=0
729240 On ch=4 n=d5 v=39
729360 On ch=4 n=d5 v=0
729480 On ch=4 n=e5 v=38
729600 On ch=4 n=e5 v=0
729720 On ch=4 n=c5 v=37
729840 On ch=4 n=c5 v=0
729960 On ch=4 n=d5 v=38
730080 On ch=4 n=d5 v=0
730200 On ch=4 n=d5 v=39
730320 On ch=4 n=d5 v=0
730440 On ch=4 n=f5 v=39
730560 On ch=4 n=f5 v=0
730680 On ch=4 n=f5 v=40
730800 On ch=4 n=f5 v=0
730920 On ch=4 n=e5 v=40
731040 On ch=4 n=e5 v=0
731160 On ch=4 n=e5 v=41
731280 On ch=4 n=e5 v=0
731400 On ch=4 n=f#5 v=42
731520 On ch=4 n=f#5 v=0
731640 On ch=4 n=f#5 v=42
731760 On ch=4 n=f#5 v=0
731880 On ch=4 n=g5 v=43
732000 On ch=4 n=g5 v=0
732120 On ch=4 n=g5 v=44
732240 On ch=4 n=g5 v=0
732360 On ch=4 n=f5 v=44
732480 On ch=4 n=f5 v=0
732600 On ch=4 n=f5 v=45
732720 On ch=4 n=f5 v=0
732840 On ch=4 n=e5 v=45
732960 On ch=4 n=e5 v=0
733080 On ch=4 n=e5 v=46
733200 On ch=4 n=e5 v=0
733320 On ch=4 n=f#5 v=47
733440 On ch=4 n=f#5 v=0
733560 On ch=4 n=f#5 v=47
733680 On ch=4 n=f#5 v=0
733800 On ch=4 n=g5 v=48
733920 On ch=4 n=g5 v=0
734040 On ch=4 n=g5 v=48
734160 On ch=4 n=g5 v=0
734280 On ch=4 n=f5 v=49
734400 On ch=4 n=f5 v=0
734520 On ch=4 n=f5 v=50
734640 On ch=4 n=f5 v=0
734760 On ch=4 n=e5 v=50
734880 On ch=4 n=e5 v=0
735000 On ch=4 n=e5 v=51
735120 On ch=4 n=e5 v=0
735240 On ch=4 n=f#5 v=52
735360 On ch=4 n=f#5 v=0
735480 On ch=4 n=f#5 v=52
735600 On ch=4 n=f#5 v=0
735720 On ch=4 n=g5 v=53
735840 On ch=4 n=g5 v=0
735960 On ch=4 n=g5 v=53
736080 On ch=4 n=g5 v=0
736200 On ch=4 n=f5 v=54
736320 On ch=4 n=f5 v=0
736440 On ch=4 n=f5 v=55
736560 On ch=4 n=f5 v=0
736680 On ch=4 n=e5 v=55
736800 On ch=4 n=e5 v=0
736920 On ch=4 n=e5 v=56
737040 On ch=4 n=e5 v=0
737160 On ch=4 n=f#5 v=57
737280 On ch=4 n=f#5 v=0
737400 On ch=4 n=f#5 v=57
737520 On ch=4 n=f#5 v=0
737640 On ch=4 n=b4 v=57
737760 On ch=4 n=b4 v=0
737760 On ch=4 n=d5 v=58
737880 On ch=4 n=d5 v=0
737880 On ch=4 n=g5 v=59
738000 On ch=4 n=g5 v=0
738120 On ch=4 n=b4 v=62
738240 On ch=4 n=b4 v=0
738240 On ch=4 n=d5 v=63
738360 On ch=4 n=d5 v=0
738360 On ch=4 n=g5 v=64
738480 On ch=4 n=g5 v=0
738600 On ch=4 n=b4 v=66
738720 On ch=4 n=b4 v=0
738720 On ch=4 n=d5 v=67
738840 On ch=4 n=d5 v=0
738840 On ch=4 n=g5 v=68
738960 On ch=4 n=g5 v=0
739080 On ch=4 n=b4 v=71
739200 On ch=4 n=b4 v=0
739200 On ch=4 n=d5 v=72
739320 On ch=4 n=d5 v=0
739320 On ch=4 n=g5 v=73
739440 On ch=4 n=g5 v=0
739560 On ch=4 n=b4 v=75
739680 On ch=4 n=b4 v=0
739680 On ch=4 n=d5 v=76
739800 On ch=4 n=d5 v=0
739800 On ch=4 n=g5 v=77
739920 On ch=4 n=g5 v=0
740040 On ch=4 n=b4 v=80
740160 On ch=4 n=b4 v=0
740160 On ch=4 n=d5 v=81
740280 On ch=4 n=d5 v=0
740280 On ch=4 n=g5 v=82
740400 On ch=4 n=g5 v=0
740520 On ch=4 n=b4 v=80
740640 On ch=4 n=b4 v=0
740640 On ch=4 n=d5 v=77
740760 On ch=4 n=d5 v=0
740760 On ch=4 n=g5 v=73
740880 On ch=4 n=g5 v=0
741000 On ch=4 n=f#4 v=66
741120 On ch=4 n=f#4 v=0
741120 On ch=4 n=a4 v=63
741240 On ch=4 n=a4 v=0
741240 On ch=4 n=d5 v=59
741360 On ch=4 n=d5 v=0
741360 Meta TrkEnd
TrkEnd
MTrk
0 SeqSpec 43 00 01 00
0 Meta TrkName "No Name"
0 Par ch=5 c=0 v=0
0 Par ch=5 c=32 v=0
0 PrCh ch=5 p=0
0 Par ch=5 c=7 v=120
0 Pb ch=5 v=8192
0 Par ch=5 c=1 v=0
0 Par ch=5 c=64 v=0
0 Par ch=5 c=93 v=28
0 Par ch=5 c=91 v=100
0 Par ch=5 c=10 v=55
1440 Par ch=5 c=64 v=0
11520 On ch=5 n=b4 v=68
12960 On ch=5 n=b4 v=0
12960 On ch=5 n=d4 v=72
14400 On ch=5 n=d4 v=0
14400 On ch=5 n=d4 v=77
15360 On ch=5 n=d4 v=0
72000 Par ch=5 c=64 v=0
83520 On ch=5 n=d4 v=72
84960 On ch=5 n=d4 v=0
84960 On ch=5 n=d4 v=77
85920 On ch=5 n=d4 v=0
142560 Par ch=5 c=64 v=0
178560 On ch=5 n=g3 v=68
180000 On ch=5 n=g3 v=0
180000 On ch=5 n=g3 v=73
181440 On ch=5 n=g3 v=0
181440 On ch=5 n=g3 v=77
182400 On ch=5 n=g3 v=0
213120 On ch=5 n=a#3 v=70
214560 On ch=5 n=a#3 v=0
214560 On ch=5 n=a#3 v=75
216000 On ch=5 n=a#3 v=0
216000 On ch=5 n=a#3 v=79
216960 On ch=5 n=a#3 v=0
318240 Par ch=5 c=64 v=0
354240 On ch=5 n=g3 v=68
355680 On ch=5 n=g3 v=0
355680 On ch=5 n=g3 v=73
357120 On ch=5 n=g3 v=0
357120 On ch=5 n=g3 v=77
358080 On ch=5 n=g3 v=0
388800 On ch=5 n=a#3 v=70
390240 On ch=5 n=a#3 v=0
390240 On ch=5 n=a#3 v=75
391680 On ch=5 n=a#3 v=0
391680 On ch=5 n=a#3 v=79
392640 On ch=5 n=a#3 v=0
493920 Par ch=5 c=64 v=0
521760 On ch=5 n=d5 v=65
521760 On ch=5 n=b4 v=65
522240 On ch=5 n=b4 v=0
522240 On ch=5 n=d5 v=0
522240 On ch=5 n=g4 v=64
522240 On ch=5 n=b4 v=64
522720 On ch=5 n=b4 v=0
522720 On ch=5 n=g4 v=0
523200 On ch=5 n=d5 v=63
523200 On ch=5 n=b4 v=63
523680 On ch=5 n=b4 v=0
523680 On ch=5 n=d5 v=0
523680 On ch=5 n=g4 v=62
523680 On ch=5 n=b4 v=62
524160 On ch=5 n=b4 v=0
524160 On ch=5 n=g4 v=0
524640 On ch=5 n=b4 v=60
524640 On ch=5 n=d5 v=60
525120 On ch=5 n=d5 v=0
525120 On ch=5 n=b4 v=0
525120 On ch=5 n=g4 v=60
525120 On ch=5 n=b4 v=60
525600 On ch=5 n=b4 v=0
525600 On ch=5 n=g4 v=0
526080 On ch=5 n=c5 v=58
526080 On ch=5 n=a4 v=58
526560 On ch=5 n=a4 v=0
526560 On ch=5 n=c5 v=0
526560 On ch=5 n=f#4 v=58
526560 On ch=5 n=a4 v=58
527040 On ch=5 n=a4 v=0
527040 On ch=5 n=f#4 v=0
527520 On ch=5 n=d5 v=56
527520 On ch=5 n=b4 v=56
528000 On ch=5 n=b4 v=0
528000 On ch=5 n=d5 v=0
528000 On ch=5 n=g4 v=56
528000 On ch=5 n=b4 v=56
528480 On ch=5 n=b4 v=0
528480 On ch=5 n=g4 v=0
528960 On ch=5 n=d5 v=54
528960 On ch=5 n=b4 v=54
529440 On ch=5 n=b4 v=0
529440 On ch=5 n=d5 v=0
529440 On ch=5 n=g4 v=54
529440 On ch=5 n=b4 v=54
529920 On ch=5 n=b4 v=0
529920 On ch=5 n=g4 v=0
530400 On ch=5 n=d5 v=52
530400 On ch=5 n=b4 v=52
530880 On ch=5 n=b4 v=0
530880 On ch=5 n=d5 v=0
530880 On ch=5 n=g4 v=52
530880 On ch=5 n=b4 v=52
531360 On ch=5 n=b4 v=0
531360 On ch=5 n=g4 v=0
531840 On ch=5 n=a4 v=50
531840 On ch=5 n=c5 v=50
532320 On ch=5 n=c5 v=0
532320 On ch=5 n=a4 v=0
532320 On ch=5 n=a4 v=49
532800 On ch=5 n=a4 v=0
537120 Par ch=5 c=93 v=28
537120 Par ch=5 c=91 v=91
539280 Par ch=5 c=64 v=0
608400 On ch=5 n=a4 v=39
608760 On ch=5 n=a4 v=0
608880 On ch=5 n=c5 v=33
609072 On ch=5 n=c5 v=0
609840 On ch=5 n=a4 v=35
610200 On ch=5 n=a4 v=0
610320 On ch=5 n=c5 v=28
610512 On ch=5 n=c5 v=0
610560 On ch=5 n=a4 v=29
611040 On ch=5 n=a4 v=0
611280 On ch=5 n=g4 v=26
611760 On ch=5 n=g4 v=0
612720 Par ch=5 c=93 v=28
612720 Par ch=5 c=91 v=91
613680 On ch=5 n=b4 v=44
614160 On ch=5 n=b4 v=0
614160 On ch=5 n=a4 v=45
614640 On ch=5 n=a4 v=0
614640 On ch=5 n=g4 v=47
615120 On ch=5 n=g4 v=0
615120 On ch=5 n=f#4 v=48
615600 On ch=5 n=f#4 v=0
615600 On ch=5 n=e4 v=49
616080 On ch=5 n=e4 v=0
616080 On ch=5 n=d4 v=48
616560 On ch=5 n=d4 v=0
616560 On ch=5 n=f#4 v=46
617040 On ch=5 n=f#4 v=0
617040 On ch=5 n=g4 v=45
617520 On ch=5 n=g4 v=0
617520 On ch=5 n=b4 v=44
618000 On ch=5 n=b4 v=0
618000 On ch=5 n=a4 v=45
618480 On ch=5 n=a4 v=0
618480 On ch=5 n=c#5 v=47
618960 On ch=5 n=c#5 v=0
618960 On ch=5 n=d5 v=51
619440 On ch=5 n=d5 v=0
619440 On ch=5 n=b4 v=49
619920 On ch=5 n=b4 v=0
619920 On ch=5 n=e5 v=47
620400 On ch=5 n=e5 v=0
620400 On ch=5 n=d5 v=44
620640 On ch=5 n=d5 v=0
621360 Par ch=5 c=64 v=0
621360 On ch=5 n=b4 v=44
621840 On ch=5 n=b4 v=0
621840 On ch=5 n=a4 v=45
622320 On ch=5 n=a4 v=0
622320 On ch=5 n=g4 v=47
622800 On ch=5 n=g4 v=0
622800 On ch=5 n=f#4 v=48
623280 On ch=5 n=f#4 v=0
623280 On ch=5 n=e4 v=49
623760 On ch=5 n=e4 v=0
623760 On ch=5 n=d4 v=48
624240 On ch=5 n=d4 v=0
624240 On ch=5 n=f#4 v=46
624720 On ch=5 n=f#4 v=0
624720 On ch=5 n=g4 v=45
625200 On ch=5 n=g4 v=0
625200 On ch=5 n=b4 v=44
625680 On ch=5 n=b4 v=0
625680 On ch=5 n=a4 v=45
626160 On ch=5 n=a4 v=0
626160 On ch=5 n=c#5 v=47
626640 On ch=5 n=c#5 v=0
626640 On ch=5 n=d5 v=51
627120 On ch=5 n=d5 v=0
627120 On ch=5 n=b4 v=49
627600 On ch=5 n=b4 v=0
627600 On ch=5 n=e5 v=47
628080 On ch=5 n=e5 v=0
628080 On ch=5 n=d5 v=44
628320 On ch=5 n=d5 v=0
633360 On ch=5 n=e4 v=52
633840 On ch=5 n=e4 v=0
634320 On ch=5 n=d4 v=49
634800 On ch=5 n=d4 v=0
634800 On ch=5 n=c4 v=47
635280 On ch=5 n=c4 v=0
635280 On ch=5 n=d4 v=46
635760 On ch=5 n=d4 v=0
636720 Par ch=5 c=64 v=0
641040 On ch=5 n=e4 v=52
641520 On ch=5 n=e4 v=0
642000 On ch=5 n=d4 v=49
642480 On ch=5 n=d4 v=0
642480 On ch=5 n=c4 v=47
642960 On ch=5 n=c4 v=0
642960 On ch=5 n=d4 v=46
643440 On ch=5 n=d4 v=0
678960 On ch=5 n=e4 v=61
678960 On ch=5 n=g4 v=61
679080 On ch=5 n=g4 v=0
679080 On ch=5 n=e4 v=0
679200 On ch=5 n=g4 v=62
679200 On ch=5 n=e4 v=62
679320 On ch=5 n=e4 v=0
679320 On ch=5 n=g4 v=0
679440 On ch=5 n=g4 v=63
679440 On ch=5 n=e4 v=63
679560 On ch=5 n=e4 v=0
679560 On ch=5 n=g4 v=0
679680 On ch=5 n=e4 v=64
679680 On ch=5 n=g4 v=64
679800 On ch=5 n=g4 v=0
679800 On ch=5 n=e4 v=0
679920 On ch=5 n=e4 v=65
679920 On ch=5 n=c5 v=65
679920 On ch=5 n=g4 v=65
680040 On ch=5 n=g4 v=0
680040 On ch=5 n=c5 v=0
680040 On ch=5 n=e4 v=0
680160 On ch=5 n=c5 v=66
680160 On ch=5 n=e4 v=66
680160 On ch=5 n=g4 v=66
680280 On ch=5 n=g4 v=0
680280 On ch=5 n=e4 v=0
680280 On ch=5 n=c5 v=0
680400 On ch=5 n=c5 v=67
680400 On ch=5 n=g4 v=67
680400 On ch=5 n=e4 v=67
680520 On ch=5 n=e4 v=0
680520 On ch=5 n=g4 v=0
680520 On ch=5 n=c5 v=0
680640 On ch=5 n=c5 v=68
680640 On ch=5 n=g4 v=68
680640 On ch=5 n=e4 v=68
680760 On ch=5 n=e4 v=0
680760 On ch=5 n=g4 v=0
680760 On ch=5 n=c5 v=0
680880 On ch=5 n=a4 v=64
680880 On ch=5 n=c5 v=64
681480 On ch=5 n=c5 v=0
681480 On ch=5 n=a4 v=0
682800 On ch=5 n=a4 v=64
682800 On ch=5 n=c5 v=64
682920 On ch=5 n=c5 v=0
682920 On ch=5 n=a4 v=0
683040 On ch=5 n=a4 v=65
683040 On ch=5 n=f5 v=65
683040 On ch=5 n=c5 v=65
683160 On ch=5 n=c5 v=0
683160 On ch=5 n=f5 v=0
683160 On ch=5 n=a4 v=0
683280 On ch=5 n=a4 v=66
683280 On ch=5 n=f5 v=66
683280 On ch=5 n=c5 v=66
683400 On ch=5 n=c5 v=0
683400 On ch=5 n=f5 v=0
683400 On ch=5 n=a4 v=0
683520 On ch=5 n=f5 v=67
683520 On ch=5 n=a4 v=67
683520 On ch=5 n=c5 v=67
683640 On ch=5 n=c5 v=0
683640 On ch=5 n=a4 v=0
683640 On ch=5 n=f5 v=0
683760 On ch=5 n=a4 v=67
683760 On ch=5 n=f5 v=67
683760 On ch=5 n=c5 v=67
683880 On ch=5 n=c5 v=0
683880 On ch=5 n=f5 v=0
683880 On ch=5 n=a4 v=0
684000 On ch=5 n=a4 v=68
684000 On ch=5 n=f5 v=68
684000 On ch=5 n=c5 v=68
684120 On ch=5 n=c5 v=0
684120 On ch=5 n=f5 v=0
684120 On ch=5 n=a4 v=0
684240 On ch=5 n=b4 v=69
684240 On ch=5 n=d5 v=69
684360 On ch=5 n=d5 v=0
684360 On ch=5 n=b4 v=0
684480 On ch=5 n=d5 v=70
684480 On ch=5 n=b4 v=70
684600 On ch=5 n=b4 v=0
684600 On ch=5 n=d5 v=0
684720 On ch=5 n=c5 v=66
685320 On ch=5 n=c5 v=0
686640 On ch=5 n=g4 v=68
686640 On ch=5 n=e4 v=68
686760 On ch=5 n=e4 v=0
686760 On ch=5 n=g4 v=0
686880 On ch=5 n=e4 v=69
686880 On ch=5 n=g4 v=69
687000 On ch=5 n=g4 v=0
687000 On ch=5 n=e4 v=0
687120 On ch=5 n=g4 v=70
687120 On ch=5 n=e4 v=70
687240 On ch=5 n=e4 v=0
687240 On ch=5 n=g4 v=0
687360 On ch=5 n=e4 v=71
687360 On ch=5 n=g4 v=71
687480 On ch=5 n=g4 v=0
687480 On ch=5 n=e4 v=0
687600 On ch=5 n=e4 v=72
687600 On ch=5 n=c5 v=72
687600 On ch=5 n=g4 v=72
687720 On ch=5 n=g4 v=0
687720 On ch=5 n=c5 v=0
687720 On ch=5 n=e4 v=0
687840 On ch=5 n=c5 v=72
687840 On ch=5 n=e4 v=72
687840 On ch=5 n=g4 v=72
687960 On ch=5 n=g4 v=0
687960 On ch=5 n=e4 v=0
687960 On ch=5 n=c5 v=0
688080 On ch=5 n=e4 v=73
688080 On ch=5 n=c5 v=73
688080 On ch=5 n=g4 v=73
688200 On ch=5 n=g4 v=0
688200 On ch=5 n=c5 v=0
688200 On ch=5 n=e4 v=0
688320 On ch=5 n=e4 v=74
688320 On ch=5 n=g4 v=74
688320 On ch=5 n=c5 v=74
688440 On ch=5 n=c5 v=0
688440 On ch=5 n=g4 v=0
688440 On ch=5 n=e4 v=0
688560 On ch=5 n=c5 v=70
688560 On ch=5 n=a4 v=70
689160 On ch=5 n=a4 v=0
689160 On ch=5 n=c5 v=0
690480 On ch=5 n=c5 v=71
690480 On ch=5 n=a4 v=71
690600 On ch=5 n=a4 v=0
690600 On ch=5 n=c5 v=0
690720 On ch=5 n=c5 v=72
690720 On ch=5 n=f5 v=72
690720 On ch=5 n=a4 v=72
690840 On ch=5 n=a4 v=0
690840 On ch=5 n=f5 v=0
690840 On ch=5 n=c5 v=0
690960 On ch=5 n=c5 v=73
690960 On ch=5 n=f5 v=73
690960 On ch=5 n=a4 v=73
691080 On ch=5 n=a4 v=0
691080 On ch=5 n=f5 v=0
691080 On ch=5 n=c5 v=0
691200 On ch=5 n=c5 v=74
691200 On ch=5 n=a4 v=74
691200 On ch=5 n=f5 v=74
691320 On ch=5 n=f5 v=0
691320 On ch=5 n=a4 v=0
691320 On ch=5 n=c5 v=0
691440 On ch=5 n=c5 v=75
691440 On ch=5 n=f5 v=75
691440 On ch=5 n=a4 v=75
691560 On ch=5 n=a4 v=0
691560 On ch=5 n=f5 v=0
691560 On ch=5 n=c5 v=0
691680 On ch=5 n=c5 v=76
691680 On ch=5 n=f5 v=76
691680 On ch=5 n=a4 v=76
691800 On ch=5 n=a4 v=0
691800 On ch=5 n=f5 v=0
691800 On ch=5 n=c5 v=0
691920 On ch=5 n=d5 v=77
691920 On ch=5 n=b4 v=77
692040 On ch=5 n=b4 v=0
692040 On ch=5 n=d5 v=0
692160 On ch=5 n=b4 v=78
692160 On ch=5 n=d5 v=78
692280 On ch=5 n=d5 v=0
692280 On ch=5 n=b4 v=0
692400 On ch=5 n=c5 v=74
692640 On ch=5 n=c5 v=0
692640 Meta TrkEnd
TrkEnd
MTrk
0 SeqSpec 43 00 01 00
0 Meta TrkName "No Name"
0 Par ch=6 c=0 v=0
0 Par ch=6 c=32 v=0
0 PrCh ch=6 p=0
0 Par ch=6 c=10 v=55
0 Par ch=6 c=91 v=100
0 Par ch=6 c=93 v=28
0 Par ch=6 c=64 v=0
0 Par ch=6 c=1 v=0
0 Pb ch=6 v=8192
0 Par ch=6 c=7 v=125
1440 Par ch=6 c=64 v=0
1440 On ch=6 n=g4 v=64
1920 On ch=6 n=g4 v=0
1920 On ch=6 n=g4 v=67
2400 On ch=6 n=g4 v=0
2400 On ch=6 n=g4 v=70
2880 On ch=6 n=g4 v=0
2880 On ch=6 n=g4 v=77
3360 On ch=6 n=g4 v=0
3360 On ch=6 n=g4 v=69
3840 On ch=6 n=g4 v=0
3840 On ch=6 n=g4 v=68
4320 On ch=6 n=g4 v=0
4320 On ch=6 n=g4 v=67
4800 On ch=6 n=g4 v=0
4800 On ch=6 n=g4 v=66
5280 On ch=6 n=g4 v=0
5280 On ch=6 n=g4 v=66
5760 On ch=6 n=g4 v=0
5760 On ch=6 n=g4 v=65
6240 On ch=6 n=g4 v=0
6240 On ch=6 n=g4 v=64
6720 On ch=6 n=g4 v=0
6720 On ch=6 n=g4 v=63
7200 On ch=6 n=g4 v=0
7200 On ch=6 n=g4 v=63
7680 On ch=6 n=g4 v=0
7680 On ch=6 n=g4 v=62
8160 On ch=6 n=g4 v=0
8160 On ch=6 n=g4 v=61
8640 On ch=6 n=g4 v=0
8640 On ch=6 n=g4 v=60
9120 On ch=6 n=g4 v=0
9120 On ch=6 n=g4 v=59
9600 On ch=6 n=g4 v=0
9600 On ch=6 n=g4 v=59
10080 On ch=6 n=g4 v=0
10080 On ch=6 n=g4 v=58
10560 On ch=6 n=g4 v=0
10560 On ch=6 n=g4 v=57
11040 On ch=6 n=g4 v=0
11040 On ch=6 n=g4 v=56
11520 On ch=6 n=g4 v=0
11520 On ch=6 n=g4 v=68
12960 On ch=6 n=g4 v=0
12960 On ch=6 n=f#4 v=72
12960 On ch=6 n=f#3 v=72
14400 On ch=6 n=f#3 v=0
14400 On ch=6 n=f#4 v=0
14400 On ch=6 n=g3 v=77
14400 On ch=6 n=g4 v=77
15360 On ch=6 n=g4 v=0
15360 On ch=6 n=g3 v=0
15360 On ch=6 n=a3 v=81
15360 On ch=6 n=a4 v=81
15552 On ch=6 n=a4 v=0
15552 On ch=6 n=a3 v=0
15600 On ch=6 n=b4 v=84
15600 On ch=6 n=b3 v=84
15792 On ch=6 n=b3 v=0
15792 On ch=6 n=b4 v=0
15840 On ch=6 n=c4 v=91
15840 On ch=6 n=c5 v=91
16032 On ch=6 n=c5 v=0
16032 On ch=6 n=c4 v=0
16320 On ch=6 n=c4 v=83
16320 On ch=6 n=c5 v=83
16512 On ch=6 n=c5 v=0
16512 On ch=6 n=c4 v=0
16800 On ch=6 n=c#5 v=75
16800 On ch=6 n=c#4 v=75
16992 On ch=6 n=c#4 v=0
16992 On ch=6 n=c#5 v=0
17280 Par ch=6 c=64 v=127
17280 On ch=6 n=d4 v=66
17280 On ch=6 n=d5 v=66
17520 On ch=6 n=d4 v=0
17520 On ch=6 n=d4 v=65
17758 On ch=6 n=d5 v=0
17760 On ch=6 n=d4 v=0
17760 On ch=6 n=f#4 v=65
18000 On ch=6 n=f#4 v=0
18000 On ch=6 n=a4 v=64
18240 On ch=6 n=a4 v=0
22980 Par ch=6 c=64 v=0
23040 Par ch=6 c=64 v=127
23040 On ch=6 n=b3 v=57
23280 On ch=6 n=b3 v=0
23280 On ch=6 n=d4 v=56
23520 On ch=6 n=d4 v=0
23520 On ch=6 n=f#4 v=56
23760 On ch=6 n=f#4 v=0
23760 On ch=6 n=b4 v=55
24000 On ch=6 n=b4 v=0
28740 Par ch=6 c=64 v=0
28800 Par ch=6 c=64 v=127
28800 On ch=6 n=g#3 v=48
29040 On ch=6 n=g#3 v=0
29040 On ch=6 n=b3 v=47
29280 On ch=6 n=b3 v=0
29280 On ch=6 n=d4 v=47
29520 On ch=6 n=d4 v=0
29520 On ch=6 n=e4 v=47
29760 On ch=6 n=e4 v=0
29760 On ch=6 n=g#4 v=46
30240 On ch=6 n=g#4 v=0
33120 Par ch=6 c=64 v=0
33600 On ch=6 n=g#4 v=42
33600 On ch=6 n=b4 v=42
33960 On ch=6 n=b4 v=0
33960 On ch=6 n=g#4 v=0
34080 On ch=6 n=d5 v=44
34080 On ch=6 n=b4 v=44
34440 On ch=6 n=b4 v=0
34440 On ch=6 n=d5 v=0
34560 On ch=6 n=c#5 v=46
34560 On ch=6 n=a4 v=46
34800 On ch=6 n=c#5 v=0
34800 On ch=6 n=d5 v=47
35040 On ch=6 n=d5 v=0
35040 On ch=6 n=a4 v=0
35040 On ch=6 n=e5 v=48
35280 On ch=6 n=e5 v=0
35280 On ch=6 n=f#5 v=49
35520 On ch=6 n=f#5 v=0
35520 On ch=6 n=g#5 v=50
35760 On ch=6 n=g#5 v=0
35760 On ch=6 n=a5 v=51
36000 On ch=6 n=a5 v=0
36000 On ch=6 n=g#5 v=52
36240 On ch=6 n=g#5 v=0
36240 On ch=6 n=f#5 v=53
36480 On ch=6 n=f#5 v=0
36480 On ch=6 n=e5 v=54
36720 On ch=6 n=e5 v=0
36720 On ch=6 n=d5 v=55
36960 On ch=6 n=d5 v=0
36960 On ch=6 n=c#5 v=56
37200 On ch=6 n=c#5 v=0
37200 On ch=6 n=b4 v=57
37440 On ch=6 n=b4 v=0
37440 On ch=6 n=a4 v=59
37680 On ch=6 n=a4 v=0
37680 On ch=6 n=g4 v=56
37920 On ch=6 n=g4 v=0
37920 On ch=6 n=f#4 v=53
38160 On ch=6 n=f#4 v=0
38160 On ch=6 n=e4 v=51
38400 On ch=6 n=e4 v=0
38400 On ch=6 n=d4 v=48
38640 On ch=6 n=d4 v=0
38640 On ch=6 n=c#4 v=46
38880 On ch=6 n=c#4 v=0
38880 On ch=6 n=d4 v=44
39120 On ch=6 n=d4 v=0
39120 On ch=6 n=e4 v=44
39360 On ch=6 n=e4 v=0
39360 On ch=6 n=f#4 v=45
39600 On ch=6 n=f#4 v=0
39600 On ch=6 n=g#4 v=45
39840 On ch=6 n=g#4 v=0
39840 On ch=6 n=a4 v=46
40080 On ch=6 n=a4 v=0
40080 On ch=6 n=b4 v=47
40320 On ch=6 n=b4 v=0
40320 On ch=6 n=a4 v=47
40320 On ch=6 n=c#5 v=47
40560 On ch=6 n=c#5 v=0
40560 On ch=6 n=d5 v=48
40800 On ch=6 n=d5 v=0
40800 On ch=6 n=a4 v=0
40800 On ch=6 n=e5 v=48
41040 On ch=6 n=e5 v=0
41040 On ch=6 n=f#5 v=49
41280 On ch=6 n=f#5 v=0
41280 On ch=6 n=g#5 v=50
41520 On ch=6 n=g#5 v=0
41520 On ch=6 n=a5 v=50
41760 On ch=6 n=a5 v=0
41760 On ch=6 n=g#5 v=51
42000 On ch=6 n=g#5 v=0
42000 On ch=6 n=f#5 v=51
42240 On ch=6 n=f#5 v=0
42240 On ch=6 n=e5 v=52
42480 On ch=6 n=e5 v=0
42480 On ch=6 n=d5 v=53
42720 On ch=6 n=d5 v=0
42720 On ch=6 n=c#5 v=53
42960 On ch=6 n=c#5 v=0
42960 On ch=6 n=b4 v=54
43200 On ch=6 n=b4 v=0
43200 On ch=6 n=a4 v=55
43440 On ch=6 n=a4 v=0
43440 On ch=6 n=g4 v=54
43680 On ch=6 n=g4 v=0
43680 On ch=6 n=f#4 v=53
43920 On ch=6 n=f#4 v=0
43920 On ch=6 n=e4 v=52
44160 On ch=6 n=e4 v=0
44160 On ch=6 n=d4 v=51
44400 On ch=6 n=d4 v=0
44400 On ch=6 n=c#4 v=49
44640 On ch=6 n=c#4 v=0
44640 On ch=6 n=d4 v=48
44880 On ch=6 n=d4 v=0
44880 On ch=6 n=e4 v=47
45120 On ch=6 n=e4 v=0
45120 On ch=6 n=f#4 v=46
45360 On ch=6 n=f#4 v=0
45360 On ch=6 n=g#4 v=45
45600 On ch=6 n=g#4 v=0
45600 On ch=6 n=a4 v=43
45840 On ch=6 n=a4 v=0
45840 On ch=6 n=b4 v=42
46080 On ch=6 n=b4 v=0
46080 On ch=6 n=e5 v=44
46080 On ch=6 n=c#5 v=44
46080 On ch=6 n=a4 v=44
47520 On ch=6 n=c#5 v=0
47520 On ch=6 n=e5 v=0
47520 On ch=6 n=d5 v=47
47520 On ch=6 n=b4 v=47
48960 On ch=6 n=b4 v=0
48960 On ch=6 n=d5 v=0
48960 On ch=6 n=a4 v=0
48960 On ch=6 n=d5 v=51
48960 On ch=6 n=g#5 v=51
48960 On ch=6 n=a4 v=51
50400 On ch=6 n=g#5 v=0
50400 On ch=6 n=d5 v=0
50400 On ch=6 n=c#5 v=54
50400 On ch=6 n=e5 v=54
51840 On ch=6 n=e5 v=0
51840 On ch=6 n=c#5 v=0
51840 On ch=6 n=a4 v=0
51840 On ch=6 n=c#5 v=58
51840 On ch=6 n=g5 v=58
51840 On ch=6 n=e5 v=58
51840 On ch=6 n=a4 v=58
53280 On ch=6 n=a4 v=0
53280 On ch=6 n=e5 v=0
53280 On ch=6 n=g5 v=0
53280 On ch=6 n=c#5 v=0
53280 On ch=6 n=c#5 v=61
53280 On ch=6 n=g5 v=61
53280 On ch=6 n=e5 v=61
53280 On ch=6 n=a#4 v=61
54720 On ch=6 n=a#4 v=0
54720 On ch=6 n=e5 v=0
54720 On ch=6 n=g5 v=0
54720 On ch=6 n=c#5 v=0
54720 On ch=6 n=g5 v=65
54720 On ch=6 n=e5 v=65
54720 On ch=6 n=c#5 v=65
54720 On ch=6 n=a4 v=65
55680 On ch=6 n=a4 v=0
55680 On ch=6 n=c#5 v=0
55680 On ch=6 n=e5 v=0
55680 On ch=6 n=g5 v=0
55680 On ch=6 n=c#5 v=59
55680 On ch=6 n=e5 v=59
55680 On ch=6 n=g4 v=59
56160 On ch=6 n=g4 v=0
56160 On ch=6 n=e5 v=0
56160 On ch=6 n=c#5 v=0
56160 On ch=6 n=d5 v=58
56160 On ch=6 n=a4 v=58
56160 On ch=6 n=f#4 v=58
57120 On ch=6 n=f#4 v=0
57120 On ch=6 n=a4 v=0
57120 On ch=6 n=d5 v=0
57120 On ch=6 n=d5 v=55
57120 On ch=6 n=a4 v=55
57120 On ch=6 n=d4 v=55
57600 On ch=6 n=d4 v=0
57600 On ch=6 n=a4 v=0
57600 On ch=6 n=d5 v=0
57600 On ch=6 n=c#5 v=57
57600 On ch=6 n=g5 v=57
57600 On ch=6 n=e5 v=57
57600 On ch=6 n=a4 v=57
59040 On ch=6 n=a4 v=0
59040 On ch=6 n=e5 v=0
59040 On ch=6 n=g5 v=0
59040 On ch=6 n=c#5 v=0
59040 On ch=6 n=g5 v=62
59040 On ch=6 n=e5 v=62
59040 On ch=6 n=c#5 v=62
59040 On ch=6 n=a#4 v=62
60480 On ch=6 n=a#4 v=0
60480 On ch=6 n=c#5 v=0
60480 On ch=6 n=e5 v=0
60480 On ch=6 n=g5 v=0
60480 On ch=6 n=c#5 v=68
60480 On ch=6 n=g5 v=68
60480 On ch=6 n=e5 v=68
60480 On ch=6 n=a4 v=68
61440 On ch=6 n=a4 v=0
61440 On ch=6 n=e5 v=0
61440 On ch=6 n=g5 v=0
61440 On ch=6 n=c#5 v=0
61440 On ch=6 n=e5 v=66
61440 On ch=6 n=c#5 v=66
61440 On ch=6 n=g4 v=66
61920 On ch=6 n=g4 v=0
61920 On ch=6 n=c#5 v=0
61920 On ch=6 n=e5 v=0
61920 On ch=6 n=a4 v=65
61920 On ch=6 n=d5 v=65
61920 On ch=6 n=f#4 v=65
62880 On ch=6 n=f#4 v=0
62880 On ch=6 n=d5 v=0
62880 On ch=6 n=a4 v=0
62880 On ch=6 n=d5 v=61
62880 On ch=6 n=a4 v=61
62880 On ch=6 n=d4 v=61
63360 On ch=6 n=d4 v=0
63360 On ch=6 n=a4 v=0
63360 On ch=6 n=d5 v=0
63360 On ch=6 n=g4 v=60
63360 On ch=6 n=d5 v=60
63360 On ch=6 n=b4 v=60
63840 On ch=6 n=b4 v=0
63840 On ch=6 n=d5 v=0
63840 On ch=6 n=g4 v=0
64320 On ch=6 n=e5 v=57
64320 On ch=6 n=g4 v=57
64320 On ch=6 n=b4 v=57
64800 On ch=6 n=b4 v=0
64800 On ch=6 n=g4 v=0
64800 On ch=6 n=e5 v=0
64800 On ch=6 n=d5 v=55
64800 On ch=6 n=f#5 v=55
64800 On ch=6 n=a4 v=55
65280 On ch=6 n=a4 v=0
65280 On ch=6 n=f#5 v=0
65280 On ch=6 n=d5 v=0
65760 On ch=6 n=g5 v=52
65760 On ch=6 n=c#5 v=52
65760 On ch=6 n=a4 v=52
66240 On ch=6 n=a4 v=0
66240 On ch=6 n=c#5 v=0
66240 On ch=6 n=g5 v=0
66240 On ch=6 n=d4 v=77
66680 On ch=6 n=d4 v=0
66720 On ch=6 n=d4 v=76
67160 On ch=6 n=d4 v=0
67200 On ch=6 n=d4 v=74
67640 On ch=6 n=d4 v=0
67680 On ch=6 n=d4 v=73
68120 On ch=6 n=d4 v=0
68160 On ch=6 n=d4 v=71
68600 On ch=6 n=d4 v=0
68640 On ch=6 n=d4 v=70
69080 On ch=6 n=d4 v=0
69600 On ch=6 n=d4 v=53
69792 On ch=6 n=d4 v=0
70080 On ch=6 n=b3 v=51
70272 On ch=6 n=b3 v=0
71040 On ch=6 n=c4 v=48
71232 On ch=6 n=c4 v=0
71520 On ch=6 n=a3 v=46
71712 On ch=6 n=a3 v=0
72000 Par ch=6 c=64 v=0
72000 On ch=6 n=g4 v=64
72480 On ch=6 n=g4 v=0
72480 On ch=6 n=g4 v=67
72960 On ch=6 n=g4 v=0
72960 On ch=6 n=g4 v=70
73440 On ch=6 n=g4 v=0
73440 On ch=6 n=g4 v=77
73920 On ch=6 n=g4 v=0
73920 On ch=6 n=g4 v=69
74400 On ch=6 n=g4 v=0
74400 On ch=6 n=g4 v=68
74880 On ch=6 n=g4 v=0
74880 On ch=6 n=g4 v=67
75360 On ch=6 n=g4 v=0
75360 On ch=6 n=g4 v=66
75840 On ch=6 n=g4 v=0
75840 On ch=6 n=g4 v=66
76320 On ch=6 n=g4 v=0
76320 On ch=6 n=g4 v=65
76800 On ch=6 n=g4 v=0
76800 On ch=6 n=g4 v=64
77280 On ch=6 n=g4 v=0
77280 On ch=6 n=g4 v=63
77760 On ch=6 n=g4 v=0
77760 On ch=6 n=g4 v=63
78240 On ch=6 n=g4 v=0
78240 On ch=6 n=g4 v=62
78720 On ch=6 n=g4 v=0
78720 On ch=6 n=g4 v=61
79200 On ch=6 n=g4 v=0
79200 On ch=6 n=g4 v=60
79680 On ch=6 n=g4 v=0
79680 On ch=6 n=g4 v=59
80160 On ch=6 n=g4 v=0
80160 On ch=6 n=g4 v=59
80640 On ch=6 n=g4 v=0
80640 On ch=6 n=g4 v=58
81120 On ch=6 n=g4 v=0
81120 On ch=6 n=g4 v=57
81600 On ch=6 n=g4 v=0
81600 On ch=6 n=g4 v=56
82080 On ch=6 n=g4 v=0
82080 On ch=6 n=g4 v=68
82080 On ch=6 n=b4 v=68
83520 On ch=6 n=b4 v=0
83520 On ch=6 n=g4 v=0
83520 On ch=6 n=f#3 v=72
83520 On ch=6 n=f#4 v=72
84960 On ch=6 n=f#4 v=0
84960 On ch=6 n=f#3 v=0
84960 On ch=6 n=g4 v=77
84960 On ch=6 n=g3 v=77
85920 On ch=6 n=g3 v=0
85920 On ch=6 n=g4 v=0
85920 On ch=6 n=a4 v=81
85920 On ch=6 n=a3 v=81
86112 On ch=6 n=a3 v=0
86112 On ch=6 n=a4 v=0
86160 On ch=6 n=b3 v=84
86160 On ch=6 n=b4 v=84
86352 On ch=6 n=b4 v=0
86352 On ch=6 n=b3 v=0
86400 On ch=6 n=c5 v=91
86400 On ch=6 n=c4 v=91
86592 On ch=6 n=c4 v=0
86592 On ch=6 n=c5 v=0
86880 On ch=6 n=c5 v=83
86880 On ch=6 n=c4 v=83
87072 On ch=6 n=c4 v=0
87072 On ch=6 n=c5 v=0
87360 On ch=6 n=c#4 v=75
87360 On ch=6 n=c#5 v=75
87552 On ch=6 n=c#5 v=0
87552 On ch=6 n=c#4 v=0
87840 Par ch=6 c=64 v=127
87840 On ch=6 n=d5 v=66
87840 On ch=6 n=d4 v=66
88080 On ch=6 n=d4 v=0
88080 On ch=6 n=d4 v=65
88318 On ch=6 n=d5 v=0
88320 On ch=6 n=d4 v=0
88320 On ch=6 n=f#4 v=65
88560 On ch=6 n=f#4 v=0
88560 On ch=6 n=a4 v=64
88800 On ch=6 n=a4 v=0
93540 Par ch=6 c=64 v=0
93600 Par ch=6 c=64 v=127
93600 On ch=6 n=b3 v=57
93840 On ch=6 n=b3 v=0
93840 On ch=6 n=d4 v=56
94080 On ch=6 n=d4 v=0
94080 On ch=6 n=f#4 v=56
94320 On ch=6 n=f#4 v=0
94320 On ch=6 n=b4 v=55
94560 On ch=6 n=b4 v=0
99300 Par ch=6 c=64 v=0
99360 Par ch=6 c=64 v=127
99360 On ch=6 n=g#3 v=48
99600 On ch=6 n=g#3 v=0
99600 On ch=6 n=b3 v=47
99840 On ch=6 n=b3 v=0
99840 On ch=6 n=d4 v=47
100080 On ch=6 n=d4 v=0
100080 On ch=6 n=e4 v=47
100320 On ch=6 n=e4 v=0
100320 On ch=6 n=g#4 v=46
100800 On ch=6 n=g#4 v=0
103680 Par ch=6 c=64 v=0
104160 On ch=6 n=b4 v=42
104160 On ch=6 n=g#4 v=42
104520 On ch=6 n=g#4 v=0
104520 On ch=6 n=b4 v=0
104640 On ch=6 n=b4 v=44
104640 On ch=6 n=d5 v=44
105000 On ch=6 n=d5 v=0
105000 On ch=6 n=b4 v=0
105120 On ch=6 n=a4 v=46
105120 On ch=6 n=c#5 v=46
105360 On ch=6 n=c#5 v=0
105360 On ch=6 n=d5 v=47
105600 On ch=6 n=d5 v=0
105600 On ch=6 n=a4 v=0
105600 On ch=6 n=e5 v=48
105840 On ch=6 n=e5 v=0
105840 On ch=6 n=f#5 v=49
106080 On ch=6 n=f#5 v=0
106080 On ch=6 n=g#5 v=50
106320 On ch=6 n=g#5 v=0
106320 On ch=6 n=a5 v=51
106560 On ch=6 n=a5 v=0
106560 On ch=6 n=g#5 v=52
106800 On ch=6 n=g#5 v=0
106800 On ch=6 n=f#5 v=53
107040 On ch=6 n=f#5 v=0
107040 On ch=6 n=e5 v=54
107280 On ch=6 n=e5 v=0
107280 On ch=6 n=d5 v=55
107520 On ch=6 n=d5 v=0
107520 On ch=6 n=c#5 v=56
107760 On ch=6 n=c#5 v=0
107760 On ch=6 n=b4 v=57
108000 On ch=6 n=b4 v=0
108000 On ch=6 n=a4 v=59
108240 On ch=6 n=a4 v=0
108240 On ch=6 n=g4 v=56
108480 On ch=6 n=g4 v=0
108480 On ch=6 n=f#4 v=53
108720 On ch=6 n=f#4 v=0
108720 On ch=6 n=e4 v=51
108960 On ch=6 n=e4 v=0
108960 On ch=6 n=d4 v=48
109200 On ch=6 n=d4 v=0
109200 On ch=6 n=c#4 v=46
109440 On ch=6 n=c#4 v=0
109440 On ch=6 n=d4 v=44
109680 On ch=6 n=d4 v=0
109680 On ch=6 n=e4 v=44
109920 On ch=6 n=e4 v=0
109920 On ch=6 n=f#4 v=45
110160 On ch=6 n=f#4 v=0
110160 On ch=6 n=g#4 v=45
110400 On ch=6 n=g#4 v=0
110400 On ch=6 n=a4 v=46
110640 On ch=6 n=a4 v=0
110640 On ch=6 n=b4 v=47
110880 On ch=6 n=b4 v=0
110880 On ch=6 n=c#5 v=47
110880 On ch=6 n=a4 v=47
111120 On ch=6 n=c#5 v=0
111120 On ch=6 n=d5 v=48
111360 On ch=6 n=d5 v=0
111360 On ch=6 n=a4 v=0
111360 On ch=6 n=e5 v=48
111600 On ch=6 n=e5 v=0
111600 On ch=6 n=f#5 v=49
111840 On ch=6 n=f#5 v=0
111840 On ch=6 n=g#5 v=50
112080 On ch=6 n=g#5 v=0
112080 On ch=6 n=a5 v=50
112320 On ch=6 n=a5 v=0
112320 On ch=6 n=g#5 v=51
112560 On ch=6 n=g#5 v=0
112560 On ch=6 n=f#5 v=51
112800 On ch=6 n=f#5 v=0
112800 On ch=6 n=e5 v=52
113040 On ch=6 n=e5 v=0
113040 On ch=6 n=d5 v=53
113280 On ch=6 n=d5 v=0
113280 On ch=6 n=c#5 v=53
113520 On ch=6 n=c#5 v=0
113520 On ch=6 n=b4 v=54
113760 On ch=6 n=b4 v=0
113760 On ch=6 n=a4 v=55
114000 On ch=6 n=a4 v=0
114000 On ch=6 n=g4 v=54
114240 On ch=6 n=g4 v=0
114240 On ch=6 n=f#4 v=53
114480 On ch=6 n=f#4 v=0
114480 On ch=6 n=e4 v=52
114720 On ch=6 n=e4 v=0
114720 On ch=6 n=d4 v=51
114960 On ch=6 n=d4 v=0
114960 On ch=6 n=c#4 v=49
115200 On ch=6 n=c#4 v=0
115200 On ch=6 n=d4 v=48
115440 On ch=6 n=d4 v=0
115440 On ch=6 n=e4 v=47
115680 On ch=6 n=e4 v=0
115680 On ch=6 n=f#4 v=46
115920 On ch=6 n=f#4 v=0
115920 On ch=6 n=g#4 v=45
116160 On ch=6 n=g#4 v=0
116160 On ch=6 n=a4 v=43
116400 On ch=6 n=a4 v=0
116400 On ch=6 n=b4 v=42
116640 On ch=6 n=b4 v=0
116640 On ch=6 n=a4 v=44
116640 On ch=6 n=c#5 v=44
116640 On ch=6 n=e5 v=44
118080 On ch=6 n=e5 v=0
118080 On ch=6 n=c#5 v=0
118080 On ch=6 n=b4 v=47
118080 On ch=6 n=d5 v=47
119520 On ch=6 n=d5 v=0
119520 On ch=6 n=b4 v=0
119520 On ch=6 n=a4 v=0
119520 On ch=6 n=a4 v=51
119520 On ch=6 n=g#5 v=51
119520 On ch=6 n=d5 v=51
120960 On ch=6 n=d5 v=0
120960 On ch=6 n=g#5 v=0
120960 On ch=6 n=e5 v=54
120960 On ch=6 n=c#5 v=54
122400 On ch=6 n=c#5 v=0
122400 On ch=6 n=e5 v=0
122400 On ch=6 n=a4 v=0
122400 On ch=6 n=a4 v=58
122400 On ch=6 n=e5 v=58
122400 On ch=6 n=g5 v=58
122400 On ch=6 n=c#5 v=58
123840 On ch=6 n=c#5 v=0
123840 On ch=6 n=g5 v=0
123840 On ch=6 n=e5 v=0
123840 On ch=6 n=a4 v=0
123840 On ch=6 n=a#4 v=61
123840 On ch=6 n=e5 v=61
123840 On ch=6 n=g5 v=61
123840 On ch=6 n=c#5 v=61
125280 On ch=6 n=c#5 v=0
125280 On ch=6 n=g5 v=0
125280 On ch=6 n=e5 v=0
125280 On ch=6 n=a#4 v=0
125280 On ch=6 n=a4 v=65
125280 On ch=6 n=c#5 v=65
125280 On ch=6 n=e5 v=65
125280 On ch=6 n=g5 v=65
126240 On ch=6 n=g5 v=0
126240 On ch=6 n=e5 v=0
126240 On ch=6 n=c#5 v=0
126240 On ch=6 n=a4 v=0
126240 On ch=6 n=g4 v=59
126240 On ch=6 n=e5 v=59
126240 On ch=6 n=c#5 v=59
126720 On ch=6 n=c#5 v=0
126720 On ch=6 n=e5 v=0
126720 On ch=6 n=g4 v=0
126720 On ch=6 n=f#4 v=58
126720 On ch=6 n=a4 v=58
126720 On ch=6 n=d5 v=58
127680 On ch=6 n=d5 v=0
127680 On ch=6 n=a4 v=0
127680 On ch=6 n=f#4 v=0
127680 On ch=6 n=d4 v=55
127680 On ch=6 n=a4 v=55
127680 On ch=6 n=d5 v=55
128160 On ch=6 n=d5 v=0
128160 On ch=6 n=a4 v=0
128160 On ch=6 n=d4 v=0
128160 On ch=6 n=a4 v=57
128160 On ch=6 n=e5 v=57
128160 On ch=6 n=g5 v=57
128160 On ch=6 n=c#5 v=57
129600 On ch=6 n=c#5 v=0
129600 On ch=6 n=g5 v=0
129600 On ch=6 n=e5 v=0
129600 On ch=6 n=a4 v=0
129600 On ch=6 n=a#4 v=62
129600 On ch=6 n=c#5 v=62
129600 On ch=6 n=e5 v=62
129600 On ch=6 n=g5 v=62
131040 On ch=6 n=g5 v=0
131040 On ch=6 n=e5 v=0
131040 On ch=6 n=c#5 v=0
131040 On ch=6 n=a#4 v=0
131040 On ch=6 n=a4 v=68
131040 On ch=6 n=e5 v=68
131040 On ch=6 n=g5 v=68
131040 On ch=6 n=c#5 v=68
132000 On ch=6 n=c#5 v=0
132000 On ch=6 n=g5 v=0
132000 On ch=6 n=e5 v=0
132000 On ch=6 n=a4 v=0
132000 On ch=6 n=g4 v=66
132000 On ch=6 n=c#5 v=66
132000 On ch=6 n=e5 v=66
132480 On ch=6 n=e5 v=0
132480 On ch=6 n=c#5 v=0
132480 On ch=6 n=g4 v=0
132480 On ch=6 n=f#4 v=65
132480 On ch=6 n=d5 v=65
132480 On ch=6 n=a4 v=65
133440 On ch=6 n=a4 v=0
133440 On ch=6 n=d5 v=0
133440 On ch=6 n=f#4 v=0
133440 On ch=6 n=d4 v=61
133440 On ch=6 n=a4 v=61
133440 On ch=6 n=d5 v=61
133920 On ch=6 n=d5 v=0
133920 On ch=6 n=a4 v=0
133920 On ch=6 n=d4 v=0
133920 On ch=6 n=b4 v=60
133920 On ch=6 n=d5 v=60
133920 On ch=6 n=g4 v=60
134400 On ch=6 n=g4 v=0
134400 On ch=6 n=d5 v=0
134400 On ch=6 n=b4 v=0
134880 On ch=6 n=b4 v=57
134880 On ch=6 n=g4 v=57
134880 On ch=6 n=e5 v=57
135360 On ch=6 n=e5 v=0
135360 On ch=6 n=g4 v=0
135360 On ch=6 n=b4 v=0
135360 On ch=6 n=a4 v=55
135360 On ch=6 n=f#5 v=55
135360 On ch=6 n=d5 v=55
135840 On ch=6 n=d5 v=0
135840 On ch=6 n=f#5 v=0
135840 On ch=6 n=a4 v=0
136320 On ch=6 n=a4 v=52
136320 On ch=6 n=c#5 v=52
136320 On ch=6 n=g5 v=52
136800 On ch=6 n=g5 v=0
136800 On ch=6 n=c#5 v=0
136800 On ch=6 n=a4 v=0
136800 On ch=6 n=d4 v=77
137240 On ch=6 n=d4 v=0
137280 On ch=6 n=d4 v=76
137720 On ch=6 n=d4 v=0
137760 On ch=6 n=d4 v=74
138200 On ch=6 n=d4 v=0
138240 On ch=6 n=d4 v=73
138680 On ch=6 n=d4 v=0
138720 On ch=6 n=d4 v=71
139160 On ch=6 n=d4 v=0
139200 On ch=6 n=d4 v=70
139640 On ch=6 n=d4 v=0
140160 On ch=6 n=d4 v=53
140352 On ch=6 n=d4 v=0
140640 On ch=6 n=b3 v=51
140832 On ch=6 n=b3 v=0
141600 On ch=6 n=c4 v=48
141792 On ch=6 n=c4 v=0
142080 On ch=6 n=a3 v=46
142272 On ch=6 n=a3 v=0
142560 Par ch=6 c=64 v=0
143040 On ch=6 n=b3 v=83
143040 On ch=6 n=b4 v=83
143232 On ch=6 n=b4 v=0
143232 On ch=6 n=b3 v=0
143520 On ch=6 n=g#3 v=81
143520 On ch=6 n=g#4 v=81
143712 On ch=6 n=g#4 v=0
143712 On ch=6 n=g#3 v=0
144480 On ch=6 n=a3 v=77
144480 On ch=6 n=a4 v=77
144672 On ch=6 n=a4 v=0
144672 On ch=6 n=a3 v=0
144960 On ch=6 n=f#3 v=75
144960 On ch=6 n=f#4 v=75
145152 On ch=6 n=f#4 v=0
145152 On ch=6 n=f#3 v=0
145440 On ch=6 n=e4 v=70
145920 On ch=6 n=e4 v=0
145920 On ch=6 n=e4 v=73
146400 On ch=6 n=e4 v=0
146400 On ch=6 n=e4 v=77
146880 On ch=6 n=e4 v=0
146880 On ch=6 n=e4 v=85
147360 On ch=6 n=e4 v=0
147360 On ch=6 n=e4 v=73
147840 On ch=6 n=e4 v=0
147840 On ch=6 n=e4 v=72
148320 On ch=6 n=e4 v=0
148320 On ch=6 n=e4 v=71
148800 On ch=6 n=e4 v=0
148800 On ch=6 n=e4 v=70
149280 On ch=6 n=e4 v=0
149280 On ch=6 n=e4 v=69
149760 On ch=6 n=e4 v=0
149760 On ch=6 n=e4 v=68
150240 On ch=6 n=e4 v=0
150240 On ch=6 n=e4 v=67
150720 On ch=6 n=e4 v=0
150720 On ch=6 n=e4 v=67
151200 On ch=6 n=e4 v=0
151200 On ch=6 n=e4 v=66
151680 On ch=6 n=e4 v=0
151680 On ch=6 n=e4 v=65
152160 On ch=6 n=e4 v=0
152160 On ch=6 n=e4 v=64
152640 On ch=6 n=e4 v=0
152640 On ch=6 n=e4 v=63
153120 On ch=6 n=e4 v=0
153120 On ch=6 n=e4 v=62
153600 On ch=6 n=e4 v=0
153600 On ch=6 n=e4 v=61
154080 On ch=6 n=e4 v=0
154080 On ch=6 n=e4 v=60
154560 On ch=6 n=e4 v=0
154560 On ch=6 n=e4 v=60
155040 On ch=6 n=e4 v=0
155040 On ch=6 n=e4 v=59
155520 On ch=6 n=e4 v=0
155520 On ch=6 n=e4 v=69
156000 On ch=6 n=b5 v=71
156192 On ch=6 n=b5 v=0
156480 On ch=6 n=g#5 v=64
156672 On ch=6 n=g#5 v=0
156960 On ch=6 n=e4 v=0
156960 On ch=6 n=e4 v=67
157440 On ch=6 n=b5 v=71
157632 On ch=6 n=b5 v=0
157920 On ch=6 n=g#5 v=63
158112 On ch=6 n=g#5 v=0
158400 On ch=6 n=e4 v=0
158400 On ch=6 n=e4 v=65
158880 On ch=6 n=b5 v=68
159072 On ch=6 n=b5 v=0
159360 On ch=6 n=g#5 v=61
159552 On ch=6 n=g#5 v=0
159840 On ch=6 n=e4 v=0
159840 On ch=6 n=b3 v=63
160320 On ch=6 n=a5 v=69
160512 On ch=6 n=a5 v=0
160800 On ch=6 n=f#5 v=59
160992 On ch=6 n=f#5 v=0
161280 On ch=6 n=b3 v=0
161280 On ch=6 n=b3 v=61
161760 On ch=6 n=a5 v=68
161952 On ch=6 n=a5 v=0
162240 On ch=6 n=f#5 v=57
162432 On ch=6 n=f#5 v=0
162720 On ch=6 n=b3 v=0
162720 On ch=6 n=b3 v=59
163200 On ch=6 n=a5 v=63
163392 On ch=6 n=a5 v=0
163680 On ch=6 n=f#5 v=55
163872 On ch=6 n=f#5 v=0
164160 On ch=6 n=b3 v=0
164160 On ch=6 n=b3 v=57
164640 On ch=6 n=a5 v=61
164832 On ch=6 n=a5 v=0
165120 On ch=6 n=f#5 v=54
165312 On ch=6 n=f#5 v=0
165600 On ch=6 n=b3 v=0
165600 On ch=6 n=e4 v=51
166080 On ch=6 n=g5 v=52
166272 On ch=6 n=g5 v=0
166560 On ch=6 n=g5 v=47
166752 On ch=6 n=g5 v=0
167040 On ch=6 n=e4 v=0
167040 On ch=6 n=c4 v=51
167520 On ch=6 n=g5 v=52
167712 On ch=6 n=g5 v=0
168000 On ch=6 n=e5 v=46
168192 On ch=6 n=e5 v=0
168480 On ch=6 n=c4 v=0
168480 On ch=6 n=c4 v=50
168960 On ch=6 n=g5 v=50
169152 On ch=6 n=g5 v=0
169440 On ch=6 n=e5 v=45
169632 On ch=6 n=e5 v=0
169920 On ch=6 n=c4 v=0
169920 On ch=6 n=c4 v=49
170400 On ch=6 n=g5 v=50
170592 On ch=6 n=g5 v=0
170880 On ch=6 n=e5 v=44
171072 On ch=6 n=e5 v=0
171360 On ch=6 n=c4 v=0
171360 On ch=6 n=g3 v=49
171840 On ch=6 n=f5 v=50
172032 On ch=6 n=f5 v=0
172320 On ch=6 n=d5 v=43
172512 On ch=6 n=d5 v=0
172800 On ch=6 n=g3 v=0
172800 On ch=6 n=g3 v=48
173280 On ch=6 n=f5 v=51
173472 On ch=6 n=f5 v=0
173760 On ch=6 n=d5 v=42
173952 On ch=6 n=d5 v=0
174240 On ch=6 n=g3 v=0
174240 On ch=6 n=g3 v=47
174720 On ch=6 n=f5 v=49
174912 On ch=6 n=f5 v=0
175200 On ch=6 n=d5 v=41
175392 On ch=6 n=d5 v=0
175680 On ch=6 n=g3 v=0
175680 On ch=6 n=g3 v=46
176160 On ch=6 n=f5 v=48
176352 On ch=6 n=f5 v=0
176640 On ch=6 n=d5 v=41
176832 On ch=6 n=d5 v=0
177120 On ch=6 n=g3 v=0
177120 On ch=6 n=c4 v=46
177600 On ch=6 n=e5 v=46
177792 On ch=6 n=e5 v=0
178080 On ch=6 n=e5 v=40
178272 On ch=6 n=e5 v=0
178560 On ch=6 n=c4 v=0
178560 On ch=6 n=c4 v=68
178560 On ch=6 n=c3 v=68
180000 On ch=6 n=c3 v=0
180000 On ch=6 n=c4 v=0
180000 On ch=6 n=b2 v=73
180000 On ch=6 n=b3 v=73
181440 On ch=6 n=b3 v=0
181440 On ch=6 n=b2 v=0
181440 On ch=6 n=c4 v=77
181440 On ch=6 n=c3 v=77
182400 On ch=6 n=c3 v=0
182400 On ch=6 n=c4 v=0
182400 On ch=6 n=a3 v=81
182640 On ch=6 n=a3 v=0
182640 On ch=6 n=e3 v=84
182880 On ch=6 n=e3 v=0
182880 On ch=6 n=f3 v=90
183072 On ch=6 n=f3 v=0
183360 On ch=6 n=f3 v=83
183552 On ch=6 n=f3 v=0
183840 On ch=6 n=f#3 v=77
184032 On ch=6 n=f#3 v=0
184320 On ch=6 n=g3 v=72
184800 On ch=6 n=g3 v=0
185280 On ch=6 n=f5 v=47
185520 On ch=6 n=f5 v=0
185520 On ch=6 n=g5 v=50
185760 On ch=6 n=g5 v=0
185760 On ch=6 n=a5 v=54
186000 On ch=6 n=a5 v=0
186000 On ch=6 n=g5 v=52
186240 On ch=6 n=g5 v=0
186240 On ch=6 n=f5 v=50
186480 On ch=6 n=f5 v=0
186480 On ch=6 n=e5 v=48
186720 On ch=6 n=e5 v=0
186720 On ch=6 n=d5 v=46
186960 On ch=6 n=d5 v=0
186960 On ch=6 n=c5 v=44
187200 On ch=6 n=c5 v=0
187200 On ch=6 n=b4 v=42
187680 On ch=6 n=b4 v=0
188160 On ch=6 n=f4 v=47
188400 On ch=6 n=f4 v=0
188400 On ch=6 n=g4 v=51
188640 On ch=6 n=g4 v=0
188640 On ch=6 n=g#4 v=56
188880 On ch=6 n=g#4 v=0
188880 On ch=6 n=g4 v=60
189120 On ch=6 n=g4 v=0
189120 On ch=6 n=f4 v=64
189360 On ch=6 n=f4 v=0
189360 On ch=6 n=d#4 v=68
189600 On ch=6 n=d#4 v=0
189600 On ch=6 n=d4 v=72
189840 On ch=6 n=d4 v=0
189840 On ch=6 n=g4 v=77
190080 On ch=6 n=g4 v=0
190080 On ch=6 n=c4 v=81
190560 On ch=6 n=g5 v=86
190740 On ch=6 n=g5 v=0
191040 On ch=6 n=d#5 v=79
191220 On ch=6 n=d#5 v=0
191520 On ch=6 n=c4 v=0
191520 On ch=6 n=c4 v=80
192000 On ch=6 n=g5 v=86
192180 On ch=6 n=g5 v=0
192480 On ch=6 n=d#5 v=78
192660 On ch=6 n=d#5 v=0
192960 On ch=6 n=c4 v=0
192960 On ch=6 n=c4 v=79
193440 On ch=6 n=g5 v=85
193620 On ch=6 n=g5 v=0
193920 On ch=6 n=d#5 v=76
194100 On ch=6 n=d#5 v=0
194400 On ch=6 n=c4 v=0
194400 On ch=6 n=g3 v=78
194880 On ch=6 n=f5 v=84
195060 On ch=6 n=f5 v=0
195360 On ch=6 n=d5 v=75
195540 On ch=6 n=d5 v=0
195840 On ch=6 n=g3 v=0
195840 On ch=6 n=g3 v=76
196320 On ch=6 n=f5 v=82
196500 On ch=6 n=f5 v=0
196800 On ch=6 n=d5 v=74
196980 On ch=6 n=d5 v=0
197280 On ch=6 n=g3 v=0
197280 On ch=6 n=g3 v=75
197760 On ch=6 n=f5 v=80
197940 On ch=6 n=f5 v=0
198240 On ch=6 n=d5 v=73
198420 On ch=6 n=d5 v=0
198720 On ch=6 n=g3 v=0
198720 On ch=6 n=g3 v=74
199200 On ch=6 n=f5 v=80
199380 On ch=6 n=f5 v=0
199680 On ch=6 n=d5 v=72
199860 On ch=6 n=d5 v=0
200160 On ch=6 n=g3 v=0
200160 On ch=6 n=c4 v=57
200640 On ch=6 n=d#5 v=65
200820 On ch=6 n=d#5 v=0
201120 On ch=6 n=f5 v=59
201300 On ch=6 n=f5 v=0
201600 On ch=6 n=c4 v=0
201600 On ch=6 n=d#4 v=57
202080 On ch=6 n=a#5 v=64
202260 On ch=6 n=a#5 v=0
202560 On ch=6 n=g5 v=54
202740 On ch=6 n=g5 v=0
203040 On ch=6 n=d#4 v=0
203040 On ch=6 n=d#4 v=56
203520 On ch=6 n=a#5 v=60
203700 On ch=6 n=a#5 v=0
204000 On ch=6 n=g5 v=53
204180 On ch=6 n=g5 v=0
204480 On ch=6 n=d#4 v=0
204480 On ch=6 n=d#4 v=55
204960 On ch=6 n=a#5 v=60
205140 On ch=6 n=a#5 v=0
205440 On ch=6 n=g5 v=52
205620 On ch=6 n=g5 v=0
205920 On ch=6 n=d#4 v=0
205920 On ch=6 n=a#3 v=54
206400 On ch=6 n=g#5 v=58
206580 On ch=6 n=g#5 v=0
206880 On ch=6 n=f5 v=51
207060 On ch=6 n=f5 v=0
207360 On ch=6 n=a#3 v=0
207360 On ch=6 n=a#3 v=53
207840 On ch=6 n=g#5 v=58
208020 On ch=6 n=g#5 v=0
208320 On ch=6 n=f5 v=50
208500 On ch=6 n=f5 v=0
208800 On ch=6 n=a#3 v=0
208800 On ch=6 n=a#3 v=52
209280 On ch=6 n=g#5 v=57
209460 On ch=6 n=g#5 v=0
209760 On ch=6 n=f5 v=49
209940 On ch=6 n=f5 v=0
210240 On ch=6 n=a#3 v=0
210240 On ch=6 n=a#3 v=51
210720 On ch=6 n=g#5 v=56
210900 On ch=6 n=g#5 v=0
211200 On ch=6 n=f5 v=49
211380 On ch=6 n=f5 v=0
211680 On ch=6 n=a#3 v=0
211680 On ch=6 n=d#4 v=50
212160 On ch=6 n=g5 v=53
212340 On ch=6 n=g5 v=0
212640 On ch=6 n=g5 v=48
212820 On ch=6 n=g5 v=0
213120 On ch=6 n=d#4 v=0
213120 On ch=6 n=d#4 v=70
213120 On ch=6 n=d#3 v=70
214560 On ch=6 n=d#3 v=0
214560 On ch=6 n=d#4 v=0
214560 On ch=6 n=d3 v=75
214560 On ch=6 n=d4 v=75
216000 On ch=6 n=d4 v=0
216000 On ch=6 n=d3 v=0
216000 On ch=6 n=d#3 v=79
216000 On ch=6 n=d#4 v=79
216960 On ch=6 n=d#4 v=0
216960 On ch=6 n=d#3 v=0
216960 On ch=6 n=c4 v=83
217200 On ch=6 n=c4 v=0
217200 On ch=6 n=g3 v=88
217440 On ch=6 n=g3 v=0
217440 On ch=6 n=g#3 v=94
217632 On ch=6 n=g#3 v=0
217920 On ch=6 n=g#3 v=88
218112 On ch=6 n=g#3 v=0
218400 On ch=6 n=a3 v=82
218592 On ch=6 n=a3 v=0
218880 On ch=6 n=a#3 v=75
219360 On ch=6 n=a#3 v=0
219840 On ch=6 n=c6 v=48
220080 On ch=6 n=c6 v=0
220080 On ch=6 n=a#5 v=50
220320 On ch=6 n=a#5 v=0
220320 On ch=6 n=g#5 v=53
220512 On ch=6 n=g#5 v=0
220800 On ch=6 n=g#5 v=51
220992 On ch=6 n=g#5 v=0
221280 On ch=6 n=a5 v=48
221472 On ch=6 n=a5 v=0
221760 On ch=6 n=a#5 v=45
222240 On ch=6 n=a#5 v=0
222720 On ch=6 n=c4 v=67
222960 On ch=6 n=c4 v=0
222960 On ch=6 n=d4 v=69
223200 On ch=6 n=d4 v=0
223200 On ch=6 n=d#4 v=75
223440 On ch=6 n=d#4 v=0
223440 On ch=6 n=d4 v=73
223680 On ch=6 n=d4 v=0
223680 On ch=6 n=c4 v=72
223920 On ch=6 n=c4 v=0
223920 On ch=6 n=a#3 v=70
224160 On ch=6 n=a#3 v=0
224160 On ch=6 n=a3 v=69
224400 On ch=6 n=a3 v=0
224400 On ch=6 n=g3 v=67
224640 On ch=6 n=g3 v=0
224640 On ch=6 n=f#3 v=65
225120 On ch=6 n=f#3 v=0
225600 On ch=6 n=c6 v=48
225840 On ch=6 n=c6 v=0
225840 On ch=6 n=d6 v=50
226080 On ch=6 n=d6 v=0
226080 On ch=6 n=d#6 v=51
226320 On ch=6 n=d#6 v=0
226320 On ch=6 n=d6 v=53
226560 On ch=6 n=d6 v=0
226560 On ch=6 n=c6 v=54
226800 On ch=6 n=c6 v=0
226800 On ch=6 n=a#5 v=56
227040 On ch=6 n=a#5 v=0
227040 On ch=6 n=a5 v=58
227280 On ch=6 n=a5 v=0
227280 On ch=6 n=g5 v=59
227520 On ch=6 n=g5 v=0
227520 On ch=6 n=f#5 v=61
227760 On ch=6 n=f#5 v=0
227760 On ch=6 n=d#5 v=63
228000 On ch=6 n=d#5 v=0
228000 On ch=6 n=d5 v=64
228240 On ch=6 n=d5 v=0
228240 On ch=6 n=c5 v=66
228480 On ch=6 n=c5 v=0
228480 On ch=6 n=a#4 v=68
228720 On ch=6 n=a#4 v=0
228720 On ch=6 n=a4 v=69
228960 On ch=6 n=a4 v=0
228960 On ch=6 n=g4 v=77
229152 On ch=6 n=g4 v=0
229440 On ch=6 n=d#4 v=76
229632 On ch=6 n=d#4 v=0
229920 On ch=6 n=c#4 v=75
230112 On ch=6 n=c#4 v=0
230400 On ch=6 n=d4 v=77
230880 On ch=6 n=a5 v=73
231072 On ch=6 n=a5 v=0
231360 On ch=6 n=f#5 v=72
231552 On ch=6 n=f#5 v=0
231840 On ch=6 n=d4 v=0
231840 On ch=6 n=d4 v=74
232320 On ch=6 n=a5 v=70
232512 On ch=6 n=a5 v=0
232800 On ch=6 n=f#5 v=69
232992 On ch=6 n=f#5 v=0
233280 On ch=6 n=d4 v=0
233280 On ch=6 n=d4 v=71
233760 On ch=6 n=a5 v=67
233952 On ch=6 n=a5 v=0
234240 On ch=6 n=f#5 v=66
234432 On ch=6 n=f#5 v=0
234720 On ch=6 n=d4 v=0
234720 On ch=6 n=a3 v=68
235200 On ch=6 n=g5 v=64
235392 On ch=6 n=g5 v=0
235680 On ch=6 n=e5 v=63
235872 On ch=6 n=e5 v=0
236160 On ch=6 n=a3 v=0
236160 On ch=6 n=a3 v=65
236640 On ch=6 n=g5 v=61
236832 On ch=6 n=g5 v=0
237120 On ch=6 n=e5 v=59
237312 On ch=6 n=e5 v=0
237600 On ch=6 n=a3 v=0
237600 On ch=6 n=a3 v=62
238080 On ch=6 n=g5 v=57
238272 On ch=6 n=g5 v=0
238560 On ch=6 n=e5 v=56
238752 On ch=6 n=e5 v=0
239040 On ch=6 n=a3 v=0
239040 On ch=6 n=a3 v=59
239520 On ch=6 n=g5 v=54
239712 On ch=6 n=g5 v=0
240000 On ch=6 n=e5 v=53
240192 On ch=6 n=e5 v=0
240480 On ch=6 n=a3 v=0
240480 On ch=6 n=d4 v=56
240960 On ch=6 n=f#5 v=51
241152 On ch=6 n=f#5 v=0
241440 On ch=6 n=d5 v=50
241632 On ch=6 n=d5 v=0
241920 On ch=6 n=d4 v=0
241920 On ch=6 n=f#4 v=53
242112 On ch=6 n=f#4 v=0
242400 On ch=6 n=d4 v=55
242592 On ch=6 n=d4 v=0
242880 On ch=6 n=f#3 v=58
243072 On ch=6 n=f#3 v=0
243360 On ch=6 n=d3 v=60
243552 On ch=6 n=d3 v=0
243840 On ch=6 n=f#4 v=63
244032 On ch=6 n=f#4 v=0
244320 On ch=6 n=d4 v=65
244512 On ch=6 n=d4 v=0
244800 On ch=6 n=f#3 v=68
244992 On ch=6 n=f#3 v=0
245280 On ch=6 n=d3 v=70
245472 On ch=6 n=d3 v=0
245760 On ch=6 n=f#4 v=73
245952 On ch=6 n=f#4 v=0
246240 On ch=6 n=d4 v=75
246432 On ch=6 n=d4 v=0
246720 On ch=6 n=f#3 v=77
246912 On ch=6 n=f#3 v=0
247200 On ch=6 n=d3 v=80
247392 On ch=6 n=d3 v=0
247680 On ch=6 n=g3 v=90
248160 On ch=6 n=g4 v=78
248640 On ch=6 n=g4 v=0
248640 On ch=6 n=g4 v=82
249120 On ch=6 n=g4 v=0
249120 On ch=6 n=g4 v=86
249600 On ch=6 n=g4 v=0
249600 On ch=6 n=g4 v=81
250080 On ch=6 n=g4 v=0
250080 On ch=6 n=g4 v=80
250560 On ch=6 n=g4 v=0
250560 On ch=6 n=g4 v=79
251040 On ch=6 n=g4 v=0
251040 On ch=6 n=g4 v=78
251520 On ch=6 n=g4 v=0
251520 On ch=6 n=g4 v=78
251968 On ch=6 n=g3 v=0
252000 On ch=6 n=g4 v=0
252000 On ch=6 n=g4 v=77
252480 On ch=6 n=g4 v=0
252480 On ch=6 n=g4 v=76
252960 On ch=6 n=g4 v=0
252960 On ch=6 n=g4 v=75
253440 On ch=6 n=g4 v=0
253440 On ch=6 n=g4 v=74
253920 On ch=6 n=g4 v=0
253920 On ch=6 n=g4 v=74
254400 On ch=6 n=g4 v=0
254400 On ch=6 n=g4 v=73
254880 On ch=6 n=g4 v=0
254880 On ch=6 n=g4 v=72
255360 On ch=6 n=g4 v=0
255360 On ch=6 n=g4 v=71
255840 On ch=6 n=g4 v=0
255840 On ch=6 n=g4 v=71
256320 On ch=6 n=g4 v=0
256320 On ch=6 n=g4 v=70
256800 On ch=6 n=g4 v=0
256800 On ch=6 n=g4 v=69
257280 On ch=6 n=g4 v=0
257280 On ch=6 n=g4 v=68
257760 On ch=6 n=g4 v=0
257760 On ch=6 n=g4 v=76
257760 On ch=6 n=b4 v=76
259200 On ch=6 n=b4 v=0
259200 On ch=6 n=g4 v=0
259200 On ch=6 n=a4 v=78
259200 On ch=6 n=f#4 v=78
260640 On ch=6 n=f#4 v=0
260640 On ch=6 n=a4 v=0
260640 On ch=6 n=g4 v=80
260640 On ch=6 n=b4 v=80
262080 On ch=6 n=b4 v=0
262080 On ch=6 n=g4 v=0
262080 On ch=6 n=c5 v=82
262080 On ch=6 n=a4 v=82
263520 On ch=6 n=a4 v=0
263520 On ch=6 n=c5 v=0
263520 Par ch=6 c=64 v=0
263520 On ch=6 n=b3 v=57
263580 Par ch=6 c=64 v=127
263760 On ch=6 n=b3 v=0
263760 On ch=6 n=d4 v=57
264000 On ch=6 n=d4 v=0
264000 On ch=6 n=g4 v=56
264240 On ch=6 n=g4 v=0
264240 On ch=6 n=b4 v=56
264480 On ch=6 n=b4 v=0
269280 Par ch=6 c=64 v=0
269280 On ch=6 n=c4 v=53
269340 Par ch=6 c=64 v=127
269520 On ch=6 n=c4 v=0
269520 On ch=6 n=e4 v=53
269760 On ch=6 n=e4 v=0
269760 On ch=6 n=g4 v=53
270000 On ch=6 n=g4 v=0
270000 On ch=6 n=c5 v=53
270240 On ch=6 n=c5 v=0
275040 Par ch=6 c=64 v=0
275040 On ch=6 n=a3 v=49
275100 Par ch=6 c=64 v=127
275280 On ch=6 n=a3 v=0
275280 On ch=6 n=c#4 v=49
275520 On ch=6 n=c#4 v=0
275520 On ch=6 n=e4 v=49
275760 On ch=6 n=e4 v=0
275760 On ch=6 n=g4 v=49
276000 On ch=6 n=g4 v=0
279840 Par ch=6 c=64 v=0
279840 On ch=6 n=c#5 v=50
279840 On ch=6 n=e5 v=50
280200 On ch=6 n=e5 v=0
280200 On ch=6 n=c#5 v=0
280320 On ch=6 n=e5 v=51
280320 On ch=6 n=g5 v=51
280680 On ch=6 n=g5 v=0
280680 On ch=6 n=e5 v=0
280800 On ch=6 n=f#5 v=52
280800 On ch=6 n=d5 v=52
281040 On ch=6 n=f#5 v=0
281040 On ch=6 n=g5 v=53
281280 On ch=6 n=g5 v=0
281280 On ch=6 n=d5 v=0
281280 On ch=6 n=a5 v=54
281520 On ch=6 n=a5 v=0
281520 On ch=6 n=b5 v=55
281760 On ch=6 n=b5 v=0
281760 On ch=6 n=c#6 v=55
282000 On ch=6 n=c#6 v=0
282000 On ch=6 n=d6 v=56
282240 On ch=6 n=d6 v=0
282240 On ch=6 n=c#6 v=57
282480 On ch=6 n=c#6 v=0
282480 On ch=6 n=b5 v=58
282720 On ch=6 n=b5 v=0
282720 On ch=6 n=a5 v=59
282960 On ch=6 n=a5 v=0
282960 On ch=6 n=g5 v=60
283200 On ch=6 n=g5 v=0
283200 On ch=6 n=f#5 v=61
283440 On ch=6 n=f#5 v=0
283440 On ch=6 n=e5 v=62
283680 On ch=6 n=e5 v=0
283680 On ch=6 n=d5 v=67
283920 On ch=6 n=d5 v=0
283920 On ch=6 n=c5 v=64
284160 On ch=6 n=c5 v=0
284160 On ch=6 n=b4 v=60
284400 On ch=6 n=b4 v=0
284400 On ch=6 n=a4 v=57
284640 On ch=6 n=a4 v=0
284640 On ch=6 n=g4 v=54
284880 On ch=6 n=g4 v=0
284880 On ch=6 n=f#4 v=51
285120 On ch=6 n=f#4 v=0
285120 On ch=6 n=g4 v=46
285360 On ch=6 n=g4 v=0
285360 On ch=6 n=a4 v=46
285600 On ch=6 n=a4 v=0
285600 On ch=6 n=b4 v=47
285840 On ch=6 n=b4 v=0
285840 On ch=6 n=c#5 v=48
286080 On ch=6 n=c#5 v=0
286080 On ch=6 n=d5 v=49
286320 On ch=6 n=d5 v=0
286320 On ch=6 n=e5 v=49
286560 On ch=6 n=e5 v=0
286560 On ch=6 n=f#5 v=50
286560 On ch=6 n=d5 v=50
286800 On ch=6 n=f#5 v=0
286800 On ch=6 n=g5 v=51
287040 On ch=6 n=g5 v=0
287040 On ch=6 n=d5 v=0
287040 On ch=6 n=a5 v=52
287280 On ch=6 n=a5 v=0
287280 On ch=6 n=b5 v=52
287520 On ch=6 n=b5 v=0
287520 On ch=6 n=c#6 v=53
287760 On ch=6 n=c#6 v=0
287760 On ch=6 n=d6 v=54
288000 On ch=6 n=d6 v=0
288000 On ch=6 n=c#6 v=55
288240 On ch=6 n=c#6 v=0
288240 On ch=6 n=b5 v=55
288480 On ch=6 n=b5 v=0
288480 On ch=6 n=a5 v=56
288720 On ch=6 n=a5 v=0
288720 On ch=6 n=g5 v=57
288960 On ch=6 n=g5 v=0
288960 On ch=6 n=f#5 v=57
289200 On ch=6 n=f#5 v=0
289200 On ch=6 n=e5 v=58
289440 On ch=6 n=e5 v=0
289440 On ch=6 n=d5 v=59
289680 On ch=6 n=d5 v=0
289680 On ch=6 n=c5 v=58
289920 On ch=6 n=c5 v=0
289920 On ch=6 n=b4 v=57
290160 On ch=6 n=b4 v=0
290160 On ch=6 n=a4 v=56
290400 On ch=6 n=a4 v=0
290400 On ch=6 n=g4 v=55
290640 On ch=6 n=g4 v=0
290640 On ch=6 n=f#4 v=54
290880 On ch=6 n=f#4 v=0
290880 On ch=6 n=g4 v=53
291120 On ch=6 n=g4 v=0
291120 On ch=6 n=a4 v=52
291360 On ch=6 n=a4 v=0
291360 On ch=6 n=b4 v=51
291600 On ch=6 n=b4 v=0
291600 On ch=6 n=c#5 v=50
291840 On ch=6 n=c#5 v=0
291840 On ch=6 n=d5 v=49
292080 On ch=6 n=d5 v=0
292080 On ch=6 n=e5 v=48
292320 On ch=6 n=e5 v=0
292320 On ch=6 n=d5 v=44
292320 On ch=6 n=a5 v=44
292320 On ch=6 n=f#5 v=44
293760 On ch=6 n=f#5 v=0
293760 On ch=6 n=a5 v=0
293760 On ch=6 n=e5 v=47
293760 On ch=6 n=g5 v=47
295200 On ch=6 n=g5 v=0
295200 On ch=6 n=e5 v=0
295200 On ch=6 n=d5 v=0
295200 On ch=6 n=d5 v=50
295200 On ch=6 n=g5 v=50
295200 On ch=6 n=c#6 v=50
296640 On ch=6 n=c#6 v=0
296640 On ch=6 n=g5 v=0
296640 On ch=6 n=f#5 v=53
296640 On ch=6 n=a5 v=53
298080 On ch=6 n=a5 v=0
298080 On ch=6 n=f#5 v=0
298080 On ch=6 n=d5 v=0
298080 On ch=6 n=a5 v=60
298080 On ch=6 n=c6 v=60
298080 On ch=6 n=f#5 v=60
298080 On ch=6 n=d5 v=60
299520 On ch=6 n=d5 v=0
299520 On ch=6 n=f#5 v=0
299520 On ch=6 n=c6 v=0
299520 On ch=6 n=a5 v=0
299520 On ch=6 n=a5 v=66
299520 On ch=6 n=f#5 v=66
299520 On ch=6 n=c6 v=66
299520 On ch=6 n=d#5 v=66
300960 On ch=6 n=d#5 v=0
300960 On ch=6 n=c6 v=0
300960 On ch=6 n=f#5 v=0
300960 On ch=6 n=a5 v=0
300960 On ch=6 n=a5 v=65
300960 On ch=6 n=c6 v=65
300960 On ch=6 n=f#5 v=65
300960 On ch=6 n=d5 v=65
301920 On ch=6 n=d5 v=0
301920 On ch=6 n=f#5 v=0
301920 On ch=6 n=c6 v=0
301920 On ch=6 n=a5 v=0
301920 On ch=6 n=c5 v=61
301920 On ch=6 n=a5 v=61
301920 On ch=6 n=f#5 v=61
302400 On ch=6 n=f#5 v=0
302400 On ch=6 n=a5 v=0
302400 On ch=6 n=c5 v=0
302400 On ch=6 n=b4 v=59
302400 On ch=6 n=g5 v=59
302400 On ch=6 n=d5 v=59
303360 On ch=6 n=d5 v=0
303360 On ch=6 n=g5 v=0
303360 On ch=6 n=b4 v=0
303360 On ch=6 n=g4 v=55
303360 On ch=6 n=g5 v=55
303360 On ch=6 n=d5 v=55
303840 On ch=6 n=d5 v=0
303840 On ch=6 n=g5 v=0
303840 On ch=6 n=g4 v=0
303840 On ch=6 n=a5 v=58
303840 On ch=6 n=d5 v=58
303840 On ch=6 n=c6 v=58
303840 On ch=6 n=f#5 v=58
305280 On ch=6 n=f#5 v=0
305280 On ch=6 n=c6 v=0
305280 On ch=6 n=d5 v=0
305280 On ch=6 n=a5 v=0
305280 On ch=6 n=c6 v=64
305280 On ch=6 n=a5 v=64
305280 On ch=6 n=f#5 v=64
305280 On ch=6 n=d#5 v=64
306720 On ch=6 n=d#5 v=0
306720 On ch=6 n=f#5 v=0
306720 On ch=6 n=a5 v=0
306720 On ch=6 n=c6 v=0
306720 On ch=6 n=f#5 v=61
306720 On ch=6 n=a5 v=61
306720 On ch=6 n=c6 v=61
306720 On ch=6 n=d5 v=61
307680 On ch=6 n=d5 v=0
307680 On ch=6 n=c6 v=0
307680 On ch=6 n=a5 v=0
307680 On ch=6 n=f#5 v=0
307680 On ch=6 n=a5 v=59
307680 On ch=6 n=f#5 v=59
307680 On ch=6 n=c5 v=59
308160 On ch=6 n=c5 v=0
308160 On ch=6 n=f#5 v=0
308160 On ch=6 n=a5 v=0
308160 On ch=6 n=d5 v=58
308160 On ch=6 n=g5 v=58
308160 On ch=6 n=b4 v=58
309120 On ch=6 n=b4 v=0
309120 On ch=6 n=g5 v=0
309120 On ch=6 n=d5 v=0
309120 On ch=6 n=g5 v=56
309120 On ch=6 n=g4 v=56
309120 On ch=6 n=d5 v=56
309600 On ch=6 n=d5 v=0
309600 On ch=6 n=g4 v=0
309600 On ch=6 n=g5 v=0
309600 On ch=6 n=c5 v=55
309600 On ch=6 n=g5 v=55
309600 On ch=6 n=e5 v=55
310080 On ch=6 n=e5 v=0
310080 On ch=6 n=g5 v=0
310080 On ch=6 n=c5 v=0
310560 On ch=6 n=c5 v=53
310560 On ch=6 n=a5 v=53
310560 On ch=6 n=e5 v=53
311040 On ch=6 n=e5 v=0
311040 On ch=6 n=a5 v=0
311040 On ch=6 n=c5 v=0
311040 On ch=6 n=g5 v=52
311040 On ch=6 n=b5 v=52
311040 On ch=6 n=d5 v=52
311520 On ch=6 n=d5 v=0
311520 On ch=6 n=b5 v=0
311520 On ch=6 n=g5 v=0
312000 On ch=6 n=c6 v=50
312000 On ch=6 n=d5 v=50
312000 On ch=6 n=f#5 v=50
312480 On ch=6 n=f#5 v=0
312480 On ch=6 n=d5 v=0
312480 On ch=6 n=c6 v=0
312480 On ch=6 n=g4 v=77
312960 On ch=6 n=g4 v=0
312960 On ch=6 n=g4 v=76
313440 On ch=6 n=g4 v=0
313440 On ch=6 n=g4 v=74
313920 On ch=6 n=g4 v=0
313920 On ch=6 n=g4 v=72
314400 On ch=6 n=g4 v=0
314400 On ch=6 n=g4 v=70
314880 On ch=6 n=g4 v=0
314880 On ch=6 n=g4 v=69
315360 On ch=6 n=g4 v=0
315360 On ch=6 n=b3 v=47
315840 On ch=6 n=b3 v=0
315840 On ch=6 n=b3 v=46
316320 On ch=6 n=b3 v=0
316320 On ch=6 n=b3 v=45
316800 On ch=6 n=b3 v=0
316800 On ch=6 n=a3 v=43
317280 On ch=6 n=a3 v=0
317280 On ch=6 n=a3 v=42
317760 On ch=6 n=a3 v=0
317760 On ch=6 n=d3 v=41
318240 On ch=6 n=d3 v=0
318240 Par ch=6 c=64 v=0
318720 On ch=6 n=b4 v=83
318720 On ch=6 n=b3 v=83
318912 On ch=6 n=b3 v=0
318912 On ch=6 n=b4 v=0
319200 On ch=6 n=g#4 v=81
319200 On ch=6 n=g#3 v=81
319392 On ch=6 n=g#3 v=0
319392 On ch=6 n=g#4 v=0
320160 On ch=6 n=a4 v=77
320160 On ch=6 n=a3 v=77
320352 On ch=6 n=a3 v=0
320352 On ch=6 n=a4 v=0
320640 On ch=6 n=f#4 v=75
320640 On ch=6 n=f#3 v=75
320832 On ch=6 n=f#3 v=0
320832 On ch=6 n=f#4 v=0
321120 On ch=6 n=e4 v=70
321600 On ch=6 n=e4 v=0
321600 On ch=6 n=e4 v=73
322080 On ch=6 n=e4 v=0
322080 On ch=6 n=e4 v=77
322560 On ch=6 n=e4 v=0
322560 On ch=6 n=e4 v=85
323040 On ch=6 n=e4 v=0
323040 On ch=6 n=e4 v=73
323520 On ch=6 n=e4 v=0
323520 On ch=6 n=e4 v=72
324000 On ch=6 n=e4 v=0
324000 On ch=6 n=e4 v=71
324480 On ch=6 n=e4 v=0
324480 On ch=6 n=e4 v=70
324960 On ch=6 n=e4 v=0
324960 On ch=6 n=e4 v=69
325440 On ch=6 n=e4 v=0
325440 On ch=6 n=e4 v=68
325920 On ch=6 n=e4 v=0
325920 On ch=6 n=e4 v=67
326400 On ch=6 n=e4 v=0
326400 On ch=6 n=e4 v=67
326880 On ch=6 n=e4 v=0
326880 On ch=6 n=e4 v=66
327360 On ch=6 n=e4 v=0
327360 On ch=6 n=e4 v=65
327840 On ch=6 n=e4 v=0
327840 On ch=6 n=e4 v=64
328320 On ch=6 n=e4 v=0
328320 On ch=6 n=e4 v=63
328800 On ch=6 n=e4 v=0
328800 On ch=6 n=e4 v=62
329280 On ch=6 n=e4 v=0
329280 On ch=6 n=e4 v=61
329760 On ch=6 n=e4 v=0
329760 On ch=6 n=e4 v=60
330240 On ch=6 n=e4 v=0
330240 On ch=6 n=e4 v=60
330720 On ch=6 n=e4 v=0
330720 On ch=6 n=e4 v=59
331200 On ch=6 n=e4 v=0
331200 On ch=6 n=e4 v=69
331680 On ch=6 n=b5 v=71
331872 On ch=6 n=b5 v=0
332160 On ch=6 n=g#5 v=64
332352 On ch=6 n=g#5 v=0
332640 On ch=6 n=e4 v=0
332640 On ch=6 n=e4 v=67
333120 On ch=6 n=b5 v=71
333312 On ch=6 n=b5 v=0
333600 On ch=6 n=g#5 v=63
333792 On ch=6 n=g#5 v=0
334080 On ch=6 n=e4 v=0
334080 On ch=6 n=e4 v=65
334560 On ch=6 n=b5 v=68
334752 On ch=6 n=b5 v=0
335040 On ch=6 n=g#5 v=61
335232 On ch=6 n=g#5 v=0
335520 On ch=6 n=e4 v=0
335520 On ch=6 n=b3 v=63
336000 On ch=6 n=a5 v=69
336192 On ch=6 n=a5 v=0
336480 On ch=6 n=f#5 v=59
336672 On ch=6 n=f#5 v=0
336960 On ch=6 n=b3 v=0
336960 On ch=6 n=b3 v=61
337440 On ch=6 n=a5 v=68
337632 On ch=6 n=a5 v=0
337920 On ch=6 n=f#5 v=57
338112 On ch=6 n=f#5 v=0
338400 On ch=6 n=b3 v=0
338400 On ch=6 n=b3 v=59
338880 On ch=6 n=a5 v=63
339072 On ch=6 n=a5 v=0
339360 On ch=6 n=f#5 v=55
339552 On ch=6 n=f#5 v=0
339840 On ch=6 n=b3 v=0
339840 On ch=6 n=b3 v=57
340320 On ch=6 n=a5 v=61
340512 On ch=6 n=a5 v=0
340800 On ch=6 n=f#5 v=54
340992 On ch=6 n=f#5 v=0
341280 On ch=6 n=b3 v=0
341280 On ch=6 n=e4 v=51
341760 On ch=6 n=g5 v=52
341952 On ch=6 n=g5 v=0
342240 On ch=6 n=g5 v=47
342432 On ch=6 n=g5 v=0
342720 On ch=6 n=e4 v=0
342720 On ch=6 n=c4 v=51
343200 On ch=6 n=g5 v=52
343392 On ch=6 n=g5 v=0
343680 On ch=6 n=e5 v=46
343872 On ch=6 n=e5 v=0
344160 On ch=6 n=c4 v=0
344160 On ch=6 n=c4 v=50
344640 On ch=6 n=g5 v=50
344832 On ch=6 n=g5 v=0
345120 On ch=6 n=e5 v=45
345312 On ch=6 n=e5 v=0
345600 On ch=6 n=c4 v=0
345600 On ch=6 n=c4 v=49
346080 On ch=6 n=g5 v=50
346272 On ch=6 n=g5 v=0
346560 On ch=6 n=e5 v=44
346752 On ch=6 n=e5 v=0
347040 On ch=6 n=c4 v=0
347040 On ch=6 n=g3 v=49
347520 On ch=6 n=f5 v=50
347712 On ch=6 n=f5 v=0
348000 On ch=6 n=d5 v=43
348192 On ch=6 n=d5 v=0
348480 On ch=6 n=g3 v=0
348480 On ch=6 n=g3 v=48
348960 On ch=6 n=f5 v=51
349152 On ch=6 n=f5 v=0
349440 On ch=6 n=d5 v=42
349632 On ch=6 n=d5 v=0
349920 On ch=6 n=g3 v=0
349920 On ch=6 n=g3 v=47
350400 On ch=6 n=f5 v=49
350592 On ch=6 n=f5 v=0
350880 On ch=6 n=d5 v=41
351072 On ch=6 n=d5 v=0
351360 On ch=6 n=g3 v=0
351360 On ch=6 n=g3 v=46
351840 On ch=6 n=f5 v=48
352032 On ch=6 n=f5 v=0
352320 On ch=6 n=d5 v=41
352512 On ch=6 n=d5 v=0
352800 On ch=6 n=g3 v=0
352800 On ch=6 n=c4 v=46
353280 On ch=6 n=e5 v=46
353472 On ch=6 n=e5 v=0
353760 On ch=6 n=e5 v=40
353952 On ch=6 n=e5 v=0
354240 On ch=6 n=c4 v=0
354240 On ch=6 n=c3 v=68
354240 On ch=6 n=c4 v=68
355680 On ch=6 n=c4 v=0
355680 On ch=6 n=c3 v=0
355680 On ch=6 n=b3 v=73
355680 On ch=6 n=b2 v=73
357120 On ch=6 n=b2 v=0
357120 On ch=6 n=b3 v=0
357120 On ch=6 n=c3 v=77
357120 On ch=6 n=c4 v=77
358080 On ch=6 n=c4 v=0
358080 On ch=6 n=c3 v=0
358080 On ch=6 n=a3 v=81
358320 On ch=6 n=a3 v=0
358320 On ch=6 n=e3 v=84
358560 On ch=6 n=e3 v=0
358560 On ch=6 n=f3 v=90
358752 On ch=6 n=f3 v=0
359040 On ch=6 n=f3 v=83
359232 On ch=6 n=f3 v=0
359520 On ch=6 n=f#3 v=77
359712 On ch=6 n=f#3 v=0
360000 On ch=6 n=g3 v=72
360480 On ch=6 n=g3 v=0
360960 On ch=6 n=f5 v=47
361200 On ch=6 n=f5 v=0
361200 On ch=6 n=g5 v=50
361440 On ch=6 n=g5 v=0
361440 On ch=6 n=a5 v=54
361680 On ch=6 n=a5 v=0
361680 On ch=6 n=g5 v=52
361920 On ch=6 n=g5 v=0
361920 On ch=6 n=f5 v=50
362160 On ch=6 n=f5 v=0
362160 On ch=6 n=e5 v=48
362400 On ch=6 n=e5 v=0
362400 On ch=6 n=d5 v=46
362640 On ch=6 n=d5 v=0
362640 On ch=6 n=c5 v=44
362880 On ch=6 n=c5 v=0
362880 On ch=6 n=b4 v=42
363360 On ch=6 n=b4 v=0
363840 On ch=6 n=f4 v=47
364080 On ch=6 n=f4 v=0
364080 On ch=6 n=g4 v=51
364320 On ch=6 n=g4 v=0
364320 On ch=6 n=g#4 v=56
364560 On ch=6 n=g#4 v=0
364560 On ch=6 n=g4 v=60
364800 On ch=6 n=g4 v=0
364800 On ch=6 n=f4 v=64
365040 On ch=6 n=f4 v=0
365040 On ch=6 n=d#4 v=68
365280 On ch=6 n=d#4 v=0
365280 On ch=6 n=d4 v=72
365520 On ch=6 n=d4 v=0
365520 On ch=6 n=g4 v=77
365760 On ch=6 n=g4 v=0
365760 On ch=6 n=c4 v=81
366240 On ch=6 n=g5 v=86
366420 On ch=6 n=g5 v=0
366720 On ch=6 n=d#5 v=79
366900 On ch=6 n=d#5 v=0
367200 On ch=6 n=c4 v=0
367200 On ch=6 n=c4 v=80
367680 On ch=6 n=g5 v=86
367860 On ch=6 n=g5 v=0
368160 On ch=6 n=d#5 v=78
368340 On ch=6 n=d#5 v=0
368640 On ch=6 n=c4 v=0
368640 On ch=6 n=c4 v=79
369120 On ch=6 n=g5 v=85
369300 On ch=6 n=g5 v=0
369600 On ch=6 n=d#5 v=76
369780 On ch=6 n=d#5 v=0
370080 On ch=6 n=c4 v=0
370080 On ch=6 n=g3 v=78
370560 On ch=6 n=f5 v=84
370740 On ch=6 n=f5 v=0
371040 On ch=6 n=d5 v=75
371220 On ch=6 n=d5 v=0
371520 On ch=6 n=g3 v=0
371520 On ch=6 n=g3 v=76
372000 On ch=6 n=f5 v=82
372180 On ch=6 n=f5 v=0
372480 On ch=6 n=d5 v=74
372660 On ch=6 n=d5 v=0
372960 On ch=6 n=g3 v=0
372960 On ch=6 n=g3 v=75
373440 On ch=6 n=f5 v=80
373620 On ch=6 n=f5 v=0
373920 On ch=6 n=d5 v=73
374100 On ch=6 n=d5 v=0
374400 On ch=6 n=g3 v=0
374400 On ch=6 n=g3 v=74
374880 On ch=6 n=f5 v=80
375060 On ch=6 n=f5 v=0
375360 On ch=6 n=d5 v=72
375540 On ch=6 n=d5 v=0
375840 On ch=6 n=g3 v=0
375840 On ch=6 n=c4 v=57
376320 On ch=6 n=d#5 v=65
376500 On ch=6 n=d#5 v=0
376800 On ch=6 n=f5 v=59
376980 On ch=6 n=f5 v=0
377280 On ch=6 n=c4 v=0
377280 On ch=6 n=d#4 v=57
377760 On ch=6 n=a#5 v=64
377940 On ch=6 n=a#5 v=0
378240 On ch=6 n=g5 v=54
378420 On ch=6 n=g5 v=0
378720 On ch=6 n=d#4 v=0
378720 On ch=6 n=d#4 v=56
379200 On ch=6 n=a#5 v=60
379380 On ch=6 n=a#5 v=0
379680 On ch=6 n=g5 v=53
379860 On ch=6 n=g5 v=0
380160 On ch=6 n=d#4 v=0
380160 On ch=6 n=d#4 v=55
380640 On ch=6 n=a#5 v=60
380820 On ch=6 n=a#5 v=0
381120 On ch=6 n=g5 v=52
381300 On ch=6 n=g5 v=0
381600 On ch=6 n=d#4 v=0
381600 On ch=6 n=a#3 v=54
382080 On ch=6 n=g#5 v=58
382260 On ch=6 n=g#5 v=0
382560 On ch=6 n=f5 v=51
382740 On ch=6 n=f5 v=0
383040 On ch=6 n=a#3 v=0
383040 On ch=6 n=a#3 v=53
383520 On ch=6 n=g#5 v=58
383700 On ch=6 n=g#5 v=0
384000 On ch=6 n=f5 v=50
384180 On ch=6 n=f5 v=0
384480 On ch=6 n=a#3 v=0
384480 On ch=6 n=a#3 v=52
384960 On ch=6 n=g#5 v=57
385140 On ch=6 n=g#5 v=0
385440 On ch=6 n=f5 v=49
385620 On ch=6 n=f5 v=0
385920 On ch=6 n=a#3 v=0
385920 On ch=6 n=a#3 v=51
386400 On ch=6 n=g#5 v=56
386580 On ch=6 n=g#5 v=0
386880 On ch=6 n=f5 v=49
387060 On ch=6 n=f5 v=0
387360 On ch=6 n=a#3 v=0
387360 On ch=6 n=d#4 v=50
387840 On ch=6 n=g5 v=53
388020 On ch=6 n=g5 v=0
388320 On ch=6 n=g5 v=48
388500 On ch=6 n=g5 v=0
388800 On ch=6 n=d#4 v=0
388800 On ch=6 n=d#3 v=70
388800 On ch=6 n=d#4 v=70
390240 On ch=6 n=d#4 v=0
390240 On ch=6 n=d#3 v=0
390240 On ch=6 n=d4 v=75
390240 On ch=6 n=d3 v=75
391680 On ch=6 n=d3 v=0
391680 On ch=6 n=d4 v=0
391680 On ch=6 n=d#4 v=79
391680 On ch=6 n=d#3 v=79
392640 On ch=6 n=d#3 v=0
392640 On ch=6 n=d#4 v=0
392640 On ch=6 n=c4 v=83
392880 On ch=6 n=c4 v=0
392880 On ch=6 n=g3 v=88
393120 On ch=6 n=g3 v=0
393120 On ch=6 n=g#3 v=94
393312 On ch=6 n=g#3 v=0
393600 On ch=6 n=g#3 v=88
393792 On ch=6 n=g#3 v=0
394080 On ch=6 n=a3 v=82
394272 On ch=6 n=a3 v=0
394560 On ch=6 n=a#3 v=75
395040 On ch=6 n=a#3 v=0
395520 On ch=6 n=c6 v=48
395760 On ch=6 n=c6 v=0
395760 On ch=6 n=a#5 v=50
396000 On ch=6 n=a#5 v=0
396000 On ch=6 n=g#5 v=53
396192 On ch=6 n=g#5 v=0
396480 On ch=6 n=g#5 v=51
396672 On ch=6 n=g#5 v=0
396960 On ch=6 n=a5 v=48
397152 On ch=6 n=a5 v=0
397440 On ch=6 n=a#5 v=45
397920 On ch=6 n=a#5 v=0
398400 On ch=6 n=c4 v=67
398640 On ch=6 n=c4 v=0
398640 On ch=6 n=d4 v=69
398880 On ch=6 n=d4 v=0
398880 On ch=6 n=d#4 v=75
399120 On ch=6 n=d#4 v=0
399120 On ch=6 n=d4 v=73
399360 On ch=6 n=d4 v=0
399360 On ch=6 n=c4 v=72
399600 On ch=6 n=c4 v=0
399600 On ch=6 n=a#3 v=70
399840 On ch=6 n=a#3 v=0
399840 On ch=6 n=a3 v=69
400080 On ch=6 n=a3 v=0
400080 On ch=6 n=g3 v=67
400320 On ch=6 n=g3 v=0
400320 On ch=6 n=f#3 v=65
400800 On ch=6 n=f#3 v=0
401280 On ch=6 n=c6 v=48
401520 On ch=6 n=c6 v=0
401520 On ch=6 n=d6 v=50
401760 On ch=6 n=d6 v=0
401760 On ch=6 n=d#6 v=51
402000 On ch=6 n=d#6 v=0
402000 On ch=6 n=d6 v=53
402240 On ch=6 n=d6 v=0
402240 On ch=6 n=c6 v=54
402480 On ch=6 n=c6 v=0
402480 On ch=6 n=a#5 v=56
402720 On ch=6 n=a#5 v=0
402720 On ch=6 n=a5 v=58
402960 On ch=6 n=a5 v=0
402960 On ch=6 n=g5 v=59
403200 On ch=6 n=g5 v=0
403200 On ch=6 n=f#5 v=61
403440 On ch=6 n=f#5 v=0
403440 On ch=6 n=d#5 v=63
403680 On ch=6 n=d#5 v=0
403680 On ch=6 n=d5 v=64
403920 On ch=6 n=d5 v=0
403920 On ch=6 n=c5 v=66
404160 On ch=6 n=c5 v=0
404160 On ch=6 n=a#4 v=68
404400 On ch=6 n=a#4 v=0
404400 On ch=6 n=a4 v=69
404640 On ch=6 n=a4 v=0
404640 On ch=6 n=g4 v=77
404832 On ch=6 n=g4 v=0
405120 On ch=6 n=d#4 v=76
405312 On ch=6 n=d#4 v=0
405600 On ch=6 n=c#4 v=75
405792 On ch=6 n=c#4 v=0
406080 On ch=6 n=d4 v=77
406560 On ch=6 n=a5 v=73
406752 On ch=6 n=a5 v=0
407040 On ch=6 n=f#5 v=72
407232 On ch=6 n=f#5 v=0
407520 On ch=6 n=d4 v=0
407520 On ch=6 n=d4 v=74
408000 On ch=6 n=a5 v=70
408192 On ch=6 n=a5 v=0
408480 On ch=6 n=f#5 v=69
408672 On ch=6 n=f#5 v=0
408960 On ch=6 n=d4 v=0
408960 On ch=6 n=d4 v=71
409440 On ch=6 n=a5 v=67
409632 On ch=6 n=a5 v=0
409920 On ch=6 n=f#5 v=66
410112 On ch=6 n=f#5 v=0
410400 On ch=6 n=d4 v=0
410400 On ch=6 n=a3 v=68
410880 On ch=6 n=g5 v=64
411072 On ch=6 n=g5 v=0
411360 On ch=6 n=e5 v=63
411552 On ch=6 n=e5 v=0
411840 On ch=6 n=a3 v=0
411840 On ch=6 n=a3 v=65
412320 On ch=6 n=g5 v=61
412512 On ch=6 n=g5 v=0
412800 On ch=6 n=e5 v=59
412992 On ch=6 n=e5 v=0
413280 On ch=6 n=a3 v=0
413280 On ch=6 n=a3 v=62
413760 On ch=6 n=g5 v=57
413952 On ch=6 n=g5 v=0
414240 On ch=6 n=e5 v=56
414432 On ch=6 n=e5 v=0
414720 On ch=6 n=a3 v=0
414720 On ch=6 n=a3 v=59
415200 On ch=6 n=g5 v=54
415392 On ch=6 n=g5 v=0
415680 On ch=6 n=e5 v=53
415872 On ch=6 n=e5 v=0
416160 On ch=6 n=a3 v=0
416160 On ch=6 n=d4 v=56
416640 On ch=6 n=f#5 v=51
416832 On ch=6 n=f#5 v=0
417120 On ch=6 n=d5 v=50
417312 On ch=6 n=d5 v=0
417600 On ch=6 n=d4 v=0
417600 On ch=6 n=f#4 v=53
417792 On ch=6 n=f#4 v=0
418080 On ch=6 n=d4 v=55
418272 On ch=6 n=d4 v=0
418560 On ch=6 n=f#3 v=58
418752 On ch=6 n=f#3 v=0
419040 On ch=6 n=d3 v=60
419232 On ch=6 n=d3 v=0
419520 On ch=6 n=f#4 v=63
419712 On ch=6 n=f#4 v=0
420000 On ch=6 n=d4 v=65
420192 On ch=6 n=d4 v=0
420480 On ch=6 n=f#3 v=68
420672 On ch=6 n=f#3 v=0
420960 On ch=6 n=d3 v=70
421152 On ch=6 n=d3 v=0
421440 On ch=6 n=f#4 v=73
421632 On ch=6 n=f#4 v=0
421920 On ch=6 n=d4 v=75
422112 On ch=6 n=d4 v=0
422400 On ch=6 n=f#3 v=77
422592 On ch=6 n=f#3 v=0
422880 On ch=6 n=d3 v=80
423072 On ch=6 n=d3 v=0
423360 On ch=6 n=g3 v=90
423840 On ch=6 n=g4 v=78
424320 On ch=6 n=g4 v=0
424320 On ch=6 n=g4 v=82
424800 On ch=6 n=g4 v=0
424800 On ch=6 n=g4 v=86
425280 On ch=6 n=g4 v=0
425280 On ch=6 n=g4 v=81
425760 On ch=6 n=g4 v=0
425760 On ch=6 n=g4 v=80
426240 On ch=6 n=g4 v=0
426240 On ch=6 n=g4 v=79
426720 On ch=6 n=g4 v=0
426720 On ch=6 n=g4 v=78
427200 On ch=6 n=g4 v=0
427200 On ch=6 n=g4 v=78
427648 On ch=6 n=g3 v=0
427680 On ch=6 n=g4 v=0
427680 On ch=6 n=g4 v=77
428160 On ch=6 n=g4 v=0
428160 On ch=6 n=g4 v=76
428640 On ch=6 n=g4 v=0
428640 On ch=6 n=g4 v=75
429120 On ch=6 n=g4 v=0
429120 On ch=6 n=g4 v=74
429600 On ch=6 n=g4 v=0
429600 On ch=6 n=g4 v=74
430080 On ch=6 n=g4 v=0
430080 On ch=6 n=g4 v=73
430560 On ch=6 n=g4 v=0
430560 On ch=6 n=g4 v=72
431040 On ch=6 n=g4 v=0
431040 On ch=6 n=g4 v=71
431520 On ch=6 n=g4 v=0
431520 On ch=6 n=g4 v=71
432000 On ch=6 n=g4 v=0
432000 On ch=6 n=g4 v=70
432480 On ch=6 n=g4 v=0
432480 On ch=6 n=g4 v=69
432960 On ch=6 n=g4 v=0
432960 On ch=6 n=g4 v=68
433440 On ch=6 n=g4 v=0
433440 On ch=6 n=b4 v=76
433440 On ch=6 n=g4 v=76
434880 On ch=6 n=g4 v=0
434880 On ch=6 n=b4 v=0
434880 On ch=6 n=f#4 v=78
434880 On ch=6 n=a4 v=78
436320 On ch=6 n=a4 v=0
436320 On ch=6 n=f#4 v=0
436320 On ch=6 n=b4 v=80
436320 On ch=6 n=g4 v=80
437760 On ch=6 n=g4 v=0
437760 On ch=6 n=b4 v=0
437760 On ch=6 n=a4 v=82
437760 On ch=6 n=c5 v=82
439200 On ch=6 n=c5 v=0
439200 On ch=6 n=a4 v=0
439200 Par ch=6 c=64 v=0
439200 On ch=6 n=b3 v=57
439260 Par ch=6 c=64 v=127
439440 On ch=6 n=b3 v=0
439440 On ch=6 n=d4 v=57
439680 On ch=6 n=d4 v=0
439680 On ch=6 n=g4 v=56
439920 On ch=6 n=g4 v=0
439920 On ch=6 n=b4 v=56
440160 On ch=6 n=b4 v=0
444960 Par ch=6 c=64 v=0
444960 On ch=6 n=c4 v=53
445020 Par ch=6 c=64 v=127
445200 On ch=6 n=c4 v=0
445200 On ch=6 n=e4 v=53
445440 On ch=6 n=e4 v=0
445440 On ch=6 n=g4 v=53
445680 On ch=6 n=g4 v=0
445680 On ch=6 n=c5 v=53
445920 On ch=6 n=c5 v=0
450720 Par ch=6 c=64 v=0
450720 On ch=6 n=a3 v=49
450780 Par ch=6 c=64 v=127
450960 On ch=6 n=a3 v=0
450960 On ch=6 n=c#4 v=49
451200 On ch=6 n=c#4 v=0
451200 On ch=6 n=e4 v=49
451440 On ch=6 n=e4 v=0
451440 On ch=6 n=g4 v=49
451680 On ch=6 n=g4 v=0
455520 Par ch=6 c=64 v=0
455520 On ch=6 n=e5 v=50
455520 On ch=6 n=c#5 v=50
455880 On ch=6 n=c#5 v=0
455880 On ch=6 n=e5 v=0
456000 On ch=6 n=g5 v=51
456000 On ch=6 n=e5 v=51
456360 On ch=6 n=e5 v=0
456360 On ch=6 n=g5 v=0
456480 On ch=6 n=d5 v=52
456480 On ch=6 n=f#5 v=52
456720 On ch=6 n=f#5 v=0
456720 On ch=6 n=g5 v=53
456960 On ch=6 n=g5 v=0
456960 On ch=6 n=d5 v=0
456960 On ch=6 n=a5 v=54
457200 On ch=6 n=a5 v=0
457200 On ch=6 n=b5 v=55
457440 On ch=6 n=b5 v=0
457440 On ch=6 n=c#6 v=55
457680 On ch=6 n=c#6 v=0
457680 On ch=6 n=d6 v=56
457920 On ch=6 n=d6 v=0
457920 On ch=6 n=c#6 v=57
458160 On ch=6 n=c#6 v=0
458160 On ch=6 n=b5 v=58
458400 On ch=6 n=b5 v=0
458400 On ch=6 n=a5 v=59
458640 On ch=6 n=a5 v=0
458640 On ch=6 n=g5 v=60
458880 On ch=6 n=g5 v=0
458880 On ch=6 n=f#5 v=61
459120 On ch=6 n=f#5 v=0
459120 On ch=6 n=e5 v=62
459360 On ch=6 n=e5 v=0
459360 On ch=6 n=d5 v=67
459600 On ch=6 n=d5 v=0
459600 On ch=6 n=c5 v=64
459840 On ch=6 n=c5 v=0
459840 On ch=6 n=b4 v=60
460080 On ch=6 n=b4 v=0
460080 On ch=6 n=a4 v=57
460320 On ch=6 n=a4 v=0
460320 On ch=6 n=g4 v=54
460560 On ch=6 n=g4 v=0
460560 On ch=6 n=f#4 v=51
460800 On ch=6 n=f#4 v=0
460800 On ch=6 n=g4 v=46
461040 On ch=6 n=g4 v=0
461040 On ch=6 n=a4 v=46
461280 On ch=6 n=a4 v=0
461280 On ch=6 n=b4 v=47
461520 On ch=6 n=b4 v=0
461520 On ch=6 n=c#5 v=48
461760 On ch=6 n=c#5 v=0
461760 On ch=6 n=d5 v=49
462000 On ch=6 n=d5 v=0
462000 On ch=6 n=e5 v=49
462240 On ch=6 n=e5 v=0
462240 On ch=6 n=d5 v=50
462240 On ch=6 n=f#5 v=50
462480 On ch=6 n=f#5 v=0
462480 On ch=6 n=g5 v=51
462720 On ch=6 n=g5 v=0
462720 On ch=6 n=d5 v=0
462720 On ch=6 n=a5 v=52
462960 On ch=6 n=a5 v=0
462960 On ch=6 n=b5 v=52
463200 On ch=6 n=b5 v=0
463200 On ch=6 n=c#6 v=53
463440 On ch=6 n=c#6 v=0
463440 On ch=6 n=d6 v=54
463680 On ch=6 n=d6 v=0
463680 On ch=6 n=c#6 v=55
463920 On ch=6 n=c#6 v=0
463920 On ch=6 n=b5 v=55
464160 On ch=6 n=b5 v=0
464160 On ch=6 n=a5 v=56
464400 On ch=6 n=a5 v=0
464400 On ch=6 n=g5 v=57
464640 On ch=6 n=g5 v=0
464640 On ch=6 n=f#5 v=57
464880 On ch=6 n=f#5 v=0
464880 On ch=6 n=e5 v=58
465120 On ch=6 n=e5 v=0
465120 On ch=6 n=d5 v=59
465360 On ch=6 n=d5 v=0
465360 On ch=6 n=c5 v=58
465600 On ch=6 n=c5 v=0
465600 On ch=6 n=b4 v=57
465840 On ch=6 n=b4 v=0
465840 On ch=6 n=a4 v=56
466080 On ch=6 n=a4 v=0
466080 On ch=6 n=g4 v=55
466320 On ch=6 n=g4 v=0
466320 On ch=6 n=f#4 v=54
466560 On ch=6 n=f#4 v=0
466560 On ch=6 n=g4 v=53
466800 On ch=6 n=g4 v=0
466800 On ch=6 n=a4 v=52
467040 On ch=6 n=a4 v=0
467040 On ch=6 n=b4 v=51
467280 On ch=6 n=b4 v=0
467280 On ch=6 n=c#5 v=50
467520 On ch=6 n=c#5 v=0
467520 On ch=6 n=d5 v=49
467760 On ch=6 n=d5 v=0
467760 On ch=6 n=e5 v=48
468000 On ch=6 n=e5 v=0
468000 On ch=6 n=f#5 v=44
468000 On ch=6 n=a5 v=44
468000 On ch=6 n=d5 v=44
469440 On ch=6 n=a5 v=0
469440 On ch=6 n=f#5 v=0
469440 On ch=6 n=g5 v=47
469440 On ch=6 n=e5 v=47
470880 On ch=6 n=e5 v=0
470880 On ch=6 n=g5 v=0
470880 On ch=6 n=d5 v=0
470880 On ch=6 n=c#6 v=50
470880 On ch=6 n=g5 v=50
470880 On ch=6 n=d5 v=50
472320 On ch=6 n=g5 v=0
472320 On ch=6 n=c#6 v=0
472320 On ch=6 n=a5 v=53
472320 On ch=6 n=f#5 v=53
473760 On ch=6 n=f#5 v=0
473760 On ch=6 n=a5 v=0
473760 On ch=6 n=d5 v=0
473760 On ch=6 n=d5 v=60
473760 On ch=6 n=f#5 v=60
473760 On ch=6 n=c6 v=60
473760 On ch=6 n=a5 v=60
475200 On ch=6 n=a5 v=0
475200 On ch=6 n=c6 v=0
475200 On ch=6 n=f#5 v=0
475200 On ch=6 n=d5 v=0
475200 On ch=6 n=d#5 v=66
475200 On ch=6 n=c6 v=66
475200 On ch=6 n=f#5 v=66
475200 On ch=6 n=a5 v=66
476640 On ch=6 n=a5 v=0
476640 On ch=6 n=f#5 v=0
476640 On ch=6 n=c6 v=0
476640 On ch=6 n=d#5 v=0
476640 On ch=6 n=d5 v=65
476640 On ch=6 n=f#5 v=65
476640 On ch=6 n=c6 v=65
476640 On ch=6 n=a5 v=65
477600 On ch=6 n=a5 v=0
477600 On ch=6 n=c6 v=0
477600 On ch=6 n=f#5 v=0
477600 On ch=6 n=d5 v=0
477600 On ch=6 n=f#5 v=61
477600 On ch=6 n=a5 v=61
477600 On ch=6 n=c5 v=61
478080 On ch=6 n=c5 v=0
478080 On ch=6 n=a5 v=0
478080 On ch=6 n=f#5 v=0
478080 On ch=6 n=d5 v=59
478080 On ch=6 n=g5 v=59
478080 On ch=6 n=b4 v=59
479040 On ch=6 n=b4 v=0
479040 On ch=6 n=g5 v=0
479040 On ch=6 n=d5 v=0
479040 On ch=6 n=d5 v=55
479040 On ch=6 n=g5 v=55
479040 On ch=6 n=g4 v=55
479520 On ch=6 n=g4 v=0
479520 On ch=6 n=g5 v=0
479520 On ch=6 n=d5 v=0
479520 On ch=6 n=f#5 v=58
479520 On ch=6 n=c6 v=58
479520 On ch=6 n=d5 v=58
479520 On ch=6 n=a5 v=58
480960 On ch=6 n=a5 v=0
480960 On ch=6 n=d5 v=0
480960 On ch=6 n=c6 v=0
480960 On ch=6 n=f#5 v=0
480960 On ch=6 n=d#5 v=64
480960 On ch=6 n=f#5 v=64
480960 On ch=6 n=a5 v=64
480960 On ch=6 n=c6 v=64
482400 On ch=6 n=c6 v=0
482400 On ch=6 n=a5 v=0
482400 On ch=6 n=f#5 v=0
482400 On ch=6 n=d#5 v=0
482400 On ch=6 n=d5 v=61
482400 On ch=6 n=c6 v=61
482400 On ch=6 n=a5 v=61
482400 On ch=6 n=f#5 v=61
483360 On ch=6 n=f#5 v=0
483360 On ch=6 n=a5 v=0
483360 On ch=6 n=c6 v=0
483360 On ch=6 n=d5 v=0
483360 On ch=6 n=c5 v=59
483360 On ch=6 n=f#5 v=59
483360 On ch=6 n=a5 v=59
483840 On ch=6 n=a5 v=0
483840 On ch=6 n=f#5 v=0
483840 On ch=6 n=c5 v=0
483840 On ch=6 n=b4 v=58
483840 On ch=6 n=g5 v=58
483840 On ch=6 n=d5 v=58
484800 On ch=6 n=d5 v=0
484800 On ch=6 n=g5 v=0
484800 On ch=6 n=b4 v=0
484800 On ch=6 n=d5 v=56
484800 On ch=6 n=g4 v=56
484800 On ch=6 n=g5 v=56
485280 On ch=6 n=g5 v=0
485280 On ch=6 n=g4 v=0
485280 On ch=6 n=d5 v=0
485280 On ch=6 n=e5 v=55
485280 On ch=6 n=g5 v=55
485280 On ch=6 n=c5 v=55
485760 On ch=6 n=c5 v=0
485760 On ch=6 n=g5 v=0
485760 On ch=6 n=e5 v=0
486240 On ch=6 n=e5 v=53
486240 On ch=6 n=a5 v=53
486240 On ch=6 n=c5 v=53
486720 On ch=6 n=c5 v=0
486720 On ch=6 n=a5 v=0
486720 On ch=6 n=e5 v=0
486720 On ch=6 n=d5 v=52
486720 On ch=6 n=b5 v=52
486720 On ch=6 n=g5 v=52
487200 On ch=6 n=g5 v=0
487200 On ch=6 n=b5 v=0
487200 On ch=6 n=d5 v=0
487680 On ch=6 n=f#5 v=50
487680 On ch=6 n=d5 v=50
487680 On ch=6 n=c6 v=50
488160 On ch=6 n=c6 v=0
488160 On ch=6 n=d5 v=0
488160 On ch=6 n=f#5 v=0
488160 On ch=6 n=g4 v=77
488640 On ch=6 n=g4 v=0
488640 On ch=6 n=g4 v=76
489120 On ch=6 n=g4 v=0
489120 On ch=6 n=g4 v=74
489600 On ch=6 n=g4 v=0
489600 On ch=6 n=g4 v=72
490080 On ch=6 n=g4 v=0
490080 On ch=6 n=g4 v=70
490560 On ch=6 n=g4 v=0
490560 On ch=6 n=g4 v=69
491040 On ch=6 n=g4 v=0
491040 On ch=6 n=b3 v=47
491520 On ch=6 n=b3 v=0
491520 On ch=6 n=b3 v=46
492000 On ch=6 n=b3 v=0
492000 On ch=6 n=b3 v=45
492480 On ch=6 n=b3 v=0
492480 On ch=6 n=a3 v=43
492960 On ch=6 n=a3 v=0
492960 On ch=6 n=a3 v=42
493440 On ch=6 n=a3 v=0
493440 On ch=6 n=d3 v=41
493920 On ch=6 n=d3 v=0
493920 Par ch=6 c=64 v=0
493920 On ch=6 n=g4 v=71
494400 On ch=6 n=g4 v=0
494400 On ch=6 n=g4 v=69
494880 On ch=6 n=g4 v=0
494880 On ch=6 n=g4 v=68
495360 On ch=6 n=g4 v=0
495360 On ch=6 n=g4 v=66
495840 On ch=6 n=g4 v=0
495840 On ch=6 n=g4 v=64
496320 On ch=6 n=g4 v=0
496320 On ch=6 n=g4 v=63
496800 On ch=6 n=g4 v=0
496800 On ch=6 n=b3 v=43
497280 On ch=6 n=b3 v=0
497280 On ch=6 n=b3 v=42
497760 On ch=6 n=b3 v=0
497760 On ch=6 n=b3 v=41
498240 On ch=6 n=b3 v=0
498240 On ch=6 n=a3 v=39
498720 On ch=6 n=a3 v=0
498720 On ch=6 n=a3 v=38
499200 On ch=6 n=a3 v=0
499200 On ch=6 n=d3 v=37
499680 On ch=6 n=d3 v=0
499680 On ch=6 n=g3 v=68
499920 On ch=6 n=g3 v=0
500160 On ch=6 n=b3 v=71
500352 On ch=6 n=b3 v=0
500640 On ch=6 n=g3 v=74
500832 On ch=6 n=g3 v=0
501120 On ch=6 n=d4 v=78
502080 On ch=6 n=d4 v=0
502080 On ch=6 n=c4 v=73
502320 On ch=6 n=c4 v=0
502320 On ch=6 n=b3 v=72
502560 On ch=6 n=b3 v=0
502560 On ch=6 n=a3 v=72
502800 On ch=6 n=a3 v=0
502800 On ch=6 n=g3 v=71
503040 On ch=6 n=g3 v=0
503040 On ch=6 n=f#3 v=70
503280 On ch=6 n=f#3 v=0
503280 On ch=6 n=g3 v=70
503520 On ch=6 n=g3 v=0
503520 On ch=6 n=b3 v=69
503760 On ch=6 n=b3 v=0
503760 On ch=6 n=g3 v=69
504000 On ch=6 n=g3 v=0
504000 On ch=6 n=f#3 v=68
504480 On ch=6 n=f#3 v=0
504480 On ch=6 n=e3 v=67
504672 On ch=6 n=e3 v=0
504960 On ch=6 n=e3 v=66
505152 On ch=6 n=e3 v=0
505440 On ch=6 n=c4 v=60
505920 On ch=6 n=c4 v=0
505920 On ch=6 n=c4 v=63
506400 On ch=6 n=c4 v=0
506400 On ch=6 n=c4 v=65
506880 On ch=6 n=c4 v=0
506880 On ch=6 n=c4 v=67
507360 On ch=6 n=c4 v=0
507360 On ch=6 n=c4 v=61
507840 On ch=6 n=c4 v=0
507840 On ch=6 n=c4 v=60
508320 On ch=6 n=c4 v=0
508320 On ch=6 n=d4 v=60
508800 On ch=6 n=d4 v=0
508800 On ch=6 n=d4 v=59
509280 On ch=6 n=d4 v=0
509280 On ch=6 n=d4 v=58
509760 On ch=6 n=d4 v=0
509760 On ch=6 n=g4 v=57
510240 On ch=6 n=g4 v=0
510240 On ch=6 n=g4 v=57
510720 On ch=6 n=g4 v=0
510720 On ch=6 n=g4 v=56
511200 On ch=6 n=g4 v=0
511200 On ch=6 n=f#4 v=74
511260 On ch=6 n=g4 v=75
511320 On ch=6 n=f#4 v=0
511380 On ch=6 n=g4 v=0
511680 On ch=6 n=a#4 v=77
511740 On ch=6 n=b4 v=78
511800 On ch=6 n=a#4 v=0
511865 On ch=6 n=b4 v=0
512160 On ch=6 n=f#4 v=80
512220 On ch=6 n=g4 v=81
512280 On ch=6 n=f#4 v=0
512335 On ch=6 n=g4 v=0
512640 On ch=6 n=c#5 v=87
512700 On ch=6 n=d5 v=87
512760 On ch=6 n=c#5 v=0
513600 On ch=6 n=c5 v=83
513615 On ch=6 n=d5 v=0
513840 On ch=6 n=c5 v=0
513840 On ch=6 n=b4 v=83
514080 On ch=6 n=b4 v=0
514080 On ch=6 n=a4 v=82
514320 On ch=6 n=a4 v=0
514320 On ch=6 n=g4 v=82
514560 On ch=6 n=g4 v=0
514560 On ch=6 n=f#4 v=81
514800 On ch=6 n=f#4 v=0
514800 On ch=6 n=g4 v=80
515040 On ch=6 n=g4 v=0
515040 On ch=6 n=b4 v=80
515280 On ch=6 n=b4 v=0
515280 On ch=6 n=g4 v=79
515520 On ch=6 n=g4 v=0
515520 On ch=6 n=f#4 v=78
516000 On ch=6 n=f#4 v=0
516000 On ch=6 n=e4 v=77
516192 On ch=6 n=e4 v=0
516480 On ch=6 n=e4 v=76
516672 On ch=6 n=e4 v=0
516960 On ch=6 n=c4 v=76
517440 On ch=6 n=c4 v=0
517440 On ch=6 n=c4 v=79
517920 On ch=6 n=c4 v=0
517920 On ch=6 n=c4 v=81
518400 On ch=6 n=c4 v=0
518400 On ch=6 n=c4 v=85
518880 On ch=6 n=c4 v=0
518880 On ch=6 n=c4 v=75
519360 On ch=6 n=c4 v=0
519360 On ch=6 n=c4 v=73
519840 On ch=6 n=c4 v=0
519840 On ch=6 n=d4 v=70
520320 On ch=6 n=d4 v=0
520320 On ch=6 n=d4 v=68
520800 On ch=6 n=d4 v=0
520800 On ch=6 n=d4 v=65
521280 On ch=6 n=d4 v=0
521280 On ch=6 n=g3 v=65
522720 On ch=6 n=g3 v=0
522720 On ch=6 n=g3 v=63
524160 On ch=6 n=g3 v=0
524160 On ch=6 n=g3 v=61
525600 On ch=6 n=g3 v=0
525600 On ch=6 n=d4 v=59
527040 On ch=6 n=d4 v=0
527040 On ch=6 n=g3 v=57
528480 On ch=6 n=g3 v=0
528480 On ch=6 n=g3 v=55
529920 On ch=6 n=g3 v=0
529920 On ch=6 n=g3 v=53
531360 On ch=6 n=g3 v=0
531360 On ch=6 n=d4 v=51
532320 On ch=6 n=d4 v=0
532320 On ch=6 n=d4 v=49
532800 On ch=6 n=d4 v=0
532800 On ch=6 n=g2 v=49
533040 On ch=6 n=g2 v=0
533040 On ch=6 n=b2 v=48
533280 On ch=6 n=b2 v=0
533280 On ch=6 n=d3 v=48
533520 On ch=6 n=d3 v=0
533520 On ch=6 n=g3 v=48
533760 On ch=6 n=g3 v=0
533760 On ch=6 n=b3 v=47
534000 On ch=6 n=b3 v=0
534000 On ch=6 n=d4 v=47
534240 On ch=6 n=d4 v=0
534240 On ch=6 n=g3 v=47
534720 On ch=6 n=g3 v=0
537120 Par ch=6 c=93 v=28
537120 Par ch=6 c=91 v=91
539280 Par ch=6 c=64 v=0
539280 On ch=6 n=g3 v=42
540000 On ch=6 n=g3 v=0
540000 On ch=6 n=g3 v=44
540720 On ch=6 n=g3 v=0
540720 On ch=6 n=g3 v=46
541440 On ch=6 n=g3 v=0
541440 On ch=6 n=g3 v=50
542160 On ch=6 n=g3 v=0
542160 On ch=6 n=g3 v=46
542880 On ch=6 n=g3 v=0
542880 On ch=6 n=d3 v=43
543600 On ch=6 n=d3 v=0
543600 On ch=6 n=g3 v=40
544320 On ch=6 n=g3 v=0
544320 On ch=6 n=g3 v=42
545040 On ch=6 n=g3 v=0
545040 On ch=6 n=g3 v=44
545760 On ch=6 n=g3 v=0
545760 On ch=6 n=f3 v=48
546480 On ch=6 n=f3 v=0
546480 On ch=6 n=f3 v=45
547200 On ch=6 n=f3 v=0
547200 On ch=6 n=a#3 v=43
547920 On ch=6 n=a#3 v=0
547920 On ch=6 n=a#3 v=40
548640 On ch=6 n=a#3 v=0
548640 On ch=6 n=f3 v=43
549360 On ch=6 n=f3 v=0
549360 On ch=6 n=c3 v=45
550080 On ch=6 n=c3 v=0
550080 On ch=6 n=c3 v=49
550800 On ch=6 n=c3 v=0
550800 On ch=6 n=d3 v=47
551280 On ch=6 n=d3 v=0
551280 On ch=6 n=d3 v=45
551520 On ch=6 n=d3 v=0
551520 On ch=6 n=g3 v=44
551760 On ch=6 n=g3 v=0
551760 On ch=6 n=g3 v=43
552000 On ch=6 n=g3 v=0
552000 On ch=6 n=f3 v=42
552240 On ch=6 n=f3 v=0
552240 On ch=6 n=a#3 v=40
552960 On ch=6 n=a#3 v=0
552960 On ch=6 n=f3 v=43
553680 On ch=6 n=f3 v=0
553680 On ch=6 n=c3 v=46
554400 On ch=6 n=c3 v=0
554400 On ch=6 n=c3 v=47
555120 On ch=6 n=c3 v=0
555120 On ch=6 n=d3 v=44
555840 On ch=6 n=d3 v=0
555840 On ch=6 n=g3 v=41
556560 On ch=6 n=g3 v=0
556560 On ch=6 n=g4 v=30
557280 On ch=6 n=g4 v=0
557280 On ch=6 n=g4 v=41
558000 On ch=6 n=g4 v=0
558000 On ch=6 n=a#3 v=45
558000 On ch=6 n=f4 v=45
558720 On ch=6 n=f4 v=0
558720 On ch=6 n=a#3 v=0
558720 Par ch=6 c=64 v=0
558720 On ch=6 n=d#4 v=34
558780 Par ch=6 c=64 v=127
558857 On ch=6 n=d#4 v=0
559440 Par ch=6 c=64 v=0
559440 On ch=6 n=d#4 v=34
559500 Par ch=6 c=64 v=127
559560 On ch=6 n=d#4 v=0
560160 Par ch=6 c=64 v=0
560160 On ch=6 n=d#4 v=35
560220 Par ch=6 c=64 v=127
560280 On ch=6 n=d#4 v=0
560880 Par ch=6 c=64 v=0
560880 On ch=6 n=d#4 v=36
560940 Par ch=6 c=64 v=127
561000 On ch=6 n=d#4 v=0
561600 Par ch=6 c=64 v=0
561600 On ch=6 n=d#4 v=37
561660 Par ch=6 c=64 v=127
561720 On ch=6 n=d#4 v=0
562320 Par ch=6 c=64 v=0
562320 On ch=6 n=f4 v=38
562380 Par ch=6 c=64 v=127
562440 On ch=6 n=f4 v=0
563040 Par ch=6 c=64 v=0
563040 On ch=6 n=d4 v=39
563100 Par ch=6 c=64 v=127
563160 On ch=6 n=d4 v=0
563760 Par ch=6 c=64 v=0
563760 On ch=6 n=d4 v=40
563820 Par ch=6 c=64 v=127
563880 On ch=6 n=d4 v=0
564480 Par ch=6 c=64 v=0
564480 On ch=6 n=d#4 v=41
564540 Par ch=6 c=64 v=127
564600 On ch=6 n=d#4 v=0
565200 Par ch=6 c=64 v=0
565200 On ch=6 n=g#3 v=40
565260 Par ch=6 c=64 v=127
565335 On ch=6 n=g#3 v=0
565920 Par ch=6 c=64 v=0
565920 On ch=6 n=g#3 v=43
565980 Par ch=6 c=64 v=127
566055 On ch=6 n=g#3 v=0
566640 Par ch=6 c=64 v=0
566640 On ch=6 n=g3 v=47
566700 Par ch=6 c=64 v=127
566775 On ch=6 n=g3 v=0
567360 Par ch=6 c=64 v=0
567360 On ch=6 n=g#4 v=42
567420 Par ch=6 c=64 v=127
567506 On ch=6 n=g#4 v=0
568080 Par ch=6 c=64 v=0
568080 On ch=6 n=g#4 v=45
568140 Par ch=6 c=64 v=127
568226 On ch=6 n=g#4 v=0
568800 Par ch=6 c=64 v=0
568800 On ch=6 n=g4 v=51
568860 Par ch=6 c=64 v=127
568946 On ch=6 n=g4 v=0
569520 Par ch=6 c=64 v=0
569520 On ch=6 n=g#4 v=44
569580 Par ch=6 c=64 v=127
569666 On ch=6 n=g#4 v=0
570240 Par ch=6 c=64 v=0
570240 On ch=6 n=a#4 v=47
570300 Par ch=6 c=64 v=127
570377 On ch=6 n=a#4 v=0
570960 Par ch=6 c=64 v=0
571080 On ch=6 n=b4 v=50
571230 On ch=6 n=b4 v=0
571680 Par ch=6 c=64 v=0
571680 On ch=6 n=g#3 v=46
571740 Par ch=6 c=64 v=127
571829 On ch=6 n=g#3 v=0
572400 Par ch=6 c=64 v=0
572400 On ch=6 n=a#3 v=42
572460 Par ch=6 c=64 v=127
572549 On ch=6 n=a#3 v=0
573120 Par ch=6 c=64 v=0
573120 On ch=6 n=a#3 v=40
573180 Par ch=6 c=64 v=127
573269 On ch=6 n=a#3 v=0
573840 Par ch=6 c=64 v=0
573840 On ch=6 n=g3 v=38
573900 Par ch=6 c=64 v=127
574260 On ch=6 n=g3 v=0
574440 On ch=6 n=d#3 v=42
574560 Par ch=6 c=64 v=0
574566 On ch=6 n=d#3 v=0
574620 Par ch=6 c=64 v=127
575160 On ch=6 n=d#3 v=46
575280 Par ch=6 c=64 v=0
575286 On ch=6 n=d#3 v=0
575340 Par ch=6 c=64 v=127
576000 Par ch=6 c=64 v=0
576000 On ch=6 n=g3 v=45
576060 Par ch=6 c=64 v=127
576460 On ch=6 n=g3 v=0
576600 On ch=6 n=d#3 v=44
576720 Par ch=6 c=64 v=0
576726 On ch=6 n=d#3 v=0
576780 Par ch=6 c=64 v=127
577320 On ch=6 n=d#3 v=42
577440 Par ch=6 c=64 v=0
577446 On ch=6 n=d#3 v=0
577500 Par ch=6 c=64 v=127
578160 Par ch=6 c=64 v=0
578160 On ch=6 n=g3 v=40
578220 Par ch=6 c=64 v=127
578620 On ch=6 n=g3 v=0
578760 On ch=6 n=d#3 v=40
578880 Par ch=6 c=64 v=0
578886 On ch=6 n=d#3 v=0
578940 Par ch=6 c=64 v=127
579480 On ch=6 n=d#3 v=43
579600 Par ch=6 c=64 v=0
579606 On ch=6 n=d#3 v=0
579660 Par ch=6 c=64 v=127
580320 Par ch=6 c=64 v=0
580320 On ch=6 n=g3 v=43
580380 Par ch=6 c=64 v=127
580740 On ch=6 n=g3 v=0
580920 On ch=6 n=d#3 v=40
581040 Par ch=6 c=64 v=0
581100 Par ch=6 c=64 v=127
581590 On ch=6 n=d#3 v=0
581640 On ch=6 n=d#3 v=36
581760 Par ch=6 c=64 v=0
581820 Par ch=6 c=64 v=127
582085 On ch=6 n=d#3 v=0
582480 Par ch=6 c=64 v=0
582480 On ch=6 n=d3 v=28
583200 On ch=6 n=d3 v=0
583200 On ch=6 n=d4 v=33
583984 On ch=6 n=d4 v=0
584640 On ch=6 n=g3 v=32
585288 On ch=6 n=g3 v=0
585360 On ch=6 n=g3 v=34
586008 On ch=6 n=g3 v=0
586080 On ch=6 n=g3 v=36
586728 On ch=6 n=g3 v=0
586800 On ch=6 n=g3 v=40
587448 On ch=6 n=g3 v=0
587520 On ch=6 n=g3 v=34
588168 On ch=6 n=g3 v=0
588240 On ch=6 n=d3 v=32
588888 On ch=6 n=d3 v=0
588960 On ch=6 n=g3 v=30
589608 On ch=6 n=g3 v=0
589680 On ch=6 n=g3 v=32
590328 On ch=6 n=g3 v=0
590400 On ch=6 n=g3 v=34
591048 On ch=6 n=g3 v=0
591120 On ch=6 n=f3 v=37
591768 On ch=6 n=f3 v=0
591840 On ch=6 n=f3 v=35
592488 On ch=6 n=f3 v=0
592560 On ch=6 n=a#3 v=33
593208 On ch=6 n=a#3 v=0
593280 On ch=6 n=a#3 v=30
593928 On ch=6 n=a#3 v=0
594000 On ch=6 n=f3 v=33
594648 On ch=6 n=f3 v=0
594720 On ch=6 n=c3 v=36
595368 On ch=6 n=c3 v=0
595440 On ch=6 n=c3 v=39
596088 On ch=6 n=c3 v=0
596160 On ch=6 n=d3 v=37
596640 On ch=6 n=d3 v=0
596640 On ch=6 n=d3 v=36
596880 On ch=6 n=d3 v=0
596880 On ch=6 n=g3 v=34
597120 On ch=6 n=g3 v=0
597120 On ch=6 n=g3 v=34
597360 On ch=6 n=g3 v=0
597360 On ch=6 n=f3 v=33
597600 On ch=6 n=f3 v=0
597600 On ch=6 n=a#3 v=32
598282 On ch=6 n=a#3 v=0
598320 On ch=6 n=f3 v=34
599002 On ch=6 n=f3 v=0
599040 On ch=6 n=c3 v=37
599722 On ch=6 n=c3 v=0
599760 On ch=6 n=c3 v=39
600442 On ch=6 n=c3 v=0
600480 On ch=6 n=d3 v=34
601162 On ch=6 n=d3 v=0
601200 Par ch=6 c=64 v=0
601200 On ch=6 n=g3 v=30
601260 Par ch=6 c=64 v=127
601544 On ch=6 n=g3 v=0
601920 Par ch=6 c=64 v=0
601920 On ch=6 n=g4 v=36
601980 Par ch=6 c=64 v=127
602376 On ch=6 n=g4 v=0
602640 Par ch=6 c=64 v=0
602640 On ch=6 n=g4 v=41
602700 Par ch=6 c=64 v=127
603096 On ch=6 n=g4 v=0
603360 Par ch=6 c=64 v=0
603360 On ch=6 n=g4 v=47
603420 Par ch=6 c=64 v=127
603816 On ch=6 n=g4 v=0
604080 Par ch=6 c=64 v=0
604080 On ch=6 n=g4 v=53
604140 Par ch=6 c=64 v=127
604536 On ch=6 n=g4 v=0
604800 Par ch=6 c=64 v=0
604800 On ch=6 n=g4 v=47
604860 Par ch=6 c=64 v=127
605272 On ch=6 n=g4 v=0
605520 Par ch=6 c=64 v=0
605520 On ch=6 n=f#4 v=42
605580 Par ch=6 c=64 v=127
605976 On ch=6 n=f#4 v=0
606240 Par ch=6 c=64 v=0
606240 On ch=6 n=f#4 v=51
606300 Par ch=6 c=64 v=127
606696 On ch=6 n=f#4 v=0
606960 Par ch=6 c=64 v=0
606960 On ch=6 n=f#4 v=46
607020 Par ch=6 c=64 v=127
607400 On ch=6 n=f#4 v=0
607680 Par ch=6 c=64 v=0
607740 Par ch=6 c=64 v=127
607800 On ch=6 n=g4 v=40
607920 On ch=6 n=g4 v=0
608400 Par ch=6 c=64 v=0
608400 On ch=6 n=c4 v=39
608760 On ch=6 n=c4 v=0
608880 On ch=6 n=c4 v=33
609072 On ch=6 n=c4 v=0
609840 On ch=6 n=d4 v=35
610200 On ch=6 n=d4 v=0
610320 On ch=6 n=d4 v=28
610512 On ch=6 n=d4 v=0
610560 On ch=6 n=d4 v=29
611040 On ch=6 n=d4 v=0
611280 On ch=6 n=g3 v=25
611760 On ch=6 n=g3 v=0
612720 Par ch=6 c=91 v=91
612720 Par ch=6 c=93 v=28
613680 On ch=6 n=g4 v=44
614160 On ch=6 n=g4 v=0
614160 On ch=6 n=f#4 v=45
614640 On ch=6 n=f#4 v=0
614640 On ch=6 n=e4 v=47
615120 On ch=6 n=e4 v=0
615120 On ch=6 n=d4 v=48
615600 On ch=6 n=d4 v=0
615600 On ch=6 n=c4 v=49
616080 On ch=6 n=c4 v=0
616080 On ch=6 n=b3 v=48
616560 On ch=6 n=b3 v=0
616560 On ch=6 n=d4 v=46
617040 On ch=6 n=d4 v=0
617040 On ch=6 n=g3 v=45
617520 On ch=6 n=g3 v=0
617520 On ch=6 n=g4 v=44
618000 On ch=6 n=g4 v=0
618000 On ch=6 n=f#4 v=45
618480 On ch=6 n=f#4 v=0
618480 On ch=6 n=e4 v=47
618960 On ch=6 n=e4 v=0
618960 On ch=6 n=d4 v=51
619440 On ch=6 n=d4 v=0
619440 On ch=6 n=g4 v=49
619920 On ch=6 n=g4 v=0
619920 On ch=6 n=a4 v=47
620400 On ch=6 n=a4 v=0
620400 On ch=6 n=d4 v=44
620640 On ch=6 n=d4 v=0
621360 Par ch=6 c=64 v=0
621360 On ch=6 n=g4 v=44
621840 On ch=6 n=g4 v=0
621840 On ch=6 n=f#4 v=45
622320 On ch=6 n=f#4 v=0
622320 On ch=6 n=e4 v=47
622800 On ch=6 n=e4 v=0
622800 On ch=6 n=d4 v=48
623280 On ch=6 n=d4 v=0
623280 On ch=6 n=c4 v=49
623760 On ch=6 n=c4 v=0
623760 On ch=6 n=b3 v=48
624240 On ch=6 n=b3 v=0
624240 On ch=6 n=d4 v=46
624720 On ch=6 n=d4 v=0
624720 On ch=6 n=g3 v=45
625200 On ch=6 n=g3 v=0
625200 On ch=6 n=g4 v=44
625680 On ch=6 n=g4 v=0
625680 On ch=6 n=f#4 v=45
626160 On ch=6 n=f#4 v=0
626160 On ch=6 n=e4 v=47
626640 On ch=6 n=e4 v=0
626640 On ch=6 n=d4 v=51
627120 On ch=6 n=d4 v=0
627120 On ch=6 n=g4 v=49
627600 On ch=6 n=g4 v=0
627600 On ch=6 n=a4 v=47
628080 On ch=6 n=a4 v=0
628080 On ch=6 n=d4 v=44
628320 On ch=6 n=d4 v=0
629040 On ch=6 n=d4 v=81
629280 On ch=6 n=d4 v=0
629280 On ch=6 n=e4 v=81
629400 On ch=6 n=e4 v=0
629400 On ch=6 n=d4 v=81
629520 On ch=6 n=d4 v=0
629520 On ch=6 n=b3 v=80
629640 On ch=6 n=b3 v=0
629760 On ch=6 n=c#4 v=80
629880 On ch=6 n=c#4 v=0
630000 On ch=6 n=d4 v=79
630480 On ch=6 n=d4 v=0
630480 On ch=6 n=d3 v=77
630840 On ch=6 n=d3 v=0
630900 On ch=6 n=f#3 v=77
630960 On ch=6 n=f#3 v=0
630960 On ch=6 n=e3 v=77
631080 On ch=6 n=e3 v=0
631200 On ch=6 n=d3 v=76
631320 On ch=6 n=d3 v=0
631440 On ch=6 n=e3 v=76
631560 On ch=6 n=e3 v=0
631680 On ch=6 n=f#3 v=75
631800 On ch=6 n=f#3 v=0
631920 On ch=6 n=g3 v=75
632400 On ch=6 n=g3 v=0
632400 On ch=6 n=g2 v=71
632760 On ch=6 n=g2 v=0
632880 On ch=6 n=d4 v=59
633360 On ch=6 n=d4 v=0
633360 On ch=6 n=a3 v=57
633840 On ch=6 n=a3 v=0
633840 On ch=6 n=d4 v=55
634320 On ch=6 n=d4 v=0
634320 On ch=6 n=g3 v=54
634800 On ch=6 n=g3 v=0
634800 On ch=6 n=c3 v=52
635280 On ch=6 n=c3 v=0
635280 On ch=6 n=d3 v=50
635760 On ch=6 n=d3 v=0
635760 On ch=6 n=g3 v=48
636000 On ch=6 n=g3 v=0
636000 On ch=6 n=g4 v=47
636192 On ch=6 n=g4 v=0
636240 On ch=6 n=f4 v=47
636432 On ch=6 n=f4 v=0
636480 On ch=6 n=e4 v=46
636672 On ch=6 n=e4 v=0
636720 Par ch=6 c=64 v=0
636720 On ch=6 n=d4 v=81
636960 On ch=6 n=d4 v=0
636960 On ch=6 n=e4 v=81
637080 On ch=6 n=e4 v=0
637080 On ch=6 n=d4 v=81
637200 On ch=6 n=d4 v=0
637200 On ch=6 n=b3 v=80
637320 On ch=6 n=b3 v=0
637440 On ch=6 n=c#4 v=80
637560 On ch=6 n=c#4 v=0
637680 On ch=6 n=d4 v=79
638160 On ch=6 n=d4 v=0
638160 On ch=6 n=d3 v=77
638520 On ch=6 n=d3 v=0
638580 On ch=6 n=f#3 v=77
638640 On ch=6 n=f#3 v=0
638640 On ch=6 n=e3 v=77
638760 On ch=6 n=e3 v=0
638880 On ch=6 n=d3 v=76
639000 On ch=6 n=d3 v=0
639120 On ch=6 n=e3 v=76
639240 On ch=6 n=e3 v=0
639360 On ch=6 n=f#3 v=75
639480 On ch=6 n=f#3 v=0
639600 On ch=6 n=g3 v=75
640080 On ch=6 n=g3 v=0
640080 On ch=6 n=g2 v=72
640440 On ch=6 n=g2 v=0
640560 On ch=6 n=d4 v=53
641040 On ch=6 n=d4 v=0
641040 On ch=6 n=a3 v=52
641520 On ch=6 n=a3 v=0
641520 On ch=6 n=d4 v=50
642000 On ch=6 n=d4 v=0
642000 On ch=6 n=g3 v=49
642480 On ch=6 n=g3 v=0
642480 On ch=6 n=c3 v=47
642960 On ch=6 n=c3 v=0
642960 On ch=6 n=d3 v=46
643440 On ch=6 n=d3 v=0
643440 On ch=6 n=g3 v=43
643680 On ch=6 n=g3 v=0
645360 On ch=6 n=e4 v=74
645584 On ch=6 n=e4 v=0
645600 On ch=6 n=e4 v=77
645824 On ch=6 n=e4 v=0
645840 On ch=6 n=e4 v=80
646064 On ch=6 n=e4 v=0
646080 On ch=6 n=e4 v=77
646304 On ch=6 n=e4 v=0
646320 On ch=6 n=e4 v=76
646544 On ch=6 n=e4 v=0
646560 On ch=6 n=e4 v=76
646784 On ch=6 n=e4 v=0
646800 On ch=6 n=e4 v=75
647024 On ch=6 n=e4 v=0
647040 On ch=6 n=e4 v=75
647264 On ch=6 n=e4 v=0
647280 On ch=6 n=e4 v=74
647504 On ch=6 n=e4 v=0
647520 On ch=6 n=e4 v=73
647744 On ch=6 n=e4 v=0
647760 On ch=6 n=e4 v=73
647984 On ch=6 n=e4 v=0
648000 On ch=6 n=e4 v=72
648224 On ch=6 n=e4 v=0
648240 On ch=6 n=c5 v=81
648360 On ch=6 n=c5 v=0
648360 On ch=6 n=b4 v=80
648480 On ch=6 n=b4 v=0
648480 On ch=6 n=a4 v=80
648600 On ch=6 n=a4 v=0
648600 On ch=6 n=g4 v=79
648720 On ch=6 n=g4 v=0
648720 On ch=6 n=f#4 v=78
648840 On ch=6 n=f#4 v=0
648840 On ch=6 n=g4 v=77
648960 On ch=6 n=g4 v=0
648960 On ch=6 n=f#4 v=76
649080 On ch=6 n=f#4 v=0
649080 On ch=6 n=e4 v=75
649200 On ch=6 n=e4 v=0
649200 On ch=6 n=d#4 v=74
649320 On ch=6 n=d#4 v=0
649320 On ch=6 n=e4 v=73
649440 On ch=6 n=e4 v=0
649440 On ch=6 n=f#4 v=72
649560 On ch=6 n=f#4 v=0
649560 On ch=6 n=d#4 v=71
649680 On ch=6 n=d#4 v=0
649680 On ch=6 n=b3 v=71
649800 On ch=6 n=b3 v=0
649920 On ch=6 n=b3 v=75
650040 On ch=6 n=b3 v=0
650160 On ch=6 n=b3 v=77
650280 On ch=6 n=b3 v=0
650400 On ch=6 n=b3 v=76
650520 On ch=6 n=b3 v=0
650640 On ch=6 n=b3 v=74
650760 On ch=6 n=b3 v=0
650880 On ch=6 n=b3 v=73
651000 On ch=6 n=b3 v=0
651120 On ch=6 n=b3 v=70
651360 On ch=6 n=b3 v=0
662640 On ch=6 n=g4 v=57
663110 On ch=6 n=g4 v=0
663120 On ch=6 n=f#4 v=55
663590 On ch=6 n=f#4 v=0
663600 On ch=6 n=e4 v=54
664070 On ch=6 n=e4 v=0
664080 On ch=6 n=d4 v=53
664540 On ch=6 n=d4 v=0
664560 On ch=6 n=c4 v=51
665020 On ch=6 n=c4 v=0
665040 On ch=6 n=b3 v=50
665500 On ch=6 n=b3 v=0
665520 On ch=6 n=a3 v=48
665990 On ch=6 n=a3 v=0
666000 On ch=6 n=g3 v=47
666470 On ch=6 n=g3 v=0
666480 On ch=6 n=g4 v=47
666950 On ch=6 n=g4 v=0
666960 On ch=6 n=f#4 v=49
667430 On ch=6 n=f#4 v=0
667440 On ch=6 n=e4 v=51
667910 On ch=6 n=e4 v=0
667920 On ch=6 n=d4 v=53
668390 On ch=6 n=d4 v=0
668400 On ch=6 n=g4 v=55
668870 On ch=6 n=g4 v=0
668880 On ch=6 n=a4 v=57
669350 On ch=6 n=a4 v=0
669360 On ch=6 n=d5 v=54
669520 On ch=6 n=a5 v=52
669540 On ch=6 n=d5 v=0
669680 On ch=6 n=a5 v=0
669680 On ch=6 n=f#5 v=50
669840 On ch=6 n=f#5 v=0
669840 On ch=6 n=d5 v=48
670000 On ch=6 n=d5 v=0
670000 On ch=6 n=a4 v=47
670160 On ch=6 n=a4 v=0
670160 On ch=6 n=f#4 v=45
670320 On ch=6 n=f#4 v=0
670320 On ch=6 n=d4 v=81
670560 On ch=6 n=d4 v=0
670560 On ch=6 n=e4 v=81
670680 On ch=6 n=e4 v=0
670680 On ch=6 n=d4 v=80
670800 On ch=6 n=d4 v=0
670800 On ch=6 n=b3 v=80
670920 On ch=6 n=b3 v=0
671040 On ch=6 n=c#4 v=79
671160 On ch=6 n=c#4 v=0
671280 On ch=6 n=d4 v=79
671760 On ch=6 n=d4 v=0
671760 On ch=6 n=d3 v=72
672120 On ch=6 n=d3 v=0
672180 On ch=6 n=f#3 v=76
672240 On ch=6 n=f#3 v=0
672240 On ch=6 n=e3 v=76
672360 On ch=6 n=e3 v=0
672480 On ch=6 n=d3 v=75
672600 On ch=6 n=d3 v=0
672720 On ch=6 n=e3 v=74
672840 On ch=6 n=e3 v=0
672960 On ch=6 n=f#3 v=74
673080 On ch=6 n=f#3 v=0
673200 On ch=6 n=g3 v=73
673680 On ch=6 n=g3 v=0
673680 On ch=6 n=g2 v=69
674040 On ch=6 n=g2 v=0
674160 On ch=6 n=d4 v=60
674630 On ch=6 n=d4 v=0
674640 On ch=6 n=e4 v=58
675110 On ch=6 n=e4 v=0
675120 On ch=6 n=d4 v=56
675590 On ch=6 n=d4 v=0
675600 On ch=6 n=g3 v=54
676070 On ch=6 n=g3 v=0
676080 On ch=6 n=c4 v=52
676550 On ch=6 n=c4 v=0
676560 On ch=6 n=d4 v=50
677030 On ch=6 n=d4 v=0
677040 On ch=6 n=g3 v=48
677510 On ch=6 n=g3 v=0
677640 On ch=6 n=g3 v=56
677760 On ch=6 n=g3 v=0
677760 On ch=6 n=a3 v=56
677880 On ch=6 n=a3 v=0
677880 On ch=6 n=b3 v=57
678000 On ch=6 n=b3 v=0
678000 On ch=6 n=c4 v=57
678120 On ch=6 n=c4 v=0
678120 On ch=6 n=g3 v=58
678240 On ch=6 n=g3 v=0
678240 On ch=6 n=a3 v=58
678360 On ch=6 n=a3 v=0
678360 On ch=6 n=b3 v=59
678480 On ch=6 n=b3 v=0
678480 On ch=6 n=c4 v=59
678600 On ch=6 n=c4 v=0
678600 On ch=6 n=d4 v=60
678720 On ch=6 n=d4 v=0
678720 On ch=6 n=e4 v=60
678840 On ch=6 n=e4 v=0
678840 On ch=6 n=f4 v=61
678960 On ch=6 n=f4 v=0
678960 On ch=6 n=c4 v=61
679080 On ch=6 n=c4 v=0
679200 On ch=6 n=c4 v=62
679320 On ch=6 n=c4 v=0
679440 On ch=6 n=c4 v=63
679560 On ch=6 n=c4 v=0
679680 On ch=6 n=c4 v=64
679800 On ch=6 n=c4 v=0
679920 On ch=6 n=c4 v=65
680040 On ch=6 n=c4 v=0
680160 On ch=6 n=c4 v=66
680280 On ch=6 n=c4 v=0
680400 On ch=6 n=c4 v=67
680520 On ch=6 n=c4 v=0
680640 On ch=6 n=c4 v=68
680760 On ch=6 n=c4 v=0
680880 On ch=6 n=f4 v=64
681480 On ch=6 n=f4 v=0
681480 On ch=6 n=c4 v=60
681600 On ch=6 n=c4 v=0
681600 On ch=6 n=d4 v=60
681720 On ch=6 n=d4 v=0
681720 On ch=6 n=e4 v=61
681840 On ch=6 n=e4 v=0
681840 On ch=6 n=f4 v=61
681960 On ch=6 n=f4 v=0
681960 On ch=6 n=c4 v=62
682080 On ch=6 n=c4 v=0
682080 On ch=6 n=d4 v=62
682200 On ch=6 n=d4 v=0
682200 On ch=6 n=e4 v=62
682320 On ch=6 n=e4 v=0
682320 On ch=6 n=f4 v=63
682440 On ch=6 n=f4 v=0
682440 On ch=6 n=g4 v=63
682560 On ch=6 n=g4 v=0
682560 On ch=6 n=a4 v=63
682680 On ch=6 n=a4 v=0
682680 On ch=6 n=a#4 v=64
682800 On ch=6 n=a#4 v=0
682800 On ch=6 n=f4 v=64
682920 On ch=6 n=f4 v=0
683040 On ch=6 n=f4 v=65
683160 On ch=6 n=f4 v=0
683280 On ch=6 n=f4 v=66
683400 On ch=6 n=f4 v=0
683520 On ch=6 n=f4 v=67
683640 On ch=6 n=f4 v=0
683760 On ch=6 n=f4 v=67
683880 On ch=6 n=f4 v=0
684000 On ch=6 n=f4 v=68
684120 On ch=6 n=f4 v=0
684240 On ch=6 n=g4 v=69
684360 On ch=6 n=g4 v=0
684480 On ch=6 n=g4 v=70
684600 On ch=6 n=g4 v=0
684720 On ch=6 n=c4 v=66
685320 On ch=6 n=c4 v=0
685320 On ch=6 n=g3 v=64
685440 On ch=6 n=g3 v=0
685440 On ch=6 n=a3 v=65
685560 On ch=6 n=a3 v=0
685560 On ch=6 n=b3 v=65
685680 On ch=6 n=b3 v=0
685680 On ch=6 n=c4 v=65
685800 On ch=6 n=c4 v=0
685800 On ch=6 n=g3 v=66
685920 On ch=6 n=g3 v=0
685920 On ch=6 n=a3 v=66
686040 On ch=6 n=a3 v=0
686040 On ch=6 n=b3 v=67
686160 On ch=6 n=b3 v=0
686160 On ch=6 n=c4 v=67
686280 On ch=6 n=c4 v=0
686280 On ch=6 n=d4 v=67
686400 On ch=6 n=d4 v=0
686400 On ch=6 n=e4 v=68
686520 On ch=6 n=e4 v=0
686520 On ch=6 n=f4 v=68
686640 On ch=6 n=f4 v=0
686640 On ch=6 n=c4 v=68
686760 On ch=6 n=c4 v=0
686880 On ch=6 n=c4 v=69
687000 On ch=6 n=c4 v=0
687120 On ch=6 n=c4 v=70
687240 On ch=6 n=c4 v=0
687360 On ch=6 n=c4 v=71
687480 On ch=6 n=c4 v=0
687600 On ch=6 n=c4 v=72
687720 On ch=6 n=c4 v=0
687840 On ch=6 n=c4 v=72
687960 On ch=6 n=c4 v=0
688080 On ch=6 n=c4 v=73
688200 On ch=6 n=c4 v=0
688320 On ch=6 n=c4 v=74
688440 On ch=6 n=c4 v=0
688560 On ch=6 n=f4 v=70
689160 On ch=6 n=f4 v=0
689160 On ch=6 n=c4 v=66
689280 On ch=6 n=c4 v=0
689280 On ch=6 n=d4 v=67
689400 On ch=6 n=d4 v=0
689400 On ch=6 n=e4 v=67
689520 On ch=6 n=e4 v=0
689520 On ch=6 n=f4 v=68
689640 On ch=6 n=f4 v=0
689640 On ch=6 n=c4 v=68
689760 On ch=6 n=c4 v=0
689760 On ch=6 n=d4 v=69
689880 On ch=6 n=d4 v=0
689880 On ch=6 n=e4 v=69
690000 On ch=6 n=e4 v=0
690000 On ch=6 n=f4 v=70
690120 On ch=6 n=f4 v=0
690120 On ch=6 n=g4 v=70
690240 On ch=6 n=g4 v=0
690240 On ch=6 n=a4 v=71
690360 On ch=6 n=a4 v=0
690360 On ch=6 n=a#4 v=71
690480 On ch=6 n=a#4 v=0
690480 On ch=6 n=f4 v=71
690600 On ch=6 n=f4 v=0
690720 On ch=6 n=f4 v=72
690840 On ch=6 n=f4 v=0
690960 On ch=6 n=f4 v=73
691080 On ch=6 n=f4 v=0
691200 On ch=6 n=f4 v=74
691320 On ch=6 n=f4 v=0
691440 On ch=6 n=f4 v=75
691560 On ch=6 n=f4 v=0
691680 On ch=6 n=f4 v=76
691800 On ch=6 n=f4 v=0
691920 On ch=6 n=g4 v=77
692040 On ch=6 n=g4 v=0
692160 On ch=6 n=g4 v=78
692280 On ch=6 n=g4 v=0
692400 On ch=6 n=c4 v=74
692640 On ch=6 n=c4 v=0
693360 On ch=6 n=c5 v=50
693840 On ch=6 n=c5 v=0
693840 On ch=6 n=b4 v=51
694320 On ch=6 n=b4 v=0
694320 On ch=6 n=c5 v=51
694800 On ch=6 n=c5 v=0
694800 On ch=6 n=b4 v=52
695280 On ch=6 n=b4 v=0
695280 On ch=6 n=a4 v=52
695760 On ch=6 n=a4 v=0
695760 On ch=6 n=g#4 v=53
696220 On ch=6 n=g#4 v=0
696240 On ch=6 n=a4 v=53
696700 On ch=6 n=a4 v=0
696720 On ch=6 n=g#4 v=54
697180 On ch=6 n=g#4 v=0
697200 On ch=6 n=a4 v=55
697660 On ch=6 n=a4 v=0
697680 On ch=6 n=f#4 v=55
698140 On ch=6 n=f#4 v=0
698160 On ch=6 n=g4 v=56
698630 On ch=6 n=g4 v=0
698640 On ch=6 n=f#4 v=56
699110 On ch=6 n=f#4 v=0
699120 On ch=6 n=e4 v=57
699590 On ch=6 n=e4 v=0
699600 On ch=6 n=d4 v=58
700060 On ch=6 n=d4 v=0
700080 On ch=6 n=c4 v=58
700530 On ch=6 n=c4 v=0
700560 On ch=6 n=b3 v=59
701010 On ch=6 n=b3 v=0
701040 On ch=6 n=a3 v=59
701490 On ch=6 n=a3 v=0
701520 On ch=6 n=g3 v=60
701970 On ch=6 n=g3 v=0
702000 On ch=6 n=g4 v=60
702450 On ch=6 n=g4 v=0
702480 On ch=6 n=f#4 v=61
702930 On ch=6 n=f#4 v=0
702960 On ch=6 n=e4 v=62
703410 On ch=6 n=e4 v=0
703440 On ch=6 n=d4 v=62
703890 On ch=6 n=d4 v=0
703920 On ch=6 n=g4 v=63
704400 On ch=6 n=g4 v=0
704400 On ch=6 n=a4 v=63
704880 On ch=6 n=a4 v=0
704880 On ch=6 n=d4 v=59
705000 On ch=6 n=f#4 v=58
705120 On ch=6 n=f#4 v=0
705120 On ch=6 n=d4 v=0
705120 On ch=6 n=a4 v=57
705240 On ch=6 n=a4 v=0
705240 On ch=6 n=d5 v=56
705360 On ch=6 n=d5 v=0
705360 On ch=6 n=c#5 v=55
705480 On ch=6 n=c#5 v=0
705480 On ch=6 n=d5 v=55
705600 On ch=6 n=d5 v=0
705600 On ch=6 n=c5 v=54
705720 On ch=6 n=c5 v=0
705720 On ch=6 n=a4 v=52
705840 On ch=6 n=a4 v=0
705840 On ch=6 n=g4 v=52
706310 On ch=6 n=g4 v=0
706320 On ch=6 n=f#4 v=56
706790 On ch=6 n=f#4 v=0
706800 On ch=6 n=e4 v=57
707270 On ch=6 n=e4 v=0
707280 On ch=6 n=d4 v=58
707730 On ch=6 n=d4 v=0
707760 On ch=6 n=c4 v=59
708210 On ch=6 n=c4 v=0
708240 On ch=6 n=b3 v=60
708690 On ch=6 n=b3 v=0
708720 On ch=6 n=a3 v=61
709180 On ch=6 n=a3 v=0
709200 On ch=6 n=g3 v=62
709660 On ch=6 n=g3 v=0
709680 On ch=6 n=g4 v=63
710160 On ch=6 n=g4 v=0
710160 On ch=6 n=f#4 v=65
710640 On ch=6 n=f#4 v=0
710640 On ch=6 n=e4 v=66
711120 On ch=6 n=e4 v=0
711120 On ch=6 n=d4 v=67
711590 On ch=6 n=d4 v=0
711600 On ch=6 n=g4 v=68
712070 On ch=6 n=g4 v=0
712080 On ch=6 n=a4 v=69
712550 On ch=6 n=a4 v=0
712560 On ch=6 n=d4 v=67
712680 On ch=6 n=f#4 v=68
712800 On ch=6 n=f#4 v=0
712800 On ch=6 n=a4 v=68
712810 On ch=6 n=d4 v=0
712920 On ch=6 n=a4 v=0
712920 On ch=6 n=d5 v=68
713040 On ch=6 n=d5 v=0
713040 On ch=6 n=c#5 v=69
713160 On ch=6 n=c#5 v=0
713160 On ch=6 n=d5 v=69
713280 On ch=6 n=d5 v=0
713280 On ch=6 n=a4 v=69
713400 On ch=6 n=a4 v=0
713400 On ch=6 n=f#4 v=69
713520 On ch=6 n=f#4 v=0
713520 On ch=6 n=d4 v=87
713760 On ch=6 n=d4 v=0
713760 On ch=6 n=e4 v=87
713880 On ch=6 n=e4 v=0
713880 On ch=6 n=d4 v=86
714000 On ch=6 n=d4 v=0
714000 On ch=6 n=b3 v=86
714120 On ch=6 n=b3 v=0
714240 On ch=6 n=c#4 v=85
714360 On ch=6 n=c#4 v=0
714480 On ch=6 n=d4 v=85
714960 On ch=6 n=d4 v=0
714960 On ch=6 n=d3 v=80
715320 On ch=6 n=d3 v=0
715380 On ch=6 n=f#3 v=82
715440 On ch=6 n=f#3 v=0
715440 On ch=6 n=e3 v=82
715560 On ch=6 n=e3 v=0
715680 On ch=6 n=d3 v=81
715800 On ch=6 n=d3 v=0
715920 On ch=6 n=e3 v=81
716040 On ch=6 n=e3 v=0
716160 On ch=6 n=f#3 v=80
716280 On ch=6 n=f#3 v=0
716400 On ch=6 n=g3 v=79
716880 On ch=6 n=g3 v=0
716880 On ch=6 n=g2 v=76
717240 On ch=6 n=g2 v=0
717360 On ch=6 n=d4 v=55
717820 On ch=6 n=d4 v=0
717840 On ch=6 n=e4 v=54
718320 On ch=6 n=e4 v=0
718320 On ch=6 n=d4 v=52
718780 On ch=6 n=d4 v=0
718800 On ch=6 n=g3 v=51
719260 On ch=6 n=g3 v=0
719280 On ch=6 n=c4 v=50
719740 On ch=6 n=c4 v=0
719760 On ch=6 n=d4 v=48
720220 On ch=6 n=d4 v=0
720240 On ch=6 n=g4 v=47
720360 On ch=6 n=d5 v=47
720480 On ch=6 n=d5 v=0
720480 On ch=6 n=g4 v=0
720480 On ch=6 n=c5 v=47
720600 On ch=6 n=c5 v=0
720600 On ch=6 n=b4 v=46
720720 On ch=6 n=b4 v=0
720720 On ch=6 n=a4 v=46
720840 On ch=6 n=a4 v=0
720840 On ch=6 n=g4 v=46
720960 On ch=6 n=g4 v=0
720960 On ch=6 n=f#4 v=46
721080 On ch=6 n=f#4 v=0
721080 On ch=6 n=e4 v=46
721200 On ch=6 n=e4 v=0
721200 On ch=6 n=d4 v=81
721440 On ch=6 n=d4 v=0
721440 On ch=6 n=e4 v=80
721560 On ch=6 n=e4 v=0
721560 On ch=6 n=d4 v=79
721680 On ch=6 n=d4 v=0
721680 On ch=6 n=b3 v=79
721800 On ch=6 n=b3 v=0
721920 On ch=6 n=c#4 v=78
722040 On ch=6 n=c#4 v=0
722160 On ch=6 n=d4 v=76
722640 On ch=6 n=d4 v=0
722640 On ch=6 n=d3 v=72
723000 On ch=6 n=d3 v=0
723120 On ch=6 n=d6 v=47
723360 On ch=6 n=d6 v=0
723360 On ch=6 n=d6 v=46
723600 On ch=6 n=d6 v=0
723600 On ch=6 n=e6 v=45
723840 On ch=6 n=e6 v=0
723840 On ch=6 n=e6 v=44
724080 On ch=6 n=e6 v=0
724080 On ch=6 n=d6 v=43
724320 On ch=6 n=d6 v=0
724980 On ch=6 n=f#3 v=73
725040 On ch=6 n=f#3 v=0
725040 On ch=6 n=e3 v=73
725160 On ch=6 n=e3 v=0
725280 On ch=6 n=d3 v=72
725400 On ch=6 n=d3 v=0
725520 On ch=6 n=e3 v=71
725640 On ch=6 n=e3 v=0
725760 On ch=6 n=f#3 v=69
725880 On ch=6 n=f#3 v=0
726000 On ch=6 n=g3 v=68
726480 On ch=6 n=g3 v=0
726480 On ch=6 n=g2 v=64
726840 On ch=6 n=g2 v=0
726960 On ch=6 n=c6 v=43
727190 On ch=6 n=c6 v=0
727200 On ch=6 n=b5 v=42
727430 On ch=6 n=b5 v=0
727440 On ch=6 n=c6 v=42
727670 On ch=6 n=c6 v=0
727680 On ch=6 n=a5 v=41
727910 On ch=6 n=a5 v=0
727920 On ch=6 n=b5 v=40
728160 On ch=6 n=b5 v=0
728880 On ch=6 n=c5 v=41
729110 On ch=6 n=c5 v=0
729120 On ch=6 n=b4 v=40
729350 On ch=6 n=b4 v=0
729360 On ch=6 n=c5 v=39
729590 On ch=6 n=c5 v=0
729600 On ch=6 n=a4 v=40
729830 On ch=6 n=a4 v=0
729840 On ch=6 n=b4 v=40
730070 On ch=6 n=b4 v=0
730080 On ch=6 n=b4 v=41
730310 On ch=6 n=b4 v=0
730320 On ch=6 n=g4 v=42
730550 On ch=6 n=g4 v=0
730560 On ch=6 n=g4 v=42
730790 On ch=6 n=g4 v=0
730800 On ch=6 n=c5 v=43
731020 On ch=6 n=c5 v=0
731040 On ch=6 n=c5 v=44
731260 On ch=6 n=c5 v=0
731280 On ch=6 n=d5 v=45
731500 On ch=6 n=d5 v=0
731520 On ch=6 n=d5 v=45
731740 On ch=6 n=d5 v=0
731760 On ch=6 n=g4 v=46
731980 On ch=6 n=g4 v=0
732000 On ch=6 n=g4 v=47
732220 On ch=6 n=g4 v=0
732240 On ch=6 n=b4 v=47
732460 On ch=6 n=b4 v=0
732480 On ch=6 n=b4 v=48
732700 On ch=6 n=b4 v=0
732720 On ch=6 n=c5 v=49
732940 On ch=6 n=c5 v=0
732960 On ch=6 n=c5 v=49
733180 On ch=6 n=c5 v=0
733200 On ch=6 n=d5 v=50
733420 On ch=6 n=d5 v=0
733440 On ch=6 n=d5 v=51
733660 On ch=6 n=d5 v=0
733680 On ch=6 n=g4 v=51
733900 On ch=6 n=g4 v=0
733920 On ch=6 n=g4 v=52
734140 On ch=6 n=g4 v=0
734160 On ch=6 n=b4 v=53
734380 On ch=6 n=b4 v=0
734400 On ch=6 n=b4 v=54
734620 On ch=6 n=b4 v=0
734640 On ch=6 n=c5 v=54
734860 On ch=6 n=c5 v=0
734880 On ch=6 n=c5 v=55
735100 On ch=6 n=c5 v=0
735120 On ch=6 n=d5 v=56
735340 On ch=6 n=d5 v=0
735360 On ch=6 n=d5 v=56
735580 On ch=6 n=d5 v=0
735600 On ch=6 n=g4 v=57
735820 On ch=6 n=g4 v=0
735840 On ch=6 n=g4 v=58
736060 On ch=6 n=g4 v=0
736080 On ch=6 n=b4 v=58
736300 On ch=6 n=b4 v=0
736320 On ch=6 n=b4 v=59
736540 On ch=6 n=b4 v=0
736560 On ch=6 n=c5 v=60
736780 On ch=6 n=c5 v=0
736800 On ch=6 n=c5 v=60
737020 On ch=6 n=c5 v=0
737040 On ch=6 n=d5 v=61
737270 On ch=6 n=d5 v=0
737280 On ch=6 n=d5 v=62
737510 On ch=6 n=d5 v=0
737520 On ch=6 n=g4 v=63
737990 On ch=6 n=g4 v=0
738000 On ch=6 n=g4 v=61
738470 On ch=6 n=g4 v=0
738480 On ch=6 n=g4 v=65
738950 On ch=6 n=g4 v=0
738960 On ch=6 n=g4 v=70
739430 On ch=6 n=g4 v=0
739440 On ch=6 n=g4 v=74
739910 On ch=6 n=g4 v=0
739920 On ch=6 n=g4 v=79
740390 On ch=6 n=g4 v=0
740400 On ch=6 n=g4 v=84
740870 On ch=6 n=g4 v=0
740880 On ch=6 n=d4 v=70
741350 On ch=6 n=d4 v=0
741360 On ch=6 n=g3 v=56
741600 On ch=6 n=g3 v=0
741600 Meta TrkEnd
TrkEnd
