MFile 1 6 480
MTrk
0 TimeSig 4/4 24 8
0 Tempo 600000
960 Tempo 1666666
1800 Tempo 1818181
1920 Tempo 1578947
2415 Tempo 1764705
2820 Tempo 1818181
3240 Tempo 1935483
3367 Tempo 2068965
3720 Tempo 2400000
3960 Tempo 2727272
4320 Tempo 689655
7200 Tempo 508474
7680 Tempo 500000
9480 Tempo 508474
9600 Tempo 500000
13320 Tempo 504201
14760 Tempo 517241
14880 Tempo 500000
16680 Tempo 508474
16800 Tempo 500000
18600 Tempo 508474
18720 Tempo 500000
22920 Tempo 508474
23040 Tempo 500000
26760 Tempo 508474
26880 Tempo 500000
29640 Tempo 508474
29760 Tempo 500000
31560 Tempo 508474
32520 Tempo 526315
32640 Tempo 508474
35940 Tempo 512820
36360 Tempo 517241
36480 Tempo 500000
40200 Tempo 508474
40320 Tempo 500000
44040 Tempo 508474
44160 Tempo 500000
47955 Tempo 504201
48000 Tempo 500000
49860 Tempo 504201
51600 Tempo 508474
51720 Tempo 517241
51840 Tempo 535714
52800 Tempo 508474
56040 Tempo 517241
56160 Tempo 508474
58440 Tempo 517241
60360 Tempo 526315
60480 Tempo 508474
62280 Tempo 517241
64200 Tempo 526315
64320 Tempo 508474
71880 Tempo 517241
72360 Tempo 526315
72480 Tempo 508474
72900 Tempo 517241
72960 Tempo 500000
74760 Tempo 508474
74880 Tempo 500000
78660 Tempo 504201
80040 Tempo 517241
80160 Tempo 500000
81960 Tempo 508474
82080 Tempo 500000
83880 Tempo 508474
84000 Tempo 500000
88200 Tempo 508474
88320 Tempo 500000
92040 Tempo 508474
92160 Tempo 500000
94920 Tempo 508474
95040 Tempo 500000
96840 Tempo 508474
97800 Tempo 526315
97920 Tempo 508474
101220 Tempo 517241
101640 Tempo 517241
101760 Tempo 500000
105480 Tempo 508474
105600 Tempo 500000
109320 Tempo 508474
109440 Tempo 500000
113220 Tempo 504201
113280 Tempo 500000
115140 Tempo 504201
116880 Tempo 508474
117000 Tempo 517241
117120 Tempo 535714
118080 Tempo 508474
121320 Tempo 517241
121440 Tempo 508474
123720 Tempo 517241
125640 Tempo 526315
125760 Tempo 508474
127560 Tempo 517241
129480 Tempo 526315
129600 Tempo 508474
137160 Tempo 517241
137640 Tempo 526315
138000 Tempo 535714
138120 Tempo 550458
138240 Tempo 500000
140040 Tempo 508474
140160 Tempo 500000
142020 Tempo 508474
142080 Tempo 500000
143940 Tempo 508474
144000 Tempo 500000
146280 Tempo 508474
146400 Tempo 500000
147720 Tempo 508474
147840 Tempo 500000
149700 Tempo 508474
149760 Tempo 500000
165540 Tempo 504201
165600 Tempo 500000
167940 Tempo 504201
168720 Tempo 508474
168840 Tempo 526315
168960 Tempo 508474
170820 Tempo 508474
170880 Tempo 500000
172560 Tempo 517241
172680 Tempo 540540
172800 Tempo 500000
174586 Tempo 508474
174735 Tempo 500000
178500 Tempo 504201
179866 Tempo 517241
180016 Tempo 500000
181786 Tempo 508474
181906 Tempo 500000
183706 Tempo 508474
183826 Tempo 500000
185626 Tempo 508474
185746 Tempo 500000
187546 Tempo 508474
187666 Tempo 500000
191866 Tempo 508474
191986 Tempo 500000
195706 Tempo 508474
195826 Tempo 500000
199546 Tempo 508474
199666 Tempo 500000
203386 Tempo 508474
203506 Tempo 500000
205306 Tempo 508474
205426 Tempo 500000
208186 Tempo 508474
208306 Tempo 500000
210106 Tempo 508474
211066 Tempo 526315
211200 Tempo 508474
214500 Tempo 504201
214906 Tempo 517241
215055 Tempo 500000
218820 Tempo 508474
218880 Tempo 500000
222660 Tempo 508474
222720 Tempo 500000
226500 Tempo 504201
226560 Tempo 500000
228420 Tempo 504201
230146 Tempo 508474
230266 Tempo 517241
230386 Tempo 508474
230866 Tempo 517241
231346 Tempo 508474
234586 Tempo 517241
234706 Tempo 508474
236986 Tempo 517241
238906 Tempo 526315
239026 Tempo 508474
240826 Tempo 517241
242746 Tempo 526315
242866 Tempo 508474
251446 Tempo 508474
251535 Tempo 500000
253366 Tempo 508474
253455 Tempo 500000
258106 Tempo 508474
258226 Tempo 500000
264706 Tempo 508474
264826 Tempo 526315
264960 Tempo 550458
265440 Tempo 526315
265440 Meta Marker "New Marker 10 copy"
265800 Tempo 517241
266280 Tempo 526315
266640 Tempo 535714
266760 Tempo 550458
266880 Tempo 500000
268680 Tempo 508474
268800 Tempo 500000
270660 Tempo 508474
270720 Tempo 500000
272580 Tempo 508474
272640 Tempo 500000
274920 Tempo 508474
275040 Tempo 500000
276360 Tempo 508474
276480 Tempo 500000
278340 Tempo 508474
278400 Tempo 500000
294180 Tempo 504201
294240 Tempo 500000
296580 Tempo 504201
297360 Tempo 508474
297480 Tempo 526315
297600 Tempo 508474
299460 Tempo 508474
299520 Tempo 500000
301200 Tempo 517241
301320 Tempo 540540
301440 Tempo 500000
303226 Tempo 508474
303375 Tempo 500000
307140 Tempo 504201
308506 Tempo 517241
308656 Tempo 500000
310426 Tempo 508474
310546 Tempo 500000
312346 Tempo 508474
312466 Tempo 500000
314266 Tempo 508474
314386 Tempo 500000
316186 Tempo 508474
316306 Tempo 500000
320506 Tempo 508474
320626 Tempo 500000
324346 Tempo 508474
324466 Tempo 500000
328186 Tempo 508474
328306 Tempo 500000
332026 Tempo 508474
332146 Tempo 500000
333946 Tempo 508474
334066 Tempo 500000
336826 Tempo 508474
336946 Tempo 500000
338746 Tempo 508474
339706 Tempo 526315
339840 Tempo 508474
343140 Tempo 504201
343546 Tempo 517241
343695 Tempo 500000
347460 Tempo 508474
347520 Tempo 500000
351300 Tempo 508474
351360 Tempo 500000
355140 Tempo 504201
355200 Tempo 500000
357060 Tempo 504201
358786 Tempo 508474
358906 Tempo 517241
359026 Tempo 508474
359506 Tempo 517241
359986 Tempo 508474
363226 Tempo 517241
363346 Tempo 508474
365626 Tempo 517241
367546 Tempo 526315
367666 Tempo 508474
369466 Tempo 517241
371386 Tempo 526315
371506 Tempo 508474
380086 Tempo 508474
380175 Tempo 500000
382006 Tempo 508474
382095 Tempo 500000
386746 Tempo 508474
386866 Tempo 500000
393346 Tempo 508474
393466 Tempo 526315
393600 Tempo 674157
395520 TimeSig 2/4 24 8
395520 Tempo 1071428
395520 Meta Marker "<2>"
396480 Tempo 377358
397200 Tempo 379746
397440 Tempo 384615
398280 Tempo 389610
399840 Tempo 408163
400320 Tempo 377358
401040 Tempo 379746
401280 Tempo 384615
402180 Tempo 389610
403680 Tempo 408163
404160 Tempo 377358
404880 Tempo 379746
405120 Tempo 384615
406020 Tempo 389610
406980 Tempo 394736
407160 Tempo 377358
410760 Tempo 379746
410990 Tempo 372670
416390 Tempo 379746
416520 Tempo 384615
416640 Tempo 394736
416870 Tempo 379746
417000 Tempo 377358
425640 Tempo 379746
425880 Tempo 384615
426000 Tempo 413793
426120 Tempo 625000
426240 Tempo 377358
426960 Tempo 379746
427200 Tempo 384615
428100 Tempo 389610
429600 Tempo 408163
430080 Tempo 377358
430800 Tempo 379746
431040 Tempo 384615
431940 Tempo 389610
433440 Tempo 408163
433920 Tempo 377358
434660 Tempo 379746
434880 Tempo 384615
435780 Tempo 389610
436740 Tempo 394736
436920 Tempo 377358
440520 Tempo 377358
440770 Tempo 372670
444300 Tempo 379746
444360 Tempo 384615
444480 Tempo 394736
444720 Tempo 379746
444840 Tempo 377358
450000 Tempo 379746
450120 Tempo 389610
450380 Tempo 377358
452040 Tempo 379746
452160 Tempo 394736
452400 Tempo 377358
453960 Tempo 379746
454180 Tempo 377358
455880 Tempo 379746
456000 Tempo 394736
456240 Tempo 377358
457800 Tempo 379746
458040 Tempo 377358
461640 Tempo 379746
461880 Tempo 377358
465480 Tempo 379746
466200 Tempo 384615
466320 Tempo 394736
466440 Tempo 428571
466560 Tempo 461538
467290 Tempo 379746
467400 Tempo 377358
480600 Tempo 379746
480720 Tempo 402684
480840 Tempo 600000
480960 Tempo 377358
481700 Tempo 379746
481920 Tempo 384615
482820 Tempo 389610
484320 Tempo 408163
484800 Tempo 377358
485530 Tempo 379746
485760 Tempo 384615
486660 Tempo 389610
488160 Tempo 408163
488640 Tempo 377358
489350 Tempo 379746
489600 Tempo 384615
490500 Tempo 389610
491400 Tempo 394736
491630 Tempo 377358
495240 Tempo 379746
495490 Tempo 377358
501000 Tempo 379746
501120 Tempo 394736
501350 Tempo 379746
501480 Tempo 377358
506640 Tempo 379746
506760 Tempo 389610
507000 Tempo 377358
508680 Tempo 379746
508800 Tempo 394736
509030 Tempo 377358
510600 Tempo 379746
510860 Tempo 377358
512520 Tempo 379746
512640 Tempo 394736
512890 Tempo 377358
514440 Tempo 379746
514680 Tempo 377358
518280 Tempo 379746
518530 Tempo 377358
522840 Tempo 379746
522960 Tempo 389610
523080 Tempo 413793
523200 Tempo 461538
523920 Tempo 379746
524040 Tempo 377358
539160 Tempo 379746
539280 Tempo 394736
539400 Tempo 582524
539520 Tempo 377358
540240 Tempo 379746
540480 Tempo 384615
541380 Tempo 389610
542880 Tempo 408163
543360 Tempo 377358
544090 Tempo 379746
544320 Tempo 384615
545220 Tempo 389610
546720 Tempo 408163
547200 Tempo 377358
547940 Tempo 379746
548160 Tempo 384615
549060 Tempo 389610
561480 Tempo 394736
561660 Tempo 384615
562080 Tempo 402684
562560 Tempo 413793
562920 Tempo 434782
563040 Tempo 465116
563280 Tempo 588235
563520 Tempo 389610
566400 Tempo 419580
567360 Tempo 408163
567480 Tempo 402684
570480 Tempo 408163
570620 Tempo 419580
570720 Tempo 588235
571200 Tempo 750000
572160 Tempo 379746
572280 Tempo 377358
573960 Tempo 379746
574140 Tempo 377358
575880 Tempo 379746
576600 Tempo 384615
576720 Tempo 394736
576840 Tempo 582524
576960 Tempo 895522
576960 Meta TrkEnd
TrkEnd
MTrk
0 SeqSpec 43 00 01 00
0 Meta TrkName "No Name"
0 Par ch=2 c=0 v=0
0 Par ch=2 c=32 v=0
0 PrCh ch=2 p=0
0 Par ch=2 c=7 v=127
0 Pb ch=2 v=8192
0 Par ch=2 c=1 v=0
0 Par ch=2 c=64 v=0
0 Par ch=2 c=93 v=28
0 Par ch=2 c=91 v=100
0 Par ch=2 c=10 v=73
960 On ch=2 n=c#5 v=42
1440 On ch=2 n=c#5 v=0
1440 On ch=2 n=f#5 v=44
1800 On ch=2 n=f#5 v=0
1800 On ch=2 n=g#5 v=45
1920 On ch=2 n=g#5 v=0
1920 On ch=2 n=g#5 v=46
2400 On ch=2 n=g#5 v=0
2400 On ch=2 n=a#5 v=47
2616 On ch=2 n=a#5 v=0
2640 On ch=2 n=a#5 v=48
2880 On ch=2 n=a#5 v=0
2880 On ch=2 n=b5 v=50
3000 On ch=2 n=b5 v=0
3000 On ch=2 n=c#6 v=51
3040 On ch=2 n=c#6 v=0
3040 On ch=2 n=b5 v=51
3080 On ch=2 n=b5 v=0
3080 On ch=2 n=a#5 v=51
3120 On ch=2 n=a#5 v=0
3120 On ch=2 n=b5 v=51
3240 On ch=2 n=b5 v=0
3240 On ch=2 n=c#6 v=52
3360 On ch=2 n=c#6 v=0
3360 On ch=2 n=d#6 v=53
3684 On ch=2 n=d#6 v=0
3720 On ch=2 n=c#6 v=50
3828 On ch=2 n=c#6 v=0
3840 On ch=2 n=b5 v=47
3894 On ch=2 n=b5 v=0
3900 On ch=2 n=a#5 v=45
3954 On ch=2 n=a#5 v=0
3960 On ch=2 n=d#6 v=44
4014 On ch=2 n=d#6 v=0
4020 On ch=2 n=c#6 v=42
4074 On ch=2 n=c#6 v=0
4080 On ch=2 n=c#6 v=40
7080 On ch=2 n=c#6 v=0
7200 On ch=2 n=a#5 v=42
7560 On ch=2 n=a#5 v=0
7560 On ch=2 n=b5 v=44
7680 On ch=2 n=b5 v=0
7680 On ch=2 n=c#6 v=46
8160 On ch=2 n=c#6 v=0
8160 On ch=2 n=f#5 v=42
8640 On ch=2 n=f#5 v=0
8640 On ch=2 n=f5 v=45
9120 On ch=2 n=f5 v=0
9120 On ch=2 n=f#5 v=48
9600 On ch=2 n=f#5 v=0
9600 On ch=2 n=b5 v=51
11040 On ch=2 n=b5 v=0
11040 On ch=2 n=g#5 v=44
11520 On ch=2 n=g#5 v=0
11520 On ch=2 n=a#5 v=44
12000 On ch=2 n=a#5 v=0
12000 On ch=2 n=d#6 v=46
12480 On ch=2 n=d#6 v=0
12480 On ch=2 n=c#6 v=49
12960 On ch=2 n=c#6 v=0
12960 On ch=2 n=f#6 v=51
13440 On ch=2 n=f#6 v=0
13440 On ch=2 n=f6 v=55
13920 On ch=2 n=f6 v=0
13920 On ch=2 n=d#6 v=51
14400 On ch=2 n=d#6 v=0
14400 On ch=2 n=c#6 v=46
14880 On ch=2 n=c#6 v=0
14880 On ch=2 n=a#5 v=42
15000 On ch=2 n=a#5 v=0
15000 On ch=2 n=b5 v=42
15120 On ch=2 n=b5 v=0
15120 On ch=2 n=a#5 v=43
15240 On ch=2 n=a#5 v=0
15240 On ch=2 n=f#5 v=43
15360 On ch=2 n=f#5 v=0
15360 On ch=2 n=b5 v=43
15480 On ch=2 n=b5 v=0
15480 On ch=2 n=c#6 v=44
15600 On ch=2 n=c#6 v=0
15600 On ch=2 n=b5 v=44
15720 On ch=2 n=b5 v=0
15720 On ch=2 n=g#5 v=44
15840 On ch=2 n=g#5 v=0
15840 On ch=2 n=f5 v=45
16320 On ch=2 n=f5 v=0
16800 On ch=2 n=b5 v=47
16920 On ch=2 n=b5 v=0
16920 On ch=2 n=c#6 v=48
17040 On ch=2 n=c#6 v=0
17040 On ch=2 n=b5 v=48
17160 On ch=2 n=b5 v=0
17160 On ch=2 n=g#5 v=48
17280 On ch=2 n=g#5 v=0
17280 On ch=2 n=c#6 v=49
17400 On ch=2 n=c#6 v=0
17400 On ch=2 n=d#6 v=49
17520 On ch=2 n=d#6 v=0
17520 On ch=2 n=c#6 v=49
17640 On ch=2 n=c#6 v=0
17640 On ch=2 n=a#5 v=50
17760 On ch=2 n=a#5 v=0
17760 On ch=2 n=f#5 v=50
18240 On ch=2 n=f#5 v=0
18720 On ch=2 n=f#6 v=53
18880 On ch=2 n=f#6 v=0
18880 On ch=2 n=f6 v=53
19040 On ch=2 n=f6 v=0
19040 On ch=2 n=d#6 v=54
19200 On ch=2 n=d#6 v=0
19200 On ch=2 n=c#6 v=54
19360 On ch=2 n=c#6 v=0
19360 On ch=2 n=b5 v=55
19520 On ch=2 n=b5 v=0
19520 On ch=2 n=a#5 v=55
19680 On ch=2 n=a#5 v=0
19680 On ch=2 n=g#5 v=56
19840 On ch=2 n=g#5 v=0
19840 On ch=2 n=f#5 v=56
20000 On ch=2 n=f#5 v=0
20000 On ch=2 n=f5 v=57
20160 On ch=2 n=f5 v=0
20160 On ch=2 n=d#5 v=57
20320 On ch=2 n=d#5 v=0
20320 On ch=2 n=c#5 v=57
20480 On ch=2 n=c#5 v=0
20480 On ch=2 n=c5 v=58
20640 On ch=2 n=c5 v=0
20640 On ch=2 n=c#5 v=58
20800 On ch=2 n=c#5 v=0
20800 On ch=2 n=d#5 v=59
20960 On ch=2 n=d#5 v=0
20960 On ch=2 n=f5 v=59
21120 On ch=2 n=f5 v=0
21120 On ch=2 n=f#5 v=53
21600 On ch=2 n=f#5 v=0
21600 On ch=2 n=g#5 v=49
22080 On ch=2 n=g#5 v=0
22080 On ch=2 n=a#5 v=45
22560 On ch=2 n=a#5 v=0
23040 On ch=2 n=a#5 v=44
23520 On ch=2 n=a#5 v=0
24000 On ch=2 n=b5 v=47
24480 On ch=2 n=b5 v=0
24960 On ch=2 n=g#5 v=51
25440 On ch=2 n=g#5 v=0
25440 On ch=2 n=a#5 v=49
25920 On ch=2 n=a#5 v=0
25920 On ch=2 n=b5 v=45
26400 On ch=2 n=b5 v=0
26880 On ch=2 n=b5 v=46
27360 On ch=2 n=b5 v=0
27840 On ch=2 n=c#6 v=50
28320 On ch=2 n=c#6 v=0
28800 On ch=2 n=a#5 v=55
29280 On ch=2 n=a#5 v=0
29280 On ch=2 n=c#6 v=50
29400 On ch=2 n=c#6 v=0
29400 On ch=2 n=d#6 v=54
29520 On ch=2 n=d#6 v=0
29520 On ch=2 n=c#6 v=57
29640 On ch=2 n=c#6 v=0
29640 On ch=2 n=a#5 v=60
29760 On ch=2 n=a#5 v=0
29760 On ch=2 n=f#6 v=67
31200 On ch=2 n=f#6 v=0
31200 On ch=2 n=f6 v=62
31320 On ch=2 n=f6 v=0
31320 On ch=2 n=f#6 v=63
31360 On ch=2 n=f#6 v=0
31360 On ch=2 n=f6 v=64
31400 On ch=2 n=f6 v=0
31400 On ch=2 n=d#6 v=64
31440 On ch=2 n=d#6 v=0
31440 On ch=2 n=f6 v=65
31560 On ch=2 n=f6 v=0
31560 On ch=2 n=f#6 v=66
31680 On ch=2 n=f#6 v=0
31680 On ch=2 n=g#6 v=68
32160 On ch=2 n=g#6 v=0
32160 On ch=2 n=f6 v=60
32640 On ch=2 n=f6 v=0
32640 On ch=2 n=d6 v=55
33000 On ch=2 n=d6 v=0
33000 On ch=2 n=d6 v=55
33120 On ch=2 n=d6 v=0
33120 On ch=2 n=d6 v=55
33480 On ch=2 n=d6 v=0
33480 On ch=2 n=d6 v=54
33600 On ch=2 n=d6 v=0
33600 On ch=2 n=d6 v=54
33960 On ch=2 n=d6 v=0
33960 On ch=2 n=d6 v=54
34080 On ch=2 n=d6 v=0
34080 On ch=2 n=d6 v=54
34440 On ch=2 n=d6 v=0
34440 On ch=2 n=d6 v=53
34560 On ch=2 n=d6 v=0
34560 On ch=2 n=d#6 v=53
34920 On ch=2 n=d#6 v=0
34920 On ch=2 n=d#6 v=53
35040 On ch=2 n=d#6 v=0
35040 On ch=2 n=f6 v=53
35400 On ch=2 n=f6 v=0
35400 On ch=2 n=f6 v=52
35520 On ch=2 n=f6 v=0
35520 On ch=2 n=f#6 v=52
35880 On ch=2 n=f#6 v=0
35880 On ch=2 n=f#6 v=52
36000 On ch=2 n=f#6 v=0
36000 Par ch=2 c=64 v=127
36000 On ch=2 n=d#7 v=52
36120 On ch=2 n=d#7 v=0
36120 On ch=2 n=a#6 v=52
36240 On ch=2 n=a#6 v=0
36240 On ch=2 n=f#6 v=52
36360 On ch=2 n=f#6 v=0
36360 On ch=2 n=d#6 v=52
36480 On ch=2 n=d#6 v=0
36480 Par ch=2 c=64 v=0
36480 On ch=2 n=c7 v=51
36840 On ch=2 n=c7 v=0
36840 On ch=2 n=c7 v=51
36960 On ch=2 n=c7 v=0
36960 On ch=2 n=d#7 v=51
37320 On ch=2 n=d#7 v=0
37320 On ch=2 n=c#7 v=51
37440 On ch=2 n=c#7 v=0
37440 On ch=2 n=c7 v=50
37800 On ch=2 n=c7 v=0
37800 On ch=2 n=c7 v=50
37920 On ch=2 n=c7 v=0
37920 On ch=2 n=d#7 v=50
38280 On ch=2 n=d#7 v=0
38280 On ch=2 n=c#7 v=50
38400 On ch=2 n=c#7 v=0
38400 On ch=2 n=c7 v=49
38760 On ch=2 n=c7 v=0
38760 On ch=2 n=c7 v=49
38880 On ch=2 n=c7 v=0
38880 On ch=2 n=c#7 v=49
39240 On ch=2 n=c#7 v=0
39240 On ch=2 n=c#7 v=49
39360 On ch=2 n=c#7 v=0
39360 On ch=2 n=g#6 v=48
39720 On ch=2 n=g#6 v=0
39720 On ch=2 n=g#6 v=48
39840 On ch=2 n=g#6 v=0
39840 On ch=2 n=a#6 v=48
40200 On ch=2 n=a#6 v=0
40200 On ch=2 n=a#6 v=48
40320 On ch=2 n=a#6 v=0
40320 On ch=2 n=c7 v=47
40680 On ch=2 n=c7 v=0
40680 On ch=2 n=c7 v=47
40800 On ch=2 n=c7 v=0
40800 On ch=2 n=d#7 v=47
41160 On ch=2 n=d#7 v=0
41160 On ch=2 n=c#7 v=47
41280 On ch=2 n=c#7 v=0
41280 On ch=2 n=c7 v=47
41640 On ch=2 n=c7 v=0
41640 On ch=2 n=c7 v=46
41760 On ch=2 n=c7 v=0
41760 On ch=2 n=d#7 v=46
42120 On ch=2 n=d#7 v=0
42120 On ch=2 n=c#7 v=46
42240 On ch=2 n=c#7 v=0
42240 On ch=2 n=c7 v=46
42600 On ch=2 n=c7 v=0
42600 On ch=2 n=c7 v=45
42720 On ch=2 n=c7 v=0
42720 On ch=2 n=d#7 v=45
43080 On ch=2 n=d#7 v=0
43080 On ch=2 n=d#7 v=45
43200 On ch=2 n=d#7 v=0
43200 On ch=2 n=g#6 v=45
43560 On ch=2 n=g#6 v=0
43560 On ch=2 n=g#6 v=44
43680 On ch=2 n=g#6 v=0
43680 On ch=2 n=a#6 v=44
44040 On ch=2 n=a#6 v=0
44040 On ch=2 n=a#6 v=44
44160 On ch=2 n=a#6 v=0
44160 On ch=2 n=c7 v=44
44520 On ch=2 n=c7 v=0
44520 On ch=2 n=c7 v=47
44640 On ch=2 n=c7 v=0
44640 On ch=2 n=c#7 v=48
45000 On ch=2 n=c#7 v=0
45000 On ch=2 n=c#7 v=51
45120 On ch=2 n=c#7 v=0
45120 On ch=2 n=c#7 v=52
45480 On ch=2 n=c#7 v=0
45480 On ch=2 n=c#7 v=54
45600 On ch=2 n=c#7 v=0
45600 On ch=2 n=c#7 v=55
45960 On ch=2 n=c#7 v=0
45960 On ch=2 n=c#7 v=58
46080 On ch=2 n=c#7 v=0
46080 On ch=2 n=c#7 v=59
46440 On ch=2 n=c#7 v=0
46440 On ch=2 n=c#7 v=62
46560 On ch=2 n=c#7 v=0
46560 On ch=2 n=c#7 v=63
46920 On ch=2 n=c#7 v=0
46920 On ch=2 n=c#7 v=66
47040 On ch=2 n=c#7 v=0
47040 On ch=2 n=c#7 v=67
47400 On ch=2 n=c#7 v=0
47400 On ch=2 n=c#7 v=70
47520 On ch=2 n=c#7 v=0
47520 On ch=2 n=c#7 v=71
47880 On ch=2 n=c#7 v=0
47880 On ch=2 n=c#7 v=74
48000 On ch=2 n=c#7 v=0
48000 On ch=2 n=c#7 v=75
48360 On ch=2 n=c#7 v=0
48360 On ch=2 n=c#7 v=78
48480 On ch=2 n=c#7 v=0
48480 On ch=2 n=c#7 v=79
48840 On ch=2 n=c#7 v=0
48840 On ch=2 n=c#7 v=82
48960 On ch=2 n=c#7 v=0
48960 On ch=2 n=c#7 v=83
49320 On ch=2 n=c#7 v=0
49320 On ch=2 n=c#7 v=86
49440 On ch=2 n=c#7 v=0
49440 On ch=2 n=c#7 v=87
49800 On ch=2 n=c#7 v=0
49800 On ch=2 n=c#7 v=90
49920 On ch=2 n=c#7 v=0
49920 On ch=2 n=c#7 v=92
50280 On ch=2 n=c#7 v=0
50280 On ch=2 n=c#7 v=93
50400 On ch=2 n=c#7 v=0
50400 On ch=2 n=c#7 v=93
50760 On ch=2 n=c#7 v=0
50760 On ch=2 n=c#7 v=95
50880 On ch=2 n=c#7 v=0
50880 On ch=2 n=c7 v=95
51240 On ch=2 n=c7 v=0
51240 On ch=2 n=c7 v=97
51360 On ch=2 n=c7 v=0
51360 On ch=2 n=c7 v=97
51720 On ch=2 n=c7 v=0
51720 On ch=2 n=c7 v=97
51840 On ch=2 n=c7 v=0
51840 On ch=2 n=c#7 v=95
52320 On ch=2 n=c#7 v=0
52800 On ch=2 n=f6 v=48
52960 On ch=2 n=f6 v=0
52960 On ch=2 n=c#6 v=48
53120 On ch=2 n=c#6 v=0
53120 On ch=2 n=g#5 v=49
53280 On ch=2 n=g#5 v=0
53280 On ch=2 n=a#5 v=50
53440 On ch=2 n=a#5 v=0
53440 On ch=2 n=c#6 v=50
53600 On ch=2 n=c#6 v=0
53600 On ch=2 n=a#5 v=51
53760 On ch=2 n=a#5 v=0
53760 On ch=2 n=g#5 v=52
53920 On ch=2 n=g#5 v=0
53920 On ch=2 n=c#6 v=52
54080 On ch=2 n=c#6 v=0
54080 On ch=2 n=d#6 v=53
54240 On ch=2 n=d#6 v=0
54240 On ch=2 n=f6 v=53
54400 On ch=2 n=f6 v=0
54400 On ch=2 n=c#6 v=54
54560 On ch=2 n=c#6 v=0
54560 On ch=2 n=g#6 v=55
54720 On ch=2 n=g#6 v=0
54720 On ch=2 n=f6 v=55
54880 On ch=2 n=f6 v=0
54880 On ch=2 n=c#6 v=53
55040 On ch=2 n=c#6 v=0
55040 On ch=2 n=g#5 v=52
55200 On ch=2 n=g#5 v=0
55200 On ch=2 n=f#5 v=51
55360 On ch=2 n=f#5 v=0
55360 On ch=2 n=d#5 v=50
55520 On ch=2 n=d#5 v=0
55520 On ch=2 n=g#5 v=50
55680 On ch=2 n=g#5 v=0
55680 On ch=2 n=f5 v=49
56160 On ch=2 n=f5 v=0
56160 On ch=2 n=g#5 v=50
56320 On ch=2 n=g#5 v=0
56320 On ch=2 n=c#6 v=51
56480 On ch=2 n=c#6 v=0
56480 On ch=2 n=d#6 v=52
56640 On ch=2 n=d#6 v=0
56640 On ch=2 n=f6 v=53
56800 On ch=2 n=f6 v=0
56800 On ch=2 n=c#6 v=55
56960 On ch=2 n=c#6 v=0
56960 On ch=2 n=g#5 v=56
57120 On ch=2 n=g#5 v=0
57120 On ch=2 n=a#5 v=57
57280 On ch=2 n=a#5 v=0
57280 On ch=2 n=c#6 v=58
57440 On ch=2 n=c#6 v=0
57440 On ch=2 n=a#5 v=59
57600 On ch=2 n=a#5 v=0
57600 On ch=2 n=g#5 v=60
57760 On ch=2 n=g#5 v=0
57760 On ch=2 n=c#6 v=61
57920 On ch=2 n=c#6 v=0
57920 On ch=2 n=d#6 v=62
58080 On ch=2 n=d#6 v=0
58080 On ch=2 n=f6 v=63
58240 On ch=2 n=f6 v=0
58240 On ch=2 n=c#6 v=64
58400 On ch=2 n=c#6 v=0
58400 On ch=2 n=g#6 v=65
58560 On ch=2 n=g#6 v=0
58560 On ch=2 n=d6 v=85
59040 On ch=2 n=d6 v=0
59040 On ch=2 n=d#6 v=82
59520 On ch=2 n=d#6 v=0
59520 On ch=2 n=c6 v=79
60480 On ch=2 n=c6 v=0
60480 On ch=2 n=f#5 v=61
60600 On ch=2 n=f#5 v=0
60600 On ch=2 n=g#5 v=62
60720 On ch=2 n=g#5 v=0
60720 On ch=2 n=f#5 v=63
60840 On ch=2 n=f#5 v=0
60840 On ch=2 n=f5 v=64
60960 On ch=2 n=f5 v=0
60960 On ch=2 n=f#5 v=64
61080 On ch=2 n=f#5 v=0
61080 On ch=2 n=d#6 v=65
61200 On ch=2 n=d#6 v=0
61200 On ch=2 n=c#6 v=66
61320 On ch=2 n=c#6 v=0
61320 On ch=2 n=c6 v=67
61440 On ch=2 n=c6 v=0
61440 On ch=2 n=c#6 v=68
61560 On ch=2 n=c#6 v=0
61560 On ch=2 n=g#5 v=68
61680 On ch=2 n=g#5 v=0
61680 On ch=2 n=c#6 v=69
61800 On ch=2 n=c#6 v=0
61800 On ch=2 n=f6 v=70
61920 On ch=2 n=f6 v=0
61920 On ch=2 n=g#6 v=71
62040 On ch=2 n=g#6 v=0
62040 On ch=2 n=c#7 v=72
62160 On ch=2 n=c#7 v=0
62160 On ch=2 n=f7 v=72
62280 On ch=2 n=f7 v=0
62280 On ch=2 n=d#7 v=73
62400 On ch=2 n=d#7 v=0
62400 On ch=2 n=d7 v=93
62880 On ch=2 n=d7 v=0
62880 On ch=2 n=d#7 v=90
63360 On ch=2 n=d#7 v=0
63360 On ch=2 n=c7 v=85
64320 On ch=2 n=c7 v=0
64320 On ch=2 n=f#6 v=58
64440 On ch=2 n=f#6 v=0
64440 On ch=2 n=g#6 v=58
64560 On ch=2 n=g#6 v=0
64560 On ch=2 n=f#6 v=57
64680 On ch=2 n=f#6 v=0
64680 On ch=2 n=f6 v=57
64800 On ch=2 n=f6 v=0
64800 On ch=2 n=f#6 v=56
64920 On ch=2 n=f#6 v=0
64920 On ch=2 n=d#7 v=56
65040 On ch=2 n=d#7 v=0
65040 On ch=2 n=c#7 v=55
65160 On ch=2 n=c#7 v=0
65160 On ch=2 n=c7 v=55
65280 On ch=2 n=c7 v=0
65280 On ch=2 n=c#7 v=54
65400 On ch=2 n=c#7 v=0
65400 On ch=2 n=g#6 v=54
65520 On ch=2 n=g#6 v=0
65520 On ch=2 n=f6 v=53
65640 On ch=2 n=f6 v=0
65640 On ch=2 n=c#6 v=53
65760 On ch=2 n=c#6 v=0
65760 On ch=2 n=g#5 v=52
65880 On ch=2 n=g#5 v=0
65880 On ch=2 n=c#6 v=52
66000 On ch=2 n=c#6 v=0
66000 On ch=2 n=g#5 v=51
66120 On ch=2 n=g#5 v=0
66120 On ch=2 n=f5 v=51
66240 On ch=2 n=f5 v=0
66240 On ch=2 n=f#5 v=50
66360 On ch=2 n=f#5 v=0
66360 On ch=2 n=g#5 v=50
66480 On ch=2 n=g#5 v=0
66480 On ch=2 n=f#5 v=49
66600 On ch=2 n=f#5 v=0
66600 On ch=2 n=f5 v=49
66720 On ch=2 n=f5 v=0
66720 On ch=2 n=f#5 v=48
66840 On ch=2 n=f#5 v=0
66840 On ch=2 n=d#6 v=48
66960 On ch=2 n=d#6 v=0
66960 On ch=2 n=c#6 v=47
67080 On ch=2 n=c#6 v=0
67080 On ch=2 n=c6 v=47
67200 On ch=2 n=c6 v=0
67200 On ch=2 n=c#6 v=46
67320 On ch=2 n=c#6 v=0
67320 On ch=2 n=g#5 v=46
67440 On ch=2 n=g#5 v=0
67440 On ch=2 n=f5 v=45
67560 On ch=2 n=f5 v=0
67560 On ch=2 n=c#5 v=45
67680 On ch=2 n=c#5 v=0
67680 On ch=2 n=g#4 v=44
67800 On ch=2 n=g#4 v=0
67800 On ch=2 n=c#5 v=44
67920 On ch=2 n=c#5 v=0
67920 On ch=2 n=g#4 v=43
68040 On ch=2 n=g#4 v=0
68040 On ch=2 n=f4 v=43
68160 On ch=2 n=f4 v=0
68640 On ch=2 n=f#5 v=40
69120 On ch=2 n=f#5 v=0
69600 On ch=2 n=f#5 v=43
70080 On ch=2 n=f#5 v=0
70560 On ch=2 n=g#5 v=47
71040 On ch=2 n=g#5 v=0
71520 On ch=2 n=g#5 v=51
72000 On ch=2 n=g#5 v=0
72480 On ch=2 n=a#5 v=44
72840 On ch=2 n=a#5 v=0
72840 On ch=2 n=b5 v=44
72960 On ch=2 n=b5 v=0
72960 On ch=2 n=c#6 v=46
73440 On ch=2 n=c#6 v=0
73440 On ch=2 n=f#5 v=42
73920 On ch=2 n=f#5 v=0
73920 On ch=2 n=f5 v=45
74400 On ch=2 n=f5 v=0
74400 On ch=2 n=f#5 v=48
74880 On ch=2 n=f#5 v=0
74880 On ch=2 n=b5 v=51
76320 On ch=2 n=b5 v=0
76320 On ch=2 n=g#5 v=44
76800 On ch=2 n=g#5 v=0
76800 On ch=2 n=a#5 v=44
77280 On ch=2 n=a#5 v=0
77280 On ch=2 n=d#6 v=46
77760 On ch=2 n=d#6 v=0
77760 On ch=2 n=c#6 v=49
78240 On ch=2 n=c#6 v=0
78240 On ch=2 n=f#6 v=51
78720 On ch=2 n=f#6 v=0
78720 On ch=2 n=f6 v=55
79200 On ch=2 n=f6 v=0
79200 On ch=2 n=d#6 v=51
79680 On ch=2 n=d#6 v=0
79680 On ch=2 n=c#6 v=46
80160 On ch=2 n=c#6 v=0
80160 On ch=2 n=a#5 v=42
80280 On ch=2 n=a#5 v=0
80280 On ch=2 n=b5 v=42
80400 On ch=2 n=b5 v=0
80400 On ch=2 n=a#5 v=43
80520 On ch=2 n=a#5 v=0
80520 On ch=2 n=f#5 v=43
80640 On ch=2 n=f#5 v=0
80640 On ch=2 n=b5 v=43
80760 On ch=2 n=b5 v=0
80760 On ch=2 n=c#6 v=44
80880 On ch=2 n=c#6 v=0
80880 On ch=2 n=b5 v=44
81000 On ch=2 n=b5 v=0
81000 On ch=2 n=g#5 v=44
81120 On ch=2 n=g#5 v=0
81120 On ch=2 n=f5 v=45
81600 On ch=2 n=f5 v=0
82080 On ch=2 n=b5 v=47
82200 On ch=2 n=b5 v=0
82200 On ch=2 n=c#6 v=48
82320 On ch=2 n=c#6 v=0
82320 On ch=2 n=b5 v=48
82440 On ch=2 n=b5 v=0
82440 On ch=2 n=g#5 v=48
82560 On ch=2 n=g#5 v=0
82560 On ch=2 n=c#6 v=49
82680 On ch=2 n=c#6 v=0
82680 On ch=2 n=d#6 v=49
82800 On ch=2 n=d#6 v=0
82800 On ch=2 n=c#6 v=49
82920 On ch=2 n=c#6 v=0
82920 On ch=2 n=a#5 v=50
83040 On ch=2 n=a#5 v=0
83040 On ch=2 n=f#5 v=50
83520 On ch=2 n=f#5 v=0
84000 On ch=2 n=f#6 v=53
84160 On ch=2 n=f#6 v=0
84160 On ch=2 n=f6 v=53
84320 On ch=2 n=f6 v=0
84320 On ch=2 n=d#6 v=54
84480 On ch=2 n=d#6 v=0
84480 On ch=2 n=c#6 v=54
84640 On ch=2 n=c#6 v=0
84640 On ch=2 n=b5 v=55
84800 On ch=2 n=b5 v=0
84800 On ch=2 n=a#5 v=55
84960 On ch=2 n=a#5 v=0
84960 On ch=2 n=g#5 v=56
85120 On ch=2 n=g#5 v=0
85120 On ch=2 n=f#5 v=56
85280 On ch=2 n=f#5 v=0
85280 On ch=2 n=f5 v=57
85440 On ch=2 n=f5 v=0
85440 On ch=2 n=d#5 v=57
85600 On ch=2 n=d#5 v=0
85600 On ch=2 n=c#5 v=57
85760 On ch=2 n=c#5 v=0
85760 On ch=2 n=c5 v=58
85920 On ch=2 n=c5 v=0
85920 On ch=2 n=c#5 v=58
86080 On ch=2 n=c#5 v=0
86080 On ch=2 n=d#5 v=59
86240 On ch=2 n=d#5 v=0
86240 On ch=2 n=f5 v=59
86400 On ch=2 n=f5 v=0
86400 On ch=2 n=f#5 v=53
86880 On ch=2 n=f#5 v=0
86880 On ch=2 n=g#5 v=49
87360 On ch=2 n=g#5 v=0
87360 On ch=2 n=a#5 v=45
87840 On ch=2 n=a#5 v=0
88320 On ch=2 n=a#5 v=44
88800 On ch=2 n=a#5 v=0
89280 On ch=2 n=b5 v=47
89760 On ch=2 n=b5 v=0
90240 On ch=2 n=g#5 v=51
90720 On ch=2 n=g#5 v=0
90720 On ch=2 n=a#5 v=49
91200 On ch=2 n=a#5 v=0
91200 On ch=2 n=b5 v=45
91680 On ch=2 n=b5 v=0
92160 On ch=2 n=b5 v=47
92640 On ch=2 n=b5 v=0
93120 On ch=2 n=c#6 v=50
93600 On ch=2 n=c#6 v=0
94080 On ch=2 n=a#5 v=54
94560 On ch=2 n=a#5 v=0
94560 On ch=2 n=c#6 v=50
94680 On ch=2 n=c#6 v=0
94680 On ch=2 n=d#6 v=54
94800 On ch=2 n=d#6 v=0
94800 On ch=2 n=c#6 v=57
94920 On ch=2 n=c#6 v=0
94920 On ch=2 n=a#5 v=60
95040 On ch=2 n=a#5 v=0
95040 On ch=2 n=f#6 v=67
96480 On ch=2 n=f#6 v=0
96480 On ch=2 n=f6 v=62
96600 On ch=2 n=f6 v=0
96600 On ch=2 n=f#6 v=63
96640 On ch=2 n=f#6 v=0
96640 On ch=2 n=f6 v=64
96680 On ch=2 n=f6 v=0
96680 On ch=2 n=d#6 v=64
96720 On ch=2 n=d#6 v=0
96720 On ch=2 n=f6 v=65
96840 On ch=2 n=f6 v=0
96840 On ch=2 n=f#6 v=66
96960 On ch=2 n=f#6 v=0
96960 On ch=2 n=g#6 v=68
97440 On ch=2 n=g#6 v=0
97440 On ch=2 n=f6 v=60
97920 On ch=2 n=f6 v=0
97920 On ch=2 n=d6 v=55
98280 On ch=2 n=d6 v=0
98280 On ch=2 n=d6 v=55
98400 On ch=2 n=d6 v=0
98400 On ch=2 n=d6 v=55
98760 On ch=2 n=d6 v=0
98760 On ch=2 n=d6 v=54
98880 On ch=2 n=d6 v=0
98880 On ch=2 n=d6 v=54
99240 On ch=2 n=d6 v=0
99240 On ch=2 n=d6 v=54
99360 On ch=2 n=d6 v=0
99360 On ch=2 n=d6 v=54
99720 On ch=2 n=d6 v=0
99720 On ch=2 n=d6 v=53
99840 On ch=2 n=d6 v=0
99840 On ch=2 n=d#6 v=53
100200 On ch=2 n=d#6 v=0
100200 On ch=2 n=d#6 v=53
100320 On ch=2 n=d#6 v=0
100320 On ch=2 n=f6 v=53
100680 On ch=2 n=f6 v=0
100680 On ch=2 n=f6 v=52
100800 On ch=2 n=f6 v=0
100800 On ch=2 n=f#6 v=52
101160 On ch=2 n=f#6 v=0
101160 On ch=2 n=f#6 v=52
101280 On ch=2 n=f#6 v=0
101280 Par ch=2 c=64 v=127
101280 On ch=2 n=d#7 v=52
101400 On ch=2 n=d#7 v=0
101400 On ch=2 n=a#6 v=52
101520 On ch=2 n=a#6 v=0
101520 On ch=2 n=f#6 v=52
101640 On ch=2 n=f#6 v=0
101640 On ch=2 n=d#6 v=52
101760 On ch=2 n=d#6 v=0
101760 Par ch=2 c=64 v=0
101760 On ch=2 n=c7 v=51
102120 On ch=2 n=c7 v=0
102120 On ch=2 n=c7 v=51
102240 On ch=2 n=c7 v=0
102240 On ch=2 n=d#7 v=51
102600 On ch=2 n=d#7 v=0
102600 On ch=2 n=c#7 v=51
102720 On ch=2 n=c#7 v=0
102720 On ch=2 n=c7 v=50
103080 On ch=2 n=c7 v=0
103080 On ch=2 n=c7 v=50
103200 On ch=2 n=c7 v=0
103200 On ch=2 n=d#7 v=50
103560 On ch=2 n=d#7 v=0
103560 On ch=2 n=c#7 v=50
103680 On ch=2 n=c#7 v=0
103680 On ch=2 n=c7 v=49
104040 On ch=2 n=c7 v=0
104040 On ch=2 n=c7 v=49
104160 On ch=2 n=c7 v=0
104160 On ch=2 n=c#7 v=49
104520 On ch=2 n=c#7 v=0
104520 On ch=2 n=c#7 v=49
104640 On ch=2 n=c#7 v=0
104640 On ch=2 n=g#6 v=48
105000 On ch=2 n=g#6 v=0
105000 On ch=2 n=g#6 v=48
105120 On ch=2 n=g#6 v=0
105120 On ch=2 n=a#6 v=48
105480 On ch=2 n=a#6 v=0
105480 On ch=2 n=a#6 v=48
105600 On ch=2 n=a#6 v=0
105600 On ch=2 n=c7 v=47
105960 On ch=2 n=c7 v=0
105960 On ch=2 n=c7 v=47
106080 On ch=2 n=c7 v=0
106080 On ch=2 n=d#7 v=47
106440 On ch=2 n=d#7 v=0
106440 On ch=2 n=c#7 v=47
106560 On ch=2 n=c#7 v=0
106560 On ch=2 n=c7 v=47
106920 On ch=2 n=c7 v=0
106920 On ch=2 n=c7 v=46
107040 On ch=2 n=c7 v=0
107040 On ch=2 n=d#7 v=46
107400 On ch=2 n=d#7 v=0
107400 On ch=2 n=c#7 v=46
107520 On ch=2 n=c#7 v=0
107520 On ch=2 n=c7 v=46
107880 On ch=2 n=c7 v=0
107880 On ch=2 n=c7 v=45
108000 On ch=2 n=c7 v=0
108000 On ch=2 n=d#7 v=45
108360 On ch=2 n=d#7 v=0
108360 On ch=2 n=d#7 v=45
108480 On ch=2 n=d#7 v=0
108480 On ch=2 n=g#6 v=45
108840 On ch=2 n=g#6 v=0
108840 On ch=2 n=g#6 v=44
108960 On ch=2 n=g#6 v=0
108960 On ch=2 n=a#6 v=44
109320 On ch=2 n=a#6 v=0
109320 On ch=2 n=a#6 v=44
109440 On ch=2 n=a#6 v=0
109440 On ch=2 n=c7 v=44
109800 On ch=2 n=c7 v=0
109800 On ch=2 n=c7 v=47
109920 On ch=2 n=c7 v=0
109920 On ch=2 n=c#7 v=48
110280 On ch=2 n=c#7 v=0
110280 On ch=2 n=c#7 v=51
110400 On ch=2 n=c#7 v=0
110400 On ch=2 n=c#7 v=52
110760 On ch=2 n=c#7 v=0
110760 On ch=2 n=c#7 v=54
110880 On ch=2 n=c#7 v=0
110880 On ch=2 n=c#7 v=55
111240 On ch=2 n=c#7 v=0
111240 On ch=2 n=c#7 v=58
111360 On ch=2 n=c#7 v=0
111360 On ch=2 n=c#7 v=59
111720 On ch=2 n=c#7 v=0
111720 On ch=2 n=c#7 v=62
111840 On ch=2 n=c#7 v=0
111840 On ch=2 n=c#7 v=63
112200 On ch=2 n=c#7 v=0
112200 On ch=2 n=c#7 v=66
112320 On ch=2 n=c#7 v=0
112320 On ch=2 n=c#7 v=67
112680 On ch=2 n=c#7 v=0
112680 On ch=2 n=c#7 v=70
112800 On ch=2 n=c#7 v=0
112800 On ch=2 n=c#7 v=71
113160 On ch=2 n=c#7 v=0
113160 On ch=2 n=c#7 v=74
113280 On ch=2 n=c#7 v=0
113280 On ch=2 n=c#7 v=75
113640 On ch=2 n=c#7 v=0
113640 On ch=2 n=c#7 v=78
113760 On ch=2 n=c#7 v=0
113760 On ch=2 n=c#7 v=79
114120 On ch=2 n=c#7 v=0
114120 On ch=2 n=c#7 v=82
114240 On ch=2 n=c#7 v=0
114240 On ch=2 n=c#7 v=83
114600 On ch=2 n=c#7 v=0
114600 On ch=2 n=c#7 v=86
114720 On ch=2 n=c#7 v=0
114720 On ch=2 n=c#7 v=87
115080 On ch=2 n=c#7 v=0
115080 On ch=2 n=c#7 v=90
115200 On ch=2 n=c#7 v=0
115200 On ch=2 n=c#7 v=92
115560 On ch=2 n=c#7 v=0
115560 On ch=2 n=c#7 v=93
115680 On ch=2 n=c#7 v=0
115680 On ch=2 n=c#7 v=93
116040 On ch=2 n=c#7 v=0
116040 On ch=2 n=c#7 v=95
116160 On ch=2 n=c#7 v=0
116160 On ch=2 n=c7 v=95
116520 On ch=2 n=c7 v=0
116520 On ch=2 n=c7 v=97
116640 On ch=2 n=c7 v=0
116640 On ch=2 n=c7 v=97
117000 On ch=2 n=c7 v=0
117000 On ch=2 n=c7 v=97
117120 On ch=2 n=c7 v=0
117120 On ch=2 n=c#7 v=95
117600 On ch=2 n=c#7 v=0
118080 On ch=2 n=f6 v=48
118240 On ch=2 n=f6 v=0
118240 On ch=2 n=c#6 v=48
118400 On ch=2 n=c#6 v=0
118400 On ch=2 n=g#5 v=49
118560 On ch=2 n=g#5 v=0
118560 On ch=2 n=a#5 v=50
118720 On ch=2 n=a#5 v=0
118720 On ch=2 n=c#6 v=50
118880 On ch=2 n=c#6 v=0
118880 On ch=2 n=a#5 v=51
119040 On ch=2 n=a#5 v=0
119040 On ch=2 n=g#5 v=52
119200 On ch=2 n=g#5 v=0
119200 On ch=2 n=c#6 v=52
119360 On ch=2 n=c#6 v=0
119360 On ch=2 n=d#6 v=53
119520 On ch=2 n=d#6 v=0
119520 On ch=2 n=f6 v=53
119680 On ch=2 n=f6 v=0
119680 On ch=2 n=c#6 v=54
119840 On ch=2 n=c#6 v=0
119840 On ch=2 n=g#6 v=55
120000 On ch=2 n=g#6 v=0
120000 On ch=2 n=f6 v=55
120160 On ch=2 n=f6 v=0
120160 On ch=2 n=c#6 v=53
120320 On ch=2 n=c#6 v=0
120320 On ch=2 n=g#5 v=52
120480 On ch=2 n=g#5 v=0
120480 On ch=2 n=f#5 v=51
120640 On ch=2 n=f#5 v=0
120640 On ch=2 n=d#5 v=50
120800 On ch=2 n=d#5 v=0
120800 On ch=2 n=g#5 v=50
120960 On ch=2 n=g#5 v=0
120960 On ch=2 n=f5 v=49
121440 On ch=2 n=f5 v=0
121440 On ch=2 n=g#5 v=50
121600 On ch=2 n=g#5 v=0
121600 On ch=2 n=c#6 v=51
121760 On ch=2 n=c#6 v=0
121760 On ch=2 n=d#6 v=52
121920 On ch=2 n=d#6 v=0
121920 On ch=2 n=f6 v=53
122080 On ch=2 n=f6 v=0
122080 On ch=2 n=c#6 v=55
122240 On ch=2 n=c#6 v=0
122240 On ch=2 n=g#5 v=56
122400 On ch=2 n=g#5 v=0
122400 On ch=2 n=a#5 v=57
122560 On ch=2 n=a#5 v=0
122560 On ch=2 n=c#6 v=58
122720 On ch=2 n=c#6 v=0
122720 On ch=2 n=a#5 v=59
122880 On ch=2 n=a#5 v=0
122880 On ch=2 n=g#5 v=60
123040 On ch=2 n=g#5 v=0
123040 On ch=2 n=c#6 v=61
123200 On ch=2 n=c#6 v=0
123200 On ch=2 n=d#6 v=62
123360 On ch=2 n=d#6 v=0
123360 On ch=2 n=f6 v=63
123520 On ch=2 n=f6 v=0
123520 On ch=2 n=c#6 v=64
123680 On ch=2 n=c#6 v=0
123680 On ch=2 n=g#6 v=65
123840 On ch=2 n=g#6 v=0
123840 On ch=2 n=d6 v=85
124320 On ch=2 n=d6 v=0
124320 On ch=2 n=d#6 v=82
124800 On ch=2 n=d#6 v=0
124800 On ch=2 n=c6 v=79
125760 On ch=2 n=c6 v=0
125760 On ch=2 n=f#5 v=61
125880 On ch=2 n=f#5 v=0
125880 On ch=2 n=g#5 v=62
126000 On ch=2 n=g#5 v=0
126000 On ch=2 n=f#5 v=63
126120 On ch=2 n=f#5 v=0
126120 On ch=2 n=f5 v=64
126240 On ch=2 n=f5 v=0
126240 On ch=2 n=f#5 v=64
126360 On ch=2 n=f#5 v=0
126360 On ch=2 n=d#6 v=65
126480 On ch=2 n=d#6 v=0
126480 On ch=2 n=c#6 v=66
126600 On ch=2 n=c#6 v=0
126600 On ch=2 n=c6 v=67
126720 On ch=2 n=c6 v=0
126720 On ch=2 n=c#6 v=68
126840 On ch=2 n=c#6 v=0
126840 On ch=2 n=g#5 v=68
126960 On ch=2 n=g#5 v=0
126960 On ch=2 n=c#6 v=69
127080 On ch=2 n=c#6 v=0
127080 On ch=2 n=f6 v=70
127200 On ch=2 n=f6 v=0
127200 On ch=2 n=g#6 v=71
127320 On ch=2 n=g#6 v=0
127320 On ch=2 n=c#7 v=72
127440 On ch=2 n=c#7 v=0
127440 On ch=2 n=f7 v=72
127560 On ch=2 n=f7 v=0
127560 On ch=2 n=d#7 v=73
127680 On ch=2 n=d#7 v=0
127680 On ch=2 n=d7 v=93
128160 On ch=2 n=d7 v=0
128160 On ch=2 n=d#7 v=90
128640 On ch=2 n=d#7 v=0
128640 On ch=2 n=c7 v=85
129600 On ch=2 n=c7 v=0
129600 On ch=2 n=f#6 v=58
129720 On ch=2 n=f#6 v=0
129720 On ch=2 n=g#6 v=58
129840 On ch=2 n=g#6 v=0
129840 On ch=2 n=f#6 v=57
129960 On ch=2 n=f#6 v=0
129960 On ch=2 n=f6 v=57
130080 On ch=2 n=f6 v=0
130080 On ch=2 n=f#6 v=56
130200 On ch=2 n=f#6 v=0
130200 On ch=2 n=d#7 v=56
130320 On ch=2 n=d#7 v=0
130320 On ch=2 n=c#7 v=55
130440 On ch=2 n=c#7 v=0
130440 On ch=2 n=c7 v=55
130560 On ch=2 n=c7 v=0
130560 On ch=2 n=c#7 v=54
130680 On ch=2 n=c#7 v=0
130680 On ch=2 n=g#6 v=54
130800 On ch=2 n=g#6 v=0
130800 On ch=2 n=f6 v=53
130920 On ch=2 n=f6 v=0
130920 On ch=2 n=c#6 v=53
131040 On ch=2 n=c#6 v=0
131040 On ch=2 n=g#5 v=52
131160 On ch=2 n=g#5 v=0
131160 On ch=2 n=c#6 v=52
131280 On ch=2 n=c#6 v=0
131280 On ch=2 n=g#5 v=51
131400 On ch=2 n=g#5 v=0
131400 On ch=2 n=f5 v=51
131520 On ch=2 n=f5 v=0
131520 On ch=2 n=f#5 v=50
131640 On ch=2 n=f#5 v=0
131640 On ch=2 n=g#5 v=50
131760 On ch=2 n=g#5 v=0
131760 On ch=2 n=f#5 v=49
131880 On ch=2 n=f#5 v=0
131880 On ch=2 n=f5 v=49
132000 On ch=2 n=f5 v=0
132000 On ch=2 n=f#5 v=48
132120 On ch=2 n=f#5 v=0
132120 On ch=2 n=d#6 v=48
132240 On ch=2 n=d#6 v=0
132240 On ch=2 n=c#6 v=47
132360 On ch=2 n=c#6 v=0
132360 On ch=2 n=c6 v=47
132480 On ch=2 n=c6 v=0
132480 On ch=2 n=c#6 v=46
132600 On ch=2 n=c#6 v=0
132600 On ch=2 n=g#5 v=46
132720 On ch=2 n=g#5 v=0
132720 On ch=2 n=f5 v=45
132840 On ch=2 n=f5 v=0
132840 On ch=2 n=c#5 v=45
132960 On ch=2 n=c#5 v=0
132960 On ch=2 n=g#4 v=44
133080 On ch=2 n=g#4 v=0
133080 On ch=2 n=c#5 v=44
133200 On ch=2 n=c#5 v=0
133200 On ch=2 n=g#4 v=43
133320 On ch=2 n=g#4 v=0
133320 On ch=2 n=f4 v=43
133440 On ch=2 n=f4 v=0
133920 On ch=2 n=f#5 v=40
134400 On ch=2 n=f#5 v=0
134880 On ch=2 n=f#5 v=43
135360 On ch=2 n=f#5 v=0
135840 On ch=2 n=g#5 v=47
136320 On ch=2 n=g#5 v=0
136800 Par ch=2 c=64 v=0
137760 On ch=2 n=a5 v=46
138000 Par ch=2 c=64 v=0
138120 On ch=2 n=a5 v=0
138120 On ch=2 n=b5 v=48
138240 On ch=2 n=b5 v=0
138240 On ch=2 n=c#6 v=51
138720 On ch=2 n=c#6 v=0
138720 On ch=2 n=f#5 v=46
139200 On ch=2 n=f#5 v=0
139200 On ch=2 n=f5 v=46
139680 On ch=2 n=f5 v=0
139680 On ch=2 n=f#5 v=47
140160 On ch=2 n=f#5 v=0
140160 On ch=2 n=d6 v=52
141600 On ch=2 n=d6 v=0
141600 On ch=2 n=d6 v=49
142080 On ch=2 n=d6 v=0
142080 On ch=2 n=d6 v=48
142160 On ch=2 n=d6 v=0
142160 On ch=2 n=e6 v=49
142240 On ch=2 n=e6 v=0
142240 On ch=2 n=d6 v=49
142320 On ch=2 n=d6 v=0
142320 On ch=2 n=e6 v=50
142400 On ch=2 n=e6 v=0
142400 On ch=2 n=d6 v=50
142480 On ch=2 n=d6 v=0
142480 On ch=2 n=e6 v=51
142560 On ch=2 n=e6 v=0
142560 On ch=2 n=d6 v=51
142640 On ch=2 n=d6 v=0
142640 On ch=2 n=e6 v=52
142720 On ch=2 n=e6 v=0
142720 On ch=2 n=d6 v=52
142800 On ch=2 n=d6 v=0
142800 On ch=2 n=c#6 v=53
142920 On ch=2 n=c#6 v=0
142920 On ch=2 n=d6 v=53
143040 On ch=2 n=d6 v=0
143040 On ch=2 n=e6 v=57
143760 On ch=2 n=e6 v=0
143760 On ch=2 n=b5 v=51
144000 On ch=2 n=b5 v=0
144000 On ch=2 n=c#6 v=49
144240 On ch=2 n=c#6 v=0
147360 On ch=2 n=b6 v=90
147720 On ch=2 n=b6 v=0
147720 On ch=2 n=c#7 v=91
147840 On ch=2 n=c#7 v=0
147840 On ch=2 n=d#7 v=92
148320 On ch=2 n=d#7 v=0
148320 On ch=2 n=g#6 v=84
148800 On ch=2 n=g#6 v=0
148800 On ch=2 n=g6 v=86
149280 On ch=2 n=g6 v=0
149280 On ch=2 n=g#6 v=87
149760 On ch=2 n=g#6 v=0
149760 On ch=2 n=g#6 v=57
149880 On ch=2 n=g#6 v=0
149880 On ch=2 n=b6 v=57
149881 On ch=2 n=b6 v=0
150000 On ch=2 n=a#6 v=57
150120 On ch=2 n=a#6 v=0
150120 On ch=2 n=g#6 v=57
150240 On ch=2 n=g#6 v=0
150240 On ch=2 n=g#6 v=57
150360 On ch=2 n=g#6 v=0
150360 On ch=2 n=b6 v=56
150480 On ch=2 n=b6 v=0
150480 On ch=2 n=a#6 v=56
150600 On ch=2 n=a#6 v=0
150600 On ch=2 n=g#6 v=56
150720 On ch=2 n=g#6 v=0
150720 On ch=2 n=g#6 v=56
150840 On ch=2 n=g#6 v=0
150840 On ch=2 n=b6 v=56
150960 On ch=2 n=b6 v=0
150960 On ch=2 n=a#6 v=56
151080 On ch=2 n=a#6 v=0
151080 On ch=2 n=g#6 v=55
151200 On ch=2 n=g#6 v=0
151200 On ch=2 n=g#6 v=55
151320 On ch=2 n=g#6 v=0
151320 On ch=2 n=b6 v=55
151440 On ch=2 n=b6 v=0
151440 On ch=2 n=a#6 v=55
151560 On ch=2 n=a#6 v=0
151560 On ch=2 n=g#6 v=55
151680 On ch=2 n=g#6 v=0
151680 On ch=2 n=g#6 v=54
151800 On ch=2 n=g#6 v=0
151800 On ch=2 n=b6 v=54
151920 On ch=2 n=b6 v=0
151920 On ch=2 n=a#6 v=54
152040 On ch=2 n=a#6 v=0
152040 On ch=2 n=g#6 v=54
152160 On ch=2 n=g#6 v=0
152160 On ch=2 n=b6 v=54
152280 On ch=2 n=b6 v=0
152280 On ch=2 n=g#6 v=54
152400 On ch=2 n=g#6 v=0
152400 On ch=2 n=f#6 v=53
152520 On ch=2 n=f#6 v=0
152520 On ch=2 n=f6 v=53
152640 On ch=2 n=f6 v=0
152640 On ch=2 n=b6 v=53
152760 On ch=2 n=b6 v=0
152760 On ch=2 n=g#6 v=53
152880 On ch=2 n=g#6 v=0
152880 On ch=2 n=f#6 v=53
153000 On ch=2 n=f#6 v=0
153000 On ch=2 n=f6 v=52
153120 On ch=2 n=f6 v=0
153120 On ch=2 n=a#6 v=52
153240 On ch=2 n=a#6 v=0
153240 On ch=2 n=g#6 v=52
153360 On ch=2 n=g#6 v=0
153360 On ch=2 n=f#6 v=52
153480 On ch=2 n=f#6 v=0
153480 On ch=2 n=f6 v=52
153600 On ch=2 n=f6 v=0
153600 On ch=2 n=f#6 v=52
153720 On ch=2 n=f#6 v=0
153720 On ch=2 n=a#6 v=51
153840 On ch=2 n=a#6 v=0
153840 On ch=2 n=g#6 v=51
153960 On ch=2 n=g#6 v=0
153960 On ch=2 n=f#6 v=51
154080 On ch=2 n=f#6 v=0
154080 On ch=2 n=g#6 v=51
154200 On ch=2 n=g#6 v=0
154200 On ch=2 n=f#6 v=51
154320 On ch=2 n=f#6 v=0
154320 On ch=2 n=f6 v=50
154440 On ch=2 n=f6 v=0
154440 On ch=2 n=d#6 v=50
154560 On ch=2 n=d#6 v=0
154560 On ch=2 n=d6 v=50
154680 On ch=2 n=d6 v=0
154680 On ch=2 n=f6 v=50
154800 On ch=2 n=f6 v=0
154800 On ch=2 n=d#6 v=50
154920 On ch=2 n=d#6 v=0
154920 On ch=2 n=d6 v=50
155040 On ch=2 n=d6 v=0
155040 On ch=2 n=a#6 v=49
155160 On ch=2 n=a#6 v=0
155160 On ch=2 n=g#6 v=49
155280 On ch=2 n=g#6 v=0
155280 On ch=2 n=f#6 v=49
155400 On ch=2 n=f#6 v=0
155400 On ch=2 n=f6 v=49
155520 On ch=2 n=f6 v=0
155520 On ch=2 n=f#6 v=49
155640 On ch=2 n=f#6 v=0
155640 On ch=2 n=a#6 v=48
155760 On ch=2 n=a#6 v=0
155760 On ch=2 n=g#6 v=48
155880 On ch=2 n=g#6 v=0
155880 On ch=2 n=f#6 v=48
156000 On ch=2 n=f#6 v=0
156000 On ch=2 n=g#6 v=48
156120 On ch=2 n=g#6 v=0
156120 On ch=2 n=f#6 v=48
156240 On ch=2 n=f#6 v=0
156240 On ch=2 n=f6 v=48
156360 On ch=2 n=f6 v=0
156360 On ch=2 n=d#6 v=47
156480 On ch=2 n=d#6 v=0
156480 On ch=2 n=c6 v=47
156600 On ch=2 n=c6 v=0
156600 On ch=2 n=d#6 v=47
156720 On ch=2 n=d#6 v=0
156720 On ch=2 n=c#6 v=47
156840 On ch=2 n=c#6 v=0
156840 On ch=2 n=c6 v=47
156960 On ch=2 n=c6 v=0
156960 On ch=2 n=g#6 v=46
157080 On ch=2 n=g#6 v=0
157080 On ch=2 n=f#6 v=46
157200 On ch=2 n=f#6 v=0
157200 On ch=2 n=e6 v=46
157320 On ch=2 n=e6 v=0
157320 On ch=2 n=d#6 v=46
157440 On ch=2 n=d#6 v=0
157440 On ch=2 n=e6 v=46
157560 On ch=2 n=e6 v=0
157560 On ch=2 n=g#6 v=45
157680 On ch=2 n=g#6 v=0
157680 On ch=2 n=f#6 v=45
157800 On ch=2 n=f#6 v=0
157800 On ch=2 n=e6 v=45
157920 On ch=2 n=e6 v=0
157920 On ch=2 n=f#6 v=45
158040 On ch=2 n=f#6 v=0
158040 On ch=2 n=e6 v=45
158160 On ch=2 n=e6 v=0
158160 On ch=2 n=d#6 v=45
158280 On ch=2 n=d#6 v=0
158280 On ch=2 n=c#6 v=44
158400 On ch=2 n=c#6 v=0
158400 On ch=2 n=c6 v=44
158520 On ch=2 n=c6 v=0
158520 On ch=2 n=d#6 v=44
158640 On ch=2 n=d#6 v=0
158640 On ch=2 n=c#6 v=44
158760 On ch=2 n=c#6 v=0
158760 On ch=2 n=c6 v=44
158880 On ch=2 n=c6 v=0
158880 On ch=2 n=g#6 v=43
159000 On ch=2 n=g#6 v=0
159000 On ch=2 n=f#6 v=43
159120 On ch=2 n=f#6 v=0
159120 On ch=2 n=e6 v=43
159240 On ch=2 n=e6 v=0
159240 On ch=2 n=d#6 v=43
159360 On ch=2 n=d#6 v=0
159360 On ch=2 n=e6 v=43
159480 On ch=2 n=e6 v=0
159480 On ch=2 n=g#6 v=43
159600 On ch=2 n=g#6 v=0
159600 On ch=2 n=f#6 v=42
159720 On ch=2 n=f#6 v=0
159720 On ch=2 n=e6 v=42
159840 On ch=2 n=e6 v=0
159840 On ch=2 n=f#6 v=42
159960 On ch=2 n=f#6 v=0
159960 On ch=2 n=e6 v=42
160080 On ch=2 n=e6 v=0
160080 On ch=2 n=d#6 v=42
160200 On ch=2 n=d#6 v=0
160200 On ch=2 n=c#6 v=41
160320 On ch=2 n=c#6 v=0
160320 On ch=2 n=a#5 v=41
160440 On ch=2 n=a#5 v=0
160440 On ch=2 n=c#6 v=41
160560 On ch=2 n=c#6 v=0
160560 On ch=2 n=b5 v=41
160680 On ch=2 n=b5 v=0
160680 On ch=2 n=a#5 v=41
160800 On ch=2 n=a#5 v=0
160800 On ch=2 n=f#6 v=41
160920 On ch=2 n=f#6 v=0
160920 On ch=2 n=e6 v=40
161040 On ch=2 n=e6 v=0
161040 On ch=2 n=d#6 v=40
161160 On ch=2 n=d#6 v=0
161160 On ch=2 n=c#6 v=40
161280 On ch=2 n=c#6 v=0
161280 On ch=2 n=b5 v=40
161400 On ch=2 n=b5 v=0
161400 On ch=2 n=d#6 v=40
161520 On ch=2 n=d#6 v=0
161520 On ch=2 n=c#6 v=39
161640 On ch=2 n=c#6 v=0
161640 On ch=2 n=b5 v=39
161760 On ch=2 n=b5 v=0
161760 On ch=2 n=f#6 v=39
161880 On ch=2 n=f#6 v=0
161880 On ch=2 n=e6 v=39
162000 On ch=2 n=e6 v=0
162000 On ch=2 n=d#6 v=39
162120 On ch=2 n=d#6 v=0
162120 On ch=2 n=c#6 v=38
162240 On ch=2 n=c#6 v=0
162240 On ch=2 n=b5 v=38
162360 On ch=2 n=b5 v=0
162360 On ch=2 n=d#6 v=38
162480 On ch=2 n=d#6 v=0
162480 On ch=2 n=c#6 v=38
162600 On ch=2 n=c#6 v=0
162600 On ch=2 n=b5 v=38
162720 On ch=2 n=b5 v=0
162720 On ch=2 n=f#6 v=40
162840 On ch=2 n=f#6 v=0
162840 On ch=2 n=e6 v=43
162960 On ch=2 n=e6 v=0
162960 On ch=2 n=d#6 v=45
163080 On ch=2 n=d#6 v=0
163080 On ch=2 n=c#6 v=45
163200 On ch=2 n=c#6 v=0
163200 On ch=2 n=b5 v=46
163320 On ch=2 n=b5 v=0
163320 On ch=2 n=d#6 v=47
163440 On ch=2 n=d#6 v=0
163440 On ch=2 n=c#6 v=48
163560 On ch=2 n=c#6 v=0
163560 On ch=2 n=b5 v=49
163680 On ch=2 n=b5 v=0
163680 On ch=2 n=b6 v=52
163800 On ch=2 n=b6 v=0
163800 On ch=2 n=a#6 v=51
163920 On ch=2 n=a#6 v=0
163920 On ch=2 n=g#6 v=52
164040 On ch=2 n=g#6 v=0
164040 On ch=2 n=f#6 v=53
164160 On ch=2 n=f#6 v=0
164160 On ch=2 n=f6 v=54
164280 On ch=2 n=f6 v=0
164280 On ch=2 n=g#6 v=55
164400 On ch=2 n=g#6 v=0
164400 On ch=2 n=f#6 v=56
164520 On ch=2 n=f#6 v=0
164520 On ch=2 n=f6 v=57
164640 On ch=2 n=f6 v=0
164640 On ch=2 n=b6 v=60
164760 On ch=2 n=b6 v=0
164760 On ch=2 n=a#6 v=59
164880 On ch=2 n=a#6 v=0
164880 On ch=2 n=g#6 v=60
165000 On ch=2 n=g#6 v=0
165000 On ch=2 n=f#6 v=61
165120 On ch=2 n=f#6 v=0
165120 On ch=2 n=f6 v=62
165240 On ch=2 n=f6 v=0
165240 On ch=2 n=g#6 v=63
165360 On ch=2 n=g#6 v=0
165360 On ch=2 n=f#6 v=64
165480 On ch=2 n=f#6 v=0
165480 On ch=2 n=f6 v=65
165600 On ch=2 n=f6 v=0
165600 On ch=2 n=d#7 v=66
165720 On ch=2 n=d#7 v=0
165720 On ch=2 n=c#7 v=67
165840 On ch=2 n=c#7 v=0
165840 On ch=2 n=b6 v=68
165960 On ch=2 n=b6 v=0
165960 On ch=2 n=a#6 v=69
166080 On ch=2 n=a#6 v=0
166080 On ch=2 n=g#6 v=70
166200 On ch=2 n=g#6 v=0
166200 On ch=2 n=b6 v=71
166320 On ch=2 n=b6 v=0
166320 On ch=2 n=a#6 v=72
166440 On ch=2 n=a#6 v=0
166440 On ch=2 n=g#6 v=73
166560 On ch=2 n=g#6 v=0
166560 On ch=2 n=f#6 v=74
166680 On ch=2 n=f#6 v=0
166680 On ch=2 n=f6 v=75
166800 On ch=2 n=f6 v=0
166800 On ch=2 n=d#6 v=76
166920 On ch=2 n=d#6 v=0
166920 On ch=2 n=c#6 v=77
167040 On ch=2 n=c#6 v=0
167040 On ch=2 n=b5 v=76
167160 On ch=2 n=b5 v=0
167160 On ch=2 n=d#6 v=78
167280 On ch=2 n=d#6 v=0
167280 On ch=2 n=c#6 v=79
167400 On ch=2 n=c#6 v=0
167400 On ch=2 n=b5 v=81
167520 On ch=2 n=b5 v=0
167520 On ch=2 n=a#5 v=82
167640 On ch=2 n=a#5 v=0
167640 On ch=2 n=g#5 v=83
167760 On ch=2 n=f#5 v=85
167768 On ch=2 n=g#5 v=0
167880 On ch=2 n=f#5 v=0
167880 On ch=2 n=f5 v=86
168000 On ch=2 n=f5 v=0
168000 On ch=2 n=b5 v=88
168120 On ch=2 n=b5 v=0
168120 On ch=2 n=a#5 v=89
168226 On ch=2 n=g#5 v=90
168240 On ch=2 n=a#5 v=0
168346 On ch=2 n=g#5 v=0
168360 On ch=2 n=f#5 v=92
168480 On ch=2 n=f#5 v=0
168480 On ch=2 n=f5 v=93
168600 On ch=2 n=f5 v=0
168600 On ch=2 n=d#5 v=95
168720 On ch=2 n=d#5 v=0
168720 On ch=2 n=c#5 v=96
168840 On ch=2 n=c#5 v=0
168840 On ch=2 n=c5 v=97
168960 On ch=2 n=c5 v=0
168960 On ch=2 n=c#5 v=107
169920 On ch=2 n=f5 v=96
170880 On ch=2 n=f5 v=0
170880 On ch=2 n=c#5 v=0
170880 On ch=2 n=g#5 v=86
172320 On ch=2 n=g#5 v=0
172320 On ch=2 n=a#5 v=44
172680 On ch=2 n=a#5 v=0
172680 On ch=2 n=b5 v=47
172800 On ch=2 n=b5 v=0
172800 On ch=2 n=c#6 v=48
173280 On ch=2 n=c#6 v=0
173280 On ch=2 n=f#5 v=47
173760 On ch=2 n=f#5 v=0
173760 On ch=2 n=f5 v=48
174240 On ch=2 n=f5 v=0
174240 On ch=2 n=f#5 v=49
174720 On ch=2 n=f#5 v=0
174720 On ch=2 n=b5 v=51
176160 On ch=2 n=b5 v=0
176160 On ch=2 n=g#5 v=44
176640 On ch=2 n=g#5 v=0
176640 On ch=2 n=a#5 v=45
177120 On ch=2 n=a#5 v=0
177120 On ch=2 n=d#6 v=47
177600 On ch=2 n=d#6 v=0
177600 On ch=2 n=c#6 v=48
178080 On ch=2 n=c#6 v=0
178080 On ch=2 n=f#6 v=50
178560 On ch=2 n=f#6 v=0
178560 On ch=2 n=f6 v=55
179040 On ch=2 n=f6 v=0
179040 On ch=2 n=d#6 v=52
179520 On ch=2 n=d#6 v=0
179520 On ch=2 n=c#6 v=49
180000 On ch=2 n=c#6 v=0
180000 On ch=2 n=a#5 v=47
180120 On ch=2 n=a#5 v=0
180120 On ch=2 n=b5 v=47
180240 On ch=2 n=b5 v=0
180240 On ch=2 n=a#5 v=48
180360 On ch=2 n=a#5 v=0
180360 On ch=2 n=f#5 v=48
180480 On ch=2 n=f#5 v=0
180480 On ch=2 n=b5 v=51
180600 On ch=2 n=b5 v=0
180600 On ch=2 n=c#6 v=50
180720 On ch=2 n=c#6 v=0
180720 On ch=2 n=b5 v=48
180840 On ch=2 n=b5 v=0
180840 On ch=2 n=g#5 v=46
180960 On ch=2 n=g#5 v=0
180960 On ch=2 n=f5 v=45
181440 On ch=2 n=f5 v=0
181920 On ch=2 n=b5 v=55
182040 On ch=2 n=b5 v=0
182040 On ch=2 n=c#6 v=56
182160 On ch=2 n=c#6 v=0
182160 On ch=2 n=b5 v=57
182280 On ch=2 n=b5 v=0
182280 On ch=2 n=g#5 v=59
182400 On ch=2 n=g#5 v=0
182400 On ch=2 n=c#6 v=60
182520 On ch=2 n=c#6 v=0
182520 On ch=2 n=d#6 v=61
182640 On ch=2 n=d#6 v=0
182640 On ch=2 n=c#6 v=58
182760 On ch=2 n=c#6 v=0
182760 On ch=2 n=a#5 v=57
182880 On ch=2 n=a#5 v=0
182880 On ch=2 n=f#5 v=55
183360 On ch=2 n=f#5 v=0
183840 On ch=2 n=a#5 v=64
183960 On ch=2 n=a#5 v=0
183960 On ch=2 n=b5 v=64
184080 On ch=2 n=b5 v=0
184080 On ch=2 n=a#5 v=65
184200 On ch=2 n=a#5 v=0
184200 On ch=2 n=f#5 v=65
184320 On ch=2 n=f#5 v=0
184320 On ch=2 n=c#6 v=66
184440 On ch=2 n=c#6 v=0
184440 On ch=2 n=d#6 v=66
184560 On ch=2 n=d#6 v=0
184560 On ch=2 n=c#6 v=64
184680 On ch=2 n=c#6 v=0
184680 On ch=2 n=a#5 v=63
184800 On ch=2 n=a#5 v=0
184800 On ch=2 n=g5 v=61
185280 On ch=2 n=g5 v=0
185760 On ch=2 n=c#6 v=72
185880 On ch=2 n=c#6 v=0
185880 On ch=2 n=d#6 v=73
186000 On ch=2 n=d#6 v=0
186000 On ch=2 n=c#6 v=74
186120 On ch=2 n=c#6 v=0
186120 On ch=2 n=a#5 v=74
186240 On ch=2 n=a#5 v=0
186240 On ch=2 n=d#6 v=75
186360 On ch=2 n=d#6 v=0
186360 On ch=2 n=e6 v=74
186480 On ch=2 n=e6 v=0
186480 On ch=2 n=d#6 v=73
186600 On ch=2 n=d#6 v=0
186600 On ch=2 n=b5 v=71
186720 On ch=2 n=b5 v=0
187680 On ch=2 n=e7 v=81
187840 On ch=2 n=e7 v=0
187840 On ch=2 n=d#7 v=82
188000 On ch=2 n=d#7 v=0
188000 On ch=2 n=c#7 v=83
188160 On ch=2 n=c#7 v=0
188160 On ch=2 n=b6 v=84
188320 On ch=2 n=b6 v=0
188320 On ch=2 n=a6 v=84
188480 On ch=2 n=a6 v=0
188480 On ch=2 n=g#6 v=85
188640 On ch=2 n=g#6 v=0
188640 On ch=2 n=f#6 v=85
188800 On ch=2 n=f#6 v=0
188800 On ch=2 n=e6 v=86
188960 On ch=2 n=e6 v=0
188960 On ch=2 n=d#6 v=87
189120 On ch=2 n=d#6 v=0
189120 On ch=2 n=c#6 v=88
189280 On ch=2 n=c#6 v=0
189280 On ch=2 n=b5 v=88
189440 On ch=2 n=b5 v=0
189440 On ch=2 n=a#5 v=89
189600 On ch=2 n=a#5 v=0
189600 On ch=2 n=b5 v=90
189760 On ch=2 n=b5 v=0
189760 On ch=2 n=c#6 v=90
189920 On ch=2 n=c#6 v=0
189920 On ch=2 n=d#6 v=91
190080 On ch=2 n=d#6 v=0
190080 On ch=2 n=e6 v=89
190560 On ch=2 n=e6 v=0
190560 On ch=2 n=f#6 v=85
191040 On ch=2 n=f#6 v=0
191040 On ch=2 n=g#6 v=81
191520 On ch=2 n=g#6 v=0
192000 On ch=2 n=g#5 v=44
192480 On ch=2 n=g#5 v=0
192960 On ch=2 n=a5 v=45
193440 On ch=2 n=a5 v=0
193920 On ch=2 n=f#6 v=61
194400 On ch=2 n=f#6 v=0
194400 On ch=2 n=g#6 v=58
194880 On ch=2 n=g#6 v=0
194880 On ch=2 n=a6 v=55
195360 On ch=2 n=a6 v=0
195840 On ch=2 n=a5 v=49
196320 On ch=2 n=a5 v=0
196800 On ch=2 n=b5 v=51
197280 On ch=2 n=b5 v=0
197760 On ch=2 n=g#6 v=66
198240 On ch=2 n=g#6 v=0
198240 On ch=2 n=a#6 v=64
198720 On ch=2 n=a#6 v=0
198720 On ch=2 n=b6 v=64
199200 On ch=2 n=b6 v=0
199680 On ch=2 n=d6 v=55
200160 On ch=2 n=d6 v=0
200640 On ch=2 n=e6 v=56
201120 On ch=2 n=e6 v=0
201600 On ch=2 n=a#6 v=73
202080 On ch=2 n=a#6 v=0
202080 On ch=2 n=b6 v=69
202560 On ch=2 n=b6 v=0
202560 On ch=2 n=c#7 v=67
203040 On ch=2 n=c#7 v=0
203520 On ch=2 n=c#6 v=60
204000 On ch=2 n=c#6 v=0
204000 On ch=2 n=d#6 v=61
204480 On ch=2 n=d#6 v=0
204480 On ch=2 n=e6 v=61
204960 On ch=2 n=e6 v=0
205440 On ch=2 n=c#6 v=63
205920 On ch=2 n=c#6 v=0
206400 On ch=2 n=e6 v=64
206880 On ch=2 n=e6 v=0
207360 On ch=2 n=d#6 v=65
207840 On ch=2 n=d#6 v=0
207840 On ch=2 n=f#6 v=66
207960 On ch=2 n=f#6 v=0
207960 On ch=2 n=g#6 v=67
208080 On ch=2 n=g#6 v=0
208080 On ch=2 n=f#6 v=68
208200 On ch=2 n=f#6 v=0
208200 On ch=2 n=d#6 v=69
208320 On ch=2 n=d#6 v=0
208320 On ch=2 n=b6 v=69
208800 On ch=2 n=b6 v=0
209760 On ch=2 n=a#6 v=66
209880 On ch=2 n=a#6 v=0
209880 On ch=2 n=b6 v=66
209920 On ch=2 n=a#6 v=69
209925 On ch=2 n=b6 v=0
209960 On ch=2 n=a#6 v=0
209960 On ch=2 n=g#6 v=70
210000 On ch=2 n=g#6 v=0
210000 On ch=2 n=a#6 v=71
210120 On ch=2 n=a#6 v=0
210120 On ch=2 n=b6 v=71
210240 On ch=2 n=b6 v=0
210240 On ch=2 n=c#7 v=77
210720 On ch=2 n=c#7 v=0
210720 On ch=2 n=a#6 v=72
211200 On ch=2 n=a#6 v=0
211200 On ch=2 n=g6 v=64
211560 On ch=2 n=g6 v=0
211560 On ch=2 n=g6 v=63
211680 On ch=2 n=g6 v=0
211680 On ch=2 n=g6 v=63
212040 On ch=2 n=g6 v=0
212040 On ch=2 n=g6 v=63
212160 On ch=2 n=g6 v=0
212160 On ch=2 n=g6 v=62
212520 On ch=2 n=g6 v=0
212520 On ch=2 n=g6 v=62
212640 On ch=2 n=g6 v=0
212640 On ch=2 n=g6 v=61
213000 On ch=2 n=g6 v=0
213000 On ch=2 n=g6 v=61
213120 On ch=2 n=g6 v=0
213120 On ch=2 n=g#6 v=61
213480 On ch=2 n=g#6 v=0
213480 On ch=2 n=g#6 v=60
213600 On ch=2 n=g#6 v=0
213600 On ch=2 n=a#6 v=60
213960 On ch=2 n=a#6 v=0
213960 On ch=2 n=a#6 v=59
214080 On ch=2 n=a#6 v=0
214080 On ch=2 n=b6 v=59
214435 On ch=2 n=b6 v=0
214440 On ch=2 n=b6 v=59
214560 On ch=2 n=b6 v=0
214560 Par ch=2 c=64 v=127
214560 On ch=2 n=g#7 v=58
214680 On ch=2 n=g#7 v=0
214680 On ch=2 n=d#7 v=58
214800 On ch=2 n=d#7 v=0
214800 On ch=2 n=b6 v=58
214920 On ch=2 n=b6 v=0
214920 On ch=2 n=g#6 v=57
215040 On ch=2 n=g#6 v=0
215040 Par ch=2 c=64 v=0
215040 On ch=2 n=f7 v=57
215400 On ch=2 n=f7 v=0
215400 On ch=2 n=f7 v=57
215520 On ch=2 n=f7 v=0
215520 On ch=2 n=g#7 v=56
215880 On ch=2 n=g#7 v=0
215880 On ch=2 n=f#7 v=56
216000 On ch=2 n=f#7 v=0
216000 On ch=2 n=f7 v=56
216360 On ch=2 n=f7 v=0
216360 On ch=2 n=f7 v=55
216480 On ch=2 n=f7 v=0
216480 On ch=2 n=g#7 v=55
216840 On ch=2 n=g#7 v=0
216840 On ch=2 n=f#7 v=54
216960 On ch=2 n=f#7 v=0
216960 On ch=2 n=f7 v=54
217320 On ch=2 n=f7 v=0
217320 On ch=2 n=f7 v=53
217440 On ch=2 n=f7 v=0
217440 On ch=2 n=g#7 v=53
217800 On ch=2 n=g#7 v=0
217800 On ch=2 n=g#7 v=52
217920 On ch=2 n=g#7 v=0
217920 On ch=2 n=c#7 v=52
218280 On ch=2 n=c#7 v=0
218280 On ch=2 n=c#7 v=52
218400 On ch=2 n=c#7 v=0
218400 On ch=2 n=d#7 v=51
218760 On ch=2 n=d#7 v=0
218760 On ch=2 n=d#7 v=51
218880 On ch=2 n=d#7 v=0
218880 On ch=2 n=f7 v=51
219240 On ch=2 n=f7 v=0
219240 On ch=2 n=f7 v=50
219360 On ch=2 n=f7 v=0
219360 On ch=2 n=g#7 v=50
219720 On ch=2 n=g#7 v=0
219720 On ch=2 n=f#7 v=49
219840 On ch=2 n=f#7 v=0
219840 On ch=2 n=f7 v=49
220200 On ch=2 n=f7 v=0
220200 On ch=2 n=f7 v=48
220320 On ch=2 n=f7 v=0
220320 On ch=2 n=g#7 v=48
220680 On ch=2 n=g#7 v=0
220680 On ch=2 n=f#7 v=47
220800 On ch=2 n=f#7 v=0
220800 On ch=2 n=f7 v=47
221160 On ch=2 n=f7 v=0
221160 On ch=2 n=f7 v=47
221280 On ch=2 n=f7 v=0
221280 On ch=2 n=g#7 v=46
221640 On ch=2 n=g#7 v=0
221640 On ch=2 n=g#7 v=46
221760 On ch=2 n=g#7 v=0
221760 On ch=2 n=c#7 v=45
222120 On ch=2 n=c#7 v=0
222120 On ch=2 n=c#7 v=45
222240 On ch=2 n=c#7 v=0
222240 On ch=2 n=d#7 v=45
222600 On ch=2 n=d#7 v=0
222600 On ch=2 n=d#7 v=46
222720 On ch=2 n=d#7 v=0
222720 On ch=2 n=f7 v=47
223080 On ch=2 n=f7 v=0
223080 On ch=2 n=f7 v=50
223200 On ch=2 n=f7 v=0
223200 On ch=2 n=f#7 v=51
223560 On ch=2 n=f#7 v=0
223560 On ch=2 n=f#7 v=53
223680 On ch=2 n=f#7 v=0
223680 On ch=2 n=f#7 v=54
224040 On ch=2 n=f#7 v=0
224040 On ch=2 n=f#7 v=57
224160 On ch=2 n=f#7 v=0
224160 On ch=2 n=f#7 v=58
224520 On ch=2 n=f#7 v=0
224520 On ch=2 n=f#7 v=61
224640 On ch=2 n=f#7 v=0
224640 On ch=2 n=f#7 v=64
225000 On ch=2 n=f#7 v=0
225000 On ch=2 n=f#7 v=66
225120 On ch=2 n=f#7 v=0
225120 On ch=2 n=f#7 v=67
225480 On ch=2 n=f#7 v=0
225480 On ch=2 n=f#7 v=69
225600 On ch=2 n=f#7 v=0
225600 On ch=2 n=f#7 v=70
225960 On ch=2 n=f#7 v=0
225960 On ch=2 n=f#7 v=73
226080 On ch=2 n=f#7 v=0
226080 On ch=2 n=f#7 v=73
226440 On ch=2 n=f#7 v=0
226440 On ch=2 n=f#7 v=76
226560 On ch=2 n=f#7 v=0
226560 On ch=2 n=f#7 v=76
226920 On ch=2 n=f#7 v=0
226920 On ch=2 n=f#7 v=79
227040 On ch=2 n=f#7 v=0
227040 On ch=2 n=f#7 v=79
227400 On ch=2 n=f#7 v=0
227400 On ch=2 n=f#7 v=82
227520 On ch=2 n=f#7 v=0
227520 On ch=2 n=f#7 v=83
227880 On ch=2 n=f#7 v=0
227880 On ch=2 n=f#7 v=85
228000 On ch=2 n=f#7 v=0
228000 On ch=2 n=f#7 v=86
228360 On ch=2 n=f#7 v=0
228360 On ch=2 n=f#7 v=88
228480 On ch=2 n=f#7 v=0
228480 On ch=2 n=f#7 v=88
228840 On ch=2 n=f#7 v=0
228840 On ch=2 n=f#7 v=89
228960 On ch=2 n=f#7 v=0
228960 On ch=2 n=f#7 v=89
229320 On ch=2 n=f#7 v=0
229320 On ch=2 n=f#7 v=90
229440 On ch=2 n=f#7 v=0
229440 On ch=2 n=f7 v=91
229800 On ch=2 n=f7 v=0
229800 On ch=2 n=f7 v=92
229920 On ch=2 n=f7 v=0
229920 On ch=2 n=f7 v=92
230280 On ch=2 n=f7 v=0
230280 On ch=2 n=f7 v=93
230400 On ch=2 n=f7 v=0
230400 On ch=2 n=f#7 v=95
230880 On ch=2 n=f#7 v=0
231360 On ch=2 n=a#6 v=43
231520 On ch=2 n=a#6 v=0
231520 On ch=2 n=f#6 v=43
231680 On ch=2 n=f#6 v=0
231680 On ch=2 n=c#6 v=44
231840 On ch=2 n=c#6 v=0
231840 On ch=2 n=d#6 v=45
232000 On ch=2 n=d#6 v=0
232000 On ch=2 n=f#6 v=46
232160 On ch=2 n=f#6 v=0
232160 On ch=2 n=d#6 v=46
232320 On ch=2 n=d#6 v=0
232320 On ch=2 n=c#6 v=47
232480 On ch=2 n=c#6 v=0
232480 On ch=2 n=f#6 v=48
232640 On ch=2 n=f#6 v=0
232640 On ch=2 n=g#6 v=49
232800 On ch=2 n=g#6 v=0
232800 On ch=2 n=a#6 v=49
232960 On ch=2 n=a#6 v=0
232960 On ch=2 n=f#6 v=50
233120 On ch=2 n=f#6 v=0
233120 On ch=2 n=c#7 v=51
233280 On ch=2 n=c#7 v=0
233280 On ch=2 n=a#6 v=52
233440 On ch=2 n=a#6 v=0
233440 On ch=2 n=f#6 v=51
233600 On ch=2 n=f#6 v=0
233600 On ch=2 n=c#6 v=50
233760 On ch=2 n=c#6 v=0
233760 On ch=2 n=b5 v=49
233920 On ch=2 n=b5 v=0
233920 On ch=2 n=g#5 v=48
234080 On ch=2 n=g#5 v=0
234080 On ch=2 n=c#6 v=48
234240 On ch=2 n=c#6 v=0
234240 On ch=2 n=a#5 v=47
234720 On ch=2 n=a#5 v=0
234720 On ch=2 n=c#6 v=48
234880 On ch=2 n=c#6 v=0
234880 On ch=2 n=f#6 v=49
235040 On ch=2 n=f#6 v=0
235040 On ch=2 n=g#6 v=49
235200 On ch=2 n=g#6 v=0
235200 On ch=2 n=a#6 v=50
235360 On ch=2 n=a#6 v=0
235360 On ch=2 n=f#6 v=51
235520 On ch=2 n=f#6 v=0
235520 On ch=2 n=c#6 v=51
235680 On ch=2 n=c#6 v=0
235680 On ch=2 n=d#6 v=52
235840 On ch=2 n=d#6 v=0
235840 On ch=2 n=f#6 v=53
236000 On ch=2 n=f#6 v=0
236000 On ch=2 n=d#6 v=53
236160 On ch=2 n=d#6 v=0
236160 On ch=2 n=c#6 v=54
236320 On ch=2 n=c#6 v=0
236320 On ch=2 n=f#6 v=55
236480 On ch=2 n=f#6 v=0
236480 On ch=2 n=g#6 v=55
236640 On ch=2 n=g#6 v=0
236640 On ch=2 n=a#6 v=56
236800 On ch=2 n=a#6 v=0
236800 On ch=2 n=f#6 v=57
236960 On ch=2 n=f#6 v=0
236960 On ch=2 n=c#7 v=57
237120 On ch=2 n=c#7 v=0
237120 On ch=2 n=g6 v=73
237600 On ch=2 n=g6 v=0
237600 On ch=2 n=g#6 v=72
238080 On ch=2 n=g#6 v=0
238080 On ch=2 n=f6 v=68
239040 On ch=2 n=f6 v=0
239040 On ch=2 n=b5 v=59
239160 On ch=2 n=b5 v=0
239160 On ch=2 n=c#6 v=60
239280 On ch=2 n=c#6 v=0
239280 On ch=2 n=b5 v=60
239400 On ch=2 n=b5 v=0
239400 On ch=2 n=a#5 v=60
239520 On ch=2 n=a#5 v=0
239520 On ch=2 n=b5 v=61
239640 On ch=2 n=b5 v=0
239640 On ch=2 n=g#6 v=61
239760 On ch=2 n=g#6 v=0
239760 On ch=2 n=f#6 v=62
239880 On ch=2 n=f#6 v=0
239880 On ch=2 n=f6 v=62
240000 On ch=2 n=f6 v=0
240000 On ch=2 n=f#6 v=63
240120 On ch=2 n=f#6 v=0
240120 On ch=2 n=c#6 v=63
240240 On ch=2 n=c#6 v=0
240240 On ch=2 n=a#5 v=63
240360 On ch=2 n=a#5 v=0
240360 On ch=2 n=c#6 v=64
240480 On ch=2 n=c#6 v=0
240480 On ch=2 n=f#6 v=64
240600 On ch=2 n=f#6 v=0
240600 On ch=2 n=a#6 v=65
240720 On ch=2 n=a#6 v=0
240720 On ch=2 n=c#7 v=65
240840 On ch=2 n=c#7 v=0
240840 On ch=2 n=f#7 v=68
240960 On ch=2 n=f#7 v=0
240960 On ch=2 n=g7 v=79
241440 On ch=2 n=g7 v=0
241440 On ch=2 n=g#7 v=76
241920 On ch=2 n=g#7 v=0
241920 On ch=2 n=f7 v=72
242880 On ch=2 n=f7 v=0
242880 On ch=2 n=b6 v=62
243000 On ch=2 n=b6 v=0
243000 On ch=2 n=c#7 v=62
243120 On ch=2 n=c#7 v=0
243120 On ch=2 n=b6 v=62
243240 On ch=2 n=b6 v=0
243240 On ch=2 n=a#6 v=61
243360 On ch=2 n=a#6 v=0
243360 On ch=2 n=b6 v=62
243480 On ch=2 n=b6 v=0
243480 On ch=2 n=g#7 v=61
243600 On ch=2 n=g#7 v=0
243600 On ch=2 n=f#7 v=61
243720 On ch=2 n=f#7 v=0
243720 On ch=2 n=f7 v=60
243840 On ch=2 n=f7 v=0
243840 On ch=2 n=f#7 v=60
243960 On ch=2 n=f#7 v=0
243960 On ch=2 n=c#7 v=60
244080 On ch=2 n=c#7 v=0
244080 On ch=2 n=a#6 v=59
244200 On ch=2 n=a#6 v=0
244200 On ch=2 n=f#6 v=59
244320 On ch=2 n=f#6 v=0
244320 On ch=2 n=c#6 v=59
244440 On ch=2 n=c#6 v=0
244440 On ch=2 n=f#6 v=59
244560 On ch=2 n=f#6 v=0
244560 On ch=2 n=c#6 v=58
244680 On ch=2 n=c#6 v=0
244680 On ch=2 n=a#5 v=58
244800 On ch=2 n=a#5 v=0
244800 On ch=2 n=b5 v=58
244920 On ch=2 n=b5 v=0
244920 On ch=2 n=c#6 v=58
245040 On ch=2 n=c#6 v=0
245040 On ch=2 n=b5 v=57
245160 On ch=2 n=b5 v=0
245160 On ch=2 n=a#5 v=57
245280 On ch=2 n=a#5 v=0
245280 On ch=2 n=b5 v=57
245400 On ch=2 n=b5 v=0
245400 On ch=2 n=g#6 v=57
245520 On ch=2 n=g#6 v=0
245520 On ch=2 n=f#6 v=56
245640 On ch=2 n=f#6 v=0
245640 On ch=2 n=f6 v=56
245760 On ch=2 n=f6 v=0
245760 On ch=2 n=f#6 v=56
245880 On ch=2 n=f#6 v=0
245880 On ch=2 n=c#6 v=55
246000 On ch=2 n=c#6 v=0
246000 On ch=2 n=a#5 v=55
246120 On ch=2 n=a#5 v=0
246120 On ch=2 n=f#5 v=55
246240 On ch=2 n=f#5 v=0
246240 On ch=2 n=c#5 v=55
246360 On ch=2 n=c#5 v=0
246360 On ch=2 n=f#5 v=54
246480 On ch=2 n=f#5 v=0
246480 On ch=2 n=c#5 v=54
246600 On ch=2 n=c#5 v=0
246600 On ch=2 n=a#4 v=54
246720 On ch=2 n=a#4 v=0
247200 On ch=2 n=b5 v=52
247680 On ch=2 n=b5 v=0
248160 On ch=2 n=b5 v=50
248640 On ch=2 n=b5 v=0
249120 On ch=2 n=c#6 v=48
249600 On ch=2 n=c#6 v=0
250080 On ch=2 n=c#6 v=46
250560 On ch=2 n=c#6 v=0
251040 On ch=2 n=a#5 v=52
251400 On ch=2 n=a#5 v=0
251400 On ch=2 n=b5 v=56
251520 On ch=2 n=b5 v=0
252000 On ch=2 n=c#6 v=42
252480 On ch=2 n=c#6 v=0
252960 On ch=2 n=a#5 v=54
253320 On ch=2 n=a#5 v=0
253320 On ch=2 n=b5 v=57
253440 On ch=2 n=b5 v=0
253440 On ch=2 n=c#6 v=59
253920 On ch=2 n=c#6 v=0
253920 On ch=2 n=f#5 v=53
254400 On ch=2 n=f#5 v=0
254400 On ch=2 n=g5 v=55
254880 On ch=2 n=g5 v=0
254880 On ch=2 n=f#5 v=58
255360 On ch=2 n=f#5 v=0
255360 On ch=2 n=e6 v=60
255840 On ch=2 n=e6 v=0
255840 On ch=2 n=c#6 v=62
256320 On ch=2 n=c#6 v=0
256320 On ch=2 n=d6 v=64
256800 On ch=2 n=d6 v=0
256800 On ch=2 n=b5 v=66
257280 On ch=2 n=b5 v=0
257280 On ch=2 n=b6 v=70
257760 On ch=2 n=b6 v=0
257760 On ch=2 n=g#6 v=72
258240 On ch=2 n=g#6 v=0
258240 On ch=2 n=d7 v=80
258720 On ch=2 n=d7 v=0
258720 On ch=2 n=c#7 v=68
259200 On ch=2 n=c#7 v=0
259680 On ch=2 n=c#7 v=58
260160 On ch=2 n=c#7 v=0
260640 On ch=2 n=c#7 v=65
261120 On ch=2 n=c#7 v=0
261600 On ch=2 n=c#7 v=72
262080 On ch=2 n=c#7 v=0
262560 On ch=2 n=c#7 v=80
263040 On ch=2 n=c#7 v=0
263520 On ch=2 n=f#7 v=94
264000 On ch=2 n=f#7 v=0
264000 On ch=2 n=f#7 v=97
264480 On ch=2 n=f#7 v=0
264480 On ch=2 n=f#7 v=100
264960 On ch=2 n=f#7 v=0
264960 On ch=2 n=f#7 v=104
265440 On ch=2 n=f#7 v=0
265440 Par ch=2 c=64 v=0
266400 On ch=2 n=a5 v=46
266640 Par ch=2 c=64 v=0
266760 On ch=2 n=a5 v=0
266760 On ch=2 n=b5 v=48
266880 On ch=2 n=b5 v=0
266880 On ch=2 n=c#6 v=51
267360 On ch=2 n=c#6 v=0
267360 On ch=2 n=f#5 v=46
267840 On ch=2 n=f#5 v=0
267840 On ch=2 n=f5 v=46
268320 On ch=2 n=f5 v=0
268320 On ch=2 n=f#5 v=47
268800 On ch=2 n=f#5 v=0
268800 On ch=2 n=d6 v=52
270240 On ch=2 n=d6 v=0
270240 On ch=2 n=d6 v=49
270720 On ch=2 n=d6 v=0
270720 On ch=2 n=d6 v=48
270800 On ch=2 n=d6 v=0
270800 On ch=2 n=e6 v=49
270880 On ch=2 n=e6 v=0
270880 On ch=2 n=d6 v=49
270960 On ch=2 n=d6 v=0
270960 On ch=2 n=e6 v=50
271040 On ch=2 n=e6 v=0
271040 On ch=2 n=d6 v=50
271120 On ch=2 n=d6 v=0
271120 On ch=2 n=e6 v=51
271200 On ch=2 n=e6 v=0
271200 On ch=2 n=d6 v=51
271280 On ch=2 n=d6 v=0
271280 On ch=2 n=e6 v=52
271360 On ch=2 n=e6 v=0
271360 On ch=2 n=d6 v=52
271440 On ch=2 n=d6 v=0
271440 On ch=2 n=c#6 v=53
271560 On ch=2 n=c#6 v=0
271560 On ch=2 n=d6 v=53
271680 On ch=2 n=d6 v=0
271680 On ch=2 n=e6 v=57
272400 On ch=2 n=e6 v=0
272400 On ch=2 n=b5 v=51
272640 On ch=2 n=b5 v=0
272640 On ch=2 n=c#6 v=49
272880 On ch=2 n=c#6 v=0
276000 On ch=2 n=b6 v=90
276360 On ch=2 n=b6 v=0
276360 On ch=2 n=c#7 v=91
276480 On ch=2 n=c#7 v=0
276480 On ch=2 n=d#7 v=92
276960 On ch=2 n=d#7 v=0
276960 On ch=2 n=g#6 v=84
277440 On ch=2 n=g#6 v=0
277440 On ch=2 n=g6 v=86
277920 On ch=2 n=g6 v=0
277920 On ch=2 n=g#6 v=87
278400 On ch=2 n=g#6 v=0
278400 On ch=2 n=g#6 v=57
278520 On ch=2 n=g#6 v=0
278520 On ch=2 n=b6 v=57
278521 On ch=2 n=b6 v=0
278640 On ch=2 n=a#6 v=57
278760 On ch=2 n=a#6 v=0
278760 On ch=2 n=g#6 v=57
278880 On ch=2 n=g#6 v=0
278880 On ch=2 n=g#6 v=57
279000 On ch=2 n=g#6 v=0
279000 On ch=2 n=b6 v=56
279120 On ch=2 n=b6 v=0
279120 On ch=2 n=a#6 v=56
279240 On ch=2 n=a#6 v=0
279240 On ch=2 n=g#6 v=56
279360 On ch=2 n=g#6 v=0
279360 On ch=2 n=g#6 v=56
279480 On ch=2 n=g#6 v=0
279480 On ch=2 n=b6 v=56
279600 On ch=2 n=b6 v=0
279600 On ch=2 n=a#6 v=56
279720 On ch=2 n=a#6 v=0
279720 On ch=2 n=g#6 v=55
279840 On ch=2 n=g#6 v=0
279840 On ch=2 n=g#6 v=55
279960 On ch=2 n=g#6 v=0
279960 On ch=2 n=b6 v=55
280080 On ch=2 n=b6 v=0
280080 On ch=2 n=a#6 v=55
280200 On ch=2 n=a#6 v=0
280200 On ch=2 n=g#6 v=55
280320 On ch=2 n=g#6 v=0
280320 On ch=2 n=g#6 v=54
280440 On ch=2 n=g#6 v=0
280440 On ch=2 n=b6 v=54
280560 On ch=2 n=b6 v=0
280560 On ch=2 n=a#6 v=54
280680 On ch=2 n=a#6 v=0
280680 On ch=2 n=g#6 v=54
280800 On ch=2 n=g#6 v=0
280800 On ch=2 n=b6 v=54
280920 On ch=2 n=b6 v=0
280920 On ch=2 n=g#6 v=54
281040 On ch=2 n=g#6 v=0
281040 On ch=2 n=f#6 v=53
281160 On ch=2 n=f#6 v=0
281160 On ch=2 n=f6 v=53
281280 On ch=2 n=f6 v=0
281280 On ch=2 n=b6 v=53
281400 On ch=2 n=b6 v=0
281400 On ch=2 n=g#6 v=53
281520 On ch=2 n=g#6 v=0
281520 On ch=2 n=f#6 v=53
281640 On ch=2 n=f#6 v=0
281640 On ch=2 n=f6 v=52
281760 On ch=2 n=f6 v=0
281760 On ch=2 n=a#6 v=52
281880 On ch=2 n=a#6 v=0
281880 On ch=2 n=g#6 v=52
282000 On ch=2 n=g#6 v=0
282000 On ch=2 n=f#6 v=52
282120 On ch=2 n=f#6 v=0
282120 On ch=2 n=f6 v=52
282240 On ch=2 n=f6 v=0
282240 On ch=2 n=f#6 v=52
282360 On ch=2 n=f#6 v=0
282360 On ch=2 n=a#6 v=51
282480 On ch=2 n=a#6 v=0
282480 On ch=2 n=g#6 v=51
282600 On ch=2 n=g#6 v=0
282600 On ch=2 n=f#6 v=51
282720 On ch=2 n=f#6 v=0
282720 On ch=2 n=g#6 v=51
282840 On ch=2 n=g#6 v=0
282840 On ch=2 n=f#6 v=51
282960 On ch=2 n=f#6 v=0
282960 On ch=2 n=f6 v=50
283080 On ch=2 n=f6 v=0
283080 On ch=2 n=d#6 v=50
283200 On ch=2 n=d#6 v=0
283200 On ch=2 n=d6 v=50
283320 On ch=2 n=d6 v=0
283320 On ch=2 n=f6 v=50
283440 On ch=2 n=f6 v=0
283440 On ch=2 n=d#6 v=50
283560 On ch=2 n=d#6 v=0
283560 On ch=2 n=d6 v=50
283680 On ch=2 n=d6 v=0
283680 On ch=2 n=a#6 v=49
283800 On ch=2 n=a#6 v=0
283800 On ch=2 n=g#6 v=49
283920 On ch=2 n=g#6 v=0
283920 On ch=2 n=f#6 v=49
284040 On ch=2 n=f#6 v=0
284040 On ch=2 n=f6 v=49
284160 On ch=2 n=f6 v=0
284160 On ch=2 n=f#6 v=49
284280 On ch=2 n=f#6 v=0
284280 On ch=2 n=a#6 v=48
284400 On ch=2 n=a#6 v=0
284400 On ch=2 n=g#6 v=48
284520 On ch=2 n=g#6 v=0
284520 On ch=2 n=f#6 v=48
284640 On ch=2 n=f#6 v=0
284640 On ch=2 n=g#6 v=48
284760 On ch=2 n=g#6 v=0
284760 On ch=2 n=f#6 v=48
284880 On ch=2 n=f#6 v=0
284880 On ch=2 n=f6 v=48
285000 On ch=2 n=f6 v=0
285000 On ch=2 n=d#6 v=47
285120 On ch=2 n=d#6 v=0
285120 On ch=2 n=c6 v=47
285240 On ch=2 n=c6 v=0
285240 On ch=2 n=d#6 v=47
285360 On ch=2 n=d#6 v=0
285360 On ch=2 n=c#6 v=47
285480 On ch=2 n=c#6 v=0
285480 On ch=2 n=c6 v=47
285600 On ch=2 n=c6 v=0
285600 On ch=2 n=g#6 v=46
285720 On ch=2 n=g#6 v=0
285720 On ch=2 n=f#6 v=46
285840 On ch=2 n=f#6 v=0
285840 On ch=2 n=e6 v=46
285960 On ch=2 n=e6 v=0
285960 On ch=2 n=d#6 v=46
286080 On ch=2 n=d#6 v=0
286080 On ch=2 n=e6 v=46
286200 On ch=2 n=e6 v=0
286200 On ch=2 n=g#6 v=45
286320 On ch=2 n=g#6 v=0
286320 On ch=2 n=f#6 v=45
286440 On ch=2 n=f#6 v=0
286440 On ch=2 n=e6 v=45
286560 On ch=2 n=e6 v=0
286560 On ch=2 n=f#6 v=45
286680 On ch=2 n=f#6 v=0
286680 On ch=2 n=e6 v=45
286800 On ch=2 n=e6 v=0
286800 On ch=2 n=d#6 v=45
286920 On ch=2 n=d#6 v=0
286920 On ch=2 n=c#6 v=44
287040 On ch=2 n=c#6 v=0
287040 On ch=2 n=c6 v=44
287160 On ch=2 n=c6 v=0
287160 On ch=2 n=d#6 v=44
287280 On ch=2 n=d#6 v=0
287280 On ch=2 n=c#6 v=44
287400 On ch=2 n=c#6 v=0
287400 On ch=2 n=c6 v=44
287520 On ch=2 n=c6 v=0
287520 On ch=2 n=g#6 v=43
287640 On ch=2 n=g#6 v=0
287640 On ch=2 n=f#6 v=43
287760 On ch=2 n=f#6 v=0
287760 On ch=2 n=e6 v=43
287880 On ch=2 n=e6 v=0
287880 On ch=2 n=d#6 v=43
288000 On ch=2 n=d#6 v=0
288000 On ch=2 n=e6 v=43
288120 On ch=2 n=e6 v=0
288120 On ch=2 n=g#6 v=43
288240 On ch=2 n=g#6 v=0
288240 On ch=2 n=f#6 v=42
288360 On ch=2 n=f#6 v=0
288360 On ch=2 n=e6 v=42
288480 On ch=2 n=e6 v=0
288480 On ch=2 n=f#6 v=42
288600 On ch=2 n=f#6 v=0
288600 On ch=2 n=e6 v=42
288720 On ch=2 n=e6 v=0
288720 On ch=2 n=d#6 v=42
288840 On ch=2 n=d#6 v=0
288840 On ch=2 n=c#6 v=41
288960 On ch=2 n=c#6 v=0
288960 On ch=2 n=a#5 v=41
289080 On ch=2 n=a#5 v=0
289080 On ch=2 n=c#6 v=41
289200 On ch=2 n=c#6 v=0
289200 On ch=2 n=b5 v=41
289320 On ch=2 n=b5 v=0
289320 On ch=2 n=a#5 v=41
289440 On ch=2 n=a#5 v=0
289440 On ch=2 n=f#6 v=41
289560 On ch=2 n=f#6 v=0
289560 On ch=2 n=e6 v=40
289680 On ch=2 n=e6 v=0
289680 On ch=2 n=d#6 v=40
289800 On ch=2 n=d#6 v=0
289800 On ch=2 n=c#6 v=40
289920 On ch=2 n=c#6 v=0
289920 On ch=2 n=b5 v=40
290040 On ch=2 n=b5 v=0
290040 On ch=2 n=d#6 v=40
290160 On ch=2 n=d#6 v=0
290160 On ch=2 n=c#6 v=39
290280 On ch=2 n=c#6 v=0
290280 On ch=2 n=b5 v=39
290400 On ch=2 n=b5 v=0
290400 On ch=2 n=f#6 v=39
290520 On ch=2 n=f#6 v=0
290520 On ch=2 n=e6 v=39
290640 On ch=2 n=e6 v=0
290640 On ch=2 n=d#6 v=39
290760 On ch=2 n=d#6 v=0
290760 On ch=2 n=c#6 v=38
290880 On ch=2 n=c#6 v=0
290880 On ch=2 n=b5 v=38
291000 On ch=2 n=b5 v=0
291000 On ch=2 n=d#6 v=38
291120 On ch=2 n=d#6 v=0
291120 On ch=2 n=c#6 v=38
291240 On ch=2 n=c#6 v=0
291240 On ch=2 n=b5 v=38
291360 On ch=2 n=b5 v=0
291360 On ch=2 n=f#6 v=40
291480 On ch=2 n=f#6 v=0
291480 On ch=2 n=e6 v=43
291600 On ch=2 n=e6 v=0
291600 On ch=2 n=d#6 v=45
291720 On ch=2 n=d#6 v=0
291720 On ch=2 n=c#6 v=45
291840 On ch=2 n=c#6 v=0
291840 On ch=2 n=b5 v=46
291960 On ch=2 n=b5 v=0
291960 On ch=2 n=d#6 v=47
292080 On ch=2 n=d#6 v=0
292080 On ch=2 n=c#6 v=48
292200 On ch=2 n=c#6 v=0
292200 On ch=2 n=b5 v=49
292320 On ch=2 n=b5 v=0
292320 On ch=2 n=b6 v=52
292440 On ch=2 n=b6 v=0
292440 On ch=2 n=a#6 v=51
292560 On ch=2 n=a#6 v=0
292560 On ch=2 n=g#6 v=52
292680 On ch=2 n=g#6 v=0
292680 On ch=2 n=f#6 v=53
292800 On ch=2 n=f#6 v=0
292800 On ch=2 n=f6 v=54
292920 On ch=2 n=f6 v=0
292920 On ch=2 n=g#6 v=55
293040 On ch=2 n=g#6 v=0
293040 On ch=2 n=f#6 v=56
293160 On ch=2 n=f#6 v=0
293160 On ch=2 n=f6 v=57
293280 On ch=2 n=f6 v=0
293280 On ch=2 n=b6 v=60
293400 On ch=2 n=b6 v=0
293400 On ch=2 n=a#6 v=59
293520 On ch=2 n=a#6 v=0
293520 On ch=2 n=g#6 v=60
293640 On ch=2 n=g#6 v=0
293640 On ch=2 n=f#6 v=61
293760 On ch=2 n=f#6 v=0
293760 On ch=2 n=f6 v=62
293880 On ch=2 n=f6 v=0
293880 On ch=2 n=g#6 v=63
294000 On ch=2 n=g#6 v=0
294000 On ch=2 n=f#6 v=64
294120 On ch=2 n=f#6 v=0
294120 On ch=2 n=f6 v=65
294240 On ch=2 n=f6 v=0
294240 On ch=2 n=d#7 v=66
294360 On ch=2 n=d#7 v=0
294360 On ch=2 n=c#7 v=67
294480 On ch=2 n=c#7 v=0
294480 On ch=2 n=b6 v=68
294600 On ch=2 n=b6 v=0
294600 On ch=2 n=a#6 v=69
294720 On ch=2 n=a#6 v=0
294720 On ch=2 n=g#6 v=70
294840 On ch=2 n=g#6 v=0
294840 On ch=2 n=b6 v=71
294960 On ch=2 n=b6 v=0
294960 On ch=2 n=a#6 v=72
295080 On ch=2 n=a#6 v=0
295080 On ch=2 n=g#6 v=73
295200 On ch=2 n=g#6 v=0
295200 On ch=2 n=f#6 v=74
295320 On ch=2 n=f#6 v=0
295320 On ch=2 n=f6 v=75
295440 On ch=2 n=f6 v=0
295440 On ch=2 n=d#6 v=76
295560 On ch=2 n=d#6 v=0
295560 On ch=2 n=c#6 v=77
295680 On ch=2 n=c#6 v=0
295680 On ch=2 n=b5 v=76
295800 On ch=2 n=b5 v=0
295800 On ch=2 n=d#6 v=78
295920 On ch=2 n=d#6 v=0
295920 On ch=2 n=c#6 v=79
296040 On ch=2 n=c#6 v=0
296040 On ch=2 n=b5 v=81
296160 On ch=2 n=b5 v=0
296160 On ch=2 n=a#5 v=82
296280 On ch=2 n=a#5 v=0
296280 On ch=2 n=g#5 v=83
296400 On ch=2 n=f#5 v=85
296408 On ch=2 n=g#5 v=0
296520 On ch=2 n=f#5 v=0
296520 On ch=2 n=f5 v=86
296640 On ch=2 n=f5 v=0
296640 On ch=2 n=b5 v=88
296760 On ch=2 n=b5 v=0
296760 On ch=2 n=a#5 v=89
296866 On ch=2 n=g#5 v=90
296880 On ch=2 n=a#5 v=0
296986 On ch=2 n=g#5 v=0
297000 On ch=2 n=f#5 v=92
297120 On ch=2 n=f#5 v=0
297120 On ch=2 n=f5 v=93
297240 On ch=2 n=f5 v=0
297240 On ch=2 n=d#5 v=95
297360 On ch=2 n=d#5 v=0
297360 On ch=2 n=c#5 v=96
297480 On ch=2 n=c#5 v=0
297480 On ch=2 n=c5 v=97
297600 On ch=2 n=c5 v=0
297600 On ch=2 n=c#5 v=107
298560 On ch=2 n=f5 v=96
299520 On ch=2 n=f5 v=0
299520 On ch=2 n=c#5 v=0
299520 On ch=2 n=g#5 v=86
300960 On ch=2 n=g#5 v=0
300960 On ch=2 n=a#5 v=44
301320 On ch=2 n=a#5 v=0
301320 On ch=2 n=b5 v=47
301440 On ch=2 n=b5 v=0
301440 On ch=2 n=c#6 v=48
301920 On ch=2 n=c#6 v=0
301920 On ch=2 n=f#5 v=47
302400 On ch=2 n=f#5 v=0
302400 On ch=2 n=f5 v=48
302880 On ch=2 n=f5 v=0
302880 On ch=2 n=f#5 v=49
303360 On ch=2 n=f#5 v=0
303360 On ch=2 n=b5 v=51
304800 On ch=2 n=b5 v=0
304800 On ch=2 n=g#5 v=44
305280 On ch=2 n=g#5 v=0
305280 On ch=2 n=a#5 v=45
305760 On ch=2 n=a#5 v=0
305760 On ch=2 n=d#6 v=47
306240 On ch=2 n=d#6 v=0
306240 On ch=2 n=c#6 v=48
306720 On ch=2 n=c#6 v=0
306720 On ch=2 n=f#6 v=50
307200 On ch=2 n=f#6 v=0
307200 On ch=2 n=f6 v=55
307680 On ch=2 n=f6 v=0
307680 On ch=2 n=d#6 v=52
308160 On ch=2 n=d#6 v=0
308160 On ch=2 n=c#6 v=49
308640 On ch=2 n=c#6 v=0
308640 On ch=2 n=a#5 v=47
308760 On ch=2 n=a#5 v=0
308760 On ch=2 n=b5 v=47
308880 On ch=2 n=b5 v=0
308880 On ch=2 n=a#5 v=48
309000 On ch=2 n=a#5 v=0
309000 On ch=2 n=f#5 v=48
309120 On ch=2 n=f#5 v=0
309120 On ch=2 n=b5 v=51
309240 On ch=2 n=b5 v=0
309240 On ch=2 n=c#6 v=50
309360 On ch=2 n=c#6 v=0
309360 On ch=2 n=b5 v=48
309480 On ch=2 n=b5 v=0
309480 On ch=2 n=g#5 v=46
309600 On ch=2 n=g#5 v=0
309600 On ch=2 n=f5 v=45
310080 On ch=2 n=f5 v=0
310560 On ch=2 n=b5 v=55
310680 On ch=2 n=b5 v=0
310680 On ch=2 n=c#6 v=56
310800 On ch=2 n=c#6 v=0
310800 On ch=2 n=b5 v=57
310920 On ch=2 n=b5 v=0
310920 On ch=2 n=g#5 v=59
311040 On ch=2 n=g#5 v=0
311040 On ch=2 n=c#6 v=60
311160 On ch=2 n=c#6 v=0
311160 On ch=2 n=d#6 v=61
311280 On ch=2 n=d#6 v=0
311280 On ch=2 n=c#6 v=58
311400 On ch=2 n=c#6 v=0
311400 On ch=2 n=a#5 v=57
311520 On ch=2 n=a#5 v=0
311520 On ch=2 n=f#5 v=55
312000 On ch=2 n=f#5 v=0
312480 On ch=2 n=a#5 v=64
312600 On ch=2 n=a#5 v=0
312600 On ch=2 n=b5 v=64
312720 On ch=2 n=b5 v=0
312720 On ch=2 n=a#5 v=65
312840 On ch=2 n=a#5 v=0
312840 On ch=2 n=f#5 v=65
312960 On ch=2 n=f#5 v=0
312960 On ch=2 n=c#6 v=66
313080 On ch=2 n=c#6 v=0
313080 On ch=2 n=d#6 v=66
313200 On ch=2 n=d#6 v=0
313200 On ch=2 n=c#6 v=64
313320 On ch=2 n=c#6 v=0
313320 On ch=2 n=a#5 v=63
313440 On ch=2 n=a#5 v=0
313440 On ch=2 n=g5 v=61
313920 On ch=2 n=g5 v=0
314400 On ch=2 n=c#6 v=72
314520 On ch=2 n=c#6 v=0
314520 On ch=2 n=d#6 v=73
314640 On ch=2 n=d#6 v=0
314640 On ch=2 n=c#6 v=74
314760 On ch=2 n=c#6 v=0
314760 On ch=2 n=a#5 v=74
314880 On ch=2 n=a#5 v=0
314880 On ch=2 n=d#6 v=75
315000 On ch=2 n=d#6 v=0
315000 On ch=2 n=e6 v=74
315120 On ch=2 n=e6 v=0
315120 On ch=2 n=d#6 v=73
315240 On ch=2 n=d#6 v=0
315240 On ch=2 n=b5 v=71
315360 On ch=2 n=b5 v=0
316320 On ch=2 n=e7 v=81
316480 On ch=2 n=e7 v=0
316480 On ch=2 n=d#7 v=82
316640 On ch=2 n=d#7 v=0
316640 On ch=2 n=c#7 v=83
316800 On ch=2 n=c#7 v=0
316800 On ch=2 n=b6 v=84
316960 On ch=2 n=b6 v=0
316960 On ch=2 n=a6 v=84
317120 On ch=2 n=a6 v=0
317120 On ch=2 n=g#6 v=85
317280 On ch=2 n=g#6 v=0
317280 On ch=2 n=f#6 v=85
317440 On ch=2 n=f#6 v=0
317440 On ch=2 n=e6 v=86
317600 On ch=2 n=e6 v=0
317600 On ch=2 n=d#6 v=87
317760 On ch=2 n=d#6 v=0
317760 On ch=2 n=c#6 v=88
317920 On ch=2 n=c#6 v=0
317920 On ch=2 n=b5 v=88
318080 On ch=2 n=b5 v=0
318080 On ch=2 n=a#5 v=89
318240 On ch=2 n=a#5 v=0
318240 On ch=2 n=b5 v=90
318400 On ch=2 n=b5 v=0
318400 On ch=2 n=c#6 v=90
318560 On ch=2 n=c#6 v=0
318560 On ch=2 n=d#6 v=91
318720 On ch=2 n=d#6 v=0
318720 On ch=2 n=e6 v=89
319200 On ch=2 n=e6 v=0
319200 On ch=2 n=f#6 v=85
319680 On ch=2 n=f#6 v=0
319680 On ch=2 n=g#6 v=81
320160 On ch=2 n=g#6 v=0
320640 On ch=2 n=g#5 v=44
321120 On ch=2 n=g#5 v=0
321600 On ch=2 n=a5 v=45
322080 On ch=2 n=a5 v=0
322560 On ch=2 n=f#6 v=61
323040 On ch=2 n=f#6 v=0
323040 On ch=2 n=g#6 v=58
323520 On ch=2 n=g#6 v=0
323520 On ch=2 n=a6 v=55
324000 On ch=2 n=a6 v=0
324480 On ch=2 n=a5 v=49
324960 On ch=2 n=a5 v=0
325440 On ch=2 n=b5 v=51
325920 On ch=2 n=b5 v=0
326400 On ch=2 n=g#6 v=66
326880 On ch=2 n=g#6 v=0
326880 On ch=2 n=a#6 v=64
327360 On ch=2 n=a#6 v=0
327360 On ch=2 n=b6 v=64
327840 On ch=2 n=b6 v=0
328320 On ch=2 n=d6 v=55
328800 On ch=2 n=d6 v=0
329280 On ch=2 n=e6 v=56
329760 On ch=2 n=e6 v=0
330240 On ch=2 n=a#6 v=73
330720 On ch=2 n=a#6 v=0
330720 On ch=2 n=b6 v=69
331200 On ch=2 n=b6 v=0
331200 On ch=2 n=c#7 v=67
331680 On ch=2 n=c#7 v=0
332160 On ch=2 n=c#6 v=60
332640 On ch=2 n=c#6 v=0
332640 On ch=2 n=d#6 v=61
333120 On ch=2 n=d#6 v=0
333120 On ch=2 n=e6 v=61
333600 On ch=2 n=e6 v=0
334080 On ch=2 n=c#6 v=63
334560 On ch=2 n=c#6 v=0
335040 On ch=2 n=e6 v=64
335520 On ch=2 n=e6 v=0
336000 On ch=2 n=d#6 v=65
336480 On ch=2 n=d#6 v=0
336480 On ch=2 n=f#6 v=66
336600 On ch=2 n=f#6 v=0
336600 On ch=2 n=g#6 v=67
336720 On ch=2 n=g#6 v=0
336720 On ch=2 n=f#6 v=68
336840 On ch=2 n=f#6 v=0
336840 On ch=2 n=d#6 v=69
336960 On ch=2 n=d#6 v=0
336960 On ch=2 n=b6 v=69
337440 On ch=2 n=b6 v=0
338400 On ch=2 n=a#6 v=66
338520 On ch=2 n=a#6 v=0
338520 On ch=2 n=b6 v=66
338560 On ch=2 n=a#6 v=69
338565 On ch=2 n=b6 v=0
338600 On ch=2 n=a#6 v=0
338600 On ch=2 n=g#6 v=70
338640 On ch=2 n=g#6 v=0
338640 On ch=2 n=a#6 v=71
338760 On ch=2 n=a#6 v=0
338760 On ch=2 n=b6 v=71
338880 On ch=2 n=b6 v=0
338880 On ch=2 n=c#7 v=77
339360 On ch=2 n=c#7 v=0
339360 On ch=2 n=a#6 v=72
339840 On ch=2 n=a#6 v=0
339840 On ch=2 n=g6 v=64
340200 On ch=2 n=g6 v=0
340200 On ch=2 n=g6 v=63
340320 On ch=2 n=g6 v=0
340320 On ch=2 n=g6 v=63
340680 On ch=2 n=g6 v=0
340680 On ch=2 n=g6 v=63
340800 On ch=2 n=g6 v=0
340800 On ch=2 n=g6 v=62
341160 On ch=2 n=g6 v=0
341160 On ch=2 n=g6 v=62
341280 On ch=2 n=g6 v=0
341280 On ch=2 n=g6 v=61
341640 On ch=2 n=g6 v=0
341640 On ch=2 n=g6 v=61
341760 On ch=2 n=g6 v=0
341760 On ch=2 n=g#6 v=61
342120 On ch=2 n=g#6 v=0
342120 On ch=2 n=g#6 v=60
342240 On ch=2 n=g#6 v=0
342240 On ch=2 n=a#6 v=60
342600 On ch=2 n=a#6 v=0
342600 On ch=2 n=a#6 v=59
342720 On ch=2 n=a#6 v=0
342720 On ch=2 n=b6 v=59
343075 On ch=2 n=b6 v=0
343080 On ch=2 n=b6 v=59
343200 On ch=2 n=b6 v=0
343200 Par ch=2 c=64 v=127
343200 On ch=2 n=g#7 v=58
343320 On ch=2 n=g#7 v=0
343320 On ch=2 n=d#7 v=58
343440 On ch=2 n=d#7 v=0
343440 On ch=2 n=b6 v=58
343560 On ch=2 n=b6 v=0
343560 On ch=2 n=g#6 v=57
343680 On ch=2 n=g#6 v=0
343680 Par ch=2 c=64 v=0
343680 On ch=2 n=f7 v=57
344040 On ch=2 n=f7 v=0
344040 On ch=2 n=f7 v=57
344160 On ch=2 n=f7 v=0
344160 On ch=2 n=g#7 v=56
344520 On ch=2 n=g#7 v=0
344520 On ch=2 n=f#7 v=56
344640 On ch=2 n=f#7 v=0
344640 On ch=2 n=f7 v=56
345000 On ch=2 n=f7 v=0
345000 On ch=2 n=f7 v=55
345120 On ch=2 n=f7 v=0
345120 On ch=2 n=g#7 v=55
345480 On ch=2 n=g#7 v=0
345480 On ch=2 n=f#7 v=54
345600 On ch=2 n=f#7 v=0
345600 On ch=2 n=f7 v=54
345960 On ch=2 n=f7 v=0
345960 On ch=2 n=f7 v=53
346080 On ch=2 n=f7 v=0
346080 On ch=2 n=g#7 v=53
346440 On ch=2 n=g#7 v=0
346440 On ch=2 n=g#7 v=52
346560 On ch=2 n=g#7 v=0
346560 On ch=2 n=c#7 v=52
346920 On ch=2 n=c#7 v=0
346920 On ch=2 n=c#7 v=52
347040 On ch=2 n=c#7 v=0
347040 On ch=2 n=d#7 v=51
347400 On ch=2 n=d#7 v=0
347400 On ch=2 n=d#7 v=51
347520 On ch=2 n=d#7 v=0
347520 On ch=2 n=f7 v=51
347880 On ch=2 n=f7 v=0
347880 On ch=2 n=f7 v=50
348000 On ch=2 n=f7 v=0
348000 On ch=2 n=g#7 v=50
348360 On ch=2 n=g#7 v=0
348360 On ch=2 n=f#7 v=49
348480 On ch=2 n=f#7 v=0
348480 On ch=2 n=f7 v=49
348840 On ch=2 n=f7 v=0
348840 On ch=2 n=f7 v=48
348960 On ch=2 n=f7 v=0
348960 On ch=2 n=g#7 v=48
349320 On ch=2 n=g#7 v=0
349320 On ch=2 n=f#7 v=47
349440 On ch=2 n=f#7 v=0
349440 On ch=2 n=f7 v=47
349800 On ch=2 n=f7 v=0
349800 On ch=2 n=f7 v=47
349920 On ch=2 n=f7 v=0
349920 On ch=2 n=g#7 v=46
350280 On ch=2 n=g#7 v=0
350280 On ch=2 n=g#7 v=46
350400 On ch=2 n=g#7 v=0
350400 On ch=2 n=c#7 v=45
350760 On ch=2 n=c#7 v=0
350760 On ch=2 n=c#7 v=45
350880 On ch=2 n=c#7 v=0
350880 On ch=2 n=d#7 v=45
351240 On ch=2 n=d#7 v=0
351240 On ch=2 n=d#7 v=46
351360 On ch=2 n=d#7 v=0
351360 On ch=2 n=f7 v=47
351720 On ch=2 n=f7 v=0
351720 On ch=2 n=f7 v=50
351840 On ch=2 n=f7 v=0
351840 On ch=2 n=f#7 v=51
352200 On ch=2 n=f#7 v=0
352200 On ch=2 n=f#7 v=53
352320 On ch=2 n=f#7 v=0
352320 On ch=2 n=f#7 v=54
352680 On ch=2 n=f#7 v=0
352680 On ch=2 n=f#7 v=57
352800 On ch=2 n=f#7 v=0
352800 On ch=2 n=f#7 v=58
353160 On ch=2 n=f#7 v=0
353160 On ch=2 n=f#7 v=61
353280 On ch=2 n=f#7 v=0
353280 On ch=2 n=f#7 v=64
353640 On ch=2 n=f#7 v=0
353640 On ch=2 n=f#7 v=66
353760 On ch=2 n=f#7 v=0
353760 On ch=2 n=f#7 v=67
354120 On ch=2 n=f#7 v=0
354120 On ch=2 n=f#7 v=69
354240 On ch=2 n=f#7 v=0
354240 On ch=2 n=f#7 v=70
354600 On ch=2 n=f#7 v=0
354600 On ch=2 n=f#7 v=73
354720 On ch=2 n=f#7 v=0
354720 On ch=2 n=f#7 v=73
355080 On ch=2 n=f#7 v=0
355080 On ch=2 n=f#7 v=76
355200 On ch=2 n=f#7 v=0
355200 On ch=2 n=f#7 v=76
355560 On ch=2 n=f#7 v=0
355560 On ch=2 n=f#7 v=79
355680 On ch=2 n=f#7 v=0
355680 On ch=2 n=f#7 v=79
356040 On ch=2 n=f#7 v=0
356040 On ch=2 n=f#7 v=82
356160 On ch=2 n=f#7 v=0
356160 On ch=2 n=f#7 v=83
356520 On ch=2 n=f#7 v=0
356520 On ch=2 n=f#7 v=85
356640 On ch=2 n=f#7 v=0
356640 On ch=2 n=f#7 v=86
357000 On ch=2 n=f#7 v=0
357000 On ch=2 n=f#7 v=88
357120 On ch=2 n=f#7 v=0
357120 On ch=2 n=f#7 v=88
357480 On ch=2 n=f#7 v=0
357480 On ch=2 n=f#7 v=89
357600 On ch=2 n=f#7 v=0
357600 On ch=2 n=f#7 v=89
357960 On ch=2 n=f#7 v=0
357960 On ch=2 n=f#7 v=90
358080 On ch=2 n=f#7 v=0
358080 On ch=2 n=f7 v=91
358440 On ch=2 n=f7 v=0
358440 On ch=2 n=f7 v=92
358560 On ch=2 n=f7 v=0
358560 On ch=2 n=f7 v=92
358920 On ch=2 n=f7 v=0
358920 On ch=2 n=f7 v=93
359040 On ch=2 n=f7 v=0
359040 On ch=2 n=f#7 v=95
359520 On ch=2 n=f#7 v=0
360000 On ch=2 n=a#6 v=43
360160 On ch=2 n=a#6 v=0
360160 On ch=2 n=f#6 v=43
360320 On ch=2 n=f#6 v=0
360320 On ch=2 n=c#6 v=44
360480 On ch=2 n=c#6 v=0
360480 On ch=2 n=d#6 v=45
360640 On ch=2 n=d#6 v=0
360640 On ch=2 n=f#6 v=46
360800 On ch=2 n=f#6 v=0
360800 On ch=2 n=d#6 v=46
360960 On ch=2 n=d#6 v=0
360960 On ch=2 n=c#6 v=47
361120 On ch=2 n=c#6 v=0
361120 On ch=2 n=f#6 v=48
361280 On ch=2 n=f#6 v=0
361280 On ch=2 n=g#6 v=49
361440 On ch=2 n=g#6 v=0
361440 On ch=2 n=a#6 v=49
361600 On ch=2 n=a#6 v=0
361600 On ch=2 n=f#6 v=50
361760 On ch=2 n=f#6 v=0
361760 On ch=2 n=c#7 v=51
361920 On ch=2 n=c#7 v=0
361920 On ch=2 n=a#6 v=52
362080 On ch=2 n=a#6 v=0
362080 On ch=2 n=f#6 v=51
362240 On ch=2 n=f#6 v=0
362240 On ch=2 n=c#6 v=50
362400 On ch=2 n=c#6 v=0
362400 On ch=2 n=b5 v=49
362560 On ch=2 n=b5 v=0
362560 On ch=2 n=g#5 v=48
362720 On ch=2 n=g#5 v=0
362720 On ch=2 n=c#6 v=48
362880 On ch=2 n=c#6 v=0
362880 On ch=2 n=a#5 v=47
363360 On ch=2 n=a#5 v=0
363360 On ch=2 n=c#6 v=48
363520 On ch=2 n=c#6 v=0
363520 On ch=2 n=f#6 v=49
363680 On ch=2 n=f#6 v=0
363680 On ch=2 n=g#6 v=49
363840 On ch=2 n=g#6 v=0
363840 On ch=2 n=a#6 v=50
364000 On ch=2 n=a#6 v=0
364000 On ch=2 n=f#6 v=51
364160 On ch=2 n=f#6 v=0
364160 On ch=2 n=c#6 v=51
364320 On ch=2 n=c#6 v=0
364320 On ch=2 n=d#6 v=52
364480 On ch=2 n=d#6 v=0
364480 On ch=2 n=f#6 v=53
364640 On ch=2 n=f#6 v=0
364640 On ch=2 n=d#6 v=53
364800 On ch=2 n=d#6 v=0
364800 On ch=2 n=c#6 v=54
364960 On ch=2 n=c#6 v=0
364960 On ch=2 n=f#6 v=55
365120 On ch=2 n=f#6 v=0
365120 On ch=2 n=g#6 v=55
365280 On ch=2 n=g#6 v=0
365280 On ch=2 n=a#6 v=56
365440 On ch=2 n=a#6 v=0
365440 On ch=2 n=f#6 v=57
365600 On ch=2 n=f#6 v=0
365600 On ch=2 n=c#7 v=57
365760 On ch=2 n=c#7 v=0
365760 On ch=2 n=g6 v=73
366240 On ch=2 n=g6 v=0
366240 On ch=2 n=g#6 v=72
366720 On ch=2 n=g#6 v=0
366720 On ch=2 n=f6 v=68
367680 On ch=2 n=f6 v=0
367680 On ch=2 n=b5 v=59
367800 On ch=2 n=b5 v=0
367800 On ch=2 n=c#6 v=60
367920 On ch=2 n=c#6 v=0
367920 On ch=2 n=b5 v=60
368040 On ch=2 n=b5 v=0
368040 On ch=2 n=a#5 v=60
368160 On ch=2 n=a#5 v=0
368160 On ch=2 n=b5 v=61
368280 On ch=2 n=b5 v=0
368280 On ch=2 n=g#6 v=61
368400 On ch=2 n=g#6 v=0
368400 On ch=2 n=f#6 v=62
368520 On ch=2 n=f#6 v=0
368520 On ch=2 n=f6 v=62
368640 On ch=2 n=f6 v=0
368640 On ch=2 n=f#6 v=63
368760 On ch=2 n=f#6 v=0
368760 On ch=2 n=c#6 v=63
368880 On ch=2 n=c#6 v=0
368880 On ch=2 n=a#5 v=63
369000 On ch=2 n=a#5 v=0
369000 On ch=2 n=c#6 v=64
369120 On ch=2 n=c#6 v=0
369120 On ch=2 n=f#6 v=64
369240 On ch=2 n=f#6 v=0
369240 On ch=2 n=a#6 v=65
369360 On ch=2 n=a#6 v=0
369360 On ch=2 n=c#7 v=65
369480 On ch=2 n=c#7 v=0
369480 On ch=2 n=f#7 v=68
369600 On ch=2 n=f#7 v=0
369600 On ch=2 n=g7 v=79
370080 On ch=2 n=g7 v=0
370080 On ch=2 n=g#7 v=76
370560 On ch=2 n=g#7 v=0
370560 On ch=2 n=f7 v=72
371520 On ch=2 n=f7 v=0
371520 On ch=2 n=b6 v=62
371640 On ch=2 n=b6 v=0
371640 On ch=2 n=c#7 v=62
371760 On ch=2 n=c#7 v=0
371760 On ch=2 n=b6 v=62
371880 On ch=2 n=b6 v=0
371880 On ch=2 n=a#6 v=61
372000 On ch=2 n=a#6 v=0
372000 On ch=2 n=b6 v=62
372120 On ch=2 n=b6 v=0
372120 On ch=2 n=g#7 v=61
372240 On ch=2 n=g#7 v=0
372240 On ch=2 n=f#7 v=61
372360 On ch=2 n=f#7 v=0
372360 On ch=2 n=f7 v=60
372480 On ch=2 n=f7 v=0
372480 On ch=2 n=f#7 v=60
372600 On ch=2 n=f#7 v=0
372600 On ch=2 n=c#7 v=60
372720 On ch=2 n=c#7 v=0
372720 On ch=2 n=a#6 v=59
372840 On ch=2 n=a#6 v=0
372840 On ch=2 n=f#6 v=59
372960 On ch=2 n=f#6 v=0
372960 On ch=2 n=c#6 v=59
373080 On ch=2 n=c#6 v=0
373080 On ch=2 n=f#6 v=59
373200 On ch=2 n=f#6 v=0
373200 On ch=2 n=c#6 v=58
373320 On ch=2 n=c#6 v=0
373320 On ch=2 n=a#5 v=58
373440 On ch=2 n=a#5 v=0
373440 On ch=2 n=b5 v=58
373560 On ch=2 n=b5 v=0
373560 On ch=2 n=c#6 v=58
373680 On ch=2 n=c#6 v=0
373680 On ch=2 n=b5 v=57
373800 On ch=2 n=b5 v=0
373800 On ch=2 n=a#5 v=57
373920 On ch=2 n=a#5 v=0
373920 On ch=2 n=b5 v=57
374040 On ch=2 n=b5 v=0
374040 On ch=2 n=g#6 v=57
374160 On ch=2 n=g#6 v=0
374160 On ch=2 n=f#6 v=56
374280 On ch=2 n=f#6 v=0
374280 On ch=2 n=f6 v=56
374400 On ch=2 n=f6 v=0
374400 On ch=2 n=f#6 v=56
374520 On ch=2 n=f#6 v=0
374520 On ch=2 n=c#6 v=55
374640 On ch=2 n=c#6 v=0
374640 On ch=2 n=a#5 v=55
374760 On ch=2 n=a#5 v=0
374760 On ch=2 n=f#5 v=55
374880 On ch=2 n=f#5 v=0
374880 On ch=2 n=c#5 v=55
375000 On ch=2 n=c#5 v=0
375000 On ch=2 n=f#5 v=54
375120 On ch=2 n=f#5 v=0
375120 On ch=2 n=c#5 v=54
375240 On ch=2 n=c#5 v=0
375240 On ch=2 n=a#4 v=54
375360 On ch=2 n=a#4 v=0
375840 On ch=2 n=b5 v=52
376320 On ch=2 n=b5 v=0
376800 On ch=2 n=b5 v=50
377280 On ch=2 n=b5 v=0
377760 On ch=2 n=c#6 v=48
378240 On ch=2 n=c#6 v=0
378720 On ch=2 n=c#6 v=46
379200 On ch=2 n=c#6 v=0
379680 On ch=2 n=a#5 v=52
380040 On ch=2 n=a#5 v=0
380040 On ch=2 n=b5 v=56
380160 On ch=2 n=b5 v=0
380640 On ch=2 n=c#6 v=42
381120 On ch=2 n=c#6 v=0
381600 On ch=2 n=a#5 v=54
381960 On ch=2 n=a#5 v=0
381960 On ch=2 n=b5 v=57
382080 On ch=2 n=b5 v=0
382080 On ch=2 n=c#6 v=59
382560 On ch=2 n=c#6 v=0
382560 On ch=2 n=f#5 v=53
383040 On ch=2 n=f#5 v=0
383040 On ch=2 n=g5 v=55
383520 On ch=2 n=g5 v=0
383520 On ch=2 n=f#5 v=58
384000 On ch=2 n=f#5 v=0
384000 On ch=2 n=e6 v=60
384480 On ch=2 n=e6 v=0
384480 On ch=2 n=c#6 v=62
384960 On ch=2 n=c#6 v=0
384960 On ch=2 n=d6 v=64
385440 On ch=2 n=d6 v=0
385440 On ch=2 n=b5 v=66
385920 On ch=2 n=b5 v=0
385920 On ch=2 n=b6 v=70
386400 On ch=2 n=b6 v=0
386400 On ch=2 n=g#6 v=72
386880 On ch=2 n=g#6 v=0
386880 On ch=2 n=d7 v=80
387360 On ch=2 n=d7 v=0
387360 On ch=2 n=c#7 v=68
387840 On ch=2 n=c#7 v=0
388320 On ch=2 n=c#7 v=58
388800 On ch=2 n=c#7 v=0
389280 On ch=2 n=c#7 v=65
389760 On ch=2 n=c#7 v=0
390240 On ch=2 n=c#7 v=72
390720 On ch=2 n=c#7 v=0
391200 On ch=2 n=c#7 v=80
391680 On ch=2 n=c#7 v=0
392160 On ch=2 n=f#7 v=94
392640 On ch=2 n=f#7 v=0
392640 On ch=2 n=f#7 v=97
393120 On ch=2 n=f#7 v=0
393120 On ch=2 n=f#7 v=100
393600 On ch=2 n=f#7 v=0
393600 On ch=2 n=f#7 v=104
394080 On ch=2 n=f#7 v=0
394080 Par ch=2 c=64 v=0
395520 Par ch=2 c=91 v=91
395520 Par ch=2 c=93 v=28
396480 On ch=2 n=c6 v=79
397200 On ch=2 n=c6 v=0
397200 On ch=2 n=c#6 v=76
397356 On ch=2 n=c#6 v=0
397440 On ch=2 n=g#5 v=70
397596 On ch=2 n=g#5 v=0
398160 On ch=2 n=a#5 v=48
398316 On ch=2 n=a#5 v=0
398400 On ch=2 n=b5 v=52
398760 On ch=2 n=b5 v=0
398760 On ch=2 n=a#5 v=46
398838 On ch=2 n=a#5 v=0
398880 On ch=2 n=g#5 v=44
399036 On ch=2 n=g#5 v=0
399120 On ch=2 n=f#5 v=40
399276 On ch=2 n=f#5 v=0
399360 On ch=2 n=f5 v=37
399620 On ch=2 n=f5 v=0
400320 On ch=2 n=c#6 v=81
401040 On ch=2 n=c#6 v=0
401040 On ch=2 n=d#6 v=76
401196 On ch=2 n=d#6 v=0
401280 On ch=2 n=e6 v=70
401514 On ch=2 n=e6 v=0
402000 On ch=2 n=f#6 v=50
402156 On ch=2 n=f#6 v=0
402240 On ch=2 n=g#6 v=54
402600 On ch=2 n=g#6 v=0
402600 On ch=2 n=e6 v=47
402678 On ch=2 n=e6 v=0
402720 On ch=2 n=d#6 v=45
402876 On ch=2 n=d#6 v=0
402960 On ch=2 n=c#6 v=41
403116 On ch=2 n=c#6 v=0
403200 On ch=2 n=d#6 v=37
403500 On ch=2 n=d#6 v=0
404160 On ch=2 n=b5 v=47
404880 On ch=2 n=b5 v=0
405120 On ch=2 n=d#6 v=41
405480 On ch=2 n=d#6 v=0
405840 On ch=2 n=c#6 v=38
405996 On ch=2 n=c#6 v=0
406080 On ch=2 n=b5 v=41
406440 On ch=2 n=b5 v=0
406440 On ch=2 n=a#5 v=36
406518 On ch=2 n=a#5 v=0
406560 On ch=2 n=g#5 v=35
406716 On ch=2 n=g#5 v=0
406800 On ch=2 n=c#6 v=34
406956 On ch=2 n=c#6 v=0
407040 On ch=2 n=a#5 v=36
407160 On ch=2 n=a#5 v=0
407280 On ch=2 n=f5 v=37
407400 On ch=2 n=f5 v=0
407520 On ch=2 n=b5 v=39
407640 On ch=2 n=b5 v=0
407760 On ch=2 n=a#5 v=41
407880 On ch=2 n=a#5 v=0
408000 On ch=2 n=d#6 v=43
408120 On ch=2 n=d#6 v=0
408240 On ch=2 n=c#6 v=45
408360 On ch=2 n=c#6 v=0
408480 On ch=2 n=f6 v=47
408600 On ch=2 n=f6 v=0
408720 On ch=2 n=f6 v=49
408840 On ch=2 n=f6 v=0
408960 On ch=2 n=f#6 v=51
409080 On ch=2 n=f#6 v=0
409200 On ch=2 n=f#6 v=53
409320 On ch=2 n=f#6 v=0
409440 On ch=2 n=f#6 v=55
409560 On ch=2 n=f#6 v=0
409680 On ch=2 n=a#6 v=57
409800 On ch=2 n=a#6 v=0
409920 On ch=2 n=a#6 v=59
410040 On ch=2 n=a#6 v=0
410160 On ch=2 n=a#6 v=60
410280 On ch=2 n=a#6 v=0
410400 On ch=2 n=g#6 v=62
410520 On ch=2 n=g#6 v=0
410640 On ch=2 n=f6 v=64
410760 On ch=2 n=f6 v=0
410880 On ch=2 n=a#6 v=46
411000 On ch=2 n=a#6 v=0
411120 On ch=2 n=a#5 v=47
411240 On ch=2 n=a#5 v=0
411360 On ch=2 n=b5 v=49
411480 On ch=2 n=b5 v=0
411600 On ch=2 n=a#5 v=51
411720 On ch=2 n=a#5 v=0
411840 On ch=2 n=d#6 v=52
411960 On ch=2 n=d#6 v=0
412080 On ch=2 n=c#6 v=54
412200 On ch=2 n=c#6 v=0
412320 On ch=2 n=f6 v=56
412440 On ch=2 n=f6 v=0
412560 On ch=2 n=f6 v=58
412680 On ch=2 n=f6 v=0
412800 On ch=2 n=f#6 v=59
412920 On ch=2 n=f#6 v=0
413040 On ch=2 n=f#6 v=61
413160 On ch=2 n=f#6 v=0
413280 On ch=2 n=f#6 v=63
413400 On ch=2 n=f#6 v=0
413520 On ch=2 n=a#6 v=64
413640 On ch=2 n=a#6 v=0
413760 On ch=2 n=a#6 v=66
413880 On ch=2 n=a#6 v=0
414000 On ch=2 n=a#6 v=68
414120 On ch=2 n=a#6 v=0
414240 On ch=2 n=g#6 v=70
414360 On ch=2 n=g#6 v=0
414480 On ch=2 n=f6 v=71
414600 On ch=2 n=f6 v=0
414720 On ch=2 n=a#6 v=73
414840 On ch=2 n=a#6 v=0
414960 On ch=2 n=a#6 v=75
415080 On ch=2 n=a#6 v=0
415200 On ch=2 n=f#6 v=76
415320 On ch=2 n=f#6 v=0
415440 On ch=2 n=f#6 v=78
415560 On ch=2 n=f#6 v=0
415680 On ch=2 n=f#6 v=80
415800 On ch=2 n=f#6 v=0
415920 On ch=2 n=f#6 v=82
416040 On ch=2 n=f#6 v=0
416160 On ch=2 n=f#6 v=83
416280 On ch=2 n=f#6 v=0
416400 On ch=2 n=f#6 v=85
416520 On ch=2 n=f#6 v=0
416640 On ch=2 n=g#6 v=87
416880 On ch=2 n=g#6 v=0
416880 On ch=2 n=c5 v=77
417000 On ch=2 n=c5 v=0
417120 On ch=2 n=c5 v=72
417240 On ch=2 n=c5 v=0
417360 On ch=2 n=e5 v=69
417480 On ch=2 n=e5 v=0
417600 On ch=2 n=e5 v=68
417720 On ch=2 n=e5 v=0
417840 On ch=2 n=g5 v=67
417960 On ch=2 n=g5 v=0
418080 On ch=2 n=g5 v=66
418200 On ch=2 n=g5 v=0
418320 On ch=2 n=c6 v=65
418440 On ch=2 n=c6 v=0
418560 On ch=2 n=c6 v=64
418680 On ch=2 n=c6 v=0
418800 On ch=2 n=e6 v=63
418920 On ch=2 n=e6 v=0
419040 On ch=2 n=e6 v=62
419160 On ch=2 n=e6 v=0
419280 On ch=2 n=g6 v=61
419400 On ch=2 n=g6 v=0
419520 On ch=2 n=g6 v=59
419640 On ch=2 n=g6 v=0
419760 On ch=2 n=c7 v=58
419880 On ch=2 n=c7 v=0
420000 On ch=2 n=c7 v=57
420120 On ch=2 n=c7 v=0
420240 On ch=2 n=e7 v=56
420360 On ch=2 n=e7 v=0
420480 On ch=2 n=e7 v=55
420600 On ch=2 n=e7 v=0
420720 On ch=2 n=g7 v=54
420840 On ch=2 n=g7 v=0
420960 On ch=2 n=c7 v=53
421080 On ch=2 n=c7 v=0
421200 On ch=2 n=e7 v=52
421320 On ch=2 n=e7 v=0
421440 On ch=2 n=g6 v=51
421560 On ch=2 n=g6 v=0
421680 On ch=2 n=c7 v=50
421800 On ch=2 n=c7 v=0
421920 On ch=2 n=e6 v=49
422040 On ch=2 n=e6 v=0
422160 On ch=2 n=g6 v=47
422280 On ch=2 n=g6 v=0
422400 On ch=2 n=c6 v=46
422520 On ch=2 n=c6 v=0
422640 On ch=2 n=e6 v=45
422760 On ch=2 n=e6 v=0
422880 On ch=2 n=g5 v=44
423000 On ch=2 n=g5 v=0
423120 On ch=2 n=c6 v=43
423240 On ch=2 n=c6 v=0
423360 On ch=2 n=e5 v=42
423480 On ch=2 n=e5 v=0
423600 On ch=2 n=c6 v=41
423720 On ch=2 n=c6 v=0
423840 On ch=2 n=c5 v=40
423960 On ch=2 n=c5 v=0
424080 On ch=2 n=c6 v=39
424200 On ch=2 n=c6 v=0
424320 On ch=2 n=c5 v=38
424440 On ch=2 n=c5 v=0
424560 On ch=2 n=c6 v=37
424680 On ch=2 n=c6 v=0
424800 On ch=2 n=c4 v=36
424920 On ch=2 n=c4 v=0
425040 On ch=2 n=c5 v=34
425160 On ch=2 n=c5 v=0
425280 On ch=2 n=c5 v=33
425400 On ch=2 n=c5 v=0
425520 On ch=2 n=c6 v=32
425640 On ch=2 n=c6 v=0
425760 On ch=2 n=c4 v=31
425880 On ch=2 n=c4 v=0
426000 On ch=2 n=c5 v=30
426120 On ch=2 n=c5 v=0
426240 On ch=2 n=c6 v=79
426960 On ch=2 n=c6 v=0
426960 On ch=2 n=c#6 v=77
427116 On ch=2 n=c#6 v=0
427200 On ch=2 n=g#5 v=72
427356 On ch=2 n=g#5 v=0
427920 On ch=2 n=a#5 v=47
428076 On ch=2 n=a#5 v=0
428160 On ch=2 n=b5 v=53
428520 On ch=2 n=b5 v=0
428520 On ch=2 n=a#5 v=49
428598 On ch=2 n=a#5 v=0
428640 On ch=2 n=g#5 v=47
428796 On ch=2 n=g#5 v=0
428880 On ch=2 n=f#5 v=44
429036 On ch=2 n=f#5 v=0
429120 On ch=2 n=f5 v=41
429480 On ch=2 n=f5 v=0
430080 On ch=2 n=c#6 v=79
430800 On ch=2 n=c#6 v=0
430800 On ch=2 n=d#6 v=77
430956 On ch=2 n=d#6 v=0
431040 On ch=2 n=e6 v=75
431274 On ch=2 n=e6 v=0
431760 On ch=2 n=f#6 v=47
431916 On ch=2 n=f#6 v=0
432000 On ch=2 n=g#6 v=51
432360 On ch=2 n=g#6 v=0
432360 On ch=2 n=e6 v=47
432438 On ch=2 n=e6 v=0
432480 On ch=2 n=d#6 v=46
432636 On ch=2 n=d#6 v=0
432720 On ch=2 n=c#6 v=43
432876 On ch=2 n=c#6 v=0
432960 On ch=2 n=d#6 v=41
433320 On ch=2 n=d#6 v=0
433920 On ch=2 n=b5 v=41
434640 On ch=2 n=b5 v=0
434640 On ch=2 n=a#5 v=39
434796 On ch=2 n=a#5 v=0
434880 On ch=2 n=d#6 v=35
435240 On ch=2 n=d#6 v=0
435600 On ch=2 n=c#6 v=31
435756 On ch=2 n=c#6 v=0
435840 On ch=2 n=b5 v=35
436200 On ch=2 n=b5 v=0
436200 On ch=2 n=a#5 v=33
436278 On ch=2 n=a#5 v=0
436320 On ch=2 n=g#5 v=33
436476 On ch=2 n=g#5 v=0
436560 On ch=2 n=c#6 v=31
436716 On ch=2 n=c#6 v=0
436800 On ch=2 n=a#5 v=35
436920 On ch=2 n=a#5 v=0
437040 On ch=2 n=f5 v=37
437160 On ch=2 n=f5 v=0
437280 On ch=2 n=b5 v=39
437400 On ch=2 n=b5 v=0
437520 On ch=2 n=a#5 v=41
437640 On ch=2 n=a#5 v=0
437760 On ch=2 n=d#6 v=43
437880 On ch=2 n=d#6 v=0
438000 On ch=2 n=c#6 v=45
438120 On ch=2 n=c#6 v=0
438240 On ch=2 n=f6 v=47
438360 On ch=2 n=f6 v=0
438480 On ch=2 n=f6 v=49
438600 On ch=2 n=f6 v=0
438720 On ch=2 n=f#6 v=51
438840 On ch=2 n=f#6 v=0
438960 On ch=2 n=f#6 v=53
439080 On ch=2 n=f#6 v=0
439200 On ch=2 n=f#6 v=55
439320 On ch=2 n=f#6 v=0
439440 On ch=2 n=a#6 v=57
439560 On ch=2 n=a#6 v=0
439680 On ch=2 n=a#6 v=59
439800 On ch=2 n=a#6 v=0
439920 On ch=2 n=a#6 v=61
440040 On ch=2 n=a#6 v=0
440160 On ch=2 n=g#6 v=63
440280 On ch=2 n=g#6 v=0
440400 On ch=2 n=f6 v=65
440520 On ch=2 n=f6 v=0
440880 On ch=2 n=a#5 v=56
441000 On ch=2 n=a#5 v=0
441120 On ch=2 n=b5 v=58
441240 On ch=2 n=b5 v=0
441360 On ch=2 n=a#5 v=60
441480 On ch=2 n=a#5 v=0
441600 On ch=2 n=d#6 v=61
441720 On ch=2 n=d#6 v=0
441840 On ch=2 n=c#6 v=63
441960 On ch=2 n=c#6 v=0
442080 On ch=2 n=f6 v=65
442200 On ch=2 n=f6 v=0
442320 On ch=2 n=f6 v=66
442440 On ch=2 n=f6 v=0
442560 On ch=2 n=f#6 v=68
442680 On ch=2 n=f#6 v=0
442800 On ch=2 n=f#6 v=70
442920 On ch=2 n=f#6 v=0
443040 On ch=2 n=f#6 v=71
443160 On ch=2 n=f#6 v=0
443280 On ch=2 n=f#6 v=73
443400 On ch=2 n=f#6 v=0
443520 On ch=2 n=f#6 v=75
443640 On ch=2 n=f#6 v=0
443760 On ch=2 n=f#6 v=76
443880 On ch=2 n=f#6 v=0
444000 On ch=2 n=f#6 v=78
444120 On ch=2 n=f#6 v=0
444240 On ch=2 n=f#6 v=80
444360 On ch=2 n=f#6 v=0
444480 On ch=2 n=f6 v=81
444720 On ch=2 n=f6 v=0
444720 On ch=2 n=b5 v=74
444840 On ch=2 n=b5 v=0
444960 On ch=2 n=a#5 v=68
445080 On ch=2 n=a#5 v=0
445200 On ch=2 n=a#5 v=65
445320 On ch=2 n=a#5 v=0
445440 On ch=2 n=g#5 v=63
445560 On ch=2 n=g#5 v=0
445680 On ch=2 n=g#5 v=62
445800 On ch=2 n=g#5 v=0
445920 On ch=2 n=f#5 v=60
446040 On ch=2 n=f#5 v=0
446160 On ch=2 n=f#5 v=59
446280 On ch=2 n=f#5 v=0
446400 On ch=2 n=f5 v=58
446520 On ch=2 n=f5 v=0
446640 On ch=2 n=f5 v=56
446760 On ch=2 n=f5 v=0
446880 On ch=2 n=d#5 v=55
447000 On ch=2 n=d#5 v=0
447120 On ch=2 n=d#5 v=53
447240 On ch=2 n=d#5 v=0
447360 On ch=2 n=c#5 v=52
447480 On ch=2 n=c#5 v=0
447600 On ch=2 n=c#5 v=51
447720 On ch=2 n=c#5 v=0
447840 On ch=2 n=b4 v=49
447960 On ch=2 n=b4 v=0
448080 On ch=2 n=b4 v=48
448200 On ch=2 n=b4 v=0
448320 On ch=2 n=a#4 v=46
448440 On ch=2 n=a#4 v=0
448560 On ch=2 n=a#4 v=45
448680 On ch=2 n=a#4 v=0
448800 On ch=2 n=a#4 v=44
448920 On ch=2 n=a#4 v=0
449040 On ch=2 n=a#4 v=42
449160 On ch=2 n=a#4 v=0
449280 On ch=2 n=a#4 v=41
449400 On ch=2 n=a#4 v=0
449520 On ch=2 n=a#4 v=39
449640 On ch=2 n=a#4 v=0
449760 On ch=2 n=a#4 v=38
449880 On ch=2 n=a#4 v=0
450000 On ch=2 n=a#4 v=37
450120 On ch=2 n=a#4 v=0
450240 Par ch=2 c=64 v=127
450480 On ch=2 n=a#4 v=95
450600 On ch=2 n=a#4 v=0
450720 On ch=2 n=d#5 v=93
450840 On ch=2 n=d#5 v=0
450960 On ch=2 n=g5 v=91
451080 On ch=2 n=g5 v=0
451200 On ch=2 n=a#5 v=89
451320 On ch=2 n=a#5 v=0
451440 On ch=2 n=d#6 v=87
451560 On ch=2 n=d#6 v=0
451680 On ch=2 n=g6 v=85
451800 On ch=2 n=g6 v=0
451920 On ch=2 n=a#6 v=83
452040 On ch=2 n=a#6 v=0
452160 On ch=2 n=g7 v=80
452400 On ch=2 n=g7 v=0
452400 Par ch=2 c=64 v=0
452400 On ch=2 n=f#5 v=55
452520 On ch=2 n=f#5 v=0
452640 On ch=2 n=d#5 v=53
452760 On ch=2 n=d#5 v=0
452880 On ch=2 n=f#5 v=52
453000 On ch=2 n=f#5 v=0
453120 On ch=2 n=d#5 v=51
453240 On ch=2 n=d#5 v=0
453360 On ch=2 n=f#5 v=49
453480 On ch=2 n=f#5 v=0
453600 On ch=2 n=g#5 v=48
453720 On ch=2 n=g#5 v=0
453840 On ch=2 n=f5 v=47
453960 On ch=2 n=f5 v=0
454080 Par ch=2 c=64 v=127
454320 On ch=2 n=a#4 v=87
454440 On ch=2 n=a#4 v=0
454560 On ch=2 n=d#5 v=85
454680 On ch=2 n=d#5 v=0
454800 On ch=2 n=g5 v=84
454920 On ch=2 n=g5 v=0
455040 On ch=2 n=a#5 v=82
455160 On ch=2 n=a#5 v=0
455280 On ch=2 n=d#6 v=80
455400 On ch=2 n=d#6 v=0
455520 On ch=2 n=g6 v=78
455640 On ch=2 n=g6 v=0
455760 On ch=2 n=a#6 v=76
455880 On ch=2 n=a#6 v=0
456000 On ch=2 n=g7 v=74
456240 On ch=2 n=g7 v=0
456240 Par ch=2 c=64 v=0
456240 On ch=2 n=f#5 v=51
456360 On ch=2 n=f#5 v=0
456480 On ch=2 n=d#5 v=50
456600 On ch=2 n=d#5 v=0
456720 On ch=2 n=f#5 v=48
456840 On ch=2 n=f#5 v=0
456960 On ch=2 n=d#5 v=47
457080 On ch=2 n=d#5 v=0
457200 On ch=2 n=f#5 v=46
457320 On ch=2 n=f#5 v=0
457440 On ch=2 n=g#5 v=45
457560 On ch=2 n=g#5 v=0
457680 On ch=2 n=f5 v=44
457800 On ch=2 n=f5 v=0
457920 On ch=2 n=d#5 v=44
458040 On ch=2 n=d#5 v=0
458160 On ch=2 n=f#5 v=47
458280 On ch=2 n=f#5 v=0
458400 On ch=2 n=f5 v=50
458520 On ch=2 n=f5 v=0
458640 On ch=2 n=d6 v=53
458760 On ch=2 n=d6 v=0
458880 On ch=2 n=f#5 v=56
459000 On ch=2 n=f#5 v=0
459120 On ch=2 n=d#6 v=59
459240 On ch=2 n=d#6 v=0
459360 On ch=2 n=d6 v=62
459480 On ch=2 n=d6 v=0
459600 On ch=2 n=f6 v=65
459720 On ch=2 n=f6 v=0
459840 On ch=2 n=f#5 v=68
459960 On ch=2 n=f#5 v=0
460080 On ch=2 n=d#6 v=71
460200 On ch=2 n=d#6 v=0
460320 On ch=2 n=d6 v=74
460440 On ch=2 n=d6 v=0
460560 On ch=2 n=f6 v=76
460680 On ch=2 n=f6 v=0
460800 On ch=2 n=d#6 v=79
460920 On ch=2 n=d#6 v=0
461040 On ch=2 n=f#6 v=82
461160 On ch=2 n=f#6 v=0
461280 On ch=2 n=f6 v=85
461400 On ch=2 n=f6 v=0
461520 On ch=2 n=g#6 v=88
461640 On ch=2 n=g#6 v=0
461760 On ch=2 n=d#5 v=60
461880 On ch=2 n=d#5 v=0
462000 On ch=2 n=f#5 v=63
462120 On ch=2 n=f#5 v=0
462240 On ch=2 n=f5 v=65
462360 On ch=2 n=f5 v=0
462480 On ch=2 n=d6 v=68
462600 On ch=2 n=d6 v=0
462720 On ch=2 n=f#5 v=70
462840 On ch=2 n=f#5 v=0
462960 On ch=2 n=d#6 v=73
463080 On ch=2 n=d#6 v=0
463200 On ch=2 n=d6 v=75
463320 On ch=2 n=d6 v=0
463440 On ch=2 n=f6 v=78
463560 On ch=2 n=f6 v=0
463680 On ch=2 n=f#5 v=80
463800 On ch=2 n=f#5 v=0
463920 On ch=2 n=d#6 v=83
464040 On ch=2 n=d#6 v=0
464160 On ch=2 n=d6 v=85
464280 On ch=2 n=d6 v=0
464400 On ch=2 n=f6 v=88
464520 On ch=2 n=f6 v=0
464640 On ch=2 n=d#6 v=90
464760 On ch=2 n=d#6 v=0
464880 On ch=2 n=f#6 v=93
465000 On ch=2 n=f#6 v=0
465120 On ch=2 n=e6 v=95
465240 On ch=2 n=e6 v=0
465360 On ch=2 n=f#6 v=98
465480 On ch=2 n=f#6 v=0
465600 On ch=2 n=d#6 v=100
465720 On ch=2 n=d#6 v=0
465840 On ch=2 n=b6 v=103
465960 On ch=2 n=b6 v=0
466080 On ch=2 n=b6 v=105
466200 On ch=2 n=b6 v=0
466320 On ch=2 n=b6 v=108
466440 On ch=2 n=b6 v=0
466560 Par ch=2 c=64 v=127
466560 Par ch=2 c=64 v=127
466560 On ch=2 n=f6 v=111
466920 On ch=2 n=f6 v=0
467280 Par ch=2 c=64 v=0
467280 Par ch=2 c=64 v=0
467280 On ch=2 n=a#4 v=98
467400 On ch=2 n=a#4 v=0
467520 On ch=2 n=a#4 v=91
467640 On ch=2 n=a#4 v=0
467760 On ch=2 n=a#4 v=87
467880 On ch=2 n=a#4 v=0
468000 On ch=2 n=c#5 v=86
468120 On ch=2 n=c#5 v=0
468240 On ch=2 n=c#5 v=85
468360 On ch=2 n=c#5 v=0
468480 On ch=2 n=e5 v=84
468600 On ch=2 n=e5 v=0
468720 On ch=2 n=e5 v=83
468840 On ch=2 n=e5 v=0
468960 On ch=2 n=a#5 v=82
469080 On ch=2 n=a#5 v=0
469200 On ch=2 n=a#5 v=81
469320 On ch=2 n=a#5 v=0
469440 On ch=2 n=c#6 v=80
469560 On ch=2 n=c#6 v=0
469680 On ch=2 n=c#6 v=78
469800 On ch=2 n=c#6 v=0
469920 On ch=2 n=e6 v=77
470040 On ch=2 n=e6 v=0
470160 On ch=2 n=e6 v=76
470280 On ch=2 n=e6 v=0
470400 On ch=2 n=a#6 v=75
470520 On ch=2 n=a#6 v=0
470640 On ch=2 n=a#6 v=74
470760 On ch=2 n=a#6 v=0
470880 On ch=2 n=c#7 v=73
471000 On ch=2 n=c#7 v=0
471120 On ch=2 n=c#7 v=72
471240 On ch=2 n=c#7 v=0
471360 On ch=2 n=c#7 v=71
471480 On ch=2 n=c#7 v=0
471600 On ch=2 n=e7 v=70
471720 On ch=2 n=e7 v=0
471840 On ch=2 n=a#6 v=69
471960 On ch=2 n=a#6 v=0
472080 On ch=2 n=d7 v=68
472200 On ch=2 n=d7 v=0
472320 On ch=2 n=c#7 v=67
472440 On ch=2 n=c#7 v=0
472560 On ch=2 n=e7 v=66
472680 On ch=2 n=e7 v=0
472800 On ch=2 n=a#6 v=65
472920 On ch=2 n=a#6 v=0
473040 On ch=2 n=d7 v=64
473160 On ch=2 n=d7 v=0
473280 On ch=2 n=c#7 v=63
473400 On ch=2 n=c#7 v=0
473520 On ch=2 n=e7 v=62
473640 On ch=2 n=e7 v=0
473760 On ch=2 n=a#6 v=61
473880 On ch=2 n=a#6 v=0
474000 On ch=2 n=d7 v=60
474120 On ch=2 n=d7 v=0
474240 On ch=2 n=f#6 v=58
474360 On ch=2 n=f#6 v=0
474480 On ch=2 n=d7 v=57
474600 On ch=2 n=d7 v=0
474720 On ch=2 n=e6 v=56
474840 On ch=2 n=e6 v=0
474960 On ch=2 n=e6 v=55
475080 On ch=2 n=e6 v=0
475200 On ch=2 n=c#6 v=54
475320 On ch=2 n=c#6 v=0
475440 On ch=2 n=e6 v=53
475560 On ch=2 n=e6 v=0
475680 On ch=2 n=a#5 v=52
475800 On ch=2 n=a#5 v=0
475920 On ch=2 n=d6 v=51
476040 On ch=2 n=d6 v=0
476160 On ch=2 n=c#6 v=50
476280 On ch=2 n=c#6 v=0
476400 On ch=2 n=e6 v=49
476520 On ch=2 n=e6 v=0
476640 On ch=2 n=a#5 v=48
476760 On ch=2 n=a#5 v=0
476880 On ch=2 n=d6 v=47
477000 On ch=2 n=d6 v=0
477120 On ch=2 n=c#6 v=46
477240 On ch=2 n=c#6 v=0
477360 On ch=2 n=e6 v=45
477480 On ch=2 n=e6 v=0
477600 On ch=2 n=a#6 v=44
477720 On ch=2 n=a#6 v=0
477840 On ch=2 n=d6 v=43
477960 On ch=2 n=d6 v=0
478080 On ch=2 n=c#7 v=42
478200 On ch=2 n=c#7 v=0
478320 On ch=2 n=d6 v=41
478440 On ch=2 n=d6 v=0
478560 On ch=2 n=a#6 v=40
478680 On ch=2 n=a#6 v=0
478800 On ch=2 n=d6 v=39
478920 On ch=2 n=d6 v=0
479040 On ch=2 n=c#6 v=37
479160 On ch=2 n=c#6 v=0
479280 On ch=2 n=c#7 v=36
479400 On ch=2 n=c#7 v=0
479520 On ch=2 n=a#5 v=35
479640 On ch=2 n=a#5 v=0
479760 On ch=2 n=a#6 v=34
479880 On ch=2 n=a#6 v=0
480000 On ch=2 n=c#6 v=33
480120 On ch=2 n=c#6 v=0
480240 On ch=2 n=c#7 v=32
480360 On ch=2 n=c#7 v=0
480480 On ch=2 n=a#5 v=31
480600 On ch=2 n=a#5 v=0
480720 On ch=2 n=a#6 v=30
480840 On ch=2 n=a#6 v=0
480960 On ch=2 n=f7 v=79
481680 On ch=2 n=f7 v=0
481680 On ch=2 n=f#7 v=75
481836 On ch=2 n=f#7 v=0
481920 On ch=2 n=c#7 v=72
482199 On ch=2 n=c#7 v=0
482640 On ch=2 n=d#5 v=47
482796 On ch=2 n=d#5 v=0
482880 On ch=2 n=e5 v=51
483240 On ch=2 n=e5 v=0
483240 On ch=2 n=d#5 v=47
483318 On ch=2 n=d#5 v=0
483360 On ch=2 n=c#5 v=46
483516 On ch=2 n=c#5 v=0
483600 On ch=2 n=b4 v=44
483756 On ch=2 n=b4 v=0
483840 On ch=2 n=a#4 v=41
484200 On ch=2 n=a#4 v=0
484800 On ch=2 n=d#7 v=79
485520 On ch=2 n=d#7 v=0
485520 On ch=2 n=e7 v=76
485676 On ch=2 n=e7 v=0
485760 On ch=2 n=f#7 v=72
485916 On ch=2 n=f#7 v=0
486480 On ch=2 n=b4 v=47
486636 On ch=2 n=b4 v=0
486720 On ch=2 n=c#5 v=51
487080 On ch=2 n=c#5 v=0
487080 On ch=2 n=a4 v=47
487158 On ch=2 n=a4 v=0
487200 On ch=2 n=g#4 v=46
487356 On ch=2 n=g#4 v=0
487440 On ch=2 n=f#4 v=44
487596 On ch=2 n=f#4 v=0
487680 On ch=2 n=g#4 v=41
488040 On ch=2 n=g#4 v=0
488640 On ch=2 n=e7 v=79
489360 On ch=2 n=e7 v=0
489360 On ch=2 n=d#7 v=76
489516 On ch=2 n=d#7 v=0
489600 On ch=2 n=g#7 v=72
489756 On ch=2 n=g#7 v=0
490320 Par ch=2 c=64 v=0
490320 On ch=2 n=f#5 v=47
490476 On ch=2 n=f#5 v=0
490560 On ch=2 n=e5 v=53
490920 On ch=2 n=e5 v=0
490920 On ch=2 n=d#5 v=49
490998 On ch=2 n=d#5 v=0
491040 On ch=2 n=c#5 v=48
491196 On ch=2 n=c#5 v=0
491280 On ch=2 n=f#5 v=46
491436 On ch=2 n=f#5 v=0
491520 On ch=2 n=d#5 v=44
491640 On ch=2 n=d#5 v=0
491760 On ch=2 n=a#4 v=46
491880 On ch=2 n=a#4 v=0
492000 On ch=2 n=e5 v=48
492120 On ch=2 n=e5 v=0
492240 On ch=2 n=d#5 v=50
492360 On ch=2 n=d#5 v=0
492480 On ch=2 n=g#5 v=52
492600 On ch=2 n=g#5 v=0
492720 On ch=2 n=f#5 v=54
492840 On ch=2 n=f#5 v=0
492960 On ch=2 n=a#5 v=56
493080 On ch=2 n=a#5 v=0
493200 On ch=2 n=a#5 v=58
493320 On ch=2 n=a#5 v=0
493440 On ch=2 n=b5 v=60
493560 On ch=2 n=b5 v=0
493680 On ch=2 n=b5 v=62
493800 On ch=2 n=b5 v=0
493920 On ch=2 n=b5 v=64
494040 On ch=2 n=b5 v=0
494160 On ch=2 n=d#6 v=66
494280 On ch=2 n=d#6 v=0
494400 On ch=2 n=d#6 v=68
494520 On ch=2 n=d#6 v=0
494640 On ch=2 n=d#6 v=70
494760 On ch=2 n=d#6 v=0
494880 On ch=2 n=c#6 v=72
495000 On ch=2 n=c#6 v=0
495120 On ch=2 n=a#5 v=74
495240 On ch=2 n=a#5 v=0
495360 On ch=2 n=d#6 v=58
495480 On ch=2 n=d#6 v=0
495600 On ch=2 n=d#5 v=59
495720 On ch=2 n=d#5 v=0
495840 On ch=2 n=e5 v=61
495960 On ch=2 n=e5 v=0
496080 On ch=2 n=d#5 v=62
496200 On ch=2 n=d#5 v=0
496320 On ch=2 n=g#5 v=64
496440 On ch=2 n=g#5 v=0
496560 On ch=2 n=f#5 v=65
496680 On ch=2 n=f#5 v=0
496800 On ch=2 n=a#5 v=67
496920 On ch=2 n=a#5 v=0
497040 On ch=2 n=a#5 v=68
497160 On ch=2 n=a#5 v=0
497280 On ch=2 n=b5 v=70
497400 On ch=2 n=b5 v=0
497520 On ch=2 n=b5 v=71
497640 On ch=2 n=b5 v=0
497760 On ch=2 n=b5 v=72
497880 On ch=2 n=b5 v=0
498000 On ch=2 n=d6 v=74
498120 On ch=2 n=d6 v=0
498240 On ch=2 n=d6 v=75
498360 On ch=2 n=d6 v=0
498480 On ch=2 n=d6 v=77
498600 On ch=2 n=d6 v=0
498720 On ch=2 n=f6 v=78
498840 On ch=2 n=f6 v=0
498960 On ch=2 n=g#6 v=80
499080 On ch=2 n=g#6 v=0
499200 On ch=2 n=f#6 v=81
499320 On ch=2 n=f#6 v=0
499440 On ch=2 n=f#6 v=83
499560 On ch=2 n=f#6 v=0
499680 On ch=2 n=f#6 v=84
499800 On ch=2 n=f#6 v=0
499920 On ch=2 n=f#6 v=86
500040 On ch=2 n=f#6 v=0
500160 On ch=2 n=f#6 v=87
500280 On ch=2 n=f#6 v=0
500400 On ch=2 n=c#6 v=89
500520 On ch=2 n=c#6 v=0
500640 On ch=2 n=c#6 v=90
500760 On ch=2 n=c#6 v=0
500880 On ch=2 n=c6 v=92
501000 On ch=2 n=c6 v=0
501120 On ch=2 n=c#6 v=93
501360 On ch=2 n=c#6 v=0
501360 On ch=2 n=c#6 v=87
501480 On ch=2 n=c#6 v=0
501600 On ch=2 n=b5 v=81
501720 On ch=2 n=b5 v=0
501840 On ch=2 n=b5 v=76
501960 On ch=2 n=b5 v=0
502080 On ch=2 n=a5 v=75
502200 On ch=2 n=a5 v=0
502320 On ch=2 n=a5 v=73
502440 On ch=2 n=a5 v=0
502560 On ch=2 n=g#5 v=71
502680 On ch=2 n=g#5 v=0
502800 On ch=2 n=g#5 v=70
502920 On ch=2 n=g#5 v=0
503040 On ch=2 n=f#5 v=68
503160 On ch=2 n=f#5 v=0
503280 On ch=2 n=f#5 v=66
503400 On ch=2 n=f#5 v=0
503520 On ch=2 n=f5 v=65
503640 On ch=2 n=f5 v=0
503760 On ch=2 n=f5 v=63
503880 On ch=2 n=f5 v=0
504000 On ch=2 n=d5 v=61
504120 On ch=2 n=d5 v=0
504240 On ch=2 n=d5 v=60
504360 On ch=2 n=d5 v=0
504480 On ch=2 n=c#5 v=58
504600 On ch=2 n=c#5 v=0
504720 On ch=2 n=c#5 v=56
504840 On ch=2 n=c#5 v=0
504960 On ch=2 n=c#5 v=55
505080 On ch=2 n=c#5 v=0
505200 On ch=2 n=c#5 v=53
505320 On ch=2 n=c#5 v=0
505440 On ch=2 n=c#5 v=51
505560 On ch=2 n=c#5 v=0
505680 On ch=2 n=c#5 v=50
505800 On ch=2 n=c#5 v=0
505920 On ch=2 n=c#5 v=48
506040 On ch=2 n=c#5 v=0
506160 On ch=2 n=c#5 v=46
506280 On ch=2 n=c#5 v=0
506400 On ch=2 n=c#5 v=45
506520 On ch=2 n=c#5 v=0
506640 On ch=2 n=c#5 v=43
506760 On ch=2 n=c#5 v=0
506880 Par ch=2 c=64 v=127
507120 On ch=2 n=c#5 v=88
507240 On ch=2 n=c#5 v=0
507360 On ch=2 n=f#5 v=86
507480 On ch=2 n=f#5 v=0
507600 On ch=2 n=a#5 v=84
507720 On ch=2 n=a#5 v=0
507840 On ch=2 n=c#6 v=83
507960 On ch=2 n=c#6 v=0
508080 On ch=2 n=f#6 v=81
508200 On ch=2 n=f#6 v=0
508320 On ch=2 n=a#6 v=79
508440 On ch=2 n=a#6 v=0
508560 On ch=2 n=c#7 v=78
508680 On ch=2 n=c#7 v=0
508800 On ch=2 n=a#7 v=76
509040 On ch=2 n=a#7 v=0
509040 Par ch=2 c=64 v=0
509040 On ch=2 n=a5 v=63
509160 On ch=2 n=a5 v=0
509280 On ch=2 n=f#5 v=62
509400 On ch=2 n=f#5 v=0
509520 On ch=2 n=a5 v=61
509640 On ch=2 n=a5 v=0
509760 On ch=2 n=f#5 v=60
509880 On ch=2 n=f#5 v=0
510000 On ch=2 n=a5 v=59
510120 On ch=2 n=a5 v=0
510240 On ch=2 n=b5 v=58
510360 On ch=2 n=b5 v=0
510480 On ch=2 n=g#5 v=57
510600 On ch=2 n=g#5 v=0
510660 Par ch=2 c=64 v=0
510720 Par ch=2 c=64 v=127
510960 On ch=2 n=c#5 v=79
511080 On ch=2 n=c#5 v=0
511200 On ch=2 n=f#5 v=77
511320 On ch=2 n=f#5 v=0
511440 On ch=2 n=a#5 v=75
511560 On ch=2 n=a#5 v=0
511680 On ch=2 n=c#6 v=73
511800 On ch=2 n=c#6 v=0
511920 On ch=2 n=f#6 v=71
512040 On ch=2 n=f#6 v=0
512160 On ch=2 n=a#6 v=69
512280 On ch=2 n=a#6 v=0
512400 On ch=2 n=c#7 v=68
512520 On ch=2 n=c#7 v=0
512640 On ch=2 n=a#7 v=66
512880 On ch=2 n=a#7 v=0
512880 Par ch=2 c=64 v=0
512880 On ch=2 n=a5 v=52
513000 On ch=2 n=a5 v=0
513120 On ch=2 n=f#5 v=51
513240 On ch=2 n=f#5 v=0
513360 On ch=2 n=a5 v=49
513480 On ch=2 n=a5 v=0
513600 On ch=2 n=f#5 v=48
513720 On ch=2 n=f#5 v=0
513840 On ch=2 n=a5 v=46
513960 On ch=2 n=a5 v=0
514080 On ch=2 n=b5 v=45
514200 On ch=2 n=b5 v=0
514320 On ch=2 n=g#5 v=43
514440 On ch=2 n=g#5 v=0
514560 Par ch=2 c=64 v=0
514560 On ch=2 n=f#5 v=43
514680 On ch=2 n=f#5 v=0
514800 On ch=2 n=a5 v=46
514920 On ch=2 n=a5 v=0
515040 On ch=2 n=g#5 v=48
515160 On ch=2 n=g#5 v=0
515280 On ch=2 n=f6 v=51
515400 On ch=2 n=f6 v=0
515520 On ch=2 n=a5 v=54
515640 On ch=2 n=a5 v=0
515760 On ch=2 n=f#6 v=56
515880 On ch=2 n=f#6 v=0
516000 On ch=2 n=f6 v=59
516120 On ch=2 n=f6 v=0
516240 On ch=2 n=g#6 v=62
516360 On ch=2 n=g#6 v=0
516480 On ch=2 n=a5 v=64
516600 On ch=2 n=a5 v=0
516720 On ch=2 n=f#6 v=67
516840 On ch=2 n=f#6 v=0
516960 On ch=2 n=f6 v=70
517080 On ch=2 n=f6 v=0
517200 On ch=2 n=g#6 v=72
517320 On ch=2 n=g#6 v=0
517440 On ch=2 n=f#6 v=75
517560 On ch=2 n=f#6 v=0
517680 On ch=2 n=a6 v=78
517800 On ch=2 n=a6 v=0
517920 On ch=2 n=g#6 v=80
518040 On ch=2 n=g#6 v=0
518160 On ch=2 n=b6 v=83
518280 On ch=2 n=b6 v=0
518400 On ch=2 n=f#5 v=64
518520 On ch=2 n=f#5 v=0
518640 On ch=2 n=a5 v=66
518760 On ch=2 n=a5 v=0
518880 On ch=2 n=g#5 v=69
519000 On ch=2 n=g#5 v=0
519120 On ch=2 n=f6 v=71
519240 On ch=2 n=f6 v=0
519360 On ch=2 n=a5 v=73
519480 On ch=2 n=a5 v=0
519600 On ch=2 n=f#6 v=75
519720 On ch=2 n=f#6 v=0
519840 On ch=2 n=f6 v=78
519960 On ch=2 n=f6 v=0
520080 On ch=2 n=g#6 v=80
520200 On ch=2 n=g#6 v=0
520320 On ch=2 n=a5 v=82
520440 On ch=2 n=a5 v=0
520560 On ch=2 n=f#6 v=85
520680 On ch=2 n=f#6 v=0
520800 On ch=2 n=f6 v=87
520920 On ch=2 n=f6 v=0
521040 On ch=2 n=g#6 v=89
521160 On ch=2 n=g#6 v=0
521280 On ch=2 n=f#6 v=92
521400 On ch=2 n=f#6 v=0
521520 On ch=2 n=a6 v=94
521640 On ch=2 n=a6 v=0
521760 On ch=2 n=f#6 v=96
521880 On ch=2 n=f#6 v=0
522000 On ch=2 n=a6 v=99
522120 On ch=2 n=a6 v=0
522240 On ch=2 n=f#6 v=101
522360 On ch=2 n=f#6 v=0
522480 On ch=2 n=a6 v=103
522600 On ch=2 n=a6 v=0
522720 On ch=2 n=f#6 v=106
522840 On ch=2 n=f#6 v=0
522960 On ch=2 n=a6 v=108
523080 On ch=2 n=a6 v=0
523200 Par ch=2 c=64 v=127
523200 Par ch=2 c=64 v=127
523200 On ch=2 n=f#6 v=108
523560 On ch=2 n=f#6 v=0
523920 Par ch=2 c=64 v=0
523920 Par ch=2 c=64 v=0
523920 On ch=2 n=b4 v=97
524040 On ch=2 n=b4 v=0
524160 On ch=2 n=b4 v=92
524280 On ch=2 n=b4 v=0
524400 On ch=2 n=b4 v=91
524520 On ch=2 n=b4 v=0
524640 On ch=2 n=f5 v=90
524760 On ch=2 n=f5 v=0
524880 On ch=2 n=f5 v=89
525000 On ch=2 n=f5 v=0
525120 On ch=2 n=g#5 v=88
525240 On ch=2 n=g#5 v=0
525360 On ch=2 n=g#5 v=87
525480 On ch=2 n=g#5 v=0
525600 On ch=2 n=b5 v=86
525720 On ch=2 n=b5 v=0
525840 On ch=2 n=b5 v=85
525960 On ch=2 n=b5 v=0
526080 On ch=2 n=f6 v=84
526200 On ch=2 n=f6 v=0
526320 On ch=2 n=f6 v=83
526440 On ch=2 n=f6 v=0
526560 On ch=2 n=g#6 v=82
526680 On ch=2 n=g#6 v=0
526800 On ch=2 n=g#6 v=81
526920 On ch=2 n=g#6 v=0
527040 On ch=2 n=b6 v=80
527160 On ch=2 n=b6 v=0
527280 On ch=2 n=b6 v=79
527400 On ch=2 n=b6 v=0
527520 On ch=2 n=f7 v=78
527640 On ch=2 n=f7 v=0
527760 On ch=2 n=f7 v=77
527880 On ch=2 n=f7 v=0
528000 On ch=2 n=g#7 v=76
528120 On ch=2 n=g#7 v=0
528240 On ch=2 n=g#7 v=75
528360 On ch=2 n=g#7 v=0
528480 On ch=2 n=f7 v=74
528600 On ch=2 n=f7 v=0
528720 On ch=2 n=f7 v=74
528840 On ch=2 n=f7 v=0
528960 On ch=2 n=b6 v=73
529080 On ch=2 n=b6 v=0
529200 On ch=2 n=g#7 v=72
529320 On ch=2 n=g#7 v=0
529440 On ch=2 n=g#6 v=71
529560 On ch=2 n=g#6 v=0
529680 On ch=2 n=f7 v=70
529800 On ch=2 n=f7 v=0
529920 On ch=2 n=g#6 v=69
530040 On ch=2 n=g#6 v=0
530160 On ch=2 n=b6 v=68
530280 On ch=2 n=b6 v=0
530400 On ch=2 n=f6 v=67
530520 On ch=2 n=f6 v=0
530640 On ch=2 n=a6 v=66
530760 On ch=2 n=a6 v=0
530880 On ch=2 n=b5 v=65
531000 On ch=2 n=b5 v=0
531120 On ch=2 n=b6 v=64
531240 On ch=2 n=b6 v=0
531360 On ch=2 n=g#5 v=63
531480 On ch=2 n=g#5 v=0
531600 On ch=2 n=b6 v=62
531720 On ch=2 n=b6 v=0
531840 On ch=2 n=f5 v=61
531960 On ch=2 n=f5 v=0
532080 On ch=2 n=a6 v=60
532200 On ch=2 n=a6 v=0
532320 On ch=2 n=g#5 v=59
532440 On ch=2 n=g#5 v=0
532560 On ch=2 n=b6 v=58
532680 On ch=2 n=b6 v=0
532800 On ch=2 n=f5 v=57
532920 On ch=2 n=f5 v=0
533040 On ch=2 n=a6 v=56
533160 On ch=2 n=a6 v=0
533280 On ch=2 n=g#6 v=55
533400 On ch=2 n=g#6 v=0
533520 On ch=2 n=b5 v=54
533640 On ch=2 n=b5 v=0
533760 On ch=2 n=f6 v=53
533880 On ch=2 n=f6 v=0
534000 On ch=2 n=a5 v=52
534120 On ch=2 n=a5 v=0
534240 On ch=2 n=g#6 v=51
534360 On ch=2 n=g#6 v=0
534480 On ch=2 n=b5 v=50
534600 On ch=2 n=b5 v=0
534720 On ch=2 n=f6 v=49
534840 On ch=2 n=f6 v=0
534960 On ch=2 n=a5 v=48
535080 On ch=2 n=a5 v=0
535200 On ch=2 n=g#6 v=47
535320 On ch=2 n=g#6 v=0
535440 On ch=2 n=b5 v=46
535560 On ch=2 n=b5 v=0
535680 On ch=2 n=f6 v=45
535800 On ch=2 n=f6 v=0
535920 On ch=2 n=a5 v=45
536040 On ch=2 n=a5 v=0
536160 On ch=2 n=g#6 v=44
536280 On ch=2 n=g#6 v=0
536400 On ch=2 n=a5 v=43
536520 On ch=2 n=a5 v=0
536640 On ch=2 n=f6 v=42
536760 On ch=2 n=f6 v=0
536880 On ch=2 n=a5 v=41
537000 On ch=2 n=a5 v=0
537120 On ch=2 n=g#6 v=40
537240 On ch=2 n=g#6 v=0
537360 On ch=2 n=a5 v=39
537480 On ch=2 n=a5 v=0
537600 On ch=2 n=g#5 v=38
537720 On ch=2 n=g#5 v=0
537840 On ch=2 n=g#6 v=36
537960 On ch=2 n=g#6 v=0
538080 On ch=2 n=b5 v=35
538200 On ch=2 n=b5 v=0
538320 On ch=2 n=b6 v=34
538440 On ch=2 n=b6 v=0
538560 On ch=2 n=g#5 v=33
538680 On ch=2 n=g#5 v=0
538800 On ch=2 n=g#6 v=32
538920 On ch=2 n=g#6 v=0
539040 On ch=2 n=b5 v=31
539160 On ch=2 n=b5 v=0
539280 On ch=2 n=b6 v=30
539400 On ch=2 n=b6 v=0
539520 On ch=2 n=c7 v=79
540240 On ch=2 n=c7 v=0
540240 On ch=2 n=c#7 v=77
540396 On ch=2 n=c#7 v=0
540480 On ch=2 n=g#6 v=73
540672 On ch=2 n=g#6 v=0
541200 On ch=2 n=a#4 v=47
541440 On ch=2 n=a#4 v=0
541440 On ch=2 n=b4 v=49
541800 On ch=2 n=b4 v=0
541800 On ch=2 n=a#4 v=46
541920 On ch=2 n=a#4 v=0
541920 On ch=2 n=g#4 v=46
542160 On ch=2 n=g#4 v=0
542160 On ch=2 n=f#4 v=44
542400 On ch=2 n=f#4 v=0
542400 On ch=2 n=f4 v=42
542880 On ch=2 n=f4 v=0
543360 On ch=2 n=c#7 v=79
544080 On ch=2 n=c#7 v=0
544080 On ch=2 n=d#7 v=77
544236 On ch=2 n=d#7 v=0
544320 On ch=2 n=e7 v=76
544512 On ch=2 n=e7 v=0
545040 On ch=2 n=f#4 v=47
545280 On ch=2 n=f#4 v=0
545280 On ch=2 n=g#4 v=49
545640 On ch=2 n=g#4 v=0
545640 On ch=2 n=e4 v=47
545760 On ch=2 n=e4 v=0
545760 On ch=2 n=d#4 v=47
546000 On ch=2 n=d#4 v=0
546000 On ch=2 n=c#4 v=46
546240 On ch=2 n=c#4 v=0
546240 On ch=2 n=d#4 v=44
546720 On ch=2 n=d#4 v=0
547200 On ch=2 n=b6 v=45
547920 On ch=2 n=b6 v=0
547920 On ch=2 n=a#6 v=43
548160 On ch=2 n=a#6 v=0
548160 On ch=2 n=d#7 v=40
548640 On ch=2 n=d#7 v=0
548880 On ch=2 n=c#5 v=40
549120 On ch=2 n=c#5 v=0
549120 On ch=2 n=b4 v=43
549480 On ch=2 n=b4 v=0
549480 On ch=2 n=a#4 v=40
549600 On ch=2 n=a#4 v=0
549600 On ch=2 n=g#4 v=39
549840 On ch=2 n=g#4 v=0
549840 On ch=2 n=c#5 v=37
550080 On ch=2 n=c#5 v=0
550080 On ch=2 n=a#4 v=41
550800 On ch=2 n=a#4 v=0
550800 On ch=2 n=d#5 v=33
551040 On ch=2 n=d#5 v=0
551040 On ch=2 n=b4 v=37
551400 On ch=2 n=b4 v=0
551400 On ch=2 n=a#4 v=34
551520 On ch=2 n=a#4 v=0
551520 On ch=2 n=g#4 v=33
551760 On ch=2 n=g#4 v=0
551760 On ch=2 n=c#5 v=32
552000 On ch=2 n=c#5 v=0
552000 On ch=2 n=a#4 v=41
552720 On ch=2 n=f#5 v=38
552735 On ch=2 n=a#4 v=0
552960 On ch=2 n=f#5 v=0
552960 On ch=2 n=e5 v=43
553320 On ch=2 n=e5 v=0
553320 On ch=2 n=d#5 v=41
553440 On ch=2 n=d#5 v=0
553440 On ch=2 n=c#5 v=41
553680 On ch=2 n=c#5 v=0
553680 On ch=2 n=f#5 v=43
553920 On ch=2 n=f#5 v=0
553920 On ch=2 n=e5 v=51
554640 On ch=2 n=e5 v=0
554640 On ch=2 n=f#6 v=49
554880 On ch=2 n=f#6 v=0
554880 On ch=2 n=f#6 v=57
555240 On ch=2 n=f#6 v=0
555240 On ch=2 n=e6 v=54
555360 On ch=2 n=e6 v=0
555360 On ch=2 n=d#6 v=54
555600 On ch=2 n=d#6 v=0
555600 On ch=2 n=f#6 v=54
555840 On ch=2 n=f#6 v=0
555840 On ch=2 n=g#6 v=65
556200 On ch=2 n=g#6 v=0
556200 On ch=2 n=f#6 v=61
556320 On ch=2 n=f#6 v=0
556320 On ch=2 n=f6 v=60
556560 On ch=2 n=f6 v=0
556560 On ch=2 n=g#6 v=69
556800 On ch=2 n=g#6 v=0
556800 On ch=2 n=g#6 v=68
557160 On ch=2 n=g#6 v=0
557160 On ch=2 n=f#6 v=65
557280 On ch=2 n=f#6 v=0
557280 On ch=2 n=f6 v=63
557520 On ch=2 n=f6 v=0
557520 On ch=2 n=c#7 v=74
557760 On ch=2 n=c#7 v=0
557760 On ch=2 n=a#6 v=73
558120 On ch=2 n=a#6 v=0
558120 On ch=2 n=g#6 v=70
558240 On ch=2 n=g#6 v=0
558240 On ch=2 n=f#6 v=69
558480 On ch=2 n=f#6 v=0
558480 On ch=2 n=c#7 v=78
558720 On ch=2 n=c#7 v=0
558720 On ch=2 n=g#6 v=79
559080 On ch=2 n=g#6 v=0
559080 On ch=2 n=f#6 v=76
559200 On ch=2 n=f#6 v=0
559200 On ch=2 n=f6 v=74
559440 On ch=2 n=f6 v=0
559440 On ch=2 n=c#7 v=85
559680 On ch=2 n=c#7 v=0
559680 On ch=2 n=f#6 v=85
560040 On ch=2 n=f#6 v=0
560040 On ch=2 n=f6 v=82
560160 On ch=2 n=f6 v=0
560160 On ch=2 n=d#6 v=81
560400 On ch=2 n=d#6 v=0
560400 On ch=2 n=c#7 v=88
560640 On ch=2 n=c#7 v=0
560640 On ch=2 n=f6 v=91
561000 On ch=2 n=f6 v=0
561000 On ch=2 n=d#6 v=88
561120 On ch=2 n=d#6 v=0
561120 On ch=2 n=c#7 v=86
561360 On ch=2 n=c#7 v=0
561360 On ch=2 n=b6 v=91
561600 On ch=2 n=b6 v=0
561600 On ch=2 n=b6 v=96
561960 On ch=2 n=b6 v=0
561960 On ch=2 n=a#6 v=82
562080 On ch=2 n=a#6 v=0
562080 On ch=2 n=g#6 v=77
562320 On ch=2 n=g#6 v=0
562320 On ch=2 n=c#6 v=61
562476 On ch=2 n=c#6 v=0
562560 On ch=2 n=c#6 v=57
563040 On ch=2 n=c#6 v=0
563040 On ch=2 n=c#6 v=51
563196 On ch=2 n=c#6 v=0
563280 On ch=2 n=c#6 v=48
563436 On ch=2 n=c#6 v=0
563520 On ch=2 n=c#6 v=45
565440 On ch=2 n=c#6 v=0
565440 On ch=2 n=d#6 v=33
567360 On ch=2 n=d#6 v=0
567360 Par ch=2 c=64 v=127
567360 On ch=2 n=c#3 v=33
567480 On ch=2 n=c#3 v=0
567480 On ch=2 n=f3 v=35
567600 On ch=2 n=f3 v=0
567600 On ch=2 n=g#3 v=37
567720 On ch=2 n=g#3 v=0
567720 On ch=2 n=b3 v=38
567840 On ch=2 n=b3 v=0
567840 On ch=2 n=c#4 v=40
567960 On ch=2 n=c#4 v=0
567960 On ch=2 n=f4 v=42
568080 On ch=2 n=f4 v=0
568080 On ch=2 n=g#4 v=44
568200 On ch=2 n=g#4 v=0
568200 On ch=2 n=b4 v=45
568320 On ch=2 n=b4 v=0
568320 On ch=2 n=c#5 v=47
568440 On ch=2 n=c#5 v=0
568440 On ch=2 n=f5 v=49
568560 On ch=2 n=f5 v=0
568560 On ch=2 n=c#4 v=51
568680 On ch=2 n=c#4 v=0
568680 On ch=2 n=f4 v=52
568800 On ch=2 n=f4 v=0
568800 On ch=2 n=g#4 v=54
568920 On ch=2 n=g#4 v=0
568920 On ch=2 n=b4 v=56
569040 On ch=2 n=b4 v=0
569040 On ch=2 n=c#5 v=58
569160 On ch=2 n=c#5 v=0
569160 On ch=2 n=f5 v=59
569280 On ch=2 n=f5 v=0
569280 On ch=2 n=g#5 v=61
569400 On ch=2 n=g#5 v=0
569400 On ch=2 n=b5 v=63
569520 On ch=2 n=b5 v=0
569520 On ch=2 n=c#6 v=65
569640 On ch=2 n=c#6 v=0
569640 On ch=2 n=f6 v=66
569760 On ch=2 n=f6 v=0
569760 On ch=2 n=c#5 v=68
569880 On ch=2 n=c#5 v=0
569880 On ch=2 n=f5 v=70
570000 On ch=2 n=f5 v=0
570000 On ch=2 n=g#5 v=71
570120 On ch=2 n=g#5 v=0
570120 On ch=2 n=b5 v=73
570240 On ch=2 n=b5 v=0
570240 On ch=2 n=c#6 v=75
570360 On ch=2 n=c#6 v=0
570360 On ch=2 n=f6 v=77
570480 On ch=2 n=f6 v=0
570480 On ch=2 n=g#6 v=78
570600 On ch=2 n=g#6 v=0
570600 On ch=2 n=b6 v=80
570720 On ch=2 n=b6 v=0
570720 On ch=2 n=c#7 v=82
570840 On ch=2 n=c#7 v=0
570840 On ch=2 n=f7 v=84
570960 On ch=2 n=f7 v=0
572040 Par ch=2 c=64 v=0
572160 On ch=2 n=a4 v=85
572280 On ch=2 n=a4 v=0
572400 On ch=2 n=a4 v=83
572520 On ch=2 n=a4 v=0
572640 On ch=2 n=a4 v=81
572760 On ch=2 n=a4 v=0
572880 On ch=2 n=a#4 v=78
573000 On ch=2 n=a#4 v=0
573120 On ch=2 n=b4 v=77
573240 On ch=2 n=b4 v=0
573360 On ch=2 n=d#5 v=81
573480 On ch=2 n=d#5 v=0
573600 On ch=2 n=g#5 v=84
573720 On ch=2 n=g#5 v=0
573840 On ch=2 n=f5 v=88
573960 On ch=2 n=f5 v=0
574080 On ch=2 n=a5 v=95
574200 On ch=2 n=a5 v=0
574320 On ch=2 n=a5 v=94
574440 On ch=2 n=a5 v=0
574560 On ch=2 n=a5 v=92
574680 On ch=2 n=a5 v=0
574800 On ch=2 n=a#5 v=90
574920 On ch=2 n=a#5 v=0
575040 On ch=2 n=b5 v=88
575160 On ch=2 n=b5 v=0
575280 On ch=2 n=d#6 v=92
575400 On ch=2 n=d#6 v=0
575520 On ch=2 n=g#6 v=95
575640 On ch=2 n=g#6 v=0
575760 On ch=2 n=f6 v=98
575880 On ch=2 n=f6 v=0
576000 On ch=2 n=f#6 v=101
576120 On ch=2 n=f#6 v=0
576240 On ch=2 n=a#6 v=104
576360 On ch=2 n=a#6 v=0
576480 On ch=2 n=f#6 v=107
576600 On ch=2 n=f#6 v=0
576720 On ch=2 n=b6 v=110
576840 On ch=2 n=b6 v=0
576960 On ch=2 n=f#6 v=113
576960 On ch=2 n=f#7 v=113
577116 On ch=2 n=f#7 v=0
577116 On ch=2 n=f#6 v=0
577116 Meta TrkEnd
TrkEnd
MTrk
0 SeqSpec 43 00 01 00
0 Meta TrkName "No Name"
0 Par ch=3 c=0 v=0
0 Par ch=3 c=32 v=0
0 PrCh ch=3 p=0
0 Par ch=3 c=10 v=73
0 Par ch=3 c=91 v=100
0 Par ch=3 c=93 v=28
0 Par ch=3 c=64 v=0
0 Par ch=3 c=1 v=0
0 Pb ch=3 v=8192
0 Par ch=3 c=7 v=122
960 On ch=3 n=a#4 v=42
1440 On ch=3 n=a#4 v=0
1440 On ch=3 n=c#5 v=44
1440 On ch=3 n=a#4 v=44
1800 On ch=3 n=a#4 v=0
1800 On ch=3 n=c#5 v=0
1800 On ch=3 n=f5 v=45
1800 On ch=3 n=a#4 v=45
1920 On ch=3 n=a#4 v=0
1920 On ch=3 n=f5 v=0
1920 On ch=3 n=f5 v=46
1920 On ch=3 n=b4 v=46
2400 On ch=3 n=b4 v=0
2400 On ch=3 n=f5 v=0
2400 On ch=3 n=f#5 v=47
2400 On ch=3 n=c#5 v=47
2616 On ch=3 n=c#5 v=0
2616 On ch=3 n=f#5 v=0
2640 On ch=3 n=e5 v=48
2640 On ch=3 n=c#5 v=48
2880 On ch=3 n=c#5 v=0
2880 On ch=3 n=e5 v=0
2880 On ch=3 n=f#5 v=50
2880 On ch=3 n=d#5 v=50
3360 On ch=3 n=d#5 v=0
3360 On ch=3 n=f#5 v=0
3360 On ch=3 n=g#5 v=53
3360 On ch=3 n=f5 v=53
3840 On ch=3 n=f5 v=0
3840 On ch=3 n=g#5 v=0
3840 On ch=3 n=f#5 v=45
7075 On ch=3 n=f#5 v=0
8160 On ch=3 n=c#5 v=42
8640 On ch=3 n=c#5 v=0
8640 On ch=3 n=c#5 v=45
9120 On ch=3 n=c#5 v=0
9120 On ch=3 n=c#5 v=48
9600 On ch=3 n=c#5 v=0
9600 On ch=3 n=f5 v=51
9600 On ch=3 n=c#5 v=51
9600 On ch=3 n=b4 v=51
11040 On ch=3 n=b4 v=0
11040 On ch=3 n=c#5 v=0
11040 On ch=3 n=f5 v=0
11040 On ch=3 n=c#5 v=44
11040 On ch=3 n=g#4 v=44
11520 On ch=3 n=g#4 v=0
11520 On ch=3 n=c#5 v=0
11520 On ch=3 n=a#4 v=44
11520 On ch=3 n=c#5 v=44
12000 On ch=3 n=c#5 v=0
12000 On ch=3 n=a#4 v=0
12000 On ch=3 n=d#5 v=46
12480 On ch=3 n=d#5 v=0
12480 On ch=3 n=c#5 v=49
12960 On ch=3 n=c#5 v=0
12960 On ch=3 n=f#5 v=51
13440 On ch=3 n=f#5 v=0
13440 On ch=3 n=f5 v=55
13920 On ch=3 n=f5 v=0
13920 On ch=3 n=d#5 v=51
14400 On ch=3 n=d#5 v=0
14400 On ch=3 n=c#5 v=46
14880 On ch=3 n=c#5 v=0
32760 On ch=3 n=b6 v=55
32880 On ch=3 n=b6 v=0
32880 On ch=3 n=a#6 v=55
33000 On ch=3 n=a#6 v=0
33240 On ch=3 n=b6 v=55
33360 On ch=3 n=b6 v=0
33360 On ch=3 n=a#6 v=55
33480 On ch=3 n=a#6 v=0
33720 On ch=3 n=b6 v=54
33840 On ch=3 n=b6 v=0
33840 On ch=3 n=a#6 v=54
33960 On ch=3 n=a#6 v=0
34200 On ch=3 n=b6 v=54
34320 On ch=3 n=b6 v=0
34320 On ch=3 n=a#6 v=54
34440 On ch=3 n=a#6 v=0
34680 On ch=3 n=b6 v=53
34800 On ch=3 n=b6 v=0
34800 On ch=3 n=a#6 v=53
34920 On ch=3 n=a#6 v=0
35160 On ch=3 n=b6 v=53
35280 On ch=3 n=b6 v=0
35280 On ch=3 n=a#6 v=53
35400 On ch=3 n=a#6 v=0
35640 On ch=3 n=b6 v=52
35760 On ch=3 n=b6 v=0
35760 On ch=3 n=a#6 v=52
35880 On ch=3 n=a#6 v=0
36600 On ch=3 n=f#6 v=51
36720 On ch=3 n=d#6 v=51
36960 On ch=3 n=d#6 v=0
36960 On ch=3 n=f#6 v=0
37080 On ch=3 n=f#6 v=51
37200 On ch=3 n=d#6 v=51
37440 On ch=3 n=d#6 v=0
37440 On ch=3 n=f#6 v=0
37560 On ch=3 n=f#6 v=50
37680 On ch=3 n=d#6 v=50
37920 On ch=3 n=d#6 v=0
37920 On ch=3 n=f#6 v=0
38040 On ch=3 n=f#6 v=50
38160 On ch=3 n=d#6 v=50
38400 On ch=3 n=d#6 v=0
38400 On ch=3 n=f#6 v=0
38520 On ch=3 n=f#6 v=49
38640 On ch=3 n=d#6 v=49
38880 On ch=3 n=d#6 v=0
38880 On ch=3 n=f#6 v=0
39000 On ch=3 n=f#6 v=49
39120 On ch=3 n=d#6 v=49
39360 On ch=3 n=d#6 v=0
39360 On ch=3 n=f#6 v=0
39480 On ch=3 n=f#6 v=48
39600 On ch=3 n=d#6 v=48
39840 On ch=3 n=d#6 v=0
39840 On ch=3 n=f#6 v=0
39960 On ch=3 n=f#6 v=48
40080 On ch=3 n=d#6 v=48
40320 On ch=3 n=d#6 v=0
40320 On ch=3 n=f#6 v=0
40440 On ch=3 n=f#6 v=47
40560 On ch=3 n=d#6 v=47
40800 On ch=3 n=d#6 v=0
40800 On ch=3 n=f#6 v=0
40920 On ch=3 n=f#6 v=47
41040 On ch=3 n=d#6 v=47
41280 On ch=3 n=d#6 v=0
41280 On ch=3 n=f#6 v=0
41400 On ch=3 n=f#6 v=46
41520 On ch=3 n=d#6 v=46
41760 On ch=3 n=d#6 v=0
41760 On ch=3 n=f#6 v=0
41880 On ch=3 n=f#6 v=46
42000 On ch=3 n=d#6 v=46
42240 On ch=3 n=d#6 v=0
42240 On ch=3 n=f#6 v=0
42360 On ch=3 n=f#6 v=45
42480 On ch=3 n=d#6 v=45
42720 On ch=3 n=d#6 v=0
42720 On ch=3 n=f#6 v=0
42840 On ch=3 n=f#6 v=45
42960 On ch=3 n=d#6 v=45
43200 On ch=3 n=d#6 v=0
43200 On ch=3 n=f#6 v=0
43320 On ch=3 n=f#6 v=44
43440 On ch=3 n=d#6 v=44
43680 On ch=3 n=d#6 v=0
43680 On ch=3 n=f#6 v=0
43800 On ch=3 n=f#6 v=44
43920 On ch=3 n=d#6 v=44
44160 On ch=3 n=d#6 v=0
44160 On ch=3 n=f#6 v=0
44280 On ch=3 n=g#6 v=45
44400 On ch=3 n=d#6 v=46
44640 On ch=3 n=d#6 v=0
44640 On ch=3 n=g#6 v=0
44760 On ch=3 n=g#6 v=49
44880 On ch=3 n=c#6 v=50
45120 On ch=3 n=c#6 v=0
45120 On ch=3 n=g#6 v=0
45240 On ch=3 n=g#6 v=52
45360 On ch=3 n=c#6 v=53
45600 On ch=3 n=c#6 v=0
45600 On ch=3 n=g#6 v=0
45720 On ch=3 n=g#6 v=56
45840 On ch=3 n=c#6 v=57
46080 On ch=3 n=c#6 v=0
46080 On ch=3 n=g#6 v=0
46200 On ch=3 n=g6 v=60
46320 On ch=3 n=c#6 v=61
46560 On ch=3 n=c#6 v=0
46560 On ch=3 n=g6 v=0
46680 On ch=3 n=f#6 v=64
46800 On ch=3 n=c#6 v=65
47040 On ch=3 n=c#6 v=0
47040 On ch=3 n=f#6 v=0
47160 On ch=3 n=f#6 v=68
47280 On ch=3 n=c#6 v=69
47520 On ch=3 n=c#6 v=0
47520 On ch=3 n=f#6 v=0
47640 On ch=3 n=f#6 v=72
47760 On ch=3 n=c#6 v=73
48000 On ch=3 n=c#6 v=0
48000 On ch=3 n=f#6 v=0
48120 On ch=3 n=g6 v=76
48240 On ch=3 n=c#6 v=77
48480 On ch=3 n=c#6 v=0
48480 On ch=3 n=g6 v=0
48600 On ch=3 n=f#6 v=80
48720 On ch=3 n=c#6 v=81
48960 On ch=3 n=c#6 v=0
48960 On ch=3 n=f#6 v=0
49080 On ch=3 n=f#6 v=84
49200 On ch=3 n=c#6 v=85
49440 On ch=3 n=c#6 v=0
49440 On ch=3 n=f#6 v=0
49560 On ch=3 n=f#6 v=88
49680 On ch=3 n=c#6 v=89
49920 On ch=3 n=c#6 v=0
49920 On ch=3 n=f#6 v=0
50040 On ch=3 n=f#6 v=92
50160 On ch=3 n=c#6 v=92
50400 On ch=3 n=c#6 v=0
50400 On ch=3 n=f#6 v=0
50520 On ch=3 n=f#6 v=94
50640 On ch=3 n=c#6 v=94
50880 On ch=3 n=c#6 v=0
50880 On ch=3 n=f#6 v=0
51000 On ch=3 n=f#6 v=95
51120 On ch=3 n=c#6 v=95
51360 On ch=3 n=c#6 v=0
51360 On ch=3 n=f#6 v=0
51480 On ch=3 n=f#6 v=97
51600 On ch=3 n=c#6 v=97
51840 On ch=3 n=c#6 v=0
51840 On ch=3 n=f#6 v=0
51840 On ch=3 n=c#6 v=95
51840 On ch=3 n=f6 v=95
52320 On ch=3 n=f6 v=0
52320 On ch=3 n=c#6 v=0
58560 On ch=3 n=g#5 v=85
59040 On ch=3 n=g#5 v=0
59040 On ch=3 n=f#5 v=82
59520 On ch=3 n=f#5 v=0
59520 On ch=3 n=f#5 v=79
60480 On ch=3 n=f#5 v=0
62400 On ch=3 n=g#6 v=93
62880 On ch=3 n=g#6 v=0
62880 On ch=3 n=f#6 v=90
63360 On ch=3 n=f#6 v=0
63360 On ch=3 n=f#6 v=85
64320 On ch=3 n=f#6 v=0
68640 On ch=3 n=c5 v=40
68640 On ch=3 n=d#5 v=40
68640 On ch=3 n=g#4 v=40
69120 On ch=3 n=g#4 v=0
69120 On ch=3 n=d#5 v=0
69120 On ch=3 n=c5 v=0
69600 On ch=3 n=d#5 v=43
69600 On ch=3 n=c5 v=43
70080 On ch=3 n=c5 v=0
70080 On ch=3 n=d#5 v=0
70560 On ch=3 n=f#5 v=47
70560 On ch=3 n=d#5 v=47
70560 On ch=3 n=c5 v=47
71040 On ch=3 n=c5 v=0
71040 On ch=3 n=d#5 v=0
71040 On ch=3 n=f#5 v=0
71520 On ch=3 n=f5 v=51
71520 On ch=3 n=c#5 v=51
71520 On ch=3 n=b4 v=51
72000 On ch=3 n=b4 v=0
72000 On ch=3 n=c#5 v=0
72000 On ch=3 n=f5 v=0
73440 On ch=3 n=c#5 v=42
73920 On ch=3 n=c#5 v=0
73920 On ch=3 n=c#5 v=45
74400 On ch=3 n=c#5 v=0
74400 On ch=3 n=c#5 v=48
74880 On ch=3 n=c#5 v=0
74880 On ch=3 n=b4 v=51
74880 On ch=3 n=c#5 v=51
74880 On ch=3 n=f5 v=51
76320 On ch=3 n=f5 v=0
76320 On ch=3 n=c#5 v=0
76320 On ch=3 n=b4 v=0
76320 On ch=3 n=g#4 v=44
76320 On ch=3 n=c#5 v=44
76800 On ch=3 n=c#5 v=0
76800 On ch=3 n=g#4 v=0
76800 On ch=3 n=c#5 v=44
76800 On ch=3 n=a#4 v=44
77280 On ch=3 n=a#4 v=0
77280 On ch=3 n=c#5 v=0
77280 On ch=3 n=d#5 v=46
77760 On ch=3 n=d#5 v=0
77760 On ch=3 n=c#5 v=49
78240 On ch=3 n=c#5 v=0
78240 On ch=3 n=f#5 v=51
78720 On ch=3 n=f#5 v=0
78720 On ch=3 n=f5 v=55
79200 On ch=3 n=f5 v=0
79200 On ch=3 n=d#5 v=51
79680 On ch=3 n=d#5 v=0
79680 On ch=3 n=c#5 v=46
80160 On ch=3 n=c#5 v=0
98040 On ch=3 n=b6 v=55
98160 On ch=3 n=b6 v=0
98160 On ch=3 n=a#6 v=55
98280 On ch=3 n=a#6 v=0
98520 On ch=3 n=b6 v=55
98640 On ch=3 n=b6 v=0
98640 On ch=3 n=a#6 v=55
98760 On ch=3 n=a#6 v=0
99000 On ch=3 n=b6 v=54
99120 On ch=3 n=b6 v=0
99120 On ch=3 n=a#6 v=54
99240 On ch=3 n=a#6 v=0
99480 On ch=3 n=b6 v=54
99600 On ch=3 n=b6 v=0
99600 On ch=3 n=a#6 v=54
99720 On ch=3 n=a#6 v=0
99960 On ch=3 n=b6 v=53
100080 On ch=3 n=b6 v=0
100080 On ch=3 n=a#6 v=53
100200 On ch=3 n=a#6 v=0
100440 On ch=3 n=b6 v=53
100560 On ch=3 n=b6 v=0
100560 On ch=3 n=a#6 v=53
100680 On ch=3 n=a#6 v=0
100920 On ch=3 n=b6 v=52
101040 On ch=3 n=b6 v=0
101040 On ch=3 n=a#6 v=52
101160 On ch=3 n=a#6 v=0
101880 On ch=3 n=f#6 v=51
102000 On ch=3 n=d#6 v=51
102240 On ch=3 n=d#6 v=0
102240 On ch=3 n=f#6 v=0
102360 On ch=3 n=f#6 v=51
102480 On ch=3 n=d#6 v=51
102720 On ch=3 n=d#6 v=0
102720 On ch=3 n=f#6 v=0
102840 On ch=3 n=f#6 v=50
102960 On ch=3 n=d#6 v=50
103200 On ch=3 n=d#6 v=0
103200 On ch=3 n=f#6 v=0
103320 On ch=3 n=f#6 v=50
103440 On ch=3 n=d#6 v=50
103680 On ch=3 n=d#6 v=0
103680 On ch=3 n=f#6 v=0
103800 On ch=3 n=f#6 v=49
103920 On ch=3 n=d#6 v=49
104160 On ch=3 n=d#6 v=0
104160 On ch=3 n=f#6 v=0
104280 On ch=3 n=f#6 v=49
104400 On ch=3 n=d#6 v=49
104640 On ch=3 n=d#6 v=0
104640 On ch=3 n=f#6 v=0
104760 On ch=3 n=f#6 v=48
104880 On ch=3 n=d#6 v=48
105120 On ch=3 n=d#6 v=0
105120 On ch=3 n=f#6 v=0
105240 On ch=3 n=f#6 v=48
105360 On ch=3 n=d#6 v=48
105600 On ch=3 n=d#6 v=0
105600 On ch=3 n=f#6 v=0
105720 On ch=3 n=f#6 v=47
105840 On ch=3 n=d#6 v=47
106080 On ch=3 n=d#6 v=0
106080 On ch=3 n=f#6 v=0
106200 On ch=3 n=f#6 v=47
106320 On ch=3 n=d#6 v=47
106560 On ch=3 n=d#6 v=0
106560 On ch=3 n=f#6 v=0
106680 On ch=3 n=f#6 v=46
106800 On ch=3 n=d#6 v=46
107040 On ch=3 n=d#6 v=0
107040 On ch=3 n=f#6 v=0
107160 On ch=3 n=f#6 v=46
107280 On ch=3 n=d#6 v=46
107520 On ch=3 n=d#6 v=0
107520 On ch=3 n=f#6 v=0
107640 On ch=3 n=f#6 v=45
107760 On ch=3 n=d#6 v=45
108000 On ch=3 n=d#6 v=0
108000 On ch=3 n=f#6 v=0
108120 On ch=3 n=f#6 v=45
108240 On ch=3 n=d#6 v=45
108480 On ch=3 n=d#6 v=0
108480 On ch=3 n=f#6 v=0
108600 On ch=3 n=f#6 v=44
108720 On ch=3 n=d#6 v=44
108960 On ch=3 n=d#6 v=0
108960 On ch=3 n=f#6 v=0
109080 On ch=3 n=f#6 v=44
109200 On ch=3 n=d#6 v=44
109440 On ch=3 n=d#6 v=0
109440 On ch=3 n=f#6 v=0
109560 On ch=3 n=g#6 v=45
109680 On ch=3 n=d#6 v=46
109920 On ch=3 n=d#6 v=0
109920 On ch=3 n=g#6 v=0
110040 On ch=3 n=g#6 v=49
110160 On ch=3 n=c#6 v=50
110400 On ch=3 n=c#6 v=0
110400 On ch=3 n=g#6 v=0
110520 On ch=3 n=g#6 v=52
110640 On ch=3 n=c#6 v=53
110880 On ch=3 n=c#6 v=0
110880 On ch=3 n=g#6 v=0
111000 On ch=3 n=g#6 v=56
111120 On ch=3 n=c#6 v=57
111360 On ch=3 n=c#6 v=0
111360 On ch=3 n=g#6 v=0
111480 On ch=3 n=g6 v=60
111600 On ch=3 n=c#6 v=61
111840 On ch=3 n=c#6 v=0
111840 On ch=3 n=g6 v=0
111960 On ch=3 n=f#6 v=64
112080 On ch=3 n=c#6 v=65
112320 On ch=3 n=c#6 v=0
112320 On ch=3 n=f#6 v=0
112440 On ch=3 n=f#6 v=68
112560 On ch=3 n=c#6 v=69
112800 On ch=3 n=c#6 v=0
112800 On ch=3 n=f#6 v=0
112920 On ch=3 n=f#6 v=72
113040 On ch=3 n=c#6 v=73
113280 On ch=3 n=c#6 v=0
113280 On ch=3 n=f#6 v=0
113400 On ch=3 n=g6 v=76
113520 On ch=3 n=c#6 v=77
113760 On ch=3 n=c#6 v=0
113760 On ch=3 n=g6 v=0
113880 On ch=3 n=f#6 v=80
114000 On ch=3 n=c#6 v=81
114240 On ch=3 n=c#6 v=0
114240 On ch=3 n=f#6 v=0
114360 On ch=3 n=f#6 v=84
114480 On ch=3 n=c#6 v=85
114720 On ch=3 n=c#6 v=0
114720 On ch=3 n=f#6 v=0
114840 On ch=3 n=f#6 v=88
114960 On ch=3 n=c#6 v=89
115200 On ch=3 n=c#6 v=0
115200 On ch=3 n=f#6 v=0
115320 On ch=3 n=f#6 v=92
115440 On ch=3 n=c#6 v=92
115680 On ch=3 n=c#6 v=0
115680 On ch=3 n=f#6 v=0
115800 On ch=3 n=f#6 v=94
115920 On ch=3 n=c#6 v=94
116160 On ch=3 n=c#6 v=0
116160 On ch=3 n=f#6 v=0
116280 On ch=3 n=f#6 v=95
116400 On ch=3 n=c#6 v=95
116640 On ch=3 n=c#6 v=0
116640 On ch=3 n=f#6 v=0
116760 On ch=3 n=f#6 v=97
116880 On ch=3 n=c#6 v=97
117120 On ch=3 n=c#6 v=0
117120 On ch=3 n=f#6 v=0
117120 On ch=3 n=f6 v=95
117120 On ch=3 n=c#6 v=95
117600 On ch=3 n=c#6 v=0
117600 On ch=3 n=f6 v=0
123840 On ch=3 n=g#5 v=85
124320 On ch=3 n=g#5 v=0
124320 On ch=3 n=f#5 v=82
124800 On ch=3 n=f#5 v=0
124800 On ch=3 n=f#5 v=79
125760 On ch=3 n=f#5 v=0
127680 On ch=3 n=g#6 v=93
128160 On ch=3 n=g#6 v=0
128160 On ch=3 n=f#6 v=90
128640 On ch=3 n=f#6 v=0
128640 On ch=3 n=f#6 v=85
129600 On ch=3 n=f#6 v=0
133920 On ch=3 n=g#4 v=40
133920 On ch=3 n=d#5 v=40
133920 On ch=3 n=c5 v=40
134400 On ch=3 n=c5 v=0
134400 On ch=3 n=d#5 v=0
134400 On ch=3 n=g#4 v=0
134880 On ch=3 n=c5 v=43
134880 On ch=3 n=d#5 v=43
135360 On ch=3 n=d#5 v=0
135360 On ch=3 n=c5 v=0
135840 On ch=3 n=c5 v=47
135840 On ch=3 n=d#5 v=47
135840 On ch=3 n=f#5 v=47
136320 On ch=3 n=f#5 v=0
136320 On ch=3 n=d#5 v=0
136320 On ch=3 n=c5 v=0
136800 Par ch=3 c=64 v=0
136800 On ch=3 n=b4 v=51
136800 On ch=3 n=c#5 v=51
136800 On ch=3 n=f5 v=51
137280 On ch=3 n=f5 v=0
137280 On ch=3 n=c#5 v=0
137280 On ch=3 n=b4 v=0
138000 Par ch=3 c=64 v=0
138720 On ch=3 n=c#5 v=46
139200 On ch=3 n=c#5 v=0
139200 On ch=3 n=c#5 v=46
139680 On ch=3 n=c#5 v=0
139680 On ch=3 n=c#5 v=47
140160 On ch=3 n=c#5 v=0
140160 On ch=3 n=f#5 v=52
140160 On ch=3 n=d5 v=52
141600 On ch=3 n=d5 v=0
141600 On ch=3 n=f#5 v=0
141600 On ch=3 n=f#5 v=49
141600 On ch=3 n=d5 v=49
142080 On ch=3 n=d5 v=0
142080 On ch=3 n=f#5 v=0
142080 On ch=3 n=b5 v=53
143040 On ch=3 n=b5 v=0
143040 On ch=3 n=g#5 v=50
143520 On ch=3 n=g#5 v=0
143520 On ch=3 n=e5 v=49
144000 On ch=3 n=e5 v=0
144120 On ch=3 n=e6 v=51
144240 On ch=3 n=e6 v=0
144240 On ch=3 n=c#6 v=51
144360 On ch=3 n=c#6 v=0
144360 On ch=3 n=e6 v=50
144480 On ch=3 n=e6 v=0
144480 On ch=3 n=c#6 v=49
144600 On ch=3 n=c#6 v=0
144600 On ch=3 n=e6 v=49
144720 On ch=3 n=e6 v=0
144720 On ch=3 n=c#6 v=48
144840 On ch=3 n=c#6 v=0
144840 On ch=3 n=e6 v=48
144960 On ch=3 n=e6 v=0
144960 On ch=3 n=c#6 v=47
145080 On ch=3 n=c#6 v=0
145080 On ch=3 n=e6 v=47
145200 On ch=3 n=e6 v=0
145200 On ch=3 n=c#6 v=46
145320 On ch=3 n=c#6 v=0
145320 On ch=3 n=e6 v=46
145440 On ch=3 n=e6 v=0
145440 On ch=3 n=c#6 v=45
145560 On ch=3 n=c#6 v=0
145560 On ch=3 n=e6 v=44
145680 On ch=3 n=e6 v=0
145680 On ch=3 n=c#6 v=44
145800 On ch=3 n=c#6 v=0
145800 On ch=3 n=e6 v=42
145920 On ch=3 n=e6 v=0
145920 On ch=3 n=c#6 v=46
146040 On ch=3 n=c#6 v=0
146040 On ch=3 n=d#6 v=48
146160 On ch=3 n=d#6 v=0
146160 On ch=3 n=c#6 v=50
146280 On ch=3 n=c#6 v=0
146280 On ch=3 n=d#6 v=52
146400 On ch=3 n=d#6 v=0
146400 On ch=3 n=b5 v=54
146520 On ch=3 n=b5 v=0
146520 On ch=3 n=d#6 v=56
146640 On ch=3 n=d#6 v=0
146640 On ch=3 n=b5 v=59
146760 On ch=3 n=b5 v=0
146760 On ch=3 n=d#6 v=61
146880 On ch=3 n=d#6 v=0
146880 On ch=3 n=b5 v=63
147000 On ch=3 n=b5 v=0
147000 On ch=3 n=d#6 v=65
147120 On ch=3 n=d#6 v=0
147120 On ch=3 n=b5 v=67
147240 On ch=3 n=b5 v=0
147240 On ch=3 n=d#6 v=69
147360 On ch=3 n=d#6 v=0
147360 On ch=3 n=b5 v=71
147480 On ch=3 n=b5 v=0
147480 On ch=3 n=d#6 v=73
147600 On ch=3 n=d#6 v=0
147600 On ch=3 n=b5 v=74
147720 On ch=3 n=b5 v=0
147840 On ch=3 n=d#6 v=92
148320 On ch=3 n=d#6 v=0
148320 On ch=3 n=g#5 v=84
148800 On ch=3 n=g#5 v=0
148800 On ch=3 n=g5 v=86
149280 On ch=3 n=g5 v=0
149280 On ch=3 n=g#5 v=87
149760 On ch=3 n=g#5 v=0
170880 On ch=3 n=f5 v=86
170880 On ch=3 n=c#5 v=86
172320 On ch=3 n=f5 v=0
172320 On ch=3 n=f#5 v=44
172680 On ch=3 n=f#5 v=0
172680 On ch=3 n=g#5 v=47
172800 On ch=3 n=g#5 v=0
172800 On ch=3 n=c#5 v=0
173280 On ch=3 n=c#5 v=47
173760 On ch=3 n=c#5 v=0
173760 On ch=3 n=c#5 v=48
174240 On ch=3 n=c#5 v=0
174240 On ch=3 n=c#5 v=49
174720 On ch=3 n=c#5 v=0
174720 On ch=3 n=f5 v=51
174720 On ch=3 n=c#5 v=51
174720 On ch=3 n=b4 v=51
176160 On ch=3 n=b4 v=0
176160 On ch=3 n=c#5 v=0
176160 On ch=3 n=f5 v=0
176160 On ch=3 n=c#5 v=44
176160 On ch=3 n=g#4 v=44
176640 On ch=3 n=g#4 v=0
176640 On ch=3 n=c#5 v=0
176640 On ch=3 n=a#4 v=45
176640 On ch=3 n=c#5 v=45
177120 On ch=3 n=c#5 v=0
177120 On ch=3 n=a#4 v=0
177120 On ch=3 n=d#5 v=47
177600 On ch=3 n=d#5 v=0
177600 On ch=3 n=c#5 v=48
178080 On ch=3 n=c#5 v=0
178080 On ch=3 n=f#5 v=50
178560 On ch=3 n=f#5 v=0
178560 On ch=3 n=f5 v=55
179040 On ch=3 n=f5 v=0
179040 On ch=3 n=d#5 v=52
179520 On ch=3 n=d#5 v=0
179520 On ch=3 n=c#5 v=49
180000 On ch=3 n=c#5 v=0
211320 On ch=3 n=e7 v=64
211440 On ch=3 n=e7 v=0
211440 On ch=3 n=d#7 v=64
211560 On ch=3 n=d#7 v=0
211800 On ch=3 n=e7 v=63
211920 On ch=3 n=e7 v=0
211920 On ch=3 n=d#7 v=63
212040 On ch=3 n=d#7 v=0
212280 On ch=3 n=e7 v=62
212400 On ch=3 n=e7 v=0
212400 On ch=3 n=d#7 v=62
212520 On ch=3 n=d#7 v=0
212760 On ch=3 n=e7 v=61
212880 On ch=3 n=e7 v=0
212880 On ch=3 n=d#7 v=61
213000 On ch=3 n=d#7 v=0
213240 On ch=3 n=e7 v=60
213360 On ch=3 n=e7 v=0
213360 On ch=3 n=d#7 v=60
213480 On ch=3 n=d#7 v=0
213720 On ch=3 n=e7 v=60
213840 On ch=3 n=e7 v=0
213840 On ch=3 n=d#7 v=59
213960 On ch=3 n=d#7 v=0
214200 On ch=3 n=e7 v=59
214320 On ch=3 n=e7 v=0
214320 On ch=3 n=d#7 v=59
214440 On ch=3 n=d#7 v=0
215160 On ch=3 n=b6 v=57
215280 On ch=3 n=g#6 v=57
215520 On ch=3 n=g#6 v=0
215520 On ch=3 n=b6 v=0
215640 On ch=3 n=b6 v=56
215760 On ch=3 n=g#6 v=56
216000 On ch=3 n=g#6 v=0
216000 On ch=3 n=b6 v=0
216120 On ch=3 n=b6 v=55
216240 On ch=3 n=g#6 v=55
216480 On ch=3 n=g#6 v=0
216480 On ch=3 n=b6 v=0
216600 On ch=3 n=b6 v=55
216720 On ch=3 n=g#6 v=54
216960 On ch=3 n=g#6 v=0
216960 On ch=3 n=b6 v=0
217080 On ch=3 n=b6 v=54
217200 On ch=3 n=g#6 v=53
217440 On ch=3 n=g#6 v=0
217440 On ch=3 n=b6 v=0
217560 On ch=3 n=b6 v=53
217680 On ch=3 n=g#6 v=53
217920 On ch=3 n=g#6 v=0
217920 On ch=3 n=b6 v=0
218040 On ch=3 n=b6 v=52
218160 On ch=3 n=g#6 v=52
218400 On ch=3 n=g#6 v=0
218400 On ch=3 n=b6 v=0
218520 On ch=3 n=b6 v=51
218640 On ch=3 n=g#6 v=51
218880 On ch=3 n=g#6 v=0
218880 On ch=3 n=b6 v=0
219000 On ch=3 n=b6 v=50
219120 On ch=3 n=g#6 v=50
219360 On ch=3 n=g#6 v=0
219360 On ch=3 n=b6 v=0
219480 On ch=3 n=b6 v=49
219600 On ch=3 n=g#6 v=49
219840 On ch=3 n=g#6 v=0
219840 On ch=3 n=b6 v=0
219960 On ch=3 n=b6 v=49
220080 On ch=3 n=g#6 v=48
220320 On ch=3 n=g#6 v=0
220320 On ch=3 n=b6 v=0
220440 On ch=3 n=b6 v=48
220560 On ch=3 n=g#6 v=48
220800 On ch=3 n=g#6 v=0
220800 On ch=3 n=b6 v=0
220920 On ch=3 n=b6 v=47
221040 On ch=3 n=g#6 v=47
221280 On ch=3 n=g#6 v=0
221280 On ch=3 n=b6 v=0
221400 On ch=3 n=b6 v=46
221520 On ch=3 n=g#6 v=46
221760 On ch=3 n=g#6 v=0
221760 On ch=3 n=b6 v=0
221880 On ch=3 n=b6 v=45
222000 On ch=3 n=g#6 v=45
222240 On ch=3 n=g#6 v=0
222240 On ch=3 n=b6 v=0
222360 On ch=3 n=b6 v=44
222480 On ch=3 n=g#6 v=44
222720 On ch=3 n=g#6 v=0
222720 On ch=3 n=b6 v=0
222840 On ch=3 n=c#7 v=48
222960 On ch=3 n=g#6 v=49
223200 On ch=3 n=g#6 v=0
223200 On ch=3 n=c#7 v=0
223320 On ch=3 n=c#7 v=51
223440 On ch=3 n=f#6 v=52
223680 On ch=3 n=f#6 v=0
223680 On ch=3 n=c#7 v=0
223800 On ch=3 n=c#7 v=55
223920 On ch=3 n=f#6 v=56
224160 On ch=3 n=f#6 v=0
224160 On ch=3 n=c#7 v=0
224280 On ch=3 n=c#7 v=59
224400 On ch=3 n=f#6 v=60
224640 On ch=3 n=f#6 v=0
224640 On ch=3 n=c#7 v=0
224760 On ch=3 n=c7 v=65
224880 On ch=3 n=f#6 v=66
225120 On ch=3 n=f#6 v=0
225120 On ch=3 n=c7 v=0
225240 On ch=3 n=c7 v=68
225360 On ch=3 n=f#6 v=69
225600 On ch=3 n=f#6 v=0
225600 On ch=3 n=c7 v=0
225720 On ch=3 n=c7 v=71
225840 On ch=3 n=f#6 v=72
226080 On ch=3 n=f#6 v=0
226080 On ch=3 n=c7 v=0
226200 On ch=3 n=c7 v=74
226320 On ch=3 n=f#6 v=75
226560 On ch=3 n=f#6 v=0
226560 On ch=3 n=c7 v=0
226680 On ch=3 n=c7 v=77
226800 On ch=3 n=f#6 v=78
227040 On ch=3 n=f#6 v=0
227040 On ch=3 n=c7 v=0
227160 On ch=3 n=c7 v=80
227280 On ch=3 n=f#6 v=81
227520 On ch=3 n=f#6 v=0
227520 On ch=3 n=c7 v=0
227640 On ch=3 n=c7 v=83
227760 On ch=3 n=f#6 v=84
228000 On ch=3 n=f#6 v=0
228000 On ch=3 n=c7 v=0
228120 On ch=3 n=c7 v=86
228240 On ch=3 n=f#6 v=87
228480 On ch=3 n=f#6 v=0
228480 On ch=3 n=c7 v=0
228600 On ch=3 n=b6 v=88
228720 On ch=3 n=f#6 v=88
228960 On ch=3 n=f#6 v=0
228960 On ch=3 n=b6 v=0
229080 On ch=3 n=b6 v=90
229200 On ch=3 n=f#6 v=90
229440 On ch=3 n=f#6 v=0
229440 On ch=3 n=b6 v=0
229560 On ch=3 n=b6 v=91
229680 On ch=3 n=f#6 v=91
229920 On ch=3 n=f#6 v=0
229920 On ch=3 n=b6 v=0
230040 On ch=3 n=b6 v=93
230160 On ch=3 n=f#6 v=93
230400 On ch=3 n=f#6 v=0
230400 On ch=3 n=b6 v=0
230400 On ch=3 n=a#6 v=95
230400 On ch=3 n=f#6 v=95
230880 On ch=3 n=f#6 v=0
230880 On ch=3 n=a#6 v=0
237120 On ch=3 n=c#6 v=73
237120 On ch=3 n=d#6 v=73
237600 On ch=3 n=d#6 v=0
237600 On ch=3 n=c#6 v=0
237600 On ch=3 n=d#6 v=72
237600 On ch=3 n=b5 v=72
238080 On ch=3 n=b5 v=0
238080 On ch=3 n=d#6 v=0
238080 On ch=3 n=c#6 v=68
238080 On ch=3 n=b5 v=68
239040 On ch=3 n=b5 v=0
239040 On ch=3 n=c#6 v=0
240960 On ch=3 n=a#6 v=79
240960 On ch=3 n=d#7 v=79
240960 On ch=3 n=c#7 v=79
240960 On ch=3 n=g6 v=79
241440 On ch=3 n=g6 v=0
241440 On ch=3 n=c#7 v=0
241440 On ch=3 n=d#7 v=0
241440 On ch=3 n=a#6 v=0
241440 On ch=3 n=d#7 v=76
241440 On ch=3 n=b6 v=76
241440 On ch=3 n=g#6 v=76
241920 On ch=3 n=g#6 v=0
241920 On ch=3 n=b6 v=0
241920 On ch=3 n=d#7 v=0
241920 On ch=3 n=g#6 v=72
241920 On ch=3 n=c#7 v=72
241920 On ch=3 n=b6 v=72
241920 On ch=3 n=f6 v=72
242880 On ch=3 n=f6 v=0
242880 On ch=3 n=b6 v=0
242880 On ch=3 n=c#7 v=0
242880 On ch=3 n=g#6 v=0
247200 On ch=3 n=f5 v=52
247200 On ch=3 n=g#5 v=52
247680 On ch=3 n=g#5 v=0
247680 On ch=3 n=f5 v=0
248160 On ch=3 n=g#5 v=50
248160 On ch=3 n=f5 v=50
248640 On ch=3 n=f5 v=0
248640 On ch=3 n=g#5 v=0
249120 On ch=3 n=b5 v=48
249120 On ch=3 n=g#5 v=48
249120 On ch=3 n=f5 v=48
249600 On ch=3 n=f5 v=0
249600 On ch=3 n=g#5 v=0
249600 On ch=3 n=b5 v=0
250080 On ch=3 n=a#5 v=46
250080 On ch=3 n=f#5 v=46
250560 On ch=3 n=f#5 v=0
250560 On ch=3 n=a#5 v=0
252000 On ch=3 n=f#5 v=42
252000 On ch=3 n=e5 v=42
252000 On ch=3 n=a#5 v=42
252480 On ch=3 n=a#5 v=0
252480 On ch=3 n=e5 v=0
252480 On ch=3 n=f#5 v=0
252960 On ch=3 n=a#4 v=54
253320 On ch=3 n=a#4 v=0
253320 On ch=3 n=b4 v=57
253440 On ch=3 n=b4 v=0
253440 On ch=3 n=e5 v=59
253440 On ch=3 n=c#5 v=59
253920 On ch=3 n=c#5 v=0
253920 On ch=3 n=e5 v=0
253920 On ch=3 n=e5 v=53
254400 On ch=3 n=e5 v=0
254400 On ch=3 n=e5 v=55
254400 On ch=3 n=c#5 v=55
254880 On ch=3 n=c#5 v=0
254880 On ch=3 n=e5 v=0
254880 On ch=3 n=e5 v=58
254880 On ch=3 n=c#5 v=58
255360 On ch=3 n=c#5 v=0
255360 On ch=3 n=e5 v=0
255360 On ch=3 n=g5 v=60
255360 On ch=3 n=e5 v=60
255840 On ch=3 n=e5 v=0
255840 On ch=3 n=g5 v=0
255840 On ch=3 n=f#5 v=62
255840 On ch=3 n=e5 v=62
256320 On ch=3 n=e5 v=0
256320 On ch=3 n=f#5 v=0
256320 On ch=3 n=f#5 v=64
256320 On ch=3 n=d5 v=64
256800 On ch=3 n=d5 v=0
256800 On ch=3 n=f#5 v=0
256800 On ch=3 n=f#5 v=66
256800 On ch=3 n=d5 v=66
257280 On ch=3 n=d5 v=0
257280 On ch=3 n=f#5 v=0
257280 On ch=3 n=d6 v=70
257280 On ch=3 n=b5 v=70
257760 On ch=3 n=b5 v=0
257760 On ch=3 n=d6 v=0
257760 On ch=3 n=b5 v=72
257760 On ch=3 n=d#6 v=72
258240 On ch=3 n=d#6 v=0
258240 On ch=3 n=b5 v=0
258240 On ch=3 n=b6 v=80
258240 On ch=3 n=g#6 v=80
258720 On ch=3 n=g#6 v=0
258720 On ch=3 n=b6 v=0
258720 On ch=3 n=b6 v=68
258720 On ch=3 n=g#6 v=68
259200 On ch=3 n=g#6 v=0
259200 On ch=3 n=b6 v=0
259680 On ch=3 n=b6 v=58
259680 On ch=3 n=g#6 v=58
260160 On ch=3 n=g#6 v=0
260160 On ch=3 n=b6 v=0
260640 On ch=3 n=a#6 v=65
261120 On ch=3 n=a#6 v=0
261600 On ch=3 n=a#6 v=72
262080 On ch=3 n=a#6 v=0
262560 On ch=3 n=a#6 v=80
263040 On ch=3 n=a#6 v=0
263520 On ch=3 n=c#7 v=94
263520 On ch=3 n=f#6 v=94
263520 On ch=3 n=a#6 v=94
264000 On ch=3 n=a#6 v=0
264000 On ch=3 n=f#6 v=0
264000 On ch=3 n=c#7 v=0
264000 On ch=3 n=c#7 v=97
264000 On ch=3 n=f#6 v=97
264000 On ch=3 n=a#6 v=97
264480 On ch=3 n=a#6 v=0
264480 On ch=3 n=f#6 v=0
264480 On ch=3 n=c#7 v=0
264480 On ch=3 n=c#7 v=100
264480 On ch=3 n=a#6 v=100
264480 On ch=3 n=f#6 v=100
264960 On ch=3 n=f#6 v=0
264960 On ch=3 n=a#6 v=0
264960 On ch=3 n=c#7 v=0
264960 On ch=3 n=c#7 v=104
264960 On ch=3 n=a#6 v=104
264960 On ch=3 n=f#6 v=104
265440 On ch=3 n=f#6 v=0
265440 On ch=3 n=a#6 v=0
265440 On ch=3 n=c#7 v=0
265440 Par ch=3 c=64 v=0
266640 Par ch=3 c=64 v=0
267360 On ch=3 n=c#5 v=46
267840 On ch=3 n=c#5 v=0
267840 On ch=3 n=c#5 v=46
268320 On ch=3 n=c#5 v=0
268320 On ch=3 n=c#5 v=47
268800 On ch=3 n=c#5 v=0
268800 On ch=3 n=d5 v=52
268800 On ch=3 n=f#5 v=52
270240 On ch=3 n=f#5 v=0
270240 On ch=3 n=d5 v=0
270240 On ch=3 n=d5 v=49
270240 On ch=3 n=f#5 v=49
270720 On ch=3 n=f#5 v=0
270720 On ch=3 n=d5 v=0
270720 On ch=3 n=b5 v=53
271680 On ch=3 n=b5 v=0
271680 On ch=3 n=g#5 v=50
272160 On ch=3 n=g#5 v=0
272160 On ch=3 n=e5 v=49
272640 On ch=3 n=e5 v=0
272760 On ch=3 n=e6 v=51
272880 On ch=3 n=e6 v=0
272880 On ch=3 n=c#6 v=51
273000 On ch=3 n=c#6 v=0
273000 On ch=3 n=e6 v=50
273120 On ch=3 n=e6 v=0
273120 On ch=3 n=c#6 v=49
273240 On ch=3 n=c#6 v=0
273240 On ch=3 n=e6 v=49
273360 On ch=3 n=e6 v=0
273360 On ch=3 n=c#6 v=48
273480 On ch=3 n=c#6 v=0
273480 On ch=3 n=e6 v=48
273600 On ch=3 n=e6 v=0
273600 On ch=3 n=c#6 v=47
273720 On ch=3 n=c#6 v=0
273720 On ch=3 n=e6 v=47
273840 On ch=3 n=e6 v=0
273840 On ch=3 n=c#6 v=46
273960 On ch=3 n=c#6 v=0
273960 On ch=3 n=e6 v=46
274080 On ch=3 n=e6 v=0
274080 On ch=3 n=c#6 v=45
274200 On ch=3 n=c#6 v=0
274200 On ch=3 n=e6 v=44
274320 On ch=3 n=e6 v=0
274320 On ch=3 n=c#6 v=44
274440 On ch=3 n=c#6 v=0
274440 On ch=3 n=e6 v=42
274560 On ch=3 n=e6 v=0
274560 On ch=3 n=c#6 v=46
274680 On ch=3 n=c#6 v=0
274680 On ch=3 n=d#6 v=48
274800 On ch=3 n=d#6 v=0
274800 On ch=3 n=c#6 v=50
274920 On ch=3 n=c#6 v=0
274920 On ch=3 n=d#6 v=52
275040 On ch=3 n=d#6 v=0
275040 On ch=3 n=b5 v=54
275160 On ch=3 n=b5 v=0
275160 On ch=3 n=d#6 v=56
275280 On ch=3 n=d#6 v=0
275280 On ch=3 n=b5 v=59
275400 On ch=3 n=b5 v=0
275400 On ch=3 n=d#6 v=61
275520 On ch=3 n=d#6 v=0
275520 On ch=3 n=b5 v=63
275640 On ch=3 n=b5 v=0
275640 On ch=3 n=d#6 v=65
275760 On ch=3 n=d#6 v=0
275760 On ch=3 n=b5 v=67
275880 On ch=3 n=b5 v=0
275880 On ch=3 n=d#6 v=69
276000 On ch=3 n=d#6 v=0
276000 On ch=3 n=b5 v=71
276120 On ch=3 n=b5 v=0
276120 On ch=3 n=d#6 v=73
276240 On ch=3 n=d#6 v=0
276240 On ch=3 n=b5 v=74
276360 On ch=3 n=b5 v=0
276480 On ch=3 n=d#6 v=92
276960 On ch=3 n=d#6 v=0
276960 On ch=3 n=g#5 v=84
277440 On ch=3 n=g#5 v=0
277440 On ch=3 n=g5 v=86
277920 On ch=3 n=g5 v=0
277920 On ch=3 n=g#5 v=87
278400 On ch=3 n=g#5 v=0
299520 On ch=3 n=c#5 v=86
299520 On ch=3 n=f5 v=86
300960 On ch=3 n=f5 v=0
300960 On ch=3 n=f#5 v=44
301320 On ch=3 n=f#5 v=0
301320 On ch=3 n=g#5 v=47
301440 On ch=3 n=g#5 v=0
301440 On ch=3 n=c#5 v=0
301920 On ch=3 n=c#5 v=47
302400 On ch=3 n=c#5 v=0
302400 On ch=3 n=c#5 v=48
302880 On ch=3 n=c#5 v=0
302880 On ch=3 n=c#5 v=49
303360 On ch=3 n=c#5 v=0
303360 On ch=3 n=b4 v=51
303360 On ch=3 n=c#5 v=51
303360 On ch=3 n=f5 v=51
304800 On ch=3 n=f5 v=0
304800 On ch=3 n=c#5 v=0
304800 On ch=3 n=b4 v=0
304800 On ch=3 n=g#4 v=44
304800 On ch=3 n=c#5 v=44
305280 On ch=3 n=c#5 v=0
305280 On ch=3 n=g#4 v=0
305280 On ch=3 n=c#5 v=45
305280 On ch=3 n=a#4 v=45
305760 On ch=3 n=a#4 v=0
305760 On ch=3 n=c#5 v=0
305760 On ch=3 n=d#5 v=47
306240 On ch=3 n=d#5 v=0
306240 On ch=3 n=c#5 v=48
306720 On ch=3 n=c#5 v=0
306720 On ch=3 n=f#5 v=50
307200 On ch=3 n=f#5 v=0
307200 On ch=3 n=f5 v=55
307680 On ch=3 n=f5 v=0
307680 On ch=3 n=d#5 v=52
308160 On ch=3 n=d#5 v=0
308160 On ch=3 n=c#5 v=49
308640 On ch=3 n=c#5 v=0
339960 On ch=3 n=e7 v=64
340080 On ch=3 n=e7 v=0
340080 On ch=3 n=d#7 v=64
340200 On ch=3 n=d#7 v=0
340440 On ch=3 n=e7 v=63
340560 On ch=3 n=e7 v=0
340560 On ch=3 n=d#7 v=63
340680 On ch=3 n=d#7 v=0
340920 On ch=3 n=e7 v=62
341040 On ch=3 n=e7 v=0
341040 On ch=3 n=d#7 v=62
341160 On ch=3 n=d#7 v=0
341400 On ch=3 n=e7 v=61
341520 On ch=3 n=e7 v=0
341520 On ch=3 n=d#7 v=61
341640 On ch=3 n=d#7 v=0
341880 On ch=3 n=e7 v=60
342000 On ch=3 n=e7 v=0
342000 On ch=3 n=d#7 v=60
342120 On ch=3 n=d#7 v=0
342360 On ch=3 n=e7 v=60
342480 On ch=3 n=e7 v=0
342480 On ch=3 n=d#7 v=59
342600 On ch=3 n=d#7 v=0
342840 On ch=3 n=e7 v=59
342960 On ch=3 n=e7 v=0
342960 On ch=3 n=d#7 v=59
343080 On ch=3 n=d#7 v=0
343800 On ch=3 n=b6 v=57
343920 On ch=3 n=g#6 v=57
344160 On ch=3 n=g#6 v=0
344160 On ch=3 n=b6 v=0
344280 On ch=3 n=b6 v=56
344400 On ch=3 n=g#6 v=56
344640 On ch=3 n=g#6 v=0
344640 On ch=3 n=b6 v=0
344760 On ch=3 n=b6 v=55
344880 On ch=3 n=g#6 v=55
345120 On ch=3 n=g#6 v=0
345120 On ch=3 n=b6 v=0
345240 On ch=3 n=b6 v=55
345360 On ch=3 n=g#6 v=54
345600 On ch=3 n=g#6 v=0
345600 On ch=3 n=b6 v=0
345720 On ch=3 n=b6 v=54
345840 On ch=3 n=g#6 v=53
346080 On ch=3 n=g#6 v=0
346080 On ch=3 n=b6 v=0
346200 On ch=3 n=b6 v=53
346320 On ch=3 n=g#6 v=53
346560 On ch=3 n=g#6 v=0
346560 On ch=3 n=b6 v=0
346680 On ch=3 n=b6 v=52
346800 On ch=3 n=g#6 v=52
347040 On ch=3 n=g#6 v=0
347040 On ch=3 n=b6 v=0
347160 On ch=3 n=b6 v=51
347280 On ch=3 n=g#6 v=51
347520 On ch=3 n=g#6 v=0
347520 On ch=3 n=b6 v=0
347640 On ch=3 n=b6 v=50
347760 On ch=3 n=g#6 v=50
348000 On ch=3 n=g#6 v=0
348000 On ch=3 n=b6 v=0
348120 On ch=3 n=b6 v=49
348240 On ch=3 n=g#6 v=49
348480 On ch=3 n=g#6 v=0
348480 On ch=3 n=b6 v=0
348600 On ch=3 n=b6 v=49
348720 On ch=3 n=g#6 v=48
348960 On ch=3 n=g#6 v=0
348960 On ch=3 n=b6 v=0
349080 On ch=3 n=b6 v=48
349200 On ch=3 n=g#6 v=48
349440 On ch=3 n=g#6 v=0
349440 On ch=3 n=b6 v=0
349560 On ch=3 n=b6 v=47
349680 On ch=3 n=g#6 v=47
349920 On ch=3 n=g#6 v=0
349920 On ch=3 n=b6 v=0
350040 On ch=3 n=b6 v=46
350160 On ch=3 n=g#6 v=46
350400 On ch=3 n=g#6 v=0
350400 On ch=3 n=b6 v=0
350520 On ch=3 n=b6 v=45
350640 On ch=3 n=g#6 v=45
350880 On ch=3 n=g#6 v=0
350880 On ch=3 n=b6 v=0
351000 On ch=3 n=b6 v=44
351120 On ch=3 n=g#6 v=44
351360 On ch=3 n=g#6 v=0
351360 On ch=3 n=b6 v=0
351480 On ch=3 n=c#7 v=48
351600 On ch=3 n=g#6 v=49
351840 On ch=3 n=g#6 v=0
351840 On ch=3 n=c#7 v=0
351960 On ch=3 n=c#7 v=51
352080 On ch=3 n=f#6 v=52
352320 On ch=3 n=f#6 v=0
352320 On ch=3 n=c#7 v=0
352440 On ch=3 n=c#7 v=55
352560 On ch=3 n=f#6 v=56
352800 On ch=3 n=f#6 v=0
352800 On ch=3 n=c#7 v=0
352920 On ch=3 n=c#7 v=59
353040 On ch=3 n=f#6 v=60
353280 On ch=3 n=f#6 v=0
353280 On ch=3 n=c#7 v=0
353400 On ch=3 n=c7 v=65
353520 On ch=3 n=f#6 v=66
353760 On ch=3 n=f#6 v=0
353760 On ch=3 n=c7 v=0
353880 On ch=3 n=c7 v=68
354000 On ch=3 n=f#6 v=69
354240 On ch=3 n=f#6 v=0
354240 On ch=3 n=c7 v=0
354360 On ch=3 n=c7 v=71
354480 On ch=3 n=f#6 v=72
354720 On ch=3 n=f#6 v=0
354720 On ch=3 n=c7 v=0
354840 On ch=3 n=c7 v=74
354960 On ch=3 n=f#6 v=75
355200 On ch=3 n=f#6 v=0
355200 On ch=3 n=c7 v=0
355320 On ch=3 n=c7 v=77
355440 On ch=3 n=f#6 v=78
355680 On ch=3 n=f#6 v=0
355680 On ch=3 n=c7 v=0
355800 On ch=3 n=c7 v=80
355920 On ch=3 n=f#6 v=81
356160 On ch=3 n=f#6 v=0
356160 On ch=3 n=c7 v=0
356280 On ch=3 n=c7 v=83
356400 On ch=3 n=f#6 v=84
356640 On ch=3 n=f#6 v=0
356640 On ch=3 n=c7 v=0
356760 On ch=3 n=c7 v=86
356880 On ch=3 n=f#6 v=87
357120 On ch=3 n=f#6 v=0
357120 On ch=3 n=c7 v=0
357240 On ch=3 n=b6 v=88
357360 On ch=3 n=f#6 v=88
357600 On ch=3 n=f#6 v=0
357600 On ch=3 n=b6 v=0
357720 On ch=3 n=b6 v=90
357840 On ch=3 n=f#6 v=90
358080 On ch=3 n=f#6 v=0
358080 On ch=3 n=b6 v=0
358200 On ch=3 n=b6 v=91
358320 On ch=3 n=f#6 v=91
358560 On ch=3 n=f#6 v=0
358560 On ch=3 n=b6 v=0
358680 On ch=3 n=b6 v=93
358800 On ch=3 n=f#6 v=93
359040 On ch=3 n=f#6 v=0
359040 On ch=3 n=b6 v=0
359040 On ch=3 n=f#6 v=95
359040 On ch=3 n=a#6 v=95
359520 On ch=3 n=a#6 v=0
359520 On ch=3 n=f#6 v=0
365760 On ch=3 n=d#6 v=73
365760 On ch=3 n=c#6 v=73
366240 On ch=3 n=c#6 v=0
366240 On ch=3 n=d#6 v=0
366240 On ch=3 n=b5 v=72
366240 On ch=3 n=d#6 v=72
366720 On ch=3 n=d#6 v=0
366720 On ch=3 n=b5 v=0
366720 On ch=3 n=b5 v=68
366720 On ch=3 n=c#6 v=68
367680 On ch=3 n=c#6 v=0
367680 On ch=3 n=b5 v=0
369600 On ch=3 n=g6 v=79
369600 On ch=3 n=c#7 v=79
369600 On ch=3 n=d#7 v=79
369600 On ch=3 n=a#6 v=79
370080 On ch=3 n=a#6 v=0
370080 On ch=3 n=d#7 v=0
370080 On ch=3 n=c#7 v=0
370080 On ch=3 n=g6 v=0
370080 On ch=3 n=g#6 v=76
370080 On ch=3 n=b6 v=76
370080 On ch=3 n=d#7 v=76
370560 On ch=3 n=d#7 v=0
370560 On ch=3 n=b6 v=0
370560 On ch=3 n=g#6 v=0
370560 On ch=3 n=f6 v=72
370560 On ch=3 n=b6 v=72
370560 On ch=3 n=c#7 v=72
370560 On ch=3 n=g#6 v=72
371520 On ch=3 n=g#6 v=0
371520 On ch=3 n=c#7 v=0
371520 On ch=3 n=b6 v=0
371520 On ch=3 n=f6 v=0
375840 On ch=3 n=g#5 v=52
375840 On ch=3 n=f5 v=52
376320 On ch=3 n=f5 v=0
376320 On ch=3 n=g#5 v=0
376800 On ch=3 n=f5 v=50
376800 On ch=3 n=g#5 v=50
377280 On ch=3 n=g#5 v=0
377280 On ch=3 n=f5 v=0
377760 On ch=3 n=f5 v=48
377760 On ch=3 n=g#5 v=48
377760 On ch=3 n=b5 v=48
378240 On ch=3 n=b5 v=0
378240 On ch=3 n=g#5 v=0
378240 On ch=3 n=f5 v=0
378720 On ch=3 n=f#5 v=46
378720 On ch=3 n=a#5 v=46
379200 On ch=3 n=a#5 v=0
379200 On ch=3 n=f#5 v=0
380640 On ch=3 n=a#5 v=42
380640 On ch=3 n=e5 v=42
380640 On ch=3 n=f#5 v=42
381120 On ch=3 n=f#5 v=0
381120 On ch=3 n=e5 v=0
381120 On ch=3 n=a#5 v=0
381600 On ch=3 n=a#4 v=54
381960 On ch=3 n=a#4 v=0
381960 On ch=3 n=b4 v=57
382080 On ch=3 n=b4 v=0
382080 On ch=3 n=c#5 v=59
382080 On ch=3 n=e5 v=59
382560 On ch=3 n=e5 v=0
382560 On ch=3 n=c#5 v=0
382560 On ch=3 n=e5 v=53
383040 On ch=3 n=e5 v=0
383040 On ch=3 n=c#5 v=55
383040 On ch=3 n=e5 v=55
383520 On ch=3 n=e5 v=0
383520 On ch=3 n=c#5 v=0
383520 On ch=3 n=c#5 v=58
383520 On ch=3 n=e5 v=58
384000 On ch=3 n=e5 v=0
384000 On ch=3 n=c#5 v=0
384000 On ch=3 n=e5 v=60
384000 On ch=3 n=g5 v=60
384480 On ch=3 n=g5 v=0
384480 On ch=3 n=e5 v=0
384480 On ch=3 n=e5 v=62
384480 On ch=3 n=f#5 v=62
384960 On ch=3 n=f#5 v=0
384960 On ch=3 n=e5 v=0
384960 On ch=3 n=d5 v=64
384960 On ch=3 n=f#5 v=64
385440 On ch=3 n=f#5 v=0
385440 On ch=3 n=d5 v=0
385440 On ch=3 n=d5 v=66
385440 On ch=3 n=f#5 v=66
385920 On ch=3 n=f#5 v=0
385920 On ch=3 n=d5 v=0
385920 On ch=3 n=b5 v=70
385920 On ch=3 n=d6 v=70
386400 On ch=3 n=d6 v=0
386400 On ch=3 n=b5 v=0
386400 On ch=3 n=d#6 v=72
386400 On ch=3 n=b5 v=72
386880 On ch=3 n=b5 v=0
386880 On ch=3 n=d#6 v=0
386880 On ch=3 n=g#6 v=80
386880 On ch=3 n=b6 v=80
387360 On ch=3 n=b6 v=0
387360 On ch=3 n=g#6 v=0
387360 On ch=3 n=g#6 v=68
387360 On ch=3 n=b6 v=68
387840 On ch=3 n=b6 v=0
387840 On ch=3 n=g#6 v=0
388320 On ch=3 n=g#6 v=58
388320 On ch=3 n=b6 v=58
388800 On ch=3 n=b6 v=0
388800 On ch=3 n=g#6 v=0
389280 On ch=3 n=a#6 v=65
389760 On ch=3 n=a#6 v=0
390240 On ch=3 n=a#6 v=72
390720 On ch=3 n=a#6 v=0
391200 On ch=3 n=a#6 v=80
391680 On ch=3 n=a#6 v=0
392160 On ch=3 n=a#6 v=94
392160 On ch=3 n=f#6 v=94
392160 On ch=3 n=c#7 v=94
392640 On ch=3 n=c#7 v=0
392640 On ch=3 n=f#6 v=0
392640 On ch=3 n=a#6 v=0
392640 On ch=3 n=a#6 v=97
392640 On ch=3 n=f#6 v=97
392640 On ch=3 n=c#7 v=97
393120 On ch=3 n=c#7 v=0
393120 On ch=3 n=f#6 v=0
393120 On ch=3 n=a#6 v=0
393120 On ch=3 n=f#6 v=100
393120 On ch=3 n=a#6 v=100
393120 On ch=3 n=c#7 v=100
393600 On ch=3 n=c#7 v=0
393600 On ch=3 n=a#6 v=0
393600 On ch=3 n=f#6 v=0
393600 On ch=3 n=f#6 v=104
393600 On ch=3 n=a#6 v=104
393600 On ch=3 n=c#7 v=104
394080 On ch=3 n=c#7 v=0
394080 On ch=3 n=a#6 v=0
394080 On ch=3 n=f#6 v=0
394080 Par ch=3 c=64 v=0
395520 Par ch=3 c=93 v=28
395520 Par ch=3 c=91 v=91
396480 On ch=3 n=f#5 v=79
397200 On ch=3 n=f#5 v=0
397200 On ch=3 n=f5 v=76
397356 On ch=3 n=f5 v=0
397440 On ch=3 n=f5 v=70
397596 On ch=3 n=f5 v=0
398160 On ch=3 n=f#5 v=48
398316 On ch=3 n=f#5 v=0
398400 On ch=3 n=d#5 v=52
398760 On ch=3 n=d#5 v=0
398760 On ch=3 n=c#5 v=46
398838 On ch=3 n=c#5 v=0
398880 On ch=3 n=b4 v=44
399036 On ch=3 n=b4 v=0
399120 On ch=3 n=a#4 v=40
399276 On ch=3 n=a#4 v=0
399360 On ch=3 n=g#4 v=37
399620 On ch=3 n=g#4 v=0
400320 On ch=3 n=a#5 v=81
401040 On ch=3 n=a#5 v=0
401040 On ch=3 n=b5 v=76
401196 On ch=3 n=b5 v=0
401280 On ch=3 n=c#6 v=70
401514 On ch=3 n=c#6 v=0
402000 On ch=3 n=d#6 v=50
402156 On ch=3 n=d#6 v=0
402240 On ch=3 n=e6 v=54
402600 On ch=3 n=e6 v=0
402600 On ch=3 n=c#6 v=47
402678 On ch=3 n=c#6 v=0
402720 On ch=3 n=b5 v=45
402876 On ch=3 n=b5 v=0
402960 On ch=3 n=a#5 v=41
403116 On ch=3 n=a#5 v=0
403200 On ch=3 n=b5 v=37
403500 On ch=3 n=b5 v=0
404160 On ch=3 n=f#5 v=47
404880 On ch=3 n=f#5 v=0
404880 On ch=3 n=a#5 v=44
404880 On ch=3 n=f#5 v=44
405036 On ch=3 n=f#5 v=0
405036 On ch=3 n=a#5 v=0
405120 On ch=3 n=f#5 v=41
405480 On ch=3 n=f#5 v=0
405840 On ch=3 n=f#5 v=38
405996 On ch=3 n=f#5 v=0
406080 On ch=3 n=f#5 v=41
406560 On ch=3 n=f#5 v=0
406560 On ch=3 n=f#5 v=35
406716 On ch=3 n=f#5 v=0
406800 On ch=3 n=f5 v=34
406956 On ch=3 n=f5 v=0
426240 On ch=3 n=f#5 v=79
426960 On ch=3 n=f#5 v=0
426960 On ch=3 n=f5 v=77
427116 On ch=3 n=f5 v=0
427200 On ch=3 n=f5 v=72
427356 On ch=3 n=f5 v=0
427920 On ch=3 n=f#5 v=47
428076 On ch=3 n=f#5 v=0
428160 On ch=3 n=d#5 v=53
428520 On ch=3 n=d#5 v=0
428520 On ch=3 n=c#5 v=49
428598 On ch=3 n=c#5 v=0
428640 On ch=3 n=b4 v=47
428796 On ch=3 n=b4 v=0
428880 On ch=3 n=a#4 v=44
429036 On ch=3 n=a#4 v=0
429120 On ch=3 n=c#4 v=41
429120 On ch=3 n=g#4 v=41
429480 On ch=3 n=g#4 v=0
429480 On ch=3 n=c#4 v=0
430080 On ch=3 n=a#5 v=79
430800 On ch=3 n=a#5 v=0
430800 On ch=3 n=b5 v=77
430956 On ch=3 n=b5 v=0
431040 On ch=3 n=c#6 v=75
431274 On ch=3 n=c#6 v=0
431760 On ch=3 n=d#6 v=47
431916 On ch=3 n=d#6 v=0
432000 On ch=3 n=e6 v=51
432360 On ch=3 n=e6 v=0
432360 On ch=3 n=c#6 v=47
432438 On ch=3 n=c#6 v=0
432480 On ch=3 n=b5 v=46
432636 On ch=3 n=b5 v=0
432720 On ch=3 n=a#5 v=43
432876 On ch=3 n=a#5 v=0
432960 On ch=3 n=b5 v=41
433320 On ch=3 n=b5 v=0
433920 On ch=3 n=f#5 v=41
434640 On ch=3 n=f#5 v=0
434640 On ch=3 n=f#5 v=39
434796 On ch=3 n=f#5 v=0
434880 On ch=3 n=f#5 v=35
435240 On ch=3 n=f#5 v=0
435600 On ch=3 n=f#5 v=31
435756 On ch=3 n=f#5 v=0
435840 On ch=3 n=f#5 v=35
436320 On ch=3 n=f#5 v=0
436320 On ch=3 n=f#5 v=33
436476 On ch=3 n=f#5 v=0
436560 On ch=3 n=f5 v=31
436716 On ch=3 n=f5 v=0
450240 Par ch=3 c=64 v=127
452400 Par ch=3 c=64 v=0
454080 Par ch=3 c=64 v=127
456240 Par ch=3 c=64 v=0
480960 On ch=3 n=b6 v=79
480960 On ch=3 n=f6 v=79
481680 On ch=3 n=f6 v=0
481680 On ch=3 n=b6 v=0
481680 On ch=3 n=c#6 v=75
481680 On ch=3 n=a#6 v=75
481680 On ch=3 n=f#6 v=75
481836 On ch=3 n=f#6 v=0
481836 On ch=3 n=a#6 v=0
481836 On ch=3 n=c#6 v=0
481920 On ch=3 n=c#6 v=72
481920 On ch=3 n=a#6 v=72
481920 On ch=3 n=f#6 v=72
482199 On ch=3 n=f#6 v=0
482199 On ch=3 n=a#6 v=0
482199 On ch=3 n=c#6 v=0
482640 On ch=3 n=b4 v=47
482796 On ch=3 n=b4 v=0
482880 On ch=3 n=g#4 v=51
483240 On ch=3 n=g#4 v=0
483240 On ch=3 n=f#4 v=47
483318 On ch=3 n=f#4 v=0
483360 On ch=3 n=e4 v=46
483516 On ch=3 n=e4 v=0
483600 On ch=3 n=d#4 v=44
483756 On ch=3 n=d#4 v=0
483840 On ch=3 n=c#4 v=41
484200 On ch=3 n=c#4 v=0
484800 On ch=3 n=b6 v=79
484800 On ch=3 n=f#6 v=79
484800 On ch=3 n=d#6 v=79
485520 On ch=3 n=d#6 v=0
485520 On ch=3 n=f#6 v=0
485520 On ch=3 n=b6 v=0
485520 On ch=3 n=b6 v=76
485520 On ch=3 n=e6 v=76
485520 On ch=3 n=g#6 v=76
485676 On ch=3 n=g#6 v=0
485676 On ch=3 n=e6 v=0
485676 On ch=3 n=b6 v=0
485760 On ch=3 n=a6 v=72
485760 On ch=3 n=f#6 v=72
485760 On ch=3 n=d#7 v=72
485916 On ch=3 n=d#7 v=0
485916 On ch=3 n=f#6 v=0
485916 On ch=3 n=a6 v=0
486480 On ch=3 n=g#4 v=47
486636 On ch=3 n=g#4 v=0
486720 On ch=3 n=a4 v=51
487080 On ch=3 n=a4 v=0
487080 On ch=3 n=f#4 v=47
487158 On ch=3 n=f#4 v=0
487200 On ch=3 n=e4 v=46
487356 On ch=3 n=e4 v=0
487440 On ch=3 n=d#4 v=44
487596 On ch=3 n=d#4 v=0
487680 On ch=3 n=e4 v=41
488040 On ch=3 n=e4 v=0
488640 On ch=3 n=e6 v=79
488640 On ch=3 n=b6 v=79
489360 On ch=3 n=b6 v=0
489360 On ch=3 n=e6 v=0
489360 On ch=3 n=d#6 v=76
489360 On ch=3 n=b6 v=76
489516 On ch=3 n=b6 v=0
489516 On ch=3 n=d#6 v=0
489600 On ch=3 n=b6 v=72
489600 On ch=3 n=g#6 v=72
489756 On ch=3 n=g#6 v=0
489756 On ch=3 n=b6 v=0
490320 On ch=3 n=b4 v=47
490320 On ch=3 n=f#4 v=47
490476 On ch=3 n=f#4 v=0
490476 On ch=3 n=b4 v=0
490560 On ch=3 n=b4 v=53
490560 On ch=3 n=g#4 v=53
491040 On ch=3 n=g#4 v=0
491040 On ch=3 n=b4 v=0
491040 On ch=3 n=b4 v=48
491040 On ch=3 n=g#4 v=48
491196 On ch=3 n=g#4 v=0
491196 On ch=3 n=b4 v=0
491280 On ch=3 n=a#4 v=46
491436 On ch=3 n=a#4 v=0
506880 Par ch=3 c=64 v=127
509040 Par ch=3 c=64 v=0
510660 Par ch=3 c=64 v=0
510720 Par ch=3 c=64 v=127
512880 Par ch=3 c=64 v=0
539520 On ch=3 n=c6 v=79
539520 On ch=3 n=f#6 v=79
540240 On ch=3 n=f#6 v=0
540240 On ch=3 n=c6 v=0
540240 On ch=3 n=c#6 v=77
540240 On ch=3 n=f6 v=77
540396 On ch=3 n=f6 v=0
540396 On ch=3 n=c#6 v=0
540480 On ch=3 n=f6 v=73
540480 On ch=3 n=c#6 v=73
540672 On ch=3 n=c#6 v=0
540672 On ch=3 n=f6 v=0
541200 On ch=3 n=c#4 v=47
541440 On ch=3 n=c#4 v=0
541440 On ch=3 n=d#4 v=49
541800 On ch=3 n=d#4 v=0
541800 On ch=3 n=c#4 v=46
541920 On ch=3 n=c#4 v=0
541920 On ch=3 n=b3 v=46
542160 On ch=3 n=b3 v=0
542160 On ch=3 n=a#3 v=44
542400 On ch=3 n=a#3 v=0
542400 On ch=3 n=g#3 v=42
542880 On ch=3 n=g#3 v=0
543360 On ch=3 n=c#6 v=79
543360 On ch=3 n=a#6 v=79
544080 On ch=3 n=a#6 v=0
544080 On ch=3 n=c#6 v=0
544080 On ch=3 n=b6 v=77
544080 On ch=3 n=d#6 v=77
544236 On ch=3 n=d#6 v=0
544236 On ch=3 n=b6 v=0
544320 On ch=3 n=e6 v=76
544320 On ch=3 n=c#7 v=76
544512 On ch=3 n=c#7 v=0
544512 On ch=3 n=e6 v=0
545040 On ch=3 n=d#4 v=47
545280 On ch=3 n=d#4 v=0
545280 On ch=3 n=e4 v=49
545640 On ch=3 n=e4 v=0
545640 On ch=3 n=c#4 v=47
545760 On ch=3 n=c#4 v=0
545760 On ch=3 n=b3 v=47
546000 On ch=3 n=b3 v=0
546000 On ch=3 n=a#3 v=46
546240 On ch=3 n=a#3 v=0
546240 On ch=3 n=b3 v=44
546720 On ch=3 n=b3 v=0
547200 On ch=3 n=b5 v=45
547920 On ch=3 n=b5 v=0
547920 On ch=3 n=a#5 v=43
548160 On ch=3 n=a#5 v=0
548160 On ch=3 n=d#6 v=40
548640 On ch=3 n=d#6 v=0
548880 On ch=3 n=f#4 v=40
549120 On ch=3 n=f#4 v=0
549120 On ch=3 n=f#4 v=43
549840 On ch=3 n=f#4 v=0
549840 On ch=3 n=f4 v=37
550080 On ch=3 n=f4 v=0
550080 On ch=3 n=f#4 v=41
550800 On ch=3 n=f#4 v=0
550800 On ch=3 n=f#4 v=33
551040 On ch=3 n=f#4 v=0
551040 On ch=3 n=f#4 v=37
551760 On ch=3 n=f#4 v=0
551760 On ch=3 n=f4 v=32
552000 On ch=3 n=f4 v=0
552000 On ch=3 n=f#4 v=41
552720 On ch=3 n=f#4 v=0
552720 On ch=3 n=f#4 v=38
552720 On ch=3 n=c#5 v=38
552960 On ch=3 n=c#5 v=0
552960 On ch=3 n=f#4 v=0
552960 On ch=3 n=f#4 v=43
552960 On ch=3 n=a#4 v=43
553672 On ch=3 n=a#4 v=0
553672 On ch=3 n=f#4 v=0
553680 On ch=3 n=c#5 v=43
553680 On ch=3 n=a#4 v=43
553920 On ch=3 n=a#4 v=0
553920 On ch=3 n=c#5 v=0
554640 On ch=3 n=a#5 v=49
554640 On ch=3 n=e6 v=49
554880 On ch=3 n=e6 v=0
554880 On ch=3 n=a#5 v=0
554880 On ch=3 n=b5 v=57
554880 On ch=3 n=d#6 v=57
555600 On ch=3 n=d#6 v=0
555600 On ch=3 n=b5 v=0
555600 On ch=3 n=d#6 v=54
555840 On ch=3 n=d#6 v=0
555840 On ch=3 n=b5 v=65
555840 On ch=3 n=c#6 v=65
556560 On ch=3 n=c#6 v=0
556560 On ch=3 n=b5 v=0
556560 On ch=3 n=f6 v=69
556800 On ch=3 n=f6 v=0
561120 On ch=3 n=c#6 v=86
561360 On ch=3 n=c#6 v=0
561360 On ch=3 n=c#6 v=91
561600 On ch=3 n=c#6 v=0
561600 On ch=3 n=c#6 v=96
562200 On ch=3 n=c#6 v=0
562320 On ch=3 n=b5 v=61
562476 On ch=3 n=b5 v=0
562560 On ch=3 n=b5 v=57
562920 On ch=3 n=b5 v=0
562920 On ch=3 n=a#5 v=52
562998 On ch=3 n=a#5 v=0
563040 On ch=3 n=g#5 v=51
563040 On ch=3 n=b5 v=51
563196 On ch=3 n=b5 v=0
563196 On ch=3 n=g#5 v=0
563280 On ch=3 n=a#5 v=48
563280 On ch=3 n=f#5 v=48
563436 On ch=3 n=f#5 v=0
563436 On ch=3 n=a#5 v=0
563520 On ch=3 n=g#5 v=45
563520 On ch=3 n=f5 v=45
565440 On ch=3 n=f5 v=0
565440 On ch=3 n=g#5 v=0
565440 On ch=3 n=f#5 v=33
565440 On ch=3 n=a5 v=33
567360 On ch=3 n=a5 v=0
567360 On ch=3 n=f#5 v=0
567360 Meta TrkEnd
TrkEnd
MTrk
0 SeqSpec 43 00 01 00
0 Meta TrkName "No Name"
0 Par ch=4 c=0 v=0
0 Par ch=4 c=32 v=0
0 PrCh ch=4 p=0
0 Par ch=4 c=7 v=112
0 Pb ch=4 v=8192
0 Par ch=4 c=1 v=0
0 Par ch=4 c=64 v=0
0 Par ch=4 c=93 v=28
0 Par ch=4 c=91 v=100
0 Par ch=4 c=10 v=64
7920 On ch=4 n=f#4 v=41
8384 On ch=4 n=f#4 v=0
8400 On ch=4 n=f#4 v=42
8864 On ch=4 n=f#4 v=0
8880 On ch=4 n=f#4 v=44
9344 On ch=4 n=f#4 v=0
9360 On ch=4 n=f#4 v=45
9600 On ch=4 n=f#4 v=0
9840 On ch=4 n=c#4 v=44
10304 On ch=4 n=c#4 v=0
10320 On ch=4 n=c#4 v=42
10784 On ch=4 n=c#4 v=0
10800 On ch=4 n=c#4 v=39
11264 On ch=4 n=c#4 v=0
11280 On ch=4 n=c#4 v=37
11520 On ch=4 n=c#4 v=0
11760 On ch=4 n=f#4 v=39
12224 On ch=4 n=f#4 v=0
12240 On ch=4 n=f#4 v=43
12704 On ch=4 n=f#4 v=0
12720 On ch=4 n=f#4 v=47
13184 On ch=4 n=f#4 v=0
13200 On ch=4 n=f#4 v=51
13671 On ch=4 n=f#4 v=0
13680 On ch=4 n=f#4 v=53
14112 On ch=4 n=f#4 v=0
14160 On ch=4 n=f#4 v=48
14592 On ch=4 n=f#4 v=0
14640 On ch=4 n=f#4 v=44
14880 On ch=4 n=f#4 v=0
48000 On ch=4 n=g4 v=71
48000 On ch=4 n=e4 v=71
48000 On ch=4 n=c#4 v=71
48480 On ch=4 n=c#4 v=0
48480 On ch=4 n=e4 v=0
48480 On ch=4 n=g4 v=0
48480 On ch=4 n=g4 v=73
48480 On ch=4 n=e4 v=73
48480 On ch=4 n=c#4 v=73
48960 On ch=4 n=c#4 v=0
48960 On ch=4 n=e4 v=0
48960 On ch=4 n=g4 v=0
48960 On ch=4 n=g4 v=76
48960 On ch=4 n=e4 v=76
48960 On ch=4 n=c#4 v=76
49440 On ch=4 n=c#4 v=0
49440 On ch=4 n=e4 v=0
49440 On ch=4 n=g4 v=0
49440 On ch=4 n=g4 v=78
49440 On ch=4 n=e4 v=78
49440 On ch=4 n=c#4 v=78
49920 On ch=4 n=c#4 v=0
49920 On ch=4 n=e4 v=0
49920 On ch=4 n=g4 v=0
49920 On ch=4 n=d#5 v=70
50000 On ch=4 n=f5 v=70
50048 On ch=4 n=d#5 v=0
50080 On ch=4 n=d#5 v=70
50128 On ch=4 n=f5 v=0
50160 On ch=4 n=f5 v=71
50208 On ch=4 n=d#5 v=0
50240 On ch=4 n=d#5 v=71
50288 On ch=4 n=f5 v=0
50320 On ch=4 n=f5 v=71
50368 On ch=4 n=d#5 v=0
50400 On ch=4 n=d#5 v=72
50448 On ch=4 n=f5 v=0
50480 On ch=4 n=f5 v=72
50528 On ch=4 n=d#5 v=0
50560 On ch=4 n=d#5 v=72
50608 On ch=4 n=f5 v=0
50640 On ch=4 n=f5 v=73
50688 On ch=4 n=d#5 v=0
50720 On ch=4 n=d#5 v=73
50768 On ch=4 n=f5 v=0
50800 On ch=4 n=f5 v=73
50848 On ch=4 n=d#5 v=0
50880 On ch=4 n=d#5 v=74
50928 On ch=4 n=f5 v=0
50960 On ch=4 n=f5 v=74
51008 On ch=4 n=d#5 v=0
51040 On ch=4 n=d#5 v=74
51088 On ch=4 n=f5 v=0
51120 On ch=4 n=f5 v=75
51168 On ch=4 n=d#5 v=0
51200 On ch=4 n=d#5 v=75
51248 On ch=4 n=f5 v=0
51280 On ch=4 n=f5 v=75
51328 On ch=4 n=d#5 v=0
51360 On ch=4 n=d#5 v=75
51408 On ch=4 n=f5 v=0
51440 On ch=4 n=f5 v=76
51488 On ch=4 n=d#5 v=0
51520 On ch=4 n=d#5 v=76
51568 On ch=4 n=f5 v=0
51600 On ch=4 n=c#5 v=76
51648 On ch=4 n=d#5 v=0
51720 On ch=4 n=d#5 v=77
51790 On ch=4 n=c#5 v=0
51840 On ch=4 n=c#5 v=73
51845 On ch=4 n=d#5 v=0
52320 On ch=4 n=c#5 v=0
73200 On ch=4 n=f#4 v=41
73664 On ch=4 n=f#4 v=0
73680 On ch=4 n=f#4 v=42
74144 On ch=4 n=f#4 v=0
74160 On ch=4 n=f#4 v=44
74624 On ch=4 n=f#4 v=0
74640 On ch=4 n=f#4 v=45
74880 On ch=4 n=f#4 v=0
75120 On ch=4 n=c#4 v=44
75584 On ch=4 n=c#4 v=0
75600 On ch=4 n=c#4 v=42
76064 On ch=4 n=c#4 v=0
76080 On ch=4 n=c#4 v=39
76544 On ch=4 n=c#4 v=0
76560 On ch=4 n=c#4 v=37
76800 On ch=4 n=c#4 v=0
77040 On ch=4 n=f#4 v=39
77504 On ch=4 n=f#4 v=0
77520 On ch=4 n=f#4 v=43
77984 On ch=4 n=f#4 v=0
78000 On ch=4 n=f#4 v=47
78464 On ch=4 n=f#4 v=0
78480 On ch=4 n=f#4 v=51
78951 On ch=4 n=f#4 v=0
78960 On ch=4 n=f#4 v=53
79392 On ch=4 n=f#4 v=0
79440 On ch=4 n=f#4 v=48
79872 On ch=4 n=f#4 v=0
79920 On ch=4 n=f#4 v=44
80160 On ch=4 n=f#4 v=0
113280 On ch=4 n=c#4 v=71
113280 On ch=4 n=e4 v=71
113280 On ch=4 n=g4 v=71
113760 On ch=4 n=g4 v=0
113760 On ch=4 n=e4 v=0
113760 On ch=4 n=c#4 v=0
113760 On ch=4 n=c#4 v=73
113760 On ch=4 n=e4 v=73
113760 On ch=4 n=g4 v=73
114240 On ch=4 n=g4 v=0
114240 On ch=4 n=e4 v=0
114240 On ch=4 n=c#4 v=0
114240 On ch=4 n=c#4 v=76
114240 On ch=4 n=e4 v=76
114240 On ch=4 n=g4 v=76
114720 On ch=4 n=g4 v=0
114720 On ch=4 n=e4 v=0
114720 On ch=4 n=c#4 v=0
114720 On ch=4 n=c#4 v=78
114720 On ch=4 n=e4 v=78
114720 On ch=4 n=g4 v=78
115200 On ch=4 n=g4 v=0
115200 On ch=4 n=e4 v=0
115200 On ch=4 n=c#4 v=0
115200 On ch=4 n=d#5 v=74
115280 On ch=4 n=f5 v=74
115328 On ch=4 n=d#5 v=0
115360 On ch=4 n=d#5 v=75
115408 On ch=4 n=f5 v=0
115440 On ch=4 n=f5 v=75
115488 On ch=4 n=d#5 v=0
115520 On ch=4 n=d#5 v=75
115568 On ch=4 n=f5 v=0
115600 On ch=4 n=f5 v=75
115648 On ch=4 n=d#5 v=0
115680 On ch=4 n=d#5 v=76
115728 On ch=4 n=f5 v=0
115760 On ch=4 n=f5 v=76
115808 On ch=4 n=d#5 v=0
115840 On ch=4 n=d#5 v=76
115888 On ch=4 n=f5 v=0
115920 On ch=4 n=f5 v=76
115968 On ch=4 n=d#5 v=0
116000 On ch=4 n=d#5 v=77
116048 On ch=4 n=f5 v=0
116080 On ch=4 n=f5 v=77
116128 On ch=4 n=d#5 v=0
116160 On ch=4 n=d#5 v=77
116208 On ch=4 n=f5 v=0
116240 On ch=4 n=f5 v=77
116288 On ch=4 n=d#5 v=0
116320 On ch=4 n=d#5 v=78
116368 On ch=4 n=f5 v=0
116400 On ch=4 n=f5 v=78
116448 On ch=4 n=d#5 v=0
116480 On ch=4 n=d#5 v=78
116528 On ch=4 n=f5 v=0
116560 On ch=4 n=f5 v=79
116608 On ch=4 n=d#5 v=0
116640 On ch=4 n=d#5 v=79
116688 On ch=4 n=f5 v=0
116720 On ch=4 n=f5 v=79
116768 On ch=4 n=d#5 v=0
116800 On ch=4 n=d#5 v=79
116848 On ch=4 n=f5 v=0
116880 On ch=4 n=c#5 v=80
116928 On ch=4 n=d#5 v=0
117000 On ch=4 n=d#5 v=80
117070 On ch=4 n=c#5 v=0
117120 On ch=4 n=c#5 v=80
117125 On ch=4 n=d#5 v=0
117600 On ch=4 n=c#5 v=0
136800 Par ch=4 c=64 v=0
138480 On ch=4 n=f#4 v=48
138944 On ch=4 n=f#4 v=0
138960 On ch=4 n=f#4 v=48
139408 On ch=4 n=f#4 v=0
139440 On ch=4 n=f#4 v=50
139888 On ch=4 n=f#4 v=0
139920 On ch=4 n=f#4 v=51
140160 On ch=4 n=f#4 v=0
140400 On ch=4 n=f#4 v=50
140848 On ch=4 n=f#4 v=0
140880 On ch=4 n=f#4 v=51
141328 On ch=4 n=f#4 v=0
141360 On ch=4 n=f#4 v=53
141808 On ch=4 n=f#4 v=0
141840 On ch=4 n=f#4 v=55
142080 On ch=4 n=f#4 v=0
142320 On ch=4 n=e4 v=55
142560 On ch=4 n=e4 v=0
142800 On ch=4 n=e4 v=53
143040 On ch=4 n=e4 v=0
147960 On ch=4 n=d#5 v=66
148080 On ch=4 n=d#5 v=0
148200 On ch=4 n=d#5 v=67
148320 On ch=4 n=d#5 v=0
148440 On ch=4 n=d#5 v=67
148560 On ch=4 n=d#5 v=0
148680 On ch=4 n=d#5 v=68
148800 On ch=4 n=d#5 v=0
148920 On ch=4 n=d#5 v=69
149040 On ch=4 n=d#5 v=0
149160 On ch=4 n=d#5 v=70
149280 On ch=4 n=d#5 v=0
149400 On ch=4 n=d#5 v=71
149520 On ch=4 n=d#5 v=0
149640 On ch=4 n=d#5 v=71
149760 On ch=4 n=d#5 v=0
173040 On ch=4 n=f#4 v=46
173520 On ch=4 n=f#4 v=0
173520 On ch=4 n=f#4 v=47
174000 On ch=4 n=f#4 v=0
174000 On ch=4 n=f#4 v=48
174480 On ch=4 n=f#4 v=0
174480 On ch=4 n=f#4 v=49
174720 On ch=4 n=f#4 v=0
174960 On ch=4 n=c#4 v=44
175440 On ch=4 n=c#4 v=0
175440 On ch=4 n=c#4 v=46
175920 On ch=4 n=c#4 v=0
175920 On ch=4 n=c#4 v=47
176400 On ch=4 n=c#4 v=0
176400 On ch=4 n=c#4 v=49
176640 On ch=4 n=c#4 v=0
176640 On ch=4 n=c#4 v=49
176880 On ch=4 n=c#4 v=0
177360 On ch=4 n=f#4 v=52
177792 On ch=4 n=f#4 v=0
177840 On ch=4 n=f#4 v=54
178272 On ch=4 n=f#4 v=0
178320 On ch=4 n=f#4 v=55
178560 On ch=4 n=f#4 v=0
178800 On ch=4 n=f#4 v=53
179232 On ch=4 n=f#4 v=0
179280 On ch=4 n=f#4 v=50
179712 On ch=4 n=f#4 v=0
179760 On ch=4 n=f#4 v=45
180000 On ch=4 n=f#4 v=0
226560 On ch=4 n=f#3 v=68
226560 On ch=4 n=c4 v=68
226560 On ch=4 n=a3 v=68
227040 On ch=4 n=a3 v=0
227040 On ch=4 n=c4 v=0
227040 On ch=4 n=f#3 v=0
227040 On ch=4 n=f#3 v=70
227040 On ch=4 n=c4 v=70
227040 On ch=4 n=a3 v=70
227520 On ch=4 n=a3 v=0
227520 On ch=4 n=c4 v=0
227520 On ch=4 n=f#3 v=0
227520 On ch=4 n=f#3 v=73
227520 On ch=4 n=c4 v=73
227520 On ch=4 n=a3 v=73
228000 On ch=4 n=a3 v=0
228000 On ch=4 n=c4 v=0
228000 On ch=4 n=f#3 v=0
228000 On ch=4 n=f#3 v=75
228000 On ch=4 n=c4 v=75
228000 On ch=4 n=a3 v=75
228480 On ch=4 n=a3 v=0
228480 On ch=4 n=c4 v=0
228480 On ch=4 n=f#3 v=0
228480 On ch=4 n=g#4 v=76
228560 On ch=4 n=g#4 v=0
228560 On ch=4 n=a#4 v=72
228640 On ch=4 n=a#4 v=0
228640 On ch=4 n=g#4 v=72
228720 On ch=4 n=g#4 v=0
228720 On ch=4 n=a#4 v=72
228800 On ch=4 n=a#4 v=0
228800 On ch=4 n=g#4 v=73
228880 On ch=4 n=g#4 v=0
228880 On ch=4 n=a#4 v=73
228960 On ch=4 n=a#4 v=0
228960 On ch=4 n=g#4 v=73
229040 On ch=4 n=g#4 v=0
229040 On ch=4 n=a#4 v=74
229120 On ch=4 n=a#4 v=0
229120 On ch=4 n=g#4 v=74
229200 On ch=4 n=g#4 v=0
229200 On ch=4 n=a#4 v=74
229280 On ch=4 n=a#4 v=0
229280 On ch=4 n=g#4 v=75
229360 On ch=4 n=g#4 v=0
229360 On ch=4 n=a#4 v=75
229440 On ch=4 n=a#4 v=0
229440 On ch=4 n=g#4 v=76
229520 On ch=4 n=g#4 v=0
229520 On ch=4 n=a#4 v=76
229600 On ch=4 n=a#4 v=0
229600 On ch=4 n=g#4 v=76
229680 On ch=4 n=g#4 v=0
229680 On ch=4 n=a#4 v=77
229760 On ch=4 n=a#4 v=0
229760 On ch=4 n=g#4 v=77
229840 On ch=4 n=g#4 v=0
229840 On ch=4 n=a#4 v=77
229920 On ch=4 n=a#4 v=0
229920 On ch=4 n=g#4 v=78
230000 On ch=4 n=g#4 v=0
230000 On ch=4 n=a#4 v=78
230080 On ch=4 n=a#4 v=0
230080 On ch=4 n=g#4 v=78
230160 On ch=4 n=g#4 v=0
230160 On ch=4 n=f#4 v=79
230280 On ch=4 n=f#4 v=0
230280 On ch=4 n=g#4 v=79
230400 On ch=4 n=g#4 v=0
230400 On ch=4 n=f#4 v=79
230880 On ch=4 n=f#4 v=0
265440 Par ch=4 c=64 v=0
265440 On ch=4 n=f4 v=84
265560 On ch=4 n=f4 v=0
265560 On ch=4 n=f#4 v=76
265680 On ch=4 n=f#4 v=0
265680 On ch=4 n=g#4 v=71
265800 On ch=4 n=g#4 v=0
265800 On ch=4 n=f#4 v=66
265920 On ch=4 n=f#4 v=0
265920 On ch=4 n=f4 v=62
266040 On ch=4 n=f4 v=0
266040 On ch=4 n=f#4 v=61
266160 On ch=4 n=f#4 v=0
266160 On ch=4 n=g#4 v=59
266280 On ch=4 n=g#4 v=0
266280 On ch=4 n=f#4 v=57
266400 On ch=4 n=f#4 v=0
266400 On ch=4 n=f4 v=56
266520 On ch=4 n=f4 v=0
266520 On ch=4 n=f#4 v=54
266640 On ch=4 n=f#4 v=0
266640 On ch=4 n=g#4 v=53
266760 On ch=4 n=g#4 v=0
266760 On ch=4 n=f#4 v=52
266880 On ch=4 n=f#4 v=0
267120 On ch=4 n=f#4 v=48
267584 On ch=4 n=f#4 v=0
267600 On ch=4 n=f#4 v=48
268048 On ch=4 n=f#4 v=0
268080 On ch=4 n=f#4 v=50
268528 On ch=4 n=f#4 v=0
268560 On ch=4 n=f#4 v=51
268800 On ch=4 n=f#4 v=0
269040 On ch=4 n=f#4 v=50
269488 On ch=4 n=f#4 v=0
269520 On ch=4 n=f#4 v=51
269968 On ch=4 n=f#4 v=0
270000 On ch=4 n=f#4 v=53
270448 On ch=4 n=f#4 v=0
270480 On ch=4 n=f#4 v=55
270720 On ch=4 n=f#4 v=0
270960 On ch=4 n=e4 v=55
271200 On ch=4 n=e4 v=0
271440 On ch=4 n=e4 v=53
271680 On ch=4 n=e4 v=0
276600 On ch=4 n=d#5 v=66
276720 On ch=4 n=d#5 v=0
276840 On ch=4 n=d#5 v=67
276960 On ch=4 n=d#5 v=0
277080 On ch=4 n=d#5 v=67
277200 On ch=4 n=d#5 v=0
277320 On ch=4 n=d#5 v=68
277440 On ch=4 n=d#5 v=0
277560 On ch=4 n=d#5 v=69
277680 On ch=4 n=d#5 v=0
277800 On ch=4 n=d#5 v=70
277920 On ch=4 n=d#5 v=0
278040 On ch=4 n=d#5 v=71
278160 On ch=4 n=d#5 v=0
278280 On ch=4 n=d#5 v=71
278400 On ch=4 n=d#5 v=0
301680 On ch=4 n=f#4 v=46
302160 On ch=4 n=f#4 v=0
302160 On ch=4 n=f#4 v=47
302640 On ch=4 n=f#4 v=0
302640 On ch=4 n=f#4 v=48
303120 On ch=4 n=f#4 v=0
303120 On ch=4 n=f#4 v=49
303360 On ch=4 n=f#4 v=0
303600 On ch=4 n=c#4 v=44
304080 On ch=4 n=c#4 v=0
304080 On ch=4 n=c#4 v=46
304560 On ch=4 n=c#4 v=0
304560 On ch=4 n=c#4 v=47
305040 On ch=4 n=c#4 v=0
305040 On ch=4 n=c#4 v=49
305280 On ch=4 n=c#4 v=0
305280 On ch=4 n=c#4 v=49
305520 On ch=4 n=c#4 v=0
306000 On ch=4 n=f#4 v=52
306432 On ch=4 n=f#4 v=0
306480 On ch=4 n=f#4 v=54
306912 On ch=4 n=f#4 v=0
306960 On ch=4 n=f#4 v=55
307200 On ch=4 n=f#4 v=0
307440 On ch=4 n=f#4 v=53
307872 On ch=4 n=f#4 v=0
307920 On ch=4 n=f#4 v=50
308352 On ch=4 n=f#4 v=0
308400 On ch=4 n=f#4 v=45
308640 On ch=4 n=f#4 v=0
355200 On ch=4 n=a3 v=68
355200 On ch=4 n=c4 v=68
355200 On ch=4 n=f#3 v=68
355680 On ch=4 n=f#3 v=0
355680 On ch=4 n=c4 v=0
355680 On ch=4 n=a3 v=0
355680 On ch=4 n=a3 v=70
355680 On ch=4 n=c4 v=70
355680 On ch=4 n=f#3 v=70
356160 On ch=4 n=f#3 v=0
356160 On ch=4 n=c4 v=0
356160 On ch=4 n=a3 v=0
356160 On ch=4 n=a3 v=73
356160 On ch=4 n=c4 v=73
356160 On ch=4 n=f#3 v=73
356640 On ch=4 n=f#3 v=0
356640 On ch=4 n=c4 v=0
356640 On ch=4 n=a3 v=0
356640 On ch=4 n=a3 v=75
356640 On ch=4 n=c4 v=75
356640 On ch=4 n=f#3 v=75
357120 On ch=4 n=f#3 v=0
357120 On ch=4 n=c4 v=0
357120 On ch=4 n=a3 v=0
357120 On ch=4 n=g#4 v=76
357200 On ch=4 n=g#4 v=0
357200 On ch=4 n=a#4 v=72
357280 On ch=4 n=a#4 v=0
357280 On ch=4 n=g#4 v=72
357360 On ch=4 n=g#4 v=0
357360 On ch=4 n=a#4 v=72
357440 On ch=4 n=a#4 v=0
357440 On ch=4 n=g#4 v=73
357520 On ch=4 n=g#4 v=0
357520 On ch=4 n=a#4 v=73
357600 On ch=4 n=a#4 v=0
357600 On ch=4 n=g#4 v=73
357680 On ch=4 n=g#4 v=0
357680 On ch=4 n=a#4 v=74
357760 On ch=4 n=a#4 v=0
357760 On ch=4 n=g#4 v=74
357840 On ch=4 n=g#4 v=0
357840 On ch=4 n=a#4 v=74
357920 On ch=4 n=a#4 v=0
357920 On ch=4 n=g#4 v=75
358000 On ch=4 n=g#4 v=0
358000 On ch=4 n=a#4 v=75
358080 On ch=4 n=a#4 v=0
358080 On ch=4 n=g#4 v=76
358160 On ch=4 n=g#4 v=0
358160 On ch=4 n=a#4 v=76
358240 On ch=4 n=a#4 v=0
358240 On ch=4 n=g#4 v=76
358320 On ch=4 n=g#4 v=0
358320 On ch=4 n=a#4 v=77
358400 On ch=4 n=a#4 v=0
358400 On ch=4 n=g#4 v=77
358480 On ch=4 n=g#4 v=0
358480 On ch=4 n=a#4 v=77
358560 On ch=4 n=a#4 v=0
358560 On ch=4 n=g#4 v=78
358640 On ch=4 n=g#4 v=0
358640 On ch=4 n=a#4 v=78
358720 On ch=4 n=a#4 v=0
358720 On ch=4 n=g#4 v=78
358800 On ch=4 n=g#4 v=0
358800 On ch=4 n=f#4 v=79
358920 On ch=4 n=f#4 v=0
358920 On ch=4 n=g#4 v=79
359040 On ch=4 n=g#4 v=0
359040 On ch=4 n=f#4 v=79
359520 On ch=4 n=f#4 v=0
394080 Par ch=4 c=64 v=0
407160 On ch=4 n=f#5 v=37
407238 On ch=4 n=f#5 v=0
407400 On ch=4 n=f#5 v=38
407478 On ch=4 n=f#5 v=0
407640 On ch=4 n=f#6 v=40
407718 On ch=4 n=f#6 v=0
407880 On ch=4 n=f#6 v=42
407958 On ch=4 n=f#6 v=0
408120 On ch=4 n=f#6 v=44
408198 On ch=4 n=f#6 v=0
408360 On ch=4 n=f#6 v=46
408438 On ch=4 n=f#6 v=0
408600 On ch=4 n=g#6 v=48
408678 On ch=4 n=g#6 v=0
408840 On ch=4 n=c#7 v=50
408918 On ch=4 n=c#7 v=0
409080 On ch=4 n=a#6 v=52
409158 On ch=4 n=a#6 v=0
409320 On ch=4 n=c#7 v=54
409398 On ch=4 n=c#7 v=0
409560 On ch=4 n=c#7 v=56
409638 On ch=4 n=c#7 v=0
409800 On ch=4 n=c#7 v=58
409878 On ch=4 n=c#7 v=0
410040 On ch=4 n=c#7 v=60
410118 On ch=4 n=c#7 v=0
410280 On ch=4 n=c#7 v=61
410358 On ch=4 n=c#7 v=0
410520 On ch=4 n=b6 v=63
410598 On ch=4 n=b6 v=0
410760 On ch=4 n=c#7 v=65
410838 On ch=4 n=c#7 v=0
411000 On ch=4 n=f#6 v=46
411078 On ch=4 n=f#6 v=0
411240 On ch=4 n=f#6 v=48
411318 On ch=4 n=f#6 v=0
411480 On ch=4 n=f#6 v=50
411558 On ch=4 n=f#6 v=0
411720 On ch=4 n=f#6 v=52
411798 On ch=4 n=f#6 v=0
411960 On ch=4 n=f#6 v=53
412038 On ch=4 n=f#6 v=0
412200 On ch=4 n=f#6 v=55
412278 On ch=4 n=f#6 v=0
412440 On ch=4 n=g#6 v=57
412518 On ch=4 n=g#6 v=0
412680 On ch=4 n=c#7 v=58
412758 On ch=4 n=c#7 v=0
412920 On ch=4 n=a#6 v=60
412998 On ch=4 n=a#6 v=0
413160 On ch=4 n=c#7 v=62
413238 On ch=4 n=c#7 v=0
413400 On ch=4 n=c#7 v=64
413478 On ch=4 n=c#7 v=0
413640 On ch=4 n=c#7 v=65
413718 On ch=4 n=c#7 v=0
413880 On ch=4 n=c#7 v=67
413958 On ch=4 n=c#7 v=0
414120 On ch=4 n=c#7 v=69
414198 On ch=4 n=c#7 v=0
414360 On ch=4 n=b6 v=70
414438 On ch=4 n=b6 v=0
414600 On ch=4 n=c#7 v=72
414678 On ch=4 n=c#7 v=0
414840 On ch=4 n=c#7 v=74
414918 On ch=4 n=c#7 v=0
414960 On ch=4 n=f#6 v=75
415080 On ch=4 n=f#6 v=0
415080 On ch=4 n=c#7 v=76
415158 On ch=4 n=c#7 v=0
415320 On ch=4 n=g#6 v=77
415398 On ch=4 n=g#6 v=0
415560 On ch=4 n=c7 v=79
415638 On ch=4 n=c7 v=0
415800 On ch=4 n=g#6 v=81
415878 On ch=4 n=g#6 v=0
416040 On ch=4 n=d#7 v=83
416118 On ch=4 n=d#7 v=0
416280 On ch=4 n=g#6 v=84
416358 On ch=4 n=g#6 v=0
416520 On ch=4 n=d#7 v=86
416598 On ch=4 n=d#7 v=0
416640 On ch=4 n=f6 v=87
416640 On ch=4 n=c#7 v=87
416880 On ch=4 n=c#7 v=0
416880 On ch=4 n=f6 v=0
417000 On ch=4 n=c#5 v=75
417078 On ch=4 n=c#5 v=0
417240 On ch=4 n=c#5 v=70
417318 On ch=4 n=c#5 v=0
417480 On ch=4 n=f5 v=69
417558 On ch=4 n=f5 v=0
417720 On ch=4 n=f5 v=68
417798 On ch=4 n=f5 v=0
417960 On ch=4 n=g#5 v=66
418038 On ch=4 n=g#5 v=0
418200 On ch=4 n=g#5 v=65
418278 On ch=4 n=g#5 v=0
418440 On ch=4 n=c#6 v=64
418518 On ch=4 n=c#6 v=0
418680 On ch=4 n=c#6 v=63
418758 On ch=4 n=c#6 v=0
418920 On ch=4 n=f6 v=62
418998 On ch=4 n=f6 v=0
419160 On ch=4 n=f6 v=61
419238 On ch=4 n=f6 v=0
419400 On ch=4 n=g#6 v=60
419478 On ch=4 n=g#6 v=0
419640 On ch=4 n=g#6 v=59
419718 On ch=4 n=g#6 v=0
419880 On ch=4 n=c#7 v=58
419958 On ch=4 n=c#7 v=0
420120 On ch=4 n=c#7 v=57
420198 On ch=4 n=c#7 v=0
420360 On ch=4 n=f7 v=56
420438 On ch=4 n=f7 v=0
420600 On ch=4 n=f7 v=55
420678 On ch=4 n=f7 v=0
420840 On ch=4 n=g#7 v=53
420918 On ch=4 n=g#7 v=0
421080 On ch=4 n=c#7 v=52
421158 On ch=4 n=c#7 v=0
421320 On ch=4 n=f7 v=51
421398 On ch=4 n=f7 v=0
421560 On ch=4 n=g#6 v=50
421638 On ch=4 n=g#6 v=0
421800 On ch=4 n=c#7 v=49
421878 On ch=4 n=c#7 v=0
422040 On ch=4 n=f6 v=48
422118 On ch=4 n=f6 v=0
422280 On ch=4 n=g#6 v=47
422358 On ch=4 n=g#6 v=0
422520 On ch=4 n=c#6 v=46
422598 On ch=4 n=c#6 v=0
422760 On ch=4 n=f6 v=45
422838 On ch=4 n=f6 v=0
423000 On ch=4 n=g#5 v=44
423078 On ch=4 n=g#5 v=0
423240 On ch=4 n=c#6 v=43
423318 On ch=4 n=c#6 v=0
423480 On ch=4 n=f5 v=42
423558 On ch=4 n=f5 v=0
423720 On ch=4 n=c#6 v=40
423798 On ch=4 n=c#6 v=0
423960 On ch=4 n=c#5 v=39
424038 On ch=4 n=c#5 v=0
424200 On ch=4 n=c#6 v=38
424278 On ch=4 n=c#6 v=0
424440 On ch=4 n=c#5 v=37
424518 On ch=4 n=c#5 v=0
424680 On ch=4 n=c#6 v=36
424758 On ch=4 n=c#6 v=0
424920 On ch=4 n=c#4 v=35
424998 On ch=4 n=c#4 v=0
425160 On ch=4 n=c#5 v=34
425238 On ch=4 n=c#5 v=0
425400 On ch=4 n=c#5 v=33
425478 On ch=4 n=c#5 v=0
425640 On ch=4 n=c#6 v=32
425718 On ch=4 n=c#6 v=0
425880 On ch=4 n=c#4 v=31
425958 On ch=4 n=c#4 v=0
426120 On ch=4 n=c#5 v=32
426198 On ch=4 n=c#5 v=0
436920 On ch=4 n=f#5 v=36
436998 On ch=4 n=f#5 v=0
437160 On ch=4 n=f#5 v=38
437238 On ch=4 n=f#5 v=0
437400 On ch=4 n=f#6 v=40
437478 On ch=4 n=f#6 v=0
437640 On ch=4 n=f#6 v=42
437718 On ch=4 n=f#6 v=0
437880 On ch=4 n=f#6 v=44
437958 On ch=4 n=f#6 v=0
438120 On ch=4 n=f#6 v=46
438198 On ch=4 n=f#6 v=0
438360 On ch=4 n=g#6 v=48
438438 On ch=4 n=g#6 v=0
438600 On ch=4 n=c#7 v=50
438678 On ch=4 n=c#7 v=0
438840 On ch=4 n=a#6 v=52
438918 On ch=4 n=a#6 v=0
439080 On ch=4 n=c#7 v=54
439158 On ch=4 n=c#7 v=0
439320 On ch=4 n=c#7 v=56
439398 On ch=4 n=c#7 v=0
439560 On ch=4 n=c#7 v=58
439638 On ch=4 n=c#7 v=0
439800 On ch=4 n=c#7 v=60
439878 On ch=4 n=c#7 v=0
440040 On ch=4 n=c#7 v=62
440118 On ch=4 n=c#7 v=0
440280 On ch=4 n=b6 v=64
440358 On ch=4 n=b6 v=0
440520 On ch=4 n=c#7 v=66
440598 On ch=4 n=c#7 v=0
440640 On ch=4 n=a#6 v=67
440718 On ch=4 n=a#6 v=0
440760 On ch=4 n=f#6 v=56
440838 On ch=4 n=f#6 v=0
441000 On ch=4 n=f#6 v=57
441078 On ch=4 n=f#6 v=0
441240 On ch=4 n=f#6 v=59
441318 On ch=4 n=f#6 v=0
441480 On ch=4 n=f#6 v=61
441558 On ch=4 n=f#6 v=0
441720 On ch=4 n=f#6 v=62
441798 On ch=4 n=f#6 v=0
441960 On ch=4 n=f#6 v=64
442038 On ch=4 n=f#6 v=0
442200 On ch=4 n=g#6 v=66
442278 On ch=4 n=g#6 v=0
442440 On ch=4 n=c#7 v=67
442518 On ch=4 n=c#7 v=0
442680 On ch=4 n=a#6 v=69
442758 On ch=4 n=a#6 v=0
442920 On ch=4 n=c#7 v=71
442998 On ch=4 n=c#7 v=0
443160 On ch=4 n=a#6 v=72
443238 On ch=4 n=a#6 v=0
443400 On ch=4 n=d#7 v=74
443478 On ch=4 n=d#7 v=0
443640 On ch=4 n=d#7 v=75
443718 On ch=4 n=d#7 v=0
443880 On ch=4 n=d#7 v=77
443958 On ch=4 n=d#7 v=0
444120 On ch=4 n=d#7 v=79
444198 On ch=4 n=d#7 v=0
444360 On ch=4 n=d#7 v=80
444438 On ch=4 n=d#7 v=0
444480 On ch=4 n=d7 v=81
444720 On ch=4 n=d7 v=0
444840 On ch=4 n=a#5 v=71
444918 On ch=4 n=a#5 v=0
445080 On ch=4 n=a5 v=65
445158 On ch=4 n=a5 v=0
445320 On ch=4 n=a5 v=64
445398 On ch=4 n=a5 v=0
445560 On ch=4 n=f#5 v=62
445638 On ch=4 n=f#5 v=0
445800 On ch=4 n=f#5 v=61
445878 On ch=4 n=f#5 v=0
446040 On ch=4 n=f5 v=60
446118 On ch=4 n=f5 v=0
446280 On ch=4 n=f5 v=58
446358 On ch=4 n=f5 v=0
446520 On ch=4 n=d#5 v=57
446598 On ch=4 n=d#5 v=0
446760 On ch=4 n=d#5 v=55
446838 On ch=4 n=d#5 v=0
447000 On ch=4 n=c#5 v=54
447078 On ch=4 n=c#5 v=0
447240 On ch=4 n=c#5 v=53
447318 On ch=4 n=c#5 v=0
447480 On ch=4 n=b4 v=51
447558 On ch=4 n=b4 v=0
447720 On ch=4 n=b4 v=50
447798 On ch=4 n=b4 v=0
447960 On ch=4 n=a#4 v=48
448038 On ch=4 n=a#4 v=0
448200 On ch=4 n=a#4 v=47
448278 On ch=4 n=a#4 v=0
448440 On ch=4 n=a4 v=46
448518 On ch=4 n=a4 v=0
448680 On ch=4 n=a4 v=44
448758 On ch=4 n=a4 v=0
448920 On ch=4 n=g#4 v=43
448998 On ch=4 n=g#4 v=0
449160 On ch=4 n=g#4 v=41
449238 On ch=4 n=g#4 v=0
449400 On ch=4 n=f#4 v=40
449478 On ch=4 n=f#4 v=0
449640 On ch=4 n=f#4 v=39
449718 On ch=4 n=f#4 v=0
449880 On ch=4 n=f4 v=37
449958 On ch=4 n=f4 v=0
450120 On ch=4 n=f4 v=36
450198 On ch=4 n=f4 v=0
450240 Par ch=4 c=64 v=127
450600 On ch=4 n=d#5 v=94
450678 On ch=4 n=d#5 v=0
450840 On ch=4 n=g5 v=92
450918 On ch=4 n=g5 v=0
451080 On ch=4 n=a#5 v=90
451158 On ch=4 n=a#5 v=0
451320 On ch=4 n=d#6 v=88
451398 On ch=4 n=d#6 v=0
451560 On ch=4 n=g6 v=86
451638 On ch=4 n=g6 v=0
451800 On ch=4 n=a#6 v=84
451878 On ch=4 n=a#6 v=0
452040 On ch=4 n=d#7 v=81
452118 On ch=4 n=d#7 v=0
452400 Par ch=4 c=64 v=0
452520 On ch=4 n=a#5 v=54
452598 On ch=4 n=a#5 v=0
452760 On ch=4 n=a#5 v=53
452838 On ch=4 n=a#5 v=0
453000 On ch=4 n=a#5 v=51
453078 On ch=4 n=a#5 v=0
453240 On ch=4 n=a#5 v=50
453318 On ch=4 n=a#5 v=0
453480 On ch=4 n=a#5 v=49
453558 On ch=4 n=a#5 v=0
453720 On ch=4 n=a#5 v=47
453798 On ch=4 n=a#5 v=0
453960 On ch=4 n=a#5 v=46
454038 On ch=4 n=a#5 v=0
454080 Par ch=4 c=64 v=127
454440 On ch=4 n=d#5 v=86
454560 On ch=4 n=d#5 v=0
454680 On ch=4 n=g5 v=84
454800 On ch=4 n=g5 v=0
454920 On ch=4 n=a#5 v=83
455040 On ch=4 n=a#5 v=0
455160 On ch=4 n=d#6 v=81
455280 On ch=4 n=d#6 v=0
455400 On ch=4 n=g6 v=79
455520 On ch=4 n=g6 v=0
455640 On ch=4 n=a#6 v=77
455760 On ch=4 n=a#6 v=0
455880 On ch=4 n=d#7 v=75
456000 On ch=4 n=d#7 v=0
456240 Par ch=4 c=64 v=0
456360 On ch=4 n=a#5 v=50
456480 On ch=4 n=a#5 v=0
456600 On ch=4 n=a#5 v=49
456720 On ch=4 n=a#5 v=0
456840 On ch=4 n=a#5 v=48
456960 On ch=4 n=a#5 v=0
457080 On ch=4 n=a#5 v=47
457200 On ch=4 n=a#5 v=0
457320 On ch=4 n=a#5 v=45
457440 On ch=4 n=a#5 v=0
457560 On ch=4 n=a#5 v=44
457680 On ch=4 n=a#5 v=0
457800 On ch=4 n=a#5 v=43
457920 On ch=4 n=a#5 v=0
458040 On ch=4 n=f#5 v=45
458118 On ch=4 n=f#5 v=0
458280 On ch=4 n=d#6 v=48
458358 On ch=4 n=d#6 v=0
458520 On ch=4 n=d6 v=51
458598 On ch=4 n=d6 v=0
458760 On ch=4 n=f6 v=54
458838 On ch=4 n=f6 v=0
459000 On ch=4 n=d#6 v=57
459078 On ch=4 n=d#6 v=0
459240 On ch=4 n=f#6 v=60
459318 On ch=4 n=f#6 v=0
459480 On ch=4 n=f6 v=63
459558 On ch=4 n=f6 v=0
459720 On ch=4 n=g#6 v=66
459798 On ch=4 n=g#6 v=0
459960 On ch=4 n=d#6 v=69
460038 On ch=4 n=d#6 v=0
460200 On ch=4 n=f#6 v=72
460278 On ch=4 n=f#6 v=0
460440 On ch=4 n=f6 v=75
460518 On ch=4 n=f6 v=0
460680 On ch=4 n=g#6 v=78
460758 On ch=4 n=g#6 v=0
460920 On ch=4 n=f#6 v=81
460998 On ch=4 n=f#6 v=0
461160 On ch=4 n=d#7 v=84
461238 On ch=4 n=d#7 v=0
461400 On ch=4 n=d7 v=87
461478 On ch=4 n=d7 v=0
461640 On ch=4 n=f7 v=90
461718 On ch=4 n=f7 v=0
461880 On ch=4 n=f#5 v=61
461958 On ch=4 n=f#5 v=0
462120 On ch=4 n=d#6 v=64
462198 On ch=4 n=d#6 v=0
462360 On ch=4 n=d6 v=66
462438 On ch=4 n=d6 v=0
462600 On ch=4 n=f6 v=69
462678 On ch=4 n=f6 v=0
462840 On ch=4 n=d#6 v=71
462918 On ch=4 n=d#6 v=0
463080 On ch=4 n=f#6 v=74
463158 On ch=4 n=f#6 v=0
463320 On ch=4 n=f6 v=76
463398 On ch=4 n=f6 v=0
463560 On ch=4 n=g#6 v=79
463638 On ch=4 n=g#6 v=0
463800 On ch=4 n=d#6 v=81
463878 On ch=4 n=d#6 v=0
464040 On ch=4 n=f#6 v=84
464118 On ch=4 n=f#6 v=0
464280 On ch=4 n=f6 v=87
464358 On ch=4 n=f6 v=0
464520 On ch=4 n=g#6 v=89
464598 On ch=4 n=g#6 v=0
464760 On ch=4 n=f#6 v=92
464838 On ch=4 n=f#6 v=0
465000 On ch=4 n=d#7 v=94
465078 On ch=4 n=d#7 v=0
465240 On ch=4 n=f#6 v=97
465318 On ch=4 n=f#6 v=0
465480 On ch=4 n=e7 v=99
465558 On ch=4 n=e7 v=0
465720 On ch=4 n=f#6 v=102
465798 On ch=4 n=f#6 v=0
465960 On ch=4 n=d#7 v=104
466038 On ch=4 n=d#7 v=0
466200 On ch=4 n=d#7 v=107
466278 On ch=4 n=d#7 v=0
466440 On ch=4 n=d#7 v=109
466518 On ch=4 n=d#7 v=0
466560 On ch=4 n=d7 v=111
466560 On ch=4 n=f7 v=111
466560 On ch=4 n=b6 v=111
466920 On ch=4 n=b6 v=0
466920 On ch=4 n=f7 v=0
466920 On ch=4 n=d7 v=0
467400 On ch=4 n=b4 v=95
467478 On ch=4 n=b4 v=0
467640 On ch=4 n=b4 v=87
467718 On ch=4 n=b4 v=0
467880 On ch=4 n=b4 v=86
467958 On ch=4 n=b4 v=0
468120 On ch=4 n=d5 v=85
468198 On ch=4 n=d5 v=0
468360 On ch=4 n=d5 v=84
468438 On ch=4 n=d5 v=0
468600 On ch=4 n=f5 v=83
468678 On ch=4 n=f5 v=0
468840 On ch=4 n=f5 v=82
468918 On ch=4 n=f5 v=0
469080 On ch=4 n=b5 v=81
469158 On ch=4 n=b5 v=0
469320 On ch=4 n=b5 v=80
469398 On ch=4 n=b5 v=0
469560 On ch=4 n=d6 v=79
469638 On ch=4 n=d6 v=0
469800 On ch=4 n=d6 v=78
469878 On ch=4 n=d6 v=0
470040 On ch=4 n=f6 v=77
470118 On ch=4 n=f6 v=0
470280 On ch=4 n=f6 v=76
470358 On ch=4 n=f6 v=0
470520 On ch=4 n=b6 v=75
470598 On ch=4 n=b6 v=0
470760 On ch=4 n=b6 v=74
470838 On ch=4 n=b6 v=0
471000 On ch=4 n=d7 v=73
471078 On ch=4 n=d7 v=0
471240 On ch=4 n=d7 v=72
471318 On ch=4 n=d7 v=0
471480 On ch=4 n=d7 v=71
471558 On ch=4 n=d7 v=0
471720 On ch=4 n=f7 v=70
471798 On ch=4 n=f7 v=0
471960 On ch=4 n=b6 v=68
472038 On ch=4 n=b6 v=0
472200 On ch=4 n=f7 v=67
472278 On ch=4 n=f7 v=0
472440 On ch=4 n=d7 v=66
472518 On ch=4 n=d7 v=0
472680 On ch=4 n=f7 v=65
472758 On ch=4 n=f7 v=0
472920 On ch=4 n=b6 v=64
472998 On ch=4 n=b6 v=0
473160 On ch=4 n=f7 v=63
473238 On ch=4 n=f7 v=0
473400 On ch=4 n=d7 v=62
473478 On ch=4 n=d7 v=0
473640 On ch=4 n=f7 v=61
473718 On ch=4 n=f7 v=0
473880 On ch=4 n=b6 v=60
473958 On ch=4 n=b6 v=0
474120 On ch=4 n=f7 v=59
474198 On ch=4 n=f7 v=0
474360 On ch=4 n=g6 v=58
474438 On ch=4 n=g6 v=0
474600 On ch=4 n=f7 v=57
474678 On ch=4 n=f7 v=0
474840 On ch=4 n=f6 v=56
474918 On ch=4 n=f6 v=0
475080 On ch=4 n=f6 v=55
475158 On ch=4 n=f6 v=0
475320 On ch=4 n=d6 v=54
475398 On ch=4 n=d6 v=0
475560 On ch=4 n=f6 v=53
475638 On ch=4 n=f6 v=0
475800 On ch=4 n=b5 v=52
475878 On ch=4 n=b5 v=0
476040 On ch=4 n=f6 v=51
476118 On ch=4 n=f6 v=0
476280 On ch=4 n=d6 v=50
476358 On ch=4 n=d6 v=0
476520 On ch=4 n=f6 v=49
476598 On ch=4 n=f6 v=0
476760 On ch=4 n=b5 v=47
476838 On ch=4 n=b5 v=0
477000 On ch=4 n=f6 v=46
477078 On ch=4 n=f6 v=0
477240 On ch=4 n=d6 v=45
477318 On ch=4 n=d6 v=0
477480 On ch=4 n=f6 v=44
477558 On ch=4 n=f6 v=0
477720 On ch=4 n=b6 v=43
477798 On ch=4 n=b6 v=0
477960 On ch=4 n=f6 v=42
478038 On ch=4 n=f6 v=0
478200 On ch=4 n=d7 v=41
478278 On ch=4 n=d7 v=0
478440 On ch=4 n=f6 v=40
478518 On ch=4 n=f6 v=0
478680 On ch=4 n=b6 v=39
478758 On ch=4 n=b6 v=0
478920 On ch=4 n=f6 v=38
478998 On ch=4 n=f6 v=0
479160 On ch=4 n=d6 v=37
479238 On ch=4 n=d6 v=0
479400 On ch=4 n=d7 v=36
479478 On ch=4 n=d7 v=0
479640 On ch=4 n=b5 v=35
479718 On ch=4 n=b5 v=0
479880 On ch=4 n=b6 v=34
479958 On ch=4 n=b6 v=0
480120 On ch=4 n=d6 v=33
480198 On ch=4 n=d6 v=0
480360 On ch=4 n=d7 v=32
480438 On ch=4 n=d7 v=0
480600 On ch=4 n=b5 v=31
480678 On ch=4 n=b5 v=0
480840 On ch=4 n=b6 v=30
480918 On ch=4 n=b6 v=0
491640 On ch=4 n=b4 v=45
491718 On ch=4 n=b4 v=0
491880 On ch=4 n=b4 v=47
491958 On ch=4 n=b4 v=0
492120 On ch=4 n=b5 v=49
492198 On ch=4 n=b5 v=0
492360 On ch=4 n=b5 v=51
492438 On ch=4 n=b5 v=0
492600 On ch=4 n=b5 v=53
492678 On ch=4 n=b5 v=0
492840 On ch=4 n=b5 v=55
492918 On ch=4 n=b5 v=0
493080 On ch=4 n=c#6 v=57
493158 On ch=4 n=c#6 v=0
493320 On ch=4 n=f#6 v=59
493398 On ch=4 n=f#6 v=0
493560 On ch=4 n=d#6 v=61
493638 On ch=4 n=d#6 v=0
493800 On ch=4 n=f#6 v=63
493878 On ch=4 n=f#6 v=0
494040 On ch=4 n=f#6 v=65
494118 On ch=4 n=f#6 v=0
494280 On ch=4 n=f#6 v=67
494358 On ch=4 n=f#6 v=0
494520 On ch=4 n=f#6 v=69
494598 On ch=4 n=f#6 v=0
494760 On ch=4 n=f#6 v=71
494838 On ch=4 n=f#6 v=0
495000 On ch=4 n=e6 v=73
495078 On ch=4 n=e6 v=0
495240 On ch=4 n=f#6 v=75
495318 On ch=4 n=f#6 v=0
495480 On ch=4 n=b5 v=58
495558 On ch=4 n=b5 v=0
495720 On ch=4 n=b5 v=60
495798 On ch=4 n=b5 v=0
495960 On ch=4 n=b5 v=61
496038 On ch=4 n=b5 v=0
496200 On ch=4 n=b5 v=63
496278 On ch=4 n=b5 v=0
496440 On ch=4 n=b5 v=64
496518 On ch=4 n=b5 v=0
496680 On ch=4 n=b5 v=66
496758 On ch=4 n=b5 v=0
496920 On ch=4 n=c#6 v=67
496998 On ch=4 n=c#6 v=0
497160 On ch=4 n=f#6 v=69
497238 On ch=4 n=f#6 v=0
497400 On ch=4 n=d#6 v=70
497478 On ch=4 n=d#6 v=0
497640 On ch=4 n=f#6 v=72
497718 On ch=4 n=f#6 v=0
497880 On ch=4 n=f#6 v=73
497958 On ch=4 n=f#6 v=0
498120 On ch=4 n=f#6 v=75
498198 On ch=4 n=f#6 v=0
498360 On ch=4 n=b6 v=76
498438 On ch=4 n=b6 v=0
498600 On ch=4 n=b6 v=78
498678 On ch=4 n=b6 v=0
498720 On ch=4 n=c#6 v=78
498840 On ch=4 n=c#6 v=0
498840 On ch=4 n=b6 v=79
498918 On ch=4 n=b6 v=0
498960 On ch=4 n=c#6 v=80
499080 On ch=4 n=c#6 v=0
499080 On ch=4 n=b6 v=81
499158 On ch=4 n=b6 v=0
499200 On ch=4 n=c#6 v=81
499320 On ch=4 n=c#6 v=0
499320 On ch=4 n=a6 v=82
499398 On ch=4 n=a6 v=0
499440 On ch=4 n=c#6 v=83
499560 On ch=4 n=c#6 v=0
499560 On ch=4 n=a6 v=84
499638 On ch=4 n=a6 v=0
499680 On ch=4 n=c#6 v=84
499800 On ch=4 n=c#6 v=0
499800 On ch=4 n=a6 v=85
499878 On ch=4 n=a6 v=0
499920 On ch=4 n=c#6 v=86
500040 On ch=4 n=c#6 v=0
500040 On ch=4 n=a6 v=86
500118 On ch=4 n=a6 v=0
500160 On ch=4 n=c#6 v=87
500280 On ch=4 n=c#6 v=0
500280 On ch=4 n=a6 v=88
500358 On ch=4 n=a6 v=0
500400 On ch=4 n=a5 v=89
500520 On ch=4 n=a5 v=0
500520 On ch=4 n=f#6 v=89
500598 On ch=4 n=f#6 v=0
500640 On ch=4 n=f#5 v=90
500760 On ch=4 n=f#5 v=0
500760 On ch=4 n=f#6 v=91
500838 On ch=4 n=f#6 v=0
500880 On ch=4 n=f#5 v=92
501000 On ch=4 n=f#5 v=0
501000 On ch=4 n=f#6 v=92
501078 On ch=4 n=f#6 v=0
501120 On ch=4 n=f6 v=93
501120 On ch=4 n=f5 v=93
501360 On ch=4 n=f5 v=0
501360 On ch=4 n=f6 v=0
501480 On ch=4 n=b5 v=84
501558 On ch=4 n=b5 v=0
501720 On ch=4 n=a5 v=77
501798 On ch=4 n=a5 v=0
501960 On ch=4 n=a5 v=76
502038 On ch=4 n=a5 v=0
502200 On ch=4 n=g#5 v=74
502278 On ch=4 n=g#5 v=0
502440 On ch=4 n=g#5 v=72
502518 On ch=4 n=g#5 v=0
502680 On ch=4 n=f#5 v=71
502758 On ch=4 n=f#5 v=0
502920 On ch=4 n=f#5 v=69
502998 On ch=4 n=f#5 v=0
503160 On ch=4 n=f5 v=67
503238 On ch=4 n=f5 v=0
503400 On ch=4 n=f5 v=66
503478 On ch=4 n=f5 v=0
503640 On ch=4 n=d5 v=64
503718 On ch=4 n=d5 v=0
503880 On ch=4 n=d5 v=62
503958 On ch=4 n=d5 v=0
504120 On ch=4 n=c#5 v=61
504198 On ch=4 n=c#5 v=0
504360 On ch=4 n=c#5 v=59
504438 On ch=4 n=c#5 v=0
504600 On ch=4 n=c5 v=57
504678 On ch=4 n=c5 v=0
504840 On ch=4 n=c5 v=55
504918 On ch=4 n=c5 v=0
505080 On ch=4 n=c5 v=54
505158 On ch=4 n=c5 v=0
505320 On ch=4 n=c5 v=52
505398 On ch=4 n=c5 v=0
505560 On ch=4 n=b4 v=50
505638 On ch=4 n=b4 v=0
505800 On ch=4 n=b4 v=49
505878 On ch=4 n=b4 v=0
506040 On ch=4 n=a4 v=47
506118 On ch=4 n=a4 v=0
506280 On ch=4 n=a4 v=45
506358 On ch=4 n=a4 v=0
506520 On ch=4 n=g#4 v=44
506598 On ch=4 n=g#4 v=0
506760 On ch=4 n=g#4 v=42
506838 On ch=4 n=g#4 v=0
506880 Par ch=4 c=64 v=127
507240 On ch=4 n=f#5 v=87
507360 On ch=4 n=f#5 v=0
507480 On ch=4 n=a#5 v=85
507600 On ch=4 n=a#5 v=0
507720 On ch=4 n=c#6 v=83
507840 On ch=4 n=c#6 v=0
507960 On ch=4 n=f#6 v=82
508080 On ch=4 n=f#6 v=0
508200 On ch=4 n=a#6 v=80
508320 On ch=4 n=a#6 v=0
508440 On ch=4 n=c#7 v=78
508560 On ch=4 n=c#7 v=0
508680 On ch=4 n=f#7 v=77
508800 On ch=4 n=f#7 v=0
509040 Par ch=4 c=64 v=0
509160 On ch=4 n=c#6 v=62
509238 On ch=4 n=c#6 v=0
509400 On ch=4 n=c#6 v=61
509478 On ch=4 n=c#6 v=0
509640 On ch=4 n=c#6 v=60
509718 On ch=4 n=c#6 v=0
509880 On ch=4 n=c#6 v=59
509958 On ch=4 n=c#6 v=0
510120 On ch=4 n=c#6 v=58
510198 On ch=4 n=c#6 v=0
510360 On ch=4 n=c#6 v=58
510438 On ch=4 n=c#6 v=0
510600 On ch=4 n=c#6 v=57
510660 Par ch=4 c=64 v=0
510678 On ch=4 n=c#6 v=0
510720 Par ch=4 c=64 v=127
511080 On ch=4 n=f#5 v=78
511200 On ch=4 n=f#5 v=0
511320 On ch=4 n=a#5 v=76
511440 On ch=4 n=a#5 v=0
511560 On ch=4 n=c#6 v=74
511680 On ch=4 n=c#6 v=0
511800 On ch=4 n=f#6 v=72
511920 On ch=4 n=f#6 v=0
512040 On ch=4 n=a#6 v=70
512160 On ch=4 n=a#6 v=0
512280 On ch=4 n=c#7 v=69
512400 On ch=4 n=c#7 v=0
512520 On ch=4 n=f#7 v=67
512640 On ch=4 n=f#7 v=0
512880 Par ch=4 c=64 v=0
513000 On ch=4 n=c#6 v=52
513078 On ch=4 n=c#6 v=0
513240 On ch=4 n=c#6 v=50
513318 On ch=4 n=c#6 v=0
513480 On ch=4 n=c#6 v=49
513558 On ch=4 n=c#6 v=0
513720 On ch=4 n=c#6 v=47
513798 On ch=4 n=c#6 v=0
513960 On ch=4 n=c#6 v=46
514038 On ch=4 n=c#6 v=0
514200 On ch=4 n=c#6 v=44
514278 On ch=4 n=c#6 v=0
514440 On ch=4 n=c#6 v=42
514518 On ch=4 n=c#6 v=0
514680 On ch=4 n=a5 v=44
514758 On ch=4 n=a5 v=0
514920 On ch=4 n=f#6 v=47
514998 On ch=4 n=f#6 v=0
515160 On ch=4 n=f6 v=50
515238 On ch=4 n=f6 v=0
515400 On ch=4 n=g#6 v=52
515478 On ch=4 n=g#6 v=0
515640 On ch=4 n=f#6 v=55
515718 On ch=4 n=f#6 v=0
515880 On ch=4 n=a6 v=58
515958 On ch=4 n=a6 v=0
516120 On ch=4 n=g#6 v=60
516198 On ch=4 n=g#6 v=0
516360 On ch=4 n=b6 v=63
516438 On ch=4 n=b6 v=0
516600 On ch=4 n=f#6 v=66
516678 On ch=4 n=f#6 v=0
516840 On ch=4 n=a6 v=68
516918 On ch=4 n=a6 v=0
517080 On ch=4 n=g#6 v=71
517158 On ch=4 n=g#6 v=0
517320 On ch=4 n=b6 v=74
517398 On ch=4 n=b6 v=0
517560 On ch=4 n=a6 v=76
517638 On ch=4 n=a6 v=0
517800 On ch=4 n=f#7 v=79
517878 On ch=4 n=f#7 v=0
518040 On ch=4 n=f7 v=82
518118 On ch=4 n=f7 v=0
518280 On ch=4 n=g#7 v=85
518358 On ch=4 n=g#7 v=0
518520 On ch=4 n=a5 v=65
518598 On ch=4 n=a5 v=0
518760 On ch=4 n=f#6 v=67
518838 On ch=4 n=f#6 v=0
519000 On ch=4 n=f6 v=70
519078 On ch=4 n=f6 v=0
519240 On ch=4 n=g#6 v=72
519318 On ch=4 n=g#6 v=0
519480 On ch=4 n=f#6 v=74
519558 On ch=4 n=f#6 v=0
519720 On ch=4 n=a6 v=77
519798 On ch=4 n=a6 v=0
519960 On ch=4 n=g#6 v=79
520038 On ch=4 n=g#6 v=0
520200 On ch=4 n=b6 v=81
520278 On ch=4 n=b6 v=0
520440 On ch=4 n=f#6 v=84
520518 On ch=4 n=f#6 v=0
520680 On ch=4 n=a6 v=86
520758 On ch=4 n=a6 v=0
520920 On ch=4 n=g#6 v=88
520998 On ch=4 n=g#6 v=0
521160 On ch=4 n=b6 v=91
521238 On ch=4 n=b6 v=0
521400 On ch=4 n=a6 v=93
521478 On ch=4 n=a6 v=0
521640 On ch=4 n=f#7 v=95
521718 On ch=4 n=f#7 v=0
521880 On ch=4 n=a6 v=97
521958 On ch=4 n=a6 v=0
522120 On ch=4 n=f#7 v=100
522198 On ch=4 n=f#7 v=0
522360 On ch=4 n=a6 v=102
522438 On ch=4 n=a6 v=0
522600 On ch=4 n=f#7 v=104
522678 On ch=4 n=f#7 v=0
522840 On ch=4 n=a6 v=107
522918 On ch=4 n=a6 v=0
523080 On ch=4 n=f#7 v=109
523158 On ch=4 n=f#7 v=0
523200 On ch=4 n=a6 v=108
523200 On ch=4 n=c7 v=108
523200 On ch=4 n=f#7 v=108
523560 On ch=4 n=f#7 v=0
523560 On ch=4 n=c7 v=0
523560 On ch=4 n=a6 v=0
524040 On ch=4 n=c5 v=94
524118 On ch=4 n=c5 v=0
524280 On ch=4 n=c5 v=91
524358 On ch=4 n=c5 v=0
524520 On ch=4 n=c5 v=90
524598 On ch=4 n=c5 v=0
524760 On ch=4 n=f#5 v=89
524838 On ch=4 n=f#5 v=0
525000 On ch=4 n=f#5 v=89
525078 On ch=4 n=f#5 v=0
525240 On ch=4 n=a5 v=88
525318 On ch=4 n=a5 v=0
525480 On ch=4 n=a5 v=87
525558 On ch=4 n=a5 v=0
525720 On ch=4 n=c6 v=86
525798 On ch=4 n=c6 v=0
525960 On ch=4 n=c6 v=85
526038 On ch=4 n=c6 v=0
526200 On ch=4 n=f#6 v=84
526278 On ch=4 n=f#6 v=0
526440 On ch=4 n=f#6 v=83
526518 On ch=4 n=f#6 v=0
526680 On ch=4 n=a6 v=82
526758 On ch=4 n=a6 v=0
526920 On ch=4 n=a6 v=81
526998 On ch=4 n=a6 v=0
527160 On ch=4 n=c7 v=80
527238 On ch=4 n=c7 v=0
527400 On ch=4 n=c7 v=79
527478 On ch=4 n=c7 v=0
527640 On ch=4 n=f#7 v=78
527718 On ch=4 n=f#7 v=0
527880 On ch=4 n=f#7 v=77
527958 On ch=4 n=f#7 v=0
528120 On ch=4 n=a7 v=76
528198 On ch=4 n=a7 v=0
528360 On ch=4 n=a7 v=75
528438 On ch=4 n=a7 v=0
528600 On ch=4 n=f#7 v=74
528678 On ch=4 n=f#7 v=0
528840 On ch=4 n=f#7 v=73
528918 On ch=4 n=f#7 v=0
529080 On ch=4 n=c7 v=72
529158 On ch=4 n=c7 v=0
529320 On ch=4 n=a7 v=71
529398 On ch=4 n=a7 v=0
529560 On ch=4 n=a6 v=70
529638 On ch=4 n=a6 v=0
529800 On ch=4 n=f#7 v=69
529878 On ch=4 n=f#7 v=0
530040 On ch=4 n=a6 v=68
530118 On ch=4 n=a6 v=0
530280 On ch=4 n=c7 v=67
530358 On ch=4 n=c7 v=0
530520 On ch=4 n=f#6 v=66
530598 On ch=4 n=f#6 v=0
530760 On ch=4 n=c7 v=65
530838 On ch=4 n=c7 v=0
531000 On ch=4 n=c6 v=64
531078 On ch=4 n=c6 v=0
531240 On ch=4 n=c7 v=63
531318 On ch=4 n=c7 v=0
531480 On ch=4 n=a5 v=62
531558 On ch=4 n=a5 v=0
531720 On ch=4 n=c7 v=61
531798 On ch=4 n=c7 v=0
531960 On ch=4 n=f#5 v=60
532038 On ch=4 n=f#5 v=0
532200 On ch=4 n=c7 v=59
532278 On ch=4 n=c7 v=0
532440 On ch=4 n=a5 v=59
532518 On ch=4 n=a5 v=0
532680 On ch=4 n=c7 v=58
532758 On ch=4 n=c7 v=0
532920 On ch=4 n=f#5 v=57
532998 On ch=4 n=f#5 v=0
533160 On ch=4 n=c7 v=56
533238 On ch=4 n=c7 v=0
533400 On ch=4 n=a6 v=55
533478 On ch=4 n=a6 v=0
533640 On ch=4 n=c6 v=54
533718 On ch=4 n=c6 v=0
533880 On ch=4 n=f#6 v=53
533958 On ch=4 n=f#6 v=0
534120 On ch=4 n=c6 v=52
534198 On ch=4 n=c6 v=0
534360 On ch=4 n=a6 v=51
534438 On ch=4 n=a6 v=0
534600 On ch=4 n=c6 v=50
534678 On ch=4 n=c6 v=0
534840 On ch=4 n=f#6 v=49
534918 On ch=4 n=f#6 v=0
535080 On ch=4 n=c6 v=48
535158 On ch=4 n=c6 v=0
535320 On ch=4 n=a6 v=47
535398 On ch=4 n=a6 v=0
535560 On ch=4 n=c6 v=46
535638 On ch=4 n=c6 v=0
535800 On ch=4 n=f#6 v=45
535878 On ch=4 n=f#6 v=0
536040 On ch=4 n=c6 v=44
536118 On ch=4 n=c6 v=0
536280 On ch=4 n=a6 v=43
536358 On ch=4 n=a6 v=0
536520 On ch=4 n=c6 v=42
536598 On ch=4 n=c6 v=0
536760 On ch=4 n=f#6 v=41
536838 On ch=4 n=f#6 v=0
537000 On ch=4 n=c6 v=40
537078 On ch=4 n=c6 v=0
537240 On ch=4 n=a6 v=39
537318 On ch=4 n=a6 v=0
537480 On ch=4 n=c6 v=38
537558 On ch=4 n=c6 v=0
537720 On ch=4 n=a5 v=37
537798 On ch=4 n=a5 v=0
537960 On ch=4 n=a6 v=36
538038 On ch=4 n=a6 v=0
538200 On ch=4 n=c6 v=35
538278 On ch=4 n=c6 v=0
538440 On ch=4 n=c7 v=34
538518 On ch=4 n=c7 v=0
538680 On ch=4 n=a5 v=33
538758 On ch=4 n=a5 v=0
538920 On ch=4 n=a6 v=32
538998 On ch=4 n=a6 v=0
539160 On ch=4 n=c6 v=31
539238 On ch=4 n=c6 v=0
539400 On ch=4 n=c7 v=30
539478 On ch=4 n=c7 v=0
572280 On ch=4 n=f#5 v=84
572358 On ch=4 n=f#5 v=0
572520 On ch=4 n=f#5 v=82
572598 On ch=4 n=f#5 v=0
572760 On ch=4 n=f#5 v=79
572838 On ch=4 n=f#5 v=0
573000 On ch=4 n=f#5 v=77
573078 On ch=4 n=f#5 v=0
573240 On ch=4 n=f#5 v=79
573318 On ch=4 n=f#5 v=0
573480 On ch=4 n=b5 v=83
573558 On ch=4 n=b5 v=0
573720 On ch=4 n=b5 v=86
573798 On ch=4 n=b5 v=0
573960 On ch=4 n=c#6 v=90
574038 On ch=4 n=c#6 v=0
574200 On ch=4 n=f#6 v=94
574278 On ch=4 n=f#6 v=0
574440 On ch=4 n=f#6 v=93
574518 On ch=4 n=f#6 v=0
574680 On ch=4 n=f#6 v=91
574758 On ch=4 n=f#6 v=0
574920 On ch=4 n=f#6 v=89
574998 On ch=4 n=f#6 v=0
575160 On ch=4 n=f#6 v=90
575238 On ch=4 n=f#6 v=0
575400 On ch=4 n=b6 v=93
575478 On ch=4 n=b6 v=0
575640 On ch=4 n=b6 v=96
575718 On ch=4 n=b6 v=0
575880 On ch=4 n=c#7 v=99
575958 On ch=4 n=c#7 v=0
576120 On ch=4 n=a#6 v=102
576198 On ch=4 n=a#6 v=0
576360 On ch=4 n=c#7 v=105
576438 On ch=4 n=c#7 v=0
576600 On ch=4 n=a#6 v=108
576720 On ch=4 n=a#6 v=0
576720 On ch=4 n=g#6 v=110
576840 On ch=4 n=g#6 v=0
576840 On ch=4 n=f7 v=111
576960 On ch=4 n=f7 v=0
576960 On ch=4 n=a#6 v=113
577116 On ch=4 n=a#6 v=0
577116 Meta TrkEnd
TrkEnd
MTrk
0 SeqSpec 43 00 01 00
0 Meta TrkName "No Name"
0 Par ch=5 c=0 v=0
0 Par ch=5 c=32 v=0
0 PrCh ch=5 p=0
0 Par ch=5 c=10 v=55
0 Par ch=5 c=91 v=100
0 Par ch=5 c=93 v=28
0 Par ch=5 c=64 v=0
0 Par ch=5 c=1 v=0
0 Pb ch=5 v=8192
0 Par ch=5 c=7 v=120
8160 On ch=5 n=a#4 v=41
8624 On ch=5 n=a#4 v=0
8640 On ch=5 n=b4 v=43
9104 On ch=5 n=b4 v=0
9120 On ch=5 n=a#4 v=44
9584 On ch=5 n=a#4 v=0
9600 On ch=5 n=g#4 v=47
10064 On ch=5 n=g#4 v=0
10080 On ch=5 n=g#4 v=43
10544 On ch=5 n=g#4 v=0
10560 On ch=5 n=g#4 v=41
11024 On ch=5 n=g#4 v=0
11040 On ch=5 n=f4 v=38
11520 On ch=5 n=f4 v=0
12000 On ch=5 n=b3 v=41
12480 On ch=5 n=a#3 v=45
12496 On ch=5 n=b3 v=0
12960 On ch=5 n=d#4 v=49
12976 On ch=5 n=a#3 v=0
13440 On ch=5 n=d#4 v=0
13440 On ch=5 n=c#4 v=55
13904 On ch=5 n=c#4 v=0
13920 On ch=5 n=b3 v=51
14384 On ch=5 n=b3 v=0
14400 On ch=5 n=a#3 v=46
14864 On ch=5 n=a#3 v=0
21120 On ch=5 n=c#5 v=53
21120 On ch=5 n=a#4 v=51
21600 On ch=5 n=a#4 v=0
21600 On ch=5 n=c#5 v=0
21600 On ch=5 n=c#5 v=49
21600 On ch=5 n=f5 v=49
21600 On ch=5 n=g#4 v=46
22080 On ch=5 n=g#4 v=0
22080 On ch=5 n=f5 v=0
22080 On ch=5 n=c#5 v=0
22080 On ch=5 n=c#5 v=45
22080 On ch=5 n=f#5 v=45
22080 On ch=5 n=f#4 v=41
22560 On ch=5 n=f#4 v=0
22560 On ch=5 n=f#5 v=0
22560 On ch=5 n=c#5 v=0
23040 On ch=5 n=c#5 v=44
23040 On ch=5 n=f#5 v=44
23040 On ch=5 n=a#4 v=40
23520 On ch=5 n=a#4 v=0
23520 On ch=5 n=f#5 v=0
23520 On ch=5 n=c#5 v=0
24000 On ch=5 n=g#5 v=47
24000 On ch=5 n=d#5 v=47
24000 On ch=5 n=g#4 v=44
24480 On ch=5 n=g#4 v=0
24480 On ch=5 n=d#5 v=0
24480 On ch=5 n=g#5 v=0
24960 On ch=5 n=f5 v=51
24960 On ch=5 n=c#5 v=51
25440 On ch=5 n=c#5 v=0
25440 On ch=5 n=f5 v=0
25440 On ch=5 n=f#5 v=49
25440 On ch=5 n=c#5 v=49
25920 On ch=5 n=c#5 v=0
25920 On ch=5 n=f#5 v=0
25920 On ch=5 n=g#5 v=45
25920 On ch=5 n=c#5 v=45
26400 On ch=5 n=c#5 v=0
26400 On ch=5 n=g#5 v=0
26880 On ch=5 n=c#5 v=47
26880 On ch=5 n=g#5 v=47
26880 On ch=5 n=b4 v=44
26880 On ch=5 n=g#4 v=44
27360 On ch=5 n=g#4 v=0
27360 On ch=5 n=b4 v=0
27360 On ch=5 n=g#5 v=0
27360 On ch=5 n=c#5 v=0
27840 On ch=5 n=c#5 v=50
27840 On ch=5 n=g#5 v=50
27840 On ch=5 n=f5 v=50
27840 On ch=5 n=f4 v=47
27840 On ch=5 n=b4 v=47
27840 On ch=5 n=g#4 v=47
28320 On ch=5 n=g#4 v=0
28320 On ch=5 n=b4 v=0
28320 On ch=5 n=f4 v=0
28320 On ch=5 n=f5 v=0
28320 On ch=5 n=g#5 v=0
28320 On ch=5 n=c#5 v=0
28800 On ch=5 n=f#5 v=54
28800 On ch=5 n=c#5 v=54
28800 On ch=5 n=a#4 v=50
29280 On ch=5 n=a#4 v=0
29280 On ch=5 n=c#5 v=0
29280 On ch=5 n=f#5 v=0
30240 On ch=5 n=a#5 v=58
30720 On ch=5 n=a#5 v=0
30720 On ch=5 n=b5 v=64
32160 On ch=5 n=b5 v=0
32160 On ch=5 n=b5 v=67
32640 On ch=5 n=b5 v=0
32640 On ch=5 n=a#5 v=61
33600 On ch=5 n=a#5 v=0
33600 On ch=5 n=g#5 v=58
34080 On ch=5 n=g#5 v=0
34080 On ch=5 n=g#5 v=58
34080 On ch=5 n=f5 v=58
34560 On ch=5 n=f5 v=0
34560 On ch=5 n=g#5 v=0
34560 On ch=5 n=f#5 v=57
34560 On ch=5 n=d#5 v=57
35040 On ch=5 n=d#5 v=0
35040 On ch=5 n=f#5 v=0
35040 On ch=5 n=d5 v=57
35040 On ch=5 n=f5 v=57
35520 On ch=5 n=f5 v=0
35520 On ch=5 n=d5 v=0
35520 On ch=5 n=a#4 v=56
35520 On ch=5 n=d#5 v=56
36000 On ch=5 n=d#5 v=0
36000 On ch=5 n=a#4 v=0
36000 On ch=5 n=a#4 v=56
36000 On ch=5 n=d#5 v=56
36480 On ch=5 n=d#5 v=0
36480 On ch=5 n=a#4 v=0
36480 On ch=5 n=a4 v=64
36480 On ch=5 n=d#5 v=64
36960 On ch=5 n=d#5 v=0
36960 On ch=5 n=a4 v=0
36960 On ch=5 n=d#5 v=55
36960 On ch=5 n=g#4 v=55
37440 On ch=5 n=g#4 v=0
37440 On ch=5 n=d#5 v=0
37440 On ch=5 n=a4 v=62
37440 On ch=5 n=d#5 v=62
37920 On ch=5 n=d#5 v=0
37920 On ch=5 n=a4 v=0
37920 On ch=5 n=g#4 v=54
37920 On ch=5 n=d#5 v=54
38400 On ch=5 n=d#5 v=0
38400 On ch=5 n=g#4 v=0
38400 On ch=5 n=d#5 v=59
38400 On ch=5 n=a4 v=59
38880 On ch=5 n=a4 v=0
38880 On ch=5 n=d#5 v=0
38880 On ch=5 n=d#5 v=53
38880 On ch=5 n=g#4 v=53
39360 On ch=5 n=g#4 v=0
39360 On ch=5 n=d#5 v=0
39840 On ch=5 n=a#4 v=52
39840 On ch=5 n=d#5 v=52
40320 On ch=5 n=d#5 v=0
40320 On ch=5 n=a#4 v=0
40320 On ch=5 n=a4 v=59
40320 On ch=5 n=d#5 v=59
40800 On ch=5 n=d#5 v=0
40800 On ch=5 n=a4 v=0
40800 On ch=5 n=g#4 v=51
40800 On ch=5 n=d#5 v=51
41280 On ch=5 n=d#5 v=0
41280 On ch=5 n=g#4 v=0
41280 On ch=5 n=a4 v=58
41280 On ch=5 n=d#5 v=58
41760 On ch=5 n=d#5 v=0
41760 On ch=5 n=a4 v=0
41760 On ch=5 n=g#4 v=50
41760 On ch=5 n=d#5 v=50
42240 On ch=5 n=d#5 v=0
42240 On ch=5 n=g#4 v=0
42240 On ch=5 n=d#5 v=56
42240 On ch=5 n=a4 v=56
42720 On ch=5 n=a4 v=0
42720 On ch=5 n=d#5 v=0
42720 On ch=5 n=g#4 v=49
42720 On ch=5 n=d#5 v=49
43200 On ch=5 n=d#5 v=0
43200 On ch=5 n=g#4 v=0
43680 On ch=5 n=a#4 v=48
43680 On ch=5 n=d#5 v=48
44160 On ch=5 n=d#5 v=0
44160 On ch=5 n=a#4 v=0
44160 On ch=5 n=g#4 v=48
44160 On ch=5 n=d#5 v=48
44640 On ch=5 n=d#5 v=0
44640 On ch=5 n=g#4 v=0
44640 On ch=5 n=c#5 v=52
44640 On ch=5 n=g#4 v=52
45120 On ch=5 n=g#4 v=0
45120 On ch=5 n=c#5 v=0
45120 On ch=5 n=c#5 v=55
45120 On ch=5 n=g#4 v=55
45600 On ch=5 n=g#4 v=0
45600 On ch=5 n=c#5 v=0
45600 On ch=5 n=g#4 v=57
45600 On ch=5 n=c#5 v=57
46080 On ch=5 n=c#5 v=0
46080 On ch=5 n=g#4 v=0
46080 On ch=5 n=g4 v=60
46080 On ch=5 n=c#5 v=60
46560 On ch=5 n=c#5 v=0
46560 On ch=5 n=g4 v=0
46560 On ch=5 n=c#5 v=63
46560 On ch=5 n=g4 v=63
47040 On ch=5 n=g4 v=0
47040 On ch=5 n=c#5 v=0
47040 On ch=5 n=c#5 v=65
47040 On ch=5 n=g4 v=65
47520 On ch=5 n=g4 v=0
47520 On ch=5 n=c#5 v=0
47520 On ch=5 n=c#5 v=68
47520 On ch=5 n=g4 v=68
48000 On ch=5 n=g4 v=0
48000 On ch=5 n=c#5 v=0
58560 On ch=5 n=f5 v=81
59040 On ch=5 n=f5 v=0
59040 On ch=5 n=d#5 v=78
59520 On ch=5 n=d#5 v=0
59520 On ch=5 n=d#5 v=74
60480 On ch=5 n=d#5 v=0
60480 On ch=5 n=d#4 v=56
60480 On ch=5 n=f#4 v=56
61440 On ch=5 n=f#4 v=0
61440 On ch=5 n=d#4 v=0
61440 On ch=5 n=f4 v=58
61920 On ch=5 n=f4 v=0
62400 On ch=5 n=f6 v=93
62880 On ch=5 n=f6 v=0
62880 On ch=5 n=d#6 v=90
63360 On ch=5 n=d#6 v=0
63360 On ch=5 n=d#6 v=82
64320 On ch=5 n=d#6 v=0
64320 On ch=5 n=d#5 v=56
64320 On ch=5 n=f#5 v=56
65280 On ch=5 n=f#5 v=0
65280 On ch=5 n=d#5 v=0
65280 On ch=5 n=f5 v=53
65760 On ch=5 n=f5 v=0
66240 On ch=5 n=d#4 v=56
66240 On ch=5 n=f#4 v=49
67200 On ch=5 n=f#4 v=0
67200 On ch=5 n=d#4 v=0
67200 On ch=5 n=f4 v=46
67680 On ch=5 n=f4 v=0
73440 On ch=5 n=a#4 v=41
73904 On ch=5 n=a#4 v=0
73920 On ch=5 n=b4 v=43
74384 On ch=5 n=b4 v=0
74400 On ch=5 n=a#4 v=44
74864 On ch=5 n=a#4 v=0
74880 On ch=5 n=g#4 v=47
75344 On ch=5 n=g#4 v=0
75360 On ch=5 n=g#4 v=43
75824 On ch=5 n=g#4 v=0
75840 On ch=5 n=g#4 v=41
76304 On ch=5 n=g#4 v=0
76320 On ch=5 n=f4 v=38
76800 On ch=5 n=f4 v=0
77280 On ch=5 n=b3 v=41
77760 On ch=5 n=a#3 v=45
77776 On ch=5 n=b3 v=0
78256 On ch=5 n=a#3 v=0
78720 On ch=5 n=c#4 v=55
79184 On ch=5 n=c#4 v=0
79200 On ch=5 n=b3 v=51
79664 On ch=5 n=b3 v=0
79680 On ch=5 n=a#3 v=46
80144 On ch=5 n=a#3 v=0
86400 On ch=5 n=a#4 v=51
86400 On ch=5 n=c#5 v=53
86880 On ch=5 n=c#5 v=0
86880 On ch=5 n=a#4 v=0
86880 On ch=5 n=g#4 v=46
86880 On ch=5 n=f5 v=49
86880 On ch=5 n=c#5 v=49
87360 On ch=5 n=c#5 v=0
87360 On ch=5 n=f5 v=0
87360 On ch=5 n=g#4 v=0
87360 On ch=5 n=f#4 v=41
87360 On ch=5 n=f#5 v=45
87360 On ch=5 n=c#5 v=45
87840 On ch=5 n=c#5 v=0
87840 On ch=5 n=f#5 v=0
87840 On ch=5 n=f#4 v=0
88320 On ch=5 n=a#4 v=40
88320 On ch=5 n=f#5 v=44
88320 On ch=5 n=c#5 v=44
88800 On ch=5 n=c#5 v=0
88800 On ch=5 n=f#5 v=0
88800 On ch=5 n=a#4 v=0
89280 On ch=5 n=g#4 v=44
89280 On ch=5 n=d#5 v=47
89280 On ch=5 n=g#5 v=47
89760 On ch=5 n=g#5 v=0
89760 On ch=5 n=d#5 v=0
89760 On ch=5 n=g#4 v=0
90240 On ch=5 n=c#5 v=51
90240 On ch=5 n=f5 v=51
90720 On ch=5 n=f5 v=0
90720 On ch=5 n=c#5 v=0
90720 On ch=5 n=c#5 v=49
90720 On ch=5 n=f#5 v=49
91200 On ch=5 n=f#5 v=0
91200 On ch=5 n=c#5 v=0
91200 On ch=5 n=c#5 v=45
91200 On ch=5 n=g#5 v=45
91680 On ch=5 n=g#5 v=0
91680 On ch=5 n=c#5 v=0
92160 On ch=5 n=g#4 v=44
92160 On ch=5 n=b4 v=44
92160 On ch=5 n=g#5 v=47
92160 On ch=5 n=c#5 v=47
92640 On ch=5 n=c#5 v=0
92640 On ch=5 n=g#5 v=0
92640 On ch=5 n=b4 v=0
92640 On ch=5 n=g#4 v=0
93120 On ch=5 n=g#4 v=47
93120 On ch=5 n=b4 v=47
93120 On ch=5 n=f4 v=47
93120 On ch=5 n=f5 v=50
93120 On ch=5 n=g#5 v=50
93120 On ch=5 n=c#5 v=50
93600 On ch=5 n=c#5 v=0
93600 On ch=5 n=g#5 v=0
93600 On ch=5 n=f5 v=0
93600 On ch=5 n=f4 v=0
93600 On ch=5 n=b4 v=0
93600 On ch=5 n=g#4 v=0
94080 On ch=5 n=a#4 v=50
94080 On ch=5 n=c#5 v=54
94080 On ch=5 n=f#5 v=54
94560 On ch=5 n=f#5 v=0
94560 On ch=5 n=c#5 v=0
94560 On ch=5 n=a#4 v=0
95520 On ch=5 n=a#5 v=58
96000 On ch=5 n=a#5 v=0
96000 On ch=5 n=b5 v=64
97440 On ch=5 n=b5 v=0
97440 On ch=5 n=b5 v=67
97920 On ch=5 n=b5 v=0
97920 On ch=5 n=a#5 v=61
98880 On ch=5 n=a#5 v=0
98880 On ch=5 n=g#5 v=58
99360 On ch=5 n=g#5 v=0
99360 On ch=5 n=g#5 v=58
99360 On ch=5 n=f5 v=58
99840 On ch=5 n=f5 v=0
99840 On ch=5 n=g#5 v=0
99840 On ch=5 n=d#5 v=57
99840 On ch=5 n=f#5 v=57
100320 On ch=5 n=f#5 v=0
100320 On ch=5 n=d#5 v=0
100320 On ch=5 n=f5 v=57
100320 On ch=5 n=d5 v=57
100800 On ch=5 n=d5 v=0
100800 On ch=5 n=f5 v=0
100800 On ch=5 n=d#5 v=56
100800 On ch=5 n=a#4 v=56
101280 On ch=5 n=a#4 v=0
101280 On ch=5 n=d#5 v=0
101280 On ch=5 n=d#5 v=56
101280 On ch=5 n=a#4 v=56
101760 On ch=5 n=a#4 v=0
101760 On ch=5 n=d#5 v=0
101760 On ch=5 n=d#5 v=64
101760 On ch=5 n=a4 v=64
102240 On ch=5 n=a4 v=0
102240 On ch=5 n=d#5 v=0
102240 On ch=5 n=g#4 v=55
102240 On ch=5 n=d#5 v=55
102720 On ch=5 n=d#5 v=0
102720 On ch=5 n=g#4 v=0
102720 On ch=5 n=d#5 v=62
102720 On ch=5 n=a4 v=62
103200 On ch=5 n=a4 v=0
103200 On ch=5 n=d#5 v=0
103200 On ch=5 n=d#5 v=54
103200 On ch=5 n=g#4 v=54
103680 On ch=5 n=g#4 v=0
103680 On ch=5 n=d#5 v=0
103680 On ch=5 n=a4 v=59
103680 On ch=5 n=d#5 v=59
104160 On ch=5 n=d#5 v=0
104160 On ch=5 n=a4 v=0
104160 On ch=5 n=g#4 v=53
104160 On ch=5 n=d#5 v=53
104640 On ch=5 n=d#5 v=0
104640 On ch=5 n=g#4 v=0
105120 On ch=5 n=d#5 v=52
105120 On ch=5 n=a#4 v=52
105600 On ch=5 n=a#4 v=0
105600 On ch=5 n=d#5 v=0
105600 On ch=5 n=d#5 v=59
105600 On ch=5 n=a4 v=59
106080 On ch=5 n=a4 v=0
106080 On ch=5 n=d#5 v=0
106080 On ch=5 n=d#5 v=51
106080 On ch=5 n=g#4 v=51
106560 On ch=5 n=g#4 v=0
106560 On ch=5 n=d#5 v=0
106560 On ch=5 n=d#5 v=58
106560 On ch=5 n=a4 v=58
107040 On ch=5 n=a4 v=0
107040 On ch=5 n=d#5 v=0
107040 On ch=5 n=d#5 v=50
107040 On ch=5 n=g#4 v=50
107520 On ch=5 n=g#4 v=0
107520 On ch=5 n=d#5 v=0
107520 On ch=5 n=a4 v=56
107520 On ch=5 n=d#5 v=56
108000 On ch=5 n=d#5 v=0
108000 On ch=5 n=a4 v=0
108000 On ch=5 n=d#5 v=49
108000 On ch=5 n=g#4 v=49
108480 On ch=5 n=g#4 v=0
108480 On ch=5 n=d#5 v=0
108960 On ch=5 n=d#5 v=48
108960 On ch=5 n=a#4 v=48
109440 On ch=5 n=a#4 v=0
109440 On ch=5 n=d#5 v=0
109440 On ch=5 n=d#5 v=48
109440 On ch=5 n=g#4 v=48
109920 On ch=5 n=g#4 v=0
109920 On ch=5 n=d#5 v=0
109920 On ch=5 n=g#4 v=52
109920 On ch=5 n=c#5 v=52
110400 On ch=5 n=c#5 v=0
110400 On ch=5 n=g#4 v=0
110400 On ch=5 n=g#4 v=55
110400 On ch=5 n=c#5 v=55
110880 On ch=5 n=c#5 v=0
110880 On ch=5 n=g#4 v=0
110880 On ch=5 n=c#5 v=57
110880 On ch=5 n=g#4 v=57
111360 On ch=5 n=g#4 v=0
111360 On ch=5 n=c#5 v=0
111360 On ch=5 n=c#5 v=60
111360 On ch=5 n=g4 v=60
111840 On ch=5 n=g4 v=0
111840 On ch=5 n=c#5 v=0
111840 On ch=5 n=g4 v=63
111840 On ch=5 n=c#5 v=63
112320 On ch=5 n=c#5 v=0
112320 On ch=5 n=g4 v=0
112320 On ch=5 n=g4 v=65
112320 On ch=5 n=c#5 v=65
112800 On ch=5 n=c#5 v=0
112800 On ch=5 n=g4 v=0
112800 On ch=5 n=g4 v=68
112800 On ch=5 n=c#5 v=68
113280 On ch=5 n=c#5 v=0
113280 On ch=5 n=g4 v=0
123840 On ch=5 n=f5 v=81
124320 On ch=5 n=f5 v=0
124320 On ch=5 n=d#5 v=78
124800 On ch=5 n=d#5 v=0
124800 On ch=5 n=d#5 v=74
125760 On ch=5 n=d#5 v=0
125760 On ch=5 n=d#4 v=56
125760 On ch=5 n=f#4 v=56
126720 On ch=5 n=f#4 v=0
126720 On ch=5 n=d#4 v=0
126720 On ch=5 n=f4 v=58
127200 On ch=5 n=f4 v=0
127680 On ch=5 n=f6 v=93
128160 On ch=5 n=f6 v=0
128160 On ch=5 n=d#6 v=90
128640 On ch=5 n=d#6 v=0
128640 On ch=5 n=d#6 v=82
129600 On ch=5 n=d#6 v=0
129600 On ch=5 n=f#5 v=56
129600 On ch=5 n=d#5 v=56
130560 On ch=5 n=d#5 v=0
130560 On ch=5 n=f#5 v=0
130560 On ch=5 n=f5 v=53
131040 On ch=5 n=f5 v=0
131520 On ch=5 n=d#4 v=56
131520 On ch=5 n=f#4 v=49
132480 On ch=5 n=f#4 v=0
132480 On ch=5 n=d#4 v=0
132480 On ch=5 n=f4 v=46
132960 On ch=5 n=f4 v=0
136800 Par ch=5 c=64 v=0
138000 Par ch=5 c=64 v=0
138720 On ch=5 n=a4 v=48
139184 On ch=5 n=a4 v=0
139200 On ch=5 n=b4 v=49
139664 On ch=5 n=b4 v=0
139680 On ch=5 n=a4 v=50
140144 On ch=5 n=a4 v=0
140640 On ch=5 n=b4 v=51
141104 On ch=5 n=b4 v=0
141120 On ch=5 n=b4 v=52
141584 On ch=5 n=b4 v=0
141600 On ch=5 n=a4 v=54
142064 On ch=5 n=a4 v=0
142080 On ch=5 n=g#4 v=56
142544 On ch=5 n=g#4 v=0
142560 On ch=5 n=f#4 v=54
143040 On ch=5 n=f#4 v=0
143280 On ch=5 n=e4 v=50
143744 On ch=5 n=e4 v=0
143760 On ch=5 n=g#4 v=48
144000 On ch=5 n=g#4 v=0
144000 On ch=5 n=a4 v=46
144480 On ch=5 n=a4 v=0
147840 On ch=5 n=b4 v=76
148080 On ch=5 n=b4 v=0
148080 On ch=5 n=b4 v=66
148320 On ch=5 n=b4 v=0
148320 On ch=5 n=b4 v=67
148560 On ch=5 n=b4 v=0
148560 On ch=5 n=b4 v=68
148800 On ch=5 n=b4 v=0
148800 On ch=5 n=c#5 v=69
149040 On ch=5 n=c#5 v=0
149040 On ch=5 n=c#5 v=69
149280 On ch=5 n=c#5 v=0
149280 On ch=5 n=b4 v=70
149520 On ch=5 n=b4 v=0
149520 On ch=5 n=b4 v=71
149760 On ch=5 n=b4 v=0
149760 On ch=5 n=f5 v=59
150240 On ch=5 n=f5 v=0
173280 On ch=5 n=a#4 v=47
173712 On ch=5 n=a#4 v=0
173760 On ch=5 n=b4 v=48
174192 On ch=5 n=b4 v=0
174240 On ch=5 n=a#4 v=49
174672 On ch=5 n=a#4 v=0
174720 On ch=5 n=g#4 v=49
175152 On ch=5 n=g#4 v=0
175200 On ch=5 n=g#4 v=45
175632 On ch=5 n=g#4 v=0
175680 On ch=5 n=g#4 v=46
176112 On ch=5 n=g#4 v=0
176160 On ch=5 n=f4 v=48
176592 On ch=5 n=f4 v=0
177120 On ch=5 n=b3 v=54
177600 On ch=5 n=b3 v=0
177600 On ch=5 n=a#3 v=55
178080 On ch=5 n=a#3 v=0
178560 On ch=5 n=c#4 v=57
179040 On ch=5 n=c#4 v=0
179040 On ch=5 n=b3 v=52
179520 On ch=5 n=b3 v=0
179520 On ch=5 n=a#3 v=47
180000 On ch=5 n=a#3 v=0
187680 On ch=5 n=b3 v=81
187680 On ch=5 n=e4 v=81
187680 On ch=5 n=g#4 v=81
188160 On ch=5 n=g#4 v=0
188160 On ch=5 n=e4 v=0
188160 On ch=5 n=b3 v=0
188160 On ch=5 n=c#4 v=83
188160 On ch=5 n=a4 v=83
188160 On ch=5 n=f#4 v=83
189120 On ch=5 n=f#4 v=0
189120 On ch=5 n=a4 v=0
189120 On ch=5 n=c#4 v=0
189120 On ch=5 n=b4 v=88
189120 On ch=5 n=f#4 v=88
189120 On ch=5 n=a4 v=88
190080 On ch=5 n=a4 v=0
190080 On ch=5 n=f#4 v=0
190080 On ch=5 n=b4 v=0
190080 On ch=5 n=b5 v=92
190080 On ch=5 n=g#5 v=92
190080 On ch=5 n=g#4 v=92
190080 On ch=5 n=b4 v=92
190560 On ch=5 n=b4 v=0
190560 On ch=5 n=g#4 v=0
190560 On ch=5 n=g#5 v=0
190560 On ch=5 n=b5 v=0
190560 On ch=5 n=b5 v=87
190560 On ch=5 n=d#6 v=87
190560 On ch=5 n=b4 v=87
190560 On ch=5 n=f#4 v=87
191040 On ch=5 n=f#4 v=0
191040 On ch=5 n=b4 v=0
191040 On ch=5 n=d#6 v=0
191040 On ch=5 n=b5 v=0
191040 On ch=5 n=e6 v=82
191040 On ch=5 n=b5 v=82
191040 On ch=5 n=g#3 v=82
191040 On ch=5 n=b3 v=82
191040 On ch=5 n=e4 v=82
191520 On ch=5 n=e4 v=0
191520 On ch=5 n=b3 v=0
191520 On ch=5 n=g#3 v=0
191520 On ch=5 n=b5 v=0
191520 On ch=5 n=e6 v=0
192000 On ch=5 n=e5 v=44
192000 On ch=5 n=b4 v=44
192000 On ch=5 n=g#4 v=45
192480 On ch=5 n=g#4 v=0
192480 On ch=5 n=b4 v=0
192480 On ch=5 n=e5 v=0
192960 On ch=5 n=c#5 v=45
192960 On ch=5 n=f#5 v=45
192960 On ch=5 n=c#4 v=46
192960 On ch=5 n=f#4 v=46
193440 On ch=5 n=f#4 v=0
193440 On ch=5 n=c#4 v=0
193440 On ch=5 n=f#5 v=0
193440 On ch=5 n=c#5 v=0
193920 On ch=5 n=b5 v=61
193920 On ch=5 n=d#6 v=61
193920 On ch=5 n=d#5 v=60
193920 On ch=5 n=f#5 v=60
194400 On ch=5 n=f#5 v=0
194400 On ch=5 n=d#5 v=0
194400 On ch=5 n=d#6 v=0
194400 On ch=5 n=b5 v=0
194400 On ch=5 n=b5 v=58
194400 On ch=5 n=f6 v=58
194400 On ch=5 n=c#6 v=58
194400 On ch=5 n=c#5 v=58
194400 On ch=5 n=b4 v=58
194400 On ch=5 n=f5 v=58
194880 On ch=5 n=f5 v=0
194880 On ch=5 n=b4 v=0
194880 On ch=5 n=c#5 v=0
194880 On ch=5 n=c#6 v=0
194880 On ch=5 n=f6 v=0
194880 On ch=5 n=b5 v=0
194880 On ch=5 n=a5 v=55
194880 On ch=5 n=f#6 v=55
194880 On ch=5 n=c#6 v=55
194880 On ch=5 n=c#5 v=55
194880 On ch=5 n=a4 v=55
194880 On ch=5 n=f#5 v=55
195360 On ch=5 n=f#5 v=0
195360 On ch=5 n=a4 v=0
195360 On ch=5 n=c#5 v=0
195360 On ch=5 n=c#6 v=0
195360 On ch=5 n=f#6 v=0
195360 On ch=5 n=a5 v=0
195840 On ch=5 n=c#5 v=49
195840 On ch=5 n=f#5 v=49
195840 On ch=5 n=a4 v=50
196320 On ch=5 n=a4 v=0
196320 On ch=5 n=f#5 v=0
196320 On ch=5 n=c#5 v=0
196800 On ch=5 n=g#5 v=51
196800 On ch=5 n=d5 v=51
196800 On ch=5 n=g#4 v=51
197280 On ch=5 n=g#4 v=0
197280 On ch=5 n=d5 v=0
197280 On ch=5 n=g#5 v=0
197760 On ch=5 n=b5 v=66
197760 On ch=5 n=c#6 v=66
197760 On ch=5 n=f6 v=66
197760 On ch=5 n=f5 v=68
198240 On ch=5 n=f5 v=0
198240 On ch=5 n=f6 v=0
198240 On ch=5 n=c#6 v=0
198240 On ch=5 n=b5 v=0
198240 On ch=5 n=e6 v=64
198240 On ch=5 n=a#5 v=64
198240 On ch=5 n=c#6 v=64
198240 On ch=5 n=c#5 v=64
198240 On ch=5 n=e5 v=64
198720 On ch=5 n=e5 v=0
198720 On ch=5 n=c#5 v=0
198720 On ch=5 n=c#6 v=0
198720 On ch=5 n=a#5 v=0
198720 On ch=5 n=e6 v=0
198720 On ch=5 n=b5 v=61
198720 On ch=5 n=d6 v=61
198720 On ch=5 n=d5 v=59
199200 On ch=5 n=d5 v=0
199200 On ch=5 n=d6 v=0
199200 On ch=5 n=b5 v=0
199680 On ch=5 n=f#5 v=55
199680 On ch=5 n=b5 v=55
199680 On ch=5 n=d5 v=56
200160 On ch=5 n=d5 v=0
200160 On ch=5 n=b5 v=0
200160 On ch=5 n=f#5 v=0
200640 On ch=5 n=c#6 v=56
200640 On ch=5 n=g5 v=56
200640 On ch=5 n=g4 v=57
200640 On ch=5 n=c#5 v=57
201120 On ch=5 n=c#5 v=0
201120 On ch=5 n=g4 v=0
201120 On ch=5 n=g5 v=0
201120 On ch=5 n=c#6 v=0
201600 On ch=5 n=a#5 v=73
201600 On ch=5 n=c#6 v=73
201600 On ch=5 n=e6 v=73
201600 On ch=5 n=a#4 v=74
201600 On ch=5 n=c#5 v=74
202080 On ch=5 n=c#5 v=0
202080 On ch=5 n=a#4 v=0
202080 On ch=5 n=e6 v=0
202080 On ch=5 n=c#6 v=0
202080 On ch=5 n=a#5 v=0
202080 On ch=5 n=b5 v=70
202080 On ch=5 n=f#4 v=71
202080 On ch=5 n=b4 v=71
202560 On ch=5 n=b4 v=0
202560 On ch=5 n=f#4 v=0
202560 On ch=5 n=b5 v=0
202560 On ch=5 n=e6 v=67
202560 On ch=5 n=c#6 v=67
202560 On ch=5 n=f#4 v=65
202560 On ch=5 n=a#4 v=65
203040 On ch=5 n=a#4 v=0
203040 On ch=5 n=f#4 v=0
203040 On ch=5 n=c#6 v=0
203040 On ch=5 n=e6 v=0
203520 On ch=5 n=a#5 v=60
203520 On ch=5 n=e5 v=61
204000 On ch=5 n=e5 v=0
204000 On ch=5 n=a#5 v=0
204000 On ch=5 n=b5 v=61
204000 On ch=5 n=d#5 v=62
204480 On ch=5 n=d#5 v=0
204480 On ch=5 n=b5 v=0
204480 On ch=5 n=c#6 v=61
204480 On ch=5 n=c#5 v=62
204960 On ch=5 n=c#5 v=0
204960 On ch=5 n=c#6 v=0
205440 On ch=5 n=f#5 v=63
205440 On ch=5 n=a#5 v=63
205440 On ch=5 n=c#5 v=64
205920 On ch=5 n=c#5 v=0
205920 On ch=5 n=a#5 v=0
205920 On ch=5 n=f#5 v=0
206400 On ch=5 n=c#6 v=64
206400 On ch=5 n=f#5 v=64
206400 On ch=5 n=a#4 v=65
206880 On ch=5 n=a#4 v=0
206880 On ch=5 n=f#5 v=0
206880 On ch=5 n=c#6 v=0
207360 On ch=5 n=b5 v=65
207360 On ch=5 n=f#5 v=65
207360 On ch=5 n=d#5 v=67
207840 On ch=5 n=d#5 v=0
207840 On ch=5 n=f#5 v=0
207840 On ch=5 n=b5 v=0
208800 On ch=5 n=d#6 v=69
209280 On ch=5 n=d#6 v=0
209280 On ch=5 n=e6 v=76
210720 On ch=5 n=e6 v=0
210720 On ch=5 n=e6 v=75
211200 On ch=5 n=e6 v=0
211200 On ch=5 n=d#6 v=68
212160 On ch=5 n=d#6 v=0
212160 On ch=5 n=c#6 v=57
212640 On ch=5 n=c#6 v=0
212640 On ch=5 n=a#5 v=56
212640 On ch=5 n=c#6 v=56
213120 On ch=5 n=c#6 v=0
213120 On ch=5 n=a#5 v=0
213120 On ch=5 n=g#5 v=56
213120 On ch=5 n=b5 v=56
213600 On ch=5 n=b5 v=0
213600 On ch=5 n=g#5 v=0
213600 On ch=5 n=a#5 v=55
213600 On ch=5 n=g5 v=55
214080 On ch=5 n=g5 v=0
214080 On ch=5 n=a#5 v=0
214080 On ch=5 n=d#5 v=55
214080 On ch=5 n=g#5 v=55
214560 On ch=5 n=g#5 v=0
214560 On ch=5 n=d#5 v=0
214560 On ch=5 n=g#5 v=54
214560 On ch=5 n=d#5 v=54
215040 On ch=5 n=d#5 v=0
215040 On ch=5 n=g#5 v=0
215040 On ch=5 n=g#5 v=60
215040 On ch=5 n=d5 v=60
215520 On ch=5 n=d5 v=0
215520 On ch=5 n=g#5 v=0
215520 On ch=5 n=c#5 v=53
215520 On ch=5 n=g#5 v=53
216000 On ch=5 n=g#5 v=0
216000 On ch=5 n=c#5 v=0
216000 On ch=5 n=g#5 v=58
216000 On ch=5 n=d5 v=58
216480 On ch=5 n=d5 v=0
216480 On ch=5 n=g#5 v=0
216480 On ch=5 n=c#5 v=52
216480 On ch=5 n=g#5 v=52
216960 On ch=5 n=g#5 v=0
216960 On ch=5 n=c#5 v=0
216960 On ch=5 n=g#5 v=59
216960 On ch=5 n=d5 v=59
217440 On ch=5 n=d5 v=0
217440 On ch=5 n=g#5 v=0
217440 On ch=5 n=g#5 v=51
217440 On ch=5 n=c#5 v=51
217920 On ch=5 n=c#5 v=0
217920 On ch=5 n=g#5 v=0
218400 On ch=5 n=d#5 v=50
218400 On ch=5 n=g#5 v=50
218880 On ch=5 n=g#5 v=0
218880 On ch=5 n=d#5 v=0
218880 On ch=5 n=g#5 v=56
218880 On ch=5 n=d5 v=56
219360 On ch=5 n=d5 v=0
219360 On ch=5 n=g#5 v=0
219360 On ch=5 n=g#5 v=49
219360 On ch=5 n=c#5 v=49
219840 On ch=5 n=c#5 v=0
219840 On ch=5 n=g#5 v=0
219840 On ch=5 n=g#5 v=54
219840 On ch=5 n=d5 v=54
220320 On ch=5 n=d5 v=0
220320 On ch=5 n=g#5 v=0
220320 On ch=5 n=g#5 v=48
220320 On ch=5 n=c#5 v=48
220800 On ch=5 n=c#5 v=0
220800 On ch=5 n=g#5 v=0
220800 On ch=5 n=g#5 v=55
220800 On ch=5 n=d5 v=55
221280 On ch=5 n=d5 v=0
221280 On ch=5 n=g#5 v=0
221280 On ch=5 n=g#5 v=47
221280 On ch=5 n=c#5 v=47
221760 On ch=5 n=c#5 v=0
221760 On ch=5 n=g#5 v=0
222240 On ch=5 n=d#5 v=46
222240 On ch=5 n=g#5 v=46
222720 On ch=5 n=g#5 v=0
222720 On ch=5 n=d#5 v=0
222720 On ch=5 n=c#5 v=48
222720 On ch=5 n=g#5 v=48
223200 On ch=5 n=g#5 v=0
223200 On ch=5 n=c#5 v=0
223200 On ch=5 n=f#5 v=50
223200 On ch=5 n=c#5 v=50
223680 On ch=5 n=c#5 v=0
223680 On ch=5 n=f#5 v=0
223680 On ch=5 n=f#5 v=53
223680 On ch=5 n=c#5 v=53
224160 On ch=5 n=c#5 v=0
224160 On ch=5 n=f#5 v=0
224160 On ch=5 n=f#5 v=55
224160 On ch=5 n=c#5 v=55
224640 On ch=5 n=c#5 v=0
224640 On ch=5 n=f#5 v=0
224640 On ch=5 n=f#5 v=58
224640 On ch=5 n=c5 v=58
225120 On ch=5 n=c5 v=0
225120 On ch=5 n=f#5 v=0
225120 On ch=5 n=f#5 v=60
225120 On ch=5 n=c5 v=60
225600 On ch=5 n=c5 v=0
225600 On ch=5 n=f#5 v=0
225600 On ch=5 n=f#5 v=63
225600 On ch=5 n=c5 v=63
226080 On ch=5 n=c5 v=0
226080 On ch=5 n=f#5 v=0
226080 On ch=5 n=f#5 v=65
226080 On ch=5 n=c5 v=65
226560 On ch=5 n=c5 v=0
226560 On ch=5 n=f#5 v=0
237120 On ch=5 n=a#5 v=75
237120 On ch=5 n=g5 v=75
237600 On ch=5 n=g5 v=0
237600 On ch=5 n=a#5 v=0
237600 On ch=5 n=d#5 v=72
237600 On ch=5 n=g#5 v=72
237600 On ch=5 n=b4 v=72
238080 On ch=5 n=b4 v=0
238080 On ch=5 n=g#5 v=0
238080 On ch=5 n=d#5 v=0
238080 On ch=5 n=g#5 v=66
238080 On ch=5 n=f5 v=66
239040 On ch=5 n=f5 v=0
239040 On ch=5 n=g#5 v=0
239040 On ch=5 n=g#4 v=64
239040 On ch=5 n=b4 v=64
240000 On ch=5 n=b4 v=0
240000 On ch=5 n=g#4 v=0
240000 On ch=5 n=a#4 v=67
240480 On ch=5 n=a#4 v=0
240960 On ch=5 n=g5 v=79
240960 On ch=5 n=a#5 v=79
240960 On ch=5 n=c#6 v=79
241440 On ch=5 n=c#6 v=0
241440 On ch=5 n=a#5 v=0
241440 On ch=5 n=g5 v=0
241440 On ch=5 n=d#6 v=76
241440 On ch=5 n=b5 v=76
241920 On ch=5 n=b5 v=0
241920 On ch=5 n=d#6 v=0
241920 On ch=5 n=g#5 v=69
241920 On ch=5 n=f5 v=69
241920 On ch=5 n=b5 v=69
241920 On ch=5 n=c#6 v=69
242880 On ch=5 n=c#6 v=0
242880 On ch=5 n=b5 v=0
242880 On ch=5 n=f5 v=0
242880 On ch=5 n=g#5 v=0
242880 On ch=5 n=g#4 v=60
242880 On ch=5 n=b4 v=60
243840 On ch=5 n=b4 v=0
243840 On ch=5 n=g#4 v=0
243840 On ch=5 n=a#4 v=59
244320 On ch=5 n=a#4 v=0
244800 On ch=5 n=g#3 v=57
244800 On ch=5 n=b3 v=57
245760 On ch=5 n=b3 v=0
245760 On ch=5 n=g#3 v=0
245760 On ch=5 n=a#3 v=55
246240 On ch=5 n=a#3 v=0
265440 Par ch=5 c=64 v=0
266640 Par ch=5 c=64 v=0
267360 On ch=5 n=a4 v=48
267824 On ch=5 n=a4 v=0
267840 On ch=5 n=b4 v=49
268304 On ch=5 n=b4 v=0
268320 On ch=5 n=a4 v=50
268784 On ch=5 n=a4 v=0
269280 On ch=5 n=b4 v=51
269744 On ch=5 n=b4 v=0
269760 On ch=5 n=b4 v=52
270224 On ch=5 n=b4 v=0
270240 On ch=5 n=a4 v=54
270704 On ch=5 n=a4 v=0
270720 On ch=5 n=g#4 v=56
271184 On ch=5 n=g#4 v=0
271200 On ch=5 n=f#4 v=54
271440 On ch=5 n=f#4 v=0
271920 On ch=5 n=e4 v=50
272384 On ch=5 n=e4 v=0
272400 On ch=5 n=g#4 v=48
272640 On ch=5 n=g#4 v=0
272640 On ch=5 n=a4 v=46
273120 On ch=5 n=a4 v=0
276480 On ch=5 n=b4 v=76
276720 On ch=5 n=b4 v=0
276720 On ch=5 n=b4 v=66
276960 On ch=5 n=b4 v=0
276960 On ch=5 n=b4 v=67
277200 On ch=5 n=b4 v=0
277200 On ch=5 n=b4 v=68
277440 On ch=5 n=b4 v=0
277440 On ch=5 n=c#5 v=69
277680 On ch=5 n=c#5 v=0
277680 On ch=5 n=c#5 v=69
277920 On ch=5 n=c#5 v=0
277920 On ch=5 n=b4 v=70
278160 On ch=5 n=b4 v=0
278160 On ch=5 n=b4 v=71
278400 On ch=5 n=b4 v=0
278400 On ch=5 n=f5 v=59
278880 On ch=5 n=f5 v=0
301920 On ch=5 n=a#4 v=47
302352 On ch=5 n=a#4 v=0
302400 On ch=5 n=b4 v=48
302832 On ch=5 n=b4 v=0
302880 On ch=5 n=a#4 v=49
303312 On ch=5 n=a#4 v=0
303360 On ch=5 n=g#4 v=49
303792 On ch=5 n=g#4 v=0
303840 On ch=5 n=g#4 v=45
304272 On ch=5 n=g#4 v=0
304320 On ch=5 n=g#4 v=46
304752 On ch=5 n=g#4 v=0
304800 On ch=5 n=f4 v=48
305232 On ch=5 n=f4 v=0
305280 On ch=5 n=c#4 v=53
305760 On ch=5 n=c#4 v=0
305760 On ch=5 n=b3 v=54
306240 On ch=5 n=b3 v=0
306240 On ch=5 n=a#3 v=55
306720 On ch=5 n=a#3 v=0
307200 On ch=5 n=c#4 v=57
307680 On ch=5 n=c#4 v=0
307680 On ch=5 n=b3 v=52
308160 On ch=5 n=b3 v=0
308160 On ch=5 n=a#3 v=47
308640 On ch=5 n=a#3 v=0
316320 On ch=5 n=g#4 v=81
316320 On ch=5 n=e4 v=81
316320 On ch=5 n=b3 v=81
316800 On ch=5 n=b3 v=0
316800 On ch=5 n=e4 v=0
316800 On ch=5 n=g#4 v=0
316800 On ch=5 n=f#4 v=83
316800 On ch=5 n=a4 v=83
316800 On ch=5 n=c#4 v=83
317760 On ch=5 n=c#4 v=0
317760 On ch=5 n=a4 v=0
317760 On ch=5 n=f#4 v=0
317760 On ch=5 n=a4 v=88
317760 On ch=5 n=f#4 v=88
317760 On ch=5 n=b4 v=88
318720 On ch=5 n=b4 v=0
318720 On ch=5 n=f#4 v=0
318720 On ch=5 n=a4 v=0
318720 On ch=5 n=b4 v=92
318720 On ch=5 n=g#4 v=92
318720 On ch=5 n=g#5 v=92
318720 On ch=5 n=b5 v=92
319200 On ch=5 n=b5 v=0
319200 On ch=5 n=g#5 v=0
319200 On ch=5 n=g#4 v=0
319200 On ch=5 n=b4 v=0
319200 On ch=5 n=f#4 v=87
319200 On ch=5 n=b4 v=87
319200 On ch=5 n=d#6 v=87
319200 On ch=5 n=b5 v=87
319680 On ch=5 n=b5 v=0
319680 On ch=5 n=d#6 v=0
319680 On ch=5 n=b4 v=0
319680 On ch=5 n=f#4 v=0
319680 On ch=5 n=e4 v=82
319680 On ch=5 n=b3 v=82
319680 On ch=5 n=g#3 v=82
319680 On ch=5 n=b5 v=82
319680 On ch=5 n=e6 v=82
320160 On ch=5 n=e6 v=0
320160 On ch=5 n=b5 v=0
320160 On ch=5 n=g#3 v=0
320160 On ch=5 n=b3 v=0
320160 On ch=5 n=e4 v=0
320640 On ch=5 n=g#4 v=45
320640 On ch=5 n=b4 v=44
320640 On ch=5 n=e5 v=44
321120 On ch=5 n=e5 v=0
321120 On ch=5 n=b4 v=0
321120 On ch=5 n=g#4 v=0
321600 On ch=5 n=f#4 v=46
321600 On ch=5 n=c#4 v=46
321600 On ch=5 n=f#5 v=45
321600 On ch=5 n=c#5 v=45
322080 On ch=5 n=c#5 v=0
322080 On ch=5 n=f#5 v=0
322080 On ch=5 n=c#4 v=0
322080 On ch=5 n=f#4 v=0
322560 On ch=5 n=f#5 v=60
322560 On ch=5 n=d#5 v=60
322560 On ch=5 n=d#6 v=61
322560 On ch=5 n=b5 v=61
323040 On ch=5 n=b5 v=0
323040 On ch=5 n=d#6 v=0
323040 On ch=5 n=d#5 v=0
323040 On ch=5 n=f#5 v=0
323040 On ch=5 n=f5 v=58
323040 On ch=5 n=b4 v=58
323040 On ch=5 n=c#5 v=58
323040 On ch=5 n=c#6 v=58
323040 On ch=5 n=f6 v=58
323040 On ch=5 n=b5 v=58
323520 On ch=5 n=b5 v=0
323520 On ch=5 n=f6 v=0
323520 On ch=5 n=c#6 v=0
323520 On ch=5 n=c#5 v=0
323520 On ch=5 n=b4 v=0
323520 On ch=5 n=f5 v=0
323520 On ch=5 n=f#5 v=55
323520 On ch=5 n=a4 v=55
323520 On ch=5 n=c#5 v=55
323520 On ch=5 n=c#6 v=55
323520 On ch=5 n=f#6 v=55
323520 On ch=5 n=a5 v=55
324000 On ch=5 n=a5 v=0
324000 On ch=5 n=f#6 v=0
324000 On ch=5 n=c#6 v=0
324000 On ch=5 n=c#5 v=0
324000 On ch=5 n=a4 v=0
324000 On ch=5 n=f#5 v=0
324480 On ch=5 n=a4 v=50
324480 On ch=5 n=f#5 v=49
324480 On ch=5 n=c#5 v=49
324960 On ch=5 n=c#5 v=0
324960 On ch=5 n=f#5 v=0
324960 On ch=5 n=a4 v=0
325440 On ch=5 n=g#4 v=51
325440 On ch=5 n=d5 v=51
325440 On ch=5 n=g#5 v=51
325920 On ch=5 n=g#5 v=0
325920 On ch=5 n=d5 v=0
325920 On ch=5 n=g#4 v=0
326400 On ch=5 n=f5 v=68
326400 On ch=5 n=f6 v=66
326400 On ch=5 n=c#6 v=66
326400 On ch=5 n=b5 v=66
326880 On ch=5 n=b5 v=0
326880 On ch=5 n=c#6 v=0
326880 On ch=5 n=f6 v=0
326880 On ch=5 n=f5 v=0
326880 On ch=5 n=e5 v=64
326880 On ch=5 n=c#5 v=64
326880 On ch=5 n=c#6 v=64
326880 On ch=5 n=a#5 v=64
326880 On ch=5 n=e6 v=64
327360 On ch=5 n=e6 v=0
327360 On ch=5 n=a#5 v=0
327360 On ch=5 n=c#6 v=0
327360 On ch=5 n=c#5 v=0
327360 On ch=5 n=e5 v=0
327360 On ch=5 n=d5 v=59
327360 On ch=5 n=d6 v=61
327360 On ch=5 n=b5 v=61
327840 On ch=5 n=b5 v=0
327840 On ch=5 n=d6 v=0
327840 On ch=5 n=d5 v=0
328320 On ch=5 n=d5 v=56
328320 On ch=5 n=b5 v=55
328320 On ch=5 n=f#5 v=55
328800 On ch=5 n=f#5 v=0
328800 On ch=5 n=b5 v=0
328800 On ch=5 n=d5 v=0
329280 On ch=5 n=c#5 v=57
329280 On ch=5 n=g4 v=57
329280 On ch=5 n=g5 v=56
329280 On ch=5 n=c#6 v=56
329760 On ch=5 n=c#6 v=0
329760 On ch=5 n=g5 v=0
329760 On ch=5 n=g4 v=0
329760 On ch=5 n=c#5 v=0
330240 On ch=5 n=c#5 v=74
330240 On ch=5 n=a#4 v=74
330240 On ch=5 n=e6 v=73
330240 On ch=5 n=c#6 v=73
330240 On ch=5 n=a#5 v=73
330720 On ch=5 n=a#5 v=0
330720 On ch=5 n=c#6 v=0
330720 On ch=5 n=e6 v=0
330720 On ch=5 n=a#4 v=0
330720 On ch=5 n=c#5 v=0
330720 On ch=5 n=b4 v=71
330720 On ch=5 n=f#4 v=71
330720 On ch=5 n=b5 v=70
331200 On ch=5 n=b5 v=0
331200 On ch=5 n=f#4 v=0
331200 On ch=5 n=b4 v=0
331200 On ch=5 n=a#4 v=65
331200 On ch=5 n=f#4 v=65
331200 On ch=5 n=c#6 v=67
331200 On ch=5 n=e6 v=67
331680 On ch=5 n=e6 v=0
331680 On ch=5 n=c#6 v=0
331680 On ch=5 n=f#4 v=0
331680 On ch=5 n=a#4 v=0
332160 On ch=5 n=e5 v=61
332160 On ch=5 n=a#5 v=60
332640 On ch=5 n=a#5 v=0
332640 On ch=5 n=e5 v=0
332640 On ch=5 n=d#5 v=62
332640 On ch=5 n=b5 v=61
333120 On ch=5 n=b5 v=0
333120 On ch=5 n=d#5 v=0
333120 On ch=5 n=c#5 v=62
333120 On ch=5 n=c#6 v=61
333600 On ch=5 n=c#6 v=0
333600 On ch=5 n=c#5 v=0
334080 On ch=5 n=c#5 v=64
334080 On ch=5 n=a#5 v=63
334080 On ch=5 n=f#5 v=63
334560 On ch=5 n=f#5 v=0
334560 On ch=5 n=a#5 v=0
334560 On ch=5 n=c#5 v=0
335040 On ch=5 n=a#4 v=65
335040 On ch=5 n=f#5 v=64
335040 On ch=5 n=c#6 v=64
335520 On ch=5 n=c#6 v=0
335520 On ch=5 n=f#5 v=0
335520 On ch=5 n=a#4 v=0
336000 On ch=5 n=d#5 v=67
336000 On ch=5 n=f#5 v=65
336000 On ch=5 n=b5 v=65
336480 On ch=5 n=b5 v=0
336480 On ch=5 n=f#5 v=0
336480 On ch=5 n=d#5 v=0
337440 On ch=5 n=d#6 v=69
337920 On ch=5 n=d#6 v=0
337920 On ch=5 n=e6 v=76
339360 On ch=5 n=e6 v=0
339360 On ch=5 n=e6 v=75
339840 On ch=5 n=e6 v=0
339840 On ch=5 n=d#6 v=68
340800 On ch=5 n=d#6 v=0
340800 On ch=5 n=c#6 v=57
341280 On ch=5 n=c#6 v=0
341280 On ch=5 n=c#6 v=56
341280 On ch=5 n=a#5 v=56
341760 On ch=5 n=a#5 v=0
341760 On ch=5 n=c#6 v=0
341760 On ch=5 n=b5 v=56
341760 On ch=5 n=g#5 v=56
342240 On ch=5 n=g#5 v=0
342240 On ch=5 n=b5 v=0
342240 On ch=5 n=g5 v=55
342240 On ch=5 n=a#5 v=55
342720 On ch=5 n=a#5 v=0
342720 On ch=5 n=g5 v=0
342720 On ch=5 n=g#5 v=55
342720 On ch=5 n=d#5 v=55
343200 On ch=5 n=d#5 v=0
343200 On ch=5 n=g#5 v=0
343200 On ch=5 n=d#5 v=54
343200 On ch=5 n=g#5 v=54
343680 On ch=5 n=g#5 v=0
343680 On ch=5 n=d#5 v=0
343680 On ch=5 n=d5 v=60
343680 On ch=5 n=g#5 v=60
344160 On ch=5 n=g#5 v=0
344160 On ch=5 n=d5 v=0
344160 On ch=5 n=g#5 v=53
344160 On ch=5 n=c#5 v=53
344640 On ch=5 n=c#5 v=0
344640 On ch=5 n=g#5 v=0
344640 On ch=5 n=d5 v=58
344640 On ch=5 n=g#5 v=58
345120 On ch=5 n=g#5 v=0
345120 On ch=5 n=d5 v=0
345120 On ch=5 n=g#5 v=52
345120 On ch=5 n=c#5 v=52
345600 On ch=5 n=c#5 v=0
345600 On ch=5 n=g#5 v=0
345600 On ch=5 n=d5 v=59
345600 On ch=5 n=g#5 v=59
346080 On ch=5 n=g#5 v=0
346080 On ch=5 n=d5 v=0
346080 On ch=5 n=c#5 v=51
346080 On ch=5 n=g#5 v=51
346560 On ch=5 n=g#5 v=0
346560 On ch=5 n=c#5 v=0
347040 On ch=5 n=g#5 v=50
347040 On ch=5 n=d#5 v=50
347520 On ch=5 n=d#5 v=0
347520 On ch=5 n=g#5 v=0
347520 On ch=5 n=d5 v=56
347520 On ch=5 n=g#5 v=56
348000 On ch=5 n=g#5 v=0
348000 On ch=5 n=d5 v=0
348000 On ch=5 n=c#5 v=49
348000 On ch=5 n=g#5 v=49
348480 On ch=5 n=g#5 v=0
348480 On ch=5 n=c#5 v=0
348480 On ch=5 n=d5 v=54
348480 On ch=5 n=g#5 v=54
348960 On ch=5 n=g#5 v=0
348960 On ch=5 n=d5 v=0
348960 On ch=5 n=c#5 v=48
348960 On ch=5 n=g#5 v=48
349440 On ch=5 n=g#5 v=0
349440 On ch=5 n=c#5 v=0
349440 On ch=5 n=d5 v=55
349440 On ch=5 n=g#5 v=55
349920 On ch=5 n=g#5 v=0
349920 On ch=5 n=d5 v=0
349920 On ch=5 n=c#5 v=47
349920 On ch=5 n=g#5 v=47
350400 On ch=5 n=g#5 v=0
350400 On ch=5 n=c#5 v=0
350880 On ch=5 n=g#5 v=46
350880 On ch=5 n=d#5 v=46
351360 On ch=5 n=d#5 v=0
351360 On ch=5 n=g#5 v=0
351360 On ch=5 n=g#5 v=48
351360 On ch=5 n=c#5 v=48
351840 On ch=5 n=c#5 v=0
351840 On ch=5 n=g#5 v=0
351840 On ch=5 n=c#5 v=50
351840 On ch=5 n=f#5 v=50
352320 On ch=5 n=f#5 v=0
352320 On ch=5 n=c#5 v=0
352320 On ch=5 n=c#5 v=53
352320 On ch=5 n=f#5 v=53
352800 On ch=5 n=f#5 v=0
352800 On ch=5 n=c#5 v=0
352800 On ch=5 n=c#5 v=55
352800 On ch=5 n=f#5 v=55
353280 On ch=5 n=f#5 v=0
353280 On ch=5 n=c#5 v=0
353280 On ch=5 n=c5 v=58
353280 On ch=5 n=f#5 v=58
353760 On ch=5 n=f#5 v=0
353760 On ch=5 n=c5 v=0
353760 On ch=5 n=c5 v=60
353760 On ch=5 n=f#5 v=60
354240 On ch=5 n=f#5 v=0
354240 On ch=5 n=c5 v=0
354240 On ch=5 n=c5 v=63
354240 On ch=5 n=f#5 v=63
354720 On ch=5 n=f#5 v=0
354720 On ch=5 n=c5 v=0
354720 On ch=5 n=c5 v=65
354720 On ch=5 n=f#5 v=65
355200 On ch=5 n=f#5 v=0
355200 On ch=5 n=c5 v=0
365760 On ch=5 n=g5 v=75
365760 On ch=5 n=a#5 v=75
366240 On ch=5 n=a#5 v=0
366240 On ch=5 n=g5 v=0
366240 On ch=5 n=b4 v=72
366240 On ch=5 n=g#5 v=72
366240 On ch=5 n=d#5 v=72
366720 On ch=5 n=d#5 v=0
366720 On ch=5 n=g#5 v=0
366720 On ch=5 n=b4 v=0
366720 On ch=5 n=f5 v=66
366720 On ch=5 n=g#5 v=66
367680 On ch=5 n=g#5 v=0
367680 On ch=5 n=f5 v=0
367680 On ch=5 n=b4 v=64
367680 On ch=5 n=g#4 v=64
368640 On ch=5 n=g#4 v=0
368640 On ch=5 n=b4 v=0
368640 On ch=5 n=a#4 v=67
369120 On ch=5 n=a#4 v=0
369600 On ch=5 n=c#6 v=79
369600 On ch=5 n=a#5 v=79
369600 On ch=5 n=g5 v=79
370080 On ch=5 n=g5 v=0
370080 On ch=5 n=a#5 v=0
370080 On ch=5 n=c#6 v=0
370080 On ch=5 n=b5 v=76
370080 On ch=5 n=d#6 v=76
370560 On ch=5 n=d#6 v=0
370560 On ch=5 n=b5 v=0
370560 On ch=5 n=c#6 v=69
370560 On ch=5 n=b5 v=69
370560 On ch=5 n=f5 v=69
370560 On ch=5 n=g#5 v=69
371520 On ch=5 n=g#5 v=0
371520 On ch=5 n=f5 v=0
371520 On ch=5 n=b5 v=0
371520 On ch=5 n=c#6 v=0
371520 On ch=5 n=b4 v=60
371520 On ch=5 n=g#4 v=60
372480 On ch=5 n=g#4 v=0
372480 On ch=5 n=b4 v=0
372480 On ch=5 n=a#4 v=59
372960 On ch=5 n=a#4 v=0
373440 On ch=5 n=b3 v=57
373440 On ch=5 n=g#3 v=57
374400 On ch=5 n=g#3 v=0
374400 On ch=5 n=b3 v=0
374400 On ch=5 n=a#3 v=55
374880 On ch=5 n=a#3 v=0
394080 Par ch=5 c=64 v=0
395520 Par ch=5 c=93 v=28
395520 Par ch=5 c=91 v=91
396480 On ch=5 n=f#4 v=79
397200 On ch=5 n=f#4 v=0
397200 On ch=5 n=g#4 v=76
397356 On ch=5 n=g#4 v=0
397440 On ch=5 n=c#4 v=70
397596 On ch=5 n=c#4 v=0
398160 On ch=5 n=c#4 v=48
398316 On ch=5 n=c#4 v=0
400320 On ch=5 n=g5 v=81
401040 On ch=5 n=g5 v=0
401040 On ch=5 n=f#5 v=76
401196 On ch=5 n=f#5 v=0
401280 On ch=5 n=e5 v=70
401514 On ch=5 n=e5 v=0
402000 On ch=5 n=d#5 v=50
402156 On ch=5 n=d#5 v=0
402240 On ch=5 n=g#4 v=54
402600 On ch=5 n=g#4 v=0
402600 On ch=5 n=c#5 v=47
402678 On ch=5 n=c#5 v=0
402720 On ch=5 n=d#5 v=45
402876 On ch=5 n=d#5 v=0
402960 On ch=5 n=e5 v=41
403116 On ch=5 n=e5 v=0
403200 On ch=5 n=d#5 v=37
403500 On ch=5 n=d#5 v=0
426240 On ch=5 n=f#4 v=79
426960 On ch=5 n=f#4 v=0
426960 On ch=5 n=g#4 v=77
427116 On ch=5 n=g#4 v=0
427200 On ch=5 n=c#4 v=72
427356 On ch=5 n=c#4 v=0
427920 On ch=5 n=c#4 v=47
428076 On ch=5 n=c#4 v=0
430080 On ch=5 n=g5 v=79
430800 On ch=5 n=g5 v=0
430800 On ch=5 n=f#5 v=77
430956 On ch=5 n=f#5 v=0
431040 On ch=5 n=e5 v=75
431274 On ch=5 n=e5 v=0
431760 On ch=5 n=d#5 v=47
431916 On ch=5 n=d#5 v=0
432000 On ch=5 n=g#4 v=51
432360 On ch=5 n=g#4 v=0
432360 On ch=5 n=c#5 v=47
432438 On ch=5 n=c#5 v=0
432480 On ch=5 n=d#5 v=46
432636 On ch=5 n=d#5 v=0
432720 On ch=5 n=e5 v=43
432876 On ch=5 n=e5 v=0
432960 On ch=5 n=d#5 v=41
433320 On ch=5 n=d#5 v=0
480960 On ch=5 n=b5 v=79
481680 On ch=5 n=b5 v=0
481680 On ch=5 n=a#5 v=75
481836 On ch=5 n=a#5 v=0
481920 On ch=5 n=a#5 v=72
482199 On ch=5 n=a#5 v=0
484800 On ch=5 n=b5 v=79
485520 On ch=5 n=b5 v=0
485520 On ch=5 n=b5 v=76
485676 On ch=5 n=b5 v=0
485760 On ch=5 n=b5 v=72
485760 On ch=5 n=a5 v=72
485916 On ch=5 n=a5 v=0
485916 On ch=5 n=b5 v=0
488640 On ch=5 n=b5 v=79
489360 On ch=5 n=b5 v=0
489360 On ch=5 n=b5 v=76
489516 On ch=5 n=b5 v=0
489600 On ch=5 n=b5 v=72
489756 On ch=5 n=b5 v=0
539520 On ch=5 n=f#5 v=79
540240 On ch=5 n=f#5 v=0
540240 On ch=5 n=g#5 v=77
540240 On ch=5 n=f5 v=77
540396 On ch=5 n=f5 v=0
540396 On ch=5 n=g#5 v=0
540480 On ch=5 n=f5 v=73
540480 On ch=5 n=g#5 v=73
540672 On ch=5 n=g#5 v=0
540672 On ch=5 n=f5 v=0
543360 On ch=5 n=f#5 v=79
543360 On ch=5 n=e5 v=79
544080 On ch=5 n=e5 v=0
544080 On ch=5 n=f#5 v=0
544080 On ch=5 n=f#5 v=77
544080 On ch=5 n=d#5 v=77
544236 On ch=5 n=d#5 v=0
544236 On ch=5 n=f#5 v=0
544320 On ch=5 n=f#5 v=76
544320 On ch=5 n=c#5 v=76
544512 On ch=5 n=c#5 v=0
544512 On ch=5 n=f#5 v=0
547200 On ch=5 n=f#5 v=45
547920 On ch=5 n=f#5 v=0
547920 On ch=5 n=f#5 v=43
548160 On ch=5 n=f#5 v=0
548160 On ch=5 n=f#5 v=40
548640 On ch=5 n=f#5 v=0
561360 On ch=5 n=g#5 v=91
561600 On ch=5 n=g#5 v=0
561600 On ch=5 n=g#5 v=95
561960 On ch=5 n=g#5 v=0
561960 On ch=5 n=a#5 v=79
562080 On ch=5 n=a#5 v=0
562080 On ch=5 n=b5 v=73
562320 On ch=5 n=b5 v=0
562320 On ch=5 n=g#4 v=61
562476 On ch=5 n=g#4 v=0
562560 On ch=5 n=g#4 v=57
562920 On ch=5 n=g#4 v=0
562920 On ch=5 n=a#4 v=52
562998 On ch=5 n=a#4 v=0
563040 On ch=5 n=b4 v=51
563196 On ch=5 n=b4 v=0
563280 On ch=5 n=c#5 v=48
563436 On ch=5 n=c#5 v=0
563520 On ch=5 n=c#5 v=45
565440 On ch=5 n=c#5 v=0
565440 On ch=5 n=c5 v=33
567360 On ch=5 n=c5 v=0
567360 Meta TrkEnd
TrkEnd
MTrk
0 SeqSpec 43 00 01 00
0 Meta TrkName "No Name"
0 Par ch=6 c=0 v=0
0 Par ch=6 c=32 v=0
0 PrCh ch=6 p=0
0 Par ch=6 c=10 v=55
0 Par ch=6 c=91 v=100
0 Par ch=6 c=93 v=28
0 Par ch=6 c=64 v=0
0 Par ch=6 c=1 v=0
0 Pb ch=6 v=8192
0 Par ch=6 c=7 v=125
960 On ch=6 n=f#2 v=38
960 On ch=6 n=f#3 v=40
1920 On ch=6 n=f#3 v=0
1920 On ch=6 n=f#2 v=0
1920 On ch=6 n=f#3 v=42
1920 On ch=6 n=f#2 v=40
2880 On ch=6 n=f#2 v=0
2880 On ch=6 n=f#3 v=0
2880 On ch=6 n=f#3 v=45
2880 On ch=6 n=f#2 v=42
3840 On ch=6 n=f#2 v=0
3840 On ch=6 n=f#3 v=0
3840 On ch=6 n=f#3 v=34
3840 On ch=6 n=f#2 v=34
7080 On ch=6 n=f#3 v=0
7085 On ch=6 n=f#2 v=0
7680 On ch=6 n=f#3 v=40
9600 On ch=6 n=f#3 v=0
9600 On ch=6 n=c#3 v=36
11520 On ch=6 n=c#3 v=0
11520 On ch=6 n=f#3 v=38
12960 On ch=6 n=f#3 v=0
12960 On ch=6 n=f#3 v=49
13424 On ch=6 n=f#3 v=0
13440 On ch=6 n=f#3 v=55
13904 On ch=6 n=f#3 v=0
13920 On ch=6 n=f#3 v=51
14384 On ch=6 n=f#3 v=0
14400 On ch=6 n=f#3 v=46
14864 On ch=6 n=f#3 v=0
15840 On ch=6 n=c#4 v=40
15960 On ch=6 n=c#4 v=0
15960 On ch=6 n=f4 v=40
16080 On ch=6 n=f4 v=0
16080 On ch=6 n=g#4 v=41
16200 On ch=6 n=g#4 v=0
16200 On ch=6 n=b4 v=41
16320 On ch=6 n=b4 v=0
16320 On ch=6 n=b3 v=41
16800 On ch=6 n=b3 v=0
17760 On ch=6 n=a#3 v=45
17880 On ch=6 n=a#3 v=0
17880 On ch=6 n=c#4 v=45
18000 On ch=6 n=c#4 v=0
18000 On ch=6 n=f#4 v=46
18120 On ch=6 n=f#4 v=0
18120 On ch=6 n=a#4 v=46
18240 On ch=6 n=a#4 v=0
18240 On ch=6 n=a#3 v=46
18720 On ch=6 n=a#3 v=0
18720 On ch=6 n=f#3 v=48
18880 On ch=6 n=f#3 v=0
18880 On ch=6 n=g#3 v=48
19040 On ch=6 n=g#3 v=0
19040 On ch=6 n=a#3 v=49
19200 On ch=6 n=a#3 v=0
19200 On ch=6 n=b3 v=49
20160 On ch=6 n=b3 v=0
20160 On ch=6 n=c#4 v=51
20640 On ch=6 n=b4 v=55
21120 On ch=6 n=b4 v=0
21120 On ch=6 n=c#4 v=0
21120 On ch=6 n=f#4 v=51
21600 On ch=6 n=f#4 v=0
21600 On ch=6 n=c#4 v=46
22080 On ch=6 n=c#4 v=0
22080 On ch=6 n=f#3 v=41
22560 On ch=6 n=f#3 v=0
23040 On ch=6 n=f#4 v=40
23520 On ch=6 n=f#4 v=0
24000 On ch=6 n=b3 v=44
24480 On ch=6 n=b3 v=0
24960 On ch=6 n=c#4 v=48
25440 On ch=6 n=c#4 v=0
25440 On ch=6 n=f#3 v=46
25920 On ch=6 n=f#3 v=0
25920 On ch=6 n=c#3 v=42
26400 On ch=6 n=c#3 v=0
26880 On ch=6 n=f4 v=44
27360 On ch=6 n=f4 v=0
27840 On ch=6 n=c#4 v=47
28320 On ch=6 n=c#4 v=0
28800 On ch=6 n=f#4 v=50
29280 On ch=6 n=f#4 v=0
30240 On ch=6 n=f#5 v=58
30720 On ch=6 n=f#5 v=0
30720 On ch=6 n=g#5 v=64
32160 On ch=6 n=g#5 v=0
32160 On ch=6 n=g#5 v=67
32640 On ch=6 n=g#5 v=0
32640 On ch=6 n=g#5 v=61
33600 On ch=6 n=g#5 v=0
33600 On ch=6 n=f5 v=58
34080 On ch=6 n=f5 v=0
34080 On ch=6 n=a#4 v=58
34560 On ch=6 n=a#4 v=0
34560 On ch=6 n=a#4 v=57
35040 On ch=6 n=a#4 v=0
35040 On ch=6 n=g#4 v=57
35520 On ch=6 n=g#4 v=0
35520 On ch=6 n=f#4 v=56
36000 On ch=6 n=f#4 v=0
36000 On ch=6 n=f#4 v=56
36480 On ch=6 n=f#4 v=0
36480 On ch=6 n=f#4 v=64
36960 On ch=6 n=f#4 v=0
36960 On ch=6 n=f#4 v=55
37440 On ch=6 n=f#4 v=0
37440 On ch=6 n=f#4 v=62
37920 On ch=6 n=f#4 v=0
37920 On ch=6 n=f#4 v=54
38400 On ch=6 n=f#4 v=0
38400 On ch=6 n=f#4 v=59
38880 On ch=6 n=f#4 v=0
38880 On ch=6 n=f#4 v=53
39360 On ch=6 n=f#4 v=0
39840 On ch=6 n=f#4 v=52
40320 On ch=6 n=f#4 v=0
40320 On ch=6 n=f#4 v=59
40800 On ch=6 n=f#4 v=0
40800 On ch=6 n=f#4 v=51
41280 On ch=6 n=f#4 v=0
41280 On ch=6 n=f#4 v=58
41760 On ch=6 n=f#4 v=0
41760 On ch=6 n=f#4 v=50
42240 On ch=6 n=f#4 v=0
42240 On ch=6 n=f#4 v=56
42720 On ch=6 n=f#4 v=0
42720 On ch=6 n=f#4 v=49
43200 On ch=6 n=f#4 v=0
44160 On ch=6 n=f#4 v=48
44640 On ch=6 n=f#4 v=0
44640 On ch=6 n=f4 v=52
45120 On ch=6 n=f4 v=0
45120 On ch=6 n=f4 v=55
45600 On ch=6 n=f4 v=0
45600 On ch=6 n=f4 v=57
46080 On ch=6 n=f4 v=0
46080 On ch=6 n=e4 v=60
46560 On ch=6 n=e4 v=0
46560 On ch=6 n=e4 v=63
47040 On ch=6 n=e4 v=0
47040 On ch=6 n=e4 v=65
47520 On ch=6 n=e4 v=0
47520 On ch=6 n=e4 v=68
48000 On ch=6 n=e4 v=0
48000 On ch=6 n=a3 v=71
48480 On ch=6 n=a3 v=0
48480 On ch=6 n=a3 v=73
48960 On ch=6 n=a3 v=0
48960 On ch=6 n=a3 v=76
49440 On ch=6 n=a3 v=0
49440 On ch=6 n=a3 v=78
49920 On ch=6 n=a3 v=0
49920 On ch=6 n=g#3 v=80
49920 On ch=6 n=g#4 v=80
51840 On ch=6 n=g#4 v=0
51840 On ch=6 n=g#3 v=0
51840 On ch=6 n=c#4 v=83
52320 On ch=6 n=c#4 v=0
52800 On ch=6 n=c#5 v=49
52960 On ch=6 n=c#5 v=0
52960 On ch=6 n=d#5 v=49
53120 On ch=6 n=d#5 v=0
53120 On ch=6 n=f5 v=50
53280 On ch=6 n=f5 v=0
53280 On ch=6 n=f#5 v=51
53440 On ch=6 n=f#5 v=0
53440 On ch=6 n=c#5 v=51
53600 On ch=6 n=c#5 v=0
53600 On ch=6 n=f#5 v=52
53760 On ch=6 n=f#5 v=0
53760 On ch=6 n=c#5 v=50
53760 On ch=6 n=f5 v=50
54240 On ch=6 n=f5 v=0
54240 On ch=6 n=c#5 v=0
54720 On ch=6 n=c#4 v=54
54880 On ch=6 n=c#4 v=0
54880 On ch=6 n=d#4 v=53
55040 On ch=6 n=d#4 v=0
55040 On ch=6 n=f4 v=52
55200 On ch=6 n=f4 v=0
55200 On ch=6 n=g#3 v=51
55200 On ch=6 n=f#4 v=51
55360 On ch=6 n=f#4 v=0
55360 On ch=6 n=d#4 v=50
55520 On ch=6 n=d#4 v=0
55520 On ch=6 n=g#4 v=49
55680 On ch=6 n=g#4 v=0
55680 On ch=6 n=g#3 v=0
55680 On ch=6 n=f4 v=47
55680 On ch=6 n=c#4 v=47
56160 On ch=6 n=c#4 v=0
56160 On ch=6 n=f4 v=0
56640 On ch=6 n=c#5 v=53
56800 On ch=6 n=c#5 v=0
56800 On ch=6 n=d#5 v=54
56960 On ch=6 n=d#5 v=0
56960 On ch=6 n=f5 v=55
57120 On ch=6 n=f5 v=0
57120 On ch=6 n=f#5 v=56
57280 On ch=6 n=f#5 v=0
57280 On ch=6 n=c#5 v=57
57440 On ch=6 n=c#5 v=0
57440 On ch=6 n=f#5 v=58
57600 On ch=6 n=f#5 v=0
57600 On ch=6 n=f5 v=55
57600 On ch=6 n=c#5 v=55
58080 On ch=6 n=c#5 v=0
58080 On ch=6 n=f5 v=0
58560 On ch=6 n=a#4 v=81
59040 On ch=6 n=a#4 v=0
59040 On ch=6 n=d#4 v=78
59520 On ch=6 n=d#4 v=0
59520 On ch=6 n=g#4 v=74
60480 On ch=6 n=g#4 v=0
60480 On ch=6 n=g#3 v=56
61440 On ch=6 n=g#3 v=0
61440 On ch=6 n=c#4 v=58
61920 On ch=6 n=c#4 v=0
62400 On ch=6 n=a#5 v=93
62880 On ch=6 n=a#5 v=0
62880 On ch=6 n=d#5 v=90
63360 On ch=6 n=d#5 v=0
63360 On ch=6 n=g#5 v=82
64320 On ch=6 n=g#5 v=0
64320 On ch=6 n=g#4 v=56
65280 On ch=6 n=g#4 v=0
65280 On ch=6 n=c#5 v=53
65760 On ch=6 n=c#5 v=0
66240 On ch=6 n=g#3 v=49
67200 On ch=6 n=g#3 v=0
67200 On ch=6 n=c#4 v=46
67680 On ch=6 n=c#4 v=0
68160 On ch=6 n=f#3 v=42
68280 On ch=6 n=f#3 v=0
68280 On ch=6 n=g#3 v=42
68400 On ch=6 n=g#3 v=0
68400 On ch=6 n=f#3 v=42
68520 On ch=6 n=f#3 v=0
68520 On ch=6 n=f3 v=42
68640 On ch=6 n=f3 v=0
68640 On ch=6 n=f#3 v=42
68760 On ch=6 n=f#3 v=0
68760 On ch=6 n=g#3 v=43
68880 On ch=6 n=g#3 v=0
68880 On ch=6 n=a#3 v=43
69000 On ch=6 n=a#3 v=0
69000 On ch=6 n=c4 v=43
69120 On ch=6 n=c4 v=0
69120 On ch=6 n=c#4 v=43
69240 On ch=6 n=c#4 v=0
69240 On ch=6 n=d#4 v=43
69360 On ch=6 n=d#4 v=0
69360 On ch=6 n=f4 v=44
69480 On ch=6 n=f4 v=0
69480 On ch=6 n=f#4 v=44
69600 On ch=6 n=f#4 v=0
69600 On ch=6 n=g#4 v=44
69720 On ch=6 n=g#4 v=0
69720 On ch=6 n=f#4 v=44
69840 On ch=6 n=f#4 v=0
69840 On ch=6 n=f4 v=44
69960 On ch=6 n=f4 v=0
69960 On ch=6 n=d#4 v=45
70080 On ch=6 n=d#4 v=0
70080 On ch=6 n=c#4 v=45
70200 On ch=6 n=c#4 v=0
70200 On ch=6 n=c4 v=45
70320 On ch=6 n=c4 v=0
70320 On ch=6 n=a#3 v=45
70440 On ch=6 n=a#3 v=0
70440 On ch=6 n=g#3 v=45
70560 On ch=6 n=g#3 v=0
70560 On ch=6 n=a#3 v=46
70680 On ch=6 n=a#3 v=0
70680 On ch=6 n=g#3 v=46
70800 On ch=6 n=g#3 v=0
70800 On ch=6 n=a#3 v=46
70920 On ch=6 n=a#3 v=0
70920 On ch=6 n=c4 v=46
71040 On ch=6 n=c4 v=0
71040 On ch=6 n=c#4 v=46
71160 On ch=6 n=c#4 v=0
71160 On ch=6 n=d#4 v=48
71280 On ch=6 n=d#4 v=0
71280 On ch=6 n=f4 v=50
71400 On ch=6 n=f4 v=0
71400 On ch=6 n=f#4 v=52
71520 On ch=6 n=f#4 v=0
71520 On ch=6 n=g#4 v=55
71640 On ch=6 n=g#4 v=0
71640 On ch=6 n=f#4 v=57
71760 On ch=6 n=f#4 v=0
71760 On ch=6 n=f4 v=59
71880 On ch=6 n=f4 v=0
71880 On ch=6 n=f#4 v=61
72000 On ch=6 n=f#4 v=0
72000 On ch=6 n=g#4 v=63
72120 On ch=6 n=g#4 v=0
72120 On ch=6 n=f#4 v=60
72240 On ch=6 n=f#4 v=0
72240 On ch=6 n=f4 v=57
72360 On ch=6 n=f4 v=0
72360 On ch=6 n=d#4 v=55
72480 On ch=6 n=d#4 v=0
72480 On ch=6 n=c#4 v=52
72600 On ch=6 n=c#4 v=0
72600 On ch=6 n=b3 v=49
72720 On ch=6 n=b3 v=0
72720 On ch=6 n=a#3 v=47
72840 On ch=6 n=a#3 v=0
72840 On ch=6 n=g#3 v=44
72960 On ch=6 n=g#3 v=0
72960 On ch=6 n=f#3 v=41
74880 On ch=6 n=f#3 v=0
74880 On ch=6 n=c#3 v=36
76800 On ch=6 n=c#3 v=0
76800 On ch=6 n=f#3 v=38
78240 On ch=6 n=f#3 v=0
78240 On ch=6 n=f#3 v=49
78704 On ch=6 n=f#3 v=0
78720 On ch=6 n=f#3 v=55
79184 On ch=6 n=f#3 v=0
79200 On ch=6 n=f#3 v=51
79664 On ch=6 n=f#3 v=0
79680 On ch=6 n=f#3 v=46
80144 On ch=6 n=f#3 v=0
81120 On ch=6 n=c#4 v=40
81240 On ch=6 n=c#4 v=0
81240 On ch=6 n=f4 v=40
81360 On ch=6 n=f4 v=0
81360 On ch=6 n=g#4 v=41
81480 On ch=6 n=g#4 v=0
81480 On ch=6 n=b4 v=41
81600 On ch=6 n=b4 v=0
81600 On ch=6 n=b3 v=41
82080 On ch=6 n=b3 v=0
83040 On ch=6 n=a#3 v=45
83160 On ch=6 n=a#3 v=0
83160 On ch=6 n=c#4 v=45
83280 On ch=6 n=c#4 v=0
83280 On ch=6 n=f#4 v=46
83400 On ch=6 n=f#4 v=0
83400 On ch=6 n=a#4 v=46
83520 On ch=6 n=a#4 v=0
83520 On ch=6 n=a#3 v=46
84000 On ch=6 n=a#3 v=0
84000 On ch=6 n=f#3 v=48
84160 On ch=6 n=f#3 v=0
84160 On ch=6 n=g#3 v=48
84320 On ch=6 n=g#3 v=0
84320 On ch=6 n=a#3 v=49
84480 On ch=6 n=a#3 v=0
84480 On ch=6 n=b3 v=49
85440 On ch=6 n=b3 v=0
85440 On ch=6 n=c#4 v=51
85920 On ch=6 n=b4 v=55
86400 On ch=6 n=b4 v=0
86400 On ch=6 n=c#4 v=0
86400 On ch=6 n=f#4 v=51
86880 On ch=6 n=f#4 v=0
86880 On ch=6 n=c#4 v=46
87360 On ch=6 n=c#4 v=0
87360 On ch=6 n=f#3 v=41
87840 On ch=6 n=f#3 v=0
88320 On ch=6 n=f#4 v=40
88800 On ch=6 n=f#4 v=0
89280 On ch=6 n=b3 v=44
89760 On ch=6 n=b3 v=0
90240 On ch=6 n=c#4 v=48
90720 On ch=6 n=c#4 v=0
90720 On ch=6 n=f#3 v=46
91200 On ch=6 n=f#3 v=0
91200 On ch=6 n=c#3 v=42
91680 On ch=6 n=c#3 v=0
92160 On ch=6 n=f4 v=44
92640 On ch=6 n=f4 v=0
93120 On ch=6 n=c#4 v=47
93600 On ch=6 n=c#4 v=0
94080 On ch=6 n=f#4 v=50
94560 On ch=6 n=f#4 v=0
95520 On ch=6 n=f#5 v=58
96000 On ch=6 n=f#5 v=0
96000 On ch=6 n=g#5 v=64
97440 On ch=6 n=g#5 v=0
97440 On ch=6 n=g#5 v=67
97920 On ch=6 n=g#5 v=0
97920 On ch=6 n=g#5 v=61
98880 On ch=6 n=g#5 v=0
98880 On ch=6 n=f5 v=58
99360 On ch=6 n=f5 v=0
99360 On ch=6 n=a#4 v=58
99840 On ch=6 n=a#4 v=0
99840 On ch=6 n=a#4 v=57
100320 On ch=6 n=a#4 v=0
100320 On ch=6 n=g#4 v=57
100800 On ch=6 n=g#4 v=0
100800 On ch=6 n=f#4 v=56
101280 On ch=6 n=f#4 v=0
101280 On ch=6 n=f#4 v=56
101760 On ch=6 n=f#4 v=0
101760 On ch=6 n=f#4 v=64
102240 On ch=6 n=f#4 v=0
102240 On ch=6 n=f#4 v=55
102720 On ch=6 n=f#4 v=0
102720 On ch=6 n=f#4 v=62
103200 On ch=6 n=f#4 v=0
103200 On ch=6 n=f#4 v=54
103680 On ch=6 n=f#4 v=0
103680 On ch=6 n=f#4 v=59
104160 On ch=6 n=f#4 v=0
104160 On ch=6 n=f#4 v=53
104640 On ch=6 n=f#4 v=0
105120 On ch=6 n=f#4 v=52
105600 On ch=6 n=f#4 v=0
105600 On ch=6 n=f#4 v=59
106080 On ch=6 n=f#4 v=0
106080 On ch=6 n=f#4 v=51
106560 On ch=6 n=f#4 v=0
106560 On ch=6 n=f#4 v=58
107040 On ch=6 n=f#4 v=0
107040 On ch=6 n=f#4 v=50
107520 On ch=6 n=f#4 v=0
107520 On ch=6 n=f#4 v=56
108000 On ch=6 n=f#4 v=0
108000 On ch=6 n=f#4 v=49
108480 On ch=6 n=f#4 v=0
109440 On ch=6 n=f#4 v=48
109920 On ch=6 n=f#4 v=0
109920 On ch=6 n=f4 v=52
110400 On ch=6 n=f4 v=0
110400 On ch=6 n=f4 v=55
110880 On ch=6 n=f4 v=0
110880 On ch=6 n=f4 v=57
111360 On ch=6 n=f4 v=0
111360 On ch=6 n=e4 v=60
111840 On ch=6 n=e4 v=0
111840 On ch=6 n=e4 v=63
112320 On ch=6 n=e4 v=0
112320 On ch=6 n=e4 v=65
112800 On ch=6 n=e4 v=0
112800 On ch=6 n=e4 v=68
113280 On ch=6 n=e4 v=0
113280 On ch=6 n=a3 v=71
113760 On ch=6 n=a3 v=0
113760 On ch=6 n=a3 v=73
114240 On ch=6 n=a3 v=0
114240 On ch=6 n=a3 v=76
114720 On ch=6 n=a3 v=0
114720 On ch=6 n=a3 v=78
115200 On ch=6 n=a3 v=0
115200 On ch=6 n=g#4 v=80
115200 On ch=6 n=g#3 v=80
117120 On ch=6 n=g#3 v=0
117120 On ch=6 n=g#4 v=0
117120 On ch=6 n=c#4 v=83
117600 On ch=6 n=c#4 v=0
118080 On ch=6 n=c#5 v=49
118240 On ch=6 n=c#5 v=0
118240 On ch=6 n=d#5 v=49
118400 On ch=6 n=d#5 v=0
118400 On ch=6 n=f5 v=50
118560 On ch=6 n=f5 v=0
118560 On ch=6 n=f#5 v=51
118720 On ch=6 n=f#5 v=0
118720 On ch=6 n=c#5 v=51
118880 On ch=6 n=c#5 v=0
118880 On ch=6 n=f#5 v=52
119040 On ch=6 n=f#5 v=0
119040 On ch=6 n=f5 v=50
119040 On ch=6 n=c#5 v=50
119520 On ch=6 n=c#5 v=0
119520 On ch=6 n=f5 v=0
120000 On ch=6 n=c#4 v=54
120160 On ch=6 n=c#4 v=0
120160 On ch=6 n=d#4 v=53
120320 On ch=6 n=d#4 v=0
120320 On ch=6 n=f4 v=52
120480 On ch=6 n=f4 v=0
120480 On ch=6 n=f#4 v=51
120480 On ch=6 n=g#3 v=51
120640 On ch=6 n=f#4 v=0
120640 On ch=6 n=d#4 v=50
120800 On ch=6 n=d#4 v=0
120800 On ch=6 n=g#4 v=49
120960 On ch=6 n=g#4 v=0
120960 On ch=6 n=g#3 v=0
120960 On ch=6 n=c#4 v=47
120960 On ch=6 n=f4 v=47
121440 On ch=6 n=f4 v=0
121440 On ch=6 n=c#4 v=0
121920 On ch=6 n=c#5 v=53
122080 On ch=6 n=c#5 v=0
122080 On ch=6 n=d#5 v=54
122240 On ch=6 n=d#5 v=0
122240 On ch=6 n=f5 v=55
122400 On ch=6 n=f5 v=0
122400 On ch=6 n=f#5 v=56
122560 On ch=6 n=f#5 v=0
122560 On ch=6 n=c#5 v=57
122720 On ch=6 n=c#5 v=0
122720 On ch=6 n=f#5 v=58
122880 On ch=6 n=f#5 v=0
122880 On ch=6 n=c#5 v=55
122880 On ch=6 n=f5 v=55
123360 On ch=6 n=f5 v=0
123360 On ch=6 n=c#5 v=0
123840 On ch=6 n=a#4 v=81
124320 On ch=6 n=a#4 v=0
124320 On ch=6 n=d#4 v=78
124800 On ch=6 n=d#4 v=0
124800 On ch=6 n=g#4 v=74
125760 On ch=6 n=g#4 v=0
125760 On ch=6 n=g#3 v=56
126720 On ch=6 n=g#3 v=0
126720 On ch=6 n=c#4 v=58
127200 On ch=6 n=c#4 v=0
127680 On ch=6 n=a#5 v=93
128160 On ch=6 n=a#5 v=0
128160 On ch=6 n=d#5 v=90
128640 On ch=6 n=d#5 v=0
128640 On ch=6 n=g#5 v=82
129600 On ch=6 n=g#5 v=0
129600 On ch=6 n=g#4 v=56
130560 On ch=6 n=g#4 v=0
130560 On ch=6 n=c#5 v=53
131040 On ch=6 n=c#5 v=0
131520 On ch=6 n=g#3 v=49
132480 On ch=6 n=g#3 v=0
132480 On ch=6 n=c#4 v=46
132960 On ch=6 n=c#4 v=0
133440 On ch=6 n=f#3 v=42
133560 On ch=6 n=f#3 v=0
133560 On ch=6 n=g#3 v=42
133680 On ch=6 n=g#3 v=0
133680 On ch=6 n=f#3 v=42
133800 On ch=6 n=f#3 v=0
133800 On ch=6 n=f3 v=42
133920 On ch=6 n=f3 v=0
133920 On ch=6 n=f#3 v=42
134040 On ch=6 n=f#3 v=0
134040 On ch=6 n=g#3 v=43
134160 On ch=6 n=g#3 v=0
134160 On ch=6 n=a#3 v=43
134280 On ch=6 n=a#3 v=0
134280 On ch=6 n=c4 v=43
134400 On ch=6 n=c4 v=0
134400 On ch=6 n=c#4 v=43
134520 On ch=6 n=c#4 v=0
134520 On ch=6 n=d#4 v=43
134640 On ch=6 n=d#4 v=0
134640 On ch=6 n=f4 v=44
134760 On ch=6 n=f4 v=0
134760 On ch=6 n=f#4 v=44
134880 On ch=6 n=f#4 v=0
134880 On ch=6 n=g#4 v=44
135000 On ch=6 n=g#4 v=0
135000 On ch=6 n=f#4 v=44
135120 On ch=6 n=f#4 v=0
135120 On ch=6 n=f4 v=44
135240 On ch=6 n=f4 v=0
135240 On ch=6 n=d#4 v=45
135360 On ch=6 n=d#4 v=0
135360 On ch=6 n=c#4 v=45
135480 On ch=6 n=c#4 v=0
135480 On ch=6 n=c4 v=45
135600 On ch=6 n=c4 v=0
135600 On ch=6 n=a#3 v=45
135720 On ch=6 n=a#3 v=0
135720 On ch=6 n=g#3 v=45
135840 On ch=6 n=g#3 v=0
135840 On ch=6 n=a#3 v=46
135960 On ch=6 n=a#3 v=0
135960 On ch=6 n=g#3 v=46
136080 On ch=6 n=g#3 v=0
136080 On ch=6 n=a#3 v=46
136200 On ch=6 n=a#3 v=0
136200 On ch=6 n=c4 v=46
136320 On ch=6 n=c4 v=0
136320 On ch=6 n=c#4 v=48
136440 On ch=6 n=c#4 v=0
136440 On ch=6 n=d#4 v=49
136560 On ch=6 n=d#4 v=0
136560 On ch=6 n=f4 v=51
136680 On ch=6 n=f4 v=0
136680 On ch=6 n=f#4 v=52
136800 On ch=6 n=f#4 v=0
136800 Par ch=6 c=64 v=0
136800 On ch=6 n=g#4 v=54
136920 On ch=6 n=g#4 v=0
136920 On ch=6 n=a4 v=57
137040 On ch=6 n=a4 v=0
137040 On ch=6 n=b4 v=60
137160 On ch=6 n=b4 v=0
137160 On ch=6 n=c#5 v=63
137280 On ch=6 n=c#5 v=0
137280 On ch=6 n=d5 v=70
137400 On ch=6 n=d5 v=0
137400 On ch=6 n=c#5 v=66
137520 On ch=6 n=c#5 v=0
137520 On ch=6 n=b4 v=61
137640 On ch=6 n=b4 v=0
137640 On ch=6 n=a4 v=58
137760 On ch=6 n=a4 v=0
137760 On ch=6 n=c#5 v=56
137880 On ch=6 n=c#5 v=0
137880 On ch=6 n=b4 v=54
138000 On ch=6 n=b4 v=0
138000 Par ch=6 c=64 v=0
138000 On ch=6 n=a4 v=52
138120 On ch=6 n=a4 v=0
138120 On ch=6 n=g#4 v=50
138240 On ch=6 n=g#4 v=0
138240 On ch=6 n=f#4 v=51
138240 On ch=6 n=f#3 v=51
138480 On ch=6 n=f#4 v=0
140160 On ch=6 n=f#3 v=0
140160 On ch=6 n=b3 v=54
141600 On ch=6 n=b3 v=0
141600 On ch=6 n=a3 v=55
142080 On ch=6 n=a3 v=0
142080 On ch=6 n=g#3 v=56
142560 On ch=6 n=g#3 v=0
142560 On ch=6 n=f#3 v=56
143040 On ch=6 n=f#3 v=0
143040 On ch=6 n=e3 v=54
143520 On ch=6 n=e3 v=0
143520 On ch=6 n=g#3 v=52
144000 On ch=6 n=g#3 v=0
144000 On ch=6 n=a3 v=50
144480 On ch=6 n=a3 v=0
144960 On ch=6 n=g#5 v=46
145440 On ch=6 n=g#5 v=0
145920 On ch=6 n=g5 v=41
146400 On ch=6 n=g5 v=0
146400 On ch=6 n=b3 v=78
146760 On ch=6 n=b3 v=0
146760 On ch=6 n=c#4 v=80
146880 On ch=6 n=c#4 v=0
146880 On ch=6 n=d#4 v=83
147360 On ch=6 n=d#4 v=0
147360 On ch=6 n=g#3 v=76
147840 On ch=6 n=g#3 v=0
147840 On ch=6 n=g#4 v=76
147840 On ch=6 n=g#3 v=76
148080 On ch=6 n=g#4 v=0
148080 On ch=6 n=g#4 v=66
148320 On ch=6 n=g#4 v=0
148320 On ch=6 n=g#4 v=67
148560 On ch=6 n=g#4 v=0
148560 On ch=6 n=g#4 v=68
148800 On ch=6 n=g#4 v=0
148800 On ch=6 n=a#4 v=69
149040 On ch=6 n=a#4 v=0
149040 On ch=6 n=a#4 v=69
149280 On ch=6 n=a#4 v=0
149280 On ch=6 n=g#4 v=70
149520 On ch=6 n=g#4 v=0
149520 On ch=6 n=g#4 v=71
149760 On ch=6 n=g#4 v=0
149760 On ch=6 n=g#3 v=0
149760 On ch=6 n=d5 v=59
150240 On ch=6 n=d5 v=0
151200 On ch=6 n=d5 v=58
151200 On ch=6 n=f5 v=58
151560 On ch=6 n=f5 v=0
151560 On ch=6 n=f#5 v=57
151680 On ch=6 n=f#5 v=0
151680 On ch=6 n=d5 v=0
151680 On ch=6 n=f5 v=57
151680 On ch=6 n=d5 v=57
151680 On ch=6 n=g#5 v=57
152160 On ch=6 n=g#5 v=0
152160 On ch=6 n=d5 v=0
152160 On ch=6 n=f5 v=0
153120 On ch=6 n=d5 v=55
153120 On ch=6 n=f5 v=55
153480 On ch=6 n=f5 v=0
153480 On ch=6 n=a#5 v=55
153600 On ch=6 n=a#5 v=0
153600 On ch=6 n=d5 v=0
153600 On ch=6 n=f#5 v=55
153600 On ch=6 n=d#5 v=55
153840 On ch=6 n=d#5 v=0
153840 On ch=6 n=f#5 v=0
154080 On ch=6 n=d#4 v=54
154080 On ch=6 n=f#4 v=54
154440 On ch=6 n=f#4 v=0
154440 On ch=6 n=a#4 v=54
154560 On ch=6 n=a#4 v=0
154560 On ch=6 n=d#4 v=0
154560 On ch=6 n=f4 v=54
154560 On ch=6 n=g#4 v=54
154800 On ch=6 n=g#4 v=0
154800 On ch=6 n=f4 v=0
155040 On ch=6 n=d5 v=53
155040 On ch=6 n=f5 v=53
155400 On ch=6 n=f5 v=0
155400 On ch=6 n=a#5 v=52
155520 On ch=6 n=a#5 v=0
155520 On ch=6 n=d5 v=0
155520 On ch=6 n=f#5 v=52
155520 On ch=6 n=d#5 v=52
155760 On ch=6 n=d#5 v=0
155760 On ch=6 n=f#5 v=0
156000 On ch=6 n=d#4 v=52
156000 On ch=6 n=f#4 v=52
156360 On ch=6 n=f#4 v=0
156360 On ch=6 n=a#4 v=51
156480 On ch=6 n=a#4 v=0
156480 On ch=6 n=d#4 v=0
156480 On ch=6 n=f#4 v=51
156480 On ch=6 n=d#4 v=51
156720 On ch=6 n=d#4 v=0
156720 On ch=6 n=f#4 v=0
156960 On ch=6 n=c5 v=51
156960 On ch=6 n=d#5 v=51
157320 On ch=6 n=d#5 v=0
157320 On ch=6 n=g#5 v=50
157440 On ch=6 n=g#5 v=0
157440 On ch=6 n=e5 v=50
157440 On ch=6 n=c#5 v=50
157447 On ch=6 n=c5 v=0
157680 On ch=6 n=c#5 v=0
157680 On ch=6 n=e5 v=0
157920 On ch=6 n=c#4 v=49
157920 On ch=6 n=e4 v=49
158280 On ch=6 n=e4 v=0
158280 On ch=6 n=g#4 v=49
158400 On ch=6 n=g#4 v=0
158400 On ch=6 n=c#4 v=0
158400 On ch=6 n=f#4 v=49
158400 On ch=6 n=d#4 v=49
158640 On ch=6 n=d#4 v=0
158640 On ch=6 n=f#4 v=0
158880 On ch=6 n=c5 v=48
158880 On ch=6 n=d#5 v=48
159240 On ch=6 n=d#5 v=0
159240 On ch=6 n=g#5 v=48
159360 On ch=6 n=g#5 v=0
159360 On ch=6 n=c5 v=0
159360 On ch=6 n=e5 v=48
159360 On ch=6 n=c#5 v=48
159600 On ch=6 n=c#5 v=0
159600 On ch=6 n=e5 v=0
159840 On ch=6 n=c#4 v=47
159840 On ch=6 n=e4 v=47
160200 On ch=6 n=e4 v=0
160200 On ch=6 n=g#4 v=47
160305 On ch=6 n=c#4 v=0
160320 On ch=6 n=g#4 v=0
160320 On ch=6 n=c#4 v=46
160320 On ch=6 n=f#4 v=46
160320 On ch=6 n=e4 v=46
160560 On ch=6 n=e4 v=0
160560 On ch=6 n=f#4 v=0
160560 On ch=6 n=c#4 v=0
160800 On ch=6 n=a#4 v=46
160800 On ch=6 n=c#5 v=46
161160 On ch=6 n=c#5 v=0
161160 On ch=6 n=f#5 v=45
161280 On ch=6 n=f#5 v=0
161280 On ch=6 n=d#5 v=45
161280 On ch=6 n=b4 v=45
161287 On ch=6 n=a#4 v=0
161520 On ch=6 n=b4 v=0
161520 On ch=6 n=d#5 v=0
161760 On ch=6 n=a#3 v=45
161760 On ch=6 n=c#4 v=45
162120 On ch=6 n=c#4 v=0
162120 On ch=6 n=f#4 v=44
162240 On ch=6 n=f#4 v=0
162240 On ch=6 n=b3 v=44
162240 On ch=6 n=d#4 v=44
162247 On ch=6 n=a#3 v=0
162480 On ch=6 n=d#4 v=0
162480 On ch=6 n=b3 v=0
162720 On ch=6 n=f#5 v=44
162840 On ch=6 n=f#5 v=0
162840 On ch=6 n=e5 v=45
162960 On ch=6 n=e5 v=0
162960 On ch=6 n=d#5 v=46
163080 On ch=6 n=d#5 v=0
163080 On ch=6 n=c#5 v=47
163200 On ch=6 n=c#5 v=0
163200 On ch=6 n=b4 v=48
163440 On ch=6 n=b4 v=0
163680 On ch=6 n=b5 v=52
163800 On ch=6 n=b5 v=0
163800 On ch=6 n=a#5 v=53
163920 On ch=6 n=a#5 v=0
163920 On ch=6 n=g#5 v=54
164040 On ch=6 n=g#5 v=0
164040 On ch=6 n=f#5 v=55
164160 On ch=6 n=f#5 v=0
164160 On ch=6 n=f5 v=56
164400 On ch=6 n=f5 v=0
164640 On ch=6 n=b5 v=60
164760 On ch=6 n=b5 v=0
164760 On ch=6 n=a#5 v=61
164880 On ch=6 n=a#5 v=0
164880 On ch=6 n=g#5 v=62
165000 On ch=6 n=g#5 v=0
165000 On ch=6 n=f#5 v=63
165120 On ch=6 n=f#5 v=0
165120 On ch=6 n=f5 v=64
165360 On ch=6 n=f5 v=0
165600 On ch=6 n=d#6 v=68
165720 On ch=6 n=d#6 v=0
165720 On ch=6 n=c#6 v=69
165840 On ch=6 n=c#6 v=0
165840 On ch=6 n=b5 v=70
165960 On ch=6 n=b5 v=0
165960 On ch=6 n=a#5 v=71
166080 On ch=6 n=a#5 v=0
166080 On ch=6 n=g#5 v=72
166200 On ch=6 n=g#5 v=0
166200 On ch=6 n=b5 v=73
166320 On ch=6 n=b5 v=0
166320 On ch=6 n=a#5 v=74
166440 On ch=6 n=a#5 v=0
166440 On ch=6 n=g#5 v=75
166560 On ch=6 n=g#5 v=0
166560 On ch=6 n=f#5 v=76
166680 On ch=6 n=f#5 v=0
166680 On ch=6 n=f5 v=77
166800 On ch=6 n=f5 v=0
166800 On ch=6 n=d#5 v=78
166920 On ch=6 n=d#5 v=0
166920 On ch=6 n=c#5 v=79
167040 On ch=6 n=c#5 v=0
167040 On ch=6 n=b4 v=78
167160 On ch=6 n=b4 v=0
167160 On ch=6 n=d#5 v=80
167280 On ch=6 n=d#5 v=0
167280 On ch=6 n=c#5 v=81
167400 On ch=6 n=c#5 v=0
167400 On ch=6 n=b4 v=82
167520 On ch=6 n=b4 v=0
167520 On ch=6 n=a#4 v=83
167640 On ch=6 n=a#4 v=0
167640 On ch=6 n=g#4 v=85
167760 On ch=6 n=g#4 v=0
167760 On ch=6 n=f#4 v=86
167880 On ch=6 n=f#4 v=0
167880 On ch=6 n=f4 v=87
168000 On ch=6 n=f4 v=0
168000 On ch=6 n=b4 v=88
168120 On ch=6 n=b4 v=0
168120 On ch=6 n=a#4 v=90
168240 On ch=6 n=a#4 v=0
168240 On ch=6 n=g#4 v=91
168360 On ch=6 n=g#4 v=0
168360 On ch=6 n=f#4 v=92
168480 On ch=6 n=f#4 v=0
168480 On ch=6 n=f4 v=93
168600 On ch=6 n=f4 v=0
168600 On ch=6 n=d#4 v=95
168720 On ch=6 n=d#4 v=0
168720 On ch=6 n=c#4 v=96
168840 On ch=6 n=c#4 v=0
168840 On ch=6 n=c4 v=98
168960 On ch=6 n=c4 v=0
168960 On ch=6 n=c#4 v=105
169920 On ch=6 n=f4 v=95
170880 On ch=6 n=f4 v=0
170880 On ch=6 n=c#4 v=0
170880 On ch=6 n=g#4 v=94
171040 On ch=6 n=g#4 v=0
171040 On ch=6 n=a#4 v=84
171200 On ch=6 n=a#4 v=0
171200 On ch=6 n=g#4 v=77
171360 On ch=6 n=g#4 v=0
171360 On ch=6 n=f#4 v=72
171520 On ch=6 n=f#4 v=0
171520 On ch=6 n=f4 v=67
171680 On ch=6 n=f4 v=0
171680 On ch=6 n=d#4 v=62
171840 On ch=6 n=d#4 v=0
171840 On ch=6 n=c#4 v=60
172000 On ch=6 n=c#4 v=0
172000 On ch=6 n=d#4 v=58
172160 On ch=6 n=d#4 v=0
172160 On ch=6 n=c#4 v=55
172320 On ch=6 n=c#4 v=0
172320 On ch=6 n=b3 v=53
172480 On ch=6 n=b3 v=0
172480 On ch=6 n=a#3 v=51
172640 On ch=6 n=a#3 v=0
172640 On ch=6 n=g#3 v=48
172800 On ch=6 n=g#3 v=0
172800 On ch=6 n=f#3 v=50
174720 On ch=6 n=f#3 v=0
174720 On ch=6 n=c#3 v=43
176640 On ch=6 n=c#3 v=0
176640 On ch=6 n=f#3 v=53
178080 On ch=6 n=f#3 v=0
178080 On ch=6 n=f#3 v=56
178560 On ch=6 n=f#3 v=0
178560 On ch=6 n=f#3 v=57
179040 On ch=6 n=f#3 v=0
179040 On ch=6 n=f#3 v=52
179520 On ch=6 n=f#3 v=0
179520 On ch=6 n=f#3 v=50
180000 On ch=6 n=f#3 v=0
180960 On ch=6 n=c#4 v=53
181080 On ch=6 n=c#4 v=0
181080 On ch=6 n=f4 v=52
181200 On ch=6 n=f4 v=0
181200 On ch=6 n=g#4 v=50
181320 On ch=6 n=g#4 v=0
181320 On ch=6 n=b4 v=49
181440 On ch=6 n=b4 v=0
181440 On ch=6 n=b3 v=47
181920 On ch=6 n=b3 v=0
182880 On ch=6 n=a#3 v=63
183000 On ch=6 n=a#3 v=0
183000 On ch=6 n=c#4 v=61
183120 On ch=6 n=c#4 v=0
183120 On ch=6 n=f#4 v=59
183240 On ch=6 n=f#4 v=0
183240 On ch=6 n=a#4 v=57
183360 On ch=6 n=a#4 v=0
183360 On ch=6 n=a#3 v=55
183840 On ch=6 n=a#3 v=0
184800 On ch=6 n=d#4 v=70
184920 On ch=6 n=d#4 v=0
184920 On ch=6 n=g4 v=69
185040 On ch=6 n=g4 v=0
185040 On ch=6 n=a#4 v=67
185160 On ch=6 n=a#4 v=0
185160 On ch=6 n=c#5 v=65
185280 On ch=6 n=c#5 v=0
185280 On ch=6 n=c#4 v=64
185760 On ch=6 n=c#4 v=0
186720 On ch=6 n=b3 v=80
186840 On ch=6 n=b3 v=0
186840 On ch=6 n=d#4 v=79
186960 On ch=6 n=d#4 v=0
186960 On ch=6 n=g#4 v=78
187080 On ch=6 n=g#4 v=0
187080 On ch=6 n=b4 v=77
187200 On ch=6 n=b4 v=0
187200 On ch=6 n=b3 v=75
187680 On ch=6 n=b3 v=0
187680 On ch=6 n=g#3 v=81
188160 On ch=6 n=g#3 v=0
188160 On ch=6 n=a3 v=83
189120 On ch=6 n=a3 v=0
189120 On ch=6 n=b3 v=88
190080 On ch=6 n=b3 v=0
190080 On ch=6 n=e4 v=95
190560 On ch=6 n=e4 v=0
190560 On ch=6 n=b3 v=92
191040 On ch=6 n=b3 v=0
191040 On ch=6 n=e3 v=86
191520 On ch=6 n=e3 v=0
192000 On ch=6 n=e4 v=45
192480 On ch=6 n=e4 v=0
192960 On ch=6 n=a3 v=46
193440 On ch=6 n=a3 v=0
193920 On ch=6 n=b4 v=60
194400 On ch=6 n=b4 v=0
194400 On ch=6 n=g#4 v=58
194880 On ch=6 n=g#4 v=0
194880 On ch=6 n=f#4 v=55
195360 On ch=6 n=f#4 v=0
195840 On ch=6 n=f#4 v=50
196320 On ch=6 n=f#4 v=0
196800 On ch=6 n=b3 v=51
197280 On ch=6 n=b3 v=0
197760 On ch=6 n=c#5 v=68
198240 On ch=6 n=c#5 v=0
198240 On ch=6 n=f#4 v=64
198720 On ch=6 n=f#4 v=0
198720 On ch=6 n=b4 v=59
199200 On ch=6 n=b4 v=0
199680 On ch=6 n=b4 v=56
200160 On ch=6 n=b4 v=0
200640 On ch=6 n=e4 v=57
201120 On ch=6 n=e4 v=0
201600 On ch=6 n=f#4 v=74
202080 On ch=6 n=f#4 v=0
202080 On ch=6 n=b3 v=71
202560 On ch=6 n=b3 v=0
202560 On ch=6 n=a#3 v=65
203040 On ch=6 n=a#3 v=0
203520 On ch=6 n=c#5 v=61
204000 On ch=6 n=c#5 v=0
204000 On ch=6 n=b4 v=62
204480 On ch=6 n=b4 v=0
204480 On ch=6 n=a#4 v=62
204960 On ch=6 n=a#4 v=0
205440 On ch=6 n=a#4 v=64
205920 On ch=6 n=a#4 v=0
206400 On ch=6 n=f#4 v=65
206880 On ch=6 n=f#4 v=0
207360 On ch=6 n=b4 v=67
207840 On ch=6 n=b4 v=0
208800 On ch=6 n=b5 v=69
209280 On ch=6 n=b5 v=0
209280 On ch=6 n=c#6 v=76
210720 On ch=6 n=c#6 v=0
210720 On ch=6 n=c#6 v=75
211200 On ch=6 n=c#6 v=0
211200 On ch=6 n=c#6 v=68
212160 On ch=6 n=c#6 v=0
212160 On ch=6 n=a#5 v=57
212640 On ch=6 n=a#5 v=0
212640 On ch=6 n=d#5 v=56
213120 On ch=6 n=d#5 v=0
213120 On ch=6 n=d#5 v=56
213600 On ch=6 n=d#5 v=0
213600 On ch=6 n=c#5 v=55
214080 On ch=6 n=c#5 v=0
214080 On ch=6 n=b4 v=55
214560 On ch=6 n=b4 v=0
214560 On ch=6 n=b4 v=54
215040 On ch=6 n=b4 v=0
215040 On ch=6 n=b4 v=60
215520 On ch=6 n=b4 v=0
215520 On ch=6 n=b4 v=53
216000 On ch=6 n=b4 v=0
216000 On ch=6 n=b4 v=58
216480 On ch=6 n=b4 v=0
216480 On ch=6 n=b4 v=52
216960 On ch=6 n=b4 v=0
216960 On ch=6 n=b4 v=59
217440 On ch=6 n=b4 v=0
217440 On ch=6 n=b4 v=51
217920 On ch=6 n=b4 v=0
218400 On ch=6 n=b4 v=50
218880 On ch=6 n=b4 v=0
218880 On ch=6 n=b4 v=56
219360 On ch=6 n=b4 v=0
219360 On ch=6 n=b4 v=49
219840 On ch=6 n=b4 v=0
219840 On ch=6 n=b4 v=54
220320 On ch=6 n=b4 v=0
220320 On ch=6 n=b4 v=48
220800 On ch=6 n=b4 v=0
220800 On ch=6 n=b4 v=55
221280 On ch=6 n=b4 v=0
221280 On ch=6 n=b4 v=47
221760 On ch=6 n=b4 v=0
222240 On ch=6 n=b4 v=46
222720 On ch=6 n=b4 v=0
222720 On ch=6 n=b4 v=48
223200 On ch=6 n=b4 v=0
223200 On ch=6 n=a#4 v=50
223680 On ch=6 n=a#4 v=0
223680 On ch=6 n=a#4 v=53
224160 On ch=6 n=a#4 v=0
224160 On ch=6 n=a#4 v=55
224640 On ch=6 n=a#4 v=0
224640 On ch=6 n=a4 v=58
225120 On ch=6 n=a4 v=0
225120 On ch=6 n=a4 v=60
225600 On ch=6 n=a4 v=0
225600 On ch=6 n=a4 v=63
226080 On ch=6 n=a4 v=0
226080 On ch=6 n=a4 v=65
226560 On ch=6 n=a4 v=0
226560 On ch=6 n=d3 v=68
227040 On ch=6 n=d3 v=0
227040 On ch=6 n=d3 v=70
227520 On ch=6 n=d3 v=0
227520 On ch=6 n=d3 v=73
228000 On ch=6 n=d3 v=0
228000 On ch=6 n=d3 v=75
228480 On ch=6 n=d3 v=0
228480 On ch=6 n=c#3 v=76
228480 On ch=6 n=c#4 v=76
230400 On ch=6 n=c#4 v=0
230400 On ch=6 n=c#3 v=0
230400 On ch=6 n=f#3 v=79
230880 On ch=6 n=f#3 v=0
231360 On ch=6 n=f#5 v=43
231520 On ch=6 n=f#5 v=0
231520 On ch=6 n=g#5 v=43
231680 On ch=6 n=g#5 v=0
231680 On ch=6 n=a#5 v=44
231840 On ch=6 n=a#5 v=0
231840 On ch=6 n=b5 v=44
232000 On ch=6 n=b5 v=0
232000 On ch=6 n=f#5 v=45
232160 On ch=6 n=f#5 v=0
232160 On ch=6 n=b5 v=45
232320 On ch=6 n=b5 v=0
232320 On ch=6 n=a#5 v=46
232320 On ch=6 n=f#5 v=46
232800 On ch=6 n=f#5 v=0
232800 On ch=6 n=a#5 v=0
233280 On ch=6 n=f#4 v=50
233440 On ch=6 n=f#4 v=0
233440 On ch=6 n=g#4 v=49
233600 On ch=6 n=g#4 v=0
233600 On ch=6 n=a#4 v=48
233760 On ch=6 n=a#4 v=0
233760 On ch=6 n=c#4 v=46
233760 On ch=6 n=b4 v=46
233920 On ch=6 n=b4 v=0
233920 On ch=6 n=g#4 v=45
234080 On ch=6 n=g#4 v=0
234080 On ch=6 n=c#5 v=44
234240 On ch=6 n=c#5 v=0
234240 On ch=6 n=c#4 v=0
234240 On ch=6 n=f#4 v=43
234240 On ch=6 n=a#4 v=43
234720 On ch=6 n=a#4 v=0
234720 On ch=6 n=f#4 v=0
235200 On ch=6 n=f#5 v=47
235360 On ch=6 n=f#5 v=0
235360 On ch=6 n=g#5 v=48
235520 On ch=6 n=g#5 v=0
235520 On ch=6 n=a#5 v=49
235680 On ch=6 n=a#5 v=0
235680 On ch=6 n=b5 v=50
235840 On ch=6 n=b5 v=0
235840 On ch=6 n=f#5 v=51
236000 On ch=6 n=f#5 v=0
236000 On ch=6 n=b5 v=52
236160 On ch=6 n=b5 v=0
236160 On ch=6 n=a#5 v=53
236160 On ch=6 n=f#5 v=53
236640 On ch=6 n=f#5 v=0
236640 On ch=6 n=a#5 v=0
237120 On ch=6 n=d#5 v=75
237600 On ch=6 n=d#5 v=0
237600 On ch=6 n=g#4 v=72
238080 On ch=6 n=g#4 v=0
238080 On ch=6 n=c#5 v=66
239040 On ch=6 n=c#5 v=0
239040 On ch=6 n=c#4 v=64
240000 On ch=6 n=c#4 v=0
240000 On ch=6 n=f#4 v=67
240480 On ch=6 n=f#4 v=0
240960 On ch=6 n=d#5 v=79
241440 On ch=6 n=d#5 v=0
241440 On ch=6 n=g#5 v=76
241920 On ch=6 n=g#5 v=0
241920 On ch=6 n=c#5 v=69
242880 On ch=6 n=c#5 v=0
242880 On ch=6 n=c#4 v=60
243840 On ch=6 n=c#4 v=0
243840 On ch=6 n=f#4 v=59
244320 On ch=6 n=f#4 v=0
244800 On ch=6 n=c#3 v=57
245760 On ch=6 n=c#3 v=0
245760 On ch=6 n=f#3 v=55
246240 On ch=6 n=f#3 v=0
246720 On ch=6 n=b3 v=57
246840 On ch=6 n=b3 v=0
246840 On ch=6 n=c#4 v=56
246960 On ch=6 n=c#4 v=0
246960 On ch=6 n=b3 v=56
247080 On ch=6 n=b3 v=0
247080 On ch=6 n=a#3 v=56
247200 On ch=6 n=a#3 v=0
247200 On ch=6 n=b3 v=56
247320 On ch=6 n=b3 v=0
247320 On ch=6 n=c#4 v=55
247440 On ch=6 n=c#4 v=0
247440 On ch=6 n=d#4 v=55
247560 On ch=6 n=d#4 v=0
247560 On ch=6 n=f4 v=55
247680 On ch=6 n=f4 v=0
247680 On ch=6 n=f#4 v=54
247800 On ch=6 n=f#4 v=0
247800 On ch=6 n=g#4 v=54
247920 On ch=6 n=g#4 v=0
247920 On ch=6 n=a#4 v=54
248040 On ch=6 n=a#4 v=0
248040 On ch=6 n=b4 v=54
248160 On ch=6 n=b4 v=0
248160 On ch=6 n=c#5 v=53
248280 On ch=6 n=c#5 v=0
248280 On ch=6 n=b4 v=53
248400 On ch=6 n=b4 v=0
248400 On ch=6 n=a#4 v=53
248520 On ch=6 n=a#4 v=0
248520 On ch=6 n=g#4 v=53
248640 On ch=6 n=g#4 v=0
248640 On ch=6 n=f#4 v=52
248760 On ch=6 n=f#4 v=0
248760 On ch=6 n=f4 v=52
248880 On ch=6 n=f4 v=0
248880 On ch=6 n=d#4 v=52
249000 On ch=6 n=d#4 v=0
249000 On ch=6 n=c#4 v=52
249120 On ch=6 n=c#4 v=0
249120 On ch=6 n=d#4 v=51
249240 On ch=6 n=d#4 v=0
249240 On ch=6 n=c#4 v=51
249360 On ch=6 n=c#4 v=0
249360 On ch=6 n=d#4 v=51
249480 On ch=6 n=d#4 v=0
249480 On ch=6 n=f4 v=50
249600 On ch=6 n=f4 v=0
249600 On ch=6 n=f#4 v=50
249720 On ch=6 n=f#4 v=0
249720 On ch=6 n=g#4 v=50
249840 On ch=6 n=g#4 v=0
249840 On ch=6 n=a#4 v=50
249960 On ch=6 n=a#4 v=0
249960 On ch=6 n=b4 v=49
250080 On ch=6 n=b4 v=0
250080 On ch=6 n=c#5 v=49
250200 On ch=6 n=c#5 v=0
250200 On ch=6 n=d#5 v=49
250320 On ch=6 n=d#5 v=0
250320 On ch=6 n=c#5 v=49
250440 On ch=6 n=c#5 v=0
250440 On ch=6 n=b4 v=48
250560 On ch=6 n=b4 v=0
250560 On ch=6 n=a#4 v=48
250680 On ch=6 n=a#4 v=0
250680 On ch=6 n=b4 v=48
250800 On ch=6 n=b4 v=0
250800 On ch=6 n=c#5 v=48
250920 On ch=6 n=c#5 v=0
250920 On ch=6 n=b4 v=47
251040 On ch=6 n=b4 v=0
251040 On ch=6 n=a#4 v=47
251160 On ch=6 n=a#4 v=0
251160 On ch=6 n=b4 v=47
251280 On ch=6 n=b4 v=0
251280 On ch=6 n=a#4 v=46
251400 On ch=6 n=a#4 v=0
251400 On ch=6 n=g#4 v=46
251520 On ch=6 n=g#4 v=0
251520 On ch=6 n=f#4 v=46
251640 On ch=6 n=f#4 v=0
251640 On ch=6 n=g#4 v=46
251760 On ch=6 n=g#4 v=0
251760 On ch=6 n=a#4 v=45
251880 On ch=6 n=a#4 v=0
251880 On ch=6 n=b4 v=45
252000 On ch=6 n=b4 v=0
252000 On ch=6 n=c#5 v=45
252120 On ch=6 n=c#5 v=0
252120 On ch=6 n=b4 v=45
252240 On ch=6 n=b4 v=0
252240 On ch=6 n=a#4 v=44
252360 On ch=6 n=a#4 v=0
252360 On ch=6 n=g#4 v=44
252480 On ch=6 n=g#4 v=0
252480 On ch=6 n=f#4 v=44
252600 On ch=6 n=f#4 v=0
252600 On ch=6 n=a#4 v=44
252720 On ch=6 n=a#4 v=0
252720 On ch=6 n=g#4 v=43
252840 On ch=6 n=g#4 v=0
252840 On ch=6 n=f#4 v=43
252960 On ch=6 n=f#4 v=0
252960 On ch=6 n=e4 v=43
253080 On ch=6 n=e4 v=0
253080 On ch=6 n=d#4 v=42
253200 On ch=6 n=d#4 v=0
253200 On ch=6 n=c#4 v=42
253320 On ch=6 n=c#4 v=0
253320 On ch=6 n=b3 v=42
253440 On ch=6 n=b3 v=0
253440 On ch=6 n=a#3 v=42
253560 On ch=6 n=a#3 v=0
253560 On ch=6 n=b3 v=45
253680 On ch=6 n=b3 v=0
253680 On ch=6 n=c#4 v=45
253800 On ch=6 n=c#4 v=0
253800 On ch=6 n=b3 v=46
253920 On ch=6 n=b3 v=0
253920 On ch=6 n=a#3 v=47
254040 On ch=6 n=a#3 v=0
254040 On ch=6 n=c#4 v=47
254160 On ch=6 n=c#4 v=0
254160 On ch=6 n=e4 v=48
254280 On ch=6 n=e4 v=0
254280 On ch=6 n=f#4 v=49
254400 On ch=6 n=f#4 v=0
254400 On ch=6 n=g4 v=50
254520 On ch=6 n=g4 v=0
254520 On ch=6 n=e4 v=50
254640 On ch=6 n=e4 v=0
254640 On ch=6 n=c#4 v=51
254760 On ch=6 n=c#4 v=0
254760 On ch=6 n=b3 v=52
254880 On ch=6 n=b3 v=0
254880 On ch=6 n=a#3 v=52
255000 On ch=6 n=a#3 v=0
255000 On ch=6 n=c#4 v=53
255120 On ch=6 n=c#4 v=0
255120 On ch=6 n=e4 v=54
255240 On ch=6 n=e4 v=0
255240 On ch=6 n=f#4 v=55
255360 On ch=6 n=f#4 v=0
255360 On ch=6 n=g4 v=55
255480 On ch=6 n=g4 v=0
255480 On ch=6 n=e4 v=56
255600 On ch=6 n=e4 v=0
255600 On ch=6 n=c#4 v=57
255720 On ch=6 n=c#4 v=0
255720 On ch=6 n=b3 v=57
255840 On ch=6 n=b3 v=0
255840 On ch=6 n=a#3 v=58
255960 On ch=6 n=a#3 v=0
255960 On ch=6 n=c#4 v=59
256080 On ch=6 n=c#4 v=0
256080 On ch=6 n=f#4 v=60
256200 On ch=6 n=f#4 v=0
256200 On ch=6 n=a#4 v=60
256320 On ch=6 n=a#4 v=0
256320 On ch=6 n=b3 v=61
256440 On ch=6 n=b3 v=0
256440 On ch=6 n=d4 v=62
256560 On ch=6 n=d4 v=0
256560 On ch=6 n=f#4 v=62
256680 On ch=6 n=f#4 v=0
256680 On ch=6 n=b4 v=63
256800 On ch=6 n=b4 v=0
256800 On ch=6 n=d4 v=64
256920 On ch=6 n=d4 v=0
256920 On ch=6 n=f#4 v=65
257040 On ch=6 n=f#4 v=0
257040 On ch=6 n=b4 v=65
257160 On ch=6 n=b4 v=0
257160 On ch=6 n=d5 v=66
257280 On ch=6 n=d5 v=0
257280 On ch=6 n=f4 v=67
257400 On ch=6 n=f4 v=0
257400 On ch=6 n=g#4 v=67
257520 On ch=6 n=g#4 v=0
257520 On ch=6 n=b4 v=68
257640 On ch=6 n=b4 v=0
257640 On ch=6 n=d5 v=69
257760 On ch=6 n=d5 v=0
257760 On ch=6 n=f5 v=70
257880 On ch=6 n=f5 v=0
257880 On ch=6 n=g#5 v=70
258000 On ch=6 n=g#5 v=0
258000 On ch=6 n=b5 v=71
258120 On ch=6 n=b5 v=0
258120 On ch=6 n=g#5 v=72
258240 On ch=6 n=g#5 v=0
258240 On ch=6 n=f5 v=77
258360 On ch=6 n=f5 v=0
258360 On ch=6 n=g#5 v=74
258480 On ch=6 n=g#5 v=0
258480 On ch=6 n=b5 v=70
258600 On ch=6 n=b5 v=0
258600 On ch=6 n=g#5 v=67
258720 On ch=6 n=g#5 v=0
258720 On ch=6 n=f5 v=63
258840 On ch=6 n=f5 v=0
258840 On ch=6 n=g#5 v=60
258960 On ch=6 n=g#5 v=0
258960 On ch=6 n=b5 v=56
259080 On ch=6 n=b5 v=0
259080 On ch=6 n=g#5 v=53
259200 On ch=6 n=g#5 v=0
259200 On ch=6 n=f5 v=49
259320 On ch=6 n=f5 v=0
259320 On ch=6 n=b5 v=48
259440 On ch=6 n=b5 v=0
259440 On ch=6 n=a#5 v=49
259560 On ch=6 n=a#5 v=0
259560 On ch=6 n=g#5 v=50
259680 On ch=6 n=g#5 v=0
259680 On ch=6 n=c#6 v=51
259800 On ch=6 n=c#6 v=0
259800 On ch=6 n=b5 v=52
259920 On ch=6 n=b5 v=0
259920 On ch=6 n=a#5 v=53
260040 On ch=6 n=a#5 v=0
260040 On ch=6 n=g#5 v=53
260160 On ch=6 n=g#5 v=0
260160 On ch=6 n=f#5 v=54
260280 On ch=6 n=f#5 v=0
260280 On ch=6 n=c#6 v=55
260400 On ch=6 n=c#6 v=0
260400 On ch=6 n=b5 v=56
260520 On ch=6 n=b5 v=0
260520 On ch=6 n=a#5 v=57
260640 On ch=6 n=a#5 v=0
260640 On ch=6 n=f#6 v=58
260760 On ch=6 n=f#6 v=0
260760 On ch=6 n=f6 v=58
260880 On ch=6 n=f6 v=0
260880 On ch=6 n=d#6 v=59
261000 On ch=6 n=d#6 v=0
261000 On ch=6 n=c#6 v=60
261120 On ch=6 n=c#6 v=0
261120 On ch=6 n=b5 v=61
261240 On ch=6 n=b5 v=0
261240 On ch=6 n=a#5 v=62
261360 On ch=6 n=a#5 v=0
261360 On ch=6 n=d#6 v=63
261480 On ch=6 n=d#6 v=0
261480 On ch=6 n=c#6 v=63
261600 On ch=6 n=c#6 v=0
261600 On ch=6 n=b5 v=64
261720 On ch=6 n=b5 v=0
261720 On ch=6 n=a#5 v=65
261840 On ch=6 n=a#5 v=0
261840 On ch=6 n=g#5 v=66
261960 On ch=6 n=g#5 v=0
261960 On ch=6 n=f#5 v=67
262080 On ch=6 n=f#5 v=0
262080 On ch=6 n=f5 v=68
262200 On ch=6 n=f5 v=0
262200 On ch=6 n=f#5 v=69
262320 On ch=6 n=f#5 v=0
262320 On ch=6 n=g#5 v=69
262440 On ch=6 n=g#5 v=0
262440 On ch=6 n=f#5 v=70
262560 On ch=6 n=f#5 v=0
262560 On ch=6 n=c5 v=71
262680 On ch=6 n=c5 v=0
262680 On ch=6 n=c#5 v=72
262800 On ch=6 n=c#5 v=0
262800 On ch=6 n=d#5 v=73
262920 On ch=6 n=d#5 v=0
262920 On ch=6 n=c#5 v=74
263040 On ch=6 n=c#5 v=0
263040 On ch=6 n=a4 v=74
263160 On ch=6 n=a4 v=0
263160 On ch=6 n=a#4 v=75
263280 On ch=6 n=a#4 v=0
263280 On ch=6 n=b4 v=76
263400 On ch=6 n=b4 v=0
263400 On ch=6 n=a#4 v=77
263520 On ch=6 n=a#4 v=0
263520 On ch=6 n=f4 v=78
263640 On ch=6 n=f4 v=0
263640 On ch=6 n=f#4 v=79
263760 On ch=6 n=f#4 v=0
263760 On ch=6 n=g#4 v=80
263880 On ch=6 n=g#4 v=0
263880 On ch=6 n=f#4 v=80
264000 On ch=6 n=f#4 v=0
264000 On ch=6 n=c4 v=81
264120 On ch=6 n=c4 v=0
264120 On ch=6 n=c#4 v=82
264240 On ch=6 n=c#4 v=0
264240 On ch=6 n=d#4 v=83
264360 On ch=6 n=d#4 v=0
264360 On ch=6 n=c#4 v=84
264480 On ch=6 n=c#4 v=0
264480 On ch=6 n=a3 v=85
264600 On ch=6 n=a3 v=0
264600 On ch=6 n=a#3 v=85
264720 On ch=6 n=a#3 v=0
264720 On ch=6 n=b3 v=86
264840 On ch=6 n=b3 v=0
264840 On ch=6 n=a#3 v=87
264960 On ch=6 n=a#3 v=0
264960 On ch=6 n=f#3 v=88
265440 On ch=6 n=f#3 v=0
265440 Par ch=6 c=64 v=0
266640 Par ch=6 c=64 v=0
266880 On ch=6 n=f#3 v=52
266880 On ch=6 n=f#4 v=52
267120 On ch=6 n=f#4 v=0
268800 On ch=6 n=f#3 v=0
268800 On ch=6 n=b3 v=54
270240 On ch=6 n=b3 v=0
270240 On ch=6 n=a3 v=55
270720 On ch=6 n=a3 v=0
270720 On ch=6 n=g#3 v=56
271200 On ch=6 n=g#3 v=0
271200 On ch=6 n=f#3 v=56
271680 On ch=6 n=f#3 v=0
271680 On ch=6 n=e3 v=54
272160 On ch=6 n=e3 v=0
272160 On ch=6 n=g#3 v=52
272640 On ch=6 n=g#3 v=0
272640 On ch=6 n=a3 v=50
273120 On ch=6 n=a3 v=0
273600 On ch=6 n=g#5 v=46
274080 On ch=6 n=g#5 v=0
274560 On ch=6 n=g5 v=41
275040 On ch=6 n=g5 v=0
275040 On ch=6 n=b3 v=78
275400 On ch=6 n=b3 v=0
275400 On ch=6 n=c#4 v=80
275520 On ch=6 n=c#4 v=0
275520 On ch=6 n=d#4 v=83
276000 On ch=6 n=d#4 v=0
276000 On ch=6 n=g#3 v=76
276480 On ch=6 n=g#3 v=0
276480 On ch=6 n=g#3 v=76
276480 On ch=6 n=g#4 v=76
276720 On ch=6 n=g#4 v=0
276720 On ch=6 n=g#4 v=66
276960 On ch=6 n=g#4 v=0
276960 On ch=6 n=g#4 v=67
277200 On ch=6 n=g#4 v=0
277200 On ch=6 n=g#4 v=68
277440 On ch=6 n=g#4 v=0
277440 On ch=6 n=a#4 v=69
277680 On ch=6 n=a#4 v=0
277680 On ch=6 n=a#4 v=69
277920 On ch=6 n=a#4 v=0
277920 On ch=6 n=g#4 v=70
278160 On ch=6 n=g#4 v=0
278160 On ch=6 n=g#4 v=71
278400 On ch=6 n=g#4 v=0
278400 On ch=6 n=g#3 v=0
278400 On ch=6 n=d5 v=59
278880 On ch=6 n=d5 v=0
279840 On ch=6 n=f5 v=58
279840 On ch=6 n=d5 v=58
280200 On ch=6 n=f5 v=0
280200 On ch=6 n=f#5 v=57
280320 On ch=6 n=f#5 v=0
280320 On ch=6 n=d5 v=0
280320 On ch=6 n=g#5 v=57
280320 On ch=6 n=d5 v=57
280320 On ch=6 n=f5 v=57
280800 On ch=6 n=f5 v=0
280800 On ch=6 n=d5 v=0
280800 On ch=6 n=g#5 v=0
281760 On ch=6 n=f5 v=55
281760 On ch=6 n=d5 v=55
282120 On ch=6 n=f5 v=0
282120 On ch=6 n=a#5 v=55
282240 On ch=6 n=a#5 v=0
282240 On ch=6 n=d5 v=0
282240 On ch=6 n=d#5 v=55
282240 On ch=6 n=f#5 v=55
282480 On ch=6 n=f#5 v=0
282480 On ch=6 n=d#5 v=0
282720 On ch=6 n=f#4 v=54
282720 On ch=6 n=d#4 v=54
283080 On ch=6 n=f#4 v=0
283080 On ch=6 n=a#4 v=54
283200 On ch=6 n=a#4 v=0
283200 On ch=6 n=d#4 v=0
283200 On ch=6 n=g#4 v=54
283200 On ch=6 n=f4 v=54
283440 On ch=6 n=f4 v=0
283440 On ch=6 n=g#4 v=0
283680 On ch=6 n=f5 v=53
283680 On ch=6 n=d5 v=53
284040 On ch=6 n=f5 v=0
284040 On ch=6 n=a#5 v=52
284160 On ch=6 n=a#5 v=0
284160 On ch=6 n=d5 v=0
284160 On ch=6 n=d#5 v=52
284160 On ch=6 n=f#5 v=52
284400 On ch=6 n=f#5 v=0
284400 On ch=6 n=d#5 v=0
284640 On ch=6 n=f#4 v=52
284640 On ch=6 n=d#4 v=52
285000 On ch=6 n=f#4 v=0
285000 On ch=6 n=a#4 v=51
285120 On ch=6 n=a#4 v=0
285120 On ch=6 n=d#4 v=0
285120 On ch=6 n=d#4 v=51
285120 On ch=6 n=f#4 v=51
285360 On ch=6 n=f#4 v=0
285360 On ch=6 n=d#4 v=0
285600 On ch=6 n=d#5 v=51
285600 On ch=6 n=c5 v=51
285960 On ch=6 n=d#5 v=0
285960 On ch=6 n=g#5 v=50
286080 On ch=6 n=g#5 v=0
286080 On ch=6 n=c#5 v=50
286080 On ch=6 n=e5 v=50
286087 On ch=6 n=c5 v=0
286320 On ch=6 n=e5 v=0
286320 On ch=6 n=c#5 v=0
286560 On ch=6 n=e4 v=49
286560 On ch=6 n=c#4 v=49
286920 On ch=6 n=e4 v=0
286920 On ch=6 n=g#4 v=49
287040 On ch=6 n=g#4 v=0
287040 On ch=6 n=c#4 v=0
287040 On ch=6 n=d#4 v=49
287040 On ch=6 n=f#4 v=49
287280 On ch=6 n=f#4 v=0
287280 On ch=6 n=d#4 v=0
287520 On ch=6 n=d#5 v=48
287520 On ch=6 n=c5 v=48
287880 On ch=6 n=d#5 v=0
287880 On ch=6 n=g#5 v=48
288000 On ch=6 n=g#5 v=0
288000 On ch=6 n=c5 v=0
288000 On ch=6 n=c#5 v=48
288000 On ch=6 n=e5 v=48
288240 On ch=6 n=e5 v=0
288240 On ch=6 n=c#5 v=0
288480 On ch=6 n=e4 v=47
288480 On ch=6 n=c#4 v=47
288840 On ch=6 n=e4 v=0
288840 On ch=6 n=g#4 v=47
288945 On ch=6 n=c#4 v=0
288960 On ch=6 n=g#4 v=0
288960 On ch=6 n=e4 v=46
288960 On ch=6 n=f#4 v=46
288960 On ch=6 n=c#4 v=46
289200 On ch=6 n=c#4 v=0
289200 On ch=6 n=f#4 v=0
289200 On ch=6 n=e4 v=0
289440 On ch=6 n=c#5 v=46
289440 On ch=6 n=a#4 v=46
289800 On ch=6 n=c#5 v=0
289800 On ch=6 n=f#5 v=45
289920 On ch=6 n=f#5 v=0
289920 On ch=6 n=b4 v=45
289920 On ch=6 n=d#5 v=45
289927 On ch=6 n=a#4 v=0
290160 On ch=6 n=d#5 v=0
290160 On ch=6 n=b4 v=0
290400 On ch=6 n=c#4 v=45
290400 On ch=6 n=a#3 v=45
290760 On ch=6 n=c#4 v=0
290760 On ch=6 n=f#4 v=44
290880 On ch=6 n=f#4 v=0
290880 On ch=6 n=d#4 v=44
290880 On ch=6 n=b3 v=44
290887 On ch=6 n=a#3 v=0
291120 On ch=6 n=b3 v=0
291120 On ch=6 n=d#4 v=0
291360 On ch=6 n=f#5 v=44
291480 On ch=6 n=f#5 v=0
291480 On ch=6 n=e5 v=45
291600 On ch=6 n=e5 v=0
291600 On ch=6 n=d#5 v=46
291720 On ch=6 n=d#5 v=0
291720 On ch=6 n=c#5 v=47
291840 On ch=6 n=c#5 v=0
291840 On ch=6 n=b4 v=48
292080 On ch=6 n=b4 v=0
292320 On ch=6 n=b5 v=52
292440 On ch=6 n=b5 v=0
292440 On ch=6 n=a#5 v=53
292560 On ch=6 n=a#5 v=0
292560 On ch=6 n=g#5 v=54
292680 On ch=6 n=g#5 v=0
292680 On ch=6 n=f#5 v=55
292800 On ch=6 n=f#5 v=0
292800 On ch=6 n=f5 v=56
293040 On ch=6 n=f5 v=0
293280 On ch=6 n=b5 v=60
293400 On ch=6 n=b5 v=0
293400 On ch=6 n=a#5 v=61
293520 On ch=6 n=a#5 v=0
293520 On ch=6 n=g#5 v=62
293640 On ch=6 n=g#5 v=0
293640 On ch=6 n=f#5 v=63
293760 On ch=6 n=f#5 v=0
293760 On ch=6 n=f5 v=64
294000 On ch=6 n=f5 v=0
294240 On ch=6 n=d#6 v=68
294360 On ch=6 n=d#6 v=0
294360 On ch=6 n=c#6 v=69
294480 On ch=6 n=c#6 v=0
294480 On ch=6 n=b5 v=70
294600 On ch=6 n=b5 v=0
294600 On ch=6 n=a#5 v=71
294720 On ch=6 n=a#5 v=0
294720 On ch=6 n=g#5 v=72
294840 On ch=6 n=g#5 v=0
294840 On ch=6 n=b5 v=73
294960 On ch=6 n=b5 v=0
294960 On ch=6 n=a#5 v=74
295080 On ch=6 n=a#5 v=0
295080 On ch=6 n=g#5 v=75
295200 On ch=6 n=g#5 v=0
295200 On ch=6 n=f#5 v=76
295320 On ch=6 n=f#5 v=0
295320 On ch=6 n=f5 v=77
295440 On ch=6 n=f5 v=0
295440 On ch=6 n=d#5 v=78
295560 On ch=6 n=d#5 v=0
295560 On ch=6 n=c#5 v=79
295680 On ch=6 n=c#5 v=0
295680 On ch=6 n=b4 v=78
295800 On ch=6 n=b4 v=0
295800 On ch=6 n=d#5 v=80
295920 On ch=6 n=d#5 v=0
295920 On ch=6 n=c#5 v=81
296040 On ch=6 n=c#5 v=0
296040 On ch=6 n=b4 v=82
296160 On ch=6 n=b4 v=0
296160 On ch=6 n=a#4 v=83
296280 On ch=6 n=a#4 v=0
296280 On ch=6 n=g#4 v=85
296400 On ch=6 n=g#4 v=0
296400 On ch=6 n=f#4 v=86
296520 On ch=6 n=f#4 v=0
296520 On ch=6 n=f4 v=87
296640 On ch=6 n=f4 v=0
296640 On ch=6 n=b4 v=88
296760 On ch=6 n=b4 v=0
296760 On ch=6 n=a#4 v=90
296880 On ch=6 n=a#4 v=0
296880 On ch=6 n=g#4 v=91
297000 On ch=6 n=g#4 v=0
297000 On ch=6 n=f#4 v=92
297120 On ch=6 n=f#4 v=0
297120 On ch=6 n=f4 v=93
297240 On ch=6 n=f4 v=0
297240 On ch=6 n=d#4 v=95
297360 On ch=6 n=d#4 v=0
297360 On ch=6 n=c#4 v=96
297480 On ch=6 n=c#4 v=0
297480 On ch=6 n=c4 v=98
297600 On ch=6 n=c4 v=0
297600 On ch=6 n=c#4 v=105
298560 On ch=6 n=f4 v=95
299520 On ch=6 n=f4 v=0
299520 On ch=6 n=c#4 v=0
299520 On ch=6 n=g#4 v=94
299680 On ch=6 n=g#4 v=0
299680 On ch=6 n=a#4 v=84
299840 On ch=6 n=a#4 v=0
299840 On ch=6 n=g#4 v=77
300000 On ch=6 n=g#4 v=0
300000 On ch=6 n=f#4 v=72
300160 On ch=6 n=f#4 v=0
300160 On ch=6 n=f4 v=67
300320 On ch=6 n=f4 v=0
300320 On ch=6 n=d#4 v=62
300480 On ch=6 n=d#4 v=0
300480 On ch=6 n=c#4 v=60
300640 On ch=6 n=c#4 v=0
300640 On ch=6 n=d#4 v=58
300800 On ch=6 n=d#4 v=0
300800 On ch=6 n=c#4 v=55
300960 On ch=6 n=c#4 v=0
300960 On ch=6 n=b3 v=53
301120 On ch=6 n=b3 v=0
301120 On ch=6 n=a#3 v=51
301280 On ch=6 n=a#3 v=0
301280 On ch=6 n=g#3 v=48
301440 On ch=6 n=g#3 v=0
301440 On ch=6 n=f#3 v=50
303360 On ch=6 n=f#3 v=0
303360 On ch=6 n=c#3 v=43
305280 On ch=6 n=c#3 v=0
305280 On ch=6 n=f#3 v=53
306720 On ch=6 n=f#3 v=0
306720 On ch=6 n=f#3 v=56
307200 On ch=6 n=f#3 v=0
307200 On ch=6 n=f#3 v=57
307680 On ch=6 n=f#3 v=0
307680 On ch=6 n=f#3 v=52
308160 On ch=6 n=f#3 v=0
308160 On ch=6 n=f#3 v=50
308640 On ch=6 n=f#3 v=0
309600 On ch=6 n=c#4 v=53
309720 On ch=6 n=c#4 v=0
309720 On ch=6 n=f4 v=52
309840 On ch=6 n=f4 v=0
309840 On ch=6 n=g#4 v=50
309960 On ch=6 n=g#4 v=0
309960 On ch=6 n=b4 v=49
310080 On ch=6 n=b4 v=0
310080 On ch=6 n=b3 v=47
310560 On ch=6 n=b3 v=0
311520 On ch=6 n=a#3 v=63
311640 On ch=6 n=a#3 v=0
311640 On ch=6 n=c#4 v=61
311760 On ch=6 n=c#4 v=0
311760 On ch=6 n=f#4 v=59
311880 On ch=6 n=f#4 v=0
311880 On ch=6 n=a#4 v=57
312000 On ch=6 n=a#4 v=0
312000 On ch=6 n=a#3 v=55
312480 On ch=6 n=a#3 v=0
313440 On ch=6 n=d#4 v=70
313560 On ch=6 n=d#4 v=0
313560 On ch=6 n=g4 v=69
313680 On ch=6 n=g4 v=0
313680 On ch=6 n=a#4 v=67
313800 On ch=6 n=a#4 v=0
313800 On ch=6 n=c#5 v=65
313920 On ch=6 n=c#5 v=0
313920 On ch=6 n=c#4 v=64
314400 On ch=6 n=c#4 v=0
315360 On ch=6 n=b3 v=80
315480 On ch=6 n=b3 v=0
315480 On ch=6 n=d#4 v=79
315600 On ch=6 n=d#4 v=0
315600 On ch=6 n=g#4 v=78
315720 On ch=6 n=g#4 v=0
315720 On ch=6 n=b4 v=77
315840 On ch=6 n=b4 v=0
315840 On ch=6 n=b3 v=75
316320 On ch=6 n=b3 v=0
316320 On ch=6 n=g#3 v=81
316800 On ch=6 n=g#3 v=0
316800 On ch=6 n=a3 v=83
317760 On ch=6 n=a3 v=0
317760 On ch=6 n=b3 v=88
318720 On ch=6 n=b3 v=0
318720 On ch=6 n=e4 v=95
319200 On ch=6 n=e4 v=0
319200 On ch=6 n=b3 v=92
319680 On ch=6 n=b3 v=0
319680 On ch=6 n=e3 v=86
320160 On ch=6 n=e3 v=0
320640 On ch=6 n=e4 v=45
321120 On ch=6 n=e4 v=0
321600 On ch=6 n=a3 v=46
322080 On ch=6 n=a3 v=0
322560 On ch=6 n=b4 v=60
323040 On ch=6 n=b4 v=0
323040 On ch=6 n=g#4 v=58
323520 On ch=6 n=g#4 v=0
323520 On ch=6 n=f#4 v=55
324000 On ch=6 n=f#4 v=0
324480 On ch=6 n=f#4 v=50
324960 On ch=6 n=f#4 v=0
325440 On ch=6 n=b3 v=51
325920 On ch=6 n=b3 v=0
326400 On ch=6 n=c#5 v=68
326880 On ch=6 n=c#5 v=0
326880 On ch=6 n=f#4 v=64
327360 On ch=6 n=f#4 v=0
327360 On ch=6 n=b4 v=59
327840 On ch=6 n=b4 v=0
328320 On ch=6 n=b4 v=56
328800 On ch=6 n=b4 v=0
329280 On ch=6 n=e4 v=57
329760 On ch=6 n=e4 v=0
330240 On ch=6 n=f#4 v=74
330720 On ch=6 n=f#4 v=0
330720 On ch=6 n=b3 v=71
331200 On ch=6 n=b3 v=0
331200 On ch=6 n=a#3 v=65
331680 On ch=6 n=a#3 v=0
332160 On ch=6 n=c#5 v=61
332640 On ch=6 n=c#5 v=0
332640 On ch=6 n=b4 v=62
333120 On ch=6 n=b4 v=0
333120 On ch=6 n=a#4 v=62
333600 On ch=6 n=a#4 v=0
334080 On ch=6 n=a#4 v=64
334560 On ch=6 n=a#4 v=0
335040 On ch=6 n=f#4 v=65
335520 On ch=6 n=f#4 v=0
336000 On ch=6 n=b4 v=67
336480 On ch=6 n=b4 v=0
337440 On ch=6 n=b5 v=69
337920 On ch=6 n=b5 v=0
337920 On ch=6 n=c#6 v=76
339360 On ch=6 n=c#6 v=0
339360 On ch=6 n=c#6 v=75
339840 On ch=6 n=c#6 v=0
339840 On ch=6 n=c#6 v=68
340800 On ch=6 n=c#6 v=0
340800 On ch=6 n=a#5 v=57
341280 On ch=6 n=a#5 v=0
341280 On ch=6 n=d#5 v=56
341760 On ch=6 n=d#5 v=0
341760 On ch=6 n=d#5 v=56
342240 On ch=6 n=d#5 v=0
342240 On ch=6 n=c#5 v=55
342720 On ch=6 n=c#5 v=0
342720 On ch=6 n=b4 v=55
343200 On ch=6 n=b4 v=0
343200 On ch=6 n=b4 v=54
343680 On ch=6 n=b4 v=0
343680 On ch=6 n=b4 v=60
344160 On ch=6 n=b4 v=0
344160 On ch=6 n=b4 v=53
344640 On ch=6 n=b4 v=0
344640 On ch=6 n=b4 v=58
345120 On ch=6 n=b4 v=0
345120 On ch=6 n=b4 v=52
345600 On ch=6 n=b4 v=0
345600 On ch=6 n=b4 v=59
346080 On ch=6 n=b4 v=0
346080 On ch=6 n=b4 v=51
346560 On ch=6 n=b4 v=0
347040 On ch=6 n=b4 v=50
347520 On ch=6 n=b4 v=0
347520 On ch=6 n=b4 v=56
348000 On ch=6 n=b4 v=0
348000 On ch=6 n=b4 v=49
348480 On ch=6 n=b4 v=0
348480 On ch=6 n=b4 v=54
348960 On ch=6 n=b4 v=0
348960 On ch=6 n=b4 v=48
349440 On ch=6 n=b4 v=0
349440 On ch=6 n=b4 v=55
349920 On ch=6 n=b4 v=0
349920 On ch=6 n=b4 v=47
350400 On ch=6 n=b4 v=0
350880 On ch=6 n=b4 v=46
351360 On ch=6 n=b4 v=0
351360 On ch=6 n=b4 v=48
351840 On ch=6 n=b4 v=0
351840 On ch=6 n=a#4 v=50
352320 On ch=6 n=a#4 v=0
352320 On ch=6 n=a#4 v=53
352800 On ch=6 n=a#4 v=0
352800 On ch=6 n=a#4 v=55
353280 On ch=6 n=a#4 v=0
353280 On ch=6 n=a4 v=58
353760 On ch=6 n=a4 v=0
353760 On ch=6 n=a4 v=60
354240 On ch=6 n=a4 v=0
354240 On ch=6 n=a4 v=63
354720 On ch=6 n=a4 v=0
354720 On ch=6 n=a4 v=65
355200 On ch=6 n=a4 v=0
355200 On ch=6 n=d3 v=68
355680 On ch=6 n=d3 v=0
355680 On ch=6 n=d3 v=70
356160 On ch=6 n=d3 v=0
356160 On ch=6 n=d3 v=73
356640 On ch=6 n=d3 v=0
356640 On ch=6 n=d3 v=75
357120 On ch=6 n=d3 v=0
357120 On ch=6 n=c#4 v=76
357120 On ch=6 n=c#3 v=76
359040 On ch=6 n=c#3 v=0
359040 On ch=6 n=c#4 v=0
359040 On ch=6 n=f#3 v=79
359520 On ch=6 n=f#3 v=0
360000 On ch=6 n=f#5 v=43
360160 On ch=6 n=f#5 v=0
360160 On ch=6 n=g#5 v=43
360320 On ch=6 n=g#5 v=0
360320 On ch=6 n=a#5 v=44
360480 On ch=6 n=a#5 v=0
360480 On ch=6 n=b5 v=44
360640 On ch=6 n=b5 v=0
360640 On ch=6 n=f#5 v=45
360800 On ch=6 n=f#5 v=0
360800 On ch=6 n=b5 v=45
360960 On ch=6 n=b5 v=0
360960 On ch=6 n=f#5 v=46
360960 On ch=6 n=a#5 v=46
361440 On ch=6 n=a#5 v=0
361440 On ch=6 n=f#5 v=0
361920 On ch=6 n=f#4 v=50
362080 On ch=6 n=f#4 v=0
362080 On ch=6 n=g#4 v=49
362240 On ch=6 n=g#4 v=0
362240 On ch=6 n=a#4 v=48
362400 On ch=6 n=a#4 v=0
362400 On ch=6 n=b4 v=46
362400 On ch=6 n=c#4 v=46
362560 On ch=6 n=b4 v=0
362560 On ch=6 n=g#4 v=45
362720 On ch=6 n=g#4 v=0
362720 On ch=6 n=c#5 v=44
362880 On ch=6 n=c#5 v=0
362880 On ch=6 n=c#4 v=0
362880 On ch=6 n=a#4 v=43
362880 On ch=6 n=f#4 v=43
363360 On ch=6 n=f#4 v=0
363360 On ch=6 n=a#4 v=0
363840 On ch=6 n=f#5 v=47
364000 On ch=6 n=f#5 v=0
364000 On ch=6 n=g#5 v=48
364160 On ch=6 n=g#5 v=0
364160 On ch=6 n=a#5 v=49
364320 On ch=6 n=a#5 v=0
364320 On ch=6 n=b5 v=50
364480 On ch=6 n=b5 v=0
364480 On ch=6 n=f#5 v=51
364640 On ch=6 n=f#5 v=0
364640 On ch=6 n=b5 v=52
364800 On ch=6 n=b5 v=0
364800 On ch=6 n=f#5 v=53
364800 On ch=6 n=a#5 v=53
365280 On ch=6 n=a#5 v=0
365280 On ch=6 n=f#5 v=0
365760 On ch=6 n=d#5 v=75
366240 On ch=6 n=d#5 v=0
366240 On ch=6 n=g#4 v=72
366720 On ch=6 n=g#4 v=0
366720 On ch=6 n=c#5 v=66
367680 On ch=6 n=c#5 v=0
367680 On ch=6 n=c#4 v=64
368640 On ch=6 n=c#4 v=0
368640 On ch=6 n=f#4 v=67
369120 On ch=6 n=f#4 v=0
369600 On ch=6 n=d#5 v=79
370080 On ch=6 n=d#5 v=0
370080 On ch=6 n=g#5 v=76
370560 On ch=6 n=g#5 v=0
370560 On ch=6 n=c#5 v=69
371520 On ch=6 n=c#5 v=0
371520 On ch=6 n=c#4 v=60
372480 On ch=6 n=c#4 v=0
372480 On ch=6 n=f#4 v=59
372960 On ch=6 n=f#4 v=0
373440 On ch=6 n=c#3 v=57
374400 On ch=6 n=c#3 v=0
374400 On ch=6 n=f#3 v=55
374880 On ch=6 n=f#3 v=0
375360 On ch=6 n=b3 v=57
375480 On ch=6 n=b3 v=0
375480 On ch=6 n=c#4 v=56
375600 On ch=6 n=c#4 v=0
375600 On ch=6 n=b3 v=56
375720 On ch=6 n=b3 v=0
375720 On ch=6 n=a#3 v=56
375840 On ch=6 n=a#3 v=0
375840 On ch=6 n=b3 v=56
375960 On ch=6 n=b3 v=0
375960 On ch=6 n=c#4 v=55
376080 On ch=6 n=c#4 v=0
376080 On ch=6 n=d#4 v=55
376200 On ch=6 n=d#4 v=0
376200 On ch=6 n=f4 v=55
376320 On ch=6 n=f4 v=0
376320 On ch=6 n=f#4 v=54
376440 On ch=6 n=f#4 v=0
376440 On ch=6 n=g#4 v=54
376560 On ch=6 n=g#4 v=0
376560 On ch=6 n=a#4 v=54
376680 On ch=6 n=a#4 v=0
376680 On ch=6 n=b4 v=54
376800 On ch=6 n=b4 v=0
376800 On ch=6 n=c#5 v=53
376920 On ch=6 n=c#5 v=0
376920 On ch=6 n=b4 v=53
377040 On ch=6 n=b4 v=0
377040 On ch=6 n=a#4 v=53
377160 On ch=6 n=a#4 v=0
377160 On ch=6 n=g#4 v=53
377280 On ch=6 n=g#4 v=0
377280 On ch=6 n=f#4 v=52
377400 On ch=6 n=f#4 v=0
377400 On ch=6 n=f4 v=52
377520 On ch=6 n=f4 v=0
377520 On ch=6 n=d#4 v=52
377640 On ch=6 n=d#4 v=0
377640 On ch=6 n=c#4 v=52
377760 On ch=6 n=c#4 v=0
377760 On ch=6 n=d#4 v=51
377880 On ch=6 n=d#4 v=0
377880 On ch=6 n=c#4 v=51
378000 On ch=6 n=c#4 v=0
378000 On ch=6 n=d#4 v=51
378120 On ch=6 n=d#4 v=0
378120 On ch=6 n=f4 v=50
378240 On ch=6 n=f4 v=0
378240 On ch=6 n=f#4 v=50
378360 On ch=6 n=f#4 v=0
378360 On ch=6 n=g#4 v=50
378480 On ch=6 n=g#4 v=0
378480 On ch=6 n=a#4 v=50
378600 On ch=6 n=a#4 v=0
378600 On ch=6 n=b4 v=49
378720 On ch=6 n=b4 v=0
378720 On ch=6 n=c#5 v=49
378840 On ch=6 n=c#5 v=0
378840 On ch=6 n=d#5 v=49
378960 On ch=6 n=d#5 v=0
378960 On ch=6 n=c#5 v=49
379080 On ch=6 n=c#5 v=0
379080 On ch=6 n=b4 v=48
379200 On ch=6 n=b4 v=0
379200 On ch=6 n=a#4 v=48
379320 On ch=6 n=a#4 v=0
379320 On ch=6 n=b4 v=48
379440 On ch=6 n=b4 v=0
379440 On ch=6 n=c#5 v=48
379560 On ch=6 n=c#5 v=0
379560 On ch=6 n=b4 v=47
379680 On ch=6 n=b4 v=0
379680 On ch=6 n=a#4 v=47
379800 On ch=6 n=a#4 v=0
379800 On ch=6 n=b4 v=47
379920 On ch=6 n=b4 v=0
379920 On ch=6 n=a#4 v=46
380040 On ch=6 n=a#4 v=0
380040 On ch=6 n=g#4 v=46
380160 On ch=6 n=g#4 v=0
380160 On ch=6 n=f#4 v=46
380280 On ch=6 n=f#4 v=0
380280 On ch=6 n=g#4 v=46
380400 On ch=6 n=g#4 v=0
380400 On ch=6 n=a#4 v=45
380520 On ch=6 n=a#4 v=0
380520 On ch=6 n=b4 v=45
380640 On ch=6 n=b4 v=0
380640 On ch=6 n=c#5 v=45
380760 On ch=6 n=c#5 v=0
380760 On ch=6 n=b4 v=45
380880 On ch=6 n=b4 v=0
380880 On ch=6 n=a#4 v=44
381000 On ch=6 n=a#4 v=0
381000 On ch=6 n=g#4 v=44
381120 On ch=6 n=g#4 v=0
381120 On ch=6 n=f#4 v=44
381240 On ch=6 n=f#4 v=0
381240 On ch=6 n=a#4 v=44
381360 On ch=6 n=a#4 v=0
381360 On ch=6 n=g#4 v=43
381480 On ch=6 n=g#4 v=0
381480 On ch=6 n=f#4 v=43
381600 On ch=6 n=f#4 v=0
381600 On ch=6 n=e4 v=43
381720 On ch=6 n=e4 v=0
381720 On ch=6 n=d#4 v=42
381840 On ch=6 n=d#4 v=0
381840 On ch=6 n=c#4 v=42
381960 On ch=6 n=c#4 v=0
381960 On ch=6 n=b3 v=42
382080 On ch=6 n=b3 v=0
382080 On ch=6 n=a#3 v=42
382200 On ch=6 n=a#3 v=0
382200 On ch=6 n=b3 v=45
382320 On ch=6 n=b3 v=0
382320 On ch=6 n=c#4 v=45
382440 On ch=6 n=c#4 v=0
382440 On ch=6 n=b3 v=46
382560 On ch=6 n=b3 v=0
382560 On ch=6 n=a#3 v=47
382680 On ch=6 n=a#3 v=0
382680 On ch=6 n=c#4 v=47
382800 On ch=6 n=c#4 v=0
382800 On ch=6 n=e4 v=48
382920 On ch=6 n=e4 v=0
382920 On ch=6 n=f#4 v=49
383040 On ch=6 n=f#4 v=0
383040 On ch=6 n=g4 v=50
383160 On ch=6 n=g4 v=0
383160 On ch=6 n=e4 v=50
383280 On ch=6 n=e4 v=0
383280 On ch=6 n=c#4 v=51
383400 On ch=6 n=c#4 v=0
383400 On ch=6 n=b3 v=52
383520 On ch=6 n=b3 v=0
383520 On ch=6 n=a#3 v=52
383640 On ch=6 n=a#3 v=0
383640 On ch=6 n=c#4 v=53
383760 On ch=6 n=c#4 v=0
383760 On ch=6 n=e4 v=54
383880 On ch=6 n=e4 v=0
383880 On ch=6 n=f#4 v=55
384000 On ch=6 n=f#4 v=0
384000 On ch=6 n=g4 v=55
384120 On ch=6 n=g4 v=0
384120 On ch=6 n=e4 v=56
384240 On ch=6 n=e4 v=0
384240 On ch=6 n=c#4 v=57
384360 On ch=6 n=c#4 v=0
384360 On ch=6 n=b3 v=57
384480 On ch=6 n=b3 v=0
384480 On ch=6 n=a#3 v=58
384600 On ch=6 n=a#3 v=0
384600 On ch=6 n=c#4 v=59
384720 On ch=6 n=c#4 v=0
384720 On ch=6 n=f#4 v=60
384840 On ch=6 n=f#4 v=0
384840 On ch=6 n=a#4 v=60
384960 On ch=6 n=a#4 v=0
384960 On ch=6 n=b3 v=61
385080 On ch=6 n=b3 v=0
385080 On ch=6 n=d4 v=62
385200 On ch=6 n=d4 v=0
385200 On ch=6 n=f#4 v=62
385320 On ch=6 n=f#4 v=0
385320 On ch=6 n=b4 v=63
385440 On ch=6 n=b4 v=0
385440 On ch=6 n=d4 v=64
385560 On ch=6 n=d4 v=0
385560 On ch=6 n=f#4 v=65
385680 On ch=6 n=f#4 v=0
385680 On ch=6 n=b4 v=65
385800 On ch=6 n=b4 v=0
385800 On ch=6 n=d5 v=66
385920 On ch=6 n=d5 v=0
385920 On ch=6 n=f4 v=67
386040 On ch=6 n=f4 v=0
386040 On ch=6 n=g#4 v=67
386160 On ch=6 n=g#4 v=0
386160 On ch=6 n=b4 v=68
386280 On ch=6 n=b4 v=0
386280 On ch=6 n=d5 v=69
386400 On ch=6 n=d5 v=0
386400 On ch=6 n=f5 v=70
386520 On ch=6 n=f5 v=0
386520 On ch=6 n=g#5 v=70
386640 On ch=6 n=g#5 v=0
386640 On ch=6 n=b5 v=71
386760 On ch=6 n=b5 v=0
386760 On ch=6 n=g#5 v=72
386880 On ch=6 n=g#5 v=0
386880 On ch=6 n=f5 v=77
387000 On ch=6 n=f5 v=0
387000 On ch=6 n=g#5 v=74
387120 On ch=6 n=g#5 v=0
387120 On ch=6 n=b5 v=70
387240 On ch=6 n=b5 v=0
387240 On ch=6 n=g#5 v=67
387360 On ch=6 n=g#5 v=0
387360 On ch=6 n=f5 v=63
387480 On ch=6 n=f5 v=0
387480 On ch=6 n=g#5 v=60
387600 On ch=6 n=g#5 v=0
387600 On ch=6 n=b5 v=56
387720 On ch=6 n=b5 v=0
387720 On ch=6 n=g#5 v=53
387840 On ch=6 n=g#5 v=0
387840 On ch=6 n=f5 v=49
387960 On ch=6 n=f5 v=0
387960 On ch=6 n=b5 v=48
388080 On ch=6 n=b5 v=0
388080 On ch=6 n=a#5 v=49
388200 On ch=6 n=a#5 v=0
388200 On ch=6 n=g#5 v=50
388320 On ch=6 n=g#5 v=0
388320 On ch=6 n=c#6 v=51
388440 On ch=6 n=c#6 v=0
388440 On ch=6 n=b5 v=52
388560 On ch=6 n=b5 v=0
388560 On ch=6 n=a#5 v=53
388680 On ch=6 n=a#5 v=0
388680 On ch=6 n=g#5 v=53
388800 On ch=6 n=g#5 v=0
388800 On ch=6 n=f#5 v=54
388920 On ch=6 n=f#5 v=0
388920 On ch=6 n=c#6 v=55
389040 On ch=6 n=c#6 v=0
389040 On ch=6 n=b5 v=56
389160 On ch=6 n=b5 v=0
389160 On ch=6 n=a#5 v=57
389280 On ch=6 n=a#5 v=0
389280 On ch=6 n=f#6 v=58
389400 On ch=6 n=f#6 v=0
389400 On ch=6 n=f6 v=58
389520 On ch=6 n=f6 v=0
389520 On ch=6 n=d#6 v=59
389640 On ch=6 n=d#6 v=0
389640 On ch=6 n=c#6 v=60
389760 On ch=6 n=c#6 v=0
389760 On ch=6 n=b5 v=61
389880 On ch=6 n=b5 v=0
389880 On ch=6 n=a#5 v=62
390000 On ch=6 n=a#5 v=0
390000 On ch=6 n=d#6 v=63
390120 On ch=6 n=d#6 v=0
390120 On ch=6 n=c#6 v=63
390240 On ch=6 n=c#6 v=0
390240 On ch=6 n=b5 v=64
390360 On ch=6 n=b5 v=0
390360 On ch=6 n=a#5 v=65
390480 On ch=6 n=a#5 v=0
390480 On ch=6 n=g#5 v=66
390600 On ch=6 n=g#5 v=0
390600 On ch=6 n=f#5 v=67
390720 On ch=6 n=f#5 v=0
390720 On ch=6 n=f5 v=68
390840 On ch=6 n=f5 v=0
390840 On ch=6 n=f#5 v=69
390960 On ch=6 n=f#5 v=0
390960 On ch=6 n=g#5 v=69
391080 On ch=6 n=g#5 v=0
391080 On ch=6 n=f#5 v=70
391200 On ch=6 n=f#5 v=0
391200 On ch=6 n=c5 v=71
391320 On ch=6 n=c5 v=0
391320 On ch=6 n=c#5 v=72
391440 On ch=6 n=c#5 v=0
391440 On ch=6 n=d#5 v=73
391560 On ch=6 n=d#5 v=0
391560 On ch=6 n=c#5 v=74
391680 On ch=6 n=c#5 v=0
391680 On ch=6 n=a4 v=74
391800 On ch=6 n=a4 v=0
391800 On ch=6 n=a#4 v=75
391920 On ch=6 n=a#4 v=0
391920 On ch=6 n=b4 v=76
392040 On ch=6 n=b4 v=0
392040 On ch=6 n=a#4 v=77
392160 On ch=6 n=a#4 v=0
392160 On ch=6 n=f4 v=78
392280 On ch=6 n=f4 v=0
392280 On ch=6 n=f#4 v=79
392400 On ch=6 n=f#4 v=0
392400 On ch=6 n=g#4 v=80
392520 On ch=6 n=g#4 v=0
392520 On ch=6 n=f#4 v=80
392640 On ch=6 n=f#4 v=0
392640 On ch=6 n=c4 v=81
392760 On ch=6 n=c4 v=0
392760 On ch=6 n=c#4 v=82
392880 On ch=6 n=c#4 v=0
392880 On ch=6 n=d#4 v=83
393000 On ch=6 n=d#4 v=0
393000 On ch=6 n=c#4 v=84
393120 On ch=6 n=c#4 v=0
393120 On ch=6 n=a3 v=85
393240 On ch=6 n=a3 v=0
393240 On ch=6 n=a#3 v=85
393360 On ch=6 n=a#3 v=0
393360 On ch=6 n=b3 v=86
393480 On ch=6 n=b3 v=0
393480 On ch=6 n=a#3 v=87
393600 On ch=6 n=a#3 v=0
393600 On ch=6 n=f#3 v=88
394080 On ch=6 n=f#3 v=0
394080 Par ch=6 c=64 v=0
395520 Par ch=6 c=93 v=28
395520 Par ch=6 c=91 v=91
396480 On ch=6 n=d4 v=79
397200 On ch=6 n=d4 v=0
397200 On ch=6 n=c#4 v=76
397356 On ch=6 n=c#4 v=0
397440 On ch=6 n=b3 v=70
397596 On ch=6 n=b3 v=0
398160 On ch=6 n=a#3 v=48
398316 On ch=6 n=a#3 v=0
398400 On ch=6 n=g#3 v=52
398760 On ch=6 n=g#3 v=0
398760 On ch=6 n=a#3 v=46
398838 On ch=6 n=a#3 v=0
398880 On ch=6 n=b3 v=44
399036 On ch=6 n=b3 v=0
399120 On ch=6 n=c4 v=40
399276 On ch=6 n=c4 v=0
399360 On ch=6 n=c#4 v=37
399620 On ch=6 n=c#4 v=0
400320 On ch=6 n=e5 v=81
401040 On ch=6 n=e5 v=0
401040 On ch=6 n=d#5 v=76
401196 On ch=6 n=d#5 v=0
401280 On ch=6 n=c#5 v=70
401514 On ch=6 n=c#5 v=0
402000 On ch=6 n=b4 v=50
402156 On ch=6 n=b4 v=0
402240 On ch=6 n=e4 v=54
402720 On ch=6 n=e4 v=0
402720 On ch=6 n=f#4 v=45
402876 On ch=6 n=f#4 v=0
402960 On ch=6 n=f#4 v=41
403116 On ch=6 n=f#4 v=0
403200 On ch=6 n=b4 v=37
403500 On ch=6 n=b4 v=0
404160 On ch=6 n=d#5 v=47
404880 On ch=6 n=d#5 v=0
404880 On ch=6 n=c#5 v=44
405036 On ch=6 n=c#5 v=0
405120 On ch=6 n=b4 v=41
405480 On ch=6 n=b4 v=0
405840 On ch=6 n=a#4 v=38
405996 On ch=6 n=a#4 v=0
406080 On ch=6 n=g#4 v=41
406440 On ch=6 n=g#4 v=0
406440 On ch=6 n=a#4 v=36
406518 On ch=6 n=a#4 v=0
406560 On ch=6 n=b4 v=35
406716 On ch=6 n=b4 v=0
406800 On ch=6 n=c#4 v=34
406956 On ch=6 n=c#4 v=0
407040 On ch=6 n=f#4 v=36
407196 On ch=6 n=f#4 v=0
407280 On ch=6 n=c#5 v=37
407520 On ch=6 n=c#5 v=0
407520 On ch=6 n=d#5 v=39
407760 On ch=6 n=d#5 v=0
407760 On ch=6 n=c#5 v=41
408000 On ch=6 n=c#5 v=0
408000 On ch=6 n=b4 v=43
408240 On ch=6 n=b4 v=0
408240 On ch=6 n=a#4 v=45
408480 On ch=6 n=a#4 v=0
408480 On ch=6 n=g#4 v=47
408720 On ch=6 n=g#4 v=0
408720 On ch=6 n=c#4 v=49
408960 On ch=6 n=c#4 v=0
408960 On ch=6 n=f#4 v=51
409200 On ch=6 n=f#4 v=0
409200 On ch=6 n=c#4 v=53
409440 On ch=6 n=c#4 v=0
409440 On ch=6 n=a#3 v=55
409680 On ch=6 n=a#3 v=0
409680 On ch=6 n=c#4 v=57
409920 On ch=6 n=c#4 v=0
409920 On ch=6 n=f#3 v=59
410160 On ch=6 n=f#3 v=0
410160 On ch=6 n=c#4 v=60
410400 On ch=6 n=c#4 v=0
410400 On ch=6 n=c#3 v=62
410640 On ch=6 n=c#3 v=0
410640 On ch=6 n=c#4 v=64
410880 On ch=6 n=c#4 v=0
410880 On ch=6 n=f#3 v=46
411036 On ch=6 n=f#3 v=0
411120 On ch=6 n=c#5 v=47
411360 On ch=6 n=c#5 v=0
411360 On ch=6 n=d#5 v=49
411600 On ch=6 n=d#5 v=0
411600 On ch=6 n=c#5 v=51
411840 On ch=6 n=c#5 v=0
411840 On ch=6 n=b4 v=52
412080 On ch=6 n=b4 v=0
412080 On ch=6 n=a#4 v=54
412320 On ch=6 n=a#4 v=0
412320 On ch=6 n=g#4 v=56
412560 On ch=6 n=g#4 v=0
412560 On ch=6 n=c#4 v=58
412800 On ch=6 n=c#4 v=0
412800 On ch=6 n=f#4 v=59
413040 On ch=6 n=f#4 v=0
413040 On ch=6 n=c#4 v=61
413280 On ch=6 n=c#4 v=0
413280 On ch=6 n=a#3 v=63
413520 On ch=6 n=a#3 v=0
413520 On ch=6 n=c#4 v=64
413760 On ch=6 n=c#4 v=0
413760 On ch=6 n=f#3 v=66
414000 On ch=6 n=f#3 v=0
414000 On ch=6 n=c#4 v=68
414240 On ch=6 n=c#4 v=0
414240 On ch=6 n=c#3 v=70
414480 On ch=6 n=c#3 v=0
414480 On ch=6 n=c#4 v=71
414720 On ch=6 n=c#4 v=0
414720 On ch=6 n=f#3 v=73
414960 On ch=6 n=f#3 v=0
414960 On ch=6 n=f#4 v=75
415200 On ch=6 n=f#4 v=0
415200 On ch=6 n=b2 v=76
415440 On ch=6 n=b2 v=0
415440 On ch=6 n=b3 v=78
415680 On ch=6 n=b3 v=0
415680 On ch=6 n=c3 v=80
415920 On ch=6 n=c3 v=0
415920 On ch=6 n=c4 v=82
416160 On ch=6 n=c4 v=0
416160 On ch=6 n=g#2 v=83
416400 On ch=6 n=g#2 v=0
416400 On ch=6 n=g#3 v=85
416640 On ch=6 n=g#3 v=0
416640 On ch=6 n=c#4 v=87
416640 On ch=6 n=c#3 v=87
416880 On ch=6 n=c#3 v=0
416880 On ch=6 n=c#4 v=0
426240 On ch=6 n=d4 v=79
426960 On ch=6 n=d4 v=0
426960 On ch=6 n=c#4 v=77
427116 On ch=6 n=c#4 v=0
427200 On ch=6 n=b3 v=72
427356 On ch=6 n=b3 v=0
427920 On ch=6 n=a#3 v=47
428076 On ch=6 n=a#3 v=0
428160 On ch=6 n=g#3 v=53
428520 On ch=6 n=g#3 v=0
428520 On ch=6 n=a#3 v=49
428598 On ch=6 n=a#3 v=0
428640 On ch=6 n=b3 v=47
428796 On ch=6 n=b3 v=0
428880 On ch=6 n=c4 v=44
429036 On ch=6 n=c4 v=0
430080 On ch=6 n=e5 v=79
430800 On ch=6 n=e5 v=0
430800 On ch=6 n=d#5 v=77
430956 On ch=6 n=d#5 v=0
431040 On ch=6 n=c#5 v=75
431274 On ch=6 n=c#5 v=0
431760 On ch=6 n=b4 v=47
431916 On ch=6 n=b4 v=0
432000 On ch=6 n=e4 v=51
432480 On ch=6 n=e4 v=0
432480 On ch=6 n=f#4 v=46
432636 On ch=6 n=f#4 v=0
432720 On ch=6 n=f#4 v=43
432876 On ch=6 n=f#4 v=0
432960 On ch=6 n=b4 v=41
433320 On ch=6 n=b4 v=0
433920 On ch=6 n=d#5 v=41
434640 On ch=6 n=d#5 v=0
434640 On ch=6 n=c#5 v=39
434796 On ch=6 n=c#5 v=0
434880 On ch=6 n=b4 v=35
435240 On ch=6 n=b4 v=0
435600 On ch=6 n=a#4 v=31
435756 On ch=6 n=a#4 v=0
435840 On ch=6 n=g#4 v=35
436200 On ch=6 n=g#4 v=0
436200 On ch=6 n=a#4 v=33
436278 On ch=6 n=a#4 v=0
436320 On ch=6 n=b4 v=33
436476 On ch=6 n=b4 v=0
436560 On ch=6 n=c#4 v=31
436716 On ch=6 n=c#4 v=0
436800 On ch=6 n=f#4 v=35
436956 On ch=6 n=f#4 v=0
437040 On ch=6 n=c#5 v=37
437280 On ch=6 n=c#5 v=0
437280 On ch=6 n=d#5 v=39
437520 On ch=6 n=d#5 v=0
437520 On ch=6 n=c#5 v=41
437760 On ch=6 n=c#5 v=0
437760 On ch=6 n=b4 v=43
438000 On ch=6 n=b4 v=0
438000 On ch=6 n=a#4 v=45
438240 On ch=6 n=a#4 v=0
438240 On ch=6 n=g#4 v=47
438480 On ch=6 n=g#4 v=0
438480 On ch=6 n=c#4 v=49
438720 On ch=6 n=c#4 v=0
438720 On ch=6 n=f#4 v=51
438960 On ch=6 n=f#4 v=0
438960 On ch=6 n=c#4 v=53
439200 On ch=6 n=c#4 v=0
439200 On ch=6 n=a#3 v=55
439440 On ch=6 n=a#3 v=0
439440 On ch=6 n=c#4 v=57
439680 On ch=6 n=c#4 v=0
439680 On ch=6 n=f#3 v=59
439920 On ch=6 n=f#3 v=0
439920 On ch=6 n=c#4 v=61
440160 On ch=6 n=c#4 v=0
440160 On ch=6 n=c#3 v=63
440400 On ch=6 n=c#3 v=0
440400 On ch=6 n=c#4 v=65
440640 On ch=6 n=c#4 v=0
440640 On ch=6 n=f#3 v=67
440796 On ch=6 n=f#3 v=0
440880 On ch=6 n=c#5 v=56
441120 On ch=6 n=c#5 v=0
441120 On ch=6 n=d#5 v=58
441360 On ch=6 n=d#5 v=0
441360 On ch=6 n=c#5 v=60
441600 On ch=6 n=c#5 v=0
441600 On ch=6 n=b4 v=61
441840 On ch=6 n=b4 v=0
441840 On ch=6 n=a#4 v=63
442080 On ch=6 n=a#4 v=0
442080 On ch=6 n=g#4 v=65
442320 On ch=6 n=g#4 v=0
442320 On ch=6 n=c#4 v=66
442560 On ch=6 n=c#4 v=0
442560 On ch=6 n=f#4 v=68
442800 On ch=6 n=f#4 v=0
442800 On ch=6 n=f#3 v=70
443040 On ch=6 n=f#3 v=0
443040 On ch=6 n=d#4 v=71
443280 On ch=6 n=d#4 v=0
443280 On ch=6 n=d#3 v=73
443520 On ch=6 n=d#3 v=0
443520 On ch=6 n=b3 v=75
443760 On ch=6 n=b3 v=0
443760 On ch=6 n=b2 v=76
444000 On ch=6 n=b2 v=0
444000 On ch=6 n=a3 v=78
444240 On ch=6 n=a3 v=0
444240 On ch=6 n=a2 v=80
444480 On ch=6 n=a2 v=0
444480 On ch=6 n=a#2 v=81
444480 On ch=6 n=a#3 v=81
444720 On ch=6 n=a#3 v=0
444720 On ch=6 n=a#2 v=0
450240 Par ch=6 c=64 v=127
450240 On ch=6 n=d#3 v=97
450480 On ch=6 n=g4 v=95
450636 On ch=6 n=g4 v=0
450720 On ch=6 n=a#4 v=93
450876 On ch=6 n=a#4 v=0
450960 On ch=6 n=d#5 v=91
451116 On ch=6 n=d#5 v=0
451200 On ch=6 n=g5 v=89
451356 On ch=6 n=g5 v=0
451440 On ch=6 n=a#5 v=87
451596 On ch=6 n=a#5 v=0
451680 On ch=6 n=d#6 v=85
451836 On ch=6 n=d#6 v=0
451920 On ch=6 n=g6 v=83
452076 On ch=6 n=g6 v=0
452160 On ch=6 n=d#3 v=0
452160 On ch=6 n=a#6 v=80
452316 On ch=6 n=a#6 v=0
452400 Par ch=6 c=64 v=0
452400 On ch=6 n=d#4 v=55
452640 On ch=6 n=d#4 v=0
452640 On ch=6 n=f#4 v=53
452880 On ch=6 n=f#4 v=0
452880 On ch=6 n=d#4 v=52
453120 On ch=6 n=d#4 v=0
453120 On ch=6 n=f#4 v=51
453360 On ch=6 n=f#4 v=0
453360 On ch=6 n=d#4 v=49
453600 On ch=6 n=d#4 v=0
453600 On ch=6 n=a#3 v=48
453600 On ch=6 n=f4 v=48
453840 On ch=6 n=f4 v=0
453840 On ch=6 n=d4 v=47
454080 On ch=6 n=d4 v=0
454080 On ch=6 n=a#3 v=0
454080 Par ch=6 c=64 v=127
454080 On ch=6 n=d#3 v=89
454320 On ch=6 n=g4 v=87
454476 On ch=6 n=g4 v=0
454560 On ch=6 n=a#4 v=85
454716 On ch=6 n=a#4 v=0
454800 On ch=6 n=d#5 v=84
454956 On ch=6 n=d#5 v=0
455040 On ch=6 n=g5 v=82
455196 On ch=6 n=g5 v=0
455280 On ch=6 n=a#5 v=80
455436 On ch=6 n=a#5 v=0
455520 On ch=6 n=d#6 v=78
455676 On ch=6 n=d#6 v=0
455760 On ch=6 n=g6 v=76
455916 On ch=6 n=g6 v=0
456000 On ch=6 n=d#3 v=0
456000 On ch=6 n=a#6 v=74
456156 On ch=6 n=a#6 v=0
456240 Par ch=6 c=64 v=0
456240 On ch=6 n=d#4 v=51
456480 On ch=6 n=d#4 v=0
456480 On ch=6 n=f#4 v=50
456720 On ch=6 n=f#4 v=0
456720 On ch=6 n=d#4 v=48
456960 On ch=6 n=d#4 v=0
456960 On ch=6 n=f#4 v=47
457200 On ch=6 n=f#4 v=0
457200 On ch=6 n=d#4 v=46
457440 On ch=6 n=d#4 v=0
457440 On ch=6 n=f4 v=45
457440 On ch=6 n=a#3 v=45
457680 On ch=6 n=f4 v=0
457680 On ch=6 n=d4 v=44
457920 On ch=6 n=d4 v=0
457920 On ch=6 n=a#3 v=0
457920 On ch=6 n=d#4 v=44
458112 On ch=6 n=d#4 v=0
458160 On ch=6 n=d#4 v=47
458400 On ch=6 n=d#4 v=0
458400 On ch=6 n=a#4 v=50
458640 On ch=6 n=a#4 v=0
458640 On ch=6 n=a#3 v=53
458880 On ch=6 n=a#3 v=0
458880 On ch=6 n=d#4 v=56
459120 On ch=6 n=d#4 v=0
459120 On ch=6 n=d#3 v=59
459360 On ch=6 n=d#3 v=0
459360 On ch=6 n=a#3 v=62
459600 On ch=6 n=a#3 v=0
459600 On ch=6 n=a#2 v=65
459840 On ch=6 n=a#2 v=0
459840 On ch=6 n=d#3 v=68
459996 On ch=6 n=d#3 v=0
460080 On ch=6 n=d#4 v=71
460320 On ch=6 n=d#4 v=0
460320 On ch=6 n=a#4 v=74
460560 On ch=6 n=a#4 v=0
460560 On ch=6 n=a#3 v=76
460800 On ch=6 n=a#3 v=0
460800 On ch=6 n=d#4 v=79
461040 On ch=6 n=d#4 v=0
461040 On ch=6 n=d#3 v=82
461280 On ch=6 n=d#3 v=0
461280 On ch=6 n=a#3 v=85
461520 On ch=6 n=a#3 v=0
461520 On ch=6 n=a#2 v=88
461760 On ch=6 n=a#2 v=0
461760 On ch=6 n=d#3 v=60
461916 On ch=6 n=d#3 v=0
462000 On ch=6 n=d#4 v=63
462240 On ch=6 n=d#4 v=0
462240 On ch=6 n=a#4 v=65
462480 On ch=6 n=a#4 v=0
462480 On ch=6 n=a#3 v=68
462720 On ch=6 n=a#3 v=0
462720 On ch=6 n=d#4 v=70
462960 On ch=6 n=d#4 v=0
462960 On ch=6 n=d#3 v=73
463200 On ch=6 n=d#3 v=0
463200 On ch=6 n=a#3 v=75
463440 On ch=6 n=a#3 v=0
463440 On ch=6 n=a#2 v=78
463680 On ch=6 n=a#2 v=0
463680 On ch=6 n=d#3 v=80
463836 On ch=6 n=d#3 v=0
463920 On ch=6 n=d#4 v=83
464160 On ch=6 n=d#4 v=0
464160 On ch=6 n=a#4 v=85
464400 On ch=6 n=a#4 v=0
464400 On ch=6 n=a#3 v=88
464640 On ch=6 n=a#3 v=0
464640 On ch=6 n=d#4 v=90
464880 On ch=6 n=d#4 v=0
464880 On ch=6 n=d#3 v=93
465120 On ch=6 n=d#3 v=0
465120 On ch=6 n=c#4 v=95
465360 On ch=6 n=c#4 v=0
465360 On ch=6 n=c#3 v=98
465600 On ch=6 n=c#3 v=0
465600 On ch=6 n=b3 v=100
465840 On ch=6 n=b3 v=0
465840 On ch=6 n=b2 v=103
466080 On ch=6 n=b2 v=0
466080 On ch=6 n=b3 v=105
466320 On ch=6 n=b3 v=0
466320 On ch=6 n=b2 v=108
466560 On ch=6 n=b2 v=0
466560 On ch=6 n=g2 v=111
466560 On ch=6 n=g3 v=111
466920 On ch=6 n=g3 v=0
466920 On ch=6 n=g2 v=0
480960 On ch=6 n=g5 v=79
481680 On ch=6 n=g5 v=0
481680 On ch=6 n=f#5 v=75
481836 On ch=6 n=f#5 v=0
481920 On ch=6 n=f#5 v=72
482199 On ch=6 n=f#5 v=0
482640 On ch=6 n=b2 v=47
482796 On ch=6 n=b2 v=0
482880 On ch=6 n=c#3 v=51
483240 On ch=6 n=c#3 v=0
483240 On ch=6 n=d#3 v=47
483318 On ch=6 n=d#3 v=0
483360 On ch=6 n=e3 v=46
483516 On ch=6 n=e3 v=0
483600 On ch=6 n=f3 v=44
483756 On ch=6 n=f3 v=0
483840 On ch=6 n=f#3 v=41
484200 On ch=6 n=f#3 v=0
484800 On ch=6 n=a5 v=79
485520 On ch=6 n=a5 v=0
485520 On ch=6 n=g#5 v=76
485676 On ch=6 n=g#5 v=0
485760 On ch=6 n=f#5 v=72
485916 On ch=6 n=f#5 v=0
486480 On ch=6 n=e3 v=47
486636 On ch=6 n=e3 v=0
486720 On ch=6 n=a2 v=51
487080 On ch=6 n=a2 v=0
487080 On ch=6 n=a3 v=47
487158 On ch=6 n=a3 v=0
487200 On ch=6 n=b3 v=46
487356 On ch=6 n=b3 v=0
487440 On ch=6 n=b2 v=44
487596 On ch=6 n=b2 v=0
487680 On ch=6 n=e3 v=41
488040 On ch=6 n=e3 v=0
488640 On ch=6 n=g#5 v=79
489360 On ch=6 n=g#5 v=0
489360 On ch=6 n=f#5 v=76
489516 On ch=6 n=f#5 v=0
489600 On ch=6 n=e5 v=72
489756 On ch=6 n=e5 v=0
490320 Par ch=6 c=64 v=0
490320 On ch=6 n=d#3 v=47
490476 On ch=6 n=d#3 v=0
490560 On ch=6 n=c#3 v=53
490920 On ch=6 n=c#3 v=0
490920 On ch=6 n=d#3 v=49
490998 On ch=6 n=d#3 v=0
491040 On ch=6 n=e3 v=48
491196 On ch=6 n=e3 v=0
491280 On ch=6 n=f#3 v=46
491436 On ch=6 n=f#3 v=0
491520 On ch=6 n=b3 v=44
491676 On ch=6 n=b3 v=0
491760 On ch=6 n=f#4 v=46
492000 On ch=6 n=f#4 v=0
492000 On ch=6 n=g#4 v=48
492240 On ch=6 n=g#4 v=0
492240 On ch=6 n=f#4 v=50
492480 On ch=6 n=f#4 v=0
492480 On ch=6 n=e4 v=52
492720 On ch=6 n=e4 v=0
492720 On ch=6 n=d#4 v=54
492960 On ch=6 n=d#4 v=0
492960 On ch=6 n=c#4 v=56
493200 On ch=6 n=c#4 v=0
493200 On ch=6 n=f#3 v=58
493440 On ch=6 n=f#3 v=0
493440 On ch=6 n=b3 v=60
493680 On ch=6 n=b3 v=0
493680 On ch=6 n=f#3 v=62
493920 On ch=6 n=f#3 v=0
493920 On ch=6 n=d#3 v=64
494160 On ch=6 n=d#3 v=0
494160 On ch=6 n=f#3 v=66
494400 On ch=6 n=f#3 v=0
494400 On ch=6 n=b2 v=68
494640 On ch=6 n=b2 v=0
494640 On ch=6 n=f#3 v=70
494880 On ch=6 n=f#3 v=0
494880 On ch=6 n=f#2 v=72
495120 On ch=6 n=f#2 v=0
495120 On ch=6 n=f#3 v=74
495360 On ch=6 n=f#3 v=0
495360 On ch=6 n=b2 v=58
495516 On ch=6 n=b2 v=0
495600 On ch=6 n=f#4 v=59
495840 On ch=6 n=f#4 v=0
495840 On ch=6 n=g#4 v=61
496080 On ch=6 n=g#4 v=0
496080 On ch=6 n=f#4 v=62
496320 On ch=6 n=f#4 v=0
496320 On ch=6 n=e4 v=64
496560 On ch=6 n=e4 v=0
496560 On ch=6 n=d#4 v=65
496800 On ch=6 n=d#4 v=0
496800 On ch=6 n=c#4 v=67
497040 On ch=6 n=c#4 v=0
497040 On ch=6 n=f#3 v=68
497280 On ch=6 n=f#3 v=0
497280 On ch=6 n=b3 v=70
497520 On ch=6 n=b3 v=0
497520 On ch=6 n=f#3 v=71
497760 On ch=6 n=f#3 v=0
497760 On ch=6 n=d3 v=72
498000 On ch=6 n=d3 v=0
498000 On ch=6 n=f#3 v=74
498240 On ch=6 n=f#3 v=0
498240 On ch=6 n=b2 v=75
498480 On ch=6 n=b2 v=0
498480 On ch=6 n=f#3 v=77
498720 On ch=6 n=f#3 v=0
498720 On ch=6 n=c#3 v=78
498960 On ch=6 n=c#3 v=0
498960 On ch=6 n=f3 v=80
499200 On ch=6 n=f3 v=0
499200 On ch=6 n=f#3 v=81
499440 On ch=6 n=f#3 v=0
499440 On ch=6 n=c#4 v=83
499680 On ch=6 n=c#4 v=0
499680 On ch=6 n=a3 v=84
499920 On ch=6 n=a3 v=0
499920 On ch=6 n=c#4 v=86
500160 On ch=6 n=c#4 v=0
500160 On ch=6 n=f#3 v=87
500400 On ch=6 n=f#3 v=0
500400 On ch=6 n=f#4 v=89
500640 On ch=6 n=f#4 v=0
500640 On ch=6 n=d3 v=90
500880 On ch=6 n=d3 v=0
500880 On ch=6 n=d4 v=92
501120 On ch=6 n=d4 v=0
501120 On ch=6 n=c#4 v=93
501120 On ch=6 n=c#3 v=93
501360 On ch=6 n=c#3 v=0
501360 On ch=6 n=c#4 v=0
506880 Par ch=6 c=64 v=127
506880 On ch=6 n=f#3 v=89
507120 On ch=6 n=f#3 v=0
507120 On ch=6 n=a#4 v=88
507360 On ch=6 n=a#4 v=0
507360 On ch=6 n=c#5 v=86
507600 On ch=6 n=c#5 v=0
507600 On ch=6 n=f#5 v=84
507840 On ch=6 n=f#5 v=0
507840 On ch=6 n=a#5 v=83
508080 On ch=6 n=a#5 v=0
508080 On ch=6 n=c#6 v=81
508320 On ch=6 n=c#6 v=0
508320 On ch=6 n=f#6 v=79
508560 On ch=6 n=f#6 v=0
508560 On ch=6 n=a#6 v=78
508800 On ch=6 n=a#6 v=0
508800 On ch=6 n=c#7 v=76
509040 On ch=6 n=c#7 v=0
509040 Par ch=6 c=64 v=0
509040 On ch=6 n=f#4 v=63
509280 On ch=6 n=f#4 v=0
509280 On ch=6 n=a4 v=62
509520 On ch=6 n=a4 v=0
509520 On ch=6 n=f#4 v=61
509760 On ch=6 n=f#4 v=0
509760 On ch=6 n=a4 v=60
510000 On ch=6 n=a4 v=0
510000 On ch=6 n=f#4 v=59
510240 On ch=6 n=f#4 v=0
510240 On ch=6 n=c#4 v=58
510240 On ch=6 n=g#4 v=58
510480 On ch=6 n=g#4 v=0
510480 On ch=6 n=f4 v=57
510660 Par ch=6 c=64 v=0
510720 On ch=6 n=f4 v=0
510720 On ch=6 n=c#4 v=0
510720 Par ch=6 c=64 v=127
510720 On ch=6 n=f#3 v=56
510960 On ch=6 n=f#3 v=0
510960 On ch=6 n=a#4 v=79
511200 On ch=6 n=a#4 v=0
511200 On ch=6 n=c#5 v=77
511440 On ch=6 n=c#5 v=0
511440 On ch=6 n=f#5 v=75
511680 On ch=6 n=f#5 v=0
511680 On ch=6 n=a#5 v=73
511920 On ch=6 n=a#5 v=0
511920 On ch=6 n=c#6 v=71
512160 On ch=6 n=c#6 v=0
512160 On ch=6 n=f#6 v=69
512400 On ch=6 n=f#6 v=0
512400 On ch=6 n=a#6 v=68
512640 On ch=6 n=a#6 v=0
512640 On ch=6 n=c#7 v=66
512880 On ch=6 n=c#7 v=0
512880 Par ch=6 c=64 v=0
512880 On ch=6 n=f#4 v=52
513120 On ch=6 n=f#4 v=0
513120 On ch=6 n=a4 v=51
513360 On ch=6 n=a4 v=0
513360 On ch=6 n=f#4 v=49
513600 On ch=6 n=f#4 v=0
513600 On ch=6 n=a4 v=48
513840 On ch=6 n=a4 v=0
513840 On ch=6 n=f#4 v=46
514080 On ch=6 n=f#4 v=0
514080 On ch=6 n=g#4 v=45
514080 On ch=6 n=c#4 v=45
514320 On ch=6 n=g#4 v=0
514320 On ch=6 n=f4 v=43
514560 On ch=6 n=f4 v=0
514560 On ch=6 n=c#4 v=0
514560 Par ch=6 c=64 v=0
514560 On ch=6 n=f#4 v=43
514716 On ch=6 n=f#4 v=0
514800 On ch=6 n=f#4 v=46
515040 On ch=6 n=f#4 v=0
515040 On ch=6 n=c#5 v=48
515280 On ch=6 n=c#5 v=0
515280 On ch=6 n=c#4 v=51
515520 On ch=6 n=c#4 v=0
515520 On ch=6 n=f#4 v=54
515760 On ch=6 n=f#4 v=0
515760 On ch=6 n=f#3 v=56
516000 On ch=6 n=f#3 v=0
516000 On ch=6 n=c#4 v=59
516240 On ch=6 n=c#4 v=0
516240 On ch=6 n=c#3 v=62
516480 On ch=6 n=c#3 v=0
516480 On ch=6 n=f#3 v=64
516636 On ch=6 n=f#3 v=0
516720 On ch=6 n=f#4 v=67
516960 On ch=6 n=f#4 v=0
516960 On ch=6 n=c#5 v=70
517200 On ch=6 n=c#5 v=0
517200 On ch=6 n=c#4 v=72
517440 On ch=6 n=c#4 v=0
517440 On ch=6 n=f#4 v=75
517680 On ch=6 n=f#4 v=0
517680 On ch=6 n=f#3 v=78
517920 On ch=6 n=f#3 v=0
517920 On ch=6 n=c#4 v=80
518160 On ch=6 n=c#4 v=0
518160 On ch=6 n=c#3 v=83
518400 On ch=6 n=c#3 v=0
518400 On ch=6 n=f#3 v=64
518556 On ch=6 n=f#3 v=0
518640 On ch=6 n=f#4 v=66
518880 On ch=6 n=f#4 v=0
518880 On ch=6 n=c#5 v=69
519120 On ch=6 n=c#5 v=0
519120 On ch=6 n=c#4 v=71
519360 On ch=6 n=c#4 v=0
519360 On ch=6 n=f#4 v=73
519600 On ch=6 n=f#4 v=0
519600 On ch=6 n=f#3 v=75
519840 On ch=6 n=f#3 v=0
519840 On ch=6 n=c#4 v=78
520080 On ch=6 n=c#4 v=0
520080 On ch=6 n=c#3 v=80
520320 On ch=6 n=c#3 v=0
520320 On ch=6 n=f#3 v=82
520476 On ch=6 n=f#3 v=0
520560 On ch=6 n=f#4 v=85
520800 On ch=6 n=f#4 v=0
520800 On ch=6 n=c#5 v=87
521040 On ch=6 n=c#5 v=0
521040 On ch=6 n=c#4 v=89
521280 On ch=6 n=c#4 v=0
521280 On ch=6 n=f#4 v=92
521520 On ch=6 n=f#4 v=0
521520 On ch=6 n=f#3 v=94
521760 On ch=6 n=f#3 v=0
521760 On ch=6 n=e4 v=96
522000 On ch=6 n=e4 v=0
522000 On ch=6 n=e3 v=99
522240 On ch=6 n=e3 v=0
522240 On ch=6 n=d4 v=101
522480 On ch=6 n=d4 v=0
522480 On ch=6 n=d3 v=103
522720 On ch=6 n=d3 v=0
522720 On ch=6 n=d4 v=106
522960 On ch=6 n=d4 v=0
522960 On ch=6 n=d3 v=108
523200 On ch=6 n=d3 v=0
523200 On ch=6 n=d4 v=108
523200 On ch=6 n=d3 v=108
523560 On ch=6 n=d3 v=0
523560 On ch=6 n=d4 v=0
539520 On ch=6 n=d5 v=79
540240 On ch=6 n=d5 v=0
540240 On ch=6 n=c#5 v=77
540396 On ch=6 n=c#5 v=0
540480 On ch=6 n=c#5 v=73
540672 On ch=6 n=c#5 v=0
541200 On ch=6 n=c#3 v=47
541440 On ch=6 n=c#3 v=0
541440 On ch=6 n=b2 v=49
541800 On ch=6 n=b2 v=0
541800 On ch=6 n=c#3 v=46
541920 On ch=6 n=c#3 v=0
541920 On ch=6 n=d#3 v=46
542160 On ch=6 n=d#3 v=0
542160 On ch=6 n=c3 v=44
542400 On ch=6 n=c3 v=0
542400 On ch=6 n=c#3 v=42
542880 On ch=6 n=c#3 v=0
543360 On ch=6 n=c#5 v=79
544080 On ch=6 n=c#5 v=0
544080 On ch=6 n=b4 v=77
544236 On ch=6 n=b4 v=0
544320 On ch=6 n=a#4 v=76
544512 On ch=6 n=a#4 v=0
545040 On ch=6 n=b2 v=47
545280 On ch=6 n=b2 v=0
545280 On ch=6 n=e3 v=49
545640 On ch=6 n=e3 v=0
545640 On ch=6 n=c#3 v=47
545760 On ch=6 n=c#3 v=0
545760 On ch=6 n=f#3 v=47
546000 On ch=6 n=f#3 v=0
546000 On ch=6 n=f#3 v=46
546240 On ch=6 n=f#3 v=0
546240 On ch=6 n=b2 v=44
546720 On ch=6 n=b2 v=0
547200 On ch=6 n=d#5 v=45
547920 On ch=6 n=d#5 v=0
547920 On ch=6 n=c#5 v=43
548160 On ch=6 n=c#5 v=0
548160 On ch=6 n=b4 v=40
548640 On ch=6 n=b4 v=0
548880 On ch=6 n=a#3 v=40
549120 On ch=6 n=a#3 v=0
549120 On ch=6 n=g#3 v=43
549480 On ch=6 n=g#3 v=0
549480 On ch=6 n=a#3 v=40
549600 On ch=6 n=a#3 v=0
549600 On ch=6 n=b3 v=39
549840 On ch=6 n=b3 v=0
549840 On ch=6 n=c#4 v=37
550080 On ch=6 n=c#4 v=0
550080 On ch=6 n=f#3 v=41
550440 On ch=6 n=f#3 v=0
550440 On ch=6 n=g#3 v=37
550560 On ch=6 n=g#3 v=0
550560 On ch=6 n=a#3 v=36
550800 On ch=6 n=a#3 v=0
550800 On ch=6 n=b3 v=33
551040 On ch=6 n=b3 v=0
551040 On ch=6 n=g#3 v=37
551400 On ch=6 n=g#3 v=0
551400 On ch=6 n=a#3 v=34
551520 On ch=6 n=a#3 v=0
551520 On ch=6 n=b3 v=33
551760 On ch=6 n=b3 v=0
551760 On ch=6 n=c#4 v=32
552000 On ch=6 n=c#4 v=0
552000 On ch=6 n=f#3 v=41
552360 On ch=6 n=f#3 v=0
552360 On ch=6 n=g#3 v=38
552480 On ch=6 n=g#3 v=0
552480 On ch=6 n=a#3 v=37
552720 On ch=6 n=a#3 v=0
552720 On ch=6 n=b3 v=38
552960 On ch=6 n=b3 v=0
552960 On ch=6 n=c#4 v=43
553320 On ch=6 n=d#4 v=42
553335 On ch=6 n=c#4 v=0
553440 On ch=6 n=d#4 v=0
553440 On ch=6 n=e4 v=42
553680 On ch=6 n=e4 v=0
553680 On ch=6 n=f#4 v=42
553920 On ch=6 n=f#4 v=0
553920 On ch=6 n=g#4 v=51
554280 On ch=6 n=g#4 v=0
554280 On ch=6 n=a#4 v=46
554400 On ch=6 n=a#4 v=0
554400 On ch=6 n=b4 v=45
554640 On ch=6 n=b4 v=0
554640 On ch=6 n=c#5 v=49
554880 On ch=6 n=c#5 v=0
554880 On ch=6 n=d#5 v=57
555240 On ch=6 n=d#5 v=0
555240 On ch=6 n=e5 v=54
555360 On ch=6 n=e5 v=0
555360 On ch=6 n=f#5 v=53
555600 On ch=6 n=f#5 v=0
555600 On ch=6 n=b5 v=54
555840 On ch=6 n=b5 v=0
555840 On ch=6 n=f5 v=65
556200 On ch=6 n=f5 v=0
556200 On ch=6 n=f#5 v=61
556320 On ch=6 n=f#5 v=0
556320 On ch=6 n=g#5 v=60
556560 On ch=6 n=g#5 v=0
556560 On ch=6 n=c#6 v=69
556800 On ch=6 n=c#6 v=0
556800 On ch=6 n=f5 v=68
557160 On ch=6 n=f5 v=0
557160 On ch=6 n=f#5 v=65
557280 On ch=6 n=f#5 v=0
557280 On ch=6 n=g#5 v=63
557520 On ch=6 n=g#5 v=0
557520 On ch=6 n=c#6 v=74
557760 On ch=6 n=c#6 v=0
557760 On ch=6 n=f#5 v=73
558120 On ch=6 n=f#5 v=0
558120 On ch=6 n=g#5 v=70
558240 On ch=6 n=g#5 v=0
558240 On ch=6 n=a#5 v=69
558480 On ch=6 n=a#5 v=0
558480 On ch=6 n=c#6 v=78
558720 On ch=6 n=c#6 v=0
558720 On ch=6 n=f5 v=79
559080 On ch=6 n=f5 v=0
559080 On ch=6 n=f#5 v=76
559200 On ch=6 n=f#5 v=0
559200 On ch=6 n=g#5 v=74
559440 On ch=6 n=g#5 v=0
559440 On ch=6 n=c#6 v=85
559680 On ch=6 n=c#6 v=0
559680 On ch=6 n=d#5 v=85
560040 On ch=6 n=d#5 v=0
560040 On ch=6 n=f5 v=82
560160 On ch=6 n=f5 v=0
560160 On ch=6 n=f#5 v=81
560400 On ch=6 n=f#5 v=0
560400 On ch=6 n=c#6 v=88
560640 On ch=6 n=c#6 v=0
560640 On ch=6 n=c#5 v=91
561000 On ch=6 n=c#5 v=0
561000 On ch=6 n=d#5 v=88
561120 On ch=6 n=d#5 v=0
561120 On ch=6 n=f5 v=86
561360 On ch=6 n=f5 v=0
561360 On ch=6 n=f5 v=91
561600 On ch=6 n=f5 v=0
561600 On ch=6 n=f5 v=95
561960 On ch=6 n=f5 v=0
561960 On ch=6 n=f#5 v=79
562080 On ch=6 n=f#5 v=0
562080 On ch=6 n=g#5 v=73
562320 On ch=6 n=g#5 v=0
562320 On ch=6 n=f4 v=61
562476 On ch=6 n=f4 v=0
562560 On ch=6 n=f4 v=57
562920 On ch=6 n=f4 v=0
562920 On ch=6 n=f#4 v=52
562998 On ch=6 n=f#4 v=0
563040 On ch=6 n=g#4 v=51
563196 On ch=6 n=g#4 v=0
563280 On ch=6 n=a#4 v=48
563436 On ch=6 n=a#4 v=0
563520 On ch=6 n=b4 v=45
565440 On ch=6 n=b4 v=0
565440 On ch=6 n=a4 v=33
567360 On ch=6 n=a4 v=0
572160 On ch=6 n=c4 v=85
572160 On ch=6 n=f#3 v=85
572880 On ch=6 n=c4 v=0
572880 On ch=6 n=c#4 v=78
573120 On ch=6 n=c#4 v=0
573120 On ch=6 n=d#4 v=77
573360 On ch=6 n=d#4 v=0
573360 On ch=6 n=b3 v=81
573600 On ch=6 n=b3 v=0
573600 On ch=6 n=f4 v=84
573840 On ch=6 n=f4 v=0
573840 On ch=6 n=c#4 v=88
574080 On ch=6 n=c#4 v=0
574080 On ch=6 n=f#3 v=0
574080 On ch=6 n=f#4 v=95
574080 On ch=6 n=c5 v=95
574800 On ch=6 n=c5 v=0
574800 On ch=6 n=c#5 v=90
575040 On ch=6 n=c#5 v=0
575040 On ch=6 n=d#5 v=88
575280 On ch=6 n=d#5 v=0
575280 On ch=6 n=b4 v=92
575520 On ch=6 n=b4 v=0
575520 On ch=6 n=f5 v=95
575760 On ch=6 n=f5 v=0
575760 On ch=6 n=c#5 v=98
576000 On ch=6 n=c#5 v=0
576000 On ch=6 n=f#4 v=0
576000 On ch=6 n=f#5 v=101
576156 On ch=6 n=f#5 v=0
576240 On ch=6 n=c#5 v=104
576396 On ch=6 n=c#5 v=0
576480 On ch=6 n=f#4 v=107
576636 On ch=6 n=f#4 v=0
576720 On ch=6 n=c#4 v=110
576876 On ch=6 n=c#4 v=0
576960 On ch=6 n=f#3 v=113
577116 On ch=6 n=f#3 v=0
577116 Meta TrkEnd
TrkEnd
