MFile 1 3 240
MTrk
0 TimeSig 4/4 24 8
0 Tempo 240964
0 Meta Marker "By Malcolm Dale"
0 Meta Marker "Chopin Sonata #2 in B Flat Min op.35 4th Mov(presto)"
0 Meta Marker "Generated by NoteWorthy Composer"
72960 Tempo 545455
72960 Meta TrkEnd
TrkEnd
MTrk
0 Meta TrkName "Upper G.S."
0 PrCh ch=1 p=0
0 Par ch=1 c=7 v=127
0 Par ch=1 c=10 v=64
0 Par ch=1 c=7 v=80
0 On ch=1 n=f4 v=80
80 Off ch=1 n=f4 v=64
80 On ch=1 n=g4 v=80
160 Off ch=1 n=g4 v=64
160 On ch=1 n=a#4 v=80
240 Off ch=1 n=a#4 v=64
240 On ch=1 n=c#5 v=80
320 Off ch=1 n=c#5 v=64
320 On ch=1 n=e4 v=80
400 Off ch=1 n=e4 v=64
400 On ch=1 n=g4 v=80
480 Off ch=1 n=g4 v=64
480 On ch=1 n=f4 v=80
560 Off ch=1 n=f4 v=64
560 On ch=1 n=g4 v=80
640 Off ch=1 n=g4 v=64
640 On ch=1 n=a#4 v=80
720 Off ch=1 n=a#4 v=64
720 On ch=1 n=c#5 v=80
800 Off ch=1 n=c#5 v=64
800 On ch=1 n=e4 v=80
880 Off ch=1 n=e4 v=64
880 On ch=1 n=g4 v=80
960 Off ch=1 n=g4 v=64
960 On ch=1 n=g4 v=80
1040 Off ch=1 n=g4 v=64
1040 On ch=1 n=a4 v=80
1120 Off ch=1 n=a4 v=64
1120 On ch=1 n=c5 v=80
1200 Off ch=1 n=c5 v=64
1200 On ch=1 n=d#5 v=80
1280 Off ch=1 n=d#5 v=64
1280 On ch=1 n=f#4 v=80
1360 Off ch=1 n=f#4 v=64
1360 On ch=1 n=a4 v=80
1440 Off ch=1 n=a4 v=64
1440 On ch=1 n=g4 v=80
1520 Off ch=1 n=g4 v=64
1520 On ch=1 n=a4 v=80
1600 Off ch=1 n=a4 v=64
1600 On ch=1 n=c5 v=80
1680 Off ch=1 n=c5 v=64
1680 On ch=1 n=d#5 v=80
1760 Off ch=1 n=d#5 v=64
1760 On ch=1 n=f#4 v=80
1840 Off ch=1 n=f#4 v=64
1840 On ch=1 n=a4 v=80
1920 Off ch=1 n=a4 v=64
1920 On ch=1 n=a#4 v=80
2000 Off ch=1 n=a#4 v=64
2000 On ch=1 n=c5 v=80
2080 Off ch=1 n=c5 v=64
2080 On ch=1 n=d#5 v=80
2160 Off ch=1 n=d#5 v=64
2160 On ch=1 n=f#5 v=80
2240 Off ch=1 n=f#5 v=64
2240 On ch=1 n=a4 v=80
2320 Off ch=1 n=a4 v=64
2320 On ch=1 n=c5 v=80
2400 Off ch=1 n=c5 v=64
2400 On ch=1 n=c#5 v=80
2480 Off ch=1 n=c#5 v=64
2480 On ch=1 n=d#5 v=80
2560 Off ch=1 n=d#5 v=64
2560 On ch=1 n=f#5 v=80
2640 Off ch=1 n=f#5 v=64
2640 On ch=1 n=a5 v=80
2720 Off ch=1 n=a5 v=64
2720 On ch=1 n=c5 v=80
2800 Off ch=1 n=c5 v=64
2800 On ch=1 n=d#5 v=80
2880 Off ch=1 n=d#5 v=64
2880 On ch=1 n=c#5 v=80
2960 Off ch=1 n=c#5 v=64
2960 On ch=1 n=d#5 v=80
3040 Off ch=1 n=d#5 v=64
3040 On ch=1 n=f#5 v=80
3120 Off ch=1 n=f#5 v=64
3120 On ch=1 n=a5 v=80
3200 Off ch=1 n=a5 v=64
3200 On ch=1 n=c5 v=80
3280 Off ch=1 n=c5 v=64
3280 On ch=1 n=d#5 v=80
3360 Off ch=1 n=d#5 v=64
3360 On ch=1 n=f#5 v=80
3440 Off ch=1 n=f#5 v=64
3440 On ch=1 n=a#5 v=80
3520 Off ch=1 n=a#5 v=64
3520 On ch=1 n=c6 v=80
3600 Off ch=1 n=c6 v=64
3600 On ch=1 n=d#6 v=80
3680 Off ch=1 n=d#6 v=64
3680 On ch=1 n=f5 v=80
3760 Off ch=1 n=f5 v=64
3760 On ch=1 n=a5 v=80
3840 Off ch=1 n=a5 v=64
3840 On ch=1 n=a#5 v=80
3920 Off ch=1 n=a#5 v=64
3920 On ch=1 n=c#6 v=80
4000 Off ch=1 n=c#6 v=64
4000 On ch=1 n=f#6 v=80
4080 Off ch=1 n=f#6 v=64
4080 On ch=1 n=f6 v=80
4160 Off ch=1 n=f6 v=64
4160 On ch=1 n=c6 v=80
4240 Off ch=1 n=c6 v=64
4240 On ch=1 n=c#6 v=80
4320 Off ch=1 n=c#6 v=64
4320 On ch=1 n=e6 v=80
4400 Off ch=1 n=e6 v=64
4400 On ch=1 n=c6 v=80
4480 Off ch=1 n=c6 v=64
4480 On ch=1 n=c#6 v=80
4560 Off ch=1 n=c#6 v=64
4560 On ch=1 n=a5 v=80
4640 Off ch=1 n=a5 v=64
4640 On ch=1 n=a#5 v=80
4720 Off ch=1 n=a#5 v=64
4720 On ch=1 n=f#5 v=80
4800 Off ch=1 n=f#5 v=64
4800 On ch=1 n=e5 v=80
4880 Off ch=1 n=e5 v=64
4880 On ch=1 n=f5 v=80
4960 Off ch=1 n=f5 v=64
4960 On ch=1 n=a#5 v=80
5040 Off ch=1 n=a#5 v=64
5040 On ch=1 n=g#5 v=80
5120 Off ch=1 n=g#5 v=64
5120 On ch=1 n=a5 v=80
5200 Off ch=1 n=a5 v=64
5200 On ch=1 n=c#6 v=80
5280 Off ch=1 n=c#6 v=64
5280 On ch=1 n=a5 v=80
5360 Off ch=1 n=a5 v=64
5360 On ch=1 n=a#5 v=80
5440 Off ch=1 n=a#5 v=64
5440 On ch=1 n=c#6 v=80
5520 Off ch=1 n=c#6 v=64
5520 On ch=1 n=b5 v=80
5600 Off ch=1 n=b5 v=64
5600 On ch=1 n=c6 v=80
5680 Off ch=1 n=c6 v=64
5680 On ch=1 n=f6 v=80
5760 Off ch=1 n=f6 v=64
5760 On ch=1 n=g#5 v=80
5840 Off ch=1 n=g#5 v=64
5840 On ch=1 n=b5 v=80
5920 Off ch=1 n=b5 v=64
5920 On ch=1 n=e6 v=80
6000 Off ch=1 n=e6 v=64
6000 On ch=1 n=d#6 v=80
6080 Off ch=1 n=d#6 v=64
6080 On ch=1 n=a#5 v=80
6160 Off ch=1 n=a#5 v=64
6160 On ch=1 n=b5 v=80
6240 Off ch=1 n=b5 v=64
6240 On ch=1 n=d6 v=80
6320 Off ch=1 n=d6 v=64
6320 On ch=1 n=a#5 v=80
6400 Off ch=1 n=a#5 v=64
6400 On ch=1 n=b5 v=80
6480 Off ch=1 n=b5 v=64
6480 On ch=1 n=g5 v=80
6560 Off ch=1 n=g5 v=64
6560 On ch=1 n=g#5 v=80
6640 Off ch=1 n=g#5 v=64
6640 On ch=1 n=e5 v=80
6720 Off ch=1 n=e5 v=64
6720 On ch=1 n=d5 v=80
6800 Off ch=1 n=d5 v=64
6800 On ch=1 n=d#5 v=80
6880 Off ch=1 n=d#5 v=64
6880 On ch=1 n=g#5 v=80
6960 Off ch=1 n=g#5 v=64
6960 On ch=1 n=e5 v=80
7040 Off ch=1 n=e5 v=64
7040 On ch=1 n=f5 v=80
7120 Off ch=1 n=f5 v=64
7120 On ch=1 n=b5 v=80
7200 Off ch=1 n=b5 v=64
7200 On ch=1 n=f5 v=80
7280 Off ch=1 n=f5 v=64
7280 On ch=1 n=f#5 v=80
7360 Off ch=1 n=f#5 v=64
7360 On ch=1 n=b5 v=80
7440 Off ch=1 n=b5 v=64
7440 On ch=1 n=a5 v=80
7520 Off ch=1 n=a5 v=64
7520 On ch=1 n=a#5 v=80
7600 Off ch=1 n=a#5 v=64
7600 On ch=1 n=e6 v=80
7680 Off ch=1 n=e6 v=64
7680 On ch=1 n=c#6 v=80
7760 Off ch=1 n=c#6 v=64
7760 On ch=1 n=f5 v=80
7840 Off ch=1 n=f5 v=64
7840 On ch=1 n=a#5 v=80
7920 Off ch=1 n=a#5 v=64
7920 On ch=1 n=c#5 v=80
8000 Off ch=1 n=c#5 v=64
8000 On ch=1 n=e5 v=80
8080 Off ch=1 n=e5 v=64
8080 On ch=1 n=a5 v=80
8160 Off ch=1 n=a5 v=64
8160 On ch=1 n=c6 v=80
8240 Off ch=1 n=c6 v=64
8240 On ch=1 n=d#5 v=80
8320 Off ch=1 n=d#5 v=64
8320 On ch=1 n=g#5 v=80
8400 Off ch=1 n=g#5 v=64
8400 On ch=1 n=b4 v=80
8480 Off ch=1 n=b4 v=64
8480 On ch=1 n=d5 v=80
8560 Off ch=1 n=d5 v=64
8560 On ch=1 n=g5 v=80
8640 Off ch=1 n=g5 v=64
8640 On ch=1 n=b5 v=80
8720 Off ch=1 n=b5 v=64
8720 On ch=1 n=d5 v=80
8800 Off ch=1 n=d5 v=64
8800 On ch=1 n=f#5 v=80
8880 Off ch=1 n=f#5 v=64
8880 On ch=1 n=a#4 v=80
8960 Off ch=1 n=a#4 v=64
8960 On ch=1 n=c#5 v=80
9040 Off ch=1 n=c#5 v=64
9040 On ch=1 n=f#5 v=80
9120 Off ch=1 n=f#5 v=64
9120 On ch=1 n=a#5 v=80
9200 Off ch=1 n=a#5 v=64
9200 On ch=1 n=f#5 v=80
9280 Off ch=1 n=f#5 v=64
9280 On ch=1 n=b5 v=80
9360 Off ch=1 n=b5 v=64
9360 On ch=1 n=c6 v=80
9440 Off ch=1 n=c6 v=64
9440 On ch=1 n=c#6 v=80
9520 Off ch=1 n=c#6 v=64
9520 On ch=1 n=d#6 v=80
9600 Off ch=1 n=d#6 v=64
9600 On ch=1 n=e6 v=80
9680 Off ch=1 n=e6 v=64
9680 On ch=1 n=g5 v=80
9760 Off ch=1 n=g5 v=64
9760 On ch=1 n=c6 v=80
9840 Off ch=1 n=c6 v=64
9840 On ch=1 n=d#5 v=80
9920 Off ch=1 n=d#5 v=64
9920 On ch=1 n=f#5 v=80
10000 Off ch=1 n=f#5 v=64
10000 On ch=1 n=b5 v=80
10080 Off ch=1 n=b5 v=64
10080 On ch=1 n=d6 v=80
10160 Off ch=1 n=d6 v=64
10160 On ch=1 n=f5 v=80
10240 Off ch=1 n=f5 v=64
10240 On ch=1 n=a#5 v=80
10320 Off ch=1 n=a#5 v=64
10320 On ch=1 n=c#5 v=80
10400 Off ch=1 n=c#5 v=64
10400 On ch=1 n=e5 v=80
10480 Off ch=1 n=e5 v=64
10480 On ch=1 n=a5 v=80
10560 Off ch=1 n=a5 v=64
10560 On ch=1 n=c6 v=80
10640 Off ch=1 n=c6 v=64
10640 On ch=1 n=e5 v=80
10720 Off ch=1 n=e5 v=64
10720 On ch=1 n=g#5 v=80
10800 Off ch=1 n=g#5 v=64
10800 On ch=1 n=b4 v=80
10880 Off ch=1 n=b4 v=64
10880 On ch=1 n=d5 v=80
10960 Off ch=1 n=d5 v=64
10960 On ch=1 n=g5 v=80
11040 Off ch=1 n=g5 v=64
11040 On ch=1 n=b5 v=80
11120 Off ch=1 n=b5 v=64
11120 On ch=1 n=f#5 v=80
11200 Off ch=1 n=f#5 v=64
11200 On ch=1 n=c#6 v=80
11280 Off ch=1 n=c#6 v=64
11280 On ch=1 n=d6 v=80
11360 Off ch=1 n=d6 v=64
11360 On ch=1 n=d#6 v=80
11440 Off ch=1 n=d#6 v=64
11440 On ch=1 n=e6 v=80
11520 Off ch=1 n=e6 v=64
11520 On ch=1 n=f6 v=80
11520 On ch=1 n=f5 v=80
11580 Par ch=1 c=7 v=81
11600 Off ch=1 n=f5 v=64
11600 Off ch=1 n=f6 v=64
11600 On ch=1 n=a5 v=81
11600 On ch=1 n=a4 v=81
11640 Par ch=1 c=7 v=82
11680 Off ch=1 n=a4 v=64
11680 Off ch=1 n=a5 v=64
11680 On ch=1 n=d#6 v=82
11680 On ch=1 n=d#5 v=82
11700 Par ch=1 c=7 v=83
11760 Off ch=1 n=d#5 v=64
11760 Off ch=1 n=d#6 v=64
11760 Par ch=1 c=7 v=84
11760 On ch=1 n=e6 v=83
11760 On ch=1 n=e5 v=83
11820 Par ch=1 c=7 v=85
11840 Off ch=1 n=e5 v=64
11840 Off ch=1 n=e6 v=64
11840 On ch=1 n=f6 v=84
11840 On ch=1 n=f5 v=84
11880 Par ch=1 c=7 v=86
11920 Off ch=1 n=f5 v=64
11920 Off ch=1 n=f6 v=64
11920 On ch=1 n=f#6 v=85
11920 On ch=1 n=f#5 v=85
11940 Par ch=1 c=7 v=87
12000 Off ch=1 n=f#5 v=64
12000 Off ch=1 n=f#6 v=64
12000 Par ch=1 c=7 v=88
12000 On ch=1 n=f6 v=86
12000 On ch=1 n=f5 v=86
12060 Par ch=1 c=7 v=89
12080 Off ch=1 n=f5 v=64
12080 Off ch=1 n=f6 v=64
12080 On ch=1 n=a#5 v=87
12080 On ch=1 n=a#4 v=87
12120 Par ch=1 c=7 v=90
12160 Off ch=1 n=a#4 v=64
12160 Off ch=1 n=a#5 v=64
12160 On ch=1 n=c#6 v=88
12160 On ch=1 n=c#5 v=88
12180 Par ch=1 c=7 v=91
12240 Off ch=1 n=c#5 v=64
12240 Off ch=1 n=c#6 v=64
12240 Par ch=1 c=7 v=92
12240 On ch=1 n=e6 v=89
12240 On ch=1 n=e5 v=89
12300 Par ch=1 c=7 v=93
12320 Off ch=1 n=e5 v=64
12320 Off ch=1 n=e6 v=64
12320 On ch=1 n=f6 v=90
12320 On ch=1 n=f5 v=90
12360 Par ch=1 c=7 v=94
12400 Off ch=1 n=f5 v=64
12400 Off ch=1 n=f6 v=64
12400 On ch=1 n=f#6 v=91
12400 On ch=1 n=f#5 v=91
12420 Par ch=1 c=7 v=95
12480 Off ch=1 n=f#5 v=64
12480 Off ch=1 n=f#6 v=64
12480 Par ch=1 c=7 v=96
12480 On ch=1 n=g6 v=92
12480 On ch=1 n=g5 v=92
12540 Par ch=1 c=7 v=97
12560 Off ch=1 n=g5 v=64
12560 Off ch=1 n=g6 v=64
12560 On ch=1 n=b5 v=93
12560 On ch=1 n=b4 v=93
12600 Par ch=1 c=7 v=98
12640 Off ch=1 n=b4 v=64
12640 Off ch=1 n=b5 v=64
12640 On ch=1 n=f6 v=94
12640 On ch=1 n=f5 v=94
12660 Par ch=1 c=7 v=99
12720 Off ch=1 n=f5 v=64
12720 Off ch=1 n=f6 v=64
12720 Par ch=1 c=7 v=100
12720 On ch=1 n=f#6 v=95
12720 On ch=1 n=f#5 v=95
12780 Par ch=1 c=7 v=101
12800 Off ch=1 n=f#5 v=64
12800 Off ch=1 n=f#6 v=64
12800 On ch=1 n=g6 v=96
12800 On ch=1 n=g5 v=96
12840 Par ch=1 c=7 v=102
12880 Off ch=1 n=g5 v=64
12880 Off ch=1 n=g6 v=64
12880 On ch=1 n=g#6 v=97
12880 On ch=1 n=g#5 v=97
12900 Par ch=1 c=7 v=103
12960 Off ch=1 n=g#5 v=64
12960 Off ch=1 n=g#6 v=64
12960 Par ch=1 c=7 v=104
12960 On ch=1 n=g6 v=98
12960 On ch=1 n=g5 v=98
13020 Par ch=1 c=7 v=105
13040 Off ch=1 n=g5 v=64
13040 Off ch=1 n=g6 v=64
13040 On ch=1 n=c6 v=99
13040 On ch=1 n=c5 v=99
13080 Par ch=1 c=7 v=106
13120 Off ch=1 n=c5 v=64
13120 Off ch=1 n=c6 v=64
13120 On ch=1 n=d#6 v=100
13120 On ch=1 n=d#5 v=100
13140 Par ch=1 c=7 v=107
13200 Off ch=1 n=d#5 v=64
13200 Off ch=1 n=d#6 v=64
13200 Par ch=1 c=7 v=108
13200 On ch=1 n=f#6 v=101
13200 On ch=1 n=f#5 v=101
13260 Par ch=1 c=7 v=109
13280 Off ch=1 n=f#5 v=64
13280 Off ch=1 n=f#6 v=64
13280 On ch=1 n=g6 v=102
13280 On ch=1 n=g5 v=102
13320 Par ch=1 c=7 v=110
13360 Off ch=1 n=g5 v=64
13360 Off ch=1 n=g6 v=64
13360 On ch=1 n=g#6 v=103
13360 On ch=1 n=g#5 v=103
13380 Par ch=1 c=7 v=111
13440 Off ch=1 n=g#5 v=64
13440 Off ch=1 n=g#6 v=64
13440 Par ch=1 c=7 v=112
13440 On ch=1 n=d#6 v=112
13520 Off ch=1 n=d#6 v=64
13520 On ch=1 n=c6 v=112
13600 Off ch=1 n=c6 v=64
13600 On ch=1 n=f6 v=112
13680 Off ch=1 n=f6 v=64
13680 On ch=1 n=d#6 v=112
13760 Off ch=1 n=d#6 v=64
13760 On ch=1 n=g#5 v=112
13840 Off ch=1 n=g#5 v=64
13840 On ch=1 n=c#6 v=112
13920 Off ch=1 n=c#6 v=64
13920 On ch=1 n=c6 v=112
14000 Off ch=1 n=c6 v=64
14000 On ch=1 n=d#5 v=112
14080 Off ch=1 n=d#5 v=64
14080 On ch=1 n=a#5 v=112
14160 Off ch=1 n=a#5 v=64
14160 On ch=1 n=g#5 v=112
14240 Off ch=1 n=g#5 v=64
14240 On ch=1 n=c5 v=112
14320 Off ch=1 n=c5 v=64
14320 On ch=1 n=f5 v=112
14400 Off ch=1 n=f5 v=64
14400 On ch=1 n=d#5 v=112
14480 Off ch=1 n=d#5 v=64
14480 On ch=1 n=g#4 v=112
14560 Off ch=1 n=g#4 v=64
14560 On ch=1 n=c#5 v=112
14640 Off ch=1 n=c#5 v=64
14640 On ch=1 n=c5 v=112
14720 Off ch=1 n=c5 v=64
14720 On ch=1 n=g4 v=112
14800 Off ch=1 n=g4 v=64
14800 On ch=1 n=g#4 v=112
14880 Off ch=1 n=g#4 v=64
14880 On ch=1 n=c5 v=112
14960 Off ch=1 n=c5 v=64
14960 On ch=1 n=f#4 v=112
15040 Off ch=1 n=f#4 v=64
15040 On ch=1 n=d5 v=112
15120 Off ch=1 n=d5 v=64
15120 On ch=1 n=c5 v=112
15200 Off ch=1 n=c5 v=64
15200 On ch=1 n=f4 v=112
15280 Off ch=1 n=f4 v=64
15280 On ch=1 n=f#4 v=112
15360 Off ch=1 n=f#4 v=64
15360 On ch=1 n=g4 v=112
15440 Off ch=1 n=g4 v=64
15440 On ch=1 n=a4 v=112
15520 Off ch=1 n=a4 v=64
15520 On ch=1 n=b4 v=112
15600 Off ch=1 n=b4 v=64
15600 On ch=1 n=c5 v=112
15680 Off ch=1 n=c5 v=64
15680 On ch=1 n=d5 v=112
15760 Off ch=1 n=d5 v=64
15760 On ch=1 n=d#5 v=112
15840 Off ch=1 n=d#5 v=64
15840 On ch=1 n=g#4 v=112
15920 Off ch=1 n=g#4 v=64
15920 On ch=1 n=a#4 v=112
16000 Off ch=1 n=a#4 v=64
16000 On ch=1 n=b4 v=112
16080 Off ch=1 n=b4 v=64
16080 On ch=1 n=c5 v=112
16160 Off ch=1 n=c5 v=64
16160 On ch=1 n=c#5 v=112
16240 Off ch=1 n=c#5 v=64
16240 On ch=1 n=d#5 v=112
16320 Off ch=1 n=d#5 v=64
16320 On ch=1 n=a4 v=112
16400 Off ch=1 n=a4 v=64
16400 On ch=1 n=a#4 v=112
16480 Off ch=1 n=a#4 v=64
16480 On ch=1 n=c5 v=112
16560 Off ch=1 n=c5 v=64
16560 On ch=1 n=c#5 v=112
16640 Off ch=1 n=c#5 v=64
16640 On ch=1 n=d#5 v=112
16720 Off ch=1 n=d#5 v=64
16720 On ch=1 n=f5 v=112
16800 Off ch=1 n=f5 v=64
16800 On ch=1 n=a#4 v=112
16880 Off ch=1 n=a#4 v=64
16880 On ch=1 n=b4 v=112
16960 Off ch=1 n=b4 v=64
16960 On ch=1 n=c5 v=112
17040 Off ch=1 n=c5 v=64
17040 On ch=1 n=c#5 v=112
17120 Off ch=1 n=c#5 v=64
17120 On ch=1 n=d#5 v=112
17200 Off ch=1 n=d#5 v=64
17200 On ch=1 n=f5 v=112
17280 Off ch=1 n=f5 v=64
17280 On ch=1 n=c5 v=112
17360 Off ch=1 n=c5 v=64
17360 On ch=1 n=c#5 v=112
17440 Off ch=1 n=c#5 v=64
17440 On ch=1 n=d5 v=112
17520 Off ch=1 n=d5 v=64
17520 On ch=1 n=d#5 v=112
17600 Off ch=1 n=d#5 v=64
17600 On ch=1 n=f5 v=112
17680 Off ch=1 n=f5 v=64
17680 On ch=1 n=f#5 v=112
17760 Off ch=1 n=f#5 v=64
17760 On ch=1 n=a4 v=112
17840 Off ch=1 n=a4 v=64
17840 On ch=1 n=c#5 v=112
17920 Off ch=1 n=c#5 v=64
17920 On ch=1 n=d5 v=112
18000 Off ch=1 n=d5 v=64
18000 On ch=1 n=d#5 v=112
18080 Off ch=1 n=d#5 v=64
18080 On ch=1 n=f5 v=112
18160 Off ch=1 n=f5 v=64
18160 On ch=1 n=f#5 v=112
18240 Off ch=1 n=f#5 v=64
18240 On ch=1 n=a5 v=112
18320 Off ch=1 n=a5 v=64
18320 On ch=1 n=f#5 v=112
18400 Off ch=1 n=f#5 v=64
18400 On ch=1 n=e5 v=112
18480 Off ch=1 n=e5 v=64
18480 On ch=1 n=d5 v=112
18560 Off ch=1 n=d5 v=64
18560 On ch=1 n=e5 v=112
18640 Off ch=1 n=e5 v=64
18640 On ch=1 n=f#5 v=112
18720 Off ch=1 n=f#5 v=64
18720 On ch=1 n=a4 v=112
18800 Off ch=1 n=a4 v=64
18800 On ch=1 n=c#5 v=112
18880 Off ch=1 n=c#5 v=64
18880 On ch=1 n=d5 v=112
18960 Off ch=1 n=d5 v=64
18960 On ch=1 n=e5 v=112
19040 Off ch=1 n=e5 v=64
19040 On ch=1 n=f5 v=112
19120 Off ch=1 n=f5 v=64
19120 On ch=1 n=f#5 v=112
19200 Off ch=1 n=f#5 v=64
19200 On ch=1 n=a5 v=112
19280 Off ch=1 n=a5 v=64
19280 On ch=1 n=g#5 v=112
19360 Off ch=1 n=g#5 v=64
19360 On ch=1 n=g5 v=112
19440 Off ch=1 n=g5 v=64
19440 On ch=1 n=f#5 v=112
19520 Off ch=1 n=f#5 v=64
19520 On ch=1 n=d#5 v=112
19600 Off ch=1 n=d#5 v=64
19600 On ch=1 n=c5 v=112
19680 Off ch=1 n=c5 v=64
19680 On ch=1 n=f#5 v=112
19760 Off ch=1 n=f#5 v=64
19760 On ch=1 n=d#5 v=112
19840 Off ch=1 n=d#5 v=64
19840 On ch=1 n=c5 v=112
19920 Off ch=1 n=c5 v=64
19920 On ch=1 n=a#4 v=112
20000 Off ch=1 n=a#4 v=64
20000 On ch=1 n=a4 v=112
20080 Off ch=1 n=a4 v=64
20080 On ch=1 n=g#4 v=112
20160 Off ch=1 n=g#4 v=64
22080 On ch=1 n=g#4 v=112
22160 Off ch=1 n=g#4 v=64
22160 On ch=1 n=f5 v=112
22240 Off ch=1 n=f5 v=64
22240 On ch=1 n=d#5 v=112
22320 Off ch=1 n=d#5 v=64
22320 On ch=1 n=c#5 v=112
22400 Off ch=1 n=c#5 v=64
22400 On ch=1 n=c5 v=112
22480 Off ch=1 n=c5 v=64
22480 On ch=1 n=a#4 v=112
22560 Off ch=1 n=a#4 v=64
22560 On ch=1 n=g#4 v=112
22640 Off ch=1 n=g#4 v=64
22640 On ch=1 n=f4 v=112
22720 Off ch=1 n=f4 v=64
22720 On ch=1 n=f#4 v=112
22800 Off ch=1 n=f#4 v=64
22800 On ch=1 n=g#4 v=112
22880 Off ch=1 n=g#4 v=64
22880 On ch=1 n=f4 v=112
22960 Off ch=1 n=f4 v=64
22960 On ch=1 n=a#4 v=112
23040 Off ch=1 n=a#4 v=64
24960 On ch=1 n=g#3 v=112
25040 Off ch=1 n=g#3 v=64
25040 On ch=1 n=c#4 v=112
25120 Off ch=1 n=c#4 v=64
25120 On ch=1 n=d#4 v=112
25200 Off ch=1 n=d#4 v=64
25200 On ch=1 n=f4 v=112
25280 Off ch=1 n=f4 v=64
25280 On ch=1 n=f#4 v=112
25360 Off ch=1 n=f#4 v=64
25360 On ch=1 n=g#4 v=112
25440 Off ch=1 n=g#4 v=64
25440 On ch=1 n=a#4 v=112
25520 Off ch=1 n=a#4 v=64
25520 On ch=1 n=c5 v=112
25600 Off ch=1 n=c5 v=64
25600 On ch=1 n=c#5 v=112
25680 Off ch=1 n=c#5 v=64
25680 On ch=1 n=d#5 v=112
25760 Off ch=1 n=d#5 v=64
25760 On ch=1 n=f5 v=112
25840 Off ch=1 n=f5 v=64
25840 On ch=1 n=f#5 v=112
25920 Off ch=1 n=f#5 v=64
25920 On ch=1 n=g#5 v=112
26000 Off ch=1 n=g#5 v=64
26000 On ch=1 n=f6 v=112
26080 Off ch=1 n=f6 v=64
26080 On ch=1 n=d#6 v=112
26160 Off ch=1 n=d#6 v=64
26160 On ch=1 n=c#6 v=112
26240 Off ch=1 n=c#6 v=64
26240 On ch=1 n=c6 v=112
26320 Off ch=1 n=c6 v=64
26320 On ch=1 n=a#5 v=112
26400 Off ch=1 n=a#5 v=64
26400 On ch=1 n=g#5 v=112
26480 Off ch=1 n=g#5 v=64
26480 On ch=1 n=f5 v=112
26560 Off ch=1 n=f5 v=64
26560 On ch=1 n=f#5 v=112
26640 Off ch=1 n=f#5 v=64
26640 On ch=1 n=g#5 v=112
26720 Off ch=1 n=g#5 v=64
26720 On ch=1 n=f5 v=112
26800 Off ch=1 n=f5 v=64
26800 On ch=1 n=a#5 v=112
26880 Off ch=1 n=a#5 v=64
26880 On ch=1 n=g#5 v=112
26960 Off ch=1 n=g#5 v=64
26960 On ch=1 n=d#5 v=112
27040 Off ch=1 n=d#5 v=64
27040 On ch=1 n=f5 v=112
27120 Off ch=1 n=f5 v=64
27120 On ch=1 n=f#5 v=112
27200 Off ch=1 n=f#5 v=64
27200 On ch=1 n=d#5 v=112
27280 Off ch=1 n=d#5 v=64
27280 On ch=1 n=a#5 v=112
27360 Off ch=1 n=a#5 v=64
27360 On ch=1 n=g#5 v=112
27440 Off ch=1 n=g#5 v=64
27440 On ch=1 n=c#5 v=112
27520 Off ch=1 n=c#5 v=64
27520 On ch=1 n=d#5 v=112
27600 Off ch=1 n=d#5 v=64
27600 On ch=1 n=f5 v=112
27680 Off ch=1 n=f5 v=64
27680 On ch=1 n=c#5 v=112
27760 Off ch=1 n=c#5 v=64
27760 On ch=1 n=a#5 v=112
27840 Off ch=1 n=a#5 v=64
27840 On ch=1 n=g#5 v=112
27920 Off ch=1 n=g#5 v=64
27920 On ch=1 n=c5 v=112
28000 Off ch=1 n=c5 v=64
28000 On ch=1 n=c#5 v=112
28080 Off ch=1 n=c#5 v=64
28080 On ch=1 n=d#5 v=112
28160 Off ch=1 n=d#5 v=64
28160 On ch=1 n=c5 v=112
28240 Off ch=1 n=c5 v=64
28240 On ch=1 n=f5 v=112
28320 Off ch=1 n=f5 v=64
28320 On ch=1 n=d#5 v=112
28400 Off ch=1 n=d#5 v=64
28400 On ch=1 n=a#4 v=112
28480 Off ch=1 n=a#4 v=64
28480 On ch=1 n=f5 v=112
28560 Off ch=1 n=f5 v=64
28560 On ch=1 n=d#5 v=112
28640 Off ch=1 n=d#5 v=64
28640 On ch=1 n=g#4 v=112
28720 Off ch=1 n=g#4 v=64
28720 On ch=1 n=f5 v=112
28800 Off ch=1 n=f5 v=64
28800 On ch=1 n=f#5 v=112
28880 Off ch=1 n=f#5 v=64
28880 On ch=1 n=f5 v=112
28960 Off ch=1 n=f5 v=64
28960 On ch=1 n=d#5 v=112
29040 Off ch=1 n=d#5 v=64
29040 On ch=1 n=c#5 v=112
29120 Off ch=1 n=c#5 v=64
29120 On ch=1 n=c5 v=112
29200 Off ch=1 n=c5 v=64
29200 On ch=1 n=a#4 v=112
29280 Off ch=1 n=a#4 v=64
29280 On ch=1 n=a4 v=112
29360 Off ch=1 n=a4 v=64
29360 On ch=1 n=f5 v=112
29440 Off ch=1 n=f5 v=64
29440 On ch=1 n=c5 v=112
29520 Off ch=1 n=c5 v=64
29520 On ch=1 n=d#5 v=112
29600 Off ch=1 n=d#5 v=64
29600 On ch=1 n=c#5 v=112
29680 Off ch=1 n=c#5 v=64
29680 On ch=1 n=a#4 v=112
29760 Off ch=1 n=a#4 v=64
29760 On ch=1 n=a4 v=112
29840 Off ch=1 n=a4 v=64
29840 On ch=1 n=f5 v=112
29920 Off ch=1 n=f5 v=64
29920 On ch=1 n=c5 v=112
30000 Off ch=1 n=c5 v=64
30000 On ch=1 n=d#5 v=112
30080 Off ch=1 n=d#5 v=64
30080 On ch=1 n=c#5 v=112
30160 Off ch=1 n=c#5 v=64
30160 On ch=1 n=a#4 v=112
30240 Off ch=1 n=a#4 v=64
30240 On ch=1 n=a4 v=112
30320 Off ch=1 n=a4 v=64
30320 On ch=1 n=f5 v=112
30400 Off ch=1 n=f5 v=64
30400 On ch=1 n=c5 v=112
30480 Off ch=1 n=c5 v=64
30480 On ch=1 n=d#5 v=112
30560 Off ch=1 n=d#5 v=64
30560 On ch=1 n=c#5 v=112
30640 Off ch=1 n=c#5 v=64
30640 On ch=1 n=a#4 v=112
30720 Off ch=1 n=a#4 v=64
30720 On ch=1 n=g#5 v=112
30800 Off ch=1 n=g#5 v=64
30800 On ch=1 n=g5 v=112
30880 Off ch=1 n=g5 v=64
30880 On ch=1 n=f5 v=112
30960 Off ch=1 n=f5 v=64
30960 On ch=1 n=d#5 v=112
31040 Off ch=1 n=d#5 v=64
31040 On ch=1 n=d5 v=112
31120 Off ch=1 n=d5 v=64
31120 On ch=1 n=c5 v=112
31200 Off ch=1 n=c5 v=64
31200 On ch=1 n=b4 v=112
31280 Off ch=1 n=b4 v=64
31280 On ch=1 n=g5 v=112
31360 Off ch=1 n=g5 v=64
31360 On ch=1 n=d5 v=112
31440 Off ch=1 n=d5 v=64
31440 On ch=1 n=f5 v=112
31520 Off ch=1 n=f5 v=64
31520 On ch=1 n=d#5 v=112
31600 Off ch=1 n=d#5 v=64
31600 On ch=1 n=c5 v=112
31680 Off ch=1 n=c5 v=64
31680 On ch=1 n=b4 v=112
31760 Off ch=1 n=b4 v=64
31760 On ch=1 n=g5 v=112
31840 Off ch=1 n=g5 v=64
31840 On ch=1 n=d5 v=112
31920 Off ch=1 n=d5 v=64
31920 On ch=1 n=f5 v=112
32000 Off ch=1 n=f5 v=64
32000 On ch=1 n=d#5 v=112
32080 Off ch=1 n=d#5 v=64
32080 On ch=1 n=c5 v=112
32160 Off ch=1 n=c5 v=64
32160 On ch=1 n=b4 v=112
32240 Off ch=1 n=b4 v=64
32240 On ch=1 n=g5 v=112
32320 Off ch=1 n=g5 v=64
32320 On ch=1 n=d5 v=112
32400 Off ch=1 n=d5 v=64
32400 On ch=1 n=f5 v=112
32480 Off ch=1 n=f5 v=64
32480 On ch=1 n=d#5 v=112
32560 Off ch=1 n=d#5 v=64
32560 On ch=1 n=c5 v=112
32640 Off ch=1 n=c5 v=64
32640 On ch=1 n=c#6 v=112
32720 Off ch=1 n=c#6 v=64
32720 On ch=1 n=c6 v=112
32800 Off ch=1 n=c6 v=64
32800 On ch=1 n=a#5 v=112
32880 Off ch=1 n=a#5 v=64
32880 On ch=1 n=g#5 v=112
32960 Off ch=1 n=g#5 v=64
32960 On ch=1 n=f#5 v=112
33040 Off ch=1 n=f#5 v=64
33040 On ch=1 n=f5 v=112
33120 Off ch=1 n=f5 v=64
33120 On ch=1 n=a#5 v=112
33200 Off ch=1 n=a#5 v=64
33200 On ch=1 n=e5 v=112
33280 Off ch=1 n=e5 v=64
33280 On ch=1 n=f#5 v=112
33360 Off ch=1 n=f#5 v=64
33360 On ch=1 n=c#5 v=112
33440 Off ch=1 n=c#5 v=64
33440 On ch=1 n=e5 v=112
33520 Off ch=1 n=e5 v=64
33520 On ch=1 n=c5 v=112
33600 Off ch=1 n=c5 v=64
33600 On ch=1 n=c#6 v=112
33680 Off ch=1 n=c#6 v=64
33680 On ch=1 n=c6 v=112
33760 Off ch=1 n=c6 v=64
33760 On ch=1 n=a#5 v=112
33840 Off ch=1 n=a#5 v=64
33840 On ch=1 n=g#5 v=112
33920 Off ch=1 n=g#5 v=64
33920 On ch=1 n=f#5 v=112
34000 Off ch=1 n=f#5 v=64
34000 On ch=1 n=f5 v=112
34080 Off ch=1 n=f5 v=64
34080 On ch=1 n=a#5 v=112
34160 Off ch=1 n=a#5 v=64
34160 On ch=1 n=e5 v=112
34240 Off ch=1 n=e5 v=64
34240 On ch=1 n=f#5 v=112
34320 Off ch=1 n=f#5 v=64
34320 On ch=1 n=c#5 v=112
34400 Off ch=1 n=c#5 v=64
34400 On ch=1 n=e5 v=112
34480 Off ch=1 n=e5 v=64
34480 On ch=1 n=c5 v=112
34560 Off ch=1 n=c5 v=64
34560 On ch=1 n=a#5 v=112
34640 Off ch=1 n=a#5 v=64
34640 On ch=1 n=e5 v=112
34720 Off ch=1 n=e5 v=64
34720 On ch=1 n=f#5 v=112
34800 Off ch=1 n=f#5 v=64
34800 On ch=1 n=c#5 v=112
34880 Off ch=1 n=c#5 v=64
34880 On ch=1 n=d#5 v=112
34960 Off ch=1 n=d#5 v=64
34960 On ch=1 n=c5 v=112
35040 Off ch=1 n=c5 v=64
35040 On ch=1 n=f#5 v=112
35120 Off ch=1 n=f#5 v=64
35120 On ch=1 n=c#5 v=112
35200 Off ch=1 n=c#5 v=64
35200 On ch=1 n=e5 v=112
35280 Off ch=1 n=e5 v=64
35280 On ch=1 n=c5 v=112
35360 Off ch=1 n=c5 v=64
35360 On ch=1 n=e5 v=112
35440 Off ch=1 n=e5 v=64
35440 On ch=1 n=a#4 v=112
35520 Off ch=1 n=a#4 v=64
35520 On ch=1 n=e5 v=112
35600 Off ch=1 n=e5 v=64
35600 On ch=1 n=a#4 v=112
35680 Off ch=1 n=a#4 v=64
35680 On ch=1 n=c#5 v=112
35760 Off ch=1 n=c#5 v=64
35760 On ch=1 n=a4 v=112
35840 Off ch=1 n=a4 v=64
35840 On ch=1 n=a#4 v=112
35920 Off ch=1 n=a#4 v=64
35920 On ch=1 n=g#4 v=112
36000 Off ch=1 n=g#4 v=64
36000 On ch=1 n=c#5 v=112
36080 Off ch=1 n=c#5 v=64
36080 On ch=1 n=g#4 v=112
36160 Off ch=1 n=g#4 v=64
36160 On ch=1 n=a#4 v=112
36240 Off ch=1 n=a#4 v=64
36240 On ch=1 n=g4 v=112
36320 Off ch=1 n=g4 v=64
36320 On ch=1 n=a#4 v=112
36400 Off ch=1 n=a#4 v=64
36400 On ch=1 n=f#4 v=112
36480 Off ch=1 n=f#4 v=64
36480 On ch=1 n=f4 v=112
36560 Off ch=1 n=f4 v=64
36560 On ch=1 n=g4 v=112
36640 Off ch=1 n=g4 v=64
36640 On ch=1 n=a#4 v=112
36720 Off ch=1 n=a#4 v=64
36720 On ch=1 n=c#5 v=112
36800 Off ch=1 n=c#5 v=64
36800 On ch=1 n=e4 v=112
36880 Off ch=1 n=e4 v=64
36880 On ch=1 n=g4 v=112
36960 Off ch=1 n=g4 v=64
36960 On ch=1 n=f4 v=112
37040 Off ch=1 n=f4 v=64
37040 On ch=1 n=g4 v=112
37120 Off ch=1 n=g4 v=64
37120 On ch=1 n=a#4 v=112
37200 Off ch=1 n=a#4 v=64
37200 On ch=1 n=c#5 v=112
37280 Off ch=1 n=c#5 v=64
37280 On ch=1 n=e4 v=112
37360 Off ch=1 n=e4 v=64
37360 On ch=1 n=g4 v=112
37440 Off ch=1 n=g4 v=64
37440 On ch=1 n=f4 v=112
37520 Off ch=1 n=f4 v=64
37520 On ch=1 n=a4 v=112
37600 Off ch=1 n=a4 v=64
37600 On ch=1 n=c5 v=112
37680 Off ch=1 n=c5 v=64
37680 On ch=1 n=d#5 v=112
37760 Off ch=1 n=d#5 v=64
37760 On ch=1 n=f#4 v=112
37840 Off ch=1 n=f#4 v=64
37840 On ch=1 n=a4 v=112
37920 Off ch=1 n=a4 v=64
37920 On ch=1 n=f#4 v=112
38000 Off ch=1 n=f#4 v=64
38000 On ch=1 n=a4 v=112
38080 Off ch=1 n=a4 v=64
38080 On ch=1 n=c5 v=112
38160 Off ch=1 n=c5 v=64
38160 On ch=1 n=d#5 v=112
38240 Off ch=1 n=d#5 v=64
38240 On ch=1 n=f#4 v=112
38320 Off ch=1 n=f#4 v=64
38320 On ch=1 n=a4 v=112
38400 Off ch=1 n=a4 v=64
38400 On ch=1 n=a#4 v=112
38480 Off ch=1 n=a#4 v=64
38480 On ch=1 n=c5 v=112
38560 Off ch=1 n=c5 v=64
38560 On ch=1 n=d#5 v=112
38640 Off ch=1 n=d#5 v=64
38640 On ch=1 n=f#5 v=112
38720 Off ch=1 n=f#5 v=64
38720 On ch=1 n=a4 v=112
38800 Off ch=1 n=a4 v=64
38800 On ch=1 n=c5 v=112
38880 Off ch=1 n=c5 v=64
38880 On ch=1 n=c#5 v=112
38960 Off ch=1 n=c#5 v=64
38960 On ch=1 n=d#5 v=112
39040 Off ch=1 n=d#5 v=64
39040 On ch=1 n=f#5 v=112
39120 Off ch=1 n=f#5 v=64
39120 On ch=1 n=a5 v=112
39200 Off ch=1 n=a5 v=64
39200 On ch=1 n=c5 v=112
39280 Off ch=1 n=c5 v=64
39280 On ch=1 n=d#5 v=112
39360 Off ch=1 n=d#5 v=64
39360 On ch=1 n=c#5 v=112
39440 Off ch=1 n=c#5 v=64
39440 On ch=1 n=d#5 v=112
39520 Off ch=1 n=d#5 v=64
39520 On ch=1 n=f#5 v=112
39600 Off ch=1 n=f#5 v=64
39600 On ch=1 n=a5 v=112
39680 Off ch=1 n=a5 v=64
39680 On ch=1 n=c5 v=112
39760 Off ch=1 n=c5 v=64
39760 On ch=1 n=d#5 v=112
39840 Off ch=1 n=d#5 v=64
39840 On ch=1 n=f#5 v=112
39920 Off ch=1 n=f#5 v=64
39920 On ch=1 n=a#5 v=112
40000 Off ch=1 n=a#5 v=64
40000 On ch=1 n=c6 v=112
40080 Off ch=1 n=c6 v=64
40080 On ch=1 n=d#6 v=112
40160 Off ch=1 n=d#6 v=64
40160 On ch=1 n=f5 v=112
40240 Off ch=1 n=f5 v=64
40240 On ch=1 n=a5 v=112
40320 Off ch=1 n=a5 v=64
40320 On ch=1 n=a#5 v=112
40400 Off ch=1 n=a#5 v=64
40400 On ch=1 n=c#6 v=112
40480 Off ch=1 n=c#6 v=64
40480 On ch=1 n=f#6 v=112
40560 Off ch=1 n=f#6 v=64
40560 On ch=1 n=f6 v=112
40640 Off ch=1 n=f6 v=64
40640 On ch=1 n=c6 v=112
40720 Off ch=1 n=c6 v=64
40720 On ch=1 n=c#6 v=112
40800 Off ch=1 n=c#6 v=64
40800 On ch=1 n=e6 v=112
40880 Off ch=1 n=e6 v=64
40880 On ch=1 n=c6 v=112
40960 Off ch=1 n=c6 v=64
40960 On ch=1 n=c#6 v=112
41040 Off ch=1 n=c#6 v=64
41040 On ch=1 n=a5 v=112
41120 Off ch=1 n=a5 v=64
41120 On ch=1 n=a#5 v=112
41200 Off ch=1 n=a#5 v=64
41200 On ch=1 n=f#5 v=112
41280 Off ch=1 n=f#5 v=64
41280 On ch=1 n=e5 v=112
41360 Off ch=1 n=e5 v=64
41360 On ch=1 n=f5 v=112
41440 Off ch=1 n=f5 v=64
41440 On ch=1 n=a#5 v=112
41520 Off ch=1 n=a#5 v=64
41520 On ch=1 n=g#5 v=112
41600 Off ch=1 n=g#5 v=64
41600 On ch=1 n=a5 v=112
41680 Off ch=1 n=a5 v=64
41680 On ch=1 n=c#6 v=112
41760 Off ch=1 n=c#6 v=64
41760 On ch=1 n=a5 v=112
41840 Off ch=1 n=a5 v=64
41840 On ch=1 n=a#5 v=112
41920 Off ch=1 n=a#5 v=64
41920 On ch=1 n=c#6 v=112
42000 Off ch=1 n=c#6 v=64
42000 On ch=1 n=b5 v=112
42080 Off ch=1 n=b5 v=64
42080 On ch=1 n=c6 v=112
42160 Off ch=1 n=c6 v=64
42160 On ch=1 n=f6 v=112
42240 Off ch=1 n=f6 v=64
42240 On ch=1 n=g#5 v=112
42320 Off ch=1 n=g#5 v=64
42320 On ch=1 n=b5 v=112
42400 Off ch=1 n=b5 v=64
42400 On ch=1 n=d#6 v=112
42480 Off ch=1 n=d#6 v=64
42480 On ch=1 n=d#6 v=112
42560 Off ch=1 n=d#6 v=64
42560 On ch=1 n=a#5 v=112
42640 Off ch=1 n=a#5 v=64
42640 On ch=1 n=b5 v=112
42720 Off ch=1 n=b5 v=64
42720 On ch=1 n=d6 v=112
42800 Off ch=1 n=d6 v=64
42800 On ch=1 n=a#5 v=112
42880 Off ch=1 n=a#5 v=64
42880 On ch=1 n=b5 v=112
42960 Off ch=1 n=b5 v=64
42960 On ch=1 n=g5 v=112
43040 Off ch=1 n=g5 v=64
43040 On ch=1 n=g#5 v=112
43120 Off ch=1 n=g#5 v=64
43120 On ch=1 n=e5 v=112
43200 Off ch=1 n=e5 v=64
43200 On ch=1 n=d5 v=112
43280 Off ch=1 n=d5 v=64
43280 On ch=1 n=d#5 v=112
43360 Off ch=1 n=d#5 v=64
43360 On ch=1 n=g#5 v=112
43440 Off ch=1 n=g#5 v=64
43440 On ch=1 n=e5 v=112
43520 Off ch=1 n=e5 v=64
43520 On ch=1 n=f5 v=112
43600 Off ch=1 n=f5 v=64
43600 On ch=1 n=b5 v=112
43680 Off ch=1 n=b5 v=64
43680 On ch=1 n=f5 v=112
43760 Off ch=1 n=f5 v=64
43760 On ch=1 n=f#5 v=112
43840 Off ch=1 n=f#5 v=64
43840 On ch=1 n=b5 v=112
43920 Off ch=1 n=b5 v=64
43920 On ch=1 n=a5 v=112
44000 Off ch=1 n=a5 v=64
44000 On ch=1 n=a#5 v=112
44080 Off ch=1 n=a#5 v=64
44080 On ch=1 n=d#6 v=112
44160 Off ch=1 n=d#6 v=64
44160 On ch=1 n=c#6 v=112
44240 Off ch=1 n=c#6 v=64
44240 On ch=1 n=f5 v=112
44320 Off ch=1 n=f5 v=64
44320 On ch=1 n=a#5 v=112
44400 Off ch=1 n=a#5 v=64
44400 On ch=1 n=c#5 v=112
44480 Off ch=1 n=c#5 v=64
44480 On ch=1 n=e5 v=112
44560 Off ch=1 n=e5 v=64
44560 On ch=1 n=a5 v=112
44640 Off ch=1 n=a5 v=64
44640 On ch=1 n=c6 v=112
44720 Off ch=1 n=c6 v=64
44720 On ch=1 n=d#5 v=112
44800 Off ch=1 n=d#5 v=64
44800 On ch=1 n=g#5 v=112
44880 Off ch=1 n=g#5 v=64
44880 On ch=1 n=b4 v=112
44960 Off ch=1 n=b4 v=64
44960 On ch=1 n=d5 v=112
45040 Off ch=1 n=d5 v=64
45040 On ch=1 n=g5 v=112
45120 Off ch=1 n=g5 v=64
45120 On ch=1 n=b5 v=112
45200 Off ch=1 n=b5 v=64
45200 On ch=1 n=d5 v=112
45280 Off ch=1 n=d5 v=64
45280 On ch=1 n=f#5 v=112
45360 Off ch=1 n=f#5 v=64
45360 On ch=1 n=a#4 v=112
45440 Off ch=1 n=a#4 v=64
45440 On ch=1 n=c#5 v=112
45520 Off ch=1 n=c#5 v=64
45520 On ch=1 n=f#5 v=112
45600 Off ch=1 n=f#5 v=64
45600 On ch=1 n=a#5 v=112
45680 Off ch=1 n=a#5 v=64
45680 On ch=1 n=f#5 v=112
45760 Off ch=1 n=f#5 v=64
45760 On ch=1 n=b5 v=112
45840 Off ch=1 n=b5 v=64
45840 On ch=1 n=c6 v=112
45920 Off ch=1 n=c6 v=64
45920 On ch=1 n=c#6 v=112
46000 Off ch=1 n=c#6 v=64
46000 On ch=1 n=d#6 v=112
46080 Off ch=1 n=d#6 v=64
46080 On ch=1 n=c#6 v=112
46160 Off ch=1 n=c#6 v=64
46160 On ch=1 n=c6 v=112
46240 Off ch=1 n=c6 v=64
46240 On ch=1 n=b5 v=112
46320 Off ch=1 n=b5 v=64
46320 On ch=1 n=a#5 v=112
46400 Off ch=1 n=a#5 v=64
46400 On ch=1 n=a5 v=112
46480 Off ch=1 n=a5 v=64
46480 On ch=1 n=f6 v=112
46560 Off ch=1 n=f6 v=64
46560 On ch=1 n=d#6 v=112
46640 Off ch=1 n=d#6 v=64
46640 On ch=1 n=d6 v=112
46720 Off ch=1 n=d6 v=64
46720 On ch=1 n=c#6 v=112
46800 Off ch=1 n=c#6 v=64
46800 On ch=1 n=b5 v=112
46880 Off ch=1 n=b5 v=64
46880 On ch=1 n=a#5 v=112
46960 Off ch=1 n=a#5 v=64
46960 On ch=1 n=f#6 v=112
47040 Off ch=1 n=f#6 v=64
47040 On ch=1 n=f6 v=112
47120 Off ch=1 n=f6 v=64
47120 On ch=1 n=d#6 v=112
47200 Off ch=1 n=d#6 v=64
47200 On ch=1 n=d6 v=112
47280 Off ch=1 n=d6 v=64
47280 On ch=1 n=c#6 v=112
47360 Off ch=1 n=c#6 v=64
47360 On ch=1 n=c6 v=112
47440 Off ch=1 n=c6 v=64
47440 On ch=1 n=a6 v=112
47520 Off ch=1 n=a6 v=64
47520 On ch=1 n=c6 v=112
47600 Off ch=1 n=c6 v=64
47600 On ch=1 n=c#6 v=112
47680 Off ch=1 n=c#6 v=64
47680 On ch=1 n=a#6 v=112
47760 Off ch=1 n=a#6 v=64
47760 On ch=1 n=d6 v=112
47840 Off ch=1 n=d6 v=64
47840 On ch=1 n=d#6 v=112
47920 Off ch=1 n=d#6 v=64
47920 On ch=1 n=a#6 v=112
48000 Off ch=1 n=a#6 v=64
48000 On ch=1 n=c7 v=112
48080 Off ch=1 n=c7 v=64
48080 On ch=1 n=a#6 v=112
48160 Off ch=1 n=a#6 v=64
48160 On ch=1 n=g#6 v=112
48240 Off ch=1 n=g#6 v=64
48240 On ch=1 n=f#6 v=112
48320 Off ch=1 n=f#6 v=64
48320 On ch=1 n=f6 v=112
48400 Off ch=1 n=f6 v=64
48400 On ch=1 n=e6 v=112
48480 Off ch=1 n=e6 v=64
48480 On ch=1 n=c7 v=112
48560 Off ch=1 n=c7 v=64
48560 On ch=1 n=a#6 v=112
48640 Off ch=1 n=a#6 v=64
48640 On ch=1 n=g#6 v=112
48720 Off ch=1 n=g#6 v=64
48720 On ch=1 n=f#6 v=112
48800 Off ch=1 n=f#6 v=64
48800 On ch=1 n=f6 v=112
48880 Off ch=1 n=f6 v=64
48880 On ch=1 n=e6 v=112
48960 Off ch=1 n=e6 v=64
48960 On ch=1 n=f#6 v=112
49040 Off ch=1 n=f#6 v=64
49040 On ch=1 n=f6 v=112
49120 Off ch=1 n=f6 v=64
49120 On ch=1 n=e6 v=112
49200 Off ch=1 n=e6 v=64
49200 On ch=1 n=d#6 v=112
49280 Off ch=1 n=d#6 v=64
49280 On ch=1 n=d6 v=112
49360 Off ch=1 n=d6 v=64
49360 On ch=1 n=c#6 v=112
49440 Off ch=1 n=c#6 v=64
49440 On ch=1 n=d#6 v=112
49520 Off ch=1 n=d#6 v=64
49520 On ch=1 n=b5 v=112
49600 Off ch=1 n=b5 v=64
49600 On ch=1 n=c6 v=112
49680 Off ch=1 n=c6 v=64
49680 On ch=1 n=c#6 v=112
49760 Off ch=1 n=c#6 v=64
49760 On ch=1 n=a5 v=112
49840 Off ch=1 n=a5 v=64
49840 On ch=1 n=b5 v=112
49920 Off ch=1 n=b5 v=64
49920 On ch=1 n=c6 v=112
50000 Off ch=1 n=c6 v=64
50000 On ch=1 n=g5 v=112
50080 Off ch=1 n=g5 v=64
50080 On ch=1 n=g#5 v=112
50160 Off ch=1 n=g#5 v=64
50160 On ch=1 n=b5 v=112
50240 Off ch=1 n=b5 v=64
50240 On ch=1 n=f#5 v=112
50320 Off ch=1 n=f#5 v=64
50320 On ch=1 n=d#6 v=112
50400 Off ch=1 n=d#6 v=64
50400 On ch=1 n=a#5 v=112
50480 Off ch=1 n=a#5 v=64
50480 On ch=1 n=f5 v=112
50560 Off ch=1 n=f5 v=64
50560 On ch=1 n=f#5 v=112
50640 Off ch=1 n=f#5 v=64
50640 On ch=1 n=a5 v=112
50720 Off ch=1 n=a5 v=64
50720 On ch=1 n=e5 v=112
50800 Off ch=1 n=e5 v=64
50800 On ch=1 n=c#6 v=112
50880 Off ch=1 n=c#6 v=64
50880 On ch=1 n=g#5 v=112
50960 Off ch=1 n=g#5 v=64
50960 On ch=1 n=d#5 v=112
51040 Off ch=1 n=d#5 v=64
51040 On ch=1 n=e5 v=112
51120 Off ch=1 n=e5 v=64
51120 On ch=1 n=g5 v=112
51200 Off ch=1 n=g5 v=64
51200 On ch=1 n=d5 v=112
51280 Off ch=1 n=d5 v=64
51280 On ch=1 n=b5 v=112
51360 Off ch=1 n=b5 v=64
51360 On ch=1 n=f#5 v=112
51440 Off ch=1 n=f#5 v=64
51440 On ch=1 n=c#5 v=112
51520 Off ch=1 n=c#5 v=64
51520 On ch=1 n=d5 v=112
51600 Off ch=1 n=d5 v=64
51600 On ch=1 n=f5 v=112
51680 Off ch=1 n=f5 v=64
51680 On ch=1 n=c5 v=112
51760 Off ch=1 n=c5 v=64
51760 On ch=1 n=a5 v=112
51840 Off ch=1 n=a5 v=64
51840 On ch=1 n=d6 v=112
51920 Off ch=1 n=d6 v=64
51920 On ch=1 n=a5 v=112
52000 Off ch=1 n=a5 v=64
52000 On ch=1 n=a#5 v=112
52080 Off ch=1 n=a#5 v=64
52080 On ch=1 n=c#6 v=112
52160 Off ch=1 n=c#6 v=64
52160 On ch=1 n=g#5 v=112
52240 Off ch=1 n=g#5 v=64
52240 On ch=1 n=f6 v=112
52320 Off ch=1 n=f6 v=64
52320 On ch=1 n=c6 v=112
52400 Off ch=1 n=c6 v=64
52400 On ch=1 n=g5 v=112
52480 Off ch=1 n=g5 v=64
52480 On ch=1 n=g#5 v=112
52560 Off ch=1 n=g#5 v=64
52560 On ch=1 n=b5 v=112
52640 Off ch=1 n=b5 v=64
52640 On ch=1 n=f#5 v=112
52720 Off ch=1 n=f#5 v=64
52720 On ch=1 n=d#6 v=112
52800 Off ch=1 n=d#6 v=64
52800 On ch=1 n=a#5 v=112
52880 Off ch=1 n=a#5 v=64
52880 On ch=1 n=f5 v=112
52960 Off ch=1 n=f5 v=64
52960 On ch=1 n=f#5 v=112
53040 Off ch=1 n=f#5 v=64
53040 On ch=1 n=a5 v=112
53120 Off ch=1 n=a5 v=64
53120 On ch=1 n=e5 v=112
53200 Off ch=1 n=e5 v=64
53200 On ch=1 n=c#6 v=112
53280 Off ch=1 n=c#6 v=64
53280 On ch=1 n=g#5 v=112
53360 Off ch=1 n=g#5 v=64
53360 On ch=1 n=d#5 v=112
53440 Off ch=1 n=d#5 v=64
53440 On ch=1 n=e5 v=112
53520 Off ch=1 n=e5 v=64
53520 On ch=1 n=g5 v=112
53600 Off ch=1 n=g5 v=64
53600 On ch=1 n=d5 v=112
53680 Off ch=1 n=d5 v=64
53680 On ch=1 n=b5 v=112
53760 Off ch=1 n=b5 v=64
53760 On ch=1 n=e6 v=112
53840 Off ch=1 n=e6 v=64
53840 On ch=1 n=b5 v=112
53920 Off ch=1 n=b5 v=64
53920 On ch=1 n=c6 v=112
54000 Off ch=1 n=c6 v=64
54000 On ch=1 n=d#6 v=112
54080 Off ch=1 n=d#6 v=64
54080 On ch=1 n=a#5 v=112
54160 Off ch=1 n=a#5 v=64
54160 On ch=1 n=g6 v=112
54240 Off ch=1 n=g6 v=64
54240 On ch=1 n=d6 v=112
54320 Off ch=1 n=d6 v=64
54320 On ch=1 n=a5 v=112
54400 Off ch=1 n=a5 v=64
54400 On ch=1 n=a#5 v=112
54480 Off ch=1 n=a#5 v=64
54480 On ch=1 n=c#6 v=112
54560 Off ch=1 n=c#6 v=64
54560 On ch=1 n=g#5 v=112
54640 Off ch=1 n=g#5 v=64
54640 On ch=1 n=f6 v=112
54720 Off ch=1 n=f6 v=64
54720 On ch=1 n=c6 v=112
54800 Off ch=1 n=c6 v=64
54800 On ch=1 n=g5 v=112
54880 Off ch=1 n=g5 v=64
54880 On ch=1 n=g#5 v=112
54960 Off ch=1 n=g#5 v=64
54960 On ch=1 n=b5 v=112
55040 Off ch=1 n=b5 v=64
55040 On ch=1 n=f#5 v=112
55120 Off ch=1 n=f#5 v=64
55120 On ch=1 n=d#6 v=112
55200 Off ch=1 n=d#6 v=64
55200 On ch=1 n=a#5 v=112
55280 Off ch=1 n=a#5 v=64
55280 On ch=1 n=f5 v=112
55360 Off ch=1 n=f5 v=64
55360 On ch=1 n=d#6 v=112
55440 Off ch=1 n=d#6 v=64
55440 On ch=1 n=a#5 v=112
55520 Off ch=1 n=a#5 v=64
55520 On ch=1 n=f5 v=112
55600 Off ch=1 n=f5 v=64
55600 On ch=1 n=c#6 v=112
55680 Off ch=1 n=c#6 v=64
55680 On ch=1 n=f#5 v=112
55760 Off ch=1 n=f#5 v=64
55760 On ch=1 n=f5 v=112
55840 Off ch=1 n=f5 v=64
55840 On ch=1 n=e5 v=112
55920 Off ch=1 n=e5 v=64
55920 On ch=1 n=d#5 v=112
56000 Off ch=1 n=d#5 v=64
56000 On ch=1 n=c#5 v=112
56080 Off ch=1 n=c#5 v=64
56080 On ch=1 n=c5 v=112
56160 Off ch=1 n=c5 v=64
56160 On ch=1 n=f#5 v=112
56240 Off ch=1 n=f#5 v=64
56240 On ch=1 n=f5 v=112
56320 Off ch=1 n=f5 v=64
56320 On ch=1 n=d#5 v=112
56400 Off ch=1 n=d#5 v=64
56400 On ch=1 n=c#5 v=112
56480 Off ch=1 n=c#5 v=64
56480 On ch=1 n=c5 v=112
56560 Off ch=1 n=c5 v=64
56560 On ch=1 n=a#4 v=112
56640 Off ch=1 n=a#4 v=64
56640 On ch=1 n=f#5 v=112
56720 Off ch=1 n=f#5 v=64
56720 On ch=1 n=f5 v=112
56800 Off ch=1 n=f5 v=64
56800 On ch=1 n=d#5 v=112
56880 Off ch=1 n=d#5 v=64
56880 On ch=1 n=c#5 v=112
56960 Off ch=1 n=c#5 v=64
56960 On ch=1 n=c5 v=112
57040 Off ch=1 n=c5 v=64
57040 On ch=1 n=b4 v=112
57120 Off ch=1 n=b4 v=64
57120 On ch=1 n=f#5 v=112
57200 Off ch=1 n=f#5 v=64
57200 On ch=1 n=f5 v=112
57280 Off ch=1 n=f5 v=64
57280 On ch=1 n=d#5 v=112
57360 Off ch=1 n=d#5 v=64
57360 On ch=1 n=c#5 v=112
57440 Off ch=1 n=c#5 v=64
57440 On ch=1 n=b4 v=112
57520 Off ch=1 n=b4 v=64
57520 On ch=1 n=a#4 v=112
57600 Off ch=1 n=a#4 v=64
57600 On ch=1 n=a4 v=112
57680 Off ch=1 n=a4 v=64
57680 On ch=1 n=a#4 v=112
57760 Off ch=1 n=a#4 v=64
57760 On ch=1 n=c5 v=112
57840 Off ch=1 n=c5 v=64
57840 On ch=1 n=d#5 v=112
57920 Off ch=1 n=d#5 v=64
57920 On ch=1 n=c#5 v=112
58000 Off ch=1 n=c#5 v=64
58000 On ch=1 n=a#4 v=112
58080 Off ch=1 n=a#4 v=64
58080 On ch=1 n=c5 v=112
58160 Off ch=1 n=c5 v=64
58160 On ch=1 n=a#4 v=112
58240 Off ch=1 n=a#4 v=64
58240 On ch=1 n=f4 v=112
58320 Off ch=1 n=f4 v=64
58320 On ch=1 n=g#4 v=112
58400 Off ch=1 n=g#4 v=64
58400 On ch=1 n=f#4 v=112
58480 Off ch=1 n=f#4 v=64
58480 On ch=1 n=f4 v=112
58560 Off ch=1 n=f4 v=64
58560 On ch=1 n=d#4 v=112
58640 Off ch=1 n=d#4 v=64
58640 On ch=1 n=f4 v=112
58720 Off ch=1 n=f4 v=64
58720 On ch=1 n=f#4 v=112
58800 Off ch=1 n=f#4 v=64
58800 On ch=1 n=a#4 v=112
58880 Off ch=1 n=a#4 v=64
58880 On ch=1 n=g#4 v=112
58960 Off ch=1 n=g#4 v=64
58960 On ch=1 n=f#4 v=112
59040 Off ch=1 n=f#4 v=64
59040 On ch=1 n=f4 v=112
59120 Off ch=1 n=f4 v=64
59120 On ch=1 n=c#4 v=112
59200 Off ch=1 n=c#4 v=64
59200 On ch=1 n=d#4 v=112
59280 Off ch=1 n=d#4 v=64
59280 On ch=1 n=f4 v=112
59360 Off ch=1 n=f4 v=64
59360 On ch=1 n=e4 v=112
59440 Off ch=1 n=e4 v=64
59440 On ch=1 n=f4 v=112
59520 Off ch=1 n=f4 v=64
59520 On ch=1 n=f#4 v=112
59600 Off ch=1 n=f#4 v=64
59600 On ch=1 n=f4 v=112
59680 Off ch=1 n=f4 v=64
59680 On ch=1 n=e4 v=112
59760 Off ch=1 n=e4 v=64
59760 On ch=1 n=d#4 v=112
59840 Off ch=1 n=d#4 v=64
59840 On ch=1 n=c#4 v=112
59920 Off ch=1 n=c#4 v=64
59920 On ch=1 n=c4 v=112
60000 Off ch=1 n=c4 v=64
60000 On ch=1 n=f#4 v=112
60080 Off ch=1 n=f#4 v=64
60080 On ch=1 n=f4 v=112
60160 Off ch=1 n=f4 v=64
60160 On ch=1 n=d#4 v=112
60240 Off ch=1 n=d#4 v=64
60240 On ch=1 n=c#4 v=112
60320 Off ch=1 n=c#4 v=64
60320 On ch=1 n=c4 v=112
60400 Off ch=1 n=c4 v=64
60400 On ch=1 n=a#3 v=112
60480 Off ch=1 n=a#3 v=64
60480 On ch=1 n=f#4 v=112
60560 Off ch=1 n=f#4 v=64
60560 On ch=1 n=f4 v=112
60640 Off ch=1 n=f4 v=64
60640 On ch=1 n=d#4 v=112
60720 Off ch=1 n=d#4 v=64
60720 On ch=1 n=c#4 v=112
60800 Off ch=1 n=c#4 v=64
60800 On ch=1 n=c4 v=112
60880 Off ch=1 n=c4 v=64
60880 On ch=1 n=b3 v=112
60960 Off ch=1 n=b3 v=64
60960 On ch=1 n=f#4 v=112
61040 Off ch=1 n=f#4 v=64
61040 On ch=1 n=f4 v=112
61120 Off ch=1 n=f4 v=64
61120 On ch=1 n=d#4 v=112
61200 Off ch=1 n=d#4 v=64
61200 On ch=1 n=c#4 v=112
61280 Off ch=1 n=c#4 v=64
61280 On ch=1 n=b3 v=112
61360 Off ch=1 n=b3 v=64
61360 On ch=1 n=a#3 v=112
61440 Off ch=1 n=a#3 v=64
61440 On ch=1 n=a3 v=112
61520 Off ch=1 n=a3 v=64
61520 On ch=1 n=a#3 v=112
61600 Off ch=1 n=a#3 v=64
61600 On ch=1 n=b3 v=112
61680 Off ch=1 n=b3 v=64
61680 On ch=1 n=c#4 v=112
61760 Off ch=1 n=c#4 v=64
61760 On ch=1 n=d#4 v=112
61840 Off ch=1 n=d#4 v=64
61840 On ch=1 n=f4 v=112
61920 Off ch=1 n=f4 v=64
61920 On ch=1 n=f#4 v=112
62000 Off ch=1 n=f#4 v=64
62000 On ch=1 n=a4 v=112
62080 Off ch=1 n=a4 v=64
62080 On ch=1 n=a#4 v=112
62160 Off ch=1 n=a#4 v=64
62160 On ch=1 n=b4 v=112
62240 Off ch=1 n=b4 v=64
62240 On ch=1 n=c#5 v=112
62320 Off ch=1 n=c#5 v=64
62320 On ch=1 n=d#5 v=112
62400 Off ch=1 n=d#5 v=64
62400 On ch=1 n=f5 v=112
62480 Off ch=1 n=f5 v=64
62480 On ch=1 n=e5 v=112
62560 Off ch=1 n=e5 v=64
62560 On ch=1 n=c#5 v=112
62640 Off ch=1 n=c#5 v=64
62640 On ch=1 n=c5 v=112
62720 Off ch=1 n=c5 v=64
62720 On ch=1 n=a#4 v=112
62800 Off ch=1 n=a#4 v=64
62800 On ch=1 n=f#4 v=112
62880 Off ch=1 n=f#4 v=64
62880 On ch=1 n=f4 v=112
62960 Off ch=1 n=f4 v=64
62960 On ch=1 n=e4 v=112
63040 Off ch=1 n=e4 v=64
63040 On ch=1 n=c#4 v=112
63120 Off ch=1 n=c#4 v=64
63120 On ch=1 n=c4 v=112
63200 Off ch=1 n=c4 v=64
63200 On ch=1 n=a#3 v=112
63280 Off ch=1 n=a#3 v=64
63280 On ch=1 n=f#3 v=112
63360 Off ch=1 n=f#3 v=64
63360 On ch=1 n=f3 v=112
63440 Off ch=1 n=f3 v=64
63440 On ch=1 n=a#3 v=112
63520 Off ch=1 n=a#3 v=64
63520 On ch=1 n=g#3 v=112
63600 Off ch=1 n=g#3 v=64
63600 On ch=1 n=a3 v=112
63680 Off ch=1 n=a3 v=64
63680 On ch=1 n=c#4 v=112
63760 Off ch=1 n=c#4 v=64
63760 On ch=1 n=a3 v=112
63840 Off ch=1 n=a3 v=64
63840 On ch=1 n=a#3 v=112
63920 Off ch=1 n=a#3 v=64
63920 On ch=1 n=d#4 v=112
64000 Off ch=1 n=d#4 v=64
64000 On ch=1 n=b3 v=112
64080 Off ch=1 n=b3 v=64
64080 On ch=1 n=c4 v=112
64160 Off ch=1 n=c4 v=64
64160 On ch=1 n=f4 v=112
64240 Off ch=1 n=f4 v=64
64240 On ch=1 n=c4 v=112
64320 Off ch=1 n=c4 v=64
64320 On ch=1 n=c#4 v=112
64400 Off ch=1 n=c#4 v=64
64400 On ch=1 n=f#4 v=112
64480 Off ch=1 n=f#4 v=64
64480 On ch=1 n=d4 v=112
64560 Off ch=1 n=d4 v=64
64560 On ch=1 n=d#4 v=112
64640 Off ch=1 n=d#4 v=64
64640 On ch=1 n=a4 v=112
64720 Off ch=1 n=a4 v=64
64720 On ch=1 n=f4 v=112
64800 Off ch=1 n=f4 v=64
64800 On ch=1 n=f#4 v=112
64880 Off ch=1 n=f#4 v=64
64880 On ch=1 n=d5 v=112
64960 Off ch=1 n=d5 v=64
64960 On ch=1 n=a4 v=112
65040 Off ch=1 n=a4 v=64
65040 On ch=1 n=c5 v=112
65120 Off ch=1 n=c5 v=64
65120 On ch=1 n=f#5 v=112
65200 Off ch=1 n=f#5 v=64
65200 On ch=1 n=f5 v=112
65280 Off ch=1 n=f5 v=64
65280 On ch=1 n=a4 v=112
65360 Off ch=1 n=a4 v=64
65360 On ch=1 n=c#5 v=112
65440 Off ch=1 n=c#5 v=64
65440 On ch=1 n=a4 v=112
65520 Off ch=1 n=a4 v=64
65520 On ch=1 n=c5 v=112
65600 Off ch=1 n=c5 v=64
65600 On ch=1 n=f#5 v=112
65680 Off ch=1 n=f#5 v=64
65680 On ch=1 n=f5 v=112
65760 Off ch=1 n=f5 v=64
65760 On ch=1 n=a4 v=112
65840 Off ch=1 n=a4 v=64
65840 On ch=1 n=c#5 v=112
65920 Off ch=1 n=c#5 v=64
65920 On ch=1 n=a4 v=112
66000 Off ch=1 n=a4 v=64
66000 On ch=1 n=c5 v=112
66080 Off ch=1 n=c5 v=64
66080 On ch=1 n=f#5 v=112
66160 Off ch=1 n=f#5 v=64
66160 On ch=1 n=f5 v=112
66240 Off ch=1 n=f5 v=64
66240 On ch=1 n=c5 v=112
66320 Off ch=1 n=c5 v=64
66320 On ch=1 n=f#5 v=112
66400 Off ch=1 n=f#5 v=64
66400 On ch=1 n=f5 v=112
66480 Off ch=1 n=f5 v=64
66480 On ch=1 n=c5 v=112
66560 Off ch=1 n=c5 v=64
66560 On ch=1 n=f#5 v=112
66640 Off ch=1 n=f#5 v=64
66640 On ch=1 n=f5 v=112
66720 Off ch=1 n=f5 v=64
66720 On ch=1 n=c5 v=112
66800 Off ch=1 n=c5 v=64
66800 On ch=1 n=f#5 v=112
66880 Off ch=1 n=f#5 v=64
66880 On ch=1 n=f5 v=112
66960 Off ch=1 n=f5 v=64
66960 On ch=1 n=a#4 v=112
67040 Off ch=1 n=a#4 v=64
67040 On ch=1 n=f#5 v=112
67120 Off ch=1 n=f#5 v=64
67120 On ch=1 n=f5 v=112
67200 Off ch=1 n=f5 v=64
67200 On ch=1 n=c#5 v=112
67280 Off ch=1 n=c#5 v=64
67280 On ch=1 n=f4 v=112
67360 Off ch=1 n=f4 v=64
67360 On ch=1 n=d#5 v=112
67440 Off ch=1 n=d#5 v=64
67440 On ch=1 n=f5 v=112
67520 Off ch=1 n=f5 v=64
67520 On ch=1 n=d#5 v=112
67600 Off ch=1 n=d#5 v=64
67600 On ch=1 n=c#5 v=112
67680 Off ch=1 n=c#5 v=64
67680 On ch=1 n=a#4 v=112
67760 Off ch=1 n=a#4 v=64
67760 On ch=1 n=f4 v=112
67840 Off ch=1 n=f4 v=64
67840 On ch=1 n=c5 v=112
67920 Off ch=1 n=c5 v=64
67920 On ch=1 n=c#5 v=112
68000 Off ch=1 n=c#5 v=64
68000 On ch=1 n=c5 v=112
68080 Off ch=1 n=c5 v=64
68080 On ch=1 n=a#4 v=112
68160 Off ch=1 n=a#4 v=64
68160 On ch=1 n=c#5 v=112
68240 Off ch=1 n=c#5 v=64
68240 On ch=1 n=f4 v=112
68320 Off ch=1 n=f4 v=64
68320 On ch=1 n=d#5 v=112
68400 Off ch=1 n=d#5 v=64
68400 On ch=1 n=f5 v=112
68480 Off ch=1 n=f5 v=64
68480 On ch=1 n=d#5 v=112
68560 Off ch=1 n=d#5 v=64
68560 On ch=1 n=c#5 v=112
68640 Off ch=1 n=c#5 v=64
68640 On ch=1 n=a#4 v=112
68720 Off ch=1 n=a#4 v=64
68720 On ch=1 n=f4 v=112
68800 Off ch=1 n=f4 v=64
68800 On ch=1 n=c5 v=112
68880 Off ch=1 n=c5 v=64
68880 On ch=1 n=c#5 v=112
68960 Off ch=1 n=c#5 v=64
68960 On ch=1 n=c5 v=112
69040 Off ch=1 n=c5 v=64
69040 On ch=1 n=a#4 v=112
69120 Off ch=1 n=a#4 v=64
69120 On ch=1 n=d#4 v=112
69200 Off ch=1 n=d#4 v=64
69200 On ch=1 n=f4 v=112
69280 Off ch=1 n=f4 v=64
69280 On ch=1 n=a#4 v=112
69360 Off ch=1 n=a#4 v=64
69360 On ch=1 n=c#5 v=112
69440 Off ch=1 n=c#5 v=64
69440 On ch=1 n=c#4 v=112
69520 Off ch=1 n=c#4 v=64
69520 On ch=1 n=f4 v=112
69600 Off ch=1 n=f4 v=64
69600 On ch=1 n=d#4 v=112
69680 Off ch=1 n=d#4 v=64
69680 On ch=1 n=f4 v=112
69760 Off ch=1 n=f4 v=64
69760 On ch=1 n=a#4 v=112
69840 Off ch=1 n=a#4 v=64
69840 On ch=1 n=c#5 v=112
69920 Off ch=1 n=c#5 v=64
69920 On ch=1 n=c#4 v=112
70000 Off ch=1 n=c#4 v=64
70000 On ch=1 n=f4 v=112
70080 Off ch=1 n=f4 v=64
70080 On ch=1 n=c4 v=112
70160 Off ch=1 n=c4 v=64
70160 On ch=1 n=c#4 v=112
70240 Off ch=1 n=c#4 v=64
70240 On ch=1 n=f4 v=112
70320 Off ch=1 n=f4 v=64
70320 On ch=1 n=a#4 v=112
70400 Off ch=1 n=a#4 v=64
70400 On ch=1 n=a#3 v=112
70480 Off ch=1 n=a#3 v=64
70480 On ch=1 n=c#4 v=112
70560 Off ch=1 n=c#4 v=64
70560 On ch=1 n=c4 v=112
70640 Off ch=1 n=c4 v=64
70640 On ch=1 n=c#4 v=112
70720 Off ch=1 n=c#4 v=64
70720 On ch=1 n=f4 v=112
70800 Off ch=1 n=f4 v=64
70800 On ch=1 n=a#4 v=112
70880 Off ch=1 n=a#4 v=64
70880 On ch=1 n=a#3 v=112
70960 Off ch=1 n=a#3 v=64
70960 On ch=1 n=c#4 v=112
71040 Off ch=1 n=c#4 v=64
71520 On ch=1 n=c4 v=112
71600 Off ch=1 n=c4 v=64
71600 On ch=1 n=c#4 v=112
71680 Off ch=1 n=c#4 v=64
71680 On ch=1 n=f4 v=112
71760 Off ch=1 n=f4 v=64
71760 On ch=1 n=a#4 v=112
71840 Off ch=1 n=a#4 v=64
71840 On ch=1 n=a#3 v=112
71920 Off ch=1 n=a#3 v=64
71920 On ch=1 n=c#4 v=112
72000 Off ch=1 n=c#4 v=64
72480 On ch=1 n=c4 v=112
72560 Off ch=1 n=c4 v=64
72560 On ch=1 n=c#4 v=112
72640 Off ch=1 n=c#4 v=64
72640 On ch=1 n=f4 v=112
72720 Off ch=1 n=f4 v=64
72720 On ch=1 n=a#4 v=112
72800 Off ch=1 n=a#4 v=64
72800 On ch=1 n=a#3 v=112
72880 Off ch=1 n=a#3 v=64
72880 On ch=1 n=c#4 v=112
72960 Off ch=1 n=c#4 v=64
72960 Par ch=1 c=7 v=127
73440 On ch=1 n=a#7 v=127
73440 On ch=1 n=a#6 v=127
73560 Off ch=1 n=a#6 v=64
73560 Off ch=1 n=a#7 v=64
73560 Meta TrkEnd
TrkEnd
MTrk
0 Meta TrkName "Lower G.S."
0 PrCh ch=2 p=0
0 Par ch=2 c=7 v=127
0 Par ch=2 c=10 v=64
0 Par ch=2 c=7 v=80
0 On ch=2 n=f3 v=80
77 Off ch=2 n=f3 v=64
80 On ch=2 n=g3 v=80
157 Off ch=2 n=g3 v=64
160 On ch=2 n=a#3 v=80
237 Off ch=2 n=a#3 v=64
240 On ch=2 n=c#4 v=80
317 Off ch=2 n=c#4 v=64
320 On ch=2 n=e3 v=80
397 Off ch=2 n=e3 v=64
400 On ch=2 n=g3 v=80
477 Off ch=2 n=g3 v=64
480 On ch=2 n=f3 v=80
557 Off ch=2 n=f3 v=64
560 On ch=2 n=g3 v=80
637 Off ch=2 n=g3 v=64
640 On ch=2 n=a#3 v=80
717 Off ch=2 n=a#3 v=64
720 On ch=2 n=c#4 v=80
797 Off ch=2 n=c#4 v=64
800 On ch=2 n=e3 v=80
877 Off ch=2 n=e3 v=64
880 On ch=2 n=g3 v=80
957 Off ch=2 n=g3 v=64
960 On ch=2 n=g3 v=80
1037 Off ch=2 n=g3 v=64
1040 On ch=2 n=a3 v=80
1117 Off ch=2 n=a3 v=64
1120 On ch=2 n=c4 v=80
1197 Off ch=2 n=c4 v=64
1200 On ch=2 n=d#4 v=80
1277 Off ch=2 n=d#4 v=64
1280 On ch=2 n=f#3 v=80
1357 Off ch=2 n=f#3 v=64
1360 On ch=2 n=a3 v=80
1437 Off ch=2 n=a3 v=64
1440 On ch=2 n=g3 v=80
1517 Off ch=2 n=g3 v=64
1520 On ch=2 n=a3 v=80
1597 Off ch=2 n=a3 v=64
1600 On ch=2 n=c4 v=80
1677 Off ch=2 n=c4 v=64
1680 On ch=2 n=d#4 v=80
1757 Off ch=2 n=d#4 v=64
1760 On ch=2 n=f#3 v=80
1837 Off ch=2 n=f#3 v=64
1840 On ch=2 n=a3 v=80
1917 Off ch=2 n=a3 v=64
1920 On ch=2 n=a#3 v=80
1997 Off ch=2 n=a#3 v=64
2000 On ch=2 n=c4 v=80
2077 Off ch=2 n=c4 v=64
2080 On ch=2 n=d#4 v=80
2157 Off ch=2 n=d#4 v=64
2160 On ch=2 n=f#4 v=80
2237 Off ch=2 n=f#4 v=64
2240 On ch=2 n=a3 v=80
2317 Off ch=2 n=a3 v=64
2320 On ch=2 n=c4 v=80
2397 Off ch=2 n=c4 v=64
2400 On ch=2 n=c#4 v=80
2477 Off ch=2 n=c#4 v=64
2480 On ch=2 n=d#4 v=80
2557 Off ch=2 n=d#4 v=64
2560 On ch=2 n=f#4 v=80
2637 Off ch=2 n=f#4 v=64
2640 On ch=2 n=a4 v=80
2717 Off ch=2 n=a4 v=64
2720 On ch=2 n=c4 v=80
2797 Off ch=2 n=c4 v=64
2800 On ch=2 n=d#4 v=80
2877 Off ch=2 n=d#4 v=64
2880 On ch=2 n=c#4 v=80
2957 Off ch=2 n=c#4 v=64
2960 On ch=2 n=d#4 v=80
3037 Off ch=2 n=d#4 v=64
3040 On ch=2 n=f#4 v=80
3117 Off ch=2 n=f#4 v=64
3120 On ch=2 n=a4 v=80
3197 Off ch=2 n=a4 v=64
3200 On ch=2 n=c4 v=80
3277 Off ch=2 n=c4 v=64
3280 On ch=2 n=d#4 v=80
3357 Off ch=2 n=d#4 v=64
3360 On ch=2 n=f#4 v=80
3437 Off ch=2 n=f#4 v=64
3440 On ch=2 n=a#4 v=80
3517 Off ch=2 n=a#4 v=64
3520 On ch=2 n=c5 v=80
3597 Off ch=2 n=c5 v=64
3600 On ch=2 n=d#5 v=80
3677 Off ch=2 n=d#5 v=64
3680 On ch=2 n=f4 v=80
3757 Off ch=2 n=f4 v=64
3760 On ch=2 n=a4 v=80
3837 Off ch=2 n=a4 v=64
3840 On ch=2 n=a#4 v=80
3917 Off ch=2 n=a#4 v=64
3920 On ch=2 n=c#5 v=80
3997 Off ch=2 n=c#5 v=64
4000 On ch=2 n=f#5 v=80
4077 Off ch=2 n=f#5 v=64
4080 On ch=2 n=f5 v=80
4157 Off ch=2 n=f5 v=64
4160 On ch=2 n=c5 v=80
4237 Off ch=2 n=c5 v=64
4240 On ch=2 n=c#5 v=80
4317 Off ch=2 n=c#5 v=64
4320 On ch=2 n=e5 v=80
4397 Off ch=2 n=e5 v=64
4400 On ch=2 n=c5 v=80
4477 Off ch=2 n=c5 v=64
4480 On ch=2 n=c#5 v=80
4557 Off ch=2 n=c#5 v=64
4560 On ch=2 n=a4 v=80
4637 Off ch=2 n=a4 v=64
4640 On ch=2 n=a#4 v=80
4717 Off ch=2 n=a#4 v=64
4720 On ch=2 n=f#4 v=80
4797 Off ch=2 n=f#4 v=64
4800 On ch=2 n=e4 v=80
4877 Off ch=2 n=e4 v=64
4880 On ch=2 n=f4 v=80
4957 Off ch=2 n=f4 v=64
4960 On ch=2 n=a#4 v=80
5037 Off ch=2 n=a#4 v=64
5040 On ch=2 n=g#4 v=80
5117 Off ch=2 n=g#4 v=64
5120 On ch=2 n=a4 v=80
5197 Off ch=2 n=a4 v=64
5200 On ch=2 n=c#5 v=80
5277 Off ch=2 n=c#5 v=64
5280 On ch=2 n=a4 v=80
5357 Off ch=2 n=a4 v=64
5360 On ch=2 n=a#4 v=80
5437 Off ch=2 n=a#4 v=64
5440 On ch=2 n=c#5 v=80
5517 Off ch=2 n=c#5 v=64
5520 On ch=2 n=b4 v=80
5597 Off ch=2 n=b4 v=64
5600 On ch=2 n=c5 v=80
5677 Off ch=2 n=c5 v=64
5680 On ch=2 n=f5 v=80
5757 Off ch=2 n=f5 v=64
5760 On ch=2 n=g#4 v=80
5837 Off ch=2 n=g#4 v=64
5840 On ch=2 n=b4 v=80
5917 Off ch=2 n=b4 v=64
5920 On ch=2 n=e5 v=80
5997 Off ch=2 n=e5 v=64
6000 On ch=2 n=d#5 v=80
6077 Off ch=2 n=d#5 v=64
6080 On ch=2 n=a#4 v=80
6157 Off ch=2 n=a#4 v=64
6160 On ch=2 n=b4 v=80
6237 Off ch=2 n=b4 v=64
6240 On ch=2 n=d5 v=80
6317 Off ch=2 n=d5 v=64
6320 On ch=2 n=a#4 v=80
6397 Off ch=2 n=a#4 v=64
6400 On ch=2 n=b4 v=80
6477 Off ch=2 n=b4 v=64
6480 On ch=2 n=g4 v=80
6557 Off ch=2 n=g4 v=64
6560 On ch=2 n=g#4 v=80
6637 Off ch=2 n=g#4 v=64
6640 On ch=2 n=e4 v=80
6717 Off ch=2 n=e4 v=64
6720 On ch=2 n=d4 v=80
6797 Off ch=2 n=d4 v=64
6800 On ch=2 n=d#4 v=80
6877 Off ch=2 n=d#4 v=64
6880 On ch=2 n=g#4 v=80
6957 Off ch=2 n=g#4 v=64
6960 On ch=2 n=e4 v=80
7037 Off ch=2 n=e4 v=64
7040 On ch=2 n=f4 v=80
7117 Off ch=2 n=f4 v=64
7120 On ch=2 n=b4 v=80
7197 Off ch=2 n=b4 v=64
7200 On ch=2 n=f4 v=80
7277 Off ch=2 n=f4 v=64
7280 On ch=2 n=f#4 v=80
7357 Off ch=2 n=f#4 v=64
7360 On ch=2 n=b4 v=80
7437 Off ch=2 n=b4 v=64
7440 On ch=2 n=a4 v=80
7517 Off ch=2 n=a4 v=64
7520 On ch=2 n=a#4 v=80
7597 Off ch=2 n=a#4 v=64
7600 On ch=2 n=e5 v=80
7677 Off ch=2 n=e5 v=64
7680 On ch=2 n=c#5 v=80
7757 Off ch=2 n=c#5 v=64
7760 On ch=2 n=f4 v=80
7837 Off ch=2 n=f4 v=64
7840 On ch=2 n=a#4 v=80
7917 Off ch=2 n=a#4 v=64
7920 On ch=2 n=c#4 v=80
7997 Off ch=2 n=c#4 v=64
8000 On ch=2 n=e4 v=80
8077 Off ch=2 n=e4 v=64
8080 On ch=2 n=a4 v=80
8157 Off ch=2 n=a4 v=64
8160 On ch=2 n=c5 v=80
8237 Off ch=2 n=c5 v=64
8240 On ch=2 n=d#4 v=80
8317 Off ch=2 n=d#4 v=64
8320 On ch=2 n=g#4 v=80
8397 Off ch=2 n=g#4 v=64
8400 On ch=2 n=b3 v=80
8477 Off ch=2 n=b3 v=64
8480 On ch=2 n=d4 v=80
8557 Off ch=2 n=d4 v=64
8560 On ch=2 n=g4 v=80
8637 Off ch=2 n=g4 v=64
8640 On ch=2 n=b4 v=80
8717 Off ch=2 n=b4 v=64
8720 On ch=2 n=d4 v=80
8797 Off ch=2 n=d4 v=64
8800 On ch=2 n=f#4 v=80
8877 Off ch=2 n=f#4 v=64
8880 On ch=2 n=a#3 v=80
8957 Off ch=2 n=a#3 v=64
8960 On ch=2 n=c#4 v=80
9037 Off ch=2 n=c#4 v=64
9040 On ch=2 n=f#4 v=80
9117 Off ch=2 n=f#4 v=64
9120 On ch=2 n=a#4 v=80
9197 Off ch=2 n=a#4 v=64
9200 On ch=2 n=f#4 v=80
9277 Off ch=2 n=f#4 v=64
9280 On ch=2 n=b4 v=80
9357 Off ch=2 n=b4 v=64
9360 On ch=2 n=c5 v=80
9437 Off ch=2 n=c5 v=64
9440 On ch=2 n=c#5 v=80
9517 Off ch=2 n=c#5 v=64
9520 On ch=2 n=d#5 v=80
9597 Off ch=2 n=d#5 v=64
9600 On ch=2 n=e5 v=80
9677 Off ch=2 n=e5 v=64
9680 On ch=2 n=g4 v=80
9757 Off ch=2 n=g4 v=64
9760 On ch=2 n=c5 v=80
9837 Off ch=2 n=c5 v=64
9840 On ch=2 n=d#4 v=80
9917 Off ch=2 n=d#4 v=64
9920 On ch=2 n=f#4 v=80
9997 Off ch=2 n=f#4 v=64
10000 On ch=2 n=b4 v=80
10077 Off ch=2 n=b4 v=64
10080 On ch=2 n=d5 v=80
10157 Off ch=2 n=d5 v=64
10160 On ch=2 n=f4 v=80
10237 Off ch=2 n=f4 v=64
10240 On ch=2 n=a#4 v=80
10317 Off ch=2 n=a#4 v=64
10320 On ch=2 n=c#4 v=80
10397 Off ch=2 n=c#4 v=64
10400 On ch=2 n=e4 v=80
10477 Off ch=2 n=e4 v=64
10480 On ch=2 n=a4 v=80
10557 Off ch=2 n=a4 v=64
10560 On ch=2 n=c5 v=80
10637 Off ch=2 n=c5 v=64
10640 On ch=2 n=e4 v=80
10717 Off ch=2 n=e4 v=64
10720 On ch=2 n=g#4 v=80
10797 Off ch=2 n=g#4 v=64
10800 On ch=2 n=b3 v=80
10877 Off ch=2 n=b3 v=64
10880 On ch=2 n=d4 v=80
10957 Off ch=2 n=d4 v=64
10960 On ch=2 n=g4 v=80
11037 Off ch=2 n=g4 v=64
11040 On ch=2 n=b4 v=80
11117 Off ch=2 n=b4 v=64
11120 On ch=2 n=f#4 v=80
11197 Off ch=2 n=f#4 v=64
11200 On ch=2 n=c#5 v=80
11277 Off ch=2 n=c#5 v=64
11280 On ch=2 n=d5 v=80
11357 Off ch=2 n=d5 v=64
11360 On ch=2 n=d#5 v=80
11437 Off ch=2 n=d#5 v=64
11440 On ch=2 n=e5 v=80
11517 Off ch=2 n=e5 v=64
13440 Par ch=2 c=7 v=112
13440 On ch=2 n=d#5 v=112
13517 Off ch=2 n=d#5 v=64
13520 On ch=2 n=c5 v=112
13597 Off ch=2 n=c5 v=64
13600 On ch=2 n=f5 v=112
13677 Off ch=2 n=f5 v=64
13680 On ch=2 n=d#5 v=112
13757 Off ch=2 n=d#5 v=64
13760 On ch=2 n=g#4 v=112
13837 Off ch=2 n=g#4 v=64
13840 On ch=2 n=c#5 v=112
13917 Off ch=2 n=c#5 v=64
13920 On ch=2 n=c5 v=112
13997 Off ch=2 n=c5 v=64
14000 On ch=2 n=d#4 v=112
14077 Off ch=2 n=d#4 v=64
14080 On ch=2 n=a#4 v=112
14157 Off ch=2 n=a#4 v=64
14160 On ch=2 n=g#4 v=112
14237 Off ch=2 n=g#4 v=64
14240 On ch=2 n=c4 v=112
14317 Off ch=2 n=c4 v=64
14320 On ch=2 n=f4 v=112
14397 Off ch=2 n=f4 v=64
14400 On ch=2 n=d#4 v=112
14477 Off ch=2 n=d#4 v=64
14480 On ch=2 n=g#3 v=112
14557 Off ch=2 n=g#3 v=64
14560 On ch=2 n=c#4 v=112
14637 Off ch=2 n=c#4 v=64
14640 On ch=2 n=c4 v=112
14717 Off ch=2 n=c4 v=64
14720 On ch=2 n=g3 v=112
14797 Off ch=2 n=g3 v=64
14800 On ch=2 n=g#3 v=112
14877 Off ch=2 n=g#3 v=64
14880 On ch=2 n=c4 v=112
14957 Off ch=2 n=c4 v=64
14960 On ch=2 n=f#3 v=112
15037 Off ch=2 n=f#3 v=64
15040 On ch=2 n=d4 v=112
15117 Off ch=2 n=d4 v=64
15120 On ch=2 n=c4 v=112
15197 Off ch=2 n=c4 v=64
15200 On ch=2 n=f3 v=112
15277 Off ch=2 n=f3 v=64
15280 On ch=2 n=f#3 v=112
15357 Off ch=2 n=f#3 v=64
15360 On ch=2 n=g3 v=112
15437 Off ch=2 n=g3 v=64
15440 On ch=2 n=a3 v=112
15517 Off ch=2 n=a3 v=64
15520 On ch=2 n=b3 v=112
15597 Off ch=2 n=b3 v=64
15600 On ch=2 n=c4 v=112
15677 Off ch=2 n=c4 v=64
15680 On ch=2 n=d4 v=112
15757 Off ch=2 n=d4 v=64
15760 On ch=2 n=d#4 v=112
15837 Off ch=2 n=d#4 v=64
15840 On ch=2 n=g#3 v=112
15917 Off ch=2 n=g#3 v=64
15920 On ch=2 n=a#3 v=112
15997 Off ch=2 n=a#3 v=64
16000 On ch=2 n=b3 v=112
16077 Off ch=2 n=b3 v=64
16080 On ch=2 n=c4 v=112
16157 Off ch=2 n=c4 v=64
16160 On ch=2 n=c#4 v=112
16237 Off ch=2 n=c#4 v=64
16240 On ch=2 n=d#4 v=112
16317 Off ch=2 n=d#4 v=64
16320 On ch=2 n=a3 v=112
16397 Off ch=2 n=a3 v=64
16400 On ch=2 n=a#3 v=112
16477 Off ch=2 n=a#3 v=64
16480 On ch=2 n=c4 v=112
16557 Off ch=2 n=c4 v=64
16560 On ch=2 n=c#4 v=112
16637 Off ch=2 n=c#4 v=64
16640 On ch=2 n=d#4 v=112
16717 Off ch=2 n=d#4 v=64
16720 On ch=2 n=f4 v=112
16797 Off ch=2 n=f4 v=64
16800 On ch=2 n=a#3 v=112
16877 Off ch=2 n=a#3 v=64
16880 On ch=2 n=b3 v=112
16957 Off ch=2 n=b3 v=64
16960 On ch=2 n=c4 v=112
17037 Off ch=2 n=c4 v=64
17040 On ch=2 n=c#4 v=112
17117 Off ch=2 n=c#4 v=64
17120 On ch=2 n=d#4 v=112
17197 Off ch=2 n=d#4 v=64
17200 On ch=2 n=f4 v=112
17277 Off ch=2 n=f4 v=64
17280 On ch=2 n=c4 v=112
17357 Off ch=2 n=c4 v=64
17360 On ch=2 n=c#4 v=112
17437 Off ch=2 n=c#4 v=64
17440 On ch=2 n=d4 v=112
17517 Off ch=2 n=d4 v=64
17520 On ch=2 n=d#4 v=112
17597 Off ch=2 n=d#4 v=64
17600 On ch=2 n=f4 v=112
17677 Off ch=2 n=f4 v=64
17680 On ch=2 n=f#4 v=112
17757 Off ch=2 n=f#4 v=64
17760 On ch=2 n=a3 v=112
17837 Off ch=2 n=a3 v=64
17840 On ch=2 n=c#4 v=112
17917 Off ch=2 n=c#4 v=64
17920 On ch=2 n=d4 v=112
17997 Off ch=2 n=d4 v=64
18000 On ch=2 n=d#4 v=112
18077 Off ch=2 n=d#4 v=64
18080 On ch=2 n=f4 v=112
18157 Off ch=2 n=f4 v=64
18160 On ch=2 n=f#4 v=112
18237 Off ch=2 n=f#4 v=64
18240 On ch=2 n=a4 v=112
18317 Off ch=2 n=a4 v=64
18320 On ch=2 n=f#4 v=112
18397 Off ch=2 n=f#4 v=64
18400 On ch=2 n=e4 v=112
18477 Off ch=2 n=e4 v=64
18480 On ch=2 n=d4 v=112
18557 Off ch=2 n=d4 v=64
18560 On ch=2 n=e4 v=112
18637 Off ch=2 n=e4 v=64
18640 On ch=2 n=f#4 v=112
18717 Off ch=2 n=f#4 v=64
18720 On ch=2 n=a3 v=112
18797 Off ch=2 n=a3 v=64
18800 On ch=2 n=c#4 v=112
18877 Off ch=2 n=c#4 v=64
18880 On ch=2 n=d4 v=112
18957 Off ch=2 n=d4 v=64
18960 On ch=2 n=e4 v=112
19037 Off ch=2 n=e4 v=64
19040 On ch=2 n=f4 v=112
19117 Off ch=2 n=f4 v=64
19120 On ch=2 n=f#4 v=112
19197 Off ch=2 n=f#4 v=64
19200 On ch=2 n=a4 v=112
19277 Off ch=2 n=a4 v=64
19280 On ch=2 n=g#4 v=112
19357 Off ch=2 n=g#4 v=64
19360 On ch=2 n=g4 v=112
19437 Off ch=2 n=g4 v=64
19440 On ch=2 n=f#4 v=112
19517 Off ch=2 n=f#4 v=64
19520 On ch=2 n=d#4 v=112
19597 Off ch=2 n=d#4 v=64
19600 On ch=2 n=c4 v=112
19677 Off ch=2 n=c4 v=64
19680 On ch=2 n=f#4 v=112
19757 Off ch=2 n=f#4 v=64
19760 On ch=2 n=d#4 v=112
19837 Off ch=2 n=d#4 v=64
19840 On ch=2 n=c4 v=112
19917 Off ch=2 n=c4 v=64
19920 On ch=2 n=a#3 v=112
19997 Off ch=2 n=a#3 v=64
20000 On ch=2 n=a3 v=112
20077 Off ch=2 n=a3 v=64
20080 On ch=2 n=g#3 v=112
20157 Off ch=2 n=g#3 v=64
20160 On ch=2 n=g3 v=112
20160 On ch=2 n=g4 v=112
20237 Off ch=2 n=g4 v=64
20237 Off ch=2 n=g3 v=64
20240 On ch=2 n=g#3 v=112
20240 On ch=2 n=g#4 v=112
20317 Off ch=2 n=g#4 v=64
20317 Off ch=2 n=g#3 v=64
20320 On ch=2 n=a3 v=112
20320 On ch=2 n=a4 v=112
20397 Off ch=2 n=a4 v=64
20397 Off ch=2 n=a3 v=64
20400 On ch=2 n=f3 v=112
20400 On ch=2 n=f4 v=112
20477 Off ch=2 n=f4 v=64
20477 Off ch=2 n=f3 v=64
20480 On ch=2 n=f#3 v=112
20480 On ch=2 n=f#4 v=112
20557 Off ch=2 n=f#4 v=64
20557 Off ch=2 n=f#3 v=64
20560 On ch=2 n=g#3 v=112
20560 On ch=2 n=g#4 v=112
20637 Off ch=2 n=g#4 v=64
20637 Off ch=2 n=g#3 v=64
20640 On ch=2 n=e3 v=112
20640 On ch=2 n=e4 v=112
20717 Off ch=2 n=e4 v=64
20717 Off ch=2 n=e3 v=64
20720 On ch=2 n=f3 v=112
20720 On ch=2 n=f4 v=112
20797 Off ch=2 n=f4 v=64
20797 Off ch=2 n=f3 v=64
20800 On ch=2 n=f#3 v=112
20800 On ch=2 n=f#4 v=112
20877 Off ch=2 n=f#4 v=64
20877 Off ch=2 n=f#3 v=64
20880 On ch=2 n=d3 v=112
20880 On ch=2 n=d4 v=112
20957 Off ch=2 n=d4 v=64
20957 Off ch=2 n=d3 v=64
20960 On ch=2 n=e3 v=112
20960 On ch=2 n=e4 v=112
21037 Off ch=2 n=e4 v=64
21037 Off ch=2 n=e3 v=64
21040 On ch=2 n=f3 v=112
21040 On ch=2 n=f4 v=112
21117 Off ch=2 n=f4 v=64
21117 Off ch=2 n=f3 v=64
21120 On ch=2 n=g2 v=112
21120 On ch=2 n=g3 v=112
21197 Off ch=2 n=g3 v=64
21197 Off ch=2 n=g2 v=64
21200 On ch=2 n=g#2 v=112
21200 On ch=2 n=g#3 v=112
21277 Off ch=2 n=g#3 v=64
21277 Off ch=2 n=g#2 v=64
21280 On ch=2 n=a#2 v=112
21280 On ch=2 n=a#3 v=112
21357 Off ch=2 n=a#3 v=64
21357 Off ch=2 n=a#2 v=64
21360 On ch=2 n=c3 v=112
21360 On ch=2 n=c4 v=112
21437 Off ch=2 n=c4 v=64
21437 Off ch=2 n=c3 v=64
21440 On ch=2 n=c#3 v=112
21440 On ch=2 n=c#4 v=112
21517 Off ch=2 n=c#4 v=64
21517 Off ch=2 n=c#3 v=64
21520 On ch=2 n=d#3 v=112
21520 On ch=2 n=d#4 v=112
21597 Off ch=2 n=d#4 v=64
21597 Off ch=2 n=d#3 v=64
21600 On ch=2 n=f3 v=112
21600 On ch=2 n=f4 v=112
21677 Off ch=2 n=f4 v=64
21677 Off ch=2 n=f3 v=64
21680 On ch=2 n=f#3 v=112
21680 On ch=2 n=f#4 v=112
21757 Off ch=2 n=f#4 v=64
21757 Off ch=2 n=f#3 v=64
21760 On ch=2 n=g3 v=112
21760 On ch=2 n=g4 v=112
21837 Off ch=2 n=g4 v=64
21837 Off ch=2 n=g3 v=64
21840 On ch=2 n=g#3 v=112
21840 On ch=2 n=g#4 v=112
21917 Off ch=2 n=g#4 v=64
21917 Off ch=2 n=g#3 v=64
21920 On ch=2 n=f3 v=112
21920 On ch=2 n=f4 v=112
21997 Off ch=2 n=f4 v=64
21997 Off ch=2 n=f3 v=64
22000 On ch=2 n=a#3 v=112
22000 On ch=2 n=a#4 v=112
22077 Off ch=2 n=a#4 v=64
22077 Off ch=2 n=a#3 v=64
22080 On ch=2 n=g#3 v=112
22157 Off ch=2 n=g#3 v=64
22160 On ch=2 n=f4 v=112
22237 Off ch=2 n=f4 v=64
22240 On ch=2 n=d#4 v=112
22317 Off ch=2 n=d#4 v=64
22320 On ch=2 n=c#4 v=112
22397 Off ch=2 n=c#4 v=64
22400 On ch=2 n=c4 v=112
22477 Off ch=2 n=c4 v=64
22480 On ch=2 n=a#3 v=112
22557 Off ch=2 n=a#3 v=64
22560 On ch=2 n=g#3 v=112
22637 Off ch=2 n=g#3 v=64
22640 On ch=2 n=f3 v=112
22717 Off ch=2 n=f3 v=64
22720 On ch=2 n=f#3 v=112
22797 Off ch=2 n=f#3 v=64
22800 On ch=2 n=g#3 v=112
22877 Off ch=2 n=g#3 v=64
22880 On ch=2 n=f3 v=112
22957 Off ch=2 n=f3 v=64
22960 On ch=2 n=a#3 v=112
23037 Off ch=2 n=a#3 v=64
23040 On ch=2 n=g#3 v=112
23040 On ch=2 n=g#4 v=112
23117 Off ch=2 n=g#4 v=64
23117 Off ch=2 n=g#3 v=64
23120 On ch=2 n=d#3 v=112
23120 On ch=2 n=d#4 v=112
23197 Off ch=2 n=d#4 v=64
23197 Off ch=2 n=d#3 v=64
23200 On ch=2 n=f3 v=112
23200 On ch=2 n=f4 v=112
23277 Off ch=2 n=f4 v=64
23277 Off ch=2 n=f3 v=64
23280 On ch=2 n=f#3 v=112
23280 On ch=2 n=f#4 v=112
23357 Off ch=2 n=f#4 v=64
23357 Off ch=2 n=f#3 v=64
23360 On ch=2 n=d#3 v=112
23360 On ch=2 n=d#4 v=112
23437 Off ch=2 n=d#4 v=64
23437 Off ch=2 n=d#3 v=64
23440 On ch=2 n=a#3 v=112
23440 On ch=2 n=a#4 v=112
23517 Off ch=2 n=a#4 v=64
23517 Off ch=2 n=a#3 v=64
23520 On ch=2 n=g#3 v=112
23520 On ch=2 n=g#4 v=112
23597 Off ch=2 n=g#4 v=64
23597 Off ch=2 n=g#3 v=64
23600 On ch=2 n=c#3 v=112
23600 On ch=2 n=c#4 v=112
23677 Off ch=2 n=c#4 v=64
23677 Off ch=2 n=c#3 v=64
23680 On ch=2 n=d#3 v=112
23680 On ch=2 n=d#4 v=112
23757 Off ch=2 n=d#4 v=64
23757 Off ch=2 n=d#3 v=64
23760 On ch=2 n=f3 v=112
23760 On ch=2 n=f4 v=112
23837 Off ch=2 n=f4 v=64
23837 Off ch=2 n=f3 v=64
23840 On ch=2 n=c#3 v=112
23840 On ch=2 n=c#4 v=112
23917 Off ch=2 n=c#4 v=64
23917 Off ch=2 n=c#3 v=64
23920 On ch=2 n=a#3 v=112
23920 On ch=2 n=a#4 v=112
23997 Off ch=2 n=a#4 v=64
23997 Off ch=2 n=a#3 v=64
24000 On ch=2 n=g#3 v=112
24000 On ch=2 n=g#4 v=112
24077 Off ch=2 n=g#4 v=64
24077 Off ch=2 n=g#3 v=64
24080 On ch=2 n=c3 v=112
24080 On ch=2 n=c4 v=112
24157 Off ch=2 n=c4 v=64
24157 Off ch=2 n=c3 v=64
24160 On ch=2 n=c#3 v=112
24160 On ch=2 n=c#4 v=112
24237 Off ch=2 n=c#4 v=64
24237 Off ch=2 n=c#3 v=64
24240 On ch=2 n=d#3 v=112
24240 On ch=2 n=d#4 v=112
24317 Off ch=2 n=d#4 v=64
24317 Off ch=2 n=d#3 v=64
24320 On ch=2 n=c3 v=112
24320 On ch=2 n=c4 v=112
24397 Off ch=2 n=c4 v=64
24397 Off ch=2 n=c3 v=64
24400 On ch=2 n=f3 v=112
24400 On ch=2 n=f4 v=112
24477 Off ch=2 n=f4 v=64
24477 Off ch=2 n=f3 v=64
24480 On ch=2 n=d#3 v=112
24480 On ch=2 n=d#4 v=112
24557 Off ch=2 n=d#4 v=64
24557 Off ch=2 n=d#3 v=64
24560 On ch=2 n=a#2 v=112
24560 On ch=2 n=a#3 v=112
24637 Off ch=2 n=a#3 v=64
24637 Off ch=2 n=a#2 v=64
24640 On ch=2 n=f3 v=112
24640 On ch=2 n=f4 v=112
24717 Off ch=2 n=f4 v=64
24717 Off ch=2 n=f3 v=64
24720 On ch=2 n=d#3 v=112
24720 On ch=2 n=d#4 v=112
24797 Off ch=2 n=d#4 v=64
24797 Off ch=2 n=d#3 v=64
24800 On ch=2 n=g#2 v=112
24800 On ch=2 n=g#3 v=112
24877 Off ch=2 n=g#3 v=64
24877 Off ch=2 n=g#2 v=64
24880 On ch=2 n=a#2 v=112
24880 On ch=2 n=a#3 v=112
24957 Off ch=2 n=a#3 v=64
24957 Off ch=2 n=a#2 v=64
24960 On ch=2 n=g#2 v=112
25037 Off ch=2 n=g#2 v=64
25040 On ch=2 n=c#3 v=112
25117 Off ch=2 n=c#3 v=64
25120 On ch=2 n=d#3 v=112
25197 Off ch=2 n=d#3 v=64
25200 On ch=2 n=f3 v=112
25277 Off ch=2 n=f3 v=64
25280 On ch=2 n=f#3 v=112
25357 Off ch=2 n=f#3 v=64
25360 On ch=2 n=g#3 v=112
25437 Off ch=2 n=g#3 v=64
25440 On ch=2 n=a#3 v=112
25517 Off ch=2 n=a#3 v=64
25520 On ch=2 n=c4 v=112
25597 Off ch=2 n=c4 v=64
25600 On ch=2 n=c#4 v=112
25677 Off ch=2 n=c#4 v=64
25680 On ch=2 n=d#4 v=112
25757 Off ch=2 n=d#4 v=64
25760 On ch=2 n=f4 v=112
25837 Off ch=2 n=f4 v=64
25840 On ch=2 n=f#4 v=112
25917 Off ch=2 n=f#4 v=64
25920 On ch=2 n=g#4 v=112
25997 Off ch=2 n=g#4 v=64
26000 On ch=2 n=f5 v=112
26077 Off ch=2 n=f5 v=64
26080 On ch=2 n=d#5 v=112
26157 Off ch=2 n=d#5 v=64
26160 On ch=2 n=c#5 v=112
26237 Off ch=2 n=c#5 v=64
26240 On ch=2 n=c5 v=112
26317 Off ch=2 n=c5 v=64
26320 On ch=2 n=a#4 v=112
26397 Off ch=2 n=a#4 v=64
26400 On ch=2 n=g#4 v=112
26477 Off ch=2 n=g#4 v=64
26480 On ch=2 n=f4 v=112
26557 Off ch=2 n=f4 v=64
26560 On ch=2 n=f#4 v=112
26637 Off ch=2 n=f#4 v=64
26640 On ch=2 n=g#4 v=112
26717 Off ch=2 n=g#4 v=64
26720 On ch=2 n=f4 v=112
26797 Off ch=2 n=f4 v=64
26800 On ch=2 n=a#4 v=112
26877 Off ch=2 n=a#4 v=64
26880 On ch=2 n=g#4 v=112
26957 Off ch=2 n=g#4 v=64
26960 On ch=2 n=d#4 v=112
27037 Off ch=2 n=d#4 v=64
27040 On ch=2 n=f4 v=112
27117 Off ch=2 n=f4 v=64
27120 On ch=2 n=f#4 v=112
27197 Off ch=2 n=f#4 v=64
27200 On ch=2 n=d#4 v=112
27277 Off ch=2 n=d#4 v=64
27280 On ch=2 n=a#4 v=112
27357 Off ch=2 n=a#4 v=64
27360 On ch=2 n=g#4 v=112
27437 Off ch=2 n=g#4 v=64
27440 On ch=2 n=c#4 v=112
27517 Off ch=2 n=c#4 v=64
27520 On ch=2 n=d#4 v=112
27597 Off ch=2 n=d#4 v=64
27600 On ch=2 n=f4 v=112
27677 Off ch=2 n=f4 v=64
27680 On ch=2 n=c#4 v=112
27757 Off ch=2 n=c#4 v=64
27760 On ch=2 n=a#4 v=112
27837 Off ch=2 n=a#4 v=64
27840 On ch=2 n=g#4 v=112
27917 Off ch=2 n=g#4 v=64
27920 On ch=2 n=c4 v=112
27997 Off ch=2 n=c4 v=64
28000 On ch=2 n=c#4 v=112
28077 Off ch=2 n=c#4 v=64
28080 On ch=2 n=d#4 v=112
28157 Off ch=2 n=d#4 v=64
28160 On ch=2 n=c4 v=112
28237 Off ch=2 n=c4 v=64
28240 On ch=2 n=f4 v=112
28317 Off ch=2 n=f4 v=64
28320 On ch=2 n=d#4 v=112
28397 Off ch=2 n=d#4 v=64
28400 On ch=2 n=a#3 v=112
28477 Off ch=2 n=a#3 v=64
28480 On ch=2 n=f4 v=112
28557 Off ch=2 n=f4 v=64
28560 On ch=2 n=d#4 v=112
28637 Off ch=2 n=d#4 v=64
28640 On ch=2 n=g#3 v=112
28717 Off ch=2 n=g#3 v=64
28720 On ch=2 n=f4 v=112
28797 Off ch=2 n=f4 v=64
28800 On ch=2 n=f#4 v=112
28877 Off ch=2 n=f#4 v=64
28880 On ch=2 n=f4 v=112
28957 Off ch=2 n=f4 v=64
28960 On ch=2 n=d#4 v=112
29037 Off ch=2 n=d#4 v=64
29040 On ch=2 n=c#4 v=112
29117 Off ch=2 n=c#4 v=64
29120 On ch=2 n=c4 v=112
29197 Off ch=2 n=c4 v=64
29200 On ch=2 n=a#3 v=112
29277 Off ch=2 n=a#3 v=64
29280 On ch=2 n=a3 v=112
29357 Off ch=2 n=a3 v=64
29360 On ch=2 n=f4 v=112
29437 Off ch=2 n=f4 v=64
29440 On ch=2 n=c4 v=112
29517 Off ch=2 n=c4 v=64
29520 On ch=2 n=d#4 v=112
29597 Off ch=2 n=d#4 v=64
29600 On ch=2 n=c#4 v=112
29677 Off ch=2 n=c#4 v=64
29680 On ch=2 n=a#3 v=112
29757 Off ch=2 n=a#3 v=64
29760 On ch=2 n=a3 v=112
29837 Off ch=2 n=a3 v=64
29840 On ch=2 n=f4 v=112
29917 Off ch=2 n=f4 v=64
29920 On ch=2 n=c4 v=112
29997 Off ch=2 n=c4 v=64
30000 On ch=2 n=d#4 v=112
30077 Off ch=2 n=d#4 v=64
30080 On ch=2 n=c#4 v=112
30157 Off ch=2 n=c#4 v=64
30160 On ch=2 n=a#3 v=112
30237 Off ch=2 n=a#3 v=64
30240 On ch=2 n=a3 v=112
30317 Off ch=2 n=a3 v=64
30320 On ch=2 n=f4 v=112
30397 Off ch=2 n=f4 v=64
30400 On ch=2 n=c4 v=112
30477 Off ch=2 n=c4 v=64
30480 On ch=2 n=d#4 v=112
30557 Off ch=2 n=d#4 v=64
30560 On ch=2 n=c#4 v=112
30637 Off ch=2 n=c#4 v=64
30640 On ch=2 n=a#3 v=112
30717 Off ch=2 n=a#3 v=64
30720 On ch=2 n=g#4 v=112
30797 Off ch=2 n=g#4 v=64
30800 On ch=2 n=g4 v=112
30877 Off ch=2 n=g4 v=64
30880 On ch=2 n=f4 v=112
30957 Off ch=2 n=f4 v=64
30960 On ch=2 n=d#4 v=112
31037 Off ch=2 n=d#4 v=64
31040 On ch=2 n=d4 v=112
31117 Off ch=2 n=d4 v=64
31120 On ch=2 n=c4 v=112
31197 Off ch=2 n=c4 v=64
31200 On ch=2 n=b3 v=112
31277 Off ch=2 n=b3 v=64
31280 On ch=2 n=g4 v=112
31357 Off ch=2 n=g4 v=64
31360 On ch=2 n=d4 v=112
31437 Off ch=2 n=d4 v=64
31440 On ch=2 n=f4 v=112
31517 Off ch=2 n=f4 v=64
31520 On ch=2 n=d#4 v=112
31597 Off ch=2 n=d#4 v=64
31600 On ch=2 n=c4 v=112
31677 Off ch=2 n=c4 v=64
31680 On ch=2 n=b3 v=112
31757 Off ch=2 n=b3 v=64
31760 On ch=2 n=g4 v=112
31837 Off ch=2 n=g4 v=64
31840 On ch=2 n=d4 v=112
31917 Off ch=2 n=d4 v=64
31920 On ch=2 n=f4 v=112
31997 Off ch=2 n=f4 v=64
32000 On ch=2 n=d#4 v=112
32077 Off ch=2 n=d#4 v=64
32080 On ch=2 n=c4 v=112
32157 Off ch=2 n=c4 v=64
32160 On ch=2 n=b3 v=112
32237 Off ch=2 n=b3 v=64
32240 On ch=2 n=g4 v=112
32317 Off ch=2 n=g4 v=64
32320 On ch=2 n=d4 v=112
32397 Off ch=2 n=d4 v=64
32400 On ch=2 n=f4 v=112
32477 Off ch=2 n=f4 v=64
32480 On ch=2 n=d#4 v=112
32557 Off ch=2 n=d#4 v=64
32560 On ch=2 n=c4 v=112
32637 Off ch=2 n=c4 v=64
32640 On ch=2 n=c#5 v=112
32717 Off ch=2 n=c#5 v=64
32720 On ch=2 n=c5 v=112
32797 Off ch=2 n=c5 v=64
32800 On ch=2 n=a#4 v=112
32877 Off ch=2 n=a#4 v=64
32880 On ch=2 n=g#4 v=112
32957 Off ch=2 n=g#4 v=64
32960 On ch=2 n=f#4 v=112
33037 Off ch=2 n=f#4 v=64
33040 On ch=2 n=f4 v=112
33117 Off ch=2 n=f4 v=64
33120 On ch=2 n=a#4 v=112
33197 Off ch=2 n=a#4 v=64
33200 On ch=2 n=e4 v=112
33277 Off ch=2 n=e4 v=64
33280 On ch=2 n=f#4 v=112
33357 Off ch=2 n=f#4 v=64
33360 On ch=2 n=c#4 v=112
33437 Off ch=2 n=c#4 v=64
33440 On ch=2 n=e4 v=112
33517 Off ch=2 n=e4 v=64
33520 On ch=2 n=c4 v=112
33597 Off ch=2 n=c4 v=64
33600 On ch=2 n=c#5 v=112
33677 Off ch=2 n=c#5 v=64
33680 On ch=2 n=c5 v=112
33757 Off ch=2 n=c5 v=64
33760 On ch=2 n=a#4 v=112
33837 Off ch=2 n=a#4 v=64
33840 On ch=2 n=g#4 v=112
33917 Off ch=2 n=g#4 v=64
33920 On ch=2 n=f#4 v=112
33997 Off ch=2 n=f#4 v=64
34000 On ch=2 n=f4 v=112
34077 Off ch=2 n=f4 v=64
34080 On ch=2 n=a#4 v=112
34157 Off ch=2 n=a#4 v=64
34160 On ch=2 n=e4 v=112
34237 Off ch=2 n=e4 v=64
34240 On ch=2 n=f#4 v=112
34317 Off ch=2 n=f#4 v=64
34320 On ch=2 n=c#4 v=112
34397 Off ch=2 n=c#4 v=64
34400 On ch=2 n=e4 v=112
34477 Off ch=2 n=e4 v=64
34480 On ch=2 n=c4 v=112
34557 Off ch=2 n=c4 v=64
34560 On ch=2 n=a#4 v=112
34637 Off ch=2 n=a#4 v=64
34640 On ch=2 n=e4 v=112
34717 Off ch=2 n=e4 v=64
34720 On ch=2 n=f#4 v=112
34797 Off ch=2 n=f#4 v=64
34800 On ch=2 n=c#4 v=112
34877 Off ch=2 n=c#4 v=64
34880 On ch=2 n=d#4 v=112
34957 Off ch=2 n=d#4 v=64
34960 On ch=2 n=c4 v=112
35037 Off ch=2 n=c4 v=64
35040 On ch=2 n=f#4 v=112
35117 Off ch=2 n=f#4 v=64
35120 On ch=2 n=c#4 v=112
35197 Off ch=2 n=c#4 v=64
35200 On ch=2 n=e4 v=112
35277 Off ch=2 n=e4 v=64
35280 On ch=2 n=c4 v=112
35357 Off ch=2 n=c4 v=64
35360 On ch=2 n=e4 v=112
35437 Off ch=2 n=e4 v=64
35440 On ch=2 n=a#3 v=112
35517 Off ch=2 n=a#3 v=64
35520 On ch=2 n=e4 v=112
35597 Off ch=2 n=e4 v=64
35600 On ch=2 n=a#3 v=112
35677 Off ch=2 n=a#3 v=64
35680 On ch=2 n=c#4 v=112
35757 Off ch=2 n=c#4 v=64
35760 On ch=2 n=a3 v=112
35837 Off ch=2 n=a3 v=64
35840 On ch=2 n=a#3 v=112
35917 Off ch=2 n=a#3 v=64
35920 On ch=2 n=g#3 v=112
35997 Off ch=2 n=g#3 v=64
36000 On ch=2 n=c#4 v=112
36077 Off ch=2 n=c#4 v=64
36080 On ch=2 n=g#3 v=112
36157 Off ch=2 n=g#3 v=64
36160 On ch=2 n=a#3 v=112
36237 Off ch=2 n=a#3 v=64
36240 On ch=2 n=g3 v=112
36317 Off ch=2 n=g3 v=64
36320 On ch=2 n=a#3 v=112
36397 Off ch=2 n=a#3 v=64
36400 On ch=2 n=f#3 v=112
36477 Off ch=2 n=f#3 v=64
36480 On ch=2 n=f3 v=112
36557 Off ch=2 n=f3 v=64
36560 On ch=2 n=g3 v=112
36637 Off ch=2 n=g3 v=64
36640 On ch=2 n=a#3 v=112
36717 Off ch=2 n=a#3 v=64
36720 On ch=2 n=c#4 v=112
36797 Off ch=2 n=c#4 v=64
36800 On ch=2 n=e3 v=112
36877 Off ch=2 n=e3 v=64
36880 On ch=2 n=g3 v=112
36957 Off ch=2 n=g3 v=64
36960 On ch=2 n=f3 v=112
37037 Off ch=2 n=f3 v=64
37040 On ch=2 n=g3 v=112
37117 Off ch=2 n=g3 v=64
37120 On ch=2 n=a#3 v=112
37197 Off ch=2 n=a#3 v=64
37200 On ch=2 n=c#4 v=112
37277 Off ch=2 n=c#4 v=64
37280 On ch=2 n=e3 v=112
37357 Off ch=2 n=e3 v=64
37360 On ch=2 n=g3 v=112
37437 Off ch=2 n=g3 v=64
37440 On ch=2 n=f3 v=112
37517 Off ch=2 n=f3 v=64
37520 On ch=2 n=a3 v=112
37597 Off ch=2 n=a3 v=64
37600 On ch=2 n=c4 v=112
37677 Off ch=2 n=c4 v=64
37680 On ch=2 n=d#4 v=112
37757 Off ch=2 n=d#4 v=64
37760 On ch=2 n=f#3 v=112
37837 Off ch=2 n=f#3 v=64
37840 On ch=2 n=a3 v=112
37917 Off ch=2 n=a3 v=64
37920 On ch=2 n=f#3 v=112
37997 Off ch=2 n=f#3 v=64
38000 On ch=2 n=a3 v=112
38077 Off ch=2 n=a3 v=64
38080 On ch=2 n=c4 v=112
38157 Off ch=2 n=c4 v=64
38160 On ch=2 n=d#4 v=112
38237 Off ch=2 n=d#4 v=64
38240 On ch=2 n=f#3 v=112
38317 Off ch=2 n=f#3 v=64
38320 On ch=2 n=a3 v=112
38397 Off ch=2 n=a3 v=64
38400 On ch=2 n=a#3 v=112
38477 Off ch=2 n=a#3 v=64
38480 On ch=2 n=c4 v=112
38557 Off ch=2 n=c4 v=64
38560 On ch=2 n=d#4 v=112
38637 Off ch=2 n=d#4 v=64
38640 On ch=2 n=f#4 v=112
38717 Off ch=2 n=f#4 v=64
38720 On ch=2 n=a3 v=112
38797 Off ch=2 n=a3 v=64
38800 On ch=2 n=c4 v=112
38877 Off ch=2 n=c4 v=64
38880 On ch=2 n=c#4 v=112
38957 Off ch=2 n=c#4 v=64
38960 On ch=2 n=d#4 v=112
39037 Off ch=2 n=d#4 v=64
39040 On ch=2 n=f#4 v=112
39117 Off ch=2 n=f#4 v=64
39120 On ch=2 n=a4 v=112
39197 Off ch=2 n=a4 v=64
39200 On ch=2 n=c4 v=112
39277 Off ch=2 n=c4 v=64
39280 On ch=2 n=d#4 v=112
39357 Off ch=2 n=d#4 v=64
39360 On ch=2 n=c#4 v=112
39437 Off ch=2 n=c#4 v=64
39440 On ch=2 n=d#4 v=112
39517 Off ch=2 n=d#4 v=64
39520 On ch=2 n=f#4 v=112
39597 Off ch=2 n=f#4 v=64
39600 On ch=2 n=a4 v=112
39677 Off ch=2 n=a4 v=64
39680 On ch=2 n=c4 v=112
39757 Off ch=2 n=c4 v=64
39760 On ch=2 n=d#4 v=112
39837 Off ch=2 n=d#4 v=64
39840 On ch=2 n=f#4 v=112
39917 Off ch=2 n=f#4 v=64
39920 On ch=2 n=a#4 v=112
39997 Off ch=2 n=a#4 v=64
40000 On ch=2 n=c5 v=112
40077 Off ch=2 n=c5 v=64
40080 On ch=2 n=d#5 v=112
40157 Off ch=2 n=d#5 v=64
40160 On ch=2 n=f4 v=112
40237 Off ch=2 n=f4 v=64
40240 On ch=2 n=a4 v=112
40317 Off ch=2 n=a4 v=64
40320 On ch=2 n=a#4 v=112
40397 Off ch=2 n=a#4 v=64
40400 On ch=2 n=c#5 v=112
40477 Off ch=2 n=c#5 v=64
40480 On ch=2 n=f#5 v=112
40557 Off ch=2 n=f#5 v=64
40560 On ch=2 n=f5 v=112
40637 Off ch=2 n=f5 v=64
40640 On ch=2 n=c5 v=112
40717 Off ch=2 n=c5 v=64
40720 On ch=2 n=c#5 v=112
40797 Off ch=2 n=c#5 v=64
40800 On ch=2 n=e5 v=112
40877 Off ch=2 n=e5 v=64
40880 On ch=2 n=c5 v=112
40957 Off ch=2 n=c5 v=64
40960 On ch=2 n=c#5 v=112
41037 Off ch=2 n=c#5 v=64
41040 On ch=2 n=a4 v=112
41117 Off ch=2 n=a4 v=64
41120 On ch=2 n=a#4 v=112
41197 Off ch=2 n=a#4 v=64
41200 On ch=2 n=f#4 v=112
41277 Off ch=2 n=f#4 v=64
41280 On ch=2 n=e4 v=112
41357 Off ch=2 n=e4 v=64
41360 On ch=2 n=f4 v=112
41437 Off ch=2 n=f4 v=64
41440 On ch=2 n=a#4 v=112
41517 Off ch=2 n=a#4 v=64
41520 On ch=2 n=g#4 v=112
41597 Off ch=2 n=g#4 v=64
41600 On ch=2 n=a4 v=112
41677 Off ch=2 n=a4 v=64
41680 On ch=2 n=c#5 v=112
41757 Off ch=2 n=c#5 v=64
41760 On ch=2 n=a4 v=112
41837 Off ch=2 n=a4 v=64
41840 On ch=2 n=a#4 v=112
41917 Off ch=2 n=a#4 v=64
41920 On ch=2 n=c#5 v=112
41997 Off ch=2 n=c#5 v=64
42000 On ch=2 n=b4 v=112
42077 Off ch=2 n=b4 v=64
42080 On ch=2 n=c5 v=112
42157 Off ch=2 n=c5 v=64
42160 On ch=2 n=f5 v=112
42237 Off ch=2 n=f5 v=64
42240 On ch=2 n=g#4 v=112
42317 Off ch=2 n=g#4 v=64
42320 On ch=2 n=b4 v=112
42397 Off ch=2 n=b4 v=64
42400 On ch=2 n=d#5 v=112
42477 Off ch=2 n=d#5 v=64
42480 On ch=2 n=d#5 v=112
42557 Off ch=2 n=d#5 v=64
42560 On ch=2 n=a#4 v=112
42637 Off ch=2 n=a#4 v=64
42640 On ch=2 n=b4 v=112
42717 Off ch=2 n=b4 v=64
42720 On ch=2 n=d5 v=112
42797 Off ch=2 n=d5 v=64
42800 On ch=2 n=a#4 v=112
42877 Off ch=2 n=a#4 v=64
42880 On ch=2 n=b4 v=112
42957 Off ch=2 n=b4 v=64
42960 On ch=2 n=g4 v=112
43037 Off ch=2 n=g4 v=64
43040 On ch=2 n=g#4 v=112
43117 Off ch=2 n=g#4 v=64
43120 On ch=2 n=e4 v=112
43197 Off ch=2 n=e4 v=64
43200 On ch=2 n=d4 v=112
43277 Off ch=2 n=d4 v=64
43280 On ch=2 n=d#4 v=112
43357 Off ch=2 n=d#4 v=64
43360 On ch=2 n=g#4 v=112
43437 Off ch=2 n=g#4 v=64
43440 On ch=2 n=e4 v=112
43517 Off ch=2 n=e4 v=64
43520 On ch=2 n=f4 v=112
43597 Off ch=2 n=f4 v=64
43600 On ch=2 n=b4 v=112
43677 Off ch=2 n=b4 v=64
43680 On ch=2 n=f4 v=112
43757 Off ch=2 n=f4 v=64
43760 On ch=2 n=f#4 v=112
43837 Off ch=2 n=f#4 v=64
43840 On ch=2 n=b4 v=112
43917 Off ch=2 n=b4 v=64
43920 On ch=2 n=a4 v=112
43997 Off ch=2 n=a4 v=64
44000 On ch=2 n=a#4 v=112
44077 Off ch=2 n=a#4 v=64
44080 On ch=2 n=d#5 v=112
44157 Off ch=2 n=d#5 v=64
44160 On ch=2 n=c#5 v=112
44237 Off ch=2 n=c#5 v=64
44240 On ch=2 n=f4 v=112
44317 Off ch=2 n=f4 v=64
44320 On ch=2 n=a#4 v=112
44397 Off ch=2 n=a#4 v=64
44400 On ch=2 n=c#4 v=112
44477 Off ch=2 n=c#4 v=64
44480 On ch=2 n=e4 v=112
44557 Off ch=2 n=e4 v=64
44560 On ch=2 n=a4 v=112
44637 Off ch=2 n=a4 v=64
44640 On ch=2 n=c5 v=112
44717 Off ch=2 n=c5 v=64
44720 On ch=2 n=d#4 v=112
44797 Off ch=2 n=d#4 v=64
44800 On ch=2 n=g#4 v=112
44877 Off ch=2 n=g#4 v=64
44880 On ch=2 n=b3 v=112
44957 Off ch=2 n=b3 v=64
44960 On ch=2 n=d4 v=112
45037 Off ch=2 n=d4 v=64
45040 On ch=2 n=g4 v=112
45117 Off ch=2 n=g4 v=64
45120 On ch=2 n=b4 v=112
45197 Off ch=2 n=b4 v=64
45200 On ch=2 n=d4 v=112
45277 Off ch=2 n=d4 v=64
45280 On ch=2 n=f#4 v=112
45357 Off ch=2 n=f#4 v=64
45360 On ch=2 n=a#3 v=112
45437 Off ch=2 n=a#3 v=64
45440 On ch=2 n=c#4 v=112
45517 Off ch=2 n=c#4 v=64
45520 On ch=2 n=f#4 v=112
45597 Off ch=2 n=f#4 v=64
45600 On ch=2 n=a#4 v=112
45677 Off ch=2 n=a#4 v=64
45680 On ch=2 n=f#4 v=112
45757 Off ch=2 n=f#4 v=64
45760 On ch=2 n=b4 v=112
45837 Off ch=2 n=b4 v=64
45840 On ch=2 n=c5 v=112
45917 Off ch=2 n=c5 v=64
45920 On ch=2 n=c#5 v=112
45997 Off ch=2 n=c#5 v=64
46000 On ch=2 n=d#5 v=112
46077 Off ch=2 n=d#5 v=64
46080 On ch=2 n=c#5 v=112
46157 Off ch=2 n=c#5 v=64
46160 On ch=2 n=c5 v=112
46237 Off ch=2 n=c5 v=64
46240 On ch=2 n=b4 v=112
46317 Off ch=2 n=b4 v=64
46320 On ch=2 n=a#4 v=112
46397 Off ch=2 n=a#4 v=64
46400 On ch=2 n=a4 v=112
46477 Off ch=2 n=a4 v=64
46480 On ch=2 n=f5 v=112
46557 Off ch=2 n=f5 v=64
46560 On ch=2 n=d#5 v=112
46637 Off ch=2 n=d#5 v=64
46640 On ch=2 n=d5 v=112
46717 Off ch=2 n=d5 v=64
46720 On ch=2 n=c#5 v=112
46797 Off ch=2 n=c#5 v=64
46800 On ch=2 n=b4 v=112
46877 Off ch=2 n=b4 v=64
46880 On ch=2 n=a#4 v=112
46957 Off ch=2 n=a#4 v=64
46960 On ch=2 n=f#5 v=112
47037 Off ch=2 n=f#5 v=64
47040 On ch=2 n=f5 v=112
47117 Off ch=2 n=f5 v=64
47120 On ch=2 n=d#5 v=112
47197 Off ch=2 n=d#5 v=64
47200 On ch=2 n=d5 v=112
47277 Off ch=2 n=d5 v=64
47280 On ch=2 n=c#5 v=112
47357 Off ch=2 n=c#5 v=64
47360 On ch=2 n=c5 v=112
47437 Off ch=2 n=c5 v=64
47440 On ch=2 n=a5 v=112
47517 Off ch=2 n=a5 v=64
47520 On ch=2 n=c5 v=112
47597 Off ch=2 n=c5 v=64
47600 On ch=2 n=c#5 v=112
47677 Off ch=2 n=c#5 v=64
47680 On ch=2 n=a#5 v=112
47757 Off ch=2 n=a#5 v=64
47760 On ch=2 n=d5 v=112
47837 Off ch=2 n=d5 v=64
47840 On ch=2 n=d#5 v=112
47917 Off ch=2 n=d#5 v=64
47920 On ch=2 n=a#5 v=112
47997 Off ch=2 n=a#5 v=64
48000 On ch=2 n=c6 v=112
48077 Off ch=2 n=c6 v=64
48080 On ch=2 n=a#5 v=112
48157 Off ch=2 n=a#5 v=64
48160 On ch=2 n=g#5 v=112
48237 Off ch=2 n=g#5 v=64
48240 On ch=2 n=f#5 v=112
48317 Off ch=2 n=f#5 v=64
48320 On ch=2 n=f5 v=112
48397 Off ch=2 n=f5 v=64
48400 On ch=2 n=e5 v=112
48477 Off ch=2 n=e5 v=64
48480 On ch=2 n=c6 v=112
48557 Off ch=2 n=c6 v=64
48560 On ch=2 n=a#5 v=112
48637 Off ch=2 n=a#5 v=64
48640 On ch=2 n=g#5 v=112
48717 Off ch=2 n=g#5 v=64
48720 On ch=2 n=f#5 v=112
48797 Off ch=2 n=f#5 v=64
48800 On ch=2 n=f5 v=112
48877 Off ch=2 n=f5 v=64
48880 On ch=2 n=e5 v=112
48957 Off ch=2 n=e5 v=64
48960 On ch=2 n=f#5 v=112
49037 Off ch=2 n=f#5 v=64
49040 On ch=2 n=f5 v=112
49117 Off ch=2 n=f5 v=64
49120 On ch=2 n=e5 v=112
49197 Off ch=2 n=e5 v=64
49200 On ch=2 n=d#5 v=112
49277 Off ch=2 n=d#5 v=64
49280 On ch=2 n=d5 v=112
49357 Off ch=2 n=d5 v=64
49360 On ch=2 n=c#5 v=112
49437 Off ch=2 n=c#5 v=64
49440 On ch=2 n=d#5 v=112
49517 Off ch=2 n=d#5 v=64
49520 On ch=2 n=b4 v=112
49597 Off ch=2 n=b4 v=64
49600 On ch=2 n=c5 v=112
49677 Off ch=2 n=c5 v=64
49680 On ch=2 n=c#5 v=112
49757 Off ch=2 n=c#5 v=64
49760 On ch=2 n=a4 v=112
49837 Off ch=2 n=a4 v=64
49840 On ch=2 n=b4 v=112
49917 Off ch=2 n=b4 v=64
49920 On ch=2 n=c5 v=112
49997 Off ch=2 n=c5 v=64
50000 On ch=2 n=g4 v=112
50077 Off ch=2 n=g4 v=64
50080 On ch=2 n=g#4 v=112
50157 Off ch=2 n=g#4 v=64
50160 On ch=2 n=b4 v=112
50237 Off ch=2 n=b4 v=64
50240 On ch=2 n=f#4 v=112
50317 Off ch=2 n=f#4 v=64
50320 On ch=2 n=d#5 v=112
50397 Off ch=2 n=d#5 v=64
50400 On ch=2 n=a#4 v=112
50477 Off ch=2 n=a#4 v=64
50480 On ch=2 n=f4 v=112
50557 Off ch=2 n=f4 v=64
50560 On ch=2 n=f#4 v=112
50637 Off ch=2 n=f#4 v=64
50640 On ch=2 n=a4 v=112
50717 Off ch=2 n=a4 v=64
50720 On ch=2 n=e4 v=112
50797 Off ch=2 n=e4 v=64
50800 On ch=2 n=c#5 v=112
50877 Off ch=2 n=c#5 v=64
50880 On ch=2 n=g#4 v=112
50957 Off ch=2 n=g#4 v=64
50960 On ch=2 n=d#4 v=112
51037 Off ch=2 n=d#4 v=64
51040 On ch=2 n=e4 v=112
51117 Off ch=2 n=e4 v=64
51120 On ch=2 n=g4 v=112
51197 Off ch=2 n=g4 v=64
51200 On ch=2 n=d4 v=112
51277 Off ch=2 n=d4 v=64
51280 On ch=2 n=b4 v=112
51357 Off ch=2 n=b4 v=64
51360 On ch=2 n=f#4 v=112
51437 Off ch=2 n=f#4 v=64
51440 On ch=2 n=c#4 v=112
51517 Off ch=2 n=c#4 v=64
51520 On ch=2 n=d4 v=112
51597 Off ch=2 n=d4 v=64
51600 On ch=2 n=f4 v=112
51677 Off ch=2 n=f4 v=64
51680 On ch=2 n=c4 v=112
51757 Off ch=2 n=c4 v=64
51760 On ch=2 n=a4 v=112
51837 Off ch=2 n=a4 v=64
51840 On ch=2 n=d5 v=112
51917 Off ch=2 n=d5 v=64
51920 On ch=2 n=a4 v=112
51997 Off ch=2 n=a4 v=64
52000 On ch=2 n=a#4 v=112
52077 Off ch=2 n=a#4 v=64
52080 On ch=2 n=c#5 v=112
52157 Off ch=2 n=c#5 v=64
52160 On ch=2 n=g#4 v=112
52237 Off ch=2 n=g#4 v=64
52240 On ch=2 n=f5 v=112
52317 Off ch=2 n=f5 v=64
52320 On ch=2 n=c5 v=112
52397 Off ch=2 n=c5 v=64
52400 On ch=2 n=g4 v=112
52477 Off ch=2 n=g4 v=64
52480 On ch=2 n=g#4 v=112
52557 Off ch=2 n=g#4 v=64
52560 On ch=2 n=b4 v=112
52637 Off ch=2 n=b4 v=64
52640 On ch=2 n=f#4 v=112
52717 Off ch=2 n=f#4 v=64
52720 On ch=2 n=d#5 v=112
52797 Off ch=2 n=d#5 v=64
52800 On ch=2 n=a#4 v=112
52877 Off ch=2 n=a#4 v=64
52880 On ch=2 n=f4 v=112
52957 Off ch=2 n=f4 v=64
52960 On ch=2 n=f#4 v=112
53037 Off ch=2 n=f#4 v=64
53040 On ch=2 n=a4 v=112
53117 Off ch=2 n=a4 v=64
53120 On ch=2 n=e4 v=112
53197 Off ch=2 n=e4 v=64
53200 On ch=2 n=c#5 v=112
53277 Off ch=2 n=c#5 v=64
53280 On ch=2 n=g#4 v=112
53357 Off ch=2 n=g#4 v=64
53360 On ch=2 n=d#4 v=112
53437 Off ch=2 n=d#4 v=64
53440 On ch=2 n=e4 v=112
53517 Off ch=2 n=e4 v=64
53520 On ch=2 n=g4 v=112
53597 Off ch=2 n=g4 v=64
53600 On ch=2 n=d4 v=112
53677 Off ch=2 n=d4 v=64
53680 On ch=2 n=b4 v=112
53757 Off ch=2 n=b4 v=64
53760 On ch=2 n=e5 v=112
53837 Off ch=2 n=e5 v=64
53840 On ch=2 n=b4 v=112
53917 Off ch=2 n=b4 v=64
53920 On ch=2 n=c5 v=112
53997 Off ch=2 n=c5 v=64
54000 On ch=2 n=d#5 v=112
54077 Off ch=2 n=d#5 v=64
54080 On ch=2 n=a#4 v=112
54157 Off ch=2 n=a#4 v=64
54160 On ch=2 n=g5 v=112
54237 Off ch=2 n=g5 v=64
54240 On ch=2 n=d5 v=112
54317 Off ch=2 n=d5 v=64
54320 On ch=2 n=a4 v=112
54397 Off ch=2 n=a4 v=64
54400 On ch=2 n=a#4 v=112
54477 Off ch=2 n=a#4 v=64
54480 On ch=2 n=c#5 v=112
54557 Off ch=2 n=c#5 v=64
54560 On ch=2 n=g#4 v=112
54637 Off ch=2 n=g#4 v=64
54640 On ch=2 n=f5 v=112
54717 Off ch=2 n=f5 v=64
54720 On ch=2 n=c5 v=112
54797 Off ch=2 n=c5 v=64
54800 On ch=2 n=g4 v=112
54877 Off ch=2 n=g4 v=64
54880 On ch=2 n=g#4 v=112
54957 Off ch=2 n=g#4 v=64
54960 On ch=2 n=b4 v=112
55037 Off ch=2 n=b4 v=64
55040 On ch=2 n=f#4 v=112
55117 Off ch=2 n=f#4 v=64
55120 On ch=2 n=d#5 v=112
55197 Off ch=2 n=d#5 v=64
55200 On ch=2 n=a#4 v=112
55277 Off ch=2 n=a#4 v=64
55280 On ch=2 n=f4 v=112
55357 Off ch=2 n=f4 v=64
55360 On ch=2 n=d#5 v=112
55437 Off ch=2 n=d#5 v=64
55440 On ch=2 n=a#4 v=112
55517 Off ch=2 n=a#4 v=64
55520 On ch=2 n=f4 v=112
55597 Off ch=2 n=f4 v=64
55600 On ch=2 n=c#5 v=112
55677 Off ch=2 n=c#5 v=64
55680 On ch=2 n=f#4 v=112
55757 Off ch=2 n=f#4 v=64
55760 On ch=2 n=f4 v=112
55837 Off ch=2 n=f4 v=64
55840 On ch=2 n=e4 v=112
55917 Off ch=2 n=e4 v=64
55920 On ch=2 n=d#4 v=112
55997 Off ch=2 n=d#4 v=64
56000 On ch=2 n=c#4 v=112
56077 Off ch=2 n=c#4 v=64
56080 On ch=2 n=c4 v=112
56157 Off ch=2 n=c4 v=64
56160 On ch=2 n=f#4 v=112
56237 Off ch=2 n=f#4 v=64
56240 On ch=2 n=f4 v=112
56317 Off ch=2 n=f4 v=64
56320 On ch=2 n=d#4 v=112
56397 Off ch=2 n=d#4 v=64
56400 On ch=2 n=c#4 v=112
56477 Off ch=2 n=c#4 v=64
56480 On ch=2 n=c4 v=112
56557 Off ch=2 n=c4 v=64
56560 On ch=2 n=a#3 v=112
56637 Off ch=2 n=a#3 v=64
56640 On ch=2 n=f#4 v=112
56717 Off ch=2 n=f#4 v=64
56720 On ch=2 n=f4 v=112
56797 Off ch=2 n=f4 v=64
56800 On ch=2 n=d#4 v=112
56877 Off ch=2 n=d#4 v=64
56880 On ch=2 n=c#4 v=112
56957 Off ch=2 n=c#4 v=64
56960 On ch=2 n=c4 v=112
57037 Off ch=2 n=c4 v=64
57040 On ch=2 n=b3 v=112
57117 Off ch=2 n=b3 v=64
57120 On ch=2 n=f#4 v=112
57197 Off ch=2 n=f#4 v=64
57200 On ch=2 n=f4 v=112
57277 Off ch=2 n=f4 v=64
57280 On ch=2 n=d#4 v=112
57357 Off ch=2 n=d#4 v=64
57360 On ch=2 n=c#4 v=112
57437 Off ch=2 n=c#4 v=64
57440 On ch=2 n=b3 v=112
57517 Off ch=2 n=b3 v=64
57520 On ch=2 n=a#3 v=112
57597 Off ch=2 n=a#3 v=64
57600 On ch=2 n=a3 v=112
57677 Off ch=2 n=a3 v=64
57680 On ch=2 n=a#3 v=112
57757 Off ch=2 n=a#3 v=64
57760 On ch=2 n=c4 v=112
57837 Off ch=2 n=c4 v=64
57840 On ch=2 n=d#4 v=112
57917 Off ch=2 n=d#4 v=64
57920 On ch=2 n=c#4 v=112
57997 Off ch=2 n=c#4 v=64
58000 On ch=2 n=a#3 v=112
58077 Off ch=2 n=a#3 v=64
58080 On ch=2 n=c4 v=112
58157 Off ch=2 n=c4 v=64
58160 On ch=2 n=a#3 v=112
58237 Off ch=2 n=a#3 v=64
58240 On ch=2 n=f3 v=112
58317 Off ch=2 n=f3 v=64
58320 On ch=2 n=g#3 v=112
58397 Off ch=2 n=g#3 v=64
58400 On ch=2 n=f#3 v=112
58477 Off ch=2 n=f#3 v=64
58480 On ch=2 n=f3 v=112
58557 Off ch=2 n=f3 v=64
58560 On ch=2 n=d#3 v=112
58637 Off ch=2 n=d#3 v=64
58640 On ch=2 n=f3 v=112
58717 Off ch=2 n=f3 v=64
58720 On ch=2 n=f#3 v=112
58797 Off ch=2 n=f#3 v=64
58800 On ch=2 n=a#3 v=112
58877 Off ch=2 n=a#3 v=64
58880 On ch=2 n=g#3 v=112
58957 Off ch=2 n=g#3 v=64
58960 On ch=2 n=f#3 v=112
59037 Off ch=2 n=f#3 v=64
59040 On ch=2 n=f3 v=112
59117 Off ch=2 n=f3 v=64
59120 On ch=2 n=c#3 v=112
59197 Off ch=2 n=c#3 v=64
59200 On ch=2 n=d#3 v=112
59277 Off ch=2 n=d#3 v=64
59280 On ch=2 n=f3 v=112
59357 Off ch=2 n=f3 v=64
59360 On ch=2 n=e3 v=112
59437 Off ch=2 n=e3 v=64
59440 On ch=2 n=f3 v=112
59517 Off ch=2 n=f3 v=64
59520 On ch=2 n=f#3 v=112
59597 Off ch=2 n=f#3 v=64
59600 On ch=2 n=f3 v=112
59677 Off ch=2 n=f3 v=64
59680 On ch=2 n=e3 v=112
59757 Off ch=2 n=e3 v=64
59760 On ch=2 n=d#3 v=112
59837 Off ch=2 n=d#3 v=64
59840 On ch=2 n=c#3 v=112
59917 Off ch=2 n=c#3 v=64
59920 On ch=2 n=c3 v=112
59997 Off ch=2 n=c3 v=64
60000 On ch=2 n=f#3 v=112
60077 Off ch=2 n=f#3 v=64
60080 On ch=2 n=f3 v=112
60157 Off ch=2 n=f3 v=64
60160 On ch=2 n=d#3 v=112
60237 Off ch=2 n=d#3 v=64
60240 On ch=2 n=c#3 v=112
60317 Off ch=2 n=c#3 v=64
60320 On ch=2 n=c3 v=112
60397 Off ch=2 n=c3 v=64
60400 On ch=2 n=a#2 v=112
60477 Off ch=2 n=a#2 v=64
60480 On ch=2 n=f#3 v=112
60557 Off ch=2 n=f#3 v=64
60560 On ch=2 n=f3 v=112
60637 Off ch=2 n=f3 v=64
60640 On ch=2 n=d#3 v=112
60717 Off ch=2 n=d#3 v=64
60720 On ch=2 n=c#3 v=112
60797 Off ch=2 n=c#3 v=64
60800 On ch=2 n=c3 v=112
60877 Off ch=2 n=c3 v=64
60880 On ch=2 n=b2 v=112
60957 Off ch=2 n=b2 v=64
60960 On ch=2 n=f#3 v=112
61037 Off ch=2 n=f#3 v=64
61040 On ch=2 n=f3 v=112
61117 Off ch=2 n=f3 v=64
61120 On ch=2 n=d#3 v=112
61197 Off ch=2 n=d#3 v=64
61200 On ch=2 n=c#3 v=112
61277 Off ch=2 n=c#3 v=64
61280 On ch=2 n=b2 v=112
61357 Off ch=2 n=b2 v=64
61360 On ch=2 n=a#2 v=112
61437 Off ch=2 n=a#2 v=64
61440 On ch=2 n=a2 v=112
61517 Off ch=2 n=a2 v=64
61520 On ch=2 n=a#2 v=112
61597 Off ch=2 n=a#2 v=64
61600 On ch=2 n=b2 v=112
61677 Off ch=2 n=b2 v=64
61680 On ch=2 n=c#3 v=112
61757 Off ch=2 n=c#3 v=64
61760 On ch=2 n=d#3 v=112
61837 Off ch=2 n=d#3 v=64
61840 On ch=2 n=f3 v=112
61917 Off ch=2 n=f3 v=64
61920 On ch=2 n=f#3 v=112
61997 Off ch=2 n=f#3 v=64
62000 On ch=2 n=a3 v=112
62077 Off ch=2 n=a3 v=64
62080 On ch=2 n=a#3 v=112
62157 Off ch=2 n=a#3 v=64
62160 On ch=2 n=b3 v=112
62237 Off ch=2 n=b3 v=64
62240 On ch=2 n=c#4 v=112
62317 Off ch=2 n=c#4 v=64
62320 On ch=2 n=d#4 v=112
62397 Off ch=2 n=d#4 v=64
62400 On ch=2 n=f4 v=112
62477 Off ch=2 n=f4 v=64
62480 On ch=2 n=e4 v=112
62557 Off ch=2 n=e4 v=64
62560 On ch=2 n=c#4 v=112
62637 Off ch=2 n=c#4 v=64
62640 On ch=2 n=c4 v=112
62717 Off ch=2 n=c4 v=64
62720 On ch=2 n=a#3 v=112
62797 Off ch=2 n=a#3 v=64
62800 On ch=2 n=f#3 v=112
62877 Off ch=2 n=f#3 v=64
62880 On ch=2 n=f3 v=112
62957 Off ch=2 n=f3 v=64
62960 On ch=2 n=e3 v=112
63037 Off ch=2 n=e3 v=64
63040 On ch=2 n=c#3 v=112
63117 Off ch=2 n=c#3 v=64
63120 On ch=2 n=c3 v=112
63197 Off ch=2 n=c3 v=64
63200 On ch=2 n=a#2 v=112
63277 Off ch=2 n=a#2 v=64
63280 On ch=2 n=f#2 v=112
63357 Off ch=2 n=f#2 v=64
63360 On ch=2 n=f2 v=112
63437 Off ch=2 n=f2 v=64
63440 On ch=2 n=a#2 v=112
63517 Off ch=2 n=a#2 v=64
63520 On ch=2 n=g#2 v=112
63597 Off ch=2 n=g#2 v=64
63600 On ch=2 n=a2 v=112
63677 Off ch=2 n=a2 v=64
63680 On ch=2 n=c#3 v=112
63757 Off ch=2 n=c#3 v=64
63760 On ch=2 n=a2 v=112
63837 Off ch=2 n=a2 v=64
63840 On ch=2 n=a#2 v=112
63917 Off ch=2 n=a#2 v=64
63920 On ch=2 n=d#3 v=112
63997 Off ch=2 n=d#3 v=64
64000 On ch=2 n=b2 v=112
64077 Off ch=2 n=b2 v=64
64080 On ch=2 n=c3 v=112
64157 Off ch=2 n=c3 v=64
64160 On ch=2 n=f3 v=112
64237 Off ch=2 n=f3 v=64
64240 On ch=2 n=c3 v=112
64317 Off ch=2 n=c3 v=64
64320 On ch=2 n=c#3 v=112
64397 Off ch=2 n=c#3 v=64
64400 On ch=2 n=f#3 v=112
64477 Off ch=2 n=f#3 v=64
64480 On ch=2 n=d3 v=112
64557 Off ch=2 n=d3 v=64
64560 On ch=2 n=d#3 v=112
64637 Off ch=2 n=d#3 v=64
64640 On ch=2 n=a3 v=112
64717 Off ch=2 n=a3 v=64
64720 On ch=2 n=f3 v=112
64797 Off ch=2 n=f3 v=64
64800 On ch=2 n=f#3 v=112
64877 Off ch=2 n=f#3 v=64
64880 On ch=2 n=d4 v=112
64957 Off ch=2 n=d4 v=64
64960 On ch=2 n=a3 v=112
65037 Off ch=2 n=a3 v=64
65040 On ch=2 n=c4 v=112
65117 Off ch=2 n=c4 v=64
65120 On ch=2 n=f#4 v=112
65197 Off ch=2 n=f#4 v=64
65200 On ch=2 n=f4 v=112
65277 Off ch=2 n=f4 v=64
65280 On ch=2 n=a3 v=112
65357 Off ch=2 n=a3 v=64
65360 On ch=2 n=c#4 v=112
65437 Off ch=2 n=c#4 v=64
65440 On ch=2 n=a3 v=112
65517 Off ch=2 n=a3 v=64
65520 On ch=2 n=c4 v=112
65597 Off ch=2 n=c4 v=64
65600 On ch=2 n=f#4 v=112
65677 Off ch=2 n=f#4 v=64
65680 On ch=2 n=f4 v=112
65757 Off ch=2 n=f4 v=64
65760 On ch=2 n=a3 v=112
65837 Off ch=2 n=a3 v=64
65840 On ch=2 n=c#4 v=112
65917 Off ch=2 n=c#4 v=64
65920 On ch=2 n=a3 v=112
65997 Off ch=2 n=a3 v=64
66000 On ch=2 n=c4 v=112
66077 Off ch=2 n=c4 v=64
66080 On ch=2 n=f#4 v=112
66157 Off ch=2 n=f#4 v=64
66160 On ch=2 n=f4 v=112
66237 Off ch=2 n=f4 v=64
66240 On ch=2 n=c4 v=112
66317 Off ch=2 n=c4 v=64
66320 On ch=2 n=f#4 v=112
66397 Off ch=2 n=f#4 v=64
66400 On ch=2 n=f4 v=112
66477 Off ch=2 n=f4 v=64
66480 On ch=2 n=c4 v=112
66557 Off ch=2 n=c4 v=64
66560 On ch=2 n=f#4 v=112
66637 Off ch=2 n=f#4 v=64
66640 On ch=2 n=f4 v=112
66717 Off ch=2 n=f4 v=64
66720 On ch=2 n=c4 v=112
66797 Off ch=2 n=c4 v=64
66800 On ch=2 n=f#4 v=112
66877 Off ch=2 n=f#4 v=64
66880 On ch=2 n=f4 v=112
66957 Off ch=2 n=f4 v=64
66960 On ch=2 n=a#3 v=112
67037 Off ch=2 n=a#3 v=64
67040 On ch=2 n=f#4 v=112
67117 Off ch=2 n=f#4 v=64
67120 On ch=2 n=f4 v=112
67197 Off ch=2 n=f4 v=64
67200 On ch=2 n=c#4 v=112
67277 Off ch=2 n=c#4 v=64
67280 On ch=2 n=f3 v=112
67357 Off ch=2 n=f3 v=64
67360 On ch=2 n=d#4 v=112
67437 Off ch=2 n=d#4 v=64
67440 On ch=2 n=f4 v=112
67517 Off ch=2 n=f4 v=64
67520 On ch=2 n=d#4 v=112
67597 Off ch=2 n=d#4 v=64
67600 On ch=2 n=c#4 v=112
67677 Off ch=2 n=c#4 v=64
67680 On ch=2 n=a#3 v=112
67757 Off ch=2 n=a#3 v=64
67760 On ch=2 n=f3 v=112
67837 Off ch=2 n=f3 v=64
67840 On ch=2 n=c4 v=112
67917 Off ch=2 n=c4 v=64
67920 On ch=2 n=c#4 v=112
67997 Off ch=2 n=c#4 v=64
68000 On ch=2 n=c4 v=112
68077 Off ch=2 n=c4 v=64
68080 On ch=2 n=a#3 v=112
68157 Off ch=2 n=a#3 v=64
68160 On ch=2 n=c#4 v=112
68237 Off ch=2 n=c#4 v=64
68240 On ch=2 n=f3 v=112
68317 Off ch=2 n=f3 v=64
68320 On ch=2 n=d#4 v=112
68397 Off ch=2 n=d#4 v=64
68400 On ch=2 n=f4 v=112
68477 Off ch=2 n=f4 v=64
68480 On ch=2 n=d#4 v=112
68557 Off ch=2 n=d#4 v=64
68560 On ch=2 n=c#4 v=112
68637 Off ch=2 n=c#4 v=64
68640 On ch=2 n=a#3 v=112
68717 Off ch=2 n=a#3 v=64
68720 On ch=2 n=f3 v=112
68797 Off ch=2 n=f3 v=64
68800 On ch=2 n=c4 v=112
68877 Off ch=2 n=c4 v=64
68880 On ch=2 n=c#4 v=112
68957 Off ch=2 n=c#4 v=64
68960 On ch=2 n=c4 v=112
69037 Off ch=2 n=c4 v=64
69040 On ch=2 n=a#3 v=112
69117 Off ch=2 n=a#3 v=64
69120 On ch=2 n=d#3 v=112
69197 Off ch=2 n=d#3 v=64
69200 On ch=2 n=f3 v=112
69277 Off ch=2 n=f3 v=64
69280 On ch=2 n=a#3 v=112
69357 Off ch=2 n=a#3 v=64
69360 On ch=2 n=c#4 v=112
69437 Off ch=2 n=c#4 v=64
69440 On ch=2 n=c#3 v=112
69517 Off ch=2 n=c#3 v=64
69520 On ch=2 n=f3 v=112
69597 Off ch=2 n=f3 v=64
69600 On ch=2 n=d#3 v=112
69677 Off ch=2 n=d#3 v=64
69680 On ch=2 n=f3 v=112
69757 Off ch=2 n=f3 v=64
69760 On ch=2 n=a#3 v=112
69837 Off ch=2 n=a#3 v=64
69840 On ch=2 n=c#4 v=112
69917 Off ch=2 n=c#4 v=64
69920 On ch=2 n=c#3 v=112
69997 Off ch=2 n=c#3 v=64
70000 On ch=2 n=f3 v=112
70077 Off ch=2 n=f3 v=64
70080 On ch=2 n=c3 v=112
70157 Off ch=2 n=c3 v=64
70160 On ch=2 n=c#3 v=112
70237 Off ch=2 n=c#3 v=64
70240 On ch=2 n=f3 v=112
70317 Off ch=2 n=f3 v=64
70320 On ch=2 n=a#3 v=112
70397 Off ch=2 n=a#3 v=64
70400 On ch=2 n=a#2 v=112
70477 Off ch=2 n=a#2 v=64
70480 On ch=2 n=c#3 v=112
70557 Off ch=2 n=c#3 v=64
70560 On ch=2 n=c3 v=112
70637 Off ch=2 n=c3 v=64
70640 On ch=2 n=c#3 v=112
70717 Off ch=2 n=c#3 v=64
70720 On ch=2 n=f3 v=112
70797 Off ch=2 n=f3 v=64
70800 On ch=2 n=a#3 v=112
70877 Off ch=2 n=a#3 v=64
70880 On ch=2 n=a#2 v=112
70957 Off ch=2 n=a#2 v=64
70960 On ch=2 n=c#3 v=112
71037 Off ch=2 n=c#3 v=64
71520 On ch=2 n=c3 v=112
71597 Off ch=2 n=c3 v=64
71600 On ch=2 n=c#3 v=112
71677 Off ch=2 n=c#3 v=64
71680 On ch=2 n=f3 v=112
71757 Off ch=2 n=f3 v=64
71760 On ch=2 n=a#3 v=112
71837 Off ch=2 n=a#3 v=64
71840 On ch=2 n=a#2 v=112
71917 Off ch=2 n=a#2 v=64
71920 On ch=2 n=c#3 v=112
71997 Off ch=2 n=c#3 v=64
72480 On ch=2 n=c3 v=112
72557 Off ch=2 n=c3 v=64
72560 On ch=2 n=c#3 v=112
72637 Off ch=2 n=c#3 v=64
72640 On ch=2 n=f3 v=112
72717 Off ch=2 n=f3 v=64
72720 On ch=2 n=a#3 v=112
72797 Off ch=2 n=a#3 v=64
72800 On ch=2 n=a#2 v=112
72877 Off ch=2 n=a#2 v=64
72880 On ch=2 n=c#3 v=112
72957 Off ch=2 n=c#3 v=64
72960 Par ch=2 c=64 v=127
72960 Par ch=2 c=7 v=127
72960 On ch=2 n=a#2 v=127
72960 On ch=2 n=a#3 v=127
73020 Off ch=2 n=a#3 v=64
73020 Off ch=2 n=a#2 v=64
73440 On ch=2 n=f4 v=127
73440 On ch=2 n=a#4 v=127
73440 On ch=2 n=c#5 v=127
73440 On ch=2 n=f5 v=127
73860 Off ch=2 n=f5 v=64
73860 Off ch=2 n=c#5 v=64
73860 Off ch=2 n=a#4 v=64
73860 Off ch=2 n=f4 v=64
73920 Par ch=2 c=64 v=0
73920 Meta TrkEnd
TrkEnd
