MFile 1 3 240
MTrk
0 TimeSig 3/4 24 8
0 Tempo 245902
0 Meta Marker "By Malcolm Dale"
0 Meta Marker "Chopin Sonata No.2 in B Flat Minor (Piu Lento)"
0 Meta Marker "Generated by NoteWorthy Composer"
0 Meta TrkEnd
TrkEnd
MTrk
0 Meta TrkName "Upper.G.S."
0 PrCh ch=1 p=0
0 Par ch=1 c=7 v=127
0 Par ch=1 c=10 v=64
0 Par ch=1 c=7 v=94
0 On ch=1 n=a#4 v=94
200 Off ch=1 n=a#4 v=64
240 On ch=1 n=d#5 v=94
240 On ch=1 n=d#4 v=94
280 Off ch=1 n=d#4 v=64
280 Off ch=1 n=d#5 v=64
280 Par ch=1 c=7 v=95
320 Par ch=1 c=7 v=96
360 Par ch=1 c=7 v=97
360 On ch=1 n=d#5 v=95
360 On ch=1 n=d#4 v=95
400 Off ch=1 n=d#4 v=64
400 Off ch=1 n=d#5 v=64
400 Par ch=1 c=7 v=98
440 Par ch=1 c=7 v=99
480 Par ch=1 c=7 v=100
480 On ch=1 n=d#5 v=96
480 On ch=1 n=d#4 v=96
520 Off ch=1 n=d#4 v=64
520 Off ch=1 n=d#5 v=64
520 Par ch=1 c=7 v=101
560 Par ch=1 c=7 v=102
600 Par ch=1 c=7 v=103
600 On ch=1 n=d#5 v=97
600 On ch=1 n=d#4 v=97
640 Off ch=1 n=d#4 v=64
640 Off ch=1 n=d#5 v=64
640 Par ch=1 c=7 v=104
680 Par ch=1 c=7 v=105
720 Par ch=1 c=7 v=106
720 On ch=1 n=d#5 v=127
720 On ch=1 n=d#4 v=127
760 Par ch=1 c=7 v=107
800 Par ch=1 c=7 v=108
840 Par ch=1 c=7 v=109
880 Par ch=1 c=7 v=110
920 Off ch=1 n=d#4 v=64
920 Off ch=1 n=d#5 v=64
920 Par ch=1 c=7 v=111
960 Par ch=1 c=7 v=112
960 Par ch=1 c=7 v=94
960 On ch=1 n=f5 v=94
960 On ch=1 n=d#5 v=94
960 On ch=1 n=b4 v=94
960 On ch=1 n=f4 v=94
1160 Off ch=1 n=f4 v=64
1160 Off ch=1 n=b4 v=64
1160 Off ch=1 n=d#5 v=64
1160 Off ch=1 n=f5 v=64
1200 On ch=1 n=f6 v=94
1200 On ch=1 n=d#6 v=94
1200 On ch=1 n=b5 v=94
1200 On ch=1 n=f5 v=94
1317 Off ch=1 n=f5 v=64
1317 Off ch=1 n=b5 v=64
1317 Off ch=1 n=d#6 v=64
1317 Off ch=1 n=f6 v=64
1320 On ch=1 n=d#6 v=94
1320 On ch=1 n=d#5 v=94
1437 Off ch=1 n=d#5 v=64
1437 Off ch=1 n=d#6 v=64
1440 On ch=1 n=f6 v=94
1440 On ch=1 n=d6 v=94
1440 On ch=1 n=a#5 v=94
1440 On ch=1 n=f5 v=94
1557 Off ch=1 n=f5 v=64
1557 Off ch=1 n=a#5 v=64
1557 Off ch=1 n=d6 v=64
1557 Off ch=1 n=f6 v=64
1560 On ch=1 n=f#6 v=94
1560 On ch=1 n=f#5 v=94
1677 Off ch=1 n=f#5 v=64
1677 Off ch=1 n=f#6 v=64
1680 On ch=1 n=f#5 v=94
1680 On ch=1 n=f#4 v=94
1720 Off ch=1 n=f#4 v=64
1720 Off ch=1 n=f#5 v=64
1720 Par ch=1 c=7 v=95
1760 Par ch=1 c=7 v=96
1800 Par ch=1 c=7 v=97
1800 On ch=1 n=f#5 v=95
1800 On ch=1 n=f#4 v=95
1840 Off ch=1 n=f#4 v=64
1840 Off ch=1 n=f#5 v=64
1840 Par ch=1 c=7 v=98
1880 Par ch=1 c=7 v=99
1920 Par ch=1 c=7 v=100
1920 On ch=1 n=f#5 v=96
1920 On ch=1 n=f#4 v=96
1960 Off ch=1 n=f#4 v=64
1960 Off ch=1 n=f#5 v=64
1960 Par ch=1 c=7 v=101
2000 Par ch=1 c=7 v=102
2040 Par ch=1 c=7 v=103
2040 On ch=1 n=f#5 v=97
2040 On ch=1 n=f#4 v=97
2080 Off ch=1 n=f#4 v=64
2080 Off ch=1 n=f#5 v=64
2080 Par ch=1 c=7 v=104
2120 Par ch=1 c=7 v=105
2160 Par ch=1 c=7 v=106
2160 On ch=1 n=f#5 v=127
2160 On ch=1 n=f#4 v=127
2200 Par ch=1 c=7 v=107
2240 Par ch=1 c=7 v=108
2280 Par ch=1 c=7 v=109
2320 Par ch=1 c=7 v=110
2360 Off ch=1 n=f#4 v=64
2360 Off ch=1 n=f#5 v=64
2360 Par ch=1 c=7 v=111
2400 Par ch=1 c=7 v=112
2400 Par ch=1 c=7 v=94
2400 On ch=1 n=g#5 v=94
2400 On ch=1 n=f#5 v=94
2400 On ch=1 n=d5 v=94
2400 On ch=1 n=g#4 v=94
2460 Off ch=1 n=g#4 v=64
2460 Off ch=1 n=d5 v=64
2460 Off ch=1 n=f#5 v=64
2460 Off ch=1 n=g#5 v=64
2640 On ch=1 n=g#6 v=94
2640 On ch=1 n=f#6 v=94
2640 On ch=1 n=d6 v=94
2640 On ch=1 n=g#5 v=94
2757 Off ch=1 n=g#5 v=64
2757 Off ch=1 n=d6 v=64
2757 Off ch=1 n=f#6 v=64
2757 Off ch=1 n=g#6 v=64
2760 On ch=1 n=f#6 v=94
2760 On ch=1 n=f#5 v=94
2877 Off ch=1 n=f#5 v=64
2877 Off ch=1 n=f#6 v=64
2880 On ch=1 n=g#6 v=94
2880 On ch=1 n=f6 v=94
2880 On ch=1 n=c#6 v=94
2880 On ch=1 n=g#5 v=94
2997 Off ch=1 n=g#5 v=64
2997 Off ch=1 n=c#6 v=64
2997 Off ch=1 n=f6 v=64
2997 Off ch=1 n=g#6 v=64
3000 On ch=1 n=a6 v=94
3000 On ch=1 n=a5 v=94
3117 Off ch=1 n=a5 v=64
3117 Off ch=1 n=a6 v=64
3120 On ch=1 n=a5 v=94
3120 On ch=1 n=a4 v=94
3160 Off ch=1 n=a4 v=64
3160 Off ch=1 n=a5 v=64
3160 Par ch=1 c=7 v=95
3200 Par ch=1 c=7 v=96
3240 Par ch=1 c=7 v=97
3240 On ch=1 n=a5 v=95
3240 On ch=1 n=a4 v=95
3280 Off ch=1 n=a4 v=64
3280 Off ch=1 n=a5 v=64
3280 Par ch=1 c=7 v=98
3320 Par ch=1 c=7 v=99
3360 Par ch=1 c=7 v=100
3360 On ch=1 n=a5 v=96
3360 On ch=1 n=a4 v=96
3400 Off ch=1 n=a4 v=64
3400 Off ch=1 n=a5 v=64
3400 Par ch=1 c=7 v=101
3440 Par ch=1 c=7 v=102
3480 Par ch=1 c=7 v=103
3480 On ch=1 n=a5 v=97
3480 On ch=1 n=a4 v=97
3520 Off ch=1 n=a4 v=64
3520 Off ch=1 n=a5 v=64
3520 Par ch=1 c=7 v=104
3560 Par ch=1 c=7 v=105
3600 Par ch=1 c=7 v=106
3600 On ch=1 n=a5 v=127
3600 On ch=1 n=a4 v=127
3640 Par ch=1 c=7 v=107
3680 Par ch=1 c=7 v=108
3720 Par ch=1 c=7 v=109
3760 Par ch=1 c=7 v=110
3800 Off ch=1 n=a4 v=64
3800 Off ch=1 n=a5 v=64
3800 Par ch=1 c=7 v=111
3840 Par ch=1 c=7 v=112
3840 Par ch=1 c=7 v=94
3840 On ch=1 n=a#5 v=94
3840 On ch=1 n=g#5 v=94
3840 On ch=1 n=f5 v=94
3840 On ch=1 n=a#4 v=94
3840 On ch=1 n=g#4 v=94
3880 Off ch=1 n=g#4 v=64
3880 Off ch=1 n=a#4 v=64
3880 Off ch=1 n=f5 v=64
3880 Off ch=1 n=g#5 v=64
3880 Off ch=1 n=a#5 v=64
3945 Par ch=1 c=7 v=93
3960 On ch=1 n=a#5 v=93
3960 On ch=1 n=g#5 v=93
3960 On ch=1 n=f5 v=93
3960 On ch=1 n=a#4 v=93
3960 On ch=1 n=g#4 v=93
4000 Off ch=1 n=g#4 v=64
4000 Off ch=1 n=a#4 v=64
4000 Off ch=1 n=f5 v=64
4000 Off ch=1 n=g#5 v=64
4000 Off ch=1 n=a#5 v=64
4051 Par ch=1 c=7 v=92
4080 On ch=1 n=a#5 v=92
4080 On ch=1 n=g#5 v=92
4080 On ch=1 n=f5 v=92
4080 On ch=1 n=a#4 v=92
4080 On ch=1 n=g#4 v=92
4120 Off ch=1 n=g#4 v=64
4120 Off ch=1 n=a#4 v=64
4120 Off ch=1 n=f5 v=64
4120 Off ch=1 n=g#5 v=64
4120 Off ch=1 n=a#5 v=64
4157 Par ch=1 c=7 v=91
4200 On ch=1 n=a#5 v=91
4200 On ch=1 n=g#5 v=91
4200 On ch=1 n=f5 v=91
4200 On ch=1 n=a#4 v=91
4200 On ch=1 n=g#4 v=91
4240 Off ch=1 n=g#4 v=64
4240 Off ch=1 n=a#4 v=64
4240 Off ch=1 n=f5 v=64
4240 Off ch=1 n=g#5 v=64
4240 Off ch=1 n=a#5 v=64
4262 Par ch=1 c=7 v=90
4320 On ch=1 n=a#5 v=126
4320 On ch=1 n=g#5 v=126
4320 On ch=1 n=d5 v=126
4320 On ch=1 n=a#4 v=126
4320 On ch=1 n=g#4 v=126
4368 Par ch=1 c=7 v=89
4475 Par ch=1 c=7 v=88
4520 Off ch=1 n=g#4 v=64
4520 Off ch=1 n=a#4 v=64
4520 Off ch=1 n=d5 v=64
4520 Off ch=1 n=g#5 v=64
4520 Off ch=1 n=a#5 v=64
4560 On ch=1 n=a#5 v=89
4560 On ch=1 n=f#5 v=89
4560 On ch=1 n=d#5 v=89
4560 On ch=1 n=a#4 v=89
4580 Par ch=1 c=7 v=87
4600 Off ch=1 n=a#4 v=64
4600 Off ch=1 n=d#5 v=64
4600 Off ch=1 n=f#5 v=64
4600 Off ch=1 n=a#5 v=64
4680 On ch=1 n=a#5 v=88
4680 On ch=1 n=f#5 v=88
4680 On ch=1 n=d#5 v=88
4680 On ch=1 n=a#4 v=88
4686 Par ch=1 c=7 v=86
4720 Off ch=1 n=a#4 v=64
4720 Off ch=1 n=d#5 v=64
4720 Off ch=1 n=f#5 v=64
4720 Off ch=1 n=a#5 v=64
4792 Par ch=1 c=7 v=85
4800 On ch=1 n=a#5 v=87
4800 On ch=1 n=f#5 v=87
4800 On ch=1 n=d#5 v=87
4840 Off ch=1 n=d#5 v=64
4840 Off ch=1 n=f#5 v=64
4840 Off ch=1 n=a#5 v=64
4898 Par ch=1 c=7 v=84
4920 On ch=1 n=a#5 v=86
4920 On ch=1 n=f#5 v=86
4920 On ch=1 n=d#5 v=86
4960 Off ch=1 n=d#5 v=64
4960 Off ch=1 n=f#5 v=64
4960 Off ch=1 n=a#5 v=64
5003 Par ch=1 c=7 v=83
5040 On ch=1 n=a#5 v=119
5040 On ch=1 n=f#5 v=119
5040 On ch=1 n=d#5 v=119
5110 Par ch=1 c=7 v=82
5216 Par ch=1 c=7 v=81
5240 Off ch=1 n=d#5 v=64
5240 Off ch=1 n=f#5 v=64
5240 Off ch=1 n=a#5 v=64
5280 On ch=1 n=a#5 v=84
5280 On ch=1 n=d#5 v=84
5280 On ch=1 n=a#4 v=84
5321 Par ch=1 c=7 v=80
5427 Par ch=1 c=7 v=79
5520 Off ch=1 n=a#4 v=64
5520 Off ch=1 n=d#5 v=64
5520 Off ch=1 n=a#5 v=64
5520 On ch=1 n=g#5 v=83
5520 On ch=1 n=d#5 v=83
5520 On ch=1 n=g#4 v=83
5530 Par ch=1 c=7 v=78
5635 Par ch=1 c=7 v=77
5717 Off ch=1 n=g#4 v=64
5717 Off ch=1 n=d#5 v=64
5717 Off ch=1 n=g#5 v=64
5742 Par ch=1 c=7 v=76
5757 On ch=1 n=f#5 v=82
5757 On ch=1 n=d#5 v=82
5757 On ch=1 n=a4 v=82
5757 On ch=1 n=f#4 v=82
5848 Par ch=1 c=7 v=75
5954 Par ch=1 c=7 v=74
5997 Off ch=1 n=f#4 v=64
5997 Off ch=1 n=a4 v=64
5997 Off ch=1 n=d#5 v=64
5997 Off ch=1 n=f#5 v=64
5997 On ch=1 n=c#5 v=81
5997 On ch=1 n=a#4 v=81
5997 On ch=1 n=f#4 v=81
6059 Par ch=1 c=7 v=73
6114 Off ch=1 n=f#4 v=64
6114 Off ch=1 n=a#4 v=64
6114 Off ch=1 n=c#5 v=64
6117 On ch=1 n=c#5 v=80
6165 Par ch=1 c=7 v=72
6237 Off ch=1 n=c#5 v=64
6237 On ch=1 n=c#6 v=79
6237 On ch=1 n=f#5 v=79
6272 Par ch=1 c=7 v=71
6354 Off ch=1 n=f#5 v=64
6354 Off ch=1 n=c#6 v=64
6357 On ch=1 n=f#5 v=78
6377 Par ch=1 c=7 v=70
6477 Off ch=1 n=f#5 v=64
6477 On ch=1 n=f#6 v=77
6477 On ch=1 n=a#5 v=77
6483 Par ch=1 c=7 v=69
6589 Par ch=1 c=7 v=68
6594 Off ch=1 n=a#5 v=64
6594 Off ch=1 n=f#6 v=64
6597 On ch=1 n=a#5 v=76
6695 Par ch=1 c=7 v=67
6717 Off ch=1 n=a#5 v=64
6717 On ch=1 n=a#6 v=75
6717 On ch=1 n=c#6 v=75
6800 Par ch=1 c=7 v=66
6834 Off ch=1 n=c#6 v=64
6834 Off ch=1 n=a#6 v=64
6837 On ch=1 n=c#6 v=74
6907 Par ch=1 c=7 v=65
6957 Off ch=1 n=c#6 v=64
6957 On ch=1 n=c#7 v=73
6957 On ch=1 n=f#6 v=73
7013 Par ch=1 c=7 v=64
7074 Off ch=1 n=f#6 v=64
7074 Off ch=1 n=c#7 v=64
7077 On ch=1 n=f#6 v=72
7118 Par ch=1 c=7 v=63
7197 Off ch=1 n=f#6 v=64
7197 On ch=1 n=f#7 v=71
7197 On ch=1 n=a#6 v=71
7224 Par ch=1 c=7 v=62
7314 Off ch=1 n=a#6 v=64
7314 Off ch=1 n=f#7 v=64
7317 On ch=1 n=a#6 v=70
7327 Par ch=1 c=7 v=61
7432 Par ch=1 c=7 v=60
7434 Off ch=1 n=a#6 v=64
7434 On ch=1 n=a#7 v=69
7434 On ch=1 n=c#7 v=69
7434 On ch=1 n=a#6 v=69
7539 Par ch=1 c=7 v=59
7645 Par ch=1 c=7 v=58
7674 Off ch=1 n=a#6 v=64
7674 Off ch=1 n=c#7 v=64
7674 Off ch=1 n=a#7 v=64
7674 On ch=1 n=g#7 v=68
7674 On ch=1 n=c#7 v=68
7674 On ch=1 n=g#6 v=68
7751 Par ch=1 c=7 v=57
7856 Par ch=1 c=7 v=56
7874 Off ch=1 n=g#6 v=64
7874 Off ch=1 n=c#7 v=64
7874 Off ch=1 n=g#7 v=64
7914 On ch=1 n=c#7 v=67
7914 On ch=1 n=g#6 v=67
7914 On ch=1 n=c#6 v=67
7962 Par ch=1 c=7 v=55
8069 Par ch=1 c=7 v=54
8154 Off ch=1 n=c#6 v=64
8154 Off ch=1 n=g#6 v=64
8154 Off ch=1 n=c#7 v=64
8154 On ch=1 n=c#7 v=66
8154 On ch=1 n=g#6 v=66
8154 On ch=1 n=c#6 v=66
8174 Par ch=1 c=7 v=53
8280 Par ch=1 c=7 v=52
8386 Par ch=1 c=7 v=51
8394 Off ch=1 n=c#6 v=64
8394 Off ch=1 n=g#6 v=64
8394 Off ch=1 n=c#7 v=64
8394 On ch=1 n=f#7 v=65
8394 On ch=1 n=c#7 v=65
8394 On ch=1 n=f#6 v=65
8492 Par ch=1 c=7 v=50
8594 Off ch=1 n=f#6 v=64
8594 Off ch=1 n=c#7 v=64
8594 Off ch=1 n=f#7 v=64
8597 Par ch=1 c=7 v=49
8634 On ch=1 n=c#6 v=64
8634 On ch=1 n=g#5 v=64
8634 On ch=1 n=c#5 v=64
8704 Par ch=1 c=7 v=48
8810 Par ch=1 c=7 v=47
8874 Off ch=1 n=c#5 v=64
8874 Off ch=1 n=g#5 v=64
8874 Off ch=1 n=c#6 v=64
8874 On ch=1 n=c#6 v=63
8874 On ch=1 n=g#5 v=63
8874 On ch=1 n=c#5 v=63
8915 Par ch=1 c=7 v=46
9021 Par ch=1 c=7 v=45
9114 Off ch=1 n=c#5 v=64
9114 Off ch=1 n=g#5 v=64
9114 On ch=1 n=f#6 v=62
9114 On ch=1 n=f#5 v=62
9124 Par ch=1 c=7 v=44
9229 Par ch=1 c=7 v=43
9311 Off ch=1 n=f#5 v=64
9311 Off ch=1 n=f#6 v=64
9311 Off ch=1 n=c#6 v=64
9336 Par ch=1 c=7 v=42
9351 On ch=1 n=c#6 v=61
9351 On ch=1 n=g#5 v=61
9351 On ch=1 n=c#5 v=61
9442 Par ch=1 c=7 v=41
9548 Par ch=1 c=7 v=40
9551 Off ch=1 n=c#5 v=64
9551 Off ch=1 n=g#5 v=64
9551 Off ch=1 n=c#6 v=64
9591 On ch=1 n=c#6 v=60
9591 On ch=1 n=g#5 v=60
9591 On ch=1 n=c#5 v=60
9653 Par ch=1 c=7 v=39
9759 Par ch=1 c=7 v=38
9791 Off ch=1 n=c#5 v=64
9791 Off ch=1 n=g#5 v=64
9831 On ch=1 n=f#6 v=59
9831 On ch=1 n=f#5 v=59
9866 Par ch=1 c=7 v=37
9971 Par ch=1 c=7 v=36
10031 Off ch=1 n=f#5 v=64
10031 Off ch=1 n=f#6 v=64
10031 Off ch=1 n=c#6 v=64
10071 On ch=1 n=c#6 v=58
10071 On ch=1 n=g#5 v=58
10071 On ch=1 n=c#5 v=58
10077 Par ch=1 c=7 v=35
10183 Par ch=1 c=7 v=34
10271 Off ch=1 n=c#5 v=64
10271 Off ch=1 n=g#5 v=64
10271 Off ch=1 n=c#6 v=64
10289 Par ch=1 c=7 v=33
10311 On ch=1 n=c#6 v=57
10311 On ch=1 n=c#5 v=57
10394 Par ch=1 c=7 v=32
10501 Par ch=1 c=7 v=31
10607 Par ch=1 c=7 v=30
10712 Par ch=1 c=7 v=29
10818 Par ch=1 c=7 v=28
10924 Par ch=1 c=7 v=27
11029 Par ch=1 c=7 v=26
11031 Off ch=1 n=c#5 v=64
11031 Off ch=1 n=c#6 v=64
11031 On ch=1 n=a#5 v=26
11031 On ch=1 n=a#4 v=26
11031 Par ch=1 c=7 v=26
11193 Par ch=1 c=7 v=27
11357 Par ch=1 c=7 v=28
11521 Par ch=1 c=7 v=29
11684 Par ch=1 c=7 v=30
11848 Par ch=1 c=7 v=31
12012 Par ch=1 c=7 v=32
12176 Par ch=1 c=7 v=33
12339 Par ch=1 c=7 v=34
12503 Par ch=1 c=7 v=35
12667 Par ch=1 c=7 v=36
12829 Par ch=1 c=7 v=37
12993 Par ch=1 c=7 v=38
13157 Par ch=1 c=7 v=39
13321 Par ch=1 c=7 v=40
13484 Par ch=1 c=7 v=41
13648 Par ch=1 c=7 v=42
13812 Par ch=1 c=7 v=43
13851 Off ch=1 n=a#4 v=64
13851 Off ch=1 n=a#5 v=64
13976 Par ch=1 c=7 v=44
14139 Par ch=1 c=7 v=45
14303 Par ch=1 c=7 v=46
14467 Par ch=1 c=7 v=47
14629 Par ch=1 c=7 v=48
14631 Par ch=1 c=7 v=48
14631 On ch=1 n=d#5 v=48
14631 On ch=1 n=d#4 v=48
14671 Off ch=1 n=d#4 v=64
14671 Off ch=1 n=d#5 v=64
14751 On ch=1 n=d#5 v=48
14751 On ch=1 n=d#4 v=48
14791 Off ch=1 n=d#4 v=64
14791 Off ch=1 n=d#5 v=64
14871 On ch=1 n=d#5 v=48
14871 On ch=1 n=d#4 v=48
14911 Off ch=1 n=d#4 v=64
14911 Off ch=1 n=d#5 v=64
14991 On ch=1 n=d#5 v=48
14991 On ch=1 n=d#4 v=48
15031 Off ch=1 n=d#4 v=64
15031 Off ch=1 n=d#5 v=64
15111 On ch=1 n=d#5 v=67
15111 On ch=1 n=d#4 v=67
15311 Off ch=1 n=d#4 v=64
15311 Off ch=1 n=d#5 v=64
15351 On ch=1 n=f5 v=48
15351 On ch=1 n=d#5 v=48
15351 On ch=1 n=b4 v=48
15351 On ch=1 n=f4 v=48
15551 Off ch=1 n=f4 v=64
15551 Off ch=1 n=b4 v=64
15551 Off ch=1 n=d#5 v=64
15551 Off ch=1 n=f5 v=64
15591 On ch=1 n=f6 v=48
15591 On ch=1 n=d#6 v=48
15591 On ch=1 n=b5 v=48
15591 On ch=1 n=f5 v=48
15708 Off ch=1 n=f5 v=64
15708 Off ch=1 n=b5 v=64
15708 Off ch=1 n=d#6 v=64
15708 Off ch=1 n=f6 v=64
15711 On ch=1 n=d#6 v=48
15711 On ch=1 n=d#5 v=48
15828 Off ch=1 n=d#5 v=64
15828 Off ch=1 n=d#6 v=64
15831 On ch=1 n=f6 v=48
15831 On ch=1 n=d6 v=48
15831 On ch=1 n=a#5 v=48
15831 On ch=1 n=f5 v=48
15948 Off ch=1 n=f5 v=64
15948 Off ch=1 n=a#5 v=64
15948 Off ch=1 n=d6 v=64
15948 Off ch=1 n=f6 v=64
15951 On ch=1 n=f#6 v=48
15951 On ch=1 n=f#5 v=48
16068 Off ch=1 n=f#5 v=64
16068 Off ch=1 n=f#6 v=64
16071 On ch=1 n=f#5 v=48
16071 On ch=1 n=f#4 v=48
16188 Off ch=1 n=f#4 v=64
16188 Off ch=1 n=f#5 v=64
16191 On ch=1 n=f#5 v=48
16191 On ch=1 n=f#4 v=48
16308 Off ch=1 n=f#4 v=64
16308 Off ch=1 n=f#5 v=64
16311 On ch=1 n=f#5 v=48
16311 On ch=1 n=f#4 v=48
16428 Off ch=1 n=f#4 v=64
16428 Off ch=1 n=f#5 v=64
16431 On ch=1 n=f#5 v=48
16431 On ch=1 n=f#4 v=48
16548 Off ch=1 n=f#4 v=64
16548 Off ch=1 n=f#5 v=64
16551 On ch=1 n=f#5 v=48
16551 On ch=1 n=f#4 v=48
16751 Off ch=1 n=f#4 v=64
16751 Off ch=1 n=f#5 v=64
16791 On ch=1 n=g#5 v=48
16791 On ch=1 n=f#5 v=48
16791 On ch=1 n=d5 v=48
16791 On ch=1 n=g#4 v=48
16991 Off ch=1 n=g#4 v=64
16991 Off ch=1 n=d5 v=64
16991 Off ch=1 n=f#5 v=64
16991 Off ch=1 n=g#5 v=64
17031 On ch=1 n=g#6 v=48
17031 On ch=1 n=f#6 v=48
17031 On ch=1 n=d6 v=48
17031 On ch=1 n=g#5 v=48
17148 Off ch=1 n=g#5 v=64
17148 Off ch=1 n=d6 v=64
17148 Off ch=1 n=f#6 v=64
17148 Off ch=1 n=g#6 v=64
17151 On ch=1 n=f#6 v=48
17151 On ch=1 n=f#5 v=48
17268 Off ch=1 n=f#5 v=64
17268 Off ch=1 n=f#6 v=64
17271 On ch=1 n=g#6 v=48
17271 On ch=1 n=f6 v=48
17271 On ch=1 n=c#6 v=48
17271 On ch=1 n=g#5 v=48
17388 Off ch=1 n=g#5 v=64
17388 Off ch=1 n=c#6 v=64
17388 Off ch=1 n=f6 v=64
17388 Off ch=1 n=g#6 v=64
17391 On ch=1 n=a6 v=48
17391 On ch=1 n=a5 v=48
17508 Off ch=1 n=a5 v=64
17508 Off ch=1 n=a6 v=64
17511 On ch=1 n=a5 v=48
17511 On ch=1 n=a4 v=48
17628 Off ch=1 n=a4 v=64
17628 Off ch=1 n=a5 v=64
17631 On ch=1 n=a5 v=48
17631 On ch=1 n=a4 v=48
17748 Off ch=1 n=a4 v=64
17748 Off ch=1 n=a5 v=64
17751 On ch=1 n=a5 v=48
17751 On ch=1 n=a4 v=48
17868 Off ch=1 n=a4 v=64
17868 Off ch=1 n=a5 v=64
17871 On ch=1 n=a5 v=48
17871 On ch=1 n=a4 v=48
17988 Off ch=1 n=a4 v=64
17988 Off ch=1 n=a5 v=64
17991 On ch=1 n=a5 v=48
17991 On ch=1 n=a4 v=48
18191 Off ch=1 n=a4 v=64
18191 Off ch=1 n=a5 v=64
18231 On ch=1 n=b5 v=48
18231 On ch=1 n=a5 v=48
18231 On ch=1 n=f5 v=48
18231 On ch=1 n=b4 v=48
18282 Par ch=1 c=7 v=49
18333 Par ch=1 c=7 v=50
18348 Off ch=1 n=b4 v=64
18348 Off ch=1 n=f5 v=64
18348 Off ch=1 n=a5 v=64
18348 Off ch=1 n=b5 v=64
18351 On ch=1 n=b5 v=49
18351 On ch=1 n=a5 v=49
18351 On ch=1 n=f5 v=49
18351 On ch=1 n=b4 v=49
18384 Par ch=1 c=7 v=51
18436 Par ch=1 c=7 v=52
18468 Off ch=1 n=b4 v=64
18468 Off ch=1 n=f5 v=64
18468 Off ch=1 n=a5 v=64
18468 Off ch=1 n=b5 v=64
18471 On ch=1 n=b5 v=50
18471 On ch=1 n=a5 v=50
18471 On ch=1 n=f5 v=50
18471 On ch=1 n=b4 v=50
18487 Par ch=1 c=7 v=53
18538 Par ch=1 c=7 v=54
18588 Off ch=1 n=b4 v=64
18588 Off ch=1 n=f5 v=64
18588 Off ch=1 n=a5 v=64
18588 Off ch=1 n=b5 v=64
18589 Par ch=1 c=7 v=55
18591 On ch=1 n=b5 v=51
18591 On ch=1 n=a5 v=51
18591 On ch=1 n=f5 v=51
18591 On ch=1 n=b4 v=51
18642 Par ch=1 c=7 v=56
18693 Par ch=1 c=7 v=57
18708 Off ch=1 n=b4 v=64
18708 Off ch=1 n=f5 v=64
18708 Off ch=1 n=a5 v=64
18708 Off ch=1 n=b5 v=64
18711 On ch=1 n=b5 v=52
18711 On ch=1 n=a5 v=52
18711 On ch=1 n=f5 v=52
18711 On ch=1 n=b4 v=52
18744 Par ch=1 c=7 v=58
18796 Par ch=1 c=7 v=59
18847 Par ch=1 c=7 v=60
18898 Par ch=1 c=7 v=61
18908 Off ch=1 n=b4 v=64
18908 Off ch=1 n=f5 v=64
18908 Off ch=1 n=a5 v=64
18908 Off ch=1 n=b5 v=64
18946 Par ch=1 c=7 v=62
18948 Par ch=1 c=7 v=62
18948 On ch=1 n=c6 v=62
18948 On ch=1 n=a5 v=62
18948 On ch=1 n=d#5 v=62
18948 On ch=1 n=c5 v=62
18999 Par ch=1 c=7 v=63
19050 Par ch=1 c=7 v=64
19065 Off ch=1 n=c5 v=64
19065 Off ch=1 n=d#5 v=64
19065 Off ch=1 n=a5 v=64
19065 Off ch=1 n=c6 v=64
19068 On ch=1 n=c6 v=63
19068 On ch=1 n=a5 v=63
19068 On ch=1 n=d#5 v=63
19068 On ch=1 n=c5 v=63
19101 Par ch=1 c=7 v=65
19153 Par ch=1 c=7 v=66
19185 Off ch=1 n=c5 v=64
19185 Off ch=1 n=d#5 v=64
19185 Off ch=1 n=a5 v=64
19185 Off ch=1 n=c6 v=64
19188 On ch=1 n=c6 v=64
19188 On ch=1 n=a5 v=64
19188 On ch=1 n=d#5 v=64
19188 On ch=1 n=c5 v=64
19204 Par ch=1 c=7 v=67
19255 Par ch=1 c=7 v=68
19305 Off ch=1 n=c5 v=64
19305 Off ch=1 n=d#5 v=64
19305 Off ch=1 n=a5 v=64
19305 Off ch=1 n=c6 v=64
19306 Par ch=1 c=7 v=69
19308 On ch=1 n=c6 v=65
19308 On ch=1 n=a5 v=65
19308 On ch=1 n=d#5 v=65
19308 On ch=1 n=c5 v=65
19359 Par ch=1 c=7 v=70
19410 Par ch=1 c=7 v=71
19425 Off ch=1 n=c5 v=64
19425 Off ch=1 n=d#5 v=64
19425 Off ch=1 n=a5 v=64
19425 Off ch=1 n=c6 v=64
19428 On ch=1 n=c6 v=66
19428 On ch=1 n=a5 v=66
19428 On ch=1 n=d#5 v=66
19428 On ch=1 n=c5 v=66
19461 Par ch=1 c=7 v=72
19513 Par ch=1 c=7 v=73
19564 Par ch=1 c=7 v=74
19615 Par ch=1 c=7 v=75
19625 Off ch=1 n=c5 v=64
19625 Off ch=1 n=d#5 v=64
19625 Off ch=1 n=a5 v=64
19625 Off ch=1 n=c6 v=64
19663 Par ch=1 c=7 v=76
19665 Par ch=1 c=7 v=76
19665 On ch=1 n=e6 v=76
19665 On ch=1 n=a#5 v=76
19665 On ch=1 n=f#5 v=76
19665 On ch=1 n=e5 v=76
19905 Off ch=1 n=e5 v=64
19905 Off ch=1 n=f#5 v=64
19905 Off ch=1 n=a#5 v=64
19905 Off ch=1 n=e6 v=64
19905 On ch=1 n=d6 v=76
19905 On ch=1 n=g5 v=76
19905 On ch=1 n=d5 v=76
20105 Off ch=1 n=d5 v=64
20105 Off ch=1 n=g5 v=64
20105 Off ch=1 n=d6 v=64
20145 On ch=1 n=d5 v=76
20145 On ch=1 n=d4 v=76
20385 Off ch=1 n=d4 v=64
20385 Off ch=1 n=d5 v=64
20385 On ch=1 n=c#5 v=76
20385 On ch=1 n=c#4 v=76
20425 Par ch=1 c=7 v=77
20465 Par ch=1 c=7 v=78
20502 Off ch=1 n=c#4 v=64
20502 Off ch=1 n=c#5 v=64
20505 Par ch=1 c=7 v=79
20505 On ch=1 n=c#5 v=77
20545 Par ch=1 c=7 v=80
20585 Par ch=1 c=7 v=81
20625 Off ch=1 n=c#5 v=64
20625 Par ch=1 c=7 v=82
20625 On ch=1 n=c#6 v=78
20625 On ch=1 n=f#5 v=78
20665 Par ch=1 c=7 v=83
20705 Par ch=1 c=7 v=84
20742 Off ch=1 n=f#5 v=64
20742 Off ch=1 n=c#6 v=64
20745 On ch=1 n=f#5 v=79
20745 Par ch=1 c=7 v=85
20785 Par ch=1 c=7 v=86
20825 Par ch=1 c=7 v=87
20865 Off ch=1 n=f#5 v=64
20865 Par ch=1 c=7 v=88
20865 On ch=1 n=f#6 v=80
20865 On ch=1 n=a5 v=80
20905 Par ch=1 c=7 v=89
20945 Par ch=1 c=7 v=90
20982 Off ch=1 n=a5 v=64
20982 Off ch=1 n=f#6 v=64
20985 Par ch=1 c=7 v=91
20985 On ch=1 n=a5 v=81
21025 Par ch=1 c=7 v=92
21065 Par ch=1 c=7 v=93
21105 Off ch=1 n=a5 v=64
21105 Par ch=1 c=7 v=94
21105 On ch=1 n=a6 v=82
21105 On ch=1 n=c#6 v=82
21145 Par ch=1 c=7 v=95
21185 Par ch=1 c=7 v=96
21222 Off ch=1 n=c#6 v=64
21222 Off ch=1 n=a6 v=64
21225 Par ch=1 c=7 v=97
21225 On ch=1 n=c#6 v=83
21265 Par ch=1 c=7 v=98
21305 Par ch=1 c=7 v=99
21345 Off ch=1 n=c#6 v=64
21345 Par ch=1 c=7 v=100
21345 On ch=1 n=c#7 v=84
21345 On ch=1 n=f#6 v=84
21385 Par ch=1 c=7 v=101
21425 Par ch=1 c=7 v=102
21462 Off ch=1 n=f#6 v=64
21462 Off ch=1 n=c#7 v=64
21465 On ch=1 n=f#6 v=85
21465 Par ch=1 c=7 v=103
21505 Par ch=1 c=7 v=104
21545 Par ch=1 c=7 v=105
21585 Off ch=1 n=f#6 v=64
21585 Par ch=1 c=7 v=106
21585 On ch=1 n=f#7 v=86
21585 On ch=1 n=a6 v=86
21625 Par ch=1 c=7 v=107
21665 Par ch=1 c=7 v=108
21702 Off ch=1 n=a6 v=64
21702 Off ch=1 n=f#7 v=64
21705 Par ch=1 c=7 v=109
21705 On ch=1 n=a6 v=87
21745 Par ch=1 c=7 v=110
21785 Par ch=1 c=7 v=111
21825 Off ch=1 n=a6 v=64
21825 Par ch=1 c=7 v=112
21825 On ch=1 n=a7 v=112
21825 On ch=1 n=c#7 v=112
21825 On ch=1 n=a6 v=112
22065 Off ch=1 n=a6 v=64
22065 Off ch=1 n=c#7 v=64
22065 Off ch=1 n=a7 v=64
22065 On ch=1 n=g#7 v=112
22065 On ch=1 n=c#7 v=112
22065 On ch=1 n=g#6 v=112
22265 Off ch=1 n=g#6 v=64
22265 Off ch=1 n=c#7 v=64
22265 Off ch=1 n=g#7 v=64
22305 On ch=1 n=c#7 v=112
22305 On ch=1 n=g#6 v=112
22305 On ch=1 n=c#6 v=112
22545 Off ch=1 n=c#6 v=64
22545 Off ch=1 n=g#6 v=64
22545 Off ch=1 n=c#7 v=64
22545 On ch=1 n=c#7 v=112
22545 On ch=1 n=g#6 v=112
22545 On ch=1 n=c#6 v=112
22585 Par ch=1 c=7 v=111
22625 Par ch=1 c=7 v=110
22665 Par ch=1 c=7 v=109
22705 Par ch=1 c=7 v=108
22745 Par ch=1 c=7 v=107
22785 Off ch=1 n=c#6 v=64
22785 Off ch=1 n=g#6 v=64
22785 Off ch=1 n=c#7 v=64
22785 Par ch=1 c=7 v=106
22785 On ch=1 n=f#7 v=111
22785 On ch=1 n=c#7 v=111
22785 On ch=1 n=f#6 v=111
22825 Par ch=1 c=7 v=105
22865 Par ch=1 c=7 v=104
22905 Par ch=1 c=7 v=103
22945 Par ch=1 c=7 v=102
22985 Off ch=1 n=f#6 v=64
22985 Off ch=1 n=c#7 v=64
22985 Off ch=1 n=f#7 v=64
22985 Par ch=1 c=7 v=101
23025 Par ch=1 c=7 v=100
23025 On ch=1 n=c#6 v=100
23025 On ch=1 n=g#5 v=100
23025 On ch=1 n=c#5 v=100
23265 Off ch=1 n=c#5 v=64
23265 Off ch=1 n=g#5 v=64
23265 Off ch=1 n=c#6 v=64
23265 On ch=1 n=c#6 v=100
23265 On ch=1 n=g#5 v=100
23265 On ch=1 n=c#5 v=100
23505 Off ch=1 n=c#5 v=64
23505 Off ch=1 n=g#5 v=64
23505 Off ch=1 n=c#6 v=64
23505 On ch=1 n=f#6 v=100
23505 On ch=1 n=c#6 v=100
23505 On ch=1 n=f#5 v=100
23705 Off ch=1 n=f#5 v=64
23705 Off ch=1 n=c#6 v=64
23705 Off ch=1 n=f#6 v=64
23745 On ch=1 n=c#6 v=100
23745 On ch=1 n=g#5 v=100
23745 On ch=1 n=c#5 v=100
23985 Off ch=1 n=c#5 v=64
23985 Off ch=1 n=g#5 v=64
23985 Off ch=1 n=c#6 v=64
23985 On ch=1 n=c#6 v=100
23985 On ch=1 n=g#5 v=100
23985 On ch=1 n=c#5 v=100
24225 Off ch=1 n=c#5 v=64
24225 Off ch=1 n=g#5 v=64
24225 Off ch=1 n=c#6 v=64
24225 On ch=1 n=f#6 v=100
24225 On ch=1 n=c#6 v=100
24225 On ch=1 n=f#5 v=100
24465 Off ch=1 n=f#5 v=64
24465 Off ch=1 n=c#6 v=64
24465 Off ch=1 n=f#6 v=64
24465 On ch=1 n=c#6 v=100
24465 On ch=1 n=c#5 v=100
24705 Par ch=1 c=7 v=112
24905 Off ch=1 n=c#6 v=64
24945 On ch=1 n=d6 v=112
24945 On ch=1 n=d5 v=112
25062 Off ch=1 n=d5 v=64
25062 Off ch=1 n=d6 v=64
25065 On ch=1 n=c#6 v=112
25065 On ch=1 n=c#5 v=112
25182 Off ch=1 n=c#6 v=64
25182 Off ch=1 n=c#5 v=64
25185 On ch=1 n=g#5 v=112
25185 On ch=1 n=g#4 v=112
25302 Off ch=1 n=g#4 v=64
25302 Off ch=1 n=g#5 v=64
25305 On ch=1 n=a5 v=112
25305 On ch=1 n=a4 v=112
25422 Off ch=1 n=a4 v=64
25422 Off ch=1 n=a5 v=64
25425 On ch=1 n=f#5 v=112
25425 On ch=1 n=f#4 v=112
26085 Off ch=1 n=f#4 v=64
26085 Off ch=1 n=f#5 v=64
26145 Par ch=1 c=7 v=120
26145 On ch=1 n=d6 v=127
26145 On ch=1 n=d5 v=127
26345 Off ch=1 n=d5 v=64
26345 Off ch=1 n=d6 v=64
26385 Par ch=1 c=7 v=94
26385 On ch=1 n=d5 v=94
26505 Off ch=1 n=d5 v=64
26505 On ch=1 n=d5 v=95
26531 Par ch=1 c=7 v=95
26625 Off ch=1 n=d5 v=64
26625 On ch=1 n=c#5 v=96
26677 Par ch=1 c=7 v=96
26745 Off ch=1 n=c#5 v=64
26745 On ch=1 n=d5 v=97
26825 Par ch=1 c=7 v=97
26865 Off ch=1 n=d5 v=64
26865 On ch=1 n=d#5 v=98
26865 On ch=1 n=a#4 v=98
26971 Par ch=1 c=7 v=98
26985 Off ch=1 n=a#4 v=64
26985 Off ch=1 n=d#5 v=64
26985 On ch=1 n=e5 v=99
26985 On ch=1 n=b4 v=99
27105 Off ch=1 n=b4 v=64
27105 Off ch=1 n=e5 v=64
27105 On ch=1 n=f5 v=100
27105 On ch=1 n=c5 v=100
27117 Par ch=1 c=7 v=99
27225 Off ch=1 n=c5 v=64
27225 Off ch=1 n=f5 v=64
27225 On ch=1 n=f#5 v=101
27225 On ch=1 n=c#5 v=101
27265 Par ch=1 c=7 v=100
27345 Off ch=1 n=c#5 v=64
27345 Off ch=1 n=f#5 v=64
27345 On ch=1 n=g5 v=102
27345 On ch=1 n=d5 v=102
27411 Par ch=1 c=7 v=101
27465 Off ch=1 n=d5 v=64
27465 Off ch=1 n=g5 v=64
27465 On ch=1 n=g#5 v=103
27465 On ch=1 n=d#5 v=103
27557 Par ch=1 c=7 v=102
27585 Off ch=1 n=d#5 v=64
27585 Off ch=1 n=g#5 v=64
27585 On ch=1 n=a5 v=104
27585 On ch=1 n=e5 v=104
27705 Off ch=1 n=e5 v=64
27705 Off ch=1 n=a5 v=64
27705 Par ch=1 c=7 v=103
27705 On ch=1 n=a#5 v=105
27705 On ch=1 n=f5 v=105
27825 Off ch=1 n=f5 v=64
27825 Off ch=1 n=a#5 v=64
27825 On ch=1 n=b5 v=106
27825 On ch=1 n=f#5 v=106
27851 Par ch=1 c=7 v=104
27945 Off ch=1 n=f#5 v=64
27945 Off ch=1 n=b5 v=64
27945 On ch=1 n=c6 v=107
27945 On ch=1 n=g5 v=107
27997 Par ch=1 c=7 v=105
28065 Off ch=1 n=g5 v=64
28065 Off ch=1 n=c6 v=64
28065 On ch=1 n=c#6 v=108
28065 On ch=1 n=g#5 v=108
28145 Par ch=1 c=7 v=106
28185 Off ch=1 n=g#5 v=64
28185 Off ch=1 n=c#6 v=64
28185 On ch=1 n=d6 v=109
28185 On ch=1 n=a5 v=109
28291 Par ch=1 c=7 v=107
28305 Off ch=1 n=a5 v=64
28305 Off ch=1 n=d6 v=64
28305 On ch=1 n=d6 v=110
28305 On ch=1 n=a5 v=110
28437 Par ch=1 c=7 v=108
28505 Off ch=1 n=a5 v=64
28505 Off ch=1 n=d6 v=64
28545 On ch=1 n=d#6 v=111
28545 On ch=1 n=a#5 v=111
28585 Par ch=1 c=7 v=109
28731 Par ch=1 c=7 v=110
28745 Off ch=1 n=a#5 v=64
28745 Off ch=1 n=d#6 v=64
28785 On ch=1 n=d#7 v=112
28785 On ch=1 n=d#6 v=112
28845 Off ch=1 n=d#6 v=64
28845 Off ch=1 n=d#7 v=64
28877 Par ch=1 c=7 v=111
29025 Par ch=1 c=7 v=112
29025 On ch=1 n=d#8 v=112
29025 On ch=1 n=d#7 v=112
29085 Off ch=1 n=d#7 v=64
29085 Off ch=1 n=d#8 v=64
29265 Par ch=1 c=7 v=90
29265 On ch=1 n=d#5 v=90
29265 On ch=1 n=a#4 v=90
29385 Off ch=1 n=a#4 v=64
29385 Off ch=1 n=d#5 v=64
29385 On ch=1 n=d#5 v=90
29385 On ch=1 n=a#4 v=90
29505 Off ch=1 n=a#4 v=64
29505 Off ch=1 n=d#5 v=64
29505 On ch=1 n=d5 v=90
29505 On ch=1 n=a4 v=90
29625 Off ch=1 n=a4 v=64
29625 Off ch=1 n=d5 v=64
29625 On ch=1 n=d#5 v=90
29625 On ch=1 n=a#4 v=90
29745 Off ch=1 n=a#4 v=64
29745 Off ch=1 n=d#5 v=64
29745 On ch=1 n=e5 v=90
29745 On ch=1 n=b4 v=90
29842 Par ch=1 c=7 v=91
29865 Off ch=1 n=b4 v=64
29865 Off ch=1 n=e5 v=64
29865 On ch=1 n=f5 v=91
29865 On ch=1 n=c5 v=91
29941 Par ch=1 c=7 v=92
29985 Off ch=1 n=c5 v=64
29985 Off ch=1 n=f5 v=64
29985 On ch=1 n=f#5 v=92
29985 On ch=1 n=c#5 v=92
30038 Par ch=1 c=7 v=93
30105 Off ch=1 n=c#5 v=64
30105 Off ch=1 n=f#5 v=64
30105 On ch=1 n=g5 v=93
30105 On ch=1 n=d5 v=93
30137 Par ch=1 c=7 v=94
30225 Off ch=1 n=d5 v=64
30225 Off ch=1 n=g5 v=64
30225 On ch=1 n=g#5 v=94
30225 On ch=1 n=d#5 v=94
30235 Par ch=1 c=7 v=95
30333 Par ch=1 c=7 v=96
30345 Off ch=1 n=d#5 v=64
30345 Off ch=1 n=g#5 v=64
30345 On ch=1 n=a5 v=95
30345 On ch=1 n=e5 v=95
30431 Par ch=1 c=7 v=97
30465 Off ch=1 n=e5 v=64
30465 Off ch=1 n=a5 v=64
30465 On ch=1 n=a#5 v=96
30465 On ch=1 n=f5 v=96
30530 Par ch=1 c=7 v=98
30585 Off ch=1 n=f5 v=64
30585 Off ch=1 n=a#5 v=64
30585 On ch=1 n=b5 v=97
30585 On ch=1 n=f#5 v=97
30627 Par ch=1 c=7 v=99
30705 Off ch=1 n=f#5 v=64
30705 Off ch=1 n=b5 v=64
30705 On ch=1 n=c6 v=98
30705 On ch=1 n=g5 v=98
30726 Par ch=1 c=7 v=100
30825 Off ch=1 n=g5 v=64
30825 Off ch=1 n=c6 v=64
30825 On ch=1 n=c#6 v=99
30825 On ch=1 n=g#5 v=99
30825 Par ch=1 c=7 v=101
30922 Par ch=1 c=7 v=102
30945 Off ch=1 n=g#5 v=64
30945 Off ch=1 n=c#6 v=64
30945 On ch=1 n=d6 v=100
30945 On ch=1 n=a5 v=100
31021 Par ch=1 c=7 v=103
31065 Off ch=1 n=a5 v=64
31065 Off ch=1 n=d6 v=64
31065 On ch=1 n=d#6 v=101
31065 On ch=1 n=a#5 v=101
31118 Par ch=1 c=7 v=104
31185 Off ch=1 n=a#5 v=64
31185 Off ch=1 n=d#6 v=64
31185 On ch=1 n=d#6 v=102
31185 On ch=1 n=a#5 v=102
31217 Par ch=1 c=7 v=105
31315 Par ch=1 c=7 v=106
31413 Par ch=1 c=7 v=107
31425 Off ch=1 n=a#5 v=64
31425 Off ch=1 n=d#6 v=64
31425 On ch=1 n=e6 v=103
31425 On ch=1 n=b5 v=103
31511 Par ch=1 c=7 v=108
31610 Par ch=1 c=7 v=109
31625 Off ch=1 n=b5 v=64
31625 Off ch=1 n=e6 v=64
31665 On ch=1 n=e7 v=104
31665 On ch=1 n=b6 v=104
31665 On ch=1 n=e6 v=104
31707 Par ch=1 c=7 v=110
31725 Off ch=1 n=e6 v=64
31725 Off ch=1 n=b6 v=64
31725 Off ch=1 n=e7 v=64
31806 Par ch=1 c=7 v=111
31905 Par ch=1 c=7 v=112
31905 On ch=1 n=e8 v=112
31905 On ch=1 n=e7 v=112
31965 Off ch=1 n=e7 v=64
31965 Off ch=1 n=e8 v=64
32145 Par ch=1 c=7 v=88
32145 On ch=1 n=e6 v=88
32145 On ch=1 n=e5 v=88
32265 Off ch=1 n=e5 v=64
32265 Off ch=1 n=e6 v=64
32265 On ch=1 n=e6 v=88
32265 On ch=1 n=e5 v=88
32385 Off ch=1 n=e5 v=64
32385 Off ch=1 n=e6 v=64
32385 On ch=1 n=d#6 v=88
32385 On ch=1 n=d#5 v=88
32505 Off ch=1 n=d#5 v=64
32505 Off ch=1 n=d#6 v=64
32505 On ch=1 n=e6 v=88
32505 On ch=1 n=e5 v=88
32622 Off ch=1 n=e5 v=64
32622 Off ch=1 n=e6 v=64
32625 On ch=1 n=f6 v=88
32625 On ch=1 n=f5 v=88
32745 Off ch=1 n=f5 v=64
32745 Off ch=1 n=f6 v=64
32745 On ch=1 n=f#6 v=88
32745 On ch=1 n=f#5 v=88
32862 Off ch=1 n=f#5 v=64
32862 Off ch=1 n=f#6 v=64
32865 On ch=1 n=g6 v=88
32865 On ch=1 n=g5 v=88
32905 Off ch=1 n=g5 v=64
32905 Off ch=1 n=g6 v=64
32985 On ch=1 n=g6 v=88
32985 On ch=1 n=g5 v=88
33025 Off ch=1 n=g5 v=64
33025 Off ch=1 n=g6 v=64
33105 On ch=1 n=g6 v=88
33105 On ch=1 n=g5 v=88
33145 Off ch=1 n=g5 v=64
33145 Off ch=1 n=g6 v=64
33225 On ch=1 n=g6 v=88
33225 On ch=1 n=g5 v=88
33265 Off ch=1 n=g5 v=64
33265 Off ch=1 n=g6 v=64
33345 On ch=1 n=g6 v=88
33345 On ch=1 n=g5 v=88
33465 Off ch=1 n=g5 v=64
33465 Off ch=1 n=g6 v=64
33465 On ch=1 n=f#6 v=88
33465 On ch=1 n=f#5 v=88
33582 Off ch=1 n=f#5 v=64
33582 Off ch=1 n=f#6 v=64
33585 On ch=1 n=f#6 v=88
33585 On ch=1 n=f#5 v=88
33625 Off ch=1 n=f#5 v=64
33625 Off ch=1 n=f#6 v=64
33705 On ch=1 n=f#6 v=88
33705 On ch=1 n=f#5 v=88
33745 Off ch=1 n=f#5 v=64
33745 Off ch=1 n=f#6 v=64
33825 On ch=1 n=f6 v=88
33825 On ch=1 n=f5 v=88
33865 Off ch=1 n=f5 v=64
33865 Off ch=1 n=f6 v=64
33945 On ch=1 n=f#6 v=88
33945 On ch=1 n=f#5 v=88
33985 Off ch=1 n=f#5 v=64
33985 Off ch=1 n=f#6 v=64
34065 On ch=1 n=g6 v=88
34065 On ch=1 n=g5 v=88
34185 Off ch=1 n=g5 v=64
34185 Off ch=1 n=g6 v=64
34185 On ch=1 n=g#6 v=88
34185 On ch=1 n=g#5 v=88
34302 Off ch=1 n=g#5 v=64
34302 Off ch=1 n=g#6 v=64
34305 On ch=1 n=a6 v=88
34305 On ch=1 n=a5 v=88
34345 Off ch=1 n=a5 v=64
34345 Off ch=1 n=a6 v=64
34425 On ch=1 n=a6 v=88
34425 On ch=1 n=a5 v=88
34455 Par ch=1 c=7 v=89
34465 Off ch=1 n=a5 v=64
34465 Off ch=1 n=a6 v=64
34545 On ch=1 n=a6 v=88
34545 On ch=1 n=a5 v=88
34585 Off ch=1 n=a5 v=64
34585 Off ch=1 n=a6 v=64
34605 Par ch=1 c=7 v=90
34665 On ch=1 n=a6 v=88
34665 On ch=1 n=a5 v=88
34705 Off ch=1 n=a5 v=64
34705 Off ch=1 n=a6 v=64
34755 Par ch=1 c=7 v=91
34785 On ch=1 n=a6 v=88
34785 On ch=1 n=a5 v=88
34905 Off ch=1 n=a5 v=64
34905 Off ch=1 n=a6 v=64
34905 Par ch=1 c=7 v=92
34905 On ch=1 n=g#6 v=88
34905 On ch=1 n=g#5 v=88
35022 Off ch=1 n=g#5 v=64
35022 Off ch=1 n=g#6 v=64
35025 On ch=1 n=g#6 v=88
35025 On ch=1 n=g#5 v=88
35055 Par ch=1 c=7 v=93
35065 Off ch=1 n=g#5 v=64
35065 Off ch=1 n=g#6 v=64
35145 On ch=1 n=g#6 v=88
35145 On ch=1 n=g#5 v=88
35185 Off ch=1 n=g#5 v=64
35185 Off ch=1 n=g#6 v=64
35205 Par ch=1 c=7 v=94
35265 On ch=1 n=g6 v=88
35265 On ch=1 n=g5 v=88
35305 Off ch=1 n=g5 v=64
35305 Off ch=1 n=g6 v=64
35355 Par ch=1 c=7 v=95
35385 On ch=1 n=g#6 v=88
35385 On ch=1 n=g#5 v=88
35425 Off ch=1 n=g#5 v=64
35425 Off ch=1 n=g#6 v=64
35505 Par ch=1 c=7 v=96
35505 On ch=1 n=g#6 v=96
35505 On ch=1 n=c#6 v=96
35505 On ch=1 n=g#5 v=96
35705 Off ch=1 n=g#5 v=64
35705 Off ch=1 n=c#6 v=64
35705 Off ch=1 n=g#6 v=64
35745 On ch=1 n=a#6 v=96
35745 On ch=1 n=a#5 v=96
35772 Off ch=1 n=a#5 v=64
35772 Off ch=1 n=a#6 v=64
35775 On ch=1 n=g#6 v=96
35775 On ch=1 n=c#6 v=96
35775 On ch=1 n=g#5 v=96
35862 Off ch=1 n=g#5 v=64
35862 Off ch=1 n=c#6 v=64
35862 Off ch=1 n=g#6 v=64
35865 On ch=1 n=g6 v=96
35865 On ch=1 n=g5 v=96
35982 Off ch=1 n=g5 v=64
35982 Off ch=1 n=g6 v=64
35985 On ch=1 n=g#6 v=96
35985 On ch=1 n=c#6 v=96
35985 On ch=1 n=g#5 v=96
36102 Off ch=1 n=g#5 v=64
36102 Off ch=1 n=c#6 v=64
36102 Off ch=1 n=g#6 v=64
36105 On ch=1 n=a#6 v=96
36105 On ch=1 n=a#5 v=96
36222 Off ch=1 n=a#5 v=64
36222 Off ch=1 n=a#6 v=64
36225 On ch=1 n=g#6 v=96
36225 On ch=1 n=c#6 v=96
36225 On ch=1 n=g#5 v=96
36425 Off ch=1 n=g#5 v=64
36425 Off ch=1 n=c#6 v=64
36425 Off ch=1 n=g#6 v=64
36465 On ch=1 n=g#7 v=96
36465 On ch=1 n=g#6 v=96
36525 Off ch=1 n=g#6 v=64
36525 Off ch=1 n=g#7 v=64
36705 On ch=1 n=f#6 v=96
36705 On ch=1 n=c#6 v=96
36705 On ch=1 n=f#5 v=96
36905 Off ch=1 n=f#5 v=64
36905 Off ch=1 n=c#6 v=64
36905 Off ch=1 n=f#6 v=64
36945 On ch=1 n=f#6 v=96
36945 On ch=1 n=b5 v=96
36945 On ch=1 n=f#5 v=96
37145 Off ch=1 n=f#5 v=64
37145 Off ch=1 n=b5 v=64
37145 Off ch=1 n=f#6 v=64
37185 On ch=1 n=g#6 v=96
37185 On ch=1 n=g#5 v=96
37212 Off ch=1 n=g#5 v=64
37212 Off ch=1 n=g#6 v=64
37215 On ch=1 n=f#6 v=96
37215 On ch=1 n=b5 v=96
37215 On ch=1 n=f#5 v=96
37302 Off ch=1 n=f#5 v=64
37302 Off ch=1 n=b5 v=64
37302 Off ch=1 n=f#6 v=64
37305 On ch=1 n=f6 v=96
37305 On ch=1 n=f5 v=96
37422 Off ch=1 n=f5 v=64
37422 Off ch=1 n=f6 v=64
37425 On ch=1 n=f#6 v=96
37425 On ch=1 n=b5 v=96
37425 On ch=1 n=f#5 v=96
37542 Off ch=1 n=f#5 v=64
37542 Off ch=1 n=b5 v=64
37542 Off ch=1 n=f#6 v=64
37545 On ch=1 n=g#6 v=96
37545 On ch=1 n=g#5 v=96
37662 Off ch=1 n=g#5 v=64
37662 Off ch=1 n=g#6 v=64
37665 On ch=1 n=f#6 v=96
37665 On ch=1 n=b5 v=96
37665 On ch=1 n=f#5 v=96
37865 Off ch=1 n=f#5 v=64
37865 Off ch=1 n=b5 v=64
37865 Off ch=1 n=f#6 v=64
37905 On ch=1 n=f#7 v=96
37905 On ch=1 n=f#6 v=96
38105 Off ch=1 n=f#6 v=64
38105 Off ch=1 n=f#7 v=64
38145 On ch=1 n=e6 v=96
38145 On ch=1 n=b5 v=96
38145 On ch=1 n=e5 v=96
38345 Off ch=1 n=e5 v=64
38345 Off ch=1 n=b5 v=64
38345 Off ch=1 n=e6 v=64
38385 On ch=1 n=e6 v=96
38385 On ch=1 n=a5 v=96
38385 On ch=1 n=e5 v=96
38585 Off ch=1 n=e5 v=64
38585 Off ch=1 n=a5 v=64
38585 Off ch=1 n=e6 v=64
38625 On ch=1 n=f#6 v=96
38625 On ch=1 n=f#5 v=96
38652 Off ch=1 n=f#5 v=64
38652 Off ch=1 n=f#6 v=64
38655 On ch=1 n=e6 v=96
38655 On ch=1 n=a5 v=96
38655 On ch=1 n=e5 v=96
38742 Off ch=1 n=e5 v=64
38742 Off ch=1 n=a5 v=64
38742 Off ch=1 n=e6 v=64
38745 On ch=1 n=d#6 v=96
38745 On ch=1 n=d#5 v=96
38862 Off ch=1 n=d#5 v=64
38862 Off ch=1 n=d#6 v=64
38865 On ch=1 n=e6 v=96
38865 On ch=1 n=a5 v=96
38865 On ch=1 n=e5 v=96
38982 Off ch=1 n=e5 v=64
38982 Off ch=1 n=a5 v=64
38982 Off ch=1 n=e6 v=64
38985 On ch=1 n=f#6 v=96
38985 On ch=1 n=f#5 v=96
39102 Off ch=1 n=f#5 v=64
39102 Off ch=1 n=f#6 v=64
39105 On ch=1 n=d#6 v=96
39105 On ch=1 n=a5 v=96
39105 On ch=1 n=d#5 v=96
39145 Par ch=1 c=7 v=97
39185 Par ch=1 c=7 v=98
39222 Off ch=1 n=d#5 v=64
39222 Off ch=1 n=a5 v=64
39222 Off ch=1 n=d#6 v=64
39225 Par ch=1 c=7 v=99
39225 On ch=1 n=d#5 v=97
39265 Par ch=1 c=7 v=100
39305 Par ch=1 c=7 v=101
39345 Off ch=1 n=d#5 v=64
39345 Par ch=1 c=7 v=102
39345 On ch=1 n=d#6 v=98
39345 On ch=1 n=f#5 v=98
39385 Par ch=1 c=7 v=103
39425 Par ch=1 c=7 v=104
39462 Off ch=1 n=f#5 v=64
39462 Off ch=1 n=d#6 v=64
39465 On ch=1 n=d#6 v=99
39465 Par ch=1 c=7 v=105
39505 Par ch=1 c=7 v=106
39545 Par ch=1 c=7 v=107
39585 Off ch=1 n=d#6 v=64
39585 Par ch=1 c=7 v=108
39585 On ch=1 n=d#7 v=100
39585 On ch=1 n=f#6 v=100
39625 Par ch=1 c=7 v=109
39665 Par ch=1 c=7 v=110
39702 Off ch=1 n=f#6 v=64
39702 Off ch=1 n=d#7 v=64
39705 Par ch=1 c=7 v=111
39705 On ch=1 n=d#7 v=101
39745 Par ch=1 c=7 v=112
39785 Par ch=1 c=7 v=113
39825 Off ch=1 n=d#7 v=64
39825 Par ch=1 c=7 v=114
39825 On ch=1 n=d#8 v=114
39825 On ch=1 n=f#7 v=114
40025 Off ch=1 n=f#7 v=64
40025 Off ch=1 n=d#8 v=64
40065 On ch=1 n=a5 v=114
40065 On ch=1 n=f#5 v=114
40065 On ch=1 n=d#5 v=114
40265 Off ch=1 n=d#5 v=64
40265 Off ch=1 n=f#5 v=64
40265 Off ch=1 n=a5 v=64
40305 On ch=1 n=f#6 v=114
40305 On ch=1 n=a5 v=114
40305 On ch=1 n=f#5 v=114
40365 Off ch=1 n=f#5 v=64
40365 Off ch=1 n=a5 v=64
40365 Off ch=1 n=f#6 v=64
40545 On ch=1 n=f6 v=114
40545 On ch=1 n=a#5 v=114
40545 On ch=1 n=f5 v=114
40560 Par ch=1 c=7 v=113
40576 Par ch=1 c=7 v=112
40592 Par ch=1 c=7 v=111
40602 Off ch=1 n=f5 v=64
40602 Off ch=1 n=a#5 v=64
40602 Off ch=1 n=f6 v=64
40605 Par ch=1 c=7 v=110
40622 Par ch=1 c=7 v=109
40637 Par ch=1 c=7 v=108
40653 Par ch=1 c=7 v=107
40669 Par ch=1 c=7 v=106
40685 Par ch=1 c=7 v=105
40702 Par ch=1 c=7 v=104
40717 Par ch=1 c=7 v=103
40733 Par ch=1 c=7 v=102
40749 Par ch=1 c=7 v=101
40765 Par ch=1 c=7 v=100
40782 Par ch=1 c=7 v=99
40782 On ch=1 n=a#5 v=112
40782 On ch=1 n=f5 v=112
40782 On ch=1 n=a#4 v=112
40797 Par ch=1 c=7 v=98
40813 Par ch=1 c=7 v=97
40829 Par ch=1 c=7 v=96
40845 Par ch=1 c=7 v=95
40862 Par ch=1 c=7 v=94
40877 Par ch=1 c=7 v=93
40893 Par ch=1 c=7 v=92
40909 Par ch=1 c=7 v=91
40925 Par ch=1 c=7 v=90
40942 Par ch=1 c=7 v=89
40957 Par ch=1 c=7 v=88
40973 Par ch=1 c=7 v=87
40982 Off ch=1 n=a#4 v=64
40982 Off ch=1 n=f5 v=64
40982 Off ch=1 n=a#5 v=64
40989 Par ch=1 c=7 v=86
41005 Par ch=1 c=7 v=85
41022 Par ch=1 c=7 v=84
41022 On ch=1 n=d#6 v=110
41022 On ch=1 n=c6 v=110
41022 On ch=1 n=f#5 v=110
41022 On ch=1 n=d#5 v=110
41037 Par ch=1 c=7 v=83
41053 Par ch=1 c=7 v=82
41069 Par ch=1 c=7 v=81
41079 Off ch=1 n=d#5 v=64
41079 Off ch=1 n=f#5 v=64
41079 Off ch=1 n=c6 v=64
41079 Off ch=1 n=d#6 v=64
41082 Par ch=1 c=7 v=80
41099 Par ch=1 c=7 v=79
41114 Par ch=1 c=7 v=78
41130 Par ch=1 c=7 v=77
41146 Par ch=1 c=7 v=76
41162 Par ch=1 c=7 v=75
41179 Par ch=1 c=7 v=74
41194 Par ch=1 c=7 v=73
41210 Par ch=1 c=7 v=72
41226 Par ch=1 c=7 v=71
41242 Par ch=1 c=7 v=70
41259 Par ch=1 c=7 v=69
41259 On ch=1 n=c#6 v=108
41259 On ch=1 n=a#5 v=108
41259 On ch=1 n=f5 v=108
41259 On ch=1 n=c#5 v=108
41274 Par ch=1 c=7 v=68
41290 Par ch=1 c=7 v=67
41306 Par ch=1 c=7 v=66
41316 Off ch=1 n=c#5 v=64
41316 Off ch=1 n=f5 v=64
41316 Off ch=1 n=a#5 v=64
41316 Off ch=1 n=c#6 v=64
41319 Par ch=1 c=7 v=65
41336 Par ch=1 c=7 v=64
41351 Par ch=1 c=7 v=63
41367 Par ch=1 c=7 v=62
41383 Par ch=1 c=7 v=61
41399 Par ch=1 c=7 v=60
41416 Par ch=1 c=7 v=59
41431 Par ch=1 c=7 v=58
41447 Par ch=1 c=7 v=57
41463 Par ch=1 c=7 v=56
41479 Par ch=1 c=7 v=55
41496 Par ch=1 c=7 v=54
41496 On ch=1 n=f5 v=106
41496 On ch=1 n=c#5 v=106
41511 Par ch=1 c=7 v=53
41527 Par ch=1 c=7 v=52
41543 Par ch=1 c=7 v=51
41553 Off ch=1 n=c#5 v=64
41553 Off ch=1 n=f5 v=64
41556 Par ch=1 c=7 v=50
41573 Par ch=1 c=7 v=49
41588 Par ch=1 c=7 v=48
41604 Par ch=1 c=7 v=47
41620 Par ch=1 c=7 v=46
41636 Par ch=1 c=7 v=45
41653 Par ch=1 c=7 v=44
41668 Par ch=1 c=7 v=43
41684 Par ch=1 c=7 v=42
41700 Par ch=1 c=7 v=41
41716 Par ch=1 c=7 v=40
41733 Par ch=1 c=7 v=39
41733 On ch=1 n=c6 v=104
41733 On ch=1 n=a5 v=104
41733 On ch=1 n=f5 v=104
41733 On ch=1 n=d#5 v=104
41748 Par ch=1 c=7 v=38
41764 Par ch=1 c=7 v=37
41780 Par ch=1 c=7 v=36
41790 Off ch=1 n=d#5 v=64
41790 Off ch=1 n=f5 v=64
41790 Off ch=1 n=a5 v=64
41790 Off ch=1 n=c6 v=64
41793 Par ch=1 c=7 v=35
41810 Par ch=1 c=7 v=34
41825 Par ch=1 c=7 v=33
41841 Par ch=1 c=7 v=32
41857 Par ch=1 c=7 v=31
41873 Par ch=1 c=7 v=30
41890 Par ch=1 c=7 v=29
41905 Par ch=1 c=7 v=28
41921 Par ch=1 c=7 v=27
41937 Par ch=1 c=7 v=26
41953 Par ch=1 c=7 v=25
41970 Par ch=1 c=7 v=24
41970 On ch=1 n=a#5 v=24
41970 On ch=1 n=f5 v=24
41970 On ch=1 n=c#5 v=24
42030 Off ch=1 n=c#5 v=64
42030 Off ch=1 n=f5 v=64
42030 Off ch=1 n=a#5 v=64
42030 Par ch=1 c=7 v=25
42090 Par ch=1 c=7 v=26
42150 Par ch=1 c=7 v=27
42210 Par ch=1 c=7 v=28
42210 On ch=1 n=a#4 v=25
42210 On ch=1 n=f4 v=25
42270 Par ch=1 c=7 v=29
42330 Par ch=1 c=7 v=30
42390 Par ch=1 c=7 v=31
42410 Off ch=1 n=f4 v=64
42410 Off ch=1 n=a#4 v=64
42450 Par ch=1 c=7 v=32
42450 On ch=1 n=d#5 v=26
42450 On ch=1 n=a#4 v=26
42450 On ch=1 n=f#4 v=26
42510 Par ch=1 c=7 v=33
42570 Par ch=1 c=7 v=34
42630 Par ch=1 c=7 v=35
42650 Off ch=1 n=f#4 v=64
42650 Off ch=1 n=a#4 v=64
42650 Off ch=1 n=d#5 v=64
42690 Par ch=1 c=7 v=36
42690 On ch=1 n=c#5 v=27
42690 On ch=1 n=a#4 v=27
42690 On ch=1 n=f4 v=27
42750 Par ch=1 c=7 v=37
42810 Par ch=1 c=7 v=38
42870 Par ch=1 c=7 v=39
42890 Off ch=1 n=f4 v=64
42890 Off ch=1 n=a#4 v=64
42890 Off ch=1 n=c#5 v=64
42930 Par ch=1 c=7 v=40
42930 On ch=1 n=f4 v=28
42990 Par ch=1 c=7 v=41
43050 Par ch=1 c=7 v=42
43110 Par ch=1 c=7 v=43
43130 Off ch=1 n=f4 v=64
43170 Par ch=1 c=7 v=44
43170 On ch=1 n=c5 v=29
43170 On ch=1 n=a4 v=29
43170 On ch=1 n=d#4 v=29
43230 Par ch=1 c=7 v=45
43290 Par ch=1 c=7 v=46
43350 Par ch=1 c=7 v=47
43370 Off ch=1 n=d#4 v=64
43370 Off ch=1 n=a4 v=64
43370 Off ch=1 n=c5 v=64
43410 On ch=1 n=c#4 v=67
43410 On ch=1 n=c#3 v=67
43410 Par ch=1 c=7 v=48
44330 Off ch=1 n=c#3 v=64
44330 Off ch=1 n=c#4 v=64
44370 On ch=1 n=c#5 v=48
44370 On ch=1 n=c#4 v=48
44570 Off ch=1 n=c#4 v=64
44570 Off ch=1 n=c#5 v=64
44610 On ch=1 n=a#7 v=48
44610 On ch=1 n=a#6 v=48
44810 Off ch=1 n=a#6 v=64
44810 Off ch=1 n=a#7 v=64
44850 On ch=1 n=a#5 v=67
44850 On ch=1 n=a#4 v=67
45570 Off ch=1 n=a#4 v=64
45570 On ch=1 n=a#4 v=48
45770 Off ch=1 n=a#4 v=64
45770 Off ch=1 n=a#5 v=64
45810 On ch=1 n=a#6 v=48
45810 On ch=1 n=a#5 v=48
46010 Off ch=1 n=a#5 v=64
46010 Off ch=1 n=a#6 v=64
46050 On ch=1 n=a#7 v=48
46050 On ch=1 n=a#6 v=48
46130 Par ch=1 c=7 v=49
46210 Par ch=1 c=7 v=50
46250 Off ch=1 n=a#6 v=64
46250 Off ch=1 n=a#7 v=64
46290 Par ch=1 c=7 v=51
46290 On ch=1 n=d#5 v=48
46290 On ch=1 n=d#4 v=48
46370 Par ch=1 c=7 v=52
46407 Off ch=1 n=d#4 v=64
46407 Off ch=1 n=d#5 v=64
46410 On ch=1 n=d#5 v=48
46410 On ch=1 n=d#4 v=48
46450 Par ch=1 c=7 v=53
46527 Off ch=1 n=d#4 v=64
46527 Off ch=1 n=d#5 v=64
46530 Par ch=1 c=7 v=54
46530 On ch=1 n=d#5 v=48
46530 On ch=1 n=d#4 v=48
46610 Par ch=1 c=7 v=55
46647 Off ch=1 n=d#4 v=64
46647 Off ch=1 n=d#5 v=64
46650 On ch=1 n=d#5 v=48
46650 On ch=1 n=d#4 v=48
46690 Par ch=1 c=7 v=56
46767 Off ch=1 n=d#4 v=64
46767 Off ch=1 n=d#5 v=64
46770 Par ch=1 c=7 v=57
46770 On ch=1 n=d#5 v=48
46770 On ch=1 n=d#4 v=48
46850 Par ch=1 c=7 v=58
46930 Par ch=1 c=7 v=59
46970 Off ch=1 n=d#4 v=64
46970 Off ch=1 n=d#5 v=64
47010 Par ch=1 c=7 v=60
47010 On ch=1 n=f5 v=60
47010 On ch=1 n=d#5 v=60
47010 On ch=1 n=b4 v=60
47010 On ch=1 n=f4 v=60
47210 Off ch=1 n=f4 v=64
47210 Off ch=1 n=b4 v=64
47210 Off ch=1 n=d#5 v=64
47210 Off ch=1 n=f5 v=64
47250 On ch=1 n=f6 v=60
47250 On ch=1 n=d#6 v=60
47250 On ch=1 n=b5 v=60
47250 On ch=1 n=f5 v=60
47370 Off ch=1 n=f5 v=64
47370 Off ch=1 n=b5 v=64
47370 Off ch=1 n=d#6 v=64
47370 Off ch=1 n=f6 v=64
47370 On ch=1 n=d#6 v=60
47370 On ch=1 n=d#5 v=60
47490 Off ch=1 n=d#5 v=64
47490 Off ch=1 n=d#6 v=64
47490 On ch=1 n=f6 v=60
47490 On ch=1 n=d6 v=60
47490 On ch=1 n=a#5 v=60
47490 On ch=1 n=f5 v=60
47610 Off ch=1 n=f5 v=64
47610 Off ch=1 n=a#5 v=64
47610 Off ch=1 n=d6 v=64
47610 Off ch=1 n=f6 v=64
47610 On ch=1 n=f#6 v=60
47610 On ch=1 n=f#5 v=60
47727 Off ch=1 n=f#5 v=64
47727 Off ch=1 n=f#6 v=64
47730 On ch=1 n=f#5 v=60
47730 On ch=1 n=f#4 v=60
47801 Par ch=1 c=7 v=61
47847 Off ch=1 n=f#4 v=64
47847 Off ch=1 n=f#5 v=64
47850 On ch=1 n=f#5 v=60
47850 On ch=1 n=f#4 v=60
47873 Par ch=1 c=7 v=62
47945 Par ch=1 c=7 v=63
47967 Off ch=1 n=f#4 v=64
47967 Off ch=1 n=f#5 v=64
47970 On ch=1 n=f#5 v=60
47970 On ch=1 n=f#4 v=60
48017 Par ch=1 c=7 v=64
48087 Off ch=1 n=f#4 v=64
48087 Off ch=1 n=f#5 v=64
48088 Par ch=1 c=7 v=65
48090 On ch=1 n=f#5 v=60
48090 On ch=1 n=f#4 v=60
48161 Par ch=1 c=7 v=66
48207 Off ch=1 n=f#4 v=64
48207 Off ch=1 n=f#5 v=64
48210 On ch=1 n=f#5 v=60
48210 On ch=1 n=f#4 v=60
48233 Par ch=1 c=7 v=67
48305 Par ch=1 c=7 v=68
48377 Par ch=1 c=7 v=69
48410 Off ch=1 n=f#4 v=64
48410 Off ch=1 n=f#5 v=64
48448 Par ch=1 c=7 v=70
48450 Par ch=1 c=7 v=70
48450 On ch=1 n=g#5 v=70
48450 On ch=1 n=f#5 v=70
48450 On ch=1 n=d5 v=70
48450 On ch=1 n=g#4 v=70
48521 Par ch=1 c=7 v=71
48593 Par ch=1 c=7 v=72
48650 Off ch=1 n=g#4 v=64
48650 Off ch=1 n=d5 v=64
48650 Off ch=1 n=f#5 v=64
48650 Off ch=1 n=g#5 v=64
48665 Par ch=1 c=7 v=73
48690 On ch=1 n=g#6 v=70
48690 On ch=1 n=f#6 v=70
48690 On ch=1 n=d6 v=70
48690 On ch=1 n=g#5 v=70
48737 Par ch=1 c=7 v=74
48807 Off ch=1 n=g#5 v=64
48807 Off ch=1 n=d6 v=64
48807 Off ch=1 n=f#6 v=64
48807 Off ch=1 n=g#6 v=64
48808 Par ch=1 c=7 v=75
48810 On ch=1 n=f#6 v=70
48810 On ch=1 n=f#5 v=70
48881 Par ch=1 c=7 v=76
48927 Off ch=1 n=f#5 v=64
48927 Off ch=1 n=f#6 v=64
48930 On ch=1 n=g#6 v=70
48930 On ch=1 n=f6 v=70
48930 On ch=1 n=c#6 v=70
48930 On ch=1 n=g#5 v=70
48953 Par ch=1 c=7 v=77
49025 Par ch=1 c=7 v=78
49047 Off ch=1 n=g#5 v=64
49047 Off ch=1 n=c#6 v=64
49047 Off ch=1 n=f6 v=64
49047 Off ch=1 n=g#6 v=64
49050 On ch=1 n=a6 v=70
49050 On ch=1 n=a5 v=70
49097 Par ch=1 c=7 v=79
49167 Off ch=1 n=a5 v=64
49167 Off ch=1 n=a6 v=64
49168 Par ch=1 c=7 v=80
49170 Par ch=1 c=7 v=80
49170 On ch=1 n=a5 v=80
49170 On ch=1 n=a4 v=80
49241 Par ch=1 c=7 v=81
49287 Off ch=1 n=a4 v=64
49287 Off ch=1 n=a5 v=64
49290 On ch=1 n=a5 v=80
49290 On ch=1 n=a4 v=80
49313 Par ch=1 c=7 v=82
49385 Par ch=1 c=7 v=83
49407 Off ch=1 n=a4 v=64
49407 Off ch=1 n=a5 v=64
49410 On ch=1 n=a5 v=80
49410 On ch=1 n=a4 v=80
49457 Par ch=1 c=7 v=84
49527 Off ch=1 n=a4 v=64
49527 Off ch=1 n=a5 v=64
49528 Par ch=1 c=7 v=85
49530 On ch=1 n=a5 v=80
49530 On ch=1 n=a4 v=80
49601 Par ch=1 c=7 v=86
49647 Off ch=1 n=a4 v=64
49647 Off ch=1 n=a5 v=64
49650 On ch=1 n=a5 v=80
49650 On ch=1 n=a4 v=80
49673 Par ch=1 c=7 v=87
49745 Par ch=1 c=7 v=88
49817 Par ch=1 c=7 v=89
49850 Off ch=1 n=a4 v=64
49850 Off ch=1 n=a5 v=64
49888 Par ch=1 c=7 v=90
49890 Par ch=1 c=7 v=90
49890 On ch=1 n=a#5 v=90
49890 On ch=1 n=g#5 v=90
49890 On ch=1 n=f5 v=90
49890 On ch=1 n=a#4 v=90
49890 On ch=1 n=g#4 v=90
49961 Par ch=1 c=7 v=91
50007 Off ch=1 n=g#4 v=64
50007 Off ch=1 n=a#4 v=64
50007 Off ch=1 n=f5 v=64
50007 Off ch=1 n=g#5 v=64
50007 Off ch=1 n=a#5 v=64
50010 On ch=1 n=a#5 v=90
50010 On ch=1 n=g#5 v=90
50010 On ch=1 n=f5 v=90
50010 On ch=1 n=a#4 v=90
50010 On ch=1 n=g#4 v=90
50033 Par ch=1 c=7 v=92
50105 Par ch=1 c=7 v=93
50127 Off ch=1 n=g#4 v=64
50127 Off ch=1 n=a#4 v=64
50127 Off ch=1 n=f5 v=64
50127 Off ch=1 n=g#5 v=64
50127 Off ch=1 n=a#5 v=64
50130 On ch=1 n=a#5 v=90
50130 On ch=1 n=g#5 v=90
50130 On ch=1 n=f5 v=90
50130 On ch=1 n=a#4 v=90
50130 On ch=1 n=g#4 v=90
50177 Par ch=1 c=7 v=94
50247 Off ch=1 n=g#4 v=64
50247 Off ch=1 n=a#4 v=64
50247 Off ch=1 n=f5 v=64
50247 Off ch=1 n=g#5 v=64
50247 Off ch=1 n=a#5 v=64
50248 Par ch=1 c=7 v=95
50250 On ch=1 n=a#5 v=90
50250 On ch=1 n=g#5 v=90
50250 On ch=1 n=f5 v=90
50250 On ch=1 n=a#4 v=90
50250 On ch=1 n=g#4 v=90
50321 Par ch=1 c=7 v=96
50367 Off ch=1 n=g#4 v=64
50367 Off ch=1 n=a#4 v=64
50367 Off ch=1 n=f5 v=64
50367 Off ch=1 n=g#5 v=64
50367 Off ch=1 n=a#5 v=64
50370 On ch=1 n=a#5 v=90
50370 On ch=1 n=g#5 v=90
50370 On ch=1 n=d5 v=90
50370 On ch=1 n=a#4 v=90
50370 On ch=1 n=g#4 v=90
50393 Par ch=1 c=7 v=97
50465 Par ch=1 c=7 v=98
50537 Par ch=1 c=7 v=99
50570 Off ch=1 n=g#4 v=64
50570 Off ch=1 n=a#4 v=64
50570 Off ch=1 n=d5 v=64
50570 Off ch=1 n=g#5 v=64
50570 Off ch=1 n=a#5 v=64
50608 Par ch=1 c=7 v=100
50610 Par ch=1 c=7 v=100
50610 On ch=1 n=a#5 v=100
50610 On ch=1 n=f#5 v=100
50610 On ch=1 n=d#5 v=100
50610 On ch=1 n=a#4 v=100
50681 Par ch=1 c=7 v=101
50727 Off ch=1 n=a#4 v=64
50727 Off ch=1 n=d#5 v=64
50727 Off ch=1 n=f#5 v=64
50727 Off ch=1 n=a#5 v=64
50730 On ch=1 n=a#5 v=100
50730 On ch=1 n=f#5 v=100
50730 On ch=1 n=d#5 v=100
50730 On ch=1 n=a#4 v=100
50753 Par ch=1 c=7 v=102
50825 Par ch=1 c=7 v=103
50847 Off ch=1 n=a#4 v=64
50847 Off ch=1 n=d#5 v=64
50847 Off ch=1 n=f#5 v=64
50847 Off ch=1 n=a#5 v=64
50850 On ch=1 n=a#5 v=100
50850 On ch=1 n=f#5 v=100
50850 On ch=1 n=d#5 v=100
50897 Par ch=1 c=7 v=104
50967 Off ch=1 n=d#5 v=64
50967 Off ch=1 n=f#5 v=64
50967 Off ch=1 n=a#5 v=64
50968 Par ch=1 c=7 v=105
50970 On ch=1 n=a#5 v=100
50970 On ch=1 n=f#5 v=100
50970 On ch=1 n=d#5 v=100
51041 Par ch=1 c=7 v=106
51087 Off ch=1 n=d#5 v=64
51087 Off ch=1 n=f#5 v=64
51087 Off ch=1 n=a#5 v=64
51090 On ch=1 n=a#5 v=100
51090 On ch=1 n=f#5 v=100
51090 On ch=1 n=d#5 v=100
51113 Par ch=1 c=7 v=107
51185 Par ch=1 c=7 v=108
51257 Par ch=1 c=7 v=109
51290 Off ch=1 n=d#5 v=64
51290 Off ch=1 n=f#5 v=64
51290 Off ch=1 n=a#5 v=64
51328 Par ch=1 c=7 v=110
51330 Par ch=1 c=7 v=110
51330 On ch=1 n=g#5 v=110
51330 On ch=1 n=d#5 v=110
51330 On ch=1 n=g#4 v=110
51530 Off ch=1 n=g#4 v=64
51530 Off ch=1 n=d#5 v=64
51530 Off ch=1 n=g#5 v=64
51570 On ch=1 n=d#6 v=110
51570 On ch=1 n=g#5 v=110
51570 On ch=1 n=d#5 v=110
51770 Off ch=1 n=d#5 v=64
51770 Off ch=1 n=g#5 v=64
51770 Off ch=1 n=d#6 v=64
51810 On ch=1 n=f5 v=110
51810 On ch=1 n=b5 v=110
51810 On ch=1 n=d#6 v=110
51810 On ch=1 n=f6 v=110
52010 Off ch=1 n=f6 v=64
52010 Off ch=1 n=d#6 v=64
52010 Off ch=1 n=b5 v=64
52010 Off ch=1 n=f5 v=64
52050 Par ch=1 c=7 v=127
52050 On ch=1 n=f#5 v=127
52050 On ch=1 n=a#5 v=127
52050 On ch=1 n=d#6 v=127
52050 On ch=1 n=f#6 v=127
52250 Off ch=1 n=f#6 v=64
52250 Off ch=1 n=d#6 v=64
52250 Off ch=1 n=a#5 v=64
52250 Off ch=1 n=f#5 v=64
52290 On ch=1 n=d#7 v=127
52290 On ch=1 n=d#8 v=127
52490 Off ch=1 n=d#8 v=64
52490 Off ch=1 n=d#7 v=64
52530 On ch=1 n=b5 v=127
52530 On ch=1 n=d#6 v=127
52530 On ch=1 n=b6 v=127
52730 Off ch=1 n=b6 v=64
52730 Off ch=1 n=d#6 v=64
52730 Off ch=1 n=b5 v=64
52770 On ch=1 n=b6 v=127
52770 On ch=1 n=b7 v=127
52970 Off ch=1 n=b7 v=64
52970 Off ch=1 n=b6 v=64
53010 On ch=1 n=g#5 v=127
53010 On ch=1 n=b5 v=127
53010 On ch=1 n=d#6 v=127
53010 On ch=1 n=g#6 v=127
53210 Off ch=1 n=g#6 v=64
53210 Off ch=1 n=d#6 v=64
53210 Off ch=1 n=b5 v=64
53210 Off ch=1 n=g#5 v=64
53250 On ch=1 n=g#6 v=127
53250 On ch=1 n=g#7 v=127
53450 Off ch=1 n=g#7 v=64
53450 Off ch=1 n=g#6 v=64
53490 On ch=1 n=f#5 v=127
53490 On ch=1 n=a#5 v=127
53490 On ch=1 n=d#6 v=127
53490 On ch=1 n=f#6 v=127
53690 Off ch=1 n=f#6 v=64
53690 Off ch=1 n=d#6 v=64
53690 Off ch=1 n=a#5 v=64
53690 Off ch=1 n=f#5 v=64
53730 On ch=1 n=f#6 v=127
53730 On ch=1 n=f#7 v=127
53930 Off ch=1 n=f#7 v=64
53930 Off ch=1 n=f#6 v=64
53970 On ch=1 n=f5 v=127
53970 On ch=1 n=a#5 v=127
53970 On ch=1 n=d#6 v=127
53970 On ch=1 n=f6 v=127
54170 Off ch=1 n=f6 v=64
54170 Off ch=1 n=d#6 v=64
54170 Off ch=1 n=a#5 v=64
54170 Off ch=1 n=f5 v=64
54210 On ch=1 n=f6 v=127
54210 On ch=1 n=f7 v=127
54410 Off ch=1 n=f7 v=64
54410 Off ch=1 n=f6 v=64
54450 On ch=1 n=f5 v=127
54450 On ch=1 n=a#5 v=127
54450 On ch=1 n=d6 v=127
54450 On ch=1 n=f6 v=127
54650 Off ch=1 n=f6 v=64
54650 Off ch=1 n=d6 v=64
54650 Off ch=1 n=a#5 v=64
54650 Off ch=1 n=f5 v=64
54690 On ch=1 n=d#6 v=127
54690 On ch=1 n=d#7 v=127
54890 Off ch=1 n=d#7 v=64
54890 Off ch=1 n=d#6 v=64
54930 On ch=1 n=d#6 v=127
54930 On ch=1 n=d#5 v=127
55590 Off ch=1 n=d#5 v=64
55590 Off ch=1 n=d#6 v=64
55650 On ch=1 n=a#4 v=127
55650 On ch=1 n=a#5 v=127
55850 Off ch=1 n=a#5 v=64
55850 Off ch=1 n=a#4 v=64
55890 On ch=1 n=b4 v=127
55890 On ch=1 n=b5 v=127
56007 Off ch=1 n=b5 v=64
56007 Off ch=1 n=b4 v=64
56010 On ch=1 n=a#4 v=127
56010 On ch=1 n=a#5 v=127
56127 Off ch=1 n=a#5 v=64
56127 Off ch=1 n=a#4 v=64
56130 On ch=1 n=f4 v=127
56130 On ch=1 n=f5 v=127
56247 Off ch=1 n=f5 v=64
56247 Off ch=1 n=f4 v=64
56250 On ch=1 n=f#4 v=127
56250 On ch=1 n=f#5 v=127
56367 Off ch=1 n=f#5 v=64
56367 Off ch=1 n=f#4 v=64
56370 On ch=1 n=d#5 v=127
56370 On ch=1 n=d#4 v=127
57290 Off ch=1 n=d#4 v=64
57290 Off ch=1 n=d#5 v=64
57810 Par ch=1 c=7 v=30
58050 On ch=1 n=a#4 v=30
58250 Off ch=1 n=a#4 v=64
58290 On ch=1 n=a#4 v=42
58730 Off ch=1 n=a#4 v=64
58770 On ch=1 n=a#4 v=30
58970 Off ch=1 n=a#4 v=64
59010 On ch=1 n=a#4 v=42
59450 Off ch=1 n=a#4 v=64
59490 On ch=1 n=a#4 v=30
59690 Off ch=1 n=a#4 v=64
59730 On ch=1 n=a#4 v=42
60170 Off ch=1 n=a#4 v=64
60210 On ch=1 n=a#4 v=30
60410 Off ch=1 n=a#4 v=64
60450 On ch=1 n=a#4 v=42
60650 Off ch=1 n=a#4 v=64
60690 Par ch=1 c=7 v=44
60690 On ch=1 n=a#5 v=44
60930 Off ch=1 n=a#5 v=64
60930 On ch=1 n=f5 v=44
60930 On ch=1 n=a#4 v=44
61170 Off ch=1 n=a#4 v=64
61170 Off ch=1 n=f5 v=64
61170 On ch=1 n=a#4 v=44
61170 On ch=1 n=f#5 v=44
61410 Off ch=1 n=f#5 v=64
61410 Off ch=1 n=a#4 v=64
61410 On ch=1 n=d#6 v=44
61650 On ch=1 n=f#5 v=44
61650 On ch=1 n=a#4 v=44
61830 Off ch=1 n=d#6 v=64
61890 Off ch=1 n=a#4 v=64
61890 Off ch=1 n=f#5 v=64
61890 On ch=1 n=a#4 v=44
61890 On ch=1 n=f#5 v=44
61890 On ch=1 n=c#6 v=44
62130 Off ch=1 n=c#6 v=64
62130 Off ch=1 n=f#5 v=64
62130 Off ch=1 n=a#4 v=64
62130 On ch=1 n=c#6 v=44
62370 Off ch=1 n=c#6 v=64
62370 On ch=1 n=f#5 v=44
62370 On ch=1 n=b4 v=44
62610 Off ch=1 n=b4 v=64
62610 Off ch=1 n=f#5 v=64
62610 On ch=1 n=b4 v=44
62610 On ch=1 n=f5 v=44
62610 On ch=1 n=g#5 v=44
62850 Off ch=1 n=g#5 v=64
62850 Off ch=1 n=f5 v=64
62850 Off ch=1 n=b4 v=64
62850 On ch=1 n=a#5 v=44
63090 On ch=1 n=f#5 v=44
63090 On ch=1 n=a#4 v=44
63330 Off ch=1 n=a#4 v=64
63330 Off ch=1 n=f#5 v=64
63330 On ch=1 n=a#4 v=44
63330 On ch=1 n=f#5 v=44
63570 Off ch=1 n=f#5 v=64
63570 Off ch=1 n=a#4 v=64
63570 On ch=1 n=a#5 v=44
63570 On ch=1 n=a#4 v=44
63570 On ch=1 n=f#5 v=44
63810 Off ch=1 n=f#5 v=64
63810 Off ch=1 n=a#4 v=64
63810 On ch=1 n=f#5 v=44
63810 On ch=1 n=c#5 v=44
64050 Off ch=1 n=c#5 v=64
64050 Off ch=1 n=f#5 v=64
64050 On ch=1 n=c#5 v=44
64050 On ch=1 n=f#5 v=44
64290 Off ch=1 n=f#5 v=64
64290 Off ch=1 n=c#5 v=64
64290 On ch=1 n=c#5 v=44
64290 On ch=1 n=f#5 v=44
64490 Off ch=1 n=f#5 v=64
64490 Off ch=1 n=c#5 v=64
64490 Off ch=1 n=a#5 v=64
64530 On ch=1 n=g#4 v=44
64730 Off ch=1 n=g#4 v=64
64730 Off ch=1 n=c#5 v=64
64770 On ch=1 n=f#4 v=44
64770 On ch=1 n=c#5 v=44
64970 Off ch=1 n=c#5 v=64
64970 Off ch=1 n=f#4 v=64
65010 On ch=1 n=f#4 v=44
65010 On ch=1 n=c#5 v=44
65210 Off ch=1 n=c#5 v=64
65210 Off ch=1 n=f#4 v=64
65250 On ch=1 n=g#4 v=44
65250 On ch=1 n=c#5 v=44
65450 Off ch=1 n=c#5 v=64
65450 Off ch=1 n=g#4 v=64
65490 On ch=1 n=f#4 v=44
65490 On ch=1 n=c#5 v=44
65690 Off ch=1 n=c#5 v=64
65690 Off ch=1 n=f#4 v=64
65730 On ch=1 n=f#4 v=44
65730 On ch=1 n=c#5 v=44
65930 Off ch=1 n=c#5 v=64
65930 Off ch=1 n=f#4 v=64
65970 On ch=1 n=g#4 v=44
65970 On ch=1 n=c#5 v=44
66170 Off ch=1 n=c#5 v=64
66170 Off ch=1 n=g#4 v=64
66210 On ch=1 n=f#4 v=44
66210 On ch=1 n=c#5 v=44
66410 Off ch=1 n=c#5 v=64
66410 Off ch=1 n=f#4 v=64
66450 Par ch=1 c=7 v=56
66450 On ch=1 n=c#6 v=56
66690 Off ch=1 n=c#6 v=64
66690 On ch=1 n=a5 v=56
66690 On ch=1 n=c#5 v=56
66930 Off ch=1 n=c#5 v=64
66930 Off ch=1 n=a5 v=64
66930 On ch=1 n=c#5 v=56
66930 On ch=1 n=a#5 v=56
67170 Off ch=1 n=a#5 v=64
67170 Off ch=1 n=c#5 v=64
67170 On ch=1 n=f#6 v=56
67410 On ch=1 n=a#5 v=56
67410 On ch=1 n=c#5 v=56
67590 Off ch=1 n=f#6 v=64
67650 Off ch=1 n=c#5 v=64
67650 Off ch=1 n=a#5 v=64
67650 On ch=1 n=c#5 v=56
67650 On ch=1 n=a#5 v=56
67650 On ch=1 n=f6 v=56
67890 Off ch=1 n=f6 v=64
67890 Off ch=1 n=a#5 v=64
67890 Off ch=1 n=c#5 v=64
67890 On ch=1 n=f6 v=56
68130 Off ch=1 n=f6 v=64
68130 On ch=1 n=a#5 v=56
68130 On ch=1 n=d#5 v=56
68370 Off ch=1 n=d#5 v=64
68370 Off ch=1 n=a#5 v=64
68370 On ch=1 n=d#5 v=56
68370 On ch=1 n=a5 v=56
68370 On ch=1 n=c6 v=56
68610 Off ch=1 n=c6 v=64
68610 Off ch=1 n=a5 v=64
68610 Off ch=1 n=d#5 v=64
68610 On ch=1 n=d#6 v=56
68850 Off ch=1 n=d#6 v=64
68850 On ch=1 n=c#6 v=56
68850 On ch=1 n=a#5 v=56
68850 On ch=1 n=c#5 v=56
69090 Off ch=1 n=c#5 v=64
69090 Off ch=1 n=a#5 v=64
69090 On ch=1 n=c#5 v=56
69090 On ch=1 n=a#5 v=56
69330 Off ch=1 n=a#5 v=64
69330 Off ch=1 n=c#5 v=64
69330 On ch=1 n=c#5 v=56
69330 On ch=1 n=a#5 v=56
69530 Off ch=1 n=a#5 v=64
69530 Off ch=1 n=c#5 v=64
69570 On ch=1 n=f5 v=56
69570 On ch=1 n=a#5 v=56
69770 Off ch=1 n=a#5 v=64
69770 Off ch=1 n=f5 v=64
69810 On ch=1 n=f5 v=56
69810 On ch=1 n=a#5 v=56
69990 Off ch=1 n=c#6 v=64
70010 Off ch=1 n=a#5 v=64
70010 Off ch=1 n=f5 v=64
70050 On ch=1 n=f5 v=55
70050 On ch=1 n=a#5 v=55
70110 Par ch=1 c=7 v=55
70250 Off ch=1 n=a#5 v=64
70250 Off ch=1 n=f5 v=64
70290 On ch=1 n=c5 v=54
70290 On ch=1 n=f5 v=54
70410 Par ch=1 c=7 v=54
70490 Off ch=1 n=f5 v=64
70490 Off ch=1 n=c5 v=64
70530 On ch=1 n=a#4 v=53
70530 On ch=1 n=f5 v=53
70710 Par ch=1 c=7 v=53
70730 Off ch=1 n=f5 v=64
70730 Off ch=1 n=a#4 v=64
70770 On ch=1 n=a#4 v=52
70770 On ch=1 n=f5 v=52
70970 Off ch=1 n=f5 v=64
70970 Off ch=1 n=a#4 v=64
71010 Par ch=1 c=7 v=52
71010 On ch=1 n=c5 v=51
71010 On ch=1 n=f5 v=51
71210 Off ch=1 n=f5 v=64
71210 Off ch=1 n=c5 v=64
71250 On ch=1 n=a#4 v=50
71250 On ch=1 n=f5 v=50
71310 Par ch=1 c=7 v=51
71450 Off ch=1 n=f5 v=64
71450 Off ch=1 n=a#4 v=64
71490 On ch=1 n=a#4 v=49
71490 On ch=1 n=f5 v=49
71610 Par ch=1 c=7 v=50
71690 Off ch=1 n=f5 v=64
71690 Off ch=1 n=a#4 v=64
71730 On ch=1 n=c5 v=48
71730 On ch=1 n=f5 v=48
71910 Par ch=1 c=7 v=49
71930 Off ch=1 n=f5 v=64
71930 Off ch=1 n=c5 v=64
71970 On ch=1 n=a#4 v=47
71970 On ch=1 n=f5 v=47
72170 Off ch=1 n=f5 v=64
72170 Off ch=1 n=a#4 v=64
72210 Par ch=1 c=7 v=48
72210 On ch=1 n=a#5 v=48
72410 Off ch=1 n=a#5 v=64
72450 On ch=1 n=a#4 v=48
72450 On ch=1 n=f5 v=48
72650 Off ch=1 n=f5 v=64
72650 Off ch=1 n=a#4 v=64
72690 On ch=1 n=a#4 v=48
72690 On ch=1 n=f#5 v=48
72890 Off ch=1 n=f#5 v=64
72890 Off ch=1 n=a#4 v=64
72930 On ch=1 n=d#6 v=48
73170 On ch=1 n=a#4 v=48
73170 On ch=1 n=f#5 v=48
73350 Off ch=1 n=d#6 v=64
73370 Off ch=1 n=f#5 v=64
73370 Off ch=1 n=a#4 v=64
73410 On ch=1 n=a#4 v=48
73410 On ch=1 n=f#5 v=48
73410 On ch=1 n=c#6 v=48
73610 Off ch=1 n=c#6 v=64
73610 Off ch=1 n=f#5 v=64
73610 Off ch=1 n=a#4 v=64
73650 On ch=1 n=c#6 v=48
73850 Off ch=1 n=c#6 v=64
73890 On ch=1 n=b4 v=48
73890 On ch=1 n=f#5 v=48
74090 Off ch=1 n=f#5 v=64
74090 Off ch=1 n=b4 v=64
74130 On ch=1 n=b4 v=48
74130 On ch=1 n=f5 v=48
74130 On ch=1 n=g#5 v=48
74330 Off ch=1 n=g#5 v=64
74330 Off ch=1 n=f5 v=64
74330 Off ch=1 n=b4 v=64
74370 On ch=1 n=a#5 v=48
74610 On ch=1 n=a#4 v=48
74610 On ch=1 n=f#5 v=48
74810 Off ch=1 n=f#5 v=64
74810 Off ch=1 n=a#4 v=64
74850 On ch=1 n=a#4 v=48
74850 On ch=1 n=f#5 v=48
75050 Off ch=1 n=f#5 v=64
75050 Off ch=1 n=a#4 v=64
75090 On ch=1 n=a#4 v=48
75090 On ch=1 n=f#5 v=48
75290 Off ch=1 n=f#5 v=64
75290 Off ch=1 n=a#4 v=64
75330 On ch=1 n=c#5 v=48
75330 On ch=1 n=f#5 v=48
75530 Off ch=1 n=f#5 v=64
75530 Off ch=1 n=c#5 v=64
75570 On ch=1 n=c#5 v=48
75570 On ch=1 n=f#5 v=48
75770 Off ch=1 n=f#5 v=64
75770 Off ch=1 n=c#5 v=64
75810 On ch=1 n=c#5 v=48
75810 On ch=1 n=f#5 v=48
76010 Off ch=1 n=f#5 v=64
76010 Off ch=1 n=c#5 v=64
76010 Off ch=1 n=a#5 v=64
76050 On ch=1 n=g#4 v=48
76050 On ch=1 n=c#5 v=48
76250 Off ch=1 n=c#5 v=64
76250 Off ch=1 n=g#4 v=64
76290 On ch=1 n=f#4 v=48
76290 On ch=1 n=c#5 v=48
76490 Off ch=1 n=c#5 v=64
76490 Off ch=1 n=f#4 v=64
76530 On ch=1 n=f#4 v=48
76530 On ch=1 n=c#5 v=48
76730 Off ch=1 n=c#5 v=64
76730 Off ch=1 n=f#4 v=64
76770 On ch=1 n=g#4 v=48
76770 On ch=1 n=c#5 v=48
76970 Off ch=1 n=c#5 v=64
76970 Off ch=1 n=g#4 v=64
77010 On ch=1 n=f#4 v=48
77010 On ch=1 n=c#5 v=48
77210 Off ch=1 n=c#5 v=64
77210 Off ch=1 n=f#4 v=64
77250 On ch=1 n=f#4 v=48
77250 On ch=1 n=c#5 v=48
77450 Off ch=1 n=c#5 v=64
77450 Off ch=1 n=f#4 v=64
77490 On ch=1 n=g#4 v=48
77490 On ch=1 n=c#5 v=48
77690 Off ch=1 n=c#5 v=64
77690 Off ch=1 n=g#4 v=64
77730 On ch=1 n=a#4 v=48
77730 On ch=1 n=c#5 v=48
77930 Off ch=1 n=c#5 v=64
77930 Off ch=1 n=a#4 v=64
77970 On ch=1 n=a#5 v=48
78210 Off ch=1 n=a#5 v=64
78210 On ch=1 n=a5 v=48
78210 On ch=1 n=f5 v=48
78210 On ch=1 n=a#4 v=48
78450 Off ch=1 n=a#4 v=64
78450 Off ch=1 n=f5 v=64
78450 Off ch=1 n=a5 v=64
78450 On ch=1 n=a#4 v=48
78450 On ch=1 n=f5 v=48
78690 Off ch=1 n=f5 v=64
78690 Off ch=1 n=a#4 v=64
78690 Off ch=1 n=a#5 v=64
78690 On ch=1 n=b5 v=48
78930 On ch=1 n=f5 v=48
78930 On ch=1 n=b4 v=48
79110 Off ch=1 n=b5 v=64
79170 Off ch=1 n=b4 v=64
79170 Off ch=1 n=f5 v=64
79170 On ch=1 n=c5 v=48
79170 On ch=1 n=f5 v=48
79170 On ch=1 n=c6 v=48
79410 Off ch=1 n=c6 v=64
79410 Off ch=1 n=f5 v=64
79410 Off ch=1 n=c5 v=64
79410 On ch=1 n=d6 v=48
79650 Off ch=1 n=d6 v=64
79650 On ch=1 n=a#5 v=48
79650 On ch=1 n=d5 v=48
79890 Off ch=1 n=d5 v=64
79890 Off ch=1 n=a#5 v=64
79890 On ch=1 n=g5 v=48
79890 On ch=1 n=a#5 v=48
79890 On ch=1 n=g6 v=48
80130 Off ch=1 n=g6 v=64
80130 Off ch=1 n=a#5 v=64
80130 Off ch=1 n=g5 v=64
80130 On ch=1 n=f6 v=48
80370 On ch=1 n=f5 v=48
80370 On ch=1 n=a5 v=48
80570 Off ch=1 n=a5 v=64
80570 Off ch=1 n=f5 v=64
80610 On ch=1 n=f5 v=48
80610 On ch=1 n=a5 v=48
80790 Off ch=1 n=f6 v=64
80810 Off ch=1 n=a5 v=64
80810 Off ch=1 n=f5 v=64
80850 On ch=1 n=a#5 v=48
80862 Off ch=1 n=a#5 v=64
80865 On ch=1 n=c6 v=48
80877 Off ch=1 n=c6 v=64
80880 On ch=1 n=a#5 v=48
81087 Off ch=1 n=a#5 v=64
81090 On ch=1 n=a#4 v=48
81090 On ch=1 n=f5 v=48
81090 On ch=1 n=a5 v=48
81290 Off ch=1 n=a5 v=64
81290 Off ch=1 n=f5 v=64
81290 Off ch=1 n=a#4 v=64
81330 On ch=1 n=a#4 v=48
81330 On ch=1 n=f5 v=48
81330 On ch=1 n=a#5 v=48
81530 Off ch=1 n=a#5 v=64
81530 Off ch=1 n=f5 v=64
81530 Off ch=1 n=a#4 v=64
81570 On ch=1 n=b5 v=48
81810 On ch=1 n=b4 v=48
81810 On ch=1 n=f5 v=48
81990 Off ch=1 n=b5 v=64
82010 Off ch=1 n=f5 v=64
82010 Off ch=1 n=b4 v=64
82050 On ch=1 n=c5 v=48
82050 On ch=1 n=f5 v=48
82050 On ch=1 n=c6 v=48
82250 Off ch=1 n=c6 v=64
82250 Off ch=1 n=f5 v=64
82250 Off ch=1 n=c5 v=64
82290 On ch=1 n=c#6 v=48
82490 Off ch=1 n=c#6 v=64
82530 On ch=1 n=c#5 v=48
82530 On ch=1 n=a#5 v=48
82730 Off ch=1 n=a#5 v=64
82730 Off ch=1 n=c#5 v=64
82770 On ch=1 n=f#5 v=48
82770 On ch=1 n=a#5 v=48
82770 On ch=1 n=f#6 v=48
82970 Off ch=1 n=f#6 v=64
82970 Off ch=1 n=a#5 v=64
82970 Off ch=1 n=f#5 v=64
83010 Par ch=1 c=7 v=94
83010 On ch=1 n=f6 v=94
83210 Off ch=1 n=f6 v=64
83250 On ch=1 n=f5 v=94
83250 On ch=1 n=b5 v=94
83250 On ch=1 n=d#6 v=94
83450 Off ch=1 n=d#6 v=64
83450 Off ch=1 n=b5 v=64
83450 Off ch=1 n=f5 v=64
83490 On ch=1 n=f5 v=94
83490 On ch=1 n=b5 v=94
83490 On ch=1 n=c#6 v=94
83690 Off ch=1 n=c#6 v=64
83690 Off ch=1 n=b5 v=64
83690 Off ch=1 n=f5 v=64
83730 On ch=1 n=b5 v=94
83730 On ch=1 n=f5 v=94
83930 Off ch=1 n=f5 v=64
83970 On ch=1 n=f5 v=94
84026 Par ch=1 c=7 v=93
84083 Par ch=1 c=7 v=92
84141 Par ch=1 c=7 v=91
84170 Off ch=1 n=f5 v=64
84198 Par ch=1 c=7 v=90
84210 On ch=1 n=f5 v=93
84256 Par ch=1 c=7 v=89
84313 Par ch=1 c=7 v=88
84371 Par ch=1 c=7 v=87
84410 Off ch=1 n=f5 v=64
84428 Par ch=1 c=7 v=86
84450 On ch=1 n=f5 v=92
84486 Par ch=1 c=7 v=85
84543 Par ch=1 c=7 v=84
84601 Par ch=1 c=7 v=83
84650 Off ch=1 n=f5 v=64
84657 Par ch=1 c=7 v=82
84690 On ch=1 n=d#5 v=91
84715 Par ch=1 c=7 v=81
84772 Par ch=1 c=7 v=80
84830 Par ch=1 c=7 v=79
84887 Par ch=1 c=7 v=78
84890 Off ch=1 n=d#5 v=64
84930 On ch=1 n=f5 v=90
84945 Par ch=1 c=7 v=77
85002 Par ch=1 c=7 v=76
85060 Par ch=1 c=7 v=75
85117 Par ch=1 c=7 v=74
85127 Off ch=1 n=f5 v=64
85167 On ch=1 n=f5 v=89
85172 Par ch=1 c=7 v=73
85229 Par ch=1 c=7 v=72
85287 Par ch=1 c=7 v=71
85343 Par ch=1 c=7 v=70
85367 Off ch=1 n=f5 v=64
85400 Par ch=1 c=7 v=69
85407 On ch=1 n=d#5 v=88
85458 Par ch=1 c=7 v=68
85515 Par ch=1 c=7 v=67
85573 Par ch=1 c=7 v=66
85607 Off ch=1 n=d#5 v=64
85630 Par ch=1 c=7 v=65
85647 On ch=1 n=f5 v=87
85688 Par ch=1 c=7 v=64
85745 Par ch=1 c=7 v=63
85803 Par ch=1 c=7 v=62
85847 Off ch=1 n=f5 v=64
85857 Par ch=1 c=7 v=61
85884 On ch=1 n=f5 v=86
85915 Par ch=1 c=7 v=60
85971 Par ch=1 c=7 v=59
86029 Par ch=1 c=7 v=58
86084 Off ch=1 n=f5 v=64
86086 Par ch=1 c=7 v=57
86124 On ch=1 n=d#5 v=85
86144 Par ch=1 c=7 v=56
86201 Par ch=1 c=7 v=55
86259 Par ch=1 c=7 v=54
86316 Par ch=1 c=7 v=53
86324 Off ch=1 n=d#5 v=64
86364 On ch=1 n=f5 v=84
86374 Par ch=1 c=7 v=52
86431 Par ch=1 c=7 v=51
86489 Par ch=1 c=7 v=50
86544 Off ch=1 n=b5 v=64
86546 Par ch=1 c=7 v=49
86564 Off ch=1 n=f5 v=64
86604 Par ch=1 c=7 v=48
86604 On ch=1 n=a#5 v=48
86804 Off ch=1 n=a#5 v=64
86844 On ch=1 n=a#4 v=48
86844 On ch=1 n=f5 v=48
87044 Off ch=1 n=f5 v=64
87044 Off ch=1 n=a#4 v=64
87084 On ch=1 n=a#4 v=48
87084 On ch=1 n=f#5 v=48
87284 Off ch=1 n=f#5 v=64
87284 Off ch=1 n=a#4 v=64
87324 Par ch=1 c=7 v=64
87324 On ch=1 n=d#6 v=64
87564 On ch=1 n=a#4 v=64
87564 On ch=1 n=f#5 v=64
87744 Off ch=1 n=d#6 v=64
87764 Off ch=1 n=f#5 v=64
87764 Off ch=1 n=a#4 v=64
87804 On ch=1 n=a#4 v=64
87804 On ch=1 n=f#5 v=64
87804 On ch=1 n=c#6 v=64
88004 Off ch=1 n=c#6 v=64
88004 Off ch=1 n=f#5 v=64
88004 Off ch=1 n=a#4 v=64
88044 On ch=1 n=c#6 v=64
88244 Off ch=1 n=c#6 v=64
88284 On ch=1 n=b4 v=64
88284 On ch=1 n=f#5 v=64
88484 Off ch=1 n=f#5 v=64
88484 Off ch=1 n=b4 v=64
88524 On ch=1 n=b4 v=64
88524 On ch=1 n=f5 v=64
88524 On ch=1 n=g#5 v=64
88724 Off ch=1 n=g#5 v=64
88724 Off ch=1 n=f5 v=64
88724 Off ch=1 n=b4 v=64
88764 On ch=1 n=a#5 v=64
89004 On ch=1 n=a#4 v=64
89004 On ch=1 n=f#5 v=64
89204 Off ch=1 n=f#5 v=64
89204 Off ch=1 n=a#4 v=64
89244 On ch=1 n=a#4 v=64
89244 On ch=1 n=f#5 v=64
89444 Off ch=1 n=f#5 v=64
89444 Off ch=1 n=a#4 v=64
89484 On ch=1 n=a#4 v=64
89484 On ch=1 n=f#5 v=64
89664 Par ch=1 c=7 v=63
89684 Off ch=1 n=f#5 v=64
89684 Off ch=1 n=a#4 v=64
89724 On ch=1 n=c#5 v=63
89724 On ch=1 n=f#5 v=63
89844 Par ch=1 c=7 v=62
89924 Off ch=1 n=f#5 v=64
89924 Off ch=1 n=c#5 v=64
89964 On ch=1 n=c#5 v=62
89964 On ch=1 n=f#5 v=62
90024 Par ch=1 c=7 v=61
90164 Off ch=1 n=f#5 v=64
90164 Off ch=1 n=c#5 v=64
90204 Par ch=1 c=7 v=60
90204 On ch=1 n=c#5 v=61
90204 On ch=1 n=f#5 v=61
90384 Par ch=1 c=7 v=59
90404 Off ch=1 n=f#5 v=64
90404 Off ch=1 n=c#5 v=64
90404 Off ch=1 n=a#5 v=64
90444 On ch=1 n=g#4 v=60
90444 On ch=1 n=c#5 v=60
90564 Par ch=1 c=7 v=58
90644 Off ch=1 n=c#5 v=64
90644 Off ch=1 n=g#4 v=64
90684 On ch=1 n=f#4 v=59
90684 On ch=1 n=c#5 v=59
90744 Par ch=1 c=7 v=57
90884 Off ch=1 n=c#5 v=64
90884 Off ch=1 n=f#4 v=64
90924 Par ch=1 c=7 v=56
90924 On ch=1 n=f#4 v=58
90924 On ch=1 n=c#5 v=58
91104 Par ch=1 c=7 v=55
91124 Off ch=1 n=c#5 v=64
91124 Off ch=1 n=f#4 v=64
91164 On ch=1 n=g#4 v=57
91164 On ch=1 n=c#5 v=57
91284 Par ch=1 c=7 v=54
91364 Off ch=1 n=c#5 v=64
91364 Off ch=1 n=g#4 v=64
91404 On ch=1 n=f#4 v=56
91404 On ch=1 n=c#5 v=56
91464 Par ch=1 c=7 v=53
91604 Off ch=1 n=c#5 v=64
91604 Off ch=1 n=f#4 v=64
91644 Par ch=1 c=7 v=52
91644 On ch=1 n=f#4 v=55
91644 On ch=1 n=c#5 v=55
91824 Par ch=1 c=7 v=51
91844 Off ch=1 n=c#5 v=64
91844 Off ch=1 n=f#4 v=64
91884 On ch=1 n=g#4 v=54
91884 On ch=1 n=c#5 v=54
92004 Par ch=1 c=7 v=50
92084 Off ch=1 n=c#5 v=64
92084 Off ch=1 n=g#4 v=64
92124 On ch=1 n=a#4 v=53
92124 On ch=1 n=c#5 v=53
92184 Par ch=1 c=7 v=49
92324 Off ch=1 n=c#5 v=64
92324 Off ch=1 n=a#4 v=64
92364 Par ch=1 c=7 v=48
92364 Par ch=1 c=7 v=64
92364 On ch=1 n=b5 v=64
92564 Off ch=1 n=b5 v=64
92604 On ch=1 n=b4 v=64
92604 On ch=1 n=g5 v=64
92804 Off ch=1 n=g5 v=64
92804 Off ch=1 n=b4 v=64
92844 On ch=1 n=b4 v=64
92844 On ch=1 n=g#5 v=64
93044 Off ch=1 n=g#5 v=64
93044 Off ch=1 n=b4 v=64
93084 On ch=1 n=e6 v=64
93324 On ch=1 n=b4 v=64
93324 On ch=1 n=g5 v=64
93504 Off ch=1 n=e6 v=64
93524 Off ch=1 n=g5 v=64
93524 Off ch=1 n=b4 v=64
93564 On ch=1 n=b4 v=64
93564 On ch=1 n=g#5 v=64
93564 On ch=1 n=d#6 v=64
93764 Off ch=1 n=d#6 v=64
93764 Off ch=1 n=g#5 v=64
93764 Off ch=1 n=b4 v=64
93804 On ch=1 n=d#6 v=64
94004 Off ch=1 n=d#6 v=64
94044 On ch=1 n=c#5 v=64
94044 On ch=1 n=g#5 v=64
94244 Off ch=1 n=g#5 v=64
94244 Off ch=1 n=c#5 v=64
94284 On ch=1 n=c#5 v=64
94284 On ch=1 n=g5 v=64
94284 On ch=1 n=a#5 v=64
94484 Off ch=1 n=a#5 v=64
94484 Off ch=1 n=g5 v=64
94484 Off ch=1 n=c#5 v=64
94524 On ch=1 n=c#6 v=64
94724 Off ch=1 n=c#6 v=64
94764 On ch=1 n=b5 v=64
94764 On ch=1 n=b4 v=64
94764 On ch=1 n=g#5 v=64
94929 Par ch=1 c=7 v=63
94964 Off ch=1 n=g#5 v=64
94964 Off ch=1 n=b4 v=64
95004 On ch=1 n=b4 v=63
95004 On ch=1 n=g#5 v=63
95094 Par ch=1 c=7 v=62
95204 Off ch=1 n=g#5 v=64
95204 Off ch=1 n=b4 v=64
95244 On ch=1 n=b4 v=62
95244 On ch=1 n=g#5 v=62
95259 Par ch=1 c=7 v=61
95424 Par ch=1 c=7 v=60
95444 Off ch=1 n=g#5 v=64
95444 Off ch=1 n=b4 v=64
95484 On ch=1 n=d#5 v=61
95484 On ch=1 n=g#5 v=61
95589 Par ch=1 c=7 v=59
95684 Off ch=1 n=g#5 v=64
95684 Off ch=1 n=d#5 v=64
95724 On ch=1 n=d#5 v=60
95724 On ch=1 n=g#5 v=60
95754 Par ch=1 c=7 v=58
95919 Par ch=1 c=7 v=57
95924 Off ch=1 n=g#5 v=64
95924 Off ch=1 n=d#5 v=64
95964 On ch=1 n=d#5 v=59
95964 On ch=1 n=g#5 v=59
96084 Par ch=1 c=7 v=56
96164 Off ch=1 n=g#5 v=64
96164 Off ch=1 n=d#5 v=64
96164 Off ch=1 n=b5 v=64
96204 On ch=1 n=a#4 v=58
96204 On ch=1 n=d#5 v=58
96249 Par ch=1 c=7 v=55
96404 Off ch=1 n=d#5 v=64
96404 Off ch=1 n=a#4 v=64
96414 Par ch=1 c=7 v=54
96444 On ch=1 n=g#4 v=57
96444 On ch=1 n=d#5 v=57
96579 Par ch=1 c=7 v=53
96644 Off ch=1 n=d#5 v=64
96644 Off ch=1 n=g#4 v=64
96684 On ch=1 n=g#4 v=56
96684 On ch=1 n=d#5 v=56
96744 Par ch=1 c=7 v=52
96884 Off ch=1 n=d#5 v=64
96884 Off ch=1 n=g#4 v=64
96909 Par ch=1 c=7 v=51
96924 On ch=1 n=a#4 v=55
96924 On ch=1 n=d#5 v=55
97074 Par ch=1 c=7 v=50
97124 Off ch=1 n=d#5 v=64
97124 Off ch=1 n=a#4 v=64
97164 On ch=1 n=g#4 v=54
97164 On ch=1 n=d#5 v=54
97239 Par ch=1 c=7 v=49
97364 Off ch=1 n=d#5 v=64
97364 Off ch=1 n=g#4 v=64
97404 Par ch=1 c=7 v=48
97404 On ch=1 n=g#4 v=48
97404 On ch=1 n=d#5 v=48
97604 Off ch=1 n=d#5 v=64
97604 Off ch=1 n=g#4 v=64
97644 On ch=1 n=a#4 v=48
97644 On ch=1 n=d#5 v=48
97844 Off ch=1 n=d#5 v=64
97844 Off ch=1 n=a#4 v=64
97884 On ch=1 n=f#4 v=48
97884 On ch=1 n=b4 v=48
97884 On ch=1 n=d#5 v=48
98084 Off ch=1 n=d#5 v=64
98084 Off ch=1 n=b4 v=64
98084 Off ch=1 n=f#4 v=64
98124 On ch=1 n=f4 v=48
98124 On ch=1 n=b4 v=48
98124 On ch=1 n=c#5 v=48
98324 Off ch=1 n=c#5 v=64
98324 Off ch=1 n=b4 v=64
98324 Off ch=1 n=f4 v=64
98364 On ch=1 n=b4 v=48
98364 On ch=1 n=f5 v=48
98364 On ch=1 n=g#5 v=48
98564 Off ch=1 n=g#5 v=64
98564 Off ch=1 n=f5 v=64
98564 Off ch=1 n=b4 v=64
98604 On ch=1 n=b4 v=48
98604 On ch=1 n=f5 v=48
98604 On ch=1 n=a#5 v=48
98804 Off ch=1 n=a#5 v=64
98804 Off ch=1 n=f5 v=64
98804 Off ch=1 n=b4 v=64
98844 On ch=1 n=f#4 v=48
98844 On ch=1 n=b4 v=48
98844 On ch=1 n=f#5 v=48
99044 Off ch=1 n=b4 v=64
99044 Off ch=1 n=f#4 v=64
99084 On ch=1 n=f#4 v=48
99084 On ch=1 n=b4 v=48
99264 Off ch=1 n=f#5 v=64
99284 Off ch=1 n=b4 v=64
99284 Off ch=1 n=f#4 v=64
99324 On ch=1 n=f#4 v=48
99324 On ch=1 n=b4 v=48
99324 On ch=1 n=d#5 v=48
99524 Off ch=1 n=d#5 v=64
99524 Off ch=1 n=b4 v=64
99524 Off ch=1 n=f#4 v=64
99564 On ch=1 n=g#4 v=48
99564 On ch=1 n=b4 v=48
99564 On ch=1 n=c#5 v=48
99764 Off ch=1 n=c#5 v=64
99764 Off ch=1 n=b4 v=64
99764 Off ch=1 n=g#4 v=64
99804 On ch=1 n=b4 v=48
99804 On ch=1 n=f5 v=48
99804 On ch=1 n=g#5 v=48
100004 Off ch=1 n=g#5 v=64
100004 Off ch=1 n=f5 v=64
100004 Off ch=1 n=b4 v=64
100044 On ch=1 n=b4 v=48
100044 On ch=1 n=f5 v=48
100044 On ch=1 n=a#5 v=48
100244 Off ch=1 n=a#5 v=64
100244 Off ch=1 n=f5 v=64
100244 Off ch=1 n=b4 v=64
100284 On ch=1 n=f#4 v=48
100284 On ch=1 n=b4 v=48
100284 On ch=1 n=f#5 v=48
100484 Off ch=1 n=b4 v=64
100484 Off ch=1 n=f#4 v=64
100524 On ch=1 n=f#4 v=48
100524 On ch=1 n=b4 v=48
100704 Off ch=1 n=f#5 v=64
100724 Off ch=1 n=b4 v=64
100724 Off ch=1 n=f#4 v=64
100764 On ch=1 n=f#4 v=48
100764 On ch=1 n=b4 v=48
100764 On ch=1 n=d#5 v=48
100964 Off ch=1 n=d#5 v=64
100964 Off ch=1 n=b4 v=64
100964 Off ch=1 n=f#4 v=64
101004 On ch=1 n=g#4 v=48
101004 On ch=1 n=b4 v=48
101004 On ch=1 n=c#5 v=48
101204 Off ch=1 n=c#5 v=64
101204 Off ch=1 n=b4 v=64
101204 Off ch=1 n=g#4 v=64
101244 On ch=1 n=b4 v=48
101244 On ch=1 n=f5 v=48
101244 On ch=1 n=g#5 v=48
101304 Off ch=1 n=g#5 v=64
101304 Off ch=1 n=f5 v=64
101304 Off ch=1 n=b4 v=64
101484 On ch=1 n=b4 v=48
101484 On ch=1 n=f5 v=48
101484 On ch=1 n=a#5 v=48
101544 Off ch=1 n=a#5 v=64
101544 Off ch=1 n=f5 v=64
101544 Off ch=1 n=b4 v=64
101724 On ch=1 n=b4 v=48
101724 On ch=1 n=f5 v=48
101724 On ch=1 n=b5 v=48
101784 Off ch=1 n=b5 v=64
101784 Off ch=1 n=f5 v=64
101784 Off ch=1 n=b4 v=64
101964 On ch=1 n=c5 v=48
101964 On ch=1 n=f5 v=48
101964 On ch=1 n=c6 v=48
101995 Par ch=1 c=7 v=49
102024 Off ch=1 n=c6 v=64
102024 Off ch=1 n=f5 v=64
102024 Off ch=1 n=c5 v=64
102026 Par ch=1 c=7 v=50
102057 Par ch=1 c=7 v=51
102089 Par ch=1 c=7 v=52
102120 Par ch=1 c=7 v=53
102151 Par ch=1 c=7 v=54
102182 Par ch=1 c=7 v=55
102204 On ch=1 n=c#5 v=49
102204 On ch=1 n=f5 v=49
102204 On ch=1 n=c#6 v=49
102214 Par ch=1 c=7 v=56
102245 Par ch=1 c=7 v=57
102264 Off ch=1 n=c#6 v=64
102264 Off ch=1 n=f5 v=64
102264 Off ch=1 n=c#5 v=64
102276 Par ch=1 c=7 v=58
102307 Par ch=1 c=7 v=59
102339 Par ch=1 c=7 v=60
102370 Par ch=1 c=7 v=61
102401 Par ch=1 c=7 v=62
102432 Par ch=1 c=7 v=63
102444 On ch=1 n=d5 v=50
102444 On ch=1 n=f5 v=50
102444 On ch=1 n=d6 v=50
102464 Par ch=1 c=7 v=64
102495 Par ch=1 c=7 v=65
102504 Off ch=1 n=d6 v=64
102504 Off ch=1 n=f5 v=64
102504 Off ch=1 n=d5 v=64
102526 Par ch=1 c=7 v=66
102557 Par ch=1 c=7 v=67
102589 Par ch=1 c=7 v=68
102620 Par ch=1 c=7 v=69
102651 Par ch=1 c=7 v=70
102682 Par ch=1 c=7 v=71
102684 On ch=1 n=d#5 v=51
102684 On ch=1 n=f5 v=51
102684 On ch=1 n=d#6 v=51
102715 Par ch=1 c=7 v=72
102744 Off ch=1 n=d#6 v=64
102744 Off ch=1 n=f5 v=64
102744 Off ch=1 n=d#5 v=64
102746 Par ch=1 c=7 v=73
102777 Par ch=1 c=7 v=74
102809 Par ch=1 c=7 v=75
102840 Par ch=1 c=7 v=76
102871 Par ch=1 c=7 v=77
102902 Par ch=1 c=7 v=78
102924 On ch=1 n=b4 v=52
102924 On ch=1 n=c#5 v=52
102924 On ch=1 n=f5 v=52
102934 Par ch=1 c=7 v=79
102965 Par ch=1 c=7 v=80
102996 Par ch=1 c=7 v=81
103027 Par ch=1 c=7 v=82
103059 Par ch=1 c=7 v=83
103090 Par ch=1 c=7 v=84
103121 Par ch=1 c=7 v=85
103152 Par ch=1 c=7 v=86
103164 Off ch=1 n=f5 v=64
103164 Off ch=1 n=c#5 v=64
103164 Off ch=1 n=b4 v=64
103164 On ch=1 n=a#4 v=53
103164 On ch=1 n=c#5 v=53
103164 On ch=1 n=f#5 v=53
103184 Par ch=1 c=7 v=87
103215 Par ch=1 c=7 v=88
103246 Par ch=1 c=7 v=89
103277 Par ch=1 c=7 v=90
103309 Par ch=1 c=7 v=91
103340 Par ch=1 c=7 v=92
103364 Off ch=1 n=f#5 v=64
103364 Off ch=1 n=c#5 v=64
103364 Off ch=1 n=a#4 v=64
103371 Par ch=1 c=7 v=93
103402 Par ch=1 c=7 v=94
103404 Par ch=1 c=7 v=94
103404 Par ch=1 c=7 v=48
103884 On ch=1 n=g#5 v=48
103884 On ch=1 n=f#5 v=48
103884 On ch=1 n=c5 v=48
104604 Off ch=1 n=c5 v=64
104604 Off ch=1 n=f#5 v=64
104604 Off ch=1 n=g#5 v=64
104604 On ch=1 n=g#5 v=48
104604 On ch=1 n=f5 v=48
104604 On ch=1 n=c#5 v=48
105264 Off ch=1 n=c#5 v=64
105264 Off ch=1 n=f5 v=64
105264 Off ch=1 n=g#5 v=64
105324 On ch=1 n=g#5 v=48
105324 On ch=1 n=f#5 v=48
105324 On ch=1 n=c5 v=48
105804 Off ch=1 n=c5 v=64
105804 On ch=1 n=c#5 v=48
105924 Off ch=1 n=c#5 v=64
105924 On ch=1 n=d#5 v=48
105984 Off ch=1 n=f#5 v=64
105984 Off ch=1 n=g#5 v=64
106044 Off ch=1 n=d#5 v=64
106044 On ch=1 n=g#5 v=48
106044 On ch=1 n=e5 v=48
106244 Off ch=1 n=e5 v=64
106284 On ch=1 n=f5 v=48
106641 Off ch=1 n=g#5 v=64
106644 On ch=1 n=f6 v=48
106724 Off ch=1 n=f5 v=64
106761 Off ch=1 n=f6 v=64
106764 On ch=1 n=f6 v=48
106764 On ch=1 n=a5 v=48
106764 On ch=1 n=d#5 v=48
107244 Off ch=1 n=a5 v=64
107244 Off ch=1 n=f6 v=64
107244 On ch=1 n=a5 v=48
107424 Off ch=1 n=d#5 v=64
107484 Off ch=1 n=a5 v=64
107484 On ch=1 n=a#5 v=48
107484 On ch=1 n=c#5 v=48
107964 Off ch=1 n=a#5 v=64
107964 On ch=1 n=f5 v=48
107964 On ch=1 n=c#6 v=48
108144 Off ch=1 n=c#5 v=64
108204 Off ch=1 n=c#6 v=64
108204 Off ch=1 n=f5 v=64
108204 On ch=1 n=g5 v=48
108204 On ch=1 n=d#5 v=48
108204 On ch=1 n=c#5 v=48
108924 Off ch=1 n=c#5 v=64
108924 Off ch=1 n=d#5 v=64
108924 Off ch=1 n=g5 v=64
108924 On ch=1 n=c5 v=48
108924 On ch=1 n=d#5 v=48
108924 On ch=1 n=g#5 v=48
109344 Off ch=1 n=g#5 v=64
109344 Off ch=1 n=d#5 v=64
109344 Off ch=1 n=c5 v=64
109404 On ch=1 n=c#5 v=48
109404 On ch=1 n=f5 v=48
109404 On ch=1 n=g#5 v=48
109644 Off ch=1 n=g#5 v=64
109644 Off ch=1 n=f5 v=64
109644 Off ch=1 n=c#5 v=64
109644 On ch=1 n=g#5 v=48
109644 On ch=1 n=f#5 v=48
109644 On ch=1 n=c5 v=48
110304 Off ch=1 n=c5 v=64
110304 Off ch=1 n=f#5 v=64
110304 Off ch=1 n=g#5 v=64
110364 On ch=1 n=g#5 v=48
110364 On ch=1 n=f5 v=48
110364 On ch=1 n=c#5 v=48
110784 Off ch=1 n=c#5 v=64
110844 On ch=1 n=g#4 v=48
111024 Off ch=1 n=f5 v=64
111024 Off ch=1 n=g#5 v=64
111044 Off ch=1 n=g#4 v=64
111084 On ch=1 n=g#5 v=48
111084 On ch=1 n=f#5 v=48
111084 On ch=1 n=c5 v=48
111284 Off ch=1 n=c5 v=64
111324 On ch=1 n=a#4 v=48
111441 Off ch=1 n=a#4 v=64
111444 On ch=1 n=g#4 v=48
111561 Off ch=1 n=g#4 v=64
111564 On ch=1 n=c#5 v=48
111681 Off ch=1 n=c#5 v=64
111684 On ch=1 n=d#5 v=48
111744 Off ch=1 n=f#5 v=64
111744 Off ch=1 n=g#5 v=64
111801 Off ch=1 n=d#5 v=64
111804 On ch=1 n=g#5 v=48
111804 On ch=1 n=f5 v=48
112224 Off ch=1 n=f5 v=64
112284 On ch=1 n=e5 v=48
112464 Off ch=1 n=g#5 v=64
112484 Off ch=1 n=e5 v=64
112524 On ch=1 n=d#5 v=48
112524 On ch=1 n=g#5 v=48
112944 Off ch=1 n=g#5 v=64
113004 On ch=1 n=f#5 v=48
113184 Off ch=1 n=d#5 v=64
113204 Off ch=1 n=f#5 v=64
113244 On ch=1 n=d5 v=48
113244 On ch=1 n=f#5 v=48
113484 Off ch=1 n=d5 v=64
113484 On ch=1 n=c#5 v=48
113664 Off ch=1 n=f#5 v=64
113724 On ch=1 n=d#5 v=48
113724 On ch=1 n=c#6 v=48
113924 Off ch=1 n=c#6 v=64
113924 Off ch=1 n=d#5 v=64
113924 Off ch=1 n=c#5 v=64
113964 On ch=1 n=c#6 v=48
113964 On ch=1 n=f5 v=48
113964 On ch=1 n=c#5 v=48
114624 Off ch=1 n=c#5 v=64
114624 Off ch=1 n=f5 v=64
114624 Off ch=1 n=c#6 v=64
114684 On ch=1 n=f5 v=48
114684 On ch=1 n=g#5 v=48
114729 Par ch=1 c=7 v=49
114774 Par ch=1 c=7 v=50
114819 Par ch=1 c=7 v=51
114864 Par ch=1 c=7 v=52
114909 Par ch=1 c=7 v=53
114954 Par ch=1 c=7 v=54
114999 Par ch=1 c=7 v=55
115044 Par ch=1 c=7 v=56
115089 Par ch=1 c=7 v=57
115104 Off ch=1 n=g#5 v=64
115134 Par ch=1 c=7 v=58
115164 On ch=1 n=a5 v=49
115179 Par ch=1 c=7 v=59
115224 Par ch=1 c=7 v=60
115269 Par ch=1 c=7 v=61
115314 Par ch=1 c=7 v=62
115344 Off ch=1 n=f5 v=64
115359 Par ch=1 c=7 v=63
115364 Off ch=1 n=a5 v=64
115404 Par ch=1 c=7 v=64
115404 On ch=1 n=a#5 v=64
115604 Off ch=1 n=a#5 v=64
115644 On ch=1 n=a#4 v=64
115644 On ch=1 n=f5 v=64
115844 Off ch=1 n=f5 v=64
115844 Off ch=1 n=a#4 v=64
115884 On ch=1 n=a#4 v=64
115884 On ch=1 n=f#5 v=64
116084 Off ch=1 n=f#5 v=64
116084 Off ch=1 n=a#4 v=64
116124 Par ch=1 c=7 v=64
116124 On ch=1 n=d#6 v=64
116364 On ch=1 n=a#4 v=64
116364 On ch=1 n=f#5 v=64
116544 Off ch=1 n=d#6 v=64
116564 Off ch=1 n=f#5 v=64
116564 Off ch=1 n=a#4 v=64
116604 On ch=1 n=a#4 v=64
116604 On ch=1 n=f#5 v=64
116604 On ch=1 n=c#6 v=64
116804 Off ch=1 n=c#6 v=64
116804 Off ch=1 n=f#5 v=64
116804 Off ch=1 n=a#4 v=64
116844 On ch=1 n=c#6 v=64
117044 Off ch=1 n=c#6 v=64
117084 On ch=1 n=b4 v=64
117084 On ch=1 n=f#5 v=64
117284 Off ch=1 n=f#5 v=64
117284 Off ch=1 n=b4 v=64
117324 On ch=1 n=b4 v=64
117324 On ch=1 n=f5 v=64
117324 On ch=1 n=g#5 v=64
117524 Off ch=1 n=g#5 v=64
117524 Off ch=1 n=f5 v=64
117524 Off ch=1 n=b4 v=64
117564 On ch=1 n=a#5 v=64
117804 On ch=1 n=a#4 v=64
117804 On ch=1 n=f#5 v=64
118004 Off ch=1 n=f#5 v=64
118004 Off ch=1 n=a#4 v=64
118044 On ch=1 n=a#4 v=64
118044 On ch=1 n=f#5 v=64
118244 Off ch=1 n=f#5 v=64
118244 Off ch=1 n=a#4 v=64
118284 On ch=1 n=a#4 v=64
118284 On ch=1 n=f#5 v=64
118464 Par ch=1 c=7 v=63
118484 Off ch=1 n=f#5 v=64
118484 Off ch=1 n=a#4 v=64
118524 On ch=1 n=c#5 v=63
118524 On ch=1 n=f#5 v=63
118644 Par ch=1 c=7 v=62
118724 Off ch=1 n=f#5 v=64
118724 Off ch=1 n=c#5 v=64
118764 On ch=1 n=c#5 v=62
118764 On ch=1 n=f#5 v=62
118824 Par ch=1 c=7 v=61
118964 Off ch=1 n=f#5 v=64
118964 Off ch=1 n=c#5 v=64
119004 Par ch=1 c=7 v=60
119004 On ch=1 n=c#5 v=61
119004 On ch=1 n=f#5 v=61
119184 Par ch=1 c=7 v=59
119204 Off ch=1 n=f#5 v=64
119204 Off ch=1 n=c#5 v=64
119204 Off ch=1 n=a#5 v=64
119244 On ch=1 n=g#4 v=60
119244 On ch=1 n=c#5 v=60
119364 Par ch=1 c=7 v=58
119444 Off ch=1 n=c#5 v=64
119444 Off ch=1 n=g#4 v=64
119484 On ch=1 n=f#4 v=59
119484 On ch=1 n=c#5 v=59
119544 Par ch=1 c=7 v=57
119684 Off ch=1 n=c#5 v=64
119684 Off ch=1 n=f#4 v=64
119724 Par ch=1 c=7 v=56
119724 On ch=1 n=f#4 v=58
119724 On ch=1 n=c#5 v=58
119904 Par ch=1 c=7 v=55
119924 Off ch=1 n=c#5 v=64
119924 Off ch=1 n=f#4 v=64
119964 On ch=1 n=g#4 v=57
119964 On ch=1 n=c#5 v=57
120084 Par ch=1 c=7 v=54
120164 Off ch=1 n=c#5 v=64
120164 Off ch=1 n=g#4 v=64
120204 On ch=1 n=f#4 v=56
120204 On ch=1 n=c#5 v=56
120264 Par ch=1 c=7 v=53
120404 Off ch=1 n=c#5 v=64
120404 Off ch=1 n=f#4 v=64
120444 Par ch=1 c=7 v=52
120444 On ch=1 n=f#4 v=55
120444 On ch=1 n=c#5 v=55
120624 Par ch=1 c=7 v=51
120644 Off ch=1 n=c#5 v=64
120644 Off ch=1 n=f#4 v=64
120684 On ch=1 n=g#4 v=54
120684 On ch=1 n=c#5 v=54
120804 Par ch=1 c=7 v=50
120884 Off ch=1 n=c#5 v=64
120884 Off ch=1 n=g#4 v=64
120924 On ch=1 n=a#4 v=53
120924 On ch=1 n=c#5 v=53
120984 Par ch=1 c=7 v=49
121124 Off ch=1 n=c#5 v=64
121124 Off ch=1 n=a#4 v=64
121164 Par ch=1 c=7 v=48
121164 Par ch=1 c=7 v=64
121164 On ch=1 n=b5 v=64
121364 Off ch=1 n=b5 v=64
121404 On ch=1 n=b4 v=64
121404 On ch=1 n=g5 v=64
121604 Off ch=1 n=g5 v=64
121604 Off ch=1 n=b4 v=64
121644 On ch=1 n=b4 v=64
121644 On ch=1 n=g#5 v=64
121844 Off ch=1 n=g#5 v=64
121844 Off ch=1 n=b4 v=64
121884 On ch=1 n=e6 v=64
122124 On ch=1 n=b4 v=64
122124 On ch=1 n=g5 v=64
122304 Off ch=1 n=e6 v=64
122324 Off ch=1 n=g5 v=64
122324 Off ch=1 n=b4 v=64
122364 On ch=1 n=b4 v=64
122364 On ch=1 n=g#5 v=64
122364 On ch=1 n=d#6 v=64
122564 Off ch=1 n=d#6 v=64
122564 Off ch=1 n=g#5 v=64
122564 Off ch=1 n=b4 v=64
122604 On ch=1 n=d#6 v=64
122804 Off ch=1 n=d#6 v=64
122844 On ch=1 n=c#5 v=64
122844 On ch=1 n=g#5 v=64
123044 Off ch=1 n=g#5 v=64
123044 Off ch=1 n=c#5 v=64
123084 On ch=1 n=c#5 v=64
123084 On ch=1 n=g5 v=64
123084 On ch=1 n=a#5 v=64
123284 Off ch=1 n=a#5 v=64
123284 Off ch=1 n=g5 v=64
123284 Off ch=1 n=c#5 v=64
123324 On ch=1 n=c#6 v=64
123524 Off ch=1 n=c#6 v=64
123564 On ch=1 n=b5 v=64
123564 On ch=1 n=b4 v=64
123564 On ch=1 n=g#5 v=64
123729 Par ch=1 c=7 v=63
123764 Off ch=1 n=g#5 v=64
123764 Off ch=1 n=b4 v=64
123804 On ch=1 n=b4 v=63
123804 On ch=1 n=g#5 v=63
123894 Par ch=1 c=7 v=62
124004 Off ch=1 n=g#5 v=64
124004 Off ch=1 n=b4 v=64
124044 On ch=1 n=b4 v=62
124044 On ch=1 n=g#5 v=62
124059 Par ch=1 c=7 v=61
124224 Par ch=1 c=7 v=60
124244 Off ch=1 n=g#5 v=64
124244 Off ch=1 n=b4 v=64
124284 On ch=1 n=d#5 v=61
124284 On ch=1 n=g#5 v=61
124389 Par ch=1 c=7 v=59
124484 Off ch=1 n=g#5 v=64
124484 Off ch=1 n=d#5 v=64
124524 On ch=1 n=d#5 v=60
124524 On ch=1 n=g#5 v=60
124554 Par ch=1 c=7 v=58
124719 Par ch=1 c=7 v=57
124724 Off ch=1 n=g#5 v=64
124724 Off ch=1 n=d#5 v=64
124764 On ch=1 n=d#5 v=59
124764 On ch=1 n=g#5 v=59
124884 Par ch=1 c=7 v=56
124964 Off ch=1 n=g#5 v=64
124964 Off ch=1 n=d#5 v=64
124964 Off ch=1 n=b5 v=64
125004 On ch=1 n=a#4 v=58
125004 On ch=1 n=d#5 v=58
125049 Par ch=1 c=7 v=55
125204 Off ch=1 n=d#5 v=64
125204 Off ch=1 n=a#4 v=64
125214 Par ch=1 c=7 v=54
125244 On ch=1 n=g#4 v=57
125244 On ch=1 n=d#5 v=57
125379 Par ch=1 c=7 v=53
125444 Off ch=1 n=d#5 v=64
125444 Off ch=1 n=g#4 v=64
125484 On ch=1 n=g#4 v=56
125484 On ch=1 n=d#5 v=56
125544 Par ch=1 c=7 v=52
125684 Off ch=1 n=d#5 v=64
125684 Off ch=1 n=g#4 v=64
125709 Par ch=1 c=7 v=51
125724 On ch=1 n=a#4 v=55
125724 On ch=1 n=d#5 v=55
125874 Par ch=1 c=7 v=50
125924 Off ch=1 n=d#5 v=64
125924 Off ch=1 n=a#4 v=64
125964 On ch=1 n=g#4 v=54
125964 On ch=1 n=d#5 v=54
126039 Par ch=1 c=7 v=49
126164 Off ch=1 n=d#5 v=64
126164 Off ch=1 n=g#4 v=64
126204 Par ch=1 c=7 v=48
126204 On ch=1 n=g#4 v=48
126204 On ch=1 n=d#5 v=48
126404 Off ch=1 n=d#5 v=64
126404 Off ch=1 n=g#4 v=64
126444 On ch=1 n=a#4 v=48
126444 On ch=1 n=d#5 v=48
126644 Off ch=1 n=d#5 v=64
126644 Off ch=1 n=a#4 v=64
126684 On ch=1 n=f#4 v=48
126684 On ch=1 n=b4 v=48
126684 On ch=1 n=d#5 v=48
126884 Off ch=1 n=d#5 v=64
126884 Off ch=1 n=b4 v=64
126884 Off ch=1 n=f#4 v=64
126924 On ch=1 n=f4 v=48
126924 On ch=1 n=b4 v=48
126924 On ch=1 n=c#5 v=48
127124 Off ch=1 n=c#5 v=64
127124 Off ch=1 n=b4 v=64
127124 Off ch=1 n=f4 v=64
127164 On ch=1 n=b4 v=48
127164 On ch=1 n=f5 v=48
127164 On ch=1 n=g#5 v=48
127364 Off ch=1 n=g#5 v=64
127364 Off ch=1 n=f5 v=64
127364 Off ch=1 n=b4 v=64
127404 On ch=1 n=b4 v=48
127404 On ch=1 n=f5 v=48
127404 On ch=1 n=a#5 v=48
127604 Off ch=1 n=a#5 v=64
127604 Off ch=1 n=f5 v=64
127604 Off ch=1 n=b4 v=64
127644 On ch=1 n=f#4 v=48
127644 On ch=1 n=b4 v=48
127644 On ch=1 n=f#5 v=48
127844 Off ch=1 n=b4 v=64
127844 Off ch=1 n=f#4 v=64
127884 On ch=1 n=f#4 v=48
127884 On ch=1 n=b4 v=48
128064 Off ch=1 n=f#5 v=64
128084 Off ch=1 n=b4 v=64
128084 Off ch=1 n=f#4 v=64
128124 On ch=1 n=f#4 v=48
128124 On ch=1 n=b4 v=48
128124 On ch=1 n=d#5 v=48
128324 Off ch=1 n=d#5 v=64
128324 Off ch=1 n=b4 v=64
128324 Off ch=1 n=f#4 v=64
128364 On ch=1 n=g#4 v=48
128364 On ch=1 n=b4 v=48
128364 On ch=1 n=c#5 v=48
128564 Off ch=1 n=c#5 v=64
128564 Off ch=1 n=b4 v=64
128564 Off ch=1 n=g#4 v=64
128604 On ch=1 n=b4 v=48
128604 On ch=1 n=f5 v=48
128604 On ch=1 n=g#5 v=48
128804 Off ch=1 n=g#5 v=64
128804 Off ch=1 n=f5 v=64
128804 Off ch=1 n=b4 v=64
128844 On ch=1 n=b4 v=48
128844 On ch=1 n=f5 v=48
128844 On ch=1 n=a#5 v=48
129044 Off ch=1 n=a#5 v=64
129044 Off ch=1 n=f5 v=64
129044 Off ch=1 n=b4 v=64
129084 On ch=1 n=f#4 v=48
129084 On ch=1 n=b4 v=48
129084 On ch=1 n=f#5 v=48
129284 Off ch=1 n=b4 v=64
129284 Off ch=1 n=f#4 v=64
129324 On ch=1 n=f#4 v=48
129324 On ch=1 n=b4 v=48
129504 Off ch=1 n=f#5 v=64
129524 Off ch=1 n=b4 v=64
129524 Off ch=1 n=f#4 v=64
129564 On ch=1 n=f#4 v=48
129564 On ch=1 n=b4 v=48
129564 On ch=1 n=d#5 v=48
129764 Off ch=1 n=d#5 v=64
129764 Off ch=1 n=b4 v=64
129764 Off ch=1 n=f#4 v=64
129804 On ch=1 n=g#4 v=48
129804 On ch=1 n=b4 v=48
129804 On ch=1 n=c#5 v=48
130004 Off ch=1 n=c#5 v=64
130004 Off ch=1 n=b4 v=64
130004 Off ch=1 n=g#4 v=64
130044 On ch=1 n=b4 v=48
130044 On ch=1 n=f5 v=48
130044 On ch=1 n=g#5 v=48
130104 Off ch=1 n=g#5 v=64
130104 Off ch=1 n=f5 v=64
130104 Off ch=1 n=b4 v=64
130284 On ch=1 n=b4 v=48
130284 On ch=1 n=f5 v=48
130284 On ch=1 n=a#5 v=48
130344 Off ch=1 n=a#5 v=64
130344 Off ch=1 n=f5 v=64
130344 Off ch=1 n=b4 v=64
130524 On ch=1 n=b4 v=48
130524 On ch=1 n=f5 v=48
130524 On ch=1 n=b5 v=48
130584 Off ch=1 n=b5 v=64
130584 Off ch=1 n=f5 v=64
130584 Off ch=1 n=b4 v=64
130764 On ch=1 n=c5 v=48
130764 On ch=1 n=f5 v=48
130764 On ch=1 n=c6 v=48
130824 Off ch=1 n=c6 v=64
130824 Off ch=1 n=f5 v=64
130824 Off ch=1 n=c5 v=64
130839 Par ch=1 c=7 v=49
130914 Par ch=1 c=7 v=50
130989 Par ch=1 c=7 v=51
131004 On ch=1 n=c#5 v=49
131004 On ch=1 n=f5 v=49
131004 On ch=1 n=c#6 v=49
131064 Off ch=1 n=c#6 v=64
131064 Off ch=1 n=f5 v=64
131064 Off ch=1 n=c#5 v=64
131064 Par ch=1 c=7 v=52
131139 Par ch=1 c=7 v=53
131214 Par ch=1 c=7 v=54
131244 On ch=1 n=d5 v=50
131244 On ch=1 n=f5 v=50
131244 On ch=1 n=d6 v=50
131289 Par ch=1 c=7 v=55
131304 Off ch=1 n=d6 v=64
131304 Off ch=1 n=f5 v=64
131304 Off ch=1 n=d5 v=64
131364 Par ch=1 c=7 v=56
131439 Par ch=1 c=7 v=57
131484 On ch=1 n=d#5 v=51
131484 On ch=1 n=f5 v=51
131484 On ch=1 n=d#6 v=51
131514 Par ch=1 c=7 v=58
131589 Par ch=1 c=7 v=59
131664 Par ch=1 c=7 v=60
131684 Off ch=1 n=d#6 v=64
131684 Off ch=1 n=f5 v=64
131684 Off ch=1 n=d#5 v=64
131724 On ch=1 n=b4 v=52
131724 On ch=1 n=d5 v=52
131724 On ch=1 n=f5 v=52
131739 Par ch=1 c=7 v=61
131814 Par ch=1 c=7 v=62
131889 Par ch=1 c=7 v=63
131924 Off ch=1 n=f5 v=64
131924 Off ch=1 n=d5 v=64
131924 Off ch=1 n=b4 v=64
131964 Par ch=1 c=7 v=64
131964 On ch=1 n=a#4 v=64
131964 On ch=1 n=c#5 v=64
131964 On ch=1 n=f#5 v=64
132164 Off ch=1 n=f#5 v=64
132164 Off ch=1 n=c#5 v=64
132164 Off ch=1 n=a#4 v=64
132204 Par ch=1 c=7 v=48
132684 On ch=1 n=g#5 v=48
132684 On ch=1 n=f#5 v=48
132684 On ch=1 n=c5 v=48
133404 Off ch=1 n=c5 v=64
133404 Off ch=1 n=f#5 v=64
133404 Off ch=1 n=g#5 v=64
133404 On ch=1 n=g#5 v=48
133404 On ch=1 n=f5 v=48
133404 On ch=1 n=c#5 v=48
134064 Off ch=1 n=c#5 v=64
134064 Off ch=1 n=f5 v=64
134064 Off ch=1 n=g#5 v=64
134124 On ch=1 n=g#5 v=48
134124 On ch=1 n=f#5 v=48
134124 On ch=1 n=c5 v=48
134604 Off ch=1 n=c5 v=64
134604 On ch=1 n=c#5 v=48
134724 Off ch=1 n=c#5 v=64
134724 On ch=1 n=d#5 v=48
134784 Off ch=1 n=f#5 v=64
134784 Off ch=1 n=g#5 v=64
134844 Off ch=1 n=d#5 v=64
134844 On ch=1 n=g#5 v=48
134844 On ch=1 n=e5 v=48
135044 Off ch=1 n=e5 v=64
135084 On ch=1 n=f5 v=48
135441 Off ch=1 n=g#5 v=64
135444 On ch=1 n=f6 v=48
135524 Off ch=1 n=f5 v=64
135561 Off ch=1 n=f6 v=64
135564 On ch=1 n=f6 v=48
135564 On ch=1 n=a5 v=48
135564 On ch=1 n=d#5 v=48
136044 Off ch=1 n=a5 v=64
136044 Off ch=1 n=f6 v=64
136044 On ch=1 n=a5 v=48
136224 Off ch=1 n=d#5 v=64
136284 Off ch=1 n=a5 v=64
136284 On ch=1 n=a#5 v=48
136284 On ch=1 n=c#5 v=48
136764 Off ch=1 n=a#5 v=64
136764 On ch=1 n=f5 v=48
136764 On ch=1 n=c#6 v=48
136944 Off ch=1 n=c#5 v=64
137004 Off ch=1 n=c#6 v=64
137004 Off ch=1 n=f5 v=64
137004 On ch=1 n=g5 v=48
137004 On ch=1 n=d#5 v=48
137004 On ch=1 n=c#5 v=48
137724 Off ch=1 n=c#5 v=64
137724 Off ch=1 n=d#5 v=64
137724 Off ch=1 n=g5 v=64
137724 On ch=1 n=c5 v=48
137724 On ch=1 n=d#5 v=48
137724 On ch=1 n=g#5 v=48
138144 Off ch=1 n=g#5 v=64
138144 Off ch=1 n=d#5 v=64
138144 Off ch=1 n=c5 v=64
138204 On ch=1 n=c#5 v=48
138204 On ch=1 n=f5 v=48
138204 On ch=1 n=g#5 v=48
138444 Off ch=1 n=g#5 v=64
138444 Off ch=1 n=f5 v=64
138444 Off ch=1 n=c#5 v=64
138444 On ch=1 n=g#5 v=48
138444 On ch=1 n=f#5 v=48
138444 On ch=1 n=c5 v=48
139104 Off ch=1 n=c5 v=64
139104 Off ch=1 n=f#5 v=64
139104 Off ch=1 n=g#5 v=64
139164 On ch=1 n=g#5 v=48
139164 On ch=1 n=f5 v=48
139164 On ch=1 n=c#5 v=48
139584 Off ch=1 n=c#5 v=64
139644 On ch=1 n=g#4 v=48
139824 Off ch=1 n=f5 v=64
139824 Off ch=1 n=g#5 v=64
139844 Off ch=1 n=g#4 v=64
139884 On ch=1 n=g#5 v=48
139884 On ch=1 n=f#5 v=48
139884 On ch=1 n=c5 v=48
140084 Off ch=1 n=c5 v=64
140124 On ch=1 n=a#4 v=48
140241 Off ch=1 n=a#4 v=64
140244 On ch=1 n=g#4 v=48
140361 Off ch=1 n=g#4 v=64
140364 On ch=1 n=c#5 v=48
140481 Off ch=1 n=c#5 v=64
140484 On ch=1 n=d#5 v=48
140544 Off ch=1 n=f#5 v=64
140544 Off ch=1 n=g#5 v=64
140601 Off ch=1 n=d#5 v=64
140604 On ch=1 n=g#5 v=48
140604 On ch=1 n=f5 v=48
141024 Off ch=1 n=f5 v=64
141084 On ch=1 n=e5 v=48
141264 Off ch=1 n=g#5 v=64
141284 Off ch=1 n=e5 v=64
141324 On ch=1 n=d#5 v=48
141324 On ch=1 n=g#5 v=48
141744 Off ch=1 n=g#5 v=64
141804 On ch=1 n=f#5 v=48
141984 Off ch=1 n=d#5 v=64
142004 Off ch=1 n=f#5 v=64
142044 On ch=1 n=d5 v=48
142044 On ch=1 n=f#5 v=48
142284 Off ch=1 n=d5 v=64
142284 On ch=1 n=c#5 v=48
142464 Off ch=1 n=f#5 v=64
142524 On ch=1 n=d#5 v=48
142524 On ch=1 n=c#6 v=48
142724 Off ch=1 n=c#6 v=64
142724 Off ch=1 n=d#5 v=64
142724 Off ch=1 n=c#5 v=64
142764 On ch=1 n=c#6 v=48
142764 On ch=1 n=f5 v=48
142764 On ch=1 n=c#5 v=48
143424 Off ch=1 n=c#5 v=64
143424 Off ch=1 n=f5 v=64
143424 Off ch=1 n=c#6 v=64
143484 On ch=1 n=f5 v=48
143484 On ch=1 n=g#5 v=48
143529 Par ch=1 c=7 v=49
143574 Par ch=1 c=7 v=50
143619 Par ch=1 c=7 v=51
143664 Par ch=1 c=7 v=52
143709 Par ch=1 c=7 v=53
143754 Par ch=1 c=7 v=54
143799 Par ch=1 c=7 v=55
143844 Par ch=1 c=7 v=56
143889 Par ch=1 c=7 v=57
143904 Off ch=1 n=g#5 v=64
143934 Par ch=1 c=7 v=58
143964 On ch=1 n=a5 v=49
143979 Par ch=1 c=7 v=59
144024 Par ch=1 c=7 v=60
144069 Par ch=1 c=7 v=61
144114 Par ch=1 c=7 v=62
144144 Off ch=1 n=f5 v=64
144159 Par ch=1 c=7 v=63
144164 Off ch=1 n=a5 v=64
144204 Par ch=1 c=7 v=64
144204 On ch=1 n=a#5 v=64
144404 Off ch=1 n=a#5 v=64
144444 On ch=1 n=a#4 v=64
144444 On ch=1 n=f5 v=64
144644 Off ch=1 n=f5 v=64
144644 Off ch=1 n=a#4 v=64
144684 On ch=1 n=a#4 v=64
144684 On ch=1 n=f#5 v=64
144884 Off ch=1 n=f#5 v=64
144884 Off ch=1 n=a#4 v=64
144924 Par ch=1 c=7 v=64
144924 On ch=1 n=d#6 v=64
145164 On ch=1 n=a#4 v=64
145164 On ch=1 n=f#5 v=64
145344 Off ch=1 n=d#6 v=64
145364 Off ch=1 n=f#5 v=64
145364 Off ch=1 n=a#4 v=64
145404 On ch=1 n=a#4 v=64
145404 On ch=1 n=f#5 v=64
145404 On ch=1 n=c#6 v=64
145604 Off ch=1 n=c#6 v=64
145604 Off ch=1 n=f#5 v=64
145604 Off ch=1 n=a#4 v=64
145644 On ch=1 n=c#6 v=64
145844 Off ch=1 n=c#6 v=64
145884 On ch=1 n=b4 v=64
145884 On ch=1 n=f#5 v=64
146084 Off ch=1 n=f#5 v=64
146084 Off ch=1 n=b4 v=64
146124 On ch=1 n=b4 v=64
146124 On ch=1 n=f5 v=64
146124 On ch=1 n=g#5 v=64
146324 Off ch=1 n=g#5 v=64
146324 Off ch=1 n=f5 v=64
146324 Off ch=1 n=b4 v=64
146364 On ch=1 n=a#5 v=64
146604 On ch=1 n=a#4 v=64
146604 On ch=1 n=f#5 v=64
146804 Off ch=1 n=f#5 v=64
146804 Off ch=1 n=a#4 v=64
146844 On ch=1 n=a#4 v=64
146844 On ch=1 n=f#5 v=64
147044 Off ch=1 n=f#5 v=64
147044 Off ch=1 n=a#4 v=64
147084 On ch=1 n=a#4 v=64
147084 On ch=1 n=f#5 v=64
147264 Par ch=1 c=7 v=63
147284 Off ch=1 n=f#5 v=64
147284 Off ch=1 n=a#4 v=64
147324 On ch=1 n=c#5 v=63
147324 On ch=1 n=f#5 v=63
147444 Par ch=1 c=7 v=62
147524 Off ch=1 n=f#5 v=64
147524 Off ch=1 n=c#5 v=64
147564 On ch=1 n=c#5 v=62
147564 On ch=1 n=f#5 v=62
147624 Par ch=1 c=7 v=61
147764 Off ch=1 n=f#5 v=64
147764 Off ch=1 n=c#5 v=64
147804 Par ch=1 c=7 v=60
147804 On ch=1 n=c#5 v=61
147804 On ch=1 n=f#5 v=61
147984 Par ch=1 c=7 v=59
148004 Off ch=1 n=f#5 v=64
148004 Off ch=1 n=c#5 v=64
148004 Off ch=1 n=a#5 v=64
148044 On ch=1 n=g#4 v=60
148044 On ch=1 n=c#5 v=60
148164 Par ch=1 c=7 v=58
148244 Off ch=1 n=c#5 v=64
148244 Off ch=1 n=g#4 v=64
148284 On ch=1 n=f#4 v=59
148284 On ch=1 n=c#5 v=59
148344 Par ch=1 c=7 v=57
148484 Off ch=1 n=c#5 v=64
148484 Off ch=1 n=f#4 v=64
148524 Par ch=1 c=7 v=56
148524 On ch=1 n=f#4 v=58
148524 On ch=1 n=c#5 v=58
148704 Par ch=1 c=7 v=55
148724 Off ch=1 n=c#5 v=64
148724 Off ch=1 n=f#4 v=64
148764 On ch=1 n=g#4 v=57
148764 On ch=1 n=c#5 v=57
148884 Par ch=1 c=7 v=54
148964 Off ch=1 n=c#5 v=64
148964 Off ch=1 n=g#4 v=64
149004 On ch=1 n=f#4 v=56
149004 On ch=1 n=c#5 v=56
149064 Par ch=1 c=7 v=53
149204 Off ch=1 n=c#5 v=64
149204 Off ch=1 n=f#4 v=64
149244 Par ch=1 c=7 v=52
149244 On ch=1 n=f#4 v=55
149244 On ch=1 n=c#5 v=55
149424 Par ch=1 c=7 v=51
149444 Off ch=1 n=c#5 v=64
149444 Off ch=1 n=f#4 v=64
149484 On ch=1 n=g#4 v=54
149484 On ch=1 n=c#5 v=54
149604 Par ch=1 c=7 v=50
149684 Off ch=1 n=c#5 v=64
149684 Off ch=1 n=g#4 v=64
149724 On ch=1 n=a#4 v=53
149724 On ch=1 n=c#5 v=53
149784 Par ch=1 c=7 v=49
149924 Off ch=1 n=c#5 v=64
149924 Off ch=1 n=a#4 v=64
149964 Par ch=1 c=7 v=48
149964 Par ch=1 c=7 v=64
149964 On ch=1 n=b5 v=64
150164 Off ch=1 n=b5 v=64
150204 On ch=1 n=b4 v=64
150204 On ch=1 n=g5 v=64
150404 Off ch=1 n=g5 v=64
150404 Off ch=1 n=b4 v=64
150444 On ch=1 n=b4 v=64
150444 On ch=1 n=g#5 v=64
150644 Off ch=1 n=g#5 v=64
150644 Off ch=1 n=b4 v=64
150684 On ch=1 n=e6 v=64
150924 On ch=1 n=b4 v=64
150924 On ch=1 n=g5 v=64
151104 Off ch=1 n=e6 v=64
151124 Off ch=1 n=g5 v=64
151124 Off ch=1 n=b4 v=64
151164 On ch=1 n=b4 v=64
151164 On ch=1 n=g#5 v=64
151164 On ch=1 n=d#6 v=64
151364 Off ch=1 n=d#6 v=64
151364 Off ch=1 n=g#5 v=64
151364 Off ch=1 n=b4 v=64
151404 On ch=1 n=d#6 v=64
151604 Off ch=1 n=d#6 v=64
151644 On ch=1 n=c#5 v=64
151644 On ch=1 n=g#5 v=64
151844 Off ch=1 n=g#5 v=64
151844 Off ch=1 n=c#5 v=64
151884 On ch=1 n=c#5 v=64
151884 On ch=1 n=g5 v=64
151884 On ch=1 n=a#5 v=64
152084 Off ch=1 n=a#5 v=64
152084 Off ch=1 n=g5 v=64
152084 Off ch=1 n=c#5 v=64
152124 On ch=1 n=c#6 v=64
152324 Off ch=1 n=c#6 v=64
152364 On ch=1 n=b5 v=64
152364 On ch=1 n=b4 v=64
152364 On ch=1 n=g#5 v=64
152529 Par ch=1 c=7 v=63
152564 Off ch=1 n=g#5 v=64
152564 Off ch=1 n=b4 v=64
152604 On ch=1 n=b4 v=63
152604 On ch=1 n=g#5 v=63
152694 Par ch=1 c=7 v=62
152804 Off ch=1 n=g#5 v=64
152804 Off ch=1 n=b4 v=64
152844 On ch=1 n=b4 v=62
152844 On ch=1 n=g#5 v=62
152859 Par ch=1 c=7 v=61
153024 Par ch=1 c=7 v=60
153044 Off ch=1 n=g#5 v=64
153044 Off ch=1 n=b4 v=64
153084 On ch=1 n=d#5 v=61
153084 On ch=1 n=g#5 v=61
153189 Par ch=1 c=7 v=59
153284 Off ch=1 n=g#5 v=64
153284 Off ch=1 n=d#5 v=64
153324 On ch=1 n=d#5 v=60
153324 On ch=1 n=g#5 v=60
153354 Par ch=1 c=7 v=58
153519 Par ch=1 c=7 v=57
153524 Off ch=1 n=g#5 v=64
153524 Off ch=1 n=d#5 v=64
153564 On ch=1 n=d#5 v=59
153564 On ch=1 n=g#5 v=59
153684 Par ch=1 c=7 v=56
153764 Off ch=1 n=g#5 v=64
153764 Off ch=1 n=d#5 v=64
153764 Off ch=1 n=b5 v=64
153804 On ch=1 n=a#4 v=58
153804 On ch=1 n=d#5 v=58
153849 Par ch=1 c=7 v=55
154004 Off ch=1 n=d#5 v=64
154004 Off ch=1 n=a#4 v=64
154014 Par ch=1 c=7 v=54
154044 On ch=1 n=g#4 v=57
154044 On ch=1 n=d#5 v=57
154179 Par ch=1 c=7 v=53
154244 Off ch=1 n=d#5 v=64
154244 Off ch=1 n=g#4 v=64
154284 On ch=1 n=g#4 v=56
154284 On ch=1 n=d#5 v=56
154344 Par ch=1 c=7 v=52
154484 Off ch=1 n=d#5 v=64
154484 Off ch=1 n=g#4 v=64
154509 Par ch=1 c=7 v=51
154524 On ch=1 n=a#4 v=55
154524 On ch=1 n=d#5 v=55
154674 Par ch=1 c=7 v=50
154724 Off ch=1 n=d#5 v=64
154724 Off ch=1 n=a#4 v=64
154764 On ch=1 n=g#4 v=54
154764 On ch=1 n=d#5 v=54
154839 Par ch=1 c=7 v=49
154964 Off ch=1 n=d#5 v=64
154964 Off ch=1 n=g#4 v=64
155004 Par ch=1 c=7 v=48
155004 On ch=1 n=g#4 v=48
155004 On ch=1 n=d#5 v=48
155204 Off ch=1 n=d#5 v=64
155204 Off ch=1 n=g#4 v=64
155244 On ch=1 n=a#4 v=48
155244 On ch=1 n=d#5 v=48
155444 Off ch=1 n=d#5 v=64
155444 Off ch=1 n=a#4 v=64
155484 On ch=1 n=f#4 v=48
155484 On ch=1 n=b4 v=48
155484 On ch=1 n=d#5 v=48
155684 Off ch=1 n=d#5 v=64
155684 Off ch=1 n=b4 v=64
155684 Off ch=1 n=f#4 v=64
155724 On ch=1 n=f4 v=48
155724 On ch=1 n=b4 v=48
155724 On ch=1 n=c#5 v=48
155924 Off ch=1 n=c#5 v=64
155924 Off ch=1 n=b4 v=64
155924 Off ch=1 n=f4 v=64
155964 On ch=1 n=b4 v=48
155964 On ch=1 n=f5 v=48
155964 On ch=1 n=g#5 v=48
156164 Off ch=1 n=g#5 v=64
156164 Off ch=1 n=f5 v=64
156164 Off ch=1 n=b4 v=64
156204 On ch=1 n=b4 v=48
156204 On ch=1 n=f5 v=48
156204 On ch=1 n=a#5 v=48
156404 Off ch=1 n=a#5 v=64
156404 Off ch=1 n=f5 v=64
156404 Off ch=1 n=b4 v=64
156444 On ch=1 n=f#4 v=48
156444 On ch=1 n=b4 v=48
156444 On ch=1 n=f#5 v=48
156644 Off ch=1 n=b4 v=64
156644 Off ch=1 n=f#4 v=64
156684 On ch=1 n=f#4 v=48
156684 On ch=1 n=b4 v=48
156864 Off ch=1 n=f#5 v=64
156884 Off ch=1 n=b4 v=64
156884 Off ch=1 n=f#4 v=64
156924 On ch=1 n=f#4 v=48
156924 On ch=1 n=b4 v=48
156924 On ch=1 n=d#5 v=48
157124 Off ch=1 n=d#5 v=64
157124 Off ch=1 n=b4 v=64
157124 Off ch=1 n=f#4 v=64
157164 On ch=1 n=g#4 v=48
157164 On ch=1 n=b4 v=48
157164 On ch=1 n=c#5 v=48
157364 Off ch=1 n=c#5 v=64
157364 Off ch=1 n=b4 v=64
157364 Off ch=1 n=g#4 v=64
157404 On ch=1 n=b4 v=48
157404 On ch=1 n=f5 v=48
157404 On ch=1 n=g#5 v=48
157604 Off ch=1 n=g#5 v=64
157604 Off ch=1 n=f5 v=64
157604 Off ch=1 n=b4 v=64
157644 On ch=1 n=b4 v=48
157644 On ch=1 n=f5 v=48
157644 On ch=1 n=a#5 v=48
157844 Off ch=1 n=a#5 v=64
157844 Off ch=1 n=f5 v=64
157844 Off ch=1 n=b4 v=64
157884 On ch=1 n=f#4 v=48
157884 On ch=1 n=b4 v=48
157884 On ch=1 n=f#5 v=48
158084 Off ch=1 n=b4 v=64
158084 Off ch=1 n=f#4 v=64
158124 On ch=1 n=f#4 v=48
158124 On ch=1 n=b4 v=48
158304 Off ch=1 n=f#5 v=64
158324 Off ch=1 n=b4 v=64
158324 Off ch=1 n=f#4 v=64
158364 On ch=1 n=f#4 v=48
158364 On ch=1 n=b4 v=48
158364 On ch=1 n=d#5 v=48
158564 Off ch=1 n=d#5 v=64
158564 Off ch=1 n=b4 v=64
158564 Off ch=1 n=f#4 v=64
158604 On ch=1 n=g#4 v=48
158604 On ch=1 n=b4 v=48
158604 On ch=1 n=c#5 v=48
158804 Off ch=1 n=c#5 v=64
158804 Off ch=1 n=b4 v=64
158804 Off ch=1 n=g#4 v=64
158844 On ch=1 n=b4 v=48
158844 On ch=1 n=f5 v=48
158844 On ch=1 n=g#5 v=48
158904 Off ch=1 n=g#5 v=64
158904 Off ch=1 n=f5 v=64
158904 Off ch=1 n=b4 v=64
159084 On ch=1 n=b4 v=48
159084 On ch=1 n=f5 v=48
159084 On ch=1 n=a#5 v=48
159144 Off ch=1 n=a#5 v=64
159144 Off ch=1 n=f5 v=64
159144 Off ch=1 n=b4 v=64
159324 On ch=1 n=b4 v=48
159324 On ch=1 n=f5 v=48
159324 On ch=1 n=b5 v=48
159384 Off ch=1 n=b5 v=64
159384 Off ch=1 n=f5 v=64
159384 Off ch=1 n=b4 v=64
159564 On ch=1 n=c5 v=48
159564 On ch=1 n=f5 v=48
159564 On ch=1 n=c6 v=48
159624 Off ch=1 n=c6 v=64
159624 Off ch=1 n=f5 v=64
159624 Off ch=1 n=c5 v=64
159639 Par ch=1 c=7 v=49
159714 Par ch=1 c=7 v=50
159789 Par ch=1 c=7 v=51
159804 On ch=1 n=c#5 v=49
159804 On ch=1 n=f5 v=49
159804 On ch=1 n=c#6 v=49
159864 Off ch=1 n=c#6 v=64
159864 Off ch=1 n=f5 v=64
159864 Off ch=1 n=c#5 v=64
159864 Par ch=1 c=7 v=52
159939 Par ch=1 c=7 v=53
160014 Par ch=1 c=7 v=54
160044 On ch=1 n=d5 v=50
160044 On ch=1 n=f5 v=50
160044 On ch=1 n=d6 v=50
160089 Par ch=1 c=7 v=55
160104 Off ch=1 n=d6 v=64
160104 Off ch=1 n=f5 v=64
160104 Off ch=1 n=d5 v=64
160164 Par ch=1 c=7 v=56
160239 Par ch=1 c=7 v=57
160284 On ch=1 n=d#6 v=51
160284 On ch=1 n=f5 v=51
160284 On ch=1 n=d#5 v=51
160314 Par ch=1 c=7 v=58
160389 Par ch=1 c=7 v=59
160464 Par ch=1 c=7 v=60
160539 Par ch=1 c=7 v=61
160604 Off ch=1 n=d#5 v=64
160604 Off ch=1 n=f5 v=64
160604 Off ch=1 n=d#6 v=64
160614 Par ch=1 c=7 v=62
160644 On ch=1 n=d5 v=52
160644 On ch=1 n=f5 v=52
160644 On ch=1 n=d6 v=52
160689 Par ch=1 c=7 v=63
160761 Off ch=1 n=d6 v=64
160761 Off ch=1 n=f5 v=64
160761 Off ch=1 n=d5 v=64
160764 Par ch=1 c=7 v=64
160764 On ch=1 n=d5 v=64
160764 On ch=1 n=f5 v=64
160764 On ch=1 n=d6 v=64
160854 Par ch=1 c=7 v=65
160944 Par ch=1 c=7 v=66
160964 Off ch=1 n=d6 v=64
160964 Off ch=1 n=f5 v=64
160964 Off ch=1 n=d5 v=64
161004 On ch=1 n=d#6 v=64
161004 On ch=1 n=f5 v=64
161004 On ch=1 n=d#5 v=64
161034 Par ch=1 c=7 v=67
161124 Par ch=1 c=7 v=68
161214 Par ch=1 c=7 v=69
161304 Par ch=1 c=7 v=70
161324 Off ch=1 n=d#5 v=64
161324 Off ch=1 n=f5 v=64
161324 Off ch=1 n=d#6 v=64
161364 On ch=1 n=d5 v=64
161364 On ch=1 n=d6 v=64
161394 Par ch=1 c=7 v=71
161481 Off ch=1 n=d6 v=64
161481 Off ch=1 n=d5 v=64
161484 Par ch=1 c=7 v=72
161484 On ch=1 n=d5 v=72
161484 On ch=1 n=d6 v=72
161574 Par ch=1 c=7 v=73
161664 Par ch=1 c=7 v=74
161684 Off ch=1 n=d6 v=64
161684 Off ch=1 n=d5 v=64
161724 On ch=1 n=c#6 v=72
161724 On ch=1 n=c#5 v=72
161754 Par ch=1 c=7 v=75
161844 Par ch=1 c=7 v=76
161934 Par ch=1 c=7 v=77
162024 Par ch=1 c=7 v=78
162044 Off ch=1 n=c#5 v=64
162044 Off ch=1 n=c#6 v=64
162084 On ch=1 n=c5 v=72
162084 On ch=1 n=c6 v=72
162114 Par ch=1 c=7 v=79
162201 Off ch=1 n=c6 v=64
162201 Off ch=1 n=c5 v=64
162204 Par ch=1 c=7 v=80
162204 On ch=1 n=c5 v=80
162204 On ch=1 n=c6 v=80
162294 Par ch=1 c=7 v=81
162384 Par ch=1 c=7 v=82
162404 Off ch=1 n=c6 v=64
162404 Off ch=1 n=c5 v=64
162444 On ch=1 n=b5 v=80
162444 On ch=1 n=b4 v=80
162474 Par ch=1 c=7 v=83
162564 Par ch=1 c=7 v=84
162654 Par ch=1 c=7 v=85
162744 Par ch=1 c=7 v=86
162764 Off ch=1 n=b4 v=64
162764 Off ch=1 n=b5 v=64
162804 On ch=1 n=a#4 v=80
162804 On ch=1 n=a#5 v=80
162834 Par ch=1 c=7 v=87
162921 Off ch=1 n=a#5 v=64
162921 Off ch=1 n=a#4 v=64
162924 Par ch=1 c=7 v=88
162924 On ch=1 n=a#4 v=88
162924 On ch=1 n=a#5 v=88
163044 Par ch=1 c=7 v=89
163124 Off ch=1 n=a#5 v=64
163124 Off ch=1 n=a#4 v=64
163164 On ch=1 n=a5 v=88
163164 On ch=1 n=a4 v=88
163164 Par ch=1 c=7 v=90
163284 Par ch=1 c=7 v=91
163404 Par ch=1 c=7 v=92
163484 Off ch=1 n=a4 v=64
163484 Off ch=1 n=a5 v=64
163524 Par ch=1 c=7 v=93
163524 On ch=1 n=g#4 v=88
163524 On ch=1 n=g#5 v=88
163641 Off ch=1 n=g#5 v=64
163641 Off ch=1 n=g#4 v=64
163644 Par ch=1 c=7 v=94
163644 On ch=1 n=g#4 v=94
163644 On ch=1 n=g#5 v=94
163844 Off ch=1 n=g#5 v=64
163844 Off ch=1 n=g#4 v=64
163884 On ch=1 n=f#4 v=94
163884 On ch=1 n=f#5 v=94
164084 Off ch=1 n=f#5 v=64
164084 Off ch=1 n=f#4 v=64
164124 On ch=1 n=a#4 v=94
164324 Off ch=1 n=a#4 v=64
164364 On ch=1 n=d#4 v=94
164364 On ch=1 n=d#5 v=94
164404 Off ch=1 n=d#5 v=64
164404 Off ch=1 n=d#4 v=64
164404 Par ch=1 c=7 v=95
164444 Par ch=1 c=7 v=96
164484 Par ch=1 c=7 v=97
164484 On ch=1 n=d#4 v=95
164484 On ch=1 n=d#5 v=95
164524 Off ch=1 n=d#5 v=64
164524 Off ch=1 n=d#4 v=64
164524 Par ch=1 c=7 v=98
164564 Par ch=1 c=7 v=99
164604 Par ch=1 c=7 v=100
164604 On ch=1 n=d#4 v=96
164604 On ch=1 n=d#5 v=96
164644 Off ch=1 n=d#5 v=64
164644 Off ch=1 n=d#4 v=64
164644 Par ch=1 c=7 v=101
164684 Par ch=1 c=7 v=102
164724 Par ch=1 c=7 v=103
164724 On ch=1 n=d#4 v=97
164724 On ch=1 n=d#5 v=97
164764 Off ch=1 n=d#5 v=64
164764 Off ch=1 n=d#4 v=64
164764 Par ch=1 c=7 v=104
164804 Par ch=1 c=7 v=105
164844 Par ch=1 c=7 v=106
164844 On ch=1 n=d#4 v=127
164844 On ch=1 n=d#5 v=127
164884 Par ch=1 c=7 v=107
164924 Par ch=1 c=7 v=108
164964 Par ch=1 c=7 v=109
165004 Par ch=1 c=7 v=110
165044 Off ch=1 n=d#5 v=64
165044 Off ch=1 n=d#4 v=64
165044 Par ch=1 c=7 v=111
165084 Par ch=1 c=7 v=112
165084 Par ch=1 c=7 v=94
165084 On ch=1 n=f4 v=94
165084 On ch=1 n=b4 v=94
165084 On ch=1 n=d#5 v=94
165084 On ch=1 n=f5 v=94
165284 Off ch=1 n=f5 v=64
165284 Off ch=1 n=d#5 v=64
165284 Off ch=1 n=b4 v=64
165284 Off ch=1 n=f4 v=64
165324 On ch=1 n=f5 v=94
165324 On ch=1 n=b5 v=94
165324 On ch=1 n=d#6 v=94
165324 On ch=1 n=f6 v=94
165441 Off ch=1 n=f6 v=64
165441 Off ch=1 n=d#6 v=64
165441 Off ch=1 n=b5 v=64
165441 Off ch=1 n=f5 v=64
165444 On ch=1 n=d#5 v=94
165444 On ch=1 n=d#6 v=94
165561 Off ch=1 n=d#6 v=64
165561 Off ch=1 n=d#5 v=64
165564 On ch=1 n=f5 v=94
165564 On ch=1 n=a#5 v=94
165564 On ch=1 n=d6 v=94
165564 On ch=1 n=f6 v=94
165681 Off ch=1 n=f6 v=64
165681 Off ch=1 n=d6 v=64
165681 Off ch=1 n=a#5 v=64
165681 Off ch=1 n=f5 v=64
165684 On ch=1 n=f#5 v=94
165684 On ch=1 n=f#6 v=94
165801 Off ch=1 n=f#6 v=64
165801 Off ch=1 n=f#5 v=64
165804 On ch=1 n=f#4 v=94
165804 On ch=1 n=f#5 v=94
165844 Off ch=1 n=f#5 v=64
165844 Off ch=1 n=f#4 v=64
165844 Par ch=1 c=7 v=95
165884 Par ch=1 c=7 v=96
165924 Par ch=1 c=7 v=97
165924 On ch=1 n=f#4 v=95
165924 On ch=1 n=f#5 v=95
165964 Off ch=1 n=f#5 v=64
165964 Off ch=1 n=f#4 v=64
165964 Par ch=1 c=7 v=98
166004 Par ch=1 c=7 v=99
166044 Par ch=1 c=7 v=100
166044 On ch=1 n=f#4 v=96
166044 On ch=1 n=f#5 v=96
166084 Off ch=1 n=f#5 v=64
166084 Off ch=1 n=f#4 v=64
166084 Par ch=1 c=7 v=101
166124 Par ch=1 c=7 v=102
166164 Par ch=1 c=7 v=103
166164 On ch=1 n=f#4 v=97
166164 On ch=1 n=f#5 v=97
166204 Off ch=1 n=f#5 v=64
166204 Off ch=1 n=f#4 v=64
166204 Par ch=1 c=7 v=104
166244 Par ch=1 c=7 v=105
166284 Par ch=1 c=7 v=106
166284 On ch=1 n=f#4 v=127
166284 On ch=1 n=f#5 v=127
166324 Par ch=1 c=7 v=107
166364 Par ch=1 c=7 v=108
166404 Par ch=1 c=7 v=109
166444 Par ch=1 c=7 v=110
166484 Off ch=1 n=f#5 v=64
166484 Off ch=1 n=f#4 v=64
166484 Par ch=1 c=7 v=111
166524 Par ch=1 c=7 v=112
166524 Par ch=1 c=7 v=94
166524 On ch=1 n=g#4 v=94
166524 On ch=1 n=d5 v=94
166524 On ch=1 n=f#5 v=94
166524 On ch=1 n=g#5 v=94
166584 Off ch=1 n=g#5 v=64
166584 Off ch=1 n=f#5 v=64
166584 Off ch=1 n=d5 v=64
166584 Off ch=1 n=g#4 v=64
166764 On ch=1 n=g#5 v=94
166764 On ch=1 n=d6 v=94
166764 On ch=1 n=f#6 v=94
166764 On ch=1 n=g#6 v=94
166881 Off ch=1 n=g#6 v=64
166881 Off ch=1 n=f#6 v=64
166881 Off ch=1 n=d6 v=64
166881 Off ch=1 n=g#5 v=64
166884 On ch=1 n=f#5 v=94
166884 On ch=1 n=f#6 v=94
167001 Off ch=1 n=f#6 v=64
167001 Off ch=1 n=f#5 v=64
167004 On ch=1 n=g#5 v=94
167004 On ch=1 n=c#6 v=94
167004 On ch=1 n=f6 v=94
167004 On ch=1 n=g#6 v=94
167121 Off ch=1 n=g#6 v=64
167121 Off ch=1 n=f6 v=64
167121 Off ch=1 n=c#6 v=64
167121 Off ch=1 n=g#5 v=64
167124 On ch=1 n=a5 v=94
167124 On ch=1 n=a6 v=94
167241 Off ch=1 n=a6 v=64
167241 Off ch=1 n=a5 v=64
167244 On ch=1 n=a4 v=94
167244 On ch=1 n=a5 v=94
167284 Off ch=1 n=a5 v=64
167284 Off ch=1 n=a4 v=64
167284 Par ch=1 c=7 v=95
167324 Par ch=1 c=7 v=96
167364 Par ch=1 c=7 v=97
167364 On ch=1 n=a4 v=95
167364 On ch=1 n=a5 v=95
167404 Off ch=1 n=a5 v=64
167404 Off ch=1 n=a4 v=64
167404 Par ch=1 c=7 v=98
167444 Par ch=1 c=7 v=99
167484 Par ch=1 c=7 v=100
167484 On ch=1 n=a4 v=96
167484 On ch=1 n=a5 v=96
167524 Off ch=1 n=a5 v=64
167524 Off ch=1 n=a4 v=64
167524 Par ch=1 c=7 v=101
167564 Par ch=1 c=7 v=102
167604 Par ch=1 c=7 v=103
167604 On ch=1 n=a4 v=97
167604 On ch=1 n=a5 v=97
167644 Off ch=1 n=a5 v=64
167644 Off ch=1 n=a4 v=64
167644 Par ch=1 c=7 v=104
167684 Par ch=1 c=7 v=105
167724 Par ch=1 c=7 v=106
167724 On ch=1 n=a4 v=127
167724 On ch=1 n=a5 v=127
167764 Par ch=1 c=7 v=107
167804 Par ch=1 c=7 v=108
167844 Par ch=1 c=7 v=109
167884 Par ch=1 c=7 v=110
167924 Off ch=1 n=a5 v=64
167924 Off ch=1 n=a4 v=64
167924 Par ch=1 c=7 v=111
167964 Par ch=1 c=7 v=112
167964 Par ch=1 c=7 v=94
167964 On ch=1 n=g#4 v=94
167964 On ch=1 n=a#4 v=94
167964 On ch=1 n=f5 v=94
167964 On ch=1 n=g#5 v=94
167964 On ch=1 n=a#5 v=94
168004 Off ch=1 n=a#5 v=64
168004 Off ch=1 n=g#5 v=64
168004 Off ch=1 n=f5 v=64
168004 Off ch=1 n=a#4 v=64
168004 Off ch=1 n=g#4 v=64
168069 Par ch=1 c=7 v=93
168084 On ch=1 n=g#4 v=93
168084 On ch=1 n=a#4 v=93
168084 On ch=1 n=f5 v=93
168084 On ch=1 n=g#5 v=93
168084 On ch=1 n=a#5 v=93
168124 Off ch=1 n=a#5 v=64
168124 Off ch=1 n=g#5 v=64
168124 Off ch=1 n=f5 v=64
168124 Off ch=1 n=a#4 v=64
168124 Off ch=1 n=g#4 v=64
168175 Par ch=1 c=7 v=92
168204 On ch=1 n=g#4 v=92
168204 On ch=1 n=a#4 v=92
168204 On ch=1 n=f5 v=92
168204 On ch=1 n=g#5 v=92
168204 On ch=1 n=a#5 v=92
168244 Off ch=1 n=a#5 v=64
168244 Off ch=1 n=g#5 v=64
168244 Off ch=1 n=f5 v=64
168244 Off ch=1 n=a#4 v=64
168244 Off ch=1 n=g#4 v=64
168281 Par ch=1 c=7 v=91
168324 On ch=1 n=g#4 v=91
168324 On ch=1 n=a#4 v=91
168324 On ch=1 n=f5 v=91
168324 On ch=1 n=g#5 v=91
168324 On ch=1 n=a#5 v=91
168364 Off ch=1 n=a#5 v=64
168364 Off ch=1 n=g#5 v=64
168364 Off ch=1 n=f5 v=64
168364 Off ch=1 n=a#4 v=64
168364 Off ch=1 n=g#4 v=64
168386 Par ch=1 c=7 v=90
168444 On ch=1 n=g#4 v=126
168444 On ch=1 n=a#4 v=126
168444 On ch=1 n=d5 v=126
168444 On ch=1 n=g#5 v=126
168444 On ch=1 n=a#5 v=126
168492 Par ch=1 c=7 v=89
168599 Par ch=1 c=7 v=88
168644 Off ch=1 n=a#5 v=64
168644 Off ch=1 n=g#5 v=64
168644 Off ch=1 n=d5 v=64
168644 Off ch=1 n=a#4 v=64
168644 Off ch=1 n=g#4 v=64
168684 On ch=1 n=a#4 v=89
168684 On ch=1 n=d#5 v=89
168684 On ch=1 n=f#5 v=89
168684 On ch=1 n=a#5 v=89
168704 Par ch=1 c=7 v=87
168724 Off ch=1 n=a#5 v=64
168724 Off ch=1 n=f#5 v=64
168724 Off ch=1 n=d#5 v=64
168724 Off ch=1 n=a#4 v=64
168804 On ch=1 n=a#4 v=88
168804 On ch=1 n=d#5 v=88
168804 On ch=1 n=f#5 v=88
168804 On ch=1 n=a#5 v=88
168810 Par ch=1 c=7 v=86
168844 Off ch=1 n=a#5 v=64
168844 Off ch=1 n=f#5 v=64
168844 Off ch=1 n=d#5 v=64
168844 Off ch=1 n=a#4 v=64
168916 Par ch=1 c=7 v=85
168924 On ch=1 n=d#5 v=87
168924 On ch=1 n=f#5 v=87
168924 On ch=1 n=a#5 v=87
168964 Off ch=1 n=a#5 v=64
168964 Off ch=1 n=f#5 v=64
168964 Off ch=1 n=d#5 v=64
169022 Par ch=1 c=7 v=84
169044 On ch=1 n=d#5 v=86
169044 On ch=1 n=f#5 v=86
169044 On ch=1 n=a#5 v=86
169084 Off ch=1 n=a#5 v=64
169084 Off ch=1 n=f#5 v=64
169084 Off ch=1 n=d#5 v=64
169127 Par ch=1 c=7 v=83
169164 On ch=1 n=d#5 v=119
169164 On ch=1 n=f#5 v=119
169164 On ch=1 n=a#5 v=119
169234 Par ch=1 c=7 v=82
169340 Par ch=1 c=7 v=81
169364 Off ch=1 n=a#5 v=64
169364 Off ch=1 n=f#5 v=64
169364 Off ch=1 n=d#5 v=64
169404 On ch=1 n=a#4 v=84
169404 On ch=1 n=d#5 v=84
169404 On ch=1 n=a#5 v=84
169445 Par ch=1 c=7 v=80
169551 Par ch=1 c=7 v=79
169644 Off ch=1 n=a#5 v=64
169644 Off ch=1 n=d#5 v=64
169644 Off ch=1 n=a#4 v=64
169644 On ch=1 n=g#4 v=83
169644 On ch=1 n=d#5 v=83
169644 On ch=1 n=g#5 v=83
169654 Par ch=1 c=7 v=78
169759 Par ch=1 c=7 v=77
169841 Off ch=1 n=g#5 v=64
169841 Off ch=1 n=d#5 v=64
169841 Off ch=1 n=g#4 v=64
169866 Par ch=1 c=7 v=76
169881 On ch=1 n=f#4 v=82
169881 On ch=1 n=a4 v=82
169881 On ch=1 n=d#5 v=82
169881 On ch=1 n=f#5 v=82
169972 Par ch=1 c=7 v=75
170078 Par ch=1 c=7 v=74
170121 Off ch=1 n=f#5 v=64
170121 Off ch=1 n=d#5 v=64
170121 Off ch=1 n=a4 v=64
170121 Off ch=1 n=f#4 v=64
170121 On ch=1 n=f#4 v=81
170121 On ch=1 n=a#4 v=81
170121 On ch=1 n=c#5 v=81
170183 Par ch=1 c=7 v=73
170238 Off ch=1 n=c#5 v=64
170238 Off ch=1 n=a#4 v=64
170238 Off ch=1 n=f#4 v=64
170241 On ch=1 n=c#5 v=80
170289 Par ch=1 c=7 v=72
170361 Off ch=1 n=c#5 v=64
170361 On ch=1 n=f#5 v=79
170361 On ch=1 n=c#6 v=79
170396 Par ch=1 c=7 v=71
170478 Off ch=1 n=c#6 v=64
170478 Off ch=1 n=f#5 v=64
170481 On ch=1 n=f#5 v=78
170501 Par ch=1 c=7 v=70
170601 Off ch=1 n=f#5 v=64
170601 On ch=1 n=a#5 v=77
170601 On ch=1 n=f#6 v=77
170607 Par ch=1 c=7 v=69
170713 Par ch=1 c=7 v=68
170718 Off ch=1 n=f#6 v=64
170718 Off ch=1 n=a#5 v=64
170721 On ch=1 n=a#5 v=76
170819 Par ch=1 c=7 v=67
170841 Off ch=1 n=a#5 v=64
170841 On ch=1 n=c#6 v=75
170841 On ch=1 n=a#6 v=75
170924 Par ch=1 c=7 v=66
170958 Off ch=1 n=a#6 v=64
170958 Off ch=1 n=c#6 v=64
170961 On ch=1 n=c#6 v=74
171031 Par ch=1 c=7 v=65
171081 Off ch=1 n=c#6 v=64
171081 On ch=1 n=f#6 v=73
171081 On ch=1 n=c#7 v=73
171137 Par ch=1 c=7 v=64
171198 Off ch=1 n=c#7 v=64
171198 Off ch=1 n=f#6 v=64
171201 On ch=1 n=f#6 v=72
171242 Par ch=1 c=7 v=63
171321 Off ch=1 n=f#6 v=64
171321 On ch=1 n=a#6 v=71
171321 On ch=1 n=f#7 v=71
171348 Par ch=1 c=7 v=62
171438 Off ch=1 n=f#7 v=64
171438 Off ch=1 n=a#6 v=64
171441 On ch=1 n=a#6 v=70
171451 Par ch=1 c=7 v=61
171556 Par ch=1 c=7 v=60
171558 Off ch=1 n=a#6 v=64
171558 On ch=1 n=a#6 v=69
171558 On ch=1 n=c#7 v=69
171558 On ch=1 n=a#7 v=69
171663 Par ch=1 c=7 v=59
171769 Par ch=1 c=7 v=58
171798 Off ch=1 n=a#7 v=64
171798 Off ch=1 n=c#7 v=64
171798 Off ch=1 n=a#6 v=64
171798 On ch=1 n=g#6 v=68
171798 On ch=1 n=c#7 v=68
171798 On ch=1 n=g#7 v=68
171875 Par ch=1 c=7 v=57
171980 Par ch=1 c=7 v=56
171998 Off ch=1 n=g#7 v=64
171998 Off ch=1 n=c#7 v=64
171998 Off ch=1 n=g#6 v=64
172038 On ch=1 n=c#6 v=67
172038 On ch=1 n=g#6 v=67
172038 On ch=1 n=c#7 v=67
172086 Par ch=1 c=7 v=55
172193 Par ch=1 c=7 v=54
172278 Off ch=1 n=c#7 v=64
172278 Off ch=1 n=g#6 v=64
172278 Off ch=1 n=c#6 v=64
172278 On ch=1 n=c#6 v=66
172278 On ch=1 n=g#6 v=66
172278 On ch=1 n=c#7 v=66
172298 Par ch=1 c=7 v=53
172404 Par ch=1 c=7 v=52
172510 Par ch=1 c=7 v=51
172518 Off ch=1 n=c#7 v=64
172518 Off ch=1 n=g#6 v=64
172518 Off ch=1 n=c#6 v=64
172518 On ch=1 n=f#6 v=65
172518 On ch=1 n=c#7 v=65
172518 On ch=1 n=f#7 v=65
172616 Par ch=1 c=7 v=50
172718 Off ch=1 n=f#7 v=64
172718 Off ch=1 n=c#7 v=64
172718 Off ch=1 n=f#6 v=64
172721 Par ch=1 c=7 v=49
172758 On ch=1 n=c#5 v=64
172758 On ch=1 n=g#5 v=64
172758 On ch=1 n=c#6 v=64
172828 Par ch=1 c=7 v=48
172934 Par ch=1 c=7 v=47
172998 Off ch=1 n=c#6 v=64
172998 Off ch=1 n=g#5 v=64
172998 Off ch=1 n=c#5 v=64
172998 On ch=1 n=c#5 v=63
172998 On ch=1 n=g#5 v=63
172998 On ch=1 n=c#6 v=63
173039 Par ch=1 c=7 v=46
173145 Par ch=1 c=7 v=45
173238 Off ch=1 n=g#5 v=64
173238 Off ch=1 n=c#5 v=64
173238 On ch=1 n=f#5 v=62
173238 On ch=1 n=f#6 v=62
173248 Par ch=1 c=7 v=44
173353 Par ch=1 c=7 v=43
173435 Off ch=1 n=f#6 v=64
173435 Off ch=1 n=f#5 v=64
173435 Off ch=1 n=c#6 v=64
173460 Par ch=1 c=7 v=42
173475 On ch=1 n=c#5 v=61
173475 On ch=1 n=g#5 v=61
173475 On ch=1 n=c#6 v=61
173566 Par ch=1 c=7 v=41
173672 Par ch=1 c=7 v=40
173675 Off ch=1 n=c#6 v=64
173675 Off ch=1 n=g#5 v=64
173675 Off ch=1 n=c#5 v=64
173715 On ch=1 n=c#5 v=60
173715 On ch=1 n=g#5 v=60
173715 On ch=1 n=c#6 v=60
173777 Par ch=1 c=7 v=39
173883 Par ch=1 c=7 v=38
173915 Off ch=1 n=g#5 v=64
173915 Off ch=1 n=c#5 v=64
173955 On ch=1 n=f#5 v=59
173955 On ch=1 n=f#6 v=59
173990 Par ch=1 c=7 v=37
174095 Par ch=1 c=7 v=36
174155 Off ch=1 n=f#6 v=64
174155 Off ch=1 n=f#5 v=64
174155 Off ch=1 n=c#6 v=64
174195 On ch=1 n=c#5 v=58
174195 On ch=1 n=g#5 v=58
174195 On ch=1 n=c#6 v=58
174201 Par ch=1 c=7 v=35
174307 Par ch=1 c=7 v=34
174395 Off ch=1 n=c#6 v=64
174395 Off ch=1 n=g#5 v=64
174395 Off ch=1 n=c#5 v=64
174413 Par ch=1 c=7 v=33
174435 On ch=1 n=c#6 v=57
174435 On ch=1 n=c#5 v=57
174518 Par ch=1 c=7 v=32
174625 Par ch=1 c=7 v=31
174731 Par ch=1 c=7 v=30
174836 Par ch=1 c=7 v=29
174942 Par ch=1 c=7 v=28
175048 Par ch=1 c=7 v=27
175153 Par ch=1 c=7 v=26
175155 Off ch=1 n=c#5 v=64
175155 Off ch=1 n=c#6 v=64
175155 On ch=1 n=a#5 v=26
175155 On ch=1 n=a#4 v=26
175155 Par ch=1 c=7 v=26
175317 Par ch=1 c=7 v=27
175481 Par ch=1 c=7 v=28
175645 Par ch=1 c=7 v=29
175808 Par ch=1 c=7 v=30
175972 Par ch=1 c=7 v=31
176136 Par ch=1 c=7 v=32
176300 Par ch=1 c=7 v=33
176463 Par ch=1 c=7 v=34
176627 Par ch=1 c=7 v=35
176791 Par ch=1 c=7 v=36
176953 Par ch=1 c=7 v=37
177117 Par ch=1 c=7 v=38
177281 Par ch=1 c=7 v=39
177445 Par ch=1 c=7 v=40
177608 Par ch=1 c=7 v=41
177772 Par ch=1 c=7 v=42
177936 Par ch=1 c=7 v=43
177975 Off ch=1 n=a#4 v=64
177975 Off ch=1 n=a#5 v=64
178100 Par ch=1 c=7 v=44
178263 Par ch=1 c=7 v=45
178427 Par ch=1 c=7 v=46
178591 Par ch=1 c=7 v=47
178753 Par ch=1 c=7 v=48
178755 Par ch=1 c=7 v=48
178755 On ch=1 n=d#4 v=48
178755 On ch=1 n=d#5 v=48
178795 Off ch=1 n=d#5 v=64
178795 Off ch=1 n=d#4 v=64
178875 On ch=1 n=d#4 v=48
178875 On ch=1 n=d#5 v=48
178915 Off ch=1 n=d#5 v=64
178915 Off ch=1 n=d#4 v=64
178995 On ch=1 n=d#4 v=48
178995 On ch=1 n=d#5 v=48
179035 Off ch=1 n=d#5 v=64
179035 Off ch=1 n=d#4 v=64
179115 On ch=1 n=d#4 v=48
179115 On ch=1 n=d#5 v=48
179155 Off ch=1 n=d#5 v=64
179155 Off ch=1 n=d#4 v=64
179235 On ch=1 n=d#4 v=67
179235 On ch=1 n=d#5 v=67
179435 Off ch=1 n=d#5 v=64
179435 Off ch=1 n=d#4 v=64
179475 On ch=1 n=f4 v=48
179475 On ch=1 n=b4 v=48
179475 On ch=1 n=d#5 v=48
179475 On ch=1 n=f5 v=48
179675 Off ch=1 n=f5 v=64
179675 Off ch=1 n=d#5 v=64
179675 Off ch=1 n=b4 v=64
179675 Off ch=1 n=f4 v=64
179715 On ch=1 n=f5 v=48
179715 On ch=1 n=b5 v=48
179715 On ch=1 n=d#6 v=48
179715 On ch=1 n=f6 v=48
179832 Off ch=1 n=f6 v=64
179832 Off ch=1 n=d#6 v=64
179832 Off ch=1 n=b5 v=64
179832 Off ch=1 n=f5 v=64
179835 On ch=1 n=d#5 v=48
179835 On ch=1 n=d#6 v=48
179952 Off ch=1 n=d#6 v=64
179952 Off ch=1 n=d#5 v=64
179955 On ch=1 n=f5 v=48
179955 On ch=1 n=a#5 v=48
179955 On ch=1 n=d6 v=48
179955 On ch=1 n=f6 v=48
180072 Off ch=1 n=f6 v=64
180072 Off ch=1 n=d6 v=64
180072 Off ch=1 n=a#5 v=64
180072 Off ch=1 n=f5 v=64
180075 On ch=1 n=f#5 v=48
180075 On ch=1 n=f#6 v=48
180192 Off ch=1 n=f#6 v=64
180192 Off ch=1 n=f#5 v=64
180195 On ch=1 n=f#4 v=48
180195 On ch=1 n=f#5 v=48
180312 Off ch=1 n=f#5 v=64
180312 Off ch=1 n=f#4 v=64
180315 On ch=1 n=f#4 v=48
180315 On ch=1 n=f#5 v=48
180432 Off ch=1 n=f#5 v=64
180432 Off ch=1 n=f#4 v=64
180435 On ch=1 n=f#4 v=48
180435 On ch=1 n=f#5 v=48
180552 Off ch=1 n=f#5 v=64
180552 Off ch=1 n=f#4 v=64
180555 On ch=1 n=f#4 v=48
180555 On ch=1 n=f#5 v=48
180672 Off ch=1 n=f#5 v=64
180672 Off ch=1 n=f#4 v=64
180675 On ch=1 n=f#4 v=48
180675 On ch=1 n=f#5 v=48
180875 Off ch=1 n=f#5 v=64
180875 Off ch=1 n=f#4 v=64
180915 On ch=1 n=g#4 v=48
180915 On ch=1 n=d5 v=48
180915 On ch=1 n=f#5 v=48
180915 On ch=1 n=g#5 v=48
181115 Off ch=1 n=g#5 v=64
181115 Off ch=1 n=f#5 v=64
181115 Off ch=1 n=d5 v=64
181115 Off ch=1 n=g#4 v=64
181155 On ch=1 n=g#5 v=48
181155 On ch=1 n=d6 v=48
181155 On ch=1 n=f#6 v=48
181155 On ch=1 n=g#6 v=48
181272 Off ch=1 n=g#6 v=64
181272 Off ch=1 n=f#6 v=64
181272 Off ch=1 n=d6 v=64
181272 Off ch=1 n=g#5 v=64
181275 On ch=1 n=f#5 v=48
181275 On ch=1 n=f#6 v=48
181392 Off ch=1 n=f#6 v=64
181392 Off ch=1 n=f#5 v=64
181395 On ch=1 n=g#5 v=48
181395 On ch=1 n=c#6 v=48
181395 On ch=1 n=f6 v=48
181395 On ch=1 n=g#6 v=48
181512 Off ch=1 n=g#6 v=64
181512 Off ch=1 n=f6 v=64
181512 Off ch=1 n=c#6 v=64
181512 Off ch=1 n=g#5 v=64
181515 On ch=1 n=a5 v=48
181515 On ch=1 n=a6 v=48
181632 Off ch=1 n=a6 v=64
181632 Off ch=1 n=a5 v=64
181635 On ch=1 n=a4 v=48
181635 On ch=1 n=a5 v=48
181752 Off ch=1 n=a5 v=64
181752 Off ch=1 n=a4 v=64
181755 On ch=1 n=a4 v=48
181755 On ch=1 n=a5 v=48
181872 Off ch=1 n=a5 v=64
181872 Off ch=1 n=a4 v=64
181875 On ch=1 n=a4 v=48
181875 On ch=1 n=a5 v=48
181992 Off ch=1 n=a5 v=64
181992 Off ch=1 n=a4 v=64
181995 On ch=1 n=a4 v=48
181995 On ch=1 n=a5 v=48
182112 Off ch=1 n=a5 v=64
182112 Off ch=1 n=a4 v=64
182115 On ch=1 n=a4 v=48
182115 On ch=1 n=a5 v=48
182315 Off ch=1 n=a5 v=64
182315 Off ch=1 n=a4 v=64
182355 On ch=1 n=b4 v=48
182355 On ch=1 n=f5 v=48
182355 On ch=1 n=a5 v=48
182355 On ch=1 n=b5 v=48
182406 Par ch=1 c=7 v=49
182457 Par ch=1 c=7 v=50
182472 Off ch=1 n=b5 v=64
182472 Off ch=1 n=a5 v=64
182472 Off ch=1 n=f5 v=64
182472 Off ch=1 n=b4 v=64
182475 On ch=1 n=b4 v=49
182475 On ch=1 n=f5 v=49
182475 On ch=1 n=a5 v=49
182475 On ch=1 n=b5 v=49
182508 Par ch=1 c=7 v=51
182560 Par ch=1 c=7 v=52
182592 Off ch=1 n=b5 v=64
182592 Off ch=1 n=a5 v=64
182592 Off ch=1 n=f5 v=64
182592 Off ch=1 n=b4 v=64
182595 On ch=1 n=b4 v=50
182595 On ch=1 n=f5 v=50
182595 On ch=1 n=a5 v=50
182595 On ch=1 n=b5 v=50
182611 Par ch=1 c=7 v=53
182662 Par ch=1 c=7 v=54
182712 Off ch=1 n=b5 v=64
182712 Off ch=1 n=a5 v=64
182712 Off ch=1 n=f5 v=64
182712 Off ch=1 n=b4 v=64
182713 Par ch=1 c=7 v=55
182715 On ch=1 n=b4 v=51
182715 On ch=1 n=f5 v=51
182715 On ch=1 n=a5 v=51
182715 On ch=1 n=b5 v=51
182766 Par ch=1 c=7 v=56
182817 Par ch=1 c=7 v=57
182832 Off ch=1 n=b5 v=64
182832 Off ch=1 n=a5 v=64
182832 Off ch=1 n=f5 v=64
182832 Off ch=1 n=b4 v=64
182835 On ch=1 n=b4 v=52
182835 On ch=1 n=f5 v=52
182835 On ch=1 n=a5 v=52
182835 On ch=1 n=b5 v=52
182868 Par ch=1 c=7 v=58
182920 Par ch=1 c=7 v=59
182971 Par ch=1 c=7 v=60
183022 Par ch=1 c=7 v=61
183032 Off ch=1 n=b5 v=64
183032 Off ch=1 n=a5 v=64
183032 Off ch=1 n=f5 v=64
183032 Off ch=1 n=b4 v=64
183070 Par ch=1 c=7 v=62
183072 Par ch=1 c=7 v=62
183072 On ch=1 n=c5 v=62
183072 On ch=1 n=d#5 v=62
183072 On ch=1 n=a5 v=62
183072 On ch=1 n=c6 v=62
183123 Par ch=1 c=7 v=63
183174 Par ch=1 c=7 v=64
183189 Off ch=1 n=c6 v=64
183189 Off ch=1 n=a5 v=64
183189 Off ch=1 n=d#5 v=64
183189 Off ch=1 n=c5 v=64
183192 On ch=1 n=c5 v=63
183192 On ch=1 n=d#5 v=63
183192 On ch=1 n=a5 v=63
183192 On ch=1 n=c6 v=63
183225 Par ch=1 c=7 v=65
183277 Par ch=1 c=7 v=66
183309 Off ch=1 n=c6 v=64
183309 Off ch=1 n=a5 v=64
183309 Off ch=1 n=d#5 v=64
183309 Off ch=1 n=c5 v=64
183312 On ch=1 n=c5 v=64
183312 On ch=1 n=d#5 v=64
183312 On ch=1 n=a5 v=64
183312 On ch=1 n=c6 v=64
183328 Par ch=1 c=7 v=67
183379 Par ch=1 c=7 v=68
183429 Off ch=1 n=c6 v=64
183429 Off ch=1 n=a5 v=64
183429 Off ch=1 n=d#5 v=64
183429 Off ch=1 n=c5 v=64
183430 Par ch=1 c=7 v=69
183432 On ch=1 n=c5 v=65
183432 On ch=1 n=d#5 v=65
183432 On ch=1 n=a5 v=65
183432 On ch=1 n=c6 v=65
183483 Par ch=1 c=7 v=70
183534 Par ch=1 c=7 v=71
183549 Off ch=1 n=c6 v=64
183549 Off ch=1 n=a5 v=64
183549 Off ch=1 n=d#5 v=64
183549 Off ch=1 n=c5 v=64
183552 On ch=1 n=c5 v=66
183552 On ch=1 n=d#5 v=66
183552 On ch=1 n=a5 v=66
183552 On ch=1 n=c6 v=66
183585 Par ch=1 c=7 v=72
183637 Par ch=1 c=7 v=73
183688 Par ch=1 c=7 v=74
183739 Par ch=1 c=7 v=75
183749 Off ch=1 n=c6 v=64
183749 Off ch=1 n=a5 v=64
183749 Off ch=1 n=d#5 v=64
183749 Off ch=1 n=c5 v=64
183787 Par ch=1 c=7 v=76
183789 Par ch=1 c=7 v=76
183789 On ch=1 n=e5 v=76
183789 On ch=1 n=f#5 v=76
183789 On ch=1 n=a#5 v=76
183789 On ch=1 n=e6 v=76
184029 Off ch=1 n=e6 v=64
184029 Off ch=1 n=a#5 v=64
184029 Off ch=1 n=f#5 v=64
184029 Off ch=1 n=e5 v=64
184029 On ch=1 n=d5 v=76
184029 On ch=1 n=g5 v=76
184029 On ch=1 n=d6 v=76
184229 Off ch=1 n=d6 v=64
184229 Off ch=1 n=g5 v=64
184229 Off ch=1 n=d5 v=64
184269 On ch=1 n=d4 v=76
184269 On ch=1 n=d5 v=76
184509 Off ch=1 n=d5 v=64
184509 Off ch=1 n=d4 v=64
184509 On ch=1 n=c#4 v=76
184509 On ch=1 n=c#5 v=76
184549 Par ch=1 c=7 v=77
184589 Par ch=1 c=7 v=78
184626 Off ch=1 n=c#5 v=64
184626 Off ch=1 n=c#4 v=64
184629 Par ch=1 c=7 v=79
184629 On ch=1 n=c#5 v=77
184669 Par ch=1 c=7 v=80
184709 Par ch=1 c=7 v=81
184749 Off ch=1 n=c#5 v=64
184749 Par ch=1 c=7 v=82
184749 On ch=1 n=f#5 v=78
184749 On ch=1 n=c#6 v=78
184789 Par ch=1 c=7 v=83
184829 Par ch=1 c=7 v=84
184866 Off ch=1 n=c#6 v=64
184866 Off ch=1 n=f#5 v=64
184869 On ch=1 n=f#5 v=79
184869 Par ch=1 c=7 v=85
184909 Par ch=1 c=7 v=86
184949 Par ch=1 c=7 v=87
184989 Off ch=1 n=f#5 v=64
184989 Par ch=1 c=7 v=88
184989 On ch=1 n=a5 v=80
184989 On ch=1 n=f#6 v=80
185029 Par ch=1 c=7 v=89
185069 Par ch=1 c=7 v=90
185106 Off ch=1 n=f#6 v=64
185106 Off ch=1 n=a5 v=64
185109 Par ch=1 c=7 v=91
185109 On ch=1 n=a5 v=81
185149 Par ch=1 c=7 v=92
185189 Par ch=1 c=7 v=93
185229 Off ch=1 n=a5 v=64
185229 Par ch=1 c=7 v=94
185229 On ch=1 n=c#6 v=82
185229 On ch=1 n=a6 v=82
185269 Par ch=1 c=7 v=95
185309 Par ch=1 c=7 v=96
185346 Off ch=1 n=a6 v=64
185346 Off ch=1 n=c#6 v=64
185349 Par ch=1 c=7 v=97
185349 On ch=1 n=c#6 v=83
185389 Par ch=1 c=7 v=98
185429 Par ch=1 c=7 v=99
185469 Off ch=1 n=c#6 v=64
185469 Par ch=1 c=7 v=100
185469 On ch=1 n=f#6 v=84
185469 On ch=1 n=c#7 v=84
185509 Par ch=1 c=7 v=101
185549 Par ch=1 c=7 v=102
185586 Off ch=1 n=c#7 v=64
185586 Off ch=1 n=f#6 v=64
185589 On ch=1 n=f#6 v=85
185589 Par ch=1 c=7 v=103
185629 Par ch=1 c=7 v=104
185669 Par ch=1 c=7 v=105
185709 Off ch=1 n=f#6 v=64
185709 Par ch=1 c=7 v=106
185709 On ch=1 n=a6 v=86
185709 On ch=1 n=f#7 v=86
185749 Par ch=1 c=7 v=107
185789 Par ch=1 c=7 v=108
185826 Off ch=1 n=f#7 v=64
185826 Off ch=1 n=a6 v=64
185829 Par ch=1 c=7 v=109
185829 On ch=1 n=a6 v=87
185869 Par ch=1 c=7 v=110
185909 Par ch=1 c=7 v=111
185949 Off ch=1 n=a6 v=64
185949 Par ch=1 c=7 v=112
185949 On ch=1 n=a6 v=112
185949 On ch=1 n=c#7 v=112
185949 On ch=1 n=a7 v=112
186189 Off ch=1 n=a7 v=64
186189 Off ch=1 n=c#7 v=64
186189 Off ch=1 n=a6 v=64
186189 On ch=1 n=g#6 v=112
186189 On ch=1 n=c#7 v=112
186189 On ch=1 n=g#7 v=112
186389 Off ch=1 n=g#7 v=64
186389 Off ch=1 n=c#7 v=64
186389 Off ch=1 n=g#6 v=64
186429 On ch=1 n=c#6 v=112
186429 On ch=1 n=g#6 v=112
186429 On ch=1 n=c#7 v=112
186669 Off ch=1 n=c#7 v=64
186669 Off ch=1 n=g#6 v=64
186669 Off ch=1 n=c#6 v=64
186669 On ch=1 n=c#6 v=112
186669 On ch=1 n=g#6 v=112
186669 On ch=1 n=c#7 v=112
186709 Par ch=1 c=7 v=111
186749 Par ch=1 c=7 v=110
186789 Par ch=1 c=7 v=109
186829 Par ch=1 c=7 v=108
186869 Par ch=1 c=7 v=107
186909 Off ch=1 n=c#7 v=64
186909 Off ch=1 n=g#6 v=64
186909 Off ch=1 n=c#6 v=64
186909 Par ch=1 c=7 v=106
186909 On ch=1 n=f#6 v=111
186909 On ch=1 n=c#7 v=111
186909 On ch=1 n=f#7 v=111
186949 Par ch=1 c=7 v=105
186989 Par ch=1 c=7 v=104
187029 Par ch=1 c=7 v=103
187069 Par ch=1 c=7 v=102
187109 Off ch=1 n=f#7 v=64
187109 Off ch=1 n=c#7 v=64
187109 Off ch=1 n=f#6 v=64
187109 Par ch=1 c=7 v=101
187149 Par ch=1 c=7 v=100
187149 On ch=1 n=c#5 v=100
187149 On ch=1 n=g#5 v=100
187149 On ch=1 n=c#6 v=100
187389 Off ch=1 n=c#6 v=64
187389 Off ch=1 n=g#5 v=64
187389 Off ch=1 n=c#5 v=64
187389 On ch=1 n=c#5 v=100
187389 On ch=1 n=g#5 v=100
187389 On ch=1 n=c#6 v=100
187629 Off ch=1 n=c#6 v=64
187629 Off ch=1 n=g#5 v=64
187629 Off ch=1 n=c#5 v=64
187629 On ch=1 n=f#5 v=100
187629 On ch=1 n=c#6 v=100
187629 On ch=1 n=f#6 v=100
187829 Off ch=1 n=f#6 v=64
187829 Off ch=1 n=c#6 v=64
187829 Off ch=1 n=f#5 v=64
187869 On ch=1 n=c#5 v=100
187869 On ch=1 n=g#5 v=100
187869 On ch=1 n=c#6 v=100
188109 Off ch=1 n=c#6 v=64
188109 Off ch=1 n=g#5 v=64
188109 Off ch=1 n=c#5 v=64
188109 On ch=1 n=c#5 v=100
188109 On ch=1 n=g#5 v=100
188109 On ch=1 n=c#6 v=100
188349 Off ch=1 n=c#6 v=64
188349 Off ch=1 n=g#5 v=64
188349 Off ch=1 n=c#5 v=64
188349 On ch=1 n=f#6 v=100
188349 On ch=1 n=c#6 v=100
188349 On ch=1 n=f#5 v=100
188589 Off ch=1 n=f#5 v=64
188589 Off ch=1 n=c#6 v=64
188589 Off ch=1 n=f#6 v=64
188589 On ch=1 n=c#5 v=100
188589 On ch=1 n=c#6 v=100
188829 Par ch=1 c=7 v=112
189029 Off ch=1 n=c#6 v=64
189069 On ch=1 n=d5 v=112
189069 On ch=1 n=d6 v=112
189186 Off ch=1 n=d6 v=64
189186 Off ch=1 n=d5 v=64
189189 On ch=1 n=c#6 v=112
189306 Off ch=1 n=c#6 v=64
189306 Off ch=1 n=c#5 v=64
189309 On ch=1 n=g#4 v=112
189309 On ch=1 n=g#5 v=112
189426 Off ch=1 n=g#5 v=64
189426 Off ch=1 n=g#4 v=64
189429 On ch=1 n=a4 v=112
189429 On ch=1 n=a5 v=112
189546 Off ch=1 n=a5 v=64
189546 Off ch=1 n=a4 v=64
189549 On ch=1 n=f#5 v=112
189549 On ch=1 n=f#4 v=112
190209 Off ch=1 n=f#4 v=64
190209 Off ch=1 n=f#5 v=64
190269 Par ch=1 c=7 v=120
190269 On ch=1 n=d5 v=127
190269 On ch=1 n=d6 v=127
190469 Off ch=1 n=d6 v=64
190469 Off ch=1 n=d5 v=64
190509 Par ch=1 c=7 v=94
190509 On ch=1 n=d5 v=94
190629 Off ch=1 n=d5 v=64
190629 On ch=1 n=d5 v=95
190655 Par ch=1 c=7 v=95
190749 Off ch=1 n=d5 v=64
190749 On ch=1 n=c#5 v=96
190801 Par ch=1 c=7 v=96
190869 Off ch=1 n=c#5 v=64
190869 On ch=1 n=d5 v=97
190949 Par ch=1 c=7 v=97
190989 Off ch=1 n=d5 v=64
190989 On ch=1 n=a#4 v=98
190989 On ch=1 n=d#5 v=98
191095 Par ch=1 c=7 v=98
191109 Off ch=1 n=d#5 v=64
191109 Off ch=1 n=a#4 v=64
191109 On ch=1 n=b4 v=99
191109 On ch=1 n=e5 v=99
191229 Off ch=1 n=e5 v=64
191229 Off ch=1 n=b4 v=64
191229 On ch=1 n=c5 v=100
191229 On ch=1 n=f5 v=100
191241 Par ch=1 c=7 v=99
191349 Off ch=1 n=f5 v=64
191349 Off ch=1 n=c5 v=64
191349 On ch=1 n=f#5 v=101
191349 On ch=1 n=c#5 v=101
191389 Par ch=1 c=7 v=100
191469 Off ch=1 n=c#5 v=64
191469 Off ch=1 n=f#5 v=64
191469 On ch=1 n=d5 v=102
191469 On ch=1 n=g5 v=102
191535 Par ch=1 c=7 v=101
191589 Off ch=1 n=g5 v=64
191589 Off ch=1 n=d5 v=64
191589 On ch=1 n=d#5 v=103
191589 On ch=1 n=g#5 v=103
191681 Par ch=1 c=7 v=102
191709 Off ch=1 n=g#5 v=64
191709 Off ch=1 n=d#5 v=64
191709 On ch=1 n=e5 v=104
191709 On ch=1 n=a5 v=104
191829 Off ch=1 n=a5 v=64
191829 Off ch=1 n=e5 v=64
191829 Par ch=1 c=7 v=103
191829 On ch=1 n=f5 v=105
191829 On ch=1 n=a#5 v=105
191949 Off ch=1 n=a#5 v=64
191949 Off ch=1 n=f5 v=64
191949 On ch=1 n=f#5 v=106
191949 On ch=1 n=b5 v=106
191975 Par ch=1 c=7 v=104
192069 Off ch=1 n=b5 v=64
192069 Off ch=1 n=f#5 v=64
192069 On ch=1 n=c6 v=107
192069 On ch=1 n=g5 v=107
192121 Par ch=1 c=7 v=105
192189 Off ch=1 n=g5 v=64
192189 Off ch=1 n=c6 v=64
192189 On ch=1 n=g#5 v=108
192189 On ch=1 n=c#6 v=108
192269 Par ch=1 c=7 v=106
192309 Off ch=1 n=c#6 v=64
192309 Off ch=1 n=g#5 v=64
192309 On ch=1 n=a5 v=109
192309 On ch=1 n=d6 v=109
192415 Par ch=1 c=7 v=107
192429 Off ch=1 n=d6 v=64
192429 Off ch=1 n=a5 v=64
192429 On ch=1 n=a5 v=110
192429 On ch=1 n=d6 v=110
192561 Par ch=1 c=7 v=108
192629 Off ch=1 n=d6 v=64
192629 Off ch=1 n=a5 v=64
192669 On ch=1 n=a#5 v=111
192669 On ch=1 n=d#6 v=111
192709 Par ch=1 c=7 v=109
192855 Par ch=1 c=7 v=110
192869 Off ch=1 n=d#6 v=64
192869 Off ch=1 n=a#5 v=64
192909 On ch=1 n=d#6 v=112
192909 On ch=1 n=d#7 v=112
192969 Off ch=1 n=d#7 v=64
192969 Off ch=1 n=d#6 v=64
193001 Par ch=1 c=7 v=111
193149 Par ch=1 c=7 v=112
193149 On ch=1 n=d#7 v=112
193149 On ch=1 n=d#8 v=112
193209 Off ch=1 n=d#8 v=64
193209 Off ch=1 n=d#7 v=64
193389 Par ch=1 c=7 v=90
193389 On ch=1 n=a#4 v=90
193389 On ch=1 n=d#5 v=90
193509 Off ch=1 n=d#5 v=64
193509 Off ch=1 n=a#4 v=64
193509 On ch=1 n=d#5 v=90
193509 On ch=1 n=a#4 v=90
193629 Off ch=1 n=a#4 v=64
193629 Off ch=1 n=d#5 v=64
193629 On ch=1 n=a4 v=90
193629 On ch=1 n=d5 v=90
193749 Off ch=1 n=d5 v=64
193749 Off ch=1 n=a4 v=64
193749 On ch=1 n=a#4 v=90
193749 On ch=1 n=d#5 v=90
193869 Off ch=1 n=d#5 v=64
193869 Off ch=1 n=a#4 v=64
193869 On ch=1 n=b4 v=90
193869 On ch=1 n=e5 v=90
193966 Par ch=1 c=7 v=91
193989 Off ch=1 n=e5 v=64
193989 Off ch=1 n=b4 v=64
193989 On ch=1 n=c5 v=91
193989 On ch=1 n=f5 v=91
194065 Par ch=1 c=7 v=92
194109 Off ch=1 n=f5 v=64
194109 Off ch=1 n=c5 v=64
194109 On ch=1 n=c#5 v=92
194109 On ch=1 n=f#5 v=92
194162 Par ch=1 c=7 v=93
194229 Off ch=1 n=f#5 v=64
194229 Off ch=1 n=c#5 v=64
194229 On ch=1 n=g5 v=93
194229 On ch=1 n=d5 v=93
194261 Par ch=1 c=7 v=94
194349 Off ch=1 n=d5 v=64
194349 Off ch=1 n=g5 v=64
194349 On ch=1 n=d#5 v=94
194349 On ch=1 n=g#5 v=94
194359 Par ch=1 c=7 v=95
194457 Par ch=1 c=7 v=96
194469 Off ch=1 n=g#5 v=64
194469 Off ch=1 n=d#5 v=64
194469 On ch=1 n=e5 v=95
194469 On ch=1 n=a5 v=95
194555 Par ch=1 c=7 v=97
194589 Off ch=1 n=a5 v=64
194589 Off ch=1 n=e5 v=64
194589 On ch=1 n=f5 v=96
194589 On ch=1 n=a#5 v=96
194654 Par ch=1 c=7 v=98
194709 Off ch=1 n=a#5 v=64
194709 Off ch=1 n=f5 v=64
194709 On ch=1 n=f#5 v=97
194709 On ch=1 n=b5 v=97
194751 Par ch=1 c=7 v=99
194829 Off ch=1 n=b5 v=64
194829 Off ch=1 n=f#5 v=64
194829 On ch=1 n=g5 v=98
194829 On ch=1 n=c6 v=98
194850 Par ch=1 c=7 v=100
194949 Off ch=1 n=c6 v=64
194949 Off ch=1 n=g5 v=64
194949 On ch=1 n=c#6 v=99
194949 On ch=1 n=g#5 v=99
194949 Par ch=1 c=7 v=101
195046 Par ch=1 c=7 v=102
195069 Off ch=1 n=g#5 v=64
195069 Off ch=1 n=c#6 v=64
195069 On ch=1 n=a5 v=100
195069 On ch=1 n=d6 v=100
195145 Par ch=1 c=7 v=103
195189 Off ch=1 n=d6 v=64
195189 Off ch=1 n=a5 v=64
195189 On ch=1 n=a#5 v=101
195189 On ch=1 n=d#6 v=101
195242 Par ch=1 c=7 v=104
195309 Off ch=1 n=d#6 v=64
195309 Off ch=1 n=a#5 v=64
195309 On ch=1 n=a#5 v=102
195309 On ch=1 n=d#6 v=102
195341 Par ch=1 c=7 v=105
195439 Par ch=1 c=7 v=106
195537 Par ch=1 c=7 v=107
195549 Off ch=1 n=d#6 v=64
195549 Off ch=1 n=a#5 v=64
195549 On ch=1 n=b5 v=103
195549 On ch=1 n=e6 v=103
195635 Par ch=1 c=7 v=108
195734 Par ch=1 c=7 v=109
195749 Off ch=1 n=e6 v=64
195749 Off ch=1 n=b5 v=64
195789 On ch=1 n=e6 v=104
195789 On ch=1 n=b6 v=104
195789 On ch=1 n=e7 v=104
195831 Par ch=1 c=7 v=110
195849 Off ch=1 n=e7 v=64
195849 Off ch=1 n=b6 v=64
195849 Off ch=1 n=e6 v=64
195930 Par ch=1 c=7 v=111
196029 Par ch=1 c=7 v=112
196029 On ch=1 n=e7 v=112
196029 On ch=1 n=e8 v=112
196089 Off ch=1 n=e8 v=64
196089 Off ch=1 n=e7 v=64
196269 Par ch=1 c=7 v=88
196269 On ch=1 n=e5 v=88
196269 On ch=1 n=e6 v=88
196389 Off ch=1 n=e6 v=64
196389 Off ch=1 n=e5 v=64
196389 On ch=1 n=e6 v=88
196389 On ch=1 n=e5 v=88
196509 Off ch=1 n=e5 v=64
196509 Off ch=1 n=e6 v=64
196509 On ch=1 n=d#5 v=88
196509 On ch=1 n=d#6 v=88
196629 Off ch=1 n=d#6 v=64
196629 Off ch=1 n=d#5 v=64
196629 On ch=1 n=e5 v=88
196629 On ch=1 n=e6 v=88
196746 Off ch=1 n=e6 v=64
196746 Off ch=1 n=e5 v=64
196749 On ch=1 n=f5 v=88
196749 On ch=1 n=f6 v=88
196869 Off ch=1 n=f6 v=64
196869 Off ch=1 n=f5 v=64
196869 On ch=1 n=f#5 v=88
196869 On ch=1 n=f#6 v=88
196986 Off ch=1 n=f#6 v=64
196986 Off ch=1 n=f#5 v=64
196989 On ch=1 n=g5 v=88
196989 On ch=1 n=g6 v=88
197029 Off ch=1 n=g6 v=64
197029 Off ch=1 n=g5 v=64
197109 On ch=1 n=g5 v=88
197109 On ch=1 n=g6 v=88
197149 Off ch=1 n=g6 v=64
197149 Off ch=1 n=g5 v=64
197229 On ch=1 n=g5 v=88
197229 On ch=1 n=g6 v=88
197269 Off ch=1 n=g6 v=64
197269 Off ch=1 n=g5 v=64
197349 On ch=1 n=g5 v=88
197349 On ch=1 n=g6 v=88
197389 Off ch=1 n=g6 v=64
197389 Off ch=1 n=g5 v=64
197469 On ch=1 n=g5 v=88
197469 On ch=1 n=g6 v=88
197589 Off ch=1 n=g6 v=64
197589 Off ch=1 n=g5 v=64
197589 On ch=1 n=f#5 v=88
197589 On ch=1 n=f#6 v=88
197706 Off ch=1 n=f#6 v=64
197706 Off ch=1 n=f#5 v=64
197709 On ch=1 n=f#5 v=88
197709 On ch=1 n=f#6 v=88
197749 Off ch=1 n=f#6 v=64
197749 Off ch=1 n=f#5 v=64
197829 On ch=1 n=f#5 v=88
197829 On ch=1 n=f#6 v=88
197869 Off ch=1 n=f#6 v=64
197869 Off ch=1 n=f#5 v=64
197949 On ch=1 n=f5 v=88
197949 On ch=1 n=f6 v=88
197989 Off ch=1 n=f6 v=64
197989 Off ch=1 n=f5 v=64
198069 On ch=1 n=f#5 v=88
198069 On ch=1 n=f#6 v=88
198109 Off ch=1 n=f#6 v=64
198109 Off ch=1 n=f#5 v=64
198189 On ch=1 n=g5 v=88
198189 On ch=1 n=g6 v=88
198309 Off ch=1 n=g6 v=64
198309 Off ch=1 n=g5 v=64
198309 On ch=1 n=g#5 v=88
198309 On ch=1 n=g#6 v=88
198426 Off ch=1 n=g#6 v=64
198426 Off ch=1 n=g#5 v=64
198429 On ch=1 n=a5 v=88
198429 On ch=1 n=a6 v=88
198469 Off ch=1 n=a6 v=64
198469 Off ch=1 n=a5 v=64
198549 On ch=1 n=a5 v=88
198549 On ch=1 n=a6 v=88
198579 Par ch=1 c=7 v=89
198589 Off ch=1 n=a6 v=64
198589 Off ch=1 n=a5 v=64
198669 On ch=1 n=a5 v=88
198669 On ch=1 n=a6 v=88
198709 Off ch=1 n=a6 v=64
198709 Off ch=1 n=a5 v=64
198729 Par ch=1 c=7 v=90
198789 On ch=1 n=a5 v=88
198789 On ch=1 n=a6 v=88
198829 Off ch=1 n=a6 v=64
198829 Off ch=1 n=a5 v=64
198879 Par ch=1 c=7 v=91
198909 On ch=1 n=a5 v=88
198909 On ch=1 n=a6 v=88
199029 Off ch=1 n=a6 v=64
199029 Off ch=1 n=a5 v=64
199029 Par ch=1 c=7 v=92
199029 On ch=1 n=g#5 v=88
199029 On ch=1 n=g#6 v=88
199146 Off ch=1 n=g#6 v=64
199146 Off ch=1 n=g#5 v=64
199149 On ch=1 n=g#5 v=88
199149 On ch=1 n=g#6 v=88
199179 Par ch=1 c=7 v=93
199189 Off ch=1 n=g#6 v=64
199189 Off ch=1 n=g#5 v=64
199269 On ch=1 n=g#5 v=88
199269 On ch=1 n=g#6 v=88
199309 Off ch=1 n=g#6 v=64
199309 Off ch=1 n=g#5 v=64
199329 Par ch=1 c=7 v=94
199389 On ch=1 n=g5 v=88
199389 On ch=1 n=g6 v=88
199429 Off ch=1 n=g6 v=64
199429 Off ch=1 n=g5 v=64
199479 Par ch=1 c=7 v=95
199509 On ch=1 n=g#5 v=88
199509 On ch=1 n=g#6 v=88
199549 Off ch=1 n=g#6 v=64
199549 Off ch=1 n=g#5 v=64
199629 Par ch=1 c=7 v=96
199629 On ch=1 n=g#5 v=96
199629 On ch=1 n=c#6 v=96
199629 On ch=1 n=g#6 v=96
199829 Off ch=1 n=g#6 v=64
199829 Off ch=1 n=c#6 v=64
199829 Off ch=1 n=g#5 v=64
199869 On ch=1 n=a#5 v=96
199869 On ch=1 n=a#6 v=96
199896 Off ch=1 n=a#6 v=64
199896 Off ch=1 n=a#5 v=64
199899 On ch=1 n=g#5 v=96
199899 On ch=1 n=c#6 v=96
199899 On ch=1 n=g#6 v=96
199986 Off ch=1 n=g#6 v=64
199986 Off ch=1 n=c#6 v=64
199986 Off ch=1 n=g#5 v=64
199989 On ch=1 n=g5 v=96
199989 On ch=1 n=g6 v=96
200106 Off ch=1 n=g6 v=64
200106 Off ch=1 n=g5 v=64
200109 On ch=1 n=g#5 v=96
200109 On ch=1 n=c#6 v=96
200109 On ch=1 n=g#6 v=96
200226 Off ch=1 n=g#6 v=64
200226 Off ch=1 n=c#6 v=64
200226 Off ch=1 n=g#5 v=64
200229 On ch=1 n=a#5 v=96
200229 On ch=1 n=a#6 v=96
200346 Off ch=1 n=a#6 v=64
200346 Off ch=1 n=a#5 v=64
200349 On ch=1 n=g#5 v=96
200349 On ch=1 n=c#6 v=96
200349 On ch=1 n=g#6 v=96
200549 Off ch=1 n=g#6 v=64
200549 Off ch=1 n=c#6 v=64
200549 Off ch=1 n=g#5 v=64
200589 On ch=1 n=g#6 v=96
200589 On ch=1 n=g#7 v=96
200649 Off ch=1 n=g#7 v=64
200649 Off ch=1 n=g#6 v=64
200829 On ch=1 n=f#5 v=96
200829 On ch=1 n=c#6 v=96
200829 On ch=1 n=f#6 v=96
201029 Off ch=1 n=f#6 v=64
201029 Off ch=1 n=c#6 v=64
201029 Off ch=1 n=f#5 v=64
201069 On ch=1 n=f#5 v=96
201069 On ch=1 n=b5 v=96
201069 On ch=1 n=f#6 v=96
201269 Off ch=1 n=f#6 v=64
201269 Off ch=1 n=b5 v=64
201269 Off ch=1 n=f#5 v=64
201309 On ch=1 n=g#5 v=96
201309 On ch=1 n=g#6 v=96
201336 Off ch=1 n=g#6 v=64
201336 Off ch=1 n=g#5 v=64
201339 On ch=1 n=f#5 v=96
201339 On ch=1 n=b5 v=96
201339 On ch=1 n=f#6 v=96
201426 Off ch=1 n=f#6 v=64
201426 Off ch=1 n=b5 v=64
201426 Off ch=1 n=f#5 v=64
201429 On ch=1 n=f5 v=96
201429 On ch=1 n=f6 v=96
201546 Off ch=1 n=f6 v=64
201546 Off ch=1 n=f5 v=64
201549 On ch=1 n=f#5 v=96
201549 On ch=1 n=b5 v=96
201549 On ch=1 n=f#6 v=96
201666 Off ch=1 n=f#6 v=64
201666 Off ch=1 n=b5 v=64
201666 Off ch=1 n=f#5 v=64
201669 On ch=1 n=g#5 v=96
201669 On ch=1 n=g#6 v=96
201786 Off ch=1 n=g#6 v=64
201786 Off ch=1 n=g#5 v=64
201789 On ch=1 n=f#5 v=96
201789 On ch=1 n=b5 v=96
201789 On ch=1 n=f#6 v=96
201989 Off ch=1 n=f#6 v=64
201989 Off ch=1 n=b5 v=64
201989 Off ch=1 n=f#5 v=64
202029 On ch=1 n=f#6 v=96
202029 On ch=1 n=f#7 v=96
202229 Off ch=1 n=f#7 v=64
202229 Off ch=1 n=f#6 v=64
202269 On ch=1 n=e5 v=96
202269 On ch=1 n=b5 v=96
202269 On ch=1 n=e6 v=96
202469 Off ch=1 n=e6 v=64
202469 Off ch=1 n=b5 v=64
202469 Off ch=1 n=e5 v=64
202509 On ch=1 n=e5 v=96
202509 On ch=1 n=a5 v=96
202509 On ch=1 n=e6 v=96
202709 Off ch=1 n=e6 v=64
202709 Off ch=1 n=a5 v=64
202709 Off ch=1 n=e5 v=64
202749 On ch=1 n=f#5 v=96
202749 On ch=1 n=f#6 v=96
202776 Off ch=1 n=f#6 v=64
202776 Off ch=1 n=f#5 v=64
202779 On ch=1 n=e5 v=96
202779 On ch=1 n=a5 v=96
202779 On ch=1 n=e6 v=96
202866 Off ch=1 n=e6 v=64
202866 Off ch=1 n=a5 v=64
202866 Off ch=1 n=e5 v=64
202869 On ch=1 n=d#5 v=96
202869 On ch=1 n=d#6 v=96
202986 Off ch=1 n=d#6 v=64
202986 Off ch=1 n=d#5 v=64
202989 On ch=1 n=e5 v=96
202989 On ch=1 n=a5 v=96
202989 On ch=1 n=e6 v=96
203106 Off ch=1 n=e6 v=64
203106 Off ch=1 n=a5 v=64
203106 Off ch=1 n=e5 v=64
203109 On ch=1 n=f#5 v=96
203109 On ch=1 n=f#6 v=96
203226 Off ch=1 n=f#6 v=64
203226 Off ch=1 n=f#5 v=64
203229 On ch=1 n=d#5 v=96
203229 On ch=1 n=a5 v=96
203229 On ch=1 n=d#6 v=96
203269 Par ch=1 c=7 v=97
203309 Par ch=1 c=7 v=98
203346 Off ch=1 n=d#6 v=64
203346 Off ch=1 n=a5 v=64
203346 Off ch=1 n=d#5 v=64
203349 Par ch=1 c=7 v=99
203349 On ch=1 n=d#5 v=97
203389 Par ch=1 c=7 v=100
203429 Par ch=1 c=7 v=101
203469 Off ch=1 n=d#5 v=64
203469 Par ch=1 c=7 v=102
203469 On ch=1 n=f#5 v=98
203469 On ch=1 n=d#6 v=98
203509 Par ch=1 c=7 v=103
203549 Par ch=1 c=7 v=104
203586 Off ch=1 n=d#6 v=64
203586 Off ch=1 n=f#5 v=64
203589 On ch=1 n=d#6 v=99
203589 Par ch=1 c=7 v=105
203629 Par ch=1 c=7 v=106
203669 Par ch=1 c=7 v=107
203709 Off ch=1 n=d#6 v=64
203709 Par ch=1 c=7 v=108
203709 On ch=1 n=f#6 v=100
203709 On ch=1 n=d#7 v=100
203749 Par ch=1 c=7 v=109
203789 Par ch=1 c=7 v=110
203826 Off ch=1 n=d#7 v=64
203826 Off ch=1 n=f#6 v=64
203829 Par ch=1 c=7 v=111
203829 On ch=1 n=d#7 v=101
203869 Par ch=1 c=7 v=112
203909 Par ch=1 c=7 v=113
203949 Off ch=1 n=d#7 v=64
203949 Par ch=1 c=7 v=114
203949 On ch=1 n=f#7 v=114
203949 On ch=1 n=d#8 v=114
204149 Off ch=1 n=d#8 v=64
204149 Off ch=1 n=f#7 v=64
204189 On ch=1 n=d#5 v=114
204189 On ch=1 n=f#5 v=114
204189 On ch=1 n=a5 v=114
204389 Off ch=1 n=a5 v=64
204389 Off ch=1 n=f#5 v=64
204389 Off ch=1 n=d#5 v=64
204429 On ch=1 n=f#5 v=114
204429 On ch=1 n=a5 v=114
204429 On ch=1 n=f#6 v=114
204489 Off ch=1 n=f#6 v=64
204489 Off ch=1 n=a5 v=64
204489 Off ch=1 n=f#5 v=64
204669 On ch=1 n=f5 v=114
204669 On ch=1 n=a#5 v=114
204669 On ch=1 n=f6 v=114
204684 Par ch=1 c=7 v=113
204700 Par ch=1 c=7 v=112
204716 Par ch=1 c=7 v=111
204726 Off ch=1 n=f6 v=64
204726 Off ch=1 n=a#5 v=64
204726 Off ch=1 n=f5 v=64
204729 Par ch=1 c=7 v=110
204746 Par ch=1 c=7 v=109
204761 Par ch=1 c=7 v=108
204777 Par ch=1 c=7 v=107
204793 Par ch=1 c=7 v=106
204809 Par ch=1 c=7 v=105
204826 Par ch=1 c=7 v=104
204841 Par ch=1 c=7 v=103
204857 Par ch=1 c=7 v=102
204873 Par ch=1 c=7 v=101
204889 Par ch=1 c=7 v=100
204906 Par ch=1 c=7 v=99
204906 On ch=1 n=a#4 v=112
204906 On ch=1 n=f5 v=112
204906 On ch=1 n=a#5 v=112
204921 Par ch=1 c=7 v=98
204937 Par ch=1 c=7 v=97
204953 Par ch=1 c=7 v=96
204969 Par ch=1 c=7 v=95
204986 Par ch=1 c=7 v=94
205001 Par ch=1 c=7 v=93
205017 Par ch=1 c=7 v=92
205033 Par ch=1 c=7 v=91
205049 Par ch=1 c=7 v=90
205066 Par ch=1 c=7 v=89
205081 Par ch=1 c=7 v=88
205097 Par ch=1 c=7 v=87
205106 Off ch=1 n=a#5 v=64
205106 Off ch=1 n=f5 v=64
205106 Off ch=1 n=a#4 v=64
205113 Par ch=1 c=7 v=86
205129 Par ch=1 c=7 v=85
205146 Par ch=1 c=7 v=84
205146 On ch=1 n=d#5 v=110
205146 On ch=1 n=f#5 v=110
205146 On ch=1 n=c6 v=110
205146 On ch=1 n=d#6 v=110
205161 Par ch=1 c=7 v=83
205177 Par ch=1 c=7 v=82
205193 Par ch=1 c=7 v=81
205203 Off ch=1 n=d#6 v=64
205203 Off ch=1 n=c6 v=64
205203 Off ch=1 n=f#5 v=64
205203 Off ch=1 n=d#5 v=64
205206 Par ch=1 c=7 v=80
205223 Par ch=1 c=7 v=79
205238 Par ch=1 c=7 v=78
205254 Par ch=1 c=7 v=77
205270 Par ch=1 c=7 v=76
205286 Par ch=1 c=7 v=75
205303 Par ch=1 c=7 v=74
205318 Par ch=1 c=7 v=73
205334 Par ch=1 c=7 v=72
205350 Par ch=1 c=7 v=71
205366 Par ch=1 c=7 v=70
205383 Par ch=1 c=7 v=69
205383 On ch=1 n=c#5 v=108
205383 On ch=1 n=f5 v=108
205383 On ch=1 n=a#5 v=108
205383 On ch=1 n=c#6 v=108
205398 Par ch=1 c=7 v=68
205414 Par ch=1 c=7 v=67
205430 Par ch=1 c=7 v=66
205440 Off ch=1 n=c#6 v=64
205440 Off ch=1 n=a#5 v=64
205440 Off ch=1 n=f5 v=64
205440 Off ch=1 n=c#5 v=64
205443 Par ch=1 c=7 v=65
205460 Par ch=1 c=7 v=64
205475 Par ch=1 c=7 v=63
205491 Par ch=1 c=7 v=62
205507 Par ch=1 c=7 v=61
205523 Par ch=1 c=7 v=60
205540 Par ch=1 c=7 v=59
205555 Par ch=1 c=7 v=58
205571 Par ch=1 c=7 v=57
205587 Par ch=1 c=7 v=56
205603 Par ch=1 c=7 v=55
205620 Par ch=1 c=7 v=54
205620 On ch=1 n=c#5 v=106
205620 On ch=1 n=f5 v=106
205635 Par ch=1 c=7 v=53
205651 Par ch=1 c=7 v=52
205667 Par ch=1 c=7 v=51
205677 Off ch=1 n=f5 v=64
205677 Off ch=1 n=c#5 v=64
205680 Par ch=1 c=7 v=50
205697 Par ch=1 c=7 v=49
205712 Par ch=1 c=7 v=48
205728 Par ch=1 c=7 v=47
205744 Par ch=1 c=7 v=46
205760 Par ch=1 c=7 v=45
205777 Par ch=1 c=7 v=44
205792 Par ch=1 c=7 v=43
205808 Par ch=1 c=7 v=42
205824 Par ch=1 c=7 v=41
205840 Par ch=1 c=7 v=40
205857 Par ch=1 c=7 v=39
205857 On ch=1 n=d#5 v=104
205857 On ch=1 n=f5 v=104
205857 On ch=1 n=a5 v=104
205857 On ch=1 n=c6 v=104
205872 Par ch=1 c=7 v=38
205888 Par ch=1 c=7 v=37
205904 Par ch=1 c=7 v=36
205914 Off ch=1 n=c6 v=64
205914 Off ch=1 n=a5 v=64
205914 Off ch=1 n=f5 v=64
205914 Off ch=1 n=d#5 v=64
205917 Par ch=1 c=7 v=35
205934 Par ch=1 c=7 v=34
205949 Par ch=1 c=7 v=33
205965 Par ch=1 c=7 v=32
205981 Par ch=1 c=7 v=31
205997 Par ch=1 c=7 v=30
206014 Par ch=1 c=7 v=29
206029 Par ch=1 c=7 v=28
206045 Par ch=1 c=7 v=27
206061 Par ch=1 c=7 v=26
206077 Par ch=1 c=7 v=25
206094 Par ch=1 c=7 v=24
206094 On ch=1 n=c#5 v=24
206094 On ch=1 n=f5 v=24
206094 On ch=1 n=a#5 v=24
206154 Off ch=1 n=a#5 v=64
206154 Off ch=1 n=f5 v=64
206154 Off ch=1 n=c#5 v=64
206154 Par ch=1 c=7 v=25
206214 Par ch=1 c=7 v=26
206274 Par ch=1 c=7 v=27
206334 Par ch=1 c=7 v=28
206334 On ch=1 n=f4 v=25
206334 On ch=1 n=a#4 v=25
206394 Par ch=1 c=7 v=29
206454 Par ch=1 c=7 v=30
206514 Par ch=1 c=7 v=31
206534 Off ch=1 n=a#4 v=64
206534 Off ch=1 n=f4 v=64
206574 Par ch=1 c=7 v=32
206574 On ch=1 n=f#4 v=26
206574 On ch=1 n=a#4 v=26
206574 On ch=1 n=d#5 v=26
206634 Par ch=1 c=7 v=33
206694 Par ch=1 c=7 v=34
206754 Par ch=1 c=7 v=35
206774 Off ch=1 n=d#5 v=64
206774 Off ch=1 n=a#4 v=64
206774 Off ch=1 n=f#4 v=64
206814 Par ch=1 c=7 v=36
206814 On ch=1 n=f4 v=27
206814 On ch=1 n=a#4 v=27
206814 On ch=1 n=c#5 v=27
206874 Par ch=1 c=7 v=37
206934 Par ch=1 c=7 v=38
206994 Par ch=1 c=7 v=39
207014 Off ch=1 n=c#5 v=64
207014 Off ch=1 n=a#4 v=64
207014 Off ch=1 n=f4 v=64
207054 Par ch=1 c=7 v=40
207054 On ch=1 n=f4 v=28
207114 Par ch=1 c=7 v=41
207174 Par ch=1 c=7 v=42
207234 Par ch=1 c=7 v=43
207254 Off ch=1 n=f4 v=64
207294 Par ch=1 c=7 v=44
207294 On ch=1 n=d#4 v=29
207294 On ch=1 n=a4 v=29
207294 On ch=1 n=c5 v=29
207354 Par ch=1 c=7 v=45
207414 Par ch=1 c=7 v=46
207474 Par ch=1 c=7 v=47
207494 Off ch=1 n=c5 v=64
207494 Off ch=1 n=a4 v=64
207494 Off ch=1 n=d#4 v=64
207534 On ch=1 n=c#4 v=67
207534 On ch=1 n=c#3 v=67
207534 Par ch=1 c=7 v=48
208454 Off ch=1 n=c#3 v=64
208454 Off ch=1 n=c#4 v=64
208494 On ch=1 n=c#4 v=48
208494 On ch=1 n=c#5 v=48
208694 Off ch=1 n=c#5 v=64
208694 Off ch=1 n=c#4 v=64
208734 On ch=1 n=a#6 v=48
208734 On ch=1 n=a#7 v=48
208934 Off ch=1 n=a#7 v=64
208934 Off ch=1 n=a#6 v=64
208974 On ch=1 n=a#5 v=67
208974 On ch=1 n=a#4 v=67
209694 Off ch=1 n=a#4 v=64
209694 On ch=1 n=a#4 v=48
209894 Off ch=1 n=a#4 v=64
209894 Off ch=1 n=a#5 v=64
209934 On ch=1 n=a#5 v=48
209934 On ch=1 n=a#6 v=48
210134 Off ch=1 n=a#6 v=64
210134 Off ch=1 n=a#5 v=64
210174 On ch=1 n=a#6 v=48
210174 On ch=1 n=a#7 v=48
210254 Par ch=1 c=7 v=49
210334 Par ch=1 c=7 v=50
210374 Off ch=1 n=a#7 v=64
210374 Off ch=1 n=a#6 v=64
210414 Par ch=1 c=7 v=51
210414 On ch=1 n=d#4 v=48
210414 On ch=1 n=d#5 v=48
210494 Par ch=1 c=7 v=52
210531 Off ch=1 n=d#5 v=64
210531 Off ch=1 n=d#4 v=64
210534 On ch=1 n=d#4 v=48
210534 On ch=1 n=d#5 v=48
210574 Par ch=1 c=7 v=53
210651 Off ch=1 n=d#5 v=64
210651 Off ch=1 n=d#4 v=64
210654 Par ch=1 c=7 v=54
210654 On ch=1 n=d#4 v=48
210654 On ch=1 n=d#5 v=48
210734 Par ch=1 c=7 v=55
210771 Off ch=1 n=d#5 v=64
210771 Off ch=1 n=d#4 v=64
210774 On ch=1 n=d#4 v=48
210774 On ch=1 n=d#5 v=48
210814 Par ch=1 c=7 v=56
210891 Off ch=1 n=d#5 v=64
210891 Off ch=1 n=d#4 v=64
210894 Par ch=1 c=7 v=57
210894 On ch=1 n=d#4 v=48
210894 On ch=1 n=d#5 v=48
210974 Par ch=1 c=7 v=58
211054 Par ch=1 c=7 v=59
211094 Off ch=1 n=d#5 v=64
211094 Off ch=1 n=d#4 v=64
211134 Par ch=1 c=7 v=60
211134 On ch=1 n=f4 v=60
211134 On ch=1 n=b4 v=60
211134 On ch=1 n=d#5 v=60
211134 On ch=1 n=f5 v=60
211334 Off ch=1 n=f5 v=64
211334 Off ch=1 n=d#5 v=64
211334 Off ch=1 n=b4 v=64
211334 Off ch=1 n=f4 v=64
211374 On ch=1 n=f5 v=60
211374 On ch=1 n=b5 v=60
211374 On ch=1 n=d#6 v=60
211374 On ch=1 n=f6 v=60
211494 Off ch=1 n=f6 v=64
211494 Off ch=1 n=d#6 v=64
211494 Off ch=1 n=b5 v=64
211494 Off ch=1 n=f5 v=64
211494 On ch=1 n=d#6 v=60
211494 On ch=1 n=d#5 v=60
211614 Off ch=1 n=d#5 v=64
211614 Off ch=1 n=d#6 v=64
211614 On ch=1 n=f5 v=60
211614 On ch=1 n=a#5 v=60
211614 On ch=1 n=d6 v=60
211614 On ch=1 n=f6 v=60
211734 Off ch=1 n=f6 v=64
211734 Off ch=1 n=d6 v=64
211734 Off ch=1 n=a#5 v=64
211734 Off ch=1 n=f5 v=64
211734 On ch=1 n=f#5 v=60
211734 On ch=1 n=f#6 v=60
211851 Off ch=1 n=f#6 v=64
211851 Off ch=1 n=f#5 v=64
211854 On ch=1 n=f#4 v=60
211854 On ch=1 n=f#5 v=60
211925 Par ch=1 c=7 v=61
211971 Off ch=1 n=f#5 v=64
211971 Off ch=1 n=f#4 v=64
211974 On ch=1 n=f#4 v=60
211974 On ch=1 n=f#5 v=60
211997 Par ch=1 c=7 v=62
212069 Par ch=1 c=7 v=63
212091 Off ch=1 n=f#5 v=64
212091 Off ch=1 n=f#4 v=64
212094 On ch=1 n=f#4 v=60
212094 On ch=1 n=f#5 v=60
212141 Par ch=1 c=7 v=64
212211 Off ch=1 n=f#5 v=64
212211 Off ch=1 n=f#4 v=64
212212 Par ch=1 c=7 v=65
212214 On ch=1 n=f#4 v=60
212214 On ch=1 n=f#5 v=60
212285 Par ch=1 c=7 v=66
212331 Off ch=1 n=f#5 v=64
212331 Off ch=1 n=f#4 v=64
212334 On ch=1 n=f#4 v=60
212334 On ch=1 n=f#5 v=60
212357 Par ch=1 c=7 v=67
212429 Par ch=1 c=7 v=68
212501 Par ch=1 c=7 v=69
212534 Off ch=1 n=f#5 v=64
212534 Off ch=1 n=f#4 v=64
212572 Par ch=1 c=7 v=70
212574 Par ch=1 c=7 v=70
212574 On ch=1 n=g#4 v=70
212574 On ch=1 n=d5 v=70
212574 On ch=1 n=f#5 v=70
212574 On ch=1 n=g#5 v=70
212645 Par ch=1 c=7 v=71
212717 Par ch=1 c=7 v=72
212774 Off ch=1 n=g#5 v=64
212774 Off ch=1 n=f#5 v=64
212774 Off ch=1 n=d5 v=64
212774 Off ch=1 n=g#4 v=64
212789 Par ch=1 c=7 v=73
212814 On ch=1 n=g#5 v=70
212814 On ch=1 n=d6 v=70
212814 On ch=1 n=f#6 v=70
212814 On ch=1 n=g#6 v=70
212861 Par ch=1 c=7 v=74
212931 Off ch=1 n=g#6 v=64
212931 Off ch=1 n=f#6 v=64
212931 Off ch=1 n=d6 v=64
212931 Off ch=1 n=g#5 v=64
212932 Par ch=1 c=7 v=75
212934 On ch=1 n=f#5 v=70
212934 On ch=1 n=f#6 v=70
213005 Par ch=1 c=7 v=76
213051 Off ch=1 n=f#6 v=64
213051 Off ch=1 n=f#5 v=64
213054 On ch=1 n=g#5 v=70
213054 On ch=1 n=c#6 v=70
213054 On ch=1 n=f6 v=70
213054 On ch=1 n=g#6 v=70
213077 Par ch=1 c=7 v=77
213149 Par ch=1 c=7 v=78
213171 Off ch=1 n=g#6 v=64
213171 Off ch=1 n=f6 v=64
213171 Off ch=1 n=c#6 v=64
213171 Off ch=1 n=g#5 v=64
213174 On ch=1 n=a5 v=70
213174 On ch=1 n=a6 v=70
213221 Par ch=1 c=7 v=79
213291 Off ch=1 n=a6 v=64
213291 Off ch=1 n=a5 v=64
213292 Par ch=1 c=7 v=80
213294 Par ch=1 c=7 v=80
213294 On ch=1 n=a4 v=80
213294 On ch=1 n=a5 v=80
213365 Par ch=1 c=7 v=81
213411 Off ch=1 n=a5 v=64
213411 Off ch=1 n=a4 v=64
213414 On ch=1 n=a4 v=80
213414 On ch=1 n=a5 v=80
213437 Par ch=1 c=7 v=82
213509 Par ch=1 c=7 v=83
213531 Off ch=1 n=a5 v=64
213531 Off ch=1 n=a4 v=64
213534 On ch=1 n=a4 v=80
213534 On ch=1 n=a5 v=80
213581 Par ch=1 c=7 v=84
213651 Off ch=1 n=a5 v=64
213651 Off ch=1 n=a4 v=64
213652 Par ch=1 c=7 v=85
213654 On ch=1 n=a4 v=80
213654 On ch=1 n=a5 v=80
213725 Par ch=1 c=7 v=86
213771 Off ch=1 n=a5 v=64
213771 Off ch=1 n=a4 v=64
213774 On ch=1 n=a4 v=80
213774 On ch=1 n=a5 v=80
213797 Par ch=1 c=7 v=87
213869 Par ch=1 c=7 v=88
213941 Par ch=1 c=7 v=89
213974 Off ch=1 n=a5 v=64
213974 Off ch=1 n=a4 v=64
214012 Par ch=1 c=7 v=90
214014 Par ch=1 c=7 v=90
214014 On ch=1 n=b4 v=90
214014 On ch=1 n=f5 v=90
214014 On ch=1 n=a5 v=90
214014 On ch=1 n=b5 v=90
214085 Par ch=1 c=7 v=91
214131 Off ch=1 n=b5 v=64
214131 Off ch=1 n=a5 v=64
214131 Off ch=1 n=f5 v=64
214131 Off ch=1 n=b4 v=64
214134 On ch=1 n=b4 v=90
214134 On ch=1 n=f5 v=90
214134 On ch=1 n=a5 v=90
214134 On ch=1 n=b5 v=90
214157 Par ch=1 c=7 v=92
214229 Par ch=1 c=7 v=93
214251 Off ch=1 n=b5 v=64
214251 Off ch=1 n=a5 v=64
214251 Off ch=1 n=f5 v=64
214251 Off ch=1 n=b4 v=64
214254 On ch=1 n=b4 v=90
214254 On ch=1 n=f5 v=90
214254 On ch=1 n=a5 v=90
214254 On ch=1 n=b5 v=90
214301 Par ch=1 c=7 v=94
214371 Off ch=1 n=b5 v=64
214371 Off ch=1 n=a5 v=64
214371 Off ch=1 n=f5 v=64
214371 Off ch=1 n=b4 v=64
214372 Par ch=1 c=7 v=95
214374 On ch=1 n=b4 v=90
214374 On ch=1 n=f5 v=90
214374 On ch=1 n=a5 v=90
214374 On ch=1 n=b5 v=90
214445 Par ch=1 c=7 v=96
214491 Off ch=1 n=b5 v=64
214491 Off ch=1 n=a5 v=64
214491 Off ch=1 n=f5 v=64
214491 Off ch=1 n=b4 v=64
214494 On ch=1 n=b4 v=90
214494 On ch=1 n=f5 v=90
214494 On ch=1 n=a5 v=90
214494 On ch=1 n=b5 v=90
214517 Par ch=1 c=7 v=97
214589 Par ch=1 c=7 v=98
214661 Par ch=1 c=7 v=99
214694 Off ch=1 n=b5 v=64
214694 Off ch=1 n=a5 v=64
214694 Off ch=1 n=f5 v=64
214694 Off ch=1 n=b4 v=64
214732 Par ch=1 c=7 v=100
214734 Par ch=1 c=7 v=100
214734 On ch=1 n=c5 v=100
214734 On ch=1 n=d#5 v=100
214734 On ch=1 n=a5 v=100
214734 On ch=1 n=c6 v=100
214794 Par ch=1 c=7 v=101
214851 Off ch=1 n=c6 v=64
214851 Off ch=1 n=a5 v=64
214851 Off ch=1 n=d#5 v=64
214851 Off ch=1 n=c5 v=64
214854 Par ch=1 c=7 v=102
214854 On ch=1 n=c5 v=101
214854 On ch=1 n=d#5 v=101
214854 On ch=1 n=a5 v=101
214854 On ch=1 n=c6 v=101
214914 Par ch=1 c=7 v=103
214971 Off ch=1 n=c6 v=64
214971 Off ch=1 n=a5 v=64
214971 Off ch=1 n=d#5 v=64
214971 Off ch=1 n=c5 v=64
214974 Par ch=1 c=7 v=104
214974 On ch=1 n=c5 v=102
214974 On ch=1 n=d#5 v=102
214974 On ch=1 n=c6 v=102
215034 Par ch=1 c=7 v=105
215091 Off ch=1 n=c6 v=64
215091 Off ch=1 n=d#5 v=64
215091 Off ch=1 n=c5 v=64
215094 Par ch=1 c=7 v=106
215094 On ch=1 n=c5 v=103
215094 On ch=1 n=d#5 v=103
215094 On ch=1 n=c6 v=103
215154 Par ch=1 c=7 v=107
215211 Off ch=1 n=c6 v=64
215211 Off ch=1 n=d#5 v=64
215211 Off ch=1 n=c5 v=64
215214 Par ch=1 c=7 v=108
215214 On ch=1 n=c5 v=104
215214 On ch=1 n=d#5 v=104
215214 On ch=1 n=f#5 v=104
215214 On ch=1 n=c6 v=104
215274 Par ch=1 c=7 v=109
215334 Par ch=1 c=7 v=110
215394 Par ch=1 c=7 v=111
215414 Off ch=1 n=c6 v=64
215414 Off ch=1 n=f#5 v=64
215414 Off ch=1 n=d#5 v=64
215414 Off ch=1 n=c5 v=64
215454 Par ch=1 c=7 v=112
215454 On ch=1 n=d#5 v=112
215454 On ch=1 n=f#5 v=112
215454 On ch=1 n=a5 v=112
215454 On ch=1 n=d#6 v=112
215654 Off ch=1 n=d#6 v=64
215654 Off ch=1 n=a5 v=64
215654 Off ch=1 n=f#5 v=64
215654 Off ch=1 n=d#5 v=64
215694 On ch=1 n=d#6 v=112
215694 On ch=1 n=f#6 v=112
215694 On ch=1 n=a6 v=112
215694 On ch=1 n=d#7 v=112
215894 Off ch=1 n=d#7 v=64
215894 Off ch=1 n=a6 v=64
215894 Off ch=1 n=f#6 v=64
215894 Off ch=1 n=d#6 v=64
215934 On ch=1 n=d5 v=127
215934 On ch=1 n=f#5 v=127
215934 On ch=1 n=d6 v=127
216174 Off ch=1 n=d6 v=64
216174 Off ch=1 n=f#5 v=64
216174 Off ch=1 n=d5 v=64
216174 On ch=1 n=c#5 v=112
216174 On ch=1 n=f#5 v=112
216174 On ch=1 n=c#6 v=112
216414 Off ch=1 n=c#6 v=64
216414 Off ch=1 n=f#5 v=64
216414 Off ch=1 n=c#5 v=64
216414 On ch=1 n=f#6 v=127
216414 On ch=1 n=f#7 v=127
216614 Off ch=1 n=f#7 v=64
216614 Off ch=1 n=f#6 v=64
216654 On ch=1 n=d5 v=112
216654 On ch=1 n=f#5 v=112
216654 On ch=1 n=d6 v=112
216854 Off ch=1 n=d6 v=64
216854 Off ch=1 n=f#5 v=64
216854 Off ch=1 n=d5 v=64
216894 On ch=1 n=d6 v=127
216894 On ch=1 n=d7 v=127
217094 Off ch=1 n=d7 v=64
217094 Off ch=1 n=d6 v=64
217134 On ch=1 n=d5 v=112
217134 On ch=1 n=f#5 v=112
217134 On ch=1 n=g#5 v=112
217134 On ch=1 n=b5 v=112
217334 Off ch=1 n=b5 v=64
217334 Off ch=1 n=g#5 v=64
217334 Off ch=1 n=f#5 v=64
217334 Off ch=1 n=d5 v=64
217374 On ch=1 n=b5 v=127
217374 On ch=1 n=b6 v=127
217574 Off ch=1 n=b6 v=64
217574 Off ch=1 n=b5 v=64
217614 On ch=1 n=c#5 v=112
217614 On ch=1 n=f#5 v=112
217614 On ch=1 n=a5 v=112
217814 Off ch=1 n=a5 v=64
217814 Off ch=1 n=f#5 v=64
217814 Off ch=1 n=c#5 v=64
217854 On ch=1 n=a5 v=127
217854 On ch=1 n=a6 v=127
218054 Off ch=1 n=a6 v=64
218054 Off ch=1 n=a5 v=64
218094 On ch=1 n=c#5 v=112
218094 On ch=1 n=f#5 v=112
218094 On ch=1 n=g#5 v=112
218294 Off ch=1 n=g#5 v=64
218294 Off ch=1 n=f#5 v=64
218294 Off ch=1 n=c#5 v=64
218334 On ch=1 n=g#5 v=127
218334 On ch=1 n=g#6 v=127
218534 Off ch=1 n=g#6 v=64
218534 Off ch=1 n=g#5 v=64
218574 On ch=1 n=c#5 v=112
218574 On ch=1 n=f5 v=112
218574 On ch=1 n=g#5 v=112
218774 Off ch=1 n=g#5 v=64
218774 Off ch=1 n=f5 v=64
218774 Off ch=1 n=c#5 v=64
218814 On ch=1 n=c#6 v=112
218814 On ch=1 n=c#7 v=112
219014 Off ch=1 n=c#7 v=64
219014 Off ch=1 n=c#6 v=64
219054 On ch=1 n=c#6 v=127
219054 On ch=1 n=g#6 v=127
219054 On ch=1 n=c#7 v=127
219294 Off ch=1 n=c#7 v=64
219294 Off ch=1 n=g#6 v=64
219294 Off ch=1 n=c#6 v=64
219294 On ch=1 n=f#6 v=112
219294 On ch=1 n=f#7 v=112
219494 Off ch=1 n=f#7 v=64
219494 Off ch=1 n=f#6 v=64
219534 Par ch=1 c=7 v=30
219534 On ch=1 n=c#5 v=30
219534 On ch=1 n=g#5 v=30
219534 On ch=1 n=c#6 v=30
219774 Off ch=1 n=c#6 v=64
219774 Off ch=1 n=g#5 v=64
219774 Off ch=1 n=c#5 v=64
219774 On ch=1 n=c#5 v=30
219774 On ch=1 n=g#5 v=30
219774 On ch=1 n=c#6 v=30
220014 Off ch=1 n=c#6 v=64
220014 Off ch=1 n=g#5 v=64
220014 Off ch=1 n=c#5 v=64
220014 On ch=1 n=f#5 v=30
220014 On ch=1 n=f#6 v=30
220214 Off ch=1 n=f#6 v=64
220214 Off ch=1 n=f#5 v=64
220254 On ch=1 n=c#5 v=30
220254 On ch=1 n=g#5 v=30
220254 On ch=1 n=c#6 v=30
220494 Off ch=1 n=c#6 v=64
220494 Off ch=1 n=g#5 v=64
220494 Off ch=1 n=c#5 v=64
220494 On ch=1 n=c#5 v=30
220494 On ch=1 n=c#6 v=30
220734 Off ch=1 n=c#6 v=64
220734 Off ch=1 n=c#5 v=64
220734 On ch=1 n=f#5 v=30
220734 On ch=1 n=f#6 v=30
220934 Off ch=1 n=f#6 v=64
220934 Off ch=1 n=f#5 v=64
220974 On ch=1 n=c#5 v=30
220974 On ch=1 n=g#5 v=30
220974 On ch=1 n=c#6 v=30
221214 Off ch=1 n=c#6 v=64
221214 Off ch=1 n=g#5 v=64
221214 Off ch=1 n=c#5 v=64
221214 On ch=1 n=c#5 v=42
221214 On ch=1 n=c#6 v=42
221454 Off ch=1 n=c#6 v=64
221454 Off ch=1 n=c#5 v=64
221454 On ch=1 n=f#5 v=30
221454 On ch=1 n=f#6 v=30
221654 Off ch=1 n=f#6 v=64
221654 Off ch=1 n=f#5 v=64
221694 On ch=1 n=c#5 v=30
221694 On ch=1 n=g#5 v=30
221694 On ch=1 n=c#6 v=30
221934 Off ch=1 n=c#6 v=64
221934 Off ch=1 n=g#5 v=64
221934 Off ch=1 n=c#5 v=64
221934 On ch=1 n=c#5 v=30
221934 On ch=1 n=c#6 v=30
222174 Off ch=1 n=c#6 v=64
222174 Off ch=1 n=c#5 v=64
222174 On ch=1 n=f#5 v=30
222174 On ch=1 n=f#6 v=30
222374 Off ch=1 n=f#6 v=64
222374 Off ch=1 n=f#5 v=64
222414 On ch=1 n=c#5 v=30
222414 On ch=1 n=g#5 v=30
222414 On ch=1 n=c#6 v=30
222654 Off ch=1 n=c#6 v=64
222654 Off ch=1 n=g#5 v=64
222654 Off ch=1 n=c#5 v=64
222654 On ch=1 n=c#5 v=42
222654 On ch=1 n=c#6 v=42
222894 Off ch=1 n=c#6 v=64
222894 Off ch=1 n=c#5 v=64
222894 On ch=1 n=f#5 v=30
222894 On ch=1 n=f#6 v=30
223094 Off ch=1 n=f#6 v=64
223094 Off ch=1 n=f#5 v=64
223134 On ch=1 n=c#5 v=30
223134 On ch=1 n=g#5 v=30
223134 On ch=1 n=c#6 v=30
223374 Off ch=1 n=c#6 v=64
223374 Off ch=1 n=g#5 v=64
223374 Off ch=1 n=c#5 v=64
223374 On ch=1 n=c#5 v=42
223374 On ch=1 n=c#6 v=42
223614 Off ch=1 n=c#6 v=64
223614 Off ch=1 n=c#5 v=64
223614 On ch=1 n=f#5 v=30
223614 On ch=1 n=f#6 v=30
223814 Off ch=1 n=f#6 v=64
223814 Off ch=1 n=f#5 v=64
223854 On ch=1 n=c#5 v=30
223854 On ch=1 n=g#5 v=30
223854 On ch=1 n=c#6 v=30
224094 Off ch=1 n=c#6 v=64
224094 Off ch=1 n=g#5 v=64
224094 Off ch=1 n=c#5 v=64
224094 On ch=1 n=c#5 v=42
224094 On ch=1 n=c#6 v=42
224334 Off ch=1 n=c#6 v=64
224334 Off ch=1 n=c#5 v=64
224334 On ch=1 n=f#5 v=30
224334 On ch=1 n=f#6 v=30
224534 Off ch=1 n=f#6 v=64
224534 Off ch=1 n=f#5 v=64
224574 On ch=1 n=c#5 v=30
224574 On ch=1 n=g#5 v=30
224574 On ch=1 n=c#6 v=30
224814 Off ch=1 n=c#6 v=64
224814 Off ch=1 n=g#5 v=64
224814 Off ch=1 n=c#5 v=64
224814 Par ch=1 c=7 v=48
224814 On ch=1 n=a#5 v=48
225054 Off ch=1 n=a#5 v=64
225054 On ch=1 n=f5 v=48
225054 On ch=1 n=a#4 v=48
225294 Off ch=1 n=a#4 v=64
225294 Off ch=1 n=f5 v=64
225294 On ch=1 n=a#4 v=48
225294 On ch=1 n=f#5 v=48
225534 Off ch=1 n=f#5 v=64
225534 Off ch=1 n=a#4 v=64
225534 On ch=1 n=d#6 v=48
225774 On ch=1 n=f#5 v=48
225774 On ch=1 n=a#4 v=48
225954 Off ch=1 n=d#6 v=64
226014 Off ch=1 n=a#4 v=64
226014 Off ch=1 n=f#5 v=64
226014 On ch=1 n=a#4 v=48
226014 On ch=1 n=f#5 v=48
226014 On ch=1 n=c#6 v=48
226254 Off ch=1 n=c#6 v=64
226254 Off ch=1 n=f#5 v=64
226254 Off ch=1 n=a#4 v=64
226254 On ch=1 n=c#6 v=48
226494 Off ch=1 n=c#6 v=64
226494 On ch=1 n=f#5 v=48
226494 On ch=1 n=b4 v=48
226734 Off ch=1 n=b4 v=64
226734 Off ch=1 n=f#5 v=64
226734 On ch=1 n=b4 v=48
226734 On ch=1 n=f5 v=48
226734 On ch=1 n=g#5 v=48
226974 Off ch=1 n=g#5 v=64
226974 Off ch=1 n=f5 v=64
226974 Off ch=1 n=b4 v=64
226974 On ch=1 n=a#5 v=48
227214 On ch=1 n=a#4 v=48
227214 On ch=1 n=f#5 v=48
227414 Off ch=1 n=f#5 v=64
227414 Off ch=1 n=a#4 v=64
227454 On ch=1 n=a#4 v=48
227454 On ch=1 n=f#5 v=48
227654 Off ch=1 n=f#5 v=64
227654 Off ch=1 n=a#4 v=64
227694 On ch=1 n=a#4 v=48
227694 On ch=1 n=f#5 v=48
227894 Off ch=1 n=f#5 v=64
227894 Off ch=1 n=a#4 v=64
227934 On ch=1 n=c#5 v=48
227934 On ch=1 n=f#5 v=48
228134 Off ch=1 n=f#5 v=64
228134 Off ch=1 n=c#5 v=64
228174 On ch=1 n=c#5 v=48
228174 On ch=1 n=f#5 v=48
228354 Off ch=1 n=a#5 v=64
228374 Off ch=1 n=f#5 v=64
228374 Off ch=1 n=c#5 v=64
228414 On ch=1 n=c#5 v=48
228414 On ch=1 n=f#5 v=48
228614 Off ch=1 n=f#5 v=64
228614 Off ch=1 n=c#5 v=64
228654 On ch=1 n=c#5 v=48
228854 Off ch=1 n=c#5 v=64
228894 On ch=1 n=c#5 v=48
229094 Off ch=1 n=c#5 v=64
229134 On ch=1 n=c#5 v=48
229334 Off ch=1 n=c#5 v=64
229374 On ch=1 n=c#5 v=48
229574 Off ch=1 n=c#5 v=64
229614 On ch=1 n=c#5 v=48
229814 Off ch=1 n=c#5 v=64
229854 On ch=1 n=c#5 v=48
230054 Off ch=1 n=c#5 v=64
230094 On ch=1 n=c#5 v=48
230294 Off ch=1 n=c#5 v=64
230334 On ch=1 n=c#5 v=48
230534 Off ch=1 n=c#5 v=64
230574 On ch=1 n=c#5 v=48
230774 Off ch=1 n=c#5 v=64
232014 On ch=1 n=a#5 v=48
232014 On ch=1 n=f#5 v=48
232014 On ch=1 n=c#5 v=48
232014 On ch=1 n=f#4 v=48
235094 Off ch=1 n=f#4 v=64
235094 Off ch=1 n=c#5 v=64
235094 Off ch=1 n=f#5 v=64
235094 Off ch=1 n=a#5 v=64
235094 Meta TrkEnd
TrkEnd
MTrk
0 Meta TrkName "Lower G.S."
0 PrCh ch=2 p=0
0 Par ch=2 c=7 v=127
0 Par ch=2 c=10 v=64
0 Par ch=2 c=7 v=94
0 On ch=2 n=a#2 v=94
0 On ch=2 n=a#3 v=94
200 Off ch=2 n=a#3 v=64
200 Off ch=2 n=a#2 v=64
240 On ch=2 n=d#2 v=94
240 On ch=2 n=d#3 v=94
280 Par ch=2 c=7 v=95
320 Par ch=2 c=7 v=96
360 Par ch=2 c=7 v=97
400 Par ch=2 c=7 v=98
440 Off ch=2 n=d#3 v=64
440 Off ch=2 n=d#2 v=64
440 Par ch=2 c=7 v=99
480 Par ch=2 c=7 v=100
480 On ch=2 n=e2 v=95
480 On ch=2 n=e3 v=95
520 Par ch=2 c=7 v=101
560 Par ch=2 c=7 v=102
597 Off ch=2 n=e3 v=64
597 Off ch=2 n=e2 v=64
600 Par ch=2 c=7 v=103
600 On ch=2 n=f2 v=96
600 On ch=2 n=f3 v=96
640 Par ch=2 c=7 v=104
680 Par ch=2 c=7 v=105
717 Off ch=2 n=f3 v=64
717 Off ch=2 n=f2 v=64
720 Par ch=2 c=7 v=106
720 On ch=2 n=f#2 v=97
720 On ch=2 n=f#3 v=97
760 Par ch=2 c=7 v=107
800 Par ch=2 c=7 v=108
840 Par ch=2 c=7 v=109
880 Par ch=2 c=7 v=110
920 Off ch=2 n=f#3 v=64
920 Off ch=2 n=f#2 v=64
920 Par ch=2 c=7 v=111
960 Par ch=2 c=7 v=112
960 Par ch=2 c=7 v=94
960 Par ch=2 c=64 v=127
960 On ch=2 n=g#2 v=94
960 On ch=2 n=g#3 v=94
1160 Off ch=2 n=g#3 v=64
1160 Off ch=2 n=g#2 v=64
1200 On ch=2 n=g#3 v=94
1200 On ch=2 n=d#4 v=94
1200 On ch=2 n=f4 v=94
1200 On ch=2 n=b4 v=94
1400 Off ch=2 n=b4 v=64
1400 Off ch=2 n=f4 v=64
1400 Off ch=2 n=d#4 v=64
1400 Off ch=2 n=g#3 v=64
1440 Par ch=2 c=64 v=0
1440 On ch=2 n=a#3 v=94
1440 On ch=2 n=f4 v=94
1440 On ch=2 n=g#4 v=94
1440 On ch=2 n=d5 v=94
1640 Off ch=2 n=d5 v=64
1640 Off ch=2 n=g#4 v=64
1640 Off ch=2 n=f4 v=64
1640 Off ch=2 n=a#3 v=64
1680 On ch=2 n=f#2 v=94
1680 On ch=2 n=f#3 v=94
1720 Par ch=2 c=7 v=95
1760 Par ch=2 c=7 v=96
1800 Par ch=2 c=7 v=97
1840 Par ch=2 c=7 v=98
1880 Off ch=2 n=f#3 v=64
1880 Off ch=2 n=f#2 v=64
1880 Par ch=2 c=7 v=99
1920 Par ch=2 c=7 v=100
1920 On ch=2 n=g2 v=95
1920 On ch=2 n=g3 v=95
1960 Par ch=2 c=7 v=101
2000 Par ch=2 c=7 v=102
2037 Off ch=2 n=g3 v=64
2037 Off ch=2 n=g2 v=64
2040 Par ch=2 c=7 v=103
2040 On ch=2 n=g#2 v=96
2040 On ch=2 n=g#3 v=96
2080 Par ch=2 c=7 v=104
2120 Par ch=2 c=7 v=105
2157 Off ch=2 n=g#3 v=64
2157 Off ch=2 n=g#2 v=64
2160 Par ch=2 c=7 v=106
2160 On ch=2 n=a2 v=97
2160 On ch=2 n=a3 v=97
2200 Par ch=2 c=7 v=107
2240 Par ch=2 c=7 v=108
2280 Par ch=2 c=7 v=109
2320 Par ch=2 c=7 v=110
2360 Off ch=2 n=a3 v=64
2360 Off ch=2 n=a2 v=64
2360 Par ch=2 c=7 v=111
2400 Par ch=2 c=7 v=112
2400 Par ch=2 c=7 v=94
2400 Par ch=2 c=64 v=127
2400 On ch=2 n=b2 v=94
2400 On ch=2 n=b3 v=94
2460 Off ch=2 n=b3 v=64
2460 Off ch=2 n=b2 v=64
2640 On ch=2 n=b3 v=94
2640 On ch=2 n=f#4 v=94
2640 On ch=2 n=g#4 v=94
2640 On ch=2 n=d5 v=94
2840 Off ch=2 n=d5 v=64
2840 Off ch=2 n=g#4 v=64
2840 Off ch=2 n=f#4 v=64
2840 Off ch=2 n=b3 v=64
2880 Par ch=2 c=64 v=0
2880 On ch=2 n=c#4 v=94
2880 On ch=2 n=g#4 v=94
2880 On ch=2 n=b4 v=94
2880 On ch=2 n=f5 v=94
3080 Off ch=2 n=f5 v=64
3080 Off ch=2 n=b4 v=64
3080 Off ch=2 n=g#4 v=64
3080 Off ch=2 n=c#4 v=64
3120 On ch=2 n=a2 v=94
3120 On ch=2 n=a3 v=94
3160 Par ch=2 c=7 v=95
3200 Par ch=2 c=7 v=96
3240 Par ch=2 c=7 v=97
3280 Par ch=2 c=7 v=98
3320 Off ch=2 n=a3 v=64
3320 Off ch=2 n=a2 v=64
3320 Par ch=2 c=7 v=99
3360 Par ch=2 c=7 v=100
3360 On ch=2 n=b2 v=95
3360 On ch=2 n=b3 v=95
3400 Par ch=2 c=7 v=101
3440 Par ch=2 c=7 v=102
3477 Off ch=2 n=b3 v=64
3477 Off ch=2 n=b2 v=64
3480 Par ch=2 c=7 v=103
3480 On ch=2 n=c3 v=96
3480 On ch=2 n=c4 v=96
3520 Par ch=2 c=7 v=104
3560 Par ch=2 c=7 v=105
3597 Off ch=2 n=c4 v=64
3597 Off ch=2 n=c3 v=64
3600 Par ch=2 c=7 v=106
3600 On ch=2 n=c#3 v=97
3600 On ch=2 n=c#4 v=97
3640 Par ch=2 c=7 v=107
3680 Par ch=2 c=7 v=108
3720 Par ch=2 c=7 v=109
3760 Par ch=2 c=7 v=110
3800 Off ch=2 n=c#4 v=64
3800 Off ch=2 n=c#3 v=64
3800 Par ch=2 c=7 v=111
3840 Par ch=2 c=7 v=112
3840 Par ch=2 c=7 v=94
3840 On ch=2 n=d3 v=94
3840 On ch=2 n=d4 v=94
4040 Off ch=2 n=d4 v=64
4040 Off ch=2 n=d3 v=64
4080 On ch=2 n=d#3 v=94
4080 On ch=2 n=d#4 v=94
4197 Off ch=2 n=d#4 v=64
4197 Off ch=2 n=d#3 v=64
4200 On ch=2 n=e3 v=94
4200 On ch=2 n=e4 v=94
4317 Off ch=2 n=e4 v=64
4317 Off ch=2 n=e3 v=64
4320 On ch=2 n=f3 v=94
4320 On ch=2 n=f4 v=94
4520 Off ch=2 n=f4 v=64
4520 Off ch=2 n=f3 v=64
4560 On ch=2 n=f#3 v=94
4560 On ch=2 n=f#4 v=94
4760 Off ch=2 n=f#4 v=64
4760 Off ch=2 n=f#3 v=64
4800 On ch=2 n=g#3 v=94
4800 On ch=2 n=g#4 v=94
4917 Off ch=2 n=g#4 v=64
4917 Off ch=2 n=g#3 v=64
4920 On ch=2 n=a3 v=94
4920 On ch=2 n=a4 v=94
5037 Off ch=2 n=a4 v=64
5037 Off ch=2 n=a3 v=64
5040 On ch=2 n=a#3 v=94
5040 On ch=2 n=a#4 v=94
5240 Off ch=2 n=a#4 v=64
5240 Off ch=2 n=a#3 v=64
5280 Par ch=2 c=64 v=127
5280 On ch=2 n=b3 v=94
5280 On ch=2 n=b4 v=94
5480 Off ch=2 n=b4 v=64
5480 Off ch=2 n=b3 v=64
5520 On ch=2 n=b2 v=94
5520 On ch=2 n=b3 v=94
5720 Off ch=2 n=b3 v=64
5720 Off ch=2 n=b2 v=64
5760 Par ch=2 c=64 v=0
5760 On ch=2 n=c3 v=94
5760 On ch=2 n=c4 v=94
5960 Off ch=2 n=c4 v=64
5960 Off ch=2 n=c3 v=64
6000 Par ch=2 c=64 v=127
6000 On ch=2 n=c#3 v=94
6000 On ch=2 n=c#4 v=94
6200 Off ch=2 n=c#4 v=64
6200 Off ch=2 n=c#3 v=64
6240 On ch=2 n=c#4 v=94
6240 On ch=2 n=a#4 v=94
6440 Off ch=2 n=a#4 v=64
6440 Off ch=2 n=c#4 v=64
6480 On ch=2 n=f#4 v=94
6480 On ch=2 n=c#5 v=94
6680 Off ch=2 n=c#5 v=64
6680 Off ch=2 n=f#4 v=64
6720 On ch=2 n=a#4 v=94
6720 On ch=2 n=f#5 v=94
6920 Off ch=2 n=f#5 v=64
6920 Off ch=2 n=a#4 v=64
6960 On ch=2 n=c#5 v=94
6960 On ch=2 n=a#5 v=94
7160 Off ch=2 n=a#5 v=64
7160 Off ch=2 n=c#5 v=64
7200 On ch=2 n=f#5 v=94
7200 On ch=2 n=c#6 v=94
7400 Off ch=2 n=c#6 v=64
7400 Off ch=2 n=f#5 v=64
7440 Par ch=2 c=64 v=0
7440 On ch=2 n=a#5 v=94
7440 On ch=2 n=f#6 v=94
7640 Off ch=2 n=f#6 v=64
7640 Off ch=2 n=a#5 v=64
7680 Par ch=2 c=64 v=127
7680 On ch=2 n=b5 v=94
7680 On ch=2 n=f6 v=94
7880 Off ch=2 n=f6 v=64
7880 Off ch=2 n=b5 v=64
7920 On ch=2 n=c#5 v=94
7920 On ch=2 n=f5 v=94
7920 On ch=2 n=b5 v=94
8120 Off ch=2 n=b5 v=64
8120 Off ch=2 n=f5 v=64
8120 Off ch=2 n=c#5 v=64
8160 Par ch=2 c=64 v=0
8160 On ch=2 n=c#5 v=94
8160 On ch=2 n=f5 v=94
8160 On ch=2 n=b5 v=94
8360 Off ch=2 n=b5 v=64
8360 Off ch=2 n=f5 v=64
8360 Off ch=2 n=c#5 v=64
8400 On ch=2 n=f#4 v=94
8400 On ch=2 n=c#5 v=94
8400 On ch=2 n=a#5 v=94
8600 Off ch=2 n=a#5 v=64
8600 Off ch=2 n=c#5 v=64
8600 Off ch=2 n=f#4 v=64
8640 Par ch=2 c=64 v=127
8640 On ch=2 n=c#4 v=94
8640 On ch=2 n=f4 v=94
8640 On ch=2 n=b4 v=94
8840 Off ch=2 n=b4 v=64
8840 Off ch=2 n=f4 v=64
8840 Off ch=2 n=c#4 v=64
8880 On ch=2 n=c#4 v=94
8880 On ch=2 n=f4 v=94
8880 On ch=2 n=b4 v=94
9080 Off ch=2 n=b4 v=64
9080 Off ch=2 n=f4 v=64
9120 Par ch=2 c=64 v=0
9120 On ch=2 n=f#3 v=94
9120 On ch=2 n=a#4 v=94
9320 Off ch=2 n=a#4 v=64
9320 Off ch=2 n=f#3 v=64
9320 Off ch=2 n=c#4 v=64
9360 Par ch=2 c=64 v=127
9360 On ch=2 n=c#4 v=94
9360 On ch=2 n=f4 v=94
9360 On ch=2 n=b4 v=94
9560 Off ch=2 n=b4 v=64
9560 Off ch=2 n=f4 v=64
9560 Off ch=2 n=c#4 v=64
9600 On ch=2 n=c#4 v=94
9600 On ch=2 n=f4 v=94
9600 On ch=2 n=b4 v=94
9800 Off ch=2 n=b4 v=64
9800 Off ch=2 n=f4 v=64
9840 Par ch=2 c=64 v=0
9840 On ch=2 n=f#3 v=94
9840 On ch=2 n=a#4 v=94
10040 Off ch=2 n=a#4 v=64
10040 Off ch=2 n=f#3 v=64
10040 Off ch=2 n=c#4 v=64
11040 Par ch=2 c=7 v=26
11202 Par ch=2 c=7 v=27
11366 Par ch=2 c=7 v=28
11530 Par ch=2 c=7 v=29
11693 Par ch=2 c=7 v=30
11760 On ch=2 n=g#3 v=27
11760 On ch=2 n=g#4 v=27
11857 Par ch=2 c=7 v=31
12000 Off ch=2 n=g#4 v=64
12000 Off ch=2 n=g#3 v=64
12000 On ch=2 n=f#4 v=28
12000 On ch=2 n=f#3 v=28
12021 Par ch=2 c=7 v=32
12185 Par ch=2 c=7 v=33
12240 Off ch=2 n=f#3 v=64
12240 Off ch=2 n=f#4 v=64
12240 On ch=2 n=d#3 v=29
12240 On ch=2 n=d#4 v=29
12348 Par ch=2 c=7 v=34
12480 Off ch=2 n=d#4 v=64
12480 Off ch=2 n=d#3 v=64
12480 On ch=2 n=f#3 v=30
12480 On ch=2 n=f#4 v=30
12512 Par ch=2 c=7 v=35
12676 Par ch=2 c=7 v=36
12720 Off ch=2 n=f#4 v=64
12720 Off ch=2 n=f#3 v=64
12720 On ch=2 n=f4 v=31
12720 On ch=2 n=f3 v=31
12838 Par ch=2 c=7 v=37
12960 Off ch=2 n=f3 v=64
12960 Off ch=2 n=f4 v=64
12960 On ch=2 n=c#3 v=32
12960 On ch=2 n=c#4 v=32
13002 Par ch=2 c=7 v=38
13166 Par ch=2 c=7 v=39
13200 Off ch=2 n=c#4 v=64
13200 Off ch=2 n=c#3 v=64
13200 On ch=2 n=d#3 v=33
13200 On ch=2 n=d#4 v=33
13330 Par ch=2 c=7 v=40
13440 Off ch=2 n=d#4 v=64
13440 Off ch=2 n=d#3 v=64
13440 On ch=2 n=c#4 v=34
13440 On ch=2 n=c#3 v=34
13493 Par ch=2 c=7 v=41
13657 Par ch=2 c=7 v=42
13680 Off ch=2 n=c#3 v=64
13680 Off ch=2 n=c#4 v=64
13680 On ch=2 n=a#2 v=35
13680 On ch=2 n=a#3 v=35
13818 Par ch=2 c=7 v=43
13917 Off ch=2 n=a#3 v=64
13917 Off ch=2 n=a#2 v=64
13917 On ch=2 n=b2 v=36
13917 On ch=2 n=b3 v=36
13982 Par ch=2 c=7 v=44
14145 Par ch=2 c=7 v=45
14157 Off ch=2 n=b3 v=64
14157 Off ch=2 n=b2 v=64
14157 On ch=2 n=a#3 v=37
14157 On ch=2 n=a#2 v=37
14309 Par ch=2 c=7 v=46
14397 Off ch=2 n=a#2 v=64
14397 Off ch=2 n=a#3 v=64
14397 On ch=2 n=f#2 v=38
14397 On ch=2 n=f#3 v=38
14473 Par ch=2 c=7 v=47
14597 Off ch=2 n=f#3 v=64
14597 Off ch=2 n=f#2 v=64
14635 Par ch=2 c=7 v=48
14637 Par ch=2 c=7 v=48
14637 On ch=2 n=d#2 v=48
14637 On ch=2 n=d#3 v=48
14837 Off ch=2 n=d#3 v=64
14837 Off ch=2 n=d#2 v=64
14877 On ch=2 n=e2 v=48
14877 On ch=2 n=d#3 v=48
14994 Off ch=2 n=d#3 v=64
14994 Off ch=2 n=e2 v=64
14997 On ch=2 n=f2 v=48
14997 On ch=2 n=f3 v=48
15114 Off ch=2 n=f3 v=64
15114 Off ch=2 n=f2 v=64
15117 On ch=2 n=f#2 v=48
15117 On ch=2 n=f#3 v=48
15317 Off ch=2 n=f#3 v=64
15317 Off ch=2 n=f#2 v=64
15357 On ch=2 n=g#2 v=48
15357 On ch=2 n=g#3 v=48
15557 Off ch=2 n=g#3 v=64
15557 Off ch=2 n=g#2 v=64
15597 On ch=2 n=g#3 v=48
15597 On ch=2 n=d#4 v=48
15597 On ch=2 n=f4 v=48
15597 On ch=2 n=b4 v=48
15797 Off ch=2 n=b4 v=64
15797 Off ch=2 n=f4 v=64
15797 Off ch=2 n=d#4 v=64
15797 Off ch=2 n=g#3 v=64
15837 On ch=2 n=a#3 v=48
15837 On ch=2 n=f4 v=48
15837 On ch=2 n=g#4 v=48
15837 On ch=2 n=d5 v=48
16037 Off ch=2 n=d5 v=64
16037 Off ch=2 n=g#4 v=64
16037 Off ch=2 n=f4 v=64
16037 Off ch=2 n=a#3 v=64
16077 On ch=2 n=f#2 v=48
16077 On ch=2 n=f#3 v=48
16277 Off ch=2 n=f#3 v=64
16277 Off ch=2 n=f#2 v=64
16317 On ch=2 n=g2 v=48
16317 On ch=2 n=g3 v=48
16434 Off ch=2 n=g3 v=64
16434 Off ch=2 n=g2 v=64
16437 On ch=2 n=g#2 v=48
16437 On ch=2 n=g#3 v=48
16554 Off ch=2 n=g#3 v=64
16554 Off ch=2 n=g#2 v=64
16557 On ch=2 n=a2 v=48
16557 On ch=2 n=a3 v=48
16757 Off ch=2 n=a3 v=64
16757 Off ch=2 n=a2 v=64
16797 On ch=2 n=b2 v=48
16797 On ch=2 n=b3 v=48
16997 Off ch=2 n=b3 v=64
16997 Off ch=2 n=b2 v=64
17037 On ch=2 n=b3 v=48
17037 On ch=2 n=f#4 v=48
17037 On ch=2 n=g#4 v=48
17037 On ch=2 n=d5 v=48
17237 Off ch=2 n=d5 v=64
17237 Off ch=2 n=g#4 v=64
17237 Off ch=2 n=f#4 v=64
17237 Off ch=2 n=b3 v=64
17277 On ch=2 n=c#4 v=48
17277 On ch=2 n=g#4 v=48
17277 On ch=2 n=b4 v=48
17277 On ch=2 n=f5 v=48
17477 Off ch=2 n=f5 v=64
17477 Off ch=2 n=b4 v=64
17477 Off ch=2 n=g#4 v=64
17477 Off ch=2 n=c#4 v=64
17517 On ch=2 n=a2 v=48
17517 On ch=2 n=a3 v=48
17717 Off ch=2 n=a3 v=64
17717 Off ch=2 n=a2 v=64
17757 On ch=2 n=b2 v=48
17757 On ch=2 n=b3 v=48
17874 Off ch=2 n=b3 v=64
17874 Off ch=2 n=b2 v=64
17877 On ch=2 n=c3 v=48
17877 On ch=2 n=c4 v=48
17994 Off ch=2 n=c4 v=64
17994 Off ch=2 n=c3 v=64
17997 On ch=2 n=c#3 v=48
17997 On ch=2 n=c#4 v=48
18197 Off ch=2 n=c#4 v=64
18197 Off ch=2 n=c#3 v=64
18237 On ch=2 n=d3 v=48
18237 On ch=2 n=d4 v=48
18288 Par ch=2 c=7 v=49
18339 Par ch=2 c=7 v=50
18390 Par ch=2 c=7 v=51
18437 Off ch=2 n=d4 v=64
18437 Off ch=2 n=d3 v=64
18442 Par ch=2 c=7 v=52
18477 On ch=2 n=d#3 v=49
18477 On ch=2 n=d#4 v=49
18493 Par ch=2 c=7 v=53
18544 Par ch=2 c=7 v=54
18594 Off ch=2 n=d#4 v=64
18594 Off ch=2 n=d#3 v=64
18595 Par ch=2 c=7 v=55
18597 On ch=2 n=e3 v=50
18597 On ch=2 n=e4 v=50
18648 Par ch=2 c=7 v=56
18699 Par ch=2 c=7 v=57
18714 Off ch=2 n=e4 v=64
18714 Off ch=2 n=e3 v=64
18717 On ch=2 n=f3 v=51
18717 On ch=2 n=f4 v=51
18750 Par ch=2 c=7 v=58
18802 Par ch=2 c=7 v=59
18853 Par ch=2 c=7 v=60
18904 Par ch=2 c=7 v=61
18914 Off ch=2 n=f4 v=64
18914 Off ch=2 n=f3 v=64
18952 Par ch=2 c=7 v=62
18954 Par ch=2 c=7 v=62
18954 On ch=2 n=f#3 v=62
18954 On ch=2 n=f#4 v=62
19005 Par ch=2 c=7 v=63
19056 Par ch=2 c=7 v=64
19107 Par ch=2 c=7 v=65
19154 Off ch=2 n=f#4 v=64
19154 Off ch=2 n=f#3 v=64
19159 Par ch=2 c=7 v=66
19194 On ch=2 n=g3 v=63
19194 On ch=2 n=g4 v=63
19210 Par ch=2 c=7 v=67
19261 Par ch=2 c=7 v=68
19311 Off ch=2 n=g4 v=64
19311 Off ch=2 n=g3 v=64
19312 Par ch=2 c=7 v=69
19314 On ch=2 n=g#3 v=64
19314 On ch=2 n=g#4 v=64
19365 Par ch=2 c=7 v=70
19416 Par ch=2 c=7 v=71
19431 Off ch=2 n=g#4 v=64
19431 Off ch=2 n=g#3 v=64
19434 On ch=2 n=a3 v=65
19434 On ch=2 n=a4 v=65
19467 Par ch=2 c=7 v=72
19519 Par ch=2 c=7 v=73
19570 Par ch=2 c=7 v=74
19621 Par ch=2 c=7 v=75
19631 Off ch=2 n=a4 v=64
19631 Off ch=2 n=a3 v=64
19669 Par ch=2 c=7 v=76
19671 Par ch=2 c=7 v=76
19671 On ch=2 n=c4 v=76
19671 On ch=2 n=f#4 v=76
19671 On ch=2 n=c5 v=76
19871 Off ch=2 n=c5 v=64
19871 Off ch=2 n=f#4 v=64
19871 Off ch=2 n=c4 v=64
19911 On ch=2 n=b3 v=76
19911 On ch=2 n=g4 v=76
19911 On ch=2 n=b4 v=76
20111 Off ch=2 n=b4 v=64
20111 Off ch=2 n=g4 v=64
20111 Off ch=2 n=b3 v=64
20151 On ch=2 n=d2 v=76
20151 On ch=2 n=d3 v=76
20351 Off ch=2 n=d3 v=64
20351 Off ch=2 n=d2 v=64
20391 Par ch=2 c=64 v=127
20391 On ch=2 n=c#2 v=76
20391 On ch=2 n=c#3 v=76
20431 Par ch=2 c=7 v=77
20471 Par ch=2 c=7 v=78
20511 Par ch=2 c=7 v=79
20551 Par ch=2 c=7 v=80
20591 Off ch=2 n=c#3 v=64
20591 Off ch=2 n=c#2 v=64
20591 Par ch=2 c=7 v=81
20631 Par ch=2 c=7 v=82
20631 On ch=2 n=c#4 v=77
20631 On ch=2 n=a4 v=77
20671 Par ch=2 c=7 v=83
20711 Par ch=2 c=7 v=84
20751 Par ch=2 c=7 v=85
20791 Par ch=2 c=7 v=86
20831 Off ch=2 n=a4 v=64
20831 Off ch=2 n=c#4 v=64
20831 Par ch=2 c=7 v=87
20871 Par ch=2 c=7 v=88
20871 On ch=2 n=f#4 v=78
20871 On ch=2 n=c#5 v=78
20911 Par ch=2 c=7 v=89
20951 Par ch=2 c=7 v=90
20991 Par ch=2 c=7 v=91
21031 Par ch=2 c=7 v=92
21071 Off ch=2 n=c#5 v=64
21071 Off ch=2 n=f#4 v=64
21071 Par ch=2 c=7 v=93
21111 Par ch=2 c=7 v=94
21111 On ch=2 n=a4 v=79
21111 On ch=2 n=f#5 v=79
21151 Par ch=2 c=7 v=95
21191 Par ch=2 c=7 v=96
21231 Par ch=2 c=7 v=97
21271 Par ch=2 c=7 v=98
21311 Off ch=2 n=f#5 v=64
21311 Off ch=2 n=a4 v=64
21311 Par ch=2 c=7 v=99
21351 Par ch=2 c=7 v=100
21351 On ch=2 n=c#5 v=80
21351 On ch=2 n=a5 v=80
21391 Par ch=2 c=7 v=101
21431 Par ch=2 c=7 v=102
21471 Par ch=2 c=7 v=103
21511 Par ch=2 c=7 v=104
21551 Off ch=2 n=a5 v=64
21551 Off ch=2 n=c#5 v=64
21551 Par ch=2 c=7 v=105
21591 Par ch=2 c=7 v=106
21591 On ch=2 n=f#5 v=81
21591 On ch=2 n=c#6 v=81
21631 Par ch=2 c=7 v=107
21671 Par ch=2 c=7 v=108
21711 Par ch=2 c=7 v=109
21751 Par ch=2 c=7 v=110
21791 Off ch=2 n=c#6 v=64
21791 Off ch=2 n=f#5 v=64
21791 Par ch=2 c=7 v=111
21831 Par ch=2 c=7 v=112
21831 Par ch=2 c=64 v=0
21831 On ch=2 n=a5 v=112
21831 On ch=2 n=f#6 v=112
22031 Off ch=2 n=f#6 v=64
22031 Off ch=2 n=a5 v=64
22071 On ch=2 n=b5 v=112
22071 On ch=2 n=f6 v=112
22271 Off ch=2 n=f6 v=64
22271 Off ch=2 n=b5 v=64
22311 Par ch=2 c=64 v=127
22311 On ch=2 n=c#5 v=112
22311 On ch=2 n=f5 v=112
22311 On ch=2 n=b5 v=112
22511 Off ch=2 n=b5 v=64
22511 Off ch=2 n=f5 v=64
22511 Off ch=2 n=c#5 v=64
22551 Par ch=2 c=64 v=0
22551 On ch=2 n=c#5 v=112
22551 On ch=2 n=f5 v=112
22551 On ch=2 n=b5 v=112
22591 Par ch=2 c=7 v=111
22631 Par ch=2 c=7 v=110
22671 Par ch=2 c=7 v=109
22711 Par ch=2 c=7 v=108
22751 Off ch=2 n=b5 v=64
22751 Off ch=2 n=f5 v=64
22751 Off ch=2 n=c#5 v=64
22751 Par ch=2 c=7 v=107
22791 Par ch=2 c=7 v=106
22791 On ch=2 n=f#4 v=111
22791 On ch=2 n=c#5 v=111
22791 On ch=2 n=a5 v=111
22831 Par ch=2 c=7 v=105
22871 Par ch=2 c=7 v=104
22911 Par ch=2 c=7 v=103
22951 Par ch=2 c=7 v=102
22991 Off ch=2 n=a5 v=64
22991 Off ch=2 n=c#5 v=64
22991 Off ch=2 n=f#4 v=64
22991 Par ch=2 c=7 v=101
23031 Par ch=2 c=7 v=100
23031 Par ch=2 c=64 v=127
23031 On ch=2 n=c#4 v=100
23031 On ch=2 n=f4 v=100
23031 On ch=2 n=b4 v=100
23231 Off ch=2 n=b4 v=64
23231 Off ch=2 n=f4 v=64
23231 Off ch=2 n=c#4 v=64
23271 On ch=2 n=c#4 v=100
23271 On ch=2 n=f4 v=100
23271 On ch=2 n=b4 v=100
23471 Off ch=2 n=b4 v=64
23471 Off ch=2 n=f4 v=64
23471 Off ch=2 n=c#4 v=64
23511 Par ch=2 c=64 v=0
23511 On ch=2 n=f#3 v=100
23511 On ch=2 n=c#4 v=100
23511 On ch=2 n=a4 v=100
23711 Off ch=2 n=a4 v=64
23711 Off ch=2 n=c#4 v=64
23711 Off ch=2 n=f#3 v=64
23751 Par ch=2 c=64 v=127
23751 On ch=2 n=c#4 v=100
23751 On ch=2 n=f4 v=100
23751 On ch=2 n=b4 v=100
23951 Off ch=2 n=b4 v=64
23951 Off ch=2 n=f4 v=64
23951 Off ch=2 n=c#4 v=64
23991 On ch=2 n=c#4 v=100
23991 On ch=2 n=f4 v=100
23991 On ch=2 n=b4 v=100
24191 Off ch=2 n=b4 v=64
24191 Off ch=2 n=f4 v=64
24191 Off ch=2 n=c#4 v=64
24231 On ch=2 n=f#3 v=100
24231 On ch=2 n=c#4 v=100
24231 On ch=2 n=a4 v=100
24431 Off ch=2 n=a4 v=64
24431 Off ch=2 n=c#4 v=64
24431 Off ch=2 n=f#3 v=64
24471 Par ch=2 c=64 v=0
24471 On ch=2 n=c#3 v=100
24471 On ch=2 n=c#4 v=100
24711 Par ch=2 c=7 v=112
24911 Off ch=2 n=c#4 v=64
24911 Off ch=2 n=c#3 v=64
24951 On ch=2 n=d3 v=112
24951 On ch=2 n=d4 v=112
25068 Off ch=2 n=d4 v=64
25068 Off ch=2 n=d3 v=64
25071 On ch=2 n=c#3 v=112
25071 On ch=2 n=c#4 v=112
25188 Off ch=2 n=c#4 v=64
25188 Off ch=2 n=c#3 v=64
25191 On ch=2 n=g#2 v=112
25191 On ch=2 n=g#3 v=112
25308 Off ch=2 n=g#3 v=64
25308 Off ch=2 n=g#2 v=64
25311 On ch=2 n=a2 v=112
25311 On ch=2 n=a3 v=112
25428 Off ch=2 n=a3 v=64
25428 Off ch=2 n=a2 v=64
25431 On ch=2 n=f#3 v=112
25431 On ch=2 n=f#2 v=112
26091 Off ch=2 n=f#2 v=64
26091 Off ch=2 n=f#3 v=64
26151 Par ch=2 c=7 v=120
26151 Par ch=2 c=64 v=127
26151 On ch=2 n=d2 v=127
26151 On ch=2 n=d3 v=127
26351 Off ch=2 n=d3 v=64
26351 Off ch=2 n=d2 v=64
26391 Par ch=2 c=64 v=0
26391 Par ch=2 c=7 v=94
26391 On ch=2 n=f#4 v=94
26391 On ch=2 n=a4 v=94
26508 Off ch=2 n=a4 v=64
26508 Off ch=2 n=f#4 v=64
26511 On ch=2 n=f#4 v=95
26511 On ch=2 n=a4 v=95
26537 Par ch=2 c=7 v=95
26628 Off ch=2 n=a4 v=64
26628 Off ch=2 n=f#4 v=64
26631 On ch=2 n=f4 v=96
26631 On ch=2 n=g#4 v=96
26683 Par ch=2 c=7 v=96
26748 Off ch=2 n=g#4 v=64
26748 Off ch=2 n=f4 v=64
26751 On ch=2 n=f#4 v=97
26751 On ch=2 n=a4 v=97
26831 Par ch=2 c=7 v=97
26868 Off ch=2 n=a4 v=64
26868 Off ch=2 n=f#4 v=64
26871 On ch=2 n=g4 v=98
26977 Par ch=2 c=7 v=98
26988 Off ch=2 n=g4 v=64
26991 On ch=2 n=g#4 v=99
27108 Off ch=2 n=g#4 v=64
27111 On ch=2 n=a4 v=100
27123 Par ch=2 c=7 v=99
27228 Off ch=2 n=a4 v=64
27231 On ch=2 n=a#4 v=101
27271 Par ch=2 c=7 v=100
27348 Off ch=2 n=a#4 v=64
27351 On ch=2 n=b4 v=102
27417 Par ch=2 c=7 v=101
27468 Off ch=2 n=b4 v=64
27471 On ch=2 n=c5 v=103
27563 Par ch=2 c=7 v=102
27588 Off ch=2 n=c5 v=64
27591 On ch=2 n=c#5 v=104
27708 Off ch=2 n=c#5 v=64
27711 Par ch=2 c=7 v=103
27711 On ch=2 n=d5 v=105
27828 Off ch=2 n=d5 v=64
27831 On ch=2 n=d#5 v=106
27857 Par ch=2 c=7 v=104
27948 Off ch=2 n=d#5 v=64
27951 On ch=2 n=e5 v=107
28003 Par ch=2 c=7 v=105
28068 Off ch=2 n=e5 v=64
28071 On ch=2 n=f5 v=108
28151 Par ch=2 c=7 v=106
28188 Off ch=2 n=f5 v=64
28191 On ch=2 n=f#5 v=109
28297 Par ch=2 c=7 v=107
28308 Off ch=2 n=f#5 v=64
28311 On ch=2 n=f#5 v=110
28443 Par ch=2 c=7 v=108
28511 Off ch=2 n=f#5 v=64
28551 On ch=2 n=g5 v=111
28591 Par ch=2 c=7 v=109
28737 Par ch=2 c=7 v=110
28751 Off ch=2 n=g5 v=64
28791 Par ch=2 c=64 v=127
28791 On ch=2 n=g4 v=112
28791 On ch=2 n=a#4 v=112
28791 On ch=2 n=d#5 v=112
28791 On ch=2 n=g5 v=112
28851 Off ch=2 n=g5 v=64
28851 Off ch=2 n=d#5 v=64
28851 Off ch=2 n=a#4 v=64
28851 Off ch=2 n=g4 v=64
28883 Par ch=2 c=7 v=111
29031 Par ch=2 c=7 v=112
29031 On ch=2 n=d#3 v=112
29031 On ch=2 n=d#4 v=112
29091 Off ch=2 n=d#4 v=64
29091 Off ch=2 n=d#3 v=64
29271 Par ch=2 c=64 v=0
29271 Par ch=2 c=7 v=90
29271 On ch=2 n=g4 v=90
29388 Off ch=2 n=g4 v=64
29391 On ch=2 n=g4 v=90
29508 Off ch=2 n=g4 v=64
29511 On ch=2 n=f#4 v=90
29628 Off ch=2 n=f#4 v=64
29631 On ch=2 n=g4 v=90
29748 Off ch=2 n=g4 v=64
29751 On ch=2 n=g#4 v=90
29848 Par ch=2 c=7 v=91
29868 Off ch=2 n=g#4 v=64
29871 On ch=2 n=a4 v=91
29947 Par ch=2 c=7 v=92
29988 Off ch=2 n=a4 v=64
29991 On ch=2 n=a#4 v=92
30044 Par ch=2 c=7 v=93
30108 Off ch=2 n=a#4 v=64
30111 On ch=2 n=b4 v=93
30143 Par ch=2 c=7 v=94
30228 Off ch=2 n=b4 v=64
30231 On ch=2 n=c5 v=94
30241 Par ch=2 c=7 v=95
30339 Par ch=2 c=7 v=96
30348 Off ch=2 n=c5 v=64
30351 On ch=2 n=c#5 v=95
30437 Par ch=2 c=7 v=97
30468 Off ch=2 n=c#5 v=64
30471 On ch=2 n=d5 v=96
30536 Par ch=2 c=7 v=98
30588 Off ch=2 n=d5 v=64
30591 On ch=2 n=d#5 v=97
30633 Par ch=2 c=7 v=99
30708 Off ch=2 n=d#5 v=64
30711 On ch=2 n=e5 v=98
30732 Par ch=2 c=7 v=100
30828 Off ch=2 n=e5 v=64
30831 Par ch=2 c=7 v=101
30831 On ch=2 n=f5 v=99
30928 Par ch=2 c=7 v=102
30948 Off ch=2 n=f5 v=64
30951 On ch=2 n=f#5 v=100
31027 Par ch=2 c=7 v=103
31068 Off ch=2 n=f#5 v=64
31071 On ch=2 n=g5 v=101
31124 Par ch=2 c=7 v=104
31188 Off ch=2 n=g5 v=64
31191 On ch=2 n=g5 v=102
31223 Par ch=2 c=7 v=105
31321 Par ch=2 c=7 v=106
31391 Off ch=2 n=g5 v=64
31419 Par ch=2 c=7 v=107
31431 On ch=2 n=g#5 v=103
31517 Par ch=2 c=7 v=108
31616 Par ch=2 c=7 v=109
31631 Off ch=2 n=g#5 v=64
31671 Par ch=2 c=64 v=127
31671 On ch=2 n=g#4 v=104
31671 On ch=2 n=b4 v=104
31671 On ch=2 n=e5 v=104
31671 On ch=2 n=g#5 v=104
31713 Par ch=2 c=7 v=110
31812 Par ch=2 c=7 v=111
31871 Off ch=2 n=g#5 v=64
31871 Off ch=2 n=e5 v=64
31871 Off ch=2 n=b4 v=64
31871 Off ch=2 n=g#4 v=64
31911 Par ch=2 c=7 v=112
31911 On ch=2 n=e3 v=112
31911 On ch=2 n=e4 v=112
31971 Off ch=2 n=e4 v=64
31971 Off ch=2 n=e3 v=64
32151 Par ch=2 c=64 v=0
32151 Par ch=2 c=7 v=88
32151 On ch=2 n=g#4 v=88
32151 On ch=2 n=b4 v=88
32271 Off ch=2 n=b4 v=64
32271 Off ch=2 n=g#4 v=64
32271 On ch=2 n=b4 v=88
32271 On ch=2 n=g#4 v=88
32391 Off ch=2 n=g#4 v=64
32391 Off ch=2 n=b4 v=64
32391 On ch=2 n=g4 v=88
32391 On ch=2 n=a#4 v=88
32511 Off ch=2 n=a#4 v=64
32511 Off ch=2 n=g4 v=64
32511 On ch=2 n=g#4 v=88
32511 On ch=2 n=b4 v=88
32628 Off ch=2 n=b4 v=64
32628 Off ch=2 n=g#4 v=64
32631 On ch=2 n=a4 v=88
32631 On ch=2 n=c5 v=88
32748 Off ch=2 n=c5 v=64
32748 Off ch=2 n=a4 v=64
32751 On ch=2 n=a#4 v=88
32751 On ch=2 n=c#5 v=88
32868 Off ch=2 n=c#5 v=64
32868 Off ch=2 n=a#4 v=64
32871 On ch=2 n=b4 v=88
32871 On ch=2 n=d5 v=88
32988 Off ch=2 n=d5 v=64
32988 Off ch=2 n=b4 v=64
32991 On ch=2 n=b4 v=88
32991 On ch=2 n=d5 v=88
33108 Off ch=2 n=d5 v=64
33108 Off ch=2 n=b4 v=64
33111 On ch=2 n=b4 v=88
33111 On ch=2 n=d5 v=88
33228 Off ch=2 n=d5 v=64
33228 Off ch=2 n=b4 v=64
33231 On ch=2 n=b4 v=88
33231 On ch=2 n=d5 v=88
33348 Off ch=2 n=d5 v=64
33348 Off ch=2 n=b4 v=64
33351 On ch=2 n=b4 v=88
33351 On ch=2 n=d5 v=88
33471 Off ch=2 n=d5 v=64
33471 Off ch=2 n=b4 v=64
33471 On ch=2 n=a#4 v=88
33471 On ch=2 n=c#5 v=88
33588 Off ch=2 n=c#5 v=64
33588 Off ch=2 n=a#4 v=64
33591 On ch=2 n=a#4 v=88
33591 On ch=2 n=c#5 v=88
33631 Off ch=2 n=c#5 v=64
33631 Off ch=2 n=a#4 v=64
33711 On ch=2 n=c#5 v=88
33711 On ch=2 n=a#4 v=88
33831 Off ch=2 n=a#4 v=64
33831 Off ch=2 n=c#5 v=64
33831 On ch=2 n=a4 v=88
33831 On ch=2 n=c5 v=88
33948 Off ch=2 n=c5 v=64
33948 Off ch=2 n=a4 v=64
33951 On ch=2 n=a#4 v=88
33951 On ch=2 n=c#5 v=88
33991 Off ch=2 n=c#5 v=64
33991 Off ch=2 n=a#4 v=64
34071 On ch=2 n=b4 v=88
34071 On ch=2 n=d5 v=88
34191 Off ch=2 n=d5 v=64
34191 Off ch=2 n=b4 v=64
34191 On ch=2 n=c5 v=88
34191 On ch=2 n=d#5 v=88
34308 Off ch=2 n=d#5 v=64
34308 Off ch=2 n=c5 v=64
34311 On ch=2 n=c#5 v=88
34311 On ch=2 n=e5 v=88
34351 Off ch=2 n=e5 v=64
34351 Off ch=2 n=c#5 v=64
34431 On ch=2 n=c#5 v=88
34431 On ch=2 n=e5 v=88
34471 Off ch=2 n=e5 v=64
34471 Off ch=2 n=c#5 v=64
34551 On ch=2 n=c#5 v=88
34551 On ch=2 n=e5 v=88
34591 Off ch=2 n=e5 v=64
34591 Off ch=2 n=c#5 v=64
34671 On ch=2 n=c#5 v=88
34671 On ch=2 n=e5 v=88
34711 Off ch=2 n=e5 v=64
34711 Off ch=2 n=c#5 v=64
34791 On ch=2 n=c#5 v=88
34791 On ch=2 n=e5 v=88
34911 Off ch=2 n=e5 v=64
34911 Off ch=2 n=c#5 v=64
34911 On ch=2 n=c5 v=88
34911 On ch=2 n=d#5 v=88
35028 Off ch=2 n=d#5 v=64
35028 Off ch=2 n=c5 v=64
35031 On ch=2 n=c5 v=88
35031 On ch=2 n=d#5 v=88
35071 Off ch=2 n=d#5 v=64
35071 Off ch=2 n=c5 v=64
35151 On ch=2 n=c5 v=88
35151 On ch=2 n=d#5 v=88
35191 Off ch=2 n=d#5 v=64
35191 Off ch=2 n=c5 v=64
35271 On ch=2 n=b4 v=88
35271 On ch=2 n=d5 v=88
35311 Off ch=2 n=d5 v=64
35311 Off ch=2 n=b4 v=64
35391 On ch=2 n=c5 v=88
35391 On ch=2 n=d#5 v=88
35431 Off ch=2 n=d#5 v=64
35431 Off ch=2 n=c5 v=64
35511 Par ch=2 c=7 v=96
35511 Par ch=2 c=64 v=127
35511 On ch=2 n=b4 v=96
35511 On ch=2 n=c#5 v=96
35511 On ch=2 n=f5 v=96
35711 Off ch=2 n=f5 v=64
35711 Off ch=2 n=c#5 v=64
35711 Off ch=2 n=b4 v=64
35751 On ch=2 n=c#3 v=96
35751 On ch=2 n=c#4 v=96
35951 Off ch=2 n=c#4 v=64
35951 Off ch=2 n=c#3 v=64
35991 On ch=2 n=b4 v=96
35991 On ch=2 n=c#5 v=96
35991 On ch=2 n=f5 v=96
36191 Off ch=2 n=f5 v=64
36191 Off ch=2 n=c#5 v=64
36191 Off ch=2 n=b4 v=64
36231 Par ch=2 c=64 v=0
36231 Par ch=2 c=64 v=127
36231 On ch=2 n=f#4 v=96
36231 On ch=2 n=b4 v=96
36231 On ch=2 n=c#5 v=96
36231 On ch=2 n=e5 v=96
36431 Off ch=2 n=e5 v=64
36431 Off ch=2 n=c#5 v=64
36431 Off ch=2 n=b4 v=64
36431 Off ch=2 n=f#4 v=64
36471 On ch=2 n=f#2 v=96
36471 On ch=2 n=f#3 v=96
36671 Off ch=2 n=f#3 v=64
36671 Off ch=2 n=f#2 v=64
36711 Par ch=2 c=64 v=0
36711 On ch=2 n=f#4 v=96
36711 On ch=2 n=a#4 v=96
36711 On ch=2 n=c#5 v=96
36711 On ch=2 n=e5 v=96
36911 Off ch=2 n=e5 v=64
36911 Off ch=2 n=c#5 v=64
36911 Off ch=2 n=a#4 v=64
36911 Off ch=2 n=f#4 v=64
36951 Par ch=2 c=64 v=127
36951 On ch=2 n=a4 v=96
36951 On ch=2 n=b4 v=96
36951 On ch=2 n=d#5 v=96
37151 Off ch=2 n=d#5 v=64
37151 Off ch=2 n=b4 v=64
37151 Off ch=2 n=a4 v=64
37191 On ch=2 n=b2 v=96
37191 On ch=2 n=b3 v=96
37391 Off ch=2 n=b3 v=64
37391 Off ch=2 n=b2 v=64
37431 On ch=2 n=a4 v=96
37431 On ch=2 n=b4 v=96
37431 On ch=2 n=d#5 v=96
37631 Off ch=2 n=d#5 v=64
37631 Off ch=2 n=b4 v=64
37631 Off ch=2 n=a4 v=64
37671 Par ch=2 c=64 v=0
37671 Par ch=2 c=64 v=127
37671 On ch=2 n=e4 v=96
37671 On ch=2 n=a4 v=96
37671 On ch=2 n=b4 v=96
37671 On ch=2 n=d5 v=96
37871 Off ch=2 n=d5 v=64
37871 Off ch=2 n=b4 v=64
37871 Off ch=2 n=a4 v=64
37871 Off ch=2 n=e4 v=64
37911 On ch=2 n=e2 v=96
37911 On ch=2 n=e3 v=96
38111 Off ch=2 n=e3 v=64
38111 Off ch=2 n=e2 v=64
38151 Par ch=2 c=64 v=0
38151 On ch=2 n=e4 v=96
38151 On ch=2 n=g#4 v=96
38151 On ch=2 n=d5 v=96
38351 Off ch=2 n=d5 v=64
38351 Off ch=2 n=g#4 v=64
38351 Off ch=2 n=e4 v=64
38391 Par ch=2 c=64 v=127
38391 On ch=2 n=g4 v=96
38391 On ch=2 n=a4 v=96
38391 On ch=2 n=c#5 v=96
38591 Off ch=2 n=c#5 v=64
38591 Off ch=2 n=a4 v=64
38591 Off ch=2 n=g4 v=64
38631 On ch=2 n=a2 v=96
38631 On ch=2 n=a3 v=96
38831 Off ch=2 n=a3 v=64
38831 Off ch=2 n=a2 v=64
38871 On ch=2 n=g4 v=96
38871 On ch=2 n=a4 v=96
38871 On ch=2 n=c#5 v=96
39071 Off ch=2 n=c#5 v=64
39071 Off ch=2 n=a4 v=64
39071 Off ch=2 n=g4 v=64
39111 Par ch=2 c=64 v=0
39111 Par ch=2 c=64 v=127
39111 On ch=2 n=f#4 v=96
39111 On ch=2 n=c5 v=96
39151 Par ch=2 c=7 v=97
39191 Par ch=2 c=7 v=98
39231 Par ch=2 c=7 v=99
39271 Par ch=2 c=7 v=100
39311 Off ch=2 n=c5 v=64
39311 Off ch=2 n=f#4 v=64
39311 Par ch=2 c=7 v=101
39351 Par ch=2 c=7 v=102
39351 On ch=2 n=a4 v=97
39351 On ch=2 n=c5 v=97
39391 Par ch=2 c=7 v=103
39431 Par ch=2 c=7 v=104
39471 Par ch=2 c=7 v=105
39511 Par ch=2 c=7 v=106
39551 Off ch=2 n=c5 v=64
39551 Off ch=2 n=a4 v=64
39551 Par ch=2 c=7 v=107
39591 Par ch=2 c=7 v=108
39591 On ch=2 n=a5 v=98
39591 On ch=2 n=c6 v=98
39631 Par ch=2 c=7 v=109
39671 Par ch=2 c=7 v=110
39711 Par ch=2 c=7 v=111
39751 Par ch=2 c=7 v=112
39791 Off ch=2 n=c6 v=64
39791 Off ch=2 n=a5 v=64
39791 Par ch=2 c=7 v=113
39831 Par ch=2 c=7 v=114
39831 On ch=2 n=a6 v=114
39831 On ch=2 n=c7 v=114
40031 Off ch=2 n=c7 v=64
40031 Off ch=2 n=a6 v=64
40071 Par ch=2 c=64 v=0
40071 On ch=2 n=c4 v=114
40071 On ch=2 n=c5 v=114
40271 Off ch=2 n=c5 v=64
40271 Off ch=2 n=c4 v=64
40311 On ch=2 n=c2 v=114
40311 On ch=2 n=c3 v=114
40511 Off ch=2 n=c3 v=64
40511 Off ch=2 n=c2 v=64
40551 On ch=2 n=c#2 v=114
40551 On ch=2 n=c#3 v=114
40566 Par ch=2 c=7 v=113
40582 Par ch=2 c=7 v=112
40598 Par ch=2 c=7 v=111
40614 Par ch=2 c=7 v=110
40631 Par ch=2 c=7 v=109
40646 Par ch=2 c=7 v=108
40662 Par ch=2 c=7 v=107
40678 Par ch=2 c=7 v=106
40694 Par ch=2 c=7 v=105
40711 Par ch=2 c=7 v=104
40726 Par ch=2 c=7 v=103
40742 Par ch=2 c=7 v=102
40751 Off ch=2 n=c#3 v=64
40751 Off ch=2 n=c#2 v=64
40758 Par ch=2 c=7 v=101
40774 Par ch=2 c=7 v=100
40791 Par ch=2 c=7 v=99
40791 On ch=2 n=c#3 v=112
40791 On ch=2 n=c#4 v=112
40806 Par ch=2 c=7 v=98
40822 Par ch=2 c=7 v=97
40838 Par ch=2 c=7 v=96
40854 Par ch=2 c=7 v=95
40871 Par ch=2 c=7 v=94
40886 Par ch=2 c=7 v=93
40902 Par ch=2 c=7 v=92
40918 Par ch=2 c=7 v=91
40934 Par ch=2 c=7 v=90
40951 Par ch=2 c=7 v=89
40966 Par ch=2 c=7 v=88
40982 Par ch=2 c=7 v=87
40991 Off ch=2 n=c#4 v=64
40991 Off ch=2 n=c#3 v=64
40998 Par ch=2 c=7 v=86
41014 Par ch=2 c=7 v=85
41031 Par ch=2 c=7 v=84
41031 On ch=2 n=d#2 v=110
41031 On ch=2 n=d#3 v=110
41046 Par ch=2 c=7 v=83
41062 Par ch=2 c=7 v=82
41078 Par ch=2 c=7 v=81
41094 Par ch=2 c=7 v=80
41111 Par ch=2 c=7 v=79
41126 Par ch=2 c=7 v=78
41142 Par ch=2 c=7 v=77
41158 Par ch=2 c=7 v=76
41174 Par ch=2 c=7 v=75
41191 Par ch=2 c=7 v=74
41206 Par ch=2 c=7 v=73
41222 Par ch=2 c=7 v=72
41231 Off ch=2 n=d#3 v=64
41231 Off ch=2 n=d#2 v=64
41238 Par ch=2 c=7 v=71
41254 Par ch=2 c=7 v=70
41271 Par ch=2 c=7 v=69
41271 On ch=2 n=f2 v=108
41271 On ch=2 n=f3 v=108
41286 Par ch=2 c=7 v=68
41302 Par ch=2 c=7 v=67
41318 Par ch=2 c=7 v=66
41334 Par ch=2 c=7 v=65
41351 Par ch=2 c=7 v=64
41366 Par ch=2 c=7 v=63
41382 Par ch=2 c=7 v=62
41398 Par ch=2 c=7 v=61
41414 Par ch=2 c=7 v=60
41431 Par ch=2 c=7 v=59
41446 Par ch=2 c=7 v=58
41462 Par ch=2 c=7 v=57
41471 Off ch=2 n=f3 v=64
41471 Off ch=2 n=f2 v=64
41478 Par ch=2 c=7 v=56
41494 Par ch=2 c=7 v=55
41511 Par ch=2 c=7 v=54
41511 On ch=2 n=f3 v=106
41511 On ch=2 n=f4 v=106
41526 Par ch=2 c=7 v=53
41542 Par ch=2 c=7 v=52
41558 Par ch=2 c=7 v=51
41574 Par ch=2 c=7 v=50
41591 Par ch=2 c=7 v=49
41606 Par ch=2 c=7 v=48
41622 Par ch=2 c=7 v=47
41638 Par ch=2 c=7 v=46
41654 Par ch=2 c=7 v=45
41671 Par ch=2 c=7 v=44
41686 Par ch=2 c=7 v=43
41702 Par ch=2 c=7 v=42
41711 Off ch=2 n=f4 v=64
41711 Off ch=2 n=f3 v=64
41718 Par ch=2 c=7 v=41
41734 Par ch=2 c=7 v=40
41751 Par ch=2 c=7 v=39
41751 On ch=2 n=f2 v=104
41751 On ch=2 n=f3 v=104
41766 Par ch=2 c=7 v=38
41782 Par ch=2 c=7 v=37
41798 Par ch=2 c=7 v=36
41814 Par ch=2 c=7 v=35
41831 Par ch=2 c=7 v=34
41846 Par ch=2 c=7 v=33
41862 Par ch=2 c=7 v=32
41878 Par ch=2 c=7 v=31
41894 Par ch=2 c=7 v=30
41911 Par ch=2 c=7 v=29
41926 Par ch=2 c=7 v=28
41942 Par ch=2 c=7 v=27
41951 Off ch=2 n=f3 v=64
41951 Off ch=2 n=f2 v=64
41958 Par ch=2 c=7 v=26
41974 Par ch=2 c=7 v=25
41991 Par ch=2 c=7 v=24
41991 On ch=2 n=a#2 v=24
41991 On ch=2 n=a#3 v=24
42051 Par ch=2 c=7 v=25
42111 Par ch=2 c=7 v=26
42171 Par ch=2 c=7 v=27
42191 Off ch=2 n=a#3 v=64
42191 Off ch=2 n=a#2 v=64
42231 Par ch=2 c=7 v=28
42231 On ch=2 n=c#3 v=25
42231 On ch=2 n=c#4 v=25
42291 Par ch=2 c=7 v=29
42351 Par ch=2 c=7 v=30
42411 Par ch=2 c=7 v=31
42431 Off ch=2 n=c#4 v=64
42431 Off ch=2 n=c#3 v=64
42471 Par ch=2 c=7 v=32
42471 On ch=2 n=d#3 v=26
42471 On ch=2 n=f#4 v=26
42531 Par ch=2 c=7 v=33
42591 Par ch=2 c=7 v=34
42651 Par ch=2 c=7 v=35
42671 Off ch=2 n=f#4 v=64
42671 Off ch=2 n=d#3 v=64
42711 Par ch=2 c=7 v=36
42711 On ch=2 n=f3 v=27
42771 Par ch=2 c=7 v=37
42831 Par ch=2 c=7 v=38
42891 Par ch=2 c=7 v=39
42911 Off ch=2 n=f3 v=64
42951 Par ch=2 c=7 v=40
43011 Par ch=2 c=7 v=41
43071 Par ch=2 c=7 v=42
43131 Par ch=2 c=7 v=43
43191 Par ch=2 c=7 v=44
43191 On ch=2 n=f2 v=29
43191 On ch=2 n=f3 v=29
43251 Par ch=2 c=7 v=45
43311 Par ch=2 c=7 v=46
43371 Par ch=2 c=7 v=47
43391 Off ch=2 n=f3 v=64
43391 Off ch=2 n=f2 v=64
43431 Par ch=2 c=7 v=48
43431 On ch=2 n=a#2 v=48
43431 On ch=2 n=a#3 v=48
43631 Off ch=2 n=a#3 v=64
43631 Off ch=2 n=a#2 v=64
43671 On ch=2 n=g#3 v=48
43671 On ch=2 n=g#4 v=48
43871 Off ch=2 n=g#4 v=64
43871 Off ch=2 n=g#3 v=64
43911 On ch=2 n=f3 v=48
43911 On ch=2 n=f4 v=48
44111 Off ch=2 n=f4 v=64
44111 Off ch=2 n=f3 v=64
44151 On ch=2 n=f#3 v=48
44151 On ch=2 n=f#4 v=48
44351 Off ch=2 n=f#4 v=64
44351 Off ch=2 n=f#3 v=64
44391 On ch=2 n=f3 v=48
44391 On ch=2 n=f4 v=48
44591 Off ch=2 n=f4 v=64
44591 Off ch=2 n=f3 v=64
44631 On ch=2 n=c#3 v=48
44631 On ch=2 n=c#4 v=48
44831 Off ch=2 n=c#4 v=64
44831 Off ch=2 n=c#3 v=64
44871 On ch=2 n=d#3 v=48
44871 On ch=2 n=d#4 v=48
45071 Off ch=2 n=d#4 v=64
45071 Off ch=2 n=d#3 v=64
45111 On ch=2 n=c#3 v=48
45111 On ch=2 n=c#4 v=48
45311 Off ch=2 n=c#4 v=64
45311 Off ch=2 n=c#3 v=64
45351 On ch=2 n=a#2 v=48
45351 On ch=2 n=a#3 v=48
45551 Off ch=2 n=a#3 v=64
45551 Off ch=2 n=a#2 v=64
45591 On ch=2 n=b2 v=48
45591 On ch=2 n=b3 v=48
45791 Off ch=2 n=b3 v=64
45791 Off ch=2 n=b2 v=64
45831 On ch=2 n=a#2 v=48
45831 On ch=2 n=a#3 v=48
46031 Off ch=2 n=a#3 v=64
46031 Off ch=2 n=a#2 v=64
46071 On ch=2 n=f#2 v=48
46071 On ch=2 n=f#3 v=48
46151 Par ch=2 c=7 v=49
46231 Par ch=2 c=7 v=50
46271 Off ch=2 n=f#3 v=64
46271 Off ch=2 n=f#2 v=64
46311 Par ch=2 c=7 v=51
46311 On ch=2 n=d#2 v=48
46311 On ch=2 n=d#3 v=48
46391 Par ch=2 c=7 v=52
46471 Par ch=2 c=7 v=53
46511 Off ch=2 n=d#3 v=64
46511 Off ch=2 n=d#2 v=64
46551 Par ch=2 c=7 v=54
46551 On ch=2 n=e2 v=48
46551 On ch=2 n=e3 v=48
46631 Par ch=2 c=7 v=55
46668 Off ch=2 n=e3 v=64
46668 Off ch=2 n=e2 v=64
46671 On ch=2 n=f2 v=48
46671 On ch=2 n=f3 v=48
46711 Par ch=2 c=7 v=56
46788 Off ch=2 n=f3 v=64
46788 Off ch=2 n=f2 v=64
46791 Par ch=2 c=7 v=57
46791 On ch=2 n=f#2 v=48
46791 On ch=2 n=f#3 v=48
46871 Par ch=2 c=7 v=58
46951 Par ch=2 c=7 v=59
46991 Off ch=2 n=f#3 v=64
46991 Off ch=2 n=f#2 v=64
47031 Par ch=2 c=7 v=60
47031 On ch=2 n=g#2 v=60
47031 On ch=2 n=g#3 v=60
47231 Off ch=2 n=g#3 v=64
47231 Off ch=2 n=g#2 v=64
47271 On ch=2 n=g#3 v=60
47271 On ch=2 n=d#4 v=60
47271 On ch=2 n=f4 v=60
47271 On ch=2 n=b4 v=60
47471 Off ch=2 n=b4 v=64
47471 Off ch=2 n=f4 v=64
47471 Off ch=2 n=d#4 v=64
47471 Off ch=2 n=g#3 v=64
47511 On ch=2 n=a#3 v=60
47511 On ch=2 n=f4 v=60
47511 On ch=2 n=g#4 v=60
47511 On ch=2 n=d5 v=60
47711 Off ch=2 n=d5 v=64
47711 Off ch=2 n=g#4 v=64
47711 Off ch=2 n=f4 v=64
47711 Off ch=2 n=a#3 v=64
47751 On ch=2 n=f#2 v=60
47751 On ch=2 n=f#3 v=60
47822 Par ch=2 c=7 v=61
47894 Par ch=2 c=7 v=62
47951 Off ch=2 n=f#3 v=64
47951 Off ch=2 n=f#2 v=64
47966 Par ch=2 c=7 v=63
47991 On ch=2 n=g2 v=60
47991 On ch=2 n=g3 v=60
48038 Par ch=2 c=7 v=64
48108 Off ch=2 n=g3 v=64
48108 Off ch=2 n=g2 v=64
48109 Par ch=2 c=7 v=65
48111 On ch=2 n=g#2 v=60
48111 On ch=2 n=g#3 v=60
48182 Par ch=2 c=7 v=66
48228 Off ch=2 n=g#3 v=64
48228 Off ch=2 n=g#2 v=64
48231 On ch=2 n=a2 v=60
48231 On ch=2 n=a3 v=60
48254 Par ch=2 c=7 v=67
48326 Par ch=2 c=7 v=68
48398 Par ch=2 c=7 v=69
48431 Off ch=2 n=a3 v=64
48431 Off ch=2 n=a2 v=64
48469 Par ch=2 c=7 v=70
48471 Par ch=2 c=7 v=70
48471 On ch=2 n=b2 v=70
48471 On ch=2 n=b3 v=70
48542 Par ch=2 c=7 v=71
48614 Par ch=2 c=7 v=72
48671 Off ch=2 n=b3 v=64
48671 Off ch=2 n=b2 v=64
48686 Par ch=2 c=7 v=73
48711 On ch=2 n=b3 v=70
48711 On ch=2 n=f#4 v=70
48711 On ch=2 n=g#4 v=70
48711 On ch=2 n=d5 v=70
48758 Par ch=2 c=7 v=74
48829 Par ch=2 c=7 v=75
48902 Par ch=2 c=7 v=76
48911 Off ch=2 n=d5 v=64
48911 Off ch=2 n=g#4 v=64
48911 Off ch=2 n=f#4 v=64
48911 Off ch=2 n=b3 v=64
48951 On ch=2 n=c#4 v=70
48951 On ch=2 n=g#4 v=70
48951 On ch=2 n=b4 v=70
48951 On ch=2 n=f5 v=70
48974 Par ch=2 c=7 v=77
49046 Par ch=2 c=7 v=78
49118 Par ch=2 c=7 v=79
49151 Off ch=2 n=f5 v=64
49151 Off ch=2 n=b4 v=64
49151 Off ch=2 n=g#4 v=64
49151 Off ch=2 n=c#4 v=64
49189 Par ch=2 c=7 v=80
49191 Par ch=2 c=7 v=80
49191 On ch=2 n=a2 v=80
49191 On ch=2 n=a3 v=80
49262 Par ch=2 c=7 v=81
49334 Par ch=2 c=7 v=82
49391 Off ch=2 n=a3 v=64
49391 Off ch=2 n=a2 v=64
49406 Par ch=2 c=7 v=83
49431 On ch=2 n=b2 v=80
49431 On ch=2 n=b3 v=80
49478 Par ch=2 c=7 v=84
49548 Off ch=2 n=b3 v=64
49548 Off ch=2 n=b2 v=64
49549 Par ch=2 c=7 v=85
49551 On ch=2 n=c3 v=80
49551 On ch=2 n=c4 v=80
49622 Par ch=2 c=7 v=86
49668 Off ch=2 n=c4 v=64
49668 Off ch=2 n=c3 v=64
49671 On ch=2 n=c#3 v=80
49671 On ch=2 n=c#4 v=80
49694 Par ch=2 c=7 v=87
49766 Par ch=2 c=7 v=88
49838 Par ch=2 c=7 v=89
49871 Off ch=2 n=c#4 v=64
49871 Off ch=2 n=c#3 v=64
49909 Par ch=2 c=7 v=90
49911 Par ch=2 c=7 v=90
49911 On ch=2 n=d3 v=90
49911 On ch=2 n=d4 v=90
49982 Par ch=2 c=7 v=91
50054 Par ch=2 c=7 v=92
50111 Off ch=2 n=d4 v=64
50111 Off ch=2 n=d3 v=64
50126 Par ch=2 c=7 v=93
50151 On ch=2 n=d#3 v=90
50151 On ch=2 n=d#4 v=90
50198 Par ch=2 c=7 v=94
50268 Off ch=2 n=d#4 v=64
50268 Off ch=2 n=d#3 v=64
50269 Par ch=2 c=7 v=95
50271 On ch=2 n=e3 v=90
50271 On ch=2 n=e4 v=90
50342 Par ch=2 c=7 v=96
50388 Off ch=2 n=e4 v=64
50388 Off ch=2 n=e3 v=64
50391 On ch=2 n=f3 v=90
50391 On ch=2 n=f4 v=90
50414 Par ch=2 c=7 v=97
50486 Par ch=2 c=7 v=98
50558 Par ch=2 c=7 v=99
50591 Off ch=2 n=f4 v=64
50591 Off ch=2 n=f3 v=64
50629 Par ch=2 c=7 v=100
50631 Par ch=2 c=7 v=100
50631 On ch=2 n=f#3 v=100
50631 On ch=2 n=f#4 v=100
50702 Par ch=2 c=7 v=101
50774 Par ch=2 c=7 v=102
50831 Off ch=2 n=f#4 v=64
50831 Off ch=2 n=f#3 v=64
50846 Par ch=2 c=7 v=103
50871 On ch=2 n=g#3 v=100
50871 On ch=2 n=g#4 v=100
50918 Par ch=2 c=7 v=104
50988 Off ch=2 n=g#4 v=64
50988 Off ch=2 n=g#3 v=64
50989 Par ch=2 c=7 v=105
50991 On ch=2 n=a3 v=100
50991 On ch=2 n=a4 v=100
51062 Par ch=2 c=7 v=106
51108 Off ch=2 n=a4 v=64
51108 Off ch=2 n=a3 v=64
51111 On ch=2 n=a#3 v=100
51111 On ch=2 n=a#4 v=100
51134 Par ch=2 c=7 v=107
51206 Par ch=2 c=7 v=108
51278 Par ch=2 c=7 v=109
51311 Off ch=2 n=a#4 v=64
51311 Off ch=2 n=a#3 v=64
51349 Par ch=2 c=7 v=110
51351 Par ch=2 c=7 v=110
51351 On ch=2 n=b3 v=110
51351 On ch=2 n=b4 v=110
51551 Off ch=2 n=b4 v=64
51551 Off ch=2 n=b3 v=64
51591 On ch=2 n=b2 v=110
51591 On ch=2 n=b3 v=110
51791 Off ch=2 n=b3 v=64
51791 Off ch=2 n=b2 v=64
51831 On ch=2 n=g#2 v=110
51831 On ch=2 n=g#3 v=110
52031 Off ch=2 n=g#3 v=64
52031 Off ch=2 n=g#2 v=64
52071 Par ch=2 c=7 v=127
52071 Par ch=2 c=64 v=127
52071 On ch=2 n=d#4 v=127
52071 On ch=2 n=f#4 v=127
52071 On ch=2 n=a#4 v=127
52071 On ch=2 n=d#5 v=127
52271 Off ch=2 n=d#5 v=64
52271 Off ch=2 n=a#4 v=64
52271 Off ch=2 n=f#4 v=64
52271 Off ch=2 n=d#4 v=64
52311 On ch=2 n=f#2 v=127
52311 On ch=2 n=f#3 v=127
52511 Off ch=2 n=f#3 v=64
52511 Off ch=2 n=f#2 v=64
52551 Par ch=2 c=64 v=0
52551 Par ch=2 c=64 v=127
52551 On ch=2 n=d#4 v=127
52551 On ch=2 n=f#4 v=127
52551 On ch=2 n=a#4 v=127
52551 On ch=2 n=d#5 v=127
52751 Off ch=2 n=d#5 v=64
52751 Off ch=2 n=a#4 v=64
52751 Off ch=2 n=f#4 v=64
52751 Off ch=2 n=d#4 v=64
52791 On ch=2 n=g#2 v=127
52791 On ch=2 n=g#3 v=127
52991 Off ch=2 n=g#3 v=64
52991 Off ch=2 n=g#2 v=64
53031 Par ch=2 c=64 v=0
53031 Par ch=2 c=64 v=127
53031 On ch=2 n=f4 v=127
53031 On ch=2 n=g#4 v=127
53031 On ch=2 n=b4 v=127
53031 On ch=2 n=d#5 v=127
53231 Off ch=2 n=d#5 v=64
53231 Off ch=2 n=b4 v=64
53231 Off ch=2 n=g#4 v=64
53231 Off ch=2 n=f4 v=64
53271 On ch=2 n=b2 v=127
53271 On ch=2 n=b3 v=127
53471 Off ch=2 n=b3 v=64
53471 Off ch=2 n=b2 v=64
53511 Par ch=2 c=64 v=0
53511 Par ch=2 c=64 v=127
53511 On ch=2 n=f#4 v=127
53511 On ch=2 n=a#4 v=127
53511 On ch=2 n=d#5 v=127
53711 Off ch=2 n=d#5 v=64
53711 Off ch=2 n=a#4 v=64
53711 Off ch=2 n=f#4 v=64
53751 On ch=2 n=a#2 v=127
53751 On ch=2 n=a#3 v=127
53951 Off ch=2 n=a#3 v=64
53951 Off ch=2 n=a#2 v=64
53991 Par ch=2 c=64 v=0
53991 Par ch=2 c=64 v=127
53991 On ch=2 n=f4 v=127
53991 On ch=2 n=a#4 v=127
53991 On ch=2 n=d#5 v=127
54191 Off ch=2 n=d#5 v=64
54191 Off ch=2 n=a#4 v=64
54191 Off ch=2 n=f4 v=64
54231 On ch=2 n=a#2 v=127
54231 On ch=2 n=a#3 v=127
54431 Off ch=2 n=a#3 v=64
54431 Off ch=2 n=a#2 v=64
54471 Par ch=2 c=64 v=0
54471 On ch=2 n=f4 v=127
54471 On ch=2 n=g#4 v=127
54471 On ch=2 n=a#4 v=127
54471 On ch=2 n=d5 v=127
54671 Off ch=2 n=d5 v=64
54671 Off ch=2 n=a#4 v=64
54671 Off ch=2 n=g#4 v=64
54671 Off ch=2 n=f4 v=64
54711 On ch=2 n=d#2 v=127
54711 On ch=2 n=d#3 v=127
54911 Off ch=2 n=d#3 v=64
54911 Off ch=2 n=d#2 v=64
54951 On ch=2 n=d#4 v=127
54951 On ch=2 n=d#3 v=127
54951 Par ch=2 c=64 v=127
55611 Off ch=2 n=d#3 v=64
55611 Off ch=2 n=d#4 v=64
55671 Par ch=2 c=64 v=0
55671 On ch=2 n=a#2 v=127
55671 On ch=2 n=a#3 v=127
55871 Off ch=2 n=a#3 v=64
55871 Off ch=2 n=a#2 v=64
55911 On ch=2 n=b2 v=127
55911 On ch=2 n=b3 v=127
56028 Off ch=2 n=b3 v=64
56028 Off ch=2 n=b2 v=64
56031 On ch=2 n=a#2 v=127
56031 On ch=2 n=a#3 v=127
56148 Off ch=2 n=a#3 v=64
56148 Off ch=2 n=a#2 v=64
56151 On ch=2 n=f2 v=127
56151 On ch=2 n=f3 v=127
56268 Off ch=2 n=f3 v=64
56268 Off ch=2 n=f2 v=64
56271 On ch=2 n=f#2 v=127
56271 On ch=2 n=f#3 v=127
56388 Off ch=2 n=f#3 v=64
56388 Off ch=2 n=f#2 v=64
56391 On ch=2 n=d#3 v=127
56391 On ch=2 n=d#2 v=127
57311 Off ch=2 n=d#2 v=64
57311 Off ch=2 n=d#3 v=64
57831 Par ch=2 c=7 v=30
57831 Par ch=2 c=64 v=127
57831 On ch=2 n=f#2 v=30
58071 Off ch=2 n=f#2 v=64
58071 On ch=2 n=d#5 v=30
58071 On ch=2 n=f#4 v=30
58071 On ch=2 n=c#4 v=30
58311 Off ch=2 n=c#4 v=64
58311 Off ch=2 n=f#4 v=64
58311 Off ch=2 n=d#5 v=64
58311 On ch=2 n=c#4 v=30
58311 On ch=2 n=f#4 v=30
58311 On ch=2 n=c#5 v=30
58511 Off ch=2 n=c#5 v=64
58511 Off ch=2 n=f#4 v=64
58511 Off ch=2 n=c#4 v=64
58551 On ch=2 n=f#3 v=30
58791 Off ch=2 n=f#3 v=64
58791 On ch=2 n=d#5 v=30
58791 On ch=2 n=f#4 v=30
58791 On ch=2 n=c#4 v=30
59031 Off ch=2 n=c#4 v=64
59031 Off ch=2 n=f#4 v=64
59031 Off ch=2 n=d#5 v=64
59031 On ch=2 n=c#4 v=30
59031 On ch=2 n=f#4 v=30
59031 On ch=2 n=c#5 v=30
59231 Off ch=2 n=c#5 v=64
59231 Off ch=2 n=f#4 v=64
59231 Off ch=2 n=c#4 v=64
59271 On ch=2 n=f#3 v=30
59511 Off ch=2 n=f#3 v=64
59511 On ch=2 n=d#5 v=30
59511 On ch=2 n=f#4 v=30
59511 On ch=2 n=c#4 v=30
59751 Off ch=2 n=c#4 v=64
59751 Off ch=2 n=f#4 v=64
59751 Off ch=2 n=d#5 v=64
59751 On ch=2 n=c#4 v=30
59751 On ch=2 n=f#4 v=30
59751 On ch=2 n=c#5 v=30
59951 Off ch=2 n=c#5 v=64
59951 Off ch=2 n=f#4 v=64
59951 Off ch=2 n=c#4 v=64
59991 On ch=2 n=f#3 v=30
60231 Off ch=2 n=f#3 v=64
60231 On ch=2 n=d#5 v=30
60231 On ch=2 n=f#4 v=30
60231 On ch=2 n=c#4 v=30
60471 Off ch=2 n=c#4 v=64
60471 Off ch=2 n=f#4 v=64
60471 Off ch=2 n=d#5 v=64
60471 On ch=2 n=c#4 v=30
60471 On ch=2 n=f#4 v=30
60471 On ch=2 n=c#5 v=30
60671 Off ch=2 n=c#5 v=64
60671 Off ch=2 n=f#4 v=64
60671 Off ch=2 n=c#4 v=64
60711 Par ch=2 c=7 v=44
60711 Par ch=2 c=64 v=127
60711 On ch=2 n=f#3 v=44
60951 Off ch=2 n=f#3 v=64
60951 On ch=2 n=d#5 v=44
60951 On ch=2 n=f#4 v=44
60951 On ch=2 n=c#4 v=44
61191 Off ch=2 n=c#4 v=64
61191 Off ch=2 n=f#4 v=64
61191 Off ch=2 n=d#5 v=64
61191 On ch=2 n=c#4 v=44
61191 On ch=2 n=f#4 v=44
61191 On ch=2 n=c#5 v=44
61391 Off ch=2 n=c#5 v=64
61391 Off ch=2 n=f#4 v=64
61391 Off ch=2 n=c#4 v=64
61431 Par ch=2 c=64 v=0
61431 Par ch=2 c=64 v=127
61431 On ch=2 n=f#3 v=44
61631 Off ch=2 n=f#3 v=64
61671 On ch=2 n=c#4 v=44
61671 On ch=2 n=f#4 v=44
61671 On ch=2 n=d#5 v=44
61871 Off ch=2 n=d#5 v=64
61871 Off ch=2 n=f#4 v=64
61871 Off ch=2 n=c#4 v=64
61911 On ch=2 n=c#4 v=44
61911 On ch=2 n=f#4 v=44
61911 On ch=2 n=c#5 v=44
62111 Off ch=2 n=c#5 v=64
62111 Off ch=2 n=f#4 v=64
62111 Off ch=2 n=c#4 v=64
62151 Par ch=2 c=64 v=0
62151 Par ch=2 c=64 v=127
62151 On ch=2 n=c#3 v=44
62351 Off ch=2 n=c#3 v=64
62391 On ch=2 n=c#4 v=44
62391 On ch=2 n=g#4 v=44
62391 On ch=2 n=d#5 v=44
62591 Off ch=2 n=d#5 v=64
62591 Off ch=2 n=g#4 v=64
62591 Off ch=2 n=c#4 v=64
62631 On ch=2 n=c#4 v=44
62631 On ch=2 n=f#4 v=44
62631 On ch=2 n=c#5 v=44
62831 Off ch=2 n=c#5 v=64
62831 Off ch=2 n=f#4 v=64
62831 Off ch=2 n=c#4 v=64
62871 Par ch=2 c=64 v=0
62871 Par ch=2 c=64 v=127
62871 On ch=2 n=f#3 v=44
63111 Off ch=2 n=f#3 v=64
63111 On ch=2 n=d#5 v=44
63111 On ch=2 n=f#4 v=44
63111 On ch=2 n=c#4 v=44
63351 Off ch=2 n=c#4 v=64
63351 Off ch=2 n=f#4 v=64
63351 Off ch=2 n=d#5 v=64
63351 On ch=2 n=c#4 v=44
63351 On ch=2 n=f#4 v=44
63351 On ch=2 n=c#5 v=44
63591 Off ch=2 n=c#5 v=64
63591 Off ch=2 n=f#4 v=64
63591 Off ch=2 n=c#4 v=64
63591 Par ch=2 c=64 v=0
63591 Par ch=2 c=64 v=127
63591 On ch=2 n=c#4 v=44
63591 On ch=2 n=f#4 v=44
63591 On ch=2 n=c#5 v=44
63831 Off ch=2 n=c#5 v=64
63831 Off ch=2 n=f#4 v=64
63831 Off ch=2 n=c#4 v=64
63831 On ch=2 n=b4 v=44
63831 On ch=2 n=f#4 v=44
63831 On ch=2 n=c#4 v=44
64071 Off ch=2 n=c#4 v=64
64071 Off ch=2 n=f#4 v=64
64071 Off ch=2 n=b4 v=64
64071 On ch=2 n=c#4 v=44
64071 On ch=2 n=f#4 v=44
64071 On ch=2 n=a#4 v=44
64311 Off ch=2 n=a#4 v=64
64311 Off ch=2 n=f#4 v=64
64311 Off ch=2 n=c#4 v=64
64311 On ch=2 n=c#4 v=44
64311 On ch=2 n=f#4 v=44
64311 On ch=2 n=a#4 v=44
64551 Off ch=2 n=a#4 v=64
64551 Off ch=2 n=f#4 v=64
64551 Off ch=2 n=c#4 v=64
64551 On ch=2 n=c#4 v=44
64551 On ch=2 n=b3 v=44
64551 Par ch=2 c=64 v=0
64791 Off ch=2 n=b3 v=64
64791 Off ch=2 n=c#4 v=64
64791 Par ch=2 c=64 v=127
64791 On ch=2 n=a#3 v=44
64791 On ch=2 n=c#4 v=44
65031 Off ch=2 n=c#4 v=64
65031 Off ch=2 n=a#3 v=64
65031 On ch=2 n=a#3 v=44
65031 On ch=2 n=c#4 v=44
65271 Off ch=2 n=c#4 v=64
65271 Off ch=2 n=a#3 v=64
65271 On ch=2 n=c#4 v=44
65271 On ch=2 n=b3 v=44
65511 Off ch=2 n=b3 v=64
65511 Off ch=2 n=c#4 v=64
65511 On ch=2 n=a#3 v=44
65511 On ch=2 n=c#4 v=44
65751 Off ch=2 n=c#4 v=64
65751 Off ch=2 n=a#3 v=64
65751 On ch=2 n=a#3 v=44
65751 On ch=2 n=c#4 v=44
65991 Off ch=2 n=c#4 v=64
65991 Off ch=2 n=a#3 v=64
65991 On ch=2 n=c#4 v=44
65991 On ch=2 n=b3 v=44
66231 Off ch=2 n=b3 v=64
66231 Off ch=2 n=c#4 v=64
66231 Par ch=2 c=64 v=0
66231 On ch=2 n=a#3 v=44
66231 On ch=2 n=c#4 v=44
66431 Off ch=2 n=c#4 v=64
66431 Off ch=2 n=a#3 v=64
66471 Par ch=2 c=64 v=127
66471 Par ch=2 c=7 v=56
66471 On ch=2 n=a#3 v=56
66671 Off ch=2 n=a#3 v=64
66711 On ch=2 n=f4 v=56
66711 On ch=2 n=a#4 v=56
66711 On ch=2 n=f#5 v=56
66911 Off ch=2 n=f#5 v=64
66911 Off ch=2 n=a#4 v=64
66911 Off ch=2 n=f4 v=64
66951 On ch=2 n=f4 v=56
66951 On ch=2 n=a#4 v=56
66951 On ch=2 n=f5 v=56
67151 Off ch=2 n=f5 v=64
67151 Off ch=2 n=a#4 v=64
67151 Off ch=2 n=f4 v=64
67191 Par ch=2 c=64 v=0
67191 Par ch=2 c=64 v=127
67191 On ch=2 n=a#3 v=56
67391 Off ch=2 n=a#3 v=64
67431 On ch=2 n=f4 v=56
67431 On ch=2 n=a#4 v=56
67431 On ch=2 n=f#5 v=56
67631 Off ch=2 n=f#5 v=64
67631 Off ch=2 n=a#4 v=64
67631 Off ch=2 n=f4 v=64
67671 On ch=2 n=f4 v=56
67671 On ch=2 n=a#4 v=56
67671 On ch=2 n=f5 v=56
67871 Off ch=2 n=f5 v=64
67871 Off ch=2 n=a#4 v=64
67871 Off ch=2 n=f4 v=64
67911 Par ch=2 c=64 v=0
67911 Par ch=2 c=64 v=127
67911 On ch=2 n=f3 v=56
68111 Off ch=2 n=f3 v=64
68151 On ch=2 n=f4 v=56
68151 On ch=2 n=c5 v=56
68151 On ch=2 n=f#5 v=56
68351 Off ch=2 n=f#5 v=64
68351 Off ch=2 n=c5 v=64
68351 Off ch=2 n=f4 v=64
68391 On ch=2 n=f4 v=56
68391 On ch=2 n=c5 v=56
68391 On ch=2 n=f5 v=56
68591 Off ch=2 n=f5 v=64
68591 Off ch=2 n=c5 v=64
68591 Off ch=2 n=f4 v=64
68631 Par ch=2 c=64 v=0
68631 Par ch=2 c=64 v=127
68631 On ch=2 n=a#3 v=56
68831 Off ch=2 n=a#3 v=64
68871 On ch=2 n=f4 v=56
68871 On ch=2 n=a#4 v=56
68871 On ch=2 n=f#5 v=56
69071 Off ch=2 n=f#5 v=64
69071 Off ch=2 n=a#4 v=64
69071 Off ch=2 n=f4 v=64
69111 On ch=2 n=f4 v=56
69111 On ch=2 n=a#4 v=56
69111 On ch=2 n=f5 v=56
69311 Off ch=2 n=f5 v=64
69311 Off ch=2 n=a#4 v=64
69311 Off ch=2 n=f4 v=64
69351 Par ch=2 c=64 v=127
69351 On ch=2 n=f4 v=56
69351 On ch=2 n=a#4 v=56
69351 On ch=2 n=f5 v=56
69551 Off ch=2 n=f5 v=64
69551 Off ch=2 n=a#4 v=64
69551 Off ch=2 n=f4 v=64
69591 On ch=2 n=f4 v=56
69591 On ch=2 n=a#4 v=56
69591 On ch=2 n=d#5 v=56
69791 Off ch=2 n=d#5 v=64
69791 Off ch=2 n=a#4 v=64
69791 Off ch=2 n=f4 v=64
69831 On ch=2 n=f4 v=56
69831 On ch=2 n=a#4 v=56
69831 On ch=2 n=c#5 v=56
70071 Off ch=2 n=c#5 v=64
70071 Off ch=2 n=a#4 v=64
70071 Off ch=2 n=f4 v=64
70071 On ch=2 n=f4 v=55
70071 On ch=2 n=a#4 v=55
70071 On ch=2 n=c#5 v=55
70131 Par ch=2 c=7 v=55
70311 Off ch=2 n=c#5 v=64
70311 Off ch=2 n=a#4 v=64
70311 Off ch=2 n=f4 v=64
70311 On ch=2 n=f4 v=54
70311 On ch=2 n=d#4 v=54
70431 Par ch=2 c=7 v=54
70551 Off ch=2 n=d#4 v=64
70551 Off ch=2 n=f4 v=64
70551 On ch=2 n=c#4 v=53
70551 On ch=2 n=f4 v=53
70731 Par ch=2 c=7 v=53
70791 Off ch=2 n=f4 v=64
70791 Off ch=2 n=c#4 v=64
70791 On ch=2 n=c#4 v=52
70791 On ch=2 n=f4 v=52
71031 Off ch=2 n=f4 v=64
71031 Off ch=2 n=c#4 v=64
71031 On ch=2 n=f4 v=51
71031 On ch=2 n=d#4 v=51
71031 Par ch=2 c=7 v=52
71271 Off ch=2 n=d#4 v=64
71271 Off ch=2 n=f4 v=64
71271 On ch=2 n=c#4 v=50
71271 On ch=2 n=f4 v=50
71331 Par ch=2 c=7 v=51
71511 Off ch=2 n=f4 v=64
71511 Off ch=2 n=c#4 v=64
71511 On ch=2 n=c#4 v=49
71511 On ch=2 n=f4 v=49
71631 Par ch=2 c=7 v=50
71751 Off ch=2 n=f4 v=64
71751 Off ch=2 n=c#4 v=64
71751 On ch=2 n=f4 v=48
71751 On ch=2 n=d#4 v=48
71931 Par ch=2 c=7 v=49
71991 Off ch=2 n=d#4 v=64
71991 Off ch=2 n=f4 v=64
71991 On ch=2 n=c#4 v=47
71991 On ch=2 n=f4 v=47
72191 Off ch=2 n=f4 v=64
72191 Off ch=2 n=c#4 v=64
72231 Par ch=2 c=64 v=0
72231 Par ch=2 c=7 v=48
72231 Par ch=2 c=64 v=127
72231 On ch=2 n=f#3 v=48
72431 Off ch=2 n=f#3 v=64
72471 On ch=2 n=c#4 v=48
72471 On ch=2 n=f#4 v=48
72471 On ch=2 n=d#5 v=48
72671 Off ch=2 n=d#5 v=64
72671 Off ch=2 n=f#4 v=64
72671 Off ch=2 n=c#4 v=64
72711 On ch=2 n=c#4 v=48
72711 On ch=2 n=f#4 v=48
72711 On ch=2 n=c#5 v=48
72911 Off ch=2 n=c#5 v=64
72911 Off ch=2 n=f#4 v=64
72911 Off ch=2 n=c#4 v=64
72951 Par ch=2 c=64 v=0
72951 Par ch=2 c=64 v=127
72951 On ch=2 n=f#3 v=48
73151 Off ch=2 n=f#3 v=64
73191 On ch=2 n=c#4 v=48
73191 On ch=2 n=f#4 v=48
73191 On ch=2 n=d#5 v=48
73391 Off ch=2 n=d#5 v=64
73391 Off ch=2 n=f#4 v=64
73391 Off ch=2 n=c#4 v=64
73431 On ch=2 n=c#4 v=48
73431 On ch=2 n=f#4 v=48
73431 On ch=2 n=c#5 v=48
73631 Off ch=2 n=c#5 v=64
73631 Off ch=2 n=f#4 v=64
73631 Off ch=2 n=c#4 v=64
73671 Par ch=2 c=64 v=0
73671 Par ch=2 c=64 v=127
73671 On ch=2 n=c#3 v=48
73871 Off ch=2 n=c#3 v=64
73911 On ch=2 n=c#4 v=48
73911 On ch=2 n=g#4 v=48
73911 On ch=2 n=d#5 v=48
74111 Off ch=2 n=d#5 v=64
74111 Off ch=2 n=g#4 v=64
74111 Off ch=2 n=c#4 v=64
74151 On ch=2 n=c#4 v=48
74151 On ch=2 n=f#4 v=48
74151 On ch=2 n=c#5 v=48
74351 Off ch=2 n=c#5 v=64
74351 Off ch=2 n=f#4 v=64
74351 Off ch=2 n=c#4 v=64
74391 Par ch=2 c=64 v=0
74391 Par ch=2 c=64 v=127
74391 On ch=2 n=f#3 v=48
74591 Off ch=2 n=f#3 v=64
74631 On ch=2 n=c#4 v=48
74631 On ch=2 n=f#4 v=48
74631 On ch=2 n=d#5 v=48
74831 Off ch=2 n=d#5 v=64
74831 Off ch=2 n=f#4 v=64
74831 Off ch=2 n=c#4 v=64
74871 On ch=2 n=c#4 v=48
74871 On ch=2 n=f#4 v=48
74871 On ch=2 n=c#5 v=48
75071 Off ch=2 n=c#5 v=64
75071 Off ch=2 n=f#4 v=64
75071 Off ch=2 n=c#4 v=64
75111 Par ch=2 c=64 v=0
75111 Par ch=2 c=64 v=127
75111 On ch=2 n=c#4 v=48
75111 On ch=2 n=f#4 v=48
75111 On ch=2 n=c#5 v=48
75311 Off ch=2 n=c#5 v=64
75311 Off ch=2 n=f#4 v=64
75311 Off ch=2 n=c#4 v=64
75351 On ch=2 n=c#4 v=48
75351 On ch=2 n=f#4 v=48
75351 On ch=2 n=b4 v=48
75551 Off ch=2 n=b4 v=64
75551 Off ch=2 n=f#4 v=64
75551 Off ch=2 n=c#4 v=64
75591 On ch=2 n=c#4 v=48
75591 On ch=2 n=f#4 v=48
75591 On ch=2 n=a#4 v=48
75791 Off ch=2 n=a#4 v=64
75791 Off ch=2 n=f#4 v=64
75791 Off ch=2 n=c#4 v=64
75831 On ch=2 n=c#4 v=48
75831 On ch=2 n=f#4 v=48
75831 On ch=2 n=a#4 v=48
76031 Off ch=2 n=a#4 v=64
76031 Off ch=2 n=f#4 v=64
76031 Off ch=2 n=c#4 v=64
76071 Par ch=2 c=64 v=0
76071 On ch=2 n=b3 v=48
76071 On ch=2 n=c#4 v=48
76271 Off ch=2 n=c#4 v=64
76271 Off ch=2 n=b3 v=64
76311 Par ch=2 c=64 v=127
76311 On ch=2 n=a#3 v=48
76311 On ch=2 n=c#4 v=48
76511 Off ch=2 n=c#4 v=64
76511 Off ch=2 n=a#3 v=64
76551 On ch=2 n=a#3 v=48
76551 On ch=2 n=c#4 v=48
76751 Off ch=2 n=c#4 v=64
76751 Off ch=2 n=a#3 v=64
76791 On ch=2 n=b3 v=48
76791 On ch=2 n=c#4 v=48
76991 Off ch=2 n=c#4 v=64
76991 Off ch=2 n=b3 v=64
77031 On ch=2 n=a#3 v=48
77031 On ch=2 n=c#4 v=48
77231 Off ch=2 n=c#4 v=64
77231 Off ch=2 n=a#3 v=64
77271 Par ch=2 c=64 v=0
77271 On ch=2 n=a#3 v=48
77271 On ch=2 n=c#4 v=48
77471 Off ch=2 n=c#4 v=64
77471 Off ch=2 n=a#3 v=64
77511 On ch=2 n=g#3 v=48
77511 On ch=2 n=c#4 v=48
77711 Off ch=2 n=c#4 v=64
77711 Off ch=2 n=g#3 v=64
77751 On ch=2 n=f#3 v=48
77751 On ch=2 n=c#4 v=48
77951 Off ch=2 n=c#4 v=64
77951 Off ch=2 n=f#3 v=64
77991 Par ch=2 c=64 v=127
77991 On ch=2 n=f3 v=48
78191 Off ch=2 n=f3 v=64
78231 On ch=2 n=f4 v=48
78231 On ch=2 n=d5 v=48
78431 Off ch=2 n=d5 v=64
78431 Off ch=2 n=f4 v=64
78471 On ch=2 n=f4 v=48
78471 On ch=2 n=d5 v=48
78671 Off ch=2 n=d5 v=64
78671 Off ch=2 n=f4 v=64
78711 Par ch=2 c=64 v=0
78711 Par ch=2 c=64 v=127
78711 On ch=2 n=f3 v=48
78911 Off ch=2 n=f3 v=64
78951 On ch=2 n=f4 v=48
78951 On ch=2 n=a4 v=48
78951 On ch=2 n=d#5 v=48
79151 Off ch=2 n=d#5 v=64
79151 Off ch=2 n=a4 v=64
79151 Off ch=2 n=f4 v=64
79191 On ch=2 n=f4 v=48
79191 On ch=2 n=a4 v=48
79191 On ch=2 n=d#5 v=48
79391 Off ch=2 n=d#5 v=64
79391 Off ch=2 n=a4 v=64
79391 Off ch=2 n=f4 v=64
79431 Par ch=2 c=64 v=0
79431 Par ch=2 c=64 v=127
79431 On ch=2 n=f3 v=48
79631 Off ch=2 n=f3 v=64
79671 On ch=2 n=f4 v=48
79671 On ch=2 n=a#4 v=48
79671 On ch=2 n=f5 v=48
79871 Off ch=2 n=f5 v=64
79871 Off ch=2 n=a#4 v=64
79871 Off ch=2 n=f4 v=64
79911 On ch=2 n=f4 v=48
79911 On ch=2 n=c#5 v=48
79911 On ch=2 n=e5 v=48
80111 Off ch=2 n=e5 v=64
80111 Off ch=2 n=c#5 v=64
80111 Off ch=2 n=f4 v=64
80151 Par ch=2 c=64 v=0
80151 Par ch=2 c=64 v=127
80151 On ch=2 n=f3 v=48
80351 Off ch=2 n=f3 v=64
80391 On ch=2 n=f4 v=48
80391 On ch=2 n=c5 v=48
80391 On ch=2 n=d#5 v=48
80591 Off ch=2 n=d#5 v=64
80591 Off ch=2 n=c5 v=64
80591 Off ch=2 n=f4 v=64
80631 On ch=2 n=f4 v=48
80631 On ch=2 n=c5 v=48
80631 On ch=2 n=d#5 v=48
80831 Off ch=2 n=d#5 v=64
80831 Off ch=2 n=c5 v=64
80831 Off ch=2 n=f4 v=64
80871 Par ch=2 c=64 v=0
80871 Par ch=2 c=64 v=127
80871 On ch=2 n=f3 v=48
81071 Off ch=2 n=f3 v=64
81111 On ch=2 n=f4 v=48
81111 On ch=2 n=d5 v=48
81311 Off ch=2 n=d5 v=64
81311 Off ch=2 n=f4 v=64
81351 On ch=2 n=f4 v=48
81351 On ch=2 n=d5 v=48
81551 Off ch=2 n=d5 v=64
81551 Off ch=2 n=f4 v=64
81591 Par ch=2 c=64 v=0
81591 Par ch=2 c=64 v=127
81591 On ch=2 n=f3 v=48
81791 Off ch=2 n=f3 v=64
81831 On ch=2 n=f4 v=48
81831 On ch=2 n=a4 v=48
81831 On ch=2 n=d#5 v=48
82031 Off ch=2 n=d#5 v=64
82031 Off ch=2 n=a4 v=64
82031 Off ch=2 n=f4 v=64
82071 On ch=2 n=f4 v=48
82071 On ch=2 n=a4 v=48
82071 On ch=2 n=d#5 v=48
82271 Off ch=2 n=d#5 v=64
82271 Off ch=2 n=a4 v=64
82271 Off ch=2 n=f4 v=64
82311 Par ch=2 c=64 v=0
82311 Par ch=2 c=64 v=127
82311 On ch=2 n=a#3 v=48
82511 Off ch=2 n=a#3 v=64
82551 On ch=2 n=f4 v=48
82551 On ch=2 n=a#4 v=48
82551 On ch=2 n=f5 v=48
82751 Off ch=2 n=f5 v=64
82751 Off ch=2 n=a#4 v=64
82751 Off ch=2 n=f4 v=64
82791 On ch=2 n=f4 v=48
82791 On ch=2 n=a#4 v=48
82791 On ch=2 n=f5 v=48
82991 Off ch=2 n=f5 v=64
82991 Off ch=2 n=a#4 v=64
82991 Off ch=2 n=f4 v=64
83031 Par ch=2 c=64 v=0
83031 Par ch=2 c=7 v=94
83031 Par ch=2 c=64 v=127
83031 On ch=2 n=c#3 v=94
83231 Off ch=2 n=c#3 v=64
83271 On ch=2 n=g#4 v=94
83271 On ch=2 n=b4 v=94
83271 On ch=2 n=c#5 v=94
83271 On ch=2 n=g#5 v=94
83471 Off ch=2 n=g#5 v=64
83471 Off ch=2 n=c#5 v=64
83471 Off ch=2 n=b4 v=64
83471 Off ch=2 n=g#4 v=64
83511 On ch=2 n=g#4 v=94
83511 On ch=2 n=b4 v=94
83511 On ch=2 n=c#5 v=94
83511 On ch=2 n=g#5 v=94
83711 Off ch=2 n=g#5 v=64
83711 Off ch=2 n=c#5 v=64
83711 Off ch=2 n=b4 v=64
83711 Off ch=2 n=g#4 v=64
83751 On ch=2 n=g#4 v=94
83751 On ch=2 n=b4 v=94
83751 On ch=2 n=c#5 v=94
83751 On ch=2 n=g#5 v=94
83951 Off ch=2 n=g#5 v=64
83951 Off ch=2 n=c#5 v=64
83951 Off ch=2 n=b4 v=64
83951 Off ch=2 n=g#4 v=64
83991 On ch=2 n=g#4 v=94
83991 On ch=2 n=b4 v=94
83991 On ch=2 n=c#5 v=94
84047 Par ch=2 c=7 v=93
84104 Par ch=2 c=7 v=92
84162 Par ch=2 c=7 v=91
84191 Off ch=2 n=c#5 v=64
84191 Off ch=2 n=b4 v=64
84191 Off ch=2 n=g#4 v=64
84219 Par ch=2 c=7 v=90
84231 On ch=2 n=g#4 v=93
84231 On ch=2 n=b4 v=93
84231 On ch=2 n=c#5 v=93
84277 Par ch=2 c=7 v=89
84334 Par ch=2 c=7 v=88
84392 Par ch=2 c=7 v=87
84431 Off ch=2 n=c#5 v=64
84431 Off ch=2 n=b4 v=64
84431 Off ch=2 n=g#4 v=64
84449 Par ch=2 c=7 v=86
84471 On ch=2 n=g#4 v=92
84471 On ch=2 n=b4 v=92
84471 On ch=2 n=c#5 v=92
84507 Par ch=2 c=7 v=85
84564 Par ch=2 c=7 v=84
84622 Par ch=2 c=7 v=83
84671 Off ch=2 n=c#5 v=64
84671 Off ch=2 n=b4 v=64
84671 Off ch=2 n=g#4 v=64
84678 Par ch=2 c=7 v=82
84711 On ch=2 n=g#4 v=91
84711 On ch=2 n=b4 v=91
84711 On ch=2 n=c#5 v=91
84736 Par ch=2 c=7 v=81
84793 Par ch=2 c=7 v=80
84851 Par ch=2 c=7 v=79
84908 Par ch=2 c=7 v=78
84911 Off ch=2 n=c#5 v=64
84911 Off ch=2 n=b4 v=64
84911 Off ch=2 n=g#4 v=64
84951 On ch=2 n=g#4 v=90
84951 On ch=2 n=b4 v=90
84951 On ch=2 n=c#5 v=90
84966 Par ch=2 c=7 v=77
85023 Par ch=2 c=7 v=76
85081 Par ch=2 c=7 v=75
85138 Par ch=2 c=7 v=74
85148 Off ch=2 n=c#5 v=64
85148 Off ch=2 n=b4 v=64
85148 Off ch=2 n=g#4 v=64
85188 On ch=2 n=g#4 v=89
85188 On ch=2 n=b4 v=89
85188 On ch=2 n=c#5 v=89
85193 Par ch=2 c=7 v=73
85250 Par ch=2 c=7 v=72
85308 Par ch=2 c=7 v=71
85364 Par ch=2 c=7 v=70
85388 Off ch=2 n=c#5 v=64
85388 Off ch=2 n=b4 v=64
85388 Off ch=2 n=g#4 v=64
85421 Par ch=2 c=7 v=69
85428 On ch=2 n=g#4 v=88
85428 On ch=2 n=b4 v=88
85428 On ch=2 n=c#5 v=88
85479 Par ch=2 c=7 v=68
85536 Par ch=2 c=7 v=67
85594 Par ch=2 c=7 v=66
85628 Off ch=2 n=c#5 v=64
85628 Off ch=2 n=b4 v=64
85628 Off ch=2 n=g#4 v=64
85651 Par ch=2 c=7 v=65
85668 On ch=2 n=g#4 v=87
85668 On ch=2 n=b4 v=87
85668 On ch=2 n=c#5 v=87
85709 Par ch=2 c=7 v=64
85766 Par ch=2 c=7 v=63
85824 Par ch=2 c=7 v=62
85868 Off ch=2 n=c#5 v=64
85868 Off ch=2 n=b4 v=64
85868 Off ch=2 n=g#4 v=64
85878 Par ch=2 c=7 v=61
85905 On ch=2 n=g#4 v=86
85905 On ch=2 n=b4 v=86
85905 On ch=2 n=c#5 v=86
85936 Par ch=2 c=7 v=60
85992 Par ch=2 c=7 v=59
86050 Par ch=2 c=7 v=58
86105 Off ch=2 n=c#5 v=64
86105 Off ch=2 n=b4 v=64
86105 Off ch=2 n=g#4 v=64
86107 Par ch=2 c=7 v=57
86145 On ch=2 n=g#4 v=85
86145 On ch=2 n=b4 v=85
86145 On ch=2 n=c#5 v=85
86165 Par ch=2 c=7 v=56
86222 Par ch=2 c=7 v=55
86280 Par ch=2 c=7 v=54
86337 Par ch=2 c=7 v=53
86345 Off ch=2 n=c#5 v=64
86345 Off ch=2 n=b4 v=64
86345 Off ch=2 n=g#4 v=64
86385 On ch=2 n=g#4 v=84
86385 On ch=2 n=b4 v=84
86385 On ch=2 n=c#5 v=84
86395 Par ch=2 c=7 v=52
86452 Par ch=2 c=7 v=51
86510 Par ch=2 c=7 v=50
86567 Par ch=2 c=7 v=49
86585 Off ch=2 n=c#5 v=64
86585 Off ch=2 n=b4 v=64
86585 Off ch=2 n=g#4 v=64
86625 Par ch=2 c=64 v=0
86625 Par ch=2 c=7 v=48
86625 Par ch=2 c=64 v=127
86625 On ch=2 n=f#3 v=48
86825 Off ch=2 n=f#3 v=64
86865 On ch=2 n=c#4 v=48
86865 On ch=2 n=f#4 v=48
86865 On ch=2 n=d#5 v=48
87065 Off ch=2 n=d#5 v=64
87065 Off ch=2 n=f#4 v=64
87065 Off ch=2 n=c#4 v=64
87105 On ch=2 n=c#4 v=48
87105 On ch=2 n=f#4 v=48
87105 On ch=2 n=c#5 v=48
87305 Off ch=2 n=c#5 v=64
87305 Off ch=2 n=f#4 v=64
87305 Off ch=2 n=c#4 v=64
87345 Par ch=2 c=64 v=0
87345 Par ch=2 c=64 v=127
87345 Par ch=2 c=7 v=64
87345 On ch=2 n=f#3 v=64
87545 Off ch=2 n=f#3 v=64
87585 On ch=2 n=c#4 v=64
87585 On ch=2 n=f#4 v=64
87585 On ch=2 n=d#5 v=64
87785 Off ch=2 n=d#5 v=64
87785 Off ch=2 n=f#4 v=64
87785 Off ch=2 n=c#4 v=64
87825 On ch=2 n=c#4 v=64
87825 On ch=2 n=f#4 v=64
87825 On ch=2 n=c#5 v=64
88025 Off ch=2 n=c#5 v=64
88025 Off ch=2 n=f#4 v=64
88025 Off ch=2 n=c#4 v=64
88065 Par ch=2 c=64 v=0
88065 Par ch=2 c=64 v=127
88065 On ch=2 n=c#3 v=64
88265 Off ch=2 n=c#3 v=64
88305 On ch=2 n=c#4 v=64
88305 On ch=2 n=g#4 v=64
88305 On ch=2 n=d#5 v=64
88505 Off ch=2 n=d#5 v=64
88505 Off ch=2 n=g#4 v=64
88505 Off ch=2 n=c#4 v=64
88545 On ch=2 n=c#4 v=64
88545 On ch=2 n=f#4 v=64
88545 On ch=2 n=c#5 v=64
88745 Off ch=2 n=c#5 v=64
88745 Off ch=2 n=f#4 v=64
88745 Off ch=2 n=c#4 v=64
88785 Par ch=2 c=64 v=0
88785 Par ch=2 c=64 v=127
88785 On ch=2 n=f#3 v=64
88985 Off ch=2 n=f#3 v=64
89025 On ch=2 n=c#4 v=64
89025 On ch=2 n=f#4 v=64
89025 On ch=2 n=d#5 v=64
89225 Off ch=2 n=d#5 v=64
89225 Off ch=2 n=f#4 v=64
89225 Off ch=2 n=c#4 v=64
89265 On ch=2 n=c#4 v=64
89265 On ch=2 n=f#4 v=64
89265 On ch=2 n=c#5 v=64
89465 Off ch=2 n=c#5 v=64
89465 Off ch=2 n=f#4 v=64
89465 Off ch=2 n=c#4 v=64
89505 Par ch=2 c=64 v=0
89505 Par ch=2 c=64 v=127
89505 On ch=2 n=c#4 v=64
89505 On ch=2 n=f#4 v=64
89505 On ch=2 n=c#5 v=64
89685 Par ch=2 c=7 v=63
89705 Off ch=2 n=c#5 v=64
89705 Off ch=2 n=f#4 v=64
89705 Off ch=2 n=c#4 v=64
89745 On ch=2 n=c#4 v=63
89745 On ch=2 n=f#4 v=63
89745 On ch=2 n=b4 v=63
89865 Par ch=2 c=7 v=62
89945 Off ch=2 n=b4 v=64
89945 Off ch=2 n=f#4 v=64
89945 Off ch=2 n=c#4 v=64
89985 On ch=2 n=c#4 v=62
89985 On ch=2 n=f#4 v=62
89985 On ch=2 n=a#4 v=62
90045 Par ch=2 c=7 v=61
90185 Off ch=2 n=a#4 v=64
90185 Off ch=2 n=f#4 v=64
90185 Off ch=2 n=c#4 v=64
90225 Par ch=2 c=7 v=60
90225 On ch=2 n=c#4 v=61
90225 On ch=2 n=f#4 v=61
90225 On ch=2 n=a#4 v=61
90405 Par ch=2 c=7 v=59
90425 Off ch=2 n=a#4 v=64
90425 Off ch=2 n=f#4 v=64
90425 Off ch=2 n=c#4 v=64
90465 Par ch=2 c=64 v=0
90465 On ch=2 n=b3 v=60
90465 On ch=2 n=c#4 v=60
90585 Par ch=2 c=7 v=58
90665 Off ch=2 n=c#4 v=64
90665 Off ch=2 n=b3 v=64
90705 Par ch=2 c=64 v=127
90705 On ch=2 n=a#3 v=59
90705 On ch=2 n=c#4 v=59
90765 Par ch=2 c=7 v=57
90905 Off ch=2 n=c#4 v=64
90905 Off ch=2 n=a#3 v=64
90945 Par ch=2 c=7 v=56
90945 On ch=2 n=a#3 v=58
90945 On ch=2 n=c#4 v=58
91125 Par ch=2 c=7 v=55
91145 Off ch=2 n=c#4 v=64
91145 Off ch=2 n=a#3 v=64
91185 On ch=2 n=b3 v=57
91185 On ch=2 n=c#4 v=57
91305 Par ch=2 c=7 v=54
91385 Off ch=2 n=c#4 v=64
91385 Off ch=2 n=b3 v=64
91425 On ch=2 n=a#3 v=56
91425 On ch=2 n=c#4 v=56
91485 Par ch=2 c=7 v=53
91625 Off ch=2 n=c#4 v=64
91625 Off ch=2 n=a#3 v=64
91665 Par ch=2 c=7 v=52
91665 Par ch=2 c=64 v=0
91665 On ch=2 n=a#3 v=55
91665 On ch=2 n=c#4 v=55
91845 Par ch=2 c=7 v=51
91865 Off ch=2 n=c#4 v=64
91865 Off ch=2 n=a#3 v=64
91905 On ch=2 n=g#3 v=54
91905 On ch=2 n=c#4 v=54
92025 Par ch=2 c=7 v=50
92105 Off ch=2 n=c#4 v=64
92105 Off ch=2 n=g#3 v=64
92145 On ch=2 n=f#3 v=53
92145 On ch=2 n=c#4 v=53
92205 Par ch=2 c=7 v=49
92345 Off ch=2 n=c#4 v=64
92345 Off ch=2 n=f#3 v=64
92385 Par ch=2 c=7 v=48
92385 Par ch=2 c=7 v=64
92385 Par ch=2 c=64 v=127
92385 On ch=2 n=g#3 v=64
92585 Off ch=2 n=g#3 v=64
92625 On ch=2 n=d#4 v=64
92625 On ch=2 n=g#4 v=64
92625 On ch=2 n=e5 v=64
92825 Off ch=2 n=e5 v=64
92825 Off ch=2 n=g#4 v=64
92825 Off ch=2 n=d#4 v=64
92865 On ch=2 n=d#4 v=64
92865 On ch=2 n=g#4 v=64
92865 On ch=2 n=d#5 v=64
93065 Off ch=2 n=d#5 v=64
93065 Off ch=2 n=g#4 v=64
93065 Off ch=2 n=d#4 v=64
93105 Par ch=2 c=64 v=0
93105 Par ch=2 c=64 v=127
93105 On ch=2 n=g#3 v=64
93305 Off ch=2 n=g#3 v=64
93345 On ch=2 n=d#4 v=64
93345 On ch=2 n=g#4 v=64
93345 On ch=2 n=e5 v=64
93545 Off ch=2 n=e5 v=64
93545 Off ch=2 n=g#4 v=64
93545 Off ch=2 n=d#4 v=64
93585 On ch=2 n=d#4 v=64
93585 On ch=2 n=g#4 v=64
93585 On ch=2 n=d#5 v=64
93785 Off ch=2 n=d#5 v=64
93785 Off ch=2 n=g#4 v=64
93785 Off ch=2 n=d#4 v=64
93825 Par ch=2 c=64 v=0
93825 Par ch=2 c=64 v=127
93825 On ch=2 n=d#3 v=64
94025 Off ch=2 n=d#3 v=64
94065 On ch=2 n=d#4 v=64
94065 On ch=2 n=a#4 v=64
94065 On ch=2 n=e5 v=64
94265 Off ch=2 n=e5 v=64
94265 Off ch=2 n=a#4 v=64
94265 Off ch=2 n=d#4 v=64
94305 On ch=2 n=d#4 v=64
94305 On ch=2 n=a#4 v=64
94305 On ch=2 n=d#5 v=64
94505 Off ch=2 n=d#5 v=64
94505 Off ch=2 n=a#4 v=64
94505 Off ch=2 n=d#4 v=64
94545 Par ch=2 c=64 v=127
94545 On ch=2 n=g#3 v=64
94745 Off ch=2 n=g#3 v=64
94785 On ch=2 n=e5 v=64
94785 On ch=2 n=g#4 v=64
94785 On ch=2 n=d#4 v=64
94950 Par ch=2 c=7 v=63
95025 Off ch=2 n=d#4 v=64
95025 Off ch=2 n=g#4 v=64
95025 Off ch=2 n=e5 v=64
95025 On ch=2 n=d#4 v=63
95025 On ch=2 n=g#4 v=63
95025 On ch=2 n=d#5 v=63
95115 Par ch=2 c=7 v=62
95265 Off ch=2 n=d#5 v=64
95265 Off ch=2 n=g#4 v=64
95265 Off ch=2 n=d#4 v=64
95265 On ch=2 n=d#4 v=62
95265 On ch=2 n=g#4 v=62
95265 On ch=2 n=d#5 v=62
95280 Par ch=2 c=7 v=61
95445 Par ch=2 c=7 v=60
95505 Off ch=2 n=d#5 v=64
95505 Off ch=2 n=g#4 v=64
95505 Off ch=2 n=d#4 v=64
95505 On ch=2 n=c#5 v=61
95505 On ch=2 n=g#4 v=61
95505 On ch=2 n=d#4 v=61
95610 Par ch=2 c=7 v=59
95745 Off ch=2 n=d#4 v=64
95745 Off ch=2 n=g#4 v=64
95745 Off ch=2 n=c#5 v=64
95745 On ch=2 n=d#4 v=60
95745 On ch=2 n=g#4 v=60
95745 On ch=2 n=b4 v=60
95775 Par ch=2 c=7 v=58
95940 Par ch=2 c=7 v=57
95985 Off ch=2 n=b4 v=64
95985 Off ch=2 n=g#4 v=64
95985 Off ch=2 n=d#4 v=64
95985 On ch=2 n=d#4 v=59
95985 On ch=2 n=g#4 v=59
95985 On ch=2 n=b4 v=59
96105 Par ch=2 c=7 v=56
96225 Off ch=2 n=b4 v=64
96225 Off ch=2 n=g#4 v=64
96225 Off ch=2 n=d#4 v=64
96225 On ch=2 n=d#4 v=58
96225 On ch=2 n=c#4 v=58
96270 Par ch=2 c=7 v=55
96435 Par ch=2 c=7 v=54
96465 Off ch=2 n=c#4 v=64
96465 Off ch=2 n=d#4 v=64
96465 On ch=2 n=b3 v=57
96465 On ch=2 n=d#4 v=57
96600 Par ch=2 c=7 v=53
96705 Off ch=2 n=d#4 v=64
96705 Off ch=2 n=b3 v=64
96705 On ch=2 n=b3 v=56
96705 On ch=2 n=d#4 v=56
96765 Par ch=2 c=7 v=52
96930 Par ch=2 c=7 v=51
96945 Off ch=2 n=d#4 v=64
96945 Off ch=2 n=b3 v=64
96945 On ch=2 n=d#4 v=55
96945 On ch=2 n=c#4 v=55
97095 Par ch=2 c=7 v=50
97185 Off ch=2 n=c#4 v=64
97185 Off ch=2 n=d#4 v=64
97185 On ch=2 n=b3 v=54
97185 On ch=2 n=d#4 v=54
97260 Par ch=2 c=7 v=49
97385 Off ch=2 n=d#4 v=64
97385 Off ch=2 n=b3 v=64
97425 Par ch=2 c=7 v=48
97425 Par ch=2 c=64 v=0
97425 On ch=2 n=b3 v=48
97425 On ch=2 n=d#4 v=48
97625 Off ch=2 n=d#4 v=64
97625 Off ch=2 n=b3 v=64
97665 On ch=2 n=a#3 v=48
97665 On ch=2 n=d#4 v=48
97865 Off ch=2 n=d#4 v=64
97865 Off ch=2 n=a#3 v=64
97905 On ch=2 n=g#3 v=48
97905 On ch=2 n=d#4 v=48
98105 Off ch=2 n=d#4 v=64
98105 Off ch=2 n=g#3 v=64
98145 Par ch=2 c=64 v=127
98145 On ch=2 n=c#3 v=48
98345 Off ch=2 n=c#3 v=64
98625 On ch=2 n=c#4 v=48
98825 Off ch=2 n=c#4 v=64
98865 Par ch=2 c=64 v=0
98865 Par ch=2 c=64 v=127
98865 On ch=2 n=d4 v=48
98892 Off ch=2 n=d4 v=64
98895 On ch=2 n=d#4 v=48
98922 Off ch=2 n=d#4 v=64
98925 On ch=2 n=f4 v=48
98962 Off ch=2 n=f4 v=64
98965 On ch=2 n=d#4 v=48
99002 Off ch=2 n=d#4 v=64
99005 On ch=2 n=f4 v=48
99042 Off ch=2 n=f4 v=64
99045 On ch=2 n=d#4 v=48
99082 Off ch=2 n=d#4 v=64
99085 On ch=2 n=f4 v=48
99122 Off ch=2 n=f4 v=64
99125 On ch=2 n=d#4 v=48
99162 Off ch=2 n=d#4 v=64
99165 On ch=2 n=f4 v=48
99202 Off ch=2 n=f4 v=64
99205 On ch=2 n=d#4 v=48
99242 Off ch=2 n=d#4 v=64
99245 On ch=2 n=f4 v=48
99282 Off ch=2 n=f4 v=64
99285 On ch=2 n=d#4 v=48
99322 Off ch=2 n=d#4 v=64
99325 On ch=2 n=f4 v=48
99362 Off ch=2 n=f4 v=64
99365 On ch=2 n=d#4 v=48
99402 Off ch=2 n=d#4 v=64
99405 On ch=2 n=f4 v=48
99442 Off ch=2 n=f4 v=64
99445 On ch=2 n=d#4 v=48
99482 Off ch=2 n=d#4 v=64
99485 On ch=2 n=f4 v=48
99522 Off ch=2 n=f4 v=64
99525 On ch=2 n=d4 v=48
99552 Off ch=2 n=d4 v=64
99555 On ch=2 n=d#4 v=48
99582 Off ch=2 n=d#4 v=64
99585 Par ch=2 c=64 v=0
99585 Par ch=2 c=64 v=127
99585 On ch=2 n=f4 v=48
99785 Off ch=2 n=f4 v=64
99825 On ch=2 n=c#3 v=48
100025 Off ch=2 n=c#3 v=64
100065 On ch=2 n=c#4 v=48
100265 Off ch=2 n=c#4 v=64
100305 Par ch=2 c=64 v=0
100305 Par ch=2 c=64 v=127
100305 On ch=2 n=d4 v=48
100332 Off ch=2 n=d4 v=64
100335 On ch=2 n=d#4 v=48
100362 Off ch=2 n=d#4 v=64
100365 On ch=2 n=f4 v=48
100402 Off ch=2 n=f4 v=64
100405 On ch=2 n=d#4 v=48
100442 Off ch=2 n=d#4 v=64
100445 On ch=2 n=f4 v=48
100482 Off ch=2 n=f4 v=64
100485 On ch=2 n=d#4 v=48
100522 Off ch=2 n=d#4 v=64
100525 On ch=2 n=f4 v=48
100562 Off ch=2 n=f4 v=64
100565 On ch=2 n=d#4 v=48
100602 Off ch=2 n=d#4 v=64
100605 On ch=2 n=f4 v=48
100642 Off ch=2 n=f4 v=64
100645 On ch=2 n=d#4 v=48
100682 Off ch=2 n=d#4 v=64
100685 On ch=2 n=f4 v=48
100722 Off ch=2 n=f4 v=64
100725 On ch=2 n=d#4 v=48
100762 Off ch=2 n=d#4 v=64
100765 On ch=2 n=f4 v=48
100802 Off ch=2 n=f4 v=64
100805 On ch=2 n=d#4 v=48
100842 Off ch=2 n=d#4 v=64
100845 On ch=2 n=f4 v=48
100882 Off ch=2 n=f4 v=64
100885 On ch=2 n=d#4 v=48
100922 Off ch=2 n=d#4 v=64
100925 On ch=2 n=f4 v=48
100962 Off ch=2 n=f4 v=64
100965 On ch=2 n=d4 v=48
100992 Off ch=2 n=d4 v=64
100995 On ch=2 n=d#4 v=48
101022 Off ch=2 n=d#4 v=64
101025 Par ch=2 c=64 v=0
101025 Par ch=2 c=64 v=127
101025 On ch=2 n=f4 v=48
101225 Off ch=2 n=f4 v=64
101265 On ch=2 n=c#3 v=48
101465 Off ch=2 n=c#3 v=64
101505 On ch=2 n=c#4 v=48
101505 On ch=2 n=g#4 v=48
101505 On ch=2 n=c#5 v=48
101705 Off ch=2 n=c#5 v=64
101705 Off ch=2 n=g#4 v=64
101705 Off ch=2 n=c#4 v=64
101745 On ch=2 n=c#4 v=48
101745 On ch=2 n=g#4 v=48
101745 On ch=2 n=c#5 v=48
101945 Off ch=2 n=c#5 v=64
101945 Off ch=2 n=g#4 v=64
101945 Off ch=2 n=c#4 v=64
101985 On ch=2 n=c#4 v=48
101985 On ch=2 n=g#4 v=48
101985 On ch=2 n=b4 v=48
102016 Par ch=2 c=7 v=49
102047 Par ch=2 c=7 v=50
102078 Par ch=2 c=7 v=51
102110 Par ch=2 c=7 v=52
102141 Par ch=2 c=7 v=53
102172 Par ch=2 c=7 v=54
102182 Off ch=2 n=b4 v=64
102182 Off ch=2 n=g#4 v=64
102182 Off ch=2 n=c#4 v=64
102200 Par ch=2 c=7 v=55
102222 On ch=2 n=c#4 v=49
102222 On ch=2 n=g#4 v=49
102222 On ch=2 n=b4 v=49
102232 Par ch=2 c=7 v=56
102263 Par ch=2 c=7 v=57
102294 Par ch=2 c=7 v=58
102325 Par ch=2 c=7 v=59
102357 Par ch=2 c=7 v=60
102388 Par ch=2 c=7 v=61
102419 Par ch=2 c=7 v=62
102422 Off ch=2 n=b4 v=64
102422 Off ch=2 n=g#4 v=64
102422 Off ch=2 n=c#4 v=64
102450 Par ch=2 c=7 v=63
102462 On ch=2 n=c#4 v=50
102462 On ch=2 n=g#4 v=50
102462 On ch=2 n=b4 v=50
102482 Par ch=2 c=7 v=64
102513 Par ch=2 c=7 v=65
102544 Par ch=2 c=7 v=66
102575 Par ch=2 c=7 v=67
102607 Par ch=2 c=7 v=68
102638 Par ch=2 c=7 v=69
102662 Off ch=2 n=b4 v=64
102662 Off ch=2 n=g#4 v=64
102662 Off ch=2 n=c#4 v=64
102669 Par ch=2 c=7 v=70
102700 Par ch=2 c=7 v=71
102702 On ch=2 n=c#4 v=51
102702 On ch=2 n=g#4 v=51
102702 On ch=2 n=b4 v=51
102733 Par ch=2 c=7 v=72
102764 Par ch=2 c=7 v=73
102795 Par ch=2 c=7 v=74
102827 Par ch=2 c=7 v=75
102858 Par ch=2 c=7 v=76
102889 Par ch=2 c=7 v=77
102899 Off ch=2 n=b4 v=64
102899 Off ch=2 n=g#4 v=64
102899 Off ch=2 n=c#4 v=64
102917 Par ch=2 c=7 v=78
102939 On ch=2 n=c#4 v=52
102939 On ch=2 n=g#4 v=52
102949 Par ch=2 c=7 v=79
102980 Par ch=2 c=7 v=80
103011 Par ch=2 c=7 v=81
103042 Par ch=2 c=7 v=82
103074 Par ch=2 c=7 v=83
103105 Par ch=2 c=7 v=84
103136 Par ch=2 c=7 v=85
103139 Off ch=2 n=g#4 v=64
103139 Off ch=2 n=c#4 v=64
103167 Par ch=2 c=7 v=86
103179 On ch=2 n=f#3 v=53
103179 On ch=2 n=c#4 v=53
103199 Par ch=2 c=7 v=87
103230 Par ch=2 c=7 v=88
103261 Par ch=2 c=7 v=89
103292 Par ch=2 c=7 v=90
103324 Par ch=2 c=7 v=91
103355 Par ch=2 c=7 v=92
103379 Off ch=2 n=c#4 v=64
103379 Off ch=2 n=f#3 v=64
103386 Par ch=2 c=7 v=93
103417 Par ch=2 c=7 v=94
103419 Par ch=2 c=64 v=127
103419 Par ch=2 c=7 v=94
103419 Par ch=2 c=7 v=48
103419 On ch=2 n=a#4 v=48
103539 Off ch=2 n=a#4 v=64
103539 On ch=2 n=g#4 v=48
103659 Off ch=2 n=g#4 v=64
103659 On ch=2 n=f#4 v=48
103779 Off ch=2 n=f#4 v=64
103779 On ch=2 n=f4 v=48
103899 Off ch=2 n=f4 v=64
103899 On ch=2 n=f4 v=48
104019 Off ch=2 n=f4 v=64
104019 On ch=2 n=d#4 v=48
104139 Off ch=2 n=d#4 v=64
104139 On ch=2 n=c#4 v=48
104259 Off ch=2 n=c#4 v=64
104259 On ch=2 n=c4 v=48
104379 Off ch=2 n=c4 v=64
104379 On ch=2 n=a#3 v=48
104499 Off ch=2 n=a#3 v=64
104499 On ch=2 n=g#3 v=48
104619 Off ch=2 n=g#3 v=64
104619 On ch=2 n=c#3 v=48
104619 On ch=2 n=g#4 v=48
104679 Off ch=2 n=g#4 v=64
104679 Off ch=2 n=c#3 v=64
104859 On ch=2 n=a#4 v=48
104979 Off ch=2 n=a#4 v=64
104979 On ch=2 n=g#4 v=48
105099 Off ch=2 n=g#4 v=64
105099 On ch=2 n=f#4 v=48
105219 Off ch=2 n=f#4 v=64
105219 On ch=2 n=f4 v=48
105339 Off ch=2 n=f4 v=64
105339 On ch=2 n=f4 v=48
105459 Off ch=2 n=f4 v=64
105459 On ch=2 n=d#4 v=48
105579 Off ch=2 n=d#4 v=64
105579 On ch=2 n=c#4 v=48
105699 Off ch=2 n=c#4 v=64
105699 On ch=2 n=c4 v=48
105819 Off ch=2 n=c4 v=64
105819 On ch=2 n=a#3 v=48
105939 Off ch=2 n=a#3 v=64
105939 On ch=2 n=g#3 v=48
106059 Off ch=2 n=g#3 v=64
106059 On ch=2 n=c#3 v=48
106119 Off ch=2 n=c#3 v=64
106299 On ch=2 n=g#4 v=48
106419 Off ch=2 n=g#4 v=64
106419 On ch=2 n=a#4 v=48
106539 Off ch=2 n=a#4 v=64
106539 On ch=2 n=b4 v=48
106659 Off ch=2 n=b4 v=64
106659 On ch=2 n=c#5 v=48
106776 Off ch=2 n=c#5 v=64
106779 On ch=2 n=c#5 v=48
106899 Off ch=2 n=c#5 v=64
106899 On ch=2 n=c5 v=48
107019 Off ch=2 n=c5 v=64
107019 On ch=2 n=c4 v=48
107139 Off ch=2 n=c4 v=64
107139 On ch=2 n=c#4 v=48
107259 Off ch=2 n=c#4 v=64
107259 On ch=2 n=c#5 v=48
107379 Off ch=2 n=c#5 v=64
107379 On ch=2 n=c5 v=48
107499 Off ch=2 n=c5 v=64
107499 On ch=2 n=a#4 v=48
107699 Off ch=2 n=a#4 v=64
107739 On ch=2 n=a#3 v=48
107859 Off ch=2 n=a#3 v=64
107859 On ch=2 n=f4 v=48
107979 Off ch=2 n=f4 v=64
107979 On ch=2 n=g#4 v=48
108099 Off ch=2 n=g#4 v=64
108099 On ch=2 n=c5 v=48
108216 Off ch=2 n=c5 v=64
108219 On ch=2 n=c5 v=48
108339 Off ch=2 n=c5 v=64
108339 On ch=2 n=a#4 v=48
108459 Off ch=2 n=a#4 v=64
108459 On ch=2 n=d4 v=48
108579 Off ch=2 n=d4 v=64
108579 On ch=2 n=d#4 v=48
108699 Off ch=2 n=d#4 v=64
108699 On ch=2 n=c5 v=48
108819 Off ch=2 n=c5 v=64
108819 On ch=2 n=a#4 v=48
108936 Off ch=2 n=a#4 v=64
108939 On ch=2 n=g#4 v=48
109139 Off ch=2 n=g#4 v=64
109179 On ch=2 n=a#4 v=48
109296 Off ch=2 n=a#4 v=64
109299 On ch=2 n=g#4 v=48
109416 Off ch=2 n=g#4 v=64
109419 On ch=2 n=f#4 v=48
109536 Off ch=2 n=f#4 v=64
109539 On ch=2 n=f4 v=48
109656 Off ch=2 n=f4 v=64
109659 On ch=2 n=f4 v=48
109776 Off ch=2 n=f4 v=64
109779 On ch=2 n=d#4 v=48
109896 Off ch=2 n=d#4 v=64
109899 On ch=2 n=c#4 v=48
110016 Off ch=2 n=c#4 v=64
110019 On ch=2 n=c4 v=48
110136 Off ch=2 n=c4 v=64
110139 On ch=2 n=a#3 v=48
110256 Off ch=2 n=a#3 v=64
110259 On ch=2 n=g#3 v=48
110376 Off ch=2 n=g#3 v=64
110379 On ch=2 n=c#3 v=48
110439 Off ch=2 n=c#3 v=64
110619 On ch=2 n=a#4 v=48
110739 Off ch=2 n=a#4 v=64
110739 On ch=2 n=g#4 v=48
110859 Off ch=2 n=g#4 v=64
110859 On ch=2 n=f#4 v=48
110979 Off ch=2 n=f#4 v=64
110979 On ch=2 n=f4 v=48
111099 Off ch=2 n=f4 v=64
111099 On ch=2 n=f4 v=48
111219 Off ch=2 n=f4 v=64
111219 On ch=2 n=d#4 v=48
111339 Off ch=2 n=d#4 v=64
111339 On ch=2 n=c#4 v=48
111459 Off ch=2 n=c#4 v=64
111459 On ch=2 n=c4 v=48
111579 Off ch=2 n=c4 v=64
111579 On ch=2 n=a#3 v=48
111699 Off ch=2 n=a#3 v=64
111699 On ch=2 n=g#3 v=48
111819 Off ch=2 n=g#3 v=64
111819 Par ch=2 c=64 v=127
111819 On ch=2 n=c#3 v=48
111879 Off ch=2 n=c#3 v=64
112059 On ch=2 n=g#4 v=48
112179 Off ch=2 n=g#4 v=64
112179 On ch=2 n=g4 v=48
112299 Off ch=2 n=g4 v=64
112299 On ch=2 n=a#4 v=48
112419 Off ch=2 n=a#4 v=64
112419 On ch=2 n=g#4 v=48
112539 Off ch=2 n=g#4 v=64
112539 Par ch=2 c=64 v=0
112539 On ch=2 n=b4 v=48
112739 Off ch=2 n=b4 v=64
112779 Par ch=2 c=64 v=127
112779 On ch=2 n=b3 v=48
112899 Off ch=2 n=b3 v=64
112899 On ch=2 n=f4 v=48
113019 Off ch=2 n=f4 v=64
113019 On ch=2 n=g#4 v=48
113139 Off ch=2 n=g#4 v=64
113139 On ch=2 n=f#4 v=48
113259 Off ch=2 n=f#4 v=64
113259 Par ch=2 c=64 v=0
113259 On ch=2 n=a#4 v=48
113459 Off ch=2 n=a#4 v=64
113499 Par ch=2 c=64 v=127
113499 On ch=2 n=f#3 v=48
113619 Off ch=2 n=f#3 v=64
113619 On ch=2 n=c#4 v=48
113739 Off ch=2 n=c#4 v=64
113739 On ch=2 n=f#4 v=48
113859 Off ch=2 n=f#4 v=64
113859 On ch=2 n=a#4 v=48
113979 Off ch=2 n=a#4 v=64
113979 Par ch=2 c=64 v=0
113979 On ch=2 n=g#4 v=48
114179 Off ch=2 n=g#4 v=64
114219 Par ch=2 c=64 v=127
114219 On ch=2 n=c#3 v=48
114339 Off ch=2 n=c#3 v=64
114339 On ch=2 n=g#3 v=48
114459 Off ch=2 n=g#3 v=64
114459 On ch=2 n=c#4 v=48
114579 Off ch=2 n=c#4 v=64
114579 On ch=2 n=g#4 v=48
114699 Off ch=2 n=g#4 v=64
114699 Par ch=2 c=64 v=0
114699 On ch=2 n=c#5 v=48
114744 Par ch=2 c=7 v=49
114789 Par ch=2 c=7 v=50
114819 Off ch=2 n=c#5 v=64
114819 On ch=2 n=c5 v=49
114834 Par ch=2 c=7 v=51
114879 Par ch=2 c=7 v=52
114924 Par ch=2 c=7 v=53
114939 Off ch=2 n=c5 v=64
114939 On ch=2 n=b4 v=50
114969 Par ch=2 c=7 v=54
115014 Par ch=2 c=7 v=55
115059 Off ch=2 n=b4 v=64
115059 On ch=2 n=a#4 v=51
115059 Par ch=2 c=7 v=56
115104 Par ch=2 c=7 v=57
115149 Par ch=2 c=7 v=58
115179 Off ch=2 n=a#4 v=64
115179 On ch=2 n=b4 v=52
115194 Par ch=2 c=7 v=59
115239 Par ch=2 c=7 v=60
115284 Par ch=2 c=7 v=61
115299 Off ch=2 n=b4 v=64
115299 On ch=2 n=c#4 v=53
115329 Par ch=2 c=7 v=62
115374 Par ch=2 c=7 v=63
115419 Off ch=2 n=c#4 v=64
115419 Par ch=2 c=7 v=64
115419 On ch=2 n=f#3 v=64
115619 Off ch=2 n=f#3 v=64
115659 On ch=2 n=c#4 v=64
115659 On ch=2 n=f#4 v=64
115659 On ch=2 n=d#5 v=64
115859 Off ch=2 n=d#5 v=64
115859 Off ch=2 n=f#4 v=64
115859 Off ch=2 n=c#4 v=64
115899 On ch=2 n=c#4 v=64
115899 On ch=2 n=f#4 v=64
115899 On ch=2 n=c#5 v=64
116099 Off ch=2 n=c#5 v=64
116099 Off ch=2 n=f#4 v=64
116099 Off ch=2 n=c#4 v=64
116139 Par ch=2 c=64 v=0
116139 Par ch=2 c=64 v=127
116139 Par ch=2 c=7 v=64
116139 On ch=2 n=f#3 v=64
116339 Off ch=2 n=f#3 v=64
116379 On ch=2 n=c#4 v=64
116379 On ch=2 n=f#4 v=64
116379 On ch=2 n=d#5 v=64
116579 Off ch=2 n=d#5 v=64
116579 Off ch=2 n=f#4 v=64
116579 Off ch=2 n=c#4 v=64
116619 On ch=2 n=c#4 v=64
116619 On ch=2 n=f#4 v=64
116619 On ch=2 n=c#5 v=64
116819 Off ch=2 n=c#5 v=64
116819 Off ch=2 n=f#4 v=64
116819 Off ch=2 n=c#4 v=64
116859 Par ch=2 c=64 v=0
116859 Par ch=2 c=64 v=127
116859 On ch=2 n=c#3 v=64
117059 Off ch=2 n=c#3 v=64
117099 On ch=2 n=c#4 v=64
117099 On ch=2 n=g#4 v=64
117099 On ch=2 n=d#5 v=64
117299 Off ch=2 n=d#5 v=64
117299 Off ch=2 n=g#4 v=64
117299 Off ch=2 n=c#4 v=64
117339 On ch=2 n=c#4 v=64
117339 On ch=2 n=f#4 v=64
117339 On ch=2 n=c#5 v=64
117539 Off ch=2 n=c#5 v=64
117539 Off ch=2 n=f#4 v=64
117539 Off ch=2 n=c#4 v=64
117579 Par ch=2 c=64 v=0
117579 Par ch=2 c=64 v=127
117579 On ch=2 n=f#3 v=64
117779 Off ch=2 n=f#3 v=64
117819 On ch=2 n=c#4 v=64
117819 On ch=2 n=f#4 v=64
117819 On ch=2 n=d#5 v=64
118019 Off ch=2 n=d#5 v=64
118019 Off ch=2 n=f#4 v=64
118019 Off ch=2 n=c#4 v=64
118059 On ch=2 n=c#4 v=64
118059 On ch=2 n=f#4 v=64
118059 On ch=2 n=c#5 v=64
118259 Off ch=2 n=c#5 v=64
118259 Off ch=2 n=f#4 v=64
118259 Off ch=2 n=c#4 v=64
118299 Par ch=2 c=64 v=0
118299 Par ch=2 c=64 v=127
118299 On ch=2 n=c#4 v=64
118299 On ch=2 n=f#4 v=64
118299 On ch=2 n=c#5 v=64
118479 Par ch=2 c=7 v=63
118499 Off ch=2 n=c#5 v=64
118499 Off ch=2 n=f#4 v=64
118499 Off ch=2 n=c#4 v=64
118539 On ch=2 n=c#4 v=63
118539 On ch=2 n=f#4 v=63
118539 On ch=2 n=b4 v=63
118659 Par ch=2 c=7 v=62
118739 Off ch=2 n=b4 v=64
118739 Off ch=2 n=f#4 v=64
118739 Off ch=2 n=c#4 v=64
118779 On ch=2 n=c#4 v=62
118779 On ch=2 n=f#4 v=62
118779 On ch=2 n=a#4 v=62
118839 Par ch=2 c=7 v=61
118979 Off ch=2 n=a#4 v=64
118979 Off ch=2 n=f#4 v=64
118979 Off ch=2 n=c#4 v=64
119019 Par ch=2 c=7 v=60
119019 On ch=2 n=c#4 v=61
119019 On ch=2 n=f#4 v=61
119019 On ch=2 n=a#4 v=61
119199 Par ch=2 c=7 v=59
119219 Off ch=2 n=a#4 v=64
119219 Off ch=2 n=f#4 v=64
119219 Off ch=2 n=c#4 v=64
119259 Par ch=2 c=64 v=0
119259 On ch=2 n=b3 v=60
119259 On ch=2 n=c#4 v=60
119379 Par ch=2 c=7 v=58
119459 Off ch=2 n=c#4 v=64
119459 Off ch=2 n=b3 v=64
119499 Par ch=2 c=64 v=127
119499 On ch=2 n=a#3 v=59
119499 On ch=2 n=c#4 v=59
119559 Par ch=2 c=7 v=57
119699 Off ch=2 n=c#4 v=64
119699 Off ch=2 n=a#3 v=64
119739 Par ch=2 c=7 v=56
119739 On ch=2 n=a#3 v=58
119739 On ch=2 n=c#4 v=58
119919 Par ch=2 c=7 v=55
119939 Off ch=2 n=c#4 v=64
119939 Off ch=2 n=a#3 v=64
119979 On ch=2 n=b3 v=57
119979 On ch=2 n=c#4 v=57
120099 Par ch=2 c=7 v=54
120179 Off ch=2 n=c#4 v=64
120179 Off ch=2 n=b3 v=64
120219 On ch=2 n=a#3 v=56
120219 On ch=2 n=c#4 v=56
120279 Par ch=2 c=7 v=53
120419 Off ch=2 n=c#4 v=64
120419 Off ch=2 n=a#3 v=64
120459 Par ch=2 c=7 v=52
120459 Par ch=2 c=64 v=0
120459 On ch=2 n=a#3 v=55
120459 On ch=2 n=c#4 v=55
120639 Par ch=2 c=7 v=51
120659 Off ch=2 n=c#4 v=64
120659 Off ch=2 n=a#3 v=64
120699 On ch=2 n=g#3 v=54
120699 On ch=2 n=c#4 v=54
120819 Par ch=2 c=7 v=50
120899 Off ch=2 n=c#4 v=64
120899 Off ch=2 n=g#3 v=64
120939 On ch=2 n=f#3 v=53
120939 On ch=2 n=c#4 v=53
120999 Par ch=2 c=7 v=49
121139 Off ch=2 n=c#4 v=64
121139 Off ch=2 n=f#3 v=64
121179 Par ch=2 c=7 v=48
121179 Par ch=2 c=7 v=64
121179 Par ch=2 c=64 v=127
121179 On ch=2 n=g#3 v=64
121379 Off ch=2 n=g#3 v=64
121419 On ch=2 n=d#4 v=64
121419 On ch=2 n=g#4 v=64
121419 On ch=2 n=e5 v=64
121619 Off ch=2 n=e5 v=64
121619 Off ch=2 n=g#4 v=64
121619 Off ch=2 n=d#4 v=64
121659 On ch=2 n=d#4 v=64
121659 On ch=2 n=g#4 v=64
121659 On ch=2 n=d#5 v=64
121859 Off ch=2 n=d#5 v=64
121859 Off ch=2 n=g#4 v=64
121859 Off ch=2 n=d#4 v=64
121899 Par ch=2 c=64 v=0
121899 Par ch=2 c=64 v=127
121899 On ch=2 n=g#3 v=64
122099 Off ch=2 n=g#3 v=64
122139 On ch=2 n=d#4 v=64
122139 On ch=2 n=g#4 v=64
122139 On ch=2 n=e5 v=64
122339 Off ch=2 n=e5 v=64
122339 Off ch=2 n=g#4 v=64
122339 Off ch=2 n=d#4 v=64
122379 On ch=2 n=d#4 v=64
122379 On ch=2 n=g#4 v=64
122379 On ch=2 n=d#5 v=64
122579 Off ch=2 n=d#5 v=64
122579 Off ch=2 n=g#4 v=64
122579 Off ch=2 n=d#4 v=64
122619 Par ch=2 c=64 v=0
122619 Par ch=2 c=64 v=127
122619 On ch=2 n=d#3 v=64
122819 Off ch=2 n=d#3 v=64
122859 On ch=2 n=d#4 v=64
122859 On ch=2 n=a#4 v=64
122859 On ch=2 n=e5 v=64
123059 Off ch=2 n=e5 v=64
123059 Off ch=2 n=a#4 v=64
123059 Off ch=2 n=d#4 v=64
123099 On ch=2 n=d#4 v=64
123099 On ch=2 n=a#4 v=64
123099 On ch=2 n=d#5 v=64
123299 Off ch=2 n=d#5 v=64
123299 Off ch=2 n=a#4 v=64
123299 Off ch=2 n=d#4 v=64
123339 Par ch=2 c=64 v=127
123339 On ch=2 n=g#3 v=64
123539 Off ch=2 n=g#3 v=64
123579 On ch=2 n=e5 v=64
123579 On ch=2 n=g#4 v=64
123579 On ch=2 n=d#4 v=64
123744 Par ch=2 c=7 v=63
123819 Off ch=2 n=d#4 v=64
123819 Off ch=2 n=g#4 v=64
123819 Off ch=2 n=e5 v=64
123819 On ch=2 n=d#4 v=63
123819 On ch=2 n=g#4 v=63
123819 On ch=2 n=d#5 v=63
123909 Par ch=2 c=7 v=62
124059 Off ch=2 n=d#5 v=64
124059 Off ch=2 n=g#4 v=64
124059 Off ch=2 n=d#4 v=64
124059 On ch=2 n=d#4 v=62
124059 On ch=2 n=g#4 v=62
124059 On ch=2 n=d#5 v=62
124074 Par ch=2 c=7 v=61
124239 Par ch=2 c=7 v=60
124299 Off ch=2 n=d#5 v=64
124299 Off ch=2 n=g#4 v=64
124299 Off ch=2 n=d#4 v=64
124299 On ch=2 n=c#5 v=61
124299 On ch=2 n=g#4 v=61
124299 On ch=2 n=d#4 v=61
124404 Par ch=2 c=7 v=59
124539 Off ch=2 n=d#4 v=64
124539 Off ch=2 n=g#4 v=64
124539 Off ch=2 n=c#5 v=64
124539 On ch=2 n=d#4 v=60
124539 On ch=2 n=g#4 v=60
124539 On ch=2 n=b4 v=60
124569 Par ch=2 c=7 v=58
124734 Par ch=2 c=7 v=57
124779 Off ch=2 n=b4 v=64
124779 Off ch=2 n=g#4 v=64
124779 Off ch=2 n=d#4 v=64
124779 On ch=2 n=d#4 v=59
124779 On ch=2 n=g#4 v=59
124779 On ch=2 n=b4 v=59
124899 Par ch=2 c=7 v=56
125019 Off ch=2 n=b4 v=64
125019 Off ch=2 n=g#4 v=64
125019 Off ch=2 n=d#4 v=64
125019 On ch=2 n=d#4 v=58
125019 On ch=2 n=c#4 v=58
125064 Par ch=2 c=7 v=55
125229 Par ch=2 c=7 v=54
125259 Off ch=2 n=c#4 v=64
125259 Off ch=2 n=d#4 v=64
125259 On ch=2 n=b3 v=57
125259 On ch=2 n=d#4 v=57
125394 Par ch=2 c=7 v=53
125499 Off ch=2 n=d#4 v=64
125499 Off ch=2 n=b3 v=64
125499 On ch=2 n=b3 v=56
125499 On ch=2 n=d#4 v=56
125559 Par ch=2 c=7 v=52
125724 Par ch=2 c=7 v=51
125739 Off ch=2 n=d#4 v=64
125739 Off ch=2 n=b3 v=64
125739 On ch=2 n=d#4 v=55
125739 On ch=2 n=c#4 v=55
125889 Par ch=2 c=7 v=50
125979 Off ch=2 n=c#4 v=64
125979 Off ch=2 n=d#4 v=64
125979 On ch=2 n=b3 v=54
125979 On ch=2 n=d#4 v=54
126054 Par ch=2 c=7 v=49
126179 Off ch=2 n=d#4 v=64
126179 Off ch=2 n=b3 v=64
126219 Par ch=2 c=7 v=48
126219 Par ch=2 c=64 v=0
126219 On ch=2 n=b3 v=48
126219 On ch=2 n=d#4 v=48
126419 Off ch=2 n=d#4 v=64
126419 Off ch=2 n=b3 v=64
126459 On ch=2 n=a#3 v=48
126459 On ch=2 n=d#4 v=48
126659 Off ch=2 n=d#4 v=64
126659 Off ch=2 n=a#3 v=64
126699 On ch=2 n=g#3 v=48
126699 On ch=2 n=d#4 v=48
126899 Off ch=2 n=d#4 v=64
126899 Off ch=2 n=g#3 v=64
126939 Par ch=2 c=64 v=127
126939 On ch=2 n=c#3 v=48
127139 Off ch=2 n=c#3 v=64
127419 On ch=2 n=c#4 v=48
127619 Off ch=2 n=c#4 v=64
127659 Par ch=2 c=64 v=0
127659 Par ch=2 c=64 v=127
127659 On ch=2 n=d4 v=48
127686 Off ch=2 n=d4 v=64
127689 On ch=2 n=d#4 v=48
127716 Off ch=2 n=d#4 v=64
127719 On ch=2 n=f4 v=48
127756 Off ch=2 n=f4 v=64
127759 On ch=2 n=d#4 v=48
127796 Off ch=2 n=d#4 v=64
127799 On ch=2 n=f4 v=48
127836 Off ch=2 n=f4 v=64
127839 On ch=2 n=d#4 v=48
127876 Off ch=2 n=d#4 v=64
127879 On ch=2 n=f4 v=48
127916 Off ch=2 n=f4 v=64
127919 On ch=2 n=d#4 v=48
127956 Off ch=2 n=d#4 v=64
127959 On ch=2 n=f4 v=48
127996 Off ch=2 n=f4 v=64
127999 On ch=2 n=d#4 v=48
128036 Off ch=2 n=d#4 v=64
128039 On ch=2 n=f4 v=48
128076 Off ch=2 n=f4 v=64
128079 On ch=2 n=d#4 v=48
128116 Off ch=2 n=d#4 v=64
128119 On ch=2 n=f4 v=48
128156 Off ch=2 n=f4 v=64
128159 On ch=2 n=d#4 v=48
128196 Off ch=2 n=d#4 v=64
128199 On ch=2 n=f4 v=48
128236 Off ch=2 n=f4 v=64
128239 On ch=2 n=d#4 v=48
128276 Off ch=2 n=d#4 v=64
128279 On ch=2 n=f4 v=48
128316 Off ch=2 n=f4 v=64
128319 On ch=2 n=d4 v=48
128346 Off ch=2 n=d4 v=64
128349 On ch=2 n=d#4 v=48
128376 Off ch=2 n=d#4 v=64
128379 Par ch=2 c=64 v=0
128379 Par ch=2 c=64 v=127
128379 On ch=2 n=f4 v=48
128579 Off ch=2 n=f4 v=64
128619 On ch=2 n=c#3 v=48
128819 Off ch=2 n=c#3 v=64
128859 On ch=2 n=c#4 v=48
129059 Off ch=2 n=c#4 v=64
129099 Par ch=2 c=64 v=0
129099 Par ch=2 c=64 v=127
129099 On ch=2 n=d4 v=48
129126 Off ch=2 n=d4 v=64
129129 On ch=2 n=d#4 v=48
129156 Off ch=2 n=d#4 v=64
129159 On ch=2 n=f4 v=48
129196 Off ch=2 n=f4 v=64
129199 On ch=2 n=d#4 v=48
129236 Off ch=2 n=d#4 v=64
129239 On ch=2 n=f4 v=48
129276 Off ch=2 n=f4 v=64
129279 On ch=2 n=d#4 v=48
129316 Off ch=2 n=d#4 v=64
129319 On ch=2 n=f4 v=48
129356 Off ch=2 n=f4 v=64
129359 On ch=2 n=d#4 v=48
129396 Off ch=2 n=d#4 v=64
129399 On ch=2 n=f4 v=48
129436 Off ch=2 n=f4 v=64
129439 On ch=2 n=d#4 v=48
129476 Off ch=2 n=d#4 v=64
129479 On ch=2 n=f4 v=48
129516 Off ch=2 n=f4 v=64
129519 On ch=2 n=d#4 v=48
129556 Off ch=2 n=d#4 v=64
129559 On ch=2 n=f4 v=48
129596 Off ch=2 n=f4 v=64
129599 On ch=2 n=d#4 v=48
129636 Off ch=2 n=d#4 v=64
129639 On ch=2 n=f4 v=48
129676 Off ch=2 n=f4 v=64
129679 On ch=2 n=d#4 v=48
129716 Off ch=2 n=d#4 v=64
129719 On ch=2 n=f4 v=48
129756 Off ch=2 n=f4 v=64
129759 On ch=2 n=d4 v=48
129786 Off ch=2 n=d4 v=64
129789 On ch=2 n=d#4 v=48
129816 Off ch=2 n=d#4 v=64
129819 Par ch=2 c=64 v=0
129819 Par ch=2 c=64 v=127
129819 On ch=2 n=f4 v=48
130019 Off ch=2 n=f4 v=64
130059 On ch=2 n=c#3 v=48
130259 Off ch=2 n=c#3 v=64
130299 On ch=2 n=c#4 v=48
130299 On ch=2 n=g#4 v=48
130299 On ch=2 n=c#5 v=48
130499 Off ch=2 n=c#5 v=64
130499 Off ch=2 n=g#4 v=64
130499 Off ch=2 n=c#4 v=64
130539 On ch=2 n=c#4 v=48
130539 On ch=2 n=g#4 v=48
130539 On ch=2 n=c#5 v=48
130739 Off ch=2 n=c#5 v=64
130739 Off ch=2 n=g#4 v=64
130739 Off ch=2 n=c#4 v=64
130779 On ch=2 n=c#4 v=48
130779 On ch=2 n=g#4 v=48
130779 On ch=2 n=b4 v=48
130854 Par ch=2 c=7 v=49
130929 Par ch=2 c=7 v=50
130979 Off ch=2 n=b4 v=64
130979 Off ch=2 n=g#4 v=64
130979 Off ch=2 n=c#4 v=64
131004 Par ch=2 c=7 v=51
131019 On ch=2 n=c#4 v=49
131019 On ch=2 n=g#4 v=49
131019 On ch=2 n=b4 v=49
131079 Par ch=2 c=7 v=52
131154 Par ch=2 c=7 v=53
131219 Off ch=2 n=b4 v=64
131219 Off ch=2 n=g#4 v=64
131219 Off ch=2 n=c#4 v=64
131229 Par ch=2 c=7 v=54
131259 On ch=2 n=c#4 v=50
131259 On ch=2 n=g#4 v=50
131259 On ch=2 n=b4 v=50
131304 Par ch=2 c=7 v=55
131379 Par ch=2 c=7 v=56
131454 Par ch=2 c=7 v=57
131459 Off ch=2 n=b4 v=64
131459 Off ch=2 n=g#4 v=64
131459 Off ch=2 n=c#4 v=64
131499 On ch=2 n=c#4 v=51
131499 On ch=2 n=g#4 v=51
131499 On ch=2 n=b4 v=51
131529 Par ch=2 c=7 v=58
131604 Par ch=2 c=7 v=59
131679 Par ch=2 c=7 v=60
131699 Off ch=2 n=b4 v=64
131699 Off ch=2 n=g#4 v=64
131699 Off ch=2 n=c#4 v=64
131739 On ch=2 n=c#4 v=52
131739 On ch=2 n=g#4 v=52
131754 Par ch=2 c=7 v=61
131829 Par ch=2 c=7 v=62
131904 Par ch=2 c=7 v=63
131939 Off ch=2 n=g#4 v=64
131939 Off ch=2 n=c#4 v=64
131979 Par ch=2 c=7 v=64
131979 On ch=2 n=f#3 v=64
131979 On ch=2 n=c#4 v=64
132179 Off ch=2 n=c#4 v=64
132179 Off ch=2 n=f#3 v=64
132219 Par ch=2 c=7 v=48
132219 On ch=2 n=a#4 v=48
132339 Off ch=2 n=a#4 v=64
132339 On ch=2 n=g#4 v=48
132459 Off ch=2 n=g#4 v=64
132459 On ch=2 n=f#4 v=48
132579 Off ch=2 n=f#4 v=64
132579 On ch=2 n=f4 v=48
132699 Off ch=2 n=f4 v=64
132699 On ch=2 n=f4 v=48
132819 Off ch=2 n=f4 v=64
132819 On ch=2 n=d#4 v=48
132939 Off ch=2 n=d#4 v=64
132939 On ch=2 n=c#4 v=48
133059 Off ch=2 n=c#4 v=64
133059 On ch=2 n=c4 v=48
133179 Off ch=2 n=c4 v=64
133179 On ch=2 n=a#3 v=48
133299 Off ch=2 n=a#3 v=64
133299 On ch=2 n=g#3 v=48
133419 Off ch=2 n=g#3 v=64
133419 On ch=2 n=c#3 v=48
133419 On ch=2 n=g#4 v=48
133479 Off ch=2 n=g#4 v=64
133479 Off ch=2 n=c#3 v=64
133659 On ch=2 n=a#4 v=48
133779 Off ch=2 n=a#4 v=64
133779 On ch=2 n=g#4 v=48
133899 Off ch=2 n=g#4 v=64
133899 On ch=2 n=f#4 v=48
134019 Off ch=2 n=f#4 v=64
134019 On ch=2 n=f4 v=48
134139 Off ch=2 n=f4 v=64
134139 On ch=2 n=f4 v=48
134259 Off ch=2 n=f4 v=64
134259 On ch=2 n=d#4 v=48
134379 Off ch=2 n=d#4 v=64
134379 On ch=2 n=c#4 v=48
134499 Off ch=2 n=c#4 v=64
134499 On ch=2 n=c4 v=48
134619 Off ch=2 n=c4 v=64
134619 On ch=2 n=a#3 v=48
134739 Off ch=2 n=a#3 v=64
134739 On ch=2 n=g#3 v=48
134859 Off ch=2 n=g#3 v=64
134859 On ch=2 n=c#3 v=48
134919 Off ch=2 n=c#3 v=64
135099 On ch=2 n=g#4 v=48
135219 Off ch=2 n=g#4 v=64
135219 On ch=2 n=a#4 v=48
135339 Off ch=2 n=a#4 v=64
135339 On ch=2 n=b4 v=48
135459 Off ch=2 n=b4 v=64
135459 On ch=2 n=c#5 v=48
135576 Off ch=2 n=c#5 v=64
135579 On ch=2 n=c#5 v=48
135699 Off ch=2 n=c#5 v=64
135699 On ch=2 n=c5 v=48
135819 Off ch=2 n=c5 v=64
135819 On ch=2 n=c4 v=48
135939 Off ch=2 n=c4 v=64
135939 On ch=2 n=c#4 v=48
136059 Off ch=2 n=c#4 v=64
136059 On ch=2 n=c#5 v=48
136179 Off ch=2 n=c#5 v=64
136179 On ch=2 n=c5 v=48
136299 Off ch=2 n=c5 v=64
136299 On ch=2 n=a#4 v=48
136499 Off ch=2 n=a#4 v=64
136539 On ch=2 n=a#3 v=48
136659 Off ch=2 n=a#3 v=64
136659 On ch=2 n=f4 v=48
136779 Off ch=2 n=f4 v=64
136779 On ch=2 n=g#4 v=48
136899 Off ch=2 n=g#4 v=64
136899 On ch=2 n=c5 v=48
137016 Off ch=2 n=c5 v=64
137019 On ch=2 n=c5 v=48
137139 Off ch=2 n=c5 v=64
137139 On ch=2 n=a#4 v=48
137259 Off ch=2 n=a#4 v=64
137259 On ch=2 n=d4 v=48
137379 Off ch=2 n=d4 v=64
137379 On ch=2 n=d#4 v=48
137499 Off ch=2 n=d#4 v=64
137499 On ch=2 n=c5 v=48
137619 Off ch=2 n=c5 v=64
137619 On ch=2 n=a#4 v=48
137736 Off ch=2 n=a#4 v=64
137739 On ch=2 n=g#4 v=48
137939 Off ch=2 n=g#4 v=64
137979 On ch=2 n=a#4 v=48
138096 Off ch=2 n=a#4 v=64
138099 On ch=2 n=g#4 v=48
138216 Off ch=2 n=g#4 v=64
138219 On ch=2 n=f#4 v=48
138336 Off ch=2 n=f#4 v=64
138339 On ch=2 n=f4 v=48
138456 Off ch=2 n=f4 v=64
138459 On ch=2 n=f4 v=48
138576 Off ch=2 n=f4 v=64
138579 On ch=2 n=d#4 v=48
138696 Off ch=2 n=d#4 v=64
138699 On ch=2 n=c#4 v=48
138816 Off ch=2 n=c#4 v=64
138819 On ch=2 n=c4 v=48
138936 Off ch=2 n=c4 v=64
138939 On ch=2 n=a#3 v=48
139056 Off ch=2 n=a#3 v=64
139059 On ch=2 n=g#3 v=48
139176 Off ch=2 n=g#3 v=64
139179 On ch=2 n=c#3 v=48
139239 Off ch=2 n=c#3 v=64
139419 On ch=2 n=a#4 v=48
139539 Off ch=2 n=a#4 v=64
139539 On ch=2 n=g#4 v=48
139659 Off ch=2 n=g#4 v=64
139659 On ch=2 n=f#4 v=48
139779 Off ch=2 n=f#4 v=64
139779 On ch=2 n=f4 v=48
139899 Off ch=2 n=f4 v=64
139899 On ch=2 n=f4 v=48
140019 Off ch=2 n=f4 v=64
140019 On ch=2 n=d#4 v=48
140139 Off ch=2 n=d#4 v=64
140139 On ch=2 n=c#4 v=48
140259 Off ch=2 n=c#4 v=64
140259 On ch=2 n=c4 v=48
140379 Off ch=2 n=c4 v=64
140379 On ch=2 n=a#3 v=48
140499 Off ch=2 n=a#3 v=64
140499 On ch=2 n=g#3 v=48
140619 Off ch=2 n=g#3 v=64
140619 Par ch=2 c=64 v=127
140619 On ch=2 n=c#3 v=48
140679 Off ch=2 n=c#3 v=64
140859 On ch=2 n=g#4 v=48
140979 Off ch=2 n=g#4 v=64
140979 On ch=2 n=g4 v=48
141099 Off ch=2 n=g4 v=64
141099 On ch=2 n=a#4 v=48
141219 Off ch=2 n=a#4 v=64
141219 On ch=2 n=g#4 v=48
141339 Off ch=2 n=g#4 v=64
141339 Par ch=2 c=64 v=0
141339 On ch=2 n=b4 v=48
141539 Off ch=2 n=b4 v=64
141579 Par ch=2 c=64 v=127
141579 On ch=2 n=b3 v=48
141699 Off ch=2 n=b3 v=64
141699 On ch=2 n=f4 v=48
141819 Off ch=2 n=f4 v=64
141819 On ch=2 n=g#4 v=48
141939 Off ch=2 n=g#4 v=64
141939 On ch=2 n=f#4 v=48
142059 Off ch=2 n=f#4 v=64
142059 Par ch=2 c=64 v=0
142059 On ch=2 n=a#4 v=48
142259 Off ch=2 n=a#4 v=64
142299 Par ch=2 c=64 v=127
142299 On ch=2 n=f#3 v=48
142419 Off ch=2 n=f#3 v=64
142419 On ch=2 n=c#4 v=48
142539 Off ch=2 n=c#4 v=64
142539 On ch=2 n=f#4 v=48
142659 Off ch=2 n=f#4 v=64
142659 On ch=2 n=a#4 v=48
142779 Off ch=2 n=a#4 v=64
142779 Par ch=2 c=64 v=0
142779 On ch=2 n=g#4 v=48
142979 Off ch=2 n=g#4 v=64
143019 Par ch=2 c=64 v=127
143019 On ch=2 n=c#3 v=48
143139 Off ch=2 n=c#3 v=64
143139 On ch=2 n=g#3 v=48
143259 Off ch=2 n=g#3 v=64
143259 On ch=2 n=c#4 v=48
143379 Off ch=2 n=c#4 v=64
143379 On ch=2 n=g#4 v=48
143499 Off ch=2 n=g#4 v=64
143499 Par ch=2 c=64 v=0
143499 On ch=2 n=c#5 v=48
143544 Par ch=2 c=7 v=49
143589 Par ch=2 c=7 v=50
143619 Off ch=2 n=c#5 v=64
143619 On ch=2 n=c5 v=49
143634 Par ch=2 c=7 v=51
143679 Par ch=2 c=7 v=52
143724 Par ch=2 c=7 v=53
143739 Off ch=2 n=c5 v=64
143739 On ch=2 n=b4 v=50
143769 Par ch=2 c=7 v=54
143814 Par ch=2 c=7 v=55
143859 Off ch=2 n=b4 v=64
143859 On ch=2 n=a#4 v=51
143859 Par ch=2 c=7 v=56
143904 Par ch=2 c=7 v=57
143949 Par ch=2 c=7 v=58
143979 Off ch=2 n=a#4 v=64
143979 On ch=2 n=b4 v=52
143994 Par ch=2 c=7 v=59
144039 Par ch=2 c=7 v=60
144084 Par ch=2 c=7 v=61
144099 Off ch=2 n=b4 v=64
144099 On ch=2 n=c#4 v=53
144129 Par ch=2 c=7 v=62
144174 Par ch=2 c=7 v=63
144219 Off ch=2 n=c#4 v=64
144219 Par ch=2 c=7 v=64
144219 On ch=2 n=f#3 v=64
144419 Off ch=2 n=f#3 v=64
144459 On ch=2 n=c#4 v=64
144459 On ch=2 n=f#4 v=64
144459 On ch=2 n=d#5 v=64
144659 Off ch=2 n=d#5 v=64
144659 Off ch=2 n=f#4 v=64
144659 Off ch=2 n=c#4 v=64
144699 On ch=2 n=c#4 v=64
144699 On ch=2 n=f#4 v=64
144699 On ch=2 n=c#5 v=64
144899 Off ch=2 n=c#5 v=64
144899 Off ch=2 n=f#4 v=64
144899 Off ch=2 n=c#4 v=64
144939 Par ch=2 c=64 v=0
144939 Par ch=2 c=64 v=127
144939 Par ch=2 c=7 v=64
144939 On ch=2 n=f#3 v=64
145139 Off ch=2 n=f#3 v=64
145179 On ch=2 n=c#4 v=64
145179 On ch=2 n=f#4 v=64
145179 On ch=2 n=d#5 v=64
145379 Off ch=2 n=d#5 v=64
145379 Off ch=2 n=f#4 v=64
145379 Off ch=2 n=c#4 v=64
145419 On ch=2 n=c#4 v=64
145419 On ch=2 n=f#4 v=64
145419 On ch=2 n=c#5 v=64
145619 Off ch=2 n=c#5 v=64
145619 Off ch=2 n=f#4 v=64
145619 Off ch=2 n=c#4 v=64
145659 Par ch=2 c=64 v=0
145659 Par ch=2 c=64 v=127
145659 On ch=2 n=c#3 v=64
145859 Off ch=2 n=c#3 v=64
145899 On ch=2 n=c#4 v=64
145899 On ch=2 n=g#4 v=64
145899 On ch=2 n=d#5 v=64
146099 Off ch=2 n=d#5 v=64
146099 Off ch=2 n=g#4 v=64
146099 Off ch=2 n=c#4 v=64
146139 On ch=2 n=c#4 v=64
146139 On ch=2 n=f#4 v=64
146139 On ch=2 n=c#5 v=64
146339 Off ch=2 n=c#5 v=64
146339 Off ch=2 n=f#4 v=64
146339 Off ch=2 n=c#4 v=64
146379 Par ch=2 c=64 v=0
146379 Par ch=2 c=64 v=127
146379 On ch=2 n=f#3 v=64
146579 Off ch=2 n=f#3 v=64
146619 On ch=2 n=c#4 v=64
146619 On ch=2 n=f#4 v=64
146619 On ch=2 n=d#5 v=64
146819 Off ch=2 n=d#5 v=64
146819 Off ch=2 n=f#4 v=64
146819 Off ch=2 n=c#4 v=64
146859 On ch=2 n=c#4 v=64
146859 On ch=2 n=f#4 v=64
146859 On ch=2 n=c#5 v=64
147059 Off ch=2 n=c#5 v=64
147059 Off ch=2 n=f#4 v=64
147059 Off ch=2 n=c#4 v=64
147099 Par ch=2 c=64 v=0
147099 Par ch=2 c=64 v=127
147099 On ch=2 n=c#4 v=64
147099 On ch=2 n=f#4 v=64
147099 On ch=2 n=c#5 v=64
147279 Par ch=2 c=7 v=63
147299 Off ch=2 n=c#5 v=64
147299 Off ch=2 n=f#4 v=64
147299 Off ch=2 n=c#4 v=64
147339 On ch=2 n=c#4 v=63
147339 On ch=2 n=f#4 v=63
147339 On ch=2 n=b4 v=63
147459 Par ch=2 c=7 v=62
147539 Off ch=2 n=b4 v=64
147539 Off ch=2 n=f#4 v=64
147539 Off ch=2 n=c#4 v=64
147579 On ch=2 n=c#4 v=62
147579 On ch=2 n=f#4 v=62
147579 On ch=2 n=a#4 v=62
147639 Par ch=2 c=7 v=61
147779 Off ch=2 n=a#4 v=64
147779 Off ch=2 n=f#4 v=64
147779 Off ch=2 n=c#4 v=64
147819 Par ch=2 c=7 v=60
147819 On ch=2 n=c#4 v=61
147819 On ch=2 n=f#4 v=61
147819 On ch=2 n=a#4 v=61
147999 Par ch=2 c=7 v=59
148019 Off ch=2 n=a#4 v=64
148019 Off ch=2 n=f#4 v=64
148019 Off ch=2 n=c#4 v=64
148059 Par ch=2 c=64 v=0
148059 On ch=2 n=b3 v=60
148059 On ch=2 n=c#4 v=60
148179 Par ch=2 c=7 v=58
148259 Off ch=2 n=c#4 v=64
148259 Off ch=2 n=b3 v=64
148299 Par ch=2 c=64 v=127
148299 On ch=2 n=a#3 v=59
148299 On ch=2 n=c#4 v=59
148359 Par ch=2 c=7 v=57
148499 Off ch=2 n=c#4 v=64
148499 Off ch=2 n=a#3 v=64
148539 Par ch=2 c=7 v=56
148539 On ch=2 n=a#3 v=58
148539 On ch=2 n=c#4 v=58
148719 Par ch=2 c=7 v=55
148739 Off ch=2 n=c#4 v=64
148739 Off ch=2 n=a#3 v=64
148779 On ch=2 n=b3 v=57
148779 On ch=2 n=c#4 v=57
148899 Par ch=2 c=7 v=54
148979 Off ch=2 n=c#4 v=64
148979 Off ch=2 n=b3 v=64
149019 On ch=2 n=a#3 v=56
149019 On ch=2 n=c#4 v=56
149079 Par ch=2 c=7 v=53
149219 Off ch=2 n=c#4 v=64
149219 Off ch=2 n=a#3 v=64
149259 Par ch=2 c=7 v=52
149259 Par ch=2 c=64 v=0
149259 On ch=2 n=a#3 v=55
149259 On ch=2 n=c#4 v=55
149439 Par ch=2 c=7 v=51
149459 Off ch=2 n=c#4 v=64
149459 Off ch=2 n=a#3 v=64
149499 On ch=2 n=g#3 v=54
149499 On ch=2 n=c#4 v=54
149619 Par ch=2 c=7 v=50
149699 Off ch=2 n=c#4 v=64
149699 Off ch=2 n=g#3 v=64
149739 On ch=2 n=f#3 v=53
149739 On ch=2 n=c#4 v=53
149799 Par ch=2 c=7 v=49
149939 Off ch=2 n=c#4 v=64
149939 Off ch=2 n=f#3 v=64
149979 Par ch=2 c=7 v=48
149979 Par ch=2 c=7 v=64
149979 Par ch=2 c=64 v=127
149979 On ch=2 n=g#3 v=64
150179 Off ch=2 n=g#3 v=64
150219 On ch=2 n=d#4 v=64
150219 On ch=2 n=g#4 v=64
150219 On ch=2 n=e5 v=64
150419 Off ch=2 n=e5 v=64
150419 Off ch=2 n=g#4 v=64
150419 Off ch=2 n=d#4 v=64
150459 On ch=2 n=d#4 v=64
150459 On ch=2 n=g#4 v=64
150459 On ch=2 n=d#5 v=64
150659 Off ch=2 n=d#5 v=64
150659 Off ch=2 n=g#4 v=64
150659 Off ch=2 n=d#4 v=64
150699 Par ch=2 c=64 v=0
150699 Par ch=2 c=64 v=127
150699 On ch=2 n=g#3 v=64
150899 Off ch=2 n=g#3 v=64
150939 On ch=2 n=d#4 v=64
150939 On ch=2 n=g#4 v=64
150939 On ch=2 n=e5 v=64
151139 Off ch=2 n=e5 v=64
151139 Off ch=2 n=g#4 v=64
151139 Off ch=2 n=d#4 v=64
151179 On ch=2 n=d#4 v=64
151179 On ch=2 n=g#4 v=64
151179 On ch=2 n=d#5 v=64
151379 Off ch=2 n=d#5 v=64
151379 Off ch=2 n=g#4 v=64
151379 Off ch=2 n=d#4 v=64
151419 Par ch=2 c=64 v=0
151419 Par ch=2 c=64 v=127
151419 On ch=2 n=d#3 v=64
151619 Off ch=2 n=d#3 v=64
151659 On ch=2 n=d#4 v=64
151659 On ch=2 n=a#4 v=64
151659 On ch=2 n=e5 v=64
151859 Off ch=2 n=e5 v=64
151859 Off ch=2 n=a#4 v=64
151859 Off ch=2 n=d#4 v=64
151899 On ch=2 n=d#4 v=64
151899 On ch=2 n=a#4 v=64
151899 On ch=2 n=d#5 v=64
152099 Off ch=2 n=d#5 v=64
152099 Off ch=2 n=a#4 v=64
152099 Off ch=2 n=d#4 v=64
152139 Par ch=2 c=64 v=127
152139 On ch=2 n=g#3 v=64
152339 Off ch=2 n=g#3 v=64
152379 On ch=2 n=e5 v=64
152379 On ch=2 n=g#4 v=64
152379 On ch=2 n=d#4 v=64
152544 Par ch=2 c=7 v=63
152619 Off ch=2 n=d#4 v=64
152619 Off ch=2 n=g#4 v=64
152619 Off ch=2 n=e5 v=64
152619 On ch=2 n=d#4 v=63
152619 On ch=2 n=g#4 v=63
152619 On ch=2 n=d#5 v=63
152709 Par ch=2 c=7 v=62
152859 Off ch=2 n=d#5 v=64
152859 Off ch=2 n=g#4 v=64
152859 Off ch=2 n=d#4 v=64
152859 On ch=2 n=d#4 v=62
152859 On ch=2 n=g#4 v=62
152859 On ch=2 n=d#5 v=62
152874 Par ch=2 c=7 v=61
153039 Par ch=2 c=7 v=60
153099 Off ch=2 n=d#5 v=64
153099 Off ch=2 n=g#4 v=64
153099 Off ch=2 n=d#4 v=64
153099 On ch=2 n=c#5 v=61
153099 On ch=2 n=g#4 v=61
153099 On ch=2 n=d#4 v=61
153204 Par ch=2 c=7 v=59
153339 Off ch=2 n=d#4 v=64
153339 Off ch=2 n=g#4 v=64
153339 Off ch=2 n=c#5 v=64
153339 On ch=2 n=d#4 v=60
153339 On ch=2 n=g#4 v=60
153339 On ch=2 n=b4 v=60
153369 Par ch=2 c=7 v=58
153534 Par ch=2 c=7 v=57
153579 Off ch=2 n=b4 v=64
153579 Off ch=2 n=g#4 v=64
153579 Off ch=2 n=d#4 v=64
153579 On ch=2 n=d#4 v=59
153579 On ch=2 n=g#4 v=59
153579 On ch=2 n=b4 v=59
153699 Par ch=2 c=7 v=56
153819 Off ch=2 n=b4 v=64
153819 Off ch=2 n=g#4 v=64
153819 Off ch=2 n=d#4 v=64
153819 On ch=2 n=d#4 v=58
153819 On ch=2 n=c#4 v=58
153864 Par ch=2 c=7 v=55
154029 Par ch=2 c=7 v=54
154059 Off ch=2 n=c#4 v=64
154059 Off ch=2 n=d#4 v=64
154059 On ch=2 n=b3 v=57
154059 On ch=2 n=d#4 v=57
154194 Par ch=2 c=7 v=53
154299 Off ch=2 n=d#4 v=64
154299 Off ch=2 n=b3 v=64
154299 On ch=2 n=b3 v=56
154299 On ch=2 n=d#4 v=56
154359 Par ch=2 c=7 v=52
154524 Par ch=2 c=7 v=51
154539 Off ch=2 n=d#4 v=64
154539 Off ch=2 n=b3 v=64
154539 On ch=2 n=d#4 v=55
154539 On ch=2 n=c#4 v=55
154689 Par ch=2 c=7 v=50
154779 Off ch=2 n=c#4 v=64
154779 Off ch=2 n=d#4 v=64
154779 On ch=2 n=b3 v=54
154779 On ch=2 n=d#4 v=54
154854 Par ch=2 c=7 v=49
154979 Off ch=2 n=d#4 v=64
154979 Off ch=2 n=b3 v=64
155019 Par ch=2 c=7 v=48
155019 Par ch=2 c=64 v=0
155019 On ch=2 n=b3 v=48
155019 On ch=2 n=d#4 v=48
155219 Off ch=2 n=d#4 v=64
155219 Off ch=2 n=b3 v=64
155259 On ch=2 n=a#3 v=48
155259 On ch=2 n=d#4 v=48
155459 Off ch=2 n=d#4 v=64
155459 Off ch=2 n=a#3 v=64
155499 On ch=2 n=g#3 v=48
155499 On ch=2 n=d#4 v=48
155699 Off ch=2 n=d#4 v=64
155699 Off ch=2 n=g#3 v=64
155739 Par ch=2 c=64 v=127
155739 On ch=2 n=c#3 v=48
155939 Off ch=2 n=c#3 v=64
156219 On ch=2 n=c#4 v=48
156419 Off ch=2 n=c#4 v=64
156459 Par ch=2 c=64 v=0
156459 Par ch=2 c=64 v=127
156459 On ch=2 n=d4 v=48
156486 Off ch=2 n=d4 v=64
156489 On ch=2 n=d#4 v=48
156516 Off ch=2 n=d#4 v=64
156519 On ch=2 n=f4 v=48
156556 Off ch=2 n=f4 v=64
156559 On ch=2 n=d#4 v=48
156596 Off ch=2 n=d#4 v=64
156599 On ch=2 n=f4 v=48
156636 Off ch=2 n=f4 v=64
156639 On ch=2 n=d#4 v=48
156676 Off ch=2 n=d#4 v=64
156679 On ch=2 n=f4 v=48
156716 Off ch=2 n=f4 v=64
156719 On ch=2 n=d#4 v=48
156756 Off ch=2 n=d#4 v=64
156759 On ch=2 n=f4 v=48
156796 Off ch=2 n=f4 v=64
156799 On ch=2 n=d#4 v=48
156836 Off ch=2 n=d#4 v=64
156839 On ch=2 n=f4 v=48
156876 Off ch=2 n=f4 v=64
156879 On ch=2 n=d#4 v=48
156916 Off ch=2 n=d#4 v=64
156919 On ch=2 n=f4 v=48
156956 Off ch=2 n=f4 v=64
156959 On ch=2 n=d#4 v=48
156996 Off ch=2 n=d#4 v=64
156999 On ch=2 n=f4 v=48
157036 Off ch=2 n=f4 v=64
157039 On ch=2 n=d#4 v=48
157076 Off ch=2 n=d#4 v=64
157079 On ch=2 n=f4 v=48
157116 Off ch=2 n=f4 v=64
157119 On ch=2 n=d4 v=48
157146 Off ch=2 n=d4 v=64
157149 On ch=2 n=d#4 v=48
157176 Off ch=2 n=d#4 v=64
157179 Par ch=2 c=64 v=0
157179 Par ch=2 c=64 v=127
157179 On ch=2 n=f4 v=48
157379 Off ch=2 n=f4 v=64
157419 On ch=2 n=c#3 v=48
157619 Off ch=2 n=c#3 v=64
157659 On ch=2 n=c#4 v=48
157859 Off ch=2 n=c#4 v=64
157899 Par ch=2 c=64 v=0
157899 Par ch=2 c=64 v=127
157899 On ch=2 n=d4 v=48
157926 Off ch=2 n=d4 v=64
157929 On ch=2 n=d#4 v=48
157956 Off ch=2 n=d#4 v=64
157959 On ch=2 n=f4 v=48
157996 Off ch=2 n=f4 v=64
157999 On ch=2 n=d#4 v=48
158036 Off ch=2 n=d#4 v=64
158039 On ch=2 n=f4 v=48
158076 Off ch=2 n=f4 v=64
158079 On ch=2 n=d#4 v=48
158116 Off ch=2 n=d#4 v=64
158119 On ch=2 n=f4 v=48
158156 Off ch=2 n=f4 v=64
158159 On ch=2 n=d#4 v=48
158196 Off ch=2 n=d#4 v=64
158199 On ch=2 n=f4 v=48
158236 Off ch=2 n=f4 v=64
158239 On ch=2 n=d#4 v=48
158276 Off ch=2 n=d#4 v=64
158279 On ch=2 n=f4 v=48
158316 Off ch=2 n=f4 v=64
158319 On ch=2 n=d#4 v=48
158356 Off ch=2 n=d#4 v=64
158359 On ch=2 n=f4 v=48
158396 Off ch=2 n=f4 v=64
158399 On ch=2 n=d#4 v=48
158436 Off ch=2 n=d#4 v=64
158439 On ch=2 n=f4 v=48
158476 Off ch=2 n=f4 v=64
158479 On ch=2 n=d#4 v=48
158516 Off ch=2 n=d#4 v=64
158519 On ch=2 n=f4 v=48
158556 Off ch=2 n=f4 v=64
158559 On ch=2 n=d4 v=48
158586 Off ch=2 n=d4 v=64
158589 On ch=2 n=d#4 v=48
158616 Off ch=2 n=d#4 v=64
158619 Par ch=2 c=64 v=0
158619 Par ch=2 c=64 v=127
158619 On ch=2 n=f4 v=48
158819 Off ch=2 n=f4 v=64
158859 On ch=2 n=c#3 v=48
159059 Off ch=2 n=c#3 v=64
159099 On ch=2 n=c#4 v=48
159099 On ch=2 n=g#4 v=48
159099 On ch=2 n=c#5 v=48
159299 Off ch=2 n=c#5 v=64
159299 Off ch=2 n=g#4 v=64
159299 Off ch=2 n=c#4 v=64
159339 On ch=2 n=c#4 v=48
159339 On ch=2 n=g#4 v=48
159339 On ch=2 n=c#5 v=48
159539 Off ch=2 n=c#5 v=64
159539 Off ch=2 n=g#4 v=64
159539 Off ch=2 n=c#4 v=64
159579 On ch=2 n=c#4 v=48
159579 On ch=2 n=g#4 v=48
159579 On ch=2 n=b4 v=48
159654 Par ch=2 c=7 v=49
159729 Par ch=2 c=7 v=50
159779 Off ch=2 n=b4 v=64
159779 Off ch=2 n=g#4 v=64
159779 Off ch=2 n=c#4 v=64
159804 Par ch=2 c=7 v=51
159819 On ch=2 n=c#4 v=49
159819 On ch=2 n=g#4 v=49
159819 On ch=2 n=b4 v=49
159879 Par ch=2 c=7 v=52
159954 Par ch=2 c=7 v=53
160019 Off ch=2 n=b4 v=64
160019 Off ch=2 n=g#4 v=64
160019 Off ch=2 n=c#4 v=64
160029 Par ch=2 c=7 v=54
160059 On ch=2 n=c#4 v=50
160059 On ch=2 n=g#4 v=50
160059 On ch=2 n=b4 v=50
160104 Par ch=2 c=7 v=55
160179 Par ch=2 c=7 v=56
160254 Par ch=2 c=7 v=57
160259 Off ch=2 n=b4 v=64
160259 Off ch=2 n=g#4 v=64
160259 Off ch=2 n=c#4 v=64
160299 On ch=2 n=c#4 v=51
160299 On ch=2 n=g#4 v=51
160299 On ch=2 n=b4 v=51
160329 Par ch=2 c=7 v=58
160404 Par ch=2 c=7 v=59
160479 Par ch=2 c=7 v=60
160499 Off ch=2 n=b4 v=64
160499 Off ch=2 n=g#4 v=64
160499 Off ch=2 n=c#4 v=64
160539 On ch=2 n=c#4 v=52
160539 On ch=2 n=g#4 v=52
160539 On ch=2 n=b4 v=52
160554 Par ch=2 c=7 v=61
160629 Par ch=2 c=7 v=62
160704 Par ch=2 c=7 v=63
160739 Off ch=2 n=b4 v=64
160739 Off ch=2 n=g#4 v=64
160739 Off ch=2 n=c#4 v=64
160779 Par ch=2 c=7 v=64
160779 On ch=2 n=c#4 v=64
160779 On ch=2 n=g#4 v=64
160779 On ch=2 n=b4 v=64
160869 Par ch=2 c=7 v=65
160959 Par ch=2 c=7 v=66
160979 Off ch=2 n=b4 v=64
160979 Off ch=2 n=g#4 v=64
160979 Off ch=2 n=c#4 v=64
161019 On ch=2 n=b4 v=64
161019 On ch=2 n=g#4 v=64
161019 On ch=2 n=c#4 v=64
161049 Par ch=2 c=7 v=67
161139 Par ch=2 c=7 v=68
161229 Par ch=2 c=7 v=69
161319 Par ch=2 c=7 v=70
161339 Off ch=2 n=c#4 v=64
161339 Off ch=2 n=g#4 v=64
161339 Off ch=2 n=b4 v=64
161379 On ch=2 n=d3 v=64
161379 On ch=2 n=d4 v=64
161409 Par ch=2 c=7 v=71
161496 Off ch=2 n=d4 v=64
161496 Off ch=2 n=d3 v=64
161499 Par ch=2 c=7 v=72
161499 On ch=2 n=d3 v=72
161499 On ch=2 n=d4 v=72
161589 Par ch=2 c=7 v=73
161679 Par ch=2 c=7 v=74
161699 Off ch=2 n=d4 v=64
161699 Off ch=2 n=d3 v=64
161739 On ch=2 n=c#4 v=72
161739 On ch=2 n=c#3 v=72
161769 Par ch=2 c=7 v=75
161859 Par ch=2 c=7 v=76
161949 Par ch=2 c=7 v=77
162039 Par ch=2 c=7 v=78
162059 Off ch=2 n=c#3 v=64
162059 Off ch=2 n=c#4 v=64
162099 On ch=2 n=c3 v=72
162099 On ch=2 n=c4 v=72
162129 Par ch=2 c=7 v=79
162216 Off ch=2 n=c4 v=64
162216 Off ch=2 n=c3 v=64
162219 Par ch=2 c=7 v=80
162219 On ch=2 n=c3 v=80
162219 On ch=2 n=c4 v=80
162309 Par ch=2 c=7 v=81
162399 Par ch=2 c=7 v=82
162419 Off ch=2 n=c4 v=64
162419 Off ch=2 n=c3 v=64
162459 On ch=2 n=b3 v=80
162459 On ch=2 n=b2 v=80
162489 Par ch=2 c=7 v=83
162579 Par ch=2 c=7 v=84
162669 Par ch=2 c=7 v=85
162759 Par ch=2 c=7 v=86
162779 Off ch=2 n=b2 v=64
162779 Off ch=2 n=b3 v=64
162819 On ch=2 n=a#2 v=80
162819 On ch=2 n=a#3 v=80
162849 Par ch=2 c=7 v=87
162936 Off ch=2 n=a#3 v=64
162936 Off ch=2 n=a#2 v=64
162939 Par ch=2 c=7 v=88
162939 On ch=2 n=a#2 v=88
162939 On ch=2 n=a#3 v=88
163059 Par ch=2 c=7 v=89
163139 Off ch=2 n=a#3 v=64
163139 Off ch=2 n=a#2 v=64
163179 On ch=2 n=a3 v=88
163179 On ch=2 n=a2 v=88
163179 Par ch=2 c=7 v=90
163299 Par ch=2 c=7 v=91
163419 Par ch=2 c=7 v=92
163499 Off ch=2 n=a2 v=64
163499 Off ch=2 n=a3 v=64
163539 Par ch=2 c=7 v=93
163539 On ch=2 n=g#2 v=88
163539 On ch=2 n=g#3 v=88
163656 Off ch=2 n=g#3 v=64
163656 Off ch=2 n=g#2 v=64
163659 Par ch=2 c=7 v=94
163659 On ch=2 n=g#2 v=94
163659 On ch=2 n=g#3 v=94
163859 Off ch=2 n=g#3 v=64
163859 Off ch=2 n=g#2 v=64
163899 On ch=2 n=f#2 v=94
163899 On ch=2 n=f#3 v=94
164099 Off ch=2 n=f#3 v=64
164099 Off ch=2 n=f#2 v=64
164139 On ch=2 n=a#2 v=94
164139 On ch=2 n=a#3 v=94
164339 Off ch=2 n=a#3 v=64
164339 Off ch=2 n=a#2 v=64
164379 On ch=2 n=d#2 v=94
164379 On ch=2 n=d#3 v=94
164419 Par ch=2 c=7 v=95
164459 Par ch=2 c=7 v=96
164499 Par ch=2 c=7 v=97
164539 Par ch=2 c=7 v=98
164579 Off ch=2 n=d#3 v=64
164579 Off ch=2 n=d#2 v=64
164579 Par ch=2 c=7 v=99
164619 Par ch=2 c=7 v=100
164619 On ch=2 n=e2 v=95
164619 On ch=2 n=e3 v=95
164659 Par ch=2 c=7 v=101
164699 Par ch=2 c=7 v=102
164736 Off ch=2 n=e3 v=64
164736 Off ch=2 n=e2 v=64
164739 Par ch=2 c=7 v=103
164739 On ch=2 n=f2 v=96
164739 On ch=2 n=f3 v=96
164779 Par ch=2 c=7 v=104
164819 Par ch=2 c=7 v=105
164856 Off ch=2 n=f3 v=64
164856 Off ch=2 n=f2 v=64
164859 Par ch=2 c=7 v=106
164859 On ch=2 n=f#2 v=97
164859 On ch=2 n=f#3 v=97
164899 Par ch=2 c=7 v=107
164939 Par ch=2 c=7 v=108
164979 Par ch=2 c=7 v=109
165019 Par ch=2 c=7 v=110
165059 Off ch=2 n=f#3 v=64
165059 Off ch=2 n=f#2 v=64
165059 Par ch=2 c=7 v=111
165099 Par ch=2 c=7 v=112
165099 Par ch=2 c=7 v=94
165099 Par ch=2 c=64 v=127
165099 On ch=2 n=g#2 v=94
165099 On ch=2 n=g#3 v=94
165299 Off ch=2 n=g#3 v=64
165299 Off ch=2 n=g#2 v=64
165339 On ch=2 n=g#3 v=94
165339 On ch=2 n=d#4 v=94
165339 On ch=2 n=f4 v=94
165339 On ch=2 n=b4 v=94
165539 Off ch=2 n=b4 v=64
165539 Off ch=2 n=f4 v=64
165539 Off ch=2 n=d#4 v=64
165539 Off ch=2 n=g#3 v=64
165579 Par ch=2 c=64 v=0
165579 On ch=2 n=a#3 v=94
165579 On ch=2 n=f4 v=94
165579 On ch=2 n=g#4 v=94
165579 On ch=2 n=d5 v=94
165779 Off ch=2 n=d5 v=64
165779 Off ch=2 n=g#4 v=64
165779 Off ch=2 n=f4 v=64
165779 Off ch=2 n=a#3 v=64
165819 On ch=2 n=f#2 v=94
165819 On ch=2 n=f#3 v=94
165859 Par ch=2 c=7 v=95
165899 Par ch=2 c=7 v=96
165939 Par ch=2 c=7 v=97
165979 Par ch=2 c=7 v=98
166019 Off ch=2 n=f#3 v=64
166019 Off ch=2 n=f#2 v=64
166019 Par ch=2 c=7 v=99
166059 Par ch=2 c=7 v=100
166059 On ch=2 n=g2 v=95
166059 On ch=2 n=g3 v=95
166099 Par ch=2 c=7 v=101
166139 Par ch=2 c=7 v=102
166176 Off ch=2 n=g3 v=64
166176 Off ch=2 n=g2 v=64
166179 Par ch=2 c=7 v=103
166179 On ch=2 n=g#2 v=96
166179 On ch=2 n=g#3 v=96
166219 Par ch=2 c=7 v=104
166259 Par ch=2 c=7 v=105
166296 Off ch=2 n=g#3 v=64
166296 Off ch=2 n=g#2 v=64
166299 Par ch=2 c=7 v=106
166299 On ch=2 n=a2 v=97
166299 On ch=2 n=a3 v=97
166339 Par ch=2 c=7 v=107
166379 Par ch=2 c=7 v=108
166419 Par ch=2 c=7 v=109
166459 Par ch=2 c=7 v=110
166499 Off ch=2 n=a3 v=64
166499 Off ch=2 n=a2 v=64
166499 Par ch=2 c=7 v=111
166539 Par ch=2 c=7 v=112
166539 Par ch=2 c=7 v=94
166539 Par ch=2 c=64 v=127
166539 On ch=2 n=b2 v=94
166539 On ch=2 n=b3 v=94
166599 Off ch=2 n=b3 v=64
166599 Off ch=2 n=b2 v=64
166779 On ch=2 n=b3 v=94
166779 On ch=2 n=f#4 v=94
166779 On ch=2 n=g#4 v=94
166779 On ch=2 n=d5 v=94
166979 Off ch=2 n=d5 v=64
166979 Off ch=2 n=g#4 v=64
166979 Off ch=2 n=f#4 v=64
166979 Off ch=2 n=b3 v=64
167019 Par ch=2 c=64 v=0
167019 On ch=2 n=c#4 v=94
167019 On ch=2 n=g#4 v=94
167019 On ch=2 n=b4 v=94
167019 On ch=2 n=f5 v=94
167219 Off ch=2 n=f5 v=64
167219 Off ch=2 n=b4 v=64
167219 Off ch=2 n=g#4 v=64
167219 Off ch=2 n=c#4 v=64
167259 On ch=2 n=a2 v=94
167259 On ch=2 n=a3 v=94
167299 Par ch=2 c=7 v=95
167339 Par ch=2 c=7 v=96
167379 Par ch=2 c=7 v=97
167419 Par ch=2 c=7 v=98
167459 Off ch=2 n=a3 v=64
167459 Off ch=2 n=a2 v=64
167459 Par ch=2 c=7 v=99
167499 Par ch=2 c=7 v=100
167499 On ch=2 n=b2 v=95
167499 On ch=2 n=b3 v=95
167539 Par ch=2 c=7 v=101
167579 Par ch=2 c=7 v=102
167616 Off ch=2 n=b3 v=64
167616 Off ch=2 n=b2 v=64
167619 Par ch=2 c=7 v=103
167619 On ch=2 n=c3 v=96
167619 On ch=2 n=c4 v=96
167659 Par ch=2 c=7 v=104
167699 Par ch=2 c=7 v=105
167736 Off ch=2 n=c4 v=64
167736 Off ch=2 n=c3 v=64
167739 Par ch=2 c=7 v=106
167739 On ch=2 n=c#3 v=97
167739 On ch=2 n=c#4 v=97
167779 Par ch=2 c=7 v=107
167819 Par ch=2 c=7 v=108
167859 Par ch=2 c=7 v=109
167899 Par ch=2 c=7 v=110
167939 Off ch=2 n=c#4 v=64
167939 Off ch=2 n=c#3 v=64
167939 Par ch=2 c=7 v=111
167979 Par ch=2 c=7 v=112
167979 Par ch=2 c=7 v=94
167979 On ch=2 n=d3 v=94
167979 On ch=2 n=d4 v=94
168179 Off ch=2 n=d4 v=64
168179 Off ch=2 n=d3 v=64
168219 On ch=2 n=d#3 v=94
168219 On ch=2 n=d#4 v=94
168336 Off ch=2 n=d#4 v=64
168336 Off ch=2 n=d#3 v=64
168339 On ch=2 n=e3 v=94
168339 On ch=2 n=e4 v=94
168456 Off ch=2 n=e4 v=64
168456 Off ch=2 n=e3 v=64
168459 On ch=2 n=f3 v=94
168459 On ch=2 n=f4 v=94
168659 Off ch=2 n=f4 v=64
168659 Off ch=2 n=f3 v=64
168699 On ch=2 n=f#3 v=94
168699 On ch=2 n=f#4 v=94
168899 Off ch=2 n=f#4 v=64
168899 Off ch=2 n=f#3 v=64
168939 On ch=2 n=g#3 v=94
168939 On ch=2 n=g#4 v=94
169056 Off ch=2 n=g#4 v=64
169056 Off ch=2 n=g#3 v=64
169059 On ch=2 n=a3 v=94
169059 On ch=2 n=a4 v=94
169176 Off ch=2 n=a4 v=64
169176 Off ch=2 n=a3 v=64
169179 On ch=2 n=a#3 v=94
169179 On ch=2 n=a#4 v=94
169379 Off ch=2 n=a#4 v=64
169379 Off ch=2 n=a#3 v=64
169419 Par ch=2 c=64 v=127
169419 On ch=2 n=b3 v=94
169419 On ch=2 n=b4 v=94
169619 Off ch=2 n=b4 v=64
169619 Off ch=2 n=b3 v=64
169659 On ch=2 n=b2 v=94
169659 On ch=2 n=b3 v=94
169859 Off ch=2 n=b3 v=64
169859 Off ch=2 n=b2 v=64
169899 Par ch=2 c=64 v=0
169899 On ch=2 n=c3 v=94
169899 On ch=2 n=c4 v=94
170099 Off ch=2 n=c4 v=64
170099 Off ch=2 n=c3 v=64
170139 Par ch=2 c=64 v=127
170139 On ch=2 n=c#3 v=94
170139 On ch=2 n=c#4 v=94
170339 Off ch=2 n=c#4 v=64
170339 Off ch=2 n=c#3 v=64
170379 On ch=2 n=c#4 v=94
170379 On ch=2 n=a#4 v=94
170579 Off ch=2 n=a#4 v=64
170579 Off ch=2 n=c#4 v=64
170619 On ch=2 n=f#4 v=94
170619 On ch=2 n=c#5 v=94
170819 Off ch=2 n=c#5 v=64
170819 Off ch=2 n=f#4 v=64
170859 On ch=2 n=a#4 v=94
170859 On ch=2 n=f#5 v=94
171059 Off ch=2 n=f#5 v=64
171059 Off ch=2 n=a#4 v=64
171099 On ch=2 n=c#5 v=94
171099 On ch=2 n=a#5 v=94
171299 Off ch=2 n=a#5 v=64
171299 Off ch=2 n=c#5 v=64
171339 On ch=2 n=f#5 v=94
171339 On ch=2 n=c#6 v=94
171539 Off ch=2 n=c#6 v=64
171539 Off ch=2 n=f#5 v=64
171579 Par ch=2 c=64 v=0
171579 On ch=2 n=a#5 v=94
171579 On ch=2 n=f#6 v=94
171779 Off ch=2 n=f#6 v=64
171779 Off ch=2 n=a#5 v=64
171819 Par ch=2 c=64 v=127
171819 On ch=2 n=b5 v=94
171819 On ch=2 n=f6 v=94
172019 Off ch=2 n=f6 v=64
172019 Off ch=2 n=b5 v=64
172059 On ch=2 n=c#5 v=94
172059 On ch=2 n=f5 v=94
172059 On ch=2 n=b5 v=94
172259 Off ch=2 n=b5 v=64
172259 Off ch=2 n=f5 v=64
172259 Off ch=2 n=c#5 v=64
172299 Par ch=2 c=64 v=0
172299 On ch=2 n=c#5 v=94
172299 On ch=2 n=f5 v=94
172299 On ch=2 n=b5 v=94
172499 Off ch=2 n=b5 v=64
172499 Off ch=2 n=f5 v=64
172499 Off ch=2 n=c#5 v=64
172539 On ch=2 n=f#4 v=94
172539 On ch=2 n=c#5 v=94
172539 On ch=2 n=a#5 v=94
172739 Off ch=2 n=a#5 v=64
172739 Off ch=2 n=c#5 v=64
172739 Off ch=2 n=f#4 v=64
172779 Par ch=2 c=64 v=127
172779 On ch=2 n=c#4 v=94
172779 On ch=2 n=f4 v=94
172779 On ch=2 n=b4 v=94
172979 Off ch=2 n=b4 v=64
172979 Off ch=2 n=f4 v=64
172979 Off ch=2 n=c#4 v=64
173019 On ch=2 n=c#4 v=94
173019 On ch=2 n=f4 v=94
173019 On ch=2 n=b4 v=94
173219 Off ch=2 n=b4 v=64
173219 Off ch=2 n=f4 v=64
173259 Par ch=2 c=64 v=0
173259 On ch=2 n=f#3 v=94
173259 On ch=2 n=a#4 v=94
173459 Off ch=2 n=a#4 v=64
173459 Off ch=2 n=f#3 v=64
173459 Off ch=2 n=c#4 v=64
173499 Par ch=2 c=64 v=127
173499 On ch=2 n=c#4 v=94
173499 On ch=2 n=f4 v=94
173499 On ch=2 n=b4 v=94
173699 Off ch=2 n=b4 v=64
173699 Off ch=2 n=f4 v=64
173699 Off ch=2 n=c#4 v=64
173739 On ch=2 n=c#4 v=94
173739 On ch=2 n=f4 v=94
173739 On ch=2 n=b4 v=94
173939 Off ch=2 n=b4 v=64
173939 Off ch=2 n=f4 v=64
173979 Par ch=2 c=64 v=0
173979 On ch=2 n=f#3 v=94
173979 On ch=2 n=a#4 v=94
174179 Off ch=2 n=a#4 v=64
174179 Off ch=2 n=f#3 v=64
174179 Off ch=2 n=c#4 v=64
175179 Par ch=2 c=7 v=26
175341 Par ch=2 c=7 v=27
175505 Par ch=2 c=7 v=28
175669 Par ch=2 c=7 v=29
175832 Par ch=2 c=7 v=30
175899 On ch=2 n=g#3 v=27
175899 On ch=2 n=g#4 v=27
175996 Par ch=2 c=7 v=31
176139 Off ch=2 n=g#4 v=64
176139 Off ch=2 n=g#3 v=64
176139 On ch=2 n=f#4 v=28
176139 On ch=2 n=f#3 v=28
176160 Par ch=2 c=7 v=32
176324 Par ch=2 c=7 v=33
176379 Off ch=2 n=f#3 v=64
176379 Off ch=2 n=f#4 v=64
176379 On ch=2 n=d#3 v=29
176379 On ch=2 n=d#4 v=29
176487 Par ch=2 c=7 v=34
176619 Off ch=2 n=d#4 v=64
176619 Off ch=2 n=d#3 v=64
176619 On ch=2 n=f#3 v=30
176619 On ch=2 n=f#4 v=30
176651 Par ch=2 c=7 v=35
176815 Par ch=2 c=7 v=36
176859 Off ch=2 n=f#4 v=64
176859 Off ch=2 n=f#3 v=64
176859 On ch=2 n=f4 v=31
176859 On ch=2 n=f3 v=31
176977 Par ch=2 c=7 v=37
177099 Off ch=2 n=f3 v=64
177099 Off ch=2 n=f4 v=64
177099 On ch=2 n=c#3 v=32
177099 On ch=2 n=c#4 v=32
177141 Par ch=2 c=7 v=38
177305 Par ch=2 c=7 v=39
177339 Off ch=2 n=c#4 v=64
177339 Off ch=2 n=c#3 v=64
177339 On ch=2 n=d#3 v=33
177339 On ch=2 n=d#4 v=33
177469 Par ch=2 c=7 v=40
177579 Off ch=2 n=d#4 v=64
177579 Off ch=2 n=d#3 v=64
177579 On ch=2 n=c#4 v=34
177579 On ch=2 n=c#3 v=34
177632 Par ch=2 c=7 v=41
177796 Par ch=2 c=7 v=42
177819 Off ch=2 n=c#3 v=64
177819 Off ch=2 n=c#4 v=64
177819 On ch=2 n=a#2 v=35
177819 On ch=2 n=a#3 v=35
177957 Par ch=2 c=7 v=43
178056 Off ch=2 n=a#3 v=64
178056 Off ch=2 n=a#2 v=64
178056 On ch=2 n=b2 v=36
178056 On ch=2 n=b3 v=36
178121 Par ch=2 c=7 v=44
178284 Par ch=2 c=7 v=45
178296 Off ch=2 n=b3 v=64
178296 Off ch=2 n=b2 v=64
178296 On ch=2 n=a#3 v=37
178296 On ch=2 n=a#2 v=37
178448 Par ch=2 c=7 v=46
178536 Off ch=2 n=a#2 v=64
178536 Off ch=2 n=a#3 v=64
178536 On ch=2 n=f#2 v=38
178536 On ch=2 n=f#3 v=38
178612 Par ch=2 c=7 v=47
178736 Off ch=2 n=f#3 v=64
178736 Off ch=2 n=f#2 v=64
178774 Par ch=2 c=7 v=48
178776 Par ch=2 c=7 v=48
178776 On ch=2 n=d#2 v=48
178776 On ch=2 n=d#3 v=48
178976 Off ch=2 n=d#3 v=64
178976 Off ch=2 n=d#2 v=64
179016 On ch=2 n=e2 v=48
179016 On ch=2 n=d#3 v=48
179133 Off ch=2 n=d#3 v=64
179133 Off ch=2 n=e2 v=64
179136 On ch=2 n=f2 v=48
179136 On ch=2 n=f3 v=48
179253 Off ch=2 n=f3 v=64
179253 Off ch=2 n=f2 v=64
179256 On ch=2 n=f#2 v=48
179256 On ch=2 n=f#3 v=48
179456 Off ch=2 n=f#3 v=64
179456 Off ch=2 n=f#2 v=64
179496 On ch=2 n=g#2 v=48
179496 On ch=2 n=g#3 v=48
179696 Off ch=2 n=g#3 v=64
179696 Off ch=2 n=g#2 v=64
179736 On ch=2 n=g#3 v=48
179736 On ch=2 n=d#4 v=48
179736 On ch=2 n=f4 v=48
179736 On ch=2 n=b4 v=48
179936 Off ch=2 n=b4 v=64
179936 Off ch=2 n=f4 v=64
179936 Off ch=2 n=d#4 v=64
179936 Off ch=2 n=g#3 v=64
179976 On ch=2 n=a#3 v=48
179976 On ch=2 n=f4 v=48
179976 On ch=2 n=g#4 v=48
179976 On ch=2 n=d5 v=48
180176 Off ch=2 n=d5 v=64
180176 Off ch=2 n=g#4 v=64
180176 Off ch=2 n=f4 v=64
180176 Off ch=2 n=a#3 v=64
180216 On ch=2 n=f#2 v=48
180216 On ch=2 n=f#3 v=48
180416 Off ch=2 n=f#3 v=64
180416 Off ch=2 n=f#2 v=64
180456 On ch=2 n=g2 v=48
180456 On ch=2 n=g3 v=48
180573 Off ch=2 n=g3 v=64
180573 Off ch=2 n=g2 v=64
180576 On ch=2 n=g#2 v=48
180576 On ch=2 n=g#3 v=48
180693 Off ch=2 n=g#3 v=64
180693 Off ch=2 n=g#2 v=64
180696 On ch=2 n=a2 v=48
180696 On ch=2 n=a3 v=48
180896 Off ch=2 n=a3 v=64
180896 Off ch=2 n=a2 v=64
180936 On ch=2 n=b2 v=48
180936 On ch=2 n=b3 v=48
181136 Off ch=2 n=b3 v=64
181136 Off ch=2 n=b2 v=64
181176 On ch=2 n=b3 v=48
181176 On ch=2 n=f#4 v=48
181176 On ch=2 n=g#4 v=48
181176 On ch=2 n=d5 v=48
181376 Off ch=2 n=d5 v=64
181376 Off ch=2 n=g#4 v=64
181376 Off ch=2 n=f#4 v=64
181376 Off ch=2 n=b3 v=64
181416 On ch=2 n=c#4 v=48
181416 On ch=2 n=g#4 v=48
181416 On ch=2 n=b4 v=48
181416 On ch=2 n=f5 v=48
181616 Off ch=2 n=f5 v=64
181616 Off ch=2 n=b4 v=64
181616 Off ch=2 n=g#4 v=64
181616 Off ch=2 n=c#4 v=64
181656 On ch=2 n=a2 v=48
181656 On ch=2 n=a3 v=48
181856 Off ch=2 n=a3 v=64
181856 Off ch=2 n=a2 v=64
181896 On ch=2 n=b2 v=48
181896 On ch=2 n=b3 v=48
182013 Off ch=2 n=b3 v=64
182013 Off ch=2 n=b2 v=64
182016 On ch=2 n=c3 v=48
182016 On ch=2 n=c4 v=48
182133 Off ch=2 n=c4 v=64
182133 Off ch=2 n=c3 v=64
182136 On ch=2 n=c#3 v=48
182136 On ch=2 n=c#4 v=48
182336 Off ch=2 n=c#4 v=64
182336 Off ch=2 n=c#3 v=64
182376 On ch=2 n=d3 v=48
182376 On ch=2 n=d4 v=48
182427 Par ch=2 c=7 v=49
182478 Par ch=2 c=7 v=50
182529 Par ch=2 c=7 v=51
182576 Off ch=2 n=d4 v=64
182576 Off ch=2 n=d3 v=64
182581 Par ch=2 c=7 v=52
182616 On ch=2 n=d#3 v=49
182616 On ch=2 n=d#4 v=49
182632 Par ch=2 c=7 v=53
182683 Par ch=2 c=7 v=54
182733 Off ch=2 n=d#4 v=64
182733 Off ch=2 n=d#3 v=64
182734 Par ch=2 c=7 v=55
182736 On ch=2 n=e3 v=50
182736 On ch=2 n=e4 v=50
182787 Par ch=2 c=7 v=56
182838 Par ch=2 c=7 v=57
182853 Off ch=2 n=e4 v=64
182853 Off ch=2 n=e3 v=64
182856 On ch=2 n=f3 v=51
182856 On ch=2 n=f4 v=51
182889 Par ch=2 c=7 v=58
182941 Par ch=2 c=7 v=59
182992 Par ch=2 c=7 v=60
183043 Par ch=2 c=7 v=61
183053 Off ch=2 n=f4 v=64
183053 Off ch=2 n=f3 v=64
183091 Par ch=2 c=7 v=62
183093 Par ch=2 c=7 v=62
183093 On ch=2 n=f#3 v=62
183093 On ch=2 n=f#4 v=62
183144 Par ch=2 c=7 v=63
183195 Par ch=2 c=7 v=64
183246 Par ch=2 c=7 v=65
183293 Off ch=2 n=f#4 v=64
183293 Off ch=2 n=f#3 v=64
183298 Par ch=2 c=7 v=66
183333 On ch=2 n=g3 v=63
183333 On ch=2 n=g4 v=63
183349 Par ch=2 c=7 v=67
183400 Par ch=2 c=7 v=68
183450 Off ch=2 n=g4 v=64
183450 Off ch=2 n=g3 v=64
183451 Par ch=2 c=7 v=69
183453 On ch=2 n=g#3 v=64
183453 On ch=2 n=g#4 v=64
183504 Par ch=2 c=7 v=70
183555 Par ch=2 c=7 v=71
183570 Off ch=2 n=g#4 v=64
183570 Off ch=2 n=g#3 v=64
183573 On ch=2 n=a3 v=65
183573 On ch=2 n=a4 v=65
183606 Par ch=2 c=7 v=72
183658 Par ch=2 c=7 v=73
183709 Par ch=2 c=7 v=74
183760 Par ch=2 c=7 v=75
183770 Off ch=2 n=a4 v=64
183770 Off ch=2 n=a3 v=64
183808 Par ch=2 c=7 v=76
183810 Par ch=2 c=7 v=76
183810 On ch=2 n=c4 v=76
183810 On ch=2 n=f#4 v=76
183810 On ch=2 n=c5 v=76
184010 Off ch=2 n=c5 v=64
184010 Off ch=2 n=f#4 v=64
184010 Off ch=2 n=c4 v=64
184050 On ch=2 n=b3 v=76
184050 On ch=2 n=g4 v=76
184050 On ch=2 n=b4 v=76
184250 Off ch=2 n=b4 v=64
184250 Off ch=2 n=g4 v=64
184250 Off ch=2 n=b3 v=64
184290 On ch=2 n=d2 v=76
184290 On ch=2 n=d3 v=76
184490 Off ch=2 n=d3 v=64
184490 Off ch=2 n=d2 v=64
184530 Par ch=2 c=64 v=127
184530 On ch=2 n=c#2 v=76
184530 On ch=2 n=c#3 v=76
184570 Par ch=2 c=7 v=77
184610 Par ch=2 c=7 v=78
184650 Par ch=2 c=7 v=79
184690 Par ch=2 c=7 v=80
184730 Off ch=2 n=c#3 v=64
184730 Off ch=2 n=c#2 v=64
184730 Par ch=2 c=7 v=81
184770 Par ch=2 c=7 v=82
184770 On ch=2 n=c#4 v=77
184770 On ch=2 n=a4 v=77
184810 Par ch=2 c=7 v=83
184850 Par ch=2 c=7 v=84
184890 Par ch=2 c=7 v=85
184930 Par ch=2 c=7 v=86
184970 Off ch=2 n=a4 v=64
184970 Off ch=2 n=c#4 v=64
184970 Par ch=2 c=7 v=87
185010 Par ch=2 c=7 v=88
185010 On ch=2 n=f#4 v=78
185010 On ch=2 n=c#5 v=78
185050 Par ch=2 c=7 v=89
185090 Par ch=2 c=7 v=90
185130 Par ch=2 c=7 v=91
185170 Par ch=2 c=7 v=92
185210 Off ch=2 n=c#5 v=64
185210 Off ch=2 n=f#4 v=64
185210 Par ch=2 c=7 v=93
185250 Par ch=2 c=7 v=94
185250 On ch=2 n=a4 v=79
185250 On ch=2 n=f#5 v=79
185290 Par ch=2 c=7 v=95
185330 Par ch=2 c=7 v=96
185370 Par ch=2 c=7 v=97
185410 Par ch=2 c=7 v=98
185450 Off ch=2 n=f#5 v=64
185450 Off ch=2 n=a4 v=64
185450 Par ch=2 c=7 v=99
185490 Par ch=2 c=7 v=100
185490 On ch=2 n=c#5 v=80
185490 On ch=2 n=a5 v=80
185530 Par ch=2 c=7 v=101
185570 Par ch=2 c=7 v=102
185610 Par ch=2 c=7 v=103
185650 Par ch=2 c=7 v=104
185690 Off ch=2 n=a5 v=64
185690 Off ch=2 n=c#5 v=64
185690 Par ch=2 c=7 v=105
185730 Par ch=2 c=7 v=106
185730 On ch=2 n=f#5 v=81
185730 On ch=2 n=c#6 v=81
185770 Par ch=2 c=7 v=107
185810 Par ch=2 c=7 v=108
185850 Par ch=2 c=7 v=109
185890 Par ch=2 c=7 v=110
185930 Off ch=2 n=c#6 v=64
185930 Off ch=2 n=f#5 v=64
185930 Par ch=2 c=7 v=111
185970 Par ch=2 c=7 v=112
185970 Par ch=2 c=64 v=0
185970 On ch=2 n=a5 v=112
185970 On ch=2 n=f#6 v=112
186170 Off ch=2 n=f#6 v=64
186170 Off ch=2 n=a5 v=64
186210 On ch=2 n=b5 v=112
186210 On ch=2 n=f6 v=112
186410 Off ch=2 n=f6 v=64
186410 Off ch=2 n=b5 v=64
186450 Par ch=2 c=64 v=127
186450 On ch=2 n=c#5 v=112
186450 On ch=2 n=f5 v=112
186450 On ch=2 n=b5 v=112
186650 Off ch=2 n=b5 v=64
186650 Off ch=2 n=f5 v=64
186650 Off ch=2 n=c#5 v=64
186690 Par ch=2 c=64 v=0
186690 On ch=2 n=c#5 v=112
186690 On ch=2 n=f5 v=112
186690 On ch=2 n=b5 v=112
186730 Par ch=2 c=7 v=111
186770 Par ch=2 c=7 v=110
186810 Par ch=2 c=7 v=109
186850 Par ch=2 c=7 v=108
186890 Off ch=2 n=b5 v=64
186890 Off ch=2 n=f5 v=64
186890 Off ch=2 n=c#5 v=64
186890 Par ch=2 c=7 v=107
186930 Par ch=2 c=7 v=106
186930 On ch=2 n=f#4 v=111
186930 On ch=2 n=c#5 v=111
186930 On ch=2 n=a5 v=111
186970 Par ch=2 c=7 v=105
187010 Par ch=2 c=7 v=104
187050 Par ch=2 c=7 v=103
187090 Par ch=2 c=7 v=102
187130 Off ch=2 n=a5 v=64
187130 Off ch=2 n=c#5 v=64
187130 Off ch=2 n=f#4 v=64
187130 Par ch=2 c=7 v=101
187170 Par ch=2 c=7 v=100
187170 Par ch=2 c=64 v=127
187170 On ch=2 n=c#4 v=100
187170 On ch=2 n=f4 v=100
187170 On ch=2 n=b4 v=100
187370 Off ch=2 n=b4 v=64
187370 Off ch=2 n=f4 v=64
187370 Off ch=2 n=c#4 v=64
187410 On ch=2 n=c#4 v=100
187410 On ch=2 n=f4 v=100
187410 On ch=2 n=b4 v=100
187610 Off ch=2 n=b4 v=64
187610 Off ch=2 n=f4 v=64
187610 Off ch=2 n=c#4 v=64
187650 Par ch=2 c=64 v=0
187650 On ch=2 n=f#3 v=100
187650 On ch=2 n=c#4 v=100
187650 On ch=2 n=a4 v=100
187850 Off ch=2 n=a4 v=64
187850 Off ch=2 n=c#4 v=64
187850 Off ch=2 n=f#3 v=64
187890 Par ch=2 c=64 v=127
187890 On ch=2 n=c#4 v=100
187890 On ch=2 n=f4 v=100
187890 On ch=2 n=b4 v=100
188090 Off ch=2 n=b4 v=64
188090 Off ch=2 n=f4 v=64
188090 Off ch=2 n=c#4 v=64
188130 On ch=2 n=c#4 v=100
188130 On ch=2 n=f4 v=100
188130 On ch=2 n=b4 v=100
188330 Off ch=2 n=b4 v=64
188330 Off ch=2 n=f4 v=64
188330 Off ch=2 n=c#4 v=64
188370 On ch=2 n=f#3 v=100
188370 On ch=2 n=c#4 v=100
188370 On ch=2 n=a4 v=100
188570 Off ch=2 n=a4 v=64
188570 Off ch=2 n=c#4 v=64
188570 Off ch=2 n=f#3 v=64
188610 Par ch=2 c=64 v=0
188610 On ch=2 n=c#3 v=100
188610 On ch=2 n=c#4 v=100
188850 Par ch=2 c=7 v=112
189050 Off ch=2 n=c#4 v=64
189050 Off ch=2 n=c#3 v=64
189090 On ch=2 n=d3 v=112
189090 On ch=2 n=d4 v=112
189207 Off ch=2 n=d4 v=64
189207 Off ch=2 n=d3 v=64
189210 On ch=2 n=c#3 v=112
189210 On ch=2 n=c#4 v=112
189327 Off ch=2 n=c#4 v=64
189327 Off ch=2 n=c#3 v=64
189330 On ch=2 n=g#2 v=112
189330 On ch=2 n=g#3 v=112
189447 Off ch=2 n=g#3 v=64
189447 Off ch=2 n=g#2 v=64
189450 On ch=2 n=a2 v=112
189450 On ch=2 n=a3 v=112
189567 Off ch=2 n=a3 v=64
189567 Off ch=2 n=a2 v=64
189570 On ch=2 n=f#3 v=112
189570 On ch=2 n=f#2 v=112
190230 Off ch=2 n=f#2 v=64
190230 Off ch=2 n=f#3 v=64
190290 Par ch=2 c=7 v=120
190290 Par ch=2 c=64 v=127
190290 On ch=2 n=d2 v=127
190290 On ch=2 n=d3 v=127
190490 Off ch=2 n=d3 v=64
190490 Off ch=2 n=d2 v=64
190530 Par ch=2 c=64 v=0
190530 Par ch=2 c=7 v=94
190530 On ch=2 n=f#4 v=94
190530 On ch=2 n=a4 v=94
190647 Off ch=2 n=a4 v=64
190647 Off ch=2 n=f#4 v=64
190650 On ch=2 n=f#4 v=95
190650 On ch=2 n=a4 v=95
190676 Par ch=2 c=7 v=95
190767 Off ch=2 n=a4 v=64
190767 Off ch=2 n=f#4 v=64
190770 On ch=2 n=f4 v=96
190770 On ch=2 n=g#4 v=96
190822 Par ch=2 c=7 v=96
190887 Off ch=2 n=g#4 v=64
190887 Off ch=2 n=f4 v=64
190890 On ch=2 n=f#4 v=97
190890 On ch=2 n=a4 v=97
190970 Par ch=2 c=7 v=97
191007 Off ch=2 n=a4 v=64
191007 Off ch=2 n=f#4 v=64
191010 On ch=2 n=g4 v=98
191116 Par ch=2 c=7 v=98
191127 Off ch=2 n=g4 v=64
191130 On ch=2 n=g#4 v=99
191247 Off ch=2 n=g#4 v=64
191250 On ch=2 n=a4 v=100
191262 Par ch=2 c=7 v=99
191367 Off ch=2 n=a4 v=64
191370 On ch=2 n=a#4 v=101
191410 Par ch=2 c=7 v=100
191487 Off ch=2 n=a#4 v=64
191490 On ch=2 n=b4 v=102
191556 Par ch=2 c=7 v=101
191607 Off ch=2 n=b4 v=64
191610 On ch=2 n=c5 v=103
191702 Par ch=2 c=7 v=102
191727 Off ch=2 n=c5 v=64
191730 On ch=2 n=c#5 v=104
191847 Off ch=2 n=c#5 v=64
191850 Par ch=2 c=7 v=103
191850 On ch=2 n=d5 v=105
191967 Off ch=2 n=d5 v=64
191970 On ch=2 n=d#5 v=106
191996 Par ch=2 c=7 v=104
192087 Off ch=2 n=d#5 v=64
192090 On ch=2 n=e5 v=107
192142 Par ch=2 c=7 v=105
192207 Off ch=2 n=e5 v=64
192210 On ch=2 n=f5 v=108
192290 Par ch=2 c=7 v=106
192327 Off ch=2 n=f5 v=64
192330 On ch=2 n=f#5 v=109
192436 Par ch=2 c=7 v=107
192447 Off ch=2 n=f#5 v=64
192450 On ch=2 n=f#5 v=110
192582 Par ch=2 c=7 v=108
192650 Off ch=2 n=f#5 v=64
192690 On ch=2 n=g5 v=111
192730 Par ch=2 c=7 v=109
192876 Par ch=2 c=7 v=110
192890 Off ch=2 n=g5 v=64
192930 Par ch=2 c=64 v=127
192930 On ch=2 n=g4 v=112
192930 On ch=2 n=a#4 v=112
192930 On ch=2 n=d#5 v=112
192930 On ch=2 n=g5 v=112
192990 Off ch=2 n=g5 v=64
192990 Off ch=2 n=d#5 v=64
192990 Off ch=2 n=a#4 v=64
192990 Off ch=2 n=g4 v=64
193022 Par ch=2 c=7 v=111
193170 Par ch=2 c=7 v=112
193170 On ch=2 n=d#3 v=112
193170 On ch=2 n=d#4 v=112
193230 Off ch=2 n=d#4 v=64
193230 Off ch=2 n=d#3 v=64
193410 Par ch=2 c=64 v=0
193410 Par ch=2 c=7 v=90
193410 On ch=2 n=g4 v=90
193527 Off ch=2 n=g4 v=64
193530 On ch=2 n=g4 v=90
193647 Off ch=2 n=g4 v=64
193650 On ch=2 n=f#4 v=90
193767 Off ch=2 n=f#4 v=64
193770 On ch=2 n=g4 v=90
193887 Off ch=2 n=g4 v=64
193890 On ch=2 n=g#4 v=90
193987 Par ch=2 c=7 v=91
194007 Off ch=2 n=g#4 v=64
194010 On ch=2 n=a4 v=91
194086 Par ch=2 c=7 v=92
194127 Off ch=2 n=a4 v=64
194130 On ch=2 n=a#4 v=92
194183 Par ch=2 c=7 v=93
194247 Off ch=2 n=a#4 v=64
194250 On ch=2 n=b4 v=93
194282 Par ch=2 c=7 v=94
194367 Off ch=2 n=b4 v=64
194370 On ch=2 n=c5 v=94
194380 Par ch=2 c=7 v=95
194478 Par ch=2 c=7 v=96
194487 Off ch=2 n=c5 v=64
194490 On ch=2 n=c#5 v=95
194576 Par ch=2 c=7 v=97
194607 Off ch=2 n=c#5 v=64
194610 On ch=2 n=d5 v=96
194675 Par ch=2 c=7 v=98
194727 Off ch=2 n=d5 v=64
194730 On ch=2 n=d#5 v=97
194772 Par ch=2 c=7 v=99
194847 Off ch=2 n=d#5 v=64
194850 On ch=2 n=e5 v=98
194871 Par ch=2 c=7 v=100
194967 Off ch=2 n=e5 v=64
194970 Par ch=2 c=7 v=101
194970 On ch=2 n=f5 v=99
195067 Par ch=2 c=7 v=102
195087 Off ch=2 n=f5 v=64
195090 On ch=2 n=f#5 v=100
195166 Par ch=2 c=7 v=103
195207 Off ch=2 n=f#5 v=64
195210 On ch=2 n=g5 v=101
195263 Par ch=2 c=7 v=104
195327 Off ch=2 n=g5 v=64
195330 On ch=2 n=g5 v=102
195362 Par ch=2 c=7 v=105
195460 Par ch=2 c=7 v=106
195530 Off ch=2 n=g5 v=64
195558 Par ch=2 c=7 v=107
195570 On ch=2 n=g#5 v=103
195656 Par ch=2 c=7 v=108
195755 Par ch=2 c=7 v=109
195770 Off ch=2 n=g#5 v=64
195810 Par ch=2 c=64 v=127
195810 On ch=2 n=g#4 v=104
195810 On ch=2 n=b4 v=104
195810 On ch=2 n=e5 v=104
195810 On ch=2 n=g#5 v=104
195852 Par ch=2 c=7 v=110
195951 Par ch=2 c=7 v=111
196010 Off ch=2 n=g#5 v=64
196010 Off ch=2 n=e5 v=64
196010 Off ch=2 n=b4 v=64
196010 Off ch=2 n=g#4 v=64
196050 Par ch=2 c=7 v=112
196050 On ch=2 n=e3 v=112
196050 On ch=2 n=e4 v=112
196110 Off ch=2 n=e4 v=64
196110 Off ch=2 n=e3 v=64
196290 Par ch=2 c=64 v=0
196290 Par ch=2 c=7 v=88
196290 On ch=2 n=g#4 v=88
196290 On ch=2 n=b4 v=88
196410 Off ch=2 n=b4 v=64
196410 Off ch=2 n=g#4 v=64
196410 On ch=2 n=b4 v=88
196410 On ch=2 n=g#4 v=88
196530 Off ch=2 n=g#4 v=64
196530 Off ch=2 n=b4 v=64
196530 On ch=2 n=g4 v=88
196530 On ch=2 n=a#4 v=88
196650 Off ch=2 n=a#4 v=64
196650 Off ch=2 n=g4 v=64
196650 On ch=2 n=g#4 v=88
196650 On ch=2 n=b4 v=88
196767 Off ch=2 n=b4 v=64
196767 Off ch=2 n=g#4 v=64
196770 On ch=2 n=a4 v=88
196770 On ch=2 n=c5 v=88
196887 Off ch=2 n=c5 v=64
196887 Off ch=2 n=a4 v=64
196890 On ch=2 n=a#4 v=88
196890 On ch=2 n=c#5 v=88
197007 Off ch=2 n=c#5 v=64
197007 Off ch=2 n=a#4 v=64
197010 On ch=2 n=b4 v=88
197010 On ch=2 n=d5 v=88
197127 Off ch=2 n=d5 v=64
197127 Off ch=2 n=b4 v=64
197130 On ch=2 n=b4 v=88
197130 On ch=2 n=d5 v=88
197247 Off ch=2 n=d5 v=64
197247 Off ch=2 n=b4 v=64
197250 On ch=2 n=b4 v=88
197250 On ch=2 n=d5 v=88
197367 Off ch=2 n=d5 v=64
197367 Off ch=2 n=b4 v=64
197370 On ch=2 n=b4 v=88
197370 On ch=2 n=d5 v=88
197487 Off ch=2 n=d5 v=64
197487 Off ch=2 n=b4 v=64
197490 On ch=2 n=b4 v=88
197490 On ch=2 n=d5 v=88
197610 Off ch=2 n=d5 v=64
197610 Off ch=2 n=b4 v=64
197610 On ch=2 n=a#4 v=88
197610 On ch=2 n=c#5 v=88
197727 Off ch=2 n=c#5 v=64
197727 Off ch=2 n=a#4 v=64
197730 On ch=2 n=a#4 v=88
197730 On ch=2 n=c#5 v=88
197770 Off ch=2 n=c#5 v=64
197770 Off ch=2 n=a#4 v=64
197850 On ch=2 n=c#5 v=88
197850 On ch=2 n=a#4 v=88
197970 Off ch=2 n=a#4 v=64
197970 Off ch=2 n=c#5 v=64
197970 On ch=2 n=a4 v=88
197970 On ch=2 n=c5 v=88
198087 Off ch=2 n=c5 v=64
198087 Off ch=2 n=a4 v=64
198090 On ch=2 n=a#4 v=88
198090 On ch=2 n=c#5 v=88
198130 Off ch=2 n=c#5 v=64
198130 Off ch=2 n=a#4 v=64
198210 On ch=2 n=b4 v=88
198210 On ch=2 n=d5 v=88
198330 Off ch=2 n=d5 v=64
198330 Off ch=2 n=b4 v=64
198330 On ch=2 n=c5 v=88
198330 On ch=2 n=d#5 v=88
198447 Off ch=2 n=d#5 v=64
198447 Off ch=2 n=c5 v=64
198450 On ch=2 n=c#5 v=88
198450 On ch=2 n=e5 v=88
198490 Off ch=2 n=e5 v=64
198490 Off ch=2 n=c#5 v=64
198570 On ch=2 n=c#5 v=88
198570 On ch=2 n=e5 v=88
198610 Off ch=2 n=e5 v=64
198610 Off ch=2 n=c#5 v=64
198690 On ch=2 n=c#5 v=88
198690 On ch=2 n=e5 v=88
198730 Off ch=2 n=e5 v=64
198730 Off ch=2 n=c#5 v=64
198810 On ch=2 n=c#5 v=88
198810 On ch=2 n=e5 v=88
198850 Off ch=2 n=e5 v=64
198850 Off ch=2 n=c#5 v=64
198930 On ch=2 n=c#5 v=88
198930 On ch=2 n=e5 v=88
199050 Off ch=2 n=e5 v=64
199050 Off ch=2 n=c#5 v=64
199050 On ch=2 n=c5 v=88
199050 On ch=2 n=d#5 v=88
199167 Off ch=2 n=d#5 v=64
199167 Off ch=2 n=c5 v=64
199170 On ch=2 n=c5 v=88
199170 On ch=2 n=d#5 v=88
199210 Off ch=2 n=d#5 v=64
199210 Off ch=2 n=c5 v=64
199290 On ch=2 n=c5 v=88
199290 On ch=2 n=d#5 v=88
199330 Off ch=2 n=d#5 v=64
199330 Off ch=2 n=c5 v=64
199410 On ch=2 n=b4 v=88
199410 On ch=2 n=d5 v=88
199450 Off ch=2 n=d5 v=64
199450 Off ch=2 n=b4 v=64
199530 On ch=2 n=c5 v=88
199530 On ch=2 n=d#5 v=88
199570 Off ch=2 n=d#5 v=64
199570 Off ch=2 n=c5 v=64
199650 Par ch=2 c=7 v=96
199650 Par ch=2 c=64 v=127
199650 On ch=2 n=b4 v=96
199650 On ch=2 n=c#5 v=96
199650 On ch=2 n=f5 v=96
199850 Off ch=2 n=f5 v=64
199850 Off ch=2 n=c#5 v=64
199850 Off ch=2 n=b4 v=64
199890 On ch=2 n=c#3 v=96
199890 On ch=2 n=c#4 v=96
200090 Off ch=2 n=c#4 v=64
200090 Off ch=2 n=c#3 v=64
200130 On ch=2 n=b4 v=96
200130 On ch=2 n=c#5 v=96
200130 On ch=2 n=f5 v=96
200330 Off ch=2 n=f5 v=64
200330 Off ch=2 n=c#5 v=64
200330 Off ch=2 n=b4 v=64
200370 Par ch=2 c=64 v=0
200370 Par ch=2 c=64 v=127
200370 On ch=2 n=f#4 v=96
200370 On ch=2 n=b4 v=96
200370 On ch=2 n=c#5 v=96
200370 On ch=2 n=e5 v=96
200570 Off ch=2 n=e5 v=64
200570 Off ch=2 n=c#5 v=64
200570 Off ch=2 n=b4 v=64
200570 Off ch=2 n=f#4 v=64
200610 On ch=2 n=f#2 v=96
200610 On ch=2 n=f#3 v=96
200810 Off ch=2 n=f#3 v=64
200810 Off ch=2 n=f#2 v=64
200850 Par ch=2 c=64 v=0
200850 On ch=2 n=f#4 v=96
200850 On ch=2 n=a#4 v=96
200850 On ch=2 n=c#5 v=96
200850 On ch=2 n=e5 v=96
201050 Off ch=2 n=e5 v=64
201050 Off ch=2 n=c#5 v=64
201050 Off ch=2 n=a#4 v=64
201050 Off ch=2 n=f#4 v=64
201090 Par ch=2 c=64 v=127
201090 On ch=2 n=a4 v=96
201090 On ch=2 n=b4 v=96
201090 On ch=2 n=d#5 v=96
201290 Off ch=2 n=d#5 v=64
201290 Off ch=2 n=b4 v=64
201290 Off ch=2 n=a4 v=64
201330 On ch=2 n=b2 v=96
201330 On ch=2 n=b3 v=96
201530 Off ch=2 n=b3 v=64
201530 Off ch=2 n=b2 v=64
201570 On ch=2 n=a4 v=96
201570 On ch=2 n=b4 v=96
201570 On ch=2 n=d#5 v=96
201770 Off ch=2 n=d#5 v=64
201770 Off ch=2 n=b4 v=64
201770 Off ch=2 n=a4 v=64
201810 Par ch=2 c=64 v=0
201810 Par ch=2 c=64 v=127
201810 On ch=2 n=e4 v=96
201810 On ch=2 n=a4 v=96
201810 On ch=2 n=b4 v=96
201810 On ch=2 n=d5 v=96
202010 Off ch=2 n=d5 v=64
202010 Off ch=2 n=b4 v=64
202010 Off ch=2 n=a4 v=64
202010 Off ch=2 n=e4 v=64
202050 On ch=2 n=e2 v=96
202050 On ch=2 n=e3 v=96
202250 Off ch=2 n=e3 v=64
202250 Off ch=2 n=e2 v=64
202290 Par ch=2 c=64 v=0
202290 On ch=2 n=e4 v=96
202290 On ch=2 n=g#4 v=96
202290 On ch=2 n=d5 v=96
202490 Off ch=2 n=d5 v=64
202490 Off ch=2 n=g#4 v=64
202490 Off ch=2 n=e4 v=64
202530 Par ch=2 c=64 v=127
202530 On ch=2 n=g4 v=96
202530 On ch=2 n=a4 v=96
202530 On ch=2 n=c#5 v=96
202730 Off ch=2 n=c#5 v=64
202730 Off ch=2 n=a4 v=64
202730 Off ch=2 n=g4 v=64
202770 On ch=2 n=a2 v=96
202770 On ch=2 n=a3 v=96
202970 Off ch=2 n=a3 v=64
202970 Off ch=2 n=a2 v=64
203010 On ch=2 n=g4 v=96
203010 On ch=2 n=a4 v=96
203010 On ch=2 n=c#5 v=96
203210 Off ch=2 n=c#5 v=64
203210 Off ch=2 n=a4 v=64
203210 Off ch=2 n=g4 v=64
203250 Par ch=2 c=64 v=0
203250 Par ch=2 c=64 v=127
203250 On ch=2 n=f#4 v=96
203250 On ch=2 n=c5 v=96
203290 Par ch=2 c=7 v=97
203330 Par ch=2 c=7 v=98
203370 Par ch=2 c=7 v=99
203410 Par ch=2 c=7 v=100
203450 Off ch=2 n=c5 v=64
203450 Off ch=2 n=f#4 v=64
203450 Par ch=2 c=7 v=101
203490 Par ch=2 c=7 v=102
203490 On ch=2 n=a4 v=97
203490 On ch=2 n=c5 v=97
203530 Par ch=2 c=7 v=103
203570 Par ch=2 c=7 v=104
203610 Par ch=2 c=7 v=105
203650 Par ch=2 c=7 v=106
203690 Off ch=2 n=c5 v=64
203690 Off ch=2 n=a4 v=64
203690 Par ch=2 c=7 v=107
203730 Par ch=2 c=7 v=108
203730 On ch=2 n=a5 v=98
203730 On ch=2 n=c6 v=98
203770 Par ch=2 c=7 v=109
203810 Par ch=2 c=7 v=110
203850 Par ch=2 c=7 v=111
203890 Par ch=2 c=7 v=112
203930 Off ch=2 n=c6 v=64
203930 Off ch=2 n=a5 v=64
203930 Par ch=2 c=7 v=113
203970 Par ch=2 c=7 v=114
203970 On ch=2 n=a6 v=114
203970 On ch=2 n=c7 v=114
204170 Off ch=2 n=c7 v=64
204170 Off ch=2 n=a6 v=64
204210 Par ch=2 c=64 v=0
204210 On ch=2 n=c4 v=114
204210 On ch=2 n=c5 v=114
204410 Off ch=2 n=c5 v=64
204410 Off ch=2 n=c4 v=64
204450 On ch=2 n=c2 v=114
204450 On ch=2 n=c3 v=114
204650 Off ch=2 n=c3 v=64
204650 Off ch=2 n=c2 v=64
204690 On ch=2 n=c#2 v=114
204690 On ch=2 n=c#3 v=114
204705 Par ch=2 c=7 v=113
204721 Par ch=2 c=7 v=112
204737 Par ch=2 c=7 v=111
204753 Par ch=2 c=7 v=110
204770 Par ch=2 c=7 v=109
204785 Par ch=2 c=7 v=108
204801 Par ch=2 c=7 v=107
204817 Par ch=2 c=7 v=106
204833 Par ch=2 c=7 v=105
204850 Par ch=2 c=7 v=104
204865 Par ch=2 c=7 v=103
204881 Par ch=2 c=7 v=102
204890 Off ch=2 n=c#3 v=64
204890 Off ch=2 n=c#2 v=64
204897 Par ch=2 c=7 v=101
204913 Par ch=2 c=7 v=100
204930 Par ch=2 c=7 v=99
204930 On ch=2 n=c#3 v=112
204930 On ch=2 n=c#4 v=112
204945 Par ch=2 c=7 v=98
204961 Par ch=2 c=7 v=97
204977 Par ch=2 c=7 v=96
204993 Par ch=2 c=7 v=95
205010 Par ch=2 c=7 v=94
205025 Par ch=2 c=7 v=93
205041 Par ch=2 c=7 v=92
205057 Par ch=2 c=7 v=91
205073 Par ch=2 c=7 v=90
205090 Par ch=2 c=7 v=89
205105 Par ch=2 c=7 v=88
205121 Par ch=2 c=7 v=87
205130 Off ch=2 n=c#4 v=64
205130 Off ch=2 n=c#3 v=64
205137 Par ch=2 c=7 v=86
205153 Par ch=2 c=7 v=85
205170 Par ch=2 c=7 v=84
205170 On ch=2 n=d#2 v=110
205170 On ch=2 n=d#3 v=110
205185 Par ch=2 c=7 v=83
205201 Par ch=2 c=7 v=82
205217 Par ch=2 c=7 v=81
205233 Par ch=2 c=7 v=80
205250 Par ch=2 c=7 v=79
205265 Par ch=2 c=7 v=78
205281 Par ch=2 c=7 v=77
205297 Par ch=2 c=7 v=76
205313 Par ch=2 c=7 v=75
205330 Par ch=2 c=7 v=74
205345 Par ch=2 c=7 v=73
205361 Par ch=2 c=7 v=72
205370 Off ch=2 n=d#3 v=64
205370 Off ch=2 n=d#2 v=64
205377 Par ch=2 c=7 v=71
205393 Par ch=2 c=7 v=70
205410 Par ch=2 c=7 v=69
205410 On ch=2 n=f2 v=108
205410 On ch=2 n=f3 v=108
205425 Par ch=2 c=7 v=68
205441 Par ch=2 c=7 v=67
205457 Par ch=2 c=7 v=66
205473 Par ch=2 c=7 v=65
205490 Par ch=2 c=7 v=64
205505 Par ch=2 c=7 v=63
205521 Par ch=2 c=7 v=62
205537 Par ch=2 c=7 v=61
205553 Par ch=2 c=7 v=60
205570 Par ch=2 c=7 v=59
205585 Par ch=2 c=7 v=58
205601 Par ch=2 c=7 v=57
205610 Off ch=2 n=f3 v=64
205610 Off ch=2 n=f2 v=64
205617 Par ch=2 c=7 v=56
205633 Par ch=2 c=7 v=55
205650 Par ch=2 c=7 v=54
205650 On ch=2 n=f3 v=106
205650 On ch=2 n=f4 v=106
205665 Par ch=2 c=7 v=53
205681 Par ch=2 c=7 v=52
205697 Par ch=2 c=7 v=51
205713 Par ch=2 c=7 v=50
205730 Par ch=2 c=7 v=49
205745 Par ch=2 c=7 v=48
205761 Par ch=2 c=7 v=47
205777 Par ch=2 c=7 v=46
205793 Par ch=2 c=7 v=45
205810 Par ch=2 c=7 v=44
205825 Par ch=2 c=7 v=43
205841 Par ch=2 c=7 v=42
205850 Off ch=2 n=f4 v=64
205850 Off ch=2 n=f3 v=64
205857 Par ch=2 c=7 v=41
205873 Par ch=2 c=7 v=40
205890 Par ch=2 c=7 v=39
205890 On ch=2 n=f2 v=104
205890 On ch=2 n=f3 v=104
205905 Par ch=2 c=7 v=38
205921 Par ch=2 c=7 v=37
205937 Par ch=2 c=7 v=36
205953 Par ch=2 c=7 v=35
205970 Par ch=2 c=7 v=34
205985 Par ch=2 c=7 v=33
206001 Par ch=2 c=7 v=32
206017 Par ch=2 c=7 v=31
206033 Par ch=2 c=7 v=30
206050 Par ch=2 c=7 v=29
206065 Par ch=2 c=7 v=28
206081 Par ch=2 c=7 v=27
206090 Off ch=2 n=f3 v=64
206090 Off ch=2 n=f2 v=64
206097 Par ch=2 c=7 v=26
206113 Par ch=2 c=7 v=25
206130 Par ch=2 c=7 v=24
206130 On ch=2 n=a#2 v=24
206130 On ch=2 n=a#3 v=24
206190 Par ch=2 c=7 v=25
206250 Par ch=2 c=7 v=26
206310 Par ch=2 c=7 v=27
206330 Off ch=2 n=a#3 v=64
206330 Off ch=2 n=a#2 v=64
206370 Par ch=2 c=7 v=28
206370 On ch=2 n=c#3 v=25
206370 On ch=2 n=c#4 v=25
206430 Par ch=2 c=7 v=29
206490 Par ch=2 c=7 v=30
206550 Par ch=2 c=7 v=31
206570 Off ch=2 n=c#4 v=64
206570 Off ch=2 n=c#3 v=64
206610 Par ch=2 c=7 v=32
206610 On ch=2 n=d#3 v=26
206610 On ch=2 n=f#4 v=26
206670 Par ch=2 c=7 v=33
206730 Par ch=2 c=7 v=34
206790 Par ch=2 c=7 v=35
206810 Off ch=2 n=f#4 v=64
206810 Off ch=2 n=d#3 v=64
206850 Par ch=2 c=7 v=36
206850 On ch=2 n=f3 v=27
206910 Par ch=2 c=7 v=37
206970 Par ch=2 c=7 v=38
207030 Par ch=2 c=7 v=39
207050 Off ch=2 n=f3 v=64
207090 Par ch=2 c=7 v=40
207150 Par ch=2 c=7 v=41
207210 Par ch=2 c=7 v=42
207270 Par ch=2 c=7 v=43
207330 Par ch=2 c=7 v=44
207330 On ch=2 n=f2 v=29
207330 On ch=2 n=f3 v=29
207390 Par ch=2 c=7 v=45
207450 Par ch=2 c=7 v=46
207510 Par ch=2 c=7 v=47
207530 Off ch=2 n=f3 v=64
207530 Off ch=2 n=f2 v=64
207570 Par ch=2 c=7 v=48
207570 On ch=2 n=a#2 v=48
207570 On ch=2 n=a#3 v=48
207770 Off ch=2 n=a#3 v=64
207770 Off ch=2 n=a#2 v=64
207810 On ch=2 n=g#3 v=48
207810 On ch=2 n=g#4 v=48
208010 Off ch=2 n=g#4 v=64
208010 Off ch=2 n=g#3 v=64
208050 On ch=2 n=f3 v=48
208050 On ch=2 n=f4 v=48
208250 Off ch=2 n=f4 v=64
208250 Off ch=2 n=f3 v=64
208290 On ch=2 n=f#3 v=48
208290 On ch=2 n=f#4 v=48
208490 Off ch=2 n=f#4 v=64
208490 Off ch=2 n=f#3 v=64
208530 On ch=2 n=f3 v=48
208530 On ch=2 n=f4 v=48
208730 Off ch=2 n=f4 v=64
208730 Off ch=2 n=f3 v=64
208770 On ch=2 n=c#3 v=48
208770 On ch=2 n=c#4 v=48
208970 Off ch=2 n=c#4 v=64
208970 Off ch=2 n=c#3 v=64
209010 On ch=2 n=d#3 v=48
209010 On ch=2 n=d#4 v=48
209210 Off ch=2 n=d#4 v=64
209210 Off ch=2 n=d#3 v=64
209250 On ch=2 n=c#3 v=48
209250 On ch=2 n=c#4 v=48
209450 Off ch=2 n=c#4 v=64
209450 Off ch=2 n=c#3 v=64
209490 On ch=2 n=a#2 v=48
209490 On ch=2 n=a#3 v=48
209690 Off ch=2 n=a#3 v=64
209690 Off ch=2 n=a#2 v=64
209730 On ch=2 n=b2 v=48
209730 On ch=2 n=b3 v=48
209930 Off ch=2 n=b3 v=64
209930 Off ch=2 n=b2 v=64
209970 On ch=2 n=a#2 v=48
209970 On ch=2 n=a#3 v=48
210170 Off ch=2 n=a#3 v=64
210170 Off ch=2 n=a#2 v=64
210210 On ch=2 n=f#2 v=48
210210 On ch=2 n=f#3 v=48
210290 Par ch=2 c=7 v=49
210370 Par ch=2 c=7 v=50
210410 Off ch=2 n=f#3 v=64
210410 Off ch=2 n=f#2 v=64
210450 Par ch=2 c=7 v=51
210450 On ch=2 n=d#2 v=48
210450 On ch=2 n=d#3 v=48
210530 Par ch=2 c=7 v=52
210610 Par ch=2 c=7 v=53
210650 Off ch=2 n=d#3 v=64
210650 Off ch=2 n=d#2 v=64
210690 Par ch=2 c=7 v=54
210690 On ch=2 n=e2 v=48
210690 On ch=2 n=e3 v=48
210770 Par ch=2 c=7 v=55
210807 Off ch=2 n=e3 v=64
210807 Off ch=2 n=e2 v=64
210810 On ch=2 n=f2 v=48
210810 On ch=2 n=f3 v=48
210850 Par ch=2 c=7 v=56
210927 Off ch=2 n=f3 v=64
210927 Off ch=2 n=f2 v=64
210930 Par ch=2 c=7 v=57
210930 On ch=2 n=f#2 v=48
210930 On ch=2 n=f#3 v=48
211010 Par ch=2 c=7 v=58
211090 Par ch=2 c=7 v=59
211130 Off ch=2 n=f#3 v=64
211130 Off ch=2 n=f#2 v=64
211170 Par ch=2 c=7 v=60
211170 On ch=2 n=g#2 v=60
211170 On ch=2 n=g#3 v=60
211370 Off ch=2 n=g#3 v=64
211370 Off ch=2 n=g#2 v=64
211410 On ch=2 n=g#3 v=60
211410 On ch=2 n=d#4 v=60
211410 On ch=2 n=f4 v=60
211410 On ch=2 n=b4 v=60
211610 Off ch=2 n=b4 v=64
211610 Off ch=2 n=f4 v=64
211610 Off ch=2 n=d#4 v=64
211610 Off ch=2 n=g#3 v=64
211650 On ch=2 n=a#3 v=60
211650 On ch=2 n=f4 v=60
211650 On ch=2 n=g#4 v=60
211650 On ch=2 n=d5 v=60
211850 Off ch=2 n=d5 v=64
211850 Off ch=2 n=g#4 v=64
211850 Off ch=2 n=f4 v=64
211850 Off ch=2 n=a#3 v=64
211890 On ch=2 n=f#2 v=60
211890 On ch=2 n=f#3 v=60
211961 Par ch=2 c=7 v=61
212033 Par ch=2 c=7 v=62
212090 Off ch=2 n=f#3 v=64
212090 Off ch=2 n=f#2 v=64
212105 Par ch=2 c=7 v=63
212130 On ch=2 n=g2 v=60
212130 On ch=2 n=g3 v=60
212177 Par ch=2 c=7 v=64
212247 Off ch=2 n=g3 v=64
212247 Off ch=2 n=g2 v=64
212248 Par ch=2 c=7 v=65
212250 On ch=2 n=g#2 v=60
212250 On ch=2 n=g#3 v=60
212321 Par ch=2 c=7 v=66
212367 Off ch=2 n=g#3 v=64
212367 Off ch=2 n=g#2 v=64
212370 On ch=2 n=a2 v=60
212370 On ch=2 n=a3 v=60
212393 Par ch=2 c=7 v=67
212465 Par ch=2 c=7 v=68
212537 Par ch=2 c=7 v=69
212570 Off ch=2 n=a3 v=64
212570 Off ch=2 n=a2 v=64
212608 Par ch=2 c=7 v=70
212610 Par ch=2 c=7 v=70
212610 On ch=2 n=b2 v=70
212610 On ch=2 n=b3 v=70
212681 Par ch=2 c=7 v=71
212753 Par ch=2 c=7 v=72
212810 Off ch=2 n=b3 v=64
212810 Off ch=2 n=b2 v=64
212825 Par ch=2 c=7 v=73
212850 On ch=2 n=b3 v=70
212850 On ch=2 n=f#4 v=70
212850 On ch=2 n=g#4 v=70
212850 On ch=2 n=d5 v=70
212897 Par ch=2 c=7 v=74
212968 Par ch=2 c=7 v=75
213041 Par ch=2 c=7 v=76
213050 Off ch=2 n=d5 v=64
213050 Off ch=2 n=g#4 v=64
213050 Off ch=2 n=f#4 v=64
213050 Off ch=2 n=b3 v=64
213090 On ch=2 n=c#4 v=70
213090 On ch=2 n=g#4 v=70
213090 On ch=2 n=b4 v=70
213090 On ch=2 n=f5 v=70
213113 Par ch=2 c=7 v=77
213185 Par ch=2 c=7 v=78
213257 Par ch=2 c=7 v=79
213290 Off ch=2 n=f5 v=64
213290 Off ch=2 n=b4 v=64
213290 Off ch=2 n=g#4 v=64
213290 Off ch=2 n=c#4 v=64
213328 Par ch=2 c=7 v=80
213330 Par ch=2 c=7 v=80
213330 On ch=2 n=a2 v=80
213330 On ch=2 n=a3 v=80
213401 Par ch=2 c=7 v=81
213473 Par ch=2 c=7 v=82
213530 Off ch=2 n=a3 v=64
213530 Off ch=2 n=a2 v=64
213545 Par ch=2 c=7 v=83
213570 On ch=2 n=b2 v=80
213570 On ch=2 n=b3 v=80
213617 Par ch=2 c=7 v=84
213687 Off ch=2 n=b3 v=64
213687 Off ch=2 n=b2 v=64
213688 Par ch=2 c=7 v=85
213690 On ch=2 n=c3 v=80
213690 On ch=2 n=c4 v=80
213761 Par ch=2 c=7 v=86
213807 Off ch=2 n=c4 v=64
213807 Off ch=2 n=c3 v=64
213810 On ch=2 n=c#3 v=80
213810 On ch=2 n=c#4 v=80
213833 Par ch=2 c=7 v=87
213905 Par ch=2 c=7 v=88
213977 Par ch=2 c=7 v=89
214010 Off ch=2 n=c#4 v=64
214010 Off ch=2 n=c#3 v=64
214048 Par ch=2 c=7 v=90
214050 Par ch=2 c=7 v=90
214050 On ch=2 n=d3 v=90
214050 On ch=2 n=d4 v=90
214121 Par ch=2 c=7 v=91
214193 Par ch=2 c=7 v=92
214250 Off ch=2 n=d4 v=64
214250 Off ch=2 n=d3 v=64
214265 Par ch=2 c=7 v=93
214290 On ch=2 n=d#3 v=90
214290 On ch=2 n=d#4 v=90
214337 Par ch=2 c=7 v=94
214407 Off ch=2 n=d#4 v=64
214407 Off ch=2 n=d#3 v=64
214408 Par ch=2 c=7 v=95
214410 On ch=2 n=e3 v=90
214410 On ch=2 n=e4 v=90
214481 Par ch=2 c=7 v=96
214527 Off ch=2 n=e4 v=64
214527 Off ch=2 n=e3 v=64
214530 On ch=2 n=f3 v=90
214530 On ch=2 n=f4 v=90
214553 Par ch=2 c=7 v=97
214625 Par ch=2 c=7 v=98
214697 Par ch=2 c=7 v=99
214730 Off ch=2 n=f4 v=64
214730 Off ch=2 n=f3 v=64
214768 Par ch=2 c=7 v=100
214770 Par ch=2 c=7 v=100
214770 On ch=2 n=f#3 v=100
214770 On ch=2 n=f#4 v=100
214830 Par ch=2 c=7 v=101
214890 Par ch=2 c=7 v=102
214950 Par ch=2 c=7 v=103
214970 Off ch=2 n=f#4 v=64
214970 Off ch=2 n=f#3 v=64
215010 Par ch=2 c=7 v=104
215010 On ch=2 n=g3 v=101
215010 On ch=2 n=g4 v=101
215070 Par ch=2 c=7 v=105
215127 Off ch=2 n=g4 v=64
215127 Off ch=2 n=g3 v=64
215130 Par ch=2 c=7 v=106
215130 On ch=2 n=g#3 v=102
215130 On ch=2 n=g#4 v=102
215190 Par ch=2 c=7 v=107
215247 Off ch=2 n=g#4 v=64
215247 Off ch=2 n=g#3 v=64
215250 Par ch=2 c=7 v=108
215250 On ch=2 n=a3 v=103
215250 On ch=2 n=a4 v=103
215310 Par ch=2 c=7 v=109
215370 Par ch=2 c=7 v=110
215430 Par ch=2 c=7 v=111
215450 Off ch=2 n=a4 v=64
215450 Off ch=2 n=a3 v=64
215490 Par ch=2 c=7 v=112
215490 Par ch=2 c=64 v=127
215490 On ch=2 n=c3 v=112
215490 On ch=2 n=c4 v=112
215690 Off ch=2 n=c4 v=64
215690 Off ch=2 n=c3 v=64
215730 On ch=2 n=c5 v=112
215730 On ch=2 n=f#5 v=112
215730 On ch=2 n=a5 v=112
215730 On ch=2 n=c6 v=112
215930 Off ch=2 n=c6 v=64
215930 Off ch=2 n=a5 v=64
215930 Off ch=2 n=f#5 v=64
215930 Off ch=2 n=c5 v=64
215970 Par ch=2 c=64 v=0
215970 Par ch=2 c=64 v=127
215970 On ch=2 n=b2 v=112
215970 On ch=2 n=b3 v=112
216170 Off ch=2 n=b3 v=64
216170 Off ch=2 n=b2 v=64
216210 Par ch=2 c=64 v=0
216210 Par ch=2 c=64 v=127
216210 On ch=2 n=a3 v=112
216210 On ch=2 n=c#4 v=112
216210 On ch=2 n=f#4 v=112
216210 On ch=2 n=a4 v=112
216410 Off ch=2 n=a4 v=64
216410 Off ch=2 n=f#4 v=64
216410 Off ch=2 n=c#4 v=64
216410 Off ch=2 n=a3 v=64
216450 On ch=2 n=a2 v=112
216450 On ch=2 n=a3 v=112
216650 Off ch=2 n=a3 v=64
216650 Off ch=2 n=a2 v=64
216690 Par ch=2 c=64 v=0
216690 Par ch=2 c=64 v=127
216690 On ch=2 n=b3 v=112
216690 On ch=2 n=f#4 v=112
216690 On ch=2 n=b4 v=112
216890 Off ch=2 n=b4 v=64
216890 Off ch=2 n=f#4 v=64
216890 Off ch=2 n=b3 v=64
216930 On ch=2 n=b2 v=112
216930 On ch=2 n=b3 v=112
217130 Off ch=2 n=b3 v=64
217130 Off ch=2 n=b2 v=64
217170 Par ch=2 c=64 v=0
217170 Par ch=2 c=64 v=127
217170 On ch=2 n=d4 v=112
217170 On ch=2 n=f#4 v=112
217170 On ch=2 n=g#4 v=112
217170 On ch=2 n=b4 v=112
217370 Off ch=2 n=b4 v=64
217370 Off ch=2 n=g#4 v=64
217370 Off ch=2 n=f#4 v=64
217370 Off ch=2 n=d4 v=64
217410 On ch=2 n=d3 v=112
217410 On ch=2 n=d4 v=112
217610 Off ch=2 n=d4 v=64
217610 Off ch=2 n=d3 v=64
217650 Par ch=2 c=64 v=0
217650 Par ch=2 c=64 v=127
217650 On ch=2 n=c#4 v=112
217650 On ch=2 n=f#4 v=112
217650 On ch=2 n=a4 v=112
217850 Off ch=2 n=a4 v=64
217850 Off ch=2 n=f#4 v=64
217850 Off ch=2 n=c#4 v=64
217890 On ch=2 n=c#3 v=112
217890 On ch=2 n=c#4 v=112
218090 Off ch=2 n=c#4 v=64
218090 Off ch=2 n=c#3 v=64
218130 On ch=2 n=c#4 v=112
218130 On ch=2 n=f#4 v=112
218130 On ch=2 n=g#4 v=112
218330 Off ch=2 n=g#4 v=64
218330 Off ch=2 n=f#4 v=64
218330 Off ch=2 n=c#4 v=64
218370 Par ch=2 c=64 v=0
218370 Par ch=2 c=64 v=127
218370 On ch=2 n=c#3 v=112
218370 On ch=2 n=c#4 v=112
218570 Off ch=2 n=c#4 v=64
218570 Off ch=2 n=c#3 v=64
218610 On ch=2 n=c#4 v=112
218610 On ch=2 n=g#4 v=112
218610 On ch=2 n=b4 v=112
218810 Off ch=2 n=b4 v=64
218810 Off ch=2 n=g#4 v=64
218810 Off ch=2 n=c#4 v=64
218850 On ch=2 n=c#5 v=112
218850 On ch=2 n=f5 v=112
218850 On ch=2 n=b5 v=112
219050 Off ch=2 n=b5 v=64
219050 Off ch=2 n=f5 v=64
219050 Off ch=2 n=c#5 v=64
219090 On ch=2 n=c#5 v=112
219090 On ch=2 n=f5 v=112
219090 On ch=2 n=b5 v=112
219290 Off ch=2 n=b5 v=64
219290 Off ch=2 n=f5 v=64
219290 Off ch=2 n=c#5 v=64
219330 Par ch=2 c=64 v=0
219330 Par ch=2 c=64 v=127
219330 On ch=2 n=f#4 v=112
219330 On ch=2 n=c#5 v=112
219330 On ch=2 n=a5 v=112
219530 Off ch=2 n=a5 v=64
219530 Off ch=2 n=c#5 v=64
219530 Off ch=2 n=f#4 v=64
219570 Par ch=2 c=7 v=30
219570 Par ch=2 c=64 v=0
219570 On ch=2 n=c#4 v=30
219570 On ch=2 n=f4 v=30
219570 On ch=2 n=b4 v=30
219770 Off ch=2 n=b4 v=64
219770 Off ch=2 n=f4 v=64
219770 Off ch=2 n=c#4 v=64
219810 On ch=2 n=c#4 v=42
219810 On ch=2 n=f4 v=42
219810 On ch=2 n=b4 v=42
220010 Off ch=2 n=b4 v=64
220010 Off ch=2 n=f4 v=64
220010 Off ch=2 n=c#4 v=64
220050 On ch=2 n=f#3 v=30
220050 On ch=2 n=c#4 v=30
220050 On ch=2 n=a4 v=30
220250 Off ch=2 n=a4 v=64
220250 Off ch=2 n=c#4 v=64
220250 Off ch=2 n=f#3 v=64
220290 On ch=2 n=c#4 v=30
220290 On ch=2 n=f4 v=30
220290 On ch=2 n=b4 v=30
220490 Off ch=2 n=b4 v=64
220490 Off ch=2 n=f4 v=64
220490 Off ch=2 n=c#4 v=64
220530 Par ch=2 c=64 v=127
220530 On ch=2 n=c#4 v=30
220530 On ch=2 n=f#4 v=30
220530 On ch=2 n=a4 v=30
220730 Off ch=2 n=a4 v=64
220730 Off ch=2 n=f#4 v=64
220730 Off ch=2 n=c#4 v=64
220770 On ch=2 n=f#3 v=30
220970 Off ch=2 n=f#3 v=64
221010 Par ch=2 c=64 v=0
221010 On ch=2 n=c#4 v=30
221010 On ch=2 n=f4 v=30
221010 On ch=2 n=b4 v=30
221210 Off ch=2 n=b4 v=64
221210 Off ch=2 n=f4 v=64
221210 Off ch=2 n=c#4 v=64
221250 Par ch=2 c=64 v=127
221250 On ch=2 n=c#4 v=42
221250 On ch=2 n=f#4 v=42
221250 On ch=2 n=a4 v=42
221450 Off ch=2 n=a4 v=64
221450 Off ch=2 n=f#4 v=64
221450 Off ch=2 n=c#4 v=64
221490 On ch=2 n=f#3 v=30
221690 Off ch=2 n=f#3 v=64
221730 Par ch=2 c=64 v=0
221730 On ch=2 n=c#4 v=30
221730 On ch=2 n=f4 v=30
221730 On ch=2 n=b4 v=30
221930 Off ch=2 n=b4 v=64
221930 Off ch=2 n=f4 v=64
221930 Off ch=2 n=c#4 v=64
221970 Par ch=2 c=64 v=127
221970 On ch=2 n=c#4 v=42
221970 On ch=2 n=f#4 v=42
221970 On ch=2 n=a#4 v=42
222170 Off ch=2 n=a#4 v=64
222170 Off ch=2 n=f#4 v=64
222170 Off ch=2 n=c#4 v=64
222210 On ch=2 n=f#3 v=30
222410 Off ch=2 n=f#3 v=64
222450 Par ch=2 c=64 v=0
222450 On ch=2 n=c#4 v=30
222450 On ch=2 n=f4 v=30
222450 On ch=2 n=b4 v=30
222650 Off ch=2 n=b4 v=64
222650 Off ch=2 n=f4 v=64
222650 Off ch=2 n=c#4 v=64
222690 Par ch=2 c=64 v=127
222690 On ch=2 n=c#4 v=30
222690 On ch=2 n=f#4 v=30
222690 On ch=2 n=a#4 v=30
222890 Off ch=2 n=a#4 v=64
222890 Off ch=2 n=f#4 v=64
222890 Off ch=2 n=c#4 v=64
222930 On ch=2 n=f#3 v=30
223130 Off ch=2 n=f#3 v=64
223170 Par ch=2 c=64 v=0
223170 On ch=2 n=c#4 v=30
223170 On ch=2 n=f4 v=30
223170 On ch=2 n=b4 v=30
223370 Off ch=2 n=b4 v=64
223370 Off ch=2 n=f4 v=64
223370 Off ch=2 n=c#4 v=64
223410 Par ch=2 c=64 v=127
223410 On ch=2 n=c#4 v=30
223410 On ch=2 n=f#4 v=30
223410 On ch=2 n=a#4 v=30
223610 Off ch=2 n=a#4 v=64
223610 Off ch=2 n=f#4 v=64
223610 Off ch=2 n=c#4 v=64
223650 On ch=2 n=f#3 v=30
223850 Off ch=2 n=f#3 v=64
223890 Par ch=2 c=64 v=0
223890 On ch=2 n=c#4 v=30
223890 On ch=2 n=f4 v=30
223890 On ch=2 n=b4 v=30
224090 Off ch=2 n=b4 v=64
224090 Off ch=2 n=f4 v=64
224090 Off ch=2 n=c#4 v=64
224130 Par ch=2 c=64 v=127
224130 On ch=2 n=c#4 v=30
224130 On ch=2 n=f#4 v=30
224130 On ch=2 n=a#4 v=30
224330 Off ch=2 n=a#4 v=64
224330 Off ch=2 n=f#4 v=64
224330 Off ch=2 n=c#4 v=64
224370 On ch=2 n=f#3 v=30
224570 Off ch=2 n=f#3 v=64
224610 Par ch=2 c=64 v=0
224610 On ch=2 n=c#4 v=30
224610 On ch=2 n=f4 v=30
224610 On ch=2 n=b4 v=30
224810 Off ch=2 n=b4 v=64
224810 Off ch=2 n=f4 v=64
224810 Off ch=2 n=c#4 v=64
224850 Par ch=2 c=7 v=48
224850 Par ch=2 c=64 v=127
224850 On ch=2 n=f#3 v=48
225090 Off ch=2 n=f#3 v=64
225090 On ch=2 n=d#5 v=48
225090 On ch=2 n=f#4 v=48
225090 On ch=2 n=c#4 v=48
225330 Off ch=2 n=c#4 v=64
225330 Off ch=2 n=f#4 v=64
225330 Off ch=2 n=d#5 v=64
225330 On ch=2 n=c#4 v=48
225330 On ch=2 n=f#4 v=48
225330 On ch=2 n=c#5 v=48
225530 Off ch=2 n=c#5 v=64
225530 Off ch=2 n=f#4 v=64
225530 Off ch=2 n=c#4 v=64
225570 Par ch=2 c=64 v=0
225570 On ch=2 n=c#4 v=48
225570 On ch=2 n=f#4 v=48
225570 On ch=2 n=c#5 v=48
225770 Off ch=2 n=c#5 v=64
225770 Off ch=2 n=f#4 v=64
225770 Off ch=2 n=c#4 v=64
225810 On ch=2 n=c#4 v=48
225810 On ch=2 n=f#4 v=48
225810 On ch=2 n=d#5 v=48
226010 Off ch=2 n=d#5 v=64
226010 Off ch=2 n=f#4 v=64
226010 Off ch=2 n=c#4 v=64
226050 On ch=2 n=c#4 v=48
226050 On ch=2 n=f#4 v=48
226050 On ch=2 n=c#5 v=48
226250 Off ch=2 n=c#5 v=64
226250 Off ch=2 n=f#4 v=64
226250 Off ch=2 n=c#4 v=64
226290 Par ch=2 c=64 v=127
226290 On ch=2 n=c#4 v=48
226290 On ch=2 n=g#4 v=48
226290 On ch=2 n=c#5 v=48
226490 Off ch=2 n=c#5 v=64
226490 Off ch=2 n=g#4 v=64
226490 Off ch=2 n=c#4 v=64
226530 On ch=2 n=c#4 v=48
226530 On ch=2 n=g#4 v=48
226530 On ch=2 n=d#5 v=48
226730 Off ch=2 n=d#5 v=64
226730 Off ch=2 n=g#4 v=64
226730 Off ch=2 n=c#4 v=64
226770 On ch=2 n=c#4 v=48
226770 On ch=2 n=g#4 v=48
226770 On ch=2 n=c#5 v=48
226970 Off ch=2 n=c#5 v=64
226970 Off ch=2 n=g#4 v=64
226970 Off ch=2 n=c#4 v=64
227010 Par ch=2 c=64 v=0
227010 Par ch=2 c=64 v=127
227010 On ch=2 n=c#4 v=48
227010 On ch=2 n=f#4 v=48
227010 On ch=2 n=c#5 v=48
227210 Off ch=2 n=c#5 v=64
227210 Off ch=2 n=f#4 v=64
227210 Off ch=2 n=c#4 v=64
227250 On ch=2 n=c#4 v=48
227250 On ch=2 n=f#4 v=48
227250 On ch=2 n=d#5 v=48
227450 Off ch=2 n=d#5 v=64
227450 Off ch=2 n=f#4 v=64
227450 Off ch=2 n=c#4 v=64
227490 On ch=2 n=c#4 v=48
227490 On ch=2 n=f#4 v=48
227490 On ch=2 n=c#5 v=48
227690 Off ch=2 n=c#5 v=64
227690 Off ch=2 n=f#4 v=64
227690 Off ch=2 n=c#4 v=64
227730 Par ch=2 c=64 v=0
227730 On ch=2 n=c#4 v=48
227730 On ch=2 n=f#4 v=48
227730 On ch=2 n=c#5 v=48
227930 Off ch=2 n=c#5 v=64
227930 Off ch=2 n=f#4 v=64
227930 Off ch=2 n=c#4 v=64
227970 On ch=2 n=c#4 v=48
227970 On ch=2 n=f#4 v=48
227970 On ch=2 n=b4 v=48
228170 Off ch=2 n=b4 v=64
228170 Off ch=2 n=f#4 v=64
228170 Off ch=2 n=c#4 v=64
228210 On ch=2 n=c#4 v=48
228210 On ch=2 n=f#4 v=48
228210 On ch=2 n=a#4 v=48
228410 Off ch=2 n=a#4 v=64
228410 Off ch=2 n=f#4 v=64
228410 Off ch=2 n=c#4 v=64
228450 On ch=2 n=c#4 v=48
228450 On ch=2 n=f#4 v=48
228450 On ch=2 n=a#4 v=48
228650 Off ch=2 n=a#4 v=64
228650 Off ch=2 n=f#4 v=64
228650 Off ch=2 n=c#4 v=64
228690 On ch=2 n=b3 v=48
228690 On ch=2 n=c#4 v=48
228690 On ch=2 n=g#4 v=48
228890 Off ch=2 n=g#4 v=64
228890 Off ch=2 n=c#4 v=64
228890 Off ch=2 n=b3 v=64
228930 On ch=2 n=a#3 v=48
228930 On ch=2 n=c#4 v=48
228930 On ch=2 n=f#4 v=48
229130 Off ch=2 n=f#4 v=64
229130 Off ch=2 n=c#4 v=64
229130 Off ch=2 n=a#3 v=64
229170 On ch=2 n=a#3 v=48
229170 On ch=2 n=c#4 v=48
229170 On ch=2 n=f#4 v=48
229370 Off ch=2 n=f#4 v=64
229370 Off ch=2 n=c#4 v=64
229370 Off ch=2 n=a#3 v=64
229410 On ch=2 n=b3 v=48
229410 On ch=2 n=c#4 v=48
229410 On ch=2 n=g#4 v=48
229610 Off ch=2 n=g#4 v=64
229610 Off ch=2 n=c#4 v=64
229610 Off ch=2 n=b3 v=64
229650 On ch=2 n=a#3 v=48
229650 On ch=2 n=c#4 v=48
229650 On ch=2 n=f#4 v=48
229850 Off ch=2 n=f#4 v=64
229850 Off ch=2 n=c#4 v=64
229850 Off ch=2 n=a#3 v=64
229890 On ch=2 n=a#3 v=48
229890 On ch=2 n=c#4 v=48
229890 On ch=2 n=f#4 v=48
230090 Off ch=2 n=f#4 v=64
230090 Off ch=2 n=c#4 v=64
230090 Off ch=2 n=a#3 v=64
230130 On ch=2 n=b3 v=48
230130 On ch=2 n=c#4 v=48
230130 On ch=2 n=g#4 v=48
230330 Off ch=2 n=g#4 v=64
230330 Off ch=2 n=c#4 v=64
230330 Off ch=2 n=b3 v=64
230370 On ch=2 n=a#3 v=48
230370 On ch=2 n=c#4 v=48
230370 On ch=2 n=f#4 v=48
230570 Off ch=2 n=f#4 v=64
230610 On ch=2 n=f#4 v=48
230810 Off ch=2 n=f#4 v=64
230810 Off ch=2 n=c#4 v=64
230810 Off ch=2 n=a#3 v=64
230850 On ch=2 n=g#2 v=48
230850 On ch=2 n=g#3 v=48
231050 Off ch=2 n=g#3 v=64
231050 Off ch=2 n=g#2 v=64
231090 On ch=2 n=f#2 v=48
231090 On ch=2 n=f#3 v=48
231290 Off ch=2 n=f#3 v=64
231290 Off ch=2 n=f#2 v=64
231330 On ch=2 n=f#2 v=48
231330 On ch=2 n=f#3 v=48
231530 Off ch=2 n=f#3 v=64
231530 Off ch=2 n=f#2 v=64
231570 On ch=2 n=g#2 v=48
231570 On ch=2 n=g#3 v=48
231770 Off ch=2 n=g#3 v=64
231770 Off ch=2 n=g#2 v=64
231810 On ch=2 n=f#2 v=48
231810 On ch=2 n=f#3 v=48
232010 Off ch=2 n=f#3 v=64
232010 Off ch=2 n=f#2 v=64
232770 On ch=2 n=c#2 v=48
232770 On ch=2 n=c#3 v=48
232830 Off ch=2 n=c#3 v=64
232830 Off ch=2 n=c#2 v=64
233490 On ch=2 n=f#2 v=48
233490 On ch=2 n=f#3 v=48
233550 Off ch=2 n=f#3 v=64
233550 Off ch=2 n=f#2 v=64
233550 Meta TrkEnd
TrkEnd
