MFile 1 3 240
MTrk
0 TimeSig 4/4 24 8
0 Tempo 1071429
0 Meta Marker "By Malcolm Dale"
0 Meta Marker "Chopin sonata No.2 in b Flat Minor (Funeral march)"
0 Meta Marker "Generated by NoteWorthy Composer"
0 Meta TrkEnd
TrkEnd
MTrk
0 Meta TrkName "Upper G.S."
0 PrCh ch=1 p=0
0 Par ch=1 c=7 v=127
0 Par ch=1 c=10 v=64
0 Par ch=1 c=7 v=30
0 On ch=1 n=a#4 v=30
0 On ch=1 n=f4 v=30
240 Off ch=1 n=f4 v=64
240 Off ch=1 n=a#4 v=64
240 On ch=1 n=a#4 v=30
240 On ch=1 n=f#4 v=30
420 Off ch=1 n=a#4 v=64
420 On ch=1 n=a#4 v=30
440 Off ch=1 n=f#4 v=64
480 Off ch=1 n=a#4 v=64
480 On ch=1 n=a#4 v=30
480 On ch=1 n=f4 v=30
720 Off ch=1 n=f4 v=64
720 On ch=1 n=f#4 v=30
900 Off ch=1 n=a#4 v=64
960 Off ch=1 n=f#4 v=64
960 On ch=1 n=a#4 v=30
960 On ch=1 n=f4 v=30
1200 Off ch=1 n=f4 v=64
1200 Off ch=1 n=a#4 v=64
1200 On ch=1 n=a#4 v=30
1200 On ch=1 n=f#4 v=30
1380 Off ch=1 n=a#4 v=64
1380 On ch=1 n=a#4 v=30
1400 Off ch=1 n=f#4 v=64
1440 Off ch=1 n=a#4 v=64
1440 On ch=1 n=a#4 v=30
1440 On ch=1 n=f4 v=30
1680 Off ch=1 n=f4 v=64
1680 On ch=1 n=f#4 v=30
1860 Off ch=1 n=a#4 v=64
1880 Off ch=1 n=f#4 v=64
1920 On ch=1 n=a#4 v=30
1920 On ch=1 n=f4 v=30
2160 Off ch=1 n=f4 v=64
2160 Off ch=1 n=a#4 v=64
2160 On ch=1 n=a#4 v=30
2160 On ch=1 n=f#4 v=30
2340 Off ch=1 n=a#4 v=64
2340 On ch=1 n=a#4 v=30
2360 Off ch=1 n=f#4 v=64
2400 Off ch=1 n=a#4 v=64
2400 On ch=1 n=a#4 v=30
2400 On ch=1 n=f4 v=30
2640 Off ch=1 n=f4 v=64
2640 Off ch=1 n=a#4 v=64
2640 On ch=1 n=c#5 v=30
2640 On ch=1 n=f#4 v=30
2820 Off ch=1 n=c#5 v=64
2820 On ch=1 n=c5 v=30
2840 Off ch=1 n=f#4 v=64
2880 Off ch=1 n=c5 v=64
2880 On ch=1 n=c5 v=30
2880 On ch=1 n=f4 v=30
3060 Off ch=1 n=c5 v=64
3060 On ch=1 n=a#4 v=30
3080 Off ch=1 n=f4 v=64
3120 Off ch=1 n=a#4 v=64
3120 On ch=1 n=a#4 v=30
3120 On ch=1 n=f#4 v=30
3300 Off ch=1 n=a#4 v=64
3300 On ch=1 n=a#4 v=30
3320 Off ch=1 n=f#4 v=64
3360 Off ch=1 n=a#4 v=64
3360 On ch=1 n=a#4 v=30
3360 On ch=1 n=f4 v=30
3600 Off ch=1 n=f4 v=64
3600 On ch=1 n=f#4 v=30
3780 Off ch=1 n=a#4 v=64
3800 Off ch=1 n=f#4 v=64
3840 Par ch=1 c=7 v=48
3840 On ch=1 n=c#5 v=48
3840 On ch=1 n=a#4 v=48
4080 Off ch=1 n=a#4 v=64
4080 Off ch=1 n=c#5 v=64
4080 On ch=1 n=c#5 v=48
4080 On ch=1 n=a#4 v=48
4260 Off ch=1 n=c#5 v=64
4260 On ch=1 n=c#5 v=48
4280 Off ch=1 n=a#4 v=64
4320 Off ch=1 n=c#5 v=64
4320 On ch=1 n=c#5 v=48
4320 On ch=1 n=a#4 v=48
4560 Off ch=1 n=a#4 v=64
4560 Off ch=1 n=c#5 v=64
4560 On ch=1 n=f5 v=48
4560 On ch=1 n=c#5 v=48
4740 Off ch=1 n=c#5 v=64
4740 Off ch=1 n=f5 v=64
4740 On ch=1 n=d#5 v=48
4740 On ch=1 n=c5 v=48
4797 Off ch=1 n=c5 v=64
4797 Off ch=1 n=d#5 v=64
4800 On ch=1 n=f5 v=48
4812 Off ch=1 n=f5 v=64
4815 On ch=1 n=d#5 v=48
4815 On ch=1 n=c5 v=48
4977 Off ch=1 n=c5 v=64
4977 Off ch=1 n=d#5 v=64
4980 On ch=1 n=c#5 v=48
4980 On ch=1 n=a#4 v=48
5037 Off ch=1 n=a#4 v=64
5037 Off ch=1 n=c#5 v=64
5040 On ch=1 n=c#5 v=48
5040 On ch=1 n=a#4 v=48
5217 Off ch=1 n=a#4 v=64
5217 Off ch=1 n=c#5 v=64
5220 On ch=1 n=c#5 v=48
5220 On ch=1 n=a#4 v=48
5277 Off ch=1 n=a#4 v=64
5277 Off ch=1 n=c#5 v=64
5280 On ch=1 n=c#5 v=48
5280 On ch=1 n=a#4 v=48
5700 Off ch=1 n=a#4 v=64
5700 Off ch=1 n=c#5 v=64
5760 Par ch=1 c=7 v=84
5760 On ch=1 n=a#5 v=84
5760 On ch=1 n=c#5 v=84
5760 On ch=1 n=a#4 v=84
5786 Par ch=1 c=7 v=83
5812 Par ch=1 c=7 v=82
5840 Par ch=1 c=7 v=81
5866 Par ch=1 c=7 v=80
5892 Par ch=1 c=7 v=79
5920 Par ch=1 c=7 v=78
5937 Off ch=1 n=a#5 v=64
5940 On ch=1 n=g#5 v=83
5946 Par ch=1 c=7 v=77
5960 Off ch=1 n=a#4 v=64
5960 Off ch=1 n=c#5 v=64
5972 Par ch=1 c=7 v=76
5997 Off ch=1 n=g#5 v=64
6000 Par ch=1 c=7 v=75
6000 On ch=1 n=g#5 v=82
6012 Off ch=1 n=g#5 v=64
6015 On ch=1 n=f#5 v=81
6015 On ch=1 n=c#5 v=81
6015 On ch=1 n=a#4 v=81
6026 Par ch=1 c=7 v=74
6052 Par ch=1 c=7 v=73
6080 Par ch=1 c=7 v=72
6106 Par ch=1 c=7 v=71
6132 Par ch=1 c=7 v=70
6160 Par ch=1 c=7 v=69
6177 Off ch=1 n=f#5 v=64
6180 On ch=1 n=f5 v=79
6186 Par ch=1 c=7 v=68
6212 Par ch=1 c=7 v=67
6237 Off ch=1 n=f5 v=64
6240 Par ch=1 c=7 v=66
6240 On ch=1 n=f5 v=78
6240 On ch=1 n=c#5 v=78
6240 On ch=1 n=a#4 v=78
6266 Par ch=1 c=7 v=65
6292 Par ch=1 c=7 v=64
6320 Par ch=1 c=7 v=63
6346 Par ch=1 c=7 v=62
6372 Par ch=1 c=7 v=61
6395 Off ch=1 n=a#4 v=64
6395 Off ch=1 n=c#5 v=64
6400 Par ch=1 c=7 v=60
6426 Par ch=1 c=7 v=59
6440 Off ch=1 n=a#4 v=64
6440 Off ch=1 n=c#5 v=64
6440 Off ch=1 n=f5 v=64
6452 Par ch=1 c=7 v=58
6480 Par ch=1 c=7 v=57
6480 On ch=1 n=c#5 v=77
6480 On ch=1 n=a#4 v=77
6506 Par ch=1 c=7 v=56
6532 Par ch=1 c=7 v=55
6560 Par ch=1 c=7 v=54
6586 Par ch=1 c=7 v=53
6612 Par ch=1 c=7 v=52
6640 Par ch=1 c=7 v=51
6666 Par ch=1 c=7 v=50
6680 Off ch=1 n=a#4 v=64
6680 Off ch=1 n=c#5 v=64
6692 Par ch=1 c=7 v=49
6720 Par ch=1 c=7 v=48
6720 Par ch=1 c=7 v=84
6720 On ch=1 n=a#5 v=84
6720 On ch=1 n=c#5 v=84
6720 On ch=1 n=a#4 v=84
6746 Par ch=1 c=7 v=83
6772 Par ch=1 c=7 v=82
6800 Par ch=1 c=7 v=81
6826 Par ch=1 c=7 v=80
6852 Par ch=1 c=7 v=79
6880 Par ch=1 c=7 v=78
6897 Off ch=1 n=a#5 v=64
6900 On ch=1 n=g#5 v=83
6906 Par ch=1 c=7 v=77
6920 Off ch=1 n=a#4 v=64
6920 Off ch=1 n=c#5 v=64
6932 Par ch=1 c=7 v=76
6957 Off ch=1 n=g#5 v=64
6960 Par ch=1 c=7 v=75
6960 On ch=1 n=g#5 v=82
6972 Off ch=1 n=g#5 v=64
6975 On ch=1 n=f#5 v=81
6975 On ch=1 n=c#5 v=81
6975 On ch=1 n=a#4 v=81
6986 Par ch=1 c=7 v=74
7012 Par ch=1 c=7 v=73
7040 Par ch=1 c=7 v=72
7066 Par ch=1 c=7 v=71
7092 Par ch=1 c=7 v=70
7120 Par ch=1 c=7 v=69
7137 Off ch=1 n=f#5 v=64
7140 On ch=1 n=f5 v=79
7146 Par ch=1 c=7 v=68
7172 Par ch=1 c=7 v=67
7197 Off ch=1 n=f5 v=64
7200 Par ch=1 c=7 v=66
7200 On ch=1 n=f5 v=78
7200 On ch=1 n=c#5 v=78
7200 On ch=1 n=a#4 v=78
7226 Par ch=1 c=7 v=65
7252 Par ch=1 c=7 v=64
7280 Par ch=1 c=7 v=63
7306 Par ch=1 c=7 v=62
7332 Par ch=1 c=7 v=61
7355 Off ch=1 n=a#4 v=64
7355 Off ch=1 n=c#5 v=64
7360 Par ch=1 c=7 v=60
7386 Par ch=1 c=7 v=59
7400 Off ch=1 n=a#4 v=64
7400 Off ch=1 n=c#5 v=64
7400 Off ch=1 n=f5 v=64
7412 Par ch=1 c=7 v=58
7440 Par ch=1 c=7 v=57
7440 On ch=1 n=c#5 v=77
7440 On ch=1 n=a#4 v=77
7466 Par ch=1 c=7 v=56
7492 Par ch=1 c=7 v=55
7520 Par ch=1 c=7 v=54
7546 Par ch=1 c=7 v=53
7572 Par ch=1 c=7 v=52
7600 Par ch=1 c=7 v=51
7626 Par ch=1 c=7 v=50
7640 Off ch=1 n=a#4 v=64
7640 Off ch=1 n=c#5 v=64
7652 Par ch=1 c=7 v=49
7680 Par ch=1 c=7 v=48
7680 On ch=1 n=a#4 v=48
7680 On ch=1 n=f4 v=48
7880 Off ch=1 n=f4 v=64
7880 Off ch=1 n=a#4 v=64
7920 On ch=1 n=a#4 v=48
7920 On ch=1 n=f#4 v=48
8097 Off ch=1 n=a#4 v=64
8100 On ch=1 n=a#4 v=48
8120 Off ch=1 n=f#4 v=64
8157 Off ch=1 n=a#4 v=64
8160 On ch=1 n=a#4 v=48
8160 On ch=1 n=f4 v=48
8360 Off ch=1 n=f4 v=64
8360 Off ch=1 n=a#4 v=64
8400 On ch=1 n=c#5 v=48
8400 On ch=1 n=f#4 v=48
8577 Off ch=1 n=c#5 v=64
8580 On ch=1 n=c5 v=48
8600 Off ch=1 n=f#4 v=64
8637 Off ch=1 n=c5 v=64
8640 On ch=1 n=c#5 v=48
8652 Off ch=1 n=c#5 v=64
8655 On ch=1 n=c5 v=48
8817 Off ch=1 n=c5 v=64
8820 On ch=1 n=a#4 v=48
8877 Off ch=1 n=a#4 v=64
8880 On ch=1 n=a#4 v=48
9057 Off ch=1 n=a#4 v=64
9060 On ch=1 n=a#4 v=48
9117 Off ch=1 n=a#4 v=64
9120 On ch=1 n=a#4 v=48
9540 Off ch=1 n=a#4 v=64
9600 Par ch=1 c=7 v=120
9600 On ch=1 n=a#6 v=120
9600 On ch=1 n=c#6 v=120
9600 On ch=1 n=a#5 v=120
9623 Par ch=1 c=7 v=119
9647 Par ch=1 c=7 v=118
9671 Par ch=1 c=7 v=117
9695 Par ch=1 c=7 v=116
9717 Off ch=1 n=a#5 v=64
9717 Off ch=1 n=a#6 v=64
9720 Par ch=1 c=7 v=115
9720 On ch=1 n=g#6 v=119
9720 On ch=1 n=g#5 v=119
9743 Par ch=1 c=7 v=114
9767 Par ch=1 c=7 v=113
9791 Par ch=1 c=7 v=112
9815 Par ch=1 c=7 v=111
9837 Off ch=1 n=g#5 v=64
9837 Off ch=1 n=g#6 v=64
9837 Off ch=1 n=c#6 v=64
9840 Par ch=1 c=7 v=110
9840 On ch=1 n=g#5 v=118
9847 Off ch=1 n=g#5 v=64
9850 On ch=1 n=c#6 v=117
9857 Off ch=1 n=c#6 v=64
9860 On ch=1 n=g#6 v=116
9863 Par ch=1 c=7 v=109
9867 Off ch=1 n=g#6 v=64
9870 On ch=1 n=f#6 v=115
9870 On ch=1 n=f#5 v=115
9887 Par ch=1 c=7 v=108
9911 Par ch=1 c=7 v=107
9935 Par ch=1 c=7 v=106
9960 Par ch=1 c=7 v=105
9983 Par ch=1 c=7 v=104
10007 Par ch=1 c=7 v=103
10017 Off ch=1 n=f#5 v=64
10017 Off ch=1 n=f#6 v=64
10020 On ch=1 n=f6 v=113
10020 On ch=1 n=f5 v=113
10031 Par ch=1 c=7 v=102
10055 Par ch=1 c=7 v=101
10077 Off ch=1 n=f5 v=64
10077 Off ch=1 n=f6 v=64
10080 Par ch=1 c=7 v=100
10080 On ch=1 n=f6 v=112
10080 On ch=1 n=c#6 v=112
10080 On ch=1 n=f5 v=112
10103 Par ch=1 c=7 v=99
10127 Par ch=1 c=7 v=98
10151 Par ch=1 c=7 v=97
10175 Par ch=1 c=7 v=96
10200 Par ch=1 c=7 v=95
10223 Par ch=1 c=7 v=94
10247 Par ch=1 c=7 v=93
10271 Par ch=1 c=7 v=92
10280 Off ch=1 n=f5 v=64
10280 Off ch=1 n=c#6 v=64
10280 Off ch=1 n=f6 v=64
10295 Par ch=1 c=7 v=91
10320 Par ch=1 c=7 v=90
10320 On ch=1 n=c#6 v=111
10320 On ch=1 n=a#5 v=111
10320 On ch=1 n=c#5 v=111
10343 Par ch=1 c=7 v=89
10367 Par ch=1 c=7 v=88
10391 Par ch=1 c=7 v=87
10415 Par ch=1 c=7 v=86
10440 Par ch=1 c=7 v=85
10463 Par ch=1 c=7 v=84
10487 Par ch=1 c=7 v=83
10511 Par ch=1 c=7 v=82
10520 Off ch=1 n=c#5 v=64
10520 Off ch=1 n=a#5 v=64
10520 Off ch=1 n=c#6 v=64
10535 Par ch=1 c=7 v=81
10560 Par ch=1 c=7 v=80
10560 Par ch=1 c=7 v=120
10560 On ch=1 n=a#6 v=120
10560 On ch=1 n=c#6 v=120
10560 On ch=1 n=a#5 v=120
10583 Par ch=1 c=7 v=119
10607 Par ch=1 c=7 v=118
10631 Par ch=1 c=7 v=117
10655 Par ch=1 c=7 v=116
10677 Off ch=1 n=a#5 v=64
10677 Off ch=1 n=a#6 v=64
10680 Par ch=1 c=7 v=115
10680 On ch=1 n=g#6 v=119
10680 On ch=1 n=g#5 v=119
10703 Par ch=1 c=7 v=114
10727 Par ch=1 c=7 v=113
10751 Par ch=1 c=7 v=112
10775 Par ch=1 c=7 v=111
10797 Off ch=1 n=g#5 v=64
10797 Off ch=1 n=g#6 v=64
10797 Off ch=1 n=c#6 v=64
10800 Par ch=1 c=7 v=110
10800 On ch=1 n=g#5 v=118
10807 Off ch=1 n=g#5 v=64
10810 On ch=1 n=c#6 v=117
10817 Off ch=1 n=c#6 v=64
10820 On ch=1 n=g#6 v=116
10823 Par ch=1 c=7 v=109
10827 Off ch=1 n=g#6 v=64
10830 On ch=1 n=f#6 v=115
10830 On ch=1 n=f#5 v=115
10847 Par ch=1 c=7 v=108
10871 Par ch=1 c=7 v=107
10895 Par ch=1 c=7 v=106
10920 Par ch=1 c=7 v=105
10943 Par ch=1 c=7 v=104
10967 Par ch=1 c=7 v=103
10977 Off ch=1 n=f#5 v=64
10977 Off ch=1 n=f#6 v=64
10980 On ch=1 n=f6 v=113
10980 On ch=1 n=f5 v=113
10991 Par ch=1 c=7 v=102
11015 Par ch=1 c=7 v=101
11037 Off ch=1 n=f5 v=64
11037 Off ch=1 n=f6 v=64
11040 Par ch=1 c=7 v=100
11040 On ch=1 n=f6 v=112
11040 On ch=1 n=c#6 v=112
11040 On ch=1 n=f5 v=112
11063 Par ch=1 c=7 v=99
11087 Par ch=1 c=7 v=98
11111 Par ch=1 c=7 v=97
11135 Par ch=1 c=7 v=96
11160 Par ch=1 c=7 v=95
11183 Par ch=1 c=7 v=94
11207 Par ch=1 c=7 v=93
11231 Par ch=1 c=7 v=92
11240 Off ch=1 n=f5 v=64
11240 Off ch=1 n=c#6 v=64
11240 Off ch=1 n=f6 v=64
11255 Par ch=1 c=7 v=91
11280 Par ch=1 c=7 v=90
11280 On ch=1 n=c#6 v=111
11280 On ch=1 n=a#5 v=111
11280 On ch=1 n=c#5 v=111
11303 Par ch=1 c=7 v=89
11327 Par ch=1 c=7 v=88
11351 Par ch=1 c=7 v=87
11375 Par ch=1 c=7 v=86
11400 Par ch=1 c=7 v=85
11423 Par ch=1 c=7 v=84
11447 Par ch=1 c=7 v=83
11471 Par ch=1 c=7 v=82
11480 Off ch=1 n=c#5 v=64
11480 Off ch=1 n=a#5 v=64
11480 Off ch=1 n=c#6 v=64
11495 Par ch=1 c=7 v=81
11520 Par ch=1 c=7 v=80
11520 Par ch=1 c=7 v=40
11520 On ch=1 n=a#5 v=40
11520 On ch=1 n=f5 v=40
11520 On ch=1 n=a#4 v=40
11720 Off ch=1 n=a#4 v=64
11720 Off ch=1 n=f5 v=64
11720 Off ch=1 n=a#5 v=64
11760 On ch=1 n=a#5 v=40
11760 On ch=1 n=f#5 v=40
11760 On ch=1 n=a#4 v=40
11937 Off ch=1 n=a#4 v=64
11937 Off ch=1 n=a#5 v=64
11940 On ch=1 n=a#5 v=40
11940 On ch=1 n=a#4 v=40
11997 Off ch=1 n=a#4 v=64
11997 Off ch=1 n=a#5 v=64
11997 Off ch=1 n=f#5 v=64
12000 On ch=1 n=a#5 v=40
12000 On ch=1 n=f5 v=40
12000 On ch=1 n=a#4 v=40
12200 Off ch=1 n=a#4 v=64
12200 Off ch=1 n=f5 v=64
12200 Off ch=1 n=a#5 v=64
12240 On ch=1 n=c#6 v=40
12240 On ch=1 n=f#5 v=40
12240 On ch=1 n=c#5 v=40
12417 Off ch=1 n=c#5 v=64
12417 Off ch=1 n=c#6 v=64
12420 On ch=1 n=c6 v=40
12420 On ch=1 n=c5 v=40
12477 Off ch=1 n=c5 v=64
12477 Off ch=1 n=c6 v=64
12477 Off ch=1 n=f#5 v=64
12480 On ch=1 n=c6 v=40
12480 On ch=1 n=f5 v=40
12480 On ch=1 n=c5 v=40
12657 Off ch=1 n=c5 v=64
12657 Off ch=1 n=c6 v=64
12660 On ch=1 n=a#5 v=40
12660 On ch=1 n=a#4 v=40
12717 Off ch=1 n=a#4 v=64
12717 Off ch=1 n=a#5 v=64
12717 Off ch=1 n=f5 v=64
12720 On ch=1 n=a#5 v=40
12720 On ch=1 n=f#5 v=40
12720 On ch=1 n=a#4 v=40
12897 Off ch=1 n=a#4 v=64
12897 Off ch=1 n=a#5 v=64
12900 On ch=1 n=a#5 v=40
12900 On ch=1 n=a#4 v=40
12957 Off ch=1 n=a#4 v=64
12957 Off ch=1 n=a#5 v=64
12957 Off ch=1 n=f#5 v=64
12960 On ch=1 n=a#5 v=40
12960 On ch=1 n=f5 v=40
12960 On ch=1 n=a#4 v=40
13160 Off ch=1 n=a#4 v=64
13160 Off ch=1 n=f5 v=64
13160 Off ch=1 n=a#5 v=64
13200 On ch=1 n=c6 v=72
13200 On ch=1 n=g#5 v=72
13200 On ch=1 n=f#5 v=72
13200 On ch=1 n=c5 v=72
13200 Par ch=1 c=7 v=72
13440 Off ch=1 n=c5 v=64
13440 Off ch=1 n=f#5 v=64
13440 Off ch=1 n=g#5 v=64
13440 Off ch=1 n=c6 v=64
13440 Par ch=1 c=7 v=80
13440 On ch=1 n=c#6 v=80
13440 On ch=1 n=f5 v=80
13440 On ch=1 n=c#5 v=80
13470 Par ch=1 c=7 v=81
13500 Par ch=1 c=7 v=82
13530 Par ch=1 c=7 v=83
13560 Par ch=1 c=7 v=84
13590 Par ch=1 c=7 v=85
13620 Par ch=1 c=7 v=86
13650 Par ch=1 c=7 v=87
13680 Off ch=1 n=c#5 v=64
13680 Off ch=1 n=f5 v=64
13680 Off ch=1 n=c#6 v=64
13680 Par ch=1 c=7 v=88
13680 On ch=1 n=f6 v=81
13680 On ch=1 n=c#6 v=81
13680 On ch=1 n=f5 v=81
13710 Par ch=1 c=7 v=89
13740 Par ch=1 c=7 v=90
13770 Par ch=1 c=7 v=91
13800 Par ch=1 c=7 v=92
13830 Par ch=1 c=7 v=93
13860 Off ch=1 n=f5 v=64
13860 Off ch=1 n=c#6 v=64
13860 Off ch=1 n=f6 v=64
13860 Par ch=1 c=7 v=94
13860 On ch=1 n=f#6 v=82
13860 On ch=1 n=f#5 v=82
13890 Par ch=1 c=7 v=95
13920 Off ch=1 n=f#5 v=64
13920 Off ch=1 n=f#6 v=64
13920 Par ch=1 c=7 v=96
13920 On ch=1 n=g#6 v=83
13920 On ch=1 n=c#6 v=83
13920 On ch=1 n=g#5 v=83
13950 Par ch=1 c=7 v=97
13980 Par ch=1 c=7 v=98
14010 Par ch=1 c=7 v=99
14040 Par ch=1 c=7 v=100
14070 Par ch=1 c=7 v=101
14100 Off ch=1 n=g#5 v=64
14100 Off ch=1 n=c#6 v=64
14100 Off ch=1 n=g#6 v=64
14100 Par ch=1 c=7 v=102
14100 On ch=1 n=a#6 v=84
14100 On ch=1 n=a#5 v=84
14130 Par ch=1 c=7 v=103
14160 Off ch=1 n=a#5 v=64
14160 Off ch=1 n=a#6 v=64
14160 Par ch=1 c=7 v=104
14160 On ch=1 n=c7 v=85
14160 On ch=1 n=g#6 v=85
14160 On ch=1 n=c6 v=85
14190 Par ch=1 c=7 v=105
14220 Par ch=1 c=7 v=106
14250 Par ch=1 c=7 v=107
14280 Par ch=1 c=7 v=108
14310 Par ch=1 c=7 v=109
14340 Off ch=1 n=c6 v=64
14340 Off ch=1 n=g#6 v=64
14340 Off ch=1 n=c7 v=64
14340 On ch=1 n=c#7 v=86
14340 On ch=1 n=c#6 v=86
14340 Par ch=1 c=7 v=110
14370 Par ch=1 c=7 v=111
14400 Off ch=1 n=c#6 v=64
14400 Off ch=1 n=c#7 v=64
14400 Par ch=1 c=7 v=112
14400 On ch=1 n=f7 v=112
14400 On ch=1 n=c7 v=112
14400 On ch=1 n=g#6 v=112
14400 On ch=1 n=f6 v=112
14880 Off ch=1 n=f6 v=64
14880 Off ch=1 n=f7 v=64
14880 On ch=1 n=d#7 v=112
14880 On ch=1 n=d#6 v=112
14892 Par ch=1 c=7 v=111
14906 Par ch=1 c=7 v=110
14918 Par ch=1 c=7 v=109
14932 Par ch=1 c=7 v=108
14942 Par ch=1 c=7 v=107
14952 Par ch=1 c=7 v=106
14962 Par ch=1 c=7 v=105
14976 Par ch=1 c=7 v=104
14988 Par ch=1 c=7 v=103
15002 Par ch=1 c=7 v=102
15014 Par ch=1 c=7 v=101
15028 Par ch=1 c=7 v=100
15038 Par ch=1 c=7 v=99
15048 Par ch=1 c=7 v=98
15058 Par ch=1 c=7 v=97
15072 Par ch=1 c=7 v=96
15084 Par ch=1 c=7 v=95
15098 Par ch=1 c=7 v=94
15110 Par ch=1 c=7 v=93
15124 Par ch=1 c=7 v=92
15134 Par ch=1 c=7 v=91
15144 Par ch=1 c=7 v=90
15154 Par ch=1 c=7 v=89
15168 Par ch=1 c=7 v=88
15173 Off ch=1 n=d#6 v=64
15173 Off ch=1 n=d#7 v=64
15173 Off ch=1 n=g#6 v=64
15173 Off ch=1 n=c7 v=64
15180 Par ch=1 c=7 v=87
15194 Par ch=1 c=7 v=86
15206 Par ch=1 c=7 v=85
15220 Par ch=1 c=7 v=84
15230 Par ch=1 c=7 v=83
15240 Par ch=1 c=7 v=82
15250 Par ch=1 c=7 v=81
15264 On ch=1 n=f#6 v=80
15264 On ch=1 n=d#6 v=80
15264 On ch=1 n=c6 v=80
15264 On ch=1 n=f#5 v=80
15264 Par ch=1 c=7 v=80
15324 Off ch=1 n=f#5 v=64
15324 Off ch=1 n=c6 v=64
15324 Off ch=1 n=d#6 v=64
15324 Off ch=1 n=f#6 v=64
15324 On ch=1 n=f6 v=80
15324 On ch=1 n=d#6 v=80
15324 On ch=1 n=c6 v=80
15324 On ch=1 n=f5 v=80
15564 Off ch=1 n=f5 v=64
15564 Off ch=1 n=c6 v=64
15564 Off ch=1 n=d#6 v=64
15564 Off ch=1 n=f6 v=64
15564 On ch=1 n=f6 v=80
15564 On ch=1 n=c#6 v=80
15564 On ch=1 n=a#5 v=80
15564 On ch=1 n=f5 v=80
15744 Off ch=1 n=f5 v=64
15744 Off ch=1 n=a#5 v=64
15744 Off ch=1 n=c#6 v=64
15744 Off ch=1 n=f6 v=64
15744 On ch=1 n=g6 v=80
15744 On ch=1 n=g5 v=80
15804 Off ch=1 n=g5 v=64
15804 Off ch=1 n=g6 v=64
15804 On ch=1 n=a6 v=80
15804 On ch=1 n=f6 v=80
15804 On ch=1 n=c#6 v=80
15804 On ch=1 n=a5 v=80
15984 Off ch=1 n=a5 v=64
15984 Off ch=1 n=c#6 v=64
15984 Off ch=1 n=f6 v=64
15984 Off ch=1 n=a6 v=64
15984 On ch=1 n=a#6 v=80
15984 On ch=1 n=a#5 v=80
16044 Off ch=1 n=a#5 v=64
16044 Off ch=1 n=a#6 v=64
16044 On ch=1 n=c7 v=80
16044 On ch=1 n=c6 v=80
16224 Off ch=1 n=c6 v=64
16224 Off ch=1 n=c7 v=64
16224 On ch=1 n=c#7 v=80
16224 On ch=1 n=c#6 v=80
16284 Off ch=1 n=c#6 v=64
16284 Off ch=1 n=c#7 v=64
16284 On ch=1 n=c#7 v=80
16284 On ch=1 n=g6 v=80
16284 On ch=1 n=e6 v=80
16284 On ch=1 n=c#6 v=80
16284 On ch=1 n=a#5 v=80
16524 On ch=1 n=g5 v=80
16524 On ch=1 n=c#5 v=80
16764 Off ch=1 n=c#5 v=64
16764 Off ch=1 n=g5 v=64
16764 Off ch=1 n=a#5 v=64
16764 Off ch=1 n=c#6 v=64
16764 Off ch=1 n=e6 v=64
16764 Off ch=1 n=g6 v=64
16764 Off ch=1 n=c#7 v=64
16764 On ch=1 n=c7 v=80
16764 On ch=1 n=f6 v=80
16764 On ch=1 n=c6 v=80
16764 On ch=1 n=a5 v=80
16964 Off ch=1 n=a5 v=64
16964 Off ch=1 n=c6 v=64
16964 Off ch=1 n=f6 v=64
16964 Off ch=1 n=c7 v=64
17244 On ch=1 n=g#5 v=80
17244 On ch=1 n=f5 v=80
17244 On ch=1 n=c5 v=80
17244 On ch=1 n=g#4 v=80
17244 On ch=1 n=f#4 v=80
17484 Off ch=1 n=f#4 v=64
17484 Off ch=1 n=g#4 v=64
17484 Off ch=1 n=c5 v=64
17484 Off ch=1 n=f5 v=64
17484 Off ch=1 n=g#5 v=64
17484 On ch=1 n=g#5 v=80
17484 On ch=1 n=d#5 v=80
17484 On ch=1 n=c5 v=80
17484 On ch=1 n=g#4 v=80
17484 On ch=1 n=f#4 v=80
17724 Off ch=1 n=f#4 v=64
17724 Off ch=1 n=g#4 v=64
17724 Off ch=1 n=c5 v=64
17724 Off ch=1 n=d#5 v=64
17724 Off ch=1 n=g#5 v=64
17724 On ch=1 n=g#5 v=80
17724 On ch=1 n=c#5 v=80
17724 On ch=1 n=f4 v=80
17924 Off ch=1 n=f4 v=64
17924 Off ch=1 n=c#5 v=64
17924 Off ch=1 n=g#5 v=64
18204 On ch=1 n=f5 v=80
18204 On ch=1 n=c#5 v=80
18204 On ch=1 n=a4 v=80
18204 On ch=1 n=d#4 v=80
18444 Off ch=1 n=d#4 v=64
18444 Off ch=1 n=a4 v=64
18444 Off ch=1 n=c#5 v=64
18444 Off ch=1 n=f5 v=64
18444 On ch=1 n=f5 v=80
18444 On ch=1 n=c5 v=80
18444 On ch=1 n=a4 v=80
18444 On ch=1 n=d#4 v=80
18684 Off ch=1 n=d#4 v=64
18684 Off ch=1 n=a4 v=64
18684 Off ch=1 n=c5 v=64
18684 Off ch=1 n=f5 v=64
18684 On ch=1 n=a#4 v=80
18684 On ch=1 n=c#4 v=80
19104 Off ch=1 n=c#4 v=64
19104 Off ch=1 n=a#4 v=64
19164 Par ch=1 c=7 v=32
19164 On ch=1 n=a#4 v=32
19164 On ch=1 n=f4 v=32
19164 On ch=1 n=a#3 v=32
19364 Off ch=1 n=a#3 v=64
19364 Off ch=1 n=f4 v=64
19364 Off ch=1 n=a#4 v=64
19404 On ch=1 n=a#4 v=32
19581 Off ch=1 n=a#4 v=64
19584 On ch=1 n=a#4 v=32
19641 Off ch=1 n=a#4 v=64
19644 On ch=1 n=a#4 v=32
19644 On ch=1 n=f4 v=32
19844 Off ch=1 n=f4 v=64
19844 Off ch=1 n=a#4 v=64
19884 On ch=1 n=c#5 v=32
19884 On ch=1 n=f#4 v=32
20061 Off ch=1 n=c#5 v=64
20064 On ch=1 n=c5 v=32
20084 Off ch=1 n=f#4 v=64
20121 Off ch=1 n=c5 v=64
20124 On ch=1 n=c#5 v=32
20124 On ch=1 n=f4 v=32
20151 Off ch=1 n=c#5 v=64
20154 On ch=1 n=c5 v=32
20301 Off ch=1 n=c5 v=64
20304 On ch=1 n=a#4 v=32
20324 Off ch=1 n=f4 v=64
20361 Off ch=1 n=a#4 v=64
20364 On ch=1 n=a#4 v=32
20541 Off ch=1 n=a#4 v=64
20544 On ch=1 n=a#4 v=32
20601 Off ch=1 n=a#4 v=64
20604 On ch=1 n=a#4 v=32
20804 Off ch=1 n=a#4 v=64
20844 Par ch=1 c=7 v=112
20844 On ch=1 n=c#5 v=112
20844 On ch=1 n=g4 v=112
20844 On ch=1 n=e4 v=112
21021 Off ch=1 n=e4 v=64
21021 Off ch=1 n=g4 v=64
21021 Off ch=1 n=c#5 v=64
21024 On ch=1 n=d#5 v=112
21024 On ch=1 n=c5 v=112
21024 On ch=1 n=f#4 v=112
21081 Off ch=1 n=f#4 v=64
21081 Off ch=1 n=c5 v=64
21081 Off ch=1 n=d#5 v=64
21084 Par ch=1 c=7 v=96
21084 On ch=1 n=f5 v=96
21084 On ch=1 n=c#5 v=96
21084 On ch=1 n=g#4 v=96
21124 Par ch=1 c=7 v=97
21164 Par ch=1 c=7 v=98
21204 Par ch=1 c=7 v=99
21244 Par ch=1 c=7 v=100
21284 Off ch=1 n=g#4 v=64
21284 Off ch=1 n=c#5 v=64
21284 Off ch=1 n=f5 v=64
21284 Par ch=1 c=7 v=101
21324 Par ch=1 c=7 v=102
21324 On ch=1 n=f6 v=97
21324 On ch=1 n=c#6 v=97
21324 On ch=1 n=f5 v=97
21364 Par ch=1 c=7 v=103
21404 Par ch=1 c=7 v=104
21444 Par ch=1 c=7 v=105
21484 Par ch=1 c=7 v=106
21501 Off ch=1 n=f5 v=64
21501 Off ch=1 n=c#6 v=64
21501 Off ch=1 n=f6 v=64
21504 On ch=1 n=f#6 v=98
21504 On ch=1 n=f#5 v=98
21524 Par ch=1 c=7 v=107
21561 Off ch=1 n=f#5 v=64
21561 Off ch=1 n=f#6 v=64
21564 Par ch=1 c=7 v=108
21564 On ch=1 n=g#6 v=99
21564 On ch=1 n=c#6 v=99
21564 On ch=1 n=g#5 v=99
21604 Par ch=1 c=7 v=109
21644 Par ch=1 c=7 v=110
21684 Par ch=1 c=7 v=111
21724 Par ch=1 c=7 v=112
21741 Off ch=1 n=g#5 v=64
21741 Off ch=1 n=c#6 v=64
21741 Off ch=1 n=g#6 v=64
21744 On ch=1 n=a#6 v=100
21744 On ch=1 n=a#5 v=100
21764 Par ch=1 c=7 v=113
21801 Off ch=1 n=a#5 v=64
21801 Off ch=1 n=a#6 v=64
21804 Par ch=1 c=7 v=114
21804 On ch=1 n=c7 v=101
21804 On ch=1 n=g#6 v=101
21804 On ch=1 n=c6 v=101
21844 Par ch=1 c=7 v=115
21884 Par ch=1 c=7 v=116
21924 Par ch=1 c=7 v=117
21964 Par ch=1 c=7 v=118
21981 Off ch=1 n=c6 v=64
21981 Off ch=1 n=g#6 v=64
21981 Off ch=1 n=c7 v=64
21984 On ch=1 n=c#7 v=102
21984 On ch=1 n=c#6 v=102
22004 Par ch=1 c=7 v=119
22041 Off ch=1 n=c#6 v=64
22041 Off ch=1 n=c#7 v=64
22044 Par ch=1 c=7 v=120
22044 On ch=1 n=f6 v=120
22044 On ch=1 n=g#6 v=120
22044 On ch=1 n=c7 v=120
22044 On ch=1 n=f7 v=120
22524 Off ch=1 n=f7 v=64
22524 Off ch=1 n=f6 v=64
22524 On ch=1 n=d#6 v=120
22524 On ch=1 n=d#7 v=120
22534 Par ch=1 c=7 v=119
22544 Par ch=1 c=7 v=118
22555 Par ch=1 c=7 v=117
22565 Par ch=1 c=7 v=116
22575 Par ch=1 c=7 v=115
22586 Par ch=1 c=7 v=114
22596 Par ch=1 c=7 v=113
22607 Par ch=1 c=7 v=112
22617 Par ch=1 c=7 v=111
22627 Par ch=1 c=7 v=110
22639 Par ch=1 c=7 v=109
22649 Par ch=1 c=7 v=108
22660 Par ch=1 c=7 v=107
22670 Par ch=1 c=7 v=106
22680 Par ch=1 c=7 v=105
22691 Par ch=1 c=7 v=104
22701 Par ch=1 c=7 v=103
22712 Par ch=1 c=7 v=102
22722 Par ch=1 c=7 v=101
22732 Par ch=1 c=7 v=100
22744 Par ch=1 c=7 v=99
22754 Par ch=1 c=7 v=98
22765 Par ch=1 c=7 v=97
22775 Par ch=1 c=7 v=96
22785 Par ch=1 c=7 v=95
22796 Par ch=1 c=7 v=94
22806 Par ch=1 c=7 v=93
22817 Par ch=1 c=7 v=92
22827 Par ch=1 c=7 v=91
22837 Par ch=1 c=7 v=90
22844 Off ch=1 n=d#7 v=64
22844 Off ch=1 n=d#6 v=64
22844 Off ch=1 n=c7 v=64
22844 Off ch=1 n=g#6 v=64
22849 Par ch=1 c=7 v=89
22859 Par ch=1 c=7 v=88
22870 Par ch=1 c=7 v=87
22880 Par ch=1 c=7 v=86
22890 Par ch=1 c=7 v=85
22901 Par ch=1 c=7 v=84
22911 Par ch=1 c=7 v=83
22922 Par ch=1 c=7 v=82
22932 Par ch=1 c=7 v=81
22942 Par ch=1 c=7 v=80
22944 On ch=1 n=f#6 v=80
22944 On ch=1 n=d#6 v=80
22944 On ch=1 n=c6 v=80
22944 On ch=1 n=f#5 v=80
22944 Par ch=1 c=7 v=80
23004 Off ch=1 n=f#5 v=64
23004 Off ch=1 n=c6 v=64
23004 Off ch=1 n=d#6 v=64
23004 Off ch=1 n=f#6 v=64
23004 On ch=1 n=f5 v=80
23004 On ch=1 n=c6 v=80
23004 On ch=1 n=d#6 v=80
23004 On ch=1 n=f6 v=80
23244 Off ch=1 n=f6 v=64
23244 Off ch=1 n=d#6 v=64
23244 Off ch=1 n=c6 v=64
23244 Off ch=1 n=f5 v=64
23244 On ch=1 n=f5 v=80
23244 On ch=1 n=a#5 v=80
23244 On ch=1 n=c#6 v=80
23244 On ch=1 n=f6 v=80
23424 Off ch=1 n=f6 v=64
23424 Off ch=1 n=c#6 v=64
23424 Off ch=1 n=a#5 v=64
23424 Off ch=1 n=f5 v=64
23424 On ch=1 n=g5 v=80
23424 On ch=1 n=g6 v=80
23484 Off ch=1 n=g6 v=64
23484 Off ch=1 n=g5 v=64
23484 On ch=1 n=a5 v=80
23484 On ch=1 n=c#6 v=80
23484 On ch=1 n=f6 v=80
23484 On ch=1 n=a6 v=80
23664 Off ch=1 n=a6 v=64
23664 Off ch=1 n=f6 v=64
23664 Off ch=1 n=c#6 v=64
23664 Off ch=1 n=a5 v=64
23664 On ch=1 n=a#5 v=80
23664 On ch=1 n=a#6 v=80
23724 Off ch=1 n=a#6 v=64
23724 Off ch=1 n=a#5 v=64
23724 On ch=1 n=c6 v=80
23724 On ch=1 n=c7 v=80
23904 Off ch=1 n=c7 v=64
23904 Off ch=1 n=c6 v=64
23904 On ch=1 n=c#7 v=80
23904 On ch=1 n=c#6 v=80
23964 Off ch=1 n=c#6 v=64
23964 Off ch=1 n=c#7 v=64
23964 On ch=1 n=a#5 v=80
23964 On ch=1 n=c#6 v=80
23964 On ch=1 n=e6 v=80
23964 On ch=1 n=g6 v=80
23964 On ch=1 n=c#7 v=80
24204 On ch=1 n=c#5 v=80
24204 On ch=1 n=g5 v=80
24444 Off ch=1 n=g5 v=64
24444 Off ch=1 n=c#5 v=64
24444 Off ch=1 n=c#7 v=64
24444 Off ch=1 n=g6 v=64
24444 Off ch=1 n=e6 v=64
24444 Off ch=1 n=c#6 v=64
24444 Off ch=1 n=a#5 v=64
24444 On ch=1 n=a5 v=80
24444 On ch=1 n=c6 v=80
24444 On ch=1 n=f6 v=80
24444 On ch=1 n=c7 v=80
24644 Off ch=1 n=c7 v=64
24644 Off ch=1 n=f6 v=64
24644 Off ch=1 n=c6 v=64
24644 Off ch=1 n=a5 v=64
24924 On ch=1 n=f#4 v=80
24924 On ch=1 n=g#4 v=80
24924 On ch=1 n=c5 v=80
24924 On ch=1 n=f5 v=80
24924 On ch=1 n=g#5 v=80
25164 Off ch=1 n=g#5 v=64
25164 Off ch=1 n=f5 v=64
25164 Off ch=1 n=c5 v=64
25164 Off ch=1 n=g#4 v=64
25164 Off ch=1 n=f#4 v=64
25164 On ch=1 n=f#4 v=80
25164 On ch=1 n=g#4 v=80
25164 On ch=1 n=c5 v=80
25164 On ch=1 n=d#5 v=80
25164 On ch=1 n=g#5 v=80
25404 Off ch=1 n=g#5 v=64
25404 Off ch=1 n=d#5 v=64
25404 Off ch=1 n=c5 v=64
25404 Off ch=1 n=g#4 v=64
25404 Off ch=1 n=f#4 v=64
25404 On ch=1 n=f4 v=80
25404 On ch=1 n=c#5 v=80
25404 On ch=1 n=g#5 v=80
25604 Off ch=1 n=g#5 v=64
25604 Off ch=1 n=c#5 v=64
25604 Off ch=1 n=f4 v=64
25884 On ch=1 n=d#4 v=80
25884 On ch=1 n=a4 v=80
25884 On ch=1 n=c#5 v=80
25884 On ch=1 n=f5 v=80
26124 Off ch=1 n=f5 v=64
26124 Off ch=1 n=c#5 v=64
26124 Off ch=1 n=a4 v=64
26124 Off ch=1 n=d#4 v=64
26124 On ch=1 n=d#4 v=80
26124 On ch=1 n=a4 v=80
26124 On ch=1 n=c5 v=80
26124 On ch=1 n=f5 v=80
26364 Off ch=1 n=f5 v=64
26364 Off ch=1 n=c5 v=64
26364 Off ch=1 n=a4 v=64
26364 Off ch=1 n=d#4 v=64
26364 On ch=1 n=c#4 v=80
26364 On ch=1 n=a#4 v=80
26784 Off ch=1 n=a#4 v=64
26784 Off ch=1 n=c#4 v=64
26844 Par ch=1 c=7 v=32
26844 On ch=1 n=a#3 v=32
26844 On ch=1 n=f4 v=32
26844 On ch=1 n=a#4 v=32
27044 Off ch=1 n=a#4 v=64
27044 Off ch=1 n=f4 v=64
27044 Off ch=1 n=a#3 v=64
27084 On ch=1 n=a#4 v=32
27261 Off ch=1 n=a#4 v=64
27264 On ch=1 n=a#4 v=32
27321 Off ch=1 n=a#4 v=64
27324 On ch=1 n=f4 v=32
27324 On ch=1 n=a#4 v=32
27524 Off ch=1 n=a#4 v=64
27524 Off ch=1 n=f4 v=64
27564 On ch=1 n=f#4 v=32
27564 On ch=1 n=c#5 v=32
27741 Off ch=1 n=c#5 v=64
27744 On ch=1 n=c5 v=32
27764 Off ch=1 n=f#4 v=64
27801 Off ch=1 n=c5 v=64
27804 On ch=1 n=f4 v=32
27804 On ch=1 n=c#5 v=32
27831 Off ch=1 n=c#5 v=64
27834 On ch=1 n=c5 v=32
27981 Off ch=1 n=c5 v=64
27984 On ch=1 n=a#4 v=32
28004 Off ch=1 n=f4 v=64
28041 Off ch=1 n=a#4 v=64
28044 On ch=1 n=a#4 v=32
28221 Off ch=1 n=a#4 v=64
28224 On ch=1 n=a#4 v=32
28281 Off ch=1 n=a#4 v=64
28284 On ch=1 n=f4 v=32
28284 On ch=1 n=a#4 v=32
28484 Off ch=1 n=a#4 v=64
28484 Off ch=1 n=f4 v=64
28764 Par ch=1 c=7 v=24
28764 On ch=1 n=f6 v=24
29244 Off ch=1 n=f6 v=64
29244 On ch=1 n=f#6 v=24
29364 Off ch=1 n=f#6 v=64
29364 On ch=1 n=f6 v=24
29484 Off ch=1 n=f6 v=64
29484 On ch=1 n=d#6 v=24
29604 Off ch=1 n=d#6 v=64
29604 On ch=1 n=c#6 v=24
29724 Off ch=1 n=c#6 v=64
29724 On ch=1 n=c6 v=24
29964 Off ch=1 n=c6 v=64
29964 On ch=1 n=a#6 v=24
30204 Off ch=1 n=a#6 v=64
30204 On ch=1 n=g#6 v=24
30624 Off ch=1 n=g#6 v=64
30684 On ch=1 n=f#6 v=24
31164 Off ch=1 n=f#6 v=64
31164 On ch=1 n=g#6 v=24
31284 Off ch=1 n=g#6 v=64
31284 On ch=1 n=f#6 v=24
31404 Off ch=1 n=f#6 v=64
31404 On ch=1 n=f6 v=24
31524 Off ch=1 n=f6 v=64
31524 On ch=1 n=d#6 v=24
31644 Off ch=1 n=d#6 v=64
31644 On ch=1 n=c#6 v=24
31884 Off ch=1 n=c#6 v=64
31884 On ch=1 n=c#7 v=24
32124 Off ch=1 n=c#7 v=64
32124 On ch=1 n=g#6 v=24
32544 Off ch=1 n=g#6 v=64
32604 On ch=1 n=f6 v=24
33084 Off ch=1 n=f6 v=64
33084 On ch=1 n=f#6 v=24
33204 Off ch=1 n=f#6 v=64
33204 On ch=1 n=f6 v=24
33324 Off ch=1 n=f6 v=64
33324 On ch=1 n=d#6 v=24
33444 Off ch=1 n=d#6 v=64
33444 On ch=1 n=d6 v=24
33564 Off ch=1 n=d6 v=64
33564 On ch=1 n=d#6 v=24
33574 Off ch=1 n=d#6 v=64
33574 On ch=1 n=f6 v=24
33584 Off ch=1 n=f6 v=64
33584 On ch=1 n=d#6 v=24
33684 Off ch=1 n=d#6 v=64
33684 On ch=1 n=d6 v=24
33804 Off ch=1 n=d6 v=64
33804 On ch=1 n=d#6 v=24
33924 Off ch=1 n=d#6 v=64
33924 On ch=1 n=f6 v=24
34044 Off ch=1 n=f6 v=64
34044 On ch=1 n=f#6 v=24
34161 Off ch=1 n=f#6 v=64
34164 On ch=1 n=a#5 v=24
34284 Off ch=1 n=a#5 v=64
34284 On ch=1 n=f6 v=24
34404 Off ch=1 n=f6 v=64
34404 On ch=1 n=d#6 v=24
34521 Off ch=1 n=d#6 v=64
34524 On ch=1 n=c6 v=24
34581 Off ch=1 n=c6 v=64
34584 On ch=1 n=c#6 v=24
34641 Off ch=1 n=c#6 v=64
34644 On ch=1 n=d#6 v=24
34671 Off ch=1 n=d#6 v=64
34674 On ch=1 n=c#6 v=24
34701 Off ch=1 n=c#6 v=64
34704 On ch=1 n=d#6 v=24
34731 Off ch=1 n=d#6 v=64
34734 On ch=1 n=c#6 v=24
34761 Off ch=1 n=c#6 v=64
34764 On ch=1 n=d#6 v=24
34791 Off ch=1 n=d#6 v=64
34794 On ch=1 n=c#6 v=24
34821 Off ch=1 n=c#6 v=64
34824 On ch=1 n=d#6 v=24
34851 Off ch=1 n=d#6 v=64
34854 On ch=1 n=c#6 v=24
34881 Off ch=1 n=c#6 v=64
34884 On ch=1 n=c6 v=24
34941 Off ch=1 n=c6 v=64
34944 On ch=1 n=c#6 v=24
35001 Off ch=1 n=c#6 v=64
35004 On ch=1 n=a#6 v=24
35121 Off ch=1 n=a#6 v=64
35124 On ch=1 n=g#6 v=24
35241 Off ch=1 n=g#6 v=64
35244 On ch=1 n=f#6 v=24
35361 Off ch=1 n=f#6 v=64
35364 On ch=1 n=g#5 v=24
35481 Off ch=1 n=g#5 v=64
35484 On ch=1 n=d#6 v=24
35904 Off ch=1 n=d#6 v=64
35964 On ch=1 n=c#6 v=24
36164 Off ch=1 n=c#6 v=64
36444 Par ch=1 c=7 v=24
36444 On ch=1 n=f6 v=24
36924 Off ch=1 n=f6 v=64
36924 On ch=1 n=f#6 v=24
37044 Off ch=1 n=f#6 v=64
37044 On ch=1 n=f6 v=24
37164 Off ch=1 n=f6 v=64
37164 On ch=1 n=d#6 v=24
37284 Off ch=1 n=d#6 v=64
37284 On ch=1 n=c#6 v=24
37404 Off ch=1 n=c#6 v=64
37404 On ch=1 n=c6 v=24
37644 Off ch=1 n=c6 v=64
37644 On ch=1 n=a#6 v=24
37884 Off ch=1 n=a#6 v=64
37884 On ch=1 n=g#6 v=24
38304 Off ch=1 n=g#6 v=64
38364 On ch=1 n=f#6 v=24
38844 Off ch=1 n=f#6 v=64
38844 On ch=1 n=g#6 v=24
38964 Off ch=1 n=g#6 v=64
38964 On ch=1 n=f#6 v=24
39084 Off ch=1 n=f#6 v=64
39084 On ch=1 n=f6 v=24
39204 Off ch=1 n=f6 v=64
39204 On ch=1 n=d#6 v=24
39324 Off ch=1 n=d#6 v=64
39324 On ch=1 n=c#6 v=24
39564 Off ch=1 n=c#6 v=64
39564 On ch=1 n=c#7 v=24
39804 Off ch=1 n=c#7 v=64
39804 On ch=1 n=g#6 v=24
40224 Off ch=1 n=g#6 v=64
40284 On ch=1 n=f6 v=24
40764 Off ch=1 n=f6 v=64
40764 On ch=1 n=f#6 v=24
40884 Off ch=1 n=f#6 v=64
40884 On ch=1 n=f6 v=24
41004 Off ch=1 n=f6 v=64
41004 On ch=1 n=d#6 v=24
41124 Off ch=1 n=d#6 v=64
41124 On ch=1 n=d6 v=24
41244 Off ch=1 n=d6 v=64
41244 On ch=1 n=d#6 v=24
41254 Off ch=1 n=d#6 v=64
41254 On ch=1 n=f6 v=24
41264 Off ch=1 n=f6 v=64
41264 On ch=1 n=d#6 v=24
41364 Off ch=1 n=d#6 v=64
41364 On ch=1 n=d6 v=24
41484 Off ch=1 n=d6 v=64
41484 On ch=1 n=d#6 v=24
41604 Off ch=1 n=d#6 v=64
41604 On ch=1 n=f6 v=24
41724 Off ch=1 n=f6 v=64
41724 On ch=1 n=f#6 v=24
41841 Off ch=1 n=f#6 v=64
41844 On ch=1 n=a#5 v=24
41964 Off ch=1 n=a#5 v=64
41964 On ch=1 n=f6 v=24
42084 Off ch=1 n=f6 v=64
42084 On ch=1 n=d#6 v=24
42201 Off ch=1 n=d#6 v=64
42204 On ch=1 n=c6 v=24
42261 Off ch=1 n=c6 v=64
42264 On ch=1 n=c#6 v=24
42321 Off ch=1 n=c#6 v=64
42324 On ch=1 n=d#6 v=24
42351 Off ch=1 n=d#6 v=64
42354 On ch=1 n=c#6 v=24
42381 Off ch=1 n=c#6 v=64
42384 On ch=1 n=d#6 v=24
42411 Off ch=1 n=d#6 v=64
42414 On ch=1 n=c#6 v=24
42441 Off ch=1 n=c#6 v=64
42444 On ch=1 n=d#6 v=24
42471 Off ch=1 n=d#6 v=64
42474 On ch=1 n=c#6 v=24
42501 Off ch=1 n=c#6 v=64
42504 On ch=1 n=d#6 v=24
42531 Off ch=1 n=d#6 v=64
42534 On ch=1 n=c#6 v=24
42561 Off ch=1 n=c#6 v=64
42564 On ch=1 n=c6 v=24
42621 Off ch=1 n=c6 v=64
42624 On ch=1 n=c#6 v=24
42681 Off ch=1 n=c#6 v=64
42684 On ch=1 n=a#6 v=24
42801 Off ch=1 n=a#6 v=64
42804 On ch=1 n=g#6 v=24
42921 Off ch=1 n=g#6 v=64
42924 On ch=1 n=f#6 v=24
43041 Off ch=1 n=f#6 v=64
43044 On ch=1 n=g#5 v=24
43161 Off ch=1 n=g#5 v=64
43164 On ch=1 n=d#6 v=24
43584 Off ch=1 n=d#6 v=64
43644 On ch=1 n=c#6 v=24
43844 Off ch=1 n=c#6 v=64
44124 On ch=1 n=c6 v=24
44604 Off ch=1 n=c6 v=64
44604 On ch=1 n=c#6 v=24
44724 Off ch=1 n=c#6 v=64
44724 On ch=1 n=c6 v=24
44844 Off ch=1 n=c6 v=64
44844 On ch=1 n=a#5 v=24
44964 Off ch=1 n=a#5 v=64
44964 On ch=1 n=g#5 v=24
45084 Off ch=1 n=g#5 v=64
45084 On ch=1 n=g5 v=24
45187 Par ch=1 c=7 v=25
45291 Par ch=1 c=7 v=26
45324 Off ch=1 n=g5 v=64
45324 On ch=1 n=f6 v=25
45395 Par ch=1 c=7 v=27
45499 Par ch=1 c=7 v=28
45564 Off ch=1 n=f6 v=64
45564 On ch=1 n=d#6 v=26
45602 Par ch=1 c=7 v=29
45707 Par ch=1 c=7 v=30
45811 Par ch=1 c=7 v=31
45915 Par ch=1 c=7 v=32
45984 Off ch=1 n=d#6 v=64
46019 Par ch=1 c=7 v=33
46044 On ch=1 n=c#6 v=27
46122 Par ch=1 c=7 v=34
46227 Par ch=1 c=7 v=35
46331 Par ch=1 c=7 v=36
46435 Par ch=1 c=7 v=37
46524 Off ch=1 n=c#6 v=64
46524 On ch=1 n=d#6 v=28
46539 Par ch=1 c=7 v=38
46642 Par ch=1 c=7 v=39
46644 Off ch=1 n=d#6 v=64
46644 On ch=1 n=c#6 v=29
46747 Par ch=1 c=7 v=40
46764 Off ch=1 n=c#6 v=64
46764 On ch=1 n=c6 v=30
46851 Par ch=1 c=7 v=41
46884 Off ch=1 n=c6 v=64
46884 On ch=1 n=a#5 v=31
46955 Par ch=1 c=7 v=42
47004 Off ch=1 n=a#5 v=64
47004 On ch=1 n=a5 v=32
47059 Par ch=1 c=7 v=43
47162 Par ch=1 c=7 v=44
47244 Off ch=1 n=a5 v=64
47244 On ch=1 n=f#6 v=33
47267 Par ch=1 c=7 v=45
47371 Par ch=1 c=7 v=46
47475 Par ch=1 c=7 v=47
47484 Off ch=1 n=f#6 v=64
47484 On ch=1 n=f6 v=34
47579 Par ch=1 c=7 v=48
47682 Par ch=1 c=7 v=49
47787 Par ch=1 c=7 v=50
47891 Par ch=1 c=7 v=51
47901 Off ch=1 n=f6 v=64
47961 On ch=1 n=f6 v=35
47992 Par ch=1 c=7 v=52
48096 Par ch=1 c=7 v=53
48199 Par ch=1 c=7 v=54
48304 Par ch=1 c=7 v=55
48408 Par ch=1 c=7 v=56
48441 Off ch=1 n=f6 v=64
48441 On ch=1 n=f#6 v=36
48512 Par ch=1 c=7 v=57
48561 Off ch=1 n=f#6 v=64
48561 On ch=1 n=f6 v=37
48616 Par ch=1 c=7 v=58
48681 Off ch=1 n=f6 v=64
48681 On ch=1 n=d#6 v=38
48719 Par ch=1 c=7 v=59
48801 Off ch=1 n=d#6 v=64
48801 On ch=1 n=c#6 v=39
48824 Par ch=1 c=7 v=60
48921 Off ch=1 n=c#6 v=64
48921 On ch=1 n=c#6 v=40
48928 Par ch=1 c=7 v=61
49032 Par ch=1 c=7 v=62
49136 Par ch=1 c=7 v=63
49161 Off ch=1 n=c#6 v=64
49161 On ch=1 n=c6 v=41
49239 Par ch=1 c=7 v=64
49344 Par ch=1 c=7 v=65
49361 Off ch=1 n=c6 v=64
49448 Par ch=1 c=7 v=66
49521 On ch=1 n=c6 v=43
49552 Par ch=1 c=7 v=67
49641 Off ch=1 n=c6 v=64
49641 On ch=1 n=d#6 v=44
49656 Par ch=1 c=7 v=68
49671 Off ch=1 n=d#6 v=64
49671 On ch=1 n=c#6 v=45
49759 Par ch=1 c=7 v=69
49821 Off ch=1 n=c#6 v=64
49821 On ch=1 n=c6 v=47
49864 Par ch=1 c=7 v=70
49881 Off ch=1 n=c6 v=64
49881 On ch=1 n=c6 v=48
49968 Par ch=1 c=7 v=71
50072 Par ch=1 c=7 v=72
50121 Off ch=1 n=c6 v=64
50121 On ch=1 n=a#5 v=49
50176 Par ch=1 c=7 v=73
50279 Par ch=1 c=7 v=74
50321 Off ch=1 n=a#5 v=64
50384 Par ch=1 c=7 v=75
50481 On ch=1 n=c6 v=51
50488 Par ch=1 c=7 v=76
50592 Par ch=1 c=7 v=77
50601 Off ch=1 n=c6 v=64
50601 On ch=1 n=d#6 v=52
50631 Off ch=1 n=d#6 v=64
50631 On ch=1 n=c#6 v=53
50696 Par ch=1 c=7 v=78
50781 Off ch=1 n=c#6 v=64
50781 On ch=1 n=c6 v=55
50799 Par ch=1 c=7 v=79
50841 Off ch=1 n=c6 v=64
50841 On ch=1 n=c6 v=56
50904 Par ch=1 c=7 v=80
51008 Par ch=1 c=7 v=81
51081 Off ch=1 n=c6 v=64
51081 On ch=1 n=f6 v=57
51112 Par ch=1 c=7 v=82
51216 Par ch=1 c=7 v=83
51319 Par ch=1 c=7 v=84
51321 Off ch=1 n=f6 v=64
51321 Par ch=1 c=7 v=84
51321 On ch=1 n=f#6 v=84
51329 Par ch=1 c=7 v=83
51338 Par ch=1 c=7 v=82
51348 Par ch=1 c=7 v=81
51357 Par ch=1 c=7 v=80
51366 Par ch=1 c=7 v=79
51376 Par ch=1 c=7 v=78
51384 Par ch=1 c=7 v=77
51394 Par ch=1 c=7 v=76
51403 Par ch=1 c=7 v=75
51412 Par ch=1 c=7 v=74
51422 Par ch=1 c=7 v=73
51431 Par ch=1 c=7 v=72
51441 Par ch=1 c=7 v=71
51449 Par ch=1 c=7 v=70
51458 Par ch=1 c=7 v=69
51468 Par ch=1 c=7 v=68
51477 Par ch=1 c=7 v=67
51486 Par ch=1 c=7 v=66
51496 Par ch=1 c=7 v=65
51504 Par ch=1 c=7 v=64
51514 Par ch=1 c=7 v=63
51523 Par ch=1 c=7 v=62
51532 Par ch=1 c=7 v=61
51542 Par ch=1 c=7 v=60
51551 Par ch=1 c=7 v=59
51561 Off ch=1 n=f#6 v=64
51561 Par ch=1 c=7 v=58
51561 On ch=1 n=g#5 v=78
51569 Par ch=1 c=7 v=57
51578 Par ch=1 c=7 v=56
51588 Par ch=1 c=7 v=55
51597 Par ch=1 c=7 v=54
51606 Par ch=1 c=7 v=53
51616 Par ch=1 c=7 v=52
51624 Par ch=1 c=7 v=51
51634 Par ch=1 c=7 v=50
51643 Par ch=1 c=7 v=49
51652 Par ch=1 c=7 v=48
51662 Par ch=1 c=7 v=47
51671 Par ch=1 c=7 v=46
51681 Par ch=1 c=7 v=45
51689 Par ch=1 c=7 v=44
51698 Par ch=1 c=7 v=43
51708 Par ch=1 c=7 v=42
51717 Par ch=1 c=7 v=41
51726 Par ch=1 c=7 v=40
51736 Par ch=1 c=7 v=39
51744 Par ch=1 c=7 v=38
51754 Par ch=1 c=7 v=37
51761 Off ch=1 n=g#5 v=64
51763 Par ch=1 c=7 v=36
51772 Par ch=1 c=7 v=35
51782 Par ch=1 c=7 v=34
51791 Par ch=1 c=7 v=33
51801 Par ch=1 c=7 v=32
51801 On ch=1 n=f6 v=32
52281 Off ch=1 n=f6 v=64
52281 On ch=1 n=f#6 v=32
52401 Off ch=1 n=f#6 v=64
52401 On ch=1 n=f6 v=32
52521 Off ch=1 n=f6 v=64
52521 On ch=1 n=d#6 v=32
52641 Off ch=1 n=d#6 v=64
52641 On ch=1 n=c#6 v=32
52761 Off ch=1 n=c#6 v=64
52761 On ch=1 n=c6 v=32
53001 Off ch=1 n=c6 v=64
53001 On ch=1 n=a#6 v=32
53241 Off ch=1 n=a#6 v=64
53241 On ch=1 n=g#6 v=32
53661 Off ch=1 n=g#6 v=64
53721 On ch=1 n=f#6 v=32
54201 Off ch=1 n=f#6 v=64
54201 On ch=1 n=g#6 v=32
54321 Off ch=1 n=g#6 v=64
54321 On ch=1 n=f#6 v=32
54441 Off ch=1 n=f#6 v=64
54441 On ch=1 n=f6 v=32
54561 Off ch=1 n=f6 v=64
54561 On ch=1 n=d#6 v=32
54681 Off ch=1 n=d#6 v=64
54681 On ch=1 n=c#6 v=32
54921 Off ch=1 n=c#6 v=64
54921 On ch=1 n=c#7 v=32
55161 Off ch=1 n=c#7 v=64
55161 On ch=1 n=g#6 v=32
55581 Off ch=1 n=g#6 v=64
55641 On ch=1 n=f6 v=32
56121 Off ch=1 n=f6 v=64
56121 On ch=1 n=f#6 v=32
56241 Off ch=1 n=f#6 v=64
56241 On ch=1 n=f6 v=32
56361 Off ch=1 n=f6 v=64
56361 On ch=1 n=d#6 v=32
56481 Off ch=1 n=d#6 v=64
56481 On ch=1 n=d6 v=32
56601 Off ch=1 n=d6 v=64
56601 On ch=1 n=d#6 v=32
56611 Off ch=1 n=d#6 v=64
56611 On ch=1 n=f6 v=32
56621 Off ch=1 n=f6 v=64
56621 On ch=1 n=d#6 v=32
56721 Off ch=1 n=d#6 v=64
56721 On ch=1 n=d6 v=32
56841 Off ch=1 n=d6 v=64
56841 On ch=1 n=d#6 v=32
56961 Off ch=1 n=d#6 v=64
56961 On ch=1 n=f6 v=32
57081 Off ch=1 n=f6 v=64
57081 On ch=1 n=f#6 v=32
57198 Off ch=1 n=f#6 v=64
57201 On ch=1 n=a#5 v=32
57321 Off ch=1 n=a#5 v=64
57321 On ch=1 n=f6 v=32
57441 Off ch=1 n=f6 v=64
57441 On ch=1 n=d#6 v=32
57558 Off ch=1 n=d#6 v=64
57561 On ch=1 n=c6 v=32
57618 Off ch=1 n=c6 v=64
57621 On ch=1 n=c#6 v=32
57678 Off ch=1 n=c#6 v=64
57681 On ch=1 n=d#6 v=32
57708 Off ch=1 n=d#6 v=64
57711 On ch=1 n=c#6 v=32
57738 Off ch=1 n=c#6 v=64
57741 On ch=1 n=d#6 v=32
57768 Off ch=1 n=d#6 v=64
57771 On ch=1 n=c#6 v=32
57798 Off ch=1 n=c#6 v=64
57801 On ch=1 n=d#6 v=32
57828 Off ch=1 n=d#6 v=64
57831 On ch=1 n=c#6 v=32
57858 Off ch=1 n=c#6 v=64
57861 On ch=1 n=d#6 v=32
57888 Off ch=1 n=d#6 v=64
57891 On ch=1 n=c#6 v=32
57918 Off ch=1 n=c#6 v=64
57921 On ch=1 n=c6 v=32
57978 Off ch=1 n=c6 v=64
57981 On ch=1 n=c#6 v=32
58038 Off ch=1 n=c#6 v=64
58041 On ch=1 n=a#6 v=32
58158 Off ch=1 n=a#6 v=64
58161 On ch=1 n=g#6 v=32
58278 Off ch=1 n=g#6 v=64
58281 On ch=1 n=f#6 v=32
58398 Off ch=1 n=f#6 v=64
58401 On ch=1 n=g#5 v=32
58518 Off ch=1 n=g#5 v=64
58521 On ch=1 n=d#6 v=32
58941 Off ch=1 n=d#6 v=64
59001 On ch=1 n=c#6 v=32
59201 Off ch=1 n=c#6 v=64
59481 On ch=1 n=c6 v=32
59961 Off ch=1 n=c6 v=64
59961 On ch=1 n=c#6 v=32
60081 Off ch=1 n=c#6 v=64
60081 On ch=1 n=c6 v=32
60201 Off ch=1 n=c6 v=64
60201 On ch=1 n=a#5 v=32
60321 Off ch=1 n=a#5 v=64
60321 On ch=1 n=g#5 v=32
60441 Off ch=1 n=g#5 v=64
60441 On ch=1 n=g5 v=32
60561 Par ch=1 c=7 v=33
60681 Off ch=1 n=g5 v=64
60681 Par ch=1 c=7 v=34
60681 On ch=1 n=f6 v=33
60801 Par ch=1 c=7 v=35
60921 Off ch=1 n=f6 v=64
60921 Par ch=1 c=7 v=36
60921 On ch=1 n=d#6 v=34
61041 Par ch=1 c=7 v=37
61161 Par ch=1 c=7 v=38
61281 Par ch=1 c=7 v=39
61341 Off ch=1 n=d#6 v=64
61401 Par ch=1 c=7 v=40
61401 On ch=1 n=c#6 v=35
61521 Par ch=1 c=7 v=41
61641 Par ch=1 c=7 v=42
61761 Par ch=1 c=7 v=43
61881 Off ch=1 n=c#6 v=64
61881 Par ch=1 c=7 v=44
61881 On ch=1 n=d#6 v=36
62001 Off ch=1 n=d#6 v=64
62001 Par ch=1 c=7 v=45
62001 On ch=1 n=c#6 v=37
62121 Off ch=1 n=c#6 v=64
62121 Par ch=1 c=7 v=46
62121 On ch=1 n=c6 v=38
62241 Off ch=1 n=c6 v=64
62241 On ch=1 n=a#5 v=39
62241 Par ch=1 c=7 v=47
62361 Off ch=1 n=a#5 v=64
62361 Par ch=1 c=7 v=48
62361 On ch=1 n=a5 v=40
62481 Par ch=1 c=7 v=49
62601 Off ch=1 n=a5 v=64
62601 Par ch=1 c=7 v=50
62601 On ch=1 n=f#6 v=41
62721 Par ch=1 c=7 v=51
62841 Off ch=1 n=f#6 v=64
62841 Par ch=1 c=7 v=52
62841 On ch=1 n=f6 v=42
62961 Par ch=1 c=7 v=53
63081 Par ch=1 c=7 v=54
63201 Par ch=1 c=7 v=55
63261 Off ch=1 n=f6 v=64
63321 Par ch=1 c=7 v=56
63321 On ch=1 n=f6 v=43
63441 Par ch=1 c=7 v=57
63561 Par ch=1 c=7 v=58
63681 Par ch=1 c=7 v=59
63801 Off ch=1 n=f6 v=64
63801 Par ch=1 c=7 v=60
63801 On ch=1 n=f#6 v=44
63921 Off ch=1 n=f#6 v=64
63921 Par ch=1 c=7 v=61
63921 On ch=1 n=f6 v=45
64041 Off ch=1 n=f6 v=64
64041 Par ch=1 c=7 v=62
64041 On ch=1 n=d#6 v=46
64161 Off ch=1 n=d#6 v=64
64161 On ch=1 n=c#6 v=47
64161 Par ch=1 c=7 v=63
64281 Off ch=1 n=c#6 v=64
64281 Par ch=1 c=7 v=64
64281 On ch=1 n=c#6 v=48
64401 Par ch=1 c=7 v=65
64521 Off ch=1 n=c#6 v=64
64521 Par ch=1 c=7 v=66
64521 On ch=1 n=c6 v=49
64641 Par ch=1 c=7 v=67
64721 Off ch=1 n=c6 v=64
64761 Par ch=1 c=7 v=68
64881 Par ch=1 c=7 v=69
64881 On ch=1 n=c6 v=51
65001 Off ch=1 n=c6 v=64
65001 Par ch=1 c=7 v=70
65001 On ch=1 n=d#6 v=52
65031 Off ch=1 n=d#6 v=64
65031 On ch=1 n=c#6 v=53
65121 Par ch=1 c=7 v=71
65181 Off ch=1 n=c#6 v=64
65181 On ch=1 n=c6 v=55
65241 Off ch=1 n=c6 v=64
65241 Par ch=1 c=7 v=72
65241 On ch=1 n=c6 v=56
65361 Par ch=1 c=7 v=73
65481 Off ch=1 n=c6 v=64
65481 Par ch=1 c=7 v=74
65481 On ch=1 n=a#5 v=57
65601 Par ch=1 c=7 v=75
65681 Off ch=1 n=a#5 v=64
65721 Par ch=1 c=7 v=76
65841 Par ch=1 c=7 v=77
65841 On ch=1 n=c6 v=59
65961 Off ch=1 n=c6 v=64
65961 Par ch=1 c=7 v=78
65961 On ch=1 n=d#6 v=60
65991 Off ch=1 n=d#6 v=64
65991 On ch=1 n=c#6 v=61
66081 Par ch=1 c=7 v=79
66141 Off ch=1 n=c#6 v=64
66141 On ch=1 n=c6 v=63
66201 Off ch=1 n=c6 v=64
66201 Par ch=1 c=7 v=80
66201 On ch=1 n=c6 v=64
66321 Par ch=1 c=7 v=81
66441 Off ch=1 n=c6 v=64
66441 Par ch=1 c=7 v=82
66441 On ch=1 n=f6 v=65
66561 Par ch=1 c=7 v=83
66681 Off ch=1 n=f6 v=64
66681 Par ch=1 c=7 v=84
66681 On ch=1 n=f#6 v=84
66689 Par ch=1 c=7 v=83
66698 Par ch=1 c=7 v=82
66708 Par ch=1 c=7 v=81
66717 Par ch=1 c=7 v=80
66726 Par ch=1 c=7 v=79
66736 Par ch=1 c=7 v=78
66744 Par ch=1 c=7 v=77
66754 Par ch=1 c=7 v=76
66763 Par ch=1 c=7 v=75
66772 Par ch=1 c=7 v=74
66782 Par ch=1 c=7 v=73
66791 Par ch=1 c=7 v=72
66801 Par ch=1 c=7 v=71
66809 Par ch=1 c=7 v=70
66818 Par ch=1 c=7 v=69
66828 Par ch=1 c=7 v=68
66837 Par ch=1 c=7 v=67
66846 Par ch=1 c=7 v=66
66856 Par ch=1 c=7 v=65
66864 Par ch=1 c=7 v=64
66874 Par ch=1 c=7 v=63
66883 Par ch=1 c=7 v=62
66892 Par ch=1 c=7 v=61
66902 Par ch=1 c=7 v=60
66911 Par ch=1 c=7 v=59
66921 Off ch=1 n=f#6 v=64
66921 Par ch=1 c=7 v=58
66921 On ch=1 n=g#5 v=78
66929 Par ch=1 c=7 v=57
66938 Par ch=1 c=7 v=56
66948 Par ch=1 c=7 v=55
66957 Par ch=1 c=7 v=54
66966 Par ch=1 c=7 v=53
66976 Par ch=1 c=7 v=52
66984 Par ch=1 c=7 v=51
66994 Par ch=1 c=7 v=50
67003 Par ch=1 c=7 v=49
67012 Par ch=1 c=7 v=48
67022 Par ch=1 c=7 v=47
67031 Par ch=1 c=7 v=46
67041 Par ch=1 c=7 v=45
67049 Par ch=1 c=7 v=44
67058 Par ch=1 c=7 v=43
67068 Par ch=1 c=7 v=42
67077 Par ch=1 c=7 v=41
67086 Par ch=1 c=7 v=40
67096 Par ch=1 c=7 v=39
67104 Par ch=1 c=7 v=38
67114 Par ch=1 c=7 v=37
67121 Off ch=1 n=g#5 v=64
67123 Par ch=1 c=7 v=36
67132 Par ch=1 c=7 v=35
67142 Par ch=1 c=7 v=34
67151 Par ch=1 c=7 v=33
67161 Par ch=1 c=7 v=32
67161 On ch=1 n=f6 v=32
67641 Off ch=1 n=f6 v=64
67641 On ch=1 n=f#6 v=32
67761 Off ch=1 n=f#6 v=64
67761 On ch=1 n=f6 v=32
67881 Off ch=1 n=f6 v=64
67881 On ch=1 n=d#6 v=32
68001 Off ch=1 n=d#6 v=64
68001 On ch=1 n=c#6 v=32
68121 Off ch=1 n=c#6 v=64
68121 On ch=1 n=c6 v=32
68361 Off ch=1 n=c6 v=64
68361 On ch=1 n=a#6 v=32
68601 Off ch=1 n=a#6 v=64
68601 On ch=1 n=g#6 v=32
69021 Off ch=1 n=g#6 v=64
69081 On ch=1 n=f#6 v=32
69561 Off ch=1 n=f#6 v=64
69561 On ch=1 n=g#6 v=32
69681 Off ch=1 n=g#6 v=64
69681 On ch=1 n=f#6 v=32
69801 Off ch=1 n=f#6 v=64
69801 On ch=1 n=f6 v=32
69921 Off ch=1 n=f6 v=64
69921 On ch=1 n=d#6 v=32
70041 Off ch=1 n=d#6 v=64
70041 On ch=1 n=c#6 v=32
70281 Off ch=1 n=c#6 v=64
70281 On ch=1 n=c#7 v=32
70521 Off ch=1 n=c#7 v=64
70521 On ch=1 n=g#6 v=32
70941 Off ch=1 n=g#6 v=64
71001 On ch=1 n=f6 v=32
71481 Off ch=1 n=f6 v=64
71481 On ch=1 n=f#6 v=32
71601 Off ch=1 n=f#6 v=64
71601 On ch=1 n=f6 v=32
71721 Off ch=1 n=f6 v=64
71721 On ch=1 n=d#6 v=32
71841 Off ch=1 n=d#6 v=64
71841 On ch=1 n=d6 v=32
71961 Off ch=1 n=d6 v=64
71961 On ch=1 n=d#6 v=32
71971 Off ch=1 n=d#6 v=64
71971 On ch=1 n=f6 v=32
71981 Off ch=1 n=f6 v=64
71981 On ch=1 n=d#6 v=32
72081 Off ch=1 n=d#6 v=64
72081 On ch=1 n=d6 v=32
72201 Off ch=1 n=d6 v=64
72201 On ch=1 n=d#6 v=32
72321 Off ch=1 n=d#6 v=64
72321 On ch=1 n=f6 v=32
72441 Off ch=1 n=f6 v=64
72441 On ch=1 n=f#6 v=32
72558 Off ch=1 n=f#6 v=64
72561 On ch=1 n=a#5 v=32
72681 Off ch=1 n=a#5 v=64
72681 On ch=1 n=f6 v=32
72801 Off ch=1 n=f6 v=64
72801 On ch=1 n=d#6 v=32
72918 Off ch=1 n=d#6 v=64
72921 On ch=1 n=c6 v=32
72978 Off ch=1 n=c6 v=64
72981 On ch=1 n=c#6 v=32
73038 Off ch=1 n=c#6 v=64
73041 On ch=1 n=d#6 v=32
73068 Off ch=1 n=d#6 v=64
73071 On ch=1 n=c#6 v=32
73098 Off ch=1 n=c#6 v=64
73101 On ch=1 n=d#6 v=32
73128 Off ch=1 n=d#6 v=64
73131 On ch=1 n=c#6 v=32
73158 Off ch=1 n=c#6 v=64
73161 On ch=1 n=d#6 v=32
73188 Off ch=1 n=d#6 v=64
73191 On ch=1 n=c#6 v=32
73218 Off ch=1 n=c#6 v=64
73221 On ch=1 n=d#6 v=32
73248 Off ch=1 n=d#6 v=64
73251 On ch=1 n=c#6 v=32
73278 Off ch=1 n=c#6 v=64
73281 On ch=1 n=c6 v=32
73338 Off ch=1 n=c6 v=64
73341 On ch=1 n=c#6 v=32
73398 Off ch=1 n=c#6 v=64
73401 On ch=1 n=a#6 v=32
73518 Off ch=1 n=a#6 v=64
73521 On ch=1 n=g#6 v=32
73638 Off ch=1 n=g#6 v=64
73641 On ch=1 n=f#6 v=32
73758 Off ch=1 n=f#6 v=64
73761 On ch=1 n=g#5 v=32
73878 Off ch=1 n=g#5 v=64
73881 On ch=1 n=d#6 v=32
74301 Off ch=1 n=d#6 v=64
74361 On ch=1 n=c#6 v=32
74561 Off ch=1 n=c#6 v=64
74841 Par ch=1 c=7 v=32
74841 On ch=1 n=f4 v=32
74841 On ch=1 n=a#4 v=32
75081 Off ch=1 n=a#4 v=64
75081 Off ch=1 n=f4 v=64
75081 On ch=1 n=f#4 v=32
75081 On ch=1 n=a#4 v=32
75261 Off ch=1 n=a#4 v=64
75261 On ch=1 n=a#4 v=32
75281 Off ch=1 n=f#4 v=64
75321 Off ch=1 n=a#4 v=64
75321 On ch=1 n=f4 v=32
75321 On ch=1 n=a#4 v=32
75561 Off ch=1 n=f4 v=64
75561 On ch=1 n=f#4 v=32
75741 Off ch=1 n=a#4 v=64
75801 Off ch=1 n=f#4 v=64
75801 On ch=1 n=f4 v=32
75801 On ch=1 n=a#4 v=32
76041 Off ch=1 n=a#4 v=64
76041 Off ch=1 n=f4 v=64
76041 On ch=1 n=f#4 v=32
76041 On ch=1 n=a#4 v=32
76221 Off ch=1 n=a#4 v=64
76221 On ch=1 n=a#4 v=32
76241 Off ch=1 n=f#4 v=64
76281 Off ch=1 n=a#4 v=64
76281 On ch=1 n=f4 v=32
76281 On ch=1 n=a#4 v=32
76521 Off ch=1 n=f4 v=64
76521 On ch=1 n=f#4 v=32
76701 Off ch=1 n=a#4 v=64
76721 Off ch=1 n=f#4 v=64
76761 Par ch=1 c=7 v=32
76761 On ch=1 n=f4 v=32
76761 On ch=1 n=a#4 v=32
77001 Off ch=1 n=a#4 v=64
77001 Off ch=1 n=f4 v=64
77001 On ch=1 n=f#4 v=32
77001 On ch=1 n=a#4 v=32
77181 Off ch=1 n=a#4 v=64
77181 On ch=1 n=a#4 v=32
77201 Off ch=1 n=f#4 v=64
77241 Off ch=1 n=a#4 v=64
77241 On ch=1 n=f4 v=32
77241 On ch=1 n=a#4 v=32
77481 Off ch=1 n=a#4 v=64
77481 Off ch=1 n=f4 v=64
77481 On ch=1 n=f#4 v=32
77481 On ch=1 n=c#5 v=32
77661 Off ch=1 n=c#5 v=64
77661 On ch=1 n=c5 v=32
77681 Off ch=1 n=f#4 v=64
77721 Off ch=1 n=c5 v=64
77721 On ch=1 n=f4 v=32
77721 On ch=1 n=c5 v=32
77901 Off ch=1 n=c5 v=64
77901 On ch=1 n=a#4 v=32
77921 Off ch=1 n=f4 v=64
77961 Off ch=1 n=a#4 v=64
77961 On ch=1 n=f#4 v=32
77961 On ch=1 n=a#4 v=32
78141 Off ch=1 n=a#4 v=64
78141 On ch=1 n=a#4 v=32
78161 Off ch=1 n=f#4 v=64
78201 Off ch=1 n=a#4 v=64
78201 On ch=1 n=f4 v=32
78201 On ch=1 n=a#4 v=32
78441 Off ch=1 n=f4 v=64
78441 On ch=1 n=f#4 v=32
78621 Off ch=1 n=a#4 v=64
78641 Off ch=1 n=f#4 v=64
78681 Par ch=1 c=7 v=48
78681 On ch=1 n=a#4 v=48
78681 On ch=1 n=c#5 v=48
78921 Off ch=1 n=c#5 v=64
78921 Off ch=1 n=a#4 v=64
78921 On ch=1 n=a#4 v=48
78921 On ch=1 n=c#5 v=48
79101 Off ch=1 n=c#5 v=64
79101 On ch=1 n=c#5 v=48
79121 Off ch=1 n=a#4 v=64
79161 Off ch=1 n=c#5 v=64
79161 On ch=1 n=a#4 v=48
79161 On ch=1 n=c#5 v=48
79401 Off ch=1 n=c#5 v=64
79401 Off ch=1 n=a#4 v=64
79401 On ch=1 n=c#5 v=48
79401 On ch=1 n=f5 v=48
79581 Off ch=1 n=f5 v=64
79581 Off ch=1 n=c#5 v=64
79581 On ch=1 n=c5 v=48
79581 On ch=1 n=d#5 v=48
79638 Off ch=1 n=d#5 v=64
79638 Off ch=1 n=c5 v=64
79641 On ch=1 n=f5 v=48
79653 Off ch=1 n=f5 v=64
79656 On ch=1 n=c5 v=48
79656 On ch=1 n=d#5 v=48
79818 Off ch=1 n=d#5 v=64
79818 Off ch=1 n=c5 v=64
79821 On ch=1 n=a#4 v=48
79821 On ch=1 n=c#5 v=48
79878 Off ch=1 n=c#5 v=64
79878 Off ch=1 n=a#4 v=64
79881 On ch=1 n=a#4 v=48
79881 On ch=1 n=c#5 v=48
80058 Off ch=1 n=c#5 v=64
80058 Off ch=1 n=a#4 v=64
80061 On ch=1 n=a#4 v=48
80061 On ch=1 n=c#5 v=48
80118 Off ch=1 n=c#5 v=64
80118 Off ch=1 n=a#4 v=64
80121 On ch=1 n=a#4 v=48
80121 On ch=1 n=c#5 v=48
80541 Off ch=1 n=c#5 v=64
80541 Off ch=1 n=a#4 v=64
80601 Par ch=1 c=7 v=84
80601 On ch=1 n=a#4 v=84
80601 On ch=1 n=c#5 v=84
80601 On ch=1 n=a#5 v=84
80627 Par ch=1 c=7 v=83
80653 Par ch=1 c=7 v=82
80681 Par ch=1 c=7 v=81
80707 Par ch=1 c=7 v=80
80733 Par ch=1 c=7 v=79
80761 Par ch=1 c=7 v=78
80778 Off ch=1 n=a#5 v=64
80781 On ch=1 n=g#5 v=83
80787 Par ch=1 c=7 v=77
80801 Off ch=1 n=c#5 v=64
80801 Off ch=1 n=a#4 v=64
80813 Par ch=1 c=7 v=76
80838 Off ch=1 n=g#5 v=64
80841 Par ch=1 c=7 v=75
80841 On ch=1 n=g#5 v=82
80853 Off ch=1 n=g#5 v=64
80856 On ch=1 n=a#4 v=81
80856 On ch=1 n=c#5 v=81
80856 On ch=1 n=f#5 v=81
80867 Par ch=1 c=7 v=74
80893 Par ch=1 c=7 v=73
80921 Par ch=1 c=7 v=72
80947 Par ch=1 c=7 v=71
80973 Par ch=1 c=7 v=70
81001 Par ch=1 c=7 v=69
81018 Off ch=1 n=f#5 v=64
81021 On ch=1 n=f5 v=79
81027 Par ch=1 c=7 v=68
81053 Par ch=1 c=7 v=67
81078 Off ch=1 n=f5 v=64
81081 Par ch=1 c=7 v=66
81081 On ch=1 n=a#4 v=78
81081 On ch=1 n=c#5 v=78
81081 On ch=1 n=f5 v=78
81107 Par ch=1 c=7 v=65
81133 Par ch=1 c=7 v=64
81161 Par ch=1 c=7 v=63
81187 Par ch=1 c=7 v=62
81213 Par ch=1 c=7 v=61
81236 Off ch=1 n=c#5 v=64
81236 Off ch=1 n=a#4 v=64
81241 Par ch=1 c=7 v=60
81267 Par ch=1 c=7 v=59
81281 Off ch=1 n=f5 v=64
81281 Off ch=1 n=c#5 v=64
81281 Off ch=1 n=a#4 v=64
81293 Par ch=1 c=7 v=58
81321 Par ch=1 c=7 v=57
81321 On ch=1 n=a#4 v=77
81321 On ch=1 n=c#5 v=77
81347 Par ch=1 c=7 v=56
81373 Par ch=1 c=7 v=55
81401 Par ch=1 c=7 v=54
81427 Par ch=1 c=7 v=53
81453 Par ch=1 c=7 v=52
81481 Par ch=1 c=7 v=51
81507 Par ch=1 c=7 v=50
81521 Off ch=1 n=c#5 v=64
81521 Off ch=1 n=a#4 v=64
81533 Par ch=1 c=7 v=49
81561 Par ch=1 c=7 v=48
81561 Par ch=1 c=7 v=84
81561 On ch=1 n=a#4 v=84
81561 On ch=1 n=c#5 v=84
81561 On ch=1 n=a#5 v=84
81587 Par ch=1 c=7 v=83
81613 Par ch=1 c=7 v=82
81641 Par ch=1 c=7 v=81
81667 Par ch=1 c=7 v=80
81693 Par ch=1 c=7 v=79
81721 Par ch=1 c=7 v=78
81738 Off ch=1 n=a#5 v=64
81741 On ch=1 n=g#5 v=83
81747 Par ch=1 c=7 v=77
81761 Off ch=1 n=c#5 v=64
81761 Off ch=1 n=a#4 v=64
81773 Par ch=1 c=7 v=76
81798 Off ch=1 n=g#5 v=64
81801 Par ch=1 c=7 v=75
81801 On ch=1 n=g#5 v=82
81813 Off ch=1 n=g#5 v=64
81816 On ch=1 n=a#4 v=81
81816 On ch=1 n=c#5 v=81
81816 On ch=1 n=f#5 v=81
81827 Par ch=1 c=7 v=74
81853 Par ch=1 c=7 v=73
81881 Par ch=1 c=7 v=72
81907 Par ch=1 c=7 v=71
81933 Par ch=1 c=7 v=70
81961 Par ch=1 c=7 v=69
81978 Off ch=1 n=f#5 v=64
81981 On ch=1 n=f5 v=79
81987 Par ch=1 c=7 v=68
82013 Par ch=1 c=7 v=67
82038 Off ch=1 n=f5 v=64
82041 Par ch=1 c=7 v=66
82041 On ch=1 n=a#4 v=78
82041 On ch=1 n=c#5 v=78
82041 On ch=1 n=f5 v=78
82067 Par ch=1 c=7 v=65
82093 Par ch=1 c=7 v=64
82121 Par ch=1 c=7 v=63
82147 Par ch=1 c=7 v=62
82173 Par ch=1 c=7 v=61
82196 Off ch=1 n=c#5 v=64
82196 Off ch=1 n=a#4 v=64
82201 Par ch=1 c=7 v=60
82227 Par ch=1 c=7 v=59
82241 Off ch=1 n=f5 v=64
82241 Off ch=1 n=c#5 v=64
82241 Off ch=1 n=a#4 v=64
82253 Par ch=1 c=7 v=58
82281 Par ch=1 c=7 v=57
82281 On ch=1 n=a#4 v=77
82281 On ch=1 n=c#5 v=77
82307 Par ch=1 c=7 v=56
82333 Par ch=1 c=7 v=55
82361 Par ch=1 c=7 v=54
82387 Par ch=1 c=7 v=53
82413 Par ch=1 c=7 v=52
82441 Par ch=1 c=7 v=51
82467 Par ch=1 c=7 v=50
82481 Off ch=1 n=c#5 v=64
82481 Off ch=1 n=a#4 v=64
82493 Par ch=1 c=7 v=49
82521 Par ch=1 c=7 v=48
82521 On ch=1 n=f4 v=48
82521 On ch=1 n=a#4 v=48
82721 Off ch=1 n=a#4 v=64
82721 Off ch=1 n=f4 v=64
82761 On ch=1 n=f#4 v=48
82761 On ch=1 n=a#4 v=48
82938 Off ch=1 n=a#4 v=64
82941 On ch=1 n=a#4 v=48
82961 Off ch=1 n=f#4 v=64
82998 Off ch=1 n=a#4 v=64
83001 On ch=1 n=f4 v=48
83001 On ch=1 n=a#4 v=48
83201 Off ch=1 n=a#4 v=64
83201 Off ch=1 n=f4 v=64
83241 On ch=1 n=f#4 v=48
83241 On ch=1 n=c#5 v=48
83418 Off ch=1 n=c#5 v=64
83421 On ch=1 n=c5 v=48
83441 Off ch=1 n=f#4 v=64
83478 Off ch=1 n=c5 v=64
83481 On ch=1 n=c#5 v=48
83493 Off ch=1 n=c#5 v=64
83496 On ch=1 n=c5 v=48
83658 Off ch=1 n=c5 v=64
83661 On ch=1 n=a#4 v=48
83718 Off ch=1 n=a#4 v=64
83721 On ch=1 n=a#4 v=48
83898 Off ch=1 n=a#4 v=64
83901 On ch=1 n=a#4 v=48
83958 Off ch=1 n=a#4 v=64
83961 On ch=1 n=a#4 v=48
84381 Off ch=1 n=a#4 v=64
84441 Par ch=1 c=7 v=120
84441 On ch=1 n=a#5 v=120
84441 On ch=1 n=c#6 v=120
84441 On ch=1 n=a#6 v=120
84464 Par ch=1 c=7 v=119
84488 Par ch=1 c=7 v=118
84512 Par ch=1 c=7 v=117
84536 Par ch=1 c=7 v=116
84558 Off ch=1 n=a#6 v=64
84558 Off ch=1 n=a#5 v=64
84561 Par ch=1 c=7 v=115
84561 On ch=1 n=g#5 v=119
84561 On ch=1 n=g#6 v=119
84584 Par ch=1 c=7 v=114
84608 Par ch=1 c=7 v=113
84632 Par ch=1 c=7 v=112
84656 Par ch=1 c=7 v=111
84678 Off ch=1 n=g#6 v=64
84678 Off ch=1 n=g#5 v=64
84678 Off ch=1 n=c#6 v=64
84681 Par ch=1 c=7 v=110
84681 On ch=1 n=g#5 v=118
84688 Off ch=1 n=g#5 v=64
84691 On ch=1 n=c#6 v=117
84698 Off ch=1 n=c#6 v=64
84701 On ch=1 n=g#6 v=116
84704 Par ch=1 c=7 v=109
84708 Off ch=1 n=g#6 v=64
84711 On ch=1 n=f#5 v=115
84711 On ch=1 n=f#6 v=115
84728 Par ch=1 c=7 v=108
84752 Par ch=1 c=7 v=107
84776 Par ch=1 c=7 v=106
84801 Par ch=1 c=7 v=105
84824 Par ch=1 c=7 v=104
84848 Par ch=1 c=7 v=103
84858 Off ch=1 n=f#6 v=64
84858 Off ch=1 n=f#5 v=64
84861 On ch=1 n=f5 v=113
84861 On ch=1 n=f6 v=113
84872 Par ch=1 c=7 v=102
84896 Par ch=1 c=7 v=101
84918 Off ch=1 n=f6 v=64
84918 Off ch=1 n=f5 v=64
84921 Par ch=1 c=7 v=100
84921 On ch=1 n=f5 v=112
84921 On ch=1 n=c#6 v=112
84921 On ch=1 n=f6 v=112
84944 Par ch=1 c=7 v=99
84968 Par ch=1 c=7 v=98
84992 Par ch=1 c=7 v=97
85016 Par ch=1 c=7 v=96
85041 Par ch=1 c=7 v=95
85064 Par ch=1 c=7 v=94
85088 Par ch=1 c=7 v=93
85112 Par ch=1 c=7 v=92
85121 Off ch=1 n=f6 v=64
85121 Off ch=1 n=c#6 v=64
85121 Off ch=1 n=f5 v=64
85136 Par ch=1 c=7 v=91
85161 Par ch=1 c=7 v=90
85161 On ch=1 n=c#5 v=111
85161 On ch=1 n=a#5 v=111
85161 On ch=1 n=c#6 v=111
85184 Par ch=1 c=7 v=89
85208 Par ch=1 c=7 v=88
85232 Par ch=1 c=7 v=87
85256 Par ch=1 c=7 v=86
85281 Par ch=1 c=7 v=85
85304 Par ch=1 c=7 v=84
85328 Par ch=1 c=7 v=83
85352 Par ch=1 c=7 v=82
85361 Off ch=1 n=c#6 v=64
85361 Off ch=1 n=a#5 v=64
85361 Off ch=1 n=c#5 v=64
85376 Par ch=1 c=7 v=81
85401 Par ch=1 c=7 v=80
85401 Par ch=1 c=7 v=120
85401 On ch=1 n=a#5 v=120
85401 On ch=1 n=c#6 v=120
85401 On ch=1 n=a#6 v=120
85424 Par ch=1 c=7 v=119
85448 Par ch=1 c=7 v=118
85472 Par ch=1 c=7 v=117
85496 Par ch=1 c=7 v=116
85518 Off ch=1 n=a#6 v=64
85518 Off ch=1 n=a#5 v=64
85521 Par ch=1 c=7 v=115
85521 On ch=1 n=g#5 v=119
85521 On ch=1 n=g#6 v=119
85544 Par ch=1 c=7 v=114
85568 Par ch=1 c=7 v=113
85592 Par ch=1 c=7 v=112
85616 Par ch=1 c=7 v=111
85638 Off ch=1 n=g#6 v=64
85638 Off ch=1 n=g#5 v=64
85638 Off ch=1 n=c#6 v=64
85641 Par ch=1 c=7 v=110
85641 On ch=1 n=g#5 v=118
85648 Off ch=1 n=g#5 v=64
85651 On ch=1 n=c#6 v=117
85658 Off ch=1 n=c#6 v=64
85661 On ch=1 n=g#6 v=116
85664 Par ch=1 c=7 v=109
85668 Off ch=1 n=g#6 v=64
85671 On ch=1 n=f#5 v=115
85671 On ch=1 n=f#6 v=115
85688 Par ch=1 c=7 v=108
85712 Par ch=1 c=7 v=107
85736 Par ch=1 c=7 v=106
85761 Par ch=1 c=7 v=105
85784 Par ch=1 c=7 v=104
85808 Par ch=1 c=7 v=103
85818 Off ch=1 n=f#6 v=64
85818 Off ch=1 n=f#5 v=64
85821 On ch=1 n=f5 v=113
85821 On ch=1 n=f6 v=113
85832 Par ch=1 c=7 v=102
85856 Par ch=1 c=7 v=101
85878 Off ch=1 n=f6 v=64
85878 Off ch=1 n=f5 v=64
85881 Par ch=1 c=7 v=100
85881 On ch=1 n=f5 v=112
85881 On ch=1 n=c#6 v=112
85881 On ch=1 n=f6 v=112
85904 Par ch=1 c=7 v=99
85928 Par ch=1 c=7 v=98
85952 Par ch=1 c=7 v=97
85976 Par ch=1 c=7 v=96
86001 Par ch=1 c=7 v=95
86024 Par ch=1 c=7 v=94
86048 Par ch=1 c=7 v=93
86072 Par ch=1 c=7 v=92
86081 Off ch=1 n=f6 v=64
86081 Off ch=1 n=c#6 v=64
86081 Off ch=1 n=f5 v=64
86096 Par ch=1 c=7 v=91
86121 Par ch=1 c=7 v=90
86121 On ch=1 n=c#5 v=111
86121 On ch=1 n=a#5 v=111
86121 On ch=1 n=c#6 v=111
86144 Par ch=1 c=7 v=89
86168 Par ch=1 c=7 v=88
86192 Par ch=1 c=7 v=87
86216 Par ch=1 c=7 v=86
86241 Par ch=1 c=7 v=85
86264 Par ch=1 c=7 v=84
86288 Par ch=1 c=7 v=83
86312 Par ch=1 c=7 v=82
86321 Off ch=1 n=c#6 v=64
86321 Off ch=1 n=a#5 v=64
86321 Off ch=1 n=c#5 v=64
86336 Par ch=1 c=7 v=81
86361 Par ch=1 c=7 v=80
86361 Par ch=1 c=7 v=40
86361 On ch=1 n=a#4 v=40
86361 On ch=1 n=f5 v=40
86361 On ch=1 n=a#5 v=40
86561 Off ch=1 n=a#5 v=64
86561 Off ch=1 n=f5 v=64
86561 Off ch=1 n=a#4 v=64
86601 On ch=1 n=a#4 v=40
86601 On ch=1 n=f#5 v=40
86601 On ch=1 n=a#5 v=40
86778 Off ch=1 n=a#5 v=64
86778 Off ch=1 n=a#4 v=64
86781 On ch=1 n=a#4 v=40
86781 On ch=1 n=a#5 v=40
86838 Off ch=1 n=a#5 v=64
86838 Off ch=1 n=a#4 v=64
86838 Off ch=1 n=f#5 v=64
86841 On ch=1 n=a#4 v=40
86841 On ch=1 n=f5 v=40
86841 On ch=1 n=a#5 v=40
87041 Off ch=1 n=a#5 v=64
87041 Off ch=1 n=f5 v=64
87041 Off ch=1 n=a#4 v=64
87081 On ch=1 n=c#5 v=40
87081 On ch=1 n=f#5 v=40
87081 On ch=1 n=c#6 v=40
87258 Off ch=1 n=c#6 v=64
87258 Off ch=1 n=c#5 v=64
87261 On ch=1 n=c5 v=40
87261 On ch=1 n=c6 v=40
87318 Off ch=1 n=c6 v=64
87318 Off ch=1 n=c5 v=64
87318 Off ch=1 n=f#5 v=64
87321 On ch=1 n=c5 v=40
87321 On ch=1 n=f5 v=40
87321 On ch=1 n=c6 v=40
87498 Off ch=1 n=c6 v=64
87498 Off ch=1 n=c5 v=64
87501 On ch=1 n=a#4 v=40
87501 On ch=1 n=a#5 v=40
87558 Off ch=1 n=a#5 v=64
87558 Off ch=1 n=a#4 v=64
87558 Off ch=1 n=f5 v=64
87561 On ch=1 n=a#4 v=40
87561 On ch=1 n=f#5 v=40
87561 On ch=1 n=a#5 v=40
87738 Off ch=1 n=a#5 v=64
87738 Off ch=1 n=a#4 v=64
87741 On ch=1 n=a#4 v=40
87741 On ch=1 n=a#5 v=40
87798 Off ch=1 n=a#5 v=64
87798 Off ch=1 n=a#4 v=64
87798 Off ch=1 n=f#5 v=64
87801 On ch=1 n=a#4 v=40
87801 On ch=1 n=f5 v=40
87801 On ch=1 n=a#5 v=40
88001 Off ch=1 n=a#5 v=64
88001 Off ch=1 n=f5 v=64
88001 Off ch=1 n=a#4 v=64
88041 On ch=1 n=c6 v=72
88041 On ch=1 n=g#5 v=72
88041 On ch=1 n=f#5 v=72
88041 On ch=1 n=c5 v=72
88041 Par ch=1 c=7 v=72
88281 Off ch=1 n=c5 v=64
88281 Off ch=1 n=f#5 v=64
88281 Off ch=1 n=g#5 v=64
88281 Off ch=1 n=c6 v=64
88281 Par ch=1 c=7 v=80
88281 On ch=1 n=c#5 v=80
88281 On ch=1 n=f5 v=80
88281 On ch=1 n=c#6 v=80
88311 Par ch=1 c=7 v=81
88341 Par ch=1 c=7 v=82
88371 Par ch=1 c=7 v=83
88401 Par ch=1 c=7 v=84
88431 Par ch=1 c=7 v=85
88461 Par ch=1 c=7 v=86
88491 Par ch=1 c=7 v=87
88521 Off ch=1 n=c#6 v=64
88521 Off ch=1 n=f5 v=64
88521 Off ch=1 n=c#5 v=64
88521 Par ch=1 c=7 v=88
88521 On ch=1 n=f5 v=81
88521 On ch=1 n=c#6 v=81
88521 On ch=1 n=f6 v=81
88551 Par ch=1 c=7 v=89
88581 Par ch=1 c=7 v=90
88611 Par ch=1 c=7 v=91
88641 Par ch=1 c=7 v=92
88671 Par ch=1 c=7 v=93
88701 Off ch=1 n=f6 v=64
88701 Off ch=1 n=c#6 v=64
88701 Off ch=1 n=f5 v=64
88701 Par ch=1 c=7 v=94
88701 On ch=1 n=f#5 v=82
88701 On ch=1 n=f#6 v=82
88731 Par ch=1 c=7 v=95
88761 Off ch=1 n=f#6 v=64
88761 Off ch=1 n=f#5 v=64
88761 Par ch=1 c=7 v=96
88761 On ch=1 n=g#5 v=83
88761 On ch=1 n=c#6 v=83
88761 On ch=1 n=g#6 v=83
88791 Par ch=1 c=7 v=97
88821 Par ch=1 c=7 v=98
88851 Par ch=1 c=7 v=99
88881 Par ch=1 c=7 v=100
88911 Par ch=1 c=7 v=101
88941 Off ch=1 n=g#6 v=64
88941 Off ch=1 n=c#6 v=64
88941 Off ch=1 n=g#5 v=64
88941 Par ch=1 c=7 v=102
88941 On ch=1 n=a#5 v=84
88941 On ch=1 n=a#6 v=84
88971 Par ch=1 c=7 v=103
89001 Off ch=1 n=a#6 v=64
89001 Off ch=1 n=a#5 v=64
89001 Par ch=1 c=7 v=104
89001 On ch=1 n=c6 v=85
89001 On ch=1 n=g#6 v=85
89001 On ch=1 n=c7 v=85
89031 Par ch=1 c=7 v=105
89061 Par ch=1 c=7 v=106
89091 Par ch=1 c=7 v=107
89121 Par ch=1 c=7 v=108
89151 Par ch=1 c=7 v=109
89181 Off ch=1 n=c7 v=64
89181 Off ch=1 n=g#6 v=64
89181 Off ch=1 n=c6 v=64
89181 On ch=1 n=c#7 v=86
89181 On ch=1 n=c#6 v=86
89181 Par ch=1 c=7 v=110
89211 Par ch=1 c=7 v=111
89241 Off ch=1 n=c#6 v=64
89241 Off ch=1 n=c#7 v=64
89241 Par ch=1 c=7 v=112
89241 On ch=1 n=f6 v=112
89241 On ch=1 n=g#6 v=112
89241 On ch=1 n=c7 v=112
89241 On ch=1 n=f7 v=112
89721 Off ch=1 n=f7 v=64
89721 Off ch=1 n=f6 v=64
89721 On ch=1 n=d#6 v=112
89721 On ch=1 n=d#7 v=112
89733 Par ch=1 c=7 v=111
89747 Par ch=1 c=7 v=110
89759 Par ch=1 c=7 v=109
89773 Par ch=1 c=7 v=108
89783 Par ch=1 c=7 v=107
89793 Par ch=1 c=7 v=106
89803 Par ch=1 c=7 v=105
89817 Par ch=1 c=7 v=104
89829 Par ch=1 c=7 v=103
89843 Par ch=1 c=7 v=102
89855 Par ch=1 c=7 v=101
89869 Par ch=1 c=7 v=100
89879 Par ch=1 c=7 v=99
89889 Par ch=1 c=7 v=98
89899 Par ch=1 c=7 v=97
89913 Par ch=1 c=7 v=96
89925 Par ch=1 c=7 v=95
89939 Par ch=1 c=7 v=94
89951 Par ch=1 c=7 v=93
89965 Par ch=1 c=7 v=92
89975 Par ch=1 c=7 v=91
89985 Par ch=1 c=7 v=90
89995 Par ch=1 c=7 v=89
90009 Par ch=1 c=7 v=88
90014 Off ch=1 n=d#7 v=64
90014 Off ch=1 n=d#6 v=64
90014 Off ch=1 n=c7 v=64
90014 Off ch=1 n=g#6 v=64
90021 Par ch=1 c=7 v=87
90035 Par ch=1 c=7 v=86
90047 Par ch=1 c=7 v=85
90061 Par ch=1 c=7 v=84
90071 Par ch=1 c=7 v=83
90081 Par ch=1 c=7 v=82
90091 Par ch=1 c=7 v=81
90105 On ch=1 n=f#6 v=80
90105 On ch=1 n=d#6 v=80
90105 On ch=1 n=c6 v=80
90105 On ch=1 n=f#5 v=80
90105 Par ch=1 c=7 v=80
90165 Off ch=1 n=f#5 v=64
90165 Off ch=1 n=c6 v=64
90165 Off ch=1 n=d#6 v=64
90165 Off ch=1 n=f#6 v=64
90165 On ch=1 n=f5 v=80
90165 On ch=1 n=c6 v=80
90165 On ch=1 n=d#6 v=80
90165 On ch=1 n=f6 v=80
90405 Off ch=1 n=f6 v=64
90405 Off ch=1 n=d#6 v=64
90405 Off ch=1 n=c6 v=64
90405 Off ch=1 n=f5 v=64
90405 On ch=1 n=f5 v=80
90405 On ch=1 n=a#5 v=80
90405 On ch=1 n=c#6 v=80
90405 On ch=1 n=f6 v=80
90585 Off ch=1 n=f6 v=64
90585 Off ch=1 n=c#6 v=64
90585 Off ch=1 n=a#5 v=64
90585 Off ch=1 n=f5 v=64
90585 On ch=1 n=g5 v=80
90585 On ch=1 n=g6 v=80
90645 Off ch=1 n=g6 v=64
90645 Off ch=1 n=g5 v=64
90645 On ch=1 n=a5 v=80
90645 On ch=1 n=c#6 v=80
90645 On ch=1 n=f6 v=80
90645 On ch=1 n=a6 v=80
90825 Off ch=1 n=a6 v=64
90825 Off ch=1 n=f6 v=64
90825 Off ch=1 n=c#6 v=64
90825 Off ch=1 n=a5 v=64
90825 On ch=1 n=a#5 v=80
90825 On ch=1 n=a#6 v=80
90885 Off ch=1 n=a#6 v=64
90885 Off ch=1 n=a#5 v=64
90885 On ch=1 n=c6 v=80
90885 On ch=1 n=c7 v=80
91065 Off ch=1 n=c7 v=64
91065 Off ch=1 n=c6 v=64
91065 On ch=1 n=c#7 v=80
91065 On ch=1 n=c#6 v=80
91125 Off ch=1 n=c#6 v=64
91125 Off ch=1 n=c#7 v=64
91125 On ch=1 n=a#5 v=80
91125 On ch=1 n=c#6 v=80
91125 On ch=1 n=e6 v=80
91125 On ch=1 n=g6 v=80
91125 On ch=1 n=c#7 v=80
91365 On ch=1 n=c#5 v=80
91365 On ch=1 n=g5 v=80
91605 Off ch=1 n=g5 v=64
91605 Off ch=1 n=c#5 v=64
91605 Off ch=1 n=c#7 v=64
91605 Off ch=1 n=g6 v=64
91605 Off ch=1 n=e6 v=64
91605 Off ch=1 n=c#6 v=64
91605 Off ch=1 n=a#5 v=64
91605 On ch=1 n=a5 v=80
91605 On ch=1 n=c6 v=80
91605 On ch=1 n=f6 v=80
91605 On ch=1 n=c7 v=80
91805 Off ch=1 n=c7 v=64
91805 Off ch=1 n=f6 v=64
91805 Off ch=1 n=c6 v=64
91805 Off ch=1 n=a5 v=64
92085 On ch=1 n=f#4 v=80
92085 On ch=1 n=g#4 v=80
92085 On ch=1 n=c5 v=80
92085 On ch=1 n=f5 v=80
92085 On ch=1 n=g#5 v=80
92325 Off ch=1 n=g#5 v=64
92325 Off ch=1 n=f5 v=64
92325 Off ch=1 n=c5 v=64
92325 Off ch=1 n=g#4 v=64
92325 Off ch=1 n=f#4 v=64
92325 On ch=1 n=f#4 v=80
92325 On ch=1 n=g#4 v=80
92325 On ch=1 n=c5 v=80
92325 On ch=1 n=d#5 v=80
92325 On ch=1 n=g#5 v=80
92565 Off ch=1 n=g#5 v=64
92565 Off ch=1 n=d#5 v=64
92565 Off ch=1 n=c5 v=64
92565 Off ch=1 n=g#4 v=64
92565 Off ch=1 n=f#4 v=64
92565 On ch=1 n=f4 v=80
92565 On ch=1 n=c#5 v=80
92565 On ch=1 n=g#5 v=80
92765 Off ch=1 n=g#5 v=64
92765 Off ch=1 n=c#5 v=64
92765 Off ch=1 n=f4 v=64
93045 On ch=1 n=d#4 v=80
93045 On ch=1 n=a4 v=80
93045 On ch=1 n=c#5 v=80
93045 On ch=1 n=f5 v=80
93285 Off ch=1 n=f5 v=64
93285 Off ch=1 n=c#5 v=64
93285 Off ch=1 n=a4 v=64
93285 Off ch=1 n=d#4 v=64
93285 On ch=1 n=d#4 v=80
93285 On ch=1 n=a4 v=80
93285 On ch=1 n=c5 v=80
93285 On ch=1 n=f5 v=80
93525 Off ch=1 n=f5 v=64
93525 Off ch=1 n=c5 v=64
93525 Off ch=1 n=a4 v=64
93525 Off ch=1 n=d#4 v=64
93525 On ch=1 n=c#4 v=80
93525 On ch=1 n=a#4 v=80
93945 Off ch=1 n=a#4 v=64
93945 Off ch=1 n=c#4 v=64
94005 Par ch=1 c=7 v=32
94005 On ch=1 n=a#3 v=32
94005 On ch=1 n=f4 v=32
94005 On ch=1 n=a#4 v=32
94205 Off ch=1 n=a#4 v=64
94205 Off ch=1 n=f4 v=64
94205 Off ch=1 n=a#3 v=64
94245 On ch=1 n=a#4 v=32
94422 Off ch=1 n=a#4 v=64
94425 On ch=1 n=a#4 v=32
94482 Off ch=1 n=a#4 v=64
94485 On ch=1 n=f4 v=32
94485 On ch=1 n=a#4 v=32
94685 Off ch=1 n=a#4 v=64
94685 Off ch=1 n=f4 v=64
94725 On ch=1 n=f#4 v=32
94725 On ch=1 n=c#5 v=32
94902 Off ch=1 n=c#5 v=64
94905 On ch=1 n=c5 v=32
94925 Off ch=1 n=f#4 v=64
94962 Off ch=1 n=c5 v=64
94965 On ch=1 n=f4 v=32
94965 On ch=1 n=c#5 v=32
94992 Off ch=1 n=c#5 v=64
94995 On ch=1 n=c5 v=32
95142 Off ch=1 n=c5 v=64
95145 On ch=1 n=a#4 v=32
95165 Off ch=1 n=f4 v=64
95202 Off ch=1 n=a#4 v=64
95205 On ch=1 n=a#4 v=32
95382 Off ch=1 n=a#4 v=64
95385 On ch=1 n=a#4 v=32
95442 Off ch=1 n=a#4 v=64
95445 On ch=1 n=a#4 v=32
95645 Off ch=1 n=a#4 v=64
95685 Par ch=1 c=7 v=112
95685 On ch=1 n=e4 v=112
95685 On ch=1 n=g4 v=112
95685 On ch=1 n=c#5 v=112
95862 Off ch=1 n=c#5 v=64
95862 Off ch=1 n=g4 v=64
95862 Off ch=1 n=e4 v=64
95865 On ch=1 n=f#4 v=112
95865 On ch=1 n=c5 v=112
95865 On ch=1 n=d#5 v=112
95922 Off ch=1 n=d#5 v=64
95922 Off ch=1 n=c5 v=64
95922 Off ch=1 n=f#4 v=64
95925 Par ch=1 c=7 v=96
95925 On ch=1 n=g#4 v=96
95925 On ch=1 n=c#5 v=96
95925 On ch=1 n=f5 v=96
95965 Par ch=1 c=7 v=97
96005 Par ch=1 c=7 v=98
96045 Par ch=1 c=7 v=99
96085 Par ch=1 c=7 v=100
96125 Off ch=1 n=f5 v=64
96125 Off ch=1 n=c#5 v=64
96125 Off ch=1 n=g#4 v=64
96125 Par ch=1 c=7 v=101
96165 Par ch=1 c=7 v=102
96165 On ch=1 n=f5 v=97
96165 On ch=1 n=c#6 v=97
96165 On ch=1 n=f6 v=97
96205 Par ch=1 c=7 v=103
96245 Par ch=1 c=7 v=104
96285 Par ch=1 c=7 v=105
96325 Par ch=1 c=7 v=106
96342 Off ch=1 n=f6 v=64
96342 Off ch=1 n=c#6 v=64
96342 Off ch=1 n=f5 v=64
96345 On ch=1 n=f#5 v=98
96345 On ch=1 n=f#6 v=98
96365 Par ch=1 c=7 v=107
96402 Off ch=1 n=f#6 v=64
96402 Off ch=1 n=f#5 v=64
96405 Par ch=1 c=7 v=108
96405 On ch=1 n=g#5 v=99
96405 On ch=1 n=c#6 v=99
96405 On ch=1 n=g#6 v=99
96445 Par ch=1 c=7 v=109
96485 Par ch=1 c=7 v=110
96525 Par ch=1 c=7 v=111
96565 Par ch=1 c=7 v=112
96582 Off ch=1 n=g#6 v=64
96582 Off ch=1 n=c#6 v=64
96582 Off ch=1 n=g#5 v=64
96585 On ch=1 n=a#5 v=100
96585 On ch=1 n=a#6 v=100
96605 Par ch=1 c=7 v=113
96642 Off ch=1 n=a#6 v=64
96642 Off ch=1 n=a#5 v=64
96645 Par ch=1 c=7 v=114
96645 On ch=1 n=c6 v=101
96645 On ch=1 n=g#6 v=101
96645 On ch=1 n=c7 v=101
96685 Par ch=1 c=7 v=115
96725 Par ch=1 c=7 v=116
96765 Par ch=1 c=7 v=117
96805 Par ch=1 c=7 v=118
96822 Off ch=1 n=c7 v=64
96822 Off ch=1 n=g#6 v=64
96822 Off ch=1 n=c6 v=64
96825 On ch=1 n=c#6 v=102
96825 On ch=1 n=c#7 v=102
96845 Par ch=1 c=7 v=119
96882 Off ch=1 n=c#7 v=64
96882 Off ch=1 n=c#6 v=64
96885 Par ch=1 c=7 v=120
96885 On ch=1 n=f6 v=120
96885 On ch=1 n=g#6 v=120
96885 On ch=1 n=c7 v=120
96885 On ch=1 n=f7 v=120
97365 Off ch=1 n=f7 v=64
97365 Off ch=1 n=f6 v=64
97365 On ch=1 n=d#6 v=120
97365 On ch=1 n=d#7 v=120
97375 Par ch=1 c=7 v=119
97385 Par ch=1 c=7 v=118
97396 Par ch=1 c=7 v=117
97406 Par ch=1 c=7 v=116
97416 Par ch=1 c=7 v=115
97427 Par ch=1 c=7 v=114
97437 Par ch=1 c=7 v=113
97448 Par ch=1 c=7 v=112
97458 Par ch=1 c=7 v=111
97468 Par ch=1 c=7 v=110
97480 Par ch=1 c=7 v=109
97490 Par ch=1 c=7 v=108
97501 Par ch=1 c=7 v=107
97511 Par ch=1 c=7 v=106
97521 Par ch=1 c=7 v=105
97532 Par ch=1 c=7 v=104
97542 Par ch=1 c=7 v=103
97553 Par ch=1 c=7 v=102
97563 Par ch=1 c=7 v=101
97573 Par ch=1 c=7 v=100
97585 Par ch=1 c=7 v=99
97595 Par ch=1 c=7 v=98
97606 Par ch=1 c=7 v=97
97616 Par ch=1 c=7 v=96
97626 Par ch=1 c=7 v=95
97637 Par ch=1 c=7 v=94
97647 Par ch=1 c=7 v=93
97658 Par ch=1 c=7 v=92
97668 Par ch=1 c=7 v=91
97678 Par ch=1 c=7 v=90
97685 Off ch=1 n=d#7 v=64
97685 Off ch=1 n=d#6 v=64
97685 Off ch=1 n=c7 v=64
97685 Off ch=1 n=g#6 v=64
97690 Par ch=1 c=7 v=89
97700 Par ch=1 c=7 v=88
97711 Par ch=1 c=7 v=87
97721 Par ch=1 c=7 v=86
97731 Par ch=1 c=7 v=85
97742 Par ch=1 c=7 v=84
97752 Par ch=1 c=7 v=83
97763 Par ch=1 c=7 v=82
97773 Par ch=1 c=7 v=81
97783 Par ch=1 c=7 v=80
97785 On ch=1 n=f#6 v=80
97785 On ch=1 n=d#6 v=80
97785 On ch=1 n=c6 v=80
97785 On ch=1 n=f#5 v=80
97785 Par ch=1 c=7 v=80
97845 Off ch=1 n=f#5 v=64
97845 Off ch=1 n=c6 v=64
97845 Off ch=1 n=d#6 v=64
97845 Off ch=1 n=f#6 v=64
97845 On ch=1 n=f5 v=80
97845 On ch=1 n=c6 v=80
97845 On ch=1 n=d#6 v=80
97845 On ch=1 n=f6 v=80
98085 Off ch=1 n=f6 v=64
98085 Off ch=1 n=d#6 v=64
98085 Off ch=1 n=c6 v=64
98085 Off ch=1 n=f5 v=64
98085 On ch=1 n=f5 v=80
98085 On ch=1 n=a#5 v=80
98085 On ch=1 n=c#6 v=80
98085 On ch=1 n=f6 v=80
98265 Off ch=1 n=f6 v=64
98265 Off ch=1 n=c#6 v=64
98265 Off ch=1 n=a#5 v=64
98265 Off ch=1 n=f5 v=64
98265 On ch=1 n=g5 v=80
98265 On ch=1 n=g6 v=80
98325 Off ch=1 n=g6 v=64
98325 Off ch=1 n=g5 v=64
98325 On ch=1 n=a5 v=80
98325 On ch=1 n=c#6 v=80
98325 On ch=1 n=f6 v=80
98325 On ch=1 n=a6 v=80
98505 Off ch=1 n=a6 v=64
98505 Off ch=1 n=f6 v=64
98505 Off ch=1 n=c#6 v=64
98505 Off ch=1 n=a5 v=64
98505 On ch=1 n=a#5 v=80
98505 On ch=1 n=a#6 v=80
98565 Off ch=1 n=a#6 v=64
98565 Off ch=1 n=a#5 v=64
98565 On ch=1 n=c6 v=80
98565 On ch=1 n=c7 v=80
98745 Off ch=1 n=c7 v=64
98745 Off ch=1 n=c6 v=64
98745 On ch=1 n=c#7 v=80
98745 On ch=1 n=c#6 v=80
98805 Off ch=1 n=c#6 v=64
98805 Off ch=1 n=c#7 v=64
98805 On ch=1 n=a#5 v=80
98805 On ch=1 n=c#6 v=80
98805 On ch=1 n=e6 v=80
98805 On ch=1 n=g6 v=80
98805 On ch=1 n=c#7 v=80
99045 On ch=1 n=c#5 v=80
99045 On ch=1 n=g5 v=80
99285 Off ch=1 n=g5 v=64
99285 Off ch=1 n=c#5 v=64
99285 Off ch=1 n=c#7 v=64
99285 Off ch=1 n=g6 v=64
99285 Off ch=1 n=e6 v=64
99285 Off ch=1 n=c#6 v=64
99285 Off ch=1 n=a#5 v=64
99285 On ch=1 n=a5 v=80
99285 On ch=1 n=c6 v=80
99285 On ch=1 n=f6 v=80
99285 On ch=1 n=c7 v=80
99485 Off ch=1 n=c7 v=64
99485 Off ch=1 n=f6 v=64
99485 Off ch=1 n=c6 v=64
99485 Off ch=1 n=a5 v=64
99765 On ch=1 n=f#4 v=80
99765 On ch=1 n=g#4 v=80
99765 On ch=1 n=c5 v=80
99765 On ch=1 n=f5 v=80
99765 On ch=1 n=g#5 v=80
100005 Off ch=1 n=g#5 v=64
100005 Off ch=1 n=f5 v=64
100005 Off ch=1 n=c5 v=64
100005 Off ch=1 n=g#4 v=64
100005 Off ch=1 n=f#4 v=64
100005 On ch=1 n=f#4 v=80
100005 On ch=1 n=g#4 v=80
100005 On ch=1 n=c5 v=80
100005 On ch=1 n=d#5 v=80
100005 On ch=1 n=g#5 v=80
100245 Off ch=1 n=g#5 v=64
100245 Off ch=1 n=d#5 v=64
100245 Off ch=1 n=c5 v=64
100245 Off ch=1 n=g#4 v=64
100245 Off ch=1 n=f#4 v=64
100245 On ch=1 n=f4 v=80
100245 On ch=1 n=c#5 v=80
100245 On ch=1 n=g#5 v=80
100445 Off ch=1 n=g#5 v=64
100445 Off ch=1 n=c#5 v=64
100445 Off ch=1 n=f4 v=64
100725 On ch=1 n=d#4 v=80
100725 On ch=1 n=a4 v=80
100725 On ch=1 n=c#5 v=80
100725 On ch=1 n=f5 v=80
100965 Off ch=1 n=f5 v=64
100965 Off ch=1 n=c#5 v=64
100965 Off ch=1 n=a4 v=64
100965 Off ch=1 n=d#4 v=64
100965 On ch=1 n=d#4 v=80
100965 On ch=1 n=a4 v=80
100965 On ch=1 n=c5 v=80
100965 On ch=1 n=f5 v=80
101205 Off ch=1 n=f5 v=64
101205 Off ch=1 n=c5 v=64
101205 Off ch=1 n=a4 v=64
101205 Off ch=1 n=d#4 v=64
101205 On ch=1 n=c#4 v=80
101205 On ch=1 n=a#4 v=80
101625 Off ch=1 n=a#4 v=64
101625 Off ch=1 n=c#4 v=64
101685 Par ch=1 c=7 v=32
101685 On ch=1 n=a#3 v=32
101685 On ch=1 n=f4 v=32
101685 On ch=1 n=a#4 v=32
101885 Off ch=1 n=a#4 v=64
101885 Off ch=1 n=f4 v=64
101885 Off ch=1 n=a#3 v=64
101925 On ch=1 n=a#4 v=32
102102 Off ch=1 n=a#4 v=64
102105 On ch=1 n=a#4 v=32
102162 Off ch=1 n=a#4 v=64
102165 On ch=1 n=f4 v=32
102165 On ch=1 n=a#4 v=32
102365 Off ch=1 n=a#4 v=64
102365 Off ch=1 n=f4 v=64
102405 On ch=1 n=f#4 v=32
102405 On ch=1 n=c#5 v=32
102582 Off ch=1 n=c#5 v=64
102585 On ch=1 n=c5 v=32
102605 Off ch=1 n=f#4 v=64
102642 Off ch=1 n=c5 v=64
102645 On ch=1 n=f4 v=32
102645 On ch=1 n=c#5 v=32
102672 Off ch=1 n=c#5 v=64
102675 On ch=1 n=c5 v=32
102822 Off ch=1 n=c5 v=64
102825 On ch=1 n=a#4 v=32
102845 Off ch=1 n=f4 v=64
102882 Off ch=1 n=a#4 v=64
102885 On ch=1 n=a#4 v=32
103062 Off ch=1 n=a#4 v=64
103065 On ch=1 n=a#4 v=32
103122 Off ch=1 n=a#4 v=64
103125 On ch=1 n=c#4 v=32
103125 On ch=1 n=f4 v=32
103125 On ch=1 n=a#4 v=32
103545 Off ch=1 n=a#4 v=64
103545 Off ch=1 n=f4 v=64
103545 Off ch=1 n=c#4 v=64
103545 Meta TrkEnd
TrkEnd
MTrk
0 Meta TrkName "Lower G.S."
0 PrCh ch=2 p=0
0 Par ch=2 c=7 v=127
0 Par ch=2 c=10 v=64
0 Par ch=2 c=7 v=30
0 On ch=2 n=a#2 v=30
0 On ch=2 n=f3 v=30
0 On ch=2 n=a#3 v=30
200 Off ch=2 n=a#3 v=64
200 Off ch=2 n=f3 v=64
200 Off ch=2 n=a#2 v=64
240 On ch=2 n=c#3 v=30
240 On ch=2 n=f#3 v=30
240 On ch=2 n=c#4 v=30
440 Off ch=2 n=c#4 v=64
440 Off ch=2 n=f#3 v=64
440 Off ch=2 n=c#3 v=64
480 On ch=2 n=a#2 v=30
480 On ch=2 n=f3 v=30
480 On ch=2 n=a#3 v=30
680 Off ch=2 n=a#3 v=64
680 Off ch=2 n=f3 v=64
680 Off ch=2 n=a#2 v=64
720 On ch=2 n=c#3 v=30
720 On ch=2 n=f#3 v=30
720 On ch=2 n=c#4 v=30
920 Off ch=2 n=c#4 v=64
920 Off ch=2 n=f#3 v=64
920 Off ch=2 n=c#3 v=64
960 On ch=2 n=a#2 v=30
960 On ch=2 n=f3 v=30
960 On ch=2 n=a#3 v=30
1160 Off ch=2 n=a#3 v=64
1160 Off ch=2 n=f3 v=64
1160 Off ch=2 n=a#2 v=64
1200 On ch=2 n=c#3 v=30
1200 On ch=2 n=f#3 v=30
1200 On ch=2 n=c#4 v=30
1400 Off ch=2 n=c#4 v=64
1400 Off ch=2 n=f#3 v=64
1400 Off ch=2 n=c#3 v=64
1440 On ch=2 n=a#2 v=30
1440 On ch=2 n=f3 v=30
1440 On ch=2 n=a#3 v=30
1640 Off ch=2 n=a#3 v=64
1640 Off ch=2 n=f3 v=64
1640 Off ch=2 n=a#2 v=64
1680 On ch=2 n=c#3 v=30
1680 On ch=2 n=f#3 v=30
1680 On ch=2 n=c#4 v=30
1880 Off ch=2 n=c#4 v=64
1880 Off ch=2 n=f#3 v=64
1880 Off ch=2 n=c#3 v=64
1920 On ch=2 n=a#2 v=30
1920 On ch=2 n=f3 v=30
1920 On ch=2 n=a#3 v=30
2120 Off ch=2 n=a#3 v=64
2120 Off ch=2 n=f3 v=64
2120 Off ch=2 n=a#2 v=64
2160 On ch=2 n=c#3 v=30
2160 On ch=2 n=f#3 v=30
2160 On ch=2 n=c#4 v=30
2360 Off ch=2 n=c#4 v=64
2360 Off ch=2 n=f#3 v=64
2360 Off ch=2 n=c#3 v=64
2400 On ch=2 n=a#2 v=30
2400 On ch=2 n=f3 v=30
2400 On ch=2 n=a#3 v=30
2600 Off ch=2 n=a#3 v=64
2600 Off ch=2 n=f3 v=64
2600 Off ch=2 n=a#2 v=64
2640 On ch=2 n=c#3 v=30
2640 On ch=2 n=f#3 v=30
2640 On ch=2 n=c#4 v=30
2840 Off ch=2 n=c#4 v=64
2840 Off ch=2 n=f#3 v=64
2840 Off ch=2 n=c#3 v=64
2880 On ch=2 n=a#2 v=30
2880 On ch=2 n=f3 v=30
2880 On ch=2 n=a#3 v=30
3080 Off ch=2 n=a#3 v=64
3080 Off ch=2 n=f3 v=64
3080 Off ch=2 n=a#2 v=64
3120 On ch=2 n=c#3 v=30
3120 On ch=2 n=f#3 v=30
3120 On ch=2 n=c#4 v=30
3320 Off ch=2 n=c#4 v=64
3320 Off ch=2 n=f#3 v=64
3320 Off ch=2 n=c#3 v=64
3360 On ch=2 n=a#2 v=30
3360 On ch=2 n=f3 v=30
3360 On ch=2 n=a#3 v=30
3560 Off ch=2 n=a#3 v=64
3560 Off ch=2 n=f3 v=64
3560 Off ch=2 n=a#2 v=64
3600 On ch=2 n=c#3 v=30
3600 On ch=2 n=f#3 v=30
3600 On ch=2 n=c#4 v=30
3800 Off ch=2 n=c#4 v=64
3800 Off ch=2 n=f#3 v=64
3800 Off ch=2 n=c#3 v=64
3840 Par ch=2 c=7 v=48
3840 On ch=2 n=a#2 v=48
3840 On ch=2 n=f3 v=48
3840 On ch=2 n=a#3 v=48
4040 Off ch=2 n=a#3 v=64
4040 Off ch=2 n=f3 v=64
4040 Off ch=2 n=a#2 v=64
4080 On ch=2 n=c#3 v=48
4080 On ch=2 n=f#3 v=48
4080 On ch=2 n=c#4 v=48
4280 Off ch=2 n=c#4 v=64
4280 Off ch=2 n=f#3 v=64
4280 Off ch=2 n=c#3 v=64
4320 On ch=2 n=a#2 v=48
4320 On ch=2 n=f3 v=48
4320 On ch=2 n=a#3 v=48
4520 Off ch=2 n=a#3 v=64
4520 Off ch=2 n=f3 v=64
4520 Off ch=2 n=a#2 v=64
4560 On ch=2 n=c#3 v=48
4560 On ch=2 n=f#3 v=48
4560 On ch=2 n=c#4 v=48
4760 Off ch=2 n=c#4 v=64
4760 Off ch=2 n=f#3 v=64
4760 Off ch=2 n=c#3 v=64
4800 On ch=2 n=a#2 v=48
4800 On ch=2 n=f3 v=48
4800 On ch=2 n=a#3 v=48
5000 Off ch=2 n=a#3 v=64
5000 Off ch=2 n=f3 v=64
5000 Off ch=2 n=a#2 v=64
5040 On ch=2 n=c#3 v=48
5040 On ch=2 n=f#3 v=48
5040 On ch=2 n=c#4 v=48
5240 Off ch=2 n=c#4 v=64
5240 Off ch=2 n=f#3 v=64
5240 Off ch=2 n=c#3 v=64
5280 On ch=2 n=a#2 v=48
5280 On ch=2 n=f3 v=48
5280 On ch=2 n=a#3 v=48
5480 Off ch=2 n=a#3 v=64
5480 Off ch=2 n=f3 v=64
5480 Off ch=2 n=a#2 v=64
5520 On ch=2 n=c#3 v=48
5520 On ch=2 n=f#3 v=48
5520 On ch=2 n=c#4 v=48
5720 Off ch=2 n=c#4 v=64
5720 Off ch=2 n=f#3 v=64
5720 Off ch=2 n=c#3 v=64
5760 Par ch=2 c=7 v=84
5760 On ch=2 n=a#2 v=84
5760 On ch=2 n=f3 v=84
5760 On ch=2 n=a#3 v=84
5786 Par ch=2 c=7 v=83
5812 Par ch=2 c=7 v=82
5840 Par ch=2 c=7 v=81
5866 Par ch=2 c=7 v=80
5892 Par ch=2 c=7 v=79
5920 Par ch=2 c=7 v=78
5946 Par ch=2 c=7 v=77
5960 Off ch=2 n=a#3 v=64
5960 Off ch=2 n=f3 v=64
5960 Off ch=2 n=a#2 v=64
5972 Par ch=2 c=7 v=76
6000 Par ch=2 c=7 v=75
6000 On ch=2 n=c#3 v=83
6000 On ch=2 n=f#3 v=83
6000 On ch=2 n=c#4 v=83
6026 Par ch=2 c=7 v=74
6052 Par ch=2 c=7 v=73
6080 Par ch=2 c=7 v=72
6106 Par ch=2 c=7 v=71
6132 Par ch=2 c=7 v=70
6160 Par ch=2 c=7 v=69
6186 Par ch=2 c=7 v=68
6200 Off ch=2 n=c#4 v=64
6200 Off ch=2 n=f#3 v=64
6200 Off ch=2 n=c#3 v=64
6212 Par ch=2 c=7 v=67
6240 Par ch=2 c=7 v=66
6240 On ch=2 n=a#2 v=82
6240 On ch=2 n=f3 v=82
6240 On ch=2 n=a#3 v=82
6266 Par ch=2 c=7 v=65
6292 Par ch=2 c=7 v=64
6320 Par ch=2 c=7 v=63
6346 Par ch=2 c=7 v=62
6372 Par ch=2 c=7 v=61
6400 Par ch=2 c=7 v=60
6426 Par ch=2 c=7 v=59
6440 Off ch=2 n=a#3 v=64
6440 Off ch=2 n=f3 v=64
6440 Off ch=2 n=a#2 v=64
6452 Par ch=2 c=7 v=58
6480 Par ch=2 c=7 v=57
6480 On ch=2 n=c#3 v=81
6480 On ch=2 n=f#3 v=81
6480 On ch=2 n=c#4 v=81
6506 Par ch=2 c=7 v=56
6532 Par ch=2 c=7 v=55
6560 Par ch=2 c=7 v=54
6586 Par ch=2 c=7 v=53
6612 Par ch=2 c=7 v=52
6640 Par ch=2 c=7 v=51
6666 Par ch=2 c=7 v=50
6680 Off ch=2 n=c#4 v=64
6680 Off ch=2 n=f#3 v=64
6680 Off ch=2 n=c#3 v=64
6692 Par ch=2 c=7 v=49
6720 Par ch=2 c=7 v=48
6720 Par ch=2 c=7 v=84
6720 On ch=2 n=a#2 v=84
6720 On ch=2 n=f3 v=84
6720 On ch=2 n=a#3 v=84
6746 Par ch=2 c=7 v=83
6772 Par ch=2 c=7 v=82
6800 Par ch=2 c=7 v=81
6826 Par ch=2 c=7 v=80
6852 Par ch=2 c=7 v=79
6880 Par ch=2 c=7 v=78
6906 Par ch=2 c=7 v=77
6920 Off ch=2 n=a#3 v=64
6920 Off ch=2 n=f3 v=64
6920 Off ch=2 n=a#2 v=64
6932 Par ch=2 c=7 v=76
6960 Par ch=2 c=7 v=75
6960 On ch=2 n=c#3 v=83
6960 On ch=2 n=f#3 v=83
6960 On ch=2 n=c#4 v=83
6986 Par ch=2 c=7 v=74
7012 Par ch=2 c=7 v=73
7040 Par ch=2 c=7 v=72
7066 Par ch=2 c=7 v=71
7092 Par ch=2 c=7 v=70
7120 Par ch=2 c=7 v=69
7146 Par ch=2 c=7 v=68
7160 Off ch=2 n=c#4 v=64
7160 Off ch=2 n=f#3 v=64
7160 Off ch=2 n=c#3 v=64
7172 Par ch=2 c=7 v=67
7200 Par ch=2 c=7 v=66
7200 On ch=2 n=a#2 v=82
7200 On ch=2 n=f3 v=82
7200 On ch=2 n=a#3 v=82
7226 Par ch=2 c=7 v=65
7252 Par ch=2 c=7 v=64
7280 Par ch=2 c=7 v=63
7306 Par ch=2 c=7 v=62
7332 Par ch=2 c=7 v=61
7360 Par ch=2 c=7 v=60
7386 Par ch=2 c=7 v=59
7400 Off ch=2 n=a#3 v=64
7400 Off ch=2 n=f3 v=64
7400 Off ch=2 n=a#2 v=64
7412 Par ch=2 c=7 v=58
7440 Par ch=2 c=7 v=57
7440 On ch=2 n=c#3 v=81
7440 On ch=2 n=f#3 v=81
7440 On ch=2 n=c#4 v=81
7466 Par ch=2 c=7 v=56
7492 Par ch=2 c=7 v=55
7520 Par ch=2 c=7 v=54
7546 Par ch=2 c=7 v=53
7572 Par ch=2 c=7 v=52
7600 Par ch=2 c=7 v=51
7626 Par ch=2 c=7 v=50
7640 Off ch=2 n=c#4 v=64
7640 Off ch=2 n=f#3 v=64
7640 Off ch=2 n=c#3 v=64
7652 Par ch=2 c=7 v=49
7680 Par ch=2 c=7 v=48
7680 On ch=2 n=a#2 v=48
7680 On ch=2 n=f3 v=48
7680 On ch=2 n=a#3 v=48
7880 Off ch=2 n=a#3 v=64
7880 Off ch=2 n=f3 v=64
7880 Off ch=2 n=a#2 v=64
7920 On ch=2 n=c#3 v=48
7920 On ch=2 n=f#3 v=48
7920 On ch=2 n=c#4 v=48
8120 Off ch=2 n=c#4 v=64
8120 Off ch=2 n=f#3 v=64
8120 Off ch=2 n=c#3 v=64
8160 On ch=2 n=a#2 v=48
8160 On ch=2 n=f3 v=48
8160 On ch=2 n=a#3 v=48
8360 Off ch=2 n=a#3 v=64
8360 Off ch=2 n=f3 v=64
8360 Off ch=2 n=a#2 v=64
8400 On ch=2 n=c#3 v=48
8400 On ch=2 n=f#3 v=48
8400 On ch=2 n=c#4 v=48
8600 Off ch=2 n=c#4 v=64
8600 Off ch=2 n=f#3 v=64
8600 Off ch=2 n=c#3 v=64
8640 On ch=2 n=a#2 v=48
8640 On ch=2 n=f3 v=48
8640 On ch=2 n=a#3 v=48
8840 Off ch=2 n=a#3 v=64
8840 Off ch=2 n=f3 v=64
8840 Off ch=2 n=a#2 v=64
8880 On ch=2 n=c#3 v=48
8880 On ch=2 n=f#3 v=48
8880 On ch=2 n=c#4 v=48
9080 Off ch=2 n=c#4 v=64
9080 Off ch=2 n=f#3 v=64
9080 Off ch=2 n=c#3 v=64
9120 On ch=2 n=a#2 v=48
9120 On ch=2 n=f3 v=48
9120 On ch=2 n=a#3 v=48
9320 Off ch=2 n=a#3 v=64
9320 Off ch=2 n=f3 v=64
9320 Off ch=2 n=a#2 v=64
9360 On ch=2 n=c#3 v=48
9360 On ch=2 n=f#3 v=48
9360 On ch=2 n=c#4 v=48
9560 Off ch=2 n=c#4 v=64
9560 Off ch=2 n=f#3 v=64
9560 Off ch=2 n=c#3 v=64
9600 Par ch=2 c=7 v=120
9600 Par ch=2 c=64 v=127
9600 On ch=2 n=a#2 v=120
9600 On ch=2 n=f3 v=120
9600 On ch=2 n=a#3 v=120
9623 Par ch=2 c=7 v=119
9647 Par ch=2 c=7 v=118
9671 Par ch=2 c=7 v=117
9695 Par ch=2 c=7 v=116
9720 Par ch=2 c=7 v=115
9743 Par ch=2 c=7 v=114
9767 Par ch=2 c=7 v=113
9791 Par ch=2 c=7 v=112
9800 Off ch=2 n=a#3 v=64
9800 Off ch=2 n=f3 v=64
9800 Off ch=2 n=a#2 v=64
9815 Par ch=2 c=7 v=111
9840 Par ch=2 c=7 v=110
9840 On ch=2 n=c#3 v=119
9840 On ch=2 n=f#3 v=119
9840 On ch=2 n=c#4 v=119
9863 Par ch=2 c=7 v=109
9887 Par ch=2 c=7 v=108
9911 Par ch=2 c=7 v=107
9935 Par ch=2 c=7 v=106
9960 Par ch=2 c=7 v=105
9983 Par ch=2 c=7 v=104
10007 Par ch=2 c=7 v=103
10031 Par ch=2 c=7 v=102
10040 Off ch=2 n=c#4 v=64
10040 Off ch=2 n=f#3 v=64
10040 Off ch=2 n=c#3 v=64
10055 Par ch=2 c=7 v=101
10080 Par ch=2 c=7 v=100
10080 On ch=2 n=a#2 v=118
10080 On ch=2 n=f3 v=118
10080 On ch=2 n=a#3 v=118
10103 Par ch=2 c=7 v=99
10127 Par ch=2 c=7 v=98
10151 Par ch=2 c=7 v=97
10175 Par ch=2 c=7 v=96
10200 Par ch=2 c=7 v=95
10223 Par ch=2 c=7 v=94
10247 Par ch=2 c=7 v=93
10271 Par ch=2 c=7 v=92
10280 Off ch=2 n=a#3 v=64
10280 Off ch=2 n=f3 v=64
10280 Off ch=2 n=a#2 v=64
10295 Par ch=2 c=7 v=91
10320 Par ch=2 c=7 v=90
10320 On ch=2 n=c#3 v=117
10320 On ch=2 n=f#3 v=117
10320 On ch=2 n=c#4 v=117
10343 Par ch=2 c=7 v=89
10367 Par ch=2 c=7 v=88
10391 Par ch=2 c=7 v=87
10415 Par ch=2 c=7 v=86
10440 Par ch=2 c=7 v=85
10463 Par ch=2 c=7 v=84
10487 Par ch=2 c=7 v=83
10511 Par ch=2 c=7 v=82
10520 Off ch=2 n=c#4 v=64
10520 Off ch=2 n=f#3 v=64
10520 Off ch=2 n=c#3 v=64
10535 Par ch=2 c=7 v=81
10560 Par ch=2 c=64 v=0
10560 Par ch=2 c=7 v=80
10560 Par ch=2 c=7 v=120
10560 Par ch=2 c=64 v=127
10560 On ch=2 n=a#2 v=120
10560 On ch=2 n=f3 v=120
10560 On ch=2 n=a#3 v=120
10583 Par ch=2 c=7 v=119
10607 Par ch=2 c=7 v=118
10631 Par ch=2 c=7 v=117
10655 Par ch=2 c=7 v=116
10680 Par ch=2 c=7 v=115
10703 Par ch=2 c=7 v=114
10727 Par ch=2 c=7 v=113
10751 Par ch=2 c=7 v=112
10760 Off ch=2 n=a#3 v=64
10760 Off ch=2 n=f3 v=64
10760 Off ch=2 n=a#2 v=64
10775 Par ch=2 c=7 v=111
10800 Par ch=2 c=7 v=110
10800 On ch=2 n=c#3 v=119
10800 On ch=2 n=f#3 v=119
10800 On ch=2 n=c#4 v=119
10823 Par ch=2 c=7 v=109
10847 Par ch=2 c=7 v=108
10871 Par ch=2 c=7 v=107
10895 Par ch=2 c=7 v=106
10920 Par ch=2 c=7 v=105
10943 Par ch=2 c=7 v=104
10967 Par ch=2 c=7 v=103
10991 Par ch=2 c=7 v=102
11000 Off ch=2 n=c#4 v=64
11000 Off ch=2 n=f#3 v=64
11000 Off ch=2 n=c#3 v=64
11015 Par ch=2 c=7 v=101
11040 Par ch=2 c=7 v=100
11040 On ch=2 n=a#2 v=118
11040 On ch=2 n=f3 v=118
11040 On ch=2 n=a#3 v=118
11063 Par ch=2 c=7 v=99
11087 Par ch=2 c=7 v=98
11111 Par ch=2 c=7 v=97
11135 Par ch=2 c=7 v=96
11160 Par ch=2 c=7 v=95
11183 Par ch=2 c=7 v=94
11207 Par ch=2 c=7 v=93
11231 Par ch=2 c=7 v=92
11240 Off ch=2 n=a#3 v=64
11240 Off ch=2 n=f3 v=64
11240 Off ch=2 n=a#2 v=64
11255 Par ch=2 c=7 v=91
11280 Par ch=2 c=7 v=90
11280 On ch=2 n=c#3 v=117
11280 On ch=2 n=f#3 v=117
11280 On ch=2 n=c#4 v=117
11303 Par ch=2 c=7 v=89
11327 Par ch=2 c=7 v=88
11351 Par ch=2 c=7 v=87
11375 Par ch=2 c=7 v=86
11400 Par ch=2 c=7 v=85
11423 Par ch=2 c=7 v=84
11447 Par ch=2 c=7 v=83
11471 Par ch=2 c=7 v=82
11480 Off ch=2 n=c#4 v=64
11480 Off ch=2 n=f#3 v=64
11480 Off ch=2 n=c#3 v=64
11495 Par ch=2 c=7 v=81
11520 Par ch=2 c=64 v=0
11520 Par ch=2 c=7 v=80
11520 Par ch=2 c=7 v=40
11520 On ch=2 n=a#2 v=40
11520 On ch=2 n=f3 v=40
11520 On ch=2 n=a#3 v=40
11720 Off ch=2 n=a#3 v=64
11720 Off ch=2 n=f3 v=64
11720 Off ch=2 n=a#2 v=64
11760 On ch=2 n=c#3 v=40
11760 On ch=2 n=f#3 v=40
11760 On ch=2 n=c#4 v=40
11960 Off ch=2 n=c#4 v=64
11960 Off ch=2 n=f#3 v=64
11960 Off ch=2 n=c#3 v=64
12000 On ch=2 n=a#2 v=40
12000 On ch=2 n=f3 v=40
12000 On ch=2 n=a#3 v=40
12200 Off ch=2 n=a#3 v=64
12200 Off ch=2 n=f3 v=64
12200 Off ch=2 n=a#2 v=64
12240 On ch=2 n=c#3 v=40
12240 On ch=2 n=f#3 v=40
12240 On ch=2 n=c#4 v=40
12440 Off ch=2 n=c#4 v=64
12440 Off ch=2 n=f#3 v=64
12440 Off ch=2 n=c#3 v=64
12480 On ch=2 n=a#2 v=40
12480 On ch=2 n=f3 v=40
12480 On ch=2 n=a#3 v=40
12680 Off ch=2 n=a#3 v=64
12680 Off ch=2 n=f3 v=64
12680 Off ch=2 n=a#2 v=64
12720 On ch=2 n=c#3 v=40
12720 On ch=2 n=f#3 v=40
12720 On ch=2 n=c#4 v=40
12920 Off ch=2 n=c#4 v=64
12920 Off ch=2 n=f#3 v=64
12920 Off ch=2 n=c#3 v=64
12960 On ch=2 n=a#2 v=40
12960 On ch=2 n=f3 v=40
12960 On ch=2 n=a#3 v=40
13160 Off ch=2 n=a#3 v=64
13160 Off ch=2 n=f3 v=64
13160 Off ch=2 n=a#2 v=64
13200 Par ch=2 c=7 v=72
13200 On ch=2 n=g#2 v=100
13200 On ch=2 n=g#3 v=100
13400 Off ch=2 n=g#3 v=64
13400 Off ch=2 n=g#2 v=64
13440 Par ch=2 c=7 v=80
13440 Par ch=2 c=64 v=127
13440 On ch=2 n=c#2 v=80
13440 On ch=2 n=c#3 v=80
13470 Par ch=2 c=7 v=81
13500 Par ch=2 c=7 v=82
13530 Par ch=2 c=7 v=83
13560 Par ch=2 c=7 v=84
13590 Par ch=2 c=7 v=85
13620 Par ch=2 c=7 v=86
13640 Off ch=2 n=c#3 v=64
13640 Off ch=2 n=c#2 v=64
13650 Par ch=2 c=7 v=87
13680 Par ch=2 c=7 v=88
13680 On ch=2 n=c#4 v=81
13680 On ch=2 n=g#4 v=81
13680 On ch=2 n=c#5 v=81
13710 Par ch=2 c=7 v=89
13740 Par ch=2 c=7 v=90
13770 Par ch=2 c=7 v=91
13800 Par ch=2 c=7 v=92
13830 Par ch=2 c=7 v=93
13857 Off ch=2 n=c#5 v=64
13857 Off ch=2 n=g#4 v=64
13857 Off ch=2 n=c#4 v=64
13860 Par ch=2 c=7 v=94
13860 On ch=2 n=d#5 v=82
13890 Par ch=2 c=7 v=95
13917 Off ch=2 n=d#5 v=64
13920 Par ch=2 c=7 v=96
13920 On ch=2 n=c#4 v=83
13920 On ch=2 n=g#4 v=83
13920 On ch=2 n=f5 v=83
13950 Par ch=2 c=7 v=97
13980 Par ch=2 c=7 v=98
14010 Par ch=2 c=7 v=99
14040 Par ch=2 c=7 v=100
14070 Par ch=2 c=7 v=101
14097 Off ch=2 n=f5 v=64
14097 Off ch=2 n=g#4 v=64
14097 Off ch=2 n=c#4 v=64
14100 Par ch=2 c=7 v=102
14100 On ch=2 n=f#5 v=84
14130 Par ch=2 c=7 v=103
14157 Off ch=2 n=f#5 v=64
14160 Par ch=2 c=7 v=104
14160 On ch=2 n=g#4 v=85
14160 On ch=2 n=d#5 v=85
14160 On ch=2 n=g#5 v=85
14190 Par ch=2 c=7 v=105
14220 Par ch=2 c=7 v=106
14250 Par ch=2 c=7 v=107
14280 Par ch=2 c=7 v=108
14310 Par ch=2 c=7 v=109
14337 Off ch=2 n=g#5 v=64
14337 Off ch=2 n=d#5 v=64
14337 Off ch=2 n=g#4 v=64
14340 Par ch=2 c=7 v=110
14340 On ch=2 n=f5 v=86
14370 Par ch=2 c=7 v=111
14397 Off ch=2 n=f5 v=64
14400 Par ch=2 c=7 v=112
14400 Par ch=2 c=64 v=0
14400 Par ch=2 c=64 v=127
14400 On ch=2 n=g#2 v=112
14400 On ch=2 n=g#3 v=112
14600 Off ch=2 n=g#3 v=64
14600 Off ch=2 n=g#2 v=64
14640 On ch=2 n=d#5 v=112
14640 On ch=2 n=f#5 v=112
14640 On ch=2 n=c6 v=112
14660 Par ch=2 c=7 v=111
14681 Par ch=2 c=7 v=110
14701 Par ch=2 c=7 v=109
14722 Par ch=2 c=7 v=108
14742 Par ch=2 c=7 v=107
14763 Par ch=2 c=7 v=106
14783 Par ch=2 c=7 v=105
14805 Par ch=2 c=7 v=104
14817 Off ch=2 n=c6 v=64
14817 Off ch=2 n=f#5 v=64
14817 Off ch=2 n=d#5 v=64
14820 On ch=2 n=c#5 v=111
14820 On ch=2 n=f#5 v=111
14820 On ch=2 n=a#5 v=111
14825 Par ch=2 c=7 v=103
14846 Par ch=2 c=7 v=102
14866 Par ch=2 c=7 v=101
14877 Off ch=2 n=a#5 v=64
14877 Off ch=2 n=f#5 v=64
14877 Off ch=2 n=c#5 v=64
14880 On ch=2 n=c#5 v=110
14880 On ch=2 n=f#5 v=110
14880 On ch=2 n=a#5 v=110
14887 Par ch=2 c=7 v=100
14907 Par ch=2 c=7 v=99
14928 Par ch=2 c=7 v=98
14948 Par ch=2 c=7 v=97
14970 Par ch=2 c=7 v=96
14990 Par ch=2 c=7 v=95
15011 Par ch=2 c=7 v=94
15031 Par ch=2 c=7 v=93
15052 Par ch=2 c=7 v=92
15057 Off ch=2 n=a#5 v=64
15057 Off ch=2 n=f#5 v=64
15057 Off ch=2 n=c#5 v=64
15060 On ch=2 n=c5 v=109
15060 On ch=2 n=f#5 v=109
15060 On ch=2 n=g#5 v=109
15072 Par ch=2 c=7 v=91
15093 Par ch=2 c=7 v=90
15113 Par ch=2 c=7 v=89
15117 Off ch=2 n=g#5 v=64
15117 Off ch=2 n=f#5 v=64
15117 Off ch=2 n=c5 v=64
15120 On ch=2 n=c5 v=108
15120 On ch=2 n=f#5 v=108
15120 On ch=2 n=g#5 v=108
15135 Par ch=2 c=7 v=88
15155 Par ch=2 c=7 v=87
15176 Par ch=2 c=7 v=86
15196 Par ch=2 c=7 v=85
15217 Par ch=2 c=7 v=84
15237 Par ch=2 c=7 v=83
15258 Par ch=2 c=7 v=82
15278 Par ch=2 c=7 v=81
15297 Off ch=2 n=g#5 v=64
15297 Off ch=2 n=f#5 v=64
15297 Off ch=2 n=c5 v=64
15300 Par ch=2 c=64 v=0
15300 Par ch=2 c=7 v=80
15300 On ch=2 n=a4 v=80
15300 On ch=2 n=c5 v=80
15300 On ch=2 n=d#5 v=80
15357 Off ch=2 n=d#5 v=64
15357 Off ch=2 n=c5 v=64
15357 Off ch=2 n=a4 v=64
15360 Par ch=2 c=64 v=127
15360 On ch=2 n=a#2 v=80
15360 On ch=2 n=a#3 v=80
15560 Off ch=2 n=a#3 v=64
15560 Off ch=2 n=a#2 v=64
15600 On ch=2 n=f4 v=80
15600 On ch=2 n=a#4 v=80
15600 On ch=2 n=c#5 v=80
15800 Off ch=2 n=c#5 v=64
15800 Off ch=2 n=a#4 v=64
15800 Off ch=2 n=f4 v=64
15840 Par ch=2 c=64 v=0
15840 Par ch=2 c=64 v=127
15840 On ch=2 n=c#3 v=80
15840 On ch=2 n=c#4 v=80
16040 Off ch=2 n=c#4 v=64
16040 Off ch=2 n=c#3 v=64
16080 On ch=2 n=f4 v=80
16080 On ch=2 n=a#4 v=80
16080 On ch=2 n=c#5 v=80
16080 On ch=2 n=f5 v=80
16280 Off ch=2 n=f5 v=64
16280 Off ch=2 n=c#5 v=64
16280 Off ch=2 n=a#4 v=64
16280 Off ch=2 n=f4 v=64
16320 Par ch=2 c=64 v=0
16320 Par ch=2 c=64 v=127
16320 On ch=2 n=f2 v=80
16320 On ch=2 n=f3 v=80
16520 Off ch=2 n=f3 v=64
16520 Off ch=2 n=f2 v=64
16560 On ch=2 n=f4 v=80
16560 On ch=2 n=a#4 v=80
16760 Off ch=2 n=a#4 v=64
16760 Off ch=2 n=f4 v=64
16800 Par ch=2 c=64 v=0
16800 On ch=2 n=f4 v=80
16800 On ch=2 n=a4 v=80
16800 On ch=2 n=c5 v=80
17000 Off ch=2 n=c5 v=64
17000 Off ch=2 n=a4 v=64
17000 Off ch=2 n=f4 v=64
17040 On ch=2 n=f4 v=80
17240 Off ch=2 n=f4 v=64
17280 Par ch=2 c=64 v=127
17280 On ch=2 n=g3 v=80
17337 Off ch=2 n=g3 v=64
17340 On ch=2 n=g#3 v=80
17397 Off ch=2 n=g#3 v=64
17400 On ch=2 n=a#3 v=80
17427 Off ch=2 n=a#3 v=64
17430 On ch=2 n=g#3 v=80
17457 Off ch=2 n=g#3 v=64
17460 On ch=2 n=a#3 v=80
17487 Off ch=2 n=a#3 v=64
17490 On ch=2 n=g#3 v=80
17517 Off ch=2 n=g#3 v=64
17520 On ch=2 n=a#3 v=80
17547 Off ch=2 n=a#3 v=64
17550 On ch=2 n=g#3 v=80
17577 Off ch=2 n=g#3 v=64
17580 On ch=2 n=a#3 v=80
17607 Off ch=2 n=a#3 v=64
17610 On ch=2 n=g#3 v=80
17637 Off ch=2 n=g#3 v=64
17640 On ch=2 n=g3 v=80
17697 Off ch=2 n=g3 v=64
17700 On ch=2 n=g#3 v=80
17757 Off ch=2 n=g#3 v=64
17760 Par ch=2 c=64 v=0
17760 On ch=2 n=c#4 v=80
17960 Off ch=2 n=c#4 v=64
18000 On ch=2 n=c#4 v=80
18200 Off ch=2 n=c#4 v=64
18240 Par ch=2 c=64 v=127
18240 On ch=2 n=e3 v=80
18297 Off ch=2 n=e3 v=64
18300 On ch=2 n=f3 v=80
18357 Off ch=2 n=f3 v=64
18360 On ch=2 n=f#3 v=80
18387 Off ch=2 n=f#3 v=64
18390 On ch=2 n=f3 v=80
18417 Off ch=2 n=f3 v=64
18420 On ch=2 n=f#3 v=80
18447 Off ch=2 n=f#3 v=64
18450 On ch=2 n=f3 v=80
18477 Off ch=2 n=f3 v=64
18480 On ch=2 n=f#3 v=80
18507 Off ch=2 n=f#3 v=64
18510 On ch=2 n=f3 v=80
18537 Off ch=2 n=f3 v=64
18540 On ch=2 n=f#3 v=80
18567 Off ch=2 n=f#3 v=64
18570 On ch=2 n=f3 v=80
18597 Off ch=2 n=f3 v=64
18600 On ch=2 n=e3 v=80
18657 Off ch=2 n=e3 v=64
18660 On ch=2 n=f3 v=80
18717 Off ch=2 n=f3 v=64
18720 On ch=2 n=f#3 v=80
18920 Off ch=2 n=f#3 v=64
18960 Par ch=2 c=64 v=0
18960 On ch=2 n=f3 v=80
19077 Off ch=2 n=f3 v=64
19080 On ch=2 n=c#3 v=80
19197 Off ch=2 n=c#3 v=64
19200 Par ch=2 c=7 v=32
19200 On ch=2 n=a#2 v=32
19400 Off ch=2 n=a#2 v=64
19440 On ch=2 n=c#3 v=32
19440 On ch=2 n=f#3 v=32
19440 On ch=2 n=c#4 v=32
19640 Off ch=2 n=c#4 v=64
19640 Off ch=2 n=f#3 v=64
19640 Off ch=2 n=c#3 v=64
19680 On ch=2 n=a#2 v=32
19680 On ch=2 n=f3 v=32
19680 On ch=2 n=a#3 v=32
19880 Off ch=2 n=a#3 v=64
19880 Off ch=2 n=f3 v=64
19880 Off ch=2 n=a#2 v=64
19920 On ch=2 n=c#3 v=32
19920 On ch=2 n=f#3 v=32
19920 On ch=2 n=c#4 v=32
20120 Off ch=2 n=c#4 v=64
20120 Off ch=2 n=f#3 v=64
20120 Off ch=2 n=c#3 v=64
20160 On ch=2 n=a#2 v=32
20160 On ch=2 n=f3 v=32
20160 On ch=2 n=a#3 v=32
20160 On ch=2 n=f4 v=32
20360 Off ch=2 n=f4 v=64
20360 Off ch=2 n=a#3 v=64
20360 Off ch=2 n=f3 v=64
20360 Off ch=2 n=a#2 v=64
20400 On ch=2 n=c#3 v=32
20400 On ch=2 n=f#3 v=32
20400 On ch=2 n=c#4 v=32
20600 Off ch=2 n=c#4 v=64
20600 Off ch=2 n=f#3 v=64
20600 Off ch=2 n=c#3 v=64
20640 On ch=2 n=a#2 v=32
20640 On ch=2 n=f3 v=32
20640 On ch=2 n=a#3 v=32
20640 On ch=2 n=f4 v=32
20840 Off ch=2 n=f4 v=64
20840 Off ch=2 n=a#3 v=64
20840 Off ch=2 n=f3 v=64
20840 Off ch=2 n=a#2 v=64
20880 Par ch=2 c=7 v=112
20880 On ch=2 n=a2 v=112
20880 On ch=2 n=a3 v=112
21057 Off ch=2 n=a3 v=64
21057 Off ch=2 n=a2 v=64
21060 On ch=2 n=g#2 v=112
21060 On ch=2 n=g#3 v=112
21117 Off ch=2 n=g#3 v=64
21117 Off ch=2 n=g#2 v=64
21120 Par ch=2 c=7 v=96
21120 Par ch=2 c=64 v=127
21120 On ch=2 n=c#2 v=96
21120 On ch=2 n=c#3 v=96
21160 Par ch=2 c=7 v=97
21200 Par ch=2 c=7 v=98
21240 Par ch=2 c=7 v=99
21280 Par ch=2 c=7 v=100
21320 Off ch=2 n=c#3 v=64
21320 Off ch=2 n=c#2 v=64
21320 Par ch=2 c=7 v=101
21360 Par ch=2 c=7 v=102
21360 On ch=2 n=c#4 v=97
21360 On ch=2 n=g#4 v=97
21360 On ch=2 n=c#5 v=97
21400 Par ch=2 c=7 v=103
21440 Par ch=2 c=7 v=104
21480 Par ch=2 c=7 v=105
21520 Par ch=2 c=7 v=106
21537 Off ch=2 n=c#5 v=64
21537 Off ch=2 n=g#4 v=64
21537 Off ch=2 n=c#4 v=64
21540 On ch=2 n=d#5 v=98
21560 Par ch=2 c=7 v=107
21597 Off ch=2 n=d#5 v=64
21600 Par ch=2 c=7 v=108
21600 On ch=2 n=c#4 v=99
21600 On ch=2 n=g#4 v=99
21600 On ch=2 n=f5 v=99
21640 Par ch=2 c=7 v=109
21680 Par ch=2 c=7 v=110
21720 Par ch=2 c=7 v=111
21760 Par ch=2 c=7 v=112
21777 Off ch=2 n=f5 v=64
21777 Off ch=2 n=g#4 v=64
21777 Off ch=2 n=c#4 v=64
21780 On ch=2 n=f#5 v=100
21800 Par ch=2 c=7 v=113
21837 Off ch=2 n=f#5 v=64
21840 Par ch=2 c=7 v=114
21840 On ch=2 n=g#4 v=101
21840 On ch=2 n=d#5 v=101
21840 On ch=2 n=g#5 v=101
21880 Par ch=2 c=7 v=115
21920 Par ch=2 c=7 v=116
21960 Par ch=2 c=7 v=117
22000 Par ch=2 c=7 v=118
22017 Off ch=2 n=g#5 v=64
22017 Off ch=2 n=d#5 v=64
22017 Off ch=2 n=g#4 v=64
22020 On ch=2 n=f5 v=102
22040 Par ch=2 c=7 v=119
22077 Off ch=2 n=f5 v=64
22080 Par ch=2 c=7 v=120
22080 Par ch=2 c=64 v=0
22080 Par ch=2 c=64 v=127
22080 On ch=2 n=g#2 v=120
22080 On ch=2 n=g#3 v=120
22280 Off ch=2 n=g#3 v=64
22280 Off ch=2 n=g#2 v=64
22320 On ch=2 n=d#5 v=120
22320 On ch=2 n=f#5 v=120
22320 On ch=2 n=c6 v=120
22336 Par ch=2 c=7 v=119
22352 Par ch=2 c=7 v=118
22368 Par ch=2 c=7 v=117
22385 Par ch=2 c=7 v=116
22401 Par ch=2 c=7 v=115
22418 Par ch=2 c=7 v=114
22435 Par ch=2 c=7 v=113
22451 Par ch=2 c=7 v=112
22467 Par ch=2 c=7 v=111
22483 Par ch=2 c=7 v=110
22497 Off ch=2 n=c6 v=64
22497 Off ch=2 n=f#5 v=64
22497 Off ch=2 n=d#5 v=64
22500 On ch=2 n=c#5 v=119
22500 On ch=2 n=f#5 v=119
22500 On ch=2 n=a#5 v=119
22501 Par ch=2 c=7 v=109
22517 Par ch=2 c=7 v=108
22533 Par ch=2 c=7 v=107
22550 Par ch=2 c=7 v=106
22557 Off ch=2 n=a#5 v=64
22557 Off ch=2 n=f#5 v=64
22557 Off ch=2 n=c#5 v=64
22560 On ch=2 n=c#5 v=118
22560 On ch=2 n=f#5 v=118
22560 On ch=2 n=a#5 v=118
22566 Par ch=2 c=7 v=105
22583 Par ch=2 c=7 v=104
22600 Par ch=2 c=7 v=103
22616 Par ch=2 c=7 v=102
22632 Par ch=2 c=7 v=101
22648 Par ch=2 c=7 v=100
22666 Par ch=2 c=7 v=99
22682 Par ch=2 c=7 v=98
22698 Par ch=2 c=7 v=97
22715 Par ch=2 c=7 v=96
22731 Par ch=2 c=7 v=95
22737 Off ch=2 n=a#5 v=64
22737 Off ch=2 n=f#5 v=64
22737 Off ch=2 n=c#5 v=64
22740 On ch=2 n=c5 v=117
22740 On ch=2 n=f#5 v=117
22740 On ch=2 n=g#5 v=117
22748 Par ch=2 c=7 v=94
22765 Par ch=2 c=7 v=93
22781 Par ch=2 c=7 v=92
22797 Off ch=2 n=g#5 v=64
22797 Off ch=2 n=f#5 v=64
22797 Off ch=2 n=c5 v=64
22797 Par ch=2 c=7 v=91
22800 On ch=2 n=c5 v=116
22800 On ch=2 n=f#5 v=116
22800 On ch=2 n=g#5 v=116
22810 Par ch=2 c=7 v=90
22828 Par ch=2 c=7 v=89
22844 Par ch=2 c=7 v=88
22860 Par ch=2 c=7 v=87
22877 Par ch=2 c=7 v=86
22893 Par ch=2 c=7 v=85
22910 Par ch=2 c=7 v=84
22927 Par ch=2 c=7 v=83
22943 Par ch=2 c=7 v=82
22959 Par ch=2 c=7 v=81
22974 Off ch=2 n=g#5 v=64
22974 Off ch=2 n=f#5 v=64
22974 Off ch=2 n=c5 v=64
22975 Par ch=2 c=7 v=80
22977 Par ch=2 c=64 v=0
22977 Par ch=2 c=7 v=80
22977 On ch=2 n=a4 v=80
22977 On ch=2 n=c5 v=80
22977 On ch=2 n=d#5 v=80
23034 Off ch=2 n=d#5 v=64
23034 Off ch=2 n=c5 v=64
23034 Off ch=2 n=a4 v=64
23037 Par ch=2 c=64 v=127
23037 On ch=2 n=a#2 v=80
23037 On ch=2 n=a#3 v=80
23237 Off ch=2 n=a#3 v=64
23237 Off ch=2 n=a#2 v=64
23277 On ch=2 n=f4 v=80
23277 On ch=2 n=a#4 v=80
23277 On ch=2 n=c#5 v=80
23477 Off ch=2 n=c#5 v=64
23477 Off ch=2 n=a#4 v=64
23477 Off ch=2 n=f4 v=64
23517 Par ch=2 c=64 v=0
23517 Par ch=2 c=64 v=127
23517 On ch=2 n=c#3 v=80
23517 On ch=2 n=c#4 v=80
23717 Off ch=2 n=c#4 v=64
23717 Off ch=2 n=c#3 v=64
23757 On ch=2 n=f4 v=80
23757 On ch=2 n=a#4 v=80
23757 On ch=2 n=c#5 v=80
23757 On ch=2 n=f5 v=80
23957 Off ch=2 n=f5 v=64
23957 Off ch=2 n=c#5 v=64
23957 Off ch=2 n=a#4 v=64
23957 Off ch=2 n=f4 v=64
23997 Par ch=2 c=64 v=0
23997 Par ch=2 c=64 v=127
23997 On ch=2 n=f2 v=80
23997 On ch=2 n=f3 v=80
24197 Off ch=2 n=f3 v=64
24197 Off ch=2 n=f2 v=64
24237 On ch=2 n=f4 v=80
24237 On ch=2 n=a#4 v=80
24437 Off ch=2 n=a#4 v=64
24437 Off ch=2 n=f4 v=64
24477 Par ch=2 c=64 v=0
24477 On ch=2 n=f4 v=80
24477 On ch=2 n=a4 v=80
24477 On ch=2 n=c5 v=80
24677 Off ch=2 n=c5 v=64
24677 Off ch=2 n=a4 v=64
24677 Off ch=2 n=f4 v=64
24717 On ch=2 n=f4 v=80
24917 Off ch=2 n=f4 v=64
24957 Par ch=2 c=64 v=127
24957 On ch=2 n=g3 v=80
25014 Off ch=2 n=g3 v=64
25017 On ch=2 n=g#3 v=80
25074 Off ch=2 n=g#3 v=64
25077 On ch=2 n=a#3 v=80
25104 Off ch=2 n=a#3 v=64
25107 On ch=2 n=g#3 v=80
25134 Off ch=2 n=g#3 v=64
25137 On ch=2 n=a#3 v=80
25164 Off ch=2 n=a#3 v=64
25167 On ch=2 n=g#3 v=80
25194 Off ch=2 n=g#3 v=64
25197 On ch=2 n=a#3 v=80
25224 Off ch=2 n=a#3 v=64
25227 On ch=2 n=g#3 v=80
25254 Off ch=2 n=g#3 v=64
25257 On ch=2 n=a#3 v=80
25284 Off ch=2 n=a#3 v=64
25287 On ch=2 n=g#3 v=80
25314 Off ch=2 n=g#3 v=64
25317 On ch=2 n=g3 v=80
25374 Off ch=2 n=g3 v=64
25377 On ch=2 n=g#3 v=80
25434 Off ch=2 n=g#3 v=64
25437 Par ch=2 c=64 v=0
25437 On ch=2 n=c#4 v=80
25637 Off ch=2 n=c#4 v=64
25677 On ch=2 n=c#4 v=80
25877 Off ch=2 n=c#4 v=64
25917 Par ch=2 c=64 v=127
25917 On ch=2 n=e3 v=80
25974 Off ch=2 n=e3 v=64
25977 On ch=2 n=f3 v=80
26034 Off ch=2 n=f3 v=64
26037 On ch=2 n=f#3 v=80
26064 Off ch=2 n=f#3 v=64
26067 On ch=2 n=f3 v=80
26094 Off ch=2 n=f3 v=64
26097 On ch=2 n=f#3 v=80
26124 Off ch=2 n=f#3 v=64
26127 On ch=2 n=f3 v=80
26154 Off ch=2 n=f3 v=64
26157 On ch=2 n=f#3 v=80
26184 Off ch=2 n=f#3 v=64
26187 On ch=2 n=f3 v=80
26214 Off ch=2 n=f3 v=64
26217 On ch=2 n=f#3 v=80
26244 Off ch=2 n=f#3 v=64
26247 On ch=2 n=f3 v=80
26274 Off ch=2 n=f3 v=64
26277 On ch=2 n=e3 v=80
26334 Off ch=2 n=e3 v=64
26337 On ch=2 n=f3 v=80
26394 Off ch=2 n=f3 v=64
26397 On ch=2 n=f#3 v=80
26597 Off ch=2 n=f#3 v=64
26637 Par ch=2 c=64 v=0
26637 On ch=2 n=f3 v=80
26754 Off ch=2 n=f3 v=64
26757 On ch=2 n=c#3 v=80
26874 Off ch=2 n=c#3 v=64
26877 Par ch=2 c=7 v=32
26877 On ch=2 n=a#2 v=32
27077 Off ch=2 n=a#2 v=64
27117 On ch=2 n=c#3 v=32
27117 On ch=2 n=f#3 v=32
27117 On ch=2 n=c#4 v=32
27317 Off ch=2 n=c#4 v=64
27317 Off ch=2 n=f#3 v=64
27317 Off ch=2 n=c#3 v=64
27357 On ch=2 n=a#2 v=32
27357 On ch=2 n=f3 v=32
27357 On ch=2 n=a#3 v=32
27557 Off ch=2 n=a#3 v=64
27557 Off ch=2 n=f3 v=64
27557 Off ch=2 n=a#2 v=64
27597 On ch=2 n=c#3 v=32
27597 On ch=2 n=f#3 v=32
27597 On ch=2 n=c#4 v=32
27797 Off ch=2 n=c#4 v=64
27797 Off ch=2 n=f#3 v=64
27797 Off ch=2 n=c#3 v=64
27837 On ch=2 n=a#2 v=32
27837 On ch=2 n=f3 v=32
27837 On ch=2 n=a#3 v=32
27837 On ch=2 n=f4 v=32
28037 Off ch=2 n=f4 v=64
28037 Off ch=2 n=a#3 v=64
28037 Off ch=2 n=f3 v=64
28037 Off ch=2 n=a#2 v=64
28077 On ch=2 n=c#3 v=32
28077 On ch=2 n=f#3 v=32
28077 On ch=2 n=c#4 v=32
28277 Off ch=2 n=c#4 v=64
28277 Off ch=2 n=f#3 v=64
28277 Off ch=2 n=c#3 v=64
28317 On ch=2 n=a#2 v=32
28317 On ch=2 n=f3 v=32
28317 On ch=2 n=a#3 v=32
28317 On ch=2 n=f4 v=32
28557 Off ch=2 n=f4 v=64
28557 Off ch=2 n=a#3 v=64
28557 Off ch=2 n=f3 v=64
28557 Off ch=2 n=a#2 v=64
28557 On ch=2 n=g#2 v=32
28557 On ch=2 n=g#3 v=32
28757 Off ch=2 n=g#3 v=64
28757 Off ch=2 n=g#2 v=64
28797 Par ch=2 c=7 v=24
28797 Par ch=2 c=64 v=127
28797 On ch=2 n=c#3 v=24
28917 Off ch=2 n=c#3 v=64
28917 On ch=2 n=g#3 v=24
29037 Off ch=2 n=g#3 v=64
29037 On ch=2 n=f4 v=24
29157 Off ch=2 n=f4 v=64
29157 On ch=2 n=c#5 v=24
29274 Off ch=2 n=c#5 v=64
29277 On ch=2 n=c#3 v=24
29397 Off ch=2 n=c#3 v=64
29397 On ch=2 n=g#3 v=24
29517 Off ch=2 n=g#3 v=64
29517 On ch=2 n=f4 v=24
29637 Off ch=2 n=f4 v=64
29637 On ch=2 n=c#5 v=24
29754 Off ch=2 n=c#5 v=64
29757 Par ch=2 c=64 v=0
29757 Par ch=2 c=64 v=127
29757 On ch=2 n=d#3 v=24
29877 Off ch=2 n=d#3 v=64
29877 On ch=2 n=g#3 v=24
29997 Off ch=2 n=g#3 v=64
29997 On ch=2 n=f#4 v=24
30117 Off ch=2 n=f#4 v=64
30117 On ch=2 n=c5 v=24
30234 Off ch=2 n=c5 v=64
30237 On ch=2 n=d#3 v=24
30357 Off ch=2 n=d#3 v=64
30357 On ch=2 n=g#3 v=24
30477 Off ch=2 n=g#3 v=64
30477 On ch=2 n=f#4 v=24
30597 Off ch=2 n=f#4 v=64
30597 On ch=2 n=c5 v=24
30714 Off ch=2 n=c5 v=64
30717 Par ch=2 c=64 v=0
30717 Par ch=2 c=64 v=127
30717 On ch=2 n=g#2 v=24
30834 Off ch=2 n=g#2 v=64
30837 On ch=2 n=g#3 v=24
30954 Off ch=2 n=g#3 v=64
30957 On ch=2 n=f#4 v=24
31074 Off ch=2 n=f#4 v=64
31077 On ch=2 n=c5 v=24
31194 Off ch=2 n=c5 v=64
31197 On ch=2 n=g#2 v=24
31314 Off ch=2 n=g#2 v=64
31317 On ch=2 n=g#3 v=24
31434 Off ch=2 n=g#3 v=64
31437 On ch=2 n=f#4 v=24
31554 Off ch=2 n=f#4 v=64
31557 On ch=2 n=c5 v=24
31674 Off ch=2 n=c5 v=64
31677 Par ch=2 c=64 v=0
31677 Par ch=2 c=64 v=127
31677 On ch=2 n=c#3 v=24
31797 Off ch=2 n=c#3 v=64
31797 On ch=2 n=g#3 v=24
31917 Off ch=2 n=g#3 v=64
31917 On ch=2 n=f4 v=24
32037 Off ch=2 n=f4 v=64
32037 On ch=2 n=c#5 v=24
32154 Off ch=2 n=c#5 v=64
32157 On ch=2 n=c#3 v=24
32277 Off ch=2 n=c#3 v=64
32277 On ch=2 n=g#3 v=24
32397 Off ch=2 n=g#3 v=64
32397 On ch=2 n=f4 v=24
32517 Off ch=2 n=f4 v=64
32517 On ch=2 n=c#5 v=24
32634 Off ch=2 n=c#5 v=64
32637 Par ch=2 c=64 v=0
32637 Par ch=2 c=64 v=127
32637 On ch=2 n=c#3 v=24
32757 Off ch=2 n=c#3 v=64
32757 On ch=2 n=g#3 v=24
32877 Off ch=2 n=g#3 v=64
32877 On ch=2 n=f4 v=24
32997 Off ch=2 n=f4 v=64
32997 On ch=2 n=c#5 v=24
33114 Off ch=2 n=c#5 v=64
33117 Par ch=2 c=64 v=0
33117 Par ch=2 c=64 v=127
33117 On ch=2 n=a#2 v=24
33237 Off ch=2 n=a#2 v=64
33237 On ch=2 n=a#3 v=24
33357 Off ch=2 n=a#3 v=64
33357 On ch=2 n=f4 v=24
33477 Off ch=2 n=f4 v=64
33477 On ch=2 n=d5 v=24
33594 Off ch=2 n=d5 v=64
33597 Par ch=2 c=64 v=0
33597 Par ch=2 c=64 v=127
33597 On ch=2 n=d#3 v=24
33717 Off ch=2 n=d#3 v=64
33717 On ch=2 n=a#3 v=24
33837 Off ch=2 n=a#3 v=64
33837 On ch=2 n=f#4 v=24
33957 Off ch=2 n=f#4 v=64
33957 On ch=2 n=d#5 v=24
34074 Off ch=2 n=d#5 v=64
34077 Par ch=2 c=64 v=0
34077 Par ch=2 c=64 v=127
34077 On ch=2 n=f#3 v=24
34197 Off ch=2 n=f#3 v=64
34197 On ch=2 n=d#4 v=24
34317 Off ch=2 n=d#4 v=64
34317 On ch=2 n=a#4 v=24
34437 Off ch=2 n=a#4 v=64
34437 On ch=2 n=d#5 v=24
34554 Off ch=2 n=d#5 v=64
34557 Par ch=2 c=64 v=0
34557 Par ch=2 c=64 v=127
34557 On ch=2 n=g3 v=24
34677 Off ch=2 n=g3 v=64
34677 On ch=2 n=e4 v=24
34797 Off ch=2 n=e4 v=64
34797 On ch=2 n=c#5 v=24
34917 Off ch=2 n=c#5 v=64
34917 On ch=2 n=a#5 v=24
35034 Off ch=2 n=a#5 v=64
35037 Par ch=2 c=64 v=0
35037 Par ch=2 c=64 v=127
35037 On ch=2 n=g#3 v=24
35157 Off ch=2 n=g#3 v=64
35157 On ch=2 n=d#4 v=24
35277 Off ch=2 n=d#4 v=64
35277 On ch=2 n=c5 v=24
35397 Off ch=2 n=c5 v=64
35397 On ch=2 n=f#5 v=24
35514 Off ch=2 n=f#5 v=64
35517 Par ch=2 c=64 v=0
35517 Par ch=2 c=64 v=127
35517 On ch=2 n=g#2 v=24
35637 Off ch=2 n=g#2 v=64
35637 On ch=2 n=g#3 v=24
35757 Off ch=2 n=g#3 v=64
35757 On ch=2 n=f#4 v=24
35877 Off ch=2 n=f#4 v=64
35877 On ch=2 n=c5 v=24
35994 Off ch=2 n=c5 v=64
35997 Par ch=2 c=64 v=0
35997 Par ch=2 c=64 v=127
35997 On ch=2 n=c#3 v=24
36117 Off ch=2 n=c#3 v=64
36117 On ch=2 n=g#3 v=24
36237 Off ch=2 n=g#3 v=64
36237 On ch=2 n=f4 v=24
36357 Off ch=2 n=f4 v=64
36357 On ch=2 n=c#5 v=24
36474 Off ch=2 n=c#5 v=64
36477 Par ch=2 c=64 v=0
36477 Par ch=2 c=7 v=24
36477 Par ch=2 c=64 v=127
36477 On ch=2 n=c#3 v=24
36597 Off ch=2 n=c#3 v=64
36597 On ch=2 n=g#3 v=24
36717 Off ch=2 n=g#3 v=64
36717 On ch=2 n=f4 v=24
36837 Off ch=2 n=f4 v=64
36837 On ch=2 n=c#5 v=24
36954 Off ch=2 n=c#5 v=64
36957 On ch=2 n=c#3 v=24
37077 Off ch=2 n=c#3 v=64
37077 On ch=2 n=g#3 v=24
37197 Off ch=2 n=g#3 v=64
37197 On ch=2 n=f4 v=24
37317 Off ch=2 n=f4 v=64
37317 On ch=2 n=c#5 v=24
37434 Off ch=2 n=c#5 v=64
37437 Par ch=2 c=64 v=0
37437 Par ch=2 c=64 v=127
37437 On ch=2 n=d#3 v=24
37557 Off ch=2 n=d#3 v=64
37557 On ch=2 n=g#3 v=24
37677 Off ch=2 n=g#3 v=64
37677 On ch=2 n=f#4 v=24
37797 Off ch=2 n=f#4 v=64
37797 On ch=2 n=c5 v=24
37914 Off ch=2 n=c5 v=64
37917 On ch=2 n=d#3 v=24
38037 Off ch=2 n=d#3 v=64
38037 On ch=2 n=g#3 v=24
38157 Off ch=2 n=g#3 v=64
38157 On ch=2 n=f#4 v=24
38277 Off ch=2 n=f#4 v=64
38277 On ch=2 n=c5 v=24
38394 Off ch=2 n=c5 v=64
38397 Par ch=2 c=64 v=0
38397 Par ch=2 c=64 v=127
38397 On ch=2 n=g#2 v=24
38514 Off ch=2 n=g#2 v=64
38517 On ch=2 n=g#3 v=24
38634 Off ch=2 n=g#3 v=64
38637 On ch=2 n=f#4 v=24
38754 Off ch=2 n=f#4 v=64
38757 On ch=2 n=c5 v=24
38874 Off ch=2 n=c5 v=64
38877 On ch=2 n=g#2 v=24
38994 Off ch=2 n=g#2 v=64
38997 On ch=2 n=g#3 v=24
39114 Off ch=2 n=g#3 v=64
39117 On ch=2 n=f#4 v=24
39234 Off ch=2 n=f#4 v=64
39237 On ch=2 n=c5 v=24
39354 Off ch=2 n=c5 v=64
39357 Par ch=2 c=64 v=0
39357 Par ch=2 c=64 v=127
39357 On ch=2 n=c#3 v=24
39477 Off ch=2 n=c#3 v=64
39477 On ch=2 n=g#3 v=24
39597 Off ch=2 n=g#3 v=64
39597 On ch=2 n=f4 v=24
39717 Off ch=2 n=f4 v=64
39717 On ch=2 n=c#5 v=24
39834 Off ch=2 n=c#5 v=64
39837 On ch=2 n=c#3 v=24
39957 Off ch=2 n=c#3 v=64
39957 On ch=2 n=g#3 v=24
40077 Off ch=2 n=g#3 v=64
40077 On ch=2 n=f4 v=24
40197 Off ch=2 n=f4 v=64
40197 On ch=2 n=c#5 v=24
40314 Off ch=2 n=c#5 v=64
40317 Par ch=2 c=64 v=0
40317 Par ch=2 c=64 v=127
40317 On ch=2 n=c#3 v=24
40437 Off ch=2 n=c#3 v=64
40437 On ch=2 n=g#3 v=24
40557 Off ch=2 n=g#3 v=64
40557 On ch=2 n=f4 v=24
40677 Off ch=2 n=f4 v=64
40677 On ch=2 n=c#5 v=24
40794 Off ch=2 n=c#5 v=64
40797 Par ch=2 c=64 v=0
40797 Par ch=2 c=64 v=127
40797 On ch=2 n=a#2 v=24
40917 Off ch=2 n=a#2 v=64
40917 On ch=2 n=a#3 v=24
41037 Off ch=2 n=a#3 v=64
41037 On ch=2 n=f4 v=24
41157 Off ch=2 n=f4 v=64
41157 On ch=2 n=d5 v=24
41274 Off ch=2 n=d5 v=64
41277 Par ch=2 c=64 v=0
41277 Par ch=2 c=64 v=127
41277 On ch=2 n=d#3 v=24
41397 Off ch=2 n=d#3 v=64
41397 On ch=2 n=a#3 v=24
41517 Off ch=2 n=a#3 v=64
41517 On ch=2 n=f#4 v=24
41637 Off ch=2 n=f#4 v=64
41637 On ch=2 n=d#5 v=24
41754 Off ch=2 n=d#5 v=64
41757 Par ch=2 c=64 v=0
41757 Par ch=2 c=64 v=127
41757 On ch=2 n=f#3 v=24
41877 Off ch=2 n=f#3 v=64
41877 On ch=2 n=d#4 v=24
41997 Off ch=2 n=d#4 v=64
41997 On ch=2 n=a#4 v=24
42117 Off ch=2 n=a#4 v=64
42117 On ch=2 n=d#5 v=24
42234 Off ch=2 n=d#5 v=64
42237 Par ch=2 c=64 v=0
42237 Par ch=2 c=64 v=127
42237 On ch=2 n=g3 v=24
42357 Off ch=2 n=g3 v=64
42357 On ch=2 n=e4 v=24
42477 Off ch=2 n=e4 v=64
42477 On ch=2 n=c#5 v=24
42597 Off ch=2 n=c#5 v=64
42597 On ch=2 n=a#5 v=24
42714 Off ch=2 n=a#5 v=64
42717 Par ch=2 c=64 v=0
42717 Par ch=2 c=64 v=127
42717 On ch=2 n=g#3 v=24
42837 Off ch=2 n=g#3 v=64
42837 On ch=2 n=d#4 v=24
42957 Off ch=2 n=d#4 v=64
42957 On ch=2 n=c5 v=24
43077 Off ch=2 n=c5 v=64
43077 On ch=2 n=f#5 v=24
43194 Off ch=2 n=f#5 v=64
43197 Par ch=2 c=64 v=0
43197 Par ch=2 c=64 v=127
43197 On ch=2 n=g#2 v=24
43317 Off ch=2 n=g#2 v=64
43317 On ch=2 n=g#3 v=24
43437 Off ch=2 n=g#3 v=64
43437 On ch=2 n=f#4 v=24
43557 Off ch=2 n=f#4 v=64
43557 On ch=2 n=c5 v=24
43674 Off ch=2 n=c5 v=64
43677 Par ch=2 c=64 v=0
43677 Par ch=2 c=64 v=127
43677 On ch=2 n=c#3 v=24
43797 Off ch=2 n=c#3 v=64
43797 On ch=2 n=g#3 v=24
43917 Off ch=2 n=g#3 v=64
43917 On ch=2 n=f4 v=24
44037 Off ch=2 n=f4 v=64
44037 On ch=2 n=c#5 v=24
44154 Off ch=2 n=c#5 v=64
44157 Par ch=2 c=64 v=0
44157 Par ch=2 c=64 v=127
44157 On ch=2 n=g#2 v=24
44277 Off ch=2 n=g#2 v=64
44277 On ch=2 n=g#3 v=24
44397 Off ch=2 n=g#3 v=64
44397 On ch=2 n=d#4 v=24
44517 Off ch=2 n=d#4 v=64
44517 On ch=2 n=c5 v=24
44634 Off ch=2 n=c5 v=64
44637 On ch=2 n=g#2 v=24
44757 Off ch=2 n=g#2 v=64
44757 On ch=2 n=g#3 v=24
44877 Off ch=2 n=g#3 v=64
44877 On ch=2 n=d#4 v=24
44997 Off ch=2 n=d#4 v=64
44997 On ch=2 n=c5 v=24
45114 Off ch=2 n=c5 v=64
45117 Par ch=2 c=64 v=0
45117 Par ch=2 c=64 v=127
45117 On ch=2 n=a#2 v=24
45220 Par ch=2 c=7 v=25
45237 Off ch=2 n=a#2 v=64
45237 On ch=2 n=a#3 v=25
45324 Par ch=2 c=7 v=26
45357 Off ch=2 n=a#3 v=64
45357 On ch=2 n=d#4 v=26
45428 Par ch=2 c=7 v=27
45477 Off ch=2 n=d#4 v=64
45477 On ch=2 n=c#5 v=27
45532 Par ch=2 c=7 v=28
45594 Off ch=2 n=c#5 v=64
45597 On ch=2 n=a#2 v=28
45635 Par ch=2 c=7 v=29
45717 Off ch=2 n=a#2 v=64
45717 On ch=2 n=a#3 v=29
45740 Par ch=2 c=7 v=30
45837 Off ch=2 n=a#3 v=64
45837 On ch=2 n=d#4 v=30
45844 Par ch=2 c=7 v=31
45948 Par ch=2 c=7 v=32
45957 Off ch=2 n=d#4 v=64
45957 On ch=2 n=c#5 v=31
46052 Par ch=2 c=7 v=33
46074 Off ch=2 n=c#5 v=64
46077 Par ch=2 c=64 v=0
46077 Par ch=2 c=64 v=127
46077 On ch=2 n=a#2 v=32
46155 Par ch=2 c=7 v=34
46194 Off ch=2 n=a#2 v=64
46197 On ch=2 n=a#3 v=33
46260 Par ch=2 c=7 v=35
46314 Off ch=2 n=a#3 v=64
46317 On ch=2 n=e4 v=34
46364 Par ch=2 c=7 v=36
46434 Off ch=2 n=e4 v=64
46437 On ch=2 n=c#5 v=35
46468 Par ch=2 c=7 v=37
46554 Off ch=2 n=c#5 v=64
46557 On ch=2 n=a#2 v=36
46572 Par ch=2 c=7 v=38
46675 Par ch=2 c=7 v=39
46677 Off ch=2 n=a#2 v=64
46677 On ch=2 n=a#3 v=37
46780 Par ch=2 c=7 v=40
46797 Off ch=2 n=a#3 v=64
46797 On ch=2 n=e4 v=38
46884 Par ch=2 c=7 v=41
46917 Off ch=2 n=e4 v=64
46917 On ch=2 n=c#5 v=39
46988 Par ch=2 c=7 v=42
47034 Off ch=2 n=c#5 v=64
47037 Par ch=2 c=64 v=0
47037 Par ch=2 c=64 v=127
47037 On ch=2 n=c3 v=40
47092 Par ch=2 c=7 v=43
47157 Off ch=2 n=c3 v=64
47157 On ch=2 n=c4 v=41
47195 Par ch=2 c=7 v=44
47277 Off ch=2 n=c4 v=64
47277 On ch=2 n=f#4 v=42
47300 Par ch=2 c=7 v=45
47397 Off ch=2 n=f#4 v=64
47397 On ch=2 n=d#5 v=43
47404 Par ch=2 c=7 v=46
47508 Par ch=2 c=7 v=47
47514 Off ch=2 n=d#5 v=64
47517 On ch=2 n=c3 v=44
47612 Par ch=2 c=7 v=48
47637 Off ch=2 n=c3 v=64
47637 On ch=2 n=c4 v=45
47715 Par ch=2 c=7 v=49
47757 Off ch=2 n=c4 v=64
47757 On ch=2 n=d#4 v=46
47820 Par ch=2 c=7 v=50
47877 Off ch=2 n=d#4 v=64
47877 On ch=2 n=d#5 v=47
47924 Par ch=2 c=7 v=51
47994 Off ch=2 n=d#5 v=64
47997 Par ch=2 c=64 v=0
47997 Par ch=2 c=64 v=127
47997 On ch=2 n=c#3 v=48
48028 Par ch=2 c=7 v=52
48117 Off ch=2 n=c#3 v=64
48117 On ch=2 n=c#4 v=49
48132 Par ch=2 c=7 v=53
48235 Par ch=2 c=7 v=54
48237 Off ch=2 n=c#4 v=64
48237 On ch=2 n=a#4 v=50
48340 Par ch=2 c=7 v=55
48357 Off ch=2 n=a#4 v=64
48357 On ch=2 n=f5 v=51
48444 Par ch=2 c=7 v=56
48474 Off ch=2 n=f5 v=64
48477 On ch=2 n=c#3 v=52
48548 Par ch=2 c=7 v=57
48597 Off ch=2 n=c#3 v=64
48597 On ch=2 n=c#4 v=53
48652 Par ch=2 c=7 v=58
48717 Off ch=2 n=c#4 v=64
48717 On ch=2 n=a#4 v=54
48755 Par ch=2 c=7 v=59
48837 Off ch=2 n=a#4 v=64
48837 On ch=2 n=f5 v=55
48860 Par ch=2 c=7 v=60
48954 Off ch=2 n=f5 v=64
48957 Par ch=2 c=64 v=0
48957 Par ch=2 c=64 v=127
48957 On ch=2 n=d#3 v=56
48964 Par ch=2 c=7 v=61
49068 Par ch=2 c=7 v=62
49077 Off ch=2 n=d#3 v=64
49077 On ch=2 n=d#4 v=57
49172 Par ch=2 c=7 v=63
49197 Off ch=2 n=d#4 v=64
49197 On ch=2 n=a#4 v=58
49275 Par ch=2 c=7 v=64
49317 Off ch=2 n=a#4 v=64
49317 On ch=2 n=f#5 v=59
49380 Par ch=2 c=7 v=65
49434 Off ch=2 n=f#5 v=64
49437 Par ch=2 c=64 v=0
49437 Par ch=2 c=64 v=127
49437 On ch=2 n=f3 v=60
49484 Par ch=2 c=7 v=66
49557 Off ch=2 n=f3 v=64
49557 On ch=2 n=f4 v=61
49588 Par ch=2 c=7 v=67
49677 Off ch=2 n=f4 v=64
49677 On ch=2 n=a#4 v=62
49692 Par ch=2 c=7 v=68
49795 Par ch=2 c=7 v=69
49797 Off ch=2 n=a#4 v=64
49797 On ch=2 n=d#5 v=63
49900 Par ch=2 c=7 v=70
49914 Off ch=2 n=d#5 v=64
49917 Par ch=2 c=64 v=0
49917 Par ch=2 c=64 v=127
49917 On ch=2 n=f#3 v=64
50004 Par ch=2 c=7 v=71
50037 Off ch=2 n=f#3 v=64
50037 On ch=2 n=d#4 v=65
50108 Par ch=2 c=7 v=72
50157 Off ch=2 n=d#4 v=64
50157 On ch=2 n=a#4 v=66
50212 Par ch=2 c=7 v=73
50277 Off ch=2 n=a#4 v=64
50277 On ch=2 n=d#5 v=67
50315 Par ch=2 c=7 v=74
50394 Off ch=2 n=d#5 v=64
50397 Par ch=2 c=64 v=0
50397 Par ch=2 c=64 v=127
50397 On ch=2 n=f#3 v=68
50420 Par ch=2 c=7 v=75
50517 Off ch=2 n=f#3 v=64
50517 On ch=2 n=f#4 v=69
50524 Par ch=2 c=7 v=76
50628 Par ch=2 c=7 v=77
50637 Off ch=2 n=f#4 v=64
50637 On ch=2 n=a#4 v=70
50732 Par ch=2 c=7 v=78
50757 Off ch=2 n=a#4 v=64
50757 On ch=2 n=e5 v=71
50835 Par ch=2 c=7 v=79
50874 Off ch=2 n=e5 v=64
50877 Par ch=2 c=64 v=0
50877 Par ch=2 c=64 v=127
50877 On ch=2 n=f3 v=72
50940 Par ch=2 c=7 v=80
50997 Off ch=2 n=f3 v=64
50997 On ch=2 n=c4 v=73
51044 Par ch=2 c=7 v=81
51117 Off ch=2 n=c4 v=64
51117 On ch=2 n=a4 v=74
51148 Par ch=2 c=7 v=82
51237 Off ch=2 n=a4 v=64
51237 On ch=2 n=f5 v=75
51252 Par ch=2 c=7 v=83
51354 Off ch=2 n=f5 v=64
51355 Par ch=2 c=7 v=84
51357 Par ch=2 c=64 v=0
51357 Par ch=2 c=64 v=127
51357 Par ch=2 c=7 v=84
51357 On ch=2 n=d#3 v=84
51363 Par ch=2 c=7 v=83
51370 Par ch=2 c=7 v=82
51377 Par ch=2 c=7 v=81
51384 Par ch=2 c=7 v=80
51390 Par ch=2 c=7 v=79
51398 Par ch=2 c=7 v=78
51404 Par ch=2 c=7 v=77
51412 Par ch=2 c=7 v=76
51418 Par ch=2 c=7 v=75
51425 Par ch=2 c=7 v=74
51432 Par ch=2 c=7 v=73
51439 Par ch=2 c=7 v=72
51447 Par ch=2 c=7 v=71
51453 Par ch=2 c=7 v=70
51460 Par ch=2 c=7 v=69
51467 Par ch=2 c=7 v=68
51474 Par ch=2 c=7 v=67
51477 Off ch=2 n=d#3 v=64
51477 On ch=2 n=d#4 v=82
51480 Par ch=2 c=7 v=66
51488 Par ch=2 c=7 v=65
51494 Par ch=2 c=7 v=64
51502 Par ch=2 c=7 v=63
51508 Par ch=2 c=7 v=62
51515 Par ch=2 c=7 v=61
51522 Par ch=2 c=7 v=60
51529 Par ch=2 c=7 v=59
51537 Par ch=2 c=7 v=58
51543 Par ch=2 c=7 v=57
51550 Par ch=2 c=7 v=56
51557 Par ch=2 c=7 v=55
51564 Par ch=2 c=7 v=54
51570 Par ch=2 c=7 v=53
51578 Par ch=2 c=7 v=52
51584 Par ch=2 c=7 v=51
51592 Par ch=2 c=7 v=50
51597 Off ch=2 n=d#4 v=64
51597 On ch=2 n=g#4 v=80
51598 Par ch=2 c=7 v=49
51605 Par ch=2 c=7 v=48
51612 Par ch=2 c=7 v=47
51619 Par ch=2 c=7 v=46
51627 Par ch=2 c=7 v=45
51633 Par ch=2 c=7 v=44
51640 Par ch=2 c=7 v=43
51647 Par ch=2 c=7 v=42
51654 Par ch=2 c=7 v=41
51660 Par ch=2 c=7 v=40
51668 Par ch=2 c=7 v=39
51674 Par ch=2 c=7 v=38
51682 Par ch=2 c=7 v=37
51688 Par ch=2 c=7 v=36
51695 Par ch=2 c=7 v=35
51702 Par ch=2 c=7 v=34
51709 Par ch=2 c=7 v=33
51717 Off ch=2 n=g#4 v=64
51717 Par ch=2 c=7 v=32
51717 On ch=2 n=c5 v=32
51717 On ch=2 n=f#5 v=32
51834 Off ch=2 n=f#5 v=64
51834 Off ch=2 n=c5 v=64
51837 Par ch=2 c=64 v=0
51837 Par ch=2 c=7 v=32
51837 Par ch=2 c=64 v=127
51837 On ch=2 n=c#3 v=32
51957 Off ch=2 n=c#3 v=64
51957 On ch=2 n=g#3 v=32
52077 Off ch=2 n=g#3 v=64
52077 On ch=2 n=f4 v=32
52197 Off ch=2 n=f4 v=64
52197 On ch=2 n=c#5 v=32
52314 Off ch=2 n=c#5 v=64
52317 On ch=2 n=c#3 v=32
52437 Off ch=2 n=c#3 v=64
52437 On ch=2 n=g#3 v=32
52557 Off ch=2 n=g#3 v=64
52557 On ch=2 n=f4 v=32
52677 Off ch=2 n=f4 v=64
52677 On ch=2 n=c#5 v=32
52794 Off ch=2 n=c#5 v=64
52797 Par ch=2 c=64 v=0
52797 Par ch=2 c=64 v=127
52797 On ch=2 n=d#3 v=32
52917 Off ch=2 n=d#3 v=64
52917 On ch=2 n=g#3 v=32
53037 Off ch=2 n=g#3 v=64
53037 On ch=2 n=f#4 v=32
53157 Off ch=2 n=f#4 v=64
53157 On ch=2 n=c5 v=32
53274 Off ch=2 n=c5 v=64
53277 On ch=2 n=d#3 v=32
53397 Off ch=2 n=d#3 v=64
53397 On ch=2 n=g#3 v=32
53517 Off ch=2 n=g#3 v=64
53517 On ch=2 n=f#4 v=32
53637 Off ch=2 n=f#4 v=64
53637 On ch=2 n=c5 v=32
53754 Off ch=2 n=c5 v=64
53757 Par ch=2 c=64 v=0
53757 Par ch=2 c=64 v=127
53757 On ch=2 n=g#2 v=32
53874 Off ch=2 n=g#2 v=64
53877 On ch=2 n=g#3 v=32
53994 Off ch=2 n=g#3 v=64
53997 On ch=2 n=f#4 v=32
54114 Off ch=2 n=f#4 v=64
54117 On ch=2 n=c5 v=32
54234 Off ch=2 n=c5 v=64
54237 On ch=2 n=g#2 v=32
54354 Off ch=2 n=g#2 v=64
54357 On ch=2 n=g#3 v=32
54474 Off ch=2 n=g#3 v=64
54477 On ch=2 n=f#4 v=32
54594 Off ch=2 n=f#4 v=64
54597 On ch=2 n=c5 v=32
54714 Off ch=2 n=c5 v=64
54717 Par ch=2 c=64 v=0
54717 Par ch=2 c=64 v=127
54717 On ch=2 n=c#3 v=32
54837 Off ch=2 n=c#3 v=64
54837 On ch=2 n=g#3 v=32
54957 Off ch=2 n=g#3 v=64
54957 On ch=2 n=f4 v=32
55077 Off ch=2 n=f4 v=64
55077 On ch=2 n=c#5 v=32
55194 Off ch=2 n=c#5 v=64
55197 On ch=2 n=c#3 v=32
55317 Off ch=2 n=c#3 v=64
55317 On ch=2 n=g#3 v=32
55437 Off ch=2 n=g#3 v=64
55437 On ch=2 n=f4 v=32
55557 Off ch=2 n=f4 v=64
55557 On ch=2 n=c#5 v=32
55674 Off ch=2 n=c#5 v=64
55677 Par ch=2 c=64 v=0
55677 Par ch=2 c=64 v=127
55677 On ch=2 n=c#3 v=32
55797 Off ch=2 n=c#3 v=64
55797 On ch=2 n=g#3 v=32
55917 Off ch=2 n=g#3 v=64
55917 On ch=2 n=f4 v=32
56037 Off ch=2 n=f4 v=64
56037 On ch=2 n=c#5 v=32
56154 Off ch=2 n=c#5 v=64
56157 Par ch=2 c=64 v=0
56157 Par ch=2 c=64 v=127
56157 On ch=2 n=a#2 v=32
56277 Off ch=2 n=a#2 v=64
56277 On ch=2 n=a#3 v=32
56397 Off ch=2 n=a#3 v=64
56397 On ch=2 n=f4 v=32
56517 Off ch=2 n=f4 v=64
56517 On ch=2 n=d5 v=32
56634 Off ch=2 n=d5 v=64
56637 Par ch=2 c=64 v=0
56637 Par ch=2 c=64 v=127
56637 On ch=2 n=d#3 v=32
56757 Off ch=2 n=d#3 v=64
56757 On ch=2 n=a#3 v=32
56877 Off ch=2 n=a#3 v=64
56877 On ch=2 n=f#4 v=32
56997 Off ch=2 n=f#4 v=64
56997 On ch=2 n=d#5 v=32
57114 Off ch=2 n=d#5 v=64
57117 Par ch=2 c=64 v=0
57117 Par ch=2 c=64 v=127
57117 On ch=2 n=f#3 v=32
57237 Off ch=2 n=f#3 v=64
57237 On ch=2 n=d#4 v=32
57357 Off ch=2 n=d#4 v=64
57357 On ch=2 n=a#4 v=32
57477 Off ch=2 n=a#4 v=64
57477 On ch=2 n=d#5 v=32
57594 Off ch=2 n=d#5 v=64
57597 Par ch=2 c=64 v=0
57597 Par ch=2 c=64 v=127
57597 On ch=2 n=g3 v=32
57717 Off ch=2 n=g3 v=64
57717 On ch=2 n=e4 v=32
57837 Off ch=2 n=e4 v=64
57837 On ch=2 n=c#5 v=32
57957 Off ch=2 n=c#5 v=64
57957 On ch=2 n=a#5 v=32
58074 Off ch=2 n=a#5 v=64
58077 Par ch=2 c=64 v=0
58077 Par ch=2 c=64 v=127
58077 On ch=2 n=g#3 v=32
58197 Off ch=2 n=g#3 v=64
58197 On ch=2 n=d#4 v=32
58317 Off ch=2 n=d#4 v=64
58317 On ch=2 n=c5 v=32
58437 Off ch=2 n=c5 v=64
58437 On ch=2 n=f#5 v=32
58554 Off ch=2 n=f#5 v=64
58557 Par ch=2 c=64 v=0
58557 Par ch=2 c=64 v=127
58557 On ch=2 n=g#2 v=32
58677 Off ch=2 n=g#2 v=64
58677 On ch=2 n=g#3 v=32
58797 Off ch=2 n=g#3 v=64
58797 On ch=2 n=f#4 v=32
58917 Off ch=2 n=f#4 v=64
58917 On ch=2 n=c5 v=32
59034 Off ch=2 n=c5 v=64
59037 Par ch=2 c=64 v=0
59037 Par ch=2 c=64 v=127
59037 On ch=2 n=c#3 v=32
59157 Off ch=2 n=c#3 v=64
59157 On ch=2 n=g#3 v=32
59277 Off ch=2 n=g#3 v=64
59277 On ch=2 n=f4 v=32
59397 Off ch=2 n=f4 v=64
59397 On ch=2 n=c#5 v=32
59514 Off ch=2 n=c#5 v=64
59517 Par ch=2 c=64 v=0
59517 Par ch=2 c=64 v=127
59517 On ch=2 n=g#2 v=32
59637 Off ch=2 n=g#2 v=64
59637 On ch=2 n=g#3 v=32
59757 Off ch=2 n=g#3 v=64
59757 On ch=2 n=d#4 v=32
59877 Off ch=2 n=d#4 v=64
59877 On ch=2 n=c5 v=32
59994 Off ch=2 n=c5 v=64
59997 On ch=2 n=g#2 v=32
60117 Off ch=2 n=g#2 v=64
60117 On ch=2 n=g#3 v=32
60237 Off ch=2 n=g#3 v=64
60237 On ch=2 n=d#4 v=32
60357 Off ch=2 n=d#4 v=64
60357 On ch=2 n=c5 v=32
60474 Off ch=2 n=c5 v=64
60477 Par ch=2 c=64 v=0
60477 Par ch=2 c=64 v=127
60477 On ch=2 n=a#2 v=32
60597 Off ch=2 n=a#2 v=64
60597 Par ch=2 c=7 v=33
60597 On ch=2 n=a#3 v=33
60717 Off ch=2 n=a#3 v=64
60717 Par ch=2 c=7 v=34
60717 On ch=2 n=d#4 v=34
60837 Off ch=2 n=d#4 v=64
60837 Par ch=2 c=7 v=35
60837 On ch=2 n=c#5 v=35
60954 Off ch=2 n=c#5 v=64
60957 Par ch=2 c=7 v=36
60957 On ch=2 n=a#2 v=36
61077 Off ch=2 n=a#2 v=64
61077 Par ch=2 c=7 v=37
61077 On ch=2 n=a#3 v=37
61197 Off ch=2 n=a#3 v=64
61197 Par ch=2 c=7 v=38
61197 On ch=2 n=d#4 v=38
61317 Off ch=2 n=d#4 v=64
61317 Par ch=2 c=7 v=39
61317 On ch=2 n=c#5 v=39
61434 Off ch=2 n=c#5 v=64
61437 Par ch=2 c=7 v=40
61437 Par ch=2 c=64 v=0
61437 Par ch=2 c=64 v=127
61437 On ch=2 n=a#2 v=40
61554 Off ch=2 n=a#2 v=64
61557 Par ch=2 c=7 v=41
61557 On ch=2 n=a#3 v=41
61674 Off ch=2 n=a#3 v=64
61677 Par ch=2 c=7 v=42
61677 On ch=2 n=e4 v=42
61794 Off ch=2 n=e4 v=64
61797 Par ch=2 c=7 v=43
61797 On ch=2 n=c#5 v=43
61914 Off ch=2 n=c#5 v=64
61917 Par ch=2 c=7 v=44
61917 On ch=2 n=a#2 v=44
62037 Off ch=2 n=a#2 v=64
62037 Par ch=2 c=7 v=45
62037 On ch=2 n=a#3 v=45
62157 Off ch=2 n=a#3 v=64
62157 Par ch=2 c=7 v=46
62157 On ch=2 n=e4 v=46
62277 Off ch=2 n=e4 v=64
62277 Par ch=2 c=7 v=47
62277 On ch=2 n=c#5 v=47
62394 Off ch=2 n=c#5 v=64
62397 Par ch=2 c=7 v=48
62397 Par ch=2 c=64 v=0
62397 Par ch=2 c=64 v=127
62397 On ch=2 n=c3 v=48
62517 Off ch=2 n=c3 v=64
62517 Par ch=2 c=7 v=49
62517 On ch=2 n=c4 v=49
62637 Off ch=2 n=c4 v=64
62637 Par ch=2 c=7 v=50
62637 On ch=2 n=f#4 v=50
62757 Off ch=2 n=f#4 v=64
62757 Par ch=2 c=7 v=51
62757 On ch=2 n=d#5 v=51
62874 Off ch=2 n=d#5 v=64
62877 Par ch=2 c=7 v=52
62877 On ch=2 n=c3 v=52
62997 Off ch=2 n=c3 v=64
62997 Par ch=2 c=7 v=53
62997 On ch=2 n=c4 v=53
63117 Off ch=2 n=c4 v=64
63117 Par ch=2 c=7 v=54
63117 On ch=2 n=d#4 v=54
63237 Off ch=2 n=d#4 v=64
63237 Par ch=2 c=7 v=55
63237 On ch=2 n=d#5 v=55
63354 Off ch=2 n=d#5 v=64
63357 Par ch=2 c=7 v=56
63357 Par ch=2 c=64 v=0
63357 Par ch=2 c=64 v=127
63357 On ch=2 n=c#3 v=56
63477 Off ch=2 n=c#3 v=64
63477 Par ch=2 c=7 v=57
63477 On ch=2 n=c#4 v=57
63597 Off ch=2 n=c#4 v=64
63597 Par ch=2 c=7 v=58
63597 On ch=2 n=a#4 v=58
63717 Off ch=2 n=a#4 v=64
63717 Par ch=2 c=7 v=59
63717 On ch=2 n=f5 v=59
63834 Off ch=2 n=f5 v=64
63837 Par ch=2 c=7 v=60
63837 On ch=2 n=c#3 v=60
63957 Off ch=2 n=c#3 v=64
63957 Par ch=2 c=7 v=61
63957 On ch=2 n=c#4 v=61
64077 Off ch=2 n=c#4 v=64
64077 Par ch=2 c=7 v=62
64077 On ch=2 n=a#4 v=62
64197 Off ch=2 n=a#4 v=64
64197 Par ch=2 c=7 v=63
64197 On ch=2 n=f5 v=63
64314 Off ch=2 n=f5 v=64
64317 Par ch=2 c=7 v=64
64317 Par ch=2 c=64 v=0
64317 Par ch=2 c=64 v=127
64317 On ch=2 n=d#3 v=64
64437 Off ch=2 n=d#3 v=64
64437 Par ch=2 c=7 v=65
64437 On ch=2 n=d#4 v=65
64557 Off ch=2 n=d#4 v=64
64557 Par ch=2 c=7 v=66
64557 On ch=2 n=a#4 v=66
64677 Off ch=2 n=a#4 v=64
64677 Par ch=2 c=7 v=67
64677 On ch=2 n=f#5 v=67
64794 Off ch=2 n=f#5 v=64
64797 Par ch=2 c=7 v=68
64797 Par ch=2 c=64 v=0
64797 Par ch=2 c=64 v=127
64797 On ch=2 n=f3 v=68
64917 Off ch=2 n=f3 v=64
64917 Par ch=2 c=7 v=69
64917 On ch=2 n=f4 v=69
65037 Off ch=2 n=f4 v=64
65037 Par ch=2 c=7 v=70
65037 On ch=2 n=a#4 v=70
65157 Off ch=2 n=a#4 v=64
65157 Par ch=2 c=7 v=71
65157 On ch=2 n=d#5 v=71
65274 Off ch=2 n=d#5 v=64
65277 Par ch=2 c=7 v=72
65277 Par ch=2 c=64 v=0
65277 Par ch=2 c=64 v=127
65277 On ch=2 n=f#3 v=72
65397 Off ch=2 n=f#3 v=64
65397 Par ch=2 c=7 v=73
65397 On ch=2 n=d#4 v=73
65517 Off ch=2 n=d#4 v=64
65517 Par ch=2 c=7 v=74
65517 On ch=2 n=a#4 v=74
65637 Off ch=2 n=a#4 v=64
65637 Par ch=2 c=7 v=75
65637 On ch=2 n=d#5 v=75
65754 Off ch=2 n=d#5 v=64
65757 Par ch=2 c=7 v=76
65757 Par ch=2 c=64 v=0
65757 Par ch=2 c=64 v=127
65757 On ch=2 n=f#3 v=76
65877 Off ch=2 n=f#3 v=64
65877 Par ch=2 c=7 v=77
65877 On ch=2 n=f#4 v=77
65997 Off ch=2 n=f#4 v=64
65997 Par ch=2 c=7 v=78
65997 On ch=2 n=a#4 v=78
66117 Off ch=2 n=a#4 v=64
66117 Par ch=2 c=7 v=79
66117 On ch=2 n=e5 v=79
66234 Off ch=2 n=e5 v=64
66237 Par ch=2 c=7 v=80
66237 Par ch=2 c=64 v=0
66237 Par ch=2 c=64 v=127
66237 On ch=2 n=f3 v=80
66357 Off ch=2 n=f3 v=64
66357 Par ch=2 c=7 v=81
66357 On ch=2 n=c4 v=81
66477 Off ch=2 n=c4 v=64
66477 Par ch=2 c=7 v=82
66477 On ch=2 n=a4 v=82
66597 Off ch=2 n=a4 v=64
66597 Par ch=2 c=7 v=83
66597 On ch=2 n=f5 v=83
66714 Off ch=2 n=f5 v=64
66717 Par ch=2 c=64 v=0
66717 Par ch=2 c=64 v=127
66717 Par ch=2 c=7 v=84
66717 On ch=2 n=d#3 v=84
66725 Par ch=2 c=7 v=83
66734 Par ch=2 c=7 v=82
66744 Par ch=2 c=7 v=81
66753 Par ch=2 c=7 v=80
66762 Par ch=2 c=7 v=79
66772 Par ch=2 c=7 v=78
66780 Par ch=2 c=7 v=77
66790 Par ch=2 c=7 v=76
66799 Par ch=2 c=7 v=75
66808 Par ch=2 c=7 v=74
66818 Par ch=2 c=7 v=73
66827 Par ch=2 c=7 v=72
66837 Off ch=2 n=d#3 v=64
66837 Par ch=2 c=7 v=71
66837 On ch=2 n=d#4 v=81
66845 Par ch=2 c=7 v=70
66854 Par ch=2 c=7 v=69
66864 Par ch=2 c=7 v=68
66873 Par ch=2 c=7 v=67
66882 Par ch=2 c=7 v=66
66892 Par ch=2 c=7 v=65
66900 Par ch=2 c=7 v=64
66910 Par ch=2 c=7 v=63
66919 Par ch=2 c=7 v=62
66928 Par ch=2 c=7 v=61
66938 Par ch=2 c=7 v=60
66947 Par ch=2 c=7 v=59
66957 Off ch=2 n=d#4 v=64
66957 Par ch=2 c=7 v=58
66957 On ch=2 n=g#4 v=78
66965 Par ch=2 c=7 v=57
66974 Par ch=2 c=7 v=56
66984 Par ch=2 c=7 v=55
66993 Par ch=2 c=7 v=54
67002 Par ch=2 c=7 v=53
67012 Par ch=2 c=7 v=52
67020 Par ch=2 c=7 v=51
67030 Par ch=2 c=7 v=50
67039 Par ch=2 c=7 v=49
67048 Par ch=2 c=7 v=48
67058 Par ch=2 c=7 v=47
67067 Par ch=2 c=7 v=46
67077 Off ch=2 n=g#4 v=64
67077 Par ch=2 c=7 v=45
67077 On ch=2 n=c5 v=75
67077 On ch=2 n=f#5 v=75
67085 Par ch=2 c=7 v=44
67094 Par ch=2 c=7 v=43
67104 Par ch=2 c=7 v=42
67113 Par ch=2 c=7 v=41
67122 Par ch=2 c=7 v=40
67132 Par ch=2 c=7 v=39
67140 Par ch=2 c=7 v=38
67150 Par ch=2 c=7 v=37
67159 Par ch=2 c=7 v=36
67168 Par ch=2 c=7 v=35
67178 Par ch=2 c=7 v=34
67187 Par ch=2 c=7 v=33
67194 Off ch=2 n=f#5 v=64
67194 Off ch=2 n=c5 v=64
67197 Par ch=2 c=64 v=0
67197 Par ch=2 c=7 v=32
67197 Par ch=2 c=64 v=127
67197 On ch=2 n=c#3 v=32
67317 Off ch=2 n=c#3 v=64
67317 On ch=2 n=g#3 v=32
67437 Off ch=2 n=g#3 v=64
67437 On ch=2 n=f4 v=32
67557 Off ch=2 n=f4 v=64
67557 On ch=2 n=c#5 v=32
67674 Off ch=2 n=c#5 v=64
67677 On ch=2 n=c#3 v=32
67797 Off ch=2 n=c#3 v=64
67797 On ch=2 n=g#3 v=32
67917 Off ch=2 n=g#3 v=64
67917 On ch=2 n=f4 v=32
68037 Off ch=2 n=f4 v=64
68037 On ch=2 n=c#5 v=32
68154 Off ch=2 n=c#5 v=64
68157 Par ch=2 c=64 v=0
68157 Par ch=2 c=64 v=127
68157 On ch=2 n=d#3 v=32
68277 Off ch=2 n=d#3 v=64
68277 On ch=2 n=g#3 v=32
68397 Off ch=2 n=g#3 v=64
68397 On ch=2 n=f#4 v=32
68517 Off ch=2 n=f#4 v=64
68517 On ch=2 n=c5 v=32
68634 Off ch=2 n=c5 v=64
68637 On ch=2 n=d#3 v=32
68757 Off ch=2 n=d#3 v=64
68757 On ch=2 n=g#3 v=32
68877 Off ch=2 n=g#3 v=64
68877 On ch=2 n=f#4 v=32
68997 Off ch=2 n=f#4 v=64
68997 On ch=2 n=c5 v=32
69114 Off ch=2 n=c5 v=64
69117 Par ch=2 c=64 v=0
69117 Par ch=2 c=64 v=127
69117 On ch=2 n=g#2 v=32
69234 Off ch=2 n=g#2 v=64
69237 On ch=2 n=g#3 v=32
69354 Off ch=2 n=g#3 v=64
69357 On ch=2 n=f#4 v=32
69474 Off ch=2 n=f#4 v=64
69477 On ch=2 n=c5 v=32
69594 Off ch=2 n=c5 v=64
69597 On ch=2 n=g#2 v=32
69714 Off ch=2 n=g#2 v=64
69717 On ch=2 n=g#3 v=32
69834 Off ch=2 n=g#3 v=64
69837 On ch=2 n=f#4 v=32
69954 Off ch=2 n=f#4 v=64
69957 On ch=2 n=c5 v=32
70074 Off ch=2 n=c5 v=64
70077 Par ch=2 c=64 v=0
70077 Par ch=2 c=64 v=127
70077 On ch=2 n=c#3 v=32
70197 Off ch=2 n=c#3 v=64
70197 On ch=2 n=g#3 v=32
70317 Off ch=2 n=g#3 v=64
70317 On ch=2 n=f4 v=32
70437 Off ch=2 n=f4 v=64
70437 On ch=2 n=c#5 v=32
70554 Off ch=2 n=c#5 v=64
70557 On ch=2 n=c#3 v=32
70677 Off ch=2 n=c#3 v=64
70677 On ch=2 n=g#3 v=32
70797 Off ch=2 n=g#3 v=64
70797 On ch=2 n=f4 v=32
70917 Off ch=2 n=f4 v=64
70917 On ch=2 n=c#5 v=32
71034 Off ch=2 n=c#5 v=64
71037 Par ch=2 c=64 v=0
71037 Par ch=2 c=64 v=127
71037 On ch=2 n=c#3 v=32
71157 Off ch=2 n=c#3 v=64
71157 On ch=2 n=g#3 v=32
71277 Off ch=2 n=g#3 v=64
71277 On ch=2 n=f4 v=32
71397 Off ch=2 n=f4 v=64
71397 On ch=2 n=c#5 v=32
71514 Off ch=2 n=c#5 v=64
71517 Par ch=2 c=64 v=0
71517 Par ch=2 c=64 v=127
71517 On ch=2 n=a#2 v=32
71637 Off ch=2 n=a#2 v=64
71637 On ch=2 n=a#3 v=32
71757 Off ch=2 n=a#3 v=64
71757 On ch=2 n=f4 v=32
71877 Off ch=2 n=f4 v=64
71877 On ch=2 n=d5 v=32
71994 Off ch=2 n=d5 v=64
71997 Par ch=2 c=64 v=0
71997 Par ch=2 c=64 v=127
71997 On ch=2 n=d#3 v=32
72117 Off ch=2 n=d#3 v=64
72117 On ch=2 n=a#3 v=32
72237 Off ch=2 n=a#3 v=64
72237 On ch=2 n=f#4 v=32
72357 Off ch=2 n=f#4 v=64
72357 On ch=2 n=d#5 v=32
72474 Off ch=2 n=d#5 v=64
72477 Par ch=2 c=64 v=0
72477 Par ch=2 c=64 v=127
72477 On ch=2 n=f#3 v=32
72597 Off ch=2 n=f#3 v=64
72597 On ch=2 n=d#4 v=32
72717 Off ch=2 n=d#4 v=64
72717 On ch=2 n=a#4 v=32
72837 Off ch=2 n=a#4 v=64
72837 On ch=2 n=d#5 v=32
72954 Off ch=2 n=d#5 v=64
72957 Par ch=2 c=64 v=0
72957 Par ch=2 c=64 v=127
72957 On ch=2 n=g3 v=32
73077 Off ch=2 n=g3 v=64
73077 On ch=2 n=e4 v=32
73197 Off ch=2 n=e4 v=64
73197 On ch=2 n=c#5 v=32
73317 Off ch=2 n=c#5 v=64
73317 On ch=2 n=a#5 v=32
73434 Off ch=2 n=a#5 v=64
73437 Par ch=2 c=64 v=0
73437 Par ch=2 c=64 v=127
73437 On ch=2 n=g#3 v=32
73557 Off ch=2 n=g#3 v=64
73557 On ch=2 n=d#4 v=32
73677 Off ch=2 n=d#4 v=64
73677 On ch=2 n=c5 v=32
73797 Off ch=2 n=c5 v=64
73797 On ch=2 n=f#5 v=32
73914 Off ch=2 n=f#5 v=64
73917 Par ch=2 c=64 v=0
73917 Par ch=2 c=64 v=127
73917 On ch=2 n=g#2 v=32
74037 Off ch=2 n=g#2 v=64
74037 On ch=2 n=g#3 v=32
74157 Off ch=2 n=g#3 v=64
74157 On ch=2 n=f#4 v=32
74277 Off ch=2 n=f#4 v=64
74277 On ch=2 n=c5 v=32
74394 Off ch=2 n=c5 v=64
74397 Par ch=2 c=64 v=0
74397 On ch=2 n=c#4 v=32
74397 On ch=2 n=f4 v=32
74397 On ch=2 n=c#5 v=32
74597 Off ch=2 n=c#5 v=64
74597 Off ch=2 n=f4 v=64
74597 Off ch=2 n=c#4 v=64
74877 On ch=2 n=a#2 v=32
74877 On ch=2 n=f3 v=32
74877 On ch=2 n=a#3 v=32
75077 Off ch=2 n=a#3 v=64
75077 Off ch=2 n=f3 v=64
75077 Off ch=2 n=a#2 v=64
75117 On ch=2 n=c#3 v=32
75117 On ch=2 n=f#3 v=32
75117 On ch=2 n=c#4 v=32
75317 Off ch=2 n=c#4 v=64
75317 Off ch=2 n=f#3 v=64
75317 Off ch=2 n=c#3 v=64
75357 On ch=2 n=a#2 v=32
75357 On ch=2 n=f3 v=32
75357 On ch=2 n=a#3 v=32
75557 Off ch=2 n=a#3 v=64
75557 Off ch=2 n=f3 v=64
75557 Off ch=2 n=a#2 v=64
75597 On ch=2 n=c#3 v=32
75597 On ch=2 n=f#3 v=32
75597 On ch=2 n=c#4 v=32
75797 Off ch=2 n=c#4 v=64
75797 Off ch=2 n=f#3 v=64
75797 Off ch=2 n=c#3 v=64
75837 On ch=2 n=a#2 v=32
75837 On ch=2 n=f3 v=32
75837 On ch=2 n=a#3 v=32
76037 Off ch=2 n=a#3 v=64
76037 Off ch=2 n=f3 v=64
76037 Off ch=2 n=a#2 v=64
76077 On ch=2 n=c#3 v=32
76077 On ch=2 n=f#3 v=32
76077 On ch=2 n=c#4 v=32
76277 Off ch=2 n=c#4 v=64
76277 Off ch=2 n=f#3 v=64
76277 Off ch=2 n=c#3 v=64
76317 On ch=2 n=a#2 v=32
76317 On ch=2 n=f3 v=32
76317 On ch=2 n=a#3 v=32
76517 Off ch=2 n=a#3 v=64
76517 Off ch=2 n=f3 v=64
76517 Off ch=2 n=a#2 v=64
76557 On ch=2 n=c#3 v=32
76557 On ch=2 n=f#3 v=32
76557 On ch=2 n=c#4 v=32
76757 Off ch=2 n=c#4 v=64
76757 Off ch=2 n=f#3 v=64
76757 Off ch=2 n=c#3 v=64
76797 Par ch=2 c=7 v=32
76797 On ch=2 n=a#2 v=32
76797 On ch=2 n=f3 v=32
76797 On ch=2 n=a#3 v=32
76997 Off ch=2 n=a#3 v=64
76997 Off ch=2 n=f3 v=64
76997 Off ch=2 n=a#2 v=64
77037 On ch=2 n=c#3 v=32
77037 On ch=2 n=f#3 v=32
77037 On ch=2 n=c#4 v=32
77237 Off ch=2 n=c#4 v=64
77237 Off ch=2 n=f#3 v=64
77237 Off ch=2 n=c#3 v=64
77277 On ch=2 n=a#2 v=32
77277 On ch=2 n=f3 v=32
77277 On ch=2 n=a#3 v=32
77477 Off ch=2 n=a#3 v=64
77477 Off ch=2 n=f3 v=64
77477 Off ch=2 n=a#2 v=64
77517 On ch=2 n=c#3 v=32
77517 On ch=2 n=f#3 v=32
77517 On ch=2 n=c#4 v=32
77717 Off ch=2 n=c#4 v=64
77717 Off ch=2 n=f#3 v=64
77717 Off ch=2 n=c#3 v=64
77757 On ch=2 n=a#2 v=32
77757 On ch=2 n=f3 v=32
77757 On ch=2 n=a#3 v=32
77957 Off ch=2 n=a#3 v=64
77957 Off ch=2 n=f3 v=64
77957 Off ch=2 n=a#2 v=64
77997 On ch=2 n=c#3 v=32
77997 On ch=2 n=f#3 v=32
77997 On ch=2 n=c#4 v=32
78197 Off ch=2 n=c#4 v=64
78197 Off ch=2 n=f#3 v=64
78197 Off ch=2 n=c#3 v=64
78237 On ch=2 n=a#2 v=32
78237 On ch=2 n=f3 v=32
78237 On ch=2 n=a#3 v=32
78437 Off ch=2 n=a#3 v=64
78437 Off ch=2 n=f3 v=64
78437 Off ch=2 n=a#2 v=64
78477 On ch=2 n=c#3 v=32
78477 On ch=2 n=f#3 v=32
78477 On ch=2 n=c#4 v=32
78677 Off ch=2 n=c#4 v=64
78677 Off ch=2 n=f#3 v=64
78677 Off ch=2 n=c#3 v=64
78717 Par ch=2 c=7 v=48
78717 On ch=2 n=a#2 v=48
78717 On ch=2 n=f3 v=48
78717 On ch=2 n=a#3 v=48
78917 Off ch=2 n=a#3 v=64
78917 Off ch=2 n=f3 v=64
78917 Off ch=2 n=a#2 v=64
78957 On ch=2 n=c#3 v=48
78957 On ch=2 n=f#3 v=48
78957 On ch=2 n=c#4 v=48
79157 Off ch=2 n=c#4 v=64
79157 Off ch=2 n=f#3 v=64
79157 Off ch=2 n=c#3 v=64
79197 On ch=2 n=a#2 v=48
79197 On ch=2 n=f3 v=48
79197 On ch=2 n=a#3 v=48
79397 Off ch=2 n=a#3 v=64
79397 Off ch=2 n=f3 v=64
79397 Off ch=2 n=a#2 v=64
79437 On ch=2 n=c#3 v=48
79437 On ch=2 n=f#3 v=48
79437 On ch=2 n=c#4 v=48
79637 Off ch=2 n=c#4 v=64
79637 Off ch=2 n=f#3 v=64
79637 Off ch=2 n=c#3 v=64
79677 On ch=2 n=a#2 v=48
79677 On ch=2 n=f3 v=48
79677 On ch=2 n=a#3 v=48
79877 Off ch=2 n=a#3 v=64
79877 Off ch=2 n=f3 v=64
79877 Off ch=2 n=a#2 v=64
79917 On ch=2 n=c#3 v=48
79917 On ch=2 n=f#3 v=48
79917 On ch=2 n=c#4 v=48
80117 Off ch=2 n=c#4 v=64
80117 Off ch=2 n=f#3 v=64
80117 Off ch=2 n=c#3 v=64
80157 On ch=2 n=a#2 v=48
80157 On ch=2 n=f3 v=48
80157 On ch=2 n=a#3 v=48
80357 Off ch=2 n=a#3 v=64
80357 Off ch=2 n=f3 v=64
80357 Off ch=2 n=a#2 v=64
80397 On ch=2 n=c#3 v=48
80397 On ch=2 n=f#3 v=48
80397 On ch=2 n=c#4 v=48
80597 Off ch=2 n=c#4 v=64
80597 Off ch=2 n=f#3 v=64
80597 Off ch=2 n=c#3 v=64
80637 Par ch=2 c=7 v=84
80637 On ch=2 n=a#2 v=84
80637 On ch=2 n=f3 v=84
80637 On ch=2 n=a#3 v=84
80663 Par ch=2 c=7 v=83
80689 Par ch=2 c=7 v=82
80717 Par ch=2 c=7 v=81
80743 Par ch=2 c=7 v=80
80769 Par ch=2 c=7 v=79
80797 Par ch=2 c=7 v=78
80823 Par ch=2 c=7 v=77
80837 Off ch=2 n=a#3 v=64
80837 Off ch=2 n=f3 v=64
80837 Off ch=2 n=a#2 v=64
80849 Par ch=2 c=7 v=76
80877 Par ch=2 c=7 v=75
80877 On ch=2 n=c#3 v=83
80877 On ch=2 n=f#3 v=83
80877 On ch=2 n=c#4 v=83
80903 Par ch=2 c=7 v=74
80929 Par ch=2 c=7 v=73
80957 Par ch=2 c=7 v=72
80983 Par ch=2 c=7 v=71
81009 Par ch=2 c=7 v=70
81037 Par ch=2 c=7 v=69
81063 Par ch=2 c=7 v=68
81077 Off ch=2 n=c#4 v=64
81077 Off ch=2 n=f#3 v=64
81077 Off ch=2 n=c#3 v=64
81089 Par ch=2 c=7 v=67
81117 Par ch=2 c=7 v=66
81117 On ch=2 n=a#2 v=82
81117 On ch=2 n=f3 v=82
81117 On ch=2 n=a#3 v=82
81143 Par ch=2 c=7 v=65
81169 Par ch=2 c=7 v=64
81197 Par ch=2 c=7 v=63
81223 Par ch=2 c=7 v=62
81249 Par ch=2 c=7 v=61
81277 Par ch=2 c=7 v=60
81303 Par ch=2 c=7 v=59
81317 Off ch=2 n=a#3 v=64
81317 Off ch=2 n=f3 v=64
81317 Off ch=2 n=a#2 v=64
81329 Par ch=2 c=7 v=58
81357 Par ch=2 c=7 v=57
81357 On ch=2 n=c#3 v=81
81357 On ch=2 n=f#3 v=81
81357 On ch=2 n=c#4 v=81
81383 Par ch=2 c=7 v=56
81409 Par ch=2 c=7 v=55
81437 Par ch=2 c=7 v=54
81463 Par ch=2 c=7 v=53
81489 Par ch=2 c=7 v=52
81517 Par ch=2 c=7 v=51
81543 Par ch=2 c=7 v=50
81557 Off ch=2 n=c#4 v=64
81557 Off ch=2 n=f#3 v=64
81557 Off ch=2 n=c#3 v=64
81569 Par ch=2 c=7 v=49
81597 Par ch=2 c=7 v=48
81597 Par ch=2 c=7 v=84
81597 On ch=2 n=a#2 v=84
81597 On ch=2 n=f3 v=84
81597 On ch=2 n=a#3 v=84
81623 Par ch=2 c=7 v=83
81649 Par ch=2 c=7 v=82
81677 Par ch=2 c=7 v=81
81703 Par ch=2 c=7 v=80
81729 Par ch=2 c=7 v=79
81757 Par ch=2 c=7 v=78
81783 Par ch=2 c=7 v=77
81797 Off ch=2 n=a#3 v=64
81797 Off ch=2 n=f3 v=64
81797 Off ch=2 n=a#2 v=64
81809 Par ch=2 c=7 v=76
81837 Par ch=2 c=7 v=75
81837 On ch=2 n=c#3 v=83
81837 On ch=2 n=f#3 v=83
81837 On ch=2 n=c#4 v=83
81863 Par ch=2 c=7 v=74
81889 Par ch=2 c=7 v=73
81917 Par ch=2 c=7 v=72
81943 Par ch=2 c=7 v=71
81969 Par ch=2 c=7 v=70
81997 Par ch=2 c=7 v=69
82023 Par ch=2 c=7 v=68
82037 Off ch=2 n=c#4 v=64
82037 Off ch=2 n=f#3 v=64
82037 Off ch=2 n=c#3 v=64
82049 Par ch=2 c=7 v=67
82077 Par ch=2 c=7 v=66
82077 On ch=2 n=a#2 v=82
82077 On ch=2 n=f3 v=82
82077 On ch=2 n=a#3 v=82
82103 Par ch=2 c=7 v=65
82129 Par ch=2 c=7 v=64
82157 Par ch=2 c=7 v=63
82183 Par ch=2 c=7 v=62
82209 Par ch=2 c=7 v=61
82237 Par ch=2 c=7 v=60
82263 Par ch=2 c=7 v=59
82277 Off ch=2 n=a#3 v=64
82277 Off ch=2 n=f3 v=64
82277 Off ch=2 n=a#2 v=64
82289 Par ch=2 c=7 v=58
82317 Par ch=2 c=7 v=57
82317 On ch=2 n=c#3 v=81
82317 On ch=2 n=f#3 v=81
82317 On ch=2 n=c#4 v=81
82343 Par ch=2 c=7 v=56
82369 Par ch=2 c=7 v=55
82397 Par ch=2 c=7 v=54
82423 Par ch=2 c=7 v=53
82449 Par ch=2 c=7 v=52
82477 Par ch=2 c=7 v=51
82503 Par ch=2 c=7 v=50
82517 Off ch=2 n=c#4 v=64
82517 Off ch=2 n=f#3 v=64
82517 Off ch=2 n=c#3 v=64
82529 Par ch=2 c=7 v=49
82557 Par ch=2 c=7 v=48
82557 On ch=2 n=a#2 v=48
82557 On ch=2 n=f3 v=48
82557 On ch=2 n=a#3 v=48
82757 Off ch=2 n=a#3 v=64
82757 Off ch=2 n=f3 v=64
82757 Off ch=2 n=a#2 v=64
82797 On ch=2 n=c#3 v=48
82797 On ch=2 n=f#3 v=48
82797 On ch=2 n=c#4 v=48
82997 Off ch=2 n=c#4 v=64
82997 Off ch=2 n=f#3 v=64
82997 Off ch=2 n=c#3 v=64
83037 On ch=2 n=a#2 v=48
83037 On ch=2 n=f3 v=48
83037 On ch=2 n=a#3 v=48
83237 Off ch=2 n=a#3 v=64
83237 Off ch=2 n=f3 v=64
83237 Off ch=2 n=a#2 v=64
83277 On ch=2 n=c#3 v=48
83277 On ch=2 n=f#3 v=48
83277 On ch=2 n=c#4 v=48
83477 Off ch=2 n=c#4 v=64
83477 Off ch=2 n=f#3 v=64
83477 Off ch=2 n=c#3 v=64
83517 On ch=2 n=a#2 v=48
83517 On ch=2 n=f3 v=48
83517 On ch=2 n=a#3 v=48
83717 Off ch=2 n=a#3 v=64
83717 Off ch=2 n=f3 v=64
83717 Off ch=2 n=a#2 v=64
83757 On ch=2 n=c#3 v=48
83757 On ch=2 n=f#3 v=48
83757 On ch=2 n=c#4 v=48
83957 Off ch=2 n=c#4 v=64
83957 Off ch=2 n=f#3 v=64
83957 Off ch=2 n=c#3 v=64
83997 On ch=2 n=a#2 v=48
83997 On ch=2 n=f3 v=48
83997 On ch=2 n=a#3 v=48
84197 Off ch=2 n=a#3 v=64
84197 Off ch=2 n=f3 v=64
84197 Off ch=2 n=a#2 v=64
84237 On ch=2 n=c#3 v=48
84237 On ch=2 n=f#3 v=48
84237 On ch=2 n=c#4 v=48
84437 Off ch=2 n=c#4 v=64
84437 Off ch=2 n=f#3 v=64
84437 Off ch=2 n=c#3 v=64
84477 Par ch=2 c=7 v=120
84477 Par ch=2 c=64 v=127
84477 On ch=2 n=a#2 v=120
84477 On ch=2 n=f3 v=120
84477 On ch=2 n=a#3 v=120
84500 Par ch=2 c=7 v=119
84524 Par ch=2 c=7 v=118
84548 Par ch=2 c=7 v=117
84572 Par ch=2 c=7 v=116
84597 Par ch=2 c=7 v=115
84620 Par ch=2 c=7 v=114
84644 Par ch=2 c=7 v=113
84668 Par ch=2 c=7 v=112
84677 Off ch=2 n=a#3 v=64
84677 Off ch=2 n=f3 v=64
84677 Off ch=2 n=a#2 v=64
84692 Par ch=2 c=7 v=111
84717 Par ch=2 c=7 v=110
84717 On ch=2 n=c#3 v=119
84717 On ch=2 n=f#3 v=119
84717 On ch=2 n=c#4 v=119
84740 Par ch=2 c=7 v=109
84764 Par ch=2 c=7 v=108
84788 Par ch=2 c=7 v=107
84812 Par ch=2 c=7 v=106
84837 Par ch=2 c=7 v=105
84860 Par ch=2 c=7 v=104
84884 Par ch=2 c=7 v=103
84908 Par ch=2 c=7 v=102
84917 Off ch=2 n=c#4 v=64
84917 Off ch=2 n=f#3 v=64
84917 Off ch=2 n=c#3 v=64
84932 Par ch=2 c=7 v=101
84957 Par ch=2 c=7 v=100
84957 On ch=2 n=a#2 v=118
84957 On ch=2 n=f3 v=118
84957 On ch=2 n=a#3 v=118
84980 Par ch=2 c=7 v=99
85004 Par ch=2 c=7 v=98
85028 Par ch=2 c=7 v=97
85052 Par ch=2 c=7 v=96
85077 Par ch=2 c=7 v=95
85100 Par ch=2 c=7 v=94
85124 Par ch=2 c=7 v=93
85148 Par ch=2 c=7 v=92
85157 Off ch=2 n=a#3 v=64
85157 Off ch=2 n=f3 v=64
85157 Off ch=2 n=a#2 v=64
85172 Par ch=2 c=7 v=91
85197 Par ch=2 c=7 v=90
85197 On ch=2 n=c#3 v=117
85197 On ch=2 n=f#3 v=117
85197 On ch=2 n=c#4 v=117
85220 Par ch=2 c=7 v=89
85244 Par ch=2 c=7 v=88
85268 Par ch=2 c=7 v=87
85292 Par ch=2 c=7 v=86
85317 Par ch=2 c=7 v=85
85340 Par ch=2 c=7 v=84
85364 Par ch=2 c=7 v=83
85388 Par ch=2 c=7 v=82
85397 Off ch=2 n=c#4 v=64
85397 Off ch=2 n=f#3 v=64
85397 Off ch=2 n=c#3 v=64
85412 Par ch=2 c=7 v=81
85437 Par ch=2 c=64 v=0
85437 Par ch=2 c=7 v=80
85437 Par ch=2 c=7 v=120
85437 Par ch=2 c=64 v=127
85437 On ch=2 n=a#2 v=120
85437 On ch=2 n=f3 v=120
85437 On ch=2 n=a#3 v=120
85460 Par ch=2 c=7 v=119
85484 Par ch=2 c=7 v=118
85508 Par ch=2 c=7 v=117
85532 Par ch=2 c=7 v=116
85557 Par ch=2 c=7 v=115
85580 Par ch=2 c=7 v=114
85604 Par ch=2 c=7 v=113
85628 Par ch=2 c=7 v=112
85637 Off ch=2 n=a#3 v=64
85637 Off ch=2 n=f3 v=64
85637 Off ch=2 n=a#2 v=64
85652 Par ch=2 c=7 v=111
85677 Par ch=2 c=7 v=110
85677 On ch=2 n=c#3 v=119
85677 On ch=2 n=f#3 v=119
85677 On ch=2 n=c#4 v=119
85700 Par ch=2 c=7 v=109
85724 Par ch=2 c=7 v=108
85748 Par ch=2 c=7 v=107
85772 Par ch=2 c=7 v=106
85797 Par ch=2 c=7 v=105
85820 Par ch=2 c=7 v=104
85844 Par ch=2 c=7 v=103
85868 Par ch=2 c=7 v=102
85877 Off ch=2 n=c#4 v=64
85877 Off ch=2 n=f#3 v=64
85877 Off ch=2 n=c#3 v=64
85892 Par ch=2 c=7 v=101
85917 Par ch=2 c=7 v=100
85917 On ch=2 n=a#2 v=118
85917 On ch=2 n=f3 v=118
85917 On ch=2 n=a#3 v=118
85940 Par ch=2 c=7 v=99
85964 Par ch=2 c=7 v=98
85988 Par ch=2 c=7 v=97
86012 Par ch=2 c=7 v=96
86037 Par ch=2 c=7 v=95
86060 Par ch=2 c=7 v=94
86084 Par ch=2 c=7 v=93
86108 Par ch=2 c=7 v=92
86117 Off ch=2 n=a#3 v=64
86117 Off ch=2 n=f3 v=64
86117 Off ch=2 n=a#2 v=64
86132 Par ch=2 c=7 v=91
86157 Par ch=2 c=7 v=90
86157 On ch=2 n=c#3 v=117
86157 On ch=2 n=f#3 v=117
86157 On ch=2 n=c#4 v=117
86180 Par ch=2 c=7 v=89
86204 Par ch=2 c=7 v=88
86228 Par ch=2 c=7 v=87
86252 Par ch=2 c=7 v=86
86277 Par ch=2 c=7 v=85
86300 Par ch=2 c=7 v=84
86324 Par ch=2 c=7 v=83
86348 Par ch=2 c=7 v=82
86357 Off ch=2 n=c#4 v=64
86357 Off ch=2 n=f#3 v=64
86357 Off ch=2 n=c#3 v=64
86372 Par ch=2 c=7 v=81
86397 Par ch=2 c=64 v=0
86397 Par ch=2 c=7 v=80
86397 Par ch=2 c=7 v=40
86397 On ch=2 n=a#2 v=40
86397 On ch=2 n=f3 v=40
86397 On ch=2 n=a#3 v=40
86597 Off ch=2 n=a#3 v=64
86597 Off ch=2 n=f3 v=64
86597 Off ch=2 n=a#2 v=64
86637 On ch=2 n=c#3 v=40
86637 On ch=2 n=f#3 v=40
86637 On ch=2 n=c#4 v=40
86837 Off ch=2 n=c#4 v=64
86837 Off ch=2 n=f#3 v=64
86837 Off ch=2 n=c#3 v=64
86877 On ch=2 n=a#2 v=40
86877 On ch=2 n=f3 v=40
86877 On ch=2 n=a#3 v=40
87077 Off ch=2 n=a#3 v=64
87077 Off ch=2 n=f3 v=64
87077 Off ch=2 n=a#2 v=64
87117 On ch=2 n=c#3 v=40
87117 On ch=2 n=f#3 v=40
87117 On ch=2 n=c#4 v=40
87317 Off ch=2 n=c#4 v=64
87317 Off ch=2 n=f#3 v=64
87317 Off ch=2 n=c#3 v=64
87357 On ch=2 n=a#2 v=40
87357 On ch=2 n=f3 v=40
87357 On ch=2 n=a#3 v=40
87557 Off ch=2 n=a#3 v=64
87557 Off ch=2 n=f3 v=64
87557 Off ch=2 n=a#2 v=64
87597 On ch=2 n=c#3 v=40
87597 On ch=2 n=f#3 v=40
87597 On ch=2 n=c#4 v=40
87797 Off ch=2 n=c#4 v=64
87797 Off ch=2 n=f#3 v=64
87797 Off ch=2 n=c#3 v=64
87837 On ch=2 n=a#2 v=40
87837 On ch=2 n=f3 v=40
87837 On ch=2 n=a#3 v=40
88037 Off ch=2 n=a#3 v=64
88037 Off ch=2 n=f3 v=64
88037 Off ch=2 n=a#2 v=64
88077 Par ch=2 c=7 v=72
88077 On ch=2 n=g#2 v=100
88077 On ch=2 n=g#3 v=100
88277 Off ch=2 n=g#3 v=64
88277 Off ch=2 n=g#2 v=64
88317 Par ch=2 c=7 v=80
88317 Par ch=2 c=64 v=127
88317 On ch=2 n=c#2 v=80
88317 On ch=2 n=c#3 v=80
88347 Par ch=2 c=7 v=81
88377 Par ch=2 c=7 v=82
88407 Par ch=2 c=7 v=83
88437 Par ch=2 c=7 v=84
88467 Par ch=2 c=7 v=85
88497 Par ch=2 c=7 v=86
88517 Off ch=2 n=c#3 v=64
88517 Off ch=2 n=c#2 v=64
88527 Par ch=2 c=7 v=87
88557 Par ch=2 c=7 v=88
88557 On ch=2 n=c#4 v=81
88557 On ch=2 n=g#4 v=81
88557 On ch=2 n=c#5 v=81
88587 Par ch=2 c=7 v=89
88617 Par ch=2 c=7 v=90
88647 Par ch=2 c=7 v=91
88677 Par ch=2 c=7 v=92
88707 Par ch=2 c=7 v=93
88734 Off ch=2 n=c#5 v=64
88734 Off ch=2 n=g#4 v=64
88734 Off ch=2 n=c#4 v=64
88737 Par ch=2 c=7 v=94
88737 On ch=2 n=d#5 v=82
88767 Par ch=2 c=7 v=95
88794 Off ch=2 n=d#5 v=64
88797 Par ch=2 c=7 v=96
88797 On ch=2 n=c#4 v=83
88797 On ch=2 n=g#4 v=83
88797 On ch=2 n=f5 v=83
88827 Par ch=2 c=7 v=97
88857 Par ch=2 c=7 v=98
88887 Par ch=2 c=7 v=99
88917 Par ch=2 c=7 v=100
88947 Par ch=2 c=7 v=101
88974 Off ch=2 n=f5 v=64
88974 Off ch=2 n=g#4 v=64
88974 Off ch=2 n=c#4 v=64
88977 Par ch=2 c=7 v=102
88977 On ch=2 n=f#5 v=84
89007 Par ch=2 c=7 v=103
89034 Off ch=2 n=f#5 v=64
89037 Par ch=2 c=7 v=104
89037 On ch=2 n=g#4 v=85
89037 On ch=2 n=d#5 v=85
89037 On ch=2 n=g#5 v=85
89067 Par ch=2 c=7 v=105
89097 Par ch=2 c=7 v=106
89127 Par ch=2 c=7 v=107
89157 Par ch=2 c=7 v=108
89187 Par ch=2 c=7 v=109
89214 Off ch=2 n=g#5 v=64
89214 Off ch=2 n=d#5 v=64
89214 Off ch=2 n=g#4 v=64
89217 Par ch=2 c=7 v=110
89217 On ch=2 n=f5 v=86
89247 Par ch=2 c=7 v=111
89274 Off ch=2 n=f5 v=64
89277 Par ch=2 c=7 v=112
89277 Par ch=2 c=64 v=0
89277 Par ch=2 c=64 v=127
89277 On ch=2 n=g#2 v=112
89277 On ch=2 n=g#3 v=112
89477 Off ch=2 n=g#3 v=64
89477 Off ch=2 n=g#2 v=64
89517 On ch=2 n=d#5 v=112
89517 On ch=2 n=f#5 v=112
89517 On ch=2 n=c6 v=112
89537 Par ch=2 c=7 v=111
89558 Par ch=2 c=7 v=110
89578 Par ch=2 c=7 v=109
89599 Par ch=2 c=7 v=108
89619 Par ch=2 c=7 v=107
89640 Par ch=2 c=7 v=106
89660 Par ch=2 c=7 v=105
89682 Par ch=2 c=7 v=104
89694 Off ch=2 n=c6 v=64
89694 Off ch=2 n=f#5 v=64
89694 Off ch=2 n=d#5 v=64
89697 On ch=2 n=c#5 v=111
89697 On ch=2 n=f#5 v=111
89697 On ch=2 n=a#5 v=111
89702 Par ch=2 c=7 v=103
89723 Par ch=2 c=7 v=102
89743 Par ch=2 c=7 v=101
89754 Off ch=2 n=a#5 v=64
89754 Off ch=2 n=f#5 v=64
89754 Off ch=2 n=c#5 v=64
89757 On ch=2 n=c#5 v=110
89757 On ch=2 n=f#5 v=110
89757 On ch=2 n=a#5 v=110
89764 Par ch=2 c=7 v=100
89784 Par ch=2 c=7 v=99
89805 Par ch=2 c=7 v=98
89825 Par ch=2 c=7 v=97
89847 Par ch=2 c=7 v=96
89867 Par ch=2 c=7 v=95
89888 Par ch=2 c=7 v=94
89908 Par ch=2 c=7 v=93
89929 Par ch=2 c=7 v=92
89934 Off ch=2 n=a#5 v=64
89934 Off ch=2 n=f#5 v=64
89934 Off ch=2 n=c#5 v=64
89937 On ch=2 n=c5 v=109
89937 On ch=2 n=f#5 v=109
89937 On ch=2 n=g#5 v=109
89949 Par ch=2 c=7 v=91
89970 Par ch=2 c=7 v=90
89990 Par ch=2 c=7 v=89
89994 Off ch=2 n=g#5 v=64
89994 Off ch=2 n=f#5 v=64
89994 Off ch=2 n=c5 v=64
89997 On ch=2 n=c5 v=108
89997 On ch=2 n=f#5 v=108
89997 On ch=2 n=g#5 v=108
90012 Par ch=2 c=7 v=88
90032 Par ch=2 c=7 v=87
90053 Par ch=2 c=7 v=86
90073 Par ch=2 c=7 v=85
90094 Par ch=2 c=7 v=84
90114 Par ch=2 c=7 v=83
90135 Par ch=2 c=7 v=82
90155 Par ch=2 c=7 v=81
90174 Off ch=2 n=g#5 v=64
90174 Off ch=2 n=f#5 v=64
90174 Off ch=2 n=c5 v=64
90177 Par ch=2 c=64 v=0
90177 Par ch=2 c=7 v=80
90177 On ch=2 n=a4 v=80
90177 On ch=2 n=c5 v=80
90177 On ch=2 n=d#5 v=80
90234 Off ch=2 n=d#5 v=64
90234 Off ch=2 n=c5 v=64
90234 Off ch=2 n=a4 v=64
90237 Par ch=2 c=64 v=127
90237 On ch=2 n=a#2 v=80
90237 On ch=2 n=a#3 v=80
90437 Off ch=2 n=a#3 v=64
90437 Off ch=2 n=a#2 v=64
90477 On ch=2 n=f4 v=80
90477 On ch=2 n=a#4 v=80
90477 On ch=2 n=c#5 v=80
90677 Off ch=2 n=c#5 v=64
90677 Off ch=2 n=a#4 v=64
90677 Off ch=2 n=f4 v=64
90717 Par ch=2 c=64 v=0
90717 Par ch=2 c=64 v=127
90717 On ch=2 n=c#3 v=80
90717 On ch=2 n=c#4 v=80
90917 Off ch=2 n=c#4 v=64
90917 Off ch=2 n=c#3 v=64
90957 On ch=2 n=f4 v=80
90957 On ch=2 n=a#4 v=80
90957 On ch=2 n=c#5 v=80
90957 On ch=2 n=f5 v=80
91157 Off ch=2 n=f5 v=64
91157 Off ch=2 n=c#5 v=64
91157 Off ch=2 n=a#4 v=64
91157 Off ch=2 n=f4 v=64
91197 Par ch=2 c=64 v=0
91197 Par ch=2 c=64 v=127
91197 On ch=2 n=f2 v=80
91197 On ch=2 n=f3 v=80
91397 Off ch=2 n=f3 v=64
91397 Off ch=2 n=f2 v=64
91437 On ch=2 n=f4 v=80
91437 On ch=2 n=a#4 v=80
91637 Off ch=2 n=a#4 v=64
91637 Off ch=2 n=f4 v=64
91677 Par ch=2 c=64 v=0
91677 On ch=2 n=f4 v=80
91677 On ch=2 n=a4 v=80
91677 On ch=2 n=c5 v=80
91877 Off ch=2 n=c5 v=64
91877 Off ch=2 n=a4 v=64
91877 Off ch=2 n=f4 v=64
91917 On ch=2 n=f4 v=80
92117 Off ch=2 n=f4 v=64
92157 Par ch=2 c=64 v=127
92157 On ch=2 n=g3 v=80
92214 Off ch=2 n=g3 v=64
92217 On ch=2 n=g#3 v=80
92274 Off ch=2 n=g#3 v=64
92277 On ch=2 n=a#3 v=80
92304 Off ch=2 n=a#3 v=64
92307 On ch=2 n=g#3 v=80
92334 Off ch=2 n=g#3 v=64
92337 On ch=2 n=a#3 v=80
92364 Off ch=2 n=a#3 v=64
92367 On ch=2 n=g#3 v=80
92394 Off ch=2 n=g#3 v=64
92397 On ch=2 n=a#3 v=80
92424 Off ch=2 n=a#3 v=64
92427 On ch=2 n=g#3 v=80
92454 Off ch=2 n=g#3 v=64
92457 On ch=2 n=a#3 v=80
92484 Off ch=2 n=a#3 v=64
92487 On ch=2 n=g#3 v=80
92514 Off ch=2 n=g#3 v=64
92517 On ch=2 n=g3 v=80
92574 Off ch=2 n=g3 v=64
92577 On ch=2 n=g#3 v=80
92634 Off ch=2 n=g#3 v=64
92637 Par ch=2 c=64 v=0
92637 On ch=2 n=c#4 v=80
92837 Off ch=2 n=c#4 v=64
92877 On ch=2 n=c#4 v=80
93077 Off ch=2 n=c#4 v=64
93117 Par ch=2 c=64 v=127
93117 On ch=2 n=e3 v=80
93174 Off ch=2 n=e3 v=64
93177 On ch=2 n=f3 v=80
93234 Off ch=2 n=f3 v=64
93237 On ch=2 n=f#3 v=80
93264 Off ch=2 n=f#3 v=64
93267 On ch=2 n=f3 v=80
93294 Off ch=2 n=f3 v=64
93297 On ch=2 n=f#3 v=80
93324 Off ch=2 n=f#3 v=64
93327 On ch=2 n=f3 v=80
93354 Off ch=2 n=f3 v=64
93357 On ch=2 n=f#3 v=80
93384 Off ch=2 n=f#3 v=64
93387 On ch=2 n=f3 v=80
93414 Off ch=2 n=f3 v=64
93417 On ch=2 n=f#3 v=80
93444 Off ch=2 n=f#3 v=64
93447 On ch=2 n=f3 v=80
93474 Off ch=2 n=f3 v=64
93477 On ch=2 n=e3 v=80
93534 Off ch=2 n=e3 v=64
93537 On ch=2 n=f3 v=80
93594 Off ch=2 n=f3 v=64
93597 On ch=2 n=f#3 v=80
93797 Off ch=2 n=f#3 v=64
93837 Par ch=2 c=64 v=0
93837 On ch=2 n=f3 v=80
93954 Off ch=2 n=f3 v=64
93957 On ch=2 n=c#3 v=80
94074 Off ch=2 n=c#3 v=64
94077 Par ch=2 c=7 v=32
94077 On ch=2 n=a#2 v=32
94277 Off ch=2 n=a#2 v=64
94317 On ch=2 n=c#3 v=32
94317 On ch=2 n=f#3 v=32
94317 On ch=2 n=c#4 v=32
94517 Off ch=2 n=c#4 v=64
94517 Off ch=2 n=f#3 v=64
94517 Off ch=2 n=c#3 v=64
94557 On ch=2 n=a#2 v=32
94557 On ch=2 n=f3 v=32
94557 On ch=2 n=a#3 v=32
94757 Off ch=2 n=a#3 v=64
94757 Off ch=2 n=f3 v=64
94757 Off ch=2 n=a#2 v=64
94797 On ch=2 n=c#3 v=32
94797 On ch=2 n=f#3 v=32
94797 On ch=2 n=c#4 v=32
94997 Off ch=2 n=c#4 v=64
94997 Off ch=2 n=f#3 v=64
94997 Off ch=2 n=c#3 v=64
95037 On ch=2 n=a#2 v=32
95037 On ch=2 n=f3 v=32
95037 On ch=2 n=a#3 v=32
95037 On ch=2 n=f4 v=32
95237 Off ch=2 n=f4 v=64
95237 Off ch=2 n=a#3 v=64
95237 Off ch=2 n=f3 v=64
95237 Off ch=2 n=a#2 v=64
95277 On ch=2 n=c#3 v=32
95277 On ch=2 n=f#3 v=32
95277 On ch=2 n=c#4 v=32
95477 Off ch=2 n=c#4 v=64
95477 Off ch=2 n=f#3 v=64
95477 Off ch=2 n=c#3 v=64
95517 On ch=2 n=a#2 v=32
95517 On ch=2 n=f3 v=32
95517 On ch=2 n=a#3 v=32
95517 On ch=2 n=f4 v=32
95717 Off ch=2 n=f4 v=64
95717 Off ch=2 n=a#3 v=64
95717 Off ch=2 n=f3 v=64
95717 Off ch=2 n=a#2 v=64
95757 Par ch=2 c=7 v=112
95757 On ch=2 n=a2 v=112
95757 On ch=2 n=a3 v=112
95934 Off ch=2 n=a3 v=64
95934 Off ch=2 n=a2 v=64
95937 On ch=2 n=g#2 v=112
95937 On ch=2 n=g#3 v=112
95994 Off ch=2 n=g#3 v=64
95994 Off ch=2 n=g#2 v=64
95997 Par ch=2 c=7 v=96
95997 Par ch=2 c=64 v=127
95997 On ch=2 n=c#2 v=96
95997 On ch=2 n=c#3 v=96
96037 Par ch=2 c=7 v=97
96077 Par ch=2 c=7 v=98
96117 Par ch=2 c=7 v=99
96157 Par ch=2 c=7 v=100
96197 Off ch=2 n=c#3 v=64
96197 Off ch=2 n=c#2 v=64
96197 Par ch=2 c=7 v=101
96237 Par ch=2 c=7 v=102
96237 On ch=2 n=c#4 v=97
96237 On ch=2 n=g#4 v=97
96237 On ch=2 n=c#5 v=97
96277 Par ch=2 c=7 v=103
96317 Par ch=2 c=7 v=104
96357 Par ch=2 c=7 v=105
96397 Par ch=2 c=7 v=106
96414 Off ch=2 n=c#5 v=64
96414 Off ch=2 n=g#4 v=64
96414 Off ch=2 n=c#4 v=64
96417 On ch=2 n=d#5 v=98
96437 Par ch=2 c=7 v=107
96474 Off ch=2 n=d#5 v=64
96477 Par ch=2 c=7 v=108
96477 On ch=2 n=c#4 v=99
96477 On ch=2 n=g#4 v=99
96477 On ch=2 n=f5 v=99
96517 Par ch=2 c=7 v=109
96557 Par ch=2 c=7 v=110
96597 Par ch=2 c=7 v=111
96637 Par ch=2 c=7 v=112
96654 Off ch=2 n=f5 v=64
96654 Off ch=2 n=g#4 v=64
96654 Off ch=2 n=c#4 v=64
96657 On ch=2 n=f#5 v=100
96677 Par ch=2 c=7 v=113
96714 Off ch=2 n=f#5 v=64
96717 Par ch=2 c=7 v=114
96717 On ch=2 n=g#4 v=101
96717 On ch=2 n=d#5 v=101
96717 On ch=2 n=g#5 v=101
96757 Par ch=2 c=7 v=115
96797 Par ch=2 c=7 v=116
96837 Par ch=2 c=7 v=117
96877 Par ch=2 c=7 v=118
96894 Off ch=2 n=g#5 v=64
96894 Off ch=2 n=d#5 v=64
96894 Off ch=2 n=g#4 v=64
96897 On ch=2 n=f5 v=102
96917 Par ch=2 c=7 v=119
96954 Off ch=2 n=f5 v=64
96957 Par ch=2 c=7 v=120
96957 Par ch=2 c=64 v=0
96957 Par ch=2 c=64 v=127
96957 On ch=2 n=g#2 v=120
96957 On ch=2 n=g#3 v=120
97157 Off ch=2 n=g#3 v=64
97157 Off ch=2 n=g#2 v=64
97197 On ch=2 n=d#5 v=120
97197 On ch=2 n=f#5 v=120
97197 On ch=2 n=c6 v=120
97213 Par ch=2 c=7 v=119
97229 Par ch=2 c=7 v=118
97245 Par ch=2 c=7 v=117
97262 Par ch=2 c=7 v=116
97278 Par ch=2 c=7 v=115
97295 Par ch=2 c=7 v=114
97312 Par ch=2 c=7 v=113
97328 Par ch=2 c=7 v=112
97344 Par ch=2 c=7 v=111
97360 Par ch=2 c=7 v=110
97374 Off ch=2 n=c6 v=64
97374 Off ch=2 n=f#5 v=64
97374 Off ch=2 n=d#5 v=64
97377 On ch=2 n=c#5 v=119
97377 On ch=2 n=f#5 v=119
97377 On ch=2 n=a#5 v=119
97378 Par ch=2 c=7 v=109
97394 Par ch=2 c=7 v=108
97410 Par ch=2 c=7 v=107
97427 Par ch=2 c=7 v=106
97434 Off ch=2 n=a#5 v=64
97434 Off ch=2 n=f#5 v=64
97434 Off ch=2 n=c#5 v=64
97437 On ch=2 n=c#5 v=118
97437 On ch=2 n=f#5 v=118
97437 On ch=2 n=a#5 v=118
97443 Par ch=2 c=7 v=105
97460 Par ch=2 c=7 v=104
97477 Par ch=2 c=7 v=103
97493 Par ch=2 c=7 v=102
97509 Par ch=2 c=7 v=101
97525 Par ch=2 c=7 v=100
97543 Par ch=2 c=7 v=99
97559 Par ch=2 c=7 v=98
97575 Par ch=2 c=7 v=97
97592 Par ch=2 c=7 v=96
97608 Par ch=2 c=7 v=95
97614 Off ch=2 n=a#5 v=64
97614 Off ch=2 n=f#5 v=64
97614 Off ch=2 n=c#5 v=64
97617 On ch=2 n=c5 v=117
97617 On ch=2 n=f#5 v=117
97617 On ch=2 n=g#5 v=117
97625 Par ch=2 c=7 v=94
97642 Par ch=2 c=7 v=93
97658 Par ch=2 c=7 v=92
97674 Off ch=2 n=g#5 v=64
97674 Off ch=2 n=f#5 v=64
97674 Off ch=2 n=c5 v=64
97674 Par ch=2 c=7 v=91
97677 On ch=2 n=c5 v=116
97677 On ch=2 n=f#5 v=116
97677 On ch=2 n=g#5 v=116
97687 Par ch=2 c=7 v=90
97705 Par ch=2 c=7 v=89
97721 Par ch=2 c=7 v=88
97737 Par ch=2 c=7 v=87
97754 Par ch=2 c=7 v=86
97770 Par ch=2 c=7 v=85
97787 Par ch=2 c=7 v=84
97804 Par ch=2 c=7 v=83
97820 Par ch=2 c=7 v=82
97836 Par ch=2 c=7 v=81
97851 Off ch=2 n=g#5 v=64
97851 Off ch=2 n=f#5 v=64
97851 Off ch=2 n=c5 v=64
97852 Par ch=2 c=7 v=80
97854 Par ch=2 c=64 v=0
97854 Par ch=2 c=7 v=80
97854 On ch=2 n=a4 v=80
97854 On ch=2 n=c5 v=80
97854 On ch=2 n=d#5 v=80
97911 Off ch=2 n=d#5 v=64
97911 Off ch=2 n=c5 v=64
97911 Off ch=2 n=a4 v=64
97914 Par ch=2 c=64 v=127
97914 On ch=2 n=a#2 v=80
97914 On ch=2 n=a#3 v=80
98114 Off ch=2 n=a#3 v=64
98114 Off ch=2 n=a#2 v=64
98154 On ch=2 n=f4 v=80
98154 On ch=2 n=a#4 v=80
98154 On ch=2 n=c#5 v=80
98354 Off ch=2 n=c#5 v=64
98354 Off ch=2 n=a#4 v=64
98354 Off ch=2 n=f4 v=64
98394 Par ch=2 c=64 v=0
98394 Par ch=2 c=64 v=127
98394 On ch=2 n=c#3 v=80
98394 On ch=2 n=c#4 v=80
98594 Off ch=2 n=c#4 v=64
98594 Off ch=2 n=c#3 v=64
98634 On ch=2 n=f4 v=80
98634 On ch=2 n=a#4 v=80
98634 On ch=2 n=c#5 v=80
98634 On ch=2 n=f5 v=80
98834 Off ch=2 n=f5 v=64
98834 Off ch=2 n=c#5 v=64
98834 Off ch=2 n=a#4 v=64
98834 Off ch=2 n=f4 v=64
98874 Par ch=2 c=64 v=0
98874 Par ch=2 c=64 v=127
98874 On ch=2 n=f2 v=80
98874 On ch=2 n=f3 v=80
99074 Off ch=2 n=f3 v=64
99074 Off ch=2 n=f2 v=64
99114 On ch=2 n=f4 v=80
99114 On ch=2 n=a#4 v=80
99314 Off ch=2 n=a#4 v=64
99314 Off ch=2 n=f4 v=64
99354 Par ch=2 c=64 v=0
99354 On ch=2 n=f4 v=80
99354 On ch=2 n=a4 v=80
99354 On ch=2 n=c5 v=80
99554 Off ch=2 n=c5 v=64
99554 Off ch=2 n=a4 v=64
99554 Off ch=2 n=f4 v=64
99594 On ch=2 n=f4 v=80
99794 Off ch=2 n=f4 v=64
99834 Par ch=2 c=64 v=127
99834 On ch=2 n=g3 v=80
99891 Off ch=2 n=g3 v=64
99894 On ch=2 n=g#3 v=80
99951 Off ch=2 n=g#3 v=64
99954 On ch=2 n=a#3 v=80
99981 Off ch=2 n=a#3 v=64
99984 On ch=2 n=g#3 v=80
100011 Off ch=2 n=g#3 v=64
100014 On ch=2 n=a#3 v=80
100041 Off ch=2 n=a#3 v=64
100044 On ch=2 n=g#3 v=80
100071 Off ch=2 n=g#3 v=64
100074 On ch=2 n=a#3 v=80
100101 Off ch=2 n=a#3 v=64
100104 On ch=2 n=g#3 v=80
100131 Off ch=2 n=g#3 v=64
100134 On ch=2 n=a#3 v=80
100161 Off ch=2 n=a#3 v=64
100164 On ch=2 n=g#3 v=80
100191 Off ch=2 n=g#3 v=64
100194 On ch=2 n=g3 v=80
100251 Off ch=2 n=g3 v=64
100254 On ch=2 n=g#3 v=80
100311 Off ch=2 n=g#3 v=64
100314 Par ch=2 c=64 v=0
100314 On ch=2 n=c#4 v=80
100514 Off ch=2 n=c#4 v=64
100554 On ch=2 n=c#4 v=80
100754 Off ch=2 n=c#4 v=64
100794 Par ch=2 c=64 v=127
100794 On ch=2 n=e3 v=80
100851 Off ch=2 n=e3 v=64
100854 On ch=2 n=f3 v=80
100911 Off ch=2 n=f3 v=64
100914 On ch=2 n=f#3 v=80
100941 Off ch=2 n=f#3 v=64
100944 On ch=2 n=f3 v=80
100971 Off ch=2 n=f3 v=64
100974 On ch=2 n=f#3 v=80
101001 Off ch=2 n=f#3 v=64
101004 On ch=2 n=f3 v=80
101031 Off ch=2 n=f3 v=64
101034 On ch=2 n=f#3 v=80
101061 Off ch=2 n=f#3 v=64
101064 On ch=2 n=f3 v=80
101091 Off ch=2 n=f3 v=64
101094 On ch=2 n=f#3 v=80
101121 Off ch=2 n=f#3 v=64
101124 On ch=2 n=f3 v=80
101151 Off ch=2 n=f3 v=64
101154 On ch=2 n=e3 v=80
101211 Off ch=2 n=e3 v=64
101214 On ch=2 n=f3 v=80
101271 Off ch=2 n=f3 v=64
101274 On ch=2 n=f#3 v=80
101474 Off ch=2 n=f#3 v=64
101514 Par ch=2 c=64 v=0
101514 On ch=2 n=f3 v=80
101631 Off ch=2 n=f3 v=64
101634 On ch=2 n=c#3 v=80
101751 Off ch=2 n=c#3 v=64
101754 Par ch=2 c=7 v=32
101754 On ch=2 n=a#2 v=32
101954 Off ch=2 n=a#2 v=64
101994 On ch=2 n=c#3 v=32
101994 On ch=2 n=f#3 v=32
101994 On ch=2 n=c#4 v=32
102194 Off ch=2 n=c#4 v=64
102194 Off ch=2 n=f#3 v=64
102194 Off ch=2 n=c#3 v=64
102234 On ch=2 n=a#2 v=32
102234 On ch=2 n=f3 v=32
102234 On ch=2 n=a#3 v=32
102434 Off ch=2 n=a#3 v=64
102434 Off ch=2 n=f3 v=64
102434 Off ch=2 n=a#2 v=64
102474 On ch=2 n=c#3 v=32
102474 On ch=2 n=f#3 v=32
102474 On ch=2 n=c#4 v=32
102674 Off ch=2 n=c#4 v=64
102674 Off ch=2 n=f#3 v=64
102674 Off ch=2 n=c#3 v=64
102714 On ch=2 n=a#2 v=32
102714 On ch=2 n=f3 v=32
102714 On ch=2 n=a#3 v=32
102714 On ch=2 n=f4 v=32
102914 Off ch=2 n=f4 v=64
102914 Off ch=2 n=a#3 v=64
102914 Off ch=2 n=f3 v=64
102914 Off ch=2 n=a#2 v=64
102954 On ch=2 n=c#3 v=32
102954 On ch=2 n=f#3 v=32
102954 On ch=2 n=c#4 v=32
103154 Off ch=2 n=c#4 v=64
103154 Off ch=2 n=f#3 v=64
103154 Off ch=2 n=c#3 v=64
103194 On ch=2 n=a#2 v=32
103194 On ch=2 n=f3 v=32
103614 Off ch=2 n=f3 v=64
103614 Off ch=2 n=a#2 v=64
103614 Meta TrkEnd
TrkEnd
