MFile 1 3 240
MTrk
0 TimeSig 4/4 24 8
0 Tempo 625000
0 Meta Marker "By Malcolm Dale"
0 Meta Marker "Chopin Sonata No.2 in B Flat minor, op.35"
0 Meta Marker "Generated by NoteWorthy Composer"
3840 Tempo 234375
230400 Tempo 750000
230400 Meta TrkEnd
TrkEnd
MTrk
0 Meta TrkName "Upper G.S."
0 PrCh ch=1 p=0
0 Par ch=1 c=7 v=71
0 Par ch=1 c=10 v=64
0 Par ch=1 c=7 v=94
1440 On ch=1 n=c#5 v=127
1440 On ch=1 n=g#4 v=127
1440 On ch=1 n=c#4 v=127
1860 Off ch=1 n=c#4 v=64
1860 Off ch=1 n=g#4 v=64
1860 Off ch=1 n=c#5 v=64
1920 On ch=1 n=c#4 v=94
1947 Off ch=1 n=c#4 v=64
1950 On ch=1 n=c#4 v=95
1980 On ch=1 n=d#4 v=96
2010 On ch=1 n=a4 v=97
2026 Par ch=1 c=7 v=95
2040 On ch=1 n=c#5 v=98
2132 Par ch=1 c=7 v=96
2240 Par ch=1 c=7 v=97
2346 Par ch=1 c=7 v=98
2452 Par ch=1 c=7 v=99
2560 Par ch=1 c=7 v=100
2666 Par ch=1 c=7 v=101
2772 Par ch=1 c=7 v=102
2820 Off ch=1 n=c#5 v=64
2820 Off ch=1 n=c#4 v=64
2880 Par ch=1 c=7 v=103
2880 On ch=1 n=c5 v=99
2880 On ch=1 n=c4 v=99
2986 Par ch=1 c=7 v=104
3092 Par ch=1 c=7 v=105
3200 Par ch=1 c=7 v=106
3306 Par ch=1 c=7 v=107
3412 Par ch=1 c=7 v=108
3520 Par ch=1 c=7 v=109
3626 Par ch=1 c=7 v=110
3732 Par ch=1 c=7 v=111
3780 Off ch=1 n=c4 v=64
3780 Off ch=1 n=c5 v=64
3780 Off ch=1 n=d#4 v=64
3840 Par ch=1 c=7 v=112
3840 Par ch=1 c=7 v=30
3870 Par ch=1 c=7 v=31
3900 Par ch=1 c=7 v=32
3930 Par ch=1 c=7 v=33
3960 Par ch=1 c=7 v=34
3960 On ch=1 n=f4 v=31
3990 Par ch=1 c=7 v=35
4020 Par ch=1 c=7 v=36
4050 Par ch=1 c=7 v=37
4080 Off ch=1 n=f4 v=64
4080 Par ch=1 c=7 v=38
4080 On ch=1 n=c#5 v=32
4080 On ch=1 n=a#4 v=32
4080 On ch=1 n=c#4 v=32
4110 Par ch=1 c=7 v=39
4140 Par ch=1 c=7 v=40
4170 Par ch=1 c=7 v=41
4197 Off ch=1 n=c#4 v=64
4197 Off ch=1 n=a#4 v=64
4197 Off ch=1 n=c#5 v=64
4200 Par ch=1 c=7 v=42
4230 Par ch=1 c=7 v=43
4260 Par ch=1 c=7 v=44
4290 Par ch=1 c=7 v=45
4320 Par ch=1 c=7 v=46
4350 Par ch=1 c=7 v=47
4380 Par ch=1 c=7 v=48
4410 Par ch=1 c=7 v=49
4440 Par ch=1 c=7 v=50
4440 On ch=1 n=f4 v=35
4470 Par ch=1 c=7 v=51
4500 Par ch=1 c=7 v=52
4530 Par ch=1 c=7 v=53
4560 Off ch=1 n=f4 v=64
4560 Par ch=1 c=7 v=54
4560 On ch=1 n=c#5 v=36
4560 On ch=1 n=a#4 v=36
4560 On ch=1 n=c#4 v=36
4590 Par ch=1 c=7 v=55
4620 Par ch=1 c=7 v=56
4650 Par ch=1 c=7 v=57
4677 Off ch=1 n=c#4 v=64
4677 Off ch=1 n=a#4 v=64
4677 Off ch=1 n=c#5 v=64
4680 Par ch=1 c=7 v=58
4710 Par ch=1 c=7 v=59
4740 Par ch=1 c=7 v=60
4770 Par ch=1 c=7 v=61
4800 Par ch=1 c=7 v=62
4830 Par ch=1 c=7 v=63
4860 Par ch=1 c=7 v=64
4890 Par ch=1 c=7 v=65
4920 Par ch=1 c=7 v=66
4920 On ch=1 n=f4 v=39
4950 Par ch=1 c=7 v=67
4980 Par ch=1 c=7 v=68
5010 Par ch=1 c=7 v=69
5040 Off ch=1 n=f4 v=64
5040 Par ch=1 c=7 v=70
5040 On ch=1 n=c#5 v=40
5040 On ch=1 n=a#4 v=40
5040 On ch=1 n=c#4 v=40
5070 Par ch=1 c=7 v=71
5100 Par ch=1 c=7 v=72
5130 Par ch=1 c=7 v=73
5157 Off ch=1 n=c#4 v=64
5157 Off ch=1 n=a#4 v=64
5157 Off ch=1 n=c#5 v=64
5160 Par ch=1 c=7 v=74
5190 Par ch=1 c=7 v=75
5220 Par ch=1 c=7 v=76
5250 Par ch=1 c=7 v=77
5280 Par ch=1 c=7 v=78
5310 Par ch=1 c=7 v=79
5340 Par ch=1 c=7 v=80
5370 Par ch=1 c=7 v=81
5400 Par ch=1 c=7 v=82
5400 On ch=1 n=f4 v=43
5430 Par ch=1 c=7 v=83
5460 Par ch=1 c=7 v=84
5490 Par ch=1 c=7 v=85
5520 Off ch=1 n=f4 v=64
5520 Par ch=1 c=7 v=86
5520 On ch=1 n=c#5 v=44
5520 On ch=1 n=a#4 v=44
5520 On ch=1 n=c#4 v=44
5550 Par ch=1 c=7 v=87
5580 Par ch=1 c=7 v=88
5610 Par ch=1 c=7 v=89
5637 Off ch=1 n=c#4 v=64
5637 Off ch=1 n=a#4 v=64
5637 Off ch=1 n=c#5 v=64
5640 Par ch=1 c=7 v=90
5670 Par ch=1 c=7 v=91
5700 Par ch=1 c=7 v=92
5730 Par ch=1 c=7 v=93
5760 Par ch=1 c=7 v=94
5801 Par ch=1 c=7 v=93
5842 Par ch=1 c=7 v=92
5880 On ch=1 n=f4 v=93
5885 Par ch=1 c=7 v=91
5926 Par ch=1 c=7 v=90
5967 Par ch=1 c=7 v=89
6000 Off ch=1 n=f4 v=64
6000 On ch=1 n=c#5 v=92
6000 On ch=1 n=a#4 v=92
6000 On ch=1 n=c#4 v=92
6010 Par ch=1 c=7 v=88
6051 Par ch=1 c=7 v=87
6093 Par ch=1 c=7 v=86
6117 Off ch=1 n=c#4 v=64
6117 Off ch=1 n=a#4 v=64
6117 Off ch=1 n=c#5 v=64
6135 Par ch=1 c=7 v=85
6176 Par ch=1 c=7 v=84
6218 Par ch=1 c=7 v=83
6260 Par ch=1 c=7 v=82
6302 Par ch=1 c=7 v=81
6343 Par ch=1 c=7 v=80
6360 On ch=1 n=f4 v=90
6385 Par ch=1 c=7 v=79
6427 Par ch=1 c=7 v=78
6468 Par ch=1 c=7 v=77
6480 Off ch=1 n=f4 v=64
6480 On ch=1 n=c#5 v=89
6480 On ch=1 n=a#4 v=89
6480 On ch=1 n=c#4 v=89
6511 Par ch=1 c=7 v=76
6552 Par ch=1 c=7 v=75
6593 Par ch=1 c=7 v=74
6597 Off ch=1 n=c#4 v=64
6597 Off ch=1 n=a#4 v=64
6597 Off ch=1 n=c#5 v=64
6636 Par ch=1 c=7 v=73
6677 Par ch=1 c=7 v=72
6718 Par ch=1 c=7 v=71
6761 Par ch=1 c=7 v=70
6802 Par ch=1 c=7 v=69
6840 On ch=1 n=f4 v=86
6845 Par ch=1 c=7 v=68
6886 Par ch=1 c=7 v=67
6927 Par ch=1 c=7 v=66
6960 Off ch=1 n=f4 v=64
6960 On ch=1 n=c#5 v=85
6960 On ch=1 n=a#4 v=85
6960 On ch=1 n=c#4 v=85
6970 Par ch=1 c=7 v=65
7011 Par ch=1 c=7 v=64
7053 Par ch=1 c=7 v=63
7077 Off ch=1 n=c#4 v=64
7077 Off ch=1 n=a#4 v=64
7077 Off ch=1 n=c#5 v=64
7095 Par ch=1 c=7 v=62
7136 Par ch=1 c=7 v=61
7178 Par ch=1 c=7 v=60
7220 Par ch=1 c=7 v=59
7262 Par ch=1 c=7 v=58
7303 Par ch=1 c=7 v=57
7320 On ch=1 n=f4 v=83
7345 Par ch=1 c=7 v=56
7387 Par ch=1 c=7 v=55
7428 Par ch=1 c=7 v=54
7440 Off ch=1 n=f4 v=64
7440 On ch=1 n=c#5 v=82
7440 On ch=1 n=a#4 v=82
7440 On ch=1 n=c#4 v=82
7471 Par ch=1 c=7 v=53
7512 Par ch=1 c=7 v=52
7553 Par ch=1 c=7 v=51
7557 Off ch=1 n=c#4 v=64
7557 Off ch=1 n=a#4 v=64
7557 Off ch=1 n=c#5 v=64
7560 On ch=1 n=f4 v=81
7596 Par ch=1 c=7 v=50
7637 Par ch=1 c=7 v=49
7677 Off ch=1 n=f4 v=64
7678 Par ch=1 c=7 v=48
7680 Par ch=1 c=7 v=48
7680 On ch=1 n=c#6 v=48
7800 Off ch=1 n=c#6 v=64
7800 On ch=1 n=a#5 v=48
7917 Off ch=1 n=a#5 v=64
8040 On ch=1 n=c6 v=48
8160 Off ch=1 n=c6 v=64
8160 On ch=1 n=c#6 v=48
8280 Off ch=1 n=c#6 v=64
8280 On ch=1 n=a#5 v=48
8397 Off ch=1 n=a#5 v=64
8640 On ch=1 n=c#6 v=48
8760 Off ch=1 n=c#6 v=64
8760 On ch=1 n=a#5 v=48
8877 Off ch=1 n=a#5 v=64
9000 On ch=1 n=c6 v=48
9120 Off ch=1 n=c6 v=64
9120 On ch=1 n=c#6 v=48
9240 Off ch=1 n=c#6 v=64
9240 On ch=1 n=a#5 v=48
9357 Off ch=1 n=a#5 v=64
9600 On ch=1 n=c#6 v=48
9633 Par ch=1 c=7 v=49
9667 Par ch=1 c=7 v=50
9702 Par ch=1 c=7 v=51
9720 Off ch=1 n=c#6 v=64
9720 On ch=1 n=a#5 v=49
9736 Par ch=1 c=7 v=52
9771 Par ch=1 c=7 v=53
9805 Par ch=1 c=7 v=54
9837 Off ch=1 n=a#5 v=64
9840 Par ch=1 c=7 v=55
9873 Par ch=1 c=7 v=56
9907 Par ch=1 c=7 v=57
9942 Par ch=1 c=7 v=58
9960 On ch=1 n=c6 v=51
9976 Par ch=1 c=7 v=59
10011 Par ch=1 c=7 v=60
10045 Par ch=1 c=7 v=61
10080 Off ch=1 n=c6 v=64
10080 Par ch=1 c=7 v=62
10080 On ch=1 n=c#6 v=52
10113 Par ch=1 c=7 v=63
10147 Par ch=1 c=7 v=64
10182 Par ch=1 c=7 v=65
10200 Off ch=1 n=c#6 v=64
10200 On ch=1 n=a#6 v=53
10216 Par ch=1 c=7 v=66
10251 Par ch=1 c=7 v=67
10285 Par ch=1 c=7 v=68
10317 Off ch=1 n=a#6 v=64
10320 Par ch=1 c=7 v=69
10353 Par ch=1 c=7 v=70
10387 Par ch=1 c=7 v=71
10422 Par ch=1 c=7 v=72
10456 Par ch=1 c=7 v=73
10491 Par ch=1 c=7 v=74
10525 Par ch=1 c=7 v=75
10560 Par ch=1 c=7 v=76
10560 On ch=1 n=a6 v=76
10593 Par ch=1 c=7 v=75
10627 Par ch=1 c=7 v=74
10662 Par ch=1 c=7 v=73
10680 Off ch=1 n=a6 v=64
10680 On ch=1 n=c6 v=75
10696 Par ch=1 c=7 v=72
10731 Par ch=1 c=7 v=71
10765 Par ch=1 c=7 v=70
10797 Off ch=1 n=c6 v=64
10800 Par ch=1 c=7 v=69
10833 Par ch=1 c=7 v=68
10867 Par ch=1 c=7 v=67
10902 Par ch=1 c=7 v=66
10920 On ch=1 n=c#6 v=73
10936 Par ch=1 c=7 v=65
10971 Par ch=1 c=7 v=64
11005 Par ch=1 c=7 v=63
11040 Off ch=1 n=c#6 v=64
11040 Par ch=1 c=7 v=62
11040 On ch=1 n=d#6 v=72
11073 Par ch=1 c=7 v=61
11107 Par ch=1 c=7 v=60
11142 Par ch=1 c=7 v=59
11160 Off ch=1 n=d#6 v=64
11160 On ch=1 n=c6 v=71
11176 Par ch=1 c=7 v=58
11211 Par ch=1 c=7 v=57
11245 Par ch=1 c=7 v=56
11277 Off ch=1 n=c6 v=64
11280 Par ch=1 c=7 v=55
11313 Par ch=1 c=7 v=54
11347 Par ch=1 c=7 v=53
11382 Par ch=1 c=7 v=52
11416 Par ch=1 c=7 v=51
11451 Par ch=1 c=7 v=50
11485 Par ch=1 c=7 v=49
11520 Par ch=1 c=7 v=48
11520 On ch=1 n=f#6 v=48
11640 Off ch=1 n=f#6 v=64
11640 On ch=1 n=c6 v=48
11757 Off ch=1 n=c6 v=64
11880 On ch=1 n=c#6 v=48
12000 Off ch=1 n=c#6 v=64
12000 On ch=1 n=d#6 v=48
12120 Off ch=1 n=d#6 v=64
12120 On ch=1 n=c6 v=48
12237 Off ch=1 n=c6 v=64
12480 On ch=1 n=f#6 v=48
12547 Par ch=1 c=7 v=49
12600 Off ch=1 n=f#6 v=64
12600 On ch=1 n=c6 v=49
12616 Par ch=1 c=7 v=50
12685 Par ch=1 c=7 v=51
12717 Off ch=1 n=c6 v=64
12753 Par ch=1 c=7 v=52
12822 Par ch=1 c=7 v=53
12840 On ch=1 n=c#6 v=51
12891 Par ch=1 c=7 v=54
12960 Off ch=1 n=c#6 v=64
12960 Par ch=1 c=7 v=55
12960 On ch=1 n=d#6 v=52
13027 Par ch=1 c=7 v=56
13080 Off ch=1 n=d#6 v=64
13080 On ch=1 n=c6 v=53
13096 Par ch=1 c=7 v=57
13165 Par ch=1 c=7 v=58
13197 Off ch=1 n=c6 v=64
13233 Par ch=1 c=7 v=59
13302 Par ch=1 c=7 v=60
13371 Par ch=1 c=7 v=61
13440 Par ch=1 c=7 v=62
13440 On ch=1 n=f#6 v=55
13507 Par ch=1 c=7 v=63
13560 Off ch=1 n=f#6 v=64
13560 On ch=1 n=c6 v=56
13576 Par ch=1 c=7 v=64
13645 Par ch=1 c=7 v=65
13677 Off ch=1 n=c6 v=64
13713 Par ch=1 c=7 v=66
13782 Par ch=1 c=7 v=67
13800 On ch=1 n=c#6 v=58
13851 Par ch=1 c=7 v=68
13920 Off ch=1 n=c#6 v=64
13920 Par ch=1 c=7 v=69
13920 On ch=1 n=d#6 v=59
13987 Par ch=1 c=7 v=70
14040 Off ch=1 n=d#6 v=64
14040 On ch=1 n=c7 v=60
14056 Par ch=1 c=7 v=71
14125 Par ch=1 c=7 v=72
14157 Off ch=1 n=c7 v=64
14193 Par ch=1 c=7 v=73
14262 Par ch=1 c=7 v=74
14331 Par ch=1 c=7 v=75
14400 Par ch=1 c=7 v=76
14400 On ch=1 n=c7 v=76
14433 Par ch=1 c=7 v=75
14467 Par ch=1 c=7 v=74
14502 Par ch=1 c=7 v=73
14520 Off ch=1 n=c7 v=64
14520 On ch=1 n=c#6 v=75
14536 Par ch=1 c=7 v=72
14571 Par ch=1 c=7 v=71
14605 Par ch=1 c=7 v=70
14637 Off ch=1 n=c#6 v=64
14640 Par ch=1 c=7 v=69
14673 Par ch=1 c=7 v=68
14707 Par ch=1 c=7 v=67
14742 Par ch=1 c=7 v=66
14760 On ch=1 n=d#6 v=73
14776 Par ch=1 c=7 v=65
14811 Par ch=1 c=7 v=64
14845 Par ch=1 c=7 v=63
14880 Off ch=1 n=d#6 v=64
14880 Par ch=1 c=7 v=62
14880 On ch=1 n=a#6 v=72
14880 On ch=1 n=f6 v=72
14913 Par ch=1 c=7 v=61
14947 Par ch=1 c=7 v=60
14982 Par ch=1 c=7 v=59
15000 Off ch=1 n=f6 v=64
15000 Off ch=1 n=a#6 v=64
15000 On ch=1 n=c#6 v=71
15016 Par ch=1 c=7 v=58
15051 Par ch=1 c=7 v=57
15085 Par ch=1 c=7 v=56
15117 Off ch=1 n=c#6 v=64
15120 Par ch=1 c=7 v=55
15153 Par ch=1 c=7 v=54
15187 Par ch=1 c=7 v=53
15222 Par ch=1 c=7 v=52
15256 Par ch=1 c=7 v=51
15291 Par ch=1 c=7 v=50
15325 Par ch=1 c=7 v=49
15360 Par ch=1 c=7 v=48
15360 Par ch=1 c=7 v=94
15360 On ch=1 n=c#7 v=94
15360 On ch=1 n=c#6 v=94
15480 Off ch=1 n=c#6 v=64
15480 Off ch=1 n=c#7 v=64
15480 On ch=1 n=c7 v=94
15480 On ch=1 n=g6 v=94
15597 Off ch=1 n=g6 v=64
15597 Off ch=1 n=c7 v=64
15720 On ch=1 n=a#6 v=94
15720 On ch=1 n=c#6 v=94
15752 Par ch=1 c=7 v=95
15786 Par ch=1 c=7 v=96
15818 Par ch=1 c=7 v=97
15840 Off ch=1 n=c#6 v=64
15840 Off ch=1 n=a#6 v=64
15840 On ch=1 n=a6 v=95
15840 On ch=1 n=f6 v=95
15852 Par ch=1 c=7 v=98
15886 Par ch=1 c=7 v=99
15918 Par ch=1 c=7 v=100
15952 Par ch=1 c=7 v=101
15960 Off ch=1 n=f6 v=64
15960 Off ch=1 n=a6 v=64
15960 On ch=1 n=c7 v=96
15960 On ch=1 n=c6 v=96
15986 Par ch=1 c=7 v=102
16018 Par ch=1 c=7 v=103
16052 Par ch=1 c=7 v=104
16077 Off ch=1 n=c6 v=64
16077 Off ch=1 n=c7 v=64
16086 Par ch=1 c=7 v=105
16118 Par ch=1 c=7 v=106
16152 Par ch=1 c=7 v=107
16186 Par ch=1 c=7 v=108
16218 Par ch=1 c=7 v=109
16252 Par ch=1 c=7 v=110
16286 Par ch=1 c=7 v=111
16318 Par ch=1 c=7 v=112
16320 Par ch=1 c=7 v=112
16320 Par ch=1 c=7 v=30
16320 On ch=1 n=f#6 v=30
16320 On ch=1 n=f#5 v=30
16440 Off ch=1 n=f#5 v=64
16440 Off ch=1 n=f#6 v=64
16440 On ch=1 n=f6 v=30
16440 On ch=1 n=c6 v=30
16557 Off ch=1 n=c6 v=64
16557 Off ch=1 n=f6 v=64
16680 On ch=1 n=d#6 v=30
16680 On ch=1 n=f#5 v=30
16688 Par ch=1 c=7 v=31
16698 Par ch=1 c=7 v=32
16707 Par ch=1 c=7 v=33
16717 Par ch=1 c=7 v=34
16726 Par ch=1 c=7 v=35
16736 Par ch=1 c=7 v=36
16745 Par ch=1 c=7 v=37
16755 Par ch=1 c=7 v=38
16763 Par ch=1 c=7 v=39
16773 Par ch=1 c=7 v=40
16782 Par ch=1 c=7 v=41
16792 Par ch=1 c=7 v=42
16800 Off ch=1 n=f#5 v=64
16800 Off ch=1 n=d#6 v=64
16800 On ch=1 n=c#6 v=35
16800 On ch=1 n=a#5 v=35
16801 Par ch=1 c=7 v=43
16811 Par ch=1 c=7 v=44
16820 Par ch=1 c=7 v=45
16830 Par ch=1 c=7 v=46
16838 Par ch=1 c=7 v=47
16848 Par ch=1 c=7 v=48
16857 Par ch=1 c=7 v=49
16867 Par ch=1 c=7 v=50
16876 Par ch=1 c=7 v=51
16886 Par ch=1 c=7 v=52
16895 Par ch=1 c=7 v=53
16905 Par ch=1 c=7 v=54
16913 Par ch=1 c=7 v=55
16920 Off ch=1 n=a#5 v=64
16920 Off ch=1 n=c#6 v=64
16920 On ch=1 n=f6 v=40
16920 On ch=1 n=f5 v=40
16923 Par ch=1 c=7 v=56
16932 Par ch=1 c=7 v=57
16942 Par ch=1 c=7 v=58
16951 Par ch=1 c=7 v=59
16961 Par ch=1 c=7 v=60
16970 Par ch=1 c=7 v=61
16980 Par ch=1 c=7 v=62
16988 Par ch=1 c=7 v=63
16998 Par ch=1 c=7 v=64
17007 Par ch=1 c=7 v=65
17017 Par ch=1 c=7 v=66
17026 Par ch=1 c=7 v=67
17036 Par ch=1 c=7 v=68
17037 Off ch=1 n=f5 v=64
17037 Off ch=1 n=f6 v=64
17045 Par ch=1 c=7 v=69
17055 Par ch=1 c=7 v=70
17063 Par ch=1 c=7 v=71
17073 Par ch=1 c=7 v=72
17082 Par ch=1 c=7 v=73
17092 Par ch=1 c=7 v=74
17101 Par ch=1 c=7 v=75
17111 Par ch=1 c=7 v=76
17120 Par ch=1 c=7 v=77
17130 Par ch=1 c=7 v=78
17138 Par ch=1 c=7 v=79
17148 Par ch=1 c=7 v=80
17157 Par ch=1 c=7 v=81
17167 Par ch=1 c=7 v=82
17176 Par ch=1 c=7 v=83
17186 Par ch=1 c=7 v=84
17195 Par ch=1 c=7 v=85
17205 Par ch=1 c=7 v=86
17213 Par ch=1 c=7 v=87
17223 Par ch=1 c=7 v=88
17232 Par ch=1 c=7 v=89
17242 Par ch=1 c=7 v=90
17251 Par ch=1 c=7 v=91
17261 Par ch=1 c=7 v=92
17270 Par ch=1 c=7 v=93
17280 Par ch=1 c=7 v=94
17280 On ch=1 n=c#7 v=94
17280 On ch=1 n=c#6 v=94
17400 Off ch=1 n=c#6 v=64
17400 Off ch=1 n=c#7 v=64
17400 On ch=1 n=c7 v=94
17400 On ch=1 n=g6 v=94
17517 Off ch=1 n=g6 v=64
17517 Off ch=1 n=c7 v=64
17640 On ch=1 n=a#6 v=94
17640 On ch=1 n=c#6 v=94
17760 Off ch=1 n=c#6 v=64
17760 Off ch=1 n=a#6 v=64
17760 On ch=1 n=a6 v=94
17760 On ch=1 n=f6 v=94
17880 Off ch=1 n=f6 v=64
17880 Off ch=1 n=a6 v=64
17880 On ch=1 n=c7 v=94
17880 On ch=1 n=c6 v=94
17997 Off ch=1 n=c6 v=64
17997 Off ch=1 n=c7 v=64
18240 Par ch=1 c=7 v=30
18240 On ch=1 n=f#6 v=30
18240 On ch=1 n=f#5 v=30
18360 Off ch=1 n=f#5 v=64
18360 Off ch=1 n=f#6 v=64
18360 On ch=1 n=f6 v=30
18360 On ch=1 n=c6 v=30
18477 Off ch=1 n=c6 v=64
18477 Off ch=1 n=f6 v=64
18600 On ch=1 n=d#6 v=30
18600 On ch=1 n=f#5 v=30
18720 Off ch=1 n=f#5 v=64
18720 Off ch=1 n=d#6 v=64
18720 On ch=1 n=d6 v=30
18720 On ch=1 n=a#5 v=30
18840 Off ch=1 n=a#5 v=64
18840 Off ch=1 n=d6 v=64
18840 On ch=1 n=f6 v=30
18840 On ch=1 n=c#6 v=30
18840 On ch=1 n=f5 v=30
18957 Off ch=1 n=f5 v=64
18957 Off ch=1 n=c#6 v=64
18957 Off ch=1 n=f6 v=64
19200 Par ch=1 c=7 v=94
19200 On ch=1 n=f7 v=94
19200 On ch=1 n=a#6 v=94
19200 On ch=1 n=f6 v=94
19280 Par ch=1 c=7 v=93
19320 Off ch=1 n=f6 v=64
19320 Off ch=1 n=a#6 v=64
19320 Off ch=1 n=f7 v=64
19320 On ch=1 n=e7 v=93
19320 On ch=1 n=e6 v=93
19360 Par ch=1 c=7 v=92
19437 Off ch=1 n=e6 v=64
19437 Off ch=1 n=e7 v=64
19440 Par ch=1 c=7 v=91
19520 Par ch=1 c=7 v=90
19560 On ch=1 n=d7 v=91
19560 On ch=1 n=d6 v=91
19600 Par ch=1 c=7 v=89
19680 Off ch=1 n=d6 v=64
19680 Off ch=1 n=d7 v=64
19680 Par ch=1 c=7 v=88
19680 On ch=1 n=c7 v=90
19680 On ch=1 n=e6 v=90
19680 On ch=1 n=c6 v=90
19760 Par ch=1 c=7 v=87
19800 Off ch=1 n=c6 v=64
19800 Off ch=1 n=e6 v=64
19800 Off ch=1 n=c7 v=64
19800 On ch=1 n=a#6 v=89
19800 On ch=1 n=a#5 v=89
19840 Par ch=1 c=7 v=86
19917 Off ch=1 n=a#5 v=64
19917 Off ch=1 n=a#6 v=64
19920 Par ch=1 c=7 v=85
20000 Par ch=1 c=7 v=84
20080 Par ch=1 c=7 v=83
20160 Par ch=1 c=7 v=82
20160 On ch=1 n=a#6 v=87
20160 On ch=1 n=a#5 v=87
20240 Par ch=1 c=7 v=81
20280 Off ch=1 n=a#5 v=64
20280 Off ch=1 n=a#6 v=64
20280 On ch=1 n=g#6 v=86
20280 On ch=1 n=e6 v=86
20320 Par ch=1 c=7 v=80
20397 Off ch=1 n=e6 v=64
20397 Off ch=1 n=g#6 v=64
20400 Par ch=1 c=7 v=79
20480 Par ch=1 c=7 v=78
20520 On ch=1 n=g6 v=84
20520 On ch=1 n=g5 v=84
20560 Par ch=1 c=7 v=77
20637 Off ch=1 n=g5 v=64
20637 Off ch=1 n=g6 v=64
20640 Par ch=1 c=7 v=76
20640 On ch=1 n=f#6 v=76
20640 On ch=1 n=d#6 v=76
20760 Off ch=1 n=d#6 v=64
20760 Off ch=1 n=f#6 v=64
20760 On ch=1 n=c6 v=76
20760 On ch=1 n=f#5 v=76
20877 Off ch=1 n=f#5 v=64
20877 Off ch=1 n=c6 v=64
21120 On ch=1 n=g#6 v=76
21120 On ch=1 n=g#5 v=76
21240 Off ch=1 n=g#5 v=64
21240 Off ch=1 n=g#6 v=64
21240 On ch=1 n=g6 v=76
21240 On ch=1 n=d6 v=76
21357 Off ch=1 n=d6 v=64
21357 Off ch=1 n=g6 v=64
21480 On ch=1 n=f6 v=76
21480 On ch=1 n=f5 v=76
21600 Off ch=1 n=f5 v=64
21600 Off ch=1 n=f6 v=64
21600 On ch=1 n=d#6 v=76
21600 On ch=1 n=c6 v=76
21720 Off ch=1 n=c6 v=64
21720 Off ch=1 n=d#6 v=64
21720 On ch=1 n=g5 v=76
21720 On ch=1 n=d#5 v=76
21837 Off ch=1 n=d#5 v=64
21837 Off ch=1 n=g5 v=64
22080 On ch=1 n=d#6 v=76
22080 On ch=1 n=c6 v=76
22200 Off ch=1 n=c6 v=64
22200 Off ch=1 n=d#6 v=64
22200 On ch=1 n=f#5 v=76
22200 On ch=1 n=d#5 v=76
22317 Off ch=1 n=d#5 v=64
22317 Off ch=1 n=f#5 v=64
22560 On ch=1 n=d#6 v=76
22560 On ch=1 n=c6 v=76
22680 Off ch=1 n=c6 v=64
22680 Off ch=1 n=d#6 v=64
22680 On ch=1 n=f5 v=76
22680 On ch=1 n=d#5 v=76
22797 Off ch=1 n=d#5 v=64
22797 Off ch=1 n=f5 v=64
23040 Par ch=1 c=7 v=94
23040 On ch=1 n=c#6 v=94
23160 Off ch=1 n=c#6 v=64
23160 On ch=1 n=a#5 v=127
23160 On ch=1 n=f5 v=127
23160 On ch=1 n=c#5 v=127
23277 Off ch=1 n=c#5 v=64
23277 Off ch=1 n=f5 v=64
23277 Off ch=1 n=a#5 v=64
23400 On ch=1 n=c6 v=94
23520 Off ch=1 n=c6 v=64
23520 On ch=1 n=c#6 v=94
23640 Off ch=1 n=c#6 v=64
23640 On ch=1 n=a#5 v=127
23640 On ch=1 n=f5 v=127
23640 On ch=1 n=c#5 v=127
23757 Off ch=1 n=c#5 v=64
23757 Off ch=1 n=f5 v=64
23757 Off ch=1 n=a#5 v=64
24000 On ch=1 n=c#6 v=94
24120 Off ch=1 n=c#6 v=64
24120 On ch=1 n=a#5 v=127
24120 On ch=1 n=f5 v=127
24120 On ch=1 n=c#5 v=127
24237 Off ch=1 n=c#5 v=64
24237 Off ch=1 n=f5 v=64
24237 Off ch=1 n=a#5 v=64
24360 On ch=1 n=c6 v=94
24480 Off ch=1 n=c6 v=64
24480 On ch=1 n=c#6 v=94
24600 Off ch=1 n=c#6 v=64
24600 On ch=1 n=a#5 v=127
24600 On ch=1 n=f5 v=127
24600 On ch=1 n=c#5 v=127
24717 Off ch=1 n=c#5 v=64
24717 Off ch=1 n=f5 v=64
24717 Off ch=1 n=a#5 v=64
24960 On ch=1 n=c#6 v=94
25080 Off ch=1 n=c#6 v=64
25080 On ch=1 n=a#5 v=127
25080 On ch=1 n=f5 v=127
25080 On ch=1 n=c#5 v=127
25197 Off ch=1 n=c#5 v=64
25197 Off ch=1 n=f5 v=64
25197 Off ch=1 n=a#5 v=64
25320 On ch=1 n=c6 v=94
25352 Par ch=1 c=7 v=95
25386 Par ch=1 c=7 v=96
25418 Par ch=1 c=7 v=97
25440 Off ch=1 n=c6 v=64
25440 On ch=1 n=c#6 v=95
25452 Par ch=1 c=7 v=98
25486 Par ch=1 c=7 v=99
25518 Par ch=1 c=7 v=100
25552 Par ch=1 c=7 v=101
25560 Off ch=1 n=c#6 v=64
25560 On ch=1 n=a#6 v=96
25560 On ch=1 n=f6 v=96
25560 On ch=1 n=a#5 v=96
25586 Par ch=1 c=7 v=102
25618 Par ch=1 c=7 v=103
25652 Par ch=1 c=7 v=104
25677 Off ch=1 n=a#5 v=64
25677 Off ch=1 n=f6 v=64
25677 Off ch=1 n=a#6 v=64
25686 Par ch=1 c=7 v=105
25718 Par ch=1 c=7 v=106
25752 Par ch=1 c=7 v=107
25786 Par ch=1 c=7 v=108
25818 Par ch=1 c=7 v=109
25852 Par ch=1 c=7 v=110
25886 Par ch=1 c=7 v=111
25918 Par ch=1 c=7 v=112
25920 Par ch=1 c=7 v=112
25920 On ch=1 n=a6 v=112
26040 Off ch=1 n=a6 v=64
26040 On ch=1 n=c6 v=127
26040 On ch=1 n=a5 v=127
26157 Off ch=1 n=a5 v=64
26157 Off ch=1 n=c6 v=64
26280 On ch=1 n=c#6 v=112
26400 Off ch=1 n=c#6 v=64
26400 On ch=1 n=d#6 v=112
26520 Off ch=1 n=d#6 v=64
26520 On ch=1 n=c6 v=127
26520 On ch=1 n=a5 v=127
26520 On ch=1 n=f#5 v=127
26637 Off ch=1 n=f#5 v=64
26637 Off ch=1 n=a5 v=64
26637 Off ch=1 n=c6 v=64
26880 On ch=1 n=f#6 v=112
27000 Off ch=1 n=f#6 v=64
27000 On ch=1 n=c6 v=127
27000 On ch=1 n=a5 v=127
27000 On ch=1 n=f#5 v=127
27117 Off ch=1 n=f#5 v=64
27117 Off ch=1 n=a5 v=64
27117 Off ch=1 n=c6 v=64
27240 On ch=1 n=c#6 v=112
27360 Off ch=1 n=c#6 v=64
27360 On ch=1 n=d#6 v=112
27480 Off ch=1 n=d#6 v=64
27480 On ch=1 n=c6 v=127
27480 On ch=1 n=a5 v=127
27480 On ch=1 n=f#5 v=127
27597 Off ch=1 n=f#5 v=64
27597 Off ch=1 n=a5 v=64
27597 Off ch=1 n=c6 v=64
27840 On ch=1 n=f#6 v=112
27960 Off ch=1 n=f#6 v=64
27960 On ch=1 n=c6 v=127
27960 On ch=1 n=a5 v=127
27960 On ch=1 n=f#5 v=127
28077 Off ch=1 n=f#5 v=64
28077 Off ch=1 n=a5 v=64
28077 Off ch=1 n=c6 v=64
28200 On ch=1 n=c#6 v=112
28320 Off ch=1 n=c#6 v=64
28320 On ch=1 n=d#6 v=112
28440 Off ch=1 n=d#6 v=64
28440 On ch=1 n=c6 v=127
28440 On ch=1 n=a5 v=127
28440 On ch=1 n=f#5 v=127
28557 Off ch=1 n=f#5 v=64
28557 Off ch=1 n=a5 v=64
28557 Off ch=1 n=c6 v=64
28800 On ch=1 n=f#6 v=112
28920 Off ch=1 n=f#6 v=64
28920 On ch=1 n=c6 v=127
28920 On ch=1 n=a5 v=127
28920 On ch=1 n=f#5 v=127
29037 Off ch=1 n=f#5 v=64
29037 Off ch=1 n=a5 v=64
29037 Off ch=1 n=c6 v=64
29160 On ch=1 n=c#6 v=112
29280 Off ch=1 n=c#6 v=64
29280 On ch=1 n=d#6 v=112
29400 Off ch=1 n=d#6 v=64
29400 On ch=1 n=c7 v=127
29400 On ch=1 n=f#6 v=127
29400 On ch=1 n=c6 v=127
29517 Off ch=1 n=c6 v=64
29517 Off ch=1 n=f#6 v=64
29517 Off ch=1 n=c7 v=64
29760 On ch=1 n=c7 v=112
29880 Off ch=1 n=c7 v=64
29880 On ch=1 n=c#6 v=127
29880 On ch=1 n=c6 v=127
29997 Off ch=1 n=c6 v=64
29997 Off ch=1 n=c#6 v=64
30120 On ch=1 n=d#6 v=112
30240 Off ch=1 n=d#6 v=64
30240 On ch=1 n=f6 v=112
30360 Off ch=1 n=f6 v=64
30360 On ch=1 n=a#6 v=127
30360 On ch=1 n=c#6 v=127
30360 On ch=1 n=a#5 v=127
30477 Off ch=1 n=a#5 v=64
30477 Off ch=1 n=c#6 v=64
30477 Off ch=1 n=a#6 v=64
30720 On ch=1 n=c#7 v=112
30840 Off ch=1 n=c#7 v=64
30840 On ch=1 n=c7 v=112
30840 On ch=1 n=g6 v=112
30840 On ch=1 n=c#6 v=112
30957 Off ch=1 n=c#6 v=64
30957 Off ch=1 n=g6 v=64
30957 Off ch=1 n=c7 v=64
31080 On ch=1 n=a#6 v=112
31200 Off ch=1 n=a#6 v=64
31200 On ch=1 n=a6 v=112
31320 Off ch=1 n=a6 v=64
31320 On ch=1 n=c7 v=127
31320 On ch=1 n=f6 v=127
31320 On ch=1 n=c6 v=127
31437 Off ch=1 n=c6 v=64
31437 Off ch=1 n=f6 v=64
31437 Off ch=1 n=c7 v=64
31680 On ch=1 n=f#6 v=112
31800 Off ch=1 n=f#6 v=64
31800 On ch=1 n=f6 v=127
31800 On ch=1 n=c6 v=127
31800 On ch=1 n=f#5 v=127
31917 Off ch=1 n=f#5 v=64
31917 Off ch=1 n=c6 v=64
31917 Off ch=1 n=f6 v=64
32040 On ch=1 n=d#6 v=112
32160 Off ch=1 n=d#6 v=64
32160 On ch=1 n=d6 v=112
32280 Off ch=1 n=d6 v=64
32280 On ch=1 n=f6 v=127
32280 On ch=1 n=c#6 v=127
32280 On ch=1 n=a#5 v=127
32280 On ch=1 n=f5 v=127
32397 Off ch=1 n=f5 v=64
32397 Off ch=1 n=a#5 v=64
32397 Off ch=1 n=c#6 v=64
32397 Off ch=1 n=f6 v=64
32640 On ch=1 n=c#7 v=112
32760 Off ch=1 n=c#7 v=64
32760 On ch=1 n=c7 v=112
32760 On ch=1 n=g6 v=112
32760 On ch=1 n=c#6 v=112
32877 Off ch=1 n=c#6 v=64
32877 Off ch=1 n=g6 v=64
32877 Off ch=1 n=c7 v=64
33000 On ch=1 n=a#6 v=112
33120 Off ch=1 n=a#6 v=64
33120 On ch=1 n=a6 v=112
33240 Off ch=1 n=a6 v=64
33240 On ch=1 n=c7 v=127
33240 On ch=1 n=f6 v=127
33240 On ch=1 n=c6 v=127
33357 Off ch=1 n=c6 v=64
33357 Off ch=1 n=f6 v=64
33357 Off ch=1 n=c7 v=64
33600 On ch=1 n=b6 v=112
33720 Off ch=1 n=b6 v=64
33720 On ch=1 n=a#6 v=127
33720 On ch=1 n=f6 v=127
33720 On ch=1 n=b5 v=127
33837 Off ch=1 n=b5 v=64
33837 Off ch=1 n=f6 v=64
33837 Off ch=1 n=a#6 v=64
33960 On ch=1 n=g#6 v=112
34080 Off ch=1 n=g#6 v=64
34080 On ch=1 n=g6 v=112
34200 Off ch=1 n=g6 v=64
34200 On ch=1 n=a#6 v=127
34200 On ch=1 n=f#6 v=127
34200 On ch=1 n=a#5 v=127
34317 Off ch=1 n=a#5 v=64
34317 Off ch=1 n=f#6 v=64
34317 Off ch=1 n=a#6 v=64
34560 Par ch=1 c=7 v=112
34560 On ch=1 n=a6 v=112
34560 On ch=1 n=f#6 v=112
34560 On ch=1 n=a5 v=112
34800 Off ch=1 n=a5 v=64
34800 Off ch=1 n=a6 v=64
34800 On ch=1 n=a#6 v=127
34800 On ch=1 n=a#5 v=127
35040 Off ch=1 n=a#5 v=64
35040 Off ch=1 n=a#6 v=64
35040 Off ch=1 n=f#6 v=64
35040 On ch=1 n=a6 v=112
35040 On ch=1 n=a5 v=112
35280 Off ch=1 n=a5 v=64
35280 Off ch=1 n=a6 v=64
35280 On ch=1 n=a#6 v=127
35280 On ch=1 n=f6 v=127
35280 On ch=1 n=a#5 v=127
35520 Off ch=1 n=a#5 v=64
35520 Off ch=1 n=f6 v=64
35520 Off ch=1 n=a#6 v=64
35520 On ch=1 n=a6 v=112
35520 On ch=1 n=f6 v=112
35520 On ch=1 n=a5 v=112
35760 Off ch=1 n=a5 v=64
35760 Off ch=1 n=f6 v=64
35760 Off ch=1 n=a6 v=64
35760 On ch=1 n=a#6 v=127
35760 On ch=1 n=d#6 v=127
35760 On ch=1 n=a#5 v=127
36000 Off ch=1 n=a#5 v=64
36000 Off ch=1 n=a#6 v=64
36000 On ch=1 n=a6 v=112
36000 On ch=1 n=a5 v=112
36240 Off ch=1 n=a5 v=64
36240 Off ch=1 n=a6 v=64
36240 Off ch=1 n=d#6 v=64
36240 On ch=1 n=a#6 v=127
36240 On ch=1 n=c#6 v=127
36240 On ch=1 n=a#5 v=127
36440 Off ch=1 n=a#5 v=64
36440 Off ch=1 n=c#6 v=64
36440 Off ch=1 n=a#6 v=64
36480 On ch=1 n=c#6 v=112
36480 On ch=1 n=f#5 v=112
36480 On ch=1 n=c#5 v=112
36540 Off ch=1 n=c#5 v=64
36540 Off ch=1 n=f#5 v=64
36540 Off ch=1 n=c#6 v=64
36720 On ch=1 n=c6 v=112
36720 On ch=1 n=f#5 v=112
36720 On ch=1 n=c5 v=112
36780 Off ch=1 n=c5 v=64
36780 Off ch=1 n=f#5 v=64
36780 Off ch=1 n=c6 v=64
37200 On ch=1 n=a#5 v=112
37200 On ch=1 n=f#5 v=112
37200 On ch=1 n=c#5 v=112
37200 On ch=1 n=g#4 v=112
37210 Par ch=1 c=7 v=111
37225 Par ch=1 c=7 v=110
37240 Par ch=1 c=7 v=109
37254 Par ch=1 c=7 v=108
37269 Par ch=1 c=7 v=107
37284 Par ch=1 c=7 v=106
37298 Par ch=1 c=7 v=105
37313 Par ch=1 c=7 v=104
37328 Par ch=1 c=7 v=103
37343 Par ch=1 c=7 v=102
37357 Par ch=1 c=7 v=101
37372 Par ch=1 c=7 v=100
37387 Par ch=1 c=7 v=99
37397 Par ch=1 c=7 v=98
37412 Par ch=1 c=7 v=97
37427 Par ch=1 c=7 v=96
37434 Off ch=1 n=g#4 v=64
37434 Off ch=1 n=c#5 v=64
37434 Off ch=1 n=f#5 v=64
37434 Off ch=1 n=a#5 v=64
37434 On ch=1 n=a#5 v=87
37434 On ch=1 n=f#5 v=87
37434 On ch=1 n=d5 v=87
37434 On ch=1 n=g#4 v=87
37442 Par ch=1 c=7 v=95
37456 Par ch=1 c=7 v=94
37471 Par ch=1 c=7 v=93
37486 Par ch=1 c=7 v=92
37500 Par ch=1 c=7 v=91
37515 Par ch=1 c=7 v=90
37530 Par ch=1 c=7 v=89
37544 Par ch=1 c=7 v=88
37559 Par ch=1 c=7 v=87
37574 Par ch=1 c=7 v=86
37589 Par ch=1 c=7 v=85
37599 Par ch=1 c=7 v=84
37614 Par ch=1 c=7 v=83
37629 Par ch=1 c=7 v=82
37643 Par ch=1 c=7 v=81
37658 Par ch=1 c=7 v=80
37673 Par ch=1 c=7 v=79
37688 Par ch=1 c=7 v=78
37702 Par ch=1 c=7 v=77
37717 Par ch=1 c=7 v=76
37732 Par ch=1 c=7 v=75
37746 Par ch=1 c=7 v=74
37761 Par ch=1 c=7 v=73
37776 Par ch=1 c=7 v=72
37791 Par ch=1 c=7 v=71
37801 Par ch=1 c=7 v=70
37816 Par ch=1 c=7 v=69
37831 Par ch=1 c=7 v=68
37845 Par ch=1 c=7 v=67
37860 Par ch=1 c=7 v=66
37875 Par ch=1 c=7 v=65
37889 Par ch=1 c=7 v=64
37904 Par ch=1 c=7 v=63
37908 Off ch=1 n=g#4 v=64
37908 Off ch=1 n=d5 v=64
37908 Off ch=1 n=f#5 v=64
37908 Off ch=1 n=a#5 v=64
37908 On ch=1 n=g#5 v=36
37908 On ch=1 n=f#5 v=36
37908 On ch=1 n=d#5 v=36
37908 On ch=1 n=g#4 v=36
37919 Par ch=1 c=7 v=62
37934 Par ch=1 c=7 v=61
37948 Par ch=1 c=7 v=60
37963 Par ch=1 c=7 v=59
37978 Par ch=1 c=7 v=58
37988 Par ch=1 c=7 v=57
38003 Par ch=1 c=7 v=56
38018 Par ch=1 c=7 v=55
38033 Par ch=1 c=7 v=54
38047 Par ch=1 c=7 v=53
38062 Par ch=1 c=7 v=52
38077 Par ch=1 c=7 v=51
38091 Par ch=1 c=7 v=50
38106 Par ch=1 c=7 v=49
38121 Par ch=1 c=7 v=48
38135 Par ch=1 c=7 v=47
38150 Par ch=1 c=7 v=46
38165 Par ch=1 c=7 v=45
38180 Par ch=1 c=7 v=44
38190 Par ch=1 c=7 v=43
38205 Par ch=1 c=7 v=42
38220 Par ch=1 c=7 v=41
38234 Par ch=1 c=7 v=40
38249 Par ch=1 c=7 v=39
38264 Par ch=1 c=7 v=38
38279 Par ch=1 c=7 v=37
38293 Par ch=1 c=7 v=36
38308 Par ch=1 c=7 v=35
38322 Off ch=1 n=g#4 v=64
38322 Off ch=1 n=d#5 v=64
38322 Off ch=1 n=f#5 v=64
38322 Off ch=1 n=g#5 v=64
38323 Par ch=1 c=7 v=34
38337 Par ch=1 c=7 v=33
38352 Par ch=1 c=7 v=32
38367 Par ch=1 c=7 v=31
38382 Par ch=1 c=7 v=30
38412 On ch=1 n=g#5 v=30
38412 On ch=1 n=c#5 v=30
39312 Off ch=1 n=c#5 v=64
39312 Off ch=1 n=g#5 v=64
39372 On ch=1 n=f5 v=30
39372 On ch=1 n=c#5 v=30
39372 On ch=1 n=g#4 v=30
39792 Off ch=1 n=g#4 v=64
39792 Off ch=1 n=c#5 v=64
39792 Off ch=1 n=f5 v=64
39852 On ch=1 n=f#5 v=30
39852 On ch=1 n=d#5 v=30
39852 On ch=1 n=a#4 v=30
40272 Off ch=1 n=a#4 v=64
40272 Off ch=1 n=d#5 v=64
40272 Off ch=1 n=f#5 v=64
40332 On ch=1 n=f5 v=30
40332 On ch=1 n=c5 v=30
41232 Off ch=1 n=f5 v=64
41292 On ch=1 n=d#5 v=30
42192 Off ch=1 n=d#5 v=64
42192 Off ch=1 n=c5 v=64
42372 On ch=1 n=g#5 v=30
42732 Off ch=1 n=g#5 v=64
42732 On ch=1 n=f5 v=30
43152 Off ch=1 n=f5 v=64
43212 On ch=1 n=f#5 v=30
43212 On ch=1 n=c#5 v=30
43412 Off ch=1 n=f#5 v=64
43452 On ch=1 n=f5 v=30
43632 Off ch=1 n=c#5 v=64
43652 Off ch=1 n=f5 v=64
43692 On ch=1 n=g#5 v=30
43692 On ch=1 n=d#5 v=30
43892 Off ch=1 n=g#5 v=64
43932 On ch=1 n=f#5 v=30
44112 Off ch=1 n=d#5 v=64
44132 Off ch=1 n=f#5 v=64
44172 On ch=1 n=f5 v=30
44172 On ch=1 n=c5 v=30
45072 Off ch=1 n=f5 v=64
45132 On ch=1 n=d#5 v=30
46032 Off ch=1 n=d#5 v=64
46032 Off ch=1 n=c5 v=64
46092 On ch=1 n=g#5 v=30
46092 On ch=1 n=c#5 v=30
46512 Off ch=1 n=g#5 v=64
46572 On ch=1 n=a#5 v=30
46572 On ch=1 n=e5 v=30
46992 Off ch=1 n=e5 v=64
46992 Off ch=1 n=a#5 v=64
46992 Off ch=1 n=c#5 v=64
47052 On ch=1 n=c6 v=30
47052 On ch=1 n=d#5 v=30
47104 Par ch=1 c=7 v=31
47158 Par ch=1 c=7 v=32
47212 Par ch=1 c=7 v=33
47264 Par ch=1 c=7 v=34
47318 Par ch=1 c=7 v=35
47372 Par ch=1 c=7 v=36
47424 Par ch=1 c=7 v=37
47472 Off ch=1 n=d#5 v=64
47472 Off ch=1 n=c6 v=64
47478 Par ch=1 c=7 v=38
47532 Par ch=1 c=7 v=39
47532 On ch=1 n=c#6 v=31
47532 On ch=1 n=f#5 v=31
47584 Par ch=1 c=7 v=40
47638 Par ch=1 c=7 v=41
47692 Par ch=1 c=7 v=42
47744 Par ch=1 c=7 v=43
47798 Par ch=1 c=7 v=44
47852 Off ch=1 n=c#6 v=64
47852 Par ch=1 c=7 v=45
47892 On ch=1 n=d#6 v=32
47892 On ch=1 n=c6 v=32
47904 Par ch=1 c=7 v=46
47952 Off ch=1 n=f#5 v=64
47958 Par ch=1 c=7 v=47
48009 Off ch=1 n=c6 v=64
48009 Off ch=1 n=d#6 v=64
48012 Par ch=1 c=7 v=48
48012 On ch=1 n=f6 v=48
48012 On ch=1 n=c#6 v=48
48012 On ch=1 n=f5 v=48
48432 Off ch=1 n=f5 v=64
48432 Off ch=1 n=c#6 v=64
48432 Off ch=1 n=f6 v=64
48492 On ch=1 n=a#5 v=48
48492 On ch=1 n=e5 v=48
48492 On ch=1 n=c#5 v=48
48912 Off ch=1 n=c#5 v=64
48912 Off ch=1 n=e5 v=64
48912 Off ch=1 n=a#5 v=64
48972 On ch=1 n=c6 v=48
48972 On ch=1 n=d#5 v=48
48972 On ch=1 n=c5 v=48
49012 Par ch=1 c=7 v=49
49052 Par ch=1 c=7 v=50
49092 Par ch=1 c=7 v=51
49132 Par ch=1 c=7 v=52
49172 Par ch=1 c=7 v=53
49212 Par ch=1 c=7 v=54
49252 Par ch=1 c=7 v=55
49292 Par ch=1 c=7 v=56
49332 Par ch=1 c=7 v=57
49372 Par ch=1 c=7 v=58
49392 Off ch=1 n=c5 v=64
49392 Off ch=1 n=c6 v=64
49412 Par ch=1 c=7 v=59
49452 Par ch=1 c=7 v=60
49452 On ch=1 n=c#6 v=49
49452 On ch=1 n=a#4 v=49
49492 Par ch=1 c=7 v=61
49532 Par ch=1 c=7 v=62
49572 Par ch=1 c=7 v=63
49612 Par ch=1 c=7 v=64
49652 Par ch=1 c=7 v=65
49692 Par ch=1 c=7 v=66
49732 Par ch=1 c=7 v=67
49772 Off ch=1 n=c#6 v=64
49772 Par ch=1 c=7 v=68
49812 On ch=1 n=d#6 v=50
49812 Par ch=1 c=7 v=69
49852 Par ch=1 c=7 v=70
49872 Off ch=1 n=a#4 v=64
49872 Off ch=1 n=d#5 v=64
49892 Par ch=1 c=7 v=71
49929 Off ch=1 n=d#6 v=64
49932 Par ch=1 c=7 v=72
49992 On ch=1 n=f6 v=72
49992 On ch=1 n=c6 v=72
49992 On ch=1 n=d#5 v=72
50372 Off ch=1 n=d#5 v=64
50372 Off ch=1 n=f6 v=64
50412 On ch=1 n=d#6 v=72
50412 On ch=1 n=f5 v=72
50832 Off ch=1 n=d#6 v=64
50832 Off ch=1 n=c6 v=64
50892 On ch=1 n=c#6 v=72
50892 On ch=1 n=a#5 v=72
50892 On ch=1 n=c#5 v=72
51312 Off ch=1 n=c#5 v=64
51312 Off ch=1 n=a#5 v=64
51312 Off ch=1 n=c#6 v=64
51312 Off ch=1 n=f5 v=64
51372 On ch=1 n=c6 v=72
51372 On ch=1 n=g#5 v=72
51372 On ch=1 n=e5 v=72
51692 Off ch=1 n=e5 v=64
51692 Off ch=1 n=g#5 v=64
51692 Off ch=1 n=c6 v=64
51732 On ch=1 n=a#5 v=72
51732 On ch=1 n=f5 v=72
51849 Off ch=1 n=f5 v=64
51849 Off ch=1 n=a#5 v=64
51852 On ch=1 n=g#5 v=72
51852 On ch=1 n=f5 v=72
51852 On ch=1 n=b4 v=72
52272 Off ch=1 n=b4 v=64
52272 Off ch=1 n=f5 v=64
52272 Off ch=1 n=g#5 v=64
52332 On ch=1 n=f#5 v=72
52332 On ch=1 n=d#5 v=72
52332 On ch=1 n=a#4 v=72
52332 On ch=1 n=f#4 v=72
52652 Off ch=1 n=f#4 v=64
52652 Off ch=1 n=a#4 v=64
52652 Off ch=1 n=d#5 v=64
52652 Off ch=1 n=f#5 v=64
52692 On ch=1 n=f5 v=72
52692 On ch=1 n=c#5 v=72
52692 On ch=1 n=g#4 v=72
52809 Off ch=1 n=g#4 v=64
52809 Off ch=1 n=c#5 v=64
52809 Off ch=1 n=f5 v=64
52812 On ch=1 n=d#5 v=72
52812 On ch=1 n=c#5 v=72
52812 On ch=1 n=a#4 v=72
53232 Off ch=1 n=a#4 v=64
53232 Off ch=1 n=c#5 v=64
53292 On ch=1 n=c5 v=72
53292 On ch=1 n=f#4 v=72
53492 Off ch=1 n=d#5 v=64
53532 On ch=1 n=e5 v=72
53712 Off ch=1 n=f#4 v=64
53712 Off ch=1 n=c5 v=64
53732 Off ch=1 n=e5 v=64
53772 Par ch=1 c=7 v=94
53772 On ch=1 n=f5 v=94
53802 On ch=1 n=c#6 v=93
53832 On ch=1 n=g#6 v=92
53854 Par ch=1 c=7 v=93
53938 Par ch=1 c=7 v=92
54022 Par ch=1 c=7 v=91
54105 Par ch=1 c=7 v=90
54188 Par ch=1 c=7 v=89
54272 Par ch=1 c=7 v=88
54355 Par ch=1 c=7 v=87
54439 Par ch=1 c=7 v=86
54523 Par ch=1 c=7 v=85
54605 Par ch=1 c=7 v=84
54672 Off ch=1 n=g#6 v=64
54672 Off ch=1 n=c#6 v=64
54672 Off ch=1 n=f5 v=64
54689 Par ch=1 c=7 v=83
54732 On ch=1 n=f6 v=90
54732 On ch=1 n=c#6 v=90
54732 On ch=1 n=g#5 v=90
54773 Par ch=1 c=7 v=82
54857 Par ch=1 c=7 v=81
54939 Par ch=1 c=7 v=80
55023 Par ch=1 c=7 v=79
55107 Par ch=1 c=7 v=78
55152 Off ch=1 n=g#5 v=64
55152 Off ch=1 n=c#6 v=64
55152 Off ch=1 n=f6 v=64
55190 Par ch=1 c=7 v=77
55212 On ch=1 n=g#5 v=89
55212 On ch=1 n=f5 v=89
55274 Par ch=1 c=7 v=76
55357 Par ch=1 c=7 v=75
55412 Off ch=1 n=f5 v=64
55412 Off ch=1 n=g#5 v=64
55440 Par ch=1 c=7 v=74
55452 On ch=1 n=f#6 v=88
55452 On ch=1 n=d#6 v=88
55452 On ch=1 n=a#5 v=88
55524 Par ch=1 c=7 v=73
55608 Par ch=1 c=7 v=72
55652 Off ch=1 n=a#5 v=64
55652 Off ch=1 n=d#6 v=64
55652 Off ch=1 n=f#6 v=64
55690 Par ch=1 c=7 v=71
55692 On ch=1 n=f6 v=87
55692 On ch=1 n=c6 v=87
55692 On ch=1 n=f#5 v=87
55774 Par ch=1 c=7 v=70
55858 Par ch=1 c=7 v=69
55942 Par ch=1 c=7 v=68
56025 Par ch=1 c=7 v=67
56108 Par ch=1 c=7 v=66
56192 Par ch=1 c=7 v=65
56275 Par ch=1 c=7 v=64
56352 Off ch=1 n=f6 v=64
56359 Par ch=1 c=7 v=63
56412 On ch=1 n=d#6 v=86
56443 Par ch=1 c=7 v=62
56525 Par ch=1 c=7 v=61
56592 Off ch=1 n=f#5 v=64
56592 Off ch=1 n=c6 v=64
56609 Par ch=1 c=7 v=60
56612 Off ch=1 n=d#6 v=64
56652 On ch=1 n=a#5 v=85
56693 Par ch=1 c=7 v=59
56777 Par ch=1 c=7 v=58
56852 Off ch=1 n=a#5 v=64
56859 Par ch=1 c=7 v=57
56892 On ch=1 n=g#5 v=84
56943 Par ch=1 c=7 v=56
57027 Par ch=1 c=7 v=55
57092 Off ch=1 n=g#5 v=64
57110 Par ch=1 c=7 v=54
57132 On ch=1 n=c#5 v=83
57194 Par ch=1 c=7 v=53
57277 Par ch=1 c=7 v=52
57332 Off ch=1 n=c#5 v=64
57360 Par ch=1 c=7 v=51
57372 On ch=1 n=d#5 v=82
57444 Par ch=1 c=7 v=50
57528 Par ch=1 c=7 v=49
57572 Off ch=1 n=d#5 v=64
57610 Par ch=1 c=7 v=48
57612 Par ch=1 c=7 v=48
57612 On ch=1 n=f5 v=48
57672 On ch=1 n=g#6 v=48
57672 On ch=1 n=c#6 v=48
58052 Off ch=1 n=g#6 v=64
58052 Off ch=1 n=f5 v=64
58092 On ch=1 n=f6 v=48
58092 On ch=1 n=g#5 v=48
58512 Off ch=1 n=g#5 v=64
58512 Off ch=1 n=f6 v=64
58512 Off ch=1 n=c#6 v=64
58572 On ch=1 n=f#6 v=48
58572 On ch=1 n=c#6 v=48
58572 On ch=1 n=a#5 v=48
58812 Off ch=1 n=a#5 v=64
58812 Off ch=1 n=c#6 v=64
58812 Off ch=1 n=f#6 v=64
58812 On ch=1 n=f6 v=48
58812 On ch=1 n=c#6 v=48
58812 On ch=1 n=g#5 v=48
59012 Off ch=1 n=g#5 v=64
59012 Off ch=1 n=c#6 v=64
59012 Off ch=1 n=f6 v=64
59052 On ch=1 n=f6 v=48
59052 On ch=1 n=g#5 v=48
59209 Off ch=1 n=g#5 v=64
59209 Off ch=1 n=f6 v=64
59212 On ch=1 n=g#6 v=48
59212 On ch=1 n=c6 v=48
59369 Off ch=1 n=c6 v=64
59369 Off ch=1 n=g#6 v=64
59372 On ch=1 n=f#6 v=48
59372 On ch=1 n=a#5 v=48
59529 Off ch=1 n=a#5 v=64
59529 Off ch=1 n=f#6 v=64
59532 On ch=1 n=f6 v=48
59532 On ch=1 n=c6 v=48
59532 On ch=1 n=f#5 v=48
60192 Off ch=1 n=f6 v=64
60252 On ch=1 n=d#6 v=48
60432 Off ch=1 n=f#5 v=64
60432 Off ch=1 n=c6 v=64
60452 Off ch=1 n=d#6 v=64
60492 On ch=1 n=a#5 v=48
60652 Off ch=1 n=a#5 v=64
60652 On ch=1 n=g#5 v=48
60812 Off ch=1 n=g#5 v=64
60812 On ch=1 n=a#5 v=48
60972 Off ch=1 n=a#5 v=64
60972 On ch=1 n=g#5 v=48
61132 Off ch=1 n=g#5 v=64
61132 On ch=1 n=c#5 v=48
61292 Off ch=1 n=c#5 v=64
61292 On ch=1 n=d#5 v=48
61449 Off ch=1 n=d#5 v=64
61452 On ch=1 n=g#6 v=48
61452 On ch=1 n=c#6 v=48
61452 On ch=1 n=f5 v=48
61587 Par ch=1 c=7 v=49
61722 Par ch=1 c=7 v=50
61857 Par ch=1 c=7 v=51
61872 Off ch=1 n=f5 v=64
61932 On ch=1 n=a#6 v=49
61932 On ch=1 n=a#5 v=49
61992 Par ch=1 c=7 v=52
62127 Par ch=1 c=7 v=53
62262 Par ch=1 c=7 v=54
62352 Off ch=1 n=a#5 v=64
62352 Off ch=1 n=a#6 v=64
62352 Off ch=1 n=c#6 v=64
62352 Off ch=1 n=g#6 v=64
62397 Par ch=1 c=7 v=55
62412 On ch=1 n=c7 v=50
62412 On ch=1 n=g#6 v=50
62412 On ch=1 n=f#6 v=50
62412 On ch=1 n=c6 v=50
62532 Par ch=1 c=7 v=56
62667 Par ch=1 c=7 v=57
62802 Par ch=1 c=7 v=58
62832 Off ch=1 n=c6 v=64
62832 Off ch=1 n=c7 v=64
62892 On ch=1 n=c#7 v=51
62892 On ch=1 n=c#6 v=51
62937 Par ch=1 c=7 v=59
63072 Par ch=1 c=7 v=60
63207 Par ch=1 c=7 v=61
63212 Off ch=1 n=c#6 v=64
63212 Off ch=1 n=c#7 v=64
63212 Off ch=1 n=f#6 v=64
63212 Off ch=1 n=g#6 v=64
63252 On ch=1 n=d#7 v=52
63252 On ch=1 n=d#6 v=52
63342 Par ch=1 c=7 v=62
63369 Off ch=1 n=d#6 v=64
63369 Off ch=1 n=d#7 v=64
63372 On ch=1 n=f7 v=53
63372 On ch=1 n=g#6 v=53
63372 On ch=1 n=f6 v=53
63477 Par ch=1 c=7 v=63
63612 Par ch=1 c=7 v=64
63747 Par ch=1 c=7 v=65
63792 Off ch=1 n=f7 v=64
63852 On ch=1 n=a#6 v=54
63852 On ch=1 n=a#5 v=54
63882 Par ch=1 c=7 v=66
64017 Par ch=1 c=7 v=67
64152 Par ch=1 c=7 v=68
64272 Off ch=1 n=a#5 v=64
64272 Off ch=1 n=a#6 v=64
64272 Off ch=1 n=f6 v=64
64272 Off ch=1 n=g#6 v=64
64287 Par ch=1 c=7 v=69
64332 On ch=1 n=c7 v=55
64332 On ch=1 n=g#6 v=55
64332 On ch=1 n=f#6 v=55
64332 On ch=1 n=c6 v=55
64422 Par ch=1 c=7 v=70
64557 Par ch=1 c=7 v=71
64692 Par ch=1 c=7 v=72
64752 Off ch=1 n=c6 v=64
64752 Off ch=1 n=f#6 v=64
64752 Off ch=1 n=g#6 v=64
64752 Off ch=1 n=c7 v=64
64812 On ch=1 n=c#7 v=56
64812 On ch=1 n=c#6 v=56
64827 Par ch=1 c=7 v=73
64962 Par ch=1 c=7 v=74
65097 Par ch=1 c=7 v=75
65132 Off ch=1 n=c#6 v=64
65132 Off ch=1 n=c#7 v=64
65172 On ch=1 n=d#7 v=57
65172 On ch=1 n=d#6 v=57
65232 Par ch=1 c=7 v=76
65289 Off ch=1 n=d#6 v=64
65289 Off ch=1 n=d#7 v=64
65292 On ch=1 n=f7 v=58
65292 On ch=1 n=d#7 v=58
65292 On ch=1 n=c7 v=58
65292 On ch=1 n=f6 v=58
65367 Par ch=1 c=7 v=77
65502 Par ch=1 c=7 v=78
65637 Par ch=1 c=7 v=79
65712 Off ch=1 n=f6 v=64
65712 Off ch=1 n=f7 v=64
65772 On ch=1 n=f#7 v=59
65772 On ch=1 n=f#6 v=59
65772 Par ch=1 c=7 v=80
65907 Par ch=1 c=7 v=81
66042 Par ch=1 c=7 v=82
66177 Par ch=1 c=7 v=83
66192 Off ch=1 n=c7 v=64
66192 Off ch=1 n=d#7 v=64
66312 Par ch=1 c=7 v=84
66447 Par ch=1 c=7 v=85
66452 Off ch=1 n=f#6 v=64
66452 Off ch=1 n=f#7 v=64
66492 On ch=1 n=f7 v=61
66492 On ch=1 n=f6 v=61
66582 Par ch=1 c=7 v=86
66692 Off ch=1 n=f6 v=64
66692 Off ch=1 n=f7 v=64
66717 Par ch=1 c=7 v=87
66732 On ch=1 n=e7 v=62
66732 On ch=1 n=e6 v=62
66852 Par ch=1 c=7 v=88
66932 Off ch=1 n=e6 v=64
66932 Off ch=1 n=e7 v=64
66972 On ch=1 n=f7 v=63
66972 On ch=1 n=f6 v=63
66987 Par ch=1 c=7 v=89
67122 Par ch=1 c=7 v=90
67172 Off ch=1 n=f6 v=64
67172 Off ch=1 n=f7 v=64
67212 On ch=1 n=g#7 v=64
67212 On ch=1 n=f#7 v=64
67212 On ch=1 n=d#7 v=64
67212 On ch=1 n=g#6 v=64
67257 Par ch=1 c=7 v=91
67392 Par ch=1 c=7 v=92
67527 Par ch=1 c=7 v=93
67632 Off ch=1 n=g#6 v=64
67632 Off ch=1 n=g#7 v=64
67662 Par ch=1 c=7 v=94
67692 On ch=1 n=a#7 v=65
67692 On ch=1 n=a#6 v=65
67797 Par ch=1 c=7 v=95
67932 Par ch=1 c=7 v=96
68067 Par ch=1 c=7 v=97
68112 Off ch=1 n=a#6 v=64
68112 Off ch=1 n=a#7 v=64
68112 Off ch=1 n=d#7 v=64
68112 Off ch=1 n=f#7 v=64
68172 On ch=1 n=a#7 v=66
68172 On ch=1 n=f7 v=66
68172 On ch=1 n=a#6 v=66
68202 Par ch=1 c=7 v=98
68337 Par ch=1 c=7 v=99
68372 Off ch=1 n=a#6 v=64
68372 Off ch=1 n=a#7 v=64
68412 On ch=1 n=g#7 v=67
68412 On ch=1 n=g#6 v=67
68472 Par ch=1 c=7 v=100
68607 Par ch=1 c=7 v=101
68612 Off ch=1 n=g#6 v=64
68612 Off ch=1 n=g#7 v=64
68612 Off ch=1 n=f7 v=64
68652 On ch=1 n=f#7 v=68
68652 On ch=1 n=a#6 v=68
68652 On ch=1 n=f#6 v=68
68742 Par ch=1 c=7 v=102
68877 Par ch=1 c=7 v=103
68972 Off ch=1 n=f#6 v=64
68972 Off ch=1 n=f#7 v=64
69012 On ch=1 n=f7 v=69
69012 On ch=1 n=f6 v=69
69012 Par ch=1 c=7 v=104
69129 Off ch=1 n=f6 v=64
69129 Off ch=1 n=a#6 v=64
69129 Off ch=1 n=f7 v=64
69132 On ch=1 n=g#7 v=70
69132 On ch=1 n=a#6 v=70
69132 On ch=1 n=g#6 v=70
69147 Par ch=1 c=7 v=105
69282 Par ch=1 c=7 v=106
69332 Off ch=1 n=g#6 v=64
69332 Off ch=1 n=g#7 v=64
69372 On ch=1 n=f#7 v=71
69372 On ch=1 n=f#6 v=71
69417 Par ch=1 c=7 v=107
69552 Par ch=1 c=7 v=108
69572 Off ch=1 n=f#6 v=64
69572 Off ch=1 n=f#7 v=64
69572 Off ch=1 n=a#6 v=64
69612 On ch=1 n=f7 v=72
69612 On ch=1 n=a#6 v=72
69612 On ch=1 n=f6 v=72
69687 Par ch=1 c=7 v=109
69812 Off ch=1 n=f6 v=64
69812 Off ch=1 n=f7 v=64
69822 Par ch=1 c=7 v=110
69852 On ch=1 n=d7 v=73
69852 On ch=1 n=d6 v=73
69957 Par ch=1 c=7 v=111
70052 Off ch=1 n=d6 v=64
70052 Off ch=1 n=d7 v=64
70052 Off ch=1 n=a#6 v=64
70092 Par ch=1 c=7 v=112
70092 On ch=1 n=f7 v=112
70092 On ch=1 n=a#6 v=112
70092 On ch=1 n=f6 v=112
70292 Off ch=1 n=f6 v=64
70292 Off ch=1 n=f7 v=64
70332 On ch=1 n=d#7 v=112
70332 On ch=1 n=d#6 v=112
70532 Off ch=1 n=d#6 v=64
70532 Off ch=1 n=d#7 v=64
70532 Off ch=1 n=a#6 v=64
70572 On ch=1 n=a#6 v=112
70572 On ch=1 n=e6 v=112
70572 On ch=1 n=a#5 v=112
70772 Off ch=1 n=a#5 v=64
70772 Off ch=1 n=a#6 v=64
70812 On ch=1 n=c#7 v=112
70812 On ch=1 n=c#6 v=112
71012 Off ch=1 n=c#6 v=64
71012 Off ch=1 n=c#7 v=64
71012 Off ch=1 n=e6 v=64
71052 On ch=1 n=a#6 v=112
71052 On ch=1 n=f6 v=112
71052 On ch=1 n=a#5 v=112
71252 Off ch=1 n=a#5 v=64
71252 Off ch=1 n=a#6 v=64
71292 On ch=1 n=g#6 v=112
71292 On ch=1 n=g#5 v=112
71492 Off ch=1 n=g#5 v=64
71492 Off ch=1 n=g#6 v=64
71492 Off ch=1 n=f6 v=64
71532 On ch=1 n=c#6 v=112
71532 On ch=1 n=f#5 v=112
71532 On ch=1 n=c#5 v=112
71732 Off ch=1 n=c#5 v=64
71732 Off ch=1 n=f#5 v=64
71772 On ch=1 n=f#6 v=112
71772 On ch=1 n=f#5 v=112
71972 Off ch=1 n=f#5 v=64
71972 Off ch=1 n=f#6 v=64
71972 Off ch=1 n=c#6 v=64
72012 On ch=1 n=d#6 v=112
72012 On ch=1 n=c#6 v=112
72012 On ch=1 n=f#5 v=112
72012 On ch=1 n=d#5 v=112
72432 Off ch=1 n=d#5 v=64
72432 Off ch=1 n=f#5 v=64
72432 Off ch=1 n=c#6 v=64
72432 Off ch=1 n=d#6 v=64
72492 On ch=1 n=f6 v=112
72492 On ch=1 n=c6 v=112
72492 On ch=1 n=f5 v=112
72692 Off ch=1 n=f5 v=64
72692 Off ch=1 n=f6 v=64
72732 On ch=1 n=f#6 v=112
72732 On ch=1 n=f#5 v=112
72932 Off ch=1 n=f#5 v=64
72932 Off ch=1 n=f#6 v=64
72932 Off ch=1 n=c6 v=64
72972 On ch=1 n=a#6 v=112
72972 On ch=1 n=c#6 v=112
72972 On ch=1 n=a#5 v=112
73172 Off ch=1 n=a#5 v=64
73172 Off ch=1 n=a#6 v=64
73212 On ch=1 n=a6 v=112
73212 On ch=1 n=a5 v=112
73412 Off ch=1 n=a5 v=64
73412 Off ch=1 n=a6 v=64
73412 Off ch=1 n=c#6 v=64
73452 On ch=1 n=g#6 v=112
73452 On ch=1 n=c#6 v=112
73452 On ch=1 n=g#5 v=112
73609 Off ch=1 n=g#5 v=64
73609 Off ch=1 n=c#6 v=64
73609 Off ch=1 n=g#6 v=64
73612 On ch=1 n=c#6 v=112
73612 On ch=1 n=c#5 v=112
73769 Off ch=1 n=c#5 v=64
73769 Off ch=1 n=c#6 v=64
73772 On ch=1 n=f#6 v=112
73772 On ch=1 n=c#6 v=112
73772 On ch=1 n=f#5 v=112
73929 Off ch=1 n=f#5 v=64
73929 Off ch=1 n=c#6 v=64
73929 Off ch=1 n=f#6 v=64
73932 On ch=1 n=d#6 v=112
73932 On ch=1 n=c#6 v=112
73932 On ch=1 n=f#5 v=112
73932 On ch=1 n=d#5 v=112
74132 Off ch=1 n=d#5 v=64
74132 Off ch=1 n=d#6 v=64
74172 On ch=1 n=f6 v=112
74172 On ch=1 n=f5 v=112
74289 Off ch=1 n=f5 v=64
74289 Off ch=1 n=f6 v=64
74289 Off ch=1 n=f#5 v=64
74289 Off ch=1 n=c#6 v=64
74292 On ch=1 n=d#6 v=112
74292 On ch=1 n=d#5 v=112
74409 Off ch=1 n=d#5 v=64
74409 Off ch=1 n=d#6 v=64
74412 On ch=1 n=d6 v=112
74412 On ch=1 n=c6 v=112
74412 On ch=1 n=d5 v=112
74529 Off ch=1 n=d5 v=64
74529 Off ch=1 n=d6 v=64
74532 On ch=1 n=d#6 v=112
74532 On ch=1 n=d#5 v=112
74649 Off ch=1 n=d#5 v=64
74649 Off ch=1 n=d#6 v=64
74652 On ch=1 n=f6 v=112
74652 On ch=1 n=f5 v=112
74769 Off ch=1 n=f5 v=64
74769 Off ch=1 n=f6 v=64
74772 On ch=1 n=f#6 v=112
74772 On ch=1 n=f#5 v=112
74889 Off ch=1 n=f#5 v=64
74889 Off ch=1 n=c6 v=64
74889 Off ch=1 n=f#6 v=64
74892 On ch=1 n=g6 v=112
74892 On ch=1 n=c#6 v=112
74892 On ch=1 n=g5 v=112
75049 Off ch=1 n=g5 v=64
75049 Off ch=1 n=g6 v=64
75052 On ch=1 n=g#6 v=112
75052 On ch=1 n=g#5 v=112
75209 Off ch=1 n=g#5 v=64
75209 Off ch=1 n=g#6 v=64
75209 Off ch=1 n=c#6 v=64
75212 On ch=1 n=f7 v=112
75212 On ch=1 n=f6 v=112
75369 Off ch=1 n=f6 v=64
75369 Off ch=1 n=f7 v=64
75372 On ch=1 n=d#7 v=112
75372 On ch=1 n=f#6 v=112
75372 On ch=1 n=d#6 v=112
75529 Off ch=1 n=d#6 v=64
75529 Off ch=1 n=d#7 v=64
75532 On ch=1 n=c#7 v=112
75532 On ch=1 n=c#6 v=112
75689 Off ch=1 n=c#6 v=64
75689 Off ch=1 n=c#7 v=64
75689 Off ch=1 n=f#6 v=64
75692 On ch=1 n=f#6 v=112
75692 On ch=1 n=c#6 v=112
75692 On ch=1 n=f#5 v=112
75849 Off ch=1 n=f#5 v=64
75849 Off ch=1 n=c#6 v=64
75849 Off ch=1 n=f#6 v=64
75852 On ch=1 n=d#6 v=112
75852 On ch=1 n=c#6 v=112
75852 On ch=1 n=g#5 v=112
75852 On ch=1 n=d#5 v=112
76272 Off ch=1 n=d#5 v=64
76272 Off ch=1 n=g#5 v=64
76272 Off ch=1 n=c#6 v=64
76332 On ch=1 n=c6 v=112
76332 On ch=1 n=g#5 v=112
76332 On ch=1 n=f#5 v=112
76532 Off ch=1 n=f#5 v=64
76532 Off ch=1 n=g#5 v=64
76532 Off ch=1 n=c6 v=64
76749 Off ch=1 n=d#6 v=64
76752 On ch=1 n=c#6 v=112
76812 Par ch=1 c=7 v=94
76972 Off ch=1 n=c#6 v=64
76972 On ch=1 n=a#5 v=94
76972 On ch=1 n=f5 v=94
77132 Off ch=1 n=f5 v=64
77132 Off ch=1 n=a#5 v=64
77132 On ch=1 n=a#5 v=94
77132 On ch=1 n=f5 v=94
77292 Off ch=1 n=f5 v=64
77292 Off ch=1 n=a#5 v=64
77292 On ch=1 n=a#5 v=94
77292 On ch=1 n=f5 v=94
77452 Off ch=1 n=f5 v=64
77452 Off ch=1 n=a#5 v=64
77452 On ch=1 n=g#5 v=94
77609 Off ch=1 n=g#5 v=64
77612 On ch=1 n=f#6 v=94
77612 On ch=1 n=c6 v=94
77772 Off ch=1 n=c6 v=64
77772 Off ch=1 n=f#6 v=64
77772 On ch=1 n=f#6 v=94
77772 On ch=1 n=c6 v=94
77932 Off ch=1 n=c6 v=64
77932 Off ch=1 n=f#6 v=64
77932 On ch=1 n=f6 v=94
77932 On ch=1 n=c#6 v=94
78089 Off ch=1 n=c#6 v=64
78089 Off ch=1 n=f6 v=64
78092 On ch=1 n=a#6 v=94
78092 On ch=1 n=d#6 v=94
78252 Off ch=1 n=d#6 v=64
78252 Off ch=1 n=a#6 v=64
78252 On ch=1 n=a#6 v=94
78252 On ch=1 n=d#6 v=94
78412 Off ch=1 n=d#6 v=64
78412 Off ch=1 n=a#6 v=64
78412 On ch=1 n=g#6 v=94
78569 Off ch=1 n=g#6 v=64
78572 On ch=1 n=f#7 v=94
78572 On ch=1 n=c7 v=94
78572 On ch=1 n=g#6 v=94
78732 Off ch=1 n=g#6 v=64
78732 Off ch=1 n=c7 v=64
78732 Off ch=1 n=f#7 v=64
78732 On ch=1 n=f#7 v=94
78732 On ch=1 n=c7 v=94
78732 On ch=1 n=g#6 v=94
78892 Off ch=1 n=g#6 v=64
78892 Off ch=1 n=c7 v=64
78892 Off ch=1 n=f#7 v=64
78892 On ch=1 n=f7 v=94
78892 On ch=1 n=c#7 v=94
79049 Off ch=1 n=c#7 v=64
79049 Off ch=1 n=f7 v=64
79052 On ch=1 n=a#6 v=94
79052 On ch=1 n=d#6 v=94
79212 Off ch=1 n=d#6 v=64
79212 Off ch=1 n=a#6 v=64
79212 On ch=1 n=a#6 v=94
79212 On ch=1 n=d#6 v=94
79372 Off ch=1 n=d#6 v=64
79372 Off ch=1 n=a#6 v=64
79372 On ch=1 n=g#6 v=94
79529 Off ch=1 n=g#6 v=64
79532 On ch=1 n=f#6 v=94
79532 On ch=1 n=c6 v=94
79692 Off ch=1 n=c6 v=64
79692 Off ch=1 n=f#6 v=64
79692 On ch=1 n=f#6 v=94
79692 On ch=1 n=c6 v=94
79852 Off ch=1 n=c6 v=64
79852 Off ch=1 n=f#6 v=64
79852 On ch=1 n=f6 v=94
79852 On ch=1 n=c#6 v=94
80009 Off ch=1 n=c#6 v=64
80009 Off ch=1 n=f6 v=64
80012 On ch=1 n=a#5 v=94
80012 On ch=1 n=d#5 v=94
80172 Off ch=1 n=d#5 v=64
80172 Off ch=1 n=a#5 v=64
80172 On ch=1 n=a#5 v=94
80172 On ch=1 n=d#5 v=94
80332 Off ch=1 n=d#5 v=64
80332 Off ch=1 n=a#5 v=64
80332 On ch=1 n=g#5 v=94
80489 Off ch=1 n=g#5 v=64
80492 On ch=1 n=f#5 v=94
80492 On ch=1 n=c5 v=94
80652 Off ch=1 n=c5 v=64
80652 Off ch=1 n=f#5 v=64
80652 On ch=1 n=f#5 v=94
80652 On ch=1 n=c5 v=94
80812 Off ch=1 n=c5 v=64
80812 Off ch=1 n=f#5 v=64
80812 On ch=1 n=f5 v=94
80812 On ch=1 n=c#5 v=94
80969 Off ch=1 n=c#5 v=64
80969 Off ch=1 n=f5 v=64
80972 On ch=1 n=a5 v=94
80972 On ch=1 n=e5 v=94
81132 Off ch=1 n=e5 v=64
81132 Off ch=1 n=a5 v=64
81132 On ch=1 n=a5 v=94
81132 On ch=1 n=e5 v=94
81292 Off ch=1 n=e5 v=64
81292 Off ch=1 n=a5 v=64
81292 On ch=1 n=g#5 v=94
81292 On ch=1 n=d#5 v=94
81449 Off ch=1 n=d#5 v=64
81449 Off ch=1 n=g#5 v=64
81452 On ch=1 n=f#6 v=94
81452 On ch=1 n=c6 v=94
81612 Off ch=1 n=c6 v=64
81612 Off ch=1 n=f#6 v=64
81612 On ch=1 n=f#6 v=94
81612 On ch=1 n=c6 v=94
81772 Off ch=1 n=c6 v=64
81772 Off ch=1 n=f#6 v=64
81772 On ch=1 n=f6 v=94
81772 On ch=1 n=c#6 v=94
81929 Off ch=1 n=c#6 v=64
81929 Off ch=1 n=f6 v=64
81932 On ch=1 n=a6 v=94
81932 On ch=1 n=e6 v=94
82092 Off ch=1 n=e6 v=64
82092 Off ch=1 n=a6 v=64
82092 On ch=1 n=a6 v=94
82092 On ch=1 n=e6 v=94
82252 Off ch=1 n=e6 v=64
82252 Off ch=1 n=a6 v=64
82252 On ch=1 n=g#6 v=94
82252 On ch=1 n=d#6 v=94
82409 Off ch=1 n=d#6 v=64
82409 Off ch=1 n=g#6 v=64
82412 On ch=1 n=f#7 v=94
82412 On ch=1 n=c7 v=94
82572 Off ch=1 n=c7 v=64
82572 Off ch=1 n=f#7 v=64
82572 On ch=1 n=f#7 v=94
82572 On ch=1 n=c7 v=94
82732 Off ch=1 n=c7 v=64
82732 Off ch=1 n=f#7 v=64
82732 On ch=1 n=f7 v=94
82732 On ch=1 n=c#7 v=94
82889 Off ch=1 n=c#7 v=64
82889 Off ch=1 n=f7 v=64
82892 On ch=1 n=a6 v=94
82892 On ch=1 n=e6 v=94
83052 Off ch=1 n=e6 v=64
83052 Off ch=1 n=a6 v=64
83052 On ch=1 n=a6 v=94
83052 On ch=1 n=e6 v=94
83212 Off ch=1 n=e6 v=64
83212 Off ch=1 n=a6 v=64
83212 On ch=1 n=g#6 v=94
83212 On ch=1 n=d#6 v=94
83369 Off ch=1 n=d#6 v=64
83369 Off ch=1 n=g#6 v=64
83372 On ch=1 n=f#6 v=94
83372 On ch=1 n=c6 v=94
83532 Off ch=1 n=c6 v=64
83532 Off ch=1 n=f#6 v=64
83532 On ch=1 n=f#6 v=94
83532 On ch=1 n=c6 v=94
83692 Off ch=1 n=c6 v=64
83692 Off ch=1 n=f#6 v=64
83692 On ch=1 n=f6 v=94
83692 On ch=1 n=c#6 v=94
83849 Off ch=1 n=c#6 v=64
83849 Off ch=1 n=f6 v=64
83852 On ch=1 n=a5 v=94
83852 On ch=1 n=e5 v=94
84012 Off ch=1 n=e5 v=64
84012 Off ch=1 n=a5 v=64
84012 On ch=1 n=a5 v=94
84012 On ch=1 n=e5 v=94
84172 Off ch=1 n=e5 v=64
84172 Off ch=1 n=a5 v=64
84172 On ch=1 n=g#5 v=94
84172 On ch=1 n=d#5 v=94
84329 Off ch=1 n=d#5 v=64
84329 Off ch=1 n=g#5 v=64
84332 On ch=1 n=f#5 v=94
84332 On ch=1 n=d#5 v=94
84332 On ch=1 n=c5 v=94
84492 Off ch=1 n=c5 v=64
84492 Off ch=1 n=d#5 v=64
84492 Off ch=1 n=f#5 v=64
84492 On ch=1 n=f#5 v=94
84492 On ch=1 n=d#5 v=94
84492 On ch=1 n=c5 v=94
84652 Off ch=1 n=c5 v=64
84652 Off ch=1 n=d#5 v=64
84652 Off ch=1 n=f#5 v=64
84652 On ch=1 n=g5 v=94
84652 On ch=1 n=d#5 v=94
84652 On ch=1 n=c5 v=94
84809 Off ch=1 n=c5 v=64
84809 Off ch=1 n=d#5 v=64
84809 Off ch=1 n=g5 v=64
84812 On ch=1 n=c6 v=94
84812 On ch=1 n=f#5 v=94
84812 On ch=1 n=d5 v=94
84972 Off ch=1 n=d5 v=64
84972 Off ch=1 n=f#5 v=64
84972 Off ch=1 n=c6 v=64
84972 On ch=1 n=c6 v=94
84972 On ch=1 n=f#5 v=94
84972 On ch=1 n=d5 v=94
85129 Off ch=1 n=d5 v=64
85129 Off ch=1 n=f#5 v=64
85129 Off ch=1 n=c6 v=64
85132 On ch=1 n=b5 v=94
85132 On ch=1 n=g5 v=94
85132 On ch=1 n=d5 v=94
85289 Off ch=1 n=d5 v=64
85289 Off ch=1 n=g5 v=64
85289 Off ch=1 n=b5 v=64
85292 On ch=1 n=f6 v=94
85292 On ch=1 n=b5 v=94
85292 On ch=1 n=g5 v=94
85292 On ch=1 n=f5 v=94
85452 Off ch=1 n=f5 v=64
85452 Off ch=1 n=g5 v=64
85452 Off ch=1 n=b5 v=64
85452 Off ch=1 n=f6 v=64
85452 On ch=1 n=f6 v=94
85452 On ch=1 n=b5 v=94
85452 On ch=1 n=g5 v=94
85452 On ch=1 n=f5 v=94
85612 Off ch=1 n=f5 v=64
85612 Off ch=1 n=g5 v=64
85612 Off ch=1 n=b5 v=64
85612 Off ch=1 n=f6 v=64
85612 On ch=1 n=e6 v=94
85612 On ch=1 n=c6 v=94
85612 On ch=1 n=g5 v=94
85769 Off ch=1 n=g5 v=64
85769 Off ch=1 n=c6 v=64
85769 Off ch=1 n=e6 v=64
85772 On ch=1 n=c7 v=94
85772 On ch=1 n=f#6 v=94
85772 On ch=1 n=d6 v=94
85772 On ch=1 n=c6 v=94
85932 Off ch=1 n=c6 v=64
85932 Off ch=1 n=d6 v=64
85932 Off ch=1 n=f#6 v=64
85932 Off ch=1 n=c7 v=64
85932 On ch=1 n=c7 v=94
85932 On ch=1 n=f#6 v=94
85932 On ch=1 n=d6 v=94
85932 On ch=1 n=c6 v=94
86092 Off ch=1 n=c6 v=64
86092 Off ch=1 n=d6 v=64
86092 Off ch=1 n=f#6 v=64
86092 Off ch=1 n=c7 v=64
86092 On ch=1 n=b6 v=94
86092 On ch=1 n=g6 v=94
86092 On ch=1 n=b5 v=94
86249 Off ch=1 n=b5 v=64
86249 Off ch=1 n=g6 v=64
86249 Off ch=1 n=b6 v=64
86252 On ch=1 n=f7 v=94
86252 On ch=1 n=b6 v=94
86252 On ch=1 n=g6 v=94
86252 On ch=1 n=f6 v=94
86412 Off ch=1 n=f6 v=64
86412 Off ch=1 n=g6 v=64
86412 Off ch=1 n=b6 v=64
86412 Off ch=1 n=f7 v=64
86412 On ch=1 n=f7 v=94
86412 On ch=1 n=b6 v=94
86412 On ch=1 n=g6 v=94
86412 On ch=1 n=f6 v=94
86569 Off ch=1 n=f6 v=64
86569 Off ch=1 n=g6 v=64
86569 Off ch=1 n=b6 v=64
86569 Off ch=1 n=f7 v=64
86572 On ch=1 n=d6 v=94
86572 On ch=1 n=a#5 v=94
86732 Off ch=1 n=a#5 v=64
86732 Off ch=1 n=d6 v=64
86732 On ch=1 n=g#6 v=94
86732 On ch=1 n=b5 v=94
86892 Off ch=1 n=b5 v=64
86892 Off ch=1 n=g#6 v=64
86892 On ch=1 n=f6 v=94
86892 On ch=1 n=c#6 v=94
87052 Off ch=1 n=c#6 v=64
87052 Off ch=1 n=f6 v=64
87052 On ch=1 n=b6 v=94
87052 On ch=1 n=d6 v=94
87212 Off ch=1 n=d6 v=64
87212 Off ch=1 n=b6 v=64
87212 On ch=1 n=g#6 v=94
87212 On ch=1 n=e6 v=94
87372 Off ch=1 n=e6 v=64
87372 Off ch=1 n=g#6 v=64
87372 On ch=1 n=d7 v=94
87372 On ch=1 n=f6 v=94
87532 Off ch=1 n=f6 v=64
87532 Off ch=1 n=d7 v=64
87532 On ch=1 n=b6 v=94
87532 On ch=1 n=g6 v=94
87692 Off ch=1 n=g6 v=64
87692 Off ch=1 n=b6 v=64
87692 On ch=1 n=f7 v=94
87692 On ch=1 n=g#6 v=94
87852 Off ch=1 n=g#6 v=64
87852 Off ch=1 n=f7 v=64
87852 On ch=1 n=d7 v=94
87852 On ch=1 n=a#6 v=94
88012 Off ch=1 n=a#6 v=64
88012 Off ch=1 n=d7 v=64
88012 On ch=1 n=g#7 v=94
88012 On ch=1 n=b6 v=94
88172 Off ch=1 n=b6 v=64
88172 Off ch=1 n=g#7 v=64
88172 On ch=1 n=b7 v=94
88172 On ch=1 n=b6 v=94
88332 Off ch=1 n=b6 v=64
88332 Off ch=1 n=b7 v=64
88332 On ch=1 n=c8 v=94
88332 On ch=1 n=c7 v=94
88489 Off ch=1 n=c7 v=64
88489 Off ch=1 n=c8 v=64
88492 On ch=1 n=c6 v=94
88492 On ch=1 n=g5 v=94
88492 On ch=1 n=c5 v=94
88649 Off ch=1 n=c5 v=64
88649 Off ch=1 n=g5 v=64
88649 Off ch=1 n=c6 v=64
88652 On ch=1 n=c6 v=94
88652 On ch=1 n=g5 v=94
88652 On ch=1 n=c5 v=94
88809 Off ch=1 n=c5 v=64
88809 Off ch=1 n=g5 v=64
88809 Off ch=1 n=c6 v=64
88812 On ch=1 n=c6 v=94
88812 On ch=1 n=g5 v=94
88812 On ch=1 n=c5 v=94
88969 Off ch=1 n=c5 v=64
88969 Off ch=1 n=g5 v=64
88969 Off ch=1 n=c6 v=64
88972 On ch=1 n=c6 v=94
88972 On ch=1 n=g#5 v=94
88972 On ch=1 n=c5 v=94
89129 Off ch=1 n=c5 v=64
89129 Off ch=1 n=g#5 v=64
89129 Off ch=1 n=c6 v=64
89132 On ch=1 n=c6 v=94
89132 On ch=1 n=g#5 v=94
89132 On ch=1 n=c5 v=94
89289 Off ch=1 n=c5 v=64
89289 Off ch=1 n=g#5 v=64
89289 Off ch=1 n=c6 v=64
89292 On ch=1 n=c6 v=94
89292 On ch=1 n=g#5 v=94
89292 On ch=1 n=c5 v=94
89449 Off ch=1 n=c5 v=64
89449 Off ch=1 n=g#5 v=64
89449 Off ch=1 n=c6 v=64
89452 On ch=1 n=c6 v=94
89452 On ch=1 n=g#5 v=94
89452 On ch=1 n=c5 v=94
89609 Off ch=1 n=c5 v=64
89609 Off ch=1 n=g#5 v=64
89609 Off ch=1 n=c6 v=64
89612 On ch=1 n=c6 v=94
89612 On ch=1 n=g#5 v=94
89612 On ch=1 n=c5 v=94
89769 Off ch=1 n=c5 v=64
89769 Off ch=1 n=g#5 v=64
89769 Off ch=1 n=c6 v=64
89772 On ch=1 n=c6 v=94
89772 On ch=1 n=g#5 v=94
89772 On ch=1 n=c5 v=94
89904 Par ch=1 c=7 v=95
89929 Off ch=1 n=c5 v=64
89929 Off ch=1 n=g#5 v=64
89929 Off ch=1 n=c6 v=64
89932 On ch=1 n=c6 v=95
89932 On ch=1 n=g#5 v=95
89932 On ch=1 n=c5 v=95
90038 Par ch=1 c=7 v=96
90089 Off ch=1 n=c5 v=64
90089 Off ch=1 n=g#5 v=64
90089 Off ch=1 n=c6 v=64
90092 On ch=1 n=c6 v=96
90092 On ch=1 n=g#5 v=96
90092 On ch=1 n=c5 v=96
90170 Par ch=1 c=7 v=97
90249 Off ch=1 n=c5 v=64
90249 Off ch=1 n=g#5 v=64
90249 Off ch=1 n=c6 v=64
90252 On ch=1 n=c6 v=97
90252 On ch=1 n=g#5 v=97
90252 On ch=1 n=c5 v=97
90304 Par ch=1 c=7 v=98
90409 Off ch=1 n=c5 v=64
90409 Off ch=1 n=g#5 v=64
90409 Off ch=1 n=c6 v=64
90412 On ch=1 n=c6 v=98
90412 On ch=1 n=a5 v=98
90412 On ch=1 n=c5 v=98
90438 Par ch=1 c=7 v=99
90569 Off ch=1 n=c5 v=64
90569 Off ch=1 n=a5 v=64
90569 Off ch=1 n=c6 v=64
90570 Par ch=1 c=7 v=100
90572 On ch=1 n=c6 v=99
90572 On ch=1 n=a5 v=99
90572 On ch=1 n=c5 v=99
90704 Par ch=1 c=7 v=101
90729 Off ch=1 n=c5 v=64
90729 Off ch=1 n=a5 v=64
90729 Off ch=1 n=c6 v=64
90732 On ch=1 n=c6 v=100
90732 On ch=1 n=a5 v=100
90732 On ch=1 n=c5 v=100
90838 Par ch=1 c=7 v=102
90889 Off ch=1 n=c5 v=64
90889 Off ch=1 n=a5 v=64
90889 Off ch=1 n=c6 v=64
90892 On ch=1 n=c#6 v=101
90892 On ch=1 n=a5 v=101
90892 On ch=1 n=c#5 v=101
90970 Par ch=1 c=7 v=103
91049 Off ch=1 n=c#5 v=64
91049 Off ch=1 n=a5 v=64
91049 Off ch=1 n=c#6 v=64
91052 On ch=1 n=c#6 v=102
91052 On ch=1 n=a5 v=102
91052 On ch=1 n=c#5 v=102
91104 Par ch=1 c=7 v=104
91209 Off ch=1 n=c#5 v=64
91209 Off ch=1 n=a5 v=64
91209 Off ch=1 n=c#6 v=64
91212 On ch=1 n=c#6 v=103
91212 On ch=1 n=a5 v=103
91212 On ch=1 n=c#5 v=103
91238 Par ch=1 c=7 v=105
91369 Off ch=1 n=c#5 v=64
91369 Off ch=1 n=a5 v=64
91369 Off ch=1 n=c#6 v=64
91370 Par ch=1 c=7 v=106
91372 On ch=1 n=c#6 v=104
91372 On ch=1 n=a5 v=104
91372 On ch=1 n=c#5 v=104
91504 Par ch=1 c=7 v=107
91529 Off ch=1 n=c#5 v=64
91529 Off ch=1 n=a5 v=64
91529 Off ch=1 n=c#6 v=64
91532 On ch=1 n=c#6 v=105
91532 On ch=1 n=a5 v=105
91532 On ch=1 n=c#5 v=105
91638 Par ch=1 c=7 v=108
91689 Off ch=1 n=c#5 v=64
91689 Off ch=1 n=a5 v=64
91689 Off ch=1 n=c#6 v=64
91692 On ch=1 n=c#6 v=106
91692 On ch=1 n=a5 v=106
91692 On ch=1 n=c#5 v=106
91770 Par ch=1 c=7 v=109
91849 Off ch=1 n=c#5 v=64
91849 Off ch=1 n=a5 v=64
91849 Off ch=1 n=c#6 v=64
91852 On ch=1 n=c#6 v=107
91852 On ch=1 n=g#5 v=107
91852 On ch=1 n=c#5 v=107
91904 Par ch=1 c=7 v=110
92009 Off ch=1 n=c#5 v=64
92009 Off ch=1 n=g#5 v=64
92009 Off ch=1 n=c#6 v=64
92012 On ch=1 n=c#6 v=108
92012 On ch=1 n=g5 v=108
92012 On ch=1 n=c#5 v=108
92038 Par ch=1 c=7 v=111
92169 Off ch=1 n=c#5 v=64
92169 Off ch=1 n=g5 v=64
92169 Off ch=1 n=c#6 v=64
92170 Par ch=1 c=7 v=112
92172 Par ch=1 c=7 v=112
92172 On ch=1 n=c#6 v=112
92172 On ch=1 n=g#5 v=112
92172 On ch=1 n=c#5 v=112
92332 Off ch=1 n=c#5 v=64
92332 Off ch=1 n=g#5 v=64
92332 Off ch=1 n=c#6 v=64
92332 On ch=1 n=f6 v=112
92332 On ch=1 n=g#5 v=112
92332 On ch=1 n=f5 v=112
92492 Off ch=1 n=f5 v=64
92492 Off ch=1 n=g#5 v=64
92492 Off ch=1 n=f6 v=64
92492 On ch=1 n=f6 v=112
92492 On ch=1 n=g#5 v=112
92492 On ch=1 n=f5 v=112
92649 Off ch=1 n=f5 v=64
92649 Off ch=1 n=g#5 v=64
92649 Off ch=1 n=f6 v=64
92652 On ch=1 n=f6 v=112
92652 On ch=1 n=g#5 v=112
92652 On ch=1 n=f5 v=112
92812 Off ch=1 n=f5 v=64
92812 Off ch=1 n=g#5 v=64
92812 Off ch=1 n=f6 v=64
92812 On ch=1 n=d#6 v=112
92812 On ch=1 n=d#5 v=112
92972 Off ch=1 n=d#5 v=64
92972 Off ch=1 n=d#6 v=64
92972 On ch=1 n=c#6 v=112
92972 On ch=1 n=c#5 v=112
93129 Off ch=1 n=c#5 v=64
93129 Off ch=1 n=c#6 v=64
93292 On ch=1 n=f6 v=112
93292 On ch=1 n=a#5 v=112
93292 On ch=1 n=f5 v=112
93452 Off ch=1 n=f5 v=64
93452 Off ch=1 n=a#5 v=64
93452 Off ch=1 n=f6 v=64
93452 On ch=1 n=f6 v=112
93452 On ch=1 n=a#5 v=112
93452 On ch=1 n=f5 v=112
93609 Off ch=1 n=f5 v=64
93609 Off ch=1 n=a#5 v=64
93609 Off ch=1 n=f6 v=64
93612 On ch=1 n=f6 v=112
93612 On ch=1 n=a#5 v=112
93612 On ch=1 n=f5 v=112
93772 Off ch=1 n=f5 v=64
93772 Off ch=1 n=a#5 v=64
93772 Off ch=1 n=f6 v=64
93772 On ch=1 n=d#6 v=112
93772 On ch=1 n=d#5 v=112
93932 Off ch=1 n=d#5 v=64
93932 Off ch=1 n=d#6 v=64
93932 On ch=1 n=c#6 v=112
93932 On ch=1 n=c#5 v=112
94089 Off ch=1 n=c#5 v=64
94089 Off ch=1 n=c#6 v=64
94252 On ch=1 n=f5 v=112
94252 On ch=1 n=g#5 v=112
94252 On ch=1 n=f6 v=112
94412 Off ch=1 n=f6 v=64
94412 Off ch=1 n=g#5 v=64
94412 Off ch=1 n=f5 v=64
94412 On ch=1 n=f5 v=112
94412 On ch=1 n=g#5 v=112
94412 On ch=1 n=f6 v=112
94569 Off ch=1 n=f6 v=64
94569 Off ch=1 n=g#5 v=64
94569 Off ch=1 n=f5 v=64
94572 On ch=1 n=f5 v=112
94572 On ch=1 n=g#5 v=112
94572 On ch=1 n=f6 v=112
94732 Off ch=1 n=f6 v=64
94732 Off ch=1 n=g#5 v=64
94732 Off ch=1 n=f5 v=64
94732 On ch=1 n=d#5 v=112
94732 On ch=1 n=d#6 v=112
94892 Off ch=1 n=d#6 v=64
94892 Off ch=1 n=d#5 v=64
94892 On ch=1 n=c#6 v=112
94892 On ch=1 n=c#5 v=112
95049 Off ch=1 n=c#5 v=64
95049 Off ch=1 n=c#6 v=64
95212 On ch=1 n=f5 v=112
95212 On ch=1 n=g5 v=112
95212 On ch=1 n=f6 v=112
95372 Off ch=1 n=f6 v=64
95372 Off ch=1 n=g5 v=64
95372 Off ch=1 n=f5 v=64
95372 On ch=1 n=f5 v=112
95372 On ch=1 n=g5 v=112
95372 On ch=1 n=f6 v=112
95529 Off ch=1 n=f6 v=64
95529 Off ch=1 n=g5 v=64
95529 Off ch=1 n=f5 v=64
95532 On ch=1 n=f5 v=112
95532 On ch=1 n=g5 v=112
95532 On ch=1 n=f6 v=112
95692 Off ch=1 n=f6 v=64
95692 Off ch=1 n=g5 v=64
95692 Off ch=1 n=f5 v=64
95692 On ch=1 n=d#5 v=112
95692 On ch=1 n=d#6 v=112
95852 Off ch=1 n=d#6 v=64
95852 Off ch=1 n=d#5 v=64
95852 On ch=1 n=c#6 v=112
95852 On ch=1 n=c#5 v=112
96009 Off ch=1 n=c#5 v=64
96009 Off ch=1 n=c#6 v=64
96012 On ch=1 n=d#5 v=112
96012 On ch=1 n=c#5 v=112
96012 On ch=1 n=g4 v=112
96012 On ch=1 n=d#4 v=112
96072 Par ch=1 c=7 v=111
96132 Par ch=1 c=7 v=110
96192 Par ch=1 c=7 v=109
96252 Par ch=1 c=7 v=108
96312 Par ch=1 c=7 v=107
96372 Par ch=1 c=7 v=106
96432 Par ch=1 c=7 v=105
96492 Par ch=1 c=7 v=104
96552 Par ch=1 c=7 v=103
96612 Par ch=1 c=7 v=102
96672 Par ch=1 c=7 v=101
96732 Par ch=1 c=7 v=100
96792 Par ch=1 c=7 v=99
96852 Par ch=1 c=7 v=98
96912 Par ch=1 c=7 v=97
96972 Par ch=1 c=7 v=96
97032 Par ch=1 c=7 v=95
97092 Par ch=1 c=7 v=94
97152 Par ch=1 c=7 v=93
97212 Par ch=1 c=7 v=92
97272 Par ch=1 c=7 v=91
97332 Par ch=1 c=7 v=90
97392 Par ch=1 c=7 v=89
97452 Par ch=1 c=7 v=88
97512 Par ch=1 c=7 v=87
97572 Par ch=1 c=7 v=86
97632 Par ch=1 c=7 v=85
97692 Par ch=1 c=7 v=84
97752 Par ch=1 c=7 v=83
97812 Par ch=1 c=7 v=82
97872 Off ch=1 n=d#4 v=64
97872 Off ch=1 n=g4 v=64
97872 Off ch=1 n=c#5 v=64
97872 Off ch=1 n=d#5 v=64
97872 Par ch=1 c=7 v=81
97932 On ch=1 n=f5 v=80
97932 On ch=1 n=c5 v=80
97932 Par ch=1 c=7 v=80
97992 Par ch=1 c=7 v=79
98052 Par ch=1 c=7 v=78
98112 Par ch=1 c=7 v=77
98172 Par ch=1 c=7 v=76
98232 Par ch=1 c=7 v=75
98292 Par ch=1 c=7 v=74
98352 Par ch=1 c=7 v=73
98412 Par ch=1 c=7 v=72
98472 Par ch=1 c=7 v=71
98532 Par ch=1 c=7 v=70
98592 Par ch=1 c=7 v=69
98652 Par ch=1 c=7 v=68
98712 Par ch=1 c=7 v=67
98772 Par ch=1 c=7 v=66
98832 Par ch=1 c=7 v=65
98892 Par ch=1 c=7 v=64
98952 Par ch=1 c=7 v=63
99012 Par ch=1 c=7 v=62
99072 Par ch=1 c=7 v=61
99132 Par ch=1 c=7 v=60
99192 Par ch=1 c=7 v=59
99252 Par ch=1 c=7 v=58
99312 Par ch=1 c=7 v=57
99372 Par ch=1 c=7 v=56
99432 Par ch=1 c=7 v=55
99492 Par ch=1 c=7 v=54
99552 Par ch=1 c=7 v=53
99612 Par ch=1 c=7 v=52
99672 Par ch=1 c=7 v=51
99732 Par ch=1 c=7 v=50
99789 Off ch=1 n=f5 v=64
99792 Off ch=1 n=c5 v=64
99792 On ch=1 n=f#5 v=49
99792 Par ch=1 c=7 v=49
99849 Off ch=1 n=f#5 v=64
99852 Par ch=1 c=7 v=48
99852 On ch=1 n=f#4 v=48
99852 On ch=1 n=c#5 v=48
99852 On ch=1 n=f#5 v=48
100752 Off ch=1 n=f#5 v=64
100752 Off ch=1 n=c#5 v=64
100752 Off ch=1 n=f#4 v=64
102732 On ch=1 n=d5 v=48
102732 On ch=1 n=c5 v=48
102732 On ch=1 n=a5 v=48
103152 Off ch=1 n=a5 v=64
103212 On ch=1 n=a#5 v=48
103632 Off ch=1 n=a#5 v=64
103632 Off ch=1 n=c5 v=64
103692 On ch=1 n=b4 v=48
103692 On ch=1 n=b5 v=48
104012 Off ch=1 n=b5 v=64
104052 On ch=1 n=d5 v=48
104169 Off ch=1 n=d5 v=64
104172 On ch=1 n=d5 v=48
104592 Off ch=1 n=d5 v=64
104592 Off ch=1 n=b4 v=64
104652 Par ch=1 c=7 v=30
110412 Par ch=1 c=7 v=76
110412 On ch=1 n=b5 v=76
110412 On ch=1 n=e5 v=76
110412 On ch=1 n=d5 v=76
110464 Par ch=1 c=7 v=77
110518 Par ch=1 c=7 v=78
110572 Par ch=1 c=7 v=79
110624 Par ch=1 c=7 v=80
110678 Par ch=1 c=7 v=81
110732 Par ch=1 c=7 v=82
110784 Par ch=1 c=7 v=83
110832 Off ch=1 n=b5 v=64
110838 Par ch=1 c=7 v=84
110892 Par ch=1 c=7 v=85
110892 On ch=1 n=c6 v=77
110944 Par ch=1 c=7 v=86
110998 Par ch=1 c=7 v=87
111052 Par ch=1 c=7 v=88
111104 Par ch=1 c=7 v=89
111158 Par ch=1 c=7 v=90
111212 Par ch=1 c=7 v=91
111264 Par ch=1 c=7 v=92
111312 Off ch=1 n=c6 v=64
111312 Off ch=1 n=d5 v=64
111312 Off ch=1 n=e5 v=64
111318 Par ch=1 c=7 v=93
111372 On ch=1 n=c#5 v=94
111372 Par ch=1 c=7 v=94
111372 On ch=1 n=c#6 v=94
111372 On ch=1 n=e5 v=94
111403 Par ch=1 c=7 v=93
111435 Par ch=1 c=7 v=92
111467 Par ch=1 c=7 v=91
111499 Par ch=1 c=7 v=90
111532 Par ch=1 c=7 v=89
111563 Par ch=1 c=7 v=88
111595 Par ch=1 c=7 v=87
111627 Par ch=1 c=7 v=86
111659 Par ch=1 c=7 v=85
111692 Off ch=1 n=e5 v=64
111692 Off ch=1 n=c#6 v=64
111692 Par ch=1 c=7 v=84
111723 Par ch=1 c=7 v=83
111732 On ch=1 n=f5 v=93
111755 Par ch=1 c=7 v=82
111787 Par ch=1 c=7 v=81
111819 Par ch=1 c=7 v=80
111849 Off ch=1 n=f5 v=64
111852 On ch=1 n=f5 v=92
111852 Par ch=1 c=7 v=79
111883 Par ch=1 c=7 v=78
111915 Par ch=1 c=7 v=77
111947 Par ch=1 c=7 v=76
111979 Par ch=1 c=7 v=75
112012 Par ch=1 c=7 v=74
112043 Par ch=1 c=7 v=73
112075 Par ch=1 c=7 v=72
112107 Par ch=1 c=7 v=71
112139 Par ch=1 c=7 v=70
112172 Par ch=1 c=7 v=69
112203 Par ch=1 c=7 v=68
112235 Par ch=1 c=7 v=67
112267 Par ch=1 c=7 v=66
112299 Par ch=1 c=7 v=65
112332 Par ch=1 c=7 v=64
113232 Off ch=1 n=c#5 v=64
113232 Off ch=1 n=f5 v=64
113292 On ch=1 n=c#6 v=64
113292 On ch=1 n=f5 v=64
113292 On ch=1 n=c#5 v=64
113355 Par ch=1 c=7 v=65
113419 Par ch=1 c=7 v=66
113483 Par ch=1 c=7 v=67
113547 Par ch=1 c=7 v=68
113612 Par ch=1 c=7 v=69
113652 Off ch=1 n=f5 v=64
113652 Off ch=1 n=c#6 v=64
113652 On ch=1 n=f#5 v=65
113675 Par ch=1 c=7 v=70
113739 Par ch=1 c=7 v=71
113772 Off ch=1 n=f#5 v=64
113772 On ch=1 n=f#5 v=66
113803 Par ch=1 c=7 v=72
113867 Par ch=1 c=7 v=73
113932 Par ch=1 c=7 v=74
113995 Par ch=1 c=7 v=75
114059 Par ch=1 c=7 v=76
114123 Par ch=1 c=7 v=77
114187 Par ch=1 c=7 v=78
114192 Off ch=1 n=f#5 v=64
114192 Off ch=1 n=c#5 v=64
114252 Par ch=1 c=7 v=79
114252 On ch=1 n=d6 v=67
114252 On ch=1 n=f#5 v=67
114252 On ch=1 n=d5 v=67
114315 Par ch=1 c=7 v=80
114379 Par ch=1 c=7 v=81
114443 Par ch=1 c=7 v=82
114507 Par ch=1 c=7 v=83
114572 Par ch=1 c=7 v=84
114612 Off ch=1 n=f#5 v=64
114612 Off ch=1 n=d6 v=64
114612 On ch=1 n=g5 v=68
114635 Par ch=1 c=7 v=85
114699 Par ch=1 c=7 v=86
114732 Off ch=1 n=g5 v=64
114732 On ch=1 n=g5 v=69
114763 Par ch=1 c=7 v=87
114827 Par ch=1 c=7 v=88
114892 Par ch=1 c=7 v=89
114955 Par ch=1 c=7 v=90
115019 Par ch=1 c=7 v=91
115083 Par ch=1 c=7 v=92
115147 Par ch=1 c=7 v=93
115152 Off ch=1 n=g5 v=64
115152 Off ch=1 n=d5 v=64
115212 Par ch=1 c=7 v=94
115212 On ch=1 n=d#6 v=94
115212 On ch=1 n=g5 v=94
115212 On ch=1 n=f5 v=94
115872 Off ch=1 n=d#6 v=64
115932 On ch=1 n=d6 v=94
116112 Off ch=1 n=f5 v=64
116112 Off ch=1 n=g5 v=64
116132 Off ch=1 n=d6 v=64
116172 On ch=1 n=d6 v=94
116172 On ch=1 n=g5 v=94
116172 On ch=1 n=d#5 v=94
116492 Off ch=1 n=d6 v=64
116532 On ch=1 n=c6 v=94
116592 Off ch=1 n=d#5 v=64
116592 Off ch=1 n=g5 v=64
116652 On ch=1 n=f5 v=94
116972 Off ch=1 n=c6 v=64
117012 On ch=1 n=a#5 v=94
117072 Off ch=1 n=f5 v=64
117129 Off ch=1 n=a#5 v=64
117132 On ch=1 n=a#5 v=94
117132 On ch=1 n=d#5 v=94
117132 On ch=1 n=c5 v=94
117452 Off ch=1 n=a#5 v=64
117492 On ch=1 n=g#5 v=94
117609 Off ch=1 n=g#5 v=64
117612 On ch=1 n=g#5 v=94
117769 Off ch=1 n=g#5 v=64
117772 On ch=1 n=c6 v=94
117929 Off ch=1 n=c6 v=64
117932 On ch=1 n=a#5 v=94
118032 Off ch=1 n=c5 v=64
118032 Off ch=1 n=d#5 v=64
118089 Off ch=1 n=a#5 v=64
118092 On ch=1 n=g#5 v=94
118092 On ch=1 n=b4 v=94
118512 Off ch=1 n=g#5 v=64
118572 On ch=1 n=g5 v=94
118772 Off ch=1 n=g5 v=64
118812 On ch=1 n=g6 v=94
118812 On ch=1 n=g5 v=94
118992 Off ch=1 n=b4 v=64
119012 Off ch=1 n=g5 v=64
119012 Off ch=1 n=g6 v=64
119052 On ch=1 n=a#5 v=94
119052 On ch=1 n=a#4 v=94
119169 Off ch=1 n=a#4 v=64
119169 Off ch=1 n=a#5 v=64
119172 On ch=1 n=a5 v=95
119172 On ch=1 n=c#5 v=95
119264 Par ch=1 c=7 v=95
119289 Off ch=1 n=c#5 v=64
119289 Off ch=1 n=a5 v=64
119412 On ch=1 n=g5 v=97
119412 On ch=1 n=a4 v=97
119478 Par ch=1 c=7 v=96
119529 Off ch=1 n=a4 v=64
119529 Off ch=1 n=g5 v=64
119532 On ch=1 n=f#5 v=98
119532 On ch=1 n=d5 v=98
119652 Off ch=1 n=d5 v=64
119652 Off ch=1 n=f#5 v=64
119652 On ch=1 n=a5 v=99
119652 On ch=1 n=a4 v=99
119692 Par ch=1 c=7 v=97
119769 Off ch=1 n=a4 v=64
119769 Off ch=1 n=a5 v=64
119892 On ch=1 n=c6 v=101
119892 On ch=1 n=c5 v=101
119904 Par ch=1 c=7 v=98
120012 Off ch=1 n=c5 v=64
120012 Off ch=1 n=c6 v=64
120012 On ch=1 n=c6 v=102
120012 On ch=1 n=c5 v=102
120118 Par ch=1 c=7 v=99
120132 Off ch=1 n=c5 v=64
120132 Off ch=1 n=c6 v=64
120132 On ch=1 n=b5 v=103
120132 On ch=1 n=d#5 v=103
120249 Off ch=1 n=d#5 v=64
120249 Off ch=1 n=b5 v=64
120332 Par ch=1 c=7 v=100
120372 On ch=1 n=a5 v=105
120372 On ch=1 n=b4 v=105
120492 Off ch=1 n=b4 v=64
120492 Off ch=1 n=a5 v=64
120492 On ch=1 n=g#5 v=106
120492 On ch=1 n=e5 v=106
120544 Par ch=1 c=7 v=101
120612 Off ch=1 n=e5 v=64
120612 Off ch=1 n=g#5 v=64
120612 On ch=1 n=b5 v=107
120612 On ch=1 n=b4 v=107
120729 Off ch=1 n=b4 v=64
120729 Off ch=1 n=b5 v=64
120758 Par ch=1 c=7 v=102
120852 On ch=1 n=d6 v=109
120852 On ch=1 n=d5 v=109
120972 Off ch=1 n=d5 v=64
120972 Off ch=1 n=d6 v=64
120972 Par ch=1 c=7 v=103
120972 On ch=1 n=d6 v=110
120972 On ch=1 n=d5 v=110
121092 Off ch=1 n=d5 v=64
121092 Off ch=1 n=d6 v=64
121092 On ch=1 n=c#6 v=111
121092 On ch=1 n=f5 v=111
121184 Par ch=1 c=7 v=104
121209 Off ch=1 n=f5 v=64
121209 Off ch=1 n=c#6 v=64
121332 On ch=1 n=b5 v=113
121332 On ch=1 n=c#5 v=113
121398 Par ch=1 c=7 v=105
121449 Off ch=1 n=c#5 v=64
121449 Off ch=1 n=b5 v=64
121452 On ch=1 n=a#5 v=114
121452 On ch=1 n=f#5 v=114
121609 Off ch=1 n=f#5 v=64
121609 Off ch=1 n=a#5 v=64
121612 Par ch=1 c=7 v=106
121612 On ch=1 n=c#6 v=115
121612 On ch=1 n=c#5 v=115
121769 Off ch=1 n=c#5 v=64
121769 Off ch=1 n=c#6 v=64
121772 On ch=1 n=c#6 v=116
121772 On ch=1 n=a#5 v=116
121824 Par ch=1 c=7 v=107
121929 Off ch=1 n=a#5 v=64
121929 Off ch=1 n=c#6 v=64
121932 On ch=1 n=e6 v=117
121932 On ch=1 n=e5 v=117
122038 Par ch=1 c=7 v=108
122089 Off ch=1 n=e5 v=64
122089 Off ch=1 n=e6 v=64
122092 On ch=1 n=e6 v=118
122092 On ch=1 n=c#6 v=118
122249 Off ch=1 n=c#6 v=64
122249 Off ch=1 n=e6 v=64
122252 Par ch=1 c=7 v=109
122252 On ch=1 n=a#6 v=119
122252 On ch=1 n=a#5 v=119
122409 Off ch=1 n=a#5 v=64
122409 Off ch=1 n=a#6 v=64
122412 On ch=1 n=c#7 v=120
122412 On ch=1 n=g#6 v=120
122464 Par ch=1 c=7 v=110
122569 Off ch=1 n=g#6 v=64
122569 Off ch=1 n=c#7 v=64
122572 On ch=1 n=e7 v=121
122572 On ch=1 n=e6 v=121
122678 Par ch=1 c=7 v=111
122729 Off ch=1 n=e6 v=64
122729 Off ch=1 n=e7 v=64
122732 On ch=1 n=e8 v=122
122732 On ch=1 n=e7 v=122
122889 Off ch=1 n=e7 v=64
122889 Off ch=1 n=e8 v=64
122892 Par ch=1 c=7 v=112
122892 Par ch=1 c=7 v=112
122892 Par ch=1 c=7 v=94
122892 On ch=1 n=c6 v=94
122892 On ch=1 n=e5 v=94
122892 On ch=1 n=c5 v=94
123552 Off ch=1 n=c6 v=64
123612 On ch=1 n=a#5 v=94
123612 On ch=1 n=a#4 v=94
123792 Off ch=1 n=c5 v=64
123792 Off ch=1 n=e5 v=64
123812 Off ch=1 n=a#4 v=64
123812 Off ch=1 n=a#5 v=64
123852 On ch=1 n=a#5 v=94
123852 On ch=1 n=f5 v=94
123852 On ch=1 n=c5 v=94
123852 On ch=1 n=a#4 v=94
124272 Off ch=1 n=a#4 v=64
124272 Off ch=1 n=a#5 v=64
124332 On ch=1 n=g#5 v=94
124332 On ch=1 n=g#4 v=94
124692 Off ch=1 n=g#4 v=64
124692 Off ch=1 n=g#5 v=64
124692 Off ch=1 n=c5 v=64
124692 Off ch=1 n=f5 v=64
124692 On ch=1 n=g#5 v=94
124692 On ch=1 n=f5 v=94
124692 On ch=1 n=c5 v=94
124692 On ch=1 n=g#4 v=94
124809 Off ch=1 n=g#4 v=64
124809 Off ch=1 n=c5 v=64
124809 Off ch=1 n=f5 v=64
124809 Off ch=1 n=g#5 v=64
124812 On ch=1 n=g#5 v=94
124812 On ch=1 n=e5 v=94
124812 On ch=1 n=c#5 v=94
124812 On ch=1 n=g#4 v=94
125132 Off ch=1 n=g#4 v=64
125132 Off ch=1 n=g#5 v=64
125172 On ch=1 n=g5 v=94
125172 On ch=1 n=g4 v=94
125289 Off ch=1 n=g4 v=64
125289 Off ch=1 n=g5 v=64
125289 Off ch=1 n=c#5 v=64
125289 Off ch=1 n=e5 v=64
125292 On ch=1 n=g5 v=94
125292 On ch=1 n=g4 v=94
125449 Off ch=1 n=g4 v=64
125449 Off ch=1 n=g5 v=64
125452 On ch=1 n=f5 v=94
125452 On ch=1 n=f4 v=94
125609 Off ch=1 n=f4 v=64
125609 Off ch=1 n=f5 v=64
125612 On ch=1 n=e5 v=94
125612 On ch=1 n=e4 v=94
125769 Off ch=1 n=e4 v=64
125769 Off ch=1 n=e5 v=64
125772 On ch=1 n=g5 v=94
125772 On ch=1 n=d#5 v=94
125772 On ch=1 n=g4 v=94
126192 Off ch=1 n=g4 v=64
126192 Off ch=1 n=d#5 v=64
126192 Off ch=1 n=g5 v=64
126252 On ch=1 n=f#5 v=94
126252 On ch=1 n=f#4 v=94
126452 Off ch=1 n=f#4 v=64
126452 Off ch=1 n=f#5 v=64
126492 On ch=1 n=a6 v=94
126492 On ch=1 n=a5 v=94
126692 Off ch=1 n=a5 v=64
126692 Off ch=1 n=a6 v=64
126732 On ch=1 n=c6 v=94
126732 On ch=1 n=c5 v=94
126852 Off ch=1 n=c5 v=64
126852 Off ch=1 n=c6 v=64
126852 On ch=1 n=b5 v=95
126852 On ch=1 n=f#5 v=95
126932 Par ch=1 c=7 v=95
126969 Off ch=1 n=f#5 v=64
126969 Off ch=1 n=b5 v=64
127092 On ch=1 n=a5 v=97
127092 On ch=1 n=b4 v=97
127132 Par ch=1 c=7 v=96
127212 Off ch=1 n=b4 v=64
127212 Off ch=1 n=a5 v=64
127212 On ch=1 n=g#5 v=98
127212 On ch=1 n=d#5 v=98
127332 Off ch=1 n=d#5 v=64
127332 Off ch=1 n=g#5 v=64
127332 Par ch=1 c=7 v=97
127332 On ch=1 n=b5 v=99
127332 On ch=1 n=b4 v=99
127449 Off ch=1 n=b4 v=64
127449 Off ch=1 n=b5 v=64
127532 Par ch=1 c=7 v=98
127572 On ch=1 n=d6 v=101
127572 On ch=1 n=d5 v=101
127689 Off ch=1 n=d5 v=64
127689 Off ch=1 n=d6 v=64
127692 On ch=1 n=d6 v=102
127692 On ch=1 n=d5 v=102
127732 Par ch=1 c=7 v=99
127812 Off ch=1 n=d5 v=64
127812 Off ch=1 n=d6 v=64
127812 On ch=1 n=c#6 v=103
127812 On ch=1 n=g#5 v=103
127929 Off ch=1 n=g#5 v=64
127929 Off ch=1 n=c#6 v=64
127932 Par ch=1 c=7 v=100
128052 On ch=1 n=b5 v=105
128052 On ch=1 n=c#5 v=105
128132 Par ch=1 c=7 v=101
128172 Off ch=1 n=c#5 v=64
128172 Off ch=1 n=b5 v=64
128172 On ch=1 n=a#5 v=106
128172 On ch=1 n=f#5 v=106
128289 Off ch=1 n=f#5 v=64
128289 Off ch=1 n=a#5 v=64
128292 On ch=1 n=c#6 v=107
128292 On ch=1 n=c#5 v=107
128332 Par ch=1 c=7 v=102
128409 Off ch=1 n=c#5 v=64
128409 Off ch=1 n=c#6 v=64
128532 On ch=1 n=e6 v=109
128532 On ch=1 n=e5 v=109
128532 Par ch=1 c=7 v=103
128652 Off ch=1 n=e5 v=64
128652 Off ch=1 n=e6 v=64
128652 On ch=1 n=e6 v=110
128652 On ch=1 n=e5 v=110
128732 Par ch=1 c=7 v=104
128772 Off ch=1 n=e5 v=64
128772 Off ch=1 n=e6 v=64
128772 On ch=1 n=d#6 v=111
128772 On ch=1 n=a#5 v=111
128889 Off ch=1 n=a#5 v=64
128889 Off ch=1 n=d#6 v=64
128932 Par ch=1 c=7 v=105
129012 On ch=1 n=c#6 v=113
129012 On ch=1 n=d#5 v=113
129129 Off ch=1 n=d#5 v=64
129129 Off ch=1 n=c#6 v=64
129132 Par ch=1 c=7 v=106
129132 On ch=1 n=c6 v=114
129132 On ch=1 n=f#5 v=114
129209 Off ch=1 n=f#5 v=64
129209 Off ch=1 n=c6 v=64
129212 On ch=1 n=d#6 v=115
129212 On ch=1 n=d#5 v=115
129289 Off ch=1 n=d#5 v=64
129289 Off ch=1 n=d#6 v=64
129292 On ch=1 n=d#6 v=116
129292 On ch=1 n=c6 v=116
129332 Par ch=1 c=7 v=107
129369 Off ch=1 n=c6 v=64
129369 Off ch=1 n=d#6 v=64
129372 On ch=1 n=f#6 v=117
129372 On ch=1 n=f#5 v=117
129529 Off ch=1 n=f#5 v=64
129529 Off ch=1 n=f#6 v=64
129532 On ch=1 n=f#6 v=118
129532 On ch=1 n=d#6 v=118
129532 Par ch=1 c=7 v=108
129689 Off ch=1 n=d#6 v=64
129689 Off ch=1 n=f#6 v=64
129692 On ch=1 n=a6 v=119
129692 On ch=1 n=a5 v=119
129732 Par ch=1 c=7 v=109
129849 Off ch=1 n=a5 v=64
129849 Off ch=1 n=a6 v=64
129852 On ch=1 n=a6 v=120
129852 On ch=1 n=f#6 v=120
129932 Par ch=1 c=7 v=110
130009 Off ch=1 n=f#6 v=64
130009 Off ch=1 n=a6 v=64
130012 On ch=1 n=d7 v=121
130012 On ch=1 n=d6 v=121
130132 Par ch=1 c=7 v=111
130169 Off ch=1 n=d6 v=64
130169 Off ch=1 n=d7 v=64
130172 On ch=1 n=f#7 v=122
130172 On ch=1 n=f#6 v=122
130329 Off ch=1 n=f#6 v=64
130329 Off ch=1 n=f#7 v=64
130332 Par ch=1 c=7 v=112
130332 On ch=1 n=g7 v=112
130332 On ch=1 n=d7 v=112
130449 Off ch=1 n=d7 v=64
130449 Off ch=1 n=g7 v=64
130452 On ch=1 n=a#6 v=112
130452 On ch=1 n=g6 v=112
130569 Off ch=1 n=g6 v=64
130569 Off ch=1 n=a#6 v=64
130692 On ch=1 n=c7 v=112
130692 On ch=1 n=a6 v=112
130812 Off ch=1 n=a6 v=64
130812 Off ch=1 n=c7 v=64
130812 On ch=1 n=d7 v=112
130812 On ch=1 n=a#6 v=112
130932 Off ch=1 n=a#6 v=64
130932 Off ch=1 n=d7 v=64
130932 On ch=1 n=g6 v=112
130932 On ch=1 n=d6 v=112
131049 Off ch=1 n=d6 v=64
131049 Off ch=1 n=g6 v=64
131292 On ch=1 n=d7 v=112
131292 On ch=1 n=a#6 v=112
131412 Off ch=1 n=a#6 v=64
131412 Off ch=1 n=d7 v=64
131412 On ch=1 n=g6 v=112
131412 On ch=1 n=d6 v=112
131529 Off ch=1 n=d6 v=64
131529 Off ch=1 n=g6 v=64
131652 On ch=1 n=a6 v=112
131652 On ch=1 n=f#6 v=112
131772 Off ch=1 n=f#6 v=64
131772 Off ch=1 n=a6 v=64
131772 On ch=1 n=a#6 v=112
131772 On ch=1 n=g6 v=112
131892 Off ch=1 n=g6 v=64
131892 Off ch=1 n=a#6 v=64
131892 On ch=1 n=g7 v=112
131892 On ch=1 n=d7 v=112
132009 Off ch=1 n=d7 v=64
132009 Off ch=1 n=g7 v=64
132252 On ch=1 n=f7 v=112
132252 On ch=1 n=c#7 v=112
132372 Off ch=1 n=c#7 v=64
132372 Off ch=1 n=f7 v=64
132372 On ch=1 n=a#6 v=112
132372 On ch=1 n=f6 v=112
132489 Off ch=1 n=f6 v=64
132489 Off ch=1 n=a#6 v=64
132612 On ch=1 n=c7 v=112
132612 On ch=1 n=a6 v=112
132732 Off ch=1 n=a6 v=64
132732 Off ch=1 n=c7 v=64
132732 On ch=1 n=c#7 v=112
132732 On ch=1 n=a#6 v=112
132852 Off ch=1 n=a#6 v=64
132852 Off ch=1 n=c#7 v=64
132852 On ch=1 n=f6 v=112
132852 On ch=1 n=c#6 v=112
132969 Off ch=1 n=c#6 v=64
132969 Off ch=1 n=f6 v=64
133212 On ch=1 n=f7 v=112
133212 On ch=1 n=c#7 v=112
133332 Off ch=1 n=c#7 v=64
133332 Off ch=1 n=f7 v=64
133332 On ch=1 n=a#6 v=112
133332 On ch=1 n=f6 v=112
133449 Off ch=1 n=f6 v=64
133449 Off ch=1 n=a#6 v=64
133572 On ch=1 n=c7 v=112
133572 On ch=1 n=a6 v=112
133692 Off ch=1 n=a6 v=64
133692 Off ch=1 n=c7 v=64
133692 On ch=1 n=c#7 v=112
133692 On ch=1 n=a#6 v=112
133812 Off ch=1 n=a#6 v=64
133812 Off ch=1 n=c#7 v=64
133812 On ch=1 n=a#7 v=112
133812 On ch=1 n=f7 v=112
133929 Off ch=1 n=f7 v=64
133929 Off ch=1 n=a#7 v=64
134172 On ch=1 n=f7 v=112
134172 On ch=1 n=c7 v=112
134292 Off ch=1 n=c7 v=64
134292 Off ch=1 n=f7 v=64
134292 On ch=1 n=g#6 v=112
134292 On ch=1 n=f6 v=112
134409 Off ch=1 n=f6 v=64
134409 Off ch=1 n=g#6 v=64
134532 On ch=1 n=b6 v=112
134532 On ch=1 n=g6 v=112
134652 Off ch=1 n=g6 v=64
134652 Off ch=1 n=b6 v=64
134652 On ch=1 n=c7 v=112
134652 On ch=1 n=g#6 v=112
134772 Off ch=1 n=g#6 v=64
134772 Off ch=1 n=c7 v=64
134772 On ch=1 n=f6 v=112
134772 On ch=1 n=c6 v=112
134889 Off ch=1 n=c6 v=64
134889 Off ch=1 n=f6 v=64
135132 On ch=1 n=c7 v=112
135132 On ch=1 n=g#6 v=112
135252 Off ch=1 n=g#6 v=64
135252 Off ch=1 n=c7 v=64
135252 On ch=1 n=f6 v=112
135252 On ch=1 n=c6 v=112
135369 Off ch=1 n=c6 v=64
135369 Off ch=1 n=f6 v=64
135492 On ch=1 n=g6 v=112
135492 On ch=1 n=e6 v=112
135612 Off ch=1 n=e6 v=64
135612 Off ch=1 n=g6 v=64
135612 On ch=1 n=g#6 v=112
135612 On ch=1 n=f6 v=112
135732 Off ch=1 n=f6 v=64
135732 Off ch=1 n=g#6 v=64
135732 On ch=1 n=f7 v=112
135732 On ch=1 n=c7 v=112
135849 Off ch=1 n=c7 v=64
135849 Off ch=1 n=f7 v=64
136092 On ch=1 n=e7 v=112
136092 On ch=1 n=c7 v=112
136212 Off ch=1 n=c7 v=64
136212 Off ch=1 n=e7 v=64
136212 On ch=1 n=g#6 v=112
136212 On ch=1 n=e6 v=112
136329 Off ch=1 n=e6 v=64
136329 Off ch=1 n=g#6 v=64
136452 On ch=1 n=a#6 v=112
136452 On ch=1 n=g6 v=112
136572 Off ch=1 n=g6 v=64
136572 Off ch=1 n=a#6 v=64
136572 On ch=1 n=c7 v=112
136572 On ch=1 n=g#6 v=112
136692 Off ch=1 n=g#6 v=64
136692 Off ch=1 n=c7 v=64
136692 On ch=1 n=e6 v=112
136692 On ch=1 n=c6 v=112
136809 Off ch=1 n=c6 v=64
136809 Off ch=1 n=e6 v=64
137052 On ch=1 n=c7 v=112
137052 On ch=1 n=g#6 v=112
137172 Off ch=1 n=g#6 v=64
137172 Off ch=1 n=c7 v=64
137172 On ch=1 n=e6 v=112
137172 On ch=1 n=c6 v=112
137289 Off ch=1 n=c6 v=64
137289 Off ch=1 n=e6 v=64
137412 On ch=1 n=g6 v=112
137412 On ch=1 n=d#6 v=112
137532 Off ch=1 n=d#6 v=64
137532 Off ch=1 n=g6 v=64
137532 On ch=1 n=g#6 v=112
137532 On ch=1 n=e6 v=112
137652 Off ch=1 n=e6 v=64
137652 Off ch=1 n=g#6 v=64
137652 On ch=1 n=e7 v=112
137652 On ch=1 n=c7 v=112
137769 Off ch=1 n=c7 v=64
137769 Off ch=1 n=e7 v=64
138012 On ch=1 n=e7 v=112
138012 On ch=1 n=b6 v=112
138132 Off ch=1 n=b6 v=64
138132 Off ch=1 n=e7 v=64
138132 On ch=1 n=g6 v=112
138132 On ch=1 n=e6 v=112
138249 Off ch=1 n=e6 v=64
138249 Off ch=1 n=g6 v=64
138372 On ch=1 n=a6 v=112
138372 On ch=1 n=f#6 v=112
138492 Off ch=1 n=f#6 v=64
138492 Off ch=1 n=a6 v=64
138492 On ch=1 n=b6 v=112
138492 On ch=1 n=g6 v=112
138612 Off ch=1 n=g6 v=64
138612 Off ch=1 n=b6 v=64
138612 On ch=1 n=e6 v=112
138612 On ch=1 n=b5 v=112
138729 Off ch=1 n=b5 v=64
138729 Off ch=1 n=e6 v=64
138972 On ch=1 n=b6 v=112
138972 On ch=1 n=g6 v=112
139092 Off ch=1 n=g6 v=64
139092 Off ch=1 n=b6 v=64
139092 On ch=1 n=e6 v=112
139092 On ch=1 n=b5 v=112
139209 Off ch=1 n=b5 v=64
139209 Off ch=1 n=e6 v=64
139332 On ch=1 n=f#6 v=112
139332 On ch=1 n=d#6 v=112
139452 Off ch=1 n=d#6 v=64
139452 Off ch=1 n=f#6 v=64
139452 On ch=1 n=g6 v=112
139452 On ch=1 n=e6 v=112
139572 Off ch=1 n=e6 v=64
139572 Off ch=1 n=g6 v=64
139572 On ch=1 n=e7 v=112
139572 On ch=1 n=b6 v=112
139689 Off ch=1 n=b6 v=64
139689 Off ch=1 n=e7 v=64
139932 On ch=1 n=d7 v=112
139932 On ch=1 n=b6 v=112
140052 Off ch=1 n=b6 v=64
140052 Off ch=1 n=d7 v=64
140052 On ch=1 n=g6 v=112
140052 On ch=1 n=d6 v=112
140169 Off ch=1 n=d6 v=64
140169 Off ch=1 n=g6 v=64
140292 On ch=1 n=a6 v=112
140292 On ch=1 n=f#6 v=112
140412 Off ch=1 n=f#6 v=64
140412 Off ch=1 n=a6 v=64
140412 On ch=1 n=b6 v=112
140412 On ch=1 n=g6 v=112
140532 Off ch=1 n=g6 v=64
140532 Off ch=1 n=b6 v=64
140532 On ch=1 n=d6 v=112
140532 On ch=1 n=b5 v=112
140649 Off ch=1 n=b5 v=64
140649 Off ch=1 n=d6 v=64
140892 On ch=1 n=d7 v=112
140892 On ch=1 n=b6 v=112
141012 Off ch=1 n=b6 v=64
141012 Off ch=1 n=d7 v=64
141012 On ch=1 n=g6 v=112
141012 On ch=1 n=d6 v=112
141129 Off ch=1 n=d6 v=64
141129 Off ch=1 n=g6 v=64
141252 On ch=1 n=a6 v=112
141252 On ch=1 n=f#6 v=112
141372 Off ch=1 n=f#6 v=64
141372 Off ch=1 n=a6 v=64
141372 On ch=1 n=b6 v=112
141372 On ch=1 n=g6 v=112
141492 Off ch=1 n=g6 v=64
141492 Off ch=1 n=b6 v=64
141492 On ch=1 n=g7 v=112
141492 On ch=1 n=d7 v=112
141609 Off ch=1 n=d7 v=64
141609 Off ch=1 n=g7 v=64
141852 On ch=1 n=c#7 v=112
141852 On ch=1 n=a6 v=112
141972 Off ch=1 n=a6 v=64
141972 Off ch=1 n=c#7 v=64
141972 On ch=1 n=f#6 v=112
141972 On ch=1 n=d6 v=112
142089 Off ch=1 n=d6 v=64
142089 Off ch=1 n=f#6 v=64
142212 On ch=1 n=g6 v=112
142212 On ch=1 n=e6 v=112
142332 Off ch=1 n=e6 v=64
142332 Off ch=1 n=g6 v=64
142332 On ch=1 n=a6 v=112
142332 On ch=1 n=f#6 v=112
142452 Off ch=1 n=f#6 v=64
142452 Off ch=1 n=a6 v=64
142452 On ch=1 n=d6 v=112
142452 On ch=1 n=a5 v=112
142569 Off ch=1 n=a5 v=64
142569 Off ch=1 n=d6 v=64
142812 On ch=1 n=a6 v=112
142812 On ch=1 n=f6 v=112
142932 Off ch=1 n=f6 v=64
142932 Off ch=1 n=a6 v=64
142932 On ch=1 n=d6 v=112
142932 On ch=1 n=a5 v=112
143049 Off ch=1 n=a5 v=64
143049 Off ch=1 n=d6 v=64
143172 On ch=1 n=e6 v=112
143172 On ch=1 n=c#6 v=112
143292 Off ch=1 n=c#6 v=64
143292 Off ch=1 n=e6 v=64
143292 On ch=1 n=f6 v=112
143292 On ch=1 n=d6 v=112
143412 Off ch=1 n=d6 v=64
143412 Off ch=1 n=f6 v=64
143412 On ch=1 n=d7 v=112
143412 On ch=1 n=a6 v=112
143529 Off ch=1 n=a6 v=64
143529 Off ch=1 n=d7 v=64
143772 On ch=1 n=f7 v=112
143772 On ch=1 n=c7 v=112
143772 On ch=1 n=a6 v=112
143932 Off ch=1 n=a6 v=64
143932 Off ch=1 n=c7 v=64
143932 Off ch=1 n=f7 v=64
143932 On ch=1 n=f#6 v=112
144092 Off ch=1 n=f#6 v=64
144092 On ch=1 n=c7 v=112
144092 On ch=1 n=a6 v=112
144092 On ch=1 n=f6 v=112
144249 Off ch=1 n=f6 v=64
144249 Off ch=1 n=a6 v=64
144249 Off ch=1 n=c7 v=64
144252 On ch=1 n=c6 v=112
144409 Off ch=1 n=c6 v=64
144412 On ch=1 n=a6 v=112
144412 On ch=1 n=f6 v=112
144412 On ch=1 n=c6 v=112
144569 Off ch=1 n=c6 v=64
144569 Off ch=1 n=f6 v=64
144569 Off ch=1 n=a6 v=64
144572 On ch=1 n=a5 v=112
144729 Off ch=1 n=a5 v=64
144732 On ch=1 n=f6 v=112
144732 On ch=1 n=c6 v=112
144732 On ch=1 n=a5 v=112
144892 Off ch=1 n=a5 v=64
144892 Off ch=1 n=c6 v=64
144892 Off ch=1 n=f6 v=64
144892 On ch=1 n=f#5 v=112
145052 Off ch=1 n=f#5 v=64
145052 On ch=1 n=c6 v=112
145052 On ch=1 n=a5 v=112
145052 On ch=1 n=f5 v=112
145209 Off ch=1 n=f5 v=64
145209 Off ch=1 n=a5 v=64
145209 Off ch=1 n=c6 v=64
145212 On ch=1 n=c5 v=112
145372 Off ch=1 n=c5 v=64
145372 On ch=1 n=f5 v=112
145372 On ch=1 n=c5 v=112
145372 On ch=1 n=a4 v=112
145532 Off ch=1 n=a4 v=64
145532 Off ch=1 n=c5 v=64
145532 Off ch=1 n=f5 v=64
145532 On ch=1 n=f5 v=112
145532 On ch=1 n=f4 v=112
145689 Off ch=1 n=f4 v=64
145689 Off ch=1 n=f5 v=64
145692 On ch=1 n=f#5 v=112
145692 On ch=1 n=f#4 v=112
145812 Off ch=1 n=f#4 v=64
145812 Off ch=1 n=f#5 v=64
145812 On ch=1 n=d#5 v=112
145932 Off ch=1 n=d#5 v=64
145932 On ch=1 n=c#5 v=112
146052 Off ch=1 n=c#5 v=64
146052 On ch=1 n=b4 v=112
146169 Off ch=1 n=b4 v=64
146172 On ch=1 n=b5 v=127
146172 On ch=1 n=f#5 v=127
146292 Off ch=1 n=f#5 v=64
146292 Off ch=1 n=b5 v=64
146292 On ch=1 n=d#5 v=112
146292 On ch=1 n=b4 v=112
146409 Off ch=1 n=b4 v=64
146409 Off ch=1 n=d#5 v=64
146532 On ch=1 n=e5 v=112
146532 On ch=1 n=c#5 v=112
146652 Off ch=1 n=c#5 v=64
146652 Off ch=1 n=e5 v=64
146652 On ch=1 n=f#5 v=112
146652 On ch=1 n=d#5 v=112
146772 Off ch=1 n=d#5 v=64
146772 Off ch=1 n=f#5 v=64
146772 On ch=1 n=d#6 v=112
146772 On ch=1 n=b5 v=112
146889 Off ch=1 n=b5 v=64
146889 Off ch=1 n=d#6 v=64
147132 On ch=1 n=f#6 v=127
147132 On ch=1 n=d#6 v=127
147252 Off ch=1 n=d#6 v=64
147252 Off ch=1 n=f#6 v=64
147252 On ch=1 n=b5 v=112
147252 On ch=1 n=f#5 v=112
147369 Off ch=1 n=f#5 v=64
147369 Off ch=1 n=b5 v=64
147492 On ch=1 n=c#6 v=112
147492 On ch=1 n=a#5 v=112
147612 Off ch=1 n=a#5 v=64
147612 Off ch=1 n=c#6 v=64
147612 On ch=1 n=d#6 v=112
147612 On ch=1 n=b5 v=112
147729 Off ch=1 n=b5 v=64
147729 Off ch=1 n=d#6 v=64
147732 On ch=1 n=b6 v=112
147732 On ch=1 n=f#6 v=112
147849 Off ch=1 n=f#6 v=64
147849 Off ch=1 n=b6 v=64
148092 On ch=1 n=d#7 v=127
148092 On ch=1 n=b6 v=127
148212 Off ch=1 n=b6 v=64
148212 Off ch=1 n=d#7 v=64
148212 On ch=1 n=f#6 v=112
148212 On ch=1 n=d#6 v=112
148329 Off ch=1 n=d#6 v=64
148329 Off ch=1 n=f#6 v=64
148452 On ch=1 n=a#6 v=112
148452 On ch=1 n=e6 v=112
148572 Off ch=1 n=e6 v=64
148572 Off ch=1 n=a#6 v=64
148572 Par ch=1 c=7 v=112
148572 On ch=1 n=b6 v=112
148572 On ch=1 n=d#6 v=112
148692 Off ch=1 n=d#6 v=64
148692 Off ch=1 n=b6 v=64
148692 On ch=1 n=f#7 v=112
148692 On ch=1 n=d#7 v=112
148809 Off ch=1 n=d#7 v=64
148809 Off ch=1 n=f#7 v=64
149052 On ch=1 n=a#6 v=112
149052 On ch=1 n=g6 v=112
149212 Off ch=1 n=g6 v=64
149212 Off ch=1 n=a#6 v=64
149212 On ch=1 n=g7 v=112
149212 On ch=1 n=c#7 v=112
149212 On ch=1 n=g6 v=112
149372 Off ch=1 n=g6 v=64
149372 Off ch=1 n=c#7 v=64
149372 Off ch=1 n=g7 v=64
149372 On ch=1 n=g7 v=112
149372 On ch=1 n=c#7 v=112
149372 On ch=1 n=g6 v=112
149529 Off ch=1 n=g6 v=64
149529 Off ch=1 n=c#7 v=64
149529 Off ch=1 n=g7 v=64
149532 On ch=1 n=g7 v=112
149532 On ch=1 n=b6 v=112
149532 On ch=1 n=g6 v=112
149652 Off ch=1 n=g6 v=64
149652 Off ch=1 n=b6 v=64
149652 Off ch=1 n=g7 v=64
149652 On ch=1 n=f#7 v=112
149652 On ch=1 n=f#6 v=112
149769 Off ch=1 n=f#6 v=64
149769 Off ch=1 n=f#7 v=64
150012 On ch=1 n=b5 v=127
150012 On ch=1 n=f#5 v=127
150132 Off ch=1 n=f#5 v=64
150132 Off ch=1 n=b5 v=64
150132 On ch=1 n=d#5 v=112
150132 On ch=1 n=b4 v=112
150249 Off ch=1 n=b4 v=64
150249 Off ch=1 n=d#5 v=64
150372 On ch=1 n=e5 v=112
150372 On ch=1 n=c#5 v=112
150492 Off ch=1 n=c#5 v=64
150492 Off ch=1 n=e5 v=64
150492 On ch=1 n=f#5 v=112
150492 On ch=1 n=d#5 v=112
150612 Off ch=1 n=d#5 v=64
150612 Off ch=1 n=f#5 v=64
150612 On ch=1 n=d#6 v=112
150612 On ch=1 n=b5 v=112
150729 Off ch=1 n=b5 v=64
150729 Off ch=1 n=d#6 v=64
150972 On ch=1 n=f#6 v=127
150972 On ch=1 n=d#6 v=127
151092 Off ch=1 n=d#6 v=64
151092 Off ch=1 n=f#6 v=64
151092 On ch=1 n=b5 v=112
151092 On ch=1 n=f#5 v=112
151209 Off ch=1 n=f#5 v=64
151209 Off ch=1 n=b5 v=64
151332 On ch=1 n=c#6 v=112
151332 On ch=1 n=a#5 v=112
151452 Off ch=1 n=a#5 v=64
151452 Off ch=1 n=c#6 v=64
151452 On ch=1 n=d#6 v=112
151452 On ch=1 n=b5 v=112
151572 Off ch=1 n=b5 v=64
151572 Off ch=1 n=d#6 v=64
151572 On ch=1 n=b6 v=112
151572 On ch=1 n=f#6 v=112
151689 Off ch=1 n=f#6 v=64
151689 Off ch=1 n=b6 v=64
151932 On ch=1 n=d#7 v=127
151932 On ch=1 n=b6 v=127
152052 Off ch=1 n=b6 v=64
152052 Off ch=1 n=d#7 v=64
152052 On ch=1 n=f#6 v=112
152052 On ch=1 n=d#6 v=112
152169 Off ch=1 n=d#6 v=64
152169 Off ch=1 n=f#6 v=64
152292 On ch=1 n=a#6 v=112
152292 On ch=1 n=e6 v=112
152412 Off ch=1 n=e6 v=64
152412 Off ch=1 n=a#6 v=64
152412 On ch=1 n=b6 v=112
152412 On ch=1 n=f#6 v=112
152532 Off ch=1 n=f#6 v=64
152532 Off ch=1 n=b6 v=64
152532 On ch=1 n=f#7 v=112
152532 On ch=1 n=d#7 v=112
152649 Off ch=1 n=d#7 v=64
152649 Off ch=1 n=f#7 v=64
152892 On ch=1 n=a#6 v=112
152892 On ch=1 n=g6 v=112
153052 Off ch=1 n=g6 v=64
153052 Off ch=1 n=a#6 v=64
153052 On ch=1 n=g7 v=112
153052 On ch=1 n=c#7 v=112
153052 On ch=1 n=g6 v=112
153212 Off ch=1 n=g6 v=64
153212 Off ch=1 n=c#7 v=64
153212 Off ch=1 n=g7 v=64
153212 On ch=1 n=g7 v=112
153212 On ch=1 n=c#7 v=112
153212 On ch=1 n=g6 v=112
153369 Off ch=1 n=g6 v=64
153369 Off ch=1 n=c#7 v=64
153369 Off ch=1 n=g7 v=64
153372 Par ch=1 c=7 v=112
153372 On ch=1 n=g#7 v=112
153372 On ch=1 n=c7 v=112
153372 On ch=1 n=g#6 v=112
153532 Off ch=1 n=g#6 v=64
153532 Off ch=1 n=c7 v=64
153532 Off ch=1 n=g#7 v=64
153532 On ch=1 n=a7 v=112
153532 On ch=1 n=d#7 v=112
153532 On ch=1 n=a6 v=112
153689 Off ch=1 n=a6 v=64
153689 Off ch=1 n=d#7 v=64
153689 Off ch=1 n=a7 v=64
153692 On ch=1 n=a#5 v=112
153692 On ch=1 n=a#4 v=112
153849 Off ch=1 n=a#4 v=64
153849 Off ch=1 n=a#5 v=64
153852 On ch=1 n=f5 v=112
153852 On ch=1 n=f4 v=112
154012 Off ch=1 n=f4 v=64
154012 Off ch=1 n=f5 v=64
154012 On ch=1 n=f#5 v=112
154012 On ch=1 n=d#5 v=112
154169 Off ch=1 n=d#5 v=64
154169 Off ch=1 n=f#5 v=64
154172 On ch=1 n=c#6 v=112
154172 On ch=1 n=c#5 v=112
154332 Off ch=1 n=c#5 v=64
154332 Off ch=1 n=c#6 v=64
154332 On ch=1 n=c6 v=112
154332 On ch=1 n=c5 v=112
154492 Off ch=1 n=c5 v=64
154492 Off ch=1 n=c6 v=64
154492 On ch=1 n=f#5 v=112
154492 On ch=1 n=d#5 v=112
154649 Off ch=1 n=d#5 v=64
154649 Off ch=1 n=f#5 v=64
154652 On ch=1 n=a#5 v=112
154652 On ch=1 n=a#4 v=112
154812 Off ch=1 n=a#4 v=64
154812 Off ch=1 n=a#5 v=64
154812 On ch=1 n=a5 v=112
154812 On ch=1 n=a4 v=112
154972 Off ch=1 n=a4 v=64
154972 Off ch=1 n=a5 v=64
154972 On ch=1 n=f#5 v=112
154972 On ch=1 n=d#5 v=112
155129 Off ch=1 n=d#5 v=64
155129 Off ch=1 n=f#5 v=64
155132 On ch=1 n=c#6 v=112
155132 On ch=1 n=c#5 v=112
155292 Off ch=1 n=c#5 v=64
155292 Off ch=1 n=c#6 v=64
155292 On ch=1 n=c6 v=112
155292 On ch=1 n=c5 v=112
155452 Off ch=1 n=c5 v=64
155452 Off ch=1 n=c6 v=64
155452 On ch=1 n=f#5 v=112
155452 On ch=1 n=d#5 v=112
155609 Off ch=1 n=d#5 v=64
155609 Off ch=1 n=f#5 v=64
155612 On ch=1 n=f#6 v=112
155612 On ch=1 n=f#5 v=112
155772 Off ch=1 n=f#5 v=64
155772 Off ch=1 n=f#6 v=64
155772 On ch=1 n=f6 v=112
155772 On ch=1 n=f5 v=112
155932 Off ch=1 n=f5 v=64
155932 Off ch=1 n=f6 v=64
155932 On ch=1 n=d#6 v=112
155932 On ch=1 n=c6 v=112
156089 Off ch=1 n=c6 v=64
156089 Off ch=1 n=d#6 v=64
156092 On ch=1 n=a#6 v=112
156092 On ch=1 n=a#5 v=112
156252 Off ch=1 n=a#5 v=64
156252 Off ch=1 n=a#6 v=64
156252 On ch=1 n=a6 v=112
156252 On ch=1 n=a5 v=112
156412 Off ch=1 n=a5 v=64
156412 Off ch=1 n=a6 v=64
156412 On ch=1 n=f#6 v=112
156412 On ch=1 n=d#6 v=112
156569 Off ch=1 n=d#6 v=64
156569 Off ch=1 n=f#6 v=64
156572 On ch=1 n=c#7 v=112
156572 On ch=1 n=c#6 v=112
156732 Off ch=1 n=c#6 v=64
156732 Off ch=1 n=c#7 v=64
156732 On ch=1 n=c7 v=112
156732 On ch=1 n=c6 v=112
156892 Off ch=1 n=c6 v=64
156892 Off ch=1 n=c7 v=64
156892 On ch=1 n=f#6 v=112
156892 On ch=1 n=d#6 v=112
157049 Off ch=1 n=d#6 v=64
157049 Off ch=1 n=f#6 v=64
157052 On ch=1 n=f#7 v=112
157052 On ch=1 n=f#6 v=112
157209 Off ch=1 n=f#7 v=64
157212 On ch=1 n=f#7 v=112
157257 Par ch=1 c=7 v=111
157302 Par ch=1 c=7 v=110
157347 Par ch=1 c=7 v=109
157369 Off ch=1 n=f#7 v=64
157369 Off ch=1 n=f#6 v=64
157372 On ch=1 n=f7 v=110
157372 On ch=1 n=c7 v=110
157392 Par ch=1 c=7 v=108
157437 Par ch=1 c=7 v=107
157482 Par ch=1 c=7 v=106
157527 Par ch=1 c=7 v=105
157529 Off ch=1 n=c7 v=64
157529 Off ch=1 n=f7 v=64
157532 On ch=1 n=e7 v=108
157532 On ch=1 n=f#6 v=108
157572 Par ch=1 c=7 v=104
157617 Par ch=1 c=7 v=103
157662 Par ch=1 c=7 v=102
157689 Off ch=1 n=f#6 v=64
157689 Off ch=1 n=e7 v=64
157692 On ch=1 n=d#7 v=106
157692 On ch=1 n=c7 v=106
157707 Par ch=1 c=7 v=101
157752 Par ch=1 c=7 v=100
157797 Par ch=1 c=7 v=99
157842 Par ch=1 c=7 v=98
157849 Off ch=1 n=c7 v=64
157849 Off ch=1 n=d#7 v=64
157852 On ch=1 n=d7 v=104
157852 On ch=1 n=f#6 v=104
157887 Par ch=1 c=7 v=97
157932 Par ch=1 c=7 v=96
157977 Par ch=1 c=7 v=95
158009 Off ch=1 n=f#6 v=64
158009 Off ch=1 n=d7 v=64
158012 On ch=1 n=c#7 v=102
158012 On ch=1 n=a6 v=102
158022 Par ch=1 c=7 v=94
158067 Par ch=1 c=7 v=93
158112 Par ch=1 c=7 v=92
158157 Par ch=1 c=7 v=91
158169 Off ch=1 n=a6 v=64
158169 Off ch=1 n=c#7 v=64
158172 On ch=1 n=c7 v=100
158172 On ch=1 n=d#6 v=100
158202 Par ch=1 c=7 v=90
158247 Par ch=1 c=7 v=89
158292 Par ch=1 c=7 v=88
158329 Off ch=1 n=d#6 v=64
158329 Off ch=1 n=c7 v=64
158332 On ch=1 n=b6 v=98
158332 On ch=1 n=f#6 v=98
158337 Par ch=1 c=7 v=87
158382 Par ch=1 c=7 v=86
158427 Par ch=1 c=7 v=85
158472 Par ch=1 c=7 v=84
158489 Off ch=1 n=f#6 v=64
158489 Off ch=1 n=b6 v=64
158492 On ch=1 n=a#6 v=96
158492 On ch=1 n=d#6 v=96
158517 Par ch=1 c=7 v=83
158562 Par ch=1 c=7 v=82
158607 Par ch=1 c=7 v=81
158649 Off ch=1 n=d#6 v=64
158649 Off ch=1 n=a#6 v=64
158652 Par ch=1 c=7 v=80
158652 On ch=1 n=a6 v=94
158652 On ch=1 n=f#6 v=94
158697 Par ch=1 c=7 v=79
158742 Par ch=1 c=7 v=78
158787 Par ch=1 c=7 v=77
158809 Off ch=1 n=f#6 v=64
158809 Off ch=1 n=a6 v=64
158812 On ch=1 n=g#6 v=92
158812 On ch=1 n=b5 v=92
158832 Par ch=1 c=7 v=76
158877 Par ch=1 c=7 v=75
158922 Par ch=1 c=7 v=74
158967 Par ch=1 c=7 v=73
158969 Off ch=1 n=b5 v=64
158969 Off ch=1 n=g#6 v=64
158972 On ch=1 n=g6 v=90
158972 On ch=1 n=d#6 v=90
159012 Par ch=1 c=7 v=72
159057 Par ch=1 c=7 v=71
159102 Par ch=1 c=7 v=70
159129 Off ch=1 n=d#6 v=64
159129 Off ch=1 n=g6 v=64
159132 On ch=1 n=f#6 v=88
159132 On ch=1 n=a5 v=88
159147 Par ch=1 c=7 v=69
159192 Par ch=1 c=7 v=68
159237 Par ch=1 c=7 v=67
159282 Par ch=1 c=7 v=66
159289 Off ch=1 n=a5 v=64
159289 Off ch=1 n=f#6 v=64
159292 On ch=1 n=f6 v=86
159292 On ch=1 n=c6 v=86
159327 Par ch=1 c=7 v=65
159372 Par ch=1 c=7 v=64
159417 Par ch=1 c=7 v=63
159449 Off ch=1 n=c6 v=64
159449 Off ch=1 n=f6 v=64
159452 On ch=1 n=e6 v=84
159452 On ch=1 n=a5 v=84
159462 Par ch=1 c=7 v=62
159507 Par ch=1 c=7 v=61
159552 Par ch=1 c=7 v=60
159597 Par ch=1 c=7 v=59
159609 Off ch=1 n=a5 v=64
159609 Off ch=1 n=e6 v=64
159612 On ch=1 n=d#6 v=82
159612 On ch=1 n=c6 v=82
159642 Par ch=1 c=7 v=58
159687 Par ch=1 c=7 v=57
159732 Par ch=1 c=7 v=56
159769 Off ch=1 n=c6 v=64
159769 Off ch=1 n=d#6 v=64
159772 On ch=1 n=d6 v=80
159772 On ch=1 n=d#5 v=80
159777 Par ch=1 c=7 v=55
159822 Par ch=1 c=7 v=54
159867 Par ch=1 c=7 v=53
159912 Par ch=1 c=7 v=52
159929 Off ch=1 n=d#5 v=64
159929 Off ch=1 n=d6 v=64
159932 On ch=1 n=c#6 v=78
159932 On ch=1 n=a5 v=78
159957 Par ch=1 c=7 v=51
160002 Par ch=1 c=7 v=50
160047 Par ch=1 c=7 v=49
160089 Off ch=1 n=a5 v=64
160089 Off ch=1 n=c#6 v=64
160092 Par ch=1 c=7 v=48
160092 On ch=1 n=c6 v=48
160092 On ch=1 n=d#5 v=48
160249 Off ch=1 n=d#5 v=64
160249 Off ch=1 n=c6 v=64
160252 On ch=1 n=b5 v=48
160252 On ch=1 n=a5 v=48
160409 Off ch=1 n=a5 v=64
160409 Off ch=1 n=b5 v=64
160412 On ch=1 n=d6 v=48
160412 On ch=1 n=d#5 v=48
160569 Off ch=1 n=d#5 v=64
160569 Off ch=1 n=d6 v=64
160572 On ch=1 n=c6 v=48
160572 On ch=1 n=a5 v=48
160729 Off ch=1 n=a5 v=64
160729 Off ch=1 n=c6 v=64
160732 On ch=1 n=f#6 v=48
160732 On ch=1 n=a5 v=48
160889 Off ch=1 n=a5 v=64
160889 Off ch=1 n=f#6 v=64
160892 On ch=1 n=f6 v=48
160892 On ch=1 n=d#6 v=48
161049 Off ch=1 n=d#6 v=64
161049 Off ch=1 n=f6 v=64
161052 On ch=1 n=d5 v=48
161172 On ch=1 n=f6 v=48
161172 On ch=1 n=a#5 v=48
162012 Off ch=1 n=d5 v=64
162012 Off ch=1 n=a#5 v=64
162012 Off ch=1 n=f6 v=64
162012 On ch=1 n=d6 v=48
162012 On ch=1 n=a#5 v=48
162012 On ch=1 n=f5 v=48
162492 Off ch=1 n=f5 v=64
162492 Off ch=1 n=a#5 v=64
162492 Off ch=1 n=d6 v=64
162492 On ch=1 n=d#6 v=48
162492 On ch=1 n=c6 v=48
162492 On ch=1 n=g5 v=48
162972 Off ch=1 n=g5 v=64
162972 Off ch=1 n=c6 v=64
162972 Off ch=1 n=d#6 v=64
163092 On ch=1 n=d6 v=48
163092 On ch=1 n=d#5 v=48
163932 Off ch=1 n=d#5 v=64
163932 Off ch=1 n=d6 v=64
163932 On ch=1 n=c6 v=48
163932 On ch=1 n=d#5 v=48
164832 Off ch=1 n=d#5 v=64
164832 Off ch=1 n=c6 v=64
164892 On ch=1 n=f6 v=48
164892 On ch=1 n=a#5 v=48
164892 On ch=1 n=d5 v=48
165372 Off ch=1 n=d5 v=64
165372 Off ch=1 n=a#5 v=64
165372 Off ch=1 n=f6 v=64
165372 On ch=1 n=d6 v=48
165372 On ch=1 n=a#5 v=48
165372 On ch=1 n=f5 v=48
165852 Off ch=1 n=f5 v=64
165852 Off ch=1 n=a#5 v=64
165852 Off ch=1 n=d6 v=64
165852 On ch=1 n=d#6 v=48
165852 On ch=1 n=a#5 v=48
165852 On ch=1 n=g5 v=48
166092 Off ch=1 n=g5 v=64
166092 Off ch=1 n=d#6 v=64
166092 On ch=1 n=d6 v=48
166092 On ch=1 n=f5 v=48
166332 Off ch=1 n=f5 v=64
166332 Off ch=1 n=d6 v=64
166332 Off ch=1 n=a#5 v=64
166332 On ch=1 n=f6 v=48
166332 On ch=1 n=b5 v=48
166332 On ch=1 n=g#5 v=48
166572 Off ch=1 n=g#5 v=64
166572 Off ch=1 n=b5 v=64
166572 Off ch=1 n=f6 v=64
166572 On ch=1 n=d#6 v=48
166572 On ch=1 n=c6 v=48
166572 On ch=1 n=g5 v=48
166772 Off ch=1 n=g5 v=64
166772 Off ch=1 n=c6 v=64
166772 Off ch=1 n=d#6 v=64
166812 On ch=1 n=d6 v=48
166812 On ch=1 n=a5 v=48
166812 On ch=1 n=d#5 v=48
167772 Off ch=1 n=d6 v=64
167772 On ch=1 n=c6 v=48
168672 Off ch=1 n=d#5 v=64
168672 Off ch=1 n=a5 v=64
168672 Off ch=1 n=c6 v=64
168732 On ch=1 n=f6 v=48
168732 On ch=1 n=a#5 v=48
168732 On ch=1 n=d5 v=48
169152 Off ch=1 n=d5 v=64
169152 Off ch=1 n=a#5 v=64
169152 Off ch=1 n=f6 v=64
169212 On ch=1 n=g6 v=48
169212 On ch=1 n=a#5 v=48
169212 On ch=1 n=g5 v=48
169632 Off ch=1 n=g5 v=64
169632 Off ch=1 n=a#5 v=64
169632 Off ch=1 n=g6 v=64
169692 On ch=1 n=a6 v=48
169692 On ch=1 n=d#6 v=48
169692 On ch=1 n=a5 v=48
170112 Off ch=1 n=a5 v=64
170112 Off ch=1 n=a6 v=64
170172 On ch=1 n=a#6 v=48
170172 On ch=1 n=a#5 v=48
170492 Off ch=1 n=a#5 v=64
170492 Off ch=1 n=a#6 v=64
170532 On ch=1 n=c7 v=48
170532 On ch=1 n=a6 v=48
170532 On ch=1 n=c6 v=48
170649 Off ch=1 n=c6 v=64
170649 Off ch=1 n=a6 v=64
170649 Off ch=1 n=c7 v=64
170649 Off ch=1 n=d#6 v=64
170772 On ch=1 n=d7 v=48
170772 On ch=1 n=a#6 v=48
170772 On ch=1 n=d6 v=48
171092 Off ch=1 n=d6 v=64
171092 Off ch=1 n=a#6 v=64
171092 Off ch=1 n=d7 v=64
171132 On ch=1 n=g6 v=48
171132 On ch=1 n=c#6 v=48
171132 On ch=1 n=a#5 v=48
171132 On ch=1 n=g5 v=48
171552 Off ch=1 n=g5 v=64
171552 Off ch=1 n=a#5 v=64
171552 Off ch=1 n=c#6 v=64
171552 Off ch=1 n=g6 v=64
171612 On ch=1 n=a6 v=48
171612 On ch=1 n=c6 v=48
171612 On ch=1 n=a5 v=48
172032 Off ch=1 n=a5 v=64
172032 Off ch=1 n=c6 v=64
172032 Off ch=1 n=a6 v=64
172092 On ch=1 n=g5 v=48
172122 On ch=1 n=c6 v=48
172152 On ch=1 n=a#6 v=48
172449 Off ch=1 n=a#6 v=64
172452 Par ch=1 c=64 v=0
172452 On ch=1 n=c7 v=48
172532 Off ch=1 n=c6 v=64
172532 Off ch=1 n=g5 v=64
172569 Off ch=1 n=c7 v=64
172572 On ch=1 n=d7 v=48
172572 On ch=1 n=a6 v=48
172572 On ch=1 n=d6 v=48
172992 Off ch=1 n=d6 v=64
172992 Off ch=1 n=a6 v=64
172992 Off ch=1 n=d7 v=64
173052 On ch=1 n=c7 v=48
173052 On ch=1 n=a6 v=48
173052 On ch=1 n=d6 v=48
173052 On ch=1 n=c6 v=48
173472 Off ch=1 n=c6 v=64
173472 Off ch=1 n=d6 v=64
173472 Off ch=1 n=a6 v=64
173472 Off ch=1 n=c7 v=64
173532 On ch=1 n=a#6 v=48
173532 On ch=1 n=g6 v=48
173532 On ch=1 n=d6 v=48
173532 On ch=1 n=a#5 v=48
173952 Off ch=1 n=a#5 v=64
173952 Off ch=1 n=d6 v=64
173952 Off ch=1 n=g6 v=64
173952 Off ch=1 n=a#6 v=64
174012 On ch=1 n=a6 v=48
174012 On ch=1 n=f6 v=48
174012 On ch=1 n=c#6 v=48
174332 Off ch=1 n=c#6 v=64
174332 Off ch=1 n=f6 v=64
174332 Off ch=1 n=a6 v=64
174372 On ch=1 n=g6 v=48
174372 On ch=1 n=d6 v=48
174372 On ch=1 n=g5 v=48
174489 Off ch=1 n=g5 v=64
174489 Off ch=1 n=d6 v=64
174489 Off ch=1 n=g6 v=64
174492 On ch=1 n=f6 v=48
174492 On ch=1 n=d6 v=48
174492 On ch=1 n=g5 v=48
174492 On ch=1 n=f5 v=48
174912 Off ch=1 n=f5 v=64
174912 Off ch=1 n=g5 v=64
174912 Off ch=1 n=d6 v=64
174912 Off ch=1 n=f6 v=64
174972 On ch=1 n=d#6 v=48
174972 On ch=1 n=c6 v=48
174972 On ch=1 n=g5 v=48
174972 On ch=1 n=d#5 v=48
175292 Off ch=1 n=d#5 v=64
175292 Off ch=1 n=g5 v=64
175292 Off ch=1 n=c6 v=64
175292 Off ch=1 n=d#6 v=64
175332 On ch=1 n=d6 v=48
175332 On ch=1 n=a#5 v=48
175332 On ch=1 n=f#5 v=48
175449 Off ch=1 n=f#5 v=64
175449 Off ch=1 n=a#5 v=64
175449 Off ch=1 n=d6 v=64
175452 On ch=1 n=c6 v=48
175452 On ch=1 n=a#5 v=48
175452 On ch=1 n=g5 v=48
175452 On ch=1 n=c5 v=48
175932 Off ch=1 n=g5 v=64
175932 Off ch=1 n=a#5 v=64
175932 On ch=1 n=a5 v=48
175932 On ch=1 n=f5 v=48
176172 Off ch=1 n=f5 v=64
176172 Off ch=1 n=a5 v=64
176172 On ch=1 n=g5 v=48
176172 On ch=1 n=d#5 v=48
176352 Off ch=1 n=c5 v=64
176372 Off ch=1 n=d#5 v=64
176372 Off ch=1 n=g5 v=64
176372 Off ch=1 n=c6 v=64
176412 On ch=1 n=f6 v=48
176412 On ch=1 n=a#5 v=48
176412 On ch=1 n=d5 v=48
177372 Off ch=1 n=d5 v=64
177372 Off ch=1 n=a#5 v=64
177372 Off ch=1 n=f6 v=64
177372 On ch=1 n=d6 v=48
177372 On ch=1 n=a#5 v=48
177372 On ch=1 n=f5 v=48
177852 Off ch=1 n=f5 v=64
177852 Off ch=1 n=a#5 v=64
177852 Off ch=1 n=d6 v=64
177852 On ch=1 n=f5 v=48
177852 On ch=1 n=d5 v=48
178092 Off ch=1 n=d5 v=64
178092 Off ch=1 n=f5 v=64
178092 On ch=1 n=d#6 v=48
178092 On ch=1 n=c6 v=48
178092 On ch=1 n=g5 v=48
178332 Off ch=1 n=g5 v=64
178332 Off ch=1 n=c6 v=64
178332 Off ch=1 n=d#6 v=64
178332 On ch=1 n=d6 v=48
178332 On ch=1 n=a5 v=48
178332 On ch=1 n=d#5 v=48
178992 Off ch=1 n=d6 v=64
179052 On ch=1 n=c6 v=48
179232 Off ch=1 n=d#5 v=64
179232 Off ch=1 n=a5 v=64
179292 Off ch=1 n=c6 v=64
179292 On ch=1 n=g5 v=48
179532 Off ch=1 n=g5 v=64
179532 On ch=1 n=f5 v=48
179772 Off ch=1 n=f5 v=64
179772 On ch=1 n=a#4 v=48
180012 Off ch=1 n=a#4 v=64
180012 On ch=1 n=c5 v=48
180212 Off ch=1 n=c5 v=64
180252 On ch=1 n=f6 v=48
180252 On ch=1 n=a#5 v=48
180252 On ch=1 n=d5 v=48
180732 Off ch=1 n=d5 v=64
180732 Off ch=1 n=f6 v=64
180732 On ch=1 n=f5 v=48
180732 On ch=1 n=d6 v=48
181152 Off ch=1 n=d6 v=64
181152 Off ch=1 n=f5 v=64
181152 Off ch=1 n=a#5 v=64
181212 On ch=1 n=d#6 v=48
181212 On ch=1 n=a#5 v=48
181212 On ch=1 n=g5 v=48
181532 Off ch=1 n=g5 v=64
181532 Off ch=1 n=d#6 v=64
181572 On ch=1 n=f5 v=48
181572 On ch=1 n=d6 v=48
181692 Off ch=1 n=d6 v=64
181692 Off ch=1 n=f5 v=64
181692 Off ch=1 n=a#5 v=64
181692 On ch=1 n=f5 v=48
181692 On ch=1 n=d6 v=48
181852 Off ch=1 n=d6 v=64
181852 Off ch=1 n=f5 v=64
181852 On ch=1 n=a5 v=48
181852 On ch=1 n=f6 v=48
182012 Off ch=1 n=f6 v=64
182012 Off ch=1 n=a5 v=64
182012 On ch=1 n=g5 v=48
182012 On ch=1 n=d#6 v=48
182172 Off ch=1 n=d#6 v=64
182172 Off ch=1 n=g5 v=64
182172 On ch=1 n=d6 v=48
182172 On ch=1 n=a5 v=48
182172 On ch=1 n=d#5 v=48
182892 Off ch=1 n=d6 v=64
182892 On ch=1 n=c6 v=48
183072 Off ch=1 n=d#5 v=64
183072 Off ch=1 n=a5 v=64
183092 Off ch=1 n=c6 v=64
183132 On ch=1 n=g5 v=48
183292 Off ch=1 n=g5 v=64
183292 On ch=1 n=f5 v=48
183452 Off ch=1 n=f5 v=64
183452 On ch=1 n=g5 v=48
183612 Off ch=1 n=g5 v=64
183612 On ch=1 n=f5 v=48
183772 Off ch=1 n=f5 v=64
183772 On ch=1 n=a#4 v=48
183932 Off ch=1 n=a#4 v=64
183932 On ch=1 n=c5 v=48
184089 Off ch=1 n=c5 v=64
184092 On ch=1 n=d5 v=48
184122 On ch=1 n=a#5 v=49
184152 On ch=1 n=f6 v=50
184159 Par ch=1 c=7 v=49
184228 Par ch=1 c=7 v=50
184297 Par ch=1 c=7 v=51
184365 Par ch=1 c=7 v=52
184434 Par ch=1 c=7 v=53
184503 Par ch=1 c=7 v=54
184532 Off ch=1 n=d5 v=64
184532 Off ch=1 n=f6 v=64
184572 Par ch=1 c=7 v=55
184572 On ch=1 n=g5 v=51
184572 On ch=1 n=g6 v=51
184639 Par ch=1 c=7 v=56
184708 Par ch=1 c=7 v=57
184777 Par ch=1 c=7 v=58
184845 Par ch=1 c=7 v=59
184914 Par ch=1 c=7 v=60
184983 Par ch=1 c=7 v=61
184992 Off ch=1 n=g6 v=64
184992 Off ch=1 n=g5 v=64
184992 Off ch=1 n=a#5 v=64
185052 On ch=1 n=a6 v=52
185052 On ch=1 n=f6 v=52
185052 On ch=1 n=d#6 v=52
185052 On ch=1 n=a5 v=52
185052 Par ch=1 c=7 v=62
185119 Par ch=1 c=7 v=63
185188 Par ch=1 c=7 v=64
185257 Par ch=1 c=7 v=65
185325 Par ch=1 c=7 v=66
185394 Par ch=1 c=7 v=67
185463 Par ch=1 c=7 v=68
185472 Off ch=1 n=a5 v=64
185472 Off ch=1 n=a6 v=64
185532 Par ch=1 c=7 v=69
185532 On ch=1 n=a#5 v=53
185532 On ch=1 n=a#6 v=53
185599 Par ch=1 c=7 v=70
185668 Par ch=1 c=7 v=71
185737 Par ch=1 c=7 v=72
185805 Par ch=1 c=7 v=73
185852 Off ch=1 n=a#6 v=64
185852 Off ch=1 n=a#5 v=64
185874 Par ch=1 c=7 v=74
185892 On ch=1 n=c6 v=54
185892 On ch=1 n=c7 v=54
185943 Par ch=1 c=7 v=75
186009 Off ch=1 n=c7 v=64
186009 Off ch=1 n=c6 v=64
186009 Off ch=1 n=d#6 v=64
186009 Off ch=1 n=f6 v=64
186012 On ch=1 n=d7 v=76
186012 On ch=1 n=f6 v=76
186012 On ch=1 n=d6 v=76
186012 Par ch=1 c=7 v=76
186224 Par ch=1 c=7 v=77
186438 Par ch=1 c=7 v=78
186492 Off ch=1 n=d6 v=64
186492 Off ch=1 n=f6 v=64
186492 Off ch=1 n=d7 v=64
186492 On ch=1 n=g5 v=77
186492 On ch=1 n=d6 v=77
186492 On ch=1 n=g6 v=77
186652 Par ch=1 c=7 v=79
186864 Par ch=1 c=7 v=80
186912 Off ch=1 n=g6 v=64
186912 Off ch=1 n=d6 v=64
186912 Off ch=1 n=g5 v=64
186972 On ch=1 n=a6 v=78
186972 On ch=1 n=f6 v=78
186972 On ch=1 n=d#6 v=78
186972 On ch=1 n=a5 v=78
187078 Par ch=1 c=7 v=81
187292 Par ch=1 c=7 v=82
187392 Off ch=1 n=a5 v=64
187392 Off ch=1 n=a6 v=64
187452 On ch=1 n=a#5 v=79
187452 On ch=1 n=a#6 v=79
187504 Par ch=1 c=7 v=83
187718 Par ch=1 c=7 v=84
187772 Off ch=1 n=a#6 v=64
187772 Off ch=1 n=a#5 v=64
187812 On ch=1 n=c6 v=80
187812 On ch=1 n=c7 v=80
187929 Off ch=1 n=c7 v=64
187929 Off ch=1 n=c6 v=64
187929 Off ch=1 n=d#6 v=64
187929 Off ch=1 n=f6 v=64
187932 On ch=1 n=d7 v=81
187932 On ch=1 n=c7 v=81
187932 On ch=1 n=a6 v=81
187932 On ch=1 n=d6 v=81
187932 Par ch=1 c=7 v=85
188144 Par ch=1 c=7 v=86
188352 Off ch=1 n=d6 v=64
188352 Off ch=1 n=d7 v=64
188358 Par ch=1 c=7 v=87
188412 On ch=1 n=d#6 v=82
188412 On ch=1 n=d#7 v=82
188572 Par ch=1 c=7 v=88
188784 Par ch=1 c=7 v=89
188832 Off ch=1 n=a6 v=64
188832 Off ch=1 n=c7 v=64
188892 On ch=1 n=a#6 v=83
188892 On ch=1 n=g6 v=83
188998 Par ch=1 c=7 v=90
189092 Off ch=1 n=d#7 v=64
189092 Off ch=1 n=d#6 v=64
189132 On ch=1 n=d6 v=84
189132 On ch=1 n=d7 v=84
189212 Par ch=1 c=7 v=91
189332 Off ch=1 n=d7 v=64
189332 Off ch=1 n=d6 v=64
189372 On ch=1 n=c#6 v=85
189372 On ch=1 n=c#7 v=85
189424 Par ch=1 c=7 v=92
189572 Off ch=1 n=c#7 v=64
189572 Off ch=1 n=c#6 v=64
189612 On ch=1 n=d6 v=86
189612 On ch=1 n=d7 v=86
189638 Par ch=1 c=7 v=93
189812 Off ch=1 n=d7 v=64
189812 Off ch=1 n=d6 v=64
189812 Off ch=1 n=g6 v=64
189812 Off ch=1 n=a#6 v=64
189852 On ch=1 n=f7 v=94
189852 On ch=1 n=d#7 v=94
189852 On ch=1 n=c7 v=94
189852 On ch=1 n=f6 v=94
189852 Par ch=1 c=7 v=94
190012 Par ch=1 c=7 v=95
190172 Par ch=1 c=7 v=96
190272 Off ch=1 n=f6 v=64
190272 Off ch=1 n=f7 v=64
190332 Par ch=1 c=7 v=97
190332 On ch=1 n=g6 v=95
190332 On ch=1 n=g7 v=95
190492 Par ch=1 c=7 v=98
190652 Par ch=1 c=7 v=99
190752 Off ch=1 n=g7 v=64
190752 Off ch=1 n=g6 v=64
190752 Off ch=1 n=c7 v=64
190752 Off ch=1 n=d#7 v=64
190812 On ch=1 n=d7 v=96
190812 Par ch=1 c=7 v=100
190812 On ch=1 n=g6 v=96
190812 On ch=1 n=g7 v=96
190972 Par ch=1 c=7 v=101
191012 Off ch=1 n=g7 v=64
191012 Off ch=1 n=g6 v=64
191052 On ch=1 n=f6 v=97
191052 On ch=1 n=f7 v=97
191132 Par ch=1 c=7 v=102
191252 Off ch=1 n=f7 v=64
191252 Off ch=1 n=f6 v=64
191252 Off ch=1 n=d7 v=64
191292 Par ch=1 c=7 v=103
191292 On ch=1 n=d#6 v=98
191292 On ch=1 n=g6 v=98
191292 On ch=1 n=d#7 v=98
191452 Par ch=1 c=7 v=104
191612 Off ch=1 n=d#7 v=64
191612 Off ch=1 n=d#6 v=64
191612 Par ch=1 c=7 v=105
191652 On ch=1 n=d6 v=99
191652 On ch=1 n=d7 v=99
191769 Off ch=1 n=d7 v=64
191769 Off ch=1 n=d6 v=64
191769 Off ch=1 n=g6 v=64
191772 On ch=1 n=f7 v=100
191772 On ch=1 n=g6 v=100
191772 On ch=1 n=f6 v=100
191772 Par ch=1 c=7 v=106
191932 Par ch=1 c=7 v=107
192012 Off ch=1 n=f6 v=64
192012 Off ch=1 n=f7 v=64
192012 On ch=1 n=d#6 v=101
192012 On ch=1 n=d#7 v=101
192092 Par ch=1 c=7 v=108
192252 Off ch=1 n=d#7 v=64
192252 Off ch=1 n=d#6 v=64
192252 Off ch=1 n=g6 v=64
192252 Par ch=1 c=7 v=109
192252 On ch=1 n=d6 v=102
192252 On ch=1 n=g6 v=102
192252 On ch=1 n=d7 v=102
192412 Par ch=1 c=7 v=110
192492 Off ch=1 n=d7 v=64
192492 Off ch=1 n=d6 v=64
192492 On ch=1 n=b5 v=103
192492 On ch=1 n=b6 v=103
192572 Par ch=1 c=7 v=111
192692 Off ch=1 n=b6 v=64
192692 Off ch=1 n=b5 v=64
192692 Off ch=1 n=g6 v=64
192732 On ch=1 n=g6 v=112
192732 Par ch=1 c=7 v=112
192732 On ch=1 n=d6 v=112
192732 On ch=1 n=d7 v=112
192932 Off ch=1 n=d7 v=64
192932 Off ch=1 n=d6 v=64
192972 On ch=1 n=c6 v=112
192972 On ch=1 n=c7 v=112
193172 Off ch=1 n=c7 v=64
193172 Off ch=1 n=c6 v=64
193172 Off ch=1 n=g6 v=64
193212 On ch=1 n=g5 v=112
193212 On ch=1 n=c#6 v=112
193212 On ch=1 n=g6 v=112
193412 Off ch=1 n=g6 v=64
193412 Off ch=1 n=g5 v=64
193452 On ch=1 n=a#5 v=112
193452 On ch=1 n=a#6 v=112
193692 Off ch=1 n=a#6 v=64
193692 Off ch=1 n=c#6 v=64
193692 On ch=1 n=d#6 v=112
193692 On ch=1 n=c6 v=112
193692 On ch=1 n=a#6 v=112
193892 Off ch=1 n=a#6 v=64
193892 Off ch=1 n=a#5 v=64
193932 On ch=1 n=a5 v=127
193932 On ch=1 n=a6 v=127
194132 Off ch=1 n=c6 v=64
194132 Off ch=1 n=d#6 v=64
194172 On ch=1 n=a#5 v=112
194172 On ch=1 n=d#6 v=112
194372 Off ch=1 n=a6 v=64
194372 Off ch=1 n=a5 v=64
194412 On ch=1 n=g5 v=127
194412 On ch=1 n=g6 v=127
194612 Off ch=1 n=d#6 v=64
194612 Off ch=1 n=a#5 v=64
194652 On ch=1 n=d#6 v=112
194652 On ch=1 n=c6 v=112
194852 Off ch=1 n=g6 v=64
194852 Off ch=1 n=g5 v=64
194892 On ch=1 n=f#5 v=127
194892 On ch=1 n=f#6 v=127
195092 Off ch=1 n=c6 v=64
195092 Off ch=1 n=d#6 v=64
195132 On ch=1 n=a5 v=112
195132 On ch=1 n=d#6 v=112
195332 Off ch=1 n=f#6 v=64
195332 Off ch=1 n=f#5 v=64
195372 On ch=1 n=f5 v=127
195372 On ch=1 n=f6 v=127
195572 Off ch=1 n=d#6 v=64
195572 Off ch=1 n=a5 v=64
195612 On ch=1 n=a#5 v=112
195812 Off ch=1 n=a#5 v=64
195812 Off ch=1 n=f6 v=64
195812 Off ch=1 n=f5 v=64
195852 On ch=1 n=f#5 v=112
195852 On ch=1 n=a#5 v=112
195852 On ch=1 n=f#6 v=112
196052 Off ch=1 n=f#6 v=64
196052 Off ch=1 n=a#5 v=64
196052 Off ch=1 n=f#5 v=64
196092 On ch=1 n=g5 v=112
196092 On ch=1 n=a#5 v=112
196092 On ch=1 n=g6 v=112
196292 Off ch=1 n=g6 v=64
196292 Off ch=1 n=a#5 v=64
196292 Off ch=1 n=g5 v=64
196332 On ch=1 n=f5 v=112
196332 On ch=1 n=a#5 v=112
196332 On ch=1 n=f6 v=112
196532 Off ch=1 n=f6 v=64
196532 Off ch=1 n=a#5 v=64
196532 Off ch=1 n=f5 v=64
196572 On ch=1 n=a5 v=112
196572 On ch=1 n=c6 v=112
196772 Off ch=1 n=c6 v=64
196772 Off ch=1 n=a5 v=64
196812 On ch=1 n=f5 v=112
196812 On ch=1 n=g#5 v=112
196812 On ch=1 n=d6 v=112
197012 Off ch=1 n=d6 v=64
197012 Off ch=1 n=g#5 v=64
197012 Off ch=1 n=f5 v=64
197052 On ch=1 n=d#5 v=112
197052 On ch=1 n=g5 v=112
197052 On ch=1 n=d#6 v=112
197252 Off ch=1 n=d#6 v=64
197252 Off ch=1 n=g5 v=64
197252 Off ch=1 n=d#5 v=64
197292 On ch=1 n=f#5 v=112
197292 On ch=1 n=a5 v=112
197492 Off ch=1 n=a5 v=64
197492 Off ch=1 n=f#5 v=64
197532 On ch=1 n=f5 v=112
197532 On ch=1 n=a#5 v=112
197732 Off ch=1 n=a#5 v=64
197732 Off ch=1 n=f5 v=64
197772 On ch=1 n=d#5 v=112
197772 On ch=1 n=f#5 v=112
197772 On ch=1 n=c6 v=112
197972 Off ch=1 n=c6 v=64
197972 Off ch=1 n=f#5 v=64
197972 Off ch=1 n=d#5 v=64
198012 On ch=1 n=d5 v=112
198012 On ch=1 n=f5 v=112
198012 On ch=1 n=d6 v=112
198212 Off ch=1 n=d6 v=64
198212 Off ch=1 n=f5 v=64
198212 Off ch=1 n=d5 v=64
198252 On ch=1 n=a#4 v=112
198252 On ch=1 n=c#5 v=112
198252 On ch=1 n=g5 v=112
198452 Off ch=1 n=g5 v=64
198452 Off ch=1 n=c#5 v=64
198452 Off ch=1 n=a#4 v=64
198492 On ch=1 n=a#4 v=112
198552 On ch=1 n=a#5 v=112
198552 On ch=1 n=d#5 v=112
198552 On ch=1 n=c5 v=112
198972 Off ch=1 n=a#4 v=64
198972 Off ch=1 n=a#5 v=64
198972 On ch=1 n=a5 v=112
199392 Off ch=1 n=a5 v=64
199392 Off ch=1 n=c5 v=64
199392 Off ch=1 n=a4 v=64
199392 Off ch=1 n=d#5 v=64
199452 On ch=1 n=a#4 v=112
199452 On ch=1 n=a#5 v=112
199609 Off ch=1 n=a#5 v=64
199609 Off ch=1 n=a#4 v=64
199609 Off ch=1 n=d5 v=64
199612 On ch=1 n=f#5 v=112
199612 On ch=1 n=c#5 v=112
199772 Off ch=1 n=c#5 v=64
199772 Off ch=1 n=f#5 v=64
199772 On ch=1 n=c#5 v=112
199772 On ch=1 n=f#5 v=112
199932 Off ch=1 n=f#5 v=64
199932 Off ch=1 n=c#5 v=64
199932 On ch=1 n=c#5 v=112
199932 On ch=1 n=f#5 v=112
200092 Off ch=1 n=f#5 v=64
200092 Off ch=1 n=c#5 v=64
200092 On ch=1 n=c5 v=112
200092 On ch=1 n=f5 v=112
200249 Off ch=1 n=f5 v=64
200249 Off ch=1 n=c5 v=64
200252 On ch=1 n=a5 v=112
200252 On ch=1 n=d#6 v=112
200412 Off ch=1 n=d#6 v=64
200412 Off ch=1 n=a5 v=64
200412 On ch=1 n=a5 v=112
200412 On ch=1 n=d#6 v=112
200572 Off ch=1 n=d#6 v=64
200572 Off ch=1 n=a5 v=64
200572 On ch=1 n=d6 v=112
200572 On ch=1 n=a#5 v=112
200729 Off ch=1 n=a#5 v=64
200729 Off ch=1 n=d6 v=64
200732 On ch=1 n=c#6 v=112
200732 On ch=1 n=f#6 v=112
200892 Off ch=1 n=f#6 v=64
200892 Off ch=1 n=c#6 v=64
200892 On ch=1 n=c#6 v=112
200892 On ch=1 n=f#6 v=112
201052 Off ch=1 n=f#6 v=64
201052 Off ch=1 n=c#6 v=64
201052 On ch=1 n=c6 v=112
201052 On ch=1 n=f6 v=112
201209 Off ch=1 n=f6 v=64
201209 Off ch=1 n=c6 v=64
201212 On ch=1 n=a6 v=112
201212 On ch=1 n=d#7 v=112
201372 Off ch=1 n=d#7 v=64
201372 Off ch=1 n=a6 v=64
201372 On ch=1 n=a6 v=112
201372 On ch=1 n=d#7 v=112
201532 Off ch=1 n=d#7 v=64
201532 Off ch=1 n=a6 v=64
201532 On ch=1 n=d7 v=112
201532 On ch=1 n=a#6 v=112
201689 Off ch=1 n=a#6 v=64
201689 Off ch=1 n=d7 v=64
201692 On ch=1 n=c#6 v=112
201692 On ch=1 n=f#6 v=112
201852 Off ch=1 n=f#6 v=64
201852 Off ch=1 n=c#6 v=64
201852 On ch=1 n=c#6 v=112
201852 On ch=1 n=f#6 v=112
202012 Off ch=1 n=f#6 v=64
202012 Off ch=1 n=c#6 v=64
202012 On ch=1 n=c6 v=112
202012 On ch=1 n=f6 v=112
202169 Off ch=1 n=f6 v=64
202169 Off ch=1 n=c6 v=64
202172 On ch=1 n=f5 v=112
202172 On ch=1 n=a5 v=112
202172 On ch=1 n=d#6 v=112
202332 Off ch=1 n=d#6 v=64
202332 Off ch=1 n=a5 v=64
202332 Off ch=1 n=f5 v=64
202332 On ch=1 n=f5 v=112
202332 On ch=1 n=a5 v=112
202332 On ch=1 n=d#6 v=112
202492 Off ch=1 n=d#6 v=64
202492 Off ch=1 n=a5 v=64
202492 Off ch=1 n=f5 v=64
202492 On ch=1 n=d6 v=112
202492 On ch=1 n=a#5 v=112
202649 Off ch=1 n=a#5 v=64
202649 Off ch=1 n=d6 v=64
202652 On ch=1 n=c#5 v=112
202652 On ch=1 n=f#5 v=112
202812 Off ch=1 n=f#5 v=64
202812 Off ch=1 n=c#5 v=64
202812 On ch=1 n=c#5 v=112
202812 On ch=1 n=f#5 v=112
202972 Off ch=1 n=f#5 v=64
202972 Off ch=1 n=c#5 v=64
202972 On ch=1 n=c5 v=112
202972 On ch=1 n=f5 v=112
203129 Off ch=1 n=f5 v=64
203129 Off ch=1 n=c5 v=64
203132 On ch=1 n=a4 v=112
203132 On ch=1 n=d#5 v=112
203292 Off ch=1 n=d#5 v=64
203292 Off ch=1 n=a4 v=64
203292 On ch=1 n=a4 v=112
203292 On ch=1 n=d#5 v=112
203452 Off ch=1 n=d#5 v=64
203452 Off ch=1 n=a4 v=64
203452 On ch=1 n=d5 v=112
203452 On ch=1 n=a#4 v=112
203609 Off ch=1 n=a#4 v=64
203609 Off ch=1 n=d5 v=64
203612 On ch=1 n=c5 v=112
203612 On ch=1 n=g5 v=112
203772 Off ch=1 n=g5 v=64
203772 Off ch=1 n=c5 v=64
203772 On ch=1 n=c5 v=112
203772 On ch=1 n=g5 v=112
203932 Off ch=1 n=g5 v=64
203932 Off ch=1 n=c5 v=64
203932 On ch=1 n=f5 v=112
204089 Off ch=1 n=f5 v=64
204092 On ch=1 n=a5 v=112
204092 On ch=1 n=d#6 v=112
204252 Off ch=1 n=d#6 v=64
204252 Off ch=1 n=a5 v=64
204252 On ch=1 n=a5 v=112
204252 On ch=1 n=d#6 v=112
204412 Off ch=1 n=d#6 v=64
204412 Off ch=1 n=a5 v=64
204412 On ch=1 n=d6 v=112
204412 On ch=1 n=a#5 v=112
204569 Off ch=1 n=a#5 v=64
204569 Off ch=1 n=d6 v=64
204572 On ch=1 n=c5 v=112
204572 On ch=1 n=e5 v=112
204572 On ch=1 n=a#5 v=112
204572 On ch=1 n=c6 v=112
204572 On ch=1 n=g6 v=112
204732 Off ch=1 n=g6 v=64
204732 Off ch=1 n=c6 v=64
204732 Off ch=1 n=a#5 v=64
204732 Off ch=1 n=e5 v=64
204732 Off ch=1 n=c5 v=64
204732 On ch=1 n=c6 v=112
204732 On ch=1 n=g6 v=112
204777 Par ch=1 c=7 v=111
204822 Par ch=1 c=7 v=110
204867 Par ch=1 c=7 v=109
204892 Off ch=1 n=g6 v=64
204892 Off ch=1 n=c6 v=64
204892 On ch=1 n=f6 v=110
204912 Par ch=1 c=7 v=108
204957 Par ch=1 c=7 v=107
205002 Par ch=1 c=7 v=106
205047 Par ch=1 c=7 v=105
205049 Off ch=1 n=f6 v=64
205052 On ch=1 n=a6 v=108
205052 On ch=1 n=d#7 v=108
205092 Par ch=1 c=7 v=104
205137 Par ch=1 c=7 v=103
205182 Par ch=1 c=7 v=102
205212 Off ch=1 n=d#7 v=64
205212 Off ch=1 n=a6 v=64
205212 On ch=1 n=a6 v=106
205212 On ch=1 n=d#7 v=106
205227 Par ch=1 c=7 v=101
205272 Par ch=1 c=7 v=100
205317 Par ch=1 c=7 v=99
205362 Par ch=1 c=7 v=98
205372 Off ch=1 n=d#7 v=64
205372 Off ch=1 n=a6 v=64
205372 On ch=1 n=d7 v=104
205372 On ch=1 n=a#6 v=104
205407 Par ch=1 c=7 v=97
205452 Par ch=1 c=7 v=96
205497 Par ch=1 c=7 v=95
205529 Off ch=1 n=a#6 v=64
205529 Off ch=1 n=d7 v=64
205532 On ch=1 n=c6 v=102
205532 On ch=1 n=g6 v=102
205542 Par ch=1 c=7 v=94
205587 Par ch=1 c=7 v=93
205632 Par ch=1 c=7 v=92
205677 Par ch=1 c=7 v=91
205692 Off ch=1 n=g6 v=64
205692 Off ch=1 n=c6 v=64
205692 On ch=1 n=c6 v=100
205692 On ch=1 n=g6 v=100
205722 Par ch=1 c=7 v=90
205767 Par ch=1 c=7 v=89
205812 Par ch=1 c=7 v=88
205852 Off ch=1 n=g6 v=64
205852 Off ch=1 n=c6 v=64
205852 On ch=1 n=f6 v=98
205857 Par ch=1 c=7 v=87
205902 Par ch=1 c=7 v=86
205947 Par ch=1 c=7 v=85
205992 Par ch=1 c=7 v=84
206009 Off ch=1 n=f6 v=64
206012 On ch=1 n=f5 v=96
206012 On ch=1 n=a5 v=96
206012 On ch=1 n=d#6 v=96
206037 Par ch=1 c=7 v=83
206082 Par ch=1 c=7 v=82
206127 Par ch=1 c=7 v=81
206172 Off ch=1 n=d#6 v=64
206172 Off ch=1 n=a5 v=64
206172 Off ch=1 n=f5 v=64
206172 Par ch=1 c=7 v=80
206172 On ch=1 n=f4 v=94
206172 On ch=1 n=c5 v=94
206172 On ch=1 n=f5 v=94
206172 On ch=1 n=a5 v=94
206172 On ch=1 n=d#6 v=94
206217 Par ch=1 c=7 v=79
206262 Par ch=1 c=7 v=78
206307 Par ch=1 c=7 v=77
206332 Off ch=1 n=d#6 v=64
206332 Off ch=1 n=a5 v=64
206332 Off ch=1 n=f5 v=64
206332 Off ch=1 n=c5 v=64
206332 Off ch=1 n=f4 v=64
206332 On ch=1 n=d6 v=92
206332 On ch=1 n=a#5 v=92
206332 On ch=1 n=f5 v=92
206332 On ch=1 n=a#4 v=92
206352 Par ch=1 c=7 v=76
206397 Par ch=1 c=7 v=75
206442 Par ch=1 c=7 v=74
206487 Par ch=1 c=7 v=73
206489 Off ch=1 n=a#4 v=64
206489 Off ch=1 n=f5 v=64
206489 Off ch=1 n=a#5 v=64
206489 Off ch=1 n=d6 v=64
206492 On ch=1 n=g5 v=90
206492 On ch=1 n=c5 v=90
206532 Par ch=1 c=7 v=72
206577 Par ch=1 c=7 v=71
206622 Par ch=1 c=7 v=70
206652 Off ch=1 n=c5 v=64
206652 Off ch=1 n=g5 v=64
206652 On ch=1 n=g5 v=88
206652 On ch=1 n=c5 v=88
206667 Par ch=1 c=7 v=69
206712 Par ch=1 c=7 v=68
206757 Par ch=1 c=7 v=67
206802 Par ch=1 c=7 v=66
206812 Off ch=1 n=c5 v=64
206812 Off ch=1 n=g5 v=64
206812 On ch=1 n=f5 v=86
206847 Par ch=1 c=7 v=65
206892 Par ch=1 c=7 v=64
206937 Par ch=1 c=7 v=63
206972 Off ch=1 n=f5 v=64
206972 On ch=1 n=d#5 v=84
206972 On ch=1 n=c5 v=84
206972 On ch=1 n=a4 v=84
206982 Par ch=1 c=7 v=62
207027 Par ch=1 c=7 v=61
207072 Par ch=1 c=7 v=60
207117 Par ch=1 c=7 v=59
207129 Off ch=1 n=a4 v=64
207129 Off ch=1 n=c5 v=64
207129 Off ch=1 n=d#5 v=64
207132 On ch=1 n=d#5 v=82
207132 On ch=1 n=c5 v=82
207132 On ch=1 n=a4 v=82
207162 Par ch=1 c=7 v=58
207207 Par ch=1 c=7 v=57
207252 Par ch=1 c=7 v=56
207292 Off ch=1 n=a4 v=64
207292 Off ch=1 n=c5 v=64
207292 Off ch=1 n=d#5 v=64
207292 On ch=1 n=e5 v=80
207292 On ch=1 n=c#5 v=80
207292 On ch=1 n=a4 v=80
207297 Par ch=1 c=7 v=55
207342 Par ch=1 c=7 v=54
207387 Par ch=1 c=7 v=53
207432 Par ch=1 c=7 v=52
207452 Off ch=1 n=a4 v=64
207452 Off ch=1 n=c#5 v=64
207452 Off ch=1 n=e5 v=64
207452 On ch=1 n=a5 v=78
207452 On ch=1 n=d#5 v=78
207452 On ch=1 n=b4 v=78
207452 On ch=1 n=a4 v=78
207477 Par ch=1 c=7 v=51
207522 Par ch=1 c=7 v=50
207567 Par ch=1 c=7 v=49
207612 Off ch=1 n=a4 v=64
207612 Off ch=1 n=b4 v=64
207612 Off ch=1 n=d#5 v=64
207612 Off ch=1 n=a5 v=64
207612 Par ch=1 c=7 v=48
207612 On ch=1 n=a5 v=48
207612 On ch=1 n=d#5 v=48
207612 On ch=1 n=b4 v=48
207612 On ch=1 n=a4 v=48
207772 Off ch=1 n=a4 v=64
207772 Off ch=1 n=b4 v=64
207772 Off ch=1 n=d#5 v=64
207772 Off ch=1 n=a5 v=64
207772 On ch=1 n=g#5 v=49
207772 On ch=1 n=e5 v=49
207772 On ch=1 n=g#4 v=49
207929 Off ch=1 n=g#4 v=64
207929 Off ch=1 n=e5 v=64
207929 Off ch=1 n=g#5 v=64
207932 On ch=1 n=d#6 v=50
207932 On ch=1 n=g#5 v=50
207932 On ch=1 n=e5 v=50
207932 On ch=1 n=d5 v=50
208089 Off ch=1 n=d5 v=64
208089 Off ch=1 n=e5 v=64
208089 Off ch=1 n=g#5 v=64
208089 Off ch=1 n=d#6 v=64
208092 On ch=1 n=d6 v=51
208092 On ch=1 n=g#5 v=51
208092 On ch=1 n=e5 v=51
208092 On ch=1 n=d5 v=51
208249 Off ch=1 n=d5 v=64
208249 Off ch=1 n=e5 v=64
208249 Off ch=1 n=g#5 v=64
208249 Off ch=1 n=d6 v=64
208252 On ch=1 n=c#6 v=52
208252 On ch=1 n=a5 v=52
208252 On ch=1 n=c#5 v=52
208412 Off ch=1 n=c#5 v=64
208412 Off ch=1 n=a5 v=64
208412 Off ch=1 n=c#6 v=64
208412 On ch=1 n=a6 v=53
208412 On ch=1 n=d#6 v=53
208412 On ch=1 n=b5 v=53
208412 On ch=1 n=a5 v=53
208572 Off ch=1 n=a5 v=64
208572 Off ch=1 n=b5 v=64
208572 Off ch=1 n=d#6 v=64
208572 Off ch=1 n=a6 v=64
208572 On ch=1 n=a6 v=54
208572 On ch=1 n=d#6 v=54
208572 On ch=1 n=b5 v=54
208572 On ch=1 n=a5 v=54
208729 Off ch=1 n=a5 v=64
208729 Off ch=1 n=b5 v=64
208729 Off ch=1 n=d#6 v=64
208729 Off ch=1 n=a6 v=64
208732 On ch=1 n=g#6 v=55
208732 On ch=1 n=e6 v=55
208732 On ch=1 n=g#5 v=55
208892 Off ch=1 n=g#5 v=64
208892 Off ch=1 n=e6 v=64
208892 Off ch=1 n=g#6 v=64
208892 On ch=1 n=d7 v=56
208892 On ch=1 n=g#6 v=56
208892 On ch=1 n=e6 v=56
208892 On ch=1 n=d6 v=56
209052 Off ch=1 n=d6 v=64
209052 Off ch=1 n=e6 v=64
209052 Off ch=1 n=g#6 v=64
209052 Off ch=1 n=d7 v=64
209052 On ch=1 n=d7 v=57
209052 On ch=1 n=g#6 v=57
209052 On ch=1 n=e6 v=57
209052 On ch=1 n=d6 v=57
209209 Off ch=1 n=d6 v=64
209209 Off ch=1 n=e6 v=64
209209 Off ch=1 n=g#6 v=64
209209 Off ch=1 n=d7 v=64
209212 On ch=1 n=b5 v=58
209212 On ch=1 n=g5 v=58
209372 Off ch=1 n=g5 v=64
209372 Off ch=1 n=b5 v=64
209372 On ch=1 n=f6 v=59
209372 On ch=1 n=g#5 v=59
209532 Off ch=1 n=g#5 v=64
209532 Off ch=1 n=f6 v=64
209532 On ch=1 n=d6 v=60
209532 On ch=1 n=a#5 v=60
209692 Off ch=1 n=a#5 v=64
209692 Off ch=1 n=d6 v=64
209692 On ch=1 n=g#6 v=61
209692 On ch=1 n=b5 v=61
209852 Off ch=1 n=b5 v=64
209852 Off ch=1 n=g#6 v=64
209852 On ch=1 n=f6 v=62
209852 On ch=1 n=c#6 v=62
210009 Off ch=1 n=c#6 v=64
210009 Off ch=1 n=f6 v=64
210012 On ch=1 n=b6 v=63
210012 On ch=1 n=d6 v=63
210172 Off ch=1 n=d6 v=64
210172 Off ch=1 n=b6 v=64
210172 On ch=1 n=g#6 v=64
210172 On ch=1 n=e6 v=64
210332 Off ch=1 n=e6 v=64
210332 Off ch=1 n=g#6 v=64
210332 On ch=1 n=d7 v=65
210332 On ch=1 n=f6 v=65
210492 Off ch=1 n=f6 v=64
210492 Off ch=1 n=d7 v=64
210492 On ch=1 n=b6 v=66
210492 On ch=1 n=g6 v=66
210652 Off ch=1 n=g6 v=64
210652 Off ch=1 n=b6 v=64
210652 On ch=1 n=f7 v=67
210652 On ch=1 n=g#6 v=67
210812 Off ch=1 n=g#6 v=64
210812 Off ch=1 n=f7 v=64
210812 On ch=1 n=g#7 v=68
210812 On ch=1 n=g#6 v=68
210972 Off ch=1 n=g#6 v=64
210972 Off ch=1 n=g#7 v=64
210972 On ch=1 n=a7 v=69
210972 On ch=1 n=e7 v=69
210972 On ch=1 n=a6 v=69
211024 Off ch=1 n=a6 v=64
211024 Off ch=1 n=e7 v=64
211024 Off ch=1 n=a7 v=64
211132 On ch=1 n=a5 v=70
211132 On ch=1 n=e5 v=70
211132 On ch=1 n=a4 v=70
211289 Off ch=1 n=a4 v=64
211289 Off ch=1 n=e5 v=64
211289 Off ch=1 n=a5 v=64
211292 On ch=1 n=a4 v=71
211292 On ch=1 n=e5 v=71
211292 On ch=1 n=a5 v=71
211449 Off ch=1 n=a5 v=64
211449 Off ch=1 n=e5 v=64
211449 Off ch=1 n=a4 v=64
211452 On ch=1 n=a4 v=72
211452 On ch=1 n=e5 v=72
211452 On ch=1 n=a5 v=72
211609 Off ch=1 n=a5 v=64
211609 Off ch=1 n=e5 v=64
211609 Off ch=1 n=a4 v=64
211612 On ch=1 n=a4 v=73
211612 On ch=1 n=f5 v=73
211612 On ch=1 n=a5 v=73
211769 Off ch=1 n=a5 v=64
211769 Off ch=1 n=f5 v=64
211769 Off ch=1 n=a4 v=64
211772 On ch=1 n=a4 v=74
211772 On ch=1 n=f5 v=74
211772 On ch=1 n=a5 v=74
211929 Off ch=1 n=a5 v=64
211929 Off ch=1 n=f5 v=64
211929 Off ch=1 n=a4 v=64
211932 On ch=1 n=a4 v=75
211932 On ch=1 n=f5 v=75
211932 On ch=1 n=a5 v=75
212089 Off ch=1 n=a5 v=64
212089 Off ch=1 n=f5 v=64
212089 Off ch=1 n=a4 v=64
212092 On ch=1 n=a5 v=76
212092 On ch=1 n=f5 v=76
212092 On ch=1 n=a4 v=76
212249 Off ch=1 n=a4 v=64
212249 Off ch=1 n=f5 v=64
212249 Off ch=1 n=a5 v=64
212252 On ch=1 n=a5 v=77
212252 On ch=1 n=f5 v=77
212252 On ch=1 n=a4 v=77
212409 Off ch=1 n=a4 v=64
212409 Off ch=1 n=f5 v=64
212409 Off ch=1 n=a5 v=64
212412 On ch=1 n=a5 v=78
212412 On ch=1 n=f5 v=78
212412 On ch=1 n=a4 v=78
212569 Off ch=1 n=a4 v=64
212569 Off ch=1 n=f5 v=64
212569 Off ch=1 n=a5 v=64
212572 On ch=1 n=a5 v=79
212572 On ch=1 n=f5 v=79
212572 On ch=1 n=a4 v=79
212729 Off ch=1 n=a4 v=64
212729 Off ch=1 n=f5 v=64
212729 Off ch=1 n=a5 v=64
212732 On ch=1 n=a5 v=80
212732 On ch=1 n=f5 v=80
212732 On ch=1 n=a4 v=80
212889 Off ch=1 n=a4 v=64
212889 Off ch=1 n=f5 v=64
212889 Off ch=1 n=a5 v=64
212892 On ch=1 n=a5 v=113
212892 On ch=1 n=f5 v=113
212892 On ch=1 n=a4 v=113
213049 Off ch=1 n=a4 v=64
213049 Off ch=1 n=f5 v=64
213049 Off ch=1 n=a5 v=64
213052 On ch=1 n=a#5 v=82
213052 On ch=1 n=f5 v=82
213052 On ch=1 n=a#4 v=82
213209 Off ch=1 n=a#4 v=64
213209 Off ch=1 n=f5 v=64
213209 Off ch=1 n=a#5 v=64
213212 On ch=1 n=a#5 v=83
213212 On ch=1 n=f5 v=83
213212 On ch=1 n=a#4 v=83
213369 Off ch=1 n=a#4 v=64
213369 Off ch=1 n=f5 v=64
213369 Off ch=1 n=a#5 v=64
213372 On ch=1 n=a#5 v=84
213372 On ch=1 n=f5 v=84
213372 On ch=1 n=a#4 v=84
213529 Off ch=1 n=a#4 v=64
213529 Off ch=1 n=f5 v=64
213529 Off ch=1 n=a#5 v=64
213532 On ch=1 n=a#5 v=85
213532 On ch=1 n=f#5 v=85
213532 On ch=1 n=a#4 v=85
213689 Off ch=1 n=a#4 v=64
213689 Off ch=1 n=f#5 v=64
213689 Off ch=1 n=a#5 v=64
213692 On ch=1 n=a#5 v=86
213692 On ch=1 n=f#5 v=86
213692 On ch=1 n=a#4 v=86
213849 Off ch=1 n=a#4 v=64
213849 Off ch=1 n=f#5 v=64
213849 Off ch=1 n=a#5 v=64
213852 On ch=1 n=a#5 v=87
213852 On ch=1 n=f#5 v=87
213852 On ch=1 n=a#4 v=87
214009 Off ch=1 n=a#4 v=64
214009 Off ch=1 n=f#5 v=64
214009 Off ch=1 n=a#5 v=64
214012 On ch=1 n=a#5 v=88
214012 On ch=1 n=f#5 v=88
214012 On ch=1 n=a#4 v=88
214169 Off ch=1 n=a#4 v=64
214169 Off ch=1 n=f#5 v=64
214169 Off ch=1 n=a#5 v=64
214172 On ch=1 n=a#5 v=89
214172 On ch=1 n=f#5 v=89
214172 On ch=1 n=a#4 v=89
214329 Off ch=1 n=a#4 v=64
214329 Off ch=1 n=f#5 v=64
214329 Off ch=1 n=a#5 v=64
214332 On ch=1 n=a#5 v=90
214332 On ch=1 n=f#5 v=90
214332 On ch=1 n=a#4 v=90
214489 Off ch=1 n=a#4 v=64
214489 Off ch=1 n=f#5 v=64
214489 Off ch=1 n=a#5 v=64
214492 On ch=1 n=a#5 v=91
214492 On ch=1 n=f5 v=91
214492 On ch=1 n=a#4 v=91
214649 Off ch=1 n=a#4 v=64
214649 Off ch=1 n=f5 v=64
214649 Off ch=1 n=a#5 v=64
214652 On ch=1 n=a#5 v=92
214652 On ch=1 n=e5 v=92
214652 On ch=1 n=a#4 v=92
214809 Off ch=1 n=a#4 v=64
214809 Off ch=1 n=e5 v=64
214809 Off ch=1 n=a#5 v=64
214812 On ch=1 n=a#5 v=108
214812 On ch=1 n=f5 v=108
214812 On ch=1 n=a#4 v=108
214969 Off ch=1 n=a#4 v=64
214969 Off ch=1 n=f5 v=64
214969 Off ch=1 n=a#5 v=64
214972 On ch=1 n=d6 v=108
214972 On ch=1 n=f5 v=108
214972 On ch=1 n=d5 v=108
215129 Off ch=1 n=d5 v=64
215129 Off ch=1 n=f5 v=64
215129 Off ch=1 n=d6 v=64
215132 On ch=1 n=d6 v=108
215132 On ch=1 n=f5 v=108
215132 On ch=1 n=d5 v=108
215289 Off ch=1 n=d5 v=64
215289 Off ch=1 n=f5 v=64
215289 Off ch=1 n=d6 v=64
215292 On ch=1 n=d6 v=108
215292 On ch=1 n=f5 v=108
215292 On ch=1 n=d5 v=108
215449 Off ch=1 n=d5 v=64
215449 Off ch=1 n=f5 v=64
215449 Off ch=1 n=d6 v=64
215452 On ch=1 n=c6 v=108
215452 On ch=1 n=c5 v=108
215609 Off ch=1 n=c5 v=64
215609 Off ch=1 n=c6 v=64
215612 On ch=1 n=a#5 v=108
215612 On ch=1 n=a#4 v=108
215769 Off ch=1 n=a#4 v=64
215769 Off ch=1 n=a#5 v=64
215932 On ch=1 n=d6 v=108
215932 On ch=1 n=f#5 v=108
215932 On ch=1 n=d5 v=108
216089 Off ch=1 n=d5 v=64
216089 Off ch=1 n=f#5 v=64
216089 Off ch=1 n=d6 v=64
216092 On ch=1 n=d6 v=108
216092 On ch=1 n=f#5 v=108
216092 On ch=1 n=d5 v=108
216249 Off ch=1 n=d5 v=64
216249 Off ch=1 n=f#5 v=64
216249 Off ch=1 n=d6 v=64
216252 On ch=1 n=d6 v=108
216252 On ch=1 n=f#5 v=108
216252 On ch=1 n=d5 v=108
216409 Off ch=1 n=d5 v=64
216409 Off ch=1 n=f#5 v=64
216409 Off ch=1 n=d6 v=64
216412 On ch=1 n=c6 v=108
216412 On ch=1 n=c5 v=108
216569 Off ch=1 n=c5 v=64
216569 Off ch=1 n=c6 v=64
216572 On ch=1 n=a#5 v=108
216572 On ch=1 n=a#4 v=108
216729 Off ch=1 n=a#4 v=64
216729 Off ch=1 n=a#5 v=64
216892 On ch=1 n=d6 v=108
216892 On ch=1 n=f5 v=108
216892 On ch=1 n=d5 v=108
217049 Off ch=1 n=d5 v=64
217049 Off ch=1 n=f5 v=64
217049 Off ch=1 n=d6 v=64
217052 On ch=1 n=d6 v=108
217052 On ch=1 n=f5 v=108
217052 On ch=1 n=d5 v=108
217209 Off ch=1 n=d5 v=64
217209 Off ch=1 n=f5 v=64
217209 Off ch=1 n=d6 v=64
217212 On ch=1 n=d6 v=108
217212 On ch=1 n=f5 v=108
217212 On ch=1 n=d5 v=108
217369 Off ch=1 n=d5 v=64
217369 Off ch=1 n=f5 v=64
217369 Off ch=1 n=d6 v=64
217372 On ch=1 n=c6 v=108
217372 On ch=1 n=c5 v=108
217529 Off ch=1 n=c5 v=64
217529 Off ch=1 n=c6 v=64
217532 On ch=1 n=a#5 v=108
217532 On ch=1 n=a#4 v=108
217689 Off ch=1 n=a#4 v=64
217689 Off ch=1 n=a#5 v=64
217852 On ch=1 n=d6 v=108
217852 On ch=1 n=d5 v=108
218009 Off ch=1 n=d5 v=64
218009 Off ch=1 n=d6 v=64
218012 On ch=1 n=d6 v=108
218012 On ch=1 n=d5 v=108
218169 Off ch=1 n=d5 v=64
218169 Off ch=1 n=d6 v=64
218172 On ch=1 n=d6 v=108
218172 On ch=1 n=d5 v=108
218329 Off ch=1 n=d6 v=64
218332 On ch=1 n=c6 v=108
218489 Off ch=1 n=c6 v=64
218492 On ch=1 n=a#5 v=108
218649 Off ch=1 n=a#5 v=64
218652 On ch=1 n=d6 v=127
218652 On ch=1 n=a#5 v=127
218652 On ch=1 n=f5 v=127
218652 On ch=1 n=d5 v=127
218832 Off ch=1 n=d5 v=64
219552 Off ch=1 n=d5 v=64
219552 Off ch=1 n=f5 v=64
219552 Off ch=1 n=a#5 v=64
219552 Off ch=1 n=d6 v=64
219612 On ch=1 n=d6 v=127
219612 On ch=1 n=a#5 v=127
219612 On ch=1 n=f5 v=127
219612 On ch=1 n=d5 v=127
220032 Off ch=1 n=d5 v=64
220032 Off ch=1 n=f5 v=64
220032 Off ch=1 n=a#5 v=64
220032 Off ch=1 n=d6 v=64
220092 On ch=1 n=d6 v=127
220092 On ch=1 n=b5 v=127
220092 On ch=1 n=f5 v=127
220092 On ch=1 n=d5 v=127
220512 Off ch=1 n=d5 v=64
220512 Off ch=1 n=f5 v=64
220512 Off ch=1 n=b5 v=64
220512 Off ch=1 n=d6 v=64
220572 On ch=1 n=d6 v=108
220572 On ch=1 n=a#5 v=108
220572 On ch=1 n=f5 v=108
220572 On ch=1 n=d5 v=108
220992 Off ch=1 n=d5 v=64
220992 Off ch=1 n=f5 v=64
220992 Off ch=1 n=a#5 v=64
220992 Off ch=1 n=d6 v=64
221052 On ch=1 n=d6 v=108
221052 On ch=1 n=b5 v=108
221052 On ch=1 n=f5 v=108
221052 On ch=1 n=d5 v=108
221472 Off ch=1 n=d5 v=64
221472 Off ch=1 n=f5 v=64
221472 Off ch=1 n=b5 v=64
221472 Off ch=1 n=d6 v=64
221532 On ch=1 n=d#6 v=127
221532 On ch=1 n=b5 v=127
221532 On ch=1 n=f#5 v=127
221532 On ch=1 n=d#5 v=127
221952 Off ch=1 n=d#5 v=64
221952 Off ch=1 n=f#5 v=64
221952 Off ch=1 n=b5 v=64
221952 Off ch=1 n=d#6 v=64
222012 On ch=1 n=d#6 v=127
222012 On ch=1 n=c6 v=127
222012 On ch=1 n=f#5 v=127
222012 On ch=1 n=d#5 v=127
222432 Off ch=1 n=d#5 v=64
222432 Off ch=1 n=f#5 v=64
222432 Off ch=1 n=c6 v=64
222432 Off ch=1 n=d#6 v=64
222492 On ch=1 n=e6 v=127
222492 On ch=1 n=c6 v=127
222492 On ch=1 n=g5 v=127
222492 On ch=1 n=e5 v=127
222912 Off ch=1 n=e5 v=64
222912 Off ch=1 n=g5 v=64
222912 Off ch=1 n=c6 v=64
222912 Off ch=1 n=e6 v=64
222972 On ch=1 n=e6 v=127
222972 On ch=1 n=c#6 v=127
222972 On ch=1 n=g5 v=127
222972 On ch=1 n=e5 v=127
223392 Off ch=1 n=e5 v=64
223392 Off ch=1 n=g5 v=64
223392 Off ch=1 n=c#6 v=64
223392 Off ch=1 n=e6 v=64
223452 On ch=1 n=d#6 v=127
223452 On ch=1 n=c#6 v=127
223452 On ch=1 n=g5 v=127
223452 On ch=1 n=d#5 v=127
223872 Off ch=1 n=d#5 v=64
223872 Off ch=1 n=g5 v=64
223872 Off ch=1 n=c#6 v=64
223872 Off ch=1 n=d#6 v=64
223932 On ch=1 n=f6 v=127
223932 On ch=1 n=d#6 v=127
223932 On ch=1 n=a5 v=127
223932 On ch=1 n=f5 v=127
224352 Off ch=1 n=f5 v=64
224352 Off ch=1 n=a5 v=64
224352 Off ch=1 n=d#6 v=64
224352 Off ch=1 n=f6 v=64
224412 On ch=1 n=f6 v=108
224412 On ch=1 n=a#5 v=108
224412 On ch=1 n=f5 v=108
224832 Off ch=1 n=f5 v=64
224832 Off ch=1 n=a#5 v=64
224832 Off ch=1 n=f6 v=64
224892 On ch=1 n=f#6 v=108
224892 On ch=1 n=a#5 v=108
224892 On ch=1 n=f#5 v=108
225312 Off ch=1 n=f#5 v=64
225312 Off ch=1 n=a#5 v=64
225312 Off ch=1 n=f#6 v=64
225372 On ch=1 n=a#6 v=108
225372 On ch=1 n=d#6 v=108
225372 On ch=1 n=c6 v=108
225372 On ch=1 n=a#5 v=108
225792 Off ch=1 n=a#5 v=64
225792 Off ch=1 n=c6 v=64
225792 Off ch=1 n=d#6 v=64
225792 Off ch=1 n=a#6 v=64
225852 On ch=1 n=a6 v=108
225852 On ch=1 n=d#6 v=108
225852 On ch=1 n=c6 v=108
225852 On ch=1 n=a5 v=108
226272 Off ch=1 n=a5 v=64
226272 Off ch=1 n=c6 v=64
226272 Off ch=1 n=d#6 v=64
226272 Off ch=1 n=a6 v=64
226332 On ch=1 n=a#6 v=108
226332 On ch=1 n=d6 v=108
226332 On ch=1 n=a#5 v=108
226752 Off ch=1 n=a#5 v=64
226752 Off ch=1 n=d6 v=64
226752 Off ch=1 n=a#6 v=64
226812 On ch=1 n=a#6 v=108
226812 On ch=1 n=f#6 v=108
226812 On ch=1 n=d#6 v=108
226812 On ch=1 n=a#5 v=108
227232 Off ch=1 n=a#5 v=64
227232 Off ch=1 n=d#6 v=64
227232 Off ch=1 n=f#6 v=64
227232 Off ch=1 n=a#6 v=64
227292 On ch=1 n=a#6 v=108
227292 On ch=1 n=f6 v=108
227292 On ch=1 n=d6 v=108
227292 On ch=1 n=a#5 v=108
227712 Off ch=1 n=a#5 v=64
227712 Off ch=1 n=d6 v=64
227712 Off ch=1 n=f6 v=64
227712 Off ch=1 n=a#6 v=64
227772 On ch=1 n=a#6 v=108
227772 On ch=1 n=f#6 v=108
227772 On ch=1 n=d#6 v=108
227772 On ch=1 n=a#5 v=108
228192 Off ch=1 n=a#5 v=64
228192 Off ch=1 n=d#6 v=64
228192 Off ch=1 n=f#6 v=64
228192 Off ch=1 n=a#6 v=64
228252 On ch=1 n=a#6 v=127
228252 On ch=1 n=f6 v=127
228252 On ch=1 n=d6 v=127
228252 On ch=1 n=a#5 v=127
228252 Par ch=1 c=7 v=127
229152 Off ch=1 n=a#5 v=64
229152 Off ch=1 n=d6 v=64
229152 Off ch=1 n=f6 v=64
229152 Off ch=1 n=a#6 v=64
229212 On ch=1 n=a#7 v=127
229212 On ch=1 n=a#6 v=127
230112 Off ch=1 n=a#6 v=64
230112 Off ch=1 n=a#7 v=64
230172 On ch=1 n=d5 v=127
231072 Off ch=1 n=d5 v=64
231072 Meta TrkEnd
TrkEnd
MTrk
0 Meta TrkName "Lower G.S."
0 PrCh ch=2 p=0
0 Par ch=2 c=7 v=85
0 Par ch=2 c=10 v=64
0 Par ch=2 c=7 v=94
0 On ch=2 n=c#3 v=94
0 On ch=2 n=c#4 v=94
840 Off ch=2 n=c#4 v=64
840 Off ch=2 n=c#3 v=64
840 On ch=2 n=e3 v=94
840 On ch=2 n=e2 v=94
960 Off ch=2 n=e2 v=64
960 Off ch=2 n=e3 v=64
960 On ch=2 n=e2 v=94
960 On ch=2 n=e3 v=94
1860 Off ch=2 n=e3 v=64
1860 Off ch=2 n=e2 v=64
1920 On ch=2 n=f3 v=94
1920 On ch=2 n=f2 v=94
3780 Off ch=2 n=f2 v=64
3780 Off ch=2 n=f3 v=64
3840 Par ch=2 c=7 v=30
3840 Par ch=2 c=64 v=127
3840 On ch=2 n=a#2 v=30
3840 On ch=2 n=a#3 v=30
3870 Par ch=2 c=7 v=31
3900 Par ch=2 c=7 v=32
3930 Par ch=2 c=7 v=33
3957 Off ch=2 n=a#3 v=64
3957 Off ch=2 n=a#2 v=64
3960 Par ch=2 c=7 v=34
3990 Par ch=2 c=7 v=35
4020 Par ch=2 c=7 v=36
4050 Par ch=2 c=7 v=37
4080 Par ch=2 c=7 v=38
4110 Par ch=2 c=7 v=39
4140 Par ch=2 c=7 v=40
4170 Par ch=2 c=7 v=41
4200 Par ch=2 c=7 v=42
4200 On ch=2 n=f3 v=33
4230 Par ch=2 c=7 v=43
4260 Par ch=2 c=7 v=44
4290 Par ch=2 c=7 v=45
4320 Off ch=2 n=f3 v=64
4320 Par ch=2 c=7 v=46
4320 On ch=2 n=a#2 v=34
4320 On ch=2 n=a#3 v=34
4350 Par ch=2 c=7 v=47
4380 Par ch=2 c=7 v=48
4410 Par ch=2 c=7 v=49
4437 Off ch=2 n=a#3 v=64
4437 Off ch=2 n=a#2 v=64
4440 Par ch=2 c=7 v=50
4470 Par ch=2 c=7 v=51
4500 Par ch=2 c=7 v=52
4530 Par ch=2 c=7 v=53
4560 Par ch=2 c=7 v=54
4590 Par ch=2 c=7 v=55
4620 Par ch=2 c=7 v=56
4650 Par ch=2 c=7 v=57
4680 On ch=2 n=f3 v=37
4680 Par ch=2 c=7 v=58
4710 Par ch=2 c=7 v=59
4740 Par ch=2 c=7 v=60
4770 Par ch=2 c=7 v=61
4800 Off ch=2 n=f3 v=64
4800 Par ch=2 c=7 v=62
4800 On ch=2 n=a#2 v=38
4800 On ch=2 n=a#3 v=38
4830 Par ch=2 c=7 v=63
4860 Par ch=2 c=7 v=64
4890 Par ch=2 c=7 v=65
4917 Off ch=2 n=a#3 v=64
4917 Off ch=2 n=a#2 v=64
4920 Par ch=2 c=7 v=66
4950 Par ch=2 c=7 v=67
4980 Par ch=2 c=7 v=68
5010 Par ch=2 c=7 v=69
5040 Par ch=2 c=7 v=70
5070 Par ch=2 c=7 v=71
5100 Par ch=2 c=7 v=72
5130 Par ch=2 c=7 v=73
5160 Par ch=2 c=7 v=74
5160 On ch=2 n=f3 v=41
5190 Par ch=2 c=7 v=75
5220 Par ch=2 c=7 v=76
5250 Par ch=2 c=7 v=77
5280 Off ch=2 n=f3 v=64
5280 Par ch=2 c=7 v=78
5280 On ch=2 n=a#2 v=42
5280 On ch=2 n=a#3 v=42
5310 Par ch=2 c=7 v=79
5340 Par ch=2 c=7 v=80
5370 Par ch=2 c=7 v=81
5397 Off ch=2 n=a#3 v=64
5397 Off ch=2 n=a#2 v=64
5400 Par ch=2 c=7 v=82
5430 Par ch=2 c=7 v=83
5460 Par ch=2 c=7 v=84
5490 Par ch=2 c=7 v=85
5520 Par ch=2 c=7 v=86
5550 Par ch=2 c=7 v=87
5580 Par ch=2 c=7 v=88
5610 Par ch=2 c=7 v=89
5640 On ch=2 n=f3 v=45
5640 Par ch=2 c=7 v=90
5670 Par ch=2 c=7 v=91
5700 Par ch=2 c=7 v=92
5730 Par ch=2 c=7 v=93
5760 Off ch=2 n=f3 v=64
5760 Par ch=2 c=7 v=94
5760 On ch=2 n=a#2 v=94
5760 On ch=2 n=a#3 v=94
5801 Par ch=2 c=7 v=93
5842 Par ch=2 c=7 v=92
5877 Off ch=2 n=a#3 v=64
5877 Off ch=2 n=a#2 v=64
5885 Par ch=2 c=7 v=91
5926 Par ch=2 c=7 v=90
5967 Par ch=2 c=7 v=89
6010 Par ch=2 c=7 v=88
6051 Par ch=2 c=7 v=87
6093 Par ch=2 c=7 v=86
6120 On ch=2 n=f3 v=92
6135 Par ch=2 c=7 v=85
6176 Par ch=2 c=7 v=84
6218 Par ch=2 c=7 v=83
6240 Off ch=2 n=f3 v=64
6240 On ch=2 n=a#2 v=91
6240 On ch=2 n=a#3 v=91
6260 Par ch=2 c=7 v=82
6302 Par ch=2 c=7 v=81
6343 Par ch=2 c=7 v=80
6357 Off ch=2 n=a#3 v=64
6357 Off ch=2 n=a#2 v=64
6385 Par ch=2 c=7 v=79
6427 Par ch=2 c=7 v=78
6468 Par ch=2 c=7 v=77
6511 Par ch=2 c=7 v=76
6552 Par ch=2 c=7 v=75
6593 Par ch=2 c=7 v=74
6600 On ch=2 n=f3 v=89
6636 Par ch=2 c=7 v=73
6677 Par ch=2 c=7 v=72
6718 Par ch=2 c=7 v=71
6720 Off ch=2 n=f3 v=64
6720 On ch=2 n=a#2 v=88
6720 On ch=2 n=a#3 v=88
6761 Par ch=2 c=7 v=70
6802 Par ch=2 c=7 v=69
6837 Off ch=2 n=a#3 v=64
6837 Off ch=2 n=a#2 v=64
6845 Par ch=2 c=7 v=68
6886 Par ch=2 c=7 v=67
6927 Par ch=2 c=7 v=66
6970 Par ch=2 c=7 v=65
7011 Par ch=2 c=7 v=64
7053 Par ch=2 c=7 v=63
7080 On ch=2 n=f3 v=86
7095 Par ch=2 c=7 v=62
7136 Par ch=2 c=7 v=61
7178 Par ch=2 c=7 v=60
7200 Off ch=2 n=f3 v=64
7200 On ch=2 n=a#2 v=85
7200 On ch=2 n=a#3 v=85
7220 Par ch=2 c=7 v=59
7262 Par ch=2 c=7 v=58
7303 Par ch=2 c=7 v=57
7317 Off ch=2 n=a#3 v=64
7317 Off ch=2 n=a#2 v=64
7345 Par ch=2 c=7 v=56
7387 Par ch=2 c=7 v=55
7428 Par ch=2 c=7 v=54
7471 Par ch=2 c=7 v=53
7512 Par ch=2 c=7 v=52
7553 Par ch=2 c=7 v=51
7596 Par ch=2 c=7 v=50
7637 Par ch=2 c=7 v=49
7678 Par ch=2 c=7 v=48
7680 Par ch=2 c=7 v=48
7680 Par ch=2 c=64 v=0
7680 Par ch=2 c=64 v=127
7680 On ch=2 n=a#3 v=48
7800 Off ch=2 n=a#3 v=64
7800 On ch=2 n=f4 v=48
7920 Off ch=2 n=f4 v=64
7920 On ch=2 n=a#4 v=48
7920 On ch=2 n=c#5 v=48
8040 Off ch=2 n=c#5 v=64
8040 Off ch=2 n=a#4 v=64
8040 On ch=2 n=f4 v=48
8160 Off ch=2 n=f4 v=64
8160 On ch=2 n=a#3 v=48
8280 Off ch=2 n=a#3 v=64
8280 On ch=2 n=f4 v=48
8400 Off ch=2 n=f4 v=64
8400 On ch=2 n=a#4 v=48
8400 On ch=2 n=c#5 v=48
8520 Off ch=2 n=c#5 v=64
8520 Off ch=2 n=a#4 v=64
8520 On ch=2 n=f4 v=48
8637 Off ch=2 n=f4 v=64
8640 On ch=2 n=a#3 v=48
8760 Off ch=2 n=a#3 v=64
8760 On ch=2 n=f4 v=48
8880 Off ch=2 n=f4 v=64
8880 On ch=2 n=a#4 v=48
8880 On ch=2 n=c#5 v=48
9000 Off ch=2 n=c#5 v=64
9000 Off ch=2 n=a#4 v=64
9000 On ch=2 n=f4 v=48
9120 Off ch=2 n=f4 v=64
9120 On ch=2 n=a#3 v=48
9240 Off ch=2 n=a#3 v=64
9240 On ch=2 n=f4 v=48
9360 Off ch=2 n=f4 v=64
9360 On ch=2 n=a#4 v=48
9360 On ch=2 n=c#5 v=48
9480 Off ch=2 n=c#5 v=64
9480 Off ch=2 n=a#4 v=64
9480 On ch=2 n=f4 v=48
9597 Off ch=2 n=f4 v=64
9600 On ch=2 n=a#3 v=48
9633 Par ch=2 c=7 v=49
9667 Par ch=2 c=7 v=50
9702 Par ch=2 c=7 v=51
9720 Off ch=2 n=a#3 v=64
9720 On ch=2 n=f4 v=49
9736 Par ch=2 c=7 v=52
9771 Par ch=2 c=7 v=53
9805 Par ch=2 c=7 v=54
9840 Off ch=2 n=f4 v=64
9840 Par ch=2 c=7 v=55
9840 On ch=2 n=a#4 v=50
9840 On ch=2 n=c#5 v=50
9873 Par ch=2 c=7 v=56
9907 Par ch=2 c=7 v=57
9942 Par ch=2 c=7 v=58
9960 Off ch=2 n=c#5 v=64
9960 Off ch=2 n=a#4 v=64
9960 On ch=2 n=f4 v=51
9976 Par ch=2 c=7 v=59
10011 Par ch=2 c=7 v=60
10045 Par ch=2 c=7 v=61
10080 Off ch=2 n=f4 v=64
10080 Par ch=2 c=7 v=62
10080 On ch=2 n=a#3 v=52
10113 Par ch=2 c=7 v=63
10147 Par ch=2 c=7 v=64
10182 Par ch=2 c=7 v=65
10200 Off ch=2 n=a#3 v=64
10200 On ch=2 n=f4 v=53
10216 Par ch=2 c=7 v=66
10251 Par ch=2 c=7 v=67
10285 Par ch=2 c=7 v=68
10320 Off ch=2 n=f4 v=64
10320 Par ch=2 c=7 v=69
10320 On ch=2 n=a#4 v=54
10320 On ch=2 n=c#5 v=54
10353 Par ch=2 c=7 v=70
10387 Par ch=2 c=7 v=71
10422 Par ch=2 c=7 v=72
10440 Off ch=2 n=c#5 v=64
10440 Off ch=2 n=a#4 v=64
10440 On ch=2 n=f4 v=55
10456 Par ch=2 c=7 v=73
10491 Par ch=2 c=7 v=74
10525 Par ch=2 c=7 v=75
10557 Off ch=2 n=f4 v=64
10560 Par ch=2 c=64 v=0
10560 Par ch=2 c=7 v=76
10560 Par ch=2 c=64 v=127
10560 On ch=2 n=c4 v=76
10593 Par ch=2 c=7 v=75
10627 Par ch=2 c=7 v=74
10662 Par ch=2 c=7 v=73
10677 Off ch=2 n=c4 v=64
10680 On ch=2 n=f#4 v=75
10696 Par ch=2 c=7 v=72
10731 Par ch=2 c=7 v=71
10765 Par ch=2 c=7 v=70
10797 Off ch=2 n=f#4 v=64
10800 Par ch=2 c=7 v=69
10800 On ch=2 n=a4 v=74
10800 On ch=2 n=d#5 v=74
10833 Par ch=2 c=7 v=68
10867 Par ch=2 c=7 v=67
10902 Par ch=2 c=7 v=66
10917 Off ch=2 n=d#5 v=64
10917 Off ch=2 n=a4 v=64
10920 On ch=2 n=f#4 v=73
10936 Par ch=2 c=7 v=65
10971 Par ch=2 c=7 v=64
11005 Par ch=2 c=7 v=63
11037 Off ch=2 n=f#4 v=64
11040 Par ch=2 c=7 v=62
11040 On ch=2 n=c4 v=72
11073 Par ch=2 c=7 v=61
11107 Par ch=2 c=7 v=60
11142 Par ch=2 c=7 v=59
11157 Off ch=2 n=c4 v=64
11160 On ch=2 n=f#4 v=71
11176 Par ch=2 c=7 v=58
11211 Par ch=2 c=7 v=57
11245 Par ch=2 c=7 v=56
11277 Off ch=2 n=f#4 v=64
11280 Par ch=2 c=7 v=55
11280 On ch=2 n=a4 v=70
11280 On ch=2 n=d#5 v=70
11313 Par ch=2 c=7 v=54
11347 Par ch=2 c=7 v=53
11382 Par ch=2 c=7 v=52
11397 Off ch=2 n=d#5 v=64
11397 Off ch=2 n=a4 v=64
11400 On ch=2 n=f#4 v=69
11416 Par ch=2 c=7 v=51
11451 Par ch=2 c=7 v=50
11485 Par ch=2 c=7 v=49
11517 Off ch=2 n=f#4 v=64
11520 Par ch=2 c=7 v=48
11520 On ch=2 n=c4 v=48
11637 Off ch=2 n=c4 v=64
11640 On ch=2 n=f#4 v=48
11757 Off ch=2 n=f#4 v=64
11760 On ch=2 n=a4 v=48
11760 On ch=2 n=d#5 v=48
11877 Off ch=2 n=d#5 v=64
11877 Off ch=2 n=a4 v=64
11880 On ch=2 n=f#4 v=48
11997 Off ch=2 n=f#4 v=64
12000 On ch=2 n=c4 v=48
12117 Off ch=2 n=c4 v=64
12120 On ch=2 n=f#4 v=48
12237 Off ch=2 n=f#4 v=64
12240 On ch=2 n=a4 v=48
12240 On ch=2 n=d#5 v=48
12357 Off ch=2 n=d#5 v=64
12357 Off ch=2 n=a4 v=64
12360 On ch=2 n=f#4 v=48
12477 Off ch=2 n=f#4 v=64
12480 On ch=2 n=c4 v=48
12547 Par ch=2 c=7 v=49
12597 Off ch=2 n=c4 v=64
12600 On ch=2 n=f#4 v=49
12616 Par ch=2 c=7 v=50
12685 Par ch=2 c=7 v=51
12717 Off ch=2 n=f#4 v=64
12720 On ch=2 n=a4 v=50
12720 On ch=2 n=d#5 v=50
12753 Par ch=2 c=7 v=52
12822 Par ch=2 c=7 v=53
12837 Off ch=2 n=d#5 v=64
12837 Off ch=2 n=a4 v=64
12840 On ch=2 n=f#4 v=51
12891 Par ch=2 c=7 v=54
12957 Off ch=2 n=f#4 v=64
12960 Par ch=2 c=7 v=55
12960 On ch=2 n=c4 v=52
13027 Par ch=2 c=7 v=56
13077 Off ch=2 n=c4 v=64
13080 On ch=2 n=f#4 v=53
13096 Par ch=2 c=7 v=57
13165 Par ch=2 c=7 v=58
13197 Off ch=2 n=f#4 v=64
13200 On ch=2 n=a4 v=54
13200 On ch=2 n=d#5 v=54
13233 Par ch=2 c=7 v=59
13302 Par ch=2 c=7 v=60
13317 Off ch=2 n=d#5 v=64
13317 Off ch=2 n=a4 v=64
13320 On ch=2 n=f#4 v=55
13371 Par ch=2 c=7 v=61
13437 Off ch=2 n=f#4 v=64
13440 Par ch=2 c=7 v=62
13440 On ch=2 n=c4 v=56
13507 Par ch=2 c=7 v=63
13557 Off ch=2 n=c4 v=64
13560 On ch=2 n=f#4 v=57
13576 Par ch=2 c=7 v=64
13645 Par ch=2 c=7 v=65
13677 Off ch=2 n=f#4 v=64
13680 On ch=2 n=a4 v=58
13680 On ch=2 n=d#5 v=58
13713 Par ch=2 c=7 v=66
13782 Par ch=2 c=7 v=67
13797 Off ch=2 n=d#5 v=64
13797 Off ch=2 n=a4 v=64
13800 On ch=2 n=f#4 v=59
13851 Par ch=2 c=7 v=68
13917 Off ch=2 n=f#4 v=64
13920 Par ch=2 c=7 v=69
13920 On ch=2 n=c4 v=60
13987 Par ch=2 c=7 v=70
14037 Off ch=2 n=c4 v=64
14040 On ch=2 n=f#4 v=61
14056 Par ch=2 c=7 v=71
14125 Par ch=2 c=7 v=72
14157 Off ch=2 n=f#4 v=64
14160 On ch=2 n=a4 v=62
14160 On ch=2 n=d#5 v=62
14193 Par ch=2 c=7 v=73
14262 Par ch=2 c=7 v=74
14277 Off ch=2 n=d#5 v=64
14277 Off ch=2 n=a4 v=64
14280 On ch=2 n=f#4 v=63
14331 Par ch=2 c=7 v=75
14397 Off ch=2 n=f#4 v=64
14400 Par ch=2 c=64 v=0
14400 Par ch=2 c=7 v=76
14400 Par ch=2 c=64 v=127
14400 On ch=2 n=c#4 v=76
14433 Par ch=2 c=7 v=75
14467 Par ch=2 c=7 v=74
14502 Par ch=2 c=7 v=73
14517 Off ch=2 n=c#4 v=64
14520 On ch=2 n=f4 v=75
14536 Par ch=2 c=7 v=72
14571 Par ch=2 c=7 v=71
14605 Par ch=2 c=7 v=70
14637 Off ch=2 n=f4 v=64
14640 Par ch=2 c=7 v=69
14640 On ch=2 n=a4 v=74
14640 On ch=2 n=f5 v=74
14673 Par ch=2 c=7 v=68
14707 Par ch=2 c=7 v=67
14742 Par ch=2 c=7 v=66
14757 Off ch=2 n=f5 v=64
14757 Off ch=2 n=a4 v=64
14760 On ch=2 n=f4 v=73
14776 Par ch=2 c=7 v=65
14811 Par ch=2 c=7 v=64
14845 Par ch=2 c=7 v=63
14877 Off ch=2 n=f4 v=64
14880 Par ch=2 c=7 v=62
14880 Par ch=2 c=64 v=0
14880 Par ch=2 c=64 v=127
14880 On ch=2 n=c#4 v=72
14913 Par ch=2 c=7 v=61
14947 Par ch=2 c=7 v=60
14982 Par ch=2 c=7 v=59
14997 Off ch=2 n=c#4 v=64
15000 On ch=2 n=f4 v=71
15016 Par ch=2 c=7 v=58
15051 Par ch=2 c=7 v=57
15085 Par ch=2 c=7 v=56
15117 Off ch=2 n=f4 v=64
15120 Par ch=2 c=7 v=55
15120 On ch=2 n=a#4 v=70
15120 On ch=2 n=f5 v=70
15153 Par ch=2 c=7 v=54
15187 Par ch=2 c=7 v=53
15222 Par ch=2 c=7 v=52
15237 Off ch=2 n=f5 v=64
15237 Off ch=2 n=a#4 v=64
15240 On ch=2 n=f4 v=69
15256 Par ch=2 c=7 v=51
15291 Par ch=2 c=7 v=50
15325 Par ch=2 c=7 v=49
15357 Off ch=2 n=f4 v=64
15360 Par ch=2 c=64 v=0
15360 Par ch=2 c=7 v=48
15360 Par ch=2 c=64 v=127
15360 Par ch=2 c=7 v=94
15360 On ch=2 n=e4 v=94
15477 Off ch=2 n=e4 v=64
15480 On ch=2 n=c#5 v=94
15597 Off ch=2 n=c#5 v=64
15600 On ch=2 n=g5 v=94
15717 Off ch=2 n=g5 v=64
15720 Par ch=2 c=64 v=0
15720 Par ch=2 c=64 v=127
15720 On ch=2 n=e4 v=94
15837 Off ch=2 n=e4 v=64
15840 On ch=2 n=f4 v=94
15957 Off ch=2 n=f4 v=64
15960 On ch=2 n=c5 v=94
16077 Off ch=2 n=c5 v=64
16080 On ch=2 n=a5 v=94
16197 Off ch=2 n=a5 v=64
16200 On ch=2 n=f4 v=94
16317 Off ch=2 n=f4 v=64
16320 Par ch=2 c=7 v=112
16320 Par ch=2 c=64 v=0
16320 Par ch=2 c=64 v=127
16320 Par ch=2 c=7 v=30
16320 On ch=2 n=a3 v=30
16437 Off ch=2 n=a3 v=64
16440 On ch=2 n=f#4 v=30
16557 Off ch=2 n=f#4 v=64
16560 On ch=2 n=d#5 v=30
16677 Off ch=2 n=d#5 v=64
16680 Par ch=2 c=64 v=0
16680 Par ch=2 c=64 v=127
16680 On ch=2 n=a3 v=30
16688 Par ch=2 c=7 v=31
16698 Par ch=2 c=7 v=32
16707 Par ch=2 c=7 v=33
16717 Par ch=2 c=7 v=34
16726 Par ch=2 c=7 v=35
16736 Par ch=2 c=7 v=36
16745 Par ch=2 c=7 v=37
16755 Par ch=2 c=7 v=38
16763 Par ch=2 c=7 v=39
16773 Par ch=2 c=7 v=40
16782 Par ch=2 c=7 v=41
16792 Par ch=2 c=7 v=42
16797 Off ch=2 n=a3 v=64
16800 On ch=2 n=a#3 v=35
16801 Par ch=2 c=7 v=43
16811 Par ch=2 c=7 v=44
16820 Par ch=2 c=7 v=45
16830 Par ch=2 c=7 v=46
16838 Par ch=2 c=7 v=47
16848 Par ch=2 c=7 v=48
16857 Par ch=2 c=7 v=49
16867 Par ch=2 c=7 v=50
16876 Par ch=2 c=7 v=51
16886 Par ch=2 c=7 v=52
16895 Par ch=2 c=7 v=53
16905 Par ch=2 c=7 v=54
16913 Par ch=2 c=7 v=55
16917 Off ch=2 n=a#3 v=64
16920 On ch=2 n=f4 v=40
16923 Par ch=2 c=7 v=56
16932 Par ch=2 c=7 v=57
16942 Par ch=2 c=7 v=58
16951 Par ch=2 c=7 v=59
16961 Par ch=2 c=7 v=60
16970 Par ch=2 c=7 v=61
16980 Par ch=2 c=7 v=62
16988 Par ch=2 c=7 v=63
16998 Par ch=2 c=7 v=64
17007 Par ch=2 c=7 v=65
17017 Par ch=2 c=7 v=66
17026 Par ch=2 c=7 v=67
17036 Par ch=2 c=7 v=68
17037 Off ch=2 n=f4 v=64
17040 On ch=2 n=c#5 v=45
17045 Par ch=2 c=7 v=69
17055 Par ch=2 c=7 v=70
17063 Par ch=2 c=7 v=71
17073 Par ch=2 c=7 v=72
17082 Par ch=2 c=7 v=73
17092 Par ch=2 c=7 v=74
17101 Par ch=2 c=7 v=75
17111 Par ch=2 c=7 v=76
17120 Par ch=2 c=7 v=77
17130 Par ch=2 c=7 v=78
17138 Par ch=2 c=7 v=79
17148 Par ch=2 c=7 v=80
17157 Off ch=2 n=c#5 v=64
17157 Par ch=2 c=7 v=81
17160 On ch=2 n=a#3 v=50
17167 Par ch=2 c=7 v=82
17176 Par ch=2 c=7 v=83
17186 Par ch=2 c=7 v=84
17195 Par ch=2 c=7 v=85
17205 Par ch=2 c=7 v=86
17213 Par ch=2 c=7 v=87
17223 Par ch=2 c=7 v=88
17232 Par ch=2 c=7 v=89
17242 Par ch=2 c=7 v=90
17251 Par ch=2 c=7 v=91
17261 Par ch=2 c=7 v=92
17270 Par ch=2 c=7 v=93
17277 Off ch=2 n=a#3 v=64
17280 Par ch=2 c=64 v=0
17280 Par ch=2 c=7 v=94
17280 Par ch=2 c=64 v=127
17280 On ch=2 n=e4 v=94
17397 Off ch=2 n=e4 v=64
17400 On ch=2 n=c#5 v=94
17517 Off ch=2 n=c#5 v=64
17520 On ch=2 n=g5 v=94
17637 Off ch=2 n=g5 v=64
17640 Par ch=2 c=64 v=0
17640 Par ch=2 c=64 v=127
17640 On ch=2 n=e4 v=94
17757 Off ch=2 n=e4 v=64
17760 On ch=2 n=f4 v=94
17877 Off ch=2 n=f4 v=64
17880 On ch=2 n=c5 v=94
17997 Off ch=2 n=c5 v=64
18000 On ch=2 n=a5 v=94
18117 Off ch=2 n=a5 v=64
18120 On ch=2 n=f4 v=94
18237 Off ch=2 n=f4 v=64
18240 Par ch=2 c=64 v=0
18240 Par ch=2 c=64 v=127
18240 Par ch=2 c=7 v=30
18240 On ch=2 n=a3 v=30
18357 Off ch=2 n=a3 v=64
18360 On ch=2 n=f#4 v=30
18477 Off ch=2 n=f#4 v=64
18480 On ch=2 n=d#5 v=30
18597 Off ch=2 n=d#5 v=64
18600 Par ch=2 c=64 v=0
18600 Par ch=2 c=64 v=127
18600 On ch=2 n=a3 v=30
18717 Off ch=2 n=a3 v=64
18720 On ch=2 n=a#3 v=30
18837 Off ch=2 n=a#3 v=64
18840 On ch=2 n=f4 v=30
18957 Off ch=2 n=f4 v=64
18960 On ch=2 n=c#5 v=30
19077 Off ch=2 n=c#5 v=64
19080 On ch=2 n=a#3 v=30
19197 Off ch=2 n=a#3 v=64
19200 Par ch=2 c=64 v=0
19200 Par ch=2 c=7 v=94
19200 Par ch=2 c=64 v=127
19200 On ch=2 n=g3 v=94
19280 Par ch=2 c=7 v=93
19320 Off ch=2 n=g3 v=64
19320 On ch=2 n=c4 v=93
19360 Par ch=2 c=7 v=92
19440 Off ch=2 n=c4 v=64
19440 Par ch=2 c=7 v=91
19440 On ch=2 n=c#4 v=92
19520 Par ch=2 c=7 v=90
19560 Off ch=2 n=c#4 v=64
19560 On ch=2 n=a#4 v=91
19600 Par ch=2 c=7 v=89
19677 Off ch=2 n=a#4 v=64
19680 Par ch=2 c=7 v=88
19680 On ch=2 n=g3 v=90
19760 Par ch=2 c=7 v=87
19800 Off ch=2 n=g3 v=64
19800 On ch=2 n=c4 v=89
19840 Par ch=2 c=7 v=86
19920 Off ch=2 n=c4 v=64
19920 Par ch=2 c=7 v=85
19920 On ch=2 n=c#4 v=88
20000 Par ch=2 c=7 v=84
20040 Off ch=2 n=c#4 v=64
20040 On ch=2 n=a#4 v=87
20080 Par ch=2 c=7 v=83
20157 Off ch=2 n=a#4 v=64
20160 Par ch=2 c=7 v=82
20160 Par ch=2 c=64 v=0
20160 Par ch=2 c=64 v=127
20160 On ch=2 n=g3 v=86
20240 Par ch=2 c=7 v=81
20280 Off ch=2 n=g3 v=64
20280 On ch=2 n=c4 v=85
20320 Par ch=2 c=7 v=80
20400 Off ch=2 n=c4 v=64
20400 Par ch=2 c=7 v=79
20400 On ch=2 n=c#4 v=84
20480 Par ch=2 c=7 v=78
20520 Off ch=2 n=c#4 v=64
20520 On ch=2 n=a#4 v=83
20560 Par ch=2 c=7 v=77
20637 Off ch=2 n=a#4 v=64
20640 Par ch=2 c=64 v=0
20640 Par ch=2 c=7 v=76
20640 On ch=2 n=a3 v=76
20760 Off ch=2 n=a3 v=64
20760 On ch=2 n=d4 v=76
20880 Off ch=2 n=d4 v=64
20880 On ch=2 n=d#4 v=76
21000 Off ch=2 n=d#4 v=64
21000 On ch=2 n=c5 v=76
21117 Off ch=2 n=c5 v=64
21120 Par ch=2 c=64 v=0
21120 Par ch=2 c=64 v=127
21120 On ch=2 n=b3 v=76
21240 Off ch=2 n=b3 v=64
21240 On ch=2 n=e4 v=76
21360 Off ch=2 n=e4 v=64
21360 On ch=2 n=f4 v=76
21480 Off ch=2 n=f4 v=64
21480 On ch=2 n=d5 v=76
21597 Off ch=2 n=d5 v=64
21600 Par ch=2 c=64 v=0
21600 Par ch=2 c=64 v=127
21600 On ch=2 n=c4 v=76
21720 Off ch=2 n=c4 v=64
21720 On ch=2 n=f#4 v=76
21840 Off ch=2 n=f#4 v=64
21840 On ch=2 n=g4 v=76
21960 Off ch=2 n=g4 v=64
21960 On ch=2 n=d#5 v=76
22077 Off ch=2 n=d#5 v=64
22080 Par ch=2 c=64 v=0
22080 Par ch=2 c=64 v=127
22080 On ch=2 n=a#3 v=76
22200 Off ch=2 n=a#3 v=64
22200 On ch=2 n=f4 v=76
22320 Off ch=2 n=f4 v=64
22320 On ch=2 n=f#4 v=76
22440 Off ch=2 n=f#4 v=64
22440 On ch=2 n=d#5 v=76
22557 Off ch=2 n=d#5 v=64
22560 Par ch=2 c=64 v=0
22560 Par ch=2 c=64 v=127
22560 On ch=2 n=a3 v=76
22680 Off ch=2 n=a3 v=64
22680 On ch=2 n=e4 v=76
22800 Off ch=2 n=e4 v=64
22800 On ch=2 n=f4 v=76
22920 Off ch=2 n=f4 v=64
22920 On ch=2 n=d#5 v=76
23037 Off ch=2 n=d#5 v=64
23040 Par ch=2 c=64 v=0
23040 Par ch=2 c=7 v=94
23040 Par ch=2 c=64 v=127
23040 On ch=2 n=a#3 v=94
23157 Off ch=2 n=a#3 v=64
23160 On ch=2 n=f4 v=94
23277 Off ch=2 n=f4 v=64
23280 On ch=2 n=a#4 v=94
23397 Off ch=2 n=a#4 v=64
23400 On ch=2 n=f3 v=94
23517 Off ch=2 n=f3 v=64
23520 On ch=2 n=a#3 v=94
23637 Off ch=2 n=a#3 v=64
23640 On ch=2 n=f4 v=94
23757 Off ch=2 n=f4 v=64
23760 On ch=2 n=a#4 v=94
23877 Off ch=2 n=a#4 v=64
23880 On ch=2 n=f3 v=94
23997 Off ch=2 n=f3 v=64
24000 On ch=2 n=a#3 v=94
24117 Off ch=2 n=a#3 v=64
24120 On ch=2 n=f4 v=94
24237 Off ch=2 n=f4 v=64
24240 On ch=2 n=a#4 v=94
24357 Off ch=2 n=a#4 v=64
24360 On ch=2 n=f3 v=94
24477 Off ch=2 n=f3 v=64
24480 On ch=2 n=a#3 v=94
24597 Off ch=2 n=a#3 v=64
24600 On ch=2 n=f4 v=94
24717 Off ch=2 n=f4 v=64
24720 On ch=2 n=a#4 v=94
24837 Off ch=2 n=a#4 v=64
24840 On ch=2 n=f3 v=94
24957 Off ch=2 n=f3 v=64
24960 On ch=2 n=a#3 v=94
25077 Off ch=2 n=a#3 v=64
25080 On ch=2 n=f4 v=94
25197 Off ch=2 n=f4 v=64
25200 On ch=2 n=a#4 v=94
25317 Off ch=2 n=a#4 v=64
25320 On ch=2 n=f3 v=94
25352 Par ch=2 c=7 v=95
25386 Par ch=2 c=7 v=96
25418 Par ch=2 c=7 v=97
25437 Off ch=2 n=f3 v=64
25440 On ch=2 n=a#3 v=95
25452 Par ch=2 c=7 v=98
25486 Par ch=2 c=7 v=99
25518 Par ch=2 c=7 v=100
25552 Par ch=2 c=7 v=101
25557 Off ch=2 n=a#3 v=64
25560 On ch=2 n=f4 v=96
25586 Par ch=2 c=7 v=102
25618 Par ch=2 c=7 v=103
25652 Par ch=2 c=7 v=104
25677 Off ch=2 n=f4 v=64
25680 On ch=2 n=a#4 v=97
25686 Par ch=2 c=7 v=105
25718 Par ch=2 c=7 v=106
25752 Par ch=2 c=7 v=107
25786 Par ch=2 c=7 v=108
25797 Off ch=2 n=a#4 v=64
25800 On ch=2 n=f3 v=98
25818 Par ch=2 c=7 v=109
25852 Par ch=2 c=7 v=110
25886 Par ch=2 c=7 v=111
25917 Off ch=2 n=f3 v=64
25918 Par ch=2 c=7 v=112
25920 Par ch=2 c=64 v=0
25920 Par ch=2 c=7 v=112
25920 Par ch=2 c=64 v=127
25920 On ch=2 n=c4 v=112
26037 Off ch=2 n=c4 v=64
26040 On ch=2 n=f#4 v=112
26157 Off ch=2 n=f#4 v=64
26160 On ch=2 n=d#5 v=112
26277 Off ch=2 n=d#5 v=64
26280 On ch=2 n=c4 v=112
26397 Off ch=2 n=c4 v=64
26400 On ch=2 n=f#4 v=112
26517 Off ch=2 n=f#4 v=64
26520 On ch=2 n=a4 v=112
26637 Off ch=2 n=a4 v=64
26640 On ch=2 n=d#5 v=112
26757 Off ch=2 n=d#5 v=64
26760 On ch=2 n=c4 v=112
26877 Off ch=2 n=c4 v=64
26880 On ch=2 n=d#4 v=112
26997 Off ch=2 n=d#4 v=64
27000 On ch=2 n=a4 v=112
27117 Off ch=2 n=a4 v=64
27120 On ch=2 n=d#5 v=112
27237 Off ch=2 n=d#5 v=64
27240 On ch=2 n=c4 v=112
27357 Off ch=2 n=c4 v=64
27360 On ch=2 n=f#4 v=112
27477 Off ch=2 n=f#4 v=64
27480 On ch=2 n=a4 v=112
27597 Off ch=2 n=a4 v=64
27600 On ch=2 n=d#5 v=112
27717 Off ch=2 n=d#5 v=64
27720 On ch=2 n=c4 v=112
27837 Off ch=2 n=c4 v=64
27840 On ch=2 n=d#4 v=112
27957 Off ch=2 n=d#4 v=64
27960 On ch=2 n=a4 v=112
28077 Off ch=2 n=a4 v=64
28080 On ch=2 n=d#5 v=112
28197 Off ch=2 n=d#5 v=64
28200 On ch=2 n=c4 v=112
28317 Off ch=2 n=c4 v=64
28320 On ch=2 n=f#4 v=112
28437 Off ch=2 n=f#4 v=64
28440 On ch=2 n=a4 v=112
28557 Off ch=2 n=a4 v=64
28560 On ch=2 n=d#5 v=112
28677 Off ch=2 n=d#5 v=64
28680 On ch=2 n=c4 v=112
28797 Off ch=2 n=c4 v=64
28800 On ch=2 n=d#4 v=112
28917 Off ch=2 n=d#4 v=64
28920 On ch=2 n=a4 v=112
29037 Off ch=2 n=a4 v=64
29040 On ch=2 n=d#5 v=112
29157 Off ch=2 n=d#5 v=64
29160 On ch=2 n=c4 v=112
29277 Off ch=2 n=c4 v=64
29280 On ch=2 n=f#4 v=112
29397 Off ch=2 n=f#4 v=64
29400 On ch=2 n=a4 v=112
29517 Off ch=2 n=a4 v=64
29520 On ch=2 n=d#5 v=112
29637 Off ch=2 n=d#5 v=64
29640 On ch=2 n=c4 v=112
29757 Off ch=2 n=c4 v=64
29760 Par ch=2 c=64 v=0
29760 Par ch=2 c=64 v=127
29760 On ch=2 n=f4 v=112
29877 Off ch=2 n=f4 v=64
29880 On ch=2 n=a4 v=112
29997 Off ch=2 n=a4 v=64
30000 On ch=2 n=f5 v=112
30117 Off ch=2 n=f5 v=64
30120 On ch=2 n=c#4 v=112
30237 Off ch=2 n=c#4 v=64
30240 On ch=2 n=a#4 v=112
30357 Off ch=2 n=a#4 v=64
30360 On ch=2 n=c#5 v=112
30477 Off ch=2 n=c#5 v=64
30480 On ch=2 n=f5 v=112
30597 Off ch=2 n=f5 v=64
30600 On ch=2 n=c#4 v=112
30717 Off ch=2 n=c#4 v=64
30720 Par ch=2 c=64 v=0
30720 Par ch=2 c=64 v=127
30720 On ch=2 n=e4 v=112
30837 Off ch=2 n=e4 v=64
30840 On ch=2 n=c#5 v=112
30957 Off ch=2 n=c#5 v=64
30960 On ch=2 n=g5 v=112
31077 Off ch=2 n=g5 v=64
31080 On ch=2 n=e4 v=112
31197 Off ch=2 n=e4 v=64
31200 Par ch=2 c=64 v=0
31200 Par ch=2 c=64 v=127
31200 On ch=2 n=f4 v=112
31317 Off ch=2 n=f4 v=64
31320 On ch=2 n=c5 v=112
31437 Off ch=2 n=c5 v=64
31440 On ch=2 n=a5 v=112
31557 Off ch=2 n=a5 v=64
31560 On ch=2 n=f4 v=112
31677 Off ch=2 n=f4 v=64
31680 Par ch=2 c=64 v=0
31680 Par ch=2 c=64 v=127
31680 On ch=2 n=a3 v=112
31797 Off ch=2 n=a3 v=64
31800 On ch=2 n=f#4 v=112
31917 Off ch=2 n=f#4 v=64
31920 On ch=2 n=d#5 v=112
32037 Off ch=2 n=d#5 v=64
32040 On ch=2 n=a3 v=112
32157 Off ch=2 n=a3 v=64
32160 Par ch=2 c=64 v=0
32160 Par ch=2 c=64 v=127
32160 On ch=2 n=a#3 v=112
32277 Off ch=2 n=a#3 v=64
32280 On ch=2 n=f4 v=112
32397 Off ch=2 n=f4 v=64
32400 On ch=2 n=c#5 v=112
32517 Off ch=2 n=c#5 v=64
32520 On ch=2 n=a#3 v=112
32637 Off ch=2 n=a#3 v=64
32640 Par ch=2 c=64 v=0
32640 Par ch=2 c=64 v=127
32640 On ch=2 n=e4 v=112
32757 Off ch=2 n=e4 v=64
32760 On ch=2 n=c#5 v=112
32877 Off ch=2 n=c#5 v=64
32880 On ch=2 n=g5 v=112
32997 Off ch=2 n=g5 v=64
33000 On ch=2 n=e4 v=112
33117 Off ch=2 n=e4 v=64
33120 Par ch=2 c=64 v=0
33120 Par ch=2 c=64 v=127
33120 On ch=2 n=f4 v=112
33237 Off ch=2 n=f4 v=64
33240 On ch=2 n=c5 v=112
33357 Off ch=2 n=c5 v=64
33360 On ch=2 n=a5 v=112
33477 Off ch=2 n=a5 v=64
33480 On ch=2 n=f4 v=112
33597 Off ch=2 n=f4 v=64
33600 Par ch=2 c=64 v=0
33600 Par ch=2 c=64 v=127
33600 On ch=2 n=d4 v=112
33717 Off ch=2 n=d4 v=64
33720 On ch=2 n=b4 v=112
33837 Off ch=2 n=b4 v=64
33840 On ch=2 n=f5 v=112
33957 Off ch=2 n=f5 v=64
33960 On ch=2 n=d4 v=112
34077 Off ch=2 n=d4 v=64
34080 Par ch=2 c=64 v=0
34080 Par ch=2 c=64 v=127
34080 On ch=2 n=d#4 v=112
34197 Off ch=2 n=d#4 v=64
34200 On ch=2 n=a#4 v=112
34317 Off ch=2 n=a#4 v=64
34320 On ch=2 n=f#5 v=112
34437 Off ch=2 n=f#5 v=64
34440 On ch=2 n=d#4 v=112
34557 Off ch=2 n=d#4 v=64
34560 Par ch=2 c=64 v=0
34560 Par ch=2 c=7 v=112
34560 Par ch=2 c=64 v=127
34560 On ch=2 n=d#3 v=112
34680 Off ch=2 n=d#3 v=64
34680 On ch=2 n=a#3 v=112
34800 Off ch=2 n=a#3 v=64
34800 On ch=2 n=a#4 v=112
34920 Off ch=2 n=a#4 v=64
34920 On ch=2 n=a#3 v=112
35037 Off ch=2 n=a#3 v=64
35040 Par ch=2 c=64 v=0
35040 Par ch=2 c=64 v=127
35040 On ch=2 n=d#3 v=112
35160 Off ch=2 n=d#3 v=64
35160 On ch=2 n=a#3 v=112
35280 Off ch=2 n=a#3 v=64
35280 On ch=2 n=a#4 v=112
35400 Off ch=2 n=a#4 v=64
35400 On ch=2 n=a#3 v=112
35517 Off ch=2 n=a#3 v=64
35520 Par ch=2 c=64 v=0
35520 Par ch=2 c=64 v=127
35520 On ch=2 n=f#3 v=112
35640 Off ch=2 n=f#3 v=64
35640 On ch=2 n=a#3 v=112
35760 Off ch=2 n=a#3 v=64
35760 On ch=2 n=a#4 v=112
35880 Off ch=2 n=a#4 v=64
35880 On ch=2 n=a#3 v=112
35997 Off ch=2 n=a#3 v=64
36000 Par ch=2 c=64 v=0
36000 Par ch=2 c=64 v=127
36000 On ch=2 n=g3 v=112
36120 Off ch=2 n=g3 v=64
36120 On ch=2 n=d#4 v=112
36240 Off ch=2 n=d#4 v=64
36240 On ch=2 n=d#5 v=112
36360 Off ch=2 n=d#5 v=64
36360 On ch=2 n=d#4 v=112
36477 Off ch=2 n=d#4 v=64
36480 Par ch=2 c=64 v=0
36480 On ch=2 n=g#3 v=112
36480 On ch=2 n=d#4 v=112
36480 On ch=2 n=a#4 v=112
36680 Off ch=2 n=a#4 v=64
36680 Off ch=2 n=d#4 v=64
36680 Off ch=2 n=g#3 v=64
36720 On ch=2 n=g#3 v=112
36720 On ch=2 n=d#4 v=112
36720 On ch=2 n=g#4 v=112
36920 Off ch=2 n=g#4 v=64
36920 Off ch=2 n=d#4 v=64
36920 Off ch=2 n=g#3 v=64
37200 On ch=2 n=a#2 v=112
37200 On ch=2 n=a#3 v=112
37210 Par ch=2 c=7 v=111
37225 Par ch=2 c=7 v=110
37240 Par ch=2 c=7 v=109
37254 Par ch=2 c=7 v=108
37269 Par ch=2 c=7 v=107
37284 Par ch=2 c=7 v=106
37298 Par ch=2 c=7 v=105
37313 Par ch=2 c=7 v=104
37328 Par ch=2 c=7 v=103
37343 Par ch=2 c=7 v=102
37357 Par ch=2 c=7 v=101
37372 Par ch=2 c=7 v=100
37387 Par ch=2 c=7 v=99
37397 Off ch=2 n=a#3 v=64
37397 Off ch=2 n=a#2 v=64
37400 Par ch=2 c=7 v=98
37415 Par ch=2 c=7 v=97
37430 Par ch=2 c=7 v=96
37437 On ch=2 n=b2 v=87
37437 On ch=2 n=b3 v=87
37445 Par ch=2 c=7 v=95
37459 Par ch=2 c=7 v=94
37474 Par ch=2 c=7 v=93
37489 Par ch=2 c=7 v=92
37503 Par ch=2 c=7 v=91
37518 Par ch=2 c=7 v=90
37533 Par ch=2 c=7 v=89
37547 Par ch=2 c=7 v=88
37562 Par ch=2 c=7 v=87
37577 Par ch=2 c=7 v=86
37592 Par ch=2 c=7 v=85
37602 Par ch=2 c=7 v=84
37617 Par ch=2 c=7 v=83
37632 Par ch=2 c=7 v=82
37646 Par ch=2 c=7 v=81
37661 Par ch=2 c=7 v=80
37676 Par ch=2 c=7 v=79
37691 Par ch=2 c=7 v=78
37705 Par ch=2 c=7 v=77
37720 Par ch=2 c=7 v=76
37735 Par ch=2 c=7 v=75
37749 Par ch=2 c=7 v=74
37764 Par ch=2 c=7 v=73
37779 Par ch=2 c=7 v=72
37794 Par ch=2 c=7 v=71
37804 Par ch=2 c=7 v=70
37819 Par ch=2 c=7 v=69
37834 Par ch=2 c=7 v=68
37848 Par ch=2 c=7 v=67
37863 Par ch=2 c=7 v=66
37878 Par ch=2 c=7 v=65
37892 Par ch=2 c=7 v=64
37907 Par ch=2 c=7 v=63
37911 Off ch=2 n=b3 v=64
37911 Off ch=2 n=b2 v=64
37911 On ch=2 n=c3 v=36
37911 On ch=2 n=c4 v=36
37922 Par ch=2 c=7 v=62
37937 Par ch=2 c=7 v=61
37951 Par ch=2 c=7 v=60
37966 Par ch=2 c=7 v=59
37981 Par ch=2 c=7 v=58
37991 Par ch=2 c=7 v=57
38006 Par ch=2 c=7 v=56
38021 Par ch=2 c=7 v=55
38036 Par ch=2 c=7 v=54
38050 Par ch=2 c=7 v=53
38065 Par ch=2 c=7 v=52
38080 Par ch=2 c=7 v=51
38094 Par ch=2 c=7 v=50
38109 Par ch=2 c=7 v=49
38124 Par ch=2 c=7 v=48
38138 Par ch=2 c=7 v=47
38153 Par ch=2 c=7 v=46
38168 Par ch=2 c=7 v=45
38183 Par ch=2 c=7 v=44
38193 Par ch=2 c=7 v=43
38208 Par ch=2 c=7 v=42
38223 Par ch=2 c=7 v=41
38237 Par ch=2 c=7 v=40
38252 Par ch=2 c=7 v=39
38267 Par ch=2 c=7 v=38
38282 Par ch=2 c=7 v=37
38296 Par ch=2 c=7 v=36
38311 Par ch=2 c=7 v=35
38325 Off ch=2 n=c4 v=64
38325 Off ch=2 n=c3 v=64
38326 Par ch=2 c=7 v=34
38340 Par ch=2 c=7 v=33
38355 Par ch=2 c=7 v=32
38370 Par ch=2 c=7 v=31
38385 Par ch=2 c=7 v=30
38385 On ch=2 n=f4 v=30
38412 Off ch=2 n=f4 v=64
38415 On ch=2 n=c#4 v=30
38415 On ch=2 n=c#3 v=30
38415 On ch=2 n=f4 v=30
39315 Off ch=2 n=f4 v=64
39315 Off ch=2 n=c#3 v=64
39795 Off ch=2 n=c#4 v=64
39855 On ch=2 n=f#3 v=30
40275 Off ch=2 n=f#3 v=64
40335 On ch=2 n=f#4 v=30
40335 On ch=2 n=g#3 v=30
41295 Off ch=2 n=g#3 v=64
41295 On ch=2 n=g#3 v=30
41535 Off ch=2 n=g#3 v=64
41535 On ch=2 n=a3 v=30
41775 Off ch=2 n=a3 v=64
41775 On ch=2 n=a#3 v=30
42015 Off ch=2 n=a#3 v=64
42015 On ch=2 n=g#3 v=30
42195 Off ch=2 n=f#4 v=64
42215 Off ch=2 n=g#3 v=64
42255 Par ch=2 c=64 v=127
42255 On ch=2 n=c#3 v=30
42255 On ch=2 n=f4 v=30
42315 On ch=2 n=c#5 v=30
42695 Off ch=2 n=f4 v=64
42735 On ch=2 n=g#4 v=30
43155 Off ch=2 n=g#4 v=64
43155 Off ch=2 n=c#5 v=64
43155 Off ch=2 n=c#3 v=64
43215 Par ch=2 c=64 v=0
43215 On ch=2 n=c#4 v=30
43215 On ch=2 n=a#4 v=30
43415 Off ch=2 n=a#4 v=64
43455 On ch=2 n=g#4 v=30
43635 Off ch=2 n=c#4 v=64
43655 Off ch=2 n=g#4 v=64
43695 On ch=2 n=f#3 v=30
43695 On ch=2 n=c5 v=30
43895 Off ch=2 n=c5 v=64
43935 On ch=2 n=a#4 v=30
44115 Off ch=2 n=f#3 v=64
44135 Off ch=2 n=a#4 v=64
44175 On ch=2 n=f#4 v=30
44175 On ch=2 n=g#3 v=30
45135 Off ch=2 n=g#3 v=64
45135 On ch=2 n=g#3 v=30
45375 Off ch=2 n=g#3 v=64
45375 On ch=2 n=a3 v=30
45615 Off ch=2 n=a3 v=64
45615 On ch=2 n=c4 v=30
45775 Off ch=2 n=c4 v=64
45775 On ch=2 n=a#3 v=30
45935 Off ch=2 n=a#3 v=64
45935 On ch=2 n=g#3 v=30
46035 Off ch=2 n=f#4 v=64
46092 Off ch=2 n=g#3 v=64
46095 Par ch=2 c=64 v=127
46095 On ch=2 n=c#3 v=30
46095 On ch=2 n=f4 v=30
46515 Off ch=2 n=f4 v=64
46515 Off ch=2 n=c#3 v=64
46575 Par ch=2 c=64 v=0
46575 On ch=2 n=g4 v=30
46995 Off ch=2 n=g4 v=64
47055 On ch=2 n=g#3 v=30
47055 On ch=2 n=f#4 v=30
47122 Par ch=2 c=7 v=31
47191 Par ch=2 c=7 v=32
47260 Par ch=2 c=7 v=33
47328 Par ch=2 c=7 v=34
47397 Par ch=2 c=7 v=35
47466 Par ch=2 c=7 v=36
47475 Off ch=2 n=f#4 v=64
47535 Par ch=2 c=7 v=37
47535 On ch=2 n=a#4 v=31
47602 Par ch=2 c=7 v=38
47671 Par ch=2 c=7 v=39
47740 Par ch=2 c=7 v=40
47808 Par ch=2 c=7 v=41
47855 Off ch=2 n=a#4 v=64
47877 Par ch=2 c=7 v=42
47895 On ch=2 n=g#4 v=32
47946 Par ch=2 c=7 v=43
47955 Off ch=2 n=g#3 v=64
48012 Off ch=2 n=g#4 v=64
48015 Par ch=2 c=7 v=44
48015 On ch=2 n=c#4 v=33
48015 On ch=2 n=g#4 v=33
48082 Par ch=2 c=7 v=45
48151 Par ch=2 c=7 v=46
48220 Par ch=2 c=7 v=47
48288 Par ch=2 c=7 v=48
48357 Par ch=2 c=7 v=49
48426 Par ch=2 c=7 v=50
48435 Off ch=2 n=g#4 v=64
48435 Off ch=2 n=c#4 v=64
48495 Par ch=2 c=7 v=51
48495 On ch=2 n=g4 v=34
48562 Par ch=2 c=7 v=52
48631 Par ch=2 c=7 v=53
48700 Par ch=2 c=7 v=54
48768 Par ch=2 c=7 v=55
48837 Par ch=2 c=7 v=56
48906 Par ch=2 c=7 v=57
48915 Off ch=2 n=g4 v=64
48975 Par ch=2 c=7 v=58
48975 On ch=2 n=g#3 v=35
48975 On ch=2 n=f#4 v=35
48997 Par ch=2 c=7 v=31
49020 Par ch=2 c=7 v=32
49042 Par ch=2 c=7 v=59
49042 Par ch=2 c=7 v=33
49066 Par ch=2 c=7 v=34
49088 Par ch=2 c=7 v=35
49111 Par ch=2 c=7 v=60
49111 Par ch=2 c=7 v=36
49135 Par ch=2 c=7 v=37
49157 Par ch=2 c=7 v=38
49180 Par ch=2 c=7 v=61
49180 Par ch=2 c=7 v=39
49202 Par ch=2 c=7 v=40
49226 Par ch=2 c=7 v=41
49248 Par ch=2 c=7 v=62
49248 Par ch=2 c=7 v=42
49271 Par ch=2 c=7 v=43
49295 Par ch=2 c=7 v=44
49317 Par ch=2 c=7 v=63
49317 Par ch=2 c=7 v=45
49340 Par ch=2 c=7 v=46
49362 Par ch=2 c=7 v=47
49386 Par ch=2 c=7 v=64
49386 Par ch=2 c=7 v=48
49395 Off ch=2 n=g#3 v=64
49405 Par ch=2 c=7 v=49
49428 Par ch=2 c=7 v=50
49452 Par ch=2 c=7 v=65
49452 Par ch=2 c=7 v=51
49452 Par ch=2 c=64 v=127
49452 On ch=2 n=f#3 v=36
49474 Par ch=2 c=7 v=52
49497 Par ch=2 c=7 v=53
49519 Par ch=2 c=7 v=66
49519 Par ch=2 c=7 v=54
49543 Par ch=2 c=7 v=55
49565 Par ch=2 c=7 v=56
49588 Par ch=2 c=7 v=67
49588 Par ch=2 c=7 v=57
49612 Par ch=2 c=7 v=58
49634 Par ch=2 c=7 v=59
49657 Par ch=2 c=7 v=68
49657 Par ch=2 c=7 v=60
49679 Par ch=2 c=7 v=61
49703 Par ch=2 c=7 v=62
49725 Par ch=2 c=7 v=69
49725 Par ch=2 c=7 v=63
49748 Par ch=2 c=7 v=64
49772 Par ch=2 c=7 v=65
49794 Par ch=2 c=7 v=70
49794 Par ch=2 c=7 v=66
49817 Par ch=2 c=7 v=67
49839 Par ch=2 c=7 v=68
49863 Par ch=2 c=7 v=71
49863 Par ch=2 c=7 v=69
49872 Off ch=2 n=f#3 v=64
49872 Off ch=2 n=f#4 v=64
49882 Par ch=2 c=7 v=70
49905 Par ch=2 c=7 v=71
49929 Par ch=2 c=64 v=0
49929 Par ch=2 c=7 v=72
49929 Par ch=2 c=64 v=127
49929 On ch=2 n=f3 v=72
49989 On ch=2 n=a4 v=72
50369 Off ch=2 n=a4 v=64
50369 Off ch=2 n=f3 v=64
50409 Par ch=2 c=64 v=0
50409 On ch=2 n=a2 v=72
50409 On ch=2 n=a3 v=72
50829 Off ch=2 n=a3 v=64
50829 Off ch=2 n=a2 v=64
50889 On ch=2 n=a#2 v=72
50889 On ch=2 n=a#3 v=72
51309 Off ch=2 n=a#3 v=64
51309 Off ch=2 n=a#2 v=64
51369 On ch=2 n=c3 v=72
51369 On ch=2 n=c4 v=72
51689 Off ch=2 n=c4 v=64
51689 Off ch=2 n=c3 v=64
51729 On ch=2 n=c#4 v=72
51729 On ch=2 n=c#3 v=72
51846 Off ch=2 n=c#3 v=64
51846 Off ch=2 n=c#4 v=64
51849 On ch=2 n=d3 v=72
51849 On ch=2 n=d4 v=72
52269 Off ch=2 n=d4 v=64
52269 Off ch=2 n=d3 v=64
52329 On ch=2 n=d#3 v=72
52329 On ch=2 n=d#4 v=72
52649 Off ch=2 n=d#4 v=64
52649 Off ch=2 n=d#3 v=64
52689 On ch=2 n=f4 v=72
52689 On ch=2 n=f3 v=72
52806 Off ch=2 n=f3 v=64
52806 Off ch=2 n=f4 v=64
52809 On ch=2 n=f#3 v=72
52809 On ch=2 n=f#4 v=72
53229 Off ch=2 n=f#4 v=64
53229 Off ch=2 n=f#3 v=64
53289 On ch=2 n=g#3 v=72
53709 Off ch=2 n=g#3 v=64
53769 Par ch=2 c=7 v=94
53769 Par ch=2 c=64 v=127
53769 On ch=2 n=c#3 v=94
53851 Par ch=2 c=7 v=93
53929 Off ch=2 n=c#3 v=64
53929 On ch=2 n=g4 v=93
53935 Par ch=2 c=7 v=92
54019 Par ch=2 c=7 v=91
54089 Off ch=2 n=g4 v=64
54089 On ch=2 n=g#4 v=92
54099 Par ch=2 c=7 v=90
54182 Par ch=2 c=7 v=89
54246 Off ch=2 n=g#4 v=64
54246 On ch=2 n=a#4 v=91
54266 Par ch=2 c=7 v=88
54349 Par ch=2 c=7 v=87
54406 Off ch=2 n=a#4 v=64
54406 On ch=2 n=g#4 v=90
54433 Par ch=2 c=7 v=86
54517 Par ch=2 c=7 v=85
54566 Off ch=2 n=g#4 v=64
54566 On ch=2 n=g#3 v=89
54599 Par ch=2 c=7 v=84
54683 Par ch=2 c=7 v=83
54723 Off ch=2 n=g#3 v=64
54726 Par ch=2 c=64 v=0
54726 Par ch=2 c=64 v=127
54726 On ch=2 n=c#4 v=88
54767 Par ch=2 c=7 v=82
54851 Par ch=2 c=7 v=81
54886 Off ch=2 n=c#4 v=64
54886 On ch=2 n=g4 v=87
54933 Par ch=2 c=7 v=80
55017 Par ch=2 c=7 v=79
55046 Off ch=2 n=g4 v=64
55046 On ch=2 n=g#4 v=86
55101 Par ch=2 c=7 v=78
55184 Par ch=2 c=7 v=77
55206 Off ch=2 n=g#4 v=64
55206 On ch=2 n=a#4 v=85
55268 Par ch=2 c=7 v=76
55351 Par ch=2 c=7 v=75
55366 Off ch=2 n=a#4 v=64
55366 On ch=2 n=g#4 v=84
55434 Par ch=2 c=7 v=74
55518 Par ch=2 c=7 v=73
55526 Off ch=2 n=g#4 v=64
55526 On ch=2 n=g#3 v=83
55602 Par ch=2 c=7 v=72
55683 Off ch=2 n=g#3 v=64
55684 Par ch=2 c=7 v=71
55686 Par ch=2 c=64 v=0
55686 Par ch=2 c=64 v=127
55686 On ch=2 n=d#4 v=82
55768 Par ch=2 c=7 v=70
55846 Off ch=2 n=d#4 v=64
55846 On ch=2 n=g4 v=81
55852 Par ch=2 c=7 v=69
55936 Par ch=2 c=7 v=68
56006 Off ch=2 n=g4 v=64
56006 On ch=2 n=g#4 v=80
56016 Par ch=2 c=7 v=67
56099 Par ch=2 c=7 v=66
56163 Off ch=2 n=g#4 v=64
56163 On ch=2 n=a#4 v=79
56183 Par ch=2 c=7 v=65
56266 Par ch=2 c=7 v=64
56323 Off ch=2 n=a#4 v=64
56323 On ch=2 n=g#4 v=78
56350 Par ch=2 c=7 v=63
56434 Par ch=2 c=7 v=62
56483 Off ch=2 n=g#4 v=64
56483 On ch=2 n=g#3 v=77
56516 Par ch=2 c=7 v=61
56600 Par ch=2 c=7 v=60
56640 Off ch=2 n=g#3 v=64
56643 Par ch=2 c=64 v=0
56643 Par ch=2 c=64 v=127
56643 On ch=2 n=f#4 v=76
56684 Par ch=2 c=7 v=59
56768 Par ch=2 c=7 v=58
56803 Off ch=2 n=f#4 v=64
56803 On ch=2 n=g4 v=75
56850 Par ch=2 c=7 v=57
56934 Par ch=2 c=7 v=56
56963 Off ch=2 n=g4 v=64
56963 On ch=2 n=g#4 v=74
57018 Par ch=2 c=7 v=55
57101 Par ch=2 c=7 v=54
57123 Off ch=2 n=g#4 v=64
57123 On ch=2 n=a#4 v=73
57185 Par ch=2 c=7 v=53
57268 Par ch=2 c=7 v=52
57283 Off ch=2 n=a#4 v=64
57283 On ch=2 n=g#4 v=72
57351 Par ch=2 c=7 v=51
57435 Par ch=2 c=7 v=50
57443 Off ch=2 n=g#4 v=64
57443 On ch=2 n=g#3 v=71
57519 Par ch=2 c=7 v=49
57600 Off ch=2 n=g#3 v=64
57601 Par ch=2 c=7 v=48
57603 Par ch=2 c=64 v=0
57603 Par ch=2 c=64 v=127
57603 Par ch=2 c=7 v=48
57603 On ch=2 n=c#4 v=48
57663 Off ch=2 n=c#4 v=64
57843 On ch=2 n=g4 v=48
57963 Off ch=2 n=g4 v=64
57963 On ch=2 n=g#4 v=48
58083 Off ch=2 n=g#4 v=64
58083 On ch=2 n=a#4 v=48
58203 Off ch=2 n=a#4 v=64
58203 On ch=2 n=g#4 v=48
58323 Off ch=2 n=g#4 v=64
58323 On ch=2 n=g#4 v=48
58443 Off ch=2 n=g#4 v=64
58443 On ch=2 n=g#3 v=48
58560 Off ch=2 n=g#3 v=64
58563 Par ch=2 c=64 v=0
58563 Par ch=2 c=64 v=127
58563 On ch=2 n=c#4 v=48
58623 Off ch=2 n=c#4 v=64
58803 On ch=2 n=g4 v=48
58923 Off ch=2 n=g4 v=64
58923 On ch=2 n=g#4 v=48
59043 Off ch=2 n=g#4 v=64
59043 On ch=2 n=a#4 v=48
59163 Off ch=2 n=a#4 v=64
59163 On ch=2 n=g#4 v=48
59283 Off ch=2 n=g#4 v=64
59283 On ch=2 n=g#4 v=48
59403 Off ch=2 n=g#4 v=64
59403 On ch=2 n=g#3 v=48
59520 Off ch=2 n=g#3 v=64
59523 Par ch=2 c=64 v=0
59523 Par ch=2 c=64 v=127
59523 On ch=2 n=d#4 v=48
59583 Off ch=2 n=d#4 v=64
59763 On ch=2 n=g4 v=48
59883 Off ch=2 n=g4 v=64
59883 On ch=2 n=g#4 v=48
60003 Off ch=2 n=g#4 v=64
60003 On ch=2 n=a#4 v=48
60123 Off ch=2 n=a#4 v=64
60123 On ch=2 n=g#4 v=48
60243 Off ch=2 n=g#4 v=64
60243 On ch=2 n=g#4 v=48
60363 Off ch=2 n=g#4 v=64
60363 On ch=2 n=g#3 v=48
60480 Off ch=2 n=g#3 v=64
60483 Par ch=2 c=64 v=0
60483 Par ch=2 c=64 v=127
60483 On ch=2 n=f#4 v=48
60683 Off ch=2 n=f#4 v=64
60723 On ch=2 n=g4 v=48
60840 Off ch=2 n=g4 v=64
60843 On ch=2 n=g#4 v=48
60960 Off ch=2 n=g#4 v=64
60963 On ch=2 n=a#4 v=48
61080 Off ch=2 n=a#4 v=64
61083 On ch=2 n=g#4 v=48
61200 Off ch=2 n=g#4 v=64
61203 On ch=2 n=g#4 v=48
61320 Off ch=2 n=g#4 v=64
61323 On ch=2 n=g#3 v=48
61440 Off ch=2 n=g#3 v=64
61443 Par ch=2 c=64 v=0
61443 Par ch=2 c=64 v=127
61443 On ch=2 n=c#4 v=48
61560 Off ch=2 n=c#4 v=64
61563 On ch=2 n=g#4 v=49
61578 Par ch=2 c=7 v=49
61680 Off ch=2 n=g#4 v=64
61683 On ch=2 n=a#4 v=50
61713 Par ch=2 c=7 v=50
61800 Off ch=2 n=a#4 v=64
61803 On ch=2 n=g#4 v=51
61848 Par ch=2 c=7 v=51
61920 Off ch=2 n=g#4 v=64
61923 On ch=2 n=f5 v=52
61983 Par ch=2 c=7 v=52
62040 Off ch=2 n=f5 v=64
62043 On ch=2 n=g#4 v=53
62118 Par ch=2 c=7 v=53
62160 Off ch=2 n=g#4 v=64
62163 On ch=2 n=a#4 v=54
62253 Par ch=2 c=7 v=54
62280 Off ch=2 n=a#4 v=64
62283 On ch=2 n=g#4 v=55
62388 Par ch=2 c=7 v=55
62400 Off ch=2 n=g#4 v=64
62403 Par ch=2 c=64 v=0
62403 Par ch=2 c=64 v=127
62403 On ch=2 n=g#3 v=56
62520 Off ch=2 n=g#3 v=64
62523 Par ch=2 c=7 v=56
62523 On ch=2 n=g#4 v=57
62640 Off ch=2 n=g#4 v=64
62643 On ch=2 n=a#4 v=58
62658 Par ch=2 c=7 v=57
62760 Off ch=2 n=a#4 v=64
62763 On ch=2 n=g#4 v=59
62793 Par ch=2 c=7 v=58
62880 Off ch=2 n=g#4 v=64
62883 On ch=2 n=f#5 v=60
62928 Par ch=2 c=7 v=59
63000 Off ch=2 n=f#5 v=64
63003 On ch=2 n=g#4 v=61
63063 Par ch=2 c=7 v=60
63120 Off ch=2 n=g#4 v=64
63123 On ch=2 n=a#4 v=62
63198 Par ch=2 c=7 v=61
63240 Off ch=2 n=a#4 v=64
63243 On ch=2 n=g#4 v=63
63333 Par ch=2 c=7 v=62
63360 Off ch=2 n=g#4 v=64
63363 Par ch=2 c=64 v=0
63363 Par ch=2 c=64 v=127
63363 On ch=2 n=c#4 v=64
63468 Par ch=2 c=7 v=63
63480 Off ch=2 n=c#4 v=64
63483 On ch=2 n=g#4 v=65
63600 Off ch=2 n=g#4 v=64
63603 Par ch=2 c=7 v=64
63603 On ch=2 n=a#4 v=66
63720 Off ch=2 n=a#4 v=64
63723 On ch=2 n=g#4 v=67
63738 Par ch=2 c=7 v=65
63840 Off ch=2 n=g#4 v=64
63843 On ch=2 n=f5 v=68
63873 Par ch=2 c=7 v=66
63960 Off ch=2 n=f5 v=64
63963 On ch=2 n=g#4 v=69
64008 Par ch=2 c=7 v=67
64080 Off ch=2 n=g#4 v=64
64083 On ch=2 n=a#4 v=70
64143 Par ch=2 c=7 v=68
64200 Off ch=2 n=a#4 v=64
64203 On ch=2 n=g#4 v=71
64278 Par ch=2 c=7 v=69
64320 Off ch=2 n=g#4 v=64
64323 Par ch=2 c=64 v=0
64323 Par ch=2 c=64 v=127
64323 On ch=2 n=g#3 v=72
64413 Par ch=2 c=7 v=70
64440 Off ch=2 n=g#3 v=64
64443 On ch=2 n=g#4 v=73
64548 Par ch=2 c=7 v=71
64560 Off ch=2 n=g#4 v=64
64563 On ch=2 n=a#4 v=74
64680 Off ch=2 n=a#4 v=64
64683 Par ch=2 c=7 v=72
64683 On ch=2 n=g#4 v=75
64800 Off ch=2 n=g#4 v=64
64803 On ch=2 n=f#5 v=76
64818 Par ch=2 c=7 v=73
64920 Off ch=2 n=f#5 v=64
64923 On ch=2 n=f#4 v=77
64953 Par ch=2 c=7 v=74
65040 Off ch=2 n=f#4 v=64
65043 On ch=2 n=g#4 v=78
65088 Par ch=2 c=7 v=75
65160 Off ch=2 n=g#4 v=64
65163 On ch=2 n=f#4 v=79
65223 Par ch=2 c=7 v=76
65280 Off ch=2 n=f#4 v=64
65283 Par ch=2 c=64 v=0
65283 Par ch=2 c=64 v=127
65283 On ch=2 n=a3 v=80
65358 Par ch=2 c=7 v=77
65400 Off ch=2 n=a3 v=64
65403 On ch=2 n=e4 v=81
65493 Par ch=2 c=7 v=78
65520 Off ch=2 n=e4 v=64
65523 On ch=2 n=f4 v=82
65628 Par ch=2 c=7 v=79
65640 Off ch=2 n=f4 v=64
65643 On ch=2 n=c5 v=83
65760 Off ch=2 n=c5 v=64
65763 Par ch=2 c=7 v=80
65763 On ch=2 n=a4 v=84
65880 Off ch=2 n=a4 v=64
65883 On ch=2 n=e5 v=85
65898 Par ch=2 c=7 v=81
66000 Off ch=2 n=e5 v=64
66003 On ch=2 n=f5 v=86
66033 Par ch=2 c=7 v=82
66120 Off ch=2 n=f5 v=64
66123 On ch=2 n=c6 v=87
66168 Par ch=2 c=7 v=83
66240 Off ch=2 n=c6 v=64
66243 Par ch=2 c=64 v=0
66243 Par ch=2 c=64 v=127
66243 On ch=2 n=a#3 v=88
66303 Par ch=2 c=7 v=84
66360 Off ch=2 n=a#3 v=64
66363 On ch=2 n=e4 v=89
66438 Par ch=2 c=7 v=85
66480 Off ch=2 n=e4 v=64
66483 On ch=2 n=f4 v=90
66573 Par ch=2 c=7 v=86
66600 Off ch=2 n=f4 v=64
66603 On ch=2 n=c#5 v=91
66708 Par ch=2 c=7 v=87
66720 Off ch=2 n=c#5 v=64
66723 On ch=2 n=a#4 v=92
66840 Off ch=2 n=a#4 v=64
66843 Par ch=2 c=7 v=88
66843 On ch=2 n=e5 v=93
66960 Off ch=2 n=e5 v=64
66963 On ch=2 n=f5 v=94
66978 Par ch=2 c=7 v=89
67080 Off ch=2 n=f5 v=64
67083 On ch=2 n=c#6 v=95
67113 Par ch=2 c=7 v=90
67200 Off ch=2 n=c#6 v=64
67203 Par ch=2 c=64 v=0
67203 Par ch=2 c=64 v=127
67203 On ch=2 n=c4 v=96
67248 Par ch=2 c=7 v=91
67320 Off ch=2 n=c4 v=64
67323 On ch=2 n=g4 v=97
67383 Par ch=2 c=7 v=92
67440 Off ch=2 n=g4 v=64
67443 On ch=2 n=g#4 v=98
67518 Par ch=2 c=7 v=93
67560 Off ch=2 n=g#4 v=64
67563 On ch=2 n=d#5 v=99
67653 Par ch=2 c=7 v=94
67680 Off ch=2 n=d#5 v=64
67683 On ch=2 n=c5 v=100
67788 Par ch=2 c=7 v=95
67800 Off ch=2 n=c5 v=64
67803 On ch=2 n=g5 v=101
67920 Off ch=2 n=g5 v=64
67923 Par ch=2 c=7 v=96
67923 On ch=2 n=g#5 v=102
68040 Off ch=2 n=g#5 v=64
68043 On ch=2 n=d#6 v=103
68058 Par ch=2 c=7 v=97
68160 Off ch=2 n=d#6 v=64
68163 Par ch=2 c=64 v=0
68163 Par ch=2 c=64 v=127
68163 On ch=2 n=d4 v=104
68193 Par ch=2 c=7 v=98
68280 Off ch=2 n=d4 v=64
68283 On ch=2 n=a4 v=105
68328 Par ch=2 c=7 v=99
68400 Off ch=2 n=a4 v=64
68403 On ch=2 n=a#4 v=106
68463 Par ch=2 c=7 v=100
68520 Off ch=2 n=a#4 v=64
68523 On ch=2 n=f5 v=107
68598 Par ch=2 c=7 v=101
68640 Off ch=2 n=f5 v=64
68643 On ch=2 n=d5 v=108
68733 Par ch=2 c=7 v=102
68760 Off ch=2 n=d5 v=64
68763 On ch=2 n=a5 v=109
68868 Par ch=2 c=7 v=103
68880 Off ch=2 n=a5 v=64
68883 On ch=2 n=a#5 v=110
69000 Off ch=2 n=a#5 v=64
69003 Par ch=2 c=7 v=104
69123 Par ch=2 c=64 v=0
69123 Par ch=2 c=64 v=127
69123 On ch=2 n=d#3 v=112
69138 Par ch=2 c=7 v=105
69243 Off ch=2 n=d#3 v=64
69243 On ch=2 n=a#3 v=113
69273 Par ch=2 c=7 v=106
69363 Off ch=2 n=a#3 v=64
69363 On ch=2 n=d#4 v=114
69408 Par ch=2 c=7 v=107
69483 Off ch=2 n=d#4 v=64
69483 On ch=2 n=a#4 v=115
69543 Par ch=2 c=7 v=108
69600 Off ch=2 n=a#4 v=64
69603 Par ch=2 c=64 v=0
69603 Par ch=2 c=64 v=127
69603 On ch=2 n=f3 v=116
69678 Par ch=2 c=7 v=109
69723 Off ch=2 n=f3 v=64
69723 On ch=2 n=a#3 v=117
69813 Par ch=2 c=7 v=110
69843 Off ch=2 n=a#3 v=64
69843 On ch=2 n=d4 v=118
69948 Par ch=2 c=7 v=111
69963 Off ch=2 n=d4 v=64
69963 On ch=2 n=g#4 v=119
70080 Off ch=2 n=g#4 v=64
70083 Par ch=2 c=64 v=0
70083 Par ch=2 c=7 v=112
70083 Par ch=2 c=64 v=127
70083 On ch=2 n=f#3 v=112
70203 Off ch=2 n=f#3 v=64
70203 On ch=2 n=a#3 v=112
70323 Off ch=2 n=a#3 v=64
70323 On ch=2 n=d#4 v=112
70443 Off ch=2 n=d#4 v=64
70443 On ch=2 n=a#4 v=112
70560 Off ch=2 n=a#4 v=64
70563 Par ch=2 c=64 v=0
70563 Par ch=2 c=64 v=127
70563 On ch=2 n=g3 v=112
70683 Off ch=2 n=g3 v=64
70683 On ch=2 n=c#4 v=112
70803 Off ch=2 n=c#4 v=64
70803 On ch=2 n=e4 v=112
70923 Off ch=2 n=e4 v=64
70923 On ch=2 n=a#4 v=112
71040 Off ch=2 n=a#4 v=64
71043 Par ch=2 c=64 v=0
71043 Par ch=2 c=64 v=127
71043 On ch=2 n=g#3 v=112
71163 Off ch=2 n=g#3 v=64
71163 On ch=2 n=c#4 v=112
71283 Off ch=2 n=c#4 v=64
71283 On ch=2 n=f4 v=112
71403 Off ch=2 n=f4 v=64
71403 On ch=2 n=c#5 v=112
71520 Off ch=2 n=c#5 v=64
71523 Par ch=2 c=64 v=0
71523 Par ch=2 c=64 v=127
71523 On ch=2 n=a#3 v=112
71643 Off ch=2 n=a#3 v=64
71643 On ch=2 n=c#4 v=112
71763 Off ch=2 n=c#4 v=64
71763 On ch=2 n=f#4 v=112
71883 Off ch=2 n=f#4 v=64
71883 On ch=2 n=c#5 v=112
72000 Off ch=2 n=c#5 v=64
72003 Par ch=2 c=64 v=0
72003 Par ch=2 c=64 v=127
72003 On ch=2 n=g#3 v=112
72123 Off ch=2 n=g#3 v=64
72123 On ch=2 n=d#4 v=112
72243 Off ch=2 n=d#4 v=64
72243 On ch=2 n=g#4 v=112
72363 Off ch=2 n=g#4 v=64
72363 On ch=2 n=c#5 v=112
72480 Off ch=2 n=c#5 v=64
72483 Par ch=2 c=64 v=0
72483 Par ch=2 c=64 v=127
72483 On ch=2 n=f#3 v=112
72603 Off ch=2 n=f#3 v=64
72603 On ch=2 n=c4 v=112
72723 Off ch=2 n=c4 v=64
72723 On ch=2 n=d#4 v=112
72843 Off ch=2 n=d#4 v=64
72843 On ch=2 n=g#4 v=112
72960 Off ch=2 n=g#4 v=64
72963 Par ch=2 c=64 v=0
72963 Par ch=2 c=64 v=127
72963 On ch=2 n=f3 v=112
73083 Off ch=2 n=f3 v=64
73083 On ch=2 n=g#3 v=112
73203 Off ch=2 n=g#3 v=64
73203 On ch=2 n=c#4 v=112
73323 Off ch=2 n=c#4 v=64
73323 On ch=2 n=g#4 v=112
73440 Off ch=2 n=g#4 v=64
73443 Par ch=2 c=64 v=0
73443 Par ch=2 c=64 v=127
73443 On ch=2 n=a#3 v=112
73563 Off ch=2 n=a#3 v=64
73563 On ch=2 n=c#4 v=112
73683 Off ch=2 n=c#4 v=64
73683 On ch=2 n=f#4 v=112
73803 Off ch=2 n=f#4 v=64
73803 On ch=2 n=c#5 v=112
73920 Off ch=2 n=c#5 v=64
73923 Par ch=2 c=64 v=0
73923 Par ch=2 c=64 v=127
73923 On ch=2 n=a3 v=112
74043 Off ch=2 n=a3 v=64
74043 On ch=2 n=c#4 v=112
74163 Off ch=2 n=c#4 v=64
74163 On ch=2 n=f#4 v=112
74283 Off ch=2 n=f#4 v=64
74283 On ch=2 n=c#5 v=112
74400 Off ch=2 n=c#5 v=64
74403 Par ch=2 c=64 v=0
74403 Par ch=2 c=64 v=127
74403 On ch=2 n=g#3 v=112
74523 Off ch=2 n=g#3 v=64
74523 On ch=2 n=d#4 v=112
74643 Off ch=2 n=d#4 v=64
74643 On ch=2 n=c5 v=112
74763 Off ch=2 n=c5 v=64
74763 On ch=2 n=f#3 v=112
74880 Off ch=2 n=f#3 v=64
74883 Par ch=2 c=64 v=0
74883 Par ch=2 c=64 v=127
74883 On ch=2 n=f3 v=112
75003 Off ch=2 n=f3 v=64
75003 On ch=2 n=g#3 v=112
75123 Off ch=2 n=g#3 v=64
75123 On ch=2 n=c#4 v=112
75243 Off ch=2 n=c#4 v=64
75243 On ch=2 n=g#4 v=112
75360 Off ch=2 n=g#4 v=64
75363 Par ch=2 c=64 v=0
75363 Par ch=2 c=64 v=127
75363 On ch=2 n=a#3 v=112
75483 Off ch=2 n=a#3 v=64
75483 On ch=2 n=c#4 v=112
75603 Off ch=2 n=c#4 v=64
75603 On ch=2 n=f#4 v=112
75723 Off ch=2 n=f#4 v=64
75723 On ch=2 n=c#5 v=112
75840 Off ch=2 n=c#5 v=64
75843 Par ch=2 c=64 v=0
75843 Par ch=2 c=64 v=127
75843 On ch=2 n=g#3 v=112
75963 Off ch=2 n=g#3 v=64
75963 On ch=2 n=d#4 v=112
76083 Off ch=2 n=d#4 v=64
76083 On ch=2 n=g#4 v=112
76203 Off ch=2 n=g#4 v=64
76203 On ch=2 n=c#5 v=112
76320 Off ch=2 n=c#5 v=64
76323 Par ch=2 c=64 v=0
76323 Par ch=2 c=64 v=127
76323 On ch=2 n=g#3 v=112
76443 Off ch=2 n=g#3 v=64
76443 On ch=2 n=d#4 v=112
76563 Off ch=2 n=d#4 v=64
76563 On ch=2 n=g#4 v=112
76683 Off ch=2 n=g#4 v=64
76683 On ch=2 n=c5 v=112
76800 Off ch=2 n=c5 v=64
76803 Par ch=2 c=64 v=0
76803 Par ch=2 c=7 v=94
76803 On ch=2 n=c#4 v=94
76803 On ch=2 n=g#4 v=94
76803 On ch=2 n=c#5 v=94
76960 Off ch=2 n=c#5 v=64
76960 Off ch=2 n=g#4 v=64
76960 Off ch=2 n=c#4 v=64
76963 On ch=2 n=d#4 v=94
76963 On ch=2 n=g4 v=94
76963 On ch=2 n=c#5 v=94
77120 Off ch=2 n=c#5 v=64
77120 Off ch=2 n=g4 v=64
77120 Off ch=2 n=d#4 v=64
77123 On ch=2 n=d#4 v=94
77123 On ch=2 n=g4 v=94
77123 On ch=2 n=c#5 v=94
77280 Off ch=2 n=c#5 v=64
77280 Off ch=2 n=g4 v=64
77280 Off ch=2 n=d#4 v=64
77283 On ch=2 n=d#4 v=94
77283 On ch=2 n=g4 v=94
77283 On ch=2 n=c#5 v=94
77440 Off ch=2 n=c#5 v=64
77440 Off ch=2 n=g4 v=64
77440 Off ch=2 n=d#4 v=64
77443 On ch=2 n=g#4 v=94
77443 On ch=2 n=c5 v=94
77600 Off ch=2 n=c5 v=64
77600 Off ch=2 n=g#4 v=64
77603 On ch=2 n=g#5 v=94
77603 On ch=2 n=d#5 v=94
77603 On ch=2 n=g#4 v=94
77760 Off ch=2 n=g#4 v=64
77760 Off ch=2 n=d#5 v=64
77760 Off ch=2 n=g#5 v=64
77763 On ch=2 n=g#4 v=94
77763 On ch=2 n=d#5 v=94
77763 On ch=2 n=g#5 v=94
77920 Off ch=2 n=g#5 v=64
77920 Off ch=2 n=d#5 v=64
77920 Off ch=2 n=g#4 v=64
77923 On ch=2 n=c#5 v=94
77923 On ch=2 n=g#5 v=94
78080 Off ch=2 n=g#5 v=64
78080 Off ch=2 n=c#5 v=64
78083 On ch=2 n=d#5 v=94
78083 On ch=2 n=g5 v=94
78083 On ch=2 n=c#6 v=94
78240 Off ch=2 n=c#6 v=64
78240 Off ch=2 n=g5 v=64
78240 Off ch=2 n=d#5 v=64
78243 On ch=2 n=d#5 v=94
78243 On ch=2 n=g5 v=94
78243 On ch=2 n=c#6 v=94
78400 Off ch=2 n=c#6 v=64
78400 Off ch=2 n=g5 v=64
78400 Off ch=2 n=d#5 v=64
78403 On ch=2 n=g#5 v=94
78403 On ch=2 n=c6 v=94
78560 Off ch=2 n=c6 v=64
78560 Off ch=2 n=g#5 v=64
78563 On ch=2 n=d#6 v=94
78563 On ch=2 n=g#5 v=94
78720 Off ch=2 n=g#5 v=64
78720 Off ch=2 n=d#6 v=64
78723 On ch=2 n=g#5 v=94
78723 On ch=2 n=d#6 v=94
78723 On ch=2 n=g#6 v=94
78880 Off ch=2 n=g#6 v=64
78880 Off ch=2 n=d#6 v=64
78880 Off ch=2 n=g#5 v=64
78883 On ch=2 n=c#6 v=94
78883 On ch=2 n=g#6 v=94
79040 Off ch=2 n=g#6 v=64
79040 Off ch=2 n=c#6 v=64
79043 On ch=2 n=d#5 v=94
79043 On ch=2 n=g5 v=94
79043 On ch=2 n=c#6 v=94
79200 Off ch=2 n=c#6 v=64
79200 Off ch=2 n=g5 v=64
79200 Off ch=2 n=d#5 v=64
79203 On ch=2 n=d#5 v=94
79203 On ch=2 n=g5 v=94
79203 On ch=2 n=c#6 v=94
79360 Off ch=2 n=c#6 v=64
79360 Off ch=2 n=g5 v=64
79360 Off ch=2 n=d#5 v=64
79363 On ch=2 n=g#5 v=94
79363 On ch=2 n=c6 v=94
79520 Off ch=2 n=c6 v=64
79520 Off ch=2 n=g#5 v=64
79523 On ch=2 n=g#5 v=94
79523 On ch=2 n=d#5 v=94
79523 On ch=2 n=g#4 v=94
79680 Off ch=2 n=g#4 v=64
79680 Off ch=2 n=d#5 v=64
79680 Off ch=2 n=g#5 v=64
79683 On ch=2 n=g#4 v=94
79683 On ch=2 n=d#5 v=94
79683 On ch=2 n=g#5 v=94
79840 Off ch=2 n=g#5 v=64
79840 Off ch=2 n=d#5 v=64
79840 Off ch=2 n=g#4 v=64
79843 On ch=2 n=c#5 v=94
79843 On ch=2 n=g#5 v=94
80000 Off ch=2 n=g#5 v=64
80000 Off ch=2 n=c#5 v=64
80003 On ch=2 n=d#4 v=94
80003 On ch=2 n=g4 v=94
80003 On ch=2 n=c#5 v=94
80160 Off ch=2 n=c#5 v=64
80160 Off ch=2 n=g4 v=64
80160 Off ch=2 n=d#4 v=64
80163 On ch=2 n=d#4 v=94
80163 On ch=2 n=g4 v=94
80163 On ch=2 n=c#5 v=94
80320 Off ch=2 n=c#5 v=64
80320 Off ch=2 n=g4 v=64
80320 Off ch=2 n=d#4 v=64
80323 On ch=2 n=g#4 v=94
80323 On ch=2 n=c5 v=94
80480 Off ch=2 n=c5 v=64
80480 Off ch=2 n=g#4 v=64
80483 On ch=2 n=g#4 v=94
80483 On ch=2 n=d#4 v=94
80483 On ch=2 n=g#3 v=94
80640 Off ch=2 n=g#3 v=64
80640 Off ch=2 n=d#4 v=64
80640 Off ch=2 n=g#4 v=64
80643 On ch=2 n=g#3 v=94
80643 On ch=2 n=d#4 v=94
80643 On ch=2 n=g#4 v=94
80800 Off ch=2 n=g#4 v=64
80800 Off ch=2 n=d#4 v=64
80800 Off ch=2 n=g#3 v=64
80803 On ch=2 n=c#4 v=94
80803 On ch=2 n=g#4 v=94
80960 Off ch=2 n=g#4 v=64
80960 Off ch=2 n=c#4 v=64
80963 On ch=2 n=g4 v=94
80963 On ch=2 n=c#5 v=94
81120 Off ch=2 n=c#5 v=64
81120 Off ch=2 n=g4 v=64
81123 On ch=2 n=g4 v=94
81123 On ch=2 n=c#5 v=94
81280 Off ch=2 n=c#5 v=64
81280 Off ch=2 n=g4 v=64
81283 On ch=2 n=g#4 v=94
81283 On ch=2 n=c5 v=94
81440 Off ch=2 n=c5 v=64
81440 Off ch=2 n=g#4 v=64
81443 On ch=2 n=g#5 v=94
81443 On ch=2 n=d#5 v=94
81443 On ch=2 n=g#4 v=94
81600 Off ch=2 n=g#4 v=64
81600 Off ch=2 n=d#5 v=64
81600 Off ch=2 n=g#5 v=64
81603 On ch=2 n=g#4 v=94
81603 On ch=2 n=d#5 v=94
81603 On ch=2 n=g#5 v=94
81760 Off ch=2 n=g#5 v=64
81760 Off ch=2 n=d#5 v=64
81760 Off ch=2 n=g#4 v=64
81763 On ch=2 n=c#5 v=94
81763 On ch=2 n=g#5 v=94
81920 Off ch=2 n=g#5 v=64
81920 Off ch=2 n=c#5 v=64
81923 On ch=2 n=g5 v=94
81923 On ch=2 n=c#6 v=94
82080 Off ch=2 n=c#6 v=64
82080 Off ch=2 n=g5 v=64
82083 On ch=2 n=g5 v=94
82083 On ch=2 n=c#6 v=94
82240 Off ch=2 n=c#6 v=64
82240 Off ch=2 n=g5 v=64
82243 On ch=2 n=g#5 v=94
82243 On ch=2 n=c6 v=94
82400 Off ch=2 n=c6 v=64
82400 Off ch=2 n=g#5 v=64
82403 On ch=2 n=g6 v=94
82403 On ch=2 n=d#6 v=94
82403 On ch=2 n=g#5 v=94
82560 Off ch=2 n=g#5 v=64
82560 Off ch=2 n=d#6 v=64
82560 Off ch=2 n=g6 v=64
82563 On ch=2 n=g#5 v=94
82563 On ch=2 n=d#6 v=94
82563 On ch=2 n=g#6 v=94
82720 Off ch=2 n=g#6 v=64
82720 Off ch=2 n=d#6 v=64
82720 Off ch=2 n=g#5 v=64
82723 On ch=2 n=c#6 v=94
82723 On ch=2 n=g#6 v=94
82880 Off ch=2 n=g#6 v=64
82880 Off ch=2 n=c#6 v=64
82883 On ch=2 n=g5 v=94
82883 On ch=2 n=c#6 v=94
83040 Off ch=2 n=c#6 v=64
83040 Off ch=2 n=g5 v=64
83043 On ch=2 n=g5 v=94
83043 On ch=2 n=c#6 v=94
83200 Off ch=2 n=c#6 v=64
83200 Off ch=2 n=g5 v=64
83203 On ch=2 n=g#5 v=94
83203 On ch=2 n=c6 v=94
83360 Off ch=2 n=c6 v=64
83360 Off ch=2 n=g#5 v=64
83363 On ch=2 n=g#5 v=94
83363 On ch=2 n=d#5 v=94
83363 On ch=2 n=g#4 v=94
83520 Off ch=2 n=g#4 v=64
83520 Off ch=2 n=d#5 v=64
83520 Off ch=2 n=g#5 v=64
83523 On ch=2 n=g#4 v=94
83523 On ch=2 n=d#5 v=94
83523 On ch=2 n=g#5 v=94
83680 Off ch=2 n=g#5 v=64
83680 Off ch=2 n=d#5 v=64
83680 Off ch=2 n=g#4 v=64
83683 On ch=2 n=c#5 v=94
83683 On ch=2 n=g#5 v=94
83840 Off ch=2 n=g#5 v=64
83840 Off ch=2 n=c#5 v=64
83843 On ch=2 n=g4 v=94
83843 On ch=2 n=c#5 v=94
84000 Off ch=2 n=c#5 v=64
84000 Off ch=2 n=g4 v=64
84003 On ch=2 n=g4 v=94
84003 On ch=2 n=c#5 v=94
84160 Off ch=2 n=c#5 v=64
84160 Off ch=2 n=g4 v=64
84163 On ch=2 n=g#4 v=94
84163 On ch=2 n=c5 v=94
84320 Off ch=2 n=c5 v=64
84320 Off ch=2 n=g#4 v=64
84323 On ch=2 n=g#4 v=94
84323 On ch=2 n=g#3 v=94
84480 Off ch=2 n=g#3 v=64
84480 Off ch=2 n=g#4 v=64
84483 On ch=2 n=g#3 v=94
84483 On ch=2 n=g#4 v=94
84640 Off ch=2 n=g#4 v=64
84640 Off ch=2 n=g#3 v=64
84643 On ch=2 n=g3 v=94
84643 On ch=2 n=g4 v=94
84800 Off ch=2 n=g4 v=64
84800 Off ch=2 n=g3 v=64
84803 On ch=2 n=g4 v=94
84803 On ch=2 n=a4 v=94
84960 Off ch=2 n=a4 v=64
84960 Off ch=2 n=g4 v=64
84963 On ch=2 n=g4 v=94
84963 On ch=2 n=a4 v=94
85120 Off ch=2 n=a4 v=64
85120 Off ch=2 n=g4 v=64
85123 On ch=2 n=g4 v=94
85123 On ch=2 n=b4 v=94
85280 Off ch=2 n=b4 v=64
85280 Off ch=2 n=g4 v=64
85283 On ch=2 n=d5 v=94
85283 On ch=2 n=g4 v=94
85440 Off ch=2 n=g4 v=64
85440 Off ch=2 n=d5 v=64
85443 On ch=2 n=g4 v=94
85443 On ch=2 n=d5 v=94
85600 Off ch=2 n=d5 v=64
85600 Off ch=2 n=g4 v=64
85603 On ch=2 n=g4 v=94
85603 On ch=2 n=c5 v=94
85603 On ch=2 n=e5 v=94
85760 Off ch=2 n=e5 v=64
85760 Off ch=2 n=c5 v=64
85760 Off ch=2 n=g4 v=64
85763 On ch=2 n=g4 v=94
85763 On ch=2 n=d5 v=94
85763 On ch=2 n=a5 v=94
85920 Off ch=2 n=a5 v=64
85920 Off ch=2 n=d5 v=64
85920 Off ch=2 n=g4 v=64
85923 On ch=2 n=g4 v=94
85923 On ch=2 n=d5 v=94
85923 On ch=2 n=a5 v=94
86080 Off ch=2 n=a5 v=64
86080 Off ch=2 n=d5 v=64
86080 Off ch=2 n=g4 v=64
86083 On ch=2 n=g4 v=94
86083 On ch=2 n=d5 v=94
86083 On ch=2 n=g5 v=94
86240 Off ch=2 n=g5 v=64
86240 Off ch=2 n=d5 v=64
86240 Off ch=2 n=g4 v=64
86243 On ch=2 n=g5 v=94
86243 On ch=2 n=d5 v=94
86243 On ch=2 n=g4 v=94
86400 Off ch=2 n=g4 v=64
86400 Off ch=2 n=d5 v=64
86400 Off ch=2 n=g5 v=64
86403 On ch=2 n=g4 v=94
86403 On ch=2 n=d5 v=94
86403 On ch=2 n=g5 v=94
86560 Off ch=2 n=g5 v=64
86560 Off ch=2 n=d5 v=64
86560 Off ch=2 n=g4 v=64
86563 On ch=2 n=d5 v=94
86563 On ch=2 n=g#5 v=94
86723 Off ch=2 n=g#5 v=64
86723 Off ch=2 n=d5 v=64
86723 On ch=2 n=f4 v=94
86880 Off ch=2 n=f4 v=64
86883 On ch=2 n=g#4 v=94
86883 On ch=2 n=f5 v=94
87043 Off ch=2 n=f5 v=64
87043 Off ch=2 n=g#4 v=64
87043 On ch=2 n=d4 v=94
87200 Off ch=2 n=d4 v=64
87203 On ch=2 n=d5 v=94
87203 On ch=2 n=g#4 v=94
87363 Off ch=2 n=g#4 v=64
87363 Off ch=2 n=d5 v=64
87363 On ch=2 n=b3 v=94
87520 Off ch=2 n=b3 v=64
87523 On ch=2 n=f4 v=94
87523 On ch=2 n=b4 v=94
87683 Off ch=2 n=b4 v=64
87683 Off ch=2 n=f4 v=64
87683 On ch=2 n=g#3 v=94
87840 Off ch=2 n=g#3 v=64
87843 On ch=2 n=d4 v=94
87843 On ch=2 n=g#4 v=94
88003 Off ch=2 n=g#4 v=64
88003 Off ch=2 n=d4 v=64
88003 On ch=2 n=f3 v=94
88160 Off ch=2 n=f3 v=64
88163 On ch=2 n=f3 v=94
88163 On ch=2 n=f2 v=94
88320 Off ch=2 n=f2 v=64
88320 Off ch=2 n=f3 v=64
88323 Par ch=2 c=64 v=127
88323 On ch=2 n=e2 v=94
88323 On ch=2 n=e3 v=94
88480 Off ch=2 n=e3 v=64
88480 Off ch=2 n=e2 v=64
88483 On ch=2 n=e3 v=94
88483 On ch=2 n=e4 v=94
88640 Off ch=2 n=e4 v=64
88640 Off ch=2 n=e3 v=64
88643 On ch=2 n=e3 v=94
88643 On ch=2 n=e4 v=94
88800 Off ch=2 n=e4 v=64
88800 Off ch=2 n=e3 v=64
88803 On ch=2 n=e3 v=94
88803 On ch=2 n=e4 v=94
88960 Off ch=2 n=e4 v=64
88960 Off ch=2 n=e3 v=64
88963 On ch=2 n=e3 v=94
88963 On ch=2 n=e4 v=94
89120 Off ch=2 n=e4 v=64
89120 Off ch=2 n=e3 v=64
89123 On ch=2 n=e4 v=94
89123 On ch=2 n=e3 v=94
89280 Off ch=2 n=e3 v=64
89280 Off ch=2 n=e4 v=64
89283 On ch=2 n=e3 v=127
89283 On ch=2 n=e4 v=127
89440 Off ch=2 n=e4 v=64
89440 Off ch=2 n=e3 v=64
89443 On ch=2 n=d#3 v=94
89443 On ch=2 n=d#4 v=94
89600 Off ch=2 n=d#4 v=64
89600 Off ch=2 n=d#3 v=64
89603 On ch=2 n=d#3 v=94
89603 On ch=2 n=d#4 v=94
89760 Off ch=2 n=d#4 v=64
89760 Off ch=2 n=d#3 v=64
89763 On ch=2 n=d#3 v=94
89763 On ch=2 n=d#4 v=94
89895 Par ch=2 c=7 v=95
89920 Off ch=2 n=d#4 v=64
89920 Off ch=2 n=d#3 v=64
89923 On ch=2 n=e3 v=95
89923 On ch=2 n=e4 v=95
90029 Par ch=2 c=7 v=96
90080 Off ch=2 n=e4 v=64
90080 Off ch=2 n=e3 v=64
90083 On ch=2 n=e4 v=96
90083 On ch=2 n=e3 v=96
90161 Par ch=2 c=7 v=97
90240 Off ch=2 n=e3 v=64
90240 Off ch=2 n=e4 v=64
90243 On ch=2 n=e3 v=97
90243 On ch=2 n=e4 v=97
90295 Par ch=2 c=7 v=98
90400 Off ch=2 n=e4 v=64
90400 Off ch=2 n=e3 v=64
90403 On ch=2 n=e3 v=98
90403 On ch=2 n=e4 v=98
90429 Par ch=2 c=7 v=99
90560 Off ch=2 n=e4 v=64
90560 Off ch=2 n=e3 v=64
90561 Par ch=2 c=7 v=100
90563 On ch=2 n=e3 v=99
90563 On ch=2 n=e4 v=99
90695 Par ch=2 c=7 v=101
90720 Off ch=2 n=e4 v=64
90720 Off ch=2 n=e3 v=64
90723 On ch=2 n=e3 v=100
90723 On ch=2 n=e4 v=100
90829 Par ch=2 c=7 v=102
90880 Off ch=2 n=e4 v=64
90880 Off ch=2 n=e3 v=64
90883 On ch=2 n=e3 v=101
90883 On ch=2 n=e4 v=101
90961 Par ch=2 c=7 v=103
91040 Off ch=2 n=e4 v=64
91040 Off ch=2 n=e3 v=64
91043 On ch=2 n=e4 v=102
91043 On ch=2 n=e3 v=102
91095 Par ch=2 c=7 v=104
91200 Off ch=2 n=e3 v=64
91200 Off ch=2 n=e4 v=64
91203 On ch=2 n=e3 v=103
91203 On ch=2 n=e4 v=103
91229 Par ch=2 c=7 v=105
91360 Off ch=2 n=e4 v=64
91360 Off ch=2 n=e3 v=64
91361 Par ch=2 c=7 v=106
91363 On ch=2 n=d#3 v=104
91363 On ch=2 n=d#4 v=104
91495 Par ch=2 c=7 v=107
91520 Off ch=2 n=d#4 v=64
91520 Off ch=2 n=d#3 v=64
91523 On ch=2 n=d#3 v=105
91523 On ch=2 n=d#4 v=105
91629 Par ch=2 c=7 v=108
91680 Off ch=2 n=d#4 v=64
91680 Off ch=2 n=d#3 v=64
91683 On ch=2 n=d#3 v=106
91683 On ch=2 n=d#4 v=106
91761 Par ch=2 c=7 v=109
91840 Off ch=2 n=d#4 v=64
91840 Off ch=2 n=d#3 v=64
91843 On ch=2 n=e3 v=107
91843 On ch=2 n=e4 v=107
91895 Par ch=2 c=7 v=110
92000 Off ch=2 n=e4 v=64
92000 Off ch=2 n=e3 v=64
92003 On ch=2 n=e4 v=108
92003 On ch=2 n=e3 v=108
92029 Par ch=2 c=7 v=111
92160 Off ch=2 n=e3 v=64
92160 Off ch=2 n=e4 v=64
92161 Par ch=2 c=7 v=112
92163 Par ch=2 c=64 v=0
92163 Par ch=2 c=7 v=112
92163 Par ch=2 c=64 v=127
92163 On ch=2 n=f3 v=112
92163 On ch=2 n=f4 v=112
92320 Off ch=2 n=f4 v=64
92320 Off ch=2 n=f3 v=64
92323 On ch=2 n=c#4 v=112
92323 On ch=2 n=g#4 v=112
92323 On ch=2 n=c#5 v=112
92480 Off ch=2 n=c#5 v=64
92480 Off ch=2 n=g#4 v=64
92480 Off ch=2 n=c#4 v=64
92483 On ch=2 n=c#4 v=112
92483 On ch=2 n=g#4 v=112
92483 On ch=2 n=c#5 v=112
92640 Off ch=2 n=c#5 v=64
92640 Off ch=2 n=g#4 v=64
92640 Off ch=2 n=c#4 v=64
92643 On ch=2 n=c#4 v=112
92643 On ch=2 n=g#4 v=112
92643 On ch=2 n=c#5 v=112
92843 Off ch=2 n=c#5 v=64
92843 Off ch=2 n=g#4 v=64
92843 Off ch=2 n=c#4 v=64
93123 Par ch=2 c=64 v=0
93123 Par ch=2 c=64 v=127
93123 On ch=2 n=f#2 v=127
93123 On ch=2 n=f#3 v=127
93280 Off ch=2 n=f#3 v=64
93280 Off ch=2 n=f#2 v=64
93283 On ch=2 n=c#4 v=112
93283 On ch=2 n=f#4 v=112
93283 On ch=2 n=c#5 v=112
93440 Off ch=2 n=c#5 v=64
93440 Off ch=2 n=f#4 v=64
93440 Off ch=2 n=c#4 v=64
93443 On ch=2 n=c#4 v=112
93443 On ch=2 n=f#4 v=112
93443 On ch=2 n=c#5 v=112
93600 Off ch=2 n=c#5 v=64
93600 Off ch=2 n=f#4 v=64
93600 Off ch=2 n=c#4 v=64
93603 On ch=2 n=c#4 v=112
93603 On ch=2 n=f#4 v=112
93603 On ch=2 n=c#5 v=112
93803 Off ch=2 n=c#5 v=64
93803 Off ch=2 n=f#4 v=64
93803 Off ch=2 n=c#4 v=64
94083 Par ch=2 c=64 v=0
94083 Par ch=2 c=64 v=127
94083 On ch=2 n=g#2 v=127
94083 On ch=2 n=g#3 v=127
94240 Off ch=2 n=g#3 v=64
94240 Off ch=2 n=g#2 v=64
94243 On ch=2 n=c#4 v=112
94243 On ch=2 n=g#4 v=112
94243 On ch=2 n=c#5 v=112
94400 Off ch=2 n=c#5 v=64
94400 Off ch=2 n=g#4 v=64
94400 Off ch=2 n=c#4 v=64
94403 On ch=2 n=c#4 v=112
94403 On ch=2 n=g#4 v=112
94403 On ch=2 n=c#5 v=112
94560 Off ch=2 n=c#5 v=64
94560 Off ch=2 n=g#4 v=64
94560 Off ch=2 n=c#4 v=64
94563 On ch=2 n=c#4 v=112
94563 On ch=2 n=g#4 v=112
94563 On ch=2 n=c#5 v=112
94763 Off ch=2 n=c#5 v=64
94763 Off ch=2 n=g#4 v=64
94763 Off ch=2 n=c#4 v=64
95043 Par ch=2 c=64 v=0
95043 Par ch=2 c=64 v=127
95043 On ch=2 n=a#2 v=127
95043 On ch=2 n=a#3 v=127
95200 Off ch=2 n=a#3 v=64
95200 Off ch=2 n=a#2 v=64
95203 On ch=2 n=d#4 v=112
95203 On ch=2 n=a#4 v=112
95203 On ch=2 n=c#5 v=112
95360 Off ch=2 n=c#5 v=64
95360 Off ch=2 n=a#4 v=64
95360 Off ch=2 n=d#4 v=64
95363 On ch=2 n=d#4 v=112
95363 On ch=2 n=a#4 v=112
95363 On ch=2 n=c#5 v=112
95520 Off ch=2 n=c#5 v=64
95520 Off ch=2 n=a#4 v=64
95520 Off ch=2 n=d#4 v=64
95523 On ch=2 n=d#4 v=112
95523 On ch=2 n=a#4 v=112
95523 On ch=2 n=c#5 v=112
95723 Off ch=2 n=c#5 v=64
95723 Off ch=2 n=a#4 v=64
95723 Off ch=2 n=d#4 v=64
96003 On ch=2 n=d#3 v=112
96003 On ch=2 n=d#2 v=112
96003 Par ch=2 c=64 v=0
96003 Par ch=2 c=64 v=127
96063 Par ch=2 c=7 v=111
96123 Par ch=2 c=7 v=110
96183 Par ch=2 c=7 v=109
96243 Par ch=2 c=7 v=108
96303 Par ch=2 c=7 v=107
96363 Par ch=2 c=7 v=106
96423 Par ch=2 c=7 v=105
96483 Par ch=2 c=7 v=104
96543 Par ch=2 c=7 v=103
96603 Par ch=2 c=7 v=102
96663 Par ch=2 c=7 v=101
96723 Par ch=2 c=7 v=100
96783 Par ch=2 c=7 v=99
96843 Par ch=2 c=7 v=98
96903 Par ch=2 c=7 v=97
96963 Par ch=2 c=7 v=96
97023 Par ch=2 c=7 v=95
97083 Par ch=2 c=7 v=94
97143 Par ch=2 c=7 v=93
97203 Par ch=2 c=7 v=92
97263 Par ch=2 c=7 v=91
97323 Par ch=2 c=7 v=90
97383 Par ch=2 c=7 v=89
97443 Par ch=2 c=7 v=88
97503 Par ch=2 c=7 v=87
97563 Par ch=2 c=7 v=86
97623 Par ch=2 c=7 v=85
97683 Par ch=2 c=7 v=84
97743 Par ch=2 c=7 v=83
97803 Par ch=2 c=7 v=82
97863 Off ch=2 n=d#2 v=64
97863 Off ch=2 n=d#3 v=64
97863 Par ch=2 c=7 v=81
97923 On ch=2 n=f#4 v=80
97923 On ch=2 n=g#3 v=80
97923 On ch=2 n=g#2 v=80
97923 Par ch=2 c=7 v=80
97923 Par ch=2 c=64 v=0
97923 Par ch=2 c=64 v=127
97983 Par ch=2 c=7 v=79
98043 Par ch=2 c=7 v=78
98103 Par ch=2 c=7 v=77
98163 Par ch=2 c=7 v=76
98223 Par ch=2 c=7 v=75
98283 Par ch=2 c=7 v=74
98343 Par ch=2 c=7 v=73
98403 Par ch=2 c=7 v=72
98463 Par ch=2 c=7 v=71
98523 Par ch=2 c=7 v=70
98583 Par ch=2 c=7 v=69
98643 Par ch=2 c=7 v=68
98703 Par ch=2 c=7 v=67
98763 Par ch=2 c=7 v=66
98823 Par ch=2 c=7 v=65
98883 Par ch=2 c=7 v=64
98943 Par ch=2 c=7 v=63
99003 Par ch=2 c=7 v=62
99063 Par ch=2 c=7 v=61
99123 Par ch=2 c=7 v=60
99183 Par ch=2 c=7 v=59
99243 Par ch=2 c=7 v=58
99303 Par ch=2 c=7 v=57
99363 Par ch=2 c=7 v=56
99423 Par ch=2 c=7 v=55
99483 Par ch=2 c=7 v=54
99543 Par ch=2 c=7 v=53
99603 Par ch=2 c=7 v=52
99663 Par ch=2 c=7 v=51
99723 Par ch=2 c=7 v=50
99783 Off ch=2 n=g#2 v=64
99783 Off ch=2 n=g#3 v=64
99783 Off ch=2 n=f#4 v=64
99783 Par ch=2 c=7 v=49
99843 Par ch=2 c=64 v=0
99843 Par ch=2 c=7 v=48
99843 On ch=2 n=a2 v=48
99843 On ch=2 n=a3 v=48
99960 Off ch=2 n=a3 v=64
99960 Off ch=2 n=a2 v=64
99963 On ch=2 n=f#2 v=48
99963 On ch=2 n=f#3 v=48
100080 Off ch=2 n=f#3 v=64
100080 Off ch=2 n=f#2 v=64
100203 On ch=2 n=g#2 v=48
100203 On ch=2 n=g#3 v=48
100320 Off ch=2 n=g#3 v=64
100320 Off ch=2 n=g#2 v=64
100323 On ch=2 n=a2 v=48
100323 On ch=2 n=a3 v=48
100440 Off ch=2 n=a3 v=64
100440 Off ch=2 n=a2 v=64
100443 On ch=2 n=f#2 v=48
100443 On ch=2 n=f#3 v=48
100560 Off ch=2 n=f#3 v=64
100560 Off ch=2 n=f#2 v=64
100803 On ch=2 n=a2 v=48
100803 On ch=2 n=a3 v=48
100920 Off ch=2 n=a3 v=64
100920 Off ch=2 n=a2 v=64
100923 On ch=2 n=f#2 v=48
100923 On ch=2 n=f#3 v=48
101040 Off ch=2 n=f#3 v=64
101040 Off ch=2 n=f#2 v=64
101163 On ch=2 n=g#2 v=48
101163 On ch=2 n=g#3 v=48
101280 Off ch=2 n=g#3 v=64
101280 Off ch=2 n=g#2 v=64
101283 On ch=2 n=a2 v=48
101283 On ch=2 n=a3 v=48
101400 Off ch=2 n=a3 v=64
101400 Off ch=2 n=a2 v=64
101403 On ch=2 n=f#2 v=48
101403 On ch=2 n=f#3 v=48
101520 Off ch=2 n=f#3 v=64
101520 Off ch=2 n=f#2 v=64
101763 On ch=2 n=a2 v=48
101763 On ch=2 n=a3 v=48
101880 Off ch=2 n=a3 v=64
101880 Off ch=2 n=a2 v=64
101883 On ch=2 n=f#2 v=48
101883 On ch=2 n=f#3 v=48
102000 Off ch=2 n=f#3 v=64
102000 Off ch=2 n=f#2 v=64
102123 On ch=2 n=g#2 v=48
102123 On ch=2 n=g#3 v=48
102240 Off ch=2 n=g#3 v=64
102240 Off ch=2 n=g#2 v=64
102243 On ch=2 n=a2 v=48
102243 On ch=2 n=a3 v=48
102360 Off ch=2 n=a3 v=64
102360 Off ch=2 n=a2 v=64
102363 On ch=2 n=f#3 v=48
102363 On ch=2 n=f#4 v=48
102480 Off ch=2 n=f#4 v=64
102480 Off ch=2 n=f#3 v=64
102723 Par ch=2 c=64 v=127
102723 On ch=2 n=f#4 v=48
103203 Off ch=2 n=f#4 v=64
103203 On ch=2 n=d3 v=48
103623 Off ch=2 n=d3 v=64
103683 On ch=2 n=g4 v=48
103683 On ch=2 n=d4 v=48
103683 On ch=2 n=g3 v=48
103683 Par ch=2 c=64 v=0
103683 Par ch=2 c=64 v=127
104643 Off ch=2 n=g3 v=64
104643 Off ch=2 n=d4 v=64
104643 Off ch=2 n=g4 v=64
104643 Par ch=2 c=7 v=30
104643 On ch=2 n=d3 v=30
104643 On ch=2 n=d4 v=30
105003 Off ch=2 n=d4 v=64
105003 Off ch=2 n=d3 v=64
105003 On ch=2 n=g2 v=30
105003 On ch=2 n=g3 v=30
105120 Off ch=2 n=g3 v=64
105120 Off ch=2 n=g2 v=64
105123 On ch=2 n=g2 v=30
105123 On ch=2 n=g3 v=30
105543 Off ch=2 n=g3 v=64
105543 Off ch=2 n=g2 v=64
105603 On ch=2 n=d3 v=30
105723 Off ch=2 n=d3 v=64
105723 On ch=2 n=g2 v=30
105840 Off ch=2 n=g2 v=64
105843 Par ch=2 c=64 v=0
105963 On ch=2 n=a2 v=30
106083 Off ch=2 n=a2 v=64
106083 On ch=2 n=b2 v=30
106203 Off ch=2 n=b2 v=64
106203 On ch=2 n=g2 v=30
106320 Off ch=2 n=g2 v=64
106563 On ch=2 n=d3 v=30
106563 On ch=2 n=d4 v=30
106683 Off ch=2 n=d4 v=64
106683 Off ch=2 n=d3 v=64
106683 On ch=2 n=g2 v=30
106683 On ch=2 n=g3 v=30
106800 Off ch=2 n=g3 v=64
106800 Off ch=2 n=g2 v=64
106923 On ch=2 n=a2 v=30
106923 On ch=2 n=a3 v=30
107043 Off ch=2 n=a3 v=64
107043 Off ch=2 n=a2 v=64
107043 On ch=2 n=b2 v=30
107043 On ch=2 n=b3 v=30
107163 Off ch=2 n=b3 v=64
107163 Off ch=2 n=b2 v=64
107163 On ch=2 n=g2 v=30
107163 On ch=2 n=g3 v=30
107280 Off ch=2 n=g3 v=64
107280 Off ch=2 n=g2 v=64
107523 On ch=2 n=d3 v=30
107523 On ch=2 n=d4 v=30
107643 Off ch=2 n=d4 v=64
107643 Off ch=2 n=d3 v=64
107643 On ch=2 n=g#2 v=30
107643 On ch=2 n=g#3 v=30
107760 Off ch=2 n=g#3 v=64
107760 Off ch=2 n=g#2 v=64
107883 On ch=2 n=a2 v=30
107883 On ch=2 n=a3 v=30
107936 Par ch=2 c=7 v=31
107991 Par ch=2 c=7 v=32
108003 Off ch=2 n=a3 v=64
108003 Off ch=2 n=a2 v=64
108003 On ch=2 n=b2 v=31
108003 On ch=2 n=b3 v=31
108046 Par ch=2 c=7 v=33
108101 Par ch=2 c=7 v=34
108123 Off ch=2 n=b3 v=64
108123 Off ch=2 n=b2 v=64
108123 On ch=2 n=g#2 v=32
108123 On ch=2 n=g#3 v=32
108156 Par ch=2 c=7 v=35
108210 Par ch=2 c=7 v=36
108240 Off ch=2 n=g#3 v=64
108240 Off ch=2 n=g#2 v=64
108265 Par ch=2 c=7 v=37
108320 Par ch=2 c=7 v=38
108375 Par ch=2 c=7 v=39
108430 Par ch=2 c=7 v=40
108483 On ch=2 n=d3 v=34
108483 On ch=2 n=d4 v=34
108485 Par ch=2 c=7 v=41
108539 Par ch=2 c=7 v=42
108594 Par ch=2 c=7 v=43
108603 Off ch=2 n=d4 v=64
108603 Off ch=2 n=d3 v=64
108603 On ch=2 n=g#2 v=35
108603 On ch=2 n=g#3 v=35
108649 Par ch=2 c=7 v=44
108704 Par ch=2 c=7 v=45
108720 Off ch=2 n=g#3 v=64
108720 Off ch=2 n=g#2 v=64
108759 Par ch=2 c=7 v=46
108814 Par ch=2 c=7 v=47
108843 On ch=2 n=a2 v=37
108843 On ch=2 n=a3 v=37
108868 Par ch=2 c=7 v=48
108923 Par ch=2 c=7 v=49
108963 Off ch=2 n=a3 v=64
108963 Off ch=2 n=a2 v=64
108963 On ch=2 n=b2 v=38
108963 On ch=2 n=b3 v=38
108978 Par ch=2 c=7 v=50
109033 Par ch=2 c=7 v=51
109083 Off ch=2 n=b3 v=64
109083 Off ch=2 n=b2 v=64
109083 On ch=2 n=g#2 v=39
109083 On ch=2 n=g#3 v=39
109088 Par ch=2 c=7 v=52
109143 Par ch=2 c=7 v=53
109196 Par ch=2 c=7 v=54
109200 Off ch=2 n=g#3 v=64
109200 Off ch=2 n=g#2 v=64
109251 Par ch=2 c=7 v=55
109306 Par ch=2 c=7 v=56
109361 Par ch=2 c=7 v=57
109416 Par ch=2 c=7 v=58
109443 On ch=2 n=d3 v=41
109443 On ch=2 n=d4 v=41
109470 Par ch=2 c=7 v=59
109525 Par ch=2 c=7 v=60
109563 Off ch=2 n=d4 v=64
109563 Off ch=2 n=d3 v=64
109563 On ch=2 n=g#2 v=42
109563 On ch=2 n=g#3 v=42
109580 Par ch=2 c=7 v=61
109635 Par ch=2 c=7 v=62
109680 Off ch=2 n=g#3 v=64
109680 Off ch=2 n=g#2 v=64
109690 Par ch=2 c=7 v=63
109745 Par ch=2 c=7 v=64
109799 Par ch=2 c=7 v=65
109803 On ch=2 n=a2 v=44
109803 On ch=2 n=a3 v=44
109854 Par ch=2 c=7 v=66
109909 Par ch=2 c=7 v=67
109923 Off ch=2 n=a3 v=64
109923 Off ch=2 n=a2 v=64
109923 On ch=2 n=b2 v=45
109923 On ch=2 n=b3 v=45
109964 Par ch=2 c=7 v=68
110019 Par ch=2 c=7 v=69
110043 Off ch=2 n=b3 v=64
110043 Off ch=2 n=b2 v=64
110043 On ch=2 n=b3 v=46
110043 On ch=2 n=b4 v=46
110074 Par ch=2 c=7 v=70
110128 Par ch=2 c=7 v=71
110160 Off ch=2 n=b4 v=64
110160 Off ch=2 n=b3 v=64
110183 Par ch=2 c=7 v=72
110238 Par ch=2 c=7 v=73
110293 Par ch=2 c=7 v=74
110348 Par ch=2 c=7 v=75
110403 Par ch=2 c=7 v=76
110403 Par ch=2 c=64 v=127
110403 On ch=2 n=g#4 v=76
110455 Par ch=2 c=7 v=77
110509 Par ch=2 c=7 v=78
110563 Par ch=2 c=7 v=79
110615 Par ch=2 c=7 v=80
110669 Par ch=2 c=7 v=81
110723 Par ch=2 c=7 v=82
110775 Par ch=2 c=7 v=83
110823 Off ch=2 n=g#4 v=64
110829 Par ch=2 c=7 v=84
110883 Par ch=2 c=7 v=85
110883 On ch=2 n=e3 v=77
110935 Par ch=2 c=7 v=86
110989 Par ch=2 c=7 v=87
111043 Par ch=2 c=7 v=88
111095 Par ch=2 c=7 v=89
111149 Par ch=2 c=7 v=90
111203 Par ch=2 c=7 v=91
111255 Par ch=2 c=7 v=92
111303 Off ch=2 n=e3 v=64
111309 Par ch=2 c=7 v=93
111363 Par ch=2 c=64 v=0
111363 Par ch=2 c=7 v=94
111363 On ch=2 n=a3 v=94
111363 On ch=2 n=e4 v=94
111363 On ch=2 n=a4 v=94
111394 Par ch=2 c=7 v=93
111426 Par ch=2 c=7 v=92
111458 Par ch=2 c=7 v=91
111490 Par ch=2 c=7 v=90
111523 Par ch=2 c=7 v=89
111554 Par ch=2 c=7 v=88
111586 Par ch=2 c=7 v=87
111618 Par ch=2 c=7 v=86
111650 Par ch=2 c=7 v=85
111683 Par ch=2 c=7 v=84
111714 Par ch=2 c=7 v=83
111746 Par ch=2 c=7 v=82
111778 Par ch=2 c=7 v=81
111783 Off ch=2 n=e4 v=64
111810 Par ch=2 c=7 v=80
111843 On ch=2 n=f4 v=93
111843 Par ch=2 c=7 v=79
111874 Par ch=2 c=7 v=78
111906 Par ch=2 c=7 v=77
111938 Par ch=2 c=7 v=76
111970 Par ch=2 c=7 v=75
112003 Par ch=2 c=7 v=74
112034 Par ch=2 c=7 v=73
112066 Par ch=2 c=7 v=72
112098 Par ch=2 c=7 v=71
112130 Par ch=2 c=7 v=70
112163 Par ch=2 c=7 v=69
112194 Par ch=2 c=7 v=68
112226 Par ch=2 c=7 v=67
112258 Par ch=2 c=7 v=66
112263 Off ch=2 n=a4 v=64
112263 Off ch=2 n=a3 v=64
112290 Par ch=2 c=7 v=65
112323 Par ch=2 c=7 v=64
112323 Par ch=2 c=64 v=127
112323 On ch=2 n=a2 v=64
112323 On ch=2 n=a3 v=64
112440 Off ch=2 n=a3 v=64
112440 Off ch=2 n=a2 v=64
112443 On ch=2 n=f2 v=64
112443 On ch=2 n=f3 v=64
112560 Off ch=2 n=f3 v=64
112560 Off ch=2 n=f2 v=64
112683 Par ch=2 c=64 v=0
112683 On ch=2 n=g2 v=64
112683 On ch=2 n=g3 v=64
112803 Off ch=2 n=g3 v=64
112803 Off ch=2 n=g2 v=64
112803 On ch=2 n=a2 v=64
112803 On ch=2 n=a3 v=64
112923 Off ch=2 n=a3 v=64
112923 Off ch=2 n=a2 v=64
112923 On ch=2 n=f2 v=64
112923 On ch=2 n=f3 v=64
113040 Off ch=2 n=f3 v=64
113040 Off ch=2 n=f2 v=64
113223 Off ch=2 n=f4 v=64
113283 On ch=2 n=a3 v=64
113283 On ch=2 n=f4 v=64
113703 Off ch=2 n=f4 v=64
113763 On ch=2 n=f#4 v=65
114183 Off ch=2 n=f#4 v=64
114183 Off ch=2 n=a3 v=64
114243 On ch=2 n=a#3 v=66
114243 On ch=2 n=f#4 v=66
114663 Off ch=2 n=f#4 v=64
114723 On ch=2 n=g4 v=67
115143 Off ch=2 n=g4 v=64
115143 Off ch=2 n=a#3 v=64
115203 On ch=2 n=b2 v=92
115203 On ch=2 n=b3 v=92
115323 Off ch=2 n=b3 v=64
115323 Off ch=2 n=b2 v=64
115323 On ch=2 n=g2 v=92
115323 On ch=2 n=g3 v=92
115440 Off ch=2 n=g3 v=64
115440 Off ch=2 n=g2 v=64
115563 On ch=2 n=a2 v=92
115563 On ch=2 n=a3 v=92
115683 Off ch=2 n=a3 v=64
115683 Off ch=2 n=a2 v=64
115683 On ch=2 n=b2 v=92
115683 On ch=2 n=b3 v=92
115803 Off ch=2 n=b3 v=64
115803 Off ch=2 n=b2 v=64
115803 On ch=2 n=g2 v=92
115803 On ch=2 n=g3 v=92
115920 Off ch=2 n=g3 v=64
115920 Off ch=2 n=g2 v=64
116163 On ch=2 n=c3 v=92
116163 On ch=2 n=c4 v=92
116283 Off ch=2 n=c4 v=64
116283 Off ch=2 n=c3 v=64
116283 On ch=2 n=g2 v=92
116283 On ch=2 n=g3 v=92
116400 Off ch=2 n=g3 v=64
116400 Off ch=2 n=g2 v=64
116523 On ch=2 n=c3 v=92
116523 On ch=2 n=c4 v=92
116643 Off ch=2 n=c4 v=64
116643 Off ch=2 n=c3 v=64
116643 On ch=2 n=d3 v=92
116643 On ch=2 n=d4 v=92
116763 Off ch=2 n=d4 v=64
116763 Off ch=2 n=d3 v=64
116763 On ch=2 n=g2 v=92
116763 On ch=2 n=g3 v=92
116880 Off ch=2 n=g3 v=64
116880 Off ch=2 n=g2 v=64
117123 On ch=2 n=d#3 v=92
117123 On ch=2 n=d#4 v=92
117243 Off ch=2 n=d#4 v=64
117243 Off ch=2 n=d#3 v=64
117243 On ch=2 n=g2 v=92
117243 On ch=2 n=g3 v=92
117360 Off ch=2 n=g3 v=64
117360 Off ch=2 n=g2 v=64
117483 On ch=2 n=d3 v=92
117483 On ch=2 n=d4 v=92
117603 Off ch=2 n=d4 v=64
117603 Off ch=2 n=d3 v=64
117603 On ch=2 n=d#3 v=92
117603 On ch=2 n=d#4 v=92
117723 Off ch=2 n=d#4 v=64
117723 Off ch=2 n=d#3 v=64
117723 On ch=2 n=g#3 v=92
117723 On ch=2 n=g#4 v=92
117840 Off ch=2 n=g#4 v=64
117840 Off ch=2 n=g#3 v=64
118083 On ch=2 n=f3 v=92
118083 On ch=2 n=f4 v=92
118203 Off ch=2 n=f4 v=64
118203 Off ch=2 n=f3 v=64
118203 On ch=2 n=d3 v=92
118203 On ch=2 n=d4 v=92
118320 Off ch=2 n=d4 v=64
118320 Off ch=2 n=d3 v=64
118443 On ch=2 n=d#3 v=92
118443 On ch=2 n=d#4 v=92
118563 Off ch=2 n=d#4 v=64
118563 Off ch=2 n=d#3 v=64
118563 On ch=2 n=f3 v=92
118563 On ch=2 n=f4 v=92
118683 Off ch=2 n=f4 v=64
118683 Off ch=2 n=f3 v=64
118683 On ch=2 n=d4 v=92
118683 On ch=2 n=d5 v=92
118800 Off ch=2 n=d5 v=64
118800 Off ch=2 n=d4 v=64
119043 On ch=2 n=e3 v=92
119200 Off ch=2 n=e3 v=64
119203 On ch=2 n=a3 v=93
119363 On ch=2 n=g4 v=94
119520 Off ch=2 n=g4 v=64
119520 Off ch=2 n=a3 v=64
119523 On ch=2 n=f#4 v=95
119680 Off ch=2 n=f#4 v=64
119683 On ch=2 n=a3 v=96
119840 Off ch=2 n=a3 v=64
119843 On ch=2 n=d3 v=97
120000 Off ch=2 n=d3 v=64
120003 On ch=2 n=f3 v=98
120163 Off ch=2 n=f3 v=64
120163 On ch=2 n=b3 v=99
120323 On ch=2 n=a4 v=100
120483 Off ch=2 n=a4 v=64
120483 Off ch=2 n=b3 v=64
120483 On ch=2 n=g#4 v=101
120643 Off ch=2 n=g#4 v=64
120643 On ch=2 n=b3 v=102
120803 Off ch=2 n=b3 v=64
120803 On ch=2 n=e3 v=103
120960 Off ch=2 n=e3 v=64
120963 On ch=2 n=g3 v=104
121123 Off ch=2 n=g3 v=64
121123 On ch=2 n=c#4 v=105
121283 Off ch=2 n=c#4 v=64
121283 On ch=2 n=b4 v=106
121440 Off ch=2 n=b4 v=64
121443 On ch=2 n=f#3 v=107
121603 Off ch=2 n=f#3 v=64
121603 On ch=2 n=c#4 v=108
121763 Off ch=2 n=c#4 v=64
121763 On ch=2 n=a#4 v=109
121920 Off ch=2 n=a#4 v=64
121923 On ch=2 n=f#3 v=110
122083 Off ch=2 n=f#3 v=64
122083 On ch=2 n=e4 v=111
122243 Off ch=2 n=e4 v=64
122243 On ch=2 n=c#5 v=112
122400 Off ch=2 n=c#5 v=64
122403 On ch=2 n=g#3 v=113
122563 Off ch=2 n=g#3 v=64
122563 On ch=2 n=e4 v=114
122723 Off ch=2 n=e4 v=64
122723 On ch=2 n=c#5 v=115
122880 Off ch=2 n=c#5 v=64
122883 Par ch=2 c=7 v=112
122883 Par ch=2 c=7 v=94
122883 On ch=2 n=g#2 v=94
122883 On ch=2 n=g#3 v=94
123003 Off ch=2 n=g#3 v=64
123003 Off ch=2 n=g#2 v=64
123003 On ch=2 n=e2 v=94
123003 On ch=2 n=e3 v=94
123120 Off ch=2 n=e3 v=64
123120 Off ch=2 n=e2 v=64
123243 On ch=2 n=f#2 v=94
123243 On ch=2 n=f#3 v=94
123363 Off ch=2 n=f#3 v=64
123363 Off ch=2 n=f#2 v=64
123363 On ch=2 n=g#2 v=94
123363 On ch=2 n=g#3 v=94
123483 Off ch=2 n=g#3 v=64
123483 Off ch=2 n=g#2 v=64
123483 On ch=2 n=e2 v=94
123483 On ch=2 n=e3 v=94
123600 Off ch=2 n=e3 v=64
123600 Off ch=2 n=e2 v=64
123843 On ch=2 n=g#2 v=94
123843 On ch=2 n=g#3 v=94
123963 Off ch=2 n=g#3 v=64
123963 Off ch=2 n=g#2 v=64
123963 On ch=2 n=f2 v=94
123963 On ch=2 n=f3 v=94
124083 Off ch=2 n=f3 v=64
124083 Off ch=2 n=f2 v=64
124203 On ch=2 n=g2 v=94
124203 On ch=2 n=g3 v=94
124323 Off ch=2 n=g3 v=64
124323 Off ch=2 n=g2 v=64
124323 On ch=2 n=g#2 v=94
124323 On ch=2 n=g#3 v=94
124443 Off ch=2 n=g#3 v=64
124443 Off ch=2 n=g#2 v=64
124443 On ch=2 n=f2 v=94
124443 On ch=2 n=f3 v=94
124560 Off ch=2 n=f3 v=64
124560 Off ch=2 n=f2 v=64
124803 On ch=2 n=a#2 v=94
124803 On ch=2 n=a#3 v=94
124923 Off ch=2 n=a#3 v=64
124923 Off ch=2 n=a#2 v=64
124923 On ch=2 n=g2 v=94
124923 On ch=2 n=g3 v=94
125040 Off ch=2 n=g3 v=64
125040 Off ch=2 n=g2 v=64
125163 On ch=2 n=g#2 v=94
125163 On ch=2 n=g#3 v=94
125280 Off ch=2 n=g#3 v=64
125280 Off ch=2 n=g#2 v=64
125283 On ch=2 n=a#2 v=94
125283 On ch=2 n=a#3 v=94
125400 Off ch=2 n=a#3 v=64
125400 Off ch=2 n=a#2 v=64
125403 On ch=2 n=g3 v=94
125403 On ch=2 n=g4 v=94
125520 Off ch=2 n=g4 v=64
125520 Off ch=2 n=g3 v=64
125763 On ch=2 n=c3 v=94
125763 On ch=2 n=c4 v=94
125883 Off ch=2 n=c4 v=64
125883 Off ch=2 n=c3 v=64
125883 On ch=2 n=g2 v=94
125883 On ch=2 n=g3 v=94
126000 Off ch=2 n=g3 v=64
126000 Off ch=2 n=g2 v=64
126123 On ch=2 n=g#2 v=94
126123 On ch=2 n=g#3 v=94
126243 Off ch=2 n=g#3 v=64
126243 Off ch=2 n=g#2 v=64
126243 On ch=2 n=a#2 v=94
126243 On ch=2 n=a#3 v=94
126363 Off ch=2 n=a#3 v=64
126363 Off ch=2 n=a#2 v=64
126363 On ch=2 n=g3 v=94
126363 On ch=2 n=g4 v=94
126480 Off ch=2 n=g4 v=64
126480 Off ch=2 n=g3 v=64
126723 On ch=2 n=d#3 v=94
126883 Off ch=2 n=d#3 v=64
126883 On ch=2 n=b3 v=95
126923 Par ch=2 c=7 v=95
127043 On ch=2 n=a4 v=96
127123 Par ch=2 c=7 v=96
127203 Off ch=2 n=a4 v=64
127203 Off ch=2 n=b3 v=64
127203 On ch=2 n=g#4 v=97
127323 Par ch=2 c=7 v=97
127363 Off ch=2 n=g#4 v=64
127363 On ch=2 n=b3 v=98
127523 Off ch=2 n=b3 v=64
127523 On ch=2 n=e3 v=99
127523 Par ch=2 c=7 v=98
127680 Off ch=2 n=e3 v=64
127683 On ch=2 n=f3 v=100
127723 Par ch=2 c=7 v=99
127840 Off ch=2 n=f3 v=64
127843 On ch=2 n=c#4 v=101
127923 Par ch=2 c=7 v=100
128003 On ch=2 n=b4 v=102
128123 Par ch=2 c=7 v=101
128160 Off ch=2 n=b4 v=64
128160 Off ch=2 n=c#4 v=64
128163 On ch=2 n=a#4 v=103
128320 Off ch=2 n=a#4 v=64
128323 Par ch=2 c=7 v=102
128323 On ch=2 n=c#4 v=104
128480 Off ch=2 n=c#4 v=64
128483 On ch=2 n=f#3 v=105
128523 Par ch=2 c=7 v=103
128640 Off ch=2 n=f#3 v=64
128643 On ch=2 n=g3 v=106
128720 Off ch=2 n=g3 v=64
128723 Par ch=2 c=7 v=104
128723 On ch=2 n=d#4 v=107
128803 On ch=2 n=c#5 v=108
128880 Off ch=2 n=c#5 v=64
128880 Off ch=2 n=d#4 v=64
128883 Par ch=2 c=64 v=127
128883 On ch=2 n=g#3 v=109
128923 Par ch=2 c=7 v=105
129040 Off ch=2 n=g#3 v=64
129043 On ch=2 n=d#4 v=110
129123 Par ch=2 c=7 v=106
129200 Off ch=2 n=d#4 v=64
129203 On ch=2 n=c5 v=111
129323 Par ch=2 c=7 v=107
129360 Off ch=2 n=c5 v=64
129363 Par ch=2 c=64 v=0
129363 Par ch=2 c=64 v=127
129363 On ch=2 n=a3 v=112
129520 Off ch=2 n=a3 v=64
129523 On ch=2 n=f#4 v=113
129523 Par ch=2 c=7 v=108
129680 Off ch=2 n=f#4 v=64
129683 On ch=2 n=d#5 v=114
129723 Par ch=2 c=7 v=109
129840 Off ch=2 n=d#5 v=64
129843 Par ch=2 c=64 v=0
129843 Par ch=2 c=64 v=127
129843 On ch=2 n=c4 v=115
129923 Par ch=2 c=7 v=110
130000 Off ch=2 n=c4 v=64
130003 On ch=2 n=f#4 v=116
130123 Par ch=2 c=7 v=111
130160 Off ch=2 n=f#4 v=64
130163 On ch=2 n=d5 v=117
130320 Off ch=2 n=d5 v=64
130323 Par ch=2 c=7 v=112
130323 Par ch=2 c=64 v=0
130323 Par ch=2 c=64 v=127
130323 On ch=2 n=a#2 v=127
130323 On ch=2 n=a#3 v=127
130480 Off ch=2 n=a#3 v=64
130480 Off ch=2 n=a#2 v=64
130483 On ch=2 n=a#4 v=112
130483 On ch=2 n=d4 v=112
130640 Off ch=2 n=d4 v=64
130640 Off ch=2 n=a#4 v=64
130643 On ch=2 n=g4 v=112
130643 On ch=2 n=d5 v=112
130800 Off ch=2 n=d5 v=64
130800 Off ch=2 n=g4 v=64
130803 Par ch=2 c=64 v=0
130803 Par ch=2 c=64 v=127
130803 On ch=2 n=a#4 v=112
130803 On ch=2 n=g5 v=112
130963 Off ch=2 n=g5 v=64
130963 Off ch=2 n=a#4 v=64
130963 On ch=2 n=g4 v=112
130963 On ch=2 n=d5 v=112
131123 Off ch=2 n=d5 v=64
131123 Off ch=2 n=g4 v=64
131123 On ch=2 n=d2 v=112
131123 On ch=2 n=d3 v=112
131280 Off ch=2 n=d3 v=64
131280 Off ch=2 n=d2 v=64
131283 Par ch=2 c=64 v=0
131283 Par ch=2 c=64 v=127
131283 On ch=2 n=d2 v=127
131283 On ch=2 n=d3 v=127
131440 Off ch=2 n=d3 v=64
131440 Off ch=2 n=d2 v=64
131443 On ch=2 n=a#4 v=112
131443 On ch=2 n=d4 v=112
131603 Off ch=2 n=d4 v=64
131603 Off ch=2 n=a#4 v=64
131603 On ch=2 n=g4 v=112
131603 On ch=2 n=d5 v=112
131760 Off ch=2 n=d5 v=64
131760 Off ch=2 n=g4 v=64
131763 On ch=2 n=a#4 v=112
131763 On ch=2 n=g5 v=112
131923 Off ch=2 n=g5 v=64
131923 Off ch=2 n=a#4 v=64
131923 On ch=2 n=g4 v=112
131923 On ch=2 n=d5 v=112
132083 Off ch=2 n=d5 v=64
132083 Off ch=2 n=g4 v=64
132083 On ch=2 n=d4 v=112
132083 On ch=2 n=a#4 v=112
132240 Off ch=2 n=a#4 v=64
132240 Off ch=2 n=d4 v=64
132243 Par ch=2 c=64 v=0
132243 Par ch=2 c=64 v=127
132243 On ch=2 n=a#3 v=112
132243 On ch=2 n=a#4 v=112
132403 Off ch=2 n=a#4 v=64
132403 Off ch=2 n=a#3 v=64
132403 On ch=2 n=c#5 v=112
132403 On ch=2 n=f4 v=112
132563 Off ch=2 n=f4 v=64
132563 Off ch=2 n=c#5 v=64
132563 On ch=2 n=a#4 v=112
132563 On ch=2 n=f5 v=112
132720 Off ch=2 n=f5 v=64
132720 Off ch=2 n=a#4 v=64
132723 On ch=2 n=c#5 v=112
132723 On ch=2 n=a#5 v=112
132883 Off ch=2 n=a#5 v=64
132883 Off ch=2 n=c#5 v=64
132883 On ch=2 n=a#4 v=112
132883 On ch=2 n=f5 v=112
133043 Off ch=2 n=f5 v=64
133043 Off ch=2 n=a#4 v=64
133043 On ch=2 n=c#3 v=112
133043 On ch=2 n=c#4 v=112
133200 Off ch=2 n=c#4 v=64
133200 Off ch=2 n=c#3 v=64
133203 Par ch=2 c=64 v=0
133203 Par ch=2 c=64 v=127
133203 On ch=2 n=c#3 v=127
133203 On ch=2 n=c#4 v=127
133363 Off ch=2 n=c#4 v=64
133363 Off ch=2 n=c#3 v=64
133363 On ch=2 n=c#5 v=112
133363 On ch=2 n=f4 v=112
133523 Off ch=2 n=f4 v=64
133523 Off ch=2 n=c#5 v=64
133523 On ch=2 n=a#4 v=112
133523 On ch=2 n=f5 v=112
133680 Off ch=2 n=f5 v=64
133680 Off ch=2 n=a#4 v=64
133683 On ch=2 n=c#5 v=112
133683 On ch=2 n=a#5 v=112
133843 Off ch=2 n=a#5 v=64
133843 Off ch=2 n=c#5 v=64
133843 On ch=2 n=a#4 v=112
133843 On ch=2 n=f5 v=112
134003 Off ch=2 n=f5 v=64
134003 Off ch=2 n=a#4 v=64
134003 On ch=2 n=f4 v=112
134003 On ch=2 n=c#5 v=112
134160 Off ch=2 n=c#5 v=64
134160 Off ch=2 n=f4 v=64
134163 Par ch=2 c=64 v=0
134163 Par ch=2 c=64 v=127
134163 On ch=2 n=g#2 v=127
134163 On ch=2 n=g#3 v=127
134323 Off ch=2 n=g#3 v=64
134323 Off ch=2 n=g#2 v=64
134323 On ch=2 n=c5 v=112
134323 On ch=2 n=f4 v=112
134483 Off ch=2 n=f4 v=64
134483 Off ch=2 n=c5 v=64
134483 On ch=2 n=g#4 v=112
134483 On ch=2 n=f5 v=112
134640 Off ch=2 n=f5 v=64
134640 Off ch=2 n=g#4 v=64
134643 On ch=2 n=c5 v=112
134643 On ch=2 n=g#5 v=112
134803 Off ch=2 n=g#5 v=64
134803 Off ch=2 n=c5 v=64
134803 On ch=2 n=g#4 v=112
134803 On ch=2 n=f5 v=112
134963 Off ch=2 n=f5 v=64
134963 Off ch=2 n=g#4 v=64
135043 On ch=2 n=c2 v=112
135043 On ch=2 n=c3 v=112
135120 Off ch=2 n=c3 v=64
135120 Off ch=2 n=c2 v=64
135123 On ch=2 n=c2 v=127
135123 On ch=2 n=c3 v=127
135283 Off ch=2 n=c3 v=64
135283 Off ch=2 n=c2 v=64
135283 On ch=2 n=c5 v=112
135283 On ch=2 n=f4 v=112
135443 Off ch=2 n=f4 v=64
135443 Off ch=2 n=c5 v=64
135443 On ch=2 n=g#4 v=112
135443 On ch=2 n=f5 v=112
135600 Off ch=2 n=f5 v=64
135600 Off ch=2 n=g#4 v=64
135603 On ch=2 n=c5 v=112
135603 On ch=2 n=g#5 v=112
135763 Off ch=2 n=g#5 v=64
135763 Off ch=2 n=c5 v=64
135763 On ch=2 n=g#4 v=112
135763 On ch=2 n=f5 v=112
135923 Off ch=2 n=f5 v=64
135923 Off ch=2 n=g#4 v=64
135923 On ch=2 n=f4 v=112
135923 On ch=2 n=c5 v=112
136080 Off ch=2 n=c5 v=64
136080 Off ch=2 n=f4 v=64
136083 Par ch=2 c=64 v=0
136083 Par ch=2 c=64 v=127
136083 On ch=2 n=g#3 v=127
136083 On ch=2 n=g#4 v=127
136243 Off ch=2 n=g#4 v=64
136243 Off ch=2 n=g#3 v=64
136243 On ch=2 n=c5 v=112
136243 On ch=2 n=e4 v=112
136403 Off ch=2 n=e4 v=64
136403 Off ch=2 n=c5 v=64
136403 On ch=2 n=g#4 v=112
136403 On ch=2 n=e5 v=112
136560 Off ch=2 n=e5 v=64
136560 Off ch=2 n=g#4 v=64
136563 On ch=2 n=c5 v=112
136563 On ch=2 n=g#5 v=112
136723 Off ch=2 n=g#5 v=64
136723 Off ch=2 n=c5 v=64
136723 On ch=2 n=g#4 v=112
136723 On ch=2 n=e5 v=112
136883 Off ch=2 n=e5 v=64
136883 Off ch=2 n=g#4 v=64
136963 On ch=2 n=c3 v=112
136963 On ch=2 n=c4 v=112
137040 Off ch=2 n=c4 v=64
137040 Off ch=2 n=c3 v=64
137043 Par ch=2 c=64 v=0
137043 On ch=2 n=c3 v=127
137043 On ch=2 n=c4 v=127
137200 Off ch=2 n=c4 v=64
137200 Off ch=2 n=c3 v=64
137203 On ch=2 n=c5 v=112
137203 On ch=2 n=e4 v=112
137360 Off ch=2 n=e4 v=64
137360 Off ch=2 n=c5 v=64
137363 On ch=2 n=g#4 v=112
137363 On ch=2 n=e5 v=112
137520 Off ch=2 n=e5 v=64
137520 Off ch=2 n=g#4 v=64
137523 On ch=2 n=c5 v=112
137523 On ch=2 n=g#5 v=112
137683 Off ch=2 n=g#5 v=64
137683 Off ch=2 n=c5 v=64
137683 On ch=2 n=g#4 v=112
137683 On ch=2 n=e5 v=112
137843 Off ch=2 n=e5 v=64
137843 Off ch=2 n=g#4 v=64
137843 On ch=2 n=e4 v=112
137843 On ch=2 n=c5 v=112
138000 Off ch=2 n=c5 v=64
138000 Off ch=2 n=e4 v=64
138003 Par ch=2 c=64 v=0
138003 Par ch=2 c=64 v=127
138003 On ch=2 n=f#3 v=127
138003 On ch=2 n=g4 v=127
138163 Off ch=2 n=g4 v=64
138163 Off ch=2 n=f#3 v=64
138163 On ch=2 n=e5 v=112
138163 On ch=2 n=g4 v=112
138323 Off ch=2 n=g4 v=64
138323 Off ch=2 n=e5 v=64
138323 On ch=2 n=b4 v=112
138323 On ch=2 n=g5 v=112
138480 Off ch=2 n=g5 v=64
138480 Off ch=2 n=b4 v=64
138483 On ch=2 n=e5 v=112
138483 On ch=2 n=b5 v=112
138643 Off ch=2 n=b5 v=64
138643 Off ch=2 n=e5 v=64
138643 On ch=2 n=b4 v=112
138643 On ch=2 n=g5 v=112
138803 Off ch=2 n=g5 v=64
138803 Off ch=2 n=b4 v=64
138883 On ch=2 n=b3 v=112
138883 On ch=2 n=b4 v=112
138960 Off ch=2 n=b4 v=64
138960 Off ch=2 n=b3 v=64
138963 On ch=2 n=b3 v=112
138963 On ch=2 n=b4 v=112
139120 Off ch=2 n=b4 v=64
139120 Off ch=2 n=b3 v=64
139123 On ch=2 n=e5 v=112
139123 On ch=2 n=g4 v=112
139280 Off ch=2 n=g4 v=64
139280 Off ch=2 n=e5 v=64
139283 On ch=2 n=b4 v=112
139283 On ch=2 n=g5 v=112
139440 Off ch=2 n=g5 v=64
139440 Off ch=2 n=b4 v=64
139443 On ch=2 n=e5 v=112
139443 On ch=2 n=b5 v=112
139603 Off ch=2 n=b5 v=64
139603 Off ch=2 n=e5 v=64
139603 On ch=2 n=b4 v=112
139603 On ch=2 n=g5 v=112
139763 Off ch=2 n=g5 v=64
139763 Off ch=2 n=b4 v=64
139763 On ch=2 n=g4 v=112
139763 On ch=2 n=e5 v=112
139920 Off ch=2 n=e5 v=64
139920 Off ch=2 n=g4 v=64
139923 Par ch=2 c=64 v=0
139923 Par ch=2 c=64 v=127
139923 On ch=2 n=g3 v=127
139923 On ch=2 n=g4 v=127
140080 Off ch=2 n=g4 v=64
140080 Off ch=2 n=g3 v=64
140083 On ch=2 n=b4 v=112
140083 On ch=2 n=d4 v=112
140240 Off ch=2 n=d4 v=64
140240 Off ch=2 n=b4 v=64
140243 On ch=2 n=g4 v=112
140243 On ch=2 n=d5 v=112
140400 Off ch=2 n=d5 v=64
140400 Off ch=2 n=g4 v=64
140403 On ch=2 n=b4 v=112
140403 On ch=2 n=g5 v=112
140560 Off ch=2 n=g5 v=64
140560 Off ch=2 n=b4 v=64
140563 On ch=2 n=g4 v=112
140563 On ch=2 n=d5 v=112
140720 Off ch=2 n=d5 v=64
140720 Off ch=2 n=g4 v=64
140803 On ch=2 n=g2 v=112
140803 On ch=2 n=g3 v=112
140880 Off ch=2 n=g3 v=64
140880 Off ch=2 n=g2 v=64
140883 Par ch=2 c=64 v=0
140883 Par ch=2 c=64 v=127
140883 On ch=2 n=g2 v=127
140883 On ch=2 n=g3 v=127
141043 Off ch=2 n=g3 v=64
141043 Off ch=2 n=g2 v=64
141043 On ch=2 n=b4 v=112
141043 On ch=2 n=d4 v=112
141203 Off ch=2 n=d4 v=64
141203 Off ch=2 n=b4 v=64
141203 On ch=2 n=g4 v=112
141203 On ch=2 n=d5 v=112
141360 Off ch=2 n=d5 v=64
141360 Off ch=2 n=g4 v=64
141363 On ch=2 n=b4 v=112
141363 On ch=2 n=g5 v=112
141523 Off ch=2 n=g5 v=64
141523 Off ch=2 n=b4 v=64
141523 On ch=2 n=g4 v=112
141523 On ch=2 n=d5 v=112
141683 Off ch=2 n=d5 v=64
141683 Off ch=2 n=g4 v=64
141683 On ch=2 n=d4 v=112
141683 On ch=2 n=b4 v=112
141840 Off ch=2 n=b4 v=64
141840 Off ch=2 n=d4 v=64
141843 Par ch=2 c=64 v=0
141843 Par ch=2 c=64 v=127
141843 On ch=2 n=f#3 v=112
141843 On ch=2 n=f#4 v=112
142003 Off ch=2 n=f#4 v=64
142003 Off ch=2 n=f#3 v=64
142003 On ch=2 n=a4 v=112
142003 On ch=2 n=d4 v=112
142163 Off ch=2 n=d4 v=64
142163 Off ch=2 n=a4 v=64
142163 On ch=2 n=f#4 v=112
142163 On ch=2 n=d5 v=112
142320 Off ch=2 n=d5 v=64
142320 Off ch=2 n=f#4 v=64
142323 On ch=2 n=a4 v=112
142323 On ch=2 n=f#5 v=112
142483 Off ch=2 n=f#5 v=64
142483 Off ch=2 n=a4 v=64
142483 On ch=2 n=f#4 v=112
142483 On ch=2 n=d5 v=112
142643 Off ch=2 n=d5 v=64
142643 Off ch=2 n=f#4 v=64
142643 On ch=2 n=d4 v=112
142643 On ch=2 n=a4 v=112
142800 Off ch=2 n=a4 v=64
142800 Off ch=2 n=d4 v=64
142803 Par ch=2 c=64 v=0
142803 Par ch=2 c=64 v=127
142803 On ch=2 n=f3 v=127
142803 On ch=2 n=f4 v=127
142960 Off ch=2 n=f4 v=64
142960 Off ch=2 n=f3 v=64
142963 On ch=2 n=a4 v=112
142963 On ch=2 n=d4 v=112
143120 Off ch=2 n=d4 v=64
143120 Off ch=2 n=a4 v=64
143123 On ch=2 n=f4 v=112
143123 On ch=2 n=d5 v=112
143280 Off ch=2 n=d5 v=64
143280 Off ch=2 n=f4 v=64
143283 On ch=2 n=a4 v=112
143283 On ch=2 n=f5 v=112
143440 Off ch=2 n=f5 v=64
143440 Off ch=2 n=a4 v=64
143443 On ch=2 n=f4 v=112
143443 On ch=2 n=d5 v=112
143600 Off ch=2 n=d5 v=64
143600 Off ch=2 n=f4 v=64
143603 On ch=2 n=d4 v=112
143603 On ch=2 n=a4 v=112
143760 Off ch=2 n=a4 v=64
143760 Off ch=2 n=d4 v=64
143763 Par ch=2 c=64 v=0
143763 Par ch=2 c=64 v=127
143763 On ch=2 n=f3 v=127
143763 On ch=2 n=f4 v=127
143920 Off ch=2 n=f4 v=64
143920 Off ch=2 n=f3 v=64
143923 On ch=2 n=a4 v=112
143923 On ch=2 n=c4 v=112
144080 Off ch=2 n=c4 v=64
144080 Off ch=2 n=a4 v=64
144083 On ch=2 n=f4 v=112
144083 On ch=2 n=c5 v=112
144240 Off ch=2 n=c5 v=64
144240 Off ch=2 n=f4 v=64
144243 On ch=2 n=a4 v=112
144243 On ch=2 n=f5 v=112
144400 Off ch=2 n=f5 v=64
144400 Off ch=2 n=a4 v=64
144403 On ch=2 n=f4 v=112
144403 On ch=2 n=c5 v=112
144560 Off ch=2 n=c5 v=64
144560 Off ch=2 n=f4 v=64
144643 On ch=2 n=f2 v=112
144643 On ch=2 n=f3 v=112
144720 Off ch=2 n=f3 v=64
144720 Off ch=2 n=f2 v=64
144723 On ch=2 n=f2 v=127
144723 On ch=2 n=f3 v=127
144883 Off ch=2 n=f3 v=64
144883 Off ch=2 n=f2 v=64
144883 On ch=2 n=a4 v=112
144883 On ch=2 n=c4 v=112
145043 Off ch=2 n=c4 v=64
145043 Off ch=2 n=a4 v=64
145043 On ch=2 n=f4 v=112
145043 On ch=2 n=c5 v=112
145203 Off ch=2 n=c5 v=64
145203 Off ch=2 n=f4 v=64
145203 On ch=2 n=a4 v=112
145363 Off ch=2 n=a4 v=64
145363 On ch=2 n=f3 v=112
145523 Off ch=2 n=f3 v=64
145523 On ch=2 n=f2 v=112
145680 Off ch=2 n=f2 v=64
145683 Par ch=2 c=64 v=0
145683 Par ch=2 c=64 v=127
145683 On ch=2 n=d#2 v=112
145683 On ch=2 n=d#3 v=112
145883 Off ch=2 n=d#3 v=64
145883 Off ch=2 n=d#2 v=64
146163 On ch=2 n=d#3 v=112
146283 Off ch=2 n=d#3 v=64
146283 On ch=2 n=f#3 v=112
146403 Off ch=2 n=f#3 v=64
146403 On ch=2 n=f#4 v=112
146523 Off ch=2 n=f#4 v=64
146523 On ch=2 n=b3 v=112
146640 Off ch=2 n=b3 v=64
146643 On ch=2 n=f#3 v=112
146760 Off ch=2 n=f#3 v=64
146763 On ch=2 n=b3 v=112
146880 Off ch=2 n=b3 v=64
146883 On ch=2 n=b4 v=112
147000 Off ch=2 n=b4 v=64
147003 On ch=2 n=d#4 v=112
147120 Off ch=2 n=d#4 v=64
147123 On ch=2 n=b3 v=112
147240 Off ch=2 n=b3 v=64
147243 On ch=2 n=d#4 v=112
147360 Off ch=2 n=d#4 v=64
147363 On ch=2 n=d#5 v=112
147480 Off ch=2 n=d#5 v=64
147483 On ch=2 n=f#4 v=112
147600 Off ch=2 n=f#4 v=64
147603 On ch=2 n=d#4 v=112
147720 Off ch=2 n=d#4 v=64
147723 On ch=2 n=f#4 v=112
147840 Off ch=2 n=f#4 v=64
147843 On ch=2 n=f#5 v=112
147960 Off ch=2 n=f#5 v=64
147963 On ch=2 n=b4 v=112
148080 Off ch=2 n=b4 v=64
148083 On ch=2 n=f#4 v=112
148200 Off ch=2 n=f#4 v=64
148203 On ch=2 n=b4 v=112
148320 Off ch=2 n=b4 v=64
148323 On ch=2 n=d#6 v=112
148440 Off ch=2 n=d#6 v=64
148443 On ch=2 n=d#5 v=112
148560 Off ch=2 n=d#5 v=64
148563 Par ch=2 c=7 v=112
148563 On ch=2 n=b4 v=112
148680 Off ch=2 n=b4 v=64
148683 On ch=2 n=d#5 v=112
148800 Off ch=2 n=d#5 v=64
148803 On ch=2 n=d#6 v=112
148920 Off ch=2 n=d#6 v=64
148923 On ch=2 n=f#5 v=112
149040 Off ch=2 n=f#5 v=64
149043 Par ch=2 c=64 v=0
149043 Par ch=2 c=64 v=127
149043 On ch=2 n=e4 v=112
149163 Off ch=2 n=e4 v=64
149163 On ch=2 n=a#4 v=112
149283 Off ch=2 n=a#4 v=64
149283 On ch=2 n=g5 v=112
149403 Off ch=2 n=g5 v=64
149403 On ch=2 n=c#5 v=112
149520 Off ch=2 n=c#5 v=64
149523 Par ch=2 c=64 v=0
149523 Par ch=2 c=64 v=127
149523 On ch=2 n=d#4 v=112
149640 Off ch=2 n=d#4 v=64
149643 On ch=2 n=f#4 v=112
149760 Off ch=2 n=f#4 v=64
149763 On ch=2 n=f#5 v=112
149880 Off ch=2 n=f#5 v=64
149883 On ch=2 n=b4 v=112
150000 Off ch=2 n=b4 v=64
150003 Par ch=2 c=64 v=0
150003 Par ch=2 c=64 v=127
150003 On ch=2 n=d#3 v=112
150123 Off ch=2 n=d#3 v=64
150123 On ch=2 n=f#3 v=112
150243 Off ch=2 n=f#3 v=64
150243 On ch=2 n=f#4 v=112
150363 Off ch=2 n=f#4 v=64
150363 On ch=2 n=b3 v=112
150480 Off ch=2 n=b3 v=64
150483 Par ch=2 c=64 v=0
150483 On ch=2 n=f#3 v=112
150603 Off ch=2 n=f#3 v=64
150603 On ch=2 n=b3 v=112
150723 Off ch=2 n=b3 v=64
150723 On ch=2 n=b4 v=112
150843 Off ch=2 n=b4 v=64
150843 On ch=2 n=d#4 v=112
150963 Off ch=2 n=d#4 v=64
150963 On ch=2 n=b3 v=112
151083 Off ch=2 n=b3 v=64
151083 On ch=2 n=d#4 v=112
151203 Off ch=2 n=d#4 v=64
151203 On ch=2 n=d#5 v=112
151323 Off ch=2 n=d#5 v=64
151323 On ch=2 n=f#4 v=112
151443 Off ch=2 n=f#4 v=64
151443 On ch=2 n=d#4 v=112
151563 Off ch=2 n=d#4 v=64
151563 On ch=2 n=f#4 v=112
151683 Off ch=2 n=f#4 v=64
151683 On ch=2 n=f#5 v=112
151803 Off ch=2 n=f#5 v=64
151803 On ch=2 n=b4 v=112
151923 Off ch=2 n=b4 v=64
151923 On ch=2 n=f#4 v=112
152043 Off ch=2 n=f#4 v=64
152043 On ch=2 n=b4 v=112
152163 Off ch=2 n=b4 v=64
152163 On ch=2 n=b5 v=112
152280 Off ch=2 n=b5 v=64
152283 On ch=2 n=d#5 v=112
152400 Off ch=2 n=d#5 v=64
152403 On ch=2 n=b4 v=112
152520 Off ch=2 n=b4 v=64
152523 On ch=2 n=d#5 v=112
152640 Off ch=2 n=d#5 v=64
152643 On ch=2 n=d#6 v=112
152760 Off ch=2 n=d#6 v=64
152763 On ch=2 n=f#5 v=112
152880 Off ch=2 n=f#5 v=64
152883 Par ch=2 c=64 v=0
152883 Par ch=2 c=64 v=127
152883 On ch=2 n=e4 v=112
153003 Off ch=2 n=e4 v=64
153003 On ch=2 n=a#4 v=112
153123 Off ch=2 n=a#4 v=64
153123 On ch=2 n=g5 v=112
153243 Off ch=2 n=g5 v=64
153243 On ch=2 n=c#5 v=112
153360 Off ch=2 n=c#5 v=64
153363 Par ch=2 c=64 v=0
153363 Par ch=2 c=7 v=112
153363 Par ch=2 c=64 v=127
153363 On ch=2 n=f3 v=112
153520 Off ch=2 n=f3 v=64
153523 On ch=2 n=c4 v=112
153680 Off ch=2 n=c4 v=64
153683 On ch=2 n=c#4 v=112
153683 On ch=2 n=f#4 v=112
153840 Off ch=2 n=c#4 v=64
153843 Par ch=2 c=64 v=0
153843 Par ch=2 c=64 v=127
153843 On ch=2 n=c4 v=112
154000 Off ch=2 n=c4 v=64
154000 Off ch=2 n=f#4 v=64
154003 On ch=2 n=f3 v=112
154160 Off ch=2 n=f3 v=64
154163 On ch=2 n=d#4 v=112
154163 On ch=2 n=a#4 v=112
154320 Off ch=2 n=a#4 v=64
154323 Par ch=2 c=64 v=0
154323 Par ch=2 c=64 v=127
154323 On ch=2 n=a4 v=112
154480 Off ch=2 n=a4 v=64
154480 Off ch=2 n=d#4 v=64
154483 On ch=2 n=f3 v=112
154640 Off ch=2 n=f3 v=64
154643 On ch=2 n=c#4 v=112
154643 On ch=2 n=f#4 v=112
154800 Off ch=2 n=c#4 v=64
154803 Par ch=2 c=64 v=0
154803 Par ch=2 c=64 v=127
154803 On ch=2 n=c4 v=112
154960 Off ch=2 n=c4 v=64
154960 Off ch=2 n=f#4 v=64
154963 On ch=2 n=f3 v=112
155120 Off ch=2 n=f3 v=64
155123 On ch=2 n=d#4 v=112
155123 On ch=2 n=a#4 v=112
155280 Off ch=2 n=a#4 v=64
155283 Par ch=2 c=64 v=0
155283 Par ch=2 c=64 v=127
155283 On ch=2 n=a4 v=112
155440 Off ch=2 n=a4 v=64
155440 Off ch=2 n=d#4 v=64
155443 On ch=2 n=f3 v=112
155600 Off ch=2 n=f3 v=64
155603 On ch=2 n=a#4 v=127
155603 On ch=2 n=d#5 v=127
155760 Off ch=2 n=d#5 v=64
155760 Off ch=2 n=a#4 v=64
155763 Par ch=2 c=64 v=0
155763 Par ch=2 c=64 v=127
155763 On ch=2 n=a4 v=112
155763 On ch=2 n=d#5 v=112
155920 Off ch=2 n=d#5 v=64
155920 Off ch=2 n=a4 v=64
155923 On ch=2 n=f4 v=112
156080 Off ch=2 n=f4 v=64
156083 On ch=2 n=c#5 v=112
156083 On ch=2 n=f#5 v=112
156240 Off ch=2 n=c#5 v=64
156243 Par ch=2 c=64 v=0
156243 Par ch=2 c=64 v=127
156243 On ch=2 n=c5 v=112
156400 Off ch=2 n=c5 v=64
156400 Off ch=2 n=f#5 v=64
156403 On ch=2 n=f4 v=112
156560 Off ch=2 n=f4 v=64
156563 On ch=2 n=d#5 v=112
156563 On ch=2 n=a#5 v=112
156720 Off ch=2 n=a#5 v=64
156723 Par ch=2 c=64 v=0
156723 Par ch=2 c=64 v=127
156723 On ch=2 n=a5 v=112
156880 Off ch=2 n=a5 v=64
156880 Off ch=2 n=d#5 v=64
156883 On ch=2 n=f4 v=112
157040 Off ch=2 n=f4 v=64
157043 On ch=2 n=c#6 v=112
157043 On ch=2 n=f#6 v=112
157200 Off ch=2 n=c#6 v=64
157203 Par ch=2 c=64 v=0
157203 On ch=2 n=c6 v=112
157248 Par ch=2 c=7 v=111
157293 Par ch=2 c=7 v=110
157338 Par ch=2 c=7 v=109
157383 Par ch=2 c=7 v=108
157403 Off ch=2 n=c6 v=64
157403 Off ch=2 n=f#6 v=64
157428 Par ch=2 c=7 v=107
157473 Par ch=2 c=7 v=106
157518 Par ch=2 c=7 v=105
157563 Par ch=2 c=7 v=104
157608 Par ch=2 c=7 v=103
157653 Par ch=2 c=7 v=102
157698 Par ch=2 c=7 v=101
157743 Par ch=2 c=7 v=100
157788 Par ch=2 c=7 v=99
157833 Par ch=2 c=7 v=98
157878 Par ch=2 c=7 v=97
157923 Par ch=2 c=7 v=96
157968 Par ch=2 c=7 v=95
158013 Par ch=2 c=7 v=94
158058 Par ch=2 c=7 v=93
158103 Par ch=2 c=7 v=92
158148 Par ch=2 c=7 v=91
158163 On ch=2 n=f5 v=127
158193 Par ch=2 c=7 v=90
158238 Par ch=2 c=7 v=89
158283 Par ch=2 c=7 v=88
158328 Par ch=2 c=7 v=87
158373 Par ch=2 c=7 v=86
158418 Par ch=2 c=7 v=85
158463 Par ch=2 c=7 v=84
158508 Par ch=2 c=7 v=83
158553 Par ch=2 c=7 v=82
158583 Off ch=2 n=f5 v=64
158598 Par ch=2 c=7 v=81
158643 Par ch=2 c=7 v=80
158643 On ch=2 n=f5 v=127
158688 Par ch=2 c=7 v=79
158733 Par ch=2 c=7 v=78
158778 Par ch=2 c=7 v=77
158823 Par ch=2 c=7 v=76
158868 Par ch=2 c=7 v=75
158913 Par ch=2 c=7 v=74
158958 Par ch=2 c=7 v=73
159003 Par ch=2 c=7 v=72
159048 Par ch=2 c=7 v=71
159063 Off ch=2 n=f5 v=64
159093 Par ch=2 c=7 v=70
159123 On ch=2 n=f5 v=123
159138 Par ch=2 c=7 v=69
159183 Par ch=2 c=7 v=68
159228 Par ch=2 c=7 v=67
159273 Par ch=2 c=7 v=66
159318 Par ch=2 c=7 v=65
159363 Par ch=2 c=7 v=64
159408 Par ch=2 c=7 v=63
159453 Par ch=2 c=7 v=62
159498 Par ch=2 c=7 v=61
159543 Par ch=2 c=7 v=60
159588 Par ch=2 c=7 v=59
159633 Par ch=2 c=7 v=58
159678 Par ch=2 c=7 v=57
159723 Par ch=2 c=7 v=56
159768 Par ch=2 c=7 v=55
159813 Par ch=2 c=7 v=54
159858 Par ch=2 c=7 v=53
159903 Par ch=2 c=7 v=52
159948 Par ch=2 c=7 v=51
159993 Par ch=2 c=7 v=50
160023 Off ch=2 n=f5 v=64
160038 Par ch=2 c=7 v=49
160083 On ch=2 n=f4 v=67
160083 Par ch=2 c=7 v=48
160503 Off ch=2 n=f4 v=64
160563 On ch=2 n=f4 v=67
160983 Off ch=2 n=f4 v=64
161043 On ch=2 n=a#2 v=48
161043 Par ch=2 c=64 v=127
161163 On ch=2 n=a#3 v=48
161163 On ch=2 n=f4 v=48
161943 Off ch=2 n=a#2 v=64
161943 Off ch=2 n=f4 v=64
162003 On ch=2 n=a#4 v=48
162423 Off ch=2 n=a#3 v=64
162483 Par ch=2 c=64 v=0
162483 On ch=2 n=d#4 v=48
162903 Off ch=2 n=d#4 v=64
162903 Off ch=2 n=a#4 v=64
162963 Par ch=2 c=64 v=127
162963 On ch=2 n=f3 v=48
163083 Off ch=2 n=f3 v=64
163083 On ch=2 n=a4 v=48
163083 On ch=2 n=f3 v=48
163923 Off ch=2 n=f3 v=64
163923 On ch=2 n=f3 v=48
164123 Off ch=2 n=a4 v=64
164163 Par ch=2 c=64 v=0
164163 On ch=2 n=f#4 v=48
164403 Off ch=2 n=f#4 v=64
164403 On ch=2 n=g4 v=48
164643 Off ch=2 n=g4 v=64
164643 On ch=2 n=f4 v=48
164823 Off ch=2 n=f3 v=64
164883 Off ch=2 n=f4 v=64
164883 On ch=2 n=a#3 v=48
165783 Off ch=2 n=a#3 v=64
165843 On ch=2 n=a#4 v=48
166263 Off ch=2 n=a#4 v=64
166323 On ch=2 n=d#4 v=48
166743 Off ch=2 n=d#4 v=64
166803 On ch=2 n=f4 v=48
167043 Off ch=2 n=f4 v=64
167043 On ch=2 n=f#4 v=48
167283 Off ch=2 n=f#4 v=64
167283 On ch=2 n=a4 v=48
167443 Off ch=2 n=a4 v=64
167443 On ch=2 n=g4 v=48
167603 Off ch=2 n=g4 v=64
167603 On ch=2 n=f4 v=48
167760 Off ch=2 n=f4 v=64
167763 On ch=2 n=f3 v=48
168003 Off ch=2 n=f3 v=64
168003 On ch=2 n=f#3 v=48
168243 Off ch=2 n=f#3 v=64
168243 On ch=2 n=a3 v=48
168403 Off ch=2 n=a3 v=64
168403 On ch=2 n=g3 v=48
168563 Off ch=2 n=g3 v=64
168563 On ch=2 n=f3 v=48
168723 Off ch=2 n=f3 v=64
168723 On ch=2 n=a#2 v=48
168923 Off ch=2 n=a#2 v=64
169203 On ch=2 n=c#5 v=48
169203 On ch=2 n=e5 v=48
169623 Off ch=2 n=e5 v=64
169623 Off ch=2 n=c#5 v=64
169683 On ch=2 n=d#5 v=48
169683 On ch=2 n=c5 v=48
169683 On ch=2 n=f4 v=48
170103 Off ch=2 n=d#5 v=64
170163 On ch=2 n=g5 v=48
170483 Off ch=2 n=g5 v=64
170523 On ch=2 n=f5 v=48
170583 Off ch=2 n=f4 v=64
170583 Off ch=2 n=c5 v=64
170640 Off ch=2 n=f5 v=64
170643 On ch=2 n=a#3 v=48
170643 Par ch=2 c=64 v=127
170703 On ch=2 n=f4 v=48
170763 On ch=2 n=f5 v=48
171083 Off ch=2 n=a#3 v=64
171083 Off ch=2 n=f4 v=64
171083 Off ch=2 n=f5 v=64
171123 Par ch=2 c=64 v=0
171123 On ch=2 n=e5 v=48
171543 Off ch=2 n=e5 v=64
171603 On ch=2 n=f5 v=48
171603 On ch=2 n=d#5 v=48
171603 On ch=2 n=c5 v=48
171603 On ch=2 n=f4 v=48
172023 Off ch=2 n=f4 v=64
172023 Off ch=2 n=c5 v=64
172023 Off ch=2 n=d#5 v=64
172023 Off ch=2 n=f5 v=64
172083 Par ch=2 c=64 v=127
172083 On ch=2 n=d#4 v=48
172083 On ch=2 n=g4 v=48
172083 On ch=2 n=c5 v=48
172083 On ch=2 n=d#5 v=48
172503 Off ch=2 n=d#5 v=64
172503 Off ch=2 n=c5 v=64
172503 Off ch=2 n=g4 v=64
172503 Off ch=2 n=d#4 v=64
172563 On ch=2 n=f#5 v=48
172563 On ch=2 n=c5 v=48
172563 On ch=2 n=a4 v=48
172563 On ch=2 n=d4 v=48
172983 Off ch=2 n=d4 v=64
172983 Off ch=2 n=a4 v=64
172983 Off ch=2 n=c5 v=64
172983 Off ch=2 n=f#5 v=64
173043 On ch=2 n=f#2 v=48
173043 On ch=2 n=f#3 v=48
173463 Off ch=2 n=f#3 v=64
173463 Off ch=2 n=f#2 v=64
173523 On ch=2 n=g3 v=48
173523 On ch=2 n=g2 v=48
173943 Off ch=2 n=g2 v=64
173943 Off ch=2 n=g3 v=64
174003 On ch=2 n=a2 v=48
174003 On ch=2 n=a3 v=48
174323 Off ch=2 n=a3 v=64
174323 Off ch=2 n=a2 v=64
174363 On ch=2 n=a#2 v=48
174363 On ch=2 n=a#3 v=48
174480 Off ch=2 n=a#3 v=64
174480 Off ch=2 n=a#2 v=64
174483 On ch=2 n=b3 v=48
174483 On ch=2 n=b2 v=48
174903 Off ch=2 n=b2 v=64
174903 Off ch=2 n=b3 v=64
174963 On ch=2 n=c3 v=48
174963 On ch=2 n=c4 v=48
175283 Off ch=2 n=c4 v=64
175283 Off ch=2 n=c3 v=64
175323 On ch=2 n=d3 v=48
175323 On ch=2 n=d4 v=48
175440 Off ch=2 n=d4 v=64
175440 Off ch=2 n=d3 v=64
175443 On ch=2 n=d#4 v=48
175443 On ch=2 n=d#3 v=48
175923 Off ch=2 n=d#3 v=64
175923 Off ch=2 n=d#4 v=64
175923 On ch=2 n=f3 v=48
175923 On ch=2 n=f4 v=48
176343 Off ch=2 n=f4 v=64
176343 Off ch=2 n=f3 v=64
176403 On ch=2 n=a#2 v=48
176563 Off ch=2 n=a#2 v=64
176563 On ch=2 n=e4 v=48
176723 Off ch=2 n=e4 v=64
176723 On ch=2 n=f4 v=48
176883 Off ch=2 n=f4 v=64
176883 On ch=2 n=g4 v=48
177043 Off ch=2 n=g4 v=64
177043 On ch=2 n=f4 v=48
177203 Off ch=2 n=f4 v=64
177203 On ch=2 n=f3 v=48
177360 Off ch=2 n=f3 v=64
177363 On ch=2 n=a#3 v=48
177523 Off ch=2 n=a#3 v=64
177523 On ch=2 n=e4 v=48
177683 Off ch=2 n=e4 v=64
177683 On ch=2 n=f4 v=48
177843 Off ch=2 n=f4 v=64
177843 On ch=2 n=g4 v=48
178003 Off ch=2 n=g4 v=64
178003 On ch=2 n=f4 v=48
178163 Off ch=2 n=f4 v=64
178163 On ch=2 n=f3 v=48
178320 Off ch=2 n=f3 v=64
178323 On ch=2 n=c4 v=48
178483 Off ch=2 n=c4 v=64
178483 On ch=2 n=e4 v=48
178643 Off ch=2 n=e4 v=64
178643 On ch=2 n=f4 v=48
178803 Off ch=2 n=f4 v=64
178803 On ch=2 n=g4 v=48
178963 Off ch=2 n=g4 v=64
178963 On ch=2 n=f4 v=48
179123 Off ch=2 n=f4 v=64
179123 On ch=2 n=f3 v=48
179280 Off ch=2 n=f3 v=64
179283 On ch=2 n=d#4 v=48
179443 Off ch=2 n=d#4 v=64
179443 On ch=2 n=e4 v=48
179603 Off ch=2 n=e4 v=64
179603 On ch=2 n=f4 v=48
179763 Off ch=2 n=f4 v=64
179763 On ch=2 n=g4 v=48
179923 Off ch=2 n=g4 v=64
179923 On ch=2 n=f4 v=48
180083 Off ch=2 n=f4 v=64
180083 On ch=2 n=f3 v=48
180240 Off ch=2 n=f3 v=64
180243 Par ch=2 c=64 v=127
180243 On ch=2 n=a#2 v=48
180443 Off ch=2 n=a#2 v=64
180483 On ch=2 n=e4 v=48
180603 Off ch=2 n=e4 v=64
180603 On ch=2 n=f4 v=48
180723 Off ch=2 n=f4 v=64
180723 On ch=2 n=g4 v=48
180843 Off ch=2 n=g4 v=64
180843 On ch=2 n=f4 v=48
180963 Off ch=2 n=f4 v=64
180963 On ch=2 n=f4 v=48
181083 Off ch=2 n=f4 v=64
181083 On ch=2 n=f3 v=48
181200 Off ch=2 n=f3 v=64
181203 Par ch=2 c=64 v=0
181203 Par ch=2 c=64 v=127
181203 On ch=2 n=a#3 v=48
181403 Off ch=2 n=a#3 v=64
181443 On ch=2 n=e4 v=48
181563 Off ch=2 n=e4 v=64
181563 On ch=2 n=f4 v=48
181683 Off ch=2 n=f4 v=64
181683 Par ch=2 c=64 v=0
181683 On ch=2 n=g4 v=48
181803 Off ch=2 n=g4 v=64
181803 On ch=2 n=f4 v=48
181923 Off ch=2 n=f4 v=64
181923 On ch=2 n=f4 v=48
182043 Off ch=2 n=f4 v=64
182043 On ch=2 n=f3 v=48
182160 Off ch=2 n=f3 v=64
182163 Par ch=2 c=64 v=127
182163 On ch=2 n=f2 v=48
182363 Off ch=2 n=f2 v=64
182403 On ch=2 n=e4 v=48
182523 Off ch=2 n=e4 v=64
182523 On ch=2 n=f4 v=48
182643 Off ch=2 n=f4 v=64
182643 On ch=2 n=g4 v=48
182763 Off ch=2 n=g4 v=64
182763 On ch=2 n=f4 v=48
182883 Off ch=2 n=f4 v=64
182883 On ch=2 n=f4 v=48
183003 Off ch=2 n=f4 v=64
183003 Par ch=2 c=64 v=0
183003 On ch=2 n=f3 v=48
183120 Off ch=2 n=f3 v=64
183123 On ch=2 n=d#4 v=48
183323 Off ch=2 n=d#4 v=64
183363 On ch=2 n=e4 v=48
183483 Off ch=2 n=e4 v=64
183483 On ch=2 n=f4 v=48
183603 Off ch=2 n=f4 v=64
183603 On ch=2 n=g4 v=48
183723 Off ch=2 n=g4 v=64
183723 On ch=2 n=f4 v=48
183843 Off ch=2 n=f4 v=64
183843 On ch=2 n=f4 v=48
183963 Off ch=2 n=f4 v=64
183963 On ch=2 n=f3 v=48
184080 Off ch=2 n=f3 v=64
184083 Par ch=2 c=64 v=127
184083 On ch=2 n=a#3 v=48
184203 Off ch=2 n=a#3 v=64
184203 On ch=2 n=f4 v=48
184323 Off ch=2 n=f4 v=64
184323 On ch=2 n=g4 v=48
184443 Off ch=2 n=g4 v=64
184443 On ch=2 n=f4 v=48
184563 Off ch=2 n=f4 v=64
184563 On ch=2 n=d5 v=48
184683 Off ch=2 n=d5 v=64
184683 On ch=2 n=f4 v=48
184803 Off ch=2 n=f4 v=64
184803 On ch=2 n=g4 v=48
184923 Off ch=2 n=g4 v=64
184923 On ch=2 n=f4 v=48
185040 Off ch=2 n=f4 v=64
185043 Par ch=2 c=64 v=0
185043 Par ch=2 c=64 v=127
185043 On ch=2 n=f3 v=48
185163 Off ch=2 n=f3 v=64
185163 On ch=2 n=f4 v=48
185283 Off ch=2 n=f4 v=64
185283 On ch=2 n=g4 v=48
185403 Off ch=2 n=g4 v=64
185403 On ch=2 n=f4 v=48
185523 Off ch=2 n=f4 v=64
185523 On ch=2 n=d#5 v=48
185643 Off ch=2 n=d#5 v=64
185643 On ch=2 n=f4 v=48
185763 Off ch=2 n=f4 v=64
185763 On ch=2 n=g4 v=48
185883 Off ch=2 n=g4 v=64
185883 On ch=2 n=f4 v=48
186000 Off ch=2 n=f4 v=64
186003 Par ch=2 c=64 v=0
186003 Par ch=2 c=7 v=76
186003 Par ch=2 c=64 v=127
186003 On ch=2 n=a#3 v=76
186123 Off ch=2 n=a#3 v=64
186123 On ch=2 n=f4 v=77
186215 Par ch=2 c=7 v=77
186243 Off ch=2 n=f4 v=64
186243 On ch=2 n=g4 v=78
186363 Off ch=2 n=g4 v=64
186363 On ch=2 n=f4 v=79
186429 Par ch=2 c=7 v=78
186483 Off ch=2 n=f4 v=64
186483 On ch=2 n=d5 v=80
186603 Off ch=2 n=d5 v=64
186603 On ch=2 n=f4 v=81
186643 Par ch=2 c=7 v=79
186723 Off ch=2 n=f4 v=64
186723 On ch=2 n=g4 v=82
186843 Off ch=2 n=g4 v=64
186843 On ch=2 n=f4 v=83
186855 Par ch=2 c=7 v=80
186963 Off ch=2 n=f4 v=64
186963 Par ch=2 c=64 v=0
186963 Par ch=2 c=64 v=127
186963 On ch=2 n=f3 v=84
187069 Par ch=2 c=7 v=81
187083 Off ch=2 n=f3 v=64
187083 On ch=2 n=f4 v=85
187203 Off ch=2 n=f4 v=64
187203 On ch=2 n=g4 v=86
187283 Par ch=2 c=7 v=82
187323 Off ch=2 n=g4 v=64
187323 On ch=2 n=f4 v=87
187443 Off ch=2 n=f4 v=64
187443 On ch=2 n=d#5 v=88
187495 Par ch=2 c=7 v=83
187563 Off ch=2 n=d#5 v=64
187563 On ch=2 n=f4 v=89
187683 Off ch=2 n=f4 v=64
187683 On ch=2 n=g4 v=90
187709 Par ch=2 c=7 v=84
187803 Off ch=2 n=g4 v=64
187803 On ch=2 n=f4 v=91
187920 Off ch=2 n=f4 v=64
187923 Par ch=2 c=7 v=85
187923 Par ch=2 c=64 v=0
187923 Par ch=2 c=64 v=127
187923 On ch=2 n=f#3 v=92
188043 Off ch=2 n=f#3 v=64
188043 On ch=2 n=c4 v=93
188135 Par ch=2 c=7 v=86
188163 Off ch=2 n=c4 v=64
188163 On ch=2 n=d4 v=94
188283 Off ch=2 n=d4 v=64
188283 On ch=2 n=a4 v=95
188349 Par ch=2 c=7 v=87
188403 Off ch=2 n=a4 v=64
188403 On ch=2 n=f#4 v=96
188523 Off ch=2 n=f#4 v=64
188523 On ch=2 n=c5 v=97
188563 Par ch=2 c=7 v=88
188643 Off ch=2 n=c5 v=64
188643 On ch=2 n=d5 v=98
188763 Off ch=2 n=d5 v=64
188763 On ch=2 n=a5 v=99
188775 Par ch=2 c=7 v=89
188880 Off ch=2 n=a5 v=64
188883 Par ch=2 c=64 v=0
188883 Par ch=2 c=64 v=127
188883 On ch=2 n=g3 v=100
188989 Par ch=2 c=7 v=90
189003 Off ch=2 n=g3 v=64
189003 On ch=2 n=c#4 v=101
189123 Off ch=2 n=c#4 v=64
189123 On ch=2 n=d4 v=102
189203 Par ch=2 c=7 v=91
189243 Off ch=2 n=d4 v=64
189243 On ch=2 n=a#4 v=103
189363 Off ch=2 n=a#4 v=64
189363 On ch=2 n=g4 v=104
189415 Par ch=2 c=7 v=92
189483 Off ch=2 n=g4 v=64
189483 On ch=2 n=c#5 v=105
189603 Off ch=2 n=c#5 v=64
189603 On ch=2 n=d5 v=106
189629 Par ch=2 c=7 v=93
189723 Off ch=2 n=d5 v=64
189723 On ch=2 n=a#5 v=107
189840 Off ch=2 n=a#5 v=64
189843 Par ch=2 c=7 v=94
189843 On ch=2 n=a3 v=94
189963 Off ch=2 n=a3 v=64
189963 On ch=2 n=e4 v=95
190003 Par ch=2 c=7 v=95
190083 Off ch=2 n=e4 v=64
190083 On ch=2 n=f4 v=96
190163 Par ch=2 c=7 v=96
190203 Off ch=2 n=f4 v=64
190203 On ch=2 n=c5 v=97
190323 Off ch=2 n=c5 v=64
190323 Par ch=2 c=7 v=97
190323 On ch=2 n=a4 v=98
190443 Off ch=2 n=a4 v=64
190443 On ch=2 n=e5 v=99
190483 Par ch=2 c=7 v=98
190563 Off ch=2 n=e5 v=64
190563 On ch=2 n=f5 v=100
190643 Par ch=2 c=7 v=99
190683 Off ch=2 n=f5 v=64
190683 On ch=2 n=c6 v=101
190800 Off ch=2 n=c6 v=64
190803 Par ch=2 c=7 v=100
190803 On ch=2 n=b3 v=102
190923 Off ch=2 n=b3 v=64
190923 On ch=2 n=f#4 v=103
190963 Par ch=2 c=7 v=101
191043 Off ch=2 n=f#4 v=64
191043 On ch=2 n=g4 v=104
191123 Par ch=2 c=7 v=102
191163 Off ch=2 n=g4 v=64
191163 On ch=2 n=d5 v=105
191283 Off ch=2 n=d5 v=64
191283 Par ch=2 c=7 v=103
191283 On ch=2 n=b4 v=106
191403 Off ch=2 n=b4 v=64
191403 On ch=2 n=f#5 v=107
191443 Par ch=2 c=7 v=104
191523 Off ch=2 n=f#5 v=64
191523 On ch=2 n=g5 v=108
191603 Par ch=2 c=7 v=105
191640 Off ch=2 n=g5 v=64
191763 Par ch=2 c=7 v=106
191763 On ch=2 n=c3 v=110
191883 Off ch=2 n=c3 v=64
191883 On ch=2 n=g3 v=111
191923 Par ch=2 c=7 v=107
192003 Off ch=2 n=g3 v=64
192003 On ch=2 n=c4 v=112
192083 Par ch=2 c=7 v=108
192123 Off ch=2 n=c4 v=64
192123 On ch=2 n=g4 v=113
192240 Off ch=2 n=g4 v=64
192243 Par ch=2 c=7 v=109
192243 On ch=2 n=d3 v=114
192363 Off ch=2 n=d3 v=64
192363 On ch=2 n=g3 v=115
192403 Par ch=2 c=7 v=110
192483 Off ch=2 n=g3 v=64
192483 On ch=2 n=d4 v=116
192563 Par ch=2 c=7 v=111
192603 Off ch=2 n=d4 v=64
192603 On ch=2 n=g4 v=117
192720 Off ch=2 n=g4 v=64
192723 Par ch=2 c=7 v=112
192723 On ch=2 n=d#3 v=112
192843 Off ch=2 n=d#3 v=64
192843 On ch=2 n=g3 v=112
192963 Off ch=2 n=g3 v=64
192963 On ch=2 n=c4 v=112
193083 Off ch=2 n=c4 v=64
193083 On ch=2 n=g4 v=112
193200 Off ch=2 n=g4 v=64
193203 On ch=2 n=e3 v=112
193323 Off ch=2 n=e3 v=64
193323 On ch=2 n=a#3 v=112
193443 Off ch=2 n=a#3 v=64
193443 On ch=2 n=c#4 v=112
193563 Off ch=2 n=c#4 v=64
193563 On ch=2 n=g4 v=112
193680 Off ch=2 n=g4 v=64
193683 On ch=2 n=f3 v=112
193803 Off ch=2 n=f3 v=64
193803 On ch=2 n=c4 v=112
193923 Off ch=2 n=c4 v=64
193923 On ch=2 n=d#4 v=112
194043 Off ch=2 n=d#4 v=64
194043 On ch=2 n=c5 v=112
194160 Off ch=2 n=c5 v=64
194163 On ch=2 n=g3 v=112
194283 Off ch=2 n=g3 v=64
194283 On ch=2 n=a#3 v=112
194403 Off ch=2 n=a#3 v=64
194403 On ch=2 n=d#4 v=112
194523 Off ch=2 n=d#4 v=64
194523 On ch=2 n=a#4 v=112
194640 Off ch=2 n=a#4 v=64
194643 On ch=2 n=a3 v=112
194763 Off ch=2 n=a3 v=64
194763 On ch=2 n=c4 v=112
194883 Off ch=2 n=c4 v=64
194883 On ch=2 n=d#4 v=112
195003 Off ch=2 n=d#4 v=64
195003 On ch=2 n=c5 v=112
195120 Off ch=2 n=c5 v=64
195123 On ch=2 n=c4 v=112
195243 Off ch=2 n=c4 v=64
195243 On ch=2 n=f4 v=112
195363 Off ch=2 n=f4 v=64
195363 On ch=2 n=a4 v=112
195483 Off ch=2 n=a4 v=64
195483 On ch=2 n=d#5 v=112
195600 Off ch=2 n=d#5 v=64
195603 On ch=2 n=d4 v=112
195603 On ch=2 n=a#4 v=112
195603 On ch=2 n=d5 v=112
195803 Off ch=2 n=d5 v=64
195803 Off ch=2 n=a#4 v=64
195803 Off ch=2 n=d4 v=64
195843 On ch=2 n=d4 v=112
195843 On ch=2 n=a#4 v=112
195843 On ch=2 n=d5 v=112
196043 Off ch=2 n=d5 v=64
196043 Off ch=2 n=a#4 v=64
196043 Off ch=2 n=d4 v=64
196083 On ch=2 n=d#4 v=112
196083 On ch=2 n=a#4 v=112
196083 On ch=2 n=d#5 v=112
196283 Off ch=2 n=d#5 v=64
196283 Off ch=2 n=a#4 v=64
196283 Off ch=2 n=d#4 v=64
196323 On ch=2 n=f4 v=112
196323 On ch=2 n=a#4 v=112
196323 On ch=2 n=d5 v=112
196523 Off ch=2 n=d5 v=64
196523 Off ch=2 n=a#4 v=64
196523 Off ch=2 n=f4 v=64
196563 On ch=2 n=f#4 v=112
196563 On ch=2 n=d#5 v=112
196763 Off ch=2 n=d#5 v=64
196763 Off ch=2 n=f#4 v=64
196803 On ch=2 n=b3 v=112
196803 On ch=2 n=b4 v=112
197003 Off ch=2 n=b4 v=64
197003 Off ch=2 n=b3 v=64
197043 On ch=2 n=c4 v=112
197043 On ch=2 n=c5 v=112
197243 Off ch=2 n=c5 v=64
197243 Off ch=2 n=c4 v=64
197283 On ch=2 n=d#4 v=112
197283 On ch=2 n=d#5 v=112
197483 Off ch=2 n=d#5 v=64
197483 Off ch=2 n=d#4 v=64
197523 On ch=2 n=d4 v=112
197523 On ch=2 n=f4 v=112
197523 On ch=2 n=a#4 v=112
197523 On ch=2 n=d5 v=112
197723 Off ch=2 n=d5 v=64
197723 Off ch=2 n=a#4 v=64
197723 Off ch=2 n=f4 v=64
197723 Off ch=2 n=d4 v=64
197763 On ch=2 n=a3 v=112
197763 On ch=2 n=a4 v=112
197963 Off ch=2 n=a4 v=64
197963 Off ch=2 n=a3 v=64
198003 On ch=2 n=a#3 v=112
198003 On ch=2 n=a#4 v=112
198203 Off ch=2 n=a#4 v=64
198203 Off ch=2 n=a#3 v=64
198243 On ch=2 n=e3 v=112
198243 On ch=2 n=e4 v=112
198443 Off ch=2 n=e4 v=64
198443 Off ch=2 n=e3 v=64
198483 On ch=2 n=e3 v=112
198483 On ch=2 n=e2 v=112
198723 Off ch=2 n=e2 v=64
198723 Off ch=2 n=e3 v=64
198723 On ch=2 n=f2 v=112
198723 On ch=2 n=f3 v=112
198963 Off ch=2 n=f2 v=64
198963 On ch=2 n=g4 v=112
199203 Off ch=2 n=g4 v=64
199203 On ch=2 n=f4 v=112
199383 Off ch=2 n=f3 v=64
199443 On ch=2 n=a#3 v=112
199600 Off ch=2 n=a#3 v=64
199600 Off ch=2 n=f4 v=64
199603 On ch=2 n=a#4 v=112
199603 On ch=2 n=e4 v=112
199760 Off ch=2 n=e4 v=64
199760 Off ch=2 n=a#4 v=64
199763 On ch=2 n=e4 v=112
199763 On ch=2 n=a#4 v=112
199920 Off ch=2 n=a#4 v=64
199920 Off ch=2 n=e4 v=64
199923 On ch=2 n=e4 v=112
199923 On ch=2 n=a#4 v=112
200080 Off ch=2 n=a#4 v=64
200080 Off ch=2 n=e4 v=64
200083 On ch=2 n=f4 v=112
200083 On ch=2 n=a4 v=112
200240 Off ch=2 n=a4 v=64
200240 Off ch=2 n=f4 v=64
200243 On ch=2 n=f4 v=112
200243 On ch=2 n=c5 v=112
200243 On ch=2 n=f5 v=112
200400 Off ch=2 n=f5 v=64
200400 Off ch=2 n=c5 v=64
200400 Off ch=2 n=f4 v=64
200403 On ch=2 n=f4 v=127
200403 On ch=2 n=c5 v=127
200403 On ch=2 n=f5 v=127
200560 Off ch=2 n=f5 v=64
200560 Off ch=2 n=c5 v=64
200560 Off ch=2 n=f4 v=64
200563 On ch=2 n=f5 v=112
200563 On ch=2 n=a#4 v=112
200720 Off ch=2 n=a#4 v=64
200720 Off ch=2 n=f5 v=64
200723 On ch=2 n=d#5 v=112
200723 On ch=2 n=a#5 v=112
200883 Off ch=2 n=a#5 v=64
200883 Off ch=2 n=d#5 v=64
200883 On ch=2 n=d#5 v=112
200883 On ch=2 n=a#5 v=112
201043 Off ch=2 n=a#5 v=64
201043 Off ch=2 n=d#5 v=64
201043 On ch=2 n=f5 v=112
201043 On ch=2 n=a5 v=112
201200 Off ch=2 n=a5 v=64
201200 Off ch=2 n=f5 v=64
201203 On ch=2 n=f5 v=112
201203 On ch=2 n=c6 v=112
201203 On ch=2 n=f6 v=112
201363 Off ch=2 n=f6 v=64
201363 Off ch=2 n=c6 v=64
201363 Off ch=2 n=f5 v=64
201363 On ch=2 n=f5 v=112
201363 On ch=2 n=c6 v=112
201363 On ch=2 n=f6 v=112
201523 Off ch=2 n=f6 v=64
201523 Off ch=2 n=c6 v=64
201523 Off ch=2 n=f5 v=64
201523 On ch=2 n=f6 v=112
201523 On ch=2 n=a#5 v=112
201680 Off ch=2 n=a#5 v=64
201680 Off ch=2 n=f6 v=64
201683 On ch=2 n=e5 v=112
201683 On ch=2 n=a#5 v=112
201683 On ch=2 n=c#6 v=112
201843 Off ch=2 n=c#6 v=64
201843 Off ch=2 n=a#5 v=64
201843 Off ch=2 n=e5 v=64
201843 On ch=2 n=e5 v=112
201843 On ch=2 n=a#5 v=112
201843 On ch=2 n=c#6 v=112
202003 Off ch=2 n=c#6 v=64
202003 Off ch=2 n=a#5 v=64
202003 Off ch=2 n=e5 v=64
202003 On ch=2 n=f5 v=112
202003 On ch=2 n=a5 v=112
202160 Off ch=2 n=a5 v=64
202160 Off ch=2 n=f5 v=64
202163 On ch=2 n=f4 v=112
202163 On ch=2 n=c5 v=112
202323 Off ch=2 n=c5 v=64
202323 Off ch=2 n=f4 v=64
202323 On ch=2 n=f4 v=112
202323 On ch=2 n=c5 v=112
202483 Off ch=2 n=c5 v=64
202483 Off ch=2 n=f4 v=64
202483 On ch=2 n=f5 v=112
202483 On ch=2 n=a#4 v=112
202640 Off ch=2 n=a#4 v=64
202640 Off ch=2 n=f5 v=64
202643 On ch=2 n=e4 v=112
202643 On ch=2 n=a#4 v=112
202800 Off ch=2 n=a#4 v=64
202800 Off ch=2 n=e4 v=64
202803 On ch=2 n=e4 v=112
202803 On ch=2 n=a#4 v=112
202960 Off ch=2 n=a#4 v=64
202960 Off ch=2 n=e4 v=64
202963 On ch=2 n=f4 v=112
202963 On ch=2 n=a4 v=112
203120 Off ch=2 n=a4 v=64
203120 Off ch=2 n=f4 v=64
203123 On ch=2 n=f3 v=112
203123 On ch=2 n=c4 v=112
203280 Off ch=2 n=c4 v=64
203280 Off ch=2 n=f3 v=64
203283 On ch=2 n=f3 v=112
203283 On ch=2 n=c4 v=112
203283 On ch=2 n=f4 v=112
203440 Off ch=2 n=f4 v=64
203440 Off ch=2 n=c4 v=64
203440 Off ch=2 n=f3 v=64
203443 On ch=2 n=f4 v=112
203443 On ch=2 n=a#3 v=112
203600 Off ch=2 n=a#3 v=64
203600 Off ch=2 n=f4 v=64
203603 On ch=2 n=c4 v=112
203603 On ch=2 n=e4 v=112
203603 On ch=2 n=a#4 v=112
203760 Off ch=2 n=a#4 v=64
203760 Off ch=2 n=e4 v=64
203760 Off ch=2 n=c4 v=64
203763 On ch=2 n=c4 v=112
203763 On ch=2 n=e4 v=112
203763 On ch=2 n=a#4 v=112
203920 Off ch=2 n=a#4 v=64
203920 Off ch=2 n=e4 v=64
203920 Off ch=2 n=c4 v=64
203923 On ch=2 n=f4 v=112
203923 On ch=2 n=a4 v=112
204080 Off ch=2 n=a4 v=64
204080 Off ch=2 n=f4 v=64
204083 On ch=2 n=f4 v=112
204083 On ch=2 n=c5 v=112
204083 On ch=2 n=f5 v=112
204240 Off ch=2 n=f5 v=64
204240 Off ch=2 n=c5 v=64
204240 Off ch=2 n=f4 v=64
204243 On ch=2 n=f4 v=112
204243 On ch=2 n=c5 v=112
204243 On ch=2 n=f5 v=112
204400 Off ch=2 n=f5 v=64
204400 Off ch=2 n=c5 v=64
204400 Off ch=2 n=f4 v=64
204403 On ch=2 n=f5 v=112
204403 On ch=2 n=a#4 v=112
204560 Off ch=2 n=a#4 v=64
204560 Off ch=2 n=f5 v=64
204723 On ch=2 n=c5 v=112
204723 On ch=2 n=e5 v=112
204723 On ch=2 n=a#5 v=112
204768 Par ch=2 c=7 v=111
204813 Par ch=2 c=7 v=110
204858 Par ch=2 c=7 v=109
204880 Off ch=2 n=a#5 v=64
204880 Off ch=2 n=e5 v=64
204880 Off ch=2 n=c5 v=64
204883 On ch=2 n=f5 v=110
204883 On ch=2 n=a5 v=110
204903 Par ch=2 c=7 v=108
204948 Par ch=2 c=7 v=107
204993 Par ch=2 c=7 v=106
205038 Par ch=2 c=7 v=105
205040 Off ch=2 n=a5 v=64
205040 Off ch=2 n=f5 v=64
205043 On ch=2 n=f5 v=108
205043 On ch=2 n=c6 v=108
205043 On ch=2 n=f6 v=108
205083 Par ch=2 c=7 v=104
205128 Par ch=2 c=7 v=103
205173 Par ch=2 c=7 v=102
205200 Off ch=2 n=f6 v=64
205200 Off ch=2 n=c6 v=64
205200 Off ch=2 n=f5 v=64
205203 On ch=2 n=f5 v=106
205203 On ch=2 n=c6 v=106
205203 On ch=2 n=f6 v=106
205218 Par ch=2 c=7 v=101
205263 Par ch=2 c=7 v=100
205308 Par ch=2 c=7 v=99
205353 Par ch=2 c=7 v=98
205360 Off ch=2 n=f6 v=64
205360 Off ch=2 n=c6 v=64
205360 Off ch=2 n=f5 v=64
205363 On ch=2 n=f6 v=104
205363 On ch=2 n=a#5 v=104
205398 Par ch=2 c=7 v=97
205443 Par ch=2 c=7 v=96
205488 Par ch=2 c=7 v=95
205520 Off ch=2 n=a#5 v=64
205520 Off ch=2 n=f6 v=64
205523 On ch=2 n=c5 v=102
205523 On ch=2 n=e5 v=102
205523 On ch=2 n=a#5 v=102
205533 Par ch=2 c=7 v=94
205578 Par ch=2 c=7 v=93
205623 Par ch=2 c=7 v=92
205668 Par ch=2 c=7 v=91
205680 Off ch=2 n=a#5 v=64
205680 Off ch=2 n=e5 v=64
205680 Off ch=2 n=c5 v=64
205683 On ch=2 n=c5 v=100
205683 On ch=2 n=e5 v=100
205683 On ch=2 n=a#5 v=100
205713 Par ch=2 c=7 v=90
205758 Par ch=2 c=7 v=89
205803 Par ch=2 c=7 v=88
205840 Off ch=2 n=a#5 v=64
205840 Off ch=2 n=e5 v=64
205840 Off ch=2 n=c5 v=64
205843 On ch=2 n=f5 v=98
205843 On ch=2 n=a5 v=98
205848 Par ch=2 c=7 v=87
205893 Par ch=2 c=7 v=86
205938 Par ch=2 c=7 v=85
205983 Par ch=2 c=7 v=84
206000 Off ch=2 n=a5 v=64
206000 Off ch=2 n=f5 v=64
206003 On ch=2 n=f4 v=96
206003 On ch=2 n=c5 v=96
206028 Par ch=2 c=7 v=83
206073 Par ch=2 c=7 v=82
206118 Par ch=2 c=7 v=81
206160 Off ch=2 n=c5 v=64
206160 Off ch=2 n=f4 v=64
206163 Par ch=2 c=7 v=80
206208 Par ch=2 c=7 v=79
206253 Par ch=2 c=7 v=78
206298 Par ch=2 c=7 v=77
206323 On ch=2 n=f5 v=92
206323 On ch=2 n=a#4 v=92
206343 Par ch=2 c=7 v=76
206388 Par ch=2 c=7 v=75
206433 Par ch=2 c=7 v=74
206478 Par ch=2 c=7 v=73
206480 Off ch=2 n=a#4 v=64
206480 Off ch=2 n=f5 v=64
206483 On ch=2 n=c4 v=90
206483 On ch=2 n=e4 v=90
206483 On ch=2 n=a#4 v=90
206523 Par ch=2 c=7 v=72
206568 Par ch=2 c=7 v=71
206613 Par ch=2 c=7 v=70
206640 Off ch=2 n=a#4 v=64
206640 Off ch=2 n=e4 v=64
206640 Off ch=2 n=c4 v=64
206643 On ch=2 n=c4 v=88
206643 On ch=2 n=e4 v=88
206643 On ch=2 n=a#4 v=88
206658 Par ch=2 c=7 v=69
206703 Par ch=2 c=7 v=68
206748 Par ch=2 c=7 v=67
206793 Par ch=2 c=7 v=66
206800 Off ch=2 n=a#4 v=64
206800 Off ch=2 n=e4 v=64
206800 Off ch=2 n=c4 v=64
206803 On ch=2 n=f4 v=86
206803 On ch=2 n=a4 v=86
206838 Par ch=2 c=7 v=65
206883 Par ch=2 c=7 v=64
206928 Par ch=2 c=7 v=63
206960 Off ch=2 n=a4 v=64
206960 Off ch=2 n=f4 v=64
206963 On ch=2 n=f3 v=84
206963 On ch=2 n=f4 v=84
206973 Par ch=2 c=7 v=62
207018 Par ch=2 c=7 v=61
207063 Par ch=2 c=7 v=60
207108 Par ch=2 c=7 v=59
207120 Off ch=2 n=f4 v=64
207120 Off ch=2 n=f3 v=64
207123 On ch=2 n=f3 v=82
207123 On ch=2 n=f4 v=82
207153 Par ch=2 c=7 v=58
207198 Par ch=2 c=7 v=57
207243 Par ch=2 c=7 v=56
207280 Off ch=2 n=f4 v=64
207280 Off ch=2 n=f3 v=64
207283 On ch=2 n=e4 v=80
207283 On ch=2 n=e3 v=80
207288 Par ch=2 c=7 v=55
207333 Par ch=2 c=7 v=54
207378 Par ch=2 c=7 v=53
207423 Par ch=2 c=7 v=52
207440 Off ch=2 n=e3 v=64
207440 Off ch=2 n=e4 v=64
207443 On ch=2 n=e4 v=78
207443 On ch=2 n=f#4 v=78
207468 Par ch=2 c=7 v=51
207513 Par ch=2 c=7 v=50
207558 Par ch=2 c=7 v=49
207600 Off ch=2 n=f#4 v=64
207600 Off ch=2 n=e4 v=64
207603 Par ch=2 c=7 v=48
207603 On ch=2 n=e4 v=48
207603 On ch=2 n=f#4 v=48
207760 Off ch=2 n=f#4 v=64
207760 Off ch=2 n=e4 v=64
207763 On ch=2 n=e4 v=49
207763 On ch=2 n=b4 v=49
207920 Off ch=2 n=b4 v=64
207920 Off ch=2 n=e4 v=64
207923 On ch=2 n=e4 v=50
207923 On ch=2 n=b4 v=50
208080 Off ch=2 n=b4 v=64
208080 Off ch=2 n=e4 v=64
208083 On ch=2 n=e4 v=51
208083 On ch=2 n=b4 v=51
208240 Off ch=2 n=b4 v=64
208240 Off ch=2 n=e4 v=64
208243 On ch=2 n=e5 v=52
208243 On ch=2 n=a4 v=52
208243 On ch=2 n=e4 v=52
208400 Off ch=2 n=e4 v=64
208400 Off ch=2 n=a4 v=64
208400 Off ch=2 n=e5 v=64
208403 On ch=2 n=e4 v=53
208403 On ch=2 n=b4 v=53
208403 On ch=2 n=f#5 v=53
208560 Off ch=2 n=f#5 v=64
208560 Off ch=2 n=b4 v=64
208560 Off ch=2 n=e4 v=64
208563 On ch=2 n=e4 v=54
208563 On ch=2 n=b4 v=54
208563 On ch=2 n=f#5 v=54
208720 Off ch=2 n=f#5 v=64
208720 Off ch=2 n=b4 v=64
208720 Off ch=2 n=e4 v=64
208723 On ch=2 n=e4 v=55
208723 On ch=2 n=b4 v=55
208723 On ch=2 n=e5 v=55
208880 Off ch=2 n=e5 v=64
208880 Off ch=2 n=b4 v=64
208880 Off ch=2 n=e4 v=64
208883 On ch=2 n=e4 v=56
208883 On ch=2 n=b4 v=56
208883 On ch=2 n=d5 v=56
208883 On ch=2 n=e5 v=56
209040 Off ch=2 n=e5 v=64
209040 Off ch=2 n=d5 v=64
209040 Off ch=2 n=b4 v=64
209040 Off ch=2 n=e4 v=64
209043 On ch=2 n=e4 v=57
209043 On ch=2 n=b4 v=57
209043 On ch=2 n=d5 v=57
209043 On ch=2 n=e5 v=57
209200 Off ch=2 n=e5 v=64
209200 Off ch=2 n=d5 v=64
209200 Off ch=2 n=b4 v=64
209200 Off ch=2 n=e4 v=64
209203 On ch=2 n=f5 v=58
209203 On ch=2 n=b4 v=58
209360 Off ch=2 n=b4 v=64
209360 Off ch=2 n=f5 v=64
209363 On ch=2 n=d4 v=59
209520 Off ch=2 n=d4 v=64
209523 On ch=2 n=f4 v=60
209523 On ch=2 n=d5 v=60
209680 Off ch=2 n=d5 v=64
209680 Off ch=2 n=f4 v=64
209683 On ch=2 n=b3 v=61
209840 Off ch=2 n=b3 v=64
209843 On ch=2 n=f4 v=62
209843 On ch=2 n=b4 v=62
210000 Off ch=2 n=b4 v=64
210000 Off ch=2 n=f4 v=64
210003 On ch=2 n=g#3 v=63
210160 Off ch=2 n=g#3 v=64
210163 On ch=2 n=g#4 v=64
210163 On ch=2 n=b3 v=64
210320 Off ch=2 n=b3 v=64
210320 Off ch=2 n=g#4 v=64
210323 On ch=2 n=f3 v=65
210480 Off ch=2 n=f3 v=64
210483 On ch=2 n=b3 v=66
210483 On ch=2 n=f4 v=66
210640 Off ch=2 n=f4 v=64
210640 Off ch=2 n=b3 v=64
210643 On ch=2 n=d3 v=67
210800 Off ch=2 n=d3 v=64
210803 On ch=2 n=d2 v=68
210803 On ch=2 n=d3 v=68
210960 Off ch=2 n=d3 v=64
210960 Off ch=2 n=d2 v=64
210963 Par ch=2 c=64 v=127
210963 On ch=2 n=c#2 v=69
210963 On ch=2 n=c#3 v=69
211120 Off ch=2 n=c#3 v=64
211120 Off ch=2 n=c#2 v=64
211123 On ch=2 n=c#4 v=70
211123 On ch=2 n=c#3 v=70
211280 Off ch=2 n=c#3 v=64
211280 Off ch=2 n=c#4 v=64
211283 On ch=2 n=c#3 v=71
211283 On ch=2 n=c#4 v=71
211440 Off ch=2 n=c#4 v=64
211440 Off ch=2 n=c#3 v=64
211443 Par ch=2 c=64 v=0
211443 Par ch=2 c=64 v=127
211443 On ch=2 n=c#3 v=72
211443 On ch=2 n=c#4 v=72
211600 Off ch=2 n=c#4 v=64
211600 Off ch=2 n=c#3 v=64
211603 On ch=2 n=c#3 v=73
211603 On ch=2 n=c#4 v=73
211760 Off ch=2 n=c#4 v=64
211760 Off ch=2 n=c#3 v=64
211763 On ch=2 n=c#3 v=74
211763 On ch=2 n=c#4 v=74
211920 Off ch=2 n=c#4 v=64
211920 Off ch=2 n=c#3 v=64
211923 Par ch=2 c=64 v=0
211923 On ch=2 n=c#3 v=75
211923 On ch=2 n=c#4 v=75
212080 Off ch=2 n=c#4 v=64
212080 Off ch=2 n=c#3 v=64
212083 On ch=2 n=c4 v=76
212083 On ch=2 n=c3 v=76
212240 Off ch=2 n=c3 v=64
212240 Off ch=2 n=c4 v=64
212243 On ch=2 n=c3 v=77
212243 On ch=2 n=c4 v=77
212400 Off ch=2 n=c4 v=64
212400 Off ch=2 n=c3 v=64
212403 On ch=2 n=c3 v=78
212403 On ch=2 n=c4 v=78
212560 Off ch=2 n=c4 v=64
212560 Off ch=2 n=c3 v=64
212563 On ch=2 n=c#3 v=79
212563 On ch=2 n=c#4 v=79
212720 Off ch=2 n=c#4 v=64
212720 Off ch=2 n=c#3 v=64
212723 On ch=2 n=c#3 v=80
212723 On ch=2 n=c#4 v=80
212880 Off ch=2 n=c#4 v=64
212880 Off ch=2 n=c#3 v=64
212883 On ch=2 n=c#3 v=113
212883 On ch=2 n=c#4 v=113
213040 Off ch=2 n=c#4 v=64
213040 Off ch=2 n=c#3 v=64
213043 On ch=2 n=c#4 v=82
213043 On ch=2 n=c#3 v=82
213200 Off ch=2 n=c#3 v=64
213200 Off ch=2 n=c#4 v=64
213203 On ch=2 n=c#3 v=83
213203 On ch=2 n=c#4 v=83
213360 Off ch=2 n=c#4 v=64
213360 Off ch=2 n=c#3 v=64
213363 On ch=2 n=c#3 v=84
213363 On ch=2 n=c#4 v=84
213520 Off ch=2 n=c#4 v=64
213520 Off ch=2 n=c#3 v=64
213523 On ch=2 n=c#3 v=85
213523 On ch=2 n=c#4 v=85
213680 Off ch=2 n=c#4 v=64
213680 Off ch=2 n=c#3 v=64
213683 On ch=2 n=c#3 v=86
213683 On ch=2 n=c#4 v=86
213840 Off ch=2 n=c#4 v=64
213840 Off ch=2 n=c#3 v=64
213843 On ch=2 n=c#3 v=121
213843 On ch=2 n=c#4 v=121
214000 Off ch=2 n=c#4 v=64
214000 Off ch=2 n=c#3 v=64
214003 On ch=2 n=c4 v=88
214003 On ch=2 n=c3 v=88
214160 Off ch=2 n=c3 v=64
214160 Off ch=2 n=c4 v=64
214163 On ch=2 n=c3 v=89
214163 On ch=2 n=c4 v=89
214320 Off ch=2 n=c4 v=64
214320 Off ch=2 n=c3 v=64
214323 On ch=2 n=c3 v=90
214323 On ch=2 n=c4 v=90
214480 Off ch=2 n=c4 v=64
214480 Off ch=2 n=c3 v=64
214483 On ch=2 n=c#3 v=91
214483 On ch=2 n=c#4 v=91
214640 Off ch=2 n=c#4 v=64
214640 Off ch=2 n=c#3 v=64
214643 On ch=2 n=c#3 v=92
214643 On ch=2 n=c#4 v=92
214800 Off ch=2 n=c#4 v=64
214800 Off ch=2 n=c#3 v=64
214803 Par ch=2 c=64 v=127
214803 On ch=2 n=d3 v=108
214803 On ch=2 n=d4 v=108
214960 Off ch=2 n=d4 v=64
214960 Off ch=2 n=d3 v=64
214963 On ch=2 n=a#4 v=108
214963 On ch=2 n=f4 v=108
214963 On ch=2 n=a#3 v=108
215120 Off ch=2 n=a#3 v=64
215120 Off ch=2 n=f4 v=64
215120 Off ch=2 n=a#4 v=64
215123 On ch=2 n=a#3 v=108
215123 On ch=2 n=f4 v=108
215123 On ch=2 n=a#4 v=108
215280 Off ch=2 n=a#4 v=64
215280 Off ch=2 n=f4 v=64
215280 Off ch=2 n=a#3 v=64
215283 On ch=2 n=a#3 v=108
215283 On ch=2 n=f4 v=108
215283 On ch=2 n=a#4 v=108
215483 Off ch=2 n=a#4 v=64
215483 Off ch=2 n=f4 v=64
215483 Off ch=2 n=a#3 v=64
215523 Par ch=2 c=64 v=0
215763 Par ch=2 c=64 v=127
215763 On ch=2 n=d#2 v=127
215763 On ch=2 n=d#3 v=127
215920 Off ch=2 n=d#3 v=64
215920 Off ch=2 n=d#2 v=64
215923 On ch=2 n=a#4 v=108
215923 On ch=2 n=d#4 v=108
215923 On ch=2 n=a#3 v=108
216080 Off ch=2 n=a#3 v=64
216080 Off ch=2 n=d#4 v=64
216080 Off ch=2 n=a#4 v=64
216083 On ch=2 n=a#3 v=108
216083 On ch=2 n=d#4 v=108
216083 On ch=2 n=a#4 v=108
216240 Off ch=2 n=a#4 v=64
216240 Off ch=2 n=d#4 v=64
216240 Off ch=2 n=a#3 v=64
216243 On ch=2 n=a#3 v=108
216243 On ch=2 n=d#4 v=108
216243 On ch=2 n=a#4 v=108
216443 Off ch=2 n=a#4 v=64
216443 Off ch=2 n=d#4 v=64
216443 Off ch=2 n=a#3 v=64
216723 Par ch=2 c=64 v=0
216723 Par ch=2 c=64 v=127
216723 On ch=2 n=f2 v=108
216723 On ch=2 n=f3 v=108
216880 Off ch=2 n=f3 v=64
216880 Off ch=2 n=f2 v=64
216883 On ch=2 n=a#4 v=108
216883 On ch=2 n=f4 v=108
216883 On ch=2 n=a#3 v=108
217040 Off ch=2 n=a#3 v=64
217040 Off ch=2 n=f4 v=64
217040 Off ch=2 n=a#4 v=64
217043 On ch=2 n=a#3 v=108
217043 On ch=2 n=f4 v=108
217043 On ch=2 n=a#4 v=108
217200 Off ch=2 n=a#4 v=64
217200 Off ch=2 n=f4 v=64
217200 Off ch=2 n=a#3 v=64
217203 On ch=2 n=a#3 v=127
217203 On ch=2 n=f4 v=127
217203 On ch=2 n=a#4 v=127
217403 Off ch=2 n=a#4 v=64
217403 Off ch=2 n=f4 v=64
217403 Off ch=2 n=a#3 v=64
217683 Par ch=2 c=64 v=0
217683 Par ch=2 c=64 v=127
217683 On ch=2 n=f#2 v=127
217683 On ch=2 n=f#3 v=127
217840 Off ch=2 n=f#3 v=64
217840 Off ch=2 n=f#2 v=64
217843 On ch=2 n=a#4 v=108
217843 On ch=2 n=d#4 v=108
217843 On ch=2 n=a#3 v=108
218000 Off ch=2 n=a#3 v=64
218000 Off ch=2 n=d#4 v=64
218000 Off ch=2 n=a#4 v=64
218003 On ch=2 n=a#3 v=108
218003 On ch=2 n=d#4 v=108
218003 On ch=2 n=a#4 v=108
218160 Off ch=2 n=a#4 v=64
218160 Off ch=2 n=d#4 v=64
218160 Off ch=2 n=a#3 v=64
218163 On ch=2 n=a#3 v=108
218163 On ch=2 n=d#4 v=108
218163 On ch=2 n=a#4 v=108
218363 Off ch=2 n=a#4 v=64
218363 Off ch=2 n=d#4 v=64
218363 Off ch=2 n=a#3 v=64
218483 On ch=2 n=g2 v=108
218483 On ch=2 n=g3 v=108
218643 Off ch=2 n=g3 v=64
218643 Off ch=2 n=g2 v=64
218643 Par ch=2 c=64 v=0
218643 On ch=2 n=g#2 v=108
218643 On ch=2 n=g#3 v=108
218763 Off ch=2 n=g#3 v=64
218763 Off ch=2 n=g#2 v=64
218763 On ch=2 n=f3 v=108
218763 On ch=2 n=f2 v=108
218883 Off ch=2 n=f2 v=64
218883 Off ch=2 n=f3 v=64
219003 On ch=2 n=g2 v=108
219003 On ch=2 n=g3 v=108
219123 Off ch=2 n=g3 v=64
219123 Off ch=2 n=g2 v=64
219123 On ch=2 n=g#2 v=108
219123 On ch=2 n=g#3 v=108
219243 Off ch=2 n=g#3 v=64
219243 Off ch=2 n=g#2 v=64
219243 On ch=2 n=f2 v=108
219243 On ch=2 n=f3 v=108
219363 Off ch=2 n=f3 v=64
219363 Off ch=2 n=f2 v=64
219603 On ch=2 n=g#2 v=108
219603 On ch=2 n=g#3 v=108
219723 Off ch=2 n=g#3 v=64
219723 Off ch=2 n=g#2 v=64
219723 On ch=2 n=f3 v=108
219723 On ch=2 n=f2 v=108
219843 Off ch=2 n=f2 v=64
219843 Off ch=2 n=f3 v=64
219963 On ch=2 n=g2 v=108
219963 On ch=2 n=g3 v=108
220083 Off ch=2 n=g3 v=64
220083 Off ch=2 n=g2 v=64
220083 On ch=2 n=g#2 v=108
220083 On ch=2 n=g#3 v=108
220203 Off ch=2 n=g#3 v=64
220203 Off ch=2 n=g#2 v=64
220203 On ch=2 n=f2 v=108
220203 On ch=2 n=f3 v=108
220323 Off ch=2 n=f3 v=64
220323 Off ch=2 n=f2 v=64
220563 On ch=2 n=g#2 v=108
220563 On ch=2 n=g#3 v=108
220683 Off ch=2 n=g#3 v=64
220683 Off ch=2 n=g#2 v=64
220683 On ch=2 n=f3 v=108
220683 On ch=2 n=f2 v=108
220803 Off ch=2 n=f2 v=64
220803 Off ch=2 n=f3 v=64
220923 On ch=2 n=g2 v=108
220923 On ch=2 n=g3 v=108
221043 Off ch=2 n=g3 v=64
221043 Off ch=2 n=g2 v=64
221043 On ch=2 n=g#2 v=108
221043 On ch=2 n=g#3 v=108
221163 Off ch=2 n=g#3 v=64
221163 Off ch=2 n=g#2 v=64
221163 On ch=2 n=f2 v=108
221163 On ch=2 n=f3 v=108
221283 Off ch=2 n=f3 v=64
221283 Off ch=2 n=f2 v=64
221523 Par ch=2 c=64 v=127
221523 On ch=2 n=a2 v=108
221523 On ch=2 n=a3 v=108
221643 Off ch=2 n=a3 v=64
221643 Off ch=2 n=a2 v=64
221643 On ch=2 n=f#3 v=108
221643 On ch=2 n=f#2 v=108
221763 Off ch=2 n=f#2 v=64
221763 Off ch=2 n=f#3 v=64
221883 Par ch=2 c=64 v=0
221883 On ch=2 n=g2 v=108
221883 On ch=2 n=g3 v=108
222003 Off ch=2 n=g3 v=64
222003 Off ch=2 n=g2 v=64
222003 On ch=2 n=a2 v=108
222003 On ch=2 n=a3 v=108
222123 Off ch=2 n=a3 v=64
222123 Off ch=2 n=a2 v=64
222123 On ch=2 n=f#3 v=108
222123 On ch=2 n=f#4 v=108
222243 Off ch=2 n=f#4 v=64
222243 Off ch=2 n=f#3 v=64
222243 Par ch=2 c=64 v=0
222483 Par ch=2 c=64 v=127
222483 On ch=2 n=a#2 v=108
222483 On ch=2 n=a#3 v=108
222603 Off ch=2 n=a#3 v=64
222603 Off ch=2 n=a#2 v=64
222603 On ch=2 n=g3 v=108
222603 On ch=2 n=g2 v=108
222723 Off ch=2 n=g2 v=64
222723 Off ch=2 n=g3 v=64
222723 Par ch=2 c=64 v=0
222843 On ch=2 n=a2 v=108
222843 On ch=2 n=a3 v=108
222963 Off ch=2 n=a3 v=64
222963 Off ch=2 n=a2 v=64
222963 Par ch=2 c=64 v=127
222963 On ch=2 n=a#2 v=108
222963 On ch=2 n=a#3 v=108
223083 Off ch=2 n=a#3 v=64
223083 Off ch=2 n=a#2 v=64
223083 On ch=2 n=g3 v=108
223083 On ch=2 n=g4 v=108
223203 Off ch=2 n=g4 v=64
223203 Off ch=2 n=g3 v=64
223203 Par ch=2 c=64 v=0
223443 Par ch=2 c=64 v=127
223443 On ch=2 n=b2 v=108
223443 On ch=2 n=b3 v=108
223563 Off ch=2 n=b3 v=64
223563 Off ch=2 n=b2 v=64
223563 On ch=2 n=b4 v=108
223563 On ch=2 n=b3 v=108
223683 Off ch=2 n=b3 v=64
223683 Off ch=2 n=b4 v=64
223683 Par ch=2 c=64 v=0
223923 Par ch=2 c=64 v=127
223923 On ch=2 n=c3 v=108
223923 On ch=2 n=c4 v=108
224083 Off ch=2 n=c4 v=64
224083 Off ch=2 n=c3 v=64
224083 On ch=2 n=c4 v=108
224083 On ch=2 n=c5 v=108
224243 Off ch=2 n=c5 v=64
224243 Off ch=2 n=c4 v=64
224243 On ch=2 n=c#4 v=108
224243 On ch=2 n=c#5 v=108
224403 Off ch=2 n=c#5 v=64
224403 Off ch=2 n=c#4 v=64
224403 On ch=2 n=d5 v=127
224403 On ch=2 n=a#4 v=127
224403 On ch=2 n=d4 v=127
224403 Par ch=2 c=64 v=0
224823 Off ch=2 n=d4 v=64
224823 Off ch=2 n=a#4 v=64
224823 Off ch=2 n=d5 v=64
224883 On ch=2 n=d#4 v=127
224883 On ch=2 n=a#4 v=127
224883 On ch=2 n=d#5 v=127
225303 Off ch=2 n=d#5 v=64
225303 Off ch=2 n=a#4 v=64
225303 Off ch=2 n=d#4 v=64
225363 On ch=2 n=f#5 v=127
225363 On ch=2 n=d#5 v=127
225363 On ch=2 n=c5 v=127
225363 On ch=2 n=a#4 v=127
225363 On ch=2 n=f#4 v=127
225783 Off ch=2 n=f#4 v=64
225783 Off ch=2 n=a#4 v=64
225783 Off ch=2 n=c5 v=64
225783 Off ch=2 n=d#5 v=64
225783 Off ch=2 n=f#5 v=64
225843 On ch=2 n=f4 v=127
225843 On ch=2 n=c5 v=127
225843 On ch=2 n=d#5 v=127
225843 On ch=2 n=f5 v=127
226263 Off ch=2 n=f5 v=64
226263 Off ch=2 n=d#5 v=64
226263 Off ch=2 n=c5 v=64
226263 Off ch=2 n=f4 v=64
226323 On ch=2 n=a#4 v=127
226323 On ch=2 n=a#3 v=127
226743 Off ch=2 n=a#3 v=64
226743 Off ch=2 n=a#4 v=64
226803 On ch=2 n=d#3 v=127
226803 On ch=2 n=d#4 v=127
227223 Off ch=2 n=d#4 v=64
227223 Off ch=2 n=d#3 v=64
227283 On ch=2 n=a#3 v=127
227283 On ch=2 n=a#2 v=127
227703 Off ch=2 n=a#2 v=64
227703 Off ch=2 n=a#3 v=64
227763 On ch=2 n=d#2 v=127
227763 On ch=2 n=d#3 v=127
228183 Off ch=2 n=d#3 v=64
228183 Off ch=2 n=d#2 v=64
228243 On ch=2 n=a#3 v=108
228243 On ch=2 n=a#2 v=108
228243 Par ch=2 c=64 v=127
229143 Off ch=2 n=a#2 v=64
229143 Off ch=2 n=a#3 v=64
229203 On ch=2 n=d6 v=108
229203 On ch=2 n=a#5 v=108
229203 On ch=2 n=f5 v=108
229203 On ch=2 n=d5 v=108
230103 Off ch=2 n=d5 v=64
230103 Off ch=2 n=f5 v=64
230103 Off ch=2 n=a#5 v=64
230103 Off ch=2 n=d6 v=64
230163 On ch=2 n=a#4 v=108
230163 On ch=2 n=f4 v=108
230163 On ch=2 n=d4 v=108
230163 On ch=2 n=a#3 v=108
230163 On ch=2 n=f3 v=108
230163 On ch=2 n=a#2 v=108
231063 Off ch=2 n=a#2 v=64
231063 Off ch=2 n=f3 v=64
231063 Off ch=2 n=a#3 v=64
231063 Off ch=2 n=d4 v=64
231063 Off ch=2 n=f4 v=64
231063 Off ch=2 n=a#4 v=64
231123 Par ch=2 c=64 v=0
231123 Meta TrkEnd
TrkEnd
