MFile 1 4 480
MTrk
0 SMPTE 0 0 0 0 0
0 Tempo 1090909
0 TimeSig 4/4 24 8
480 Tempo 2307692
600 Tempo 1132075
960 Tempo 2307692
1060 Tempo 1132075
1440 Tempo 2307692
1540 Tempo 1200000
1920 Tempo 2142857
2027 Tempo 1333333
5250 Tempo 3750000
5280 Tempo 1276595
6060 Tempo 2307692
6240 Tempo 1276595
6670 Tempo 3750000
6720 Tempo 1538461
7190 Tempo 1764705
7200 Tempo 1395348
7680 Tempo 1176470
14400 Tempo 1250000
14880 Tempo 1304347
15360 Tempo 1176470
23031 Tempo 2500000
23040 Tempo 1176470
26865 Tempo 1500000
26880 Tempo 1176470
38385 Tempo 3750000
38400 Tempo 1176470
47021 Tempo 1714285
47040 Tempo 1276595
47510 Tempo 1500000
47520 Tempo 1250000
47975 Tempo 1818181
47990 Tempo 1538461
48000 Tempo 1276595
48480 Tempo 1333333
48840 Tempo 1666666
49920 Tempo 1578947
49985 Tempo 712482
50880 Tempo 1304347
50945 Tempo 698914
51840 Tempo 1200000
51905 Tempo 952380
52800 Tempo 1333333
52865 Tempo 967741
53136 Tempo 1016949
53280 Tempo 1153846
53760 Tempo 1132075
53880 Tempo 698914
53940 Tempo 685744
65280 Tempo 712482
65760 Tempo 937500
66240 Tempo 983606
66720 Tempo 1071428
66880 Tempo 1276595
67040 Tempo 1500000
67192 Tempo 2068965
67200 Tempo 1153846
67360 Tempo 923076
67671 Tempo 1090909
67680 Tempo 923076
67908 Tempo 967741
68306 Tempo 937500
68632 Tempo 1250000
68640 Tempo 1034482
68800 Tempo 1132075
69111 Tempo 1363636
69120 Tempo 1016949
69600 Tempo 1090909
71040 Tempo 1153846
71200 Tempo 923076
71511 Tempo 1090909
71520 Tempo 923076
71748 Tempo 967741
72146 Tempo 937500
72472 Tempo 1250000
72480 Tempo 1034482
72640 Tempo 1132075
72951 Tempo 1363636
72960 Tempo 1016949
73440 Tempo 1090909
74880 Tempo 1153846
74980 Tempo 937500
75360 Tempo 923076
75832 Tempo 1666666
75840 Tempo 952380
76320 Tempo 937500
78720 Tempo 1052631
79200 Tempo 1071428
80640 Tempo 1000000
80740 Tempo 712482
81112 Tempo 1153846
81120 Tempo 698914
84580 Tempo 685744
94080 Tempo 685744
95040 Tempo 685744
96000 Tempo 685744
96120 Tempo 937500
96480 Tempo 952380
96720 Tempo 983606
96960 Tempo 1034482
97440 Tempo 1090909
97665 Tempo 1463414
97905 Tempo 2000000
97920 Tempo 1304347
98020 Tempo 967741
98400 Tempo 937500
98872 Tempo 1052631
98980 Tempo 937500
99360 Tempo 1071428
99833 Tempo 1250000
99840 Tempo 1090909
100320 Tempo 1071428
101760 Tempo 1304347
101860 Tempo 967741
102240 Tempo 937500
102712 Tempo 1052631
102820 Tempo 937500
103200 Tempo 1071428
103673 Tempo 1250000
103680 Tempo 1090909
104160 Tempo 1132075
104640 Tempo 1224489
105600 Tempo 1034482
105700 Tempo 937500
106080 Tempo 923076
106552 Tempo 1666666
106560 Tempo 952380
107040 Tempo 937500
108000 Tempo 1034482
108480 Tempo 1052631
109440 Tempo 1034482
109920 Tempo 1090909
110160 Tempo 1176470
110400 Tempo 1111111
111360 Tempo 1000000
111460 Tempo 712482
111832 Tempo 1153846
111840 Tempo 698914
113280 Tempo 685744
126720 Tempo 685744
126840 Tempo 937500
127200 Tempo 952380
127440 Tempo 983606
127680 Tempo 1034482
128160 Tempo 1090909
128385 Tempo 1463414
128625 Tempo 2000000
128640 Tempo 1304347
128740 Tempo 967741
129120 Tempo 937500
129592 Tempo 1052631
129700 Tempo 937500
130080 Tempo 1071428
130553 Tempo 1250000
130560 Tempo 1090909
131040 Tempo 1071428
132480 Tempo 1304347
132580 Tempo 967741
132960 Tempo 937500
133432 Tempo 1052631
133540 Tempo 937500
133920 Tempo 1071428
134393 Tempo 1250000
134400 Tempo 1090909
134880 Tempo 1132075
135360 Tempo 1224489
136320 Tempo 1034482
136420 Tempo 937500
136800 Tempo 923076
137272 Tempo 1666666
137280 Tempo 952380
137760 Tempo 937500
138720 Tempo 1034482
139200 Tempo 1052631
140160 Tempo 1034482
140640 Tempo 1090909
140880 Tempo 1176470
141120 Tempo 1111111
142080 Tempo 983606
142560 Tempo 937500
143040 Tempo 923076
143520 Tempo 712482
147840 Tempo 698914
149760 Tempo 685744
161280 Tempo 685744
168960 Tempo 937500
184320 Tempo 1016949
184800 Tempo 1071428
185760 Tempo 1111111
188120 Tempo 631578
188160 Tempo 983606
195360 Tempo 1224489
195730 Tempo 1090909
195840 Tempo 983606
215040 Tempo 1016949
223200 Tempo 1071428
224160 Tempo 1111111
225600 Tempo 1132075
226080 Tempo 1224489
226560 Tempo 1395348
228460 Tempo 1463414
228480 Tempo 1764705
228480 Meta TrkEnd
TrkEnd
MTrk
0 SeqSpec 43 00 01 00
0 Meta TrkName "Acoustic Grand Piano"
0 SeqSpec 03 00 01 00 00
0 SeqSpec 03 00 02 00 00
0 SeqSpec 03 00 0e 01
0 SeqSpec 03 00 0f 00
0 SeqSpec 03 00 13 01
0 Meta 0x21 00
0 Meta 0x20 00
0 SeqSpec 03 00 07 00
0 SeqSpec 03 00 08 7f
0 SeqSpec 03 00 09 40
414 On ch=1 n=d#5 v=90
477 On ch=1 n=d#5 v=0
480 On ch=1 n=c#5 v=90
850 On ch=1 n=c#5 v=0
900 On ch=1 n=d#5 v=90
946 On ch=1 n=d#5 v=0
960 On ch=1 n=b4 v=90
1330 On ch=1 n=b4 v=0
1380 On ch=1 n=d#5 v=90
1426 On ch=1 n=d#5 v=0
1440 On ch=1 n=a#4 v=90
1810 On ch=1 n=a#4 v=0
1860 On ch=1 n=b4 v=90
1906 On ch=1 n=b4 v=0
1920 On ch=1 n=g#4 v=90
2290 On ch=1 n=g#4 v=0
2340 On ch=1 n=e5 v=92
2390 On ch=1 n=e5 v=0
2400 On ch=1 n=e5 v=92
3840 On ch=1 n=g4 v=57
3840 On ch=1 n=c5 v=60
4290 On ch=1 n=e5 v=0
4311 On ch=1 n=c5 v=0
4311 On ch=1 n=g4 v=0
4320 On ch=1 n=d5 v=67
4320 On ch=1 n=f4 v=64
4320 On ch=1 n=g4 v=64
4664 On ch=1 n=g4 v=0
4664 On ch=1 n=f4 v=0
4664 On ch=1 n=d5 v=0
4680 On ch=1 n=c5 v=60
4680 On ch=1 n=e4 v=59
4680 On ch=1 n=g4 v=57
4782 On ch=1 n=g4 v=0
4782 On ch=1 n=e4 v=0
4782 On ch=1 n=c5 v=0
4800 On ch=1 n=b4 v=71
4800 On ch=1 n=f5 v=74
5210 On ch=1 n=f5 v=0
5210 On ch=1 n=b4 v=0
5280 On ch=1 n=f#5 v=76
5280 On ch=1 n=b4 v=68
5570 On ch=1 n=b4 v=0
5570 On ch=1 n=f#5 v=0
5640 On ch=1 n=a#5 v=70
5640 On ch=1 n=a#4 v=70
5730 On ch=1 n=a#4 v=0
5730 On ch=1 n=a#5 v=0
5800 On ch=1 n=a#4 v=71
5840 On ch=1 n=e5 v=74
5890 On ch=1 n=c#6 v=78
6275 On ch=1 n=a#4 v=0
6315 On ch=1 n=e5 v=0
6365 On ch=1 n=c#6 v=0
6720 On ch=1 n=b4 v=38
6720 On ch=1 n=d#5 v=38
6720 On ch=1 n=b5 v=43
7095 On ch=1 n=b5 v=0
7095 On ch=1 n=d#5 v=0
7095 On ch=1 n=b4 v=0
7200 On ch=1 n=f#5 v=54
7590 On ch=1 n=d#6 v=61
7600 On ch=1 n=f#5 v=0
7670 On ch=1 n=d#6 v=0
7680 On ch=1 n=d#6 v=61
8640 On ch=1 n=d#6 v=0
8640 On ch=1 n=b5 v=61
9000 On ch=1 n=b5 v=0
9000 On ch=1 n=c#6 v=61
9120 On ch=1 n=c#6 v=0
9120 On ch=1 n=d#6 v=61
9480 On ch=1 n=d#6 v=0
9480 On ch=1 n=e6 v=61
9588 On ch=1 n=e6 v=0
9600 On ch=1 n=d#6 v=61
10032 On ch=1 n=d#6 v=0
10080 On ch=1 n=c#6 v=61
10440 On ch=1 n=c#6 v=0
10440 On ch=1 n=d#6 v=61
10542 On ch=1 n=d#6 v=0
10560 On ch=1 n=e6 v=61
10800 On ch=1 n=e6 v=0
10800 On ch=1 n=f#6 v=61
10880 On ch=1 n=f#6 v=0
10880 On ch=1 n=e6 v=61
10960 On ch=1 n=e6 v=0
10960 On ch=1 n=d#6 v=61
11030 On ch=1 n=d#6 v=0
11040 On ch=1 n=e6 v=61
11400 On ch=1 n=e6 v=0
11400 On ch=1 n=f#6 v=61
11520 On ch=1 n=f#6 v=0
11520 On ch=1 n=d#6 v=61
12480 On ch=1 n=d#6 v=0
12480 On ch=1 n=c#6 v=61
12960 On ch=1 n=c#6 v=0
12960 On ch=1 n=d#6 v=61
13200 On ch=1 n=d#6 v=0
13200 On ch=1 n=a#5 v=61
13440 On ch=1 n=a#5 v=0
13440 On ch=1 n=b5 v=61
13920 On ch=1 n=b5 v=0
13920 On ch=1 n=a#5 v=61
14280 On ch=1 n=a#5 v=0
14280 On ch=1 n=b5 v=61
14400 On ch=1 n=b5 v=0
14400 On ch=1 n=c#6 v=61
14880 On ch=1 n=c#6 v=0
14880 On ch=1 n=f#5 v=61
15200 On ch=1 n=f#5 v=0
15240 On ch=1 n=d#6 v=61
15345 On ch=1 n=d#6 v=0
15360 On ch=1 n=d#6 v=61
16320 On ch=1 n=d#6 v=0
16320 On ch=1 n=b5 v=61
16680 On ch=1 n=b5 v=0
16680 On ch=1 n=c#6 v=61
16800 On ch=1 n=c#6 v=0
16800 On ch=1 n=d#6 v=61
17120 On ch=1 n=f#6 v=61
17160 On ch=1 n=d#6 v=0
17160 On ch=1 n=e6 v=61
17192 On ch=1 n=f#6 v=0
17280 On ch=1 n=e6 v=0
17280 On ch=1 n=d#6 v=61
17760 On ch=1 n=d#6 v=0
17760 On ch=1 n=c#6 v=61
18120 On ch=1 n=c#6 v=0
18120 On ch=1 n=d#6 v=61
18240 On ch=1 n=d#6 v=0
18240 On ch=1 n=e6 v=61
18480 On ch=1 n=e6 v=0
18480 On ch=1 n=f#6 v=61
18560 On ch=1 n=f#6 v=0
18560 On ch=1 n=e6 v=61
18640 On ch=1 n=e6 v=0
18640 On ch=1 n=d#6 v=61
18712 On ch=1 n=d#6 v=0
18720 On ch=1 n=e6 v=61
19080 On ch=1 n=e6 v=0
19080 On ch=1 n=f#6 v=61
19200 On ch=1 n=f#6 v=0
19200 On ch=1 n=d#6 v=61
20280 On ch=1 n=c#6 v=61
20320 On ch=1 n=d#6 v=0
20400 On ch=1 n=f#6 v=65
20401 On ch=1 n=c#6 v=0
20520 On ch=1 n=g#6 v=68
20521 On ch=1 n=f#6 v=0
20640 On ch=1 n=b6 v=72
20641 On ch=1 n=g#6 v=0
20760 On ch=1 n=a#6 v=68
20761 On ch=1 n=b6 v=0
20880 On ch=1 n=f#6 v=66
20881 On ch=1 n=a#6 v=0
21000 On ch=1 n=d#6 v=63
21001 On ch=1 n=f#6 v=0
21120 On ch=1 n=b5 v=61
21121 On ch=1 n=d#6 v=0
22080 On ch=1 n=b5 v=0
22080 On ch=1 n=a#5 v=61
23025 On ch=1 n=a#5 v=0
23040 On ch=1 n=g#5 v=61
23520 On ch=1 n=g#6 v=74
23524 On ch=1 n=g#5 v=0
24360 On ch=1 n=c#6 v=65
24370 On ch=1 n=g#6 v=0
24480 On ch=1 n=c#6 v=0
24480 On ch=1 n=d#6 v=65
24840 On ch=1 n=d#6 v=0
24840 On ch=1 n=e6 v=65
24960 On ch=1 n=e6 v=0
24960 On ch=1 n=f#6 v=65
25320 On ch=1 n=f#6 v=0
25320 On ch=1 n=c6 v=61
25440 On ch=1 n=c6 v=0
25440 On ch=1 n=c#6 v=61
25800 On ch=1 n=c#6 v=0
25800 On ch=1 n=d#6 v=62
25920 On ch=1 n=d#6 v=0
25920 On ch=1 n=e6 v=62
26400 On ch=1 n=e6 v=0
26400 On ch=1 n=g5 v=64
26880 On ch=1 n=g5 v=0
26880 On ch=1 n=f#5 v=64
27360 On ch=1 n=f#5 v=0
27360 On ch=1 n=f#6 v=79
28200 On ch=1 n=f#6 v=0
28200 On ch=1 n=b5 v=64
28320 On ch=1 n=b5 v=0
28320 On ch=1 n=c#6 v=64
28680 On ch=1 n=c#6 v=0
28680 On ch=1 n=d#6 v=69
28800 On ch=1 n=d#6 v=0
28800 On ch=1 n=e6 v=69
29160 On ch=1 n=e6 v=0
29160 On ch=1 n=a#5 v=72
29280 On ch=1 n=a#5 v=0
29280 On ch=1 n=b5 v=70
29640 On ch=1 n=b5 v=0
29640 On ch=1 n=c#6 v=68
29760 On ch=1 n=c#6 v=0
29760 On ch=1 n=d#6 v=69
30240 On ch=1 n=d#6 v=0
30240 On ch=1 n=g#5 v=63
30616 On ch=1 n=g#5 v=0
30665 On ch=1 n=f#5 v=61
30745 On ch=1 n=d#6 v=61
31200 On ch=1 n=f#5 v=0
31200 On ch=1 n=g#5 v=59
31680 On ch=1 n=g#5 v=0
31680 On ch=1 n=d#6 v=0
31680 On ch=1 n=f#5 v=52
31680 On ch=1 n=b5 v=52
32040 On ch=1 n=b5 v=0
32040 On ch=1 n=c#6 v=54
32160 On ch=1 n=c#6 v=0
32160 On ch=1 n=d#6 v=55
32520 On ch=1 n=d#6 v=0
32520 On ch=1 n=e6 v=58
32620 On ch=1 n=f#5 v=0
32640 On ch=1 n=e6 v=0
32640 On ch=1 n=f#5 v=59
32640 On ch=1 n=d#6 v=59
33120 On ch=1 n=d#6 v=0
33120 On ch=1 n=f#5 v=0
33120 On ch=1 n=g#5 v=44
33120 On ch=1 n=c#6 v=44
33480 On ch=1 n=c#6 v=0
33480 On ch=1 n=d#6 v=49
33600 On ch=1 n=d#6 v=0
33600 On ch=1 n=g#5 v=0
33600 On ch=1 n=f#5 v=50
33600 On ch=1 n=e6 v=50
33840 On ch=1 n=e6 v=0
33840 On ch=1 n=f#6 v=54
33920 On ch=1 n=f#6 v=0
33920 On ch=1 n=e6 v=55
34000 On ch=1 n=e6 v=0
34000 On ch=1 n=d#6 v=56
34080 On ch=1 n=d#6 v=0
34080 On ch=1 n=f#5 v=0
34080 On ch=1 n=g#5 v=58
34080 On ch=1 n=e6 v=58
34440 On ch=1 n=e6 v=0
34440 On ch=1 n=f#6 v=63
34560 On ch=1 n=f#6 v=0
34560 On ch=1 n=g#5 v=0
34560 On ch=1 n=a5 v=64
34560 On ch=1 n=d#5 v=64
34560 On ch=1 n=d#6 v=64
35520 On ch=1 n=d#5 v=0
35520 On ch=1 n=a5 v=0
35520 On ch=1 n=g#5 v=47
35520 On ch=1 n=e5 v=47
35760 On ch=1 n=d#6 v=0
35760 On ch=1 n=c#6 v=60
36000 On ch=1 n=c#6 v=0
36000 On ch=1 n=e5 v=0
36000 On ch=1 n=g#5 v=0
36000 On ch=1 n=b5 v=61
36360 On ch=1 n=b5 v=0
36360 On ch=1 n=b6 v=61
36465 On ch=1 n=b6 v=0
36480 On ch=1 n=b6 v=61
36960 On ch=1 n=b6 v=0
36960 On ch=1 n=g#4 v=51
36960 On ch=1 n=b4 v=51
36960 On ch=1 n=c#5 v=53
37900 On ch=1 n=b4 v=0
37920 On ch=1 n=c#5 v=0
37920 On ch=1 n=g#4 v=0
37920 On ch=1 n=f#4 v=54
37920 On ch=1 n=b4 v=54
37920 On ch=1 n=d#5 v=57
38380 On ch=1 n=b4 v=0
38400 On ch=1 n=d#5 v=0
38400 On ch=1 n=f#4 v=0
38400 On ch=1 n=b4 v=61
38760 On ch=1 n=b4 v=0
38760 On ch=1 n=e5 v=61
38865 On ch=1 n=e5 v=0
38880 On ch=1 n=e5 v=61
39120 On ch=1 n=e5 v=0
39360 On ch=1 n=d#6 v=61
39600 On ch=1 n=d#6 v=0
39600 On ch=1 n=c#6 v=61
39840 On ch=1 n=c#6 v=0
39840 On ch=1 n=b5 v=61
40200 On ch=1 n=b5 v=0
40200 On ch=1 n=b6 v=61
40305 On ch=1 n=b6 v=0
40320 On ch=1 n=b6 v=61
40800 On ch=1 n=b6 v=0
40800 On ch=1 n=b4 v=55
40800 On ch=1 n=e5 v=59
41740 On ch=1 n=b4 v=0
41760 On ch=1 n=e5 v=0
41760 On ch=1 n=b4 v=48
41760 On ch=1 n=d5 v=48
41760 On ch=1 n=f#5 v=59
42220 On ch=1 n=d5 v=0
42220 On ch=1 n=b4 v=0
42240 On ch=1 n=f#5 v=0
42240 On ch=1 n=d5 v=32
42240 On ch=1 n=b4 v=32
42240 On ch=1 n=g#4 v=32
42240 On ch=1 n=g#5 v=54
42700 On ch=1 n=g#5 v=0
42700 On ch=1 n=g#4 v=0
42700 On ch=1 n=b4 v=0
42700 On ch=1 n=d5 v=0
42720 On ch=1 n=g#6 v=61
43200 On ch=1 n=g#5 v=61
43206 On ch=1 n=g#6 v=0
43660 On ch=1 n=g#5 v=0
43680 On ch=1 n=a#5 v=61
43680 On ch=1 n=g5 v=61
43735 On ch=1 n=a#5 v=0
43740 On ch=1 n=b5 v=61
43770 On ch=1 n=a#5 v=61
43795 On ch=1 n=b5 v=0
43800 On ch=1 n=b5 v=61
43806 On ch=1 n=a#5 v=0
43830 On ch=1 n=a#5 v=61
43836 On ch=1 n=b5 v=0
43860 On ch=1 n=b5 v=61
43866 On ch=1 n=a#5 v=0
43890 On ch=1 n=a#5 v=61
43896 On ch=1 n=b5 v=0
43920 On ch=1 n=b5 v=61
43926 On ch=1 n=a#5 v=0
43950 On ch=1 n=a#5 v=61
43956 On ch=1 n=b5 v=0
43985 On ch=1 n=b5 v=61
43992 On ch=1 n=a#5 v=0
44020 On ch=1 n=a#5 v=61
44027 On ch=1 n=b5 v=0
44072 On ch=1 n=a#5 v=0
44072 On ch=1 n=a5 v=61
44114 On ch=1 n=a#5 v=61
44116 On ch=1 n=a5 v=0
44160 On ch=1 n=g5 v=0
44160 On ch=1 n=g#5 v=51
44160 On ch=1 n=b5 v=64
44162 On ch=1 n=a#5 v=0
44620 On ch=1 n=b5 v=0
44620 On ch=1 n=g#5 v=0
44640 On ch=1 n=e6 v=61
45120 On ch=1 n=e5 v=61
45126 On ch=1 n=e6 v=0
45580 On ch=1 n=e5 v=0
45600 On ch=1 n=g5 v=43
45600 On ch=1 n=c#5 v=43
45660 On ch=1 n=g5 v=0
45660 On ch=1 n=g#5 v=45
45690 On ch=1 n=g5 v=47
45692 On ch=1 n=g#5 v=0
45720 On ch=1 n=g#5 v=49
45726 On ch=1 n=g5 v=0
45750 On ch=1 n=g5 v=51
45756 On ch=1 n=g#5 v=0
45780 On ch=1 n=g#5 v=52
45786 On ch=1 n=g5 v=0
45810 On ch=1 n=g5 v=52
45816 On ch=1 n=g#5 v=0
45840 On ch=1 n=g#5 v=52
45846 On ch=1 n=g5 v=0
45870 On ch=1 n=g5 v=51
45876 On ch=1 n=g#5 v=0
45905 On ch=1 n=g#5 v=49
45906 On ch=1 n=g5 v=0
45940 On ch=1 n=g5 v=47
45941 On ch=1 n=g#5 v=0
45992 On ch=1 n=f#5 v=45
45994 On ch=1 n=g5 v=0
46034 On ch=1 n=f#5 v=0
46034 On ch=1 n=g5 v=43
46080 On ch=1 n=c#5 v=0
46080 On ch=1 n=g#5 v=61
46080 On ch=1 n=d5 v=61
46081 On ch=1 n=g5 v=0
46560 On ch=1 n=b4 v=61
47040 On ch=1 n=d5 v=0
47040 On ch=1 n=c5 v=50
47040 On ch=1 n=d#5 v=61
47092 On ch=1 n=b4 v=0
47500 On ch=1 n=g#5 v=0
47520 On ch=1 n=d#5 v=0
47520 On ch=1 n=c5 v=0
47520 On ch=1 n=e5 v=56
47520 On ch=1 n=g#5 v=64
47980 On ch=1 n=g#5 v=0
48000 On ch=1 n=e5 v=0
48000 On ch=1 n=g#5 v=66
48000 On ch=1 n=f5 v=62
48000 On ch=1 n=b4 v=62
48480 On ch=1 n=g#5 v=0
48480 On ch=1 n=a#5 v=66
48840 On ch=1 n=a#5 v=0
48840 On ch=1 n=b5 v=65
48900 On ch=1 n=a#4 v=61
48935 On ch=1 n=e5 v=63
48950 On ch=1 n=b5 v=0
48959 On ch=1 n=g#5 v=65
48960 On ch=1 n=b4 v=0
48960 On ch=1 n=f5 v=0
49010 On ch=1 n=d#6 v=66
49440 On ch=1 n=g#5 v=0
49440 On ch=1 n=e5 v=0
49440 On ch=1 n=a#4 v=0
49440 On ch=1 n=c#6 v=45
49440 On ch=1 n=a#5 v=45
49440 On ch=1 n=f#5 v=45
49490 On ch=1 n=d#6 v=0
49920 On ch=1 n=f#5 v=0
49920 On ch=1 n=a#5 v=0
49920 On ch=1 n=c#6 v=0
49920 On ch=1 n=b5 v=61
49920 On ch=1 n=d#5 v=50
50880 On ch=1 n=d#5 v=0
50880 On ch=1 n=c#5 v=55
50880 On ch=1 n=e5 v=63
51600 On ch=1 n=b4 v=56
51600 On ch=1 n=f#5 v=65
51614 On ch=1 n=e5 v=0
51614 On ch=1 n=c#5 v=0
51825 On ch=1 n=b5 v=0
51837 On ch=1 n=f#5 v=0
51837 On ch=1 n=b4 v=0
51840 On ch=1 n=b4 v=61
51840 On ch=1 n=b5 v=55
51840 On ch=1 n=e5 v=55
51840 On ch=1 n=g#5 v=65
52771 On ch=1 n=b5 v=0
52771 On ch=1 n=b4 v=0
52800 On ch=1 n=b5 v=47
52800 On ch=1 n=a5 v=34
52800 On ch=1 n=b4 v=34
52800 On ch=1 n=d#5 v=34
52809 On ch=1 n=g#5 v=0
52809 On ch=1 n=e5 v=0
53753 On ch=1 n=d#5 v=0
53753 On ch=1 n=b4 v=0
53753 On ch=1 n=a5 v=0
53753 On ch=1 n=b5 v=0
53760 On ch=1 n=b5 v=61
53920 On ch=1 n=g#5 v=61
54080 On ch=1 n=f#5 v=57
54240 On ch=1 n=f#5 v=0
54240 On ch=1 n=e5 v=51
54400 On ch=1 n=g#5 v=0
54400 On ch=1 n=b4 v=45
54560 On ch=1 n=e5 v=0
54560 On ch=1 n=g#5 v=49
54672 On ch=1 n=b5 v=0
54720 On ch=1 n=g#5 v=0
54720 On ch=1 n=b4 v=0
54720 On ch=1 n=b5 v=53
54880 On ch=1 n=g#5 v=61
55040 On ch=1 n=f#5 v=55
55200 On ch=1 n=f#5 v=0
55200 On ch=1 n=e5 v=49
55360 On ch=1 n=g#5 v=0
55360 On ch=1 n=b4 v=45
55520 On ch=1 n=e5 v=0
55520 On ch=1 n=g#5 v=51
55632 On ch=1 n=b5 v=0
55680 On ch=1 n=g#5 v=0
55680 On ch=1 n=b4 v=0
55680 On ch=1 n=b5 v=63
55840 On ch=1 n=g#5 v=55
56000 On ch=1 n=f#5 v=49
56160 On ch=1 n=f#5 v=0
56160 On ch=1 n=e5 v=43
56320 On ch=1 n=g#5 v=0
56320 On ch=1 n=b4 v=43
56480 On ch=1 n=e5 v=0
56480 On ch=1 n=g#5 v=49
56592 On ch=1 n=b5 v=0
56640 On ch=1 n=g#5 v=0
56640 On ch=1 n=b4 v=0
56640 On ch=1 n=c#6 v=53
56800 On ch=1 n=g#5 v=57
56960 On ch=1 n=f#5 v=53
57120 On ch=1 n=f#5 v=0
57120 On ch=1 n=e5 v=47
57280 On ch=1 n=g#5 v=0
57280 On ch=1 n=c#5 v=43
57440 On ch=1 n=c#5 v=0
57440 On ch=1 n=e5 v=0
57440 On ch=1 n=a5 v=49
57552 On ch=1 n=c#6 v=0
57600 On ch=1 n=b5 v=61
57760 On ch=1 n=a5 v=0
57760 On ch=1 n=g#5 v=53
57920 On ch=1 n=b5 v=0
57920 On ch=1 n=f#5 v=49
58080 On ch=1 n=f#5 v=0
58080 On ch=1 n=e5 v=45
58240 On ch=1 n=g#5 v=0
58240 On ch=1 n=b4 v=42
58400 On ch=1 n=b4 v=0
58400 On ch=1 n=e5 v=0
58400 On ch=1 n=g#5 v=43
58552 On ch=1 n=g#5 v=0
58560 On ch=1 n=g#5 v=53
58720 On ch=1 n=e5 v=53
58880 On ch=1 n=d#5 v=49
59040 On ch=1 n=d#5 v=0
59040 On ch=1 n=c#5 v=45
59200 On ch=1 n=e5 v=0
59200 On ch=1 n=g#4 v=42
59360 On ch=1 n=c#5 v=0
59360 On ch=1 n=e5 v=51
59472 On ch=1 n=g#5 v=0
59512 On ch=1 n=e5 v=0
59520 On ch=1 n=g#4 v=0
59520 On ch=1 n=g#5 v=59
59680 On ch=1 n=e5 v=55
59840 On ch=1 n=d#5 v=51
60000 On ch=1 n=d#5 v=0
60000 On ch=1 n=g#5 v=0
60000 On ch=1 n=c#5 v=47
60155 On ch=1 n=e5 v=0
60160 On ch=1 n=g#4 v=42
60320 On ch=1 n=c#5 v=0
60320 On ch=1 n=e5 v=47
60472 On ch=1 n=e5 v=0
60480 On ch=1 n=g#4 v=0
60480 On ch=1 n=e5 v=55
60640 On ch=1 n=c#5 v=63
60800 On ch=1 n=b4 v=61
60960 On ch=1 n=b4 v=0
60960 On ch=1 n=e5 v=0
60960 On ch=1 n=a4 v=57
61120 On ch=1 n=c#5 v=0
61120 On ch=1 n=e4 v=53
61280 On ch=1 n=a4 v=0
61280 On ch=1 n=c#5 v=61
61432 On ch=1 n=c#5 v=0
61440 On ch=1 n=e4 v=0
61440 On ch=1 n=e5 v=61
61600 On ch=1 n=b4 v=65
61760 On ch=1 n=a4 v=61
61920 On ch=1 n=a4 v=0
61920 On ch=1 n=g#4 v=55
62080 On ch=1 n=b4 v=0
62080 On ch=1 n=e4 v=51
62240 On ch=1 n=g#4 v=0
62240 On ch=1 n=b4 v=57
62352 On ch=1 n=e5 v=0
62400 On ch=1 n=b4 v=0
62400 On ch=1 n=e4 v=0
62400 On ch=1 n=d#5 v=67
62560 On ch=1 n=b4 v=63
62720 On ch=1 n=a4 v=57
62880 On ch=1 n=a4 v=0
62880 On ch=1 n=g#4 v=53
63040 On ch=1 n=b4 v=0
63040 On ch=1 n=e4 v=49
63200 On ch=1 n=g#4 v=0
63200 On ch=1 n=b4 v=45
63312 On ch=1 n=d#5 v=0
63355 On ch=1 n=b4 v=0
63360 On ch=1 n=e4 v=0
63360 On ch=1 n=c#5 v=69
63520 On ch=1 n=a4 v=63
63680 On ch=1 n=g#4 v=57
63840 On ch=1 n=g#4 v=0
63840 On ch=1 n=f#4 v=53
64000 On ch=1 n=a4 v=0
64000 On ch=1 n=d#4 v=51
64160 On ch=1 n=f#4 v=0
64160 On ch=1 n=a4 v=59
64272 On ch=1 n=c#5 v=0
64320 On ch=1 n=a4 v=0
64320 On ch=1 n=d#4 v=0
64320 On ch=1 n=b4 v=67
64480 On ch=1 n=g#4 v=59
64640 On ch=1 n=f#4 v=53
64800 On ch=1 n=f#4 v=0
64800 On ch=1 n=e4 v=49
64960 On ch=1 n=g#4 v=0
64960 On ch=1 n=d4 v=51
65120 On ch=1 n=e4 v=0
65120 On ch=1 n=g#4 v=51
65232 On ch=1 n=b4 v=0
65280 On ch=1 n=g#4 v=0
65280 On ch=1 n=d4 v=0
65280 On ch=1 n=b4 v=65
65440 On ch=1 n=g#4 v=57
65600 On ch=1 n=f#4 v=49
65760 On ch=1 n=f#4 v=0
65760 On ch=1 n=e4 v=47
65920 On ch=1 n=g#4 v=0
65920 On ch=1 n=c#4 v=40
66080 On ch=1 n=e4 v=0
66080 On ch=1 n=g#4 v=47
66192 On ch=1 n=b4 v=0
66240 On ch=1 n=g#4 v=0
66240 On ch=1 n=c#4 v=0
66240 On ch=1 n=a4 v=53
66400 On ch=1 n=f#4 v=45
66560 On ch=1 n=e4 v=40
66720 On ch=1 n=e4 v=0
66720 On ch=1 n=d#4 v=42
66880 On ch=1 n=f#4 v=0
66880 On ch=1 n=c4 v=30
67040 On ch=1 n=d#4 v=0
67040 On ch=1 n=f#4 v=26
67200 On ch=1 n=f#4 v=0
67200 On ch=1 n=c4 v=0
67200 On ch=1 n=a4 v=0
67200 On ch=1 n=g#4 v=45
67360 On ch=1 n=b3 v=40
67520 On ch=1 n=g#4 v=0
67520 On ch=1 n=e4 v=36
67680 On ch=1 n=e4 v=0
67680 On ch=1 n=b3 v=0
67680 On ch=1 n=g#4 v=43
67840 On ch=1 n=a4 v=51
67848 On ch=1 n=g#4 v=0
68000 On ch=1 n=c#5 v=45
68008 On ch=1 n=a4 v=0
68160 On ch=1 n=b4 v=57
68168 On ch=1 n=c#5 v=0
68320 On ch=1 n=e5 v=47
68328 On ch=1 n=b4 v=0
68480 On ch=1 n=g#5 v=45
68488 On ch=1 n=e5 v=0
68640 On ch=1 n=b5 v=55
68648 On ch=1 n=g#5 v=0
68800 On ch=1 n=b6 v=61
68808 On ch=1 n=b5 v=0
68960 On ch=1 n=c#6 v=57
68968 On ch=1 n=b6 v=0
69112 On ch=1 n=c#6 v=0
69120 On ch=1 n=a5 v=65
69120 On ch=1 n=d#6 v=65
69830 On ch=1 n=a5 v=0
69840 On ch=1 n=d#6 v=0
69840 On ch=1 n=g#6 v=61
69840 On ch=1 n=a5 v=61
70070 On ch=1 n=a5 v=0
70080 On ch=1 n=g#6 v=0
70080 On ch=1 n=f#6 v=61
70080 On ch=1 n=a5 v=61
70560 On ch=1 n=a5 v=0
70560 On ch=1 n=f#6 v=0
71040 On ch=1 n=e3 v=52
71200 On ch=1 n=e3 v=0
71200 On ch=1 n=b3 v=47
71360 On ch=1 n=b3 v=0
71360 On ch=1 n=e4 v=44
71520 On ch=1 n=e4 v=0
71520 On ch=1 n=g#4 v=48
71680 On ch=1 n=a4 v=56
71688 On ch=1 n=g#4 v=0
71840 On ch=1 n=c#5 v=50
71848 On ch=1 n=a4 v=0
72000 On ch=1 n=b4 v=62
72008 On ch=1 n=c#5 v=0
72160 On ch=1 n=e5 v=52
72168 On ch=1 n=b4 v=0
72320 On ch=1 n=g#5 v=50
72328 On ch=1 n=e5 v=0
72480 On ch=1 n=b5 v=60
72488 On ch=1 n=g#5 v=0
72640 On ch=1 n=b6 v=66
72648 On ch=1 n=b5 v=0
72800 On ch=1 n=c#6 v=62
72808 On ch=1 n=b6 v=0
72952 On ch=1 n=c#6 v=0
72960 On ch=1 n=d#6 v=59
72960 On ch=1 n=g#5 v=59
73680 On ch=1 n=g#5 v=0
73680 On ch=1 n=d#6 v=0
73680 On ch=1 n=e6 v=61
73680 On ch=1 n=g5 v=61
73920 On ch=1 n=g5 v=0
73920 On ch=1 n=e6 v=0
73920 On ch=1 n=d#6 v=61
73920 On ch=1 n=a#5 v=61
74860 On ch=1 n=a#5 v=0
74860 On ch=1 n=d#6 v=0
74880 On ch=1 n=g#3 v=61
75040 On ch=1 n=g#3 v=0
75040 On ch=1 n=d#4 v=71
75200 On ch=1 n=d#4 v=0
75200 On ch=1 n=g#4 v=61
75360 On ch=1 n=g#4 v=0
75360 On ch=1 n=a#4 v=75
75520 On ch=1 n=b4 v=71
75528 On ch=1 n=a#4 v=0
75680 On ch=1 n=e5 v=67
75688 On ch=1 n=b4 v=0
75840 On ch=1 n=d#5 v=65
75848 On ch=1 n=e5 v=0
76000 On ch=1 n=g#5 v=69
76008 On ch=1 n=d#5 v=0
76160 On ch=1 n=b5 v=73
76168 On ch=1 n=g#5 v=0
76320 On ch=1 n=d#6 v=77
76328 On ch=1 n=b5 v=0
76480 On ch=1 n=g#6 v=63
76488 On ch=1 n=d#6 v=0
76640 On ch=1 n=g#5 v=61
76648 On ch=1 n=g#6 v=0
76792 On ch=1 n=g#5 v=0
76800 On ch=1 n=g#5 v=79
76800 On ch=1 n=c#5 v=79
77280 On ch=1 n=c#5 v=0
77280 On ch=1 n=b4 v=61
77750 On ch=1 n=g#5 v=0
77760 On ch=1 n=g#5 v=61
78480 On ch=1 n=g#5 v=0
78480 On ch=1 n=a#5 v=61
78720 On ch=1 n=a#5 v=0
78720 On ch=1 n=b4 v=0
78720 On ch=1 n=c#5 v=61
78720 On ch=1 n=g#5 v=61
79200 On ch=1 n=c#5 v=0
79200 On ch=1 n=b4 v=61
79670 On ch=1 n=g#5 v=0
79680 On ch=1 n=g#5 v=61
80400 On ch=1 n=g#5 v=0
80400 On ch=1 n=a#5 v=61
80640 On ch=1 n=a#5 v=0
80640 On ch=1 n=b4 v=0
80640 On ch=1 n=b5 v=61
80800 On ch=1 n=a#5 v=71
80960 On ch=1 n=a#5 v=0
80960 On ch=1 n=g#5 v=63
81120 On ch=1 n=d#5 v=55
81280 On ch=1 n=g#5 v=0
81280 On ch=1 n=b4 v=49
81440 On ch=1 n=d#5 v=0
81440 On ch=1 n=g#5 v=51
81590 On ch=1 n=b5 v=0
81600 On ch=1 n=g#5 v=0
81600 On ch=1 n=b4 v=0
81600 On ch=1 n=b5 v=71
81760 On ch=1 n=a#5 v=65
81920 On ch=1 n=a#5 v=0
81920 On ch=1 n=g#5 v=57
82080 On ch=1 n=d#5 v=51
82240 On ch=1 n=g#5 v=0
82240 On ch=1 n=b4 v=59
82400 On ch=1 n=d#5 v=0
82400 On ch=1 n=g#5 v=49
82550 On ch=1 n=b5 v=0
82560 On ch=1 n=g#5 v=0
82560 On ch=1 n=b4 v=0
82560 On ch=1 n=b5 v=86
82720 On ch=1 n=g#5 v=65
82728 On ch=1 n=b5 v=0
82880 On ch=1 n=e6 v=85
82888 On ch=1 n=g#5 v=0
83040 On ch=1 n=d#6 v=71
83048 On ch=1 n=e6 v=0
83200 On ch=1 n=b5 v=59
83208 On ch=1 n=d#6 v=0
83360 On ch=1 n=g#5 v=47
83368 On ch=1 n=b5 v=0
83520 On ch=1 n=c#5 v=57
83528 On ch=1 n=g#5 v=0
83680 On ch=1 n=d#5 v=43
83688 On ch=1 n=c#5 v=0
83840 On ch=1 n=a#4 v=40
83848 On ch=1 n=d#5 v=0
84000 On ch=1 n=b4 v=43
84008 On ch=1 n=a#4 v=0
84160 On ch=1 n=g#4 v=36
84168 On ch=1 n=b4 v=0
84320 On ch=1 n=g#5 v=40
84328 On ch=1 n=g#4 v=0
84470 On ch=1 n=g#5 v=0
84480 On ch=1 n=b5 v=61
84640 On ch=1 n=g#5 v=61
84800 On ch=1 n=f#5 v=57
84960 On ch=1 n=f#5 v=0
84960 On ch=1 n=e5 v=51
85120 On ch=1 n=g#5 v=0
85120 On ch=1 n=b4 v=45
85280 On ch=1 n=e5 v=0
85280 On ch=1 n=g#5 v=49
85392 On ch=1 n=b5 v=0
85440 On ch=1 n=g#5 v=0
85440 On ch=1 n=b4 v=0
85440 On ch=1 n=b5 v=53
85600 On ch=1 n=g#5 v=61
85760 On ch=1 n=f#5 v=55
85920 On ch=1 n=f#5 v=0
85920 On ch=1 n=e5 v=49
86080 On ch=1 n=g#5 v=0
86080 On ch=1 n=b4 v=45
86240 On ch=1 n=e5 v=0
86240 On ch=1 n=g#5 v=51
86352 On ch=1 n=b5 v=0
86400 On ch=1 n=g#5 v=0
86400 On ch=1 n=b4 v=0
86400 On ch=1 n=b5 v=63
86560 On ch=1 n=g#5 v=55
86720 On ch=1 n=f#5 v=49
86880 On ch=1 n=f#5 v=0
86880 On ch=1 n=e5 v=43
87040 On ch=1 n=g#5 v=0
87040 On ch=1 n=b4 v=43
87200 On ch=1 n=e5 v=0
87200 On ch=1 n=g#5 v=49
87312 On ch=1 n=b5 v=0
87360 On ch=1 n=g#5 v=0
87360 On ch=1 n=b4 v=0
87360 On ch=1 n=c#6 v=53
87520 On ch=1 n=g#5 v=57
87680 On ch=1 n=f#5 v=53
87840 On ch=1 n=f#5 v=0
87840 On ch=1 n=e5 v=47
88000 On ch=1 n=g#5 v=0
88000 On ch=1 n=c#5 v=43
88160 On ch=1 n=c#5 v=0
88160 On ch=1 n=e5 v=0
88160 On ch=1 n=a5 v=49
88272 On ch=1 n=c#6 v=0
88320 On ch=1 n=b5 v=61
88480 On ch=1 n=a5 v=0
88480 On ch=1 n=g#5 v=53
88640 On ch=1 n=b5 v=0
88640 On ch=1 n=f#5 v=49
88800 On ch=1 n=f#5 v=0
88800 On ch=1 n=e5 v=45
88960 On ch=1 n=g#5 v=0
88960 On ch=1 n=b4 v=42
89120 On ch=1 n=b4 v=0
89120 On ch=1 n=e5 v=0
89120 On ch=1 n=g#5 v=43
89272 On ch=1 n=g#5 v=0
89280 On ch=1 n=g#5 v=53
89440 On ch=1 n=e5 v=53
89600 On ch=1 n=d#5 v=49
89760 On ch=1 n=d#5 v=0
89760 On ch=1 n=c#5 v=45
89920 On ch=1 n=e5 v=0
89920 On ch=1 n=g#4 v=42
90080 On ch=1 n=c#5 v=0
90080 On ch=1 n=e5 v=51
90192 On ch=1 n=g#5 v=0
90232 On ch=1 n=e5 v=0
90240 On ch=1 n=g#4 v=0
90240 On ch=1 n=g#5 v=59
90400 On ch=1 n=e5 v=55
90560 On ch=1 n=d#5 v=51
90720 On ch=1 n=d#5 v=0
90720 On ch=1 n=g#5 v=0
90720 On ch=1 n=c#5 v=47
90875 On ch=1 n=e5 v=0
90880 On ch=1 n=g#4 v=42
91040 On ch=1 n=c#5 v=0
91040 On ch=1 n=e5 v=47
91192 On ch=1 n=e5 v=0
91200 On ch=1 n=g#4 v=0
91200 On ch=1 n=e5 v=55
91360 On ch=1 n=c#5 v=63
91520 On ch=1 n=b4 v=61
91680 On ch=1 n=b4 v=0
91680 On ch=1 n=e5 v=0
91680 On ch=1 n=a4 v=57
91840 On ch=1 n=c#5 v=0
91840 On ch=1 n=e4 v=53
92000 On ch=1 n=a4 v=0
92000 On ch=1 n=c#5 v=61
92152 On ch=1 n=c#5 v=0
92160 On ch=1 n=e4 v=0
92160 On ch=1 n=e5 v=61
92320 On ch=1 n=b4 v=65
92480 On ch=1 n=a4 v=61
92640 On ch=1 n=a4 v=0
92640 On ch=1 n=g#4 v=55
92800 On ch=1 n=b4 v=0
92800 On ch=1 n=e4 v=51
92960 On ch=1 n=g#4 v=0
92960 On ch=1 n=b4 v=57
93072 On ch=1 n=e5 v=0
93120 On ch=1 n=b4 v=0
93120 On ch=1 n=e4 v=0
93120 On ch=1 n=d#5 v=67
93280 On ch=1 n=b4 v=63
93440 On ch=1 n=a4 v=57
93600 On ch=1 n=a4 v=0
93600 On ch=1 n=g#4 v=53
93760 On ch=1 n=b4 v=0
93760 On ch=1 n=e4 v=49
93920 On ch=1 n=g#4 v=0
93920 On ch=1 n=b4 v=45
94032 On ch=1 n=d#5 v=0
94075 On ch=1 n=b4 v=0
94080 On ch=1 n=e4 v=0
94080 On ch=1 n=c#5 v=69
94240 On ch=1 n=a4 v=63
94400 On ch=1 n=g#4 v=57
94560 On ch=1 n=g#4 v=0
94560 On ch=1 n=f#4 v=53
94720 On ch=1 n=a4 v=0
94720 On ch=1 n=d#4 v=51
94880 On ch=1 n=f#4 v=0
94880 On ch=1 n=a4 v=59
94992 On ch=1 n=c#5 v=0
95040 On ch=1 n=a4 v=0
95040 On ch=1 n=d#4 v=0
95040 On ch=1 n=b4 v=67
95200 On ch=1 n=g#4 v=59
95360 On ch=1 n=f#4 v=53
95520 On ch=1 n=f#4 v=0
95520 On ch=1 n=e4 v=49
95680 On ch=1 n=g#4 v=0
95680 On ch=1 n=d4 v=51
95840 On ch=1 n=e4 v=0
95840 On ch=1 n=g#4 v=51
95952 On ch=1 n=b4 v=0
96000 On ch=1 n=g#4 v=0
96000 On ch=1 n=d4 v=0
96000 On ch=1 n=b4 v=65
96160 On ch=1 n=g#4 v=57
96320 On ch=1 n=f#4 v=49
96480 On ch=1 n=f#4 v=0
96480 On ch=1 n=e4 v=47
96640 On ch=1 n=g#4 v=0
96640 On ch=1 n=c#4 v=40
96800 On ch=1 n=e4 v=0
96800 On ch=1 n=g#4 v=47
96912 On ch=1 n=b4 v=0
96960 On ch=1 n=g#4 v=0
96960 On ch=1 n=c#4 v=0
96960 On ch=1 n=a4 v=53
97120 On ch=1 n=f#4 v=45
97280 On ch=1 n=e4 v=40
97440 On ch=1 n=e4 v=0
97440 On ch=1 n=d#4 v=42
97600 On ch=1 n=f#4 v=0
97600 On ch=1 n=c4 v=30
97760 On ch=1 n=d#4 v=0
97760 On ch=1 n=f#4 v=26
97920 On ch=1 n=f#4 v=0
97920 On ch=1 n=c4 v=0
97920 On ch=1 n=a4 v=0
97920 On ch=1 n=g#4 v=45
98080 On ch=1 n=b3 v=40
98240 On ch=1 n=g#4 v=0
98240 On ch=1 n=e4 v=36
98400 On ch=1 n=e4 v=0
98400 On ch=1 n=b3 v=0
98400 On ch=1 n=g#4 v=43
98560 On ch=1 n=a4 v=51
98568 On ch=1 n=g#4 v=0
98720 On ch=1 n=c#5 v=45
98728 On ch=1 n=a4 v=0
98880 On ch=1 n=b4 v=57
98888 On ch=1 n=c#5 v=0
99040 On ch=1 n=e5 v=47
99048 On ch=1 n=b4 v=0
99200 On ch=1 n=g#5 v=45
99208 On ch=1 n=e5 v=0
99360 On ch=1 n=b5 v=55
99368 On ch=1 n=g#5 v=0
99520 On ch=1 n=b6 v=61
99528 On ch=1 n=b5 v=0
99680 On ch=1 n=c#6 v=57
99688 On ch=1 n=b6 v=0
99832 On ch=1 n=c#6 v=0
99840 On ch=1 n=a5 v=65
99840 On ch=1 n=d#6 v=65
100550 On ch=1 n=a5 v=0
100560 On ch=1 n=d#6 v=0
100560 On ch=1 n=g#6 v=61
100560 On ch=1 n=a5 v=61
100790 On ch=1 n=a5 v=0
100800 On ch=1 n=g#6 v=0
100800 On ch=1 n=f#6 v=61
100800 On ch=1 n=a5 v=61
101280 On ch=1 n=a5 v=0
101280 On ch=1 n=f#6 v=0
101760 On ch=1 n=e3 v=52
101920 On ch=1 n=e3 v=0
101920 On ch=1 n=b3 v=47
102080 On ch=1 n=b3 v=0
102080 On ch=1 n=e4 v=44
102240 On ch=1 n=e4 v=0
102240 On ch=1 n=g#4 v=48
102400 On ch=1 n=a4 v=56
102408 On ch=1 n=g#4 v=0
102560 On ch=1 n=c#5 v=50
102568 On ch=1 n=a4 v=0
102720 On ch=1 n=b4 v=62
102728 On ch=1 n=c#5 v=0
102880 On ch=1 n=e5 v=52
102888 On ch=1 n=b4 v=0
103040 On ch=1 n=g#5 v=50
103048 On ch=1 n=e5 v=0
103200 On ch=1 n=b5 v=60
103208 On ch=1 n=g#5 v=0
103360 On ch=1 n=b6 v=66
103368 On ch=1 n=b5 v=0
103520 On ch=1 n=c#6 v=62
103528 On ch=1 n=b6 v=0
103672 On ch=1 n=c#6 v=0
103680 On ch=1 n=d#6 v=59
103680 On ch=1 n=g#5 v=59
104400 On ch=1 n=g#5 v=0
104400 On ch=1 n=d#6 v=0
104400 On ch=1 n=e6 v=61
104400 On ch=1 n=g5 v=61
104640 On ch=1 n=g5 v=0
104640 On ch=1 n=e6 v=0
104640 On ch=1 n=d#6 v=61
104640 On ch=1 n=a#5 v=61
105580 On ch=1 n=a#5 v=0
105580 On ch=1 n=d#6 v=0
105600 On ch=1 n=g#3 v=61
105760 On ch=1 n=g#3 v=0
105760 On ch=1 n=d#4 v=71
105920 On ch=1 n=d#4 v=0
105920 On ch=1 n=g#4 v=61
106080 On ch=1 n=g#4 v=0
106080 On ch=1 n=a#4 v=75
106240 On ch=1 n=b4 v=71
106248 On ch=1 n=a#4 v=0
106400 On ch=1 n=e5 v=67
106408 On ch=1 n=b4 v=0
106560 On ch=1 n=d#5 v=65
106568 On ch=1 n=e5 v=0
106720 On ch=1 n=g#5 v=69
106728 On ch=1 n=d#5 v=0
106880 On ch=1 n=b5 v=73
106888 On ch=1 n=g#5 v=0
107040 On ch=1 n=d#6 v=77
107048 On ch=1 n=b5 v=0
107200 On ch=1 n=g#6 v=63
107208 On ch=1 n=d#6 v=0
107360 On ch=1 n=g#5 v=61
107368 On ch=1 n=g#6 v=0
107512 On ch=1 n=g#5 v=0
107520 On ch=1 n=g#5 v=79
107520 On ch=1 n=c#5 v=79
108000 On ch=1 n=c#5 v=0
108000 On ch=1 n=b4 v=61
108470 On ch=1 n=g#5 v=0
108480 On ch=1 n=g#5 v=48
109200 On ch=1 n=g#5 v=0
109200 On ch=1 n=a#5 v=61
109440 On ch=1 n=a#5 v=0
109440 On ch=1 n=b4 v=0
109440 On ch=1 n=c#5 v=61
109440 On ch=1 n=g#5 v=61
109920 On ch=1 n=c#5 v=0
109920 On ch=1 n=b4 v=61
110390 On ch=1 n=g#5 v=0
110400 On ch=1 n=g#5 v=49
111120 On ch=1 n=g#5 v=0
111120 On ch=1 n=a#5 v=55
111360 On ch=1 n=a#5 v=0
111360 On ch=1 n=b4 v=0
111360 On ch=1 n=b5 v=61
111520 On ch=1 n=a#5 v=57
111680 On ch=1 n=a#5 v=0
111680 On ch=1 n=g#5 v=59
111840 On ch=1 n=d#5 v=58
112000 On ch=1 n=g#5 v=0
112000 On ch=1 n=b4 v=55
112160 On ch=1 n=d#5 v=0
112160 On ch=1 n=g#5 v=52
112310 On ch=1 n=b5 v=0
112320 On ch=1 n=g#5 v=0
112320 On ch=1 n=b4 v=0
112320 On ch=1 n=b5 v=62
112480 On ch=1 n=a#5 v=60
112640 On ch=1 n=a#5 v=0
112640 On ch=1 n=g#5 v=58
112800 On ch=1 n=d#5 v=56
112960 On ch=1 n=g#5 v=0
112960 On ch=1 n=b4 v=54
113120 On ch=1 n=d#5 v=0
113120 On ch=1 n=g#5 v=57
113270 On ch=1 n=b5 v=0
113280 On ch=1 n=g#5 v=0
113280 On ch=1 n=b4 v=0
113280 On ch=1 n=b5 v=54
113440 On ch=1 n=a#5 v=53
113600 On ch=1 n=a#5 v=0
113600 On ch=1 n=g#5 v=51
113760 On ch=1 n=d#5 v=49
113920 On ch=1 n=g#5 v=0
113920 On ch=1 n=b4 v=47
114080 On ch=1 n=d#5 v=0
114080 On ch=1 n=g#5 v=45
114230 On ch=1 n=b5 v=0
114240 On ch=1 n=g#5 v=0
114240 On ch=1 n=b4 v=0
114240 On ch=1 n=b5 v=52
114400 On ch=1 n=a#5 v=51
114560 On ch=1 n=a#5 v=0
114560 On ch=1 n=g#5 v=49
114720 On ch=1 n=d#5 v=46
114880 On ch=1 n=g#5 v=0
114880 On ch=1 n=b4 v=44
115040 On ch=1 n=d#5 v=0
115040 On ch=1 n=f#5 v=41
115190 On ch=1 n=b5 v=0
115200 On ch=1 n=f#5 v=0
115200 On ch=1 n=b4 v=0
115200 On ch=1 n=b5 v=59
115360 On ch=1 n=g#5 v=54
115520 On ch=1 n=g#5 v=0
115520 On ch=1 n=f#5 v=53
115680 On ch=1 n=c#5 v=49
115840 On ch=1 n=c#5 v=0
115840 On ch=1 n=f#5 v=0
115840 On ch=1 n=b4 v=46
116000 On ch=1 n=f#5 v=44
116112 On ch=1 n=b5 v=0
116160 On ch=1 n=f#5 v=0
116160 On ch=1 n=b4 v=0
116160 On ch=1 n=b5 v=58
116320 On ch=1 n=g#5 v=50
116480 On ch=1 n=g#5 v=0
116480 On ch=1 n=f#5 v=48
116640 On ch=1 n=c#5 v=43
116800 On ch=1 n=c#5 v=0
116800 On ch=1 n=f#5 v=0
116800 On ch=1 n=b4 v=40
116960 On ch=1 n=f#5 v=37
117072 On ch=1 n=b5 v=0
117120 On ch=1 n=f#5 v=0
117120 On ch=1 n=b4 v=0
117120 On ch=1 n=b5 v=62
117280 On ch=1 n=g#5 v=59
117440 On ch=1 n=g#5 v=0
117440 On ch=1 n=f#5 v=57
117600 On ch=1 n=c#5 v=54
117760 On ch=1 n=c#5 v=0
117760 On ch=1 n=f#5 v=0
117760 On ch=1 n=b4 v=51
117920 On ch=1 n=b4 v=0
117920 On ch=1 n=f#5 v=49
118032 On ch=1 n=b5 v=0
118080 On ch=1 n=f#5 v=0
118080 On ch=1 n=a5 v=63
118240 On ch=1 n=f#5 v=58
118400 On ch=1 n=f#5 v=0
118400 On ch=1 n=f5 v=57
118560 On ch=1 n=a5 v=0
118560 On ch=1 n=c#5 v=53
118720 On ch=1 n=f5 v=0
118720 On ch=1 n=b4 v=49
118880 On ch=1 n=c#5 v=0
118880 On ch=1 n=g#5 v=49
119040 On ch=1 n=g#5 v=0
119040 On ch=1 n=b4 v=0
119040 On ch=1 n=a5 v=61
119200 On ch=1 n=f#5 v=59
119360 On ch=1 n=f#5 v=0
119360 On ch=1 n=e5 v=57
119520 On ch=1 n=b4 v=53
119680 On ch=1 n=b4 v=0
119680 On ch=1 n=e5 v=0
119680 On ch=1 n=a4 v=49
119840 On ch=1 n=e5 v=44
119990 On ch=1 n=a5 v=0
119992 On ch=1 n=e5 v=0
120000 On ch=1 n=a4 v=0
120000 On ch=1 n=a5 v=68
120160 On ch=1 n=f#5 v=63
120320 On ch=1 n=f#5 v=0
120320 On ch=1 n=e5 v=59
120480 On ch=1 n=b4 v=54
120640 On ch=1 n=b4 v=0
120640 On ch=1 n=e5 v=0
120640 On ch=1 n=a4 v=46
120800 On ch=1 n=e5 v=42
120912 On ch=1 n=a5 v=0
120952 On ch=1 n=e5 v=0
120960 On ch=1 n=a4 v=0
120960 On ch=1 n=a5 v=67
121120 On ch=1 n=f#5 v=58
121280 On ch=1 n=f#5 v=0
121280 On ch=1 n=e5 v=54
121440 On ch=1 n=b4 v=51
121600 On ch=1 n=e5 v=0
121600 On ch=1 n=a4 v=46
121760 On ch=1 n=b4 v=0
121760 On ch=1 n=e5 v=42
121912 On ch=1 n=e5 v=0
121920 On ch=1 n=a4 v=0
121920 On ch=1 n=a5 v=0
121920 On ch=1 n=g#5 v=67
122080 On ch=1 n=e5 v=63
122240 On ch=1 n=e5 v=0
122240 On ch=1 n=d#5 v=59
122400 On ch=1 n=g#5 v=0
122400 On ch=1 n=a4 v=53
122560 On ch=1 n=a4 v=0
122560 On ch=1 n=d#5 v=0
122560 On ch=1 n=g#4 v=49
122720 On ch=1 n=d#5 v=47
122872 On ch=1 n=d#5 v=0
122880 On ch=1 n=g#4 v=0
122880 On ch=1 n=e5 v=69
123040 On ch=1 n=d#5 v=61
123200 On ch=1 n=d#5 v=0
123200 On ch=1 n=c#5 v=59
123360 On ch=1 n=g#4 v=55
123520 On ch=1 n=g#4 v=0
123520 On ch=1 n=c#5 v=0
123520 On ch=1 n=e4 v=52
123680 On ch=1 n=c#5 v=49
123792 On ch=1 n=e5 v=0
123840 On ch=1 n=c#5 v=0
123840 On ch=1 n=e4 v=0
123840 On ch=1 n=f#5 v=73
124000 On ch=1 n=d#5 v=69
124160 On ch=1 n=c#5 v=65
124320 On ch=1 n=c#5 v=0
124320 On ch=1 n=d#5 v=0
124320 On ch=1 n=b4 v=57
124480 On ch=1 n=f#4 v=53
124640 On ch=1 n=b4 v=0
124640 On ch=1 n=d#5 v=49
124752 On ch=1 n=f#5 v=0
124795 On ch=1 n=d#5 v=0
124800 On ch=1 n=f#4 v=0
124800 On ch=1 n=f#5 v=74
124960 On ch=1 n=d#5 v=63
125120 On ch=1 n=c#5 v=59
125280 On ch=1 n=c#5 v=0
125280 On ch=1 n=d#5 v=0
125280 On ch=1 n=b4 v=53
125440 On ch=1 n=f#4 v=50
125600 On ch=1 n=b4 v=0
125600 On ch=1 n=d#5 v=47
125712 On ch=1 n=f#5 v=0
125760 On ch=1 n=d#5 v=0
125760 On ch=1 n=f#4 v=0
125760 On ch=1 n=g#5 v=84
125920 On ch=1 n=d#5 v=74
126080 On ch=1 n=c#5 v=69
126240 On ch=1 n=c#5 v=0
126240 On ch=1 n=g#5 v=0
126240 On ch=1 n=b4 v=64
126400 On ch=1 n=d#5 v=0
126400 On ch=1 n=g#4 v=61
126560 On ch=1 n=g#4 v=0
126560 On ch=1 n=b4 v=0
126560 On ch=1 n=c#5 v=64
126720 On ch=1 n=c#5 v=0
126720 On ch=1 n=d#5 v=96
126880 On ch=1 n=b4 v=81
127040 On ch=1 n=a#4 v=77
127200 On ch=1 n=a#4 v=0
127200 On ch=1 n=b4 v=0
127200 On ch=1 n=g#4 v=75
127360 On ch=1 n=d#4 v=78
127520 On ch=1 n=g#4 v=0
127520 On ch=1 n=b4 v=80
127632 On ch=1 n=d#5 v=0
127680 On ch=1 n=b4 v=0
127680 On ch=1 n=d#4 v=0
127680 On ch=1 n=d#5 v=93
127840 On ch=1 n=a#4 v=90
128000 On ch=1 n=g#4 v=84
128160 On ch=1 n=g#4 v=0
128160 On ch=1 n=a#4 v=0
128160 On ch=1 n=g4 v=80
128320 On ch=1 n=d#4 v=82
128480 On ch=1 n=g4 v=0
128480 On ch=1 n=a#4 v=89
128630 On ch=1 n=d#5 v=0
128640 On ch=1 n=a#4 v=0
128640 On ch=1 n=d#4 v=0
128640 On ch=1 n=d#5 v=93
128800 On ch=1 n=d#5 v=0
128800 On ch=1 n=c5 v=90
128960 On ch=1 n=c5 v=0
128960 On ch=1 n=a#4 v=85
129120 On ch=1 n=a#4 v=0
129120 On ch=1 n=g#4 v=88
129280 On ch=1 n=d#4 v=82
129288 On ch=1 n=g#4 v=0
129440 On ch=1 n=g#4 v=78
129448 On ch=1 n=d#4 v=0
129600 On ch=1 n=c5 v=79
129608 On ch=1 n=g#4 v=0
129760 On ch=1 n=d#5 v=73
129768 On ch=1 n=c5 v=0
129920 On ch=1 n=g#5 v=67
129928 On ch=1 n=d#5 v=0
130080 On ch=1 n=c6 v=69
130088 On ch=1 n=g#5 v=0
130240 On ch=1 n=d#6 v=64
130248 On ch=1 n=c6 v=0
130400 On ch=1 n=f5 v=59
130408 On ch=1 n=d#6 v=0
130552 On ch=1 n=f5 v=0
130560 On ch=1 n=c#5 v=73
130560 On ch=1 n=g5 v=73
131270 On ch=1 n=c#5 v=0
131280 On ch=1 n=g5 v=0
131280 On ch=1 n=c6 v=76
131280 On ch=1 n=c#5 v=66
131510 On ch=1 n=c#5 v=0
131520 On ch=1 n=c6 v=0
131520 On ch=1 n=a#5 v=75
131520 On ch=1 n=c#5 v=62
132000 On ch=1 n=c#5 v=0
132000 On ch=1 n=a#5 v=0
132480 On ch=1 n=g#2 v=61
132640 On ch=1 n=g#2 v=0
132640 On ch=1 n=g#3 v=57
132800 On ch=1 n=d#4 v=59
132803 On ch=1 n=g#3 v=0
132960 On ch=1 n=g#4 v=60
132963 On ch=1 n=d#4 v=0
133120 On ch=1 n=a#4 v=55
133123 On ch=1 n=g#4 v=0
133280 On ch=1 n=c#5 v=61
133283 On ch=1 n=a#4 v=0
133440 On ch=1 n=c5 v=60
133443 On ch=1 n=c#5 v=0
133600 On ch=1 n=d#5 v=55
133603 On ch=1 n=c5 v=0
133760 On ch=1 n=g#5 v=67
133763 On ch=1 n=d#5 v=0
133920 On ch=1 n=c6 v=61
133923 On ch=1 n=g#5 v=0
134080 On ch=1 n=d#6 v=69
134083 On ch=1 n=c6 v=0
134240 On ch=1 n=f5 v=64
134243 On ch=1 n=d#6 v=0
134400 On ch=1 n=g5 v=76
134400 On ch=1 n=e5 v=76
134403 On ch=1 n=f5 v=0
135032 On ch=1 n=e5 v=0
135120 On ch=1 n=c#6 v=78
135120 On ch=1 n=e5 v=75
135125 On ch=1 n=g5 v=0
135355 On ch=1 n=e5 v=0
135355 On ch=1 n=c#6 v=0
135360 On ch=1 n=e5 v=80
135360 On ch=1 n=c6 v=80
135840 On ch=1 n=c6 v=0
135840 On ch=1 n=e5 v=0
136320 On ch=1 n=f3 v=61
136480 On ch=1 n=f3 v=0
136480 On ch=1 n=c4 v=61
136640 On ch=1 n=c4 v=0
136640 On ch=1 n=f4 v=61
136800 On ch=1 n=f4 v=0
136800 On ch=1 n=g4 v=61
136960 On ch=1 n=g#4 v=61
136968 On ch=1 n=g4 v=0
137120 On ch=1 n=c#5 v=61
137128 On ch=1 n=g#4 v=0
137280 On ch=1 n=c5 v=61
137288 On ch=1 n=c#5 v=0
137440 On ch=1 n=f5 v=61
137448 On ch=1 n=c5 v=0
137600 On ch=1 n=g#5 v=61
137608 On ch=1 n=f5 v=0
137760 On ch=1 n=c6 v=61
137768 On ch=1 n=g#5 v=0
137920 On ch=1 n=f6 v=61
137928 On ch=1 n=c6 v=0
138080 On ch=1 n=f5 v=61
138088 On ch=1 n=f6 v=0
138232 On ch=1 n=f5 v=0
138240 On ch=1 n=a#4 v=61
138240 On ch=1 n=f5 v=61
138720 On ch=1 n=a#4 v=0
138720 On ch=1 n=g#4 v=61
139190 On ch=1 n=f5 v=0
139200 On ch=1 n=f5 v=61
139920 On ch=1 n=f5 v=0
139920 On ch=1 n=g5 v=61
140160 On ch=1 n=g5 v=0
140160 On ch=1 n=g#4 v=0
140160 On ch=1 n=a#4 v=61
140160 On ch=1 n=f5 v=61
140640 On ch=1 n=a#4 v=0
140640 On ch=1 n=g#4 v=61
141110 On ch=1 n=f5 v=0
141120 On ch=1 n=f5 v=61
141840 On ch=1 n=f5 v=0
141840 On ch=1 n=g5 v=61
142080 On ch=1 n=g5 v=0
142080 On ch=1 n=g#4 v=0
142080 On ch=1 n=g#5 v=61
142240 On ch=1 n=g5 v=61
142400 On ch=1 n=g5 v=0
142400 On ch=1 n=f5 v=61
142560 On ch=1 n=f5 v=0
142560 On ch=1 n=c5 v=61
142720 On ch=1 n=c5 v=0
142720 On ch=1 n=g#4 v=61
142880 On ch=1 n=g#4 v=0
142880 On ch=1 n=f5 v=61
143030 On ch=1 n=g#5 v=0
143040 On ch=1 n=f5 v=0
143040 On ch=1 n=g#5 v=61
143200 On ch=1 n=g5 v=61
143360 On ch=1 n=g5 v=0
143360 On ch=1 n=f5 v=61
143520 On ch=1 n=f5 v=0
143520 On ch=1 n=c5 v=61
143680 On ch=1 n=c5 v=0
143680 On ch=1 n=g#4 v=61
143830 On ch=1 n=g#4 v=0
143840 On ch=1 n=f5 v=61
143990 On ch=1 n=g#5 v=0
144000 On ch=1 n=g#5 v=61
144160 On ch=1 n=g#5 v=0
144160 On ch=1 n=g5 v=61
144310 On ch=1 n=f5 v=0
144320 On ch=1 n=g5 v=0
144320 On ch=1 n=f5 v=61
144480 On ch=1 n=f5 v=0
144480 On ch=1 n=c5 v=61
144640 On ch=1 n=c5 v=0
144640 On ch=1 n=g4 v=61
144800 On ch=1 n=g#4 v=61
144803 On ch=1 n=g4 v=0
144960 On ch=1 n=g#4 v=0
144960 On ch=1 n=g#5 v=61
145120 On ch=1 n=g#5 v=0
145120 On ch=1 n=g5 v=61
145280 On ch=1 n=g5 v=0
145280 On ch=1 n=f5 v=61
145440 On ch=1 n=f5 v=0
145440 On ch=1 n=c5 v=61
145600 On ch=1 n=c5 v=0
145600 On ch=1 n=g4 v=61
145760 On ch=1 n=g4 v=0
145760 On ch=1 n=g#4 v=61
145920 On ch=1 n=g#4 v=0
145920 On ch=1 n=g#5 v=61
146080 On ch=1 n=d#5 v=61
146240 On ch=1 n=d#5 v=0
146240 On ch=1 n=c5 v=61
146400 On ch=1 n=c5 v=0
146400 On ch=1 n=c#5 v=61
146560 On ch=1 n=c#5 v=0
146560 On ch=1 n=g4 v=61
146720 On ch=1 n=g#4 v=61
146723 On ch=1 n=g4 v=0
146880 On ch=1 n=g#4 v=0
146880 On ch=1 n=g#5 v=0
146880 On ch=1 n=g5 v=61
147040 On ch=1 n=d#5 v=61
147200 On ch=1 n=d#5 v=0
147200 On ch=1 n=c5 v=61
147360 On ch=1 n=c5 v=0
147360 On ch=1 n=c#5 v=61
147520 On ch=1 n=c#5 v=0
147520 On ch=1 n=a4 v=61
147680 On ch=1 n=a4 v=0
147680 On ch=1 n=a#4 v=61
147840 On ch=1 n=a#4 v=0
147840 On ch=1 n=g5 v=0
147840 On ch=1 n=a#5 v=61
148000 On ch=1 n=g#5 v=64
148108 On ch=1 n=g#5 v=0
148160 On ch=1 n=g5 v=66
148268 On ch=1 n=g5 v=0
148320 On ch=1 n=f#5 v=69
148428 On ch=1 n=f#5 v=0
148480 On ch=1 n=f5 v=73
148588 On ch=1 n=f5 v=0
148640 On ch=1 n=e5 v=76
148800 On ch=1 n=a#5 v=0
148800 On ch=1 n=b5 v=91
148960 On ch=1 n=e5 v=0
148960 On ch=1 n=a5 v=79
149115 On ch=1 n=a5 v=0
149120 On ch=1 n=d#5 v=74
149280 On ch=1 n=c#5 v=68
149440 On ch=1 n=c#5 v=0
149440 On ch=1 n=b4 v=68
149600 On ch=1 n=d#5 v=0
149600 On ch=1 n=g5 v=71
149731 On ch=1 n=b5 v=0
149760 On ch=1 n=g5 v=0
149760 On ch=1 n=b4 v=0
149760 On ch=1 n=b5 v=74
149920 On ch=1 n=g#5 v=64
150080 On ch=1 n=f#5 v=60
150240 On ch=1 n=f#5 v=0
150240 On ch=1 n=e5 v=55
150400 On ch=1 n=g#5 v=0
150400 On ch=1 n=b4 v=50
150560 On ch=1 n=e5 v=0
150560 On ch=1 n=g#5 v=46
150672 On ch=1 n=b5 v=0
150720 On ch=1 n=g#5 v=0
150720 On ch=1 n=b4 v=0
150720 On ch=1 n=b5 v=68
150880 On ch=1 n=g#5 v=59
151040 On ch=1 n=f#5 v=54
151200 On ch=1 n=f#5 v=0
151200 On ch=1 n=e5 v=49
151360 On ch=1 n=g#5 v=0
151360 On ch=1 n=b4 v=46
151520 On ch=1 n=e5 v=0
151520 On ch=1 n=g#5 v=43
151632 On ch=1 n=b5 v=0
151680 On ch=1 n=g#5 v=0
151680 On ch=1 n=b4 v=0
151680 On ch=1 n=b5 v=66
151840 On ch=1 n=g#5 v=62
152000 On ch=1 n=f#5 v=59
152160 On ch=1 n=f#5 v=0
152160 On ch=1 n=e5 v=54
152320 On ch=1 n=g#5 v=0
152320 On ch=1 n=b4 v=51
152480 On ch=1 n=e5 v=0
152480 On ch=1 n=g#5 v=48
152592 On ch=1 n=b5 v=0
152640 On ch=1 n=g#5 v=0
152640 On ch=1 n=b4 v=0
152640 On ch=1 n=c#6 v=61
152800 On ch=1 n=g#5 v=55
152960 On ch=1 n=f#5 v=51
153120 On ch=1 n=f#5 v=0
153120 On ch=1 n=e5 v=46
153280 On ch=1 n=g#5 v=0
153280 On ch=1 n=c#5 v=44
153440 On ch=1 n=c#5 v=0
153440 On ch=1 n=e5 v=0
153440 On ch=1 n=a5 v=41
153552 On ch=1 n=c#6 v=0
153600 On ch=1 n=b5 v=63
153760 On ch=1 n=a5 v=0
153760 On ch=1 n=g#5 v=56
153920 On ch=1 n=b5 v=0
153920 On ch=1 n=f#5 v=54
154080 On ch=1 n=f#5 v=0
154080 On ch=1 n=e5 v=51
154240 On ch=1 n=g#5 v=0
154240 On ch=1 n=b4 v=49
154400 On ch=1 n=b4 v=0
154400 On ch=1 n=e5 v=0
154400 On ch=1 n=g#5 v=47
154552 On ch=1 n=g#5 v=0
154560 On ch=1 n=g#5 v=59
154720 On ch=1 n=e5 v=54
154880 On ch=1 n=d#5 v=49
155040 On ch=1 n=d#5 v=0
155040 On ch=1 n=c#5 v=44
155200 On ch=1 n=e5 v=0
155200 On ch=1 n=g#4 v=41
155360 On ch=1 n=c#5 v=0
155360 On ch=1 n=e5 v=38
155472 On ch=1 n=g#5 v=0
155512 On ch=1 n=e5 v=0
155520 On ch=1 n=g#4 v=0
155520 On ch=1 n=g#5 v=61
155680 On ch=1 n=e5 v=52
155840 On ch=1 n=d#5 v=49
156000 On ch=1 n=d#5 v=0
156000 On ch=1 n=g#5 v=0
156000 On ch=1 n=c#5 v=46
156155 On ch=1 n=e5 v=0
156160 On ch=1 n=g#4 v=44
156320 On ch=1 n=c#5 v=0
156320 On ch=1 n=e5 v=40
156472 On ch=1 n=e5 v=0
156480 On ch=1 n=g#4 v=0
156480 On ch=1 n=e5 v=64
156640 On ch=1 n=c#5 v=54
156800 On ch=1 n=b4 v=53
156960 On ch=1 n=b4 v=0
156960 On ch=1 n=e5 v=0
156960 On ch=1 n=a4 v=49
157120 On ch=1 n=c#5 v=0
157120 On ch=1 n=e4 v=47
157280 On ch=1 n=a4 v=0
157280 On ch=1 n=c#5 v=44
157432 On ch=1 n=c#5 v=0
157440 On ch=1 n=e4 v=0
157440 On ch=1 n=e5 v=69
157600 On ch=1 n=b4 v=55
157760 On ch=1 n=a4 v=53
157920 On ch=1 n=a4 v=0
157920 On ch=1 n=g#4 v=49
158080 On ch=1 n=b4 v=0
158080 On ch=1 n=e4 v=46
158240 On ch=1 n=g#4 v=0
158240 On ch=1 n=b4 v=44
158352 On ch=1 n=e5 v=0
158400 On ch=1 n=b4 v=0
158400 On ch=1 n=e4 v=0
158400 On ch=1 n=d#5 v=67
158560 On ch=1 n=b4 v=58
158720 On ch=1 n=a4 v=54
158880 On ch=1 n=a4 v=0
158880 On ch=1 n=g#4 v=52
159040 On ch=1 n=b4 v=0
159040 On ch=1 n=e4 v=49
159200 On ch=1 n=g#4 v=0
159200 On ch=1 n=b4 v=46
159312 On ch=1 n=d#5 v=0
159355 On ch=1 n=b4 v=0
159360 On ch=1 n=e4 v=0
159360 On ch=1 n=c#5 v=66
159520 On ch=1 n=a4 v=54
159680 On ch=1 n=g#4 v=52
159840 On ch=1 n=g#4 v=0
159840 On ch=1 n=f#4 v=50
160000 On ch=1 n=a4 v=0
160000 On ch=1 n=d#4 v=49
160160 On ch=1 n=f#4 v=0
160160 On ch=1 n=a4 v=47
160272 On ch=1 n=c#5 v=0
160320 On ch=1 n=a4 v=0
160320 On ch=1 n=d#4 v=0
160320 On ch=1 n=b4 v=62
160480 On ch=1 n=g#4 v=46
160640 On ch=1 n=f#4 v=44
160800 On ch=1 n=f#4 v=0
160800 On ch=1 n=e4 v=41
160960 On ch=1 n=g#4 v=0
160960 On ch=1 n=d4 v=39
161120 On ch=1 n=e4 v=0
161120 On ch=1 n=g#4 v=36
161232 On ch=1 n=b4 v=0
161280 On ch=1 n=g#4 v=0
161280 On ch=1 n=d4 v=0
161280 On ch=1 n=b4 v=60
161440 On ch=1 n=g#4 v=42
161600 On ch=1 n=f#4 v=40
161760 On ch=1 n=f#4 v=0
161760 On ch=1 n=e4 v=39
161920 On ch=1 n=g#4 v=0
161920 On ch=1 n=c#4 v=36
162080 On ch=1 n=e4 v=0
162080 On ch=1 n=g#4 v=33
162192 On ch=1 n=b4 v=0
162240 On ch=1 n=g#4 v=0
162240 On ch=1 n=c#4 v=0
162240 On ch=1 n=a4 v=54
162400 On ch=1 n=f#4 v=40
162560 On ch=1 n=e4 v=38
162720 On ch=1 n=e4 v=0
162720 On ch=1 n=d#4 v=35
162880 On ch=1 n=f#4 v=0
162880 On ch=1 n=c4 v=34
163040 On ch=1 n=d#4 v=0
163040 On ch=1 n=f#4 v=32
163200 On ch=1 n=f#4 v=0
163200 On ch=1 n=c4 v=0
163200 On ch=1 n=a4 v=0
163200 On ch=1 n=a4 v=49
163360 On ch=1 n=f#4 v=37
163520 On ch=1 n=f#4 v=0
163520 On ch=1 n=e4 v=35
163680 On ch=1 n=e4 v=0
163680 On ch=1 n=d#4 v=34
163840 On ch=1 n=c4 v=31
164000 On ch=1 n=d#4 v=0
164000 On ch=1 n=f#4 v=32
164112 On ch=1 n=a4 v=0
164160 On ch=1 n=f#4 v=0
164160 On ch=1 n=c4 v=0
164160 On ch=1 n=a4 v=45
164320 On ch=1 n=f#4 v=35
164480 On ch=1 n=f#4 v=0
164480 On ch=1 n=e4 v=34
164640 On ch=1 n=e4 v=0
164640 On ch=1 n=d#4 v=31
164800 On ch=1 n=c4 v=29
164960 On ch=1 n=d#4 v=0
164960 On ch=1 n=f#4 v=26
165110 On ch=1 n=a4 v=0
165120 On ch=1 n=f#4 v=0
165120 On ch=1 n=c4 v=0
165120 On ch=1 n=a4 v=41
165280 On ch=1 n=a4 v=0
165280 On ch=1 n=f#4 v=28
165440 On ch=1 n=f#4 v=0
165440 On ch=1 n=e4 v=26
165600 On ch=1 n=e4 v=0
165600 On ch=1 n=d#4 v=38
165760 On ch=1 n=c4 v=25
165768 On ch=1 n=d#4 v=0
165920 On ch=1 n=f#4 v=20
165928 On ch=1 n=c4 v=0
166080 On ch=1 n=a4 v=38
166088 On ch=1 n=f#4 v=0
166240 On ch=1 n=c5 v=25
166248 On ch=1 n=a4 v=0
166400 On ch=1 n=d#5 v=27
166408 On ch=1 n=c5 v=0
166560 On ch=1 n=f#5 v=40
166568 On ch=1 n=d#5 v=0
166720 On ch=1 n=a5 v=30
166728 On ch=1 n=f#5 v=0
166880 On ch=1 n=c6 v=31
166888 On ch=1 n=a5 v=0
167040 On ch=1 n=c6 v=0
167040 On ch=1 n=g#6 v=47
167200 On ch=1 n=g#6 v=0
167200 On ch=1 n=f#6 v=35
167360 On ch=1 n=f#6 v=0
167360 On ch=1 n=d#6 v=31
167520 On ch=1 n=d#6 v=0
167520 On ch=1 n=c6 v=42
167680 On ch=1 n=a5 v=28
167688 On ch=1 n=c6 v=0
167840 On ch=1 n=f#5 v=30
167848 On ch=1 n=a5 v=0
168000 On ch=1 n=g#5 v=44
168008 On ch=1 n=f#5 v=0
168160 On ch=1 n=f#5 v=34
168168 On ch=1 n=g#5 v=0
168320 On ch=1 n=d#5 v=36
168328 On ch=1 n=f#5 v=0
168480 On ch=1 n=c5 v=47
168488 On ch=1 n=d#5 v=0
168640 On ch=1 n=a4 v=40
168648 On ch=1 n=c5 v=0
168800 On ch=1 n=f#4 v=43
168808 On ch=1 n=a4 v=0
168952 On ch=1 n=f#4 v=0
168960 On ch=1 n=g#4 v=51
169120 On ch=1 n=g#4 v=0
169120 On ch=1 n=f#4 v=40
169280 On ch=1 n=f#4 v=0
169280 On ch=1 n=c4 v=39
169440 On ch=1 n=c4 v=0
169440 On ch=1 n=d#4 v=56
169600 On ch=1 n=f#4 v=54
169608 On ch=1 n=d#4 v=0
169760 On ch=1 n=a4 v=69
169768 On ch=1 n=f#4 v=0
169920 On ch=1 n=f#5 v=87
169928 On ch=1 n=a4 v=0
170160 On ch=1 n=f#5 v=0
170160 On ch=1 n=e5 v=84
170400 On ch=1 n=e5 v=0
170400 On ch=1 n=d#5 v=78
170760 On ch=1 n=d#5 v=0
170760 On ch=1 n=d#6 v=94
170876 On ch=1 n=d#6 v=0
170880 On ch=1 n=d#6 v=94
171326 On ch=1 n=d#6 v=0
171360 On ch=1 n=d#5 v=61
171360 On ch=1 n=a4 v=61
171360 On ch=1 n=f#4 v=57
172310 On ch=1 n=a4 v=0
172320 On ch=1 n=f#4 v=0
172320 On ch=1 n=d#5 v=0
172320 On ch=1 n=e5 v=61
172320 On ch=1 n=a4 v=61
172320 On ch=1 n=e4 v=57
172790 On ch=1 n=a4 v=0
172800 On ch=1 n=e4 v=0
172800 On ch=1 n=e5 v=0
172800 On ch=1 n=f#5 v=61
172800 On ch=1 n=a4 v=61
172800 On ch=1 n=d#4 v=57
173280 On ch=1 n=d#4 v=0
173280 On ch=1 n=a4 v=0
173280 On ch=1 n=f#5 v=0
173760 On ch=1 n=f#5 v=70
174000 On ch=1 n=f#5 v=0
174000 On ch=1 n=e5 v=72
174240 On ch=1 n=e5 v=0
174240 On ch=1 n=d#5 v=77
174600 On ch=1 n=d#5 v=0
174600 On ch=1 n=d#6 v=99
174714 On ch=1 n=d#6 v=0
174720 On ch=1 n=d#6 v=100
175166 On ch=1 n=d#6 v=0
175200 On ch=1 n=f#4 v=69
175200 On ch=1 n=d#5 v=69
175200 On ch=1 n=a4 v=69
176083 On ch=1 n=d#5 v=0
176083 On ch=1 n=f#4 v=0
176150 On ch=1 n=a4 v=0
176160 On ch=1 n=d#5 v=70
176160 On ch=1 n=a#4 v=70
176160 On ch=1 n=f#4 v=70
176601 On ch=1 n=f#4 v=0
176630 On ch=1 n=a#4 v=0
176630 On ch=1 n=d#5 v=0
176640 On ch=1 n=d#5 v=66
176640 On ch=1 n=c5 v=62
176640 On ch=1 n=f#4 v=62
177080 On ch=1 n=f#4 v=0
177080 On ch=1 n=c5 v=0
177080 On ch=1 n=d#5 v=0
177120 On ch=1 n=c6 v=64
177600 On ch=1 n=c5 v=52
177606 On ch=1 n=c6 v=0
178040 On ch=1 n=c5 v=0
178080 On ch=1 n=d5 v=59
178080 On ch=1 n=b4 v=59
178135 On ch=1 n=d5 v=0
178140 On ch=1 n=d#5 v=61
178170 On ch=1 n=d5 v=61
178195 On ch=1 n=d#5 v=0
178200 On ch=1 n=d#5 v=62
178206 On ch=1 n=d5 v=0
178230 On ch=1 n=d5 v=62
178236 On ch=1 n=d#5 v=0
178260 On ch=1 n=d#5 v=62
178266 On ch=1 n=d5 v=0
178290 On ch=1 n=d5 v=62
178296 On ch=1 n=d#5 v=0
178320 On ch=1 n=d#5 v=62
178326 On ch=1 n=d5 v=0
178350 On ch=1 n=d5 v=62
178356 On ch=1 n=d#5 v=0
178385 On ch=1 n=d#5 v=62
178392 On ch=1 n=d5 v=0
178420 On ch=1 n=d5 v=62
178427 On ch=1 n=d#5 v=0
178472 On ch=1 n=d5 v=0
178472 On ch=1 n=c#5 v=61
178514 On ch=1 n=d5 v=60
178516 On ch=1 n=c#5 v=0
178560 On ch=1 n=b4 v=0
178560 On ch=1 n=c5 v=62
178560 On ch=1 n=d#5 v=62
178562 On ch=1 n=d5 v=0
178995 On ch=1 n=d#5 v=0
178995 On ch=1 n=c5 v=0
179040 On ch=1 n=g#5 v=58
179520 On ch=1 n=g#4 v=50
179526 On ch=1 n=g#5 v=0
179960 On ch=1 n=g#4 v=0
180000 On ch=1 n=b4 v=55
180000 On ch=1 n=f4 v=55
180060 On ch=1 n=b4 v=0
180060 On ch=1 n=c5 v=58
180090 On ch=1 n=b4 v=59
180092 On ch=1 n=c5 v=0
180120 On ch=1 n=c5 v=59
180126 On ch=1 n=b4 v=0
180150 On ch=1 n=b4 v=60
180156 On ch=1 n=c5 v=0
180180 On ch=1 n=c5 v=60
180186 On ch=1 n=b4 v=0
180210 On ch=1 n=b4 v=60
180216 On ch=1 n=c5 v=0
180240 On ch=1 n=c5 v=60
180246 On ch=1 n=b4 v=0
180270 On ch=1 n=b4 v=60
180276 On ch=1 n=c5 v=0
180305 On ch=1 n=c5 v=59
180306 On ch=1 n=b4 v=0
180340 On ch=1 n=b4 v=59
180341 On ch=1 n=c5 v=0
180392 On ch=1 n=a#4 v=56
180394 On ch=1 n=b4 v=0
180434 On ch=1 n=a#4 v=0
180434 On ch=1 n=b4 v=55
180480 On ch=1 n=f4 v=0
180480 On ch=1 n=c5 v=53
180480 On ch=1 n=f#4 v=53
180481 On ch=1 n=b4 v=0
181430 On ch=1 n=f#4 v=0
181430 On ch=1 n=c5 v=0
181440 On ch=1 n=c5 v=59
181440 On ch=1 n=g4 v=46
181895 On ch=1 n=g4 v=0
181910 On ch=1 n=c5 v=0
181920 On ch=1 n=c#5 v=61
181920 On ch=1 n=a#4 v=48
182370 On ch=1 n=c#5 v=0
182400 On ch=1 n=f4 v=58
182400 On ch=1 n=d5 v=61
182850 On ch=1 n=a#4 v=0
182870 On ch=1 n=d5 v=0
182870 On ch=1 n=f4 v=0
182880 On ch=1 n=f5 v=60
182880 On ch=1 n=c5 v=56
182880 On ch=1 n=a4 v=49
183350 On ch=1 n=a4 v=0
183350 On ch=1 n=c5 v=0
183350 On ch=1 n=f5 v=0
183360 On ch=1 n=a#4 v=49
183360 On ch=1 n=f5 v=54
183360 On ch=1 n=a#5 v=68
183830 On ch=1 n=a#5 v=0
183830 On ch=1 n=f5 v=0
183830 On ch=1 n=a#4 v=0
183840 On ch=1 n=f5 v=42
183840 On ch=1 n=g#5 v=52
183840 On ch=1 n=c#5 v=42
184310 On ch=1 n=c#5 v=0
184310 On ch=1 n=g#5 v=0
184310 On ch=1 n=f5 v=0
184320 On ch=1 n=c#6 v=55
184320 On ch=1 n=f#5 v=46
184320 On ch=1 n=e5 v=46
184790 On ch=1 n=f#5 v=0
184800 On ch=1 n=b5 v=54
185270 On ch=1 n=e5 v=0
185270 On ch=1 n=c#6 v=0
185280 On ch=1 n=c#6 v=40
185280 On ch=1 n=e6 v=48
185750 On ch=1 n=c#6 v=0
185750 On ch=1 n=b5 v=0
185760 On ch=1 n=a#6 v=31
185760 On ch=1 n=a#5 v=31
186230 On ch=1 n=e6 v=0
186240 On ch=1 n=e6 v=31
186240 On ch=1 n=c#7 v=38
186240 On ch=1 n=a#5 v=31
186710 On ch=1 n=a#5 v=0
186710 On ch=1 n=a#6 v=0
187200 On ch=1 n=a#5 v=0
187200 On ch=1 n=c#7 v=0
187200 On ch=1 n=e6 v=0
187680 On ch=1 n=f#5 v=64
188040 On ch=1 n=d#6 v=68
188070 On ch=1 n=f#5 v=0
188145 On ch=1 n=d#6 v=0
188160 On ch=1 n=d#6 v=71
189120 On ch=1 n=d#6 v=0
189120 On ch=1 n=b5 v=69
189480 On ch=1 n=b5 v=0
189480 On ch=1 n=c#6 v=71
189596 On ch=1 n=c#6 v=0
189600 On ch=1 n=d#6 v=74
189960 On ch=1 n=d#6 v=0
189960 On ch=1 n=e6 v=77
190068 On ch=1 n=e6 v=0
190080 On ch=1 n=d#6 v=75
190512 On ch=1 n=d#6 v=0
190560 On ch=1 n=c#6 v=74
190920 On ch=1 n=c#6 v=0
190920 On ch=1 n=d#6 v=69
191022 On ch=1 n=d#6 v=0
191040 On ch=1 n=e6 v=69
191280 On ch=1 n=e6 v=0
191280 On ch=1 n=f#6 v=74
191360 On ch=1 n=f#6 v=0
191360 On ch=1 n=e6 v=71
191440 On ch=1 n=e6 v=0
191440 On ch=1 n=d#6 v=74
191520 On ch=1 n=d#6 v=0
191520 On ch=1 n=e6 v=83
191680 On ch=1 n=e6 v=0
191880 On ch=1 n=f#6 v=77
192000 On ch=1 n=f#6 v=0
192000 On ch=1 n=d#6 v=78
192960 On ch=1 n=d#6 v=0
192960 On ch=1 n=c#6 v=69
193440 On ch=1 n=c#6 v=0
193440 On ch=1 n=d#6 v=73
193920 On ch=1 n=d#6 v=0
193920 On ch=1 n=b5 v=69
194400 On ch=1 n=b5 v=0
194400 On ch=1 n=a#5 v=68
194760 On ch=1 n=a#5 v=0
194760 On ch=1 n=b5 v=70
194880 On ch=1 n=b5 v=0
194880 On ch=1 n=c#6 v=65
195360 On ch=1 n=c#6 v=0
195360 On ch=1 n=f#5 v=57
195393 On ch=1 n=f#5 v=0
195394 On ch=1 n=g#5 v=55
195427 On ch=1 n=g#5 v=0
195428 On ch=1 n=f#5 v=54
195461 On ch=1 n=f#5 v=0
195462 On ch=1 n=e5 v=54
195495 On ch=1 n=e5 v=0
195496 On ch=1 n=f#5 v=53
195529 On ch=1 n=f#5 v=0
195530 On ch=1 n=g#5 v=52
195563 On ch=1 n=g#5 v=0
195564 On ch=1 n=b5 v=52
195597 On ch=1 n=b5 v=0
195598 On ch=1 n=c#6 v=52
195631 On ch=1 n=c#6 v=0
195632 On ch=1 n=d#6 v=52
195665 On ch=1 n=d#6 v=0
195666 On ch=1 n=e6 v=53
195699 On ch=1 n=e6 v=0
195700 On ch=1 n=f#6 v=54
195733 On ch=1 n=f#6 v=0
195734 On ch=1 n=a6 v=54
195767 On ch=1 n=a6 v=0
195770 On ch=1 n=g#6 v=56
195803 On ch=1 n=g#6 v=0
195804 On ch=1 n=e6 v=59
195840 On ch=1 n=d#6 v=62
195855 On ch=1 n=e6 v=0
196320 On ch=1 n=g#5 v=51
196775 On ch=1 n=d#6 v=0
196800 On ch=1 n=g#5 v=0
196800 On ch=1 n=b5 v=52
196800 On ch=1 n=f#5 v=50
197160 On ch=1 n=b5 v=0
197160 On ch=1 n=c#6 v=59
197280 On ch=1 n=c#6 v=0
197280 On ch=1 n=d#6 v=77
197600 On ch=1 n=d#6 v=0
197632 On ch=1 n=f#6 v=64
197670 On ch=1 n=e6 v=57
197717 On ch=1 n=f#6 v=0
197740 On ch=1 n=f#5 v=0
197760 On ch=1 n=f#5 v=51
197760 On ch=1 n=d#6 v=62
197789 On ch=1 n=e6 v=0
198240 On ch=1 n=d#6 v=0
198240 On ch=1 n=f#5 v=0
198240 On ch=1 n=g#5 v=61
198240 On ch=1 n=c#6 v=64
198600 On ch=1 n=c#6 v=0
198600 On ch=1 n=d#6 v=42
198720 On ch=1 n=d#6 v=0
198720 On ch=1 n=g#5 v=0
198720 On ch=1 n=f#5 v=54
198720 On ch=1 n=e6 v=61
198840 On ch=1 n=e6 v=0
198898 On ch=1 n=e6 v=61
198935 On ch=1 n=e6 v=0
198960 On ch=1 n=e6 v=61
199020 On ch=1 n=f#6 v=61
199071 On ch=1 n=e6 v=0
199080 On ch=1 n=e6 v=61
199131 On ch=1 n=f#6 v=0
199140 On ch=1 n=d#6 v=61
199191 On ch=1 n=e6 v=0
199200 On ch=1 n=f#5 v=0
199200 On ch=1 n=g#5 v=45
199200 On ch=1 n=e6 v=61
199251 On ch=1 n=d#6 v=0
199560 On ch=1 n=e6 v=0
199560 On ch=1 n=f#6 v=61
199680 On ch=1 n=f#6 v=0
199680 On ch=1 n=g#5 v=0
199680 On ch=1 n=a5 v=61
199680 On ch=1 n=d#5 v=50
199680 On ch=1 n=d#6 v=65
200640 On ch=1 n=d#5 v=0
200640 On ch=1 n=a5 v=0
200640 On ch=1 n=g#5 v=38
200640 On ch=1 n=e5 v=38
200880 On ch=1 n=d#6 v=0
200880 On ch=1 n=c#6 v=60
201120 On ch=1 n=c#6 v=0
201120 On ch=1 n=e5 v=0
201120 On ch=1 n=g#5 v=0
201120 On ch=1 n=b5 v=61
201480 On ch=1 n=b5 v=0
201480 On ch=1 n=b6 v=61
201585 On ch=1 n=b6 v=0
201600 On ch=1 n=b6 v=61
202080 On ch=1 n=b6 v=0
202080 On ch=1 n=g#4 v=53
202080 On ch=1 n=b4 v=53
202080 On ch=1 n=c#5 v=59
203010 On ch=1 n=c#5 v=0
203010 On ch=1 n=b4 v=0
203010 On ch=1 n=g#4 v=0
203040 On ch=1 n=f#4 v=54
203040 On ch=1 n=b4 v=54
203040 On ch=1 n=d#5 v=63
203500 On ch=1 n=b4 v=0
203520 On ch=1 n=d#5 v=0
203520 On ch=1 n=f#4 v=0
203520 On ch=1 n=b4 v=63
203880 On ch=1 n=b4 v=0
203880 On ch=1 n=e5 v=61
203985 On ch=1 n=e5 v=0
204000 On ch=1 n=e5 v=61
204240 On ch=1 n=e5 v=0
204480 On ch=1 n=d#6 v=63
204720 On ch=1 n=d#6 v=0
204720 On ch=1 n=c#6 v=63
204960 On ch=1 n=c#6 v=0
204960 On ch=1 n=b5 v=61
205320 On ch=1 n=b5 v=0
205320 On ch=1 n=b6 v=61
205425 On ch=1 n=b6 v=0
205440 On ch=1 n=b6 v=61
205920 On ch=1 n=b6 v=0
205920 On ch=1 n=e5 v=54
205920 On ch=1 n=b4 v=54
206860 On ch=1 n=b4 v=0
206880 On ch=1 n=e5 v=0
206880 On ch=1 n=b4 v=61
206880 On ch=1 n=d5 v=61
206880 On ch=1 n=f#5 v=61
207340 On ch=1 n=d5 v=0
207340 On ch=1 n=b4 v=0
207360 On ch=1 n=f#5 v=0
207360 On ch=1 n=g#4 v=55
207360 On ch=1 n=b4 v=55
207360 On ch=1 n=g#5 v=67
207360 On ch=1 n=c#5 v=55
207820 On ch=1 n=c#5 v=0
207820 On ch=1 n=g#5 v=0
207820 On ch=1 n=b4 v=0
207820 On ch=1 n=g#4 v=0
207840 On ch=1 n=g#6 v=77
208320 On ch=1 n=g#5 v=77
208326 On ch=1 n=g#6 v=0
208780 On ch=1 n=g#5 v=0
208800 On ch=1 n=a#5 v=77
208800 On ch=1 n=c#5 v=77
208800 On ch=1 n=f#5 v=77
208855 On ch=1 n=a#5 v=0
208860 On ch=1 n=b5 v=77
208890 On ch=1 n=a#5 v=77
208915 On ch=1 n=b5 v=0
208920 On ch=1 n=b5 v=77
208926 On ch=1 n=a#5 v=0
208950 On ch=1 n=a#5 v=77
208956 On ch=1 n=b5 v=0
208980 On ch=1 n=b5 v=77
208986 On ch=1 n=a#5 v=0
209010 On ch=1 n=a#5 v=77
209016 On ch=1 n=b5 v=0
209040 On ch=1 n=b5 v=77
209046 On ch=1 n=a#5 v=0
209070 On ch=1 n=a#5 v=77
209076 On ch=1 n=b5 v=0
209105 On ch=1 n=b5 v=77
209106 On ch=1 n=a#5 v=0
209140 On ch=1 n=a#5 v=77
209141 On ch=1 n=b5 v=0
209192 On ch=1 n=a#5 v=0
209192 On ch=1 n=a5 v=77
209234 On ch=1 n=a#5 v=77
209235 On ch=1 n=a5 v=0
209280 On ch=1 n=f#5 v=0
209280 On ch=1 n=c#5 v=0
209280 On ch=1 n=b4 v=77
209280 On ch=1 n=b5 v=85
209280 On ch=1 n=f#5 v=77
209284 On ch=1 n=a#5 v=0
209740 On ch=1 n=f#5 v=0
209740 On ch=1 n=b5 v=0
209740 On ch=1 n=b4 v=0
209760 On ch=1 n=e6 v=79
210240 On ch=1 n=e5 v=74
210246 On ch=1 n=e6 v=0
210700 On ch=1 n=e5 v=0
210720 On ch=1 n=g5 v=70
210720 On ch=1 n=a#4 v=68
210720 On ch=1 n=d#5 v=68
210753 On ch=1 n=g5 v=0
210780 On ch=1 n=g#5 v=68
210810 On ch=1 n=g5 v=70
210812 On ch=1 n=g#5 v=0
210840 On ch=1 n=g#5 v=70
210846 On ch=1 n=g5 v=0
210870 On ch=1 n=g5 v=70
210876 On ch=1 n=g#5 v=0
210900 On ch=1 n=g#5 v=70
210906 On ch=1 n=g5 v=0
210930 On ch=1 n=g5 v=72
210936 On ch=1 n=g#5 v=0
210960 On ch=1 n=g#5 v=72
210966 On ch=1 n=g5 v=0
210990 On ch=1 n=g5 v=72
210996 On ch=1 n=g#5 v=0
211025 On ch=1 n=g#5 v=72
211026 On ch=1 n=g5 v=0
211060 On ch=1 n=g5 v=72
211061 On ch=1 n=g#5 v=0
211112 On ch=1 n=f5 v=74
211114 On ch=1 n=g5 v=0
211154 On ch=1 n=f5 v=0
211154 On ch=1 n=g5 v=74
211190 On ch=1 n=d#5 v=0
211190 On ch=1 n=a#4 v=0
211200 On ch=1 n=g#5 v=63
211200 On ch=1 n=g#4 v=61
211200 On ch=1 n=d#5 v=61
211201 On ch=1 n=g5 v=0
211680 On ch=1 n=d#5 v=0
211680 On ch=1 n=g#4 v=0
211680 On ch=1 n=g#5 v=0
211680 On ch=1 n=c#5 v=61
211680 On ch=1 n=f5 v=61
211680 On ch=1 n=a#5 v=68
212040 On ch=1 n=a#5 v=0
212040 On ch=1 n=g#5 v=63
212140 On ch=1 n=f5 v=0
212140 On ch=1 n=c#5 v=0
212160 On ch=1 n=g#5 v=0
212160 On ch=1 n=c#5 v=60
212160 On ch=1 n=f#4 v=60
212160 On ch=1 n=f#5 v=65
212611 On ch=1 n=f#4 v=0
212640 On ch=1 n=f#5 v=0
212640 On ch=1 n=c#5 v=0
212640 On ch=1 n=c5 v=61
212640 On ch=1 n=d#5 v=66
212640 On ch=1 n=f#4 v=61
213110 On ch=1 n=c5 v=0
213120 On ch=1 n=f#4 v=0
213120 On ch=1 n=d#5 v=0
213120 On ch=1 n=e5 v=61
213120 On ch=1 n=c5 v=64
213120 On ch=1 n=g4 v=61
213600 On ch=1 n=g4 v=0
213600 On ch=1 n=c5 v=0
213600 On ch=1 n=e5 v=0
213600 On ch=1 n=d5 v=61
213600 On ch=1 n=b4 v=61
213600 On ch=1 n=f4 v=56
214070 On ch=1 n=b4 v=0
214080 On ch=1 n=f4 v=0
214080 On ch=1 n=d5 v=0
214080 On ch=1 n=f#4 v=64
214080 On ch=1 n=b4 v=56
214080 On ch=1 n=d#5 v=62
214560 On ch=1 n=d#5 v=0
214560 On ch=1 n=b4 v=0
214560 On ch=1 n=f#4 v=0
214560 On ch=1 n=e4 v=57
214560 On ch=1 n=a#4 v=61
215025 On ch=1 n=a#4 v=0
215025 On ch=1 n=e4 v=0
215040 On ch=1 n=d#4 v=54
215040 On ch=1 n=b4 v=49
216000 On ch=1 n=b4 v=0
216000 On ch=1 n=d#4 v=0
216000 On ch=1 n=f#4 v=47
216000 On ch=1 n=d#5 v=47
216000 On ch=1 n=g#5 v=59
216940 On ch=1 n=f#4 v=0
216950 On ch=1 n=g#5 v=0
216960 On ch=1 n=d#5 v=0
216960 On ch=1 n=f#4 v=51
216960 On ch=1 n=a#4 v=51
216960 On ch=1 n=e5 v=54
216960 On ch=1 n=g#5 v=68
217920 On ch=1 n=g#5 v=0
217920 On ch=1 n=a#5 v=67
218860 On ch=1 n=f#4 v=0
218870 On ch=1 n=a#5 v=0
218880 On ch=1 n=e5 v=0
218880 On ch=1 n=a#4 v=0
218880 On ch=1 n=f#4 v=55
218880 On ch=1 n=b4 v=55
218880 On ch=1 n=d#5 v=55
218880 On ch=1 n=a#5 v=67
219360 On ch=1 n=a#5 v=0
219360 On ch=1 n=b5 v=67
219830 On ch=1 n=d#5 v=0
219840 On ch=1 n=b5 v=0
219840 On ch=1 n=d#5 v=62
219930 On ch=1 n=d#5 v=0
219995 On ch=1 n=d#5 v=56
220052 On ch=1 n=d#5 v=0
220060 On ch=1 n=d#5 v=55
220112 On ch=1 n=e5 v=55
220117 On ch=1 n=d#5 v=0
220164 On ch=1 n=d#5 v=56
220169 On ch=1 n=e5 v=0
220216 On ch=1 n=d5 v=57
220221 On ch=1 n=d#5 v=0
220255 On ch=1 n=d#5 v=57
220273 On ch=1 n=d5 v=0
220312 On ch=1 n=d#5 v=0
220320 On ch=1 n=a#5 v=65
220680 On ch=1 n=a#5 v=0
220680 On ch=1 n=g#5 v=62
220780 On ch=1 n=f#4 v=0
220795 On ch=1 n=g#5 v=0
220800 On ch=1 n=b4 v=0
220800 On ch=1 n=g#5 v=61
220800 On ch=1 n=a#4 v=61
220800 On ch=1 n=e5 v=61
220800 On ch=1 n=f#4 v=57
221760 On ch=1 n=f#5 v=61
221772 On ch=1 n=g#5 v=0
222240 On ch=1 n=f#5 v=0
222240 On ch=1 n=a#5 v=65
222600 On ch=1 n=b5 v=61
222607 On ch=1 n=a#5 v=0
222700 On ch=1 n=f#4 v=0
222710 On ch=1 n=e5 v=0
222710 On ch=1 n=a#4 v=0
222718 On ch=1 n=b5 v=0
222720 On ch=1 n=c6 v=65
222720 On ch=1 n=e5 v=61
222720 On ch=1 n=a#4 v=61
223200 On ch=1 n=c6 v=0
223200 On ch=1 n=c#6 v=64
223680 On ch=1 n=a#4 v=0
223680 On ch=1 n=e5 v=0
224160 On ch=1 n=c#6 v=0
224160 On ch=1 n=d#6 v=63
224520 On ch=1 n=d#6 v=0
224520 On ch=1 n=e6 v=61
224638 On ch=1 n=e6 v=0
224640 On ch=1 n=e6 v=47
224640 On ch=1 n=a#5 v=47
224640 On ch=1 n=c#5 v=56
226410 On ch=1 n=c#5 v=0
226440 On ch=1 n=e6 v=0
226440 On ch=1 n=d#5 v=45
226440 On ch=1 n=d#6 v=45
226558 On ch=1 n=d#6 v=0
226558 On ch=1 n=d#5 v=0
226560 On ch=1 n=a#5 v=0
226560 On ch=1 n=d#6 v=43
226560 On ch=1 n=b5 v=38
226560 On ch=1 n=d#5 v=38
227040 On ch=1 n=d#5 v=0
227040 On ch=1 n=b5 v=0
227040 On ch=1 n=d#6 v=0
227520 On ch=1 n=d#5 v=70
227520 On ch=1 n=b4 v=70
227520 On ch=1 n=d#4 v=70
227520 On ch=1 n=b3 v=70
227520 On ch=1 n=g4 v=75
228450 On ch=1 n=g4 v=0
228450 On ch=1 n=b3 v=0
228450 On ch=1 n=d#4 v=0
228450 On ch=1 n=b4 v=0
228450 On ch=1 n=d#5 v=0
228480 On ch=1 n=d#5 v=42
228480 On ch=1 n=b4 v=42
228480 On ch=1 n=f#4 v=50
228480 On ch=1 n=d#4 v=42
228480 On ch=1 n=b3 v=42
230400 On ch=1 n=b3 v=0
230400 On ch=1 n=d#4 v=0
230400 On ch=1 n=f#4 v=0
230400 On ch=1 n=b4 v=0
230400 On ch=1 n=d#5 v=0
230400 Meta TrkEnd
TrkEnd
MTrk
0 SeqSpec 43 00 01 00
0 Meta TrkName "Acoustic Grand Piano"
0 SeqSpec 03 00 01 00 01
0 SeqSpec 03 00 02 00 00
0 SeqSpec 03 00 0e 01
0 SeqSpec 03 00 0f 01
0 SeqSpec 03 00 13 01
0 Meta 0x21 00
0 Meta 0x20 00
0 SeqSpec 03 00 07 00
0 SeqSpec 03 00 08 7f
0 SeqSpec 03 00 09 40
414 On ch=1 n=d#4 v=90
414 On ch=1 n=d#3 v=90
477 On ch=1 n=d#3 v=0
477 On ch=1 n=d#4 v=0
480 On ch=1 n=c#3 v=90
480 On ch=1 n=c#4 v=90
850 On ch=1 n=c#4 v=0
850 On ch=1 n=c#3 v=0
900 On ch=1 n=d#4 v=90
900 On ch=1 n=d#3 v=90
946 On ch=1 n=d#3 v=0
946 On ch=1 n=d#4 v=0
960 On ch=1 n=b3 v=90
960 On ch=1 n=b2 v=90
1330 On ch=1 n=b2 v=0
1330 On ch=1 n=b3 v=0
1380 On ch=1 n=d#4 v=90
1380 On ch=1 n=d#3 v=90
1426 On ch=1 n=d#3 v=0
1426 On ch=1 n=d#4 v=0
1440 On ch=1 n=a#3 v=90
1440 On ch=1 n=a#2 v=90
1810 On ch=1 n=a#2 v=0
1810 On ch=1 n=a#3 v=0
1860 On ch=1 n=b3 v=90
1860 On ch=1 n=b2 v=90
1906 On ch=1 n=b2 v=0
1906 On ch=1 n=b3 v=0
1920 On ch=1 n=g#3 v=90
1920 On ch=1 n=g#2 v=90
2290 On ch=1 n=g#2 v=0
2290 On ch=1 n=g#3 v=0
2340 On ch=1 n=e3 v=92
2340 On ch=1 n=e4 v=92
2390 On ch=1 n=e3 v=0
2400 On ch=1 n=e4 v=0
2400 On ch=1 n=e3 v=92
2400 On ch=1 n=e4 v=92
3810 On ch=1 n=e3 v=0
3815 On ch=1 n=e4 v=0
3840 On ch=1 n=g2 v=58
3840 On ch=1 n=g3 v=58
4790 On ch=1 n=g3 v=0
4790 On ch=1 n=g2 v=0
4800 On ch=1 n=d4 v=56
4800 On ch=1 n=g3 v=56
5210 On ch=1 n=g3 v=0
5210 On ch=1 n=d4 v=0
5280 On ch=1 n=d#4 v=56
5280 On ch=1 n=f#3 v=51
5570 On ch=1 n=f#3 v=0
5570 On ch=1 n=d#4 v=0
5640 On ch=1 n=f#3 v=52
5640 On ch=1 n=e4 v=52
5730 On ch=1 n=e4 v=0
5730 On ch=1 n=f#3 v=0
5760 On ch=1 n=f#3 v=60
6235 On ch=1 n=f#3 v=0
6240 On ch=1 n=f#2 v=50
6460 On ch=1 n=f#2 v=0
6720 On ch=1 n=b2 v=31
6720 On ch=1 n=f#3 v=28
7095 On ch=1 n=f#3 v=0
7095 On ch=1 n=b2 v=0
7680 On ch=1 n=b2 v=44
7912 On ch=1 n=b2 v=0
8040 On ch=1 n=d#5 v=30
8040 On ch=1 n=b4 v=30
8040 On ch=1 n=f#4 v=30
8154 On ch=1 n=f#4 v=0
8154 On ch=1 n=b4 v=0
8154 On ch=1 n=d#5 v=0
8160 On ch=1 n=f#4 v=30
8160 On ch=1 n=b4 v=30
8160 On ch=1 n=d#5 v=30
8400 On ch=1 n=d#5 v=0
8400 On ch=1 n=b4 v=0
8400 On ch=1 n=f#4 v=0
8520 On ch=1 n=f#3 v=44
8640 On ch=1 n=f#3 v=0
8640 On ch=1 n=b2 v=44
8880 On ch=1 n=b2 v=0
9000 On ch=1 n=f#4 v=30
9000 On ch=1 n=b4 v=30
9000 On ch=1 n=d#5 v=30
9114 On ch=1 n=d#5 v=0
9114 On ch=1 n=b4 v=0
9114 On ch=1 n=f#4 v=0
9120 On ch=1 n=d#5 v=29
9120 On ch=1 n=b4 v=29
9120 On ch=1 n=f#4 v=29
9360 On ch=1 n=f#4 v=0
9360 On ch=1 n=b4 v=0
9360 On ch=1 n=d#5 v=0
9480 On ch=1 n=f#3 v=40
9594 On ch=1 n=f#3 v=0
9600 On ch=1 n=a#2 v=44
9832 On ch=1 n=a#2 v=0
9960 On ch=1 n=c#5 v=32
9960 On ch=1 n=e5 v=32
9960 On ch=1 n=f#4 v=32
10074 On ch=1 n=f#4 v=0
10074 On ch=1 n=e5 v=0
10074 On ch=1 n=c#5 v=0
10080 On ch=1 n=f#4 v=32
10080 On ch=1 n=c#5 v=32
10080 On ch=1 n=e5 v=32
10320 On ch=1 n=e5 v=0
10320 On ch=1 n=c#5 v=0
10320 On ch=1 n=f#4 v=0
10440 On ch=1 n=f#3 v=44
10560 On ch=1 n=f#3 v=0
10560 On ch=1 n=c#3 v=44
10800 On ch=1 n=c#3 v=0
10920 On ch=1 n=f#4 v=33
10920 On ch=1 n=a#4 v=33
10920 On ch=1 n=e5 v=33
11034 On ch=1 n=e5 v=0
11034 On ch=1 n=a#4 v=0
11034 On ch=1 n=f#4 v=0
11040 On ch=1 n=f#4 v=33
11040 On ch=1 n=a#4 v=33
11040 On ch=1 n=e5 v=33
11280 On ch=1 n=e5 v=0
11280 On ch=1 n=a#4 v=0
11280 On ch=1 n=f#4 v=0
11400 On ch=1 n=f#3 v=40
11514 On ch=1 n=f#3 v=0
11520 On ch=1 n=b2 v=44
11752 On ch=1 n=b2 v=0
11880 On ch=1 n=d#5 v=29
11880 On ch=1 n=b4 v=29
11880 On ch=1 n=f#4 v=29
11994 On ch=1 n=f#4 v=0
11994 On ch=1 n=b4 v=0
11994 On ch=1 n=d#5 v=0
12000 On ch=1 n=f#4 v=29
12000 On ch=1 n=b4 v=29
12000 On ch=1 n=d#5 v=29
12240 On ch=1 n=d#5 v=0
12240 On ch=1 n=b4 v=0
12240 On ch=1 n=f#4 v=0
12360 On ch=1 n=f3 v=44
12480 On ch=1 n=f3 v=0
12480 On ch=1 n=a#2 v=44
12720 On ch=1 n=a#2 v=0
12840 On ch=1 n=c#5 v=33
12840 On ch=1 n=a#4 v=33
12840 On ch=1 n=f4 v=33
12954 On ch=1 n=f4 v=0
12954 On ch=1 n=a#4 v=0
12954 On ch=1 n=c#5 v=0
12960 On ch=1 n=c#5 v=30
12960 On ch=1 n=g4 v=30
12960 On ch=1 n=d#4 v=30
13200 On ch=1 n=d#4 v=0
13200 On ch=1 n=g4 v=0
13200 On ch=1 n=c#5 v=0
13320 On ch=1 n=d#3 v=40
13434 On ch=1 n=d#3 v=0
13440 On ch=1 n=g#2 v=44
13672 On ch=1 n=g#2 v=0
13800 On ch=1 n=d4 v=33
13800 On ch=1 n=f#4 v=33
13800 On ch=1 n=b4 v=33
13914 On ch=1 n=b4 v=0
13914 On ch=1 n=f#4 v=0
13914 On ch=1 n=d4 v=0
13920 On ch=1 n=b4 v=33
13920 On ch=1 n=f4 v=33
13920 On ch=1 n=c#4 v=33
14160 On ch=1 n=c#4 v=0
14160 On ch=1 n=f4 v=0
14160 On ch=1 n=b4 v=0
14280 On ch=1 n=c#3 v=44
14400 On ch=1 n=c#3 v=0
14400 On ch=1 n=f#2 v=44
14640 On ch=1 n=f#2 v=0
14760 On ch=1 n=b4 v=33
14760 On ch=1 n=g4 v=33
14760 On ch=1 n=e5 v=33
14874 On ch=1 n=e5 v=0
14874 On ch=1 n=g4 v=0
14874 On ch=1 n=b4 v=0
14880 On ch=1 n=f#4 v=33
14880 On ch=1 n=a#4 v=33
14880 On ch=1 n=e5 v=33
15120 On ch=1 n=e5 v=0
15120 On ch=1 n=a#4 v=0
15120 On ch=1 n=f#4 v=0
15240 On ch=1 n=f#3 v=40
15354 On ch=1 n=f#3 v=0
15360 On ch=1 n=b2 v=44
15592 On ch=1 n=b2 v=0
15720 On ch=1 n=f#4 v=33
15720 On ch=1 n=b4 v=33
15720 On ch=1 n=d#5 v=33
15834 On ch=1 n=d#5 v=0
15834 On ch=1 n=b4 v=0
15834 On ch=1 n=f#4 v=0
15840 On ch=1 n=f#4 v=33
15840 On ch=1 n=b4 v=33
15840 On ch=1 n=d#5 v=33
16080 On ch=1 n=d#5 v=0
16080 On ch=1 n=b4 v=0
16080 On ch=1 n=f#4 v=0
16200 On ch=1 n=f#3 v=44
16320 On ch=1 n=b2 v=44
16322 On ch=1 n=f#3 v=0
16560 On ch=1 n=b2 v=0
16680 On ch=1 n=d#5 v=31
16680 On ch=1 n=b4 v=31
16680 On ch=1 n=f#4 v=31
16794 On ch=1 n=f#4 v=0
16794 On ch=1 n=b4 v=0
16794 On ch=1 n=d#5 v=0
16800 On ch=1 n=d#5 v=31
16800 On ch=1 n=b4 v=31
16800 On ch=1 n=f#4 v=31
17040 On ch=1 n=f#4 v=0
17040 On ch=1 n=b4 v=0
17040 On ch=1 n=d#5 v=0
17160 On ch=1 n=f#3 v=40
17274 On ch=1 n=f#3 v=0
17280 On ch=1 n=a#2 v=44
17512 On ch=1 n=a#2 v=0
17640 On ch=1 n=f#4 v=33
17640 On ch=1 n=e5 v=33
17640 On ch=1 n=c#5 v=33
17754 On ch=1 n=c#5 v=0
17754 On ch=1 n=e5 v=0
17754 On ch=1 n=f#4 v=0
17760 On ch=1 n=f#4 v=33
17760 On ch=1 n=c#5 v=33
17760 On ch=1 n=e5 v=33
18000 On ch=1 n=e5 v=0
18000 On ch=1 n=c#5 v=0
18000 On ch=1 n=f#4 v=0
18120 On ch=1 n=f#3 v=44
18240 On ch=1 n=f#3 v=0
18240 On ch=1 n=c#3 v=44
18480 On ch=1 n=c#3 v=0
18600 On ch=1 n=f#4 v=32
18600 On ch=1 n=a#4 v=32
18600 On ch=1 n=e5 v=32
18714 On ch=1 n=e5 v=0
18714 On ch=1 n=a#4 v=0
18714 On ch=1 n=f#4 v=0
18720 On ch=1 n=f#4 v=32
18720 On ch=1 n=a#4 v=32
18720 On ch=1 n=e5 v=32
18960 On ch=1 n=e5 v=0
18960 On ch=1 n=a#4 v=0
18960 On ch=1 n=f#4 v=0
19080 On ch=1 n=f#3 v=40
19194 On ch=1 n=f#3 v=0
19200 On ch=1 n=c3 v=44
19432 On ch=1 n=c3 v=0
19560 On ch=1 n=g#4 v=33
19560 On ch=1 n=f#5 v=33
19560 On ch=1 n=d#5 v=33
19674 On ch=1 n=d#5 v=0
19674 On ch=1 n=f#5 v=0
19674 On ch=1 n=g#4 v=0
19680 On ch=1 n=d#5 v=33
19680 On ch=1 n=g#4 v=33
19680 On ch=1 n=f#5 v=33
19920 On ch=1 n=f#5 v=0
19920 On ch=1 n=g#4 v=0
19920 On ch=1 n=d#5 v=0
20040 On ch=1 n=c3 v=44
20150 On ch=1 n=c3 v=0
20160 On ch=1 n=c#3 v=44
20400 On ch=1 n=c#3 v=0
20520 On ch=1 n=f#5 v=33
20520 On ch=1 n=c#5 v=33
20520 On ch=1 n=a#4 v=33
20634 On ch=1 n=a#4 v=0
20634 On ch=1 n=c#5 v=0
20634 On ch=1 n=f#5 v=0
20640 On ch=1 n=f#5 v=33
20640 On ch=1 n=c#5 v=33
20640 On ch=1 n=a#4 v=33
20880 On ch=1 n=a#4 v=0
20880 On ch=1 n=c#5 v=0
20880 On ch=1 n=f#5 v=0
21000 On ch=1 n=c#2 v=40
21114 On ch=1 n=c#2 v=0
21120 On ch=1 n=c#3 v=44
21352 On ch=1 n=c#3 v=0
21480 On ch=1 n=g#4 v=27
21480 On ch=1 n=c#5 v=27
21480 On ch=1 n=f5 v=27
21594 On ch=1 n=f5 v=0
21594 On ch=1 n=c#5 v=0
21594 On ch=1 n=g#4 v=0
21600 On ch=1 n=f5 v=27
21600 On ch=1 n=c#5 v=27
21600 On ch=1 n=g#4 v=27
21600 On ch=1 n=f5 v=27
21600 On ch=1 n=c#5 v=27
21600 On ch=1 n=g#4 v=27
21840 On ch=1 n=g#4 v=0
21840 On ch=1 n=c#5 v=0
21840 On ch=1 n=f5 v=0
21840 On ch=1 n=g#4 v=0
21840 On ch=1 n=c#5 v=0
21840 On ch=1 n=f5 v=0
21960 On ch=1 n=c#3 v=40
22070 On ch=1 n=c#3 v=0
22080 On ch=1 n=f#3 v=40
22320 On ch=1 n=f#3 v=0
22440 On ch=1 n=f#5 v=29
22440 On ch=1 n=c#5 v=29
22440 On ch=1 n=a#4 v=29
22554 On ch=1 n=a#4 v=0
22554 On ch=1 n=c#5 v=0
22554 On ch=1 n=f#5 v=0
22560 On ch=1 n=f#5 v=29
22560 On ch=1 n=c#5 v=29
22560 On ch=1 n=a#4 v=29
22800 On ch=1 n=a#4 v=0
22800 On ch=1 n=c#5 v=0
22800 On ch=1 n=f#5 v=0
22920 On ch=1 n=f#2 v=40
23034 On ch=1 n=f#2 v=0
23040 On ch=1 n=f#3 v=44
23272 On ch=1 n=f#3 v=0
23400 On ch=1 n=d#5 v=36
23400 On ch=1 n=f#4 v=36
23400 On ch=1 n=g#4 v=36
23400 On ch=1 n=c5 v=36
23514 On ch=1 n=c5 v=0
23514 On ch=1 n=g#4 v=0
23514 On ch=1 n=f#4 v=0
23514 On ch=1 n=d#5 v=0
23520 On ch=1 n=d#5 v=36
23520 On ch=1 n=c5 v=36
23520 On ch=1 n=g#4 v=36
23520 On ch=1 n=f#4 v=36
23760 On ch=1 n=f#4 v=0
23760 On ch=1 n=g#4 v=0
23760 On ch=1 n=c5 v=0
23760 On ch=1 n=d#5 v=0
23880 On ch=1 n=f#3 v=44
23990 On ch=1 n=f#3 v=0
24000 On ch=1 n=e3 v=44
24240 On ch=1 n=e3 v=0
24360 On ch=1 n=g#4 v=32
24360 On ch=1 n=e4 v=32
24360 On ch=1 n=c#5 v=32
24360 On ch=1 n=e5 v=32
24474 On ch=1 n=e5 v=0
24474 On ch=1 n=c#5 v=0
24474 On ch=1 n=e4 v=0
24474 On ch=1 n=g#4 v=0
24480 On ch=1 n=e5 v=32
24480 On ch=1 n=c#5 v=32
24480 On ch=1 n=e4 v=32
24480 On ch=1 n=g#4 v=32
24720 On ch=1 n=g#4 v=0
24720 On ch=1 n=e4 v=0
24720 On ch=1 n=c#5 v=0
24720 On ch=1 n=e5 v=0
24840 On ch=1 n=e3 v=40
24954 On ch=1 n=e3 v=0
24960 On ch=1 n=d#3 v=44
25192 On ch=1 n=d#3 v=0
25320 On ch=1 n=g#4 v=34
25320 On ch=1 n=f#5 v=34
25320 On ch=1 n=c5 v=34
25320 On ch=1 n=d#4 v=34
25434 On ch=1 n=d#4 v=0
25434 On ch=1 n=c5 v=0
25434 On ch=1 n=f#5 v=0
25434 On ch=1 n=g#4 v=0
25440 On ch=1 n=g#4 v=30
25440 On ch=1 n=f#5 v=30
25440 On ch=1 n=c5 v=30
25440 On ch=1 n=d#4 v=30
25680 On ch=1 n=d#4 v=0
25680 On ch=1 n=c5 v=0
25680 On ch=1 n=f#5 v=0
25680 On ch=1 n=g#4 v=0
25800 On ch=1 n=d#3 v=44
25910 On ch=1 n=d#3 v=0
25920 On ch=1 n=c#3 v=44
26160 On ch=1 n=c#3 v=0
26280 On ch=1 n=e5 v=37
26280 On ch=1 n=b4 v=37
26280 On ch=1 n=e4 v=37
26394 On ch=1 n=e4 v=0
26394 On ch=1 n=b4 v=0
26394 On ch=1 n=e5 v=0
26400 On ch=1 n=b4 v=37
26400 On ch=1 n=e4 v=37
26400 On ch=1 n=e5 v=37
26640 On ch=1 n=e5 v=0
26640 On ch=1 n=e4 v=0
26640 On ch=1 n=b4 v=0
26760 On ch=1 n=d#3 v=40
26876 On ch=1 n=d#3 v=0
26880 On ch=1 n=e3 v=44
27112 On ch=1 n=e3 v=0
27240 On ch=1 n=f#4 v=27
27240 On ch=1 n=e4 v=27
27240 On ch=1 n=a#4 v=27
27240 On ch=1 n=c#5 v=27
27354 On ch=1 n=c#5 v=0
27354 On ch=1 n=a#4 v=0
27354 On ch=1 n=e4 v=0
27354 On ch=1 n=f#4 v=0
27360 On ch=1 n=f#4 v=27
27360 On ch=1 n=a#4 v=27
27360 On ch=1 n=c#5 v=27
27360 On ch=1 n=e4 v=27
27598 On ch=1 n=e4 v=0
27598 On ch=1 n=c#5 v=0
27598 On ch=1 n=a#4 v=0
27598 On ch=1 n=f#4 v=0
27720 On ch=1 n=e3 v=44
27830 On ch=1 n=e3 v=0
27840 On ch=1 n=d#3 v=44
28080 On ch=1 n=d#3 v=0
28200 On ch=1 n=f#5 v=26
28200 On ch=1 n=f#4 v=26
28200 On ch=1 n=d#4 v=26
28200 On ch=1 n=b4 v=26
28314 On ch=1 n=b4 v=0
28314 On ch=1 n=d#4 v=0
28314 On ch=1 n=f#4 v=0
28314 On ch=1 n=f#5 v=0
28320 On ch=1 n=f#5 v=26
28320 On ch=1 n=b4 v=26
28320 On ch=1 n=f#4 v=26
28320 On ch=1 n=d#4 v=26
28560 On ch=1 n=d#4 v=0
28560 On ch=1 n=f#4 v=0
28560 On ch=1 n=b4 v=0
28560 On ch=1 n=f#5 v=0
28680 On ch=1 n=d#3 v=40
28794 On ch=1 n=d#3 v=0
28800 On ch=1 n=c#3 v=44
29032 On ch=1 n=c#3 v=0
29160 On ch=1 n=g4 v=21
29160 On ch=1 n=a#4 v=21
29160 On ch=1 n=g5 v=21
29160 On ch=1 n=e5 v=21
29274 On ch=1 n=e5 v=0
29274 On ch=1 n=g5 v=0
29274 On ch=1 n=a#4 v=0
29274 On ch=1 n=g4 v=0
29280 On ch=1 n=g4 v=21
29280 On ch=1 n=a#4 v=21
29280 On ch=1 n=g5 v=21
29280 On ch=1 n=e5 v=21
29520 On ch=1 n=e5 v=0
29520 On ch=1 n=g5 v=0
29520 On ch=1 n=a#4 v=0
29520 On ch=1 n=g4 v=0
29640 On ch=1 n=c#3 v=31
29750 On ch=1 n=c#3 v=0
29760 On ch=1 n=b2 v=31
30000 On ch=1 n=b2 v=0
30120 On ch=1 n=g#4 v=22
30120 On ch=1 n=d#5 v=22
30120 On ch=1 n=g#5 v=22
30225 On ch=1 n=g#5 v=0
30234 On ch=1 n=d#5 v=0
30234 On ch=1 n=g#4 v=0
30240 On ch=1 n=g#4 v=22
30240 On ch=1 n=d#5 v=22
30480 On ch=1 n=d#5 v=0
30480 On ch=1 n=g#4 v=0
30600 On ch=1 n=b2 v=28
30714 On ch=1 n=b2 v=0
30720 On ch=1 n=b2 v=28
30952 On ch=1 n=b2 v=0
31080 On ch=1 n=f#4 v=17
31080 On ch=1 n=b4 v=17
31080 On ch=1 n=d#5 v=17
31185 On ch=1 n=f#4 v=0
31194 On ch=1 n=d#5 v=0
31194 On ch=1 n=b4 v=0
31200 On ch=1 n=d#5 v=17
31200 On ch=1 n=b4 v=17
31200 On ch=1 n=f#4 v=17
31440 On ch=1 n=f#4 v=0
31440 On ch=1 n=b4 v=0
31440 On ch=1 n=d#5 v=0
31560 On ch=1 n=b2 v=29
31680 On ch=1 n=b2 v=29
31682 On ch=1 n=b2 v=0
31920 On ch=1 n=b2 v=0
32040 On ch=1 n=b4 v=18
32040 On ch=1 n=f#4 v=18
32040 On ch=1 n=d#5 v=18
32154 On ch=1 n=d#5 v=0
32154 On ch=1 n=f#4 v=0
32154 On ch=1 n=b4 v=0
32160 On ch=1 n=f#4 v=18
32160 On ch=1 n=b4 v=18
32160 On ch=1 n=d#5 v=18
32400 On ch=1 n=d#5 v=0
32400 On ch=1 n=b4 v=0
32400 On ch=1 n=f#4 v=0
32520 On ch=1 n=b2 v=27
32634 On ch=1 n=b2 v=0
32640 On ch=1 n=b2 v=27
32872 On ch=1 n=b2 v=0
33000 On ch=1 n=e5 v=20
33000 On ch=1 n=a#4 v=20
33000 On ch=1 n=f#4 v=20
33114 On ch=1 n=f#4 v=0
33114 On ch=1 n=a#4 v=0
33114 On ch=1 n=e5 v=0
33120 On ch=1 n=f#4 v=20
33120 On ch=1 n=a#4 v=20
33120 On ch=1 n=e5 v=20
33120 On ch=1 n=e5 v=20
33225 On ch=1 n=e5 v=0
33360 On ch=1 n=e5 v=0
33360 On ch=1 n=a#4 v=0
33360 On ch=1 n=f#4 v=0
33480 On ch=1 n=b2 v=29
33600 On ch=1 n=b2 v=0
33600 On ch=1 n=b2 v=29
33840 On ch=1 n=b2 v=0
33960 On ch=1 n=f#4 v=20
33960 On ch=1 n=a#4 v=20
33960 On ch=1 n=e5 v=20
34074 On ch=1 n=e5 v=0
34074 On ch=1 n=a#4 v=0
34074 On ch=1 n=f#4 v=0
34080 On ch=1 n=e5 v=20
34080 On ch=1 n=a#4 v=20
34080 On ch=1 n=f#4 v=20
34320 On ch=1 n=f#4 v=0
34320 On ch=1 n=a#4 v=0
34320 On ch=1 n=e5 v=0
34440 On ch=1 n=b2 v=40
34554 On ch=1 n=b2 v=0
34560 On ch=1 n=b2 v=61
34792 On ch=1 n=b2 v=0
35420 On ch=1 n=e3 v=26
35470 On ch=1 n=b3 v=28
35495 On ch=1 n=e4 v=33
35520 On ch=1 n=b4 v=36
36120 On ch=1 n=b4 v=0
36120 On ch=1 n=e4 v=0
36120 On ch=1 n=b3 v=0
36150 On ch=1 n=e3 v=0
36960 On ch=1 n=e3 v=61
37920 On ch=1 n=e3 v=0
37920 On ch=1 n=f#3 v=54
38400 On ch=1 n=f#3 v=0
38400 On ch=1 n=g#3 v=41
38400 On ch=1 n=e4 v=41
39120 On ch=1 n=e4 v=0
39120 On ch=1 n=g#3 v=0
40800 On ch=1 n=g#3 v=51
40800 On ch=1 n=e4 v=51
41760 On ch=1 n=e4 v=0
41760 On ch=1 n=g#3 v=0
41760 On ch=1 n=f#4 v=42
41760 On ch=1 n=f#3 v=42
42240 On ch=1 n=f#3 v=0
42240 On ch=1 n=f#4 v=0
42240 On ch=1 n=e3 v=40
42720 On ch=1 n=e3 v=0
43680 On ch=1 n=c#5 v=53
43680 On ch=1 n=e4 v=53
44160 On ch=1 n=c#5 v=0
44160 On ch=1 n=d5 v=53
44620 On ch=1 n=d5 v=0
44640 On ch=1 n=e4 v=0
45600 On ch=1 n=e4 v=40
45600 On ch=1 n=a#4 v=40
46560 On ch=1 n=a#4 v=0
46560 On ch=1 n=e4 v=0
46560 On ch=1 n=e3 v=55
47040 On ch=1 n=e3 v=0
47040 On ch=1 n=d#3 v=55
47520 On ch=1 n=d#3 v=0
47520 On ch=1 n=d3 v=57
48000 On ch=1 n=d3 v=0
48000 On ch=1 n=c#3 v=69
48000 On ch=1 n=c#3 v=59
48960 On ch=1 n=c#3 v=0
48960 On ch=1 n=c#3 v=0
48960 On ch=1 n=f#2 v=65
49920 On ch=1 n=f#2 v=0
49920 On ch=1 n=b2 v=53
50080 On ch=1 n=b2 v=0
50080 On ch=1 n=c#5 v=50
50240 On ch=1 n=c#5 v=0
50240 On ch=1 n=b4 v=50
50400 On ch=1 n=b4 v=0
50400 On ch=1 n=f#4 v=50
50560 On ch=1 n=f#4 v=0
50560 On ch=1 n=b4 v=53
50720 On ch=1 n=b4 v=0
50720 On ch=1 n=g#4 v=49
50880 On ch=1 n=g#4 v=0
50880 On ch=1 n=a4 v=56
51040 On ch=1 n=a4 v=0
51040 On ch=1 n=b4 v=52
51200 On ch=1 n=b4 v=0
51200 On ch=1 n=a4 v=53
51360 On ch=1 n=a4 v=0
51360 On ch=1 n=c#4 v=53
51520 On ch=1 n=c#4 v=0
51520 On ch=1 n=f#4 v=57
51680 On ch=1 n=f#4 v=0
51680 On ch=1 n=d#4 v=52
51840 On ch=1 n=d#4 v=0
51840 On ch=1 n=e4 v=53
52000 On ch=1 n=e4 v=0
52000 On ch=1 n=f#4 v=51
52160 On ch=1 n=f#4 v=0
52160 On ch=1 n=e4 v=49
52320 On ch=1 n=e4 v=0
52320 On ch=1 n=b3 v=47
52480 On ch=1 n=b3 v=0
52480 On ch=1 n=c#4 v=45
52640 On ch=1 n=c#4 v=0
52640 On ch=1 n=g#3 v=43
52800 On ch=1 n=g#3 v=0
52800 On ch=1 n=b3 v=40
52960 On ch=1 n=b3 v=0
52960 On ch=1 n=c#4 v=37
53120 On ch=1 n=c#4 v=0
53120 On ch=1 n=f3 v=38
53280 On ch=1 n=f3 v=0
53280 On ch=1 n=f#3 v=34
53440 On ch=1 n=f#3 v=0
53440 On ch=1 n=g#3 v=30
53600 On ch=1 n=g#3 v=0
53600 On ch=1 n=b2 v=23
53760 On ch=1 n=b2 v=0
53760 On ch=1 n=e3 v=53
53760 On ch=1 n=b3 v=53
55680 On ch=1 n=b3 v=0
55680 On ch=1 n=e3 v=0
55680 On ch=1 n=g#4 v=61
56400 On ch=1 n=g#4 v=0
56400 On ch=1 n=f#4 v=55
56640 On ch=1 n=f#4 v=0
56640 On ch=1 n=e4 v=51
56640 On ch=1 n=a3 v=51
57590 On ch=1 n=e4 v=0
57600 On ch=1 n=a3 v=0
57600 On ch=1 n=e4 v=53
57600 On ch=1 n=e3 v=53
58476 On ch=1 n=c#3 v=45
58520 On ch=1 n=g#3 v=49
58553 On ch=1 n=e4 v=0
58560 On ch=1 n=e3 v=0
58560 On ch=1 n=e4 v=58
60386 On ch=1 n=c#3 v=0
60396 On ch=1 n=a2 v=58
60430 On ch=1 n=g#3 v=0
60440 On ch=1 n=a3 v=58
60470 On ch=1 n=e4 v=0
60480 On ch=1 n=e4 v=58
61356 On ch=1 n=a2 v=0
61400 On ch=1 n=a3 v=0
61440 On ch=1 n=e4 v=0
61440 On ch=1 n=b3 v=56
61440 On ch=1 n=e3 v=56
63350 On ch=1 n=e3 v=0
63360 On ch=1 n=b3 v=0
63360 On ch=1 n=e3 v=61
63360 On ch=1 n=e2 v=61
65184 On ch=1 n=e2 v=0
65184 On ch=1 n=e3 v=0
65280 On ch=1 n=e3 v=56
65280 On ch=1 n=e2 v=56
68160 On ch=1 n=e2 v=0
68160 On ch=1 n=e3 v=0
69120 On ch=1 n=b4 v=63
69120 On ch=1 n=f#5 v=63
69804 On ch=1 n=b4 v=0
69840 On ch=1 n=f#5 v=0
69840 On ch=1 n=c#5 v=61
69840 On ch=1 n=b4 v=61
70068 On ch=1 n=b4 v=0
70080 On ch=1 n=c#5 v=0
70080 On ch=1 n=d#5 v=61
70080 On ch=1 n=b4 v=61
70560 On ch=1 n=b4 v=0
70560 On ch=1 n=d#5 v=0
72960 On ch=1 n=b4 v=61
72960 On ch=1 n=d#4 v=57
73644 On ch=1 n=d#4 v=0
73680 On ch=1 n=b4 v=0
73680 On ch=1 n=a#4 v=62
73680 On ch=1 n=d#4 v=56
73908 On ch=1 n=d#4 v=0
73920 On ch=1 n=a#4 v=0
73920 On ch=1 n=c#5 v=59
73920 On ch=1 n=d#4 v=56
74880 On ch=1 n=d#4 v=0
74880 On ch=1 n=c#5 v=0
76800 On ch=1 n=g#3 v=57
76800 On ch=1 n=e4 v=57
76960 On ch=1 n=e4 v=0
76960 On ch=1 n=f#4 v=57
77120 On ch=1 n=f#4 v=0
77120 On ch=1 n=e4 v=57
77280 On ch=1 n=e4 v=0
77440 On ch=1 n=g#4 v=57
77600 On ch=1 n=g#4 v=0
77600 On ch=1 n=c#4 v=57
77760 On ch=1 n=c#4 v=0
77760 On ch=1 n=d#4 v=57
78624 On ch=1 n=g#3 v=0
78720 On ch=1 n=d#4 v=0
78720 On ch=1 n=g#3 v=57
78720 On ch=1 n=e4 v=57
78880 On ch=1 n=e4 v=0
78880 On ch=1 n=f#4 v=57
79040 On ch=1 n=f#4 v=0
79040 On ch=1 n=e4 v=57
79200 On ch=1 n=e4 v=0
79360 On ch=1 n=g#4 v=57
79520 On ch=1 n=g#4 v=0
79520 On ch=1 n=c#4 v=57
79680 On ch=1 n=c#4 v=0
79680 On ch=1 n=d#4 v=57
81590 On ch=1 n=d#4 v=0
81600 On ch=1 n=g#3 v=0
81600 On ch=1 n=d#4 v=60
81600 On ch=1 n=d#3 v=60
82512 On ch=1 n=d#4 v=0
82560 On ch=1 n=d#3 v=0
82560 On ch=1 n=g#3 v=53
82560 On ch=1 n=d#4 v=53
83520 On ch=1 n=d#4 v=0
83520 On ch=1 n=g#3 v=0
84480 On ch=1 n=e3 v=59
85440 On ch=1 n=b3 v=63
86400 On ch=1 n=b3 v=0
86400 On ch=1 n=e3 v=0
86400 On ch=1 n=g#4 v=69
87120 On ch=1 n=g#4 v=0
87120 On ch=1 n=f#4 v=61
87360 On ch=1 n=f#4 v=0
87360 On ch=1 n=a3 v=57
87360 On ch=1 n=e4 v=57
88310 On ch=1 n=e4 v=0
88320 On ch=1 n=a3 v=0
88320 On ch=1 n=e3 v=57
88320 On ch=1 n=e4 v=57
89196 On ch=1 n=c#3 v=45
89240 On ch=1 n=g#3 v=49
89273 On ch=1 n=e4 v=0
89280 On ch=1 n=e3 v=0
89280 On ch=1 n=e4 v=58
91106 On ch=1 n=c#3 v=0
91116 On ch=1 n=a2 v=58
91150 On ch=1 n=g#3 v=0
91160 On ch=1 n=a3 v=58
91190 On ch=1 n=e4 v=0
91200 On ch=1 n=e4 v=58
92076 On ch=1 n=a2 v=0
92120 On ch=1 n=a3 v=0
92160 On ch=1 n=e4 v=0
92160 On ch=1 n=b3 v=56
92160 On ch=1 n=e3 v=56
94070 On ch=1 n=e3 v=0
94080 On ch=1 n=b3 v=0
94080 On ch=1 n=e3 v=61
94080 On ch=1 n=e2 v=61
95904 On ch=1 n=e2 v=0
95904 On ch=1 n=e3 v=0
96000 On ch=1 n=e3 v=56
96000 On ch=1 n=e2 v=56
98880 On ch=1 n=e2 v=0
98880 On ch=1 n=e3 v=0
99840 On ch=1 n=b4 v=63
99840 On ch=1 n=f#5 v=63
100524 On ch=1 n=b4 v=0
100560 On ch=1 n=f#5 v=0
100560 On ch=1 n=c#5 v=61
100560 On ch=1 n=b4 v=61
100788 On ch=1 n=b4 v=0
100800 On ch=1 n=c#5 v=0
100800 On ch=1 n=d#5 v=61
100800 On ch=1 n=b4 v=61
101280 On ch=1 n=b4 v=0
101280 On ch=1 n=d#5 v=0
103680 On ch=1 n=b4 v=61
103680 On ch=1 n=d#4 v=57
104364 On ch=1 n=d#4 v=0
104400 On ch=1 n=b4 v=0
104400 On ch=1 n=a#4 v=62
104400 On ch=1 n=d#4 v=56
104628 On ch=1 n=d#4 v=0
104640 On ch=1 n=a#4 v=0
104640 On ch=1 n=c#5 v=59
104640 On ch=1 n=d#4 v=56
105600 On ch=1 n=d#4 v=0
105600 On ch=1 n=c#5 v=0
107520 On ch=1 n=e4 v=59
107520 On ch=1 n=g#3 v=59
107680 On ch=1 n=e4 v=0
107680 On ch=1 n=f#4 v=59
107840 On ch=1 n=f#4 v=0
107840 On ch=1 n=e4 v=59
108000 On ch=1 n=e4 v=0
108160 On ch=1 n=g#4 v=59
108320 On ch=1 n=g#4 v=0
108320 On ch=1 n=c#4 v=53
108480 On ch=1 n=c#4 v=0
108480 On ch=1 n=d#4 v=49
109344 On ch=1 n=g#3 v=0
109440 On ch=1 n=d#4 v=0
109440 On ch=1 n=e4 v=57
109440 On ch=1 n=g#3 v=57
109600 On ch=1 n=e4 v=0
109600 On ch=1 n=f#4 v=57
109760 On ch=1 n=f#4 v=0
109760 On ch=1 n=e4 v=57
109920 On ch=1 n=e4 v=0
110080 On ch=1 n=g#4 v=54
110240 On ch=1 n=g#4 v=0
110240 On ch=1 n=c#4 v=47
110400 On ch=1 n=c#4 v=0
110400 On ch=1 n=d#4 v=41
112310 On ch=1 n=d#4 v=0
112320 On ch=1 n=d4 v=67
112560 On ch=1 n=d4 v=0
112560 On ch=1 n=d#4 v=64
112800 On ch=1 n=d#4 v=0
112800 On ch=1 n=f#4 v=71
113040 On ch=1 n=f#4 v=0
113040 On ch=1 n=e4 v=68
113270 On ch=1 n=e4 v=0
113280 On ch=1 n=d#4 v=77
115190 On ch=1 n=d#4 v=0
115200 On ch=1 n=g#3 v=0
115200 On ch=1 n=d#4 v=67
115200 On ch=1 n=d#3 v=67
117120 On ch=1 n=d#3 v=0
117120 On ch=1 n=d#4 v=0
117120 On ch=1 n=d4 v=73
117120 On ch=1 n=d3 v=73
118080 On ch=1 n=d3 v=0
118080 On ch=1 n=d4 v=0
118080 On ch=1 n=c#4 v=74
118080 On ch=1 n=c#3 v=74
120000 On ch=1 n=c#3 v=0
120000 On ch=1 n=c#4 v=0
120000 On ch=1 n=c4 v=77
120000 On ch=1 n=c3 v=77
121910 On ch=1 n=c3 v=0
121910 On ch=1 n=c4 v=0
121920 On ch=1 n=c3 v=84
121920 On ch=1 n=c4 v=84
122880 On ch=1 n=c4 v=0
122880 On ch=1 n=c3 v=0
122880 On ch=1 n=c#3 v=87
122880 On ch=1 n=c#4 v=87
123840 On ch=1 n=c#4 v=0
123840 On ch=1 n=c#3 v=0
123840 On ch=1 n=b3 v=90
123840 On ch=1 n=b2 v=90
125760 On ch=1 n=b2 v=0
125760 On ch=1 n=b3 v=0
125760 On ch=1 n=e2 v=100
125760 On ch=1 n=e3 v=100
126720 On ch=1 n=e3 v=0
126720 On ch=1 n=e2 v=0
126720 On ch=1 n=d#3 v=100
126720 On ch=1 n=d#2 v=100
128630 On ch=1 n=d#2 v=0
128630 On ch=1 n=d#3 v=0
128640 On ch=1 n=d#3 v=90
128640 On ch=1 n=g#2 v=90
129600 On ch=1 n=g#2 v=0
129600 On ch=1 n=d#3 v=0
130560 On ch=1 n=a#4 v=63
130560 On ch=1 n=d#4 v=63
131244 On ch=1 n=d#4 v=0
131280 On ch=1 n=a#4 v=0
131280 On ch=1 n=f4 v=61
131280 On ch=1 n=d#4 v=61
131508 On ch=1 n=d#4 v=0
131520 On ch=1 n=f4 v=0
131520 On ch=1 n=g4 v=61
131520 On ch=1 n=d#4 v=61
132000 On ch=1 n=d#4 v=0
132000 On ch=1 n=g4 v=0
134400 On ch=1 n=a#4 v=68
134400 On ch=1 n=c4 v=68
135120 On ch=1 n=a#4 v=73
135120 On ch=1 n=c4 v=73
135125 On ch=1 n=c4 v=0
135125 On ch=1 n=a#4 v=0
135355 On ch=1 n=c4 v=0
135355 On ch=1 n=a#4 v=0
135360 On ch=1 n=a#4 v=77
135360 On ch=1 n=c4 v=77
135840 On ch=1 n=c4 v=0
135840 On ch=1 n=a#4 v=0
138240 On ch=1 n=f3 v=67
138240 On ch=1 n=c#4 v=67
138400 On ch=1 n=c#4 v=0
138400 On ch=1 n=d#4 v=65
138560 On ch=1 n=d#4 v=0
138560 On ch=1 n=c#4 v=64
138720 On ch=1 n=c#4 v=0
138880 On ch=1 n=f4 v=65
139040 On ch=1 n=f4 v=0
139040 On ch=1 n=a#3 v=59
139200 On ch=1 n=a#3 v=0
139200 On ch=1 n=c4 v=60
140064 On ch=1 n=f3 v=0
140160 On ch=1 n=c4 v=0
140160 On ch=1 n=c#4 v=68
140160 On ch=1 n=f3 v=65
140320 On ch=1 n=c#4 v=0
140320 On ch=1 n=d#4 v=65
140480 On ch=1 n=d#4 v=0
140480 On ch=1 n=c#4 v=65
140640 On ch=1 n=c#4 v=0
140800 On ch=1 n=f4 v=57
140960 On ch=1 n=f4 v=0
140960 On ch=1 n=a#3 v=57
141120 On ch=1 n=a#3 v=0
141120 On ch=1 n=c4 v=61
143030 On ch=1 n=c4 v=0
143040 On ch=1 n=f3 v=0
143040 On ch=1 n=c3 v=64
143040 On ch=1 n=c4 v=64
144000 On ch=1 n=c3 v=0
144000 On ch=1 n=f3 v=72
145920 On ch=1 n=f3 v=0
145920 On ch=1 n=c4 v=0
145920 On ch=1 n=e3 v=61
145920 On ch=1 n=c#4 v=61
146880 On ch=1 n=c#4 v=0
146880 On ch=1 n=e3 v=0
146880 On ch=1 n=d#4 v=68
146880 On ch=1 n=d#3 v=68
147751 On ch=1 n=c#3 v=73
147794 On ch=1 n=e4 v=76
147840 On ch=1 n=d#3 v=0
147840 On ch=1 n=d#4 v=0
148320 On ch=1 n=e4 v=0
148320 On ch=1 n=c#3 v=0
148560 On ch=1 n=c3 v=74
148756 On ch=1 n=b2 v=83
148800 On ch=1 n=c3 v=0
148800 On ch=1 n=f#4 v=89
149520 On ch=1 n=f#4 v=0
149520 On ch=1 n=b2 v=0
149520 On ch=1 n=b3 v=86
149750 On ch=1 n=b3 v=0
149760 On ch=1 n=e3 v=53
149760 On ch=1 n=b3 v=53
151680 On ch=1 n=b3 v=0
151680 On ch=1 n=e3 v=0
151680 On ch=1 n=g#4 v=61
152400 On ch=1 n=g#4 v=0
152400 On ch=1 n=f#4 v=55
152640 On ch=1 n=f#4 v=0
152640 On ch=1 n=e4 v=51
152640 On ch=1 n=a3 v=51
153590 On ch=1 n=e4 v=0
153600 On ch=1 n=a3 v=0
153600 On ch=1 n=e4 v=53
153600 On ch=1 n=e3 v=53
154476 On ch=1 n=c#3 v=45
154520 On ch=1 n=g#3 v=49
154553 On ch=1 n=e4 v=0
154560 On ch=1 n=e3 v=0
154560 On ch=1 n=e4 v=58
156386 On ch=1 n=c#3 v=0
156396 On ch=1 n=a2 v=58
156430 On ch=1 n=g#3 v=0
156440 On ch=1 n=a3 v=58
156470 On ch=1 n=e4 v=0
156480 On ch=1 n=e4 v=58
157356 On ch=1 n=a2 v=0
157400 On ch=1 n=a3 v=0
157440 On ch=1 n=e4 v=0
157440 On ch=1 n=b3 v=56
157440 On ch=1 n=e3 v=56
159350 On ch=1 n=e3 v=0
159360 On ch=1 n=b3 v=0
159360 On ch=1 n=e3 v=61
159360 On ch=1 n=e2 v=61
161184 On ch=1 n=e2 v=0
161184 On ch=1 n=e3 v=0
161280 On ch=1 n=e3 v=56
161280 On ch=1 n=e2 v=56
167040 On ch=1 n=e2 v=0
167040 On ch=1 n=e3 v=0
171360 On ch=1 n=c4 v=57
172310 On ch=1 n=c4 v=0
172320 On ch=1 n=c4 v=57
172790 On ch=1 n=c4 v=0
172800 On ch=1 n=c4 v=57
173280 On ch=1 n=c4 v=0
175200 On ch=1 n=c4 v=57
176160 On ch=1 n=c4 v=0
176160 On ch=1 n=a#3 v=57
176630 On ch=1 n=a#3 v=0
176640 On ch=1 n=g#3 v=52
177080 On ch=1 n=g#3 v=0
178080 On ch=1 n=g#3 v=53
178080 On ch=1 n=f4 v=53
178550 On ch=1 n=f4 v=0
178550 On ch=1 n=g#3 v=0
178560 On ch=1 n=f#4 v=48
178560 On ch=1 n=g#3 v=48
178995 On ch=1 n=g#3 v=0
178995 On ch=1 n=f#4 v=0
180000 On ch=1 n=g#3 v=51
180000 On ch=1 n=d4 v=51
180470 On ch=1 n=g#3 v=0
180480 On ch=1 n=g#3 v=45
180960 On ch=1 n=d4 v=0
180960 On ch=1 n=d#4 v=54
181430 On ch=1 n=d#4 v=0
181430 On ch=1 n=g#3 v=0
181440 On ch=1 n=g3 v=51
181440 On ch=1 n=e4 v=51
182390 On ch=1 n=e4 v=0
182390 On ch=1 n=g3 v=0
182400 On ch=1 n=f3 v=61
182870 On ch=1 n=f3 v=0
182880 On ch=1 n=d#3 v=59
183350 On ch=1 n=d#3 v=0
183360 On ch=1 n=c#3 v=56
183830 On ch=1 n=c#3 v=0
183840 On ch=1 n=b2 v=54
184310 On ch=1 n=b2 v=0
184320 On ch=1 n=a#2 v=53
184790 On ch=1 n=a#2 v=0
184800 On ch=1 n=g#2 v=48
185270 On ch=1 n=g#2 v=0
185280 On ch=1 n=g2 v=46
186230 On ch=1 n=g2 v=0
186240 On ch=1 n=f#2 v=40
187200 On ch=1 n=f#2 v=0
188160 On ch=1 n=b2 v=45
188320 On ch=1 n=f#3 v=47
188322 On ch=1 n=b2 v=0
188480 On ch=1 n=f#4 v=44
188482 On ch=1 n=f#3 v=0
188640 On ch=1 n=d#5 v=45
188640 On ch=1 n=b4 v=40
188640 On ch=1 n=d#4 v=40
188642 On ch=1 n=f#4 v=0
188802 On ch=1 n=d#4 v=0
188802 On ch=1 n=b4 v=0
188802 On ch=1 n=d#5 v=0
188960 On ch=1 n=f#3 v=45
189120 On ch=1 n=b2 v=45
189122 On ch=1 n=f#3 v=0
189280 On ch=1 n=f#3 v=48
189282 On ch=1 n=b2 v=0
189440 On ch=1 n=f#4 v=44
189442 On ch=1 n=f#3 v=0
189600 On ch=1 n=d#4 v=52
189600 On ch=1 n=b4 v=40
189600 On ch=1 n=d#5 v=40
189602 On ch=1 n=f#4 v=0
189762 On ch=1 n=d#5 v=0
189762 On ch=1 n=b4 v=0
189762 On ch=1 n=d#4 v=0
189920 On ch=1 n=f#3 v=40
190080 On ch=1 n=b2 v=54
190082 On ch=1 n=f#3 v=0
190240 On ch=1 n=f#3 v=43
190242 On ch=1 n=b2 v=0
190400 On ch=1 n=e4 v=46
190402 On ch=1 n=f#3 v=0
190560 On ch=1 n=f#4 v=40
190560 On ch=1 n=a#4 v=40
190560 On ch=1 n=e5 v=51
190562 On ch=1 n=e4 v=0
190722 On ch=1 n=e5 v=0
190722 On ch=1 n=a#4 v=0
190722 On ch=1 n=f#4 v=0
190880 On ch=1 n=f#3 v=44
191040 On ch=1 n=b2 v=47
191042 On ch=1 n=f#3 v=0
191200 On ch=1 n=f#3 v=48
191202 On ch=1 n=b2 v=0
191360 On ch=1 n=c#4 v=46
191362 On ch=1 n=f#3 v=0
191520 On ch=1 n=e5 v=54
191520 On ch=1 n=a#4 v=41
191520 On ch=1 n=f#4 v=41
191522 On ch=1 n=c#4 v=0
191682 On ch=1 n=f#4 v=0
191682 On ch=1 n=a#4 v=0
191682 On ch=1 n=e5 v=0
191840 On ch=1 n=f#3 v=44
192000 On ch=1 n=b2 v=49
192002 On ch=1 n=f#3 v=0
192160 On ch=1 n=f#3 v=42
192162 On ch=1 n=b2 v=0
192320 On ch=1 n=f#4 v=42
192322 On ch=1 n=f#3 v=0
192480 On ch=1 n=d#5 v=48
192480 On ch=1 n=b4 v=40
192480 On ch=1 n=d#4 v=40
192482 On ch=1 n=f#4 v=0
192642 On ch=1 n=d#4 v=0
192642 On ch=1 n=b4 v=0
192642 On ch=1 n=d#5 v=0
192800 On ch=1 n=f#3 v=38
192960 On ch=1 n=c#3 v=51
193089 On ch=1 n=f#3 v=0
193120 On ch=1 n=f#3 v=40
193122 On ch=1 n=c#3 v=0
193280 On ch=1 n=a#3 v=42
193282 On ch=1 n=f#3 v=0
193440 On ch=1 n=c#5 v=52
193440 On ch=1 n=g4 v=46
193440 On ch=1 n=d#4 v=46
193442 On ch=1 n=a#3 v=0
193602 On ch=1 n=d#4 v=0
193602 On ch=1 n=g4 v=0
193602 On ch=1 n=c#5 v=0
193760 On ch=1 n=d#3 v=40
193920 On ch=1 n=g#2 v=50
193922 On ch=1 n=d#3 v=0
194080 On ch=1 n=g#3 v=41
194082 On ch=1 n=g#2 v=0
194240 On ch=1 n=d4 v=45
194242 On ch=1 n=g#3 v=0
194400 On ch=1 n=b4 v=55
194400 On ch=1 n=f4 v=44
194400 On ch=1 n=c#4 v=44
194402 On ch=1 n=d4 v=0
194562 On ch=1 n=c#4 v=0
194562 On ch=1 n=f4 v=0
194562 On ch=1 n=b4 v=0
194720 On ch=1 n=c#3 v=50
194880 On ch=1 n=f#2 v=46
194882 On ch=1 n=c#3 v=0
195040 On ch=1 n=f#3 v=39
195042 On ch=1 n=f#2 v=0
195200 On ch=1 n=f#4 v=31
195202 On ch=1 n=f#3 v=0
195360 On ch=1 n=e5 v=30
195360 On ch=1 n=a#4 v=22
195362 On ch=1 n=f#4 v=0
195522 On ch=1 n=a#4 v=0
195522 On ch=1 n=e5 v=0
195680 On ch=1 n=f#3 v=35
195840 On ch=1 n=b2 v=43
195842 On ch=1 n=f#3 v=0
196000 On ch=1 n=f#3 v=50
196002 On ch=1 n=b2 v=0
196160 On ch=1 n=f#4 v=44
196162 On ch=1 n=f#3 v=0
196320 On ch=1 n=d#5 v=51
196320 On ch=1 n=b4 v=38
196320 On ch=1 n=d#4 v=38
196322 On ch=1 n=f#4 v=0
196482 On ch=1 n=d#4 v=0
196482 On ch=1 n=b4 v=0
196482 On ch=1 n=d#5 v=0
196640 On ch=1 n=f#3 v=44
196800 On ch=1 n=b2 v=51
196802 On ch=1 n=f#3 v=0
196960 On ch=1 n=f#3 v=38
196962 On ch=1 n=b2 v=0
197120 On ch=1 n=f#4 v=45
197122 On ch=1 n=f#3 v=0
197280 On ch=1 n=d#5 v=51
197280 On ch=1 n=b4 v=39
197280 On ch=1 n=d#4 v=39
197282 On ch=1 n=f#4 v=0
197442 On ch=1 n=d#4 v=0
197442 On ch=1 n=b4 v=0
197442 On ch=1 n=d#5 v=0
197600 On ch=1 n=f#3 v=44
197760 On ch=1 n=b2 v=53
197762 On ch=1 n=f#3 v=0
197920 On ch=1 n=f#3 v=37
197922 On ch=1 n=b2 v=0
198080 On ch=1 n=e4 v=44
198082 On ch=1 n=f#3 v=0
198240 On ch=1 n=e5 v=49
198240 On ch=1 n=a#4 v=35
198240 On ch=1 n=f#4 v=35
198242 On ch=1 n=e4 v=0
198402 On ch=1 n=f#4 v=0
198402 On ch=1 n=a#4 v=0
198402 On ch=1 n=e5 v=0
198560 On ch=1 n=f#3 v=46
198720 On ch=1 n=b2 v=52
198722 On ch=1 n=f#3 v=0
198880 On ch=1 n=f#3 v=44
198882 On ch=1 n=b2 v=0
199040 On ch=1 n=c#4 v=31
199042 On ch=1 n=f#3 v=0
199200 On ch=1 n=e5 v=47
199200 On ch=1 n=a#4 v=36
199200 On ch=1 n=f#4 v=36
199202 On ch=1 n=c#4 v=0
199362 On ch=1 n=f#4 v=0
199362 On ch=1 n=a#4 v=0
199362 On ch=1 n=e5 v=0
199520 On ch=1 n=f#3 v=36
199680 On ch=1 n=b2 v=51
199682 On ch=1 n=f#3 v=0
199840 On ch=1 n=b2 v=0
199840 On ch=1 n=f#3 v=52
200000 On ch=1 n=f#3 v=0
200000 On ch=1 n=b3 v=53
200160 On ch=1 n=f#4 v=54
200320 On ch=1 n=f#4 v=0
200320 On ch=1 n=b3 v=0
200320 On ch=1 n=c#5 v=58
200560 On ch=1 n=c#5 v=0
200560 On ch=1 n=b4 v=53
200634 On ch=1 n=b4 v=0
200640 On ch=1 n=e4 v=50
200640 On ch=1 n=b4 v=54
201120 On ch=1 n=b4 v=0
201120 On ch=1 n=e4 v=0
202080 On ch=1 n=e3 v=55
203010 On ch=1 n=e3 v=0
203040 On ch=1 n=f#3 v=54
203520 On ch=1 n=f#3 v=0
203520 On ch=1 n=g#3 v=45
203520 On ch=1 n=e4 v=45
204240 On ch=1 n=e4 v=0
204240 On ch=1 n=g#3 v=0
205920 On ch=1 n=g#3 v=51
205920 On ch=1 n=e4 v=51
206880 On ch=1 n=e4 v=0
206880 On ch=1 n=g#3 v=0
206880 On ch=1 n=f#4 v=52
206880 On ch=1 n=f#3 v=52
207360 On ch=1 n=f#3 v=0
207360 On ch=1 n=f#4 v=0
207360 On ch=1 n=e3 v=50
207840 On ch=1 n=e3 v=0
208800 On ch=1 n=e4 v=53
208800 On ch=1 n=f#4 v=53
209270 On ch=1 n=f#4 v=0
209280 On ch=1 n=e4 v=0
209280 On ch=1 n=d#4 v=53
209280 On ch=1 n=f#4 v=57
209740 On ch=1 n=f#4 v=0
209740 On ch=1 n=d#4 v=0
209760 On ch=1 n=g#4 v=50
209760 On ch=1 n=b4 v=50
209760 On ch=1 n=c#4 v=50
210100 On ch=1 n=b4 v=0
210100 On ch=1 n=g#4 v=0
210220 On ch=1 n=c#4 v=0
210720 On ch=1 n=d#4 v=63
210720 On ch=1 n=c#4 v=63
210720 On ch=1 n=a#4 v=63
211180 On ch=1 n=c#4 v=0
211180 On ch=1 n=d#4 v=0
211200 On ch=1 n=c4 v=71
211650 On ch=1 n=c4 v=0
211660 On ch=1 n=a#4 v=0
211680 On ch=1 n=b3 v=69
212130 On ch=1 n=b3 v=0
212160 On ch=1 n=a#3 v=69
212610 On ch=1 n=a#3 v=0
212640 On ch=1 n=a3 v=67
213090 On ch=1 n=a3 v=0
213120 On ch=1 n=g3 v=64
214080 On ch=1 n=g3 v=0
214080 On ch=1 n=f#3 v=57
215040 On ch=1 n=f#3 v=0
215040 On ch=1 n=b2 v=53
215200 On ch=1 n=b2 v=0
215200 On ch=1 n=f#3 v=54
215360 On ch=1 n=f#3 v=0
215360 On ch=1 n=b3 v=54
215520 On ch=1 n=b3 v=0
215520 On ch=1 n=a#3 v=53
215680 On ch=1 n=a#3 v=0
215680 On ch=1 n=g#3 v=53
215840 On ch=1 n=g#3 v=0
215840 On ch=1 n=f#3 v=54
216000 On ch=1 n=f#3 v=0
216000 On ch=1 n=b3 v=54
216160 On ch=1 n=b3 v=0
216160 On ch=1 n=a#3 v=53
216320 On ch=1 n=a#3 v=0
216320 On ch=1 n=b3 v=54
216480 On ch=1 n=b3 v=0
216480 On ch=1 n=a#3 v=53
216640 On ch=1 n=a#3 v=0
216640 On ch=1 n=g#3 v=53
216800 On ch=1 n=g#3 v=0
216800 On ch=1 n=f#3 v=53
216960 On ch=1 n=f#3 v=0
216960 On ch=1 n=c#4 v=53
217120 On ch=1 n=c#4 v=0
217120 On ch=1 n=c4 v=52
217280 On ch=1 n=c4 v=0
217280 On ch=1 n=d#4 v=51
217440 On ch=1 n=d#4 v=0
217440 On ch=1 n=c#4 v=51
217600 On ch=1 n=c#4 v=0
217600 On ch=1 n=g#3 v=51
217760 On ch=1 n=g#3 v=0
217760 On ch=1 n=f#3 v=52
217920 On ch=1 n=f#3 v=0
217920 On ch=1 n=c#4 v=44
218080 On ch=1 n=c#4 v=0
218080 On ch=1 n=c4 v=47
218240 On ch=1 n=c4 v=0
218240 On ch=1 n=d#4 v=51
218400 On ch=1 n=d#4 v=0
218400 On ch=1 n=c#4 v=50
218560 On ch=1 n=c#4 v=0
218560 On ch=1 n=g#3 v=49
218720 On ch=1 n=g#3 v=0
218720 On ch=1 n=f#3 v=49
218880 On ch=1 n=f#3 v=0
218880 On ch=1 n=b3 v=54
219040 On ch=1 n=b3 v=0
219040 On ch=1 n=a#3 v=55
219200 On ch=1 n=a#3 v=0
219200 On ch=1 n=b3 v=54
219360 On ch=1 n=b3 v=0
219360 On ch=1 n=a#3 v=55
219520 On ch=1 n=a#3 v=0
219520 On ch=1 n=g#3 v=55
219680 On ch=1 n=g#3 v=0
219680 On ch=1 n=f#3 v=54
219840 On ch=1 n=f#3 v=0
219840 On ch=1 n=b3 v=54
220000 On ch=1 n=b3 v=0
220000 On ch=1 n=a#3 v=54
220160 On ch=1 n=a#3 v=0
220160 On ch=1 n=b3 v=52
220320 On ch=1 n=b3 v=0
220320 On ch=1 n=a#3 v=51
220480 On ch=1 n=a#3 v=0
220480 On ch=1 n=g#3 v=50
220640 On ch=1 n=g#3 v=0
220640 On ch=1 n=f#3 v=49
220800 On ch=1 n=f#3 v=0
220800 On ch=1 n=c#4 v=48
220960 On ch=1 n=c#4 v=0
220960 On ch=1 n=c4 v=48
221120 On ch=1 n=c4 v=0
221120 On ch=1 n=d#4 v=48
221280 On ch=1 n=d#4 v=0
221280 On ch=1 n=c#4 v=47
221440 On ch=1 n=c#4 v=0
221440 On ch=1 n=g#3 v=47
221600 On ch=1 n=g#3 v=0
221600 On ch=1 n=f#3 v=46
221760 On ch=1 n=f#3 v=0
221760 On ch=1 n=c#4 v=46
221920 On ch=1 n=c#4 v=0
221920 On ch=1 n=c4 v=46
222080 On ch=1 n=c4 v=0
222080 On ch=1 n=d#4 v=48
222240 On ch=1 n=d#4 v=0
222240 On ch=1 n=c#4 v=49
222400 On ch=1 n=c#4 v=0
222400 On ch=1 n=g#3 v=50
222560 On ch=1 n=g#3 v=0
222560 On ch=1 n=f#3 v=51
222720 On ch=1 n=f#3 v=0
222720 On ch=1 n=f#4 v=53
222880 On ch=1 n=f#4 v=0
222880 On ch=1 n=g#4 v=49
223040 On ch=1 n=g#4 v=0
223040 On ch=1 n=f#4 v=50
223200 On ch=1 n=f#4 v=0
223200 On ch=1 n=f4 v=51
223360 On ch=1 n=f4 v=0
223360 On ch=1 n=f#4 v=53
223520 On ch=1 n=f#4 v=0
223520 On ch=1 n=c#4 v=54
223680 On ch=1 n=c#4 v=0
223680 On ch=1 n=e4 v=55
223840 On ch=1 n=e4 v=0
223840 On ch=1 n=f#4 v=56
224000 On ch=1 n=f#4 v=0
224000 On ch=1 n=e4 v=58
224160 On ch=1 n=e4 v=0
224160 On ch=1 n=g#3 v=59
224320 On ch=1 n=g#3 v=0
224320 On ch=1 n=c#4 v=64
224480 On ch=1 n=c#4 v=0
224480 On ch=1 n=a#3 v=66
224640 On ch=1 n=a#3 v=0
224640 On ch=1 n=g3 v=68
224800 On ch=1 n=g3 v=0
224800 On ch=1 n=f#3 v=67
224960 On ch=1 n=f#3 v=0
224960 On ch=1 n=g#3 v=64
225120 On ch=1 n=g#3 v=0
225120 On ch=1 n=f#3 v=62
225280 On ch=1 n=f#3 v=0
225280 On ch=1 n=g3 v=56
225440 On ch=1 n=g3 v=0
225440 On ch=1 n=f#3 v=53
225600 On ch=1 n=f#3 v=0
225600 On ch=1 n=g#3 v=49
225760 On ch=1 n=g#3 v=0
225760 On ch=1 n=f#3 v=46
225920 On ch=1 n=f#3 v=0
225920 On ch=1 n=g3 v=44
226080 On ch=1 n=g3 v=0
226080 On ch=1 n=f#3 v=38
226240 On ch=1 n=f#3 v=0
226240 On ch=1 n=d#4 v=38
226400 On ch=1 n=d#4 v=0
226400 On ch=1 n=f#3 v=37
226560 On ch=1 n=f#3 v=0
226560 On ch=1 n=b2 v=35
227040 On ch=1 n=b2 v=0
227520 On ch=1 n=b2 v=60
227520 On ch=1 n=g3 v=60
228450 On ch=1 n=g3 v=0
228450 On ch=1 n=b2 v=0
228480 On ch=1 n=b2 v=48
228480 On ch=1 n=f#3 v=48
230400 On ch=1 n=f#3 v=0
230400 On ch=1 n=b2 v=0
230400 Meta TrkEnd
TrkEnd
MTrk
0 SeqSpec 43 00 01 00
0 Meta TrkName "Chopin piano sonata, Op.52"
0 SeqSpec 03 00 01 00 02
0 SeqSpec 03 00 02 00 00
0 SeqSpec 03 00 13 01
0 Meta 0x21 00
0 Meta 0x20 00
0 SeqSpec 03 00 07 00
0 SeqSpec 03 00 08 7f
0 SeqSpec 03 00 09 40
480 Par ch=1 c=64 v=127
900 Par ch=1 c=64 v=0
960 Par ch=1 c=64 v=127
1380 Par ch=1 c=64 v=0
1440 Par ch=1 c=64 v=127
1860 Par ch=1 c=64 v=0
1920 Par ch=1 c=64 v=127
2340 Par ch=1 c=64 v=0
2400 Par ch=1 c=64 v=127
3809 Par ch=1 c=64 v=0
4679 Par ch=1 c=64 v=0
4800 Par ch=1 c=64 v=127
5269 Par ch=1 c=64 v=0
5280 Par ch=1 c=64 v=127
5520 Par ch=1 c=64 v=0
5640 Par ch=1 c=64 v=127
5750 Par ch=1 c=64 v=0
5760 Par ch=1 c=64 v=127
6715 Par ch=1 c=64 v=0
6720 Par ch=1 c=64 v=127
7097 Par ch=1 c=64 v=0
7200 Par ch=1 c=64 v=127
7670 Par ch=1 c=64 v=0
7680 Par ch=1 c=64 v=127
9040 Par ch=1 c=64 v=0
9600 Par ch=1 c=64 v=127
10080 Par ch=1 c=64 v=0
10560 Par ch=1 c=64 v=127
10960 Par ch=1 c=64 v=0
11520 Par ch=1 c=64 v=127
12000 Par ch=1 c=64 v=0
12480 Par ch=1 c=64 v=127
12880 Par ch=1 c=64 v=0
13440 Par ch=1 c=64 v=127
13920 Par ch=1 c=64 v=0
14400 Par ch=1 c=64 v=127
14800 Par ch=1 c=64 v=0
15360 Par ch=1 c=64 v=127
16720 Par ch=1 c=64 v=0
17280 Par ch=1 c=64 v=127
17760 Par ch=1 c=64 v=0
18240 Par ch=1 c=64 v=127
18640 Par ch=1 c=64 v=0
19200 Par ch=1 c=64 v=127
19680 Par ch=1 c=64 v=0
20160 Par ch=1 c=64 v=127
20560 Par ch=1 c=64 v=0
21120 Par ch=1 c=64 v=127
21600 Par ch=1 c=64 v=0
22080 Par ch=1 c=64 v=127
22480 Par ch=1 c=64 v=0
23040 Par ch=1 c=64 v=127
23520 Par ch=1 c=64 v=0
24000 Par ch=1 c=64 v=127
24400 Par ch=1 c=64 v=0
24960 Par ch=1 c=64 v=127
25440 Par ch=1 c=64 v=0
25920 Par ch=1 c=64 v=127
26320 Par ch=1 c=64 v=0
26880 Par ch=1 c=64 v=127
27360 Par ch=1 c=64 v=0
27840 Par ch=1 c=64 v=127
28240 Par ch=1 c=64 v=0
28800 Par ch=1 c=64 v=127
29280 Par ch=1 c=64 v=0
29772 Par ch=1 c=64 v=127
30160 Par ch=1 c=64 v=0
30720 Par ch=1 c=64 v=127
31200 Par ch=1 c=64 v=0
31680 Par ch=1 c=64 v=127
32080 Par ch=1 c=64 v=0
32640 Par ch=1 c=64 v=127
33120 Par ch=1 c=64 v=0
33600 Par ch=1 c=64 v=127
34000 Par ch=1 c=64 v=0
34560 Par ch=1 c=64 v=127
35418 Par ch=1 c=64 v=0
36480 Par ch=1 c=64 v=127
37880 Par ch=1 c=64 v=0
39840 Par ch=1 c=64 v=127
41750 Par ch=1 c=64 v=0
48960 Par ch=1 c=64 v=127
49420 Par ch=1 c=64 v=0
49440 Par ch=1 c=64 v=127
49911 Par ch=1 c=64 v=0
49920 Par ch=1 c=64 v=127
50560 Par ch=1 c=64 v=0
50986 Par ch=1 c=64 v=70
51760 Par ch=1 c=64 v=0
51840 Par ch=1 c=64 v=73
52730 Par ch=1 c=64 v=0
52800 Par ch=1 c=64 v=55
53280 Par ch=1 c=64 v=0
53790 Par ch=1 c=64 v=127
56152 Par ch=1 c=64 v=0
56655 Par ch=1 c=64 v=127
57280 Par ch=1 c=64 v=0
57630 Par ch=1 c=64 v=127
59580 Par ch=1 c=64 v=0
60480 Par ch=1 c=64 v=127
61360 Par ch=1 c=64 v=0
61440 Par ch=1 c=64 v=127
63280 Par ch=1 c=64 v=0
63360 Par ch=1 c=64 v=127
64240 Par ch=1 c=64 v=0
64320 Par ch=1 c=64 v=127
66160 Par ch=1 c=64 v=50
67190 Par ch=1 c=64 v=0
67200 Par ch=1 c=64 v=127
67240 Par ch=1 c=64 v=0
68080 Par ch=1 c=64 v=0
68160 Par ch=1 c=64 v=127
69000 Par ch=1 c=64 v=0
71040 Par ch=1 c=64 v=127
71520 Par ch=1 c=64 v=40
71640 Par ch=1 c=64 v=0
72000 Par ch=1 c=64 v=40
72160 Par ch=1 c=64 v=25
72960 Par ch=1 c=64 v=20
73440 Par ch=1 c=64 v=0
74400 Par ch=1 c=64 v=0
74880 Par ch=1 c=64 v=127
75300 Par ch=1 c=64 v=0
75870 Par ch=1 c=64 v=127
76650 Par ch=1 c=64 v=0
76830 Par ch=1 c=64 v=127
77250 Par ch=1 c=64 v=0
78750 Par ch=1 c=64 v=127
79170 Par ch=1 c=64 v=0
80640 Par ch=1 c=64 v=20
81600 Par ch=1 c=64 v=35
82549 Par ch=1 c=64 v=0
82580 Par ch=1 c=64 v=95
83520 Par ch=1 c=64 v=0
84480 Par ch=1 c=64 v=90
85440 Par ch=1 c=64 v=75
86387 Par ch=1 c=64 v=0
86410 Par ch=1 c=64 v=127
86420 Par ch=1 c=64 v=50
87280 Par ch=1 c=64 v=0
87360 Par ch=1 c=64 v=50
88240 Par ch=1 c=64 v=0
88340 Par ch=1 c=64 v=70
88800 Par ch=1 c=64 v=0
89280 Par ch=1 c=64 v=127
90990 Par ch=1 c=64 v=0
91200 Par ch=1 c=64 v=127
92080 Par ch=1 c=64 v=0
92160 Par ch=1 c=64 v=70
94050 Par ch=1 c=64 v=0
94080 Par ch=1 c=64 v=40
95919 Par ch=1 c=64 v=0
96000 Par ch=1 c=64 v=40
96930 Par ch=1 c=64 v=0
96960 Par ch=1 c=64 v=24
97440 Par ch=1 c=64 v=10
97840 Par ch=1 c=64 v=0
97940 Par ch=1 c=64 v=70
98360 Par ch=1 c=64 v=0
98400 Par ch=1 c=64 v=50
99360 Par ch=1 c=64 v=0
99840 Par ch=1 c=64 v=94
100080 Par ch=1 c=64 v=0
100800 Par ch=1 c=64 v=20
101400 Par ch=1 c=64 v=0
101780 Par ch=1 c=64 v=70
102200 Par ch=1 c=64 v=0
102240 Par ch=1 c=64 v=50
103200 Par ch=1 c=64 v=0
103680 Par ch=1 c=64 v=94
103920 Par ch=1 c=64 v=0
104640 Par ch=1 c=64 v=20
105240 Par ch=1 c=64 v=0
105620 Par ch=1 c=64 v=70
106040 Par ch=1 c=64 v=0
106080 Par ch=1 c=64 v=50
107040 Par ch=1 c=64 v=0
107520 Par ch=1 c=64 v=94
107760 Par ch=1 c=64 v=0
108480 Par ch=1 c=64 v=20
109440 Par ch=1 c=64 v=94
109680 Par ch=1 c=64 v=0
110400 Par ch=1 c=64 v=20
111000 Par ch=1 c=64 v=0
115200 Par ch=1 c=64 v=127
115680 Par ch=1 c=64 v=0
116160 Par ch=1 c=64 v=30
117032 Par ch=1 c=64 v=0
117120 Par ch=1 c=64 v=30
122850 Par ch=1 c=64 v=0
122880 Par ch=1 c=64 v=40
123810 Par ch=1 c=64 v=0
123840 Par ch=1 c=64 v=50
124770 Par ch=1 c=64 v=0
124800 Par ch=1 c=64 v=40
126639 Par ch=1 c=64 v=0
126720 Par ch=1 c=64 v=40
127650 Par ch=1 c=64 v=0
127680 Par ch=1 c=64 v=24
128160 Par ch=1 c=64 v=10
128560 Par ch=1 c=64 v=0
128660 Par ch=1 c=64 v=70
129080 Par ch=1 c=64 v=0
129120 Par ch=1 c=64 v=50
130080 Par ch=1 c=64 v=0
130560 Par ch=1 c=64 v=94
130800 Par ch=1 c=64 v=0
131520 Par ch=1 c=64 v=20
132120 Par ch=1 c=64 v=0
132500 Par ch=1 c=64 v=70
132920 Par ch=1 c=64 v=0
132960 Par ch=1 c=64 v=50
133920 Par ch=1 c=64 v=0
134400 Par ch=1 c=64 v=94
134640 Par ch=1 c=64 v=0
135360 Par ch=1 c=64 v=20
135960 Par ch=1 c=64 v=0
136340 Par ch=1 c=64 v=70
136760 Par ch=1 c=64 v=0
136800 Par ch=1 c=64 v=50
137760 Par ch=1 c=64 v=0
138240 Par ch=1 c=64 v=94
138480 Par ch=1 c=64 v=0
139200 Par ch=1 c=64 v=20
140160 Par ch=1 c=64 v=94
140400 Par ch=1 c=64 v=0
141120 Par ch=1 c=64 v=20
141720 Par ch=1 c=64 v=0
143040 Par ch=1 c=64 v=46
145920 Par ch=1 c=64 v=127
146400 Par ch=1 c=64 v=0
149760 Par ch=1 c=64 v=90
150720 Par ch=1 c=64 v=75
151667 Par ch=1 c=64 v=0
151690 Par ch=1 c=64 v=127
151700 Par ch=1 c=64 v=50
152560 Par ch=1 c=64 v=0
152640 Par ch=1 c=64 v=50
153520 Par ch=1 c=64 v=0
153620 Par ch=1 c=64 v=70
154080 Par ch=1 c=64 v=0
154560 Par ch=1 c=64 v=127
156270 Par ch=1 c=64 v=0
156480 Par ch=1 c=64 v=127
157360 Par ch=1 c=64 v=0
157440 Par ch=1 c=64 v=70
159330 Par ch=1 c=64 v=0
159360 Par ch=1 c=64 v=40
161199 Par ch=1 c=64 v=0
161280 Par ch=1 c=64 v=40
162210 Par ch=1 c=64 v=0
162240 Par ch=1 c=64 v=24
162720 Par ch=1 c=64 v=10
163120 Par ch=1 c=64 v=0
188160 Par ch=1 c=64 v=127
188931 Par ch=1 c=64 v=0
189120 Par ch=1 c=64 v=127
189891 Par ch=1 c=64 v=0
190080 Par ch=1 c=64 v=127
190851 Par ch=1 c=64 v=0
191058 Par ch=1 c=64 v=127
191810 Par ch=1 c=64 v=0
192000 Par ch=1 c=64 v=127
192771 Par ch=1 c=64 v=0
192960 Par ch=1 c=64 v=127
193731 Par ch=1 c=64 v=0
193920 Par ch=1 c=64 v=127
194338 Par ch=1 c=64 v=0
194420 Par ch=1 c=64 v=127
194670 Par ch=1 c=64 v=0
194880 Par ch=1 c=64 v=127
195651 Par ch=1 c=64 v=0
195840 Par ch=1 c=64 v=127
196611 Par ch=1 c=64 v=0
196800 Par ch=1 c=64 v=127
197571 Par ch=1 c=64 v=0
197760 Par ch=1 c=64 v=127
198530 Par ch=1 c=64 v=0
198720 Par ch=1 c=64 v=127
199490 Par ch=1 c=64 v=0
201120 Par ch=1 c=64 v=127
203012 Par ch=1 c=64 v=0
204500 Par ch=1 c=64 v=112
206370 Par ch=1 c=64 v=0
215040 Par ch=1 c=64 v=65
215680 Par ch=1 c=64 v=26
216000 Par ch=1 c=64 v=65
216640 Par ch=1 c=64 v=26
216960 Par ch=1 c=64 v=65
217600 Par ch=1 c=64 v=26
217920 Par ch=1 c=64 v=65
218560 Par ch=1 c=64 v=26
218880 Par ch=1 c=64 v=65
219520 Par ch=1 c=64 v=26
219840 Par ch=1 c=64 v=65
220480 Par ch=1 c=64 v=26
220800 Par ch=1 c=64 v=65
221440 Par ch=1 c=64 v=26
221760 Par ch=1 c=64 v=64
222400 Par ch=1 c=64 v=27
222720 Par ch=1 c=64 v=64
223360 Par ch=1 c=64 v=27
223680 Par ch=1 c=64 v=64
224320 Par ch=1 c=64 v=27
224640 Par ch=1 c=64 v=62
225280 Par ch=1 c=64 v=27
225600 Par ch=1 c=64 v=62
226240 Par ch=1 c=64 v=27
226560 Par ch=1 c=64 v=127
227040 Par ch=1 c=64 v=0
227520 Par ch=1 c=64 v=127
228437 Par ch=1 c=64 v=0
228480 Par ch=1 c=64 v=127
230400 Par ch=1 c=64 v=0
230400 Meta TrkEnd
TrkEnd
