MFile 1 3 480
MTrk
0 SMPTE 0 0 0 0 0
0 Tempo 189274
0 TimeSig 3/4 24 8
44640 Tempo 211267
46130 Tempo 272727
47040 Tempo 210526
48000 Tempo 189274
82039 Tempo 220588
226080 Tempo 189274
269280 Tempo 211267
270770 Tempo 272727
271680 Tempo 210526
272640 Tempo 189274
306679 Tempo 236220
306679 Meta TrkEnd
TrkEnd
MTrk
0 SeqSpec 43 00 01 00
0 Meta 0x21 00
0 Meta 0x20 00
0 Par ch=1 c=7 v=127
0 Par ch=1 c=10 v=64
960 On ch=1 n=g4 v=65
1200 On ch=1 n=g4 v=0
1200 On ch=1 n=g#4 v=72
1440 On ch=1 n=g#4 v=0
1440 On ch=1 n=a4 v=79
1680 On ch=1 n=a4 v=0
1680 On ch=1 n=c5 v=84
1920 On ch=1 n=c5 v=0
1920 On ch=1 n=a#4 v=91
2160 On ch=1 n=a#4 v=0
2160 On ch=1 n=g5 v=98
2400 On ch=1 n=g5 v=0
2400 On ch=1 n=d5 v=101
2640 On ch=1 n=d5 v=0
2640 On ch=1 n=f5 v=93
2880 On ch=1 n=f5 v=0
2880 Par ch=1 c=64 v=127
2880 On ch=1 n=d#5 v=84
3120 On ch=1 n=d#5 v=0
3120 On ch=1 n=g4 v=76
3360 On ch=1 n=g4 v=0
3360 On ch=1 n=a#4 v=63
3600 On ch=1 n=a#4 v=0
3600 On ch=1 n=d#5 v=71
3840 On ch=1 n=d#5 v=0
3840 On ch=1 n=g5 v=80
4080 On ch=1 n=g5 v=0
4080 On ch=1 n=g#5 v=89
4320 On ch=1 n=g#5 v=0
4320 On ch=1 n=a5 v=98
4560 On ch=1 n=a5 v=0
4560 On ch=1 n=c6 v=107
4800 On ch=1 n=c6 v=0
4800 On ch=1 n=a#5 v=116
5040 On ch=1 n=a#5 v=0
5040 On ch=1 n=g6 v=113
5280 On ch=1 n=g6 v=0
5280 On ch=1 n=d6 v=108
5520 On ch=1 n=d6 v=0
5520 On ch=1 n=f6 v=103
5760 On ch=1 n=f6 v=0
5760 On ch=1 n=d#6 v=97
6000 On ch=1 n=d#6 v=0
6000 On ch=1 n=g5 v=92
6240 On ch=1 n=g5 v=0
6240 On ch=1 n=a#5 v=86
6480 On ch=1 n=a#5 v=0
6480 On ch=1 n=d#6 v=80
6720 On ch=1 n=d#6 v=0
6720 On ch=1 n=g6 v=91
6960 On ch=1 n=g6 v=0
6960 On ch=1 n=g#6 v=98
7200 On ch=1 n=g#6 v=0
7200 On ch=1 n=a6 v=106
7440 On ch=1 n=a6 v=0
7440 On ch=1 n=c7 v=113
7680 On ch=1 n=c7 v=0
7680 On ch=1 n=a#6 v=118
7920 On ch=1 n=a#6 v=0
7920 On ch=1 n=g7 v=120
8160 On ch=1 n=g7 v=0
8160 On ch=1 n=d7 v=111
8400 On ch=1 n=d7 v=0
8400 On ch=1 n=f7 v=101
8640 On ch=1 n=f7 v=0
8640 On ch=1 n=d#7 v=92
8880 On ch=1 n=d#7 v=0
8880 On ch=1 n=a#6 v=87
8880 On ch=1 n=a#6 v=82
9120 On ch=1 n=a#6 v=0
9120 On ch=1 n=a#6 v=0
9120 On ch=1 n=a#4 v=103
9360 On ch=1 n=a#4 v=0
9360 On ch=1 n=g6 v=98
9600 On ch=1 n=g6 v=0
9600 On ch=1 n=a#5 v=88
9840 On ch=1 n=a#5 v=0
9840 On ch=1 n=g5 v=80
10080 On ch=1 n=g5 v=0
10080 On ch=1 n=d#5 v=90
10320 On ch=1 n=d#5 v=0
10320 On ch=1 n=g4 v=109
10560 On ch=1 n=g4 v=0
10560 On ch=1 n=c5 v=100
10800 On ch=1 n=c5 v=0
10800 On ch=1 n=d#5 v=92
11040 On ch=1 n=d#5 v=0
11040 On ch=1 n=g5 v=84
11280 On ch=1 n=g5 v=0
11280 On ch=1 n=f5 v=75
11520 On ch=1 n=f5 v=0
11520 On ch=1 n=d#5 v=67
11760 On ch=1 n=d#5 v=0
11760 On ch=1 n=g#4 v=69
12000 On ch=1 n=g#4 v=0
12000 On ch=1 n=d5 v=67
12240 On ch=1 n=d5 v=0
12240 On ch=1 n=c5 v=64
12480 On ch=1 n=c5 v=0
12480 On ch=1 n=b4 v=63
12720 On ch=1 n=b4 v=0
12720 On ch=1 n=g4 v=60
12960 On ch=1 n=g4 v=0
12960 On ch=1 n=g#4 v=58
13200 On ch=1 n=g#4 v=0
13200 On ch=1 n=a4 v=63
13440 On ch=1 n=a4 v=0
13440 On ch=1 n=a#4 v=71
13680 On ch=1 n=a#4 v=0
13680 On ch=1 n=g5 v=79
13920 On ch=1 n=g5 v=0
13920 On ch=1 n=d5 v=87
14160 On ch=1 n=d5 v=0
14160 On ch=1 n=f5 v=106
14400 On ch=1 n=f5 v=0
14400 On ch=1 n=d#5 v=114
14640 On ch=1 n=d#5 v=0
14640 On ch=1 n=g4 v=98
14880 On ch=1 n=g4 v=0
14880 On ch=1 n=a#4 v=90
15120 On ch=1 n=a#4 v=0
15120 On ch=1 n=d#5 v=83
15360 On ch=1 n=d#5 v=0
15360 On ch=1 n=g5 v=75
15600 On ch=1 n=g5 v=0
15600 On ch=1 n=g#5 v=66
15840 On ch=1 n=g#5 v=0
15840 On ch=1 n=a5 v=74
16080 On ch=1 n=a5 v=0
16080 On ch=1 n=c6 v=81
16320 On ch=1 n=c6 v=0
16320 On ch=1 n=a#5 v=88
16560 On ch=1 n=a#5 v=0
16560 On ch=1 n=g6 v=96
16800 On ch=1 n=g6 v=0
16800 On ch=1 n=d6 v=103
17040 On ch=1 n=d6 v=0
17040 On ch=1 n=f6 v=111
17280 On ch=1 n=f6 v=0
17280 On ch=1 n=d#6 v=118
17520 On ch=1 n=d#6 v=0
17520 On ch=1 n=g5 v=112
17760 On ch=1 n=g5 v=0
17760 On ch=1 n=a#5 v=103
18000 On ch=1 n=a#5 v=0
18000 On ch=1 n=d#6 v=93
18240 On ch=1 n=d#6 v=0
18240 On ch=1 n=g6 v=84
18480 On ch=1 n=g6 v=0
18480 On ch=1 n=g#6 v=75
18720 On ch=1 n=g#6 v=0
18720 On ch=1 n=a6 v=66
18960 On ch=1 n=a6 v=0
18960 On ch=1 n=c7 v=117
19200 On ch=1 n=c7 v=0
19200 On ch=1 n=a#6 v=123
19440 On ch=1 n=a#6 v=0
19440 On ch=1 n=a#6 v=127
19680 On ch=1 n=a#6 v=0
19680 On ch=1 n=c8 v=127
19920 On ch=1 n=c8 v=0
19920 On ch=1 n=a#7 v=127
20160 On ch=1 n=a#7 v=0
20160 On ch=1 n=g7 v=121
20400 On ch=1 n=g7 v=0
20400 On ch=1 n=d#7 v=115
20640 On ch=1 n=d#7 v=0
20640 On ch=1 n=c7 v=109
20880 On ch=1 n=c7 v=0
20880 On ch=1 n=a#6 v=104
21120 On ch=1 n=a#6 v=0
21120 On ch=1 n=g6 v=98
21360 On ch=1 n=g6 v=0
21360 On ch=1 n=d#6 v=93
21600 On ch=1 n=d#6 v=0
21600 On ch=1 n=c6 v=88
21840 On ch=1 n=c6 v=0
21840 On ch=1 n=a#5 v=83
22080 On ch=1 n=a#5 v=0
22080 On ch=1 n=g5 v=77
22320 On ch=1 n=g5 v=0
22320 On ch=1 n=c5 v=70
22560 On ch=1 n=c5 v=0
22560 On ch=1 n=d5 v=64
22800 On ch=1 n=d5 v=0
22800 On ch=1 n=g5 v=68
23040 On ch=1 n=g5 v=0
23040 On ch=1 n=f5 v=74
23280 On ch=1 n=f5 v=0
23280 On ch=1 n=d#5 v=74
23520 On ch=1 n=d#5 v=0
23520 On ch=1 n=a4 v=80
23760 On ch=1 n=a4 v=0
23760 On ch=1 n=a#4 v=86
24000 On ch=1 n=a#4 v=0
24000 On ch=1 n=b4 v=93
24240 On ch=1 n=b4 v=0
24240 On ch=1 n=c5 v=98
24480 On ch=1 n=c5 v=0
24480 On ch=1 n=c#5 v=105
24720 On ch=1 n=c#5 v=0
24720 On ch=1 n=d#5 v=112
24960 On ch=1 n=d#5 v=0
24960 On ch=1 n=d5 v=113
25200 On ch=1 n=d5 v=0
25200 On ch=1 n=a#5 v=104
25440 On ch=1 n=a#5 v=0
25440 On ch=1 n=f#5 v=97
25680 On ch=1 n=f#5 v=0
25680 On ch=1 n=a5 v=89
25920 On ch=1 n=a5 v=0
25920 On ch=1 n=g5 v=81
26160 On ch=1 n=g5 v=0
26160 On ch=1 n=d5 v=74
26400 On ch=1 n=d5 v=0
26400 On ch=1 n=a#4 v=84
26640 On ch=1 n=a#4 v=0
26640 On ch=1 n=d5 v=92
26880 On ch=1 n=d5 v=0
26880 On ch=1 n=g5 v=101
27120 On ch=1 n=g5 v=0
27120 On ch=1 n=a#5 v=110
27360 On ch=1 n=a#5 v=0
27360 On ch=1 n=c#6 v=126
27600 On ch=1 n=c#6 v=0
27600 On ch=1 n=d#6 v=119
27840 On ch=1 n=d#6 v=0
27840 On ch=1 n=d6 v=112
28080 On ch=1 n=d6 v=0
28080 On ch=1 n=a#6 v=104
28320 On ch=1 n=a#6 v=0
28320 On ch=1 n=f#6 v=97
28560 On ch=1 n=f#6 v=0
28560 On ch=1 n=a6 v=89
28800 On ch=1 n=a6 v=0
28800 On ch=1 n=g6 v=82
29040 On ch=1 n=g6 v=0
29040 On ch=1 n=d6 v=100
29280 On ch=1 n=d6 v=0
29280 On ch=1 n=a#5 v=93
29520 On ch=1 n=a#5 v=0
29520 On ch=1 n=d6 v=87
29760 On ch=1 n=d6 v=0
29760 On ch=1 n=g6 v=74
30000 On ch=1 n=g6 v=0
30000 On ch=1 n=a#6 v=84
30240 On ch=1 n=a#6 v=0
30240 On ch=1 n=c#7 v=93
30480 On ch=1 n=c#7 v=0
30480 On ch=1 n=d7 v=103
30720 On ch=1 n=d7 v=0
30720 On ch=1 n=d8 v=113
30960 On ch=1 n=d8 v=0
30960 On ch=1 n=a7 v=123
31200 On ch=1 n=a7 v=0
31200 On ch=1 n=c8 v=127
31440 On ch=1 n=c8 v=0
31440 On ch=1 n=a#7 v=127
31680 On ch=1 n=a#7 v=0
31680 On ch=1 n=g7 v=125
31920 On ch=1 n=g7 v=0
31920 On ch=1 n=d7 v=121
32160 On ch=1 n=d7 v=0
32160 On ch=1 n=a#6 v=118
32400 On ch=1 n=a#6 v=0
32400 On ch=1 n=g6 v=114
32640 On ch=1 n=g6 v=0
32640 On ch=1 n=d6 v=111
32880 On ch=1 n=d6 v=0
32880 On ch=1 n=a5 v=108
33120 On ch=1 n=a5 v=0
33120 On ch=1 n=c6 v=104
33360 On ch=1 n=c6 v=0
33360 On ch=1 n=a#5 v=98
33600 On ch=1 n=a#5 v=0
33600 On ch=1 n=g5 v=92
33840 On ch=1 n=g5 v=0
33840 On ch=1 n=d5 v=86
34080 On ch=1 n=d5 v=0
34080 On ch=1 n=e5 v=80
34320 On ch=1 n=e5 v=0
34320 On ch=1 n=g#5 v=74
34560 On ch=1 n=g#5 v=0
34560 On ch=1 n=g5 v=68
34800 On ch=1 n=g5 v=0
34800 On ch=1 n=f5 v=68
35040 On ch=1 n=f5 v=0
35040 On ch=1 n=c5 v=70
35280 On ch=1 n=c5 v=0
35280 On ch=1 n=g4 v=74
35520 On ch=1 n=g4 v=0
35520 On ch=1 n=g#4 v=75
35760 On ch=1 n=g#4 v=0
35760 On ch=1 n=a#4 v=69
36000 On ch=1 n=a#4 v=0
36000 On ch=1 n=b4 v=64
36240 On ch=1 n=b4 v=0
36240 On ch=1 n=c#5 v=64
36480 On ch=1 n=c#5 v=0
36480 On ch=1 n=c5 v=75
36720 On ch=1 n=c5 v=0
36720 On ch=1 n=g#5 v=86
36720 On ch=1 n=g#5 v=86
36960 On ch=1 n=g#5 v=0
36960 On ch=1 n=g#5 v=0
36960 On ch=1 n=e5 v=97
37200 On ch=1 n=e5 v=0
37200 On ch=1 n=g5 v=91
37440 On ch=1 n=g5 v=0
37440 On ch=1 n=f5 v=85
37680 On ch=1 n=f5 v=0
37680 On ch=1 n=c5 v=79
37920 On ch=1 n=c5 v=0
37920 On ch=1 n=g#4 v=72
38160 On ch=1 n=g#4 v=0
38160 On ch=1 n=c5 v=65
38400 On ch=1 n=c5 v=0
38400 On ch=1 n=f5 v=60
38640 On ch=1 n=f5 v=0
38640 On ch=1 n=g#5 v=69
38880 On ch=1 n=g#5 v=0
38880 On ch=1 n=b5 v=79
39120 On ch=1 n=b5 v=0
39120 On ch=1 n=c#6 v=88
39360 On ch=1 n=c#6 v=0
39360 On ch=1 n=c6 v=98
39360 On ch=1 n=c6 v=98
39600 On ch=1 n=c6 v=0
39600 On ch=1 n=c6 v=0
39600 On ch=1 n=g#6 v=93
39840 On ch=1 n=g#6 v=0
39840 On ch=1 n=e6 v=84
40080 On ch=1 n=e6 v=0
40080 On ch=1 n=g6 v=74
40320 On ch=1 n=g6 v=0
40320 On ch=1 n=f6 v=65
40560 On ch=1 n=f6 v=0
40560 On ch=1 n=c6 v=61
40800 On ch=1 n=c6 v=0
40800 On ch=1 n=g#5 v=65
41040 On ch=1 n=g#5 v=0
41040 On ch=1 n=c6 v=69
41280 On ch=1 n=c6 v=0
41280 On ch=1 n=f6 v=74
41520 On ch=1 n=f6 v=0
41520 On ch=1 n=g#6 v=78
41760 On ch=1 n=g#6 v=0
41760 On ch=1 n=b6 v=82
42000 On ch=1 n=b6 v=0
42000 On ch=1 n=c7 v=86
42240 On ch=1 n=c7 v=0
42240 On ch=1 n=c8 v=90
42480 On ch=1 n=c8 v=0
42480 On ch=1 n=g7 v=94
42720 On ch=1 n=g7 v=0
42720 On ch=1 n=a#7 v=98
42960 On ch=1 n=a#7 v=0
42960 On ch=1 n=g#7 v=103
43200 On ch=1 n=g#7 v=0
43200 On ch=1 n=f7 v=107
43440 On ch=1 n=f7 v=0
43440 On ch=1 n=d7 v=112
43680 On ch=1 n=d7 v=0
43680 On ch=1 n=c7 v=115
43920 On ch=1 n=c7 v=0
43920 On ch=1 n=g#6 v=118
44160 On ch=1 n=g#6 v=0
44160 On ch=1 n=f6 v=122
44400 On ch=1 n=f6 v=0
44400 On ch=1 n=d6 v=116
44640 On ch=1 n=d6 v=0
44640 On ch=1 n=c6 v=113
44880 On ch=1 n=c6 v=0
44880 On ch=1 n=g#5 v=111
45120 On ch=1 n=g#5 v=0
45120 On ch=1 n=f5 v=108
45360 On ch=1 n=f5 v=0
45360 On ch=1 n=d5 v=106
45600 On ch=1 n=d5 v=0
45600 On ch=1 n=g#5 v=103
45840 On ch=1 n=g#5 v=0
45840 On ch=1 n=c5 v=101
46080 On ch=1 n=c5 v=0
46080 On ch=1 n=b4 v=96
46320 On ch=1 n=b4 v=0
46320 On ch=1 n=g4 v=92
46560 On ch=1 n=g4 v=0
46560 On ch=1 n=g#4 v=87
46640 On ch=1 n=a#4 v=86
46696 On ch=1 n=g#4 v=84
46800 On ch=1 n=g#4 v=0
46800 On ch=1 n=g4 v=83
46880 On ch=1 n=a#4 v=0
46936 On ch=1 n=g#4 v=0
47040 On ch=1 n=g4 v=0
47040 On ch=1 n=g5 v=79
47280 On ch=1 n=g5 v=0
47280 On ch=1 n=g4 v=74
47520 On ch=1 n=g4 v=0
47520 On ch=1 n=g#4 v=84
47760 On ch=1 n=g#4 v=0
47760 On ch=1 n=a4 v=92
48000 On ch=1 n=a4 v=0
48000 On ch=1 n=a#4 v=99
48240 On ch=1 n=a#4 v=0
48240 On ch=1 n=g5 v=107
48480 On ch=1 n=g5 v=0
48480 On ch=1 n=d5 v=114
48720 On ch=1 n=d5 v=0
48720 On ch=1 n=f5 v=123
48960 On ch=1 n=f5 v=0
48960 On ch=1 n=d#5 v=112
49200 On ch=1 n=d#5 v=0
49200 On ch=1 n=g4 v=101
49440 On ch=1 n=g4 v=0
49440 On ch=1 n=a#4 v=89
49680 On ch=1 n=a#4 v=0
49680 On ch=1 n=d#5 v=79
49920 On ch=1 n=d#5 v=0
49920 On ch=1 n=g5 v=67
50160 On ch=1 n=g5 v=0
50160 On ch=1 n=g#5 v=56
50400 On ch=1 n=g#5 v=0
50400 On ch=1 n=a5 v=54
50640 On ch=1 n=a5 v=0
50640 On ch=1 n=c6 v=65
50880 On ch=1 n=c6 v=0
50880 On ch=1 n=a#5 v=77
51120 On ch=1 n=a#5 v=0
51120 On ch=1 n=g6 v=88
51360 On ch=1 n=g6 v=0
51360 On ch=1 n=d6 v=100
51600 On ch=1 n=d6 v=0
51600 On ch=1 n=f6 v=113
51840 On ch=1 n=f6 v=0
51840 On ch=1 n=d#6 v=123
52080 On ch=1 n=d#6 v=0
52080 On ch=1 n=g5 v=116
52320 On ch=1 n=g5 v=0
52320 On ch=1 n=a#5 v=110
52560 On ch=1 n=a#5 v=0
52560 On ch=1 n=d#6 v=103
52800 On ch=1 n=d#6 v=0
52800 On ch=1 n=g6 v=100
53040 On ch=1 n=g6 v=0
53040 On ch=1 n=g#6 v=95
53280 On ch=1 n=g#6 v=0
53280 On ch=1 n=a6 v=72
53520 On ch=1 n=a6 v=0
53520 On ch=1 n=c7 v=81
53760 On ch=1 n=c7 v=0
53760 On ch=1 n=a#6 v=91
54000 On ch=1 n=a#6 v=0
54000 On ch=1 n=g7 v=100
54240 On ch=1 n=g7 v=0
54240 On ch=1 n=d7 v=109
54480 On ch=1 n=d7 v=0
54480 On ch=1 n=f7 v=119
54720 On ch=1 n=f7 v=0
54720 On ch=1 n=d#7 v=112
54960 On ch=1 n=d#7 v=0
54960 On ch=1 n=a#6 v=103
55200 On ch=1 n=a#6 v=0
55200 On ch=1 n=g6 v=96
55440 On ch=1 n=g6 v=0
55440 On ch=1 n=d#6 v=88
55680 On ch=1 n=d#6 v=0
55680 On ch=1 n=a#5 v=80
55920 On ch=1 n=a#5 v=0
55920 On ch=1 n=g5 v=73
56160 On ch=1 n=g5 v=0
56160 On ch=1 n=d#5 v=93
56400 On ch=1 n=d#5 v=0
56400 On ch=1 n=g4 v=99
56640 On ch=1 n=g4 v=0
56640 On ch=1 n=c5 v=105
56880 On ch=1 n=c5 v=0
56880 On ch=1 n=d#5 v=111
57120 On ch=1 n=d#5 v=0
57120 On ch=1 n=g5 v=117
57360 On ch=1 n=g5 v=0
57360 On ch=1 n=f5 v=123
57600 On ch=1 n=f5 v=0
57600 On ch=1 n=d#5 v=127
57840 On ch=1 n=d#5 v=0
57840 On ch=1 n=g#4 v=122
58080 On ch=1 n=g#4 v=0
58080 On ch=1 n=d5 v=116
58320 On ch=1 n=d5 v=0
58320 On ch=1 n=c5 v=110
58560 On ch=1 n=c5 v=0
58560 On ch=1 n=b4 v=105
58800 On ch=1 n=b4 v=0
58800 On ch=1 n=g4 v=99
59040 On ch=1 n=g4 v=0
59040 On ch=1 n=g#4 v=74
59280 On ch=1 n=g#4 v=0
59280 On ch=1 n=a4 v=80
59520 On ch=1 n=a4 v=0
59520 On ch=1 n=a#4 v=88
59760 On ch=1 n=a#4 v=0
59760 On ch=1 n=g5 v=95
60000 On ch=1 n=g5 v=0
60000 On ch=1 n=d5 v=102
60240 On ch=1 n=d5 v=0
60240 On ch=1 n=f5 v=109
60480 On ch=1 n=f5 v=0
60480 On ch=1 n=d#5 v=117
60720 On ch=1 n=d#5 v=0
60720 On ch=1 n=g4 v=110
60960 On ch=1 n=g4 v=0
60960 On ch=1 n=a#4 v=103
61200 On ch=1 n=a#4 v=0
61200 On ch=1 n=d#5 v=96
61440 On ch=1 n=d#5 v=0
61440 On ch=1 n=g5 v=88
61680 On ch=1 n=g5 v=0
61680 On ch=1 n=g#5 v=81
61920 On ch=1 n=g#5 v=0
61920 On ch=1 n=a5 v=75
62160 On ch=1 n=a5 v=0
62160 On ch=1 n=c6 v=88
62400 On ch=1 n=c6 v=0
62400 On ch=1 n=a#5 v=101
62640 On ch=1 n=a#5 v=0
62640 On ch=1 n=g6 v=114
62880 On ch=1 n=g6 v=0
62880 On ch=1 n=d6 v=121
63120 On ch=1 n=d6 v=0
63120 On ch=1 n=f6 v=116
63360 On ch=1 n=f6 v=0
63360 On ch=1 n=d#6 v=103
63600 On ch=1 n=d#6 v=0
63600 On ch=1 n=g5 v=92
63840 On ch=1 n=g5 v=0
63840 On ch=1 n=a#5 v=88
63840 On ch=1 n=a#5 v=88
64080 On ch=1 n=a#5 v=0
64080 On ch=1 n=a#5 v=0
64080 On ch=1 n=d#6 v=95
64320 On ch=1 n=d#6 v=0
64320 On ch=1 n=g6 v=103
64560 On ch=1 n=g6 v=0
64560 On ch=1 n=g#6 v=112
64800 On ch=1 n=g#6 v=0
64800 On ch=1 n=a6 v=120
65040 On ch=1 n=a6 v=0
65040 On ch=1 n=c7 v=123
65280 On ch=1 n=c7 v=0
65280 On ch=1 n=a#6 v=115
65520 On ch=1 n=a#6 v=0
65520 On ch=1 n=a#6 v=106
65760 On ch=1 n=a#6 v=0
65760 On ch=1 n=c8 v=98
66000 On ch=1 n=c8 v=0
66000 On ch=1 n=a#7 v=89
66240 On ch=1 n=a#7 v=0
66240 On ch=1 n=g7 v=79
66480 On ch=1 n=g7 v=0
66480 On ch=1 n=d#7 v=85
66720 On ch=1 n=d#7 v=0
66720 On ch=1 n=c7 v=93
66960 On ch=1 n=c7 v=0
66960 On ch=1 n=a#6 v=84
67200 On ch=1 n=a#6 v=0
67200 On ch=1 n=g6 v=74
67440 On ch=1 n=g6 v=0
67440 On ch=1 n=d#6 v=80
67680 On ch=1 n=d#6 v=0
67680 On ch=1 n=c6 v=89
67920 On ch=1 n=c6 v=0
67920 On ch=1 n=a5 v=93
68160 On ch=1 n=a5 v=0
68160 On ch=1 n=c6 v=100
68400 On ch=1 n=c6 v=0
68400 On ch=1 n=a#5 v=106
68640 On ch=1 n=a#5 v=0
68640 On ch=1 n=c7 v=101
68880 On ch=1 n=c7 v=0
68880 On ch=1 n=a#6 v=95
69120 On ch=1 n=a#6 v=0
69120 On ch=1 n=g6 v=90
69360 On ch=1 n=g6 v=0
69360 On ch=1 n=d#6 v=84
69600 On ch=1 n=d#6 v=0
69600 On ch=1 n=c6 v=79
69600 On ch=1 n=c6 v=79
69840 On ch=1 n=c6 v=0
69840 On ch=1 n=c6 v=0
69840 On ch=1 n=a#5 v=74
70080 On ch=1 n=a#5 v=0
70080 On ch=1 n=g5 v=69
70320 On ch=1 n=g5 v=0
70320 On ch=1 n=d#5 v=63
70560 On ch=1 n=d#5 v=0
70560 On ch=1 n=c5 v=70
70560 On ch=1 n=c5 v=70
70800 On ch=1 n=c5 v=0
70800 On ch=1 n=c5 v=0
70800 On ch=1 n=a4 v=79
71040 On ch=1 n=a4 v=0
71040 On ch=1 n=c5 v=88
71280 On ch=1 n=c5 v=0
71280 On ch=1 n=a#4 v=98
71520 On ch=1 n=a#4 v=0
71520 On ch=1 n=c6 v=94
71760 On ch=1 n=c6 v=0
71760 On ch=1 n=a#5 v=84
72000 On ch=1 n=a#5 v=0
72000 On ch=1 n=g5 v=75
72240 On ch=1 n=g5 v=0
72240 On ch=1 n=d#5 v=74
72240 On ch=1 n=d#5 v=69
72480 On ch=1 n=d#5 v=0
72480 On ch=1 n=d#5 v=0
72480 On ch=1 n=c5 v=62
72720 On ch=1 n=c5 v=0
72720 On ch=1 n=a#4 v=70
72960 On ch=1 n=a#4 v=0
72960 On ch=1 n=g5 v=61
73200 On ch=1 n=g5 v=0
73200 On ch=1 n=d#5 v=52
73200 On ch=1 n=d#5 v=52
73440 On ch=1 n=d#5 v=0
73440 On ch=1 n=d#5 v=0
73440 On ch=1 n=c5 v=80
73680 On ch=1 n=c5 v=0
73680 On ch=1 n=a#4 v=72
73920 On ch=1 n=a#4 v=0
73920 On ch=1 n=g4 v=64
74160 On ch=1 n=g4 v=0
74160 On ch=1 n=g5 v=88
74400 On ch=1 n=g5 v=0
74400 On ch=1 n=d#5 v=74
74640 On ch=1 n=d#5 v=0
74640 On ch=1 n=c5 v=78
74880 On ch=1 n=c5 v=0
74880 On ch=1 n=a#4 v=97
75120 On ch=1 n=a#4 v=0
75120 On ch=1 n=g4 v=88
75360 On ch=1 n=g4 v=0
75360 On ch=1 n=d#5 v=79
75600 On ch=1 n=d#5 v=0
75600 On ch=1 n=c5 v=93
75840 On ch=1 n=c5 v=0
75840 On ch=1 n=a#4 v=86
76080 On ch=1 n=a#4 v=0
76080 On ch=1 n=g4 v=79
76320 On ch=1 n=g4 v=0
76320 On ch=1 n=d#4 v=73
76560 On ch=1 n=d#4 v=0
76560 On ch=1 n=d4 v=127
76800 On ch=1 n=d4 v=0
76800 On ch=1 n=f4 v=85
77040 On ch=1 n=f4 v=0
77040 On ch=1 n=d#4 v=93
77280 On ch=1 n=d#4 v=0
77280 On ch=1 n=c#4 v=102
77520 On ch=1 n=c#4 v=0
77520 On ch=1 n=f4 v=100
77760 On ch=1 n=f4 v=0
77760 On ch=1 n=d#4 v=100
78000 On ch=1 n=d#4 v=0
78000 On ch=1 n=c4 v=127
78240 On ch=1 n=c4 v=0
78240 On ch=1 n=f4 v=83
78480 On ch=1 n=f4 v=0
78480 On ch=1 n=d#4 v=90
78720 On ch=1 n=d#4 v=0
78720 On ch=1 n=b3 v=98
78960 On ch=1 n=b3 v=0
78960 On ch=1 n=f4 v=127
79200 On ch=1 n=f4 v=0
79200 On ch=1 n=d#4 v=100
79440 On ch=1 n=d#4 v=0
79440 On ch=1 n=a#3 v=127
79680 On ch=1 n=a#3 v=0
79680 On ch=1 n=f4 v=87
79920 On ch=1 n=f4 v=0
79920 On ch=1 n=d#4 v=95
80160 On ch=1 n=d#4 v=0
80160 On ch=1 n=a3 v=103
80160 On ch=1 n=a3 v=103
80160 On ch=1 n=a3 v=103
80400 On ch=1 n=a3 v=0
80400 On ch=1 n=a3 v=0
80400 On ch=1 n=a3 v=0
80400 On ch=1 n=f4 v=127
80640 On ch=1 n=f4 v=0
80640 On ch=1 n=d#4 v=100
80880 On ch=1 n=d#4 v=0
80880 On ch=1 n=c4 v=127
81120 On ch=1 n=c4 v=0
81120 On ch=1 n=f4 v=88
81360 On ch=1 n=f4 v=0
81360 On ch=1 n=d#4 v=93
81600 On ch=1 n=d#4 v=0
81600 On ch=1 n=a#3 v=98
81840 On ch=1 n=a#3 v=0
81840 On ch=1 n=g4 v=127
82080 On ch=1 n=g4 v=0
82080 Par ch=1 c=64 v=127
82080 On ch=1 n=d#3 v=127
82080 On ch=1 n=d#3 v=127
82080 On ch=1 n=d#3 v=127
82320 On ch=1 n=d#3 v=0
82320 On ch=1 n=d#3 v=0
82320 On ch=1 n=d#3 v=0
83520 On ch=1 n=d#7 v=118
83520 On ch=1 n=d#6 v=118
83760 On ch=1 n=d#6 v=0
83760 On ch=1 n=d#7 v=0
84480 On ch=1 n=d#5 v=127
84720 On ch=1 n=d#5 v=0
84720 On ch=1 n=d#5 v=127
84960 On ch=1 n=d#5 v=0
84960 On ch=1 n=d#5 v=127
87840 Par ch=1 c=64 v=0
89280 On ch=1 n=c#5 v=82
89280 On ch=1 n=e5 v=82
89325 On ch=1 n=d#5 v=0
91661 On ch=1 n=e5 v=0
91680 On ch=1 n=c#5 v=0
91680 On ch=1 n=g#5 v=79
91689 On ch=1 n=e5 v=79
92160 On ch=1 n=f#5 v=72
92196 On ch=1 n=g#5 v=0
93600 On ch=1 n=d#5 v=87
93672 On ch=1 n=e5 v=0
94514 On ch=1 n=d#5 v=0
94523 On ch=1 n=f#5 v=0
94560 On ch=1 n=f#5 v=69
94560 On ch=1 n=d#5 v=69
95040 On ch=1 n=g#5 v=77
95085 On ch=1 n=f#5 v=0
96452 On ch=1 n=d#5 v=0
96480 On ch=1 n=b5 v=87
96480 On ch=1 n=d#5 v=87
96588 On ch=1 n=g#5 v=0
97883 On ch=1 n=d#5 v=0
97920 On ch=1 n=d#5 v=82
97983 On ch=1 n=b5 v=0
99341 On ch=1 n=d#5 v=0
99360 On ch=1 n=e5 v=91
100800 On ch=1 n=g#5 v=78
100863 On ch=1 n=e5 v=0
102240 On ch=1 n=b4 v=64
102240 On ch=1 n=c#5 v=64
102303 On ch=1 n=g#5 v=0
103652 On ch=1 n=b4 v=0
103680 On ch=1 n=b4 v=89
103680 On ch=1 n=e5 v=89
103725 On ch=1 n=c#5 v=0
105120 On ch=1 n=d#5 v=76
105147 On ch=1 n=b4 v=0
105165 On ch=1 n=e5 v=0
106560 On ch=1 n=c#5 v=87
106587 On ch=1 n=d#5 v=0
109440 On ch=1 n=d5 v=84
109476 On ch=1 n=c#5 v=0
110880 On ch=1 n=d#5 v=90
110916 On ch=1 n=d5 v=0
112320 On ch=1 n=e5 v=93
112338 On ch=1 n=d#5 v=0
113760 On ch=1 n=b4 v=77
113787 On ch=1 n=e5 v=0
116640 On ch=1 n=d#5 v=99
116676 On ch=1 n=b4 v=0
118080 On ch=1 n=e5 v=81
118125 On ch=1 n=d#5 v=0
119529 On ch=1 n=b4 v=63
119565 On ch=1 n=e5 v=0
122400 On ch=1 n=b4 v=0
122400 On ch=1 n=c#5 v=79
123840 On ch=1 n=d#5 v=85
123867 On ch=1 n=c#5 v=0
125298 On ch=1 n=b4 v=74
125307 On ch=1 n=d#5 v=0
128205 On ch=1 n=b4 v=0
134880 On ch=1 n=a#4 v=116
134880 On ch=1 n=a#5 v=116
135099 On ch=1 n=a#5 v=0
135099 On ch=1 n=a#4 v=0
135124 On ch=1 n=a#5 v=116
135124 On ch=1 n=a#4 v=116
135343 On ch=1 n=a#4 v=0
135343 On ch=1 n=a#5 v=0
135360 On ch=1 n=a#5 v=116
135360 On ch=1 n=a#4 v=116
136778 On ch=1 n=a#4 v=0
136797 On ch=1 n=f5 v=106
136797 On ch=1 n=a#4 v=106
136932 On ch=1 n=a#5 v=0
137757 On ch=1 n=g#4 v=101
137784 On ch=1 n=a#4 v=0
138200 On ch=1 n=g#4 v=0
138237 On ch=1 n=f#5 v=114
138237 On ch=1 n=g#4 v=114
138237 On ch=1 n=a#4 v=114
138282 On ch=1 n=f5 v=0
138717 On ch=1 n=f#4 v=120
138735 On ch=1 n=g#4 v=0
139197 On ch=1 n=d#4 v=109
139206 On ch=1 n=f#4 v=0
139658 On ch=1 n=a#4 v=0
139677 On ch=1 n=a#4 v=98
139677 On ch=1 n=f#4 v=98
139677 On ch=1 n=c#5 v=98
139722 On ch=1 n=d#4 v=0
139731 On ch=1 n=f#5 v=0
140637 On ch=1 n=g#4 v=95
140637 On ch=1 n=b4 v=95
140673 On ch=1 n=a#4 v=0
140682 On ch=1 n=f#4 v=0
141089 On ch=1 n=g#4 v=0
141098 On ch=1 n=b4 v=0
141117 On ch=1 n=b4 v=104
141117 On ch=1 n=g#4 v=104
141597 On ch=1 n=a#4 v=97
141597 On ch=1 n=f#4 v=97
141615 On ch=1 n=g#4 v=0
141615 On ch=1 n=b4 v=0
142077 On ch=1 n=f4 v=90
142077 On ch=1 n=a4 v=90
142104 On ch=1 n=f#4 v=0
142113 On ch=1 n=a#4 v=0
142520 On ch=1 n=a4 v=0
142538 On ch=1 n=f4 v=0
142557 On ch=1 n=f4 v=83
142557 On ch=1 n=a4 v=83
143526 On ch=1 n=f#4 v=77
143544 On ch=1 n=f4 v=0
143997 On ch=1 n=f#4 v=0
144069 On ch=1 n=a4 v=0
144069 On ch=1 n=c#5 v=0
146397 On ch=1 n=c#5 v=100
146397 On ch=1 n=c#6 v=100
146616 On ch=1 n=c#6 v=0
146616 On ch=1 n=c#5 v=0
146641 On ch=1 n=c#5 v=100
146641 On ch=1 n=c#6 v=100
146860 On ch=1 n=c#6 v=0
146860 On ch=1 n=c#5 v=0
146877 On ch=1 n=c#6 v=100
146886 On ch=1 n=c#5 v=100
148317 On ch=1 n=g#5 v=100
148353 On ch=1 n=c#6 v=0
149277 On ch=1 n=c5 v=84
149313 On ch=1 n=c#5 v=0
149738 On ch=1 n=c5 v=0
149757 On ch=1 n=c5 v=88
150237 On ch=1 n=a#4 v=93
150282 On ch=1 n=c5 v=0
150717 On ch=1 n=g#4 v=98
150762 On ch=1 n=a#4 v=0
151197 On ch=1 n=c5 v=102
151251 On ch=1 n=g#4 v=0
152157 On ch=1 n=c#5 v=80
152202 On ch=1 n=c5 v=0
152618 On ch=1 n=c#5 v=0
152637 On ch=1 n=c#5 v=80
153597 On ch=1 n=c5 v=86
153678 On ch=1 n=c#5 v=0
154086 On ch=1 n=c#5 v=86
154104 On ch=1 n=c5 v=0
155046 On ch=1 n=d5 v=82
155100 On ch=1 n=c#5 v=0
155489 On ch=1 n=d5 v=0
155517 On ch=1 n=d5 v=88
155997 On ch=1 n=c#5 v=79
156042 On ch=1 n=d5 v=0
156477 On ch=1 n=d5 v=90
156531 On ch=1 n=c#5 v=0
156938 On ch=1 n=g#5 v=0
156957 On ch=1 n=g#5 v=101
157980 On ch=1 n=d5 v=0
158397 On ch=1 n=a5 v=105
158469 On ch=1 n=g#5 v=0
159846 On ch=1 n=e5 v=108
159900 On ch=1 n=a5 v=0
162726 On ch=1 n=g#5 v=100
162789 On ch=1 n=e5 v=0
164157 On ch=1 n=a5 v=100
164202 On ch=1 n=g#5 v=0
165597 On ch=1 n=e5 v=88
165642 On ch=1 n=a5 v=0
168477 On ch=1 n=f#5 v=88
168549 On ch=1 n=e5 v=0
169917 On ch=1 n=g#5 v=97
169962 On ch=1 n=f#5 v=0
171357 On ch=1 n=e5 v=83
171429 On ch=1 n=g#5 v=0
178557 On ch=1 n=c#5 v=89
178611 On ch=1 n=e5 v=0
179997 On ch=1 n=d#5 v=96
180957 On ch=1 n=b4 v=74
180993 On ch=1 n=c#5 v=0
181418 On ch=1 n=b4 v=0
181437 On ch=1 n=c#5 v=78
181437 On ch=1 n=e5 v=78
181437 On ch=1 n=b4 v=78
181491 On ch=1 n=d#5 v=0
181917 On ch=1 n=a#4 v=82
181953 On ch=1 n=b4 v=0
182397 On ch=1 n=g#4 v=86
182424 On ch=1 n=a#4 v=0
182877 On ch=1 n=a#4 v=89
182913 On ch=1 n=g#4 v=0
183809 On ch=1 n=a#4 v=0
183809 On ch=1 n=e5 v=0
183837 On ch=1 n=a#4 v=86
183837 On ch=1 n=g#5 v=86
183846 On ch=1 n=e5 v=86
183882 On ch=1 n=c#5 v=0
184317 On ch=1 n=f#5 v=79
184344 On ch=1 n=g#5 v=0
184797 On ch=1 n=b4 v=77
184842 On ch=1 n=a#4 v=0
185277 On ch=1 n=c#5 v=88
185322 On ch=1 n=b4 v=0
185757 On ch=1 n=d#5 v=106
185802 On ch=1 n=e5 v=0
186689 On ch=1 n=d#5 v=0
186689 On ch=1 n=c#5 v=0
186698 On ch=1 n=f#5 v=0
186717 On ch=1 n=d#5 v=93
186717 On ch=1 n=f#5 v=93
186717 On ch=1 n=c#5 v=93
187197 On ch=1 n=g#5 v=99
187242 On ch=1 n=f#5 v=0
187677 On ch=1 n=b4 v=98
187713 On ch=1 n=c#5 v=0
188157 On ch=1 n=a#4 v=90
188618 On ch=1 n=d#5 v=0
188637 On ch=1 n=d#5 v=100
188637 On ch=1 n=b5 v=100
188673 On ch=1 n=a#4 v=0
188673 On ch=1 n=g#5 v=0
190040 On ch=1 n=d#5 v=0
190077 On ch=1 n=d#5 v=100
190113 On ch=1 n=b5 v=0
191517 On ch=1 n=e5 v=100
191562 On ch=1 n=d#5 v=0
192957 On ch=1 n=g#5 v=95
192993 On ch=1 n=e5 v=0
194369 On ch=1 n=b4 v=0
194397 On ch=1 n=c#5 v=82
194397 On ch=1 n=b4 v=82
194433 On ch=1 n=g#5 v=0
195818 On ch=1 n=b4 v=0
195837 On ch=1 n=e5 v=97
195837 On ch=1 n=b4 v=97
195873 On ch=1 n=c#5 v=0
197277 On ch=1 n=d#5 v=85
197313 On ch=1 n=b4 v=0
197313 On ch=1 n=e5 v=0
198717 On ch=1 n=c#5 v=93
198798 On ch=1 n=d#5 v=0
201591 On ch=1 n=c#5 v=0
201597 On ch=1 n=d5 v=86
203037 On ch=1 n=d#5 v=78
203091 On ch=1 n=d5 v=0
204477 On ch=1 n=e5 v=82
204522 On ch=1 n=d#5 v=0
205917 On ch=1 n=b4 v=66
205953 On ch=1 n=e5 v=0
208797 On ch=1 n=d#5 v=92
208842 On ch=1 n=b4 v=0
210237 On ch=1 n=e5 v=62
210282 On ch=1 n=d#5 v=0
211677 On ch=1 n=b4 v=54
211713 On ch=1 n=e5 v=0
214557 On ch=1 n=c#5 v=79
214602 On ch=1 n=b4 v=0
215517 On ch=1 n=b4 v=78
215517 On ch=1 n=g#4 v=78
215978 On ch=1 n=g#4 v=0
215978 On ch=1 n=b4 v=0
215997 On ch=1 n=d#5 v=84
215997 On ch=1 n=b4 v=84
216006 On ch=1 n=g#4 v=84
216051 On ch=1 n=c#5 v=0
216477 On ch=1 n=a#4 v=84
216477 On ch=1 n=f#4 v=84
216513 On ch=1 n=g#4 v=0
216513 On ch=1 n=b4 v=0
216957 On ch=1 n=g#4 v=77
216957 On ch=1 n=e4 v=77
216984 On ch=1 n=f#4 v=0
216993 On ch=1 n=a#4 v=0
217409 On ch=1 n=g#4 v=0
217418 On ch=1 n=e4 v=0
217437 On ch=1 n=b4 v=69
217437 On ch=1 n=e4 v=69
217437 On ch=1 n=g#4 v=69
217509 On ch=1 n=d#5 v=0
218397 On ch=1 n=f#4 v=55
218397 On ch=1 n=d#4 v=55
218433 On ch=1 n=g#4 v=0
218433 On ch=1 n=e4 v=0
218849 On ch=1 n=f#4 v=0
218858 On ch=1 n=d#4 v=0
218877 On ch=1 n=f#4 v=54
218877 On ch=1 n=d#4 v=54
219882 On ch=1 n=f#4 v=0
219891 On ch=1 n=d#4 v=0
220344 On ch=1 n=b4 v=0
226557 On ch=1 n=a#4 v=61
226801 On ch=1 n=g5 v=69
226828 On ch=1 n=a#4 v=0
227037 On ch=1 n=d5 v=78
227064 On ch=1 n=g5 v=0
227281 On ch=1 n=f5 v=86
227308 On ch=1 n=d5 v=0
227500 On ch=1 n=f5 v=0
227517 Par ch=1 c=64 v=127
227517 On ch=1 n=d#5 v=93
227757 On ch=1 n=d#5 v=0
227757 On ch=1 n=g4 v=102
227997 On ch=1 n=g4 v=0
227997 On ch=1 n=a#4 v=110
228237 On ch=1 n=a#4 v=0
228237 On ch=1 n=d#5 v=118
228477 On ch=1 n=d#5 v=0
228477 On ch=1 n=g5 v=112
228717 On ch=1 n=g5 v=0
228717 On ch=1 n=g#5 v=99
228957 On ch=1 n=g#5 v=0
228957 On ch=1 n=a5 v=87
229197 On ch=1 n=a5 v=0
229197 On ch=1 n=c6 v=74
229437 On ch=1 n=c6 v=0
229437 On ch=1 n=a#5 v=93
229677 On ch=1 n=a#5 v=0
229677 On ch=1 n=g6 v=106
229917 On ch=1 n=g6 v=0
229917 On ch=1 n=d6 v=118
230157 On ch=1 n=d6 v=0
230157 On ch=1 n=f6 v=121
230397 On ch=1 n=f6 v=0
230397 On ch=1 n=d#6 v=108
230637 On ch=1 n=d#6 v=0
230637 On ch=1 n=g5 v=96
230877 On ch=1 n=g5 v=0
230877 On ch=1 n=a#5 v=84
231117 On ch=1 n=a#5 v=0
231117 On ch=1 n=d#6 v=71
231357 On ch=1 n=d#6 v=0
231357 On ch=1 n=g6 v=75
231597 On ch=1 n=g6 v=0
231597 On ch=1 n=g#6 v=91
231837 On ch=1 n=g#6 v=0
231837 On ch=1 n=a6 v=106
232077 On ch=1 n=a6 v=0
232077 On ch=1 n=c7 v=121
232317 On ch=1 n=c7 v=0
232317 On ch=1 n=a#6 v=127
232557 On ch=1 n=a#6 v=0
232557 On ch=1 n=g7 v=119
232797 On ch=1 n=g7 v=0
232797 On ch=1 n=d7 v=115
233037 On ch=1 n=d7 v=0
233037 On ch=1 n=f7 v=108
233277 On ch=1 n=f7 v=0
233277 On ch=1 n=d#7 v=102
233517 On ch=1 n=d#7 v=0
233517 On ch=1 n=a#6 v=93
233757 On ch=1 n=a#6 v=0
233757 On ch=1 n=a#4 v=108
233997 On ch=1 n=a#4 v=0
233997 On ch=1 n=g6 v=101
234237 On ch=1 n=g6 v=0
234237 On ch=1 n=a#5 v=94
234477 On ch=1 n=a#5 v=0
234477 On ch=1 n=g5 v=88
234717 On ch=1 n=g5 v=0
234717 On ch=1 n=d#5 v=81
234957 On ch=1 n=d#5 v=0
234957 On ch=1 n=g4 v=74
235197 On ch=1 n=g4 v=0
235197 On ch=1 n=c5 v=69
235437 On ch=1 n=c5 v=0
235437 On ch=1 n=d#5 v=82
235677 On ch=1 n=d#5 v=0
235677 On ch=1 n=g5 v=108
235917 On ch=1 n=g5 v=0
235917 On ch=1 n=f5 v=90
236157 On ch=1 n=f5 v=0
236157 On ch=1 n=d#5 v=72
236397 On ch=1 n=d#5 v=0
236397 On ch=1 n=g#4 v=84
236637 On ch=1 n=g#4 v=0
236637 On ch=1 n=d5 v=96
236877 On ch=1 n=d5 v=0
236877 On ch=1 n=c5 v=108
237117 On ch=1 n=c5 v=0
237117 On ch=1 n=b4 v=117
237357 On ch=1 n=b4 v=0
237357 On ch=1 n=g4 v=103
237597 On ch=1 n=g4 v=0
237597 On ch=1 n=g#4 v=90
237837 On ch=1 n=g#4 v=0
237837 On ch=1 n=a4 v=68
238077 On ch=1 n=a4 v=0
238077 On ch=1 n=a#4 v=75
238317 On ch=1 n=a#4 v=0
238317 On ch=1 n=g5 v=84
238557 On ch=1 n=g5 v=0
238557 On ch=1 n=d5 v=92
238797 On ch=1 n=d5 v=0
238797 On ch=1 n=f5 v=99
239037 On ch=1 n=f5 v=0
239037 On ch=1 n=d#5 v=108
239277 On ch=1 n=d#5 v=0
239277 On ch=1 n=g4 v=116
239517 On ch=1 n=g4 v=0
239517 On ch=1 n=a#4 v=123
239757 On ch=1 n=a#4 v=0
239757 On ch=1 n=d#5 v=120
239997 On ch=1 n=d#5 v=0
239997 On ch=1 n=g5 v=114
240237 On ch=1 n=g5 v=0
240237 On ch=1 n=g#5 v=108
240477 On ch=1 n=g#5 v=0
240477 On ch=1 n=a5 v=101
240717 On ch=1 n=a5 v=0
240717 On ch=1 n=c6 v=94
240957 On ch=1 n=c6 v=0
240957 On ch=1 n=a#5 v=88
241197 On ch=1 n=a#5 v=0
241197 On ch=1 n=g6 v=80
241437 On ch=1 n=g6 v=0
241437 On ch=1 n=d6 v=97
241677 On ch=1 n=d6 v=0
241677 On ch=1 n=f6 v=113
241917 On ch=1 n=f6 v=0
241917 On ch=1 n=d#6 v=114
242157 On ch=1 n=d#6 v=0
242157 On ch=1 n=g5 v=101
242397 On ch=1 n=g5 v=0
242397 On ch=1 n=a#5 v=87
242637 On ch=1 n=a#5 v=0
242637 On ch=1 n=d#6 v=93
242877 On ch=1 n=d#6 v=0
242877 On ch=1 n=g6 v=99
243117 On ch=1 n=g6 v=0
243117 On ch=1 n=g#6 v=105
243357 On ch=1 n=g#6 v=0
243357 On ch=1 n=a6 v=111
243597 On ch=1 n=a6 v=0
243597 On ch=1 n=c7 v=117
243837 On ch=1 n=c7 v=0
243837 On ch=1 n=a#6 v=123
244077 On ch=1 n=a#6 v=0
244077 On ch=1 n=a#6 v=127
244317 On ch=1 n=a#6 v=0
244317 On ch=1 n=c8 v=127
244557 On ch=1 n=c8 v=0
244557 On ch=1 n=a#7 v=127
244797 On ch=1 n=a#7 v=0
244797 On ch=1 n=g7 v=127
245037 On ch=1 n=g7 v=0
245037 On ch=1 n=d#7 v=122
245277 On ch=1 n=d#7 v=0
245277 On ch=1 n=c7 v=115
245517 On ch=1 n=c7 v=0
245517 On ch=1 n=a#6 v=108
245757 On ch=1 n=a#6 v=0
245757 On ch=1 n=g6 v=102
245997 On ch=1 n=g6 v=0
245997 On ch=1 n=d#6 v=95
246237 On ch=1 n=d#6 v=0
246237 On ch=1 n=c6 v=88
246477 On ch=1 n=c6 v=0
246477 On ch=1 n=a#5 v=82
246717 On ch=1 n=a#5 v=0
246717 On ch=1 n=g5 v=75
246957 On ch=1 n=g5 v=0
246957 On ch=1 n=c5 v=69
247197 On ch=1 n=c5 v=0
247197 On ch=1 n=d5 v=62
247437 On ch=1 n=d5 v=0
247437 On ch=1 n=g5 v=68
247677 On ch=1 n=g5 v=0
247677 On ch=1 n=f5 v=74
247917 On ch=1 n=f5 v=0
247917 On ch=1 n=d#5 v=81
248157 On ch=1 n=d#5 v=0
248157 On ch=1 n=a4 v=87
248397 On ch=1 n=a4 v=0
248397 On ch=1 n=a#4 v=93
248637 On ch=1 n=a#4 v=0
248637 On ch=1 n=b4 v=99
248877 On ch=1 n=b4 v=0
248877 On ch=1 n=c5 v=106
249117 On ch=1 n=c5 v=0
249117 On ch=1 n=c#5 v=112
249357 On ch=1 n=c#5 v=0
249357 On ch=1 n=d#5 v=118
249597 On ch=1 n=d#5 v=0
249597 On ch=1 n=d5 v=124
249837 On ch=1 n=d5 v=0
249837 On ch=1 n=a#5 v=115
250077 On ch=1 n=a#5 v=0
250077 On ch=1 n=f#5 v=105
250317 On ch=1 n=f#5 v=0
250317 On ch=1 n=a5 v=96
250557 On ch=1 n=a5 v=0
250557 On ch=1 n=g5 v=86
250797 On ch=1 n=g5 v=0
250797 On ch=1 n=d5 v=77
251037 On ch=1 n=d5 v=0
251037 On ch=1 n=a#4 v=62
251277 On ch=1 n=a#4 v=0
251277 On ch=1 n=d5 v=71
251517 On ch=1 n=d5 v=0
251517 On ch=1 n=g5 v=81
251757 On ch=1 n=g5 v=0
251757 On ch=1 n=a#5 v=91
251997 On ch=1 n=a#5 v=0
251997 On ch=1 n=c#6 v=100
252237 On ch=1 n=c#6 v=0
252237 On ch=1 n=d#6 v=110
252477 On ch=1 n=d#6 v=0
252477 On ch=1 n=d6 v=120
252717 On ch=1 n=d6 v=0
252717 On ch=1 n=a#6 v=118
252717 On ch=1 n=a#6 v=127
252957 On ch=1 n=a#6 v=0
252957 On ch=1 n=a#6 v=0
252957 On ch=1 n=f#6 v=120
253197 On ch=1 n=f#6 v=0
253197 On ch=1 n=a6 v=109
253437 On ch=1 n=a6 v=0
253437 On ch=1 n=g6 v=98
253677 On ch=1 n=g6 v=0
253677 On ch=1 n=d6 v=86
253917 On ch=1 n=d6 v=0
253917 On ch=1 n=a#5 v=74
254157 On ch=1 n=a#5 v=0
254157 On ch=1 n=d6 v=66
254397 On ch=1 n=d6 v=0
254397 On ch=1 n=g6 v=74
254637 On ch=1 n=g6 v=0
254637 On ch=1 n=a#6 v=83
254877 On ch=1 n=a#6 v=0
254877 On ch=1 n=c#7 v=92
255117 On ch=1 n=c#7 v=0
255117 On ch=1 n=d7 v=100
255357 On ch=1 n=d7 v=0
255357 On ch=1 n=d8 v=108
255597 On ch=1 n=d8 v=0
255597 On ch=1 n=a7 v=117
255837 On ch=1 n=a7 v=0
255837 On ch=1 n=c8 v=126
255837 On ch=1 n=c8 v=126
256077 On ch=1 n=c8 v=0
256077 On ch=1 n=c8 v=0
256077 On ch=1 n=a#7 v=127
256317 On ch=1 n=a#7 v=0
256317 On ch=1 n=g7 v=124
256557 On ch=1 n=g7 v=0
256557 On ch=1 n=d7 v=117
256797 On ch=1 n=d7 v=0
256797 On ch=1 n=a#6 v=109
257037 On ch=1 n=a#6 v=0
257037 On ch=1 n=g6 v=102
257277 On ch=1 n=g6 v=0
257277 On ch=1 n=d6 v=94
257517 On ch=1 n=d6 v=0
257517 On ch=1 n=a5 v=87
257757 On ch=1 n=a5 v=0
257757 On ch=1 n=c6 v=79
257997 On ch=1 n=c6 v=0
257997 On ch=1 n=a#5 v=72
258237 On ch=1 n=a#5 v=0
258237 On ch=1 n=g5 v=91
258477 On ch=1 n=g5 v=0
258477 On ch=1 n=d5 v=108
258717 On ch=1 n=d5 v=0
258717 On ch=1 n=e5 v=98
258957 On ch=1 n=e5 v=0
258957 On ch=1 n=g#5 v=86
259197 On ch=1 n=g#5 v=0
259197 On ch=1 n=g5 v=68
259197 On ch=1 n=g5 v=74
259437 On ch=1 n=g5 v=0
259437 On ch=1 n=g5 v=0
259437 On ch=1 n=f5 v=73
259677 On ch=1 n=f5 v=0
259677 On ch=1 n=c5 v=76
259917 On ch=1 n=c5 v=0
259917 On ch=1 n=g4 v=79
260157 On ch=1 n=g4 v=0
260157 On ch=1 n=g#4 v=82
260397 On ch=1 n=g#4 v=0
260397 On ch=1 n=a#4 v=85
260637 On ch=1 n=a#4 v=0
260637 On ch=1 n=b4 v=88
260877 On ch=1 n=b4 v=0
260877 On ch=1 n=c#5 v=92
261117 On ch=1 n=c#5 v=0
261117 On ch=1 n=c5 v=94
261357 On ch=1 n=c5 v=0
261357 On ch=1 n=g#5 v=98
261597 On ch=1 n=g#5 v=0
261597 On ch=1 n=e5 v=101
261837 On ch=1 n=e5 v=0
261837 On ch=1 n=g5 v=104
262077 On ch=1 n=g5 v=0
262077 On ch=1 n=f5 v=108
262317 On ch=1 n=f5 v=0
262317 On ch=1 n=c5 v=109
262557 On ch=1 n=c5 v=0
262557 On ch=1 n=g#4 v=104
262797 On ch=1 n=g#4 v=0
262797 On ch=1 n=c5 v=99
263037 On ch=1 n=c5 v=0
263037 On ch=1 n=f5 v=94
263277 On ch=1 n=f5 v=0
263277 On ch=1 n=g#5 v=90
263517 On ch=1 n=g#5 v=0
263517 On ch=1 n=b5 v=85
263757 On ch=1 n=b5 v=0
263757 On ch=1 n=c#6 v=80
263997 On ch=1 n=c#6 v=0
263997 On ch=1 n=c6 v=75
264237 On ch=1 n=c6 v=0
264237 On ch=1 n=g#6 v=70
264477 On ch=1 n=g#6 v=0
264477 On ch=1 n=e6 v=72
264717 On ch=1 n=e6 v=0
264717 On ch=1 n=g6 v=88
264957 On ch=1 n=g6 v=0
264957 On ch=1 n=f6 v=105
265197 On ch=1 n=f6 v=0
265197 On ch=1 n=c6 v=94
265437 On ch=1 n=c6 v=0
265437 On ch=1 n=g#5 v=80
265677 On ch=1 n=g#5 v=0
265677 On ch=1 n=c6 v=79
265917 On ch=1 n=c6 v=0
265917 On ch=1 n=f6 v=83
266157 On ch=1 n=f6 v=0
266157 On ch=1 n=g#6 v=86
266397 On ch=1 n=g#6 v=0
266397 On ch=1 n=b6 v=88
266637 On ch=1 n=b6 v=0
266637 On ch=1 n=c7 v=92
266877 On ch=1 n=c7 v=0
266877 On ch=1 n=c8 v=95
267117 On ch=1 n=c8 v=0
267117 On ch=1 n=g7 v=98
267357 On ch=1 n=g7 v=0
267357 On ch=1 n=a#7 v=102
267597 On ch=1 n=a#7 v=0
267597 On ch=1 n=g#7 v=105
267837 On ch=1 n=g#7 v=0
267837 On ch=1 n=f7 v=108
268077 On ch=1 n=f7 v=0
268077 On ch=1 n=d7 v=112
268317 On ch=1 n=d7 v=0
268317 On ch=1 n=c7 v=115
268557 On ch=1 n=c7 v=0
268557 On ch=1 n=g#6 v=118
268797 On ch=1 n=g#6 v=0
268797 On ch=1 n=f6 v=122
269037 On ch=1 n=f6 v=0
269037 On ch=1 n=d6 v=116
269277 On ch=1 n=d6 v=0
269277 On ch=1 n=c6 v=113
269517 On ch=1 n=c6 v=0
269517 On ch=1 n=g#5 v=111
269757 On ch=1 n=g#5 v=0
269757 On ch=1 n=f5 v=108
269997 On ch=1 n=f5 v=0
269997 On ch=1 n=d5 v=106
270237 On ch=1 n=d5 v=0
270237 On ch=1 n=g#5 v=103
270477 On ch=1 n=g#5 v=0
270477 On ch=1 n=c5 v=101
270717 On ch=1 n=c5 v=0
270717 On ch=1 n=b4 v=99
270957 On ch=1 n=b4 v=0
270957 On ch=1 n=g4 v=84
271197 On ch=1 n=g4 v=0
271197 On ch=1 n=g#4 v=86
271277 On ch=1 n=a#4 v=86
271333 On ch=1 n=g#4 v=86
271437 On ch=1 n=g#4 v=0
271437 On ch=1 n=g4 v=87
271517 On ch=1 n=a#4 v=0
271573 On ch=1 n=g#4 v=0
271677 On ch=1 n=g4 v=0
271677 On ch=1 n=g5 v=83
271917 On ch=1 n=g5 v=0
271917 On ch=1 n=g4 v=90
272157 On ch=1 n=g4 v=0
272157 On ch=1 n=g#4 v=74
272397 On ch=1 n=g#4 v=0
272397 On ch=1 n=a4 v=77
272637 On ch=1 n=a4 v=0
272637 On ch=1 n=a#4 v=84
272877 On ch=1 n=a#4 v=0
272877 On ch=1 n=g5 v=92
273117 On ch=1 n=g5 v=0
273117 On ch=1 n=d5 v=99
273357 On ch=1 n=d5 v=0
273357 On ch=1 n=f5 v=107
273597 On ch=1 n=f5 v=0
273597 On ch=1 n=d#5 v=116
273597 On ch=1 n=d#5 v=116
273837 On ch=1 n=d#5 v=0
273837 On ch=1 n=d#5 v=0
273837 On ch=1 n=g4 v=105
274077 On ch=1 n=g4 v=0
274077 On ch=1 n=a#4 v=95
274317 On ch=1 n=a#4 v=0
274317 On ch=1 n=d#5 v=85
274557 On ch=1 n=d#5 v=0
274557 On ch=1 n=g5 v=74
274797 On ch=1 n=g5 v=0
274797 On ch=1 n=g#5 v=64
275037 On ch=1 n=g#5 v=0
275037 On ch=1 n=a5 v=54
275277 On ch=1 n=a5 v=0
275277 On ch=1 n=c6 v=65
275517 On ch=1 n=c6 v=0
275517 On ch=1 n=a#5 v=77
275757 On ch=1 n=a#5 v=0
275757 On ch=1 n=g6 v=88
275997 On ch=1 n=g6 v=0
275997 On ch=1 n=d6 v=100
276237 On ch=1 n=d6 v=0
276237 On ch=1 n=f6 v=113
276477 On ch=1 n=f6 v=0
276477 On ch=1 n=d#6 v=123
276717 On ch=1 n=d#6 v=0
276717 On ch=1 n=g5 v=113
276957 On ch=1 n=g5 v=0
276957 On ch=1 n=a#5 v=97
277197 On ch=1 n=a#5 v=0
277197 On ch=1 n=d#6 v=80
277437 On ch=1 n=d#6 v=0
277437 On ch=1 n=g6 v=56
277677 On ch=1 n=g6 v=0
277677 On ch=1 n=g#6 v=69
277917 On ch=1 n=g#6 v=0
277917 On ch=1 n=a6 v=84
278157 On ch=1 n=a6 v=0
278157 On ch=1 n=c7 v=97
278397 On ch=1 n=c7 v=0
278397 On ch=1 n=a#6 v=111
278637 On ch=1 n=a#6 v=0
278637 On ch=1 n=g7 v=124
278877 On ch=1 n=g7 v=0
278877 On ch=1 n=d7 v=114
279117 On ch=1 n=d7 v=0
279117 On ch=1 n=f7 v=106
279357 On ch=1 n=f7 v=0
279357 On ch=1 n=d#7 v=98
279597 On ch=1 n=d#7 v=0
279597 On ch=1 n=a#6 v=89
279837 On ch=1 n=a#6 v=0
279837 On ch=1 n=g6 v=81
280077 On ch=1 n=g6 v=0
280077 On ch=1 n=d#6 v=73
280317 On ch=1 n=d#6 v=0
280317 On ch=1 n=a#5 v=62
280557 On ch=1 n=a#5 v=0
280557 On ch=1 n=g5 v=69
280797 On ch=1 n=g5 v=0
280797 On ch=1 n=d#5 v=78
281037 On ch=1 n=d#5 v=0
281037 On ch=1 n=g4 v=85
281277 On ch=1 n=g4 v=0
281277 On ch=1 n=c5 v=93
281517 On ch=1 n=c5 v=0
281517 On ch=1 n=d#5 v=101
281757 On ch=1 n=d#5 v=0
281757 On ch=1 n=g5 v=108
281997 On ch=1 n=g5 v=0
281997 On ch=1 n=f5 v=117
282237 On ch=1 n=f5 v=0
282237 On ch=1 n=d#5 v=124
282477 On ch=1 n=d#5 v=0
282477 On ch=1 n=g#4 v=123
282717 On ch=1 n=g#4 v=0
282717 On ch=1 n=d5 v=114
282957 On ch=1 n=d5 v=0
282957 On ch=1 n=c5 v=106
283197 On ch=1 n=c5 v=0
283197 On ch=1 n=b4 v=98
283437 On ch=1 n=b4 v=0
283437 On ch=1 n=g4 v=90
283677 On ch=1 n=g4 v=0
283677 On ch=1 n=g#4 v=83
283917 On ch=1 n=g#4 v=0
283917 On ch=1 n=a4 v=74
284157 On ch=1 n=a4 v=0
284157 On ch=1 n=a#4 v=66
284397 On ch=1 n=a#4 v=0
284397 On ch=1 n=g5 v=80
284637 On ch=1 n=g5 v=0
284637 On ch=1 n=d5 v=89
284877 On ch=1 n=d5 v=0
284877 On ch=1 n=f5 v=98
285117 On ch=1 n=f5 v=0
285117 On ch=1 n=d#5 v=121
285357 On ch=1 n=d#5 v=0
285357 On ch=1 n=g4 v=114
285597 On ch=1 n=g4 v=0
285597 On ch=1 n=a#4 v=107
285837 On ch=1 n=a#4 v=0
285837 On ch=1 n=d#5 v=100
286077 On ch=1 n=d#5 v=0
286077 On ch=1 n=g5 v=93
286317 On ch=1 n=g5 v=0
286317 On ch=1 n=g#5 v=87
286557 On ch=1 n=g#5 v=0
286557 On ch=1 n=a5 v=80
286797 On ch=1 n=a5 v=0
286797 On ch=1 n=c6 v=84
287037 On ch=1 n=c6 v=0
287037 On ch=1 n=a#5 v=95
287277 On ch=1 n=a#5 v=0
287277 On ch=1 n=g6 v=106
287517 On ch=1 n=g6 v=0
287517 On ch=1 n=d6 v=117
287757 On ch=1 n=d6 v=0
287757 On ch=1 n=f6 v=112
287997 On ch=1 n=f6 v=0
287997 On ch=1 n=d#6 v=98
288237 On ch=1 n=d#6 v=0
288237 On ch=1 n=g5 v=85
288477 On ch=1 n=g5 v=0
288477 On ch=1 n=a#5 v=72
288717 On ch=1 n=a#5 v=0
288717 On ch=1 n=d#6 v=74
288957 On ch=1 n=d#6 v=0
288957 On ch=1 n=g6 v=93
289197 On ch=1 n=g6 v=0
289197 On ch=1 n=g#6 v=113
289437 On ch=1 n=g#6 v=0
289437 On ch=1 n=a6 v=127
289677 On ch=1 n=a6 v=0
289677 On ch=1 n=c7 v=127
289917 On ch=1 n=c7 v=0
289917 On ch=1 n=a#6 v=127
290157 On ch=1 n=a#6 v=0
290157 On ch=1 n=a#6 v=127
290397 On ch=1 n=a#6 v=0
290397 On ch=1 n=c8 v=125
290637 On ch=1 n=c8 v=0
290637 On ch=1 n=a#7 v=112
290877 On ch=1 n=a#7 v=0
290877 On ch=1 n=g7 v=98
291117 On ch=1 n=g7 v=0
291117 On ch=1 n=d#7 v=85
291357 On ch=1 n=d#7 v=0
291357 On ch=1 n=c7 v=72
291597 On ch=1 n=c7 v=0
291597 On ch=1 n=a#6 v=93
291837 On ch=1 n=a#6 v=0
291837 On ch=1 n=g6 v=84
292077 On ch=1 n=g6 v=0
292077 On ch=1 n=d#6 v=75
292317 On ch=1 n=d#6 v=0
292317 On ch=1 n=c6 v=79
292557 On ch=1 n=c6 v=0
292557 On ch=1 n=a5 v=72
292797 On ch=1 n=a5 v=0
292797 On ch=1 n=c6 v=64
293037 On ch=1 n=c6 v=0
293037 On ch=1 n=a#5 v=109
293277 On ch=1 n=a#5 v=0
293277 On ch=1 n=c7 v=93
293517 On ch=1 n=c7 v=0
293517 On ch=1 n=a#6 v=79
293757 On ch=1 n=a#6 v=0
293757 On ch=1 n=g6 v=64
293997 On ch=1 n=g6 v=0
293997 On ch=1 n=d#6 v=66
294237 On ch=1 n=d#6 v=0
294237 On ch=1 n=c6 v=58
294477 On ch=1 n=c6 v=0
294477 On ch=1 n=a#5 v=80
294717 On ch=1 n=a#5 v=0
294717 On ch=1 n=g5 v=69
294957 On ch=1 n=g5 v=0
294957 On ch=1 n=d#5 v=59
295197 On ch=1 n=d#5 v=0
295197 On ch=1 n=c5 v=88
295437 On ch=1 n=c5 v=0
295437 On ch=1 n=a4 v=77
295677 On ch=1 n=a4 v=0
295677 On ch=1 n=c5 v=67
295917 On ch=1 n=c5 v=0
295917 On ch=1 n=a#4 v=88
296157 On ch=1 n=a#4 v=0
296157 On ch=1 n=c6 v=75
296397 On ch=1 n=c6 v=0
296397 On ch=1 n=a#5 v=62
296637 On ch=1 n=a#5 v=0
296637 On ch=1 n=g5 v=84
296877 On ch=1 n=g5 v=0
296877 On ch=1 n=d#5 v=73
297117 On ch=1 n=d#5 v=0
297117 On ch=1 n=c5 v=62
297357 On ch=1 n=c5 v=0
297357 On ch=1 n=a#4 v=70
297597 On ch=1 n=a#4 v=0
297597 On ch=1 n=g5 v=61
297837 On ch=1 n=g5 v=0
297837 On ch=1 n=d#5 v=52
297837 On ch=1 n=d#5 v=52
298077 On ch=1 n=d#5 v=0
298077 On ch=1 n=d#5 v=0
298077 On ch=1 n=c5 v=80
298317 On ch=1 n=c5 v=0
298317 On ch=1 n=a#4 v=72
298557 On ch=1 n=a#4 v=0
298557 On ch=1 n=g4 v=64
298797 On ch=1 n=g4 v=0
298797 On ch=1 n=g5 v=88
299037 On ch=1 n=g5 v=0
299037 On ch=1 n=d#5 v=74
299277 On ch=1 n=d#5 v=0
299277 On ch=1 n=c5 v=78
299517 On ch=1 n=c5 v=0
299517 On ch=1 n=a#4 v=97
299757 On ch=1 n=a#4 v=0
299757 On ch=1 n=g4 v=88
299997 On ch=1 n=g4 v=0
299997 On ch=1 n=d#5 v=79
300237 On ch=1 n=d#5 v=0
300237 On ch=1 n=c5 v=93
300477 On ch=1 n=c5 v=0
300477 On ch=1 n=a#4 v=86
300717 On ch=1 n=a#4 v=0
300717 On ch=1 n=g4 v=79
300957 On ch=1 n=g4 v=0
300957 On ch=1 n=d#4 v=73
301197 On ch=1 n=d#4 v=0
301197 On ch=1 n=d4 v=127
301437 On ch=1 n=d4 v=0
301437 On ch=1 n=f4 v=85
301677 On ch=1 n=f4 v=0
301677 On ch=1 n=d#4 v=93
301917 On ch=1 n=d#4 v=0
301917 On ch=1 n=c#4 v=102
302157 On ch=1 n=c#4 v=0
302157 On ch=1 n=f4 v=100
302397 On ch=1 n=f4 v=0
302397 On ch=1 n=d#4 v=100
302637 On ch=1 n=d#4 v=0
302637 On ch=1 n=c4 v=127
302877 On ch=1 n=c4 v=0
302877 On ch=1 n=f4 v=83
303117 On ch=1 n=f4 v=0
303117 On ch=1 n=d#4 v=90
303357 On ch=1 n=d#4 v=0
303357 On ch=1 n=b3 v=98
303597 On ch=1 n=b3 v=0
303597 On ch=1 n=f4 v=127
303837 On ch=1 n=f4 v=0
303837 On ch=1 n=d#4 v=100
304077 On ch=1 n=d#4 v=0
304077 On ch=1 n=a#3 v=127
304317 On ch=1 n=a#3 v=0
304317 On ch=1 n=f4 v=87
304557 On ch=1 n=f4 v=0
304557 On ch=1 n=d#4 v=95
304797 On ch=1 n=d#4 v=0
304797 On ch=1 n=a3 v=103
304797 On ch=1 n=a3 v=103
304797 On ch=1 n=a3 v=103
305037 On ch=1 n=a3 v=0
305037 On ch=1 n=a3 v=0
305037 On ch=1 n=a3 v=0
305037 On ch=1 n=f4 v=127
305277 On ch=1 n=f4 v=0
305277 On ch=1 n=d#4 v=100
305517 On ch=1 n=d#4 v=0
305517 On ch=1 n=c4 v=127
305757 On ch=1 n=c4 v=0
305757 On ch=1 n=f4 v=88
305997 On ch=1 n=f4 v=0
305997 On ch=1 n=d#4 v=93
306237 On ch=1 n=d#4 v=0
306237 On ch=1 n=a#3 v=98
306477 On ch=1 n=a#3 v=0
306477 On ch=1 n=g4 v=127
306717 On ch=1 n=g4 v=0
306717 Par ch=1 c=64 v=127
306717 On ch=1 n=d#3 v=127
306717 On ch=1 n=d#3 v=127
306717 On ch=1 n=d#3 v=127
306957 On ch=1 n=d#3 v=0
306957 On ch=1 n=d#3 v=0
306957 On ch=1 n=d#3 v=0
308157 On ch=1 n=d#7 v=118
308157 On ch=1 n=d#6 v=118
308397 On ch=1 n=d#6 v=0
308397 On ch=1 n=d#7 v=0
309117 On ch=1 n=d#5 v=127
309357 On ch=1 n=d#5 v=0
309357 On ch=1 n=d#5 v=127
309597 On ch=1 n=d#5 v=0
309597 On ch=1 n=d#5 v=127
313959 On ch=1 n=d#5 v=0
313959 Meta TrkEnd
TrkEnd
MTrk
0 SeqSpec 43 00 01 00
0 Meta 0x21 00
0 Meta 0x20 00
0 Par ch=1 c=7 v=127
0 Par ch=1 c=10 v=64
2400 On ch=1 n=g#4 v=113
2400 On ch=1 n=a#3 v=113
2640 On ch=1 n=a#3 v=0
2640 On ch=1 n=g#4 v=0
2880 Par ch=1 c=64 v=127
2880 On ch=1 n=g4 v=123
3152 On ch=1 n=g4 v=0
3360 On ch=1 n=d#3 v=106
3600 On ch=1 n=d#3 v=0
3840 Par ch=1 c=64 v=0
5040 On ch=1 n=g#5 v=100
5280 On ch=1 n=g#5 v=0
5280 On ch=1 n=a#4 v=100
5520 On ch=1 n=a#4 v=0
5760 Par ch=1 c=64 v=127
5760 On ch=1 n=g5 v=127
6000 On ch=1 n=g5 v=0
6240 On ch=1 n=d#4 v=108
6480 On ch=1 n=d#4 v=0
6480 Par ch=1 c=64 v=0
8160 On ch=1 n=a#5 v=108
8160 Par ch=1 c=64 v=127
8160 On ch=1 n=g6 v=108
8400 On ch=1 n=g6 v=0
8400 On ch=1 n=a#5 v=0
8640 On ch=1 n=d#6 v=127
8640 On ch=1 n=g5 v=127
8880 On ch=1 n=g5 v=0
8880 On ch=1 n=d#6 v=0
10080 On ch=1 n=c4 v=100
10320 On ch=1 n=c4 v=0
11520 Par ch=1 c=64 v=0
11520 On ch=1 n=f3 v=127
11760 On ch=1 n=f3 v=0
12480 On ch=1 n=g3 v=127
12720 On ch=1 n=g3 v=0
13920 On ch=1 n=a#3 v=113
13920 On ch=1 n=g#4 v=113
14160 On ch=1 n=g#4 v=0
14160 On ch=1 n=a#3 v=0
14400 On ch=1 n=g4 v=123
14400 Par ch=1 c=64 v=127
14640 On ch=1 n=g4 v=0
14880 On ch=1 n=d#3 v=106
15120 On ch=1 n=d#3 v=0
15360 Par ch=1 c=64 v=0
16800 On ch=1 n=g#5 v=100
16800 On ch=1 n=a#4 v=100
17040 On ch=1 n=a#4 v=0
17040 On ch=1 n=g#5 v=0
17227 Par ch=1 c=64 v=127
17280 On ch=1 n=g5 v=127
17520 On ch=1 n=g5 v=0
17760 On ch=1 n=d#4 v=108
18000 On ch=1 n=d#4 v=0
18240 Par ch=1 c=64 v=0
19680 Par ch=1 c=64 v=127
19680 On ch=1 n=a#5 v=108
19680 On ch=1 n=g6 v=108
19920 On ch=1 n=g6 v=0
19920 On ch=1 n=a#5 v=0
20160 On ch=1 n=d#6 v=127
20160 On ch=1 n=g5 v=127
20400 On ch=1 n=g5 v=0
20400 On ch=1 n=d#6 v=0
22560 On ch=1 n=g#4 v=87
22560 On ch=1 n=a#3 v=87
22560 Par ch=1 c=64 v=0
22800 On ch=1 n=a#3 v=0
22800 On ch=1 n=g#4 v=0
23040 On ch=1 n=d#4 v=123
23280 On ch=1 n=d#4 v=0
23520 On ch=1 n=g4 v=87
23760 On ch=1 n=g4 v=0
25440 On ch=1 n=c5 v=95
25440 On ch=1 n=d4 v=95
25680 On ch=1 n=d4 v=0
25680 On ch=1 n=c5 v=0
25920 Par ch=1 c=64 v=127
25920 On ch=1 n=a#4 v=118
26160 On ch=1 n=a#4 v=0
26400 On ch=1 n=g3 v=118
26640 On ch=1 n=g3 v=0
26640 Par ch=1 c=64 v=0
28320 On ch=1 n=d5 v=88
28320 On ch=1 n=c6 v=88
28560 On ch=1 n=c6 v=0
28560 On ch=1 n=d5 v=0
28753 Par ch=1 c=64 v=127
28800 On ch=1 n=a#5 v=100
29040 On ch=1 n=a#5 v=0
29280 On ch=1 n=g4 v=112
29520 On ch=1 n=g4 v=0
29520 Par ch=1 c=64 v=0
30960 Par ch=1 c=64 v=0
31200 On ch=1 n=d6 v=100
31200 Par ch=1 c=64 v=127
31200 On ch=1 n=a#6 v=100
31440 On ch=1 n=a#6 v=0
31440 On ch=1 n=d6 v=0
31680 On ch=1 n=g6 v=100
31680 On ch=1 n=a#5 v=100
31920 On ch=1 n=a#5 v=0
31920 On ch=1 n=g6 v=0
32880 Par ch=1 c=64 v=0
34080 On ch=1 n=c4 v=100
34080 On ch=1 n=a#4 v=100
34320 On ch=1 n=a#4 v=0
34320 On ch=1 n=c4 v=0
34560 On ch=1 n=g#4 v=111
34560 Par ch=1 c=64 v=127
34800 On ch=1 n=g#4 v=0
35040 On ch=1 n=f3 v=115
35280 On ch=1 n=f3 v=0
35280 Par ch=1 c=64 v=0
36960 On ch=1 n=c4 v=101
36960 On ch=1 n=a#4 v=101
37200 On ch=1 n=a#4 v=0
37200 On ch=1 n=c4 v=0
37440 Par ch=1 c=64 v=127
37440 On ch=1 n=g#4 v=107
37680 On ch=1 n=g#4 v=0
37920 On ch=1 n=f3 v=113
38160 On ch=1 n=f3 v=0
38160 Par ch=1 c=64 v=0
39840 On ch=1 n=c5 v=98
39840 On ch=1 n=a#5 v=98
40080 On ch=1 n=a#5 v=0
40080 On ch=1 n=c5 v=0
40286 Par ch=1 c=64 v=127
40320 On ch=1 n=g#5 v=107
40560 On ch=1 n=g#5 v=0
40800 On ch=1 n=f4 v=121
41040 On ch=1 n=f4 v=0
41040 Par ch=1 c=64 v=0
43200 Par ch=1 c=64 v=127
43200 On ch=1 n=c6 v=100
43200 On ch=1 n=d6 v=100
43200 On ch=1 n=g#6 v=100
43440 On ch=1 n=g#6 v=0
43440 On ch=1 n=d6 v=0
43440 On ch=1 n=c6 v=0
46066 Par ch=1 c=64 v=0
46080 On ch=1 n=g3 v=100
46080 On ch=1 n=d4 v=100
46320 On ch=1 n=d4 v=0
46320 On ch=1 n=g3 v=0
48480 On ch=1 n=a#3 v=113
48480 On ch=1 n=g#4 v=113
48720 On ch=1 n=g#4 v=0
48720 On ch=1 n=a#3 v=0
48926 Par ch=1 c=64 v=127
48960 On ch=1 n=g4 v=123
49200 On ch=1 n=g4 v=0
49440 On ch=1 n=d#3 v=115
49680 On ch=1 n=d#3 v=0
49680 Par ch=1 c=64 v=0
51360 On ch=1 n=g#5 v=100
51360 On ch=1 n=a#4 v=100
51600 On ch=1 n=a#4 v=0
51600 On ch=1 n=g#5 v=0
51840 Par ch=1 c=64 v=127
51840 On ch=1 n=g5 v=122
52080 On ch=1 n=g5 v=0
52320 On ch=1 n=d#4 v=119
52320 Par ch=1 c=64 v=0
52560 On ch=1 n=d#4 v=0
54240 Par ch=1 c=64 v=127
54240 On ch=1 n=a#5 v=108
54240 On ch=1 n=g6 v=108
54480 On ch=1 n=g6 v=0
54480 On ch=1 n=a#5 v=0
54720 On ch=1 n=d#6 v=127
54720 On ch=1 n=g5 v=127
54960 On ch=1 n=g5 v=0
54960 On ch=1 n=d#6 v=0
55680 Par ch=1 c=64 v=0
56160 On ch=1 n=c4 v=111
56400 On ch=1 n=c4 v=0
57600 On ch=1 n=f3 v=100
57840 On ch=1 n=f3 v=0
58560 On ch=1 n=g3 v=123
58800 On ch=1 n=g3 v=0
60000 On ch=1 n=a#3 v=100
60000 On ch=1 n=g#4 v=100
60240 On ch=1 n=g#4 v=0
60240 On ch=1 n=a#3 v=0
60480 Par ch=1 c=64 v=127
60480 On ch=1 n=g4 v=100
60720 On ch=1 n=g4 v=0
60960 On ch=1 n=d#3 v=124
60960 Par ch=1 c=64 v=0
61200 On ch=1 n=d#3 v=0
62880 On ch=1 n=a#4 v=95
62880 On ch=1 n=g#5 v=95
63120 On ch=1 n=g#5 v=0
63120 On ch=1 n=a#4 v=0
63360 Par ch=1 c=64 v=127
63360 On ch=1 n=g5 v=106
63600 On ch=1 n=g5 v=0
63840 On ch=1 n=d#4 v=116
64080 On ch=1 n=d#4 v=0
64298 Par ch=1 c=64 v=0
65760 On ch=1 n=a#5 v=87
65760 On ch=1 n=g6 v=87
65760 Par ch=1 c=64 v=127
66000 On ch=1 n=g6 v=0
66000 On ch=1 n=a#5 v=0
66240 On ch=1 n=d#6 v=65
66240 On ch=1 n=g5 v=65
66480 On ch=1 n=g5 v=0
66480 On ch=1 n=d#6 v=0
68160 Par ch=1 c=64 v=0
68640 On ch=1 n=a#4 v=69
68640 On ch=1 n=g5 v=69
68640 Par ch=1 c=64 v=127
68880 On ch=1 n=g5 v=0
68880 On ch=1 n=a#4 v=0
69120 On ch=1 n=d#5 v=50
69120 On ch=1 n=g4 v=50
69360 On ch=1 n=g4 v=0
69360 On ch=1 n=d#5 v=0
70800 Par ch=1 c=64 v=0
71520 On ch=1 n=c5 v=84
71760 On ch=1 n=c5 v=0
71760 On ch=1 n=a#4 v=65
72000 On ch=1 n=a#4 v=0
72000 Par ch=1 c=64 v=127
72000 On ch=1 n=g4 v=97
72240 On ch=1 n=g4 v=0
72240 On ch=1 n=d#4 v=83
72480 On ch=1 n=d#4 v=0
72480 On ch=1 n=c4 v=92
72720 On ch=1 n=c4 v=0
72720 Par ch=1 c=64 v=0
72720 On ch=1 n=a#3 v=84
72960 On ch=1 n=a#3 v=0
72960 Par ch=1 c=64 v=127
72960 On ch=1 n=g4 v=75
73200 On ch=1 n=g4 v=0
73200 Par ch=1 c=64 v=0
73200 On ch=1 n=d#4 v=90
73440 On ch=1 n=d#4 v=0
73440 On ch=1 n=c4 v=79
73680 On ch=1 n=c4 v=0
73680 On ch=1 n=a#3 v=67
73920 On ch=1 n=a#3 v=0
73920 On ch=1 n=g3 v=87
74160 On ch=1 n=g3 v=0
74160 On ch=1 n=g4 v=78
74400 On ch=1 n=g4 v=0
74400 On ch=1 n=d#4 v=69
74640 On ch=1 n=d#4 v=0
74640 On ch=1 n=c4 v=88
74880 On ch=1 n=c4 v=0
74880 On ch=1 n=a#3 v=77
75120 On ch=1 n=a#3 v=0
75120 On ch=1 n=g3 v=82
75360 On ch=1 n=g3 v=0
75360 On ch=1 n=d#4 v=73
75600 On ch=1 n=d#4 v=0
75600 On ch=1 n=c4 v=64
75840 On ch=1 n=c4 v=0
75840 On ch=1 n=a#3 v=54
76080 On ch=1 n=a#3 v=0
76080 On ch=1 n=g3 v=87
76320 On ch=1 n=g3 v=0
76320 Par ch=1 c=64 v=0
76320 On ch=1 n=d#3 v=73
76560 On ch=1 n=d#3 v=0
76560 On ch=1 n=d3 v=127
76560 On ch=1 n=d3 v=127
76800 On ch=1 n=d3 v=0
76800 On ch=1 n=d3 v=0
76800 On ch=1 n=f3 v=98
77040 On ch=1 n=f3 v=0
77040 On ch=1 n=d#3 v=103
77280 On ch=1 n=d#3 v=0
77280 On ch=1 n=c#3 v=109
77280 On ch=1 n=c#3 v=109
77520 On ch=1 n=c#3 v=0
77520 On ch=1 n=c#3 v=0
77520 On ch=1 n=f3 v=100
77520 On ch=1 n=f3 v=127
77760 On ch=1 n=f3 v=0
77760 On ch=1 n=f3 v=0
77760 On ch=1 n=d#3 v=100
78000 On ch=1 n=d#3 v=0
78000 On ch=1 n=c3 v=127
78000 On ch=1 n=c3 v=127
78000 On ch=1 n=c3 v=127
78240 On ch=1 n=c3 v=0
78240 On ch=1 n=c3 v=0
78240 On ch=1 n=c3 v=0
78240 On ch=1 n=f3 v=91
78480 On ch=1 n=f3 v=0
78480 On ch=1 n=d#3 v=98
78720 On ch=1 n=d#3 v=0
78720 On ch=1 n=b2 v=106
78720 On ch=1 n=b2 v=106
78720 On ch=1 n=b2 v=106
78960 On ch=1 n=b2 v=0
78960 On ch=1 n=b2 v=0
78960 On ch=1 n=b2 v=0
78960 On ch=1 n=f3 v=127
79200 On ch=1 n=f3 v=0
79200 On ch=1 n=d#3 v=100
79440 On ch=1 n=d#3 v=0
79440 On ch=1 n=a#2 v=127
79440 On ch=1 n=a#2 v=127
79440 On ch=1 n=a#2 v=127
79680 On ch=1 n=a#2 v=0
79680 On ch=1 n=a#2 v=0
79680 On ch=1 n=a#2 v=0
79680 On ch=1 n=f3 v=91
79920 On ch=1 n=f3 v=0
79920 On ch=1 n=d#3 v=99
80160 On ch=1 n=d#3 v=0
80160 On ch=1 n=a2 v=107
80160 On ch=1 n=a2 v=107
80160 On ch=1 n=a2 v=107
80400 On ch=1 n=a2 v=0
80400 On ch=1 n=a2 v=0
80400 On ch=1 n=a2 v=0
80400 On ch=1 n=f3 v=127
80640 On ch=1 n=f3 v=0
80640 On ch=1 n=d#3 v=100
80880 On ch=1 n=d#3 v=0
80880 On ch=1 n=c3 v=127
80880 On ch=1 n=c3 v=127
80880 On ch=1 n=c3 v=127
81120 On ch=1 n=c3 v=0
81120 On ch=1 n=c3 v=0
81120 On ch=1 n=c3 v=0
81120 On ch=1 n=f3 v=93
81360 On ch=1 n=f3 v=0
81360 On ch=1 n=d#3 v=96
81600 On ch=1 n=d#3 v=0
81600 On ch=1 n=a#2 v=100
81600 On ch=1 n=a#2 v=100
81600 On ch=1 n=a#2 v=100
81600 On ch=1 n=a#2 v=100
81840 On ch=1 n=a#2 v=0
81840 On ch=1 n=a#2 v=0
81840 On ch=1 n=a#2 v=0
81840 On ch=1 n=a#2 v=0
81840 On ch=1 n=g3 v=127
82080 On ch=1 n=g3 v=0
82080 Par ch=1 c=64 v=127
82080 On ch=1 n=d#2 v=126
82080 On ch=1 n=d#2 v=126
82080 On ch=1 n=d#2 v=126
82080 On ch=1 n=d#2 v=126
82320 On ch=1 n=d#2 v=0
82320 On ch=1 n=d#2 v=0
82320 On ch=1 n=d#2 v=0
82320 On ch=1 n=d#2 v=0
83520 On ch=1 n=a#5 v=127
83520 On ch=1 n=g5 v=127
83520 On ch=1 n=a#4 v=127
83520 On ch=1 n=g4 v=127
83760 On ch=1 n=g4 v=0
83760 On ch=1 n=a#4 v=0
83760 On ch=1 n=g5 v=0
83760 On ch=1 n=a#5 v=0
84480 On ch=1 n=d#4 v=127
84480 On ch=1 n=d#4 v=127
84480 On ch=1 n=d#3 v=127
84480 On ch=1 n=d#3 v=127
84720 On ch=1 n=d#3 v=0
84720 On ch=1 n=d#3 v=0
84720 On ch=1 n=d#4 v=0
84720 On ch=1 n=d#4 v=0
84720 On ch=1 n=d#3 v=127
84720 On ch=1 n=d#4 v=127
84960 On ch=1 n=d#4 v=0
84960 On ch=1 n=d#3 v=0
84960 On ch=1 n=d#2 v=127
84960 On ch=1 n=d#3 v=127
87840 On ch=1 n=b3 v=87
87840 On ch=1 n=f#4 v=87
87840 On ch=1 n=b2 v=87
87840 Par ch=1 c=64 v=0
87903 On ch=1 n=d#3 v=0
87903 On ch=1 n=d#2 v=0
88800 On ch=1 n=b4 v=67
89252 On ch=1 n=f#4 v=0
89280 On ch=1 n=f#4 v=73
89307 On ch=1 n=b2 v=0
89760 On ch=1 n=a#4 v=77
89796 On ch=1 n=b4 v=0
90240 On ch=1 n=g#4 v=68
90276 On ch=1 n=a#4 v=0
90720 On ch=1 n=a#4 v=73
90756 On ch=1 n=g#4 v=0
91652 On ch=1 n=a#4 v=0
91680 On ch=1 n=a#4 v=79
92640 On ch=1 n=b4 v=69
92676 On ch=1 n=a#4 v=0
93129 On ch=1 n=c#5 v=79
93165 On ch=1 n=b4 v=0
93572 On ch=1 n=b3 v=0
93581 On ch=1 n=f#4 v=0
93600 On ch=1 n=b3 v=89
93600 On ch=1 n=f#4 v=89
94532 On ch=1 n=c#5 v=0
94569 On ch=1 n=c#5 v=80
95520 On ch=1 n=b4 v=88
95583 On ch=1 n=c#5 v=0
96009 On ch=1 n=a#4 v=83
96443 On ch=1 n=f#4 v=0
96960 On ch=1 n=g#4 v=74
96987 On ch=1 n=a#4 v=0
97412 On ch=1 n=b3 v=0
97440 On ch=1 n=b3 v=85
98409 On ch=1 n=a#3 v=93
98445 On ch=1 n=b3 v=0
98880 On ch=1 n=g#3 v=86
98952 On ch=1 n=a#3 v=0
99341 On ch=1 n=g#3 v=0
99360 On ch=1 n=g#3 v=102
99840 On ch=1 n=c#3 v=95
99885 On ch=1 n=g#3 v=0
100193 On ch=1 n=g#4 v=0
100320 On ch=1 n=g#4 v=82
101289 On ch=1 n=f#4 v=81
101307 On ch=1 n=g#4 v=0
101769 On ch=1 n=e4 v=70
101796 On ch=1 n=f#4 v=0
102240 On ch=1 n=g#3 v=85
102276 On ch=1 n=b4 v=0
102303 On ch=1 n=c#3 v=0
102720 On ch=1 n=c#3 v=98
102729 On ch=1 n=g#3 v=0
103181 On ch=1 n=e4 v=0
103209 On ch=1 n=e4 v=93
104160 On ch=1 n=d#4 v=92
104205 On ch=1 n=e4 v=0
104640 On ch=1 n=c#4 v=86
104676 On ch=1 n=d#4 v=0
105120 On ch=1 n=e4 v=80
105120 On ch=1 n=a#4 v=80
105129 On ch=1 n=f#3 v=80
105147 On ch=1 n=c#4 v=0
105165 On ch=1 n=c#3 v=0
106043 On ch=1 n=a#4 v=0
106080 On ch=1 n=a#4 v=88
107040 On ch=1 n=b4 v=84
107076 On ch=1 n=a#4 v=0
107520 On ch=1 n=g#4 v=73
107565 On ch=1 n=b4 v=0
107981 On ch=1 n=g#4 v=0
108000 On ch=1 n=g#4 v=61
108932 On ch=1 n=g#4 v=0
108960 On ch=1 n=g#4 v=59
109920 On ch=1 n=a#4 v=74
109983 On ch=1 n=g#4 v=0
110400 On ch=1 n=f#4 v=68
110427 On ch=1 n=a#4 v=0
110861 On ch=1 n=f#4 v=0
110880 On ch=1 n=d#4 v=62
110880 On ch=1 n=f#4 v=62
110880 On ch=1 n=b2 v=62
110925 On ch=1 n=f#3 v=0
110952 On ch=1 n=e4 v=0
111803 On ch=1 n=d#4 v=0
111821 On ch=1 n=f#4 v=0
111840 On ch=1 n=c#5 v=71
111840 On ch=1 n=a4 v=71
112292 On ch=1 n=c#5 v=0
112301 On ch=1 n=a4 v=0
112320 On ch=1 n=a4 v=79
112329 On ch=1 n=c#5 v=79
112800 On ch=1 n=g#4 v=76
112800 On ch=1 n=b4 v=76
112827 On ch=1 n=c#5 v=0
112836 On ch=1 n=a4 v=0
113280 On ch=1 n=a4 v=70
113280 On ch=1 n=f#4 v=70
113316 On ch=1 n=b4 v=0
113316 On ch=1 n=g#4 v=0
113732 On ch=1 n=f#4 v=0
113732 On ch=1 n=a4 v=0
113760 On ch=1 n=f#4 v=64
113769 On ch=1 n=a4 v=64
114720 On ch=1 n=g#4 v=50
114720 On ch=1 n=e4 v=50
114738 On ch=1 n=a4 v=0
114747 On ch=1 n=f#4 v=0
115181 On ch=1 n=e4 v=0
115181 On ch=1 n=g#4 v=0
115200 On ch=1 n=g#4 v=49
115200 On ch=1 n=e4 v=49
116187 On ch=1 n=g#4 v=0
116196 On ch=1 n=e4 v=0
116594 On ch=1 n=b2 v=0
116640 On ch=1 n=b2 v=102
116640 On ch=1 n=b3 v=102
117600 On ch=1 n=a4 v=71
117600 On ch=1 n=c#5 v=71
118052 On ch=1 n=c#5 v=0
118061 On ch=1 n=a4 v=0
118080 On ch=1 n=a4 v=79
118089 On ch=1 n=c#5 v=79
118560 On ch=1 n=g#4 v=72
118560 On ch=1 n=b4 v=72
118587 On ch=1 n=c#5 v=0
118596 On ch=1 n=a4 v=0
119040 On ch=1 n=f#4 v=64
119040 On ch=1 n=a4 v=64
119076 On ch=1 n=b4 v=0
119076 On ch=1 n=g#4 v=0
119492 On ch=1 n=a4 v=0
119492 On ch=1 n=f#4 v=0
119520 On ch=1 n=f#4 v=54
119520 On ch=1 n=a4 v=54
120480 On ch=1 n=e4 v=46
120480 On ch=1 n=g#4 v=46
120489 On ch=1 n=a4 v=0
120507 On ch=1 n=f#4 v=0
120941 On ch=1 n=g#4 v=0
120941 On ch=1 n=e4 v=0
120960 On ch=1 n=g#4 v=45
120960 On ch=1 n=e4 v=45
121947 On ch=1 n=g#4 v=0
121956 On ch=1 n=e4 v=0
122372 On ch=1 n=b2 v=0
122381 On ch=1 n=b3 v=0
122400 On ch=1 n=b3 v=61
122400 On ch=1 n=b2 v=61
123360 On ch=1 n=b4 v=63
123360 On ch=1 n=g#4 v=63
123812 On ch=1 n=g#4 v=0
123812 On ch=1 n=b4 v=0
123840 On ch=1 n=b4 v=78
123840 On ch=1 n=g#4 v=78
124320 On ch=1 n=f#4 v=84
124320 On ch=1 n=a#4 v=84
124338 On ch=1 n=b4 v=0
124356 On ch=1 n=g#4 v=0
124800 On ch=1 n=g#4 v=78
124800 On ch=1 n=e4 v=78
124818 On ch=1 n=a#4 v=0
124827 On ch=1 n=f#4 v=0
125252 On ch=1 n=g#4 v=0
125261 On ch=1 n=e4 v=0
125280 On ch=1 n=e4 v=71
125280 On ch=1 n=g#4 v=71
126240 On ch=1 n=f#4 v=61
126240 On ch=1 n=d#4 v=61
126276 On ch=1 n=e4 v=0
126285 On ch=1 n=g#4 v=0
126701 On ch=1 n=d#4 v=0
126701 On ch=1 n=f#4 v=0
126720 On ch=1 n=d#4 v=56
126720 On ch=1 n=f#4 v=56
127680 On ch=1 n=c#3 v=63
127689 On ch=1 n=c#4 v=63
127716 On ch=1 n=f#4 v=0
127716 On ch=1 n=d#4 v=0
127725 On ch=1 n=b2 v=0
127725 On ch=1 n=b3 v=0
128141 On ch=1 n=c#4 v=0
128141 On ch=1 n=c#3 v=0
128160 On ch=1 n=c#3 v=62
128160 On ch=1 n=c#4 v=62
129120 On ch=1 n=c#4 v=0
129120 On ch=1 n=d#3 v=68
129129 On ch=1 n=d#4 v=68
129147 On ch=1 n=c#3 v=0
129581 On ch=1 n=d#4 v=0
129581 On ch=1 n=d#3 v=0
129600 On ch=1 n=d#3 v=68
129600 On ch=1 n=d#4 v=68
130560 On ch=1 n=b2 v=69
130560 On ch=1 n=b3 v=69
130578 On ch=1 n=d#3 v=0
130596 On ch=1 n=d#4 v=0
131012 On ch=1 n=b3 v=0
131012 On ch=1 n=b2 v=0
131040 On ch=1 n=b2 v=69
131040 On ch=1 n=b3 v=69
131945 On ch=1 n=b3 v=0
132000 On ch=1 n=f#2 v=84
132018 On ch=1 n=f#3 v=84
132045 On ch=1 n=b2 v=0
132443 On ch=1 n=f#2 v=0
132452 On ch=1 n=f#3 v=0
132480 On ch=1 n=f#3 v=88
132480 On ch=1 n=f#2 v=88
133440 On ch=1 n=g2 v=90
133449 On ch=1 n=g3 v=90
133476 On ch=1 n=f#3 v=0
133485 On ch=1 n=f#2 v=0
133920 On ch=1 n=a#2 v=110
133929 On ch=1 n=g3 v=0
133929 On ch=1 n=g2 v=0
133938 On ch=1 n=a#3 v=110
134880 On ch=1 n=g#2 v=95
134880 On ch=1 n=g#3 v=95
134889 On ch=1 n=a#3 v=0
134907 On ch=1 n=a#2 v=0
135840 On ch=1 n=f#2 v=98
135840 On ch=1 n=f#3 v=98
135867 On ch=1 n=g#3 v=0
135903 On ch=1 n=g#2 v=0
136320 On ch=1 n=d#3 v=112
136320 On ch=1 n=d#2 v=112
136338 On ch=1 n=f#3 v=0
136356 On ch=1 n=f#2 v=0
136800 On ch=1 n=d2 v=125
136845 On ch=1 n=d#3 v=0
136854 On ch=1 n=d#2 v=0
138240 On ch=1 n=c#2 v=118
138249 On ch=1 n=c#3 v=123
138303 On ch=1 n=d2 v=0
139680 On ch=1 n=c#4 v=124
139698 On ch=1 n=c#2 v=0
142541 On ch=1 n=c#4 v=0
142541 On ch=1 n=c#3 v=0
142560 On ch=1 n=c#4 v=100
142560 On ch=1 n=f#3 v=100
143954 On ch=1 n=f#3 v=0
143981 On ch=1 n=c#4 v=0
144000 On ch=1 n=a3 v=89
144000 On ch=1 n=a2 v=89
144480 On ch=1 n=b2 v=100
144489 On ch=1 n=b3 v=101
144516 On ch=1 n=a2 v=0
144525 On ch=1 n=a3 v=0
144960 On ch=1 n=d3 v=110
144960 On ch=1 n=d4 v=110
144996 On ch=1 n=b3 v=0
145005 On ch=1 n=b2 v=0
145440 On ch=1 n=c#3 v=97
145449 On ch=1 n=c#4 v=97
145485 On ch=1 n=d4 v=0
145503 On ch=1 n=d3 v=0
146400 On ch=1 n=b3 v=127
146409 On ch=1 n=b2 v=127
146436 On ch=1 n=c#4 v=0
146436 On ch=1 n=c#3 v=0
147360 On ch=1 n=a3 v=95
147360 On ch=1 n=a2 v=95
147396 On ch=1 n=b2 v=0
147396 On ch=1 n=b3 v=0
147840 On ch=1 n=f#3 v=108
147840 On ch=1 n=f#2 v=108
147876 On ch=1 n=a2 v=0
147894 On ch=1 n=a3 v=0
148320 On ch=1 n=g#4 v=122
148320 On ch=1 n=f2 v=122
148329 On ch=1 n=f3 v=123
148338 On ch=1 n=f#2 v=0
148347 On ch=1 n=f#3 v=0
149280 On ch=1 n=c4 v=115
149741 On ch=1 n=c4 v=0
149760 On ch=1 n=c4 v=74
149796 On ch=1 n=f2 v=0
150240 On ch=1 n=c#4 v=81
150285 On ch=1 n=c4 v=0
150720 On ch=1 n=f4 v=88
150747 On ch=1 n=c#4 v=0
151200 On ch=1 n=f3 v=87
151200 On ch=1 n=c4 v=87
151227 On ch=1 n=f4 v=0
151236 On ch=1 n=f3 v=0
152160 On ch=1 n=b3 v=72
152205 On ch=1 n=c4 v=0
152621 On ch=1 n=b3 v=0
152640 On ch=1 n=b3 v=74
153600 On ch=1 n=c4 v=80
153627 On ch=1 n=b3 v=0
154061 On ch=1 n=f3 v=0
154080 On ch=1 n=b3 v=79
154080 On ch=1 n=f3 v=79
154089 On ch=1 n=c4 v=0
155021 On ch=1 n=f3 v=0
155040 On ch=1 n=f3 v=98
155483 On ch=1 n=f3 v=0
155492 On ch=1 n=g#4 v=0
155520 On ch=1 n=g#4 v=98
155520 On ch=1 n=f3 v=98
156480 On ch=1 n=e3 v=103
156507 On ch=1 n=f3 v=0
156923 On ch=1 n=e3 v=0
156960 On ch=1 n=e4 v=107
156960 On ch=1 n=e3 v=107
157059 On ch=1 n=b3 v=0
157920 On ch=1 n=d5 v=78
157920 On ch=1 n=f#5 v=78
158381 On ch=1 n=f#5 v=0
158381 On ch=1 n=d5 v=0
158400 On ch=1 n=d5 v=94
158400 On ch=1 n=f#5 v=94
158472 On ch=1 n=g#4 v=0
158880 On ch=1 n=e5 v=90
158880 On ch=1 n=c#5 v=90
158907 On ch=1 n=d5 v=0
158916 On ch=1 n=f#5 v=0
159360 On ch=1 n=b4 v=88
159369 On ch=1 n=d5 v=88
159387 On ch=1 n=c#5 v=0
159387 On ch=1 n=e5 v=0
159821 On ch=1 n=d5 v=0
159821 On ch=1 n=b4 v=0
159840 On ch=1 n=b4 v=84
159840 On ch=1 n=d5 v=84
160800 On ch=1 n=a4 v=84
160800 On ch=1 n=c#5 v=84
160827 On ch=1 n=d5 v=0
160827 On ch=1 n=b4 v=0
161261 On ch=1 n=c#5 v=0
161261 On ch=1 n=a4 v=0
161280 On ch=1 n=c#5 v=79
161280 On ch=1 n=a4 v=79
162258 On ch=1 n=a4 v=0
162258 On ch=1 n=c#5 v=0
163680 On ch=1 n=f#5 v=79
163680 On ch=1 n=d5 v=79
164132 On ch=1 n=d5 v=0
164141 On ch=1 n=f#5 v=0
164160 On ch=1 n=f#5 v=84
164160 On ch=1 n=d5 v=84
164640 On ch=1 n=c#5 v=79
164640 On ch=1 n=e5 v=79
164676 On ch=1 n=d5 v=0
164685 On ch=1 n=f#5 v=0
165120 On ch=1 n=d5 v=75
165120 On ch=1 n=b4 v=75
165147 On ch=1 n=e5 v=0
165156 On ch=1 n=c#5 v=0
165581 On ch=1 n=b4 v=0
165581 On ch=1 n=d5 v=0
165600 On ch=1 n=d5 v=71
165609 On ch=1 n=b4 v=71
166560 On ch=1 n=a4 v=70
166560 On ch=1 n=c#5 v=70
166614 On ch=1 n=b4 v=0
166614 On ch=1 n=d5 v=0
167021 On ch=1 n=c#5 v=0
167021 On ch=1 n=a4 v=0
167040 On ch=1 n=c#5 v=82
167040 On ch=1 n=a4 v=82
168458 On ch=1 n=e3 v=0
168458 On ch=1 n=e4 v=0
168477 On ch=1 n=e3 v=84
168477 On ch=1 n=e4 v=84
169437 On ch=1 n=b4 v=78
169437 On ch=1 n=d5 v=78
169898 On ch=1 n=d5 v=0
169898 On ch=1 n=b4 v=0
169917 On ch=1 n=d5 v=80
169917 On ch=1 n=b4 v=80
169953 On ch=1 n=c#5 v=0
169989 On ch=1 n=a4 v=0
170397 On ch=1 n=a4 v=76
170397 On ch=1 n=c#5 v=76
170424 On ch=1 n=b4 v=0
170424 On ch=1 n=d5 v=0
170877 On ch=1 n=c#5 v=0
170877 On ch=1 n=g#4 v=74
170886 On ch=1 n=b4 v=74
170904 On ch=1 n=a4 v=0
171329 On ch=1 n=b4 v=0
171338 On ch=1 n=g#4 v=0
171357 On ch=1 n=b4 v=70
171357 On ch=1 n=g#4 v=70
172317 On ch=1 n=c#5 v=69
172317 On ch=1 n=a4 v=69
172353 On ch=1 n=g#4 v=0
172353 On ch=1 n=b4 v=0
172769 On ch=1 n=a4 v=0
172778 On ch=1 n=c#5 v=0
172797 On ch=1 n=c#5 v=74
172797 On ch=1 n=a4 v=74
173277 On ch=1 n=g#4 v=70
173286 On ch=1 n=b4 v=69
173313 On ch=1 n=a4 v=0
173322 On ch=1 n=c#5 v=0
173757 On ch=1 n=a4 v=74
173757 On ch=1 n=f#4 v=74
173793 On ch=1 n=g#4 v=0
173802 On ch=1 n=b4 v=0
174209 On ch=1 n=a4 v=0
174218 On ch=1 n=f#4 v=0
174237 On ch=1 n=a4 v=73
174237 On ch=1 n=f#4 v=73
175197 On ch=1 n=b4 v=61
175197 On ch=1 n=g#4 v=61
175233 On ch=1 n=f#4 v=0
175233 On ch=1 n=a4 v=0
175649 On ch=1 n=g#4 v=0
175658 On ch=1 n=b4 v=0
175677 On ch=1 n=g#4 v=65
175677 On ch=1 n=b4 v=65
175722 On ch=1 n=g#4 v=65
175894 On ch=1 n=g#4 v=0
176157 On ch=1 n=a4 v=69
176157 On ch=1 n=f#4 v=69
176202 On ch=1 n=g#4 v=0
176211 On ch=1 n=b4 v=0
176637 On ch=1 n=b4 v=64
176637 On ch=1 n=g#4 v=64
176664 On ch=1 n=a4 v=0
176682 On ch=1 n=f#4 v=0
177098 On ch=1 n=g#4 v=0
177098 On ch=1 n=e4 v=0
177117 On ch=1 n=e4 v=59
177117 On ch=1 n=g#4 v=59
177153 On ch=1 n=b4 v=0
179997 On ch=1 n=f#3 v=100
179997 On ch=1 n=f#4 v=100
180033 On ch=1 n=g#4 v=0
180033 On ch=1 n=e4 v=0
180051 On ch=1 n=e3 v=0
185738 On ch=1 n=f#4 v=0
185757 On ch=1 n=b3 v=100
185757 On ch=1 n=f#4 v=100
185838 On ch=1 n=f#3 v=0
187178 On ch=1 n=b3 v=0
187197 On ch=1 n=b3 v=113
187704 On ch=1 n=f#4 v=0
189117 On ch=1 n=g#4 v=91
189569 On ch=1 n=b3 v=0
189597 On ch=1 n=b3 v=102
190557 On ch=1 n=a#3 v=102
190593 On ch=1 n=b3 v=0
191037 On ch=1 n=g#3 v=96
191082 On ch=1 n=a#3 v=0
191498 On ch=1 n=g#3 v=0
191517 On ch=1 n=g#3 v=90
191997 On ch=1 n=c#3 v=94
192033 On ch=1 n=g#3 v=0
192449 On ch=1 n=g#4 v=0
192477 On ch=1 n=g#4 v=98
193437 On ch=1 n=f#4 v=99
193473 On ch=1 n=g#4 v=0
193917 On ch=1 n=e4 v=97
193944 On ch=1 n=f#4 v=0
194369 On ch=1 n=e4 v=0
194378 On ch=1 n=c#3 v=0
194397 On ch=1 n=e4 v=88
194397 On ch=1 n=g#3 v=88
194877 On ch=1 n=c#3 v=91
194931 On ch=1 n=g#3 v=0
195320 On ch=1 n=e4 v=0
195357 On ch=1 n=e4 v=88
196317 On ch=1 n=d#4 v=100
196344 On ch=1 n=e4 v=0
196797 On ch=1 n=c#4 v=103
196824 On ch=1 n=d#4 v=0
197277 On ch=1 n=f#3 v=94
197277 On ch=1 n=e4 v=94
197277 On ch=1 n=a#4 v=94
197313 On ch=1 n=c#4 v=0
197358 On ch=1 n=c#3 v=0
198218 On ch=1 n=a#4 v=0
198237 On ch=1 n=a#4 v=100
199197 On ch=1 n=b4 v=84
199224 On ch=1 n=a#4 v=0
199677 On ch=1 n=g#4 v=94
199704 On ch=1 n=b4 v=0
200050 On ch=1 n=g#4 v=0
200157 On ch=1 n=g#4 v=74
200992 On ch=1 n=g#4 v=0
201117 On ch=1 n=g#4 v=69
202077 On ch=1 n=a#4 v=79
202104 On ch=1 n=g#4 v=0
202557 On ch=1 n=f#4 v=86
202575 On ch=1 n=a#4 v=0
203037 On ch=1 n=d#4 v=82
203037 On ch=1 n=b2 v=82
203109 On ch=1 n=e4 v=0
203136 On ch=1 n=f#3 v=0
203997 On ch=1 n=a4 v=81
203997 On ch=1 n=c#5 v=81
204006 On ch=1 n=f#4 v=0
204024 On ch=1 n=d#4 v=0
204458 On ch=1 n=c#5 v=0
204458 On ch=1 n=a4 v=0
204477 On ch=1 n=c#5 v=91
204477 On ch=1 n=a4 v=91
204957 On ch=1 n=b4 v=82
204957 On ch=1 n=g#4 v=82
204984 On ch=1 n=c#5 v=0
204993 On ch=1 n=a4 v=0
205437 On ch=1 n=f#4 v=71
205437 On ch=1 n=a4 v=71
205455 On ch=1 n=b4 v=0
205464 On ch=1 n=g#4 v=0
205871 On ch=1 n=f#4 v=0
205898 On ch=1 n=a4 v=0
205917 On ch=1 n=a4 v=64
205917 On ch=1 n=f#4 v=64
206877 On ch=1 n=g#4 v=51
206877 On ch=1 n=e4 v=51
206913 On ch=1 n=a4 v=0
206940 On ch=1 n=f#4 v=0
207329 On ch=1 n=g#4 v=0
207338 On ch=1 n=e4 v=0
207357 On ch=1 n=g#4 v=51
207357 On ch=1 n=e4 v=51
208353 On ch=1 n=g#4 v=0
208362 On ch=1 n=e4 v=0
208778 On ch=1 n=b2 v=0
208797 On ch=1 n=b3 v=113
208797 On ch=1 n=b2 v=113
209757 On ch=1 n=a4 v=74
209757 On ch=1 n=c#5 v=74
210218 On ch=1 n=c#5 v=0
210218 On ch=1 n=a4 v=0
210237 On ch=1 n=a4 v=96
210237 On ch=1 n=c#5 v=96
210717 On ch=1 n=b4 v=79
210717 On ch=1 n=g#4 v=79
210744 On ch=1 n=c#5 v=0
210753 On ch=1 n=a4 v=0
211197 On ch=1 n=a4 v=69
211206 On ch=1 n=f#4 v=69
211215 On ch=1 n=b4 v=0
211224 On ch=1 n=g#4 v=0
211640 On ch=1 n=f#4 v=0
211658 On ch=1 n=a4 v=0
211677 On ch=1 n=f#4 v=58
211677 On ch=1 n=a4 v=58
212637 On ch=1 n=e4 v=57
212646 On ch=1 n=g#4 v=57
212673 On ch=1 n=a4 v=0
212700 On ch=1 n=f#4 v=0
213098 On ch=1 n=g#4 v=0
213098 On ch=1 n=e4 v=0
213117 On ch=1 n=e4 v=54
213117 On ch=1 n=g#4 v=54
214113 On ch=1 n=g#4 v=0
214122 On ch=1 n=e4 v=0
214538 On ch=1 n=b2 v=0
214538 On ch=1 n=b3 v=0
214557 On ch=1 n=b3 v=100
214557 On ch=1 n=b2 v=100
219837 On ch=1 n=c#4 v=68
219837 On ch=1 n=c#3 v=68
219891 On ch=1 n=b2 v=0
219891 On ch=1 n=b3 v=0
220298 On ch=1 n=c#3 v=0
220298 On ch=1 n=c#4 v=0
220317 On ch=1 n=c#3 v=68
220317 On ch=1 n=c#4 v=68
221277 On ch=1 n=d#3 v=74
221277 On ch=1 n=d#4 v=74
221313 On ch=1 n=c#4 v=0
221313 On ch=1 n=c#3 v=0
221729 On ch=1 n=d#4 v=0
221738 On ch=1 n=d#3 v=0
221757 On ch=1 n=d#4 v=74
221757 On ch=1 n=d#3 v=74
222717 On ch=1 n=b3 v=61
222717 On ch=1 n=b2 v=61
222744 On ch=1 n=d#3 v=0
222744 On ch=1 n=d#4 v=0
223178 On ch=1 n=b2 v=0
223178 On ch=1 n=b3 v=0
223197 On ch=1 n=b2 v=61
223206 On ch=1 n=b3 v=61
224157 On ch=1 n=g#3 v=64
224157 On ch=1 n=g#2 v=64
224184 On ch=1 n=b3 v=0
224193 On ch=1 n=b2 v=0
224618 On ch=1 n=g#2 v=0
224618 On ch=1 n=g#3 v=0
224637 On ch=1 n=g#3 v=64
224637 On ch=1 n=g#2 v=64
225597 On ch=1 n=a2 v=57
225606 On ch=1 n=a3 v=57
225624 On ch=1 n=g#2 v=0
225633 On ch=1 n=g#3 v=0
226077 On ch=1 n=a2 v=0
226077 On ch=1 n=a#3 v=87
226077 On ch=1 n=a#2 v=87
226095 On ch=1 n=a3 v=0
226584 On ch=1 n=a#2 v=0
226584 On ch=1 n=a#3 v=0
227037 On ch=1 n=g#4 v=100
227046 On ch=1 n=a#3 v=100
227489 On ch=1 n=g#4 v=0
227517 Par ch=1 c=64 v=127
227517 On ch=1 n=g4 v=123
227789 On ch=1 n=g4 v=0
227997 On ch=1 n=d#3 v=106
228237 On ch=1 n=d#3 v=0
228477 Par ch=1 c=64 v=0
228504 On ch=1 n=a#3 v=0
229677 On ch=1 n=g#5 v=100
229917 On ch=1 n=g#5 v=0
229917 On ch=1 n=a#4 v=100
230157 On ch=1 n=a#4 v=0
230397 Par ch=1 c=64 v=127
230397 On ch=1 n=g5 v=127
230637 On ch=1 n=g5 v=0
230877 On ch=1 n=d#4 v=108
231117 On ch=1 n=d#4 v=0
231117 Par ch=1 c=64 v=0
232797 On ch=1 n=a#5 v=108
232797 Par ch=1 c=64 v=127
232797 On ch=1 n=g6 v=108
233037 On ch=1 n=g6 v=0
233037 On ch=1 n=a#5 v=0
233277 On ch=1 n=d#6 v=127
233277 On ch=1 n=g5 v=127
233517 On ch=1 n=g5 v=0
233517 On ch=1 n=d#6 v=0
234717 On ch=1 n=c4 v=100
234957 On ch=1 n=c4 v=0
236157 Par ch=1 c=64 v=0
236157 On ch=1 n=f3 v=127
236397 On ch=1 n=f3 v=0
237117 On ch=1 n=g3 v=127
237357 On ch=1 n=g3 v=0
238557 On ch=1 n=a#3 v=113
238557 On ch=1 n=g#4 v=113
238797 On ch=1 n=g#4 v=0
238797 On ch=1 n=a#3 v=0
239037 On ch=1 n=g4 v=123
239037 Par ch=1 c=64 v=127
239277 On ch=1 n=g4 v=0
239517 On ch=1 n=d#3 v=106
239757 On ch=1 n=d#3 v=0
239997 Par ch=1 c=64 v=0
241437 On ch=1 n=g#5 v=100
241437 On ch=1 n=a#4 v=100
241677 On ch=1 n=a#4 v=0
241677 On ch=1 n=g#5 v=0
241864 Par ch=1 c=64 v=127
241917 On ch=1 n=g5 v=127
242157 On ch=1 n=g5 v=0
242397 On ch=1 n=d#4 v=108
242637 On ch=1 n=d#4 v=0
242877 Par ch=1 c=64 v=0
244317 Par ch=1 c=64 v=127
244317 On ch=1 n=a#5 v=108
244317 On ch=1 n=g6 v=108
244557 On ch=1 n=g6 v=0
244557 On ch=1 n=a#5 v=0
244797 On ch=1 n=d#6 v=127
244797 On ch=1 n=g5 v=127
245037 On ch=1 n=g5 v=0
245037 On ch=1 n=d#6 v=0
247197 On ch=1 n=g#4 v=87
247197 On ch=1 n=a#3 v=87
247197 Par ch=1 c=64 v=0
247437 On ch=1 n=a#3 v=0
247437 On ch=1 n=g#4 v=0
247677 On ch=1 n=d#4 v=123
247917 On ch=1 n=d#4 v=0
248157 On ch=1 n=g4 v=127
248157 On ch=1 n=g4 v=127
248397 On ch=1 n=g4 v=0
248397 On ch=1 n=g4 v=0
250077 On ch=1 n=c5 v=106
250077 On ch=1 n=d4 v=106
250317 On ch=1 n=d4 v=0
250317 On ch=1 n=c5 v=0
250557 Par ch=1 c=64 v=127
250557 On ch=1 n=a#4 v=123
250797 On ch=1 n=a#4 v=0
251037 On ch=1 n=g3 v=118
251277 On ch=1 n=g3 v=0
251277 Par ch=1 c=64 v=0
252957 On ch=1 n=d5 v=100
252957 On ch=1 n=c6 v=100
253197 On ch=1 n=c6 v=0
253197 On ch=1 n=d5 v=0
253390 Par ch=1 c=64 v=127
253437 On ch=1 n=a#5 v=100
253677 On ch=1 n=a#5 v=0
253917 On ch=1 n=g4 v=100
254157 On ch=1 n=g4 v=0
254157 Par ch=1 c=64 v=0
255597 Par ch=1 c=64 v=0
255837 On ch=1 n=d6 v=100
255837 Par ch=1 c=64 v=127
255837 On ch=1 n=a#6 v=100
256077 On ch=1 n=a#6 v=0
256077 On ch=1 n=d6 v=0
256317 On ch=1 n=g6 v=100
256317 On ch=1 n=a#5 v=100
256557 On ch=1 n=a#5 v=0
256557 On ch=1 n=g6 v=0
257517 Par ch=1 c=64 v=0
258717 On ch=1 n=c4 v=100
258717 On ch=1 n=a#4 v=100
258957 On ch=1 n=a#4 v=0
258957 On ch=1 n=c4 v=0
259197 Par ch=1 c=64 v=127
259197 On ch=1 n=g#4 v=100
259437 On ch=1 n=g#4 v=0
259677 On ch=1 n=f3 v=100
259917 On ch=1 n=f3 v=0
259917 Par ch=1 c=64 v=0
261597 On ch=1 n=c4 v=100
261597 On ch=1 n=a#4 v=100
261837 On ch=1 n=a#4 v=0
261837 On ch=1 n=c4 v=0
262077 Par ch=1 c=64 v=127
262077 On ch=1 n=g#4 v=100
262317 On ch=1 n=g#4 v=0
262557 On ch=1 n=f3 v=100
262797 On ch=1 n=f3 v=0
262797 Par ch=1 c=64 v=0
264477 On ch=1 n=c5 v=100
264477 On ch=1 n=a#5 v=100
264717 On ch=1 n=a#5 v=0
264717 On ch=1 n=c5 v=0
264923 Par ch=1 c=64 v=127
264957 On ch=1 n=g#5 v=100
265197 On ch=1 n=g#5 v=0
265437 On ch=1 n=f4 v=100
265677 On ch=1 n=f4 v=0
265677 Par ch=1 c=64 v=0
267837 Par ch=1 c=64 v=127
267837 On ch=1 n=c6 v=100
267837 On ch=1 n=d6 v=100
267837 On ch=1 n=g#6 v=100
268077 On ch=1 n=g#6 v=0
268077 On ch=1 n=d6 v=0
268077 On ch=1 n=c6 v=0
270703 Par ch=1 c=64 v=0
270717 On ch=1 n=g3 v=100
270717 On ch=1 n=d4 v=100
270957 On ch=1 n=d4 v=0
270957 On ch=1 n=g3 v=0
273117 On ch=1 n=a#3 v=113
273117 On ch=1 n=g#4 v=113
273357 On ch=1 n=g#4 v=0
273357 On ch=1 n=a#3 v=0
273563 Par ch=1 c=64 v=127
273597 On ch=1 n=g4 v=123
273837 On ch=1 n=g4 v=0
274077 On ch=1 n=d#3 v=106
274317 On ch=1 n=d#3 v=0
274317 Par ch=1 c=64 v=0
275997 On ch=1 n=g#5 v=100
275997 On ch=1 n=a#4 v=100
276237 On ch=1 n=a#4 v=0
276237 On ch=1 n=g#5 v=0
276477 Par ch=1 c=64 v=127
276477 On ch=1 n=g5 v=127
276717 On ch=1 n=g5 v=0
276957 Par ch=1 c=64 v=0
276957 On ch=1 n=d#4 v=108
277197 On ch=1 n=d#4 v=0
278877 Par ch=1 c=64 v=127
278877 On ch=1 n=a#5 v=108
278877 On ch=1 n=g6 v=108
279117 On ch=1 n=g6 v=0
279117 On ch=1 n=a#5 v=0
279357 On ch=1 n=d#6 v=127
279357 On ch=1 n=g5 v=127
279597 On ch=1 n=g5 v=0
279597 On ch=1 n=d#6 v=0
280317 Par ch=1 c=64 v=0
280797 On ch=1 n=c4 v=100
281037 On ch=1 n=c4 v=0
282237 On ch=1 n=f3 v=100
282477 On ch=1 n=f3 v=0
283197 On ch=1 n=g3 v=100
283437 On ch=1 n=g3 v=0
284637 On ch=1 n=a#3 v=100
284637 On ch=1 n=g#4 v=100
284877 On ch=1 n=g#4 v=0
284877 On ch=1 n=a#3 v=0
285117 Par ch=1 c=64 v=127
285117 On ch=1 n=g4 v=100
285357 On ch=1 n=g4 v=0
285597 Par ch=1 c=64 v=0
285597 On ch=1 n=d#3 v=100
285837 On ch=1 n=d#3 v=0
287517 On ch=1 n=a#4 v=100
287517 On ch=1 n=g#5 v=100
287757 On ch=1 n=g#5 v=0
287757 On ch=1 n=a#4 v=0
287997 Par ch=1 c=64 v=127
287997 On ch=1 n=g5 v=100
288237 On ch=1 n=g5 v=0
288477 On ch=1 n=d#4 v=100
288717 On ch=1 n=d#4 v=0
288935 Par ch=1 c=64 v=0
290397 On ch=1 n=a#5 v=87
290397 On ch=1 n=g6 v=87
290397 Par ch=1 c=64 v=127
290637 On ch=1 n=g6 v=0
290637 On ch=1 n=a#5 v=0
290877 On ch=1 n=d#6 v=65
290877 On ch=1 n=g5 v=65
291117 On ch=1 n=g5 v=0
291117 On ch=1 n=d#6 v=0
292797 Par ch=1 c=64 v=0
293277 On ch=1 n=a#4 v=69
293277 On ch=1 n=g5 v=69
293277 Par ch=1 c=64 v=127
293517 On ch=1 n=g5 v=0
293517 On ch=1 n=a#4 v=0
293757 On ch=1 n=d#5 v=50
293757 On ch=1 n=g4 v=50
293997 On ch=1 n=g4 v=0
293997 On ch=1 n=d#5 v=0
295437 Par ch=1 c=64 v=0
296157 On ch=1 n=c5 v=84
296397 On ch=1 n=c5 v=0
296397 On ch=1 n=a#4 v=65
296637 On ch=1 n=a#4 v=0
296637 Par ch=1 c=64 v=127
296637 On ch=1 n=g4 v=97
296877 On ch=1 n=g4 v=0
296877 On ch=1 n=d#4 v=83
297117 On ch=1 n=d#4 v=0
297117 On ch=1 n=c4 v=92
297357 On ch=1 n=c4 v=0
297357 Par ch=1 c=64 v=0
297357 On ch=1 n=a#3 v=84
297597 On ch=1 n=a#3 v=0
297597 Par ch=1 c=64 v=127
297597 On ch=1 n=g4 v=75
297837 On ch=1 n=g4 v=0
297837 Par ch=1 c=64 v=0
297837 On ch=1 n=d#4 v=90
298077 On ch=1 n=d#4 v=0
298077 On ch=1 n=c4 v=79
298317 On ch=1 n=c4 v=0
298317 On ch=1 n=a#3 v=67
298557 On ch=1 n=a#3 v=0
298557 On ch=1 n=g3 v=87
298797 On ch=1 n=g3 v=0
298797 On ch=1 n=g4 v=78
299037 On ch=1 n=g4 v=0
299037 On ch=1 n=d#4 v=69
299277 On ch=1 n=d#4 v=0
299277 On ch=1 n=c4 v=88
299517 On ch=1 n=c4 v=0
299517 On ch=1 n=a#3 v=77
299757 On ch=1 n=a#3 v=0
299757 On ch=1 n=g3 v=82
299997 On ch=1 n=g3 v=0
299997 On ch=1 n=d#4 v=73
300237 On ch=1 n=d#4 v=0
300237 On ch=1 n=c4 v=64
300477 On ch=1 n=c4 v=0
300477 On ch=1 n=a#3 v=54
300717 On ch=1 n=a#3 v=0
300717 On ch=1 n=g3 v=87
300957 On ch=1 n=g3 v=0
300957 Par ch=1 c=64 v=0
300957 On ch=1 n=d#3 v=73
301197 On ch=1 n=d#3 v=0
301197 On ch=1 n=d3 v=127
301197 On ch=1 n=d3 v=127
301437 On ch=1 n=d3 v=0
301437 On ch=1 n=d3 v=0
301437 On ch=1 n=f3 v=98
301677 On ch=1 n=f3 v=0
301677 On ch=1 n=d#3 v=103
301917 On ch=1 n=d#3 v=0
301917 On ch=1 n=c#3 v=109
301917 On ch=1 n=c#3 v=109
302157 On ch=1 n=c#3 v=0
302157 On ch=1 n=c#3 v=0
302157 On ch=1 n=f3 v=100
302157 On ch=1 n=f3 v=127
302397 On ch=1 n=f3 v=0
302397 On ch=1 n=f3 v=0
302397 On ch=1 n=d#3 v=100
302637 On ch=1 n=d#3 v=0
302637 On ch=1 n=c3 v=127
302637 On ch=1 n=c3 v=127
302637 On ch=1 n=c3 v=127
302877 On ch=1 n=c3 v=0
302877 On ch=1 n=c3 v=0
302877 On ch=1 n=c3 v=0
302877 On ch=1 n=f3 v=91
303117 On ch=1 n=f3 v=0
303117 On ch=1 n=d#3 v=98
303357 On ch=1 n=d#3 v=0
303357 On ch=1 n=b2 v=106
303357 On ch=1 n=b2 v=106
303357 On ch=1 n=b2 v=106
303597 On ch=1 n=b2 v=0
303597 On ch=1 n=b2 v=0
303597 On ch=1 n=b2 v=0
303597 On ch=1 n=f3 v=127
303837 On ch=1 n=f3 v=0
303837 On ch=1 n=d#3 v=100
304077 On ch=1 n=d#3 v=0
304077 On ch=1 n=a#2 v=127
304077 On ch=1 n=a#2 v=127
304077 On ch=1 n=a#2 v=127
304317 On ch=1 n=a#2 v=0
304317 On ch=1 n=a#2 v=0
304317 On ch=1 n=a#2 v=0
304317 On ch=1 n=f3 v=91
304557 On ch=1 n=f3 v=0
304557 On ch=1 n=d#3 v=99
304797 On ch=1 n=d#3 v=0
304797 On ch=1 n=a2 v=107
304797 On ch=1 n=a2 v=107
304797 On ch=1 n=a2 v=107
305037 On ch=1 n=a2 v=0
305037 On ch=1 n=a2 v=0
305037 On ch=1 n=a2 v=0
305037 On ch=1 n=f3 v=127
305277 On ch=1 n=f3 v=0
305277 On ch=1 n=d#3 v=100
305517 On ch=1 n=d#3 v=0
305517 On ch=1 n=c3 v=127
305517 On ch=1 n=c3 v=127
305517 On ch=1 n=c3 v=127
305757 On ch=1 n=c3 v=0
305757 On ch=1 n=c3 v=0
305757 On ch=1 n=c3 v=0
305757 On ch=1 n=f3 v=93
305997 On ch=1 n=f3 v=0
305997 On ch=1 n=d#3 v=96
306237 On ch=1 n=d#3 v=0
306237 On ch=1 n=a#2 v=100
306237 On ch=1 n=a#2 v=100
306237 On ch=1 n=a#2 v=100
306237 On ch=1 n=a#2 v=100
306477 On ch=1 n=a#2 v=0
306477 On ch=1 n=a#2 v=0
306477 On ch=1 n=a#2 v=0
306477 On ch=1 n=a#2 v=0
306477 On ch=1 n=g3 v=127
306717 On ch=1 n=g3 v=0
306717 Par ch=1 c=64 v=127
306717 On ch=1 n=d#2 v=126
306717 On ch=1 n=d#2 v=126
306717 On ch=1 n=d#2 v=126
306717 On ch=1 n=d#2 v=126
306957 On ch=1 n=d#2 v=0
306957 On ch=1 n=d#2 v=0
306957 On ch=1 n=d#2 v=0
306957 On ch=1 n=d#2 v=0
308157 On ch=1 n=a#5 v=127
308157 On ch=1 n=g5 v=127
308157 On ch=1 n=a#4 v=127
308157 On ch=1 n=g4 v=127
308397 On ch=1 n=g4 v=0
308397 On ch=1 n=a#4 v=0
308397 On ch=1 n=g5 v=0
308397 On ch=1 n=a#5 v=0
309117 On ch=1 n=d#4 v=127
309117 On ch=1 n=d#4 v=127
309117 On ch=1 n=d#3 v=127
309117 On ch=1 n=d#3 v=127
309357 On ch=1 n=d#3 v=0
309357 On ch=1 n=d#3 v=0
309357 On ch=1 n=d#4 v=0
309357 On ch=1 n=d#4 v=0
309357 On ch=1 n=d#3 v=127
309357 On ch=1 n=d#4 v=127
309597 On ch=1 n=d#4 v=0
309597 On ch=1 n=d#3 v=0
309597 On ch=1 n=d#2 v=127
309597 On ch=1 n=d#3 v=127
312540 On ch=1 n=d#3 v=0
312540 On ch=1 n=d#2 v=0
312540 Meta TrkEnd
TrkEnd
