MFile 1 3 480
MTrk
0 SMPTE 0 0 0 0 0
0 Tempo 1621621
0 TimeSig 6/8 36 8
30 Tempo 307692
2134 Tempo 698914
2160 Tempo 307692
2860 Tempo 1578947
2880 Tempo 517241
3013 Tempo 307692
5015 Tempo 1090909
5040 Tempo 320855
5730 Tempo 937500
5760 Tempo 428571
5896 Tempo 307692
8622 Tempo 698914
8640 Tempo 476190
8773 Tempo 320855
10056 Tempo 2400000
10080 Tempo 365853
10820 Tempo 1333333
11190 Tempo 3000000
11520 Tempo 331491
71280 Tempo 337078
72000 Tempo 359281
72720 Tempo 389610
73403 Tempo 1500000
73440 Tempo 331491
96445 Tempo 1395348
96535 Tempo 331491
102200 Tempo 769230
102240 Tempo 377358
102960 Tempo 331491
105103 Tempo 1000000
105120 Tempo 372670
105840 Tempo 331491
107960 Tempo 698914
108000 Tempo 340909
203745 Tempo 387096
204445 Tempo 1578947
204480 Tempo 340909
226800 Tempo 365853
227480 Tempo 1200000
227520 Tempo 1818181
227545 Tempo 340909
228235 Tempo 2142857
228265 Tempo 340909
231840 Tempo 348837
232560 Tempo 361445
233265 Tempo 1500000
233301 Tempo 340909
262066 Tempo 2727272
262102 Tempo 346820
266400 Tempo 357142
267120 Tempo 377358
267826 Tempo 2307692
267856 Tempo 363636
270720 Tempo 3000000
270746 Tempo 355029
271440 Tempo 348837
272160 Tempo 338983
273572 Tempo 2000000
273597 Tempo 335195
273600 Tempo 335195
273615 Tempo 698914
273629 Tempo 352941
275040 Tempo 344827
276480 Tempo 333333
280800 Tempo 322580
290880 Tempo 348837
360000 Tempo 335195
361440 Tempo 326086
364301 Tempo 2142857
364358 Tempo 322580
365745 Tempo 1200000
365760 Tempo 322580
370061 Tempo 2608695
370080 Tempo 2142857
370118 Tempo 322580
375106 Tempo 2857142
375120 Tempo 266666
375815 Tempo 3750000
375840 Tempo 327868
387360 Tempo 1200000
387380 Tempo 327868
388800 Tempo 315789
390240 Tempo 1428571
390246 Tempo 319148
390960 Tempo 504201
391093 Tempo 320855
391680 Tempo 1276595
391706 Tempo 337078
392400 Tempo 397350
393120 Tempo 315789
407520 Tempo 331491
408960 Tempo 365853
410400 Tempo 1052631
410400 Meta TrkEnd
TrkEnd
MTrk
0 SeqSpec 43 00 01 00
0 Meta 0x21 00
0 Meta 0x20 00
0 Par ch=1 c=7 v=127
0 Par ch=1 c=10 v=64
0 Par ch=1 c=91 v=5
0 Par ch=1 c=93 v=0
0 PrCh ch=1 p=0
0 On ch=1 n=f#5 v=100
0 On ch=1 n=f#4 v=100
697 On ch=1 n=f#4 v=0
706 On ch=1 n=f#5 v=0
724 On ch=1 n=f#5 v=118
724 On ch=1 n=f#6 v=118
1421 On ch=1 n=f#6 v=0
1440 On ch=1 n=f#5 v=0
1440 On ch=1 n=f#6 v=127
1440 On ch=1 n=f#7 v=127
2137 On ch=1 n=f#7 v=0
2155 On ch=1 n=f#6 v=0
2164 On ch=1 n=f#4 v=123
2164 On ch=1 n=f#5 v=123
2861 On ch=1 n=f#5 v=0
2861 On ch=1 n=f#4 v=0
2880 On ch=1 n=f#4 v=123
2880 On ch=1 n=b4 v=123
2880 On ch=1 n=f#5 v=123
3577 On ch=1 n=f#5 v=0
3586 On ch=1 n=b4 v=0
3586 On ch=1 n=f#4 v=0
3604 On ch=1 n=f#5 v=118
3604 On ch=1 n=b5 v=118
3604 On ch=1 n=f#6 v=118
4301 On ch=1 n=f#6 v=0
4301 On ch=1 n=b5 v=0
4320 On ch=1 n=f#5 v=0
4320 On ch=1 n=f#7 v=123
4320 On ch=1 n=f#6 v=123
4320 On ch=1 n=b6 v=123
4999 On ch=1 n=b6 v=0
5026 On ch=1 n=f#6 v=0
5026 On ch=1 n=f#7 v=0
5044 On ch=1 n=b4 v=112
5044 On ch=1 n=f#5 v=112
5053 On ch=1 n=f#4 v=112
5732 On ch=1 n=f#4 v=0
5741 On ch=1 n=f#5 v=0
5760 On ch=1 n=b4 v=0
5760 On ch=1 n=f#5 v=121
5760 On ch=1 n=c5 v=121
5760 On ch=1 n=f#4 v=121
6448 On ch=1 n=f#5 v=0
6466 On ch=1 n=f#4 v=0
6466 On ch=1 n=c5 v=0
6484 On ch=1 n=f#5 v=124
6484 On ch=1 n=f#6 v=124
6484 On ch=1 n=c6 v=124
7163 On ch=1 n=c6 v=0
7172 On ch=1 n=f#6 v=0
7200 On ch=1 n=f#6 v=127
7200 On ch=1 n=c#7 v=127
7200 On ch=1 n=f#7 v=127
7209 On ch=1 n=f#5 v=0
7870 On ch=1 n=f#7 v=0
7870 On ch=1 n=c#7 v=0
7888 On ch=1 n=f#6 v=0
7924 On ch=1 n=f#4 v=119
7924 On ch=1 n=f#5 v=119
7924 On ch=1 n=c#5 v=123
8603 On ch=1 n=c#5 v=0
8603 On ch=1 n=f#4 v=0
8621 On ch=1 n=f#5 v=0
8640 On ch=1 n=e5 v=127
8640 On ch=1 n=f#4 v=127
8640 On ch=1 n=c#5 v=127
8640 On ch=1 n=f#5 v=127
9337 On ch=1 n=f#5 v=0
9337 On ch=1 n=c#5 v=0
9337 On ch=1 n=f#4 v=0
9337 On ch=1 n=e5 v=0
9364 On ch=1 n=f#6 v=123
9364 On ch=1 n=e6 v=123
9364 On ch=1 n=f#5 v=123
9364 On ch=1 n=c#6 v=123
10061 On ch=1 n=c#6 v=0
10061 On ch=1 n=f#5 v=0
10061 On ch=1 n=e6 v=0
10061 On ch=1 n=f#6 v=0
10080 On ch=1 n=d7 v=127
10080 On ch=1 n=f#7 v=127
10080 On ch=1 n=d8 v=127
10777 On ch=1 n=d8 v=0
10777 On ch=1 n=f#7 v=0
10777 On ch=1 n=d7 v=0
10804 On ch=1 n=c#8 v=127
10804 On ch=1 n=f#7 v=127
10804 On ch=1 n=c#7 v=127
11204 On ch=1 n=c#7 v=0
11204 On ch=1 n=f#7 v=0
11204 On ch=1 n=c#8 v=0
11520 On ch=1 n=b4 v=86
11755 On ch=1 n=b4 v=0
11764 On ch=1 n=d4 v=69
11999 On ch=1 n=d4 v=0
12000 On ch=1 n=f#4 v=75
12235 On ch=1 n=f#4 v=0
12244 On ch=1 n=g4 v=82
12479 On ch=1 n=g4 v=0
12489 On ch=1 n=e4 v=69
12724 On ch=1 n=e4 v=0
12724 On ch=1 n=a#4 v=76
12959 On ch=1 n=a#4 v=0
12960 On ch=1 n=b4 v=83
13195 On ch=1 n=b4 v=0
13204 On ch=1 n=d4 v=74
13439 On ch=1 n=d4 v=0
13440 On ch=1 n=f#4 v=79
13675 On ch=1 n=f#4 v=0
13684 On ch=1 n=g4 v=82
13919 On ch=1 n=g4 v=0
13929 On ch=1 n=e4 v=74
14164 On ch=1 n=e4 v=0
14164 On ch=1 n=a#4 v=79
14399 On ch=1 n=a#4 v=0
14400 On ch=1 n=b4 v=84
14635 On ch=1 n=b4 v=0
14644 On ch=1 n=d4 v=67
14879 On ch=1 n=d4 v=0
14880 On ch=1 n=b4 v=74
15052 On ch=1 n=c#5 v=79
15061 On ch=1 n=b4 v=0
15133 On ch=1 n=b4 v=73
15161 On ch=1 n=c#5 v=0
15360 On ch=1 n=b4 v=0
15360 On ch=1 n=e4 v=69
15360 On ch=1 n=g4 v=69
15360 On ch=1 n=a#4 v=69
15595 On ch=1 n=a#4 v=0
15595 On ch=1 n=g4 v=0
15595 On ch=1 n=e4 v=0
15604 On ch=1 n=b4 v=79
15839 On ch=1 n=b4 v=0
15840 On ch=1 n=d5 v=89
16084 On ch=1 n=f#4 v=65
16319 On ch=1 n=f#4 v=0
16329 On ch=1 n=a#4 v=74
16564 On ch=1 n=a#4 v=0
16800 On ch=1 n=g4 v=53
17035 On ch=1 n=g4 v=0
17044 On ch=1 n=a#4 v=67
17279 On ch=1 n=a#4 v=0
17488 On ch=1 n=d5 v=0
17533 On ch=1 n=f#4 v=58
17760 On ch=1 n=a4 v=68
17768 On ch=1 n=f#4 v=0
17995 On ch=1 n=a4 v=0
18004 On ch=1 n=a#4 v=59
18239 On ch=1 n=a#4 v=0
18240 On ch=1 n=g4 v=50
18475 On ch=1 n=g4 v=0
18484 On ch=1 n=c#5 v=67
18719 On ch=1 n=c#5 v=0
18729 On ch=1 n=d5 v=83
18964 On ch=1 n=d5 v=0
18964 On ch=1 n=f#4 v=54
19199 On ch=1 n=f#4 v=0
19200 On ch=1 n=a4 v=68
19435 On ch=1 n=a4 v=0
19444 On ch=1 n=a#4 v=81
19679 On ch=1 n=a#4 v=0
19680 On ch=1 n=g4 v=48
19915 On ch=1 n=g4 v=0
19924 On ch=1 n=c#5 v=69
20159 On ch=1 n=c#5 v=0
20169 On ch=1 n=d5 v=78
20404 On ch=1 n=d5 v=0
20404 On ch=1 n=a4 v=57
20404 On ch=1 n=f#4 v=57
20639 On ch=1 n=f#4 v=0
20639 On ch=1 n=a4 v=0
20649 On ch=1 n=d5 v=66
20812 On ch=1 n=e5 v=73
20857 On ch=1 n=d5 v=0
20884 On ch=1 n=d5 v=76
20911 On ch=1 n=e5 v=0
21119 On ch=1 n=d5 v=0
21120 On ch=1 n=c#5 v=62
21355 On ch=1 n=c#5 v=0
21355 On ch=1 n=d5 v=74
21590 On ch=1 n=d5 v=0
21600 On ch=1 n=f#5 v=85
21844 On ch=1 n=a#4 v=55
22079 On ch=1 n=a#4 v=0
22080 On ch=1 n=c#5 v=64
22315 On ch=1 n=c#5 v=0
22569 On ch=1 n=b4 v=59
22804 On ch=1 n=b4 v=0
22804 On ch=1 n=d5 v=69
23039 On ch=1 n=d5 v=0
23284 On ch=1 n=a#4 v=56
23329 On ch=1 n=f#5 v=0
23519 On ch=1 n=a#4 v=0
23520 On ch=1 n=c#5 v=69
23755 On ch=1 n=c#5 v=0
23764 On ch=1 n=d5 v=55
23999 On ch=1 n=d5 v=0
24000 On ch=1 n=a4 v=69
24009 On ch=1 n=b4 v=69
24235 On ch=1 n=a4 v=0
24244 On ch=1 n=b4 v=0
24244 On ch=1 n=d#5 v=83
24479 On ch=1 n=d#5 v=0
24480 On ch=1 n=e5 v=96
25566 On ch=1 n=f#5 v=75
25575 On ch=1 n=e5 v=0
25684 On ch=1 n=e5 v=79
25702 On ch=1 n=f#5 v=0
25919 On ch=1 n=e5 v=0
25929 On ch=1 n=d5 v=85
26164 On ch=1 n=d5 v=0
26400 On ch=1 n=c#5 v=88
26644 On ch=1 n=b4 v=84
26662 On ch=1 n=c#5 v=0
26879 On ch=1 n=b4 v=0
27124 On ch=1 n=c#5 v=86
27359 On ch=1 n=c#5 v=0
27369 On ch=1 n=f#4 v=84
28084 On ch=1 n=d5 v=68
28102 On ch=1 n=f#4 v=0
28319 On ch=1 n=d5 v=0
28446 On ch=1 n=e5 v=81
28564 On ch=1 n=d5 v=85
28600 On ch=1 n=e5 v=0
28799 On ch=1 n=d5 v=0
28800 On ch=1 n=c#5 v=89
29035 On ch=1 n=c#5 v=0
29280 On ch=1 n=d5 v=88
29524 On ch=1 n=b4 v=89
29542 On ch=1 n=d5 v=0
29759 On ch=1 n=b4 v=0
30004 On ch=1 n=c#5 v=81
30239 On ch=1 n=c#5 v=0
30240 On ch=1 n=e4 v=77
30249 On ch=1 n=f#4 v=77
30964 On ch=1 n=d5 v=78
30973 On ch=1 n=f#4 v=0
30982 On ch=1 n=e4 v=0
31199 On ch=1 n=d5 v=0
31317 On ch=1 n=e5 v=89
31444 On ch=1 n=d5 v=89
31471 On ch=1 n=e5 v=0
31679 On ch=1 n=d5 v=0
31680 On ch=1 n=c#5 v=89
31915 On ch=1 n=c#5 v=0
32160 On ch=1 n=d5 v=89
32404 On ch=1 n=b4 v=80
32422 On ch=1 n=d5 v=0
32639 On ch=1 n=b4 v=0
32884 On ch=1 n=g5 v=89
33119 On ch=1 n=g5 v=0
33120 On ch=1 n=f#5 v=82
34560 On ch=1 n=f#5 v=0
34560 On ch=1 n=f5 v=96
35293 On ch=1 n=f5 v=0
35293 On ch=1 n=e5 v=88
36000 On ch=1 n=e5 v=0
36000 On ch=1 n=d#5 v=79
36724 On ch=1 n=d5 v=75
36742 On ch=1 n=d#5 v=0
37421 On ch=1 n=d5 v=0
37440 On ch=1 n=c#5 v=74
37675 On ch=1 n=c#5 v=0
37920 On ch=1 n=c5 v=60
38164 On ch=1 n=e5 v=77
38200 On ch=1 n=c5 v=0
38399 On ch=1 n=e5 v=0
38644 On ch=1 n=a#4 v=66
38879 On ch=1 n=a#4 v=0
38880 On ch=1 n=b4 v=93
39115 On ch=1 n=b4 v=0
39360 On ch=1 n=f#6 v=84
39360 On ch=1 n=f#5 v=84
39595 On ch=1 n=f#5 v=0
39595 On ch=1 n=f#6 v=0
39604 On ch=1 n=g5 v=93
39604 On ch=1 n=g6 v=93
39839 On ch=1 n=g6 v=0
39839 On ch=1 n=g5 v=0
39840 On ch=1 n=c#6 v=87
39840 On ch=1 n=e6 v=87
40075 On ch=1 n=e6 v=0
40075 On ch=1 n=c#6 v=0
40084 On ch=1 n=a#5 v=92
40084 On ch=1 n=a#6 v=92
40319 On ch=1 n=a#6 v=0
40319 On ch=1 n=a#5 v=0
40320 On ch=1 n=b5 v=103
40320 On ch=1 n=b6 v=103
40555 On ch=1 n=b6 v=0
40555 On ch=1 n=b5 v=0
40564 On ch=1 n=d6 v=81
40799 On ch=1 n=d6 v=0
40800 On ch=1 n=f#6 v=82
40800 On ch=1 n=f#5 v=82
41035 On ch=1 n=f#5 v=0
41035 On ch=1 n=f#6 v=0
41044 On ch=1 n=g5 v=99
41044 On ch=1 n=g6 v=99
41279 On ch=1 n=g6 v=0
41279 On ch=1 n=g5 v=0
41280 On ch=1 n=e6 v=82
41280 On ch=1 n=c#6 v=82
41515 On ch=1 n=c#6 v=0
41515 On ch=1 n=e6 v=0
41524 On ch=1 n=a#6 v=90
41524 On ch=1 n=a#5 v=90
41759 On ch=1 n=a#5 v=0
41759 On ch=1 n=a#6 v=0
41760 On ch=1 n=b5 v=98
41760 On ch=1 n=b6 v=98
41995 On ch=1 n=b6 v=0
41995 On ch=1 n=b5 v=0
42004 On ch=1 n=a6 v=82
42004 On ch=1 n=f#6 v=82
42239 On ch=1 n=f#6 v=0
42239 On ch=1 n=a6 v=0
42240 On ch=1 n=b6 v=98
42240 On ch=1 n=b5 v=98
42475 On ch=1 n=b5 v=0
42475 On ch=1 n=b6 v=0
42484 On ch=1 n=e6 v=87
42484 On ch=1 n=g6 v=87
42719 On ch=1 n=g6 v=0
42719 On ch=1 n=e6 v=0
42720 On ch=1 n=a#6 v=95
42738 On ch=1 n=a#5 v=95
42955 On ch=1 n=a#6 v=0
42964 On ch=1 n=b5 v=103
42964 On ch=1 n=b6 v=103
42973 On ch=1 n=a#5 v=0
43199 On ch=1 n=b6 v=0
43199 On ch=1 n=b5 v=0
43200 On ch=1 n=d6 v=113
43200 On ch=1 n=d7 v=113
43435 On ch=1 n=d6 v=0
43444 On ch=1 n=f#6 v=60
43444 On ch=1 n=a6 v=60
43679 On ch=1 n=a6 v=0
43679 On ch=1 n=f#6 v=0
43680 On ch=1 n=d6 v=67
43915 On ch=1 n=d6 v=0
43924 On ch=1 n=a#6 v=74
43924 On ch=1 n=g6 v=74
44159 On ch=1 n=g6 v=0
44159 On ch=1 n=a#6 v=0
44160 On ch=1 n=d6 v=67
44395 On ch=1 n=d6 v=0
44404 On ch=1 n=g6 v=74
44404 On ch=1 n=a#6 v=74
44639 On ch=1 n=a#6 v=0
44639 On ch=1 n=g6 v=0
44640 On ch=1 n=d6 v=80
44875 On ch=1 n=d6 v=0
44884 On ch=1 n=a6 v=80
44884 On ch=1 n=f#6 v=80
44902 On ch=1 n=d7 v=0
45119 On ch=1 n=f#6 v=0
45119 On ch=1 n=a6 v=0
45120 On ch=1 n=a6 v=101
45120 On ch=1 n=a5 v=101
45355 On ch=1 n=a5 v=0
45355 On ch=1 n=a6 v=0
45364 On ch=1 n=a#5 v=115
45364 On ch=1 n=a#6 v=115
45599 On ch=1 n=a#6 v=0
45599 On ch=1 n=a#5 v=0
45600 On ch=1 n=g6 v=79
45600 On ch=1 n=e6 v=79
45835 On ch=1 n=e6 v=0
45835 On ch=1 n=g6 v=0
45844 On ch=1 n=c#6 v=99
45844 On ch=1 n=c#7 v=99
46079 On ch=1 n=c#7 v=0
46079 On ch=1 n=c#6 v=0
46080 On ch=1 n=d7 v=113
46080 On ch=1 n=d6 v=113
46315 On ch=1 n=d6 v=0
46315 On ch=1 n=d7 v=0
46324 On ch=1 n=f#6 v=75
46324 On ch=1 n=a6 v=75
46559 On ch=1 n=a6 v=0
46559 On ch=1 n=f#6 v=0
46560 On ch=1 n=a6 v=88
46560 On ch=1 n=a5 v=88
46795 On ch=1 n=a5 v=0
46795 On ch=1 n=a6 v=0
46804 On ch=1 n=a#5 v=113
46804 On ch=1 n=a#6 v=113
47039 On ch=1 n=a#6 v=0
47039 On ch=1 n=a#5 v=0
47040 On ch=1 n=e6 v=87
47040 On ch=1 n=g6 v=87
47275 On ch=1 n=g6 v=0
47275 On ch=1 n=e6 v=0
47284 On ch=1 n=c#7 v=106
47284 On ch=1 n=c#6 v=106
47519 On ch=1 n=c#6 v=0
47519 On ch=1 n=c#7 v=0
47520 On ch=1 n=d7 v=124
47520 On ch=1 n=d6 v=124
47755 On ch=1 n=d6 v=0
47755 On ch=1 n=d7 v=0
47764 On ch=1 n=f#6 v=90
47764 On ch=1 n=a6 v=90
47999 On ch=1 n=a6 v=0
47999 On ch=1 n=f#6 v=0
48000 On ch=1 n=d6 v=113
48000 On ch=1 n=d7 v=113
48235 On ch=1 n=d7 v=0
48235 On ch=1 n=d6 v=0
48244 On ch=1 n=b6 v=96
48244 On ch=1 n=g6 v=96
48479 On ch=1 n=g6 v=0
48479 On ch=1 n=b6 v=0
48480 On ch=1 n=c#7 v=86
48480 On ch=1 n=c#6 v=86
48715 On ch=1 n=c#6 v=0
48715 On ch=1 n=c#7 v=0
48724 On ch=1 n=d7 v=102
48724 On ch=1 n=d6 v=102
48959 On ch=1 n=d6 v=0
48959 On ch=1 n=d7 v=0
48960 On ch=1 n=f#6 v=117
48960 On ch=1 n=f#7 v=117
49195 On ch=1 n=f#6 v=0
49204 On ch=1 n=c#7 v=64
49204 On ch=1 n=a#6 v=64
49439 On ch=1 n=a#6 v=0
49439 On ch=1 n=c#7 v=0
49440 On ch=1 n=f#6 v=81
49675 On ch=1 n=f#6 v=0
49684 On ch=1 n=d7 v=71
49684 On ch=1 n=b6 v=71
49919 On ch=1 n=b6 v=0
49919 On ch=1 n=d7 v=0
49920 On ch=1 n=f#6 v=78
50155 On ch=1 n=f#6 v=0
50164 On ch=1 n=b6 v=84
50164 On ch=1 n=d7 v=84
50399 On ch=1 n=d7 v=0
50399 On ch=1 n=b6 v=0
50400 On ch=1 n=f#6 v=92
50635 On ch=1 n=f#6 v=0
50644 On ch=1 n=a#6 v=77
50807 On ch=1 n=f#7 v=0
50879 On ch=1 n=a#6 v=0
50880 On ch=1 n=c#6 v=102
50880 On ch=1 n=c#7 v=102
51115 On ch=1 n=c#7 v=0
51115 On ch=1 n=c#6 v=0
51124 On ch=1 n=d7 v=102
51124 On ch=1 n=d6 v=102
51359 On ch=1 n=d6 v=0
51359 On ch=1 n=d7 v=0
51360 On ch=1 n=f#6 v=81
51360 On ch=1 n=b6 v=81
51595 On ch=1 n=b6 v=0
51595 On ch=1 n=f#6 v=0
51604 On ch=1 n=d#7 v=102
51604 On ch=1 n=d#6 v=102
51839 On ch=1 n=d#6 v=0
51839 On ch=1 n=d#7 v=0
51840 On ch=1 n=e7 v=106
51840 On ch=1 n=e6 v=106
52075 On ch=1 n=e6 v=0
52075 On ch=1 n=e7 v=0
52084 On ch=1 n=b6 v=91
52084 On ch=1 n=g#6 v=91
52319 On ch=1 n=g#6 v=0
52319 On ch=1 n=b6 v=0
52320 On ch=1 n=e6 v=89
52555 On ch=1 n=e6 v=0
52564 On ch=1 n=a6 v=88
52564 On ch=1 n=c#7 v=88
52799 On ch=1 n=c#7 v=0
52799 On ch=1 n=a6 v=0
52917 On ch=1 n=f#7 v=100
52926 On ch=1 n=f#6 v=100
53034 On ch=1 n=f#7 v=0
53043 On ch=1 n=f#6 v=0
53044 On ch=1 n=e7 v=100
53044 On ch=1 n=e6 v=100
53279 On ch=1 n=e6 v=0
53279 On ch=1 n=e7 v=0
53280 On ch=1 n=d6 v=105
53280 On ch=1 n=d7 v=105
53515 On ch=1 n=d7 v=0
53515 On ch=1 n=d6 v=0
53524 On ch=1 n=f#6 v=103
53524 On ch=1 n=a6 v=103
53759 On ch=1 n=a6 v=0
53759 On ch=1 n=f#6 v=0
53760 On ch=1 n=c#7 v=100
53760 On ch=1 n=c#6 v=100
53995 On ch=1 n=c#6 v=0
53995 On ch=1 n=c#7 v=0
54004 On ch=1 n=b6 v=108
54004 On ch=1 n=b5 v=108
54239 On ch=1 n=b5 v=0
54239 On ch=1 n=b6 v=0
54240 On ch=1 n=d6 v=117
54240 On ch=1 n=g#6 v=117
54475 On ch=1 n=g#6 v=0
54475 On ch=1 n=d6 v=0
54484 On ch=1 n=c#7 v=100
54484 On ch=1 n=c#6 v=100
54719 On ch=1 n=c#6 v=0
54719 On ch=1 n=c#7 v=0
54720 On ch=1 n=f#6 v=108
54720 On ch=1 n=f#5 v=108
54955 On ch=1 n=f#5 v=0
54964 On ch=1 n=a#5 v=85
54964 On ch=1 n=c#6 v=85
55199 On ch=1 n=c#6 v=0
55199 On ch=1 n=a#5 v=0
55200 On ch=1 n=f#5 v=78
55435 On ch=1 n=f#5 v=0
55444 On ch=1 n=b5 v=102
55444 On ch=1 n=d6 v=102
55562 On ch=1 n=f#6 v=0
55679 On ch=1 n=d6 v=0
55679 On ch=1 n=b5 v=0
55806 On ch=1 n=e7 v=89
55806 On ch=1 n=e6 v=89
55923 On ch=1 n=e6 v=0
55923 On ch=1 n=e7 v=0
55924 On ch=1 n=d7 v=93
55924 On ch=1 n=d6 v=93
56159 On ch=1 n=d6 v=0
56159 On ch=1 n=d7 v=0
56160 On ch=1 n=c#6 v=88
56160 On ch=1 n=c#7 v=88
56395 On ch=1 n=c#7 v=0
56395 On ch=1 n=c#6 v=0
56404 On ch=1 n=f#6 v=62
56404 On ch=1 n=e6 v=62
56639 On ch=1 n=e6 v=0
56639 On ch=1 n=f#6 v=0
56640 On ch=1 n=d7 v=56
56640 On ch=1 n=d6 v=56
56875 On ch=1 n=d6 v=0
56875 On ch=1 n=d7 v=0
56884 On ch=1 n=b6 v=64
56884 On ch=1 n=b5 v=64
57119 On ch=1 n=b5 v=0
57119 On ch=1 n=b6 v=0
57120 On ch=1 n=d6 v=60
57120 On ch=1 n=f#6 v=60
57355 On ch=1 n=f#6 v=0
57355 On ch=1 n=d6 v=0
57364 On ch=1 n=d7 v=71
57364 On ch=1 n=d6 v=71
57599 On ch=1 n=d6 v=0
57599 On ch=1 n=d7 v=0
57600 On ch=1 n=f#5 v=74
57600 On ch=1 n=f#6 v=74
57835 On ch=1 n=f#6 v=0
57835 On ch=1 n=f#5 v=0
57844 On ch=1 n=b5 v=74
57844 On ch=1 n=d#6 v=74
58079 On ch=1 n=d#6 v=0
58079 On ch=1 n=b5 v=0
58080 On ch=1 n=g6 v=83
58080 On ch=1 n=g5 v=83
58315 On ch=1 n=g5 v=0
58315 On ch=1 n=g6 v=0
58324 On ch=1 n=e6 v=82
58324 On ch=1 n=e5 v=82
58559 On ch=1 n=e5 v=0
58559 On ch=1 n=e6 v=0
58560 On ch=1 n=b5 v=77
58560 On ch=1 n=g5 v=77
58795 On ch=1 n=g5 v=0
58795 On ch=1 n=b5 v=0
58804 On ch=1 n=b6 v=87
58804 On ch=1 n=b5 v=87
59039 On ch=1 n=b5 v=0
59039 On ch=1 n=b6 v=0
59040 On ch=1 n=d5 v=90
59040 On ch=1 n=d6 v=90
59275 On ch=1 n=d6 v=0
59275 On ch=1 n=d5 v=0
59284 On ch=1 n=b5 v=84
59284 On ch=1 n=f#5 v=84
59519 On ch=1 n=f#5 v=0
59519 On ch=1 n=b5 v=0
59520 On ch=1 n=e6 v=94
59520 On ch=1 n=e5 v=94
59755 On ch=1 n=e5 v=0
59755 On ch=1 n=e6 v=0
59764 On ch=1 n=c#5 v=95
59764 On ch=1 n=c#6 v=95
59999 On ch=1 n=c#6 v=0
59999 On ch=1 n=c#5 v=0
60000 On ch=1 n=a#5 v=93
60000 On ch=1 n=g5 v=93
60235 On ch=1 n=g5 v=0
60235 On ch=1 n=a#5 v=0
60244 On ch=1 n=g6 v=88
60244 On ch=1 n=g5 v=88
60244 On ch=1 n=g6 v=90
60244 On ch=1 n=g5 v=90
60479 On ch=1 n=g5 v=0
60479 On ch=1 n=g6 v=0
60479 On ch=1 n=g5 v=0
60479 On ch=1 n=g6 v=0
60480 On ch=1 n=g6 v=125
60480 On ch=1 n=g5 v=125
60715 On ch=1 n=g5 v=0
60715 On ch=1 n=g6 v=0
60724 On ch=1 n=a#5 v=97
60724 On ch=1 n=c#6 v=97
60959 On ch=1 n=c#6 v=0
60959 On ch=1 n=a#5 v=0
60960 On ch=1 n=a#6 v=111
60960 On ch=1 n=a#5 v=111
61195 On ch=1 n=a#5 v=0
61195 On ch=1 n=a#6 v=0
61204 On ch=1 n=c#7 v=94
61204 On ch=1 n=c#6 v=94
61439 On ch=1 n=c#6 v=0
61439 On ch=1 n=c#7 v=0
61440 On ch=1 n=d7 v=105
61440 On ch=1 n=d6 v=105
61675 On ch=1 n=d6 v=0
61675 On ch=1 n=d7 v=0
61684 On ch=1 n=e7 v=118
61684 On ch=1 n=e6 v=118
61919 On ch=1 n=e6 v=0
61919 On ch=1 n=e7 v=0
61920 On ch=1 n=g7 v=127
61920 On ch=1 n=g6 v=127
62155 On ch=1 n=g6 v=0
62155 On ch=1 n=g7 v=0
62164 On ch=1 n=b6 v=106
62164 On ch=1 n=d7 v=106
62399 On ch=1 n=d7 v=0
62399 On ch=1 n=b6 v=0
62400 On ch=1 n=g6 v=95
62635 On ch=1 n=g6 v=0
62644 On ch=1 n=f#7 v=106
62644 On ch=1 n=f#6 v=106
62879 On ch=1 n=f#6 v=0
62879 On ch=1 n=f#7 v=0
62880 On ch=1 n=b6 v=95
62880 On ch=1 n=g6 v=95
63115 On ch=1 n=g6 v=0
63115 On ch=1 n=b6 v=0
63124 On ch=1 n=f#6 v=98
63359 On ch=1 n=f#6 v=0
63360 On ch=1 n=f7 v=106
63360 On ch=1 n=f6 v=106
63595 On ch=1 n=f6 v=0
63595 On ch=1 n=f7 v=0
63604 On ch=1 n=b6 v=96
63604 On ch=1 n=c#7 v=96
63839 On ch=1 n=c#7 v=0
63839 On ch=1 n=b6 v=0
63840 On ch=1 n=f6 v=89
64075 On ch=1 n=f6 v=0
64084 On ch=1 n=e6 v=111
64084 On ch=1 n=e7 v=111
64319 On ch=1 n=e7 v=0
64319 On ch=1 n=e6 v=0
64320 On ch=1 n=a#6 v=103
64320 On ch=1 n=f#6 v=103
64555 On ch=1 n=f#6 v=0
64555 On ch=1 n=a#6 v=0
64564 On ch=1 n=e6 v=94
64799 On ch=1 n=e6 v=0
64800 On ch=1 n=d6 v=110
64800 On ch=1 n=d7 v=110
65035 On ch=1 n=d7 v=0
65035 On ch=1 n=d6 v=0
65044 On ch=1 n=b6 v=102
65044 On ch=1 n=f#6 v=102
65279 On ch=1 n=f#6 v=0
65279 On ch=1 n=b6 v=0
65280 On ch=1 n=d6 v=89
65515 On ch=1 n=d6 v=0
65524 On ch=1 n=d6 v=109
65524 On ch=1 n=d5 v=109
65759 On ch=1 n=d5 v=0
65759 On ch=1 n=d6 v=0
65760 On ch=1 n=b5 v=98
65760 On ch=1 n=g#5 v=98
65995 On ch=1 n=g#5 v=0
65995 On ch=1 n=b5 v=0
66004 On ch=1 n=d5 v=87
66239 On ch=1 n=d5 v=0
66240 On ch=1 n=d6 v=116
66240 On ch=1 n=d7 v=116
66475 On ch=1 n=d7 v=0
66475 On ch=1 n=d6 v=0
66484 On ch=1 n=f#6 v=105
66484 On ch=1 n=b6 v=105
66719 On ch=1 n=b6 v=0
66719 On ch=1 n=f#6 v=0
66720 On ch=1 n=d6 v=95
66955 On ch=1 n=d6 v=0
66964 On ch=1 n=c#6 v=114
66964 On ch=1 n=c#7 v=114
67199 On ch=1 n=c#7 v=0
67199 On ch=1 n=c#6 v=0
67200 On ch=1 n=a#6 v=106
67200 On ch=1 n=f#6 v=106
67435 On ch=1 n=f#6 v=0
67435 On ch=1 n=a#6 v=0
67444 On ch=1 n=c#6 v=93
67679 On ch=1 n=c#6 v=0
67680 On ch=1 n=f#5 v=80
67915 On ch=1 n=f#5 v=0
67924 On ch=1 n=c#6 v=61
67924 On ch=1 n=f#6 v=61
68159 On ch=1 n=f#6 v=0
68159 On ch=1 n=c#6 v=0
68160 On ch=1 n=f#5 v=64
68395 On ch=1 n=f#5 v=0
68404 On ch=1 n=f#6 v=74
68404 On ch=1 n=b5 v=74
68639 On ch=1 n=b5 v=0
68639 On ch=1 n=f#6 v=0
68640 On ch=1 n=f#5 v=67
68875 On ch=1 n=f#5 v=0
68884 On ch=1 n=b5 v=78
68884 On ch=1 n=f#6 v=78
69119 On ch=1 n=f#6 v=0
69119 On ch=1 n=b5 v=0
69120 On ch=1 n=f5 v=88
69355 On ch=1 n=f5 v=0
69364 On ch=1 n=f6 v=66
69364 On ch=1 n=b5 v=66
69599 On ch=1 n=b5 v=0
69599 On ch=1 n=f6 v=0
69600 On ch=1 n=e5 v=88
69835 On ch=1 n=e5 v=0
69844 On ch=1 n=e6 v=69
69844 On ch=1 n=a#5 v=69
70079 On ch=1 n=a#5 v=0
70079 On ch=1 n=e6 v=0
70080 On ch=1 n=e5 v=93
70315 On ch=1 n=e5 v=0
70324 On ch=1 n=a#5 v=84
70324 On ch=1 n=e6 v=84
70559 On ch=1 n=e6 v=0
70559 On ch=1 n=a#5 v=0
70560 On ch=1 n=d#5 v=103
70795 On ch=1 n=d#5 v=0
70804 On ch=1 n=f#5 v=84
70804 On ch=1 n=b5 v=84
70804 On ch=1 n=d#6 v=84
71039 On ch=1 n=d#6 v=0
71039 On ch=1 n=b5 v=0
71039 On ch=1 n=f#5 v=0
71040 On ch=1 n=d5 v=98
71275 On ch=1 n=d5 v=0
71284 On ch=1 n=g5 v=101
71284 On ch=1 n=b5 v=101
71284 On ch=1 n=d6 v=101
71519 On ch=1 n=d6 v=0
71519 On ch=1 n=b5 v=0
71519 On ch=1 n=g5 v=0
71520 On ch=1 n=d5 v=104
71755 On ch=1 n=d5 v=0
71764 On ch=1 n=g5 v=108
71764 On ch=1 n=d6 v=108
71999 On ch=1 n=d6 v=0
71999 On ch=1 n=g5 v=0
72000 On ch=1 n=c5 v=111
72235 On ch=1 n=c5 v=0
72244 On ch=1 n=g5 v=115
72244 On ch=1 n=c6 v=115
72479 On ch=1 n=c6 v=0
72479 On ch=1 n=g5 v=0
72480 On ch=1 n=b4 v=118
72715 On ch=1 n=b4 v=0
72724 On ch=1 n=e5 v=122
72724 On ch=1 n=f#5 v=122
72724 On ch=1 n=b5 v=122
72959 On ch=1 n=b5 v=0
72959 On ch=1 n=f#5 v=0
72959 On ch=1 n=e5 v=0
72960 On ch=1 n=a#4 v=125
73195 On ch=1 n=a#4 v=0
73204 On ch=1 n=e5 v=127
73204 On ch=1 n=f#5 v=127
73204 On ch=1 n=a#5 v=127
73419 On ch=1 n=a#5 v=0
73419 On ch=1 n=f#5 v=0
73419 On ch=1 n=e5 v=0
73440 On ch=1 n=b6 v=127
73440 On ch=1 n=b5 v=127
73440 On ch=1 n=d#6 v=127
74164 On ch=1 n=d#5 v=93
74164 On ch=1 n=b4 v=93
74173 On ch=1 n=d#6 v=0
74182 On ch=1 n=b5 v=0
74200 On ch=1 n=b6 v=0
74880 On ch=1 n=e5 v=104
74916 On ch=1 n=d#5 v=0
75124 On ch=1 n=d#5 v=93
75142 On ch=1 n=e5 v=0
75151 On ch=1 n=b4 v=0
75360 On ch=1 n=a#4 v=107
75360 On ch=1 n=g#5 v=107
75378 On ch=1 n=d#5 v=0
75595 On ch=1 n=a#4 v=0
75604 On ch=1 n=b4 v=87
75604 On ch=1 n=f#5 v=87
75622 On ch=1 n=g#5 v=0
75839 On ch=1 n=b4 v=0
75849 On ch=1 n=f#5 v=0
76084 On ch=1 n=f4 v=116
76084 On ch=1 n=b4 v=116
76319 On ch=1 n=b4 v=0
76319 On ch=1 n=f4 v=0
76320 On ch=1 n=e4 v=127
76320 On ch=1 n=c#5 v=127
76320 Par ch=1 c=64 v=127
76320 On ch=1 n=b4 v=127
76818 On ch=1 n=b4 v=0
76827 On ch=1 n=c#5 v=0
76827 On ch=1 n=e4 v=0
77020 Par ch=1 c=64 v=0
77044 Par ch=1 c=64 v=127
77044 On ch=1 n=g7 v=81
77144 On ch=1 n=g7 v=0
77162 On ch=1 n=f#7 v=84
77262 On ch=1 n=f#7 v=0
77280 On ch=1 n=e7 v=86
77380 On ch=1 n=e7 v=0
77406 On ch=1 n=d#7 v=89
77506 On ch=1 n=d#7 v=0
77524 On ch=1 n=c#7 v=92
77624 On ch=1 n=c#7 v=0
77642 On ch=1 n=b6 v=94
77742 On ch=1 n=b6 v=0
77769 On ch=1 n=a#6 v=97
77869 On ch=1 n=a#6 v=0
77886 On ch=1 n=g#6 v=103
77986 On ch=1 n=g#6 v=0
78004 On ch=1 n=f#6 v=108
78104 On ch=1 n=f#6 v=0
78122 On ch=1 n=e6 v=112
78222 On ch=1 n=e6 v=0
78249 On ch=1 n=d#6 v=117
78349 On ch=1 n=d#6 v=0
78366 On ch=1 n=c#6 v=121
78466 On ch=1 n=c#6 v=0
78484 On ch=1 n=b5 v=125
78584 On ch=1 n=b5 v=0
78602 On ch=1 n=a#5 v=127
78702 On ch=1 n=a#5 v=0
78720 On ch=1 n=g#5 v=124
78820 On ch=1 n=g#5 v=0
78846 On ch=1 n=f#5 v=121
78946 On ch=1 n=f#5 v=0
78964 On ch=1 n=f5 v=118
79064 On ch=1 n=f5 v=0
79082 On ch=1 n=e5 v=114
79182 On ch=1 n=e5 v=0
79200 On ch=1 n=d#5 v=110
79924 On ch=1 n=d5 v=84
79924 On ch=1 n=f5 v=84
79960 On ch=1 n=d#5 v=0
80640 On ch=1 n=g#5 v=93
80640 On ch=1 n=d#5 v=93
80667 On ch=1 n=d5 v=0
80676 On ch=1 n=f5 v=0
80884 On ch=1 n=f#5 v=80
80902 On ch=1 n=d#5 v=0
80902 On ch=1 n=g#5 v=0
81120 On ch=1 n=d5 v=113
81129 On ch=1 n=b5 v=113
81165 On ch=1 n=f#5 v=0
81364 On ch=1 n=a#5 v=98
81364 On ch=1 n=d#5 v=98
81400 On ch=1 n=d5 v=0
81409 On ch=1 n=b5 v=0
81636 On ch=1 n=d#5 v=0
81636 On ch=1 n=a#5 v=0
81844 On ch=1 n=d#5 v=123
81844 On ch=1 n=f4 v=123
81844 On ch=1 n=a4 v=123
82043 On ch=1 n=a4 v=0
82052 On ch=1 n=d#5 v=0
82061 On ch=1 n=f4 v=0
82080 On ch=1 n=f5 v=126
82089 On ch=1 n=d#5 v=126
82089 On ch=1 n=a#4 v=126
82089 On ch=1 n=f4 v=126
82587 On ch=1 n=f4 v=0
82587 On ch=1 n=a#4 v=0
82587 On ch=1 n=d#5 v=0
82587 On ch=1 n=f5 v=0
82804 On ch=1 n=b7 v=76
82918 On ch=1 n=b7 v=0
82922 On ch=1 n=a#7 v=79
83036 On ch=1 n=a#7 v=0
83046 On ch=1 n=g#7 v=83
83160 On ch=1 n=g#7 v=0
83163 On ch=1 n=f#7 v=84
83277 On ch=1 n=f#7 v=0
83281 On ch=1 n=f7 v=88
83395 On ch=1 n=f7 v=0
83399 On ch=1 n=d#7 v=93
83513 On ch=1 n=d#7 v=0
83517 On ch=1 n=d7 v=97
83631 On ch=1 n=d7 v=0
83643 On ch=1 n=b6 v=101
83757 On ch=1 n=b6 v=0
83767 On ch=1 n=a#6 v=107
83876 On ch=1 n=g#6 v=113
83881 On ch=1 n=a#6 v=0
83990 On ch=1 n=g#6 v=0
83994 On ch=1 n=f#6 v=118
84108 On ch=1 n=f#6 v=0
84120 On ch=1 n=f6 v=125
84234 On ch=1 n=f6 v=0
84238 On ch=1 n=d#6 v=121
84352 On ch=1 n=d#6 v=0
84356 On ch=1 n=d6 v=116
84470 On ch=1 n=d6 v=0
84474 On ch=1 n=b5 v=112
84588 On ch=1 n=b5 v=0
84600 On ch=1 n=a#5 v=107
84714 On ch=1 n=a#5 v=0
84718 On ch=1 n=a5 v=103
84832 On ch=1 n=a5 v=0
84836 On ch=1 n=g#5 v=98
84950 On ch=1 n=g#5 v=0
84954 On ch=1 n=g5 v=93
85406 On ch=1 n=g5 v=0
85434 On ch=1 n=d#6 v=76
85434 On ch=1 n=g5 v=76
85678 On ch=1 n=g#5 v=81
85678 On ch=1 n=e6 v=81
85696 On ch=1 n=d#6 v=0
85723 On ch=1 n=g5 v=0
85923 On ch=1 n=d#6 v=74
85923 On ch=1 n=g5 v=74
85941 On ch=1 n=e6 v=0
85968 On ch=1 n=g#5 v=0
86158 On ch=1 n=d6 v=67
86167 On ch=1 n=g#5 v=67
86185 On ch=1 n=g5 v=0
86185 On ch=1 n=d#6 v=0
86403 On ch=1 n=g5 v=56
86403 On ch=1 n=d#6 v=56
86412 On ch=1 n=g#5 v=0
86412 On ch=1 n=d6 v=0
86629 On ch=1 n=d#6 v=0
86665 On ch=1 n=g5 v=0
86874 On ch=1 n=d#6 v=31
86874 On ch=1 n=g5 v=31
87118 On ch=1 n=g#5 v=33
87118 On ch=1 n=e6 v=33
87136 On ch=1 n=g5 v=0
87172 On ch=1 n=d#6 v=0
87363 On ch=1 n=g5 v=35
87363 On ch=1 n=d#6 v=35
87390 On ch=1 n=g#5 v=0
87408 On ch=1 n=e6 v=0
87598 On ch=1 n=g#5 v=37
87598 On ch=1 n=d6 v=37
87625 On ch=1 n=d#6 v=0
87625 On ch=1 n=g5 v=0
87834 On ch=1 n=g5 v=39
87834 On ch=1 n=d#6 v=39
87861 On ch=1 n=g#5 v=0
87879 On ch=1 n=d6 v=0
88259 On ch=1 n=d#6 v=0
88259 On ch=1 n=g5 v=0
88314 On ch=1 n=d6 v=118
88314 On ch=1 n=g#5 v=118
88558 On ch=1 n=d#6 v=123
88558 On ch=1 n=g5 v=123
88567 On ch=1 n=d6 v=0
88585 On ch=1 n=g#5 v=0
88938 On ch=1 n=g5 v=0
88938 On ch=1 n=d#6 v=0
89038 On ch=1 n=g#5 v=65
89038 On ch=1 n=d6 v=65
89274 On ch=1 n=g5 v=74
89283 On ch=1 n=d#6 v=74
89319 On ch=1 n=g#5 v=0
89337 On ch=1 n=d6 v=0
89518 On ch=1 n=g#5 v=84
89527 On ch=1 n=d#6 v=0
89527 On ch=1 n=d6 v=84
89536 On ch=1 n=g5 v=0
89754 On ch=1 n=d#6 v=103
89763 On ch=1 n=g5 v=103
89781 On ch=1 n=d6 v=0
89781 On ch=1 n=g#5 v=0
89998 On ch=1 n=d6 v=84
89998 On ch=1 n=g#5 v=84
90007 On ch=1 n=d#6 v=0
90025 On ch=1 n=g5 v=0
90234 On ch=1 n=g5 v=69
90243 On ch=1 n=d#6 v=69
90270 On ch=1 n=d6 v=0
90279 On ch=1 n=g#5 v=0
90478 On ch=1 n=d6 v=54
90478 On ch=1 n=g#5 v=54
90505 On ch=1 n=d#6 v=0
90514 On ch=1 n=g5 v=0
90714 On ch=1 n=g5 v=40
90723 On ch=1 n=g#5 v=0
90723 On ch=1 n=d#6 v=39
90750 On ch=1 n=d6 v=0
91221 On ch=1 n=d#6 v=0
91239 On ch=1 n=g5 v=0
91438 On ch=1 n=g#7 v=74
91552 On ch=1 n=g#7 v=0
91556 On ch=1 n=a7 v=79
91670 On ch=1 n=a7 v=0
91674 On ch=1 n=g#7 v=84
91788 On ch=1 n=g#7 v=0
91800 On ch=1 n=f#7 v=90
91914 On ch=1 n=f#7 v=0
91924 On ch=1 n=e7 v=97
92033 On ch=1 n=d#7 v=102
92038 On ch=1 n=e7 v=0
92147 On ch=1 n=d#7 v=0
92151 On ch=1 n=c#7 v=108
92265 On ch=1 n=c#7 v=0
92277 On ch=1 n=d#7 v=113
92391 On ch=1 n=d#7 v=0
92395 On ch=1 n=c#7 v=119
92509 On ch=1 n=c#7 v=0
92513 On ch=1 n=b6 v=125
92627 On ch=1 n=b6 v=0
92631 On ch=1 n=a#6 v=127
92745 On ch=1 n=a#6 v=0
92757 On ch=1 n=g#6 v=123
92871 On ch=1 n=g#6 v=0
92875 On ch=1 n=g6 v=120
92989 On ch=1 n=g6 v=0
92993 On ch=1 n=g#6 v=117
93107 On ch=1 n=g#6 v=0
93111 On ch=1 n=f#6 v=113
93225 On ch=1 n=f#6 v=0
93237 On ch=1 n=e6 v=109
93351 On ch=1 n=e6 v=0
93355 On ch=1 n=d#6 v=105
93469 On ch=1 n=d#6 v=0
93473 On ch=1 n=c#6 v=102
93587 On ch=1 n=c#6 v=0
93591 On ch=1 n=d#6 v=98
93705 On ch=1 n=d#6 v=0
93717 On ch=1 n=e6 v=93
93831 On ch=1 n=e6 v=0
93835 On ch=1 n=d#6 v=90
93949 On ch=1 n=d#6 v=0
93953 On ch=1 n=c#6 v=87
94067 On ch=1 n=c#6 v=0
94071 On ch=1 n=b5 v=84
94185 On ch=1 n=b5 v=0
94197 On ch=1 n=a#5 v=79
94311 On ch=1 n=a#5 v=0
94315 On ch=1 n=g#5 v=77
94429 On ch=1 n=g#5 v=0
94433 On ch=1 n=a#5 v=74
94547 On ch=1 n=a#5 v=0
94551 On ch=1 n=g#5 v=70
94665 On ch=1 n=g#5 v=0
94677 On ch=1 n=f#5 v=66
94791 On ch=1 n=f#5 v=0
94795 On ch=1 n=f5 v=63
94909 On ch=1 n=f5 v=0
94913 On ch=1 n=d#5 v=60
95027 On ch=1 n=d#5 v=0
95031 On ch=1 n=d5 v=74
95145 On ch=1 n=d5 v=0
95157 On ch=1 n=b4 v=85
95271 On ch=1 n=b4 v=0
95275 On ch=1 n=a#4 v=96
95389 On ch=1 n=a#4 v=0
95393 On ch=1 n=g#4 v=107
95507 On ch=1 n=g#4 v=0
95517 On ch=1 n=f#4 v=118
95631 On ch=1 n=f#4 v=0
95634 On ch=1 n=f4 v=123
95748 On ch=1 n=f4 v=0
95752 On ch=1 n=d#4 v=113
95866 On ch=1 n=d#4 v=0
95870 On ch=1 n=d4 v=103
95984 On ch=1 n=d4 v=0
95988 On ch=1 n=b3 v=93
96102 On ch=1 n=b3 v=0
96114 On ch=1 n=a#3 v=83
96228 On ch=1 n=a#3 v=0
96232 On ch=1 n=f3 v=120
96346 On ch=1 n=f3 v=0
96350 On ch=1 n=a#3 v=127
96464 On ch=1 n=a#3 v=0
97192 On ch=1 n=f#5 v=93
97192 On ch=1 n=d#5 v=93
97908 On ch=1 n=d5 v=104
97908 On ch=1 n=g#5 v=104
97944 On ch=1 n=d#5 v=0
97944 On ch=1 n=f#5 v=0
98152 On ch=1 n=d#5 v=93
98152 On ch=1 n=f#5 v=100
98170 On ch=1 n=g#5 v=0
98170 On ch=1 n=d5 v=0
98388 On ch=1 n=b5 v=107
98388 On ch=1 n=d5 v=107
98406 On ch=1 n=f#5 v=0
98406 On ch=1 n=d#5 v=0
98623 On ch=1 n=d5 v=0
98632 On ch=1 n=d#5 v=87
98632 On ch=1 n=a#5 v=87
98650 On ch=1 n=b5 v=0
98867 On ch=1 n=d#5 v=0
98877 On ch=1 n=a#5 v=0
99112 On ch=1 n=f4 v=116
99112 On ch=1 n=d#5 v=116
99112 On ch=1 n=a4 v=116
99347 On ch=1 n=a4 v=0
99347 On ch=1 n=d#5 v=0
99347 On ch=1 n=f4 v=0
99348 On ch=1 n=f5 v=127
99348 On ch=1 n=d#5 v=127
99348 On ch=1 n=a#4 v=127
99348 On ch=1 n=f4 v=127
99846 On ch=1 n=a#4 v=0
99855 On ch=1 n=f4 v=0
99855 On ch=1 n=d#5 v=0
99855 On ch=1 n=f5 v=0
100048 Par ch=1 c=64 v=0
100072 Par ch=1 c=64 v=127
100072 On ch=1 n=b7 v=81
100172 On ch=1 n=b7 v=0
100190 On ch=1 n=a#7 v=84
100290 On ch=1 n=a#7 v=0
100308 On ch=1 n=g#7 v=86
100408 On ch=1 n=g#7 v=0
100434 On ch=1 n=f#7 v=89
100534 On ch=1 n=f#7 v=0
100552 On ch=1 n=f7 v=92
100652 On ch=1 n=f7 v=0
100670 On ch=1 n=d#7 v=94
100770 On ch=1 n=d#7 v=0
100797 On ch=1 n=d7 v=97
100897 On ch=1 n=d7 v=0
100914 On ch=1 n=b6 v=103
101014 On ch=1 n=b6 v=0
101032 On ch=1 n=a#6 v=108
101132 On ch=1 n=a#6 v=0
101150 On ch=1 n=g#6 v=112
101250 On ch=1 n=g#6 v=0
101277 On ch=1 n=f#6 v=117
101377 On ch=1 n=f#6 v=0
101394 On ch=1 n=f6 v=121
101494 On ch=1 n=f6 v=0
101512 On ch=1 n=d#6 v=125
101612 On ch=1 n=d#6 v=0
101630 On ch=1 n=d6 v=127
101730 On ch=1 n=d6 v=0
101748 On ch=1 n=b5 v=124
101848 On ch=1 n=b5 v=0
101874 On ch=1 n=a#5 v=121
101974 On ch=1 n=a#5 v=0
101992 On ch=1 n=a5 v=118
102092 On ch=1 n=a5 v=0
102110 On ch=1 n=g#5 v=114
102210 On ch=1 n=g#5 v=0
102228 On ch=1 n=f#5 v=110
102916 On ch=1 n=f#5 v=0
102952 On ch=1 n=g#5 v=84
102952 On ch=1 n=f#5 v=84
103649 On ch=1 n=f#5 v=0
103668 On ch=1 n=g#5 v=93
103668 On ch=1 n=g#5 v=93
103668 On ch=1 n=b5 v=93
103668 On ch=1 n=f#5 v=93
103677 On ch=1 n=g#5 v=0
103677 On ch=1 n=g#5 v=0
103695 On ch=1 n=g#5 v=0
103912 On ch=1 n=a#5 v=80
103930 On ch=1 n=b5 v=0
104157 On ch=1 n=d#6 v=113
104157 On ch=1 n=f5 v=100
104193 On ch=1 n=a#5 v=0
104193 On ch=1 n=f#5 v=0
104392 On ch=1 n=c#6 v=98
104392 On ch=1 n=f#5 v=98
104410 On ch=1 n=f5 v=0
104437 On ch=1 n=d#6 v=0
104664 On ch=1 n=f#5 v=0
104664 On ch=1 n=c#6 v=0
104872 On ch=1 n=f#5 v=123
104872 On ch=1 n=c5 v=123
104872 On ch=1 n=g#4 v=123
105071 On ch=1 n=g#4 v=0
105080 On ch=1 n=c5 v=0
105080 On ch=1 n=f#5 v=0
105108 On ch=1 n=g#5 v=126
105117 On ch=1 n=f#5 v=126
105117 On ch=1 n=c#5 v=126
105117 On ch=1 n=g#4 v=126
105615 On ch=1 n=g#4 v=0
105615 On ch=1 n=c#5 v=0
105615 On ch=1 n=f#5 v=0
105615 On ch=1 n=g#5 v=0
105832 On ch=1 n=d#8 v=76
105946 On ch=1 n=d#8 v=0
105950 On ch=1 n=c#8 v=79
106064 On ch=1 n=c#8 v=0
106074 On ch=1 n=b7 v=83
106188 On ch=1 n=b7 v=0
106191 On ch=1 n=a#7 v=84
106305 On ch=1 n=a#7 v=0
106309 On ch=1 n=g#7 v=88
106423 On ch=1 n=g#7 v=0
106427 On ch=1 n=f#7 v=93
106541 On ch=1 n=f#7 v=0
106545 On ch=1 n=f7 v=97
106659 On ch=1 n=f7 v=0
106671 On ch=1 n=d#7 v=93
106785 On ch=1 n=d#7 v=0
106795 On ch=1 n=c#7 v=100
106904 On ch=1 n=b6 v=105
106909 On ch=1 n=c#7 v=0
107018 On ch=1 n=b6 v=0
107022 On ch=1 n=a#6 v=110
107136 On ch=1 n=a#6 v=0
107148 On ch=1 n=g#6 v=117
107262 On ch=1 n=g#6 v=0
107266 On ch=1 n=f#6 v=104
107380 On ch=1 n=f#6 v=0
107384 On ch=1 n=f6 v=96
107498 On ch=1 n=f6 v=0
107502 On ch=1 n=d#6 v=88
107616 On ch=1 n=d#6 v=0
107628 On ch=1 n=c#6 v=80
107742 On ch=1 n=c#6 v=0
107746 On ch=1 n=c6 v=71
107860 On ch=1 n=c6 v=0
107864 On ch=1 n=b5 v=63
107978 On ch=1 n=b5 v=0
107988 On ch=1 n=a#5 v=77
108105 On ch=1 n=b5 v=67
108115 On ch=1 n=a#5 v=0
108220 On ch=1 n=c#6 v=74
108232 On ch=1 n=b5 v=0
108338 On ch=1 n=d#6 v=80
108350 On ch=1 n=c#6 v=0
108456 On ch=1 n=f6 v=86
108468 On ch=1 n=d#6 v=0
108582 On ch=1 n=f#6 v=93
108586 On ch=1 n=f6 v=0
108700 On ch=1 n=b6 v=95
108712 On ch=1 n=f#6 v=0
108818 On ch=1 n=a#6 v=95
108830 On ch=1 n=b6 v=0
108936 On ch=1 n=g#6 v=92
108948 On ch=1 n=a#6 v=0
109062 On ch=1 n=f#6 v=86
109066 On ch=1 n=g#6 v=0
109180 On ch=1 n=f6 v=82
109192 On ch=1 n=f#6 v=0
109298 On ch=1 n=d#6 v=77
109310 On ch=1 n=f6 v=0
109416 On ch=1 n=c#6 v=71
109428 On ch=1 n=d#6 v=0
109542 On ch=1 n=c6 v=66
109546 On ch=1 n=c#6 v=0
109660 On ch=1 n=b5 v=60
109672 On ch=1 n=c6 v=0
109778 On ch=1 n=a#5 v=56
109790 On ch=1 n=b5 v=0
109905 On ch=1 n=g5 v=62
109908 On ch=1 n=a#5 v=0
110022 On ch=1 n=g#5 v=68
110032 On ch=1 n=g5 v=0
110137 On ch=1 n=a#5 v=90
110149 On ch=1 n=g#5 v=0
110255 On ch=1 n=b5 v=71
110267 On ch=1 n=a#5 v=0
110373 On ch=1 n=c6 v=68
110385 On ch=1 n=b5 v=0
110490 On ch=1 n=c#6 v=64
110500 On ch=1 n=c6 v=0
110614 On ch=1 n=d#6 v=61
110617 On ch=1 n=c#6 v=0
110732 On ch=1 n=c#6 v=57
110744 On ch=1 n=d#6 v=0
110859 On ch=1 n=a#5 v=62
110859 On ch=1 n=a#5 v=71
110862 On ch=1 n=c#6 v=0
110976 On ch=1 n=b5 v=50
110986 On ch=1 n=a#5 v=0
110986 On ch=1 n=a#5 v=0
111091 On ch=1 n=c#6 v=58
111103 On ch=1 n=b5 v=0
111209 On ch=1 n=d#6 v=65
111221 On ch=1 n=c#6 v=0
111327 On ch=1 n=f6 v=73
111339 On ch=1 n=d#6 v=0
111453 On ch=1 n=f#6 v=83
111457 On ch=1 n=f6 v=0
111571 On ch=1 n=b6 v=91
111583 On ch=1 n=f#6 v=0
111689 On ch=1 n=a#6 v=106
111701 On ch=1 n=b6 v=0
111807 On ch=1 n=g#6 v=101
111819 On ch=1 n=a#6 v=0
111933 On ch=1 n=f#6 v=96
111937 On ch=1 n=g#6 v=0
112051 On ch=1 n=f6 v=86
112063 On ch=1 n=f#6 v=0
112169 On ch=1 n=d#6 v=84
112181 On ch=1 n=f6 v=0
112287 On ch=1 n=c#6 v=81
112299 On ch=1 n=d#6 v=0
112413 On ch=1 n=c6 v=77
112417 On ch=1 n=c#6 v=0
112531 On ch=1 n=b5 v=74
112543 On ch=1 n=c6 v=0
112649 On ch=1 n=a#5 v=71
112661 On ch=1 n=b5 v=0
112776 On ch=1 n=g5 v=68
112779 On ch=1 n=a#5 v=0
112893 On ch=1 n=g#5 v=65
112903 On ch=1 n=g5 v=0
113008 On ch=1 n=a#5 v=62
113020 On ch=1 n=g#5 v=0
113126 On ch=1 n=b5 v=59
113138 On ch=1 n=a#5 v=0
113244 On ch=1 n=c6 v=56
113256 On ch=1 n=b5 v=0
113361 On ch=1 n=c#6 v=53
113371 On ch=1 n=c6 v=0
113485 On ch=1 n=d#6 v=50
113488 On ch=1 n=c#6 v=0
113603 On ch=1 n=c#6 v=47
113615 On ch=1 n=d#6 v=0
113730 On ch=1 n=a#5 v=74
113733 On ch=1 n=c#6 v=0
113847 On ch=1 n=b5 v=49
113857 On ch=1 n=a#5 v=0
113962 On ch=1 n=c#6 v=54
113974 On ch=1 n=b5 v=0
114080 On ch=1 n=d#6 v=59
114092 On ch=1 n=c#6 v=0
114198 On ch=1 n=e6 v=66
114210 On ch=1 n=d#6 v=0
114324 On ch=1 n=f#6 v=72
114328 On ch=1 n=e6 v=0
114442 On ch=1 n=g#6 v=78
114454 On ch=1 n=f#6 v=0
114560 On ch=1 n=a#6 v=84
114572 On ch=1 n=g#6 v=0
114678 On ch=1 n=b6 v=89
114690 On ch=1 n=a#6 v=0
114804 On ch=1 n=c#7 v=95
114808 On ch=1 n=b6 v=0
114922 On ch=1 n=d#7 v=101
114934 On ch=1 n=c#7 v=0
115040 On ch=1 n=e7 v=107
115052 On ch=1 n=d#7 v=0
115158 On ch=1 n=d#8 v=116
115170 On ch=1 n=e7 v=0
115284 On ch=1 n=c#8 v=120
115288 On ch=1 n=d#8 v=0
115402 On ch=1 n=c8 v=125
115414 On ch=1 n=c#8 v=0
115520 On ch=1 n=e7 v=127
115532 On ch=1 n=c8 v=0
115647 On ch=1 n=g7 v=127
115650 On ch=1 n=e7 v=0
115764 On ch=1 n=g#7 v=124
115774 On ch=1 n=g7 v=0
115879 On ch=1 n=b7 v=119
115891 On ch=1 n=g#7 v=0
115997 On ch=1 n=a#7 v=108
116009 On ch=1 n=b7 v=0
116115 On ch=1 n=g#7 v=101
116127 On ch=1 n=a#7 v=0
116232 On ch=1 n=f#7 v=93
116242 On ch=1 n=g#7 v=0
116356 On ch=1 n=e7 v=85
116359 On ch=1 n=f#7 v=0
116474 On ch=1 n=d#7 v=79
116486 On ch=1 n=e7 v=0
116601 On ch=1 n=c#7 v=70
116604 On ch=1 n=d#7 v=0
116718 On ch=1 n=b6 v=66
116728 On ch=1 n=c#7 v=0
116833 On ch=1 n=a#6 v=62
116845 On ch=1 n=b6 v=0
116951 On ch=1 n=g#6 v=58
116963 On ch=1 n=a#6 v=0
117069 On ch=1 n=f#6 v=61
117081 On ch=1 n=g#6 v=0
117195 On ch=1 n=e6 v=64
117199 On ch=1 n=f#6 v=0
117313 On ch=1 n=d#6 v=68
117325 On ch=1 n=e6 v=0
117431 On ch=1 n=c#6 v=71
117443 On ch=1 n=d#6 v=0
117549 On ch=1 n=c6 v=75
117561 On ch=1 n=c#6 v=0
117675 On ch=1 n=c#6 v=78
117679 On ch=1 n=c6 v=0
117793 On ch=1 n=d6 v=82
117805 On ch=1 n=c#6 v=0
117911 On ch=1 n=d#6 v=85
117923 On ch=1 n=d6 v=0
118029 On ch=1 n=e6 v=98
118041 On ch=1 n=d#6 v=0
118155 On ch=1 n=f6 v=96
118159 On ch=1 n=e6 v=0
118273 On ch=1 n=f#6 v=85
118285 On ch=1 n=f6 v=0
118391 On ch=1 n=g6 v=82
118403 On ch=1 n=f#6 v=0
118518 On ch=1 n=g#6 v=78
118521 On ch=1 n=g6 v=0
118635 On ch=1 n=g6 v=74
118645 On ch=1 n=g#6 v=0
118750 On ch=1 n=a#6 v=70
118762 On ch=1 n=g6 v=0
118868 On ch=1 n=g#6 v=67
118880 On ch=1 n=a#6 v=0
118986 On ch=1 n=f#6 v=60
118998 On ch=1 n=g#6 v=0
119103 On ch=1 n=e6 v=75
119113 On ch=1 n=f#6 v=0
119227 On ch=1 n=d#6 v=81
119230 On ch=1 n=e6 v=0
119345 On ch=1 n=d6 v=73
119357 On ch=1 n=d#6 v=0
119472 On ch=1 n=d#6 v=99
119475 On ch=1 n=d6 v=0
119589 On ch=1 n=e6 v=80
119599 On ch=1 n=d#6 v=0
119704 On ch=1 n=f#6 v=88
119716 On ch=1 n=e6 v=0
119822 On ch=1 n=g#6 v=95
119834 On ch=1 n=f#6 v=0
119940 On ch=1 n=a#6 v=103
119952 On ch=1 n=g#6 v=0
120066 On ch=1 n=b6 v=110
120070 On ch=1 n=a#6 v=0
120184 On ch=1 n=e7 v=118
120196 On ch=1 n=b6 v=0
120302 On ch=1 n=d#7 v=127
120314 On ch=1 n=e7 v=0
120420 On ch=1 n=c#7 v=124
120432 On ch=1 n=d#7 v=0
120546 On ch=1 n=b6 v=119
120550 On ch=1 n=c#7 v=0
120664 On ch=1 n=a#6 v=113
120676 On ch=1 n=b6 v=0
120782 On ch=1 n=g#6 v=108
120794 On ch=1 n=a#6 v=0
120900 On ch=1 n=f#6 v=103
120912 On ch=1 n=g#6 v=0
121026 On ch=1 n=f6 v=97
121030 On ch=1 n=f#6 v=0
121144 On ch=1 n=e6 v=91
121156 On ch=1 n=f6 v=0
121262 On ch=1 n=d#6 v=86
121274 On ch=1 n=e6 v=0
121380 On ch=1 n=c6 v=82
121392 On ch=1 n=d#6 v=0
121506 On ch=1 n=c#6 v=76
121510 On ch=1 n=c6 v=0
121624 On ch=1 n=d#6 v=71
121636 On ch=1 n=c#6 v=0
121742 On ch=1 n=e6 v=65
121754 On ch=1 n=d#6 v=0
121869 On ch=1 n=f6 v=71
121872 On ch=1 n=e6 v=0
121986 On ch=1 n=f#6 v=79
121996 On ch=1 n=f6 v=0
122101 On ch=1 n=g#6 v=81
122113 On ch=1 n=f#6 v=0
122219 On ch=1 n=f#6 v=73
122231 On ch=1 n=g#6 v=0
122346 On ch=1 n=d#6 v=107
122349 On ch=1 n=f#6 v=0
122463 On ch=1 n=e6 v=73
122473 On ch=1 n=d#6 v=0
122578 On ch=1 n=f#6 v=72
122590 On ch=1 n=e6 v=0
122696 On ch=1 n=g#6 v=79
122708 On ch=1 n=f#6 v=0
122814 On ch=1 n=a#6 v=85
122826 On ch=1 n=g#6 v=0
122940 On ch=1 n=b6 v=93
122944 On ch=1 n=a#6 v=0
123058 On ch=1 n=e7 v=100
123070 On ch=1 n=b6 v=0
123176 On ch=1 n=d#7 v=94
123188 On ch=1 n=e7 v=0
123294 On ch=1 n=c#7 v=90
123306 On ch=1 n=d#7 v=0
123420 On ch=1 n=b6 v=86
123424 On ch=1 n=c#7 v=0
123538 On ch=1 n=a#6 v=83
123550 On ch=1 n=b6 v=0
123656 On ch=1 n=g#6 v=79
123668 On ch=1 n=a#6 v=0
123774 On ch=1 n=f#6 v=75
123786 On ch=1 n=g#6 v=0
123900 On ch=1 n=f6 v=71
123904 On ch=1 n=f#6 v=0
124018 On ch=1 n=e6 v=69
124030 On ch=1 n=f6 v=0
124136 On ch=1 n=d#6 v=66
124148 On ch=1 n=e6 v=0
124254 On ch=1 n=c6 v=63
124266 On ch=1 n=d#6 v=0
124380 On ch=1 n=c#6 v=60
124384 On ch=1 n=c6 v=0
124498 On ch=1 n=d#6 v=57
124510 On ch=1 n=c#6 v=0
124616 On ch=1 n=e6 v=55
124628 On ch=1 n=d#6 v=0
124743 On ch=1 n=f6 v=52
124746 On ch=1 n=e6 v=0
124860 On ch=1 n=f#6 v=49
124870 On ch=1 n=f6 v=0
124975 On ch=1 n=g#6 v=62
124987 On ch=1 n=f#6 v=0
125093 On ch=1 n=f#6 v=60
125105 On ch=1 n=g#6 v=0
125220 On ch=1 n=d#6 v=92
125223 On ch=1 n=f#6 v=0
125337 On ch=1 n=e6 v=62
125347 On ch=1 n=d#6 v=0
125452 On ch=1 n=f6 v=70
125464 On ch=1 n=e6 v=0
125570 On ch=1 n=f#6 v=78
125582 On ch=1 n=f6 v=0
125688 On ch=1 n=g6 v=85
125700 On ch=1 n=f#6 v=0
125814 On ch=1 n=g#6 v=93
125818 On ch=1 n=g6 v=0
125932 On ch=1 n=a6 v=101
125944 On ch=1 n=g#6 v=0
126050 On ch=1 n=a#6 v=109
126062 On ch=1 n=a6 v=0
126168 On ch=1 n=b6 v=116
126180 On ch=1 n=a#6 v=0
126294 On ch=1 n=c7 v=116
126298 On ch=1 n=b6 v=0
126412 On ch=1 n=c#7 v=116
126424 On ch=1 n=c7 v=0
126530 On ch=1 n=d7 v=118
126542 On ch=1 n=c#7 v=0
126648 On ch=1 n=d#7 v=115
126660 On ch=1 n=d7 v=0
126774 On ch=1 n=e7 v=111
126778 On ch=1 n=d#7 v=0
126892 On ch=1 n=f7 v=108
126904 On ch=1 n=e7 v=0
127010 On ch=1 n=f#7 v=105
127022 On ch=1 n=f7 v=0
127137 On ch=1 n=g7 v=102
127140 On ch=1 n=f#7 v=0
127254 On ch=1 n=g#7 v=98
127264 On ch=1 n=g7 v=0
127369 On ch=1 n=a7 v=95
127381 On ch=1 n=g#7 v=0
127487 On ch=1 n=a#7 v=92
127499 On ch=1 n=a7 v=0
127605 On ch=1 n=b7 v=89
127617 On ch=1 n=a#7 v=0
127722 On ch=1 n=c8 v=86
127732 On ch=1 n=b7 v=0
127846 On ch=1 n=a7 v=80
127849 On ch=1 n=c8 v=0
127964 On ch=1 n=f#7 v=76
127976 On ch=1 n=a7 v=0
128091 On ch=1 n=d7 v=117
128094 On ch=1 n=f#7 v=0
128208 On ch=1 n=f#7 v=99
128218 On ch=1 n=d7 v=0
128323 On ch=1 n=d#7 v=93
128335 On ch=1 n=f#7 v=0
128441 On ch=1 n=a7 v=98
128453 On ch=1 n=d#7 v=0
128559 On ch=1 n=f#7 v=106
128571 On ch=1 n=a7 v=0
128685 On ch=1 n=d#7 v=114
128689 On ch=1 n=f#7 v=0
128803 On ch=1 n=b6 v=122
128815 On ch=1 n=d#7 v=0
128921 On ch=1 n=d#7 v=105
128933 On ch=1 n=b6 v=0
129039 On ch=1 n=c7 v=99
129051 On ch=1 n=d#7 v=0
129165 On ch=1 n=f#7 v=102
129169 On ch=1 n=c7 v=0
129283 On ch=1 n=d#7 v=99
129295 On ch=1 n=f#7 v=0
129401 On ch=1 n=c7 v=109
129413 On ch=1 n=d#7 v=0
129519 On ch=1 n=g#6 v=123
129531 On ch=1 n=c7 v=0
129645 On ch=1 n=c7 v=101
129649 On ch=1 n=g#6 v=0
129763 On ch=1 n=a6 v=95
129775 On ch=1 n=c7 v=0
129881 On ch=1 n=d#7 v=109
129893 On ch=1 n=a6 v=0
130008 On ch=1 n=c7 v=93
130011 On ch=1 n=d#7 v=0
130125 On ch=1 n=a6 v=85
130135 On ch=1 n=c7 v=0
130240 On ch=1 n=f6 v=127
130252 On ch=1 n=a6 v=0
130358 On ch=1 n=a6 v=81
130370 On ch=1 n=f6 v=0
130476 On ch=1 n=f#6 v=72
130488 On ch=1 n=a6 v=0
130593 On ch=1 n=c7 v=101
130603 On ch=1 n=f#6 v=0
130717 On ch=1 n=a6 v=76
130720 On ch=1 n=c7 v=0
130835 On ch=1 n=f#6 v=71
130847 On ch=1 n=a6 v=0
130953 On ch=1 n=d6 v=125
130965 On ch=1 n=f#6 v=0
131079 On ch=1 n=f#6 v=103
131083 On ch=1 n=d6 v=0
131197 On ch=1 n=d#6 v=98
131209 On ch=1 n=f#6 v=0
131315 On ch=1 n=a6 v=112
131327 On ch=1 n=d#6 v=0
131442 On ch=1 n=f#6 v=90
131445 On ch=1 n=a6 v=0
131559 On ch=1 n=d#6 v=84
131569 On ch=1 n=f#6 v=0
131674 On ch=1 n=b5 v=118
131686 On ch=1 n=d#6 v=0
131792 On ch=1 n=d#6 v=93
131804 On ch=1 n=b5 v=0
131910 On ch=1 n=c6 v=89
131922 On ch=1 n=d#6 v=0
132027 On ch=1 n=f#6 v=98
132037 On ch=1 n=c6 v=0
132151 On ch=1 n=d#6 v=80
132154 On ch=1 n=f#6 v=0
132269 On ch=1 n=c6 v=76
132281 On ch=1 n=d#6 v=0
132396 On ch=1 n=g#5 v=117
132399 On ch=1 n=c6 v=0
132513 On ch=1 n=c6 v=91
132523 On ch=1 n=g#5 v=0
132628 On ch=1 n=a5 v=90
132640 On ch=1 n=c6 v=0
132746 On ch=1 n=d#6 v=98
132758 On ch=1 n=a5 v=0
132864 On ch=1 n=c6 v=98
132876 On ch=1 n=d#6 v=0
132990 On ch=1 n=a5 v=94
132994 On ch=1 n=c6 v=0
133108 On ch=1 n=f5 v=122
133120 On ch=1 n=a5 v=0
133226 On ch=1 n=a5 v=99
133238 On ch=1 n=f5 v=0
133344 On ch=1 n=f#5 v=96
133356 On ch=1 n=a5 v=0
133470 On ch=1 n=c6 v=103
133474 On ch=1 n=f#5 v=0
133588 On ch=1 n=a5 v=98
133600 On ch=1 n=c6 v=0
133706 On ch=1 n=f#5 v=92
133718 On ch=1 n=a5 v=0
133824 On ch=1 n=d5 v=123
133836 On ch=1 n=f#5 v=0
133950 On ch=1 n=f#5 v=98
133954 On ch=1 n=d5 v=0
134068 On ch=1 n=d#5 v=90
134080 On ch=1 n=f#5 v=0
134186 On ch=1 n=a5 v=109
134198 On ch=1 n=d#5 v=0
134313 On ch=1 n=f#5 v=91
134316 On ch=1 n=a5 v=0
134430 On ch=1 n=d#5 v=86
134440 On ch=1 n=f#5 v=0
134545 On ch=1 n=b4 v=126
134557 On ch=1 n=d#5 v=0
134663 On ch=1 n=d#5 v=90
134675 On ch=1 n=b4 v=0
134781 On ch=1 n=c5 v=85
134793 On ch=1 n=d#5 v=0
134898 On ch=1 n=f#5 v=101
134908 On ch=1 n=c5 v=0
135022 On ch=1 n=d#5 v=76
135025 On ch=1 n=f#5 v=0
135140 On ch=1 n=c5 v=71
135152 On ch=1 n=d#5 v=0
135258 On ch=1 n=g#4 v=125
135270 On ch=1 n=c5 v=0
135384 On ch=1 n=c5 v=84
135388 On ch=1 n=g#4 v=0
135502 On ch=1 n=a4 v=77
135514 On ch=1 n=c5 v=0
135620 On ch=1 n=d#5 v=112
135632 On ch=1 n=a4 v=0
135747 On ch=1 n=c5 v=71
135750 On ch=1 n=d#5 v=0
135864 On ch=1 n=a4 v=66
135874 On ch=1 n=c5 v=0
135979 On ch=1 n=d4 v=123
135991 On ch=1 n=a4 v=0
136097 On ch=1 n=f#4 v=64
136109 On ch=1 n=d4 v=0
136215 On ch=1 n=d#4 v=60
136227 On ch=1 n=f#4 v=0
136332 On ch=1 n=a4 v=85
136332 On ch=1 n=a4 v=114
136342 On ch=1 n=d#4 v=0
136456 On ch=1 n=f#4 v=80
136459 On ch=1 n=a4 v=0
136459 On ch=1 n=a4 v=0
136574 On ch=1 n=c4 v=76
136586 On ch=1 n=f#4 v=0
136701 On ch=1 n=b3 v=107
136704 On ch=1 n=c4 v=0
136818 On ch=1 n=c4 v=92
136828 On ch=1 n=b3 v=0
136933 On ch=1 n=d#4 v=88
136945 On ch=1 n=c4 v=0
137051 On ch=1 n=a4 v=98
137063 On ch=1 n=d#4 v=0
137169 On ch=1 n=f#4 v=91
137181 On ch=1 n=a4 v=0
137295 On ch=1 n=c4 v=86
137299 On ch=1 n=f#4 v=0
137413 On ch=1 n=b3 v=121
137425 On ch=1 n=c4 v=0
137531 On ch=1 n=c4 v=99
137543 On ch=1 n=b3 v=0
137649 On ch=1 n=d#4 v=93
137661 On ch=1 n=c4 v=0
137775 On ch=1 n=a4 v=102
137779 On ch=1 n=d#4 v=0
137893 On ch=1 n=f#4 v=92
137905 On ch=1 n=a4 v=0
138011 On ch=1 n=c4 v=88
138023 On ch=1 n=f#4 v=0
138138 On ch=1 n=b3 v=127
138141 On ch=1 n=c4 v=0
138255 On ch=1 n=c4 v=93
138265 On ch=1 n=b3 v=0
138370 On ch=1 n=d#4 v=88
138382 On ch=1 n=c4 v=0
138488 On ch=1 n=a4 v=98
138500 On ch=1 n=d#4 v=0
138606 On ch=1 n=f#4 v=103
138618 On ch=1 n=a4 v=0
138732 On ch=1 n=c4 v=100
138736 On ch=1 n=f#4 v=0
138850 On ch=1 n=b3 v=127
138862 On ch=1 n=c4 v=0
138968 On ch=1 n=c4 v=95
138980 On ch=1 n=b3 v=0
139086 On ch=1 n=d#4 v=91
139098 On ch=1 n=c4 v=0
139212 On ch=1 n=a4 v=113
139216 On ch=1 n=d#4 v=0
139330 On ch=1 n=f#4 v=101
139342 On ch=1 n=a4 v=0
139448 On ch=1 n=c4 v=88
139460 On ch=1 n=f#4 v=0
139575 On ch=1 n=b2 v=123
139578 On ch=1 n=c4 v=0
139692 On ch=1 n=c3 v=97
139702 On ch=1 n=b2 v=0
139807 On ch=1 n=f#3 v=93
139819 On ch=1 n=c3 v=0
139925 On ch=1 n=a3 v=98
139937 On ch=1 n=f#3 v=0
140043 On ch=1 n=f#3 v=98
140055 On ch=1 n=a3 v=0
140169 On ch=1 n=c3 v=92
140173 On ch=1 n=f#3 v=0
140287 On ch=1 n=b2 v=122
140299 On ch=1 n=c3 v=0
140405 On ch=1 n=c3 v=100
140417 On ch=1 n=b2 v=0
140523 On ch=1 n=f#3 v=94
140535 On ch=1 n=c3 v=0
140649 On ch=1 n=a3 v=107
140653 On ch=1 n=f#3 v=0
140767 On ch=1 n=f#3 v=127
140779 On ch=1 n=a3 v=0
140885 On ch=1 n=c3 v=127
140897 On ch=1 n=f#3 v=0
141012 On ch=1 n=b2 v=115
141015 On ch=1 n=c3 v=0
141129 On ch=1 n=c3 v=92
141139 On ch=1 n=b2 v=0
141244 On ch=1 n=f#3 v=88
141256 On ch=1 n=c3 v=0
141362 On ch=1 n=a3 v=111
141374 On ch=1 n=f#3 v=0
141480 On ch=1 n=f#3 v=97
141492 On ch=1 n=a3 v=0
141606 On ch=1 n=c3 v=93
141610 On ch=1 n=f#3 v=0
141724 On ch=1 n=b4 v=100
141736 On ch=1 n=c3 v=0
141960 On ch=1 n=d#4 v=118
141960 On ch=1 n=a4 v=118
141996 On ch=1 n=b4 v=0
142204 On ch=1 n=d#5 v=122
142222 On ch=1 n=a4 v=0
142240 On ch=1 n=d#4 v=0
142440 On ch=1 n=e5 v=126
142476 On ch=1 n=d#5 v=0
142684 On ch=1 n=g4 v=84
142702 On ch=1 n=e5 v=0
142929 On ch=1 n=b4 v=96
142940 On ch=1 n=g4 v=0
143164 On ch=1 n=c5 v=103
143182 On ch=1 n=b4 v=0
143400 On ch=1 n=a4 v=80
143644 On ch=1 n=d#5 v=108
143656 On ch=1 n=a4 v=0
143662 On ch=1 n=c5 v=0
143880 On ch=1 n=e5 v=114
143900 On ch=1 n=d#5 v=0
144124 On ch=1 n=g4 v=80
144369 On ch=1 n=b4 v=95
144380 On ch=1 n=g4 v=0
144387 On ch=1 n=e5 v=0
144604 On ch=1 n=c5 v=108
144622 On ch=1 n=b4 v=0
144840 On ch=1 n=a4 v=75
145084 On ch=1 n=d#5 v=99
145096 On ch=1 n=a4 v=0
145102 On ch=1 n=c5 v=0
145320 On ch=1 n=e5 v=110
145340 On ch=1 n=d#5 v=0
145564 On ch=1 n=g4 v=110
145564 On ch=1 n=b4 v=110
145576 On ch=1 n=e5 v=0
145800 On ch=1 n=e5 v=118
145820 On ch=1 n=b4 v=0
145820 On ch=1 n=g4 v=0
145944 On ch=1 n=f#5 v=122
145981 On ch=1 n=e5 v=0
146035 On ch=1 n=e5 v=124
146070 On ch=1 n=f#5 v=0
146280 On ch=1 n=c5 v=90
146280 On ch=1 n=a4 v=90
146289 On ch=1 n=d#5 v=90
146291 On ch=1 n=e5 v=0
146524 On ch=1 n=e5 v=108
146536 On ch=1 n=a4 v=0
146536 On ch=1 n=c5 v=0
146545 On ch=1 n=d#5 v=0
146760 On ch=1 n=g5 v=121
146780 On ch=1 n=e5 v=0
146995 On ch=1 n=b4 v=84
147240 On ch=1 n=d5 v=93
147251 On ch=1 n=b4 v=0
147496 On ch=1 n=d5 v=0
147729 On ch=1 n=c5 v=77
147955 On ch=1 n=g5 v=0
147964 On ch=1 n=d#5 v=94
147985 On ch=1 n=c5 v=0
148200 On ch=1 n=g5 v=109
148220 On ch=1 n=d#5 v=0
148444 On ch=1 n=b4 v=77
148680 On ch=1 n=d5 v=89
148700 On ch=1 n=b4 v=0
148725 On ch=1 n=g5 v=0
148924 On ch=1 n=d#5 v=88
148924 On ch=1 n=d#5 v=105
148936 On ch=1 n=d5 v=0
149160 On ch=1 n=c5 v=89
149169 On ch=1 n=a4 v=89
149404 On ch=1 n=f#5 v=93
149416 On ch=1 n=c5 v=0
149425 On ch=1 n=a4 v=0
149440 On ch=1 n=d#5 v=0
149440 On ch=1 n=d#5 v=0
149640 On ch=1 n=g5 v=108
149660 On ch=1 n=f#5 v=0
149884 On ch=1 n=b4 v=72
149920 On ch=1 n=g5 v=0
150120 On ch=1 n=d5 v=86
150140 On ch=1 n=b4 v=0
150364 On ch=1 n=d#5 v=103
150376 On ch=1 n=d5 v=0
150609 On ch=1 n=c5 v=89
150609 On ch=1 n=a4 v=89
150844 On ch=1 n=f#5 v=105
150865 On ch=1 n=a4 v=0
150865 On ch=1 n=c5 v=0
150880 On ch=1 n=d#5 v=0
151089 On ch=1 n=g5 v=123
151100 On ch=1 n=f#5 v=0
151324 On ch=1 n=d5 v=112
151324 On ch=1 n=b4 v=112
151541 On ch=1 n=g5 v=0
151569 On ch=1 n=g5 v=118
151580 On ch=1 n=b4 v=0
151580 On ch=1 n=d5 v=0
151704 On ch=1 n=a5 v=122
151741 On ch=1 n=g5 v=0
151804 On ch=1 n=g5 v=124
151839 On ch=1 n=a5 v=0
152040 On ch=1 n=c5 v=127
152049 On ch=1 n=f#5 v=127
152049 On ch=1 n=e5 v=127
152060 On ch=1 n=g5 v=0
152275 On ch=1 n=g5 v=113
152296 On ch=1 n=c5 v=0
152305 On ch=1 n=e5 v=0
152305 On ch=1 n=f#5 v=0
152520 On ch=1 n=b5 v=127
152531 On ch=1 n=g5 v=0
152764 On ch=1 n=d#5 v=90
153000 On ch=1 n=f#5 v=90
153020 On ch=1 n=d#5 v=0
153256 On ch=1 n=f#5 v=0
153480 On ch=1 n=e5 v=91
153724 On ch=1 n=g5 v=91
153736 On ch=1 n=e5 v=0
153980 On ch=1 n=g5 v=0
154204 On ch=1 n=d#5 v=92
154249 On ch=1 n=b5 v=0
154440 On ch=1 n=f#5 v=105
154460 On ch=1 n=d#5 v=0
154693 On ch=1 n=g5 v=114
154696 On ch=1 n=f#5 v=0
154929 On ch=1 n=e5 v=93
154929 On ch=1 n=c#5 v=93
155164 On ch=1 n=g#5 v=105
155185 On ch=1 n=c#5 v=0
155185 On ch=1 n=e5 v=0
155246 On ch=1 n=g5 v=0
155400 On ch=1 n=a5 v=123
155420 On ch=1 n=g#5 v=0
155644 On ch=1 n=c#5 v=87
155880 On ch=1 n=g5 v=98
155900 On ch=1 n=c#5 v=0
156124 On ch=1 n=c5 v=112
156124 On ch=1 n=f#5 v=112
156136 On ch=1 n=g5 v=0
156380 On ch=1 n=f#5 v=0
156380 On ch=1 n=c5 v=0
156414 On ch=1 n=a5 v=0
156486 On ch=1 n=b5 v=109
156604 On ch=1 n=a5 v=110
156622 On ch=1 n=b5 v=0
156840 On ch=1 n=g5 v=111
156860 On ch=1 n=a5 v=0
157093 On ch=1 n=c5 v=96
157329 On ch=1 n=f#5 v=107
157349 On ch=1 n=c5 v=0
157365 On ch=1 n=g5 v=0
157573 On ch=1 n=e5 v=113
157585 On ch=1 n=f#5 v=0
157809 On ch=1 n=a#4 v=98
158044 On ch=1 n=f#5 v=108
158065 On ch=1 n=a#4 v=0
158071 On ch=1 n=e5 v=0
158289 On ch=1 n=b4 v=118
158300 On ch=1 n=f#5 v=0
158524 On ch=1 n=d#4 v=93
158760 On ch=1 n=a4 v=93
158780 On ch=1 n=d#4 v=0
159004 On ch=1 n=g4 v=115
159016 On ch=1 n=a4 v=0
159260 On ch=1 n=g4 v=0
159366 On ch=1 n=a5 v=114
159484 On ch=1 n=g5 v=113
159502 On ch=1 n=a5 v=0
159720 On ch=1 n=b4 v=0
159720 On ch=1 n=f#5 v=111
159740 On ch=1 n=g5 v=0
159964 On ch=1 n=a4 v=92
159964 On ch=1 n=b4 v=92
159976 On ch=1 n=f#5 v=0
160209 On ch=1 n=g5 v=104
160220 On ch=1 n=b4 v=0
160220 On ch=1 n=a4 v=0
160444 On ch=1 n=e5 v=113
160465 On ch=1 n=g5 v=0
160680 On ch=1 n=g4 v=88
160689 On ch=1 n=b4 v=88
160700 On ch=1 n=e5 v=0
160933 On ch=1 n=f#5 v=88
160936 On ch=1 n=g4 v=0
160945 On ch=1 n=b4 v=0
161160 On ch=1 n=b4 v=120
161189 On ch=1 n=f#5 v=0
161404 On ch=1 n=g4 v=99
161404 On ch=1 n=a4 v=99
161621 On ch=1 n=b4 v=0
161649 On ch=1 n=b4 v=106
161660 On ch=1 n=a4 v=0
161660 On ch=1 n=g4 v=0
161893 On ch=1 n=g4 v=119
162228 On ch=1 n=a5 v=124
162364 On ch=1 n=a5 v=0
162364 On ch=1 n=g5 v=124
162581 On ch=1 n=g4 v=0
162600 On ch=1 n=b4 v=0
162600 On ch=1 n=f#5 v=124
162620 On ch=1 n=g5 v=0
162844 On ch=1 n=a4 v=89
162844 On ch=1 n=b4 v=89
163089 On ch=1 n=g5 v=107
163100 On ch=1 n=b4 v=0
163100 On ch=1 n=a4 v=0
163116 On ch=1 n=f#5 v=0
163324 On ch=1 n=e5 v=125
163345 On ch=1 n=g5 v=0
163560 On ch=1 n=b4 v=90
163569 On ch=1 n=g4 v=90
163605 On ch=1 n=e5 v=0
163804 On ch=1 n=c6 v=127
163813 On ch=1 n=c5 v=127
163816 On ch=1 n=b4 v=0
163825 On ch=1 n=g4 v=0
164040 On ch=1 n=b5 v=127
164040 On ch=1 n=f#5 v=127
164060 On ch=1 n=c6 v=0
164069 On ch=1 n=c5 v=0
164284 On ch=1 n=b4 v=96
164296 On ch=1 n=f#5 v=0
164520 On ch=1 n=f#5 v=96
164540 On ch=1 n=b4 v=0
164773 On ch=1 n=b4 v=96
164776 On ch=1 n=f#5 v=0
165009 On ch=1 n=f#5 v=96
165029 On ch=1 n=b4 v=0
165235 On ch=1 n=b4 v=96
165265 On ch=1 n=f#5 v=0
165480 On ch=1 n=a#5 v=127
165491 On ch=1 n=b4 v=0
165498 On ch=1 n=e5 v=127
165507 On ch=1 n=b5 v=0
165724 On ch=1 n=a#4 v=85
165754 On ch=1 n=e5 v=0
165969 On ch=1 n=e5 v=85
165980 On ch=1 n=a#4 v=0
166204 On ch=1 n=a5 v=121
166213 On ch=1 n=a4 v=121
166225 On ch=1 n=e5 v=0
166258 On ch=1 n=a#5 v=0
166449 On ch=1 n=e5 v=85
166469 On ch=1 n=a4 v=0
166684 On ch=1 n=a4 v=85
166705 On ch=1 n=e5 v=0
166929 On ch=1 n=e5 v=109
166929 On ch=1 n=g#5 v=109
166940 On ch=1 n=a4 v=0
166947 On ch=1 n=a5 v=0
167173 On ch=1 n=g#4 v=84
167185 On ch=1 n=e5 v=0
167409 On ch=1 n=e5 v=83
167429 On ch=1 n=g#4 v=0
167635 On ch=1 n=g5 v=115
167644 On ch=1 n=g4 v=115
167662 On ch=1 n=g#5 v=0
167665 On ch=1 n=e5 v=0
167889 On ch=1 n=c5 v=82
167900 On ch=1 n=g4 v=0
168124 On ch=1 n=g4 v=82
168145 On ch=1 n=c5 v=0
168360 On ch=1 n=c5 v=106
168360 On ch=1 n=e5 v=106
168380 On ch=1 n=g4 v=0
168396 On ch=1 n=g5 v=0
168604 On ch=1 n=f4 v=79
168616 On ch=1 n=c5 v=0
168840 On ch=1 n=c5 v=120
168849 On ch=1 n=f5 v=121
168860 On ch=1 n=f4 v=0
168876 On ch=1 n=e5 v=0
169084 On ch=1 n=a4 v=127
169084 On ch=1 n=a5 v=127
169096 On ch=1 n=c5 v=0
169105 On ch=1 n=f5 v=0
169320 On ch=1 n=a5 v=0
169320 On ch=1 n=b4 v=92
169340 On ch=1 n=a4 v=0
169564 On ch=1 n=d#5 v=115
169576 On ch=1 n=b4 v=0
169800 On ch=1 n=e4 v=127
169809 On ch=1 n=e5 v=127
169820 On ch=1 n=d#5 v=0
170126 On ch=1 n=e5 v=0
170126 On ch=1 n=e4 v=0
170280 On ch=1 n=b5 v=115
170289 On ch=1 n=b4 v=116
170524 On ch=1 n=c6 v=123
170533 On ch=1 n=c5 v=124
170536 On ch=1 n=b5 v=0
170545 On ch=1 n=b4 v=0
170769 On ch=1 n=a5 v=96
170778 On ch=1 n=f#5 v=96
170780 On ch=1 n=c6 v=0
170789 On ch=1 n=c5 v=0
171004 On ch=1 n=d#6 v=116
171013 On ch=1 n=d#5 v=117
171025 On ch=1 n=a5 v=0
171034 On ch=1 n=f#5 v=0
171240 On ch=1 n=e5 v=126
171249 On ch=1 n=e6 v=126
171260 On ch=1 n=d#6 v=0
171269 On ch=1 n=d#5 v=0
171484 On ch=1 n=g5 v=93
171496 On ch=1 n=e5 v=0
171505 On ch=1 n=e6 v=0
171720 On ch=1 n=b4 v=118
171729 On ch=1 n=b5 v=118
171740 On ch=1 n=g5 v=0
171955 On ch=1 n=c5 v=124
171973 On ch=1 n=c6 v=124
171976 On ch=1 n=b4 v=0
171985 On ch=1 n=b5 v=0
172200 On ch=1 n=f#5 v=82
172200 On ch=1 n=a5 v=82
172211 On ch=1 n=c5 v=0
172229 On ch=1 n=c6 v=0
172444 On ch=1 n=d#5 v=114
172444 On ch=1 n=d#6 v=114
172456 On ch=1 n=a5 v=0
172456 On ch=1 n=f#5 v=0
172680 On ch=1 n=e5 v=123
172689 On ch=1 n=e6 v=123
172700 On ch=1 n=d#6 v=0
172700 On ch=1 n=d#5 v=0
172924 On ch=1 n=b5 v=87
172924 On ch=1 n=g5 v=87
172936 On ch=1 n=e5 v=0
172945 On ch=1 n=e6 v=0
173160 On ch=1 n=e6 v=109
173169 On ch=1 n=e5 v=110
173180 On ch=1 n=g5 v=0
173180 On ch=1 n=b5 v=0
173404 On ch=1 n=c6 v=118
173413 On ch=1 n=a5 v=118
173416 On ch=1 n=e6 v=0
173425 On ch=1 n=e5 v=0
173649 On ch=1 n=d#6 v=90
173649 On ch=1 n=d#5 v=90
173660 On ch=1 n=c6 v=0
173669 On ch=1 n=a5 v=0
173875 On ch=1 n=e5 v=100
173884 On ch=1 n=e6 v=100
173905 On ch=1 n=d#5 v=0
173905 On ch=1 n=d#6 v=0
174120 On ch=1 n=g5 v=122
174120 On ch=1 n=g6 v=122
174131 On ch=1 n=e5 v=0
174140 On ch=1 n=e6 v=0
174355 On ch=1 n=b5 v=100
174364 On ch=1 n=d6 v=100
174376 On ch=1 n=g5 v=0
174600 On ch=1 n=g5 v=117
174611 On ch=1 n=b5 v=0
174620 On ch=1 n=d6 v=0
174844 On ch=1 n=c6 v=126
174844 On ch=1 n=d#6 v=126
174856 On ch=1 n=g5 v=0
175089 On ch=1 n=g5 v=100
175100 On ch=1 n=d#6 v=0
175100 On ch=1 n=c6 v=0
175324 On ch=1 n=d#6 v=113
175324 On ch=1 n=c6 v=113
175345 On ch=1 n=g5 v=0
175560 On ch=1 n=g5 v=121
175580 On ch=1 n=c6 v=0
175580 On ch=1 n=d#6 v=0
175804 On ch=1 n=d6 v=94
175804 On ch=1 n=b5 v=94
175816 On ch=1 n=g5 v=0
176012 On ch=1 n=d6 v=0
176040 On ch=1 n=d5 v=111
176040 On ch=1 n=d6 v=111
176060 On ch=1 n=b5 v=0
176112 On ch=1 n=g6 v=0
176284 On ch=1 n=d#6 v=120
176284 On ch=1 n=d#5 v=120
176296 On ch=1 n=d6 v=0
176296 On ch=1 n=d5 v=0
176520 On ch=1 n=a5 v=93
176520 On ch=1 n=c6 v=93
176540 On ch=1 n=d#5 v=0
176540 On ch=1 n=d#6 v=0
176764 On ch=1 n=f#5 v=115
176773 On ch=1 n=f#6 v=115
176776 On ch=1 n=c6 v=0
176776 On ch=1 n=a5 v=0
177000 On ch=1 n=g6 v=127
177000 On ch=1 n=g5 v=127
177020 On ch=1 n=f#5 v=0
177029 On ch=1 n=f#6 v=0
177235 On ch=1 n=d6 v=91
177244 On ch=1 n=b5 v=92
177256 On ch=1 n=g5 v=0
177256 On ch=1 n=g6 v=0
177461 On ch=1 n=d6 v=0
177480 On ch=1 n=d5 v=108
177489 On ch=1 n=d6 v=108
177500 On ch=1 n=b5 v=0
177724 On ch=1 n=d#5 v=115
177724 On ch=1 n=d#6 v=115
177736 On ch=1 n=d5 v=0
177745 On ch=1 n=d6 v=0
177960 On ch=1 n=c6 v=88
177969 On ch=1 n=a5 v=88
177980 On ch=1 n=d#6 v=0
177980 On ch=1 n=d#5 v=0
178195 On ch=1 n=f#5 v=100
178204 On ch=1 n=f#6 v=100
178216 On ch=1 n=c6 v=0
178225 On ch=1 n=a5 v=0
178449 On ch=1 n=g6 v=117
178451 On ch=1 n=f#5 v=0
178460 On ch=1 n=f#6 v=0
178467 On ch=1 n=g5 v=117
178684 On ch=1 n=d6 v=93
178684 On ch=1 n=b5 v=93
178705 On ch=1 n=g6 v=0
178723 On ch=1 n=g5 v=0
178920 On ch=1 n=g6 v=116
178929 On ch=1 n=g5 v=100
178929 On ch=1 n=g5 v=116
178940 On ch=1 n=b5 v=0
178940 On ch=1 n=d6 v=0
179164 On ch=1 n=e6 v=89
179164 On ch=1 n=c6 v=89
179176 On ch=1 n=g6 v=0
179185 On ch=1 n=g5 v=0
179185 On ch=1 n=g5 v=0
179400 On ch=1 n=f#6 v=100
179409 On ch=1 n=f#5 v=100
179420 On ch=1 n=c6 v=0
179420 On ch=1 n=e6 v=0
179644 On ch=1 n=g6 v=117
179644 On ch=1 n=g5 v=117
179656 On ch=1 n=f#6 v=0
179665 On ch=1 n=f#5 v=0
179880 On ch=1 n=b6 v=127
179889 On ch=1 n=b5 v=127
179900 On ch=1 n=g5 v=0
179900 On ch=1 n=g6 v=0
180124 On ch=1 n=f#6 v=100
180133 On ch=1 n=d#6 v=100
180145 On ch=1 n=b5 v=0
180360 On ch=1 n=b5 v=112
180380 On ch=1 n=f#6 v=0
180389 On ch=1 n=d#6 v=0
180604 On ch=1 n=e6 v=119
180604 On ch=1 n=g6 v=119
180616 On ch=1 n=b5 v=0
180840 On ch=1 n=b5 v=100
180860 On ch=1 n=g6 v=0
180860 On ch=1 n=e6 v=0
181084 On ch=1 n=g6 v=118
181084 On ch=1 n=e6 v=118
181096 On ch=1 n=b5 v=0
181320 On ch=1 n=b5 v=127
181340 On ch=1 n=e6 v=0
181340 On ch=1 n=g6 v=0
181564 On ch=1 n=d#6 v=100
181576 On ch=1 n=b5 v=0
181818 On ch=1 n=f#6 v=100
181818 On ch=1 n=f#5 v=100
181820 On ch=1 n=d#6 v=0
181836 On ch=1 n=b6 v=0
182044 On ch=1 n=g5 v=117
182044 On ch=1 n=g6 v=117
182074 On ch=1 n=f#5 v=0
182074 On ch=1 n=f#6 v=0
182280 On ch=1 n=b5 v=95
182280 On ch=1 n=e6 v=95
182300 On ch=1 n=g6 v=0
182300 On ch=1 n=g5 v=0
182524 On ch=1 n=g5 v=112
182533 On ch=1 n=g#6 v=112
182536 On ch=1 n=e6 v=0
182536 On ch=1 n=b5 v=0
182760 On ch=1 n=a5 v=118
182760 On ch=1 n=a6 v=118
182780 On ch=1 n=g5 v=0
182789 On ch=1 n=g#6 v=0
183004 On ch=1 n=c#6 v=100
183004 On ch=1 n=e6 v=100
183013 On ch=1 n=a5 v=0
183240 On ch=1 n=a5 v=100
183260 On ch=1 n=e6 v=0
183260 On ch=1 n=c#6 v=0
183276 On ch=1 n=a6 v=0
183484 On ch=1 n=f#6 v=119
183484 On ch=1 n=d6 v=119
183496 On ch=1 n=a5 v=0
183740 On ch=1 n=d6 v=0
183740 On ch=1 n=f#6 v=0
183864 On ch=1 n=b5 v=124
183873 On ch=1 n=b6 v=124
183964 On ch=1 n=a6 v=124
183964 On ch=1 n=a5 v=124
183973 On ch=1 n=b6 v=0
183982 On ch=1 n=b5 v=0
184200 On ch=1 n=g6 v=126
184209 On ch=1 n=g5 v=126
184220 On ch=1 n=a5 v=0
184220 On ch=1 n=a6 v=0
184444 On ch=1 n=d6 v=100
184453 On ch=1 n=b5 v=100
184456 On ch=1 n=g6 v=0
184465 On ch=1 n=g5 v=0
184680 On ch=1 n=f#5 v=113
184680 On ch=1 n=f#6 v=113
184700 On ch=1 n=d6 v=0
184709 On ch=1 n=b5 v=0
184924 On ch=1 n=e6 v=106
184924 On ch=1 n=e5 v=106
184936 On ch=1 n=f#6 v=0
184936 On ch=1 n=f#5 v=0
185160 On ch=1 n=g5 v=84
185160 On ch=1 n=c#6 v=84
185180 On ch=1 n=e5 v=0
185180 On ch=1 n=e6 v=0
185404 On ch=1 n=f#5 v=114
185404 On ch=1 n=f#6 v=114
185416 On ch=1 n=c#6 v=0
185416 On ch=1 n=g5 v=0
185640 On ch=1 n=b4 v=119
185649 On ch=1 n=b5 v=119
185660 On ch=1 n=f#6 v=0
185660 On ch=1 n=f#5 v=0
185884 On ch=1 n=d#5 v=100
185884 On ch=1 n=f#5 v=100
185896 On ch=1 n=b4 v=0
186129 On ch=1 n=b4 v=91
186140 On ch=1 n=f#5 v=0
186140 On ch=1 n=d#5 v=0
186364 On ch=1 n=e5 v=85
186364 On ch=1 n=g5 v=85
186385 On ch=1 n=b4 v=0
186600 On ch=1 n=b5 v=0
186620 On ch=1 n=g5 v=0
186620 On ch=1 n=e5 v=0
186744 On ch=1 n=a5 v=122
186744 On ch=1 n=a6 v=122
186853 On ch=1 n=g5 v=123
186853 On ch=1 n=g6 v=123
186871 On ch=1 n=a6 v=0
186880 On ch=1 n=a5 v=0
187080 On ch=1 n=f#5 v=126
187089 On ch=1 n=f#6 v=126
187109 On ch=1 n=g6 v=0
187109 On ch=1 n=g5 v=0
187324 On ch=1 n=b5 v=84
187324 On ch=1 n=a5 v=84
187336 On ch=1 n=f#5 v=0
187345 On ch=1 n=f#6 v=0
187569 On ch=1 n=g6 v=98
187569 On ch=1 n=g5 v=98
187569 On ch=1 n=g5 v=109
187569 On ch=1 n=g6 v=109
187580 On ch=1 n=a5 v=0
187580 On ch=1 n=b5 v=0
187804 On ch=1 n=e5 v=104
187804 On ch=1 n=e6 v=123
187825 On ch=1 n=g6 v=0
187825 On ch=1 n=g5 v=0
187825 On ch=1 n=g5 v=0
187825 On ch=1 n=g6 v=0
188040 On ch=1 n=g5 v=85
188040 On ch=1 n=b5 v=85
188060 On ch=1 n=e6 v=0
188060 On ch=1 n=e5 v=0
188257 On ch=1 n=g5 v=0
188284 On ch=1 n=g5 v=109
188293 On ch=1 n=f#6 v=109
188296 On ch=1 n=b5 v=0
188520 On ch=1 n=b5 v=123
188529 On ch=1 n=b4 v=122
188540 On ch=1 n=g5 v=0
188549 On ch=1 n=f#6 v=0
188764 On ch=1 n=f5 v=97
188764 On ch=1 n=g#5 v=97
188776 On ch=1 n=b5 v=0
188785 On ch=1 n=b4 v=0
189009 On ch=1 n=c6 v=118
189009 On ch=1 n=c5 v=118
189020 On ch=1 n=g#5 v=0
189020 On ch=1 n=f5 v=0
189244 On ch=1 n=a4 v=108
189244 On ch=1 n=a5 v=108
189265 On ch=1 n=c5 v=0
189265 On ch=1 n=c6 v=0
189489 On ch=1 n=c#5 v=81
189489 On ch=1 n=e5 v=81
189500 On ch=1 n=a5 v=0
189500 On ch=1 n=a4 v=0
189706 On ch=1 n=e5 v=0
189724 On ch=1 n=e5 v=109
189724 On ch=1 n=e6 v=109
189745 On ch=1 n=c#5 v=0
189960 On ch=1 n=g4 v=115
189969 On ch=1 n=g5 v=116
189980 On ch=1 n=e6 v=0
189980 On ch=1 n=e5 v=0
190204 On ch=1 n=e5 v=89
190204 On ch=1 n=b4 v=89
190216 On ch=1 n=g4 v=0
190225 On ch=1 n=g5 v=0
190440 On ch=1 n=a4 v=124
190449 Par ch=1 c=64 v=0
190449 On ch=1 n=a5 v=125
190460 On ch=1 n=b4 v=0
190460 On ch=1 n=e5 v=0
190684 On ch=1 n=f#4 v=92
190684 On ch=1 n=f#5 v=92
190684 Par ch=1 c=64 v=127
190696 On ch=1 n=a4 v=0
190705 On ch=1 n=a5 v=0
190920 On ch=1 n=c5 v=121
190920 On ch=1 n=e5 v=121
190940 On ch=1 n=f#5 v=0
190940 On ch=1 n=f#4 v=0
191146 On ch=1 n=c5 v=0
191164 On ch=1 n=c5 v=116
191164 On ch=1 n=c6 v=116
191176 On ch=1 n=e5 v=0
191381 On ch=1 n=c6 v=0
191381 On ch=1 n=c5 v=0
191400 On ch=1 n=c5 v=123
191409 On ch=1 n=c6 v=123
191644 On ch=1 n=f#5 v=127
191653 On ch=1 n=d#5 v=127
191656 On ch=1 n=c5 v=0
191665 On ch=1 n=c6 v=0
191880 On ch=1 n=d5 v=127
191889 On ch=1 n=d6 v=127
191900 On ch=1 n=f#5 v=0
191909 On ch=1 n=d#5 v=0
192124 On ch=1 n=f#5 v=127
192124 On ch=1 n=f#6 v=127
192136 On ch=1 n=d5 v=0
192145 On ch=1 n=d6 v=0
192360 On ch=1 n=g6 v=127
192360 On ch=1 n=g5 v=127
192380 On ch=1 n=f#6 v=0
192380 On ch=1 n=f#5 v=0
192595 On ch=1 n=a5 v=127
192613 On ch=1 n=a6 v=127
192616 On ch=1 n=g5 v=0
192616 On ch=1 n=g6 v=0
192840 On ch=1 n=c6 v=127
192840 On ch=1 n=c7 v=127
192851 On ch=1 n=a5 v=0
192869 On ch=1 n=a6 v=0
193084 On ch=1 n=g6 v=125
193084 On ch=1 n=d#6 v=125
193096 On ch=1 n=c7 v=0
193096 On ch=1 n=c6 v=0
193329 On ch=1 n=c6 v=124
193340 On ch=1 n=d#6 v=0
193340 On ch=1 n=g6 v=0
193564 On ch=1 n=b5 v=124
193564 On ch=1 n=b6 v=124
193585 On ch=1 n=c6 v=0
193800 On ch=1 n=g6 v=123
193800 On ch=1 n=e6 v=123
193820 On ch=1 n=b6 v=0
193820 On ch=1 n=b5 v=0
194044 On ch=1 n=b5 v=123
194056 On ch=1 n=e6 v=0
194056 On ch=1 n=g6 v=0
194280 On ch=1 n=a#6 v=123
194280 On ch=1 n=a#5 v=123
194300 On ch=1 n=b5 v=0
194524 On ch=1 n=f#6 v=121
194524 On ch=1 n=e6 v=121
194536 On ch=1 n=a#5 v=0
194536 On ch=1 n=a#6 v=0
194760 On ch=1 n=a#5 v=121
194780 On ch=1 n=e6 v=0
194780 On ch=1 n=f#6 v=0
195004 On ch=1 n=a5 v=121
195004 On ch=1 n=a6 v=121
195016 On ch=1 n=a#5 v=0
195240 On ch=1 n=f#6 v=121
195240 On ch=1 n=d#6 v=121
195260 On ch=1 n=a6 v=0
195260 On ch=1 n=a5 v=0
195484 On ch=1 n=a5 v=121
195496 On ch=1 n=d#6 v=0
195496 On ch=1 n=f#6 v=0
195720 On ch=1 n=g5 v=121
195729 On ch=1 n=g6 v=121
195740 On ch=1 n=a5 v=0
195964 On ch=1 n=e6 v=122
195964 On ch=1 n=b5 v=122
195976 On ch=1 n=g5 v=0
195985 On ch=1 n=g6 v=0
196209 On ch=1 n=g5 v=122
196220 On ch=1 n=b5 v=0
196220 On ch=1 n=e6 v=0
196426 On ch=1 n=g5 v=0
196444 On ch=1 n=g5 v=122
196444 On ch=1 n=g4 v=122
196689 On ch=1 n=e5 v=122
196700 On ch=1 n=g4 v=0
196700 On ch=1 n=g5 v=0
196924 On ch=1 n=g4 v=122
196945 On ch=1 n=e5 v=0
197160 On ch=1 n=g5 v=123
197160 On ch=1 n=g6 v=123
197180 On ch=1 n=g4 v=0
197404 On ch=1 n=d#6 v=123
197404 On ch=1 n=c6 v=123
197416 On ch=1 n=g6 v=0
197416 On ch=1 n=g5 v=0
197649 On ch=1 n=g5 v=123
197660 On ch=1 n=c6 v=0
197660 On ch=1 n=d#6 v=0
197884 On ch=1 n=f#6 v=123
197884 On ch=1 n=f#5 v=123
197905 On ch=1 n=g5 v=0
198120 On ch=1 n=b5 v=123
198129 On ch=1 n=d#6 v=123
198140 On ch=1 n=f#5 v=0
198140 On ch=1 n=f#6 v=0
198364 On ch=1 n=f#5 v=123
198376 On ch=1 n=b5 v=0
198385 On ch=1 n=d#6 v=0
198609 On ch=1 n=b4 v=123
198620 On ch=1 n=f#5 v=0
198844 On ch=1 n=f#5 v=123
198844 On ch=1 n=b5 v=123
198865 On ch=1 n=b4 v=0
199080 On ch=1 n=b4 v=123
199100 On ch=1 n=b5 v=0
199100 On ch=1 n=f#5 v=0
199324 On ch=1 n=e5 v=123
199324 On ch=1 n=b5 v=123
199336 On ch=1 n=b4 v=0
199560 On ch=1 n=b4 v=123
199580 On ch=1 n=b5 v=0
199580 On ch=1 n=e5 v=0
199795 On ch=1 n=e5 v=100
199804 On ch=1 n=b5 v=100
199816 On ch=1 n=b4 v=0
200040 On ch=1 n=a#4 v=100
200051 On ch=1 n=e5 v=0
200060 On ch=1 n=b5 v=0
200284 On ch=1 n=e5 v=100
200284 On ch=1 n=f#5 v=100
200284 On ch=1 n=a#5 v=100
200296 On ch=1 n=a#4 v=0
200520 On ch=1 n=a#4 v=100
200540 On ch=1 n=a#5 v=0
200540 On ch=1 n=f#5 v=0
200540 On ch=1 n=e5 v=0
200764 On ch=1 n=a5 v=100
200764 On ch=1 n=d#5 v=100
200776 On ch=1 n=a#4 v=0
201000 On ch=1 n=a4 v=100
201020 On ch=1 n=d#5 v=0
201020 On ch=1 n=a5 v=0
201244 On ch=1 n=d#5 v=100
201244 On ch=1 n=a5 v=100
201256 On ch=1 n=a4 v=0
201480 On ch=1 n=g#4 v=100
201500 On ch=1 n=a5 v=0
201500 On ch=1 n=d#5 v=0
201724 On ch=1 n=b4 v=100
201724 On ch=1 n=e5 v=100
201724 On ch=1 n=g#5 v=100
201736 On ch=1 n=g#4 v=0
201960 On ch=1 n=g4 v=100
201980 On ch=1 n=g#5 v=0
201980 On ch=1 n=e5 v=0
201980 On ch=1 n=b4 v=0
202204 On ch=1 n=c5 v=100
202204 On ch=1 n=e5 v=100
202204 On ch=1 n=g5 v=100
202216 On ch=1 n=g4 v=0
202440 On ch=1 n=g4 v=100
202460 On ch=1 n=g5 v=0
202460 On ch=1 n=e5 v=0
202460 On ch=1 n=c5 v=0
202684 On ch=1 n=c5 v=100
202684 On ch=1 n=e5 v=100
202684 On ch=1 n=g5 v=100
202696 On ch=1 n=g4 v=0
202929 On ch=1 n=f4 v=100
202940 On ch=1 n=g5 v=0
202940 On ch=1 n=e5 v=0
202940 On ch=1 n=c5 v=0
203164 On ch=1 n=f5 v=94
203164 On ch=1 n=c5 v=94
203185 On ch=1 n=f4 v=0
203409 On ch=1 n=e4 v=92
203420 On ch=1 n=c5 v=0
203420 On ch=1 n=f5 v=0
203644 On ch=1 n=a4 v=88
203644 On ch=1 n=b4 v=88
203644 On ch=1 n=e5 v=88
203665 On ch=1 n=e4 v=0
203889 On ch=1 n=d#4 v=85
203900 On ch=1 n=e5 v=0
203900 On ch=1 n=b4 v=0
203900 On ch=1 n=a4 v=0
204124 On ch=1 n=d#5 v=82
204124 On ch=1 n=a4 v=82
204145 On ch=1 n=d#4 v=0
204341 On ch=1 n=a4 v=0
204341 On ch=1 n=d#5 v=0
204360 On ch=1 n=g4 v=127
204360 On ch=1 n=a#4 v=127
204360 On ch=1 n=g5 v=127
204360 On ch=1 n=d#5 v=127
205030 On ch=1 n=d#5 v=0
205039 On ch=1 n=g5 v=0
205084 On ch=1 n=g5 v=93
205084 On ch=1 n=d#5 v=93
205102 On ch=1 n=a#4 v=0
205102 On ch=1 n=g4 v=0
205646 On ch=1 n=d#5 v=0
205800 On ch=1 n=g#5 v=104
205818 On ch=1 n=d#5 v=100
205836 On ch=1 n=g5 v=0
206044 On ch=1 n=g5 v=93
206062 On ch=1 n=g#5 v=0
206280 On ch=1 n=d5 v=107
206280 On ch=1 n=c6 v=107
206298 On ch=1 n=g5 v=0
206307 On ch=1 n=d#5 v=0
206515 On ch=1 n=d5 v=0
206524 On ch=1 n=d#5 v=87
206524 On ch=1 n=a#5 v=87
206542 On ch=1 n=c6 v=0
206759 On ch=1 n=d#5 v=0
206769 On ch=1 n=a#5 v=0
207004 On ch=1 n=a4 v=116
207004 On ch=1 n=d#5 v=116
207004 On ch=1 n=f4 v=100
207212 On ch=1 n=f4 v=0
207239 On ch=1 n=d#5 v=0
207239 On ch=1 n=a4 v=0
207240 On ch=1 n=g#4 v=127
207240 On ch=1 n=f5 v=127
207240 On ch=1 n=d#5 v=127
207249 On ch=1 n=f4 v=100
207729 On ch=1 n=f4 v=0
207738 On ch=1 n=d#5 v=0
207747 On ch=1 n=f5 v=0
207747 On ch=1 n=g#4 v=0
207940 Par ch=1 c=64 v=0
207964 Par ch=1 c=64 v=127
207964 On ch=1 n=c8 v=81
208064 On ch=1 n=c8 v=0
208082 On ch=1 n=a#7 v=84
208182 On ch=1 n=a#7 v=0
208200 On ch=1 n=g#7 v=86
208300 On ch=1 n=g#7 v=0
208326 On ch=1 n=g7 v=89
208426 On ch=1 n=g7 v=0
208444 On ch=1 n=f7 v=92
208544 On ch=1 n=f7 v=0
208562 On ch=1 n=d#7 v=94
208662 On ch=1 n=d#7 v=0
208689 On ch=1 n=d7 v=97
208789 On ch=1 n=d7 v=0
208806 On ch=1 n=c7 v=103
208906 On ch=1 n=c7 v=0
208924 On ch=1 n=a#6 v=108
209024 On ch=1 n=a#6 v=0
209042 On ch=1 n=g#6 v=112
209142 On ch=1 n=g#6 v=0
209169 On ch=1 n=g6 v=117
209269 On ch=1 n=g6 v=0
209286 On ch=1 n=f6 v=121
209386 On ch=1 n=f6 v=0
209404 On ch=1 n=d#6 v=125
209504 On ch=1 n=d#6 v=0
209522 On ch=1 n=d6 v=127
209622 On ch=1 n=d6 v=0
209640 On ch=1 n=c6 v=124
209740 On ch=1 n=c6 v=0
209766 On ch=1 n=a#5 v=121
209866 On ch=1 n=a#5 v=0
209884 On ch=1 n=a5 v=118
209984 On ch=1 n=a5 v=0
210002 On ch=1 n=g#5 v=114
210102 On ch=1 n=g#5 v=0
210120 On ch=1 n=g5 v=110
210844 On ch=1 n=f#5 v=84
210844 On ch=1 n=a5 v=84
210880 On ch=1 n=g5 v=0
211560 On ch=1 n=c6 v=93
211560 On ch=1 n=g5 v=93
211587 On ch=1 n=f#5 v=0
211596 On ch=1 n=a5 v=0
211804 On ch=1 n=a#5 v=80
211822 On ch=1 n=g5 v=0
211822 On ch=1 n=c6 v=0
212040 On ch=1 n=f#5 v=113
212049 On ch=1 n=d#6 v=113
212085 On ch=1 n=a#5 v=0
212284 On ch=1 n=d6 v=98
212284 On ch=1 n=g5 v=98
212320 On ch=1 n=f#5 v=0
212329 On ch=1 n=d#6 v=0
212556 On ch=1 n=g5 v=0
212556 On ch=1 n=d6 v=0
212764 On ch=1 n=g5 v=123
212764 On ch=1 n=a4 v=123
212764 On ch=1 n=c#5 v=123
212963 On ch=1 n=c#5 v=0
212972 On ch=1 n=g5 v=0
212981 On ch=1 n=a4 v=0
213000 On ch=1 n=a5 v=126
213009 On ch=1 n=g5 v=126
213009 On ch=1 n=d5 v=126
213009 On ch=1 n=a4 v=126
213507 On ch=1 n=a4 v=0
213507 On ch=1 n=d5 v=0
213507 On ch=1 n=g5 v=0
213507 On ch=1 n=a5 v=0
213724 On ch=1 n=d#8 v=76
213838 On ch=1 n=d#8 v=0
213842 On ch=1 n=d8 v=79
213956 On ch=1 n=d8 v=0
213966 On ch=1 n=c8 v=83
214080 On ch=1 n=c8 v=0
214083 On ch=1 n=a#7 v=84
214197 On ch=1 n=a#7 v=0
214201 On ch=1 n=a7 v=88
214315 On ch=1 n=a7 v=0
214319 On ch=1 n=g7 v=93
214433 On ch=1 n=g7 v=0
214437 On ch=1 n=f#7 v=97
214551 On ch=1 n=f#7 v=0
214563 On ch=1 n=d#7 v=101
214677 On ch=1 n=d#7 v=0
214687 On ch=1 n=d7 v=107
214796 On ch=1 n=c7 v=113
214801 On ch=1 n=d7 v=0
214910 On ch=1 n=c7 v=0
214914 On ch=1 n=a#6 v=118
215028 On ch=1 n=a#6 v=0
215040 On ch=1 n=a6 v=126
215154 On ch=1 n=a6 v=0
215158 On ch=1 n=g6 v=120
215272 On ch=1 n=g6 v=0
215276 On ch=1 n=f#6 v=113
215390 On ch=1 n=f#6 v=0
215394 On ch=1 n=d#6 v=107
215508 On ch=1 n=d#6 v=0
215520 On ch=1 n=d6 v=100
215634 On ch=1 n=d6 v=0
215638 On ch=1 n=c#6 v=93
215752 On ch=1 n=c#6 v=0
215756 On ch=1 n=c6 v=87
215870 On ch=1 n=c6 v=0
215874 On ch=1 n=b5 v=80
216326 On ch=1 n=b5 v=0
216354 On ch=1 n=g6 v=74
216354 On ch=1 n=b5 v=74
216598 On ch=1 n=c6 v=81
216598 On ch=1 n=g#6 v=81
216616 On ch=1 n=g6 v=0
216643 On ch=1 n=b5 v=0
216843 On ch=1 n=g6 v=74
216843 On ch=1 n=b5 v=74
216861 On ch=1 n=g#6 v=0
216888 On ch=1 n=c6 v=0
217078 On ch=1 n=f#6 v=67
217087 On ch=1 n=c6 v=67
217105 On ch=1 n=b5 v=0
217105 On ch=1 n=g6 v=0
217323 On ch=1 n=b5 v=61
217323 On ch=1 n=g6 v=61
217332 On ch=1 n=c6 v=0
217332 On ch=1 n=f#6 v=0
217549 On ch=1 n=g6 v=0
217585 On ch=1 n=b5 v=0
217794 On ch=1 n=b4 v=56
217794 On ch=1 n=g5 v=56
218038 On ch=1 n=c5 v=67
218038 On ch=1 n=g#5 v=67
218056 On ch=1 n=b4 v=0
218092 On ch=1 n=g5 v=0
218283 On ch=1 n=b4 v=59
218283 On ch=1 n=g5 v=59
218310 On ch=1 n=c5 v=0
218328 On ch=1 n=g#5 v=0
218518 On ch=1 n=c5 v=51
218518 On ch=1 n=f#5 v=51
218545 On ch=1 n=g5 v=0
218545 On ch=1 n=b4 v=0
218754 On ch=1 n=b4 v=54
218754 On ch=1 n=g5 v=54
218781 On ch=1 n=c5 v=0
218799 On ch=1 n=f#5 v=0
219179 On ch=1 n=g5 v=0
219179 On ch=1 n=b4 v=0
219234 On ch=1 n=c6 v=123
219234 On ch=1 n=f#6 v=123
219478 On ch=1 n=g6 v=123
219478 On ch=1 n=b5 v=123
219487 On ch=1 n=f#6 v=0
219505 On ch=1 n=c6 v=0
219858 On ch=1 n=b5 v=0
219858 On ch=1 n=g6 v=0
219958 On ch=1 n=f#6 v=54
219958 On ch=1 n=c6 v=54
220194 On ch=1 n=b5 v=68
220203 On ch=1 n=g6 v=67
220239 On ch=1 n=c6 v=0
220257 On ch=1 n=f#6 v=0
220438 On ch=1 n=c6 v=62
220447 On ch=1 n=g6 v=0
220447 On ch=1 n=f#6 v=62
220456 On ch=1 n=b5 v=0
220674 On ch=1 n=g6 v=56
220683 On ch=1 n=b5 v=56
220701 On ch=1 n=f#6 v=0
220701 On ch=1 n=c6 v=0
220918 On ch=1 n=c6 v=50
220918 On ch=1 n=f#6 v=50
220927 On ch=1 n=g6 v=0
220945 On ch=1 n=b5 v=0
221154 On ch=1 n=b5 v=44
221163 On ch=1 n=g6 v=44
221190 On ch=1 n=f#6 v=0
221199 On ch=1 n=c6 v=0
221398 On ch=1 n=f#6 v=40
221398 On ch=1 n=c6 v=40
221425 On ch=1 n=g6 v=0
221434 On ch=1 n=b5 v=0
221634 On ch=1 n=b5 v=44
221643 On ch=1 n=c6 v=0
221643 On ch=1 n=g6 v=44
221670 On ch=1 n=f#6 v=0
222141 On ch=1 n=g6 v=0
222159 On ch=1 n=b5 v=0
222358 On ch=1 n=c8 v=74
222472 On ch=1 n=c8 v=0
222476 On ch=1 n=c#8 v=79
222590 On ch=1 n=c#8 v=0
222594 On ch=1 n=c8 v=84
222708 On ch=1 n=c8 v=0
222720 On ch=1 n=a#7 v=90
222834 On ch=1 n=a#7 v=0
222844 On ch=1 n=g#7 v=97
222953 On ch=1 n=g7 v=102
222958 On ch=1 n=g#7 v=0
223067 On ch=1 n=g7 v=0
223071 On ch=1 n=f7 v=108
223185 On ch=1 n=f7 v=0
223197 On ch=1 n=g7 v=113
223311 On ch=1 n=g7 v=0
223315 On ch=1 n=f7 v=119
223429 On ch=1 n=f7 v=0
223433 On ch=1 n=d#7 v=125
223547 On ch=1 n=d#7 v=0
223551 On ch=1 n=d7 v=127
223665 On ch=1 n=d7 v=0
223677 On ch=1 n=c7 v=123
223791 On ch=1 n=c7 v=0
223795 On ch=1 n=b6 v=120
223909 On ch=1 n=b6 v=0
223913 On ch=1 n=c7 v=117
224027 On ch=1 n=c7 v=0
224031 On ch=1 n=a#6 v=113
224145 On ch=1 n=a#6 v=0
224157 On ch=1 n=g#6 v=109
224271 On ch=1 n=g#6 v=0
224275 On ch=1 n=g6 v=105
224389 On ch=1 n=g6 v=0
224393 On ch=1 n=f6 v=102
224507 On ch=1 n=f6 v=0
224511 On ch=1 n=g6 v=98
224625 On ch=1 n=g6 v=0
224637 On ch=1 n=f6 v=93
224751 On ch=1 n=f6 v=0
224755 On ch=1 n=d#6 v=90
224869 On ch=1 n=d#6 v=0
224873 On ch=1 n=d6 v=87
224987 On ch=1 n=d6 v=0
224991 On ch=1 n=c6 v=84
225105 On ch=1 n=c6 v=0
225117 On ch=1 n=a#5 v=79
225231 On ch=1 n=a#5 v=0
225235 On ch=1 n=g#5 v=77
225349 On ch=1 n=g#5 v=0
225353 On ch=1 n=g5 v=74
225467 On ch=1 n=g5 v=0
225471 On ch=1 n=f5 v=70
225585 On ch=1 n=f5 v=0
225597 On ch=1 n=d#5 v=66
225711 On ch=1 n=d#5 v=0
225715 On ch=1 n=d5 v=63
225829 On ch=1 n=d5 v=0
225833 On ch=1 n=c5 v=60
225947 On ch=1 n=c5 v=0
225951 On ch=1 n=b4 v=74
226065 On ch=1 n=b4 v=0
226077 On ch=1 n=g#4 v=85
226191 On ch=1 n=g#4 v=0
226195 On ch=1 n=g4 v=96
226309 On ch=1 n=g4 v=0
226313 On ch=1 n=f4 v=107
226427 On ch=1 n=f4 v=0
226437 On ch=1 n=d#4 v=118
226551 On ch=1 n=d#4 v=0
226554 On ch=1 n=d4 v=123
226668 On ch=1 n=d4 v=0
226672 On ch=1 n=c4 v=113
226786 On ch=1 n=c4 v=0
226790 On ch=1 n=b3 v=103
226904 On ch=1 n=b3 v=0
226908 On ch=1 n=g#3 v=93
227022 On ch=1 n=g#3 v=0
227034 On ch=1 n=g3 v=83
227148 On ch=1 n=g3 v=0
227152 On ch=1 n=f3 v=120
227266 On ch=1 n=f3 v=0
227270 On ch=1 n=d3 v=127
227384 On ch=1 n=d3 v=0
228112 On ch=1 n=c5 v=88
228112 On ch=1 n=d#5 v=88
228828 On ch=1 n=b4 v=104
228828 On ch=1 n=f5 v=104
228864 On ch=1 n=d#5 v=0
228864 On ch=1 n=c5 v=0
229072 On ch=1 n=c5 v=93
229072 On ch=1 n=d#5 v=100
229090 On ch=1 n=f5 v=0
229090 On ch=1 n=b4 v=0
229308 On ch=1 n=g#5 v=107
229308 On ch=1 n=b4 v=107
229326 On ch=1 n=d#5 v=0
229326 On ch=1 n=c5 v=0
229543 On ch=1 n=b4 v=0
229552 On ch=1 n=c5 v=87
229552 On ch=1 n=g5 v=87
229570 On ch=1 n=g#5 v=0
229787 On ch=1 n=c5 v=0
229797 On ch=1 n=g5 v=0
230032 On ch=1 n=d4 v=116
230032 On ch=1 n=c5 v=116
230032 On ch=1 n=f#4 v=116
230267 On ch=1 n=f#4 v=0
230267 On ch=1 n=c5 v=0
230267 On ch=1 n=d4 v=0
230268 On ch=1 n=d5 v=127
230268 On ch=1 n=c5 v=127
230268 On ch=1 n=g4 v=127
230268 On ch=1 n=d4 v=127
230766 On ch=1 n=g4 v=0
230775 On ch=1 n=d4 v=0
230775 On ch=1 n=c5 v=0
230775 On ch=1 n=d5 v=0
230968 Par ch=1 c=64 v=0
230992 Par ch=1 c=64 v=127
230992 On ch=1 n=g#7 v=81
231092 On ch=1 n=g#7 v=0
231110 On ch=1 n=g7 v=84
231210 On ch=1 n=g7 v=0
231228 On ch=1 n=f7 v=86
231328 On ch=1 n=f7 v=0
231354 On ch=1 n=d#7 v=89
231454 On ch=1 n=d#7 v=0
231472 On ch=1 n=d7 v=92
231572 On ch=1 n=d7 v=0
231590 On ch=1 n=c7 v=94
231690 On ch=1 n=c7 v=0
231717 On ch=1 n=b6 v=97
231817 On ch=1 n=b6 v=0
231834 On ch=1 n=g#6 v=103
231934 On ch=1 n=g#6 v=0
231952 On ch=1 n=g6 v=108
232052 On ch=1 n=g6 v=0
232070 On ch=1 n=f6 v=112
232170 On ch=1 n=f6 v=0
232197 On ch=1 n=d#6 v=117
232297 On ch=1 n=d#6 v=0
232314 On ch=1 n=d6 v=121
232414 On ch=1 n=d6 v=0
232432 On ch=1 n=c6 v=125
232532 On ch=1 n=c6 v=0
232550 On ch=1 n=b5 v=127
232650 On ch=1 n=b5 v=0
232668 On ch=1 n=g#5 v=124
232768 On ch=1 n=g#5 v=0
232794 On ch=1 n=g5 v=121
232894 On ch=1 n=g5 v=0
232912 On ch=1 n=f#5 v=118
233012 On ch=1 n=f#5 v=0
233030 On ch=1 n=f5 v=114
233130 On ch=1 n=f5 v=0
233148 On ch=1 n=d#5 v=110
233836 On ch=1 n=d#5 v=0
233872 On ch=1 n=f5 v=84
233872 On ch=1 n=d#5 v=84
234569 On ch=1 n=d#5 v=0
234588 On ch=1 n=f5 v=93
234588 On ch=1 n=g#5 v=93
234588 On ch=1 n=d#5 v=93
234597 On ch=1 n=f5 v=0
234597 On ch=1 n=f5 v=0
234832 On ch=1 n=g5 v=80
234850 On ch=1 n=g#5 v=0
235077 On ch=1 n=c6 v=113
235077 On ch=1 n=d5 v=100
235113 On ch=1 n=g5 v=0
235113 On ch=1 n=d#5 v=0
235312 On ch=1 n=a#5 v=98
235312 On ch=1 n=d#5 v=98
235330 On ch=1 n=d5 v=0
235357 On ch=1 n=c6 v=0
235584 On ch=1 n=d#5 v=0
235584 On ch=1 n=a#5 v=0
235792 On ch=1 n=d#5 v=123
235792 On ch=1 n=a4 v=123
235792 On ch=1 n=f4 v=123
235991 On ch=1 n=f4 v=0
236000 On ch=1 n=a4 v=0
236000 On ch=1 n=d#5 v=0
236028 On ch=1 n=f5 v=126
236037 On ch=1 n=d#5 v=126
236037 On ch=1 n=a#4 v=126
236037 On ch=1 n=f4 v=126
236535 On ch=1 n=f4 v=0
236535 On ch=1 n=a#4 v=0
236535 On ch=1 n=d#5 v=0
236535 On ch=1 n=f5 v=0
236752 On ch=1 n=c8 v=76
236866 On ch=1 n=c8 v=0
236870 On ch=1 n=a#7 v=79
236984 On ch=1 n=a#7 v=0
236994 On ch=1 n=g#7 v=83
237108 On ch=1 n=g#7 v=0
237111 On ch=1 n=g7 v=84
237225 On ch=1 n=g7 v=0
237229 On ch=1 n=f7 v=88
237343 On ch=1 n=f7 v=0
237347 On ch=1 n=d#7 v=93
237461 On ch=1 n=d#7 v=0
237465 On ch=1 n=d7 v=97
237579 On ch=1 n=d7 v=0
237591 On ch=1 n=c7 v=93
237705 On ch=1 n=c7 v=0
237715 On ch=1 n=a#6 v=100
237824 On ch=1 n=g#6 v=105
237829 On ch=1 n=a#6 v=0
237938 On ch=1 n=g#6 v=0
237942 On ch=1 n=g6 v=110
238056 On ch=1 n=g6 v=0
238068 On ch=1 n=f6 v=117
238182 On ch=1 n=f6 v=0
238186 On ch=1 n=d#6 v=104
238300 On ch=1 n=d#6 v=0
238304 On ch=1 n=d6 v=96
238418 On ch=1 n=d6 v=0
238422 On ch=1 n=c6 v=88
238536 On ch=1 n=c6 v=0
238548 On ch=1 n=a#5 v=80
238662 On ch=1 n=a#5 v=0
238666 On ch=1 n=a5 v=71
238780 On ch=1 n=a5 v=0
238784 On ch=1 n=g#5 v=63
238898 On ch=1 n=g#5 v=0
238908 On ch=1 n=g5 v=77
239025 On ch=1 n=g#5 v=67
239035 On ch=1 n=g5 v=0
239140 On ch=1 n=a#5 v=74
239152 On ch=1 n=g#5 v=0
239258 On ch=1 n=c6 v=80
239270 On ch=1 n=a#5 v=0
239376 On ch=1 n=d6 v=86
239388 On ch=1 n=c6 v=0
239502 On ch=1 n=d#6 v=93
239506 On ch=1 n=d6 v=0
239620 On ch=1 n=g#6 v=95
239632 On ch=1 n=d#6 v=0
239738 On ch=1 n=g6 v=95
239750 On ch=1 n=g#6 v=0
239856 On ch=1 n=f6 v=92
239868 On ch=1 n=g6 v=0
239982 On ch=1 n=d#6 v=86
239986 On ch=1 n=f6 v=0
240100 On ch=1 n=d6 v=82
240112 On ch=1 n=d#6 v=0
240218 On ch=1 n=c6 v=77
240230 On ch=1 n=d6 v=0
240336 On ch=1 n=a#5 v=71
240348 On ch=1 n=c6 v=0
240462 On ch=1 n=a5 v=66
240466 On ch=1 n=a#5 v=0
240580 On ch=1 n=g#5 v=60
240592 On ch=1 n=a5 v=0
240698 On ch=1 n=g5 v=56
240710 On ch=1 n=g#5 v=0
240825 On ch=1 n=e5 v=62
240828 On ch=1 n=g5 v=0
240942 On ch=1 n=f5 v=68
240952 On ch=1 n=e5 v=0
241057 On ch=1 n=g5 v=90
241069 On ch=1 n=f5 v=0
241175 On ch=1 n=g#5 v=71
241187 On ch=1 n=g5 v=0
241293 On ch=1 n=a5 v=68
241305 On ch=1 n=g#5 v=0
241410 On ch=1 n=a#5 v=64
241420 On ch=1 n=a5 v=0
241534 On ch=1 n=c6 v=61
241537 On ch=1 n=a#5 v=0
241652 On ch=1 n=a#5 v=57
241664 On ch=1 n=c6 v=0
241779 On ch=1 n=g5 v=62
241779 On ch=1 n=g5 v=71
241782 On ch=1 n=a#5 v=0
241896 On ch=1 n=g#5 v=50
241906 On ch=1 n=g5 v=0
241906 On ch=1 n=g5 v=0
242011 On ch=1 n=a#5 v=58
242023 On ch=1 n=g#5 v=0
242129 On ch=1 n=c6 v=65
242141 On ch=1 n=a#5 v=0
242247 On ch=1 n=d6 v=73
242259 On ch=1 n=c6 v=0
242373 On ch=1 n=d#6 v=83
242377 On ch=1 n=d6 v=0
242491 On ch=1 n=g#6 v=91
242503 On ch=1 n=d#6 v=0
242609 On ch=1 n=g6 v=106
242621 On ch=1 n=g#6 v=0
242727 On ch=1 n=f6 v=101
242739 On ch=1 n=g6 v=0
242853 On ch=1 n=d#6 v=96
242857 On ch=1 n=f6 v=0
242971 On ch=1 n=d6 v=86
242983 On ch=1 n=d#6 v=0
243089 On ch=1 n=c6 v=84
243101 On ch=1 n=d6 v=0
243207 On ch=1 n=a#5 v=81
243219 On ch=1 n=c6 v=0
243333 On ch=1 n=a5 v=77
243337 On ch=1 n=a#5 v=0
243451 On ch=1 n=g#5 v=74
243463 On ch=1 n=a5 v=0
243569 On ch=1 n=g5 v=71
243581 On ch=1 n=g#5 v=0
243696 On ch=1 n=e5 v=68
243699 On ch=1 n=g5 v=0
243813 On ch=1 n=f5 v=65
243823 On ch=1 n=e5 v=0
243928 On ch=1 n=g5 v=62
243940 On ch=1 n=f5 v=0
244046 On ch=1 n=g#5 v=59
244058 On ch=1 n=g5 v=0
244164 On ch=1 n=a5 v=56
244176 On ch=1 n=g#5 v=0
244281 On ch=1 n=a#5 v=53
244291 On ch=1 n=a5 v=0
244405 On ch=1 n=c6 v=50
244408 On ch=1 n=a#5 v=0
244523 On ch=1 n=a#5 v=47
244535 On ch=1 n=c6 v=0
244650 On ch=1 n=g5 v=74
244653 On ch=1 n=a#5 v=0
244767 On ch=1 n=g#5 v=49
244777 On ch=1 n=g5 v=0
244882 On ch=1 n=a#5 v=54
244894 On ch=1 n=g#5 v=0
245000 On ch=1 n=c6 v=59
245012 On ch=1 n=a#5 v=0
245118 On ch=1 n=c#6 v=66
245130 On ch=1 n=c6 v=0
245244 On ch=1 n=d#6 v=72
245248 On ch=1 n=c#6 v=0
245362 On ch=1 n=f6 v=78
245374 On ch=1 n=d#6 v=0
245480 On ch=1 n=g6 v=84
245492 On ch=1 n=f6 v=0
245598 On ch=1 n=g#6 v=89
245610 On ch=1 n=g6 v=0
245724 On ch=1 n=a#6 v=95
245728 On ch=1 n=g#6 v=0
245842 On ch=1 n=c7 v=101
245854 On ch=1 n=a#6 v=0
245960 On ch=1 n=c#7 v=107
245972 On ch=1 n=c7 v=0
246078 On ch=1 n=c8 v=116
246090 On ch=1 n=c#7 v=0
246204 On ch=1 n=a#7 v=120
246208 On ch=1 n=c8 v=0
246322 On ch=1 n=a7 v=125
246334 On ch=1 n=a#7 v=0
246440 On ch=1 n=c#7 v=127
246452 On ch=1 n=a7 v=0
246567 On ch=1 n=e7 v=127
246570 On ch=1 n=c#7 v=0
246684 On ch=1 n=f7 v=124
246694 On ch=1 n=e7 v=0
246799 On ch=1 n=g#7 v=119
246811 On ch=1 n=f7 v=0
246917 On ch=1 n=g7 v=108
246929 On ch=1 n=g#7 v=0
247035 On ch=1 n=f7 v=101
247047 On ch=1 n=g7 v=0
247152 On ch=1 n=d#7 v=93
247162 On ch=1 n=f7 v=0
247276 On ch=1 n=c#7 v=85
247279 On ch=1 n=d#7 v=0
247394 On ch=1 n=c7 v=79
247406 On ch=1 n=c#7 v=0
247521 On ch=1 n=a#6 v=70
247524 On ch=1 n=c7 v=0
247638 On ch=1 n=g#6 v=66
247648 On ch=1 n=a#6 v=0
247753 On ch=1 n=g6 v=62
247765 On ch=1 n=g#6 v=0
247871 On ch=1 n=f6 v=58
247883 On ch=1 n=g6 v=0
247989 On ch=1 n=d#6 v=61
248001 On ch=1 n=f6 v=0
248115 On ch=1 n=c#6 v=64
248119 On ch=1 n=d#6 v=0
248233 On ch=1 n=c6 v=68
248245 On ch=1 n=c#6 v=0
248351 On ch=1 n=a#5 v=71
248363 On ch=1 n=c6 v=0
248469 On ch=1 n=a5 v=75
248481 On ch=1 n=a#5 v=0
248595 On ch=1 n=a#5 v=78
248599 On ch=1 n=a5 v=0
248713 On ch=1 n=b5 v=82
248725 On ch=1 n=a#5 v=0
248831 On ch=1 n=c6 v=85
248843 On ch=1 n=b5 v=0
248949 On ch=1 n=c#6 v=98
248961 On ch=1 n=c6 v=0
249075 On ch=1 n=d6 v=96
249079 On ch=1 n=c#6 v=0
249193 On ch=1 n=d#6 v=85
249205 On ch=1 n=d6 v=0
249311 On ch=1 n=e6 v=82
249323 On ch=1 n=d#6 v=0
249438 On ch=1 n=f6 v=78
249441 On ch=1 n=e6 v=0
249555 On ch=1 n=e6 v=74
249565 On ch=1 n=f6 v=0
249670 On ch=1 n=g6 v=70
249682 On ch=1 n=e6 v=0
249788 On ch=1 n=f6 v=67
249800 On ch=1 n=g6 v=0
249906 On ch=1 n=d#6 v=60
249918 On ch=1 n=f6 v=0
250023 On ch=1 n=c#6 v=75
250033 On ch=1 n=d#6 v=0
250147 On ch=1 n=c6 v=81
250150 On ch=1 n=c#6 v=0
250265 On ch=1 n=b5 v=73
250277 On ch=1 n=c6 v=0
250392 On ch=1 n=c6 v=99
250395 On ch=1 n=b5 v=0
250509 On ch=1 n=c#6 v=80
250519 On ch=1 n=c6 v=0
250624 On ch=1 n=d#6 v=88
250636 On ch=1 n=c#6 v=0
250742 On ch=1 n=f6 v=95
250754 On ch=1 n=d#6 v=0
250860 On ch=1 n=g6 v=103
250872 On ch=1 n=f6 v=0
250986 On ch=1 n=g#6 v=110
250990 On ch=1 n=g6 v=0
251104 On ch=1 n=c#7 v=118
251116 On ch=1 n=g#6 v=0
251222 On ch=1 n=c7 v=127
251234 On ch=1 n=c#7 v=0
251340 On ch=1 n=a#6 v=124
251352 On ch=1 n=c7 v=0
251466 On ch=1 n=g#6 v=119
251470 On ch=1 n=a#6 v=0
251584 On ch=1 n=g6 v=113
251596 On ch=1 n=g#6 v=0
251702 On ch=1 n=f6 v=108
251714 On ch=1 n=g6 v=0
251820 On ch=1 n=d#6 v=103
251832 On ch=1 n=f6 v=0
251946 On ch=1 n=d6 v=97
251950 On ch=1 n=d#6 v=0
252064 On ch=1 n=c#6 v=91
252076 On ch=1 n=d6 v=0
252182 On ch=1 n=c6 v=86
252194 On ch=1 n=c#6 v=0
252300 On ch=1 n=a5 v=82
252312 On ch=1 n=c6 v=0
252426 On ch=1 n=a#5 v=76
252430 On ch=1 n=a5 v=0
252544 On ch=1 n=c6 v=71
252556 On ch=1 n=a#5 v=0
252662 On ch=1 n=c#6 v=65
252674 On ch=1 n=c6 v=0
252789 On ch=1 n=d6 v=71
252792 On ch=1 n=c#6 v=0
252906 On ch=1 n=d#6 v=79
252916 On ch=1 n=d6 v=0
253021 On ch=1 n=f6 v=81
253033 On ch=1 n=d#6 v=0
253139 On ch=1 n=d#6 v=73
253151 On ch=1 n=f6 v=0
253266 On ch=1 n=c6 v=107
253269 On ch=1 n=d#6 v=0
253383 On ch=1 n=c#6 v=73
253393 On ch=1 n=c6 v=0
253498 On ch=1 n=d#6 v=72
253510 On ch=1 n=c#6 v=0
253616 On ch=1 n=f6 v=79
253628 On ch=1 n=d#6 v=0
253734 On ch=1 n=g6 v=85
253746 On ch=1 n=f6 v=0
253860 On ch=1 n=g#6 v=93
253864 On ch=1 n=g6 v=0
253978 On ch=1 n=c#7 v=100
253990 On ch=1 n=g#6 v=0
254096 On ch=1 n=c7 v=94
254108 On ch=1 n=c#7 v=0
254214 On ch=1 n=a#6 v=90
254226 On ch=1 n=c7 v=0
254340 On ch=1 n=g#6 v=86
254344 On ch=1 n=a#6 v=0
254458 On ch=1 n=g6 v=83
254470 On ch=1 n=g#6 v=0
254576 On ch=1 n=f6 v=79
254588 On ch=1 n=g6 v=0
254694 On ch=1 n=d#6 v=75
254706 On ch=1 n=f6 v=0
254820 On ch=1 n=d6 v=71
254824 On ch=1 n=d#6 v=0
254938 On ch=1 n=c#6 v=69
254950 On ch=1 n=d6 v=0
255056 On ch=1 n=c6 v=66
255068 On ch=1 n=c#6 v=0
255174 On ch=1 n=a5 v=63
255186 On ch=1 n=c6 v=0
255300 On ch=1 n=a#5 v=60
255304 On ch=1 n=a5 v=0
255418 On ch=1 n=c6 v=57
255430 On ch=1 n=a#5 v=0
255536 On ch=1 n=c#6 v=55
255548 On ch=1 n=c6 v=0
255663 On ch=1 n=d6 v=52
255666 On ch=1 n=c#6 v=0
255780 On ch=1 n=d#6 v=49
255790 On ch=1 n=d6 v=0
255895 On ch=1 n=f6 v=62
255907 On ch=1 n=d#6 v=0
256013 On ch=1 n=d#6 v=60
256025 On ch=1 n=f6 v=0
256140 On ch=1 n=c6 v=92
256143 On ch=1 n=d#6 v=0
256257 On ch=1 n=c#6 v=62
256267 On ch=1 n=c6 v=0
256372 On ch=1 n=d#6 v=70
256384 On ch=1 n=c#6 v=0
256490 On ch=1 n=f6 v=78
256502 On ch=1 n=d#6 v=0
256608 On ch=1 n=f#6 v=85
256620 On ch=1 n=f6 v=0
256734 On ch=1 n=g#6 v=93
256738 On ch=1 n=f#6 v=0
256852 On ch=1 n=a#6 v=101
256864 On ch=1 n=g#6 v=0
256970 On ch=1 n=c7 v=106
256982 On ch=1 n=a#6 v=0
257088 On ch=1 n=c#7 v=106
257100 On ch=1 n=c7 v=0
257214 On ch=1 n=d#7 v=106
257218 On ch=1 n=c#7 v=0
257332 On ch=1 n=f7 v=106
257344 On ch=1 n=d#7 v=0
257450 On ch=1 n=f#7 v=106
257462 On ch=1 n=f7 v=0
257568 On ch=1 n=c8 v=102
257580 On ch=1 n=f#7 v=0
257694 On ch=1 n=a#7 v=98
257698 On ch=1 n=c8 v=0
257812 On ch=1 n=g#7 v=94
257824 On ch=1 n=a#7 v=0
257930 On ch=1 n=f#7 v=90
257942 On ch=1 n=g#7 v=0
258057 On ch=1 n=f7 v=87
258060 On ch=1 n=f#7 v=0
258174 On ch=1 n=d#7 v=84
258184 On ch=1 n=f7 v=0
258289 On ch=1 n=f7 v=79
258301 On ch=1 n=d#7 v=0
258407 On ch=1 n=d#7 v=76
258419 On ch=1 n=f7 v=0
258525 On ch=1 n=c#7 v=73
258537 On ch=1 n=d#7 v=0
258642 On ch=1 n=c7 v=71
258652 On ch=1 n=c#7 v=0
258766 On ch=1 n=a#6 v=83
258769 On ch=1 n=c7 v=0
258884 On ch=1 n=c7 v=93
258896 On ch=1 n=a#6 v=0
259002 On ch=1 n=a#6 v=110
259014 On ch=1 n=c7 v=0
259128 On ch=1 n=g#6 v=113
259132 On ch=1 n=a#6 v=0
259246 On ch=1 n=f#6 v=110
259258 On ch=1 n=g#6 v=0
259364 On ch=1 n=f6 v=106
259376 On ch=1 n=f#6 v=0
259491 On ch=1 n=d#6 v=102
259494 On ch=1 n=f6 v=0
259608 On ch=1 n=f6 v=98
259618 On ch=1 n=d#6 v=0
259723 On ch=1 n=d#6 v=93
259735 On ch=1 n=f6 v=0
259841 On ch=1 n=c#6 v=90
259853 On ch=1 n=d#6 v=0
259959 On ch=1 n=c6 v=86
259971 On ch=1 n=c#6 v=0
260076 On ch=1 n=c#6 v=82
260086 On ch=1 n=c6 v=0
260200 On ch=1 n=c6 v=91
260203 On ch=1 n=c#6 v=0
260318 On ch=1 n=a#5 v=76
260330 On ch=1 n=c6 v=0
260417 On ch=1 n=a#5 v=0
260436 On ch=1 n=g#5 v=118
260562 On ch=1 n=a5 v=111
260566 On ch=1 n=g#5 v=0
260680 On ch=1 n=a6 v=104
260692 On ch=1 n=a5 v=0
260798 On ch=1 n=f#6 v=98
260810 On ch=1 n=a6 v=0
260925 On ch=1 n=d#6 v=90
260928 On ch=1 n=f#6 v=0
261042 On ch=1 n=c6 v=83
261052 On ch=1 n=d#6 v=0
261157 On ch=1 n=a5 v=76
261169 On ch=1 n=c6 v=0
261275 On ch=1 n=f#5 v=79
261287 On ch=1 n=a5 v=0
261393 On ch=1 n=d#5 v=89
261405 On ch=1 n=f#5 v=0
261510 On ch=1 n=c5 v=99
261520 On ch=1 n=d#5 v=0
261634 On ch=1 n=a4 v=110
261637 On ch=1 n=c5 v=0
261752 On ch=1 n=f#4 v=120
261764 On ch=1 n=a4 v=0
261870 On ch=1 n=d#4 v=100
261882 On ch=1 n=f#4 v=0
262126 On ch=1 n=d#4 v=0
262359 On ch=1 n=c5 v=100
262359 On ch=1 n=g#5 v=100
262594 On ch=1 n=c#5 v=100
262594 On ch=1 n=a5 v=100
262603 On ch=1 n=c5 v=0
262612 On ch=1 n=g#5 v=0
262830 On ch=1 n=g#5 v=100
262839 On ch=1 n=c5 v=100
262848 On ch=1 n=c#5 v=0
262866 On ch=1 n=a5 v=0
263074 On ch=1 n=c5 v=0
263074 On ch=1 n=g5 v=100
263074 On ch=1 n=c#5 v=100
263083 On ch=1 n=g#5 v=0
263310 On ch=1 n=c#5 v=0
263310 On ch=1 n=g5 v=0
263310 On ch=1 n=c5 v=100
263319 On ch=1 n=g#5 v=100
263762 On ch=1 n=c5 v=0
263771 On ch=1 n=g#5 v=0
263799 On ch=1 n=c5 v=100
263799 On ch=1 n=g#5 v=100
264034 On ch=1 n=g#5 v=0
264034 On ch=1 n=a5 v=100
264034 On ch=1 n=c#5 v=100
264043 On ch=1 n=c5 v=0
264270 On ch=1 n=c#5 v=0
264270 On ch=1 n=g#5 v=100
264279 On ch=1 n=c5 v=100
264297 On ch=1 n=a5 v=0
264514 On ch=1 n=g5 v=100
264514 On ch=1 n=c#5 v=100
264532 On ch=1 n=c5 v=0
264532 On ch=1 n=g#5 v=0
264722 On ch=1 n=g5 v=0
264731 On ch=1 n=c#5 v=0
264750 On ch=1 n=g#5 v=100
264750 On ch=1 n=c5 v=100
264976 On ch=1 n=c5 v=0
264994 On ch=1 n=c5 v=100
265003 On ch=1 n=g#5 v=0
265104 On ch=1 n=c5 v=0
265112 On ch=1 n=d#5 v=100
265222 On ch=1 n=d#5 v=0
265230 On ch=1 n=g#5 v=100
265340 On ch=1 n=g#5 v=0
265356 On ch=1 n=a#5 v=100
265466 On ch=1 n=a#5 v=0
265474 On ch=1 n=c6 v=100
265584 On ch=1 n=c6 v=0
265592 On ch=1 n=d#6 v=100
265702 On ch=1 n=d#6 v=0
265710 On ch=1 n=g#6 v=100
265820 On ch=1 n=g#6 v=0
265836 On ch=1 n=a#6 v=100
265946 On ch=1 n=a#6 v=0
265954 On ch=1 n=c7 v=100
266064 On ch=1 n=c7 v=0
266072 On ch=1 n=c8 v=100
266182 On ch=1 n=c8 v=0
266208 On ch=1 n=a#7 v=100
266316 On ch=1 n=g#7 v=100
266318 On ch=1 n=a#7 v=0
266426 On ch=1 n=g#7 v=0
266443 On ch=1 n=d#7 v=100
266552 On ch=1 n=c7 v=100
266553 On ch=1 n=d#7 v=0
266662 On ch=1 n=c7 v=0
266670 On ch=1 n=a#6 v=100
266780 On ch=1 n=a#6 v=0
266805 On ch=1 n=g#6 v=100
266914 On ch=1 n=d#6 v=100
266915 On ch=1 n=g#6 v=0
267024 On ch=1 n=d#6 v=0
267032 On ch=1 n=c6 v=100
267142 On ch=1 n=c6 v=0
267150 On ch=1 n=a#5 v=100
267260 On ch=1 n=a#5 v=0
267276 On ch=1 n=g#5 v=100
267386 On ch=1 n=g#5 v=0
267403 On ch=1 n=d#5 v=100
267512 On ch=1 n=c5 v=100
267513 On ch=1 n=d#5 v=0
267622 On ch=1 n=c5 v=0
267630 On ch=1 n=a5 v=100
267630 On ch=1 n=e5 v=100
267630 On ch=1 n=c#5 v=100
268064 On ch=1 n=a5 v=0
268082 On ch=1 n=e5 v=0
268101 On ch=1 n=c#5 v=0
268110 On ch=1 n=a5 v=100
268119 On ch=1 n=e5 v=100
268354 On ch=1 n=g5 v=100
268363 On ch=1 n=b5 v=100
268372 On ch=1 n=a5 v=0
268381 On ch=1 n=e5 v=0
268590 On ch=1 n=g5 v=0
268599 On ch=1 n=a5 v=100
268599 On ch=1 n=e5 v=100
268608 On ch=1 n=b5 v=0
268834 On ch=1 n=g5 v=100
268834 On ch=1 n=d6 v=100
268861 On ch=1 n=e5 v=0
268861 On ch=1 n=a5 v=0
269051 On ch=1 n=d6 v=0
269051 On ch=1 n=g5 v=0
269079 On ch=1 n=c#6 v=100
269079 On ch=1 n=e5 v=100
269332 On ch=1 n=c#6 v=0
269350 On ch=1 n=e5 v=0
269550 On ch=1 n=a5 v=100
269559 On ch=1 n=e5 v=100
269794 On ch=1 n=g5 v=100
269803 On ch=1 n=b5 v=100
269812 On ch=1 n=a5 v=0
269821 On ch=1 n=e5 v=0
270030 On ch=1 n=g5 v=0
270039 On ch=1 n=a5 v=100
270039 On ch=1 n=e5 v=100
270048 On ch=1 n=b5 v=0
270274 On ch=1 n=g5 v=100
270274 On ch=1 n=d6 v=100
270301 On ch=1 n=e5 v=0
270301 On ch=1 n=a5 v=0
270491 On ch=1 n=d6 v=0
270491 On ch=1 n=g5 v=0
270510 On ch=1 n=c#6 v=100
270510 On ch=1 n=e5 v=100
270736 On ch=1 n=e5 v=0
270754 On ch=1 n=d#5 v=100
270763 On ch=1 n=c#6 v=0
270864 On ch=1 n=d#5 v=0
270872 On ch=1 n=e5 v=100
270982 On ch=1 n=e5 v=0
270990 On ch=1 n=a5 v=100
271100 On ch=1 n=a5 v=0
271116 On ch=1 n=c#6 v=100
271226 On ch=1 n=c#6 v=0
271234 On ch=1 n=e6 v=100
271344 On ch=1 n=e6 v=0
271352 On ch=1 n=a6 v=100
271462 On ch=1 n=a6 v=0
271470 On ch=1 n=c#7 v=100
271580 On ch=1 n=c#7 v=0
271596 On ch=1 n=e7 v=100
271706 On ch=1 n=e7 v=0
271714 On ch=1 n=a7 v=100
271824 On ch=1 n=a7 v=0
271832 On ch=1 n=d8 v=100
271942 On ch=1 n=d8 v=0
271968 On ch=1 n=c#8 v=100
272076 On ch=1 n=a7 v=100
272078 On ch=1 n=c#8 v=0
272186 On ch=1 n=a7 v=0
272203 On ch=1 n=e7 v=100
272312 On ch=1 n=c#7 v=100
272313 On ch=1 n=e7 v=0
272422 On ch=1 n=c#7 v=0
272430 On ch=1 n=a6 v=100
272540 On ch=1 n=a6 v=0
272565 On ch=1 n=e6 v=100
272674 On ch=1 n=c#6 v=100
272675 On ch=1 n=e6 v=0
272784 On ch=1 n=c#6 v=0
272792 On ch=1 n=a5 v=100
272902 On ch=1 n=a5 v=0
272910 On ch=1 n=e5 v=100
273020 On ch=1 n=e5 v=0
273036 On ch=1 n=c#5 v=100
273146 On ch=1 n=c#5 v=0
273163 On ch=1 n=a4 v=100
273272 On ch=1 n=e4 v=100
273273 On ch=1 n=a4 v=0
273382 On ch=1 n=e4 v=0
273390 On ch=1 n=a#4 v=100
273390 On ch=1 n=c#5 v=100
273399 On ch=1 n=e4 v=100
273833 On ch=1 n=c#5 v=0
273842 On ch=1 n=a#4 v=0
273870 On ch=1 n=e4 v=0
273870 On ch=1 n=a#5 v=100
273879 On ch=1 n=e5 v=100
274114 On ch=1 n=g5 v=100
274123 On ch=1 n=b5 v=100
274132 On ch=1 n=a#5 v=0
274141 On ch=1 n=e5 v=0
274350 On ch=1 n=g5 v=0
274359 On ch=1 n=e5 v=100
274359 On ch=1 n=a#5 v=100
274368 On ch=1 n=b5 v=0
274594 On ch=1 n=d6 v=100
274594 On ch=1 n=g5 v=100
274621 On ch=1 n=a#5 v=0
274621 On ch=1 n=e5 v=0
274811 On ch=1 n=g5 v=0
274811 On ch=1 n=d6 v=0
274830 On ch=1 n=c#6 v=100
274830 On ch=1 n=e5 v=100
275273 On ch=1 n=c#6 v=0
275282 On ch=1 n=e5 v=0
275310 On ch=1 n=a#5 v=100
275319 On ch=1 n=e5 v=100
275554 On ch=1 n=g5 v=100
275563 On ch=1 n=b5 v=100
275572 On ch=1 n=a#5 v=0
275581 On ch=1 n=e5 v=0
275790 On ch=1 n=g5 v=0
275799 On ch=1 n=e5 v=100
275799 On ch=1 n=a#5 v=100
275808 On ch=1 n=b5 v=0
276034 On ch=1 n=d6 v=100
276034 On ch=1 n=g5 v=100
276061 On ch=1 n=a#5 v=0
276061 On ch=1 n=e5 v=0
276251 On ch=1 n=g5 v=0
276251 On ch=1 n=d6 v=0
276270 On ch=1 n=e5 v=100
276270 On ch=1 n=c#6 v=100
276713 On ch=1 n=c#6 v=0
276722 On ch=1 n=e5 v=0
276750 On ch=1 n=a#5 v=100
276759 On ch=1 n=e5 v=100
276994 On ch=1 n=g5 v=100
277003 On ch=1 n=b5 v=100
277012 On ch=1 n=a#5 v=0
277021 On ch=1 n=e5 v=0
277230 On ch=1 n=g5 v=0
277239 On ch=1 n=e5 v=100
277239 On ch=1 n=a#5 v=100
277248 On ch=1 n=b5 v=0
277474 On ch=1 n=g5 v=100
277474 On ch=1 n=d6 v=100
277501 On ch=1 n=a#5 v=0
277501 On ch=1 n=e5 v=0
277691 On ch=1 n=d6 v=0
277691 On ch=1 n=g5 v=0
277710 On ch=1 n=d6 v=100
277719 On ch=1 n=g5 v=100
277954 On ch=1 n=c#6 v=100
277954 On ch=1 n=e5 v=100
277981 On ch=1 n=d6 v=0
278008 On ch=1 n=g5 v=0
278174 On ch=1 n=e5 v=0
278174 On ch=1 n=c#6 v=0
278199 On ch=1 n=g5 v=100
278199 On ch=1 n=b5 v=100
278419 On ch=1 n=b5 v=0
278419 On ch=1 n=g5 v=0
278434 On ch=1 n=b5 v=100
278434 On ch=1 n=g5 v=100
278679 On ch=1 n=a#5 v=100
278679 On ch=1 n=e5 v=100
278697 On ch=1 n=g5 v=0
278715 On ch=1 n=b5 v=0
278899 On ch=1 n=a#5 v=0
278914 On ch=1 n=g5 v=100
278914 On ch=1 n=d6 v=100
278932 On ch=1 n=e5 v=0
279134 On ch=1 n=d6 v=0
279134 On ch=1 n=g5 v=0
279159 On ch=1 n=e5 v=100
279159 On ch=1 n=c#6 v=100
279630 On ch=1 n=c#6 v=0
279666 On ch=1 n=e5 v=0
279874 On ch=1 n=f#7 v=81
279986 On ch=1 n=f#7 v=0
279992 On ch=1 n=a#7 v=69
280104 On ch=1 n=a#7 v=0
280119 On ch=1 n=g7 v=73
280231 On ch=1 n=g7 v=0
280236 On ch=1 n=c#8 v=85
280348 On ch=1 n=c#8 v=0
280354 On ch=1 n=a#7 v=69
280466 On ch=1 n=a#7 v=0
280472 On ch=1 n=g7 v=73
280584 On ch=1 n=g7 v=0
280590 On ch=1 n=d#7 v=92
280702 On ch=1 n=d#7 v=0
280716 On ch=1 n=g7 v=73
280828 On ch=1 n=g7 v=0
280834 On ch=1 n=e7 v=78
280946 On ch=1 n=e7 v=0
280952 On ch=1 n=a#7 v=93
281064 On ch=1 n=a#7 v=0
281070 On ch=1 n=g7 v=76
281182 On ch=1 n=g7 v=0
281196 On ch=1 n=e7 v=82
281308 On ch=1 n=e7 v=0
281314 On ch=1 n=c7 v=94
281426 On ch=1 n=c7 v=0
281432 On ch=1 n=e7 v=74
281544 On ch=1 n=e7 v=0
281550 On ch=1 n=c#7 v=80
281662 On ch=1 n=c#7 v=0
281676 On ch=1 n=g7 v=93
281788 On ch=1 n=g7 v=0
281794 On ch=1 n=e7 v=76
281906 On ch=1 n=e7 v=0
281912 On ch=1 n=c#7 v=82
282024 On ch=1 n=c#7 v=0
282030 On ch=1 n=a6 v=94
282142 On ch=1 n=a6 v=0
282156 On ch=1 n=c#7 v=84
282268 On ch=1 n=c#7 v=0
282274 On ch=1 n=a#6 v=79
282386 On ch=1 n=a#6 v=0
282392 On ch=1 n=e7 v=86
282392 On ch=1 n=e7 v=92
282504 On ch=1 n=e7 v=0
282504 On ch=1 n=e7 v=0
282510 On ch=1 n=c#7 v=83
282622 On ch=1 n=c#7 v=0
282636 On ch=1 n=a#6 v=79
282748 On ch=1 n=a#6 v=0
282754 On ch=1 n=f#6 v=96
282866 On ch=1 n=f#6 v=0
282872 On ch=1 n=a#6 v=80
282984 On ch=1 n=a#6 v=0
282990 On ch=1 n=g6 v=86
283102 On ch=1 n=g6 v=0
283116 On ch=1 n=c#7 v=95
283228 On ch=1 n=c#7 v=0
283234 On ch=1 n=a#6 v=79
283346 On ch=1 n=a#6 v=0
283352 On ch=1 n=g6 v=81
283352 On ch=1 n=g6 v=84
283464 On ch=1 n=g6 v=0
283464 On ch=1 n=g6 v=0
283470 On ch=1 n=d#6 v=100
283582 On ch=1 n=d#6 v=0
283596 On ch=1 n=g6 v=86
283708 On ch=1 n=g6 v=0
283714 On ch=1 n=e6 v=88
283826 On ch=1 n=e6 v=0
283832 On ch=1 n=a#6 v=100
283944 On ch=1 n=a#6 v=0
283950 On ch=1 n=g6 v=89
284062 On ch=1 n=g6 v=0
284076 On ch=1 n=e6 v=90
284188 On ch=1 n=e6 v=0
284194 On ch=1 n=c6 v=100
284306 On ch=1 n=c6 v=0
284312 On ch=1 n=e6 v=90
284424 On ch=1 n=e6 v=0
284430 On ch=1 n=c#6 v=92
284542 On ch=1 n=c#6 v=0
284556 On ch=1 n=g6 v=103
284668 On ch=1 n=g6 v=0
284674 On ch=1 n=e6 v=91
284786 On ch=1 n=e6 v=0
284792 On ch=1 n=c#6 v=87
284904 On ch=1 n=c#6 v=0
284910 On ch=1 n=a5 v=104
285022 On ch=1 n=a5 v=0
285036 On ch=1 n=c#6 v=93
285148 On ch=1 n=c#6 v=0
285154 On ch=1 n=a#5 v=91
285266 On ch=1 n=a#5 v=0
285272 On ch=1 n=e6 v=103
285384 On ch=1 n=e6 v=0
285390 On ch=1 n=c#6 v=93
285502 On ch=1 n=c#6 v=0
285516 On ch=1 n=a#5 v=86
285628 On ch=1 n=a#5 v=0
285634 On ch=1 n=f#5 v=104
285746 On ch=1 n=f#5 v=0
285752 On ch=1 n=a#5 v=92
285864 On ch=1 n=a#5 v=0
285870 On ch=1 n=g5 v=87
285982 On ch=1 n=g5 v=0
285996 On ch=1 n=c#6 v=108
286108 On ch=1 n=c#6 v=0
286114 On ch=1 n=a#5 v=93
286226 On ch=1 n=a#5 v=0
286232 On ch=1 n=g5 v=92
286344 On ch=1 n=g5 v=0
286350 On ch=1 n=d#5 v=109
286462 On ch=1 n=d#5 v=0
286476 On ch=1 n=g5 v=92
286588 On ch=1 n=g5 v=0
286594 On ch=1 n=e5 v=98
286706 On ch=1 n=e5 v=0
286712 On ch=1 n=a#5 v=100
286712 On ch=1 n=a#5 v=111
286824 On ch=1 n=a#5 v=0
286824 On ch=1 n=a#5 v=0
286830 On ch=1 n=g5 v=85
286942 On ch=1 n=g5 v=0
286956 On ch=1 n=e5 v=93
287068 On ch=1 n=e5 v=0
287074 On ch=1 n=c5 v=111
287186 On ch=1 n=c5 v=0
287192 On ch=1 n=e5 v=98
287304 On ch=1 n=e5 v=0
287310 On ch=1 n=c#5 v=100
287422 On ch=1 n=c#5 v=0
287436 On ch=1 n=g5 v=113
287548 On ch=1 n=g5 v=0
287554 On ch=1 n=e5 v=94
287666 On ch=1 n=e5 v=0
287672 On ch=1 n=c#5 v=97
287784 On ch=1 n=c#5 v=0
287790 On ch=1 n=a4 v=113
287902 On ch=1 n=a4 v=0
287916 On ch=1 n=c#5 v=96
288028 On ch=1 n=c#5 v=0
288034 On ch=1 n=a#4 v=97
288146 On ch=1 n=a#4 v=0
288152 On ch=1 n=e5 v=107
288264 On ch=1 n=e5 v=0
288270 On ch=1 n=c#5 v=87
288382 On ch=1 n=c#5 v=0
288396 On ch=1 n=a#4 v=87
288508 On ch=1 n=a#4 v=0
288514 On ch=1 n=f#4 v=108
288626 On ch=1 n=f#4 v=0
288632 On ch=1 n=a#4 v=88
288744 On ch=1 n=a#4 v=0
288750 On ch=1 n=g4 v=88
288862 On ch=1 n=g4 v=0
288876 On ch=1 n=c#5 v=111
288988 On ch=1 n=c#5 v=0
288994 On ch=1 n=a#4 v=80
289106 On ch=1 n=a#4 v=0
289112 On ch=1 n=g4 v=86
289224 On ch=1 n=g4 v=0
289230 On ch=1 n=d#4 v=92
289342 On ch=1 n=d#4 v=0
289356 On ch=1 n=g4 v=70
289468 On ch=1 n=g4 v=0
289474 On ch=1 n=e4 v=82
289586 On ch=1 n=e4 v=0
289592 On ch=1 n=a#4 v=105
289704 On ch=1 n=a#4 v=0
289710 On ch=1 n=g4 v=85
289822 On ch=1 n=g4 v=0
289836 On ch=1 n=e4 v=71
289948 On ch=1 n=e4 v=0
289954 On ch=1 n=c4 v=101
290066 On ch=1 n=c4 v=0
290072 On ch=1 n=e4 v=87
290184 On ch=1 n=e4 v=0
290190 On ch=1 n=c#4 v=74
290302 On ch=1 n=c#4 v=0
290316 On ch=1 n=g4 v=98
290428 On ch=1 n=g4 v=0
290434 On ch=1 n=e4 v=88
290546 On ch=1 n=e4 v=0
290552 On ch=1 n=c#4 v=77
290664 On ch=1 n=c#4 v=0
290670 On ch=1 n=f#2 v=127
290679 On ch=1 n=f#3 v=127
290932 On ch=1 n=f#3 v=0
290932 On ch=1 n=f#2 v=0
291159 On ch=1 n=g2 v=127
291394 On ch=1 n=f#2 v=127
291421 On ch=1 n=g2 v=0
291648 On ch=1 n=f#2 v=0
291874 On ch=1 n=g2 v=127
292119 On ch=1 n=f#2 v=127
292155 On ch=1 n=g2 v=0
292381 On ch=1 n=f#2 v=0
292590 On ch=1 n=g2 v=127
292834 On ch=1 n=f#2 v=127
292861 On ch=1 n=g2 v=0
293106 On ch=1 n=f#2 v=0
293314 On ch=1 n=g2 v=127
293550 On ch=1 n=f#3 v=127
293595 On ch=1 n=g2 v=0
293821 On ch=1 n=f#3 v=0
294030 On ch=1 n=g4 v=127
294039 On ch=1 n=e4 v=127
294274 On ch=1 n=f#4 v=127
294301 On ch=1 n=e4 v=0
294310 On ch=1 n=g4 v=0
294537 On ch=1 n=f#4 v=0
294754 On ch=1 n=e4 v=123
294754 On ch=1 n=g4 v=123
294999 On ch=1 n=f#4 v=126
295026 On ch=1 n=g4 v=0
295026 On ch=1 n=e4 v=0
295297 On ch=1 n=f#4 v=0
295470 On ch=1 n=d5 v=126
295470 On ch=1 n=e4 v=126
295479 On ch=1 n=a4 v=126
295714 On ch=1 n=f#4 v=127
295723 On ch=1 n=e4 v=0
295732 On ch=1 n=a4 v=0
295732 On ch=1 n=d5 v=0
295986 On ch=1 n=f#4 v=0
296194 On ch=1 n=e4 v=127
296194 On ch=1 n=a#4 v=127
296194 On ch=1 n=c#5 v=127
296411 On ch=1 n=c#5 v=0
296411 On ch=1 n=a#4 v=0
296411 On ch=1 n=e4 v=0
296430 On ch=1 n=b4 v=127
296430 On ch=1 n=d4 v=127
296710 On ch=1 n=d4 v=0
296719 On ch=1 n=b4 v=0
296919 On ch=1 n=f#4 v=127
297154 On ch=1 n=g4 v=127
297172 On ch=1 n=f#4 v=0
297634 On ch=1 n=a#4 v=127
297652 On ch=1 n=g4 v=0
297879 On ch=1 n=b4 v=127
297888 On ch=1 n=a#4 v=0
298359 On ch=1 n=f#4 v=127
298449 On ch=1 n=b4 v=0
298594 On ch=1 n=g4 v=127
298630 On ch=1 n=f#4 v=0
299083 On ch=1 n=a#4 v=127
299119 On ch=1 n=g4 v=0
299310 On ch=1 n=a#4 v=0
299319 On ch=1 n=b4 v=126
299762 On ch=1 n=b4 v=0
299799 On ch=1 n=b4 v=127
300007 On ch=1 n=b4 v=0
300034 On ch=1 n=b4 v=127
300396 On ch=1 n=b4 v=0
300396 On ch=1 n=a#4 v=126
300505 On ch=1 n=b4 v=126
300523 On ch=1 n=a#4 v=0
300759 On ch=1 n=b4 v=0
300759 On ch=1 n=d5 v=127
301954 On ch=1 n=a#4 v=127
301981 On ch=1 n=d5 v=0
302153 On ch=1 n=a#4 v=0
302199 On ch=1 n=d5 v=127
302679 On ch=1 n=a4 v=127
302724 On ch=1 n=d5 v=0
302905 On ch=1 n=a4 v=0
302914 On ch=1 n=a#4 v=127
303385 On ch=1 n=c#5 v=127
303403 On ch=1 n=a#4 v=0
303602 On ch=1 n=c#5 v=0
303639 On ch=1 n=d5 v=127
304110 On ch=1 n=a4 v=127
304137 On ch=1 n=d5 v=0
304345 On ch=1 n=a#4 v=127
304363 On ch=1 n=a4 v=0
304834 On ch=1 n=c#5 v=127
304843 On ch=1 n=a#4 v=0
305051 On ch=1 n=c#5 v=0
305079 On ch=1 n=d5 v=127
305531 On ch=1 n=d5 v=0
305559 On ch=1 n=d5 v=127
305767 On ch=1 n=d5 v=0
305794 On ch=1 n=d5 v=127
306156 On ch=1 n=c#5 v=127
306183 On ch=1 n=d5 v=0
306274 On ch=1 n=d5 v=127
306292 On ch=1 n=c#5 v=0
306482 On ch=1 n=d5 v=0
306519 On ch=1 n=f#5 v=127
308439 On ch=1 n=c#5 v=127
308511 On ch=1 n=f#5 v=0
308674 On ch=1 n=d5 v=127
308719 On ch=1 n=c#5 v=0
309154 On ch=1 n=d#5 v=127
309163 On ch=1 n=d5 v=0
309371 On ch=1 n=d#5 v=0
309399 On ch=1 n=e5 v=127
310467 On ch=1 n=f#5 v=127
310476 On ch=1 n=e5 v=0
310594 On ch=1 n=e5 v=126
310621 On ch=1 n=f#5 v=0
310793 On ch=1 n=e5 v=0
310839 On ch=1 n=d5 v=125
311319 On ch=1 n=c#5 v=126
311328 On ch=1 n=d5 v=0
311554 On ch=1 n=b4 v=126
311572 On ch=1 n=c#5 v=0
312052 On ch=1 n=c#5 v=127
312061 On ch=1 n=b4 v=0
312242 On ch=1 n=c#5 v=0
312279 On ch=1 n=f#4 v=127
312985 On ch=1 n=d5 v=127
313021 On ch=1 n=f#4 v=0
313374 On ch=1 n=d5 v=0
313374 On ch=1 n=e5 v=125
313474 On ch=1 n=d5 v=125
313501 On ch=1 n=e5 v=0
313719 On ch=1 n=c#5 v=125
313746 On ch=1 n=d5 v=0
314081 On ch=1 n=c#5 v=0
314190 On ch=1 n=d5 v=126
314443 On ch=1 n=b4 v=126
314479 On ch=1 n=d5 v=0
314724 On ch=1 n=b4 v=0
314914 On ch=1 n=c#5 v=127
315159 On ch=1 n=f#4 v=127
315186 On ch=1 n=c#5 v=0
315874 On ch=1 n=d5 v=127
315892 On ch=1 n=f#4 v=0
316236 On ch=1 n=e5 v=127
316273 On ch=1 n=d5 v=0
316354 On ch=1 n=d5 v=127
316381 On ch=1 n=e5 v=0
316590 On ch=1 n=d5 v=0
316599 On ch=1 n=c#5 v=127
316888 On ch=1 n=c#5 v=0
317079 On ch=1 n=d5 v=127
317323 On ch=1 n=b4 v=127
317405 On ch=1 n=d5 v=0
317713 On ch=1 n=b4 v=0
317794 On ch=1 n=g5 v=127
318030 On ch=1 n=g5 v=0
318048 On ch=1 n=f#5 v=127
319479 On ch=1 n=f5 v=127
319497 On ch=1 n=f#5 v=0
319931 On ch=1 n=f5 v=0
319959 On ch=1 n=f5 v=127
319959 On ch=1 n=b5 v=127
320194 On ch=1 n=e5 v=127
320230 On ch=1 n=f5 v=0
320484 On ch=1 n=e5 v=0
320493 On ch=1 n=b5 v=0
320674 On ch=1 n=b5 v=127
320683 On ch=1 n=e5 v=127
320919 On ch=1 n=d#5 v=123
320955 On ch=1 n=e5 v=0
321181 On ch=1 n=d#5 v=0
321181 On ch=1 n=b5 v=0
321399 On ch=1 n=d#5 v=127
321399 On ch=1 n=b5 v=127
321634 On ch=1 n=d5 v=124
321679 On ch=1 n=d#5 v=0
321915 On ch=1 n=b5 v=0
321924 On ch=1 n=d5 v=0
322114 On ch=1 n=d5 v=125
322114 On ch=1 n=g5 v=125
322359 On ch=1 n=b4 v=125
322368 On ch=1 n=d5 v=0
322630 On ch=1 n=g5 v=0
322648 On ch=1 n=b4 v=0
322830 On ch=1 n=c5 v=126
322839 On ch=1 n=g5 v=126
323074 On ch=1 n=e5 v=127
323110 On ch=1 n=c5 v=0
323328 On ch=1 n=e5 v=0
323328 On ch=1 n=g5 v=0
323554 On ch=1 n=f#5 v=127
323554 On ch=1 n=a#4 v=127
323790 On ch=1 n=b4 v=127
323844 On ch=1 n=a#4 v=0
324097 On ch=1 n=b4 v=0
324106 On ch=1 n=f#5 v=0
324270 On ch=1 n=f#6 v=118
324279 On ch=1 n=f#5 v=118
324514 On ch=1 n=g6 v=121
324514 On ch=1 n=g5 v=121
324523 On ch=1 n=f#5 v=0
324532 On ch=1 n=f#6 v=0
324759 On ch=1 n=g6 v=0
324759 On ch=1 n=e6 v=111
324759 On ch=1 n=c#6 v=111
324777 On ch=1 n=g5 v=0
324994 On ch=1 n=a#6 v=127
324994 On ch=1 n=a#5 v=127
325003 On ch=1 n=c#6 v=0
325012 On ch=1 n=e6 v=0
325230 On ch=1 n=b5 v=127
325239 On ch=1 n=b6 v=127
325266 On ch=1 n=a#5 v=0
325266 On ch=1 n=a#6 v=0
325474 On ch=1 n=d6 v=98
325483 On ch=1 n=b6 v=0
325483 On ch=1 n=b5 v=0
325719 On ch=1 n=f#6 v=113
325719 On ch=1 n=f#5 v=113
325746 On ch=1 n=d6 v=0
325954 On ch=1 n=f#5 v=0
325954 On ch=1 n=g5 v=100
325963 On ch=1 n=f#6 v=0
325963 On ch=1 n=g6 v=100
326190 On ch=1 n=e6 v=119
326199 On ch=1 n=g5 v=0
326199 On ch=1 n=c#6 v=119
326226 On ch=1 n=g6 v=0
326434 On ch=1 n=a#5 v=123
326434 On ch=1 n=a#6 v=123
326443 On ch=1 n=e6 v=0
326452 On ch=1 n=c#6 v=0
326670 On ch=1 n=b6 v=125
326670 On ch=1 n=b5 v=125
326688 On ch=1 n=a#5 v=0
326697 On ch=1 n=a#6 v=0
326914 On ch=1 n=f#6 v=100
326914 On ch=1 n=d6 v=100
326914 On ch=1 n=d6 v=94
326914 On ch=1 n=f#6 v=94
326923 On ch=1 n=b5 v=0
326923 On ch=1 n=b6 v=0
327150 On ch=1 n=b6 v=123
327159 On ch=1 n=f#6 v=0
327159 On ch=1 n=d6 v=0
327159 On ch=1 n=d6 v=0
327159 On ch=1 n=f#6 v=0
327159 On ch=1 n=b5 v=100
327159 On ch=1 n=b5 v=124
327394 On ch=1 n=g6 v=100
327394 On ch=1 n=e6 v=100
327412 On ch=1 n=b5 v=0
327412 On ch=1 n=b5 v=0
327638 On ch=1 n=e6 v=0
327638 On ch=1 n=g6 v=0
327639 On ch=1 n=a#5 v=113
327639 On ch=1 n=a#6 v=113
327684 On ch=1 n=b6 v=0
327874 On ch=1 n=b6 v=120
327874 On ch=1 n=b5 v=120
327883 On ch=1 n=a#6 v=0
327883 On ch=1 n=a#5 v=0
328110 On ch=1 n=d6 v=127
328118 On ch=1 n=b5 v=0
328118 On ch=1 n=b6 v=0
328119 On ch=1 n=d7 v=127
328354 On ch=1 n=a6 v=103
328354 On ch=1 n=f#6 v=103
328381 On ch=1 n=d6 v=0
328590 On ch=1 n=d6 v=118
328598 On ch=1 n=f#6 v=0
328598 On ch=1 n=a6 v=0
328834 On ch=1 n=d6 v=0
328834 On ch=1 n=a#6 v=123
328834 On ch=1 n=g6 v=123
329070 On ch=1 n=d6 v=100
329078 On ch=1 n=g6 v=0
329078 On ch=1 n=a#6 v=0
329314 On ch=1 n=d6 v=0
329314 On ch=1 n=g6 v=100
329314 On ch=1 n=a#6 v=100
329558 On ch=1 n=a#6 v=0
329558 On ch=1 n=g6 v=0
329559 On ch=1 n=d6 v=100
329794 On ch=1 n=f#6 v=100
329794 On ch=1 n=a6 v=100
329803 On ch=1 n=d6 v=0
329821 On ch=1 n=d7 v=0
330011 On ch=1 n=a6 v=0
330030 On ch=1 n=a5 v=125
330038 On ch=1 n=f#6 v=0
330039 On ch=1 n=a6 v=125
330274 On ch=1 n=a5 v=0
330274 On ch=1 n=a#6 v=127
330274 On ch=1 n=a#5 v=127
330283 On ch=1 n=a6 v=0
330510 On ch=1 n=g6 v=100
330518 On ch=1 n=a#5 v=0
330518 On ch=1 n=a#6 v=0
330519 On ch=1 n=e6 v=100
330754 On ch=1 n=g6 v=0
330754 On ch=1 n=c#7 v=127
330754 On ch=1 n=c#6 v=127
330763 On ch=1 n=e6 v=0
330990 On ch=1 n=d6 v=127
330990 On ch=1 n=d7 v=127
330998 On ch=1 n=c#6 v=0
330998 On ch=1 n=c#7 v=0
331234 On ch=1 n=d7 v=0
331234 On ch=1 n=d6 v=0
331234 On ch=1 n=f#6 v=100
331234 On ch=1 n=a6 v=100
331442 On ch=1 n=a6 v=0
331470 On ch=1 n=a5 v=127
331470 On ch=1 n=a6 v=127
331478 On ch=1 n=f#6 v=0
331714 On ch=1 n=a6 v=0
331714 On ch=1 n=a5 v=0
331714 On ch=1 n=a#6 v=127
331714 On ch=1 n=a#5 v=127
331950 On ch=1 n=e6 v=100
331950 On ch=1 n=g6 v=100
331958 On ch=1 n=a#5 v=0
331958 On ch=1 n=a#6 v=0
332194 On ch=1 n=g6 v=0
332194 On ch=1 n=e6 v=0
332194 On ch=1 n=c#6 v=127
332194 On ch=1 n=c#7 v=127
332430 On ch=1 n=d6 v=127
332430 On ch=1 n=d7 v=127
332438 On ch=1 n=c#7 v=0
332438 On ch=1 n=c#6 v=0
332674 On ch=1 n=d7 v=0
332674 On ch=1 n=d6 v=0
332674 On ch=1 n=f#6 v=127
332674 On ch=1 n=a6 v=127
332882 On ch=1 n=a6 v=0
332910 On ch=1 n=d6 v=100
332910 On ch=1 n=d7 v=100
332918 On ch=1 n=f#6 v=0
333154 On ch=1 n=d6 v=0
333154 On ch=1 n=a#6 v=100
333154 On ch=1 n=g6 v=100
333390 On ch=1 n=c#7 v=123
333390 On ch=1 n=c#6 v=123
333398 On ch=1 n=g6 v=0
333398 On ch=1 n=a#6 v=0
333435 On ch=1 n=d7 v=0
333634 On ch=1 n=c#6 v=0
333634 On ch=1 n=c#7 v=0
333634 On ch=1 n=d6 v=127
333634 On ch=1 n=d7 v=127
333870 On ch=1 n=f#7 v=126
333878 On ch=1 n=d7 v=0
333878 On ch=1 n=d6 v=0
333879 On ch=1 n=f#6 v=126
334114 On ch=1 n=a#6 v=100
334114 On ch=1 n=c#7 v=100
334141 On ch=1 n=f#6 v=0
334350 On ch=1 n=f#6 v=100
334358 On ch=1 n=c#7 v=0
334358 On ch=1 n=a#6 v=0
334594 On ch=1 n=f#6 v=0
334594 On ch=1 n=d7 v=116
334594 On ch=1 n=b6 v=116
334830 On ch=1 n=f#6 v=100
334838 On ch=1 n=b6 v=0
334838 On ch=1 n=d7 v=0
335065 On ch=1 n=b6 v=105
335074 On ch=1 n=f#6 v=0
335074 On ch=1 n=d7 v=105
335309 On ch=1 n=b6 v=0
335318 On ch=1 n=d7 v=0
335319 On ch=1 n=f#6 v=103
335554 On ch=1 n=a#6 v=108
335554 On ch=1 n=c#7 v=108
335563 On ch=1 n=f#6 v=0
335762 On ch=1 n=c#7 v=0
335790 On ch=1 n=c#6 v=127
335798 On ch=1 n=a#6 v=0
335808 On ch=1 n=f#7 v=0
335808 On ch=1 n=c#7 v=124
335808 On ch=1 n=c#7 v=127
336034 On ch=1 n=c#6 v=0
336034 On ch=1 n=d6 v=127
336034 On ch=1 n=d7 v=127
336052 On ch=1 n=c#7 v=0
336052 On ch=1 n=c#7 v=0
336278 On ch=1 n=d7 v=0
336278 On ch=1 n=d6 v=0
336279 On ch=1 n=f#6 v=100
336279 On ch=1 n=b6 v=100
336514 On ch=1 n=d#6 v=123
336514 On ch=1 n=d#7 v=123
336523 On ch=1 n=b6 v=0
336523 On ch=1 n=f#6 v=0
336750 On ch=1 n=e7 v=127
336758 On ch=1 n=d#7 v=0
336758 On ch=1 n=d#6 v=0
336759 On ch=1 n=e6 v=127
336994 On ch=1 n=e7 v=0
336994 On ch=1 n=g#6 v=100
336994 On ch=1 n=b6 v=100
337003 On ch=1 n=e6 v=0
337230 On ch=1 n=e6 v=100
337238 On ch=1 n=b6 v=0
337238 On ch=1 n=g#6 v=0
337474 On ch=1 n=e6 v=0
337474 On ch=1 n=a6 v=100
337474 On ch=1 n=c#7 v=100
337718 On ch=1 n=c#7 v=0
337718 On ch=1 n=a6 v=0
337836 On ch=1 n=f#7 v=123
337836 On ch=1 n=f#6 v=123
337954 On ch=1 n=e7 v=123
337954 On ch=1 n=e6 v=123
337958 On ch=1 n=f#6 v=0
337958 On ch=1 n=f#7 v=0
338198 On ch=1 n=e6 v=0
338198 On ch=1 n=e7 v=0
338199 On ch=1 n=d7 v=123
338199 On ch=1 n=d6 v=123
338429 On ch=1 n=d6 v=0
338429 On ch=1 n=d7 v=0
338434 On ch=1 n=a6 v=108
338434 On ch=1 n=f#6 v=108
338664 On ch=1 n=f#6 v=0
338664 On ch=1 n=a6 v=0
338670 On ch=1 n=c#6 v=127
338679 On ch=1 n=c#7 v=127
338900 On ch=1 n=c#6 v=0
338909 On ch=1 n=c#7 v=0
338914 On ch=1 n=b6 v=127
338914 On ch=1 n=b5 v=127
339144 On ch=1 n=b5 v=0
339144 On ch=1 n=b6 v=0
339150 On ch=1 n=g#6 v=100
339159 On ch=1 n=d6 v=100
339380 On ch=1 n=g#6 v=0
339389 On ch=1 n=d6 v=0
339394 On ch=1 n=c#6 v=123
339394 On ch=1 n=c#7 v=123
339624 On ch=1 n=c#7 v=0
339624 On ch=1 n=c#6 v=0
339630 On ch=1 n=f#6 v=127
339630 On ch=1 n=f#5 v=127
339860 On ch=1 n=f#5 v=0
339874 On ch=1 n=a#5 v=100
339874 On ch=1 n=c#6 v=100
340104 On ch=1 n=c#6 v=0
340104 On ch=1 n=a#5 v=0
340119 On ch=1 n=f#5 v=100
340349 On ch=1 n=f#5 v=0
340354 On ch=1 n=d6 v=113
340354 On ch=1 n=b5 v=113
340584 On ch=1 n=b5 v=0
340584 On ch=1 n=d6 v=0
340635 On ch=1 n=f#6 v=0
340707 On ch=1 n=e7 v=127
340725 On ch=1 n=e6 v=127
340834 On ch=1 n=d7 v=125
340834 On ch=1 n=d6 v=125
340852 On ch=1 n=e7 v=0
340870 On ch=1 n=e6 v=0
341079 On ch=1 n=c#6 v=127
341079 On ch=1 n=c#7 v=127
341088 On ch=1 n=d6 v=0
341088 On ch=1 n=d7 v=0
341309 On ch=1 n=c#7 v=0
341309 On ch=1 n=c#6 v=0
341314 On ch=1 n=e6 v=100
341314 On ch=1 n=f#6 v=100
341544 On ch=1 n=f#6 v=0
341544 On ch=1 n=e6 v=0
341550 On ch=1 n=d6 v=127
341559 On ch=1 n=d7 v=127
341780 On ch=1 n=d6 v=0
341789 On ch=1 n=d7 v=0
341794 On ch=1 n=b5 v=127
341794 On ch=1 n=b6 v=127
342024 On ch=1 n=b6 v=0
342024 On ch=1 n=b5 v=0
342030 On ch=1 n=f#6 v=113
342039 On ch=1 n=d6 v=113
342247 On ch=1 n=d6 v=0
342257 On ch=1 n=f#6 v=0
342271 On ch=1 n=d7 v=127
342271 On ch=1 n=d6 v=127
342501 On ch=1 n=d6 v=0
342501 On ch=1 n=d7 v=0
342516 On ch=1 n=f#5 v=127
342516 On ch=1 n=f#6 v=127
342746 On ch=1 n=f#6 v=0
342746 On ch=1 n=f#5 v=0
342751 On ch=1 n=c6 v=100
342751 On ch=1 n=d#6 v=100
342981 On ch=1 n=d#6 v=0
342981 On ch=1 n=c6 v=0
342987 On ch=1 n=g5 v=114
342996 On ch=1 n=g6 v=114
343217 On ch=1 n=g5 v=0
343226 On ch=1 n=g6 v=0
343231 On ch=1 n=e6 v=127
343231 On ch=1 n=e5 v=127
343461 On ch=1 n=e5 v=0
343461 On ch=1 n=e6 v=0
343467 On ch=1 n=b5 v=100
343476 On ch=1 n=g5 v=100
343697 On ch=1 n=b5 v=0
343706 On ch=1 n=g5 v=0
343711 On ch=1 n=b6 v=125
343711 On ch=1 n=b5 v=125
343941 On ch=1 n=b5 v=0
343941 On ch=1 n=b6 v=0
343956 On ch=1 n=d6 v=126
343956 On ch=1 n=d5 v=126
344186 On ch=1 n=d5 v=0
344186 On ch=1 n=d6 v=0
344191 On ch=1 n=b5 v=100
344191 On ch=1 n=f#5 v=100
344421 On ch=1 n=f#5 v=0
344421 On ch=1 n=b5 v=0
344427 On ch=1 n=e5 v=127
344436 On ch=1 n=e6 v=100
344436 On ch=1 n=e6 v=127
344657 On ch=1 n=e5 v=0
344666 On ch=1 n=e6 v=0
344666 On ch=1 n=e6 v=0
344671 On ch=1 n=c#5 v=100
344671 On ch=1 n=c#6 v=100
344901 On ch=1 n=c#6 v=0
344901 On ch=1 n=c#5 v=0
344907 On ch=1 n=a#5 v=127
344916 On ch=1 n=g5 v=127
345115 On ch=1 n=g5 v=0
345137 On ch=1 n=a#5 v=0
345151 On ch=1 n=g6 v=118
345151 On ch=1 n=g5 v=118
345381 On ch=1 n=g5 v=0
345396 On ch=1 n=g5 v=125
345631 On ch=1 n=c#6 v=127
345631 On ch=1 n=a#5 v=127
345649 On ch=1 n=g5 v=0
345649 On ch=1 n=g6 v=0
345848 On ch=1 n=a#5 v=0
345867 On ch=1 n=a#6 v=127
345867 On ch=1 n=a#5 v=127
345885 On ch=1 n=c#6 v=0
346111 On ch=1 n=c#6 v=127
346120 On ch=1 n=c#7 v=127
346129 On ch=1 n=a#5 v=0
346129 On ch=1 n=a#6 v=0
346356 On ch=1 n=d7 v=127
346356 On ch=1 n=d6 v=127
346383 On ch=1 n=c#6 v=0
346410 On ch=1 n=c#7 v=0
346591 On ch=1 n=e6 v=127
346591 On ch=1 n=e7 v=127
346627 On ch=1 n=d6 v=0
346627 On ch=1 n=d7 v=0
346827 On ch=1 n=e7 v=0
346836 On ch=1 n=g7 v=127
346836 On ch=1 n=g6 v=127
346845 On ch=1 n=e6 v=0
347071 On ch=1 n=c#7 v=108
347071 On ch=1 n=a#6 v=108
347098 On ch=1 n=g6 v=0
347098 On ch=1 n=g7 v=0
347307 On ch=1 n=g7 v=127
347307 On ch=1 n=g6 v=127
347334 On ch=1 n=c#7 v=0
347343 On ch=1 n=a#6 v=0
347551 On ch=1 n=f#7 v=127
347551 On ch=1 n=f#6 v=127
347560 On ch=1 n=g7 v=0
347569 On ch=1 n=g6 v=0
347787 On ch=1 n=d7 v=104
347796 On ch=1 n=b6 v=104
347805 On ch=1 n=f#7 v=0
347814 On ch=1 n=f#6 v=0
348031 On ch=1 n=f#6 v=116
348049 On ch=1 n=b6 v=0
348049 On ch=1 n=d7 v=0
348267 On ch=1 n=f#6 v=0
348276 On ch=1 n=f6 v=126
348276 On ch=1 n=f7 v=126
348511 On ch=1 n=b6 v=103
348511 On ch=1 n=c#7 v=103
348538 On ch=1 n=f7 v=0
348538 On ch=1 n=f6 v=0
348747 On ch=1 n=f6 v=126
348774 On ch=1 n=c#7 v=0
348783 On ch=1 n=b6 v=0
348991 On ch=1 n=e7 v=126
348991 On ch=1 n=e6 v=126
349009 On ch=1 n=f6 v=0
349227 On ch=1 n=a#6 v=116
349236 On ch=1 n=f#6 v=116
349245 On ch=1 n=e7 v=0
349254 On ch=1 n=e6 v=0
349471 On ch=1 n=e6 v=113
349489 On ch=1 n=f#6 v=0
349489 On ch=1 n=a#6 v=0
349707 On ch=1 n=e6 v=0
349716 On ch=1 n=d7 v=127
349716 On ch=1 n=d6 v=127
349951 On ch=1 n=b6 v=104
349951 On ch=1 n=f#6 v=104
349978 On ch=1 n=d6 v=0
349978 On ch=1 n=d7 v=0
350187 On ch=1 n=d6 v=108
350214 On ch=1 n=b6 v=0
350223 On ch=1 n=f#6 v=0
350386 On ch=1 n=d6 v=0
350431 On ch=1 n=d5 v=125
350431 On ch=1 n=d6 v=125
350667 On ch=1 n=b5 v=106
350676 On ch=1 n=g#5 v=106
350685 On ch=1 n=d6 v=0
350694 On ch=1 n=d5 v=0
350911 On ch=1 n=d5 v=123
350929 On ch=1 n=g#5 v=0
350929 On ch=1 n=b5 v=0
351147 On ch=1 n=d5 v=0
351156 On ch=1 n=d7 v=127
351156 On ch=1 n=d6 v=127
351391 On ch=1 n=a#6 v=104
351391 On ch=1 n=g6 v=104
351418 On ch=1 n=d6 v=0
351418 On ch=1 n=d7 v=0
351627 On ch=1 n=d6 v=107
351654 On ch=1 n=a#6 v=0
351663 On ch=1 n=g6 v=0
351871 On ch=1 n=c#7 v=127
351871 On ch=1 n=c#6 v=127
351889 On ch=1 n=d6 v=0
352107 On ch=1 n=a#6 v=105
352116 On ch=1 n=f#6 v=106
352125 On ch=1 n=c#7 v=0
352134 On ch=1 n=c#6 v=0
352351 On ch=1 n=c#6 v=111
352369 On ch=1 n=f#6 v=0
352369 On ch=1 n=a#6 v=0
352587 On ch=1 n=c#6 v=0
352596 On ch=1 n=f#5 v=127
352831 On ch=1 n=c#6 v=91
352831 On ch=1 n=f#6 v=91
352849 On ch=1 n=f#5 v=0
353067 On ch=1 n=f#5 v=91
353076 On ch=1 n=f#6 v=0
353094 On ch=1 n=c#6 v=0
353311 On ch=1 n=f#6 v=104
353320 On ch=1 n=b5 v=104
353347 On ch=1 n=f#5 v=0
353547 On ch=1 n=f#5 v=91
353556 On ch=1 n=f#6 v=0
353565 On ch=1 n=b5 v=0
353791 On ch=1 n=b5 v=92
353791 On ch=1 n=f#6 v=92
353818 On ch=1 n=f#5 v=0
354008 On ch=1 n=b5 v=0
354027 On ch=1 n=f#6 v=0
354036 On ch=1 n=f5 v=111
354271 On ch=1 n=f6 v=92
354271 On ch=1 n=b5 v=92
354289 On ch=1 n=f5 v=0
354507 On ch=1 n=e5 v=92
354516 On ch=1 n=f6 v=0
354534 On ch=1 n=b5 v=0
354751 On ch=1 n=e6 v=101
354760 On ch=1 n=b5 v=101
354787 On ch=1 n=e5 v=0
354987 On ch=1 n=e5 v=93
354996 On ch=1 n=e6 v=0
355005 On ch=1 n=b5 v=0
355231 On ch=1 n=b5 v=93
355231 On ch=1 n=e6 v=93
355258 On ch=1 n=e5 v=0
355448 On ch=1 n=b5 v=0
355467 On ch=1 n=e6 v=0
355476 On ch=1 n=d#5 v=107
355711 On ch=1 n=d#6 v=93
355711 On ch=1 n=b5 v=93
355711 On ch=1 n=f#5 v=93
355729 On ch=1 n=d#5 v=0
355947 On ch=1 n=d5 v=93
355956 On ch=1 n=f#5 v=0
355956 On ch=1 n=d#6 v=0
355974 On ch=1 n=b5 v=0
356191 On ch=1 n=b5 v=105
356191 On ch=1 n=d6 v=105
356200 On ch=1 n=g5 v=105
356227 On ch=1 n=d5 v=0
356427 On ch=1 n=d5 v=93
356436 On ch=1 n=d6 v=0
356445 On ch=1 n=g5 v=0
356454 On ch=1 n=b5 v=0
356671 On ch=1 n=g5 v=93
356671 On ch=1 n=b5 v=93
356671 On ch=1 n=d6 v=93
356698 On ch=1 n=d5 v=0
356888 On ch=1 n=g5 v=0
356907 On ch=1 n=d6 v=0
356907 On ch=1 n=b5 v=0
356916 On ch=1 n=c5 v=106
357151 On ch=1 n=g5 v=94
357151 On ch=1 n=c6 v=94
357169 On ch=1 n=c5 v=0
357387 On ch=1 n=b4 v=94
357396 On ch=1 n=c6 v=0
357414 On ch=1 n=g5 v=0
357631 On ch=1 n=b5 v=103
357640 On ch=1 n=e5 v=103
357667 On ch=1 n=b4 v=0
357867 On ch=1 n=a#4 v=94
357876 On ch=1 n=b5 v=0
357885 On ch=1 n=e5 v=0
358111 On ch=1 n=c#5 v=100
358111 On ch=1 n=f#5 v=100
358111 On ch=1 n=a#5 v=100
358138 On ch=1 n=a#4 v=0
358328 On ch=1 n=c#5 v=0
358347 On ch=1 n=f#5 v=0
358356 On ch=1 n=c#5 v=118
358365 On ch=1 n=a#5 v=0
358591 On ch=1 n=c#6 v=108
358591 On ch=1 n=f#5 v=108
358609 On ch=1 n=c#5 v=0
358827 On ch=1 n=b4 v=115
358827 On ch=1 n=b5 v=115
358836 On ch=1 n=c#6 v=0
358854 On ch=1 n=f#5 v=0
359080 On ch=1 n=c#5 v=125
359098 On ch=1 n=b5 v=0
359107 On ch=1 n=b4 v=0
359307 On ch=1 n=f#5 v=100
359307 On ch=1 n=c#6 v=100
359325 On ch=1 n=c#5 v=0
359551 On ch=1 n=d6 v=124
359551 On ch=1 n=b5 v=124
359551 On ch=1 n=d5 v=124
359569 On ch=1 n=c#6 v=0
359578 On ch=1 n=f#5 v=0
359787 On ch=1 n=b5 v=0
359796 On ch=1 n=d5 v=0
359796 On ch=1 n=d#5 v=127
359805 On ch=1 n=d6 v=0
360031 On ch=1 n=g5 v=100
360031 On ch=1 n=b5 v=100
360031 On ch=1 n=d#6 v=100
360049 On ch=1 n=d#5 v=0
360267 On ch=1 n=d#6 v=0
360267 On ch=1 n=e5 v=126
360267 On ch=1 n=e6 v=126
360276 On ch=1 n=b5 v=0
360294 On ch=1 n=g5 v=0
360502 On ch=1 n=e6 v=0
360520 On ch=1 n=f#5 v=127
360547 On ch=1 n=e5 v=0
360747 On ch=1 n=b5 v=100
360747 On ch=1 n=c#6 v=100
360756 On ch=1 n=f#6 v=100
360765 On ch=1 n=f#5 v=0
360991 On ch=1 n=g6 v=127
360991 On ch=1 n=g5 v=127
361000 On ch=1 n=f#6 v=0
361009 On ch=1 n=c#6 v=0
361018 On ch=1 n=b5 v=0
361208 On ch=1 n=g5 v=0
361227 On ch=1 n=g6 v=0
361236 On ch=1 n=f5 v=127
361471 On ch=1 n=b5 v=100
361471 On ch=1 n=d6 v=100
361471 On ch=1 n=e6 v=100
361489 On ch=1 n=f5 v=0
361707 On ch=1 n=e6 v=0
361707 On ch=1 n=f#6 v=123
361707 On ch=1 n=f#5 v=123
361716 On ch=1 n=d6 v=0
361734 On ch=1 n=b5 v=0
361951 On ch=1 n=f#6 v=0
361960 On ch=1 n=a#5 v=127
361987 On ch=1 n=f#5 v=0
362187 On ch=1 n=d6 v=100
362196 On ch=1 n=f#6 v=100
362196 On ch=1 n=a#6 v=100
362205 On ch=1 n=a#5 v=0
362431 On ch=1 n=b5 v=121
362431 On ch=1 n=b6 v=121
362440 On ch=1 n=f#6 v=0
362449 On ch=1 n=a#6 v=0
362458 On ch=1 n=d6 v=0
362648 On ch=1 n=b5 v=0
362667 On ch=1 n=b6 v=0
362676 On ch=1 n=c6 v=126
362911 On ch=1 n=c7 v=115
362911 On ch=1 n=g#6 v=115
362911 On ch=1 n=f6 v=115
362929 On ch=1 n=c6 v=0
363147 On ch=1 n=c#6 v=127
363156 On ch=1 n=g#6 v=0
363156 On ch=1 n=c7 v=0
363156 On ch=1 n=c#7 v=127
363174 On ch=1 n=f6 v=0
363400 On ch=1 n=e6 v=127
363409 On ch=1 n=c#7 v=0
363427 On ch=1 n=c#6 v=0
363627 On ch=1 n=a#6 v=113
363636 On ch=1 n=c#7 v=113
363636 On ch=1 n=f7 v=113
363645 On ch=1 n=e6 v=0
363871 On ch=1 n=f#7 v=122
363871 On ch=1 n=f#6 v=122
363880 On ch=1 n=f7 v=0
363880 On ch=1 n=c#7 v=0
363898 On ch=1 n=a#6 v=0
364025 On ch=1 n=b6 v=127
364088 On ch=1 n=f#6 v=0
364107 On ch=1 n=f#7 v=0
364107 On ch=1 n=d#8 v=127
364152 On ch=1 n=b6 v=0
364351 On ch=1 n=g#7 v=118
364360 On ch=1 n=d#8 v=0
364459 On ch=1 n=g#7 v=0
364469 On ch=1 n=f#7 v=113
364577 On ch=1 n=f#7 v=0
364596 On ch=1 n=c#7 v=108
364704 On ch=1 n=c#7 v=0
364713 On ch=1 n=b6 v=103
364821 On ch=1 n=b6 v=0
364831 On ch=1 n=g#6 v=99
364939 On ch=1 n=g#6 v=0
364949 On ch=1 n=f#6 v=98
365057 On ch=1 n=f#6 v=0
365076 On ch=1 n=c#6 v=94
365184 On ch=1 n=c#6 v=0
365193 On ch=1 n=b5 v=92
365301 On ch=1 n=b5 v=0
365311 On ch=1 n=g#5 v=88
365419 On ch=1 n=g#5 v=0
365429 On ch=1 n=f#5 v=88
365537 On ch=1 n=f#5 v=0
365556 On ch=1 n=c#5 v=89
365664 On ch=1 n=c#5 v=0
365673 On ch=1 n=b4 v=94
365781 On ch=1 n=b4 v=0
365791 On ch=1 n=g#4 v=98
365899 On ch=1 n=g#4 v=0
365909 On ch=1 n=f#4 v=103
366017 On ch=1 n=f#4 v=0
366036 On ch=1 n=c#4 v=108
366144 On ch=1 n=c#4 v=0
366153 On ch=1 n=b3 v=112
366261 On ch=1 n=b3 v=0
366271 On ch=1 n=c#4 v=127
366271 On ch=1 n=f4 v=127
366271 On ch=1 n=b4 v=127
366987 On ch=1 n=b4 v=0
366987 On ch=1 n=f4 v=0
366987 On ch=1 n=e4 v=115
366996 On ch=1 n=c#4 v=0
367102 On ch=1 n=e4 v=0
367113 On ch=1 n=g4 v=109
367228 On ch=1 n=g4 v=0
367231 On ch=1 n=b4 v=104
367346 On ch=1 n=b4 v=0
367349 On ch=1 n=c#5 v=99
367464 On ch=1 n=c#5 v=0
367467 On ch=1 n=e5 v=95
367582 On ch=1 n=e5 v=0
367593 On ch=1 n=g5 v=91
367708 On ch=1 n=g5 v=0
367711 Par ch=1 c=64 v=0
367711 On ch=1 n=b5 v=87
367826 On ch=1 n=b5 v=0
367829 On ch=1 n=c#6 v=84
367944 On ch=1 n=c#6 v=0
367956 Par ch=1 c=64 v=127
367956 On ch=1 n=e6 v=81
368071 On ch=1 n=e6 v=0
368073 On ch=1 n=g6 v=79
368188 On ch=1 n=g6 v=0
368191 On ch=1 n=b6 v=77
368306 On ch=1 n=b6 v=0
368309 On ch=1 n=c#7 v=76
368424 On ch=1 n=c#7 v=0
368427 On ch=1 n=e7 v=76
368542 On ch=1 n=e7 v=0
368553 On ch=1 n=g7 v=76
368668 On ch=1 n=g7 v=0
368671 Par ch=1 c=64 v=0
368671 On ch=1 n=e8 v=77
368786 On ch=1 n=e8 v=0
368789 Par ch=1 c=64 v=127
368789 On ch=1 n=c#8 v=79
368904 On ch=1 n=c#8 v=0
368907 On ch=1 n=a#7 v=81
369022 On ch=1 n=a#7 v=0
369033 On ch=1 n=f#7 v=84
369148 On ch=1 n=f#7 v=0
369151 On ch=1 n=e7 v=89
369266 On ch=1 n=e7 v=0
369269 On ch=1 n=c#7 v=95
369384 On ch=1 n=c#7 v=0
369387 On ch=1 n=a#6 v=102
369502 On ch=1 n=a#6 v=0
369513 On ch=1 n=f#6 v=111
369628 On ch=1 n=f#6 v=0
369631 On ch=1 n=e6 v=100
369746 On ch=1 n=e6 v=0
369749 Par ch=1 c=64 v=0
369749 On ch=1 n=c#6 v=100
369830 On ch=1 n=b6 v=100
369864 On ch=1 n=c#6 v=0
369867 Par ch=1 c=64 v=127
369867 On ch=1 n=d#8 v=127
369945 On ch=1 n=b6 v=0
370111 On ch=1 n=g#7 v=124
370120 On ch=1 n=d#8 v=0
370219 On ch=1 n=g#7 v=0
370229 On ch=1 n=f#7 v=120
370337 On ch=1 n=f#7 v=0
370356 On ch=1 n=c#7 v=117
370464 On ch=1 n=c#7 v=0
370473 On ch=1 n=b6 v=113
370581 On ch=1 n=b6 v=0
370591 On ch=1 n=g#6 v=111
370699 On ch=1 n=g#6 v=0
370709 On ch=1 n=f#6 v=108
370817 On ch=1 n=f#6 v=0
370836 On ch=1 n=c#6 v=106
370944 On ch=1 n=c#6 v=0
370953 On ch=1 n=b5 v=105
371061 On ch=1 n=b5 v=0
371071 On ch=1 n=g#5 v=103
371179 On ch=1 n=g#5 v=0
371189 On ch=1 n=f#5 v=103
371297 On ch=1 n=f#5 v=0
371316 On ch=1 n=c#5 v=103
371424 On ch=1 n=c#5 v=0
371433 On ch=1 n=b4 v=105
371541 On ch=1 n=b4 v=0
371551 On ch=1 n=g#4 v=107
371659 On ch=1 n=g#4 v=0
371669 On ch=1 n=f#4 v=110
371777 On ch=1 n=f#4 v=0
371796 On ch=1 n=c#4 v=123
371904 On ch=1 n=c#4 v=0
371913 Par ch=1 c=64 v=0
371913 On ch=1 n=b3 v=124
372021 On ch=1 n=b3 v=0
372031 Par ch=1 c=64 v=127
372031 On ch=1 n=c#4 v=127
372031 On ch=1 n=f4 v=127
372031 On ch=1 n=b4 v=127
372747 On ch=1 n=b4 v=0
372747 On ch=1 n=f4 v=0
372747 Par ch=1 c=64 v=0
372747 On ch=1 n=e4 v=100
372756 On ch=1 n=c#4 v=0
372862 On ch=1 n=e4 v=0
372873 Par ch=1 c=64 v=127
372873 On ch=1 n=g4 v=110
372988 On ch=1 n=g4 v=0
372991 On ch=1 n=b4 v=105
373106 On ch=1 n=b4 v=0
373109 On ch=1 n=c#5 v=95
373224 On ch=1 n=c#5 v=0
373227 On ch=1 n=e5 v=90
373342 On ch=1 n=e5 v=0
373353 On ch=1 n=g5 v=87
373468 On ch=1 n=g5 v=0
373471 On ch=1 n=b5 v=85
373586 On ch=1 n=b5 v=0
373589 On ch=1 n=c#6 v=84
373704 On ch=1 n=c#6 v=0
373716 On ch=1 n=e6 v=82
373831 On ch=1 n=e6 v=0
373833 On ch=1 n=g6 v=80
373948 On ch=1 n=g6 v=0
373951 On ch=1 n=b6 v=79
374066 On ch=1 n=b6 v=0
374069 On ch=1 n=c#7 v=79
374184 On ch=1 n=c#7 v=0
374187 On ch=1 n=e7 v=78
374302 On ch=1 n=e7 v=0
374313 On ch=1 n=g7 v=77
374428 On ch=1 n=g7 v=0
374431 Par ch=1 c=64 v=0
374431 On ch=1 n=e8 v=77
374546 On ch=1 n=e8 v=0
374549 On ch=1 n=c#8 v=78
374664 On ch=1 n=c#8 v=0
374667 On ch=1 n=a#7 v=79
374782 On ch=1 n=a#7 v=0
374793 On ch=1 n=f#7 v=81
374884 On ch=1 n=f#7 v=0
374911 On ch=1 n=e7 v=84
375026 On ch=1 n=e7 v=0
375029 On ch=1 n=c#7 v=85
375144 On ch=1 n=c#7 v=0
375147 On ch=1 n=a#6 v=88
375262 On ch=1 n=a#6 v=0
375273 On ch=1 n=f#6 v=91
375388 On ch=1 n=f#6 v=0
375391 On ch=1 n=e6 v=95
375506 On ch=1 n=e6 v=0
375509 On ch=1 n=c#6 v=105
375614 On ch=1 n=c#6 v=0
375624 On ch=1 n=a#5 v=69
375624 Par ch=1 c=64 v=127
375739 On ch=1 n=a#5 v=0
375750 On ch=1 n=b5 v=68
375865 On ch=1 n=b5 v=0
375868 On ch=1 n=d#6 v=67
375983 On ch=1 n=d#6 v=0
375986 Par ch=1 c=64 v=0
375986 On ch=1 n=b5 v=66
376101 On ch=1 n=b5 v=0
376113 On ch=1 n=c6 v=65
376228 On ch=1 n=c6 v=0
376230 On ch=1 n=e6 v=64
376344 On ch=1 n=c6 v=61
376345 On ch=1 n=e6 v=0
376459 On ch=1 n=c6 v=0
376466 On ch=1 n=c#6 v=63
376581 On ch=1 n=c#6 v=0
376584 On ch=1 n=f6 v=64
376699 On ch=1 n=f6 v=0
376710 On ch=1 n=c#6 v=67
376825 On ch=1 n=c#6 v=0
376828 On ch=1 n=d6 v=69
376943 On ch=1 n=d6 v=0
376946 On ch=1 n=f#6 v=71
377064 Par ch=1 c=64 v=127
377064 On ch=1 n=d6 v=74
377073 On ch=1 n=f#6 v=0
377179 On ch=1 n=d6 v=0
377190 On ch=1 n=d#6 v=73
377305 On ch=1 n=d#6 v=0
377308 On ch=1 n=g6 v=73
377423 On ch=1 n=g6 v=0
377426 On ch=1 n=d#6 v=74
377426 Par ch=1 c=64 v=0
377541 On ch=1 n=d#6 v=0
377553 On ch=1 n=e6 v=74
377668 On ch=1 n=e6 v=0
377670 On ch=1 n=g#6 v=74
377784 Par ch=1 c=64 v=127
377784 On ch=1 n=e6 v=75
377785 On ch=1 n=g#6 v=0
377899 On ch=1 n=e6 v=0
377906 On ch=1 n=f6 v=75
378021 On ch=1 n=f6 v=0
378024 Par ch=1 c=64 v=0
378024 On ch=1 n=a6 v=76
378139 On ch=1 n=a6 v=0
378150 On ch=1 n=f6 v=76
378265 On ch=1 n=f6 v=0
378268 On ch=1 n=f#6 v=77
378383 On ch=1 n=f#6 v=0
378386 On ch=1 n=a#6 v=77
378501 On ch=1 n=a#6 v=0
378504 Par ch=1 c=64 v=127
378504 On ch=1 n=f#6 v=79
378619 On ch=1 n=f#6 v=0
378630 On ch=1 n=g6 v=80
378745 On ch=1 n=g6 v=0
378748 Par ch=1 c=64 v=0
378748 On ch=1 n=b6 v=81
378863 On ch=1 n=b6 v=0
378866 On ch=1 n=g6 v=82
378981 On ch=1 n=g6 v=0
378993 On ch=1 n=g#6 v=83
379108 On ch=1 n=g#6 v=0
379110 On ch=1 n=c7 v=84
379224 Par ch=1 c=64 v=127
379224 On ch=1 n=g#6 v=84
379225 On ch=1 n=c7 v=0
379237 On ch=1 n=g#6 v=84
379339 On ch=1 n=g#6 v=0
379346 On ch=1 n=a6 v=85
379352 On ch=1 n=g#6 v=0
379461 On ch=1 n=a6 v=0
379464 On ch=1 n=c#7 v=86
379464 Par ch=1 c=64 v=0
379579 On ch=1 n=c#7 v=0
379590 On ch=1 n=a6 v=88
379705 On ch=1 n=a6 v=0
379708 On ch=1 n=a#6 v=88
379823 On ch=1 n=a#6 v=0
379826 On ch=1 n=d7 v=89
379941 On ch=1 n=d7 v=0
379944 Par ch=1 c=64 v=127
379944 On ch=1 n=a#6 v=90
380059 On ch=1 n=a#6 v=0
380070 On ch=1 n=b6 v=91
380185 On ch=1 n=b6 v=0
380188 Par ch=1 c=64 v=0
380188 On ch=1 n=d#7 v=92
380303 On ch=1 n=d#7 v=0
380306 On ch=1 n=b6 v=93
380421 On ch=1 n=b6 v=0
380433 On ch=1 n=c7 v=94
380548 On ch=1 n=c7 v=0
380550 On ch=1 n=e7 v=95
380664 Par ch=1 c=64 v=127
380664 On ch=1 n=c7 v=96
380665 On ch=1 n=e7 v=0
380779 On ch=1 n=c7 v=0
380786 On ch=1 n=c#7 v=97
380901 On ch=1 n=c#7 v=0
380904 On ch=1 n=f7 v=98
380904 Par ch=1 c=64 v=0
381019 On ch=1 n=f7 v=0
381030 On ch=1 n=c#7 v=98
381145 On ch=1 n=c#7 v=0
381148 On ch=1 n=d7 v=99
381263 On ch=1 n=d7 v=0
381266 On ch=1 n=f#7 v=100
381381 On ch=1 n=f#7 v=0
381384 Par ch=1 c=64 v=127
381384 On ch=1 n=d7 v=101
381499 On ch=1 n=d7 v=0
381510 On ch=1 n=d#7 v=101
381625 On ch=1 n=d#7 v=0
381628 Par ch=1 c=64 v=0
381628 On ch=1 n=g7 v=101
381743 On ch=1 n=g7 v=0
381746 On ch=1 n=d#7 v=102
381861 On ch=1 n=d#7 v=0
381873 On ch=1 n=e7 v=103
381988 On ch=1 n=e7 v=0
381990 On ch=1 n=g#7 v=103
382105 On ch=1 n=g#7 v=0
382117 Par ch=1 c=64 v=127
382117 On ch=1 n=e7 v=104
382226 On ch=1 n=f7 v=104
382232 On ch=1 n=e7 v=0
382341 On ch=1 n=f7 v=0
382344 Par ch=1 c=64 v=0
382344 On ch=1 n=a7 v=105
382459 On ch=1 n=a7 v=0
382470 On ch=1 n=f7 v=106
382585 On ch=1 n=f7 v=0
382588 On ch=1 n=f#7 v=107
382703 On ch=1 n=f#7 v=0
382706 On ch=1 n=a#7 v=108
382821 On ch=1 n=a#7 v=0
382824 Par ch=1 c=64 v=127
382824 On ch=1 n=f#7 v=108
382833 On ch=1 n=f#7 v=108
382939 On ch=1 n=f#7 v=0
382948 On ch=1 n=f#7 v=0
382950 On ch=1 n=g7 v=108
383065 On ch=1 n=g7 v=0
383068 Par ch=1 c=64 v=0
383068 On ch=1 n=b7 v=109
383183 On ch=1 n=b7 v=0
383186 On ch=1 n=g7 v=110
383301 On ch=1 n=g7 v=0
383313 On ch=1 n=g#7 v=111
383428 On ch=1 n=g#7 v=0
383430 On ch=1 n=c8 v=112
383545 On ch=1 n=c8 v=0
383548 Par ch=1 c=64 v=127
383557 On ch=1 n=g7 v=113
383666 On ch=1 n=g#7 v=113
383672 On ch=1 n=g7 v=0
383781 On ch=1 n=g#7 v=0
383784 Par ch=1 c=64 v=0
383784 On ch=1 n=c#8 v=113
383899 On ch=1 n=c#8 v=0
383910 On ch=1 n=g7 v=114
384025 On ch=1 n=g7 v=0
384028 On ch=1 n=g#7 v=115
384143 On ch=1 n=g#7 v=0
384146 On ch=1 n=d#8 v=116
384261 On ch=1 n=d#8 v=0
384264 Par ch=1 c=64 v=127
384264 On ch=1 n=g7 v=123
384273 On ch=1 n=g7 v=123
384379 On ch=1 n=g7 v=0
384388 On ch=1 n=g7 v=0
384390 On ch=1 n=g#7 v=123
384505 On ch=1 n=g#7 v=0
384508 On ch=1 n=e8 v=123
384623 On ch=1 n=e8 v=0
384626 On ch=1 n=c#8 v=123
384741 On ch=1 n=c#8 v=0
384753 Par ch=1 c=64 v=0
384753 On ch=1 n=g#7 v=123
384868 On ch=1 n=g#7 v=0
384870 On ch=1 n=e7 v=123
384985 On ch=1 n=e7 v=0
384988 Par ch=1 c=64 v=127
384997 On ch=1 n=c#7 v=123
385106 On ch=1 n=g#6 v=123
385112 On ch=1 n=c#7 v=0
385221 On ch=1 n=g#6 v=0
385224 On ch=1 n=e7 v=123
385339 On ch=1 n=e7 v=0
385350 On ch=1 n=c#7 v=124
385465 On ch=1 n=c#7 v=0
385468 Par ch=1 c=64 v=0
385468 On ch=1 n=b6 v=124
385583 On ch=1 n=b6 v=0
385586 On ch=1 n=e6 v=124
385701 On ch=1 n=e6 v=0
385704 Par ch=1 c=64 v=127
385704 On ch=1 n=c#6 v=124
385819 On ch=1 n=c#6 v=0
385830 On ch=1 n=g#5 v=124
385945 On ch=1 n=g#5 v=0
385948 On ch=1 n=e6 v=125
386063 On ch=1 n=e6 v=0
386066 On ch=1 n=c#6 v=125
386181 On ch=1 n=c#6 v=0
386193 On ch=1 n=g#5 v=125
386308 On ch=1 n=g#5 v=0
386310 On ch=1 n=e5 v=125
386425 On ch=1 n=e5 v=0
386437 On ch=1 n=c#5 v=126
386546 On ch=1 n=g#4 v=126
386552 On ch=1 n=c#5 v=0
386661 On ch=1 n=g#4 v=0
386664 Par ch=1 c=64 v=0
386664 On ch=1 n=e5 v=126
386779 On ch=1 n=e5 v=0
386790 On ch=1 n=c#5 v=126
386905 On ch=1 n=c#5 v=0
386908 On ch=1 n=g#4 v=124
387023 On ch=1 n=g#4 v=0
387026 On ch=1 n=e4 v=124
387141 On ch=1 n=e4 v=0
387144 On ch=1 n=c#4 v=124
387144 Par ch=1 c=64 v=127
387144 On ch=1 n=g#4 v=124
387633 On ch=1 n=d#4 v=98
387633 On ch=1 n=a#4 v=98
387633 On ch=1 n=g4 v=98
387669 On ch=1 n=g#4 v=0
387841 On ch=1 n=d#4 v=0
387868 On ch=1 n=b4 v=98
387868 On ch=1 n=g#4 v=98
387868 On ch=1 n=d#4 v=98
387868 On ch=1 n=b3 v=98
387886 On ch=1 n=c#4 v=0
387904 On ch=1 n=g4 v=0
387922 On ch=1 n=a#4 v=0
388104 On ch=1 n=d#4 v=0
388104 Par ch=1 c=64 v=0
388122 On ch=1 n=b3 v=0
388122 On ch=1 n=g#4 v=0
388131 On ch=1 n=b4 v=0
388348 On ch=1 n=c#5 v=91
388348 On ch=1 n=a#4 v=91
388348 On ch=1 n=e4 v=91
388584 On ch=1 n=b4 v=80
388584 On ch=1 n=f#4 v=80
388584 On ch=1 n=d#5 v=80
388584 On ch=1 n=d#4 v=80
388584 Par ch=1 c=64 v=127
388620 On ch=1 n=a#4 v=0
388629 On ch=1 n=c#5 v=0
388638 On ch=1 n=e4 v=0
388828 On ch=1 n=f#4 v=0
388846 On ch=1 n=d#5 v=0
388855 On ch=1 n=b4 v=0
388864 On ch=1 n=d#4 v=0
389064 On ch=1 n=f#4 v=94
389064 On ch=1 n=d#5 v=94
389082 On ch=1 n=c5 v=94
389308 On ch=1 n=g4 v=109
389308 On ch=1 n=e5 v=109
389308 On ch=1 n=c#5 v=109
389344 On ch=1 n=c5 v=0
389353 On ch=1 n=d#5 v=0
389353 On ch=1 n=f#4 v=0
389544 On ch=1 n=c#5 v=0
389553 On ch=1 n=e5 v=0
389562 On ch=1 n=g4 v=0
389788 On ch=1 n=b4 v=109
389788 On ch=1 n=f5 v=109
390024 On ch=1 n=a#4 v=96
390024 On ch=1 n=f#5 v=96
390060 On ch=1 n=b4 v=0
390078 On ch=1 n=f5 v=0
390304 On ch=1 n=f#5 v=0
390331 On ch=1 n=a#4 v=0
390504 On ch=1 n=a#4 v=103
390504 On ch=1 n=c#5 v=103
390513 On ch=1 n=a#5 v=103
390513 On ch=1 n=g5 v=103
390748 On ch=1 n=b4 v=115
390748 On ch=1 n=f#5 v=115
390748 On ch=1 n=b5 v=115
390784 On ch=1 n=g5 v=0
390784 On ch=1 n=c#5 v=0
390793 On ch=1 n=a#4 v=0
390802 On ch=1 n=a#5 v=0
390984 On ch=1 n=f#5 v=0
390993 On ch=1 n=b5 v=0
391002 On ch=1 n=b4 v=0
391219 On ch=1 n=c5 v=108
391228 On ch=1 n=d#5 v=108
391228 On ch=1 n=f#5 v=108
391228 On ch=1 n=g#5 v=108
391228 On ch=1 n=c6 v=108
391445 On ch=1 n=g#5 v=0
391464 On ch=1 n=c#6 v=110
391464 On ch=1 n=c#5 v=110
391473 On ch=1 n=g#5 v=110
391491 On ch=1 n=d#5 v=0
391491 On ch=1 n=c5 v=0
391500 On ch=1 n=c6 v=0
391500 On ch=1 n=f#5 v=0
391907 On ch=1 n=g#5 v=0
391944 On ch=1 n=d#6 v=127
391953 On ch=1 n=d#5 v=127
391953 On ch=1 n=g#5 v=127
391980 On ch=1 n=c#5 v=0
391989 On ch=1 n=c#6 v=0
392179 On ch=1 n=g#5 v=0
392188 On ch=1 n=e6 v=127
392188 On ch=1 n=g#5 v=127
392188 On ch=1 n=e5 v=127
392215 On ch=1 n=d#6 v=0
392224 On ch=1 n=d#5 v=0
392641 On ch=1 n=e5 v=0
392668 On ch=1 n=e6 v=0
392668 On ch=1 n=e5 v=81
392668 On ch=1 n=a#5 v=81
392668 On ch=1 n=f#5 v=81
392695 On ch=1 n=g#5 v=0
392876 On ch=1 n=f#5 v=0
392876 On ch=1 n=e5 v=0
392885 On ch=1 n=a#5 v=0
392913 On ch=1 n=b7 v=85
393028 On ch=1 n=b7 v=0
393030 On ch=1 n=d#8 v=87
393145 On ch=1 n=d#8 v=0
393148 On ch=1 n=d8 v=87
393263 On ch=1 n=d8 v=0
393275 On ch=1 n=b7 v=88
393390 On ch=1 n=b7 v=0
393393 On ch=1 n=a#7 v=88
393508 On ch=1 n=a#7 v=0
393510 On ch=1 n=c#8 v=88
393625 On ch=1 n=c#8 v=0
393628 On ch=1 n=c8 v=88
393743 On ch=1 n=c8 v=0
393755 On ch=1 n=a7 v=88
393864 On ch=1 n=g#7 v=88
393870 On ch=1 n=a7 v=0
393979 On ch=1 n=g#7 v=0
393990 On ch=1 n=b7 v=89
394105 On ch=1 n=b7 v=0
394108 On ch=1 n=a#7 v=89
394223 On ch=1 n=a#7 v=0
394226 On ch=1 n=g7 v=89
394341 On ch=1 n=g7 v=0
394353 On ch=1 n=f#7 v=90
394468 On ch=1 n=f#7 v=0
394470 On ch=1 n=a7 v=90
394585 On ch=1 n=a7 v=0
394588 On ch=1 n=g#7 v=90
394703 On ch=1 n=g#7 v=0
394706 On ch=1 n=f7 v=91
394821 On ch=1 n=f7 v=0
394833 On ch=1 n=e7 v=91
394948 On ch=1 n=e7 v=0
394950 On ch=1 n=g7 v=92
395065 On ch=1 n=g7 v=0
395068 On ch=1 n=f#7 v=92
395183 On ch=1 n=f#7 v=0
395186 On ch=1 n=d#7 v=92
395301 On ch=1 n=d#7 v=0
395313 On ch=1 n=d7 v=93
395428 On ch=1 n=d7 v=0
395430 On ch=1 n=f7 v=93
395545 On ch=1 n=f7 v=0
395548 On ch=1 n=e7 v=93
395663 On ch=1 n=e7 v=0
395666 On ch=1 n=c#7 v=93
395781 On ch=1 n=c#7 v=0
395793 On ch=1 n=c7 v=93
395908 On ch=1 n=c7 v=0
395910 On ch=1 n=d#7 v=93
396025 On ch=1 n=d#7 v=0
396028 On ch=1 n=d7 v=94
396143 On ch=1 n=d7 v=0
396146 On ch=1 n=b6 v=94
396261 On ch=1 n=b6 v=0
396273 On ch=1 n=a#6 v=94
396388 On ch=1 n=a#6 v=0
396390 On ch=1 n=c#7 v=95
396505 On ch=1 n=c#7 v=0
396508 On ch=1 n=c7 v=95
396623 On ch=1 n=c7 v=0
396626 On ch=1 n=a6 v=95
396741 On ch=1 n=a6 v=0
396753 On ch=1 n=g#6 v=96
396868 On ch=1 n=g#6 v=0
396870 On ch=1 n=b6 v=96
396985 On ch=1 n=b6 v=0
396988 On ch=1 n=a#6 v=93
397103 On ch=1 n=a#6 v=0
397106 On ch=1 n=g6 v=93
397221 On ch=1 n=g6 v=0
397233 On ch=1 n=f#6 v=93
397348 On ch=1 n=f#6 v=0
397350 On ch=1 n=a6 v=93
397465 On ch=1 n=a6 v=0
397468 On ch=1 n=g#6 v=93
397583 On ch=1 n=g#6 v=0
397586 On ch=1 n=f6 v=93
397701 On ch=1 n=f6 v=0
397713 On ch=1 n=e6 v=93
397828 On ch=1 n=e6 v=0
397830 On ch=1 n=g6 v=94
397945 On ch=1 n=g6 v=0
397948 On ch=1 n=f#6 v=94
398063 On ch=1 n=f#6 v=0
398066 On ch=1 n=d#6 v=94
398181 On ch=1 n=d#6 v=0
398193 On ch=1 n=d6 v=94
398308 On ch=1 n=d6 v=0
398310 On ch=1 n=f6 v=94
398425 On ch=1 n=f6 v=0
398428 On ch=1 n=e6 v=95
398543 On ch=1 n=e6 v=0
398546 On ch=1 n=c#6 v=95
398661 On ch=1 n=c#6 v=0
398664 On ch=1 n=c6 v=95
398779 On ch=1 n=c6 v=0
398790 On ch=1 n=d#6 v=95
398905 On ch=1 n=d#6 v=0
398908 On ch=1 n=d6 v=96
399023 On ch=1 n=d6 v=0
399026 On ch=1 n=b5 v=96
399141 On ch=1 n=b5 v=0
399153 On ch=1 n=a#5 v=96
399268 On ch=1 n=a#5 v=0
399270 On ch=1 n=c#6 v=96
399385 On ch=1 n=c#6 v=0
399388 On ch=1 n=c6 v=97
399503 On ch=1 n=c6 v=0
399506 On ch=1 n=a5 v=97
399621 On ch=1 n=a5 v=0
399633 On ch=1 n=g#5 v=97
399748 On ch=1 n=g#5 v=0
399750 On ch=1 n=b5 v=97
399865 On ch=1 n=b5 v=0
399868 On ch=1 n=g#5 v=98
399983 On ch=1 n=g#5 v=0
399986 On ch=1 n=g5 v=98
400101 On ch=1 n=g5 v=0
400113 On ch=1 n=f#5 v=98
400228 On ch=1 n=f#5 v=0
400230 On ch=1 n=a5 v=93
400345 On ch=1 n=a5 v=0
400348 On ch=1 n=g#5 v=93
400463 On ch=1 n=g#5 v=0
400466 On ch=1 n=f5 v=93
400581 On ch=1 n=f5 v=0
400593 On ch=1 n=e5 v=94
400708 On ch=1 n=e5 v=0
400710 On ch=1 n=g5 v=94
400825 On ch=1 n=g5 v=0
400828 On ch=1 n=f#5 v=95
400943 On ch=1 n=f#5 v=0
400946 On ch=1 n=d#5 v=95
401061 On ch=1 n=d#5 v=0
401073 On ch=1 n=d5 v=95
401188 On ch=1 n=d5 v=0
401190 On ch=1 n=f5 v=96
401305 On ch=1 n=f5 v=0
401308 On ch=1 n=e5 v=96
401423 On ch=1 n=e5 v=0
401426 On ch=1 n=c#5 v=96
401541 On ch=1 n=c#5 v=0
401553 On ch=1 n=c5 v=97
401668 On ch=1 n=c5 v=0
401670 On ch=1 n=d#5 v=98
401785 On ch=1 n=d#5 v=0
401788 On ch=1 n=d5 v=99
401903 On ch=1 n=d5 v=0
401906 On ch=1 n=b4 v=101
402021 On ch=1 n=b4 v=0
402033 On ch=1 n=a#4 v=103
402148 On ch=1 n=a#4 v=0
402150 On ch=1 n=c#5 v=104
402265 On ch=1 n=c#5 v=0
402268 On ch=1 n=c5 v=106
402383 On ch=1 n=c5 v=0
402386 On ch=1 n=a4 v=107
402501 On ch=1 n=a4 v=0
402513 On ch=1 n=g#4 v=108
402628 On ch=1 n=g#4 v=0
402630 On ch=1 n=b4 v=110
402745 On ch=1 n=b4 v=0
402748 On ch=1 n=f#4 v=127
402863 On ch=1 n=f#4 v=0
402866 On ch=1 n=b4 v=95
402981 On ch=1 n=b4 v=0
402993 On ch=1 n=f4 v=127
403108 On ch=1 n=f4 v=0
403110 On ch=1 n=b4 v=95
403225 On ch=1 n=b4 v=0
403228 On ch=1 n=e4 v=127
403343 On ch=1 n=e4 v=0
403346 On ch=1 n=b4 v=95
403461 On ch=1 n=b4 v=0
403473 On ch=1 n=d#4 v=127
403588 On ch=1 n=d#4 v=0
403590 On ch=1 n=b4 v=95
403705 On ch=1 n=b4 v=0
403708 On ch=1 n=d4 v=127
403823 On ch=1 n=d4 v=0
403826 On ch=1 n=b4 v=95
403941 On ch=1 n=b4 v=0
403944 On ch=1 n=c#4 v=127
404059 On ch=1 n=c#4 v=0
404070 On ch=1 n=b4 v=98
404185 On ch=1 n=b4 v=0
404188 On ch=1 n=c4 v=127
404303 On ch=1 n=c4 v=0
404306 On ch=1 n=b4 v=99
404421 On ch=1 n=b4 v=0
404424 On ch=1 n=b3 v=127
404822 On ch=1 n=b3 v=0
405148 On ch=1 n=a#4 v=100
405148 On ch=1 n=e5 v=100
405148 On ch=1 n=f#5 v=100
405148 On ch=1 n=a#5 v=100
405148 On ch=1 n=f#4 v=100
405827 On ch=1 n=a#5 v=0
405827 On ch=1 n=f#5 v=0
405827 On ch=1 n=e5 v=0
405836 On ch=1 n=a#4 v=0
405845 On ch=1 n=f#4 v=0
405864 On ch=1 n=b4 v=100
405864 On ch=1 n=d#5 v=100
405864 On ch=1 n=b5 v=100
406588 On ch=1 n=f#5 v=100
406588 On ch=1 n=f#6 v=100
406588 On ch=1 n=c#6 v=100
406588 On ch=1 n=a#5 v=100
406597 On ch=1 n=b5 v=0
406606 On ch=1 n=d#5 v=0
406615 On ch=1 n=b4 v=0
407276 On ch=1 n=f#5 v=0
407285 On ch=1 n=f#6 v=0
407304 On ch=1 n=a#5 v=0
407304 On ch=1 n=c#6 v=0
407304 On ch=1 n=d#6 v=100
407304 On ch=1 n=b5 v=100
407304 On ch=1 n=f#5 v=100
407304 On ch=1 n=d#5 v=100
407983 On ch=1 n=f#5 v=0
407992 On ch=1 n=d#5 v=0
408001 On ch=1 n=b5 v=0
408010 On ch=1 n=d#6 v=0
408744 On ch=1 n=d#4 v=119
408744 On ch=1 n=f#4 v=119
408744 On ch=1 n=b4 v=119
408744 On ch=1 n=d#5 v=119
409758 On ch=1 n=d#5 v=0
409758 On ch=1 n=b4 v=0
409758 On ch=1 n=f#4 v=0
409758 On ch=1 n=d#4 v=0
410184 On ch=1 n=b7 v=123
410184 On ch=1 n=b6 v=123
411560 On ch=1 n=b6 v=0
411560 On ch=1 n=b7 v=0
411560 Meta TrkEnd
TrkEnd
MTrk
0 SeqSpec 43 00 01 00
0 Meta 0x21 00
0 Meta 0x20 00
0 Par ch=1 c=7 v=127
0 Par ch=1 c=10 v=64
0 Par ch=1 c=91 v=5
0 Par ch=1 c=93 v=0
0 PrCh ch=1 p=0
0 Par ch=1 c=64 v=127
0 On ch=1 n=f#2 v=100
9 On ch=1 n=f#3 v=100
706 On ch=1 n=f#3 v=0
706 On ch=1 n=f#2 v=0
724 On ch=1 n=f#3 v=111
724 On ch=1 n=f#4 v=111
1421 On ch=1 n=f#4 v=0
1421 On ch=1 n=f#3 v=0
1440 On ch=1 n=f#4 v=118
1440 On ch=1 n=f#5 v=118
2146 On ch=1 n=f#5 v=0
2146 On ch=1 n=f#4 v=0
2164 On ch=1 n=f#2 v=127
2164 On ch=1 n=f#3 v=127
2861 On ch=1 n=f#3 v=0
2870 Par ch=1 c=64 v=0
2880 On ch=1 n=f#2 v=0
2880 Par ch=1 c=64 v=127
2880 On ch=1 n=g2 v=118
2880 On ch=1 n=g3 v=118
3577 On ch=1 n=g3 v=0
3577 On ch=1 n=g2 v=0
3604 On ch=1 n=g3 v=100
3604 On ch=1 n=g4 v=100
4301 On ch=1 n=g4 v=0
4301 On ch=1 n=g3 v=0
4320 On ch=1 n=g4 v=123
4329 On ch=1 n=g5 v=123
5026 On ch=1 n=g5 v=0
5035 On ch=1 n=g4 v=0
5044 On ch=1 n=g3 v=100
5044 On ch=1 n=g2 v=100
5741 On ch=1 n=g2 v=0
5750 Par ch=1 c=64 v=0
5760 On ch=1 n=g3 v=0
5760 Par ch=1 c=64 v=127
5760 On ch=1 n=g#2 v=118
5769 On ch=1 n=g#3 v=118
6466 On ch=1 n=g#3 v=0
6466 On ch=1 n=g#2 v=0
6484 On ch=1 n=g#3 v=100
6484 On ch=1 n=g#4 v=100
7181 On ch=1 n=g#4 v=0
7181 On ch=1 n=g#3 v=0
7190 Par ch=1 c=64 v=0
7200 Par ch=1 c=64 v=127
7200 On ch=1 n=a4 v=126
7200 On ch=1 n=a5 v=126
7209 On ch=1 n=c#5 v=126
7209 On ch=1 n=c#6 v=126
7870 On ch=1 n=c#6 v=0
7888 On ch=1 n=c#5 v=0
7888 On ch=1 n=a5 v=0
7897 On ch=1 n=a4 v=0
7907 Par ch=1 c=64 v=0
7917 Par ch=1 c=64 v=127
7921 On ch=1 n=a3 v=127
7921 On ch=1 n=a2 v=127
8591 On ch=1 n=a3 v=0
8600 On ch=1 n=a2 v=0
8637 On ch=1 n=a#2 v=127
8637 On ch=1 n=a#3 v=127
9334 On ch=1 n=a#3 v=0
9334 On ch=1 n=a#2 v=0
9361 On ch=1 n=e5 v=123
9361 On ch=1 n=c#5 v=123
9361 On ch=1 n=f#4 v=123
10058 On ch=1 n=f#4 v=0
10058 On ch=1 n=c#5 v=0
10058 On ch=1 n=e5 v=0
10077 On ch=1 n=e5 v=127
10077 On ch=1 n=f#5 v=127
10077 On ch=1 n=d6 v=127
10774 On ch=1 n=d6 v=0
10774 On ch=1 n=f#5 v=0
10774 On ch=1 n=e5 v=0
10801 On ch=1 n=e5 v=127
10801 On ch=1 n=f#5 v=127
10801 On ch=1 n=c#6 v=127
11201 On ch=1 n=c#6 v=0
11201 On ch=1 n=f#5 v=0
11201 On ch=1 n=e5 v=0
11267 Par ch=1 c=64 v=0
11517 On ch=1 n=b2 v=64
11761 On ch=1 n=b3 v=59
11770 On ch=1 n=b2 v=0
11997 On ch=1 n=f#3 v=61
12024 On ch=1 n=b3 v=0
12237 Par ch=1 c=64 v=127
12237 On ch=1 n=e3 v=67
12247 On ch=1 n=f#3 v=0
12474 On ch=1 n=e4 v=56
12488 On ch=1 n=e3 v=0
12529 Par ch=1 c=64 v=0
12718 On ch=1 n=g3 v=59
12736 On ch=1 n=e4 v=0
12954 On ch=1 n=g3 v=0
12954 On ch=1 n=b2 v=64
13198 On ch=1 n=b3 v=59
13225 On ch=1 n=b2 v=0
13434 On ch=1 n=f#3 v=62
13452 On ch=1 n=b3 v=0
13678 On ch=1 n=e3 v=68
13705 On ch=1 n=f#3 v=0
13914 On ch=1 n=b3 v=60
13941 On ch=1 n=e3 v=0
14149 On ch=1 n=b3 v=0
14158 On ch=1 n=g3 v=61
14393 On ch=1 n=g3 v=0
14394 On ch=1 n=b2 v=69
14638 On ch=1 n=b3 v=59
14665 On ch=1 n=b2 v=0
14874 On ch=1 n=f#3 v=61
14892 On ch=1 n=b3 v=0
15118 On ch=1 n=e3 v=67
15145 On ch=1 n=f#3 v=0
15354 On ch=1 n=b3 v=62
15381 On ch=1 n=e3 v=0
15589 On ch=1 n=b3 v=0
15598 On ch=1 n=g3 v=67
15833 On ch=1 n=g3 v=0
15834 Par ch=1 c=64 v=127
15834 On ch=1 n=d3 v=76
16069 On ch=1 n=d3 v=0
16078 On ch=1 n=d4 v=59
16313 On ch=1 n=d4 v=0
16314 Par ch=1 c=64 v=0
16314 On ch=1 n=a3 v=54
16549 On ch=1 n=a3 v=0
16558 On ch=1 n=g3 v=64
16793 On ch=1 n=g3 v=0
16794 On ch=1 n=d4 v=53
17029 On ch=1 n=d4 v=0
17038 On ch=1 n=a#3 v=59
17273 On ch=1 n=a#3 v=0
17274 On ch=1 n=d3 v=69
17509 On ch=1 n=d3 v=0
17518 On ch=1 n=d4 v=53
17753 On ch=1 n=d4 v=0
17754 On ch=1 n=a3 v=55
17989 On ch=1 n=a3 v=0
17998 On ch=1 n=g3 v=64
18233 On ch=1 n=g3 v=0
18234 On ch=1 n=d4 v=64
18469 On ch=1 n=d4 v=0
18478 On ch=1 n=a#3 v=68
18713 On ch=1 n=a#3 v=0
18714 On ch=1 n=d3 v=74
18949 On ch=1 n=d3 v=0
18958 On ch=1 n=d4 v=66
19193 On ch=1 n=d4 v=0
19194 On ch=1 n=a3 v=69
19429 On ch=1 n=a3 v=0
19438 On ch=1 n=g3 v=79
19673 On ch=1 n=g3 v=0
19674 On ch=1 n=d4 v=73
19909 On ch=1 n=d4 v=0
19918 On ch=1 n=a#3 v=78
20153 On ch=1 n=a#3 v=0
20154 On ch=1 n=d3 v=85
20398 On ch=1 n=d4 v=85
20425 On ch=1 n=d3 v=0
20634 On ch=1 n=a3 v=76
20652 On ch=1 n=d4 v=0
20878 On ch=1 n=g3 v=67
20905 On ch=1 n=a3 v=0
21114 On ch=1 n=d4 v=69
21141 On ch=1 n=g3 v=0
21349 On ch=1 n=d4 v=0
21358 On ch=1 n=b3 v=76
21593 On ch=1 n=b3 v=0
21594 Par ch=1 c=64 v=127
21594 On ch=1 n=f#3 v=83
21838 On ch=1 n=f#4 v=77
21865 On ch=1 n=f#3 v=0
22074 On ch=1 n=c#4 v=69
22092 On ch=1 n=f#4 v=0
22314 Par ch=1 c=64 v=0
22314 On ch=1 n=b3 v=60
22345 On ch=1 n=c#4 v=0
22554 On ch=1 n=f#4 v=58
22577 On ch=1 n=b3 v=0
22789 On ch=1 n=f#4 v=0
22798 On ch=1 n=d4 v=71
23033 On ch=1 n=d4 v=0
23034 On ch=1 n=f#3 v=70
23269 On ch=1 n=f#3 v=0
23278 On ch=1 n=f#4 v=61
23513 On ch=1 n=f#4 v=0
23514 On ch=1 n=c#4 v=63
23749 On ch=1 n=c#4 v=0
23758 On ch=1 n=b3 v=68
23993 On ch=1 n=b3 v=0
23994 On ch=1 n=f#4 v=65
24229 On ch=1 n=f#4 v=0
24238 On ch=1 n=b3 v=70
24473 On ch=1 n=b3 v=0
24474 Par ch=1 c=64 v=127
24474 On ch=1 n=e3 v=79
24709 On ch=1 n=e3 v=0
24718 On ch=1 n=e4 v=69
24953 On ch=1 n=e4 v=0
24954 Par ch=1 c=64 v=0
24954 On ch=1 n=b3 v=67
25189 On ch=1 n=b3 v=0
25198 On ch=1 n=a3 v=71
25433 On ch=1 n=a3 v=0
25434 On ch=1 n=g4 v=81
25669 On ch=1 n=g4 v=0
25678 On ch=1 n=c#4 v=70
25913 On ch=1 n=c#4 v=0
25914 Par ch=1 c=64 v=127
25914 On ch=1 n=d3 v=77
26149 On ch=1 n=d3 v=0
26158 Par ch=1 c=64 v=0
26158 On ch=1 n=f#4 v=64
26393 On ch=1 n=f#4 v=0
26394 On ch=1 n=a3 v=65
26629 On ch=1 n=a3 v=0
26638 On ch=1 n=g3 v=72
26873 On ch=1 n=g3 v=0
26874 On ch=1 n=f4 v=64
27109 On ch=1 n=f4 v=0
27118 On ch=1 n=b3 v=69
27353 On ch=1 n=b3 v=0
27354 Par ch=1 c=64 v=127
27354 On ch=1 n=f#3 v=74
27589 On ch=1 n=f#3 v=0
27598 On ch=1 n=e4 v=67
27833 On ch=1 n=e4 v=0
27834 On ch=1 n=a#3 v=69
28069 On ch=1 n=a#3 v=0
28078 Par ch=1 c=64 v=0
28078 On ch=1 n=b2 v=80
28313 On ch=1 n=b2 v=0
28314 On ch=1 n=f#4 v=74
28549 On ch=1 n=f#4 v=0
28558 On ch=1 n=f#3 v=79
28793 On ch=1 n=f#3 v=0
28794 Par ch=1 c=64 v=127
28794 On ch=1 n=b2 v=90
29029 On ch=1 n=b2 v=0
29038 On ch=1 n=e4 v=79
29273 On ch=1 n=e4 v=0
29274 On ch=1 n=f#3 v=76
29509 On ch=1 n=f#3 v=0
29518 Par ch=1 c=64 v=0
29518 On ch=1 n=b2 v=84
29753 On ch=1 n=b2 v=0
29754 On ch=1 n=d4 v=79
29989 On ch=1 n=d4 v=0
29998 On ch=1 n=f#3 v=84
30233 On ch=1 n=f#3 v=0
30234 On ch=1 n=b2 v=93
30469 On ch=1 n=b2 v=0
30478 On ch=1 n=c#4 v=75
30713 On ch=1 n=c#4 v=0
30714 On ch=1 n=f#3 v=77
30949 On ch=1 n=f#3 v=0
30958 On ch=1 n=b2 v=83
31193 On ch=1 n=b2 v=0
31194 On ch=1 n=f#4 v=79
31429 On ch=1 n=f#4 v=0
31438 On ch=1 n=f#3 v=84
31673 On ch=1 n=f#3 v=0
31674 On ch=1 n=b2 v=93
31918 On ch=1 n=e4 v=79
31945 On ch=1 n=b2 v=0
32154 On ch=1 n=f#3 v=78
32172 On ch=1 n=e4 v=0
32398 On ch=1 n=b2 v=82
32425 On ch=1 n=f#3 v=0
32634 On ch=1 n=d4 v=74
32661 On ch=1 n=b2 v=0
32869 On ch=1 n=d4 v=0
32878 On ch=1 n=g3 v=78
33113 On ch=1 n=g3 v=0
33114 On ch=1 n=a#3 v=88
33358 On ch=1 n=c#5 v=84
33385 On ch=1 n=a#3 v=0
33594 On ch=1 n=f#4 v=85
33612 On ch=1 n=c#5 v=0
33838 On ch=1 n=a3 v=92
33865 On ch=1 n=f#4 v=0
34074 On ch=1 n=c5 v=69
34101 On ch=1 n=a3 v=0
34309 On ch=1 n=c5 v=0
34318 On ch=1 n=d4 v=78
34553 On ch=1 n=d4 v=0
34554 Par ch=1 c=64 v=127
34554 On ch=1 n=g#3 v=88
34789 On ch=1 n=g#3 v=0
34798 On ch=1 n=b4 v=72
35033 On ch=1 n=b4 v=0
35034 On ch=1 n=c#4 v=76
35269 On ch=1 n=c#4 v=0
35278 On ch=1 n=g3 v=85
35513 On ch=1 n=g3 v=0
35514 On ch=1 n=b4 v=69
35739 Par ch=1 c=64 v=0
35749 On ch=1 n=b4 v=0
35758 Par ch=1 c=64 v=127
35758 On ch=1 n=c#4 v=74
35993 On ch=1 n=c#4 v=0
35994 On ch=1 n=f#3 v=85
36229 On ch=1 n=f#3 v=0
36238 On ch=1 n=f#4 v=74
36473 On ch=1 n=f#4 v=0
36474 On ch=1 n=b3 v=75
36709 On ch=1 n=b3 v=0
36718 On ch=1 n=f3 v=79
36953 On ch=1 n=f3 v=0
36954 On ch=1 n=g4 v=74
37189 On ch=1 n=g4 v=0
37198 On ch=1 n=b3 v=75
37399 Par ch=1 c=64 v=0
37433 On ch=1 n=b3 v=0
37434 Par ch=1 c=64 v=127
37434 On ch=1 n=e3 v=79
37669 On ch=1 n=e3 v=0
37678 On ch=1 n=g4 v=63
37913 On ch=1 n=g4 v=0
37914 On ch=1 n=c4 v=69
38149 On ch=1 n=c4 v=0
38154 On ch=1 n=f#3 v=75
38389 On ch=1 n=f#3 v=0
38394 On ch=1 n=e4 v=82
38629 On ch=1 n=e4 v=0
38638 On ch=1 n=c#4 v=88
38641 Par ch=1 c=64 v=0
38873 On ch=1 n=c#4 v=0
38874 Par ch=1 c=64 v=127
38874 On ch=1 n=b2 v=100
39109 On ch=1 n=b2 v=0
39118 On ch=1 n=f#4 v=100
39353 On ch=1 n=f#4 v=0
39354 On ch=1 n=d5 v=100
39564 Par ch=1 c=64 v=0
39589 On ch=1 n=d5 v=0
39598 Par ch=1 c=64 v=127
39598 On ch=1 n=e5 v=100
39833 On ch=1 n=e5 v=0
39834 On ch=1 n=a#4 v=100
39834 On ch=1 n=g4 v=100
40069 On ch=1 n=g4 v=0
40069 On ch=1 n=a#4 v=0
40078 On ch=1 n=e4 v=100
40284 Par ch=1 c=64 v=0
40313 On ch=1 n=e4 v=0
40314 Par ch=1 c=64 v=127
40314 On ch=1 n=b3 v=100
40549 On ch=1 n=b3 v=0
40558 On ch=1 n=f#4 v=100
40793 On ch=1 n=f#4 v=0
40794 On ch=1 n=d5 v=100
41004 Par ch=1 c=64 v=0
41029 On ch=1 n=d5 v=0
41038 Par ch=1 c=64 v=127
41038 On ch=1 n=e5 v=100
41273 On ch=1 n=e5 v=0
41274 On ch=1 n=a#4 v=100
41274 On ch=1 n=g4 v=100
41509 On ch=1 n=g4 v=0
41509 On ch=1 n=a#4 v=0
41518 On ch=1 n=e4 v=100
41724 Par ch=1 c=64 v=0
41753 On ch=1 n=e4 v=0
41754 Par ch=1 c=64 v=127
41754 On ch=1 n=b3 v=100
41989 On ch=1 n=b3 v=0
41998 On ch=1 n=d5 v=100
42233 On ch=1 n=d5 v=0
42234 On ch=1 n=f#4 v=100
42444 Par ch=1 c=64 v=0
42469 On ch=1 n=f#4 v=0
42478 Par ch=1 c=64 v=127
42478 On ch=1 n=e4 v=100
42713 On ch=1 n=e4 v=0
42714 On ch=1 n=g5 v=100
42949 On ch=1 n=g5 v=0
42958 On ch=1 n=b4 v=100
42958 On ch=1 n=g4 v=100
43164 Par ch=1 c=64 v=0
43193 On ch=1 n=g4 v=0
43193 On ch=1 n=b4 v=0
43194 Par ch=1 c=64 v=127
43194 On ch=1 n=d4 v=100
43429 On ch=1 n=d4 v=0
43438 On ch=1 n=f#5 v=100
43673 On ch=1 n=f#5 v=0
43674 On ch=1 n=d5 v=100
43674 On ch=1 n=a4 v=100
43884 Par ch=1 c=64 v=0
43909 On ch=1 n=a4 v=0
43909 On ch=1 n=d5 v=0
43918 Par ch=1 c=64 v=127
43918 On ch=1 n=g4 v=100
44153 On ch=1 n=g4 v=0
44154 On ch=1 n=g5 v=100
44389 On ch=1 n=g5 v=0
44398 On ch=1 n=a#4 v=100
44398 On ch=1 n=d5 v=100
44604 Par ch=1 c=64 v=0
44633 On ch=1 n=d5 v=0
44633 On ch=1 n=a#4 v=0
44634 Par ch=1 c=64 v=127
44634 On ch=1 n=d4 v=100
44869 On ch=1 n=d4 v=0
44878 On ch=1 n=f#5 v=100
45113 On ch=1 n=f#5 v=0
45114 On ch=1 n=a4 v=100
45324 Par ch=1 c=64 v=0
45349 On ch=1 n=a4 v=0
45358 Par ch=1 c=64 v=127
45358 On ch=1 n=g5 v=100
45593 On ch=1 n=g5 v=0
45594 On ch=1 n=c#5 v=100
45594 On ch=1 n=a#4 v=100
45829 On ch=1 n=a#4 v=0
45829 On ch=1 n=c#5 v=0
45838 On ch=1 n=g4 v=100
46044 Par ch=1 c=64 v=0
46073 On ch=1 n=g4 v=0
46074 Par ch=1 c=64 v=127
46074 On ch=1 n=d4 v=100
46309 On ch=1 n=d4 v=0
46318 On ch=1 n=f#5 v=100
46553 On ch=1 n=f#5 v=0
46554 On ch=1 n=a4 v=100
46764 Par ch=1 c=64 v=0
46789 On ch=1 n=a4 v=0
46798 Par ch=1 c=64 v=127
46798 On ch=1 n=g5 v=100
47033 On ch=1 n=g5 v=0
47034 On ch=1 n=c#5 v=100
47034 On ch=1 n=a#4 v=100
47269 On ch=1 n=a#4 v=0
47269 On ch=1 n=c#5 v=0
47278 On ch=1 n=g4 v=100
47484 Par ch=1 c=64 v=0
47513 On ch=1 n=g4 v=0
47514 Par ch=1 c=64 v=127
47514 On ch=1 n=d4 v=100
47749 On ch=1 n=d4 v=0
47758 On ch=1 n=f#5 v=100
47993 On ch=1 n=f#5 v=0
47994 On ch=1 n=d5 v=100
47994 On ch=1 n=a4 v=100
48204 Par ch=1 c=64 v=0
48229 On ch=1 n=a4 v=0
48229 On ch=1 n=d5 v=0
48238 Par ch=1 c=64 v=127
48238 On ch=1 n=g4 v=100
48473 On ch=1 n=g4 v=0
48474 On ch=1 n=b5 v=100
48709 On ch=1 n=b5 v=0
48718 On ch=1 n=d5 v=100
48718 On ch=1 n=b4 v=100
48924 Par ch=1 c=64 v=0
48953 On ch=1 n=b4 v=0
48953 On ch=1 n=d5 v=0
48954 Par ch=1 c=64 v=127
48954 On ch=1 n=a#4 v=100
49189 On ch=1 n=a#4 v=0
49198 On ch=1 n=c#6 v=88
49433 On ch=1 n=c#6 v=0
49434 On ch=1 n=f#5 v=97
49434 On ch=1 n=c#5 v=97
49644 Par ch=1 c=64 v=0
49669 On ch=1 n=c#5 v=0
49669 On ch=1 n=f#5 v=0
49678 Par ch=1 c=64 v=127
49678 On ch=1 n=b4 v=105
49913 On ch=1 n=b4 v=0
49914 On ch=1 n=d6 v=87
50149 On ch=1 n=d6 v=0
50158 On ch=1 n=f#5 v=95
50158 On ch=1 n=d5 v=95
50364 Par ch=1 c=64 v=0
50393 On ch=1 n=d5 v=0
50393 On ch=1 n=f#5 v=0
50394 Par ch=1 c=64 v=127
50394 On ch=1 n=a#4 v=103
50629 On ch=1 n=a#4 v=0
50638 On ch=1 n=c#6 v=94
50873 On ch=1 n=c#6 v=0
50874 On ch=1 n=f#5 v=101
50883 On ch=1 n=c#5 v=102
51084 Par ch=1 c=64 v=0
51109 On ch=1 n=f#5 v=0
51118 On ch=1 n=c#5 v=0
51118 Par ch=1 c=64 v=127
51118 On ch=1 n=a4 v=100
51353 On ch=1 n=a4 v=0
51354 On ch=1 n=b5 v=83
51589 On ch=1 n=b5 v=0
51598 On ch=1 n=f#5 v=92
51598 On ch=1 n=d5 v=92
51804 Par ch=1 c=64 v=0
51833 On ch=1 n=d5 v=0
51833 On ch=1 n=f#5 v=0
51834 Par ch=1 c=64 v=127
51834 On ch=1 n=g#4 v=101
52069 On ch=1 n=g#4 v=0
52078 On ch=1 n=b5 v=84
52313 On ch=1 n=b5 v=0
52314 On ch=1 n=e5 v=88
52314 On ch=1 n=b4 v=88
52524 Par ch=1 c=64 v=0
52549 On ch=1 n=b4 v=0
52549 On ch=1 n=e5 v=0
52558 Par ch=1 c=64 v=127
52558 On ch=1 n=g4 v=100
52793 On ch=1 n=g4 v=0
52794 On ch=1 n=a5 v=79
53029 On ch=1 n=a5 v=0
53038 On ch=1 n=e5 v=81
53038 On ch=1 n=c#5 v=81
53244 Par ch=1 c=64 v=0
53273 On ch=1 n=c#5 v=0
53273 On ch=1 n=e5 v=0
53274 Par ch=1 c=64 v=127
53274 On ch=1 n=f#4 v=100
53274 On ch=1 n=f#4 v=84
53509 On ch=1 n=f#4 v=0
53509 On ch=1 n=f#4 v=0
53518 On ch=1 n=a5 v=100
53753 On ch=1 n=a5 v=0
53754 On ch=1 n=a4 v=86
53754 On ch=1 n=d5 v=86
53989 On ch=1 n=d5 v=0
53989 On ch=1 n=a4 v=0
53998 Par ch=1 c=64 v=0
53998 On ch=1 n=f#4 v=100
54233 On ch=1 n=f#4 v=0
54234 On ch=1 n=g#5 v=100
54469 On ch=1 n=g#5 v=0
54478 On ch=1 n=f4 v=105
54713 On ch=1 n=f4 v=0
54714 Par ch=1 c=64 v=127
54714 On ch=1 n=e4 v=98
54949 On ch=1 n=e4 v=0
54958 On ch=1 n=e5 v=92
55193 On ch=1 n=e5 v=0
55194 On ch=1 n=a#4 v=86
55194 On ch=1 n=f#4 v=86
55404 Par ch=1 c=64 v=0
55429 On ch=1 n=f#4 v=0
55429 On ch=1 n=a#4 v=0
55438 Par ch=1 c=64 v=127
55438 On ch=1 n=d4 v=80
55673 On ch=1 n=d4 v=0
55674 On ch=1 n=f#5 v=74
55909 On ch=1 n=f#5 v=0
55918 On ch=1 n=b4 v=68
55918 On ch=1 n=f#4 v=68
56124 Par ch=1 c=64 v=0
56153 On ch=1 n=f#4 v=0
56153 On ch=1 n=b4 v=0
56154 Par ch=1 c=64 v=127
56154 On ch=1 n=a#3 v=62
56389 On ch=1 n=a#3 v=0
56398 On ch=1 n=e5 v=51
56633 On ch=1 n=e5 v=0
56634 On ch=1 n=f#4 v=55
56844 Par ch=1 c=64 v=0
56869 On ch=1 n=f#4 v=0
56878 Par ch=1 c=64 v=127
56878 On ch=1 n=b3 v=59
57113 On ch=1 n=b3 v=0
57114 On ch=1 n=d5 v=58
57349 On ch=1 n=d5 v=0
57358 On ch=1 n=f#4 v=62
57564 Par ch=1 c=64 v=0
57593 On ch=1 n=f#4 v=0
57594 Par ch=1 c=64 v=127
57594 On ch=1 n=a3 v=66
57829 On ch=1 n=a3 v=0
57838 On ch=1 n=b4 v=59
58073 On ch=1 n=b4 v=0
58074 On ch=1 n=d#4 v=63
58284 Par ch=1 c=64 v=0
58309 On ch=1 n=d#4 v=0
58318 Par ch=1 c=64 v=127
58318 On ch=1 n=g3 v=67
58553 On ch=1 n=g3 v=0
58554 On ch=1 n=b4 v=71
58789 On ch=1 n=b4 v=0
58798 On ch=1 n=e4 v=75
59004 Par ch=1 c=64 v=0
59033 On ch=1 n=e4 v=0
59034 Par ch=1 c=64 v=127
59034 On ch=1 n=f#3 v=75
59269 On ch=1 n=f#3 v=0
59278 On ch=1 n=f#4 v=79
59513 On ch=1 n=f#4 v=0
59514 On ch=1 n=b3 v=82
59724 Par ch=1 c=64 v=0
59749 On ch=1 n=b3 v=0
59758 Par ch=1 c=64 v=127
59758 On ch=1 n=e3 v=85
59993 On ch=1 n=e3 v=0
59994 On ch=1 n=g4 v=88
60229 On ch=1 n=g4 v=0
60238 On ch=1 n=a#3 v=92
60444 Par ch=1 c=64 v=0
60473 On ch=1 n=a#3 v=0
60474 Par ch=1 c=64 v=127
60474 On ch=1 n=e3 v=93
60709 On ch=1 n=e3 v=0
60718 On ch=1 n=g4 v=105
60953 On ch=1 n=g4 v=0
60954 On ch=1 n=c#4 v=116
61189 On ch=1 n=c#4 v=0
61198 On ch=1 n=a#3 v=127
61433 On ch=1 n=a#3 v=0
61434 On ch=1 n=g4 v=127
61669 On ch=1 n=g4 v=0
61678 On ch=1 n=c#4 v=127
61913 On ch=1 n=c#4 v=0
61914 On ch=1 n=d3 v=127
62149 On ch=1 n=d3 v=0
62158 On ch=1 n=b4 v=127
62393 On ch=1 n=b4 v=0
62394 On ch=1 n=d4 v=127
62629 On ch=1 n=d4 v=0
62638 On ch=1 n=d5 v=127
62873 On ch=1 n=d5 v=0
62874 On ch=1 n=b4 v=125
63109 On ch=1 n=b4 v=0
63118 On ch=1 n=b3 v=125
63304 Par ch=1 c=64 v=0
63353 On ch=1 n=b3 v=0
63354 Par ch=1 c=64 v=127
63354 On ch=1 n=c#3 v=126
63589 On ch=1 n=c#3 v=0
63598 On ch=1 n=g#4 v=100
63833 On ch=1 n=g#4 v=0
63834 On ch=1 n=c#4 v=127
64044 Par ch=1 c=64 v=0
64069 On ch=1 n=c#4 v=0
64074 Par ch=1 c=64 v=127
64078 On ch=1 n=f#3 v=100
64313 On ch=1 n=f#3 v=0
64314 On ch=1 n=c#5 v=125
64549 On ch=1 n=c#5 v=0
64558 On ch=1 n=f#4 v=111
64764 Par ch=1 c=64 v=0
64793 On ch=1 n=f#4 v=0
64794 Par ch=1 c=64 v=127
64794 On ch=1 n=b3 v=127
65029 On ch=1 n=b3 v=0
65038 On ch=1 n=d5 v=100
65273 On ch=1 n=d5 v=0
65274 On ch=1 n=f#4 v=123
65484 Par ch=1 c=64 v=0
65509 On ch=1 n=f#4 v=0
65518 Par ch=1 c=64 v=127
65518 On ch=1 n=f3 v=100
65753 On ch=1 n=f3 v=0
65754 On ch=1 n=g#4 v=126
65989 On ch=1 n=g#4 v=0
65998 On ch=1 n=b3 v=100
66204 Par ch=1 c=64 v=0
66233 On ch=1 n=b3 v=0
66234 Par ch=1 c=64 v=127
66234 On ch=1 n=f#3 v=123
66469 On ch=1 n=f#3 v=0
66478 On ch=1 n=f#4 v=100
66713 On ch=1 n=f#4 v=0
66714 On ch=1 n=b3 v=100
66724 Par ch=1 c=64 v=0
66949 On ch=1 n=b3 v=0
66958 Par ch=1 c=64 v=127
66958 On ch=1 n=e3 v=100
67193 On ch=1 n=e3 v=0
67194 On ch=1 n=f#4 v=100
67429 On ch=1 n=f#4 v=0
67438 On ch=1 n=a#3 v=100
67644 Par ch=1 c=64 v=0
67673 On ch=1 n=a#3 v=0
67674 Par ch=1 c=64 v=127
67674 On ch=1 n=d3 v=100
67909 On ch=1 n=d3 v=0
67918 On ch=1 n=b4 v=100
68153 On ch=1 n=b4 v=0
68154 On ch=1 n=f#4 v=100
68364 Par ch=1 c=64 v=0
68389 On ch=1 n=f#4 v=0
68398 Par ch=1 c=64 v=127
68398 On ch=1 n=d4 v=100
68633 On ch=1 n=d4 v=0
68634 On ch=1 n=d5 v=100
68869 On ch=1 n=d5 v=0
68878 On ch=1 n=f#4 v=100
69074 Par ch=1 c=64 v=0
69113 On ch=1 n=f#4 v=0
69114 Par ch=1 c=64 v=127
69114 On ch=1 n=c#4 v=100
69349 On ch=1 n=c#4 v=0
69358 On ch=1 n=c#5 v=100
69593 On ch=1 n=c#5 v=0
69594 On ch=1 n=g#4 v=100
69804 Par ch=1 c=64 v=0
69829 On ch=1 n=g#4 v=0
69838 Par ch=1 c=64 v=127
69838 On ch=1 n=f#3 v=100
70073 On ch=1 n=f#3 v=0
70074 On ch=1 n=c#5 v=100
70309 On ch=1 n=c#5 v=0
70318 On ch=1 n=f#4 v=100
70514 Par ch=1 c=64 v=0
70553 On ch=1 n=f#4 v=0
70554 Par ch=1 c=64 v=127
70554 On ch=1 n=b3 v=100
70789 On ch=1 n=b3 v=0
70798 On ch=1 n=b4 v=79
71033 On ch=1 n=b4 v=0
71034 On ch=1 n=f#4 v=82
71244 Par ch=1 c=64 v=0
71269 On ch=1 n=f#4 v=0
71278 Par ch=1 c=64 v=127
71278 On ch=1 n=f3 v=84
71513 On ch=1 n=f3 v=0
71514 On ch=1 n=g4 v=87
71749 On ch=1 n=g4 v=0
71758 On ch=1 n=b3 v=89
71954 Par ch=1 c=64 v=0
71993 On ch=1 n=b3 v=0
71994 Par ch=1 c=64 v=127
71994 On ch=1 n=e3 v=91
72229 On ch=1 n=e3 v=0
72238 On ch=1 n=g4 v=93
72473 On ch=1 n=g4 v=0
72474 On ch=1 n=c4 v=96
72674 Par ch=1 c=64 v=0
72709 On ch=1 n=c4 v=0
72718 Par ch=1 c=64 v=127
72718 On ch=1 n=f#3 v=98
72953 On ch=1 n=f#3 v=0
72954 On ch=1 n=f#4 v=100
73189 On ch=1 n=f#4 v=0
73198 On ch=1 n=c#4 v=103
73404 Par ch=1 c=64 v=0
73413 On ch=1 n=c#4 v=0
73434 Par ch=1 c=64 v=127
73434 On ch=1 n=b2 v=125
73434 On ch=1 n=b3 v=125
74131 On ch=1 n=b3 v=0
74158 On ch=1 n=b3 v=94
74158 On ch=1 n=f#4 v=94
74194 On ch=1 n=b2 v=0
74834 Par ch=1 c=64 v=0
74846 On ch=1 n=f#4 v=0
74874 On ch=1 n=g#4 v=104
75118 On ch=1 n=f#4 v=85
75127 On ch=1 n=g#4 v=0
75363 On ch=1 n=e4 v=106
75372 On ch=1 n=f#4 v=0
75598 On ch=1 n=e4 v=0
75598 On ch=1 n=d#4 v=89
75833 On ch=1 n=d#4 v=0
75870 On ch=1 n=b3 v=0
76078 On ch=1 n=g#3 v=115
76078 On ch=1 n=c#4 v=115
76313 On ch=1 n=c#4 v=0
76313 On ch=1 n=g#3 v=0
76314 On ch=1 n=f#2 v=127
76314 Par ch=1 c=64 v=127
76314 On ch=1 n=f#3 v=127
76721 On ch=1 n=f#2 v=0
76730 On ch=1 n=f#3 v=0
77014 Par ch=1 c=64 v=0
77038 On ch=1 n=e4 v=64
77038 On ch=1 n=a#4 v=64
77038 Par ch=1 c=64 v=127
77038 On ch=1 n=c#4 v=64
77735 On ch=1 n=e4 v=0
77754 On ch=1 n=e4 v=74
77763 On ch=1 n=b4 v=74
77763 On ch=1 n=f#4 v=74
77790 On ch=1 n=a#4 v=0
77808 On ch=1 n=c#4 v=0
78451 On ch=1 n=f#4 v=0
78460 On ch=1 n=e4 v=0
78478 On ch=1 n=e4 v=85
78478 On ch=1 n=f#4 v=85
78478 On ch=1 n=d#5 v=85
78496 On ch=1 n=b4 v=0
78958 Par ch=1 c=64 v=0
78958 On ch=1 n=c#5 v=93
78985 On ch=1 n=d#5 v=0
78985 On ch=1 n=f#4 v=0
79003 On ch=1 n=e4 v=0
79194 On ch=1 n=f#4 v=100
79194 On ch=1 n=b3 v=100
79203 On ch=1 n=b4 v=100
79221 On ch=1 n=c#5 v=0
79918 On ch=1 n=a#3 v=76
79918 On ch=1 n=g#4 v=76
79936 On ch=1 n=b4 v=0
79945 On ch=1 n=f#4 v=0
79963 On ch=1 n=b3 v=0
80634 On ch=1 n=b4 v=97
80634 On ch=1 n=d#4 v=97
80688 On ch=1 n=g#4 v=0
80706 On ch=1 n=a#3 v=0
80878 On ch=1 n=a#4 v=88
80932 On ch=1 n=b4 v=0
81123 On ch=1 n=g#4 v=119
81159 On ch=1 n=a#4 v=0
81358 On ch=1 n=f#4 v=117
81394 On ch=1 n=g#4 v=0
81630 On ch=1 n=f#4 v=0
81630 On ch=1 n=d#4 v=0
81838 On ch=1 n=b3 v=125
81838 On ch=1 n=b2 v=125
82055 On ch=1 n=b2 v=0
82055 On ch=1 n=b3 v=0
82074 On ch=1 n=a#3 v=127
82074 On ch=1 n=a#2 v=127
82074 Par ch=1 c=64 v=127
82590 On ch=1 n=a#3 v=0
82626 On ch=1 n=a#2 v=0
82798 On ch=1 n=d5 v=76
82798 On ch=1 n=f4 v=76
82798 On ch=1 n=g#4 v=76
82798 On ch=1 n=a#4 v=76
83477 On ch=1 n=g#4 v=0
83494 Par ch=1 c=64 v=0
83495 On ch=1 n=a#4 v=0
83495 On ch=1 n=f4 v=0
83514 Par ch=1 c=64 v=127
83514 On ch=1 n=f4 v=93
83514 On ch=1 n=a#4 v=93
83523 On ch=1 n=g#4 v=93
83523 On ch=1 n=d#5 v=93
83559 On ch=1 n=d5 v=0
84147 On ch=1 n=d#5 v=0
84193 On ch=1 n=a#4 v=0
84202 On ch=1 n=g#4 v=0
84214 Par ch=1 c=64 v=0
84238 Par ch=1 c=64 v=127
84238 On ch=1 n=f#5 v=110
84247 On ch=1 n=f4 v=0
84247 On ch=1 n=a#4 v=110
84247 On ch=1 n=g#4 v=110
84627 On ch=1 n=f#5 v=0
84673 On ch=1 n=g#4 v=0
84682 On ch=1 n=a#4 v=0
84718 On ch=1 n=c#5 v=93
84934 Par ch=1 c=64 v=0
84954 On ch=1 n=c#5 v=0
84954 On ch=1 n=d#4 v=82
84954 On ch=1 n=a#4 v=82
84954 Par ch=1 c=64 v=127
85397 On ch=1 n=d#4 v=0
85406 On ch=1 n=a#4 v=0
85434 On ch=1 n=d#4 v=43
85654 Par ch=1 c=64 v=0
85678 On ch=1 n=d4 v=52
85705 On ch=1 n=d#4 v=0
85914 On ch=1 n=d#4 v=48
85923 On ch=1 n=d4 v=0
86158 On ch=1 n=b4 v=40
86403 On ch=1 n=a#4 v=44
86421 On ch=1 n=b4 v=0
86683 On ch=1 n=a#4 v=0
86855 On ch=1 n=d#4 v=0
86874 On ch=1 n=d#4 v=25
87118 On ch=1 n=d4 v=25
87145 On ch=1 n=d#4 v=0
87354 On ch=1 n=d#4 v=25
87399 On ch=1 n=d4 v=0
87607 On ch=1 n=b4 v=26
87843 On ch=1 n=a#4 v=26
87888 On ch=1 n=b4 v=0
88295 On ch=1 n=a#4 v=0
88295 On ch=1 n=d#4 v=0
88323 On ch=1 n=e5 v=93
88558 On ch=1 n=d#5 v=102
88594 On ch=1 n=e5 v=0
89002 On ch=1 n=d#5 v=0
89047 On ch=1 n=b4 v=44
89283 On ch=1 n=d#4 v=54
89283 On ch=1 n=a#4 v=54
89319 On ch=1 n=b4 v=0
89518 On ch=1 n=a#4 v=0
89518 On ch=1 n=b4 v=90
89763 On ch=1 n=a#4 v=80
89772 On ch=1 n=b4 v=0
89998 On ch=1 n=b4 v=71
90007 On ch=1 n=a#4 v=0
90234 On ch=1 n=a#4 v=61
90279 On ch=1 n=b4 v=0
90478 On ch=1 n=b4 v=51
90505 On ch=1 n=a#4 v=0
90723 On ch=1 n=a#4 v=41
90768 On ch=1 n=b4 v=0
91221 On ch=1 n=a#4 v=0
91221 On ch=1 n=d#4 v=0
91438 Par ch=1 c=64 v=127
91438 On ch=1 n=f5 v=74
91438 On ch=1 n=c5 v=74
91438 On ch=1 n=g#4 v=74
92117 On ch=1 n=c5 v=0
92126 On ch=1 n=g#4 v=0
92126 On ch=1 n=f5 v=0
92134 Par ch=1 c=64 v=0
92154 Par ch=1 c=64 v=127
92154 On ch=1 n=g#4 v=90
92154 On ch=1 n=e5 v=90
92154 On ch=1 n=c#4 v=90
92643 On ch=1 n=e5 v=0
92652 On ch=1 n=g#4 v=0
92661 On ch=1 n=c#4 v=0
92854 Par ch=1 c=64 v=0
92878 Par ch=1 c=64 v=127
92878 On ch=1 n=e5 v=65
92878 On ch=1 n=a#4 v=65
92878 On ch=1 n=f#4 v=65
93503 On ch=1 n=e5 v=0
93530 On ch=1 n=a#4 v=0
93548 On ch=1 n=f#4 v=0
93574 Par ch=1 c=64 v=0
93594 Par ch=1 c=64 v=127
93594 On ch=1 n=d#5 v=95
93594 On ch=1 n=f#4 v=95
93594 On ch=1 n=b3 v=95
94294 Par ch=1 c=64 v=0
94318 Par ch=1 c=64 v=127
94318 On ch=1 n=f4 v=84
94318 On ch=1 n=g#4 v=84
94354 On ch=1 n=b3 v=0
94354 On ch=1 n=f#4 v=0
94599 On ch=1 n=g#4 v=0
94599 On ch=1 n=d#5 v=0
94617 On ch=1 n=f4 v=0
95011 Par ch=1 c=64 v=0
95031 Par ch=1 c=64 v=127
95031 On ch=1 n=f4 v=102
95031 On ch=1 n=g#4 v=102
95031 On ch=1 n=a#3 v=102
95302 On ch=1 n=g#4 v=0
95329 On ch=1 n=f4 v=0
95338 On ch=1 n=a#3 v=0
95755 On ch=1 n=a#3 v=108
96407 On ch=1 n=a#3 v=0
96451 Par ch=1 c=64 v=0
96471 On ch=1 n=d#3 v=127
96471 On ch=1 n=d#2 v=127
96471 Par ch=1 c=64 v=127
97195 On ch=1 n=a#4 v=94
97195 On ch=1 n=d#4 v=94
97231 On ch=1 n=d#2 v=0
97231 On ch=1 n=d#3 v=0
97871 Par ch=1 c=64 v=0
97883 On ch=1 n=a#4 v=0
97911 On ch=1 n=b4 v=104
98155 On ch=1 n=a#4 v=85
98164 On ch=1 n=b4 v=0
98400 On ch=1 n=g#4 v=106
98409 On ch=1 n=a#4 v=0
98635 On ch=1 n=g#4 v=0
98635 On ch=1 n=d#4 v=89
98635 On ch=1 n=d#4 v=89
98635 On ch=1 n=f#4 v=100
98870 On ch=1 n=d#4 v=0
98870 On ch=1 n=d#4 v=0
98907 On ch=1 n=f#4 v=0
98907 On ch=1 n=d#4 v=0
99115 On ch=1 n=b3 v=115
99115 On ch=1 n=b2 v=115
99350 On ch=1 n=b2 v=0
99350 On ch=1 n=b3 v=0
99351 Par ch=1 c=64 v=127
99351 On ch=1 n=a#3 v=127
99351 On ch=1 n=a#2 v=127
99758 On ch=1 n=a#2 v=0
99767 On ch=1 n=a#3 v=0
100051 Par ch=1 c=64 v=0
100075 Par ch=1 c=64 v=127
100075 On ch=1 n=d5 v=64
100075 On ch=1 n=a#4 v=64
100075 On ch=1 n=g#4 v=64
100075 On ch=1 n=f4 v=64
100772 On ch=1 n=f4 v=0
100772 On ch=1 n=g#4 v=0
100800 On ch=1 n=d#5 v=74
100800 On ch=1 n=g#4 v=74
100800 On ch=1 n=f4 v=74
100800 On ch=1 n=a#4 v=74
100827 On ch=1 n=a#4 v=0
100827 On ch=1 n=d5 v=0
101488 On ch=1 n=f4 v=0
101488 On ch=1 n=g#4 v=0
101515 On ch=1 n=g#4 v=85
101515 On ch=1 n=a#4 v=85
101515 On ch=1 n=f#5 v=85
101533 On ch=1 n=a#4 v=0
101533 On ch=1 n=d#5 v=0
101995 Par ch=1 c=64 v=0
101995 On ch=1 n=f5 v=93
102022 On ch=1 n=f#5 v=0
102022 On ch=1 n=a#4 v=0
102040 On ch=1 n=g#4 v=0
102231 On ch=1 n=d#4 v=100
102240 On ch=1 n=b4 v=100
102258 On ch=1 n=f5 v=0
102955 On ch=1 n=d4 v=76
102955 On ch=1 n=c5 v=76
102973 On ch=1 n=b4 v=0
102982 On ch=1 n=d#4 v=0
103671 On ch=1 n=c#4 v=97
103671 On ch=1 n=d#5 v=97
103725 On ch=1 n=c5 v=0
103743 On ch=1 n=d4 v=0
103915 On ch=1 n=c#5 v=88
103969 On ch=1 n=d#5 v=0
104160 On ch=1 n=b4 v=119
104196 On ch=1 n=c#5 v=0
104395 On ch=1 n=a#4 v=117
104431 On ch=1 n=b4 v=0
104667 On ch=1 n=a#4 v=0
104667 On ch=1 n=c#4 v=0
104875 On ch=1 n=d4 v=125
104875 On ch=1 n=d3 v=125
105092 On ch=1 n=d3 v=0
105092 On ch=1 n=d4 v=0
105111 Par ch=1 c=64 v=127
105111 On ch=1 n=c#4 v=127
105111 On ch=1 n=c#3 v=127
105627 On ch=1 n=c#4 v=0
105663 On ch=1 n=c#3 v=0
105835 On ch=1 n=g#4 v=76
105835 On ch=1 n=f5 v=76
105835 On ch=1 n=b4 v=76
105835 On ch=1 n=c#5 v=76
106505 On ch=1 n=c#5 v=0
106514 On ch=1 n=g#4 v=0
106531 Par ch=1 c=64 v=0
106532 On ch=1 n=b4 v=0
106532 On ch=1 n=f5 v=0
106551 Par ch=1 c=64 v=127
106551 On ch=1 n=b4 v=93
106551 On ch=1 n=g#4 v=93
106560 On ch=1 n=f#5 v=93
106560 On ch=1 n=c#5 v=93
107184 On ch=1 n=c#5 v=0
107184 On ch=1 n=f#5 v=0
107230 On ch=1 n=g#4 v=0
107230 On ch=1 n=b4 v=0
107251 Par ch=1 c=64 v=0
107275 Par ch=1 c=64 v=127
107275 On ch=1 n=a#5 v=111
107284 On ch=1 n=f5 v=111
107284 On ch=1 n=c#5 v=111
107284 On ch=1 n=b4 v=111
107664 On ch=1 n=a#5 v=0
107710 On ch=1 n=b4 v=0
107719 On ch=1 n=c#5 v=0
107719 On ch=1 n=f5 v=0
107755 On ch=1 n=g#5 v=98
107971 Par ch=1 c=64 v=0
107991 On ch=1 n=g#5 v=0
107991 On ch=1 n=f#4 v=71
107991 On ch=1 n=c#5 v=71
108000 On ch=1 n=f#5 v=71
108507 On ch=1 n=c#5 v=0
108516 On ch=1 n=f#5 v=0
108534 On ch=1 n=f#4 v=0
108715 On ch=1 n=d#4 v=58
108951 On ch=1 n=f#5 v=48
109195 On ch=1 n=a#4 v=55
109212 On ch=1 n=f#5 v=0
109231 On ch=1 n=d#4 v=0
109440 On ch=1 n=g#4 v=69
109456 On ch=1 n=a#4 v=0
109675 On ch=1 n=d#5 v=49
109920 On ch=1 n=b4 v=57
109929 On ch=1 n=g#4 v=0
109936 On ch=1 n=d#5 v=0
110155 On ch=1 n=c#4 v=84
110181 On ch=1 n=b4 v=0
110391 On ch=1 n=f5 v=55
110635 On ch=1 n=b4 v=59
110652 On ch=1 n=f5 v=0
110689 On ch=1 n=c#4 v=0
110871 On ch=1 n=f#4 v=87
110896 On ch=1 n=b4 v=0
111115 On ch=1 n=f#5 v=66
111360 On ch=1 n=f#4 v=0
111360 On ch=1 n=a#4 v=48
111376 On ch=1 n=f#5 v=0
111586 On ch=1 n=d#4 v=75
111621 On ch=1 n=a#4 v=0
111831 On ch=1 n=f#5 v=49
112084 On ch=1 n=a#4 v=55
112092 On ch=1 n=f#5 v=0
112093 On ch=1 n=d#4 v=0
112320 On ch=1 n=g#4 v=79
112345 On ch=1 n=a#4 v=0
112555 On ch=1 n=d#5 v=58
112791 On ch=1 n=b4 v=63
112816 On ch=1 n=d#5 v=0
112926 On ch=1 n=g#4 v=0
113035 On ch=1 n=c#4 v=84
113052 On ch=1 n=b4 v=0
113280 On ch=1 n=f5 v=58
113515 On ch=1 n=b4 v=64
113541 On ch=1 n=f5 v=0
113560 On ch=1 n=c#4 v=0
113751 On ch=1 n=f#4 v=95
113776 On ch=1 n=b4 v=0
113995 On ch=1 n=e5 v=62
114231 On ch=1 n=a#4 v=70
114256 On ch=1 n=e5 v=0
114276 On ch=1 n=f#4 v=0
114475 On ch=1 n=f4 v=86
114492 On ch=1 n=a#4 v=0
114711 On ch=1 n=e5 v=75
114955 On ch=1 n=f#4 v=68
114972 On ch=1 n=e5 v=0
114991 On ch=1 n=f4 v=0
115191 On ch=1 n=g#4 v=88
115218 On ch=1 n=f#4 v=0
115435 On ch=1 n=e5 v=74
115680 On ch=1 n=b4 v=65
115696 On ch=1 n=e5 v=0
115725 On ch=1 n=g#4 v=0
115906 On ch=1 n=a#4 v=79
115941 On ch=1 n=b4 v=0
116151 On ch=1 n=e5 v=68
116395 On ch=1 n=c#5 v=56
116412 On ch=1 n=e5 v=0
116422 On ch=1 n=a#4 v=0
116631 On ch=1 n=a#4 v=88
116656 On ch=1 n=c#5 v=0
116866 On ch=1 n=g#5 v=75
117111 On ch=1 n=e5 v=62
117127 On ch=1 n=g#5 v=0
117129 On ch=1 n=a#4 v=0
117355 On ch=1 n=b4 v=84
117372 On ch=1 n=e5 v=0
117591 On ch=1 n=g#5 v=69
117835 On ch=1 n=e5 v=98
117852 On ch=1 n=g#5 v=0
117853 On ch=1 n=b4 v=0
118043 On ch=1 n=e5 v=0
118071 On ch=1 n=g#5 v=109
118071 On ch=1 n=e5 v=109
118071 On ch=1 n=c#5 v=109
118252 On ch=1 n=e5 v=0
118261 On ch=1 n=c#5 v=0
118315 On ch=1 n=g#5 v=0
118315 On ch=1 n=f#5 v=92
118315 On ch=1 n=e5 v=92
118315 On ch=1 n=f#4 v=92
118551 On ch=1 n=e5 v=0
118560 On ch=1 n=f#4 v=0
118560 On ch=1 n=f#5 v=0
119511 On ch=1 n=b4 v=77
119755 On ch=1 n=b5 v=66
120000 On ch=1 n=b4 v=0
120000 On ch=1 n=d#5 v=56
120016 On ch=1 n=b5 v=0
120226 On ch=1 n=g#4 v=84
120261 On ch=1 n=d#5 v=0
120471 On ch=1 n=b5 v=74
120724 On ch=1 n=d#5 v=64
120732 On ch=1 n=b5 v=0
120733 On ch=1 n=g#4 v=0
120960 On ch=1 n=c#5 v=84
120985 On ch=1 n=d#5 v=0
121195 On ch=1 n=g#5 v=75
121431 On ch=1 n=e5 v=65
121456 On ch=1 n=g#5 v=0
121566 On ch=1 n=c#5 v=0
121675 On ch=1 n=f#4 v=82
121692 On ch=1 n=e5 v=0
121920 On ch=1 n=a#5 v=72
122155 On ch=1 n=e5 v=62
122181 On ch=1 n=a#5 v=0
122200 On ch=1 n=f#4 v=0
122391 On ch=1 n=b4 v=83
122416 On ch=1 n=e5 v=0
122635 On ch=1 n=b5 v=75
122880 On ch=1 n=b4 v=0
122880 On ch=1 n=d#5 v=67
122896 On ch=1 n=b5 v=0
123106 On ch=1 n=g#4 v=86
123141 On ch=1 n=d#5 v=0
123351 On ch=1 n=b5 v=75
123604 On ch=1 n=d#5 v=63
123612 On ch=1 n=b5 v=0
123613 On ch=1 n=g#4 v=0
123840 On ch=1 n=c#5 v=84
123865 On ch=1 n=d#5 v=0
124075 On ch=1 n=g#5 v=72
124311 On ch=1 n=e5 v=59
124336 On ch=1 n=g#5 v=0
124446 On ch=1 n=c#5 v=0
124555 On ch=1 n=f#4 v=80
124572 On ch=1 n=e5 v=0
124800 On ch=1 n=a#5 v=66
125035 On ch=1 n=e5 v=62
125061 On ch=1 n=a#5 v=0
125080 On ch=1 n=f#4 v=0
125271 On ch=1 n=b4 v=98
125296 On ch=1 n=e5 v=0
125506 On ch=1 n=b5 v=79
125760 On ch=1 n=d#5 v=82
125767 On ch=1 n=b5 v=0
125805 On ch=1 n=b4 v=0
125995 On ch=1 n=c5 v=106
126021 On ch=1 n=d#5 v=0
126231 On ch=1 n=a5 v=88
126475 On ch=1 n=d5 v=88
126475 On ch=1 n=d5 v=92
126492 On ch=1 n=a5 v=0
126520 On ch=1 n=c5 v=0
126711 On ch=1 n=c5 v=115
126736 On ch=1 n=d5 v=0
126736 On ch=1 n=d5 v=0
126955 On ch=1 n=a5 v=102
127200 On ch=1 n=d#5 v=106
127216 On ch=1 n=a5 v=0
127263 On ch=1 n=c5 v=0
127435 On ch=1 n=b4 v=119
127461 On ch=1 n=d#5 v=0
127671 On ch=1 n=a5 v=105
127915 On ch=1 n=d#5 v=98
127942 On ch=1 n=b4 v=0
128151 On ch=1 n=b4 v=127
128176 On ch=1 n=d#5 v=0
128631 On ch=1 n=a5 v=0
128676 On ch=1 n=b4 v=0
131031 On ch=1 n=b2 v=114
131223 On ch=1 n=b2 v=0
131275 On ch=1 n=c3 v=115
131467 On ch=1 n=c3 v=0
131511 On ch=1 n=c#3 v=117
131703 On ch=1 n=c#3 v=0
131755 On ch=1 n=d3 v=118
131947 On ch=1 n=d3 v=0
132000 On ch=1 n=d#3 v=120
132192 On ch=1 n=d#3 v=0
132235 On ch=1 n=e3 v=121
132427 On ch=1 n=e3 v=0
132471 On ch=1 n=f3 v=123
132651 On ch=1 n=f3 v=0
132706 On ch=1 n=f#3 v=124
132715 On ch=1 n=f#2 v=124
132886 On ch=1 n=f#3 v=0
132895 On ch=1 n=f#2 v=0
132960 On ch=1 n=g3 v=126
132960 On ch=1 n=g2 v=126
133140 On ch=1 n=g2 v=0
133140 On ch=1 n=g3 v=0
133195 On ch=1 n=g#3 v=127
133195 On ch=1 n=g#2 v=127
133375 On ch=1 n=g#2 v=0
133375 On ch=1 n=g#3 v=0
133431 On ch=1 n=a3 v=127
133440 On ch=1 n=a2 v=127
133611 On ch=1 n=a3 v=0
133620 On ch=1 n=a2 v=0
133675 On ch=1 n=a#3 v=124
133684 On ch=1 n=a#2 v=124
133855 On ch=1 n=a#3 v=0
133864 On ch=1 n=a#2 v=0
133911 On ch=1 n=b2 v=126
133920 On ch=1 n=b3 v=126
134091 On ch=1 n=b2 v=0
134100 On ch=1 n=b3 v=0
134146 On ch=1 n=c3 v=127
134155 On ch=1 n=c4 v=127
134326 On ch=1 n=c3 v=0
134335 On ch=1 n=c4 v=0
134400 On ch=1 n=b3 v=127
134400 On ch=1 n=b2 v=127
134580 On ch=1 n=b2 v=0
134580 On ch=1 n=b3 v=0
134635 On ch=1 n=f#3 v=127
134635 On ch=1 n=f#4 v=127
135142 On ch=1 n=f#4 v=0
135169 On ch=1 n=f#3 v=0
136791 On ch=1 n=b2 v=126
136971 On ch=1 n=b2 v=0
137388 On ch=1 n=c3 v=127
137515 On ch=1 n=b2 v=127
137516 On ch=1 n=c3 v=0
137643 On ch=1 n=b2 v=0
138113 On ch=1 n=c3 v=127
138231 On ch=1 n=b2 v=127
138241 On ch=1 n=c3 v=0
138359 On ch=1 n=b2 v=0
138837 On ch=1 n=c3 v=127
138955 On ch=1 n=b2 v=127
138965 On ch=1 n=c3 v=0
139083 On ch=1 n=b2 v=0
139544 On ch=1 n=c3 v=126
139671 On ch=1 n=b2 v=127
139672 On ch=1 n=c3 v=0
139799 On ch=1 n=b2 v=0
140033 On ch=1 n=c4 v=118
140268 On ch=1 n=b3 v=119
140295 On ch=1 n=c4 v=0
140440 On ch=1 n=b3 v=0
140875 On ch=1 n=f#4 v=124
141120 On ch=1 n=b3 v=126
141174 On ch=1 n=f#4 v=0
141319 On ch=1 n=b3 v=0
141591 On ch=1 n=c4 v=123
141600 On ch=1 n=c5 v=123
141835 On ch=1 n=b2 v=118
141844 On ch=1 n=c5 v=0
141853 On ch=1 n=c4 v=0
142016 On ch=1 n=b2 v=0
142016 On ch=1 n=f#3 v=89
142197 On ch=1 n=b3 v=101
142215 On ch=1 n=f#3 v=0
142378 On ch=1 n=b3 v=0
142378 On ch=1 n=f#3 v=86
142551 On ch=1 n=f#3 v=0
142551 On ch=1 n=e3 v=94
142551 Par ch=1 c=64 v=127
142732 On ch=1 n=b3 v=93
142741 On ch=1 n=e3 v=0
142913 On ch=1 n=e4 v=93
142922 On ch=1 n=b3 v=0
143094 On ch=1 n=b3 v=93
143112 On ch=1 n=e4 v=0
143176 Par ch=1 c=64 v=0
143275 On ch=1 n=b3 v=0
143275 On ch=1 n=a3 v=118
143275 Par ch=1 c=64 v=127
143456 On ch=1 n=c4 v=93
143474 On ch=1 n=a3 v=0
143637 On ch=1 n=e4 v=93
143646 On ch=1 n=c4 v=0
143818 On ch=1 n=c4 v=93
143827 On ch=1 n=e4 v=0
143896 Par ch=1 c=64 v=0
143991 On ch=1 n=e3 v=115
143991 Par ch=1 c=64 v=127
144018 On ch=1 n=c4 v=0
144172 On ch=1 n=b3 v=91
144181 On ch=1 n=e3 v=0
144353 On ch=1 n=e4 v=91
144362 On ch=1 n=b3 v=0
144534 On ch=1 n=b3 v=92
144552 On ch=1 n=e4 v=0
144616 Par ch=1 c=64 v=0
144715 On ch=1 n=b3 v=0
144715 On ch=1 n=a3 v=121
144715 Par ch=1 c=64 v=127
144896 On ch=1 n=c4 v=93
144914 On ch=1 n=a3 v=0
145077 On ch=1 n=e4 v=93
145086 On ch=1 n=c4 v=0
145258 On ch=1 n=c4 v=93
145267 On ch=1 n=e4 v=0
145336 Par ch=1 c=64 v=0
145431 On ch=1 n=e3 v=112
145431 Par ch=1 c=64 v=127
145458 On ch=1 n=c4 v=0
145612 On ch=1 n=b3 v=88
145621 On ch=1 n=e3 v=0
145793 On ch=1 n=e4 v=88
145802 On ch=1 n=b3 v=0
145974 On ch=1 n=b3 v=89
145992 On ch=1 n=e4 v=0
146056 Par ch=1 c=64 v=0
146155 On ch=1 n=b3 v=0
146155 On ch=1 n=a3 v=127
146155 Par ch=1 c=64 v=127
146336 On ch=1 n=c4 v=90
146354 On ch=1 n=a3 v=0
146517 On ch=1 n=e4 v=90
146526 On ch=1 n=c4 v=0
146698 On ch=1 n=c4 v=91
146707 On ch=1 n=e4 v=0
146776 Par ch=1 c=64 v=0
146871 On ch=1 n=g3 v=113
146871 Par ch=1 c=64 v=127
146898 On ch=1 n=c4 v=0
147052 On ch=1 n=d4 v=93
147061 On ch=1 n=g3 v=0
147233 On ch=1 n=g4 v=93
147242 On ch=1 n=d4 v=0
147414 On ch=1 n=d4 v=93
147432 On ch=1 n=g4 v=0
147496 Par ch=1 c=64 v=0
147595 On ch=1 n=d4 v=0
147595 On ch=1 n=c4 v=121
147595 Par ch=1 c=64 v=127
147776 On ch=1 n=d#4 v=93
147794 On ch=1 n=c4 v=0
147957 On ch=1 n=g4 v=93
147966 On ch=1 n=d#4 v=0
148138 On ch=1 n=d#4 v=93
148147 On ch=1 n=g4 v=0
148216 Par ch=1 c=64 v=0
148311 Par ch=1 c=64 v=127
148311 On ch=1 n=g3 v=111
148338 On ch=1 n=d#4 v=0
148492 On ch=1 n=d4 v=97
148501 On ch=1 n=g3 v=0
148673 On ch=1 n=g4 v=97
148682 On ch=1 n=d4 v=0
148854 On ch=1 n=d4 v=97
148872 On ch=1 n=g4 v=0
148936 Par ch=1 c=64 v=0
149035 On ch=1 n=d4 v=0
149035 Par ch=1 c=64 v=127
149035 On ch=1 n=c4 v=120
149216 On ch=1 n=d#4 v=93
149234 On ch=1 n=c4 v=0
149397 On ch=1 n=g4 v=93
149406 On ch=1 n=d#4 v=0
149578 On ch=1 n=d#4 v=93
149587 On ch=1 n=g4 v=0
149656 Par ch=1 c=64 v=0
149751 On ch=1 n=g3 v=114
149751 Par ch=1 c=64 v=127
149778 On ch=1 n=d#4 v=0
149932 On ch=1 n=d4 v=93
149941 On ch=1 n=g3 v=0
150113 On ch=1 n=g4 v=93
150122 On ch=1 n=d4 v=0
150294 On ch=1 n=d4 v=93
150312 On ch=1 n=g4 v=0
150376 Par ch=1 c=64 v=0
150475 On ch=1 n=d4 v=0
150475 Par ch=1 c=64 v=127
150475 On ch=1 n=c4 v=120
150656 On ch=1 n=d#4 v=93
150674 On ch=1 n=c4 v=0
150837 On ch=1 n=g4 v=93
150846 On ch=1 n=d#4 v=0
151018 On ch=1 n=d#4 v=93
151027 On ch=1 n=g4 v=0
151096 Par ch=1 c=64 v=0
151191 On ch=1 n=g3 v=113
151191 Par ch=1 c=64 v=127
151218 On ch=1 n=d#4 v=0
151372 On ch=1 n=d4 v=93
151381 On ch=1 n=g3 v=0
151553 On ch=1 n=g4 v=93
151562 On ch=1 n=d4 v=0
151734 On ch=1 n=d4 v=93
151752 On ch=1 n=g4 v=0
151816 Par ch=1 c=64 v=0
151915 On ch=1 n=d4 v=0
151915 Par ch=1 c=64 v=127
151915 On ch=1 n=c4 v=123
152096 On ch=1 n=e4 v=93
152114 On ch=1 n=c4 v=0
152277 On ch=1 n=g4 v=93
152286 On ch=1 n=e4 v=0
152458 On ch=1 n=e4 v=96
152467 On ch=1 n=g4 v=0
152536 Par ch=1 c=64 v=0
152631 Par ch=1 c=64 v=127
152631 On ch=1 n=b3 v=114
152658 On ch=1 n=e4 v=0
152812 On ch=1 n=f#4 v=94
152821 On ch=1 n=b3 v=0
152993 On ch=1 n=b4 v=94
153002 On ch=1 n=f#4 v=0
153174 On ch=1 n=f#4 v=95
153192 On ch=1 n=b4 v=0
153256 Par ch=1 c=64 v=0
153355 On ch=1 n=f#4 v=0
153355 Par ch=1 c=64 v=127
153355 On ch=1 n=e4 v=96
153536 On ch=1 n=g4 v=97
153554 On ch=1 n=e4 v=0
153717 On ch=1 n=b4 v=97
153726 On ch=1 n=g4 v=0
153898 On ch=1 n=g4 v=98
153907 On ch=1 n=b4 v=0
153976 Par ch=1 c=64 v=0
154071 On ch=1 n=b3 v=127
154071 Par ch=1 c=64 v=127
154098 On ch=1 n=g4 v=0
154252 On ch=1 n=f#4 v=93
154261 On ch=1 n=b3 v=0
154433 On ch=1 n=b4 v=93
154442 On ch=1 n=f#4 v=0
154614 On ch=1 n=f#4 v=94
154632 On ch=1 n=b4 v=0
154696 Par ch=1 c=64 v=0
154795 On ch=1 n=f#4 v=0
154795 Par ch=1 c=64 v=127
154795 On ch=1 n=e3 v=125
154976 On ch=1 n=g4 v=95
154994 On ch=1 n=e3 v=0
155157 On ch=1 n=b4 v=95
155166 On ch=1 n=g4 v=0
155338 On ch=1 n=g4 v=96
155347 On ch=1 n=b4 v=0
155416 Par ch=1 c=64 v=0
155511 Par ch=1 c=64 v=127
155511 On ch=1 n=a3 v=96
155538 On ch=1 n=g4 v=0
155692 On ch=1 n=e4 v=93
155701 On ch=1 n=a3 v=0
155873 On ch=1 n=a4 v=93
155882 On ch=1 n=e4 v=0
156054 On ch=1 n=e4 v=92
156072 On ch=1 n=a4 v=0
156136 Par ch=1 c=64 v=0
156235 On ch=1 n=e4 v=0
156235 Par ch=1 c=64 v=127
156235 On ch=1 n=d3 v=115
156416 On ch=1 n=d4 v=91
156434 On ch=1 n=d3 v=0
156597 On ch=1 n=a4 v=91
156606 On ch=1 n=d4 v=0
156778 On ch=1 n=d4 v=90
156787 On ch=1 n=a4 v=0
156856 Par ch=1 c=64 v=0
156951 On ch=1 n=g3 v=115
156951 Par ch=1 c=64 v=127
156978 On ch=1 n=d4 v=0
157132 On ch=1 n=d4 v=91
157141 On ch=1 n=g3 v=0
157313 On ch=1 n=g4 v=91
157322 On ch=1 n=d4 v=0
157494 On ch=1 n=d4 v=91
157512 On ch=1 n=g4 v=0
157576 Par ch=1 c=64 v=0
157675 On ch=1 n=d4 v=0
157675 Par ch=1 c=64 v=127
157675 On ch=1 n=c#3 v=117
157856 On ch=1 n=c#4 v=92
157874 On ch=1 n=c#3 v=0
158037 On ch=1 n=f#4 v=92
158046 On ch=1 n=c#4 v=0
158218 On ch=1 n=c3 v=92
158227 On ch=1 n=f#4 v=0
158296 Par ch=1 c=64 v=0
158391 On ch=1 n=b2 v=110
158391 Par ch=1 c=64 v=127
158418 On ch=1 n=c3 v=0
158572 On ch=1 n=f#3 v=92
158581 On ch=1 n=b2 v=0
158753 On ch=1 n=b3 v=92
158762 On ch=1 n=f#3 v=0
158934 On ch=1 n=f#3 v=93
158952 On ch=1 n=b3 v=0
159016 Par ch=1 c=64 v=0
159115 On ch=1 n=f#3 v=0
159115 Par ch=1 c=64 v=127
159115 On ch=1 n=e3 v=127
159296 On ch=1 n=b3 v=93
159314 On ch=1 n=e3 v=0
159477 On ch=1 n=e4 v=93
159486 On ch=1 n=b3 v=0
159658 On ch=1 n=b3 v=93
159667 On ch=1 n=e4 v=0
159736 Par ch=1 c=64 v=0
159831 Par ch=1 c=64 v=127
159831 On ch=1 n=d#3 v=121
159858 On ch=1 n=b3 v=0
160012 On ch=1 n=b3 v=87
160021 On ch=1 n=d#3 v=0
160193 On ch=1 n=f#4 v=87
160202 On ch=1 n=b3 v=0
160374 On ch=1 n=b3 v=87
160392 On ch=1 n=f#4 v=0
160456 Par ch=1 c=64 v=0
160555 On ch=1 n=b3 v=0
160555 Par ch=1 c=64 v=127
160555 On ch=1 n=e3 v=118
160736 On ch=1 n=b3 v=87
160754 On ch=1 n=e3 v=0
160917 On ch=1 n=e4 v=87
160926 On ch=1 n=b3 v=0
161098 On ch=1 n=b3 v=87
161107 On ch=1 n=e4 v=0
161176 Par ch=1 c=64 v=0
161271 On ch=1 n=e3 v=118
161271 Par ch=1 c=64 v=127
161298 On ch=1 n=b3 v=0
161452 On ch=1 n=b3 v=87
161461 On ch=1 n=e3 v=0
161633 On ch=1 n=d#4 v=87
161642 On ch=1 n=b3 v=0
161814 On ch=1 n=b3 v=88
161832 On ch=1 n=d#4 v=0
161896 Par ch=1 c=64 v=0
161995 On ch=1 n=b3 v=0
161995 On ch=1 n=e3 v=124
161995 Par ch=1 c=64 v=127
162176 On ch=1 n=b3 v=88
162194 On ch=1 n=e3 v=0
162357 On ch=1 n=e4 v=88
162366 On ch=1 n=b3 v=0
162538 On ch=1 n=b3 v=88
162547 On ch=1 n=e4 v=0
162616 Par ch=1 c=64 v=0
162711 On ch=1 n=e3 v=121
162711 Par ch=1 c=64 v=127
162738 On ch=1 n=b3 v=0
162892 On ch=1 n=b3 v=88
162901 On ch=1 n=e3 v=0
163073 On ch=1 n=d#4 v=88
163082 On ch=1 n=b3 v=0
163254 On ch=1 n=b3 v=88
163272 On ch=1 n=d#4 v=0
163336 Par ch=1 c=64 v=0
163435 On ch=1 n=b3 v=0
163435 On ch=1 n=e3 v=122
163435 Par ch=1 c=64 v=127
163616 On ch=1 n=b3 v=88
163634 On ch=1 n=e3 v=0
163797 On ch=1 n=e4 v=88
163806 On ch=1 n=b3 v=0
163978 On ch=1 n=b3 v=88
163987 On ch=1 n=e4 v=0
164056 Par ch=1 c=64 v=0
164151 Par ch=1 c=64 v=127
164151 On ch=1 n=d#3 v=123
164178 On ch=1 n=b3 v=0
164332 On ch=1 n=b3 v=88
164341 On ch=1 n=d#3 v=0
164513 On ch=1 n=f#4 v=88
164522 On ch=1 n=b3 v=0
164694 On ch=1 n=b3 v=88
164712 On ch=1 n=f#4 v=0
164776 Par ch=1 c=64 v=0
164875 On ch=1 n=b3 v=0
164875 Par ch=1 c=64 v=127
164875 On ch=1 n=d3 v=119
165056 On ch=1 n=g#3 v=88
165074 On ch=1 n=d3 v=0
165237 On ch=1 n=f4 v=89
165246 On ch=1 n=g#3 v=0
165418 On ch=1 n=g#3 v=90
165427 On ch=1 n=f4 v=0
165496 Par ch=1 c=64 v=0
165591 Par ch=1 c=64 v=127
165591 On ch=1 n=c#3 v=116
165618 On ch=1 n=g#3 v=0
165772 On ch=1 n=e3 v=82
165781 On ch=1 n=c#3 v=0
165953 On ch=1 n=e4 v=82
165962 On ch=1 n=e3 v=0
166134 On ch=1 n=e3 v=82
166152 On ch=1 n=e4 v=0
166216 Par ch=1 c=64 v=0
166315 On ch=1 n=e3 v=0
166315 Par ch=1 c=64 v=127
166315 On ch=1 n=c3 v=117
166496 On ch=1 n=e3 v=82
166514 On ch=1 n=c3 v=0
166677 On ch=1 n=e4 v=83
166686 On ch=1 n=e3 v=0
166858 On ch=1 n=e3 v=83
166867 On ch=1 n=e4 v=0
166936 Par ch=1 c=64 v=0
167031 Par ch=1 c=64 v=127
167031 On ch=1 n=b2 v=83
167058 On ch=1 n=e3 v=0
167212 On ch=1 n=e3 v=83
167221 On ch=1 n=b2 v=0
167393 On ch=1 n=e4 v=83
167402 On ch=1 n=e3 v=0
167574 On ch=1 n=e3 v=83
167592 On ch=1 n=e4 v=0
167656 Par ch=1 c=64 v=0
167755 On ch=1 n=e3 v=0
167755 Par ch=1 c=64 v=127
167755 On ch=1 n=a#2 v=127
167936 On ch=1 n=e3 v=90
167954 On ch=1 n=a#2 v=0
168117 On ch=1 n=c4 v=90
168126 On ch=1 n=e3 v=0
168298 On ch=1 n=e3 v=90
168307 On ch=1 n=c4 v=0
168376 Par ch=1 c=64 v=0
168471 Par ch=1 c=64 v=127
168471 On ch=1 n=a2 v=123
168498 On ch=1 n=e3 v=0
168652 On ch=1 n=f3 v=76
168661 On ch=1 n=a2 v=0
168833 On ch=1 n=c4 v=79
168842 On ch=1 n=f3 v=0
169014 On ch=1 n=f3 v=83
169032 On ch=1 n=c4 v=0
169096 Par ch=1 c=64 v=0
169195 On ch=1 n=f3 v=0
169195 Par ch=1 c=64 v=127
169195 On ch=1 n=b2 v=86
169376 On ch=1 n=f#3 v=89
169394 On ch=1 n=b2 v=0
169557 On ch=1 n=b3 v=93
169566 On ch=1 n=f#3 v=0
169738 On ch=1 n=f#3 v=96
169747 On ch=1 n=b3 v=0
169816 Par ch=1 c=64 v=0
169911 Par ch=1 c=64 v=127
169911 On ch=1 n=g2 v=99
169938 On ch=1 n=f#3 v=0
170155 On ch=1 n=g4 v=87
170164 On ch=1 n=g2 v=0
170400 On ch=1 n=b3 v=103
170411 On ch=1 n=g4 v=0
170536 Par ch=1 c=64 v=0
170635 Par ch=1 c=64 v=127
170635 On ch=1 n=e3 v=101
170656 On ch=1 n=b3 v=0
170816 On ch=1 n=c4 v=88
170834 On ch=1 n=e3 v=0
170997 On ch=1 n=a4 v=88
171006 On ch=1 n=c4 v=0
171178 On ch=1 n=c4 v=88
171187 On ch=1 n=a4 v=0
171256 Par ch=1 c=64 v=0
171351 Par ch=1 c=64 v=127
171351 On ch=1 n=e3 v=100
171378 On ch=1 n=c4 v=0
171532 On ch=1 n=b3 v=88
171541 On ch=1 n=e3 v=0
171713 On ch=1 n=g4 v=85
171722 On ch=1 n=b3 v=0
171894 On ch=1 n=b3 v=82
171912 On ch=1 n=g4 v=0
171976 Par ch=1 c=64 v=0
172075 On ch=1 n=b3 v=0
172075 Par ch=1 c=64 v=127
172075 On ch=1 n=e3 v=104
172256 On ch=1 n=c4 v=87
172274 On ch=1 n=e3 v=0
172437 On ch=1 n=a4 v=80
172446 On ch=1 n=c4 v=0
172618 On ch=1 n=c4 v=74
172627 On ch=1 n=a4 v=0
172696 Par ch=1 c=64 v=0
172791 Par ch=1 c=64 v=127
172791 On ch=1 n=e3 v=100
172818 On ch=1 n=c4 v=0
172972 On ch=1 n=b3 v=82
172981 On ch=1 n=e3 v=0
173153 On ch=1 n=g4 v=79
173162 On ch=1 n=b3 v=0
173334 On ch=1 n=b3 v=76
173352 On ch=1 n=g4 v=0
173416 Par ch=1 c=64 v=0
173515 On ch=1 n=b3 v=0
173515 Par ch=1 c=64 v=127
173515 On ch=1 n=a3 v=97
173696 On ch=1 n=c4 v=82
173714 On ch=1 n=a3 v=0
173877 On ch=1 n=c5 v=79
173886 On ch=1 n=c4 v=0
174058 On ch=1 n=c4 v=65
174058 On ch=1 n=c4 v=77
174067 On ch=1 n=c5 v=0
174136 Par ch=1 c=64 v=0
174231 Par ch=1 c=64 v=127
174231 On ch=1 n=g3 v=100
174258 On ch=1 n=c4 v=0
174258 On ch=1 n=c4 v=0
174412 On ch=1 n=d4 v=79
174421 On ch=1 n=g3 v=0
174593 On ch=1 n=b4 v=76
174602 On ch=1 n=d4 v=0
174774 On ch=1 n=d4 v=74
174792 On ch=1 n=b4 v=0
174856 Par ch=1 c=64 v=0
174955 On ch=1 n=d4 v=0
174955 Par ch=1 c=64 v=127
174955 On ch=1 n=c4 v=97
175136 On ch=1 n=d#4 v=85
175154 On ch=1 n=c4 v=0
175317 On ch=1 n=c5 v=82
175326 On ch=1 n=d#4 v=0
175498 On ch=1 n=d#4 v=79
175507 On ch=1 n=c5 v=0
175576 Par ch=1 c=64 v=0
175671 Par ch=1 c=64 v=127
175671 On ch=1 n=g3 v=100
175698 On ch=1 n=d#4 v=0
175852 On ch=1 n=d4 v=84
175861 On ch=1 n=g3 v=0
176033 On ch=1 n=b4 v=81
176042 On ch=1 n=d4 v=0
176214 On ch=1 n=d4 v=79
176232 On ch=1 n=b4 v=0
176296 Par ch=1 c=64 v=0
176395 On ch=1 n=d4 v=0
176395 On ch=1 n=g3 v=99
176395 Par ch=1 c=64 v=127
176576 On ch=1 n=d#4 v=85
176594 On ch=1 n=g3 v=0
176757 On ch=1 n=c5 v=81
176766 On ch=1 n=d#4 v=0
176938 On ch=1 n=d#4 v=77
176947 On ch=1 n=c5 v=0
177016 Par ch=1 c=64 v=0
177111 Par ch=1 c=64 v=127
177111 On ch=1 n=g3 v=100
177138 On ch=1 n=d#4 v=0
177292 On ch=1 n=d4 v=88
177301 On ch=1 n=g3 v=0
177473 On ch=1 n=b4 v=88
177482 On ch=1 n=d4 v=0
177654 On ch=1 n=d4 v=88
177672 On ch=1 n=b4 v=0
177736 Par ch=1 c=64 v=0
177835 On ch=1 n=d4 v=0
177835 Par ch=1 c=64 v=127
177835 On ch=1 n=g3 v=108
178016 On ch=1 n=d#4 v=89
178034 On ch=1 n=g3 v=0
178197 On ch=1 n=c5 v=90
178206 On ch=1 n=d#4 v=0
178378 On ch=1 n=d#4 v=90
178387 On ch=1 n=c5 v=0
178456 Par ch=1 c=64 v=0
178551 Par ch=1 c=64 v=127
178551 On ch=1 n=g3 v=100
178578 On ch=1 n=d#4 v=0
178732 On ch=1 n=d4 v=79
178741 On ch=1 n=g3 v=0
178913 On ch=1 n=b4 v=73
178922 On ch=1 n=d4 v=0
179094 On ch=1 n=d4 v=66
179112 On ch=1 n=b4 v=0
179176 Par ch=1 c=64 v=0
179275 On ch=1 n=d4 v=0
179275 Par ch=1 c=64 v=127
179275 On ch=1 n=c4 v=85
179456 On ch=1 n=e4 v=77
179474 On ch=1 n=c4 v=0
179637 On ch=1 n=e5 v=69
179646 On ch=1 n=e4 v=0
179818 On ch=1 n=e4 v=60
179827 On ch=1 n=e5 v=0
179896 Par ch=1 c=64 v=0
179991 Par ch=1 c=64 v=127
179991 On ch=1 n=b3 v=100
180018 On ch=1 n=e4 v=0
180172 On ch=1 n=f#4 v=79
180181 On ch=1 n=b3 v=0
180353 On ch=1 n=d#5 v=74
180362 On ch=1 n=f#4 v=0
180534 On ch=1 n=f#4 v=68
180552 On ch=1 n=d#5 v=0
180616 Par ch=1 c=64 v=0
180715 On ch=1 n=f#4 v=0
180715 Par ch=1 c=64 v=127
180715 On ch=1 n=e4 v=83
180896 On ch=1 n=g4 v=75
180914 On ch=1 n=e4 v=0
181077 On ch=1 n=g5 v=69
181086 On ch=1 n=g4 v=0
181258 On ch=1 n=g4 v=61
181267 On ch=1 n=g5 v=0
181336 Par ch=1 c=64 v=0
181431 Par ch=1 c=64 v=127
181431 On ch=1 n=d#4 v=100
181458 On ch=1 n=g4 v=0
181612 On ch=1 n=b4 v=72
181621 On ch=1 n=d#4 v=0
181793 On ch=1 n=f#5 v=65
181802 On ch=1 n=b4 v=0
181974 On ch=1 n=b4 v=59
181992 On ch=1 n=f#5 v=0
182056 Par ch=1 c=64 v=0
182155 On ch=1 n=b4 v=0
182155 Par ch=1 c=64 v=127
182155 On ch=1 n=d4 v=78
182336 On ch=1 n=e4 v=71
182354 On ch=1 n=d4 v=0
182517 On ch=1 n=e5 v=64
182526 On ch=1 n=e4 v=0
182698 On ch=1 n=e4 v=57
182707 On ch=1 n=e5 v=0
182776 Par ch=1 c=64 v=0
182871 Par ch=1 c=64 v=127
182871 On ch=1 n=c#4 v=100
182898 On ch=1 n=e4 v=0
183052 On ch=1 n=e4 v=78
183061 On ch=1 n=c#4 v=0
183233 On ch=1 n=e5 v=77
183242 On ch=1 n=e4 v=0
183414 On ch=1 n=e4 v=75
183432 On ch=1 n=e5 v=0
183496 Par ch=1 c=64 v=0
183595 On ch=1 n=e4 v=0
183595 Par ch=1 c=64 v=127
183595 On ch=1 n=c4 v=97
183776 On ch=1 n=f#4 v=85
183794 On ch=1 n=c4 v=0
183957 On ch=1 n=d5 v=84
183966 On ch=1 n=f#4 v=0
184138 On ch=1 n=f#4 v=83
184147 On ch=1 n=d5 v=0
184216 Par ch=1 c=64 v=0
184311 Par ch=1 c=64 v=127
184311 On ch=1 n=b3 v=100
184338 On ch=1 n=f#4 v=0
184492 On ch=1 n=g4 v=74
184501 On ch=1 n=b3 v=0
184673 On ch=1 n=d5 v=74
184682 On ch=1 n=g4 v=0
184854 On ch=1 n=g4 v=73
184872 On ch=1 n=d5 v=0
184936 Par ch=1 c=64 v=0
185035 On ch=1 n=g4 v=0
185035 Par ch=1 c=64 v=127
185035 On ch=1 n=b3 v=97
185216 On ch=1 n=g4 v=75
185234 On ch=1 n=b3 v=0
185397 On ch=1 n=c#5 v=75
185406 On ch=1 n=g4 v=0
185578 On ch=1 n=a#3 v=75
185587 On ch=1 n=c#5 v=0
185656 Par ch=1 c=64 v=0
185751 Par ch=1 c=64 v=127
185751 On ch=1 n=a3 v=100
185778 On ch=1 n=a#3 v=0
185932 On ch=1 n=f#4 v=82
185941 On ch=1 n=a3 v=0
186113 On ch=1 n=b4 v=82
186122 On ch=1 n=f#4 v=0
186294 On ch=1 n=f#4 v=82
186312 On ch=1 n=b4 v=0
186376 Par ch=1 c=64 v=0
186475 On ch=1 n=f#4 v=0
186475 Par ch=1 c=64 v=127
186475 On ch=1 n=g3 v=109
186656 On ch=1 n=e4 v=78
186674 On ch=1 n=g3 v=0
186837 On ch=1 n=b4 v=72
186846 On ch=1 n=e4 v=0
187018 On ch=1 n=e4 v=66
187027 On ch=1 n=b4 v=0
187096 Par ch=1 c=64 v=0
187191 Par ch=1 c=64 v=127
187191 On ch=1 n=d#3 v=100
187218 On ch=1 n=e4 v=0
187372 On ch=1 n=b3 v=84
187381 On ch=1 n=d#3 v=0
187553 On ch=1 n=a4 v=78
187562 On ch=1 n=b3 v=0
187734 On ch=1 n=b3 v=73
187752 On ch=1 n=a4 v=0
187816 Par ch=1 c=64 v=0
187915 On ch=1 n=b3 v=0
187915 Par ch=1 c=64 v=127
187915 On ch=1 n=e3 v=84
188096 On ch=1 n=b3 v=68
188114 On ch=1 n=e3 v=0
188277 On ch=1 n=g4 v=75
188286 On ch=1 n=b3 v=0
188458 On ch=1 n=b3 v=82
188467 On ch=1 n=g4 v=0
188536 Par ch=1 c=64 v=0
188631 Par ch=1 c=64 v=127
188631 On ch=1 n=d3 v=100
188658 On ch=1 n=b3 v=0
188812 On ch=1 n=g#3 v=64
188821 On ch=1 n=d3 v=0
188993 On ch=1 n=f4 v=70
189002 On ch=1 n=g#3 v=0
189174 On ch=1 n=g#3 v=77
189192 On ch=1 n=f4 v=0
189256 Par ch=1 c=64 v=0
189355 On ch=1 n=g#3 v=0
189355 Par ch=1 c=64 v=127
189355 On ch=1 n=c#3 v=87
189536 On ch=1 n=a3 v=72
189554 On ch=1 n=c#3 v=0
189717 On ch=1 n=e4 v=77
189726 On ch=1 n=a3 v=0
189898 On ch=1 n=a3 v=82
189907 On ch=1 n=e4 v=0
189976 Par ch=1 c=64 v=0
190071 Par ch=1 c=64 v=127
190071 On ch=1 n=b2 v=100
190098 On ch=1 n=a3 v=0
190252 On ch=1 n=e3 v=70
190261 On ch=1 n=b2 v=0
190433 On ch=1 n=e4 v=79
190442 On ch=1 n=e3 v=0
190614 On ch=1 n=e3 v=87
190632 On ch=1 n=e4 v=0
190696 Par ch=1 c=64 v=0
190795 On ch=1 n=e3 v=0
190795 Par ch=1 c=64 v=127
190795 On ch=1 n=a2 v=98
190976 On ch=1 n=e3 v=70
190994 On ch=1 n=a2 v=0
191157 On ch=1 n=e4 v=62
191166 On ch=1 n=e3 v=0
191338 On ch=1 n=e3 v=54
191347 On ch=1 n=e4 v=0
191416 Par ch=1 c=64 v=0
191511 Par ch=1 c=64 v=127
191511 On ch=1 n=a2 v=100
191538 On ch=1 n=e3 v=0
191692 On ch=1 n=a3 v=79
191701 On ch=1 n=a2 v=0
191873 On ch=1 n=c4 v=79
191882 On ch=1 n=a3 v=0
192054 On ch=1 n=f#4 v=78
192072 On ch=1 n=c4 v=0
192136 Par ch=1 c=64 v=0
192235 On ch=1 n=f#4 v=0
192235 Par ch=1 c=64 v=127
192235 On ch=1 n=a3 v=80
192416 On ch=1 n=d#4 v=79
192434 On ch=1 n=a3 v=0
192597 On ch=1 n=c5 v=79
192606 On ch=1 n=d#4 v=0
192778 On ch=1 n=d#4 v=80
192787 On ch=1 n=c5 v=0
192856 Par ch=1 c=64 v=0
192951 Par ch=1 c=64 v=127
192951 On ch=1 n=g3 v=100
192978 On ch=1 n=d#4 v=0
193132 On ch=1 n=d#4 v=79
193141 On ch=1 n=g3 v=0
193313 On ch=1 n=c5 v=79
193322 On ch=1 n=d#4 v=0
193494 On ch=1 n=d#4 v=81
193512 On ch=1 n=c5 v=0
193576 Par ch=1 c=64 v=0
193675 On ch=1 n=d#4 v=0
193675 Par ch=1 c=64 v=127
193675 On ch=1 n=g3 v=85
193856 On ch=1 n=e4 v=86
193874 On ch=1 n=g3 v=0
194037 On ch=1 n=b4 v=87
194046 On ch=1 n=e4 v=0
194218 On ch=1 n=e4 v=88
194227 On ch=1 n=b4 v=0
194296 Par ch=1 c=64 v=0
194391 Par ch=1 c=64 v=127
194391 On ch=1 n=f#3 v=100
194418 On ch=1 n=e4 v=0
194572 On ch=1 n=f#4 v=77
194581 On ch=1 n=f#3 v=0
194753 On ch=1 n=c#5 v=74
194762 On ch=1 n=f#4 v=0
194934 On ch=1 n=f#4 v=71
194952 On ch=1 n=c#5 v=0
195016 Par ch=1 c=64 v=0
195115 On ch=1 n=f#4 v=0
195115 Par ch=1 c=64 v=127
195115 On ch=1 n=b3 v=83
195296 On ch=1 n=f#4 v=79
195314 On ch=1 n=b3 v=0
195477 On ch=1 n=d#5 v=74
195486 On ch=1 n=f#4 v=0
195658 On ch=1 n=f#4 v=70
195667 On ch=1 n=d#5 v=0
195736 Par ch=1 c=64 v=0
195831 Par ch=1 c=64 v=127
195831 On ch=1 n=e4 v=100
195858 On ch=1 n=f#4 v=0
196012 On ch=1 n=g4 v=78
196021 On ch=1 n=e4 v=0
196193 On ch=1 n=e5 v=69
196202 On ch=1 n=g4 v=0
196374 On ch=1 n=g4 v=59
196392 On ch=1 n=e5 v=0
196456 Par ch=1 c=64 v=0
196555 On ch=1 n=g4 v=0
196555 Par ch=1 c=64 v=127
196555 On ch=1 n=a#3 v=84
196736 On ch=1 n=e4 v=79
196754 On ch=1 n=a#3 v=0
196917 On ch=1 n=c5 v=75
196926 On ch=1 n=e4 v=0
197098 On ch=1 n=e4 v=71
197107 On ch=1 n=c5 v=0
197176 Par ch=1 c=64 v=0
197271 Par ch=1 c=64 v=127
197271 On ch=1 n=a3 v=100
197298 On ch=1 n=e4 v=0
197452 On ch=1 n=d#4 v=76
197461 On ch=1 n=a3 v=0
197633 On ch=1 n=c5 v=70
197642 On ch=1 n=d#4 v=0
197814 On ch=1 n=d#4 v=65
197832 On ch=1 n=c5 v=0
197896 Par ch=1 c=64 v=0
197995 On ch=1 n=d#4 v=0
197995 Par ch=1 c=64 v=127
197995 On ch=1 n=a3 v=84
198176 On ch=1 n=d#4 v=78
198194 On ch=1 n=a3 v=0
198357 On ch=1 n=b4 v=72
198366 On ch=1 n=d#4 v=0
198538 On ch=1 n=d#4 v=65
198547 On ch=1 n=b4 v=0
198616 Par ch=1 c=64 v=0
198711 Par ch=1 c=64 v=127
198711 On ch=1 n=g3 v=100
198738 On ch=1 n=d#4 v=0
198892 On ch=1 n=d#4 v=79
198901 On ch=1 n=g3 v=0
199073 On ch=1 n=f#4 v=81
199082 On ch=1 n=d#4 v=0
199254 On ch=1 n=d#4 v=83
199272 On ch=1 n=f#4 v=0
199336 Par ch=1 c=64 v=0
199435 On ch=1 n=d#4 v=0
199435 Par ch=1 c=64 v=127
199435 On ch=1 n=g3 v=85
199616 On ch=1 n=e4 v=79
199634 On ch=1 n=g3 v=0
199797 On ch=1 n=g4 v=78
199806 On ch=1 n=e4 v=0
199978 On ch=1 n=e4 v=76
199987 On ch=1 n=g4 v=0
200056 Par ch=1 c=64 v=0
200151 Par ch=1 c=64 v=127
200151 On ch=1 n=f#3 v=100
200178 On ch=1 n=e4 v=0
200332 On ch=1 n=c#4 v=80
200341 On ch=1 n=f#3 v=0
200513 On ch=1 n=f#4 v=80
200522 On ch=1 n=c#4 v=0
200694 On ch=1 n=c#4 v=80
200712 On ch=1 n=f#4 v=0
200776 Par ch=1 c=64 v=0
200875 On ch=1 n=c#4 v=0
200875 Par ch=1 c=64 v=127
200875 On ch=1 n=b2 v=82
201056 On ch=1 n=b3 v=76
201074 On ch=1 n=b2 v=0
201237 On ch=1 n=f#4 v=76
201246 On ch=1 n=b3 v=0
201418 On ch=1 n=b3 v=65
201427 On ch=1 n=f#4 v=0
201496 Par ch=1 c=64 v=0
201591 Par ch=1 c=64 v=127
201591 On ch=1 n=e3 v=100
201618 On ch=1 n=b3 v=0
201772 On ch=1 n=b3 v=79
201781 On ch=1 n=e3 v=0
201953 On ch=1 n=e4 v=79
201962 On ch=1 n=b3 v=0
202134 On ch=1 n=b3 v=79
202152 On ch=1 n=e4 v=0
202216 Par ch=1 c=64 v=0
202315 On ch=1 n=b3 v=0
202315 Par ch=1 c=64 v=127
202315 On ch=1 n=c3 v=84
202496 On ch=1 n=c4 v=79
202514 On ch=1 n=c3 v=0
202677 On ch=1 n=e4 v=79
202686 On ch=1 n=c4 v=0
202858 On ch=1 n=c4 v=79
202867 On ch=1 n=e4 v=0
202936 Par ch=1 c=64 v=0
203031 Par ch=1 c=64 v=127
203031 On ch=1 n=a2 v=100
203058 On ch=1 n=c4 v=0
203212 On ch=1 n=a3 v=81
203221 On ch=1 n=a2 v=0
203393 On ch=1 n=c4 v=73
203402 On ch=1 n=a3 v=0
203574 On ch=1 n=a3 v=64
203592 On ch=1 n=c4 v=0
203656 Par ch=1 c=64 v=0
203755 On ch=1 n=a3 v=0
203755 Par ch=1 c=64 v=127
203755 On ch=1 n=b2 v=84
203936 On ch=1 n=f#3 v=75
203954 On ch=1 n=b2 v=0
204117 On ch=1 n=b3 v=67
204126 On ch=1 n=f#3 v=0
204298 On ch=1 n=f#3 v=59
204307 On ch=1 n=b3 v=0
204376 Par ch=1 c=64 v=0
204443 On ch=1 n=f#3 v=0
204471 Par ch=1 c=64 v=127
204471 On ch=1 n=a#3 v=125
204471 On ch=1 n=a#2 v=125
205168 On ch=1 n=a#3 v=0
205195 On ch=1 n=a#4 v=94
205195 On ch=1 n=a#3 v=94
205231 On ch=1 n=a#2 v=0
205871 Par ch=1 c=64 v=0
205883 On ch=1 n=a#4 v=0
205911 On ch=1 n=c5 v=104
206128 On ch=1 n=a#4 v=85
206155 On ch=1 n=a#4 v=85
206164 On ch=1 n=c5 v=0
206382 On ch=1 n=a#4 v=0
206400 On ch=1 n=g#4 v=106
206409 On ch=1 n=a#4 v=0
206635 On ch=1 n=g#4 v=0
206635 On ch=1 n=g4 v=89
206870 On ch=1 n=g4 v=0
206907 On ch=1 n=a#3 v=0
207115 On ch=1 n=g#3 v=115
207115 On ch=1 n=g#2 v=115
207350 On ch=1 n=g#2 v=0
207350 On ch=1 n=g#3 v=0
207351 On ch=1 n=a#2 v=127
207351 Par ch=1 c=64 v=127
207351 On ch=1 n=a#3 v=127
207758 On ch=1 n=a#2 v=0
207767 On ch=1 n=a#3 v=0
208051 Par ch=1 c=64 v=0
208075 On ch=1 n=g#4 v=64
208075 Par ch=1 c=64 v=127
208075 On ch=1 n=a#4 v=64
208075 On ch=1 n=f4 v=64
208075 On ch=1 n=f4 v=64
208075 On ch=1 n=d5 v=64
208682 On ch=1 n=f4 v=0
208772 On ch=1 n=f4 v=0
208772 On ch=1 n=a#4 v=0
208772 On ch=1 n=g#4 v=0
208791 On ch=1 n=d5 v=0
208791 On ch=1 n=g#4 v=74
208791 On ch=1 n=f4 v=74
208800 On ch=1 n=d#5 v=74
208800 On ch=1 n=a#4 v=74
209488 On ch=1 n=a#4 v=0
209497 On ch=1 n=f4 v=0
209497 On ch=1 n=g#4 v=0
209515 On ch=1 n=g#4 v=85
209515 On ch=1 n=a#4 v=85
209515 On ch=1 n=g5 v=85
209533 On ch=1 n=d#5 v=0
209995 Par ch=1 c=64 v=0
209995 On ch=1 n=f5 v=93
210022 On ch=1 n=g5 v=0
210022 On ch=1 n=a#4 v=0
210040 On ch=1 n=g#4 v=0
210231 On ch=1 n=d#4 v=100
210231 On ch=1 n=a#4 v=100
210258 On ch=1 n=f5 v=0
210955 On ch=1 n=d4 v=76
210955 On ch=1 n=c5 v=76
210982 On ch=1 n=a#4 v=0
211000 On ch=1 n=d#4 v=0
211426 On ch=1 n=d4 v=0
211643 On ch=1 n=c5 v=0
211671 On ch=1 n=d#5 v=97
211671 On ch=1 n=d4 v=97
211915 On ch=1 n=d5 v=88
211969 On ch=1 n=d#5 v=0
212160 On ch=1 n=c5 v=119
212196 On ch=1 n=d5 v=0
212395 On ch=1 n=a#4 v=117
212431 On ch=1 n=c5 v=0
212667 On ch=1 n=a#4 v=0
212667 On ch=1 n=d4 v=0
212875 On ch=1 n=d#4 v=125
212875 On ch=1 n=d#3 v=125
213092 On ch=1 n=d#3 v=0
213092 On ch=1 n=d#4 v=0
213111 On ch=1 n=d3 v=127
213111 On ch=1 n=d4 v=127
213111 Par ch=1 c=64 v=127
213627 On ch=1 n=d4 v=0
213663 On ch=1 n=d3 v=0
213835 On ch=1 n=a4 v=76
213835 On ch=1 n=c5 v=76
213835 On ch=1 n=d5 v=76
213835 On ch=1 n=f#5 v=76
214514 On ch=1 n=c5 v=0
214531 Par ch=1 c=64 v=0
214532 On ch=1 n=d5 v=0
214532 On ch=1 n=a4 v=0
214551 Par ch=1 c=64 v=127
214551 On ch=1 n=a4 v=93
214551 On ch=1 n=d5 v=93
214560 On ch=1 n=c5 v=93
214560 On ch=1 n=g5 v=93
214596 On ch=1 n=f#5 v=0
215184 On ch=1 n=g5 v=0
215230 On ch=1 n=d5 v=0
215239 On ch=1 n=c5 v=0
215251 Par ch=1 c=64 v=0
215275 Par ch=1 c=64 v=127
215275 On ch=1 n=a#5 v=117
215284 On ch=1 n=a4 v=0
215284 On ch=1 n=d5 v=117
215284 On ch=1 n=c5 v=117
215664 On ch=1 n=a#5 v=0
215710 On ch=1 n=c5 v=0
215719 On ch=1 n=d5 v=0
215755 On ch=1 n=a5 v=79
215971 Par ch=1 c=64 v=0
215991 On ch=1 n=a5 v=0
215991 Par ch=1 c=64 v=127
215991 On ch=1 n=g4 v=59
215991 On ch=1 n=d5 v=59
216434 On ch=1 n=g4 v=0
216443 On ch=1 n=d5 v=0
216471 On ch=1 n=g4 v=46
216691 Par ch=1 c=64 v=0
216715 On ch=1 n=f#4 v=55
216742 On ch=1 n=g4 v=0
216951 On ch=1 n=g4 v=48
216960 On ch=1 n=f#4 v=0
217195 On ch=1 n=d#5 v=40
217440 On ch=1 n=d5 v=36
217458 On ch=1 n=d#5 v=0
217720 On ch=1 n=d5 v=0
217892 On ch=1 n=g4 v=0
217911 On ch=1 n=d4 v=32
218155 On ch=1 n=f#3 v=40
218391 On ch=1 n=g3 v=35
218436 On ch=1 n=f#3 v=0
218626 On ch=1 n=d4 v=0
218644 On ch=1 n=d#4 v=30
218880 On ch=1 n=d4 v=28
218925 On ch=1 n=d#4 v=0
219332 On ch=1 n=d4 v=0
219332 On ch=1 n=g3 v=0
219360 On ch=1 n=g#5 v=98
219595 On ch=1 n=g5 v=98
219631 On ch=1 n=g#5 v=0
220039 On ch=1 n=g5 v=0
220084 On ch=1 n=d#5 v=44
220320 On ch=1 n=d5 v=49
220320 On ch=1 n=g4 v=49
220356 On ch=1 n=d#5 v=0
220555 On ch=1 n=d5 v=0
220555 On ch=1 n=d#5 v=37
220800 On ch=1 n=d5 v=51
220809 On ch=1 n=d#5 v=0
221035 On ch=1 n=d#5 v=40
221044 On ch=1 n=d5 v=0
221271 On ch=1 n=d5 v=47
221316 On ch=1 n=d#5 v=0
221515 On ch=1 n=d#5 v=39
221542 On ch=1 n=d5 v=0
221760 On ch=1 n=d5 v=31
221805 On ch=1 n=d#5 v=0
222258 On ch=1 n=d5 v=0
222258 On ch=1 n=g4 v=0
222475 Par ch=1 c=64 v=127
222475 On ch=1 n=c4 v=74
222475 On ch=1 n=a#4 v=74
222475 On ch=1 n=e5 v=74
223154 On ch=1 n=a#4 v=0
223163 On ch=1 n=e5 v=0
223163 On ch=1 n=c4 v=0
223171 Par ch=1 c=64 v=0
223191 Par ch=1 c=64 v=127
223191 On ch=1 n=g#4 v=90
223191 On ch=1 n=f5 v=90
223191 On ch=1 n=f4 v=90
223680 On ch=1 n=f5 v=0
223689 On ch=1 n=g#4 v=0
223698 On ch=1 n=f4 v=0
223891 Par ch=1 c=64 v=0
223915 Par ch=1 c=64 v=127
223915 On ch=1 n=a#3 v=65
223915 On ch=1 n=g#4 v=65
223915 On ch=1 n=d5 v=65
224540 On ch=1 n=d5 v=0
224567 On ch=1 n=g#4 v=0
224585 On ch=1 n=a#3 v=0
224611 Par ch=1 c=64 v=0
224631 Par ch=1 c=64 v=127
224631 On ch=1 n=d#5 v=95
224631 On ch=1 n=g4 v=95
224631 On ch=1 n=d#4 v=95
225292 On ch=1 n=d#4 v=0
225331 Par ch=1 c=64 v=0
225355 Par ch=1 c=64 v=127
225355 On ch=1 n=g#3 v=84
225355 On ch=1 n=d#4 v=84
225355 On ch=1 n=c5 v=100
225391 On ch=1 n=g4 v=0
225391 On ch=1 n=d#5 v=0
226043 On ch=1 n=c5 v=0
226051 Par ch=1 c=64 v=0
226052 On ch=1 n=g#3 v=0
226071 On ch=1 n=d#4 v=0
226071 Par ch=1 c=64 v=127
226071 On ch=1 n=f4 v=102
226071 On ch=1 n=d4 v=102
226593 On ch=1 n=d4 v=0
226593 On ch=1 n=f4 v=0
226792 On ch=1 n=g2 v=108
227444 On ch=1 n=g2 v=0
227488 Par ch=1 c=64 v=0
227508 On ch=1 n=c2 v=127
227508 On ch=1 n=c3 v=127
227508 Par ch=1 c=64 v=127
228232 On ch=1 n=c4 v=79
228232 On ch=1 n=g4 v=79
228268 On ch=1 n=c3 v=0
228268 On ch=1 n=c2 v=0
228908 Par ch=1 c=64 v=0
228920 On ch=1 n=g4 v=0
228948 On ch=1 n=g#4 v=104
229192 On ch=1 n=g4 v=85
229201 On ch=1 n=g#4 v=0
229437 On ch=1 n=f4 v=106
229446 On ch=1 n=g4 v=0
229672 On ch=1 n=f4 v=0
229672 On ch=1 n=c4 v=89
229672 On ch=1 n=d#4 v=100
229907 On ch=1 n=c4 v=0
229907 On ch=1 n=c4 v=0
229944 On ch=1 n=d#4 v=0
230152 On ch=1 n=g#3 v=115
230152 On ch=1 n=g#2 v=115
230387 On ch=1 n=g#2 v=0
230387 On ch=1 n=g#3 v=0
230388 Par ch=1 c=64 v=127
230388 On ch=1 n=g3 v=127
230388 On ch=1 n=g2 v=127
230795 On ch=1 n=g2 v=0
230804 On ch=1 n=g3 v=0
231088 Par ch=1 c=64 v=0
231112 Par ch=1 c=64 v=127
231112 On ch=1 n=b4 v=64
231112 On ch=1 n=g4 v=64
231112 On ch=1 n=f4 v=64
231112 On ch=1 n=d4 v=64
231809 On ch=1 n=d4 v=0
231809 On ch=1 n=f4 v=0
231837 On ch=1 n=c5 v=74
231837 On ch=1 n=f4 v=74
231837 On ch=1 n=d4 v=74
231837 On ch=1 n=g4 v=74
231864 On ch=1 n=g4 v=0
231864 On ch=1 n=b4 v=0
232525 On ch=1 n=d4 v=0
232525 On ch=1 n=f4 v=0
232552 On ch=1 n=f4 v=85
232552 On ch=1 n=g4 v=85
232552 On ch=1 n=d#5 v=85
232570 On ch=1 n=g4 v=0
232570 On ch=1 n=c5 v=0
233032 Par ch=1 c=64 v=0
233032 On ch=1 n=d5 v=93
233059 On ch=1 n=d#5 v=0
233059 On ch=1 n=g4 v=0
233077 On ch=1 n=f4 v=0
233268 On ch=1 n=c4 v=100
233277 On ch=1 n=g4 v=100
233295 On ch=1 n=d5 v=0
233992 On ch=1 n=b3 v=76
233992 On ch=1 n=a4 v=76
234010 On ch=1 n=g4 v=0
234019 On ch=1 n=c4 v=0
234708 On ch=1 n=a#3 v=97
234708 On ch=1 n=c5 v=97
234762 On ch=1 n=a4 v=0
234780 On ch=1 n=b3 v=0
234952 On ch=1 n=a#4 v=88
235006 On ch=1 n=c5 v=0
235197 On ch=1 n=g#4 v=119
235233 On ch=1 n=a#4 v=0
235432 On ch=1 n=g4 v=117
235468 On ch=1 n=g#4 v=0
235704 On ch=1 n=g4 v=0
235704 On ch=1 n=a#3 v=0
235912 On ch=1 n=b2 v=125
235912 On ch=1 n=b3 v=125
236129 On ch=1 n=b3 v=0
236129 On ch=1 n=b2 v=0
236148 Par ch=1 c=64 v=127
236148 On ch=1 n=a#2 v=127
236148 On ch=1 n=a#3 v=127
236664 On ch=1 n=a#3 v=0
236700 On ch=1 n=a#2 v=0
236872 On ch=1 n=f4 v=76
236872 On ch=1 n=d5 v=76
236872 On ch=1 n=g#4 v=76
236872 On ch=1 n=a#4 v=76
237542 On ch=1 n=a#4 v=0
237551 On ch=1 n=f4 v=0
237568 Par ch=1 c=64 v=0
237569 On ch=1 n=g#4 v=0
237569 On ch=1 n=d5 v=0
237588 Par ch=1 c=64 v=127
237588 On ch=1 n=g#4 v=93
237588 On ch=1 n=f4 v=93
237597 On ch=1 n=a#4 v=93
237597 On ch=1 n=d#5 v=93
238221 On ch=1 n=d#5 v=0
238221 On ch=1 n=a#4 v=0
238267 On ch=1 n=f4 v=0
238267 On ch=1 n=g#4 v=0
238288 Par ch=1 c=64 v=0
238312 Par ch=1 c=64 v=127
238312 On ch=1 n=g5 v=111
238321 On ch=1 n=g#4 v=111
238321 On ch=1 n=a#4 v=111
238701 On ch=1 n=g5 v=0
238747 On ch=1 n=g#4 v=0
238756 On ch=1 n=a#4 v=0
238792 On ch=1 n=f5 v=98
239008 Par ch=1 c=64 v=0
239028 On ch=1 n=f5 v=0
239028 On ch=1 n=d#4 v=88
239028 On ch=1 n=a#4 v=88
239037 On ch=1 n=d#5 v=88
239544 On ch=1 n=a#4 v=0
239553 On ch=1 n=d#5 v=0
239571 On ch=1 n=d#4 v=0
239752 On ch=1 n=c4 v=61
239988 On ch=1 n=d#5 v=48
240232 On ch=1 n=g4 v=55
240249 On ch=1 n=d#5 v=0
240268 On ch=1 n=c4 v=0
240477 On ch=1 n=f4 v=74
240493 On ch=1 n=g4 v=0
240712 On ch=1 n=c5 v=61
240957 On ch=1 n=g#4 v=73
240966 On ch=1 n=f4 v=0
240973 On ch=1 n=c5 v=0
241192 On ch=1 n=a#3 v=84
241218 On ch=1 n=g#4 v=0
241428 On ch=1 n=d5 v=64
241672 On ch=1 n=g#4 v=70
241689 On ch=1 n=d5 v=0
241726 On ch=1 n=a#3 v=0
241908 On ch=1 n=d#4 v=87
241933 On ch=1 n=g#4 v=0
242152 On ch=1 n=d#5 v=66
242397 On ch=1 n=d#4 v=0
242397 On ch=1 n=g4 v=59
242413 On ch=1 n=d#5 v=0
242623 On ch=1 n=c4 v=81
242658 On ch=1 n=g4 v=0
242868 On ch=1 n=d#5 v=69
243121 On ch=1 n=g4 v=65
243129 On ch=1 n=d#5 v=0
243130 On ch=1 n=c4 v=0
243357 On ch=1 n=f4 v=84
243382 On ch=1 n=g4 v=0
243592 On ch=1 n=c5 v=70
243828 On ch=1 n=g#4 v=62
243853 On ch=1 n=c5 v=0
243963 On ch=1 n=f4 v=0
244072 On ch=1 n=a#3 v=88
244089 On ch=1 n=g#4 v=0
244317 On ch=1 n=d5 v=69
244552 On ch=1 n=g#4 v=65
244578 On ch=1 n=d5 v=0
244597 On ch=1 n=a#3 v=0
244788 On ch=1 n=d#4 v=95
244813 On ch=1 n=g#4 v=0
245032 On ch=1 n=c#5 v=75
245268 On ch=1 n=g4 v=67
245293 On ch=1 n=c#5 v=0
245313 On ch=1 n=d#4 v=0
245512 On ch=1 n=d4 v=86
245529 On ch=1 n=g4 v=0
245748 On ch=1 n=c#5 v=75
245992 On ch=1 n=d#4 v=68
246009 On ch=1 n=c#5 v=0
246028 On ch=1 n=d4 v=0
246228 On ch=1 n=f4 v=88
246255 On ch=1 n=d#4 v=0
246472 On ch=1 n=c#5 v=74
246717 On ch=1 n=g#4 v=65
246733 On ch=1 n=c#5 v=0
246762 On ch=1 n=f4 v=0
246943 On ch=1 n=g4 v=79
246978 On ch=1 n=g#4 v=0
247188 On ch=1 n=c#5 v=68
247432 On ch=1 n=a#4 v=56
247449 On ch=1 n=c#5 v=0
247459 On ch=1 n=g4 v=0
247668 On ch=1 n=g4 v=88
247693 On ch=1 n=a#4 v=0
247903 On ch=1 n=f5 v=75
248148 On ch=1 n=c#5 v=62
248164 On ch=1 n=f5 v=0
248166 On ch=1 n=g4 v=0
248392 On ch=1 n=g#4 v=84
248409 On ch=1 n=c#5 v=0
248628 On ch=1 n=f5 v=69
248872 On ch=1 n=c#5 v=98
248889 On ch=1 n=f5 v=0
248890 On ch=1 n=g#4 v=0
249080 On ch=1 n=c#5 v=0
249108 On ch=1 n=f5 v=109
249108 On ch=1 n=c#5 v=109
249108 On ch=1 n=a#4 v=109
249289 On ch=1 n=c#5 v=0
249298 On ch=1 n=a#4 v=0
249352 On ch=1 n=f5 v=0
249352 On ch=1 n=d#5 v=92
249352 On ch=1 n=c#5 v=92
249352 On ch=1 n=d#4 v=92
249352 On ch=1 n=a#4 v=100
249588 On ch=1 n=c#5 v=0
249597 On ch=1 n=d#4 v=0
249597 On ch=1 n=d#5 v=0
249608 On ch=1 n=a#4 v=0
250548 On ch=1 n=g#4 v=77
250792 On ch=1 n=g#5 v=66
251037 On ch=1 n=g#4 v=0
251037 On ch=1 n=c5 v=56
251053 On ch=1 n=g#5 v=0
251263 On ch=1 n=f4 v=84
251298 On ch=1 n=c5 v=0
251508 On ch=1 n=g#5 v=74
251761 On ch=1 n=c5 v=64
251769 On ch=1 n=g#5 v=0
251770 On ch=1 n=f4 v=0
251997 On ch=1 n=a#4 v=84
252022 On ch=1 n=c5 v=0
252232 On ch=1 n=f5 v=75
252468 On ch=1 n=c#5 v=65
252493 On ch=1 n=f5 v=0
252603 On ch=1 n=a#4 v=0
252712 On ch=1 n=d#4 v=82
252729 On ch=1 n=c#5 v=0
252957 On ch=1 n=g5 v=72
253192 On ch=1 n=c#5 v=62
253218 On ch=1 n=g5 v=0
253237 On ch=1 n=d#4 v=0
253428 On ch=1 n=g#4 v=83
253453 On ch=1 n=c#5 v=0
253672 On ch=1 n=g#5 v=75
253917 On ch=1 n=g#4 v=0
253917 On ch=1 n=c5 v=67
253933 On ch=1 n=g#5 v=0
254143 On ch=1 n=f4 v=86
254178 On ch=1 n=c5 v=0
254388 On ch=1 n=g#5 v=75
254641 On ch=1 n=c5 v=63
254649 On ch=1 n=g#5 v=0
254650 On ch=1 n=f4 v=0
254877 On ch=1 n=a#4 v=84
254902 On ch=1 n=c5 v=0
255112 On ch=1 n=f5 v=72
255348 On ch=1 n=c#5 v=59
255373 On ch=1 n=f5 v=0
255483 On ch=1 n=a#4 v=0
255592 On ch=1 n=d#4 v=80
255609 On ch=1 n=c#5 v=0
255837 On ch=1 n=g5 v=66
256072 On ch=1 n=c#5 v=62
256098 On ch=1 n=g5 v=0
256117 On ch=1 n=d#4 v=0
256308 On ch=1 n=g#4 v=98
256333 On ch=1 n=c#5 v=0
256543 On ch=1 n=g#5 v=79
256797 On ch=1 n=c5 v=82
256804 On ch=1 n=g#5 v=0
256842 On ch=1 n=g#4 v=0
257032 On ch=1 n=g4 v=106
257058 On ch=1 n=c5 v=0
257268 On ch=1 n=f#5 v=88
257512 On ch=1 n=g#4 v=88
257529 On ch=1 n=f#5 v=0
257557 On ch=1 n=g4 v=0
257748 On ch=1 n=a#4 v=115
257773 On ch=1 n=g#4 v=0
257992 On ch=1 n=f#5 v=102
258237 On ch=1 n=c#5 v=106
258253 On ch=1 n=f#5 v=0
258300 On ch=1 n=a#4 v=0
258472 On ch=1 n=c5 v=119
258498 On ch=1 n=c#5 v=0
258708 On ch=1 n=a#5 v=105
258952 On ch=1 n=f#5 v=98
258979 On ch=1 n=c5 v=0
259061 On ch=1 n=a#5 v=0
259188 On ch=1 n=c5 v=115
259213 On ch=1 n=f#5 v=0
259432 On ch=1 n=a#5 v=102
259677 On ch=1 n=f#5 v=106
259693 On ch=1 n=a#5 v=0
259740 On ch=1 n=c5 v=0
259912 On ch=1 n=c#5 v=119
260148 On ch=1 n=g#5 v=105
260392 On ch=1 n=d5 v=98
260419 On ch=1 n=c#5 v=0
260501 On ch=1 n=g#5 v=0
260591 On ch=1 n=d5 v=0
260609 On ch=1 n=f#5 v=0
260628 On ch=1 n=f#5 v=100
260628 Par ch=1 c=64 v=127
260628 On ch=1 n=d#5 v=100
261198 On ch=1 n=d#5 v=0
261207 On ch=1 n=f#5 v=0
262068 Par ch=1 c=64 v=0
262068 On ch=1 n=g#3 v=100
262068 On ch=1 n=g#2 v=100
262285 On ch=1 n=g#3 v=0
262312 On ch=1 n=g#3 v=100
262422 On ch=1 n=g#3 v=0
262430 On ch=1 n=d#4 v=100
262502 On ch=1 n=g#2 v=0
262540 On ch=1 n=d#4 v=0
262557 On ch=1 n=g#3 v=100
262667 On ch=1 n=g#3 v=0
262674 On ch=1 n=d#4 v=100
262784 On ch=1 n=d#4 v=0
262792 On ch=1 n=g3 v=100
262902 On ch=1 n=g3 v=0
262910 On ch=1 n=d#4 v=100
263020 On ch=1 n=d#4 v=0
263028 On ch=1 n=g#3 v=100
263138 On ch=1 n=g#3 v=0
263154 On ch=1 n=d#4 v=100
263264 On ch=1 n=d#4 v=0
263272 On ch=1 n=a3 v=100
263382 On ch=1 n=a3 v=0
263390 On ch=1 n=d#4 v=100
263500 On ch=1 n=d#4 v=0
263508 On ch=1 n=g#3 v=100
263618 On ch=1 n=g#3 v=0
263634 On ch=1 n=d#4 v=100
263744 On ch=1 n=d#4 v=0
263752 On ch=1 n=d#3 v=100
263862 On ch=1 n=d#3 v=0
263870 On ch=1 n=d#4 v=100
263980 On ch=1 n=d#4 v=0
263997 On ch=1 n=g#3 v=100
264107 On ch=1 n=g#3 v=0
264114 On ch=1 n=d#4 v=100
264224 On ch=1 n=d#4 v=0
264232 On ch=1 n=g3 v=100
264342 On ch=1 n=g3 v=0
264350 On ch=1 n=d#4 v=100
264460 On ch=1 n=d#4 v=0
264477 On ch=1 n=g#3 v=100
264587 On ch=1 n=g#3 v=0
264594 On ch=1 n=d#4 v=100
264704 On ch=1 n=d#4 v=0
264712 On ch=1 n=a3 v=100
264822 On ch=1 n=a3 v=0
264830 On ch=1 n=d#4 v=100
264940 On ch=1 n=d#4 v=0
264948 Par ch=1 c=64 v=127
264948 On ch=1 n=g#3 v=100
265058 On ch=1 n=g#3 v=0
265074 On ch=1 n=d#4 v=100
265184 On ch=1 n=d#4 v=0
265192 On ch=1 n=d#3 v=100
265302 On ch=1 n=d#3 v=0
265310 On ch=1 n=d#4 v=100
265420 On ch=1 n=d#4 v=0
265437 On ch=1 n=g#3 v=100
265547 On ch=1 n=g#3 v=0
265554 On ch=1 n=d#4 v=100
265664 On ch=1 n=d#4 v=0
265672 On ch=1 n=d#3 v=100
265782 On ch=1 n=d#3 v=0
265790 On ch=1 n=d#4 v=100
265900 On ch=1 n=d#4 v=0
265917 On ch=1 n=g#3 v=100
266027 On ch=1 n=g#3 v=0
266034 On ch=1 n=d#4 v=100
266144 On ch=1 n=d#4 v=0
266152 On ch=1 n=d#3 v=100
266262 On ch=1 n=d#3 v=0
266270 On ch=1 n=d#4 v=100
266380 On ch=1 n=d#4 v=0
266388 On ch=1 n=g#3 v=100
266498 On ch=1 n=g#3 v=0
266514 On ch=1 n=d#4 v=100
266624 On ch=1 n=d#4 v=0
266632 On ch=1 n=d#3 v=100
266742 On ch=1 n=d#3 v=0
266750 On ch=1 n=d#4 v=100
266860 On ch=1 n=d#4 v=0
266877 On ch=1 n=g#3 v=100
266987 On ch=1 n=g#3 v=0
266994 On ch=1 n=d#4 v=100
267104 On ch=1 n=d#4 v=0
267112 On ch=1 n=d#3 v=100
267222 On ch=1 n=d#3 v=0
267230 On ch=1 n=d#4 v=100
267340 On ch=1 n=d#4 v=0
267357 On ch=1 n=g#3 v=100
267467 On ch=1 n=g#3 v=0
267474 Par ch=1 c=64 v=0
267474 On ch=1 n=d#4 v=100
267584 On ch=1 n=d#4 v=0
267592 On ch=1 n=g#2 v=100
267592 On ch=1 n=g#3 v=100
267828 On ch=1 n=g#3 v=0
267828 On ch=1 n=g#2 v=0
267828 On ch=1 n=g2 v=100
267828 On ch=1 n=g3 v=100
268099 On ch=1 n=g2 v=0
268117 On ch=1 n=g3 v=0
268308 On ch=1 n=g4 v=100
268317 On ch=1 n=c#5 v=100
268552 On ch=1 n=d5 v=100
268561 On ch=1 n=c#5 v=0
268788 On ch=1 n=c#5 v=100
268815 On ch=1 n=d5 v=0
269032 On ch=1 n=b4 v=100
269041 On ch=1 n=c#5 v=0
269249 On ch=1 n=b4 v=0
269268 On ch=1 n=a4 v=100
269521 On ch=1 n=a4 v=0
269530 On ch=1 n=g4 v=0
269757 On ch=1 n=c#5 v=100
269766 On ch=1 n=g4 v=100
269992 On ch=1 n=d5 v=100
270001 On ch=1 n=c#5 v=0
270228 On ch=1 n=c#5 v=100
270255 On ch=1 n=d5 v=0
270472 On ch=1 n=b4 v=100
270481 On ch=1 n=c#5 v=0
270689 On ch=1 n=b4 v=0
270708 Par ch=1 c=64 v=127
270708 On ch=1 n=a4 v=100
270952 On ch=1 n=a4 v=0
270952 On ch=1 n=g2 v=100
270988 On ch=1 n=g4 v=0
271062 On ch=1 n=g2 v=0
271070 On ch=1 n=a3 v=100
271180 On ch=1 n=a3 v=0
271197 On ch=1 n=a2 v=100
271307 On ch=1 n=a2 v=0
271314 On ch=1 n=a3 v=100
271424 On ch=1 n=a3 v=0
271432 On ch=1 n=g2 v=100
271542 On ch=1 n=g2 v=0
271550 On ch=1 n=a3 v=100
271660 On ch=1 n=a3 v=0
271677 On ch=1 n=a2 v=100
271787 On ch=1 n=a2 v=0
271794 On ch=1 n=a3 v=100
271904 On ch=1 n=a3 v=0
271912 On ch=1 n=g2 v=100
272022 On ch=1 n=g2 v=0
272030 On ch=1 n=a3 v=100
272140 On ch=1 n=a3 v=0
272148 On ch=1 n=a2 v=100
272258 On ch=1 n=a2 v=0
272274 On ch=1 n=a3 v=100
272384 On ch=1 n=a3 v=0
272392 On ch=1 n=g2 v=100
272502 On ch=1 n=g2 v=0
272510 On ch=1 n=a3 v=100
272620 On ch=1 n=a3 v=0
272637 On ch=1 n=a2 v=100
272747 On ch=1 n=a2 v=0
272754 On ch=1 n=a3 v=100
272864 On ch=1 n=a3 v=0
272872 On ch=1 n=g2 v=100
272982 On ch=1 n=g2 v=0
272990 On ch=1 n=a3 v=100
273100 On ch=1 n=a3 v=0
273117 On ch=1 n=a2 v=100
273227 On ch=1 n=a2 v=0
273234 On ch=1 n=a3 v=100
273344 On ch=1 n=a3 v=0
273352 On ch=1 n=g2 v=100
273462 On ch=1 n=g2 v=0
273470 Par ch=1 c=64 v=0
273470 On ch=1 n=a3 v=100
273580 On ch=1 n=a3 v=0
273588 On ch=1 n=f#3 v=100
273588 On ch=1 n=f#2 v=100
273859 On ch=1 n=f#2 v=0
273877 On ch=1 n=f#3 v=0
274068 On ch=1 n=f#4 v=100
274077 On ch=1 n=c#5 v=100
274312 On ch=1 n=d5 v=100
274321 On ch=1 n=c#5 v=0
274548 On ch=1 n=c#5 v=100
274575 On ch=1 n=d5 v=0
274792 On ch=1 n=b4 v=100
274801 On ch=1 n=c#5 v=0
275009 On ch=1 n=b4 v=0
275037 On ch=1 n=a#4 v=100
275254 On ch=1 n=a#4 v=0
275272 On ch=1 n=f#4 v=0
275517 On ch=1 n=f#4 v=100
275517 On ch=1 n=c#5 v=100
275752 On ch=1 n=c#5 v=0
275761 On ch=1 n=d5 v=100
275997 On ch=1 n=c#5 v=100
276006 On ch=1 n=d5 v=0
276232 On ch=1 n=b4 v=100
276259 On ch=1 n=c#5 v=0
276449 On ch=1 n=b4 v=0
276477 On ch=1 n=a#4 v=100
276721 On ch=1 n=a#4 v=0
276721 On ch=1 n=f#4 v=0
276948 On ch=1 n=c#5 v=100
276957 On ch=1 n=c#4 v=100
277168 On ch=1 n=c#5 v=0
277177 On ch=1 n=c#4 v=0
277192 On ch=1 n=d5 v=100
277192 On ch=1 n=d4 v=100
277412 On ch=1 n=d4 v=0
277412 On ch=1 n=d5 v=0
277428 On ch=1 n=c#4 v=100
277437 On ch=1 n=c#5 v=100
277648 On ch=1 n=c#4 v=0
277657 On ch=1 n=c#5 v=0
277663 On ch=1 n=b3 v=100
277672 On ch=1 n=b4 v=100
277883 On ch=1 n=b3 v=0
277892 On ch=1 n=b4 v=0
277908 On ch=1 n=b4 v=100
277917 On ch=1 n=b3 v=100
278152 On ch=1 n=a#4 v=100
278152 On ch=1 n=a#3 v=100
278179 On ch=1 n=b4 v=0
278206 On ch=1 n=b3 v=0
278372 On ch=1 n=a#3 v=0
278372 On ch=1 n=a#4 v=0
278388 On ch=1 n=d3 v=100
278397 On ch=1 n=d4 v=100
278608 On ch=1 n=d3 v=0
278617 On ch=1 n=d4 v=0
278632 On ch=1 n=d4 v=100
278632 On ch=1 n=d3 v=100
278868 On ch=1 n=c#3 v=100
278877 On ch=1 n=c#4 v=100
278913 On ch=1 n=d3 v=0
278913 On ch=1 n=d4 v=0
279112 On ch=1 n=b2 v=100
279112 On ch=1 n=b3 v=100
279130 On ch=1 n=c#4 v=0
279166 On ch=1 n=c#3 v=0
279332 On ch=1 n=b3 v=0
279332 On ch=1 n=b2 v=0
279348 Par ch=1 c=64 v=127
279348 On ch=1 n=a#2 v=100
279348 On ch=1 n=a#3 v=100
279846 On ch=1 n=a#3 v=0
279855 On ch=1 n=a#2 v=0
280072 On ch=1 n=e5 v=109
280072 On ch=1 n=c#5 v=109
280072 On ch=1 n=f#4 v=109
280570 On ch=1 n=e5 v=0
280579 On ch=1 n=f#4 v=0
280579 On ch=1 n=c#5 v=0
283613 Par ch=1 c=64 v=0
285108 On ch=1 n=f2 v=127
285288 On ch=1 n=f2 v=0
285352 On ch=1 n=f#2 v=127
285532 On ch=1 n=f#2 v=0
285597 On ch=1 n=g2 v=127
285777 On ch=1 n=g2 v=0
285832 On ch=1 n=g#2 v=127
286012 On ch=1 n=g#2 v=0
286077 On ch=1 n=a2 v=127
286257 On ch=1 n=a2 v=0
286312 On ch=1 n=a#2 v=127
286492 On ch=1 n=a#2 v=0
286548 On ch=1 n=b2 v=127
286728 On ch=1 n=b2 v=0
286792 On ch=1 n=c3 v=127
286972 On ch=1 n=c3 v=0
287028 On ch=1 n=c#3 v=127
287208 On ch=1 n=c#3 v=0
287272 On ch=1 n=d3 v=127
287452 On ch=1 n=d3 v=0
287517 On ch=1 n=d#3 v=127
287697 On ch=1 n=d#3 v=0
287752 On ch=1 n=e3 v=127
287932 On ch=1 n=e3 v=0
287988 On ch=1 n=f3 v=127
287997 On ch=1 n=f2 v=127
288168 On ch=1 n=f3 v=0
288177 On ch=1 n=f2 v=0
288232 On ch=1 n=g3 v=127
288232 On ch=1 n=g2 v=127
288412 On ch=1 n=g2 v=0
288412 On ch=1 n=g3 v=0
288468 On ch=1 n=f#3 v=127
288477 On ch=1 n=f#2 v=127
288648 On ch=1 n=f#3 v=0
288657 On ch=1 n=f#2 v=0
288712 On ch=1 n=c#4 v=127
288712 On ch=1 n=c#3 v=127
289147 On ch=1 n=c#3 v=0
289147 On ch=1 n=c#4 v=0
291112 On ch=1 n=g3 v=82
291224 On ch=1 n=g3 v=0
291230 On ch=1 n=e4 v=105
291342 On ch=1 n=e4 v=0
291348 On ch=1 n=c#4 v=85
291460 On ch=1 n=c#4 v=0
291474 On ch=1 n=g3 v=71
291586 On ch=1 n=g3 v=0
291592 On ch=1 n=f#3 v=101
291704 On ch=1 n=f#3 v=0
291710 On ch=1 n=g3 v=87
291822 On ch=1 n=g3 v=0
291828 On ch=1 n=a#3 v=74
291940 On ch=1 n=a#3 v=0
291954 On ch=1 n=e4 v=98
292066 On ch=1 n=e4 v=0
292072 On ch=1 n=c#4 v=88
292184 On ch=1 n=c#4 v=0
292190 On ch=1 n=g3 v=77
292302 On ch=1 n=g3 v=0
292308 On ch=1 n=f#3 v=92
292420 On ch=1 n=f#3 v=0
292434 On ch=1 n=g3 v=70
292546 On ch=1 n=g3 v=0
292552 On ch=1 n=a#3 v=82
292664 On ch=1 n=a#3 v=0
292670 On ch=1 n=e4 v=105
292782 On ch=1 n=e4 v=0
292788 On ch=1 n=c#4 v=85
292900 On ch=1 n=c#4 v=0
292914 On ch=1 n=g3 v=71
293026 On ch=1 n=g3 v=0
293032 On ch=1 n=f#3 v=101
293144 On ch=1 n=f#3 v=0
293150 On ch=1 n=g3 v=87
293249 On ch=1 n=g3 v=0
293268 On ch=1 n=a#3 v=74
293380 On ch=1 n=a#3 v=0
293394 On ch=1 n=e4 v=98
293506 On ch=1 n=e4 v=0
293512 On ch=1 n=c#4 v=88
293624 On ch=1 n=c#4 v=0
293630 On ch=1 n=g3 v=77
293742 On ch=1 n=g3 v=0
293748 On ch=1 n=f#2 v=92
293860 On ch=1 n=f#2 v=0
293874 On ch=1 n=c#3 v=70
293986 On ch=1 n=c#3 v=0
293992 On ch=1 n=f#3 v=82
294104 On ch=1 n=f#3 v=0
294110 On ch=1 n=c#4 v=105
294222 On ch=1 n=c#4 v=0
294228 On ch=1 n=f#3 v=85
294340 On ch=1 n=f#3 v=0
294354 On ch=1 n=c#3 v=71
294466 On ch=1 n=c#3 v=0
294472 On ch=1 n=f#2 v=101
294584 On ch=1 n=f#2 v=0
294590 On ch=1 n=c#3 v=87
294702 On ch=1 n=c#3 v=0
294708 On ch=1 n=f#3 v=74
294820 On ch=1 n=f#3 v=0
294834 On ch=1 n=c#4 v=98
294946 On ch=1 n=c#4 v=0
294952 On ch=1 n=f#3 v=88
295064 On ch=1 n=f#3 v=0
295070 On ch=1 n=c#3 v=77
295182 On ch=1 n=c#3 v=0
295188 On ch=1 n=f#2 v=92
295300 On ch=1 n=f#2 v=0
295314 On ch=1 n=c#3 v=103
295426 On ch=1 n=c#3 v=0
295432 On ch=1 n=f#3 v=103
295544 On ch=1 n=f#3 v=0
295550 On ch=1 n=c#4 v=118
295668 On ch=1 n=f#3 v=111
295677 On ch=1 n=c#4 v=0
295780 On ch=1 n=f#3 v=0
295794 On ch=1 n=c#3 v=102
295906 On ch=1 n=c#3 v=0
295912 On ch=1 n=f#2 v=111
296075 On ch=1 n=f#2 v=0
296075 On ch=1 n=c#3 v=99
296211 On ch=1 n=a#3 v=112
296229 On ch=1 n=c#3 v=0
296347 On ch=1 n=a#3 v=0
296356 On ch=1 n=c#4 v=103
296483 On ch=1 n=f#3 v=95
296510 On ch=1 n=c#4 v=0
296628 On ch=1 n=f#3 v=0
296628 Par ch=1 c=64 v=127
296628 On ch=1 n=b2 v=127
296740 On ch=1 n=b2 v=0
296754 On ch=1 n=f#3 v=80
296866 On ch=1 n=f#3 v=0
296872 On ch=1 n=b3 v=88
296984 On ch=1 n=b3 v=0
296990 On ch=1 n=d4 v=91
297102 On ch=1 n=d4 v=0
297108 On ch=1 n=b3 v=84
297220 On ch=1 n=b3 v=0
297234 Par ch=1 c=64 v=0
297234 On ch=1 n=f#3 v=76
297346 On ch=1 n=f#3 v=0
297352 On ch=1 n=b2 v=121
297352 Par ch=1 c=64 v=127
297464 On ch=1 n=b2 v=0
297470 On ch=1 n=e3 v=75
297582 On ch=1 n=e3 v=0
297588 On ch=1 n=g3 v=84
297700 On ch=1 n=g3 v=0
297714 On ch=1 n=e4 v=89
297714 On ch=1 n=e4 v=93
297826 On ch=1 n=e4 v=0
297826 On ch=1 n=e4 v=0
297832 On ch=1 n=g3 v=85
297944 On ch=1 n=g3 v=0
297950 Par ch=1 c=64 v=0
297950 On ch=1 n=e3 v=79
298062 On ch=1 n=e3 v=0
298068 Par ch=1 c=64 v=127
298068 On ch=1 n=b2 v=127
298180 On ch=1 n=b2 v=0
298194 On ch=1 n=f#3 v=74
298306 On ch=1 n=f#3 v=0
298312 On ch=1 n=b3 v=80
298424 On ch=1 n=b3 v=0
298430 On ch=1 n=d4 v=85
298430 On ch=1 n=d4 v=98
298542 On ch=1 n=d4 v=0
298542 On ch=1 n=d4 v=0
298548 On ch=1 n=b3 v=85
298660 On ch=1 n=b3 v=0
298674 Par ch=1 c=64 v=0
298674 On ch=1 n=f#3 v=75
298786 On ch=1 n=f#3 v=0
298792 Par ch=1 c=64 v=127
298792 On ch=1 n=b2 v=127
298904 On ch=1 n=b2 v=0
298910 On ch=1 n=e3 v=77
299022 On ch=1 n=e3 v=0
299028 On ch=1 n=g3 v=83
299140 On ch=1 n=g3 v=0
299154 On ch=1 n=e4 v=89
299266 On ch=1 n=e4 v=0
299272 On ch=1 n=g3 v=85
299384 On ch=1 n=g3 v=0
299390 Par ch=1 c=64 v=0
299390 On ch=1 n=e3 v=75
299502 On ch=1 n=e3 v=0
299508 Par ch=1 c=64 v=127
299508 On ch=1 n=b2 v=127
299620 On ch=1 n=b2 v=0
299634 On ch=1 n=f#3 v=74
299746 On ch=1 n=f#3 v=0
299752 On ch=1 n=b3 v=81
299864 On ch=1 n=b3 v=0
299870 On ch=1 n=d4 v=88
299982 On ch=1 n=d4 v=0
299988 On ch=1 n=b3 v=85
300100 On ch=1 n=b3 v=0
300114 Par ch=1 c=64 v=0
300114 On ch=1 n=f#3 v=78
300226 On ch=1 n=f#3 v=0
300232 Par ch=1 c=64 v=127
300232 On ch=1 n=e3 v=127
300344 On ch=1 n=e3 v=0
300350 On ch=1 n=g3 v=84
300462 On ch=1 n=g3 v=0
300468 On ch=1 n=b3 v=91
300580 On ch=1 n=b3 v=0
300594 On ch=1 n=g4 v=98
300706 On ch=1 n=g4 v=0
300712 On ch=1 n=b3 v=94
300824 On ch=1 n=b3 v=0
300830 Par ch=1 c=64 v=0
300830 On ch=1 n=g3 v=86
300942 On ch=1 n=g3 v=0
300948 Par ch=1 c=64 v=127
300948 On ch=1 n=d3 v=127
301060 On ch=1 n=d3 v=0
301074 On ch=1 n=a3 v=76
301186 On ch=1 n=a3 v=0
301192 On ch=1 n=d4 v=84
301304 On ch=1 n=d4 v=0
301310 On ch=1 n=f#4 v=93
301422 On ch=1 n=f#4 v=0
301428 On ch=1 n=d4 v=85
301540 On ch=1 n=d4 v=0
301554 Par ch=1 c=64 v=0
301554 On ch=1 n=a3 v=78
301666 On ch=1 n=a3 v=0
301672 On ch=1 n=g3 v=123
301672 Par ch=1 c=64 v=127
301784 On ch=1 n=g3 v=0
301790 On ch=1 n=a#3 v=69
301902 On ch=1 n=a#3 v=0
301908 On ch=1 n=d4 v=78
302020 On ch=1 n=d4 v=0
302034 On ch=1 n=g4 v=84
302146 On ch=1 n=g4 v=0
302152 On ch=1 n=d4 v=79
302264 On ch=1 n=d4 v=0
302270 Par ch=1 c=64 v=0
302270 On ch=1 n=b3 v=73
302382 On ch=1 n=b3 v=0
302388 On ch=1 n=d3 v=122
302388 Par ch=1 c=64 v=127
302500 On ch=1 n=d3 v=0
302514 On ch=1 n=a3 v=69
302626 On ch=1 n=a3 v=0
302632 On ch=1 n=d4 v=77
302744 On ch=1 n=d4 v=0
302750 On ch=1 n=f#4 v=85
302750 On ch=1 n=f#4 v=93
302862 On ch=1 n=f#4 v=0
302862 On ch=1 n=f#4 v=0
302868 On ch=1 n=d4 v=77
302980 On ch=1 n=d4 v=0
302994 Par ch=1 c=64 v=0
302994 On ch=1 n=a3 v=71
303106 On ch=1 n=a3 v=0
303112 On ch=1 n=d3 v=122
303112 Par ch=1 c=64 v=127
303224 On ch=1 n=d3 v=0
303230 On ch=1 n=g3 v=64
303342 On ch=1 n=g3 v=0
303348 On ch=1 n=a#3 v=74
303460 On ch=1 n=a#3 v=0
303474 On ch=1 n=g4 v=90
303586 On ch=1 n=g4 v=0
303592 On ch=1 n=a#3 v=74
303704 On ch=1 n=a#3 v=0
303710 Par ch=1 c=64 v=0
303710 On ch=1 n=g3 v=69
303822 On ch=1 n=g3 v=0
303828 On ch=1 n=d3 v=123
303828 Par ch=1 c=64 v=127
303940 On ch=1 n=d3 v=0
303954 On ch=1 n=a3 v=69
304066 On ch=1 n=a3 v=0
304072 On ch=1 n=d4 v=79
304184 On ch=1 n=d4 v=0
304190 On ch=1 n=f#4 v=95
304302 On ch=1 n=f#4 v=0
304308 On ch=1 n=d4 v=81
304420 On ch=1 n=d4 v=0
304434 Par ch=1 c=64 v=0
304434 On ch=1 n=a3 v=73
304546 On ch=1 n=a3 v=0
304552 On ch=1 n=d3 v=127
304552 Par ch=1 c=64 v=127
304664 On ch=1 n=d3 v=0
304670 On ch=1 n=g3 v=77
304782 On ch=1 n=g3 v=0
304788 On ch=1 n=a#3 v=84
304900 On ch=1 n=a#3 v=0
304914 On ch=1 n=g4 v=96
305026 On ch=1 n=g4 v=0
305032 On ch=1 n=a#3 v=85
305144 On ch=1 n=a#3 v=0
305150 Par ch=1 c=64 v=0
305150 On ch=1 n=g3 v=79
305262 On ch=1 n=g3 v=0
305268 On ch=1 n=d3 v=123
305268 Par ch=1 c=64 v=127
305380 On ch=1 n=d3 v=0
305394 On ch=1 n=a3 v=72
305506 On ch=1 n=a3 v=0
305512 On ch=1 n=d4 v=82
305624 On ch=1 n=d4 v=0
305630 On ch=1 n=f#4 v=93
305742 On ch=1 n=f#4 v=0
305748 On ch=1 n=d4 v=81
305860 On ch=1 n=d4 v=0
305874 Par ch=1 c=64 v=0
305874 On ch=1 n=a3 v=73
305986 On ch=1 n=a3 v=0
305992 On ch=1 n=g3 v=122
305992 Par ch=1 c=64 v=127
306104 On ch=1 n=g3 v=0
306110 On ch=1 n=b3 v=76
306222 On ch=1 n=b3 v=0
306228 On ch=1 n=d4 v=82
306340 On ch=1 n=d4 v=0
306354 On ch=1 n=b4 v=85
306466 On ch=1 n=b4 v=0
306472 On ch=1 n=d4 v=80
306584 On ch=1 n=d4 v=0
306590 Par ch=1 c=64 v=0
306590 On ch=1 n=b3 v=74
306702 On ch=1 n=b3 v=0
306708 On ch=1 n=f#3 v=127
306708 Par ch=1 c=64 v=127
306820 On ch=1 n=f#3 v=0
306834 On ch=1 n=c#4 v=79
306946 On ch=1 n=c#4 v=0
306952 On ch=1 n=f#4 v=85
307064 On ch=1 n=f#4 v=0
307070 On ch=1 n=a#4 v=98
307182 On ch=1 n=a#4 v=0
307188 On ch=1 n=f#4 v=84
307300 On ch=1 n=f#4 v=0
307314 Par ch=1 c=64 v=0
307314 On ch=1 n=c#4 v=73
307426 On ch=1 n=c#4 v=0
307432 On ch=1 n=b3 v=125
307432 Par ch=1 c=64 v=127
307544 On ch=1 n=b3 v=0
307550 On ch=1 n=d4 v=76
307662 On ch=1 n=d4 v=0
307668 On ch=1 n=f#4 v=84
307780 On ch=1 n=f#4 v=0
307794 On ch=1 n=d5 v=96
307906 On ch=1 n=d5 v=0
307912 On ch=1 n=f#4 v=89
308024 On ch=1 n=f#4 v=0
308030 Par ch=1 c=64 v=0
308030 On ch=1 n=d4 v=77
308142 On ch=1 n=d4 v=0
308148 On ch=1 n=a#3 v=123
308148 Par ch=1 c=64 v=127
308260 On ch=1 n=a#3 v=0
308274 On ch=1 n=c#4 v=78
308386 On ch=1 n=c#4 v=0
308392 On ch=1 n=f#4 v=87
308504 On ch=1 n=f#4 v=0
308510 On ch=1 n=c#5 v=96
308622 On ch=1 n=c#5 v=0
308628 On ch=1 n=f#4 v=90
308740 On ch=1 n=f#4 v=0
308754 Par ch=1 c=64 v=0
308754 On ch=1 n=c#4 v=79
308866 On ch=1 n=c#4 v=0
308872 On ch=1 n=a3 v=127
308872 Par ch=1 c=64 v=127
308984 On ch=1 n=a3 v=0
308990 On ch=1 n=b3 v=77
309102 On ch=1 n=b3 v=0
309108 On ch=1 n=f#4 v=86
309220 On ch=1 n=f#4 v=0
309234 On ch=1 n=b4 v=95
309346 On ch=1 n=b4 v=0
309352 On ch=1 n=f#4 v=90
309464 On ch=1 n=f#4 v=0
309470 Par ch=1 c=64 v=0
309470 On ch=1 n=b3 v=79
309582 On ch=1 n=b3 v=0
309588 On ch=1 n=g#3 v=123
309588 Par ch=1 c=64 v=127
309700 On ch=1 n=g#3 v=0
309714 On ch=1 n=b3 v=73
309826 On ch=1 n=b3 v=0
309832 On ch=1 n=e4 v=82
309944 On ch=1 n=e4 v=0
309950 On ch=1 n=b4 v=90
310062 On ch=1 n=b4 v=0
310068 On ch=1 n=e4 v=86
310180 On ch=1 n=e4 v=0
310194 Par ch=1 c=64 v=0
310194 On ch=1 n=b3 v=77
310306 On ch=1 n=b3 v=0
310312 Par ch=1 c=64 v=127
310312 On ch=1 n=g3 v=73
310312 On ch=1 n=g3 v=123
310424 On ch=1 n=g3 v=0
310424 On ch=1 n=g3 v=0
310430 On ch=1 n=a3 v=73
310542 On ch=1 n=a3 v=0
310548 On ch=1 n=c#4 v=81
310660 On ch=1 n=c#4 v=0
310674 On ch=1 n=a4 v=92
310786 On ch=1 n=a4 v=0
310792 On ch=1 n=c#4 v=84
310904 On ch=1 n=c#4 v=0
310910 Par ch=1 c=64 v=0
310910 On ch=1 n=a3 v=76
311022 On ch=1 n=a3 v=0
311028 Par ch=1 c=64 v=127
311028 On ch=1 n=f#3 v=127
311140 On ch=1 n=f#3 v=0
311154 On ch=1 n=a3 v=77
311266 On ch=1 n=a3 v=0
311272 On ch=1 n=d4 v=84
311384 On ch=1 n=d4 v=0
311390 On ch=1 n=a4 v=92
311502 On ch=1 n=a4 v=0
311508 On ch=1 n=d4 v=85
311620 On ch=1 n=d4 v=0
311634 Par ch=1 c=64 v=0
311634 On ch=1 n=a3 v=78
311746 On ch=1 n=a3 v=0
311752 Par ch=1 c=64 v=127
311752 On ch=1 n=f#3 v=127
311864 On ch=1 n=f#3 v=0
311870 On ch=1 n=g#3 v=79
311982 On ch=1 n=g#3 v=0
311988 On ch=1 n=d4 v=89
312100 On ch=1 n=d4 v=0
312114 On ch=1 n=g#4 v=98
312226 On ch=1 n=g#4 v=0
312232 On ch=1 n=g#3 v=89
312344 On ch=1 n=g#3 v=0
312350 Par ch=1 c=64 v=0
312350 On ch=1 n=f3 v=81
312462 On ch=1 n=f3 v=0
312468 Par ch=1 c=64 v=127
312468 On ch=1 n=e3 v=127
312580 On ch=1 n=e3 v=0
312594 On ch=1 n=f#3 v=78
312706 On ch=1 n=f#3 v=0
312712 On ch=1 n=a#3 v=87
312824 On ch=1 n=a#3 v=0
312830 On ch=1 n=f#4 v=95
312942 On ch=1 n=f#4 v=0
312948 On ch=1 n=a#3 v=90
313060 On ch=1 n=a#3 v=0
313074 Par ch=1 c=64 v=0
313074 On ch=1 n=f#3 v=84
313186 On ch=1 n=f#3 v=0
313192 Par ch=1 c=64 v=127
313192 On ch=1 n=d3 v=127
313304 On ch=1 n=d3 v=0
313310 On ch=1 n=f#3 v=80
313422 On ch=1 n=f#3 v=0
313428 On ch=1 n=b3 v=88
313540 On ch=1 n=b3 v=0
313554 On ch=1 n=f#4 v=98
313666 On ch=1 n=f#4 v=0
313672 On ch=1 n=b3 v=86
313784 On ch=1 n=b3 v=0
313790 Par ch=1 c=64 v=0
313790 On ch=1 n=f#3 v=79
313902 On ch=1 n=f#3 v=0
313908 Par ch=1 c=64 v=127
313908 On ch=1 n=a#2 v=127
314020 On ch=1 n=a#2 v=0
314034 On ch=1 n=f#3 v=79
314146 On ch=1 n=f#3 v=0
314152 On ch=1 n=c#4 v=88
314264 On ch=1 n=c#4 v=0
314270 On ch=1 n=f#4 v=98
314382 On ch=1 n=f#4 v=0
314388 On ch=1 n=c#4 v=92
314500 On ch=1 n=c#4 v=0
314514 Par ch=1 c=64 v=0
314514 On ch=1 n=f#3 v=84
314626 On ch=1 n=f#3 v=0
314632 Par ch=1 c=64 v=127
314632 On ch=1 n=b2 v=127
314744 On ch=1 n=b2 v=0
314750 On ch=1 n=f#3 v=84
314862 On ch=1 n=f#3 v=0
314868 On ch=1 n=b3 v=92
314980 On ch=1 n=b3 v=0
314994 On ch=1 n=d4 v=107
315106 On ch=1 n=d4 v=0
315112 On ch=1 n=b3 v=91
315224 On ch=1 n=b3 v=0
315230 On ch=1 n=f#3 v=82
315230 Par ch=1 c=64 v=0
315342 On ch=1 n=f#3 v=0
315348 Par ch=1 c=64 v=127
315348 On ch=1 n=b2 v=127
315460 On ch=1 n=b2 v=0
315474 On ch=1 n=f#3 v=87
315586 On ch=1 n=f#3 v=0
315592 On ch=1 n=a#3 v=94
315704 On ch=1 n=a#3 v=0
315710 On ch=1 n=e4 v=103
315822 On ch=1 n=e4 v=0
315828 On ch=1 n=a#3 v=96
315940 On ch=1 n=a#3 v=0
315954 Par ch=1 c=64 v=0
315954 On ch=1 n=f#3 v=87
316066 On ch=1 n=f#3 v=0
316072 Par ch=1 c=64 v=127
316072 On ch=1 n=b2 v=127
316184 On ch=1 n=b2 v=0
316190 On ch=1 n=f#3 v=80
316302 On ch=1 n=f#3 v=0
316308 On ch=1 n=b3 v=89
316420 On ch=1 n=b3 v=0
316434 On ch=1 n=d4 v=98
316546 On ch=1 n=d4 v=0
316552 On ch=1 n=b3 v=94
316664 On ch=1 n=b3 v=0
316670 Par ch=1 c=64 v=0
316670 On ch=1 n=f#3 v=84
316782 On ch=1 n=f#3 v=0
316788 Par ch=1 c=64 v=127
316788 On ch=1 n=b2 v=127
316900 On ch=1 n=b2 v=0
316914 On ch=1 n=f#3 v=77
317026 On ch=1 n=f#3 v=0
317032 On ch=1 n=a#3 v=88
317144 On ch=1 n=a#3 v=0
317150 On ch=1 n=e4 v=103
317262 On ch=1 n=e4 v=0
317268 On ch=1 n=a#3 v=91
317380 On ch=1 n=a#3 v=0
317394 Par ch=1 c=64 v=0
317394 On ch=1 n=f#3 v=84
317506 On ch=1 n=f#3 v=0
317512 Par ch=1 c=64 v=127
317512 On ch=1 n=b2 v=127
317624 On ch=1 n=b2 v=0
317630 On ch=1 n=f#3 v=79
317742 On ch=1 n=f#3 v=0
317748 On ch=1 n=b3 v=88
317860 On ch=1 n=b3 v=0
317874 On ch=1 n=f#4 v=97
317986 On ch=1 n=f#4 v=0
317992 On ch=1 n=d4 v=86
318104 On ch=1 n=d4 v=0
318110 Par ch=1 c=64 v=0
318110 On ch=1 n=b3 v=79
318222 On ch=1 n=b3 v=0
318228 Par ch=1 c=64 v=127
318228 On ch=1 n=a#3 v=127
318340 On ch=1 n=a#3 v=0
318354 On ch=1 n=c#4 v=69
318466 On ch=1 n=c#4 v=0
318472 On ch=1 n=f#4 v=83
318584 On ch=1 n=f#4 v=0
318590 On ch=1 n=c#5 v=95
318702 On ch=1 n=c#5 v=0
318708 On ch=1 n=f#4 v=79
318820 On ch=1 n=f#4 v=0
318834 Par ch=1 c=64 v=0
318834 On ch=1 n=c#4 v=69
318946 On ch=1 n=c#4 v=0
318952 Par ch=1 c=64 v=127
318952 On ch=1 n=a3 v=127
319064 On ch=1 n=a3 v=0
319070 On ch=1 n=d#4 v=78
319182 On ch=1 n=d#4 v=0
319188 On ch=1 n=f#4 v=89
319300 On ch=1 n=f#4 v=0
319314 On ch=1 n=c5 v=101
319426 On ch=1 n=c5 v=0
319432 On ch=1 n=f#4 v=86
319544 On ch=1 n=f#4 v=0
319550 Par ch=1 c=64 v=0
319550 On ch=1 n=d#4 v=75
319662 On ch=1 n=d#4 v=0
319668 Par ch=1 c=64 v=127
319668 On ch=1 n=g#3 v=127
319780 On ch=1 n=g#3 v=0
319794 On ch=1 n=b3 v=72
319906 On ch=1 n=b3 v=0
319912 On ch=1 n=f4 v=83
320024 On ch=1 n=f4 v=0
320030 On ch=1 n=b4 v=99
320142 On ch=1 n=b4 v=0
320148 On ch=1 n=f4 v=82
320260 On ch=1 n=f4 v=0
320274 Par ch=1 c=64 v=0
320274 On ch=1 n=b3 v=70
320386 On ch=1 n=b3 v=0
320392 Par ch=1 c=64 v=127
320392 On ch=1 n=g3 v=127
320504 On ch=1 n=g3 v=0
320510 On ch=1 n=b3 v=88
320622 On ch=1 n=b3 v=0
320628 On ch=1 n=e4 v=95
320740 On ch=1 n=e4 v=0
320754 On ch=1 n=b4 v=102
320866 On ch=1 n=b4 v=0
320872 On ch=1 n=e4 v=98
320984 On ch=1 n=e4 v=0
320990 Par ch=1 c=64 v=0
320990 On ch=1 n=b3 v=88
321102 On ch=1 n=b3 v=0
321108 Par ch=1 c=64 v=127
321108 On ch=1 n=f#3 v=127
321220 On ch=1 n=f#3 v=0
321234 On ch=1 n=b3 v=78
321346 On ch=1 n=b3 v=0
321352 On ch=1 n=f#4 v=88
321464 On ch=1 n=f#4 v=0
321470 On ch=1 n=b4 v=98
321582 On ch=1 n=b4 v=0
321588 On ch=1 n=f#4 v=88
321700 On ch=1 n=f#4 v=0
321714 Par ch=1 c=64 v=0
321714 On ch=1 n=b3 v=78
321826 On ch=1 n=b3 v=0
321832 Par ch=1 c=64 v=127
321832 On ch=1 n=f3 v=127
321944 On ch=1 n=f3 v=0
321950 On ch=1 n=g3 v=79
322062 On ch=1 n=g3 v=0
322068 On ch=1 n=b3 v=87
322180 On ch=1 n=b3 v=0
322194 On ch=1 n=g4 v=92
322306 On ch=1 n=g4 v=0
322312 On ch=1 n=b3 v=84
322424 On ch=1 n=b3 v=0
322430 On ch=1 n=g3 v=75
322434 Par ch=1 c=64 v=0
322542 On ch=1 n=g3 v=0
322548 Par ch=1 c=64 v=127
322548 On ch=1 n=e3 v=127
322660 On ch=1 n=e3 v=0
322674 On ch=1 n=g3 v=63
322786 On ch=1 n=g3 v=0
322792 On ch=1 n=c4 v=70
322904 On ch=1 n=c4 v=0
322910 On ch=1 n=g4 v=78
323022 On ch=1 n=g4 v=0
323028 On ch=1 n=c4 v=72
323140 On ch=1 n=c4 v=0
323154 Par ch=1 c=64 v=0
323154 On ch=1 n=g3 v=65
323266 On ch=1 n=g3 v=0
323272 On ch=1 n=f#3 v=126
323272 Par ch=1 c=64 v=127
323384 On ch=1 n=f#3 v=0
323390 On ch=1 n=c#4 v=64
323502 On ch=1 n=c#4 v=0
323508 On ch=1 n=e4 v=70
323620 On ch=1 n=e4 v=0
323634 On ch=1 n=f#4 v=78
323746 On ch=1 n=f#4 v=0
323752 On ch=1 n=e4 v=71
323864 On ch=1 n=e4 v=0
323870 Par ch=1 c=64 v=0
323870 On ch=1 n=c#4 v=64
323982 On ch=1 n=c#4 v=0
323988 On ch=1 n=b2 v=123
323988 Par ch=1 c=64 v=127
324232 On ch=1 n=f#4 v=73
324268 On ch=1 n=b2 v=0
324340 On ch=1 n=f#4 v=0
324350 On ch=1 n=d5 v=84
324458 On ch=1 n=d5 v=0
324468 On ch=1 n=b4 v=103
324576 On ch=1 n=b4 v=0
324594 On ch=1 n=f#4 v=84
324594 Par ch=1 c=64 v=0
324702 On ch=1 n=f#4 v=0
324712 On ch=1 n=b3 v=127
324712 Par ch=1 c=64 v=127
324820 On ch=1 n=b3 v=0
324830 On ch=1 n=e4 v=69
324938 On ch=1 n=e4 v=0
324957 On ch=1 n=g4 v=87
325065 On ch=1 n=g4 v=0
325074 On ch=1 n=e5 v=100
325182 On ch=1 n=e5 v=0
325192 On ch=1 n=g4 v=83
325300 On ch=1 n=g4 v=0
325310 Par ch=1 c=64 v=0
325310 On ch=1 n=e4 v=73
325418 On ch=1 n=e4 v=0
325428 On ch=1 n=b3 v=127
325428 Par ch=1 c=64 v=127
325536 On ch=1 n=b3 v=0
325554 On ch=1 n=f#4 v=82
325662 On ch=1 n=f#4 v=0
325672 On ch=1 n=b4 v=92
325780 On ch=1 n=b4 v=0
325799 On ch=1 n=d5 v=102
325907 On ch=1 n=d5 v=0
325908 On ch=1 n=b4 v=85
326016 On ch=1 n=b4 v=0
326034 Par ch=1 c=64 v=0
326034 On ch=1 n=f#4 v=74
326142 On ch=1 n=f#4 v=0
326152 On ch=1 n=b3 v=121
326152 Par ch=1 c=64 v=127
326260 On ch=1 n=b3 v=0
326270 On ch=1 n=e4 v=69
326378 On ch=1 n=e4 v=0
326388 On ch=1 n=g4 v=82
326496 On ch=1 n=g4 v=0
326514 On ch=1 n=e5 v=90
326622 On ch=1 n=e5 v=0
326632 On ch=1 n=g4 v=76
326740 On ch=1 n=g4 v=0
326750 Par ch=1 c=64 v=0
326750 On ch=1 n=e4 v=67
326858 On ch=1 n=e4 v=0
326868 Par ch=1 c=64 v=127
326868 On ch=1 n=b3 v=125
326868 On ch=1 n=b3 v=76
326976 On ch=1 n=b3 v=0
326976 On ch=1 n=b3 v=0
326994 On ch=1 n=f#4 v=67
327102 On ch=1 n=f#4 v=0
327112 On ch=1 n=b4 v=78
327220 On ch=1 n=b4 v=0
327239 On ch=1 n=d5 v=94
327347 On ch=1 n=d5 v=0
327348 On ch=1 n=b4 v=78
327456 On ch=1 n=b4 v=0
327474 Par ch=1 c=64 v=0
327474 On ch=1 n=f#4 v=69
327582 On ch=1 n=f#4 v=0
327592 Par ch=1 c=64 v=127
327592 On ch=1 n=e4 v=100
327700 On ch=1 n=e4 v=0
327710 On ch=1 n=g4 v=74
327818 On ch=1 n=g4 v=0
327828 On ch=1 n=b4 v=79
327936 On ch=1 n=b4 v=0
327954 On ch=1 n=e5 v=84
328062 On ch=1 n=e5 v=0
328072 On ch=1 n=b4 v=79
328180 On ch=1 n=b4 v=0
328190 Par ch=1 c=64 v=0
328190 On ch=1 n=g4 v=71
328298 On ch=1 n=g4 v=0
328308 Par ch=1 c=64 v=127
328308 On ch=1 n=d4 v=123
328416 On ch=1 n=d4 v=0
328434 On ch=1 n=a4 v=71
328542 On ch=1 n=a4 v=0
328552 On ch=1 n=d5 v=77
328660 On ch=1 n=d5 v=0
328679 On ch=1 n=f#5 v=83
328787 On ch=1 n=f#5 v=0
328788 On ch=1 n=d5 v=75
328896 On ch=1 n=d5 v=0
328914 Par ch=1 c=64 v=0
328914 On ch=1 n=a4 v=69
329022 On ch=1 n=a4 v=0
329032 Par ch=1 c=64 v=127
329032 On ch=1 n=g4 v=123
329140 On ch=1 n=g4 v=0
329150 On ch=1 n=a#4 v=67
329258 On ch=1 n=a#4 v=0
329268 On ch=1 n=d5 v=78
329376 On ch=1 n=d5 v=0
329394 On ch=1 n=a#5 v=89
329502 On ch=1 n=a#5 v=0
329512 On ch=1 n=d5 v=77
329620 On ch=1 n=d5 v=0
329630 Par ch=1 c=64 v=0
329630 On ch=1 n=a#4 v=67
329738 On ch=1 n=a#4 v=0
329748 Par ch=1 c=64 v=127
329748 On ch=1 n=d4 v=122
329865 On ch=1 n=d4 v=0
329874 On ch=1 n=a4 v=66
329982 On ch=1 n=a4 v=0
329992 On ch=1 n=d5 v=86
330100 On ch=1 n=d5 v=0
330119 On ch=1 n=f#5 v=100
330227 On ch=1 n=f#5 v=0
330228 On ch=1 n=d5 v=86
330336 On ch=1 n=d5 v=0
330354 Par ch=1 c=64 v=0
330354 On ch=1 n=a4 v=75
330462 On ch=1 n=a4 v=0
330472 Par ch=1 c=64 v=127
330472 On ch=1 n=d4 v=121
330580 On ch=1 n=d4 v=0
330590 On ch=1 n=g4 v=67
330698 On ch=1 n=g4 v=0
330708 On ch=1 n=a#4 v=75
330816 On ch=1 n=a#4 v=0
330834 On ch=1 n=g5 v=80
330942 On ch=1 n=g5 v=0
330952 On ch=1 n=a#4 v=74
331060 On ch=1 n=a#4 v=0
331070 Par ch=1 c=64 v=0
331070 On ch=1 n=g4 v=67
331178 On ch=1 n=g4 v=0
331188 Par ch=1 c=64 v=127
331188 On ch=1 n=d4 v=125
331296 On ch=1 n=d4 v=0
331314 On ch=1 n=a4 v=71
331422 On ch=1 n=a4 v=0
331432 On ch=1 n=d5 v=82
331540 On ch=1 n=d5 v=0
331559 On ch=1 n=f#5 v=100
331667 On ch=1 n=f#5 v=0
331668 On ch=1 n=d5 v=82
331776 On ch=1 n=d5 v=0
331794 Par ch=1 c=64 v=0
331794 On ch=1 n=a4 v=72
331902 On ch=1 n=a4 v=0
331912 Par ch=1 c=64 v=127
331912 On ch=1 n=d4 v=123
332020 On ch=1 n=d4 v=0
332030 On ch=1 n=g4 v=63
332138 On ch=1 n=g4 v=0
332148 On ch=1 n=a#4 v=74
332256 On ch=1 n=a#4 v=0
332274 On ch=1 n=g5 v=85
332382 On ch=1 n=g5 v=0
332392 On ch=1 n=a#4 v=71
332500 On ch=1 n=a#4 v=0
332510 Par ch=1 c=64 v=0
332510 On ch=1 n=g4 v=63
332618 On ch=1 n=g4 v=0
332628 On ch=1 n=d4 v=120
332628 Par ch=1 c=64 v=127
332736 On ch=1 n=d4 v=0
332754 On ch=1 n=a4 v=69
332862 On ch=1 n=a4 v=0
332872 On ch=1 n=d5 v=81
332980 On ch=1 n=d5 v=0
332999 On ch=1 n=f#5 v=100
333107 On ch=1 n=f#5 v=0
333108 On ch=1 n=d5 v=81
333216 On ch=1 n=d5 v=0
333234 Par ch=1 c=64 v=0
333234 On ch=1 n=a4 v=69
333342 On ch=1 n=a4 v=0
333352 On ch=1 n=g4 v=123
333352 Par ch=1 c=64 v=127
333460 On ch=1 n=g4 v=0
333470 On ch=1 n=b4 v=68
333578 On ch=1 n=b4 v=0
333588 On ch=1 n=d5 v=76
333696 On ch=1 n=d5 v=0
333714 On ch=1 n=b5 v=100
333822 On ch=1 n=b5 v=0
333832 On ch=1 n=d5 v=74
333940 On ch=1 n=d5 v=0
333950 Par ch=1 c=64 v=0
333950 On ch=1 n=b4 v=67
334058 On ch=1 n=b4 v=0
334068 On ch=1 n=f#4 v=123
334068 Par ch=1 c=64 v=127
334176 On ch=1 n=f#4 v=0
334194 On ch=1 n=c#5 v=70
334302 On ch=1 n=c#5 v=0
334312 On ch=1 n=e5 v=82
334420 On ch=1 n=e5 v=0
334439 On ch=1 n=a#5 v=100
334547 On ch=1 n=a#5 v=0
334548 On ch=1 n=e5 v=82
334656 On ch=1 n=e5 v=0
334674 Par ch=1 c=64 v=0
334674 On ch=1 n=c#5 v=75
334782 On ch=1 n=c#5 v=0
334792 Par ch=1 c=64 v=127
334792 On ch=1 n=b4 v=122
334900 On ch=1 n=b4 v=0
334910 On ch=1 n=d5 v=79
335018 On ch=1 n=d5 v=0
335028 On ch=1 n=f#5 v=86
335136 On ch=1 n=f#5 v=0
335154 On ch=1 n=d6 v=100
335262 On ch=1 n=d6 v=0
335272 On ch=1 n=f#5 v=83
335380 On ch=1 n=f#5 v=0
335390 Par ch=1 c=64 v=0
335390 On ch=1 n=d5 v=77
335498 On ch=1 n=d5 v=0
335508 On ch=1 n=a#4 v=126
335508 Par ch=1 c=64 v=127
335616 On ch=1 n=a#4 v=0
335634 On ch=1 n=c#5 v=74
335742 On ch=1 n=c#5 v=0
335752 On ch=1 n=f#5 v=85
335860 On ch=1 n=f#5 v=0
335879 On ch=1 n=c#6 v=98
335987 On ch=1 n=c#6 v=0
335988 On ch=1 n=f#5 v=89
336096 On ch=1 n=f#5 v=0
336114 Par ch=1 c=64 v=0
336114 On ch=1 n=c#5 v=80
336222 On ch=1 n=c#5 v=0
336232 On ch=1 n=a4 v=125
336232 Par ch=1 c=64 v=127
336340 On ch=1 n=a4 v=0
336350 On ch=1 n=b4 v=76
336458 On ch=1 n=b4 v=0
336468 On ch=1 n=f#5 v=86
336576 On ch=1 n=f#5 v=0
336594 On ch=1 n=b5 v=96
336702 On ch=1 n=b5 v=0
336712 On ch=1 n=f#5 v=83
336820 On ch=1 n=f#5 v=0
336830 On ch=1 n=b4 v=74
336834 Par ch=1 c=64 v=0
336938 On ch=1 n=b4 v=0
336948 On ch=1 n=g#4 v=127
336948 Par ch=1 c=64 v=127
337056 On ch=1 n=g#4 v=0
337074 On ch=1 n=b4 v=83
337182 On ch=1 n=b4 v=0
337192 On ch=1 n=e5 v=91
337300 On ch=1 n=e5 v=0
337319 On ch=1 n=b5 v=101
337427 On ch=1 n=b5 v=0
337428 On ch=1 n=e5 v=91
337536 On ch=1 n=e5 v=0
337554 Par ch=1 c=64 v=0
337554 On ch=1 n=b4 v=79
337662 On ch=1 n=b4 v=0
337672 On ch=1 n=g4 v=125
337672 Par ch=1 c=64 v=127
337780 On ch=1 n=g4 v=0
337790 On ch=1 n=c#5 v=84
337898 On ch=1 n=c#5 v=0
337908 On ch=1 n=e5 v=93
338016 On ch=1 n=e5 v=0
338034 On ch=1 n=a5 v=100
338034 On ch=1 n=a5 v=103
338142 On ch=1 n=a5 v=0
338142 On ch=1 n=a5 v=0
338152 On ch=1 n=e5 v=90
338260 On ch=1 n=e5 v=0
338270 Par ch=1 c=64 v=0
338270 On ch=1 n=c#5 v=80
338378 On ch=1 n=c#5 v=0
338388 On ch=1 n=f#4 v=127
338388 Par ch=1 c=64 v=127
338496 On ch=1 n=f#4 v=0
338514 On ch=1 n=a4 v=77
338622 On ch=1 n=a4 v=0
338632 On ch=1 n=d5 v=83
338740 On ch=1 n=d5 v=0
338759 On ch=1 n=a5 v=100
338867 On ch=1 n=a5 v=0
338868 On ch=1 n=d5 v=84
338976 On ch=1 n=d5 v=0
338994 Par ch=1 c=64 v=0
338994 On ch=1 n=a4 v=76
339102 On ch=1 n=a4 v=0
339112 On ch=1 n=f#4 v=127
339112 Par ch=1 c=64 v=127
339220 On ch=1 n=f#4 v=0
339230 On ch=1 n=g#4 v=79
339338 On ch=1 n=g#4 v=0
339348 On ch=1 n=d5 v=84
339456 On ch=1 n=d5 v=0
339474 On ch=1 n=g#5 v=100
339582 On ch=1 n=g#5 v=0
339592 On ch=1 n=g#4 v=84
339700 On ch=1 n=g#4 v=0
339710 Par ch=1 c=64 v=0
339710 On ch=1 n=f4 v=79
339818 On ch=1 n=f4 v=0
339828 On ch=1 n=e4 v=127
339828 Par ch=1 c=64 v=127
339936 On ch=1 n=e4 v=0
339954 On ch=1 n=f#4 v=72
340062 On ch=1 n=f#4 v=0
340072 On ch=1 n=a#4 v=80
340180 On ch=1 n=a#4 v=0
340199 On ch=1 n=e5 v=100
340307 On ch=1 n=e5 v=0
340308 On ch=1 n=a#4 v=78
340416 On ch=1 n=a#4 v=0
340434 Par ch=1 c=64 v=0
340434 On ch=1 n=f#4 v=74
340542 On ch=1 n=f#4 v=0
340552 On ch=1 n=d4 v=127
340552 Par ch=1 c=64 v=127
340660 On ch=1 n=d4 v=0
340670 On ch=1 n=f#4 v=60
340778 On ch=1 n=f#4 v=0
340788 On ch=1 n=b4 v=77
340896 On ch=1 n=b4 v=0
340914 On ch=1 n=f#5 v=90
341022 On ch=1 n=f#5 v=0
341032 On ch=1 n=b4 v=78
341140 On ch=1 n=b4 v=0
341150 Par ch=1 c=64 v=0
341150 On ch=1 n=f#4 v=70
341258 On ch=1 n=f#4 v=0
341268 On ch=1 n=a#3 v=127
341268 Par ch=1 c=64 v=127
341376 On ch=1 n=a#3 v=0
341394 On ch=1 n=f#4 v=77
341502 On ch=1 n=f#4 v=0
341512 On ch=1 n=c#5 v=87
341620 On ch=1 n=c#5 v=0
341639 On ch=1 n=e5 v=95
341747 On ch=1 n=e5 v=0
341748 On ch=1 n=c#5 v=85
341856 On ch=1 n=c#5 v=0
341874 Par ch=1 c=64 v=0
341874 On ch=1 n=f#4 v=72
341982 On ch=1 n=f#4 v=0
341992 On ch=1 n=b3 v=127
341992 Par ch=1 c=64 v=127
342100 On ch=1 n=b3 v=0
342110 On ch=1 n=f#4 v=74
342218 On ch=1 n=f#4 v=0
342228 On ch=1 n=b4 v=85
342336 On ch=1 n=b4 v=0
342354 On ch=1 n=d5 v=97
342462 On ch=1 n=d5 v=0
342472 On ch=1 n=b4 v=84
342580 On ch=1 n=b4 v=0
342590 Par ch=1 c=64 v=0
342590 On ch=1 n=f#4 v=72
342698 On ch=1 n=f#4 v=0
342708 On ch=1 n=a3 v=125
342708 Par ch=1 c=64 v=127
342816 On ch=1 n=a3 v=0
342834 On ch=1 n=d#4 v=75
342942 On ch=1 n=d#4 v=0
342952 On ch=1 n=f#4 v=84
343060 On ch=1 n=f#4 v=0
343079 On ch=1 n=c5 v=100
343187 On ch=1 n=c5 v=0
343188 On ch=1 n=f#4 v=84
343296 On ch=1 n=f#4 v=0
343314 Par ch=1 c=64 v=0
343314 On ch=1 n=d#4 v=76
343422 On ch=1 n=d#4 v=0
343432 On ch=1 n=g3 v=127
343432 Par ch=1 c=64 v=127
343540 On ch=1 n=g3 v=0
343550 On ch=1 n=b3 v=73
343658 On ch=1 n=b3 v=0
343668 On ch=1 n=e4 v=82
343776 On ch=1 n=e4 v=0
343794 On ch=1 n=b4 v=100
343902 On ch=1 n=b4 v=0
343912 On ch=1 n=e4 v=80
344020 On ch=1 n=e4 v=0
344030 Par ch=1 c=64 v=0
344030 On ch=1 n=b3 v=77
344138 On ch=1 n=b3 v=0
344148 On ch=1 n=f#3 v=127
344148 Par ch=1 c=64 v=127
344256 On ch=1 n=f#3 v=0
344274 On ch=1 n=b3 v=72
344382 On ch=1 n=b3 v=0
344392 On ch=1 n=f#4 v=83
344500 On ch=1 n=f#4 v=0
344519 On ch=1 n=b4 v=100
344627 On ch=1 n=b4 v=0
344628 On ch=1 n=f#4 v=83
344736 On ch=1 n=f#4 v=0
344754 Par ch=1 c=64 v=0
344754 On ch=1 n=b3 v=77
344862 On ch=1 n=b3 v=0
344872 Par ch=1 c=64 v=127
344872 On ch=1 n=e3 v=100
344980 On ch=1 n=e3 v=0
344990 On ch=1 n=a#3 v=74
345098 On ch=1 n=a#3 v=0
345108 On ch=1 n=c#4 v=79
345216 On ch=1 n=c#4 v=0
345234 On ch=1 n=a#4 v=100
345342 On ch=1 n=a#4 v=0
345352 On ch=1 n=c#4 v=86
345460 On ch=1 n=c#4 v=0
345470 Par ch=1 c=64 v=0
345470 On ch=1 n=a#3 v=81
345578 On ch=1 n=a#3 v=0
345588 On ch=1 n=e3 v=124
345588 Par ch=1 c=64 v=127
345696 On ch=1 n=e3 v=0
345714 On ch=1 n=a#3 v=70
345822 On ch=1 n=a#3 v=0
345832 On ch=1 n=c#4 v=81
345940 On ch=1 n=c#4 v=0
345959 On ch=1 n=g4 v=100
346067 On ch=1 n=g4 v=0
346068 On ch=1 n=c#4 v=82
346176 On ch=1 n=c#4 v=0
346194 Par ch=1 c=64 v=0
346194 On ch=1 n=a#3 v=69
346302 On ch=1 n=a#3 v=0
346312 On ch=1 n=e3 v=125
346312 Par ch=1 c=64 v=127
346420 On ch=1 n=e3 v=0
346430 On ch=1 n=f#3 v=66
346538 On ch=1 n=f#3 v=0
346548 On ch=1 n=a#3 v=77
346656 On ch=1 n=a#3 v=0
346674 On ch=1 n=f#4 v=100
346782 On ch=1 n=f#4 v=0
346792 On ch=1 n=a#3 v=77
346900 On ch=1 n=a#3 v=0
346910 Par ch=1 c=64 v=0
346910 On ch=1 n=f#3 v=69
347018 On ch=1 n=f#3 v=0
347028 On ch=1 n=d3 v=127
347028 Par ch=1 c=64 v=127
347136 On ch=1 n=d3 v=0
347154 On ch=1 n=g3 v=84
347262 On ch=1 n=g3 v=0
347272 On ch=1 n=a#3 v=90
347380 On ch=1 n=a#3 v=0
347399 On ch=1 n=g4 v=111
347507 On ch=1 n=g4 v=0
347508 On ch=1 n=a#3 v=102
347616 On ch=1 n=a#3 v=0
347634 Par ch=1 c=64 v=0
347634 On ch=1 n=g3 v=92
347742 On ch=1 n=g3 v=0
347752 On ch=1 n=d3 v=122
347752 Par ch=1 c=64 v=127
347860 On ch=1 n=d3 v=0
347870 On ch=1 n=f#3 v=78
347978 On ch=1 n=f#3 v=0
347988 On ch=1 n=b3 v=89
348096 On ch=1 n=b3 v=0
348114 On ch=1 n=f#4 v=100
348222 On ch=1 n=f#4 v=0
348232 On ch=1 n=b3 v=88
348340 On ch=1 n=b3 v=0
348350 Par ch=1 c=64 v=0
348350 On ch=1 n=f#3 v=82
348458 On ch=1 n=f#3 v=0
348468 On ch=1 n=c#3 v=127
348468 Par ch=1 c=64 v=127
348576 On ch=1 n=c#3 v=0
348594 On ch=1 n=g#3 v=77
348702 On ch=1 n=g#3 v=0
348712 On ch=1 n=c#4 v=88
348820 On ch=1 n=c#4 v=0
348839 On ch=1 n=g#4 v=100
348947 On ch=1 n=g#4 v=0
348948 On ch=1 n=c#4 v=84
349056 On ch=1 n=c#4 v=0
349074 Par ch=1 c=64 v=0
349074 On ch=1 n=g#3 v=74
349182 On ch=1 n=g#3 v=0
349192 On ch=1 n=f#3 v=127
349192 Par ch=1 c=64 v=127
349300 On ch=1 n=f#3 v=0
349310 On ch=1 n=c#4 v=69
349418 On ch=1 n=c#4 v=0
349428 On ch=1 n=f#4 v=80
349536 On ch=1 n=f#4 v=0
349554 On ch=1 n=c#5 v=100
349662 On ch=1 n=c#5 v=0
349672 On ch=1 n=f#4 v=83
349780 On ch=1 n=f#4 v=0
349790 Par ch=1 c=64 v=0
349790 On ch=1 n=c#4 v=77
349898 On ch=1 n=c#4 v=0
349908 On ch=1 n=b3 v=125
349908 Par ch=1 c=64 v=127
350016 On ch=1 n=b3 v=0
350034 On ch=1 n=f#4 v=80
350142 On ch=1 n=f#4 v=0
350152 On ch=1 n=b4 v=92
350260 On ch=1 n=b4 v=0
350279 On ch=1 n=d5 v=108
350387 On ch=1 n=d5 v=0
350388 On ch=1 n=b4 v=98
350496 On ch=1 n=b4 v=0
350514 Par ch=1 c=64 v=0
350514 On ch=1 n=f#4 v=87
350622 On ch=1 n=f#4 v=0
350632 On ch=1 n=f3 v=125
350632 Par ch=1 c=64 v=127
350740 On ch=1 n=f3 v=0
350750 On ch=1 n=b3 v=73
350858 On ch=1 n=b3 v=0
350868 On ch=1 n=d4 v=86
350976 On ch=1 n=d4 v=0
350994 On ch=1 n=g#4 v=99
351102 On ch=1 n=g#4 v=0
351112 On ch=1 n=d4 v=79
351220 On ch=1 n=d4 v=0
351230 Par ch=1 c=64 v=0
351230 On ch=1 n=b3 v=70
351338 On ch=1 n=b3 v=0
351348 On ch=1 n=e3 v=123
351348 Par ch=1 c=64 v=127
351456 On ch=1 n=e3 v=0
351474 On ch=1 n=a#3 v=75
351582 On ch=1 n=a#3 v=0
351592 On ch=1 n=d4 v=91
351700 On ch=1 n=d4 v=0
351719 On ch=1 n=g4 v=103
351827 On ch=1 n=g4 v=0
351828 On ch=1 n=d4 v=94
351936 On ch=1 n=d4 v=0
351954 Par ch=1 c=64 v=0
351954 On ch=1 n=a#3 v=85
352062 On ch=1 n=a#3 v=0
352072 On ch=1 n=e3 v=125
352072 Par ch=1 c=64 v=127
352180 On ch=1 n=e3 v=0
352190 On ch=1 n=a#3 v=78
352298 On ch=1 n=a#3 v=0
352308 On ch=1 n=c#4 v=91
352416 On ch=1 n=c#4 v=0
352434 On ch=1 n=f#4 v=105
352542 On ch=1 n=f#4 v=0
352552 On ch=1 n=c#4 v=91
352660 On ch=1 n=c#4 v=0
352670 Par ch=1 c=64 v=0
352670 On ch=1 n=a#3 v=79
352778 On ch=1 n=a#3 v=0
352788 On ch=1 n=d3 v=127
352788 Par ch=1 c=64 v=127
352896 On ch=1 n=d3 v=0
352914 On ch=1 n=f#3 v=79
353022 On ch=1 n=f#3 v=0
353032 On ch=1 n=c#4 v=90
353140 On ch=1 n=c#4 v=0
353159 On ch=1 n=f#4 v=98
353267 On ch=1 n=f#4 v=0
353268 On ch=1 n=c#4 v=88
353376 On ch=1 n=c#4 v=0
353394 Par ch=1 c=64 v=0
353394 On ch=1 n=f#3 v=78
353502 On ch=1 n=f#3 v=0
353512 On ch=1 n=d3 v=127
353512 Par ch=1 c=64 v=127
353620 On ch=1 n=d3 v=0
353630 On ch=1 n=f#3 v=72
353738 On ch=1 n=f#3 v=0
353748 On ch=1 n=b3 v=84
353856 On ch=1 n=b3 v=0
353874 On ch=1 n=f#4 v=98
353982 On ch=1 n=f#4 v=0
353992 On ch=1 n=b3 v=87
354100 On ch=1 n=b3 v=0
354110 Par ch=1 c=64 v=0
354110 On ch=1 n=f#3 v=76
354218 On ch=1 n=f#3 v=0
354228 On ch=1 n=c#3 v=127
354228 Par ch=1 c=64 v=127
354336 On ch=1 n=c#3 v=0
354354 On ch=1 n=g#3 v=77
354462 On ch=1 n=g#3 v=0
354472 On ch=1 n=c#4 v=91
354580 On ch=1 n=c#4 v=0
354599 On ch=1 n=g#4 v=104
354707 On ch=1 n=g#4 v=0
354708 On ch=1 n=c#4 v=93
354816 On ch=1 n=c#4 v=0
354834 Par ch=1 c=64 v=0
354834 On ch=1 n=g#3 v=80
354942 On ch=1 n=g#3 v=0
354952 On ch=1 n=g3 v=127
354952 Par ch=1 c=64 v=127
355060 On ch=1 n=g3 v=0
355070 On ch=1 n=b3 v=75
355178 On ch=1 n=b3 v=0
355188 On ch=1 n=e4 v=87
355296 On ch=1 n=e4 v=0
355314 On ch=1 n=b4 v=98
355422 On ch=1 n=b4 v=0
355432 On ch=1 n=e4 v=92
355540 On ch=1 n=e4 v=0
355550 Par ch=1 c=64 v=0
355550 On ch=1 n=b3 v=85
355658 On ch=1 n=b3 v=0
355668 On ch=1 n=f#3 v=124
355668 Par ch=1 c=64 v=127
355776 On ch=1 n=f#3 v=0
355794 On ch=1 n=b3 v=79
355902 On ch=1 n=b3 v=0
355912 On ch=1 n=f#4 v=86
356020 On ch=1 n=f#4 v=0
356039 On ch=1 n=b4 v=96
356147 On ch=1 n=b4 v=0
356148 On ch=1 n=f#4 v=88
356256 On ch=1 n=f#4 v=0
356274 Par ch=1 c=64 v=0
356274 On ch=1 n=b3 v=79
356382 On ch=1 n=b3 v=0
356392 On ch=1 n=f3 v=121
356392 Par ch=1 c=64 v=127
356500 On ch=1 n=f3 v=0
356510 On ch=1 n=g3 v=77
356618 On ch=1 n=g3 v=0
356628 On ch=1 n=b3 v=87
356736 On ch=1 n=b3 v=0
356754 On ch=1 n=g4 v=100
356862 On ch=1 n=g4 v=0
356872 On ch=1 n=b3 v=86
356980 On ch=1 n=b3 v=0
356990 Par ch=1 c=64 v=0
356990 On ch=1 n=g3 v=74
357098 On ch=1 n=g3 v=0
357108 On ch=1 n=e3 v=124
357108 Par ch=1 c=64 v=127
357216 On ch=1 n=e3 v=0
357234 On ch=1 n=g3 v=85
357342 On ch=1 n=g3 v=0
357352 On ch=1 n=c4 v=96
357460 On ch=1 n=c4 v=0
357479 On ch=1 n=g4 v=110
357587 On ch=1 n=g4 v=0
357588 On ch=1 n=c4 v=101
357696 On ch=1 n=c4 v=0
357714 Par ch=1 c=64 v=0
357714 On ch=1 n=g3 v=90
357822 On ch=1 n=g3 v=0
357832 On ch=1 n=e3 v=127
357832 Par ch=1 c=64 v=127
357940 On ch=1 n=e3 v=0
357950 On ch=1 n=f#3 v=82
358058 On ch=1 n=f#3 v=0
358068 On ch=1 n=c#4 v=92
358176 On ch=1 n=c#4 v=0
358194 On ch=1 n=f#4 v=100
358194 On ch=1 n=f#4 v=103
358302 On ch=1 n=f#4 v=0
358302 On ch=1 n=f#4 v=0
358312 On ch=1 n=c#4 v=95
358420 On ch=1 n=c#4 v=0
358430 Par ch=1 c=64 v=0
358430 On ch=1 n=f#3 v=86
358538 On ch=1 n=f#3 v=0
358548 On ch=1 n=d3 v=127
358548 Par ch=1 c=64 v=127
358656 On ch=1 n=d3 v=0
358674 On ch=1 n=f#3 v=87
358782 On ch=1 n=f#3 v=0
358792 On ch=1 n=b3 v=96
358900 On ch=1 n=b3 v=0
358919 On ch=1 n=f#4 v=121
359027 On ch=1 n=f#4 v=0
359028 On ch=1 n=b3 v=100
359136 On ch=1 n=b3 v=0
359154 Par ch=1 c=64 v=0
359154 On ch=1 n=f#3 v=92
359262 On ch=1 n=f#3 v=0
359272 On ch=1 n=d3 v=127
359272 Par ch=1 c=64 v=127
359380 On ch=1 n=d3 v=0
359390 On ch=1 n=f#3 v=85
359498 On ch=1 n=f#3 v=0
359508 On ch=1 n=b3 v=94
359616 On ch=1 n=b3 v=0
359634 On ch=1 n=f#4 v=117
359742 On ch=1 n=f#4 v=0
359752 On ch=1 n=b3 v=97
359860 On ch=1 n=b3 v=0
359870 Par ch=1 c=64 v=0
359870 On ch=1 n=f#3 v=90
359978 On ch=1 n=f#3 v=0
359988 On ch=1 n=g3 v=125
359988 Par ch=1 c=64 v=127
360096 On ch=1 n=g3 v=0
360114 On ch=1 n=b3 v=81
360222 On ch=1 n=b3 v=0
360232 On ch=1 n=c#4 v=92
360340 On ch=1 n=c#4 v=0
360359 On ch=1 n=b4 v=119
360467 On ch=1 n=b4 v=0
360468 On ch=1 n=c#4 v=102
360576 On ch=1 n=c#4 v=0
360594 Par ch=1 c=64 v=0
360594 On ch=1 n=b3 v=79
360702 On ch=1 n=b3 v=0
360712 On ch=1 n=e3 v=123
360712 Par ch=1 c=64 v=127
360820 On ch=1 n=e3 v=0
360830 On ch=1 n=b3 v=81
360938 On ch=1 n=b3 v=0
360948 On ch=1 n=e4 v=91
361056 On ch=1 n=e4 v=0
361074 On ch=1 n=b4 v=117
361182 On ch=1 n=b4 v=0
361192 On ch=1 n=e4 v=86
361300 On ch=1 n=e4 v=0
361310 Par ch=1 c=64 v=0
361310 On ch=1 n=b3 v=75
361418 On ch=1 n=b3 v=0
361428 On ch=1 n=f#3 v=127
361428 Par ch=1 c=64 v=127
361536 On ch=1 n=f#3 v=0
361554 On ch=1 n=d4 v=89
361662 On ch=1 n=d4 v=0
361672 On ch=1 n=f#4 v=102
361780 On ch=1 n=f#4 v=0
361799 On ch=1 n=b4 v=123
361907 On ch=1 n=b4 v=0
361908 On ch=1 n=f#4 v=103
362016 On ch=1 n=f#4 v=0
362034 Par ch=1 c=64 v=0
362034 On ch=1 n=d4 v=92
362142 On ch=1 n=d4 v=0
362152 On ch=1 n=f#3 v=127
362152 Par ch=1 c=64 v=127
362260 On ch=1 n=f#3 v=0
362270 On ch=1 n=d4 v=79
362378 On ch=1 n=d4 v=0
362388 On ch=1 n=f#4 v=89
362496 On ch=1 n=f#4 v=0
362514 On ch=1 n=d5 v=120
362622 On ch=1 n=d5 v=0
362632 On ch=1 n=f#4 v=89
362740 On ch=1 n=f#4 v=0
362750 Par ch=1 c=64 v=0
362750 On ch=1 n=d4 v=74
362858 On ch=1 n=d4 v=0
362868 On ch=1 n=f#3 v=127
362868 Par ch=1 c=64 v=127
362976 On ch=1 n=f#3 v=0
362994 On ch=1 n=c#4 v=84
363102 On ch=1 n=c#4 v=0
363112 On ch=1 n=f4 v=98
363220 On ch=1 n=f4 v=0
363239 On ch=1 n=b4 v=120
363347 On ch=1 n=b4 v=0
363348 On ch=1 n=f4 v=98
363456 On ch=1 n=f4 v=0
363474 Par ch=1 c=64 v=0
363474 On ch=1 n=c#4 v=88
363582 On ch=1 n=c#4 v=0
363592 On ch=1 n=f#3 v=127
363592 Par ch=1 c=64 v=127
363700 On ch=1 n=f#3 v=0
363710 On ch=1 n=c#4 v=104
363818 On ch=1 n=c#4 v=0
363828 On ch=1 n=e4 v=108
363936 On ch=1 n=e4 v=0
363954 On ch=1 n=a#4 v=126
364062 On ch=1 n=a#4 v=0
364072 On ch=1 n=e4 v=127
364180 On ch=1 n=e4 v=0
364190 On ch=1 n=c#4 v=127
364190 Par ch=1 c=64 v=0
364298 On ch=1 n=c#4 v=0
364308 On ch=1 n=d#4 v=127
364308 Par ch=1 c=64 v=127
364317 On ch=1 n=b3 v=127
364317 On ch=1 n=d#5 v=127
364326 On ch=1 n=f#4 v=127
364670 On ch=1 n=f#4 v=0
364688 On ch=1 n=d#5 v=0
364688 On ch=1 n=d#4 v=0
364706 On ch=1 n=b3 v=0
366348 Par ch=1 c=64 v=0
366472 On ch=1 n=c#3 v=127
367188 Par ch=1 c=64 v=127
367188 On ch=1 n=f#3 v=100
367188 On ch=1 n=f#2 v=100
367197 On ch=1 n=c#3 v=0
367704 On ch=1 n=f#2 v=0
367722 On ch=1 n=f#3 v=0
367912 Par ch=1 c=64 v=0
367912 On ch=1 n=c#5 v=100
367912 On ch=1 n=e5 v=100
367912 On ch=1 n=g4 v=100
367912 On ch=1 n=b4 v=100
368157 On ch=1 n=f#5 v=115
368175 On ch=1 n=e5 v=0
368392 Par ch=1 c=64 v=127
368392 On ch=1 n=g5 v=121
368410 On ch=1 n=f#5 v=0
368564 On ch=1 n=c#5 v=0
368591 On ch=1 n=b4 v=0
368591 On ch=1 n=g4 v=0
368628 On ch=1 n=g5 v=0
368637 On ch=1 n=c#5 v=126
369352 On ch=1 n=e5 v=121
369352 On ch=1 n=a#4 v=121
369352 On ch=1 n=f#4 v=121
369388 On ch=1 n=c#5 v=0
370031 On ch=1 n=a#4 v=0
370049 On ch=1 n=f#4 v=0
370049 On ch=1 n=e5 v=0
370068 On ch=1 n=f#4 v=127
370077 On ch=1 n=b3 v=127
370086 On ch=1 n=d#5 v=127
370430 On ch=1 n=d#5 v=0
370448 On ch=1 n=f#4 v=0
370466 On ch=1 n=b3 v=0
372108 Par ch=1 c=64 v=0
372232 On ch=1 n=c#3 v=127
372948 On ch=1 n=f#3 v=100
372957 On ch=1 n=c#3 v=0
372957 On ch=1 n=f#2 v=100
373473 On ch=1 n=f#2 v=0
373482 On ch=1 n=f#3 v=0
373672 On ch=1 n=b4 v=120
373672 On ch=1 n=g4 v=120
373672 On ch=1 n=e5 v=120
373672 On ch=1 n=c#5 v=120
373917 On ch=1 n=f#5 v=126
373935 On ch=1 n=e5 v=0
374152 On ch=1 n=g5 v=127
374170 On ch=1 n=f#5 v=0
374324 On ch=1 n=c#5 v=0
374351 On ch=1 n=g4 v=0
374351 On ch=1 n=b4 v=0
374388 On ch=1 n=g5 v=0
374397 On ch=1 n=c#5 v=127
375112 On ch=1 n=e5 v=127
375112 On ch=1 n=a#4 v=127
375112 On ch=1 n=f#4 v=127
375148 On ch=1 n=c#5 v=0
375791 On ch=1 n=a#4 v=0
375809 On ch=1 n=f#4 v=0
375809 On ch=1 n=e5 v=0
375828 On ch=1 n=b3 v=105
376072 On ch=1 n=d#5 v=75
376117 On ch=1 n=b3 v=0
376308 On ch=1 n=f#4 v=88
376317 On ch=1 n=d#4 v=88
376344 On ch=1 n=d#5 v=0
376552 On ch=1 n=a#3 v=100
376570 On ch=1 n=f#4 v=0
376588 On ch=1 n=d#4 v=0
376788 On ch=1 n=d#5 v=76
376851 On ch=1 n=a#3 v=0
377032 On ch=1 n=f#4 v=88
377032 On ch=1 n=d#4 v=88
377050 On ch=1 n=d#5 v=0
377268 On ch=1 n=d#4 v=0
377268 On ch=1 n=f#4 v=0
377268 On ch=1 n=a#3 v=104
377512 On ch=1 n=d#5 v=74
377584 On ch=1 n=a#3 v=0
377757 On ch=1 n=g4 v=84
377757 On ch=1 n=d#4 v=84
377793 On ch=1 n=d#5 v=0
378001 On ch=1 n=g#3 v=111
378010 On ch=1 n=g4 v=0
378028 On ch=1 n=d#4 v=0
378228 On ch=1 n=d#5 v=74
378273 On ch=1 n=g#3 v=0
378472 On ch=1 n=d#4 v=83
378472 On ch=1 n=g#4 v=83
378499 On ch=1 n=d#5 v=0
378708 On ch=1 n=g#4 v=0
378708 On ch=1 n=d#4 v=0
378708 On ch=1 n=c#4 v=101
378952 On ch=1 n=e5 v=74
378988 On ch=1 n=c#4 v=0
379197 On ch=1 n=g#4 v=87
379197 On ch=1 n=e4 v=87
379206 On ch=1 n=e5 v=0
379432 On ch=1 n=b3 v=103
379450 On ch=1 n=e4 v=0
379459 On ch=1 n=g#4 v=0
379677 On ch=1 n=e5 v=76
379704 On ch=1 n=b3 v=0
379912 On ch=1 n=g#4 v=90
379912 On ch=1 n=e4 v=90
379948 On ch=1 n=e5 v=0
380148 On ch=1 n=e4 v=0
380148 On ch=1 n=g#4 v=0
380157 On ch=1 n=b3 v=110
380392 On ch=1 n=e5 v=77
380419 On ch=1 n=b3 v=0
380628 On ch=1 n=a4 v=87
380637 On ch=1 n=e4 v=88
380646 On ch=1 n=e5 v=0
380872 On ch=1 n=a#3 v=110
380890 On ch=1 n=a4 v=0
380908 On ch=1 n=e4 v=0
381126 On ch=1 n=e5 v=66
381135 On ch=1 n=a#3 v=0
381352 On ch=1 n=e4 v=90
381352 On ch=1 n=a#4 v=90
381379 On ch=1 n=e5 v=0
381588 On ch=1 n=a#4 v=0
381588 On ch=1 n=e4 v=0
381588 On ch=1 n=d#4 v=117
381832 On ch=1 n=f#5 v=70
381859 On ch=1 n=d#4 v=0
382068 On ch=1 n=f#4 v=84
382077 On ch=1 n=a#4 v=84
382095 On ch=1 n=f#5 v=0
382312 On ch=1 n=c#4 v=100
382321 On ch=1 n=a#4 v=0
382321 On ch=1 n=f#4 v=0
382557 On ch=1 n=f#5 v=67
382584 On ch=1 n=c#4 v=0
382792 On ch=1 n=a#4 v=87
382792 On ch=1 n=f#4 v=87
382801 On ch=1 n=f#5 v=0
383028 On ch=1 n=f#4 v=0
383037 On ch=1 n=a#4 v=0
383037 On ch=1 n=c#4 v=107
383272 On ch=1 n=f#5 v=79
383290 On ch=1 n=c#4 v=0
383508 On ch=1 n=d#5 v=98
383517 On ch=1 n=f#4 v=98
383535 On ch=1 n=f#5 v=0
383752 On ch=1 n=c4 v=118
383770 On ch=1 n=f#4 v=0
383779 On ch=1 n=d#5 v=0
383988 On ch=1 n=f#5 v=81
384015 On ch=1 n=c4 v=0
384232 On ch=1 n=d#5 v=106
384232 On ch=1 n=g#4 v=106
384250 On ch=1 n=f#5 v=0
384440 On ch=1 n=g#4 v=0
384468 On ch=1 n=d#5 v=0
384468 On ch=1 n=c#4 v=100
384477 On ch=1 n=g#4 v=100
384477 On ch=1 n=e5 v=100
384902 On ch=1 n=e5 v=0
384920 On ch=1 n=c#4 v=0
384929 On ch=1 n=g#4 v=0
384948 On ch=1 n=a#4 v=118
384948 On ch=1 n=e5 v=118
384957 On ch=1 n=a#5 v=118
384957 On ch=1 n=c#5 v=118
385165 On ch=1 n=c#5 v=0
385183 On ch=1 n=e5 v=0
385192 On ch=1 n=c#5 v=119
385192 On ch=1 n=e5 v=119
385192 On ch=1 n=b5 v=119
385201 On ch=1 n=a#5 v=0
385201 On ch=1 n=b4 v=119
385210 On ch=1 n=a#4 v=0
385428 On ch=1 n=c#5 v=0
385437 On ch=1 n=b5 v=0
385446 On ch=1 n=e5 v=0
385464 On ch=1 n=b4 v=0
385672 On ch=1 n=c#5 v=120
385672 On ch=1 n=c#4 v=120
385908 On ch=1 n=c#4 v=0
385908 On ch=1 n=c#5 v=0
385917 On ch=1 n=e5 v=121
385926 On ch=1 n=e4 v=121
386170 On ch=1 n=e5 v=0
386179 On ch=1 n=e4 v=0
386388 On ch=1 n=g#4 v=122
386397 On ch=1 n=g#3 v=122
386632 On ch=1 n=b4 v=123
386632 On ch=1 n=b3 v=123
386641 On ch=1 n=g#4 v=0
386668 On ch=1 n=g#3 v=0
386886 On ch=1 n=b4 v=0
386904 On ch=1 n=b3 v=0
387112 On ch=1 n=e2 v=122
387112 On ch=1 n=e3 v=122
387320 On ch=1 n=e3 v=0
387320 On ch=1 n=e2 v=0
387348 On ch=1 n=e3 v=122
387357 On ch=1 n=e2 v=122
387828 On ch=1 n=d#2 v=127
387828 On ch=1 n=d#3 v=127
387846 On ch=1 n=e3 v=0
387864 On ch=1 n=e2 v=0
388072 On ch=1 n=g#3 v=127
388072 On ch=1 n=g#2 v=127
388081 On ch=1 n=d#3 v=0
388099 On ch=1 n=d#2 v=0
388344 On ch=1 n=g#3 v=0
388362 On ch=1 n=g#2 v=0
388552 On ch=1 n=f#3 v=127
388552 On ch=1 n=f#2 v=127
388788 On ch=1 n=f#2 v=0
388788 On ch=1 n=f#3 v=0
388788 On ch=1 n=b2 v=127
388788 On ch=1 n=b3 v=127
389032 On ch=1 n=b3 v=0
389032 On ch=1 n=a#3 v=127
389032 On ch=1 n=a#2 v=127
389050 On ch=1 n=b2 v=0
389277 On ch=1 n=a3 v=127
389277 On ch=1 n=a2 v=127
389295 On ch=1 n=a#3 v=0
389313 On ch=1 n=a#2 v=0
389512 Par ch=1 c=64 v=127
389512 On ch=1 n=g3 v=127
389512 On ch=1 n=g2 v=127
389530 On ch=1 n=a2 v=0
389530 On ch=1 n=a3 v=0
389784 On ch=1 n=g2 v=0
389784 On ch=1 n=g3 v=0
389883 Par ch=1 c=64 v=0
389992 On ch=1 n=g4 v=125
389992 On ch=1 n=g3 v=125
390228 On ch=1 n=f#4 v=127
390228 On ch=1 n=f#3 v=127
390264 On ch=1 n=g3 v=0
390282 On ch=1 n=g4 v=0
390472 On ch=1 n=f4 v=127
390472 On ch=1 n=f3 v=127
390499 On ch=1 n=f#3 v=0
390499 On ch=1 n=f#4 v=0
390717 On ch=1 n=e4 v=127
390726 On ch=1 n=e3 v=127
390735 On ch=1 n=f3 v=0
390744 On ch=1 n=f4 v=0
390952 On ch=1 n=d#3 v=127
390952 On ch=1 n=d#4 v=127
390979 On ch=1 n=e3 v=0
390979 On ch=1 n=e4 v=0
391215 On ch=1 n=d#4 v=0
391215 On ch=1 n=d#3 v=0
391432 On ch=1 n=g#4 v=117
391432 On ch=1 n=g#3 v=117
391668 On ch=1 n=g#3 v=0
391668 On ch=1 n=g#4 v=0
391668 Par ch=1 c=64 v=127
391668 On ch=1 n=e4 v=118
391668 On ch=1 n=e3 v=118
392014 Par ch=1 c=64 v=0
392148 On ch=1 n=c4 v=118
392148 On ch=1 n=c3 v=118
392184 On ch=1 n=e4 v=0
392211 On ch=1 n=e3 v=0
392392 On ch=1 n=c#4 v=119
392392 On ch=1 n=c#3 v=119
392428 On ch=1 n=c4 v=0
392437 On ch=1 n=c3 v=0
392872 On ch=1 n=f#4 v=121
392872 On ch=1 n=f#3 v=121
392890 On ch=1 n=c#3 v=0
392899 On ch=1 n=c#4 v=0
393108 On ch=1 n=f#3 v=0
393108 On ch=1 n=b2 v=127
393108 On ch=1 n=b3 v=127
393108 Par ch=1 c=64 v=127
393117 On ch=1 n=f#4 v=0
393597 On ch=1 n=b3 v=0
393651 On ch=1 n=b2 v=0
393832 On ch=1 n=f#5 v=100
393832 On ch=1 n=f#4 v=100
393832 On ch=1 n=b4 v=100
393832 On ch=1 n=d#5 v=100
394520 On ch=1 n=d#5 v=0
394520 On ch=1 n=f#4 v=0
394529 On ch=1 n=b4 v=0
394548 On ch=1 n=g#5 v=100
394557 On ch=1 n=f#4 v=100
394557 On ch=1 n=b4 v=100
394557 On ch=1 n=d#5 v=100
394566 On ch=1 n=f#5 v=0
395236 On ch=1 n=d#5 v=0
395236 On ch=1 n=f#4 v=0
395245 On ch=1 n=b4 v=0
395272 On ch=1 n=d#5 v=100
395272 On ch=1 n=f#5 v=100
395272 On ch=1 n=b4 v=100
395272 On ch=1 n=f#4 v=100
395299 On ch=1 n=g#5 v=0
395933 On ch=1 n=f#5 v=0
395969 On ch=1 n=d#5 v=0
395988 On ch=1 n=f#5 v=100
395988 On ch=1 n=d#5 v=100
395988 On ch=1 n=d#6 v=100
395988 On ch=1 n=b5 v=100
396042 On ch=1 n=f#4 v=0
396051 On ch=1 n=b4 v=0
397844 On ch=1 n=b5 v=0
397844 On ch=1 n=d#6 v=0
397871 On ch=1 n=f#5 v=0
397880 On ch=1 n=d#5 v=0
398498 Par ch=1 c=64 v=0
398632 On ch=1 n=f#3 v=100
398632 On ch=1 n=f#2 v=100
398868 On ch=1 n=b3 v=100
398868 On ch=1 n=b2 v=100
398913 On ch=1 n=f#2 v=0
398922 On ch=1 n=f#3 v=0
399130 On ch=1 n=b2 v=0
399148 On ch=1 n=b3 v=0
400072 On ch=1 n=f#3 v=113
400072 On ch=1 n=f#2 v=113
400308 On ch=1 n=b2 v=115
400317 On ch=1 n=b3 v=115
400326 On ch=1 n=f#3 v=0
400398 On ch=1 n=f#2 v=0
400588 On ch=1 n=b2 v=0
400597 On ch=1 n=b3 v=0
400788 On ch=1 n=f#2 v=114
400788 On ch=1 n=f#3 v=114
401032 On ch=1 n=b2 v=115
401032 On ch=1 n=b3 v=115
401059 On ch=1 n=f#3 v=0
401068 On ch=1 n=f#2 v=0
401286 On ch=1 n=b3 v=0
401295 On ch=1 n=b2 v=0
401512 On ch=1 n=g#3 v=123
401512 On ch=1 n=g#2 v=123
401748 On ch=1 n=b3 v=123
401748 On ch=1 n=b2 v=123
401811 On ch=1 n=g#2 v=0
401811 On ch=1 n=g#3 v=0
402028 On ch=1 n=b2 v=0
402028 On ch=1 n=b3 v=0
402943 On ch=1 n=f#3 v=95
403142 On ch=1 n=f#3 v=0
403188 On ch=1 n=f3 v=99
403396 On ch=1 n=f3 v=0
403432 On ch=1 n=e3 v=100
403622 On ch=1 n=e3 v=0
403668 On ch=1 n=d#3 v=104
403849 On ch=1 n=d#3 v=0
403912 On ch=1 n=d3 v=108
404111 On ch=1 n=d3 v=0
404148 On ch=1 n=c#3 v=113
404329 On ch=1 n=c#3 v=0
404392 On ch=1 n=c3 v=117
404573 On ch=1 n=c3 v=0
404628 Par ch=1 c=64 v=127
404628 On ch=1 n=b2 v=120
404628 On ch=1 n=b2 v=126
404875 Par ch=1 c=64 v=0
405189 On ch=1 n=b2 v=0
405189 On ch=1 n=b2 v=0
405352 Par ch=1 c=64 v=127
405352 On ch=1 n=f#3 v=108
405352 On ch=1 n=c#4 v=108
405588 Par ch=1 c=64 v=0
406049 On ch=1 n=c#4 v=0
406068 On ch=1 n=f#3 v=0
406068 Par ch=1 c=64 v=127
406068 On ch=1 n=b3 v=113
406068 On ch=1 n=f#4 v=113
406308 Par ch=1 c=64 v=0
406747 On ch=1 n=f#4 v=0
406792 On ch=1 n=f#4 v=119
406792 On ch=1 n=c#5 v=119
406792 On ch=1 n=e5 v=119
406837 On ch=1 n=b3 v=0
407480 On ch=1 n=e5 v=0
407480 On ch=1 n=f#4 v=0
407489 On ch=1 n=c#5 v=0
407508 Par ch=1 c=64 v=127
407508 On ch=1 n=b3 v=125
407508 On ch=1 n=b4 v=125
407508 On ch=1 n=f#4 v=125
408232 On ch=1 n=b4 v=0
408268 On ch=1 n=f#4 v=0
408268 On ch=1 n=b3 v=0
408828 Par ch=1 c=64 v=0
408948 On ch=1 n=f#3 v=124
408948 On ch=1 n=b2 v=124
408948 Par ch=1 c=64 v=127
409962 On ch=1 n=b2 v=0
409962 On ch=1 n=f#3 v=0
410388 On ch=1 n=d#5 v=127
410388 On ch=1 n=b5 v=127
410388 On ch=1 n=f#5 v=127
410388 On ch=1 n=d#6 v=127
411764 On ch=1 n=d#6 v=0
411764 On ch=1 n=f#5 v=0
411764 On ch=1 n=b5 v=0
411764 On ch=1 n=d#5 v=0
411764 Meta TrkEnd
TrkEnd
