MFile 1 3 480
MTrk
0 SMPTE 0 0 0 0 0
0 Tempo 517241
0 TimeSig 4/4 24 8
42240 Tempo 560747
42720 Tempo 576923
43200 Tempo 612244
43680 Tempo 645161
44160 Tempo 500000
44640 Tempo 526315
45120 Tempo 517241
45600 Tempo 508474
48000 Tempo 491803
49920 Tempo 480000
51840 Tempo 508474
52320 Tempo 472440
55680 Tempo 750000
55696 Tempo 504201
59510 Tempo 769230
59520 Tempo 517241
61440 Tempo 504201
63352 Tempo 750000
63360 Tempo 495867
65280 Tempo 487804
67200 Tempo 480000
71040 Tempo 472440
72960 Tempo 465116
76800 Tempo 483870
77040 Tempo 495867
77280 Tempo 550458
77520 Tempo 576923
77760 Tempo 600000
78000 Tempo 625000
78240 Tempo 759493
78480 Tempo 1132075
78588 Tempo 1818181
78880 Tempo 638297
79190 Tempo 1111111
79200 Tempo 530973
79781 Tempo 535714
80160 Tempo 810810
80213 Tempo 530973
80510 Tempo 461538
80640 Tempo 779220
80761 Tempo 530973
81600 Tempo 560747
82080 Tempo 740740
82365 Tempo 301507
82679 Tempo 606060
83001 Tempo 550458
84000 Tempo 660534
84150 Tempo 540540
84455 Tempo 1621621
84489 Tempo 530973
85440 Tempo 594059
86390 Tempo 2500000
86412 Tempo 530973
92160 Tempo 674157
92271 Tempo 530973
92640 Tempo 674157
92754 Tempo 530973
93120 Tempo 697674
93189 Tempo 530973
93600 Tempo 740740
93643 Tempo 535714
98880 Tempo 618556
99180 Tempo 480000
99805 Tempo 612244
99840 Tempo 508474
100320 Tempo 517241
101280 Tempo 681818
101760 Tempo 550458
102720 Tempo 566037
103200 Tempo 600000
103680 Tempo 1000000
103815 Tempo 705882
104640 Tempo 681818
105120 Tempo 750000
105360 Tempo 789473
105600 Tempo 967741
105720 Tempo 722891
106080 Tempo 712482
106825 Tempo 937500
106869 Tempo 1000000
106945 Tempo 1034482
107082 Tempo 1111111
107640 Tempo 685744
108000 Tempo 769230
108427 Tempo 681818
108960 Tempo 631578
109580 Tempo 571428
117104 Tempo 1333333
117120 Tempo 759493
117360 Tempo 566037
117600 Tempo 705882
118054 Tempo 582524
118060 Tempo 625000
118560 Tempo 698914
118860 Tempo 317460
119040 Tempo 681818
119158 Tempo 612244
119510 Tempo 685744
119570 Tempo 674157
120000 Tempo 638297
120480 Tempo 740740
120960 Tempo 681818
121440 Tempo 631578
121883 Tempo 672957
121932 Tempo 750000
122030 Tempo 631578
122880 Tempo 750000
123120 Tempo 625000
123821 Tempo 952380
123840 Tempo 1000000
123859 Tempo 625000
124320 Tempo 659340
124442 Tempo 697674
124800 Tempo 618556
126240 Tempo 606060
128640 Tempo 594059
132480 Tempo 638297
132960 Tempo 659340
133440 Tempo 689655
133920 Tempo 674157
134520 Tempo 612244
139440 Tempo 631578
141120 Tempo 689655
141600 Tempo 652173
141760 Tempo 697674
141840 Tempo 652173
142080 Tempo 674157
143820 Tempo 705882
144000 Tempo 731707
144960 Tempo 759493
145260 Tempo 821917
145310 Tempo 660534
145440 Tempo 698914
145680 Tempo 698914
145920 Tempo 660534
146046 Tempo 750000
146114 Tempo 705882
146280 Tempo 666666
149330 Tempo 821917
149801 Tempo 714285
150000 Tempo 681818
150120 Tempo 666666
152160 Tempo 769230
152430 Tempo 821917
152591 Tempo 712482
153120 Tempo 1000000
153295 Tempo 923076
153628 Tempo 712482
153763 Tempo 821917
153831 Tempo 705882
154001 Tempo 681818
154064 Tempo 659340
156480 Tempo 731707
156615 Tempo 810810
156960 Tempo 660534
157440 Tempo 740740
157920 Tempo 697674
158400 Tempo 681818
158880 Tempo 666666
160052 Tempo 672957
160126 Tempo 937500
160320 Tempo 712482
160800 Tempo 1132075
161040 Tempo 1250000
161280 Tempo 612244
163200 Tempo 582524
165120 Tempo 566037
167040 Tempo 560747
168960 Tempo 550458
170880 Tempo 530973
174720 Meta Marker "Repeat"
174720 Tempo 517241
216960 Tempo 560747
217440 Tempo 588235
217920 Tempo 638297
218400 Tempo 674157
218880 Tempo 500000
219360 Tempo 526315
219840 Tempo 517241
220320 Tempo 508474
222720 Tempo 491803
224640 Tempo 480000
226560 Tempo 508474
227040 Tempo 472440
230400 Tempo 750000
230416 Tempo 504201
234230 Tempo 769230
234240 Tempo 517241
236160 Tempo 504201
238072 Tempo 750000
238080 Tempo 495867
240000 Tempo 487804
241920 Tempo 480000
245760 Tempo 472440
247680 Tempo 465116
251520 Tempo 483870
251760 Tempo 495867
252000 Tempo 550458
252240 Tempo 576923
252480 Tempo 600000
252720 Tempo 625000
252960 Tempo 779220
253200 Tempo 1176470
253308 Tempo 1818181
253440 Tempo 1875000
253600 Tempo 638297
253910 Tempo 1111111
253920 Tempo 530973
254501 Tempo 535714
254880 Tempo 810810
254933 Tempo 530973
255230 Tempo 461538
255360 Tempo 779220
255481 Tempo 530973
256320 Tempo 560747
256800 Tempo 740740
257085 Tempo 298507
257399 Tempo 606060
257721 Tempo 550458
258720 Tempo 833333
258870 Tempo 540540
259175 Tempo 1621621
259209 Tempo 530973
260160 Tempo 582524
261110 Tempo 2500000
261132 Tempo 530973
266880 Tempo 674157
266991 Tempo 530973
267360 Tempo 674157
267474 Tempo 530973
267840 Tempo 674157
267909 Tempo 530973
268320 Tempo 697674
268363 Tempo 530973
273600 Tempo 618556
273900 Tempo 480000
274525 Tempo 612244
274560 Tempo 500000
275040 Tempo 545454
276480 Tempo 550458
277440 Tempo 566037
277920 Tempo 600000
278400 Tempo 1000000
278535 Tempo 705882
279360 Tempo 681818
279840 Tempo 750000
280080 Tempo 789473
280320 Tempo 967741
280440 Tempo 722891
280800 Tempo 712482
281545 Tempo 937500
281589 Tempo 1000000
281665 Tempo 1034482
281802 Tempo 1111111
282360 Tempo 685744
282720 Tempo 769230
283147 Tempo 681818
283680 Tempo 631578
284300 Tempo 571428
289920 Tempo 2500000
289935 Tempo 594059
291360 Tempo 1000000
291382 Tempo 666666
291824 Tempo 1333333
291840 Tempo 759493
292080 Tempo 566037
292320 Tempo 705882
292774 Tempo 582524
292780 Tempo 625000
293280 Tempo 698914
293580 Tempo 317460
293760 Tempo 681818
293878 Tempo 612244
294230 Tempo 685744
294290 Tempo 674157
294720 Tempo 638297
295200 Tempo 740740
295680 Tempo 681818
296160 Tempo 631578
296603 Tempo 672957
296652 Tempo 750000
296750 Tempo 631578
297600 Tempo 750000
297840 Tempo 625000
298541 Tempo 952380
298560 Tempo 1000000
298579 Tempo 625000
299040 Tempo 659340
299162 Tempo 697674
299520 Tempo 618556
300960 Tempo 606060
303360 Tempo 594059
307200 Tempo 612244
307680 Tempo 631578
308160 Tempo 645161
308640 Tempo 659340
309120 Tempo 582524
312960 Tempo 594059
313920 Tempo 606060
314880 Tempo 618556
315840 Tempo 681818
316320 Tempo 731707
316480 Tempo 705882
316800 Tempo 681818
318540 Tempo 705882
318720 Tempo 740740
319680 Tempo 769230
319980 Tempo 821917
320030 Tempo 672957
320160 Tempo 937500
320400 Tempo 983606
320640 Tempo 660534
320766 Tempo 750000
320834 Tempo 705882
324123 Tempo 660534
324561 Tempo 705882
327092 Tempo 698914
327840 Tempo 1034482
328015 Tempo 923076
328348 Tempo 952380
328483 Tempo 821917
328784 Tempo 697674
331200 Tempo 731707
331335 Tempo 810810
331680 Tempo 660534
332160 Tempo 740740
332640 Tempo 697674
334816 Tempo 845070
334846 Tempo 712482
335040 Tempo 1363636
335195 Tempo 800000
335520 Tempo 923076
335760 Tempo 1250000
336000 Tempo 612244
337920 Tempo 582524
339840 Tempo 566037
341760 Tempo 560747
343680 Tempo 550458
345600 Tempo 530973
349440 Tempo 517241
391680 Tempo 535714
393600 Tempo 555555
394080 Tempo 571428
394560 Tempo 588235
395520 Tempo 560747
398820 Tempo 612244
399360 Tempo 576923
399840 Tempo 566037
400320 Tempo 750000
400340 Tempo 588235
401280 Tempo 600000
401760 Tempo 612244
401970 Tempo 674157
402120 Tempo 612244
402720 Tempo 594059
403200 Tempo 750000
403210 Tempo 576923
410400 Tempo 612244
410880 Tempo 566037
422400 Tempo 550458
424320 Tempo 540540
424800 Tempo 560747
425280 Tempo 576923
425520 Tempo 588235
426120 Tempo 600000
426360 Tempo 582524
426840 Tempo 571428
432079 Tempo 521739
433038 Tempo 576923
434400 Tempo 555555
435840 Tempo 750000
435960 Tempo 526315
436320 Tempo 566037
437280 Tempo 769230
437505 Tempo 375000
437760 Tempo 750000
437867 Tempo 526315
441600 Tempo 600000
442560 Tempo 576923
443478 Tempo 566037
443520 Tempo 550458
445440 Tempo 535714
445920 Tempo 526315
447360 Tempo 526315
451200 Tempo 517241
452160 Tempo 500000
453120 Tempo 487804
455520 Tempo 480000
456000 Tempo 465116
456480 Tempo 458015
456960 Tempo 468750
458880 Tempo 500000
459360 Tempo 517241
459840 Tempo 588235
460320 Tempo 1071428
460386 Tempo 681818
460447 Tempo 1200000
460680 Tempo 681818
460800 Tempo 1200000
460800 KeySig 5 major
461016 Tempo 555555
487680 Tempo 722891
487830 Tempo 576923
488160 Tempo 689655
488640 Tempo 821917
488785 Tempo 1052631
489600 Tempo 1538461
489652 Tempo 1071428
489701 Tempo 845070
489747 Tempo 689655
491520 Tempo 594059
497280 Tempo 1000000
497331 Tempo 618556
497760 Tempo 652173
498720 Tempo 722891
498960 Tempo 779220
499073 Tempo 660534
499196 Tempo 1000000
499200 Tempo 952380
499320 Tempo 731707
499434 Tempo 594059
499680 Tempo 1276595
499860 Tempo 437956
500160 Tempo 1176470
500250 Tempo 606060
500640 Tempo 1621621
500768 Tempo 408163
501120 Tempo 685744
501195 Tempo 666666
501600 Tempo 660534
501719 Tempo 666666
502080 Tempo 821917
502165 Tempo 666666
503040 Tempo 672957
503240 Tempo 652173
504000 Tempo 1071428
504065 Tempo 689655
504562 Tempo 821917
504673 Tempo 689655
504960 Tempo 712482
504968 Tempo 631578
505468 Tempo 779220
505534 Tempo 789473
505755 Tempo 517241
505920 Tempo 712482
506040 Tempo 588235
506400 Tempo 660534
506453 Tempo 666666
506529 Tempo 705882
506717 Tempo 740740
507840 Tempo 631578
508800 Tempo 618556
512640 Tempo 600000
514560 Tempo 638297
515040 Tempo 674157
515520 Tempo 697674
516480 Tempo 606060
520320 Tempo 594059
523200 Tempo 612244
523680 Tempo 631578
523840 Tempo 652173
524160 Tempo 666666
525900 Tempo 705882
526080 Tempo 731707
527040 Tempo 740740
527340 Tempo 800000
527390 Tempo 833333
527520 Tempo 660534
527760 Tempo 698914
528000 Tempo 660534
528126 Tempo 750000
528194 Tempo 705882
528360 Tempo 666666
534240 Tempo 769230
534510 Tempo 821917
534671 Tempo 672957
535200 Tempo 983606
535375 Tempo 923076
535708 Tempo 685744
535843 Tempo 821917
535911 Tempo 705882
536081 Tempo 681818
536144 Tempo 659340
538560 Tempo 731707
538695 Tempo 810810
539040 Tempo 660534
539520 Tempo 740740
540000 Tempo 697674
540480 Tempo 681818
540960 Tempo 659340
542176 Tempo 845070
542206 Tempo 712482
542400 Tempo 833333
542880 Tempo 1000000
543120 Tempo 1200000
543360 Tempo 612244
545280 Tempo 582524
547200 Tempo 1016949
547229 Tempo 618556
549120 Tempo 1132075
549160 Tempo 659340
549600 Tempo 722891
550560 Tempo 952380
550768 Tempo 983606
550779 Tempo 712482
551400 Tempo 800000
551469 Tempo 714285
552000 Tempo 697674
552480 Tempo 666666
552960 Tempo 618556
553440 Tempo 600000
553920 Tempo 566037
554400 Tempo 550458
554880 Tempo 521739
556800 Tempo 1111111
556879 Tempo 500000
557760 Tempo 1250000
557794 Tempo 517241
558240 Tempo 566037
558480 Tempo 600000
558600 Tempo 652173
558715 Tempo 3750000
558720 Tempo 722891
559680 Tempo 731707
560619 Tempo 1034482
560640 Tempo 821917
560640 Meta TrkEnd
TrkEnd
MTrk
0 SeqSpec 43 00 01 00
0 Meta TrkName "New MIDI Track"
0 Meta 0x21 00
0 Meta 0x20 01
0 Par ch=2 c=7 v=127
0 Par ch=2 c=10 v=64
0 PrCh ch=2 p=0
1440 On ch=2 n=g6 v=94
1560 On ch=2 n=g6 v=0
1560 On ch=2 n=f#6 v=86
1680 On ch=2 n=f#6 v=0
1680 On ch=2 n=d6 v=79
1800 On ch=2 n=d6 v=0
1800 On ch=2 n=b5 v=71
1920 On ch=2 n=b5 v=0
1920 On ch=2 n=f#5 v=64
2400 On ch=2 n=b4 v=57
2400 On ch=2 n=d5 v=65
2880 On ch=2 n=d5 v=0
2880 On ch=2 n=b4 v=0
2880 On ch=2 n=f#5 v=0
2880 On ch=2 n=e5 v=89
2880 On ch=2 n=b4 v=91
2880 On ch=2 n=b5 v=91
3360 On ch=2 n=b5 v=0
3360 On ch=2 n=b4 v=0
3360 On ch=2 n=e5 v=0
3360 On ch=2 n=g5 v=106
3360 On ch=2 n=b5 v=106
3360 On ch=2 n=c#5 v=106
3360 On ch=2 n=c#6 v=106
3840 On ch=2 n=c#6 v=0
3840 On ch=2 n=c#5 v=0
3840 On ch=2 n=b5 v=0
3840 On ch=2 n=g5 v=0
3840 On ch=2 n=a#5 v=124
3840 On ch=2 n=c#5 v=124
3840 On ch=2 n=a#4 v=124
3840 On ch=2 n=f#5 v=124
4320 On ch=2 n=f#5 v=0
4320 On ch=2 n=a#4 v=0
4320 On ch=2 n=c#5 v=0
4320 On ch=2 n=a#5 v=0
4560 On ch=2 n=f#5 v=80
4560 On ch=2 n=f#4 v=80
4560 On ch=2 n=a#4 v=80
4560 On ch=2 n=c#5 v=80
4800 On ch=2 n=c#5 v=0
4800 On ch=2 n=a#4 v=0
4800 On ch=2 n=f#4 v=0
4800 On ch=2 n=f#5 v=0
4800 On ch=2 n=b4 v=86
4800 On ch=2 n=f#5 v=86
4800 On ch=2 n=b5 v=92
5040 On ch=2 n=b5 v=0
5040 On ch=2 n=f#5 v=0
5040 On ch=2 n=b4 v=0
5040 On ch=2 n=c#5 v=84
5040 On ch=2 n=c#6 v=94
5040 On ch=2 n=f#5 v=84
5040 On ch=2 n=c#5 v=84
5040 On ch=2 n=c#6 v=84
5040 On ch=2 n=f#5 v=84
5280 On ch=2 n=f#5 v=0
5280 On ch=2 n=c#6 v=0
5280 On ch=2 n=c#5 v=0
5280 On ch=2 n=f#5 v=0
5280 On ch=2 n=c#6 v=0
5280 On ch=2 n=c#5 v=0
5280 On ch=2 n=d6 v=93
5280 On ch=2 n=b5 v=93
5280 On ch=2 n=f#5 v=93
5280 On ch=2 n=d5 v=93
5520 On ch=2 n=d5 v=0
5520 On ch=2 n=f#5 v=0
5520 On ch=2 n=b5 v=0
5520 On ch=2 n=d6 v=0
5520 On ch=2 n=g5 v=103
5520 On ch=2 n=e6 v=103
5520 On ch=2 n=b5 v=103
5520 On ch=2 n=e5 v=103
5760 On ch=2 n=e5 v=0
5760 On ch=2 n=b5 v=0
5760 On ch=2 n=e6 v=0
5760 On ch=2 n=g5 v=0
5760 On ch=2 n=f#5 v=113
5760 On ch=2 n=f#6 v=113
5760 On ch=2 n=d6 v=113
5760 On ch=2 n=b5 v=113
6720 On ch=2 n=b5 v=0
6720 On ch=2 n=d6 v=0
6720 On ch=2 n=f#6 v=0
6720 On ch=2 n=f#5 v=0
6720 On ch=2 n=e6 v=117
6720 On ch=2 n=a6 v=117
6720 On ch=2 n=b5 v=117
6720 On ch=2 n=a5 v=117
7440 On ch=2 n=a5 v=0
7440 On ch=2 n=b5 v=0
7440 On ch=2 n=a6 v=0
7440 On ch=2 n=e6 v=0
7440 On ch=2 n=g6 v=93
7440 On ch=2 n=e6 v=93
7440 On ch=2 n=b5 v=93
7440 On ch=2 n=g5 v=93
7680 On ch=2 n=g5 v=0
7680 On ch=2 n=b5 v=0
7680 On ch=2 n=e6 v=0
7680 On ch=2 n=g6 v=0
7680 On ch=2 n=f#6 v=69
7680 On ch=2 n=d6 v=69
7680 On ch=2 n=b5 v=69
7680 On ch=2 n=f#5 v=69
8640 On ch=2 n=f#5 v=0
8640 On ch=2 n=b5 v=0
8640 On ch=2 n=d6 v=0
8640 On ch=2 n=f#6 v=0
8880 On ch=2 n=b6 v=100
9115 On ch=2 n=b6 v=0
9120 On ch=2 n=g6 v=89
9237 On ch=2 n=g6 v=0
9240 On ch=2 n=f#6 v=83
9357 On ch=2 n=f#6 v=0
9360 On ch=2 n=d6 v=75
9477 On ch=2 n=d6 v=0
9480 On ch=2 n=b5 v=68
9597 On ch=2 n=b5 v=0
9600 On ch=2 n=f#5 v=60
10080 On ch=2 n=b4 v=76
10080 On ch=2 n=d5 v=76
10540 On ch=2 n=f#5 v=0
10550 On ch=2 n=d5 v=0
10550 On ch=2 n=b4 v=0
10560 On ch=2 n=b5 v=91
10560 On ch=2 n=e5 v=91
10560 On ch=2 n=b4 v=91
11030 On ch=2 n=b4 v=0
11030 On ch=2 n=e5 v=0
11030 On ch=2 n=b5 v=0
11040 On ch=2 n=c#6 v=103
11040 On ch=2 n=b5 v=103
11040 On ch=2 n=g5 v=103
11040 On ch=2 n=c#5 v=103
11510 On ch=2 n=c#5 v=0
11510 On ch=2 n=g5 v=0
11510 On ch=2 n=b5 v=0
11510 On ch=2 n=c#6 v=0
11520 On ch=2 n=d5 v=120
11520 On ch=2 n=f#5 v=120
11520 On ch=2 n=b5 v=120
11520 On ch=2 n=d6 v=120
11990 On ch=2 n=d6 v=0
11990 On ch=2 n=b5 v=0
11990 On ch=2 n=f#5 v=0
11990 On ch=2 n=d5 v=0
12240 On ch=2 n=f5 v=88
12240 On ch=2 n=g#4 v=88
12240 On ch=2 n=d5 v=88
12475 On ch=2 n=d5 v=0
12475 On ch=2 n=g#4 v=0
12475 On ch=2 n=f5 v=0
12480 On ch=2 n=c#5 v=93
12480 On ch=2 n=f#5 v=93
12480 On ch=2 n=f#4 v=93
12715 On ch=2 n=f#4 v=0
12715 On ch=2 n=f#5 v=0
12715 On ch=2 n=c#5 v=0
12720 On ch=2 n=g#5 v=96
12720 On ch=2 n=g#4 v=96
12720 On ch=2 n=c#5 v=96
12952 On ch=2 n=a5 v=99
12955 On ch=2 n=c#5 v=0
12955 On ch=2 n=g#4 v=0
12955 On ch=2 n=g#5 v=0
12965 On ch=2 n=c#5 v=99
12965 On ch=2 n=a4 v=99
13184 On ch=2 n=a5 v=0
13194 On ch=2 n=b5 v=100
13194 On ch=2 n=f#5 v=100
13194 On ch=2 n=b4 v=100
13197 On ch=2 n=a4 v=0
13197 On ch=2 n=c#5 v=0
13429 On ch=2 n=b4 v=0
13429 On ch=2 n=f#5 v=0
13429 On ch=2 n=b5 v=0
13434 On ch=2 n=c#5 v=123
13434 On ch=2 n=c#6 v=123
13434 On ch=2 n=a5 v=123
13434 On ch=2 n=f#5 v=123
14374 On ch=2 n=f#5 v=0
14374 On ch=2 n=a5 v=0
14374 On ch=2 n=c#6 v=0
14374 On ch=2 n=c#5 v=0
14394 On ch=2 n=c#6 v=123
14394 On ch=2 n=g#5 v=123
14394 On ch=2 n=f#5 v=123
14394 On ch=2 n=c#5 v=123
15099 On ch=2 n=c#5 v=0
15099 On ch=2 n=f#5 v=0
15099 On ch=2 n=g#5 v=0
15099 On ch=2 n=c#6 v=0
15114 On ch=2 n=c#6 v=112
15114 On ch=2 n=g#5 v=112
15114 On ch=2 n=c#5 v=112
15122 On ch=2 n=f5 v=112
15349 On ch=2 n=c#5 v=0
15349 On ch=2 n=g#5 v=0
15349 On ch=2 n=c#6 v=0
15354 On ch=2 n=c#6 v=119
15354 On ch=2 n=a#5 v=119
15354 On ch=2 n=f#5 v=119
15354 On ch=2 n=c#5 v=119
15357 On ch=2 n=f5 v=0
15488 On ch=2 n=c#5 v=0
15488 On ch=2 n=f#5 v=0
15488 On ch=2 n=a#5 v=0
15488 On ch=2 n=c#6 v=0
15834 On ch=2 n=d#5 v=127
15834 On ch=2 n=a5 v=127
15834 On ch=2 n=b5 v=127
15834 On ch=2 n=d#6 v=127
15968 On ch=2 n=d#6 v=0
15968 On ch=2 n=b5 v=0
15968 On ch=2 n=a5 v=0
15968 On ch=2 n=d#5 v=0
16314 On ch=2 n=b6 v=93
16314 On ch=2 n=b5 v=93
16784 On ch=2 n=b5 v=0
16784 On ch=2 n=b6 v=0
16794 On ch=2 n=c6 v=57
16911 On ch=2 n=c6 v=0
16914 On ch=2 n=b5 v=52
17031 On ch=2 n=b5 v=0
17034 On ch=2 n=g5 v=47
17151 On ch=2 n=g5 v=0
17154 On ch=2 n=e5 v=42
17271 On ch=2 n=e5 v=0
17274 On ch=2 n=b4 v=42
17754 On ch=2 n=g4 v=40
17754 On ch=2 n=e4 v=32
18214 On ch=2 n=b4 v=0
18224 On ch=2 n=e4 v=0
18224 On ch=2 n=g4 v=0
18234 On ch=2 n=e4 v=51
18234 On ch=2 n=g4 v=51
18234 On ch=2 n=c5 v=51
18234 On ch=2 n=e5 v=65
18704 On ch=2 n=e5 v=0
18704 On ch=2 n=c5 v=0
18704 On ch=2 n=g4 v=0
18704 On ch=2 n=e4 v=0
18714 On ch=2 n=f#4 v=69
18714 On ch=2 n=f#5 v=77
18714 On ch=2 n=e5 v=69
18714 On ch=2 n=c5 v=69
19184 On ch=2 n=c5 v=0
19184 On ch=2 n=e5 v=0
19184 On ch=2 n=f#5 v=0
19184 On ch=2 n=f#4 v=0
19194 On ch=2 n=d#5 v=71
19194 On ch=2 n=b4 v=68
19194 On ch=2 n=f#4 v=62
19606 On ch=2 n=f#4 v=0
19606 On ch=2 n=b4 v=0
19606 On ch=2 n=d#5 v=0
19914 On ch=2 n=d#4 v=50
19914 On ch=2 n=f#4 v=40
19914 On ch=2 n=b4 v=40
20149 On ch=2 n=b4 v=0
20149 On ch=2 n=f#4 v=0
20149 On ch=2 n=d#4 v=0
20154 On ch=2 n=e5 v=60
20154 On ch=2 n=b4 v=48
20154 On ch=2 n=e4 v=48
20389 On ch=2 n=e4 v=0
20389 On ch=2 n=b4 v=0
20389 On ch=2 n=e5 v=0
20394 On ch=2 n=f#4 v=56
20394 On ch=2 n=b4 v=56
20394 On ch=2 n=f#5 v=63
20629 On ch=2 n=f#5 v=0
20629 On ch=2 n=b4 v=0
20629 On ch=2 n=f#4 v=0
20634 On ch=2 n=g5 v=73
20634 On ch=2 n=e5 v=64
20634 On ch=2 n=b4 v=64
20634 On ch=2 n=g4 v=73
20869 On ch=2 n=g4 v=0
20869 On ch=2 n=b4 v=0
20869 On ch=2 n=e5 v=0
20869 On ch=2 n=g5 v=0
20874 On ch=2 n=a5 v=76
20874 On ch=2 n=e5 v=72
20874 On ch=2 n=f#4 v=72
20874 On ch=2 n=a4 v=76
21109 On ch=2 n=a4 v=0
21109 On ch=2 n=f#4 v=0
21109 On ch=2 n=e5 v=0
21109 On ch=2 n=a5 v=0
21114 On ch=2 n=b5 v=87
21114 On ch=2 n=g5 v=80
21114 On ch=2 n=e5 v=80
21114 On ch=2 n=b4 v=80
22054 On ch=2 n=b4 v=0
22054 On ch=2 n=e5 v=0
22054 On ch=2 n=g5 v=0
22054 On ch=2 n=b5 v=0
22074 On ch=2 n=a5 v=83
22074 On ch=2 n=e5 v=83
22074 On ch=2 n=d5 v=83
22082 On ch=2 n=d6 v=89
22906 On ch=2 n=d6 v=0
22906 On ch=2 n=d5 v=0
22906 On ch=2 n=e5 v=0
22906 On ch=2 n=a5 v=0
22914 On ch=2 n=c6 v=73
22914 On ch=2 n=c6 v=73
22914 On ch=2 n=a5 v=60
23031 On ch=2 n=a5 v=0
23031 On ch=2 n=c6 v=0
23031 On ch=2 n=c6 v=0
23034 On ch=2 n=b4 v=43
23034 On ch=2 n=g5 v=37
23034 On ch=2 n=b5 v=43
23974 On ch=2 n=b5 v=0
23974 On ch=2 n=g5 v=0
23974 On ch=2 n=b4 v=0
24234 On ch=2 n=e6 v=69
24469 On ch=2 n=e6 v=0
24474 On ch=2 n=c6 v=58
24591 On ch=2 n=c6 v=0
24602 On ch=2 n=b5 v=53
24714 On ch=2 n=g5 v=44
24719 On ch=2 n=b5 v=0
24831 On ch=2 n=g5 v=0
24834 On ch=2 n=e5 v=51
24951 On ch=2 n=e5 v=0
24954 On ch=2 n=c5 v=57
25434 On ch=2 n=a#4 v=40
25434 On ch=2 n=e4 v=40
25904 On ch=2 n=e4 v=0
25904 On ch=2 n=a#4 v=0
25914 On ch=2 n=f4 v=41
25914 On ch=2 n=a4 v=41
25914 On ch=2 n=a4 v=41
25914 On ch=2 n=f4 v=41
26149 On ch=2 n=f4 v=0
26149 On ch=2 n=a4 v=0
26149 On ch=2 n=a4 v=0
26149 On ch=2 n=f4 v=0
26154 On ch=2 n=c5 v=0
26274 On ch=2 n=f6 v=68
26391 On ch=2 n=f6 v=0
26394 On ch=2 n=d6 v=66
26511 On ch=2 n=d6 v=0
26514 On ch=2 n=c6 v=59
26631 On ch=2 n=c6 v=0
26634 On ch=2 n=a5 v=46
26751 On ch=2 n=a5 v=0
26754 On ch=2 n=f5 v=53
26754 On ch=2 n=f5 v=53
26871 On ch=2 n=f5 v=0
26871 On ch=2 n=f5 v=0
26874 On ch=2 n=c#5 v=59
27354 On ch=2 n=f4 v=40
27354 On ch=2 n=b4 v=40
27824 On ch=2 n=b4 v=0
27824 On ch=2 n=f4 v=0
27834 On ch=2 n=a#4 v=47
27842 On ch=2 n=f#4 v=47
28069 On ch=2 n=a#4 v=0
28074 On ch=2 n=c#5 v=0
28077 On ch=2 n=f#4 v=0
28194 On ch=2 n=f#6 v=76
28311 On ch=2 n=f#6 v=0
28314 Par ch=2 c=64 v=127
28314 On ch=2 n=d6 v=67
28431 On ch=2 n=d6 v=0
28434 On ch=2 n=c#6 v=71
28551 On ch=2 n=c#6 v=0
28554 On ch=2 n=a#5 v=75
28671 On ch=2 n=a#5 v=0
28674 On ch=2 n=f#5 v=79
28791 On ch=2 n=f#5 v=0
28794 On ch=2 n=d5 v=84
28794 On ch=2 n=b4 v=84
29029 On ch=2 n=b4 v=0
29029 On ch=2 n=d5 v=0
29147 Par ch=2 c=64 v=44
29148 Par ch=2 c=64 v=127
29154 On ch=2 n=g6 v=93
29154 On ch=2 n=g6 v=93
29271 On ch=2 n=g6 v=0
29271 On ch=2 n=g6 v=0
29274 On ch=2 n=e6 v=84
29391 On ch=2 n=e6 v=0
29394 On ch=2 n=d6 v=88
29511 On ch=2 n=d6 v=0
29514 On ch=2 n=b5 v=93
29631 On ch=2 n=b5 v=0
29634 On ch=2 n=g5 v=97
29751 On ch=2 n=g5 v=0
29754 On ch=2 n=d#5 v=101
29754 On ch=2 n=c5 v=101
29989 On ch=2 n=c5 v=0
29989 On ch=2 n=d#5 v=0
30114 On ch=2 n=g#6 v=108
30231 On ch=2 n=g#6 v=0
30234 On ch=2 n=e6 v=91
30351 On ch=2 n=e6 v=0
30354 On ch=2 n=d#6 v=96
30471 On ch=2 n=d#6 v=0
30474 On ch=2 n=c6 v=101
30591 On ch=2 n=c6 v=0
30594 On ch=2 n=g#5 v=107
30711 On ch=2 n=g#5 v=0
30714 Par ch=2 c=64 v=127
30714 On ch=2 n=c#5 v=112
30714 On ch=2 n=e5 v=112
30949 On ch=2 n=e5 v=0
30949 On ch=2 n=c#5 v=0
31074 On ch=2 n=a6 v=122
31074 On ch=2 n=a6 v=122
31191 On ch=2 n=a6 v=0
31191 On ch=2 n=a6 v=0
31194 On ch=2 n=g6 v=98
31311 On ch=2 n=g6 v=0
31322 On ch=2 n=e6 v=104
31439 On ch=2 n=e6 v=0
31442 On ch=2 n=c#6 v=111
31554 On ch=2 n=a5 v=117
31559 On ch=2 n=c#6 v=0
31574 Par ch=2 c=64 v=0
31671 On ch=2 n=a5 v=0
31674 Par ch=2 c=64 v=127
31674 On ch=2 n=c#5 v=123
31674 On ch=2 n=a#5 v=123
31909 On ch=2 n=a#5 v=0
31909 On ch=2 n=c#5 v=0
32034 On ch=2 n=a#6 v=127
32151 On ch=2 n=a#6 v=0
32154 On ch=2 n=f#6 v=100
32271 On ch=2 n=f#6 v=0
32274 On ch=2 n=e6 v=109
32391 On ch=2 n=e6 v=0
32394 On ch=2 n=c#6 v=116
32511 On ch=2 n=c#6 v=0
32514 On ch=2 n=a#5 v=122
32524 Par ch=2 c=64 v=0
32631 On ch=2 n=a#5 v=0
32634 On ch=2 n=a#6 v=100
32634 On ch=2 n=d6 v=100
32634 On ch=2 n=a#5 v=100
32790 On ch=2 n=a#5 v=0
32790 On ch=2 n=d6 v=0
32790 On ch=2 n=a#6 v=0
32794 On ch=2 n=a6 v=112
32794 On ch=2 n=a5 v=112
32950 On ch=2 n=a5 v=0
32950 On ch=2 n=a6 v=0
32954 On ch=2 n=g6 v=118
32954 On ch=2 n=g5 v=118
33110 On ch=2 n=g5 v=0
33110 On ch=2 n=g6 v=0
33114 On ch=2 n=f6 v=124
33114 On ch=2 n=f5 v=124
33114 On ch=2 n=a#5 v=124
33570 On ch=2 n=a#5 v=0
33578 On ch=2 n=f5 v=0
33578 On ch=2 n=f6 v=0
33594 On ch=2 n=d#6 v=116
33594 On ch=2 n=g5 v=116
33594 On ch=2 n=c6 v=116
33930 On ch=2 n=d#6 v=0
33962 On ch=2 n=d#6 v=104
34058 On ch=2 n=c6 v=0
34066 On ch=2 n=g5 v=0
34074 On ch=2 n=d6 v=101
34074 On ch=2 n=a5 v=101
34074 On ch=2 n=d#5 v=101
34079 On ch=2 n=d#6 v=0
34426 On ch=2 n=d6 v=0
34434 On ch=2 n=c6 v=57
34538 On ch=2 n=d#5 v=0
34538 On ch=2 n=a5 v=0
34548 On ch=2 n=c6 v=0
34551 On ch=2 n=d5 v=40
34551 On ch=2 n=a5 v=40
34551 On ch=2 n=d6 v=65
35021 On ch=2 n=d6 v=0
35021 On ch=2 n=a5 v=0
35021 On ch=2 n=d5 v=0
35031 On ch=2 n=d6 v=65
35031 On ch=2 n=g5 v=40
35031 On ch=2 n=d5 v=40
35501 On ch=2 n=d5 v=0
35501 On ch=2 n=g5 v=0
35501 On ch=2 n=d6 v=0
35511 On ch=2 n=d#5 v=47
35511 On ch=2 n=g#5 v=47
35511 On ch=2 n=c6 v=67
35823 On ch=2 n=c6 v=0
35871 On ch=2 n=c6 v=68
35981 On ch=2 n=g#5 v=0
35981 On ch=2 n=d#5 v=0
35991 On ch=2 n=c5 v=58
35991 On ch=2 n=a#5 v=71
35991 On ch=2 n=f#5 v=58
36023 On ch=2 n=c6 v=0
36351 On ch=2 n=a5 v=74
36383 On ch=2 n=a#5 v=0
36455 On ch=2 n=f#5 v=0
36461 On ch=2 n=c5 v=0
36471 On ch=2 n=g4 v=111
36471 On ch=2 n=a#4 v=111
36471 On ch=2 n=c#5 v=111
36471 On ch=2 n=g5 v=111
36511 On ch=2 n=a5 v=0
36941 On ch=2 n=g5 v=0
36941 On ch=2 n=c#5 v=0
36941 On ch=2 n=a#4 v=0
36941 On ch=2 n=g4 v=0
37431 On ch=2 n=f#5 v=94
37551 On ch=2 n=g5 v=98
37553 On ch=2 n=f#5 v=0
37671 On ch=2 n=a#5 v=103
37673 On ch=2 n=g5 v=0
37791 On ch=2 n=c#6 v=107
37793 On ch=2 n=a#5 v=0
37911 Par ch=2 c=64 v=127
37911 On ch=2 n=f#6 v=111
37913 On ch=2 n=c#6 v=0
38031 On ch=2 n=g6 v=115
38033 On ch=2 n=f#6 v=0
38151 On ch=2 n=g7 v=119
38153 On ch=2 n=g6 v=0
38251 Par ch=2 c=64 v=0
38273 On ch=2 n=g7 v=0
38312 On ch=2 n=f#7 v=125
38365 On ch=2 n=f#7 v=0
38391 Par ch=2 c=64 v=127
38391 On ch=2 n=f7 v=127
38509 On ch=2 n=f7 v=0
38511 On ch=2 n=e7 v=127
38629 On ch=2 n=e7 v=0
38631 On ch=2 n=d#7 v=127
38749 On ch=2 n=d#7 v=0
38751 On ch=2 n=d7 v=127
38869 On ch=2 n=d7 v=0
38871 On ch=2 n=d7 v=127
38871 On ch=2 n=g#6 v=127
38871 On ch=2 n=f6 v=127
38989 On ch=2 n=f6 v=0
38989 On ch=2 n=g#6 v=0
38989 On ch=2 n=d7 v=0
38991 On ch=2 n=d#6 v=127
38991 On ch=2 n=g6 v=127
38991 On ch=2 n=c7 v=127
39109 On ch=2 n=c7 v=0
39109 On ch=2 n=g6 v=0
39109 On ch=2 n=d#6 v=0
39111 On ch=2 n=a#6 v=127
39111 On ch=2 n=d6 v=127
39111 On ch=2 n=f6 v=127
39229 On ch=2 n=f6 v=0
39229 On ch=2 n=d6 v=0
39229 On ch=2 n=a#6 v=0
39231 On ch=2 n=g#6 v=127
39231 On ch=2 n=c6 v=127
39231 On ch=2 n=d#6 v=127
39349 On ch=2 n=d#6 v=0
39349 On ch=2 n=c6 v=0
39349 On ch=2 n=g#6 v=0
39351 On ch=2 n=g6 v=127
39351 On ch=2 n=a#5 v=127
39351 On ch=2 n=d6 v=127
39469 On ch=2 n=d6 v=0
39469 On ch=2 n=a#5 v=0
39469 On ch=2 n=g6 v=0
39471 On ch=2 n=g#5 v=127
39471 On ch=2 n=c6 v=127
39479 On ch=2 n=f6 v=127
39589 On ch=2 n=c6 v=0
39589 On ch=2 n=g#5 v=0
39591 On ch=2 n=d#6 v=127
39591 On ch=2 n=g5 v=127
39591 On ch=2 n=a#5 v=127
39597 On ch=2 n=f6 v=0
39709 On ch=2 n=a#5 v=0
39709 On ch=2 n=g5 v=0
39709 On ch=2 n=d#6 v=0
39711 On ch=2 n=d6 v=127
39711 On ch=2 n=f5 v=127
39711 On ch=2 n=a5 v=127
39829 On ch=2 n=a5 v=0
39829 On ch=2 n=f5 v=0
39829 On ch=2 n=d6 v=0
39831 Par ch=2 c=64 v=0
39831 On ch=2 n=d#5 v=127
39831 On ch=2 n=c6 v=127
39831 On ch=2 n=g5 v=127
39949 On ch=2 n=g5 v=0
39949 On ch=2 n=c6 v=0
39949 On ch=2 n=d#5 v=0
39951 On ch=2 n=d5 v=127
39951 On ch=2 n=a#5 v=127
39951 On ch=2 n=f5 v=127
40069 On ch=2 n=f5 v=0
40069 On ch=2 n=a#5 v=0
40069 On ch=2 n=d5 v=0
40071 On ch=2 n=c5 v=127
40071 On ch=2 n=g#5 v=127
40071 On ch=2 n=d#5 v=127
40189 On ch=2 n=d#5 v=0
40189 On ch=2 n=g#5 v=0
40189 On ch=2 n=c5 v=0
40191 On ch=2 n=d5 v=127
40191 On ch=2 n=g5 v=127
40191 On ch=2 n=a#4 v=127
40309 On ch=2 n=a#4 v=0
40309 On ch=2 n=g5 v=0
40309 On ch=2 n=d5 v=0
40311 On ch=2 n=f5 v=127
40311 On ch=2 n=d5 v=127
40548 On ch=2 n=d5 v=0
40548 On ch=2 n=f5 v=0
40791 On ch=2 n=f5 v=120
40791 On ch=2 n=b4 v=120
40791 On ch=2 n=g#4 v=120
41271 On ch=2 n=a#4 v=113
41275 On ch=2 n=b4 v=0
41751 On ch=2 n=f#5 v=96
41751 On ch=2 n=d#5 v=96
41760 On ch=2 n=g#4 v=0
41760 On ch=2 n=f5 v=0
41983 On ch=2 n=a#4 v=0
41993 On ch=2 n=d#5 v=0
41993 On ch=2 n=f#5 v=0
42111 On ch=2 n=c5 v=66
42111 On ch=2 n=d#5 v=66
42231 On ch=2 n=d5 v=68
42231 On ch=2 n=f4 v=68
42232 On ch=2 n=d#5 v=0
42232 On ch=2 n=c5 v=0
42587 On ch=2 n=d5 v=0
42591 On ch=2 n=c#5 v=75
42706 On ch=2 n=f4 v=0
42709 On ch=2 n=c#5 v=0
42711 On ch=2 n=f4 v=80
42711 On ch=2 n=a4 v=80
42711 On ch=2 n=e5 v=80
43067 On ch=2 n=e5 v=0
43071 On ch=2 n=d#5 v=84
43186 On ch=2 n=a4 v=0
43186 On ch=2 n=f4 v=0
43189 On ch=2 n=d#5 v=0
43191 On ch=2 n=f4 v=89
43191 On ch=2 n=b4 v=89
43191 On ch=2 n=f5 v=89
43547 On ch=2 n=f5 v=0
43551 On ch=2 n=e5 v=89
43666 On ch=2 n=b4 v=0
43666 On ch=2 n=f4 v=0
43669 On ch=2 n=e5 v=0
43671 On ch=2 n=c#5 v=97
43671 On ch=2 n=e5 v=97
43671 On ch=2 n=a#5 v=97
44027 On ch=2 n=a#5 v=0
44027 On ch=2 n=e5 v=0
44027 On ch=2 n=c#5 v=0
44031 On ch=2 n=a5 v=102
44149 On ch=2 n=a5 v=0
44151 On ch=2 n=a5 v=114
44151 On ch=2 n=d6 v=114
44151 On ch=2 n=a6 v=114
45101 On ch=2 n=a6 v=0
45111 On ch=2 n=a#6 v=93
45351 On ch=2 n=a6 v=99
45353 On ch=2 n=a#6 v=0
45591 On ch=2 n=g6 v=94
45593 On ch=2 n=a6 v=0
45831 On ch=2 n=f6 v=88
45833 On ch=2 n=g6 v=0
46051 On ch=2 n=d6 v=0
46051 On ch=2 n=a5 v=0
46071 On ch=2 n=a5 v=94
46073 On ch=2 n=f6 v=0
46079 On ch=2 n=e6 v=93
46311 On ch=2 n=d6 v=87
46321 On ch=2 n=e6 v=0
46551 On ch=2 n=f6 v=84
46553 On ch=2 n=d6 v=0
46791 On ch=2 n=e6 v=82
46793 On ch=2 n=f6 v=0
47031 On ch=2 n=d6 v=93
47031 On ch=2 n=a#5 v=93
47033 On ch=2 n=e6 v=0
47040 On ch=2 n=a5 v=0
47271 On ch=2 n=a5 v=88
47273 On ch=2 n=a#5 v=0
47511 On ch=2 n=g5 v=84
47513 On ch=2 n=a5 v=0
47751 On ch=2 n=f5 v=79
47753 On ch=2 n=g5 v=0
47983 On ch=2 n=d6 v=0
47991 On ch=2 n=e5 v=93
47991 On ch=2 n=d6 v=93
47991 On ch=2 n=a6 v=93
47993 On ch=2 n=f5 v=0
48231 On ch=2 n=d5 v=81
48233 On ch=2 n=e5 v=0
48471 On ch=2 n=f5 v=93
48473 On ch=2 n=d5 v=0
48711 On ch=2 n=e5 v=91
48713 On ch=2 n=f5 v=0
48951 On ch=2 n=a#6 v=99
48951 On ch=2 n=d5 v=99
48953 On ch=2 n=e5 v=0
48960 On ch=2 n=a6 v=0
49191 On ch=2 n=a6 v=93
49193 On ch=2 n=d5 v=0
49193 On ch=2 n=a#6 v=0
49433 On ch=2 n=a6 v=0
49439 On ch=2 n=g6 v=87
49671 On ch=2 n=f6 v=81
49681 On ch=2 n=g6 v=0
49911 On ch=2 n=e6 v=94
49913 On ch=2 n=f6 v=0
49930 On ch=2 n=d6 v=0
50151 On ch=2 n=d6 v=88
50153 On ch=2 n=e6 v=0
50391 On ch=2 n=f6 v=94
50393 On ch=2 n=d6 v=0
50631 On ch=2 n=e6 v=88
50633 On ch=2 n=f6 v=0
50871 On ch=2 n=d6 v=94
50871 On ch=2 n=c6 v=94
50873 On ch=2 n=e6 v=0
51111 On ch=2 n=a#5 v=88
51113 On ch=2 n=c6 v=0
51351 On ch=2 n=a5 v=82
51353 On ch=2 n=a#5 v=0
51591 On ch=2 n=g5 v=76
51593 On ch=2 n=a5 v=0
51823 On ch=2 n=g5 v=0
51823 On ch=2 n=d6 v=0
51831 On ch=2 n=d6 v=85
51831 On ch=2 n=a6 v=85
51831 On ch=2 n=g5 v=85
52071 On ch=2 n=f#5 v=76
52073 On ch=2 n=g5 v=0
52311 On ch=2 n=a5 v=93
52313 On ch=2 n=f#5 v=0
52551 On ch=2 n=g5 v=87
52551 On ch=2 n=g5 v=87
52553 On ch=2 n=a5 v=0
52791 On ch=2 n=a#6 v=98
52791 On ch=2 n=f#5 v=98
52793 On ch=2 n=g5 v=0
52793 On ch=2 n=g5 v=0
52800 On ch=2 n=a6 v=0
53031 On ch=2 n=a6 v=102
53033 On ch=2 n=f#5 v=0
53033 On ch=2 n=a#6 v=0
53271 On ch=2 n=g6 v=103
53273 On ch=2 n=a6 v=0
53511 On ch=2 n=f#6 v=103
53513 On ch=2 n=g6 v=0
53735 On ch=2 n=f#6 v=0
53751 On ch=2 n=d#6 v=110
53751 On ch=2 n=f#6 v=110
53770 On ch=2 n=d6 v=0
53991 On ch=2 n=d6 v=102
53993 On ch=2 n=d#6 v=0
54231 On ch=2 n=f6 v=111
54233 On ch=2 n=d6 v=0
54471 On ch=2 n=d#6 v=104
54473 On ch=2 n=f6 v=0
54695 On ch=2 n=f#6 v=0
54711 On ch=2 n=f#6 v=87
54711 On ch=2 n=d6 v=87
54713 On ch=2 n=d#6 v=0
54951 On ch=2 n=c6 v=105
54953 On ch=2 n=d6 v=0
55175 On ch=2 n=f#6 v=0
55191 On ch=2 n=a#5 v=98
55191 On ch=2 n=f#6 v=98
55193 On ch=2 n=c6 v=0
55391 On ch=2 n=a5 v=120
55433 On ch=2 n=a#5 v=0
55633 On ch=2 n=a5 v=0
55671 On ch=2 n=g5 v=127
55671 On ch=2 n=g6 v=127
55675 On ch=2 n=f#6 v=0
55676 Par ch=2 c=64 v=127
56155 On ch=2 n=g6 v=0
56155 On ch=2 n=g5 v=0
56311 On ch=2 n=a#4 v=127
56471 On ch=2 n=g5 v=127
56471 On ch=2 n=a#5 v=127
56472 On ch=2 n=a#4 v=0
56612 Par ch=2 c=64 v=0
56631 Par ch=2 c=64 v=127
56631 On ch=2 n=f5 v=127
56632 On ch=2 n=a#5 v=0
56632 On ch=2 n=g5 v=0
56791 On ch=2 n=d#5 v=127
56792 On ch=2 n=f5 v=0
56951 On ch=2 n=c6 v=127
56951 On ch=2 n=d#6 v=127
56952 On ch=2 n=d#5 v=0
57111 Par ch=2 c=64 v=127
57111 On ch=2 n=a#5 v=127
57112 On ch=2 n=d#6 v=0
57112 On ch=2 n=c6 v=0
57271 On ch=2 n=g5 v=127
57272 On ch=2 n=a#5 v=0
57431 On ch=2 n=d#6 v=127
57431 On ch=2 n=g6 v=127
57432 On ch=2 n=g5 v=0
57591 On ch=2 n=c6 v=127
57591 On ch=2 n=g#5 v=127
57592 On ch=2 n=g6 v=0
57592 On ch=2 n=d#6 v=0
57751 On ch=2 n=a#5 v=127
57751 On ch=2 n=g5 v=127
57752 On ch=2 n=g#5 v=0
57752 On ch=2 n=c6 v=0
57911 On ch=2 n=g6 v=127
57911 On ch=2 n=a#6 v=127
57912 On ch=2 n=g5 v=0
57912 On ch=2 n=a#5 v=0
58071 Par ch=2 c=64 v=127
58071 On ch=2 n=f6 v=127
58072 On ch=2 n=a#6 v=0
58072 On ch=2 n=g6 v=0
58231 On ch=2 n=d#6 v=127
58232 On ch=2 n=f6 v=0
58391 On ch=2 n=g7 v=127
58391 On ch=2 n=d#7 v=127
58392 On ch=2 n=d#6 v=0
58535 On ch=2 n=d#7 v=0
58551 On ch=2 n=d#7 v=127
58551 On ch=2 n=a#6 v=127
58551 On ch=2 n=g6 v=127
58552 On ch=2 n=g7 v=0
58703 On ch=2 n=g6 v=0
58703 On ch=2 n=a#6 v=0
58711 On ch=2 n=a#6 v=127
58711 On ch=2 n=g6 v=127
58711 On ch=2 n=d#6 v=127
58712 On ch=2 n=d#7 v=0
58869 On ch=2 n=d#6 v=0
58869 On ch=2 n=g6 v=0
58869 On ch=2 n=a#6 v=0
58871 On ch=2 n=d#6 v=127
58871 On ch=2 n=a#5 v=127
58871 On ch=2 n=g6 v=127
59029 On ch=2 n=g6 v=0
59029 On ch=2 n=a#5 v=0
59029 On ch=2 n=d#6 v=0
59031 On ch=2 n=a#5 v=127
59031 On ch=2 n=g5 v=127
59039 On ch=2 n=d#6 v=127
59189 On ch=2 n=g5 v=0
59189 On ch=2 n=a#5 v=0
59191 On ch=2 n=g5 v=127
59191 On ch=2 n=d#5 v=127
59191 On ch=2 n=a#5 v=127
59197 On ch=2 n=d#6 v=0
59349 On ch=2 n=a#5 v=0
59349 On ch=2 n=d#5 v=0
59349 On ch=2 n=g5 v=0
59351 Par ch=2 c=64 v=0
59351 On ch=2 n=a#4 v=127
59351 On ch=2 n=d#5 v=127
59351 On ch=2 n=g5 v=127
59509 On ch=2 n=g5 v=0
59509 On ch=2 n=d#5 v=0
59509 On ch=2 n=a#4 v=0
59511 On ch=2 n=g#4 v=127
59629 On ch=2 n=g#4 v=0
59631 On ch=2 n=a4 v=94
59749 On ch=2 n=a4 v=0
59751 On ch=2 n=e5 v=95
59751 On ch=2 n=a5 v=95
59869 On ch=2 n=a5 v=0
59869 On ch=2 n=e5 v=0
59871 On ch=2 n=g5 v=97
59989 On ch=2 n=g5 v=0
59991 On ch=2 n=f5 v=98
60109 On ch=2 n=f5 v=0
60111 On ch=2 n=e5 v=100
60223 On ch=2 n=g#5 v=101
60229 On ch=2 n=e5 v=0
60231 On ch=2 n=d5 v=102
60231 On ch=2 n=b5 v=102
60349 On ch=2 n=d5 v=0
60351 On ch=2 n=e5 v=103
60469 On ch=2 n=e5 v=0
60471 On ch=2 n=c#5 v=104
60471 On ch=2 n=a5 v=104
60471 On ch=2 n=c#6 v=104
60503 On ch=2 n=g#5 v=0
60511 On ch=2 n=b5 v=0
60589 On ch=2 n=c#5 v=0
60591 On ch=2 n=e5 v=106
60709 On ch=2 n=e5 v=0
60711 On ch=2 n=a4 v=108
60735 On ch=2 n=c#6 v=0
60735 On ch=2 n=a5 v=0
60829 On ch=2 n=a4 v=0
60831 On ch=2 n=g5 v=108
60831 On ch=2 n=a5 v=108
60949 On ch=2 n=g5 v=0
60951 On ch=2 n=f5 v=110
61069 On ch=2 n=f5 v=0
61071 On ch=2 n=e5 v=112
61189 On ch=2 n=e5 v=0
61191 On ch=2 n=d5 v=113
61191 On ch=2 n=g#5 v=113
61191 On ch=2 n=b5 v=113
61215 On ch=2 n=a5 v=0
61309 On ch=2 n=d5 v=0
61311 On ch=2 n=c#5 v=114
61429 On ch=2 n=c#5 v=0
61431 On ch=2 n=c5 v=116
61443 On ch=2 n=b5 v=0
61443 On ch=2 n=g#5 v=0
61551 On ch=2 n=d5 v=96
61557 On ch=2 n=c5 v=0
61671 On ch=2 n=c5 v=98
61671 On ch=2 n=c6 v=98
61677 On ch=2 n=d5 v=0
61791 On ch=2 n=a#5 v=100
61863 On ch=2 n=c5 v=0
61911 On ch=2 n=a5 v=102
61917 On ch=2 n=a#5 v=0
62031 On ch=2 n=g5 v=103
62037 On ch=2 n=a5 v=0
62135 On ch=2 n=c6 v=0
62151 On ch=2 n=d6 v=106
62151 On ch=2 n=c6 v=106
62151 On ch=2 n=f5 v=106
62157 On ch=2 n=g5 v=0
62271 On ch=2 n=g5 v=108
62279 On ch=2 n=f5 v=0
62391 On ch=2 n=e5 v=109
62397 On ch=2 n=g5 v=0
62399 On ch=2 n=c6 v=0
62407 On ch=2 n=d6 v=0
62511 On ch=2 n=f5 v=111
62517 On ch=2 n=e5 v=0
62631 On ch=2 n=e5 v=113
62631 On ch=2 n=e6 v=113
62637 On ch=2 n=f5 v=0
62751 On ch=2 n=d6 v=115
62757 On ch=2 n=e5 v=0
62871 On ch=2 n=c#6 v=117
62877 On ch=2 n=d6 v=0
62997 On ch=2 n=c#6 v=0
62999 On ch=2 n=a#5 v=119
63095 On ch=2 n=e6 v=0
63111 On ch=2 n=a5 v=121
63111 On ch=2 n=e6 v=121
63111 On ch=2 n=g6 v=121
63125 On ch=2 n=a#5 v=0
63231 On ch=2 n=a#5 v=123
63237 On ch=2 n=a5 v=0
63351 On ch=2 n=d6 v=124
63351 On ch=2 n=f6 v=124
63351 On ch=2 n=a5 v=124
63357 On ch=2 n=a#5 v=0
63375 On ch=2 n=g6 v=0
63375 On ch=2 n=e6 v=0
63591 On ch=2 n=a#5 v=94
63591 On ch=2 n=a#4 v=94
63603 On ch=2 n=a5 v=0
63603 On ch=2 n=f6 v=0
63603 On ch=2 n=d6 v=0
63711 On ch=2 n=f5 v=97
63711 On ch=2 n=a5 v=97
63831 On ch=2 n=e5 v=99
63831 On ch=2 n=g5 v=99
63837 On ch=2 n=a5 v=0
63837 On ch=2 n=f5 v=0
63951 On ch=2 n=f5 v=102
63957 On ch=2 n=g5 v=0
63957 On ch=2 n=e5 v=0
64071 On ch=2 n=a#4 v=0
64071 On ch=2 n=e5 v=104
64077 On ch=2 n=f5 v=0
64191 On ch=2 n=g5 v=106
64197 On ch=2 n=e5 v=0
64311 On ch=2 n=a4 v=108
64317 On ch=2 n=g5 v=0
64319 On ch=2 n=a#5 v=0
64431 On ch=2 n=a#4 v=109
64447 On ch=2 n=a4 v=0
64551 On ch=2 n=a5 v=110
64551 On ch=2 n=a4 v=110
64575 On ch=2 n=a#4 v=0
64671 On ch=2 n=g5 v=111
64671 On ch=2 n=e5 v=111
64687 On ch=2 n=a4 v=0
64791 On ch=2 n=c#5 v=112
64791 On ch=2 n=f5 v=112
64807 On ch=2 n=e5 v=0
64815 On ch=2 n=g5 v=0
64911 On ch=2 n=e5 v=111
64935 On ch=2 n=f5 v=0
64935 On ch=2 n=c#5 v=0
65031 On ch=2 n=a#5 v=109
65031 On ch=2 n=d5 v=109
65037 On ch=2 n=e5 v=0
65047 On ch=2 n=a5 v=0
65151 On ch=2 n=a5 v=104
65151 On ch=2 n=f5 v=104
65175 On ch=2 n=d5 v=0
65175 On ch=2 n=a#5 v=0
65271 On ch=2 n=g4 v=94
65287 On ch=2 n=a5 v=0
65295 On ch=2 n=f5 v=0
65391 On ch=2 n=a4 v=94
65397 On ch=2 n=g4 v=0
65511 On ch=2 n=g4 v=95
65511 On ch=2 n=g5 v=95
65517 On ch=2 n=a4 v=0
65631 On ch=2 n=d5 v=97
65631 On ch=2 n=f5 v=97
65637 On ch=2 n=g4 v=0
65751 On ch=2 n=e5 v=98
65751 On ch=2 n=c#5 v=98
65757 On ch=2 n=f5 v=0
65757 On ch=2 n=d5 v=0
65871 On ch=2 n=d5 v=100
65877 On ch=2 n=c#5 v=0
65877 On ch=2 n=e5 v=0
65991 On ch=2 n=c#5 v=103
65997 On ch=2 n=d5 v=0
66111 On ch=2 n=e5 v=107
66117 On ch=2 n=c#5 v=0
66231 On ch=2 n=a4 v=112
66237 On ch=2 n=e5 v=0
66263 On ch=2 n=g5 v=0
66351 On ch=2 n=a#4 v=118
66357 On ch=2 n=a4 v=0
66471 On ch=2 n=a4 v=125
66477 On ch=2 n=a#4 v=0
66591 On ch=2 n=e5 v=100
66591 On ch=2 n=c#5 v=100
66597 On ch=2 n=a4 v=0
66711 On ch=2 n=d5 v=100
66711 On ch=2 n=b4 v=100
66717 On ch=2 n=c#5 v=0
66717 On ch=2 n=e5 v=0
66831 On ch=2 n=c#5 v=100
66837 On ch=2 n=b4 v=0
66837 On ch=2 n=d5 v=0
66951 On ch=2 n=b4 v=100
66957 On ch=2 n=c#5 v=0
66959 On ch=2 n=g5 v=100
67071 On ch=2 n=d5 v=100
67071 On ch=2 n=f5 v=100
67077 On ch=2 n=b4 v=0
67085 On ch=2 n=g5 v=0
67191 On ch=2 n=c#5 v=100
67197 On ch=2 n=d5 v=0
67311 On ch=2 n=e5 v=100
67431 On ch=2 n=g4 v=104
67437 On ch=2 n=e5 v=0
67443 On ch=2 n=c#5 v=0
67447 On ch=2 n=f5 v=0
67551 On ch=2 n=d5 v=102
67671 On ch=2 n=f5 v=121
67677 On ch=2 n=d5 v=0
67791 On ch=2 n=e5 v=102
67797 On ch=2 n=f5 v=0
67911 On ch=2 n=c#5 v=104
67917 On ch=2 n=e5 v=0
68037 On ch=2 n=c#5 v=0
68039 On ch=2 n=e5 v=108
68151 On ch=2 n=a4 v=112
68183 On ch=2 n=g4 v=0
68271 On ch=2 n=a#4 v=111
68277 On ch=2 n=a4 v=0
68391 On ch=2 n=g4 v=110
68397 On ch=2 n=a#4 v=0
68511 On ch=2 n=d5 v=108
68527 On ch=2 n=e5 v=0
68631 On ch=2 n=f5 v=120
68751 On ch=2 n=e5 v=107
68757 On ch=2 n=f5 v=0
68855 On ch=2 n=d5 v=0
68871 On ch=2 n=c#5 v=105
68877 On ch=2 n=e5 v=0
68991 On ch=2 n=e5 v=104
68997 On ch=2 n=c#5 v=0
69103 On ch=2 n=g4 v=0
69111 On ch=2 n=a4 v=109
69231 On ch=2 n=a#4 v=104
69237 On ch=2 n=a4 v=0
69357 On ch=2 n=a#4 v=0
69359 On ch=2 n=g4 v=116
69455 On ch=2 n=e5 v=0
69471 On ch=2 n=d5 v=114
69599 On ch=2 n=f5 v=113
69711 On ch=2 n=e5 v=111
69725 On ch=2 n=f5 v=0
69831 On ch=2 n=c#5 v=109
69837 On ch=2 n=e5 v=0
69855 On ch=2 n=d5 v=0
69951 On ch=2 n=e5 v=108
69957 On ch=2 n=c#5 v=0
70071 On ch=2 n=g4 v=0
70079 On ch=2 n=a4 v=119
70191 On ch=2 n=a#4 v=119
70205 On ch=2 n=a4 v=0
70311 On ch=2 n=g4 v=118
70317 On ch=2 n=a#4 v=0
70431 On ch=2 n=d5 v=118
70455 On ch=2 n=e5 v=0
70551 On ch=2 n=f5 v=117
70671 On ch=2 n=e5 v=116
70677 On ch=2 n=f5 v=0
70791 On ch=2 n=c#5 v=115
70797 On ch=2 n=e5 v=0
70815 On ch=2 n=d5 v=0
70911 On ch=2 n=e5 v=115
70917 On ch=2 n=c#5 v=0
71031 On ch=2 n=g4 v=0
71031 On ch=2 n=a4 v=114
71151 On ch=2 n=a#4 v=100
71157 On ch=2 n=a4 v=0
71271 On ch=2 n=g4 v=100
71277 On ch=2 n=a#4 v=0
71383 On ch=2 n=e5 v=0
71391 On ch=2 n=d5 v=100
71511 On ch=2 n=f5 v=121
71631 On ch=2 n=e5 v=100
71637 On ch=2 n=f5 v=0
71751 On ch=2 n=c#5 v=100
71757 On ch=2 n=e5 v=0
71767 On ch=2 n=d5 v=0
71871 On ch=2 n=f5 v=100
71991 On ch=2 n=a5 v=100
71997 On ch=2 n=f5 v=0
72007 On ch=2 n=g4 v=0
72111 On ch=2 n=g5 v=100
72117 On ch=2 n=a5 v=0
72231 On ch=2 n=e5 v=100
72237 On ch=2 n=g5 v=0
72255 On ch=2 n=c#5 v=0
72351 On ch=2 n=a5 v=100
72357 On ch=2 n=e5 v=0
72471 On ch=2 n=c6 v=100
72477 On ch=2 n=a5 v=0
72591 On ch=2 n=a#5 v=100
72597 On ch=2 n=c6 v=0
72711 On ch=2 n=g5 v=100
72717 On ch=2 n=a#5 v=0
72831 On ch=2 n=d6 v=100
72837 On ch=2 n=g5 v=0
72951 Par ch=2 c=64 v=127
72951 On ch=2 n=f6 v=100
72957 On ch=2 n=d6 v=0
73071 On ch=2 n=e6 v=88
73077 On ch=2 n=f6 v=0
73191 On ch=2 n=c#6 v=89
73197 On ch=2 n=e6 v=0
73311 On ch=2 n=f6 v=91
73317 On ch=2 n=c#6 v=0
73431 On ch=2 n=a6 v=93
73437 On ch=2 n=f6 v=0
73551 On ch=2 n=g6 v=94
73557 On ch=2 n=a6 v=0
73671 On ch=2 n=e6 v=96
73677 On ch=2 n=g6 v=0
73791 On ch=2 n=a6 v=98
73797 On ch=2 n=e6 v=0
73911 On ch=2 n=c7 v=99
73917 On ch=2 n=a6 v=0
74031 On ch=2 n=a#6 v=101
74037 On ch=2 n=c7 v=0
74151 On ch=2 n=g6 v=103
74157 On ch=2 n=a#6 v=0
74271 On ch=2 n=d7 v=104
74277 On ch=2 n=g6 v=0
74391 On ch=2 n=f7 v=107
74397 On ch=2 n=d7 v=0
74511 On ch=2 n=e7 v=108
74517 On ch=2 n=f7 v=0
74631 On ch=2 n=c#7 v=110
74637 On ch=2 n=e7 v=0
74751 On ch=2 n=f7 v=112
74757 On ch=2 n=c#7 v=0
74871 On ch=2 n=a7 v=113
74877 On ch=2 n=f7 v=0
74997 On ch=2 n=a7 v=0
74999 On ch=2 n=g7 v=115
75111 On ch=2 n=e7 v=122
75125 On ch=2 n=g7 v=0
75231 On ch=2 n=a7 v=121
75237 On ch=2 n=e7 v=0
75351 On ch=2 n=c8 v=119
75357 On ch=2 n=a7 v=0
75471 On ch=2 n=b7 v=118
75477 On ch=2 n=c8 v=0
75591 On ch=2 n=a#7 v=116
75597 On ch=2 n=b7 v=0
75711 On ch=2 n=g7 v=114
75717 On ch=2 n=a#7 v=0
75831 On ch=2 n=e7 v=113
75837 On ch=2 n=g7 v=0
75951 On ch=2 n=c7 v=111
75957 On ch=2 n=e7 v=0
76071 On ch=2 n=b6 v=109
76077 On ch=2 n=c7 v=0
76191 On ch=2 n=a#6 v=108
76197 On ch=2 n=b6 v=0
76311 On ch=2 n=g6 v=107
76317 On ch=2 n=a#6 v=0
76431 On ch=2 n=e6 v=105
76437 On ch=2 n=g6 v=0
76551 On ch=2 n=c6 v=103
76557 On ch=2 n=e6 v=0
76671 On ch=2 n=b5 v=102
76677 On ch=2 n=c6 v=0
76791 On ch=2 n=a#5 v=100
76797 On ch=2 n=b5 v=0
76911 On ch=2 n=g5 v=98
76917 On ch=2 n=a#5 v=0
77031 On ch=2 n=e5 v=98
77037 On ch=2 n=g5 v=0
77151 On ch=2 n=c#5 v=96
77157 On ch=2 n=e5 v=0
77271 On ch=2 n=c5 v=94
77277 On ch=2 n=c#5 v=0
77391 On ch=2 n=b4 v=93
77397 On ch=2 n=c5 v=0
77451 Par ch=2 c=64 v=0
77511 On ch=2 n=a#4 v=91
77517 On ch=2 n=b4 v=0
77631 On ch=2 n=a4 v=89
77637 On ch=2 n=a#4 v=0
77751 On ch=2 n=g#4 v=88
77757 On ch=2 n=a4 v=0
77871 On ch=2 n=g4 v=86
77877 On ch=2 n=g#4 v=0
77991 On ch=2 n=e4 v=85
77997 On ch=2 n=g4 v=0
78111 On ch=2 n=c#4 v=84
78117 On ch=2 n=e4 v=0
78231 On ch=2 n=b3 v=82
78237 On ch=2 n=c#4 v=0
78351 On ch=2 n=g#3 v=80
78357 On ch=2 n=b3 v=0
78477 On ch=2 n=g#3 v=0
78479 On ch=2 n=b3 v=79
78591 On ch=2 n=a3 v=77
78605 On ch=2 n=b3 v=0
78717 On ch=2 n=a3 v=0
79191 On ch=2 n=f#6 v=75
80151 On ch=2 n=g6 v=72
80247 On ch=2 n=f#6 v=0
80391 On ch=2 n=f#6 v=78
80415 On ch=2 n=g6 v=0
80631 On ch=2 n=e6 v=84
80655 On ch=2 n=f#6 v=0
81111 On ch=2 n=d6 v=75
81159 On ch=2 n=e6 v=0
81639 On ch=2 n=d6 v=0
82071 On ch=2 n=f#5 v=84
82311 On ch=2 n=c#6 v=85
82335 On ch=2 n=f#5 v=0
82551 On ch=2 n=b5 v=87
82575 On ch=2 n=c#6 v=0
82799 On ch=2 n=a5 v=76
82815 On ch=2 n=b5 v=0
83039 On ch=2 n=c#6 v=79
83063 On ch=2 n=a5 v=0
83271 On ch=2 n=d6 v=83
83303 On ch=2 n=c#6 v=0
83511 On ch=2 n=f6 v=86
83535 On ch=2 n=d6 v=0
83751 On ch=2 n=f#6 v=88
83775 On ch=2 n=f6 v=0
83999 On ch=2 n=b6 v=90
84015 On ch=2 n=f#6 v=0
84351 On ch=2 n=a6 v=97
84395 On ch=2 n=b6 v=0
84468 On ch=2 n=a6 v=0
84471 On ch=2 n=a6 v=98
85439 On ch=2 n=g6 v=89
85527 On ch=2 n=a6 v=0
85967 On ch=2 n=g6 v=0
86391 On ch=2 n=g6 v=92
87351 On ch=2 n=f#6 v=86
87447 On ch=2 n=g6 v=0
87591 On ch=2 n=d#6 v=92
87615 On ch=2 n=f#6 v=0
87831 On ch=2 n=f#6 v=95
87855 On ch=2 n=d#6 v=0
88071 On ch=2 n=e6 v=96
88095 On ch=2 n=f#6 v=0
88303 On ch=2 n=e6 v=0
88311 On ch=2 n=e6 v=91
88791 On ch=2 n=g5 v=88
88839 On ch=2 n=e6 v=0
89319 On ch=2 n=g5 v=0
89751 On ch=2 n=b5 v=92
90111 On ch=2 n=c#6 v=91
90147 On ch=2 n=b5 v=0
90231 On ch=2 n=b5 v=93
90243 On ch=2 n=c#6 v=0
90471 On ch=2 n=a5 v=84
90495 On ch=2 n=b5 v=0
90711 On ch=2 n=c#6 v=86
90735 On ch=2 n=a5 v=0
90951 On ch=2 n=d6 v=84
90975 On ch=2 n=c#6 v=0
91191 On ch=2 n=e6 v=88
91215 On ch=2 n=d6 v=0
91431 On ch=2 n=g6 v=91
91455 On ch=2 n=e6 v=0
91671 On ch=2 n=c#7 v=94
91695 On ch=2 n=g6 v=0
92031 On ch=2 n=b6 v=100
92067 On ch=2 n=c#7 v=0
92151 On ch=2 n=g#6 v=102
92163 On ch=2 n=b6 v=0
93111 On ch=2 n=a6 v=90
93207 On ch=2 n=g#6 v=0
93591 On ch=2 n=g6 v=94
93639 On ch=2 n=a6 v=0
93951 On ch=2 n=f#6 v=98
93975 On ch=2 n=g6 v=0
94055 On ch=2 n=f#6 v=0
94071 On ch=2 n=f#6 v=102
94791 On ch=2 n=e6 v=96
94863 On ch=2 n=f#6 v=0
95031 On ch=2 n=d6 v=91
95055 On ch=2 n=e6 v=0
95511 On ch=2 n=e6 v=100
95559 On ch=2 n=d6 v=0
95751 On ch=2 n=b5 v=96
95775 On ch=2 n=e6 v=0
95991 On ch=2 n=d6 v=100
96015 On ch=2 n=b5 v=0
96231 On ch=2 n=c#6 v=96
96255 On ch=2 n=d6 v=0
96455 On ch=2 n=c#6 v=0
96471 On ch=2 n=c#6 v=96
96631 On ch=2 n=b5 v=91
96647 On ch=2 n=c#6 v=0
96791 On ch=2 n=a5 v=87
96807 On ch=2 n=b5 v=0
96935 On ch=2 n=a5 v=0
96951 On ch=2 n=a5 v=85
97431 On ch=2 n=f#6 v=93
97479 On ch=2 n=a5 v=0
97767 On ch=2 n=f#6 v=0
97791 On ch=2 n=f#6 v=94
97895 On ch=2 n=f#6 v=0
97911 On ch=2 n=f#6 v=96
98631 On ch=2 n=e6 v=90
98703 On ch=2 n=f#6 v=0
98871 On ch=2 n=c#6 v=90
98895 On ch=2 n=e6 v=0
99062 On ch=2 n=c#6 v=0
99063 On ch=2 n=d6 v=90
99254 On ch=2 n=d6 v=0
99255 On ch=2 n=e6 v=90
99446 On ch=2 n=e6 v=0
99447 On ch=2 n=g6 v=90
99638 On ch=2 n=g6 v=0
99639 On ch=2 n=f#6 v=90
99830 On ch=2 n=f#6 v=0
99831 On ch=2 n=a5 v=90
100311 On ch=2 n=c#6 v=95
100479 On ch=2 n=b5 v=95
100487 On ch=2 n=c#6 v=0
100711 On ch=2 n=b5 v=0
100727 On ch=2 n=a5 v=96
100775 On ch=2 n=a5 v=0
100791 On ch=2 n=a5 v=96
101271 On ch=2 n=b5 v=101
101319 On ch=2 n=a5 v=0
101359 On ch=2 n=c#6 v=101
101364 Par ch=2 c=64 v=127
101364 Par ch=2 c=64 v=127
101364 Par ch=2 c=64 v=127
101370 On ch=2 n=b5 v=0
101428 On ch=2 n=c#6 v=0
101430 On ch=2 n=b5 v=101
101472 On ch=2 n=b5 v=0
101472 On ch=2 n=c#6 v=101
101511 On ch=2 n=c#6 v=0
101513 On ch=2 n=b5 v=101
101548 On ch=2 n=b5 v=0
101548 On ch=2 n=c#6 v=101
101582 On ch=2 n=b5 v=101
101583 On ch=2 n=c#6 v=0
101615 On ch=2 n=b5 v=0
101625 On ch=2 n=a5 v=101
101639 Par ch=2 c=64 v=0
101639 Par ch=2 c=64 v=0
101639 Par ch=2 c=64 v=0
101695 On ch=2 n=a5 v=0
101695 On ch=2 n=b5 v=101
101751 On ch=2 n=a5 v=0
101751 On ch=2 n=c#6 v=101
101769 On ch=2 n=b5 v=0
102231 On ch=2 n=c6 v=95
102279 On ch=2 n=c#6 v=0
102591 On ch=2 n=c#6 v=91
102615 On ch=2 n=c6 v=0
102711 On ch=2 n=d#6 v=94
102723 On ch=2 n=c#6 v=0
102951 On ch=2 n=f6 v=99
102975 On ch=2 n=d#6 v=0
103191 On ch=2 n=f#6 v=105
103215 On ch=2 n=f6 v=0
103431 On ch=2 n=g#6 v=111
103455 On ch=2 n=f#6 v=0
103671 On ch=2 n=a6 v=114
103671 On ch=2 n=a6 v=117
103695 On ch=2 n=g#6 v=0
103803 On ch=2 n=a6 v=0
103803 On ch=2 n=a6 v=0
103911 On ch=2 n=c#8 v=127
103911 On ch=2 n=c#8 v=127
104003 Par ch=2 c=64 v=127
104003 Par ch=2 c=64 v=127
104003 Par ch=2 c=64 v=127
104141 Par ch=2 c=64 v=0
104141 Par ch=2 c=64 v=0
104141 Par ch=2 c=64 v=0
104311 On ch=2 n=b7 v=115
104391 On ch=2 n=a7 v=111
104399 On ch=2 n=b7 v=0
104399 On ch=2 n=c#8 v=0
104399 On ch=2 n=c#8 v=0
104471 On ch=2 n=g#7 v=107
104479 On ch=2 n=a7 v=0
104551 On ch=2 n=f#7 v=103
104559 On ch=2 n=g#7 v=0
104631 On ch=2 n=f7 v=98
104639 On ch=2 n=f#7 v=0
104711 On ch=2 n=f#7 v=93
104719 On ch=2 n=f7 v=0
104791 On ch=2 n=e7 v=89
104799 On ch=2 n=f#7 v=0
104871 On ch=2 n=d7 v=85
104879 On ch=2 n=e7 v=0
104943 On ch=2 n=c#7 v=82
104959 On ch=2 n=d7 v=0
105031 On ch=2 n=c#7 v=0
105031 On ch=2 n=b6 v=77
105119 On ch=2 n=b6 v=0
105119 On ch=2 n=g#6 v=79
105191 On ch=2 n=f#6 v=82
105207 On ch=2 n=g#6 v=0
105271 On ch=2 n=c#6 v=86
105279 On ch=2 n=f#6 v=0
105359 On ch=2 n=c#6 v=0
105359 On ch=2 n=b5 v=90
105431 On ch=2 n=f#5 v=93
105447 On ch=2 n=b5 v=0
105511 On ch=2 n=b5 v=97
105519 On ch=2 n=f#5 v=0
105591 On ch=2 n=a5 v=101
105599 On ch=2 n=b5 v=0
105987 On ch=2 n=a5 v=0
105991 On ch=2 n=d6 v=100
106071 On ch=2 n=c#6 v=100
106123 On ch=2 n=d6 v=0
106395 On ch=2 n=d#5 v=91
106485 On ch=2 n=f5 v=91
106492 On ch=2 n=d#5 v=0
106542 On ch=2 n=f5 v=0
106561 On ch=2 n=f5 v=91
106599 On ch=2 n=c#6 v=0
106643 On ch=2 n=f#5 v=92
106655 On ch=2 n=f5 v=0
106703 On ch=2 n=f5 v=92
106713 On ch=2 n=f#5 v=0
106750 On ch=2 n=f#5 v=92
106760 On ch=2 n=f5 v=0
106800 On ch=2 n=f5 v=92
106807 On ch=2 n=f#5 v=0
106842 On ch=2 n=f#5 v=92
106848 On ch=2 n=f5 v=0
106883 On ch=2 n=f5 v=93
106890 On ch=2 n=f#5 v=0
106921 On ch=2 n=f#5 v=93
106927 On ch=2 n=f5 v=0
106958 On ch=2 n=f5 v=93
106962 On ch=2 n=f#5 v=0
106991 On ch=2 n=f#5 v=93
106996 On ch=2 n=f5 v=0
107022 On ch=2 n=f5 v=93
107024 On ch=2 n=f#5 v=0
107060 On ch=2 n=f#5 v=93
107068 On ch=2 n=f5 v=0
107094 On ch=2 n=f#5 v=0
107096 On ch=2 n=f5 v=93
107166 On ch=2 n=d#5 v=93
107176 On ch=2 n=f5 v=0
107260 On ch=2 n=f5 v=93
107268 On ch=2 n=d#5 v=0
107345 On ch=2 n=a5 v=92
107351 On ch=2 n=f5 v=0
107400 On ch=2 n=g#5 v=88
107410 On ch=2 n=a5 v=0
107457 On ch=2 n=f#5 v=86
107465 On ch=2 n=g#5 v=0
107501 On ch=2 n=f#5 v=0
107527 On ch=2 n=f#5 v=83
107985 On ch=2 n=f#6 v=89
108201 On ch=2 n=f#5 v=0
108929 On ch=2 n=f#6 v=0
108945 On ch=2 n=f#6 v=76
109425 On ch=2 n=g6 v=70
109473 On ch=2 n=f#6 v=0
109665 On ch=2 n=e6 v=70
109689 On ch=2 n=g6 v=0
109905 On ch=2 n=b5 v=70
109929 On ch=2 n=e6 v=0
110265 On ch=2 n=c#6 v=71
110301 On ch=2 n=b5 v=0
110385 On ch=2 n=d6 v=76
110397 On ch=2 n=c#6 v=0
110865 On ch=2 n=e6 v=81
110865 On ch=2 n=e6 v=81
110913 On ch=2 n=d6 v=0
111345 On ch=2 n=f#6 v=85
111393 On ch=2 n=e6 v=0
111393 On ch=2 n=e6 v=0
111825 On ch=2 n=b6 v=91
111873 On ch=2 n=f#6 v=0
112185 On ch=2 n=a6 v=90
112221 On ch=2 n=b6 v=0
112305 On ch=2 n=b6 v=93
112317 On ch=2 n=a6 v=0
112465 On ch=2 n=a6 v=89
112481 On ch=2 n=b6 v=0
112697 On ch=2 n=a6 v=0
112705 On ch=2 n=g6 v=90
112783 On ch=2 n=g6 v=0
112785 On ch=2 n=g6 v=89
112945 On ch=2 n=f#6 v=83
112961 On ch=2 n=g6 v=0
113185 On ch=2 n=f6 v=76
113201 On ch=2 n=f#6 v=0
113265 Par ch=2 c=64 v=127
113265 On ch=2 n=f#6 v=78
113265 On ch=2 n=f#6 v=83
113273 On ch=2 n=f6 v=0
113505 On ch=2 n=d6 v=73
113529 On ch=2 n=f#6 v=0
113529 On ch=2 n=f#6 v=0
113745 On ch=2 n=b5 v=72
113769 On ch=2 n=d6 v=0
113985 Par ch=2 c=64 v=0
113985 On ch=2 n=c#6 v=72
114009 On ch=2 n=b5 v=0
114225 On ch=2 n=d6 v=75
114249 On ch=2 n=c#6 v=0
114465 On ch=2 n=d#6 v=79
114489 On ch=2 n=d6 v=0
114729 On ch=2 n=d#6 v=0
114833 On ch=2 n=e6 v=79
115065 On ch=2 n=f6 v=83
115081 On ch=2 n=e6 v=0
115185 On ch=2 n=f#6 v=84
115197 On ch=2 n=f6 v=0
115425 On ch=2 n=g6 v=82
115441 On ch=2 n=f#6 v=0
115665 On ch=2 n=g#6 v=84
115689 On ch=2 n=g6 v=0
115825 On ch=2 n=c#7 v=86
115841 On ch=2 n=g#6 v=0
115985 On ch=2 n=b6 v=88
116001 On ch=2 n=c#7 v=0
116145 On ch=2 n=a6 v=90
116161 On ch=2 n=b6 v=0
117089 On ch=2 n=a6 v=0
117105 On ch=2 n=d6 v=98
117105 On ch=2 n=d7 v=98
117105 Par ch=2 c=64 v=127
117105 On ch=2 n=a6 v=98
117585 On ch=2 n=c#7 v=100
117585 On ch=2 n=c#7 v=100
117585 On ch=2 n=c#6 v=100
117585 On ch=2 n=c#6 v=100
117633 On ch=2 n=d7 v=0
117633 On ch=2 n=d6 v=0
117945 On ch=2 n=b6 v=79
117945 Par ch=2 c=64 v=0
117945 On ch=2 n=b5 v=79
117981 On ch=2 n=c#6 v=0
117981 On ch=2 n=c#6 v=0
117981 On ch=2 n=c#7 v=0
117981 On ch=2 n=c#7 v=0
118049 On ch=2 n=a6 v=0
118065 Par ch=2 c=64 v=127
118065 On ch=2 n=c#7 v=83
118065 On ch=2 n=a6 v=83
118065 On ch=2 n=g6 v=83
118065 On ch=2 n=c#6 v=83
118077 On ch=2 n=b5 v=0
118077 On ch=2 n=b6 v=0
118305 On ch=2 n=b6 v=78
118305 On ch=2 n=b5 v=78
118329 On ch=2 n=c#6 v=0
118329 On ch=2 n=g6 v=0
118329 On ch=2 n=a6 v=0
118329 On ch=2 n=c#7 v=0
118457 On ch=2 n=b5 v=0
118473 On ch=2 n=b6 v=0
118473 On ch=2 n=b5 v=79
118481 On ch=2 n=b6 v=79
118545 On ch=2 n=a6 v=79
118545 On ch=2 n=a5 v=79
118577 On ch=2 n=b5 v=0
118593 On ch=2 n=b6 v=0
118777 On ch=2 n=g#6 v=80
118780 On ch=2 n=a5 v=0
118780 On ch=2 n=a6 v=0
118785 On ch=2 n=g#5 v=80
118990 Par ch=2 c=64 v=0
119012 On ch=2 n=g#6 v=0
119020 On ch=2 n=g#5 v=0
119025 On ch=2 n=b5 v=74
119025 On ch=2 n=b6 v=74
119025 On ch=2 n=f#6 v=74
119025 Par ch=2 c=64 v=127
119025 On ch=2 n=d6 v=74
119377 On ch=2 n=d6 v=0
119377 On ch=2 n=f#6 v=0
119377 On ch=2 n=b6 v=0
119377 On ch=2 n=b5 v=0
119385 On ch=2 n=a6 v=81
119385 On ch=2 n=a5 v=81
119502 On ch=2 n=a5 v=0
119502 On ch=2 n=a6 v=0
119505 On ch=2 n=a5 v=82
119505 On ch=2 n=a6 v=82
119505 On ch=2 n=d6 v=82
119661 On ch=2 n=d6 v=0
119661 On ch=2 n=a6 v=0
119661 On ch=2 n=a5 v=0
119665 On ch=2 n=g6 v=84
119665 On ch=2 n=g5 v=84
119821 On ch=2 n=g5 v=0
119821 On ch=2 n=g6 v=0
119825 On ch=2 n=f#5 v=84
119825 On ch=2 n=f#6 v=84
119825 On ch=2 n=f#5 v=84
119825 On ch=2 n=f#6 v=84
119962 Par ch=2 c=64 v=0
119981 On ch=2 n=f#6 v=0
119981 On ch=2 n=f#5 v=0
119981 On ch=2 n=f#6 v=0
119981 On ch=2 n=f#5 v=0
119985 Par ch=2 c=64 v=127
119985 On ch=2 n=f#5 v=86
119985 On ch=2 n=c#6 v=86
119985 On ch=2 n=a#5 v=86
119993 On ch=2 n=f#6 v=86
120337 On ch=2 n=a#5 v=0
120337 On ch=2 n=c#6 v=0
120337 On ch=2 n=f#5 v=0
120345 On ch=2 n=f#6 v=0
120345 On ch=2 n=e6 v=89
120345 On ch=2 n=e5 v=89
120462 On ch=2 n=e5 v=0
120462 On ch=2 n=e6 v=0
120465 On ch=2 n=f#6 v=90
120465 On ch=2 n=c#6 v=90
120465 Par ch=2 c=64 v=0
120465 On ch=2 n=f#5 v=90
120817 On ch=2 n=f#5 v=0
120817 On ch=2 n=c#6 v=0
120817 On ch=2 n=f#6 v=0
120825 Par ch=2 c=64 v=127
120825 On ch=2 n=g5 v=126
120825 On ch=2 n=g6 v=126
120889 On ch=2 n=d6 v=126
120906 Par ch=2 c=64 v=0
120937 On ch=2 n=d6 v=0
120942 On ch=2 n=g6 v=0
120942 On ch=2 n=g5 v=0
120945 Par ch=2 c=64 v=127
120945 On ch=2 n=d6 v=126
121062 On ch=2 n=d6 v=0
121065 On ch=2 n=d7 v=126
121065 On ch=2 n=a6 v=126
121182 On ch=2 n=a6 v=0
121182 On ch=2 n=d7 v=0
121305 On ch=2 n=c#7 v=127
121305 On ch=2 n=c#6 v=127
121422 On ch=2 n=c#6 v=0
121422 On ch=2 n=c#7 v=0
121425 On ch=2 n=c#7 v=127
121425 On ch=2 n=c#6 v=127
121503 On ch=2 n=c#6 v=0
121503 On ch=2 n=c#7 v=0
121505 On ch=2 n=f#6 v=127
121505 On ch=2 n=a6 v=127
121583 On ch=2 n=a6 v=0
121583 On ch=2 n=f#6 v=0
121585 On ch=2 n=b6 v=127
121585 On ch=2 n=b5 v=127
121663 On ch=2 n=b5 v=0
121663 On ch=2 n=b6 v=0
121785 On ch=2 n=a6 v=127
121785 On ch=2 n=a5 v=127
121882 Par ch=2 c=64 v=0
121902 On ch=2 n=a5 v=0
121902 On ch=2 n=a6 v=0
121905 Par ch=2 c=64 v=127
121905 On ch=2 n=c#6 v=127
121905 On ch=2 n=g6 v=127
121905 On ch=2 n=a6 v=127
121905 On ch=2 n=c#7 v=127
122022 On ch=2 n=c#7 v=0
122022 On ch=2 n=a6 v=0
122022 On ch=2 n=g6 v=0
122022 On ch=2 n=c#6 v=0
122265 On ch=2 n=b5 v=127
122265 On ch=2 n=b6 v=127
122382 On ch=2 n=b6 v=0
122382 On ch=2 n=b5 v=0
122385 On ch=2 n=b6 v=127
122385 On ch=2 n=b5 v=127
122463 On ch=2 n=b5 v=0
122463 On ch=2 n=b6 v=0
122465 On ch=2 n=g6 v=127
122465 On ch=2 n=c#6 v=127
122543 On ch=2 n=c#6 v=0
122543 On ch=2 n=g6 v=0
122545 On ch=2 n=a6 v=127
122545 On ch=2 n=a5 v=127
122623 On ch=2 n=a5 v=0
122623 On ch=2 n=a6 v=0
122745 On ch=2 n=g#6 v=127
122745 On ch=2 n=g#5 v=127
122835 Par ch=2 c=64 v=0
122862 On ch=2 n=g#5 v=0
122862 On ch=2 n=g#6 v=0
122865 Par ch=2 c=64 v=127
122865 On ch=2 n=b5 v=127
122985 On ch=2 n=b5 v=0
122985 On ch=2 n=d6 v=127
122985 On ch=2 n=b6 v=127
122985 On ch=2 n=f#6 v=127
123102 On ch=2 n=f#6 v=0
123102 On ch=2 n=b6 v=0
123102 On ch=2 n=d6 v=0
123225 On ch=2 n=a6 v=127
123225 On ch=2 n=a5 v=127
123342 On ch=2 n=a5 v=0
123342 On ch=2 n=a6 v=0
123345 On ch=2 n=a6 v=127
123345 On ch=2 n=a5 v=127
123423 On ch=2 n=a5 v=0
123423 On ch=2 n=a6 v=0
123425 On ch=2 n=d6 v=127
123503 On ch=2 n=d6 v=0
123505 On ch=2 n=g6 v=127
123505 On ch=2 n=g5 v=127
123583 On ch=2 n=g5 v=0
123583 On ch=2 n=g6 v=0
123705 On ch=2 n=f#6 v=127
123705 On ch=2 n=f#5 v=127
123793 Par ch=2 c=64 v=0
123822 On ch=2 n=f#5 v=0
123822 On ch=2 n=f#6 v=0
123825 On ch=2 n=f#6 v=127
123825 Par ch=2 c=64 v=127
123825 On ch=2 n=f#5 v=127
123942 On ch=2 n=f#5 v=0
123942 On ch=2 n=f#6 v=0
123945 On ch=2 n=c#6 v=127
123945 On ch=2 n=b5 v=127
124062 On ch=2 n=b5 v=0
124062 On ch=2 n=c#6 v=0
124185 On ch=2 n=e6 v=127
124185 On ch=2 n=e5 v=127
124302 On ch=2 n=e5 v=0
124302 On ch=2 n=e6 v=0
124305 On ch=2 n=f#6 v=127
124305 On ch=2 n=f#5 v=127
124422 On ch=2 n=f#5 v=0
124422 On ch=2 n=f#6 v=0
124425 On ch=2 n=c#6 v=127
124425 On ch=2 n=a#5 v=127
124542 On ch=2 n=a#5 v=0
124542 On ch=2 n=c#6 v=0
124665 On ch=2 n=g6 v=127
124665 On ch=2 n=g5 v=127
124692 Par ch=2 c=64 v=0
124782 On ch=2 n=g5 v=0
124782 On ch=2 n=g6 v=0
124785 On ch=2 n=a6 v=84
124785 On ch=2 n=d#6 v=84
124785 On ch=2 n=a5 v=84
124785 On ch=2 n=c6 v=84
124785 On ch=2 n=c6 v=84
124785 On ch=2 n=a5 v=84
124785 On ch=2 n=d#6 v=84
124785 On ch=2 n=a6 v=84
124785 Par ch=2 c=64 v=127
124785 Par ch=2 c=64 v=127
125041 On ch=2 n=a6 v=0
125041 On ch=2 n=a6 v=0
125049 On ch=2 n=d#6 v=0
125049 On ch=2 n=a5 v=0
125049 On ch=2 n=c6 v=0
125049 On ch=2 n=c6 v=0
125049 On ch=2 n=a5 v=0
125049 On ch=2 n=d#6 v=0
125265 On ch=2 n=c5 v=54
125265 On ch=2 n=d#5 v=54
125265 On ch=2 n=a5 v=54
126205 On ch=2 n=a5 v=0
126205 On ch=2 n=d#5 v=0
126205 On ch=2 n=c5 v=0
126225 On ch=2 n=a5 v=85
126225 On ch=2 n=e5 v=85
126225 On ch=2 n=c5 v=85
126684 Par ch=2 c=64 v=0
126695 On ch=2 n=c5 v=0
126695 On ch=2 n=e5 v=0
126695 On ch=2 n=a5 v=0
126705 Par ch=2 c=64 v=127
126705 On ch=2 n=b4 v=75
126822 On ch=2 n=b4 v=0
126825 On ch=2 n=f#5 v=78
126942 On ch=2 n=f#5 v=0
126945 On ch=2 n=a5 v=79
127062 On ch=2 n=a5 v=0
127065 On ch=2 n=b5 v=82
127182 On ch=2 n=b5 v=0
127185 On ch=2 n=c#7 v=84
127302 On ch=2 n=c#7 v=0
127305 On ch=2 n=b6 v=74
127422 On ch=2 n=b6 v=0
127425 On ch=2 n=a#6 v=83
127425 On ch=2 n=f#7 v=83
127542 On ch=2 n=a#6 v=0
127545 On ch=2 n=a6 v=91
127649 Par ch=2 c=64 v=0
127657 On ch=2 n=f#7 v=0
127662 On ch=2 n=a6 v=0
127665 Par ch=2 c=64 v=127
127665 On ch=2 n=g#6 v=99
127665 On ch=2 n=f#7 v=99
127782 On ch=2 n=g#6 v=0
127785 On ch=2 n=a6 v=96
127897 On ch=2 n=f#7 v=0
127902 On ch=2 n=a6 v=0
127905 On ch=2 n=b6 v=93
127905 On ch=2 n=e7 v=93
128022 On ch=2 n=b6 v=0
128025 On ch=2 n=d6 v=89
128142 On ch=2 n=d6 v=0
128145 On ch=2 n=g#6 v=86
128161 On ch=2 n=e7 v=0
128262 On ch=2 n=g#6 v=0
128265 On ch=2 n=f#6 v=83
128382 On ch=2 n=f#6 v=0
128385 On ch=2 n=e6 v=79
128385 On ch=2 n=b6 v=79
128502 On ch=2 n=e6 v=0
128505 Par ch=2 c=64 v=0
128505 On ch=2 n=d6 v=77
128609 On ch=2 n=b6 v=0
128619 On ch=2 n=d6 v=0
128622 On ch=2 n=b6 v=69
128622 On ch=2 n=c6 v=69
128739 On ch=2 n=c6 v=0
128742 On ch=2 n=c#6 v=74
128859 On ch=2 n=c#6 v=0
128862 On ch=2 n=g5 v=79
128862 On ch=2 n=a6 v=79
128886 On ch=2 n=b6 v=0
128979 On ch=2 n=g5 v=0
128982 On ch=2 n=e6 v=84
129099 On ch=2 n=e6 v=0
129110 On ch=2 n=b6 v=68
129134 On ch=2 n=a6 v=0
129222 On ch=2 n=a6 v=76
129227 On ch=2 n=b6 v=0
129339 On ch=2 n=a6 v=0
129350 On ch=2 n=g#6 v=85
129350 On ch=2 n=e7 v=85
129462 On ch=2 n=g6 v=93
129467 On ch=2 n=g#6 v=0
129558 On ch=2 n=e7 v=0
129579 On ch=2 n=g6 v=0
129582 On ch=2 n=e7 v=101
129582 On ch=2 n=f#6 v=101
129699 On ch=2 n=f#6 v=0
129702 On ch=2 n=g6 v=97
129819 On ch=2 n=g6 v=0
129822 On ch=2 n=a6 v=93
129822 On ch=2 n=d7 v=93
129838 On ch=2 n=e7 v=0
129939 On ch=2 n=a6 v=0
129942 On ch=2 n=c6 v=89
130059 On ch=2 n=c6 v=0
130062 On ch=2 n=f#6 v=86
130086 On ch=2 n=d7 v=0
130179 On ch=2 n=f#6 v=0
130182 On ch=2 n=e6 v=83
130299 On ch=2 n=e6 v=0
130302 On ch=2 n=d6 v=79
130302 On ch=2 n=f#6 v=79
130419 On ch=2 n=d6 v=0
130422 On ch=2 n=c#6 v=75
130534 On ch=2 n=f#6 v=0
130539 On ch=2 n=c#6 v=0
130542 On ch=2 n=a#5 v=67
130542 On ch=2 n=f#6 v=67
130662 On ch=2 n=b5 v=55
130694 On ch=2 n=a#5 v=0
130790 On ch=2 n=d#6 v=60
130798 On ch=2 n=b5 v=0
130902 On ch=2 n=f#6 v=0
130902 On ch=2 n=e6 v=64
130926 On ch=2 n=d#6 v=0
131022 On ch=2 n=e6 v=0
131022 On ch=2 n=c#7 v=69
131139 On ch=2 n=c#7 v=0
131142 On ch=2 n=b6 v=74
131262 On ch=2 n=g6 v=79
131286 On ch=2 n=b6 v=0
131382 On ch=2 n=f#6 v=84
131406 On ch=2 n=g6 v=0
131502 Par ch=2 c=64 v=127
131502 On ch=2 n=e6 v=87
131526 On ch=2 n=f#6 v=0
131630 On ch=2 n=d6 v=81
131638 On ch=2 n=e6 v=0
131742 On ch=2 n=b5 v=75
131766 On ch=2 n=d6 v=0
131862 Par ch=2 c=64 v=0
131862 Par ch=2 c=64 v=127
131862 On ch=2 n=g5 v=65
131878 On ch=2 n=b5 v=0
131982 On ch=2 n=e5 v=62
132030 On ch=2 n=g5 v=0
132102 On ch=2 n=d5 v=67
132152 On ch=2 n=e5 v=0
132222 On ch=2 n=b4 v=72
132262 On ch=2 n=d5 v=0
132342 On ch=2 n=d6 v=77
132366 On ch=2 n=b4 v=0
132438 Par ch=2 c=64 v=34
132462 On ch=2 n=e5 v=82
132462 On ch=2 n=b4 v=82
132470 On ch=2 n=d6 v=0
132932 On ch=2 n=b4 v=0
132932 On ch=2 n=e5 v=0
132942 On ch=2 n=a4 v=51
132942 On ch=2 n=b4 v=51
132942 On ch=2 n=d#5 v=51
132942 On ch=2 n=f#5 v=51
133412 On ch=2 n=f#5 v=0
133412 On ch=2 n=d#5 v=0
133412 On ch=2 n=b4 v=0
133412 On ch=2 n=a4 v=0
133422 On ch=2 n=g5 v=67
133422 On ch=2 n=e5 v=67
133422 On ch=2 n=b4 v=67
133422 On ch=2 n=g4 v=67
133892 On ch=2 n=g4 v=0
133892 On ch=2 n=b4 v=0
133892 On ch=2 n=e5 v=0
133892 On ch=2 n=g5 v=0
133902 On ch=2 n=f#5 v=82
133902 On ch=2 n=g4 v=82
133910 On ch=2 n=c#5 v=82
134262 On ch=2 n=e5 v=104
134278 On ch=2 n=f#5 v=0
134372 On ch=2 n=g4 v=0
134380 On ch=2 n=c#5 v=0
134382 On ch=2 n=e5 v=0
134382 On ch=2 n=f#4 v=58
134502 On ch=2 n=c#5 v=64
134518 On ch=2 n=f#4 v=0
134630 On ch=2 n=e5 v=72
134646 On ch=2 n=c#5 v=0
134742 On ch=2 n=f#5 v=79
134766 On ch=2 n=e5 v=0
134862 On ch=2 n=g#6 v=63
134878 On ch=2 n=f#5 v=0
134982 On ch=2 n=f#6 v=69
135014 On ch=2 n=g#6 v=0
135102 On ch=2 n=f6 v=76
135102 On ch=2 n=c#7 v=76
135110 On ch=2 n=f#6 v=0
135222 On ch=2 n=e6 v=83
135238 On ch=2 n=f6 v=0
135318 On ch=2 n=c#7 v=0
135342 On ch=2 n=c#7 v=58
135342 On ch=2 n=d#6 v=58
135358 On ch=2 n=e6 v=0
135462 On ch=2 n=e6 v=64
135486 On ch=2 n=d#6 v=0
135582 On ch=2 n=b6 v=69
135590 On ch=2 n=f#6 v=70
135598 On ch=2 n=e6 v=0
135614 On ch=2 n=c#7 v=0
135702 On ch=2 n=a5 v=75
135707 On ch=2 n=f#6 v=0
135830 On ch=2 n=d#6 v=54
135838 On ch=2 n=a5 v=0
135838 On ch=2 n=b6 v=0
135942 On ch=2 n=c#6 v=61
135966 On ch=2 n=d#6 v=0
136062 On ch=2 n=b5 v=69
136062 On ch=2 n=f#6 v=69
136078 On ch=2 n=c#6 v=0
136198 On ch=2 n=a5 v=79
136286 On ch=2 n=f#6 v=0
136302 On ch=2 n=b5 v=0
136302 On ch=2 n=g5 v=51
136302 On ch=2 n=f#6 v=51
136312 On ch=2 n=a5 v=0
136419 On ch=2 n=g#5 v=58
136443 On ch=2 n=g5 v=0
136539 On ch=2 n=d5 v=64
136547 On ch=2 n=e6 v=64
136563 On ch=2 n=g#5 v=0
136571 On ch=2 n=f#6 v=0
136659 On ch=2 n=b5 v=70
136691 On ch=2 n=d5 v=0
136779 On ch=2 n=f#6 v=54
136803 On ch=2 n=b5 v=0
136803 On ch=2 n=e6 v=0
136899 On ch=2 n=e6 v=60
136931 On ch=2 n=f#6 v=0
137019 On ch=2 n=d#6 v=67
137019 On ch=2 n=b6 v=67
137035 On ch=2 n=e6 v=0
137139 On ch=2 n=d6 v=74
137155 On ch=2 n=d#6 v=0
137243 On ch=2 n=b6 v=0
137259 On ch=2 n=b6 v=58
137259 On ch=2 n=c#6 v=58
137283 On ch=2 n=d6 v=0
137379 On ch=2 n=d6 v=65
137411 On ch=2 n=c#6 v=0
137499 On ch=2 n=e6 v=74
137499 On ch=2 n=a6 v=74
137523 On ch=2 n=b6 v=0
137531 On ch=2 n=d6 v=0
137619 On ch=2 n=g5 v=81
137659 On ch=2 n=e6 v=0
137739 On ch=2 n=c#6 v=70
137771 On ch=2 n=g5 v=0
137771 On ch=2 n=a6 v=0
137859 On ch=2 n=b5 v=77
137883 On ch=2 n=c#6 v=0
137979 On ch=2 n=a5 v=83
137979 On ch=2 n=e6 v=83
138011 On ch=2 n=b5 v=0
138099 On ch=2 n=g5 v=89
138115 On ch=2 n=a5 v=0
138211 On ch=2 n=e6 v=0
138219 On ch=2 n=e6 v=72
138219 On ch=2 n=f#5 v=72
138219 On ch=2 n=e6 v=72
138219 On ch=2 n=f#5 v=72
138243 On ch=2 n=g5 v=0
138339 On ch=2 n=d#6 v=69
138371 On ch=2 n=e6 v=0
138371 On ch=2 n=e6 v=0
138467 On ch=2 n=d6 v=57
138483 On ch=2 n=d#6 v=0
138579 On ch=2 n=c#6 v=61
138603 On ch=2 n=d6 v=0
138699 On ch=2 n=c6 v=65
138715 On ch=2 n=c#6 v=0
138819 On ch=2 n=b5 v=69
138819 On ch=2 n=f5 v=69
138843 On ch=2 n=c6 v=0
138843 On ch=2 n=f#5 v=0
138843 On ch=2 n=f#5 v=0
138939 On ch=2 n=a5 v=74
138971 On ch=2 n=b5 v=0
139059 On ch=2 n=g#5 v=79
139075 On ch=2 n=a5 v=0
139171 On ch=2 n=g#5 v=0
139179 On ch=2 n=f6 v=83
139179 On ch=2 n=g#5 v=83
139203 On ch=2 n=f5 v=0
139299 On ch=2 n=e6 v=56
139307 On ch=2 n=f6 v=0
139419 On ch=2 n=d#6 v=60
139435 On ch=2 n=e6 v=0
139539 On ch=2 n=d6 v=64
139579 On ch=2 n=d#6 v=0
139659 On ch=2 n=c#6 v=68
139659 On ch=2 n=g5 v=68
139675 On ch=2 n=g#5 v=0
139683 On ch=2 n=d6 v=0
139779 On ch=2 n=b5 v=78
139795 On ch=2 n=c#6 v=0
139899 On ch=2 n=a#5 v=85
139923 On ch=2 n=b5 v=0
140019 On ch=2 n=c#6 v=93
140043 On ch=2 n=a#5 v=0
140139 On ch=2 n=a#5 v=100
140139 On ch=2 n=g6 v=100
140163 On ch=2 n=g5 v=0
140171 On ch=2 n=c#6 v=0
140259 On ch=2 n=f#6 v=76
140283 On ch=2 n=g6 v=0
140379 On ch=2 n=f6 v=79
140403 On ch=2 n=f#6 v=0
140499 On ch=2 n=e6 v=81
140523 On ch=2 n=f6 v=0
140619 On ch=2 n=d6 v=84
140619 On ch=2 n=b5 v=84
140635 On ch=2 n=a#5 v=0
140643 On ch=2 n=e6 v=0
140747 On ch=2 n=c#6 v=86
140771 On ch=2 n=b5 v=0
140779 On ch=2 n=d6 v=0
140859 On ch=2 n=e6 v=88
140875 On ch=2 n=c#6 v=0
140979 On ch=2 n=d6 v=90
141011 On ch=2 n=e6 v=0
141091 On ch=2 n=d6 v=0
141099 On ch=2 n=d6 v=93
141099 On ch=2 n=b6 v=93
141259 On ch=2 n=c#6 v=96
141259 On ch=2 n=a#6 v=96
141275 On ch=2 n=b6 v=0
141299 On ch=2 n=d6 v=0
141419 On ch=2 n=d6 v=99
141419 On ch=2 n=b6 v=99
141435 On ch=2 n=a#6 v=0
141451 On ch=2 n=c#6 v=0
141579 On ch=2 n=d#6 v=102
141579 On ch=2 n=c7 v=102
141595 On ch=2 n=d6 v=0
141619 On ch=2 n=b6 v=0
141739 On ch=2 n=e6 v=105
141739 On ch=2 n=c#7 v=105
141755 On ch=2 n=c7 v=0
141763 On ch=2 n=d#6 v=0
141899 On ch=2 n=f6 v=108
141899 On ch=2 n=d7 v=108
141923 On ch=2 n=c#7 v=0
141923 On ch=2 n=e6 v=0
142043 On ch=2 n=d7 v=0
142059 On ch=2 n=f#6 v=112
142059 On ch=2 n=d7 v=112
142091 On ch=2 n=f6 v=0
142294 On ch=2 n=d7 v=0
142294 On ch=2 n=f#6 v=0
142299 On ch=2 n=g6 v=108
142299 On ch=2 n=e6 v=108
142299 On ch=2 n=c#7 v=108
142534 On ch=2 n=c#7 v=0
142534 On ch=2 n=e6 v=0
142534 On ch=2 n=g6 v=0
142539 On ch=2 n=f#6 v=110
142539 On ch=2 n=d6 v=110
142539 On ch=2 n=b6 v=110
142774 On ch=2 n=b6 v=0
142774 On ch=2 n=d6 v=0
142774 On ch=2 n=f#6 v=0
142779 On ch=2 n=g6 v=117
142779 On ch=2 n=e6 v=117
142779 On ch=2 n=c#7 v=117
143014 On ch=2 n=c#7 v=0
143014 On ch=2 n=e6 v=0
143014 On ch=2 n=g6 v=0
143019 On ch=2 n=b6 v=108
143019 On ch=2 n=d6 v=108
143019 On ch=2 n=f#6 v=108
143254 On ch=2 n=f#6 v=0
143254 On ch=2 n=d6 v=0
143254 On ch=2 n=b6 v=0
143259 On ch=2 n=c#6 v=104
143259 On ch=2 n=e6 v=104
143259 On ch=2 n=c#7 v=104
143494 On ch=2 n=c#7 v=0
143494 On ch=2 n=e6 v=0
143494 On ch=2 n=c#6 v=0
143499 On ch=2 n=d7 v=94
143499 On ch=2 n=b5 v=94
143499 On ch=2 n=d6 v=94
143734 On ch=2 n=d6 v=0
143734 On ch=2 n=b5 v=0
143734 On ch=2 n=d7 v=0
143739 On ch=2 n=a6 v=84
143739 On ch=2 n=e6 v=84
143739 On ch=2 n=c#6 v=84
143974 On ch=2 n=c#6 v=0
143974 On ch=2 n=e6 v=0
143974 On ch=2 n=a6 v=0
143979 On ch=2 n=g6 v=101
143979 On ch=2 n=d6 v=101
143979 On ch=2 n=b5 v=101
144214 On ch=2 n=b5 v=0
144214 On ch=2 n=d6 v=0
144214 On ch=2 n=g6 v=0
144219 On ch=2 n=a6 v=93
144219 On ch=2 n=a5 v=93
144219 On ch=2 n=c#6 v=93
144454 On ch=2 n=c#6 v=0
144454 On ch=2 n=a5 v=0
144454 On ch=2 n=a6 v=0
144459 On ch=2 n=b6 v=84
144459 On ch=2 n=b5 v=84
144459 On ch=2 n=g5 v=84
144694 On ch=2 n=g5 v=0
144694 On ch=2 n=b5 v=0
144694 On ch=2 n=b6 v=0
144699 On ch=2 n=c#6 v=76
144699 On ch=2 n=a5 v=76
144707 On ch=2 n=f#6 v=76
144934 On ch=2 n=a5 v=0
144934 On ch=2 n=c#6 v=0
144939 On ch=2 n=b5 v=78
144939 Par ch=2 c=64 v=127
144939 On ch=2 n=e6 v=78
144942 On ch=2 n=f#6 v=0
145174 On ch=2 n=e6 v=0
145179 On ch=2 n=f#6 v=69
145179 On ch=2 n=a5 v=69
145179 Par ch=2 c=64 v=0
145179 On ch=2 n=d#6 v=69
145414 On ch=2 n=d#6 v=0
145414 On ch=2 n=f#6 v=0
145419 On ch=2 n=g6 v=61
145419 On ch=2 n=e6 v=59
145419 On ch=2 n=g5 v=59
145435 On ch=2 n=a5 v=0
145654 On ch=2 n=g5 v=0
145654 On ch=2 n=e6 v=0
145654 On ch=2 n=g6 v=0
145659 On ch=2 n=a5 v=49
145659 On ch=2 n=c#6 v=49
145707 On ch=2 n=b5 v=0
145894 On ch=2 n=c#6 v=0
145894 On ch=2 n=a5 v=0
145899 Par ch=2 c=64 v=127
145899 On ch=2 n=d6 v=57
145899 On ch=2 n=f#5 v=57
146332 Par ch=2 c=64 v=0
146355 On ch=2 n=f#5 v=0
146379 On ch=2 n=f#5 v=74
146395 On ch=2 n=d6 v=0
146463 Par ch=2 c=64 v=127
146499 On ch=2 n=g5 v=77
146511 On ch=2 n=f#5 v=0
146631 On ch=2 n=g5 v=0
146635 On ch=2 n=a5 v=80
146747 On ch=2 n=d6 v=84
146767 On ch=2 n=a5 v=0
146829 Par ch=2 c=64 v=0
146859 Par ch=2 c=64 v=127
146859 On ch=2 n=b5 v=86
146879 On ch=2 n=d6 v=0
147339 On ch=2 n=f#5 v=67
147459 On ch=2 n=g5 v=74
147471 On ch=2 n=f#5 v=0
147579 On ch=2 n=a5 v=81
147591 On ch=2 n=g5 v=0
147595 On ch=2 n=b5 v=0
147699 On ch=2 n=f#6 v=88
147711 On ch=2 n=a5 v=0
147789 Par ch=2 c=64 v=0
147819 On ch=2 n=e6 v=87
147819 Par ch=2 c=64 v=127
147831 On ch=2 n=f#6 v=0
148299 On ch=2 n=d5 v=75
148419 On ch=2 n=e5 v=84
148431 On ch=2 n=d5 v=0
148539 On ch=2 n=f#5 v=93
148551 On ch=2 n=e5 v=0
148659 On ch=2 n=d6 v=100
148671 On ch=2 n=f#5 v=0
148707 On ch=2 n=e6 v=0
148749 Par ch=2 c=64 v=0
148779 Par ch=2 c=64 v=127
148779 On ch=2 n=g#5 v=96
148779 On ch=2 n=c#6 v=96
148791 On ch=2 n=d6 v=0
149259 On ch=2 n=d5 v=92
149307 On ch=2 n=g#5 v=0
149379 On ch=2 n=e5 v=94
149391 On ch=2 n=d5 v=0
149483 On ch=2 n=c#6 v=0
149499 On ch=2 n=g5 v=95
149499 On ch=2 n=c#6 v=95
149511 On ch=2 n=e5 v=0
149579 On ch=2 n=d6 v=95
149587 On ch=2 n=c#6 v=0
149651 On ch=2 n=b5 v=96
149667 On ch=2 n=d6 v=0
149709 Par ch=2 c=64 v=0
149715 On ch=2 n=g5 v=0
149731 On ch=2 n=b5 v=0
149739 Par ch=2 c=64 v=127
149739 On ch=2 n=b5 v=97
149739 On ch=2 n=g5 v=97
150219 On ch=2 n=c#5 v=74
150331 On ch=2 n=g5 v=0
150339 On ch=2 n=g5 v=79
150351 On ch=2 n=c#5 v=0
150443 On ch=2 n=b5 v=0
150459 On ch=2 n=a5 v=84
150579 On ch=2 n=d6 v=88
150669 Par ch=2 c=64 v=0
150699 Par ch=2 c=64 v=127
150699 On ch=2 n=c#6 v=93
151155 On ch=2 n=g5 v=0
151163 On ch=2 n=c#6 v=0
151171 On ch=2 n=d6 v=0
151171 On ch=2 n=a5 v=0
151187 On ch=2 n=g5 v=100
151299 On ch=2 n=a5 v=100
151419 On ch=2 n=c#6 v=100
151547 On ch=2 n=f#6 v=100
151643 On ch=2 n=c#6 v=0
151659 On ch=2 n=c#6 v=100
151667 On ch=2 n=e6 v=100
151683 On ch=2 n=f#6 v=0
152109 Par ch=2 c=64 v=0
152115 On ch=2 n=g5 v=0
152139 On ch=2 n=g5 v=113
152139 Par ch=2 c=64 v=127
152243 On ch=2 n=a5 v=0
152251 On ch=2 n=c#6 v=0
152259 On ch=2 n=e6 v=0
152259 On ch=2 n=a5 v=110
152379 On ch=2 n=b6 v=107
152515 On ch=2 n=b6 v=0
152539 On ch=2 n=a5 v=0
152547 On ch=2 n=b6 v=103
152611 On ch=2 n=b6 v=0
152611 On ch=2 n=g5 v=0
152619 On ch=2 n=b6 v=101
152619 On ch=2 n=g5 v=101
152619 On ch=2 n=a5 v=101
152779 On ch=2 n=a6 v=97
152779 On ch=2 n=f#5 v=97
152795 On ch=2 n=g5 v=0
152795 On ch=2 n=b6 v=0
152939 On ch=2 n=e5 v=93
152955 On ch=2 n=f#5 v=0
153019 On ch=2 n=g6 v=90
153027 On ch=2 n=a6 v=0
153091 On ch=2 n=g6 v=0
153099 On ch=2 n=b5 v=88
153099 On ch=2 n=g6 v=88
153115 On ch=2 n=e5 v=0
153243 On ch=2 n=a5 v=0
153259 On ch=2 n=a5 v=84
153259 On ch=2 n=f#6 v=84
153275 On ch=2 n=b5 v=0
153291 On ch=2 n=g6 v=0
153435 On ch=2 n=f#6 v=0
153435 On ch=2 n=a5 v=0
153499 On ch=2 n=f6 v=86
153499 On ch=2 n=a5 v=86
153549 Par ch=2 c=64 v=0
153579 On ch=2 n=b5 v=92
153579 On ch=2 n=d6 v=92
153579 On ch=2 n=g6 v=92
153579 Par ch=2 c=64 v=127
153587 On ch=2 n=a5 v=0
153587 On ch=2 n=f6 v=0
153739 On ch=2 n=a5 v=81
153739 On ch=2 n=f#6 v=81
153755 On ch=2 n=g6 v=0
153755 On ch=2 n=d6 v=0
153755 On ch=2 n=b5 v=0
153915 On ch=2 n=f#6 v=0
153915 On ch=2 n=a5 v=0
154059 On ch=2 n=f#5 v=80
154179 On ch=2 n=g5 v=83
154191 On ch=2 n=f#5 v=0
154299 On ch=2 n=a5 v=85
154311 On ch=2 n=g5 v=0
154419 On ch=2 n=d6 v=88
154431 On ch=2 n=a5 v=0
154509 Par ch=2 c=64 v=0
154539 Par ch=2 c=64 v=127
154539 On ch=2 n=b5 v=90
154551 On ch=2 n=d6 v=0
155019 On ch=2 n=f#5 v=78
155139 On ch=2 n=g5 v=83
155151 On ch=2 n=f#5 v=0
155259 On ch=2 n=a5 v=88
155271 On ch=2 n=g5 v=0
155299 On ch=2 n=b5 v=0
155387 On ch=2 n=f#6 v=100
155391 On ch=2 n=a5 v=0
155469 Par ch=2 c=64 v=0
155499 Par ch=2 c=64 v=127
155499 On ch=2 n=e6 v=105
155519 On ch=2 n=f#6 v=0
155979 On ch=2 n=d5 v=92
156099 On ch=2 n=e5 v=93
156111 On ch=2 n=d5 v=0
156219 On ch=2 n=f#5 v=95
156231 On ch=2 n=e5 v=0
156339 On ch=2 n=e6 v=0
156347 On ch=2 n=d6 v=97
156351 On ch=2 n=f#5 v=0
156429 Par ch=2 c=64 v=0
156459 Par ch=2 c=64 v=127
156459 On ch=2 n=g#5 v=98
156459 On ch=2 n=d5 v=98
156459 On ch=2 n=c#6 v=98
156479 On ch=2 n=d6 v=0
156923 On ch=2 n=d5 v=0
156939 On ch=2 n=d5 v=89
157059 On ch=2 n=e5 v=88
157071 On ch=2 n=d5 v=0
157155 On ch=2 n=c#6 v=0
157179 On ch=2 n=g#5 v=0
157179 On ch=2 n=c#6 v=86
157195 On ch=2 n=f#5 v=85
157299 On ch=2 n=d5 v=84
157299 On ch=2 n=b5 v=84
157311 On ch=2 n=c#6 v=0
157327 On ch=2 n=f#5 v=0
157389 Par ch=2 c=64 v=0
157403 On ch=2 n=d5 v=0
157403 On ch=2 n=e5 v=0
157411 On ch=2 n=b5 v=0
157419 Par ch=2 c=64 v=127
157419 On ch=2 n=d5 v=89
157419 On ch=2 n=g5 v=89
157419 On ch=2 n=b5 v=89
157883 On ch=2 n=b5 v=0
157891 On ch=2 n=g5 v=0
157891 On ch=2 n=d5 v=0
157899 On ch=2 n=c#5 v=74
158019 On ch=2 n=g5 v=79
158031 On ch=2 n=c#5 v=0
158139 On ch=2 n=a5 v=84
158259 On ch=2 n=d6 v=89
158349 Par ch=2 c=64 v=0
158379 Par ch=2 c=64 v=127
158379 On ch=2 n=c#6 v=83
158379 On ch=2 n=c#6 v=83
158411 On ch=2 n=d6 v=0
158819 On ch=2 n=g5 v=0
158859 On ch=2 n=g5 v=100
158939 On ch=2 n=a5 v=0
158979 On ch=2 n=a5 v=100
159051 On ch=2 n=c#6 v=0
159051 On ch=2 n=c#6 v=0
159099 On ch=2 n=d6 v=100
159219 On ch=2 n=f#6 v=100
159339 On ch=2 n=e6 v=100
159339 On ch=2 n=c#6 v=100
159355 On ch=2 n=f#6 v=0
159363 On ch=2 n=d6 v=0
159811 On ch=2 n=g5 v=0
159819 On ch=2 n=g5 v=98
159827 On ch=2 n=e6 v=0
159843 On ch=2 n=c#6 v=0
159915 On ch=2 n=a5 v=0
159939 On ch=2 n=c#6 v=100
160059 On ch=2 n=a6 v=103
160179 On ch=2 n=a#6 v=104
160191 On ch=2 n=a6 v=0
160239 Par ch=2 c=64 v=0
160291 On ch=2 n=a#6 v=0
160299 On ch=2 n=a#6 v=107
160299 Par ch=2 c=64 v=127
160299 On ch=2 n=g#6 v=107
160307 On ch=2 n=g5 v=0
160419 On ch=2 n=c#6 v=0
160539 On ch=2 n=c#6 v=112
160539 On ch=2 n=b6 v=112
160563 On ch=2 n=a#6 v=0
160763 On ch=2 n=b6 v=0
160779 On ch=2 n=c7 v=116
160899 On ch=2 n=c#7 v=118
160911 On ch=2 n=c7 v=0
160995 On ch=2 n=c#6 v=0
161011 On ch=2 n=g#6 v=0
161019 On ch=2 n=a6 v=121
161019 On ch=2 n=f#7 v=121
161031 On ch=2 n=c#7 v=0
161139 On ch=2 n=g6 v=123
161139 On ch=2 n=e7 v=123
161171 On ch=2 n=f#7 v=0
161187 On ch=2 n=a6 v=0
161229 Par ch=2 c=64 v=0
161259 Par ch=2 c=64 v=127
161259 On ch=2 n=d7 v=125
161259 On ch=2 n=f#6 v=125
161275 On ch=2 n=g6 v=0
161283 On ch=2 n=e7 v=0
161731 On ch=2 n=d7 v=0
161739 On ch=2 n=d7 v=108
162211 On ch=2 n=f#6 v=0
162219 On ch=2 n=f#6 v=112
162243 On ch=2 n=d7 v=0
162699 On ch=2 n=b6 v=115
162755 On ch=2 n=f#6 v=0
163059 On ch=2 n=a6 v=118
163091 On ch=2 n=b6 v=0
163157 Par ch=2 c=64 v=0
163179 On ch=2 n=g#6 v=119
163179 On ch=2 n=f6 v=119
163179 Par ch=2 c=64 v=127
163179 On ch=2 n=b5 v=119
163191 On ch=2 n=a6 v=0
163659 On ch=2 n=e6 v=115
163691 On ch=2 n=b5 v=0
163691 On ch=2 n=f6 v=0
164019 On ch=2 n=d6 v=113
164051 On ch=2 n=e6 v=0
164139 On ch=2 n=a#5 v=112
164139 On ch=2 n=g6 v=112
164139 Par ch=2 c=64 v=0
164139 On ch=2 n=c#6 v=112
164151 On ch=2 n=d6 v=0
164171 On ch=2 n=g#6 v=0
164619 On ch=2 n=a5 v=109
164627 On ch=2 n=g6 v=0
164627 On ch=2 n=f#6 v=109
164643 On ch=2 n=a#5 v=0
164979 On ch=2 n=g5 v=108
164979 On ch=2 n=e6 v=108
165003 On ch=2 n=f#6 v=0
165003 On ch=2 n=a5 v=0
165099 On ch=2 n=c#6 v=0
165099 On ch=2 n=f#5 v=107
165099 Par ch=2 c=64 v=127
165099 On ch=2 n=d6 v=107
165111 On ch=2 n=e6 v=0
165111 On ch=2 n=g5 v=0
165339 On ch=2 n=c#6 v=116
165363 On ch=2 n=d6 v=0
165579 On ch=2 n=c6 v=110
165603 On ch=2 n=c#6 v=0
165819 On ch=2 n=b5 v=105
165843 On ch=2 n=c6 v=0
166059 On ch=2 n=a5 v=99
166083 On ch=2 n=b5 v=0
166539 On ch=2 n=b5 v=101
166539 On ch=2 n=c5 v=101
166571 On ch=2 n=a5 v=0
166907 On ch=2 n=a5 v=111
166923 On ch=2 n=b5 v=0
166963 Par ch=2 c=64 v=0
166992 Par ch=2 c=64 v=0
167011 On ch=2 n=a5 v=0
167019 On ch=2 n=b4 v=108
167019 On ch=2 n=f5 v=108
167019 Par ch=2 c=64 v=127
167019 On ch=2 n=a5 v=108
167027 On ch=2 n=c5 v=0
167035 On ch=2 n=f#5 v=0
167259 Par ch=2 c=64 v=0
167259 On ch=2 n=g#5 v=104
167275 On ch=2 n=a5 v=0
167499 Par ch=2 c=64 v=127
167499 On ch=2 n=e5 v=91
167531 On ch=2 n=f5 v=0
167859 On ch=2 n=d5 v=98
167883 On ch=2 n=e5 v=0
167979 On ch=2 n=g5 v=101
167979 Par ch=2 c=64 v=0
167979 On ch=2 n=c#5 v=101
167991 On ch=2 n=d5 v=0
167995 On ch=2 n=g#5 v=0
168459 On ch=2 n=f#5 v=111
168475 On ch=2 n=g5 v=0
168819 On ch=2 n=e5 v=85
168843 On ch=2 n=f#5 v=0
168939 On ch=2 n=f#5 v=79
168939 On ch=2 n=d5 v=79
168955 On ch=2 n=e5 v=0
168955 On ch=2 n=c#5 v=0
168963 On ch=2 n=b4 v=0
169403 On ch=2 n=d5 v=0
169403 On ch=2 n=f#5 v=0
169419 On ch=2 n=f#5 v=67
170379 On ch=2 n=e5 v=80
170419 On ch=2 n=f#5 v=0
170739 On ch=2 n=d5 v=72
170787 On ch=2 n=e5 v=0
170859 On ch=2 n=f#5 v=69
170871 On ch=2 n=d5 v=0
171323 On ch=2 n=f#5 v=0
171339 On ch=2 n=f#5 v=59
172299 On ch=2 n=e5 v=59
172331 On ch=2 n=f#5 v=0
172667 On ch=2 n=d5 v=57
172691 On ch=2 n=e5 v=0
172771 On ch=2 n=d5 v=0
172779 On ch=2 n=d5 v=66
172779 On ch=2 n=e5 v=66
173739 On ch=2 n=c#5 v=100
173755 On ch=2 n=d5 v=0
175691 On ch=2 n=c#5 v=0
175691 On ch=2 n=e5 v=0
176139 On ch=2 n=g6 v=107
176259 On ch=2 n=g6 v=0
176259 On ch=2 n=f#6 v=99
176379 On ch=2 n=f#6 v=0
176379 On ch=2 n=d6 v=90
176499 On ch=2 n=d6 v=0
176499 On ch=2 n=b5 v=79
176619 On ch=2 n=b5 v=0
176619 On ch=2 n=f#5 v=67
177099 On ch=2 n=b4 v=69
177099 On ch=2 n=d5 v=69
177579 On ch=2 n=d5 v=0
177579 On ch=2 n=b4 v=0
177579 On ch=2 n=f#5 v=0
177579 On ch=2 n=b5 v=91
177579 On ch=2 n=b4 v=91
177579 On ch=2 n=e5 v=91
178059 On ch=2 n=e5 v=0
178059 On ch=2 n=b4 v=0
178059 On ch=2 n=b5 v=0
178059 On ch=2 n=g5 v=106
178059 On ch=2 n=b5 v=106
178059 On ch=2 n=c#5 v=106
178059 On ch=2 n=c#6 v=106
178539 On ch=2 n=c#6 v=0
178539 On ch=2 n=c#5 v=0
178539 On ch=2 n=b5 v=0
178539 On ch=2 n=g5 v=0
178539 On ch=2 n=a#5 v=124
178539 On ch=2 n=c#5 v=124
178539 On ch=2 n=a#4 v=124
178539 On ch=2 n=f#5 v=124
179019 On ch=2 n=f#5 v=0
179019 On ch=2 n=a#4 v=0
179019 On ch=2 n=c#5 v=0
179019 On ch=2 n=a#5 v=0
179259 On ch=2 n=f#5 v=80
179259 On ch=2 n=f#4 v=80
179259 On ch=2 n=a#4 v=80
179259 On ch=2 n=c#5 v=80
179499 On ch=2 n=c#5 v=0
179499 On ch=2 n=a#4 v=0
179499 On ch=2 n=f#4 v=0
179499 On ch=2 n=f#5 v=0
179499 On ch=2 n=b5 v=85
179499 On ch=2 n=f#5 v=85
179499 On ch=2 n=b4 v=85
179739 On ch=2 n=b4 v=0
179739 On ch=2 n=f#5 v=0
179739 On ch=2 n=b5 v=0
179739 On ch=2 n=f#5 v=90
179739 On ch=2 n=c#6 v=90
179739 On ch=2 n=c#5 v=90
179739 On ch=2 n=f#5 v=90
179739 On ch=2 n=c#6 v=90
179739 On ch=2 n=c#5 v=90
179979 On ch=2 n=c#5 v=0
179979 On ch=2 n=c#6 v=0
179979 On ch=2 n=f#5 v=0
179979 On ch=2 n=c#5 v=0
179979 On ch=2 n=c#6 v=0
179979 On ch=2 n=f#5 v=0
179979 On ch=2 n=f#5 v=95
179979 On ch=2 n=b5 v=95
179979 On ch=2 n=d6 v=95
179979 On ch=2 n=d5 v=95
180219 On ch=2 n=d5 v=0
180219 On ch=2 n=d6 v=0
180219 On ch=2 n=b5 v=0
180219 On ch=2 n=f#5 v=0
180219 On ch=2 n=g5 v=108
180219 On ch=2 n=e6 v=108
180219 On ch=2 n=b5 v=108
180219 On ch=2 n=e5 v=108
180459 On ch=2 n=e5 v=0
180459 On ch=2 n=b5 v=0
180459 On ch=2 n=e6 v=0
180459 On ch=2 n=g5 v=0
180459 On ch=2 n=f#5 v=119
180459 On ch=2 n=f#6 v=119
180459 On ch=2 n=d6 v=119
180459 On ch=2 n=b5 v=119
181419 On ch=2 n=b5 v=0
181419 On ch=2 n=d6 v=0
181419 On ch=2 n=f#6 v=0
181419 On ch=2 n=f#5 v=0
181419 On ch=2 n=e6 v=117
181419 On ch=2 n=a6 v=117
181419 On ch=2 n=b5 v=117
181419 On ch=2 n=a5 v=117
182139 On ch=2 n=a5 v=0
182139 On ch=2 n=b5 v=0
182139 On ch=2 n=a6 v=0
182139 On ch=2 n=e6 v=0
182139 On ch=2 n=g6 v=93
182139 On ch=2 n=e6 v=93
182139 On ch=2 n=b5 v=93
182139 On ch=2 n=g5 v=93
182379 On ch=2 n=g5 v=0
182379 On ch=2 n=b5 v=0
182379 On ch=2 n=e6 v=0
182379 On ch=2 n=g6 v=0
182379 On ch=2 n=f#6 v=69
182379 On ch=2 n=d6 v=69
182379 On ch=2 n=b5 v=69
182379 On ch=2 n=f#5 v=69
183339 On ch=2 n=f#5 v=0
183339 On ch=2 n=b5 v=0
183339 On ch=2 n=d6 v=0
183339 On ch=2 n=f#6 v=0
183579 On ch=2 n=b6 v=100
183814 On ch=2 n=b6 v=0
183819 On ch=2 n=g6 v=94
183936 On ch=2 n=g6 v=0
183939 On ch=2 n=f#6 v=88
184056 On ch=2 n=f#6 v=0
184059 On ch=2 n=d6 v=79
184176 On ch=2 n=d6 v=0
184179 On ch=2 n=b5 v=71
184296 On ch=2 n=b5 v=0
184299 On ch=2 n=f#5 v=62
184779 On ch=2 n=b4 v=76
184779 On ch=2 n=d5 v=76
185239 On ch=2 n=f#5 v=0
185249 On ch=2 n=d5 v=0
185249 On ch=2 n=b4 v=0
185259 On ch=2 n=b5 v=91
185259 On ch=2 n=e5 v=91
185259 On ch=2 n=b4 v=91
185729 On ch=2 n=b4 v=0
185729 On ch=2 n=e5 v=0
185729 On ch=2 n=b5 v=0
185739 On ch=2 n=c#6 v=103
185739 On ch=2 n=b5 v=103
185739 On ch=2 n=g5 v=103
185739 On ch=2 n=c#5 v=103
186209 On ch=2 n=c#5 v=0
186209 On ch=2 n=g5 v=0
186209 On ch=2 n=b5 v=0
186209 On ch=2 n=c#6 v=0
186219 On ch=2 n=d5 v=120
186219 On ch=2 n=f#5 v=120
186219 On ch=2 n=b5 v=120
186219 On ch=2 n=d6 v=120
186689 On ch=2 n=d6 v=0
186689 On ch=2 n=b5 v=0
186689 On ch=2 n=f#5 v=0
186689 On ch=2 n=d5 v=0
186939 On ch=2 n=f5 v=88
186939 On ch=2 n=g#4 v=88
186939 On ch=2 n=d5 v=88
187174 On ch=2 n=d5 v=0
187174 On ch=2 n=g#4 v=0
187174 On ch=2 n=f5 v=0
187179 On ch=2 n=c#5 v=93
187179 On ch=2 n=f#5 v=93
187179 On ch=2 n=f#4 v=93
187414 On ch=2 n=f#4 v=0
187414 On ch=2 n=f#5 v=0
187414 On ch=2 n=c#5 v=0
187419 On ch=2 n=g#5 v=96
187419 On ch=2 n=g#4 v=96
187419 On ch=2 n=c#5 v=96
187651 On ch=2 n=a5 v=99
187654 On ch=2 n=c#5 v=0
187654 On ch=2 n=g#4 v=0
187654 On ch=2 n=g#5 v=0
187664 On ch=2 n=c#5 v=99
187664 On ch=2 n=a4 v=99
187883 On ch=2 n=a5 v=0
187893 On ch=2 n=b5 v=100
187893 On ch=2 n=f#5 v=100
187893 On ch=2 n=b4 v=100
187896 On ch=2 n=a4 v=0
187896 On ch=2 n=c#5 v=0
188128 On ch=2 n=b4 v=0
188128 On ch=2 n=f#5 v=0
188128 On ch=2 n=b5 v=0
188133 On ch=2 n=c#5 v=123
188133 On ch=2 n=c#6 v=123
188133 On ch=2 n=a5 v=123
188133 On ch=2 n=f#5 v=123
189073 On ch=2 n=f#5 v=0
189073 On ch=2 n=a5 v=0
189073 On ch=2 n=c#6 v=0
189073 On ch=2 n=c#5 v=0
189093 On ch=2 n=c#6 v=123
189093 On ch=2 n=g#5 v=123
189093 On ch=2 n=f#5 v=123
189093 On ch=2 n=c#5 v=123
189798 On ch=2 n=c#5 v=0
189798 On ch=2 n=f#5 v=0
189798 On ch=2 n=g#5 v=0
189798 On ch=2 n=c#6 v=0
189813 On ch=2 n=c#6 v=112
189813 On ch=2 n=g#5 v=112
189813 On ch=2 n=c#5 v=112
189821 On ch=2 n=f5 v=112
190048 On ch=2 n=c#5 v=0
190048 On ch=2 n=g#5 v=0
190048 On ch=2 n=c#6 v=0
190053 On ch=2 n=c#6 v=119
190053 On ch=2 n=a#5 v=119
190053 On ch=2 n=f#5 v=119
190053 On ch=2 n=c#5 v=119
190056 On ch=2 n=f5 v=0
190187 On ch=2 n=c#5 v=0
190187 On ch=2 n=f#5 v=0
190187 On ch=2 n=a#5 v=0
190187 On ch=2 n=c#6 v=0
190533 On ch=2 n=d#5 v=127
190533 On ch=2 n=a5 v=127
190533 On ch=2 n=b5 v=127
190533 On ch=2 n=d#6 v=127
190667 On ch=2 n=d#6 v=0
190667 On ch=2 n=b5 v=0
190667 On ch=2 n=a5 v=0
190667 On ch=2 n=d#5 v=0
191013 On ch=2 n=b6 v=93
191013 On ch=2 n=b5 v=93
191483 On ch=2 n=b5 v=0
191483 On ch=2 n=b6 v=0
191493 On ch=2 n=c6 v=57
191610 On ch=2 n=c6 v=0
191613 On ch=2 n=b5 v=52
191730 On ch=2 n=b5 v=0
191733 On ch=2 n=g5 v=47
191850 On ch=2 n=g5 v=0
191853 On ch=2 n=e5 v=42
191970 On ch=2 n=e5 v=0
191973 On ch=2 n=b4 v=40
192453 On ch=2 n=g4 v=38
192453 On ch=2 n=e4 v=38
192913 On ch=2 n=b4 v=0
192923 On ch=2 n=e4 v=0
192923 On ch=2 n=g4 v=0
192933 On ch=2 n=e4 v=54
192933 On ch=2 n=g4 v=54
192933 On ch=2 n=c5 v=54
192933 On ch=2 n=e5 v=54
193403 On ch=2 n=e5 v=0
193403 On ch=2 n=c5 v=0
193403 On ch=2 n=g4 v=0
193403 On ch=2 n=e4 v=0
193413 On ch=2 n=f#4 v=74
193413 On ch=2 n=f#5 v=74
193413 On ch=2 n=e5 v=74
193413 On ch=2 n=c5 v=74
193883 On ch=2 n=c5 v=0
193883 On ch=2 n=e5 v=0
193883 On ch=2 n=f#5 v=0
193883 On ch=2 n=f#4 v=0
193893 On ch=2 n=d#5 v=62
193893 On ch=2 n=b4 v=62
193893 On ch=2 n=f#4 v=62
194305 On ch=2 n=f#4 v=0
194305 On ch=2 n=b4 v=0
194305 On ch=2 n=d#5 v=0
194613 On ch=2 n=d#4 v=40
194613 On ch=2 n=f#4 v=40
194613 On ch=2 n=b4 v=40
194848 On ch=2 n=b4 v=0
194848 On ch=2 n=f#4 v=0
194848 On ch=2 n=d#4 v=0
194853 On ch=2 n=e5 v=48
194853 On ch=2 n=b4 v=48
194853 On ch=2 n=e4 v=48
195088 On ch=2 n=e4 v=0
195088 On ch=2 n=b4 v=0
195088 On ch=2 n=e5 v=0
195093 On ch=2 n=f#4 v=56
195093 On ch=2 n=b4 v=56
195093 On ch=2 n=f#5 v=56
195328 On ch=2 n=f#5 v=0
195328 On ch=2 n=b4 v=0
195328 On ch=2 n=f#4 v=0
195333 On ch=2 n=g5 v=64
195333 On ch=2 n=e5 v=64
195333 On ch=2 n=b4 v=64
195333 On ch=2 n=g4 v=64
195568 On ch=2 n=g4 v=0
195568 On ch=2 n=b4 v=0
195568 On ch=2 n=e5 v=0
195568 On ch=2 n=g5 v=0
195573 On ch=2 n=a5 v=72
195573 On ch=2 n=e5 v=72
195573 On ch=2 n=f#4 v=72
195573 On ch=2 n=a4 v=72
195808 On ch=2 n=a4 v=0
195808 On ch=2 n=f#4 v=0
195808 On ch=2 n=e5 v=0
195808 On ch=2 n=a5 v=0
195813 On ch=2 n=b5 v=80
195813 On ch=2 n=g5 v=80
195813 On ch=2 n=e5 v=80
195813 On ch=2 n=b4 v=80
196753 On ch=2 n=b4 v=0
196753 On ch=2 n=e5 v=0
196753 On ch=2 n=g5 v=0
196753 On ch=2 n=b5 v=0
196773 On ch=2 n=a5 v=83
196773 On ch=2 n=e5 v=83
196773 On ch=2 n=d5 v=83
196781 On ch=2 n=d6 v=83
197605 On ch=2 n=d6 v=0
197605 On ch=2 n=d5 v=0
197605 On ch=2 n=e5 v=0
197605 On ch=2 n=a5 v=0
197613 On ch=2 n=c6 v=60
197613 On ch=2 n=c6 v=60
197621 On ch=2 n=a5 v=60
197730 On ch=2 n=c6 v=0
197730 On ch=2 n=c6 v=0
197733 On ch=2 n=b4 v=37
197733 On ch=2 n=g5 v=37
197733 On ch=2 n=b5 v=37
197738 On ch=2 n=a5 v=0
198673 On ch=2 n=b5 v=0
198673 On ch=2 n=g5 v=0
198673 On ch=2 n=b4 v=0
198933 On ch=2 n=e6 v=69
199168 On ch=2 n=e6 v=0
199173 On ch=2 n=c6 v=58
199290 On ch=2 n=c6 v=0
199301 On ch=2 n=b5 v=53
199413 On ch=2 n=g5 v=44
199418 On ch=2 n=b5 v=0
199530 On ch=2 n=g5 v=0
199533 On ch=2 n=e5 v=51
199650 On ch=2 n=e5 v=0
199653 On ch=2 n=c5 v=57
200133 On ch=2 n=a#4 v=40
200133 On ch=2 n=e4 v=40
200603 On ch=2 n=e4 v=0
200603 On ch=2 n=a#4 v=0
200613 On ch=2 n=f4 v=41
200613 On ch=2 n=a4 v=41
200613 On ch=2 n=a4 v=41
200613 On ch=2 n=f4 v=41
200848 On ch=2 n=f4 v=0
200848 On ch=2 n=a4 v=0
200848 On ch=2 n=a4 v=0
200848 On ch=2 n=f4 v=0
200853 On ch=2 n=c5 v=0
200973 On ch=2 n=f6 v=68
201090 On ch=2 n=f6 v=0
201093 On ch=2 n=d6 v=66
201210 On ch=2 n=d6 v=0
201213 On ch=2 n=c6 v=59
201330 On ch=2 n=c6 v=0
201333 On ch=2 n=a5 v=46
201450 On ch=2 n=a5 v=0
201453 On ch=2 n=f5 v=53
201453 On ch=2 n=f5 v=53
201570 On ch=2 n=f5 v=0
201570 On ch=2 n=f5 v=0
201573 On ch=2 n=c#5 v=59
202053 On ch=2 n=f4 v=40
202053 On ch=2 n=b4 v=40
202523 On ch=2 n=b4 v=0
202523 On ch=2 n=f4 v=0
202533 On ch=2 n=a#4 v=47
202541 On ch=2 n=f#4 v=47
202768 On ch=2 n=a#4 v=0
202773 On ch=2 n=c#5 v=0
202776 On ch=2 n=f#4 v=0
202893 On ch=2 n=f#6 v=76
202893 Par ch=2 c=64 v=127
203010 On ch=2 n=f#6 v=0
203013 On ch=2 n=d6 v=67
203130 On ch=2 n=d6 v=0
203133 On ch=2 n=c#6 v=71
203250 On ch=2 n=c#6 v=0
203253 On ch=2 n=a#5 v=75
203370 On ch=2 n=a#5 v=0
203373 On ch=2 n=f#5 v=79
203490 On ch=2 n=f#5 v=0
203493 On ch=2 n=d5 v=84
203493 On ch=2 n=b4 v=84
203728 On ch=2 n=b4 v=0
203728 On ch=2 n=d5 v=0
203836 Par ch=2 c=64 v=50
203853 Par ch=2 c=64 v=127
203853 On ch=2 n=g6 v=93
203853 On ch=2 n=g6 v=93
203970 On ch=2 n=g6 v=0
203970 On ch=2 n=g6 v=0
203973 On ch=2 n=e6 v=84
204090 On ch=2 n=e6 v=0
204093 On ch=2 n=d6 v=88
204210 On ch=2 n=d6 v=0
204213 On ch=2 n=b5 v=93
204330 On ch=2 n=b5 v=0
204333 On ch=2 n=g5 v=97
204450 On ch=2 n=g5 v=0
204453 On ch=2 n=d#5 v=101
204453 On ch=2 n=c5 v=101
204688 On ch=2 n=c5 v=0
204688 On ch=2 n=d#5 v=0
204813 Par ch=2 c=64 v=127
204813 On ch=2 n=g#6 v=108
204930 On ch=2 n=g#6 v=0
204933 On ch=2 n=e6 v=91
205050 On ch=2 n=e6 v=0
205053 On ch=2 n=d#6 v=96
205170 On ch=2 n=d#6 v=0
205173 On ch=2 n=c6 v=101
205290 On ch=2 n=c6 v=0
205293 On ch=2 n=g#5 v=107
205410 On ch=2 n=g#5 v=0
205413 Par ch=2 c=64 v=127
205413 On ch=2 n=c#5 v=112
205413 On ch=2 n=e5 v=112
205648 On ch=2 n=e5 v=0
205648 On ch=2 n=c#5 v=0
205773 On ch=2 n=a6 v=122
205773 On ch=2 n=a6 v=122
205890 On ch=2 n=a6 v=0
205890 On ch=2 n=a6 v=0
205893 On ch=2 n=g6 v=98
206010 On ch=2 n=g6 v=0
206021 On ch=2 n=e6 v=104
206138 On ch=2 n=e6 v=0
206141 On ch=2 n=c#6 v=111
206253 On ch=2 n=a5 v=117
206258 On ch=2 n=c#6 v=0
206273 Par ch=2 c=64 v=0
206370 On ch=2 n=a5 v=0
206373 Par ch=2 c=64 v=127
206373 On ch=2 n=c#5 v=123
206373 On ch=2 n=a#5 v=123
206608 On ch=2 n=a#5 v=0
206608 On ch=2 n=c#5 v=0
206733 On ch=2 n=a#6 v=127
206850 On ch=2 n=a#6 v=0
206853 On ch=2 n=f#6 v=100
206970 On ch=2 n=f#6 v=0
206973 On ch=2 n=e6 v=109
207090 On ch=2 n=e6 v=0
207093 On ch=2 n=c#6 v=116
207210 On ch=2 n=c#6 v=0
207213 On ch=2 n=a#5 v=122
207223 Par ch=2 c=64 v=0
207330 On ch=2 n=a#5 v=0
207333 On ch=2 n=a#6 v=100
207333 On ch=2 n=d6 v=100
207333 On ch=2 n=a#5 v=100
207489 On ch=2 n=a#5 v=0
207489 On ch=2 n=d6 v=0
207489 On ch=2 n=a#6 v=0
207493 On ch=2 n=a6 v=112
207493 On ch=2 n=a5 v=112
207649 On ch=2 n=a5 v=0
207649 On ch=2 n=a6 v=0
207653 On ch=2 n=g6 v=118
207653 On ch=2 n=g5 v=118
207809 On ch=2 n=g5 v=0
207809 On ch=2 n=g6 v=0
207813 On ch=2 n=f6 v=124
207813 On ch=2 n=f5 v=124
207813 On ch=2 n=a#5 v=124
208269 On ch=2 n=a#5 v=0
208277 On ch=2 n=f5 v=0
208277 On ch=2 n=f6 v=0
208293 On ch=2 n=c6 v=123
208293 On ch=2 n=g5 v=123
208293 On ch=2 n=d#6 v=123
208629 On ch=2 n=d#6 v=0
208661 On ch=2 n=d#6 v=118
208757 On ch=2 n=c6 v=0
208765 On ch=2 n=g5 v=0
208773 On ch=2 n=d6 v=116
208773 On ch=2 n=a5 v=116
208773 On ch=2 n=d#5 v=116
208778 On ch=2 n=d#6 v=0
209125 On ch=2 n=d6 v=0
209133 On ch=2 n=c6 v=105
209237 On ch=2 n=d#5 v=0
209237 On ch=2 n=a5 v=0
209247 On ch=2 n=c6 v=0
209250 On ch=2 n=d5 v=92
209250 On ch=2 n=a5 v=92
209250 On ch=2 n=d6 v=92
209720 On ch=2 n=d6 v=0
209720 On ch=2 n=a5 v=0
209720 On ch=2 n=d5 v=0
209730 On ch=2 n=d6 v=58
209730 On ch=2 n=g5 v=58
209730 On ch=2 n=d5 v=58
210200 On ch=2 n=d5 v=0
210200 On ch=2 n=g5 v=0
210200 On ch=2 n=d6 v=0
210210 On ch=2 n=c6 v=55
210210 On ch=2 n=g#5 v=55
210210 On ch=2 n=d#5 v=55
210522 On ch=2 n=c6 v=0
210570 On ch=2 n=c6 v=64
210680 On ch=2 n=d#5 v=0
210680 On ch=2 n=g#5 v=0
210690 On ch=2 n=c5 v=69
210690 On ch=2 n=a#5 v=69
210690 On ch=2 n=f#5 v=69
210690 On ch=2 n=f#5 v=69
210690 On ch=2 n=a#5 v=69
210690 On ch=2 n=c5 v=69
210722 On ch=2 n=c6 v=0
211050 On ch=2 n=a5 v=80
211050 On ch=2 n=a5 v=80
211082 On ch=2 n=a#5 v=0
211082 On ch=2 n=a#5 v=0
211154 On ch=2 n=f#5 v=0
211154 On ch=2 n=f#5 v=0
211160 On ch=2 n=c5 v=0
211160 On ch=2 n=c5 v=0
211170 On ch=2 n=g5 v=115
211170 On ch=2 n=c#5 v=115
211170 On ch=2 n=a#4 v=115
211170 On ch=2 n=g4 v=115
211210 On ch=2 n=a5 v=0
211210 On ch=2 n=a5 v=0
211640 On ch=2 n=g4 v=0
211640 On ch=2 n=a#4 v=0
211640 On ch=2 n=c#5 v=0
211640 On ch=2 n=g5 v=0
212130 On ch=2 n=f#5 v=79
212250 On ch=2 n=g5 v=98
212252 On ch=2 n=f#5 v=0
212370 On ch=2 n=a#5 v=103
212372 On ch=2 n=g5 v=0
212490 On ch=2 n=c#6 v=107
212492 On ch=2 n=a#5 v=0
212610 Par ch=2 c=64 v=127
212610 On ch=2 n=f#6 v=111
212612 On ch=2 n=c#6 v=0
212730 On ch=2 n=g6 v=115
212732 On ch=2 n=f#6 v=0
212850 On ch=2 n=g7 v=119
212852 On ch=2 n=g6 v=0
212950 Par ch=2 c=64 v=0
212972 On ch=2 n=g7 v=0
213011 On ch=2 n=f#7 v=125
213064 On ch=2 n=f#7 v=0
213090 Par ch=2 c=64 v=127
213090 On ch=2 n=f7 v=127
213208 On ch=2 n=f7 v=0
213210 On ch=2 n=e7 v=127
213328 On ch=2 n=e7 v=0
213330 On ch=2 n=d#7 v=127
213448 On ch=2 n=d#7 v=0
213450 On ch=2 n=d7 v=127
213568 On ch=2 n=d7 v=0
213570 On ch=2 n=d7 v=127
213570 On ch=2 n=g#6 v=127
213570 On ch=2 n=f6 v=127
213688 On ch=2 n=f6 v=0
213688 On ch=2 n=g#6 v=0
213688 On ch=2 n=d7 v=0
213690 On ch=2 n=d#6 v=127
213690 On ch=2 n=g6 v=127
213690 On ch=2 n=c7 v=127
213808 On ch=2 n=c7 v=0
213808 On ch=2 n=g6 v=0
213808 On ch=2 n=d#6 v=0
213810 On ch=2 n=a#6 v=127
213810 On ch=2 n=d6 v=127
213810 On ch=2 n=f6 v=127
213928 On ch=2 n=f6 v=0
213928 On ch=2 n=d6 v=0
213928 On ch=2 n=a#6 v=0
213930 On ch=2 n=g#6 v=127
213930 On ch=2 n=c6 v=127
213930 On ch=2 n=d#6 v=127
214048 On ch=2 n=d#6 v=0
214048 On ch=2 n=c6 v=0
214048 On ch=2 n=g#6 v=0
214050 On ch=2 n=g6 v=127
214050 On ch=2 n=a#5 v=127
214050 On ch=2 n=d6 v=127
214168 On ch=2 n=d6 v=0
214168 On ch=2 n=a#5 v=0
214168 On ch=2 n=g6 v=0
214170 On ch=2 n=g#5 v=127
214170 On ch=2 n=c6 v=127
214178 On ch=2 n=f6 v=127
214288 On ch=2 n=c6 v=0
214288 On ch=2 n=g#5 v=0
214290 On ch=2 n=d#6 v=127
214290 On ch=2 n=g5 v=127
214290 On ch=2 n=a#5 v=127
214296 On ch=2 n=f6 v=0
214408 On ch=2 n=a#5 v=0
214408 On ch=2 n=g5 v=0
214408 On ch=2 n=d#6 v=0
214410 On ch=2 n=d6 v=127
214410 On ch=2 n=f5 v=127
214410 On ch=2 n=a5 v=127
214528 On ch=2 n=a5 v=0
214528 On ch=2 n=f5 v=0
214528 On ch=2 n=d6 v=0
214530 Par ch=2 c=64 v=0
214530 On ch=2 n=d#5 v=127
214530 On ch=2 n=c6 v=127
214530 On ch=2 n=g5 v=127
214648 On ch=2 n=g5 v=0
214648 On ch=2 n=c6 v=0
214648 On ch=2 n=d#5 v=0
214650 On ch=2 n=d5 v=127
214650 On ch=2 n=a#5 v=127
214650 On ch=2 n=f5 v=127
214768 On ch=2 n=f5 v=0
214768 On ch=2 n=a#5 v=0
214768 On ch=2 n=d5 v=0
214770 On ch=2 n=c5 v=127
214770 On ch=2 n=g#5 v=127
214770 On ch=2 n=d#5 v=127
214888 On ch=2 n=d#5 v=0
214888 On ch=2 n=g#5 v=0
214888 On ch=2 n=c5 v=0
214890 On ch=2 n=d5 v=127
214890 On ch=2 n=g5 v=127
214890 On ch=2 n=a#4 v=127
215008 On ch=2 n=a#4 v=0
215008 On ch=2 n=g5 v=0
215008 On ch=2 n=d5 v=0
215010 On ch=2 n=f5 v=127
215010 On ch=2 n=d5 v=127
215247 On ch=2 n=d5 v=0
215247 On ch=2 n=f5 v=0
215490 On ch=2 n=f5 v=120
215490 On ch=2 n=b4 v=120
215490 On ch=2 n=g#4 v=120
215970 On ch=2 n=a#4 v=108
215974 On ch=2 n=b4 v=0
216450 On ch=2 n=f#5 v=88
216450 On ch=2 n=d#5 v=88
216459 On ch=2 n=g#4 v=0
216459 On ch=2 n=f5 v=0
216682 On ch=2 n=a#4 v=0
216692 On ch=2 n=d#5 v=0
216692 On ch=2 n=f#5 v=0
216810 On ch=2 n=c5 v=66
216810 On ch=2 n=d#5 v=66
216930 On ch=2 n=d5 v=68
216930 On ch=2 n=f4 v=68
216931 On ch=2 n=d#5 v=0
216931 On ch=2 n=c5 v=0
217286 On ch=2 n=d5 v=0
217290 On ch=2 n=c#5 v=75
217405 On ch=2 n=f4 v=0
217408 On ch=2 n=c#5 v=0
217410 On ch=2 n=f4 v=80
217410 On ch=2 n=a4 v=80
217410 On ch=2 n=e5 v=80
217766 On ch=2 n=e5 v=0
217770 On ch=2 n=d#5 v=84
217885 On ch=2 n=a4 v=0
217885 On ch=2 n=f4 v=0
217888 On ch=2 n=d#5 v=0
217890 On ch=2 n=f4 v=89
217890 On ch=2 n=b4 v=89
217890 On ch=2 n=f5 v=89
218246 On ch=2 n=f5 v=0
218250 On ch=2 n=e5 v=89
218365 On ch=2 n=b4 v=0
218365 On ch=2 n=f4 v=0
218368 On ch=2 n=e5 v=0
218370 On ch=2 n=c#5 v=97
218370 On ch=2 n=e5 v=97
218370 On ch=2 n=a#5 v=97
218726 On ch=2 n=a#5 v=0
218726 On ch=2 n=e5 v=0
218726 On ch=2 n=c#5 v=0
218730 On ch=2 n=a5 v=102
218848 On ch=2 n=a5 v=0
218850 On ch=2 n=a5 v=114
218850 On ch=2 n=d6 v=114
218850 On ch=2 n=a6 v=114
219800 On ch=2 n=a6 v=0
219810 On ch=2 n=a#6 v=93
220050 On ch=2 n=a6 v=99
220052 On ch=2 n=a#6 v=0
220290 On ch=2 n=g6 v=94
220292 On ch=2 n=a6 v=0
220530 On ch=2 n=f6 v=88
220532 On ch=2 n=g6 v=0
220750 On ch=2 n=d6 v=0
220750 On ch=2 n=a5 v=0
220770 On ch=2 n=a5 v=94
220772 On ch=2 n=f6 v=0
220778 On ch=2 n=e6 v=93
221010 On ch=2 n=d6 v=87
221020 On ch=2 n=e6 v=0
221250 On ch=2 n=f6 v=84
221252 On ch=2 n=d6 v=0
221490 On ch=2 n=e6 v=82
221492 On ch=2 n=f6 v=0
221730 On ch=2 n=d6 v=93
221730 On ch=2 n=a#5 v=93
221732 On ch=2 n=e6 v=0
221739 On ch=2 n=a5 v=0
221970 On ch=2 n=a5 v=88
221972 On ch=2 n=a#5 v=0
222210 On ch=2 n=g5 v=84
222212 On ch=2 n=a5 v=0
222450 On ch=2 n=f5 v=79
222452 On ch=2 n=g5 v=0
222682 On ch=2 n=d6 v=0
222690 On ch=2 n=e5 v=93
222690 On ch=2 n=d6 v=93
222690 On ch=2 n=a6 v=93
222692 On ch=2 n=f5 v=0
222930 On ch=2 n=d5 v=81
222932 On ch=2 n=e5 v=0
223170 On ch=2 n=f5 v=93
223172 On ch=2 n=d5 v=0
223410 On ch=2 n=e5 v=91
223412 On ch=2 n=f5 v=0
223650 On ch=2 n=a#6 v=99
223650 On ch=2 n=d5 v=99
223652 On ch=2 n=e5 v=0
223659 On ch=2 n=a6 v=0
223890 On ch=2 n=a6 v=93
223892 On ch=2 n=d5 v=0
223892 On ch=2 n=a#6 v=0
224132 On ch=2 n=a6 v=0
224138 On ch=2 n=g6 v=87
224370 On ch=2 n=f6 v=81
224380 On ch=2 n=g6 v=0
224610 On ch=2 n=e6 v=94
224612 On ch=2 n=f6 v=0
224629 On ch=2 n=d6 v=0
224850 On ch=2 n=d6 v=88
224852 On ch=2 n=e6 v=0
225090 On ch=2 n=f6 v=94
225092 On ch=2 n=d6 v=0
225330 On ch=2 n=e6 v=88
225332 On ch=2 n=f6 v=0
225570 On ch=2 n=d6 v=94
225570 On ch=2 n=c6 v=94
225572 On ch=2 n=e6 v=0
225810 On ch=2 n=a#5 v=88
225812 On ch=2 n=c6 v=0
226050 On ch=2 n=a5 v=82
226052 On ch=2 n=a#5 v=0
226290 On ch=2 n=g5 v=76
226292 On ch=2 n=a5 v=0
226522 On ch=2 n=g5 v=0
226522 On ch=2 n=d6 v=0
226530 On ch=2 n=d6 v=85
226530 On ch=2 n=a6 v=85
226530 On ch=2 n=g5 v=85
226770 On ch=2 n=f#5 v=76
226772 On ch=2 n=g5 v=0
227010 On ch=2 n=a5 v=93
227012 On ch=2 n=f#5 v=0
227250 On ch=2 n=g5 v=87
227250 On ch=2 n=g5 v=87
227252 On ch=2 n=a5 v=0
227490 On ch=2 n=a#6 v=98
227490 On ch=2 n=f#5 v=98
227492 On ch=2 n=g5 v=0
227492 On ch=2 n=g5 v=0
227499 On ch=2 n=a6 v=0
227730 On ch=2 n=a6 v=102
227732 On ch=2 n=f#5 v=0
227732 On ch=2 n=a#6 v=0
227970 On ch=2 n=g6 v=103
227972 On ch=2 n=a6 v=0
228210 On ch=2 n=f#6 v=103
228212 On ch=2 n=g6 v=0
228434 On ch=2 n=f#6 v=0
228450 On ch=2 n=d#6 v=110
228450 On ch=2 n=f#6 v=110
228469 On ch=2 n=d6 v=0
228690 On ch=2 n=d6 v=102
228692 On ch=2 n=d#6 v=0
228930 On ch=2 n=f6 v=111
228932 On ch=2 n=d6 v=0
229170 On ch=2 n=d#6 v=104
229172 On ch=2 n=f6 v=0
229394 On ch=2 n=f#6 v=0
229410 On ch=2 n=f#6 v=87
229410 On ch=2 n=d6 v=87
229412 On ch=2 n=d#6 v=0
229650 On ch=2 n=c6 v=105
229652 On ch=2 n=d6 v=0
229874 On ch=2 n=f#6 v=0
229890 On ch=2 n=a#5 v=98
229890 On ch=2 n=f#6 v=98
229892 On ch=2 n=c6 v=0
230090 On ch=2 n=a5 v=120
230132 On ch=2 n=a#5 v=0
230332 On ch=2 n=a5 v=0
230370 On ch=2 n=g5 v=127
230370 On ch=2 n=g6 v=127
230374 On ch=2 n=f#6 v=0
230375 Par ch=2 c=64 v=127
230854 On ch=2 n=g6 v=0
230854 On ch=2 n=g5 v=0
231010 On ch=2 n=a#4 v=127
231170 On ch=2 n=g5 v=127
231170 On ch=2 n=a#5 v=127
231171 On ch=2 n=a#4 v=0
231311 Par ch=2 c=64 v=0
231330 Par ch=2 c=64 v=127
231330 On ch=2 n=f5 v=127
231331 On ch=2 n=a#5 v=0
231331 On ch=2 n=g5 v=0
231490 On ch=2 n=d#5 v=127
231491 On ch=2 n=f5 v=0
231650 On ch=2 n=c6 v=127
231650 On ch=2 n=d#6 v=127
231651 On ch=2 n=d#5 v=0
231810 Par ch=2 c=64 v=127
231810 On ch=2 n=a#5 v=127
231811 On ch=2 n=d#6 v=0
231811 On ch=2 n=c6 v=0
231970 On ch=2 n=g5 v=127
231971 On ch=2 n=a#5 v=0
232130 On ch=2 n=d#6 v=127
232130 On ch=2 n=g6 v=127
232131 On ch=2 n=g5 v=0
232290 On ch=2 n=c6 v=127
232290 On ch=2 n=g#5 v=127
232291 On ch=2 n=g6 v=0
232291 On ch=2 n=d#6 v=0
232450 On ch=2 n=a#5 v=127
232450 On ch=2 n=g5 v=127
232451 On ch=2 n=g#5 v=0
232451 On ch=2 n=c6 v=0
232610 On ch=2 n=g6 v=127
232610 On ch=2 n=a#6 v=127
232611 On ch=2 n=g5 v=0
232611 On ch=2 n=a#5 v=0
232770 Par ch=2 c=64 v=127
232770 On ch=2 n=f6 v=127
232771 On ch=2 n=a#6 v=0
232771 On ch=2 n=g6 v=0
232930 On ch=2 n=d#6 v=127
232931 On ch=2 n=f6 v=0
233090 On ch=2 n=g7 v=127
233090 On ch=2 n=d#7 v=127
233091 On ch=2 n=d#6 v=0
233234 On ch=2 n=d#7 v=0
233250 On ch=2 n=d#7 v=127
233250 On ch=2 n=a#6 v=127
233250 On ch=2 n=g6 v=127
233251 On ch=2 n=g7 v=0
233402 On ch=2 n=g6 v=0
233402 On ch=2 n=a#6 v=0
233410 On ch=2 n=a#6 v=127
233410 On ch=2 n=g6 v=127
233410 On ch=2 n=d#6 v=127
233411 On ch=2 n=d#7 v=0
233568 On ch=2 n=d#6 v=0
233568 On ch=2 n=g6 v=0
233568 On ch=2 n=a#6 v=0
233570 On ch=2 n=d#6 v=127
233570 On ch=2 n=a#5 v=127
233570 On ch=2 n=g6 v=127
233728 On ch=2 n=g6 v=0
233728 On ch=2 n=a#5 v=0
233728 On ch=2 n=d#6 v=0
233730 On ch=2 n=a#5 v=127
233730 On ch=2 n=g5 v=127
233738 On ch=2 n=d#6 v=127
233888 On ch=2 n=g5 v=0
233888 On ch=2 n=a#5 v=0
233890 On ch=2 n=g5 v=127
233890 On ch=2 n=d#5 v=127
233890 On ch=2 n=a#5 v=127
233896 On ch=2 n=d#6 v=0
234048 On ch=2 n=a#5 v=0
234048 On ch=2 n=d#5 v=0
234048 On ch=2 n=g5 v=0
234050 Par ch=2 c=64 v=0
234050 On ch=2 n=a#4 v=127
234050 On ch=2 n=d#5 v=127
234050 On ch=2 n=g5 v=127
234208 On ch=2 n=g5 v=0
234208 On ch=2 n=d#5 v=0
234208 On ch=2 n=a#4 v=0
234210 On ch=2 n=g#4 v=127
234328 On ch=2 n=g#4 v=0
234330 On ch=2 n=a4 v=94
234448 On ch=2 n=a4 v=0
234450 On ch=2 n=e5 v=95
234450 On ch=2 n=a5 v=95
234568 On ch=2 n=a5 v=0
234568 On ch=2 n=e5 v=0
234570 On ch=2 n=g5 v=97
234688 On ch=2 n=g5 v=0
234690 On ch=2 n=f5 v=98
234808 On ch=2 n=f5 v=0
234810 On ch=2 n=e5 v=100
234922 On ch=2 n=g#5 v=101
234928 On ch=2 n=e5 v=0
234930 On ch=2 n=d5 v=102
234930 On ch=2 n=b5 v=102
235048 On ch=2 n=d5 v=0
235050 On ch=2 n=e5 v=103
235168 On ch=2 n=e5 v=0
235170 On ch=2 n=c#5 v=104
235170 On ch=2 n=a5 v=104
235170 On ch=2 n=c#6 v=104
235202 On ch=2 n=g#5 v=0
235210 On ch=2 n=b5 v=0
235288 On ch=2 n=c#5 v=0
235290 On ch=2 n=e5 v=106
235408 On ch=2 n=e5 v=0
235410 On ch=2 n=a4 v=108
235434 On ch=2 n=c#6 v=0
235434 On ch=2 n=a5 v=0
235528 On ch=2 n=a4 v=0
235530 On ch=2 n=g5 v=108
235530 On ch=2 n=a5 v=108
235648 On ch=2 n=g5 v=0
235650 On ch=2 n=f5 v=110
235768 On ch=2 n=f5 v=0
235770 On ch=2 n=e5 v=112
235888 On ch=2 n=e5 v=0
235890 On ch=2 n=d5 v=113
235890 On ch=2 n=g#5 v=113
235890 On ch=2 n=b5 v=113
235914 On ch=2 n=a5 v=0
236008 On ch=2 n=d5 v=0
236010 On ch=2 n=c#5 v=114
236128 On ch=2 n=c#5 v=0
236130 On ch=2 n=c5 v=116
236142 On ch=2 n=b5 v=0
236142 On ch=2 n=g#5 v=0
236250 On ch=2 n=d5 v=96
236256 On ch=2 n=c5 v=0
236370 On ch=2 n=c5 v=98
236370 On ch=2 n=c6 v=98
236376 On ch=2 n=d5 v=0
236490 On ch=2 n=a#5 v=100
236562 On ch=2 n=c5 v=0
236610 On ch=2 n=a5 v=102
236616 On ch=2 n=a#5 v=0
236730 On ch=2 n=g5 v=103
236736 On ch=2 n=a5 v=0
236834 On ch=2 n=c6 v=0
236850 On ch=2 n=d6 v=106
236850 On ch=2 n=c6 v=106
236850 On ch=2 n=f5 v=106
236856 On ch=2 n=g5 v=0
236970 On ch=2 n=g5 v=108
236978 On ch=2 n=f5 v=0
237090 On ch=2 n=e5 v=109
237096 On ch=2 n=g5 v=0
237098 On ch=2 n=c6 v=0
237106 On ch=2 n=d6 v=0
237210 On ch=2 n=f5 v=111
237216 On ch=2 n=e5 v=0
237330 On ch=2 n=e5 v=113
237330 On ch=2 n=e6 v=113
237336 On ch=2 n=f5 v=0
237450 On ch=2 n=d6 v=115
237456 On ch=2 n=e5 v=0
237570 On ch=2 n=c#6 v=117
237576 On ch=2 n=d6 v=0
237696 On ch=2 n=c#6 v=0
237698 On ch=2 n=a#5 v=119
237794 On ch=2 n=e6 v=0
237810 On ch=2 n=a5 v=121
237810 On ch=2 n=e6 v=121
237810 On ch=2 n=g6 v=121
237824 On ch=2 n=a#5 v=0
237930 On ch=2 n=a#5 v=123
237936 On ch=2 n=a5 v=0
238050 On ch=2 n=d6 v=124
238050 On ch=2 n=f6 v=124
238050 On ch=2 n=a5 v=124
238056 On ch=2 n=a#5 v=0
238074 On ch=2 n=g6 v=0
238074 On ch=2 n=e6 v=0
238290 On ch=2 n=a#5 v=94
238290 On ch=2 n=a#4 v=94
238302 On ch=2 n=a5 v=0
238302 On ch=2 n=f6 v=0
238302 On ch=2 n=d6 v=0
238410 On ch=2 n=f5 v=97
238410 On ch=2 n=a5 v=97
238530 On ch=2 n=e5 v=99
238530 On ch=2 n=g5 v=99
238536 On ch=2 n=a5 v=0
238536 On ch=2 n=f5 v=0
238650 On ch=2 n=f5 v=102
238656 On ch=2 n=g5 v=0
238656 On ch=2 n=e5 v=0
238770 On ch=2 n=a#4 v=0
238770 On ch=2 n=e5 v=104
238776 On ch=2 n=f5 v=0
238890 On ch=2 n=g5 v=106
238896 On ch=2 n=e5 v=0
239010 On ch=2 n=a4 v=108
239016 On ch=2 n=g5 v=0
239018 On ch=2 n=a#5 v=0
239130 On ch=2 n=a#4 v=109
239146 On ch=2 n=a4 v=0
239250 On ch=2 n=a5 v=110
239250 On ch=2 n=a4 v=110
239274 On ch=2 n=a#4 v=0
239370 On ch=2 n=g5 v=111
239370 On ch=2 n=e5 v=111
239386 On ch=2 n=a4 v=0
239490 On ch=2 n=c#5 v=112
239490 On ch=2 n=f5 v=112
239506 On ch=2 n=e5 v=0
239514 On ch=2 n=g5 v=0
239610 On ch=2 n=e5 v=111
239634 On ch=2 n=f5 v=0
239634 On ch=2 n=c#5 v=0
239730 On ch=2 n=a#5 v=109
239730 On ch=2 n=d5 v=109
239736 On ch=2 n=e5 v=0
239746 On ch=2 n=a5 v=0
239850 On ch=2 n=a5 v=104
239850 On ch=2 n=f5 v=104
239874 On ch=2 n=d5 v=0
239874 On ch=2 n=a#5 v=0
239970 On ch=2 n=g4 v=94
239986 On ch=2 n=a5 v=0
239994 On ch=2 n=f5 v=0
240090 On ch=2 n=a4 v=94
240096 On ch=2 n=g4 v=0
240210 On ch=2 n=g4 v=95
240210 On ch=2 n=g5 v=95
240216 On ch=2 n=a4 v=0
240330 On ch=2 n=d5 v=97
240330 On ch=2 n=f5 v=97
240336 On ch=2 n=g4 v=0
240450 On ch=2 n=e5 v=98
240450 On ch=2 n=c#5 v=98
240456 On ch=2 n=f5 v=0
240456 On ch=2 n=d5 v=0
240570 On ch=2 n=d5 v=100
240576 On ch=2 n=c#5 v=0
240576 On ch=2 n=e5 v=0
240690 On ch=2 n=c#5 v=103
240696 On ch=2 n=d5 v=0
240810 On ch=2 n=e5 v=107
240816 On ch=2 n=c#5 v=0
240930 On ch=2 n=a4 v=112
240936 On ch=2 n=e5 v=0
240962 On ch=2 n=g5 v=0
241050 On ch=2 n=a#4 v=118
241056 On ch=2 n=a4 v=0
241170 On ch=2 n=a4 v=125
241176 On ch=2 n=a#4 v=0
241290 On ch=2 n=e5 v=100
241290 On ch=2 n=c#5 v=100
241296 On ch=2 n=a4 v=0
241410 On ch=2 n=d5 v=100
241410 On ch=2 n=b4 v=100
241416 On ch=2 n=c#5 v=0
241416 On ch=2 n=e5 v=0
241530 On ch=2 n=c#5 v=100
241536 On ch=2 n=b4 v=0
241536 On ch=2 n=d5 v=0
241650 On ch=2 n=b4 v=100
241656 On ch=2 n=c#5 v=0
241658 On ch=2 n=g5 v=100
241770 On ch=2 n=d5 v=100
241770 On ch=2 n=f5 v=100
241776 On ch=2 n=b4 v=0
241784 On ch=2 n=g5 v=0
241890 On ch=2 n=c#5 v=100
241896 On ch=2 n=d5 v=0
242010 On ch=2 n=e5 v=100
242130 On ch=2 n=g4 v=127
242136 On ch=2 n=e5 v=0
242142 On ch=2 n=c#5 v=0
242146 On ch=2 n=f5 v=0
242250 On ch=2 n=d5 v=96
242370 On ch=2 n=f5 v=99
242376 On ch=2 n=d5 v=0
242490 On ch=2 n=e5 v=102
242496 On ch=2 n=f5 v=0
242610 On ch=2 n=c#5 v=104
242616 On ch=2 n=e5 v=0
242736 On ch=2 n=c#5 v=0
242738 On ch=2 n=e5 v=108
242850 On ch=2 n=a4 v=112
242882 On ch=2 n=g4 v=0
242970 On ch=2 n=a#4 v=111
242976 On ch=2 n=a4 v=0
243090 On ch=2 n=g4 v=110
243096 On ch=2 n=a#4 v=0
243210 On ch=2 n=d5 v=108
243226 On ch=2 n=e5 v=0
243330 On ch=2 n=f5 v=120
243450 On ch=2 n=e5 v=107
243456 On ch=2 n=f5 v=0
243554 On ch=2 n=d5 v=0
243570 On ch=2 n=c#5 v=105
243576 On ch=2 n=e5 v=0
243690 On ch=2 n=e5 v=104
243696 On ch=2 n=c#5 v=0
243802 On ch=2 n=g4 v=0
243810 On ch=2 n=a4 v=109
243930 On ch=2 n=a#4 v=104
243936 On ch=2 n=a4 v=0
244056 On ch=2 n=a#4 v=0
244058 On ch=2 n=g4 v=116
244154 On ch=2 n=e5 v=0
244170 On ch=2 n=d5 v=114
244298 On ch=2 n=f5 v=113
244410 On ch=2 n=e5 v=111
244424 On ch=2 n=f5 v=0
244530 On ch=2 n=c#5 v=109
244536 On ch=2 n=e5 v=0
244554 On ch=2 n=d5 v=0
244650 On ch=2 n=e5 v=108
244656 On ch=2 n=c#5 v=0
244770 On ch=2 n=g4 v=0
244778 On ch=2 n=a4 v=119
244890 On ch=2 n=a#4 v=119
244904 On ch=2 n=a4 v=0
245010 On ch=2 n=g4 v=118
245016 On ch=2 n=a#4 v=0
245130 On ch=2 n=d5 v=118
245154 On ch=2 n=e5 v=0
245250 On ch=2 n=f5 v=117
245370 On ch=2 n=e5 v=116
245376 On ch=2 n=f5 v=0
245490 On ch=2 n=c#5 v=115
245496 On ch=2 n=e5 v=0
245514 On ch=2 n=d5 v=0
245610 On ch=2 n=e5 v=115
245616 On ch=2 n=c#5 v=0
245730 On ch=2 n=g4 v=0
245730 On ch=2 n=a4 v=114
245850 On ch=2 n=a#4 v=100
245856 On ch=2 n=a4 v=0
245970 On ch=2 n=g4 v=100
245976 On ch=2 n=a#4 v=0
246082 On ch=2 n=e5 v=0
246090 On ch=2 n=d5 v=100
246210 On ch=2 n=f5 v=121
246330 On ch=2 n=e5 v=100
246336 On ch=2 n=f5 v=0
246450 On ch=2 n=c#5 v=100
246456 On ch=2 n=e5 v=0
246466 On ch=2 n=d5 v=0
246570 On ch=2 n=f5 v=100
246690 On ch=2 n=a5 v=100
246696 On ch=2 n=f5 v=0
246706 On ch=2 n=g4 v=0
246810 On ch=2 n=g5 v=100
246816 On ch=2 n=a5 v=0
246930 On ch=2 n=e5 v=100
246936 On ch=2 n=g5 v=0
246954 On ch=2 n=c#5 v=0
247050 On ch=2 n=a5 v=100
247056 On ch=2 n=e5 v=0
247170 On ch=2 n=c6 v=100
247176 On ch=2 n=a5 v=0
247290 On ch=2 n=a#5 v=100
247296 On ch=2 n=c6 v=0
247410 On ch=2 n=g5 v=100
247416 On ch=2 n=a#5 v=0
247530 On ch=2 n=d6 v=100
247536 On ch=2 n=g5 v=0
247650 Par ch=2 c=64 v=127
247650 On ch=2 n=f6 v=100
247656 On ch=2 n=d6 v=0
247770 On ch=2 n=e6 v=88
247776 On ch=2 n=f6 v=0
247890 On ch=2 n=c#6 v=89
247896 On ch=2 n=e6 v=0
248010 On ch=2 n=f6 v=91
248016 On ch=2 n=c#6 v=0
248130 On ch=2 n=a6 v=93
248136 On ch=2 n=f6 v=0
248250 On ch=2 n=g6 v=94
248256 On ch=2 n=a6 v=0
248370 On ch=2 n=e6 v=96
248376 On ch=2 n=g6 v=0
248490 On ch=2 n=a6 v=98
248496 On ch=2 n=e6 v=0
248610 On ch=2 n=c7 v=99
248616 On ch=2 n=a6 v=0
248730 On ch=2 n=a#6 v=101
248736 On ch=2 n=c7 v=0
248850 On ch=2 n=g6 v=103
248856 On ch=2 n=a#6 v=0
248970 On ch=2 n=d7 v=104
248976 On ch=2 n=g6 v=0
249090 On ch=2 n=f7 v=107
249096 On ch=2 n=d7 v=0
249210 On ch=2 n=e7 v=108
249216 On ch=2 n=f7 v=0
249330 On ch=2 n=c#7 v=110
249336 On ch=2 n=e7 v=0
249450 On ch=2 n=f7 v=112
249456 On ch=2 n=c#7 v=0
249570 On ch=2 n=a7 v=113
249576 On ch=2 n=f7 v=0
249696 On ch=2 n=a7 v=0
249698 On ch=2 n=g7 v=115
249810 On ch=2 n=e7 v=122
249824 On ch=2 n=g7 v=0
249930 On ch=2 n=a7 v=121
249936 On ch=2 n=e7 v=0
250050 On ch=2 n=c8 v=119
250056 On ch=2 n=a7 v=0
250170 On ch=2 n=b7 v=118
250176 On ch=2 n=c8 v=0
250290 On ch=2 n=a#7 v=116
250296 On ch=2 n=b7 v=0
250410 On ch=2 n=g7 v=114
250416 On ch=2 n=a#7 v=0
250530 On ch=2 n=e7 v=113
250536 On ch=2 n=g7 v=0
250650 On ch=2 n=c7 v=111
250656 On ch=2 n=e7 v=0
250770 On ch=2 n=b6 v=109
250776 On ch=2 n=c7 v=0
250890 On ch=2 n=a#6 v=108
250896 On ch=2 n=b6 v=0
251010 On ch=2 n=g6 v=107
251016 On ch=2 n=a#6 v=0
251130 On ch=2 n=e6 v=105
251136 On ch=2 n=g6 v=0
251250 On ch=2 n=c6 v=103
251256 On ch=2 n=e6 v=0
251370 On ch=2 n=b5 v=102
251376 On ch=2 n=c6 v=0
251490 On ch=2 n=a#5 v=100
251496 On ch=2 n=b5 v=0
251610 On ch=2 n=g5 v=98
251616 On ch=2 n=a#5 v=0
251730 On ch=2 n=e5 v=98
251736 On ch=2 n=g5 v=0
251850 On ch=2 n=c#5 v=96
251856 On ch=2 n=e5 v=0
251970 On ch=2 n=c5 v=94
251976 On ch=2 n=c#5 v=0
252090 On ch=2 n=b4 v=93
252096 On ch=2 n=c5 v=0
252150 Par ch=2 c=64 v=0
252210 On ch=2 n=a#4 v=91
252216 On ch=2 n=b4 v=0
252330 On ch=2 n=a4 v=89
252336 On ch=2 n=a#4 v=0
252450 On ch=2 n=g#4 v=88
252456 On ch=2 n=a4 v=0
252570 On ch=2 n=g4 v=86
252576 On ch=2 n=g#4 v=0
252690 On ch=2 n=e4 v=85
252696 On ch=2 n=g4 v=0
252810 On ch=2 n=c#4 v=84
252816 On ch=2 n=e4 v=0
252930 On ch=2 n=b3 v=82
252936 On ch=2 n=c#4 v=0
253050 On ch=2 n=g#3 v=80
253056 On ch=2 n=b3 v=0
253176 On ch=2 n=g#3 v=0
253178 On ch=2 n=b3 v=79
253290 On ch=2 n=a3 v=77
253304 On ch=2 n=b3 v=0
253416 On ch=2 n=a3 v=0
253890 On ch=2 n=f#6 v=75
254850 On ch=2 n=g6 v=72
254946 On ch=2 n=f#6 v=0
255090 On ch=2 n=f#6 v=78
255114 On ch=2 n=g6 v=0
255330 On ch=2 n=e6 v=84
255354 On ch=2 n=f#6 v=0
255810 On ch=2 n=d6 v=75
255858 On ch=2 n=e6 v=0
256338 On ch=2 n=d6 v=0
256770 On ch=2 n=f#5 v=84
257010 On ch=2 n=c#6 v=85
257034 On ch=2 n=f#5 v=0
257250 On ch=2 n=b5 v=87
257274 On ch=2 n=c#6 v=0
257498 On ch=2 n=a5 v=76
257514 On ch=2 n=b5 v=0
257738 On ch=2 n=c#6 v=79
257762 On ch=2 n=a5 v=0
257970 On ch=2 n=d6 v=83
258002 On ch=2 n=c#6 v=0
258210 On ch=2 n=f6 v=86
258234 On ch=2 n=d6 v=0
258450 On ch=2 n=f#6 v=88
258474 On ch=2 n=f6 v=0
258698 On ch=2 n=b6 v=90
258714 On ch=2 n=f#6 v=0
259050 On ch=2 n=a6 v=97
259094 On ch=2 n=b6 v=0
259167 On ch=2 n=a6 v=0
259170 On ch=2 n=a6 v=98
260138 On ch=2 n=g6 v=89
260226 On ch=2 n=a6 v=0
260666 On ch=2 n=g6 v=0
261090 On ch=2 n=g6 v=92
262050 On ch=2 n=f#6 v=86
262146 On ch=2 n=g6 v=0
262290 On ch=2 n=d#6 v=92
262314 On ch=2 n=f#6 v=0
262530 On ch=2 n=f#6 v=95
262554 On ch=2 n=d#6 v=0
262770 On ch=2 n=e6 v=96
262794 On ch=2 n=f#6 v=0
263002 On ch=2 n=e6 v=0
263010 On ch=2 n=e6 v=91
263490 On ch=2 n=g5 v=88
263538 On ch=2 n=e6 v=0
264018 On ch=2 n=g5 v=0
264450 On ch=2 n=b5 v=92
264810 On ch=2 n=c#6 v=91
264846 On ch=2 n=b5 v=0
264930 On ch=2 n=b5 v=93
264942 On ch=2 n=c#6 v=0
265170 On ch=2 n=a5 v=84
265194 On ch=2 n=b5 v=0
265410 On ch=2 n=c#6 v=86
265434 On ch=2 n=a5 v=0
265650 On ch=2 n=d6 v=84
265674 On ch=2 n=c#6 v=0
265890 On ch=2 n=e6 v=88
265914 On ch=2 n=d6 v=0
266130 On ch=2 n=g6 v=91
266154 On ch=2 n=e6 v=0
266370 On ch=2 n=c#7 v=94
266394 On ch=2 n=g6 v=0
266730 On ch=2 n=b6 v=100
266766 On ch=2 n=c#7 v=0
266850 On ch=2 n=g#6 v=100
266862 On ch=2 n=b6 v=0
267810 On ch=2 n=a6 v=89
267906 On ch=2 n=g#6 v=0
268290 On ch=2 n=g6 v=94
268338 On ch=2 n=a6 v=0
268650 On ch=2 n=f#6 v=98
268674 On ch=2 n=g6 v=0
268754 On ch=2 n=f#6 v=0
268770 On ch=2 n=f#6 v=102
269490 On ch=2 n=e6 v=96
269562 On ch=2 n=f#6 v=0
269730 On ch=2 n=d6 v=91
269754 On ch=2 n=e6 v=0
270210 On ch=2 n=e6 v=100
270258 On ch=2 n=d6 v=0
270450 On ch=2 n=b5 v=96
270474 On ch=2 n=e6 v=0
270690 On ch=2 n=d6 v=100
270714 On ch=2 n=b5 v=0
270930 On ch=2 n=c#6 v=96
270954 On ch=2 n=d6 v=0
271154 On ch=2 n=c#6 v=0
271170 On ch=2 n=c#6 v=96
271330 On ch=2 n=b5 v=91
271346 On ch=2 n=c#6 v=0
271490 On ch=2 n=a5 v=86
271506 On ch=2 n=b5 v=0
271634 On ch=2 n=a5 v=0
271650 On ch=2 n=a5 v=81
272130 On ch=2 n=f#6 v=91
272178 On ch=2 n=a5 v=0
272466 On ch=2 n=f#6 v=0
272490 On ch=2 n=f#6 v=94
272594 On ch=2 n=f#6 v=0
272610 On ch=2 n=f#6 v=96
273330 On ch=2 n=e6 v=90
273402 On ch=2 n=f#6 v=0
273570 On ch=2 n=c#6 v=90
273594 On ch=2 n=e6 v=0
273761 On ch=2 n=c#6 v=0
273762 On ch=2 n=d6 v=90
273953 On ch=2 n=d6 v=0
273954 On ch=2 n=e6 v=90
274145 On ch=2 n=e6 v=0
274146 On ch=2 n=g6 v=90
274337 On ch=2 n=g6 v=0
274338 On ch=2 n=f#6 v=90
274529 On ch=2 n=f#6 v=0
274530 On ch=2 n=a5 v=90
275010 On ch=2 n=c#6 v=95
275178 On ch=2 n=b5 v=95
275186 On ch=2 n=c#6 v=0
275410 On ch=2 n=b5 v=0
275426 On ch=2 n=a5 v=96
275474 On ch=2 n=a5 v=0
275490 On ch=2 n=a5 v=96
275970 On ch=2 n=b5 v=101
276018 On ch=2 n=a5 v=0
276058 On ch=2 n=c#6 v=101
276063 Par ch=2 c=64 v=127
276063 Par ch=2 c=64 v=127
276063 Par ch=2 c=64 v=127
276069 On ch=2 n=b5 v=0
276127 On ch=2 n=c#6 v=0
276129 On ch=2 n=b5 v=101
276171 On ch=2 n=b5 v=0
276171 On ch=2 n=c#6 v=101
276210 On ch=2 n=c#6 v=0
276212 On ch=2 n=b5 v=101
276247 On ch=2 n=b5 v=0
276247 On ch=2 n=c#6 v=101
276281 On ch=2 n=b5 v=101
276282 On ch=2 n=c#6 v=0
276314 On ch=2 n=b5 v=0
276324 On ch=2 n=a5 v=101
276338 Par ch=2 c=64 v=0
276338 Par ch=2 c=64 v=0
276338 Par ch=2 c=64 v=0
276394 On ch=2 n=a5 v=0
276394 On ch=2 n=b5 v=101
276450 On ch=2 n=a5 v=0
276450 On ch=2 n=c#6 v=101
276468 On ch=2 n=b5 v=0
276930 On ch=2 n=c6 v=95
276978 On ch=2 n=c#6 v=0
277290 On ch=2 n=c#6 v=91
277314 On ch=2 n=c6 v=0
277410 On ch=2 n=d#6 v=94
277422 On ch=2 n=c#6 v=0
277650 On ch=2 n=f6 v=99
277674 On ch=2 n=d#6 v=0
277890 On ch=2 n=f#6 v=105
277914 On ch=2 n=f6 v=0
278130 On ch=2 n=g#6 v=111
278154 On ch=2 n=f#6 v=0
278370 On ch=2 n=a6 v=114
278370 On ch=2 n=a6 v=117
278394 On ch=2 n=g#6 v=0
278502 On ch=2 n=a6 v=0
278502 On ch=2 n=a6 v=0
278610 On ch=2 n=c#8 v=124
278702 Par ch=2 c=64 v=127
278702 Par ch=2 c=64 v=127
278702 Par ch=2 c=64 v=127
278840 Par ch=2 c=64 v=0
278840 Par ch=2 c=64 v=0
278840 Par ch=2 c=64 v=0
279010 On ch=2 n=b7 v=115
279090 On ch=2 n=a7 v=111
279098 On ch=2 n=b7 v=0
279098 On ch=2 n=c#8 v=0
279170 On ch=2 n=g#7 v=107
279178 On ch=2 n=a7 v=0
279250 On ch=2 n=f#7 v=103
279258 On ch=2 n=g#7 v=0
279330 On ch=2 n=f7 v=98
279338 On ch=2 n=f#7 v=0
279410 On ch=2 n=f#7 v=93
279418 On ch=2 n=f7 v=0
279490 On ch=2 n=e7 v=89
279498 On ch=2 n=f#7 v=0
279570 On ch=2 n=d7 v=85
279578 On ch=2 n=e7 v=0
279642 On ch=2 n=c#7 v=82
279658 On ch=2 n=d7 v=0
279730 On ch=2 n=c#7 v=0
279730 On ch=2 n=b6 v=77
279818 On ch=2 n=b6 v=0
279818 On ch=2 n=g#6 v=79
279890 On ch=2 n=f#6 v=82
279906 On ch=2 n=g#6 v=0
279970 On ch=2 n=c#6 v=86
279978 On ch=2 n=f#6 v=0
280058 On ch=2 n=c#6 v=0
280058 On ch=2 n=b5 v=90
280130 On ch=2 n=f#5 v=93
280146 On ch=2 n=b5 v=0
280210 On ch=2 n=b5 v=97
280218 On ch=2 n=f#5 v=0
280290 On ch=2 n=a5 v=101
280298 On ch=2 n=b5 v=0
280686 On ch=2 n=a5 v=0
280690 On ch=2 n=d6 v=100
280770 On ch=2 n=c#6 v=100
280822 On ch=2 n=d6 v=0
281094 On ch=2 n=d#5 v=91
281184 On ch=2 n=f5 v=91
281191 On ch=2 n=d#5 v=0
281241 On ch=2 n=f5 v=0
281260 On ch=2 n=f5 v=91
281298 On ch=2 n=c#6 v=0
281342 On ch=2 n=f#5 v=92
281354 On ch=2 n=f5 v=0
281402 On ch=2 n=f5 v=92
281412 On ch=2 n=f#5 v=0
281449 On ch=2 n=f#5 v=92
281459 On ch=2 n=f5 v=0
281499 On ch=2 n=f5 v=92
281506 On ch=2 n=f#5 v=0
281541 On ch=2 n=f#5 v=92
281547 On ch=2 n=f5 v=0
281582 On ch=2 n=f5 v=93
281589 On ch=2 n=f#5 v=0
281620 On ch=2 n=f#5 v=93
281626 On ch=2 n=f5 v=0
281657 On ch=2 n=f5 v=93
281661 On ch=2 n=f#5 v=0
281690 On ch=2 n=f#5 v=93
281695 On ch=2 n=f5 v=0
281721 On ch=2 n=f5 v=93
281723 On ch=2 n=f#5 v=0
281759 On ch=2 n=f#5 v=93
281767 On ch=2 n=f5 v=0
281793 On ch=2 n=f#5 v=0
281795 On ch=2 n=f5 v=93
281865 On ch=2 n=d#5 v=93
281875 On ch=2 n=f5 v=0
281959 On ch=2 n=f5 v=93
281967 On ch=2 n=d#5 v=0
282044 On ch=2 n=a5 v=92
282050 On ch=2 n=f5 v=0
282099 On ch=2 n=g#5 v=88
282109 On ch=2 n=a5 v=0
282156 On ch=2 n=f#5 v=86
282164 On ch=2 n=g#5 v=0
282200 On ch=2 n=f#5 v=0
282226 On ch=2 n=f#5 v=83
282684 On ch=2 n=f#6 v=89
282900 On ch=2 n=f#5 v=0
283628 On ch=2 n=f#6 v=0
283644 On ch=2 n=f#6 v=76
284124 On ch=2 n=g6 v=70
284172 On ch=2 n=f#6 v=0
284364 On ch=2 n=e6 v=70
284388 On ch=2 n=g6 v=0
284604 On ch=2 n=b5 v=70
284628 On ch=2 n=e6 v=0
284964 On ch=2 n=c#6 v=71
285000 On ch=2 n=b5 v=0
285084 On ch=2 n=d6 v=76
285096 On ch=2 n=c#6 v=0
285564 On ch=2 n=e6 v=81
285564 On ch=2 n=e6 v=81
285612 On ch=2 n=d6 v=0
286044 On ch=2 n=f#6 v=85
286092 On ch=2 n=e6 v=0
286092 On ch=2 n=e6 v=0
286524 On ch=2 n=b6 v=91
286572 On ch=2 n=f#6 v=0
286884 On ch=2 n=a6 v=90
286920 On ch=2 n=b6 v=0
287004 On ch=2 n=b6 v=93
287016 On ch=2 n=a6 v=0
287164 On ch=2 n=a6 v=89
287180 On ch=2 n=b6 v=0
287396 On ch=2 n=a6 v=0
287404 On ch=2 n=g6 v=90
287482 On ch=2 n=g6 v=0
287484 On ch=2 n=g6 v=89
287644 On ch=2 n=f#6 v=83
287660 On ch=2 n=g6 v=0
287884 On ch=2 n=f6 v=76
287900 On ch=2 n=f#6 v=0
287964 Par ch=2 c=64 v=127
287964 On ch=2 n=f#6 v=78
287964 On ch=2 n=f#6 v=83
287972 On ch=2 n=f6 v=0
288204 On ch=2 n=d6 v=73
288228 On ch=2 n=f#6 v=0
288228 On ch=2 n=f#6 v=0
288444 On ch=2 n=b5 v=72
288468 On ch=2 n=d6 v=0
288684 Par ch=2 c=64 v=0
288684 On ch=2 n=c#6 v=72
288708 On ch=2 n=b5 v=0
288924 On ch=2 n=d6 v=75
288948 On ch=2 n=c#6 v=0
289164 On ch=2 n=d#6 v=79
289188 On ch=2 n=d6 v=0
289428 On ch=2 n=d#6 v=0
289532 On ch=2 n=e6 v=79
289764 On ch=2 n=f6 v=83
289780 On ch=2 n=e6 v=0
289884 On ch=2 n=f#6 v=84
289896 On ch=2 n=f6 v=0
290124 On ch=2 n=g6 v=82
290140 On ch=2 n=f#6 v=0
290364 On ch=2 n=g#6 v=84
290388 On ch=2 n=g6 v=0
290524 On ch=2 n=c#7 v=86
290540 On ch=2 n=g#6 v=0
290684 On ch=2 n=b6 v=88
290700 On ch=2 n=c#7 v=0
290844 On ch=2 n=a6 v=90
290860 On ch=2 n=b6 v=0
291788 On ch=2 n=a6 v=0
291804 On ch=2 n=d6 v=98
291804 On ch=2 n=d7 v=98
291804 Par ch=2 c=64 v=127
291804 On ch=2 n=a6 v=98
292284 On ch=2 n=c#7 v=100
292284 On ch=2 n=c#7 v=100
292284 On ch=2 n=c#6 v=100
292284 On ch=2 n=c#6 v=100
292332 On ch=2 n=d7 v=0
292332 On ch=2 n=d6 v=0
292644 On ch=2 n=b6 v=79
292644 Par ch=2 c=64 v=0
292644 On ch=2 n=b5 v=79
292680 On ch=2 n=c#6 v=0
292680 On ch=2 n=c#6 v=0
292680 On ch=2 n=c#7 v=0
292680 On ch=2 n=c#7 v=0
292748 On ch=2 n=a6 v=0
292764 Par ch=2 c=64 v=127
292764 On ch=2 n=c#7 v=83
292764 On ch=2 n=a6 v=83
292764 On ch=2 n=g6 v=83
292764 On ch=2 n=c#6 v=83
292776 On ch=2 n=b5 v=0
292776 On ch=2 n=b6 v=0
293004 On ch=2 n=b6 v=78
293004 On ch=2 n=b5 v=78
293028 On ch=2 n=c#6 v=0
293028 On ch=2 n=g6 v=0
293028 On ch=2 n=a6 v=0
293028 On ch=2 n=c#7 v=0
293156 On ch=2 n=b5 v=0
293172 On ch=2 n=b6 v=0
293172 On ch=2 n=b5 v=79
293180 On ch=2 n=b6 v=79
293244 On ch=2 n=a6 v=79
293244 On ch=2 n=a5 v=79
293276 On ch=2 n=b5 v=0
293292 On ch=2 n=b6 v=0
293476 On ch=2 n=g#6 v=80
293479 On ch=2 n=a5 v=0
293479 On ch=2 n=a6 v=0
293484 On ch=2 n=g#5 v=80
293689 Par ch=2 c=64 v=0
293711 On ch=2 n=g#6 v=0
293719 On ch=2 n=g#5 v=0
293724 On ch=2 n=b5 v=74
293724 On ch=2 n=b6 v=74
293724 On ch=2 n=f#6 v=74
293724 Par ch=2 c=64 v=127
293724 On ch=2 n=d6 v=74
294076 On ch=2 n=d6 v=0
294076 On ch=2 n=f#6 v=0
294076 On ch=2 n=b6 v=0
294076 On ch=2 n=b5 v=0
294084 On ch=2 n=a6 v=81
294084 On ch=2 n=a5 v=81
294201 On ch=2 n=a5 v=0
294201 On ch=2 n=a6 v=0
294204 On ch=2 n=a5 v=82
294204 On ch=2 n=a6 v=82
294204 On ch=2 n=d6 v=82
294360 On ch=2 n=d6 v=0
294360 On ch=2 n=a6 v=0
294360 On ch=2 n=a5 v=0
294364 On ch=2 n=g6 v=84
294364 On ch=2 n=g5 v=84
294520 On ch=2 n=g5 v=0
294520 On ch=2 n=g6 v=0
294524 On ch=2 n=f#5 v=84
294524 On ch=2 n=f#6 v=84
294524 On ch=2 n=f#5 v=84
294524 On ch=2 n=f#6 v=84
294661 Par ch=2 c=64 v=0
294680 On ch=2 n=f#6 v=0
294680 On ch=2 n=f#5 v=0
294680 On ch=2 n=f#6 v=0
294680 On ch=2 n=f#5 v=0
294684 Par ch=2 c=64 v=127
294684 On ch=2 n=f#5 v=86
294684 On ch=2 n=c#6 v=86
294684 On ch=2 n=a#5 v=86
294692 On ch=2 n=f#6 v=86
295036 On ch=2 n=a#5 v=0
295036 On ch=2 n=c#6 v=0
295036 On ch=2 n=f#5 v=0
295044 On ch=2 n=f#6 v=0
295044 On ch=2 n=e6 v=89
295044 On ch=2 n=e5 v=89
295161 On ch=2 n=e5 v=0
295161 On ch=2 n=e6 v=0
295164 On ch=2 n=f#6 v=90
295164 On ch=2 n=c#6 v=90
295164 Par ch=2 c=64 v=0
295164 On ch=2 n=f#5 v=90
295516 On ch=2 n=f#5 v=0
295516 On ch=2 n=c#6 v=0
295516 On ch=2 n=f#6 v=0
295524 Par ch=2 c=64 v=127
295524 On ch=2 n=g5 v=126
295524 On ch=2 n=g6 v=126
295588 On ch=2 n=d6 v=126
295605 Par ch=2 c=64 v=0
295636 On ch=2 n=d6 v=0
295641 On ch=2 n=g6 v=0
295641 On ch=2 n=g5 v=0
295644 Par ch=2 c=64 v=127
295644 On ch=2 n=d6 v=126
295761 On ch=2 n=d6 v=0
295764 On ch=2 n=d7 v=126
295764 On ch=2 n=a6 v=126
295881 On ch=2 n=a6 v=0
295881 On ch=2 n=d7 v=0
296004 On ch=2 n=c#7 v=127
296004 On ch=2 n=c#6 v=127
296121 On ch=2 n=c#6 v=0
296121 On ch=2 n=c#7 v=0
296124 On ch=2 n=c#7 v=127
296124 On ch=2 n=c#6 v=127
296202 On ch=2 n=c#6 v=0
296202 On ch=2 n=c#7 v=0
296204 On ch=2 n=f#6 v=127
296204 On ch=2 n=a6 v=127
296282 On ch=2 n=a6 v=0
296282 On ch=2 n=f#6 v=0
296284 On ch=2 n=b6 v=127
296284 On ch=2 n=b5 v=127
296362 On ch=2 n=b5 v=0
296362 On ch=2 n=b6 v=0
296484 On ch=2 n=a6 v=127
296484 On ch=2 n=a5 v=127
296581 Par ch=2 c=64 v=0
296601 On ch=2 n=a5 v=0
296601 On ch=2 n=a6 v=0
296604 Par ch=2 c=64 v=127
296604 On ch=2 n=c#6 v=127
296604 On ch=2 n=g6 v=127
296604 On ch=2 n=a6 v=127
296604 On ch=2 n=c#7 v=127
296721 On ch=2 n=c#7 v=0
296721 On ch=2 n=a6 v=0
296721 On ch=2 n=g6 v=0
296721 On ch=2 n=c#6 v=0
296964 On ch=2 n=b5 v=127
296964 On ch=2 n=b6 v=127
297081 On ch=2 n=b6 v=0
297081 On ch=2 n=b5 v=0
297084 On ch=2 n=b6 v=127
297084 On ch=2 n=b5 v=127
297162 On ch=2 n=b5 v=0
297162 On ch=2 n=b6 v=0
297164 On ch=2 n=g6 v=127
297164 On ch=2 n=c#6 v=127
297242 On ch=2 n=c#6 v=0
297242 On ch=2 n=g6 v=0
297244 On ch=2 n=a6 v=127
297244 On ch=2 n=a5 v=127
297322 On ch=2 n=a5 v=0
297322 On ch=2 n=a6 v=0
297444 On ch=2 n=g#6 v=127
297444 On ch=2 n=g#5 v=127
297534 Par ch=2 c=64 v=0
297561 On ch=2 n=g#5 v=0
297561 On ch=2 n=g#6 v=0
297564 Par ch=2 c=64 v=127
297564 On ch=2 n=b5 v=127
297684 On ch=2 n=b5 v=0
297684 On ch=2 n=d6 v=127
297684 On ch=2 n=b6 v=127
297684 On ch=2 n=f#6 v=127
297801 On ch=2 n=f#6 v=0
297801 On ch=2 n=b6 v=0
297801 On ch=2 n=d6 v=0
297924 On ch=2 n=a6 v=127
297924 On ch=2 n=a5 v=127
298041 On ch=2 n=a5 v=0
298041 On ch=2 n=a6 v=0
298044 On ch=2 n=a6 v=127
298044 On ch=2 n=a5 v=127
298122 On ch=2 n=a5 v=0
298122 On ch=2 n=a6 v=0
298124 On ch=2 n=d6 v=127
298202 On ch=2 n=d6 v=0
298204 On ch=2 n=g6 v=127
298204 On ch=2 n=g5 v=127
298282 On ch=2 n=g5 v=0
298282 On ch=2 n=g6 v=0
298404 On ch=2 n=f#6 v=127
298404 On ch=2 n=f#5 v=127
298492 Par ch=2 c=64 v=0
298521 On ch=2 n=f#5 v=0
298521 On ch=2 n=f#6 v=0
298524 On ch=2 n=f#6 v=127
298524 Par ch=2 c=64 v=127
298524 On ch=2 n=f#5 v=127
298641 On ch=2 n=f#5 v=0
298641 On ch=2 n=f#6 v=0
298644 On ch=2 n=c#6 v=127
298644 On ch=2 n=b5 v=127
298761 On ch=2 n=b5 v=0
298761 On ch=2 n=c#6 v=0
298884 On ch=2 n=e6 v=127
298884 On ch=2 n=e5 v=127
299001 On ch=2 n=e5 v=0
299001 On ch=2 n=e6 v=0
299004 On ch=2 n=f#6 v=127
299004 On ch=2 n=f#5 v=127
299121 On ch=2 n=f#5 v=0
299121 On ch=2 n=f#6 v=0
299124 On ch=2 n=c#6 v=127
299124 On ch=2 n=a#5 v=127
299241 On ch=2 n=a#5 v=0
299241 On ch=2 n=c#6 v=0
299364 On ch=2 n=g6 v=127
299364 On ch=2 n=g5 v=127
299391 Par ch=2 c=64 v=0
299481 On ch=2 n=g5 v=0
299481 On ch=2 n=g6 v=0
299484 On ch=2 n=a6 v=84
299484 On ch=2 n=d#6 v=84
299484 On ch=2 n=a5 v=84
299484 On ch=2 n=c6 v=84
299484 On ch=2 n=c6 v=84
299484 On ch=2 n=a5 v=84
299484 On ch=2 n=d#6 v=84
299484 On ch=2 n=a6 v=84
299484 Par ch=2 c=64 v=127
299484 Par ch=2 c=64 v=127
299740 On ch=2 n=a6 v=0
299740 On ch=2 n=a6 v=0
299748 On ch=2 n=d#6 v=0
299748 On ch=2 n=a5 v=0
299748 On ch=2 n=c6 v=0
299748 On ch=2 n=c6 v=0
299748 On ch=2 n=a5 v=0
299748 On ch=2 n=d#6 v=0
299964 On ch=2 n=c5 v=54
299964 On ch=2 n=d#5 v=54
299964 On ch=2 n=a5 v=54
300904 On ch=2 n=a5 v=0
300904 On ch=2 n=d#5 v=0
300904 On ch=2 n=c5 v=0
300924 On ch=2 n=a5 v=85
300924 On ch=2 n=e5 v=85
300924 On ch=2 n=c5 v=85
301383 Par ch=2 c=64 v=0
301394 On ch=2 n=c5 v=0
301394 On ch=2 n=e5 v=0
301394 On ch=2 n=a5 v=0
301404 Par ch=2 c=64 v=127
301404 On ch=2 n=b4 v=75
301521 On ch=2 n=b4 v=0
301524 On ch=2 n=f#5 v=78
301641 On ch=2 n=f#5 v=0
301644 On ch=2 n=a5 v=79
301761 On ch=2 n=a5 v=0
301764 On ch=2 n=b5 v=82
301881 On ch=2 n=b5 v=0
301884 On ch=2 n=c#7 v=84
302001 On ch=2 n=c#7 v=0
302004 On ch=2 n=b6 v=74
302121 On ch=2 n=b6 v=0
302124 On ch=2 n=a#6 v=83
302124 On ch=2 n=f#7 v=83
302241 On ch=2 n=a#6 v=0
302244 On ch=2 n=a6 v=91
302348 Par ch=2 c=64 v=0
302356 On ch=2 n=f#7 v=0
302361 On ch=2 n=a6 v=0
302364 Par ch=2 c=64 v=127
302364 On ch=2 n=g#6 v=99
302364 On ch=2 n=f#7 v=99
302481 On ch=2 n=g#6 v=0
302484 On ch=2 n=a6 v=96
302596 On ch=2 n=f#7 v=0
302601 On ch=2 n=a6 v=0
302604 On ch=2 n=b6 v=93
302604 On ch=2 n=e7 v=93
302721 On ch=2 n=b6 v=0
302724 On ch=2 n=d6 v=89
302841 On ch=2 n=d6 v=0
302844 On ch=2 n=g#6 v=86
302860 On ch=2 n=e7 v=0
302961 On ch=2 n=g#6 v=0
302964 On ch=2 n=f#6 v=83
303081 On ch=2 n=f#6 v=0
303084 On ch=2 n=e6 v=79
303084 On ch=2 n=b6 v=79
303201 On ch=2 n=e6 v=0
303204 Par ch=2 c=64 v=0
303204 On ch=2 n=d6 v=77
303308 On ch=2 n=b6 v=0
303318 On ch=2 n=d6 v=0
303321 On ch=2 n=b6 v=69
303321 On ch=2 n=c6 v=69
303438 On ch=2 n=c6 v=0
303441 On ch=2 n=c#6 v=74
303558 On ch=2 n=c#6 v=0
303561 On ch=2 n=g5 v=79
303561 On ch=2 n=a6 v=79
303585 On ch=2 n=b6 v=0
303678 On ch=2 n=g5 v=0
303681 On ch=2 n=e6 v=84
303798 On ch=2 n=e6 v=0
303809 On ch=2 n=b6 v=68
303833 On ch=2 n=a6 v=0
303921 On ch=2 n=a6 v=76
303926 On ch=2 n=b6 v=0
304038 On ch=2 n=a6 v=0
304049 On ch=2 n=g#6 v=85
304049 On ch=2 n=e7 v=85
304161 On ch=2 n=g6 v=93
304166 On ch=2 n=g#6 v=0
304257 On ch=2 n=e7 v=0
304278 On ch=2 n=g6 v=0
304281 On ch=2 n=e7 v=101
304281 On ch=2 n=f#6 v=101
304398 On ch=2 n=f#6 v=0
304401 On ch=2 n=g6 v=97
304518 On ch=2 n=g6 v=0
304521 On ch=2 n=a6 v=93
304521 On ch=2 n=d7 v=93
304537 On ch=2 n=e7 v=0
304638 On ch=2 n=a6 v=0
304641 On ch=2 n=c6 v=89
304758 On ch=2 n=c6 v=0
304761 On ch=2 n=f#6 v=86
304785 On ch=2 n=d7 v=0
304878 On ch=2 n=f#6 v=0
304881 On ch=2 n=e6 v=83
304998 On ch=2 n=e6 v=0
305001 On ch=2 n=d6 v=79
305001 On ch=2 n=f#6 v=79
305118 On ch=2 n=d6 v=0
305121 On ch=2 n=c#6 v=75
305233 On ch=2 n=f#6 v=0
305238 On ch=2 n=c#6 v=0
305241 On ch=2 n=a#5 v=67
305241 On ch=2 n=f#6 v=67
305361 On ch=2 n=b5 v=55
305393 On ch=2 n=a#5 v=0
305489 On ch=2 n=d#6 v=60
305497 On ch=2 n=b5 v=0
305601 On ch=2 n=f#6 v=0
305601 On ch=2 n=e6 v=64
305625 On ch=2 n=d#6 v=0
305721 On ch=2 n=e6 v=0
305721 On ch=2 n=c#7 v=69
305838 On ch=2 n=c#7 v=0
305841 On ch=2 n=b6 v=74
305961 On ch=2 n=g6 v=79
305985 On ch=2 n=b6 v=0
306081 On ch=2 n=f#6 v=84
306105 On ch=2 n=g6 v=0
306201 Par ch=2 c=64 v=127
306201 On ch=2 n=e6 v=87
306225 On ch=2 n=f#6 v=0
306329 On ch=2 n=d6 v=81
306337 On ch=2 n=e6 v=0
306441 On ch=2 n=b5 v=75
306465 On ch=2 n=d6 v=0
306561 Par ch=2 c=64 v=0
306561 Par ch=2 c=64 v=127
306561 On ch=2 n=g5 v=65
306577 On ch=2 n=b5 v=0
306681 On ch=2 n=e5 v=62
306729 On ch=2 n=g5 v=0
306801 On ch=2 n=d5 v=67
306851 On ch=2 n=e5 v=0
306921 On ch=2 n=b4 v=72
306961 On ch=2 n=d5 v=0
307041 On ch=2 n=d6 v=77
307065 On ch=2 n=b4 v=0
307137 Par ch=2 c=64 v=34
307161 On ch=2 n=e5 v=82
307161 On ch=2 n=b4 v=82
307169 On ch=2 n=d6 v=0
307631 On ch=2 n=b4 v=0
307631 On ch=2 n=e5 v=0
307641 On ch=2 n=a4 v=51
307641 On ch=2 n=b4 v=51
307641 On ch=2 n=d#5 v=51
307641 On ch=2 n=f#5 v=51
308111 On ch=2 n=f#5 v=0
308111 On ch=2 n=d#5 v=0
308111 On ch=2 n=b4 v=0
308111 On ch=2 n=a4 v=0
308121 On ch=2 n=g5 v=67
308121 On ch=2 n=e5 v=67
308121 On ch=2 n=b4 v=67
308121 On ch=2 n=g4 v=67
308591 On ch=2 n=g4 v=0
308591 On ch=2 n=b4 v=0
308591 On ch=2 n=e5 v=0
308591 On ch=2 n=g5 v=0
308601 On ch=2 n=f#5 v=82
308601 On ch=2 n=g4 v=82
308609 On ch=2 n=c#5 v=82
308961 On ch=2 n=e5 v=104
308977 On ch=2 n=f#5 v=0
309071 On ch=2 n=g4 v=0
309079 On ch=2 n=c#5 v=0
309081 On ch=2 n=e5 v=0
309081 On ch=2 n=f#4 v=58
309201 On ch=2 n=c#5 v=64
309217 On ch=2 n=f#4 v=0
309329 On ch=2 n=e5 v=72
309345 On ch=2 n=c#5 v=0
309441 On ch=2 n=f#5 v=79
309465 On ch=2 n=e5 v=0
309561 On ch=2 n=g#6 v=63
309577 On ch=2 n=f#5 v=0
309681 On ch=2 n=f#6 v=69
309713 On ch=2 n=g#6 v=0
309801 On ch=2 n=f6 v=76
309801 On ch=2 n=c#7 v=76
309809 On ch=2 n=f#6 v=0
309921 On ch=2 n=e6 v=83
309937 On ch=2 n=f6 v=0
310017 On ch=2 n=c#7 v=0
310041 On ch=2 n=c#7 v=58
310041 On ch=2 n=d#6 v=58
310057 On ch=2 n=e6 v=0
310161 On ch=2 n=e6 v=64
310185 On ch=2 n=d#6 v=0
310281 On ch=2 n=b6 v=69
310289 On ch=2 n=f#6 v=70
310297 On ch=2 n=e6 v=0
310313 On ch=2 n=c#7 v=0
310401 On ch=2 n=a5 v=75
310406 On ch=2 n=f#6 v=0
310529 On ch=2 n=d#6 v=54
310537 On ch=2 n=a5 v=0
310537 On ch=2 n=b6 v=0
310641 On ch=2 n=c#6 v=61
310665 On ch=2 n=d#6 v=0
310761 On ch=2 n=b5 v=69
310761 On ch=2 n=f#6 v=69
310777 On ch=2 n=c#6 v=0
310897 On ch=2 n=a5 v=79
310985 On ch=2 n=f#6 v=0
311001 On ch=2 n=b5 v=0
311001 On ch=2 n=g5 v=51
311001 On ch=2 n=f#6 v=51
311011 On ch=2 n=a5 v=0
311118 On ch=2 n=g#5 v=58
311142 On ch=2 n=g5 v=0
311238 On ch=2 n=d5 v=64
311246 On ch=2 n=e6 v=64
311262 On ch=2 n=g#5 v=0
311270 On ch=2 n=f#6 v=0
311358 On ch=2 n=b5 v=70
311390 On ch=2 n=d5 v=0
311478 On ch=2 n=f#6 v=54
311502 On ch=2 n=b5 v=0
311502 On ch=2 n=e6 v=0
311598 On ch=2 n=e6 v=60
311630 On ch=2 n=f#6 v=0
311718 On ch=2 n=d#6 v=67
311718 On ch=2 n=b6 v=67
311734 On ch=2 n=e6 v=0
311838 On ch=2 n=d6 v=74
311854 On ch=2 n=d#6 v=0
311942 On ch=2 n=b6 v=0
311958 On ch=2 n=b6 v=58
311958 On ch=2 n=c#6 v=58
311982 On ch=2 n=d6 v=0
312078 On ch=2 n=d6 v=65
312110 On ch=2 n=c#6 v=0
312198 On ch=2 n=e6 v=74
312198 On ch=2 n=a6 v=74
312222 On ch=2 n=b6 v=0
312230 On ch=2 n=d6 v=0
312318 On ch=2 n=g5 v=81
312358 On ch=2 n=e6 v=0
312438 On ch=2 n=c#6 v=70
312470 On ch=2 n=g5 v=0
312470 On ch=2 n=a6 v=0
312558 On ch=2 n=b5 v=77
312582 On ch=2 n=c#6 v=0
312678 On ch=2 n=a5 v=83
312678 On ch=2 n=e6 v=83
312710 On ch=2 n=b5 v=0
312798 On ch=2 n=g5 v=89
312814 On ch=2 n=a5 v=0
312910 On ch=2 n=e6 v=0
312918 On ch=2 n=e6 v=72
312918 On ch=2 n=f#5 v=72
312918 On ch=2 n=e6 v=72
312918 On ch=2 n=f#5 v=72
312942 On ch=2 n=g5 v=0
313038 On ch=2 n=d#6 v=69
313070 On ch=2 n=e6 v=0
313070 On ch=2 n=e6 v=0
313166 On ch=2 n=d6 v=57
313182 On ch=2 n=d#6 v=0
313278 On ch=2 n=c#6 v=61
313302 On ch=2 n=d6 v=0
313398 On ch=2 n=c6 v=65
313414 On ch=2 n=c#6 v=0
313518 On ch=2 n=b5 v=69
313518 On ch=2 n=f5 v=69
313542 On ch=2 n=c6 v=0
313542 On ch=2 n=f#5 v=0
313542 On ch=2 n=f#5 v=0
313638 On ch=2 n=a5 v=74
313670 On ch=2 n=b5 v=0
313758 On ch=2 n=g#5 v=79
313774 On ch=2 n=a5 v=0
313870 On ch=2 n=g#5 v=0
313878 On ch=2 n=f6 v=83
313878 On ch=2 n=g#5 v=83
313902 On ch=2 n=f5 v=0
313998 On ch=2 n=e6 v=56
314006 On ch=2 n=f6 v=0
314118 On ch=2 n=d#6 v=60
314134 On ch=2 n=e6 v=0
314238 On ch=2 n=d6 v=64
314278 On ch=2 n=d#6 v=0
314358 On ch=2 n=c#6 v=68
314358 On ch=2 n=g5 v=68
314374 On ch=2 n=g#5 v=0
314382 On ch=2 n=d6 v=0
314478 On ch=2 n=b5 v=78
314494 On ch=2 n=c#6 v=0
314598 On ch=2 n=a#5 v=85
314622 On ch=2 n=b5 v=0
314718 On ch=2 n=c#6 v=93
314742 On ch=2 n=a#5 v=0
314838 On ch=2 n=a#5 v=100
314838 On ch=2 n=g6 v=100
314862 On ch=2 n=g5 v=0
314870 On ch=2 n=c#6 v=0
314958 On ch=2 n=f#6 v=76
314982 On ch=2 n=g6 v=0
315078 On ch=2 n=f6 v=79
315102 On ch=2 n=f#6 v=0
315198 On ch=2 n=e6 v=81
315222 On ch=2 n=f6 v=0
315318 On ch=2 n=d6 v=84
315318 On ch=2 n=b5 v=84
315334 On ch=2 n=a#5 v=0
315342 On ch=2 n=e6 v=0
315446 On ch=2 n=c#6 v=86
315470 On ch=2 n=b5 v=0
315478 On ch=2 n=d6 v=0
315558 On ch=2 n=e6 v=88
315574 On ch=2 n=c#6 v=0
315678 On ch=2 n=d6 v=90
315710 On ch=2 n=e6 v=0
315790 On ch=2 n=d6 v=0
315798 On ch=2 n=d6 v=93
315798 On ch=2 n=b6 v=93
315958 On ch=2 n=c#6 v=96
315958 On ch=2 n=a#6 v=96
315974 On ch=2 n=b6 v=0
315998 On ch=2 n=d6 v=0
316118 On ch=2 n=d6 v=99
316118 On ch=2 n=b6 v=99
316134 On ch=2 n=a#6 v=0
316150 On ch=2 n=c#6 v=0
316278 On ch=2 n=d#6 v=102
316278 On ch=2 n=c7 v=102
316294 On ch=2 n=d6 v=0
316318 On ch=2 n=b6 v=0
316438 On ch=2 n=e6 v=105
316438 On ch=2 n=c#7 v=105
316454 On ch=2 n=c7 v=0
316462 On ch=2 n=d#6 v=0
316598 On ch=2 n=f6 v=108
316598 On ch=2 n=d7 v=108
316622 On ch=2 n=c#7 v=0
316622 On ch=2 n=e6 v=0
316742 On ch=2 n=d7 v=0
316758 On ch=2 n=f#6 v=112
316758 On ch=2 n=d7 v=112
316790 On ch=2 n=f6 v=0
316993 On ch=2 n=d7 v=0
316993 On ch=2 n=f#6 v=0
316998 On ch=2 n=g6 v=108
316998 On ch=2 n=e6 v=108
316998 On ch=2 n=c#7 v=108
317233 On ch=2 n=c#7 v=0
317233 On ch=2 n=e6 v=0
317233 On ch=2 n=g6 v=0
317238 On ch=2 n=f#6 v=110
317238 On ch=2 n=d6 v=110
317238 On ch=2 n=b6 v=110
317473 On ch=2 n=b6 v=0
317473 On ch=2 n=d6 v=0
317473 On ch=2 n=f#6 v=0
317478 On ch=2 n=g6 v=117
317478 On ch=2 n=e6 v=117
317478 On ch=2 n=c#7 v=117
317713 On ch=2 n=c#7 v=0
317713 On ch=2 n=e6 v=0
317713 On ch=2 n=g6 v=0
317718 On ch=2 n=b6 v=108
317718 On ch=2 n=d6 v=108
317718 On ch=2 n=f#6 v=108
317953 On ch=2 n=f#6 v=0
317953 On ch=2 n=d6 v=0
317953 On ch=2 n=b6 v=0
317958 On ch=2 n=c#6 v=104
317958 On ch=2 n=e6 v=104
317958 On ch=2 n=c#7 v=104
318193 On ch=2 n=c#7 v=0
318193 On ch=2 n=e6 v=0
318193 On ch=2 n=c#6 v=0
318198 On ch=2 n=d7 v=94
318198 On ch=2 n=b5 v=94
318198 On ch=2 n=d6 v=94
318433 On ch=2 n=d6 v=0
318433 On ch=2 n=b5 v=0
318433 On ch=2 n=d7 v=0
318438 On ch=2 n=a6 v=84
318438 On ch=2 n=e6 v=84
318438 On ch=2 n=c#6 v=84
318673 On ch=2 n=c#6 v=0
318673 On ch=2 n=e6 v=0
318673 On ch=2 n=a6 v=0
318678 On ch=2 n=g6 v=101
318678 On ch=2 n=d6 v=101
318678 On ch=2 n=b5 v=101
318913 On ch=2 n=b5 v=0
318913 On ch=2 n=d6 v=0
318913 On ch=2 n=g6 v=0
318918 On ch=2 n=a6 v=93
318918 On ch=2 n=a5 v=93
318918 On ch=2 n=c#6 v=93
319153 On ch=2 n=c#6 v=0
319153 On ch=2 n=a5 v=0
319153 On ch=2 n=a6 v=0
319158 On ch=2 n=b6 v=84
319158 On ch=2 n=b5 v=84
319158 On ch=2 n=g5 v=84
319393 On ch=2 n=g5 v=0
319393 On ch=2 n=b5 v=0
319393 On ch=2 n=b6 v=0
319398 On ch=2 n=c#6 v=76
319398 On ch=2 n=a5 v=76
319406 On ch=2 n=f#6 v=76
319633 On ch=2 n=a5 v=0
319633 On ch=2 n=c#6 v=0
319638 On ch=2 n=b5 v=78
319638 Par ch=2 c=64 v=127
319638 On ch=2 n=e6 v=78
319641 On ch=2 n=f#6 v=0
319873 On ch=2 n=e6 v=0
319878 On ch=2 n=f#6 v=69
319878 On ch=2 n=a5 v=69
319878 Par ch=2 c=64 v=0
319878 On ch=2 n=d#6 v=69
320113 On ch=2 n=d#6 v=0
320113 On ch=2 n=f#6 v=0
320118 On ch=2 n=g6 v=59
320118 On ch=2 n=e6 v=59
320118 On ch=2 n=g5 v=59
320134 On ch=2 n=a5 v=0
320353 On ch=2 n=g5 v=0
320353 On ch=2 n=e6 v=0
320353 On ch=2 n=g6 v=0
320358 On ch=2 n=a5 v=49
320358 On ch=2 n=c#6 v=49
320406 On ch=2 n=b5 v=0
320593 On ch=2 n=c#6 v=0
320593 On ch=2 n=a5 v=0
320598 Par ch=2 c=64 v=127
320598 On ch=2 n=d6 v=55
320598 On ch=2 n=f#5 v=55
321054 On ch=2 n=f#5 v=0
321078 On ch=2 n=f#5 v=66
321094 On ch=2 n=d6 v=0
321162 Par ch=2 c=64 v=127
321198 On ch=2 n=g5 v=69
321210 On ch=2 n=f#5 v=0
321330 On ch=2 n=g5 v=0
321334 On ch=2 n=a5 v=74
321446 On ch=2 n=d6 v=77
321466 On ch=2 n=a5 v=0
321528 Par ch=2 c=64 v=0
321558 Par ch=2 c=64 v=127
321558 On ch=2 n=b5 v=80
321578 On ch=2 n=d6 v=0
322038 On ch=2 n=f#5 v=67
322158 On ch=2 n=g5 v=74
322170 On ch=2 n=f#5 v=0
322278 On ch=2 n=a5 v=81
322290 On ch=2 n=g5 v=0
322294 On ch=2 n=b5 v=0
322398 On ch=2 n=f#6 v=88
322410 On ch=2 n=a5 v=0
322488 Par ch=2 c=64 v=0
322518 On ch=2 n=e6 v=87
322518 Par ch=2 c=64 v=127
322530 On ch=2 n=f#6 v=0
322998 On ch=2 n=d5 v=75
323118 On ch=2 n=e5 v=84
323130 On ch=2 n=d5 v=0
323238 On ch=2 n=f#5 v=93
323250 On ch=2 n=e5 v=0
323358 On ch=2 n=d6 v=100
323370 On ch=2 n=f#5 v=0
323406 On ch=2 n=e6 v=0
323448 Par ch=2 c=64 v=0
323478 Par ch=2 c=64 v=127
323478 On ch=2 n=g#5 v=96
323478 On ch=2 n=c#6 v=96
323490 On ch=2 n=d6 v=0
323958 On ch=2 n=d5 v=92
324006 On ch=2 n=g#5 v=0
324078 On ch=2 n=e5 v=94
324090 On ch=2 n=d5 v=0
324182 On ch=2 n=c#6 v=0
324198 On ch=2 n=g5 v=95
324198 On ch=2 n=c#6 v=95
324210 On ch=2 n=e5 v=0
324278 On ch=2 n=d6 v=95
324286 On ch=2 n=c#6 v=0
324350 On ch=2 n=b5 v=96
324366 On ch=2 n=d6 v=0
324408 Par ch=2 c=64 v=0
324414 On ch=2 n=g5 v=0
324430 On ch=2 n=b5 v=0
324438 Par ch=2 c=64 v=127
324438 On ch=2 n=b5 v=97
324438 On ch=2 n=g5 v=97
324918 On ch=2 n=c#5 v=74
325030 On ch=2 n=g5 v=0
325038 On ch=2 n=g5 v=79
325050 On ch=2 n=c#5 v=0
325142 On ch=2 n=b5 v=0
325158 On ch=2 n=a5 v=84
325278 On ch=2 n=d6 v=88
325368 Par ch=2 c=64 v=0
325398 Par ch=2 c=64 v=127
325398 On ch=2 n=c#6 v=93
325854 On ch=2 n=g5 v=0
325862 On ch=2 n=c#6 v=0
325870 On ch=2 n=d6 v=0
325870 On ch=2 n=a5 v=0
325886 On ch=2 n=g5 v=100
325998 On ch=2 n=a5 v=100
326118 On ch=2 n=c#6 v=100
326246 On ch=2 n=f#6 v=100
326342 On ch=2 n=c#6 v=0
326358 On ch=2 n=c#6 v=100
326366 On ch=2 n=e6 v=100
326382 On ch=2 n=f#6 v=0
326808 Par ch=2 c=64 v=0
326814 On ch=2 n=g5 v=0
326838 On ch=2 n=g5 v=113
326838 Par ch=2 c=64 v=127
326942 On ch=2 n=a5 v=0
326950 On ch=2 n=c#6 v=0
326958 On ch=2 n=e6 v=0
326958 On ch=2 n=a5 v=110
327078 On ch=2 n=b6 v=107
327214 On ch=2 n=b6 v=0
327238 On ch=2 n=a5 v=0
327246 On ch=2 n=b6 v=103
327310 On ch=2 n=b6 v=0
327310 On ch=2 n=g5 v=0
327318 On ch=2 n=b6 v=101
327318 On ch=2 n=g5 v=101
327318 On ch=2 n=a5 v=101
327478 On ch=2 n=a6 v=97
327478 On ch=2 n=f#5 v=97
327494 On ch=2 n=g5 v=0
327494 On ch=2 n=b6 v=0
327638 On ch=2 n=e5 v=93
327654 On ch=2 n=f#5 v=0
327718 On ch=2 n=g6 v=90
327726 On ch=2 n=a6 v=0
327790 On ch=2 n=g6 v=0
327798 On ch=2 n=b5 v=88
327798 On ch=2 n=g6 v=88
327814 On ch=2 n=e5 v=0
327942 On ch=2 n=a5 v=0
327958 On ch=2 n=a5 v=84
327958 On ch=2 n=f#6 v=84
327974 On ch=2 n=b5 v=0
327990 On ch=2 n=g6 v=0
328134 On ch=2 n=f#6 v=0
328134 On ch=2 n=a5 v=0
328198 On ch=2 n=f6 v=86
328198 On ch=2 n=a5 v=86
328248 Par ch=2 c=64 v=0
328278 On ch=2 n=b5 v=92
328278 On ch=2 n=d6 v=92
328278 On ch=2 n=g6 v=92
328278 Par ch=2 c=64 v=127
328286 On ch=2 n=a5 v=0
328286 On ch=2 n=f6 v=0
328438 On ch=2 n=a5 v=81
328438 On ch=2 n=f#6 v=81
328454 On ch=2 n=g6 v=0
328454 On ch=2 n=d6 v=0
328454 On ch=2 n=b5 v=0
328614 On ch=2 n=f#6 v=0
328614 On ch=2 n=a5 v=0
328758 On ch=2 n=f#5 v=80
328878 On ch=2 n=g5 v=83
328890 On ch=2 n=f#5 v=0
328998 On ch=2 n=a5 v=85
329010 On ch=2 n=g5 v=0
329118 On ch=2 n=d6 v=88
329130 On ch=2 n=a5 v=0
329208 Par ch=2 c=64 v=0
329238 Par ch=2 c=64 v=127
329238 On ch=2 n=b5 v=90
329250 On ch=2 n=d6 v=0
329718 On ch=2 n=f#5 v=78
329838 On ch=2 n=g5 v=83
329850 On ch=2 n=f#5 v=0
329958 On ch=2 n=a5 v=88
329970 On ch=2 n=g5 v=0
329998 On ch=2 n=b5 v=0
330086 On ch=2 n=f#6 v=100
330090 On ch=2 n=a5 v=0
330168 Par ch=2 c=64 v=0
330198 Par ch=2 c=64 v=127
330198 On ch=2 n=e6 v=105
330218 On ch=2 n=f#6 v=0
330678 On ch=2 n=d5 v=92
330798 On ch=2 n=e5 v=93
330810 On ch=2 n=d5 v=0
330918 On ch=2 n=f#5 v=95
330930 On ch=2 n=e5 v=0
331038 On ch=2 n=e6 v=0
331046 On ch=2 n=d6 v=97
331050 On ch=2 n=f#5 v=0
331128 Par ch=2 c=64 v=0
331158 Par ch=2 c=64 v=127
331158 On ch=2 n=g#5 v=98
331158 On ch=2 n=d5 v=98
331158 On ch=2 n=c#6 v=98
331178 On ch=2 n=d6 v=0
331622 On ch=2 n=d5 v=0
331638 On ch=2 n=d5 v=89
331758 On ch=2 n=e5 v=88
331770 On ch=2 n=d5 v=0
331854 On ch=2 n=c#6 v=0
331878 On ch=2 n=g#5 v=0
331878 On ch=2 n=c#6 v=86
331894 On ch=2 n=f#5 v=85
331998 On ch=2 n=d5 v=84
331998 On ch=2 n=b5 v=84
332010 On ch=2 n=c#6 v=0
332026 On ch=2 n=f#5 v=0
332088 Par ch=2 c=64 v=0
332102 On ch=2 n=d5 v=0
332102 On ch=2 n=e5 v=0
332110 On ch=2 n=b5 v=0
332118 Par ch=2 c=64 v=127
332118 On ch=2 n=d5 v=88
332118 On ch=2 n=g5 v=88
332118 On ch=2 n=b5 v=88
332582 On ch=2 n=b5 v=0
332590 On ch=2 n=g5 v=0
332590 On ch=2 n=d5 v=0
332598 On ch=2 n=c#5 v=74
332718 On ch=2 n=g5 v=79
332730 On ch=2 n=c#5 v=0
332838 On ch=2 n=a5 v=84
332958 On ch=2 n=d6 v=89
333048 Par ch=2 c=64 v=0
333078 Par ch=2 c=64 v=127
333078 On ch=2 n=c#6 v=83
333078 On ch=2 n=c#6 v=83
333110 On ch=2 n=d6 v=0
333518 On ch=2 n=g5 v=0
333558 On ch=2 n=g5 v=100
333638 On ch=2 n=a5 v=0
333678 On ch=2 n=a5 v=100
333750 On ch=2 n=c#6 v=0
333750 On ch=2 n=c#6 v=0
333798 On ch=2 n=d6 v=100
333918 On ch=2 n=f#6 v=100
334038 On ch=2 n=e6 v=100
334038 On ch=2 n=c#6 v=100
334054 On ch=2 n=f#6 v=0
334062 On ch=2 n=d6 v=0
334510 On ch=2 n=g5 v=0
334518 On ch=2 n=g5 v=98
334526 On ch=2 n=e6 v=0
334542 On ch=2 n=c#6 v=0
334614 On ch=2 n=a5 v=0
334638 On ch=2 n=c#6 v=100
334758 On ch=2 n=a6 v=103
334878 On ch=2 n=a#6 v=104
334890 On ch=2 n=a6 v=0
334938 Par ch=2 c=64 v=0
334990 On ch=2 n=a#6 v=0
334998 On ch=2 n=a#6 v=107
334998 Par ch=2 c=64 v=127
334998 On ch=2 n=g#6 v=107
335006 On ch=2 n=g5 v=0
335118 On ch=2 n=c#6 v=0
335238 On ch=2 n=c#6 v=112
335238 On ch=2 n=b6 v=112
335262 On ch=2 n=a#6 v=0
335462 On ch=2 n=b6 v=0
335478 On ch=2 n=c7 v=116
335598 On ch=2 n=c#7 v=118
335610 On ch=2 n=c7 v=0
335694 On ch=2 n=c#6 v=0
335710 On ch=2 n=g#6 v=0
335718 On ch=2 n=a6 v=121
335718 On ch=2 n=f#7 v=121
335730 On ch=2 n=c#7 v=0
335838 On ch=2 n=g6 v=123
335838 On ch=2 n=e7 v=123
335870 On ch=2 n=f#7 v=0
335886 On ch=2 n=a6 v=0
335928 Par ch=2 c=64 v=0
335958 Par ch=2 c=64 v=127
335958 On ch=2 n=d7 v=125
335958 On ch=2 n=f#6 v=125
335974 On ch=2 n=g6 v=0
335982 On ch=2 n=e7 v=0
336430 On ch=2 n=d7 v=0
336438 On ch=2 n=d7 v=108
336910 On ch=2 n=f#6 v=0
336918 On ch=2 n=f#6 v=112
336942 On ch=2 n=d7 v=0
337398 On ch=2 n=b6 v=115
337454 On ch=2 n=f#6 v=0
337758 On ch=2 n=a6 v=118
337790 On ch=2 n=b6 v=0
337856 Par ch=2 c=64 v=0
337878 On ch=2 n=g#6 v=119
337878 On ch=2 n=f6 v=119
337878 Par ch=2 c=64 v=127
337878 On ch=2 n=b5 v=119
337890 On ch=2 n=a6 v=0
338358 On ch=2 n=e6 v=115
338390 On ch=2 n=b5 v=0
338390 On ch=2 n=f6 v=0
338718 On ch=2 n=d6 v=113
338750 On ch=2 n=e6 v=0
338838 On ch=2 n=a#5 v=112
338838 On ch=2 n=g6 v=112
338838 Par ch=2 c=64 v=0
338838 On ch=2 n=c#6 v=112
338850 On ch=2 n=d6 v=0
338870 On ch=2 n=g#6 v=0
339318 On ch=2 n=a5 v=109
339326 On ch=2 n=g6 v=0
339326 On ch=2 n=f#6 v=109
339342 On ch=2 n=a#5 v=0
339678 On ch=2 n=g5 v=108
339678 On ch=2 n=e6 v=108
339702 On ch=2 n=f#6 v=0
339702 On ch=2 n=a5 v=0
339798 On ch=2 n=c#6 v=0
339798 On ch=2 n=f#5 v=107
339798 Par ch=2 c=64 v=127
339798 On ch=2 n=d6 v=107
339810 On ch=2 n=e6 v=0
339810 On ch=2 n=g5 v=0
340038 On ch=2 n=c#6 v=116
340062 On ch=2 n=d6 v=0
340278 On ch=2 n=c6 v=110
340302 On ch=2 n=c#6 v=0
340518 On ch=2 n=b5 v=105
340542 On ch=2 n=c6 v=0
340758 On ch=2 n=a5 v=99
340782 On ch=2 n=b5 v=0
341238 On ch=2 n=c5 v=115
341238 On ch=2 n=b5 v=115
341270 On ch=2 n=a5 v=0
341606 On ch=2 n=a5 v=108
341622 On ch=2 n=b5 v=0
341662 Par ch=2 c=64 v=0
341691 Par ch=2 c=64 v=0
341710 On ch=2 n=a5 v=0
341718 Par ch=2 c=64 v=127
341718 On ch=2 n=b4 v=104
341718 On ch=2 n=f5 v=104
341718 On ch=2 n=a5 v=104
341726 On ch=2 n=c5 v=0
341734 On ch=2 n=f#5 v=0
341958 Par ch=2 c=64 v=0
341958 On ch=2 n=g#5 v=104
341974 On ch=2 n=a5 v=0
342198 Par ch=2 c=64 v=127
342198 On ch=2 n=e5 v=91
342230 On ch=2 n=f5 v=0
342558 On ch=2 n=d5 v=91
342582 On ch=2 n=e5 v=0
342678 Par ch=2 c=64 v=0
342678 On ch=2 n=g5 v=106
342678 On ch=2 n=c#5 v=106
342690 On ch=2 n=d5 v=0
342694 On ch=2 n=g#5 v=0
343158 On ch=2 n=f#5 v=85
343174 On ch=2 n=g5 v=0
343518 On ch=2 n=e5 v=64
343542 On ch=2 n=f#5 v=0
343638 On ch=2 n=f#5 v=86
343638 On ch=2 n=d5 v=86
343654 On ch=2 n=e5 v=0
343654 On ch=2 n=c#5 v=0
343662 On ch=2 n=b4 v=0
344102 On ch=2 n=d5 v=0
344102 On ch=2 n=f#5 v=0
344118 On ch=2 n=f#5 v=63
344118 On ch=2 n=f#5 v=63
345078 On ch=2 n=e5 v=69
345118 On ch=2 n=f#5 v=0
345118 On ch=2 n=f#5 v=0
345438 On ch=2 n=d5 v=54
345438 On ch=2 n=d5 v=54
345486 On ch=2 n=e5 v=0
345558 On ch=2 n=f#5 v=69
345570 On ch=2 n=d5 v=0
345570 On ch=2 n=d5 v=0
346022 On ch=2 n=f#5 v=0
346038 On ch=2 n=f#5 v=60
346998 On ch=2 n=e5 v=51
346998 On ch=2 n=e5 v=60
347030 On ch=2 n=f#5 v=0
347366 On ch=2 n=d5 v=54
347390 On ch=2 n=e5 v=0
347390 On ch=2 n=e5 v=0
347470 On ch=2 n=d5 v=0
347478 On ch=2 n=e5 v=69
347478 On ch=2 n=d5 v=69
348438 On ch=2 n=c#5 v=68
348454 On ch=2 n=d5 v=0
349390 On ch=2 n=e5 v=0
349398 On ch=2 n=d5 v=97
349878 On ch=2 n=b4 v=77
349886 On ch=2 n=c#5 v=0
350358 On ch=2 n=c#5 v=98
350382 On ch=2 n=d5 v=0
350838 On ch=2 n=a4 v=78
350862 On ch=2 n=b4 v=0
351310 On ch=2 n=c#5 v=0
351318 On ch=2 n=c#5 v=104
351334 On ch=2 n=a4 v=0
352262 On ch=2 n=c#5 v=0
352278 On ch=2 n=c#5 v=100
354198 On ch=2 n=f5 v=69
354214 On ch=2 n=c#5 v=0
354678 On ch=2 n=d5 v=71
354678 On ch=2 n=f#5 v=71
354702 On ch=2 n=f5 v=0
355038 On ch=2 n=a5 v=79
355046 On ch=2 n=f#5 v=0
355150 On ch=2 n=a5 v=0
355150 On ch=2 n=d5 v=0
355158 On ch=2 n=d5 v=75
355158 On ch=2 n=a5 v=75
355630 On ch=2 n=d5 v=0
355638 On ch=2 n=d5 v=57
356118 On ch=2 n=g#5 v=62
356134 On ch=2 n=a5 v=0
356358 On ch=2 n=c#5 v=69
356366 On ch=2 n=d5 v=0
356478 On ch=2 n=d5 v=73
356490 On ch=2 n=c#5 v=0
356598 On ch=2 n=e5 v=77
356610 On ch=2 n=d5 v=0
356718 On ch=2 n=d5 v=77
356730 On ch=2 n=e5 v=0
356838 On ch=2 n=b5 v=76
356850 On ch=2 n=d5 v=0
356958 On ch=2 n=d5 v=76
356970 On ch=2 n=b5 v=0
357062 On ch=2 n=g#5 v=0
357078 On ch=2 n=g#5 v=75
357078 On ch=2 n=b5 v=75
357550 On ch=2 n=b5 v=0
357558 On ch=2 n=b5 v=81
357670 On ch=2 n=d5 v=0
358038 On ch=2 n=g5 v=49
358038 On ch=2 n=e5 v=49
358094 On ch=2 n=g#5 v=0
358278 On ch=2 n=a#5 v=52
358310 On ch=2 n=b5 v=0
358398 On ch=2 n=b5 v=58
358410 On ch=2 n=a#5 v=0
358518 On ch=2 n=d6 v=64
358530 On ch=2 n=b5 v=0
358638 On ch=2 n=c#6 v=70
358650 On ch=2 n=d6 v=0
358758 On ch=2 n=e6 v=77
358770 On ch=2 n=c#6 v=0
358878 On ch=2 n=d6 v=83
358890 On ch=2 n=e6 v=0
358998 On ch=2 n=c#6 v=84
359010 On ch=2 n=d6 v=0
359118 On ch=2 n=a#5 v=78
359118 On ch=2 n=e6 v=78
359142 On ch=2 n=e5 v=0
359142 On ch=2 n=g5 v=0
359150 On ch=2 n=c#6 v=0
359286 On ch=2 n=e6 v=0
359286 On ch=2 n=a#5 v=0
360438 On ch=2 n=f#5 v=88
360558 On ch=2 n=e5 v=96
360570 On ch=2 n=f#5 v=0
360678 On ch=2 n=c#5 v=103
360690 On ch=2 n=e5 v=0
360798 On ch=2 n=a#4 v=111
360810 On ch=2 n=c#5 v=0
360918 On ch=2 n=f#4 v=118
360930 On ch=2 n=a#4 v=0
361622 On ch=2 n=f#4 v=0
361638 On ch=2 n=c#4 v=103
361638 On ch=2 n=a#4 v=103
361638 On ch=2 n=f#4 v=103
361862 On ch=2 n=f#4 v=0
361878 On ch=2 n=f#4 v=106
361878 On ch=2 n=b3 v=106
361886 On ch=2 n=b4 v=107
361910 On ch=2 n=c#4 v=0
361918 On ch=2 n=a#4 v=0
362110 On ch=2 n=f#4 v=0
362118 On ch=2 n=f#4 v=110
362118 On ch=2 n=c#5 v=110
362118 On ch=2 n=c#4 v=110
362150 On ch=2 n=b4 v=0
362150 On ch=2 n=b3 v=0
362350 On ch=2 n=f#4 v=0
362358 On ch=2 n=f#4 v=113
362358 On ch=2 n=d4 v=113
362366 On ch=2 n=d5 v=114
362374 On ch=2 n=c#4 v=0
362374 On ch=2 n=c#5 v=0
362598 On ch=2 n=b4 v=118
362598 On ch=2 n=e5 v=118
362598 On ch=2 n=e4 v=118
362614 On ch=2 n=d5 v=0
362614 On ch=2 n=d4 v=0
362622 On ch=2 n=f#4 v=0
362830 On ch=2 n=b4 v=0
362838 On ch=2 n=b4 v=100
362838 On ch=2 n=f#4 v=100
362846 On ch=2 n=f#5 v=100
362862 On ch=2 n=e4 v=0
362862 On ch=2 n=e5 v=0
363318 On ch=2 n=c#5 v=100
363334 On ch=2 n=b4 v=0
363638 On ch=2 n=e5 v=100
363702 On ch=2 n=c#5 v=0
363718 On ch=2 n=d5 v=100
363726 On ch=2 n=e5 v=0
363790 On ch=2 n=f#4 v=0
363798 On ch=2 n=f#4 v=100
363806 On ch=2 n=d5 v=0
363806 On ch=2 n=c#5 v=100
364262 On ch=2 n=c#5 v=0
364278 On ch=2 n=c#5 v=100
364278 On ch=2 n=g#4 v=100
364278 On ch=2 n=g#5 v=100
364294 On ch=2 n=f#4 v=0
364302 On ch=2 n=f#5 v=0
364742 On ch=2 n=c#5 v=0
364758 On ch=2 n=a4 v=100
364758 On ch=2 n=a5 v=100
364758 On ch=2 n=c#5 v=100
364790 On ch=2 n=g#5 v=0
364790 On ch=2 n=g#4 v=0
365230 On ch=2 n=c#5 v=0
365238 On ch=2 n=c#5 v=100
365238 On ch=2 n=c#4 v=100
365294 On ch=2 n=a4 v=0
365326 On ch=2 n=a5 v=0
365958 On ch=2 n=c5 v=100
365958 On ch=2 n=c4 v=100
365974 On ch=2 n=c#4 v=0
365998 On ch=2 n=c#5 v=0
366078 On ch=2 n=c#5 v=100
366078 On ch=2 n=c#4 v=100
366090 On ch=2 n=c4 v=0
366090 On ch=2 n=c5 v=0
366198 On ch=2 n=d#5 v=100
366198 On ch=2 n=d#4 v=100
366210 On ch=2 n=c#4 v=0
366210 On ch=2 n=c#5 v=0
366318 On ch=2 n=c#5 v=100
366318 On ch=2 n=c#4 v=100
366330 On ch=2 n=d#4 v=0
366330 On ch=2 n=d#5 v=0
366438 On ch=2 n=g#5 v=100
366438 On ch=2 n=g#4 v=100
366450 On ch=2 n=c#4 v=0
366450 On ch=2 n=c#5 v=0
366570 On ch=2 n=g#4 v=0
366570 On ch=2 n=g#5 v=0
366614 On ch=2 n=c#5 v=100
366622 On ch=2 n=c#4 v=100
366670 On ch=2 n=c#5 v=0
366678 On ch=2 n=c#5 v=100
366678 On ch=2 n=g#4 v=100
366678 On ch=2 n=a#4 v=100
366688 On ch=2 n=c#4 v=0
366918 On ch=2 n=g4 v=100
366958 On ch=2 n=g#4 v=0
367214 On ch=2 n=c#5 v=0
367222 On ch=2 n=a#4 v=0
367422 On ch=2 n=g4 v=0
369078 On ch=2 n=c#5 v=92
369438 On ch=2 n=g#5 v=90
369558 On ch=2 n=g5 v=84
369570 On ch=2 n=g#5 v=0
369798 On ch=2 n=d5 v=74
369918 On ch=2 n=d#5 v=79
369930 On ch=2 n=d5 v=0
370038 On ch=2 n=g#5 v=84
370054 On ch=2 n=g5 v=0
370158 On ch=2 n=e5 v=84
370198 On ch=2 n=d#5 v=0
370278 On ch=2 n=f#5 v=80
370290 On ch=2 n=e5 v=0
370398 On ch=2 n=a5 v=78
370398 On ch=2 n=e5 v=78
370410 On ch=2 n=f#5 v=0
370438 On ch=2 n=g#5 v=0
370502 On ch=2 n=c#5 v=0
370510 On ch=2 n=e5 v=0
370518 On ch=2 n=c#5 v=88
370518 On ch=2 n=a#5 v=88
370518 On ch=2 n=e5 v=88
370530 On ch=2 n=a5 v=0
370982 On ch=2 n=a#5 v=0
370998 On ch=2 n=a#5 v=83
371478 On ch=2 n=c5 v=83
371510 On ch=2 n=c#5 v=0
371958 On ch=2 n=a5 v=88
371990 On ch=2 n=a#5 v=0
372422 On ch=2 n=a5 v=0
372438 On ch=2 n=e5 v=0
372438 On ch=2 n=a5 v=79
372446 On ch=2 n=c5 v=0
372918 On ch=2 n=g5 v=82
372958 On ch=2 n=a5 v=0
373278 On ch=2 n=d6 v=88
373398 On ch=2 n=e6 v=89
373398 On ch=2 n=c6 v=89
373398 On ch=2 n=a#5 v=89
373410 On ch=2 n=d6 v=0
373678 On ch=2 n=g5 v=0
373878 On ch=2 n=f6 v=98
373894 On ch=2 n=e6 v=0
374238 On ch=2 n=f#6 v=93
374270 On ch=2 n=f6 v=0
374334 On ch=2 n=a#5 v=0
374358 On ch=2 n=e6 v=89
374358 On ch=2 n=a#5 v=89
374358 On ch=2 n=a6 v=89
374382 On ch=2 n=c6 v=0
374398 On ch=2 n=f#6 v=0
375318 On ch=2 n=g6 v=100
375366 On ch=2 n=a6 v=0
375790 On ch=2 n=e6 v=0
375798 On ch=2 n=e6 v=99
375798 On ch=2 n=c#6 v=99
375798 On ch=2 n=g#6 v=99
375822 On ch=2 n=a#5 v=0
375830 On ch=2 n=g6 v=0
375918 On ch=2 n=c6 v=98
375930 On ch=2 n=c#6 v=0
376038 On ch=2 n=a#5 v=96
376050 On ch=2 n=c6 v=0
376158 On ch=2 n=e5 v=94
376170 On ch=2 n=a#5 v=0
376270 On ch=2 n=g#6 v=0
376270 On ch=2 n=e6 v=0
376278 On ch=2 n=g#5 v=93
376278 On ch=2 n=c6 v=93
376278 On ch=2 n=e6 v=93
376278 On ch=2 n=g#6 v=93
376290 On ch=2 n=e5 v=0
376518 On ch=2 n=e5 v=84
376638 On ch=2 n=f5 v=86
376650 On ch=2 n=e5 v=0
376742 On ch=2 n=g#5 v=0
376758 On ch=2 n=g#5 v=88
376770 On ch=2 n=f5 v=0
376790 On ch=2 n=g#6 v=0
376790 On ch=2 n=e6 v=0
376806 On ch=2 n=c6 v=0
376886 On ch=2 n=c6 v=89
376890 On ch=2 n=g#5 v=0
376998 On ch=2 n=e6 v=91
377018 On ch=2 n=c6 v=0
377118 On ch=2 n=f6 v=93
377130 On ch=2 n=e6 v=0
377238 On ch=2 n=d7 v=95
377238 On ch=2 n=g6 v=95
377250 On ch=2 n=f6 v=0
377358 On ch=2 n=g#6 v=97
377430 On ch=2 n=g6 v=0
377430 On ch=2 n=d7 v=0
377478 On ch=2 n=e6 v=98
377518 On ch=2 n=g#6 v=0
377598 On ch=2 n=f6 v=100
377654 On ch=2 n=e6 v=0
377718 On ch=2 n=d6 v=102
377718 On ch=2 n=g#6 v=102
377718 On ch=2 n=d7 v=102
377766 On ch=2 n=f6 v=0
378182 On ch=2 n=d7 v=0
378190 On ch=2 n=d6 v=0
378198 On ch=2 n=d6 v=108
378198 On ch=2 n=e6 v=108
378198 On ch=2 n=g6 v=108
378206 On ch=2 n=d7 v=108
378222 On ch=2 n=g#6 v=0
379150 On ch=2 n=g6 v=0
379158 On ch=2 n=c#7 v=100
379158 On ch=2 n=c#6 v=100
379158 On ch=2 n=g6 v=100
379254 On ch=2 n=e6 v=0
379254 On ch=2 n=d6 v=0
379262 On ch=2 n=d7 v=0
379614 On ch=2 n=g6 v=0
379638 On ch=2 n=g6 v=106
379638 On ch=2 n=c7 v=106
379638 On ch=2 n=a#5 v=106
379670 On ch=2 n=c#7 v=0
379686 On ch=2 n=c#6 v=0
379758 On ch=2 n=a#6 v=103
379770 On ch=2 n=c7 v=0
379862 On ch=2 n=g6 v=0
379878 On ch=2 n=g6 v=100
379890 On ch=2 n=a#6 v=0
379998 On ch=2 n=d6 v=97
380010 On ch=2 n=g6 v=0
380118 On ch=2 n=f#6 v=94
380118 On ch=2 n=c#6 v=94
380118 On ch=2 n=f#5 v=94
380130 On ch=2 n=d6 v=0
380166 On ch=2 n=a#5 v=0
380358 On ch=2 n=d5 v=88
380422 On ch=2 n=f#5 v=0
380446 On ch=2 n=c#6 v=0
380462 On ch=2 n=f#6 v=0
380478 On ch=2 n=d#5 v=91
380490 On ch=2 n=d5 v=0
380598 On ch=2 n=f#5 v=93
380610 On ch=2 n=d#5 v=0
380718 On ch=2 n=c#6 v=96
380730 On ch=2 n=f#5 v=0
380838 On ch=2 n=d6 v=98
380850 On ch=2 n=c#6 v=0
380958 On ch=2 n=d#6 v=101
380970 On ch=2 n=d6 v=0
381078 On ch=2 n=f6 v=103
381078 On ch=2 n=c7 v=103
381090 On ch=2 n=d#6 v=0
381198 On ch=2 n=f#6 v=105
381210 On ch=2 n=f6 v=0
381318 On ch=2 n=d6 v=108
381330 On ch=2 n=f#6 v=0
381438 On ch=2 n=d#6 v=110
381450 On ch=2 n=d6 v=0
381534 On ch=2 n=c7 v=0
381558 On ch=2 n=c6 v=113
381566 On ch=2 n=f#6 v=113
381566 On ch=2 n=c7 v=113
381570 On ch=2 n=d#6 v=0
382014 On ch=2 n=c6 v=0
382022 On ch=2 n=c7 v=0
382038 On ch=2 n=c7 v=100
382038 On ch=2 n=c6 v=100
382038 On ch=2 n=f6 v=100
382038 On ch=2 n=d6 v=100
382070 On ch=2 n=f#6 v=0
382510 On ch=2 n=d6 v=0
382518 On ch=2 n=b6 v=100
382518 On ch=2 n=g6 v=100
382518 On ch=2 n=d6 v=100
382518 On ch=2 n=b5 v=100
382550 On ch=2 n=f6 v=0
382550 On ch=2 n=c6 v=0
382558 On ch=2 n=c7 v=0
382758 On ch=2 n=g4 v=103
382758 On ch=2 n=d4 v=103
382758 On ch=2 n=b4 v=103
382782 On ch=2 n=b5 v=0
382782 On ch=2 n=d6 v=0
382782 On ch=2 n=g6 v=0
382798 On ch=2 n=b6 v=0
382990 On ch=2 n=g4 v=0
382998 On ch=2 n=c4 v=106
382998 On ch=2 n=c5 v=106
383006 On ch=2 n=d4 v=0
383006 On ch=2 n=g4 v=106
383030 On ch=2 n=b4 v=0
383222 On ch=2 n=g4 v=0
383238 On ch=2 n=d4 v=109
383238 On ch=2 n=d5 v=109
383238 On ch=2 n=g4 v=109
383262 On ch=2 n=c5 v=0
383270 On ch=2 n=c4 v=0
383470 On ch=2 n=g4 v=0
383478 On ch=2 n=g4 v=113
383478 On ch=2 n=c5 v=113
383478 On ch=2 n=d#4 v=113
383478 On ch=2 n=d#5 v=113
383494 On ch=2 n=d5 v=0
383518 On ch=2 n=d4 v=0
383694 On ch=2 n=c5 v=0
383718 On ch=2 n=f4 v=117
383718 On ch=2 n=f5 v=117
383718 On ch=2 n=c5 v=117
383734 On ch=2 n=d#5 v=0
383734 On ch=2 n=g4 v=0
383742 On ch=2 n=d#4 v=0
383934 On ch=2 n=c5 v=0
383958 On ch=2 n=g5 v=120
383958 On ch=2 n=c5 v=120
383958 On ch=2 n=g4 v=120
383982 On ch=2 n=f5 v=0
383982 On ch=2 n=f4 v=0
384414 On ch=2 n=g4 v=0
384422 On ch=2 n=c5 v=0
384438 On ch=2 n=a4 v=113
384438 On ch=2 n=a5 v=113
384438 On ch=2 n=c5 v=113
384438 On ch=2 n=f#5 v=113
384462 On ch=2 n=g5 v=0
384798 On ch=2 n=g5 v=102
384798 On ch=2 n=a#5 v=102
384798 On ch=2 n=a#4 v=102
384806 On ch=2 n=a5 v=0
384814 On ch=2 n=c5 v=0
384814 On ch=2 n=a4 v=0
384822 On ch=2 n=f#5 v=0
384918 On ch=2 n=d5 v=110
384918 On ch=2 n=a4 v=110
384918 On ch=2 n=a4 v=110
384918 On ch=2 n=d5 v=110
384930 On ch=2 n=a#4 v=0
384930 On ch=2 n=a#5 v=0
384930 On ch=2 n=g5 v=0
385382 On ch=2 n=a4 v=0
385382 On ch=2 n=a4 v=0
385398 On ch=2 n=a4 v=108
385398 On ch=2 n=e5 v=108
385406 On ch=2 n=d5 v=0
385406 On ch=2 n=d5 v=0
385870 On ch=2 n=a4 v=0
385878 On ch=2 n=d5 v=119
385878 On ch=2 n=a4 v=119
385878 On ch=2 n=f4 v=119
385878 On ch=2 n=f5 v=119
385902 On ch=2 n=e5 v=0
386582 On ch=2 n=f5 v=0
386582 On ch=2 n=f4 v=0
386590 On ch=2 n=a4 v=0
386590 On ch=2 n=d5 v=0
386598 On ch=2 n=g#4 v=103
386598 On ch=2 n=d5 v=103
386606 On ch=2 n=f5 v=103
386830 On ch=2 n=d5 v=0
386838 On ch=2 n=f#5 v=106
386838 On ch=2 n=c#5 v=106
386862 On ch=2 n=f5 v=0
386886 On ch=2 n=g#4 v=0
386958 On ch=2 n=f#4 v=108
387062 On ch=2 n=c#5 v=0
387078 On ch=2 n=g#5 v=109
387078 On ch=2 n=d5 v=109
387090 On ch=2 n=f#4 v=0
387110 On ch=2 n=f#5 v=0
387198 On ch=2 n=b4 v=111
387318 On ch=2 n=d5 v=0
387318 On ch=2 n=g#5 v=0
387318 On ch=2 n=a5 v=113
387318 On ch=2 n=a4 v=113
387330 On ch=2 n=b4 v=0
387438 On ch=2 n=c#5 v=114
387558 On ch=2 n=a#5 v=116
387566 On ch=2 n=a4 v=0
387566 On ch=2 n=g5 v=116
387570 On ch=2 n=c#5 v=0
387574 On ch=2 n=a5 v=0
387678 On ch=2 n=a#4 v=118
387798 On ch=2 n=b5 v=119
387798 On ch=2 n=f#5 v=119
387814 On ch=2 n=a#4 v=0
387814 On ch=2 n=g5 v=0
387822 On ch=2 n=a#5 v=0
387918 On ch=2 n=b4 v=121
387930 On ch=2 n=f#5 v=0
388038 On ch=2 n=f5 v=119
388050 On ch=2 n=b4 v=0
388158 On ch=2 n=f#5 v=120
388170 On ch=2 n=f5 v=0
388278 On ch=2 n=a5 v=120
388278 On ch=2 n=c6 v=120
388290 On ch=2 n=f#5 v=0
388318 On ch=2 n=b5 v=0
388398 On ch=2 n=d#5 v=121
388518 On ch=2 n=g#5 v=121
388530 On ch=2 n=d#5 v=0
388646 On ch=2 n=c#6 v=121
388646 On ch=2 n=c#5 v=121
388650 On ch=2 n=g#5 v=0
388662 On ch=2 n=a5 v=0
388686 On ch=2 n=c6 v=0
388758 On ch=2 n=b4 v=122
388778 On ch=2 n=c#5 v=0
388778 On ch=2 n=c#6 v=0
388878 On ch=2 n=g4 v=122
388998 On ch=2 n=g#4 v=123
389010 On ch=2 n=g4 v=0
389118 On ch=2 n=d#4 v=123
389130 On ch=2 n=g#4 v=0
389238 On ch=2 n=d#5 v=123
389246 On ch=2 n=a#4 v=123
389250 On ch=2 n=d#4 v=0
389286 On ch=2 n=b4 v=0
389358 On ch=2 n=f#4 v=123
389478 On ch=2 n=g4 v=123
389490 On ch=2 n=f#4 v=0
389598 On ch=2 n=d#4 v=123
389610 On ch=2 n=g4 v=0
389710 On ch=2 n=d#5 v=0
389718 On ch=2 n=g#4 v=124
389718 On ch=2 n=d#5 v=124
389718 On ch=2 n=g#5 v=124
389730 On ch=2 n=d#4 v=0
389774 On ch=2 n=a#4 v=0
390230 On ch=2 n=g#5 v=0
390246 On ch=2 n=d#5 v=0
390254 On ch=2 n=g#4 v=0
390438 On ch=2 n=c5 v=100
390438 On ch=2 n=f#5 v=100
390438 On ch=2 n=a5 v=100
390678 On ch=2 n=f5 v=108
390678 On ch=2 n=a#5 v=108
390710 On ch=2 n=a5 v=0
390710 On ch=2 n=f#5 v=0
390726 On ch=2 n=c5 v=0
390902 On ch=2 n=f5 v=0
390918 On ch=2 n=c6 v=110
390918 On ch=2 n=c5 v=110
390918 On ch=2 n=f5 v=110
390974 On ch=2 n=a#5 v=0
391142 On ch=2 n=f5 v=0
391158 On ch=2 n=c#6 v=113
391158 On ch=2 n=f5 v=113
391158 On ch=2 n=c#5 v=113
391158 On ch=2 n=a#5 v=113
391182 On ch=2 n=c6 v=0
391206 On ch=2 n=c5 v=0
391390 On ch=2 n=f5 v=0
391398 On ch=2 n=f5 v=116
391398 On ch=2 n=d6 v=116
391398 On ch=2 n=b5 v=116
391398 On ch=2 n=d5 v=116
391422 On ch=2 n=c#5 v=0
391438 On ch=2 n=a#5 v=0
391438 On ch=2 n=c#6 v=0
391638 On ch=2 n=d#6 v=118
391638 On ch=2 n=d#5 v=118
391638 On ch=2 n=a#5 v=118
391662 On ch=2 n=f5 v=0
391670 On ch=2 n=b5 v=0
391670 On ch=2 n=d6 v=0
391678 On ch=2 n=d5 v=0
392118 On ch=2 n=c6 v=124
392118 On ch=2 n=e6 v=124
392118 On ch=2 n=g5 v=124
392118 On ch=2 n=e5 v=124
392150 On ch=2 n=a#5 v=0
392158 On ch=2 n=d#5 v=0
392174 On ch=2 n=d#6 v=0
392470 On ch=2 n=c6 v=0
392478 On ch=2 n=f5 v=103
392478 On ch=2 n=c6 v=103
392478 On ch=2 n=f6 v=103
392494 On ch=2 n=e6 v=0
392518 On ch=2 n=g5 v=0
392534 On ch=2 n=e5 v=0
392598 On ch=2 n=a#5 v=98
392598 On ch=2 n=d#5 v=98
392598 On ch=2 n=c5 v=98
392610 On ch=2 n=c6 v=0
392610 On ch=2 n=f5 v=0
392678 On ch=2 n=f6 v=0
393078 On ch=2 n=g5 v=91
393078 On ch=2 n=b5 v=91
393078 On ch=2 n=d5 v=91
393078 On ch=2 n=b4 v=91
393118 On ch=2 n=c5 v=0
393126 On ch=2 n=d#5 v=0
393134 On ch=2 n=a#5 v=0
393542 On ch=2 n=g5 v=0
393558 On ch=2 n=c5 v=93
393558 On ch=2 n=c6 v=93
393558 On ch=2 n=g5 v=93
393590 On ch=2 n=d5 v=0
393590 On ch=2 n=b5 v=0
393598 On ch=2 n=b4 v=0
394030 On ch=2 n=c5 v=0
394038 On ch=2 n=a4 v=85
394038 On ch=2 n=c5 v=85
394038 On ch=2 n=f5 v=85
394078 On ch=2 n=g5 v=0
394078 On ch=2 n=c6 v=0
394390 On ch=2 n=f5 v=0
394398 On ch=2 n=a#5 v=93
394398 On ch=2 n=f5 v=93
394398 On ch=2 n=f5 v=93
394398 On ch=2 n=a#5 v=93
394406 On ch=2 n=a#4 v=93
394438 On ch=2 n=c5 v=0
394446 On ch=2 n=a4 v=0
394518 On ch=2 n=d#4 v=96
394526 On ch=2 n=g#4 v=96
394530 On ch=2 n=a#5 v=0
394530 On ch=2 n=f5 v=0
394530 On ch=2 n=f5 v=0
394530 On ch=2 n=a#5 v=0
394538 On ch=2 n=a#4 v=0
394998 On ch=2 n=a#4 v=103
394998 On ch=2 n=g4 v=103
395006 On ch=2 n=c#4 v=103
395014 On ch=2 n=g#4 v=0
395014 On ch=2 n=d#4 v=0
395430 On ch=2 n=c#4 v=0
395462 On ch=2 n=g4 v=0
395470 On ch=2 n=a#4 v=0
395478 On ch=2 n=c5 v=110
395478 On ch=2 n=f#4 v=110
395478 On ch=2 n=d#4 v=110
395478 On ch=2 n=c5 v=110
395686 On ch=2 n=f#4 v=0
395694 On ch=2 n=c5 v=0
395694 On ch=2 n=d#4 v=0
395694 On ch=2 n=c5 v=0
398838 On ch=2 n=f#6 v=79
399318 On ch=2 n=f6 v=87
399350 On ch=2 n=f#6 v=0
399558 On ch=2 n=c#6 v=83
399574 On ch=2 n=f6 v=0
399798 On ch=2 n=a#5 v=79
399822 On ch=2 n=c#6 v=0
400158 On ch=2 n=c6 v=77
400198 On ch=2 n=a#5 v=0
400278 On ch=2 n=c#6 v=79
400310 On ch=2 n=c6 v=0
400758 On ch=2 n=d#6 v=84
400774 On ch=2 n=c#6 v=0
401238 On ch=2 n=f6 v=84
401270 On ch=2 n=d#6 v=0
401718 On ch=2 n=a#6 v=84
401734 On ch=2 n=f6 v=0
402062 On ch=2 n=g#6 v=78
402118 On ch=2 n=a#6 v=0
402198 On ch=2 n=a#6 v=84
402206 On ch=2 n=g#6 v=0
402350 On ch=2 n=g#6 v=84
402366 On ch=2 n=a#6 v=0
402582 On ch=2 n=g#6 v=0
402582 On ch=2 n=f#6 v=83
402670 On ch=2 n=f#6 v=0
402678 On ch=2 n=f#6 v=81
402838 On ch=2 n=f6 v=77
402854 On ch=2 n=f#6 v=0
403022 On ch=2 n=f6 v=0
403070 On ch=2 n=d#6 v=74
403142 On ch=2 n=d#6 v=0
403158 On ch=2 n=f6 v=81
403390 On ch=2 n=c#6 v=72
403430 On ch=2 n=f6 v=0
403638 On ch=2 n=c#6 v=0
403638 On ch=2 n=a#5 v=74
403878 On ch=2 n=a#5 v=0
403878 On ch=2 n=c6 v=75
404118 On ch=2 n=c#6 v=77
404142 On ch=2 n=c6 v=0
404358 On ch=2 n=d6 v=79
404366 On ch=2 n=c#6 v=0
404606 On ch=2 n=d6 v=0
404718 On ch=2 n=d#6 v=81
404958 On ch=2 n=e6 v=82
405006 On ch=2 n=d#6 v=0
405070 On ch=2 n=e6 v=0
405078 On ch=2 n=e6 v=78
405318 On ch=2 n=f6 v=67
405350 On ch=2 n=e6 v=0
405598 On ch=2 n=f6 v=0
406998 On ch=2 n=g#4 v=66
407150 On ch=2 n=g#4 v=0
407166 On ch=2 n=f#4 v=67
407334 On ch=2 n=f#4 v=0
407406 On ch=2 n=f4 v=64
407470 On ch=2 n=f4 v=0
407478 On ch=2 n=f4 v=57
407590 On ch=2 n=f4 v=0
407638 On ch=2 n=d#4 v=59
407822 On ch=2 n=d#4 v=0
407878 On ch=2 n=c#4 v=58
407950 On ch=2 n=c#4 v=0
407958 On ch=2 n=c#4 v=53
408870 On ch=2 n=c#4 v=0
408918 On ch=2 n=f4 v=79
409078 On ch=2 n=d#4 v=74
409110 On ch=2 n=f4 v=0
409294 On ch=2 n=d#4 v=0
409318 On ch=2 n=c#4 v=66
409382 On ch=2 n=c#4 v=0
409398 On ch=2 n=c#4 v=63
409542 On ch=2 n=c#4 v=0
409558 On ch=2 n=c4 v=58
409782 On ch=2 n=c4 v=0
409798 On ch=2 n=b3 v=57
409870 On ch=2 n=b3 v=0
409878 On ch=2 n=b3 v=51
409878 Par ch=2 c=64 v=127
410337 Par ch=2 c=64 v=0
410358 Par ch=2 c=64 v=127
410358 On ch=2 n=b2 v=100
410398 On ch=2 n=b3 v=0
410838 On ch=2 n=a#2 v=109
410838 On ch=2 n=g#6 v=106
410934 On ch=2 n=b2 v=0
411078 On ch=2 n=f6 v=70
411086 On ch=2 n=a#2 v=0
411102 On ch=2 n=g#6 v=0
411318 On ch=2 n=c6 v=73
411326 On ch=2 n=f6 v=0
411678 On ch=2 n=d6 v=77
411710 On ch=2 n=c6 v=0
411798 On ch=2 n=d#6 v=79
411810 On ch=2 n=d6 v=0
412278 On ch=2 n=f6 v=84
412310 On ch=2 n=d#6 v=0
412758 On ch=2 n=g6 v=89
412782 On ch=2 n=f6 v=0
413238 On ch=2 n=c7 v=92
413286 On ch=2 n=g6 v=0
413958 On ch=2 n=a#6 v=78
414014 On ch=2 n=c7 v=0
414206 On ch=2 n=c7 v=84
414222 On ch=2 n=a#6 v=0
415390 On ch=2 n=c7 v=0
415398 On ch=2 n=a#6 v=85
415638 On ch=2 n=c7 v=88
415678 On ch=2 n=a#6 v=0
415878 On ch=2 n=a#6 v=86
415894 On ch=2 n=c7 v=0
416038 On ch=2 n=g#6 v=84
416062 On ch=2 n=a#6 v=0
416110 On ch=2 n=g#6 v=0
416118 On ch=2 n=g#6 v=83
416278 On ch=2 n=g6 v=81
416294 On ch=2 n=g#6 v=0
416518 On ch=2 n=f#6 v=78
416534 On ch=2 n=g6 v=0
416574 On ch=2 n=f#6 v=0
416598 On ch=2 n=g6 v=84
416838 On ch=2 n=c7 v=84
416854 On ch=2 n=g6 v=0
417318 On ch=2 n=a#6 v=82
417334 On ch=2 n=c7 v=0
417558 On ch=2 n=c7 v=86
417590 On ch=2 n=a#6 v=0
417718 On ch=2 n=a#6 v=88
417734 On ch=2 n=c7 v=0
417958 On ch=2 n=g#6 v=88
417982 On ch=2 n=a#6 v=0
418030 On ch=2 n=g#6 v=0
418038 On ch=2 n=g#6 v=83
418558 On ch=2 n=g#6 v=0
420438 On ch=2 n=f6 v=89
420558 On ch=2 n=a#5 v=78
420570 On ch=2 n=f6 v=0
420678 On ch=2 n=g#5 v=72
420690 On ch=2 n=a#5 v=0
420798 On ch=2 n=g6 v=65
420810 On ch=2 n=g#5 v=0
420918 On ch=2 n=f6 v=81
420930 On ch=2 n=g6 v=0
421038 On ch=2 n=a#5 v=74
421050 On ch=2 n=f6 v=0
421158 On ch=2 n=g#5 v=69
421170 On ch=2 n=a#5 v=0
421278 On ch=2 n=d5 v=62
421290 On ch=2 n=g#5 v=0
421398 On ch=2 n=d6 v=75
421410 On ch=2 n=d5 v=0
421526 On ch=2 n=g#5 v=69
421530 On ch=2 n=d6 v=0
421638 On ch=2 n=d5 v=64
421658 On ch=2 n=g#5 v=0
421758 On ch=2 n=d#6 v=59
421770 On ch=2 n=d5 v=0
421878 On ch=2 n=d6 v=83
421890 On ch=2 n=d#6 v=0
421998 On ch=2 n=g#5 v=77
422010 On ch=2 n=d6 v=0
422118 On ch=2 n=d5 v=74
422130 On ch=2 n=g#5 v=0
422238 On ch=2 n=a#4 v=101
422250 On ch=2 n=d5 v=0
422358 On ch=2 n=g#4 v=103
422370 On ch=2 n=a#4 v=0
422518 On ch=2 n=g4 v=104
422526 On ch=2 n=g#4 v=0
422758 On ch=2 n=f4 v=111
422774 On ch=2 n=g4 v=0
422838 On ch=2 n=f4 v=0
422846 On ch=2 n=f4 v=113
422998 On ch=2 n=d#4 v=112
423006 On ch=2 n=f4 v=0
423238 On ch=2 n=d4 v=108
423262 On ch=2 n=d#4 v=0
423310 On ch=2 n=d4 v=0
423318 On ch=2 n=d4 v=108
424250 Par ch=2 c=64 v=0
424262 On ch=2 n=d4 v=0
424278 Par ch=2 c=64 v=127
424278 Par ch=2 c=64 v=0
424278 On ch=2 n=d4 v=105
424438 On ch=2 n=c#4 v=120
424462 On ch=2 n=d4 v=0
424678 On ch=2 n=b3 v=122
424710 On ch=2 n=c#4 v=0
424750 On ch=2 n=b3 v=0
424758 On ch=2 n=b3 v=123
424918 On ch=2 n=a#3 v=124
424942 On ch=2 n=b3 v=0
425158 On ch=2 n=a#3 v=0
425158 On ch=2 n=g#3 v=127
425230 On ch=2 n=g#3 v=0
425238 On ch=2 n=g#3 v=127
425478 On ch=2 n=f3 v=127
425494 On ch=2 n=g#3 v=0
425718 On ch=2 n=d3 v=120
425726 On ch=2 n=f3 v=0
425958 On ch=2 n=g#2 v=113
425974 On ch=2 n=d3 v=0
426198 On ch=2 n=g2 v=106
426198 On ch=2 n=f6 v=106
426206 On ch=2 n=g#2 v=0
426238 Par ch=2 c=64 v=127
426438 On ch=2 n=d6 v=93
426462 On ch=2 n=g2 v=0
426678 On ch=2 n=a5 v=80
426710 On ch=2 n=d6 v=0
426918 On ch=2 n=b5 v=81
426942 On ch=2 n=a5 v=0
427166 Par ch=2 c=64 v=0
427166 On ch=2 n=e6 v=91
427206 On ch=2 n=f6 v=0
427398 On ch=2 n=c6 v=84
427414 On ch=2 n=b5 v=0
427430 On ch=2 n=e6 v=0
427638 On ch=2 n=a#5 v=79
427646 On ch=2 n=c6 v=0
427878 On ch=2 n=g#6 v=98
427878 On ch=2 n=b5 v=98
427902 On ch=2 n=a#5 v=0
428110 On ch=2 n=b5 v=0
428118 On ch=2 n=g6 v=88
428118 On ch=2 n=c6 v=88
428150 On ch=2 n=g#6 v=0
428358 On ch=2 n=d#6 v=79
428382 On ch=2 n=g6 v=0
428414 On ch=2 n=c6 v=0
428598 On ch=2 n=a#5 v=69
428622 On ch=2 n=d#6 v=0
428838 On ch=2 n=f#6 v=80
428838 On ch=2 n=c6 v=80
428846 On ch=2 n=a#5 v=0
429078 On ch=2 n=f6 v=89
429078 On ch=2 n=c#6 v=89
429110 On ch=2 n=c6 v=0
429118 On ch=2 n=f#6 v=0
429318 On ch=2 n=a#5 v=85
429334 On ch=2 n=f6 v=0
429342 On ch=2 n=c#6 v=0
429558 On ch=2 n=g#5 v=80
429598 On ch=2 n=a#5 v=0
429798 On ch=2 n=c6 v=85
429798 On ch=2 n=a5 v=85
429838 On ch=2 n=g#5 v=0
430038 On ch=2 n=g#5 v=93
430038 On ch=2 n=c#6 v=93
430038 On ch=2 n=g#5 v=93
430038 On ch=2 n=c#6 v=93
430062 On ch=2 n=c6 v=0
430070 On ch=2 n=a5 v=0
430278 On ch=2 n=e6 v=86
430310 On ch=2 n=c#6 v=0
430310 On ch=2 n=c#6 v=0
430318 On ch=2 n=g#5 v=0
430318 On ch=2 n=g#5 v=0
430518 On ch=2 n=b5 v=74
430758 On ch=2 n=f#5 v=84
430758 On ch=2 n=c#6 v=84
430798 On ch=2 n=b5 v=0
430990 On ch=2 n=f#5 v=0
430998 On ch=2 n=b5 v=94
430998 On ch=2 n=f#5 v=94
431006 On ch=2 n=d#6 v=94
431014 On ch=2 n=e6 v=0
431038 On ch=2 n=c#6 v=0
431238 On ch=2 n=g5 v=91
431238 On ch=2 n=c#6 v=91
431254 On ch=2 n=d#6 v=0
431254 On ch=2 n=f#5 v=0
431294 On ch=2 n=b5 v=0
431478 On ch=2 n=f#5 v=83
431486 On ch=2 n=b5 v=83
431486 On ch=2 n=b5 v=83
431510 On ch=2 n=c#6 v=0
431510 On ch=2 n=g5 v=0
431718 On ch=2 n=c#6 v=88
431718 On ch=2 n=e6 v=88
431718 On ch=2 n=g5 v=88
431742 On ch=2 n=b5 v=0
431742 On ch=2 n=b5 v=0
431750 On ch=2 n=f#5 v=0
431942 On ch=2 n=e6 v=0
431950 On ch=2 n=g5 v=0
431950 On ch=2 n=c#6 v=0
431958 Par ch=2 c=64 v=127
431958 On ch=2 n=c#6 v=88
431958 On ch=2 n=e6 v=88
431958 On ch=2 n=g5 v=88
432118 On ch=2 n=f#5 v=94
432118 On ch=2 n=b5 v=94
432118 On ch=2 n=d#6 v=94
432134 On ch=2 n=c#6 v=0
432142 On ch=2 n=e6 v=0
432150 On ch=2 n=g5 v=0
432254 On ch=2 n=d#6 v=0
432254 On ch=2 n=b5 v=0
432254 On ch=2 n=f#5 v=0
432278 On ch=2 n=d#6 v=101
432278 On ch=2 n=b5 v=101
432278 On ch=2 n=f#5 v=101
432420 On ch=2 n=f#5 v=0
432420 On ch=2 n=b5 v=0
432420 On ch=2 n=d#6 v=0
432423 Par ch=2 c=64 v=0
432438 Par ch=2 c=64 v=127
432438 On ch=2 n=d#6 v=88
432438 On ch=2 n=b5 v=88
432438 On ch=2 n=f#5 v=88
432598 On ch=2 n=g5 v=99
432598 On ch=2 n=a#5 v=99
432598 On ch=2 n=c#6 v=99
432614 On ch=2 n=f#5 v=0
432614 On ch=2 n=b5 v=0
432614 On ch=2 n=d#6 v=0
432743 On ch=2 n=c#6 v=0
432743 On ch=2 n=a#5 v=0
432743 On ch=2 n=g5 v=0
432758 On ch=2 n=c#6 v=112
432758 On ch=2 n=a#5 v=112
432758 On ch=2 n=g5 v=112
432901 Par ch=2 c=64 v=0
432903 On ch=2 n=g5 v=0
432903 On ch=2 n=a#5 v=0
432903 On ch=2 n=c#6 v=0
432918 Par ch=2 c=64 v=127
432918 On ch=2 n=g5 v=109
432918 On ch=2 n=a#5 v=109
432918 On ch=2 n=c#6 v=109
433078 On ch=2 n=f#5 v=118
433078 On ch=2 n=b5 v=118
433094 On ch=2 n=c#6 v=0
433094 On ch=2 n=a#5 v=0
433094 On ch=2 n=g5 v=0
433228 On ch=2 n=b5 v=0
433228 On ch=2 n=f#5 v=0
433238 Par ch=2 c=64 v=0
433238 On ch=2 n=b5 v=124
433238 On ch=2 n=f#5 v=124
433246 On ch=2 n=g#6 v=124
433388 On ch=2 n=f#5 v=0
433388 On ch=2 n=b5 v=0
433398 On ch=2 n=f#5 v=127
433398 On ch=2 n=b5 v=127
433406 On ch=2 n=f#6 v=127
433430 On ch=2 n=g#6 v=0
433548 On ch=2 n=b5 v=0
433548 On ch=2 n=f#5 v=0
433550 On ch=2 n=f#6 v=0
433558 On ch=2 n=f#6 v=127
433558 On ch=2 n=b5 v=127
433558 On ch=2 n=f#5 v=127
433708 On ch=2 n=f#5 v=0
433708 On ch=2 n=b5 v=0
433798 On ch=2 n=e6 v=127
433798 On ch=2 n=c#6 v=127
433798 On ch=2 n=f#5 v=127
433822 On ch=2 n=f#6 v=0
433870 On ch=2 n=f#5 v=0
433878 On ch=2 n=d#6 v=127
433878 On ch=2 n=b5 v=127
433878 On ch=2 n=f#5 v=127
433948 On ch=2 n=c#6 v=0
433948 On ch=2 n=e6 v=0
434126 On ch=2 n=f#5 v=0
434126 On ch=2 n=b5 v=0
434134 On ch=2 n=d#6 v=0
434358 On ch=2 n=g#5 v=86
434358 On ch=2 n=d#5 v=86
434358 On ch=2 n=d#6 v=86
434830 On ch=2 n=g#5 v=0
434838 On ch=2 n=e5 v=103
434838 On ch=2 n=g#5 v=103
434838 On ch=2 n=c#6 v=103
434870 On ch=2 n=d#6 v=0
434878 On ch=2 n=d#5 v=0
435166 On ch=2 n=c#6 v=0
435198 On ch=2 n=c#6 v=118
435310 On ch=2 n=c#6 v=0
435318 On ch=2 n=c#5 v=114
435318 On ch=2 n=b5 v=114
435326 On ch=2 n=g#5 v=0
435326 On ch=2 n=g5 v=114
435350 On ch=2 n=e5 v=0
435678 On ch=2 n=a#5 v=100
435718 On ch=2 n=b5 v=0
435782 On ch=2 n=g5 v=0
435782 On ch=2 n=c#5 v=0
435790 On ch=2 n=a#5 v=0
435798 On ch=2 n=b5 v=84
435798 On ch=2 n=b4 v=84
435798 On ch=2 n=g#5 v=84
435958 On ch=2 n=f#5 v=93
435990 On ch=2 n=g#5 v=0
436126 On ch=2 n=e5 v=100
436134 On ch=2 n=f#5 v=0
436254 On ch=2 n=b4 v=0
436270 On ch=2 n=e5 v=0
436270 On ch=2 n=b5 v=0
436278 On ch=2 n=e5 v=107
436278 On ch=2 n=b4 v=107
436278 On ch=2 n=b5 v=107
436742 On ch=2 n=b5 v=0
436758 On ch=2 n=b4 v=0
436758 On ch=2 n=a5 v=127
436758 On ch=2 n=c5 v=127
436758 On ch=2 n=f5 v=127
436766 On ch=2 n=e5 v=0
437118 On ch=2 n=a5 v=0
437134 On ch=2 n=a5 v=126
437206 On ch=2 n=c5 v=0
437238 On ch=2 n=a4 v=127
437238 On ch=2 n=b4 v=127
437238 On ch=2 n=d#5 v=127
437238 On ch=2 n=g5 v=127
437254 On ch=2 n=f5 v=0
437284 On ch=2 n=a5 v=0
437558 On ch=2 n=f#5 v=127
437566 On ch=2 n=g5 v=0
437708 On ch=2 n=f#5 v=0
437710 On ch=2 n=b4 v=0
437710 On ch=2 n=a4 v=0
437718 On ch=2 n=a#4 v=127
437718 On ch=2 n=g4 v=127
437718 On ch=2 n=e5 v=127
437726 On ch=2 n=d#5 v=0
438198 On ch=2 n=d#5 v=70
438238 On ch=2 n=a#4 v=0
438246 On ch=2 n=e5 v=0
438254 On ch=2 n=g4 v=0
438318 On ch=2 n=e5 v=74
438330 On ch=2 n=d#5 v=0
438438 On ch=2 n=g5 v=79
438450 On ch=2 n=e5 v=0
438558 On ch=2 n=a#5 v=84
438570 On ch=2 n=g5 v=0
438678 On ch=2 n=d#6 v=88
438690 On ch=2 n=a#5 v=0
438798 On ch=2 n=e6 v=92
438810 On ch=2 n=d#6 v=0
438918 On ch=2 n=e7 v=96
438930 On ch=2 n=e6 v=0
439038 On ch=2 n=d#7 v=100
439050 On ch=2 n=e7 v=0
439158 On ch=2 n=c#7 v=104
439170 On ch=2 n=d#7 v=0
439278 On ch=2 n=b6 v=108
439290 On ch=2 n=c#7 v=0
439398 On ch=2 n=d#8 v=113
439410 On ch=2 n=b6 v=0
439530 On ch=2 n=d#8 v=0
439574 On ch=2 n=c#8 v=119
439638 On ch=2 n=b7 v=122
439640 On ch=2 n=c#8 v=0
439766 On ch=2 n=a#7 v=126
439770 On ch=2 n=b7 v=0
439878 On ch=2 n=g#7 v=127
439898 On ch=2 n=a#7 v=0
439998 On ch=2 n=g7 v=127
440010 On ch=2 n=g#7 v=0
440110 On ch=2 n=g7 v=0
440118 On ch=2 n=g#7 v=127
440118 On ch=2 n=d#7 v=127
440118 On ch=2 n=b6 v=127
440238 On ch=2 n=f#7 v=126
440238 On ch=2 n=a#6 v=126
440246 On ch=2 n=c#7 v=126
440250 On ch=2 n=b6 v=0
440250 On ch=2 n=d#7 v=0
440250 On ch=2 n=g#7 v=0
440358 On ch=2 n=f7 v=126
440358 On ch=2 n=g#6 v=126
440358 On ch=2 n=b6 v=126
440370 On ch=2 n=a#6 v=0
440370 On ch=2 n=f#7 v=0
440378 On ch=2 n=c#7 v=0
440478 On ch=2 n=d#7 v=125
440478 On ch=2 n=a#6 v=125
440486 On ch=2 n=f#6 v=125
440490 On ch=2 n=b6 v=0
440490 On ch=2 n=g#6 v=0
440490 On ch=2 n=f7 v=0
440598 On ch=2 n=c#7 v=125
440598 On ch=2 n=f6 v=125
440598 On ch=2 n=g#6 v=125
440610 On ch=2 n=a#6 v=0
440610 On ch=2 n=d#7 v=0
440618 On ch=2 n=f#6 v=0
440718 On ch=2 n=b6 v=125
440718 On ch=2 n=d#6 v=125
440718 On ch=2 n=f#6 v=125
440730 On ch=2 n=g#6 v=0
440730 On ch=2 n=f6 v=0
440730 On ch=2 n=c#7 v=0
440838 On ch=2 n=a#6 v=124
440838 On ch=2 n=c#6 v=124
440846 On ch=2 n=f6 v=124
440850 On ch=2 n=f#6 v=0
440850 On ch=2 n=d#6 v=0
440850 On ch=2 n=b6 v=0
440958 On ch=2 n=g#6 v=124
440958 On ch=2 n=b5 v=124
440958 On ch=2 n=d#6 v=124
440970 On ch=2 n=c#6 v=0
440970 On ch=2 n=a#6 v=0
440978 On ch=2 n=f6 v=0
441078 On ch=2 n=f#6 v=124
441078 On ch=2 n=a#5 v=124
441086 On ch=2 n=c#6 v=124
441090 On ch=2 n=d#6 v=0
441090 On ch=2 n=b5 v=0
441090 On ch=2 n=g#6 v=0
441198 On ch=2 n=g#5 v=123
441198 On ch=2 n=b5 v=123
441206 On ch=2 n=f6 v=123
441210 On ch=2 n=a#5 v=0
441210 On ch=2 n=f#6 v=0
441218 On ch=2 n=c#6 v=0
441318 On ch=2 n=d#6 v=123
441318 On ch=2 n=f#5 v=123
441318 On ch=2 n=a#5 v=123
441330 On ch=2 n=b5 v=0
441330 On ch=2 n=g#5 v=0
441338 On ch=2 n=f6 v=0
441438 On ch=2 n=c#6 v=123
441438 On ch=2 n=f5 v=123
441438 On ch=2 n=g#5 v=123
441450 On ch=2 n=a#5 v=0
441450 On ch=2 n=f#5 v=0
441450 On ch=2 n=d#6 v=0
441558 Par ch=2 c=64 v=127
441558 On ch=2 n=b5 v=100
441558 On ch=2 n=f#5 v=100
441558 On ch=2 n=d#5 v=100
441570 On ch=2 n=g#5 v=0
441570 On ch=2 n=f5 v=0
441570 On ch=2 n=c#6 v=0
441690 On ch=2 n=d#5 v=0
441690 On ch=2 n=f#5 v=0
441690 On ch=2 n=b5 v=0
441734 On ch=2 n=a#5 v=100
441734 On ch=2 n=f5 v=100
441734 On ch=2 n=c#5 v=100
441798 On ch=2 n=g#5 v=100
441798 On ch=2 n=d#5 v=100
441798 On ch=2 n=b4 v=100
441800 On ch=2 n=c#5 v=0
441800 On ch=2 n=f5 v=0
441800 On ch=2 n=a#5 v=0
441918 On ch=2 n=f#5 v=100
441918 On ch=2 n=c#5 v=100
441918 Par ch=2 c=64 v=0
441918 On ch=2 n=a#4 v=100
441930 On ch=2 n=b4 v=0
441930 On ch=2 n=d#5 v=0
441930 On ch=2 n=g#5 v=0
442038 On ch=2 n=g#4 v=100
442038 On ch=2 n=b4 v=100
442038 On ch=2 n=f5 v=100
442050 On ch=2 n=a#4 v=0
442050 On ch=2 n=c#5 v=0
442050 On ch=2 n=f#5 v=0
442158 On ch=2 n=g#5 v=100
442170 On ch=2 n=f5 v=0
442262 On ch=2 n=b4 v=0
442278 On ch=2 n=d#5 v=100
442278 On ch=2 n=f#4 v=100
442278 On ch=2 n=b4 v=100
442290 On ch=2 n=g#5 v=0
442318 On ch=2 n=g#4 v=0
442398 On ch=2 n=g#5 v=100
442410 On ch=2 n=d#5 v=0
442510 On ch=2 n=b4 v=0
442518 On ch=2 n=c#5 v=100
442530 On ch=2 n=g#5 v=0
442542 On ch=2 n=f#4 v=0
442574 On ch=2 n=g#5 v=100
442638 On ch=2 n=a#5 v=100
442640 On ch=2 n=g#5 v=0
442694 On ch=2 n=g#5 v=100
442704 On ch=2 n=a#5 v=0
442758 On ch=2 n=g5 v=100
442760 On ch=2 n=g#5 v=0
442878 Par ch=2 c=64 v=127
442878 On ch=2 n=g#5 v=100
442890 On ch=2 n=g5 v=0
442998 On ch=2 n=d#6 v=100
443010 On ch=2 n=g#5 v=0
443022 On ch=2 n=c#5 v=0
443118 On ch=2 n=c#6 v=100
443130 On ch=2 n=d#6 v=0
443238 On ch=2 n=d#5 v=100
443250 On ch=2 n=c#6 v=0
443358 On ch=2 n=f5 v=100
443370 On ch=2 n=d#5 v=0
443378 Par ch=2 c=64 v=0
443478 On ch=2 n=f#5 v=100
443478 On ch=2 n=a#4 v=100
443490 On ch=2 n=f5 v=0
443670 On ch=2 n=a#4 v=0
443702 On ch=2 n=f#5 v=0
443718 On ch=2 n=f#5 v=100
444190 On ch=2 n=f#5 v=0
444198 On ch=2 n=g#5 v=100
444198 On ch=2 n=f#5 v=100
444446 On ch=2 n=a#5 v=100
444462 On ch=2 n=g#5 v=0
444662 On ch=2 n=f#5 v=0
444678 On ch=2 n=f#5 v=100
444726 On ch=2 n=a#5 v=0
445078 On ch=2 n=f#5 v=0
445158 On ch=2 n=g#5 v=100
445158 On ch=2 n=f5 v=100
445382 On ch=2 n=g#5 v=0
445390 On ch=2 n=f5 v=0
445638 On ch=2 n=a5 v=100
446118 On ch=2 n=b5 v=100
446398 On ch=2 n=b5 v=0
446398 On ch=2 n=a5 v=0
446598 On ch=2 n=c#6 v=100
447086 On ch=2 n=e6 v=100
447302 On ch=2 n=c#6 v=0
447310 On ch=2 n=e6 v=0
447318 On ch=2 n=d6 v=100
447318 On ch=2 n=f#5 v=100
447326 On ch=2 n=b5 v=100
447478 On ch=2 n=b5 v=0
447478 On ch=2 n=f#5 v=0
447478 On ch=2 n=d6 v=0
447558 On ch=2 n=g5 v=100
447558 On ch=2 n=g4 v=100
447678 On ch=2 n=d5 v=100
447678 On ch=2 n=f#5 v=100
447690 On ch=2 n=g4 v=0
447798 On ch=2 n=e5 v=100
447798 On ch=2 n=c#5 v=100
447810 On ch=2 n=f#5 v=0
447810 On ch=2 n=d5 v=0
447918 On ch=2 n=d5 v=100
447930 On ch=2 n=c#5 v=0
447930 On ch=2 n=e5 v=0
448038 On ch=2 n=c#5 v=100
448050 On ch=2 n=d5 v=0
448158 On ch=2 n=e5 v=100
448170 On ch=2 n=c#5 v=0
448278 On ch=2 n=f#4 v=100
448290 On ch=2 n=e5 v=0
448318 On ch=2 n=g5 v=0
448398 On ch=2 n=g4 v=100
448410 On ch=2 n=f#4 v=0
448518 On ch=2 n=f#5 v=100
448526 On ch=2 n=f#4 v=100
448530 On ch=2 n=g4 v=0
448638 On ch=2 n=c#5 v=100
448638 On ch=2 n=e5 v=100
448658 On ch=2 n=f#4 v=0
448758 On ch=2 n=d5 v=100
448758 On ch=2 n=b4 v=100
448770 On ch=2 n=e5 v=0
448770 On ch=2 n=c#5 v=0
448878 On ch=2 n=c#5 v=100
448890 On ch=2 n=b4 v=0
448890 On ch=2 n=d5 v=0
448998 On ch=2 n=g5 v=100
448998 On ch=2 n=b4 v=100
449010 On ch=2 n=c#5 v=0
449038 On ch=2 n=f#5 v=0
449118 On ch=2 n=f#5 v=100
449130 On ch=2 n=g5 v=0
449238 On ch=2 n=b4 v=0
449238 On ch=2 n=e4 v=100
449250 On ch=2 n=f#5 v=0
449358 On ch=2 n=f#4 v=100
449370 On ch=2 n=e4 v=0
449486 On ch=2 n=e5 v=100
449486 On ch=2 n=e4 v=100
449490 On ch=2 n=f#4 v=0
449598 On ch=2 n=d5 v=100
449598 On ch=2 n=b4 v=100
449618 On ch=2 n=e4 v=0
449718 On ch=2 n=a#4 v=100
449726 On ch=2 n=c#5 v=100
449730 On ch=2 n=b4 v=0
449730 On ch=2 n=d5 v=0
449838 On ch=2 n=b4 v=100
449850 On ch=2 n=a#4 v=0
449858 On ch=2 n=c#5 v=0
449958 On ch=2 n=a#4 v=100
449970 On ch=2 n=b4 v=0
450078 On ch=2 n=c#5 v=100
450090 On ch=2 n=a#4 v=0
450198 On ch=2 n=d4 v=100
450210 On ch=2 n=c#5 v=0
450230 On ch=2 n=e5 v=0
450318 On ch=2 n=e4 v=100
450330 On ch=2 n=d4 v=0
450438 On ch=2 n=d5 v=100
450438 On ch=2 n=d4 v=100
450450 On ch=2 n=e4 v=0
450558 On ch=2 n=c#5 v=100
450558 On ch=2 n=a#4 v=100
450570 On ch=2 n=d4 v=0
450678 On ch=2 n=g#4 v=100
450678 On ch=2 n=b4 v=100
450690 On ch=2 n=a#4 v=0
450690 On ch=2 n=c#5 v=0
450798 On ch=2 n=a4 v=100
450810 On ch=2 n=b4 v=0
450810 On ch=2 n=g#4 v=0
450918 On ch=2 n=e5 v=100
450918 On ch=2 n=g4 v=100
450918 On ch=2 n=f4 v=100
450930 On ch=2 n=a4 v=0
450942 On ch=2 n=d5 v=0
451038 On ch=2 n=d5 v=100
451038 On ch=2 n=b4 v=100
451050 On ch=2 n=f4 v=0
451050 On ch=2 n=g4 v=0
451050 On ch=2 n=e5 v=0
451158 On ch=2 n=a#4 v=100
451158 On ch=2 n=f#4 v=100
451170 On ch=2 n=b4 v=0
451278 On ch=2 n=c#5 v=100
451334 On ch=2 n=d5 v=0
451398 On ch=2 n=f#4 v=0
451398 On ch=2 n=g4 v=100
451410 On ch=2 n=c#5 v=0
451414 On ch=2 n=a#4 v=0
451518 On ch=2 n=b4 v=100
451638 On ch=2 n=d5 v=100
451650 On ch=2 n=b4 v=0
451726 On ch=2 n=g4 v=0
451758 On ch=2 n=c#5 v=100
451770 On ch=2 n=d5 v=0
451878 On ch=2 n=a#4 v=100
451890 On ch=2 n=c#5 v=0
451998 On ch=2 n=c#5 v=100
452010 On ch=2 n=a#4 v=0
452118 On ch=2 n=f#4 v=100
452130 On ch=2 n=c#5 v=0
452238 On ch=2 n=a#4 v=100
452250 On ch=2 n=f#4 v=0
452358 On ch=2 n=e4 v=100
452370 On ch=2 n=a#4 v=0
452478 On ch=2 n=b4 v=100
452598 On ch=2 n=d5 v=100
452610 On ch=2 n=b4 v=0
452718 On ch=2 n=c#5 v=100
452730 On ch=2 n=d5 v=0
452838 On ch=2 n=a#4 v=100
452850 On ch=2 n=c#5 v=0
452958 On ch=2 n=c#5 v=100
452970 On ch=2 n=a#4 v=0
453070 On ch=2 n=c#5 v=0
453078 On ch=2 n=e4 v=0
453078 On ch=2 n=f#4 v=100
453198 On ch=2 n=a#4 v=100
453210 On ch=2 n=f#4 v=0
453318 On ch=2 n=g4 v=100
453330 On ch=2 n=a#4 v=0
453438 On ch=2 n=b4 v=100
453450 On ch=2 n=g4 v=0
453558 On ch=2 n=d5 v=100
453570 On ch=2 n=b4 v=0
453678 On ch=2 n=c#5 v=100
453690 On ch=2 n=d5 v=0
453798 On ch=2 n=a#4 v=100
453810 On ch=2 n=c#5 v=0
453918 On ch=2 n=d5 v=100
453930 On ch=2 n=a#4 v=0
454038 On ch=2 n=f#5 v=100
454050 On ch=2 n=d5 v=0
454158 On ch=2 n=e5 v=100
454170 On ch=2 n=f#5 v=0
454278 On ch=2 n=c#5 v=100
454290 On ch=2 n=e5 v=0
454398 On ch=2 n=f#5 v=100
454410 On ch=2 n=c#5 v=0
454518 On ch=2 n=a5 v=100
454530 On ch=2 n=f#5 v=0
454638 On ch=2 n=g5 v=100
454650 On ch=2 n=a5 v=0
454758 On ch=2 n=e5 v=100
454770 On ch=2 n=g5 v=0
454878 On ch=2 n=b5 v=100
454890 On ch=2 n=e5 v=0
454998 On ch=2 n=d6 v=100
455010 On ch=2 n=b5 v=0
455118 On ch=2 n=c#6 v=95
455130 On ch=2 n=d6 v=0
455238 On ch=2 n=a#5 v=97
455250 On ch=2 n=c#6 v=0
455358 On ch=2 n=d6 v=99
455370 On ch=2 n=a#5 v=0
455478 On ch=2 n=f#6 v=101
455490 On ch=2 n=d6 v=0
455598 On ch=2 n=e6 v=103
455610 On ch=2 n=f#6 v=0
455718 On ch=2 n=c#6 v=105
455730 On ch=2 n=e6 v=0
455838 On ch=2 n=f#6 v=107
455850 On ch=2 n=c#6 v=0
455958 On ch=2 n=a6 v=108
455970 On ch=2 n=f#6 v=0
456078 On ch=2 n=g6 v=111
456090 On ch=2 n=a6 v=0
456206 On ch=2 n=e6 v=113
456210 On ch=2 n=g6 v=0
456318 On ch=2 n=b6 v=115
456338 On ch=2 n=e6 v=0
456438 On ch=2 n=d7 v=117
456450 On ch=2 n=b6 v=0
456558 On ch=2 n=c#7 v=118
456570 On ch=2 n=d7 v=0
456678 On ch=2 n=a#6 v=121
456690 On ch=2 n=c#7 v=0
456798 On ch=2 n=d7 v=123
456810 On ch=2 n=a#6 v=0
456918 On ch=2 n=f#7 v=124
456930 On ch=2 n=d7 v=0
457038 On ch=2 n=e7 v=127
457050 On ch=2 n=f#7 v=0
457158 On ch=2 n=c#7 v=125
457170 On ch=2 n=e7 v=0
457278 On ch=2 n=a7 v=123
457290 On ch=2 n=c#7 v=0
457398 Par ch=2 c=64 v=127
457398 On ch=2 n=g#7 v=122
457410 On ch=2 n=a7 v=0
457518 On ch=2 n=g7 v=119
457530 On ch=2 n=g#7 v=0
457638 On ch=2 n=f#7 v=118
457650 On ch=2 n=g7 v=0
457758 On ch=2 n=f7 v=116
457770 On ch=2 n=f#7 v=0
457878 On ch=2 n=e7 v=114
457890 On ch=2 n=f7 v=0
457998 On ch=2 n=d8 v=112
458010 On ch=2 n=e7 v=0
458118 On ch=2 n=c#8 v=110
458130 On ch=2 n=d8 v=0
458238 On ch=2 n=a#7 v=108
458250 On ch=2 n=c#8 v=0
458358 On ch=2 n=f#7 v=107
458370 On ch=2 n=a#7 v=0
458478 On ch=2 n=e7 v=104
458490 On ch=2 n=f#7 v=0
458598 On ch=2 n=c#7 v=103
458610 On ch=2 n=e7 v=0
458718 On ch=2 n=a#6 v=101
458730 On ch=2 n=c#7 v=0
458838 On ch=2 n=f#6 v=98
458850 On ch=2 n=a#6 v=0
458958 On ch=2 n=e6 v=97
458970 On ch=2 n=f#6 v=0
459078 On ch=2 n=d6 v=95
459090 On ch=2 n=e6 v=0
459198 On ch=2 n=c#6 v=93
459210 On ch=2 n=d6 v=0
459318 On ch=2 n=a#5 v=91
459330 On ch=2 n=c#6 v=0
459438 On ch=2 n=f#5 v=89
459450 On ch=2 n=a#5 v=0
459558 On ch=2 n=e5 v=88
459570 On ch=2 n=f#5 v=0
459678 On ch=2 n=c#5 v=86
459690 On ch=2 n=e5 v=0
459798 On ch=2 n=a#4 v=84
459810 On ch=2 n=c#5 v=0
459918 On ch=2 n=f#4 v=82
459930 On ch=2 n=a#4 v=0
460038 On ch=2 n=e4 v=80
460050 On ch=2 n=f#4 v=0
460166 On ch=2 n=c#4 v=78
460170 On ch=2 n=e4 v=0
460278 On ch=2 n=a#3 v=80
460278 Par ch=2 c=64 v=0
460298 On ch=2 n=c#4 v=0
460398 On ch=2 n=f3 v=83
460410 On ch=2 n=a#3 v=0
460518 On ch=2 n=g#3 v=85
460530 On ch=2 n=f3 v=0
460638 On ch=2 n=f#3 v=88
460650 On ch=2 n=g#3 v=0
460770 On ch=2 n=f#3 v=0
461238 On ch=2 n=d#6 v=97
462198 On ch=2 n=e6 v=92
462222 On ch=2 n=d#6 v=0
462558 On ch=2 n=d#6 v=89
462598 On ch=2 n=e6 v=0
462662 On ch=2 n=d#6 v=0
462678 On ch=2 n=c#6 v=88
463158 On ch=2 n=b5 v=86
463190 On ch=2 n=c#6 v=0
463662 On ch=2 n=b5 v=0
464118 On ch=2 n=d#5 v=100
464358 On ch=2 n=a#5 v=100
464398 On ch=2 n=d#5 v=0
464590 On ch=2 n=a#5 v=0
464598 On ch=2 n=g#5 v=100
464838 On ch=2 n=f#5 v=100
464870 On ch=2 n=g#5 v=0
465078 On ch=2 n=a#5 v=100
465110 On ch=2 n=f#5 v=0
465318 On ch=2 n=b5 v=100
465358 On ch=2 n=a#5 v=0
465558 On ch=2 n=d6 v=100
465590 On ch=2 n=b5 v=0
465798 On ch=2 n=d#6 v=100
465838 On ch=2 n=d6 v=0
466038 On ch=2 n=g#6 v=100
466054 On ch=2 n=d#6 v=0
466398 On ch=2 n=f#6 v=100
466414 On ch=2 n=g#6 v=0
466513 On ch=2 n=f#6 v=0
466518 On ch=2 n=f#6 v=100
466998 On ch=2 n=e6 v=100
467046 On ch=2 n=f#6 v=0
467526 On ch=2 n=e6 v=0
468446 On ch=2 n=e6 v=100
469638 On ch=2 n=c6 v=100
469710 On ch=2 n=e6 v=0
469886 On ch=2 n=d#6 v=100
469926 On ch=2 n=c6 v=0
470118 On ch=2 n=c#6 v=100
470166 On ch=2 n=d#6 v=0
470334 On ch=2 n=c#6 v=0
470358 On ch=2 n=c#6 v=100
470838 On ch=2 n=e5 v=100
470870 On ch=2 n=c#6 v=0
471390 On ch=2 n=e5 v=0
471798 On ch=2 n=g#5 v=100
472158 On ch=2 n=a#5 v=100
472190 On ch=2 n=g#5 v=0
472272 On ch=2 n=a#5 v=0
472278 On ch=2 n=g#5 v=100
472518 On ch=2 n=f#5 v=100
472558 On ch=2 n=g#5 v=0
472758 On ch=2 n=a#5 v=100
472782 On ch=2 n=f#5 v=0
472998 On ch=2 n=b5 v=100
473046 On ch=2 n=a#5 v=0
473238 On ch=2 n=c#6 v=100
473278 On ch=2 n=b5 v=0
473478 On ch=2 n=e6 v=100
473510 On ch=2 n=c#6 v=0
473718 On ch=2 n=a#6 v=100
473774 On ch=2 n=e6 v=0
474078 On ch=2 n=g#6 v=100
474094 On ch=2 n=a#6 v=0
474189 On ch=2 n=g#6 v=0
474198 On ch=2 n=f6 v=100
475158 On ch=2 n=f#6 v=100
475182 On ch=2 n=f6 v=0
475638 On ch=2 n=e6 v=100
475662 On ch=2 n=f#6 v=0
475998 On ch=2 n=d#6 v=100
476030 On ch=2 n=e6 v=0
476113 On ch=2 n=d#6 v=0
476118 On ch=2 n=d#6 v=100
476838 On ch=2 n=c#6 v=100
476878 On ch=2 n=d#6 v=0
477078 On ch=2 n=b5 v=100
477110 On ch=2 n=c#6 v=0
477558 On ch=2 n=c#6 v=100
477582 On ch=2 n=b5 v=0
477918 On ch=2 n=g#5 v=100
477958 On ch=2 n=c#6 v=0
478033 On ch=2 n=g#5 v=0
478038 On ch=2 n=b5 v=100
478302 On ch=2 n=a#5 v=100
478318 On ch=2 n=b5 v=0
478430 On ch=2 n=a#5 v=0
478446 On ch=2 n=a#5 v=100
478518 On ch=2 n=g#5 v=100
478550 On ch=2 n=a#5 v=0
478758 On ch=2 n=f#5 v=100
478798 On ch=2 n=g#5 v=0
478990 On ch=2 n=f#5 v=0
478998 On ch=2 n=f#5 v=100
479478 On ch=2 n=d#6 v=100
479502 On ch=2 n=f#5 v=0
479830 On ch=2 n=d#6 v=0
479838 On ch=2 n=d#6 v=100
479953 On ch=2 n=d#6 v=0
479958 On ch=2 n=d#6 v=96
480678 On ch=2 n=c#6 v=84
480718 On ch=2 n=d#6 v=0
481078 On ch=2 n=a#5 v=66
481118 On ch=2 n=c#6 v=0
481238 On ch=2 n=b5 v=80
481270 On ch=2 n=a#5 v=0
481398 On ch=2 n=c#6 v=90
481414 On ch=2 n=b5 v=0
481558 On ch=2 n=e6 v=95
481574 On ch=2 n=c#6 v=0
481718 On ch=2 n=d#6 v=95
481734 On ch=2 n=e6 v=0
481870 On ch=2 n=d#6 v=0
481894 On ch=2 n=f#5 v=110
482350 On ch=2 n=f#5 v=0
482358 On ch=2 n=a#5 v=94
482534 On ch=2 n=a#5 v=0
482534 On ch=2 n=g#5 v=99
482718 On ch=2 n=f#5 v=105
482726 On ch=2 n=g#5 v=0
482822 On ch=2 n=f#5 v=0
482838 On ch=2 n=f#5 v=108
483318 On ch=2 n=g#5 v=93
483334 On ch=2 n=f#5 v=0
483390 On ch=2 n=a#5 v=98
483450 On ch=2 n=g#5 v=0
483486 On ch=2 n=g#5 v=103
483522 On ch=2 n=a#5 v=0
483590 On ch=2 n=a#5 v=111
483618 On ch=2 n=g#5 v=0
483638 On ch=2 n=g#5 v=113
483656 On ch=2 n=a#5 v=0
483702 On ch=2 n=f#5 v=118
483704 On ch=2 n=g#5 v=0
483742 On ch=2 n=g#5 v=120
483768 On ch=2 n=f#5 v=0
483806 On ch=2 n=a#5 v=124
483808 On ch=2 n=g#5 v=0
484278 On ch=2 n=a5 v=97
484310 On ch=2 n=a#5 v=0
484518 On ch=2 n=a#5 v=100
484566 On ch=2 n=a5 v=0
484758 On ch=2 n=b5 v=104
484798 On ch=2 n=a#5 v=0
484998 On ch=2 n=d6 v=108
485030 On ch=2 n=b5 v=0
485238 On ch=2 n=d#6 v=111
485262 On ch=2 n=d6 v=0
485478 On ch=2 n=f6 v=115
485542 On ch=2 n=d#6 v=0
485710 On ch=2 n=f6 v=0
485718 On ch=2 n=f#6 v=118
485958 On ch=2 n=b6 v=123
486014 On ch=2 n=f#6 v=0
486198 On ch=2 n=a#6 v=118
486222 On ch=2 n=b6 v=0
486438 On ch=2 n=f#6 v=111
486454 On ch=2 n=a#6 v=0
486678 On ch=2 n=d#6 v=105
486710 On ch=2 n=f#6 v=0
486918 On ch=2 n=b5 v=98
486966 On ch=2 n=d#6 v=0
487158 On ch=2 n=d#5 v=100
487182 On ch=2 n=b5 v=0
487398 On ch=2 n=g#5 v=86
487446 On ch=2 n=d#5 v=0
487630 On ch=2 n=g#5 v=0
487638 On ch=2 n=f#5 v=88
487638 On ch=2 n=f#5 v=88
487998 On ch=2 n=b5 v=102
488038 On ch=2 n=f#5 v=0
488038 On ch=2 n=f#5 v=0
488118 On ch=2 n=a#5 v=102
488130 On ch=2 n=b5 v=0
488846 On ch=2 n=c5 v=73
488886 On ch=2 n=d5 v=77
488890 On ch=2 n=c5 v=0
488930 On ch=2 n=d5 v=0
488934 On ch=2 n=d5 v=81
488966 On ch=2 n=d#5 v=83
488978 On ch=2 n=d5 v=0
488998 On ch=2 n=d5 v=84
489010 On ch=2 n=d#5 v=0
489042 On ch=2 n=d5 v=0
489046 On ch=2 n=d#5 v=86
489090 On ch=2 n=d#5 v=0
489094 On ch=2 n=a#5 v=0
489094 On ch=2 n=d5 v=87
489126 On ch=2 n=d#5 v=88
489138 On ch=2 n=d5 v=0
489170 On ch=2 n=d#5 v=0
489174 On ch=2 n=d5 v=88
489218 On ch=2 n=d5 v=0
489222 On ch=2 n=d#5 v=88
489262 On ch=2 n=d5 v=88
489266 On ch=2 n=d#5 v=0
489306 On ch=2 n=d5 v=0
489310 On ch=2 n=d#5 v=88
489310 On ch=2 n=d#5 v=88
489350 On ch=2 n=d5 v=88
489354 On ch=2 n=d#5 v=0
489354 On ch=2 n=d#5 v=0
489394 On ch=2 n=d5 v=0
489398 On ch=2 n=d#5 v=88
489430 On ch=2 n=d5 v=88
489442 On ch=2 n=d#5 v=0
489470 On ch=2 n=c5 v=87
489474 On ch=2 n=d5 v=0
489510 On ch=2 n=d5 v=87
489514 On ch=2 n=c5 v=0
489554 On ch=2 n=d5 v=0
489558 On ch=2 n=d#5 v=86
490038 On ch=2 n=d#6 v=90
490134 On ch=2 n=d#5 v=0
490966 On ch=2 n=d#6 v=0
490998 On ch=2 n=d#6 v=92
491446 On ch=2 n=d#6 v=0
491478 On ch=2 n=e6 v=88
491718 On ch=2 n=c#6 v=84
491758 On ch=2 n=e6 v=0
491958 On ch=2 n=g#5 v=79
491982 On ch=2 n=c#6 v=0
492198 On ch=2 n=a#5 v=77
492230 On ch=2 n=g#5 v=0
492438 On ch=2 n=b5 v=80
492454 On ch=2 n=a#5 v=0
492918 On ch=2 n=c#6 v=87
492942 On ch=2 n=b5 v=0
493382 On ch=2 n=c#6 v=0
493398 On ch=2 n=d#6 v=84
493878 On ch=2 n=g#6 v=87
493926 On ch=2 n=d#6 v=0
494238 On ch=2 n=f#6 v=88
494254 On ch=2 n=g#6 v=0
494358 On ch=2 n=g#6 v=92
494370 On ch=2 n=f#6 v=0
494510 On ch=2 n=g#6 v=0
494518 On ch=2 n=f#6 v=88
494742 On ch=2 n=e6 v=93
494798 On ch=2 n=f#6 v=0
494822 On ch=2 n=e6 v=0
494838 On ch=2 n=e6 v=96
494998 On ch=2 n=d#6 v=95
495022 On ch=2 n=e6 v=0
495222 On ch=2 n=d#6 v=0
495222 On ch=2 n=d6 v=98
495310 On ch=2 n=d6 v=0
495318 On ch=2 n=d#6 v=97
495558 On ch=2 n=b5 v=93
495598 On ch=2 n=d#6 v=0
495798 On ch=2 n=g#5 v=89
495822 On ch=2 n=b5 v=0
496038 On ch=2 n=a#5 v=86
496062 On ch=2 n=g#5 v=0
496278 On ch=2 n=b5 v=90
496302 On ch=2 n=a#5 v=0
496518 On ch=2 n=c6 v=90
496542 On ch=2 n=b5 v=0
496798 On ch=2 n=c6 v=0
496998 On ch=2 n=c#6 v=100
497166 On ch=2 n=d6 v=100
497198 On ch=2 n=c#6 v=0
497232 On ch=2 n=d6 v=0
497238 On ch=2 n=d#6 v=100
497478 On ch=2 n=e6 v=100
497502 On ch=2 n=d#6 v=0
497718 On ch=2 n=f6 v=100
497734 On ch=2 n=e6 v=0
497878 On ch=2 n=a#6 v=100
497894 On ch=2 n=f6 v=0
498038 On ch=2 n=g#6 v=100
498054 On ch=2 n=a#6 v=0
498198 On ch=2 n=f#6 v=100
498214 On ch=2 n=g#6 v=0
499126 On ch=2 n=f#6 v=0
499158 On ch=2 n=f#6 v=100
499158 On ch=2 n=b6 v=100
499158 On ch=2 n=b5 v=100
499638 On ch=2 n=a#6 v=100
499638 On ch=2 n=a#5 v=100
499662 On ch=2 n=b6 v=0
499670 On ch=2 n=b5 v=0
499878 On ch=2 n=g#6 v=100
499878 On ch=2 n=g#5 v=100
499910 On ch=2 n=a#6 v=0
499926 On ch=2 n=a#5 v=0
500102 On ch=2 n=f#6 v=0
500118 On ch=2 n=a#5 v=100
500118 On ch=2 n=a#6 v=100
500118 On ch=2 n=f#6 v=100
500118 On ch=2 n=e6 v=100
500142 On ch=2 n=g#5 v=0
500142 On ch=2 n=g#6 v=0
500358 On ch=2 n=g#6 v=100
500358 On ch=2 n=g#5 v=100
500382 On ch=2 n=e6 v=0
500382 On ch=2 n=f#6 v=0
500382 On ch=2 n=a#6 v=0
500382 On ch=2 n=a#5 v=0
500478 On ch=2 n=g#5 v=0
500494 On ch=2 n=g#6 v=0
500518 On ch=2 n=g#6 v=100
500518 On ch=2 n=g#5 v=100
500598 On ch=2 n=f#6 v=100
500598 On ch=2 n=f#5 v=100
500650 On ch=2 n=g#5 v=0
500650 On ch=2 n=g#6 v=0
500838 On ch=2 n=f6 v=100
500838 On ch=2 n=f5 v=100
500862 On ch=2 n=f#5 v=0
500878 On ch=2 n=f#6 v=0
501070 On ch=2 n=f5 v=0
501070 On ch=2 n=f6 v=0
501078 On ch=2 n=g#6 v=100
501078 On ch=2 n=d#6 v=100
501078 On ch=2 n=b5 v=100
501078 On ch=2 n=g#5 v=100
501438 On ch=2 n=f#6 v=100
501438 On ch=2 n=f#5 v=100
501478 On ch=2 n=g#6 v=0
501486 On ch=2 n=b5 v=0
501486 On ch=2 n=d#6 v=0
501494 On ch=2 n=g#5 v=0
501552 On ch=2 n=f#5 v=0
501552 On ch=2 n=f#6 v=0
501558 On ch=2 n=f#6 v=100
501558 On ch=2 n=f#5 v=100
501718 On ch=2 n=e6 v=100
501718 On ch=2 n=e5 v=100
501742 On ch=2 n=f#5 v=0
501742 On ch=2 n=f#6 v=0
501878 On ch=2 n=d#6 v=100
501878 On ch=2 n=d#5 v=100
501894 On ch=2 n=e5 v=0
501894 On ch=2 n=e6 v=0
502031 On ch=2 n=d#5 v=0
502031 On ch=2 n=d#6 v=0
502038 On ch=2 n=d#6 v=100
502038 On ch=2 n=d#5 v=100
502038 On ch=2 n=a#5 v=100
502398 On ch=2 n=c#6 v=100
502398 On ch=2 n=c#5 v=100
502438 On ch=2 n=a#5 v=0
502438 On ch=2 n=d#5 v=0
502438 On ch=2 n=d#6 v=0
502518 On ch=2 n=d#5 v=100
502518 On ch=2 n=d#6 v=100
502518 On ch=2 n=a#5 v=100
502530 On ch=2 n=c#5 v=0
502530 On ch=2 n=c#6 v=0
502878 On ch=2 n=e6 v=100
502878 On ch=2 n=e5 v=100
502918 On ch=2 n=a#5 v=0
502918 On ch=2 n=d#6 v=0
502918 On ch=2 n=d#5 v=0
502958 On ch=2 n=b5 v=100
502993 On ch=2 n=e5 v=0
502993 On ch=2 n=e6 v=0
503015 On ch=2 n=b5 v=0
503030 On ch=2 n=b5 v=100
503118 On ch=2 n=b5 v=0
503118 On ch=2 n=f#6 v=100
503118 On ch=2 n=b6 v=100
503262 On ch=2 n=b6 v=0
503270 On ch=2 n=f#6 v=0
503358 On ch=2 n=a#5 v=100
503358 On ch=2 n=a#6 v=100
503462 On ch=2 n=a#6 v=0
503462 On ch=2 n=a#5 v=0
503478 On ch=2 n=a#6 v=100
503478 On ch=2 n=a#5 v=100
503558 On ch=2 n=b5 v=100
503558 On ch=2 n=d#6 v=100
503566 On ch=2 n=a#5 v=0
503566 On ch=2 n=a#6 v=0
503638 On ch=2 n=g#6 v=100
503638 On ch=2 n=g#5 v=100
503646 On ch=2 n=d#6 v=0
503646 On ch=2 n=b5 v=0
503750 On ch=2 n=g#6 v=0
503758 On ch=2 n=g#5 v=0
503838 On ch=2 n=f#6 v=100
503838 On ch=2 n=f#5 v=100
503958 On ch=2 n=a#5 v=100
503990 On ch=2 n=f#6 v=0
503998 On ch=2 n=f#5 v=0
504078 On ch=2 n=e6 v=100
504078 On ch=2 n=f#6 v=100
504078 On ch=2 n=a#6 v=100
504222 On ch=2 n=a#6 v=0
504238 On ch=2 n=f#6 v=0
504238 On ch=2 n=e6 v=0
504318 On ch=2 n=g#6 v=100
504318 On ch=2 n=g#5 v=100
504433 On ch=2 n=g#5 v=0
504433 On ch=2 n=g#6 v=0
504438 On ch=2 n=g#6 v=100
504438 On ch=2 n=g#5 v=100
504486 On ch=2 n=a#5 v=0
504518 On ch=2 n=a#5 v=100
504518 On ch=2 n=e6 v=100
504526 On ch=2 n=g#5 v=0
504526 On ch=2 n=g#6 v=0
504598 On ch=2 n=f#6 v=100
504598 On ch=2 n=f#5 v=100
504606 On ch=2 n=e6 v=0
504606 On ch=2 n=a#5 v=0
504686 On ch=2 n=f#5 v=0
504686 On ch=2 n=f#6 v=0
504798 On ch=2 n=f6 v=100
504798 On ch=2 n=f5 v=100
504913 On ch=2 n=f5 v=0
504913 On ch=2 n=f6 v=0
504918 On ch=2 n=g#6 v=100
504918 On ch=2 n=g#5 v=100
505038 On ch=2 n=d#6 v=100
505038 On ch=2 n=b5 v=100
505078 On ch=2 n=g#5 v=0
505078 On ch=2 n=g#6 v=0
505198 On ch=2 n=b5 v=0
505198 On ch=2 n=d#6 v=0
505278 On ch=2 n=f#6 v=100
505278 On ch=2 n=f#5 v=100
505388 On ch=2 n=f#5 v=0
505388 On ch=2 n=f#6 v=0
505398 On ch=2 n=f#6 v=100
505398 On ch=2 n=f#5 v=100
505478 On ch=2 n=b5 v=100
505520 On ch=2 n=f#5 v=0
505520 On ch=2 n=f#6 v=0
505558 On ch=2 n=e6 v=100
505558 On ch=2 n=e5 v=100
505600 On ch=2 n=b5 v=0
505680 On ch=2 n=e5 v=0
505680 On ch=2 n=e6 v=0
505758 On ch=2 n=d#6 v=100
505758 On ch=2 n=d#5 v=100
505873 On ch=2 n=d#5 v=0
505873 On ch=2 n=d#6 v=0
505878 On ch=2 n=d#6 v=93
505878 On ch=2 n=d#5 v=93
505998 On ch=2 n=a#5 v=93
506006 On ch=2 n=g5 v=93
506016 On ch=2 n=d#5 v=0
506016 On ch=2 n=d#6 v=0
506136 On ch=2 n=a#5 v=0
506144 On ch=2 n=g5 v=0
506235 On ch=2 n=c#6 v=86
506235 On ch=2 n=c#5 v=86
506355 On ch=2 n=d#6 v=92
506355 On ch=2 n=d#5 v=92
506376 On ch=2 n=c#5 v=0
506376 On ch=2 n=c#6 v=0
506475 On ch=2 n=a#5 v=92
506475 On ch=2 n=g5 v=92
506496 On ch=2 n=d#5 v=0
506496 On ch=2 n=d#6 v=0
506616 On ch=2 n=g5 v=0
506616 On ch=2 n=a#5 v=0
506715 On ch=2 n=e5 v=79
506715 On ch=2 n=e6 v=79
506831 On ch=2 n=e6 v=0
506831 On ch=2 n=e5 v=0
506835 Par ch=2 c=64 v=127
506835 On ch=2 n=f#6 v=63
506835 On ch=2 n=c6 v=63
506835 On ch=2 n=a5 v=63
506975 On ch=2 n=a5 v=0
506975 On ch=2 n=c6 v=0
506975 On ch=2 n=f#6 v=0
507315 On ch=2 n=a5 v=46
507315 On ch=2 n=f#5 v=46
507315 On ch=2 n=c6 v=46
507315 On ch=2 n=c5 v=46
508267 On ch=2 n=f#5 v=0
508267 On ch=2 n=a5 v=0
508275 On ch=2 n=c#6 v=55
508275 On ch=2 n=a5 v=55
508275 On ch=2 n=f#5 v=55
508275 On ch=2 n=c#5 v=55
508299 On ch=2 n=c5 v=0
508299 On ch=2 n=c6 v=0
508731 On ch=2 n=c#6 v=0
508739 On ch=2 n=c#5 v=0
508739 On ch=2 n=a5 v=0
508747 On ch=2 n=f#5 v=0
508755 On ch=2 n=d#6 v=64
508755 On ch=2 n=g#5 v=64
508755 On ch=2 n=f#5 v=64
508995 On ch=2 n=g#4 v=49
509019 On ch=2 n=f#5 v=0
509019 On ch=2 n=g#5 v=0
509019 On ch=2 n=d#6 v=0
509115 On ch=2 n=g#5 v=55
509127 On ch=2 n=g#4 v=0
509179 On ch=2 n=g#5 v=0
509187 On ch=2 n=g#5 v=59
509235 On ch=2 n=a#6 v=61
509253 On ch=2 n=g#5 v=0
509355 On ch=2 n=g#6 v=57
509367 On ch=2 n=a#6 v=0
509475 On ch=2 n=g6 v=69
509475 On ch=2 n=d#7 v=69
509475 On ch=2 n=g6 v=69
509475 On ch=2 n=d#7 v=69
509487 On ch=2 n=g#6 v=0
509595 On ch=2 n=f#6 v=62
509607 On ch=2 n=g6 v=0
509607 On ch=2 n=g6 v=0
509707 On ch=2 n=d#7 v=0
509707 On ch=2 n=d#7 v=0
509715 On ch=2 n=d#7 v=65
509715 On ch=2 n=f6 v=65
509727 On ch=2 n=f#6 v=0
509835 On ch=2 n=g6 v=62
509847 On ch=2 n=f6 v=0
509955 On ch=2 n=c#7 v=59
509955 On ch=2 n=g#6 v=59
509967 On ch=2 n=g6 v=0
510003 On ch=2 n=d#7 v=0
510075 On ch=2 n=b5 v=55
510087 On ch=2 n=g#6 v=0
510195 On ch=2 n=f6 v=65
510207 On ch=2 n=b5 v=0
510251 On ch=2 n=c#7 v=0
510315 On ch=2 n=d#6 v=62
510327 On ch=2 n=f6 v=0
510435 On ch=2 n=g#6 v=59
510435 On ch=2 n=c#6 v=59
510447 On ch=2 n=d#6 v=0
510555 On ch=2 n=b5 v=55
510567 On ch=2 n=c#6 v=0
510667 On ch=2 n=b5 v=0
510667 On ch=2 n=g#6 v=0
510675 On ch=2 n=g#6 v=66
510675 On ch=2 n=a5 v=66
510795 On ch=2 n=a#5 v=60
510807 On ch=2 n=a5 v=0
510915 On ch=2 n=f#6 v=66
510915 On ch=2 n=e5 v=66
510927 On ch=2 n=a#5 v=0
510947 On ch=2 n=g#6 v=0
511035 On ch=2 n=c#6 v=70
511047 On ch=2 n=e5 v=0
511155 On ch=2 n=g#6 v=68
511167 On ch=2 n=c#6 v=0
511187 On ch=2 n=f#6 v=0
511283 On ch=2 n=f#6 v=65
511287 On ch=2 n=g#6 v=0
511395 On ch=2 n=c#7 v=63
511395 On ch=2 n=f6 v=63
511415 On ch=2 n=f#6 v=0
511515 On ch=2 n=e6 v=60
511527 On ch=2 n=f6 v=0
511627 On ch=2 n=c#7 v=0
511635 On ch=2 n=c#7 v=66
511643 On ch=2 n=d#6 v=66
511647 On ch=2 n=e6 v=0
511755 On ch=2 n=e6 v=63
511775 On ch=2 n=d#6 v=0
511875 On ch=2 n=b6 v=61
511875 On ch=2 n=f#6 v=61
511887 On ch=2 n=e6 v=0
511907 On ch=2 n=c#7 v=0
511995 On ch=2 n=a5 v=59
512007 On ch=2 n=f#6 v=0
512115 On ch=2 n=d#6 v=57
512127 On ch=2 n=a5 v=0
512147 On ch=2 n=b6 v=0
512235 On ch=2 n=c#6 v=55
512247 On ch=2 n=d#6 v=0
512355 On ch=2 n=b5 v=53
512355 On ch=2 n=d#6 v=53
512367 On ch=2 n=c#6 v=0
512475 On ch=2 n=a5 v=51
512487 On ch=2 n=b5 v=0
512587 On ch=2 n=a5 v=0
512587 On ch=2 n=d#6 v=0
512595 On ch=2 n=d#6 v=54
512595 On ch=2 n=g5 v=54
512715 On ch=2 n=g#5 v=57
512727 On ch=2 n=g5 v=0
512835 On ch=2 n=c#5 v=60
512847 On ch=2 n=g#5 v=0
512955 On ch=2 n=c#6 v=64
512967 On ch=2 n=c#5 v=0
512979 On ch=2 n=d#6 v=0
513075 On ch=2 n=a#6 v=66
513087 On ch=2 n=c#6 v=0
513195 On ch=2 n=g#6 v=69
513207 On ch=2 n=a#6 v=0
513315 On ch=2 n=e6 v=73
513327 On ch=2 n=g#6 v=0
513435 On ch=2 n=d#6 v=75
513447 On ch=2 n=e6 v=0
513555 On ch=2 n=c#6 v=79
513567 On ch=2 n=d#6 v=0
513675 On ch=2 n=b5 v=82
513687 On ch=2 n=c#6 v=0
513795 On ch=2 n=g#5 v=84
513807 On ch=2 n=b5 v=0
513915 On ch=2 n=e5 v=88
513927 On ch=2 n=g#5 v=0
514035 On ch=2 n=c#5 v=91
514047 On ch=2 n=e5 v=0
514155 On ch=2 n=b4 v=93
514167 On ch=2 n=c#5 v=0
514275 On ch=2 n=g#4 v=97
514287 On ch=2 n=b4 v=0
514395 On ch=2 n=b5 v=100
514407 On ch=2 n=g#4 v=0
514515 On ch=2 n=g#4 v=94
514515 On ch=2 n=b4 v=94
514515 On ch=2 n=c#5 v=94
514527 On ch=2 n=b5 v=0
514979 On ch=2 n=b4 v=0
514995 On ch=2 n=d#5 v=77
514995 On ch=2 n=b4 v=77
514995 On ch=2 n=f#4 v=77
515019 On ch=2 n=g#4 v=0
515035 On ch=2 n=c#5 v=0
515467 On ch=2 n=b4 v=0
515475 On ch=2 n=e5 v=59
515475 On ch=2 n=b4 v=59
515475 On ch=2 n=g#4 v=59
515499 On ch=2 n=d#5 v=0
515523 On ch=2 n=f#4 v=0
515827 On ch=2 n=e5 v=0
515899 On ch=2 n=e5 v=45
515955 On ch=2 n=d#5 v=44
515955 On ch=2 n=a#4 v=44
515955 On ch=2 n=e4 v=44
515979 On ch=2 n=g#4 v=0
515987 On ch=2 n=b4 v=0
516031 On ch=2 n=e5 v=0
516315 On ch=2 n=c#5 v=38
516339 On ch=2 n=d#5 v=0
516419 On ch=2 n=e4 v=0
516419 On ch=2 n=a#4 v=0
516427 On ch=2 n=c#5 v=0
516435 On ch=2 n=d#4 v=100
516555 On ch=2 n=a#4 v=70
516567 On ch=2 n=d#4 v=0
516675 On ch=2 n=c#5 v=72
516687 On ch=2 n=a#4 v=0
516795 On ch=2 n=d#5 v=74
516807 On ch=2 n=c#5 v=0
516915 On ch=2 n=f6 v=77
516927 On ch=2 n=d#5 v=0
517035 On ch=2 n=d#6 v=79
517047 On ch=2 n=f6 v=0
517155 On ch=2 n=d6 v=81
517163 On ch=2 n=a#6 v=81
517167 On ch=2 n=d#6 v=0
517275 On ch=2 n=c#6 v=84
517287 On ch=2 n=d6 v=0
517379 On ch=2 n=a#6 v=0
517395 On ch=2 n=a#6 v=89
517395 On ch=2 n=c6 v=89
517407 On ch=2 n=c#6 v=0
517515 On ch=2 n=c#6 v=88
517527 On ch=2 n=c6 v=0
517635 On ch=2 n=g#6 v=85
517635 On ch=2 n=d#6 v=85
517647 On ch=2 n=c#6 v=0
517667 On ch=2 n=a#6 v=0
517755 On ch=2 n=f#5 v=83
517767 On ch=2 n=d#6 v=0
517875 On ch=2 n=c6 v=81
517887 On ch=2 n=f#5 v=0
517907 On ch=2 n=g#6 v=0
517995 On ch=2 n=a#5 v=79
518007 On ch=2 n=c6 v=0
518115 On ch=2 n=a#5 v=0
518115 On ch=2 n=d#6 v=76
518115 On ch=2 n=g#5 v=76
518235 On ch=2 n=f#5 v=74
518247 On ch=2 n=g#5 v=0
518347 On ch=2 n=f#5 v=0
518347 On ch=2 n=d#6 v=0
518355 On ch=2 n=d#6 v=71
518355 On ch=2 n=e5 v=71
518475 On ch=2 n=f5 v=67
518487 On ch=2 n=e5 v=0
518595 On ch=2 n=c#6 v=70
518595 On ch=2 n=b4 v=70
518607 On ch=2 n=f5 v=0
518611 On ch=2 n=d#6 v=0
518715 On ch=2 n=g#5 v=74
518727 On ch=2 n=b4 v=0
518835 On ch=2 n=d#6 v=77
518847 On ch=2 n=g#5 v=0
518859 On ch=2 n=c#6 v=0
518955 On ch=2 n=c#6 v=80
518967 On ch=2 n=d#6 v=0
519075 On ch=2 n=g#6 v=85
519083 On ch=2 n=c6 v=85
519087 On ch=2 n=c#6 v=0
519195 On ch=2 n=b5 v=86
519215 On ch=2 n=c6 v=0
519291 On ch=2 n=g#6 v=0
519315 On ch=2 n=g#6 v=89
519315 On ch=2 n=a#5 v=89
519327 On ch=2 n=b5 v=0
519435 On ch=2 n=b5 v=87
519447 On ch=2 n=a#5 v=0
519555 On ch=2 n=f#6 v=84
519555 On ch=2 n=c#6 v=84
519567 On ch=2 n=b5 v=0
519611 On ch=2 n=g#6 v=0
519675 On ch=2 n=e5 v=82
519687 On ch=2 n=c#6 v=0
519795 On ch=2 n=a#5 v=79
519807 On ch=2 n=e5 v=0
519827 On ch=2 n=f#6 v=0
519915 On ch=2 n=g#5 v=77
519927 On ch=2 n=a#5 v=0
520035 On ch=2 n=c#6 v=75
520035 On ch=2 n=f#5 v=75
520047 On ch=2 n=g#5 v=0
520155 On ch=2 n=e5 v=73
520167 On ch=2 n=f#5 v=0
520259 On ch=2 n=e5 v=0
520267 On ch=2 n=c#6 v=0
520275 On ch=2 n=c#6 v=73
520283 On ch=2 n=d#5 v=73
520395 On ch=2 n=c6 v=77
520407 On ch=2 n=c#6 v=0
520491 On ch=2 n=d#5 v=0
520515 On ch=2 n=b5 v=81
520527 On ch=2 n=c6 v=0
520635 On ch=2 n=a#5 v=85
520647 On ch=2 n=b5 v=0
520755 On ch=2 n=a5 v=74
520767 On ch=2 n=a#5 v=0
520875 On ch=2 n=g#5 v=78
520875 On ch=2 n=d5 v=78
520887 On ch=2 n=a5 v=0
520995 On ch=2 n=f#5 v=81
521007 On ch=2 n=g#5 v=0
521075 On ch=2 n=d5 v=0
521115 On ch=2 n=f5 v=84
521127 On ch=2 n=f#5 v=0
521227 On ch=2 n=f5 v=0
521235 On ch=2 n=f5 v=81
521235 On ch=2 n=d6 v=81
521355 On ch=2 n=c#6 v=84
521367 On ch=2 n=d6 v=0
521411 On ch=2 n=f5 v=0
521475 On ch=2 n=c6 v=88
521487 On ch=2 n=c#6 v=0
521595 On ch=2 n=b5 v=91
521607 On ch=2 n=c6 v=0
521715 On ch=2 n=e5 v=83
521715 On ch=2 n=a#5 v=83
521727 On ch=2 n=b5 v=0
521835 On ch=2 n=g#5 v=86
521847 On ch=2 n=a#5 v=0
521923 On ch=2 n=e5 v=0
521955 On ch=2 n=g5 v=89
521967 On ch=2 n=g#5 v=0
522075 On ch=2 n=a#5 v=93
522087 On ch=2 n=g5 v=0
522195 On ch=2 n=g5 v=92
522195 On ch=2 n=e6 v=92
522207 On ch=2 n=a#5 v=0
522315 On ch=2 n=d#6 v=95
522327 On ch=2 n=e6 v=0
522355 On ch=2 n=g5 v=0
522435 On ch=2 n=d6 v=98
522447 On ch=2 n=d#6 v=0
522555 On ch=2 n=c#6 v=102
522567 On ch=2 n=d6 v=0
522675 On ch=2 n=b5 v=92
522687 On ch=2 n=c#6 v=0
522795 On ch=2 n=a#5 v=95
522807 On ch=2 n=b5 v=0
522915 On ch=2 n=c#6 v=98
522927 On ch=2 n=a#5 v=0
523035 On ch=2 n=b5 v=102
523047 On ch=2 n=c#6 v=0
523155 On ch=2 n=d6 v=103
523155 On ch=2 n=g#6 v=103
523167 On ch=2 n=b5 v=0
523315 On ch=2 n=g6 v=108
523315 On ch=2 n=a#5 v=108
523331 On ch=2 n=g#6 v=0
523331 On ch=2 n=d6 v=0
523475 On ch=2 n=g#6 v=112
523475 On ch=2 n=b5 v=112
523491 On ch=2 n=a#5 v=0
523491 On ch=2 n=g6 v=0
523635 On ch=2 n=a6 v=117
523635 On ch=2 n=c6 v=117
523651 On ch=2 n=b5 v=0
523651 On ch=2 n=g#6 v=0
523787 On ch=2 n=c#6 v=122
523795 On ch=2 n=a#6 v=122
523811 On ch=2 n=c6 v=0
523811 On ch=2 n=a6 v=0
523955 On ch=2 n=b6 v=127
523955 On ch=2 n=d6 v=127
523963 On ch=2 n=c#6 v=0
523971 On ch=2 n=a#6 v=0
524107 On ch=2 n=d6 v=0
524107 On ch=2 n=b6 v=0
524115 On ch=2 n=b6 v=112
524115 On ch=2 n=d#6 v=112
524350 On ch=2 n=d#6 v=0
524350 On ch=2 n=b6 v=0
524355 On ch=2 n=a#6 v=108
524355 On ch=2 n=e6 v=108
524355 On ch=2 n=c#6 v=108
524590 On ch=2 n=c#6 v=0
524590 On ch=2 n=e6 v=0
524590 On ch=2 n=a#6 v=0
524595 On ch=2 n=d#6 v=110
524595 On ch=2 n=g#6 v=110
524595 On ch=2 n=b5 v=110
524830 On ch=2 n=b5 v=0
524830 On ch=2 n=g#6 v=0
524830 On ch=2 n=d#6 v=0
524835 On ch=2 n=c#6 v=117
524835 On ch=2 n=e6 v=117
524835 On ch=2 n=a#6 v=117
525070 On ch=2 n=a#6 v=0
525070 On ch=2 n=e6 v=0
525070 On ch=2 n=c#6 v=0
525075 On ch=2 n=b5 v=108
525075 On ch=2 n=d#6 v=108
525075 On ch=2 n=g#6 v=108
525310 On ch=2 n=g#6 v=0
525310 On ch=2 n=d#6 v=0
525310 On ch=2 n=b5 v=0
525315 On ch=2 n=a#6 v=104
525315 On ch=2 n=a#5 v=104
525315 On ch=2 n=c#6 v=104
525550 On ch=2 n=c#6 v=0
525550 On ch=2 n=a#5 v=0
525550 On ch=2 n=a#6 v=0
525555 On ch=2 n=g#5 v=94
525555 On ch=2 n=b6 v=94
525555 On ch=2 n=b5 v=94
525787 On ch=2 n=b6 v=0
525790 On ch=2 n=b5 v=0
525790 On ch=2 n=g#5 v=0
525795 On ch=2 n=a#5 v=84
525795 On ch=2 n=c#6 v=84
525795 On ch=2 n=f#6 v=84
526030 On ch=2 n=f#6 v=0
526030 On ch=2 n=c#6 v=0
526030 On ch=2 n=a#5 v=0
526035 On ch=2 n=g#5 v=101
526035 On ch=2 n=b5 v=101
526035 On ch=2 n=e6 v=101
526270 On ch=2 n=e6 v=0
526270 On ch=2 n=b5 v=0
526270 On ch=2 n=g#5 v=0
526275 On ch=2 n=f#5 v=93
526275 On ch=2 n=a#5 v=93
526275 On ch=2 n=f#6 v=93
526510 On ch=2 n=f#6 v=0
526510 On ch=2 n=a#5 v=0
526510 On ch=2 n=f#5 v=0
526515 On ch=2 n=g#6 v=84
526515 On ch=2 n=g#5 v=84
526515 On ch=2 n=e5 v=84
526750 On ch=2 n=e5 v=0
526750 On ch=2 n=g#5 v=0
526750 On ch=2 n=g#6 v=0
526755 On ch=2 n=f#5 v=76
526755 On ch=2 n=a#5 v=76
526763 On ch=2 n=d#6 v=76
526990 On ch=2 n=a#5 v=0
526990 On ch=2 n=f#5 v=0
526995 Par ch=2 c=64 v=127
526995 On ch=2 n=c#6 v=78
526995 On ch=2 n=g#5 v=78
526998 On ch=2 n=d#6 v=0
527230 On ch=2 n=c#6 v=0
527235 Par ch=2 c=64 v=0
527235 On ch=2 n=f#5 v=69
527235 On ch=2 n=c6 v=69
527235 On ch=2 n=d#6 v=69
527470 On ch=2 n=d#6 v=0
527470 On ch=2 n=c6 v=0
527475 On ch=2 n=e5 v=59
527475 On ch=2 n=c#6 v=59
527475 On ch=2 n=e6 v=59
527491 On ch=2 n=f#5 v=0
527710 On ch=2 n=e6 v=0
527710 On ch=2 n=c#6 v=0
527710 On ch=2 n=e5 v=0
527715 On ch=2 n=f#5 v=49
527715 On ch=2 n=a#5 v=49
527763 On ch=2 n=g#5 v=0
527950 On ch=2 n=a#5 v=0
527950 On ch=2 n=f#5 v=0
527955 Par ch=2 c=64 v=127
527955 On ch=2 n=d#5 v=55
527955 On ch=2 n=b5 v=55
528388 Par ch=2 c=64 v=0
528411 On ch=2 n=d#5 v=0
528435 On ch=2 n=d#5 v=74
528451 On ch=2 n=b5 v=0
528519 Par ch=2 c=64 v=127
528555 On ch=2 n=e5 v=77
528567 On ch=2 n=d#5 v=0
528687 On ch=2 n=e5 v=0
528691 On ch=2 n=f#5 v=80
528803 On ch=2 n=b5 v=84
528823 On ch=2 n=f#5 v=0
528885 Par ch=2 c=64 v=0
528915 Par ch=2 c=64 v=127
528915 On ch=2 n=g#5 v=86
528935 On ch=2 n=b5 v=0
529395 On ch=2 n=d#5 v=67
529515 On ch=2 n=e5 v=74
529527 On ch=2 n=d#5 v=0
529635 On ch=2 n=f#5 v=81
529647 On ch=2 n=e5 v=0
529651 On ch=2 n=g#5 v=0
529755 On ch=2 n=d#6 v=88
529767 On ch=2 n=f#5 v=0
529845 Par ch=2 c=64 v=0
529875 Par ch=2 c=64 v=127
529875 On ch=2 n=c#6 v=87
529887 On ch=2 n=d#6 v=0
530355 On ch=2 n=b4 v=75
530475 On ch=2 n=c#5 v=84
530487 On ch=2 n=b4 v=0
530595 On ch=2 n=d#5 v=93
530607 On ch=2 n=c#5 v=0
530715 On ch=2 n=b5 v=100
530727 On ch=2 n=d#5 v=0
530763 On ch=2 n=c#6 v=0
530805 Par ch=2 c=64 v=0
530835 Par ch=2 c=64 v=127
530835 On ch=2 n=f5 v=96
530835 On ch=2 n=a#5 v=96
530847 On ch=2 n=b5 v=0
531315 On ch=2 n=b4 v=92
531363 On ch=2 n=f5 v=0
531435 On ch=2 n=c#5 v=94
531447 On ch=2 n=b4 v=0
531539 On ch=2 n=a#5 v=0
531555 On ch=2 n=e5 v=95
531555 On ch=2 n=a#5 v=95
531567 On ch=2 n=c#5 v=0
531635 On ch=2 n=b5 v=95
531643 On ch=2 n=a#5 v=0
531707 On ch=2 n=g#5 v=96
531723 On ch=2 n=b5 v=0
531765 Par ch=2 c=64 v=0
531771 On ch=2 n=e5 v=0
531787 On ch=2 n=g#5 v=0
531795 Par ch=2 c=64 v=127
531795 On ch=2 n=e5 v=97
531795 On ch=2 n=g#5 v=97
532275 On ch=2 n=a#4 v=74
532291 On ch=2 n=e5 v=0
532395 On ch=2 n=e5 v=79
532407 On ch=2 n=a#4 v=0
532499 On ch=2 n=g#5 v=0
532515 On ch=2 n=f#5 v=84
532635 On ch=2 n=b5 v=88
532725 Par ch=2 c=64 v=0
532755 Par ch=2 c=64 v=127
532755 On ch=2 n=a#5 v=93
533211 On ch=2 n=e5 v=0
533219 On ch=2 n=a#5 v=0
533227 On ch=2 n=b5 v=0
533227 On ch=2 n=f#5 v=0
533243 On ch=2 n=e5 v=100
533355 On ch=2 n=f#5 v=100
533475 On ch=2 n=b5 v=100
533603 On ch=2 n=d#6 v=100
533699 On ch=2 n=b5 v=0
533715 On ch=2 n=d#6 v=0
533715 On ch=2 n=a#5 v=100
533723 On ch=2 n=c#6 v=100
534165 Par ch=2 c=64 v=0
534171 On ch=2 n=e5 v=0
534195 Par ch=2 c=64 v=127
534195 On ch=2 n=e5 v=113
534299 On ch=2 n=f#5 v=0
534307 On ch=2 n=a#5 v=0
534315 On ch=2 n=c#6 v=0
534315 On ch=2 n=a#5 v=110
534435 On ch=2 n=g#6 v=107
534571 On ch=2 n=g#6 v=0
534595 On ch=2 n=a#5 v=0
534603 On ch=2 n=g#6 v=103
534667 On ch=2 n=g#6 v=0
534667 On ch=2 n=e5 v=0
534675 On ch=2 n=g#6 v=101
534675 On ch=2 n=e5 v=101
534675 On ch=2 n=a#5 v=101
534835 On ch=2 n=f#6 v=97
534835 On ch=2 n=d#5 v=97
534851 On ch=2 n=e5 v=0
534851 On ch=2 n=g#6 v=0
534995 On ch=2 n=c#5 v=93
535011 On ch=2 n=d#5 v=0
535075 On ch=2 n=e6 v=90
535083 On ch=2 n=f#6 v=0
535147 On ch=2 n=e6 v=0
535155 On ch=2 n=e6 v=88
535155 On ch=2 n=g#5 v=88
535171 On ch=2 n=c#5 v=0
535315 On ch=2 n=f#5 v=84
535315 On ch=2 n=d#6 v=84
535331 On ch=2 n=g#5 v=0
535347 On ch=2 n=e6 v=0
535491 On ch=2 n=d#6 v=0
535491 On ch=2 n=f#5 v=0
535555 On ch=2 n=d6 v=86
535555 On ch=2 n=f5 v=86
535605 Par ch=2 c=64 v=0
535619 On ch=2 n=f5 v=0
535619 On ch=2 n=d6 v=0
535619 On ch=2 n=a#5 v=0
535635 Par ch=2 c=64 v=127
535635 On ch=2 n=b5 v=92
535635 On ch=2 n=g#5 v=92
535635 On ch=2 n=e6 v=92
535795 On ch=2 n=f#5 v=81
535795 On ch=2 n=d#6 v=81
535811 On ch=2 n=e6 v=0
535811 On ch=2 n=g#5 v=0
535811 On ch=2 n=b5 v=0
535971 On ch=2 n=d#6 v=0
535971 On ch=2 n=f#5 v=0
536115 On ch=2 n=d#5 v=80
536235 On ch=2 n=e5 v=83
536247 On ch=2 n=d#5 v=0
536355 On ch=2 n=f#5 v=85
536367 On ch=2 n=e5 v=0
536475 On ch=2 n=b5 v=88
536487 On ch=2 n=f#5 v=0
536565 Par ch=2 c=64 v=0
536595 Par ch=2 c=64 v=127
536595 On ch=2 n=g#5 v=90
536607 On ch=2 n=b5 v=0
537075 On ch=2 n=d#5 v=78
537195 On ch=2 n=e5 v=83
537207 On ch=2 n=d#5 v=0
537315 On ch=2 n=f#5 v=88
537327 On ch=2 n=e5 v=0
537355 On ch=2 n=g#5 v=0
537443 On ch=2 n=d#6 v=100
537447 On ch=2 n=f#5 v=0
537525 Par ch=2 c=64 v=0
537539 On ch=2 n=d#6 v=0
537555 Par ch=2 c=64 v=127
537555 On ch=2 n=c#6 v=105
538035 On ch=2 n=b4 v=92
538155 On ch=2 n=c#5 v=93
538167 On ch=2 n=b4 v=0
538275 On ch=2 n=d#5 v=95
538287 On ch=2 n=c#5 v=0
538395 On ch=2 n=c#6 v=0
538403 On ch=2 n=b5 v=97
538407 On ch=2 n=d#5 v=0
538485 Par ch=2 c=64 v=0
538515 Par ch=2 c=64 v=127
538515 On ch=2 n=a#5 v=98
538515 On ch=2 n=f5 v=98
538515 On ch=2 n=b4 v=98
538535 On ch=2 n=b5 v=0
538979 On ch=2 n=b4 v=0
538995 On ch=2 n=b4 v=89
539115 On ch=2 n=c#5 v=88
539127 On ch=2 n=b4 v=0
539211 On ch=2 n=a#5 v=0
539235 On ch=2 n=f5 v=0
539235 On ch=2 n=a#5 v=86
539251 On ch=2 n=f5 v=85
539355 On ch=2 n=b4 v=84
539355 On ch=2 n=g#5 v=84
539367 On ch=2 n=a#5 v=0
539383 On ch=2 n=f5 v=0
539445 Par ch=2 c=64 v=0
539459 On ch=2 n=b4 v=0
539459 On ch=2 n=c#5 v=0
539467 On ch=2 n=g#5 v=0
539475 Par ch=2 c=64 v=127
539475 On ch=2 n=b4 v=88
539475 On ch=2 n=e5 v=88
539475 On ch=2 n=g#5 v=88
539939 On ch=2 n=g#5 v=0
539947 On ch=2 n=e5 v=0
539947 On ch=2 n=b4 v=0
539955 On ch=2 n=a#4 v=74
540075 On ch=2 n=e5 v=79
540087 On ch=2 n=a#4 v=0
540195 On ch=2 n=f#5 v=84
540315 On ch=2 n=b5 v=89
540405 Par ch=2 c=64 v=0
540435 Par ch=2 c=64 v=127
540435 On ch=2 n=a#5 v=83
540467 On ch=2 n=b5 v=0
540875 On ch=2 n=e5 v=0
540915 On ch=2 n=e5 v=100
540995 On ch=2 n=f#5 v=0
541035 On ch=2 n=f#5 v=100
541107 On ch=2 n=a#5 v=0
541155 On ch=2 n=b5 v=100
541275 On ch=2 n=d#6 v=100
541371 On ch=2 n=d#6 v=0
541387 On ch=2 n=b5 v=0
541395 On ch=2 n=a#5 v=100
541395 On ch=2 n=c#6 v=100
541867 On ch=2 n=e5 v=0
541875 On ch=2 n=e5 v=98
541883 On ch=2 n=c#6 v=0
541899 On ch=2 n=a#5 v=0
541971 On ch=2 n=f#5 v=0
541995 On ch=2 n=a#5 v=100
542115 On ch=2 n=f6 v=103
542235 On ch=2 n=f#6 v=104
542247 On ch=2 n=f6 v=0
542295 Par ch=2 c=64 v=0
542347 On ch=2 n=f#6 v=0
542355 Par ch=2 c=64 v=127
542355 On ch=2 n=e6 v=100
542363 On ch=2 n=e5 v=0
542363 On ch=2 n=g6 v=100
542475 On ch=2 n=a#5 v=0
542515 On ch=2 n=a#5 v=100
542539 On ch=2 n=g6 v=0
542675 On ch=2 n=g#6 v=100
542835 On ch=2 n=a6 v=116
542851 On ch=2 n=g#6 v=0
542859 On ch=2 n=a#5 v=0
542939 On ch=2 n=e6 v=0
542955 On ch=2 n=a#6 v=118
542967 On ch=2 n=a6 v=0
543075 On ch=2 n=d#7 v=121
543075 On ch=2 n=f#6 v=121
543087 On ch=2 n=a#6 v=0
543195 On ch=2 n=c#7 v=123
543195 On ch=2 n=e6 v=123
543227 On ch=2 n=d#7 v=0
543243 On ch=2 n=f#6 v=0
543285 Par ch=2 c=64 v=0
543299 On ch=2 n=c#7 v=0
543307 On ch=2 n=e6 v=0
543315 Par ch=2 c=64 v=127
543315 On ch=2 n=d#6 v=125
543315 On ch=2 n=b6 v=125
543787 On ch=2 n=b6 v=0
543795 On ch=2 n=b6 v=108
544267 On ch=2 n=d#6 v=0
544275 On ch=2 n=d#6 v=112
544299 On ch=2 n=b6 v=0
544755 On ch=2 n=g#6 v=115
544811 On ch=2 n=d#6 v=0
545115 On ch=2 n=f#6 v=118
545147 On ch=2 n=g#6 v=0
545213 Par ch=2 c=64 v=0
545227 On ch=2 n=f#6 v=0
545235 Par ch=2 c=64 v=127
545235 On ch=2 n=g#5 v=119
545235 On ch=2 n=d6 v=119
545235 On ch=2 n=f6 v=119
545715 On ch=2 n=c#6 v=115
545747 On ch=2 n=d6 v=0
545747 On ch=2 n=g#5 v=0
546075 On ch=2 n=b5 v=113
546107 On ch=2 n=c#6 v=0
546195 Par ch=2 c=64 v=0
546195 On ch=2 n=g5 v=112
546195 On ch=2 n=a#5 v=112
546195 On ch=2 n=e6 v=112
546207 On ch=2 n=b5 v=0
546227 On ch=2 n=f6 v=0
546675 On ch=2 n=f#5 v=109
546683 On ch=2 n=e6 v=0
546683 On ch=2 n=d#6 v=109
546699 On ch=2 n=g5 v=0
547035 On ch=2 n=c#6 v=108
547035 On ch=2 n=e5 v=108
547059 On ch=2 n=d#6 v=0
547059 On ch=2 n=f#5 v=0
547155 On ch=2 n=a#5 v=0
547155 Par ch=2 c=64 v=127
547155 On ch=2 n=b5 v=107
547155 On ch=2 n=d#5 v=107
547167 On ch=2 n=e5 v=0
547167 On ch=2 n=c#6 v=0
547395 On ch=2 n=a#5 v=116
547419 On ch=2 n=b5 v=0
547635 On ch=2 n=a5 v=110
547659 On ch=2 n=a#5 v=0
547875 On ch=2 n=g#5 v=105
547899 On ch=2 n=a5 v=0
548115 On ch=2 n=f#5 v=99
548139 On ch=2 n=g#5 v=0
548595 On ch=2 n=g#5 v=115
548627 On ch=2 n=f#5 v=0
548963 On ch=2 n=f#5 v=108
548979 On ch=2 n=g#5 v=0
549019 Par ch=2 c=64 v=0
549048 Par ch=2 c=64 v=0
549059 On ch=2 n=d#5 v=0
549067 On ch=2 n=f#5 v=0
549075 On ch=2 n=d#5 v=100
549075 On ch=2 n=b4 v=100
549075 On ch=2 n=f5 v=100
549555 On ch=2 n=a#4 v=100
549555 On ch=2 n=c#5 v=100
549579 On ch=2 n=b4 v=0
549587 On ch=2 n=d#5 v=0
549795 On ch=2 n=b4 v=100
549803 On ch=2 n=f4 v=100
549819 On ch=2 n=c#5 v=0
549827 On ch=2 n=a#4 v=0
550027 On ch=2 n=f5 v=0
550035 On ch=2 n=a#4 v=100
550035 On ch=2 n=e4 v=100
550035 On ch=2 n=f#5 v=100
550059 On ch=2 n=f4 v=0
550059 On ch=2 n=b4 v=0
550507 On ch=2 n=e4 v=0
550507 On ch=2 n=a#4 v=0
550515 On ch=2 n=a#4 v=100
550515 On ch=2 n=e5 v=100
550515 On ch=2 n=c#6 v=100
550531 On ch=2 n=f#5 v=0
550843 On ch=2 n=c#6 v=0
550875 On ch=2 n=b5 v=100
550979 On ch=2 n=b5 v=0
550979 On ch=2 n=e5 v=0
550979 On ch=2 n=a#4 v=0
550995 On ch=2 n=b5 v=100
550995 On ch=2 n=d#5 v=100
550995 On ch=2 n=b4 v=100
551259 On ch=2 n=b4 v=0
551275 On ch=2 n=d#5 v=0
551283 On ch=2 n=b5 v=0
551355 On ch=2 n=d#5 v=100
551475 On ch=2 n=c#5 v=100
551487 On ch=2 n=d#5 v=0
551603 On ch=2 n=b4 v=100
551607 On ch=2 n=c#5 v=0
551715 On ch=2 n=f#4 v=100
551735 On ch=2 n=b4 v=0
551835 On ch=2 n=d#5 v=100
551847 On ch=2 n=f#4 v=0
551967 On ch=2 n=d#5 v=0
552315 On ch=2 n=f#5 v=100
552435 On ch=2 n=e5 v=100
552447 On ch=2 n=f#5 v=0
552555 On ch=2 n=d#5 v=100
552567 On ch=2 n=e5 v=0
552675 On ch=2 n=b4 v=100
552687 On ch=2 n=d#5 v=0
552795 On ch=2 n=f#5 v=100
552807 On ch=2 n=b4 v=0
552927 On ch=2 n=f#5 v=0
553275 On ch=2 n=a#5 v=100
553395 On ch=2 n=g#5 v=100
553407 On ch=2 n=a#5 v=0
553515 On ch=2 n=f#5 v=100
553527 On ch=2 n=g#5 v=0
553635 On ch=2 n=d#5 v=100
553647 On ch=2 n=f#5 v=0
553755 On ch=2 n=b4 v=100
553767 On ch=2 n=d#5 v=0
553875 On ch=2 n=c#6 v=100
553887 On ch=2 n=b4 v=0
553995 On ch=2 n=b5 v=100
554007 On ch=2 n=c#6 v=0
554115 On ch=2 n=f#5 v=100
554127 On ch=2 n=b5 v=0
554235 On ch=2 n=d#5 v=100
554247 On ch=2 n=f#5 v=0
554355 On ch=2 n=e6 v=100
554367 On ch=2 n=d#5 v=0
554475 On ch=2 n=d#6 v=100
554487 On ch=2 n=e6 v=0
554595 On ch=2 n=b5 v=100
554607 On ch=2 n=d#6 v=0
554715 On ch=2 n=f#5 v=100
554727 On ch=2 n=b5 v=0
554835 On ch=2 n=g#6 v=100
554847 On ch=2 n=f#5 v=0
554955 On ch=2 n=f#6 v=100
554967 On ch=2 n=g#6 v=0
555075 On ch=2 n=d#6 v=100
555087 On ch=2 n=f#6 v=0
555195 On ch=2 n=b5 v=100
555207 On ch=2 n=d#6 v=0
555315 On ch=2 n=c#7 v=100
555327 On ch=2 n=b5 v=0
555435 On ch=2 n=b6 v=100
555447 On ch=2 n=c#7 v=0
555555 On ch=2 n=f#6 v=100
555567 On ch=2 n=b6 v=0
555675 On ch=2 n=d#6 v=100
555687 On ch=2 n=f#6 v=0
555795 On ch=2 n=e7 v=100
555807 On ch=2 n=d#6 v=0
555915 On ch=2 n=d#7 v=100
555927 On ch=2 n=e7 v=0
556035 On ch=2 n=b6 v=100
556047 On ch=2 n=d#7 v=0
556155 On ch=2 n=f#6 v=100
556167 On ch=2 n=b6 v=0
556275 On ch=2 n=g#7 v=100
556287 On ch=2 n=f#6 v=0
556395 On ch=2 n=f#7 v=100
556407 On ch=2 n=g#7 v=0
556515 On ch=2 n=d#7 v=100
556527 On ch=2 n=f#7 v=0
556635 On ch=2 n=b6 v=100
556647 On ch=2 n=d#7 v=0
556755 On ch=2 n=c#8 v=100
556767 On ch=2 n=b6 v=0
556875 On ch=2 n=b7 v=118
556887 On ch=2 n=c#8 v=0
556995 On ch=2 n=g#7 v=114
557007 On ch=2 n=b7 v=0
557115 On ch=2 n=f#7 v=111
557127 On ch=2 n=g#7 v=0
557235 On ch=2 n=d#7 v=108
557247 On ch=2 n=f#7 v=0
557355 On ch=2 n=b6 v=105
557367 On ch=2 n=d#7 v=0
557475 On ch=2 n=g#6 v=102
557487 On ch=2 n=b6 v=0
557595 On ch=2 n=f#6 v=98
557607 On ch=2 n=g#6 v=0
557715 On ch=2 n=d#6 v=101
557727 On ch=2 n=f#6 v=0
557835 On ch=2 n=b5 v=103
557847 On ch=2 n=d#6 v=0
557955 On ch=2 n=g#5 v=106
557967 On ch=2 n=b5 v=0
558075 On ch=2 n=f#5 v=109
558087 On ch=2 n=g#5 v=0
558195 On ch=2 n=d#5 v=112
558207 On ch=2 n=f#5 v=0
558315 On ch=2 n=b4 v=115
558327 On ch=2 n=d#5 v=0
558435 On ch=2 n=g#4 v=118
558447 On ch=2 n=b4 v=0
558555 On ch=2 n=f#4 v=120
558567 On ch=2 n=g#4 v=0
558675 On ch=2 n=b3 v=123
558687 On ch=2 n=f#4 v=0
559355 On ch=2 n=b3 v=0
559635 On ch=2 n=b4 v=110
559635 On ch=2 n=d#4 v=110
560099 On ch=2 n=d#4 v=0
560099 On ch=2 n=b4 v=0
560115 On ch=2 n=c#5 v=103
560115 On ch=2 n=a#4 v=103
560115 On ch=2 n=e4 v=103
560579 On ch=2 n=e4 v=0
560579 On ch=2 n=a#4 v=0
560579 On ch=2 n=c#5 v=0
560595 On ch=2 n=d#5 v=127
560595 On ch=2 n=b4 v=127
561099 On ch=2 n=b4 v=0
561099 On ch=2 n=d#5 v=0
561555 On ch=2 n=f#6 v=127
561555 On ch=2 n=e6 v=127
561555 On ch=2 n=a#5 v=127
561555 On ch=2 n=f#5 v=127
562483 On ch=2 n=f#6 v=0
562491 On ch=2 n=f#5 v=0
562491 On ch=2 n=a#5 v=0
562491 On ch=2 n=e6 v=0
562515 On ch=2 n=b4 v=116
562515 On ch=2 n=f#4 v=116
562515 On ch=2 n=d#4 v=116
562523 On ch=2 n=d#5 v=116
564427 On ch=2 n=d#4 v=0
564427 On ch=2 n=f#4 v=0
564427 On ch=2 n=b4 v=0
564435 On ch=2 n=d#5 v=0
564435 Meta TrkEnd
TrkEnd
MTrk
0 SeqSpec 43 00 01 00
0 Meta 0x21 00
0 Meta 0x20 01
0 Par ch=2 c=7 v=127
0 Par ch=2 c=10 v=64
0 PrCh ch=2 p=0
2400 On ch=2 n=b3 v=55
2880 On ch=2 n=b3 v=0
2880 On ch=2 n=g4 v=69
2880 On ch=2 n=g3 v=69
3360 On ch=2 n=g3 v=0
3360 On ch=2 n=g4 v=0
3360 On ch=2 n=e3 v=82
3360 On ch=2 n=e4 v=82
3840 On ch=2 n=e4 v=0
3840 On ch=2 n=e3 v=0
3840 On ch=2 n=c#4 v=111
3840 On ch=2 n=f#3 v=111
3840 On ch=2 n=f#3 v=111
3840 On ch=2 n=f#4 v=111
4320 On ch=2 n=f#4 v=0
4320 On ch=2 n=f#3 v=0
4320 On ch=2 n=f#3 v=0
4320 On ch=2 n=c#4 v=0
4560 On ch=2 n=e4 v=86
4560 On ch=2 n=e3 v=86
4800 On ch=2 n=e3 v=0
4800 On ch=2 n=e4 v=0
4800 On ch=2 n=d4 v=79
4800 On ch=2 n=d3 v=79
5040 On ch=2 n=d3 v=0
5040 On ch=2 n=d4 v=0
5040 On ch=2 n=a#2 v=82
5040 On ch=2 n=a#3 v=82
5280 On ch=2 n=a#3 v=0
5280 On ch=2 n=a#2 v=0
5280 On ch=2 n=b3 v=90
5280 On ch=2 n=b2 v=90
5280 On ch=2 n=b2 v=90
5280 On ch=2 n=b3 v=90
5520 On ch=2 n=b3 v=0
5520 On ch=2 n=b2 v=0
5520 On ch=2 n=b2 v=0
5520 On ch=2 n=b3 v=0
5520 On ch=2 n=b4 v=98
5520 On ch=2 n=e4 v=98
5520 On ch=2 n=b3 v=98
5520 On ch=2 n=g4 v=98
5760 On ch=2 n=g4 v=0
5760 On ch=2 n=b3 v=0
5760 On ch=2 n=e4 v=0
5760 On ch=2 n=b4 v=0
5760 On ch=2 n=f#4 v=90
5760 On ch=2 n=b4 v=90
5760 On ch=2 n=d4 v=90
5760 On ch=2 n=b3 v=90
6720 On ch=2 n=b3 v=0
6720 On ch=2 n=d4 v=0
6720 On ch=2 n=b4 v=0
6720 On ch=2 n=f#4 v=0
6720 On ch=2 n=b3 v=112
6720 On ch=2 n=g4 v=112
6720 On ch=2 n=e4 v=112
6720 On ch=2 n=b4 v=112
7440 On ch=2 n=b4 v=0
7440 On ch=2 n=e4 v=0
7440 On ch=2 n=g4 v=0
7440 On ch=2 n=b3 v=0
7440 On ch=2 n=g4 v=71
7440 On ch=2 n=b3 v=71
7440 On ch=2 n=e4 v=71
7440 On ch=2 n=c#5 v=71
7680 On ch=2 n=c#5 v=0
7680 On ch=2 n=e4 v=0
7680 On ch=2 n=b3 v=0
7680 On ch=2 n=g4 v=0
7680 On ch=2 n=b3 v=46
7680 On ch=2 n=d5 v=46
7680 On ch=2 n=f#4 v=46
7680 On ch=2 n=d5 v=46
7680 On ch=2 n=b3 v=46
8640 On ch=2 n=b3 v=0
8640 On ch=2 n=d5 v=0
8640 On ch=2 n=f#4 v=0
8640 On ch=2 n=d5 v=0
8640 On ch=2 n=b3 v=0
10080 On ch=2 n=b3 v=81
10550 On ch=2 n=b3 v=0
10560 On ch=2 n=g4 v=92
10560 On ch=2 n=g3 v=92
11030 On ch=2 n=g3 v=0
11030 On ch=2 n=g4 v=0
11040 On ch=2 n=e4 v=103
11040 On ch=2 n=e3 v=103
11510 On ch=2 n=e3 v=0
11510 On ch=2 n=e4 v=0
11520 On ch=2 n=b2 v=114
11520 On ch=2 n=b3 v=114
11990 On ch=2 n=b3 v=0
11990 On ch=2 n=b2 v=0
12240 On ch=2 n=b3 v=113
12240 On ch=2 n=b2 v=113
12475 On ch=2 n=b2 v=0
12475 On ch=2 n=b3 v=0
12480 On ch=2 n=a3 v=123
12480 On ch=2 n=a2 v=123
12715 On ch=2 n=a2 v=0
12715 On ch=2 n=a3 v=0
12720 On ch=2 n=f3 v=108
12720 On ch=2 n=f2 v=108
12955 On ch=2 n=f2 v=0
12955 On ch=2 n=f3 v=0
12960 On ch=2 n=f#3 v=127
12960 On ch=2 n=f#2 v=127
13195 On ch=2 n=f#2 v=0
13195 On ch=2 n=f#3 v=0
13200 On ch=2 n=d3 v=116
13200 On ch=2 n=d2 v=116
13435 On ch=2 n=d2 v=0
13435 On ch=2 n=d3 v=0
13440 On ch=2 n=c#2 v=127
13440 On ch=2 n=c#3 v=127
13440 On ch=2 n=c#3 v=127
14380 On ch=2 n=c#3 v=0
14380 On ch=2 n=c#3 v=0
14380 On ch=2 n=c#2 v=0
14400 On ch=2 n=c#3 v=100
14400 On ch=2 n=c#4 v=100
14400 On ch=2 n=c#3 v=125
15105 On ch=2 n=c#3 v=0
15105 On ch=2 n=c#4 v=0
15105 On ch=2 n=c#3 v=0
15120 On ch=2 n=c#4 v=118
15120 On ch=2 n=c#3 v=118
15355 On ch=2 n=c#3 v=0
15355 On ch=2 n=c#4 v=0
15360 On ch=2 n=f#4 v=125
15360 On ch=2 n=f#4 v=125
15360 On ch=2 n=f#3 v=125
15484 On ch=2 n=f#3 v=0
15484 On ch=2 n=f#4 v=0
15484 On ch=2 n=f#4 v=0
15840 On ch=2 n=b3 v=127
15840 On ch=2 n=b2 v=127
16041 On ch=2 n=b2 v=0
16041 On ch=2 n=b3 v=0
17760 On ch=2 n=e3 v=37
18230 On ch=2 n=e3 v=0
18240 On ch=2 n=c3 v=44
18240 On ch=2 n=c4 v=44
18710 On ch=2 n=c4 v=0
18710 On ch=2 n=c3 v=0
18720 On ch=2 n=a3 v=50
18720 On ch=2 n=a2 v=50
19190 On ch=2 n=a2 v=0
19190 On ch=2 n=a3 v=0
19200 On ch=2 n=b3 v=57
19200 On ch=2 n=b2 v=57
19670 On ch=2 n=b2 v=0
19670 On ch=2 n=b3 v=0
19920 On ch=2 n=b3 v=38
19920 On ch=2 n=a3 v=38
20155 On ch=2 n=a3 v=0
20155 On ch=2 n=b3 v=0
20160 On ch=2 n=g3 v=42
20160 On ch=2 n=b3 v=42
20395 On ch=2 n=b3 v=0
20395 On ch=2 n=g3 v=0
20400 On ch=2 n=b3 v=36
20400 On ch=2 n=d#3 v=36
20635 On ch=2 n=d#3 v=0
20635 On ch=2 n=b3 v=0
20640 On ch=2 n=b3 v=40
20640 On ch=2 n=e3 v=40
20640 On ch=2 n=e3 v=40
20875 On ch=2 n=e3 v=0
20875 On ch=2 n=e3 v=0
20875 On ch=2 n=b3 v=0
20880 On ch=2 n=e3 v=44
20880 On ch=2 n=c4 v=44
21115 On ch=2 n=c4 v=0
21115 On ch=2 n=e3 v=0
21120 On ch=2 n=e3 v=37
21120 On ch=2 n=b3 v=37
21120 On ch=2 n=g4 v=37
21120 On ch=2 n=e3 v=37
21590 On ch=2 n=e3 v=0
21590 On ch=2 n=g4 v=0
21590 On ch=2 n=b3 v=0
21590 On ch=2 n=e3 v=0
21600 On ch=2 n=d#3 v=67
21720 On ch=2 n=e3 v=54
21720 On ch=2 n=e3 v=54
21724 On ch=2 n=d#3 v=0
21840 On ch=2 n=g3 v=59
21844 On ch=2 n=e3 v=0
21844 On ch=2 n=e3 v=0
21957 On ch=2 n=g3 v=0
21960 On ch=2 n=b3 v=65
21960 On ch=2 n=b3 v=65
22077 On ch=2 n=b3 v=0
22077 On ch=2 n=b3 v=0
22080 On ch=2 n=e4 v=70
22550 On ch=2 n=e4 v=0
22560 On ch=2 n=d#4 v=70
22680 On ch=2 n=e4 v=63
22684 On ch=2 n=d#4 v=0
22800 On ch=2 n=a4 v=55
22804 On ch=2 n=e4 v=0
22917 On ch=2 n=a4 v=0
22920 On ch=2 n=c5 v=48
23037 On ch=2 n=c5 v=0
24240 On ch=2 n=e5 v=62
24475 On ch=2 n=e5 v=0
24480 On ch=2 n=c5 v=56
24597 On ch=2 n=c5 v=0
24600 On ch=2 n=b4 v=53
24717 On ch=2 n=b4 v=0
24720 On ch=2 n=g4 v=47
24837 On ch=2 n=g4 v=0
24840 On ch=2 n=e4 v=52
24957 On ch=2 n=e4 v=0
24960 On ch=2 n=c4 v=57
25440 On ch=2 n=c3 v=47
25910 On ch=2 n=c3 v=0
25920 On ch=2 n=f3 v=41
26155 On ch=2 n=f3 v=0
26160 On ch=2 n=c4 v=0
26280 On ch=2 n=f5 v=71
26397 On ch=2 n=f5 v=0
26400 On ch=2 n=d5 v=67
26517 On ch=2 n=d5 v=0
26520 On ch=2 n=c5 v=63
26637 On ch=2 n=c5 v=0
26640 On ch=2 n=a4 v=56
26757 On ch=2 n=a4 v=0
26760 On ch=2 n=f4 v=61
26877 On ch=2 n=f4 v=0
26880 On ch=2 n=c#4 v=65
27360 On ch=2 n=c#3 v=30
27830 On ch=2 n=c#3 v=0
27840 On ch=2 n=f#3 v=38
27840 On ch=2 n=f#3 v=38
28075 On ch=2 n=f#3 v=0
28075 On ch=2 n=f#3 v=0
28080 On ch=2 n=c#4 v=0
28200 Par ch=2 c=64 v=127
28200 On ch=2 n=f#2 v=127
28317 On ch=2 n=f#2 v=0
28320 On ch=2 n=f#3 v=127
28437 On ch=2 n=f#3 v=0
28440 On ch=2 n=c#4 v=88
28440 On ch=2 n=c#4 v=88
28557 On ch=2 n=c#4 v=0
28557 On ch=2 n=c#4 v=0
28560 On ch=2 n=f#4 v=94
28677 On ch=2 n=f#4 v=0
28680 On ch=2 n=a#4 v=100
28797 On ch=2 n=a#4 v=0
28800 On ch=2 n=d4 v=106
29035 On ch=2 n=d4 v=0
29160 Par ch=2 c=64 v=127
29160 On ch=2 n=f#2 v=127
29277 On ch=2 n=f#2 v=0
29280 On ch=2 n=f#3 v=123
29397 On ch=2 n=f#3 v=0
29400 On ch=2 n=d4 v=100
29517 On ch=2 n=d4 v=0
29520 On ch=2 n=g4 v=107
29637 On ch=2 n=g4 v=0
29640 On ch=2 n=b4 v=113
29757 On ch=2 n=b4 v=0
29760 Par ch=2 c=64 v=127
29760 On ch=2 n=d#4 v=119
29995 On ch=2 n=d#4 v=0
30120 On ch=2 n=f#2 v=114
30237 On ch=2 n=f#2 v=0
30240 On ch=2 n=f#3 v=123
30357 On ch=2 n=f#3 v=0
30360 On ch=2 n=d4 v=97
30477 On ch=2 n=d4 v=0
30480 On ch=2 n=g#4 v=103
30597 On ch=2 n=g#4 v=0
30600 On ch=2 n=c5 v=109
30717 On ch=2 n=c5 v=0
30720 Par ch=2 c=64 v=127
30720 On ch=2 n=e4 v=121
30955 On ch=2 n=e4 v=0
31080 On ch=2 n=f#2 v=123
31080 On ch=2 n=f#2 v=123
31197 On ch=2 n=f#2 v=0
31197 On ch=2 n=f#2 v=0
31200 On ch=2 n=f#3 v=126
31317 On ch=2 n=f#3 v=0
31320 On ch=2 n=e4 v=101
31320 On ch=2 n=e4 v=101
31320 On ch=2 n=e4 v=101
31320 On ch=2 n=e4 v=101
31437 On ch=2 n=e4 v=0
31437 On ch=2 n=e4 v=0
31437 On ch=2 n=e4 v=0
31437 On ch=2 n=e4 v=0
31440 On ch=2 n=a4 v=108
31557 On ch=2 n=a4 v=0
31560 On ch=2 n=c#5 v=117
31666 Par ch=2 c=64 v=0
31677 On ch=2 n=c#5 v=0
31680 Par ch=2 c=64 v=127
31680 On ch=2 n=f#4 v=124
31680 On ch=2 n=e5 v=124
31915 On ch=2 n=e5 v=0
31915 On ch=2 n=f#4 v=0
32040 On ch=2 n=f#2 v=124
32157 On ch=2 n=f#2 v=0
32160 On ch=2 n=f#3 v=127
32277 On ch=2 n=f#3 v=0
32280 On ch=2 n=c#4 v=111
32397 On ch=2 n=c#4 v=0
32400 On ch=2 n=f#4 v=116
32517 On ch=2 n=f#4 v=0
32520 On ch=2 n=e5 v=122
32530 Par ch=2 c=64 v=0
32557 Par ch=2 c=64 v=0
32637 On ch=2 n=e5 v=0
32640 On ch=2 n=f4 v=100
32640 On ch=2 n=d5 v=100
32640 On ch=2 n=f5 v=100
33110 On ch=2 n=f5 v=0
33110 On ch=2 n=d5 v=0
33110 On ch=2 n=f4 v=0
33120 On ch=2 n=d4 v=100
33120 On ch=2 n=d3 v=100
33590 On ch=2 n=d3 v=0
33590 On ch=2 n=d4 v=0
33600 On ch=2 n=d#4 v=94
33600 On ch=2 n=d#3 v=94
34070 On ch=2 n=d#3 v=0
34070 On ch=2 n=d#4 v=0
34080 On ch=2 n=f4 v=79
34080 On ch=2 n=f3 v=79
34550 On ch=2 n=f3 v=0
34550 On ch=2 n=f4 v=0
34560 On ch=2 n=a#4 v=65
34560 On ch=2 n=a#3 v=65
34716 On ch=2 n=a#3 v=0
34716 On ch=2 n=a#4 v=0
34720 On ch=2 n=a4 v=40
34720 On ch=2 n=a3 v=40
34876 On ch=2 n=a3 v=0
34876 On ch=2 n=a4 v=0
34880 On ch=2 n=g4 v=44
34880 On ch=2 n=g3 v=44
35036 On ch=2 n=g3 v=0
35036 On ch=2 n=g4 v=0
35040 On ch=2 n=a#3 v=46
35040 On ch=2 n=a#2 v=46
35510 On ch=2 n=a#2 v=0
35510 On ch=2 n=a#3 v=0
35520 On ch=2 n=c4 v=49
35520 On ch=2 n=c3 v=49
35990 On ch=2 n=c3 v=0
35990 On ch=2 n=c4 v=0
36000 On ch=2 n=d4 v=58
36000 On ch=2 n=d3 v=58
36470 On ch=2 n=d3 v=0
36470 On ch=2 n=d4 v=0
36480 On ch=2 n=e4 v=108
36480 On ch=2 n=c#4 v=108
36480 On ch=2 n=a#3 v=108
36480 On ch=2 n=e3 v=108
36916 On ch=2 n=e3 v=0
36916 On ch=2 n=a#3 v=0
36916 On ch=2 n=c#4 v=0
36916 On ch=2 n=e4 v=0
36960 On ch=2 n=f#4 v=88
36960 Par ch=2 c=64 v=127
37080 On ch=2 n=g4 v=83
37082 On ch=2 n=f#4 v=0
37200 On ch=2 n=a#4 v=88
37202 On ch=2 n=g4 v=0
37320 On ch=2 n=c#5 v=95
37322 On ch=2 n=a#4 v=0
37347 Par ch=2 c=64 v=0
37442 On ch=2 n=c#5 v=0
37920 Par ch=2 c=64 v=127
37920 On ch=2 n=e4 v=114
37920 On ch=2 n=c#5 v=114
37920 On ch=2 n=g5 v=114
37920 On ch=2 n=a#4 v=114
38347 Par ch=2 c=64 v=0
38384 On ch=2 n=a#4 v=0
38400 Par ch=2 c=64 v=127
38400 On ch=2 n=f4 v=109
38400 On ch=2 n=g#4 v=109
38400 On ch=2 n=a#4 v=109
38400 On ch=2 n=d5 v=109
38400 On ch=2 n=g#5 v=109
38409 On ch=2 n=g5 v=0
38409 On ch=2 n=c#5 v=0
38409 On ch=2 n=e4 v=0
38640 On ch=2 n=g#5 v=0
38640 On ch=2 n=d5 v=0
38644 On ch=2 n=a#4 v=0
38644 On ch=2 n=g#4 v=0
38644 On ch=2 n=f4 v=0
39840 Par ch=2 c=64 v=0
40320 On ch=2 n=g#5 v=100
40440 On ch=2 n=g5 v=108
40441 On ch=2 n=g#5 v=0
40560 On ch=2 n=f5 v=105
40561 On ch=2 n=g5 v=0
40680 On ch=2 n=d#5 v=102
40681 On ch=2 n=f5 v=0
40800 On ch=2 n=d5 v=98
40801 On ch=2 n=d#5 v=0
40920 On ch=2 n=b4 v=95
40921 On ch=2 n=d5 v=0
41040 On ch=2 n=g#4 v=93
41041 On ch=2 n=b4 v=0
41160 On ch=2 n=d#4 v=89
41161 On ch=2 n=g#4 v=0
41281 On ch=2 n=d#4 v=0
41288 On ch=2 n=d4 v=86
41400 On ch=2 n=a#3 v=83
41409 On ch=2 n=d4 v=0
41521 On ch=2 n=a#3 v=0
41528 On ch=2 n=a3 v=79
41640 On ch=2 n=a#3 v=76
41649 On ch=2 n=a3 v=0
41760 On ch=2 n=a#4 v=74
41760 On ch=2 n=f#5 v=74
41761 On ch=2 n=a#3 v=0
42002 On ch=2 n=f#5 v=0
42002 On ch=2 n=a#4 v=0
42120 On ch=2 n=f#5 v=56
42120 On ch=2 n=a#4 v=56
42240 On ch=2 n=a#2 v=55
42241 On ch=2 n=a#4 v=0
42241 On ch=2 n=f#5 v=0
42720 On ch=2 n=a2 v=35
42724 On ch=2 n=a#2 v=0
43200 On ch=2 n=g#2 v=47
43204 On ch=2 n=a2 v=0
43680 On ch=2 n=g2 v=60
43684 On ch=2 n=g#2 v=0
44160 On ch=2 n=f2 v=117
44160 On ch=2 n=f2 v=117
44164 On ch=2 n=g2 v=0
44400 On ch=2 n=a2 v=118
44402 On ch=2 n=f2 v=0
44402 On ch=2 n=f2 v=0
44520 On ch=2 n=a#2 v=111
44521 On ch=2 n=a2 v=0
44640 On ch=2 n=b2 v=109
44641 On ch=2 n=a#2 v=0
44760 On ch=2 n=c3 v=107
44761 On ch=2 n=b2 v=0
44880 On ch=2 n=c#3 v=105
44881 On ch=2 n=c3 v=0
45000 On ch=2 n=d3 v=103
45001 On ch=2 n=c#3 v=0
45120 On ch=2 n=d#3 v=101
45121 On ch=2 n=d3 v=0
45240 On ch=2 n=e3 v=98
45241 On ch=2 n=d#3 v=0
45360 On ch=2 n=f3 v=96
45361 On ch=2 n=e3 v=0
45480 On ch=2 n=f#3 v=94
45481 On ch=2 n=f3 v=0
45600 On ch=2 n=g3 v=92
45601 On ch=2 n=f#3 v=0
45720 On ch=2 n=g#3 v=90
45721 On ch=2 n=g3 v=0
45840 On ch=2 n=a3 v=88
45841 On ch=2 n=g#3 v=0
45960 On ch=2 n=a#3 v=86
45961 On ch=2 n=a3 v=0
46080 On ch=2 n=b3 v=84
46081 On ch=2 n=a#3 v=0
46200 On ch=2 n=c4 v=81
46201 On ch=2 n=b3 v=0
46320 On ch=2 n=c#4 v=79
46321 On ch=2 n=c4 v=0
46440 On ch=2 n=d4 v=77
46441 On ch=2 n=c#4 v=0
46560 On ch=2 n=d#4 v=75
46561 On ch=2 n=d4 v=0
46680 On ch=2 n=e4 v=73
46681 On ch=2 n=d#4 v=0
46800 On ch=2 n=f4 v=71
46801 On ch=2 n=e4 v=0
46920 On ch=2 n=f#4 v=69
46921 On ch=2 n=f4 v=0
47040 On ch=2 n=g4 v=66
47041 On ch=2 n=f#4 v=0
47160 On ch=2 n=g#4 v=64
47161 On ch=2 n=g4 v=0
47280 On ch=2 n=a4 v=62
47281 On ch=2 n=g#4 v=0
47400 On ch=2 n=a#4 v=60
47401 On ch=2 n=a4 v=0
47520 On ch=2 n=b4 v=58
47521 On ch=2 n=a#4 v=0
47640 On ch=2 n=c5 v=56
47641 On ch=2 n=b4 v=0
47760 On ch=2 n=c#5 v=54
47761 On ch=2 n=c5 v=0
47880 On ch=2 n=d5 v=51
47881 On ch=2 n=c#5 v=0
48000 On ch=2 n=g2 v=85
48000 On ch=2 n=g2 v=85
48001 On ch=2 n=d5 v=0
48240 On ch=2 n=a2 v=123
48242 On ch=2 n=g2 v=0
48242 On ch=2 n=g2 v=0
48360 On ch=2 n=a#2 v=121
48361 On ch=2 n=a2 v=0
48480 On ch=2 n=b2 v=119
48481 On ch=2 n=a#2 v=0
48601 On ch=2 n=b2 v=0
48608 On ch=2 n=c3 v=117
48720 On ch=2 n=c#3 v=114
48729 On ch=2 n=c3 v=0
48840 On ch=2 n=d3 v=113
48841 On ch=2 n=c#3 v=0
48960 On ch=2 n=d#3 v=110
48961 On ch=2 n=d3 v=0
49080 On ch=2 n=e3 v=108
49081 On ch=2 n=d#3 v=0
49200 On ch=2 n=f3 v=106
49201 On ch=2 n=e3 v=0
49320 On ch=2 n=f#3 v=103
49321 On ch=2 n=f3 v=0
49440 On ch=2 n=g3 v=101
49441 On ch=2 n=f#3 v=0
49560 On ch=2 n=g#3 v=98
49561 On ch=2 n=g3 v=0
49680 On ch=2 n=a3 v=97
49681 On ch=2 n=g#3 v=0
49800 On ch=2 n=a#3 v=94
49801 On ch=2 n=a3 v=0
49920 On ch=2 n=b3 v=92
49921 On ch=2 n=a#3 v=0
50040 On ch=2 n=c4 v=90
50041 On ch=2 n=b3 v=0
50160 On ch=2 n=c#4 v=88
50161 On ch=2 n=c4 v=0
50280 On ch=2 n=d4 v=85
50281 On ch=2 n=c#4 v=0
50400 On ch=2 n=d#4 v=84
50401 On ch=2 n=d4 v=0
50520 On ch=2 n=e4 v=81
50521 On ch=2 n=d#4 v=0
50640 On ch=2 n=f4 v=79
50641 On ch=2 n=e4 v=0
50760 On ch=2 n=f#4 v=77
50761 On ch=2 n=f4 v=0
50880 On ch=2 n=g4 v=74
50881 On ch=2 n=f#4 v=0
51000 On ch=2 n=g#4 v=72
51001 On ch=2 n=g4 v=0
51120 On ch=2 n=a4 v=69
51121 On ch=2 n=g#4 v=0
51240 On ch=2 n=a#4 v=68
51241 On ch=2 n=a4 v=0
51360 On ch=2 n=b4 v=65
51361 On ch=2 n=a#4 v=0
51480 On ch=2 n=c5 v=63
51481 On ch=2 n=b4 v=0
51600 On ch=2 n=c#5 v=61
51601 On ch=2 n=c5 v=0
51720 On ch=2 n=d5 v=59
51721 On ch=2 n=c#5 v=0
51840 On ch=2 n=g2 v=91
51840 On ch=2 n=g2 v=91
51841 On ch=2 n=d5 v=0
52200 On ch=2 n=a#2 v=109
52203 On ch=2 n=g2 v=0
52203 On ch=2 n=g2 v=0
52320 On ch=2 n=b2 v=108
52321 On ch=2 n=a#2 v=0
52440 On ch=2 n=c3 v=105
52441 On ch=2 n=b2 v=0
52560 On ch=2 n=c#3 v=103
52561 On ch=2 n=c3 v=0
52680 On ch=2 n=d3 v=101
52681 On ch=2 n=c#3 v=0
52800 On ch=2 n=d#3 v=99
52801 On ch=2 n=d3 v=0
52920 On ch=2 n=e3 v=97
52921 On ch=2 n=d#3 v=0
53040 On ch=2 n=f3 v=95
53041 On ch=2 n=e3 v=0
53160 On ch=2 n=f#3 v=93
53161 On ch=2 n=f3 v=0
53280 On ch=2 n=g3 v=90
53281 On ch=2 n=f#3 v=0
53400 On ch=2 n=g#3 v=88
53401 On ch=2 n=g3 v=0
53520 On ch=2 n=a3 v=86
53521 On ch=2 n=g#3 v=0
53640 On ch=2 n=a#3 v=84
53641 On ch=2 n=a3 v=0
53760 On ch=2 n=b3 v=82
53761 On ch=2 n=a#3 v=0
53880 On ch=2 n=c4 v=85
53881 On ch=2 n=b3 v=0
54000 On ch=2 n=c#4 v=80
54001 On ch=2 n=c4 v=0
54120 On ch=2 n=d4 v=83
54121 On ch=2 n=c#4 v=0
54240 On ch=2 n=d#4 v=84
54241 On ch=2 n=d4 v=0
54360 On ch=2 n=e4 v=87
54361 On ch=2 n=d#4 v=0
54480 On ch=2 n=f4 v=89
54481 On ch=2 n=e4 v=0
54600 On ch=2 n=f#4 v=91
54601 On ch=2 n=f4 v=0
54720 On ch=2 n=g4 v=93
54721 On ch=2 n=f#4 v=0
54840 On ch=2 n=g#4 v=95
54841 On ch=2 n=g4 v=0
54960 On ch=2 n=a4 v=98
54961 On ch=2 n=g#4 v=0
55080 On ch=2 n=a#4 v=100
55081 On ch=2 n=a4 v=0
55200 On ch=2 n=b4 v=102
55201 On ch=2 n=a#4 v=0
55320 On ch=2 n=c5 v=104
55321 On ch=2 n=b4 v=0
55440 On ch=2 n=c#5 v=107
55441 On ch=2 n=c5 v=0
55560 On ch=2 n=d5 v=108
55561 On ch=2 n=c#5 v=0
55680 On ch=2 n=d#5 v=111
55681 On ch=2 n=d5 v=0
55692 Par ch=2 c=64 v=127
56160 On ch=2 n=d#3 v=127
56164 On ch=2 n=d#5 v=0
56318 On ch=2 n=d#3 v=0
56320 On ch=2 n=g4 v=127
56478 On ch=2 n=g4 v=0
56480 On ch=2 n=a#3 v=127
56638 On ch=2 n=a#3 v=0
56640 On ch=2 n=g#4 v=127
56798 On ch=2 n=g#4 v=0
56800 On ch=2 n=g4 v=127
56958 On ch=2 n=g4 v=0
56960 On ch=2 n=a#3 v=127
57118 On ch=2 n=a#3 v=0
57120 Par ch=2 c=64 v=127
57120 On ch=2 n=d#3 v=127
57278 On ch=2 n=d#3 v=0
57280 On ch=2 n=d#5 v=127
57438 On ch=2 n=d#5 v=0
57440 On ch=2 n=a#4 v=127
57598 On ch=2 n=a#4 v=0
57920 On ch=2 n=a#4 v=127
58078 On ch=2 n=a#4 v=0
58080 Par ch=2 c=64 v=127
58080 On ch=2 n=d#4 v=127
58238 On ch=2 n=d#4 v=0
58240 On ch=2 n=a#5 v=127
58398 On ch=2 n=a#5 v=0
58400 On ch=2 n=a#4 v=127
58400 On ch=2 n=a#4 v=127
58558 On ch=2 n=a#4 v=0
58558 On ch=2 n=a#4 v=0
59360 Par ch=2 c=64 v=0
59520 On ch=2 n=c#3 v=100
59760 On ch=2 n=e4 v=79
59760 On ch=2 n=a3 v=79
60000 On ch=2 n=d3 v=92
60024 On ch=2 n=a3 v=0
60024 On ch=2 n=e4 v=0
60032 On ch=2 n=c#3 v=0
60240 On ch=2 n=a3 v=78
60272 On ch=2 n=d3 v=0
60480 On ch=2 n=a2 v=92
60496 On ch=2 n=a3 v=0
60720 On ch=2 n=c#3 v=87
60720 On ch=2 n=a3 v=87
60760 On ch=2 n=a2 v=0
60960 On ch=2 n=d3 v=94
60976 On ch=2 n=a3 v=0
60992 On ch=2 n=c#3 v=0
61200 On ch=2 n=f4 v=113
61232 On ch=2 n=d3 v=0
61440 On ch=2 n=e3 v=93
61456 On ch=2 n=f4 v=0
61680 On ch=2 n=g4 v=84
61680 On ch=2 n=c4 v=84
61704 On ch=2 n=e3 v=0
61920 On ch=2 n=f3 v=100
61936 On ch=2 n=c4 v=0
61944 On ch=2 n=g4 v=0
62160 On ch=2 n=a4 v=103
62160 On ch=2 n=c4 v=103
62184 On ch=2 n=f3 v=0
62400 On ch=2 n=g#3 v=105
62408 On ch=2 n=c4 v=0
62424 On ch=2 n=a4 v=0
62640 On ch=2 n=d5 v=107
62640 On ch=2 n=b4 v=107
62640 On ch=2 n=e4 v=107
62672 On ch=2 n=g#3 v=0
62880 On ch=2 n=a3 v=109
62896 On ch=2 n=e4 v=0
62904 On ch=2 n=b4 v=0
62904 On ch=2 n=d5 v=0
63120 On ch=2 n=c#4 v=111
63120 On ch=2 n=a#4 v=111
63120 On ch=2 n=e5 v=111
63160 On ch=2 n=a3 v=0
63360 On ch=2 n=d4 v=112
63360 On ch=2 n=a4 v=112
63360 On ch=2 n=f5 v=112
63360 On ch=2 n=d4 v=113
63360 On ch=2 n=a4 v=113
63360 On ch=2 n=f5 v=113
63384 On ch=2 n=e5 v=0
63384 On ch=2 n=a#4 v=0
63384 On ch=2 n=c#4 v=0
63600 On ch=2 n=a3 v=127
63600 On ch=2 n=a2 v=127
63612 On ch=2 n=f5 v=0
63612 On ch=2 n=a4 v=0
63612 On ch=2 n=d4 v=0
63612 On ch=2 n=f5 v=0
63612 On ch=2 n=a4 v=0
63612 On ch=2 n=d4 v=0
64080 On ch=2 n=g4 v=100
64080 On ch=2 n=c#5 v=100
64336 On ch=2 n=c#5 v=0
64336 On ch=2 n=g4 v=0
64344 On ch=2 n=a2 v=0
64352 On ch=2 n=a3 v=0
64560 On ch=2 n=a2 v=127
64560 On ch=2 n=a3 v=127
65040 On ch=2 n=f4 v=100
65040 On ch=2 n=a4 v=100
65184 On ch=2 n=a2 v=0
65200 On ch=2 n=a3 v=0
65296 On ch=2 n=a4 v=0
65304 On ch=2 n=f4 v=0
65520 On ch=2 n=a3 v=127
65520 On ch=2 n=a3 v=127
65520 On ch=2 n=a2 v=100
65520 On ch=2 n=a2 v=100
66000 On ch=2 n=a#4 v=100
66256 On ch=2 n=a#4 v=0
66276 On ch=2 n=a2 v=0
66276 On ch=2 n=a2 v=0
66276 On ch=2 n=a3 v=0
66276 On ch=2 n=a3 v=0
66480 On ch=2 n=a2 v=127
66480 On ch=2 n=a2 v=127
66480 On ch=2 n=a3 v=127
66480 On ch=2 n=a3 v=127
66960 On ch=2 n=g#4 v=100
66960 On ch=2 n=g#4 v=100
67200 On ch=2 n=a4 v=124
67200 On ch=2 n=a4 v=124
67216 On ch=2 n=g#4 v=0
67216 On ch=2 n=g#4 v=0
67236 On ch=2 n=a2 v=0
67236 On ch=2 n=a2 v=0
67440 On ch=2 n=a#4 v=125
67440 On ch=2 n=a#4 v=125
67456 On ch=2 n=a3 v=0
67456 On ch=2 n=a3 v=0
67472 On ch=2 n=a4 v=0
67472 On ch=2 n=a4 v=0
68160 On ch=2 n=a3 v=103
68160 On ch=2 n=a3 v=103
68192 On ch=2 n=a#4 v=0
68192 On ch=2 n=a#4 v=0
68400 On ch=2 n=e4 v=116
68400 On ch=2 n=a#4 v=116
69112 On ch=2 n=a3 v=0
69112 On ch=2 n=a3 v=0
69120 On ch=2 n=a3 v=113
69120 On ch=2 n=a3 v=113
69156 On ch=2 n=a#4 v=0
69156 On ch=2 n=e4 v=0
69360 On ch=2 n=a#4 v=123
69360 On ch=2 n=a#4 v=123
69360 On ch=2 n=e4 v=123
69360 On ch=2 n=e4 v=123
70064 On ch=2 n=a3 v=0
70064 On ch=2 n=a3 v=0
70080 On ch=2 n=a3 v=108
70080 On ch=2 n=a3 v=108
70116 On ch=2 n=e4 v=0
70116 On ch=2 n=e4 v=0
70116 On ch=2 n=a#4 v=0
70116 On ch=2 n=a#4 v=0
70320 On ch=2 n=e4 v=117
70320 On ch=2 n=a#4 v=117
71032 On ch=2 n=a3 v=0
71032 On ch=2 n=a3 v=0
71040 On ch=2 n=a3 v=106
71040 On ch=2 n=a3 v=106
71076 On ch=2 n=a#4 v=0
71076 On ch=2 n=e4 v=0
71280 On ch=2 n=e4 v=118
71280 On ch=2 n=a#4 v=118
71736 On ch=2 n=a#4 v=0
71760 On ch=2 n=a4 v=127
72024 On ch=2 n=a4 v=0
72036 On ch=2 n=e4 v=0
72040 On ch=2 n=a3 v=0
72040 On ch=2 n=a3 v=0
72960 Par ch=2 c=64 v=127
72960 On ch=2 n=a2 v=127
72960 On ch=2 n=a2 v=127
73472 On ch=2 n=a2 v=0
73472 On ch=2 n=a2 v=0
74160 On ch=2 n=e5 v=109
74160 On ch=2 n=e5 v=109
74400 On ch=2 n=a5 v=116
74640 On ch=2 n=c#6 v=122
74880 On ch=2 n=g6 v=127
75392 On ch=2 n=g6 v=0
75392 On ch=2 n=a5 v=0
75392 On ch=2 n=e5 v=0
75392 On ch=2 n=e5 v=0
75396 On ch=2 n=c#6 v=0
77460 Par ch=2 c=64 v=0
78720 On ch=2 n=d3 v=91
78720 Par ch=2 c=64 v=127
78880 On ch=2 n=f#4 v=44
78896 On ch=2 n=d3 v=0
79040 On ch=2 n=d5 v=49
79056 On ch=2 n=f#4 v=0
79200 On ch=2 n=a4 v=53
79216 On ch=2 n=d5 v=0
79360 On ch=2 n=f#4 v=54
79376 On ch=2 n=a4 v=0
79528 Par ch=2 c=64 v=0
79528 On ch=2 n=f#5 v=51
79536 On ch=2 n=f#4 v=0
79680 On ch=2 n=a3 v=66
79680 Par ch=2 c=64 v=127
79704 On ch=2 n=f#5 v=0
79840 On ch=2 n=f#4 v=50
79856 On ch=2 n=a3 v=0
80000 On ch=2 n=d5 v=55
80016 On ch=2 n=f#4 v=0
80160 On ch=2 n=a4 v=58
80176 On ch=2 n=d5 v=0
80320 On ch=2 n=f#4 v=58
80336 On ch=2 n=a4 v=0
80480 Par ch=2 c=64 v=0
80480 On ch=2 n=f#5 v=54
80496 On ch=2 n=f#4 v=0
80640 On ch=2 n=d4 v=68
80640 Par ch=2 c=64 v=127
80656 On ch=2 n=f#5 v=0
80800 On ch=2 n=f#4 v=48
80816 On ch=2 n=d4 v=0
80960 On ch=2 n=d5 v=52
80976 On ch=2 n=f#4 v=0
81120 On ch=2 n=a4 v=54
81136 On ch=2 n=d5 v=0
81280 On ch=2 n=f#4 v=54
81296 On ch=2 n=a4 v=0
81440 Par ch=2 c=64 v=0
81440 On ch=2 n=f#5 v=51
81456 On ch=2 n=f#4 v=0
81600 On ch=2 n=a3 v=59
81600 On ch=2 n=a3 v=59
81600 Par ch=2 c=64 v=127
81600 Par ch=2 c=64 v=127
81616 On ch=2 n=f#5 v=0
81760 On ch=2 n=f#4 v=42
81776 On ch=2 n=a3 v=0
81776 On ch=2 n=a3 v=0
81920 On ch=2 n=d5 v=49
81936 On ch=2 n=f#4 v=0
82088 On ch=2 n=a4 v=52
82096 On ch=2 n=d5 v=0
82240 On ch=2 n=f#4 v=53
82264 On ch=2 n=a4 v=0
82400 Par ch=2 c=64 v=0
82400 On ch=2 n=f#5 v=51
82416 On ch=2 n=f#4 v=0
82560 On ch=2 n=d3 v=62
82560 Par ch=2 c=64 v=127
82576 On ch=2 n=f#5 v=0
82720 On ch=2 n=f#4 v=53
82736 On ch=2 n=d3 v=0
82880 On ch=2 n=d5 v=56
82896 On ch=2 n=f#4 v=0
83040 On ch=2 n=a4 v=59
83056 On ch=2 n=d5 v=0
83200 On ch=2 n=f#4 v=58
83216 On ch=2 n=a4 v=0
83360 Par ch=2 c=64 v=0
83360 On ch=2 n=f#5 v=55
83376 On ch=2 n=f#4 v=0
83520 Par ch=2 c=64 v=127
83520 On ch=2 n=d4 v=61
83536 On ch=2 n=f#5 v=0
83680 On ch=2 n=f#4 v=55
83696 On ch=2 n=d4 v=0
83840 On ch=2 n=d5 v=63
83856 On ch=2 n=f#4 v=0
84000 On ch=2 n=b4 v=66
84016 On ch=2 n=d5 v=0
84160 On ch=2 n=f#4 v=66
84176 On ch=2 n=b4 v=0
84320 Par ch=2 c=64 v=0
84320 On ch=2 n=f#5 v=62
84336 On ch=2 n=f#4 v=0
84480 On ch=2 n=e3 v=67
84480 On ch=2 n=e3 v=67
84480 Par ch=2 c=64 v=127
84480 Par ch=2 c=64 v=127
84480 Par ch=2 c=64 v=127
84480 Par ch=2 c=64 v=127
84480 Par ch=2 c=64 v=127
84480 Par ch=2 c=64 v=127
84480 Par ch=2 c=64 v=127
84480 Par ch=2 c=64 v=127
84496 On ch=2 n=f#5 v=0
84640 On ch=2 n=g4 v=55
84656 On ch=2 n=e3 v=0
84656 On ch=2 n=e3 v=0
84800 On ch=2 n=e5 v=61
84816 On ch=2 n=g4 v=0
84960 On ch=2 n=b4 v=64
84976 On ch=2 n=e5 v=0
85120 On ch=2 n=g4 v=64
85136 On ch=2 n=b4 v=0
85280 Par ch=2 c=64 v=0
85280 On ch=2 n=g5 v=58
85296 On ch=2 n=g4 v=0
85440 On ch=2 n=e4 v=61
85440 On ch=2 n=e4 v=61
85440 Par ch=2 c=64 v=127
85440 Par ch=2 c=64 v=127
85456 On ch=2 n=g5 v=0
85600 On ch=2 n=g4 v=50
85616 On ch=2 n=e4 v=0
85616 On ch=2 n=e4 v=0
85760 On ch=2 n=e5 v=56
85776 On ch=2 n=g4 v=0
85920 On ch=2 n=c5 v=59
85936 On ch=2 n=e5 v=0
86088 On ch=2 n=g4 v=59
86096 On ch=2 n=c5 v=0
86240 Par ch=2 c=64 v=0
86240 On ch=2 n=g5 v=56
86264 On ch=2 n=g4 v=0
86400 On ch=2 n=e3 v=64
86400 Par ch=2 c=64 v=127
86416 On ch=2 n=g5 v=0
86568 On ch=2 n=g4 v=51
86576 On ch=2 n=e3 v=0
86720 On ch=2 n=e5 v=55
86744 On ch=2 n=g4 v=0
86880 On ch=2 n=c#5 v=58
86896 On ch=2 n=e5 v=0
87040 On ch=2 n=g4 v=57
87056 On ch=2 n=c#5 v=0
87200 Par ch=2 c=64 v=0
87200 On ch=2 n=g5 v=54
87216 On ch=2 n=g4 v=0
87360 On ch=2 n=c#4 v=65
87360 On ch=2 n=c#4 v=65
87360 Par ch=2 c=64 v=127
87360 Par ch=2 c=64 v=127
87376 On ch=2 n=g5 v=0
87520 On ch=2 n=g4 v=52
87536 On ch=2 n=c#4 v=0
87536 On ch=2 n=c#4 v=0
87680 On ch=2 n=e5 v=56
87696 On ch=2 n=g4 v=0
87840 On ch=2 n=c#5 v=59
87856 On ch=2 n=e5 v=0
88000 On ch=2 n=g4 v=58
88016 On ch=2 n=c#5 v=0
88160 Par ch=2 c=64 v=0
88160 On ch=2 n=g5 v=55
88176 On ch=2 n=g4 v=0
88320 On ch=2 n=e4 v=69
88320 Par ch=2 c=64 v=127
88336 On ch=2 n=g5 v=0
88480 On ch=2 n=g4 v=50
88480 On ch=2 n=g4 v=50
88496 On ch=2 n=e4 v=0
88640 On ch=2 n=e5 v=55
88656 On ch=2 n=g4 v=0
88656 On ch=2 n=g4 v=0
88800 On ch=2 n=c#5 v=58
88816 On ch=2 n=e5 v=0
88960 On ch=2 n=g4 v=58
88976 On ch=2 n=c#5 v=0
89120 On ch=2 n=g5 v=70
89120 Par ch=2 c=64 v=0
89120 Par ch=2 c=64 v=0
89136 On ch=2 n=g4 v=0
89280 On ch=2 n=c#4 v=68
89280 Par ch=2 c=64 v=127
89296 On ch=2 n=g5 v=0
89440 On ch=2 n=g4 v=56
89456 On ch=2 n=c#4 v=0
89600 On ch=2 n=e5 v=63
89616 On ch=2 n=g4 v=0
89760 On ch=2 n=c#5 v=66
89776 On ch=2 n=e5 v=0
89920 On ch=2 n=g4 v=65
89936 On ch=2 n=c#5 v=0
90080 Par ch=2 c=64 v=0
90080 On ch=2 n=g5 v=60
90096 On ch=2 n=g4 v=0
90240 Par ch=2 c=64 v=127
90240 On ch=2 n=e3 v=67
90256 On ch=2 n=g5 v=0
90400 On ch=2 n=g4 v=63
90416 On ch=2 n=e3 v=0
90560 On ch=2 n=e5 v=66
90576 On ch=2 n=g4 v=0
90720 On ch=2 n=c#5 v=68
90736 On ch=2 n=e5 v=0
90880 On ch=2 n=g4 v=68
90896 On ch=2 n=c#5 v=0
91040 Par ch=2 c=64 v=0
91040 On ch=2 n=g5 v=67
91056 On ch=2 n=g4 v=0
91200 On ch=2 n=e4 v=75
91200 Par ch=2 c=64 v=127
91216 On ch=2 n=g5 v=0
91360 On ch=2 n=g4 v=68
91376 On ch=2 n=e4 v=0
91520 On ch=2 n=e5 v=73
91536 On ch=2 n=g4 v=0
91680 On ch=2 n=c#5 v=75
91696 On ch=2 n=e5 v=0
91840 On ch=2 n=g4 v=75
91856 On ch=2 n=c#5 v=0
92000 Par ch=2 c=64 v=0
92000 On ch=2 n=g5 v=72
92016 On ch=2 n=g4 v=0
92160 Par ch=2 c=64 v=127
92160 On ch=2 n=f4 v=79
92176 On ch=2 n=g5 v=0
92328 On ch=2 n=b4 v=76
92336 On ch=2 n=f4 v=0
92480 On ch=2 n=g#5 v=80
92504 On ch=2 n=b4 v=0
92640 On ch=2 n=d5 v=82
92656 On ch=2 n=g#5 v=0
92800 On ch=2 n=b4 v=80
92816 On ch=2 n=d5 v=0
92960 Par ch=2 c=64 v=0
92960 On ch=2 n=d6 v=75
92976 On ch=2 n=b4 v=0
93120 On ch=2 n=f#4 v=84
93120 Par ch=2 c=64 v=127
93136 On ch=2 n=d6 v=0
93280 On ch=2 n=a4 v=81
93296 On ch=2 n=f#4 v=0
93448 On ch=2 n=a5 v=84
93456 On ch=2 n=a4 v=0
93600 On ch=2 n=d5 v=84
93624 On ch=2 n=a5 v=0
93760 On ch=2 n=a4 v=83
93776 On ch=2 n=d5 v=0
93920 Par ch=2 c=64 v=0
93920 On ch=2 n=a5 v=78
93936 On ch=2 n=a4 v=0
94080 Par ch=2 c=64 v=127
94080 Par ch=2 c=64 v=127
94080 On ch=2 n=f#4 v=85
94096 On ch=2 n=a5 v=0
94240 On ch=2 n=c#5 v=80
94256 On ch=2 n=f#4 v=0
94408 On ch=2 n=a#5 v=87
94416 On ch=2 n=c#5 v=0
94560 On ch=2 n=e5 v=88
94584 On ch=2 n=a#5 v=0
94720 On ch=2 n=c#5 v=88
94736 On ch=2 n=e5 v=0
94880 Par ch=2 c=64 v=0
94880 On ch=2 n=a#5 v=84
94896 On ch=2 n=c#5 v=0
95040 Par ch=2 c=64 v=127
95040 On ch=2 n=b4 v=89
95056 On ch=2 n=a#5 v=0
95200 On ch=2 n=a5 v=93
95216 On ch=2 n=b4 v=0
95360 Par ch=2 c=64 v=0
95360 On ch=2 n=d5 v=84
95376 On ch=2 n=a5 v=0
95520 Par ch=2 c=64 v=127
95520 On ch=2 n=e4 v=74
95536 On ch=2 n=d5 v=0
95680 On ch=2 n=g#5 v=84
95696 On ch=2 n=e4 v=0
95840 Par ch=2 c=64 v=0
95840 On ch=2 n=d5 v=77
95856 On ch=2 n=g#5 v=0
96000 Par ch=2 c=64 v=127
96000 On ch=2 n=a4 v=86
96016 On ch=2 n=d5 v=0
96160 On ch=2 n=g5 v=92
96176 On ch=2 n=a4 v=0
96320 Par ch=2 c=64 v=0
96320 On ch=2 n=e5 v=82
96336 On ch=2 n=g5 v=0
96480 Par ch=2 c=64 v=127
96480 On ch=2 n=a3 v=71
96496 On ch=2 n=e5 v=0
96640 On ch=2 n=g5 v=76
96656 On ch=2 n=a3 v=0
96800 Par ch=2 c=64 v=0
96800 On ch=2 n=c#5 v=70
96816 On ch=2 n=g5 v=0
96960 On ch=2 n=d4 v=64
96976 On ch=2 n=c#5 v=0
96985 Par ch=2 c=64 v=127
97120 On ch=2 n=a4 v=74
97136 On ch=2 n=d4 v=0
97280 On ch=2 n=f#5 v=79
97296 On ch=2 n=a4 v=0
97440 On ch=2 n=d5 v=83
97456 On ch=2 n=f#5 v=0
97600 On ch=2 n=a4 v=82
97616 On ch=2 n=d5 v=0
97760 Par ch=2 c=64 v=0
97760 Par ch=2 c=64 v=0
97760 On ch=2 n=a5 v=78
97776 On ch=2 n=a4 v=0
97920 On ch=2 n=g4 v=65
97936 On ch=2 n=a5 v=0
97937 Par ch=2 c=64 v=127
98080 On ch=2 n=c#5 v=46
98096 On ch=2 n=g4 v=0
98240 On ch=2 n=a#5 v=49
98256 On ch=2 n=c#5 v=0
98408 On ch=2 n=e5 v=51
98416 On ch=2 n=a#5 v=0
98560 On ch=2 n=c#5 v=50
98584 On ch=2 n=e5 v=0
98720 Par ch=2 c=64 v=0
98720 On ch=2 n=a#5 v=46
98736 On ch=2 n=c#5 v=0
98880 On ch=2 n=f#4 v=48
98891 Par ch=2 c=64 v=127
98896 On ch=2 n=a#5 v=0
99040 On ch=2 n=a4 v=47
99056 On ch=2 n=f#4 v=0
99200 On ch=2 n=a5 v=54
99216 On ch=2 n=a4 v=0
99360 On ch=2 n=d5 v=59
99376 On ch=2 n=a5 v=0
99520 On ch=2 n=a4 v=62
99536 On ch=2 n=d5 v=0
99680 Par ch=2 c=64 v=0
99680 On ch=2 n=a5 v=60
99696 On ch=2 n=a4 v=0
99848 Par ch=2 c=64 v=127
99848 On ch=2 n=c#4 v=83
99856 On ch=2 n=a5 v=0
100000 On ch=2 n=g4 v=54
100024 On ch=2 n=c#4 v=0
100160 Par ch=2 c=64 v=0
100160 On ch=2 n=e5 v=59
100176 On ch=2 n=g4 v=0
100320 On ch=2 n=a4 v=62
100328 Par ch=2 c=64 v=127
100336 On ch=2 n=e5 v=0
100480 On ch=2 n=g4 v=61
100496 On ch=2 n=a4 v=0
100640 Par ch=2 c=64 v=0
100640 On ch=2 n=e5 v=58
100656 On ch=2 n=g4 v=0
100800 On ch=2 n=d4 v=62
100804 Par ch=2 c=64 v=127
100816 On ch=2 n=e5 v=0
100960 On ch=2 n=f#4 v=56
100976 On ch=2 n=d4 v=0
101120 On ch=2 n=d5 v=73
101136 On ch=2 n=f#4 v=0
101280 On ch=2 n=g#4 v=86
101296 On ch=2 n=d5 v=0
101440 On ch=2 n=f#4 v=93
101456 On ch=2 n=g#4 v=0
101600 Par ch=2 c=64 v=0
101600 On ch=2 n=f#5 v=94
101616 On ch=2 n=f#4 v=0
101760 On ch=2 n=c#4 v=84
101770 Par ch=2 c=64 v=127
101773 On ch=2 n=f#5 v=0
101917 On ch=2 n=f#4 v=77
101933 On ch=2 n=c#4 v=0
102077 On ch=2 n=c#5 v=83
102093 On ch=2 n=f#4 v=0
102237 On ch=2 n=a4 v=85
102253 On ch=2 n=c#5 v=0
102397 On ch=2 n=f#4 v=85
102413 On ch=2 n=a4 v=0
102565 Par ch=2 c=64 v=0
102565 On ch=2 n=c#4 v=81
102573 On ch=2 n=f#4 v=0
102717 On ch=2 n=b3 v=92
102717 On ch=2 n=b3 v=92
102738 Par ch=2 c=64 v=127
102741 On ch=2 n=c#4 v=0
102877 On ch=2 n=f4 v=97
102893 On ch=2 n=b3 v=0
102893 On ch=2 n=b3 v=0
103037 On ch=2 n=c#5 v=100
103053 On ch=2 n=f4 v=0
103197 On ch=2 n=g#4 v=101
103213 On ch=2 n=c#5 v=0
103357 On ch=2 n=f4 v=99
103373 On ch=2 n=g#4 v=0
103517 Par ch=2 c=64 v=0
103517 On ch=2 n=b3 v=93
103533 On ch=2 n=f4 v=0
103677 On ch=2 n=a3 v=94
103693 On ch=2 n=b3 v=0
103705 Par ch=2 c=64 v=127
103837 On ch=2 n=f#4 v=100
103997 On ch=2 n=c#5 v=106
104157 On ch=2 n=f#5 v=112
104373 On ch=2 n=a3 v=0
104381 On ch=2 n=f#4 v=0
104413 On ch=2 n=c#5 v=0
104557 On ch=2 n=f#5 v=0
104610 Par ch=2 c=64 v=0
104637 On ch=2 n=b3 v=94
104649 Par ch=2 c=64 v=127
104797 On ch=2 n=f#4 v=102
104813 On ch=2 n=b3 v=0
104957 On ch=2 n=g#4 v=109
104973 On ch=2 n=f#4 v=0
105117 On ch=2 n=d5 v=116
105133 On ch=2 n=g#4 v=0
105293 On ch=2 n=d5 v=0
105437 On ch=2 n=d4 v=85
105453 Par ch=2 c=64 v=0
105597 On ch=2 n=c#4 v=81
105613 On ch=2 n=d4 v=0
105635 Par ch=2 c=64 v=127
105757 On ch=2 n=f#4 v=73
105773 On ch=2 n=c#4 v=0
105917 On ch=2 n=c#5 v=79
105933 On ch=2 n=f#4 v=0
106077 On ch=2 n=a4 v=82
106093 On ch=2 n=c#5 v=0
106237 On ch=2 n=f#4 v=82
106253 On ch=2 n=a4 v=0
106397 On ch=2 n=c#5 v=77
106413 On ch=2 n=f#4 v=0
106424 Par ch=2 c=64 v=0
106557 On ch=2 n=c#3 v=81
106573 On ch=2 n=c#5 v=0
106575 Par ch=2 c=64 v=127
106717 On ch=2 n=c#4 v=90
106733 On ch=2 n=c#3 v=0
106877 On ch=2 n=g#4 v=91
106893 On ch=2 n=c#4 v=0
107037 On ch=2 n=d5 v=87
107037 On ch=2 n=b4 v=87
107053 On ch=2 n=g#4 v=0
107197 On ch=2 n=c#5 v=79
107205 On ch=2 n=a4 v=79
107213 On ch=2 n=b4 v=0
107213 On ch=2 n=d5 v=0
107357 On ch=2 n=b4 v=69
107357 On ch=2 n=g#4 v=69
107373 On ch=2 n=c#5 v=0
107381 On ch=2 n=a4 v=0
107382 Par ch=2 c=64 v=0
107517 On ch=2 n=f#2 v=87
107533 On ch=2 n=g#4 v=0
107533 On ch=2 n=b4 v=0
107548 Par ch=2 c=64 v=127
107677 On ch=2 n=f#3 v=91
107693 On ch=2 n=f#2 v=0
107837 On ch=2 n=c#4 v=86
107853 On ch=2 n=f#3 v=0
107997 On ch=2 n=a4 v=81
108013 On ch=2 n=c#4 v=0
108157 On ch=2 n=c#5 v=76
108173 On ch=2 n=a4 v=0
108317 On ch=2 n=a5 v=72
108322 Par ch=2 c=64 v=0
108333 On ch=2 n=c#5 v=0
108477 On ch=2 n=f#5 v=67
108493 On ch=2 n=a5 v=0
108496 Par ch=2 c=64 v=127
108597 On ch=2 n=c#5 v=63
108609 On ch=2 n=f#5 v=0
108717 On ch=2 n=a4 v=57
108729 On ch=2 n=c#5 v=0
108845 On ch=2 n=b5 v=62
108849 On ch=2 n=a4 v=0
108957 On ch=2 n=f#5 v=54
108957 On ch=2 n=f#5 v=54
108977 On ch=2 n=b5 v=0
109077 On ch=2 n=c#5 v=46
109089 On ch=2 n=f#5 v=0
109089 On ch=2 n=f#5 v=0
109197 On ch=2 n=a4 v=40
109209 On ch=2 n=c#5 v=0
109317 On ch=2 n=a5 v=62
109317 On ch=2 n=a5 v=62
109317 Par ch=2 c=64 v=0
109317 Par ch=2 c=64 v=0
109329 On ch=2 n=a4 v=0
109437 On ch=2 n=g5 v=54
109437 Par ch=2 c=64 v=127
109449 On ch=2 n=a5 v=0
109449 On ch=2 n=a5 v=0
109557 On ch=2 n=e5 v=49
109569 On ch=2 n=g5 v=0
109677 On ch=2 n=a4 v=43
109689 On ch=2 n=e5 v=0
109805 On ch=2 n=b5 v=61
109809 On ch=2 n=a4 v=0
109917 On ch=2 n=g5 v=57
109937 On ch=2 n=b5 v=0
110037 On ch=2 n=e5 v=52
110049 On ch=2 n=g5 v=0
110157 On ch=2 n=a4 v=48
110169 On ch=2 n=e5 v=0
110277 On ch=2 n=a5 v=59
110289 On ch=2 n=a4 v=0
110380 Par ch=2 c=64 v=0
110397 Par ch=2 c=64 v=127
110397 On ch=2 n=f#5 v=55
110409 On ch=2 n=a5 v=0
110517 On ch=2 n=d5 v=53
110529 On ch=2 n=f#5 v=0
110637 On ch=2 n=a4 v=49
110649 On ch=2 n=d5 v=0
110757 On ch=2 n=b5 v=59
110769 On ch=2 n=a4 v=0
110860 Par ch=2 c=64 v=0
110877 Par ch=2 c=64 v=127
110877 On ch=2 n=g5 v=56
110889 On ch=2 n=b5 v=0
110997 On ch=2 n=c#5 v=53
111009 On ch=2 n=g5 v=0
111117 On ch=2 n=a4 v=49
111129 On ch=2 n=c#5 v=0
111237 On ch=2 n=a5 v=68
111249 On ch=2 n=a4 v=0
111341 Par ch=2 c=64 v=0
111357 Par ch=2 c=64 v=127
111357 On ch=2 n=f#5 v=64
111369 On ch=2 n=a5 v=0
111477 On ch=2 n=d5 v=60
111489 On ch=2 n=f#5 v=0
111597 On ch=2 n=a4 v=57
111609 On ch=2 n=d5 v=0
111717 On ch=2 n=a5 v=69
111729 On ch=2 n=a4 v=0
111821 Par ch=2 c=64 v=0
111837 Par ch=2 c=64 v=127
111837 On ch=2 n=f#5 v=66
111849 On ch=2 n=a5 v=0
111957 On ch=2 n=d#5 v=64
111969 On ch=2 n=f#5 v=0
112077 On ch=2 n=a4 v=60
112089 On ch=2 n=d#5 v=0
112197 On ch=2 n=a5 v=76
112209 On ch=2 n=a4 v=0
112295 Par ch=2 c=64 v=0
112317 Par ch=2 c=64 v=127
112317 On ch=2 n=g5 v=70
112329 On ch=2 n=a5 v=0
112437 On ch=2 n=e5 v=65
112449 On ch=2 n=g5 v=0
112557 On ch=2 n=a4 v=59
112569 On ch=2 n=e5 v=0
112677 On ch=2 n=b5 v=79
112689 On ch=2 n=a4 v=0
112777 Par ch=2 c=64 v=0
112797 Par ch=2 c=64 v=127
112797 On ch=2 n=g5 v=74
112809 On ch=2 n=b5 v=0
112917 On ch=2 n=c#5 v=69
112929 On ch=2 n=g5 v=0
113037 On ch=2 n=a4 v=64
113049 On ch=2 n=c#5 v=0
113157 On ch=2 n=a5 v=79
113169 On ch=2 n=a4 v=0
113256 Par ch=2 c=64 v=0
113277 Par ch=2 c=64 v=127
113277 On ch=2 n=f#5 v=68
113289 On ch=2 n=a5 v=0
113397 On ch=2 n=d5 v=65
113409 On ch=2 n=f#5 v=0
113517 On ch=2 n=a4 v=59
113529 On ch=2 n=d5 v=0
113637 On ch=2 n=b5 v=68
113649 On ch=2 n=a4 v=0
113741 Par ch=2 c=64 v=0
113757 Par ch=2 c=64 v=127
113757 On ch=2 n=g5 v=79
113769 On ch=2 n=b5 v=0
113877 On ch=2 n=e5 v=44
113889 On ch=2 n=g5 v=0
113997 On ch=2 n=a4 v=46
114009 On ch=2 n=e5 v=0
114117 On ch=2 n=a5 v=53
114129 On ch=2 n=a4 v=0
114224 Par ch=2 c=64 v=0
114234 Par ch=2 c=64 v=127
114234 On ch=2 n=f#5 v=60
114246 On ch=2 n=a5 v=0
114354 On ch=2 n=d5 v=48
114366 On ch=2 n=f#5 v=0
114474 On ch=2 n=a4 v=59
114486 On ch=2 n=d5 v=0
114594 On ch=2 n=b5 v=71
114606 On ch=2 n=a4 v=0
114698 Par ch=2 c=64 v=0
114714 Par ch=2 c=64 v=127
114714 On ch=2 n=g5 v=51
114726 On ch=2 n=b5 v=0
114834 On ch=2 n=c#5 v=58
114846 On ch=2 n=g5 v=0
114954 On ch=2 n=a4 v=64
114966 On ch=2 n=c#5 v=0
115074 On ch=2 n=a5 v=70
115086 On ch=2 n=a4 v=0
115181 Par ch=2 c=64 v=0
115191 Par ch=2 c=64 v=127
115191 On ch=2 n=f#5 v=50
115203 On ch=2 n=a5 v=0
115311 On ch=2 n=d5 v=60
115323 On ch=2 n=f#5 v=0
115431 On ch=2 n=a4 v=70
115443 On ch=2 n=d5 v=0
115551 On ch=2 n=a5 v=80
115563 On ch=2 n=a4 v=0
115643 Par ch=2 c=64 v=0
115671 Par ch=2 c=64 v=127
115671 On ch=2 n=f5 v=69
115683 On ch=2 n=a5 v=0
115791 On ch=2 n=d5 v=74
115803 On ch=2 n=f5 v=0
115911 On ch=2 n=a4 v=80
115923 On ch=2 n=d5 v=0
116031 On ch=2 n=a5 v=85
116043 On ch=2 n=a4 v=0
116140 Par ch=2 c=64 v=0
116151 Par ch=2 c=64 v=127
116151 On ch=2 n=e5 v=77
116163 On ch=2 n=a5 v=0
116271 On ch=2 n=d5 v=84
116283 On ch=2 n=e5 v=0
116391 On ch=2 n=a4 v=92
116403 On ch=2 n=d5 v=0
116511 On ch=2 n=a5 v=114
116523 On ch=2 n=a4 v=0
116615 Par ch=2 c=64 v=0
116631 Par ch=2 c=64 v=127
116631 On ch=2 n=e5 v=87
116643 On ch=2 n=a5 v=0
116751 On ch=2 n=c#5 v=94
116763 On ch=2 n=e5 v=0
116871 On ch=2 n=g4 v=101
116883 On ch=2 n=c#5 v=0
116991 Par ch=2 c=64 v=0
116991 On ch=2 n=a5 v=125
117003 On ch=2 n=g4 v=0
117111 On ch=2 n=f#4 v=85
117111 Par ch=2 c=64 v=127
117123 On ch=2 n=a5 v=0
117231 On ch=2 n=a4 v=94
117243 On ch=2 n=f#4 v=0
117351 On ch=2 n=d5 v=103
117363 On ch=2 n=a4 v=0
117471 On ch=2 n=a4 v=113
117483 On ch=2 n=d5 v=0
117591 On ch=2 n=a5 v=110
117591 On ch=2 n=a5 v=122
117603 On ch=2 n=a4 v=0
117863 On ch=2 n=a5 v=0
117863 On ch=2 n=a5 v=0
118001 Par ch=2 c=64 v=0
118068 Par ch=2 c=64 v=127
118068 On ch=2 n=e4 v=93
118188 On ch=2 n=a4 v=96
118200 On ch=2 n=e4 v=0
118308 On ch=2 n=g5 v=99
118320 On ch=2 n=a4 v=0
118428 On ch=2 n=c#5 v=103
118440 On ch=2 n=g5 v=0
118548 On ch=2 n=a5 v=106
118560 On ch=2 n=c#5 v=0
118810 Par ch=2 c=64 v=0
118812 On ch=2 n=a5 v=0
119028 On ch=2 n=d4 v=97
119028 Par ch=2 c=64 v=127
119148 On ch=2 n=a4 v=103
119160 On ch=2 n=d4 v=0
119268 On ch=2 n=d5 v=108
119280 On ch=2 n=a4 v=0
119388 On ch=2 n=a4 v=113
119400 On ch=2 n=d5 v=0
119508 On ch=2 n=f#5 v=119
119520 On ch=2 n=a4 v=0
119796 On ch=2 n=f#5 v=0
119966 Par ch=2 c=64 v=0
119988 Par ch=2 c=64 v=127
119988 On ch=2 n=g4 v=107
120108 On ch=2 n=a#4 v=109
120120 On ch=2 n=g4 v=0
120228 On ch=2 n=c#5 v=112
120240 On ch=2 n=a#4 v=0
120348 On ch=2 n=a#4 v=114
120360 On ch=2 n=c#5 v=0
120468 On ch=2 n=a#5 v=117
120480 On ch=2 n=a#4 v=0
120732 On ch=2 n=a#5 v=0
120883 Par ch=2 c=64 v=0
120948 Par ch=2 c=64 v=127
120948 On ch=2 n=f#3 v=126
121076 On ch=2 n=d4 v=126
121080 On ch=2 n=f#3 v=0
121188 On ch=2 n=a4 v=126
121208 On ch=2 n=d4 v=0
121308 On ch=2 n=a3 v=126
121320 On ch=2 n=a4 v=0
121428 On ch=2 n=a4 v=126
121428 On ch=2 n=d5 v=126
121428 On ch=2 n=a5 v=126
121440 On ch=2 n=a3 v=0
121684 On ch=2 n=a5 v=0
121692 On ch=2 n=d5 v=0
121692 On ch=2 n=a4 v=0
121870 Par ch=2 c=64 v=0
121908 Par ch=2 c=64 v=127
121908 On ch=2 n=e3 v=126
122028 On ch=2 n=a3 v=127
122040 On ch=2 n=e3 v=0
122148 On ch=2 n=a4 v=127
122160 On ch=2 n=a3 v=0
122268 On ch=2 n=a3 v=127
122280 On ch=2 n=a4 v=0
122388 On ch=2 n=a4 v=127
122388 On ch=2 n=c#5 v=127
122388 On ch=2 n=g5 v=127
122400 On ch=2 n=a3 v=0
122660 On ch=2 n=g5 v=0
122660 On ch=2 n=c#5 v=0
122660 On ch=2 n=a4 v=0
122836 Par ch=2 c=64 v=0
122839 Par ch=2 c=64 v=0
122868 Par ch=2 c=64 v=127
122868 Par ch=2 c=64 v=127
122868 On ch=2 n=d3 v=127
122988 On ch=2 n=a3 v=127
123000 On ch=2 n=d3 v=0
123108 On ch=2 n=a4 v=127
123120 On ch=2 n=a3 v=0
123228 On ch=2 n=a3 v=127
123240 On ch=2 n=a4 v=0
123348 On ch=2 n=a4 v=127
123348 On ch=2 n=f#4 v=127
123348 On ch=2 n=d5 v=127
123360 On ch=2 n=a3 v=0
123612 On ch=2 n=f#4 v=0
123620 On ch=2 n=d5 v=0
123620 On ch=2 n=a4 v=0
123801 Par ch=2 c=64 v=0
123828 Par ch=2 c=64 v=127
123828 On ch=2 n=f#3 v=124
123948 On ch=2 n=c#4 v=124
123960 On ch=2 n=f#3 v=0
124068 On ch=2 n=e4 v=124
124080 On ch=2 n=c#4 v=0
124188 On ch=2 n=g4 v=124
124200 On ch=2 n=e4 v=0
124308 On ch=2 n=a#4 v=124
124320 On ch=2 n=g4 v=0
124428 On ch=2 n=c#5 v=124
124440 On ch=2 n=a#4 v=0
124548 On ch=2 n=e5 v=124
124560 On ch=2 n=c#5 v=0
124668 On ch=2 n=a#5 v=98
124680 On ch=2 n=e5 v=0
124702 Par ch=2 c=64 v=0
124788 On ch=2 n=f#4 v=40
124788 On ch=2 n=c5 v=40
124788 On ch=2 n=d#5 v=40
124788 On ch=2 n=f#4 v=40
124788 On ch=2 n=c5 v=40
124788 On ch=2 n=d#5 v=40
124800 On ch=2 n=a#5 v=0
125052 On ch=2 n=d#5 v=0
125052 On ch=2 n=c5 v=0
125052 On ch=2 n=f#4 v=0
125052 On ch=2 n=d#5 v=0
125052 On ch=2 n=c5 v=0
125052 On ch=2 n=f#4 v=0
125268 On ch=2 n=f#4 v=48
125748 On ch=2 n=f4 v=64
125796 On ch=2 n=f#4 v=0
125868 On ch=2 n=f#4 v=67
125880 On ch=2 n=f4 v=0
125988 On ch=2 n=a4 v=70
126000 On ch=2 n=f#4 v=0
126108 On ch=2 n=g4 v=68
126120 On ch=2 n=a4 v=0
126228 On ch=2 n=d#4 v=71
126240 On ch=2 n=g4 v=0
126348 On ch=2 n=e4 v=74
126360 On ch=2 n=d#4 v=0
126468 On ch=2 n=g4 v=77
126480 On ch=2 n=e4 v=0
126588 On ch=2 n=f#4 v=79
126600 On ch=2 n=g4 v=0
126708 Par ch=2 c=64 v=127
126708 On ch=2 n=d#3 v=82
126708 On ch=2 n=d#4 v=82
126720 On ch=2 n=f#4 v=0
127188 On ch=2 n=a5 v=54
127188 On ch=2 n=f#5 v=54
127188 On ch=2 n=b4 v=54
127236 On ch=2 n=d#4 v=0
127236 On ch=2 n=d#3 v=0
127668 On ch=2 n=e3 v=58
127668 On ch=2 n=e4 v=58
127716 On ch=2 n=b4 v=0
127716 On ch=2 n=f#5 v=0
127716 On ch=2 n=a5 v=0
128148 On ch=2 n=e5 v=62
128148 On ch=2 n=g#5 v=62
128148 Par ch=2 c=64 v=0
128148 On ch=2 n=b4 v=62
128196 On ch=2 n=e4 v=0
128196 On ch=2 n=e3 v=0
128628 On ch=2 n=a3 v=75
128628 On ch=2 n=a2 v=75
128676 On ch=2 n=b4 v=0
128676 On ch=2 n=g#5 v=0
128676 On ch=2 n=e5 v=0
129098 On ch=2 n=a2 v=0
129098 On ch=2 n=a3 v=0
129108 On ch=2 n=a4 v=57
129108 On ch=2 n=c#5 v=57
129108 On ch=2 n=g5 v=57
129578 On ch=2 n=g5 v=0
129578 On ch=2 n=c#5 v=0
129578 On ch=2 n=a4 v=0
129588 On ch=2 n=d4 v=63
129588 On ch=2 n=d3 v=63
130058 On ch=2 n=d3 v=0
130058 On ch=2 n=d4 v=0
130068 On ch=2 n=a4 v=63
130068 On ch=2 n=c5 v=63
130068 On ch=2 n=f#5 v=63
130538 On ch=2 n=f#5 v=0
130538 On ch=2 n=c5 v=0
130538 On ch=2 n=a4 v=0
130548 On ch=2 n=g3 v=60
130788 On ch=2 n=g4 v=65
130797 On ch=2 n=g3 v=0
131028 On ch=2 n=b4 v=76
131276 On ch=2 n=d#5 v=87
131516 On ch=2 n=e5 v=98
131532 On ch=2 n=d#5 v=0
132012 On ch=2 n=b4 v=0
132020 On ch=2 n=e5 v=0
132020 On ch=2 n=g4 v=0
132468 On ch=2 n=g3 v=55
132948 On ch=2 n=f#3 v=59
132967 On ch=2 n=g3 v=0
133428 On ch=2 n=e3 v=53
133447 On ch=2 n=f#3 v=0
133908 On ch=2 n=a3 v=89
133927 On ch=2 n=e3 v=0
134388 On ch=2 n=a#2 v=69
134396 On ch=2 n=a#3 v=69
134396 On ch=2 n=a#3 v=69
134407 On ch=2 n=a3 v=0
134868 On ch=2 n=f#4 v=48
134868 On ch=2 n=c#5 v=48
134868 On ch=2 n=e5 v=48
134887 On ch=2 n=a#2 v=0
134895 On ch=2 n=a#3 v=0
134895 On ch=2 n=a#3 v=0
135348 On ch=2 n=b3 v=48
135348 On ch=2 n=b2 v=48
135367 On ch=2 n=e5 v=0
135367 On ch=2 n=c#5 v=0
135367 On ch=2 n=f#4 v=0
135828 On ch=2 n=b4 v=54
135828 On ch=2 n=d#5 v=54
135847 On ch=2 n=b2 v=0
135847 On ch=2 n=b3 v=0
136308 On ch=2 n=e4 v=69
136308 On ch=2 n=e3 v=69
136327 On ch=2 n=d#5 v=0
136327 On ch=2 n=b4 v=0
136772 On ch=2 n=e4 v=0
136788 On ch=2 n=e4 v=47
136788 On ch=2 n=d5 v=47
136788 On ch=2 n=g#4 v=47
136807 On ch=2 n=e3 v=0
137268 On ch=2 n=a3 v=51
137268 On ch=2 n=a2 v=51
137287 On ch=2 n=g#4 v=0
137287 On ch=2 n=d5 v=0
137287 On ch=2 n=e4 v=0
137748 On ch=2 n=c#5 v=59
137748 On ch=2 n=a4 v=59
137767 On ch=2 n=a2 v=0
137767 On ch=2 n=a3 v=0
138228 On ch=2 n=c5 v=57
138228 On ch=2 n=d4 v=57
138247 On ch=2 n=a4 v=0
138247 On ch=2 n=c#5 v=0
138463 On ch=2 n=c5 v=0
138468 On ch=2 n=b4 v=61
138585 On ch=2 n=b4 v=0
138588 On ch=2 n=a#4 v=63
138698 On ch=2 n=d4 v=0
138705 On ch=2 n=a#4 v=0
138708 On ch=2 n=a4 v=64
138825 On ch=2 n=a4 v=0
138828 On ch=2 n=g#4 v=67
138945 On ch=2 n=g#4 v=0
138948 On ch=2 n=c5 v=69
139065 On ch=2 n=c5 v=0
139068 On ch=2 n=b4 v=70
139185 On ch=2 n=b4 v=0
139188 On ch=2 n=e4 v=72
139188 On ch=2 n=d5 v=72
139305 On ch=2 n=d5 v=0
139308 On ch=2 n=c#5 v=74
139425 On ch=2 n=c#5 v=0
139428 On ch=2 n=c5 v=76
139545 On ch=2 n=c5 v=0
139548 On ch=2 n=b4 v=78
139658 On ch=2 n=e4 v=0
139665 On ch=2 n=b4 v=0
139668 On ch=2 n=a#4 v=80
139785 On ch=2 n=a#4 v=0
139796 On ch=2 n=d5 v=82
139908 On ch=2 n=c#5 v=84
139913 On ch=2 n=d5 v=0
140025 On ch=2 n=c#5 v=0
140028 On ch=2 n=e5 v=86
140148 On ch=2 n=f#4 v=88
140260 On ch=2 n=e5 v=0
140268 On ch=2 n=d#5 v=89
140385 On ch=2 n=d#5 v=0
140388 On ch=2 n=d5 v=91
140505 On ch=2 n=d5 v=0
140508 On ch=2 n=c#5 v=93
140618 On ch=2 n=f#4 v=0
140625 On ch=2 n=c#5 v=0
140628 On ch=2 n=b4 v=95
140628 On ch=2 n=f#5 v=95
141084 On ch=2 n=f#5 v=0
141098 On ch=2 n=b4 v=0
141108 On ch=2 n=g#4 v=100
141108 On ch=2 n=f5 v=100
141564 On ch=2 n=f5 v=0
141578 On ch=2 n=g#4 v=0
141828 On ch=2 n=b4 v=100
141828 On ch=2 n=g#5 v=100
142063 On ch=2 n=g#5 v=0
142063 On ch=2 n=b4 v=0
142068 On ch=2 n=a4 v=100
142068 On ch=2 n=a5 v=100
142303 On ch=2 n=a5 v=0
142303 On ch=2 n=a4 v=0
144956 On ch=2 n=g5 v=64
144956 On ch=2 n=g5 v=64
145188 On ch=2 n=b4 v=49
145191 On ch=2 n=g5 v=0
145191 On ch=2 n=g5 v=0
145423 On ch=2 n=b4 v=0
145428 On ch=2 n=e5 v=53
145663 On ch=2 n=e5 v=0
145668 On ch=2 n=a4 v=42
145903 On ch=2 n=a4 v=0
145908 On ch=2 n=d3 v=59
146028 On ch=2 n=a3 v=66
146040 On ch=2 n=d3 v=0
146148 On ch=2 n=d4 v=73
146160 On ch=2 n=a3 v=0
146268 On ch=2 n=a4 v=79
146280 On ch=2 n=d4 v=0
146400 On ch=2 n=a4 v=0
146868 On ch=2 n=d4 v=55
146988 On ch=2 n=a4 v=63
147000 On ch=2 n=d4 v=0
147108 On ch=2 n=d5 v=69
147120 On ch=2 n=a4 v=0
147228 On ch=2 n=e5 v=76
147240 On ch=2 n=d5 v=0
147360 On ch=2 n=e5 v=0
147828 On ch=2 n=b3 v=77
147948 On ch=2 n=f#4 v=80
147960 On ch=2 n=b3 v=0
148068 On ch=2 n=b4 v=84
148080 On ch=2 n=f#4 v=0
148188 On ch=2 n=c#5 v=88
148200 On ch=2 n=b4 v=0
148320 On ch=2 n=c#5 v=0
148788 On ch=2 n=e3 v=79
148908 On ch=2 n=b3 v=80
148920 On ch=2 n=e3 v=0
149028 On ch=2 n=e4 v=81
149040 On ch=2 n=b3 v=0
149148 On ch=2 n=b4 v=82
149160 On ch=2 n=e4 v=0
149280 On ch=2 n=b4 v=0
149748 On ch=2 n=a3 v=84
149868 On ch=2 n=e4 v=78
149892 On ch=2 n=a3 v=0
149988 On ch=2 n=a4 v=72
150020 On ch=2 n=e4 v=0
150108 On ch=2 n=d5 v=66
150572 On ch=2 n=d5 v=0
150580 On ch=2 n=a4 v=0
150708 On ch=2 n=a3 v=78
150828 On ch=2 n=e4 v=81
150840 On ch=2 n=a3 v=0
150948 On ch=2 n=a4 v=84
150960 On ch=2 n=e4 v=0
151068 On ch=2 n=d5 v=86
151080 On ch=2 n=a4 v=0
151188 On ch=2 n=e5 v=88
151200 On ch=2 n=d5 v=0
151668 On ch=2 n=a3 v=77
151692 On ch=2 n=e5 v=0
151788 On ch=2 n=e4 v=80
151800 On ch=2 n=a3 v=0
151908 On ch=2 n=a4 v=88
151920 On ch=2 n=e4 v=0
152028 On ch=2 n=e5 v=95
152476 On ch=2 n=a4 v=0
152500 On ch=2 n=e5 v=0
152508 On ch=2 n=a4 v=90
152612 On ch=2 n=a4 v=0
152628 On ch=2 n=a4 v=90
153588 On ch=2 n=d4 v=66
153596 On ch=2 n=a4 v=0
153708 On ch=2 n=a4 v=56
153764 On ch=2 n=d4 v=0
153836 On ch=2 n=d5 v=65
153868 On ch=2 n=a4 v=0
153948 On ch=2 n=e5 v=74
153980 On ch=2 n=d5 v=0
154116 On ch=2 n=e5 v=0
154428 On ch=2 n=a3 v=84
154540 On ch=2 n=a3 v=0
154548 On ch=2 n=a3 v=81
154668 On ch=2 n=a4 v=74
154680 On ch=2 n=a3 v=0
154788 On ch=2 n=d5 v=77
154788 On ch=2 n=d5 v=77
154800 On ch=2 n=a4 v=0
154916 On ch=2 n=e5 v=80
154920 On ch=2 n=d5 v=0
154920 On ch=2 n=d5 v=0
155048 On ch=2 n=e5 v=0
155508 On ch=2 n=b3 v=58
155628 On ch=2 n=f#4 v=65
155630 On ch=2 n=b3 v=0
155748 On ch=2 n=b4 v=71
155750 On ch=2 n=f#4 v=0
155868 On ch=2 n=c#5 v=78
155870 On ch=2 n=b4 v=0
155990 On ch=2 n=c#5 v=0
156348 On ch=2 n=e3 v=66
156459 On ch=2 n=e3 v=0
156468 On ch=2 n=e3 v=70
156588 On ch=2 n=b3 v=74
156613 On ch=2 n=e3 v=0
156708 On ch=2 n=e4 v=78
156733 On ch=2 n=b3 v=0
156828 On ch=2 n=b4 v=81
156960 On ch=2 n=b4 v=0
157428 On ch=2 n=a3 v=65
157500 On ch=2 n=e4 v=0
157548 On ch=2 n=e4 v=72
157560 On ch=2 n=a3 v=0
157668 On ch=2 n=a4 v=79
157680 On ch=2 n=e4 v=0
157788 On ch=2 n=b4 v=85
157800 On ch=2 n=a4 v=0
157908 On ch=2 n=c#5 v=92
157920 On ch=2 n=b4 v=0
158040 On ch=2 n=c#5 v=0
158388 On ch=2 n=a3 v=92
158516 On ch=2 n=e4 v=93
158520 On ch=2 n=a3 v=0
158628 On ch=2 n=a4 v=95
158648 On ch=2 n=e4 v=0
158748 On ch=2 n=d5 v=97
158760 On ch=2 n=a4 v=0
158876 On ch=2 n=e5 v=98
158880 On ch=2 n=d5 v=0
159348 On ch=2 n=a3 v=83
159372 On ch=2 n=e5 v=0
159468 On ch=2 n=e4 v=86
159480 On ch=2 n=a3 v=0
159588 On ch=2 n=a4 v=90
159600 On ch=2 n=e4 v=0
159708 On ch=2 n=e5 v=94
160180 On ch=2 n=a4 v=0
160188 On ch=2 n=e5 v=0
160188 On ch=2 n=a2 v=92
160308 On ch=2 n=a3 v=93
160320 On ch=2 n=a2 v=0
160428 On ch=2 n=e4 v=96
160440 On ch=2 n=a3 v=0
160548 On ch=2 n=a4 v=98
160560 On ch=2 n=e4 v=0
160668 On ch=2 n=e5 v=101
160680 On ch=2 n=a4 v=0
160788 On ch=2 n=a5 v=103
160800 On ch=2 n=e5 v=0
160916 On ch=2 n=e6 v=106
160920 On ch=2 n=a5 v=0
161048 On ch=2 n=e6 v=0
161276 On ch=2 n=d3 v=113
161508 On ch=2 n=a3 v=119
161548 On ch=2 n=d3 v=0
161628 On ch=2 n=d4 v=119
161640 On ch=2 n=a3 v=0
161748 On ch=2 n=a4 v=120
161760 On ch=2 n=d4 v=0
161868 On ch=2 n=c5 v=120
161880 On ch=2 n=a4 v=0
161988 On ch=2 n=f#5 v=121
162000 On ch=2 n=c5 v=0
162108 On ch=2 n=a5 v=121
162120 On ch=2 n=f#5 v=0
162228 On ch=2 n=c6 v=122
162240 On ch=2 n=a5 v=0
163188 On ch=2 n=d3 v=119
163196 On ch=2 n=c6 v=0
163436 On ch=2 n=b3 v=119
163444 On ch=2 n=d3 v=0
163548 On ch=2 n=d4 v=107
163568 On ch=2 n=b3 v=0
163668 On ch=2 n=f4 v=103
163680 On ch=2 n=d4 v=0
163788 On ch=2 n=g#4 v=98
163800 On ch=2 n=f4 v=0
163908 On ch=2 n=b4 v=93
163920 On ch=2 n=g#4 v=0
164036 On ch=2 n=f5 v=88
164040 On ch=2 n=b4 v=0
164148 On ch=2 n=e5 v=84
164164 On ch=2 n=f5 v=0
165116 On ch=2 n=d3 v=100
165132 On ch=2 n=e5 v=0
165356 On ch=2 n=a3 v=84
165372 On ch=2 n=d3 v=0
165468 On ch=2 n=d4 v=88
165488 On ch=2 n=a3 v=0
165588 On ch=2 n=a4 v=93
165600 On ch=2 n=d4 v=0
165708 On ch=2 n=c5 v=99
165720 On ch=2 n=a4 v=0
165828 On ch=2 n=c#5 v=105
165840 On ch=2 n=c5 v=0
165948 On ch=2 n=d5 v=110
165960 On ch=2 n=c#5 v=0
166068 On ch=2 n=d#5 v=116
166080 On ch=2 n=d5 v=0
166188 On ch=2 n=c5 v=110
166308 On ch=2 n=a4 v=105
166320 On ch=2 n=c5 v=0
166428 On ch=2 n=f#4 v=100
166440 On ch=2 n=a4 v=0
166548 On ch=2 n=d#4 v=95
166560 On ch=2 n=f#4 v=0
166572 On ch=2 n=d#5 v=0
166668 On ch=2 n=d4 v=90
166680 On ch=2 n=d#4 v=0
166788 On ch=2 n=a3 v=85
166800 On ch=2 n=d4 v=0
166908 On ch=2 n=d#3 v=80
166920 On ch=2 n=a3 v=0
167028 On ch=2 n=d3 v=80
167040 On ch=2 n=d#3 v=0
167268 On ch=2 n=b3 v=86
167300 On ch=2 n=d3 v=0
167388 On ch=2 n=d4 v=89
167400 On ch=2 n=b3 v=0
167508 On ch=2 n=d#4 v=92
167520 On ch=2 n=d4 v=0
167628 On ch=2 n=e4 v=95
167640 On ch=2 n=d#4 v=0
167748 On ch=2 n=f4 v=98
167760 On ch=2 n=e4 v=0
167868 On ch=2 n=b4 v=101
167880 On ch=2 n=f4 v=0
167996 On ch=2 n=a#4 v=104
168000 On ch=2 n=b4 v=0
168948 On ch=2 n=d4 v=100
168948 On ch=2 n=a4 v=100
168972 On ch=2 n=a#4 v=0
169908 On ch=2 n=b4 v=83
169908 On ch=2 n=g3 v=83
169916 On ch=2 n=a4 v=0
169932 On ch=2 n=d4 v=0
170148 On ch=2 n=f#3 v=68
170172 On ch=2 n=g3 v=0
170268 On ch=2 n=g3 v=71
170280 On ch=2 n=f#3 v=0
170388 On ch=2 n=a3 v=74
170400 On ch=2 n=g3 v=0
170508 On ch=2 n=g3 v=71
170520 On ch=2 n=a3 v=0
170628 On ch=2 n=d4 v=67
170640 On ch=2 n=g3 v=0
170748 On ch=2 n=g3 v=80
170760 On ch=2 n=d4 v=0
170868 On ch=2 n=b4 v=0
170868 On ch=2 n=d3 v=75
170868 On ch=2 n=a4 v=75
170880 On ch=2 n=g3 v=0
171828 On ch=2 n=g2 v=80
171828 On ch=2 n=b4 v=80
171844 On ch=2 n=a4 v=0
171844 On ch=2 n=d3 v=0
172068 On ch=2 n=f#2 v=66
172092 On ch=2 n=g2 v=0
172188 On ch=2 n=g2 v=71
172200 On ch=2 n=f#2 v=0
172308 On ch=2 n=a2 v=76
172320 On ch=2 n=g2 v=0
172428 On ch=2 n=g2 v=74
172440 On ch=2 n=a2 v=0
172548 On ch=2 n=d3 v=70
172560 On ch=2 n=g2 v=0
172668 On ch=2 n=g2 v=84
172680 On ch=2 n=d3 v=0
172788 On ch=2 n=g4 v=93
172788 On ch=2 n=a2 v=93
172796 On ch=2 n=b4 v=0
172800 On ch=2 n=g2 v=0
173748 On ch=2 n=a#2 v=100
173772 On ch=2 n=a2 v=0
173908 On ch=2 n=a#2 v=0
173908 On ch=2 n=b2 v=103
173988 On ch=2 n=a#2 v=104
173996 On ch=2 n=b2 v=0
174068 On ch=2 n=b2 v=105
174076 On ch=2 n=a#2 v=0
174156 On ch=2 n=b2 v=0
174156 On ch=2 n=a#2 v=107
174228 On ch=2 n=b2 v=108
174244 On ch=2 n=a#2 v=0
174308 On ch=2 n=a#2 v=109
174316 On ch=2 n=b2 v=0
174388 On ch=2 n=b2 v=111
174396 On ch=2 n=a#2 v=0
174468 On ch=2 n=a#2 v=112
174476 On ch=2 n=b2 v=0
174548 On ch=2 n=a2 v=113
174556 On ch=2 n=a#2 v=0
174580 On ch=2 n=g4 v=0
174588 On ch=2 n=f#4 v=114
174628 On ch=2 n=a#2 v=115
174636 On ch=2 n=a2 v=0
174700 On ch=2 n=f#4 v=0
174708 On ch=2 n=f#4 v=117
174708 On ch=2 n=a#3 v=117
174716 On ch=2 n=a#2 v=0
175676 On ch=2 n=a#3 v=0
175692 On ch=2 n=f#4 v=0
177108 On ch=2 n=b3 v=61
177588 On ch=2 n=b3 v=0
177588 On ch=2 n=g4 v=74
177588 On ch=2 n=g3 v=74
177588 On ch=2 n=g3 v=74
178068 On ch=2 n=g3 v=0
178068 On ch=2 n=g3 v=0
178068 On ch=2 n=g4 v=0
178068 On ch=2 n=e3 v=87
178068 On ch=2 n=e3 v=87
178068 On ch=2 n=e4 v=87
178548 On ch=2 n=e4 v=0
178548 On ch=2 n=e3 v=0
178548 On ch=2 n=e3 v=0
178548 On ch=2 n=c#4 v=100
178548 On ch=2 n=f#3 v=100
178548 On ch=2 n=f#3 v=100
178548 On ch=2 n=f#4 v=100
179028 On ch=2 n=f#4 v=0
179028 On ch=2 n=f#3 v=0
179028 On ch=2 n=f#3 v=0
179028 On ch=2 n=c#4 v=0
179268 On ch=2 n=e3 v=57
179268 On ch=2 n=e3 v=57
179268 On ch=2 n=e4 v=57
179508 On ch=2 n=e4 v=0
179508 On ch=2 n=e3 v=0
179508 On ch=2 n=e3 v=0
179508 On ch=2 n=d4 v=60
179508 On ch=2 n=d3 v=60
179508 On ch=2 n=d3 v=60
179748 On ch=2 n=d3 v=0
179748 On ch=2 n=d3 v=0
179748 On ch=2 n=d4 v=0
179748 On ch=2 n=a#2 v=67
179748 On ch=2 n=a#3 v=67
179988 On ch=2 n=a#3 v=0
179988 On ch=2 n=a#2 v=0
179988 On ch=2 n=b3 v=72
179988 On ch=2 n=b2 v=72
179988 On ch=2 n=b2 v=72
179988 On ch=2 n=b3 v=72
179988 On ch=2 n=b2 v=72
180228 On ch=2 n=b2 v=0
180228 On ch=2 n=b3 v=0
180228 On ch=2 n=b2 v=0
180228 On ch=2 n=b2 v=0
180228 On ch=2 n=b3 v=0
180228 On ch=2 n=g4 v=78
180228 On ch=2 n=b3 v=78
180228 On ch=2 n=b3 v=78
180228 On ch=2 n=e4 v=78
180228 On ch=2 n=b4 v=78
180468 On ch=2 n=b4 v=0
180468 On ch=2 n=e4 v=0
180468 On ch=2 n=b3 v=0
180468 On ch=2 n=b3 v=0
180468 On ch=2 n=g4 v=0
180468 On ch=2 n=f#4 v=83
180468 On ch=2 n=b4 v=83
180468 On ch=2 n=d4 v=83
180468 On ch=2 n=b3 v=83
180468 On ch=2 n=b3 v=83
181428 On ch=2 n=b3 v=0
181428 On ch=2 n=b3 v=0
181428 On ch=2 n=d4 v=0
181428 On ch=2 n=b4 v=0
181428 On ch=2 n=f#4 v=0
181428 On ch=2 n=b3 v=112
181428 On ch=2 n=b3 v=112
181428 On ch=2 n=g4 v=112
181428 On ch=2 n=e4 v=112
181428 On ch=2 n=b4 v=112
182148 On ch=2 n=b4 v=0
182148 On ch=2 n=e4 v=0
182148 On ch=2 n=g4 v=0
182148 On ch=2 n=b3 v=0
182148 On ch=2 n=b3 v=0
182148 On ch=2 n=g4 v=71
182148 On ch=2 n=b3 v=71
182148 On ch=2 n=b3 v=71
182148 On ch=2 n=e4 v=71
182148 On ch=2 n=c#5 v=71
182388 On ch=2 n=c#5 v=0
182388 On ch=2 n=e4 v=0
182388 On ch=2 n=b3 v=0
182388 On ch=2 n=b3 v=0
182388 On ch=2 n=g4 v=0
182388 On ch=2 n=b3 v=46
182388 On ch=2 n=b3 v=46
182388 On ch=2 n=d5 v=46
182388 On ch=2 n=f#4 v=46
182388 On ch=2 n=f#4 v=46
182388 On ch=2 n=d5 v=46
182388 On ch=2 n=b3 v=46
182388 On ch=2 n=b3 v=46
183348 On ch=2 n=b3 v=0
183348 On ch=2 n=b3 v=0
183348 On ch=2 n=d5 v=0
183348 On ch=2 n=f#4 v=0
183348 On ch=2 n=f#4 v=0
183348 On ch=2 n=d5 v=0
183348 On ch=2 n=b3 v=0
183348 On ch=2 n=b3 v=0
184788 On ch=2 n=b3 v=81
185258 On ch=2 n=b3 v=0
185268 On ch=2 n=g4 v=92
185268 On ch=2 n=g4 v=92
185268 On ch=2 n=g3 v=92
185738 On ch=2 n=g3 v=0
185738 On ch=2 n=g4 v=0
185738 On ch=2 n=g4 v=0
185748 On ch=2 n=e4 v=103
185748 On ch=2 n=e4 v=103
185748 On ch=2 n=e3 v=103
186218 On ch=2 n=e3 v=0
186218 On ch=2 n=e4 v=0
186218 On ch=2 n=e4 v=0
186228 On ch=2 n=b2 v=114
186228 On ch=2 n=b2 v=114
186228 On ch=2 n=b3 v=114
186698 On ch=2 n=b3 v=0
186698 On ch=2 n=b2 v=0
186698 On ch=2 n=b2 v=0
186948 On ch=2 n=b3 v=113
186948 On ch=2 n=b2 v=113
187183 On ch=2 n=b2 v=0
187183 On ch=2 n=b3 v=0
187188 On ch=2 n=a3 v=123
187188 On ch=2 n=a2 v=123
187188 On ch=2 n=a2 v=123
187423 On ch=2 n=a2 v=0
187423 On ch=2 n=a2 v=0
187423 On ch=2 n=a3 v=0
187428 On ch=2 n=f3 v=108
187428 On ch=2 n=f3 v=108
187428 On ch=2 n=f2 v=108
187428 On ch=2 n=f2 v=108
187663 On ch=2 n=f2 v=0
187663 On ch=2 n=f2 v=0
187663 On ch=2 n=f3 v=0
187663 On ch=2 n=f3 v=0
187668 On ch=2 n=f#3 v=127
187668 On ch=2 n=f#2 v=127
187903 On ch=2 n=f#2 v=0
187903 On ch=2 n=f#3 v=0
187908 On ch=2 n=d3 v=116
187908 On ch=2 n=d3 v=116
187908 On ch=2 n=d2 v=116
187908 On ch=2 n=d2 v=116
188143 On ch=2 n=d2 v=0
188143 On ch=2 n=d2 v=0
188143 On ch=2 n=d3 v=0
188143 On ch=2 n=d3 v=0
188148 On ch=2 n=c#2 v=127
188148 On ch=2 n=c#2 v=127
188148 On ch=2 n=c#3 v=127
188148 On ch=2 n=c#3 v=127
189088 On ch=2 n=c#3 v=0
189088 On ch=2 n=c#3 v=0
189088 On ch=2 n=c#2 v=0
189088 On ch=2 n=c#2 v=0
189108 On ch=2 n=c#3 v=100
189108 On ch=2 n=c#4 v=100
189108 On ch=2 n=c#4 v=125
189108 On ch=2 n=c#3 v=125
189108 On ch=2 n=c#3 v=125
189813 On ch=2 n=c#3 v=0
189813 On ch=2 n=c#3 v=0
189813 On ch=2 n=c#4 v=0
189813 On ch=2 n=c#4 v=0
189813 On ch=2 n=c#3 v=0
189828 On ch=2 n=c#4 v=118
189828 On ch=2 n=c#4 v=118
189828 On ch=2 n=c#3 v=118
189828 On ch=2 n=c#3 v=118
190063 On ch=2 n=c#3 v=0
190063 On ch=2 n=c#3 v=0
190063 On ch=2 n=c#4 v=0
190063 On ch=2 n=c#4 v=0
190068 On ch=2 n=f#4 v=125
190068 On ch=2 n=f#4 v=125
190068 On ch=2 n=f#3 v=125
190068 On ch=2 n=f#3 v=125
190192 On ch=2 n=f#3 v=0
190192 On ch=2 n=f#3 v=0
190192 On ch=2 n=f#4 v=0
190192 On ch=2 n=f#4 v=0
190548 On ch=2 n=b3 v=127
190548 On ch=2 n=b3 v=127
190548 On ch=2 n=b2 v=127
190548 On ch=2 n=b2 v=127
190749 On ch=2 n=b2 v=0
190749 On ch=2 n=b2 v=0
190749 On ch=2 n=b3 v=0
190749 On ch=2 n=b3 v=0
192468 On ch=2 n=e3 v=58
192938 On ch=2 n=e3 v=0
192948 On ch=2 n=c3 v=44
192948 On ch=2 n=c3 v=44
192948 On ch=2 n=c4 v=44
193418 On ch=2 n=c4 v=0
193418 On ch=2 n=c3 v=0
193418 On ch=2 n=c3 v=0
193428 On ch=2 n=a3 v=49
193428 On ch=2 n=a2 v=49
193428 On ch=2 n=a2 v=49
193898 On ch=2 n=a2 v=0
193898 On ch=2 n=a2 v=0
193898 On ch=2 n=a3 v=0
193908 On ch=2 n=b3 v=54
193908 On ch=2 n=b2 v=54
193908 On ch=2 n=b2 v=54
194378 On ch=2 n=b2 v=0
194378 On ch=2 n=b2 v=0
194378 On ch=2 n=b3 v=0
194628 On ch=2 n=a3 v=40
194628 On ch=2 n=a3 v=40
194628 On ch=2 n=b3 v=40
194863 On ch=2 n=b3 v=0
194863 On ch=2 n=a3 v=0
194863 On ch=2 n=a3 v=0
194868 On ch=2 n=g3 v=48
194868 On ch=2 n=g3 v=48
194868 On ch=2 n=b3 v=48
195103 On ch=2 n=b3 v=0
195103 On ch=2 n=g3 v=0
195103 On ch=2 n=g3 v=0
195108 On ch=2 n=d#3 v=40
195108 On ch=2 n=d#3 v=40
195108 On ch=2 n=b3 v=40
195343 On ch=2 n=b3 v=0
195343 On ch=2 n=d#3 v=0
195343 On ch=2 n=d#3 v=0
195348 On ch=2 n=b3 v=45
195348 On ch=2 n=e3 v=45
195348 On ch=2 n=e3 v=45
195583 On ch=2 n=e3 v=0
195583 On ch=2 n=e3 v=0
195583 On ch=2 n=b3 v=0
195588 On ch=2 n=e3 v=48
195588 On ch=2 n=c4 v=48
195823 On ch=2 n=c4 v=0
195823 On ch=2 n=e3 v=0
195828 On ch=2 n=e3 v=40
195828 On ch=2 n=g4 v=40
195828 On ch=2 n=b3 v=40
195828 On ch=2 n=e3 v=40
196298 On ch=2 n=e3 v=0
196298 On ch=2 n=b3 v=0
196298 On ch=2 n=g4 v=0
196298 On ch=2 n=e3 v=0
196308 On ch=2 n=d#3 v=67
196428 On ch=2 n=e3 v=54
196428 On ch=2 n=e3 v=54
196432 On ch=2 n=d#3 v=0
196548 On ch=2 n=g3 v=58
196552 On ch=2 n=e3 v=0
196552 On ch=2 n=e3 v=0
196665 On ch=2 n=g3 v=0
196668 On ch=2 n=b3 v=61
196668 On ch=2 n=b3 v=61
196785 On ch=2 n=b3 v=0
196785 On ch=2 n=b3 v=0
196788 On ch=2 n=e4 v=68
197258 On ch=2 n=e4 v=0
197268 On ch=2 n=d#4 v=66
197388 On ch=2 n=e4 v=60
197392 On ch=2 n=d#4 v=0
197508 On ch=2 n=a4 v=53
197512 On ch=2 n=e4 v=0
197625 On ch=2 n=a4 v=0
197628 On ch=2 n=c5 v=44
197745 On ch=2 n=c5 v=0
198948 On ch=2 n=e5 v=62
199183 On ch=2 n=e5 v=0
199188 On ch=2 n=c5 v=56
199305 On ch=2 n=c5 v=0
199308 On ch=2 n=b4 v=53
199425 On ch=2 n=b4 v=0
199428 On ch=2 n=g4 v=47
199545 On ch=2 n=g4 v=0
199548 On ch=2 n=e4 v=52
199665 On ch=2 n=e4 v=0
199668 On ch=2 n=c4 v=57
200148 On ch=2 n=c3 v=47
200618 On ch=2 n=c3 v=0
200628 On ch=2 n=f3 v=41
200863 On ch=2 n=f3 v=0
200868 On ch=2 n=c4 v=0
200988 On ch=2 n=f5 v=71
201105 On ch=2 n=f5 v=0
201108 On ch=2 n=d5 v=67
201225 On ch=2 n=d5 v=0
201228 On ch=2 n=c5 v=63
201345 On ch=2 n=c5 v=0
201348 On ch=2 n=a4 v=56
201465 On ch=2 n=a4 v=0
201468 On ch=2 n=f4 v=61
201585 On ch=2 n=f4 v=0
201588 On ch=2 n=c#4 v=65
202068 On ch=2 n=c#3 v=36
202538 On ch=2 n=c#3 v=0
202548 On ch=2 n=f#3 v=35
202548 On ch=2 n=f#3 v=35
202783 On ch=2 n=f#3 v=0
202783 On ch=2 n=f#3 v=0
202788 On ch=2 n=c#4 v=0
202908 Par ch=2 c=64 v=127
202908 On ch=2 n=f#2 v=127
203025 On ch=2 n=f#2 v=0
203028 On ch=2 n=f#3 v=127
203145 On ch=2 n=f#3 v=0
203148 On ch=2 n=c#4 v=88
203148 On ch=2 n=c#4 v=88
203265 On ch=2 n=c#4 v=0
203265 On ch=2 n=c#4 v=0
203268 On ch=2 n=f#4 v=94
203385 On ch=2 n=f#4 v=0
203388 On ch=2 n=a#4 v=100
203505 On ch=2 n=a#4 v=0
203508 Par ch=2 c=64 v=127
203508 On ch=2 n=d4 v=106
203743 On ch=2 n=d4 v=0
203868 Par ch=2 c=64 v=127
203868 On ch=2 n=f#2 v=127
203985 On ch=2 n=f#2 v=0
203988 On ch=2 n=f#3 v=123
204105 On ch=2 n=f#3 v=0
204108 On ch=2 n=d4 v=100
204225 On ch=2 n=d4 v=0
204228 On ch=2 n=g4 v=107
204345 On ch=2 n=g4 v=0
204348 On ch=2 n=b4 v=113
204464 Par ch=2 c=64 v=0
204465 On ch=2 n=b4 v=0
204468 Par ch=2 c=64 v=127
204468 On ch=2 n=d#4 v=119
204703 On ch=2 n=d#4 v=0
204828 On ch=2 n=f#2 v=114
204945 On ch=2 n=f#2 v=0
204948 On ch=2 n=f#3 v=123
205065 On ch=2 n=f#3 v=0
205068 On ch=2 n=d4 v=97
205185 On ch=2 n=d4 v=0
205188 On ch=2 n=g#4 v=103
205305 On ch=2 n=g#4 v=0
205308 On ch=2 n=c5 v=109
205425 On ch=2 n=c5 v=0
205428 Par ch=2 c=64 v=127
205428 On ch=2 n=e4 v=121
205663 On ch=2 n=e4 v=0
205788 On ch=2 n=f#2 v=123
205788 On ch=2 n=f#2 v=123
205905 On ch=2 n=f#2 v=0
205905 On ch=2 n=f#2 v=0
205908 On ch=2 n=f#3 v=126
206025 On ch=2 n=f#3 v=0
206028 On ch=2 n=e4 v=101
206028 On ch=2 n=e4 v=101
206028 On ch=2 n=e4 v=101
206028 On ch=2 n=e4 v=101
206145 On ch=2 n=e4 v=0
206145 On ch=2 n=e4 v=0
206145 On ch=2 n=e4 v=0
206145 On ch=2 n=e4 v=0
206148 On ch=2 n=a4 v=108
206265 On ch=2 n=a4 v=0
206268 On ch=2 n=c#5 v=117
206374 Par ch=2 c=64 v=0
206385 On ch=2 n=c#5 v=0
206388 Par ch=2 c=64 v=127
206388 On ch=2 n=f#4 v=124
206388 On ch=2 n=e5 v=124
206623 On ch=2 n=e5 v=0
206623 On ch=2 n=f#4 v=0
206748 On ch=2 n=f#2 v=124
206865 On ch=2 n=f#2 v=0
206868 On ch=2 n=f#3 v=127
206985 On ch=2 n=f#3 v=0
206988 On ch=2 n=c#4 v=111
207105 On ch=2 n=c#4 v=0
207108 On ch=2 n=f#4 v=116
207225 On ch=2 n=f#4 v=0
207228 On ch=2 n=e5 v=122
207238 Par ch=2 c=64 v=0
207265 Par ch=2 c=64 v=0
207345 On ch=2 n=e5 v=0
207348 On ch=2 n=f5 v=113
207348 On ch=2 n=d5 v=113
207348 On ch=2 n=f4 v=113
207818 On ch=2 n=f4 v=0
207818 On ch=2 n=d5 v=0
207818 On ch=2 n=f5 v=0
207828 On ch=2 n=d4 v=101
207828 On ch=2 n=d3 v=101
208298 On ch=2 n=d3 v=0
208298 On ch=2 n=d4 v=0
208308 On ch=2 n=d#4 v=84
208308 On ch=2 n=d#3 v=84
208778 On ch=2 n=d#3 v=0
208778 On ch=2 n=d#4 v=0
208788 On ch=2 n=f4 v=103
208788 On ch=2 n=f3 v=103
209258 On ch=2 n=f3 v=0
209258 On ch=2 n=f4 v=0
209268 On ch=2 n=a#4 v=41
209268 On ch=2 n=a#3 v=41
209424 On ch=2 n=a#3 v=0
209424 On ch=2 n=a#4 v=0
209428 On ch=2 n=a4 v=35
209428 On ch=2 n=a3 v=35
209584 On ch=2 n=a3 v=0
209584 On ch=2 n=a4 v=0
209588 On ch=2 n=g4 v=39
209588 On ch=2 n=g3 v=39
209744 On ch=2 n=g3 v=0
209744 On ch=2 n=g4 v=0
209748 On ch=2 n=a#3 v=42
209748 On ch=2 n=a#2 v=42
210218 On ch=2 n=a#2 v=0
210218 On ch=2 n=a#3 v=0
210228 On ch=2 n=c4 v=54
210228 On ch=2 n=c3 v=54
210698 On ch=2 n=c3 v=0
210698 On ch=2 n=c4 v=0
210708 On ch=2 n=d3 v=64
210708 On ch=2 n=d4 v=64
211178 On ch=2 n=d4 v=0
211178 On ch=2 n=d3 v=0
211188 On ch=2 n=e3 v=100
211188 On ch=2 n=a#3 v=100
211188 On ch=2 n=c#4 v=100
211188 On ch=2 n=e4 v=100
211624 On ch=2 n=e4 v=0
211624 On ch=2 n=c#4 v=0
211624 On ch=2 n=a#3 v=0
211624 On ch=2 n=e3 v=0
211668 On ch=2 n=f#4 v=88
211668 Par ch=2 c=64 v=127
211788 On ch=2 n=g4 v=83
211790 On ch=2 n=f#4 v=0
211908 On ch=2 n=a#4 v=88
211910 On ch=2 n=g4 v=0
212028 On ch=2 n=c#5 v=95
212030 On ch=2 n=a#4 v=0
212055 Par ch=2 c=64 v=0
212150 On ch=2 n=c#5 v=0
212628 Par ch=2 c=64 v=127
212628 On ch=2 n=e4 v=114
212628 On ch=2 n=c#5 v=114
212628 On ch=2 n=g5 v=114
212628 On ch=2 n=a#4 v=114
213055 Par ch=2 c=64 v=0
213092 On ch=2 n=a#4 v=0
213108 Par ch=2 c=64 v=127
213108 On ch=2 n=f4 v=109
213108 On ch=2 n=g#4 v=109
213108 On ch=2 n=a#4 v=109
213108 On ch=2 n=d5 v=109
213108 On ch=2 n=g#5 v=109
213117 On ch=2 n=g5 v=0
213117 On ch=2 n=c#5 v=0
213117 On ch=2 n=e4 v=0
213348 On ch=2 n=g#5 v=0
213348 On ch=2 n=d5 v=0
213352 On ch=2 n=a#4 v=0
213352 On ch=2 n=g#4 v=0
213352 On ch=2 n=f4 v=0
214548 Par ch=2 c=64 v=0
215028 On ch=2 n=g#5 v=100
215148 On ch=2 n=g5 v=108
215149 On ch=2 n=g#5 v=0
215268 On ch=2 n=f5 v=105
215269 On ch=2 n=g5 v=0
215388 On ch=2 n=d#5 v=102
215389 On ch=2 n=f5 v=0
215508 On ch=2 n=d5 v=98
215509 On ch=2 n=d#5 v=0
215628 On ch=2 n=b4 v=95
215629 On ch=2 n=d5 v=0
215748 On ch=2 n=g#4 v=93
215749 On ch=2 n=b4 v=0
215868 On ch=2 n=d#4 v=89
215869 On ch=2 n=g#4 v=0
215989 On ch=2 n=d#4 v=0
215996 On ch=2 n=d4 v=86
216108 On ch=2 n=a#3 v=83
216117 On ch=2 n=d4 v=0
216229 On ch=2 n=a#3 v=0
216236 On ch=2 n=a3 v=79
216348 On ch=2 n=a#3 v=76
216357 On ch=2 n=a3 v=0
216468 On ch=2 n=a#4 v=74
216468 On ch=2 n=f#5 v=74
216469 On ch=2 n=a#3 v=0
216710 On ch=2 n=f#5 v=0
216710 On ch=2 n=a#4 v=0
216828 On ch=2 n=f#5 v=56
216828 On ch=2 n=a#4 v=56
216948 On ch=2 n=a#2 v=55
216949 On ch=2 n=a#4 v=0
216949 On ch=2 n=f#5 v=0
217428 On ch=2 n=a2 v=35
217432 On ch=2 n=a#2 v=0
217908 On ch=2 n=g#2 v=47
217912 On ch=2 n=a2 v=0
218388 On ch=2 n=g2 v=60
218392 On ch=2 n=g#2 v=0
218868 On ch=2 n=f2 v=117
218868 On ch=2 n=f2 v=117
218872 On ch=2 n=g2 v=0
219108 On ch=2 n=a2 v=118
219110 On ch=2 n=f2 v=0
219110 On ch=2 n=f2 v=0
219228 On ch=2 n=a#2 v=111
219229 On ch=2 n=a2 v=0
219348 On ch=2 n=b2 v=109
219349 On ch=2 n=a#2 v=0
219468 On ch=2 n=c3 v=107
219469 On ch=2 n=b2 v=0
219588 On ch=2 n=c#3 v=105
219589 On ch=2 n=c3 v=0
219708 On ch=2 n=d3 v=103
219709 On ch=2 n=c#3 v=0
219828 On ch=2 n=d#3 v=101
219829 On ch=2 n=d3 v=0
219948 On ch=2 n=e3 v=98
219949 On ch=2 n=d#3 v=0
220068 On ch=2 n=f3 v=96
220069 On ch=2 n=e3 v=0
220188 On ch=2 n=f#3 v=94
220189 On ch=2 n=f3 v=0
220308 On ch=2 n=g3 v=92
220309 On ch=2 n=f#3 v=0
220428 On ch=2 n=g#3 v=90
220429 On ch=2 n=g3 v=0
220548 On ch=2 n=a3 v=88
220549 On ch=2 n=g#3 v=0
220668 On ch=2 n=a#3 v=86
220669 On ch=2 n=a3 v=0
220788 On ch=2 n=b3 v=84
220789 On ch=2 n=a#3 v=0
220908 On ch=2 n=c4 v=81
220909 On ch=2 n=b3 v=0
221028 On ch=2 n=c#4 v=79
221029 On ch=2 n=c4 v=0
221148 On ch=2 n=d4 v=77
221149 On ch=2 n=c#4 v=0
221268 On ch=2 n=d#4 v=75
221269 On ch=2 n=d4 v=0
221388 On ch=2 n=e4 v=73
221389 On ch=2 n=d#4 v=0
221508 On ch=2 n=f4 v=71
221509 On ch=2 n=e4 v=0
221628 On ch=2 n=f#4 v=69
221629 On ch=2 n=f4 v=0
221748 On ch=2 n=g4 v=66
221749 On ch=2 n=f#4 v=0
221868 On ch=2 n=g#4 v=64
221869 On ch=2 n=g4 v=0
221988 On ch=2 n=a4 v=62
221989 On ch=2 n=g#4 v=0
222108 On ch=2 n=a#4 v=60
222109 On ch=2 n=a4 v=0
222228 On ch=2 n=b4 v=58
222229 On ch=2 n=a#4 v=0
222348 On ch=2 n=c5 v=56
222349 On ch=2 n=b4 v=0
222468 On ch=2 n=c#5 v=54
222469 On ch=2 n=c5 v=0
222588 On ch=2 n=d5 v=51
222589 On ch=2 n=c#5 v=0
222708 On ch=2 n=g2 v=85
222708 On ch=2 n=g2 v=85
222709 On ch=2 n=d5 v=0
222948 On ch=2 n=a2 v=123
222950 On ch=2 n=g2 v=0
222950 On ch=2 n=g2 v=0
223068 On ch=2 n=a#2 v=121
223069 On ch=2 n=a2 v=0
223188 On ch=2 n=b2 v=119
223189 On ch=2 n=a#2 v=0
223309 On ch=2 n=b2 v=0
223316 On ch=2 n=c3 v=117
223428 On ch=2 n=c#3 v=114
223437 On ch=2 n=c3 v=0
223548 On ch=2 n=d3 v=113
223549 On ch=2 n=c#3 v=0
223668 On ch=2 n=d#3 v=110
223669 On ch=2 n=d3 v=0
223788 On ch=2 n=e3 v=108
223789 On ch=2 n=d#3 v=0
223908 On ch=2 n=f3 v=106
223909 On ch=2 n=e3 v=0
224028 On ch=2 n=f#3 v=103
224029 On ch=2 n=f3 v=0
224148 On ch=2 n=g3 v=101
224149 On ch=2 n=f#3 v=0
224268 On ch=2 n=g#3 v=98
224269 On ch=2 n=g3 v=0
224388 On ch=2 n=a3 v=97
224389 On ch=2 n=g#3 v=0
224508 On ch=2 n=a#3 v=94
224509 On ch=2 n=a3 v=0
224628 On ch=2 n=b3 v=92
224629 On ch=2 n=a#3 v=0
224748 On ch=2 n=c4 v=90
224749 On ch=2 n=b3 v=0
224868 On ch=2 n=c#4 v=88
224869 On ch=2 n=c4 v=0
224988 On ch=2 n=d4 v=85
224989 On ch=2 n=c#4 v=0
225108 On ch=2 n=d#4 v=84
225109 On ch=2 n=d4 v=0
225228 On ch=2 n=e4 v=81
225229 On ch=2 n=d#4 v=0
225348 On ch=2 n=f4 v=79
225349 On ch=2 n=e4 v=0
225468 On ch=2 n=f#4 v=77
225469 On ch=2 n=f4 v=0
225588 On ch=2 n=g4 v=74
225589 On ch=2 n=f#4 v=0
225708 On ch=2 n=g#4 v=72
225709 On ch=2 n=g4 v=0
225828 On ch=2 n=a4 v=69
225829 On ch=2 n=g#4 v=0
225948 On ch=2 n=a#4 v=68
225949 On ch=2 n=a4 v=0
226068 On ch=2 n=b4 v=65
226069 On ch=2 n=a#4 v=0
226188 On ch=2 n=c5 v=63
226189 On ch=2 n=b4 v=0
226308 On ch=2 n=c#5 v=61
226309 On ch=2 n=c5 v=0
226428 On ch=2 n=d5 v=59
226429 On ch=2 n=c#5 v=0
226548 On ch=2 n=g2 v=91
226548 On ch=2 n=g2 v=91
226549 On ch=2 n=d5 v=0
226908 On ch=2 n=a#2 v=109
226911 On ch=2 n=g2 v=0
226911 On ch=2 n=g2 v=0
227028 On ch=2 n=b2 v=108
227029 On ch=2 n=a#2 v=0
227148 On ch=2 n=c3 v=105
227149 On ch=2 n=b2 v=0
227268 On ch=2 n=c#3 v=103
227269 On ch=2 n=c3 v=0
227388 On ch=2 n=d3 v=101
227389 On ch=2 n=c#3 v=0
227508 On ch=2 n=d#3 v=99
227509 On ch=2 n=d3 v=0
227628 On ch=2 n=e3 v=97
227629 On ch=2 n=d#3 v=0
227748 On ch=2 n=f3 v=95
227749 On ch=2 n=e3 v=0
227868 On ch=2 n=f#3 v=93
227869 On ch=2 n=f3 v=0
227988 On ch=2 n=g3 v=90
227989 On ch=2 n=f#3 v=0
228108 On ch=2 n=g#3 v=88
228109 On ch=2 n=g3 v=0
228228 On ch=2 n=a3 v=86
228229 On ch=2 n=g#3 v=0
228348 On ch=2 n=a#3 v=84
228349 On ch=2 n=a3 v=0
228468 On ch=2 n=b3 v=82
228469 On ch=2 n=a#3 v=0
228588 On ch=2 n=c4 v=85
228589 On ch=2 n=b3 v=0
228708 On ch=2 n=c#4 v=80
228709 On ch=2 n=c4 v=0
228828 On ch=2 n=d4 v=83
228829 On ch=2 n=c#4 v=0
228948 On ch=2 n=d#4 v=84
228949 On ch=2 n=d4 v=0
229068 On ch=2 n=e4 v=87
229069 On ch=2 n=d#4 v=0
229188 On ch=2 n=f4 v=89
229189 On ch=2 n=e4 v=0
229308 On ch=2 n=f#4 v=91
229309 On ch=2 n=f4 v=0
229428 On ch=2 n=g4 v=93
229429 On ch=2 n=f#4 v=0
229548 On ch=2 n=g#4 v=95
229549 On ch=2 n=g4 v=0
229668 On ch=2 n=a4 v=98
229669 On ch=2 n=g#4 v=0
229788 On ch=2 n=a#4 v=100
229789 On ch=2 n=a4 v=0
229908 On ch=2 n=b4 v=102
229909 On ch=2 n=a#4 v=0
230028 On ch=2 n=c5 v=104
230029 On ch=2 n=b4 v=0
230148 On ch=2 n=c#5 v=107
230149 On ch=2 n=c5 v=0
230268 On ch=2 n=d5 v=108
230269 On ch=2 n=c#5 v=0
230388 On ch=2 n=d#5 v=111
230389 On ch=2 n=d5 v=0
230400 Par ch=2 c=64 v=127
230868 On ch=2 n=d#3 v=127
230872 On ch=2 n=d#5 v=0
231026 On ch=2 n=d#3 v=0
231028 On ch=2 n=g4 v=127
231186 On ch=2 n=g4 v=0
231188 On ch=2 n=a#3 v=127
231346 On ch=2 n=a#3 v=0
231348 On ch=2 n=g#4 v=127
231506 On ch=2 n=g#4 v=0
231508 On ch=2 n=g4 v=127
231666 On ch=2 n=g4 v=0
231668 On ch=2 n=a#3 v=127
231826 On ch=2 n=a#3 v=0
231828 Par ch=2 c=64 v=127
231828 On ch=2 n=d#3 v=127
231986 On ch=2 n=d#3 v=0
231988 On ch=2 n=d#5 v=127
232146 On ch=2 n=d#5 v=0
232148 On ch=2 n=a#4 v=127
232306 On ch=2 n=a#4 v=0
232628 On ch=2 n=a#4 v=127
232786 On ch=2 n=a#4 v=0
232788 Par ch=2 c=64 v=127
232788 On ch=2 n=d#4 v=127
232946 On ch=2 n=d#4 v=0
232948 On ch=2 n=a#5 v=127
233106 On ch=2 n=a#5 v=0
233108 On ch=2 n=a#4 v=127
233108 On ch=2 n=a#4 v=127
233266 On ch=2 n=a#4 v=0
233266 On ch=2 n=a#4 v=0
234068 Par ch=2 c=64 v=0
234228 On ch=2 n=c#3 v=100
234468 On ch=2 n=e4 v=79
234468 On ch=2 n=a3 v=79
234708 On ch=2 n=d3 v=92
234732 On ch=2 n=a3 v=0
234732 On ch=2 n=e4 v=0
234740 On ch=2 n=c#3 v=0
234948 On ch=2 n=a3 v=78
234980 On ch=2 n=d3 v=0
235188 On ch=2 n=a2 v=92
235204 On ch=2 n=a3 v=0
235428 On ch=2 n=c#3 v=87
235428 On ch=2 n=a3 v=87
235468 On ch=2 n=a2 v=0
235668 On ch=2 n=d3 v=94
235684 On ch=2 n=a3 v=0
235700 On ch=2 n=c#3 v=0
235908 On ch=2 n=f4 v=113
235940 On ch=2 n=d3 v=0
236148 On ch=2 n=e3 v=93
236164 On ch=2 n=f4 v=0
236388 On ch=2 n=g4 v=84
236388 On ch=2 n=c4 v=84
236412 On ch=2 n=e3 v=0
236628 On ch=2 n=f3 v=100
236644 On ch=2 n=c4 v=0
236652 On ch=2 n=g4 v=0
236868 On ch=2 n=a4 v=103
236868 On ch=2 n=c4 v=103
236892 On ch=2 n=f3 v=0
237108 On ch=2 n=g#3 v=105
237116 On ch=2 n=c4 v=0
237132 On ch=2 n=a4 v=0
237348 On ch=2 n=d5 v=107
237348 On ch=2 n=b4 v=107
237348 On ch=2 n=e4 v=107
237380 On ch=2 n=g#3 v=0
237588 On ch=2 n=a3 v=109
237604 On ch=2 n=e4 v=0
237612 On ch=2 n=b4 v=0
237612 On ch=2 n=d5 v=0
237828 On ch=2 n=c#4 v=111
237828 On ch=2 n=a#4 v=111
237828 On ch=2 n=e5 v=111
237868 On ch=2 n=a3 v=0
238068 On ch=2 n=d4 v=112
238068 On ch=2 n=a4 v=112
238068 On ch=2 n=f5 v=112
238068 On ch=2 n=d4 v=113
238068 On ch=2 n=a4 v=113
238068 On ch=2 n=f5 v=113
238092 On ch=2 n=e5 v=0
238092 On ch=2 n=a#4 v=0
238092 On ch=2 n=c#4 v=0
238308 On ch=2 n=a3 v=127
238308 On ch=2 n=a2 v=127
238320 On ch=2 n=f5 v=0
238320 On ch=2 n=a4 v=0
238320 On ch=2 n=d4 v=0
238320 On ch=2 n=f5 v=0
238320 On ch=2 n=a4 v=0
238320 On ch=2 n=d4 v=0
238788 On ch=2 n=g4 v=100
238788 On ch=2 n=c#5 v=100
239044 On ch=2 n=c#5 v=0
239044 On ch=2 n=g4 v=0
239052 On ch=2 n=a2 v=0
239060 On ch=2 n=a3 v=0
239268 On ch=2 n=a2 v=127
239268 On ch=2 n=a3 v=127
239748 On ch=2 n=f4 v=100
239748 On ch=2 n=a4 v=100
239892 On ch=2 n=a2 v=0
239908 On ch=2 n=a3 v=0
240004 On ch=2 n=a4 v=0
240012 On ch=2 n=f4 v=0
240228 On ch=2 n=a3 v=127
240228 On ch=2 n=a3 v=127
240228 On ch=2 n=a2 v=100
240228 On ch=2 n=a2 v=100
240708 On ch=2 n=a#4 v=100
240964 On ch=2 n=a#4 v=0
240984 On ch=2 n=a2 v=0
240984 On ch=2 n=a2 v=0
240984 On ch=2 n=a3 v=0
240984 On ch=2 n=a3 v=0
241188 On ch=2 n=a2 v=127
241188 On ch=2 n=a2 v=127
241188 On ch=2 n=a3 v=127
241188 On ch=2 n=a3 v=127
241668 On ch=2 n=g#4 v=100
241668 On ch=2 n=g#4 v=100
241908 On ch=2 n=a4 v=124
241908 On ch=2 n=a4 v=124
241924 On ch=2 n=g#4 v=0
241924 On ch=2 n=g#4 v=0
241944 On ch=2 n=a2 v=0
241944 On ch=2 n=a2 v=0
242148 On ch=2 n=a#4 v=125
242148 On ch=2 n=a#4 v=125
242164 On ch=2 n=a3 v=0
242164 On ch=2 n=a3 v=0
242180 On ch=2 n=a4 v=0
242180 On ch=2 n=a4 v=0
242868 On ch=2 n=a3 v=103
242868 On ch=2 n=a3 v=103
242900 On ch=2 n=a#4 v=0
242900 On ch=2 n=a#4 v=0
243108 On ch=2 n=e4 v=116
243108 On ch=2 n=a#4 v=116
243820 On ch=2 n=a3 v=0
243820 On ch=2 n=a3 v=0
243828 On ch=2 n=a3 v=113
243828 On ch=2 n=a3 v=113
243864 On ch=2 n=a#4 v=0
243864 On ch=2 n=e4 v=0
244068 On ch=2 n=a#4 v=123
244068 On ch=2 n=a#4 v=123
244068 On ch=2 n=e4 v=123
244068 On ch=2 n=e4 v=123
244772 On ch=2 n=a3 v=0
244772 On ch=2 n=a3 v=0
244788 On ch=2 n=a3 v=108
244788 On ch=2 n=a3 v=108
244824 On ch=2 n=e4 v=0
244824 On ch=2 n=e4 v=0
244824 On ch=2 n=a#4 v=0
244824 On ch=2 n=a#4 v=0
245028 On ch=2 n=e4 v=117
245028 On ch=2 n=a#4 v=117
245740 On ch=2 n=a3 v=0
245740 On ch=2 n=a3 v=0
245748 On ch=2 n=a3 v=106
245748 On ch=2 n=a3 v=106
245784 On ch=2 n=a#4 v=0
245784 On ch=2 n=e4 v=0
245988 On ch=2 n=e4 v=118
245988 On ch=2 n=a#4 v=118
246444 On ch=2 n=a#4 v=0
246468 On ch=2 n=a4 v=127
246732 On ch=2 n=a4 v=0
246744 On ch=2 n=e4 v=0
246748 On ch=2 n=a3 v=0
246748 On ch=2 n=a3 v=0
247668 Par ch=2 c=64 v=127
247668 On ch=2 n=a2 v=127
247668 On ch=2 n=a2 v=127
248180 On ch=2 n=a2 v=0
248180 On ch=2 n=a2 v=0
248868 On ch=2 n=e5 v=109
248868 On ch=2 n=e5 v=109
249108 On ch=2 n=a5 v=116
249348 On ch=2 n=c#6 v=122
249588 On ch=2 n=g6 v=127
250100 On ch=2 n=g6 v=0
250100 On ch=2 n=a5 v=0
250100 On ch=2 n=e5 v=0
250100 On ch=2 n=e5 v=0
250104 On ch=2 n=c#6 v=0
252168 Par ch=2 c=64 v=0
253428 On ch=2 n=d3 v=91
253428 Par ch=2 c=64 v=127
253588 On ch=2 n=f#4 v=44
253604 On ch=2 n=d3 v=0
253748 On ch=2 n=d5 v=49
253764 On ch=2 n=f#4 v=0
253908 On ch=2 n=a4 v=53
253924 On ch=2 n=d5 v=0
254068 On ch=2 n=f#4 v=54
254084 On ch=2 n=a4 v=0
254236 Par ch=2 c=64 v=0
254236 On ch=2 n=f#5 v=51
254244 On ch=2 n=f#4 v=0
254388 On ch=2 n=a3 v=66
254388 Par ch=2 c=64 v=127
254412 On ch=2 n=f#5 v=0
254548 On ch=2 n=f#4 v=50
254564 On ch=2 n=a3 v=0
254708 On ch=2 n=d5 v=55
254724 On ch=2 n=f#4 v=0
254868 On ch=2 n=a4 v=58
254884 On ch=2 n=d5 v=0
255028 On ch=2 n=f#4 v=58
255044 On ch=2 n=a4 v=0
255188 Par ch=2 c=64 v=0
255188 On ch=2 n=f#5 v=54
255204 On ch=2 n=f#4 v=0
255348 On ch=2 n=d4 v=68
255348 Par ch=2 c=64 v=127
255364 On ch=2 n=f#5 v=0
255508 On ch=2 n=f#4 v=48
255524 On ch=2 n=d4 v=0
255668 On ch=2 n=d5 v=52
255684 On ch=2 n=f#4 v=0
255828 On ch=2 n=a4 v=54
255844 On ch=2 n=d5 v=0
255988 On ch=2 n=f#4 v=54
256004 On ch=2 n=a4 v=0
256148 Par ch=2 c=64 v=0
256148 On ch=2 n=f#5 v=51
256164 On ch=2 n=f#4 v=0
256308 On ch=2 n=a3 v=59
256308 On ch=2 n=a3 v=59
256308 Par ch=2 c=64 v=127
256308 Par ch=2 c=64 v=127
256324 On ch=2 n=f#5 v=0
256468 On ch=2 n=f#4 v=42
256484 On ch=2 n=a3 v=0
256484 On ch=2 n=a3 v=0
256628 On ch=2 n=d5 v=49
256644 On ch=2 n=f#4 v=0
256796 On ch=2 n=a4 v=52
256804 On ch=2 n=d5 v=0
256948 On ch=2 n=f#4 v=53
256972 On ch=2 n=a4 v=0
257108 Par ch=2 c=64 v=0
257108 On ch=2 n=f#5 v=51
257124 On ch=2 n=f#4 v=0
257268 On ch=2 n=d3 v=62
257268 Par ch=2 c=64 v=127
257284 On ch=2 n=f#5 v=0
257428 On ch=2 n=f#4 v=53
257444 On ch=2 n=d3 v=0
257588 On ch=2 n=d5 v=56
257604 On ch=2 n=f#4 v=0
257748 On ch=2 n=a4 v=59
257764 On ch=2 n=d5 v=0
257908 On ch=2 n=f#4 v=58
257924 On ch=2 n=a4 v=0
258068 Par ch=2 c=64 v=0
258068 On ch=2 n=f#5 v=55
258084 On ch=2 n=f#4 v=0
258228 Par ch=2 c=64 v=127
258228 On ch=2 n=d4 v=61
258244 On ch=2 n=f#5 v=0
258388 On ch=2 n=f#4 v=55
258404 On ch=2 n=d4 v=0
258548 On ch=2 n=d5 v=63
258564 On ch=2 n=f#4 v=0
258708 On ch=2 n=b4 v=66
258724 On ch=2 n=d5 v=0
258868 On ch=2 n=f#4 v=66
258884 On ch=2 n=b4 v=0
259028 Par ch=2 c=64 v=0
259028 On ch=2 n=f#5 v=62
259044 On ch=2 n=f#4 v=0
259188 On ch=2 n=e3 v=67
259188 On ch=2 n=e3 v=67
259188 Par ch=2 c=64 v=127
259188 Par ch=2 c=64 v=127
259188 Par ch=2 c=64 v=127
259188 Par ch=2 c=64 v=127
259188 Par ch=2 c=64 v=127
259188 Par ch=2 c=64 v=127
259188 Par ch=2 c=64 v=127
259188 Par ch=2 c=64 v=127
259204 On ch=2 n=f#5 v=0
259348 On ch=2 n=g4 v=55
259364 On ch=2 n=e3 v=0
259364 On ch=2 n=e3 v=0
259508 On ch=2 n=e5 v=61
259524 On ch=2 n=g4 v=0
259668 On ch=2 n=b4 v=64
259684 On ch=2 n=e5 v=0
259828 On ch=2 n=g4 v=64
259844 On ch=2 n=b4 v=0
259988 Par ch=2 c=64 v=0
259988 On ch=2 n=g5 v=58
260004 On ch=2 n=g4 v=0
260148 On ch=2 n=e4 v=61
260148 On ch=2 n=e4 v=61
260148 Par ch=2 c=64 v=127
260148 Par ch=2 c=64 v=127
260164 On ch=2 n=g5 v=0
260308 On ch=2 n=g4 v=50
260324 On ch=2 n=e4 v=0
260324 On ch=2 n=e4 v=0
260468 On ch=2 n=e5 v=56
260484 On ch=2 n=g4 v=0
260628 On ch=2 n=c5 v=59
260644 On ch=2 n=e5 v=0
260796 On ch=2 n=g4 v=59
260804 On ch=2 n=c5 v=0
260948 Par ch=2 c=64 v=0
260948 On ch=2 n=g5 v=56
260972 On ch=2 n=g4 v=0
261108 On ch=2 n=e3 v=64
261108 Par ch=2 c=64 v=127
261124 On ch=2 n=g5 v=0
261276 On ch=2 n=g4 v=51
261284 On ch=2 n=e3 v=0
261428 On ch=2 n=e5 v=55
261452 On ch=2 n=g4 v=0
261588 On ch=2 n=c#5 v=58
261604 On ch=2 n=e5 v=0
261748 On ch=2 n=g4 v=57
261764 On ch=2 n=c#5 v=0
261908 Par ch=2 c=64 v=0
261908 On ch=2 n=g5 v=54
261924 On ch=2 n=g4 v=0
262068 On ch=2 n=c#4 v=65
262068 On ch=2 n=c#4 v=65
262068 Par ch=2 c=64 v=127
262068 Par ch=2 c=64 v=127
262084 On ch=2 n=g5 v=0
262228 On ch=2 n=g4 v=52
262244 On ch=2 n=c#4 v=0
262244 On ch=2 n=c#4 v=0
262388 On ch=2 n=e5 v=56
262404 On ch=2 n=g4 v=0
262548 On ch=2 n=c#5 v=59
262564 On ch=2 n=e5 v=0
262708 On ch=2 n=g4 v=58
262724 On ch=2 n=c#5 v=0
262868 Par ch=2 c=64 v=0
262868 On ch=2 n=g5 v=55
262884 On ch=2 n=g4 v=0
263028 On ch=2 n=e4 v=69
263028 Par ch=2 c=64 v=127
263044 On ch=2 n=g5 v=0
263188 On ch=2 n=g4 v=50
263188 On ch=2 n=g4 v=50
263204 On ch=2 n=e4 v=0
263348 On ch=2 n=e5 v=55
263364 On ch=2 n=g4 v=0
263364 On ch=2 n=g4 v=0
263508 On ch=2 n=c#5 v=58
263524 On ch=2 n=e5 v=0
263668 On ch=2 n=g4 v=58
263684 On ch=2 n=c#5 v=0
263828 On ch=2 n=g5 v=70
263828 Par ch=2 c=64 v=0
263828 Par ch=2 c=64 v=0
263844 On ch=2 n=g4 v=0
263988 On ch=2 n=c#4 v=68
263988 Par ch=2 c=64 v=127
264004 On ch=2 n=g5 v=0
264148 On ch=2 n=g4 v=56
264164 On ch=2 n=c#4 v=0
264308 On ch=2 n=e5 v=63
264324 On ch=2 n=g4 v=0
264468 On ch=2 n=c#5 v=66
264484 On ch=2 n=e5 v=0
264628 On ch=2 n=g4 v=65
264644 On ch=2 n=c#5 v=0
264788 Par ch=2 c=64 v=0
264788 On ch=2 n=g5 v=60
264804 On ch=2 n=g4 v=0
264948 Par ch=2 c=64 v=127
264948 On ch=2 n=e3 v=67
264964 On ch=2 n=g5 v=0
265108 On ch=2 n=g4 v=63
265124 On ch=2 n=e3 v=0
265268 On ch=2 n=e5 v=66
265284 On ch=2 n=g4 v=0
265428 On ch=2 n=c#5 v=68
265444 On ch=2 n=e5 v=0
265588 On ch=2 n=g4 v=68
265604 On ch=2 n=c#5 v=0
265748 Par ch=2 c=64 v=0
265748 On ch=2 n=g5 v=67
265764 On ch=2 n=g4 v=0
265908 On ch=2 n=e4 v=75
265908 Par ch=2 c=64 v=127
265924 On ch=2 n=g5 v=0
266068 On ch=2 n=g4 v=68
266084 On ch=2 n=e4 v=0
266228 On ch=2 n=e5 v=73
266244 On ch=2 n=g4 v=0
266388 On ch=2 n=c#5 v=75
266404 On ch=2 n=e5 v=0
266548 On ch=2 n=g4 v=75
266564 On ch=2 n=c#5 v=0
266708 Par ch=2 c=64 v=0
266708 On ch=2 n=g5 v=72
266724 On ch=2 n=g4 v=0
266868 Par ch=2 c=64 v=127
266868 On ch=2 n=f4 v=79
266884 On ch=2 n=g5 v=0
267036 On ch=2 n=b4 v=76
267044 On ch=2 n=f4 v=0
267188 On ch=2 n=g#5 v=80
267212 On ch=2 n=b4 v=0
267348 On ch=2 n=d5 v=82
267364 On ch=2 n=g#5 v=0
267508 On ch=2 n=b4 v=80
267524 On ch=2 n=d5 v=0
267668 Par ch=2 c=64 v=0
267668 On ch=2 n=d6 v=75
267684 On ch=2 n=b4 v=0
267828 On ch=2 n=f#4 v=84
267828 Par ch=2 c=64 v=127
267844 On ch=2 n=d6 v=0
267988 On ch=2 n=a4 v=81
268004 On ch=2 n=f#4 v=0
268156 On ch=2 n=a5 v=84
268164 On ch=2 n=a4 v=0
268308 On ch=2 n=d5 v=84
268332 On ch=2 n=a5 v=0
268468 On ch=2 n=a4 v=83
268484 On ch=2 n=d5 v=0
268628 Par ch=2 c=64 v=0
268628 On ch=2 n=a5 v=78
268644 On ch=2 n=a4 v=0
268788 Par ch=2 c=64 v=127
268788 Par ch=2 c=64 v=127
268788 On ch=2 n=f#4 v=85
268804 On ch=2 n=a5 v=0
268948 On ch=2 n=c#5 v=80
268964 On ch=2 n=f#4 v=0
269116 On ch=2 n=a#5 v=87
269124 On ch=2 n=c#5 v=0
269268 On ch=2 n=e5 v=88
269292 On ch=2 n=a#5 v=0
269428 On ch=2 n=c#5 v=88
269444 On ch=2 n=e5 v=0
269588 Par ch=2 c=64 v=0
269588 On ch=2 n=a#5 v=84
269604 On ch=2 n=c#5 v=0
269748 Par ch=2 c=64 v=127
269748 On ch=2 n=b4 v=89
269764 On ch=2 n=a#5 v=0
269908 On ch=2 n=a5 v=93
269924 On ch=2 n=b4 v=0
270068 Par ch=2 c=64 v=0
270068 On ch=2 n=d5 v=84
270084 On ch=2 n=a5 v=0
270228 Par ch=2 c=64 v=127
270228 On ch=2 n=e4 v=74
270244 On ch=2 n=d5 v=0
270388 On ch=2 n=g#5 v=84
270404 On ch=2 n=e4 v=0
270548 Par ch=2 c=64 v=0
270548 On ch=2 n=d5 v=77
270564 On ch=2 n=g#5 v=0
270708 Par ch=2 c=64 v=127
270708 On ch=2 n=a4 v=86
270724 On ch=2 n=d5 v=0
270868 On ch=2 n=g5 v=92
270884 On ch=2 n=a4 v=0
271028 Par ch=2 c=64 v=0
271028 On ch=2 n=e5 v=82
271044 On ch=2 n=g5 v=0
271188 Par ch=2 c=64 v=127
271188 On ch=2 n=a3 v=71
271204 On ch=2 n=e5 v=0
271348 On ch=2 n=g5 v=76
271364 On ch=2 n=a3 v=0
271508 Par ch=2 c=64 v=0
271508 On ch=2 n=c#5 v=70
271524 On ch=2 n=g5 v=0
271668 On ch=2 n=d4 v=64
271684 On ch=2 n=c#5 v=0
271693 Par ch=2 c=64 v=127
271828 On ch=2 n=a4 v=74
271844 On ch=2 n=d4 v=0
271988 On ch=2 n=f#5 v=79
272004 On ch=2 n=a4 v=0
272148 On ch=2 n=d5 v=83
272164 On ch=2 n=f#5 v=0
272308 On ch=2 n=a4 v=82
272324 On ch=2 n=d5 v=0
272468 Par ch=2 c=64 v=0
272468 Par ch=2 c=64 v=0
272468 On ch=2 n=a5 v=78
272484 On ch=2 n=a4 v=0
272628 On ch=2 n=g4 v=65
272644 On ch=2 n=a5 v=0
272645 Par ch=2 c=64 v=127
272788 On ch=2 n=c#5 v=46
272804 On ch=2 n=g4 v=0
272948 On ch=2 n=a#5 v=49
272964 On ch=2 n=c#5 v=0
273116 On ch=2 n=e5 v=51
273124 On ch=2 n=a#5 v=0
273268 On ch=2 n=c#5 v=50
273292 On ch=2 n=e5 v=0
273428 Par ch=2 c=64 v=0
273428 On ch=2 n=a#5 v=46
273444 On ch=2 n=c#5 v=0
273588 On ch=2 n=f#4 v=48
273599 Par ch=2 c=64 v=127
273604 On ch=2 n=a#5 v=0
273748 On ch=2 n=a4 v=47
273764 On ch=2 n=f#4 v=0
273908 On ch=2 n=a5 v=54
273924 On ch=2 n=a4 v=0
274068 On ch=2 n=d5 v=59
274084 On ch=2 n=a5 v=0
274228 On ch=2 n=a4 v=62
274244 On ch=2 n=d5 v=0
274388 Par ch=2 c=64 v=0
274388 On ch=2 n=a5 v=60
274404 On ch=2 n=a4 v=0
274556 Par ch=2 c=64 v=127
274556 On ch=2 n=c#4 v=83
274564 On ch=2 n=a5 v=0
274708 On ch=2 n=g4 v=54
274732 On ch=2 n=c#4 v=0
274868 Par ch=2 c=64 v=0
274868 On ch=2 n=e5 v=59
274884 On ch=2 n=g4 v=0
275028 On ch=2 n=a4 v=62
275036 Par ch=2 c=64 v=127
275044 On ch=2 n=e5 v=0
275188 On ch=2 n=g4 v=61
275204 On ch=2 n=a4 v=0
275348 Par ch=2 c=64 v=0
275348 On ch=2 n=e5 v=58
275364 On ch=2 n=g4 v=0
275508 On ch=2 n=d4 v=62
275512 Par ch=2 c=64 v=127
275524 On ch=2 n=e5 v=0
275668 On ch=2 n=f#4 v=56
275684 On ch=2 n=d4 v=0
275828 On ch=2 n=d5 v=73
275844 On ch=2 n=f#4 v=0
275988 On ch=2 n=g#4 v=86
276004 On ch=2 n=d5 v=0
276148 On ch=2 n=f#4 v=93
276164 On ch=2 n=g#4 v=0
276308 Par ch=2 c=64 v=0
276308 On ch=2 n=f#5 v=94
276324 On ch=2 n=f#4 v=0
276468 On ch=2 n=c#4 v=84
276478 Par ch=2 c=64 v=127
276481 On ch=2 n=f#5 v=0
276625 On ch=2 n=f#4 v=77
276641 On ch=2 n=c#4 v=0
276785 On ch=2 n=c#5 v=83
276801 On ch=2 n=f#4 v=0
276945 On ch=2 n=a4 v=85
276961 On ch=2 n=c#5 v=0
277105 On ch=2 n=f#4 v=85
277121 On ch=2 n=a4 v=0
277273 Par ch=2 c=64 v=0
277273 On ch=2 n=c#4 v=81
277281 On ch=2 n=f#4 v=0
277425 On ch=2 n=b3 v=92
277425 On ch=2 n=b3 v=92
277446 Par ch=2 c=64 v=127
277449 On ch=2 n=c#4 v=0
277585 On ch=2 n=f4 v=97
277601 On ch=2 n=b3 v=0
277601 On ch=2 n=b3 v=0
277745 On ch=2 n=c#5 v=100
277761 On ch=2 n=f4 v=0
277905 On ch=2 n=g#4 v=101
277921 On ch=2 n=c#5 v=0
278065 On ch=2 n=f4 v=99
278081 On ch=2 n=g#4 v=0
278225 Par ch=2 c=64 v=0
278225 On ch=2 n=b3 v=93
278241 On ch=2 n=f4 v=0
278385 On ch=2 n=a3 v=94
278401 On ch=2 n=b3 v=0
278413 Par ch=2 c=64 v=127
278545 On ch=2 n=f#4 v=100
278705 On ch=2 n=c#5 v=106
278865 On ch=2 n=f#5 v=112
279081 On ch=2 n=a3 v=0
279089 On ch=2 n=f#4 v=0
279121 On ch=2 n=c#5 v=0
279265 On ch=2 n=f#5 v=0
279318 Par ch=2 c=64 v=0
279345 On ch=2 n=b3 v=94
279357 Par ch=2 c=64 v=127
279505 On ch=2 n=f#4 v=102
279521 On ch=2 n=b3 v=0
279665 On ch=2 n=g#4 v=109
279681 On ch=2 n=f#4 v=0
279825 On ch=2 n=d5 v=116
279841 On ch=2 n=g#4 v=0
280001 On ch=2 n=d5 v=0
280145 On ch=2 n=d4 v=85
280161 Par ch=2 c=64 v=0
280305 On ch=2 n=c#4 v=81
280321 On ch=2 n=d4 v=0
280343 Par ch=2 c=64 v=127
280465 On ch=2 n=f#4 v=73
280481 On ch=2 n=c#4 v=0
280625 On ch=2 n=c#5 v=79
280641 On ch=2 n=f#4 v=0
280785 On ch=2 n=a4 v=82
280801 On ch=2 n=c#5 v=0
280945 On ch=2 n=f#4 v=82
280961 On ch=2 n=a4 v=0
281105 On ch=2 n=c#5 v=77
281121 On ch=2 n=f#4 v=0
281132 Par ch=2 c=64 v=0
281265 On ch=2 n=c#3 v=81
281281 On ch=2 n=c#5 v=0
281283 Par ch=2 c=64 v=127
281425 On ch=2 n=c#4 v=90
281441 On ch=2 n=c#3 v=0
281585 On ch=2 n=g#4 v=91
281601 On ch=2 n=c#4 v=0
281745 On ch=2 n=d5 v=87
281745 On ch=2 n=b4 v=87
281761 On ch=2 n=g#4 v=0
281905 On ch=2 n=c#5 v=79
281913 On ch=2 n=a4 v=79
281921 On ch=2 n=b4 v=0
281921 On ch=2 n=d5 v=0
282065 On ch=2 n=b4 v=69
282065 On ch=2 n=g#4 v=69
282081 On ch=2 n=c#5 v=0
282089 On ch=2 n=a4 v=0
282090 Par ch=2 c=64 v=0
282225 On ch=2 n=f#2 v=87
282241 On ch=2 n=g#4 v=0
282241 On ch=2 n=b4 v=0
282256 Par ch=2 c=64 v=127
282385 On ch=2 n=f#3 v=91
282401 On ch=2 n=f#2 v=0
282545 On ch=2 n=c#4 v=86
282561 On ch=2 n=f#3 v=0
282705 On ch=2 n=a4 v=81
282721 On ch=2 n=c#4 v=0
282865 On ch=2 n=c#5 v=76
282881 On ch=2 n=a4 v=0
283025 On ch=2 n=a5 v=72
283030 Par ch=2 c=64 v=0
283041 On ch=2 n=c#5 v=0
283185 On ch=2 n=f#5 v=67
283201 On ch=2 n=a5 v=0
283204 Par ch=2 c=64 v=127
283305 On ch=2 n=c#5 v=63
283317 On ch=2 n=f#5 v=0
283425 On ch=2 n=a4 v=57
283437 On ch=2 n=c#5 v=0
283553 On ch=2 n=b5 v=62
283557 On ch=2 n=a4 v=0
283665 On ch=2 n=f#5 v=54
283665 On ch=2 n=f#5 v=54
283685 On ch=2 n=b5 v=0
283785 On ch=2 n=c#5 v=46
283797 On ch=2 n=f#5 v=0
283797 On ch=2 n=f#5 v=0
283905 On ch=2 n=a4 v=40
283917 On ch=2 n=c#5 v=0
284025 On ch=2 n=a5 v=62
284025 On ch=2 n=a5 v=62
284025 Par ch=2 c=64 v=0
284025 Par ch=2 c=64 v=0
284037 On ch=2 n=a4 v=0
284145 On ch=2 n=g5 v=54
284145 Par ch=2 c=64 v=127
284157 On ch=2 n=a5 v=0
284157 On ch=2 n=a5 v=0
284265 On ch=2 n=e5 v=49
284277 On ch=2 n=g5 v=0
284385 On ch=2 n=a4 v=43
284397 On ch=2 n=e5 v=0
284513 On ch=2 n=b5 v=61
284517 On ch=2 n=a4 v=0
284625 On ch=2 n=g5 v=57
284645 On ch=2 n=b5 v=0
284745 On ch=2 n=e5 v=52
284757 On ch=2 n=g5 v=0
284865 On ch=2 n=a4 v=48
284877 On ch=2 n=e5 v=0
284985 On ch=2 n=a5 v=59
284997 On ch=2 n=a4 v=0
285088 Par ch=2 c=64 v=0
285105 Par ch=2 c=64 v=127
285105 On ch=2 n=f#5 v=55
285117 On ch=2 n=a5 v=0
285225 On ch=2 n=d5 v=53
285237 On ch=2 n=f#5 v=0
285345 On ch=2 n=a4 v=49
285357 On ch=2 n=d5 v=0
285465 On ch=2 n=b5 v=59
285477 On ch=2 n=a4 v=0
285568 Par ch=2 c=64 v=0
285585 Par ch=2 c=64 v=127
285585 On ch=2 n=g5 v=56
285597 On ch=2 n=b5 v=0
285705 On ch=2 n=c#5 v=53
285717 On ch=2 n=g5 v=0
285825 On ch=2 n=a4 v=49
285837 On ch=2 n=c#5 v=0
285945 On ch=2 n=a5 v=68
285957 On ch=2 n=a4 v=0
286049 Par ch=2 c=64 v=0
286065 Par ch=2 c=64 v=127
286065 On ch=2 n=f#5 v=64
286077 On ch=2 n=a5 v=0
286185 On ch=2 n=d5 v=60
286197 On ch=2 n=f#5 v=0
286305 On ch=2 n=a4 v=57
286317 On ch=2 n=d5 v=0
286425 On ch=2 n=a5 v=69
286437 On ch=2 n=a4 v=0
286529 Par ch=2 c=64 v=0
286545 Par ch=2 c=64 v=127
286545 On ch=2 n=f#5 v=66
286557 On ch=2 n=a5 v=0
286665 On ch=2 n=d#5 v=64
286677 On ch=2 n=f#5 v=0
286785 On ch=2 n=a4 v=60
286797 On ch=2 n=d#5 v=0
286905 On ch=2 n=a5 v=76
286917 On ch=2 n=a4 v=0
287003 Par ch=2 c=64 v=0
287025 Par ch=2 c=64 v=127
287025 On ch=2 n=g5 v=70
287037 On ch=2 n=a5 v=0
287145 On ch=2 n=e5 v=65
287157 On ch=2 n=g5 v=0
287265 On ch=2 n=a4 v=59
287277 On ch=2 n=e5 v=0
287385 On ch=2 n=b5 v=79
287397 On ch=2 n=a4 v=0
287485 Par ch=2 c=64 v=0
287505 Par ch=2 c=64 v=127
287505 On ch=2 n=g5 v=74
287517 On ch=2 n=b5 v=0
287625 On ch=2 n=c#5 v=69
287637 On ch=2 n=g5 v=0
287745 On ch=2 n=a4 v=64
287757 On ch=2 n=c#5 v=0
287865 On ch=2 n=a5 v=79
287877 On ch=2 n=a4 v=0
287964 Par ch=2 c=64 v=0
287985 Par ch=2 c=64 v=127
287985 On ch=2 n=f#5 v=68
287997 On ch=2 n=a5 v=0
288105 On ch=2 n=d5 v=65
288117 On ch=2 n=f#5 v=0
288225 On ch=2 n=a4 v=59
288237 On ch=2 n=d5 v=0
288345 On ch=2 n=b5 v=68
288357 On ch=2 n=a4 v=0
288449 Par ch=2 c=64 v=0
288465 Par ch=2 c=64 v=127
288465 On ch=2 n=g5 v=79
288477 On ch=2 n=b5 v=0
288585 On ch=2 n=e5 v=44
288597 On ch=2 n=g5 v=0
288705 On ch=2 n=a4 v=46
288717 On ch=2 n=e5 v=0
288825 On ch=2 n=a5 v=53
288837 On ch=2 n=a4 v=0
288932 Par ch=2 c=64 v=0
288942 Par ch=2 c=64 v=127
288942 On ch=2 n=f#5 v=60
288954 On ch=2 n=a5 v=0
289062 On ch=2 n=d5 v=48
289074 On ch=2 n=f#5 v=0
289182 On ch=2 n=a4 v=59
289194 On ch=2 n=d5 v=0
289302 On ch=2 n=b5 v=71
289314 On ch=2 n=a4 v=0
289406 Par ch=2 c=64 v=0
289422 Par ch=2 c=64 v=127
289422 On ch=2 n=g5 v=51
289434 On ch=2 n=b5 v=0
289542 On ch=2 n=c#5 v=58
289554 On ch=2 n=g5 v=0
289662 On ch=2 n=a4 v=64
289674 On ch=2 n=c#5 v=0
289782 On ch=2 n=a5 v=70
289794 On ch=2 n=a4 v=0
289889 Par ch=2 c=64 v=0
289899 Par ch=2 c=64 v=127
289899 On ch=2 n=f#5 v=50
289911 On ch=2 n=a5 v=0
290019 On ch=2 n=d5 v=60
290031 On ch=2 n=f#5 v=0
290139 On ch=2 n=a4 v=70
290151 On ch=2 n=d5 v=0
290259 On ch=2 n=a5 v=80
290271 On ch=2 n=a4 v=0
290351 Par ch=2 c=64 v=0
290379 Par ch=2 c=64 v=127
290379 On ch=2 n=f5 v=69
290391 On ch=2 n=a5 v=0
290499 On ch=2 n=d5 v=74
290511 On ch=2 n=f5 v=0
290619 On ch=2 n=a4 v=80
290631 On ch=2 n=d5 v=0
290739 On ch=2 n=a5 v=85
290751 On ch=2 n=a4 v=0
290848 Par ch=2 c=64 v=0
290859 Par ch=2 c=64 v=127
290859 On ch=2 n=e5 v=77
290871 On ch=2 n=a5 v=0
290979 On ch=2 n=d5 v=84
290991 On ch=2 n=e5 v=0
291099 On ch=2 n=a4 v=92
291111 On ch=2 n=d5 v=0
291219 On ch=2 n=a5 v=114
291231 On ch=2 n=a4 v=0
291323 Par ch=2 c=64 v=0
291339 Par ch=2 c=64 v=127
291339 On ch=2 n=e5 v=87
291351 On ch=2 n=a5 v=0
291459 On ch=2 n=c#5 v=94
291471 On ch=2 n=e5 v=0
291579 On ch=2 n=g4 v=101
291591 On ch=2 n=c#5 v=0
291699 Par ch=2 c=64 v=0
291699 On ch=2 n=a5 v=125
291711 On ch=2 n=g4 v=0
291819 On ch=2 n=f#4 v=85
291819 Par ch=2 c=64 v=127
291831 On ch=2 n=a5 v=0
291939 On ch=2 n=a4 v=94
291951 On ch=2 n=f#4 v=0
292059 On ch=2 n=d5 v=103
292071 On ch=2 n=a4 v=0
292179 On ch=2 n=a4 v=113
292191 On ch=2 n=d5 v=0
292299 On ch=2 n=a5 v=110
292299 On ch=2 n=a5 v=122
292311 On ch=2 n=a4 v=0
292571 On ch=2 n=a5 v=0
292571 On ch=2 n=a5 v=0
292709 Par ch=2 c=64 v=0
292776 Par ch=2 c=64 v=127
292776 On ch=2 n=e4 v=93
292896 On ch=2 n=a4 v=96
292908 On ch=2 n=e4 v=0
293016 On ch=2 n=g5 v=99
293028 On ch=2 n=a4 v=0
293136 On ch=2 n=c#5 v=103
293148 On ch=2 n=g5 v=0
293256 On ch=2 n=a5 v=106
293268 On ch=2 n=c#5 v=0
293518 Par ch=2 c=64 v=0
293520 On ch=2 n=a5 v=0
293736 On ch=2 n=d4 v=97
293736 Par ch=2 c=64 v=127
293856 On ch=2 n=a4 v=103
293868 On ch=2 n=d4 v=0
293976 On ch=2 n=d5 v=108
293988 On ch=2 n=a4 v=0
294096 On ch=2 n=a4 v=113
294108 On ch=2 n=d5 v=0
294216 On ch=2 n=f#5 v=119
294228 On ch=2 n=a4 v=0
294504 On ch=2 n=f#5 v=0
294674 Par ch=2 c=64 v=0
294696 Par ch=2 c=64 v=127
294696 On ch=2 n=g4 v=107
294816 On ch=2 n=a#4 v=109
294828 On ch=2 n=g4 v=0
294936 On ch=2 n=c#5 v=112
294948 On ch=2 n=a#4 v=0
295056 On ch=2 n=a#4 v=114
295068 On ch=2 n=c#5 v=0
295176 On ch=2 n=a#5 v=117
295188 On ch=2 n=a#4 v=0
295440 On ch=2 n=a#5 v=0
295591 Par ch=2 c=64 v=0
295656 Par ch=2 c=64 v=127
295656 On ch=2 n=f#3 v=126
295784 On ch=2 n=d4 v=126
295788 On ch=2 n=f#3 v=0
295896 On ch=2 n=a4 v=126
295916 On ch=2 n=d4 v=0
296016 On ch=2 n=a3 v=126
296028 On ch=2 n=a4 v=0
296136 On ch=2 n=a4 v=126
296136 On ch=2 n=d5 v=126
296136 On ch=2 n=a5 v=126
296148 On ch=2 n=a3 v=0
296392 On ch=2 n=a5 v=0
296400 On ch=2 n=d5 v=0
296400 On ch=2 n=a4 v=0
296578 Par ch=2 c=64 v=0
296616 Par ch=2 c=64 v=127
296616 On ch=2 n=e3 v=126
296736 On ch=2 n=a3 v=127
296748 On ch=2 n=e3 v=0
296856 On ch=2 n=a4 v=127
296868 On ch=2 n=a3 v=0
296976 On ch=2 n=a3 v=127
296988 On ch=2 n=a4 v=0
297096 On ch=2 n=a4 v=127
297096 On ch=2 n=c#5 v=127
297096 On ch=2 n=g5 v=127
297108 On ch=2 n=a3 v=0
297368 On ch=2 n=g5 v=0
297368 On ch=2 n=c#5 v=0
297368 On ch=2 n=a4 v=0
297544 Par ch=2 c=64 v=0
297547 Par ch=2 c=64 v=0
297576 Par ch=2 c=64 v=127
297576 Par ch=2 c=64 v=127
297576 On ch=2 n=d3 v=127
297696 On ch=2 n=a3 v=127
297708 On ch=2 n=d3 v=0
297816 On ch=2 n=a4 v=127
297828 On ch=2 n=a3 v=0
297936 On ch=2 n=a3 v=127
297948 On ch=2 n=a4 v=0
298056 On ch=2 n=a4 v=127
298056 On ch=2 n=f#4 v=127
298056 On ch=2 n=d5 v=127
298068 On ch=2 n=a3 v=0
298320 On ch=2 n=f#4 v=0
298328 On ch=2 n=d5 v=0
298328 On ch=2 n=a4 v=0
298509 Par ch=2 c=64 v=0
298536 Par ch=2 c=64 v=127
298536 On ch=2 n=f#3 v=124
298656 On ch=2 n=c#4 v=124
298668 On ch=2 n=f#3 v=0
298776 On ch=2 n=e4 v=124
298788 On ch=2 n=c#4 v=0
298896 On ch=2 n=g4 v=124
298908 On ch=2 n=e4 v=0
299016 On ch=2 n=a#4 v=124
299028 On ch=2 n=g4 v=0
299136 On ch=2 n=c#5 v=124
299148 On ch=2 n=a#4 v=0
299256 On ch=2 n=e5 v=124
299268 On ch=2 n=c#5 v=0
299376 On ch=2 n=a#5 v=98
299388 On ch=2 n=e5 v=0
299410 Par ch=2 c=64 v=0
299496 On ch=2 n=f#4 v=40
299496 On ch=2 n=c5 v=40
299496 On ch=2 n=d#5 v=40
299496 On ch=2 n=f#4 v=40
299496 On ch=2 n=c5 v=40
299496 On ch=2 n=d#5 v=40
299508 On ch=2 n=a#5 v=0
299760 On ch=2 n=d#5 v=0
299760 On ch=2 n=c5 v=0
299760 On ch=2 n=f#4 v=0
299760 On ch=2 n=d#5 v=0
299760 On ch=2 n=c5 v=0
299760 On ch=2 n=f#4 v=0
299976 On ch=2 n=f#4 v=48
300456 On ch=2 n=f4 v=64
300504 On ch=2 n=f#4 v=0
300576 On ch=2 n=f#4 v=67
300588 On ch=2 n=f4 v=0
300696 On ch=2 n=a4 v=70
300708 On ch=2 n=f#4 v=0
300816 On ch=2 n=g4 v=68
300828 On ch=2 n=a4 v=0
300936 On ch=2 n=d#4 v=71
300948 On ch=2 n=g4 v=0
301056 On ch=2 n=e4 v=74
301068 On ch=2 n=d#4 v=0
301176 On ch=2 n=g4 v=77
301188 On ch=2 n=e4 v=0
301296 On ch=2 n=f#4 v=79
301308 On ch=2 n=g4 v=0
301416 Par ch=2 c=64 v=127
301416 On ch=2 n=d#3 v=82
301416 On ch=2 n=d#4 v=82
301428 On ch=2 n=f#4 v=0
301896 On ch=2 n=a5 v=54
301896 On ch=2 n=f#5 v=54
301896 On ch=2 n=b4 v=54
301944 On ch=2 n=d#4 v=0
301944 On ch=2 n=d#3 v=0
302376 On ch=2 n=e3 v=58
302376 On ch=2 n=e4 v=58
302424 On ch=2 n=b4 v=0
302424 On ch=2 n=f#5 v=0
302424 On ch=2 n=a5 v=0
302856 On ch=2 n=e5 v=62
302856 On ch=2 n=g#5 v=62
302856 Par ch=2 c=64 v=0
302856 On ch=2 n=b4 v=62
302904 On ch=2 n=e4 v=0
302904 On ch=2 n=e3 v=0
303336 On ch=2 n=a3 v=75
303336 On ch=2 n=a2 v=75
303384 On ch=2 n=b4 v=0
303384 On ch=2 n=g#5 v=0
303384 On ch=2 n=e5 v=0
303806 On ch=2 n=a2 v=0
303806 On ch=2 n=a3 v=0
303816 On ch=2 n=a4 v=57
303816 On ch=2 n=c#5 v=57
303816 On ch=2 n=g5 v=57
304286 On ch=2 n=g5 v=0
304286 On ch=2 n=c#5 v=0
304286 On ch=2 n=a4 v=0
304296 On ch=2 n=d4 v=63
304296 On ch=2 n=d3 v=63
304766 On ch=2 n=d3 v=0
304766 On ch=2 n=d4 v=0
304776 On ch=2 n=a4 v=63
304776 On ch=2 n=c5 v=63
304776 On ch=2 n=f#5 v=63
305246 On ch=2 n=f#5 v=0
305246 On ch=2 n=c5 v=0
305246 On ch=2 n=a4 v=0
305256 On ch=2 n=g3 v=60
305496 On ch=2 n=g4 v=65
305505 On ch=2 n=g3 v=0
305736 On ch=2 n=b4 v=76
305984 On ch=2 n=d#5 v=87
306224 On ch=2 n=e5 v=98
306240 On ch=2 n=d#5 v=0
306720 On ch=2 n=b4 v=0
306728 On ch=2 n=e5 v=0
306728 On ch=2 n=g4 v=0
307176 On ch=2 n=g3 v=55
307656 On ch=2 n=f#3 v=59
307675 On ch=2 n=g3 v=0
308136 On ch=2 n=e3 v=53
308155 On ch=2 n=f#3 v=0
308616 On ch=2 n=a3 v=89
308635 On ch=2 n=e3 v=0
309096 On ch=2 n=a#2 v=69
309104 On ch=2 n=a#3 v=69
309104 On ch=2 n=a#3 v=69
309115 On ch=2 n=a3 v=0
309576 On ch=2 n=f#4 v=48
309576 On ch=2 n=c#5 v=48
309576 On ch=2 n=e5 v=48
309595 On ch=2 n=a#2 v=0
309603 On ch=2 n=a#3 v=0
309603 On ch=2 n=a#3 v=0
310056 On ch=2 n=b3 v=48
310056 On ch=2 n=b2 v=48
310075 On ch=2 n=e5 v=0
310075 On ch=2 n=c#5 v=0
310075 On ch=2 n=f#4 v=0
310536 On ch=2 n=b4 v=54
310536 On ch=2 n=d#5 v=54
310555 On ch=2 n=b2 v=0
310555 On ch=2 n=b3 v=0
311016 On ch=2 n=e4 v=69
311016 On ch=2 n=e3 v=69
311035 On ch=2 n=d#5 v=0
311035 On ch=2 n=b4 v=0
311480 On ch=2 n=e4 v=0
311496 On ch=2 n=e4 v=47
311496 On ch=2 n=d5 v=47
311496 On ch=2 n=g#4 v=47
311515 On ch=2 n=e3 v=0
311976 On ch=2 n=a3 v=51
311976 On ch=2 n=a2 v=51
311995 On ch=2 n=g#4 v=0
311995 On ch=2 n=d5 v=0
311995 On ch=2 n=e4 v=0
312456 On ch=2 n=c#5 v=59
312456 On ch=2 n=a4 v=59
312475 On ch=2 n=a2 v=0
312475 On ch=2 n=a3 v=0
312936 On ch=2 n=c5 v=57
312936 On ch=2 n=d4 v=57
312955 On ch=2 n=a4 v=0
312955 On ch=2 n=c#5 v=0
313171 On ch=2 n=c5 v=0
313176 On ch=2 n=b4 v=61
313293 On ch=2 n=b4 v=0
313296 On ch=2 n=a#4 v=63
313406 On ch=2 n=d4 v=0
313413 On ch=2 n=a#4 v=0
313416 On ch=2 n=a4 v=64
313533 On ch=2 n=a4 v=0
313536 On ch=2 n=g#4 v=67
313653 On ch=2 n=g#4 v=0
313656 On ch=2 n=c5 v=69
313773 On ch=2 n=c5 v=0
313776 On ch=2 n=b4 v=70
313893 On ch=2 n=b4 v=0
313896 On ch=2 n=e4 v=72
313896 On ch=2 n=d5 v=72
314013 On ch=2 n=d5 v=0
314016 On ch=2 n=c#5 v=74
314133 On ch=2 n=c#5 v=0
314136 On ch=2 n=c5 v=76
314253 On ch=2 n=c5 v=0
314256 On ch=2 n=b4 v=78
314366 On ch=2 n=e4 v=0
314373 On ch=2 n=b4 v=0
314376 On ch=2 n=a#4 v=80
314493 On ch=2 n=a#4 v=0
314504 On ch=2 n=d5 v=82
314616 On ch=2 n=c#5 v=84
314621 On ch=2 n=d5 v=0
314733 On ch=2 n=c#5 v=0
314736 On ch=2 n=e5 v=86
314856 On ch=2 n=f#4 v=88
314968 On ch=2 n=e5 v=0
314976 On ch=2 n=d#5 v=89
315093 On ch=2 n=d#5 v=0
315096 On ch=2 n=d5 v=91
315213 On ch=2 n=d5 v=0
315216 On ch=2 n=c#5 v=93
315326 On ch=2 n=f#4 v=0
315333 On ch=2 n=c#5 v=0
315336 On ch=2 n=b4 v=95
315336 On ch=2 n=f#5 v=95
315792 On ch=2 n=f#5 v=0
315806 On ch=2 n=b4 v=0
315816 On ch=2 n=g#4 v=100
315816 On ch=2 n=f5 v=100
316272 On ch=2 n=f5 v=0
316286 On ch=2 n=g#4 v=0
316536 On ch=2 n=b4 v=100
316536 On ch=2 n=g#5 v=100
316771 On ch=2 n=g#5 v=0
316771 On ch=2 n=b4 v=0
316776 On ch=2 n=a4 v=100
316776 On ch=2 n=a5 v=100
317011 On ch=2 n=a5 v=0
317011 On ch=2 n=a4 v=0
319664 On ch=2 n=g5 v=64
319664 On ch=2 n=g5 v=64
319896 On ch=2 n=b4 v=49
319899 On ch=2 n=g5 v=0
319899 On ch=2 n=g5 v=0
320131 On ch=2 n=b4 v=0
320136 On ch=2 n=e5 v=53
320371 On ch=2 n=e5 v=0
320376 On ch=2 n=a4 v=42
320611 On ch=2 n=a4 v=0
320616 Par ch=2 c=64 v=127
320616 On ch=2 n=d3 v=59
320736 On ch=2 n=a3 v=66
320748 On ch=2 n=d3 v=0
320856 On ch=2 n=d4 v=73
320868 On ch=2 n=a3 v=0
320976 On ch=2 n=a4 v=79
320988 On ch=2 n=d4 v=0
321019 Par ch=2 c=64 v=127
321108 On ch=2 n=a4 v=0
321576 On ch=2 n=d4 v=55
321696 On ch=2 n=a4 v=63
321708 On ch=2 n=d4 v=0
321816 On ch=2 n=d5 v=69
321828 On ch=2 n=a4 v=0
321936 On ch=2 n=e5 v=76
321948 On ch=2 n=d5 v=0
322068 On ch=2 n=e5 v=0
322536 On ch=2 n=b3 v=77
322656 On ch=2 n=f#4 v=80
322668 On ch=2 n=b3 v=0
322776 On ch=2 n=b4 v=84
322788 On ch=2 n=f#4 v=0
322896 On ch=2 n=c#5 v=88
322908 On ch=2 n=b4 v=0
323028 On ch=2 n=c#5 v=0
323496 On ch=2 n=e3 v=79
323616 On ch=2 n=b3 v=80
323628 On ch=2 n=e3 v=0
323736 On ch=2 n=e4 v=81
323748 On ch=2 n=b3 v=0
323856 On ch=2 n=b4 v=82
323868 On ch=2 n=e4 v=0
323988 On ch=2 n=b4 v=0
324456 On ch=2 n=a3 v=84
324576 On ch=2 n=e4 v=78
324600 On ch=2 n=a3 v=0
324696 On ch=2 n=a4 v=72
324728 On ch=2 n=e4 v=0
324816 On ch=2 n=d5 v=66
325280 On ch=2 n=d5 v=0
325288 On ch=2 n=a4 v=0
325416 On ch=2 n=a3 v=78
325536 On ch=2 n=e4 v=81
325548 On ch=2 n=a3 v=0
325656 On ch=2 n=a4 v=84
325668 On ch=2 n=e4 v=0
325776 On ch=2 n=d5 v=86
325788 On ch=2 n=a4 v=0
325896 On ch=2 n=e5 v=88
325908 On ch=2 n=d5 v=0
326376 On ch=2 n=a3 v=77
326400 On ch=2 n=e5 v=0
326496 On ch=2 n=e4 v=80
326508 On ch=2 n=a3 v=0
326616 On ch=2 n=a4 v=88
326628 On ch=2 n=e4 v=0
326736 On ch=2 n=e5 v=95
327184 On ch=2 n=a4 v=0
327208 On ch=2 n=e5 v=0
327216 On ch=2 n=a4 v=90
327320 On ch=2 n=a4 v=0
327336 On ch=2 n=a4 v=90
328296 On ch=2 n=d4 v=66
328304 On ch=2 n=a4 v=0
328416 On ch=2 n=a4 v=56
328472 On ch=2 n=d4 v=0
328544 On ch=2 n=d5 v=65
328576 On ch=2 n=a4 v=0
328656 On ch=2 n=e5 v=74
328688 On ch=2 n=d5 v=0
328824 On ch=2 n=e5 v=0
329136 On ch=2 n=a3 v=84
329248 On ch=2 n=a3 v=0
329256 On ch=2 n=a3 v=81
329376 On ch=2 n=a4 v=74
329388 On ch=2 n=a3 v=0
329496 On ch=2 n=d5 v=77
329496 On ch=2 n=d5 v=77
329508 On ch=2 n=a4 v=0
329624 On ch=2 n=e5 v=80
329628 On ch=2 n=d5 v=0
329628 On ch=2 n=d5 v=0
329756 On ch=2 n=e5 v=0
330216 On ch=2 n=b3 v=58
330336 On ch=2 n=f#4 v=65
330338 On ch=2 n=b3 v=0
330456 On ch=2 n=b4 v=71
330458 On ch=2 n=f#4 v=0
330576 On ch=2 n=c#5 v=78
330578 On ch=2 n=b4 v=0
330698 On ch=2 n=c#5 v=0
331056 On ch=2 n=e3 v=66
331167 On ch=2 n=e3 v=0
331176 On ch=2 n=e3 v=70
331296 On ch=2 n=b3 v=74
331321 On ch=2 n=e3 v=0
331416 On ch=2 n=e4 v=78
331441 On ch=2 n=b3 v=0
331536 On ch=2 n=b4 v=81
331668 On ch=2 n=b4 v=0
332136 On ch=2 n=a3 v=65
332208 On ch=2 n=e4 v=0
332256 On ch=2 n=e4 v=72
332268 On ch=2 n=a3 v=0
332376 On ch=2 n=a4 v=79
332388 On ch=2 n=e4 v=0
332496 On ch=2 n=b4 v=85
332508 On ch=2 n=a4 v=0
332616 On ch=2 n=c#5 v=92
332628 On ch=2 n=b4 v=0
332748 On ch=2 n=c#5 v=0
333096 On ch=2 n=a3 v=92
333224 On ch=2 n=e4 v=93
333228 On ch=2 n=a3 v=0
333336 On ch=2 n=a4 v=95
333356 On ch=2 n=e4 v=0
333456 On ch=2 n=d5 v=97
333468 On ch=2 n=a4 v=0
333584 On ch=2 n=e5 v=98
333588 On ch=2 n=d5 v=0
334056 On ch=2 n=a3 v=83
334080 On ch=2 n=e5 v=0
334176 On ch=2 n=e4 v=86
334188 On ch=2 n=a3 v=0
334296 On ch=2 n=a4 v=90
334308 On ch=2 n=e4 v=0
334416 On ch=2 n=e5 v=94
334888 On ch=2 n=a4 v=0
334896 On ch=2 n=e5 v=0
334896 On ch=2 n=a2 v=92
335016 On ch=2 n=a3 v=93
335028 On ch=2 n=a2 v=0
335136 On ch=2 n=e4 v=96
335148 On ch=2 n=a3 v=0
335256 On ch=2 n=a4 v=98
335268 On ch=2 n=e4 v=0
335376 On ch=2 n=e5 v=101
335388 On ch=2 n=a4 v=0
335496 On ch=2 n=a5 v=103
335508 On ch=2 n=e5 v=0
335624 On ch=2 n=e6 v=106
335628 On ch=2 n=a5 v=0
335756 On ch=2 n=e6 v=0
335984 On ch=2 n=d3 v=113
336216 On ch=2 n=a3 v=119
336256 On ch=2 n=d3 v=0
336336 On ch=2 n=d4 v=119
336348 On ch=2 n=a3 v=0
336456 On ch=2 n=a4 v=120
336468 On ch=2 n=d4 v=0
336576 On ch=2 n=c5 v=120
336588 On ch=2 n=a4 v=0
336696 On ch=2 n=f#5 v=121
336708 On ch=2 n=c5 v=0
336816 On ch=2 n=a5 v=121
336828 On ch=2 n=f#5 v=0
336936 On ch=2 n=c6 v=122
336948 On ch=2 n=a5 v=0
337896 On ch=2 n=d3 v=119
337904 On ch=2 n=c6 v=0
338144 On ch=2 n=b3 v=119
338152 On ch=2 n=d3 v=0
338256 On ch=2 n=d4 v=107
338276 On ch=2 n=b3 v=0
338376 On ch=2 n=f4 v=103
338388 On ch=2 n=d4 v=0
338496 On ch=2 n=g#4 v=98
338508 On ch=2 n=f4 v=0
338616 On ch=2 n=b4 v=93
338628 On ch=2 n=g#4 v=0
338744 On ch=2 n=f5 v=88
338748 On ch=2 n=b4 v=0
338856 On ch=2 n=e5 v=84
338872 On ch=2 n=f5 v=0
339824 On ch=2 n=d3 v=100
339840 On ch=2 n=e5 v=0
340064 On ch=2 n=a3 v=84
340080 On ch=2 n=d3 v=0
340176 On ch=2 n=d4 v=88
340196 On ch=2 n=a3 v=0
340296 On ch=2 n=a4 v=93
340308 On ch=2 n=d4 v=0
340416 On ch=2 n=c5 v=99
340428 On ch=2 n=a4 v=0
340536 On ch=2 n=c#5 v=105
340548 On ch=2 n=c5 v=0
340656 On ch=2 n=d5 v=110
340668 On ch=2 n=c#5 v=0
340776 On ch=2 n=d#5 v=116
340788 On ch=2 n=d5 v=0
340896 On ch=2 n=c5 v=110
341016 On ch=2 n=a4 v=105
341028 On ch=2 n=c5 v=0
341136 On ch=2 n=f#4 v=100
341148 On ch=2 n=a4 v=0
341256 On ch=2 n=d#4 v=95
341268 On ch=2 n=f#4 v=0
341280 On ch=2 n=d#5 v=0
341376 On ch=2 n=d4 v=90
341388 On ch=2 n=d#4 v=0
341496 On ch=2 n=a3 v=86
341508 On ch=2 n=d4 v=0
341616 On ch=2 n=d#3 v=81
341628 On ch=2 n=a3 v=0
341736 On ch=2 n=d3 v=75
341748 On ch=2 n=d#3 v=0
341976 On ch=2 n=b3 v=73
342008 On ch=2 n=d3 v=0
342096 On ch=2 n=d4 v=77
342108 On ch=2 n=b3 v=0
342216 On ch=2 n=d#4 v=81
342228 On ch=2 n=d4 v=0
342336 On ch=2 n=e4 v=86
342348 On ch=2 n=d#4 v=0
342456 On ch=2 n=f4 v=91
342468 On ch=2 n=e4 v=0
342576 On ch=2 n=b4 v=88
342588 On ch=2 n=f4 v=0
342704 On ch=2 n=a#4 v=84
342708 On ch=2 n=b4 v=0
343656 On ch=2 n=d4 v=70
343656 On ch=2 n=a4 v=70
343680 On ch=2 n=a#4 v=0
344616 On ch=2 n=g3 v=69
344616 On ch=2 n=b4 v=69
344624 On ch=2 n=a4 v=0
344640 On ch=2 n=d4 v=0
344856 On ch=2 n=f#3 v=74
344880 On ch=2 n=g3 v=0
344976 On ch=2 n=g3 v=79
344988 On ch=2 n=f#3 v=0
345096 On ch=2 n=a3 v=84
345108 On ch=2 n=g3 v=0
345216 On ch=2 n=g3 v=80
345228 On ch=2 n=a3 v=0
345336 On ch=2 n=d4 v=75
345348 On ch=2 n=g3 v=0
345456 On ch=2 n=g3 v=81
345468 On ch=2 n=d4 v=0
345576 On ch=2 n=b4 v=0
345576 On ch=2 n=d3 v=87
345576 On ch=2 n=a4 v=87
345588 On ch=2 n=g3 v=0
346536 On ch=2 n=g2 v=80
346536 On ch=2 n=b4 v=80
346552 On ch=2 n=a4 v=0
346552 On ch=2 n=d3 v=0
346776 On ch=2 n=f#2 v=75
346800 On ch=2 n=g2 v=0
346896 On ch=2 n=g2 v=79
346908 On ch=2 n=f#2 v=0
347016 On ch=2 n=a2 v=98
347028 On ch=2 n=g2 v=0
347136 On ch=2 n=g2 v=92
347148 On ch=2 n=a2 v=0
347256 On ch=2 n=d3 v=87
347268 On ch=2 n=g2 v=0
347376 On ch=2 n=g2 v=93
347388 On ch=2 n=d3 v=0
347496 On ch=2 n=a2 v=94
347496 On ch=2 n=g4 v=94
347504 On ch=2 n=b4 v=0
347508 On ch=2 n=g2 v=0
348456 On ch=2 n=a#2 v=100
348480 On ch=2 n=a2 v=0
348616 On ch=2 n=a#2 v=0
348616 On ch=2 n=b2 v=103
348696 On ch=2 n=a#2 v=104
348704 On ch=2 n=b2 v=0
348776 On ch=2 n=b2 v=105
348784 On ch=2 n=a#2 v=0
348864 On ch=2 n=b2 v=0
348864 On ch=2 n=a#2 v=107
348936 On ch=2 n=g4 v=0
348936 On ch=2 n=b2 v=108
348936 On ch=2 n=f#4 v=100
348952 On ch=2 n=a#2 v=0
349016 On ch=2 n=a#2 v=109
349024 On ch=2 n=b2 v=0
349096 On ch=2 n=b2 v=111
349104 On ch=2 n=a#2 v=0
349176 On ch=2 n=a#2 v=112
349184 On ch=2 n=b2 v=0
349256 On ch=2 n=a2 v=113
349264 On ch=2 n=a#2 v=0
349336 On ch=2 n=a#2 v=115
349344 On ch=2 n=a2 v=0
349400 On ch=2 n=f#4 v=0
349416 On ch=2 n=f#4 v=100
349416 On ch=2 n=b2 v=100
349424 On ch=2 n=a#2 v=0
350384 On ch=2 n=f#3 v=102
350400 On ch=2 n=b2 v=0
350856 On ch=2 n=c#4 v=91
351000 On ch=2 n=f#4 v=0
351336 On ch=2 n=g#4 v=100
351800 On ch=2 n=c#4 v=0
351816 On ch=2 n=c#4 v=84
352296 On ch=2 n=f3 v=100
352312 On ch=2 n=f#3 v=0
352536 On ch=2 n=c4 v=85
352552 On ch=2 n=c#4 v=0
352656 On ch=2 n=c#4 v=89
352668 On ch=2 n=c4 v=0
352776 On ch=2 n=d4 v=94
352788 On ch=2 n=c#4 v=0
352896 On ch=2 n=c#4 v=99
352908 On ch=2 n=d4 v=0
352992 On ch=2 n=g#4 v=0
353016 On ch=2 n=g#4 v=93
353028 On ch=2 n=c#4 v=0
353136 On ch=2 n=c#4 v=88
353256 On ch=2 n=g#3 v=100
353256 On ch=2 n=f#4 v=100
353256 On ch=2 n=b4 v=100
353268 On ch=2 n=c#4 v=0
353280 On ch=2 n=f3 v=0
353296 On ch=2 n=g#4 v=0
353496 On ch=2 n=g#3 v=0
353496 On ch=2 n=c#3 v=95
353736 On ch=2 n=f4 v=79
353752 On ch=2 n=f#4 v=0
354096 On ch=2 n=a4 v=77
354136 On ch=2 n=f4 v=0
354216 On ch=2 n=g#4 v=73
354228 On ch=2 n=a4 v=0
354385 On ch=2 n=c#3 v=0
354696 On ch=2 n=a4 v=81
354720 On ch=2 n=g#4 v=0
354816 On ch=2 n=g#4 v=77
354828 On ch=2 n=a4 v=0
354936 On ch=2 n=f#4 v=72
354948 On ch=2 n=g#4 v=0
355064 On ch=2 n=d4 v=67
355068 On ch=2 n=f#4 v=0
355168 On ch=2 n=b4 v=0
355176 On ch=2 n=b4 v=64
355184 On ch=2 n=f3 v=64
355184 On ch=2 n=f3 v=64
355196 On ch=2 n=d4 v=0
356136 On ch=2 n=f4 v=54
356136 On ch=2 n=f4 v=54
356144 On ch=2 n=f3 v=0
356144 On ch=2 n=f3 v=0
356608 On ch=2 n=f4 v=0
356608 On ch=2 n=f4 v=0
356616 On ch=2 n=f4 v=46
357104 On ch=2 n=b4 v=0
357336 On ch=2 n=e4 v=64
357360 On ch=2 n=f4 v=0
357456 On ch=2 n=f4 v=69
357468 On ch=2 n=e4 v=0
357576 On ch=2 n=f#4 v=74
357588 On ch=2 n=f4 v=0
357696 On ch=2 n=f4 v=59
357708 On ch=2 n=f#4 v=0
357816 On ch=2 n=d5 v=63
357828 On ch=2 n=f4 v=0
357936 On ch=2 n=c5 v=67
357948 On ch=2 n=d5 v=0
358056 On ch=2 n=c#5 v=71
358068 On ch=2 n=c5 v=0
358536 On ch=2 n=b4 v=59
358592 On ch=2 n=c#5 v=0
359016 On ch=2 n=a#4 v=63
359056 On ch=2 n=b4 v=0
359136 On ch=2 n=c#5 v=67
359148 On ch=2 n=a#4 v=0
359256 On ch=2 n=e4 v=71
359268 On ch=2 n=c#5 v=0
359376 On ch=2 n=f#4 v=76
359388 On ch=2 n=e4 v=0
359496 On ch=2 n=a4 v=84
359508 On ch=2 n=f#4 v=0
359616 On ch=2 n=g4 v=80
359628 On ch=2 n=a4 v=0
359736 On ch=2 n=e4 v=76
359748 On ch=2 n=g4 v=0
359856 On ch=2 n=c#4 v=72
359868 On ch=2 n=e4 v=0
359976 On ch=2 n=g4 v=80
359988 On ch=2 n=c#4 v=0
360096 On ch=2 n=a#4 v=74
360108 On ch=2 n=g4 v=0
360216 On ch=2 n=c4 v=82
360228 On ch=2 n=a#4 v=0
360336 On ch=2 n=c#4 v=88
360348 On ch=2 n=c4 v=0
360456 On ch=2 n=f#4 v=103
360468 On ch=2 n=c#4 v=0
360576 On ch=2 n=e4 v=110
360588 On ch=2 n=f#4 v=0
360696 On ch=2 n=c#4 v=116
360708 On ch=2 n=e4 v=0
360816 On ch=2 n=a#3 v=123
360828 On ch=2 n=c#4 v=0
360936 On ch=2 n=f#3 v=127
360948 On ch=2 n=a#3 v=0
361656 On ch=2 n=e3 v=108
361696 On ch=2 n=f#3 v=0
361896 On ch=2 n=d3 v=112
361920 On ch=2 n=e3 v=0
362136 On ch=2 n=a#2 v=116
362136 On ch=2 n=a#3 v=116
362152 On ch=2 n=d3 v=0
362376 On ch=2 n=b2 v=120
362376 On ch=2 n=b3 v=120
362400 On ch=2 n=a#3 v=0
362416 On ch=2 n=a#2 v=0
362616 On ch=2 n=g3 v=124
362624 On ch=2 n=b3 v=0
362640 On ch=2 n=b2 v=0
362856 On ch=2 n=d3 v=100
362864 On ch=2 n=d4 v=100
362880 On ch=2 n=g3 v=0
363336 On ch=2 n=c#4 v=100
363336 On ch=2 n=c#3 v=100
363344 On ch=2 n=d3 v=0
363368 On ch=2 n=d4 v=0
363696 On ch=2 n=b3 v=100
363696 On ch=2 n=b2 v=100
363728 On ch=2 n=c#4 v=0
363736 On ch=2 n=c#3 v=0
363816 On ch=2 n=a3 v=100
363816 On ch=2 n=a2 v=100
363828 On ch=2 n=b2 v=0
363828 On ch=2 n=b3 v=0
364296 On ch=2 n=f2 v=100
364296 On ch=2 n=f3 v=100
364320 On ch=2 n=a2 v=0
364320 On ch=2 n=a3 v=0
364776 On ch=2 n=f#3 v=100
364776 On ch=2 n=f#2 v=100
364816 On ch=2 n=f3 v=0
364832 On ch=2 n=f2 v=0
365296 On ch=2 n=f#2 v=0
365616 On ch=2 n=d#3 v=100
365736 On ch=2 n=d#3 v=0
365736 On ch=2 n=e3 v=100
365784 On ch=2 n=f#3 v=0
365792 On ch=2 n=d#3 v=100
365802 On ch=2 n=e3 v=0
365856 On ch=2 n=e3 v=100
365858 On ch=2 n=d#3 v=0
365912 On ch=2 n=d#3 v=100
365922 On ch=2 n=e3 v=0
365968 On ch=2 n=e3 v=100
365978 On ch=2 n=d#3 v=0
366034 On ch=2 n=e3 v=0
366040 On ch=2 n=d#3 v=100
366104 On ch=2 n=e3 v=100
366106 On ch=2 n=d#3 v=0
366160 On ch=2 n=d#3 v=100
366170 On ch=2 n=e3 v=0
366224 On ch=2 n=e3 v=100
366226 On ch=2 n=d#3 v=0
366288 On ch=2 n=d#3 v=100
366290 On ch=2 n=e3 v=0
366354 On ch=2 n=d#3 v=0
366360 On ch=2 n=e3 v=100
366424 On ch=2 n=d#3 v=100
366426 On ch=2 n=e3 v=0
366488 On ch=2 n=e3 v=100
366490 On ch=2 n=d#3 v=0
366552 On ch=2 n=d#3 v=100
366554 On ch=2 n=e3 v=0
366618 On ch=2 n=d#3 v=0
366632 On ch=2 n=e3 v=100
366696 On ch=2 n=d#3 v=100
366698 On ch=2 n=e3 v=0
367176 On ch=2 n=d3 v=100
367184 On ch=2 n=d#3 v=0
367296 On ch=2 n=d#3 v=100
367308 On ch=2 n=d3 v=0
367416 On ch=2 n=a#3 v=100
367428 On ch=2 n=d#3 v=0
367536 On ch=2 n=d4 v=100
367548 On ch=2 n=a#3 v=0
367656 On ch=2 n=d#4 v=100
367668 On ch=2 n=d4 v=0
367776 On ch=2 n=e4 v=100
367788 On ch=2 n=d#4 v=0
367896 On ch=2 n=d4 v=100
367908 On ch=2 n=e4 v=0
368016 On ch=2 n=d#4 v=100
368028 On ch=2 n=d4 v=0
368136 On ch=2 n=f#4 v=100
368148 On ch=2 n=d#4 v=0
368256 On ch=2 n=e4 v=84
368268 On ch=2 n=f#4 v=0
368376 On ch=2 n=d4 v=87
368388 On ch=2 n=e4 v=0
368496 On ch=2 n=g3 v=89
368508 On ch=2 n=d4 v=0
368616 On ch=2 n=a#4 v=91
368628 On ch=2 n=g3 v=0
369088 On ch=2 n=a#4 v=0
369096 On ch=2 n=a#4 v=97
370056 On ch=2 n=g#4 v=91
370104 On ch=2 n=a#4 v=0
370536 On ch=2 n=g4 v=88
370576 On ch=2 n=g#4 v=0
371736 On ch=2 n=b3 v=73
371760 On ch=2 n=g4 v=0
371856 On ch=2 n=c4 v=78
371868 On ch=2 n=b3 v=0
371976 On ch=2 n=d4 v=84
371988 On ch=2 n=c4 v=0
372096 On ch=2 n=c4 v=82
372108 On ch=2 n=d4 v=0
372216 On ch=2 n=g4 v=64
372228 On ch=2 n=c4 v=0
372336 On ch=2 n=c4 v=71
372348 On ch=2 n=g4 v=0
372456 On ch=2 n=a#4 v=79
372456 On ch=2 n=e5 v=79
374616 On ch=2 n=b2 v=83
374656 On ch=2 n=e5 v=0
374656 On ch=2 n=a#4 v=0
374680 On ch=2 n=c4 v=0
374736 On ch=2 n=c3 v=84
374748 On ch=2 n=b2 v=0
374856 On ch=2 n=g3 v=85
374868 On ch=2 n=c3 v=0
374984 On ch=2 n=c4 v=86
374988 On ch=2 n=g3 v=0
375096 On ch=2 n=e4 v=87
375116 On ch=2 n=c4 v=0
375216 On ch=2 n=g4 v=88
375228 On ch=2 n=e4 v=0
375336 On ch=2 n=c5 v=89
375348 On ch=2 n=g4 v=0
375456 On ch=2 n=d#5 v=91
375468 On ch=2 n=c5 v=0
375584 On ch=2 n=b4 v=92
375588 On ch=2 n=d#5 v=0
375704 On ch=2 n=c5 v=93
375716 On ch=2 n=b4 v=0
375816 On ch=2 n=c4 v=94
375836 On ch=2 n=c5 v=0
376280 On ch=2 n=c4 v=0
376296 On ch=2 n=c4 v=98
376296 On ch=2 n=c5 v=98
377256 On ch=2 n=b4 v=97
377256 On ch=2 n=b3 v=97
377288 On ch=2 n=c5 v=0
377288 On ch=2 n=c4 v=0
377736 On ch=2 n=a#4 v=108
377752 On ch=2 n=b4 v=0
377760 On ch=2 n=b3 v=0
377856 On ch=2 n=g#4 v=110
377868 On ch=2 n=a#4 v=0
377976 On ch=2 n=f4 v=113
377988 On ch=2 n=g#4 v=0
378096 On ch=2 n=b3 v=115
378108 On ch=2 n=f4 v=0
378224 On ch=2 n=a#3 v=122
378228 On ch=2 n=b3 v=0
378456 On ch=2 n=a2 v=119
378568 On ch=2 n=a#3 v=0
378576 On ch=2 n=a#2 v=118
378588 On ch=2 n=a2 v=0
378696 On ch=2 n=e3 v=118
378708 On ch=2 n=a#2 v=0
378816 On ch=2 n=g3 v=116
378828 On ch=2 n=e3 v=0
378936 On ch=2 n=b3 v=115
378948 On ch=2 n=g3 v=0
379056 On ch=2 n=e4 v=113
379068 On ch=2 n=b3 v=0
379176 On ch=2 n=a#4 v=113
379188 On ch=2 n=e4 v=0
379296 On ch=2 n=c5 v=111
379308 On ch=2 n=a#4 v=0
379416 On ch=2 n=a4 v=110
379428 On ch=2 n=c5 v=0
379536 On ch=2 n=a#4 v=109
379548 On ch=2 n=a4 v=0
379656 On ch=2 n=a#3 v=108
379668 On ch=2 n=a#4 v=0
380128 On ch=2 n=a#3 v=0
380136 On ch=2 n=a#4 v=103
380144 On ch=2 n=a#3 v=103
381096 On ch=2 n=a4 v=100
381096 On ch=2 n=a3 v=100
381144 On ch=2 n=a#4 v=0
381160 On ch=2 n=a#3 v=0
381576 On ch=2 n=a#4 v=100
381608 On ch=2 n=a3 v=0
381616 On ch=2 n=a4 v=0
381696 On ch=2 n=a4 v=100
381708 On ch=2 n=a#4 v=0
381816 On ch=2 n=d#4 v=100
381828 On ch=2 n=a4 v=0
381936 On ch=2 n=a3 v=100
381948 On ch=2 n=d#4 v=0
382064 On ch=2 n=g#3 v=100
382068 On ch=2 n=a3 v=0
382176 On ch=2 n=g3 v=100
382196 On ch=2 n=g#3 v=0
382304 On ch=2 n=a#3 v=100
382308 On ch=2 n=g3 v=0
382416 On ch=2 n=g#3 v=100
382436 On ch=2 n=a#3 v=0
382536 On ch=2 n=g3 v=100
382548 On ch=2 n=g#3 v=0
382656 On ch=2 n=f#3 v=100
382668 On ch=2 n=g3 v=0
382776 On ch=2 n=f3 v=100
382788 On ch=2 n=f#3 v=0
382896 On ch=2 n=g3 v=100
382908 On ch=2 n=f3 v=0
383016 On ch=2 n=d#3 v=100
383028 On ch=2 n=g3 v=0
383136 On ch=2 n=g3 v=100
383148 On ch=2 n=d#3 v=0
383256 On ch=2 n=b2 v=100
383268 On ch=2 n=g3 v=0
383376 On ch=2 n=g3 v=100
383388 On ch=2 n=b2 v=0
383496 On ch=2 n=c3 v=100
383508 On ch=2 n=g3 v=0
383616 On ch=2 n=c4 v=100
383628 On ch=2 n=c3 v=0
383736 On ch=2 n=g#3 v=100
383748 On ch=2 n=c4 v=0
383856 On ch=2 n=c4 v=100
383868 On ch=2 n=g#3 v=0
383984 On ch=2 n=d#3 v=100
383988 On ch=2 n=c4 v=0
384096 On ch=2 n=g3 v=100
384116 On ch=2 n=d#3 v=0
384216 On ch=2 n=c4 v=100
384228 On ch=2 n=g3 v=0
384336 On ch=2 n=d#4 v=100
384348 On ch=2 n=c4 v=0
384456 On ch=2 n=d4 v=100
384468 On ch=2 n=d#4 v=0
384576 On ch=2 n=d3 v=100
384588 On ch=2 n=d4 v=0
384696 On ch=2 n=d4 v=100
384708 On ch=2 n=d3 v=0
384816 On ch=2 n=g3 v=100
384828 On ch=2 n=d4 v=0
384936 On ch=2 n=f3 v=100
384948 On ch=2 n=g3 v=0
385056 On ch=2 n=f4 v=100
385068 On ch=2 n=f3 v=0
385176 On ch=2 n=e4 v=100
385188 On ch=2 n=f4 v=0
385296 On ch=2 n=d4 v=100
385308 On ch=2 n=e4 v=0
385416 On ch=2 n=c#4 v=100
385428 On ch=2 n=d4 v=0
385536 On ch=2 n=a#3 v=100
385548 On ch=2 n=c#4 v=0
385656 On ch=2 n=a3 v=100
385668 On ch=2 n=a#3 v=0
385776 On ch=2 n=g3 v=100
385788 On ch=2 n=a3 v=0
385896 On ch=2 n=f3 v=100
385908 On ch=2 n=g3 v=0
386016 On ch=2 n=e3 v=100
386028 On ch=2 n=f3 v=0
386136 On ch=2 n=d3 v=100
386148 On ch=2 n=e3 v=0
386256 On ch=2 n=c3 v=100
386268 On ch=2 n=d3 v=0
386376 On ch=2 n=b2 v=100
386388 On ch=2 n=c3 v=0
386496 On ch=2 n=b3 v=100
386508 On ch=2 n=b2 v=0
386616 On ch=2 n=c4 v=100
386628 On ch=2 n=b3 v=0
386736 On ch=2 n=c5 v=100
386748 On ch=2 n=c4 v=0
386856 On ch=2 n=a4 v=100
386856 On ch=2 n=a3 v=100
386868 On ch=2 n=c5 v=0
387096 On ch=2 n=f4 v=100
387104 On ch=2 n=f3 v=100
387136 On ch=2 n=a3 v=0
387144 On ch=2 n=a4 v=0
387336 On ch=2 n=f#4 v=100
387336 On ch=2 n=f#3 v=100
387352 On ch=2 n=f3 v=0
387352 On ch=2 n=f4 v=0
387576 On ch=2 n=e4 v=100
387576 On ch=2 n=e3 v=100
387592 On ch=2 n=f#3 v=0
387608 On ch=2 n=f#4 v=0
387816 On ch=2 n=d#3 v=100
387816 On ch=2 n=d#4 v=100
387832 On ch=2 n=e4 v=0
387856 On ch=2 n=e3 v=0
388296 On ch=2 n=f#4 v=100
388296 On ch=2 n=f#3 v=100
388360 On ch=2 n=d#4 v=0
388360 On ch=2 n=d#3 v=0
388656 On ch=2 n=e4 v=100
388656 On ch=2 n=e3 v=100
388688 On ch=2 n=f#3 v=0
388688 On ch=2 n=f#4 v=0
388776 On ch=2 n=d#4 v=100
388776 On ch=2 n=d#3 v=100
388788 On ch=2 n=e3 v=0
388788 On ch=2 n=e4 v=0
389256 On ch=2 n=c#4 v=100
389256 On ch=2 n=c#3 v=100
389304 On ch=2 n=d#4 v=0
389312 On ch=2 n=d#3 v=0
389736 On ch=2 n=c3 v=100
389784 On ch=2 n=c#4 v=0
389792 On ch=2 n=c#3 v=0
389856 On ch=2 n=d#3 v=100
389868 On ch=2 n=c3 v=0
389976 On ch=2 n=g#3 v=100
389988 On ch=2 n=d#3 v=0
390096 On ch=2 n=c4 v=100
390108 On ch=2 n=g#3 v=0
390216 On ch=2 n=d4 v=100
390228 On ch=2 n=c4 v=0
390336 On ch=2 n=f4 v=100
390348 On ch=2 n=d4 v=0
390456 On ch=2 n=d#4 v=100
390468 On ch=2 n=f4 v=0
390576 On ch=2 n=d#5 v=100
390588 On ch=2 n=d#4 v=0
390696 On ch=2 n=c#5 v=100
390708 On ch=2 n=d#5 v=0
390816 On ch=2 n=c#4 v=100
390828 On ch=2 n=c#5 v=0
390936 On ch=2 n=a3 v=100
390948 On ch=2 n=c#4 v=0
391056 On ch=2 n=f4 v=100
391068 On ch=2 n=a3 v=0
391176 On ch=2 n=a#3 v=100
391188 On ch=2 n=f4 v=0
391296 On ch=2 n=f4 v=100
391308 On ch=2 n=a#3 v=0
391416 On ch=2 n=g#3 v=100
391428 On ch=2 n=f4 v=0
391536 On ch=2 n=g#4 v=100
391548 On ch=2 n=g#3 v=0
391656 On ch=2 n=g3 v=100
391668 On ch=2 n=g#4 v=0
391776 On ch=2 n=a#3 v=79
391788 On ch=2 n=g3 v=0
391896 On ch=2 n=d#4 v=82
391908 On ch=2 n=a#3 v=0
392016 On ch=2 n=g4 v=85
392028 On ch=2 n=d#4 v=0
392136 On ch=2 n=a#4 v=88
392148 On ch=2 n=g4 v=0
392256 On ch=2 n=c5 v=92
392268 On ch=2 n=a#4 v=0
392376 On ch=2 n=g#4 v=95
392388 On ch=2 n=c5 v=0
392504 On ch=2 n=c5 v=98
392508 On ch=2 n=g#4 v=0
392616 On ch=2 n=g4 v=103
392636 On ch=2 n=c5 v=0
392736 On ch=2 n=f#4 v=102
392748 On ch=2 n=g4 v=0
392856 On ch=2 n=g#4 v=100
392868 On ch=2 n=f#4 v=0
392976 On ch=2 n=g4 v=99
392988 On ch=2 n=g#4 v=0
393096 On ch=2 n=f4 v=98
393108 On ch=2 n=g4 v=0
393216 On ch=2 n=e4 v=97
393228 On ch=2 n=f4 v=0
393336 On ch=2 n=g4 v=95
393348 On ch=2 n=e4 v=0
393456 On ch=2 n=f4 v=93
393468 On ch=2 n=g4 v=0
393576 On ch=2 n=d#4 v=91
393588 On ch=2 n=f4 v=0
393696 On ch=2 n=c4 v=83
393708 On ch=2 n=d#4 v=0
393816 On ch=2 n=g3 v=85
393828 On ch=2 n=c4 v=0
393936 On ch=2 n=e3 v=87
393948 On ch=2 n=g3 v=0
394056 On ch=2 n=d#3 v=89
394068 On ch=2 n=e3 v=0
394176 On ch=2 n=f3 v=92
394188 On ch=2 n=d#3 v=0
394296 On ch=2 n=c#3 v=94
394308 On ch=2 n=f3 v=0
394424 On ch=2 n=f3 v=97
394428 On ch=2 n=c#3 v=0
394536 On ch=2 n=c3 v=98
394556 On ch=2 n=f3 v=0
394656 On ch=2 n=b2 v=101
394668 On ch=2 n=c3 v=0
394776 On ch=2 n=c#3 v=103
394788 On ch=2 n=b2 v=0
394896 On ch=2 n=c3 v=106
394908 On ch=2 n=c#3 v=0
395016 On ch=2 n=a#2 v=108
395028 On ch=2 n=c3 v=0
395136 On ch=2 n=a2 v=98
395148 On ch=2 n=a#2 v=0
395256 On ch=2 n=c3 v=101
395268 On ch=2 n=a2 v=0
395376 On ch=2 n=a#2 v=103
395388 On ch=2 n=c3 v=0
395480 On ch=2 n=a#2 v=0
395496 Par ch=2 c=64 v=127
395496 Par ch=2 c=64 v=127
395496 On ch=2 n=g#2 v=107
395496 On ch=2 n=g#2 v=107
395736 On ch=2 n=g#4 v=63
395752 On ch=2 n=g#2 v=0
395752 On ch=2 n=g#2 v=0
395856 On ch=2 n=g#5 v=81
395868 On ch=2 n=g#4 v=0
395976 On ch=2 n=f#5 v=74
395988 On ch=2 n=g#5 v=0
396096 On ch=2 n=d#5 v=67
396108 On ch=2 n=f#5 v=0
396216 On ch=2 n=g#4 v=59
396216 On ch=2 n=g#4 v=59
396228 On ch=2 n=d#5 v=0
396336 On ch=2 n=g#5 v=78
396348 On ch=2 n=g#4 v=0
396348 On ch=2 n=g#4 v=0
396456 On ch=2 n=f#5 v=68
396468 On ch=2 n=g#5 v=0
396576 On ch=2 n=d#5 v=58
396588 On ch=2 n=f#5 v=0
396696 On ch=2 n=g#4 v=48
396708 On ch=2 n=d#5 v=0
396816 On ch=2 n=a#5 v=62
396828 On ch=2 n=g#4 v=0
396936 On ch=2 n=f#5 v=58
396948 On ch=2 n=a#5 v=0
397056 On ch=2 n=d#5 v=54
397068 On ch=2 n=f#5 v=0
397176 On ch=2 n=g#4 v=49
397188 On ch=2 n=d#5 v=0
397296 On ch=2 n=g#5 v=63
397308 On ch=2 n=g#4 v=0
397416 On ch=2 n=f#5 v=59
397428 On ch=2 n=g#5 v=0
397536 On ch=2 n=d#5 v=55
397548 On ch=2 n=f#5 v=0
397656 On ch=2 n=g#4 v=52
397668 On ch=2 n=d#5 v=0
397776 On ch=2 n=a#5 v=56
397788 On ch=2 n=g#4 v=0
397896 On ch=2 n=f#5 v=52
397908 On ch=2 n=a#5 v=0
398016 On ch=2 n=d#5 v=48
398028 On ch=2 n=f#5 v=0
398136 On ch=2 n=g#4 v=44
398148 On ch=2 n=d#5 v=0
398256 On ch=2 n=g#5 v=50
398268 On ch=2 n=g#4 v=0
398376 On ch=2 n=f#5 v=47
398388 On ch=2 n=g#5 v=0
398496 On ch=2 n=d#5 v=44
398508 On ch=2 n=f#5 v=0
398616 On ch=2 n=g#4 v=40
398628 On ch=2 n=d#5 v=0
398701 Par ch=2 c=64 v=0
398736 On ch=2 n=a#5 v=46
398745 Par ch=2 c=64 v=127
398748 On ch=2 n=g#4 v=0
398856 On ch=2 n=f#5 v=42
398868 On ch=2 n=a#5 v=0
398976 On ch=2 n=c5 v=39
398988 On ch=2 n=f#5 v=0
399096 On ch=2 n=g#4 v=35
399108 On ch=2 n=c5 v=0
399216 Par ch=2 c=64 v=0
399216 On ch=2 n=g#5 v=40
399228 On ch=2 n=g#4 v=0
399336 Par ch=2 c=64 v=127
399336 On ch=2 n=f5 v=38
399348 On ch=2 n=g#5 v=0
399456 On ch=2 n=c#5 v=35
399468 On ch=2 n=f5 v=0
399576 On ch=2 n=g#4 v=32
399588 On ch=2 n=c#5 v=0
399696 Par ch=2 c=64 v=0
399696 On ch=2 n=a#5 v=42
399708 On ch=2 n=g#4 v=0
399816 Par ch=2 c=64 v=127
399816 On ch=2 n=f#5 v=40
399828 On ch=2 n=a#5 v=0
399936 On ch=2 n=d#5 v=39
399948 On ch=2 n=f#5 v=0
400056 On ch=2 n=g#4 v=37
400068 On ch=2 n=d#5 v=0
400176 Par ch=2 c=64 v=0
400176 On ch=2 n=g#5 v=44
400188 On ch=2 n=g#4 v=0
400304 Par ch=2 c=64 v=127
400304 On ch=2 n=f5 v=41
400308 On ch=2 n=g#5 v=0
400416 On ch=2 n=c#5 v=39
400436 On ch=2 n=f5 v=0
400536 On ch=2 n=g#4 v=35
400536 On ch=2 n=g#4 v=35
400548 On ch=2 n=c#5 v=0
400656 On ch=2 n=a#5 v=43
400656 On ch=2 n=a#5 v=43
400668 On ch=2 n=g#4 v=0
400668 On ch=2 n=g#4 v=0
400776 On ch=2 n=f#5 v=41
400788 On ch=2 n=a#5 v=0
400788 On ch=2 n=a#5 v=0
400896 On ch=2 n=c5 v=39
400908 On ch=2 n=f#5 v=0
401016 On ch=2 n=g#4 v=37
401016 On ch=2 n=g#4 v=37
401028 On ch=2 n=c5 v=0
401136 Par ch=2 c=64 v=0
401136 On ch=2 n=g#5 v=45
401136 On ch=2 n=g#5 v=45
401148 On ch=2 n=g#4 v=0
401148 On ch=2 n=g#4 v=0
401256 Par ch=2 c=64 v=127
401256 On ch=2 n=f5 v=43
401268 On ch=2 n=g#5 v=0
401268 On ch=2 n=g#5 v=0
401376 On ch=2 n=c#5 v=40
401388 On ch=2 n=f5 v=0
401496 On ch=2 n=g#4 v=38
401508 On ch=2 n=c#5 v=0
401616 Par ch=2 c=64 v=0
401616 On ch=2 n=g#5 v=44
401628 On ch=2 n=g#4 v=0
401736 Par ch=2 c=64 v=127
401736 On ch=2 n=f5 v=42
401748 On ch=2 n=g#5 v=0
401856 On ch=2 n=d5 v=40
401868 On ch=2 n=f5 v=0
401984 On ch=2 n=g#4 v=38
401988 On ch=2 n=d5 v=0
402096 Par ch=2 c=64 v=0
402096 On ch=2 n=g#5 v=48
402116 On ch=2 n=g#4 v=0
402216 Par ch=2 c=64 v=127
402216 On ch=2 n=f#5 v=44
402228 On ch=2 n=g#5 v=0
402336 On ch=2 n=d#5 v=40
402348 On ch=2 n=f#5 v=0
402464 On ch=2 n=g#4 v=36
402468 On ch=2 n=d#5 v=0
402576 On ch=2 n=a#5 v=44
402596 On ch=2 n=g#4 v=0
402696 On ch=2 n=f#5 v=41
402708 On ch=2 n=a#5 v=0
402816 On ch=2 n=c5 v=38
402828 On ch=2 n=f#5 v=0
402936 On ch=2 n=g#4 v=35
402948 On ch=2 n=c5 v=0
403056 Par ch=2 c=64 v=0
403056 On ch=2 n=g#5 v=44
403068 On ch=2 n=g#4 v=0
403176 Par ch=2 c=64 v=127
403176 On ch=2 n=f5 v=41
403188 On ch=2 n=g#5 v=0
403296 On ch=2 n=c#5 v=39
403308 On ch=2 n=f5 v=0
403416 On ch=2 n=g#4 v=36
403428 On ch=2 n=c#5 v=0
403536 Par ch=2 c=64 v=0
403536 On ch=2 n=a#5 v=44
403548 On ch=2 n=g#4 v=0
403656 Par ch=2 c=64 v=127
403656 On ch=2 n=f#5 v=43
403668 On ch=2 n=a#5 v=0
403784 On ch=2 n=d#5 v=40
403788 On ch=2 n=f#5 v=0
403896 On ch=2 n=g#4 v=39
403916 On ch=2 n=d#5 v=0
404016 Par ch=2 c=64 v=0
404016 On ch=2 n=g#5 v=46
404028 On ch=2 n=g#4 v=0
404136 Par ch=2 c=64 v=127
404136 On ch=2 n=f5 v=43
404148 On ch=2 n=g#5 v=0
404256 On ch=2 n=c#5 v=40
404268 On ch=2 n=f5 v=0
404376 On ch=2 n=g#4 v=36
404388 On ch=2 n=c#5 v=0
404496 On ch=2 n=a#5 v=47
404508 On ch=2 n=g#4 v=0
404616 On ch=2 n=f#5 v=44
404628 On ch=2 n=a#5 v=0
404736 On ch=2 n=c5 v=40
404748 On ch=2 n=f#5 v=0
404856 On ch=2 n=g#4 v=36
404868 On ch=2 n=c5 v=0
404976 On ch=2 n=g#5 v=45
404988 On ch=2 n=g#4 v=0
405011 Par ch=2 c=64 v=0
405096 Par ch=2 c=64 v=127
405096 On ch=2 n=f5 v=43
405108 On ch=2 n=g#5 v=0
405216 On ch=2 n=c#5 v=41
405228 On ch=2 n=f5 v=0
405336 On ch=2 n=g#4 v=39
405348 On ch=2 n=c#5 v=0
405456 On ch=2 n=g#5 v=47
405468 On ch=2 n=g#4 v=0
405551 Par ch=2 c=64 v=0
405576 Par ch=2 c=64 v=127
405576 On ch=2 n=f5 v=44
405588 On ch=2 n=g#5 v=0
405696 On ch=2 n=c#5 v=40
405708 On ch=2 n=f5 v=0
405816 On ch=2 n=g#4 v=36
405828 On ch=2 n=c#5 v=0
405936 On ch=2 n=g#5 v=49
405948 On ch=2 n=g#4 v=0
406056 On ch=2 n=f5 v=45
406068 On ch=2 n=g#5 v=0
406176 On ch=2 n=c#5 v=40
406188 On ch=2 n=f5 v=0
406296 On ch=2 n=g#4 v=36
406308 On ch=2 n=c#5 v=0
406416 On ch=2 n=g#5 v=43
406428 On ch=2 n=g#4 v=0
406536 On ch=2 n=f5 v=40
406548 On ch=2 n=g#5 v=0
406656 On ch=2 n=c#5 v=35
406668 On ch=2 n=f5 v=0
406776 On ch=2 n=g#4 v=32
406788 On ch=2 n=c#5 v=0
406896 On ch=2 n=g#5 v=44
406908 On ch=2 n=g#4 v=0
407016 Par ch=2 c=64 v=127
407016 On ch=2 n=f5 v=41
407028 On ch=2 n=g#5 v=0
407136 On ch=2 n=c#5 v=38
407148 On ch=2 n=f5 v=0
407256 Par ch=2 c=64 v=0
407256 On ch=2 n=g#4 v=35
407268 On ch=2 n=c#5 v=0
407376 Par ch=2 c=64 v=127
407376 On ch=2 n=g#5 v=44
407388 On ch=2 n=g#4 v=0
407496 Par ch=2 c=64 v=0
407496 On ch=2 n=f5 v=42
407508 On ch=2 n=g#5 v=0
407616 On ch=2 n=c#5 v=40
407628 On ch=2 n=f5 v=0
407736 On ch=2 n=g#4 v=37
407748 On ch=2 n=c#5 v=0
407856 On ch=2 n=g#5 v=40
407868 On ch=2 n=g#4 v=0
407976 Par ch=2 c=64 v=127
407976 On ch=2 n=f5 v=36
407988 On ch=2 n=g#5 v=0
408096 On ch=2 n=c#5 v=34
408108 On ch=2 n=f5 v=0
408216 On ch=2 n=g#4 v=31
408228 On ch=2 n=c#5 v=0
408336 On ch=2 n=g#5 v=40
408348 On ch=2 n=g#4 v=0
408456 On ch=2 n=f5 v=35
408468 On ch=2 n=g#5 v=0
408576 On ch=2 n=c#5 v=31
408588 On ch=2 n=f5 v=0
408696 On ch=2 n=g#4 v=27
408696 On ch=2 n=g#4 v=27
408708 On ch=2 n=c#5 v=0
408816 On ch=2 n=g#5 v=39
408828 On ch=2 n=g#4 v=0
408828 On ch=2 n=g#4 v=0
408936 Par ch=2 c=64 v=0
408936 On ch=2 n=f5 v=36
408948 On ch=2 n=g#5 v=0
409056 On ch=2 n=c#5 v=34
409068 On ch=2 n=f5 v=0
409176 On ch=2 n=g#4 v=31
409176 On ch=2 n=g#4 v=31
409188 On ch=2 n=c#5 v=0
409296 On ch=2 n=g#5 v=43
409308 On ch=2 n=g#4 v=0
409308 On ch=2 n=g#4 v=0
409416 On ch=2 n=f5 v=40
409428 On ch=2 n=g#5 v=0
409536 On ch=2 n=c#5 v=35
409548 On ch=2 n=f5 v=0
409656 On ch=2 n=g#4 v=32
409668 On ch=2 n=c#5 v=0
409776 On ch=2 n=g#5 v=44
409788 On ch=2 n=g#4 v=0
409896 Par ch=2 c=64 v=127
409896 On ch=2 n=f5 v=41
409908 On ch=2 n=g#5 v=0
410016 On ch=2 n=d#5 v=38
410028 On ch=2 n=f5 v=0
410136 On ch=2 n=g#4 v=35
410148 On ch=2 n=d#5 v=0
410256 On ch=2 n=g#5 v=43
410268 On ch=2 n=g#4 v=0
410376 On ch=2 n=f5 v=40
410388 On ch=2 n=g#5 v=0
410496 On ch=2 n=d#5 v=36
410508 On ch=2 n=f5 v=0
410616 On ch=2 n=g#4 v=32
410628 On ch=2 n=d#5 v=0
410736 On ch=2 n=g#5 v=42
410736 Par ch=2 c=64 v=0
410748 On ch=2 n=g#4 v=0
410868 On ch=2 n=g#5 v=0
411096 Par ch=2 c=64 v=127
411096 On ch=2 n=a#4 v=40
411216 On ch=2 n=a#5 v=46
411228 On ch=2 n=a#4 v=0
411336 On ch=2 n=g#5 v=43
411348 On ch=2 n=a#5 v=0
411456 On ch=2 n=f5 v=40
411468 On ch=2 n=g#5 v=0
411576 On ch=2 n=a#4 v=36
411576 On ch=2 n=a#4 v=36
411588 On ch=2 n=f5 v=0
411696 On ch=2 n=a#5 v=45
411708 On ch=2 n=a#4 v=0
411708 On ch=2 n=a#4 v=0
411793 Par ch=2 c=64 v=0
411816 Par ch=2 c=64 v=127
411816 On ch=2 n=g5 v=42
411828 On ch=2 n=a#5 v=0
411936 On ch=2 n=d#5 v=39
411948 On ch=2 n=g5 v=0
412056 On ch=2 n=a#4 v=35
412068 On ch=2 n=d#5 v=0
412176 On ch=2 n=c6 v=44
412188 On ch=2 n=a#4 v=0
412296 On ch=2 n=g#5 v=41
412308 On ch=2 n=c6 v=0
412416 On ch=2 n=d5 v=38
412428 On ch=2 n=g#5 v=0
412536 On ch=2 n=a#4 v=35
412548 On ch=2 n=d5 v=0
412656 On ch=2 n=a#5 v=49
412668 On ch=2 n=a#4 v=0
412776 On ch=2 n=g5 v=46
412788 On ch=2 n=a#5 v=0
412896 On ch=2 n=d#5 v=44
412908 On ch=2 n=g5 v=0
413016 On ch=2 n=a#4 v=41
413024 On ch=2 n=d#5 v=0
413136 On ch=2 n=a#5 v=51
413148 On ch=2 n=a#4 v=0
413230 Par ch=2 c=64 v=0
413256 Par ch=2 c=64 v=127
413256 On ch=2 n=g5 v=49
413268 On ch=2 n=a#5 v=0
413376 On ch=2 n=e5 v=45
413388 On ch=2 n=g5 v=0
413496 On ch=2 n=a#4 v=42
413508 On ch=2 n=e5 v=0
413616 On ch=2 n=a#5 v=53
413628 On ch=2 n=a#4 v=0
413713 Par ch=2 c=64 v=0
413736 Par ch=2 c=64 v=127
413736 On ch=2 n=g#5 v=49
413748 On ch=2 n=a#5 v=0
413856 On ch=2 n=f5 v=46
413872 On ch=2 n=g#5 v=0
413976 On ch=2 n=a#4 v=43
413988 On ch=2 n=f5 v=0
414096 On ch=2 n=a#5 v=40
414108 On ch=2 n=a#4 v=0
414216 On ch=2 n=g#5 v=35
414228 On ch=2 n=a#5 v=0
414336 On ch=2 n=d5 v=33
414348 On ch=2 n=g#5 v=0
414456 On ch=2 n=a#4 v=30
414468 On ch=2 n=d5 v=0
414576 On ch=2 n=a#5 v=48
414588 On ch=2 n=a#4 v=0
414696 On ch=2 n=g5 v=44
414708 On ch=2 n=a#5 v=0
414816 On ch=2 n=d#5 v=40
414832 On ch=2 n=g5 v=0
414936 On ch=2 n=a#4 v=37
414948 On ch=2 n=d#5 v=0
415056 On ch=2 n=a#5 v=54
415068 On ch=2 n=a#4 v=0
415140 Par ch=2 c=64 v=0
415176 Par ch=2 c=64 v=127
415176 On ch=2 n=g5 v=49
415188 On ch=2 n=a#5 v=0
415296 On ch=2 n=e5 v=44
415308 On ch=2 n=g5 v=0
415416 On ch=2 n=a#4 v=39
415428 On ch=2 n=e5 v=0
415536 On ch=2 n=a#5 v=49
415548 On ch=2 n=a#4 v=0
415635 Par ch=2 c=64 v=0
415656 Par ch=2 c=64 v=127
415656 On ch=2 n=g#5 v=45
415668 On ch=2 n=a#5 v=0
415776 On ch=2 n=f5 v=42
415788 On ch=2 n=g#5 v=0
415896 On ch=2 n=a#4 v=39
415908 On ch=2 n=f5 v=0
416016 On ch=2 n=c6 v=51
416028 On ch=2 n=a#4 v=0
416136 On ch=2 n=g#5 v=47
416148 On ch=2 n=c6 v=0
416256 On ch=2 n=d5 v=44
416268 On ch=2 n=g#5 v=0
416376 On ch=2 n=a#4 v=40
416388 On ch=2 n=d5 v=0
416496 On ch=2 n=a#5 v=51
416508 On ch=2 n=a#4 v=0
416616 On ch=2 n=g5 v=48
416628 On ch=2 n=a#5 v=0
416736 On ch=2 n=d#5 v=44
416748 On ch=2 n=g5 v=0
416856 On ch=2 n=a#4 v=41
416868 On ch=2 n=d#5 v=0
416976 Par ch=2 c=64 v=0
416976 On ch=2 n=a#5 v=50
416988 On ch=2 n=a#4 v=0
417096 Par ch=2 c=64 v=127
417096 On ch=2 n=g5 v=47
417108 On ch=2 n=a#5 v=0
417216 On ch=2 n=e5 v=44
417228 On ch=2 n=g5 v=0
417336 On ch=2 n=a#4 v=41
417348 On ch=2 n=e5 v=0
417456 On ch=2 n=a#5 v=53
417468 On ch=2 n=a#4 v=0
417576 On ch=2 n=g#5 v=49
417588 On ch=2 n=a#5 v=0
417696 On ch=2 n=f5 v=46
417708 On ch=2 n=g#5 v=0
417816 On ch=2 n=a#4 v=43
417828 On ch=2 n=f5 v=0
417936 On ch=2 n=d#6 v=53
417948 On ch=2 n=a#4 v=0
418056 On ch=2 n=d6 v=49
418068 On ch=2 n=d#6 v=0
418176 On ch=2 n=g#5 v=44
418188 On ch=2 n=d6 v=0
418296 On ch=2 n=f5 v=40
418308 On ch=2 n=g#5 v=0
418416 On ch=2 n=a#4 v=58
418428 On ch=2 n=f5 v=0
418536 On ch=2 n=d6 v=55
418548 On ch=2 n=a#4 v=0
418656 On ch=2 n=g#5 v=52
418668 On ch=2 n=d6 v=0
418776 On ch=2 n=f5 v=49
418788 On ch=2 n=g#5 v=0
418896 On ch=2 n=d#6 v=55
418896 On ch=2 n=d#6 v=55
418908 On ch=2 n=f5 v=0
419016 On ch=2 n=d6 v=51
419028 On ch=2 n=d#6 v=0
419028 On ch=2 n=d#6 v=0
419136 On ch=2 n=g#5 v=47
419148 On ch=2 n=d6 v=0
419256 On ch=2 n=f5 v=43
419268 On ch=2 n=g#5 v=0
419376 On ch=2 n=a#4 v=49
419388 On ch=2 n=f5 v=0
419496 On ch=2 n=g#5 v=46
419508 On ch=2 n=a#4 v=0
419616 On ch=2 n=d5 v=43
419628 On ch=2 n=g#5 v=0
419736 On ch=2 n=a#4 v=40
419748 On ch=2 n=d5 v=0
419856 On ch=2 n=a#5 v=51
419868 On ch=2 n=a#4 v=0
419976 On ch=2 n=g#5 v=49
419988 On ch=2 n=a#5 v=0
420096 On ch=2 n=d5 v=46
420108 On ch=2 n=g#5 v=0
420216 On ch=2 n=a#4 v=43
420228 On ch=2 n=d5 v=0
420336 On ch=2 n=f4 v=58
420348 On ch=2 n=a#4 v=0
420438 Par ch=2 c=64 v=0
420456 Par ch=2 c=64 v=127
420456 On ch=2 n=g#5 v=52
420468 On ch=2 n=f4 v=0
420576 On ch=2 n=d5 v=47
420588 On ch=2 n=g#5 v=0
420696 On ch=2 n=a#4 v=41
420708 On ch=2 n=d5 v=0
420816 On ch=2 n=a#5 v=54
420828 On ch=2 n=a#4 v=0
420936 On ch=2 n=g#5 v=49
420948 On ch=2 n=a#5 v=0
421056 On ch=2 n=d5 v=44
421068 On ch=2 n=g#5 v=0
421176 On ch=2 n=a#4 v=40
421188 On ch=2 n=d5 v=0
421296 On ch=2 n=f4 v=59
421308 On ch=2 n=a#4 v=0
421416 On ch=2 n=f5 v=54
421428 On ch=2 n=f4 v=0
421536 On ch=2 n=a#4 v=49
421548 On ch=2 n=f5 v=0
421656 On ch=2 n=f4 v=44
421668 On ch=2 n=a#4 v=0
421776 On ch=2 n=g5 v=57
421788 On ch=2 n=f4 v=0
421863 Par ch=2 c=64 v=0
421896 Par ch=2 c=64 v=127
421896 On ch=2 n=f5 v=52
421908 On ch=2 n=g5 v=0
422016 On ch=2 n=a#4 v=47
422028 On ch=2 n=f5 v=0
422136 On ch=2 n=f4 v=42
422148 On ch=2 n=a#4 v=0
422256 On ch=2 n=g4 v=59
422268 On ch=2 n=f4 v=0
422356 Par ch=2 c=64 v=0
422376 On ch=2 n=f5 v=54
422388 On ch=2 n=g4 v=0
422496 On ch=2 n=a#4 v=49
422508 On ch=2 n=f5 v=0
422616 On ch=2 n=g#4 v=43
422628 On ch=2 n=a#4 v=0
422736 On ch=2 n=a#5 v=54
422748 On ch=2 n=g#4 v=0
422838 Par ch=2 c=64 v=0
422856 Par ch=2 c=64 v=127
422856 On ch=2 n=g#5 v=51
422868 On ch=2 n=a#5 v=0
422976 On ch=2 n=d5 v=47
422988 On ch=2 n=g#5 v=0
423096 On ch=2 n=c5 v=43
423108 On ch=2 n=d5 v=0
423216 On ch=2 n=a#4 v=59
423228 On ch=2 n=c5 v=0
423308 Par ch=2 c=64 v=0
423336 Par ch=2 c=64 v=127
423336 On ch=2 n=f5 v=54
423348 On ch=2 n=a#4 v=0
423456 On ch=2 n=a#4 v=49
423468 On ch=2 n=f5 v=0
423576 On ch=2 n=g#4 v=44
423588 On ch=2 n=a#4 v=0
423696 On ch=2 n=a#5 v=56
423708 On ch=2 n=g#4 v=0
423816 On ch=2 n=g#5 v=52
423828 On ch=2 n=a#5 v=0
423936 On ch=2 n=f5 v=48
423948 On ch=2 n=g#5 v=0
424056 On ch=2 n=a#4 v=44
424068 On ch=2 n=f5 v=0
424176 On ch=2 n=g#4 v=56
424188 On ch=2 n=a#4 v=0
424296 On ch=2 n=f5 v=52
424308 On ch=2 n=g#4 v=0
424416 On ch=2 n=b4 v=48
424428 On ch=2 n=f5 v=0
424536 On ch=2 n=g#4 v=44
424548 On ch=2 n=b4 v=0
424656 On ch=2 n=a#5 v=57
424668 On ch=2 n=g#4 v=0
424776 On ch=2 n=g#5 v=53
424788 On ch=2 n=a#5 v=0
424896 On ch=2 n=d5 v=49
424908 On ch=2 n=g#5 v=0
425016 On ch=2 n=g#4 v=44
425028 On ch=2 n=d5 v=0
425136 On ch=2 n=f4 v=67
425148 On ch=2 n=g#4 v=0
425238 Par ch=2 c=64 v=0
425256 On ch=2 n=d5 v=62
425268 On ch=2 n=f4 v=0
425376 On ch=2 n=b4 v=58
425388 On ch=2 n=d5 v=0
425496 On ch=2 n=g#4 v=53
425508 On ch=2 n=b4 v=0
425616 On ch=2 n=g#5 v=64
425628 On ch=2 n=g#4 v=0
425736 On ch=2 n=f5 v=59
425748 On ch=2 n=g#5 v=0
425856 On ch=2 n=d5 v=53
425868 On ch=2 n=f5 v=0
425976 On ch=2 n=b4 v=51
426000 On ch=2 n=d5 v=0
426096 On ch=2 n=b5 v=58
426108 On ch=2 n=b4 v=0
426228 On ch=2 n=b5 v=0
426936 On ch=2 n=g#5 v=80
427176 On ch=2 n=g#5 v=0
427176 On ch=2 n=g5 v=87
427416 On ch=2 n=e5 v=83
427440 On ch=2 n=g5 v=0
427656 On ch=2 n=c#5 v=71
427672 On ch=2 n=e5 v=0
427896 On ch=2 n=d5 v=79
427920 On ch=2 n=c#5 v=0
428136 On ch=2 n=d#5 v=71
428152 On ch=2 n=d5 v=0
428376 On ch=2 n=c5 v=84
428392 On ch=2 n=d#5 v=0
428616 On ch=2 n=g4 v=79
428640 On ch=2 n=c5 v=0
428856 On ch=2 n=a4 v=71
428888 On ch=2 n=g4 v=0
429096 On ch=2 n=a#4 v=64
429120 On ch=2 n=a4 v=0
429368 On ch=2 n=a#4 v=0
429816 On ch=2 n=f#5 v=74
430056 On ch=2 n=e5 v=83
430072 On ch=2 n=f#5 v=0
430296 On ch=2 n=c#5 v=84
430328 On ch=2 n=e5 v=0
430536 On ch=2 n=g#4 v=70
430544 On ch=2 n=c#5 v=0
430776 On ch=2 n=a#4 v=78
430808 On ch=2 n=g#4 v=0
431016 On ch=2 n=b4 v=77
431048 On ch=2 n=a#4 v=0
431256 On ch=2 n=e5 v=73
431280 On ch=2 n=b4 v=0
431496 On ch=2 n=d#5 v=85
431512 On ch=2 n=e5 v=0
431736 On ch=2 n=a#4 v=98
431768 On ch=2 n=d#5 v=0
431960 On ch=2 n=a#4 v=0
431976 On ch=2 n=a#4 v=116
432136 On ch=2 n=b4 v=124
432176 On ch=2 n=a#4 v=0
432286 On ch=2 n=b4 v=0
432296 On ch=2 n=b4 v=124
432446 On ch=2 n=b4 v=0
432456 On ch=2 n=b4 v=125
432606 On ch=2 n=b4 v=0
432616 On ch=2 n=e4 v=126
432616 On ch=2 n=e5 v=126
432766 On ch=2 n=e5 v=0
432766 On ch=2 n=e4 v=0
432776 On ch=2 n=e4 v=126
432776 On ch=2 n=e5 v=126
432926 On ch=2 n=e5 v=0
432926 On ch=2 n=e4 v=0
432936 On ch=2 n=e4 v=127
432936 On ch=2 n=e5 v=127
433096 On ch=2 n=d#5 v=127
433096 On ch=2 n=d#4 v=127
433120 On ch=2 n=e5 v=0
433120 On ch=2 n=e4 v=0
433246 On ch=2 n=d#4 v=0
433246 On ch=2 n=d#5 v=0
433256 On ch=2 n=d#4 v=127
433256 On ch=2 n=d#5 v=127
433406 On ch=2 n=d#5 v=0
433406 On ch=2 n=d#4 v=0
433416 On ch=2 n=d#4 v=127
433416 On ch=2 n=d#5 v=127
433576 On ch=2 n=a#3 v=127
433576 On ch=2 n=a#4 v=127
433608 On ch=2 n=d#5 v=0
433608 On ch=2 n=d#4 v=0
433768 On ch=2 n=a#4 v=0
433776 On ch=2 n=a#3 v=0
433816 On ch=2 n=a#3 v=125
433816 On ch=2 n=a#4 v=125
433891 On ch=2 n=a#4 v=0
433891 On ch=2 n=a#3 v=0
433896 On ch=2 n=b4 v=125
433896 On ch=2 n=b3 v=125
434056 On ch=2 n=b3 v=0
434072 On ch=2 n=b4 v=0
434376 On ch=2 n=b2 v=84
434376 On ch=2 n=b3 v=84
434856 On ch=2 n=c#3 v=93
434856 On ch=2 n=c#4 v=93
434872 On ch=2 n=b3 v=0
434872 On ch=2 n=b2 v=0
435336 On ch=2 n=d#4 v=103
435336 On ch=2 n=d#3 v=103
435360 On ch=2 n=c#3 v=0
435376 On ch=2 n=c#4 v=0
435816 On ch=2 n=g#3 v=116
435816 On ch=2 n=g#4 v=116
435840 On ch=2 n=d#3 v=0
435840 On ch=2 n=d#4 v=0
436272 On ch=2 n=g#3 v=0
436296 On ch=2 n=g#3 v=93
436296 On ch=2 n=g#2 v=93
436336 On ch=2 n=g#4 v=0
436776 On ch=2 n=a2 v=105
436784 On ch=2 n=a3 v=105
436800 On ch=2 n=g#3 v=0
436832 On ch=2 n=g#2 v=0
437256 On ch=2 n=b3 v=117
437256 On ch=2 n=b2 v=117
437272 On ch=2 n=a3 v=0
437272 On ch=2 n=a2 v=0
437720 On ch=2 n=b2 v=0
437728 On ch=2 n=b3 v=0
437736 Par ch=2 c=64 v=127
437736 On ch=2 n=c#4 v=127
437736 On ch=2 n=c#3 v=127
438167 Par ch=2 c=64 v=0
438240 On ch=2 n=c#4 v=0
438248 On ch=2 n=c#3 v=0
438696 On ch=2 n=e5 v=93
438696 On ch=2 n=a#4 v=93
438696 On ch=2 n=g4 v=93
438696 On ch=2 n=c#4 v=93
438696 Par ch=2 c=64 v=127
439056 Par ch=2 c=64 v=0
439144 On ch=2 n=a#4 v=0
439152 On ch=2 n=e5 v=0
439168 On ch=2 n=g4 v=0
439176 On ch=2 n=d#5 v=106
439176 On ch=2 n=b4 v=106
439176 On ch=2 n=f#4 v=106
439176 On ch=2 n=d#4 v=106
439176 Par ch=2 c=64 v=127
439216 On ch=2 n=c#4 v=0
439536 Par ch=2 c=64 v=0
439632 On ch=2 n=d#5 v=0
439640 On ch=2 n=d#4 v=0
439640 On ch=2 n=b4 v=0
439648 On ch=2 n=f#4 v=0
439656 On ch=2 n=f4 v=97
439656 Par ch=2 c=64 v=127
439720 On ch=2 n=b4 v=108
439784 On ch=2 n=c#5 v=118
439848 On ch=2 n=g#5 v=127
439984 On ch=2 n=f4 v=0
440000 On ch=2 n=b4 v=0
440024 On ch=2 n=c#5 v=0
440096 On ch=2 n=g#5 v=0
440142 Par ch=2 c=64 v=0
442536 On ch=2 n=f4 v=100
442536 On ch=2 n=b4 v=100
443016 Par ch=2 c=64 v=127
443016 On ch=2 n=c#3 v=100
443032 On ch=2 n=f4 v=0
443040 On ch=2 n=b4 v=0
443256 On ch=2 n=c#4 v=100
443256 On ch=2 n=b4 v=100
443272 On ch=2 n=c#3 v=0
443472 On ch=2 n=c#4 v=0
443488 On ch=2 n=b4 v=0
443491 Par ch=2 c=64 v=0
443496 On ch=2 n=f#3 v=100
443496 On ch=2 n=c#4 v=100
443736 On ch=2 n=f#4 v=124
443736 On ch=2 n=a#2 v=124
443752 On ch=2 n=c#4 v=0
443784 On ch=2 n=f#3 v=0
443856 On ch=2 n=e5 v=84
443868 On ch=2 n=f#4 v=0
443976 On ch=2 n=b2 v=91
443976 On ch=2 n=d5 v=91
443988 On ch=2 n=e5 v=0
444016 On ch=2 n=a#2 v=0
444096 On ch=2 n=c#5 v=98
444108 On ch=2 n=d5 v=0
444216 On ch=2 n=f#3 v=104
444216 On ch=2 n=b4 v=104
444228 On ch=2 n=c#5 v=0
444256 On ch=2 n=b2 v=0
444336 On ch=2 n=d5 v=111
444348 On ch=2 n=b4 v=0
444456 On ch=2 n=f#2 v=118
444456 On ch=2 n=a#4 v=118
444468 On ch=2 n=d5 v=0
444488 On ch=2 n=f#3 v=0
444576 On ch=2 n=c#5 v=124
444588 On ch=2 n=a#4 v=0
444688 On ch=2 n=f#4 v=120
444696 On ch=2 n=a#2 v=119
444708 On ch=2 n=c#5 v=0
444744 On ch=2 n=f#2 v=0
444816 On ch=2 n=e5 v=115
444820 On ch=2 n=f#4 v=0
444936 On ch=2 n=b2 v=110
444936 On ch=2 n=d5 v=110
444948 On ch=2 n=e5 v=0
444968 On ch=2 n=a#2 v=0
445056 On ch=2 n=c#5 v=105
445068 On ch=2 n=d5 v=0
445176 On ch=2 n=b4 v=98
445176 On ch=2 n=d4 v=98
445188 On ch=2 n=c#5 v=0
445200 On ch=2 n=b2 v=0
445296 On ch=2 n=a#4 v=106
445308 On ch=2 n=b4 v=0
445408 On ch=2 n=a#4 v=0
445408 On ch=2 n=d4 v=0
445416 On ch=2 n=a4 v=114
445416 On ch=2 n=c#3 v=114
445536 On ch=2 n=b4 v=108
445548 On ch=2 n=a4 v=0
445656 On ch=2 n=a3 v=104
445656 On ch=2 n=a4 v=104
445664 On ch=2 n=e4 v=103
445668 On ch=2 n=b4 v=0
445712 On ch=2 n=c#3 v=0
445776 On ch=2 n=g5 v=101
445788 On ch=2 n=a4 v=0
445896 On ch=2 n=f#5 v=104
445896 On ch=2 n=d3 v=104
445908 On ch=2 n=g5 v=0
445920 On ch=2 n=e4 v=0
445920 On ch=2 n=a3 v=0
446016 On ch=2 n=e5 v=113
446016 On ch=2 n=e5 v=113
446028 On ch=2 n=f#5 v=0
446136 On ch=2 n=a3 v=112
446136 On ch=2 n=f#4 v=112
446136 On ch=2 n=d5 v=112
446148 On ch=2 n=e5 v=0
446148 On ch=2 n=e5 v=0
446176 On ch=2 n=d3 v=0
446256 On ch=2 n=f#5 v=108
446268 On ch=2 n=d5 v=0
446376 On ch=2 n=f3 v=103
446376 On ch=2 n=c#5 v=103
446388 On ch=2 n=f#5 v=0
446408 On ch=2 n=f#4 v=0
446408 On ch=2 n=a3 v=0
446496 On ch=2 n=d5 v=88
446508 On ch=2 n=c#5 v=0
446616 On ch=2 n=c#5 v=94
446616 On ch=2 n=g#4 v=94
446616 On ch=2 n=c#4 v=94
446628 On ch=2 n=d5 v=0
446664 On ch=2 n=f3 v=0
446736 On ch=2 n=b5 v=100
446748 On ch=2 n=c#5 v=0
446856 On ch=2 n=f#3 v=106
446856 On ch=2 n=a#5 v=106
446868 On ch=2 n=b5 v=0
446880 On ch=2 n=g#4 v=0
446896 On ch=2 n=c#4 v=0
446976 On ch=2 n=g5 v=113
446988 On ch=2 n=a#5 v=0
447008 On ch=2 n=a#3 v=113
447064 On ch=2 n=f#4 v=117
447096 On ch=2 n=f#5 v=118
447108 On ch=2 n=g5 v=0
447136 On ch=2 n=f#3 v=0
447136 On ch=2 n=c#5 v=120
447216 On ch=2 n=g5 v=124
447228 On ch=2 n=f#5 v=0
447304 On ch=2 n=f#4 v=0
447320 On ch=2 n=c#5 v=0
447320 On ch=2 n=a#3 v=0
447328 On ch=2 n=g5 v=0
447336 On ch=2 n=b3 v=127
447336 On ch=2 n=d5 v=127
447336 On ch=2 n=f#4 v=127
447576 On ch=2 n=f#2 v=127
447576 On ch=2 n=f#3 v=127
447592 On ch=2 n=b3 v=0
447600 On ch=2 n=f#4 v=0
447600 On ch=2 n=d5 v=0
448056 On ch=2 n=a#4 v=100
448064 On ch=2 n=e4 v=100
448296 On ch=2 n=f#3 v=0
448312 On ch=2 n=f#2 v=0
448320 On ch=2 n=a#4 v=0
448328 On ch=2 n=e4 v=0
448536 On ch=2 n=f#3 v=126
448536 On ch=2 n=f#2 v=126
449016 On ch=2 n=d4 v=100
449240 On ch=2 n=f#3 v=0
449248 On ch=2 n=d4 v=0
449256 On ch=2 n=f#2 v=0
449496 On ch=2 n=f#2 v=127
449496 On ch=2 n=f#3 v=127
450232 On ch=2 n=f#3 v=0
450232 On ch=2 n=f#2 v=0
450456 On ch=2 n=f#3 v=100
450456 On ch=2 n=f#2 v=100
451160 On ch=2 n=f#2 v=0
451168 On ch=2 n=f#3 v=0
451176 On ch=2 n=f#3 v=100
451416 On ch=2 n=c#4 v=98
451416 On ch=2 n=e4 v=98
451824 On ch=2 n=c#4 v=0
452120 On ch=2 n=f#3 v=0
452136 On ch=2 n=f#3 v=84
452376 On ch=2 n=c#4 v=98
452376 On ch=2 n=g4 v=98
452400 On ch=2 n=e4 v=0
452856 On ch=2 n=g4 v=0
452872 On ch=2 n=c#4 v=0
453080 On ch=2 n=f#3 v=0
453096 On ch=2 n=f#3 v=83
453336 On ch=2 n=c#4 v=98
453336 On ch=2 n=g4 v=98
453816 On ch=2 n=f#4 v=97
453856 On ch=2 n=g4 v=0
453864 On ch=2 n=c#4 v=0
454048 On ch=2 n=f#3 v=0
454336 On ch=2 n=f#4 v=0
455016 Par ch=2 c=64 v=127
455016 On ch=2 n=f#2 v=127
455016 On ch=2 n=f#2 v=127
455416 On ch=2 n=f#2 v=0
455416 On ch=2 n=f#2 v=0
456216 On ch=2 n=f#4 v=123
456456 On ch=2 n=c#5 v=125
456496 On ch=2 n=f#4 v=0
456696 On ch=2 n=e5 v=127
456736 On ch=2 n=c#5 v=0
456920 On ch=2 n=e5 v=0
456936 On ch=2 n=a#5 v=127
457384 On ch=2 n=a#5 v=0
459336 Par ch=2 c=64 v=0
460776 Par ch=2 c=64 v=127
460776 On ch=2 n=b2 v=100
460936 On ch=2 n=d#4 v=74
460952 On ch=2 n=b2 v=0
461096 On ch=2 n=b4 v=79
461112 On ch=2 n=d#4 v=0
461256 On ch=2 n=f#4 v=84
461272 On ch=2 n=b4 v=0
461416 On ch=2 n=d#4 v=87
461432 On ch=2 n=f#4 v=0
461576 On ch=2 n=d#5 v=89
461592 On ch=2 n=d#4 v=0
461723 Par ch=2 c=64 v=0
461733 Par ch=2 c=64 v=127
461733 On ch=2 n=f#3 v=90
461749 On ch=2 n=d#5 v=0
461893 On ch=2 n=d#4 v=89
461909 On ch=2 n=f#3 v=0
462053 On ch=2 n=b4 v=88
462069 On ch=2 n=d#4 v=0
462221 On ch=2 n=f#4 v=84
462229 On ch=2 n=b4 v=0
462373 On ch=2 n=d#4 v=79
462397 On ch=2 n=f#4 v=0
462541 On ch=2 n=d#5 v=73
462549 On ch=2 n=d#4 v=0
462676 Par ch=2 c=64 v=0
462678 Par ch=2 c=64 v=0
462693 On ch=2 n=d#5 v=0
462693 Par ch=2 c=64 v=127
462693 Par ch=2 c=64 v=127
462693 On ch=2 n=b3 v=100
462853 On ch=2 n=d#4 v=72
462869 On ch=2 n=b3 v=0
463013 On ch=2 n=b4 v=79
463029 On ch=2 n=d#4 v=0
463173 On ch=2 n=f#4 v=84
463189 On ch=2 n=b4 v=0
463333 On ch=2 n=d#4 v=88
463349 On ch=2 n=f#4 v=0
463493 On ch=2 n=d#5 v=90
463509 On ch=2 n=d#4 v=0
463640 Par ch=2 c=64 v=0
463650 Par ch=2 c=64 v=127
463650 On ch=2 n=f#3 v=90
463666 On ch=2 n=d#5 v=0
463810 On ch=2 n=d#4 v=89
463826 On ch=2 n=f#3 v=0
463970 On ch=2 n=b4 v=87
463986 On ch=2 n=d#4 v=0
464130 On ch=2 n=f#4 v=84
464146 On ch=2 n=b4 v=0
464290 On ch=2 n=d#4 v=79
464306 On ch=2 n=f#4 v=0
464450 On ch=2 n=d#5 v=72
464466 On ch=2 n=d#4 v=0
464595 Par ch=2 c=64 v=0
464610 Par ch=2 c=64 v=127
464610 On ch=2 n=b2 v=100
464626 On ch=2 n=d#5 v=0
464770 On ch=2 n=d#4 v=65
464786 On ch=2 n=b2 v=0
464930 On ch=2 n=b4 v=73
464946 On ch=2 n=d#4 v=0
465090 On ch=2 n=f#4 v=79
465106 On ch=2 n=b4 v=0
465250 On ch=2 n=d#4 v=83
465266 On ch=2 n=f#4 v=0
465410 On ch=2 n=d#5 v=85
465426 On ch=2 n=d#4 v=0
465552 Par ch=2 c=64 v=0
465570 Par ch=2 c=64 v=127
465570 On ch=2 n=b3 v=86
465586 On ch=2 n=d#5 v=0
465730 On ch=2 n=d#4 v=85
465746 On ch=2 n=b3 v=0
465890 On ch=2 n=b4 v=83
465906 On ch=2 n=d#4 v=0
466058 On ch=2 n=g#4 v=79
466066 On ch=2 n=b4 v=0
466210 On ch=2 n=d#4 v=73
466234 On ch=2 n=g#4 v=0
466378 On ch=2 n=d#5 v=65
466386 On ch=2 n=d#4 v=0
466516 Par ch=2 c=64 v=0
466530 On ch=2 n=d#5 v=0
466530 Par ch=2 c=64 v=127
466530 On ch=2 n=c#4 v=100
466690 On ch=2 n=e4 v=60
466706 On ch=2 n=c#4 v=0
466850 On ch=2 n=c#5 v=69
466866 On ch=2 n=e4 v=0
467010 On ch=2 n=g#4 v=75
467026 On ch=2 n=c#5 v=0
467170 On ch=2 n=e4 v=80
467186 On ch=2 n=g#4 v=0
467330 On ch=2 n=e5 v=84
467346 On ch=2 n=e4 v=0
467472 Par ch=2 c=64 v=0
467490 Par ch=2 c=64 v=127
467490 On ch=2 n=c#4 v=85
467506 On ch=2 n=e5 v=0
467650 On ch=2 n=e4 v=85
467666 On ch=2 n=c#4 v=0
467810 On ch=2 n=c#5 v=83
467826 On ch=2 n=e4 v=0
467970 On ch=2 n=a4 v=79
467986 On ch=2 n=c#5 v=0
468130 On ch=2 n=e4 v=73
468146 On ch=2 n=a4 v=0
468290 On ch=2 n=e5 v=65
468306 On ch=2 n=e4 v=0
468439 Par ch=2 c=64 v=0
468450 Par ch=2 c=64 v=127
468450 On ch=2 n=c#3 v=109
468466 On ch=2 n=e5 v=0
468610 On ch=2 n=e4 v=69
468626 On ch=2 n=c#3 v=0
468770 On ch=2 n=c#5 v=72
468786 On ch=2 n=e4 v=0
468930 On ch=2 n=a#4 v=76
468946 On ch=2 n=c#5 v=0
469090 On ch=2 n=e4 v=79
469106 On ch=2 n=a#4 v=0
469250 On ch=2 n=e5 v=84
469266 On ch=2 n=e4 v=0
469396 Par ch=2 c=64 v=0
469410 Par ch=2 c=64 v=127
469410 On ch=2 n=a#3 v=88
469426 On ch=2 n=e5 v=0
469570 On ch=2 n=e4 v=69
469586 On ch=2 n=a#3 v=0
469730 On ch=2 n=c#5 v=72
469746 On ch=2 n=e4 v=0
469898 On ch=2 n=a#4 v=74
469906 On ch=2 n=c#5 v=0
470050 On ch=2 n=e4 v=77
470074 On ch=2 n=a#4 v=0
470218 On ch=2 n=e5 v=79
470226 On ch=2 n=e4 v=0
470353 Par ch=2 c=64 v=0
470370 On ch=2 n=e5 v=0
470370 Par ch=2 c=64 v=127
470370 On ch=2 n=c#4 v=83
470370 On ch=2 n=c#4 v=83
470530 On ch=2 n=e4 v=75
470546 On ch=2 n=c#4 v=0
470546 On ch=2 n=c#4 v=0
470690 On ch=2 n=c#5 v=79
470706 On ch=2 n=e4 v=0
470850 On ch=2 n=a#4 v=84
470866 On ch=2 n=c#5 v=0
471010 On ch=2 n=e4 v=88
471026 On ch=2 n=a#4 v=0
471170 On ch=2 n=e5 v=92
471178 On ch=2 n=e4 v=0
471316 Par ch=2 c=64 v=0
471327 Par ch=2 c=64 v=127
471327 On ch=2 n=a#3 v=69
471327 On ch=2 n=a#3 v=69
471343 On ch=2 n=e5 v=0
471487 On ch=2 n=e4 v=72
471503 On ch=2 n=a#3 v=0
471503 On ch=2 n=a#3 v=0
471647 On ch=2 n=c#5 v=76
471663 On ch=2 n=e4 v=0
471807 On ch=2 n=a#4 v=79
471823 On ch=2 n=c#5 v=0
471967 On ch=2 n=e4 v=84
471983 On ch=2 n=a#4 v=0
472127 On ch=2 n=e5 v=87
472143 On ch=2 n=e4 v=0
472270 Par ch=2 c=64 v=0
472275 Par ch=2 c=64 v=0
472287 Par ch=2 c=64 v=127
472287 Par ch=2 c=64 v=127
472287 On ch=2 n=c#3 v=90
472303 On ch=2 n=e5 v=0
472447 On ch=2 n=e4 v=94
472463 On ch=2 n=c#3 v=0
472607 On ch=2 n=c#5 v=82
472623 On ch=2 n=e4 v=0
472767 On ch=2 n=a#4 v=86
472783 On ch=2 n=c#5 v=0
472927 On ch=2 n=e4 v=80
472943 On ch=2 n=a#4 v=0
473087 On ch=2 n=e5 v=65
473103 On ch=2 n=e4 v=0
473234 Par ch=2 c=64 v=0
473244 Par ch=2 c=64 v=127
473244 On ch=2 n=c#4 v=100
473260 On ch=2 n=e5 v=0
473404 On ch=2 n=e4 v=74
473420 On ch=2 n=c#4 v=0
473564 On ch=2 n=c#5 v=87
473580 On ch=2 n=e4 v=0
473732 On ch=2 n=c#5 v=0
473732 On ch=2 n=a#4 v=91
473884 On ch=2 n=e4 v=86
473908 On ch=2 n=a#4 v=0
474052 On ch=2 n=e5 v=68
474060 On ch=2 n=e4 v=0
474192 Par ch=2 c=64 v=0
474204 On ch=2 n=e5 v=0
474204 Par ch=2 c=64 v=127
474204 On ch=2 n=d4 v=75
474364 On ch=2 n=b4 v=77
474380 On ch=2 n=d4 v=0
474524 On ch=2 n=g#5 v=79
474540 On ch=2 n=b4 v=0
474684 On ch=2 n=f5 v=80
474700 On ch=2 n=g#5 v=0
474844 On ch=2 n=b4 v=82
474860 On ch=2 n=f5 v=0
475004 On ch=2 n=b5 v=84
475020 On ch=2 n=b4 v=0
475151 Par ch=2 c=64 v=0
475161 Par ch=2 c=64 v=127
475161 On ch=2 n=d#4 v=85
475177 On ch=2 n=b5 v=0
475321 On ch=2 n=b4 v=87
475337 On ch=2 n=d#4 v=0
475481 On ch=2 n=f#5 v=89
475497 On ch=2 n=b4 v=0
475641 On ch=2 n=f#4 v=91
475657 On ch=2 n=f#5 v=0
475801 On ch=2 n=b4 v=93
475817 On ch=2 n=f#4 v=0
475961 On ch=2 n=f#5 v=94
475977 On ch=2 n=b4 v=0
476112 Par ch=2 c=64 v=0
476121 Par ch=2 c=64 v=127
476121 On ch=2 n=d#4 v=100
476137 On ch=2 n=f#5 v=0
476281 On ch=2 n=a#4 v=80
476297 On ch=2 n=d#4 v=0
476441 On ch=2 n=g5 v=82
476457 On ch=2 n=a#4 v=0
476601 On ch=2 n=c#5 v=84
476617 On ch=2 n=g5 v=0
476761 On ch=2 n=a#4 v=86
476777 On ch=2 n=c#5 v=0
476921 On ch=2 n=g5 v=88
476937 On ch=2 n=a#4 v=0
477070 Par ch=2 c=64 v=0
477081 Par ch=2 c=64 v=127
477081 On ch=2 n=g#4 v=89
477097 On ch=2 n=g5 v=0
477241 On ch=2 n=g#5 v=91
477257 On ch=2 n=g#4 v=0
477383 Par ch=2 c=64 v=0
477401 Par ch=2 c=64 v=127
477401 On ch=2 n=d#5 v=93
477417 On ch=2 n=g#5 v=0
477561 On ch=2 n=c#4 v=94
477577 On ch=2 n=d#5 v=0
477721 On ch=2 n=f5 v=96
477737 On ch=2 n=c#4 v=0
477881 On ch=2 n=b4 v=98
477897 On ch=2 n=f5 v=0
478026 Par ch=2 c=64 v=0
478041 Par ch=2 c=64 v=127
478041 On ch=2 n=f#4 v=100
478057 On ch=2 n=b4 v=0
478201 On ch=2 n=e5 v=49
478217 On ch=2 n=f#4 v=0
478361 On ch=2 n=c#5 v=52
478377 On ch=2 n=e5 v=0
478509 Par ch=2 c=64 v=0
478521 On ch=2 n=f#3 v=54
478537 On ch=2 n=c#5 v=0
478681 On ch=2 n=e5 v=54
478697 On ch=2 n=f#3 v=0
478841 On ch=2 n=a#4 v=51
478841 On ch=2 n=a#4 v=47
478857 On ch=2 n=e5 v=0
478932 Par ch=2 c=64 v=0
479001 On ch=2 n=b3 v=49
479001 On ch=2 n=b3 v=49
479017 On ch=2 n=a#4 v=0
479017 On ch=2 n=a#4 v=0
479161 On ch=2 n=f#4 v=49
479177 On ch=2 n=b3 v=0
479177 On ch=2 n=b3 v=0
479321 On ch=2 n=d#5 v=48
479337 On ch=2 n=f#4 v=0
479489 On ch=2 n=b4 v=48
479497 On ch=2 n=d#5 v=0
479641 On ch=2 n=f#4 v=47
479665 On ch=2 n=b4 v=0
479666 Par ch=2 c=64 v=0
479809 On ch=2 n=f#5 v=49
479817 On ch=2 n=f#4 v=0
479961 On ch=2 n=f#5 v=0
479961 On ch=2 n=e4 v=38
479961 Par ch=2 c=64 v=127
480121 On ch=2 n=a#4 v=44
480137 On ch=2 n=e4 v=0
480281 On ch=2 n=g5 v=47
480297 On ch=2 n=a#4 v=0
480441 On ch=2 n=c#5 v=48
480457 On ch=2 n=g5 v=0
480585 On ch=2 n=c#5 v=0
480601 On ch=2 n=a#4 v=46
480761 On ch=2 n=g5 v=40
480777 On ch=2 n=a#4 v=0
480894 Par ch=2 c=64 v=0
480921 Par ch=2 c=64 v=127
480921 On ch=2 n=d#4 v=40
480937 On ch=2 n=g5 v=0
481081 On ch=2 n=f#4 v=46
481097 On ch=2 n=d#4 v=0
481241 On ch=2 n=f#5 v=49
481257 On ch=2 n=f#4 v=0
481401 On ch=2 n=b4 v=49
481417 On ch=2 n=f#5 v=0
481561 On ch=2 n=f#4 v=46
481577 On ch=2 n=b4 v=0
481721 On ch=2 n=f#5 v=41
481737 On ch=2 n=f#4 v=0
481857 On ch=2 n=f#5 v=0
481858 Par ch=2 c=64 v=0
481881 Par ch=2 c=64 v=127
481881 On ch=2 n=a#3 v=39
482041 On ch=2 n=f#4 v=53
482057 On ch=2 n=a#3 v=0
482201 On ch=2 n=e5 v=54
482217 On ch=2 n=f#4 v=0
482361 On ch=2 n=c#5 v=55
482377 On ch=2 n=e5 v=0
482521 On ch=2 n=f#4 v=53
482537 On ch=2 n=c#5 v=0
482681 Par ch=2 c=64 v=0
482681 On ch=2 n=e5 v=44
482697 On ch=2 n=f#4 v=0
482841 Par ch=2 c=64 v=127
482841 On ch=2 n=b3 v=57
482857 On ch=2 n=e5 v=0
483001 On ch=2 n=f#4 v=61
483017 On ch=2 n=b3 v=0
483161 Par ch=2 c=64 v=0
483161 On ch=2 n=d#5 v=66
483177 On ch=2 n=f#4 v=0
483329 On ch=2 n=b4 v=73
483337 On ch=2 n=d#5 v=0
483481 On ch=2 n=f4 v=79
483505 On ch=2 n=b4 v=0
483649 On ch=2 n=d#5 v=86
483657 On ch=2 n=f4 v=0
483786 Par ch=2 c=64 v=0
483801 On ch=2 n=d#5 v=0
483801 Par ch=2 c=64 v=127
483801 On ch=2 n=a#3 v=87
483961 On ch=2 n=f#4 v=72
483977 On ch=2 n=a#3 v=0
484121 On ch=2 n=d#5 v=81
484137 On ch=2 n=f#4 v=0
484281 On ch=2 n=a#4 v=88
484297 On ch=2 n=d#5 v=0
484441 On ch=2 n=f#4 v=94
484457 On ch=2 n=a#4 v=0
484601 On ch=2 n=a#3 v=99
484617 On ch=2 n=f#4 v=0
484742 Par ch=2 c=64 v=0
484761 Par ch=2 c=64 v=127
484761 On ch=2 n=g#3 v=103
484777 On ch=2 n=a#3 v=0
484921 On ch=2 n=f4 v=103
484937 On ch=2 n=g#3 v=0
485081 On ch=2 n=d5 v=103
485097 On ch=2 n=f4 v=0
485241 On ch=2 n=b4 v=100
485257 On ch=2 n=d5 v=0
485401 On ch=2 n=f4 v=94
485417 On ch=2 n=b4 v=0
485561 On ch=2 n=g#3 v=85
485577 On ch=2 n=f4 v=0
485708 Par ch=2 c=64 v=0
485718 Par ch=2 c=64 v=127
485718 On ch=2 n=f#3 v=71
485734 On ch=2 n=g#3 v=0
485878 On ch=2 n=d#4 v=78
485894 On ch=2 n=f#3 v=0
486038 On ch=2 n=a#4 v=84
486054 On ch=2 n=d#4 v=0
486198 On ch=2 n=d#5 v=88
486214 On ch=2 n=a#4 v=0
486374 On ch=2 n=d#5 v=0
486664 Par ch=2 c=64 v=0
486678 Par ch=2 c=64 v=127
486678 On ch=2 n=g#3 v=78
486838 On ch=2 n=d#4 v=88
486854 On ch=2 n=g#3 v=0
486998 On ch=2 n=f4 v=97
487014 On ch=2 n=d#4 v=0
487166 On ch=2 n=b4 v=107
487174 On ch=2 n=f4 v=0
487342 On ch=2 n=b4 v=0
487626 Par ch=2 c=64 v=0
487638 Par ch=2 c=64 v=127
487638 On ch=2 n=a#3 v=100
487798 On ch=2 n=d#4 v=93
487814 On ch=2 n=a#3 v=0
487958 On ch=2 n=a#4 v=102
487974 On ch=2 n=d#4 v=0
488118 On ch=2 n=f#4 v=106
488134 On ch=2 n=a#4 v=0
488278 On ch=2 n=d#4 v=108
488294 On ch=2 n=f#4 v=0
488438 On ch=2 n=a#4 v=107
488454 On ch=2 n=d#4 v=0
488581 Par ch=2 c=64 v=0
488598 Par ch=2 c=64 v=127
488598 On ch=2 n=a#2 v=103
488614 On ch=2 n=a#4 v=0
488758 On ch=2 n=a#3 v=84
488774 On ch=2 n=a#2 v=0
488918 On ch=2 n=f4 v=84
488934 On ch=2 n=a#3 v=0
489078 On ch=2 n=g#4 v=82
489078 On ch=2 n=b4 v=82
489094 On ch=2 n=f4 v=0
489238 On ch=2 n=f#4 v=79
489238 On ch=2 n=a#4 v=79
489254 On ch=2 n=b4 v=0
489254 On ch=2 n=g#4 v=0
489398 On ch=2 n=f4 v=75
489398 On ch=2 n=g#4 v=75
489414 On ch=2 n=a#4 v=0
489414 On ch=2 n=f#4 v=0
489546 Par ch=2 c=64 v=0
489550 On ch=2 n=g#4 v=0
489550 On ch=2 n=f4 v=0
489558 Par ch=2 c=64 v=127
489558 On ch=2 n=d#3 v=70
489718 On ch=2 n=a#3 v=76
489734 On ch=2 n=d#3 v=0
489878 On ch=2 n=f#4 v=83
489894 On ch=2 n=a#3 v=0
490038 On ch=2 n=d#4 v=89
490054 On ch=2 n=f#4 v=0
490206 On ch=2 n=a#4 v=86
490214 On ch=2 n=d#4 v=0
490358 On ch=2 n=f#5 v=80
490382 On ch=2 n=a#4 v=0
490518 On ch=2 n=d#5 v=74
490534 On ch=2 n=f#5 v=0
490638 On ch=2 n=a#4 v=68
490650 On ch=2 n=d#5 v=0
490758 On ch=2 n=f#4 v=60
490770 On ch=2 n=a#4 v=0
490878 On ch=2 n=g#5 v=70
490890 On ch=2 n=f#4 v=0
490998 On ch=2 n=d#5 v=64
491010 On ch=2 n=g#5 v=0
491118 On ch=2 n=a#4 v=58
491130 On ch=2 n=d#5 v=0
491238 On ch=2 n=f#4 v=51
491250 On ch=2 n=a#4 v=0
491358 On ch=2 n=f#5 v=64
491370 On ch=2 n=f#4 v=0
491458 Par ch=2 c=64 v=0
491478 Par ch=2 c=64 v=127
491478 On ch=2 n=e5 v=59
491490 On ch=2 n=f#5 v=0
491598 On ch=2 n=c#5 v=53
491610 On ch=2 n=e5 v=0
491718 On ch=2 n=f#4 v=48
491718 On ch=2 n=f#4 v=48
491730 On ch=2 n=c#5 v=0
491838 On ch=2 n=g#5 v=64
491850 On ch=2 n=f#4 v=0
491850 On ch=2 n=f#4 v=0
491958 On ch=2 n=e5 v=60
491970 On ch=2 n=g#5 v=0
492078 On ch=2 n=c#5 v=55
492090 On ch=2 n=e5 v=0
492198 On ch=2 n=f#4 v=51
492210 On ch=2 n=c#5 v=0
492326 On ch=2 n=f#5 v=71
492330 On ch=2 n=f#4 v=0
492420 Par ch=2 c=64 v=0
492438 Par ch=2 c=64 v=127
492438 On ch=2 n=d#5 v=66
492458 On ch=2 n=f#5 v=0
492558 On ch=2 n=b4 v=60
492570 On ch=2 n=d#5 v=0
492678 On ch=2 n=f#4 v=55
492690 On ch=2 n=b4 v=0
492798 On ch=2 n=g#5 v=74
492810 On ch=2 n=f#4 v=0
492918 On ch=2 n=e5 v=69
492930 On ch=2 n=g#5 v=0
493038 On ch=2 n=a#4 v=64
493050 On ch=2 n=e5 v=0
493158 On ch=2 n=f#4 v=59
493170 On ch=2 n=a#4 v=0
493278 On ch=2 n=f#5 v=75
493290 On ch=2 n=f#4 v=0
493382 Par ch=2 c=64 v=0
493398 Par ch=2 c=64 v=127
493398 On ch=2 n=d#5 v=71
493410 On ch=2 n=f#5 v=0
493518 On ch=2 n=b4 v=66
493530 On ch=2 n=d#5 v=0
493638 On ch=2 n=f#4 v=61
493650 On ch=2 n=b4 v=0
493758 On ch=2 n=f#5 v=76
493770 On ch=2 n=f#4 v=0
493878 On ch=2 n=d#5 v=69
493890 On ch=2 n=f#5 v=0
493998 On ch=2 n=c5 v=63
494010 On ch=2 n=d#5 v=0
494118 On ch=2 n=f#4 v=55
494130 On ch=2 n=c5 v=0
494246 On ch=2 n=f#5 v=77
494250 On ch=2 n=f#4 v=0
494345 Par ch=2 c=64 v=0
494355 Par ch=2 c=64 v=127
494355 On ch=2 n=e5 v=72
494375 On ch=2 n=f#5 v=0
494475 On ch=2 n=c#5 v=66
494487 On ch=2 n=e5 v=0
494595 On ch=2 n=f#4 v=61
494607 On ch=2 n=c#5 v=0
494715 On ch=2 n=g#5 v=79
494727 On ch=2 n=f#4 v=0
494835 On ch=2 n=e5 v=72
494847 On ch=2 n=g#5 v=0
494955 On ch=2 n=a#4 v=64
494967 On ch=2 n=e5 v=0
495075 On ch=2 n=f#4 v=58
495075 On ch=2 n=f#4 v=58
495087 On ch=2 n=a#4 v=0
495195 On ch=2 n=f#5 v=77
495207 On ch=2 n=f#4 v=0
495207 On ch=2 n=f#4 v=0
495288 Par ch=2 c=64 v=0
495292 Par ch=2 c=64 v=0
495315 Par ch=2 c=64 v=127
495315 Par ch=2 c=64 v=127
495315 On ch=2 n=d#5 v=71
495327 On ch=2 n=f#5 v=0
495435 On ch=2 n=b4 v=64
495447 On ch=2 n=d#5 v=0
495555 On ch=2 n=f#4 v=59
495567 On ch=2 n=b4 v=0
495675 On ch=2 n=g#5 v=75
495687 On ch=2 n=f#4 v=0
495795 On ch=2 n=e5 v=69
495807 On ch=2 n=g#5 v=0
495915 On ch=2 n=c#5 v=63
495927 On ch=2 n=e5 v=0
496035 On ch=2 n=f#4 v=57
496047 On ch=2 n=c#5 v=0
496163 On ch=2 n=f#5 v=69
496167 On ch=2 n=f#4 v=0
496259 Par ch=2 c=64 v=0
496275 Par ch=2 c=64 v=127
496275 On ch=2 n=d#5 v=64
496295 On ch=2 n=f#5 v=0
496395 On ch=2 n=b4 v=57
496407 On ch=2 n=d#5 v=0
496515 On ch=2 n=f#4 v=50
496527 On ch=2 n=b4 v=0
496635 On ch=2 n=g#5 v=64
496647 On ch=2 n=f#4 v=0
496755 On ch=2 n=e5 v=59
496767 On ch=2 n=g#5 v=0
496875 On ch=2 n=a#4 v=54
496887 On ch=2 n=e5 v=0
496995 On ch=2 n=f#4 v=49
497007 On ch=2 n=a#4 v=0
497115 On ch=2 n=f#5 v=62
497127 On ch=2 n=f#4 v=0
497217 Par ch=2 c=64 v=0
497235 Par ch=2 c=64 v=127
497235 On ch=2 n=d#5 v=56
497247 On ch=2 n=f#5 v=0
497355 On ch=2 n=b4 v=49
497367 On ch=2 n=d#5 v=0
497475 On ch=2 n=f#4 v=44
497487 On ch=2 n=b4 v=0
497595 On ch=2 n=f#5 v=58
497607 On ch=2 n=f#4 v=0
497702 Par ch=2 c=64 v=0
497712 Par ch=2 c=64 v=127
497712 On ch=2 n=d5 v=53
497724 On ch=2 n=f#5 v=0
497832 On ch=2 n=b4 v=49
497844 On ch=2 n=d5 v=0
497952 On ch=2 n=f#4 v=44
497964 On ch=2 n=b4 v=0
498072 On ch=2 n=f#5 v=64
498084 On ch=2 n=f#4 v=0
498176 Par ch=2 c=64 v=0
498192 Par ch=2 c=64 v=127
498192 On ch=2 n=c#5 v=59
498204 On ch=2 n=f#5 v=0
498312 On ch=2 n=b4 v=54
498324 On ch=2 n=c#5 v=0
498432 On ch=2 n=f#4 v=49
498444 On ch=2 n=b4 v=0
498552 On ch=2 n=f#5 v=68
498564 On ch=2 n=f#4 v=0
498672 On ch=2 n=c#5 v=64
498684 On ch=2 n=f#5 v=0
498792 On ch=2 n=a#4 v=60
498804 On ch=2 n=c#5 v=0
498912 On ch=2 n=e4 v=57
498924 On ch=2 n=a#4 v=0
499032 On ch=2 n=f#5 v=70
499044 On ch=2 n=e4 v=0
499134 Par ch=2 c=64 v=0
499152 Par ch=2 c=64 v=127
499152 On ch=2 n=d#4 v=68
499164 On ch=2 n=f#5 v=0
499272 On ch=2 n=f#4 v=54
499284 On ch=2 n=d#4 v=0
499392 On ch=2 n=b4 v=67
499404 On ch=2 n=f#4 v=0
499512 On ch=2 n=f#4 v=80
499524 On ch=2 n=b4 v=0
499632 On ch=2 n=f#5 v=93
499644 On ch=2 n=f#4 v=0
499984 On ch=2 n=f#5 v=0
500092 Par ch=2 c=64 v=0
500112 Par ch=2 c=64 v=127
500112 On ch=2 n=c#4 v=62
500232 On ch=2 n=f#4 v=68
500244 On ch=2 n=c#4 v=0
500352 On ch=2 n=e5 v=74
500364 On ch=2 n=f#4 v=0
500472 On ch=2 n=a#4 v=81
500484 On ch=2 n=e5 v=0
500592 On ch=2 n=f#5 v=87
500604 On ch=2 n=a#4 v=0
500840 On ch=2 n=f#5 v=0
501046 Par ch=2 c=64 v=0
501072 Par ch=2 c=64 v=127
501072 On ch=2 n=b3 v=83
501192 On ch=2 n=f#4 v=88
501204 On ch=2 n=b3 v=0
501312 On ch=2 n=b4 v=92
501324 On ch=2 n=f#4 v=0
501432 On ch=2 n=f#4 v=97
501444 On ch=2 n=b4 v=0
501552 On ch=2 n=f#5 v=101
501564 On ch=2 n=f#4 v=0
501808 On ch=2 n=f#5 v=0
502018 Par ch=2 c=64 v=0
502032 Par ch=2 c=64 v=127
502032 On ch=2 n=e4 v=57
502152 On ch=2 n=g4 v=68
502164 On ch=2 n=e4 v=0
502272 On ch=2 n=a#4 v=79
502284 On ch=2 n=g4 v=0
502392 On ch=2 n=g4 v=89
502404 On ch=2 n=a#4 v=0
502520 On ch=2 n=g5 v=101
502524 On ch=2 n=g4 v=0
502784 On ch=2 n=g5 v=0
502973 Par ch=2 c=64 v=0
502992 Par ch=2 c=64 v=127
503000 On ch=2 n=d#3 v=76
503112 On ch=2 n=b3 v=83
503132 On ch=2 n=d#3 v=0
503232 On ch=2 n=f#4 v=89
503244 On ch=2 n=b3 v=0
503352 On ch=2 n=d#4 v=97
503364 On ch=2 n=f#4 v=0
503472 On ch=2 n=b4 v=103
503472 On ch=2 n=f#4 v=103
503472 On ch=2 n=f#5 v=103
503484 On ch=2 n=d#4 v=0
503744 On ch=2 n=f#5 v=0
503744 On ch=2 n=f#4 v=0
503744 On ch=2 n=b4 v=0
503930 Par ch=2 c=64 v=0
503952 Par ch=2 c=64 v=127
503952 On ch=2 n=c#3 v=53
504080 On ch=2 n=f#3 v=63
504084 On ch=2 n=c#3 v=0
504192 On ch=2 n=f#4 v=71
504212 On ch=2 n=f#3 v=0
504324 On ch=2 n=f#4 v=0
504328 On ch=2 n=c#4 v=82
504432 On ch=2 n=a#4 v=90
504432 On ch=2 n=e5 v=90
504440 On ch=2 n=f#4 v=91
504460 On ch=2 n=c#4 v=0
504728 On ch=2 n=e5 v=0
504728 On ch=2 n=a#4 v=0
504744 On ch=2 n=f#4 v=0
504898 Par ch=2 c=64 v=0
504912 Par ch=2 c=64 v=127
504912 On ch=2 n=b2 v=84
505032 On ch=2 n=f#3 v=91
505044 On ch=2 n=b2 v=0
505152 On ch=2 n=f#4 v=99
505164 On ch=2 n=f#3 v=0
505272 On ch=2 n=d#4 v=107
505284 On ch=2 n=f#4 v=0
505392 On ch=2 n=f#4 v=114
505392 On ch=2 n=b4 v=114
505392 On ch=2 n=d#5 v=114
505404 On ch=2 n=d#4 v=0
505664 On ch=2 n=d#5 v=0
505664 On ch=2 n=b4 v=0
505672 On ch=2 n=f#4 v=0
505857 Par ch=2 c=64 v=0
505872 Par ch=2 c=64 v=127
505872 On ch=2 n=e3 v=85
505992 On ch=2 n=a#3 v=88
506004 On ch=2 n=e3 v=0
506112 On ch=2 n=c#4 v=93
506124 On ch=2 n=a#3 v=0
506232 On ch=2 n=e4 v=97
506244 On ch=2 n=c#4 v=0
506352 On ch=2 n=g4 v=101
506364 On ch=2 n=e4 v=0
506472 On ch=2 n=a#4 v=101
506484 On ch=2 n=g4 v=0
506592 On ch=2 n=c#5 v=101
506604 On ch=2 n=a#4 v=0
506712 Par ch=2 c=64 v=0
506712 On ch=2 n=g5 v=97
506724 On ch=2 n=c#5 v=0
506832 On ch=2 n=f#5 v=79
506832 On ch=2 n=c5 v=79
506832 On ch=2 n=a4 v=79
506832 Par ch=2 c=64 v=127
506832 On ch=2 n=d#4 v=79
506844 On ch=2 n=g5 v=0
506982 On ch=2 n=d#4 v=0
506982 On ch=2 n=a4 v=0
506982 On ch=2 n=c5 v=0
506982 On ch=2 n=f#5 v=0
507072 Par ch=2 c=64 v=0
507312 On ch=2 n=d#4 v=59
507792 On ch=2 n=d4 v=51
507792 Par ch=2 c=64 v=127
507816 On ch=2 n=d#4 v=0
507912 On ch=2 n=d#4 v=56
507924 On ch=2 n=d4 v=0
508032 On ch=2 n=f#4 v=61
508044 On ch=2 n=d#4 v=0
508152 On ch=2 n=e4 v=61
508164 On ch=2 n=f#4 v=0
508258 Par ch=2 c=64 v=0
508272 Par ch=2 c=64 v=127
508272 On ch=2 n=c4 v=60
508284 On ch=2 n=e4 v=0
508392 On ch=2 n=c#4 v=64
508404 On ch=2 n=c4 v=0
508512 On ch=2 n=e4 v=67
508524 On ch=2 n=c#4 v=0
508632 On ch=2 n=d#4 v=66
508642 Par ch=2 c=64 v=0
508644 On ch=2 n=e4 v=0
508752 On ch=2 n=c4 v=71
508752 On ch=2 n=c3 v=71
508752 Par ch=2 c=64 v=127
508764 On ch=2 n=d#4 v=0
509024 On ch=2 n=c3 v=0
509024 On ch=2 n=c4 v=0
509232 On ch=2 n=g#4 v=46
509232 On ch=2 n=d#5 v=46
509232 On ch=2 n=f#5 v=46
509672 Par ch=2 c=64 v=0
509712 On ch=2 n=c#4 v=55
509712 On ch=2 n=c#3 v=55
509712 Par ch=2 c=64 v=127
509728 On ch=2 n=f#5 v=0
509736 On ch=2 n=d#5 v=0
509760 On ch=2 n=g#4 v=0
510192 On ch=2 n=b4 v=44
510192 On ch=2 n=c#5 v=44
510192 On ch=2 n=f5 v=44
510232 On ch=2 n=c#3 v=0
510240 On ch=2 n=c#4 v=0
510632 Par ch=2 c=64 v=0
510664 On ch=2 n=f5 v=0
510664 On ch=2 n=c#5 v=0
510664 On ch=2 n=b4 v=0
510672 Par ch=2 c=64 v=127
510672 On ch=2 n=f#2 v=59
510672 On ch=2 n=f#3 v=59
511152 On ch=2 n=f#4 v=49
511152 On ch=2 n=a#4 v=49
511152 On ch=2 n=e5 v=49
511192 On ch=2 n=f#3 v=0
511192 On ch=2 n=f#2 v=0
511592 Par ch=2 c=64 v=0
511632 Par ch=2 c=64 v=127
511632 On ch=2 n=b2 v=57
511632 On ch=2 n=b3 v=57
511672 On ch=2 n=e5 v=0
511672 On ch=2 n=a#4 v=0
511672 On ch=2 n=f#4 v=0
512112 On ch=2 n=f#4 v=48
512112 On ch=2 n=b4 v=48
512112 On ch=2 n=d#5 v=48
512152 On ch=2 n=b3 v=0
512152 On ch=2 n=b2 v=0
512552 Par ch=2 c=64 v=0
512584 On ch=2 n=d#5 v=0
512584 On ch=2 n=b4 v=0
512584 On ch=2 n=f#4 v=0
512592 Par ch=2 c=64 v=127
512592 On ch=2 n=e3 v=100
512832 On ch=2 n=e4 v=79
512888 On ch=2 n=e3 v=0
513072 On ch=2 n=g#4 v=88
513312 On ch=2 n=d#5 v=96
513523 Par ch=2 c=64 v=0
513552 Par ch=2 c=64 v=127
513552 On ch=2 n=e5 v=104
513592 On ch=2 n=d#5 v=0
514064 On ch=2 n=e4 v=0
514072 On ch=2 n=e5 v=0
514072 On ch=2 n=g#4 v=0
514512 On ch=2 n=e3 v=81
514992 Par ch=2 c=64 v=0
514992 On ch=2 n=d#3 v=69
515032 On ch=2 n=e3 v=0
515472 On ch=2 n=c#3 v=59
515512 On ch=2 n=d#3 v=0
515952 On ch=2 n=f#3 v=47
515992 On ch=2 n=c#3 v=0
516408 On ch=2 n=f#3 v=0
516432 Par ch=2 c=64 v=127
516432 On ch=2 n=g2 v=74
516432 On ch=2 n=g3 v=74
516912 On ch=2 n=d#4 v=59
516912 On ch=2 n=a#4 v=59
516912 On ch=2 n=c#5 v=59
516960 On ch=2 n=g3 v=0
516960 On ch=2 n=g2 v=0
517374 Par ch=2 c=64 v=0
517392 On ch=2 n=g#2 v=71
517392 Par ch=2 c=64 v=127
517392 On ch=2 n=g#3 v=71
517416 On ch=2 n=c#5 v=0
517416 On ch=2 n=a#4 v=0
517424 On ch=2 n=d#4 v=0
517872 On ch=2 n=f#4 v=58
517872 On ch=2 n=c5 v=58
517880 On ch=2 n=g#4 v=58
517928 On ch=2 n=g#3 v=0
517928 On ch=2 n=g#2 v=0
518312 On ch=2 n=g#4 v=0
518312 On ch=2 n=c5 v=0
518320 On ch=2 n=f#4 v=0
518329 Par ch=2 c=64 v=0
518352 Par ch=2 c=64 v=127
518352 On ch=2 n=c#4 v=72
518352 On ch=2 n=c#3 v=72
518800 On ch=2 n=c#4 v=0
518832 On ch=2 n=c#4 v=57
518832 On ch=2 n=f4 v=57
518832 On ch=2 n=b4 v=57
518856 On ch=2 n=c#3 v=0
519293 Par ch=2 c=64 v=0
519312 Par ch=2 c=64 v=127
519312 On ch=2 n=f#2 v=66
519312 On ch=2 n=f#3 v=66
519344 On ch=2 n=b4 v=0
519352 On ch=2 n=f4 v=0
519352 On ch=2 n=c#4 v=0
519792 On ch=2 n=f#4 v=56
519792 Par ch=2 c=64 v=0
519792 On ch=2 n=c#5 v=56
519832 On ch=2 n=f#3 v=0
519856 On ch=2 n=f#2 v=0
520264 On ch=2 n=c#5 v=0
520264 On ch=2 n=f#4 v=0
520272 On ch=2 n=a4 v=54
520272 On ch=2 n=b3 v=54
520512 On ch=2 n=g#4 v=62
520552 On ch=2 n=a4 v=0
520576 On ch=2 n=b3 v=0
520640 On ch=2 n=g4 v=66
520644 On ch=2 n=g#4 v=0
520752 On ch=2 n=f#4 v=59
520772 On ch=2 n=g4 v=0
520872 On ch=2 n=f4 v=64
520884 On ch=2 n=f#4 v=0
520992 On ch=2 n=a4 v=70
521004 On ch=2 n=f4 v=0
521112 On ch=2 n=g#4 v=76
521112 On ch=2 n=g#4 v=76
521124 On ch=2 n=a4 v=0
521232 On ch=2 n=b4 v=65
521232 On ch=2 n=c#4 v=65
521244 On ch=2 n=g#4 v=0
521244 On ch=2 n=g#4 v=0
521352 On ch=2 n=a#4 v=70
521364 On ch=2 n=b4 v=0
521416 On ch=2 n=c#4 v=0
521472 On ch=2 n=a4 v=76
521484 On ch=2 n=a#4 v=0
521592 On ch=2 n=g#4 v=80
521604 On ch=2 n=a4 v=0
521712 On ch=2 n=g4 v=74
521724 On ch=2 n=g#4 v=0
521832 On ch=2 n=b4 v=79
521844 On ch=2 n=g4 v=0
521952 On ch=2 n=a#4 v=85
521964 On ch=2 n=b4 v=0
522072 On ch=2 n=c#5 v=90
522072 On ch=2 n=c#5 v=91
522084 On ch=2 n=a#4 v=0
522184 On ch=2 n=c#5 v=0
522184 On ch=2 n=c#5 v=0
522192 On ch=2 n=d#4 v=87
522192 On ch=2 n=c#5 v=87
522312 On ch=2 n=c5 v=91
522324 On ch=2 n=c#5 v=0
522352 On ch=2 n=d#4 v=0
522432 On ch=2 n=b4 v=95
522444 On ch=2 n=c5 v=0
522552 On ch=2 n=a#4 v=99
522564 On ch=2 n=b4 v=0
522672 On ch=2 n=g#4 v=107
522672 On ch=2 n=d#5 v=107
522672 On ch=2 n=g#5 v=107
522684 On ch=2 n=a#4 v=0
523016 On ch=2 n=g#5 v=0
523016 On ch=2 n=d#5 v=0
523024 On ch=2 n=g#4 v=0
523152 On ch=2 n=g#5 v=103
523152 On ch=2 n=d5 v=103
523152 On ch=2 n=b4 v=103
523152 On ch=2 n=f4 v=103
523648 On ch=2 n=g#5 v=0
523664 On ch=2 n=d5 v=0
523672 On ch=2 n=f4 v=0
523672 On ch=2 n=b4 v=0
523840 On ch=2 n=g#4 v=119
523912 On ch=2 n=f5 v=122
523952 On ch=2 n=b5 v=123
523992 On ch=2 n=g#4 v=0
524064 On ch=2 n=f5 v=0
524096 On ch=2 n=b5 v=0
524112 On ch=2 n=b5 v=100
524112 On ch=2 n=f#5 v=100
524120 On ch=2 n=f#4 v=100
524320 On ch=2 n=f#4 v=0
524347 On ch=2 n=f#5 v=0
524347 On ch=2 n=b5 v=0
527000 On ch=2 n=e5 v=64
527232 On ch=2 n=g#4 v=49
527235 On ch=2 n=e5 v=0
527467 On ch=2 n=g#4 v=0
527472 On ch=2 n=c#5 v=53
527707 On ch=2 n=c#5 v=0
527712 On ch=2 n=f#4 v=42
527947 On ch=2 n=f#4 v=0
527952 On ch=2 n=b3 v=59
528072 On ch=2 n=f#4 v=66
528084 On ch=2 n=b3 v=0
528192 On ch=2 n=b4 v=73
528204 On ch=2 n=f#4 v=0
528312 On ch=2 n=c#5 v=79
528320 On ch=2 n=b4 v=0
528444 On ch=2 n=c#5 v=0
528912 On ch=2 n=f#2 v=69
529032 On ch=2 n=f#3 v=77
529044 On ch=2 n=f#2 v=0
529152 On ch=2 n=f#4 v=84
529164 On ch=2 n=f#3 v=0
529272 On ch=2 n=b4 v=92
529284 On ch=2 n=f#4 v=0
529416 On ch=2 n=b4 v=0
529872 On ch=2 n=g#3 v=77
529992 On ch=2 n=d#4 v=80
530004 On ch=2 n=g#3 v=0
530112 On ch=2 n=g#4 v=84
530124 On ch=2 n=d#4 v=0
530232 On ch=2 n=a#4 v=88
530244 On ch=2 n=g#4 v=0
530364 On ch=2 n=a#4 v=0
530832 On ch=2 n=c#3 v=79
530952 On ch=2 n=g#3 v=80
530964 On ch=2 n=c#3 v=0
531072 On ch=2 n=c#4 v=81
531084 On ch=2 n=g#3 v=0
531192 On ch=2 n=g#4 v=82
531204 On ch=2 n=c#4 v=0
531324 On ch=2 n=g#4 v=0
531792 On ch=2 n=f#3 v=84
531912 On ch=2 n=c#4 v=78
531936 On ch=2 n=f#3 v=0
532032 On ch=2 n=f#4 v=72
532064 On ch=2 n=c#4 v=0
532152 On ch=2 n=g#4 v=66
532192 On ch=2 n=f#4 v=0
532312 On ch=2 n=g#4 v=0
532752 On ch=2 n=f#3 v=78
532872 On ch=2 n=c#4 v=81
532884 On ch=2 n=f#3 v=0
532992 On ch=2 n=f#4 v=84
533004 On ch=2 n=c#4 v=0
533112 On ch=2 n=b4 v=86
533124 On ch=2 n=f#4 v=0
533232 On ch=2 n=c#5 v=88
533244 On ch=2 n=b4 v=0
533712 On ch=2 n=f#3 v=77
533736 On ch=2 n=c#5 v=0
533832 On ch=2 n=c#4 v=80
533844 On ch=2 n=f#3 v=0
533952 On ch=2 n=f#4 v=88
533964 On ch=2 n=c#4 v=0
534072 On ch=2 n=c#5 v=95
534520 On ch=2 n=f#4 v=0
534544 On ch=2 n=c#5 v=0
534552 On ch=2 n=f#4 v=90
534656 On ch=2 n=f#4 v=0
534672 On ch=2 n=f#4 v=90
535632 On ch=2 n=b3 v=66
535640 On ch=2 n=f#4 v=0
535752 On ch=2 n=f#4 v=56
535808 On ch=2 n=b3 v=0
535880 On ch=2 n=b4 v=65
535912 On ch=2 n=f#4 v=0
535992 On ch=2 n=c#5 v=74
536024 On ch=2 n=b4 v=0
536160 On ch=2 n=c#5 v=0
536472 On ch=2 n=f#3 v=84
536584 On ch=2 n=f#3 v=0
536592 On ch=2 n=f#3 v=81
536712 On ch=2 n=f#4 v=74
536832 On ch=2 n=b4 v=77
536844 On ch=2 n=f#4 v=0
536888 On ch=2 n=f#3 v=0
536960 On ch=2 n=c#5 v=80
536964 On ch=2 n=b4 v=0
537092 On ch=2 n=c#5 v=0
537552 On ch=2 n=g#3 v=58
537672 On ch=2 n=d#4 v=65
537674 On ch=2 n=g#3 v=0
537792 On ch=2 n=g#4 v=71
537794 On ch=2 n=d#4 v=0
537912 On ch=2 n=a#4 v=78
537914 On ch=2 n=g#4 v=0
538034 On ch=2 n=a#4 v=0
538392 On ch=2 n=c#3 v=66
538503 On ch=2 n=c#3 v=0
538512 On ch=2 n=c#3 v=70
538632 On ch=2 n=g#3 v=74
538657 On ch=2 n=c#3 v=0
538752 On ch=2 n=c#4 v=78
538777 On ch=2 n=g#3 v=0
538872 On ch=2 n=g#4 v=81
539004 On ch=2 n=g#4 v=0
539456 On ch=2 n=c#4 v=0
539472 On ch=2 n=f#3 v=65
539592 On ch=2 n=c#4 v=72
539604 On ch=2 n=f#3 v=0
539712 On ch=2 n=f#4 v=79
539724 On ch=2 n=c#4 v=0
539832 On ch=2 n=g#4 v=85
539844 On ch=2 n=f#4 v=0
539952 On ch=2 n=a#4 v=92
539964 On ch=2 n=g#4 v=0
540084 On ch=2 n=a#4 v=0
540432 On ch=2 n=f#2 v=92
540560 On ch=2 n=f#3 v=93
540564 On ch=2 n=f#2 v=0
540672 On ch=2 n=c#4 v=95
540692 On ch=2 n=f#3 v=0
540792 On ch=2 n=f#4 v=97
540804 On ch=2 n=c#4 v=0
540920 On ch=2 n=c#5 v=98
540924 On ch=2 n=f#4 v=0
541376 On ch=2 n=c#5 v=0
541392 On ch=2 n=f#3 v=83
541512 On ch=2 n=c#4 v=86
541524 On ch=2 n=f#3 v=0
541632 On ch=2 n=f#4 v=90
541644 On ch=2 n=c#4 v=0
541752 On ch=2 n=c#5 v=94
542224 On ch=2 n=f#4 v=0
542232 On ch=2 n=c#5 v=0
542232 On ch=2 n=f#2 v=92
542352 On ch=2 n=f#3 v=93
542364 On ch=2 n=f#2 v=0
542472 On ch=2 n=c#4 v=96
542484 On ch=2 n=f#3 v=0
542592 On ch=2 n=f#4 v=98
542604 On ch=2 n=c#4 v=0
542712 On ch=2 n=c#5 v=101
542724 On ch=2 n=f#4 v=0
542832 On ch=2 n=f#5 v=103
542844 On ch=2 n=c#5 v=0
542960 On ch=2 n=c#6 v=106
542964 On ch=2 n=f#5 v=0
543092 On ch=2 n=c#6 v=0
543320 On ch=2 n=b2 v=113
543552 On ch=2 n=f#3 v=119
543592 On ch=2 n=b2 v=0
543672 On ch=2 n=b3 v=119
543684 On ch=2 n=f#3 v=0
543792 On ch=2 n=f#4 v=120
543804 On ch=2 n=b3 v=0
543912 On ch=2 n=a4 v=120
543924 On ch=2 n=f#4 v=0
544032 On ch=2 n=d#5 v=121
544044 On ch=2 n=a4 v=0
544152 On ch=2 n=f#5 v=121
544164 On ch=2 n=d#5 v=0
544272 On ch=2 n=a5 v=122
544284 On ch=2 n=f#5 v=0
545232 On ch=2 n=b2 v=119
545240 On ch=2 n=a5 v=0
545480 On ch=2 n=b3 v=119
545488 On ch=2 n=b2 v=0
545592 On ch=2 n=d4 v=107
545612 On ch=2 n=b3 v=0
545712 On ch=2 n=g#4 v=103
545724 On ch=2 n=d4 v=0
545832 On ch=2 n=b4 v=98
545844 On ch=2 n=g#4 v=0
545952 On ch=2 n=d5 v=93
545964 On ch=2 n=b4 v=0
546080 On ch=2 n=g#5 v=88
546084 On ch=2 n=d5 v=0
546208 On ch=2 n=g#5 v=0
547160 On ch=2 n=b2 v=100
547272 On ch=2 n=f#3 v=100
547320 On ch=2 n=b2 v=0
547400 On ch=2 n=b3 v=84
547404 On ch=2 n=f#3 v=0
547512 On ch=2 n=d#4 v=88
547532 On ch=2 n=b3 v=0
547632 On ch=2 n=f#4 v=93
547644 On ch=2 n=d#4 v=0
547752 On ch=2 n=a4 v=99
547764 On ch=2 n=f#4 v=0
547872 On ch=2 n=a#4 v=105
547884 On ch=2 n=a4 v=0
547992 On ch=2 n=b4 v=110
548004 On ch=2 n=a#4 v=0
548112 On ch=2 n=c5 v=116
548124 On ch=2 n=b4 v=0
548232 On ch=2 n=a4 v=110
548264 On ch=2 n=c5 v=0
548352 On ch=2 n=f#4 v=105
548364 On ch=2 n=a4 v=0
548472 On ch=2 n=d#4 v=100
548484 On ch=2 n=f#4 v=0
548592 On ch=2 n=c4 v=95
548604 On ch=2 n=d#4 v=0
548712 On ch=2 n=b3 v=90
548724 On ch=2 n=c4 v=0
548832 On ch=2 n=a#3 v=86
548844 On ch=2 n=b3 v=0
548952 On ch=2 n=a3 v=81
548964 On ch=2 n=a#3 v=0
549072 On ch=2 n=g#3 v=100
549084 On ch=2 n=a3 v=0
549312 On ch=2 n=c#3 v=100
549344 On ch=2 n=g#3 v=0
549432 On ch=2 n=g#3 v=100
549444 On ch=2 n=c#3 v=0
549552 On ch=2 n=c#4 v=100
549564 On ch=2 n=g#3 v=0
549672 On ch=2 n=g#4 v=100
549684 On ch=2 n=c#4 v=0
549792 On ch=2 n=c#4 v=100
549804 On ch=2 n=g#4 v=0
549912 On ch=2 n=g#3 v=100
549924 On ch=2 n=c#4 v=0
550032 On ch=2 n=f#3 v=100
550044 On ch=2 n=g#3 v=0
550152 On ch=2 n=g#3 v=100
550164 On ch=2 n=f#3 v=0
550264 On ch=2 n=g#3 v=0
550264 On ch=2 n=f#3 v=100
550328 On ch=2 n=g#3 v=100
550330 On ch=2 n=f#3 v=0
550392 On ch=2 n=f#3 v=100
550394 On ch=2 n=g#3 v=0
550440 On ch=2 n=f#3 v=0
550448 On ch=2 n=g#3 v=100
550512 On ch=2 n=f#3 v=100
550514 On ch=2 n=g#3 v=0
550576 On ch=2 n=g#3 v=100
550578 On ch=2 n=f#3 v=0
550632 On ch=2 n=f#3 v=100
550642 On ch=2 n=g#3 v=0
550688 On ch=2 n=g#3 v=100
550698 On ch=2 n=f#3 v=0
550752 On ch=2 n=f#3 v=100
550754 On ch=2 n=g#3 v=0
550808 On ch=2 n=f3 v=100
550818 On ch=2 n=f#3 v=0
550888 On ch=2 n=f#3 v=100
550944 On ch=2 n=f3 v=0
550992 On ch=2 n=f#3 v=0
550992 Par ch=2 c=64 v=127
550992 On ch=2 n=b2 v=100
551112 On ch=2 n=f#3 v=100
551124 On ch=2 n=b2 v=0
551232 On ch=2 n=d#4 v=100
551244 On ch=2 n=f#3 v=0
551352 On ch=2 n=f#3 v=100
551364 On ch=2 n=d#4 v=0
551472 On ch=2 n=b2 v=100
551484 On ch=2 n=f#3 v=0
551592 On ch=2 n=f#3 v=100
551604 On ch=2 n=b2 v=0
551712 On ch=2 n=d#4 v=100
551724 On ch=2 n=f#3 v=0
551832 On ch=2 n=f#3 v=100
551844 On ch=2 n=d#4 v=0
551952 On ch=2 n=b2 v=100
551964 On ch=2 n=f#3 v=0
552072 On ch=2 n=f#3 v=100
552084 On ch=2 n=b2 v=0
552192 On ch=2 n=d#4 v=100
552204 On ch=2 n=f#3 v=0
552312 On ch=2 n=f#3 v=100
552324 On ch=2 n=d#4 v=0
552432 On ch=2 n=b2 v=100
552444 On ch=2 n=f#3 v=0
552552 On ch=2 n=f#3 v=100
552564 On ch=2 n=b2 v=0
552672 On ch=2 n=d#4 v=100
552684 On ch=2 n=f#3 v=0
552792 On ch=2 n=f#3 v=100
552804 On ch=2 n=d#4 v=0
552912 On ch=2 n=b2 v=100
552924 On ch=2 n=f#3 v=0
553032 On ch=2 n=f#3 v=100
553044 On ch=2 n=b2 v=0
553152 On ch=2 n=d#4 v=100
553164 On ch=2 n=f#3 v=0
553272 On ch=2 n=f#3 v=100
553284 On ch=2 n=d#4 v=0
553392 On ch=2 n=b2 v=100
553404 On ch=2 n=f#3 v=0
553512 On ch=2 n=f#3 v=100
553524 On ch=2 n=b2 v=0
553632 On ch=2 n=f#4 v=100
553644 On ch=2 n=f#3 v=0
553752 On ch=2 n=f#3 v=100
553764 On ch=2 n=f#4 v=0
553872 On ch=2 n=b2 v=100
553884 On ch=2 n=f#3 v=0
553992 On ch=2 n=f#3 v=100
554004 On ch=2 n=b2 v=0
554112 On ch=2 n=d#4 v=100
554124 On ch=2 n=f#3 v=0
554232 On ch=2 n=f#3 v=100
554244 On ch=2 n=d#4 v=0
554352 On ch=2 n=b2 v=100
554364 On ch=2 n=f#3 v=0
554472 On ch=2 n=f#3 v=100
554484 On ch=2 n=b2 v=0
554592 On ch=2 n=f#4 v=100
554604 On ch=2 n=f#3 v=0
554712 On ch=2 n=f#3 v=100
554724 On ch=2 n=f#4 v=0
554832 On ch=2 n=b2 v=100
554844 On ch=2 n=f#3 v=0
554952 On ch=2 n=f#3 v=100
554964 On ch=2 n=b2 v=0
555072 On ch=2 n=d#4 v=100
555084 On ch=2 n=f#3 v=0
555192 On ch=2 n=f#3 v=100
555204 On ch=2 n=d#4 v=0
555312 On ch=2 n=b2 v=100
555324 On ch=2 n=f#3 v=0
555432 On ch=2 n=f#3 v=100
555444 On ch=2 n=b2 v=0
555552 On ch=2 n=f#4 v=100
555564 On ch=2 n=f#3 v=0
555672 On ch=2 n=f#3 v=100
555684 On ch=2 n=f#4 v=0
555792 On ch=2 n=b2 v=100
555804 On ch=2 n=f#3 v=0
555912 On ch=2 n=f#3 v=100
555924 On ch=2 n=b2 v=0
556032 On ch=2 n=d#4 v=100
556044 On ch=2 n=f#3 v=0
556152 On ch=2 n=f#3 v=100
556164 On ch=2 n=d#4 v=0
556272 On ch=2 n=b2 v=100
556284 On ch=2 n=f#3 v=0
556392 On ch=2 n=f#3 v=100
556404 On ch=2 n=b2 v=0
556512 On ch=2 n=f#4 v=100
556524 On ch=2 n=f#3 v=0
556632 On ch=2 n=f#3 v=100
556644 On ch=2 n=f#4 v=0
556752 On ch=2 n=b2 v=100
556764 On ch=2 n=f#3 v=0
556872 On ch=2 n=f#3 v=100
556884 On ch=2 n=b2 v=0
556992 On ch=2 n=d#4 v=100
557004 On ch=2 n=f#3 v=0
557112 On ch=2 n=f#3 v=100
557124 On ch=2 n=d#4 v=0
557232 On ch=2 n=b2 v=100
557244 On ch=2 n=f#3 v=0
557352 On ch=2 n=f#3 v=100
557364 On ch=2 n=b2 v=0
557472 On ch=2 n=f#4 v=100
557484 On ch=2 n=f#3 v=0
557592 On ch=2 n=f#3 v=100
557604 On ch=2 n=f#4 v=0
557712 On ch=2 n=b2 v=100
557724 On ch=2 n=f#3 v=0
557832 On ch=2 n=f#3 v=100
557844 On ch=2 n=b2 v=0
557952 On ch=2 n=d#4 v=100
557964 On ch=2 n=f#3 v=0
558072 On ch=2 n=f#3 v=100
558084 On ch=2 n=d#4 v=0
558192 On ch=2 n=b2 v=100
558204 On ch=2 n=f#3 v=0
558312 On ch=2 n=f#3 v=100
558324 On ch=2 n=b2 v=0
558432 On ch=2 n=d#4 v=100
558444 On ch=2 n=f#3 v=0
558552 On ch=2 n=f#3 v=100
558564 On ch=2 n=d#4 v=0
558672 On ch=2 n=b2 v=100
558684 On ch=2 n=f#3 v=0
558832 Par ch=2 c=64 v=0
559352 On ch=2 n=b2 v=0
559632 On ch=2 n=g#3 v=100
559632 On ch=2 n=g#2 v=100
560096 On ch=2 n=g#2 v=0
560096 On ch=2 n=g#3 v=0
560112 On ch=2 n=f#3 v=100
560112 On ch=2 n=f#2 v=100
560568 On ch=2 n=f#3 v=0
560576 On ch=2 n=f#2 v=0
560592 On ch=2 n=f#3 v=100
560592 On ch=2 n=b2 v=100
561096 On ch=2 n=b2 v=0
561096 On ch=2 n=f#3 v=0
561552 On ch=2 n=f#3 v=100
561552 On ch=2 n=f#2 v=100
562456 On ch=2 n=f#3 v=0
562488 On ch=2 n=f#2 v=0
562512 On ch=2 n=b2 v=100
562512 On ch=2 n=f#3 v=100
562512 On ch=2 n=b3 v=100
564424 On ch=2 n=b3 v=0
564424 On ch=2 n=f#3 v=0
564424 On ch=2 n=b2 v=0
564424 Meta TrkEnd
TrkEnd
