MFile 1 2 480
MTrk
0 TimeSig 4/4 24 8
0 Tempo 500000
0 Meta SeqName "Liszt Sonata No,1"
0 Meta TrkEnd
TrkEnd
MTrk
0 SeqSpec 43 00 01 00
3 Par ch=1 c=67 v=127
591 Par ch=1 c=64 v=127
699 On ch=1 n=g4 v=15
699 On ch=1 n=g2 v=15
699 On ch=1 n=g3 v=15
699 Par ch=1 c=64 v=0
940 On ch=1 n=g3 v=0
940 On ch=1 n=g2 v=0
940 On ch=1 n=g4 v=0
3687 On ch=1 n=g4 v=18
3695 On ch=1 n=g3 v=15
3695 On ch=1 n=g2 v=15
3935 On ch=1 n=g2 v=0
3940 On ch=1 n=g3 v=0
3948 On ch=1 n=g4 v=0
6531 On ch=1 n=g3 v=14
6531 On ch=1 n=g4 v=15
6531 On ch=1 n=g2 v=12
7064 Par ch=1 c=64 v=127
7799 On ch=1 n=f4 v=48
7815 On ch=1 n=f3 v=42
7875 On ch=1 n=g2 v=0
8179 Par ch=1 c=64 v=0
8751 Par ch=1 c=64 v=127
9603 On ch=1 n=d#4 v=30
9603 On ch=1 n=d#3 v=30
9711 On ch=1 n=f3 v=0
10220 On ch=1 n=d4 v=43
10231 On ch=1 n=d3 v=34
10295 On ch=1 n=d#3 v=0
10307 On ch=1 n=d#4 v=0
10315 On ch=1 n=f4 v=0
10315 Par ch=1 c=64 v=0
11464 On ch=1 n=c4 v=36
11499 On ch=1 n=c3 v=23
11507 On ch=1 n=d4 v=0
11535 On ch=1 n=d3 v=0
12215 Par ch=1 c=64 v=127
12763 On ch=1 n=a#3 v=21
12763 On ch=1 n=a#2 v=21
12832 On ch=1 n=c4 v=0
12858 Par ch=1 c=64 v=0
12968 On ch=1 n=c3 v=0
13495 Par ch=1 c=64 v=127
13771 On ch=1 n=a#2 v=0
13771 On ch=1 n=a#3 v=0
14275 On ch=1 n=g#3 v=20
14275 On ch=1 n=g#2 v=20
14403 Par ch=1 c=64 v=0
15419 On ch=1 n=g#2 v=0
15460 On ch=1 n=g#3 v=0
15464 On ch=1 n=g4 v=0
15464 On ch=1 n=g3 v=0
17615 On ch=1 n=g4 v=20
17624 On ch=1 n=g3 v=20
17624 On ch=1 n=g2 v=19
17868 On ch=1 n=g4 v=0
17899 On ch=1 n=g3 v=0
17904 On ch=1 n=g2 v=0
20851 On ch=1 n=g4 v=25
20860 On ch=1 n=g2 v=24
20860 On ch=1 n=g3 v=22
21080 On ch=1 n=g4 v=0
21104 On ch=1 n=g3 v=0
21104 On ch=1 n=g2 v=0
24004 On ch=1 n=g4 v=40
24004 On ch=1 n=g3 v=40
24004 On ch=1 n=g2 v=40
24620 Par ch=1 c=64 v=127
25555 On ch=1 n=f#3 v=45
25555 On ch=1 n=f#4 v=53
25768 On ch=1 n=g2 v=0
26012 Par ch=1 c=64 v=0
27635 On ch=1 n=d#4 v=33
27638 On ch=1 n=d#3 v=33
27688 On ch=1 n=f#4 v=0
27707 On ch=1 n=f#3 v=0
28331 On ch=1 n=d4 v=37
28331 On ch=1 n=d3 v=35
28375 On ch=1 n=d#3 v=0
28375 On ch=1 n=d#4 v=0
29248 Par ch=1 c=64 v=127
29647 On ch=1 n=c#4 v=35
29647 On ch=1 n=c#3 v=35
29764 On ch=1 n=d4 v=0
29771 On ch=1 n=d3 v=0
29891 Par ch=1 c=64 v=0
30303 Par ch=1 c=64 v=127
31060 On ch=1 n=a#2 v=19
31068 On ch=1 n=a#3 v=21
31148 On ch=1 n=c#3 v=0
31148 On ch=1 n=c#4 v=0
31152 Par ch=1 c=64 v=0
31580 Par ch=1 c=64 v=127
32059 On ch=1 n=a#3 v=0
32059 On ch=1 n=a#2 v=0
32719 On ch=1 n=a3 v=19
32738 On ch=1 n=a2 v=19
32958 Par ch=1 c=64 v=0
33760 On ch=1 n=a3 v=0
33788 On ch=1 n=a2 v=0
33920 On ch=1 n=g3 v=0
33920 On ch=1 n=g4 v=0
36135 On ch=1 n=g4 v=11
36151 On ch=1 n=g2 v=11
36151 On ch=1 n=g3 v=11
36378 On ch=1 n=g4 v=0
36399 On ch=1 n=g3 v=0
36407 On ch=1 n=g2 v=0
39775 On ch=1 n=g4 v=10
39784 On ch=1 n=g2 v=10
39784 On ch=1 n=g3 v=11
39935 On ch=1 n=g3 v=0
39935 On ch=1 n=g2 v=0
39951 On ch=1 n=g4 v=0
41704 Par ch=1 c=67 v=0
42247 On ch=1 n=g3 v=99
42255 On ch=1 n=g2 v=98
42275 On ch=1 n=g3 v=0
42279 On ch=1 n=g2 v=0
42327 On ch=1 n=g5 v=115
42327 On ch=1 n=g4 v=115
42378 Par ch=1 c=64 v=127
42443 On ch=1 n=g4 v=0
42528 On ch=1 n=g5 v=0
42895 On ch=1 n=g3 v=81
42899 On ch=1 n=g6 v=95
42899 On ch=1 n=g4 v=89
42899 On ch=1 n=g5 v=90
42928 On ch=1 n=g4 v=0
42931 On ch=1 n=g5 v=0
42931 On ch=1 n=g3 v=0
42964 On ch=1 n=g6 v=0
43091 On ch=1 n=g6 v=120
43095 On ch=1 n=g7 v=127
43095 On ch=1 n=g4 v=100
43095 On ch=1 n=g5 v=103
43171 Par ch=1 c=64 v=0
43278 Par ch=1 c=64 v=127
43418 On ch=1 n=g7 v=0
43428 On ch=1 n=g6 v=0
43527 On ch=1 n=g5 v=0
43635 On ch=1 n=g4 v=0
43959 On ch=1 n=a#5 v=96
43960 On ch=1 n=a#6 v=97
43971 On ch=1 n=a#4 v=99
43971 On ch=1 n=a#3 v=99
44000 Par ch=1 c=64 v=0
44212 Par ch=1 c=64 v=127
44239 On ch=1 n=a#6 v=0
44243 On ch=1 n=a#3 v=0
44243 On ch=1 n=a#5 v=0
44251 On ch=1 n=a#4 v=0
44644 On ch=1 n=b4 v=80
44644 On ch=1 n=b3 v=73
44659 On ch=1 n=b6 v=84
44659 On ch=1 n=b5 v=83
44675 On ch=1 n=b4 v=0
44691 On ch=1 n=b5 v=0
44691 On ch=1 n=b3 v=0
44700 On ch=1 n=b6 v=0
44779 On ch=1 n=d6 v=111
44780 On ch=1 n=d5 v=100
44780 On ch=1 n=d4 v=92
44780 On ch=1 n=d7 v=101
44900 Par ch=1 c=64 v=0
45508 Par ch=1 c=64 v=127
45791 Par ch=1 c=64 v=0
45915 On ch=1 n=d6 v=0
45920 On ch=1 n=d4 v=0
45920 On ch=1 n=d5 v=0
45927 On ch=1 n=d7 v=0
45944 Par ch=1 c=64 v=127
45964 On ch=1 n=c#4 v=75
45975 On ch=1 n=c#7 v=92
45979 On ch=1 n=c#5 v=74
45983 On ch=1 n=c#6 v=89
46039 On ch=1 n=c#4 v=0
46059 On ch=1 n=c#5 v=0
46059 On ch=1 n=c#7 v=0
46060 On ch=1 n=c#6 v=0
46100 On ch=1 n=a#5 v=98
46100 On ch=1 n=a#6 v=91
46100 On ch=1 n=a#4 v=83
46115 On ch=1 n=a#3 v=79
46138 On ch=1 n=a#3 v=0
46195 On ch=1 n=a#5 v=0
46214 On ch=1 n=a#4 v=0
46214 On ch=1 n=a#6 v=0
46214 On ch=1 n=g4 v=88
46220 On ch=1 n=g5 v=94
46227 On ch=1 n=g6 v=87
46235 On ch=1 n=g4 v=0
46235 On ch=1 n=g3 v=77
46255 On ch=1 n=g6 v=0
46267 On ch=1 n=g5 v=0
46271 On ch=1 n=g3 v=0
46335 On ch=1 n=e6 v=100
46344 On ch=1 n=e5 v=101
46344 On ch=1 n=e4 v=103
46347 On ch=1 n=e3 v=100
46379 On ch=1 n=e4 v=0
46391 On ch=1 n=e5 v=0
46411 On ch=1 n=e3 v=0
46411 On ch=1 n=e6 v=0
46411 Par ch=1 c=64 v=0
47395 On ch=1 n=d#4 v=78
47404 On ch=1 n=d#3 v=75
47404 On ch=1 n=d#5 v=74
47411 On ch=1 n=d#6 v=78
47455 On ch=1 n=d#3 v=0
47471 On ch=1 n=d#6 v=0
47471 On ch=1 n=d#4 v=0
47480 On ch=1 n=d#5 v=0
47598 On ch=1 n=e4 v=85
47598 On ch=1 n=e6 v=90
47604 On ch=1 n=e3 v=88
47612 On ch=1 n=e5 v=77
47651 On ch=1 n=e5 v=0
47660 On ch=1 n=e6 v=0
47660 On ch=1 n=e4 v=0
47668 On ch=1 n=e3 v=0
47800 On ch=1 n=f#6 v=92
47804 On ch=1 n=f#5 v=90
47804 On ch=1 n=f#4 v=93
47812 On ch=1 n=f#3 v=87
47848 On ch=1 n=f#3 v=0
47848 On ch=1 n=f#6 v=0
47859 On ch=1 n=f#5 v=0
47864 On ch=1 n=f#4 v=0
48011 On ch=1 n=a4 v=102
48011 On ch=1 n=a3 v=100
48019 On ch=1 n=a5 v=102
48019 On ch=1 n=a6 v=100
48451 Par ch=1 c=64 v=127
48971 On ch=1 n=a6 v=0
48998 On ch=1 n=a3 v=0
48998 On ch=1 n=a4 v=0
49015 On ch=1 n=a5 v=0
49283 On ch=1 n=g4 v=79
49283 On ch=1 n=g6 v=81
49291 On ch=1 n=g5 v=74
49295 On ch=1 n=g3 v=81
49315 On ch=1 n=g6 v=0
49324 On ch=1 n=g5 v=0
49324 On ch=1 n=g4 v=0
49335 On ch=1 n=g3 v=0
49411 On ch=1 n=e5 v=87
49420 On ch=1 n=e6 v=88
49424 On ch=1 n=e4 v=60
49424 On ch=1 n=e3 v=60
49451 On ch=1 n=e6 v=0
49458 On ch=1 n=e4 v=0
49458 On ch=1 n=e5 v=0
49460 On ch=1 n=e3 v=0
49535 On ch=1 n=c#4 v=88
49535 On ch=1 n=c#5 v=98
49539 On ch=1 n=c#6 v=99
49547 On ch=1 n=c#3 v=75
49557 On ch=1 n=c#4 v=0
49565 On ch=1 n=c#5 v=0
49577 On ch=1 n=c#3 v=0
49577 On ch=1 n=c#6 v=0
49624 Par ch=1 c=64 v=0
49641 On ch=1 n=a#3 v=125
49648 Par ch=1 c=64 v=127
49648 On ch=1 n=a#4 v=124
49648 On ch=1 n=a#2 v=127
49648 On ch=1 n=a#5 v=126
49672 On ch=1 n=a#2 v=0
49684 On ch=1 n=a#5 v=0
49684 On ch=1 n=a#4 v=0
49684 Par ch=1 c=64 v=0
49694 On ch=1 n=a#3 v=0
51458 On ch=1 n=a#2 v=70
51485 On ch=1 n=b2 v=70
51529 On ch=1 n=c#3 v=74
51565 On ch=1 n=a#2 v=0
51572 On ch=1 n=d3 v=86
51581 On ch=1 n=b2 v=0
51625 On ch=1 n=c#3 v=0
51661 On ch=1 n=d3 v=0
51905 On ch=1 n=d3 v=86
51993 On ch=1 n=d3 v=0
52169 On ch=1 n=d3 v=77
52173 On ch=1 n=f#4 v=96
52181 On ch=1 n=b4 v=93
52181 On ch=1 n=f#5 v=98
52261 On ch=1 n=d3 v=0
52413 On ch=1 n=d3 v=75
52506 On ch=1 n=d3 v=0
52674 On ch=1 n=d3 v=75
52734 On ch=1 n=f#5 v=0
52749 On ch=1 n=b4 v=0
52825 On ch=1 n=f#4 v=0
52834 Par ch=1 c=64 v=127
52853 On ch=1 n=d3 v=0
52872 On ch=1 n=c#3 v=71
52969 On ch=1 n=b2 v=82
52993 On ch=1 n=c#3 v=0
53009 Par ch=1 c=64 v=0
53033 On ch=1 n=b2 v=0
53069 On ch=1 n=f#4 v=90
53078 On ch=1 n=d5 v=85
53078 On ch=1 n=b4 v=82
53085 On ch=1 n=f#3 v=90
53149 On ch=1 n=f#3 v=0
53345 On ch=1 n=f3 v=95
53345 Par ch=1 c=64 v=127
53381 On ch=1 n=f#4 v=0
53405 On ch=1 n=f3 v=0
53618 On ch=1 n=g4 v=74
53633 On ch=1 n=e3 v=115
54005 Par ch=1 c=64 v=0
54425 On ch=1 n=a#4 v=70
54449 On ch=1 n=b4 v=0
54914 Par ch=1 c=64 v=127
55018 On ch=1 n=d5 v=0
55222 On ch=1 n=c#5 v=90
55281 On ch=1 n=a#4 v=0
55392 On ch=1 n=g4 v=0
55445 On ch=1 n=c#5 v=0
55494 On ch=1 n=e3 v=0
55753 Par ch=1 c=64 v=0
57862 On ch=1 n=c3 v=72
57905 On ch=1 n=c#3 v=77
57929 On ch=1 n=d#3 v=71
57945 On ch=1 n=c3 v=0
57961 On ch=1 n=d3 v=65
57982 On ch=1 n=e3 v=90
58021 On ch=1 n=d3 v=0
58021 On ch=1 n=c#3 v=0
58073 On ch=1 n=e3 v=0
58073 On ch=1 n=d#3 v=0
58305 On ch=1 n=e3 v=90
58385 On ch=1 n=e3 v=0
58578 On ch=1 n=g4 v=98
58578 On ch=1 n=e3 v=80
58578 On ch=1 n=g5 v=97
58578 On ch=1 n=a#4 v=94
58585 On ch=1 n=c#5 v=92
58649 On ch=1 n=e3 v=0
58825 On ch=1 n=e3 v=82
58913 On ch=1 n=e3 v=0
59102 On ch=1 n=e3 v=76
59134 Par ch=1 c=64 v=127
59149 On ch=1 n=g5 v=0
59185 On ch=1 n=c#5 v=0
59206 On ch=1 n=a#4 v=0
59233 On ch=1 n=g4 v=0
59285 On ch=1 n=e3 v=0
59345 On ch=1 n=d3 v=80
59421 On ch=1 n=c#3 v=86
59431 On ch=1 n=d3 v=0
59462 Par ch=1 c=64 v=0
59490 On ch=1 n=c#3 v=0
59529 On ch=1 n=e5 v=103
59535 On ch=1 n=g4 v=95
59535 On ch=1 n=a3 v=90
59539 On ch=1 n=c#5 v=88
59539 On ch=1 n=a#4 v=91
59610 On ch=1 n=a3 v=0
59810 On ch=1 n=g3 v=100
59859 On ch=1 n=g4 v=0
59890 Par ch=1 c=64 v=127
59894 On ch=1 n=g3 v=0
60106 On ch=1 n=a#4 v=0
60182 On ch=1 n=f#3 v=125
60182 On ch=1 n=a4 v=73
60239 Par ch=1 c=64 v=0
61026 On ch=1 n=c5 v=70
61051 On ch=1 n=c#5 v=0
61395 On ch=1 n=e5 v=0
61442 Par ch=1 c=64 v=127
61850 On ch=1 n=d#5 v=95
61891 On ch=1 n=c5 v=0
62266 On ch=1 n=a4 v=0
62282 On ch=1 n=f#3 v=0
62366 On ch=1 n=d#5 v=0
62522 Par ch=1 c=64 v=0
64706 Par ch=1 c=67 v=127
64716 On ch=1 n=a5 v=51
64716 On ch=1 n=d#5 v=45
64719 On ch=1 n=c5 v=40
64727 On ch=1 n=f#4 v=42
64783 On ch=1 n=d#5 v=0
64823 Par ch=1 c=64 v=127
64876 On ch=1 n=c5 v=0
64887 On ch=1 n=f#4 v=0
64926 On ch=1 n=g4 v=58
65015 On ch=1 n=g5 v=63
65023 On ch=1 n=g4 v=0
65047 On ch=1 n=a5 v=0
65052 Par ch=1 c=64 v=0
65075 Par ch=1 c=67 v=0
65075 On ch=1 n=d#5 v=65
65085 On ch=1 n=g5 v=0
65124 On ch=1 n=c5 v=64
65136 On ch=1 n=d#5 v=0
65164 On ch=1 n=a4 v=57
65165 On ch=1 n=c5 v=0
65205 On ch=1 n=a4 v=0
65252 On ch=1 n=g4 v=66
65313 On ch=1 n=g4 v=0
65325 On ch=1 n=d#4 v=71
65325 On ch=1 n=c6 v=69
65333 On ch=1 n=g5 v=68
65333 On ch=1 n=g6 v=65
65333 On ch=1 n=d#6 v=65
65372 On ch=1 n=g5 v=0
65383 On ch=1 n=c6 v=0
65403 On ch=1 n=c4 v=68
65424 On ch=1 n=d#4 v=0
65472 On ch=1 n=d#6 v=0
65472 On ch=1 n=g6 v=0
65489 On ch=1 n=c4 v=0
65489 On ch=1 n=g3 v=72
65516 Par ch=1 c=64 v=127
65533 On ch=1 n=g3 v=0
65700 On ch=1 n=f5 v=80
65700 On ch=1 n=g#6 v=81
65700 On ch=1 n=g#5 v=82
65700 On ch=1 n=c6 v=80
65724 On ch=1 n=g#6 v=0
65728 On ch=1 n=f5 v=0
65756 On ch=1 n=c6 v=0
65756 On ch=1 n=g#5 v=0
65772 Par ch=1 c=64 v=0
66048 On ch=1 n=f#4 v=46
66056 On ch=1 n=d#5 v=43
66059 On ch=1 n=a5 v=56
66063 On ch=1 n=c5 v=41
66105 On ch=1 n=d#5 v=0
66109 Par ch=1 c=64 v=127
66144 On ch=1 n=c5 v=0
66169 On ch=1 n=f#4 v=0
66236 On ch=1 n=g4 v=55
66296 On ch=1 n=g4 v=0
66296 On ch=1 n=a5 v=0
66296 On ch=1 n=g5 v=59
66303 Par ch=1 c=64 v=0
66356 On ch=1 n=d#5 v=65
66372 On ch=1 n=g5 v=0
66416 On ch=1 n=c5 v=70
66426 On ch=1 n=d#5 v=0
66457 On ch=1 n=c5 v=0
66465 On ch=1 n=a4 v=61
66505 On ch=1 n=a4 v=0
66541 On ch=1 n=g4 v=72
66585 On ch=1 n=g4 v=0
66613 On ch=1 n=d#6 v=70
66617 On ch=1 n=g6 v=71
66622 On ch=1 n=g5 v=70
66622 On ch=1 n=d#4 v=74
66622 On ch=1 n=c6 v=64
66697 On ch=1 n=c4 v=72
66707 On ch=1 n=d#4 v=0
66719 On ch=1 n=g5 v=0
66737 On ch=1 n=g6 v=0
66737 Par ch=1 c=64 v=127
66758 On ch=1 n=g3 v=82
66787 On ch=1 n=c4 v=0
66827 On ch=1 n=g3 v=0
66958 On ch=1 n=d#6 v=0
66970 On ch=1 n=f5 v=80
66978 On ch=1 n=g#6 v=81
66978 On ch=1 n=g#5 v=82
66994 On ch=1 n=c6 v=0
67022 On ch=1 n=g#6 v=0
67047 On ch=1 n=g#5 v=0
67047 On ch=1 n=f5 v=0
67047 Par ch=1 c=64 v=0
67354 On ch=1 n=g#4 v=52
67359 On ch=1 n=d5 v=55
67359 On ch=1 n=b5 v=64
67359 On ch=1 n=f5 v=55
67386 On ch=1 n=f5 v=0
67439 Par ch=1 c=64 v=127
67490 On ch=1 n=d5 v=0
67497 On ch=1 n=g#4 v=0
67534 On ch=1 n=a4 v=73
67599 On ch=1 n=a4 v=0
67607 On ch=1 n=a5 v=70
67614 On ch=1 n=b5 v=0
67619 Par ch=1 c=64 v=0
67667 On ch=1 n=f5 v=70
67690 On ch=1 n=a5 v=0
67738 On ch=1 n=d5 v=70
67754 On ch=1 n=f5 v=0
67766 On ch=1 n=b4 v=73
67782 On ch=1 n=d5 v=0
67810 On ch=1 n=b4 v=0
67854 On ch=1 n=a4 v=75
67914 On ch=1 n=a4 v=0
67930 On ch=1 n=f4 v=77
67930 On ch=1 n=f6 v=69
67930 On ch=1 n=a6 v=75
67933 On ch=1 n=a5 v=73
67933 On ch=1 n=d6 v=71
67994 On ch=1 n=d4 v=75
68013 On ch=1 n=f4 v=0
68019 On ch=1 n=a5 v=0
68078 On ch=1 n=a6 v=0
68083 On ch=1 n=a3 v=82
68098 On ch=1 n=f6 v=0
68102 On ch=1 n=d4 v=0
68134 Par ch=1 c=64 v=127
68138 On ch=1 n=a3 v=0
68294 On ch=1 n=a#6 v=81
68306 On ch=1 n=a#5 v=82
68306 On ch=1 n=g5 v=84
68310 On ch=1 n=d6 v=0
68350 On ch=1 n=g5 v=0
68360 On ch=1 n=a#5 v=0
68360 On ch=1 n=a#6 v=0
68407 Par ch=1 c=64 v=0
68647 On ch=1 n=f5 v=50
68651 On ch=1 n=g#4 v=54
68655 On ch=1 n=d5 v=54
68655 On ch=1 n=b5 v=65
68695 On ch=1 n=f5 v=0
68714 Par ch=1 c=64 v=127
68788 On ch=1 n=d5 v=0
68795 On ch=1 n=g#4 v=0
68831 On ch=1 n=a4 v=75
68904 On ch=1 n=a4 v=0
68916 On ch=1 n=b5 v=0
68927 On ch=1 n=a5 v=69
68970 Par ch=1 c=64 v=0
68970 On ch=1 n=f5 v=71
68996 On ch=1 n=a5 v=0
69034 On ch=1 n=d5 v=69
69051 On ch=1 n=f5 v=0
69080 On ch=1 n=b4 v=66
69087 On ch=1 n=d5 v=0
69128 On ch=1 n=b4 v=0
69156 On ch=1 n=a4 v=78
69223 On ch=1 n=a4 v=0
69234 On ch=1 n=a5 v=75
69244 On ch=1 n=f4 v=76
69255 On ch=1 n=f6 v=71
69256 On ch=1 n=d6 v=67
69256 On ch=1 n=a6 v=71
69311 On ch=1 n=d4 v=78
69334 On ch=1 n=a5 v=0
69340 On ch=1 n=f4 v=0
69391 On ch=1 n=a6 v=0
69395 On ch=1 n=a3 v=86
69400 On ch=1 n=f6 v=0
69407 On ch=1 n=d4 v=0
69451 On ch=1 n=a3 v=0
69454 Par ch=1 c=64 v=127
69615 On ch=1 n=a#6 v=81
69615 On ch=1 n=a#5 v=84
69624 On ch=1 n=g5 v=81
69635 On ch=1 n=d6 v=0
69676 On ch=1 n=a#6 v=0
69680 On ch=1 n=g5 v=0
69695 On ch=1 n=a#5 v=0
69774 Par ch=1 c=64 v=0
69984 On ch=1 n=a#4 v=59
69984 On ch=1 n=g5 v=45
69984 On ch=1 n=e5 v=56
69984 On ch=1 n=c6 v=67
70010 On ch=1 n=g5 v=0
70043 Par ch=1 c=64 v=127
70079 On ch=1 n=e5 v=0
70111 On ch=1 n=a#4 v=0
70155 On ch=1 n=b4 v=75
70227 On ch=1 n=b4 v=0
70231 On ch=1 n=b5 v=73
70234 On ch=1 n=c6 v=0
70274 Par ch=1 c=64 v=0
70303 On ch=1 n=g5 v=70
70320 On ch=1 n=b5 v=0
70376 On ch=1 n=e5 v=71
70394 On ch=1 n=g5 v=0
70404 On ch=1 n=c5 v=70
70427 On ch=1 n=e5 v=0
70443 On ch=1 n=c5 v=0
70483 On ch=1 n=b4 v=78
70547 On ch=1 n=b4 v=0
70563 On ch=1 n=g4 v=78
70563 On ch=1 n=e6 v=79
70563 On ch=1 n=g6 v=76
70563 On ch=1 n=b5 v=81
70567 On ch=1 n=b6 v=78
70627 On ch=1 n=e4 v=77
70660 On ch=1 n=g4 v=0
70688 On ch=1 n=b5 v=0
70700 On ch=1 n=g6 v=0
70700 On ch=1 n=e6 v=0
70703 On ch=1 n=b3 v=85
70715 On ch=1 n=b6 v=0
70731 On ch=1 n=e4 v=0
70764 Par ch=1 c=64 v=127
70779 On ch=1 n=b3 v=0
70951 On ch=1 n=a5 v=80
70951 On ch=1 n=e6 v=85
70954 On ch=1 n=c6 v=81
70956 On ch=1 n=c7 v=90
71003 On ch=1 n=a5 v=0
71024 On ch=1 n=c6 v=0
71043 Par ch=1 c=64 v=0
71047 On ch=1 n=e6 v=0
71071 On ch=1 n=c7 v=0
71307 On ch=1 n=e5 v=62
71314 On ch=1 n=g5 v=54
71320 On ch=1 n=a#4 v=56
71324 On ch=1 n=c6 v=66
71360 On ch=1 n=g5 v=0
71367 Par ch=1 c=64 v=127
71415 On ch=1 n=e5 v=0
71447 On ch=1 n=a#4 v=0
71487 On ch=1 n=b4 v=73
71555 On ch=1 n=b4 v=0
71567 On ch=1 n=b5 v=72
71588 On ch=1 n=c6 v=0
71627 On ch=1 n=g5 v=77
71643 Par ch=1 c=64 v=0
71653 On ch=1 n=b5 v=0
71687 On ch=1 n=e5 v=71
71697 On ch=1 n=g5 v=0
71729 On ch=1 n=c5 v=69
71734 On ch=1 n=e5 v=0
71790 On ch=1 n=c5 v=0
71790 On ch=1 n=b4 v=80
71865 On ch=1 n=b4 v=0
71894 On ch=1 n=g4 v=68
71897 On ch=1 n=e6 v=72
71909 On ch=1 n=g6 v=72
71909 On ch=1 n=b6 v=72
71909 On ch=1 n=b5 v=71
71953 On ch=1 n=e4 v=69
71961 On ch=1 n=g4 v=0
71990 On ch=1 n=b5 v=0
72017 On ch=1 n=g6 v=0
72017 On ch=1 n=e6 v=0
72021 On ch=1 n=b6 v=0
72028 On ch=1 n=e4 v=0
72038 Par ch=1 c=64 v=127
72049 On ch=1 n=b3 v=67
72110 On ch=1 n=e4 v=73
72158 On ch=1 n=b3 v=0
72218 On ch=1 n=a4 v=80
72229 On ch=1 n=e6 v=85
72229 On ch=1 n=a6 v=86
72229 On ch=1 n=c6 v=87
72229 On ch=1 n=c7 v=88
72230 On ch=1 n=e4 v=0
72274 On ch=1 n=e6 v=0
72274 On ch=1 n=a4 v=0
72285 On ch=1 n=c5 v=81
72289 On ch=1 n=c7 v=0
72289 On ch=1 n=c6 v=0
72298 On ch=1 n=a6 v=0
72309 On ch=1 n=c5 v=0
72413 On ch=1 n=e5 v=87
72445 Par ch=1 c=64 v=0
72474 On ch=1 n=a5 v=94
72489 On ch=1 n=e5 v=0
72521 On ch=1 n=a5 v=0
72554 On ch=1 n=a6 v=98
72554 On ch=1 n=f#6 v=102
72554 On ch=1 n=d#6 v=102
72554 On ch=1 n=d#7 v=100
72558 On ch=1 n=c6 v=91
72618 Par ch=1 c=64 v=127
72625 On ch=1 n=c6 v=0
72625 On ch=1 n=b5 v=83
72630 On ch=1 n=f#6 v=0
72645 On ch=1 n=d#6 v=0
72645 On ch=1 n=a6 v=0
72681 On ch=1 n=b5 v=0
72705 On ch=1 n=d#7 v=0
72757 On ch=1 n=a5 v=90
72845 On ch=1 n=f#5 v=83
72849 On ch=1 n=a5 v=0
72874 Par ch=1 c=64 v=0
72897 On ch=1 n=c7 v=97
72897 On ch=1 n=e6 v=104
72905 On ch=1 n=e7 v=102
72905 On ch=1 n=a6 v=100
72905 On ch=1 n=c5 v=73
72925 On ch=1 n=f#5 v=0
72961 On ch=1 n=b4 v=85
72981 On ch=1 n=c5 v=0
72991 Par ch=1 c=64 v=127
72995 On ch=1 n=b4 v=0
73002 On ch=1 n=a6 v=0
73018 On ch=1 n=e6 v=0
73022 On ch=1 n=c7 v=0
73038 On ch=1 n=e7 v=0
73078 On ch=1 n=a4 v=92
73151 On ch=1 n=f#4 v=90
73154 On ch=1 n=a4 v=0
73215 Par ch=1 c=64 v=0
73242 On ch=1 n=a6 v=98
73242 On ch=1 n=f6 v=106
73245 On ch=1 n=c7 v=97
73255 On ch=1 n=f7 v=104
73255 On ch=1 n=c4 v=84
73291 On ch=1 n=b3 v=88
73294 On ch=1 n=f#4 v=0
73321 Par ch=1 c=64 v=127
73338 On ch=1 n=f6 v=0
73347 On ch=1 n=b3 v=0
73347 On ch=1 n=f7 v=0
73351 On ch=1 n=c4 v=0
73362 On ch=1 n=a6 v=0
73425 On ch=1 n=a3 v=96
73439 On ch=1 n=c7 v=0
73515 On ch=1 n=f#3 v=91
73526 On ch=1 n=a3 v=0
73587 On ch=1 n=d#7 v=103
73587 On ch=1 n=c3 v=83
73591 On ch=1 n=a6 v=96
73591 On ch=1 n=f#6 v=110
73594 On ch=1 n=f#7 v=108
73606 On ch=1 n=f#3 v=0
73647 On ch=1 n=b2 v=100
73691 On ch=1 n=c3 v=0
73714 On ch=1 n=a6 v=0
73747 On ch=1 n=b2 v=0
73758 On ch=1 n=f#6 v=0
73758 On ch=1 n=d#7 v=0
73786 On ch=1 n=f#7 v=0
73962 Par ch=1 c=64 v=0
74242 On ch=1 n=g3 v=127
74245 On ch=1 n=g2 v=127
74251 On ch=1 n=d#7 v=121
74258 On ch=1 n=a#6 v=110
74258 On ch=1 n=g6 v=120
74258 On ch=1 n=g7 v=127
74298 On ch=1 n=g3 v=0
74306 On ch=1 n=g6 v=0
74306 On ch=1 n=g2 v=0
74318 On ch=1 n=a#6 v=0
74322 On ch=1 n=d#7 v=0
74327 On ch=1 n=g7 v=0
74375 On ch=1 n=g7 v=127
74378 On ch=1 n=a#6 v=110
74378 On ch=1 n=g2 v=127
74378 On ch=1 n=g6 v=115
74387 On ch=1 n=g3 v=127
74387 On ch=1 n=d#7 v=110
74526 Par ch=1 c=64 v=127
74606 On ch=1 n=g7 v=0
74618 On ch=1 n=g6 v=0
74638 On ch=1 n=d#7 v=0
74638 On ch=1 n=g2 v=0
74638 On ch=1 n=a#6 v=0
74650 On ch=1 n=g3 v=0
75214 On ch=1 n=d#5 v=100
75214 On ch=1 n=g5 v=110
75222 On ch=1 n=g4 v=100
75222 On ch=1 n=d#6 v=110
75225 On ch=1 n=a#5 v=112
75227 On ch=1 n=a#4 v=108
75227 On ch=1 n=a#6 v=113
75314 Par ch=1 c=64 v=0
75478 Par ch=1 c=64 v=127
75585 On ch=1 n=a#4 v=0
75585 On ch=1 n=d#5 v=0
75606 On ch=1 n=g4 v=0
75618 On ch=1 n=g5 v=0
75635 On ch=1 n=a#6 v=0
75642 On ch=1 n=a#5 v=0
75658 On ch=1 n=d#6 v=0
75924 On ch=1 n=g5 v=105
75924 On ch=1 n=d#5 v=100
75924 On ch=1 n=a#5 v=108
75928 On ch=1 n=a#4 v=102
75928 On ch=1 n=a#6 v=105
75943 On ch=1 n=g4 v=100
75955 On ch=1 n=d#5 v=0
75972 On ch=1 n=g4 v=0
75972 On ch=1 n=a#4 v=0
75972 On ch=1 n=a#5 v=0
75975 On ch=1 n=a#6 v=0
75984 On ch=1 n=g5 v=0
76039 On ch=1 n=g4 v=100
76044 On ch=1 n=g5 v=105
76044 On ch=1 n=e5 v=104
76044 On ch=1 n=a#4 v=97
76059 On ch=1 n=d6 v=110
76059 On ch=1 n=d7 v=115
76164 Par ch=1 c=64 v=0
76319 On ch=1 n=d6 v=0
76356 Par ch=1 c=64 v=127
76564 On ch=1 n=e5 v=0
76564 On ch=1 n=g5 v=0
76579 On ch=1 n=a#4 v=0
76615 On ch=1 n=c#7 v=82
76619 On ch=1 n=g4 v=0
76668 On ch=1 n=a#6 v=83
76731 On ch=1 n=g6 v=88
76748 On ch=1 n=d7 v=0
76755 On ch=1 n=c#7 v=0
76763 On ch=1 n=a#6 v=0
76788 On ch=1 n=g6 v=0
76795 On ch=1 n=e6 v=83
76807 On ch=1 n=e6 v=0
76883 On ch=1 n=c#6 v=95
76936 Par ch=1 c=64 v=0
76951 On ch=1 n=a#5 v=85
77012 On ch=1 n=g5 v=87
77019 On ch=1 n=c#6 v=0
77048 On ch=1 n=a#5 v=0
77071 Par ch=1 c=64 v=127
77079 On ch=1 n=g5 v=0
77091 On ch=1 n=e5 v=84
77115 On ch=1 n=e5 v=0
77191 On ch=1 n=c#5 v=85
77239 On ch=1 n=a#4 v=86
77304 On ch=1 n=g4 v=92
77382 On ch=1 n=c#5 v=0
77392 On ch=1 n=e4 v=99
77412 On ch=1 n=a#4 v=0
77468 On ch=1 n=g4 v=0
77501 On ch=1 n=e4 v=0
77541 Par ch=1 c=64 v=0
78256 On ch=1 n=d#4 v=85
78256 On ch=1 n=d#5 v=78
78353 On ch=1 n=d#5 v=0
78353 On ch=1 n=d#4 v=0
78440 On ch=1 n=e4 v=89
78440 On ch=1 n=e5 v=82
78536 On ch=1 n=e5 v=0
78541 On ch=1 n=e4 v=0
78621 On ch=1 n=f#5 v=90
78621 On ch=1 n=f#4 v=90
78721 On ch=1 n=f#4 v=0
78721 On ch=1 n=f#5 v=0
78829 On ch=1 n=a4 v=115
78833 On ch=1 n=a5 v=119
78913 Par ch=1 c=64 v=127
79039 On ch=1 n=a5 v=0
79072 On ch=1 n=a4 v=0
79252 On ch=1 n=g5 v=77
79260 On ch=1 n=g4 v=66
79312 On ch=1 n=e5 v=79
79319 On ch=1 n=e4 v=59
79328 On ch=1 n=g4 v=0
79353 On ch=1 n=c#4 v=72
79356 On ch=1 n=g5 v=0
79360 On ch=1 n=c#5 v=86
79368 On ch=1 n=e5 v=0
79400 On ch=1 n=e4 v=0
79416 On ch=1 n=a#3 v=76
79425 On ch=1 n=a#4 v=85
79444 On ch=1 n=c#5 v=0
79448 On ch=1 n=c#4 v=0
79476 Par ch=1 c=64 v=0
79480 On ch=1 n=a#4 v=0
79484 On ch=1 n=a#3 v=0
79616 On ch=1 n=a#3 v=90
79616 On ch=1 n=a#4 v=85
79719 On ch=1 n=a#4 v=0
79719 On ch=1 n=a#3 v=0
79808 On ch=1 n=b3 v=91
79808 On ch=1 n=b4 v=88
79905 On ch=1 n=b4 v=0
79912 On ch=1 n=b3 v=0
79989 On ch=1 n=c#4 v=92
79989 On ch=1 n=c#5 v=92
80093 On ch=1 n=c#5 v=0
80093 On ch=1 n=c#4 v=0
80181 On ch=1 n=e4 v=119
80181 On ch=1 n=e5 v=120
80245 Par ch=1 c=64 v=127
80400 On ch=1 n=e5 v=0
80448 On ch=1 n=e4 v=0
80636 On ch=1 n=d4 v=67
80640 On ch=1 n=d5 v=71
80676 On ch=1 n=b3 v=75
80676 On ch=1 n=b4 v=80
80692 Par ch=1 c=64 v=0
80708 On ch=1 n=d4 v=0
80748 On ch=1 n=g#3 v=74
80748 On ch=1 n=g#4 v=76
80780 On ch=1 n=b3 v=0
80781 On ch=1 n=b4 v=0
80809 On ch=1 n=g#4 v=0
80812 On ch=1 n=d5 v=0
80839 On ch=1 n=f3 v=94
80839 On ch=1 n=f4 v=64
80841 On ch=1 n=g#3 v=0
80841 Par ch=1 c=64 v=127
80856 On ch=1 n=f4 v=0
80905 On ch=1 n=f3 v=0
80961 On ch=1 n=d4 v=77
81036 On ch=1 n=b3 v=81
81085 On ch=1 n=d4 v=0
81093 On ch=1 n=g#3 v=86
81125 On ch=1 n=b3 v=0
81128 Par ch=1 c=64 v=0
81160 On ch=1 n=f3 v=80
81188 On ch=1 n=d3 v=75
81198 On ch=1 n=g#3 v=0
81233 On ch=1 n=f3 v=0
81253 On ch=1 n=b2 v=80
81297 Par ch=1 c=64 v=127
81302 On ch=1 n=g#2 v=76
81317 On ch=1 n=d3 v=0
81377 On ch=1 n=g2 v=81
81397 On ch=1 n=b2 v=0
81422 On ch=1 n=g#2 v=0
81445 On ch=1 n=g2 v=0
81493 On ch=1 n=f#2 v=127
81538 On ch=1 n=f#2 v=0
81753 On ch=1 n=f#3 v=120
81753 On ch=1 n=f#2 v=121
81809 On ch=1 n=f#3 v=0
81825 On ch=1 n=f#2 v=0
81977 Par ch=1 c=64 v=0
81992 On ch=1 n=f#2 v=123
81998 On ch=1 n=f#3 v=124
82005 On ch=1 n=d5 v=95
82005 On ch=1 n=b4 v=94
82009 On ch=1 n=f#5 v=95
82009 On ch=1 n=f#4 v=93
82113 On ch=1 n=f#3 v=0
82129 On ch=1 n=f#2 v=0
82237 Par ch=1 c=64 v=127
82265 On ch=1 n=f#3 v=118
82269 On ch=1 n=f#2 v=119
82369 On ch=1 n=f#2 v=0
82377 On ch=1 n=f#3 v=0
82505 On ch=1 n=f#2 v=119
82509 On ch=1 n=d5 v=0
82509 On ch=1 n=f#3 v=120
82512 On ch=1 n=f#5 v=0
82512 On ch=1 n=b4 v=0
82529 On ch=1 n=f#4 v=0
82589 On ch=1 n=f#2 v=0
82598 On ch=1 n=f#3 v=0
82736 On ch=1 n=e3 v=90
82812 On ch=1 n=e3 v=0
82873 On ch=1 n=d3 v=95
82926 On ch=1 n=d3 v=0
82998 On ch=1 n=d5 v=103
83002 On ch=1 n=f4 v=103
83002 On ch=1 n=b4 v=102
83002 On ch=1 n=a3 v=91
83002 Par ch=1 c=64 v=0
83029 On ch=1 n=a3 v=0
83289 On ch=1 n=g#3 v=100
83373 On ch=1 n=g#3 v=0
83393 Par ch=1 c=64 v=127
83478 On ch=1 n=f4 v=0
83538 On ch=1 n=b4 v=0
83585 On ch=1 n=e4 v=97
83585 On ch=1 n=g3 v=120
83761 On ch=1 n=g3 v=0
83853 On ch=1 n=a3 v=70
83913 On ch=1 n=a3 v=0
83938 On ch=1 n=g3 v=69
83989 On ch=1 n=g3 v=0
84033 On ch=1 n=a3 v=77
84077 On ch=1 n=g3 v=72
84082 On ch=1 n=e4 v=0
84097 On ch=1 n=a3 v=0
84126 On ch=1 n=g3 v=0
84169 On ch=1 n=a3 v=66
84198 On ch=1 n=a#4 v=99
84213 On ch=1 n=g3 v=74
84223 On ch=1 n=a3 v=0
84254 On ch=1 n=d5 v=0
84266 On ch=1 n=g3 v=0
84299 On ch=1 n=a3 v=68
84358 On ch=1 n=g3 v=64
84390 On ch=1 n=a3 v=0
84395 On ch=1 n=g3 v=0
84435 On ch=1 n=a3 v=66
84479 On ch=1 n=g3 v=63
84515 On ch=1 n=a3 v=0
84546 On ch=1 n=g3 v=0
84578 On ch=1 n=a3 v=56
84626 On ch=1 n=g3 v=66
84636 On ch=1 n=a3 v=0
84683 On ch=1 n=g3 v=0
84699 On ch=1 n=a3 v=60
84759 On ch=1 n=g3 v=68
84769 On ch=1 n=a3 v=0
84820 On ch=1 n=c#5 v=95
84828 On ch=1 n=g3 v=0
84844 On ch=1 n=a3 v=72
84853 Par ch=1 c=64 v=0
84860 On ch=1 n=a#4 v=0
84888 On ch=1 n=g3 v=71
84933 On ch=1 n=a3 v=0
84947 On ch=1 n=g3 v=0
84968 On ch=1 n=c#5 v=0
84984 Par ch=1 c=64 v=127
84993 On ch=1 n=a3 v=63
85056 On ch=1 n=g3 v=57
85084 On ch=1 n=a3 v=0
85136 On ch=1 n=g3 v=0
85140 On ch=1 n=a3 v=57
85209 On ch=1 n=g3 v=67
85224 On ch=1 n=a3 v=0
85300 On ch=1 n=g3 v=0
85333 On ch=1 n=a3 v=64
85393 On ch=1 n=g3 v=71
85420 On ch=1 n=a3 v=0
85516 On ch=1 n=g3 v=0
85644 On ch=1 n=f#3 v=83
85708 On ch=1 n=f#3 v=0
85764 Par ch=1 c=64 v=0
85781 On ch=1 n=e3 v=70
85860 On ch=1 n=e3 v=0
85897 On ch=1 n=d3 v=66
85960 On ch=1 n=d3 v=0
85970 On ch=1 n=c#3 v=74
86030 On ch=1 n=c#3 v=0
86093 On ch=1 n=b2 v=93
86180 Par ch=1 c=64 v=127
86257 On ch=1 n=b2 v=0
86257 On ch=1 n=b3 v=60
86297 On ch=1 n=b3 v=0
86406 On ch=1 n=d4 v=68
86454 On ch=1 n=f#4 v=69
86546 On ch=1 n=d4 v=0
86546 On ch=1 n=b4 v=76
86546 On ch=1 n=d7 v=102
86557 On ch=1 n=f#4 v=0
86557 On ch=1 n=f#6 v=86
86557 On ch=1 n=d6 v=82
86577 On ch=1 n=b4 v=0
86597 On ch=1 n=f#6 v=0
86597 On ch=1 n=d5 v=70
86606 On ch=1 n=d6 v=0
86606 On ch=1 n=d7 v=0
86637 On ch=1 n=d5 v=0
86714 On ch=1 n=f5 v=72
86761 On ch=1 n=f5 v=0
86761 On ch=1 n=f#5 v=82
86825 On ch=1 n=f#5 v=0
86857 On ch=1 n=a5 v=76
86857 On ch=1 n=f6 v=99
86866 On ch=1 n=b5 v=99
86866 On ch=1 n=d6 v=99
86870 Par ch=1 c=64 v=0
86913 On ch=1 n=a5 v=0
86923 On ch=1 n=g5 v=76
87002 On ch=1 n=g5 v=0
87018 Par ch=1 c=64 v=127
87034 On ch=1 n=d5 v=63
87123 On ch=1 n=d5 v=0
87123 On ch=1 n=b4 v=70
87181 On ch=1 n=g5 v=67
87214 On ch=1 n=b4 v=0
87267 On ch=1 n=f#5 v=73
87307 On ch=1 n=g5 v=0
87335 On ch=1 n=f6 v=0
87342 On ch=1 n=d6 v=0
87342 On ch=1 n=b5 v=0
87342 On ch=1 n=f#6 v=76
87342 On ch=1 n=d5 v=67
87362 On ch=1 n=f#5 v=0
87383 On ch=1 n=b4 v=75
87423 On ch=1 n=d5 v=0
87423 On ch=1 n=f#6 v=0
87478 On ch=1 n=b4 v=0
87522 On ch=1 n=f5 v=95
87527 On ch=1 n=b5 v=81
87527 On ch=1 n=a6 v=86
87527 On ch=1 n=d6 v=82
87567 On ch=1 n=d6 v=0
87574 On ch=1 n=f5 v=0
87594 On ch=1 n=b5 v=0
87601 Par ch=1 c=64 v=0
87661 On ch=1 n=g#6 v=77
87707 On ch=1 n=a6 v=0
87718 On ch=1 n=f5 v=95
87718 On ch=1 n=f6 v=77
87754 On ch=1 n=f5 v=0
87798 On ch=1 n=d6 v=63
87814 On ch=1 n=f6 v=0
87841 On ch=1 n=d6 v=0
87862 On ch=1 n=g#6 v=0
87874 On ch=1 n=f5 v=97
87878 On ch=1 n=b5 v=64
87923 On ch=1 n=f5 v=0
87958 On ch=1 n=b5 v=0
87975 On ch=1 n=d6 v=59
88037 On ch=1 n=f5 v=98
88037 On ch=1 n=f6 v=55
88054 On ch=1 n=d6 v=0
88083 On ch=1 n=f5 v=0
88098 On ch=1 n=g#6 v=72
88154 On ch=1 n=f6 v=0
88191 On ch=1 n=g#6 v=0
88218 On ch=1 n=a6 v=74
88218 On ch=1 n=c#6 v=72
88218 On ch=1 n=b5 v=75
88221 On ch=1 n=e5 v=97
88263 Par ch=1 c=64 v=127
88294 On ch=1 n=b5 v=0
88294 On ch=1 n=c#6 v=0
88322 On ch=1 n=e5 v=0
88337 On ch=1 n=g6 v=69
88383 On ch=1 n=a6 v=0
88398 On ch=1 n=d5 v=80
88408 On ch=1 n=e6 v=70
88448 On ch=1 n=g6 v=0
88459 On ch=1 n=c#5 v=82
88471 On ch=1 n=c#6 v=72
88475 On ch=1 n=d5 v=0
88484 On ch=1 n=e6 v=0
88499 On ch=1 n=c#6 v=0
88531 On ch=1 n=g5 v=89
88531 Par ch=1 c=64 v=0
88551 On ch=1 n=c#5 v=0
88551 On ch=1 n=b5 v=68
88591 On ch=1 n=b5 v=0
88594 On ch=1 n=g5 v=0
88639 On ch=1 n=a#5 v=70
88715 On ch=1 n=a#5 v=0
88720 On ch=1 n=e6 v=68
88759 On ch=1 n=f#5 v=73
88799 On ch=1 n=c#6 v=73
88828 On ch=1 n=f#5 v=0
88858 On ch=1 n=e6 v=0
88864 On ch=1 n=c#6 v=0
88875 On ch=1 n=b2 v=80
88932 On ch=1 n=b2 v=0
88975 On ch=1 n=b3 v=58
88995 On ch=1 n=b3 v=0
88995 Par ch=1 c=64 v=127
89095 On ch=1 n=d4 v=68
89135 On ch=1 n=f#4 v=68
89224 On ch=1 n=d4 v=0
89224 On ch=1 n=b4 v=75
89224 On ch=1 n=d7 v=94
89224 On ch=1 n=f#6 v=90
89228 On ch=1 n=d6 v=84
89251 On ch=1 n=f#4 v=0
89261 On ch=1 n=b4 v=0
89272 On ch=1 n=d6 v=0
89277 On ch=1 n=f#6 v=0
89277 On ch=1 n=d7 v=0
89277 On ch=1 n=d5 v=74
89320 On ch=1 n=d5 v=0
89396 On ch=1 n=f5 v=74
89449 On ch=1 n=f#5 v=84
89456 On ch=1 n=f5 v=0
89525 On ch=1 n=f#5 v=0
89540 On ch=1 n=a5 v=75
89540 On ch=1 n=f6 v=99
89544 On ch=1 n=d6 v=98
89544 On ch=1 n=b5 v=101
89572 Par ch=1 c=64 v=0
89582 On ch=1 n=a5 v=0
89609 On ch=1 n=g5 v=76
89689 On ch=1 n=g5 v=0
89722 On ch=1 n=d5 v=73
89729 Par ch=1 c=64 v=127
89801 On ch=1 n=b4 v=76
89809 On ch=1 n=d5 v=0
89894 On ch=1 n=g5 v=69
89905 On ch=1 n=b4 v=0
89921 On ch=1 n=f6 v=0
89954 On ch=1 n=b5 v=0
89965 On ch=1 n=d6 v=0
89965 On ch=1 n=f#5 v=75
89992 On ch=1 n=g5 v=0
90054 On ch=1 n=d5 v=67
90054 On ch=1 n=f#6 v=80
90068 On ch=1 n=f#5 v=0
90101 On ch=1 n=b4 v=76
90153 On ch=1 n=d5 v=0
90158 On ch=1 n=f#6 v=0
90221 On ch=1 n=d6 v=86
90221 On ch=1 n=a6 v=90
90221 On ch=1 n=b5 v=87
90225 On ch=1 n=f5 v=95
90265 On ch=1 n=b5 v=0
90265 On ch=1 n=d6 v=0
90273 On ch=1 n=f5 v=0
90281 Par ch=1 c=64 v=0
90298 On ch=1 n=b4 v=0
90354 On ch=1 n=g#6 v=66
90402 On ch=1 n=f5 v=97
90409 On ch=1 n=a6 v=0
90413 On ch=1 n=f6 v=64
90445 On ch=1 n=f5 v=0
90489 On ch=1 n=d6 v=63
90506 On ch=1 n=g#6 v=0
90518 On ch=1 n=d6 v=0
90518 On ch=1 n=f6 v=0
90569 On ch=1 n=b5 v=72
90573 On ch=1 n=f5 v=99
90614 On ch=1 n=f5 v=0
90642 On ch=1 n=b5 v=0
90682 On ch=1 n=d6 v=56
90705 On ch=1 n=f6 v=58
90733 On ch=1 n=d6 v=0
90733 On ch=1 n=f5 v=100
90773 On ch=1 n=g#6 v=65
90778 On ch=1 n=f5 v=0
90865 On ch=1 n=f6 v=0
90885 On ch=1 n=g#6 v=0
90894 On ch=1 n=a6 v=65
90898 On ch=1 n=c#6 v=68
90905 On ch=1 n=b5 v=72
90921 On ch=1 n=e5 v=99
90972 On ch=1 n=c#6 v=0
90982 On ch=1 n=b5 v=0
90989 Par ch=1 c=64 v=127
91009 On ch=1 n=e5 v=0
91025 On ch=1 n=g6 v=71
91085 On ch=1 n=a6 v=0
91085 On ch=1 n=e6 v=73
91093 On ch=1 n=d5 v=74
91149 On ch=1 n=g6 v=0
91165 On ch=1 n=c#6 v=75
91173 On ch=1 n=c#5 v=80
91174 On ch=1 n=e6 v=0
91185 On ch=1 n=d5 v=0
91209 On ch=1 n=c#6 v=0
91229 On ch=1 n=c#5 v=0
91238 On ch=1 n=b5 v=66
91238 On ch=1 n=g5 v=85
91272 On ch=1 n=b5 v=0
91298 Par ch=1 c=64 v=0
91313 On ch=1 n=g5 v=0
91313 On ch=1 n=a#5 v=72
91378 On ch=1 n=e6 v=60
91393 On ch=1 n=a#5 v=0
91434 On ch=1 n=f#5 v=76
91452 On ch=1 n=c#6 v=78
91494 On ch=1 n=f#5 v=0
91517 On ch=1 n=e6 v=0
91538 On ch=1 n=c#6 v=0
91593 On ch=1 n=e3 v=84
91625 On ch=1 n=e3 v=0
91682 On ch=1 n=e4 v=56
91682 Par ch=1 c=64 v=127
91705 On ch=1 n=e4 v=0
91793 On ch=1 n=g4 v=70
91838 On ch=1 n=b4 v=70
91921 On ch=1 n=g4 v=0
91929 On ch=1 n=e5 v=74
91932 On ch=1 n=b4 v=0
91946 On ch=1 n=g7 v=105
91949 On ch=1 n=g6 v=87
91949 On ch=1 n=b6 v=84
91954 On ch=1 n=e5 v=0
91982 On ch=1 n=g5 v=71
91989 On ch=1 n=g7 v=0
91994 On ch=1 n=b6 v=0
92018 On ch=1 n=g6 v=0
92045 On ch=1 n=g5 v=0
92094 On ch=1 n=a#5 v=75
92166 On ch=1 n=b5 v=87
92181 On ch=1 n=a#5 v=0
92234 On ch=1 n=b5 v=0
92249 On ch=1 n=d6 v=80
92269 On ch=1 n=a#6 v=99
92278 On ch=1 n=g6 v=99
92282 On ch=1 n=e6 v=94
92293 Par ch=1 c=64 v=0
92309 On ch=1 n=d6 v=0
92354 On ch=1 n=c6 v=76
92413 Par ch=1 c=64 v=127
92433 On ch=1 n=c6 v=0
92441 On ch=1 n=g5 v=73
92518 On ch=1 n=e5 v=81
92533 On ch=1 n=g5 v=0
92609 On ch=1 n=c6 v=76
92619 On ch=1 n=e5 v=0
92663 On ch=1 n=a#6 v=0
92679 On ch=1 n=b5 v=81
92691 On ch=1 n=c6 v=0
92706 On ch=1 n=e6 v=0
92709 On ch=1 n=g6 v=0
92738 On ch=1 n=b6 v=77
92746 On ch=1 n=g5 v=77
92775 On ch=1 n=b5 v=0
92802 On ch=1 n=e5 v=74
92822 On ch=1 n=b6 v=0
92832 On ch=1 n=g5 v=0
92863 On ch=1 n=e5 v=0
92940 On ch=1 n=a#5 v=93
92943 On ch=1 n=g6 v=96
92943 On ch=1 n=d7 v=99
92947 On ch=1 n=e6 v=92
92976 On ch=1 n=g6 v=0
92980 On ch=1 n=e6 v=0
93012 Par ch=1 c=64 v=0
93016 On ch=1 n=a#5 v=0
93063 On ch=1 n=c#7 v=74
93119 On ch=1 n=a#5 v=95
93129 On ch=1 n=a#6 v=73
93144 On ch=1 n=d7 v=0
93176 On ch=1 n=a#5 v=0
93197 On ch=1 n=g6 v=71
93212 On ch=1 n=c#7 v=0
93229 On ch=1 n=g6 v=0
93244 On ch=1 n=a#6 v=0
93273 On ch=1 n=a#5 v=98
93273 On ch=1 n=e6 v=70
93320 On ch=1 n=a#5 v=0
93349 On ch=1 n=e6 v=0
93376 On ch=1 n=g6 v=67
93419 On ch=1 n=a#6 v=65
93440 On ch=1 n=a#5 v=99
93448 On ch=1 n=g6 v=0
93480 On ch=1 n=a#5 v=0
93485 On ch=1 n=c#7 v=70
93564 On ch=1 n=a#6 v=0
93573 On ch=1 n=c#7 v=0
93600 On ch=1 n=d7 v=75
93604 On ch=1 n=e6 v=76
93609 On ch=1 n=f#6 v=72
93612 On ch=1 n=a5 v=105
93672 On ch=1 n=e6 v=0
93680 Par ch=1 c=64 v=127
93683 On ch=1 n=f#6 v=0
93697 On ch=1 n=a5 v=0
93724 On ch=1 n=c7 v=71
93797 On ch=1 n=d7 v=0
93805 On ch=1 n=g5 v=69
93809 On ch=1 n=a6 v=71
93873 On ch=1 n=f#5 v=73
93885 On ch=1 n=g5 v=0
93885 On ch=1 n=c7 v=0
93889 On ch=1 n=f#6 v=73
93900 On ch=1 n=a6 v=0
93916 On ch=1 n=f#6 v=0
93920 On ch=1 n=f#5 v=0
93928 On ch=1 n=c6 v=85
93943 On ch=1 n=e6 v=76
94004 Par ch=1 c=64 v=0
94008 On ch=1 n=e6 v=0
94008 On ch=1 n=c6 v=0
94036 On ch=1 n=d#6 v=75
94097 On ch=1 n=d#6 v=0
94105 On ch=1 n=a6 v=70
94123 On ch=1 n=b5 v=83
94163 On ch=1 n=f#6 v=86
94196 On ch=1 n=b5 v=0
94213 On ch=1 n=a6 v=0
94228 On ch=1 n=f#6 v=0
94276 On ch=1 n=e3 v=90
94336 On ch=1 n=e3 v=0
94364 Par ch=1 c=64 v=127
94380 On ch=1 n=e4 v=69
94412 On ch=1 n=e4 v=0
94525 On ch=1 n=g4 v=61
94544 On ch=1 n=b4 v=69
94576 On ch=1 n=g4 v=0
94620 On ch=1 n=e5 v=71
94640 On ch=1 n=b4 v=0
94664 On ch=1 n=e5 v=0
94669 On ch=1 n=g7 v=94
94669 On ch=1 n=b6 v=88
94669 On ch=1 n=g6 v=91
94697 On ch=1 n=g5 v=74
94716 On ch=1 n=b6 v=0
94725 On ch=1 n=g7 v=0
94736 On ch=1 n=g5 v=0
94757 On ch=1 n=g6 v=0
94805 On ch=1 n=a#5 v=75
94869 On ch=1 n=b5 v=81
94880 On ch=1 n=a#5 v=0
94928 On ch=1 n=b5 v=0
94960 On ch=1 n=d6 v=72
94976 On ch=1 n=g6 v=101
94976 Par ch=1 c=64 v=0
94983 On ch=1 n=e6 v=97
94985 On ch=1 n=a#6 v=94
94996 On ch=1 n=b6 v=66
95012 On ch=1 n=d6 v=0
95044 On ch=1 n=b6 v=0
95064 On ch=1 n=c6 v=69
95109 Par ch=1 c=64 v=127
95133 On ch=1 n=c6 v=0
95140 On ch=1 n=g5 v=73
95205 On ch=1 n=e5 v=76
95220 On ch=1 n=g5 v=0
95288 On ch=1 n=c6 v=74
95300 On ch=1 n=e5 v=0
95360 On ch=1 n=b5 v=78
95372 On ch=1 n=c6 v=0
95382 On ch=1 n=a#6 v=0
95430 On ch=1 n=g6 v=0
95442 On ch=1 n=e6 v=0
95442 On ch=1 n=g5 v=71
95449 On ch=1 n=b6 v=78
95477 On ch=1 n=b5 v=0
95506 On ch=1 n=e5 v=74
95533 On ch=1 n=b6 v=0
95536 On ch=1 n=g5 v=0
95566 On ch=1 n=e5 v=0
95626 On ch=1 n=a#5 v=96
95640 On ch=1 n=d7 v=96
95640 On ch=1 n=g6 v=91
95650 On ch=1 n=e6 v=88
95686 On ch=1 n=g6 v=0
95686 On ch=1 n=a#5 v=0
95690 On ch=1 n=e6 v=0
95714 Par ch=1 c=64 v=0
95766 On ch=1 n=c#7 v=70
95833 On ch=1 n=d7 v=0
95833 On ch=1 n=a#5 v=98
95843 On ch=1 n=a#6 v=70
95877 On ch=1 n=a#5 v=0
95902 On ch=1 n=g6 v=72
95919 On ch=1 n=c#7 v=0
95947 On ch=1 n=g6 v=0
95950 On ch=1 n=a#6 v=0
95979 On ch=1 n=e6 v=74
95998 On ch=1 n=a#5 v=99
96030 On ch=1 n=a#5 v=0
96057 On ch=1 n=e6 v=0
96067 On ch=1 n=g6 v=64
96127 On ch=1 n=a#6 v=67
96143 On ch=1 n=g6 v=0
96153 On ch=1 n=a#5 v=100
96184 On ch=1 n=a#5 v=0
96184 On ch=1 n=c#7 v=67
96256 On ch=1 n=a#6 v=0
96284 On ch=1 n=c#7 v=0
96304 On ch=1 n=f#6 v=73
96304 On ch=1 n=e6 v=73
96304 On ch=1 n=d7 v=71
96313 On ch=1 n=a5 v=102
96348 On ch=1 n=f#6 v=0
96381 On ch=1 n=e6 v=0
96393 On ch=1 n=a5 v=0
96393 Par ch=1 c=64 v=127
96411 On ch=1 n=c7 v=73
96485 On ch=1 n=d7 v=0
96497 On ch=1 n=a6 v=71
96497 On ch=1 n=g5 v=77
96553 On ch=1 n=f#5 v=80
96560 On ch=1 n=c7 v=0
96568 On ch=1 n=f#6 v=72
96573 On ch=1 n=g5 v=0
96584 On ch=1 n=a6 v=0
96616 On ch=1 n=f#6 v=0
96620 On ch=1 n=f#5 v=0
96628 On ch=1 n=c6 v=87
96633 On ch=1 n=e6 v=73
96680 On ch=1 n=e6 v=0
96690 On ch=1 n=c6 v=0
96721 On ch=1 n=d#6 v=80
96777 Par ch=1 c=64 v=0
96785 On ch=1 n=d#6 v=0
96809 On ch=1 n=a6 v=78
96813 On ch=1 n=b5 v=81
96889 On ch=1 n=b5 v=0
96889 On ch=1 n=f#6 v=80
96898 On ch=1 n=a6 v=0
96921 On ch=1 n=f#6 v=0
97030 On ch=1 n=g6 v=111
97037 On ch=1 n=e5 v=116
97045 On ch=1 n=g7 v=108
97098 Par ch=1 c=64 v=127
97229 On ch=1 n=e7 v=66
97241 On ch=1 n=g6 v=0
97301 On ch=1 n=c#7 v=77
97318 On ch=1 n=g7 v=0
97361 On ch=1 n=a#6 v=76
97365 On ch=1 n=e7 v=0
97401 On ch=1 n=c#7 v=0
97428 On ch=1 n=g6 v=75
97430 On ch=1 n=a#6 v=0
97453 On ch=1 n=g6 v=0
97498 On ch=1 n=e5 v=0
97550 On ch=1 n=e6 v=69
97581 On ch=1 n=b4 v=69
97597 On ch=1 n=c#6 v=73
97641 On ch=1 n=e6 v=0
97650 On ch=1 n=a#5 v=70
97650 On ch=1 n=c#5 v=78
97669 On ch=1 n=c#6 v=0
97669 Par ch=1 c=64 v=0
97684 On ch=1 n=b4 v=0
97688 On ch=1 n=d5 v=69
97714 On ch=1 n=c#5 v=0
97714 On ch=1 n=a#5 v=0
97734 On ch=1 n=g5 v=85
97741 On ch=1 n=b5 v=87
97745 On ch=1 n=d5 v=0
97745 On ch=1 n=e5 v=81
97790 On ch=1 n=g5 v=0
97809 On ch=1 n=b5 v=0
97834 On ch=1 n=d5 v=65
97838 Par ch=1 c=64 v=127
97849 On ch=1 n=e5 v=0
97921 On ch=1 n=b4 v=75
97945 On ch=1 n=g4 v=77
97961 On ch=1 n=d5 v=0
97998 On ch=1 n=b4 v=0
98028 On ch=1 n=g4 v=0
98117 On ch=1 n=e4 v=64
98150 On ch=1 n=d4 v=63
98178 On ch=1 n=e4 v=0
98178 On ch=1 n=d#7 v=71
98208 On ch=1 n=b3 v=72
98217 On ch=1 n=e7 v=64
98250 On ch=1 n=d4 v=0
98277 On ch=1 n=f#7 v=74
98281 On ch=1 n=d#7 v=0
98291 On ch=1 n=b3 v=0
98322 On ch=1 n=e7 v=0
98322 On ch=1 n=e3 v=94
98338 On ch=1 n=f#7 v=0
98382 On ch=1 n=g6 v=107
98386 On ch=1 n=g7 v=104
98518 On ch=1 n=e3 v=0
98538 On ch=1 n=e7 v=77
98565 On ch=1 n=g6 v=0
98607 On ch=1 n=c#7 v=80
98667 On ch=1 n=a#6 v=67
98682 On ch=1 n=g7 v=0
98694 On ch=1 n=e7 v=0
98714 On ch=1 n=c#7 v=0
98742 On ch=1 n=a#6 v=0
98742 On ch=1 n=g6 v=66
98775 On ch=1 n=g6 v=0
98886 On ch=1 n=e6 v=59
98942 On ch=1 n=c#6 v=64
98962 On ch=1 n=b4 v=70
98970 On ch=1 n=e6 v=0
98995 On ch=1 n=a#5 v=65
99007 On ch=1 n=c#6 v=0
99010 On ch=1 n=c#5 v=74
99046 On ch=1 n=b4 v=0
99054 On ch=1 n=a#5 v=0
99071 On ch=1 n=d5 v=62
99071 Par ch=1 c=64 v=0
99086 On ch=1 n=c#5 v=0
99102 On ch=1 n=g5 v=76
99106 On ch=1 n=b5 v=83
99118 On ch=1 n=d5 v=0
99118 On ch=1 n=e5 v=79
99158 On ch=1 n=g5 v=0
99187 On ch=1 n=b5 v=0
99205 On ch=1 n=e5 v=0
99205 On ch=1 n=d5 v=71
99222 Par ch=1 c=64 v=127
99307 On ch=1 n=b4 v=73
99326 On ch=1 n=d5 v=0
99338 On ch=1 n=g4 v=68
99382 On ch=1 n=b4 v=0
99385 On ch=1 n=g4 v=0
99486 On ch=1 n=e4 v=67
99551 On ch=1 n=d4 v=74
99566 On ch=1 n=e4 v=0
99570 On ch=1 n=a#7 v=72
99598 On ch=1 n=b7 v=70
99606 On ch=1 n=b3 v=69
99634 On ch=1 n=d4 v=0
99665 On ch=1 n=a#7 v=0
99665 On ch=1 n=c#8 v=71
99674 On ch=1 n=g3 v=72
99682 On ch=1 n=b3 v=0
99702 On ch=1 n=b7 v=0
99707 On ch=1 n=c#8 v=0
99722 On ch=1 n=g3 v=0
99758 On ch=1 n=b3 v=100
99768 Par ch=1 c=64 v=0
99768 On ch=1 n=d8 v=109
99768 On ch=1 n=d7 v=104
99903 On ch=1 n=b7 v=78
99911 On ch=1 n=d7 v=0
99936 On ch=1 n=b3 v=0
99936 Par ch=1 c=64 v=127
99967 On ch=1 n=g#7 v=84
100022 On ch=1 n=f7 v=77
100032 On ch=1 n=d8 v=0
100048 On ch=1 n=b7 v=0
100067 On ch=1 n=g#7 v=0
100092 On ch=1 n=f7 v=0
100099 On ch=1 n=d7 v=73
100124 On ch=1 n=d7 v=0
100211 On ch=1 n=b6 v=71
100284 On ch=1 n=g#6 v=72
100284 On ch=1 n=f#5 v=72
100322 On ch=1 n=b6 v=0
100332 On ch=1 n=g#5 v=72
100341 On ch=1 n=f6 v=68
100355 On ch=1 n=g#6 v=0
100365 On ch=1 n=f#5 v=0
100372 On ch=1 n=a5 v=69
100388 On ch=1 n=f6 v=0
100388 On ch=1 n=g#5 v=0
100396 Par ch=1 c=64 v=0
100421 On ch=1 n=a5 v=0
100424 On ch=1 n=b5 v=76
100432 On ch=1 n=d6 v=82
100432 On ch=1 n=f#6 v=88
100525 On ch=1 n=d6 v=0
100525 On ch=1 n=a5 v=72
100541 On ch=1 n=b5 v=0
100552 Par ch=1 c=64 v=127
100568 On ch=1 n=f#6 v=0
100585 On ch=1 n=f#5 v=73
100612 On ch=1 n=d5 v=69
100629 On ch=1 n=a5 v=0
100656 On ch=1 n=f#5 v=0
100679 On ch=1 n=d5 v=0
100761 On ch=1 n=b4 v=72
100828 On ch=1 n=a4 v=62
100838 On ch=1 n=b4 v=0
100866 On ch=1 n=f#4 v=73
100893 On ch=1 n=a#7 v=68
100909 On ch=1 n=a4 v=0
100938 On ch=1 n=b7 v=71
100969 On ch=1 n=f#4 v=0
100978 On ch=1 n=c#8 v=73
100990 On ch=1 n=a#7 v=0
101010 On ch=1 n=b3 v=94
101018 On ch=1 n=c#8 v=0
101022 On ch=1 n=b7 v=0
101058 Par ch=1 c=64 v=0
101093 On ch=1 n=d8 v=115
101093 On ch=1 n=d7 v=106
101226 Par ch=1 c=64 v=127
101226 On ch=1 n=b7 v=80
101238 On ch=1 n=d7 v=0
101269 On ch=1 n=b3 v=0
101293 On ch=1 n=g#7 v=80
101356 On ch=1 n=d8 v=0
101356 On ch=1 n=f7 v=76
101373 On ch=1 n=b7 v=0
101389 On ch=1 n=g#7 v=0
101418 On ch=1 n=f7 v=0
101418 On ch=1 n=d7 v=75
101449 On ch=1 n=d7 v=0
101538 On ch=1 n=b6 v=71
101605 On ch=1 n=g#6 v=72
101613 On ch=1 n=g5 v=59
101637 On ch=1 n=g#5 v=67
101645 On ch=1 n=b6 v=0
101673 On ch=1 n=g5 v=0
101673 On ch=1 n=f6 v=71
101678 On ch=1 n=g#6 v=0
101685 On ch=1 n=g#5 v=0
101685 On ch=1 n=a5 v=73
101710 Par ch=1 c=64 v=0
101736 On ch=1 n=a5 v=0
101757 On ch=1 n=b5 v=72
101757 On ch=1 n=d6 v=82
101758 On ch=1 n=f#6 v=84
101798 On ch=1 n=f6 v=0
101813 On ch=1 n=d6 v=0
101829 On ch=1 n=a5 v=68
101858 On ch=1 n=f#6 v=0
101865 On ch=1 n=b5 v=0
101889 Par ch=1 c=64 v=127
101909 On ch=1 n=f#5 v=75
101949 On ch=1 n=d5 v=66
101958 On ch=1 n=a5 v=0
101989 On ch=1 n=f#5 v=0
101998 On ch=1 n=d5 v=0
102093 On ch=1 n=b4 v=78
102161 On ch=1 n=a4 v=64
102165 On ch=1 n=b4 v=0
102182 On ch=1 n=a#7 v=71
102189 On ch=1 n=f#4 v=73
102241 On ch=1 n=a4 v=0
102249 On ch=1 n=b7 v=78
102289 On ch=1 n=f#4 v=0
102293 On ch=1 n=a#7 v=0
102298 On ch=1 n=c#8 v=73
102305 On ch=1 n=b3 v=96
102336 On ch=1 n=b7 v=0
102346 On ch=1 n=c#8 v=0
102394 Par ch=1 c=64 v=0
102422 On ch=1 n=d8 v=109
102422 On ch=1 n=d7 v=107
102534 On ch=1 n=b7 v=78
102554 On ch=1 n=d7 v=0
102573 Par ch=1 c=64 v=127
102619 On ch=1 n=g#7 v=78
102670 On ch=1 n=f7 v=81
102675 On ch=1 n=d8 v=0
102686 On ch=1 n=b7 v=0
102706 On ch=1 n=g#7 v=0
102739 On ch=1 n=f7 v=0
102739 On ch=1 n=d7 v=76
102754 On ch=1 n=d7 v=0
102833 On ch=1 n=b6 v=75
102906 On ch=1 n=g#6 v=77
102963 On ch=1 n=f6 v=75
102966 On ch=1 n=b6 v=0
103006 On ch=1 n=g#6 v=0
103010 On ch=1 n=b3 v=0
103014 On ch=1 n=f6 v=0
103039 On ch=1 n=a#3 v=84
103039 On ch=1 n=d6 v=71
103058 On ch=1 n=d6 v=0
103066 Par ch=1 c=64 v=0
103134 On ch=1 n=b5 v=72
103214 On ch=1 n=g#5 v=68
103242 On ch=1 n=b5 v=0
103275 On ch=1 n=f5 v=68
103286 Par ch=1 c=64 v=127
103314 On ch=1 n=g#5 v=0
103339 On ch=1 n=f5 v=0
103350 On ch=1 n=a#3 v=0
103366 On ch=1 n=g#3 v=80
103366 On ch=1 n=d5 v=66
103395 Par ch=1 c=67 v=127
103407 On ch=1 n=d5 v=0
103483 On ch=1 n=b4 v=64
103559 On ch=1 n=g#4 v=64
103574 On ch=1 n=b4 v=0
103635 On ch=1 n=f4 v=64
103650 On ch=1 n=g#4 v=0
103683 On ch=1 n=f4 v=0
103806 On ch=1 n=g#3 v=0
103813 On ch=1 n=f#3 v=64
103823 On ch=1 n=d#4 v=66
103859 On ch=1 n=d#4 v=0
103903 On ch=1 n=f#4 v=55
103939 On ch=1 n=f#3 v=0
103946 On ch=1 n=a#4 v=60
103970 On ch=1 n=f#4 v=0
103994 On ch=1 n=a#4 v=0
104013 On ch=1 n=d5 v=64
104030 Par ch=1 c=67 v=0
104087 On ch=1 n=d5 v=0
104126 On ch=1 n=d#5 v=55
104155 On ch=1 n=d#5 v=0
104206 On ch=1 n=f#4 v=63
104250 Par ch=1 c=64 v=0
104278 On ch=1 n=f#4 v=0
104334 On ch=1 n=g#4 v=44
104334 On ch=1 n=f#5 v=66
104335 On ch=1 n=a#5 v=68
104354 On ch=1 n=a#4 v=59
104390 On ch=1 n=g#4 v=0
104395 On ch=1 n=a#4 v=0
104403 On ch=1 n=c#5 v=62
104499 On ch=1 n=b4 v=64
104519 On ch=1 n=c#5 v=0
104566 On ch=1 n=g#4 v=64
104610 On ch=1 n=f#5 v=0
104610 On ch=1 n=b5 v=68
104615 On ch=1 n=a#5 v=0
104619 On ch=1 n=b4 v=0
104627 On ch=1 n=f4 v=57
104634 On ch=1 n=g#5 v=57
104654 On ch=1 n=f4 v=0
104654 On ch=1 n=b5 v=0
104654 On ch=1 n=g#4 v=0
104666 On ch=1 n=g#5 v=0
104695 On ch=1 n=d4 v=64
104759 On ch=1 n=d4 v=0
104774 On ch=1 n=f4 v=52
104802 Par ch=1 c=67 v=127
104834 On ch=1 n=g#4 v=46
104879 On ch=1 n=f4 v=0
104914 On ch=1 n=b3 v=62
104915 On ch=1 n=b4 v=49
104922 On ch=1 n=g#3 v=55
104955 On ch=1 n=b4 v=0
104955 On ch=1 n=g#4 v=0
105035 Par ch=1 c=64 v=127
105050 On ch=1 n=d#4 v=51
105095 On ch=1 n=d#4 v=0
105106 Par ch=1 c=67 v=0
105134 On ch=1 n=f#4 v=65
105174 On ch=1 n=a#4 v=64
105195 On ch=1 n=b3 v=0
105206 On ch=1 n=f#3 v=58
105218 On ch=1 n=f#4 v=0
105218 On ch=1 n=a#3 v=44
105222 On ch=1 n=g#3 v=0
105233 On ch=1 n=a#4 v=0
105250 On ch=1 n=f#3 v=0
105250 On ch=1 n=d5 v=64
105259 On ch=1 n=a#3 v=0
105279 Par ch=1 c=64 v=0
105319 On ch=1 n=d5 v=0
105339 On ch=1 n=d#5 v=67
105382 On ch=1 n=d#5 v=0
105446 On ch=1 n=f#4 v=57
105526 On ch=1 n=f#4 v=0
105543 On ch=1 n=f#5 v=73
105550 On ch=1 n=g#4 v=57
105555 On ch=1 n=a#5 v=65
105602 On ch=1 n=g#4 v=0
105606 On ch=1 n=a#4 v=48
105630 On ch=1 n=c#5 v=57
105639 On ch=1 n=a#4 v=0
105726 On ch=1 n=b4 v=68
105738 On ch=1 n=c#5 v=0
105799 On ch=1 n=g#4 v=72
105810 On ch=1 n=a#5 v=0
105814 On ch=1 n=g#5 v=70
105826 On ch=1 n=f#5 v=0
105829 On ch=1 n=b5 v=72
105839 On ch=1 n=b4 v=0
105856 On ch=1 n=g#5 v=0
105860 On ch=1 n=b5 v=0
105860 On ch=1 n=f4 v=58
105887 On ch=1 n=g#4 v=0
105895 On ch=1 n=f4 v=0
105931 On ch=1 n=d4 v=61
105976 On ch=1 n=d4 v=0
105999 On ch=1 n=f4 v=55
106067 On ch=1 n=g#4 v=49
106123 On ch=1 n=g#3 v=55
106123 On ch=1 n=b3 v=55
106133 On ch=1 n=f4 v=0
106144 On ch=1 n=b4 v=58
106197 On ch=1 n=g#4 v=0
106209 On ch=1 n=b4 v=0
106269 On ch=1 n=f4 v=60
106320 On ch=1 n=f4 v=0
106329 On ch=1 n=a4 v=64
106360 On ch=1 n=g#3 v=0
106389 On ch=1 n=b3 v=0
106389 On ch=1 n=a3 v=59
106389 On ch=1 n=c4 v=57
106409 On ch=1 n=c5 v=63
106437 On ch=1 n=c4 v=0
106444 On ch=1 n=a4 v=0
106448 On ch=1 n=a3 v=0
106460 On ch=1 n=e5 v=62
106527 On ch=1 n=f5 v=68
106552 On ch=1 n=c5 v=0
106577 On ch=1 n=e5 v=0
106600 On ch=1 n=f5 v=0
106610 On ch=1 n=a4 v=64
106717 On ch=1 n=a4 v=0
106717 On ch=1 n=a#4 v=62
106726 On ch=1 n=c6 v=73
106737 On ch=1 n=a5 v=66
106770 On ch=1 n=c5 v=73
106786 On ch=1 n=a#4 v=0
106864 On ch=1 n=c5 v=0
106864 On ch=1 n=e5 v=76
106940 On ch=1 n=d5 v=70
106954 On ch=1 n=c6 v=0
106981 On ch=1 n=a5 v=0
107018 On ch=1 n=b5 v=78
107021 On ch=1 n=d6 v=79
107025 On ch=1 n=b4 v=76
107034 On ch=1 n=e5 v=0
107041 On ch=1 n=d6 v=0
107077 On ch=1 n=b5 v=0
107087 On ch=1 n=g#4 v=72
107102 On ch=1 n=d5 v=0
107114 On ch=1 n=b4 v=0
107154 On ch=1 n=g#4 v=0
107171 On ch=1 n=f4 v=62
107246 On ch=1 n=f4 v=0
107250 On ch=1 n=g#4 v=58
107323 On ch=1 n=b4 v=53
107341 On ch=1 n=b3 v=66
107341 On ch=1 n=d4 v=58
107366 On ch=1 n=g#4 v=0
107381 On ch=1 n=d5 v=55
107434 On ch=1 n=b4 v=0
107478 On ch=1 n=f4 v=63
107507 On ch=1 n=d5 v=0
107534 On ch=1 n=f4 v=0
107554 On ch=1 n=a4 v=69
107623 On ch=1 n=d4 v=0
107627 On ch=1 n=b3 v=0
107627 On ch=1 n=c4 v=53
107627 On ch=1 n=a3 v=54
107642 On ch=1 n=c5 v=59
107675 On ch=1 n=c4 v=0
107690 On ch=1 n=a3 v=0
107690 On ch=1 n=a4 v=0
107694 On ch=1 n=e5 v=66
107770 On ch=1 n=f5 v=71
107774 On ch=1 n=c5 v=0
107810 On ch=1 n=e5 v=0
107843 On ch=1 n=f5 v=0
107843 On ch=1 n=a4 v=66
107947 On ch=1 n=c6 v=66
107947 On ch=1 n=a5 v=63
107950 On ch=1 n=a#4 v=65
107978 On ch=1 n=a4 v=0
108007 On ch=1 n=c5 v=71
108022 On ch=1 n=a#4 v=0
108102 On ch=1 n=e5 v=76
108110 On ch=1 n=c5 v=0
108143 On ch=1 n=c6 v=0
108182 On ch=1 n=a5 v=0
108183 On ch=1 n=d5 v=69
108230 On ch=1 n=d6 v=72
108230 On ch=1 n=b5 v=68
108271 On ch=1 n=d6 v=0
108271 On ch=1 n=e5 v=0
108271 On ch=1 n=b4 v=73
108275 On ch=1 n=b5 v=0
108327 On ch=1 n=g#4 v=68
108334 On ch=1 n=d5 v=0
108338 On ch=1 n=b4 v=0
108363 On ch=1 n=g#4 v=0
108398 On ch=1 n=f4 v=58
108454 On ch=1 n=f4 v=0
108464 On ch=1 n=g#4 v=66
108540 On ch=1 n=b4 v=49
108555 On ch=1 n=b3 v=58
108555 On ch=1 n=d4 v=59
108565 On ch=1 n=g#4 v=0
108584 On ch=1 n=d5 v=58
108628 On ch=1 n=b4 v=0
108648 On ch=1 n=d5 v=0
108671 Par ch=1 c=64 v=127
108704 On ch=1 n=g#4 v=69
108748 On ch=1 n=g#4 v=0
108784 On ch=1 n=c5 v=70
108836 On ch=1 n=d#5 v=55
108844 On ch=1 n=b3 v=0
108852 On ch=1 n=d4 v=0
108855 On ch=1 n=c4 v=60
108861 On ch=1 n=d#4 v=59
108869 On ch=1 n=c5 v=0
108892 On ch=1 n=d#5 v=0
108900 On ch=1 n=d#4 v=0
108900 On ch=1 n=c4 v=0
108900 Par ch=1 c=64 v=0
108908 On ch=1 n=g5 v=69
108972 On ch=1 n=g5 v=0
109004 On ch=1 n=g#5 v=71
109064 On ch=1 n=g#5 v=0
109092 On ch=1 n=c5 v=71
109185 On ch=1 n=c#5 v=66
109196 On ch=1 n=c5 v=0
109196 On ch=1 n=c6 v=67
109201 On ch=1 n=d#6 v=67
109248 On ch=1 n=d#5 v=58
109275 On ch=1 n=c#5 v=0
109297 On ch=1 n=d#5 v=0
109297 On ch=1 n=f#5 v=62
109400 On ch=1 n=e5 v=67
109480 On ch=1 n=f#5 v=0
109491 On ch=1 n=c#5 v=70
109495 On ch=1 n=c6 v=0
109501 On ch=1 n=e6 v=78
109505 On ch=1 n=c#6 v=75
109512 On ch=1 n=d#6 v=0
109524 On ch=1 n=e6 v=0
109534 On ch=1 n=c#6 v=0
109538 On ch=1 n=a#4 v=69
109549 On ch=1 n=e5 v=0
109568 On ch=1 n=c#5 v=0
109594 On ch=1 n=a#4 v=0
109629 On ch=1 n=g4 v=49
109674 On ch=1 n=g4 v=0
109714 On ch=1 n=a#4 v=71
109778 On ch=1 n=a#4 v=0
109801 On ch=1 n=e4 v=64
109809 On ch=1 n=c#5 v=60
109832 On ch=1 n=c#4 v=10
109865 On ch=1 n=c4 v=35
109892 On ch=1 n=c#5 v=0
109921 On ch=1 n=c4 v=0
109961 Par ch=1 c=64 v=127
109981 On ch=1 n=g#4 v=63
109985 On ch=1 n=c#4 v=0
110025 On ch=1 n=g#4 v=0
110054 On ch=1 n=c5 v=65
110105 On ch=1 n=d#5 v=60
110141 On ch=1 n=c4 v=52
110145 On ch=1 n=c5 v=0
110155 On ch=1 n=d#4 v=55
110170 On ch=1 n=e4 v=0
110170 On ch=1 n=g5 v=71
110178 On ch=1 n=d#5 v=0
110189 On ch=1 n=c4 v=0
110206 On ch=1 n=d#4 v=0
110226 Par ch=1 c=64 v=0
110235 On ch=1 n=g5 v=0
110266 On ch=1 n=g#5 v=71
110335 On ch=1 n=g#5 v=0
110355 On ch=1 n=c5 v=70
110454 On ch=1 n=c5 v=0
110458 On ch=1 n=c#5 v=64
110469 On ch=1 n=d#6 v=74
110479 On ch=1 n=c6 v=64
110508 On ch=1 n=d#5 v=56
110539 On ch=1 n=c#5 v=0
110568 On ch=1 n=d#5 v=0
110568 On ch=1 n=f#5 v=64
110647 On ch=1 n=e5 v=73
110719 On ch=1 n=c6 v=0
110748 On ch=1 n=c#5 v=75
110748 On ch=1 n=e6 v=78
110763 On ch=1 n=c#6 v=71
110767 On ch=1 n=f#5 v=0
110767 On ch=1 n=d#6 v=0
110783 On ch=1 n=e6 v=0
110787 On ch=1 n=e5 v=0
110795 On ch=1 n=a#4 v=74
110799 On ch=1 n=c#6 v=0
110823 On ch=1 n=c#5 v=0
110856 On ch=1 n=a#4 v=0
110883 On ch=1 n=g4 v=59
110943 On ch=1 n=g4 v=0
110966 On ch=1 n=a#4 v=69
111036 On ch=1 n=c#5 v=47
111072 On ch=1 n=a#4 v=0
111087 On ch=1 n=e4 v=65
111092 On ch=1 n=e5 v=60
111096 On ch=1 n=c#4 v=58
111139 On ch=1 n=c#5 v=0
111168 On ch=1 n=e5 v=0
111216 Par ch=1 c=64 v=127
111268 On ch=1 n=g#4 v=73
111379 On ch=1 n=g#4 v=0
111423 On ch=1 n=c5 v=58
111479 On ch=1 n=c4 v=57
111488 On ch=1 n=d#4 v=56
111503 On ch=1 n=e4 v=0
111512 On ch=1 n=c#4 v=0
111515 On ch=1 n=c5 v=0
111532 On ch=1 n=d#4 v=0
111540 On ch=1 n=c4 v=0
111547 On ch=1 n=g#5 v=65
111587 On ch=1 n=g#5 v=0
111676 On ch=1 n=a5 v=73
111751 On ch=1 n=a5 v=0
111766 On ch=1 n=c#6 v=75
111811 On ch=1 n=e6 v=80
111811 On ch=1 n=c#4 v=84
111819 On ch=1 n=a4 v=88
111819 On ch=1 n=e4 v=77
111867 On ch=1 n=c#6 v=0
111872 Par ch=1 c=64 v=0
111880 On ch=1 n=a6 v=67
111883 On ch=1 n=e6 v=0
111907 On ch=1 n=a6 v=0
112028 On ch=1 n=c5 v=91
112043 On ch=1 n=e4 v=0
112048 Par ch=1 c=64 v=127
112155 On ch=1 n=c#4 v=0
112165 On ch=1 n=d#5 v=72
112176 On ch=1 n=c5 v=0
112203 On ch=1 n=d#4 v=77
112213 On ch=1 n=f#4 v=71
112217 On ch=1 n=a4 v=0
112217 On ch=1 n=f#5 v=71
112257 On ch=1 n=f#4 v=0
112273 On ch=1 n=d#5 v=0
112282 On ch=1 n=d#4 v=0
112282 On ch=1 n=c6 v=68
112289 On ch=1 n=f#5 v=0
112333 On ch=1 n=c6 v=0
112409 On ch=1 n=c#6 v=88
112453 Par ch=1 c=64 v=0
112473 On ch=1 n=f6 v=77
112483 On ch=1 n=c#6 v=0
112522 On ch=1 n=f4 v=96
112530 On ch=1 n=g#4 v=89
112539 On ch=1 n=c#5 v=103
112539 On ch=1 n=g#6 v=75
112586 On ch=1 n=c#7 v=91
112617 On ch=1 n=g#6 v=0
112617 On ch=1 n=f6 v=0
112627 Par ch=1 c=64 v=127
112644 On ch=1 n=c#7 v=0
112691 On ch=1 n=g#4 v=0
112747 On ch=1 n=d5 v=94
112771 On ch=1 n=f4 v=0
112791 On ch=1 n=c#5 v=0
112871 On ch=1 n=f#5 v=71
112883 On ch=1 n=d5 v=0
112927 On ch=1 n=f#4 v=89
112927 On ch=1 n=a4 v=89
112948 On ch=1 n=f#5 v=0
112951 On ch=1 n=a5 v=62
112980 On ch=1 n=a4 v=0
112987 On ch=1 n=a5 v=0
113003 On ch=1 n=e6 v=71
113007 On ch=1 n=f#4 v=0
113031 On ch=1 n=e6 v=0
113123 Par ch=1 c=64 v=0
113123 On ch=1 n=f6 v=98
113196 On ch=1 n=f6 v=0
113211 On ch=1 n=g#6 v=83
113247 On ch=1 n=b6 v=87
113247 On ch=1 n=g#4 v=93
113256 On ch=1 n=f5 v=95
113256 On ch=1 n=b4 v=87
113291 On ch=1 n=g#6 v=0
113303 On ch=1 n=b6 v=0
113303 On ch=1 n=f7 v=78
113327 On ch=1 n=f7 v=0
113371 Par ch=1 c=64 v=127
113455 On ch=1 n=b4 v=0
113480 On ch=1 n=f#5 v=106
113607 On ch=1 n=a#5 v=78
113617 On ch=1 n=f#5 v=0
113661 On ch=1 n=g#4 v=0
113664 On ch=1 n=f5 v=0
113673 On ch=1 n=c#5 v=82
113673 On ch=1 n=a#4 v=81
113685 On ch=1 n=c#6 v=69
113721 On ch=1 n=f#6 v=82
113725 On ch=1 n=c#5 v=0
113732 On ch=1 n=a#5 v=0
113733 On ch=1 n=a#4 v=0
113748 On ch=1 n=c#6 v=0
113773 On ch=1 n=f#6 v=0
113856 On ch=1 n=g6 v=98
113913 Par ch=1 c=64 v=0
113928 On ch=1 n=b6 v=87
113931 On ch=1 n=g6 v=0
113988 On ch=1 n=g5 v=99
113993 On ch=1 n=b4 v=98
113993 On ch=1 n=d5 v=92
113993 On ch=1 n=d7 v=88
114040 On ch=1 n=b6 v=0
114044 On ch=1 n=g7 v=86
114061 On ch=1 n=d7 v=0
114104 On ch=1 n=g7 v=0
114171 Par ch=1 c=64 v=127
114211 On ch=1 n=a#5 v=105
114288 On ch=1 n=d5 v=0
114317 On ch=1 n=b4 v=0
114328 On ch=1 n=c#6 v=77
114332 On ch=1 n=a#5 v=0
114364 On ch=1 n=g5 v=0
114376 On ch=1 n=e5 v=76
114391 On ch=1 n=c#5 v=77
114408 On ch=1 n=e6 v=74
114433 On ch=1 n=e5 v=0
114451 On ch=1 n=c#5 v=0
114451 On ch=1 n=c#6 v=0
114468 On ch=1 n=e6 v=0
114468 On ch=1 n=a#6 v=82
114512 On ch=1 n=a#6 v=0
114588 On ch=1 n=b6 v=87
114621 Par ch=1 c=64 v=0
114677 On ch=1 n=d#7 v=89
114708 On ch=1 n=f#5 v=89
114728 On ch=1 n=f#7 v=89
114731 On ch=1 n=b5 v=96
114731 On ch=1 n=d#5 v=92
114784 On ch=1 n=b7 v=91
114794 On ch=1 n=d#7 v=0
114809 On ch=1 n=b6 v=0
114817 On ch=1 n=f#7 v=0
114842 Par ch=1 c=64 v=127
114854 On ch=1 n=b7 v=0
114938 On ch=1 n=c6 v=94
114988 On ch=1 n=b5 v=0
115010 On ch=1 n=c6 v=0
115021 On ch=1 n=d#5 v=0
115021 On ch=1 n=f#5 v=0
115029 On ch=1 n=e6 v=81
115097 On ch=1 n=g5 v=82
115097 On ch=1 n=e5 v=84
115108 On ch=1 n=g6 v=70
115141 On ch=1 n=e6 v=0
115148 On ch=1 n=c7 v=88
115158 On ch=1 n=g6 v=0
115158 On ch=1 n=g5 v=0
115169 On ch=1 n=e5 v=0
115189 On ch=1 n=c7 v=0
115278 On ch=1 n=d#7 v=95
115357 On ch=1 n=f#7 v=83
115382 On ch=1 n=d#7 v=0
115389 Par ch=1 c=64 v=0
115405 On ch=1 n=a7 v=81
115434 On ch=1 n=d#6 v=95
115434 On ch=1 n=f#5 v=95
115441 On ch=1 n=a5 v=83
115489 On ch=1 n=a#7 v=89
115497 On ch=1 n=f#7 v=0
115497 On ch=1 n=d#8 v=86
115518 On ch=1 n=a#7 v=0
115530 On ch=1 n=a7 v=0
115538 On ch=1 n=d#8 v=0
115561 On ch=1 n=a5 v=0
115570 On ch=1 n=d#6 v=0
115570 Par ch=1 c=64 v=127
115581 On ch=1 n=f#5 v=0
115629 On ch=1 n=e6 v=97
115741 On ch=1 n=g#6 v=82
115751 On ch=1 n=e6 v=0
115774 On ch=1 n=b6 v=73
115786 On ch=1 n=g#5 v=79
115794 On ch=1 n=b5 v=77
115839 On ch=1 n=b5 v=0
115839 On ch=1 n=g#5 v=0
115854 On ch=1 n=g#6 v=0
115891 On ch=1 n=b6 v=0
115902 On ch=1 n=e7 v=61
115905 Par ch=1 c=64 v=0
115962 On ch=1 n=c6 v=99
115966 On ch=1 n=e6 v=91
115966 On ch=1 n=a5 v=98
115978 On ch=1 n=f6 v=74
116027 On ch=1 n=a5 v=0
116027 On ch=1 n=c6 v=0
116034 On ch=1 n=e6 v=0
116074 On ch=1 n=f6 v=0
116074 On ch=1 n=a6 v=85
116086 Par ch=1 c=64 v=127
116111 On ch=1 n=e7 v=0
116162 On ch=1 n=c7 v=78
116165 On ch=1 n=a4 v=95
116205 On ch=1 n=a6 v=0
116215 On ch=1 n=a4 v=0
116251 On ch=1 n=c7 v=0
116251 On ch=1 n=f7 v=78
116262 Par ch=1 c=64 v=0
116279 On ch=1 n=f7 v=0
116342 On ch=1 n=d6 v=100
116347 On ch=1 n=b5 v=101
116351 On ch=1 n=g#6 v=89
116407 On ch=1 n=d6 v=0
116410 On ch=1 n=b5 v=0
116425 Par ch=1 c=64 v=127
116454 On ch=1 n=b6 v=77
116458 On ch=1 n=g#6 v=0
116527 On ch=1 n=d7 v=70
116541 On ch=1 n=b4 v=98
116545 Par ch=1 c=64 v=0
116594 On ch=1 n=b4 v=0
116606 On ch=1 n=b6 v=0
116638 On ch=1 n=g#7 v=83
116648 On ch=1 n=d7 v=0
116663 Par ch=1 c=64 v=127
116739 On ch=1 n=a6 v=91
116739 On ch=1 n=c6 v=99
116743 On ch=1 n=e6 v=97
116759 On ch=1 n=g#7 v=0
116769 Par ch=1 c=64 v=0
116796 On ch=1 n=e6 v=0
116801 On ch=1 n=c6 v=0
116824 On ch=1 n=a6 v=0
116839 On ch=1 n=c7 v=83
116936 On ch=1 n=c5 v=99
116941 Par ch=1 c=64 v=127
116949 On ch=1 n=e7 v=83
116993 On ch=1 n=c7 v=0
117029 On ch=1 n=c5 v=0
117041 On ch=1 n=a7 v=85
117088 On ch=1 n=e7 v=0
117125 On ch=1 n=a7 v=0
117185 On ch=1 n=d5 v=108
117199 Par ch=1 c=64 v=0
117399 On ch=1 n=a#5 v=78
117408 Par ch=1 c=64 v=127
117419 On ch=1 n=d5 v=0
117429 On ch=1 n=a#5 v=0
117465 On ch=1 n=d7 v=127
117469 On ch=1 n=a#7 v=127
117476 On ch=1 n=a#6 v=127
117476 On ch=1 n=f6 v=127
117528 On ch=1 n=f6 v=0
117572 On ch=1 n=a#6 v=0
117572 On ch=1 n=d7 v=0
117600 On ch=1 n=a#7 v=0
118360 On ch=1 n=d6 v=109
118361 On ch=1 n=d7 v=104
118361 On ch=1 n=a#6 v=99
118376 On ch=1 n=a#4 v=99
118376 On ch=1 n=d5 v=88
118376 On ch=1 n=a#5 v=103
118536 On ch=1 n=a#5 v=0
118581 On ch=1 n=d5 v=0
118641 On ch=1 n=a#4 v=0
118820 On ch=1 n=d6 v=0
118836 On ch=1 n=d7 v=0
118856 On ch=1 n=a#6 v=0
119179 On ch=1 n=d#6 v=87
119181 On ch=1 n=d#7 v=91
119196 On ch=1 n=d#6 v=0
119205 On ch=1 n=d#7 v=0
119301 On ch=1 n=g6 v=104
119305 On ch=1 n=a#6 v=102
119308 On ch=1 n=g7 v=104
119320 On ch=1 n=a#4 v=108
119320 On ch=1 n=d5 v=102
119320 On ch=1 n=d4 v=105
119424 Par ch=1 c=64 v=0
119581 Par ch=1 c=64 v=127
119836 On ch=1 n=d5 v=0
119852 On ch=1 n=d4 v=0
119868 On ch=1 n=a#4 v=0
120028 Par ch=1 c=64 v=0
120156 On ch=1 n=d#5 v=87
120164 On ch=1 n=d#4 v=78
120192 On ch=1 n=d#4 v=0
120208 On ch=1 n=d#5 v=0
120212 Par ch=1 c=64 v=127
120272 On ch=1 n=a#6 v=0
120281 On ch=1 n=g7 v=0
120296 On ch=1 n=g4 v=104
120296 On ch=1 n=g5 v=99
120333 On ch=1 n=g6 v=0
120341 Par ch=1 c=64 v=0
120461 Par ch=1 c=64 v=127
120500 On ch=1 n=g4 v=0
120505 On ch=1 n=g5 v=0
120700 Par ch=1 c=64 v=0
120710 On ch=1 n=f5 v=89
120710 On ch=1 n=f6 v=90
120710 On ch=1 n=f7 v=91
120725 On ch=1 n=f5 v=0
120725 On ch=1 n=f4 v=88
120736 On ch=1 n=f7 v=0
120753 On ch=1 n=f4 v=0
120753 On ch=1 n=f6 v=0
120829 On ch=1 n=d4 v=85
120829 On ch=1 n=d5 v=81
120837 Par ch=1 c=64 v=127
120845 On ch=1 n=d6 v=90
120845 On ch=1 n=d7 v=86
120853 On ch=1 n=d5 v=0
120858 On ch=1 n=d6 v=0
120858 On ch=1 n=d4 v=0
120865 On ch=1 n=d7 v=0
120949 On ch=1 n=a#5 v=96
120953 On ch=1 n=a#6 v=94
120962 On ch=1 n=a#4 v=88
120962 On ch=1 n=a#3 v=80
120977 On ch=1 n=a#6 v=0
120993 On ch=1 n=a#4 v=0
120993 On ch=1 n=a#5 v=0
121009 On ch=1 n=a#3 v=0
121073 On ch=1 n=f4 v=99
121073 On ch=1 n=f3 v=100
121078 On ch=1 n=f5 v=100
121078 On ch=1 n=f6 v=99
121116 On ch=1 n=f4 v=0
121122 On ch=1 n=f5 v=0
121141 On ch=1 n=f6 v=0
121141 On ch=1 n=f3 v=0
121202 Par ch=1 c=64 v=0
122081 On ch=1 n=a3 v=97
122085 On ch=1 n=a4 v=96
122089 On ch=1 n=a5 v=95
122089 On ch=1 n=a6 v=94
122126 On ch=1 n=a4 v=0
122133 On ch=1 n=a5 v=0
122133 On ch=1 n=a3 v=0
122137 On ch=1 n=a6 v=0
122276 On ch=1 n=a#4 v=91
122276 On ch=1 n=a#3 v=96
122276 On ch=1 n=a#5 v=95
122278 On ch=1 n=a#6 v=94
122316 On ch=1 n=a#3 v=0
122318 On ch=1 n=a#5 v=0
122318 On ch=1 n=a#4 v=0
122322 On ch=1 n=a#6 v=0
122469 On ch=1 n=c4 v=98
122469 On ch=1 n=c5 v=97
122469 On ch=1 n=c7 v=93
122473 On ch=1 n=c6 v=90
122513 On ch=1 n=c5 v=0
122525 On ch=1 n=c6 v=0
122529 On ch=1 n=c4 v=0
122539 On ch=1 n=c7 v=0
122702 On ch=1 n=d#5 v=104
122702 On ch=1 n=d#4 v=104
122702 On ch=1 n=d#6 v=107
122702 On ch=1 n=d#7 v=100
123096 Par ch=1 c=64 v=127
123403 On ch=1 n=d#7 v=0
123410 On ch=1 n=d#4 v=0
123424 On ch=1 n=d#6 v=0
123432 On ch=1 n=d#5 v=0
123631 Par ch=1 c=64 v=0
123727 On ch=1 n=d4 v=78
123743 On ch=1 n=d5 v=77
123743 On ch=1 n=d6 v=74
123743 On ch=1 n=d7 v=85
123763 On ch=1 n=d5 v=0
123771 On ch=1 n=d7 v=0
123772 On ch=1 n=d6 v=0
123772 On ch=1 n=d4 v=0
123776 Par ch=1 c=64 v=127
123871 On ch=1 n=a#4 v=81
123879 On ch=1 n=a#3 v=75
123883 On ch=1 n=a#5 v=96
123891 On ch=1 n=a#6 v=89
123899 Par ch=1 c=64 v=0
123903 On ch=1 n=a#4 v=0
123910 On ch=1 n=a#6 v=0
123912 On ch=1 n=a#3 v=0
123919 On ch=1 n=a#5 v=0
123996 On ch=1 n=f4 v=83
123996 On ch=1 n=f3 v=86
124000 On ch=1 n=f5 v=92
124000 On ch=1 n=f6 v=89
124027 On ch=1 n=f3 v=0
124027 On ch=1 n=f4 v=0
124046 On ch=1 n=f6 v=0
124046 On ch=1 n=f5 v=0
124120 On ch=1 n=d5 v=91
124120 On ch=1 n=d4 v=98
124120 On ch=1 n=d6 v=90
124123 On ch=1 n=d3 v=92
124147 Par ch=1 c=64 v=127
124203 On ch=1 n=d6 v=0
124212 On ch=1 n=d4 v=0
124212 On ch=1 n=d5 v=0
124227 On ch=1 n=d3 v=0
124323 On ch=1 n=c7 v=89
124327 On ch=1 n=c6 v=79
124331 On ch=1 n=c5 v=74
124339 On ch=1 n=c4 v=71
124339 Par ch=1 c=64 v=0
124356 On ch=1 n=c6 v=0
124371 On ch=1 n=c4 v=0
124371 On ch=1 n=c5 v=0
124371 On ch=1 n=c7 v=0
124499 On ch=1 n=a#4 v=70
124507 On ch=1 n=a#5 v=88
124507 On ch=1 n=a#6 v=85
124512 On ch=1 n=a#3 v=64
124523 On ch=1 n=a#6 v=0
124551 On ch=1 n=a#5 v=0
124551 On ch=1 n=a#4 v=0
124552 On ch=1 n=a#3 v=0
124670 On ch=1 n=f4 v=70
124670 On ch=1 n=f3 v=79
124684 On ch=1 n=f6 v=89
124684 On ch=1 n=f5 v=86
124707 On ch=1 n=f3 v=0
124707 On ch=1 n=f4 v=0
124717 On ch=1 n=f5 v=0
124717 On ch=1 n=f6 v=0
124844 On ch=1 n=a#3 v=93
124844 On ch=1 n=a#4 v=103
124852 On ch=1 n=a#2 v=84
124852 On ch=1 n=a#5 v=96
124867 Par ch=1 c=64 v=127
124929 On ch=1 n=a#4 v=0
124929 On ch=1 n=a#3 v=0
124944 On ch=1 n=a#5 v=0
124948 On ch=1 n=a#2 v=0
125024 On ch=1 n=g5 v=83
125033 On ch=1 n=g6 v=89
125036 On ch=1 n=g3 v=75
125036 On ch=1 n=g4 v=72
125084 On ch=1 n=g4 v=0
125084 On ch=1 n=g3 v=0
125084 On ch=1 n=g5 v=0
125084 Par ch=1 c=64 v=0
125089 On ch=1 n=g6 v=0
125200 On ch=1 n=f6 v=83
125208 On ch=1 n=f5 v=77
125209 On ch=1 n=f4 v=73
125209 On ch=1 n=f3 v=72
125233 On ch=1 n=f5 v=0
125233 On ch=1 n=f6 v=0
125240 On ch=1 n=f4 v=0
125264 On ch=1 n=f3 v=0
125372 On ch=1 n=d6 v=90
125372 On ch=1 n=d5 v=87
125384 On ch=1 n=d4 v=88
125384 On ch=1 n=d3 v=82
125394 On ch=1 n=d4 v=0
125417 On ch=1 n=d3 v=0
125417 On ch=1 n=d6 v=0
125425 On ch=1 n=d5 v=0
125530 On ch=1 n=f3 v=100
125541 On ch=1 n=f4 v=94
125541 On ch=1 n=f2 v=97
125541 On ch=1 n=f5 v=92
125578 Par ch=1 c=64 v=127
125621 On ch=1 n=f3 v=0
125633 On ch=1 n=f5 v=0
125633 On ch=1 n=f4 v=0
125637 On ch=1 n=f2 v=0
125737 On ch=1 n=d#4 v=78
125737 On ch=1 n=d#5 v=77
125737 Par ch=1 c=64 v=0
125747 On ch=1 n=d#6 v=80
125747 On ch=1 n=d#3 v=65
125754 On ch=1 n=d#6 v=0
125764 On ch=1 n=d#5 v=0
125764 On ch=1 n=d#4 v=0
125788 On ch=1 n=d#3 v=0
125891 On ch=1 n=d6 v=78
125900 On ch=1 n=d5 v=71
125904 On ch=1 n=d3 v=60
125931 On ch=1 n=d5 v=0
125931 On ch=1 n=d6 v=0
125948 On ch=1 n=d3 v=0
126075 On ch=1 n=a#5 v=90
126078 On ch=1 n=a#4 v=91
126088 On ch=1 n=a#3 v=78
126095 On ch=1 n=a#2 v=89
126105 On ch=1 n=a#5 v=0
126117 On ch=1 n=a#3 v=0
126117 On ch=1 n=a#4 v=0
126132 On ch=1 n=a#2 v=0
126241 On ch=1 n=d4 v=90
126252 On ch=1 n=d5 v=89
126252 On ch=1 n=d2 v=96
126256 On ch=1 n=d3 v=92
126284 Par ch=1 c=64 v=127
126340 On ch=1 n=d5 v=0
126340 On ch=1 n=d4 v=0
126355 On ch=1 n=d3 v=0
126355 On ch=1 n=d2 v=0
126421 Par ch=1 c=64 v=0
126436 On ch=1 n=c4 v=82
126441 On ch=1 n=c5 v=83
126444 On ch=1 n=c6 v=89
126444 On ch=1 n=c3 v=76
126454 On ch=1 n=c6 v=0
126465 On ch=1 n=c3 v=0
126465 On ch=1 n=c5 v=0
126465 On ch=1 n=c4 v=0
126603 On ch=1 n=a#3 v=75
126611 On ch=1 n=a#2 v=67
126614 On ch=1 n=a#4 v=85
126614 On ch=1 n=a#5 v=86
126629 On ch=1 n=a#5 v=0
126639 On ch=1 n=a#3 v=0
126642 On ch=1 n=a#4 v=0
126651 On ch=1 n=a#2 v=0
126782 On ch=1 n=f3 v=84
126782 On ch=1 n=f2 v=87
126786 On ch=1 n=f4 v=85
126795 On ch=1 n=f5 v=77
126810 On ch=1 n=f3 v=0
126818 On ch=1 n=f5 v=0
126829 On ch=1 n=f4 v=0
126829 On ch=1 n=f2 v=0
126975 On ch=1 n=d2 v=99
126979 On ch=1 n=d3 v=104
126979 On ch=1 n=d4 v=98
126986 On ch=1 n=d5 v=97
127026 On ch=1 n=d4 v=0
127046 Par ch=1 c=64 v=127
127063 On ch=1 n=d5 v=0
127138 On ch=1 n=d3 v=0
127142 On ch=1 n=d2 v=0
127382 Par ch=1 c=64 v=0
127514 On ch=1 n=a#7 v=120
127522 On ch=1 n=a#6 v=119
127571 On ch=1 n=a#7 v=0
127575 On ch=1 n=a#6 v=0
127582 Par ch=1 c=64 v=127
127966 On ch=1 n=a#6 v=97
127966 On ch=1 n=d7 v=93
127971 On ch=1 n=d6 v=98
128335 On ch=1 n=d6 v=0
128366 On ch=1 n=a#6 v=0
128382 On ch=1 n=d7 v=0
128392 On ch=1 n=a#5 v=96
128392 On ch=1 n=a#4 v=94
128452 On ch=1 n=a#5 v=0
128460 On ch=1 n=a#4 v=0
128819 On ch=1 n=f#6 v=80
128819 On ch=1 n=f#7 v=78
128840 On ch=1 n=f#7 v=0
128840 On ch=1 n=f#6 v=0
128928 On ch=1 n=d5 v=97
128931 On ch=1 n=d4 v=104
128939 On ch=1 n=a#4 v=103
128939 On ch=1 n=a7 v=98
128939 On ch=1 n=a6 v=92
128975 Par ch=1 c=64 v=0
129126 Par ch=1 c=64 v=127
129363 On ch=1 n=d5 v=0
129367 On ch=1 n=d4 v=0
129392 On ch=1 n=a#4 v=0
129688 On ch=1 n=f#5 v=84
129692 On ch=1 n=f#4 v=88
129723 On ch=1 n=f#4 v=0
129723 On ch=1 n=f#5 v=0
129751 Par ch=1 c=64 v=0
129799 On ch=1 n=a4 v=115
129808 On ch=1 n=a5 v=102
129855 On ch=1 n=a7 v=0
129895 On ch=1 n=a6 v=0
129956 Par ch=1 c=64 v=127
129982 On ch=1 n=a5 v=0
129986 On ch=1 n=a4 v=0
130252 On ch=1 n=g7 v=95
130252 On ch=1 n=g4 v=88
130256 On ch=1 n=g6 v=81
130263 On ch=1 n=g5 v=80
130277 On ch=1 n=g5 v=0
130280 On ch=1 n=g7 v=0
130284 On ch=1 n=g6 v=0
130293 On ch=1 n=g4 v=0
130372 On ch=1 n=d7 v=91
130376 On ch=1 n=d6 v=88
130385 On ch=1 n=d7 v=0
130385 On ch=1 n=d5 v=81
130389 On ch=1 n=d4 v=82
130397 On ch=1 n=d6 v=0
130432 On ch=1 n=d4 v=0
130432 On ch=1 n=d5 v=0
130489 On ch=1 n=a#5 v=98
130489 On ch=1 n=a#6 v=91
130493 On ch=1 n=a#4 v=82
130504 On ch=1 n=a#3 v=81
130520 On ch=1 n=a#4 v=0
130520 On ch=1 n=a#6 v=0
130520 On ch=1 n=a#5 v=0
130525 On ch=1 n=a#3 v=0
130596 On ch=1 n=g6 v=95
130603 On ch=1 n=g5 v=102
130603 On ch=1 n=g4 v=105
130603 On ch=1 n=g3 v=105
130644 On ch=1 n=g4 v=0
130644 Par ch=1 c=64 v=0
130652 On ch=1 n=g5 v=0
130656 On ch=1 n=g3 v=0
130729 On ch=1 n=g6 v=0
131624 On ch=1 n=a3 v=80
131624 On ch=1 n=a4 v=81
131632 On ch=1 n=a5 v=82
131632 On ch=1 n=a6 v=82
131656 On ch=1 n=a4 v=0
131664 On ch=1 n=a6 v=0
131664 On ch=1 n=a5 v=0
131664 On ch=1 n=a3 v=0
131820 On ch=1 n=a#4 v=85
131820 On ch=1 n=a#3 v=83
131824 On ch=1 n=a#5 v=88
131824 On ch=1 n=a#6 v=87
131865 On ch=1 n=a#3 v=0
131865 On ch=1 n=a#4 v=0
131869 On ch=1 n=a#5 v=0
131876 On ch=1 n=a#6 v=0
132016 On ch=1 n=c4 v=95
132023 On ch=1 n=c7 v=95
132023 On ch=1 n=c5 v=97
132025 On ch=1 n=c6 v=96
132060 On ch=1 n=c5 v=0
132070 On ch=1 n=c4 v=0
132074 On ch=1 n=c6 v=0
132082 On ch=1 n=c7 v=0
132237 On ch=1 n=d#5 v=104
132241 On ch=1 n=d#4 v=105
132242 On ch=1 n=d#6 v=104
132246 On ch=1 n=d#7 v=106
132913 Par ch=1 c=64 v=127
132930 On ch=1 n=d#4 v=0
133021 On ch=1 n=d#7 v=0
133021 On ch=1 n=d#6 v=0
133046 On ch=1 n=d#5 v=0
133273 Par ch=1 c=64 v=0
133393 On ch=1 n=d5 v=79
133397 On ch=1 n=d4 v=79
133406 On ch=1 n=d7 v=79
133414 On ch=1 n=d6 v=71
133430 On ch=1 n=d7 v=0
133433 On ch=1 n=d4 v=0
133433 On ch=1 n=d5 v=0
133437 Par ch=1 c=64 v=127
133441 On ch=1 n=d6 v=0
133520 On ch=1 n=a#4 v=81
133534 On ch=1 n=a#3 v=69
133542 On ch=1 n=a#5 v=93
133549 On ch=1 n=a#6 v=87
133569 On ch=1 n=a#4 v=0
133573 On ch=1 n=a#3 v=0
133580 On ch=1 n=a#6 v=0
133590 On ch=1 n=a#5 v=0
133590 Par ch=1 c=64 v=0
133634 On ch=1 n=g4 v=88
133637 On ch=1 n=g3 v=84
133661 On ch=1 n=g5 v=89
133661 On ch=1 n=g6 v=83
133662 On ch=1 n=g4 v=0
133673 On ch=1 n=g3 v=0
133677 On ch=1 n=g6 v=0
133685 On ch=1 n=g5 v=0
133773 On ch=1 n=d5 v=97
133780 On ch=1 n=d4 v=84
133790 On ch=1 n=d3 v=77
133790 On ch=1 n=d6 v=77
133810 Par ch=1 c=64 v=127
133861 On ch=1 n=d5 v=0
133873 On ch=1 n=d4 v=0
133889 On ch=1 n=d6 v=0
133889 On ch=1 n=d3 v=0
133966 Par ch=1 c=64 v=0
133989 On ch=1 n=c6 v=77
133993 On ch=1 n=c7 v=87
133997 On ch=1 n=c5 v=76
134002 On ch=1 n=c4 v=59
134013 On ch=1 n=c6 v=0
134017 On ch=1 n=c7 v=0
134025 On ch=1 n=c5 v=0
134033 On ch=1 n=c4 v=0
134157 On ch=1 n=a#4 v=71
134161 On ch=1 n=a#6 v=83
134169 On ch=1 n=a#3 v=64
134169 On ch=1 n=a#5 v=84
134193 On ch=1 n=a#6 v=0
134193 On ch=1 n=a#4 v=0
134202 On ch=1 n=a#3 v=0
134209 On ch=1 n=a#5 v=0
134321 On ch=1 n=g4 v=77
134321 On ch=1 n=g3 v=78
134333 On ch=1 n=g6 v=87
134336 On ch=1 n=g5 v=87
134360 On ch=1 n=g3 v=0
134360 On ch=1 n=g4 v=0
134377 On ch=1 n=g6 v=0
134381 On ch=1 n=g5 v=0
134506 On ch=1 n=a#3 v=93
134517 On ch=1 n=a#2 v=84
134522 On ch=1 n=a#4 v=97
134526 On ch=1 n=a#5 v=86
134529 Par ch=1 c=64 v=127
134606 On ch=1 n=a#3 v=0
134621 On ch=1 n=a#2 v=0
134625 On ch=1 n=a#5 v=0
134625 On ch=1 n=a#4 v=0
134705 On ch=1 n=a3 v=82
134705 Par ch=1 c=64 v=0
134713 On ch=1 n=a4 v=78
134713 On ch=1 n=a5 v=84
134713 On ch=1 n=a6 v=84
134733 On ch=1 n=a4 v=0
134750 On ch=1 n=a5 v=0
134753 On ch=1 n=a6 v=0
134769 On ch=1 n=a3 v=0
134886 On ch=1 n=g4 v=75
134890 On ch=1 n=g5 v=77
134890 On ch=1 n=g3 v=70
134890 On ch=1 n=g6 v=73
134913 On ch=1 n=g4 v=0
134917 On ch=1 n=g5 v=0
134925 On ch=1 n=g6 v=0
134925 On ch=1 n=g3 v=0
135057 On ch=1 n=d4 v=90
135061 On ch=1 n=d3 v=84
135061 On ch=1 n=d5 v=89
135073 On ch=1 n=d6 v=78
135083 On ch=1 n=d4 v=0
135103 On ch=1 n=d6 v=0
135103 On ch=1 n=d3 v=0
135119 On ch=1 n=d5 v=0
135238 On ch=1 n=g3 v=98
135238 On ch=1 n=g2 v=94
135238 On ch=1 n=g4 v=92
135238 On ch=1 n=g5 v=97
135254 Par ch=1 c=64 v=127
135334 On ch=1 n=g3 v=0
135342 On ch=1 n=g5 v=0
135342 On ch=1 n=g4 v=0
135342 On ch=1 n=g2 v=0
135414 On ch=1 n=d#5 v=83
135419 On ch=1 n=d#4 v=75
135419 Par ch=1 c=64 v=0
135419 On ch=1 n=d#6 v=84
135426 On ch=1 n=d#3 v=64
135446 On ch=1 n=d#6 v=0
135454 On ch=1 n=d#5 v=0
135457 On ch=1 n=d#4 v=0
135479 On ch=1 n=d#3 v=0
135583 On ch=1 n=d3 v=72
135583 On ch=1 n=d4 v=67
135598 On ch=1 n=d6 v=80
135603 On ch=1 n=d5 v=70
135618 On ch=1 n=d6 v=0
135618 On ch=1 n=d3 v=0
135623 On ch=1 n=d4 v=0
135634 On ch=1 n=d5 v=0
135770 On ch=1 n=a#3 v=71
135774 On ch=1 n=a#2 v=71
135774 On ch=1 n=a#4 v=91
135779 On ch=1 n=a#5 v=82
135790 On ch=1 n=a#5 v=0
135806 On ch=1 n=a#3 v=0
135810 On ch=1 n=a#4 v=0
135810 On ch=1 n=a#2 v=0
135939 On ch=1 n=d3 v=90
135939 Par ch=1 c=64 v=127
135954 On ch=1 n=d4 v=86
135954 On ch=1 n=d2 v=83
135954 On ch=1 n=d5 v=87
136038 On ch=1 n=d3 v=0
136053 On ch=1 n=d5 v=0
136057 On ch=1 n=d4 v=0
136059 On ch=1 n=d2 v=0
136110 Par ch=1 c=64 v=0
136120 On ch=1 n=c6 v=87
136127 On ch=1 n=c5 v=79
136127 On ch=1 n=c4 v=80
136127 On ch=1 n=c3 v=75
136151 On ch=1 n=c5 v=0
136151 On ch=1 n=c6 v=0
136156 On ch=1 n=c4 v=0
136167 On ch=1 n=c3 v=0
136300 On ch=1 n=a#3 v=73
136308 On ch=1 n=a#4 v=89
136308 On ch=1 n=a#5 v=84
136311 On ch=1 n=a#2 v=66
136323 On ch=1 n=a#5 v=0
136343 On ch=1 n=a#4 v=0
136343 On ch=1 n=a#3 v=0
136354 On ch=1 n=a#2 v=0
136475 On ch=1 n=g3 v=80
136479 On ch=1 n=g5 v=83
136487 On ch=1 n=g2 v=81
136487 On ch=1 n=g4 v=75
136503 On ch=1 n=g3 v=0
136507 On ch=1 n=g5 v=0
136517 On ch=1 n=g4 v=0
136517 On ch=1 n=g2 v=0
136693 On ch=1 n=d#3 v=107
136697 On ch=1 n=d#2 v=99
136708 On ch=1 n=d#4 v=98
136708 On ch=1 n=d#5 v=92
136777 Par ch=1 c=64 v=127
137212 On ch=1 n=d#5 v=0
137220 On ch=1 n=d#2 v=0
137227 On ch=1 n=d#8 v=103
137227 On ch=1 n=d#7 v=100
137241 On ch=1 n=d#3 v=0
137252 On ch=1 n=d#4 v=0
137284 On ch=1 n=d#7 v=0
137288 On ch=1 n=d#8 v=0
137681 On ch=1 n=g7 v=94
137688 On ch=1 n=g6 v=99
137688 On ch=1 n=d#7 v=95
138097 On ch=1 n=g6 v=0
138104 On ch=1 n=d#7 v=0
138127 On ch=1 n=g7 v=0
138131 On ch=1 n=d#6 v=100
138141 On ch=1 n=d#5 v=95
138192 On ch=1 n=d#6 v=0
138200 On ch=1 n=d#5 v=0
138524 On ch=1 n=g#6 v=67
138528 On ch=1 n=g#7 v=67
138548 On ch=1 n=g#6 v=0
138557 On ch=1 n=g#7 v=0
138651 On ch=1 n=c7 v=96
138651 On ch=1 n=d#7 v=95
138661 On ch=1 n=c8 v=93
138672 On ch=1 n=d#5 v=97
138673 On ch=1 n=g4 v=100
138673 On ch=1 n=g5 v=103
139113 On ch=1 n=g5 v=0
139128 On ch=1 n=g4 v=0
139160 On ch=1 n=d#5 v=0
139424 On ch=1 n=g#5 v=86
139424 On ch=1 n=g#4 v=76
139448 On ch=1 n=g#4 v=0
139458 On ch=1 n=g#5 v=0
139485 Par ch=1 c=64 v=0
139554 On ch=1 n=c5 v=97
139554 On ch=1 n=c6 v=99
139574 On ch=1 n=d#7 v=0
139601 On ch=1 n=c8 v=0
139610 On ch=1 n=c7 v=0
139689 Par ch=1 c=64 v=127
139769 On ch=1 n=c6 v=0
139770 On ch=1 n=c5 v=0
139933 On ch=1 n=a#5 v=70
139950 On ch=1 n=a#6 v=89
139950 On ch=1 n=a#4 v=56
139950 On ch=1 n=a#7 v=84
139961 On ch=1 n=a#5 v=0
139985 On ch=1 n=a#7 v=0
139985 On ch=1 n=a#4 v=0
139988 On ch=1 n=a#6 v=0
140054 On ch=1 n=g4 v=78
140058 On ch=1 n=g5 v=70
140069 On ch=1 n=g7 v=91
140069 On ch=1 n=g6 v=89
140101 On ch=1 n=g6 v=0
140101 On ch=1 n=g4 v=0
140105 On ch=1 n=g7 v=0
140105 On ch=1 n=g5 v=0
140181 On ch=1 n=d#6 v=98
140189 On ch=1 n=d#5 v=72
140189 On ch=1 n=d#7 v=90
140189 On ch=1 n=d#4 v=65
140208 On ch=1 n=d#7 v=0
140214 On ch=1 n=d#4 v=0
140214 On ch=1 n=d#5 v=0
140218 On ch=1 n=d#6 v=0
140289 On ch=1 n=a#5 v=105
140301 On ch=1 n=a#6 v=100
140301 On ch=1 n=a#3 v=111
140305 On ch=1 n=a#4 v=91
140317 On ch=1 n=a#4 v=0
140338 On ch=1 n=a#5 v=0
140349 On ch=1 n=a#6 v=0
140354 On ch=1 n=a#3 v=0
140394 Par ch=1 c=64 v=0
141317 On ch=1 n=d4 v=80
141317 On ch=1 n=d7 v=82
141317 On ch=1 n=d5 v=83
141325 On ch=1 n=d6 v=83
141345 On ch=1 n=d5 v=0
141345 On ch=1 n=d4 v=0
141349 On ch=1 n=d6 v=0
141378 On ch=1 n=d7 v=0
141510 On ch=1 n=d#4 v=90
141521 On ch=1 n=d#5 v=92
141529 On ch=1 n=d#6 v=91
141529 On ch=1 n=d#7 v=90
141565 On ch=1 n=d#4 v=0
141569 On ch=1 n=d#6 v=0
141569 On ch=1 n=d#5 v=0
141581 On ch=1 n=d#7 v=0
141721 On ch=1 n=f4 v=97
141728 On ch=1 n=f7 v=96
141728 On ch=1 n=f6 v=97
141730 On ch=1 n=f5 v=98
141761 On ch=1 n=f5 v=0
141765 On ch=1 n=f6 v=0
141775 On ch=1 n=f4 v=0
141778 On ch=1 n=f7 v=0
141959 On ch=1 n=g#4 v=98
141959 On ch=1 n=g#5 v=100
141962 On ch=1 n=g#6 v=104
141967 On ch=1 n=g#7 v=104
142479 Par ch=1 c=64 v=127
142726 On ch=1 n=g#4 v=0
142727 On ch=1 n=g#7 v=0
142727 On ch=1 n=g#6 v=0
142742 On ch=1 n=g#5 v=0
142986 Par ch=1 c=64 v=0
143062 On ch=1 n=g4 v=63
143072 On ch=1 n=g5 v=88
143075 On ch=1 n=g7 v=81
143075 On ch=1 n=g6 v=73
143095 On ch=1 n=g7 v=0
143099 On ch=1 n=g4 v=0
143104 On ch=1 n=g6 v=0
143104 On ch=1 n=g5 v=0
143119 Par ch=1 c=64 v=127
143203 On ch=1 n=d#7 v=88
143204 On ch=1 n=d#5 v=72
143212 On ch=1 n=d#6 v=88
143216 On ch=1 n=d#7 v=0
143216 On ch=1 n=d#4 v=68
143224 On ch=1 n=d#6 v=0
143228 On ch=1 n=d#5 v=0
143247 On ch=1 n=d#4 v=0
143335 On ch=1 n=a#5 v=96
143335 On ch=1 n=a#6 v=85
143351 On ch=1 n=a#4 v=88
143355 On ch=1 n=a#3 v=88
143365 On ch=1 n=a#6 v=0
143369 On ch=1 n=a#5 v=0
143380 On ch=1 n=a#3 v=0
143380 On ch=1 n=a#4 v=0
143448 On ch=1 n=g5 v=97
143448 On ch=1 n=g6 v=93
143468 On ch=1 n=g4 v=80
143468 On ch=1 n=g3 v=88
143549 On ch=1 n=g5 v=0
143556 On ch=1 n=g6 v=0
143572 On ch=1 n=g4 v=0
143576 On ch=1 n=g3 v=0
143648 Par ch=1 c=64 v=0
143665 On ch=1 n=f7 v=81
143672 On ch=1 n=f6 v=71
143688 On ch=1 n=f4 v=62
143699 On ch=1 n=f7 v=0
143699 On ch=1 n=f5 v=76
143701 On ch=1 n=f6 v=0
143716 On ch=1 n=f4 v=0
143728 On ch=1 n=f5 v=0
143852 On ch=1 n=d#7 v=75
143852 On ch=1 n=d#6 v=71
143856 On ch=1 n=d#4 v=61
143856 On ch=1 n=d#5 v=77
143866 On ch=1 n=d#7 v=0
143878 On ch=1 n=d#6 v=0
143893 On ch=1 n=d#5 v=0
143893 On ch=1 n=d#4 v=0
144001 On ch=1 n=a#4 v=71
144013 On ch=1 n=a#6 v=85
144013 On ch=1 n=a#3 v=72
144013 On ch=1 n=a#5 v=86
144033 On ch=1 n=a#3 v=0
144033 On ch=1 n=a#6 v=0
144033 On ch=1 n=a#4 v=0
144045 On ch=1 n=a#5 v=0
144169 On ch=1 n=d#4 v=90
144179 On ch=1 n=d#3 v=82
144179 On ch=1 n=d#5 v=92
144186 On ch=1 n=d#6 v=92
144206 Par ch=1 c=64 v=127
144266 On ch=1 n=d#4 v=0
144275 On ch=1 n=d#6 v=0
144275 On ch=1 n=d#3 v=0
144282 On ch=1 n=d#5 v=0
144346 On ch=1 n=c5 v=85
144350 On ch=1 n=c4 v=80
144355 On ch=1 n=c7 v=85
144363 On ch=1 n=c6 v=76
144363 Par ch=1 c=64 v=0
144378 On ch=1 n=c7 v=0
144378 On ch=1 n=c5 v=0
144382 On ch=1 n=c4 v=0
144392 On ch=1 n=c6 v=0
144531 On ch=1 n=a#4 v=69
144531 On ch=1 n=a#5 v=78
144536 On ch=1 n=a#6 v=71
144536 On ch=1 n=a#3 v=74
144567 On ch=1 n=a#4 v=0
144575 On ch=1 n=a#6 v=0
144575 On ch=1 n=a#5 v=0
144583 On ch=1 n=a#3 v=0
144667 On ch=1 n=g4 v=68
144683 On ch=1 n=g3 v=71
144687 On ch=1 n=g6 v=75
144687 On ch=1 n=g5 v=71
144712 On ch=1 n=g4 v=0
144719 On ch=1 n=g5 v=0
144719 On ch=1 n=g6 v=0
144719 On ch=1 n=g3 v=0
144859 On ch=1 n=a#5 v=93
144859 On ch=1 n=a#2 v=80
144867 On ch=1 n=a#4 v=87
144867 On ch=1 n=a#3 v=87
144867 Par ch=1 c=64 v=127
144960 On ch=1 n=a#3 v=0
144960 On ch=1 n=a#4 v=0
144960 On ch=1 n=a#5 v=0
144963 On ch=1 n=a#2 v=0
145023 On ch=1 n=g#4 v=84
145033 On ch=1 n=g#6 v=82
145033 On ch=1 n=g#5 v=84
145036 On ch=1 n=g#3 v=74
145044 Par ch=1 c=64 v=0
145060 On ch=1 n=g#4 v=0
145067 On ch=1 n=g#5 v=0
145067 On ch=1 n=g#6 v=0
145069 On ch=1 n=g#3 v=0
145188 On ch=1 n=g6 v=78
145196 On ch=1 n=g4 v=59
145200 On ch=1 n=g5 v=67
145200 On ch=1 n=g3 v=77
145209 On ch=1 n=g6 v=0
145220 On ch=1 n=g4 v=0
145240 On ch=1 n=g3 v=0
145240 On ch=1 n=g5 v=0
145348 On ch=1 n=d#4 v=70
145348 On ch=1 n=d#3 v=64
145358 On ch=1 n=d#5 v=79
145358 On ch=1 n=d#6 v=74
145369 On ch=1 n=d#6 v=0
145369 On ch=1 n=d#4 v=0
145389 On ch=1 n=d#5 v=0
145389 On ch=1 n=d#3 v=0
145514 On ch=1 n=g5 v=81
145514 On ch=1 n=g2 v=79
145517 On ch=1 n=g4 v=79
145526 Par ch=1 c=64 v=127
145550 On ch=1 n=g5 v=0
145609 On ch=1 n=g2 v=0
145613 On ch=1 n=g4 v=0
145681 On ch=1 n=f5 v=77
145681 On ch=1 n=f6 v=87
145690 On ch=1 n=f4 v=64
145705 On ch=1 n=f6 v=0
145705 On ch=1 n=f3 v=66
145710 On ch=1 n=f5 v=0
145725 Par ch=1 c=64 v=0
145729 On ch=1 n=f4 v=0
145733 On ch=1 n=f3 v=0
145854 On ch=1 n=d#5 v=71
145854 On ch=1 n=d#4 v=74
145861 On ch=1 n=d#6 v=77
145866 On ch=1 n=d#3 v=77
145881 On ch=1 n=d#6 v=0
145885 On ch=1 n=d#5 v=0
145889 On ch=1 n=d#4 v=0
145914 On ch=1 n=d#3 v=0
146001 On ch=1 n=a#5 v=75
146001 On ch=1 n=a#4 v=76
146025 On ch=1 n=a#2 v=78
146034 On ch=1 n=a#5 v=0
146045 On ch=1 n=a#4 v=0
146085 On ch=1 n=a#2 v=0
146150 On ch=1 n=g#4 v=82
146164 On ch=1 n=g#3 v=86
146164 On ch=1 n=g#5 v=78
146164 On ch=1 n=g#2 v=88
146170 Par ch=1 c=64 v=127
146197 On ch=1 n=g#5 v=0
146244 On ch=1 n=g#4 v=0
146261 On ch=1 n=g#2 v=0
146270 On ch=1 n=g#3 v=0
146321 On ch=1 n=f4 v=85
146330 On ch=1 n=f3 v=82
146341 On ch=1 n=f6 v=83
146341 On ch=1 n=f5 v=75
146357 On ch=1 n=f6 v=0
146360 On ch=1 n=f4 v=0
146370 On ch=1 n=f3 v=0
146377 On ch=1 n=f5 v=0
146385 Par ch=1 c=64 v=0
146497 On ch=1 n=d#5 v=75
146513 On ch=1 n=d#6 v=71
146513 On ch=1 n=d#4 v=60
146523 On ch=1 n=d#5 v=0
146523 On ch=1 n=d#3 v=74
146530 On ch=1 n=d#6 v=0
146537 On ch=1 n=d#4 v=0
146555 On ch=1 n=d#3 v=0
146638 On ch=1 n=c4 v=75
146642 On ch=1 n=c6 v=76
146654 On ch=1 n=c5 v=77
146654 On ch=1 n=c3 v=68
146671 On ch=1 n=c4 v=0
146683 On ch=1 n=c6 v=0
146687 On ch=1 n=c5 v=0
146698 On ch=1 n=c3 v=0
146794 On ch=1 n=a3 v=95
146794 On ch=1 n=a2 v=92
146803 On ch=1 n=a4 v=84
146803 On ch=1 n=a5 v=73
146841 On ch=1 n=a3 v=0
146841 Par ch=1 c=64 v=127
146898 On ch=1 n=a2 v=0
146902 On ch=1 n=a4 v=0
146914 On ch=1 n=a5 v=0
146961 On ch=1 n=f4 v=83
146971 On ch=1 n=f5 v=82
146975 On ch=1 n=f3 v=79
146979 On ch=1 n=f6 v=85
146984 On ch=1 n=f6 v=0
147004 On ch=1 n=f5 v=0
147011 On ch=1 n=f3 v=0
147011 On ch=1 n=f4 v=0
147020 Par ch=1 c=64 v=0
147127 On ch=1 n=d#5 v=75
147138 On ch=1 n=d#6 v=74
147138 On ch=1 n=d#4 v=63
147140 On ch=1 n=d#3 v=63
147159 On ch=1 n=d#6 v=0
147167 On ch=1 n=d#5 v=0
147188 On ch=1 n=d#3 v=0
147188 On ch=1 n=d#4 v=0
147280 On ch=1 n=c4 v=65
147284 On ch=1 n=c3 v=64
147291 On ch=1 n=c6 v=74
147291 On ch=1 n=c5 v=67
147311 On ch=1 n=c6 v=0
147311 On ch=1 n=c4 v=0
147314 On ch=1 n=c5 v=0
147332 On ch=1 n=c3 v=0
147438 On ch=1 n=a#3 v=72
147448 On ch=1 n=a#2 v=70
147452 On ch=1 n=a#5 v=69
147452 On ch=1 n=a#4 v=67
147461 Par ch=1 c=64 v=127
147541 On ch=1 n=a#3 v=0
147552 On ch=1 n=a#5 v=0
147556 On ch=1 n=a#2 v=0
147564 On ch=1 n=a#4 v=0
147588 On ch=1 n=d4 v=77
147588 On ch=1 n=d3 v=68
147604 On ch=1 n=d6 v=74
147604 On ch=1 n=d5 v=67
147640 On ch=1 n=d6 v=0
147644 On ch=1 n=d5 v=0
147655 Par ch=1 c=64 v=0
147688 On ch=1 n=d4 v=0
147691 On ch=1 n=d3 v=0
147755 On ch=1 n=c4 v=78
147755 On ch=1 n=c3 v=73
147769 On ch=1 n=c6 v=77
147769 On ch=1 n=c5 v=67
147784 On ch=1 n=c6 v=0
147788 On ch=1 n=c4 v=0
147797 On ch=1 n=c5 v=0
147797 On ch=1 n=c3 v=0
147808 Par ch=1 c=64 v=127
147864 Par ch=1 c=64 v=0
147908 On ch=1 n=f4 v=74
147908 On ch=1 n=f3 v=77
147918 On ch=1 n=f6 v=81
147918 On ch=1 n=f5 v=75
147941 On ch=1 n=f6 v=0
147941 On ch=1 n=f4 v=0
147945 On ch=1 n=f5 v=0
147945 On ch=1 n=f3 v=0
148062 Par ch=1 c=64 v=127
148069 On ch=1 n=c#4 v=82
148069 On ch=1 n=c#6 v=93
148074 On ch=1 n=c#5 v=84
148074 On ch=1 n=c#3 v=68
148089 On ch=1 n=c#5 v=0
148089 On ch=1 n=c#4 v=0
148105 On ch=1 n=c#3 v=0
148121 On ch=1 n=c#6 v=0
148214 On ch=1 n=f4 v=81
148225 On ch=1 n=f5 v=84
148225 On ch=1 n=f6 v=83
148225 On ch=1 n=f3 v=76
148225 Par ch=1 c=64 v=0
148253 On ch=1 n=f3 v=0
148253 On ch=1 n=f4 v=0
148269 On ch=1 n=f5 v=0
148272 On ch=1 n=f6 v=0
148366 On ch=1 n=d5 v=81
148373 On ch=1 n=d6 v=86
148378 On ch=1 n=d4 v=74
148393 On ch=1 n=d3 v=79
148398 Par ch=1 c=64 v=127
148465 On ch=1 n=d5 v=0
148474 On ch=1 n=d4 v=0
148474 On ch=1 n=d6 v=0
148485 On ch=1 n=d3 v=0
148514 On ch=1 n=a#5 v=98
148517 On ch=1 n=a#3 v=83
148521 On ch=1 n=a#6 v=97
148529 On ch=1 n=a#4 v=87
148545 On ch=1 n=a#4 v=0
148545 On ch=1 n=a#3 v=0
148554 On ch=1 n=a#6 v=0
148557 On ch=1 n=a#5 v=0
148673 On ch=1 n=d#4 v=82
148673 On ch=1 n=d#6 v=98
148674 On ch=1 n=d#5 v=95
148674 On ch=1 n=d#3 v=95
148698 On ch=1 n=d#4 v=0
148718 On ch=1 n=d#3 v=0
148718 On ch=1 n=d#5 v=0
148718 On ch=1 n=d#6 v=0
148809 On ch=1 n=g4 v=84
148819 On ch=1 n=g3 v=77
148819 On ch=1 n=g6 v=85
148822 On ch=1 n=g5 v=85
148830 Par ch=1 c=64 v=0
148838 On ch=1 n=g4 v=0
148849 On ch=1 n=g3 v=0
148855 On ch=1 n=g5 v=0
148866 On ch=1 n=g6 v=0
148946 On ch=1 n=f4 v=74
148956 On ch=1 n=f3 v=72
148956 On ch=1 n=f5 v=80
148960 On ch=1 n=f6 v=85
148971 Par ch=1 c=64 v=127
148986 On ch=1 n=f4 v=0
148992 On ch=1 n=f6 v=0
148992 On ch=1 n=f5 v=0
149003 On ch=1 n=f3 v=0
149079 On ch=1 n=a#4 v=87
149100 On ch=1 n=a#3 v=72
149100 On ch=1 n=a#5 v=96
149103 On ch=1 n=a#6 v=91
149108 On ch=1 n=a#4 v=0
149123 Par ch=1 c=64 v=0
149139 On ch=1 n=a#3 v=0
149143 On ch=1 n=a#5 v=0
149151 On ch=1 n=a#6 v=0
149239 On ch=1 n=g6 v=89
149246 On ch=1 n=g5 v=89
149246 On ch=1 n=g3 v=84
149246 On ch=1 n=g4 v=86
149315 Par ch=1 c=64 v=127
149339 On ch=1 n=g6 v=0
149343 On ch=1 n=g5 v=0
149355 On ch=1 n=g4 v=0
149355 On ch=1 n=g3 v=0
149447 On ch=1 n=f4 v=77
149452 On ch=1 n=f5 v=75
149452 On ch=1 n=f6 v=79
149452 On ch=1 n=f7 v=77
149463 On ch=1 n=f7 v=0
149463 On ch=1 n=f6 v=0
149472 Par ch=1 c=64 v=0
149483 On ch=1 n=f5 v=0
149488 On ch=1 n=f4 v=0
149607 On ch=1 n=d#5 v=69
149607 On ch=1 n=d#6 v=90
149607 On ch=1 n=d#4 v=70
149612 On ch=1 n=d#7 v=86
149620 On ch=1 n=d#5 v=0
149627 On ch=1 n=d#7 v=0
149647 On ch=1 n=d#6 v=0
149651 On ch=1 n=d#4 v=0
149739 On ch=1 n=a#4 v=69
149739 On ch=1 n=a#3 v=71
149739 On ch=1 n=a#5 v=93
149739 On ch=1 n=a#6 v=89
149755 On ch=1 n=a#6 v=0
149776 On ch=1 n=a#5 v=0
149788 On ch=1 n=a#3 v=0
149788 On ch=1 n=a#4 v=0
149879 On ch=1 n=g#4 v=86
149879 On ch=1 n=g#5 v=95
149879 On ch=1 n=g#6 v=88
149886 On ch=1 n=g#3 v=80
149908 Par ch=1 c=64 v=127
149968 On ch=1 n=g#6 v=0
149968 On ch=1 n=g#5 v=0
149968 On ch=1 n=g#4 v=0
149979 On ch=1 n=g#3 v=0
150043 On ch=1 n=f6 v=89
150043 On ch=1 n=f7 v=87
150047 On ch=1 n=f5 v=84
150055 On ch=1 n=f4 v=88
150072 On ch=1 n=f5 v=0
150072 On ch=1 n=f7 v=0
150079 On ch=1 n=f6 v=0
150079 Par ch=1 c=64 v=0
150083 On ch=1 n=f4 v=0
150199 On ch=1 n=d#5 v=77
150199 On ch=1 n=d#6 v=90
150199 On ch=1 n=d#4 v=70
150220 On ch=1 n=d#5 v=0
150223 On ch=1 n=d#4 v=0
150246 On ch=1 n=d#6 v=0
150326 On ch=1 n=c5 v=81
150326 On ch=1 n=c4 v=82
150326 On ch=1 n=c6 v=85
150328 On ch=1 n=c7 v=87
150356 On ch=1 n=c7 v=0
150356 On ch=1 n=c6 v=0
150367 On ch=1 n=c4 v=0
150367 On ch=1 n=c5 v=0
150463 On ch=1 n=a4 v=102
150468 On ch=1 n=a3 v=100
150468 On ch=1 n=a5 v=88
150472 On ch=1 n=a6 v=82
150539 Par ch=1 c=64 v=127
150563 On ch=1 n=a4 v=0
150567 On ch=1 n=a6 v=0
150571 On ch=1 n=a3 v=0
150583 On ch=1 n=a5 v=0
150663 On ch=1 n=f6 v=79
150663 On ch=1 n=f7 v=81
150663 On ch=1 n=f5 v=82
150663 On ch=1 n=f4 v=73
150679 On ch=1 n=f5 v=0
150683 On ch=1 n=f4 v=0
150683 On ch=1 n=f7 v=0
150683 On ch=1 n=f6 v=0
150787 On ch=1 n=d#6 v=90
150799 On ch=1 n=d#7 v=82
150799 On ch=1 n=d#5 v=74
150799 On ch=1 n=d#4 v=70
150816 Par ch=1 c=64 v=0
150823 On ch=1 n=d#7 v=0
150828 On ch=1 n=d#5 v=0
150831 On ch=1 n=d#6 v=0
150842 On ch=1 n=d#4 v=0
150922 On ch=1 n=c5 v=81
150926 On ch=1 n=c4 v=75
150935 On ch=1 n=c6 v=85
150939 On ch=1 n=c7 v=87
150949 On ch=1 n=c5 v=0
150956 On ch=1 n=c4 v=0
150966 On ch=1 n=c7 v=0
150977 On ch=1 n=c6 v=0
151073 On ch=1 n=a#4 v=89
151073 On ch=1 n=a#5 v=93
151081 On ch=1 n=a#6 v=89
151081 On ch=1 n=a#3 v=76
151093 Par ch=1 c=64 v=127
151110 On ch=1 n=a#4 v=0
151117 On ch=1 n=a#3 v=0
151126 On ch=1 n=a#5 v=0
151129 On ch=1 n=a#6 v=0
151214 On ch=1 n=d5 v=89
151229 On ch=1 n=d4 v=86
151229 On ch=1 n=d7 v=87
151229 On ch=1 n=d6 v=82
151269 On ch=1 n=d5 v=0
151277 On ch=1 n=d6 v=0
151277 On ch=1 n=d4 v=0
151282 On ch=1 n=d7 v=0
151333 Par ch=1 c=64 v=0
151373 On ch=1 n=c4 v=90
151373 On ch=1 n=c5 v=81
151377 On ch=1 n=c6 v=91
151381 On ch=1 n=c7 v=87
151417 On ch=1 n=c5 v=0
151422 On ch=1 n=c4 v=0
151426 On ch=1 n=c7 v=0
151426 On ch=1 n=c6 v=0
151486 Par ch=1 c=64 v=127
151533 On ch=1 n=f4 v=85
151537 On ch=1 n=f5 v=90
151542 On ch=1 n=f6 v=91
151542 On ch=1 n=f7 v=89
151553 On ch=1 n=f7 v=0
151553 On ch=1 n=f5 v=0
151553 On ch=1 n=f4 v=0
151570 On ch=1 n=f6 v=0
151660 On ch=1 n=c#5 v=90
151662 On ch=1 n=c#4 v=72
151669 On ch=1 n=c#6 v=99
151669 On ch=1 n=c#7 v=90
151689 On ch=1 n=c#4 v=0
151696 On ch=1 n=c#6 v=0
151713 On ch=1 n=c#7 v=0
151713 On ch=1 n=c#5 v=0
151814 On ch=1 n=f5 v=90
151821 On ch=1 n=f4 v=70
151821 On ch=1 n=f6 v=96
151821 On ch=1 n=f7 v=85
151837 On ch=1 n=f5 v=0
151842 On ch=1 n=f7 v=0
151854 On ch=1 n=f4 v=0
151861 On ch=1 n=f6 v=0
151949 On ch=1 n=d5 v=89
151960 On ch=1 n=d4 v=86
151960 On ch=1 n=d6 v=88
151966 On ch=1 n=d7 v=71
151981 On ch=1 n=d4 v=0
151990 On ch=1 n=d6 v=0
151993 On ch=1 n=d7 v=0
151993 On ch=1 n=d5 v=0
152113 On ch=1 n=a#5 v=88
152113 On ch=1 n=a#4 v=87
152121 On ch=1 n=a#7 v=95
152122 On ch=1 n=a#4 v=0
152122 On ch=1 n=a#5 v=0
152122 On ch=1 n=a#6 v=99
152146 On ch=1 n=a#6 v=0
152146 On ch=1 n=a#7 v=0
152253 On ch=1 n=d#5 v=83
152253 On ch=1 n=d#6 v=92
152261 On ch=1 n=d#7 v=90
152261 On ch=1 n=d#4 v=72
152269 On ch=1 n=d#4 v=0
152269 On ch=1 n=d#5 v=0
152281 On ch=1 n=d#6 v=0
152296 On ch=1 n=d#7 v=0
152389 On ch=1 n=g6 v=93
152393 On ch=1 n=g5 v=91
152393 On ch=1 n=g7 v=89
152402 On ch=1 n=g4 v=86
152413 On ch=1 n=g4 v=0
152413 On ch=1 n=g5 v=0
152413 Par ch=1 c=64 v=0
152429 On ch=1 n=g7 v=0
152433 On ch=1 n=g6 v=0
152516 On ch=1 n=f6 v=89
152522 On ch=1 n=f7 v=87
152522 On ch=1 n=f5 v=86
152522 On ch=1 n=f4 v=79
152540 Par ch=1 c=64 v=127
152546 On ch=1 n=f4 v=0
152554 On ch=1 n=f5 v=0
152561 On ch=1 n=f7 v=0
152569 On ch=1 n=f6 v=0
152662 On ch=1 n=a#5 v=86
152666 On ch=1 n=a#6 v=97
152666 On ch=1 n=a#4 v=73
152666 On ch=1 n=a#7 v=98
152681 On ch=1 n=a#4 v=0
152693 On ch=1 n=a#5 v=0
152713 On ch=1 n=a#6 v=0
152717 On ch=1 n=a#7 v=0
152801 On ch=1 n=g6 v=93
152809 On ch=1 n=g5 v=94
152809 On ch=1 n=g4 v=98
152809 On ch=1 n=g7 v=91
152900 On ch=1 n=g6 v=0
152902 On ch=1 n=g7 v=0
152913 On ch=1 n=g4 v=0
152913 On ch=1 n=g5 v=0
153021 On ch=1 n=f6 v=89
153029 On ch=1 n=f5 v=77
153029 On ch=1 n=f7 v=85
153029 On ch=1 n=f8 v=92
153046 On ch=1 n=f5 v=0
153066 On ch=1 n=f8 v=0
153066 On ch=1 n=f7 v=0
153093 On ch=1 n=f6 v=0
153182 On ch=1 n=d#7 v=92
153182 On ch=1 n=d#8 v=94
153182 On ch=1 n=d#5 v=77
153186 On ch=1 n=d#6 v=74
153213 On ch=1 n=d#6 v=0
153222 On ch=1 n=d#5 v=0
153222 On ch=1 n=d#7 v=0
153229 On ch=1 n=d#8 v=0
153321 On ch=1 n=a#6 v=97
153325 On ch=1 n=a#7 v=98
153325 On ch=1 n=a#4 v=71
153325 On ch=1 n=a#5 v=70
153349 On ch=1 n=a#4 v=0
153361 On ch=1 n=a#5 v=0
153361 On ch=1 n=a#6 v=0
153376 On ch=1 n=a#7 v=0
153420 Par ch=1 c=64 v=0
153457 On ch=1 n=g#5 v=95
153461 On ch=1 n=g#7 v=98
153461 On ch=1 n=g#4 v=84
153461 On ch=1 n=g#6 v=90
153557 On ch=1 n=g#5 v=0
153557 Par ch=1 c=64 v=127
153562 On ch=1 n=g#7 v=0
153566 On ch=1 n=g#6 v=0
153566 On ch=1 n=g#4 v=0
153622 On ch=1 n=f7 v=91
153622 On ch=1 n=f8 v=95
153622 On ch=1 n=f6 v=85
153622 On ch=1 n=f5 v=85
153633 On ch=1 n=f5 v=0
153633 On ch=1 n=f6 v=0
153662 On ch=1 n=f8 v=0
153662 On ch=1 n=f7 v=0
153769 On ch=1 n=d#6 v=84
153769 On ch=1 n=d#7 v=98
153773 On ch=1 n=d#8 v=103
153773 On ch=1 n=d#5 v=72
153783 On ch=1 n=d#6 v=0
153806 On ch=1 n=d#5 v=0
153810 On ch=1 n=d#7 v=0
153814 On ch=1 n=d#8 v=0
153891 On ch=1 n=c6 v=94
153894 On ch=1 n=c8 v=98
153899 On ch=1 n=c7 v=99
153899 On ch=1 n=c5 v=76
153910 On ch=1 n=c6 v=0
153917 On ch=1 n=c5 v=0
153943 On ch=1 n=c7 v=0
153954 On ch=1 n=c8 v=0
153974 Par ch=1 c=64 v=0
154034 On ch=1 n=a6 v=90
154043 On ch=1 n=a4 v=96
154043 On ch=1 n=a5 v=98
154043 On ch=1 n=a7 v=86
154134 On ch=1 n=a6 v=0
154138 Par ch=1 c=64 v=127
154142 On ch=1 n=a7 v=0
154142 On ch=1 n=a4 v=0
154153 On ch=1 n=a5 v=0
154278 On ch=1 n=f6 v=93
154278 On ch=1 n=f7 v=89
154279 On ch=1 n=f8 v=95
154279 On ch=1 n=f5 v=71
154303 On ch=1 n=f6 v=0
154318 On ch=1 n=f7 v=0
154323 On ch=1 n=f5 v=0
154323 On ch=1 n=f8 v=0
154439 On ch=1 n=d#6 v=95
154443 On ch=1 n=d#8 v=106
154443 On ch=1 n=d#5 v=87
154451 On ch=1 n=d#7 v=98
154506 On ch=1 n=d#7 v=0
154506 On ch=1 n=d#5 v=0
154506 On ch=1 n=d#6 v=0
154510 On ch=1 n=d#8 v=0
154614 On ch=1 n=c8 v=102
154623 On ch=1 n=c6 v=94
154623 On ch=1 n=c7 v=99
154623 On ch=1 n=c5 v=91
154658 On ch=1 n=c5 v=0
154658 On ch=1 n=c6 v=0
154670 On ch=1 n=c7 v=0
154670 On ch=1 n=c8 v=0
154727 Par ch=1 c=64 v=0
154794 On ch=1 n=a5 v=98
154798 On ch=1 n=a6 v=98
154798 On ch=1 n=a7 v=98
154798 On ch=1 n=a4 v=98
154837 On ch=1 n=a5 v=0
154847 On ch=1 n=a7 v=0
154847 On ch=1 n=a6 v=0
154855 On ch=1 n=a4 v=0
154895 Par ch=1 c=64 v=127
154990 On ch=1 n=f#5 v=86
154994 On ch=1 n=f#4 v=76
155004 On ch=1 n=f#6 v=94
155004 On ch=1 n=f#7 v=92
155027 On ch=1 n=f#4 v=0
155031 On ch=1 n=f#5 v=0
155043 On ch=1 n=f#7 v=0
155043 On ch=1 n=f#6 v=0
155143 On ch=1 n=d#6 v=98
155143 On ch=1 n=d#5 v=83
155143 On ch=1 n=d#4 v=82
155143 On ch=1 n=d#7 v=90
155176 On ch=1 n=d#4 v=0
155176 On ch=1 n=d#5 v=0
155187 On ch=1 n=d#7 v=0
155187 On ch=1 n=d#6 v=0
155283 On ch=1 n=c5 v=87
155291 On ch=1 n=c6 v=94
155296 On ch=1 n=c7 v=89
155296 On ch=1 n=c4 v=82
155300 On ch=1 n=c5 v=0
155307 On ch=1 n=c4 v=0
155335 On ch=1 n=c7 v=0
155335 On ch=1 n=c6 v=0
155414 On ch=1 n=a4 v=127
155424 On ch=1 n=a3 v=127
155424 On ch=1 n=a5 v=127
155424 On ch=1 n=a6 v=127
155454 On ch=1 n=a3 v=0
155454 On ch=1 n=a4 v=0
155456 On ch=1 n=a6 v=0
155467 On ch=1 n=a5 v=0
155563 On ch=1 n=f#3 v=95
155571 On ch=1 n=f#5 v=96
155571 On ch=1 n=f#4 v=94
155571 On ch=1 n=f#6 v=100
155591 On ch=1 n=f#4 v=0
155594 On ch=1 n=f#3 v=0
155604 On ch=1 n=f#6 v=0
155611 On ch=1 n=f#5 v=0
155696 On ch=1 n=d#4 v=98
155696 On ch=1 n=d#5 v=99
155696 On ch=1 n=d#3 v=100
155699 On ch=1 n=d#6 v=99
155727 On ch=1 n=d#6 v=0
155727 On ch=1 n=d#3 v=0
155727 On ch=1 n=d#4 v=0
155739 On ch=1 n=d#5 v=0
155820 On ch=1 n=c6 v=100
155831 On ch=1 n=c5 v=102
155867 On ch=1 n=c5 v=0
155870 On ch=1 n=c6 v=0
155956 On ch=1 n=a4 v=101
155956 On ch=1 n=a5 v=105
155980 On ch=1 n=a5 v=0
156007 On ch=1 n=a4 v=0
156096 On ch=1 n=f#4 v=106
156100 On ch=1 n=f#5 v=107
156143 On ch=1 n=f#4 v=0
156151 On ch=1 n=f#5 v=0
156231 On ch=1 n=d#4 v=109
156240 On ch=1 n=d#5 v=110
156263 On ch=1 n=d#5 v=0
156280 On ch=1 n=d#4 v=0
156371 On ch=1 n=c4 v=115
156371 On ch=1 n=c5 v=113
156400 On ch=1 n=c4 v=0
156403 On ch=1 n=c5 v=0
156491 On ch=1 n=a2 v=127
156494 On ch=1 n=a3 v=127
156494 On ch=1 n=a4 v=127
156551 On ch=1 n=a4 v=0
156551 On ch=1 n=a3 v=0
156651 Par ch=1 c=64 v=0
156690 On ch=1 n=a2 v=0
156760 On ch=1 n=a4 v=72
156764 On ch=1 n=a3 v=72
156823 On ch=1 n=a3 v=0
156823 On ch=1 n=a4 v=0
156891 On ch=1 n=a3 v=74
156896 On ch=1 n=a4 v=70
156944 On ch=1 n=a3 v=0
156951 On ch=1 n=a4 v=0
157051 On ch=1 n=a3 v=78
157051 On ch=1 n=a4 v=68
157087 On ch=1 n=a4 v=0
157087 On ch=1 n=a3 v=0
157168 On ch=1 n=a3 v=78
157168 On ch=1 n=a4 v=75
157203 On ch=1 n=a4 v=0
157214 On ch=1 n=a3 v=0
157296 On ch=1 n=a3 v=82
157299 On ch=1 n=a4 v=80
157327 On ch=1 n=a4 v=0
157351 On ch=1 n=a3 v=0
157430 On ch=1 n=a3 v=86
157434 On ch=1 n=a4 v=80
157487 On ch=1 n=a4 v=0
157491 On ch=1 n=a3 v=0
157560 Par ch=1 c=64 v=127
157576 On ch=1 n=a3 v=98
157584 On ch=1 n=a4 v=96
157584 On ch=1 n=a1 v=127
157650 On ch=1 n=a4 v=0
157650 On ch=1 n=a3 v=0
157736 On ch=1 n=a3 v=88
157736 On ch=1 n=a4 v=80
157804 On ch=1 n=a4 v=0
157808 On ch=1 n=a3 v=0
157860 On ch=1 n=a1 v=0
157903 On ch=1 n=a3 v=77
157903 On ch=1 n=a4 v=74
157931 On ch=1 n=a4 v=0
157941 On ch=1 n=a3 v=0
158025 On ch=1 n=a4 v=62
158025 On ch=1 n=a3 v=65
158061 On ch=1 n=a3 v=0
158068 On ch=1 n=a4 v=0
158153 On ch=1 n=a3 v=66
158153 On ch=1 n=a4 v=80
158184 On ch=1 n=a4 v=0
158200 On ch=1 n=a3 v=0
158316 On ch=1 n=a4 v=74
158316 On ch=1 n=a3 v=70
158360 On ch=1 n=a3 v=0
158360 On ch=1 n=a4 v=0
158440 On ch=1 n=a3 v=64
158440 On ch=1 n=a4 v=64
158488 On ch=1 n=a4 v=0
158491 On ch=1 n=a3 v=0
158564 On ch=1 n=a3 v=71
158571 On ch=1 n=a4 v=65
158604 On ch=1 n=a4 v=0
158613 On ch=1 n=a3 v=0
158708 On ch=1 n=a3 v=80
158708 On ch=1 n=a4 v=80
158712 On ch=1 n=a2 v=120
158767 On ch=1 n=a4 v=0
158773 On ch=1 n=a3 v=0
158884 On ch=1 n=a3 v=119
158884 On ch=1 n=a4 v=72
158911 On ch=1 n=a4 v=0
158921 On ch=1 n=a3 v=0
158984 On ch=1 n=a2 v=0
159005 On ch=1 n=a3 v=67
159009 On ch=1 n=a4 v=70
159034 On ch=1 n=a4 v=0
159045 On ch=1 n=a3 v=0
159149 On ch=1 n=a4 v=72
159149 On ch=1 n=a3 v=75
159208 On ch=1 n=a4 v=0
159218 On ch=1 n=a3 v=0
159274 On ch=1 n=f#4 v=120
159282 On ch=1 n=f#3 v=123
159297 On ch=1 n=a3 v=71
159297 On ch=1 n=a4 v=71
159330 Par ch=1 c=64 v=0
159348 On ch=1 n=a4 v=0
159348 On ch=1 n=a3 v=0
159457 On ch=1 n=a4 v=72
159457 On ch=1 n=a3 v=70
159510 On ch=1 n=a3 v=0
159525 Par ch=1 c=64 v=127
159541 On ch=1 n=a4 v=0
159610 On ch=1 n=a3 v=67
159610 On ch=1 n=a4 v=71
159648 On ch=1 n=a3 v=0
159654 On ch=1 n=a4 v=0
159741 On ch=1 n=a3 v=72
159741 On ch=1 n=a4 v=64
159774 On ch=1 n=a3 v=0
159774 On ch=1 n=f#3 v=0
159774 On ch=1 n=f#4 v=0
159789 On ch=1 n=a4 v=0
159861 On ch=1 n=a3 v=75
159861 On ch=1 n=a4 v=75
159889 On ch=1 n=a4 v=0
159889 On ch=1 n=a3 v=0
159981 On ch=1 n=a3 v=71
159981 On ch=1 n=a4 v=71
160033 On ch=1 n=a3 v=0
160041 On ch=1 n=a4 v=0
160105 On ch=1 n=f4 v=100
160108 On ch=1 n=f3 v=115
160114 On ch=1 n=a4 v=74
160122 On ch=1 n=a3 v=78
160145 On ch=1 n=a3 v=0
160145 On ch=1 n=a4 v=0
160210 On ch=1 n=f3 v=0
160245 On ch=1 n=f4 v=0
160270 On ch=1 n=a3 v=74
160270 On ch=1 n=a4 v=74
160328 On ch=1 n=a3 v=0
160338 On ch=1 n=a4 v=0
160442 On ch=1 n=d#4 v=111
160442 On ch=1 n=d#3 v=115
160454 Par ch=1 c=64 v=0
160462 On ch=1 n=a3 v=71
160462 On ch=1 n=a4 v=71
160502 On ch=1 n=a4 v=0
160502 On ch=1 n=a3 v=0
160621 On ch=1 n=a4 v=74
160621 On ch=1 n=a3 v=70
160638 Par ch=1 c=64 v=127
160654 On ch=1 n=a4 v=0
160658 On ch=1 n=a3 v=0
160742 On ch=1 n=a3 v=74
160742 On ch=1 n=a4 v=65
160762 On ch=1 n=d#4 v=0
160786 On ch=1 n=d#3 v=0
160805 On ch=1 n=a4 v=0
160805 On ch=1 n=a3 v=0
160878 On ch=1 n=a3 v=65
160878 On ch=1 n=a4 v=65
160926 On ch=1 n=a3 v=0
160934 On ch=1 n=a4 v=0
161022 On ch=1 n=c#4 v=118
161025 On ch=1 n=c#3 v=119
161035 On ch=1 n=a3 v=71
161038 On ch=1 n=a4 v=70
161050 Par ch=1 c=64 v=0
161054 On ch=1 n=a4 v=0
161054 On ch=1 n=a3 v=0
161178 On ch=1 n=a3 v=63
161178 On ch=1 n=a4 v=70
161222 On ch=1 n=a3 v=0
161226 On ch=1 n=a4 v=0
161238 Par ch=1 c=64 v=127
161318 On ch=1 n=a3 v=66
161318 On ch=1 n=a4 v=64
161358 On ch=1 n=a3 v=0
161358 On ch=1 n=c#3 v=0
161365 On ch=1 n=a4 v=0
161367 On ch=1 n=c#4 v=0
161447 On ch=1 n=a4 v=70
161451 On ch=1 n=a3 v=71
161486 On ch=1 n=a3 v=0
161498 On ch=1 n=a4 v=0
161606 On ch=1 n=c4 v=115
161606 On ch=1 n=c3 v=115
161607 On ch=1 n=a3 v=66
161607 On ch=1 n=a4 v=71
161622 Par ch=1 c=64 v=0
161632 On ch=1 n=a4 v=0
161655 On ch=1 n=a3 v=0
161763 On ch=1 n=a4 v=77
161763 On ch=1 n=a3 v=77
161768 Par ch=1 c=64 v=127
161788 On ch=1 n=c4 v=0
161803 On ch=1 n=a3 v=0
161803 On ch=1 n=a4 v=0
161815 On ch=1 n=c3 v=0
161911 On ch=1 n=a3 v=65
161911 On ch=1 n=a4 v=70
161939 On ch=1 n=a4 v=0
161948 On ch=1 n=a3 v=0
162032 On ch=1 n=a4 v=70
162032 On ch=1 n=a3 v=70
162091 On ch=1 n=a3 v=0
162095 On ch=1 n=a4 v=0
162211 On ch=1 n=a3 v=61
162215 On ch=1 n=a#3 v=116
162215 On ch=1 n=a4 v=70
162218 On ch=1 n=a#2 v=118
162239 Par ch=1 c=64 v=0
162242 On ch=1 n=a4 v=0
162259 On ch=1 n=a3 v=0
162368 On ch=1 n=a3 v=69
162372 On ch=1 n=a4 v=68
162404 On ch=1 n=a4 v=0
162404 Par ch=1 c=64 v=127
162411 On ch=1 n=a3 v=0
162528 On ch=1 n=a3 v=65
162528 On ch=1 n=a4 v=70
162556 On ch=1 n=a4 v=0
162556 On ch=1 n=a3 v=0
162559 On ch=1 n=a#3 v=0
162584 On ch=1 n=a#2 v=0
162647 On ch=1 n=a3 v=66
162658 On ch=1 n=a4 v=71
162691 On ch=1 n=a4 v=0
162701 On ch=1 n=a3 v=0
162788 On ch=1 n=a3 v=72
162792 On ch=1 n=a4 v=61
162809 Par ch=1 c=64 v=0
162828 On ch=1 n=a4 v=0
162828 On ch=1 n=a3 v=0
162936 On ch=1 n=a3 v=71
162936 On ch=1 n=a4 v=71
162969 On ch=1 n=a4 v=0
162980 On ch=1 n=a3 v=0
163069 On ch=1 n=a3 v=71
163072 On ch=1 n=a4 v=66
163099 On ch=1 n=a4 v=0
163116 On ch=1 n=a3 v=0
163196 On ch=1 n=a3 v=82
163196 On ch=1 n=a4 v=75
163229 On ch=1 n=a4 v=0
163269 On ch=1 n=a3 v=0
163361 On ch=1 n=a3 v=90
163361 On ch=1 n=a4 v=86
163365 Par ch=1 c=64 v=127
163376 On ch=1 n=a1 v=127
163421 On ch=1 n=a3 v=0
163428 On ch=1 n=a4 v=0
163521 On ch=1 n=a3 v=82
163525 Par ch=1 c=64 v=0
163525 On ch=1 n=a4 v=76
163541 On ch=1 n=a1 v=0
163568 On ch=1 n=a3 v=0
163580 On ch=1 n=a4 v=0
163665 On ch=1 n=a3 v=68
163669 On ch=1 n=a4 v=68
163696 On ch=1 n=a4 v=0
163706 On ch=1 n=a3 v=0
163793 On ch=1 n=a3 v=68
163793 On ch=1 n=a4 v=69
163837 On ch=1 n=a4 v=0
163837 On ch=1 n=a3 v=0
163938 On ch=1 n=a3 v=66
163938 On ch=1 n=a4 v=70
163973 On ch=1 n=a4 v=0
163983 On ch=1 n=a3 v=0
164066 On ch=1 n=a3 v=65
164066 On ch=1 n=a4 v=77
164114 On ch=1 n=a4 v=0
164115 On ch=1 n=a3 v=0
164219 On ch=1 n=a3 v=71
164219 On ch=1 n=a4 v=65
164250 On ch=1 n=a4 v=0
164260 On ch=1 n=a3 v=0
164343 On ch=1 n=a3 v=67
164343 On ch=1 n=a4 v=62
164387 On ch=1 n=a4 v=0
164390 On ch=1 n=a3 v=0
164476 Par ch=1 c=64 v=127
164503 On ch=1 n=a3 v=90
164503 On ch=1 n=a4 v=90
164510 On ch=1 n=a1 v=127
164567 On ch=1 n=a3 v=0
164571 On ch=1 n=a4 v=0
164656 On ch=1 n=a4 v=75
164656 On ch=1 n=a3 v=78
164703 On ch=1 n=a3 v=0
164719 On ch=1 n=a1 v=0
164723 On ch=1 n=a4 v=0
164799 Par ch=1 c=64 v=0
164810 On ch=1 n=a4 v=63
164810 On ch=1 n=a3 v=72
164846 On ch=1 n=a3 v=0
164852 On ch=1 n=a4 v=0
164943 On ch=1 n=a3 v=72
164943 On ch=1 n=a4 v=66
164987 On ch=1 n=a4 v=0
164987 On ch=1 n=a3 v=0
165099 On ch=1 n=a3 v=67
165099 On ch=1 n=a4 v=66
165143 On ch=1 n=a4 v=0
165143 On ch=1 n=a3 v=0
165227 On ch=1 n=a3 v=65
165227 On ch=1 n=a4 v=68
165272 On ch=1 n=a3 v=0
165287 On ch=1 n=a4 v=0
165367 On ch=1 n=a4 v=63
165371 On ch=1 n=a3 v=68
165423 On ch=1 n=a3 v=0
165440 On ch=1 n=a4 v=0
165487 On ch=1 n=a4 v=75
165516 On ch=1 n=a3 v=71
165532 On ch=1 n=a4 v=0
165546 On ch=1 n=a3 v=0
165552 Par ch=1 c=64 v=127
165650 On ch=1 n=a3 v=67
165656 On ch=1 n=a4 v=66
165656 On ch=1 n=a2 v=120
165719 On ch=1 n=a4 v=0
165731 On ch=1 n=a3 v=0
165843 On ch=1 n=a3 v=65
165843 On ch=1 n=a4 v=69
165884 On ch=1 n=a4 v=0
165884 On ch=1 n=a3 v=0
165992 On ch=1 n=a3 v=67
165992 On ch=1 n=a4 v=63
166023 On ch=1 n=a4 v=0
166031 On ch=1 n=a2 v=0
166039 On ch=1 n=a3 v=0
166127 On ch=1 n=a3 v=74
166127 On ch=1 n=a4 v=69
166171 On ch=1 n=a3 v=0
166175 On ch=1 n=a4 v=0
166300 On ch=1 n=g4 v=115
166300 On ch=1 n=g3 v=116
166300 On ch=1 n=a3 v=72
166300 On ch=1 n=a4 v=64
166319 Par ch=1 c=64 v=0
166327 On ch=1 n=a4 v=0
166327 On ch=1 n=a3 v=0
166471 Par ch=1 c=64 v=127
166527 On ch=1 n=a3 v=64
166527 On ch=1 n=a4 v=64
166590 On ch=1 n=a3 v=0
166607 On ch=1 n=a4 v=0
166667 On ch=1 n=a4 v=66
166667 On ch=1 n=a3 v=75
166712 On ch=1 n=a3 v=0
166803 On ch=1 n=a4 v=0
166811 On ch=1 n=a4 v=71
166811 On ch=1 n=a3 v=74
166847 On ch=1 n=a3 v=0
166932 On ch=1 n=a4 v=0
166936 On ch=1 n=a4 v=70
166936 On ch=1 n=a3 v=77
166991 On ch=1 n=a3 v=0
166995 On ch=1 n=a4 v=0
167059 On ch=1 n=a3 v=77
167059 On ch=1 n=a4 v=77
167096 On ch=1 n=g3 v=0
167110 On ch=1 n=a4 v=0
167156 On ch=1 n=a3 v=0
167187 On ch=1 n=f4 v=115
167199 On ch=1 n=f3 v=116
167199 On ch=1 n=a3 v=74
167199 On ch=1 n=a4 v=74
167203 Par ch=1 c=64 v=0
167247 On ch=1 n=a4 v=0
167247 On ch=1 n=a3 v=0
167336 Par ch=1 c=64 v=127
167343 On ch=1 n=a3 v=69
167343 On ch=1 n=a4 v=69
167403 On ch=1 n=a4 v=0
167403 On ch=1 n=a3 v=0
167436 On ch=1 n=f4 v=0
167467 On ch=1 n=g4 v=0
167479 On ch=1 n=f3 v=0
167511 Par ch=1 c=64 v=0
167523 On ch=1 n=e3 v=117
167523 On ch=1 n=e4 v=115
167523 On ch=1 n=a3 v=73
167523 On ch=1 n=a4 v=73
167571 On ch=1 n=a4 v=0
167571 On ch=1 n=a3 v=0
167644 Par ch=1 c=64 v=127
167692 On ch=1 n=a4 v=69
167696 On ch=1 n=a3 v=68
167724 On ch=1 n=e4 v=0
167739 On ch=1 n=a3 v=0
167739 On ch=1 n=e3 v=0
167750 On ch=1 n=a4 v=0
167826 On ch=1 n=a3 v=69
167830 On ch=1 n=a4 v=68
167870 On ch=1 n=a4 v=0
167870 On ch=1 n=a3 v=0
167956 On ch=1 n=a3 v=68
167959 On ch=1 n=a4 v=66
168010 On ch=1 n=a4 v=0
168031 On ch=1 n=a3 v=0
168111 On ch=1 n=d3 v=115
168112 On ch=1 n=d4 v=116
168115 On ch=1 n=a4 v=69
168119 On ch=1 n=a3 v=68
168159 On ch=1 n=a4 v=0
168170 On ch=1 n=a3 v=0
168172 Par ch=1 c=64 v=0
168287 On ch=1 n=a3 v=70
168287 On ch=1 n=a4 v=64
168332 Par ch=1 c=64 v=127
168346 On ch=1 n=a4 v=0
168346 On ch=1 n=a3 v=0
168399 On ch=1 n=d4 v=0
168415 On ch=1 n=d3 v=0
168439 On ch=1 n=a3 v=67
168443 On ch=1 n=a4 v=63
168512 On ch=1 n=a4 v=0
168523 On ch=1 n=a3 v=0
168570 On ch=1 n=a3 v=69
168570 On ch=1 n=a4 v=70
168646 On ch=1 n=a4 v=0
168663 On ch=1 n=a3 v=0
168752 On ch=1 n=c#4 v=118
168756 On ch=1 n=c#3 v=119
168763 On ch=1 n=a4 v=69
168763 On ch=1 n=a3 v=68
168796 Par ch=1 c=64 v=0
168811 On ch=1 n=a3 v=0
168819 On ch=1 n=a4 v=0
168980 On ch=1 n=a4 v=69
168983 On ch=1 n=a3 v=66
169003 Par ch=1 c=64 v=127
169024 On ch=1 n=a3 v=0
169032 On ch=1 n=a4 v=0
169135 On ch=1 n=a4 v=69
169135 On ch=1 n=a3 v=68
169183 On ch=1 n=a4 v=0
169192 On ch=1 n=a3 v=0
169192 On ch=1 n=c#4 v=0
169195 On ch=1 n=c#3 v=0
169272 On ch=1 n=a4 v=77
169272 On ch=1 n=a3 v=75
169336 On ch=1 n=a3 v=0
169347 On ch=1 n=a4 v=0
169467 On ch=1 n=a#3 v=115
169467 On ch=1 n=a#2 v=116
169471 On ch=1 n=a4 v=69
169471 On ch=1 n=a3 v=68
169487 Par ch=1 c=64 v=0
169516 On ch=1 n=a3 v=0
169530 On ch=1 n=a4 v=0
169656 On ch=1 n=a4 v=70
169656 On ch=1 n=a3 v=70
169686 Par ch=1 c=64 v=127
169719 On ch=1 n=a3 v=0
169730 On ch=1 n=a4 v=0
169823 On ch=1 n=a4 v=70
169823 On ch=1 n=a3 v=69
169859 On ch=1 n=a4 v=0
169883 On ch=1 n=a3 v=0
169983 On ch=1 n=a4 v=69
169986 On ch=1 n=a3 v=66
170023 On ch=1 n=a3 v=0
170030 On ch=1 n=a#3 v=0
170040 On ch=1 n=a4 v=0
170056 On ch=1 n=a#2 v=0
170309 On ch=1 n=a4 v=69
170309 On ch=1 n=d4 v=70
170309 On ch=1 n=a#4 v=71
170361 On ch=1 n=a#4 v=0
170361 On ch=1 n=a4 v=0
170364 On ch=1 n=d4 v=0
170507 On ch=1 n=a4 v=69
170507 On ch=1 n=a#4 v=64
170507 On ch=1 n=d4 v=69
170553 On ch=1 n=a4 v=0
170560 On ch=1 n=a#4 v=0
170564 On ch=1 n=d4 v=0
170669 Par ch=1 c=64 v=0
170700 On ch=1 n=a3 v=100
170700 On ch=1 n=a2 v=100
170700 On ch=1 n=a#4 v=69
170704 On ch=1 n=a4 v=68
170704 On ch=1 n=d4 v=70
170744 On ch=1 n=d4 v=0
170760 On ch=1 n=a4 v=0
170760 On ch=1 n=a#4 v=0
170881 Par ch=1 c=64 v=127
170884 On ch=1 n=a4 v=68
170892 On ch=1 n=a#4 v=62
170892 On ch=1 n=d4 v=69
170940 On ch=1 n=d4 v=0
170940 On ch=1 n=a#4 v=0
170947 On ch=1 n=a3 v=0
170949 On ch=1 n=a4 v=0
170949 On ch=1 n=a2 v=0
171177 On ch=1 n=g5 v=99
171189 On ch=1 n=a#4 v=69
171189 On ch=1 n=a4 v=69
171189 On ch=1 n=d4 v=69
171244 On ch=1 n=d4 v=0
171244 On ch=1 n=a4 v=0
171244 On ch=1 n=a#4 v=0
171373 On ch=1 n=a#4 v=69
171377 On ch=1 n=d4 v=68
171377 On ch=1 n=a4 v=70
171424 On ch=1 n=a4 v=0
171433 On ch=1 n=d4 v=0
171433 On ch=1 n=a#4 v=0
171553 On ch=1 n=d4 v=69
171553 On ch=1 n=a#4 v=69
171557 On ch=1 n=a4 v=68
171600 On ch=1 n=a4 v=0
171600 On ch=1 n=a#4 v=0
171620 On ch=1 n=d4 v=0
171673 On ch=1 n=g5 v=0
171728 On ch=1 n=a#4 v=69
171728 On ch=1 n=a4 v=68
171728 On ch=1 n=d4 v=70
171729 On ch=1 n=f5 v=95
171764 On ch=1 n=d4 v=0
171773 On ch=1 n=a4 v=0
171781 On ch=1 n=a#4 v=0
171824 On ch=1 n=f5 v=0
171876 On ch=1 n=e5 v=94
171886 On ch=1 n=a4 v=68
171886 On ch=1 n=d4 v=65
171886 On ch=1 n=a#4 v=62
171937 On ch=1 n=a4 v=0
171941 On ch=1 n=a#4 v=0
171953 On ch=1 n=d4 v=0
172026 On ch=1 n=a#4 v=62
172034 On ch=1 n=a4 v=65
172034 On ch=1 n=d4 v=68
172078 On ch=1 n=d4 v=0
172078 On ch=1 n=a4 v=0
172081 On ch=1 n=a#4 v=0
172166 On ch=1 n=e5 v=0
172181 On ch=1 n=a#4 v=65
172181 On ch=1 n=a4 v=71
172185 On ch=1 n=d4 v=65
172218 On ch=1 n=d5 v=99
172225 On ch=1 n=a4 v=0
172277 On ch=1 n=d4 v=0
172287 On ch=1 n=a#4 v=0
172411 On ch=1 n=a#4 v=67
172411 On ch=1 n=a4 v=67
172411 On ch=1 n=d4 v=67
172435 On ch=1 n=a#4 v=0
172458 On ch=1 n=d4 v=0
172458 On ch=1 n=a4 v=0
172498 Par ch=1 c=64 v=0
172508 On ch=1 n=d5 v=0
172523 Par ch=1 c=64 v=127
172531 On ch=1 n=c5 v=88
172567 On ch=1 n=a4 v=65
172567 On ch=1 n=d4 v=68
172567 On ch=1 n=a#4 v=91
172615 On ch=1 n=d4 v=0
172618 On ch=1 n=a4 v=0
172720 On ch=1 n=d4 v=66
172720 On ch=1 n=a4 v=62
172778 On ch=1 n=a4 v=0
172778 On ch=1 n=d4 v=0
172778 On ch=1 n=a#4 v=0
172839 On ch=1 n=c5 v=0
172880 On ch=1 n=a4 v=77
172880 On ch=1 n=d4 v=70
172880 On ch=1 n=a#4 v=70
172944 On ch=1 n=a4 v=0
172971 On ch=1 n=d4 v=0
173032 On ch=1 n=d4 v=66
173032 On ch=1 n=a4 v=69
173060 On ch=1 n=a#4 v=0
173064 On ch=1 n=a4 v=0
173098 On ch=1 n=d4 v=0
173180 On ch=1 n=a#4 v=74
173180 On ch=1 n=a4 v=61
173184 On ch=1 n=f4 v=61
173184 On ch=1 n=d5 v=61
173231 On ch=1 n=d5 v=0
173231 On ch=1 n=a4 v=0
173235 On ch=1 n=f4 v=0
173245 On ch=1 n=a#4 v=0
173332 On ch=1 n=a#4 v=59
173332 On ch=1 n=a4 v=68
173336 On ch=1 n=f4 v=60
173336 On ch=1 n=d5 v=69
173381 On ch=1 n=d5 v=0
173384 On ch=1 n=f4 v=0
173404 On ch=1 n=a4 v=0
173404 On ch=1 n=a#4 v=0
173476 On ch=1 n=a4 v=66
173484 On ch=1 n=a#4 v=63
173484 On ch=1 n=d5 v=69
173484 On ch=1 n=f4 v=67
173484 On ch=1 n=a3 v=111
173484 On ch=1 n=a2 v=111
173525 On ch=1 n=f4 v=0
173536 On ch=1 n=d5 v=0
173536 On ch=1 n=a#4 v=0
173548 On ch=1 n=a4 v=0
173625 On ch=1 n=a3 v=0
173625 On ch=1 n=a4 v=66
173636 On ch=1 n=a2 v=0
173636 On ch=1 n=a#4 v=69
173636 On ch=1 n=f4 v=66
173636 On ch=1 n=d5 v=66
173672 On ch=1 n=a#4 v=0
173689 On ch=1 n=d5 v=0
173689 On ch=1 n=f4 v=0
173692 On ch=1 n=a4 v=0
173797 On ch=1 n=a4 v=66
173797 On ch=1 n=a#4 v=64
173797 On ch=1 n=f4 v=66
173797 On ch=1 n=d5 v=66
173804 On ch=1 n=f5 v=80
173804 On ch=1 n=d6 v=95
173849 On ch=1 n=a4 v=0
173852 On ch=1 n=f4 v=0
173852 On ch=1 n=a#4 v=0
173856 On ch=1 n=d5 v=0
173994 On ch=1 n=d6 v=0
173994 On ch=1 n=f5 v=0
174105 On ch=1 n=a4 v=65
174114 On ch=1 n=a#4 v=69
174114 On ch=1 n=f4 v=68
174114 On ch=1 n=d5 v=69
174169 On ch=1 n=d5 v=0
174169 On ch=1 n=f4 v=0
174169 On ch=1 n=a#4 v=0
174169 On ch=1 n=a4 v=0
174237 On ch=1 n=e5 v=80
174241 On ch=1 n=c6 v=91
174292 On ch=1 n=e5 v=0
174294 On ch=1 n=c6 v=0
174353 On ch=1 n=d5 v=69
174353 On ch=1 n=a#4 v=68
174354 On ch=1 n=a4 v=69
174354 On ch=1 n=f4 v=69
174354 On ch=1 n=c5 v=83
174394 On ch=1 n=a4 v=0
174409 On ch=1 n=f4 v=0
174409 On ch=1 n=a#4 v=0
174409 On ch=1 n=d5 v=0
174409 On ch=1 n=a#5 v=90
174501 On ch=1 n=c5 v=0
174505 On ch=1 n=a4 v=64
174509 On ch=1 n=a#4 v=60
174512 On ch=1 n=f4 v=56
174545 On ch=1 n=a#4 v=0
174554 On ch=1 n=a4 v=0
174558 On ch=1 n=f4 v=0
174561 On ch=1 n=a#5 v=0
174609 On ch=1 n=a4 v=66
174609 On ch=1 n=a#4 v=66
174609 On ch=1 n=f4 v=66
174614 On ch=1 n=d5 v=66
174645 On ch=1 n=d5 v=0
174645 On ch=1 n=f4 v=0
174645 On ch=1 n=a#4 v=0
174645 On ch=1 n=a4 v=0
174673 On ch=1 n=a#4 v=62
174673 On ch=1 n=f4 v=69
174681 On ch=1 n=d5 v=65
174685 On ch=1 n=a4 v=69
174692 On ch=1 n=d5 v=0
174721 On ch=1 n=a4 v=0
174732 On ch=1 n=a5 v=89
174738 On ch=1 n=c5 v=89
174745 On ch=1 n=a#4 v=0
174753 On ch=1 n=f4 v=0
174852 On ch=1 n=a5 v=0
174858 On ch=1 n=c5 v=0
174901 On ch=1 n=a4 v=70
174901 On ch=1 n=f4 v=69
174901 On ch=1 n=d5 v=69
174901 On ch=1 n=a#4 v=69
174952 On ch=1 n=f4 v=0
174962 On ch=1 n=a#4 v=0
174962 On ch=1 n=d5 v=0
174962 On ch=1 n=a4 v=0
175022 On ch=1 n=g5 v=92
175026 On ch=1 n=a#4 v=57
175082 On ch=1 n=a4 v=65
175082 On ch=1 n=f4 v=69
175094 On ch=1 n=d5 v=69
175129 On ch=1 n=a4 v=0
175139 On ch=1 n=d5 v=0
175139 On ch=1 n=f4 v=0
175146 On ch=1 n=g5 v=0
175166 On ch=1 n=a#4 v=0
175249 On ch=1 n=d5 v=69
175255 On ch=1 n=a#4 v=56
175262 On ch=1 n=a#4 v=0
175262 On ch=1 n=a4 v=62
175262 On ch=1 n=f4 v=74
175282 On ch=1 n=f4 v=0
175286 On ch=1 n=a4 v=0
175306 On ch=1 n=d5 v=0
175398 On ch=1 n=a4 v=66
175398 On ch=1 n=f4 v=69
175402 On ch=1 n=f5 v=88
175405 On ch=1 n=d5 v=80
175446 On ch=1 n=f4 v=0
175446 On ch=1 n=a4 v=0
175538 On ch=1 n=a#4 v=80
175538 On ch=1 n=a4 v=69
175538 On ch=1 n=f4 v=66
175549 Par ch=1 c=64 v=0
175571 On ch=1 n=f5 v=0
175642 On ch=1 n=a#4 v=0
175646 On ch=1 n=d5 v=0
175651 On ch=1 n=f4 v=0
175651 On ch=1 n=a4 v=0
175691 Par ch=1 c=64 v=127
175691 On ch=1 n=a4 v=66
175699 On ch=1 n=f4 v=69
175751 On ch=1 n=f4 v=0
175751 On ch=1 n=a4 v=0
175811 On ch=1 n=a#4 v=69
175811 On ch=1 n=f4 v=69
175815 On ch=1 n=a4 v=69
175815 On ch=1 n=d5 v=85
175963 On ch=1 n=a#4 v=0
175971 On ch=1 n=f4 v=0
175974 On ch=1 n=d5 v=0
175974 On ch=1 n=a4 v=0
176130 On ch=1 n=g4 v=77
176134 On ch=1 n=e5 v=78
176142 On ch=1 n=a#4 v=67
176149 On ch=1 n=d5 v=62
176258 On ch=1 n=e5 v=0
176258 On ch=1 n=g4 v=0
176268 On ch=1 n=d5 v=0
176268 On ch=1 n=a#4 v=0
176275 On ch=1 n=d5 v=63
176275 On ch=1 n=g4 v=63
176279 On ch=1 n=e5 v=78
176332 On ch=1 n=g4 v=0
176339 On ch=1 n=d5 v=0
176383 Par ch=1 c=64 v=0
176399 On ch=1 n=a3 v=115
176407 On ch=1 n=e5 v=0
176407 On ch=1 n=a2 v=115
176411 On ch=1 n=a#4 v=62
176419 On ch=1 n=g4 v=61
176423 On ch=1 n=d5 v=57
176443 On ch=1 n=e5 v=75
176499 On ch=1 n=e5 v=0
176503 On ch=1 n=d5 v=0
176503 On ch=1 n=g4 v=0
176503 On ch=1 n=a#4 v=0
176520 On ch=1 n=a3 v=0
176536 Par ch=1 c=64 v=127
176547 On ch=1 n=a2 v=0
176567 On ch=1 n=d5 v=62
176567 On ch=1 n=g4 v=63
176568 On ch=1 n=a#4 v=62
176576 On ch=1 n=e5 v=75
176623 On ch=1 n=d5 v=0
176671 On ch=1 n=a#4 v=0
176671 On ch=1 n=g4 v=0
176683 On ch=1 n=e5 v=0
176859 On ch=1 n=g6 v=92
176869 On ch=1 n=d6 v=74
176869 On ch=1 n=a#5 v=88
176963 On ch=1 n=g6 v=0
176984 On ch=1 n=d6 v=0
176996 On ch=1 n=a#5 v=0
177085 On ch=1 n=a#4 v=56
177085 On ch=1 n=d5 v=61
177092 On ch=1 n=g4 v=62
177140 On ch=1 n=a#4 v=0
177145 On ch=1 n=g4 v=0
177145 On ch=1 n=d5 v=0
177213 On ch=1 n=d5 v=61
177213 On ch=1 n=g4 v=67
177216 On ch=1 n=a#4 v=65
177265 On ch=1 n=a#4 v=0
177276 On ch=1 n=g4 v=0
177284 On ch=1 n=d5 v=0
177329 On ch=1 n=f6 v=87
177329 On ch=1 n=c6 v=77
177344 On ch=1 n=a5 v=76
177360 On ch=1 n=d5 v=61
177360 On ch=1 n=g4 v=66
177377 On ch=1 n=a#4 v=67
177377 On ch=1 n=e5 v=61
177400 On ch=1 n=c6 v=0
177405 On ch=1 n=a5 v=0
177420 On ch=1 n=a#4 v=0
177420 On ch=1 n=f6 v=0
177436 On ch=1 n=e5 v=0
177436 On ch=1 n=g4 v=0
177445 On ch=1 n=d5 v=0
177492 On ch=1 n=e6 v=92
177500 On ch=1 n=a#5 v=80
177500 On ch=1 n=d5 v=61
177512 On ch=1 n=g4 v=66
177512 On ch=1 n=g5 v=81
177512 On ch=1 n=a#4 v=74
177522 On ch=1 n=e5 v=60
177545 Par ch=1 c=64 v=0
177580 On ch=1 n=a#4 v=0
177590 On ch=1 n=e5 v=0
177590 On ch=1 n=d5 v=0
177597 On ch=1 n=g4 v=0
177602 On ch=1 n=g5 v=0
177602 On ch=1 n=e6 v=0
177641 On ch=1 n=a#5 v=0
177649 Par ch=1 c=64 v=127
177657 On ch=1 n=g4 v=70
177662 On ch=1 n=d5 v=72
177670 On ch=1 n=a#4 v=71
177677 On ch=1 n=e5 v=71
177713 On ch=1 n=a#4 v=0
177723 On ch=1 n=e5 v=0
177737 On ch=1 n=g4 v=0
177739 On ch=1 n=d5 v=0
177799 On ch=1 n=g4 v=64
177811 On ch=1 n=d5 v=65
177811 On ch=1 n=a#4 v=69
177811 On ch=1 n=f5 v=84
177818 On ch=1 n=d6 v=90
177826 On ch=1 n=a5 v=76
177826 On ch=1 n=e5 v=65
177870 On ch=1 n=e5 v=0
177874 On ch=1 n=g4 v=0
177891 On ch=1 n=a5 v=0
177891 On ch=1 n=f5 v=0
177891 On ch=1 n=a#4 v=0
177894 On ch=1 n=d5 v=0
177911 On ch=1 n=d6 v=0
177954 On ch=1 n=d5 v=65
177957 On ch=1 n=a#4 v=52
177957 On ch=1 n=g4 v=65
177990 On ch=1 n=e5 v=65
178023 On ch=1 n=g4 v=0
178023 On ch=1 n=a#4 v=0
178083 On ch=1 n=d5 v=0
178094 On ch=1 n=e5 v=0
178094 On ch=1 n=a#4 v=57
178094 On ch=1 n=g4 v=68
178111 On ch=1 n=c6 v=89
178111 On ch=1 n=g5 v=63
178158 On ch=1 n=g4 v=0
178158 On ch=1 n=a#4 v=0
178227 On ch=1 n=g4 v=63
178230 On ch=1 n=a#4 v=65
178254 On ch=1 n=e5 v=65
178290 On ch=1 n=e5 v=0
178297 On ch=1 n=a#4 v=0
178307 On ch=1 n=g4 v=0
178366 On ch=1 n=f5 v=65
178373 On ch=1 n=d5 v=70
178373 On ch=1 n=g4 v=61
178379 On ch=1 n=g5 v=0
178379 On ch=1 n=a#4 v=65
178397 On ch=1 n=e5 v=65
178414 On ch=1 n=a#5 v=88
178422 On ch=1 n=c6 v=0
178426 On ch=1 n=a#4 v=0
178437 On ch=1 n=f5 v=0
178454 On ch=1 n=e5 v=0
178499 On ch=1 n=g4 v=0
178499 On ch=1 n=g4 v=52
178513 On ch=1 n=d5 v=0
178513 On ch=1 n=a#4 v=67
178513 On ch=1 n=d5 v=65
178559 On ch=1 n=g4 v=0
178570 On ch=1 n=a#4 v=0
178578 On ch=1 n=d5 v=0
178638 On ch=1 n=a#5 v=0
178783 On ch=1 n=a#4 v=89
178783 On ch=1 n=d5 v=77
178794 On ch=1 n=e5 v=79
178802 On ch=1 n=g5 v=87
178858 On ch=1 n=a#4 v=0
178866 On ch=1 n=e5 v=0
178874 On ch=1 n=g5 v=0
178874 On ch=1 n=d5 v=0
178917 On ch=1 n=g5 v=65
178934 On ch=1 n=a#4 v=77
178934 On ch=1 n=d5 v=65
178950 On ch=1 n=e5 v=70
178994 Par ch=1 c=64 v=0
179010 On ch=1 n=a#4 v=0
179019 On ch=1 n=d5 v=0
179022 On ch=1 n=g5 v=0
179070 On ch=1 n=e5 v=0
179070 On ch=1 n=a3 v=98
179079 On ch=1 n=g5 v=56
179079 On ch=1 n=a2 v=110
179082 On ch=1 n=d5 v=64
179086 On ch=1 n=e5 v=62
179097 On ch=1 n=a#4 v=69
179138 On ch=1 n=a3 v=0
179174 On ch=1 n=e5 v=0
179174 Par ch=1 c=64 v=127
179177 On ch=1 n=a#4 v=0
179191 On ch=1 n=d5 v=0
179191 On ch=1 n=g5 v=0
179210 On ch=1 n=a2 v=0
179234 On ch=1 n=d5 v=50
179234 On ch=1 n=e5 v=74
179238 On ch=1 n=a#4 v=67
179282 On ch=1 n=e5 v=0
179310 On ch=1 n=a#4 v=0
179330 On ch=1 n=d5 v=0
179543 On ch=1 n=d6 v=88
179550 On ch=1 n=a#6 v=110
179554 On ch=1 n=g6 v=75
179618 On ch=1 n=d6 v=0
179626 On ch=1 n=a#6 v=0
179638 On ch=1 n=g6 v=0
179757 On ch=1 n=e5 v=74
179763 On ch=1 n=d5 v=71
179763 On ch=1 n=a#4 v=67
179817 On ch=1 n=a#4 v=0
179834 On ch=1 n=e5 v=0
179839 On ch=1 n=d5 v=0
179898 On ch=1 n=d5 v=71
179899 On ch=1 n=e5 v=72
179910 On ch=1 n=a#4 v=65
179974 On ch=1 n=a#4 v=0
179984 On ch=1 n=e5 v=0
179984 On ch=1 n=d5 v=0
180063 On ch=1 n=c6 v=91
180063 On ch=1 n=a6 v=88
180063 On ch=1 n=d5 v=63
180067 On ch=1 n=e5 v=71
180076 On ch=1 n=a#4 v=74
180076 On ch=1 n=f6 v=78
180076 On ch=1 n=g5 v=74
180124 On ch=1 n=c6 v=0
180136 On ch=1 n=f6 v=0
180136 On ch=1 n=a#4 v=0
180147 On ch=1 n=e5 v=0
180147 On ch=1 n=d5 v=0
180150 On ch=1 n=a6 v=0
180167 On ch=1 n=g5 v=0
180227 On ch=1 n=d5 v=65
180227 On ch=1 n=e5 v=62
180230 On ch=1 n=a#4 v=71
180230 On ch=1 n=g6 v=89
180236 On ch=1 n=a#5 v=90
180236 On ch=1 n=e6 v=79
180236 On ch=1 n=g5 v=74
180319 On ch=1 n=d5 v=0
180327 On ch=1 n=a#4 v=0
180331 On ch=1 n=e5 v=0
180341 On ch=1 n=a#5 v=0
180341 On ch=1 n=g6 v=0
180352 On ch=1 n=g5 v=0
180352 On ch=1 n=e6 v=0
180400 On ch=1 n=d5 v=56
180400 On ch=1 n=e5 v=62
180400 On ch=1 n=a#4 v=56
180477 On ch=1 n=d5 v=0
180488 On ch=1 n=a#4 v=0
180488 On ch=1 n=e5 v=0
180536 On ch=1 n=d5 v=54
180548 On ch=1 n=e5 v=61
180548 On ch=1 n=a#4 v=62
180576 On ch=1 n=f6 v=83
180576 On ch=1 n=d6 v=74
180576 On ch=1 n=a5 v=82
180653 On ch=1 n=e5 v=0
180653 On ch=1 n=d5 v=0
180664 On ch=1 n=a#4 v=0
180674 On ch=1 n=d6 v=0
180681 On ch=1 n=a5 v=0
180691 On ch=1 n=f6 v=0
180718 On ch=1 n=a#4 v=56
180718 On ch=1 n=d5 v=54
180726 On ch=1 n=e5 v=61
180794 On ch=1 n=d5 v=0
180794 On ch=1 n=a#4 v=0
180798 On ch=1 n=e5 v=0
180874 On ch=1 n=e6 v=88
180878 On ch=1 n=d5 v=58
180887 On ch=1 n=a#4 v=66
180887 On ch=1 n=c6 v=81
180887 On ch=1 n=e5 v=57
180938 On ch=1 n=e6 v=0
180947 On ch=1 n=e5 v=0
180947 On ch=1 n=d5 v=0
180961 On ch=1 n=a#4 v=0
180994 On ch=1 n=c6 v=0
181022 On ch=1 n=d5 v=58
181032 On ch=1 n=e5 v=55
181035 On ch=1 n=a#4 v=62
181095 On ch=1 n=e5 v=0
181102 On ch=1 n=d5 v=0
181108 On ch=1 n=a#4 v=0
181175 On ch=1 n=d5 v=50
181182 On ch=1 n=d6 v=82
181184 On ch=1 n=a#5 v=82
181195 On ch=1 n=e5 v=56
181195 On ch=1 n=a#4 v=63
181244 On ch=1 n=a#5 v=0
181244 On ch=1 n=d6 v=0
181252 On ch=1 n=e5 v=0
181319 On ch=1 n=d5 v=0
181322 On ch=1 n=d5 v=61
181336 On ch=1 n=a#4 v=0
181336 On ch=1 n=a#4 v=74
181343 On ch=1 n=e5 v=56
181427 On ch=1 n=d5 v=0
181452 On ch=1 n=e5 v=0
181452 On ch=1 n=a#4 v=0
181524 On ch=1 n=e5 v=61
181539 On ch=1 n=a4 v=72
181539 On ch=1 n=c#5 v=67
181556 On ch=1 n=g5 v=61
181603 On ch=1 n=g5 v=0
181636 On ch=1 n=a4 v=0
181644 On ch=1 n=c#5 v=0
181644 On ch=1 n=e5 v=0
181704 On ch=1 n=e5 v=61
181708 On ch=1 n=c#5 v=62
181719 On ch=1 n=a4 v=58
181719 On ch=1 n=g5 v=61
181768 On ch=1 n=e5 v=0
181822 On ch=1 n=c#5 v=0
181828 On ch=1 n=a4 v=0
181895 On ch=1 n=g5 v=0
181899 On ch=1 n=g5 v=62
181904 Par ch=1 c=64 v=0
181904 On ch=1 n=a2 v=86
181908 On ch=1 n=a3 v=84
181908 On ch=1 n=a4 v=62
181923 On ch=1 n=c#5 v=61
181923 On ch=1 n=e5 v=62
181979 On ch=1 n=c#5 v=0
181991 On ch=1 n=a4 v=0
181995 On ch=1 n=g5 v=0
182004 On ch=1 n=e5 v=0
182075 Par ch=1 c=64 v=127
182084 On ch=1 n=a4 v=57
182087 On ch=1 n=a3 v=0
182087 On ch=1 n=e5 v=56
182099 On ch=1 n=a2 v=0
182099 On ch=1 n=c#5 v=61
182099 On ch=1 n=g5 v=61
182164 On ch=1 n=g5 v=0
182172 On ch=1 n=c#5 v=0
182172 On ch=1 n=a4 v=0
182179 On ch=1 n=e5 v=0
182271 On ch=1 n=c#5 v=64
182275 On ch=1 n=e5 v=58
182284 On ch=1 n=g4 v=86
182284 On ch=1 n=a4 v=58
182288 On ch=1 n=g3 v=80
182288 On ch=1 n=g5 v=51
182352 On ch=1 n=e5 v=0
182359 On ch=1 n=g5 v=0
182363 On ch=1 n=a4 v=0
182371 On ch=1 n=c#5 v=0
182463 On ch=1 n=a4 v=61
182464 On ch=1 n=c#5 v=56
182475 On ch=1 n=g5 v=52
182495 On ch=1 n=e5 v=57
182535 On ch=1 n=e5 v=0
182535 On ch=1 n=g5 v=0
182543 On ch=1 n=a4 v=0
182558 On ch=1 n=c#5 v=0
182583 On ch=1 n=g4 v=0
182593 On ch=1 n=g3 v=0
182621 On ch=1 n=c#5 v=52
182621 On ch=1 n=a4 v=57
182636 On ch=1 n=e5 v=63
182640 On ch=1 n=g5 v=61
182692 On ch=1 n=g5 v=0
182699 On ch=1 n=a4 v=0
182701 On ch=1 n=e5 v=0
182701 On ch=1 n=c#5 v=0
182789 On ch=1 n=a4 v=55
182801 On ch=1 n=g5 v=51
182801 On ch=1 n=f4 v=91
182813 On ch=1 n=f3 v=94
182813 On ch=1 n=e5 v=61
182816 On ch=1 n=c#5 v=53
182848 On ch=1 n=g5 v=0
182848 On ch=1 n=a4 v=0
182858 On ch=1 n=c#5 v=0
182858 On ch=1 n=e5 v=0
182873 On ch=1 n=f4 v=0
182890 On ch=1 n=f3 v=0
182998 On ch=1 n=e4 v=91
182998 On ch=1 n=e3 v=93
183009 On ch=1 n=b4 v=57
183009 On ch=1 n=g#4 v=73
183025 On ch=1 n=f5 v=59
183025 On ch=1 n=g#5 v=66
183029 On ch=1 n=d5 v=58
183098 On ch=1 n=g#5 v=0
183098 On ch=1 n=g#4 v=0
183098 On ch=1 n=e4 v=0
183129 On ch=1 n=f5 v=0
183129 On ch=1 n=e3 v=0
183139 On ch=1 n=b4 v=0
183143 On ch=1 n=d5 v=0
183207 On ch=1 n=d5 v=61
183215 On ch=1 n=g#4 v=69
183219 On ch=1 n=b4 v=61
183230 On ch=1 n=f5 v=54
183247 On ch=1 n=g#5 v=52
183278 On ch=1 n=g#5 v=0
183290 On ch=1 n=g#4 v=0
183326 On ch=1 n=f5 v=0
183370 On ch=1 n=b4 v=0
183374 On ch=1 n=b4 v=61
183386 On ch=1 n=g#5 v=74
183386 On ch=1 n=f5 v=61
183390 On ch=1 n=d5 v=0
183390 On ch=1 n=d5 v=62
183394 On ch=1 n=g#4 v=69
183394 On ch=1 n=d3 v=95
183395 On ch=1 n=d4 v=95
183446 On ch=1 n=g#4 v=0
183466 On ch=1 n=f5 v=0
183466 On ch=1 n=g#5 v=0
183470 On ch=1 n=b4 v=0
183474 On ch=1 n=d4 v=0
183486 On ch=1 n=d5 v=0
183495 On ch=1 n=d3 v=0
183542 On ch=1 n=g#5 v=61
183567 On ch=1 n=d5 v=57
183567 On ch=1 n=f5 v=56
183574 On ch=1 n=g#4 v=69
183574 On ch=1 n=b4 v=58
183603 On ch=1 n=g#4 v=0
183633 On ch=1 n=b4 v=0
183633 On ch=1 n=f5 v=0
183633 On ch=1 n=g#5 v=0
183643 On ch=1 n=d5 v=0
183703 On ch=1 n=c#4 v=98
183703 On ch=1 n=c#3 v=92
183703 On ch=1 n=g#5 v=61
183706 On ch=1 n=g#4 v=73
183706 On ch=1 n=d5 v=58
183723 On ch=1 n=b4 v=58
183727 On ch=1 n=f5 v=56
183763 On ch=1 n=g#4 v=0
183767 On ch=1 n=g#5 v=0
183784 On ch=1 n=f5 v=0
183792 On ch=1 n=b4 v=0
183795 On ch=1 n=d5 v=0
183803 On ch=1 n=c#4 v=0
183807 On ch=1 n=c#3 v=0
183871 On ch=1 n=g#5 v=65
183871 On ch=1 n=g#4 v=73
183875 On ch=1 n=b4 v=55
183875 On ch=1 n=d5 v=57
183875 On ch=1 n=f5 v=57
183919 On ch=1 n=g#4 v=0
183919 On ch=1 n=g#5 v=0
183929 On ch=1 n=f5 v=0
183944 On ch=1 n=d5 v=0
183944 On ch=1 n=b4 v=0
183997 On ch=1 n=g#5 v=65
184013 On ch=1 n=b4 v=51
184013 On ch=1 n=g#4 v=69
184024 On ch=1 n=b3 v=99
184024 On ch=1 n=b2 v=96
184024 On ch=1 n=d5 v=55
184024 On ch=1 n=f5 v=61
184064 On ch=1 n=g#4 v=0
184084 On ch=1 n=f5 v=0
184084 On ch=1 n=g#5 v=0
184092 On ch=1 n=d5 v=0
184092 On ch=1 n=b4 v=0
184147 On ch=1 n=g#5 v=57
184147 On ch=1 n=b4 v=61
184153 On ch=1 n=g#4 v=65
184157 On ch=1 n=d5 v=62
184160 On ch=1 n=b3 v=0
184160 On ch=1 n=f5 v=49
184169 On ch=1 n=b2 v=0
184216 On ch=1 n=g#4 v=0
184226 On ch=1 n=b4 v=0
184233 On ch=1 n=f5 v=0
184233 On ch=1 n=g#5 v=0
184241 On ch=1 n=d5 v=0
184310 On ch=1 n=a3 v=100
184313 On ch=1 n=a2 v=104
184325 Par ch=1 c=64 v=0
184325 On ch=1 n=c5 v=77
184325 On ch=1 n=a4 v=82
184325 On ch=1 n=d#5 v=72
184326 On ch=1 n=f#5 v=70
184326 On ch=1 n=a5 v=78
184405 On ch=1 n=a4 v=0
184413 On ch=1 n=a5 v=0
184413 On ch=1 n=a3 v=0
184424 On ch=1 n=f#5 v=0
184424 On ch=1 n=a2 v=0
184434 On ch=1 n=c5 v=0
184445 On ch=1 n=d#5 v=0
184465 Par ch=1 c=64 v=127
184498 On ch=1 n=a5 v=75
184498 On ch=1 n=d#5 v=58
184506 On ch=1 n=c5 v=56
184510 On ch=1 n=a4 v=73
184510 On ch=1 n=f#5 v=62
184573 On ch=1 n=a4 v=0
184573 On ch=1 n=a5 v=0
184581 On ch=1 n=d#5 v=0
184584 On ch=1 n=c5 v=0
184590 On ch=1 n=f#5 v=0
184666 On ch=1 n=d#5 v=71
184666 On ch=1 n=f#5 v=62
184681 On ch=1 n=a4 v=78
184681 On ch=1 n=c5 v=62
184681 On ch=1 n=g3 v=98
184681 On ch=1 n=g2 v=97
184681 On ch=1 n=a5 v=73
184744 On ch=1 n=a4 v=0
184754 On ch=1 n=a5 v=0
184761 On ch=1 n=c5 v=0
184765 On ch=1 n=f#5 v=0
184770 On ch=1 n=d#5 v=0
184781 On ch=1 n=g2 v=0
184810 On ch=1 n=g3 v=0
184845 On ch=1 n=d#5 v=69
184845 On ch=1 n=a5 v=70
184845 On ch=1 n=f#5 v=66
184845 On ch=1 n=a4 v=75
184846 On ch=1 n=c5 v=58
184917 On ch=1 n=a4 v=0
184917 On ch=1 n=a5 v=0
184927 On ch=1 n=c5 v=0
184927 On ch=1 n=d#5 v=0
184930 On ch=1 n=f#5 v=0
184994 On ch=1 n=f#3 v=101
185003 On ch=1 n=f#2 v=98
185003 On ch=1 n=d#5 v=69
185010 On ch=1 n=a4 v=80
185010 On ch=1 n=f#5 v=64
185018 On ch=1 n=a5 v=78
185018 On ch=1 n=c5 v=60
185098 On ch=1 n=a5 v=0
185098 On ch=1 n=a4 v=0
185102 On ch=1 n=f#3 v=0
185107 On ch=1 n=f#2 v=0
185118 On ch=1 n=d#5 v=0
185122 On ch=1 n=f#5 v=0
185130 On ch=1 n=c5 v=0
185183 On ch=1 n=a4 v=76
185187 On ch=1 n=d#5 v=65
185191 On ch=1 n=a5 v=69
185191 On ch=1 n=c5 v=56
185194 On ch=1 n=f#5 v=59
185261 On ch=1 n=a5 v=0
185261 On ch=1 n=a4 v=0
185271 On ch=1 n=f#5 v=0
185271 On ch=1 n=c5 v=0
185271 On ch=1 n=d#5 v=0
185335 On ch=1 n=d#5 v=64
185344 On ch=1 n=f2 v=97
185344 On ch=1 n=f3 v=97
185344 On ch=1 n=a4 v=75
185344 On ch=1 n=c5 v=55
185348 On ch=1 n=a5 v=64
185359 On ch=1 n=f#5 v=58
185431 On ch=1 n=a4 v=0
185435 On ch=1 n=a5 v=0
185435 On ch=1 n=c5 v=0
185435 On ch=1 n=d#5 v=0
185440 On ch=1 n=f#5 v=0
185440 On ch=1 n=f3 v=0
185440 On ch=1 n=f2 v=0
185515 On ch=1 n=d#5 v=67
185520 On ch=1 n=a4 v=72
185520 On ch=1 n=f#5 v=59
185520 On ch=1 n=c5 v=64
185527 On ch=1 n=a5 v=61
185575 On ch=1 n=c5 v=0
185591 On ch=1 n=a4 v=0
185595 On ch=1 n=d#5 v=0
185611 On ch=1 n=a5 v=0
185611 On ch=1 n=f#5 v=0
185678 Par ch=1 c=64 v=0
185699 On ch=1 n=g5 v=57
185711 On ch=1 n=e2 v=103
185711 On ch=1 n=a4 v=88
185711 On ch=1 n=e3 v=98
185711 On ch=1 n=a5 v=69
185711 On ch=1 n=e5 v=76
185719 On ch=1 n=c#5 v=80
185807 On ch=1 n=e2 v=0
185811 On ch=1 n=e3 v=0
185821 On ch=1 n=e5 v=0
185821 On ch=1 n=a4 v=0
185825 On ch=1 n=g5 v=0
185837 On ch=1 n=c#5 v=0
185837 On ch=1 n=a5 v=0
185837 Par ch=1 c=64 v=127
185912 On ch=1 n=a5 v=69
185916 On ch=1 n=a4 v=84
185931 On ch=1 n=e5 v=77
185931 On ch=1 n=g5 v=67
185931 On ch=1 n=c#5 v=74
186020 On ch=1 n=a4 v=0
186024 On ch=1 n=e5 v=0
186035 On ch=1 n=c#5 v=0
186035 On ch=1 n=g5 v=0
186035 On ch=1 n=a5 v=0
186092 On ch=1 n=c#3 v=98
186097 On ch=1 n=c#2 v=95
186116 On ch=1 n=c#5 v=77
186121 On ch=1 n=e5 v=79
186121 On ch=1 n=a5 v=72
186128 On ch=1 n=a4 v=86
186128 On ch=1 n=g5 v=69
186137 Par ch=1 c=64 v=0
186232 Par ch=1 c=64 v=127
186248 On ch=1 n=a4 v=0
186252 On ch=1 n=e5 v=0
186252 On ch=1 n=c#5 v=0
186257 On ch=1 n=g5 v=0
186257 On ch=1 n=a5 v=0
186268 On ch=1 n=c#2 v=0
186288 On ch=1 n=c#3 v=0
186337 On ch=1 n=e5 v=81
186341 On ch=1 n=c#5 v=86
186341 On ch=1 n=a5 v=75
186341 On ch=1 n=g5 v=69
186344 On ch=1 n=a4 v=86
186468 On ch=1 n=a4 v=0
186477 On ch=1 n=a5 v=0
186481 On ch=1 n=e5 v=0
186488 On ch=1 n=c#5 v=0
186492 On ch=1 n=g5 v=0
186568 On ch=1 n=b3 v=101
186572 On ch=1 n=b2 v=102
186572 On ch=1 n=c#5 v=86
186576 On ch=1 n=e5 v=79
186576 On ch=1 n=a5 v=82
186588 On ch=1 n=a4 v=93
186588 On ch=1 n=g5 v=74
186598 Par ch=1 c=64 v=0
186665 On ch=1 n=b3 v=0
186672 On ch=1 n=c#5 v=0
186672 On ch=1 n=b2 v=0
186689 On ch=1 n=e5 v=0
186694 On ch=1 n=g5 v=0
186702 On ch=1 n=a4 v=0
186702 On ch=1 n=a5 v=0
186717 Par ch=1 c=64 v=127
186837 On ch=1 n=a5 v=84
186837 On ch=1 n=a4 v=93
186848 On ch=1 n=e5 v=83
186848 On ch=1 n=c#5 v=88
186848 On ch=1 n=g5 v=74
187012 On ch=1 n=e5 v=0
187014 On ch=1 n=a4 v=0
187022 On ch=1 n=c#5 v=0
187025 On ch=1 n=g5 v=0
187034 On ch=1 n=a5 v=0
187114 On ch=1 n=a4 v=96
187114 On ch=1 n=a5 v=84
187126 On ch=1 n=a3 v=104
187126 On ch=1 n=c#5 v=90
187126 On ch=1 n=e5 v=87
187129 On ch=1 n=a2 v=104
187145 On ch=1 n=g5 v=79
187145 Par ch=1 c=64 v=0
187258 Par ch=1 c=64 v=127
187381 On ch=1 n=e5 v=0
187381 On ch=1 n=c#5 v=0
187381 On ch=1 n=a5 v=0
187381 On ch=1 n=a4 v=0
187398 On ch=1 n=g5 v=0
187474 On ch=1 n=c#5 v=90
187477 On ch=1 n=a4 v=96
187485 On ch=1 n=e5 v=87
187485 On ch=1 n=a5 v=86
187492 On ch=1 n=g5 v=76
187552 On ch=1 n=a3 v=0
187569 On ch=1 n=a2 v=0
187626 On ch=1 n=g5 v=0
187629 On ch=1 n=a4 v=0
187629 On ch=1 n=c#5 v=0
187641 On ch=1 n=e5 v=0
187658 On ch=1 n=a5 v=0
187853 On ch=1 n=a4 v=98
187857 On ch=1 n=a5 v=98
187857 On ch=1 n=d5 v=91
187861 On ch=1 n=f#5 v=90
187872 On ch=1 n=d2 v=90
187874 On ch=1 n=d3 v=91
187889 Par ch=1 c=64 v=0
188073 On ch=1 n=a5 v=0
188145 Par ch=1 c=64 v=127
188234 On ch=1 n=f#5 v=0
188238 On ch=1 n=d2 v=0
188249 On ch=1 n=d3 v=0
188249 On ch=1 n=d5 v=0
188341 On ch=1 n=a4 v=0
188545 On ch=1 n=f#5 v=53
188545 On ch=1 n=a4 v=53
188545 On ch=1 n=d5 v=62
188545 On ch=1 n=d4 v=60
188549 On ch=1 n=a3 v=54
188549 On ch=1 n=f#4 v=54
188641 On ch=1 n=f#4 v=0
188672 On ch=1 n=d4 v=0
188686 On ch=1 n=a3 v=0
188686 On ch=1 n=d5 v=0
188689 On ch=1 n=f#5 v=0
188701 On ch=1 n=a4 v=0
188821 On ch=1 n=d4 v=53
188821 On ch=1 n=d5 v=59
188825 On ch=1 n=a3 v=53
188825 On ch=1 n=a4 v=60
188825 On ch=1 n=f#5 v=60
188825 On ch=1 n=f#4 v=53
188902 On ch=1 n=f#4 v=0
188906 On ch=1 n=a3 v=0
188934 On ch=1 n=f#5 v=0
188934 On ch=1 n=d5 v=0
188942 On ch=1 n=a4 v=0
188942 On ch=1 n=d4 v=0
189029 On ch=1 n=d4 v=54
189033 On ch=1 n=a3 v=55
189033 On ch=1 n=a4 v=58
189033 On ch=1 n=f#4 v=58
189034 On ch=1 n=f#5 v=58
189034 On ch=1 n=d5 v=59
189122 On ch=1 n=d5 v=0
189122 On ch=1 n=a3 v=0
189129 On ch=1 n=f#4 v=0
189129 On ch=1 n=a4 v=0
189139 On ch=1 n=f#5 v=0
189162 On ch=1 n=d4 v=0
189222 On ch=1 n=a5 v=96
189226 On ch=1 n=a4 v=83
189226 On ch=1 n=a3 v=69
189226 On ch=1 n=d4 v=53
189231 On ch=1 n=f#4 v=73
189231 On ch=1 n=d5 v=74
189231 On ch=1 n=f#5 v=55
189282 On ch=1 n=f#5 v=0
189291 On ch=1 n=d5 v=0
189350 On ch=1 n=a3 v=0
189355 On ch=1 n=f#4 v=0
189370 On ch=1 n=a4 v=0
189470 On ch=1 n=d4 v=0
189489 On ch=1 n=d4 v=54
189495 On ch=1 n=d5 v=53
189495 On ch=1 n=f#5 v=54
189495 On ch=1 n=a3 v=60
189495 On ch=1 n=a4 v=61
189499 On ch=1 n=f#4 v=62
189534 On ch=1 n=d5 v=0
189549 On ch=1 n=f#5 v=0
189563 On ch=1 n=a4 v=0
189590 On ch=1 n=f#4 v=0
189609 On ch=1 n=a3 v=0
189631 On ch=1 n=d4 v=0
189691 On ch=1 n=d4 v=61
189691 On ch=1 n=a4 v=60
189698 On ch=1 n=a3 v=63
189698 On ch=1 n=f#4 v=53
189698 On ch=1 n=f#5 v=61
189698 On ch=1 n=d5 v=62
189738 On ch=1 n=d5 v=0
189766 On ch=1 n=f#5 v=0
189770 On ch=1 n=a4 v=0
189811 On ch=1 n=a3 v=0
189890 On ch=1 n=f#5 v=61
189894 On ch=1 n=d5 v=60
189902 On ch=1 n=f#4 v=0
189902 On ch=1 n=f#4 v=61
189902 On ch=1 n=a3 v=62
189902 On ch=1 n=a4 v=61
189958 On ch=1 n=a4 v=0
189974 On ch=1 n=a3 v=0
189974 On ch=1 n=d5 v=0
189974 On ch=1 n=f#5 v=0
190015 On ch=1 n=d4 v=0
190069 On ch=1 n=f#4 v=0
190078 On ch=1 n=d4 v=53
190078 On ch=1 n=f#4 v=61
190078 On ch=1 n=a3 v=62
190078 On ch=1 n=f#5 v=47
190082 On ch=1 n=a4 v=51
190082 On ch=1 n=d5 v=62
190091 On ch=1 n=d5 v=0
190151 On ch=1 n=a4 v=0
190151 On ch=1 n=f#5 v=0
190151 On ch=1 n=a3 v=0
190159 On ch=1 n=f#4 v=0
190186 On ch=1 n=d4 v=0
190262 On ch=1 n=f#4 v=48
190262 On ch=1 n=d4 v=51
190262 On ch=1 n=a3 v=50
190266 On ch=1 n=d5 v=53
190266 On ch=1 n=f#5 v=47
190266 On ch=1 n=a4 v=51
190338 On ch=1 n=a4 v=0
190338 On ch=1 n=d5 v=0
190355 On ch=1 n=f#5 v=0
190366 On ch=1 n=f#4 v=0
190370 On ch=1 n=d4 v=0
190382 On ch=1 n=a3 v=0
190382 On ch=1 n=a5 v=0
190463 On ch=1 n=a4 v=81
190463 On ch=1 n=a5 v=98
190463 On ch=1 n=d5 v=66
190463 On ch=1 n=f#4 v=48
190466 On ch=1 n=a3 v=61
190471 On ch=1 n=d4 v=62
190471 On ch=1 n=f#5 v=61
190539 On ch=1 n=a3 v=0
190546 On ch=1 n=f#5 v=0
190551 On ch=1 n=d5 v=0
190566 On ch=1 n=d4 v=0
190569 On ch=1 n=a4 v=0
190649 On ch=1 n=f#4 v=0
190659 On ch=1 n=f#4 v=54
190659 On ch=1 n=a3 v=49
190668 On ch=1 n=d4 v=53
190668 On ch=1 n=a4 v=58
190668 On ch=1 n=f#5 v=53
190668 On ch=1 n=d5 v=62
190707 On ch=1 n=d4 v=0
190707 On ch=1 n=f#4 v=0
190708 On ch=1 n=a3 v=0
190748 On ch=1 n=a4 v=0
190775 On ch=1 n=d5 v=0
190775 On ch=1 n=f#5 v=0
190783 On ch=1 n=a5 v=0
190906 On ch=1 n=a5 v=93
190916 On ch=1 n=b4 v=83
190916 On ch=1 n=d3 v=71
190916 On ch=1 n=d2 v=78
190919 Par ch=1 c=64 v=0
190942 On ch=1 n=d3 v=0
190963 On ch=1 n=d2 v=0
191036 Par ch=1 c=64 v=127
191060 On ch=1 n=b4 v=0
191228 On ch=1 n=b4 v=53
191228 On ch=1 n=d5 v=51
191235 On ch=1 n=f#5 v=50
191239 On ch=1 n=f#4 v=61
191239 On ch=1 n=d4 v=54
191239 On ch=1 n=b3 v=53
191248 On ch=1 n=f#4 v=0
191275 On ch=1 n=b3 v=0
191275 On ch=1 n=d4 v=0
191303 On ch=1 n=b4 v=0
191313 On ch=1 n=f#5 v=0
191313 On ch=1 n=d5 v=0
191404 On ch=1 n=d4 v=61
191404 On ch=1 n=b3 v=62
191408 On ch=1 n=f#4 v=60
191412 On ch=1 n=f#5 v=61
191412 On ch=1 n=b4 v=59
191412 On ch=1 n=d5 v=59
191422 On ch=1 n=a4 v=61
191423 On ch=1 n=a4 v=0
191477 On ch=1 n=b3 v=0
191493 On ch=1 n=f#4 v=0
191493 On ch=1 n=a5 v=0
191500 On ch=1 n=d5 v=0
191500 On ch=1 n=b4 v=0
191500 On ch=1 n=d4 v=0
191510 On ch=1 n=f#5 v=0
191617 On ch=1 n=b4 v=78
191617 On ch=1 n=b5 v=92
191617 On ch=1 n=a4 v=61
191617 On ch=1 n=b3 v=54
191617 On ch=1 n=d4 v=57
191621 On ch=1 n=f#4 v=60
191621 On ch=1 n=f#5 v=55
191621 On ch=1 n=d5 v=66
191682 On ch=1 n=d5 v=0
191686 On ch=1 n=f#5 v=0
191690 On ch=1 n=b3 v=0
191702 On ch=1 n=d4 v=0
191714 On ch=1 n=f#4 v=0
191717 On ch=1 n=b4 v=0
191726 On ch=1 n=a4 v=0
191749 On ch=1 n=b5 v=0
191849 On ch=1 n=b3 v=58
191849 On ch=1 n=f#4 v=61
191849 On ch=1 n=d4 v=59
191853 On ch=1 n=b5 v=95
191853 On ch=1 n=b4 v=78
191853 On ch=1 n=d5 v=66
191857 On ch=1 n=f#5 v=51
191929 On ch=1 n=f#5 v=0
191929 On ch=1 n=d5 v=0
191957 On ch=1 n=b3 v=0
191965 On ch=1 n=b4 v=0
191969 On ch=1 n=d4 v=0
191986 On ch=1 n=f#4 v=0
192102 On ch=1 n=b3 v=51
192102 On ch=1 n=d4 v=55
192106 On ch=1 n=a4 v=55
192106 On ch=1 n=f#4 v=53
192106 On ch=1 n=d5 v=49
192106 On ch=1 n=f#5 v=48
192106 On ch=1 n=b4 v=57
192180 On ch=1 n=f#5 v=0
192201 On ch=1 n=b4 v=0
192201 On ch=1 n=d5 v=0
192201 On ch=1 n=a4 v=0
192201 On ch=1 n=b3 v=0
192202 On ch=1 n=d4 v=0
192213 On ch=1 n=f#4 v=0
192294 On ch=1 n=f#4 v=61
192294 On ch=1 n=b4 v=51
192294 On ch=1 n=a4 v=61
192297 On ch=1 n=b3 v=54
192297 On ch=1 n=d4 v=56
192302 On ch=1 n=d5 v=52
192302 On ch=1 n=f#5 v=53
192373 On ch=1 n=b3 v=0
192382 On ch=1 n=d5 v=0
192382 On ch=1 n=a4 v=0
192385 On ch=1 n=f#5 v=0
192385 On ch=1 n=d4 v=0
192406 On ch=1 n=b4 v=0
192410 On ch=1 n=f#4 v=0
192489 On ch=1 n=f#4 v=65
192489 On ch=1 n=b4 v=53
192493 On ch=1 n=f#5 v=57
192493 On ch=1 n=b3 v=64
192493 On ch=1 n=d4 v=59
192493 On ch=1 n=d5 v=55
192497 On ch=1 n=a4 v=69
192565 On ch=1 n=a4 v=0
192580 On ch=1 n=d5 v=0
192586 On ch=1 n=b3 v=0
192593 On ch=1 n=d4 v=0
192593 On ch=1 n=f#5 v=0
192597 On ch=1 n=b4 v=0
192601 On ch=1 n=f#4 v=0
192681 On ch=1 n=d4 v=57
192682 On ch=1 n=b3 v=64
192682 On ch=1 n=f#4 v=63
192693 On ch=1 n=a4 v=69
192693 On ch=1 n=b4 v=55
192693 On ch=1 n=f#5 v=57
192693 On ch=1 n=d5 v=55
192777 On ch=1 n=a4 v=0
192782 On ch=1 n=f#5 v=0
192782 On ch=1 n=b4 v=0
192782 On ch=1 n=b3 v=0
192793 On ch=1 n=d5 v=0
192796 On ch=1 n=f#4 v=0
192802 On ch=1 n=d4 v=0
192889 On ch=1 n=f#4 v=61
192889 On ch=1 n=b3 v=61
192889 On ch=1 n=d4 v=57
192893 On ch=1 n=f#5 v=57
192893 On ch=1 n=a4 v=69
192893 On ch=1 n=d5 v=55
192902 On ch=1 n=b4 v=51
192969 On ch=1 n=b4 v=0
192981 On ch=1 n=a4 v=0
192986 On ch=1 n=b3 v=0
192993 On ch=1 n=d5 v=0
192993 On ch=1 n=f#5 v=0
193017 On ch=1 n=d4 v=0
193017 On ch=1 n=f#4 v=0
193096 On ch=1 n=d4 v=56
193096 On ch=1 n=b3 v=56
193096 On ch=1 n=f#4 v=55
193102 On ch=1 n=d5 v=55
193102 On ch=1 n=a4 v=58
193102 On ch=1 n=b4 v=53
193102 On ch=1 n=f#5 v=54
193162 On ch=1 n=b4 v=0
193174 On ch=1 n=a4 v=0
193177 On ch=1 n=f#5 v=0
193181 On ch=1 n=d5 v=0
193193 On ch=1 n=b3 v=0
193203 On ch=1 n=d4 v=0
193214 On ch=1 n=f#4 v=0
193277 On ch=1 n=f#4 v=61
193277 On ch=1 n=f#5 v=57
193283 On ch=1 n=d5 v=61
193283 On ch=1 n=d4 v=61
193283 On ch=1 n=a4 v=61
193283 On ch=1 n=b3 v=61
193299 On ch=1 n=a4 v=0
193299 On ch=1 n=d5 v=0
193314 On ch=1 n=b3 v=0
193314 On ch=1 n=b5 v=0
193334 On ch=1 n=d4 v=0
193334 On ch=1 n=f#4 v=0
193343 On ch=1 n=f#5 v=0
193558 On ch=1 n=d5 v=79
193558 On ch=1 n=d6 v=100
193558 On ch=1 n=b5 v=78
193562 On ch=1 n=g5 v=75
193562 On ch=1 n=d2 v=80
193562 On ch=1 n=d3 v=82
193591 Par ch=1 c=64 v=0
193723 On ch=1 n=d2 v=0
193726 On ch=1 n=d3 v=0
193730 Par ch=1 c=64 v=127
193758 On ch=1 n=b5 v=0
193774 On ch=1 n=g5 v=0
193859 On ch=1 n=d5 v=0
193991 On ch=1 n=d5 v=60
193991 On ch=1 n=b4 v=60
193991 On ch=1 n=d4 v=59
193994 On ch=1 n=b5 v=59
193994 On ch=1 n=g5 v=60
193994 On ch=1 n=g4 v=60
194034 On ch=1 n=d4 v=0
194067 On ch=1 n=b4 v=0
194079 On ch=1 n=g4 v=0
194082 On ch=1 n=b5 v=0
194097 On ch=1 n=g5 v=0
194097 On ch=1 n=d5 v=0
194198 On ch=1 n=b4 v=61
194203 On ch=1 n=d5 v=60
194203 On ch=1 n=d4 v=52
194203 On ch=1 n=g5 v=59
194203 On ch=1 n=g4 v=56
194203 On ch=1 n=b5 v=57
194263 On ch=1 n=g4 v=0
194263 On ch=1 n=d4 v=0
194294 On ch=1 n=g5 v=0
194298 On ch=1 n=b5 v=0
194298 On ch=1 n=b4 v=0
194303 On ch=1 n=d5 v=0
194390 On ch=1 n=b4 v=67
194390 On ch=1 n=d4 v=67
194390 On ch=1 n=g5 v=58
194390 On ch=1 n=b5 v=57
194399 On ch=1 n=g4 v=67
194399 On ch=1 n=d5 v=60
194450 On ch=1 n=d6 v=0
194479 On ch=1 n=d5 v=0
194483 On ch=1 n=g5 v=0
194483 On ch=1 n=d4 v=0
194490 On ch=1 n=b4 v=0
194494 On ch=1 n=g4 v=0
194494 On ch=1 n=b5 v=0
194599 On ch=1 n=d6 v=111
194599 On ch=1 n=d4 v=75
194599 On ch=1 n=d5 v=82
194602 On ch=1 n=b4 v=78
194602 On ch=1 n=g4 v=73
194602 On ch=1 n=g5 v=76
194617 On ch=1 n=b5 v=66
194693 On ch=1 n=b5 v=0
194697 On ch=1 n=g5 v=0
194734 On ch=1 n=b4 v=0
194734 On ch=1 n=d4 v=0
194750 On ch=1 n=g4 v=0
194750 On ch=1 n=d5 v=0
194838 On ch=1 n=g5 v=59
194838 On ch=1 n=d4 v=60
194838 On ch=1 n=g4 v=51
194838 On ch=1 n=b5 v=56
194839 On ch=1 n=d5 v=52
194839 On ch=1 n=b4 v=57
194910 On ch=1 n=b5 v=0
194926 On ch=1 n=g5 v=0
194930 On ch=1 n=b4 v=0
194940 On ch=1 n=d5 v=0
194940 On ch=1 n=g4 v=0
194940 On ch=1 n=d4 v=0
195016 On ch=1 n=b4 v=60
195016 On ch=1 n=d4 v=62
195019 On ch=1 n=g4 v=65
195019 On ch=1 n=d5 v=51
195019 On ch=1 n=g5 v=55
195031 On ch=1 n=b5 v=54
195096 On ch=1 n=b5 v=0
195107 On ch=1 n=g5 v=0
195117 On ch=1 n=d4 v=0
195120 On ch=1 n=d5 v=0
195128 On ch=1 n=g4 v=0
195132 On ch=1 n=b4 v=0
195205 On ch=1 n=g4 v=63
195205 On ch=1 n=d5 v=52
195205 On ch=1 n=b4 v=60
195205 On ch=1 n=d4 v=65
195208 On ch=1 n=g5 v=58
195208 On ch=1 n=b5 v=57
195272 On ch=1 n=g5 v=0
195288 On ch=1 n=b5 v=0
195292 On ch=1 n=d4 v=0
195311 On ch=1 n=d5 v=0
195313 On ch=1 n=b4 v=0
195313 On ch=1 n=g4 v=0
195384 On ch=1 n=d5 v=50
195391 On ch=1 n=g4 v=60
195391 On ch=1 n=b4 v=57
195393 On ch=1 n=d4 v=62
195393 On ch=1 n=g5 v=58
195393 On ch=1 n=b5 v=50
195444 On ch=1 n=b5 v=0
195453 On ch=1 n=g5 v=0
195464 On ch=1 n=d4 v=0
195471 On ch=1 n=b4 v=0
195471 On ch=1 n=g4 v=0
195488 On ch=1 n=d5 v=0
195564 On ch=1 n=g4 v=60
195564 On ch=1 n=d5 v=59
195564 On ch=1 n=d4 v=60
195568 On ch=1 n=b4 v=54
195568 On ch=1 n=g5 v=59
195568 On ch=1 n=b5 v=52
195628 On ch=1 n=g5 v=0
195644 On ch=1 n=b5 v=0
195648 On ch=1 n=d4 v=0
195648 On ch=1 n=d5 v=0
195648 On ch=1 n=d6 v=0
195656 On ch=1 n=b4 v=0
195667 On ch=1 n=g4 v=0
195748 On ch=1 n=d6 v=115
195760 On ch=1 n=d5 v=79
195760 On ch=1 n=d4 v=62
195760 On ch=1 n=g5 v=68
195764 On ch=1 n=g4 v=59
195764 On ch=1 n=b4 v=55
195764 On ch=1 n=b5 v=53
195800 On ch=1 n=b5 v=0
195828 On ch=1 n=b4 v=0
195832 On ch=1 n=g4 v=0
195833 On ch=1 n=g5 v=0
195852 On ch=1 n=d4 v=0
195872 On ch=1 n=d5 v=0
195928 On ch=1 n=d4 v=59
195932 On ch=1 n=g4 v=54
195932 On ch=1 n=d5 v=54
195932 On ch=1 n=b5 v=54
195932 On ch=1 n=g5 v=53
195952 On ch=1 n=g4 v=0
195973 On ch=1 n=g5 v=0
195980 On ch=1 n=d4 v=0
196012 On ch=1 n=d5 v=0
196024 On ch=1 n=b5 v=0
196024 On ch=1 n=d6 v=0
196160 On ch=1 n=d6 v=85
196160 On ch=1 n=e5 v=84
196164 On ch=1 n=d2 v=82
196164 On ch=1 n=d3 v=81
196224 On ch=1 n=d2 v=0
196228 On ch=1 n=d3 v=0
196328 On ch=1 n=e5 v=0
196484 On ch=1 n=g5 v=62
196488 On ch=1 n=e5 v=58
196488 On ch=1 n=b4 v=50
196493 On ch=1 n=b5 v=57
196493 On ch=1 n=g4 v=59
196493 On ch=1 n=d5 v=59
196493 On ch=1 n=e4 v=53
196508 On ch=1 n=e4 v=0
196528 On ch=1 n=g4 v=0
196548 On ch=1 n=d5 v=0
196558 On ch=1 n=g5 v=0
196570 On ch=1 n=b5 v=0
196570 On ch=1 n=b4 v=0
196570 On ch=1 n=e5 v=0
196662 On ch=1 n=e4 v=52
196662 On ch=1 n=g4 v=60
196662 On ch=1 n=d5 v=61
196670 On ch=1 n=b5 v=61
196670 On ch=1 n=g5 v=62
196670 On ch=1 n=b4 v=60
196670 On ch=1 n=e5 v=58
196710 On ch=1 n=d6 v=0
196745 On ch=1 n=e5 v=0
196745 On ch=1 n=g5 v=0
196749 On ch=1 n=e4 v=0
196754 On ch=1 n=g4 v=0
196761 On ch=1 n=b4 v=0
196761 On ch=1 n=b5 v=0
196761 On ch=1 n=d5 v=0
196877 On ch=1 n=e5 v=79
196877 On ch=1 n=e4 v=64
196881 On ch=1 n=e6 v=95
196888 On ch=1 n=g4 v=69
196888 On ch=1 n=b4 v=73
196888 On ch=1 n=d5 v=70
196888 On ch=1 n=g5 v=79
196989 On ch=1 n=g5 v=0
196989 On ch=1 n=e5 v=0
196990 On ch=1 n=d5 v=0
196990 On ch=1 n=g4 v=0
196998 On ch=1 n=e4 v=0
197001 On ch=1 n=e6 v=0
197009 On ch=1 n=b4 v=0
197108 On ch=1 n=b4 v=73
197108 On ch=1 n=e4 v=68
197108 On ch=1 n=g4 v=69
197110 On ch=1 n=e6 v=96
197110 On ch=1 n=e5 v=76
197110 On ch=1 n=d5 v=74
197110 On ch=1 n=g5 v=79
197209 On ch=1 n=g5 v=0
197234 On ch=1 n=e5 v=0
197241 On ch=1 n=g4 v=0
197248 On ch=1 n=d5 v=0
197258 On ch=1 n=e4 v=0
197258 On ch=1 n=b4 v=0
197345 On ch=1 n=g5 v=66
197349 On ch=1 n=b4 v=65
197349 On ch=1 n=e5 v=64
197349 On ch=1 n=b5 v=61
197349 On ch=1 n=g4 v=65
197349 On ch=1 n=e4 v=62
197349 On ch=1 n=d5 v=64
197461 On ch=1 n=b5 v=0
197470 On ch=1 n=d5 v=0
197470 On ch=1 n=e4 v=0
197470 On ch=1 n=g4 v=0
197470 On ch=1 n=e5 v=0
197470 On ch=1 n=g5 v=0
197489 On ch=1 n=b4 v=0
197570 On ch=1 n=b4 v=63
197570 On ch=1 n=b5 v=63
197570 On ch=1 n=g5 v=64
197573 On ch=1 n=g4 v=67
197581 On ch=1 n=d5 v=70
197581 On ch=1 n=e4 v=68
197581 On ch=1 n=e5 v=59
197690 On ch=1 n=e5 v=0
197690 On ch=1 n=e4 v=0
197690 On ch=1 n=g5 v=0
197690 On ch=1 n=b5 v=0
197702 On ch=1 n=d5 v=0
197702 On ch=1 n=g4 v=0
197709 On ch=1 n=b4 v=0
197788 On ch=1 n=b5 v=63
197798 On ch=1 n=g5 v=62
197798 On ch=1 n=e5 v=56
197798 On ch=1 n=b4 v=60
197801 On ch=1 n=g4 v=63
197801 On ch=1 n=d5 v=70
197801 On ch=1 n=e4 v=61
197909 On ch=1 n=g4 v=0
197921 On ch=1 n=e4 v=0
197921 On ch=1 n=d5 v=0
197921 On ch=1 n=e5 v=0
197921 On ch=1 n=g5 v=0
197921 On ch=1 n=b5 v=0
197925 On ch=1 n=b4 v=0
198001 On ch=1 n=b5 v=57
198005 On ch=1 n=e5 v=61
198005 On ch=1 n=g5 v=58
198005 On ch=1 n=b4 v=65
198010 On ch=1 n=e4 v=64
198010 On ch=1 n=g4 v=65
198010 On ch=1 n=d5 v=72
198101 On ch=1 n=d5 v=0
198110 On ch=1 n=g4 v=0
198117 On ch=1 n=e4 v=0
198125 On ch=1 n=b4 v=0
198125 On ch=1 n=g5 v=0
198125 On ch=1 n=e5 v=0
198134 On ch=1 n=b5 v=0
198230 On ch=1 n=b5 v=58
198234 On ch=1 n=d5 v=72
198234 On ch=1 n=g5 v=58
198234 On ch=1 n=e4 v=70
198234 On ch=1 n=b4 v=69
198237 On ch=1 n=g4 v=67
198237 On ch=1 n=e5 v=52
198334 On ch=1 n=e5 v=0
198334 On ch=1 n=g5 v=0
198338 On ch=1 n=g4 v=0
198338 On ch=1 n=e4 v=0
198350 On ch=1 n=b4 v=0
198350 On ch=1 n=d5 v=0
198350 On ch=1 n=b5 v=0
198461 On ch=1 n=b4 v=67
198461 On ch=1 n=e4 v=62
198470 On ch=1 n=d5 v=66
198470 On ch=1 n=g4 v=65
198470 On ch=1 n=g5 v=62
198470 On ch=1 n=e5 v=56
198470 On ch=1 n=b5 v=62
198545 On ch=1 n=e5 v=0
198549 On ch=1 n=b5 v=0
198549 On ch=1 n=g5 v=0
198564 On ch=1 n=g4 v=0
198574 On ch=1 n=d5 v=0
198574 On ch=1 n=e4 v=0
198594 On ch=1 n=b4 v=0
198689 On ch=1 n=g5 v=54
198689 On ch=1 n=e5 v=49
198689 On ch=1 n=b5 v=57
198689 On ch=1 n=b4 v=46
198689 On ch=1 n=d5 v=52
198690 On ch=1 n=e4 v=45
198690 On ch=1 n=g4 v=48
198714 On ch=1 n=e5 v=0
198725 On ch=1 n=d5 v=0
198734 On ch=1 n=g5 v=0
198741 On ch=1 n=e6 v=0
198749 On ch=1 n=g4 v=0
198749 On ch=1 n=b4 v=0
198753 On ch=1 n=b5 v=0
198774 On ch=1 n=e4 v=0
198985 On ch=1 n=g5 v=88
198990 On ch=1 n=g6 v=99
198990 On ch=1 n=e6 v=87
198990 On ch=1 n=c6 v=88
198994 On ch=1 n=c3 v=86
199005 On ch=1 n=c2 v=83
199009 Par ch=1 c=64 v=0
199161 Par ch=1 c=64 v=127
199188 On ch=1 n=c2 v=0
199198 On ch=1 n=c3 v=0
199593 On ch=1 n=e5 v=70
199597 On ch=1 n=g4 v=71
199601 On ch=1 n=e4 v=70
199601 On ch=1 n=c5 v=69
199641 On ch=1 n=g4 v=0
199729 On ch=1 n=e4 v=0
199768 On ch=1 n=c5 v=0
199773 On ch=1 n=e5 v=0
199845 On ch=1 n=c5 v=57
199853 On ch=1 n=e5 v=62
199857 On ch=1 n=g4 v=70
199857 On ch=1 n=e4 v=70
199929 On ch=1 n=e6 v=0
199930 On ch=1 n=e4 v=0
199938 On ch=1 n=g4 v=0
199945 On ch=1 n=g5 v=0
199950 On ch=1 n=e5 v=0
199961 On ch=1 n=c5 v=0
199965 On ch=1 n=g6 v=0
199973 On ch=1 n=c6 v=0
200048 On ch=1 n=c5 v=69
200048 On ch=1 n=e4 v=66
200048 On ch=1 n=e5 v=70
200048 On ch=1 n=g4 v=66
200109 On ch=1 n=e4 v=0
200113 On ch=1 n=c5 v=0
200121 On ch=1 n=g4 v=0
200121 On ch=1 n=e5 v=0
200221 On ch=1 n=e4 v=67
200225 On ch=1 n=e5 v=77
200229 On ch=1 n=c5 v=69
200229 On ch=1 n=g4 v=74
200282 On ch=1 n=e5 v=0
200289 On ch=1 n=e4 v=0
200308 On ch=1 n=g4 v=0
200318 On ch=1 n=c5 v=0
200390 On ch=1 n=c5 v=64
200394 On ch=1 n=g4 v=65
200394 On ch=1 n=e5 v=76
200394 On ch=1 n=e4 v=66
200441 On ch=1 n=e4 v=0
200450 On ch=1 n=e5 v=0
200461 On ch=1 n=g4 v=0
200485 On ch=1 n=c5 v=0
200578 On ch=1 n=g5 v=96
200578 On ch=1 n=c6 v=97
200578 On ch=1 n=e6 v=99
200582 On ch=1 n=c5 v=88
200590 On ch=1 n=g6 v=100
200590 On ch=1 n=e4 v=70
200590 On ch=1 n=e5 v=85
200648 On ch=1 n=e5 v=0
200650 On ch=1 n=e4 v=0
200701 On ch=1 n=c5 v=0
200769 On ch=1 n=c5 v=80
200769 On ch=1 n=e5 v=79
200777 On ch=1 n=g4 v=81
200777 On ch=1 n=e4 v=81
200787 On ch=1 n=e6 v=0
200810 On ch=1 n=g6 v=0
200838 On ch=1 n=e5 v=0
200854 On ch=1 n=g4 v=0
200864 On ch=1 n=e4 v=0
200879 On ch=1 n=c5 v=0
200879 On ch=1 n=g5 v=0
200902 On ch=1 n=c6 v=0
200964 On ch=1 n=e4 v=82
200964 On ch=1 n=e6 v=95
200964 On ch=1 n=e5 v=77
200968 On ch=1 n=g5 v=92
200968 On ch=1 n=g6 v=98
200979 On ch=1 n=c6 v=91
200979 On ch=1 n=g4 v=71
200979 On ch=1 n=c5 v=81
201044 On ch=1 n=e5 v=0
201044 On ch=1 n=e4 v=0
201059 On ch=1 n=c5 v=0
201059 On ch=1 n=g4 v=0
201139 On ch=1 n=g5 v=0
201151 On ch=1 n=e5 v=73
201151 On ch=1 n=c5 v=80
201159 On ch=1 n=g4 v=80
201159 On ch=1 n=e4 v=71
201196 On ch=1 n=g6 v=0
201199 On ch=1 n=c6 v=0
201208 On ch=1 n=e6 v=0
201215 On ch=1 n=e4 v=0
201225 On ch=1 n=g4 v=0
201236 On ch=1 n=e5 v=0
201246 On ch=1 n=c5 v=0
201353 On ch=1 n=e5 v=76
201353 On ch=1 n=e4 v=80
201357 On ch=1 n=g4 v=79
201357 On ch=1 n=c5 v=79
201442 On ch=1 n=e5 v=0
201505 On ch=1 n=c5 v=0
201515 On ch=1 n=g4 v=0
201526 On ch=1 n=c5 v=69
201526 On ch=1 n=g4 v=69
201534 On ch=1 n=e4 v=0
201534 On ch=1 n=e5 v=78
201546 On ch=1 n=e5 v=0
201586 On ch=1 n=c5 v=0
201614 On ch=1 n=g4 v=0
201766 On ch=1 n=a6 v=120
201766 On ch=1 n=a5 v=110
201890 On ch=1 n=a5 v=0
201900 On ch=1 n=a6 v=0
201927 On ch=1 n=a#3 v=120
201930 On ch=1 n=a#2 v=127
201940 On ch=1 n=a5 v=88
201943 On ch=1 n=a6 v=127
201947 Par ch=1 c=64 v=0
201952 On ch=1 n=d#6 v=92
202107 On ch=1 n=a#2 v=0
202127 On ch=1 n=a#3 v=0
202135 Par ch=1 c=64 v=127
202460 On ch=1 n=a#4 v=71
202460 On ch=1 n=d#5 v=72
202460 On ch=1 n=d#4 v=71
202460 On ch=1 n=g4 v=71
202523 On ch=1 n=d#4 v=0
202532 On ch=1 n=d#5 v=0
202536 On ch=1 n=a#4 v=0
202543 On ch=1 n=g4 v=0
202636 On ch=1 n=d#4 v=70
202640 On ch=1 n=d#5 v=79
202656 On ch=1 n=g4 v=71
202656 On ch=1 n=a#4 v=70
202712 On ch=1 n=d#4 v=0
202716 On ch=1 n=d#5 v=0
202735 On ch=1 n=a#4 v=0
202735 On ch=1 n=g4 v=0
202807 On ch=1 n=d#5 v=72
202807 On ch=1 n=g4 v=70
202812 On ch=1 n=a#4 v=70
202812 On ch=1 n=d#4 v=66
202883 On ch=1 n=d#4 v=0
202883 On ch=1 n=d#5 v=0
202903 On ch=1 n=a#4 v=0
202910 On ch=1 n=g4 v=0
202983 On ch=1 n=g4 v=69
202983 On ch=1 n=d#4 v=70
202983 On ch=1 n=a#4 v=66
202987 On ch=1 n=d#5 v=81
202992 On ch=1 n=a6 v=0
203039 On ch=1 n=a5 v=0
203063 On ch=1 n=a#4 v=0
203071 On ch=1 n=d#4 v=0
203076 On ch=1 n=g4 v=0
203084 On ch=1 n=d#5 v=0
203151 On ch=1 n=d#4 v=59
203152 On ch=1 n=d#5 v=64
203160 On ch=1 n=a#4 v=67
203164 On ch=1 n=g4 v=58
203223 On ch=1 n=d#5 v=0
203240 On ch=1 n=a#4 v=0
203240 On ch=1 n=d#4 v=0
203263 On ch=1 n=g4 v=0
203291 On ch=1 n=d#6 v=0
203343 On ch=1 n=a#4 v=64
203346 On ch=1 n=g5 v=89
203346 On ch=1 n=g6 v=89
203346 On ch=1 n=g4 v=52
203367 On ch=1 n=d#4 v=57
203419 On ch=1 n=d#4 v=0
203429 On ch=1 n=g4 v=0
203444 On ch=1 n=a#4 v=0
203520 On ch=1 n=d#4 v=65
203529 On ch=1 n=a#4 v=62
203533 On ch=1 n=g4 v=64
203584 On ch=1 n=d#4 v=0
203588 On ch=1 n=g6 v=0
203597 On ch=1 n=g4 v=0
203624 On ch=1 n=a#4 v=0
203624 On ch=1 n=g5 v=0
203728 On ch=1 n=d#4 v=64
203729 On ch=1 n=f5 v=92
203729 On ch=1 n=f6 v=93
203740 On ch=1 n=a#4 v=59
203744 On ch=1 n=g4 v=52
203789 On ch=1 n=g4 v=0
203804 On ch=1 n=d#4 v=0
203809 On ch=1 n=a#4 v=0
203856 On ch=1 n=f6 v=0
203867 On ch=1 n=f5 v=0
203924 On ch=1 n=d#4 v=55
203924 On ch=1 n=g4 v=53
203927 On ch=1 n=a#4 v=58
203968 On ch=1 n=d#4 v=0
203973 On ch=1 n=a#4 v=0
203988 On ch=1 n=g4 v=0
204096 On ch=1 n=d#4 v=63
204096 On ch=1 n=a#4 v=65
204116 On ch=1 n=d#5 v=92
204116 On ch=1 n=d#6 v=98
204116 On ch=1 n=g4 v=61
204164 On ch=1 n=g4 v=0
204188 On ch=1 n=d#4 v=0
204193 On ch=1 n=a#4 v=0
204257 On ch=1 n=d#5 v=0
204273 On ch=1 n=a#4 v=55
204280 On ch=1 n=d#6 v=0
204300 On ch=1 n=d#4 v=48
204310 On ch=1 n=a#4 v=0
204325 On ch=1 n=g4 v=68
204341 On ch=1 n=d#4 v=0
204414 On ch=1 n=g4 v=0
204530 Par ch=1 c=64 v=0
204534 On ch=1 n=d5 v=97
204538 On ch=1 n=d6 v=100
204541 On ch=1 n=g5 v=94
204546 On ch=1 n=a3 v=92
204549 On ch=1 n=a2 v=90
204617 On ch=1 n=a3 v=0
204650 On ch=1 n=a2 v=0
204677 Par ch=1 c=64 v=127
204797 On ch=1 n=d6 v=0
204813 On ch=1 n=d5 v=0
204906 On ch=1 n=a3 v=51
204914 On ch=1 n=a4 v=66
204917 On ch=1 n=e4 v=68
204957 On ch=1 n=a3 v=0
204969 On ch=1 n=a4 v=0
204984 On ch=1 n=e4 v=0
205117 On ch=1 n=c#5 v=95
205117 On ch=1 n=c#6 v=99
205124 On ch=1 n=a4 v=66
205124 On ch=1 n=e4 v=65
205129 On ch=1 n=a3 v=65
205174 On ch=1 n=a4 v=0
205177 On ch=1 n=a3 v=0
205185 On ch=1 n=e4 v=0
205285 On ch=1 n=a3 v=53
205301 On ch=1 n=a4 v=65
205305 On ch=1 n=e4 v=57
205350 On ch=1 n=g5 v=0
205365 On ch=1 n=a3 v=0
205365 On ch=1 n=c#6 v=0
205377 On ch=1 n=a4 v=0
205377 On ch=1 n=c#5 v=0
205437 On ch=1 n=e4 v=0
205513 On ch=1 n=e4 v=65
205513 On ch=1 n=b5 v=93
205521 On ch=1 n=b4 v=86
205521 On ch=1 n=a3 v=56
205521 On ch=1 n=a4 v=59
205574 On ch=1 n=a3 v=0
205597 On ch=1 n=a4 v=0
205621 On ch=1 n=e4 v=0
205646 On ch=1 n=b4 v=0
205694 On ch=1 n=b5 v=0
205694 On ch=1 n=e4 v=69
205706 On ch=1 n=a3 v=57
205706 On ch=1 n=a4 v=63
205760 On ch=1 n=a3 v=0
205798 On ch=1 n=a4 v=0
205809 On ch=1 n=e4 v=0
205878 On ch=1 n=a4 v=52
205889 On ch=1 n=c#5 v=86
205889 On ch=1 n=c#6 v=91
205893 On ch=1 n=a3 v=56
205893 On ch=1 n=e4 v=66
205937 On ch=1 n=a3 v=0
205980 On ch=1 n=c#5 v=0
205984 On ch=1 n=a4 v=0
206005 On ch=1 n=c#6 v=0
206045 On ch=1 n=a4 v=68
206064 On ch=1 n=a3 v=65
206084 On ch=1 n=a4 v=0
206094 On ch=1 n=e4 v=0
206113 On ch=1 n=a3 v=0
206273 On ch=1 n=d5 v=94
206273 On ch=1 n=b5 v=91
206280 On ch=1 n=d6 v=90
206280 Par ch=1 c=64 v=0
206286 On ch=1 n=g3 v=80
206293 On ch=1 n=g2 v=83
206357 On ch=1 n=g3 v=0
206366 On ch=1 n=g2 v=0
206426 Par ch=1 c=64 v=127
206530 On ch=1 n=d5 v=0
206537 On ch=1 n=d6 v=0
206585 On ch=1 n=g4 v=70
206589 On ch=1 n=b3 v=58
206597 On ch=1 n=b4 v=55
206637 On ch=1 n=b4 v=0
206645 On ch=1 n=b3 v=0
206657 On ch=1 n=g4 v=0
206794 On ch=1 n=b5 v=0
206794 On ch=1 n=e5 v=91
206797 On ch=1 n=e6 v=92
206806 On ch=1 n=g4 v=64
206806 On ch=1 n=b3 v=58
206806 On ch=1 n=b4 v=62
206884 On ch=1 n=b4 v=0
206884 On ch=1 n=b3 v=0
206884 On ch=1 n=g4 v=0
206925 On ch=1 n=e5 v=0
206944 On ch=1 n=e6 v=0
207006 On ch=1 n=b4 v=65
207017 On ch=1 n=g4 v=70
207017 On ch=1 n=b3 v=61
207037 On ch=1 n=g4 v=0
207044 On ch=1 n=b4 v=0
207058 On ch=1 n=b3 v=0
207257 On ch=1 n=a#5 v=93
207261 On ch=1 n=f#5 v=93
207266 On ch=1 n=f#6 v=94
207266 Par ch=1 c=64 v=0
207281 On ch=1 n=f#3 v=85
207281 On ch=1 n=f#2 v=82
207401 On ch=1 n=f#2 v=0
207445 On ch=1 n=f#3 v=0
207466 Par ch=1 c=64 v=127
207669 On ch=1 n=f#4 v=62
207684 On ch=1 n=a#4 v=62
207684 On ch=1 n=a#3 v=55
207777 On ch=1 n=a#3 v=0
207777 On ch=1 n=a#4 v=0
207777 On ch=1 n=f#4 v=0
207886 On ch=1 n=f#6 v=0
207897 On ch=1 n=f#5 v=0
207897 On ch=1 n=f#4 v=65
207901 On ch=1 n=a#3 v=61
207906 On ch=1 n=a#4 v=63
207914 On ch=1 n=a#5 v=0
207954 On ch=1 n=a#4 v=0
207961 On ch=1 n=a#3 v=0
207978 On ch=1 n=f#4 v=0
208078 On ch=1 n=f#4 v=72
208078 On ch=1 n=a#4 v=70
208085 On ch=1 n=a#3 v=72
208145 On ch=1 n=a#4 v=0
208154 On ch=1 n=a#3 v=0
208157 On ch=1 n=f#4 v=0
208250 On ch=1 n=a#3 v=72
208266 On ch=1 n=f#4 v=72
208266 On ch=1 n=a#4 v=71
208345 On ch=1 n=a#4 v=0
208345 On ch=1 n=a#3 v=0
208349 On ch=1 n=f#4 v=0
208437 On ch=1 n=f#4 v=63
208446 On ch=1 n=a#3 v=68
208450 On ch=1 n=a#4 v=66
208526 On ch=1 n=a#3 v=0
208533 On ch=1 n=a#4 v=0
208541 On ch=1 n=f#4 v=0
208634 On ch=1 n=c#6 v=93
208641 On ch=1 n=c#5 v=84
208649 On ch=1 n=a#3 v=62
208661 On ch=1 n=a#4 v=63
208661 On ch=1 n=f#4 v=63
208710 On ch=1 n=c#5 v=0
208741 On ch=1 n=a#3 v=0
208741 On ch=1 n=c#6 v=0
208746 On ch=1 n=a#4 v=0
208750 On ch=1 n=f#4 v=0
208844 On ch=1 n=a#4 v=56
208854 On ch=1 n=f#4 v=61
208877 On ch=1 n=a#3 v=57
208894 On ch=1 n=a#4 v=0
208897 On ch=1 n=f#4 v=0
208926 On ch=1 n=a#3 v=0
209141 Par ch=1 c=64 v=0
209158 On ch=1 n=e5 v=91
209165 On ch=1 n=e6 v=97
209166 On ch=1 n=a5 v=93
209166 On ch=1 n=f3 v=92
209166 On ch=1 n=f2 v=89
209293 On ch=1 n=f2 v=0
209293 On ch=1 n=f3 v=0
209325 Par ch=1 c=64 v=127
209441 On ch=1 n=e6 v=0
209466 On ch=1 n=e5 v=0
209545 On ch=1 n=a5 v=0
209590 On ch=1 n=d5 v=94
209598 On ch=1 n=d6 v=95
209605 On ch=1 n=a4 v=70
209610 On ch=1 n=a3 v=67
209610 On ch=1 n=f4 v=67
209685 On ch=1 n=a4 v=0
209706 On ch=1 n=a3 v=0
209725 On ch=1 n=d5 v=0
209729 On ch=1 n=f4 v=0
209737 On ch=1 n=d6 v=0
209845 On ch=1 n=a3 v=74
209857 On ch=1 n=f4 v=79
209857 On ch=1 n=a4 v=75
209937 On ch=1 n=a4 v=0
209957 On ch=1 n=f4 v=0
209986 On ch=1 n=a3 v=0
210313 On ch=1 n=a4 v=84
210313 On ch=1 n=a5 v=82
210373 On ch=1 n=a4 v=0
210385 On ch=1 n=a5 v=0
210453 On ch=1 n=b4 v=98
210457 On ch=1 n=e5 v=91
210466 On ch=1 n=a5 v=84
210466 On ch=1 n=e2 v=97
210466 On ch=1 n=e3 v=96
210470 On ch=1 n=b5 v=83
210510 Par ch=1 c=64 v=0
210626 On ch=1 n=b5 v=0
210777 Par ch=1 c=64 v=127
210798 On ch=1 n=e2 v=0
210806 On ch=1 n=e3 v=0
211021 On ch=1 n=a4 v=75
211021 On ch=1 n=e4 v=65
211037 On ch=1 n=b3 v=61
211120 On ch=1 n=a4 v=0
211124 On ch=1 n=b3 v=0
211164 On ch=1 n=e4 v=0
211253 On ch=1 n=a4 v=73
211261 On ch=1 n=e4 v=64
211261 On ch=1 n=b3 v=69
211329 On ch=1 n=e5 v=0
211344 On ch=1 n=b3 v=0
211344 On ch=1 n=a4 v=0
211344 On ch=1 n=a5 v=0
211361 On ch=1 n=e4 v=0
211406 On ch=1 n=b4 v=0
211466 On ch=1 n=a4 v=80
211466 On ch=1 n=e4 v=69
211466 On ch=1 n=b3 v=71
211524 On ch=1 n=a4 v=0
211557 On ch=1 n=b3 v=0
211677 On ch=1 n=e4 v=0
211694 On ch=1 n=e4 v=77
211694 On ch=1 n=g#4 v=78
211697 On ch=1 n=g#5 v=84
211705 On ch=1 n=b3 v=71
211706 On ch=1 n=b4 v=90
211706 On ch=1 n=e5 v=91
211706 On ch=1 n=b5 v=89
211737 Par ch=1 c=64 v=0
211834 On ch=1 n=b3 v=0
211857 On ch=1 n=g#4 v=0
211857 On ch=1 n=e4 v=0
211917 On ch=1 n=g#4 v=68
211917 On ch=1 n=e4 v=54
211929 On ch=1 n=b3 v=67
211944 Par ch=1 c=64 v=127
212053 On ch=1 n=b3 v=0
212053 On ch=1 n=g#4 v=0
212073 On ch=1 n=e4 v=0
212134 On ch=1 n=g#4 v=70
212141 On ch=1 n=e4 v=53
212146 On ch=1 n=b3 v=65
212245 On ch=1 n=g#4 v=0
212250 On ch=1 n=b3 v=0
212265 On ch=1 n=e4 v=0
212350 On ch=1 n=g#4 v=75
212361 On ch=1 n=b3 v=61
212361 On ch=1 n=e4 v=57
212477 On ch=1 n=b3 v=0
212481 On ch=1 n=g#4 v=0
212505 On ch=1 n=e4 v=0
212557 On ch=1 n=g#5 v=0
212646 On ch=1 n=b3 v=52
212650 On ch=1 n=g#4 v=64
212661 On ch=1 n=e4 v=62
212684 On ch=1 n=b5 v=0
212758 On ch=1 n=e5 v=0
212793 On ch=1 n=b4 v=0
212824 On ch=1 n=g#4 v=0
212830 On ch=1 n=e4 v=0
212841 On ch=1 n=b3 v=0
213073 Par ch=1 c=64 v=0
213464 On ch=1 n=b4 v=93
213464 On ch=1 n=f#5 v=88
213464 On ch=1 n=d2 v=89
213466 On ch=1 n=b5 v=89
213477 On ch=1 n=d3 v=86
213554 Par ch=1 c=64 v=127
213806 On ch=1 n=d3 v=0
213806 On ch=1 n=d2 v=0
213817 On ch=1 n=b5 v=0
213877 On ch=1 n=f#5 v=0
213877 On ch=1 n=b4 v=0
214001 On ch=1 n=b4 v=96
214001 On ch=1 n=f#5 v=96
214018 On ch=1 n=d2 v=93
214018 On ch=1 n=b5 v=93
214018 On ch=1 n=d3 v=88
214386 On ch=1 n=f#5 v=0
214405 On ch=1 n=b5 v=0
214421 On ch=1 n=b4 v=0
214433 On ch=1 n=d3 v=0
214457 On ch=1 n=d2 v=0
214829 On ch=1 n=c#5 v=92
214829 On ch=1 n=c#6 v=99
214829 On ch=1 n=c#2 v=86
214829 On ch=1 n=f5 v=90
214829 On ch=1 n=c#3 v=86
214904 On ch=1 n=c#3 v=0
214904 On ch=1 n=c#2 v=0
214930 On ch=1 n=c#5 v=0
214937 On ch=1 n=c#6 v=0
214954 On ch=1 n=f5 v=0
215017 On ch=1 n=c#3 v=86
215024 On ch=1 n=f5 v=90
215026 On ch=1 n=c#2 v=86
215026 On ch=1 n=c#6 v=99
215026 On ch=1 n=c#5 v=98
215690 On ch=1 n=c#3 v=0
215697 On ch=1 n=c#6 v=0
215697 On ch=1 n=f5 v=0
215701 On ch=1 n=c#2 v=0
215705 On ch=1 n=c#5 v=0
215710 Par ch=1 c=64 v=0
216374 Par ch=1 c=64 v=127
216493 On ch=1 n=g#5 v=77
216510 On ch=1 n=c#5 v=52
216517 On ch=1 n=c#4 v=43
216533 On ch=1 n=f3 v=39
216537 On ch=1 n=g#4 v=46
216817 On ch=1 n=f3 v=0
216846 On ch=1 n=c#4 v=0
216861 On ch=1 n=c#5 v=0
216906 On ch=1 n=g#5 v=0
216938 On ch=1 n=g#4 v=0
217084 On ch=1 n=g#5 v=74
217086 On ch=1 n=g#4 v=56
217093 On ch=1 n=c#5 v=57
217105 On ch=1 n=c#4 v=40
217113 On ch=1 n=f3 v=43
217181 On ch=1 n=c#5 v=0
217340 On ch=1 n=f3 v=0
217446 On ch=1 n=c#4 v=0
217953 On ch=1 n=c5 v=40
217961 On ch=1 n=d#5 v=43
217970 On ch=1 n=d#4 v=42
217985 On ch=1 n=g#3 v=44
218018 On ch=1 n=d#5 v=0
218025 On ch=1 n=c5 v=0
218035 On ch=1 n=d#4 v=0
218051 On ch=1 n=g#3 v=0
218174 On ch=1 n=d#5 v=40
218194 On ch=1 n=c5 v=41
218204 On ch=1 n=d#4 v=41
218228 On ch=1 n=g#3 v=39
218348 Par ch=1 c=64 v=0
218900 Par ch=1 c=64 v=127
219051 On ch=1 n=g#4 v=0
219084 On ch=1 n=c5 v=0
219118 On ch=1 n=d#4 v=0
219128 On ch=1 n=d#5 v=0
219181 On ch=1 n=g#3 v=0
219181 On ch=1 n=g#5 v=0
219536 Par ch=1 c=64 v=0
219957 Par ch=1 c=64 v=127
219975 On ch=1 n=f#6 v=94
219975 On ch=1 n=b5 v=91
219985 On ch=1 n=d4 v=90
219985 On ch=1 n=b6 v=90
219985 On ch=1 n=d3 v=90
220313 On ch=1 n=d3 v=0
220321 On ch=1 n=b6 v=0
220321 On ch=1 n=d4 v=0
220345 On ch=1 n=b5 v=0
220365 On ch=1 n=f#6 v=0
220514 On ch=1 n=b5 v=99
220514 On ch=1 n=f#6 v=92
220514 On ch=1 n=d3 v=90
220514 On ch=1 n=d4 v=92
220518 On ch=1 n=b6 v=98
220832 On ch=1 n=b5 v=0
220834 On ch=1 n=b6 v=0
220841 On ch=1 n=d4 v=0
220841 On ch=1 n=d3 v=0
220841 On ch=1 n=f#6 v=0
221225 On ch=1 n=c#4 v=90
221234 On ch=1 n=c#3 v=86
221238 On ch=1 n=c#7 v=98
221238 On ch=1 n=c#6 v=93
221245 On ch=1 n=f6 v=87
221265 On ch=1 n=f#6 v=41
221298 On ch=1 n=f#6 v=0
221329 On ch=1 n=c#4 v=0
221339 On ch=1 n=c#3 v=0
221355 On ch=1 n=c#6 v=0
221355 On ch=1 n=c#7 v=0
221370 On ch=1 n=f6 v=0
221430 On ch=1 n=c#4 v=88
221438 On ch=1 n=c#3 v=82
221446 On ch=1 n=c#7 v=100
221446 On ch=1 n=c#6 v=99
221446 On ch=1 n=f6 v=85
221566 Par ch=1 c=64 v=0
221875 Par ch=1 c=64 v=127
222110 On ch=1 n=c#4 v=0
222114 On ch=1 n=c#3 v=0
222122 On ch=1 n=f6 v=0
222129 On ch=1 n=c#6 v=0
222129 On ch=1 n=c#7 v=0
222535 Par ch=1 c=64 v=0
223258 Par ch=1 c=64 v=127
223582 On ch=1 n=g#5 v=42
223582 On ch=1 n=c#5 v=42
223582 On ch=1 n=g#4 v=40
223590 On ch=1 n=f4 v=40
223843 On ch=1 n=f4 v=0
223869 On ch=1 n=g#4 v=0
223886 On ch=1 n=c#5 v=0
223978 On ch=1 n=g#5 v=0
224179 On ch=1 n=g#5 v=66
224179 On ch=1 n=c#5 v=44
224179 On ch=1 n=f4 v=41
224179 On ch=1 n=g#4 v=39
224545 On ch=1 n=g#4 v=0
224559 On ch=1 n=f4 v=0
224562 On ch=1 n=c#5 v=0
225146 On ch=1 n=d#5 v=48
225151 On ch=1 n=g#4 v=40
225151 On ch=1 n=c5 v=45
225231 On ch=1 n=g#4 v=0
225249 On ch=1 n=d#5 v=0
225259 On ch=1 n=c5 v=0
225387 On ch=1 n=c5 v=45
225387 On ch=1 n=d#5 v=40
225388 On ch=1 n=g#4 v=39
225571 Par ch=1 c=64 v=0
226223 Par ch=1 c=64 v=127
226232 Par ch=1 c=67 v=127
226823 On ch=1 n=g#4 v=0
226856 On ch=1 n=c5 v=0
226900 Par ch=1 c=67 v=0
226927 On ch=1 n=d#5 v=0
226987 On ch=1 n=g#5 v=0
227759 On ch=1 n=b4 v=45
227759 On ch=1 n=d4 v=45
227759 On ch=1 n=b5 v=51
227763 On ch=1 n=f#5 v=45
227763 On ch=1 n=d5 v=46
227768 On ch=1 n=f#4 v=44
227859 On ch=1 n=f#5 v=0
227859 On ch=1 n=b4 v=0
227868 On ch=1 n=f#4 v=0
227868 On ch=1 n=d5 v=0
227868 On ch=1 n=b5 v=0
227868 On ch=1 n=d4 v=0
228023 On ch=1 n=b5 v=56
228023 On ch=1 n=f#5 v=45
228023 On ch=1 n=b4 v=48
228028 On ch=1 n=d5 v=49
228028 On ch=1 n=f#4 v=50
228028 On ch=1 n=d4 v=49
228071 Par ch=1 c=64 v=0
228386 Par ch=1 c=64 v=127
228503 On ch=1 n=f#5 v=0
228503 On ch=1 n=b5 v=0
228506 On ch=1 n=d4 v=0
228506 On ch=1 n=f#4 v=0
228506 On ch=1 n=d5 v=0
228506 On ch=1 n=b4 v=0
228835 Par ch=1 c=67 v=127
229128 On ch=1 n=c#5 v=40
229128 On ch=1 n=c#6 v=44
229128 On ch=1 n=g#4 v=38
229131 On ch=1 n=f5 v=39
229131 On ch=1 n=c#4 v=39
229208 On ch=1 n=f5 v=0
229223 On ch=1 n=g#4 v=0
229248 On ch=1 n=c#4 v=0
229248 On ch=1 n=c#6 v=0
229299 On ch=1 n=c#5 v=0
229432 On ch=1 n=c#6 v=45
229435 On ch=1 n=f5 v=39
229435 On ch=1 n=c#5 v=39
229435 On ch=1 n=c#4 v=40
229446 On ch=1 n=g#4 v=39
229659 Par ch=1 c=64 v=0
230566 Par ch=1 c=64 v=127
230986 On ch=1 n=c#5 v=0
231188 On ch=1 n=g#4 v=0
231316 On ch=1 n=f5 v=0
231428 On ch=1 n=c#4 v=0
231491 On ch=1 n=c#6 v=0
232416 On ch=1 n=d5 v=35
232419 On ch=1 n=d6 v=54
232439 On ch=1 n=f#5 v=35
232443 On ch=1 n=f#4 v=40
232443 On ch=1 n=b3 v=34
232446 On ch=1 n=b4 v=34
232488 Par ch=1 c=64 v=0
232608 On ch=1 n=d5 v=0
232616 On ch=1 n=d6 v=0
232639 On ch=1 n=f#5 v=0
232647 On ch=1 n=b4 v=0
232647 On ch=1 n=b3 v=0
232647 On ch=1 n=f#4 v=0
232647 Par ch=1 c=64 v=127
232827 On ch=1 n=d6 v=50
232827 On ch=1 n=d5 v=34
232828 On ch=1 n=f#5 v=32
232828 On ch=1 n=b4 v=32
232839 On ch=1 n=b3 v=34
232839 On ch=1 n=f#4 v=36
232991 Par ch=1 c=64 v=0
233283 Par ch=1 c=64 v=127
233575 On ch=1 n=f#5 v=0
233575 On ch=1 n=d6 v=0
233583 On ch=1 n=f#4 v=0
233583 On ch=1 n=b3 v=0
233583 On ch=1 n=b4 v=0
233583 On ch=1 n=d5 v=0
234692 On ch=1 n=e5 v=39
234707 On ch=1 n=e6 v=49
234707 On ch=1 n=g5 v=39
234707 On ch=1 n=c#5 v=38
234707 On ch=1 n=g4 v=39
234708 On ch=1 n=a#3 v=37
234888 On ch=1 n=e5 v=0
234899 On ch=1 n=g4 v=0
234909 On ch=1 n=a#3 v=0
234909 On ch=1 n=c#5 v=0
234909 On ch=1 n=g5 v=0
234909 On ch=1 n=e6 v=0
235229 On ch=1 n=e5 v=41
235240 On ch=1 n=e6 v=48
235240 On ch=1 n=g5 v=39
235240 On ch=1 n=c#5 v=38
235240 On ch=1 n=g4 v=39
235244 On ch=1 n=a#3 v=34
235533 Par ch=1 c=64 v=0
237696 Par ch=1 c=64 v=127
239000 On ch=1 n=e5 v=0
239012 On ch=1 n=g4 v=0
239012 On ch=1 n=g5 v=0
239012 On ch=1 n=e6 v=0
239016 On ch=1 n=a#3 v=0
239016 On ch=1 n=c#5 v=0
240433 Par ch=1 c=64 v=0
241012 On ch=1 n=g5 v=50
241104 Par ch=1 c=64 v=127
241105 Par ch=1 c=67 v=0
241596 On ch=1 n=a#4 v=49
242000 On ch=1 n=g5 v=0
242085 On ch=1 n=a#4 v=0
242385 On ch=1 n=b4 v=53
242556 On ch=1 n=d5 v=50
242669 Par ch=1 c=64 v=0
242728 On ch=1 n=b4 v=0
243156 Par ch=1 c=67 v=127
243665 Par ch=1 c=64 v=127
244016 On ch=1 n=c#5 v=46
244128 On ch=1 n=a#4 v=53
244164 Par ch=1 c=64 v=0
244256 On ch=1 n=g4 v=49
244292 On ch=1 n=c#5 v=0
244317 On ch=1 n=a#4 v=0
244353 On ch=1 n=d5 v=0
244425 On ch=1 n=e4 v=39
244503 On ch=1 n=g4 v=0
244860 On ch=1 n=e4 v=0
245345 Par ch=1 c=67 v=0
245625 On ch=1 n=d#4 v=42
245700 On ch=1 n=d#4 v=0
245865 On ch=1 n=e4 v=59
245945 On ch=1 n=e4 v=0
246085 On ch=1 n=f#4 v=66
246213 On ch=1 n=f#4 v=0
246369 On ch=1 n=a4 v=63
246796 Par ch=1 c=64 v=127
247400 Par ch=1 c=67 v=127
247936 On ch=1 n=g4 v=45
248084 On ch=1 n=e4 v=45
248189 Par ch=1 c=64 v=0
248196 On ch=1 n=c#4 v=42
248204 On ch=1 n=g4 v=0
248260 On ch=1 n=e4 v=0
248349 On ch=1 n=a4 v=0
248380 On ch=1 n=a#3 v=34
248392 On ch=1 n=c#4 v=0
248649 Par ch=1 c=64 v=127
248660 On ch=1 n=a#3 v=0
248725 Par ch=1 c=67 v=0
248825 Par ch=1 c=64 v=0
249184 Par ch=1 c=64 v=127
249724 On ch=1 n=g6 v=49
249728 On ch=1 n=e6 v=49
249728 On ch=1 n=a#3 v=38
249728 On ch=1 n=c5 v=40
249728 On ch=1 n=g5 v=41
249876 On ch=1 n=c5 v=0
249876 On ch=1 n=a#3 v=0
249880 On ch=1 n=g5 v=0
249880 On ch=1 n=e6 v=0
249920 On ch=1 n=g6 v=0
250057 On ch=1 n=g6 v=60
250057 On ch=1 n=g5 v=37
250060 On ch=1 n=e6 v=41
250064 On ch=1 n=a#3 v=41
250064 On ch=1 n=c5 v=41
250252 On ch=1 n=c5 v=0
250252 On ch=1 n=a#3 v=0
250252 On ch=1 n=e6 v=0
250252 On ch=1 n=g5 v=0
250333 On ch=1 n=g6 v=0
250960 On ch=1 n=c7 v=72
250977 On ch=1 n=e6 v=52
250977 On ch=1 n=a#3 v=39
250977 On ch=1 n=c5 v=39
250980 On ch=1 n=c6 v=38
251043 On ch=1 n=c5 v=0
251076 On ch=1 n=e6 v=0
251086 On ch=1 n=a#3 v=0
251093 On ch=1 n=c6 v=0
251182 On ch=1 n=c7 v=0
251466 On ch=1 n=c7 v=75
251477 On ch=1 n=c6 v=45
251526 On ch=1 n=f6 v=45
251570 On ch=1 n=a3 v=36
251621 Par ch=1 c=64 v=0
251910 Par ch=1 c=64 v=127
252000 On ch=1 n=f4 v=37
252077 On ch=1 n=a3 v=0
252213 On ch=1 n=f4 v=0
252265 On ch=1 n=a4 v=52
252321 On ch=1 n=a4 v=0
252469 On ch=1 n=c5 v=63
252701 On ch=1 n=e5 v=60
252733 On ch=1 n=c5 v=0
252969 On ch=1 n=e5 v=0
252989 On ch=1 n=g5 v=46
253122 Par ch=1 c=64 v=0
253466 On ch=1 n=f5 v=39
253473 On ch=1 n=g5 v=0
253801 Par ch=1 c=64 v=127
253853 On ch=1 n=f5 v=0
253991 On ch=1 n=c7 v=0
254039 On ch=1 n=c6 v=0
254174 On ch=1 n=e6 v=58
254270 On ch=1 n=f6 v=0
254494 Par ch=1 c=64 v=0
254978 Par ch=1 c=64 v=127
255357 On ch=1 n=e6 v=0
255803 On ch=1 n=f6 v=48
255970 On ch=1 n=f6 v=0
255987 On ch=1 n=g6 v=57
256079 On ch=1 n=f6 v=65
256214 On ch=1 n=f6 v=0
256214 On ch=1 n=e6 v=63
256230 On ch=1 n=g6 v=0
256307 On ch=1 n=e6 v=0
256307 On ch=1 n=f6 v=67
256430 On ch=1 n=g5 v=55
256559 On ch=1 n=d6 v=64
256630 On ch=1 n=f6 v=0
256714 On ch=1 n=a#3 v=36
256813 Par ch=1 c=64 v=0
256870 On ch=1 n=a6 v=77
257136 Par ch=1 c=64 v=127
257247 On ch=1 n=f4 v=34
257271 On ch=1 n=a#3 v=0
257314 On ch=1 n=g5 v=0
257387 On ch=1 n=f4 v=0
257440 On ch=1 n=g4 v=48
257467 On ch=1 n=d6 v=0
257467 Par ch=1 c=67 v=127
257531 On ch=1 n=g4 v=0
257643 On ch=1 n=a#4 v=53
257840 On ch=1 n=c#5 v=45
257851 On ch=1 n=a#4 v=0
257967 Par ch=1 c=64 v=0
258071 On ch=1 n=e5 v=37
258080 On ch=1 n=g6 v=52
258151 On ch=1 n=c#5 v=0
258163 Par ch=1 c=64 v=127
258307 Par ch=1 c=64 v=0
258355 On ch=1 n=f6 v=50
258407 On ch=1 n=d5 v=33
258448 On ch=1 n=e5 v=0
258484 On ch=1 n=a6 v=0
258507 On ch=1 n=g6 v=0
258600 Par ch=1 c=64 v=127
258651 On ch=1 n=d5 v=0
258659 On ch=1 n=d6 v=48
258980 On ch=1 n=f6 v=0
259124 On ch=1 n=a#5 v=41
259231 On ch=1 n=d6 v=0
259287 Par ch=1 c=64 v=0
259691 Par ch=1 c=64 v=127
259740 Par ch=1 c=67 v=0
260107 On ch=1 n=a#5 v=0
260348 Par ch=1 c=64 v=0
260887 Par ch=1 c=64 v=127
261134 On ch=1 n=a5 v=39
261460 On ch=1 n=a#5 v=62
261507 On ch=1 n=a5 v=0
261764 On ch=1 n=c#6 v=72
262223 On ch=1 n=e6 v=66
262233 On ch=1 n=c#6 v=0
262271 On ch=1 n=g4 v=42
262281 On ch=1 n=f5 v=39
262288 On ch=1 n=a#5 v=0
262288 On ch=1 n=b3 v=38
262372 Par ch=1 c=64 v=0
262788 Par ch=1 c=64 v=127
263017 On ch=1 n=e6 v=0
263521 On ch=1 n=f5 v=0
263573 On ch=1 n=b3 v=0
263573 On ch=1 n=d6 v=47
263680 On ch=1 n=g4 v=0
263893 On ch=1 n=b5 v=52
264137 On ch=1 n=a5 v=56
264384 On ch=1 n=b5 v=0
264488 On ch=1 n=g5 v=47
264488 On ch=1 n=e5 v=36
264517 On ch=1 n=c4 v=38
264521 On ch=1 n=a#4 v=37
264551 On ch=1 n=a5 v=0
264551 Par ch=1 c=64 v=0
264752 On ch=1 n=d6 v=0
264760 Par ch=1 c=64 v=127
264792 On ch=1 n=g5 v=0
265001 On ch=1 n=a5 v=63
265204 On ch=1 n=a5 v=0
265488 On ch=1 n=a#5 v=73
265552 Par ch=1 c=64 v=0
265657 Par ch=1 c=64 v=127
265705 On ch=1 n=a#5 v=0
265904 On ch=1 n=c#6 v=78
265944 On ch=1 n=e5 v=0
265993 On ch=1 n=c4 v=0
266004 On ch=1 n=a#4 v=0
266071 On ch=1 n=c#6 v=0
266616 On ch=1 n=e6 v=52
266616 On ch=1 n=f5 v=45
266637 Par ch=1 c=64 v=0
266664 On ch=1 n=b3 v=36
266668 On ch=1 n=g4 v=38
267112 Par ch=1 c=64 v=127
267328 Par ch=1 c=67 v=127
267473 On ch=1 n=e6 v=0
267968 On ch=1 n=d6 v=45
268044 On ch=1 n=g4 v=0
268127 On ch=1 n=b3 v=0
268217 On ch=1 n=b5 v=53
268311 On ch=1 n=f5 v=0
268344 On ch=1 n=d6 v=0
268424 On ch=1 n=a5 v=55
268628 On ch=1 n=b5 v=0
268704 On ch=1 n=g5 v=37
268704 On ch=1 n=e5 v=38
268721 On ch=1 n=c4 v=36
268733 On ch=1 n=a5 v=0
268748 On ch=1 n=a#4 v=35
268780 Par ch=1 c=64 v=0
269051 Par ch=1 c=64 v=127
269288 On ch=1 n=a5 v=41
269313 On ch=1 n=a#4 v=0
269384 On ch=1 n=g5 v=0
269513 On ch=1 n=e5 v=0
269544 On ch=1 n=c4 v=0
269560 On ch=1 n=c6 v=48
269570 On ch=1 n=a5 v=0
269889 On ch=1 n=a#5 v=50
269889 On ch=1 n=e5 v=40
269901 On ch=1 n=c6 v=0
269911 On ch=1 n=c#4 v=34
269918 On ch=1 n=g4 v=29
270158 Par ch=1 c=64 v=0
270567 Par ch=1 c=64 v=127
270738 On ch=1 n=e5 v=0
271027 Par ch=1 c=67 v=0
271038 On ch=1 n=g4 v=0
271118 On ch=1 n=c#4 v=0
271118 On ch=1 n=a5 v=49
271258 On ch=1 n=a#5 v=0
271266 On ch=1 n=a5 v=0
271386 On ch=1 n=a5 v=61
271654 On ch=1 n=f3 v=44
271814 Par ch=1 c=64 v=0
271934 On ch=1 n=a6 v=79
272090 Par ch=1 c=64 v=127
272327 On ch=1 n=d4 v=51
272415 On ch=1 n=f3 v=0
272522 On ch=1 n=d4 v=0
272551 On ch=1 n=f4 v=59
272610 On ch=1 n=f4 v=0
272746 On ch=1 n=a4 v=69
272935 On ch=1 n=a4 v=0
272942 On ch=1 n=c#5 v=74
273191 On ch=1 n=e5 v=67
273218 On ch=1 n=c#5 v=0
273347 Par ch=1 c=64 v=0
273502 On ch=1 n=d5 v=49
273505 On ch=1 n=e5 v=0
273574 Par ch=1 c=64 v=127
273747 On ch=1 n=d5 v=0
273978 On ch=1 n=c#6 v=72
274158 On ch=1 n=a5 v=0
274162 Par ch=1 c=64 v=0
274207 On ch=1 n=a6 v=0
274698 Par ch=1 c=64 v=127
275366 On ch=1 n=c#6 v=0
275734 On ch=1 n=d6 v=45
275872 On ch=1 n=e6 v=59
275875 On ch=1 n=d6 v=0
275979 On ch=1 n=d6 v=57
276092 On ch=1 n=c#6 v=67
276103 On ch=1 n=d6 v=0
276158 On ch=1 n=e6 v=0
276188 On ch=1 n=d6 v=65
276211 On ch=1 n=c#6 v=0
276315 On ch=1 n=d5 v=56
276435 On ch=1 n=a#5 v=65
276524 On ch=1 n=g3 v=49
276615 Par ch=1 c=64 v=0
276635 On ch=1 n=d6 v=0
276691 On ch=1 n=f6 v=76
276903 Par ch=1 c=64 v=127
276962 On ch=1 n=d4 v=55
277024 On ch=1 n=d5 v=0
277122 On ch=1 n=g3 v=0
277158 On ch=1 n=d4 v=0
277203 On ch=1 n=g4 v=60
277279 On ch=1 n=a#5 v=0
277299 On ch=1 n=g4 v=0
277423 On ch=1 n=a#4 v=58
277635 On ch=1 n=c#5 v=54
277695 On ch=1 n=a#4 v=0
277795 On ch=1 n=c#5 v=0
277908 On ch=1 n=e6 v=56
277908 On ch=1 n=d5 v=44
277948 Par ch=1 c=64 v=0
278127 Par ch=1 c=64 v=127
278208 On ch=1 n=d6 v=37
278216 On ch=1 n=a#4 v=35
278263 On ch=1 n=d5 v=0
278291 Par ch=1 c=67 v=127
278527 On ch=1 n=a#5 v=45
278704 On ch=1 n=a#4 v=0
278707 Par ch=1 c=64 v=0
278799 On ch=1 n=e6 v=0
278895 On ch=1 n=f6 v=0
279003 On ch=1 n=d6 v=0
279003 On ch=1 n=g5 v=38
279356 On ch=1 n=a#5 v=0
279915 On ch=1 n=g5 v=0
279931 Par ch=1 c=64 v=127
280199 Par ch=1 c=67 v=0
280567 Par ch=1 c=64 v=0
280703 On ch=1 n=f#5 v=51
280903 Par ch=1 c=64 v=127
281075 On ch=1 n=g5 v=55
281119 On ch=1 n=f#5 v=0
281391 On ch=1 n=g5 v=0
281419 On ch=1 n=a5 v=68
281955 On ch=1 n=c6 v=64
281965 On ch=1 n=d5 v=40
281999 On ch=1 n=g3 v=37
282005 On ch=1 n=e4 v=37
282028 On ch=1 n=a5 v=0
282461 Par ch=1 c=64 v=0
282879 Par ch=1 c=64 v=127
283565 On ch=1 n=a#5 v=46
283876 On ch=1 n=a#5 v=0
283901 On ch=1 n=g5 v=59
284205 On ch=1 n=f5 v=67
284321 On ch=1 n=g5 v=0
284381 On ch=1 n=f5 v=0
284472 On ch=1 n=g3 v=0
284532 On ch=1 n=e5 v=71
284592 On ch=1 n=e4 v=0
284872 On ch=1 n=e5 v=0
284880 On ch=1 n=d5 v=0
285084 On ch=1 n=d5 v=45
285092 On ch=1 n=f4 v=66
285092 On ch=1 n=e5 v=54
285260 Par ch=1 c=64 v=0
285452 Par ch=1 c=64 v=127
285608 On ch=1 n=g4 v=77
285692 On ch=1 n=f4 v=0
285912 On ch=1 n=c6 v=0
285939 On ch=1 n=d5 v=0
285956 On ch=1 n=e5 v=0
286249 On ch=1 n=e5 v=49
286252 On ch=1 n=a4 v=66
286279 On ch=1 n=d5 v=37
286296 On ch=1 n=g4 v=0
286499 Par ch=1 c=64 v=0
286752 Par ch=1 c=64 v=127
287069 On ch=1 n=c5 v=74
287156 On ch=1 n=e5 v=0
287196 On ch=1 n=d5 v=0
287232 On ch=1 n=a4 v=0
287680 Par ch=1 c=64 v=0
288336 Par ch=1 c=64 v=127
289468 On ch=1 n=a#4 v=43
289568 On ch=1 n=c5 v=0
289840 On ch=1 n=a#4 v=0
289868 On ch=1 n=g4 v=56
290172 On ch=1 n=f4 v=64
290208 On ch=1 n=g4 v=0
290499 On ch=1 n=a4 v=61
290516 On ch=1 n=f4 v=0
290701 Par ch=1 c=64 v=0
290880 On ch=1 n=g4 v=49
290945 On ch=1 n=a4 v=0
291235 On ch=1 n=e4 v=48
291252 On ch=1 n=g4 v=0
291476 Par ch=1 c=64 v=127
291592 On ch=1 n=d4 v=49
291612 On ch=1 n=e4 v=0
292016 On ch=1 n=f4 v=43
292048 On ch=1 n=d4 v=0
292076 Par ch=1 c=64 v=0
292509 On ch=1 n=e4 v=38
292581 On ch=1 n=f4 v=0
292945 Par ch=1 c=67 v=127
293101 On ch=1 n=c4 v=36
293148 On ch=1 n=e4 v=0
293960 On ch=1 n=b3 v=36
294012 On ch=1 n=c4 v=0
294256 Par ch=1 c=64 v=127
294353 On ch=1 n=b3 v=0
295072 On ch=1 n=a#3 v=59
295120 On ch=1 n=a#3 v=0
295139 Par ch=1 c=64 v=0
295259 On ch=1 n=a#3 v=55
295312 On ch=1 n=a#3 v=0
295449 On ch=1 n=a#3 v=56
295496 On ch=1 n=a#3 v=0
295619 On ch=1 n=a#3 v=58
295672 On ch=1 n=a#3 v=0
295808 On ch=1 n=a#3 v=40
295959 On ch=1 n=a#3 v=0
295996 On ch=1 n=a3 v=61
296069 On ch=1 n=g3 v=57
296080 On ch=1 n=a3 v=0
296139 On ch=1 n=c4 v=59
296145 On ch=1 n=g3 v=0
296189 On ch=1 n=c4 v=0
296341 On ch=1 n=b3 v=47
296401 On ch=1 n=b3 v=0
296572 On ch=1 n=a#3 v=48
296729 On ch=1 n=a#3 v=0
297675 On ch=1 n=d5 v=35
297679 On ch=1 n=e5 v=37
297681 On ch=1 n=g4 v=29
297876 Par ch=1 c=64 v=127
298639 On ch=1 n=g4 v=0
298649 Par ch=1 c=64 v=0
298653 On ch=1 n=b3 v=52
298653 On ch=1 n=g#4 v=50
298689 On ch=1 n=b3 v=0
298849 On ch=1 n=b3 v=52
298893 On ch=1 n=b3 v=0
299037 On ch=1 n=b3 v=55
299082 On ch=1 n=b3 v=0
299213 On ch=1 n=b3 v=61
299273 On ch=1 n=b3 v=0
299398 On ch=1 n=b3 v=69
299545 On ch=1 n=b3 v=0
299566 On ch=1 n=a3 v=60
299618 On ch=1 n=g#3 v=68
299649 On ch=1 n=a3 v=0
299682 On ch=1 n=g#3 v=0
299738 On ch=1 n=c#4 v=67
299789 On ch=1 n=c#4 v=0
299805 On ch=1 n=g#4 v=0
299805 On ch=1 n=d5 v=0
299822 On ch=1 n=e5 v=0
299933 On ch=1 n=c4 v=55
299993 On ch=1 n=c4 v=0
300177 On ch=1 n=b3 v=47
300293 On ch=1 n=b3 v=0
301413 On ch=1 n=g#4 v=33
301418 On ch=1 n=f5 v=36
301418 On ch=1 n=d5 v=29
301609 Par ch=1 c=64 v=127
301738 On ch=1 n=d5 v=0
301785 On ch=1 n=g#4 v=0
302049 On ch=1 n=g#3 v=59
302082 On ch=1 n=a3 v=68
302109 On ch=1 n=b3 v=68
302165 On ch=1 n=g#3 v=0
302165 Par ch=1 c=64 v=0
302169 On ch=1 n=c4 v=62
302178 On ch=1 n=a3 v=0
302182 On ch=1 n=a4 v=59
302182 On ch=1 n=d#5 v=56
302201 On ch=1 n=b3 v=0
302229 On ch=1 n=c4 v=0
302366 On ch=1 n=c4 v=67
302409 On ch=1 n=c4 v=0
302542 On ch=1 n=c4 v=63
302590 On ch=1 n=c4 v=0
302718 On ch=1 n=c4 v=57
302769 On ch=1 n=c4 v=0
302933 On ch=1 n=f#5 v=56
302945 On ch=1 n=f5 v=0
303269 Par ch=1 c=64 v=127
303298 Par ch=1 c=67 v=0
303421 On ch=1 n=a4 v=0
303465 On ch=1 n=a2 v=67
303482 On ch=1 n=a#2 v=71
303516 On ch=1 n=c3 v=69
303549 On ch=1 n=a2 v=0
303589 On ch=1 n=d#5 v=0
303599 On ch=1 n=c#3 v=82
303614 On ch=1 n=e5 v=65
303622 Par ch=1 c=64 v=0
303633 On ch=1 n=c3 v=0
303633 On ch=1 n=a#2 v=0
303633 On ch=1 n=a#4 v=69
303650 On ch=1 n=c#3 v=0
303794 On ch=1 n=c#3 v=68
303835 On ch=1 n=c#3 v=0
303963 On ch=1 n=c#3 v=60
304014 On ch=1 n=c#3 v=0
304102 Par ch=1 c=67 v=127
304126 On ch=1 n=c#3 v=57
304174 On ch=1 n=c#3 v=0
304339 On ch=1 n=f#5 v=0
304353 On ch=1 n=g5 v=56
304578 Par ch=1 c=64 v=127
304582 On ch=1 n=a#4 v=0
304849 On ch=1 n=g3 v=60
304886 On ch=1 n=g#3 v=77
304910 On ch=1 n=a#3 v=73
304946 On ch=1 n=g3 v=0
304954 On ch=1 n=e5 v=0
304959 On ch=1 n=d#5 v=61
304963 On ch=1 n=c4 v=83
304966 On ch=1 n=c5 v=63
304982 On ch=1 n=g#3 v=0
304982 On ch=1 n=g5 v=0
305015 On ch=1 n=a#3 v=0
305030 Par ch=1 c=64 v=0
305050 On ch=1 n=c4 v=0
305142 On ch=1 n=c4 v=74
305195 On ch=1 n=c4 v=0
305243 On ch=1 n=d#5 v=0
305310 On ch=1 n=c4 v=77
305314 On ch=1 n=a#5 v=69
305353 On ch=1 n=c4 v=0
305486 On ch=1 n=c4 v=74
305534 On ch=1 n=c4 v=0
305690 On ch=1 n=g5 v=60
305822 On ch=1 n=a#5 v=0
306042 On ch=1 n=g#5 v=56
306063 Par ch=1 c=64 v=127
306066 On ch=1 n=g5 v=0
306075 On ch=1 n=c5 v=0
306087 On ch=1 n=g#5 v=0
306167 Par ch=1 c=67 v=0
306175 On ch=1 n=c3 v=54
306198 On ch=1 n=c#3 v=68
306226 On ch=1 n=d#3 v=59
306238 On ch=1 n=c3 v=0
306279 On ch=1 n=f3 v=73
306313 On ch=1 n=d#3 v=0
306339 On ch=1 n=a5 v=78
306346 On ch=1 n=c#3 v=0
306354 On ch=1 n=f3 v=0
306366 On ch=1 n=a4 v=57
306503 On ch=1 n=c#3 v=70
306503 On ch=1 n=f3 v=68
306522 Par ch=1 c=64 v=0
306546 On ch=1 n=c#3 v=0
306550 On ch=1 n=f3 v=0
306683 On ch=1 n=c#3 v=60
306687 On ch=1 n=f3 v=62
306714 On ch=1 n=c5 v=45
306714 On ch=1 n=c6 v=77
306719 On ch=1 n=c#3 v=0
306730 On ch=1 n=f3 v=0
306730 On ch=1 n=a5 v=0
306735 On ch=1 n=a4 v=0
306735 Par ch=1 c=64 v=127
306833 On ch=1 n=c#3 v=53
306835 On ch=1 n=f3 v=60
306879 On ch=1 n=c#3 v=0
306899 On ch=1 n=f3 v=0
306994 Par ch=1 c=64 v=0
307034 On ch=1 n=a5 v=73
307055 On ch=1 n=a4 v=46
307086 On ch=1 n=c6 v=0
307086 On ch=1 n=c5 v=0
307295 Par ch=1 c=64 v=127
307389 On ch=1 n=a#5 v=75
307410 On ch=1 n=a#4 v=56
307473 On ch=1 n=a5 v=0
307475 On ch=1 n=a4 v=0
307742 On ch=1 n=d6 v=78
307752 On ch=1 n=d5 v=66
307756 On ch=1 n=c3 v=52
307767 On ch=1 n=g#3 v=60
307783 On ch=1 n=a#5 v=0
307799 On ch=1 n=a#4 v=0
307826 On ch=1 n=g#3 v=0
307826 On ch=1 n=c3 v=0
307876 Par ch=1 c=64 v=0
307927 On ch=1 n=g#3 v=61
307932 On ch=1 n=c3 v=58
308003 On ch=1 n=c3 v=0
308003 On ch=1 n=g#3 v=0
308100 On ch=1 n=c3 v=71
308107 On ch=1 n=g#3 v=71
308147 On ch=1 n=g#3 v=0
308151 On ch=1 n=c3 v=0
308204 On ch=1 n=d5 v=0
308267 On ch=1 n=c3 v=75
308270 On ch=1 n=g#3 v=75
308332 On ch=1 n=c3 v=0
308335 On ch=1 n=g#3 v=0
308451 On ch=1 n=c3 v=68
308451 On ch=1 n=d#5 v=83
308451 On ch=1 n=d#6 v=84
308452 On ch=1 n=g#3 v=74
308507 On ch=1 n=d6 v=0
308515 On ch=1 n=g#3 v=0
308519 On ch=1 n=c3 v=0
308631 On ch=1 n=g#3 v=71
308632 On ch=1 n=c3 v=59
308692 On ch=1 n=c3 v=0
308692 On ch=1 n=g#3 v=0
308796 On ch=1 n=g#3 v=65
308800 On ch=1 n=c3 v=65
308872 On ch=1 n=c3 v=0
308876 On ch=1 n=g#3 v=0
308983 On ch=1 n=c3 v=75
308983 On ch=1 n=g#3 v=77
309052 On ch=1 n=c3 v=0
309056 On ch=1 n=g#3 v=0
309172 On ch=1 n=g#3 v=86
309172 On ch=1 n=b2 v=82
309243 On ch=1 n=g#3 v=0
309247 On ch=1 n=b2 v=0
309336 On ch=1 n=g#3 v=77
309351 On ch=1 n=b2 v=70
309411 On ch=1 n=b2 v=0
309411 On ch=1 n=g#3 v=0
309516 On ch=1 n=g#3 v=67
309523 On ch=1 n=b2 v=56
309590 On ch=1 n=b2 v=0
309600 On ch=1 n=g#3 v=0
309687 On ch=1 n=g#3 v=61
309687 On ch=1 n=b2 v=63
309748 On ch=1 n=b2 v=0
309777 On ch=1 n=g#3 v=0
309807 On ch=1 n=d#5 v=0
309809 Par ch=1 c=64 v=127
309884 On ch=1 n=d#6 v=0
309913 On ch=1 n=b2 v=51
309921 On ch=1 n=e6 v=82
309921 On ch=1 n=e5 v=77
309921 On ch=1 n=g#3 v=53
309921 On ch=1 n=g#5 v=77
309932 Par ch=1 c=64 v=0
309989 On ch=1 n=g#3 v=0
309993 On ch=1 n=b2 v=0
310093 On ch=1 n=g#3 v=60
310093 On ch=1 n=b2 v=57
310169 On ch=1 n=b2 v=0
310177 On ch=1 n=g#3 v=0
310280 On ch=1 n=g#3 v=59
310289 On ch=1 n=b2 v=66
310368 On ch=1 n=b2 v=0
310380 On ch=1 n=g#3 v=0
310484 On ch=1 n=g#3 v=61
310500 On ch=1 n=b2 v=63
310577 On ch=1 n=b2 v=0
310577 On ch=1 n=g#3 v=0
310708 On ch=1 n=g#3 v=64
310708 On ch=1 n=a#2 v=62
310720 On ch=1 n=c#6 v=66
310808 On ch=1 n=a#2 v=0
310808 On ch=1 n=g#3 v=0
310857 On ch=1 n=g#5 v=0
310917 On ch=1 n=g#3 v=58
310921 On ch=1 n=a#2 v=55
311017 On ch=1 n=a#2 v=0
311017 On ch=1 n=g#3 v=0
311144 On ch=1 n=g#3 v=50
311148 On ch=1 n=a#2 v=50
311253 On ch=1 n=a#2 v=0
311253 On ch=1 n=g#3 v=0
311357 Par ch=1 c=64 v=127
311388 On ch=1 n=g#3 v=52
311388 On ch=1 n=a#2 v=51
311416 On ch=1 n=e5 v=0
311428 On ch=1 n=c#6 v=0
311447 On ch=1 n=e6 v=0
311453 On ch=1 n=a#2 v=0
311460 On ch=1 n=g#3 v=0
311689 On ch=1 n=f6 v=71
311707 On ch=1 n=c#6 v=54
311717 On ch=1 n=g#3 v=49
311717 On ch=1 n=a#2 v=50
311734 On ch=1 n=f5 v=49
311761 Par ch=1 c=64 v=0
311901 On ch=1 n=g#3 v=0
311905 On ch=1 n=a#2 v=0
311978 On ch=1 n=g#3 v=41
311978 On ch=1 n=a#2 v=40
311990 Par ch=1 c=64 v=127
312221 On ch=1 n=a#2 v=0
312225 On ch=1 n=g#3 v=0
312225 On ch=1 n=g#3 v=39
312230 On ch=1 n=a#2 v=39
312444 On ch=1 n=a#2 v=0
312444 On ch=1 n=g#3 v=0
312581 On ch=1 n=g#3 v=41
312585 On ch=1 n=a#2 v=33
312898 On ch=1 n=a#2 v=0
312905 On ch=1 n=g#3 v=0
312905 On ch=1 n=g#3 v=36
312905 On ch=1 n=a#2 v=36
313133 On ch=1 n=a#2 v=0
313133 On ch=1 n=g#3 v=0
313198 On ch=1 n=f5 v=0
313266 On ch=1 n=a#2 v=35
313266 On ch=1 n=g#3 v=36
313297 On ch=1 n=c#6 v=0
313425 On ch=1 n=g#3 v=0
313425 On ch=1 n=a#2 v=0
313465 On ch=1 n=f6 v=0
313781 On ch=1 n=f6 v=58
313784 On ch=1 n=c#6 v=48
313784 On ch=1 n=f5 v=38
313817 On ch=1 n=g#3 v=36
313817 On ch=1 n=a2 v=46
313865 Par ch=1 c=64 v=0
314131 Par ch=1 c=64 v=127
314242 On ch=1 n=a2 v=0
314242 On ch=1 n=g#3 v=0
314250 On ch=1 n=g#3 v=46
314250 On ch=1 n=a2 v=45
314483 On ch=1 n=a2 v=0
314483 On ch=1 n=g#3 v=0
314651 On ch=1 n=a2 v=46
314654 On ch=1 n=g#3 v=45
314774 On ch=1 n=f5 v=0
314858 On ch=1 n=g#3 v=0
314863 On ch=1 n=a2 v=0
314918 On ch=1 n=c#6 v=0
315001 On ch=1 n=f6 v=0
315098 On ch=1 n=a2 v=46
315098 On ch=1 n=g#3 v=45
315306 On ch=1 n=g#3 v=0
315323 On ch=1 n=a2 v=0
315901 On ch=1 n=f6 v=46
315901 On ch=1 n=c#6 v=41
315901 On ch=1 n=f5 v=35
315903 On ch=1 n=a2 v=45
315903 On ch=1 n=a3 v=46
315934 Par ch=1 c=64 v=0
316266 On ch=1 n=a2 v=0
316270 On ch=1 n=a3 v=0
316314 Par ch=1 c=64 v=127
316691 On ch=1 n=a3 v=39
316694 On ch=1 n=a2 v=38
316703 On ch=1 n=f5 v=0
316823 On ch=1 n=f6 v=0
316883 On ch=1 n=c#6 v=0
317262 On ch=1 n=a2 v=0
317262 On ch=1 n=a3 v=0
317950 On ch=1 n=f#6 v=63
317961 Par ch=1 c=64 v=0
317991 On ch=1 n=d3 v=45
318218 Par ch=1 c=64 v=127
318411 On ch=1 n=d3 v=0
318690 On ch=1 n=a4 v=36
318774 On ch=1 n=f#6 v=0
318921 On ch=1 n=d5 v=39
319081 On ch=1 n=f#6 v=66
319270 On ch=1 n=f#5 v=40
319408 On ch=1 n=a4 v=0
319419 On ch=1 n=f#5 v=0
319431 On ch=1 n=a5 v=44
319475 On ch=1 n=f#6 v=0
319475 On ch=1 n=d5 v=0
319595 On ch=1 n=c#4 v=42
319595 On ch=1 n=f#6 v=76
319607 Par ch=1 c=64 v=0
319708 On ch=1 n=a5 v=0
319772 Par ch=1 c=64 v=127
319811 On ch=1 n=a#4 v=41
319814 On ch=1 n=c#4 v=0
319943 On ch=1 n=d5 v=40
320015 On ch=1 n=f#6 v=0
320120 On ch=1 n=f#6 v=79
320135 On ch=1 n=d5 v=0
320228 On ch=1 n=a#4 v=0
320300 On ch=1 n=f#5 v=46
320448 On ch=1 n=a#5 v=52
320515 On ch=1 n=b3 v=42
320543 On ch=1 n=f#5 v=0
320571 Par ch=1 c=64 v=0
320580 On ch=1 n=f#6 v=0
320655 On ch=1 n=f#6 v=73
320738 On ch=1 n=b3 v=0
320763 Par ch=1 c=64 v=127
320774 On ch=1 n=a#5 v=0
320871 On ch=1 n=b4 v=44
320955 On ch=1 n=b4 v=0
321067 On ch=1 n=d5 v=48
321168 On ch=1 n=d5 v=0
321258 On ch=1 n=e6 v=68
321455 On ch=1 n=f#5 v=31
321531 On ch=1 n=f#6 v=0
321638 On ch=1 n=d6 v=75
321776 On ch=1 n=b5 v=44
321836 On ch=1 n=b5 v=0
321935 On ch=1 n=e6 v=0
321977 On ch=1 n=f#5 v=0
322168 On ch=1 n=a3 v=37
322212 Par ch=1 c=64 v=0
322284 On ch=1 n=g6 v=69
322432 Par ch=1 c=64 v=127
322505 On ch=1 n=a3 v=0
322616 On ch=1 n=d6 v=0
322636 Par ch=1 c=67 v=127
322669 On ch=1 n=c5 v=40
322848 On ch=1 n=d#5 v=40
323032 On ch=1 n=f#5 v=36
323108 On ch=1 n=f#5 v=0
323195 On ch=1 n=c6 v=38
323245 On ch=1 n=c6 v=0
323275 On ch=1 n=d#5 v=0
323389 On ch=1 n=c5 v=0
323457 On ch=1 n=f#6 v=52
323472 Par ch=1 c=67 v=0
323624 On ch=1 n=f#6 v=0
323928 Par ch=1 c=64 v=0
323936 On ch=1 n=g3 v=35
323952 Par ch=1 c=67 v=127
323977 On ch=1 n=f#6 v=50
324204 Par ch=1 c=64 v=127
324214 On ch=1 n=g3 v=0
324525 On ch=1 n=b4 v=34
324692 On ch=1 n=g6 v=0
324745 On ch=1 n=d#5 v=45
324813 On ch=1 n=b4 v=0
324922 On ch=1 n=f#5 v=49
324961 On ch=1 n=d#5 v=0
325065 On ch=1 n=f#5 v=0
325081 On ch=1 n=b5 v=56
325229 On ch=1 n=b5 v=0
325229 On ch=1 n=d#5 v=50
325378 On ch=1 n=f#5 v=54
325452 On ch=1 n=d#5 v=0
325505 On ch=1 n=a5 v=50
325605 On ch=1 n=f#5 v=0
325652 On ch=1 n=g5 v=44
325662 On ch=1 n=a5 v=0
325795 On ch=1 n=g5 v=0
325795 On ch=1 n=b4 v=43
325959 On ch=1 n=d#5 v=40
325986 On ch=1 n=b4 v=0
326018 Par ch=1 c=64 v=0
326122 On ch=1 n=d#5 v=0
326122 On ch=1 n=f#5 v=39
326388 On ch=1 n=e5 v=37
326407 On ch=1 n=f#5 v=0
326703 Par ch=1 c=67 v=0
326739 Par ch=1 c=64 v=127
327048 On ch=1 n=b5 v=38
327059 On ch=1 n=e5 v=0
327295 On ch=1 n=b5 v=0
327379 On ch=1 n=f#6 v=0
327415 On ch=1 n=c6 v=46
327432 Par ch=1 c=64 v=0
327595 Par ch=1 c=64 v=127
327627 On ch=1 n=c6 v=0
327715 On ch=1 n=c#6 v=68
327923 On ch=1 n=c#6 v=0
327983 On ch=1 n=d6 v=65
328056 Par ch=1 c=64 v=0
328216 Par ch=1 c=64 v=127
328247 On ch=1 n=d#6 v=71
328295 On ch=1 n=d6 v=0
328463 On ch=1 n=d#6 v=0
328492 On ch=1 n=e6 v=69
328703 On ch=1 n=e6 v=0
328768 On ch=1 n=f#6 v=69
329036 Par ch=1 c=64 v=0
329119 On ch=1 n=e3 v=46
329127 On ch=1 n=g6 v=67
329203 On ch=1 n=f#6 v=0
329286 Par ch=1 c=64 v=127
329339 On ch=1 n=e3 v=0
329583 On ch=1 n=b4 v=39
329740 On ch=1 n=e5 v=44
329875 On ch=1 n=g6 v=0
329885 On ch=1 n=g6 v=68
330005 On ch=1 n=e5 v=0
330037 On ch=1 n=g5 v=53
330180 On ch=1 n=g5 v=0
330180 On ch=1 n=b5 v=62
330229 On ch=1 n=g6 v=0
330276 On ch=1 n=b4 v=0
330317 On ch=1 n=d4 v=46
330333 On ch=1 n=g6 v=75
330345 Par ch=1 c=64 v=0
330483 On ch=1 n=d4 v=0
330485 Par ch=1 c=64 v=127
330512 On ch=1 n=b4 v=49
330572 On ch=1 n=b5 v=0
330648 On ch=1 n=e5 v=54
330743 On ch=1 n=g6 v=0
330785 On ch=1 n=g6 v=71
330816 On ch=1 n=e5 v=0
330944 On ch=1 n=g5 v=56
331049 On ch=1 n=b4 v=0
331065 On ch=1 n=g5 v=0
331092 On ch=1 n=b5 v=71
331100 On ch=1 n=c#4 v=44
331204 Par ch=1 c=64 v=0
331236 On ch=1 n=g6 v=0
331284 On ch=1 n=g6 v=78
331349 On ch=1 n=b5 v=0
331384 Par ch=1 c=64 v=127
331389 On ch=1 n=c#4 v=0
331443 On ch=1 n=b4 v=49
331556 On ch=1 n=b4 v=0
331609 On ch=1 n=e5 v=54
331684 On ch=1 n=e5 v=0
331745 On ch=1 n=f#6 v=84
331944 On ch=1 n=g5 v=49
332064 On ch=1 n=e6 v=84
332185 On ch=1 n=g6 v=0
332196 On ch=1 n=b5 v=32
332223 On ch=1 n=g5 v=0
332244 On ch=1 n=b5 v=0
332244 On ch=1 n=e6 v=0
332292 On ch=1 n=f#6 v=0
332424 On ch=1 n=c#4 v=45
332489 Par ch=1 c=64 v=0
332536 On ch=1 n=c#7 v=84
332660 Par ch=1 c=64 v=127
332663 On ch=1 n=c#4 v=0
332856 On ch=1 n=b4 v=51
332952 On ch=1 n=b4 v=0
333024 On ch=1 n=f5 v=45
333144 On ch=1 n=c#7 v=0
333159 On ch=1 n=b5 v=59
333159 On ch=1 n=g#5 v=45
333244 On ch=1 n=g#5 v=0
333277 On ch=1 n=b5 v=0
333303 On ch=1 n=f6 v=71
333343 On ch=1 n=f5 v=0
333440 On ch=1 n=f6 v=0
333483 On ch=1 n=g#6 v=82
333756 On ch=1 n=g#6 v=0
333804 Par ch=1 c=64 v=0
333813 On ch=1 n=f#3 v=48
333817 On ch=1 n=b6 v=77
333980 Par ch=1 c=64 v=127
333990 On ch=1 n=f#3 v=0
334285 On ch=1 n=c#5 v=40
334466 On ch=1 n=f#5 v=54
334510 Par ch=1 c=67 v=127
334533 On ch=1 n=c#5 v=0
334633 On ch=1 n=a5 v=57
334713 On ch=1 n=f#5 v=0
334773 On ch=1 n=c#6 v=61
334789 On ch=1 n=a5 v=0
334937 On ch=1 n=f#5 v=52
335013 On ch=1 n=c#6 v=0
335061 On ch=1 n=g#5 v=59
335134 On ch=1 n=f#5 v=0
335210 On ch=1 n=b5 v=53
335269 On ch=1 n=g#5 v=0
335341 On ch=1 n=a5 v=42
335369 On ch=1 n=b5 v=0
335490 On ch=1 n=c#5 v=34
335589 On ch=1 n=f5 v=49
335633 On ch=1 n=c#5 v=0
335650 Par ch=1 c=64 v=0
335681 On ch=1 n=a5 v=0
335745 On ch=1 n=f5 v=0
335777 On ch=1 n=g#5 v=43
336017 On ch=1 n=g#5 v=0
336017 On ch=1 n=f#5 v=37
336345 On ch=1 n=a6 v=47
336377 Par ch=1 c=64 v=127
336402 Par ch=1 c=67 v=0
336562 On ch=1 n=a6 v=0
336782 On ch=1 n=d7 v=65
336796 On ch=1 n=b6 v=0
336861 On ch=1 n=f#5 v=0
336906 Par ch=1 c=64 v=0
337085 On ch=1 n=c#7 v=77
337237 Par ch=1 c=64 v=127
337257 On ch=1 n=d7 v=0
337349 On ch=1 n=c7 v=78
337382 Par ch=1 c=64 v=0
337526 Par ch=1 c=64 v=127
337613 On ch=1 n=b6 v=72
337637 On ch=1 n=c#7 v=0
337666 On ch=1 n=c7 v=0
337893 On ch=1 n=a#6 v=70
338042 On ch=1 n=b6 v=0
338237 On ch=1 n=a6 v=74
338529 On ch=1 n=a6 v=0
338793 On ch=1 n=a6 v=85
338809 Par ch=1 c=64 v=0
338861 On ch=1 n=e3 v=40
338985 Par ch=1 c=64 v=127
338993 On ch=1 n=a#6 v=0
339173 Par ch=1 c=67 v=127
339197 On ch=1 n=e3 v=0
339549 On ch=1 n=g4 v=37
339649 On ch=1 n=g6 v=65
339789 On ch=1 n=b4 v=46
339842 On ch=1 n=g4 v=0
339914 On ch=1 n=d#5 v=43
339933 On ch=1 n=b4 v=0
339933 On ch=1 n=a6 v=0
340009 On ch=1 n=d#5 v=0
340037 On ch=1 n=f#5 v=47
340173 On ch=1 n=f#5 v=0
340173 On ch=1 n=e5 v=52
340321 On ch=1 n=b4 v=49
340369 On ch=1 n=e5 v=0
340473 On ch=1 n=b5 v=71
340506 On ch=1 n=b4 v=0
340713 On ch=1 n=b5 v=0
340842 On ch=1 n=f5 v=38
340997 On ch=1 n=a#5 v=42
341122 Par ch=1 c=64 v=0
341242 On ch=1 n=a#3 v=38
341257 On ch=1 n=d6 v=77
341494 Par ch=1 c=64 v=127
341553 On ch=1 n=a#3 v=0
341601 On ch=1 n=g6 v=0
341914 On ch=1 n=f4 v=32
342070 On ch=1 n=a#4 v=32
342094 On ch=1 n=f5 v=0
342109 On ch=1 n=f4 v=0
342206 On ch=1 n=a#4 v=0
342229 On ch=1 n=d5 v=25
342362 On ch=1 n=d5 v=0
342413 On ch=1 n=g5 v=38
342493 On ch=1 n=a#5 v=0
342561 On ch=1 n=g5 v=0
342642 On ch=1 n=f5 v=31
342746 On ch=1 n=d6 v=0
342897 On ch=1 n=a#4 v=30
343037 On ch=1 n=e6 v=58
343161 On ch=1 n=d6 v=50
343169 On ch=1 n=f5 v=0
343265 On ch=1 n=c#6 v=57
343269 On ch=1 n=e6 v=0
343277 On ch=1 n=d6 v=0
343393 On ch=1 n=c#6 v=0
343402 On ch=1 n=d6 v=52
343533 On ch=1 n=d6 v=0
343542 On ch=1 n=a#4 v=0
343546 On ch=1 n=e6 v=60
343782 On ch=1 n=e6 v=0
343782 On ch=1 n=f6 v=55
343882 On ch=1 n=f6 v=0
344026 On ch=1 n=g5 v=39
344093 On ch=1 n=b5 v=57
344121 On ch=1 n=g5 v=0
344189 Par ch=1 c=64 v=0
344237 On ch=1 n=e6 v=61
344266 On ch=1 n=e3 v=45
344329 On ch=1 n=b5 v=0
344446 On ch=1 n=a6 v=79
344489 On ch=1 n=e6 v=0
344529 Par ch=1 c=64 v=127
344561 Par ch=1 c=67 v=0
344673 On ch=1 n=e3 v=0
344836 Par ch=1 c=67 v=127
344973 On ch=1 n=g4 v=33
345066 On ch=1 n=g6 v=55
345226 On ch=1 n=b4 v=43
345266 On ch=1 n=g4 v=0
345346 On ch=1 n=a6 v=0
345353 On ch=1 n=d#5 v=46
345369 On ch=1 n=b4 v=0
345482 On ch=1 n=d#5 v=0
345490 On ch=1 n=f#5 v=46
345634 On ch=1 n=e5 v=47
345649 On ch=1 n=f#5 v=0
345797 On ch=1 n=b4 v=45
345930 On ch=1 n=e5 v=0
345960 On ch=1 n=b5 v=59
345989 On ch=1 n=b4 v=0
346142 On ch=1 n=b5 v=0
346330 On ch=1 n=f5 v=38
346477 On ch=1 n=a#5 v=40
346637 Par ch=1 c=64 v=0
346646 On ch=1 n=a#3 v=30
346722 On ch=1 n=d6 v=55
346933 Par ch=1 c=64 v=127
346966 On ch=1 n=a#3 v=0
347102 On ch=1 n=g6 v=0
347282 On ch=1 n=f4 v=35
347373 On ch=1 n=f5 v=0
347449 On ch=1 n=a#4 v=36
347477 On ch=1 n=f4 v=0
347573 On ch=1 n=d5 v=42
347593 On ch=1 n=a#4 v=0
347701 On ch=1 n=d5 v=0
347777 On ch=1 n=g5 v=38
347929 On ch=1 n=g5 v=0
347929 On ch=1 n=a#5 v=0
347957 On ch=1 n=f5 v=37
348065 On ch=1 n=d6 v=0
348149 On ch=1 n=a#4 v=31
348234 On ch=1 n=e6 v=59
348377 On ch=1 n=d6 v=51
348445 On ch=1 n=e6 v=0
348466 On ch=1 n=c#6 v=60
348489 On ch=1 n=d6 v=0
348593 On ch=1 n=d6 v=65
348600 On ch=1 n=c#6 v=0
348633 On ch=1 n=f5 v=0
348741 On ch=1 n=e6 v=70
348753 On ch=1 n=d6 v=0
348760 Par ch=1 c=67 v=0
348973 On ch=1 n=a#4 v=0
349053 On ch=1 n=f6 v=73
349241 On ch=1 n=e6 v=0
349433 Par ch=1 c=64 v=0
349443 On ch=1 n=a3 v=39
349499 On ch=1 n=f#6 v=70
349638 Par ch=1 c=64 v=127
349658 On ch=1 n=f6 v=0
349694 On ch=1 n=a3 v=0
349919 On ch=1 n=a4 v=49
350034 On ch=1 n=f#6 v=0
350186 On ch=1 n=f#6 v=68
350194 On ch=1 n=c#6 v=71
350219 On ch=1 n=f#5 v=55
350430 On ch=1 n=f#6 v=0
350440 On ch=1 n=c#5 v=57
350468 On ch=1 n=f#5 v=0
350487 On ch=1 n=c#5 v=0
350576 On ch=1 n=a4 v=0
350667 On ch=1 n=b3 v=58
350671 Par ch=1 c=64 v=0
350683 On ch=1 n=f#6 v=70
350683 On ch=1 n=e6 v=70
350783 On ch=1 n=b3 v=0
350793 Par ch=1 c=64 v=127
350808 On ch=1 n=c#6 v=0
350932 On ch=1 n=f#4 v=66
351021 On ch=1 n=f#6 v=0
351164 On ch=1 n=d6 v=80
351168 On ch=1 n=f#6 v=76
351173 On ch=1 n=f#5 v=64
351308 On ch=1 n=e6 v=0
351368 On ch=1 n=f#5 v=0
351368 On ch=1 n=b4 v=59
351404 On ch=1 n=f#6 v=0
351428 On ch=1 n=b4 v=0
351472 On ch=1 n=f#4 v=0
351584 On ch=1 n=c#4 v=71
351600 On ch=1 n=f#6 v=84
351604 On ch=1 n=a5 v=76
351613 Par ch=1 c=64 v=0
351724 On ch=1 n=d6 v=0
351744 On ch=1 n=c#4 v=0
351760 Par ch=1 c=64 v=127
351864 On ch=1 n=f#5 v=69
352077 On ch=1 n=e6 v=80
352092 On ch=1 n=a4 v=61
352144 On ch=1 n=f#5 v=0
352287 On ch=1 n=d6 v=82
352297 On ch=1 n=c#5 v=57
352314 On ch=1 n=a4 v=0
352345 On ch=1 n=c#5 v=0
352345 On ch=1 n=e6 v=0
352398 On ch=1 n=a5 v=0
352445 On ch=1 n=f#6 v=0
352470 On ch=1 n=d4 v=55
352508 Par ch=1 c=64 v=0
352508 On ch=1 n=a6 v=80
352517 On ch=1 n=a#5 v=82
352561 On ch=1 n=d6 v=0
352582 On ch=1 n=d4 v=0
352645 Par ch=1 c=64 v=127
352765 On ch=1 n=f#5 v=55
352854 On ch=1 n=a#5 v=0
353001 On ch=1 n=g#6 v=84
353010 On ch=1 n=b5 v=75
353018 On ch=1 n=f#5 v=0
353030 On ch=1 n=b4 v=52
353250 On ch=1 n=b5 v=0
353269 On ch=1 n=f#6 v=84
353288 On ch=1 n=d5 v=48
353334 On ch=1 n=d5 v=0
353345 On ch=1 n=b4 v=0
353378 On ch=1 n=a6 v=0
353409 On ch=1 n=c6 v=81
353449 On ch=1 n=f#6 v=0
353548 On ch=1 n=f#6 v=84
353588 On ch=1 n=d#4 v=57
353670 On ch=1 n=g#6 v=0
353790 On ch=1 n=b6 v=92
353810 Par ch=1 c=64 v=0
354121 Par ch=1 c=64 v=127
354182 On ch=1 n=g#4 v=57
354298 On ch=1 n=d#4 v=0
354404 On ch=1 n=c6 v=0
354449 On ch=1 n=f#5 v=65
354485 On ch=1 n=f#6 v=0
354637 On ch=1 n=a6 v=68
354698 On ch=1 n=f#5 v=0
354790 On ch=1 n=f#6 v=73
354801 On ch=1 n=c5 v=49
354898 On ch=1 n=a6 v=0
354898 On ch=1 n=b6 v=0
354918 On ch=1 n=d#6 v=71
354988 On ch=1 n=f#6 v=0
355002 On ch=1 n=c6 v=73
355021 On ch=1 n=d#6 v=0
355061 On ch=1 n=c6 v=0
355109 On ch=1 n=a5 v=75
355201 On ch=1 n=a5 v=0
355205 On ch=1 n=g5 v=77
355310 On ch=1 n=g#5 v=77
355313 On ch=1 n=g5 v=0
355342 On ch=1 n=g#5 v=0
355402 On ch=1 n=c6 v=71
355565 On ch=1 n=d#6 v=74
355575 On ch=1 n=c6 v=0
355642 On ch=1 n=f#6 v=74
355662 On ch=1 n=d#6 v=0
355746 On ch=1 n=b6 v=85
355754 On ch=1 n=f#6 v=0
355878 On ch=1 n=a6 v=85
355982 On ch=1 n=g#6 v=88
356034 On ch=1 n=a6 v=0
356044 On ch=1 n=c5 v=0
356047 On ch=1 n=b6 v=0
356099 On ch=1 n=e4 v=71
356115 On ch=1 n=g#6 v=0
356175 Par ch=1 c=64 v=0
356195 On ch=1 n=g#6 v=89
356244 On ch=1 n=g#4 v=0
356379 On ch=1 n=g#6 v=0
356388 Par ch=1 c=64 v=127
356399 On ch=1 n=a6 v=82
356452 On ch=1 n=g#4 v=53
356511 On ch=1 n=e4 v=0
356511 On ch=1 n=g#6 v=85
356547 On ch=1 n=a6 v=0
356612 On ch=1 n=g6 v=88
356635 On ch=1 n=g#6 v=0
356712 On ch=1 n=g#6 v=89
356792 On ch=1 n=g6 v=0
356803 On ch=1 n=g#5 v=72
356862 On ch=1 n=c#7 v=90
356864 Par ch=1 c=64 v=0
356962 Par ch=1 c=64 v=127
357095 On ch=1 n=c#7 v=0
357115 On ch=1 n=c#5 v=70
357139 On ch=1 n=g#5 v=0
357195 On ch=1 n=g#6 v=0
357302 On ch=1 n=g#4 v=0
357343 Par ch=1 c=64 v=0
357359 On ch=1 n=b6 v=85
357368 On ch=1 n=f#4 v=59
357404 On ch=1 n=c#5 v=0
357459 Par ch=1 c=64 v=127
357679 On ch=1 n=a6 v=88
357688 On ch=1 n=c#5 v=51
357763 On ch=1 n=f#4 v=0
357955 On ch=1 n=a5 v=47
357959 On ch=1 n=g#6 v=82
357975 On ch=1 n=b6 v=0
358227 On ch=1 n=f#6 v=80
358242 On ch=1 n=d#5 v=50
358299 On ch=1 n=a5 v=0
358351 On ch=1 n=d#5 v=0
358404 On ch=1 n=a6 v=0
358464 On ch=1 n=f#6 v=0
358511 On ch=1 n=c#5 v=0
358551 Par ch=1 c=64 v=0
358551 On ch=1 n=f#6 v=76
358559 On ch=1 n=g#4 v=48
358678 On ch=1 n=g#6 v=0
358792 Par ch=1 c=64 v=127
358887 On ch=1 n=c#5 v=51
358963 On ch=1 n=g#4 v=0
359155 On ch=1 n=e6 v=70
359175 On ch=1 n=g#5 v=44
359278 On ch=1 n=f#6 v=0
359399 On ch=1 n=e5 v=45
359502 On ch=1 n=g#5 v=0
359508 On ch=1 n=c#5 v=0
359523 On ch=1 n=e5 v=0
359675 On ch=1 n=a5 v=49
359798 On ch=1 n=a5 v=0
359935 On ch=1 n=g#5 v=51
359995 On ch=1 n=g#5 v=0
360242 On ch=1 n=e7 v=82
360271 On ch=1 n=e5 v=40
360348 On ch=1 n=e5 v=0
360644 On ch=1 n=c#6 v=49
360704 On ch=1 n=c#6 v=0
360959 On ch=1 n=g#4 v=58
361075 On ch=1 n=g#4 v=0
361332 On ch=1 n=e7 v=0
361363 On ch=1 n=c6 v=44
361375 On ch=1 n=e7 v=86
361375 On ch=1 n=d#5 v=59
361482 On ch=1 n=c6 v=0
361564 On ch=1 n=d#5 v=0
361579 On ch=1 n=e6 v=0
361664 On ch=1 n=g#4 v=61
361703 Par ch=1 c=64 v=0
361791 Par ch=1 c=64 v=127
361823 On ch=1 n=g#4 v=0
361947 On ch=1 n=e7 v=0
362003 On ch=1 n=e6 v=79
362008 On ch=1 n=e7 v=77
362019 On ch=1 n=d5 v=60
362019 On ch=1 n=b5 v=51
362102 On ch=1 n=b5 v=0
362311 On ch=1 n=d5 v=0
362339 Par ch=1 c=64 v=0
362368 On ch=1 n=g4 v=52
362495 Par ch=1 c=64 v=127
362571 On ch=1 n=g4 v=0
362683 On ch=1 n=e7 v=0
362715 On ch=1 n=e6 v=0
362844 On ch=1 n=e7 v=63
362848 On ch=1 n=e6 v=54
362879 On ch=1 n=d5 v=37
362879 On ch=1 n=a#5 v=43
363048 On ch=1 n=a#5 v=0
363048 On ch=1 n=d5 v=0
363328 On ch=1 n=a4 v=40
363404 Par ch=1 c=67 v=127
363448 Par ch=1 c=64 v=0
363755 Par ch=1 c=64 v=127
363882 On ch=1 n=e7 v=0
363928 On ch=1 n=e6 v=0
364171 On ch=1 n=f7 v=55
364171 On ch=1 n=f6 v=37
364227 On ch=1 n=g5 v=33
364259 On ch=1 n=c#5 v=25
364415 On ch=1 n=g5 v=0
364528 On ch=1 n=f7 v=0
364539 On ch=1 n=f6 v=0
364599 On ch=1 n=c#5 v=0
364804 On ch=1 n=a4 v=0
365088 On ch=1 n=d4 v=36
365183 Par ch=1 c=64 v=0
365244 On ch=1 n=f#7 v=61
365379 On ch=1 n=d4 v=0
365411 Par ch=1 c=64 v=127
365544 On ch=1 n=a6 v=51
365699 On ch=1 n=d7 v=47
365744 On ch=1 n=f#7 v=0
365759 On ch=1 n=a6 v=0
365782 On ch=1 n=d7 v=0
365819 On ch=1 n=f#6 v=44
365864 On ch=1 n=f#6 v=0
365864 On ch=1 n=f#5 v=72
365928 On ch=1 n=d5 v=37
366111 On ch=1 n=f#5 v=0
366121 On ch=1 n=a5 v=51
366132 On ch=1 n=d5 v=0
366236 On ch=1 n=a5 v=0
366276 On ch=1 n=d6 v=57
366368 On ch=1 n=c#4 v=42
366461 Par ch=1 c=64 v=0
366519 On ch=1 n=f#5 v=73
366552 On ch=1 n=c#4 v=0
366580 Par ch=1 c=64 v=127
366639 On ch=1 n=d6 v=0
366645 On ch=1 n=f#5 v=0
366692 On ch=1 n=a#5 v=69
366816 On ch=1 n=a#5 v=0
366819 On ch=1 n=d6 v=61
366848 On ch=1 n=d6 v=0
366972 On ch=1 n=f#6 v=65
366988 On ch=1 n=f#5 v=65
366996 On ch=1 n=d5 v=45
367019 On ch=1 n=a#4 v=45
367080 On ch=1 n=a#4 v=0
367080 On ch=1 n=d5 v=0
367090 On ch=1 n=f#5 v=0
367117 On ch=1 n=a#6 v=71
367246 On ch=1 n=d7 v=69
367253 On ch=1 n=a#6 v=0
367377 Par ch=1 c=64 v=0
367382 On ch=1 n=b3 v=46
367397 On ch=1 n=f#6 v=0
367413 On ch=1 n=d7 v=0
367437 On ch=1 n=f#7 v=67
367497 On ch=1 n=b3 v=0
367549 Par ch=1 c=64 v=127
367613 On ch=1 n=b6 v=59
367769 On ch=1 n=d7 v=55
367825 On ch=1 n=b6 v=0
367825 On ch=1 n=f#7 v=0
367853 On ch=1 n=d7 v=0
367885 On ch=1 n=f#6 v=53
367917 On ch=1 n=f#6 v=0
367933 On ch=1 n=e5 v=62
367969 On ch=1 n=f#4 v=42
367985 On ch=1 n=b4 v=39
368045 On ch=1 n=b4 v=0
368085 On ch=1 n=f#4 v=0
368142 On ch=1 n=b5 v=52
368246 On ch=1 n=e5 v=0
368258 On ch=1 n=d5 v=55
368333 On ch=1 n=d5 v=0
368333 On ch=1 n=b5 v=0
368333 On ch=1 n=d6 v=59
368418 On ch=1 n=d6 v=0
368612 On ch=1 n=a3 v=47
368693 Par ch=1 c=64 v=0
368722 On ch=1 n=g5 v=63
368796 On ch=1 n=a3 v=0
368861 Par ch=1 c=64 v=127
368945 On ch=1 n=g5 v=0
368990 On ch=1 n=c6 v=55
369106 On ch=1 n=c6 v=0
369129 On ch=1 n=d#6 v=58
369157 On ch=1 n=d#6 v=0
369217 On ch=1 n=c5 v=34
369233 On ch=1 n=a4 v=41
369269 On ch=1 n=d#5 v=32
369298 On ch=1 n=g6 v=58
369349 On ch=1 n=a4 v=0
369438 On ch=1 n=c7 v=58
369469 On ch=1 n=c5 v=0
369545 On ch=1 n=d#5 v=0
369555 On ch=1 n=f#5 v=62
369623 On ch=1 n=d#7 v=67
369634 On ch=1 n=c7 v=0
369814 On ch=1 n=g4 v=45
369822 On ch=1 n=d#7 v=0
369833 On ch=1 n=b4 v=50
369866 On ch=1 n=f#5 v=0
369895 On ch=1 n=d#5 v=54
369898 On ch=1 n=g6 v=0
369995 On ch=1 n=f#7 v=67
370173 On ch=1 n=f#5 v=76
370219 Par ch=1 c=64 v=0
370415 On ch=1 n=b6 v=50
370490 Par ch=1 c=64 v=127
370566 On ch=1 n=d#7 v=56
370626 On ch=1 n=f#7 v=0
370642 On ch=1 n=b6 v=0
370686 On ch=1 n=d#7 v=0
370733 On ch=1 n=f#6 v=39
370763 On ch=1 n=f#6 v=0
370774 On ch=1 n=f#5 v=0
370910 On ch=1 n=a#5 v=51
370990 On ch=1 n=a#5 v=0
371058 On ch=1 n=b5 v=52
371150 On ch=1 n=b5 v=0
371199 On ch=1 n=c6 v=49
371210 On ch=1 n=e5 v=55
371299 On ch=1 n=d#5 v=0
371335 On ch=1 n=c6 v=0
371370 On ch=1 n=c#6 v=57
371446 On ch=1 n=c#6 v=0
371494 On ch=1 n=d6 v=57
371582 On ch=1 n=d6 v=0
371623 On ch=1 n=d#6 v=59
371675 On ch=1 n=d#6 v=0
371733 On ch=1 n=e6 v=60
371810 On ch=1 n=e6 v=0
371839 On ch=1 n=f6 v=65
371930 Par ch=1 c=64 v=0
371939 On ch=1 n=f6 v=0
371950 On ch=1 n=f#6 v=61
372010 On ch=1 n=f#6 v=0
372067 On ch=1 n=g6 v=60
372115 Par ch=1 c=67 v=0
372130 On ch=1 n=g6 v=0
372175 On ch=1 n=g#6 v=55
372234 On ch=1 n=g#6 v=0
372282 On ch=1 n=a6 v=63
372339 On ch=1 n=a6 v=0
372386 On ch=1 n=a#6 v=59
372395 On ch=1 n=a#6 v=0
372435 On ch=1 n=b6 v=59
372555 On ch=1 n=b6 v=0
372555 On ch=1 n=e5 v=0
372595 On ch=1 n=c7 v=67
372630 On ch=1 n=g4 v=0
372695 On ch=1 n=c7 v=0
372695 On ch=1 n=b4 v=0
372695 On ch=1 n=c#7 v=66
372719 On ch=1 n=c#7 v=0
372775 On ch=1 n=d7 v=65
372835 On ch=1 n=d7 v=0
372895 On ch=1 n=d#7 v=65
372983 On ch=1 n=d#7 v=0
373015 On ch=1 n=e7 v=63
373095 On ch=1 n=e7 v=0
373135 On ch=1 n=f#7 v=64
373135 Par ch=1 c=64 v=127
373299 On ch=1 n=e4 v=41
373355 On ch=1 n=f#7 v=0
373395 On ch=1 n=g7 v=58
373455 On ch=1 n=e4 v=0
373675 On ch=1 n=b6 v=54
373775 On ch=1 n=e7 v=57
373815 On ch=1 n=b6 v=0
373855 On ch=1 n=e7 v=0
373855 On ch=1 n=g7 v=0
373895 On ch=1 n=g5 v=64
373895 On ch=1 n=g6 v=23
373943 On ch=1 n=e5 v=40
373975 On ch=1 n=b4 v=30
374015 On ch=1 n=b4 v=0
374015 On ch=1 n=g6 v=0
374047 On ch=1 n=e5 v=0
374095 On ch=1 n=g5 v=0
374155 On ch=1 n=b5 v=48
374246 On ch=1 n=b5 v=0
374278 On ch=1 n=e6 v=59
374330 On ch=1 n=d4 v=50
374430 On ch=1 n=d4 v=0
374475 On ch=1 n=g5 v=81
374633 On ch=1 n=g5 v=0
374633 On ch=1 n=e6 v=0
374633 On ch=1 n=b5 v=72
374734 On ch=1 n=b5 v=0
374749 On ch=1 n=e6 v=67
374810 On ch=1 n=e6 v=0
374875 On ch=1 n=g5 v=64
374882 On ch=1 n=e5 v=47
374889 On ch=1 n=g6 v=73
374903 On ch=1 n=b4 v=42
374950 On ch=1 n=b4 v=0
374975 On ch=1 n=e5 v=0
374990 On ch=1 n=g5 v=0
375007 On ch=1 n=b6 v=77
375126 On ch=1 n=e7 v=65
375134 On ch=1 n=b6 v=0
375230 On ch=1 n=c#4 v=56
375230 Par ch=1 c=64 v=0
375275 On ch=1 n=e7 v=0
375275 On ch=1 n=g7 v=76
375354 On ch=1 n=c#4 v=0
375386 Par ch=1 c=64 v=127
375415 On ch=1 n=b6 v=78
375542 On ch=1 n=g6 v=0
375546 On ch=1 n=e7 v=72
375603 On ch=1 n=b6 v=0
375603 On ch=1 n=g7 v=0
375622 On ch=1 n=e7 v=0
375679 On ch=1 n=f#5 v=76
375679 On ch=1 n=g6 v=32
375686 On ch=1 n=b4 v=65
375726 On ch=1 n=g6 v=0
375842 On ch=1 n=b5 v=73
375846 On ch=1 n=f#5 v=0
375935 On ch=1 n=e5 v=76
375995 On ch=1 n=e5 v=0
376014 On ch=1 n=b5 v=0
376014 On ch=1 n=b4 v=0
376034 On ch=1 n=e6 v=79
376203 On ch=1 n=g#4 v=69
376215 On ch=1 n=b4 v=61
376315 Par ch=1 c=64 v=0
376330 On ch=1 n=c#6 v=85
376346 On ch=1 n=e6 v=0
376350 On ch=1 n=f5 v=66
376455 On ch=1 n=f5 v=0
376489 Par ch=1 c=64 v=127
376506 On ch=1 n=g#4 v=0
376546 On ch=1 n=f6 v=67
376550 On ch=1 n=c#6 v=0
376583 On ch=1 n=f6 v=0
376675 On ch=1 n=g#6 v=74
376774 On ch=1 n=g#6 v=0
376790 On ch=1 n=c#4 v=48
376807 On ch=1 n=c#7 v=71
376819 On ch=1 n=b4 v=0
376953 On ch=1 n=f7 v=73
376999 On ch=1 n=c#7 v=0
377067 On ch=1 n=g#7 v=78
377134 On ch=1 n=f7 v=0
377155 Par ch=1 c=64 v=0
377163 On ch=1 n=f#3 v=52
377174 On ch=1 n=c#4 v=0
377243 On ch=1 n=g#7 v=0
377255 On ch=1 n=b7 v=80
377339 Par ch=1 c=64 v=127
377366 On ch=1 n=f#3 v=0
377510 On ch=1 n=c#7 v=75
377653 On ch=1 n=f#7 v=70
377767 On ch=1 n=c#5 v=54
377795 On ch=1 n=b7 v=0
377806 On ch=1 n=c#7 v=0
377823 On ch=1 n=f#7 v=0
377830 On ch=1 n=b6 v=64
377910 On ch=1 n=b6 v=0
377943 On ch=1 n=f#5 v=69
378130 On ch=1 n=b5 v=81
378413 On ch=1 n=c6 v=47
378514 On ch=1 n=c6 v=0
378534 On ch=1 n=c#6 v=61
378606 On ch=1 n=c#6 v=0
378650 On ch=1 n=d6 v=60
378735 On ch=1 n=d6 v=0
378786 On ch=1 n=d#6 v=61
378830 On ch=1 n=d#6 v=0
378858 Par ch=1 c=67 v=127
378873 On ch=1 n=e6 v=63
378950 On ch=1 n=b5 v=0
378953 On ch=1 n=e6 v=0
378993 On ch=1 n=a5 v=50
379003 On ch=1 n=f6 v=64
379126 On ch=1 n=f6 v=0
379130 On ch=1 n=f#6 v=62
379213 On ch=1 n=f#6 v=0
379250 On ch=1 n=g6 v=66
379322 On ch=1 n=g6 v=0
379353 On ch=1 n=g#6 v=61
379414 On ch=1 n=g#6 v=0
379450 On ch=1 n=a6 v=66
379495 On ch=1 n=a6 v=0
379542 On ch=1 n=a#6 v=64
379590 On ch=1 n=a#6 v=0
379619 On ch=1 n=b6 v=70
379710 On ch=1 n=b6 v=0
379713 On ch=1 n=c7 v=75
379795 On ch=1 n=c#7 v=71
379802 On ch=1 n=c7 v=0
379862 On ch=1 n=c#7 v=0
379899 On ch=1 n=d7 v=73
379955 On ch=1 n=d7 v=0
379987 On ch=1 n=d#7 v=68
379999 On ch=1 n=a5 v=0
380014 On ch=1 n=c#5 v=0
380022 On ch=1 n=d#7 v=0
380026 On ch=1 n=f#5 v=0
380070 On ch=1 n=e7 v=67
380162 On ch=1 n=e7 v=0
380162 On ch=1 n=f7 v=71
380210 On ch=1 n=f#7 v=67
380234 On ch=1 n=f7 v=0
380246 On ch=1 n=f#7 v=0
380275 On ch=1 n=g#7 v=70
380350 On ch=1 n=f#7 v=68
380350 Par ch=1 c=64 v=0
380398 On ch=1 n=g#7 v=0
380439 On ch=1 n=f7 v=64
380462 On ch=1 n=f#7 v=0
380513 On ch=1 n=f#7 v=59
380527 On ch=1 n=f7 v=0
380706 On ch=1 n=e5 v=43
380810 On ch=1 n=f#7 v=0
380822 Par ch=1 c=64 v=127
380839 On ch=1 n=a7 v=59
380886 On ch=1 n=e5 v=0
380930 On ch=1 n=a7 v=0
381066 On ch=1 n=b6 v=47
381110 On ch=1 n=b6 v=0
381146 On ch=1 n=e7 v=56
381199 On ch=1 n=e7 v=0
381246 On ch=1 n=g6 v=61
381346 On ch=1 n=g7 v=62
381379 On ch=1 n=g7 v=0
381406 On ch=1 n=g6 v=0
381426 On ch=1 n=b6 v=65
381470 On ch=1 n=b6 v=0
381514 On ch=1 n=f#7 v=61
381533 On ch=1 n=a#5 v=65
381559 On ch=1 n=f#7 v=0
381618 On ch=1 n=g6 v=66
381666 On ch=1 n=g6 v=0
381690 On ch=1 n=b6 v=66
381734 On ch=1 n=b5 v=60
381753 On ch=1 n=a#5 v=0
381770 On ch=1 n=b5 v=0
381794 On ch=1 n=e6 v=59
381827 On ch=1 n=b6 v=0
381830 On ch=1 n=e6 v=0
381870 Par ch=1 c=64 v=0
381882 On ch=1 n=e7 v=67
381910 On ch=1 n=a#4 v=69
381946 On ch=1 n=e7 v=0
381966 On ch=1 n=g6 v=58
382002 Par ch=1 c=64 v=127
382027 On ch=1 n=g6 v=0
382054 On ch=1 n=a#4 v=0
382066 On ch=1 n=d6 v=71
382095 On ch=1 n=d7 v=68
382155 On ch=1 n=d6 v=0
382195 On ch=1 n=d7 v=0
382206 On ch=1 n=f6 v=57
382295 On ch=1 n=a#6 v=64
382299 On ch=1 n=f6 v=0
382375 On ch=1 n=c6 v=58
382390 On ch=1 n=a#6 v=0
382394 On ch=1 n=d6 v=55
382450 On ch=1 n=d6 v=0
382466 On ch=1 n=c6 v=0
382466 On ch=1 n=a#5 v=65
382466 On ch=1 n=c7 v=68
382526 On ch=1 n=c7 v=0
382535 On ch=1 n=a#5 v=0
382539 On ch=1 n=f6 v=56
382539 On ch=1 n=f5 v=68
382570 On ch=1 n=f6 v=0
382626 On ch=1 n=d5 v=69
382636 On ch=1 n=f5 v=0
382636 On ch=1 n=a#6 v=64
382699 On ch=1 n=d6 v=59
382716 On ch=1 n=a#6 v=0
382743 On ch=1 n=d5 v=0
382772 On ch=1 n=f6 v=55
382803 On ch=1 n=d6 v=0
382867 On ch=1 n=a#5 v=64
382890 On ch=1 n=a#5 v=0
382900 Par ch=1 c=64 v=0
382923 On ch=1 n=f6 v=0
382940 On ch=1 n=a6 v=57
383016 On ch=1 n=d6 v=67
383043 On ch=1 n=a6 v=0
383076 On ch=1 n=d6 v=0
383091 On ch=1 n=e4 v=56
383103 On ch=1 n=a6 v=65
383107 Par ch=1 c=64 v=127
383196 On ch=1 n=a6 v=0
383227 On ch=1 n=b5 v=69
383243 On ch=1 n=e4 v=0
383287 On ch=1 n=b5 v=0
383299 On ch=1 n=e6 v=66
383380 On ch=1 n=e6 v=0
383387 On ch=1 n=g5 v=74
383463 On ch=1 n=g6 v=68
383532 On ch=1 n=g6 v=0
383556 On ch=1 n=b5 v=62
383563 On ch=1 n=g5 v=0
383603 On ch=1 n=b5 v=0
383643 On ch=1 n=a#4 v=80
383653 On ch=1 n=f#6 v=69
383704 On ch=1 n=f#6 v=0
383740 On ch=1 n=g5 v=66
383804 On ch=1 n=g5 v=0
383814 On ch=1 n=b5 v=66
383826 On ch=1 n=a#4 v=0
383841 On ch=1 n=b4 v=49
383878 On ch=1 n=b4 v=0
383920 On ch=1 n=e5 v=50
383930 On ch=1 n=b5 v=0
383961 On ch=1 n=e5 v=0
383970 Par ch=1 c=64 v=0
383994 On ch=1 n=e6 v=68
384009 On ch=1 n=a#3 v=47
384073 On ch=1 n=e6 v=0
384084 Par ch=1 c=64 v=127
384094 On ch=1 n=g5 v=63
384158 On ch=1 n=g5 v=0
384170 On ch=1 n=a#3 v=0
384214 On ch=1 n=d6 v=60
384235 On ch=1 n=d5 v=55
384314 On ch=1 n=d6 v=0
384318 On ch=1 n=d5 v=0
384322 On ch=1 n=f5 v=59
384374 On ch=1 n=f5 v=0
384423 On ch=1 n=a#5 v=47
384463 On ch=1 n=a#5 v=0
384495 On ch=1 n=d5 v=56
384527 On ch=1 n=f4 v=59
384538 On ch=1 n=d5 v=0
384554 On ch=1 n=a#4 v=55
384558 On ch=1 n=f5 v=57
384601 On ch=1 n=f4 v=0
384611 On ch=1 n=a#4 v=0
384611 On ch=1 n=d5 v=43
384620 On ch=1 n=f5 v=0
384620 On ch=1 n=a#5 v=78
384628 On ch=1 n=d5 v=0
384659 On ch=1 n=a#5 v=0
384700 On ch=1 n=f5 v=26
384727 On ch=1 n=d6 v=67
384771 On ch=1 n=f5 v=0
384795 On ch=1 n=a#5 v=66
384800 On ch=1 n=d6 v=0
384800 On ch=1 n=f6 v=69
384855 On ch=1 n=d6 v=48
384864 On ch=1 n=a#5 v=0
384864 On ch=1 n=a#6 v=67
384879 On ch=1 n=f6 v=0
384898 On ch=1 n=d6 v=0
384908 On ch=1 n=a#6 v=0
384920 On ch=1 n=f6 v=50
384967 On ch=1 n=d7 v=78
385000 On ch=1 n=f6 v=0
385040 On ch=1 n=d7 v=0
385040 On ch=1 n=f7 v=62
385055 Par ch=1 c=64 v=0
385088 On ch=1 n=a#7 v=70
385131 On ch=1 n=f7 v=0
385179 On ch=1 n=f#5 v=62
385188 On ch=1 n=a#7 v=0
385188 On ch=1 n=b7 v=74
385220 Par ch=1 c=64 v=127
385271 On ch=1 n=b7 v=0
385280 On ch=1 n=f#5 v=0
385284 On ch=1 n=c#7 v=75
385358 On ch=1 n=f#7 v=65
385363 On ch=1 n=c#7 v=0
385403 On ch=1 n=f#7 v=0
385418 On ch=1 n=a6 v=82
385491 On ch=1 n=a7 v=74
385560 On ch=1 n=a7 v=0
385564 On ch=1 n=c#7 v=77
385627 On ch=1 n=c#7 v=0
385637 On ch=1 n=a6 v=0
385685 On ch=1 n=g#7 v=68
385697 On ch=1 n=c6 v=79
385748 On ch=1 n=g#7 v=0
385758 On ch=1 n=a6 v=71
385813 On ch=1 n=c#7 v=67
385841 On ch=1 n=a6 v=0
385906 On ch=1 n=c6 v=0
385914 On ch=1 n=f#6 v=67
385933 On ch=1 n=c#6 v=64
385941 On ch=1 n=f#6 v=0
385974 On ch=1 n=c#6 v=0
385978 On ch=1 n=f#7 v=66
385985 On ch=1 n=c#7 v=0
386005 Par ch=1 c=64 v=0
386049 On ch=1 n=a6 v=57
386059 On ch=1 n=f#7 v=0
386059 On ch=1 n=c5 v=59
386091 Par ch=1 c=64 v=127
386106 On ch=1 n=c5 v=0
386115 On ch=1 n=a6 v=0
386183 On ch=1 n=e7 v=53
386198 On ch=1 n=e6 v=66
386246 On ch=1 n=e7 v=0
386246 On ch=1 n=g6 v=66
386271 On ch=1 n=e6 v=0
386302 On ch=1 n=g6 v=0
386335 On ch=1 n=c7 v=60
386395 On ch=1 n=c7 v=0
386426 On ch=1 n=e6 v=58
386449 On ch=1 n=d6 v=65
386459 On ch=1 n=e6 v=0
386489 On ch=1 n=d7 v=72
386511 On ch=1 n=d6 v=0
386525 On ch=1 n=c6 v=71
386569 On ch=1 n=g6 v=64
386579 On ch=1 n=d7 v=0
386599 On ch=1 n=g5 v=64
386619 On ch=1 n=g6 v=0
386663 On ch=1 n=c6 v=0
386668 On ch=1 n=e5 v=73
386703 On ch=1 n=g5 v=0
386752 On ch=1 n=e5 v=0
386775 On ch=1 n=e6 v=77
386843 On ch=1 n=e6 v=0
386867 On ch=1 n=g6 v=58
386908 Par ch=1 c=64 v=0
386936 On ch=1 n=c6 v=66
386979 On ch=1 n=c6 v=0
387023 On ch=1 n=g6 v=0
387056 On ch=1 n=e6 v=73
387067 Par ch=1 c=64 v=127
387099 On ch=1 n=e6 v=0
387123 On ch=1 n=b6 v=71
387147 On ch=1 n=f#4 v=68
387232 On ch=1 n=b6 v=0
387247 On ch=1 n=c#6 v=75
387268 On ch=1 n=f#4 v=0
387312 On ch=1 n=f#6 v=67
387327 On ch=1 n=c#6 v=0
387363 On ch=1 n=f#6 v=0
387403 On ch=1 n=a5 v=76
387475 On ch=1 n=a6 v=74
387536 On ch=1 n=a6 v=0
387548 On ch=1 n=c#6 v=76
387612 On ch=1 n=c#6 v=0
387627 On ch=1 n=a5 v=0
387686 On ch=1 n=g#6 v=65
387686 On ch=1 n=c5 v=69
387763 On ch=1 n=g#6 v=0
387775 On ch=1 n=a5 v=68
387819 On ch=1 n=c#6 v=64
387856 On ch=1 n=a5 v=0
387902 On ch=1 n=c5 v=0
387932 On ch=1 n=f#5 v=59
387940 On ch=1 n=c#5 v=50
387963 Par ch=1 c=64 v=0
387975 On ch=1 n=f#5 v=0
387979 On ch=1 n=c#5 v=0
387988 On ch=1 n=c#6 v=0
388002 On ch=1 n=f#6 v=65
388068 On ch=1 n=c4 v=51
388080 On ch=1 n=f#6 v=0
388080 Par ch=1 c=64 v=127
388095 On ch=1 n=a5 v=63
388126 On ch=1 n=c4 v=0
388143 On ch=1 n=a5 v=0
388208 On ch=1 n=e6 v=69
388255 On ch=1 n=e5 v=45
388312 On ch=1 n=g5 v=65
388356 On ch=1 n=e5 v=0
388356 On ch=1 n=e6 v=0
388403 On ch=1 n=g5 v=0
388415 On ch=1 n=c6 v=55
388466 On ch=1 n=g4 v=51
388471 On ch=1 n=c6 v=0
388495 On ch=1 n=e5 v=63
388526 On ch=1 n=e5 v=0
388547 On ch=1 n=g5 v=65
388559 On ch=1 n=c5 v=62
388587 On ch=1 n=g4 v=0
388623 On ch=1 n=c6 v=65
388627 On ch=1 n=g5 v=0
388631 On ch=1 n=c5 v=0
388635 On ch=1 n=e5 v=59
388676 On ch=1 n=e5 v=0
388679 On ch=1 n=c6 v=0
388719 On ch=1 n=g5 v=51
388743 On ch=1 n=g5 v=0
388752 On ch=1 n=e6 v=68
388795 On ch=1 n=e6 v=0
388812 On ch=1 n=c6 v=71
388820 On ch=1 n=g6 v=78
388867 On ch=1 n=c6 v=0
388899 On ch=1 n=g6 v=0
388903 Par ch=1 c=64 v=0
388908 On ch=1 n=e6 v=57
388912 On ch=1 n=c7 v=61
388927 On ch=1 n=e6 v=0
388939 On ch=1 n=c7 v=0
388972 On ch=1 n=g6 v=55
389003 On ch=1 n=e7 v=78
389015 On ch=1 n=g6 v=0
389063 On ch=1 n=e7 v=0
389063 On ch=1 n=g7 v=71
389112 On ch=1 n=c8 v=73
389123 On ch=1 n=g7 v=0
389203 On ch=1 n=c8 v=0
389203 On ch=1 n=g#5 v=71
389206 On ch=1 n=c#8 v=79
389287 On ch=1 n=c#8 v=0
389303 On ch=1 n=d#7 v=80
389319 On ch=1 n=g#5 v=0
389387 On ch=1 n=g#7 v=68
389392 On ch=1 n=d#7 v=0
389407 Par ch=1 c=64 v=127
389436 On ch=1 n=g#7 v=0
389459 On ch=1 n=b6 v=86
389539 On ch=1 n=b7 v=75
389608 On ch=1 n=b7 v=0
389608 On ch=1 n=b6 v=0
389608 On ch=1 n=d#7 v=71
389628 On ch=1 n=d#7 v=0
389708 On ch=1 n=a#7 v=71
389708 On ch=1 n=d6 v=82
389768 On ch=1 n=a#7 v=0
389788 On ch=1 n=b6 v=67
389867 On ch=1 n=d#7 v=66
389907 On ch=1 n=b6 v=0
389967 On ch=1 n=g#6 v=68
390003 On ch=1 n=g#6 v=0
390013 On ch=1 n=d6 v=0
390040 On ch=1 n=g#7 v=65
390069 On ch=1 n=d#6 v=67
390073 On ch=1 n=b6 v=68
390076 On ch=1 n=g#7 v=0
390093 On ch=1 n=d#6 v=0
390100 On ch=1 n=d#7 v=0
390145 On ch=1 n=b6 v=0
390189 On ch=1 n=g7 v=79
390205 Par ch=1 c=64 v=0
390209 On ch=1 n=d#5 v=77
390283 On ch=1 n=a#6 v=77
390305 On ch=1 n=d#5 v=0
390309 On ch=1 n=g7 v=0
390344 On ch=1 n=d#7 v=66
390383 Par ch=1 c=64 v=127
390397 On ch=1 n=a#6 v=0
390400 On ch=1 n=d#7 v=0
390429 On ch=1 n=f#6 v=88
390503 On ch=1 n=f#7 v=78
390576 On ch=1 n=f#6 v=0
390579 On ch=1 n=f#7 v=0
390609 On ch=1 n=a#6 v=66
390629 On ch=1 n=a#6 v=0
390700 On ch=1 n=a5 v=88
390716 On ch=1 n=f7 v=59
390756 On ch=1 n=f7 v=0
390836 On ch=1 n=f#6 v=69
390893 On ch=1 n=a#6 v=69
390923 On ch=1 n=f#6 v=0
391005 On ch=1 n=d#6 v=71
391040 On ch=1 n=a5 v=0
391040 On ch=1 n=a#5 v=69
391056 On ch=1 n=d#6 v=0
391073 On ch=1 n=d#7 v=68
391085 On ch=1 n=a#5 v=0
391129 On ch=1 n=f#6 v=62
391144 On ch=1 n=d#7 v=0
391192 On ch=1 n=a#6 v=0
391196 On ch=1 n=f#6 v=0
391220 On ch=1 n=a#4 v=77
391236 On ch=1 n=d7 v=78
391243 Par ch=1 c=64 v=0
391308 On ch=1 n=a#4 v=0
391323 On ch=1 n=f6 v=68
391340 On ch=1 n=d7 v=0
391392 On ch=1 n=a#6 v=76
391413 On ch=1 n=f6 v=0
391424 Par ch=1 c=64 v=127
391456 On ch=1 n=a#6 v=0
391477 On ch=1 n=c#6 v=91
391549 On ch=1 n=c#7 v=77
391619 On ch=1 n=c#6 v=0
391629 On ch=1 n=c#7 v=0
391629 On ch=1 n=f6 v=72
391669 On ch=1 n=f6 v=0
391716 On ch=1 n=c7 v=78
391749 On ch=1 n=e5 v=81
391788 On ch=1 n=c7 v=0
391820 On ch=1 n=c#6 v=78
391892 On ch=1 n=f6 v=61
391909 On ch=1 n=c#6 v=0
391972 On ch=1 n=a#5 v=75
392024 On ch=1 n=a#5 v=0
392043 On ch=1 n=f5 v=66
392060 On ch=1 n=a#6 v=74
392064 On ch=1 n=e5 v=0
392085 On ch=1 n=f5 v=0
392128 On ch=1 n=c#6 v=78
392136 On ch=1 n=f6 v=0
392140 On ch=1 n=a#6 v=0
392196 On ch=1 n=c#6 v=0
392203 Par ch=1 c=64 v=0
392217 On ch=1 n=a6 v=78
392224 On ch=1 n=f4 v=69
392292 On ch=1 n=c6 v=55
392312 On ch=1 n=a6 v=0
392360 On ch=1 n=f6 v=73
392376 On ch=1 n=f4 v=0
392385 On ch=1 n=c6 v=0
392429 On ch=1 n=f6 v=0
392452 Par ch=1 c=64 v=127
392476 On ch=1 n=g#5 v=84
392560 On ch=1 n=g#6 v=77
392649 On ch=1 n=g#6 v=0
392649 On ch=1 n=g#5 v=0
392652 On ch=1 n=c6 v=62
392713 On ch=1 n=c6 v=0
392756 On ch=1 n=g6 v=66
392764 On ch=1 n=b4 v=80
392860 On ch=1 n=g6 v=0
392860 On ch=1 n=g#5 v=74
392952 On ch=1 n=c6 v=64
392962 On ch=1 n=g#5 v=0
393034 On ch=1 n=f5 v=75
393093 On ch=1 n=c5 v=63
393141 On ch=1 n=f6 v=81
393153 On ch=1 n=c5 v=0
393153 On ch=1 n=b4 v=0
393246 On ch=1 n=g#5 v=78
393257 On ch=1 n=f5 v=0
393289 On ch=1 n=f6 v=0
393299 On ch=1 n=c6 v=0
393317 On ch=1 n=g#4 v=84
393350 On ch=1 n=g#5 v=0
393390 Par ch=1 c=64 v=0
393418 On ch=1 n=f6 v=78
393418 On ch=1 n=f5 v=68
393554 Par ch=1 c=64 v=127
393582 On ch=1 n=d5 v=51
393614 On ch=1 n=b5 v=72
393631 On ch=1 n=f6 v=0
393639 On ch=1 n=f5 v=0
393654 On ch=1 n=b4 v=61
393664 On ch=1 n=d5 v=0
393683 On ch=1 n=d6 v=65
393700 On ch=1 n=g4 v=68
393730 On ch=1 n=b5 v=0
393747 On ch=1 n=f6 v=83
393763 On ch=1 n=f5 v=82
393791 On ch=1 n=d6 v=0
393887 On ch=1 n=b5 v=71
393903 On ch=1 n=d5 v=54
393911 On ch=1 n=d6 v=70
393934 On ch=1 n=f5 v=0
393934 On ch=1 n=f6 v=0
393988 On ch=1 n=b5 v=0
394000 On ch=1 n=b4 v=0
394000 On ch=1 n=f4 v=74
394003 On ch=1 n=d5 v=0
394015 On ch=1 n=f5 v=78
394015 On ch=1 n=f6 v=81
394019 On ch=1 n=d6 v=0
394027 On ch=1 n=g4 v=0
394044 On ch=1 n=g#4 v=0
394090 On ch=1 n=f4 v=0
394127 On ch=1 n=g#5 v=77
394144 On ch=1 n=f5 v=0
394148 On ch=1 n=d5 v=50
394164 On ch=1 n=f6 v=0
394191 On ch=1 n=d5 v=0
394201 On ch=1 n=b5 v=67
394241 On ch=1 n=d#4 v=86
394248 On ch=1 n=g#5 v=0
394252 Par ch=1 c=64 v=0
394280 On ch=1 n=f5 v=82
394280 On ch=1 n=f6 v=87
394284 On ch=1 n=b5 v=0
394372 On ch=1 n=c5 v=66
394384 On ch=1 n=g#5 v=68
394400 Par ch=1 c=64 v=127
394404 On ch=1 n=f5 v=0
394413 On ch=1 n=g#4 v=57
394427 On ch=1 n=c6 v=73
394445 On ch=1 n=f6 v=0
394461 On ch=1 n=d#4 v=0
394488 On ch=1 n=c5 v=0
394492 On ch=1 n=g#4 v=0
394504 On ch=1 n=g#5 v=0
394514 On ch=1 n=d4 v=86
394521 On ch=1 n=c6 v=0
394529 On ch=1 n=f6 v=85
394533 On ch=1 n=f5 v=84
394558 Par ch=1 c=64 v=0
394624 On ch=1 n=b4 v=76
394721 On ch=1 n=d4 v=0
394721 On ch=1 n=g#4 v=66
394725 On ch=1 n=b4 v=0
394801 On ch=1 n=g#4 v=0
394810 On ch=1 n=c4 v=86
394825 On ch=1 n=d#6 v=88
394858 On ch=1 n=f4 v=16
394870 On ch=1 n=f5 v=0
394929 On ch=1 n=c4 v=0
394930 On ch=1 n=f6 v=0
394945 On ch=1 n=d#6 v=0
394945 On ch=1 n=d6 v=77
394948 On ch=1 n=g#4 v=65
394958 On ch=1 n=f4 v=0
394999 On ch=1 n=g#4 v=0
395018 On ch=1 n=f5 v=68
395038 On ch=1 n=d#5 v=65
395042 On ch=1 n=d6 v=0
395075 On ch=1 n=d#5 v=0
395098 On ch=1 n=d6 v=51
395102 On ch=1 n=f5 v=0
395165 On ch=1 n=b3 v=71
395210 On ch=1 n=g#6 v=80
395267 On ch=1 n=b3 v=0
395298 On ch=1 n=g#4 v=66
395298 Par ch=1 c=64 v=127
395335 On ch=1 n=g#4 v=0
395375 On ch=1 n=g#6 v=0
395394 On ch=1 n=d5 v=58
395438 On ch=1 n=d5 v=0
395502 On ch=1 n=f5 v=53
395542 On ch=1 n=f5 v=0
395807 On ch=1 n=d6 v=0
395807 On ch=1 n=g6 v=75
395914 On ch=1 n=g6 v=0
396002 On ch=1 n=g6 v=71
396002 On ch=1 n=g5 v=70
396006 On ch=1 n=a#4 v=63
396034 Par ch=1 c=64 v=0
396178 Par ch=1 c=64 v=127
396195 On ch=1 n=c#6 v=75
396202 On ch=1 n=g5 v=0
396210 On ch=1 n=e5 v=47
396218 On ch=1 n=g6 v=0
396265 On ch=1 n=c#5 v=40
396267 On ch=1 n=e6 v=68
396274 On ch=1 n=e5 v=0
396299 On ch=1 n=a4 v=69
396318 On ch=1 n=c#6 v=0
396355 On ch=1 n=g6 v=78
396362 On ch=1 n=g5 v=70
396386 On ch=1 n=e6 v=0
396402 On ch=1 n=a#4 v=0
396451 On ch=1 n=c#6 v=81
396451 On ch=1 n=e5 v=60
396466 On ch=1 n=g5 v=0
396494 On ch=1 n=g6 v=0
396498 On ch=1 n=e6 v=79
396558 On ch=1 n=e5 v=0
396565 On ch=1 n=c#6 v=0
396571 On ch=1 n=a4 v=0
396582 On ch=1 n=g4 v=72
396598 On ch=1 n=e6 v=0
396602 On ch=1 n=g5 v=77
396607 On ch=1 n=g6 v=83
396618 Par ch=1 c=64 v=0
396714 On ch=1 n=a#5 v=82
396722 On ch=1 n=d5 v=65
396746 On ch=1 n=g5 v=0
396746 On ch=1 n=c#5 v=0
396747 On ch=1 n=g4 v=0
396754 Par ch=1 c=64 v=127
396770 On ch=1 n=g6 v=0
396791 On ch=1 n=a#4 v=56
396791 On ch=1 n=c#6 v=76
396807 On ch=1 n=d5 v=0
396834 On ch=1 n=a#5 v=0
396865 On ch=1 n=f4 v=76
396871 On ch=1 n=g5 v=85
396878 On ch=1 n=a#4 v=0
396878 On ch=1 n=g6 v=87
396882 On ch=1 n=c#6 v=0
396986 On ch=1 n=a#5 v=75
397005 On ch=1 n=g5 v=0
397022 On ch=1 n=f4 v=0
397030 On ch=1 n=g6 v=0
397038 On ch=1 n=d6 v=71
397102 On ch=1 n=a#5 v=0
397112 On ch=1 n=d6 v=0
397148 On ch=1 n=g6 v=85
397148 On ch=1 n=g5 v=81
397155 On ch=1 n=e4 v=83
397182 Par ch=1 c=64 v=0
397302 On ch=1 n=a#4 v=58
397319 Par ch=1 c=64 v=127
397363 On ch=1 n=e4 v=0
397378 On ch=1 n=e5 v=56
397384 On ch=1 n=a#4 v=0
397412 On ch=1 n=e5 v=0
397448 On ch=1 n=f6 v=79
397488 On ch=1 n=d4 v=70
397492 On ch=1 n=g5 v=0
397568 On ch=1 n=e6 v=77
397575 On ch=1 n=a#4 v=69
397587 On ch=1 n=d4 v=0
397624 On ch=1 n=g6 v=0
397636 On ch=1 n=f6 v=0
397643 On ch=1 n=a#4 v=0
397672 On ch=1 n=g5 v=69
397672 On ch=1 n=e5 v=67
397684 On ch=1 n=e6 v=0
397739 On ch=1 n=e6 v=68
397749 On ch=1 n=e5 v=0
397749 On ch=1 n=g5 v=0
397804 Par ch=1 c=64 v=0
397841 On ch=1 n=a#6 v=79
397920 On ch=1 n=c#4 v=48
397992 Par ch=1 c=64 v=127
397996 On ch=1 n=c#4 v=0
398081 On ch=1 n=a#4 v=64
398128 On ch=1 n=a#6 v=0
398138 On ch=1 n=a#4 v=0
398146 On ch=1 n=g5 v=67
398176 On ch=1 n=e5 v=58
398209 On ch=1 n=g5 v=0
398237 On ch=1 n=e5 v=0
398425 On ch=1 n=a6 v=72
398429 On ch=1 n=e6 v=0
398525 On ch=1 n=a6 v=0
398629 On ch=1 n=a5 v=73
398629 On ch=1 n=a6 v=82
398633 On ch=1 n=c5 v=63
398645 Par ch=1 c=64 v=0
398783 Par ch=1 c=64 v=127
398874 On ch=1 n=a5 v=0
398893 On ch=1 n=f#5 v=49
398893 On ch=1 n=d#6 v=70
398926 On ch=1 n=a6 v=0
398954 On ch=1 n=f#5 v=0
398954 On ch=1 n=d#5 v=60
398959 On ch=1 n=f#6 v=69
399022 On ch=1 n=b4 v=70
399046 On ch=1 n=a5 v=78
399050 On ch=1 n=d#6 v=0
399050 On ch=1 n=a6 v=80
399054 On ch=1 n=d#5 v=0
399066 On ch=1 n=c5 v=0
399070 On ch=1 n=f#6 v=0
399149 On ch=1 n=f#5 v=59
399163 On ch=1 n=d#6 v=82
399170 On ch=1 n=d#5 v=54
399195 On ch=1 n=a5 v=0
399210 On ch=1 n=a6 v=0
399222 On ch=1 n=f#6 v=70
399259 On ch=1 n=f#5 v=0
399290 On ch=1 n=b4 v=0
399293 On ch=1 n=d#6 v=0
399293 On ch=1 n=a4 v=68
399333 On ch=1 n=a5 v=76
399339 On ch=1 n=f#6 v=0
399339 On ch=1 n=a6 v=77
399410 On ch=1 n=f#5 v=73
399413 On ch=1 n=d#5 v=0
399442 On ch=1 n=c6 v=77
399453 On ch=1 n=a5 v=0
399490 On ch=1 n=c5 v=25
399502 On ch=1 n=a4 v=0
399513 On ch=1 n=a6 v=0
399523 On ch=1 n=d#6 v=78
399530 On ch=1 n=f#5 v=0
399555 On ch=1 n=c5 v=0
399574 On ch=1 n=c6 v=0
399633 On ch=1 n=a6 v=77
399639 On ch=1 n=g4 v=77
399643 On ch=1 n=d#6 v=0
399643 Par ch=1 c=64 v=0
399646 On ch=1 n=a5 v=78
399730 On ch=1 n=e5 v=67
399750 On ch=1 n=c6 v=79
399759 On ch=1 n=a5 v=0
399786 Par ch=1 c=64 v=127
399813 On ch=1 n=a6 v=0
399823 On ch=1 n=e5 v=0
399834 On ch=1 n=g4 v=0
399835 On ch=1 n=c5 v=69
399838 On ch=1 n=e6 v=76
399899 On ch=1 n=c6 v=0
399933 On ch=1 n=e6 v=0
399959 On ch=1 n=a6 v=78
399959 On ch=1 n=f#4 v=73
399970 On ch=1 n=c5 v=0
399970 On ch=1 n=a5 v=80
399995 Par ch=1 c=64 v=0
400102 On ch=1 n=d#5 v=58
400166 Par ch=1 c=64 v=127
400194 On ch=1 n=d#5 v=0
400213 On ch=1 n=c5 v=62
400230 On ch=1 n=f#4 v=0
400314 On ch=1 n=c5 v=0
400355 On ch=1 n=e4 v=62
400373 On ch=1 n=g6 v=83
400394 On ch=1 n=a5 v=0
400415 Par ch=1 c=64 v=0
400466 On ch=1 n=a6 v=0
400530 On ch=1 n=c5 v=60
400559 On ch=1 n=e4 v=0
400582 Par ch=1 c=64 v=127
400623 On ch=1 n=c5 v=0
400634 On ch=1 n=f#6 v=82
400642 On ch=1 n=g6 v=0
400682 On ch=1 n=e5 v=60
400762 On ch=1 n=e5 v=0
400866 On ch=1 n=d#4 v=53
400899 On ch=1 n=f#6 v=0
400910 On ch=1 n=b6 v=74
400914 On ch=1 n=a6 v=67
400926 Par ch=1 c=64 v=0
401075 On ch=1 n=d#4 v=0
401103 Par ch=1 c=64 v=127
401126 On ch=1 n=b4 v=49
401169 On ch=1 n=b6 v=0
401286 On ch=1 n=b4 v=0
401315 On ch=1 n=f#5 v=41
401359 On ch=1 n=f#5 v=0
401630 On ch=1 n=d4 v=51
401654 On ch=1 n=a6 v=0
401654 On ch=1 n=c7 v=68
401670 On ch=1 n=g#6 v=52
401718 Par ch=1 c=64 v=0
401895 Par ch=1 c=64 v=127
401899 On ch=1 n=d4 v=0
402015 On ch=1 n=a4 v=34
402270 On ch=1 n=f#6 v=47
402286 On ch=1 n=g#6 v=0
402330 On ch=1 n=c7 v=0
402342 On ch=1 n=f#6 v=0
402498 On ch=1 n=f#5 v=37
402526 On ch=1 n=a4 v=0
402554 On ch=1 n=f#5 v=0
403055 Par ch=1 c=64 v=0
403114 On ch=1 n=a#5 v=44
403210 On ch=1 n=a#5 v=0
403242 Par ch=1 c=64 v=127
403266 On ch=1 n=f#6 v=50
403299 On ch=1 n=f#6 v=0
403462 On ch=1 n=c#7 v=68
403535 On ch=1 n=c#7 v=0
403627 On ch=1 n=d#7 v=71
403695 On ch=1 n=d#7 v=0
403775 On ch=1 n=c#7 v=67
403835 On ch=1 n=c#4 v=41
403847 On ch=1 n=c#7 v=0
403894 On ch=1 n=d#7 v=57
403970 On ch=1 n=d#7 v=0
404002 On ch=1 n=c#7 v=61
404046 On ch=1 n=c#7 v=0
404086 On ch=1 n=d#7 v=61
404135 On ch=1 n=d#7 v=0
404150 On ch=1 n=c#4 v=0
404166 On ch=1 n=c#7 v=56
404194 On ch=1 n=a#4 v=44
404199 On ch=1 n=c#7 v=0
404239 On ch=1 n=d#7 v=53
404254 On ch=1 n=d#7 v=0
404287 On ch=1 n=c#7 v=66
404330 On ch=1 n=c#7 v=0
404354 On ch=1 n=d#7 v=67
404415 On ch=1 n=d#7 v=0
404430 On ch=1 n=c#7 v=64
404433 On ch=1 n=a#4 v=0
404455 On ch=1 n=f#5 v=55
404466 On ch=1 n=c#7 v=0
404486 On ch=1 n=d#7 v=54
404513 On ch=1 n=f#5 v=0
404566 On ch=1 n=c#7 v=59
404593 On ch=1 n=c#7 v=0
404599 On ch=1 n=d#7 v=0
404603 On ch=1 n=d#7 v=29
404675 On ch=1 n=c#7 v=60
404679 On ch=1 n=d#7 v=0
404722 On ch=1 n=c#7 v=0
404754 On ch=1 n=d#7 v=54
404834 On ch=1 n=d#7 v=0
404853 On ch=1 n=c#7 v=57
404859 On ch=1 n=c#6 v=65
404882 On ch=1 n=c#7 v=0
404906 On ch=1 n=d#7 v=52
404962 On ch=1 n=d#7 v=0
404966 On ch=1 n=c#7 v=56
405010 On ch=1 n=c#7 v=0
405054 On ch=1 n=d#7 v=56
405107 On ch=1 n=d#7 v=0
405126 On ch=1 n=c#7 v=57
405163 On ch=1 n=c#7 v=0
405203 On ch=1 n=d#7 v=57
405250 On ch=1 n=d#7 v=0
405260 On ch=1 n=c#7 v=57
405304 On ch=1 n=c#7 v=0
405343 On ch=1 n=d#7 v=57
405380 On ch=1 n=d#7 v=0
405410 On ch=1 n=c#7 v=59
405439 On ch=1 n=c#7 v=0
405449 On ch=1 n=d#7 v=67
405527 On ch=1 n=d#7 v=0
405527 On ch=1 n=c#7 v=63
405569 On ch=1 n=c#7 v=0
405580 On ch=1 n=d#7 v=54
405677 On ch=1 n=d#7 v=0
405680 On ch=1 n=c#7 v=59
405707 On ch=1 n=c#7 v=0
405717 On ch=1 n=d#7 v=47
405733 On ch=1 n=c#6 v=0
405774 On ch=1 n=d#7 v=0
405793 On ch=1 n=c#7 v=61
405844 On ch=1 n=c#7 v=0
405865 On ch=1 n=d#7 v=35
405941 On ch=1 n=d#7 v=0
405961 On ch=1 n=c#7 v=52
405990 On ch=1 n=c#7 v=0
406001 On ch=1 n=d#7 v=50
406077 On ch=1 n=c#7 v=58
406087 On ch=1 n=d#7 v=0
406118 On ch=1 n=c#7 v=0
406142 On ch=1 n=d#7 v=57
406203 On ch=1 n=d#7 v=0
406227 On ch=1 n=c#7 v=51
406270 On ch=1 n=c#7 v=0
406270 On ch=1 n=d#7 v=52
406343 On ch=1 n=d#7 v=0
406343 On ch=1 n=c#7 v=63
406375 On ch=1 n=c#7 v=0
406407 On ch=1 n=d#7 v=57
406458 On ch=1 n=d#7 v=0
406502 On ch=1 n=c#7 v=53
406531 On ch=1 n=c#7 v=0
406538 On ch=1 n=d#7 v=55
406595 On ch=1 n=d#7 v=0
406598 On ch=1 n=c#7 v=66
406642 On ch=1 n=c#7 v=0
406671 On ch=1 n=d#7 v=53
406718 On ch=1 n=d#7 v=0
406758 On ch=1 n=c#7 v=64
406794 On ch=1 n=c#7 v=0
406834 On ch=1 n=d#7 v=58
406895 On ch=1 n=d#7 v=0
406922 On ch=1 n=c#7 v=51
406950 On ch=1 n=f5 v=65
406954 On ch=1 n=c#7 v=0
406982 On ch=1 n=a4 v=47
406986 On ch=1 n=d#7 v=57
407041 On ch=1 n=d#7 v=0
407058 On ch=1 n=c#7 v=55
407094 On ch=1 n=c#7 v=0
407143 On ch=1 n=d#7 v=63
407191 On ch=1 n=d#7 v=0
407218 On ch=1 n=c#7 v=57
407254 On ch=1 n=c#7 v=0
407290 On ch=1 n=d#7 v=59
407343 On ch=1 n=d#7 v=0
407358 On ch=1 n=c#7 v=55
407398 On ch=1 n=c#7 v=0
407422 On ch=1 n=d#7 v=58
407482 On ch=1 n=d#7 v=0
407515 On ch=1 n=c#7 v=57
407531 On ch=1 n=c#7 v=0
407542 On ch=1 n=d#7 v=53
407618 On ch=1 n=c#7 v=59
407638 On ch=1 n=d#7 v=0
407670 On ch=1 n=c#7 v=0
407680 On ch=1 n=d#7 v=42
407767 On ch=1 n=d#7 v=0
407777 On ch=1 n=c#7 v=61
407808 On ch=1 n=c#7 v=0
407825 On ch=1 n=d#7 v=53
407876 On ch=1 n=d#7 v=0
407916 On ch=1 n=c#7 v=55
407952 On ch=1 n=c#7 v=0
407961 On ch=1 n=d#7 v=55
408016 On ch=1 n=d#7 v=0
408028 On ch=1 n=c#7 v=65
408092 On ch=1 n=c#7 v=0
408100 On ch=1 n=d#7 v=40
408184 On ch=1 n=d#7 v=0
408208 On ch=1 n=c#7 v=48
408244 On ch=1 n=c#7 v=0
408244 On ch=1 n=d#7 v=55
408272 On ch=1 n=a4 v=0
408317 On ch=1 n=c#7 v=61
408361 On ch=1 n=c#7 v=0
408376 On ch=1 n=d#7 v=0
408376 On ch=1 n=d#7 v=52
408396 On ch=1 n=a#4 v=50
408408 On ch=1 n=f#5 v=56
408424 On ch=1 n=d#7 v=0
408445 On ch=1 n=a#4 v=0
408472 On ch=1 n=c#7 v=58
408508 On ch=1 n=c#7 v=0
408537 On ch=1 n=d#7 v=51
408541 On ch=1 n=f5 v=0
408612 On ch=1 n=d#7 v=0
408616 On ch=1 n=f#5 v=0
408632 On ch=1 n=c#7 v=43
408676 On ch=1 n=c#7 v=0
408688 On ch=1 n=d#7 v=53
408748 On ch=1 n=b4 v=46
408751 On ch=1 n=c#7 v=57
408795 On ch=1 n=c#7 v=0
408805 On ch=1 n=d#5 v=47
408834 On ch=1 n=d#7 v=0
408834 On ch=1 n=f#5 v=52
408837 On ch=1 n=d#7 v=50
408885 On ch=1 n=d#7 v=0
408913 On ch=1 n=c#7 v=57
408945 On ch=1 n=c#7 v=0
408989 On ch=1 n=d#7 v=65
409049 On ch=1 n=d#7 v=0
409058 On ch=1 n=c#7 v=52
409118 On ch=1 n=c#7 v=0
409141 On ch=1 n=a#5 v=75
409149 On ch=1 n=d#7 v=58
409153 Par ch=1 c=64 v=0
409194 On ch=1 n=d#7 v=0
409213 On ch=1 n=c#7 v=55
409254 On ch=1 n=c#7 v=0
409301 On ch=1 n=d#7 v=56
409305 Par ch=1 c=64 v=127
409342 On ch=1 n=d#7 v=0
409373 On ch=1 n=c#7 v=57
409409 On ch=1 n=c#7 v=0
409449 On ch=1 n=d#7 v=61
409498 On ch=1 n=d#7 v=0
409513 On ch=1 n=c#7 v=55
409541 On ch=1 n=c#7 v=0
409589 On ch=1 n=d#7 v=56
409632 On ch=1 n=d#7 v=0
409649 On ch=1 n=c#7 v=57
409693 On ch=1 n=c#7 v=0
409714 On ch=1 n=d#7 v=57
409786 On ch=1 n=d#7 v=0
409801 On ch=1 n=c#7 v=60
409845 On ch=1 n=c#7 v=0
409869 On ch=1 n=d#7 v=59
409946 On ch=1 n=d#7 v=0
409949 On ch=1 n=c#7 v=64
409985 On ch=1 n=c#7 v=0
410012 On ch=1 n=d#7 v=51
410065 On ch=1 n=a#5 v=0
410094 On ch=1 n=d#7 v=0
410101 On ch=1 n=c#7 v=59
410134 On ch=1 n=c#7 v=0
410152 On ch=1 n=d#7 v=51
410233 On ch=1 n=c#7 v=58
410278 On ch=1 n=c#7 v=0
410282 On ch=1 n=d#7 v=0
410289 On ch=1 n=d#7 v=55
410341 On ch=1 n=d#7 v=0
410385 On ch=1 n=c#7 v=60
410417 On ch=1 n=c#7 v=0
410445 On ch=1 n=d#7 v=57
410521 On ch=1 n=d#7 v=0
410538 On ch=1 n=c#7 v=51
410565 On ch=1 n=c#7 v=0
410581 On ch=1 n=d#7 v=52
410629 On ch=1 n=d#7 v=0
410654 On ch=1 n=c#7 v=56
410693 On ch=1 n=c#7 v=0
410705 On ch=1 n=d#7 v=55
410758 On ch=1 n=d#7 v=0
410802 On ch=1 n=c#7 v=57
410842 On ch=1 n=c#7 v=0
410849 On ch=1 n=d#7 v=55
410906 On ch=1 n=d#7 v=0
410937 On ch=1 n=c#7 v=57
410965 On ch=1 n=c#7 v=0
410982 On ch=1 n=d#7 v=59
411033 On ch=1 n=d#7 v=0
411049 On ch=1 n=c#7 v=51
411074 On ch=1 n=g#5 v=43
411105 On ch=1 n=c#7 v=0
411109 On ch=1 n=d#7 v=51
411153 On ch=1 n=d#7 v=0
411185 On ch=1 n=g#5 v=0
411193 On ch=1 n=c#7 v=50
411238 On ch=1 n=c#7 v=0
411242 On ch=1 n=d#7 v=50
411298 On ch=1 n=d#7 v=0
411329 On ch=1 n=c#7 v=55
411389 On ch=1 n=c#7 v=0
411445 On ch=1 n=b6 v=60
411477 On ch=1 n=d#5 v=0
411481 On ch=1 n=b4 v=0
411498 On ch=1 n=b6 v=0
411509 On ch=1 n=f#5 v=0
411569 On ch=1 n=a#6 v=47
411597 On ch=1 n=a#6 v=0
411645 On ch=1 n=b6 v=49
411717 On ch=1 n=b6 v=0
411717 On ch=1 n=d#7 v=49
411792 On ch=1 n=d#7 v=0
411802 On ch=1 n=f#7 v=66
411861 On ch=1 n=f#7 v=0
411886 On ch=1 n=a#7 v=80
411952 On ch=1 n=g#7 v=68
411958 Par ch=1 c=64 v=0
412005 On ch=1 n=f#7 v=66
412032 On ch=1 n=a#7 v=0
412062 On ch=1 n=g#7 v=0
412065 On ch=1 n=d#7 v=63
412075 On ch=1 n=f#7 v=0
412103 On ch=1 n=d#7 v=0
412126 Par ch=1 c=64 v=127
412135 On ch=1 n=b6 v=60
412194 On ch=1 n=b6 v=0
412251 On ch=1 n=g#6 v=66
412309 On ch=1 n=g#6 v=0
412342 On ch=1 n=g6 v=62
412378 On ch=1 n=g#6 v=69
412403 On ch=1 n=g6 v=0
412419 On ch=1 n=f7 v=81
412422 On ch=1 n=g#6 v=0
412469 On ch=1 n=d#7 v=75
412543 On ch=1 n=f7 v=0
412546 On ch=1 n=d#7 v=0
412570 On ch=1 n=b6 v=60
412591 On ch=1 n=b6 v=0
412662 On ch=1 n=g#6 v=64
412710 On ch=1 n=g#6 v=0
412711 On ch=1 n=f#6 v=62
412790 On ch=1 n=f#6 v=0
412790 On ch=1 n=d#6 v=64
412802 On ch=1 n=d#6 v=0
412850 On ch=1 n=b5 v=56
412894 On ch=1 n=b5 v=0
412926 On ch=1 n=g#5 v=58
412955 On ch=1 n=g#5 v=0
412970 On ch=1 n=g5 v=62
413010 On ch=1 n=g5 v=0
413051 On ch=1 n=g#5 v=60
413086 On ch=1 n=b5 v=46
413091 On ch=1 n=g#5 v=0
413115 On ch=1 n=b5 v=0
413129 On ch=1 n=d#6 v=72
413190 On ch=1 n=f#6 v=68
413222 On ch=1 n=d#6 v=0
413234 On ch=1 n=g#6 v=66
413262 On ch=1 n=f#6 v=0
413270 On ch=1 n=g#6 v=0
413350 On ch=1 n=a6 v=60
413378 On ch=1 n=a6 v=0
413403 On ch=1 n=a#6 v=71
413429 On ch=1 n=a#6 v=0
413498 On ch=1 n=b6 v=68
413534 On ch=1 n=b6 v=0
413559 On ch=1 n=c7 v=66
413634 Par ch=1 c=64 v=0
413634 On ch=1 n=c#7 v=64
413649 On ch=1 n=c7 v=0
413922 On ch=1 n=c#7 v=0
413962 Par ch=1 c=64 v=127
413978 On ch=1 n=d7 v=53
414162 On ch=1 n=d7 v=0
414310 On ch=1 n=d#7 v=54
414589 On ch=1 n=d#7 v=0
414710 On ch=1 n=d7 v=53
414963 On ch=1 n=d7 v=0
415246 On ch=1 n=f7 v=52
415369 Par ch=1 c=67 v=0
415471 On ch=1 n=f7 v=0
415979 Par ch=1 c=67 v=127
416486 On ch=1 n=d#7 v=50
416591 On ch=1 n=d#7 v=0
418110 On ch=1 n=d7 v=50
418246 On ch=1 n=d7 v=0
418271 On ch=1 n=d#7 v=51
418345 On ch=1 n=d#7 v=0
418410 On ch=1 n=f7 v=60
418498 On ch=1 n=f7 v=0
418571 On ch=1 n=d#7 v=56
418619 On ch=1 n=d#7 v=0
418662 On ch=1 n=f7 v=56
418710 On ch=1 n=f7 v=0
418751 On ch=1 n=d#7 v=56
418786 On ch=1 n=d#7 v=0
418814 On ch=1 n=f7 v=56
418871 On ch=1 n=f7 v=0
418875 On ch=1 n=a#3 v=42
418879 On ch=1 n=d#7 v=57
418915 On ch=1 n=d#7 v=0
418930 On ch=1 n=f7 v=55
418979 On ch=1 n=f7 v=0
419009 On ch=1 n=d#7 v=59
419023 On ch=1 n=a#3 v=0
419050 On ch=1 n=d#7 v=0
419062 On ch=1 n=f7 v=55
419106 On ch=1 n=f7 v=0
419139 On ch=1 n=d#7 v=56
419169 On ch=1 n=g4 v=49
419179 On ch=1 n=d#7 v=0
419179 On ch=1 n=f7 v=59
419223 On ch=1 n=f7 v=0
419268 On ch=1 n=d#7 v=60
419306 On ch=1 n=d#7 v=0
419320 On ch=1 n=g4 v=0
419323 On ch=1 n=f7 v=50
419379 On ch=1 n=f7 v=0
419407 On ch=1 n=d#5 v=65
419439 On ch=1 n=d#7 v=59
419460 On ch=1 n=f7 v=56
419495 On ch=1 n=d#7 v=0
419505 On ch=1 n=f7 v=0
419537 On ch=1 n=d#7 v=55
419552 On ch=1 n=d#5 v=0
419580 On ch=1 n=d#7 v=0
419584 On ch=1 n=f7 v=56
419636 On ch=1 n=f7 v=0
419668 On ch=1 n=d#7 v=60
419712 On ch=1 n=d#7 v=0
419740 On ch=1 n=f7 v=55
419785 On ch=1 n=f7 v=0
419824 On ch=1 n=d#6 v=85
419844 On ch=1 n=d#7 v=55
419884 On ch=1 n=d#7 v=0
419956 On ch=1 n=f7 v=57
419996 On ch=1 n=f7 v=0
420052 On ch=1 n=d#7 v=58
420085 On ch=1 n=d#7 v=0
420116 On ch=1 n=f7 v=59
420164 On ch=1 n=f7 v=0
420183 On ch=1 n=d#7 v=57
420228 On ch=1 n=d#7 v=0
420253 On ch=1 n=f7 v=56
420300 On ch=1 n=f7 v=0
420323 On ch=1 n=d#7 v=55
420365 On ch=1 n=d#7 v=0
420380 On ch=1 n=f7 v=66
420444 On ch=1 n=f7 v=0
420465 On ch=1 n=d#7 v=58
420516 On ch=1 n=d#7 v=0
420545 On ch=1 n=f7 v=59
420577 On ch=1 n=f7 v=0
420592 On ch=1 n=d#7 v=58
420653 On ch=1 n=d#7 v=0
420665 On ch=1 n=f7 v=59
420696 On ch=1 n=f7 v=0
420729 On ch=1 n=d#7 v=63
420803 On ch=1 n=d#7 v=0
420813 On ch=1 n=f7 v=64
420841 On ch=1 n=f7 v=0
420886 On ch=1 n=d#7 v=58
420937 On ch=1 n=d#7 v=0
420981 On ch=1 n=f7 v=59
421022 On ch=1 n=f7 v=0
421086 On ch=1 n=d#7 v=60
421122 On ch=1 n=d#7 v=0
421153 On ch=1 n=f7 v=63
421213 On ch=1 n=f7 v=0
421242 On ch=1 n=d#7 v=58
421273 On ch=1 n=d#7 v=0
421302 On ch=1 n=f7 v=59
421353 On ch=1 n=f7 v=0
421370 On ch=1 n=d#7 v=57
421426 On ch=1 n=d#7 v=0
421449 On ch=1 n=f7 v=59
421500 On ch=1 n=f7 v=0
421521 On ch=1 n=d#7 v=60
421565 On ch=1 n=d#7 v=0
421590 On ch=1 n=d#6 v=0
421597 On ch=1 n=f7 v=59
421649 On ch=1 n=f7 v=0
421673 On ch=1 n=d#7 v=58
421726 On ch=1 n=d#7 v=0
421762 On ch=1 n=f7 v=59
421821 On ch=1 n=d#7 v=59
421829 On ch=1 n=d#7 v=0
421839 On ch=1 n=f7 v=0
421903 On ch=1 n=f7 v=60
421914 On ch=1 n=f7 v=0
421977 On ch=1 n=d#7 v=63
421998 On ch=1 n=f7 v=59
422027 On ch=1 n=f7 v=0
422027 On ch=1 n=f#5 v=83
422034 On ch=1 n=d#7 v=0
422057 On ch=1 n=a4 v=55
422074 On ch=1 n=d#7 v=60
422107 On ch=1 n=d#7 v=0
422158 On ch=1 n=f7 v=59
422203 Par ch=1 c=64 v=0
422210 On ch=1 n=f7 v=0
422243 On ch=1 n=d#7 v=60
422277 On ch=1 n=d#7 v=0
422298 On ch=1 n=f7 v=59
422338 On ch=1 n=f7 v=0
422382 Par ch=1 c=64 v=127
422393 On ch=1 n=d#7 v=59
422439 On ch=1 n=d#7 v=0
422443 On ch=1 n=f7 v=59
422486 On ch=1 n=f7 v=0
422503 On ch=1 n=d#7 v=63
422547 On ch=1 n=d#7 v=0
422579 On ch=1 n=f7 v=58
422594 On ch=1 n=a4 v=0
422631 On ch=1 n=f7 v=0
422657 On ch=1 n=d#7 v=60
422686 On ch=1 n=d#7 v=0
422702 On ch=1 n=f7 v=58
422746 On ch=1 n=f7 v=0
422763 On ch=1 n=d#7 v=61
422806 On ch=1 n=d#7 v=0
422838 On ch=1 n=f7 v=59
422879 On ch=1 n=f7 v=0
422894 On ch=1 n=d#7 v=59
422934 On ch=1 n=d#7 v=0
422943 On ch=1 n=f7 v=58
422994 On ch=1 n=f7 v=0
423022 On ch=1 n=d#7 v=59
423059 On ch=1 n=d#7 v=0
423110 On ch=1 n=f7 v=67
423154 On ch=1 n=f7 v=0
423202 On ch=1 n=d#7 v=57
423247 On ch=1 n=d#7 v=0
423310 On ch=1 n=f7 v=59
423357 On ch=1 n=f7 v=0
423419 On ch=1 n=d#7 v=59
423433 On ch=1 n=g5 v=82
423433 On ch=1 n=a#4 v=56
423450 On ch=1 n=f7 v=60
423460 On ch=1 n=f7 v=0
423460 On ch=1 n=d#7 v=0
423494 On ch=1 n=a#4 v=0
423523 On ch=1 n=d#7 v=59
423567 On ch=1 n=f#5 v=0
423584 On ch=1 n=f7 v=59
423588 On ch=1 n=f7 v=0
423631 On ch=1 n=d#7 v=0
423660 On ch=1 n=d#7 v=66
423711 On ch=1 n=d#7 v=0
423711 On ch=1 n=f7 v=59
423715 Par ch=1 c=64 v=0
423751 On ch=1 n=a#4 v=62
423763 On ch=1 n=f7 v=0
423791 On ch=1 n=d#5 v=58
423811 On ch=1 n=f#5 v=46
423815 On ch=1 n=d#7 v=71
423851 On ch=1 n=d#7 v=0
423855 On ch=1 n=a5 v=62
423863 Par ch=1 c=64 v=127
423867 On ch=1 n=f7 v=60
423871 On ch=1 n=g5 v=0
423911 On ch=1 n=f7 v=0
423939 On ch=1 n=d#7 v=70
423950 On ch=1 n=a#4 v=0
423987 On ch=1 n=d#7 v=0
424004 On ch=1 n=d6 v=95
424004 On ch=1 n=f7 v=70
424047 On ch=1 n=f7 v=0
424091 On ch=1 n=d#7 v=58
424134 On ch=1 n=d#7 v=0
424174 On ch=1 n=f7 v=62
424214 On ch=1 n=f7 v=0
424248 On ch=1 n=d#7 v=57
424294 On ch=1 n=d#7 v=0
424320 On ch=1 n=f7 v=64
424356 On ch=1 n=f7 v=0
424404 On ch=1 n=d#7 v=59
424434 On ch=1 n=d#7 v=0
424480 On ch=1 n=f7 v=66
424524 On ch=1 n=f7 v=0
424551 On ch=1 n=d#7 v=60
424596 On ch=1 n=d#7 v=0
424614 On ch=1 n=f7 v=66
424660 On ch=1 n=f7 v=0
424691 On ch=1 n=d#7 v=64
424719 On ch=1 n=d#7 v=0
424764 On ch=1 n=f7 v=66
424810 On ch=1 n=f7 v=0
424844 On ch=1 n=d#7 v=65
424871 On ch=1 n=d#7 v=0
424899 On ch=1 n=f7 v=60
424956 On ch=1 n=f7 v=0
424971 On ch=1 n=d#7 v=62
425011 On ch=1 n=d#7 v=0
425047 On ch=1 n=f7 v=59
425095 On ch=1 n=f7 v=0
425116 On ch=1 n=d#7 v=61
425167 On ch=1 n=d#7 v=0
425195 On ch=1 n=f7 v=59
425236 On ch=1 n=f7 v=0
425271 On ch=1 n=d#7 v=59
425315 On ch=1 n=d#7 v=0
425330 On ch=1 n=f7 v=60
425360 On ch=1 n=f7 v=0
425427 On ch=1 n=d#7 v=59
425434 On ch=1 n=d6 v=0
425463 On ch=1 n=d#7 v=0
425503 On ch=1 n=f7 v=59
425547 On ch=1 n=f7 v=0
425576 On ch=1 n=d#7 v=59
425611 On ch=1 n=d#7 v=0
425651 On ch=1 n=f7 v=64
425687 On ch=1 n=f7 v=0
425728 On ch=1 n=d#7 v=57
425763 On ch=1 n=d#7 v=0
425807 On ch=1 n=f7 v=63
425860 On ch=1 n=f7 v=0
425891 On ch=1 n=d#7 v=62
425940 On ch=1 n=d#7 v=0
425940 On ch=1 n=f7 v=62
425996 On ch=1 n=f7 v=0
426044 On ch=1 n=d#7 v=63
426074 On ch=1 n=f7 v=62
426084 On ch=1 n=d#7 v=0
426144 On ch=1 n=f7 v=0
426173 On ch=1 n=d#7 v=63
426208 On ch=1 n=d#7 v=0
426220 On ch=1 n=f7 v=62
426265 On ch=1 n=f7 v=0
426293 On ch=1 n=d#7 v=62
426341 On ch=1 n=d#7 v=0
426344 On ch=1 n=f7 v=62
426393 On ch=1 n=f7 v=0
426440 On ch=1 n=d#7 v=64
426471 On ch=1 n=d#7 v=0
426485 On ch=1 n=f7 v=65
426532 On ch=1 n=f7 v=0
426551 On ch=1 n=d#7 v=63
426587 On ch=1 n=d#7 v=0
426628 On ch=1 n=f7 v=64
426653 On ch=1 n=c6 v=81
426664 On ch=1 n=f7 v=0
426697 On ch=1 n=d#7 v=62
426728 On ch=1 n=a5 v=0
426744 On ch=1 n=f#5 v=0
426756 On ch=1 n=d#5 v=0
426756 On ch=1 n=f7 v=63
426771 On ch=1 n=c6 v=0
426836 On ch=1 n=d#7 v=0
426848 On ch=1 n=d#7 v=64
426891 On ch=1 n=f7 v=0
426912 On ch=1 n=d7 v=61
426992 On ch=1 n=d#7 v=0
427011 On ch=1 n=d#7 v=64
427021 On ch=1 n=d7 v=0
427048 On ch=1 n=f#7 v=67
427097 On ch=1 n=d#7 v=0
427097 On ch=1 n=g#7 v=73
427124 On ch=1 n=f#7 v=0
427144 On ch=1 n=g#7 v=0
427217 On ch=1 n=a7 v=60
427248 On ch=1 n=c8 v=81
427272 On ch=1 n=a7 v=0
427304 On ch=1 n=d#8 v=80
427320 On ch=1 n=d8 v=90
427368 On ch=1 n=f8 v=98
427372 On ch=1 n=c8 v=0
427377 On ch=1 n=d#8 v=0
427432 On ch=1 n=d8 v=0
427464 Par ch=1 c=64 v=0
427476 On ch=1 n=d#8 v=92
427531 Par ch=1 c=64 v=127
427552 On ch=1 n=c8 v=76
427613 On ch=1 n=d#8 v=0
427613 On ch=1 n=f8 v=0
427613 On ch=1 n=a7 v=80
427641 On ch=1 n=c8 v=0
427664 On ch=1 n=a7 v=0
427711 On ch=1 n=g#7 v=85
427772 On ch=1 n=f#7 v=81
427844 On ch=1 n=d#7 v=79
427854 On ch=1 n=g#7 v=0
427901 On ch=1 n=f#7 v=0
427909 On ch=1 n=d7 v=79
427917 On ch=1 n=d#7 v=0
427958 On ch=1 n=d7 v=0
427961 On ch=1 n=f7 v=88
427994 Par ch=1 c=64 v=0
428048 On ch=1 n=d#7 v=81
428077 Par ch=1 c=64 v=127
428108 On ch=1 n=c7 v=81
428150 On ch=1 n=f7 v=0
428165 On ch=1 n=a6 v=85
428197 On ch=1 n=d#7 v=0
428218 On ch=1 n=a6 v=0
428257 On ch=1 n=c7 v=0
428267 On ch=1 n=g#6 v=85
428335 On ch=1 n=f#6 v=80
428394 On ch=1 n=d#6 v=87
428446 On ch=1 n=g#6 v=0
428447 On ch=1 n=d6 v=81
428458 On ch=1 n=f#6 v=0
428474 On ch=1 n=d#6 v=0
428499 On ch=1 n=d6 v=0
428507 Par ch=1 c=64 v=0
428525 On ch=1 n=f6 v=87
428582 Par ch=1 c=64 v=127
428615 On ch=1 n=d#6 v=80
428685 On ch=1 n=c6 v=77
428738 On ch=1 n=d#6 v=0
428745 On ch=1 n=f6 v=0
428745 On ch=1 n=a5 v=78
428755 On ch=1 n=c6 v=0
428803 On ch=1 n=a5 v=0
428851 On ch=1 n=g#5 v=78
428899 On ch=1 n=f#5 v=76
428968 On ch=1 n=d#5 v=75
429015 On ch=1 n=f#5 v=0
429015 On ch=1 n=g#5 v=0
429025 On ch=1 n=d5 v=77
429044 On ch=1 n=d#5 v=0
429081 On ch=1 n=d5 v=0
429116 On ch=1 n=f5 v=78
429126 Par ch=1 c=64 v=0
429172 On ch=1 n=d#5 v=75
429189 Par ch=1 c=64 v=127
429246 On ch=1 n=f5 v=0
429258 On ch=1 n=c5 v=77
429306 On ch=1 n=d#5 v=0
429318 On ch=1 n=a4 v=75
429376 On ch=1 n=a4 v=0
429397 On ch=1 n=c5 v=0
429412 On ch=1 n=g#4 v=75
429469 On ch=1 n=f#4 v=75
429530 On ch=1 n=d#4 v=80
429569 On ch=1 n=c4 v=85
429577 On ch=1 n=f#4 v=0
429577 On ch=1 n=g#4 v=0
429636 On ch=1 n=d#4 v=0
429646 On ch=1 n=a3 v=91
429646 Par ch=1 c=64 v=0
429682 On ch=1 n=c4 v=0
429709 Par ch=1 c=64 v=127
429769 On ch=1 n=c4 v=73
429849 On ch=1 n=d#4 v=83
429858 On ch=1 n=a3 v=0
429877 On ch=1 n=c4 v=0
429932 On ch=1 n=f#4 v=79
429957 On ch=1 n=d#4 v=0
430005 On ch=1 n=a4 v=75
430029 On ch=1 n=f#4 v=0
430076 On ch=1 n=c5 v=77
430097 On ch=1 n=a4 v=0
430116 On ch=1 n=d#5 v=72
430162 On ch=1 n=f#5 v=75
430196 On ch=1 n=d#5 v=0
430217 On ch=1 n=c5 v=0
430225 On ch=1 n=f#5 v=0
430302 On ch=1 n=a5 v=72
430358 On ch=1 n=c6 v=74
430389 On ch=1 n=a5 v=0
430437 On ch=1 n=c6 v=0
430437 On ch=1 n=d#6 v=85
430509 On ch=1 n=d#6 v=0
430513 On ch=1 n=f#6 v=82
430553 On ch=1 n=a6 v=80
430589 On ch=1 n=f#6 v=0
430606 On ch=1 n=c7 v=78
430658 On ch=1 n=d#7 v=80
430705 On ch=1 n=f#7 v=78
430737 On ch=1 n=a6 v=0
430773 On ch=1 n=d#7 v=0
430778 On ch=1 n=f#7 v=0
430778 On ch=1 n=c7 v=0
430853 On ch=1 n=g6 v=108
430853 On ch=1 n=c7 v=99
430863 Par ch=1 c=64 v=0
430866 On ch=1 n=g7 v=103
430866 On ch=1 n=e7 v=91
430882 On ch=1 n=g3 v=91
430882 On ch=1 n=g2 v=94
430954 Par ch=1 c=64 v=127
431106 On ch=1 n=g3 v=0
431123 On ch=1 n=g2 v=0
431130 On ch=1 n=g7 v=0
431135 On ch=1 n=e7 v=0
431135 On ch=1 n=c7 v=0
431166 On ch=1 n=g6 v=0
431343 On ch=1 n=g3 v=81
431347 On ch=1 n=g4 v=78
431383 On ch=1 n=g4 v=0
431383 On ch=1 n=g3 v=0
431475 On ch=1 n=a4 v=87
431475 On ch=1 n=a3 v=87
431506 On ch=1 n=a3 v=0
431506 On ch=1 n=a4 v=0
431602 On ch=1 n=b4 v=70
431602 On ch=1 n=b3 v=78
431643 On ch=1 n=b3 v=0
431647 On ch=1 n=b4 v=0
431702 Par ch=1 c=64 v=0
431713 On ch=1 n=g6 v=91
431722 On ch=1 n=b5 v=101
431722 On ch=1 n=b6 v=92
431722 On ch=1 n=e6 v=90
431722 On ch=1 n=c5 v=87
431722 On ch=1 n=c4 v=78
431753 On ch=1 n=c4 v=0
431774 On ch=1 n=c5 v=0
431839 On ch=1 n=d5 v=89
431846 On ch=1 n=d4 v=80
431882 On ch=1 n=d5 v=0
431886 On ch=1 n=d4 v=0
431958 On ch=1 n=e5 v=91
431962 On ch=1 n=e4 v=83
431995 On ch=1 n=e4 v=0
432010 On ch=1 n=e5 v=0
432046 Par ch=1 c=64 v=127
432079 On ch=1 n=b5 v=0
432087 On ch=1 n=f5 v=78
432087 On ch=1 n=f4 v=74
432094 On ch=1 n=e6 v=0
432118 On ch=1 n=f5 v=0
432118 On ch=1 n=g6 v=0
432126 On ch=1 n=f4 v=0
432126 On ch=1 n=b6 v=0
432230 On ch=1 n=f#4 v=86
432230 On ch=1 n=f#5 v=76
432282 Par ch=1 c=64 v=0
432290 On ch=1 n=f#5 v=0
432290 On ch=1 n=f#4 v=0
432334 On ch=1 n=e6 v=79
432338 On ch=1 n=c7 v=75
432353 On ch=1 n=c6 v=65
432355 On ch=1 n=e6 v=0
432378 On ch=1 n=c7 v=0
432382 On ch=1 n=c6 v=0
432386 On ch=1 n=g4 v=76
432386 On ch=1 n=g5 v=76
432453 On ch=1 n=a5 v=98
432459 On ch=1 n=a4 v=98
432459 On ch=1 n=g6 v=99
432459 On ch=1 n=f5 v=95
432463 On ch=1 n=g7 v=100
432463 On ch=1 n=c7 v=93
432494 On ch=1 n=g5 v=0
432494 On ch=1 n=g4 v=0
432527 Par ch=1 c=64 v=127
432546 On ch=1 n=c7 v=0
432610 On ch=1 n=a4 v=0
432620 On ch=1 n=f5 v=0
432624 On ch=1 n=g6 v=0
432651 On ch=1 n=a5 v=0
432691 On ch=1 n=f7 v=70
432747 On ch=1 n=c7 v=79
432790 On ch=1 n=f7 v=0
432800 On ch=1 n=g7 v=0
432823 On ch=1 n=a6 v=70
432830 On ch=1 n=c7 v=0
432840 On ch=1 n=a6 v=0
432869 On ch=1 n=g6 v=58
432947 On ch=1 n=g6 v=0
432947 On ch=1 n=f6 v=78
433008 On ch=1 n=c6 v=76
433040 On ch=1 n=f6 v=0
433080 On ch=1 n=a5 v=78
433108 Par ch=1 c=64 v=0
433116 On ch=1 n=c6 v=0
433140 On ch=1 n=a5 v=0
433184 On ch=1 n=g6 v=87
433196 Par ch=1 c=64 v=127
433240 On ch=1 n=f6 v=78
433321 On ch=1 n=c6 v=81
433387 On ch=1 n=g6 v=0
433393 On ch=1 n=f6 v=0
433413 On ch=1 n=a5 v=80
433449 On ch=1 n=c6 v=0
433497 On ch=1 n=a5 v=0
433497 On ch=1 n=g5 v=63
433560 On ch=1 n=g5 v=0
433560 On ch=1 n=f5 v=74
433616 On ch=1 n=c5 v=67
433660 On ch=1 n=f5 v=0
433687 On ch=1 n=a4 v=82
433724 On ch=1 n=c5 v=0
433764 Par ch=1 c=64 v=0
433768 On ch=1 n=a4 v=0
433829 On ch=1 n=g5 v=106
433829 On ch=1 n=e6 v=94
433833 On ch=1 n=g6 v=101
433840 On ch=1 n=c6 v=99
433860 Par ch=1 c=64 v=127
434060 On ch=1 n=g6 v=0
434070 On ch=1 n=e6 v=0
434073 On ch=1 n=c6 v=0
434113 On ch=1 n=g5 v=0
434305 On ch=1 n=g2 v=81
434317 On ch=1 n=g3 v=78
434350 On ch=1 n=g3 v=0
434350 On ch=1 n=g2 v=0
434444 On ch=1 n=a3 v=86
434454 On ch=1 n=a2 v=82
434485 On ch=1 n=a3 v=0
434489 On ch=1 n=a2 v=0
434564 On ch=1 n=b3 v=89
434570 On ch=1 n=b2 v=80
434606 On ch=1 n=b3 v=0
434614 On ch=1 n=b2 v=0
434681 On ch=1 n=g5 v=89
434684 On ch=1 n=b5 v=91
434686 On ch=1 n=b4 v=96
434686 On ch=1 n=e5 v=91
434694 On ch=1 n=c4 v=92
434705 On ch=1 n=c3 v=78
434724 On ch=1 n=c3 v=0
434734 Par ch=1 c=64 v=0
434745 On ch=1 n=c4 v=0
434817 On ch=1 n=d4 v=90
434817 On ch=1 n=d3 v=75
434845 On ch=1 n=d3 v=0
434845 On ch=1 n=d4 v=0
434925 On ch=1 n=e4 v=89
434925 On ch=1 n=e3 v=76
434965 On ch=1 n=e4 v=0
434969 On ch=1 n=e3 v=0
435041 On ch=1 n=f3 v=84
435051 On ch=1 n=f4 v=66
435055 On ch=1 n=b4 v=0
435058 On ch=1 n=e5 v=0
435074 On ch=1 n=f4 v=0
435074 On ch=1 n=f3 v=0
435086 On ch=1 n=b5 v=0
435086 On ch=1 n=g5 v=0
435101 Par ch=1 c=64 v=127
435158 On ch=1 n=f#4 v=90
435162 On ch=1 n=f#3 v=85
435207 On ch=1 n=f#3 v=0
435222 On ch=1 n=f#4 v=0
435270 On ch=1 n=g4 v=82
435270 On ch=1 n=g3 v=86
435287 Par ch=1 c=64 v=0
435310 On ch=1 n=e5 v=81
435310 On ch=1 n=c5 v=79
435314 On ch=1 n=c6 v=76
435321 On ch=1 n=g4 v=0
435331 On ch=1 n=e5 v=0
435331 On ch=1 n=g3 v=0
435339 On ch=1 n=c6 v=0
435339 On ch=1 n=c5 v=0
435424 On ch=1 n=a3 v=100
435431 On ch=1 n=a4 v=102
435431 On ch=1 n=f4 v=103
435435 On ch=1 n=g5 v=97
435435 On ch=1 n=g6 v=115
435439 On ch=1 n=c6 v=94
435487 Par ch=1 c=64 v=127
435551 On ch=1 n=c6 v=0
435615 On ch=1 n=g5 v=0
435631 On ch=1 n=a3 v=0
435641 On ch=1 n=f4 v=0
435664 On ch=1 n=a4 v=0
435680 On ch=1 n=f6 v=72
435728 On ch=1 n=c6 v=76
435768 On ch=1 n=f6 v=0
435805 On ch=1 n=a5 v=72
435809 On ch=1 n=g6 v=0
435816 On ch=1 n=c6 v=0
435844 On ch=1 n=a5 v=0
435876 On ch=1 n=g5 v=67
435936 On ch=1 n=g5 v=0
435944 On ch=1 n=f5 v=78
436001 On ch=1 n=c5 v=74
436040 On ch=1 n=f5 v=0
436072 On ch=1 n=a4 v=72
436101 Par ch=1 c=64 v=0
436112 On ch=1 n=c5 v=0
436131 On ch=1 n=a4 v=0
436192 On ch=1 n=g5 v=85
436202 Par ch=1 c=64 v=127
436249 On ch=1 n=f5 v=74
436322 On ch=1 n=c5 v=81
436365 On ch=1 n=g5 v=0
436393 On ch=1 n=f5 v=0
436409 On ch=1 n=a4 v=82
436469 On ch=1 n=c5 v=0
436498 On ch=1 n=a4 v=0
436502 On ch=1 n=g4 v=71
436565 On ch=1 n=f4 v=73
436605 On ch=1 n=g4 v=0
436622 Par ch=1 c=64 v=0
436629 On ch=1 n=c4 v=66
436678 On ch=1 n=f4 v=0
436701 On ch=1 n=a3 v=80
436749 On ch=1 n=c4 v=0
436781 On ch=1 n=a3 v=0
436901 On ch=1 n=g4 v=86
436905 On ch=1 n=c4 v=72
436905 On ch=1 n=e4 v=67
436909 Par ch=1 c=67 v=0
437069 Par ch=1 c=67 v=127
437129 On ch=1 n=g3 v=58
437138 Par ch=1 c=64 v=127
437145 On ch=1 n=c4 v=0
437145 On ch=1 n=g4 v=0
437172 On ch=1 n=e4 v=0
437189 On ch=1 n=g3 v=0
437272 Par ch=1 c=64 v=0
437305 On ch=1 n=d#4 v=68
437312 On ch=1 n=a4 v=75
437312 On ch=1 n=c4 v=59
437450 Par ch=1 c=64 v=127
437479 On ch=1 n=f#3 v=58
437498 On ch=1 n=d#4 v=0
437508 On ch=1 n=c4 v=0
437547 On ch=1 n=a4 v=0
437548 Par ch=1 c=64 v=0
437551 On ch=1 n=f#3 v=0
437659 On ch=1 n=b4 v=73
437659 On ch=1 n=g#4 v=68
437667 On ch=1 n=d4 v=65
437739 Par ch=1 c=64 v=127
437819 On ch=1 n=f3 v=58
437906 On ch=1 n=b4 v=0
437906 Par ch=1 c=64 v=0
437908 On ch=1 n=d4 v=0
437919 On ch=1 n=f3 v=0
437919 On ch=1 n=g#4 v=0
438019 On ch=1 n=g4 v=70
438027 On ch=1 n=c5 v=71
438032 On ch=1 n=e4 v=63
438128 Par ch=1 c=64 v=127
438206 On ch=1 n=e3 v=55
438220 On ch=1 n=g3 v=41
438239 On ch=1 n=e4 v=0
438266 On ch=1 n=c5 v=0
438266 On ch=1 n=g4 v=0
438276 On ch=1 n=e3 v=0
438280 Par ch=1 c=64 v=0
438284 On ch=1 n=g3 v=0
438360 On ch=1 n=d5 v=71
438365 On ch=1 n=f4 v=66
438377 On ch=1 n=b4 v=69
438476 Par ch=1 c=64 v=127
438536 On ch=1 n=d3 v=43
438545 On ch=1 n=g3 v=42
438576 On ch=1 n=f4 v=0
438605 On ch=1 n=b4 v=0
438605 On ch=1 n=d5 v=0
438624 On ch=1 n=d3 v=0
438657 Par ch=1 c=64 v=0
438665 On ch=1 n=g3 v=0
438716 On ch=1 n=e5 v=71
438723 On ch=1 n=c5 v=67
438733 On ch=1 n=g4 v=59
438842 Par ch=1 c=64 v=127
438889 On ch=1 n=g3 v=45
438901 On ch=1 n=c3 v=53
438921 On ch=1 n=c5 v=0
438933 On ch=1 n=e5 v=0
438962 On ch=1 n=c3 v=0
438977 On ch=1 n=g3 v=0
438977 On ch=1 n=g4 v=0
439037 Par ch=1 c=64 v=0
439070 On ch=1 n=f5 v=72
439082 On ch=1 n=c5 v=66
439082 On ch=1 n=g4 v=67
439201 On ch=1 n=f5 v=0
439202 On ch=1 n=a2 v=55
439206 Par ch=1 c=64 v=127
439233 On ch=1 n=g3 v=36
439262 On ch=1 n=g4 v=0
439277 On ch=1 n=a2 v=0
439293 On ch=1 n=c5 v=0
439305 On ch=1 n=g3 v=0
439366 Par ch=1 c=64 v=0
439394 On ch=1 n=c5 v=57
439397 On ch=1 n=f#5 v=75
439401 On ch=1 n=g4 v=66
439513 Par ch=1 c=64 v=127
439540 On ch=1 n=c5 v=0
439557 On ch=1 n=g4 v=0
439557 On ch=1 n=g#2 v=68
439557 On ch=1 n=g3 v=60
439589 On ch=1 n=f#5 v=0
439713 On ch=1 n=g#2 v=0
439722 On ch=1 n=g3 v=0
439737 On ch=1 n=g4 v=77
439737 On ch=1 n=g5 v=74
439737 On ch=1 n=c5 v=76
439741 On ch=1 n=e5 v=66
439833 On ch=1 n=c5 v=0
439840 On ch=1 n=e5 v=0
439849 On ch=1 n=g5 v=0
439882 On ch=1 n=g4 v=0
439897 On ch=1 n=g3 v=68
439906 On ch=1 n=g2 v=67
440037 Par ch=1 c=64 v=0
440047 On ch=1 n=g3 v=0
440051 On ch=1 n=g2 v=0
440074 On ch=1 n=c5 v=85
440074 On ch=1 n=g5 v=79
440078 On ch=1 n=e5 v=81
440078 On ch=1 n=c6 v=81
440143 On ch=1 n=e5 v=0
440151 On ch=1 n=c5 v=0
440163 On ch=1 n=c6 v=0
440167 Par ch=1 c=64 v=127
440178 On ch=1 n=g5 v=0
440227 On ch=1 n=g3 v=74
440238 On ch=1 n=g2 v=79
440414 On ch=1 n=g5 v=91
440422 On ch=1 n=e5 v=89
440426 On ch=1 n=e6 v=86
440430 On ch=1 n=c6 v=73
440446 On ch=1 n=g2 v=0
440470 On ch=1 n=g3 v=0
440538 On ch=1 n=e5 v=0
440550 On ch=1 n=e6 v=0
440550 On ch=1 n=g5 v=0
440566 On ch=1 n=g2 v=79
440566 On ch=1 n=g3 v=78
440576 On ch=1 n=c6 v=0
440731 Par ch=1 c=64 v=0
440747 On ch=1 n=g2 v=0
440747 On ch=1 n=e6 v=80
440747 On ch=1 n=g6 v=87
440747 On ch=1 n=g5 v=91
440751 On ch=1 n=c6 v=87
440767 On ch=1 n=g3 v=0
440863 Par ch=1 c=64 v=127
440867 On ch=1 n=g5 v=0
440871 On ch=1 n=e6 v=0
440876 On ch=1 n=c6 v=0
440876 On ch=1 n=g6 v=0
440903 On ch=1 n=g3 v=86
440903 On ch=1 n=g2 v=89
441071 On ch=1 n=g6 v=87
441071 On ch=1 n=c6 v=91
441071 On ch=1 n=e6 v=88
441080 On ch=1 n=c7 v=87
441087 On ch=1 n=g3 v=0
441104 On ch=1 n=g2 v=0
441191 On ch=1 n=c6 v=0
441203 On ch=1 n=g6 v=0
441207 On ch=1 n=c7 v=0
441207 On ch=1 n=e6 v=0
441224 On ch=1 n=g3 v=90
441224 On ch=1 n=g2 v=94
441388 Par ch=1 c=64 v=0
441391 On ch=1 n=c7 v=87
441396 On ch=1 n=g6 v=91
441400 On ch=1 n=e6 v=94
441400 On ch=1 n=e7 v=88
441419 On ch=1 n=g3 v=0
441427 On ch=1 n=g2 v=0
441520 On ch=1 n=e6 v=0
441520 Par ch=1 c=64 v=127
441523 On ch=1 n=g6 v=0
441523 On ch=1 n=c7 v=0
441535 On ch=1 n=e7 v=0
441551 On ch=1 n=e3 v=90
441560 On ch=1 n=g3 v=88
441560 On ch=1 n=g2 v=91
441727 On ch=1 n=e7 v=70
441727 On ch=1 n=g6 v=88
441731 On ch=1 n=g7 v=91
441731 On ch=1 n=c7 v=83
441756 On ch=1 n=g3 v=0
441771 On ch=1 n=g2 v=0
441771 On ch=1 n=e3 v=0
441851 On ch=1 n=g6 v=0
441876 On ch=1 n=c7 v=0
441876 On ch=1 n=g7 v=0
441880 On ch=1 n=g3 v=86
441887 On ch=1 n=c3 v=85
441891 On ch=1 n=g2 v=87
441907 On ch=1 n=e7 v=0
442036 On ch=1 n=g2 v=0
442036 On ch=1 n=g3 v=0
442051 On ch=1 n=c3 v=0
442071 On ch=1 n=c7 v=91
442071 On ch=1 n=e7 v=88
442080 On ch=1 n=a7 v=90
442080 On ch=1 n=a6 v=90
442167 On ch=1 n=a6 v=0
442203 On ch=1 n=c7 v=0
442213 On ch=1 n=e7 v=0
442220 On ch=1 n=g3 v=88
442224 On ch=1 n=g2 v=87
442232 On ch=1 n=a7 v=0
442304 On ch=1 n=g2 v=0
442304 On ch=1 n=g3 v=0
442396 Par ch=1 c=64 v=0
442460 On ch=1 n=b7 v=107
442460 On ch=1 n=b6 v=104
442464 On ch=1 n=d#7 v=98
442471 On ch=1 n=f#2 v=95
442473 On ch=1 n=f#3 v=96
442547 Par ch=1 c=64 v=127
442585 On ch=1 n=f#3 v=0
442585 On ch=1 n=f#2 v=0
442665 On ch=1 n=b7 v=0
442693 On ch=1 n=d#7 v=0
442708 On ch=1 n=b6 v=0
442913 On ch=1 n=f#3 v=78
442913 On ch=1 n=f#4 v=75
442944 On ch=1 n=f#3 v=0
442951 On ch=1 n=f#4 v=0
443020 Par ch=1 c=64 v=0
443052 On ch=1 n=g#4 v=86
443052 On ch=1 n=g#3 v=74
443067 On ch=1 n=g#4 v=0
443093 On ch=1 n=g#3 v=0
443153 On ch=1 n=a#4 v=91
443156 On ch=1 n=a#3 v=79
443200 On ch=1 n=a#3 v=0
443217 On ch=1 n=a#4 v=0
443284 On ch=1 n=f6 v=83
443291 On ch=1 n=d7 v=83
443293 On ch=1 n=g#6 v=82
443293 On ch=1 n=d6 v=84
443293 On ch=1 n=b3 v=91
443297 On ch=1 n=b4 v=93
443333 On ch=1 n=b4 v=0
443333 On ch=1 n=b3 v=0
443408 Par ch=1 c=64 v=127
443408 On ch=1 n=c#5 v=88
443424 On ch=1 n=c#4 v=67
443441 On ch=1 n=c#5 v=0
443452 On ch=1 n=c#4 v=0
443488 On ch=1 n=d6 v=0
443500 On ch=1 n=d7 v=0
443504 On ch=1 n=f6 v=0
443525 On ch=1 n=d#5 v=87
443532 On ch=1 n=d#4 v=74
443544 On ch=1 n=g#6 v=0
443564 On ch=1 n=d#4 v=0
443580 On ch=1 n=d#5 v=0
443641 On ch=1 n=e5 v=85
443648 On ch=1 n=e4 v=83
443658 On ch=1 n=e5 v=0
443669 On ch=1 n=e4 v=0
443749 On ch=1 n=f5 v=98
443750 On ch=1 n=f4 v=87
443781 On ch=1 n=f4 v=0
443791 On ch=1 n=f5 v=0
443838 On ch=1 n=f#5 v=87
443842 On ch=1 n=f#4 v=87
443867 On ch=1 n=f#5 v=0
443871 On ch=1 n=f#4 v=0
443882 On ch=1 n=d#6 v=86
443882 On ch=1 n=b6 v=78
443882 On ch=1 n=d#7 v=82
443906 On ch=1 n=d#6 v=0
443914 On ch=1 n=b6 v=0
443924 On ch=1 n=d#7 v=0
443979 On ch=1 n=f#7 v=95
443979 On ch=1 n=f#6 v=97
443982 On ch=1 n=b5 v=99
443982 On ch=1 n=g#5 v=98
443992 On ch=1 n=b4 v=93
443995 On ch=1 n=b6 v=86
444152 On ch=1 n=b6 v=0
444183 On ch=1 n=f#6 v=0
444195 On ch=1 n=b4 v=0
444232 On ch=1 n=g#5 v=0
444232 On ch=1 n=b5 v=0
444232 On ch=1 n=e7 v=75
444292 On ch=1 n=b6 v=63
444348 On ch=1 n=f#7 v=0
444352 On ch=1 n=e7 v=0
444363 On ch=1 n=b6 v=0
444375 On ch=1 n=g#6 v=56
444399 On ch=1 n=g#6 v=0
444399 On ch=1 n=f#6 v=76
444439 On ch=1 n=e6 v=61
444491 On ch=1 n=f#6 v=0
444501 On ch=1 n=b5 v=71
444549 On ch=1 n=e6 v=0
444549 On ch=1 n=g#5 v=78
444592 On ch=1 n=b5 v=0
444613 On ch=1 n=g#5 v=0
444652 On ch=1 n=f#6 v=82
444739 On ch=1 n=e6 v=69
444839 On ch=1 n=b5 v=62
444861 Par ch=1 c=64 v=0
444889 On ch=1 n=g#5 v=80
444892 On ch=1 n=f#6 v=0
444969 On ch=1 n=f#5 v=76
444972 On ch=1 n=b5 v=0
444976 On ch=1 n=g#5 v=0
445000 On ch=1 n=e6 v=0
445028 On ch=1 n=e5 v=69
445028 Par ch=1 c=64 v=127
445076 On ch=1 n=f#5 v=0
445092 On ch=1 n=b4 v=68
445149 On ch=1 n=g#4 v=80
445156 On ch=1 n=e5 v=0
445180 On ch=1 n=b4 v=0
445232 On ch=1 n=g#4 v=0
445312 Par ch=1 c=64 v=0
445329 On ch=1 n=b5 v=112
445336 On ch=1 n=b6 v=104
445336 On ch=1 n=d#6 v=104
445500 Par ch=1 c=64 v=127
445561 On ch=1 n=b6 v=0
445579 On ch=1 n=d#6 v=0
445596 On ch=1 n=b5 v=0
445776 On ch=1 n=f#2 v=74
445781 On ch=1 n=f#3 v=72
445820 On ch=1 n=f#3 v=0
445825 On ch=1 n=f#2 v=0
445852 Par ch=1 c=64 v=0
445885 On ch=1 n=g#3 v=82
445896 On ch=1 n=g#2 v=72
445925 On ch=1 n=g#3 v=0
445932 On ch=1 n=g#2 v=0
446009 On ch=1 n=a#3 v=85
446012 On ch=1 n=a#2 v=75
446035 On ch=1 n=a#3 v=0
446052 On ch=1 n=a#2 v=0
446141 On ch=1 n=d6 v=84
446141 On ch=1 n=f5 v=86
446141 On ch=1 n=g#5 v=86
446145 On ch=1 n=d5 v=87
446145 On ch=1 n=b3 v=93
446145 On ch=1 n=b2 v=84
446189 On ch=1 n=b2 v=0
446189 On ch=1 n=b3 v=0
446261 On ch=1 n=c#4 v=90
446261 On ch=1 n=c#3 v=77
446295 On ch=1 n=c#4 v=0
446312 On ch=1 n=c#3 v=0
446316 Par ch=1 c=64 v=127
446356 On ch=1 n=d5 v=0
446372 On ch=1 n=f5 v=0
446375 On ch=1 n=d#4 v=86
446381 On ch=1 n=d6 v=0
446396 On ch=1 n=d#3 v=63
446399 On ch=1 n=g#5 v=0
446413 Par ch=1 c=64 v=0
446432 On ch=1 n=d#3 v=0
446432 On ch=1 n=d#4 v=0
446476 On ch=1 n=e4 v=85
446476 On ch=1 n=e3 v=84
446504 On ch=1 n=e4 v=0
446519 Par ch=1 c=64 v=127
446529 On ch=1 n=e3 v=0
446601 On ch=1 n=f4 v=89
446601 On ch=1 n=f3 v=77
446636 On ch=1 n=f3 v=0
446648 On ch=1 n=f4 v=0
446696 On ch=1 n=f#4 v=79
446696 On ch=1 n=f#3 v=88
446724 On ch=1 n=f#3 v=0
446724 On ch=1 n=f#4 v=0
446739 On ch=1 n=b5 v=79
446739 On ch=1 n=d#5 v=83
446745 On ch=1 n=d#6 v=74
446772 On ch=1 n=d#5 v=0
446772 On ch=1 n=b5 v=0
446776 On ch=1 n=d#6 v=0
446819 Par ch=1 c=64 v=0
446836 On ch=1 n=f#6 v=100
446848 On ch=1 n=g#4 v=98
446848 On ch=1 n=f#5 v=98
446852 On ch=1 n=b4 v=96
446852 On ch=1 n=b3 v=91
446856 On ch=1 n=b5 v=87
447021 On ch=1 n=b5 v=0
447068 On ch=1 n=b3 v=0
447068 On ch=1 n=f#5 v=0
447078 On ch=1 n=e6 v=70
447093 Par ch=1 c=64 v=127
447105 On ch=1 n=b4 v=0
447105 On ch=1 n=g#4 v=0
447138 On ch=1 n=b5 v=78
447178 On ch=1 n=f#6 v=0
447197 On ch=1 n=e6 v=0
447216 On ch=1 n=g#5 v=72
447226 On ch=1 n=b5 v=0
447249 On ch=1 n=g#5 v=0
447259 On ch=1 n=f#5 v=75
447306 On ch=1 n=e5 v=63
447350 On ch=1 n=f#5 v=0
447366 On ch=1 n=b4 v=62
447419 On ch=1 n=g#4 v=84
447475 On ch=1 n=b4 v=0
447475 On ch=1 n=e5 v=0
447490 On ch=1 n=g#4 v=0
447534 On ch=1 n=f#5 v=88
447594 On ch=1 n=e5 v=71
447630 Par ch=1 c=64 v=0
447690 On ch=1 n=b4 v=76
447766 On ch=1 n=g#4 v=82
447822 On ch=1 n=f#5 v=0
447826 On ch=1 n=e5 v=0
447834 On ch=1 n=b4 v=0
447839 On ch=1 n=f#4 v=69
447843 On ch=1 n=g#4 v=0
447886 On ch=1 n=e4 v=71
447893 Par ch=1 c=64 v=127
447946 On ch=1 n=b3 v=64
447950 On ch=1 n=f#4 v=0
448009 On ch=1 n=e4 v=0
448026 On ch=1 n=g#3 v=78
448054 On ch=1 n=b3 v=0
448106 On ch=1 n=g#3 v=0
448210 On ch=1 n=f#4 v=82
448218 On ch=1 n=a3 v=80
448218 On ch=1 n=d#4 v=77
448243 On ch=1 n=b3 v=65
448274 Par ch=1 c=64 v=0
448383 On ch=1 n=a3 v=0
448386 On ch=1 n=b3 v=0
448406 On ch=1 n=f#3 v=65
448430 On ch=1 n=d#4 v=0
448475 On ch=1 n=f#3 v=0
448479 Par ch=1 c=64 v=127
448542 Par ch=1 c=64 v=0
448570 On ch=1 n=d4 v=74
448570 On ch=1 n=b3 v=78
448575 On ch=1 n=g#4 v=78
448582 On ch=1 n=f#4 v=0
448690 Par ch=1 c=64 v=127
448702 On ch=1 n=d4 v=0
448712 On ch=1 n=b3 v=0
448712 On ch=1 n=f3 v=65
448727 On ch=1 n=g#4 v=0
448727 On ch=1 n=f#3 v=61
448820 On ch=1 n=f#3 v=0
448832 Par ch=1 c=64 v=0
448883 On ch=1 n=f#4 v=76
448883 On ch=1 n=c#4 v=77
448892 On ch=1 n=a#4 v=77
448923 On ch=1 n=f3 v=0
449011 Par ch=1 c=64 v=127
449027 On ch=1 n=c#4 v=0
449037 On ch=1 n=e3 v=68
449041 On ch=1 n=a#4 v=0
449056 On ch=1 n=f#4 v=0
449056 On ch=1 n=f#3 v=46
449117 On ch=1 n=e3 v=0
449128 On ch=1 n=f#3 v=0
449140 Par ch=1 c=64 v=0
449220 On ch=1 n=b4 v=80
449220 On ch=1 n=f#4 v=75
449223 On ch=1 n=d#4 v=77
449320 Par ch=1 c=64 v=127
449368 On ch=1 n=d#4 v=0
449368 On ch=1 n=f#4 v=0
449368 On ch=1 n=b4 v=0
449380 On ch=1 n=d#3 v=70
449384 On ch=1 n=f#3 v=62
449460 On ch=1 n=d#3 v=0
449489 On ch=1 n=f#3 v=0
449504 Par ch=1 c=64 v=0
449568 On ch=1 n=a#4 v=76
449568 On ch=1 n=c#5 v=78
449568 On ch=1 n=e4 v=73
449680 Par ch=1 c=64 v=127
449700 On ch=1 n=a#4 v=0
449709 On ch=1 n=e4 v=0
449709 On ch=1 n=c#5 v=0
449720 On ch=1 n=f#3 v=60
449724 On ch=1 n=c#3 v=64
449812 On ch=1 n=c#3 v=0
449847 Par ch=1 c=64 v=0
449887 On ch=1 n=b4 v=75
449887 On ch=1 n=f#4 v=73
449893 On ch=1 n=d#5 v=74
449924 On ch=1 n=f#3 v=0
450013 On ch=1 n=b4 v=0
450024 Par ch=1 c=64 v=127
450057 On ch=1 n=f#3 v=51
450057 On ch=1 n=b2 v=58
450061 On ch=1 n=f#4 v=0
450069 On ch=1 n=d#5 v=0
450144 On ch=1 n=b2 v=0
450200 Par ch=1 c=64 v=0
450224 On ch=1 n=f#3 v=0
450229 On ch=1 n=c#5 v=66
450240 On ch=1 n=e5 v=70
450240 On ch=1 n=g4 v=67
450389 On ch=1 n=c#5 v=0
450392 On ch=1 n=g4 v=0
450392 Par ch=1 c=64 v=127
450392 On ch=1 n=f#3 v=50
450396 On ch=1 n=a#2 v=54
450413 On ch=1 n=e5 v=0
450480 On ch=1 n=a#2 v=0
450484 On ch=1 n=f#3 v=0
450577 Par ch=1 c=64 v=0
450592 On ch=1 n=d5 v=57
450600 On ch=1 n=f5 v=59
450600 On ch=1 n=b4 v=63
450720 On ch=1 n=b4 v=0
450728 On ch=1 n=f#3 v=47
450733 On ch=1 n=f5 v=0
450736 On ch=1 n=d5 v=0
450736 Par ch=1 c=64 v=127
450736 On ch=1 n=g#2 v=53
450833 On ch=1 n=g#2 v=0
450856 On ch=1 n=f#3 v=0
450900 Par ch=1 c=64 v=0
450917 On ch=1 n=d#5 v=63
450917 On ch=1 n=b4 v=61
450917 On ch=1 n=f#4 v=63
450917 On ch=1 n=f#5 v=62
450996 On ch=1 n=f#4 v=0
451008 On ch=1 n=b4 v=0
451028 On ch=1 n=f#5 v=0
451037 Par ch=1 c=64 v=127
451040 On ch=1 n=d#5 v=0
451052 On ch=1 n=f#3 v=58
451064 On ch=1 n=f#2 v=61
451200 On ch=1 n=f#2 v=0
451200 On ch=1 n=f#3 v=0
451229 On ch=1 n=f#5 v=76
451229 On ch=1 n=b5 v=75
451233 On ch=1 n=b4 v=76
451237 On ch=1 n=d#5 v=71
451332 On ch=1 n=f#5 v=0
451336 On ch=1 n=b4 v=0
451336 On ch=1 n=b5 v=0
451347 On ch=1 n=d#5 v=0
451397 On ch=1 n=f#3 v=66
451397 On ch=1 n=f#2 v=64
451484 On ch=1 n=f#3 v=0
451500 On ch=1 n=f#2 v=0
451544 On ch=1 n=d#5 v=83
451544 On ch=1 n=f#5 v=88
451553 On ch=1 n=b5 v=78
451560 On ch=1 n=d#6 v=84
451649 On ch=1 n=f#5 v=0
451653 On ch=1 n=d#5 v=0
451664 On ch=1 n=b5 v=0
451681 On ch=1 n=d#6 v=0
451712 On ch=1 n=f#3 v=72
451716 On ch=1 n=f#2 v=75
451816 On ch=1 n=f#3 v=0
451856 On ch=1 n=f#2 v=0
451867 On ch=1 n=d#6 v=78
451867 On ch=1 n=f#5 v=88
451877 On ch=1 n=f#6 v=84
451877 On ch=1 n=b5 v=85
451987 On ch=1 n=b5 v=0
451989 On ch=1 n=f#6 v=0
451993 On ch=1 n=f#5 v=0
452000 On ch=1 n=d#6 v=0
452036 On ch=1 n=f#2 v=78
452036 On ch=1 n=f#3 v=76
452173 On ch=1 n=f#6 v=88
452177 On ch=1 n=d#6 v=92
452177 On ch=1 n=b5 v=93
452177 On ch=1 n=b6 v=88
452188 On ch=1 n=f#3 v=0
452192 On ch=1 n=f#2 v=0
452293 On ch=1 n=b6 v=0
452296 On ch=1 n=f#6 v=0
452300 On ch=1 n=d#6 v=0
452304 On ch=1 n=b5 v=0
452340 On ch=1 n=f#2 v=92
452348 On ch=1 n=f#3 v=96
452480 On ch=1 n=f#2 v=0
452509 On ch=1 n=d#6 v=92
452509 On ch=1 n=f#6 v=88
452509 On ch=1 n=d#7 v=88
452513 On ch=1 n=b6 v=77
452548 On ch=1 n=f#3 v=0
452624 On ch=1 n=b6 v=0
452624 On ch=1 n=f#6 v=0
452628 On ch=1 n=d#7 v=0
452636 On ch=1 n=d#6 v=0
452660 On ch=1 n=d#3 v=70
452660 On ch=1 n=f#3 v=89
452660 On ch=1 n=f#2 v=84
452837 On ch=1 n=f#6 v=94
452837 On ch=1 n=b6 v=78
452844 On ch=1 n=d#7 v=80
452844 On ch=1 n=f#7 v=88
452909 On ch=1 n=f#2 v=0
452909 On ch=1 n=f#3 v=0
452924 On ch=1 n=d#3 v=0
452960 Par ch=1 c=64 v=0
452968 On ch=1 n=f#6 v=0
452984 On ch=1 n=b6 v=0
452987 On ch=1 n=d#7 v=0
453004 On ch=1 n=f#7 v=0
453004 On ch=1 n=f#3 v=87
453008 On ch=1 n=b2 v=76
453016 On ch=1 n=f#2 v=88
453137 On ch=1 n=b2 v=0
453137 On ch=1 n=f#3 v=0
453160 On ch=1 n=f#2 v=0
453167 On ch=1 n=b6 v=84
453167 On ch=1 n=d#7 v=80
453173 On ch=1 n=g#6 v=90
453180 On ch=1 n=g#7 v=90
453304 On ch=1 n=g#6 v=0
453304 On ch=1 n=d#7 v=0
453308 On ch=1 n=b6 v=0
453329 On ch=1 n=f#3 v=91
453329 On ch=1 n=f#2 v=88
453333 On ch=1 n=g#7 v=0
453404 On ch=1 n=f#2 v=0
453404 On ch=1 n=f#3 v=0
453513 On ch=1 n=f2 v=110
453513 On ch=1 n=f3 v=115
453521 On ch=1 n=a6 v=84
453569 Par ch=1 c=64 v=127
453629 On ch=1 n=a6 v=0
453644 On ch=1 n=f3 v=0
453644 On ch=1 n=f2 v=0
453644 On ch=1 n=c7 v=76
453704 On ch=1 n=c7 v=0
453720 On ch=1 n=a7 v=120
453764 On ch=1 n=d#7 v=110
453843 On ch=1 n=c7 v=78
453860 On ch=1 n=c4 v=127
453860 On ch=1 n=c5 v=127
453896 On ch=1 n=a7 v=0
453896 Par ch=1 c=64 v=0
453908 On ch=1 n=c5 v=0
453909 On ch=1 n=c4 v=0
453909 On ch=1 n=d#7 v=0
453924 On ch=1 n=c7 v=0
453924 On ch=1 n=a6 v=74
453944 On ch=1 n=a6 v=0
454049 On ch=1 n=f#6 v=69
454120 On ch=1 n=d#6 v=71
454184 On ch=1 n=c6 v=70
454224 On ch=1 n=c6 v=0
454224 On ch=1 n=f#6 v=0
454229 On ch=1 n=d#4 v=115
454229 On ch=1 n=d#3 v=111
454236 On ch=1 n=d#6 v=0
454257 On ch=1 n=a5 v=80
454280 Par ch=1 c=64 v=127
454327 On ch=1 n=a5 v=0
454352 On ch=1 n=c6 v=56
454396 On ch=1 n=c6 v=0
454406 On ch=1 n=a6 v=78
454421 On ch=1 n=d#6 v=75
454510 On ch=1 n=d#4 v=0
454510 On ch=1 n=c6 v=74
454517 On ch=1 n=d#3 v=0
454550 On ch=1 n=a6 v=0
454565 On ch=1 n=d#6 v=0
454594 On ch=1 n=a5 v=76
454598 On ch=1 n=c6 v=0
454617 On ch=1 n=a5 v=0
454698 On ch=1 n=f#5 v=80
454698 On ch=1 n=e3 v=120
454713 On ch=1 n=e4 v=119
454757 On ch=1 n=e4 v=0
454757 Par ch=1 c=64 v=0
454761 On ch=1 n=e3 v=0
454773 On ch=1 n=d#5 v=75
454841 On ch=1 n=c5 v=79
454851 On ch=1 n=f#5 v=0
454882 On ch=1 n=g#4 v=116
454886 On ch=1 n=g#3 v=117
454886 Par ch=1 c=64 v=127
454894 On ch=1 n=d#5 v=0
454911 On ch=1 n=c5 v=0
454958 On ch=1 n=g#4 v=0
454961 On ch=1 n=g#3 v=0
454971 Par ch=1 c=64 v=0
454975 On ch=1 n=a4 v=72
455018 On ch=1 n=f#4 v=110
455027 On ch=1 n=f#3 v=110
455034 On ch=1 n=a4 v=0
455067 On ch=1 n=f#3 v=0
455067 On ch=1 n=f#4 v=0
455067 On ch=1 n=c5 v=79
455082 On ch=1 n=a5 v=73
455121 On ch=1 n=c5 v=0
455127 On ch=1 n=d#5 v=65
455158 On ch=1 n=a5 v=0
455167 On ch=1 n=d#5 v=0
455178 On ch=1 n=d#4 v=106
455182 On ch=1 n=d#3 v=100
455214 On ch=1 n=d#4 v=0
455223 On ch=1 n=d#3 v=0
455242 On ch=1 n=c5 v=74
455302 On ch=1 n=c5 v=0
455334 On ch=1 n=c4 v=112
455341 On ch=1 n=c3 v=113
455341 On ch=1 n=d#5 v=75
455341 On ch=1 n=c6 v=73
455371 On ch=1 n=c4 v=0
455383 On ch=1 n=c3 v=0
455394 On ch=1 n=f#5 v=75
455397 On ch=1 n=c6 v=0
455414 On ch=1 n=d#5 v=0
455450 On ch=1 n=f#5 v=0
455487 On ch=1 n=a3 v=118
455487 On ch=1 n=a2 v=112
455538 On ch=1 n=d#5 v=72
455546 On ch=1 n=a2 v=0
455546 On ch=1 n=a3 v=0
455561 On ch=1 n=d#6 v=65
455591 On ch=1 n=d#5 v=0
455602 On ch=1 n=f#5 v=64
455607 On ch=1 n=d#6 v=0
455634 On ch=1 n=g#3 v=112
455634 On ch=1 n=g#2 v=109
455634 On ch=1 n=c6 v=65
455667 On ch=1 n=f#5 v=0
455682 On ch=1 n=g#2 v=0
455690 On ch=1 n=g#3 v=0
455711 On ch=1 n=c6 v=0
455774 On ch=1 n=g3 v=115
455774 On ch=1 n=g2 v=104
455784 On ch=1 n=a5 v=76
455827 On ch=1 n=g3 v=0
455835 On ch=1 n=g2 v=0
455843 On ch=1 n=a5 v=0
455878 On ch=1 n=c6 v=56
455888 On ch=1 n=a6 v=58
455911 On ch=1 n=f#3 v=111
455921 On ch=1 n=f#2 v=118
455925 On ch=1 n=c6 v=0
455948 On ch=1 n=d#6 v=53
455955 On ch=1 n=a6 v=0
455965 On ch=1 n=d#6 v=0
455981 On ch=1 n=f#2 v=0
455981 On ch=1 n=f#3 v=0
456061 On ch=1 n=a#6 v=99
456072 On ch=1 n=f3 v=118
456072 On ch=1 n=f2 v=119
456098 Par ch=1 c=64 v=127
456113 On ch=1 n=c#7 v=68
456142 On ch=1 n=a#6 v=0
456172 On ch=1 n=a#7 v=120
456178 On ch=1 n=f3 v=0
456182 On ch=1 n=f2 v=0
456194 On ch=1 n=c#7 v=0
456225 On ch=1 n=f7 v=110
456314 On ch=1 n=c#7 v=78
456362 On ch=1 n=f7 v=0
456362 On ch=1 n=a#7 v=0
456389 On ch=1 n=a#6 v=77
456394 On ch=1 n=c#7 v=0
456398 On ch=1 n=c#4 v=127
456398 On ch=1 n=c#5 v=127
456405 On ch=1 n=a#6 v=0
456432 On ch=1 n=c#5 v=0
456432 Par ch=1 c=64 v=0
456449 On ch=1 n=c#4 v=0
456497 On ch=1 n=f#6 v=77
456553 On ch=1 n=f6 v=71
456634 On ch=1 n=c#6 v=81
456678 On ch=1 n=f#6 v=0
456682 On ch=1 n=f6 v=0
456709 On ch=1 n=c#6 v=0
456714 On ch=1 n=a#5 v=84
456722 On ch=1 n=e4 v=113
456722 On ch=1 n=e3 v=112
456785 Par ch=1 c=64 v=127
456785 On ch=1 n=c#6 v=72
456795 On ch=1 n=a#5 v=0
456866 On ch=1 n=c#6 v=0
456866 On ch=1 n=a#6 v=76
456878 On ch=1 n=f6 v=71
456966 On ch=1 n=c#6 v=78
456999 On ch=1 n=f6 v=0
457003 On ch=1 n=e3 v=0
457003 On ch=1 n=e4 v=0
457010 On ch=1 n=a#6 v=0
457030 On ch=1 n=a#5 v=78
457038 On ch=1 n=c#6 v=0
457063 On ch=1 n=a#5 v=0
457135 On ch=1 n=f#5 v=78
457183 On ch=1 n=f3 v=120
457186 On ch=1 n=f4 v=122
457194 On ch=1 n=f5 v=75
457242 On ch=1 n=f4 v=0
457251 On ch=1 n=f3 v=0
457282 On ch=1 n=c#5 v=78
457314 On ch=1 n=f5 v=0
457329 On ch=1 n=f#5 v=0
457346 On ch=1 n=g#3 v=123
457362 On ch=1 n=c#5 v=0
457362 On ch=1 n=g#4 v=124
457372 Par ch=1 c=64 v=0
457387 On ch=1 n=g#4 v=0
457412 On ch=1 n=g#3 v=0
457432 On ch=1 n=a#4 v=69
457487 On ch=1 n=c#5 v=67
457499 On ch=1 n=a#4 v=0
457506 On ch=1 n=f#4 v=93
457512 On ch=1 n=f#3 v=87
457539 On ch=1 n=f5 v=64
457548 On ch=1 n=a#5 v=70
457552 On ch=1 n=f#3 v=0
457552 On ch=1 n=f#4 v=0
457559 On ch=1 n=c#5 v=0
457583 On ch=1 n=f5 v=0
457593 On ch=1 n=a#5 v=0
457656 On ch=1 n=f4 v=91
457656 On ch=1 n=f3 v=92
457683 On ch=1 n=f4 v=0
457704 On ch=1 n=f3 v=0
457704 On ch=1 n=c#5 v=77
457736 On ch=1 n=f5 v=60
457744 On ch=1 n=c#5 v=0
457792 On ch=1 n=c#4 v=110
457796 On ch=1 n=c#3 v=110
457813 On ch=1 n=c#6 v=71
457813 On ch=1 n=a#5 v=66
457824 On ch=1 n=f5 v=0
457825 On ch=1 n=c#3 v=0
457839 On ch=1 n=c#4 v=0
457849 On ch=1 n=a#5 v=0
457873 On ch=1 n=c#6 v=0
457933 On ch=1 n=a#3 v=116
457942 On ch=1 n=a#2 v=115
457961 On ch=1 n=f5 v=74
457977 On ch=1 n=a#2 v=0
457994 On ch=1 n=a#3 v=0
458020 On ch=1 n=f5 v=0
458046 On ch=1 n=f6 v=78
458089 On ch=1 n=a#5 v=55
458100 On ch=1 n=a3 v=105
458100 On ch=1 n=a2 v=100
458126 On ch=1 n=a#5 v=0
458134 On ch=1 n=c#6 v=62
458141 On ch=1 n=a3 v=0
458146 On ch=1 n=a2 v=0
458146 On ch=1 n=f6 v=0
458173 On ch=1 n=c#6 v=0
458241 On ch=1 n=g#3 v=108
458241 On ch=1 n=g#2 v=101
458250 On ch=1 n=a#5 v=64
458282 On ch=1 n=g#2 v=0
458282 On ch=1 n=g#3 v=0
458309 On ch=1 n=a#5 v=0
458320 On ch=1 n=c#6 v=65
458326 On ch=1 n=a#6 v=65
458373 On ch=1 n=a#6 v=0
458373 On ch=1 n=c#6 v=0
458389 On ch=1 n=f#3 v=103
458389 On ch=1 n=f#2 v=105
458389 On ch=1 n=f6 v=52
458434 On ch=1 n=f6 v=0
458449 On ch=1 n=f#2 v=0
458449 On ch=1 n=f#3 v=0
458542 On ch=1 n=f2 v=107
458542 On ch=1 n=f3 v=101
458546 On ch=1 n=b6 v=86
458557 Par ch=1 c=64 v=127
458601 On ch=1 n=d7 v=71
458616 On ch=1 n=b6 v=0
458646 On ch=1 n=f3 v=0
458646 On ch=1 n=f2 v=0
458661 On ch=1 n=d7 v=0
458677 On ch=1 n=b7 v=121
458720 On ch=1 n=g#7 v=110
458817 On ch=1 n=d7 v=72
458821 On ch=1 n=f#7 v=56
458857 On ch=1 n=f#7 v=0
458862 On ch=1 n=b7 v=0
458877 On ch=1 n=g#7 v=0
458877 On ch=1 n=d4 v=127
458889 On ch=1 n=d5 v=127
458893 On ch=1 n=b6 v=75
458901 On ch=1 n=d7 v=0
458905 Par ch=1 c=64 v=0
458916 On ch=1 n=d5 v=0
458922 On ch=1 n=b6 v=0
458926 On ch=1 n=d4 v=0
459030 On ch=1 n=g#6 v=72
459081 On ch=1 n=f6 v=73
459140 On ch=1 n=d6 v=67
459157 On ch=1 n=g#6 v=0
459189 On ch=1 n=f6 v=0
459213 On ch=1 n=d6 v=0
459213 On ch=1 n=f3 v=120
459220 On ch=1 n=f4 v=123
459220 On ch=1 n=b5 v=83
459297 On ch=1 n=b5 v=0
459317 Par ch=1 c=64 v=127
459317 On ch=1 n=d6 v=72
459333 On ch=1 n=b6 v=74
459360 On ch=1 n=d6 v=0
459377 On ch=1 n=g#6 v=72
459422 On ch=1 n=f#6 v=68
459461 On ch=1 n=f#6 v=0
459471 On ch=1 n=f3 v=0
459478 On ch=1 n=f4 v=0
459494 On ch=1 n=d6 v=65
459511 On ch=1 n=g#6 v=0
459511 On ch=1 n=b6 v=0
459537 On ch=1 n=d6 v=0
459537 On ch=1 n=b5 v=78
459570 On ch=1 n=b5 v=0
459657 On ch=1 n=g#5 v=75
459667 On ch=1 n=f#3 v=110
459671 On ch=1 n=f#4 v=102
459711 On ch=1 n=f#3 v=0
459715 On ch=1 n=f5 v=77
459727 On ch=1 n=f#4 v=0
459760 On ch=1 n=g#5 v=0
459791 On ch=1 n=d5 v=73
459834 On ch=1 n=f5 v=0
459840 On ch=1 n=a3 v=120
459847 On ch=1 n=a4 v=120
459867 On ch=1 n=d5 v=0
459899 Par ch=1 c=64 v=0
459920 On ch=1 n=a3 v=0
459924 On ch=1 n=a4 v=0
459931 On ch=1 n=b4 v=73
459980 On ch=1 n=b4 v=0
460003 On ch=1 n=g#4 v=100
460003 On ch=1 n=g#3 v=102
460014 On ch=1 n=d5 v=67
460036 On ch=1 n=g#3 v=0
460036 On ch=1 n=g#4 v=0
460040 On ch=1 n=b5 v=71
460075 On ch=1 n=f5 v=72
460091 On ch=1 n=d5 v=0
460111 On ch=1 n=b5 v=0
460121 On ch=1 n=f5 v=0
460132 On ch=1 n=f4 v=102
460144 On ch=1 n=f3 v=99
460173 On ch=1 n=f4 v=0
460188 On ch=1 n=f3 v=0
460237 On ch=1 n=c#5 v=60
460281 On ch=1 n=c#5 v=0
460292 On ch=1 n=c#4 v=100
460293 On ch=1 n=c#3 v=99
460297 On ch=1 n=f5 v=68
460325 On ch=1 n=c#3 v=0
460325 On ch=1 n=c#4 v=0
460332 On ch=1 n=c#6 v=79
460371 On ch=1 n=f5 v=0
460381 On ch=1 n=g#5 v=67
460428 On ch=1 n=c#6 v=0
460448 On ch=1 n=g#5 v=0
460464 On ch=1 n=c#5 v=119
460464 On ch=1 n=c#4 v=120
460508 Par ch=1 c=64 v=127
460524 On ch=1 n=d5 v=74
460561 On ch=1 n=c#4 v=0
460561 On ch=1 n=c#5 v=0
460573 On ch=1 n=d5 v=0
460604 On ch=1 n=f5 v=74
460604 On ch=1 n=d6 v=72
460611 On ch=1 n=b4 v=101
460621 On ch=1 n=b3 v=100
460644 On ch=1 n=b3 v=0
460644 On ch=1 n=b4 v=0
460661 Par ch=1 c=64 v=0
460664 On ch=1 n=f5 v=0
460673 On ch=1 n=g#5 v=65
460691 On ch=1 n=d6 v=0
460701 On ch=1 n=g#5 v=0
460750 On ch=1 n=g#4 v=100
460753 On ch=1 n=g#3 v=99
460797 On ch=1 n=g#3 v=0
460801 On ch=1 n=g#4 v=0
460811 On ch=1 n=e5 v=70
460867 On ch=1 n=e5 v=0
460882 On ch=1 n=e6 v=66
460886 On ch=1 n=g#5 v=71
460898 On ch=1 n=f4 v=99
460898 On ch=1 n=f3 v=98
460926 On ch=1 n=f4 v=0
460930 On ch=1 n=f3 v=0
460966 On ch=1 n=b5 v=81
460967 On ch=1 n=g#5 v=0
460981 On ch=1 n=e6 v=0
461022 On ch=1 n=b5 v=0
461066 On ch=1 n=e5 v=119
461071 On ch=1 n=e4 v=120
461087 Par ch=1 c=64 v=127
461118 On ch=1 n=f5 v=70
461147 On ch=1 n=e4 v=0
461147 On ch=1 n=e5 v=0
461178 On ch=1 n=f6 v=62
461194 On ch=1 n=f5 v=0
461205 On ch=1 n=g#5 v=75
461215 On ch=1 n=d4 v=90
461215 On ch=1 n=d5 v=90
461226 On ch=1 n=c5 v=81
461242 On ch=1 n=d5 v=0
461252 On ch=1 n=c5 v=0
461252 Par ch=1 c=64 v=0
461255 On ch=1 n=d4 v=0
461259 On ch=1 n=b5 v=81
461264 On ch=1 n=g#5 v=0
461264 On ch=1 n=f6 v=0
461291 On ch=1 n=b5 v=0
461356 On ch=1 n=b4 v=88
461356 On ch=1 n=b3 v=85
461399 On ch=1 n=b3 v=0
461399 On ch=1 n=b4 v=0
461415 On ch=1 n=f#5 v=69
461491 On ch=1 n=f#5 v=0
461498 On ch=1 n=g#3 v=84
461502 On ch=1 n=g#4 v=93
461511 On ch=1 n=f#6 v=68
461511 On ch=1 n=b5 v=72
461527 On ch=1 n=g#3 v=0
461552 On ch=1 n=g#4 v=0
461555 On ch=1 n=d6 v=61
461579 On ch=1 n=b5 v=0
461579 Par ch=1 c=64 v=127
461615 On ch=1 n=d6 v=0
461618 On ch=1 n=f#6 v=0
461671 On ch=1 n=f#5 v=111
461683 On ch=1 n=f#4 v=116
461715 On ch=1 n=g#5 v=75
461758 On ch=1 n=f#4 v=0
461758 On ch=1 n=f#5 v=0
461768 On ch=1 n=g#6 v=50
461788 On ch=1 n=g#5 v=0
461799 On ch=1 n=b5 v=68
461801 On ch=1 n=f4 v=79
461820 On ch=1 n=d6 v=64
461828 On ch=1 n=b5 v=0
461832 On ch=1 n=g#6 v=0
461861 On ch=1 n=f4 v=0
461880 On ch=1 n=d6 v=0
461964 On ch=1 n=d5 v=91
461964 On ch=1 n=d4 v=90
461968 Par ch=1 c=64 v=0
461996 On ch=1 n=a5 v=66
462000 On ch=1 n=d4 v=0
462008 On ch=1 n=d5 v=0
462036 On ch=1 n=a5 v=0
462052 On ch=1 n=a6 v=71
462080 On ch=1 n=d6 v=77
462096 On ch=1 n=b4 v=99
462100 On ch=1 n=b3 v=90
462132 On ch=1 n=b3 v=0
462136 On ch=1 n=b4 v=0
462141 Par ch=1 c=64 v=127
462156 On ch=1 n=d6 v=0
462156 On ch=1 n=f6 v=73
462160 On ch=1 n=a6 v=0
462176 On ch=1 n=f6 v=0
462205 Par ch=1 c=64 v=0
462252 On ch=1 n=a5 v=111
462261 On ch=1 n=a4 v=113
462320 On ch=1 n=b5 v=75
462329 On ch=1 n=a5 v=0
462341 On ch=1 n=a4 v=0
462352 Par ch=1 c=64 v=127
462372 On ch=1 n=b5 v=0
462382 On ch=1 n=d6 v=78
462393 On ch=1 n=b6 v=72
462409 On ch=1 n=g#4 v=99
462409 On ch=1 n=g#5 v=86
462438 On ch=1 n=g#4 v=0
462442 On ch=1 n=g#5 v=0
462445 On ch=1 n=d6 v=0
462453 On ch=1 n=f6 v=71
462489 On ch=1 n=b6 v=0
462493 On ch=1 n=f6 v=0
462550 Par ch=1 c=64 v=0
462550 On ch=1 n=c#6 v=110
462561 On ch=1 n=c#5 v=119
462598 On ch=1 n=d6 v=75
462622 On ch=1 n=c#6 v=0
462637 On ch=1 n=c#5 v=0
462645 On ch=1 n=d6 v=0
462677 On ch=1 n=f6 v=87
462697 Par ch=1 c=64 v=127
462702 On ch=1 n=d7 v=79
462705 On ch=1 n=b5 v=96
462705 On ch=1 n=b4 v=86
462733 On ch=1 n=b4 v=0
462745 On ch=1 n=b5 v=0
462745 On ch=1 n=f6 v=0
462756 On ch=1 n=g#6 v=68
462789 On ch=1 n=g#6 v=0
462793 On ch=1 n=d7 v=0
462842 On ch=1 n=e6 v=110
462853 On ch=1 n=e5 v=100
462898 On ch=1 n=f6 v=76
462922 On ch=1 n=e6 v=0
462941 On ch=1 n=e5 v=0
462969 On ch=1 n=f6 v=0
462989 On ch=1 n=f7 v=74
462989 On ch=1 n=g#6 v=82
462993 On ch=1 n=d6 v=90
463001 On ch=1 n=d5 v=92
463016 On ch=1 n=d5 v=0
463037 On ch=1 n=d6 v=0
463053 On ch=1 n=b6 v=80
463056 On ch=1 n=g#6 v=0
463056 On ch=1 n=f7 v=0
463082 On ch=1 n=b6 v=0
463142 On ch=1 n=f#6 v=100
463142 On ch=1 n=f#5 v=108
463213 On ch=1 n=g#6 v=72
463216 On ch=1 n=f#5 v=0
463222 On ch=1 n=f#6 v=0
463266 On ch=1 n=g#7 v=71
463270 On ch=1 n=g#6 v=0
463286 On ch=1 n=b6 v=74
463286 On ch=1 n=f5 v=92
463290 On ch=1 n=f6 v=93
463329 On ch=1 n=f6 v=0
463329 On ch=1 n=d7 v=71
463333 On ch=1 n=f5 v=0
463337 On ch=1 n=b6 v=0
463358 On ch=1 n=g#7 v=0
463381 On ch=1 n=d7 v=0
463418 On ch=1 n=a6 v=110
463442 On ch=1 n=a5 v=112
463449 Par ch=1 c=64 v=0
463496 On ch=1 n=b6 v=72
463510 On ch=1 n=a6 v=0
463525 On ch=1 n=a5 v=0
463557 On ch=1 n=b6 v=0
463586 On ch=1 n=g#6 v=90
463586 On ch=1 n=d7 v=85
463586 On ch=1 n=g#5 v=95
463590 On ch=1 n=b7 v=78
463601 Par ch=1 c=64 v=127
463613 On ch=1 n=g#5 v=0
463629 On ch=1 n=g#6 v=0
463645 On ch=1 n=f7 v=77
463649 On ch=1 n=d7 v=0
463685 On ch=1 n=b7 v=0
463696 On ch=1 n=f7 v=0
463733 On ch=1 n=c#7 v=95
463737 On ch=1 n=c#6 v=89
463797 On ch=1 n=c#7 v=0
463797 On ch=1 n=d7 v=83
463802 On ch=1 n=c#6 v=0
463810 Par ch=1 c=64 v=0
463853 On ch=1 n=d7 v=0
463882 On ch=1 n=b6 v=95
463882 On ch=1 n=b5 v=89
463886 On ch=1 n=d8 v=92
463886 On ch=1 n=f7 v=91
463932 On ch=1 n=b5 v=0
463932 On ch=1 n=b6 v=0
463946 Par ch=1 c=64 v=127
463962 On ch=1 n=f7 v=0
463973 On ch=1 n=g7 v=73
464009 On ch=1 n=g7 v=0
464009 On ch=1 n=d8 v=0
464049 On ch=1 n=c#7 v=86
464049 On ch=1 n=c#6 v=79
464106 On ch=1 n=c#6 v=0
464109 On ch=1 n=d7 v=83
464117 On ch=1 n=c#7 v=0
464136 On ch=1 n=d7 v=0
464182 On ch=1 n=b6 v=86
464185 On ch=1 n=b5 v=81
464193 On ch=1 n=f7 v=94
464198 On ch=1 n=d8 v=84
464229 On ch=1 n=b5 v=0
464239 On ch=1 n=b6 v=0
464254 On ch=1 n=g#7 v=78
464266 On ch=1 n=f7 v=0
464310 On ch=1 n=d8 v=0
464334 On ch=1 n=g#7 v=0
464346 On ch=1 n=c#7 v=90
464350 On ch=1 n=c#6 v=81
464418 On ch=1 n=c#7 v=0
464418 On ch=1 n=d7 v=83
464429 On ch=1 n=c#6 v=0
464446 On ch=1 n=d7 v=0
464494 On ch=1 n=b6 v=86
464494 On ch=1 n=b5 v=79
464498 On ch=1 n=d8 v=90
464506 On ch=1 n=f7 v=91
464535 On ch=1 n=b5 v=0
464547 On ch=1 n=b6 v=0
464586 On ch=1 n=g#7 v=86
464593 On ch=1 n=f7 v=0
464619 On ch=1 n=d8 v=0
464646 On ch=1 n=g#7 v=0
464663 On ch=1 n=c#7 v=86
464670 On ch=1 n=c#6 v=71
464714 Par ch=1 c=64 v=0
464733 On ch=1 n=c#7 v=0
464739 On ch=1 n=c#6 v=0
464743 On ch=1 n=d7 v=79
464786 On ch=1 n=d7 v=0
464802 On ch=1 n=a#6 v=104
464802 On ch=1 n=a#5 v=92
464812 On ch=1 n=f7 v=89
464812 On ch=1 n=d8 v=88
464844 Par ch=1 c=64 v=127
464863 On ch=1 n=g#7 v=80
464873 On ch=1 n=f7 v=0
464873 On ch=1 n=a#5 v=0
464889 On ch=1 n=a#6 v=0
464933 On ch=1 n=d8 v=0
464947 On ch=1 n=g#7 v=0
464957 On ch=1 n=c#7 v=92
464961 On ch=1 n=c#6 v=79
465030 On ch=1 n=d7 v=78
465034 On ch=1 n=c#7 v=0
465037 On ch=1 n=c#6 v=0
465070 On ch=1 n=d7 v=0
465105 On ch=1 n=f#7 v=92
465105 On ch=1 n=d8 v=92
465105 On ch=1 n=a6 v=100
465113 On ch=1 n=a5 v=95
465178 On ch=1 n=a5 v=0
465181 On ch=1 n=a6 v=0
465189 On ch=1 n=a7 v=78
465193 On ch=1 n=f#7 v=0
465237 On ch=1 n=d8 v=0
465257 On ch=1 n=a7 v=0
465284 On ch=1 n=c#7 v=90
465284 On ch=1 n=c#6 v=83
465333 On ch=1 n=d7 v=81
465343 On ch=1 n=c#6 v=0
465354 On ch=1 n=c#7 v=0
465381 On ch=1 n=d7 v=0
465414 On ch=1 n=f7 v=85
465414 On ch=1 n=d8 v=92
465414 On ch=1 n=g#5 v=92
465421 On ch=1 n=g#6 v=96
465482 On ch=1 n=g#5 v=0
465483 On ch=1 n=f7 v=0
465501 On ch=1 n=b7 v=60
465507 On ch=1 n=g#6 v=0
465543 On ch=1 n=d8 v=0
465554 On ch=1 n=b7 v=0
465581 On ch=1 n=c#7 v=92
465591 On ch=1 n=c#6 v=68
465620 On ch=1 n=d7 v=75
465651 On ch=1 n=c#7 v=0
465655 On ch=1 n=c#6 v=0
465671 Par ch=1 c=64 v=0
465699 On ch=1 n=d7 v=0
465711 On ch=1 n=f#7 v=90
465711 On ch=1 n=f#6 v=100
465715 On ch=1 n=d8 v=90
465719 On ch=1 n=f#5 v=100
465744 On ch=1 n=b7 v=80
465787 On ch=1 n=f#7 v=0
465794 On ch=1 n=f#5 v=0
465804 On ch=1 n=f#6 v=0
465811 Par ch=1 c=64 v=127
465823 On ch=1 n=b7 v=0
465848 On ch=1 n=d8 v=0
465875 On ch=1 n=c#7 v=90
465891 On ch=1 n=c#6 v=76
465920 On ch=1 n=d7 v=78
465952 On ch=1 n=c#6 v=0
465952 On ch=1 n=c#7 v=0
465984 On ch=1 n=d7 v=0
465987 Par ch=1 c=64 v=0
466015 On ch=1 n=d8 v=100
466025 On ch=1 n=f6 v=93
466025 On ch=1 n=g#7 v=92
466028 On ch=1 n=f5 v=96
466072 On ch=1 n=f6 v=0
466097 On ch=1 n=b7 v=78
466101 On ch=1 n=f5 v=0
466105 Par ch=1 c=64 v=127
466136 On ch=1 n=g#7 v=0
466192 On ch=1 n=b7 v=0
466196 On ch=1 n=c#7 v=84
466208 On ch=1 n=d8 v=0
466215 On ch=1 n=c#6 v=68
466220 On ch=1 n=d7 v=75
466272 On ch=1 n=c#7 v=0
466277 On ch=1 n=c#6 v=0
466300 On ch=1 n=d7 v=0
466336 On ch=1 n=d8 v=98
466336 Par ch=1 c=64 v=0
466336 On ch=1 n=g#7 v=92
466352 On ch=1 n=d6 v=96
466352 On ch=1 n=d5 v=97
466401 Par ch=1 c=64 v=127
466408 On ch=1 n=d5 v=0
466412 On ch=1 n=d6 v=0
466412 On ch=1 n=b7 v=82
466457 On ch=1 n=g#7 v=0
466501 On ch=1 n=b7 v=0
466512 On ch=1 n=d8 v=0
466545 On ch=1 n=c#6 v=96
466545 On ch=1 n=c#7 v=96
466548 On ch=1 n=d7 v=78
466608 On ch=1 n=d7 v=0
466608 On ch=1 n=c#7 v=0
466612 On ch=1 n=c#6 v=0
466651 On ch=1 n=d8 v=98
466655 On ch=1 n=g#7 v=98
466684 On ch=1 n=b5 v=100
466684 On ch=1 n=b4 v=99
466748 On ch=1 n=b4 v=0
466748 On ch=1 n=b7 v=84
466755 On ch=1 n=b5 v=0
466788 On ch=1 n=g#7 v=0
466820 On ch=1 n=b7 v=0
466835 On ch=1 n=c#7 v=78
466845 On ch=1 n=d8 v=0
466845 On ch=1 n=c#6 v=72
466885 On ch=1 n=d7 v=73
466909 On ch=1 n=c#7 v=0
466912 On ch=1 n=c#6 v=0
466946 On ch=1 n=d7 v=0
466982 On ch=1 n=d8 v=100
466985 On ch=1 n=g#7 v=100
466989 On ch=1 n=g#5 v=96
466989 On ch=1 n=g#4 v=90
467012 On ch=1 n=g#4 v=0
467052 On ch=1 n=g#5 v=0
467069 On ch=1 n=b7 v=86
467129 On ch=1 n=g#7 v=0
467145 On ch=1 n=b7 v=0
467155 On ch=1 n=d8 v=0
467170 On ch=1 n=c#7 v=98
467170 On ch=1 n=c#6 v=91
467229 On ch=1 n=c#6 v=0
467239 On ch=1 n=c#7 v=0
467262 On ch=1 n=d7 v=76
467349 On ch=1 n=d8 v=95
467355 On ch=1 n=g#7 v=92
467395 On ch=1 n=d7 v=0
467458 On ch=1 n=b7 v=77
467468 On ch=1 n=g#7 v=0
467540 On ch=1 n=f#5 v=105
467543 On ch=1 n=f#4 v=98
467543 On ch=1 n=d7 v=85
467568 On ch=1 n=b7 v=0
467572 On ch=1 n=f#4 v=0
467579 On ch=1 n=f#5 v=0
467655 On ch=1 n=g#7 v=78
467663 On ch=1 n=d7 v=0
467723 On ch=1 n=b7 v=100
467726 On ch=1 n=d8 v=0
467763 On ch=1 n=g#7 v=0
467788 On ch=1 n=c#8 v=115
467823 On ch=1 n=b7 v=0
467826 On ch=1 n=c#8 v=0
467886 On ch=1 n=f5 v=98
467896 On ch=1 n=f4 v=99
467896 On ch=1 n=g#4 v=98
467900 On ch=1 n=d5 v=96
467907 On ch=1 n=d7 v=105
467907 On ch=1 n=d8 v=120
467907 On ch=1 n=b4 v=90
467912 Par ch=1 c=64 v=0
468027 Par ch=1 c=64 v=127
468115 On ch=1 n=b7 v=75
468172 On ch=1 n=d7 v=0
468179 On ch=1 n=g#7 v=77
468212 On ch=1 n=b4 v=0
468219 On ch=1 n=d5 v=0
468219 On ch=1 n=f5 v=0
468223 On ch=1 n=g#4 v=0
468223 On ch=1 n=f4 v=0
468231 On ch=1 n=d8 v=0
468242 On ch=1 n=f7 v=74
468246 On ch=1 n=b7 v=0
468272 On ch=1 n=g#7 v=0
468295 On ch=1 n=d7 v=73
468299 On ch=1 n=f7 v=0
468319 On ch=1 n=d7 v=0
468407 On ch=1 n=b6 v=77
468463 On ch=1 n=g#6 v=77
468519 On ch=1 n=f6 v=72
468523 On ch=1 n=b6 v=0
468559 On ch=1 n=g#6 v=0
468579 On ch=1 n=f6 v=0
468608 On ch=1 n=d6 v=69
468639 On ch=1 n=d6 v=0
468703 On ch=1 n=b5 v=69
468779 On ch=1 n=b5 v=0
468788 On ch=1 n=g#5 v=51
468819 On ch=1 n=f#5 v=63
468823 On ch=1 n=g#5 v=0
468848 On ch=1 n=f#5 v=0
468863 On ch=1 n=f5 v=59
468899 On ch=1 n=f5 v=0
468955 On ch=1 n=e5 v=74
468955 On ch=1 n=e4 v=77
468987 On ch=1 n=f4 v=79
468987 On ch=1 n=f5 v=69
469008 On ch=1 n=e4 v=0
469008 On ch=1 n=e5 v=0
469063 On ch=1 n=f#5 v=76
469063 On ch=1 n=f#4 v=76
469072 On ch=1 n=f5 v=0
469079 On ch=1 n=f4 v=0
469123 Par ch=1 c=64 v=0
469128 On ch=1 n=a5 v=85
469128 On ch=1 n=a4 v=88
469159 On ch=1 n=f#4 v=0
469159 On ch=1 n=f#5 v=0
469166 On ch=1 n=g#4 v=68
469208 On ch=1 n=g#5 v=71
469223 Par ch=1 c=64 v=127
469239 On ch=1 n=g#4 v=0
469248 On ch=1 n=a4 v=0
469252 On ch=1 n=f4 v=54
469252 On ch=1 n=f5 v=65
469299 On ch=1 n=f4 v=0
469315 On ch=1 n=f5 v=0
469347 On ch=1 n=a5 v=0
469355 On ch=1 n=g#5 v=0
469355 On ch=1 n=d5 v=43
469355 On ch=1 n=d4 v=61
469403 On ch=1 n=d5 v=0
469403 On ch=1 n=b3 v=62
469407 On ch=1 n=d4 v=0
469432 Par ch=1 c=64 v=0
469447 On ch=1 n=b4 v=52
469463 On ch=1 n=b3 v=0
469480 On ch=1 n=b4 v=0
469480 On ch=1 n=a#3 v=62
469523 On ch=1 n=a#4 v=57
469539 On ch=1 n=a#3 v=0
469567 On ch=1 n=a#4 v=0
469579 On ch=1 n=b3 v=66
469586 On ch=1 n=b4 v=62
469611 On ch=1 n=b3 v=0
469626 Par ch=1 c=64 v=127
469643 On ch=1 n=c#4 v=82
469659 On ch=1 n=c#5 v=71
469666 On ch=1 n=b4 v=0
469703 On ch=1 n=c#4 v=0
469723 On ch=1 n=e5 v=85
469732 On ch=1 n=c#5 v=0
469739 On ch=1 n=e4 v=89
469747 On ch=1 n=d4 v=80
469787 On ch=1 n=d5 v=67
469803 On ch=1 n=e4 v=0
469859 On ch=1 n=b4 v=78
469863 On ch=1 n=b3 v=72
469882 On ch=1 n=d4 v=0
469886 On ch=1 n=g#3 v=72
469896 On ch=1 n=e5 v=0
469920 On ch=1 n=g#4 v=72
469924 On ch=1 n=b3 v=0
469936 On ch=1 n=d5 v=0
469940 On ch=1 n=b4 v=0
469959 On ch=1 n=g#3 v=0
469983 On ch=1 n=g#4 v=0
470004 On ch=1 n=f4 v=65
470004 On ch=1 n=f3 v=73
470044 Par ch=1 c=64 v=0
470049 On ch=1 n=f4 v=0
470077 On ch=1 n=e3 v=73
470092 On ch=1 n=f3 v=0
470102 On ch=1 n=e4 v=56
470130 On ch=1 n=e3 v=0
470137 On ch=1 n=e4 v=0
470161 On ch=1 n=f4 v=58
470186 On ch=1 n=f3 v=66
470233 On ch=1 n=f3 v=0
470242 On ch=1 n=f#4 v=66
470246 On ch=1 n=f#3 v=76
470257 On ch=1 n=f4 v=0
470305 On ch=1 n=a4 v=86
470330 On ch=1 n=f#4 v=0
470333 On ch=1 n=f#3 v=0
470341 On ch=1 n=a3 v=89
470349 Par ch=1 c=64 v=127
470357 On ch=1 n=g#4 v=69
470381 On ch=1 n=g#3 v=74
470430 On ch=1 n=a3 v=0
470457 On ch=1 n=f4 v=74
470482 On ch=1 n=g#3 v=0
470497 On ch=1 n=f3 v=68
470506 On ch=1 n=a4 v=0
470514 On ch=1 n=g#4 v=0
470521 On ch=1 n=d4 v=63
470529 On ch=1 n=f3 v=0
470541 On ch=1 n=d3 v=52
470556 On ch=1 n=f4 v=0
470562 On ch=1 n=d4 v=0
470577 On ch=1 n=d3 v=0
470630 Par ch=1 c=64 v=0
470642 On ch=1 n=b3 v=77
470642 On ch=1 n=b2 v=63
470681 On ch=1 n=b3 v=0
470706 On ch=1 n=b2 v=0
470706 On ch=1 n=a#2 v=68
470717 On ch=1 n=a#3 v=74
470769 On ch=1 n=a#3 v=0
470779 On ch=1 n=a#2 v=0
470786 On ch=1 n=b3 v=57
470807 On ch=1 n=b2 v=62
470833 Par ch=1 c=64 v=127
470854 On ch=1 n=b2 v=0
470854 On ch=1 n=c#4 v=66
470866 On ch=1 n=b3 v=0
470870 On ch=1 n=c#3 v=65
470943 On ch=1 n=c#4 v=0
470943 On ch=1 n=e4 v=71
470954 On ch=1 n=c#3 v=0
470978 On ch=1 n=e3 v=75
471007 On ch=1 n=d4 v=71
471007 On ch=1 n=d3 v=68
471079 On ch=1 n=e3 v=0
471079 On ch=1 n=b3 v=73
471110 On ch=1 n=e4 v=0
471118 On ch=1 n=d3 v=0
471122 On ch=1 n=b2 v=66
471137 On ch=1 n=d4 v=0
471147 On ch=1 n=g#3 v=71
471158 On ch=1 n=b3 v=0
471194 On ch=1 n=g#3 v=0
471213 On ch=1 n=b2 v=0
471213 On ch=1 n=g#2 v=43
471223 On ch=1 n=f3 v=66
471258 On ch=1 n=f2 v=74
471270 Par ch=1 c=64 v=0
471299 On ch=1 n=f3 v=0
471299 On ch=1 n=g#3 v=68
471390 On ch=1 n=b3 v=48
471390 On ch=1 n=b2 v=68
471419 On ch=1 n=f2 v=0
471433 Par ch=1 c=64 v=127
471450 On ch=1 n=g#3 v=0
471450 On ch=1 n=c#4 v=58
471470 On ch=1 n=c#3 v=72
471494 On ch=1 n=g#2 v=0
471497 On ch=1 n=b2 v=0
471522 On ch=1 n=e4 v=75
471537 On ch=1 n=b3 v=0
471537 On ch=1 n=e3 v=79
471554 On ch=1 n=c#4 v=0
471570 On ch=1 n=c#3 v=0
471598 Par ch=1 c=64 v=0
471643 On ch=1 n=d3 v=61
471646 On ch=1 n=d4 v=57
471656 On ch=1 n=e3 v=0
471707 On ch=1 n=e4 v=0
471714 On ch=1 n=d3 v=0
471714 On ch=1 n=b3 v=61
471724 On ch=1 n=b2 v=58
471747 On ch=1 n=d4 v=0
471775 On ch=1 n=g#2 v=59
471783 On ch=1 n=g#3 v=61
471794 On ch=1 n=b3 v=0
471808 On ch=1 n=b2 v=0
471835 On ch=1 n=g#3 v=0
471867 On ch=1 n=g#2 v=0
471871 On ch=1 n=f2 v=52
471911 On ch=1 n=f3 v=67
471944 On ch=1 n=g#2 v=64
471944 Par ch=1 c=64 v=127
471955 On ch=1 n=g#3 v=59
471988 On ch=1 n=f3 v=0
472000 On ch=1 n=f2 v=0
472015 On ch=1 n=b2 v=53
472047 On ch=1 n=g#3 v=0
472059 On ch=1 n=b3 v=67
472074 On ch=1 n=g#2 v=0
472074 On ch=1 n=c#3 v=58
472088 On ch=1 n=c#4 v=47
472091 On ch=1 n=b2 v=0
472151 On ch=1 n=b3 v=0
472151 On ch=1 n=e3 v=60
472155 On ch=1 n=c#4 v=0
472155 On ch=1 n=c#3 v=0
472167 On ch=1 n=e4 v=56
472227 On ch=1 n=d3 v=53
472251 On ch=1 n=d4 v=47
472255 On ch=1 n=e3 v=0
472308 On ch=1 n=e4 v=0
472308 On ch=1 n=b3 v=57
472315 On ch=1 n=b2 v=48
472327 On ch=1 n=d3 v=0
472355 On ch=1 n=d4 v=0
472371 On ch=1 n=g#2 v=48
472404 On ch=1 n=b3 v=0
472404 On ch=1 n=g#3 v=55
472463 On ch=1 n=b2 v=0
472463 Par ch=1 c=64 v=0
472473 On ch=1 n=g#2 v=0
472481 On ch=1 n=g#3 v=0
472488 On ch=1 n=f2 v=67
472505 On ch=1 n=f3 v=49
472580 Par ch=1 c=67 v=0
472590 On ch=1 n=f2 v=0
472608 On ch=1 n=f3 v=0
472629 On ch=1 n=g#3 v=64
472633 Par ch=1 c=64 v=127
472685 On ch=1 n=b3 v=48
472713 On ch=1 n=g#3 v=0
472774 On ch=1 n=d4 v=49
472801 On ch=1 n=b3 v=0
472829 On ch=1 n=d4 v=0
472901 On ch=1 n=f4 v=63
472961 On ch=1 n=g#4 v=58
473041 On ch=1 n=b4 v=62
473097 Par ch=1 c=64 v=0
473114 On ch=1 n=d5 v=59
473128 On ch=1 n=g#4 v=0
473142 On ch=1 n=b4 v=0
473189 On ch=1 n=f5 v=53
473201 On ch=1 n=d5 v=0
473258 On ch=1 n=g#5 v=51
473330 On ch=1 n=f5 v=0
473330 Par ch=1 c=64 v=127
473330 On ch=1 n=b5 v=73
473337 On ch=1 n=f4 v=0
473369 On ch=1 n=g#5 v=0
473390 On ch=1 n=d6 v=75
473421 On ch=1 n=b5 v=0
473438 On ch=1 n=d6 v=0
473529 On ch=1 n=f6 v=69
473601 On ch=1 n=f6 v=0
473601 On ch=1 n=g#6 v=66
473649 On ch=1 n=b6 v=70
473669 On ch=1 n=g#6 v=0
473705 On ch=1 n=c#7 v=66
473764 On ch=1 n=b6 v=0
473768 On ch=1 n=c#7 v=0
473778 On ch=1 n=e7 v=70
473882 On ch=1 n=d#7 v=72
473886 Par ch=1 c=64 v=0
473946 On ch=1 n=d7 v=75
473954 On ch=1 n=e7 v=0
474002 On ch=1 n=d#7 v=0
474035 On ch=1 n=d7 v=0
474035 On ch=1 n=c#7 v=74
474095 On ch=1 n=c#7 v=0
474107 On ch=1 n=d#7 v=78
474182 On ch=1 n=d7 v=67
474198 Par ch=1 c=64 v=127
474258 On ch=1 n=c#7 v=75
474274 On ch=1 n=d#7 v=0
474278 On ch=1 n=d7 v=0
474318 On ch=1 n=c#7 v=0
474318 On ch=1 n=c7 v=68
474350 On ch=1 n=c7 v=0
474378 On ch=1 n=d#7 v=78
474447 On ch=1 n=c#7 v=77
474555 On ch=1 n=d#7 v=0
474555 On ch=1 n=c7 v=71
474574 On ch=1 n=c#7 v=0
474602 On ch=1 n=b6 v=60
474606 On ch=1 n=c7 v=0
474631 On ch=1 n=b6 v=0
474642 Par ch=1 c=64 v=0
474686 On ch=1 n=c#7 v=74
474738 On ch=1 n=c7 v=69
474825 On ch=1 n=b6 v=61
474858 On ch=1 n=c7 v=0
474858 Par ch=1 c=64 v=127
474875 On ch=1 n=c#7 v=0
474891 On ch=1 n=a#6 v=67
474898 On ch=1 n=b6 v=0
474942 On ch=1 n=a#6 v=0
474952 On ch=1 n=c#7 v=59
475024 On ch=1 n=b6 v=66
475102 On ch=1 n=c#7 v=0
475104 On ch=1 n=a#6 v=59
475119 On ch=1 n=b6 v=0
475175 On ch=1 n=a#6 v=0
475175 On ch=1 n=a6 v=59
475255 On ch=1 n=b6 v=67
475258 On ch=1 n=a6 v=0
475328 On ch=1 n=a#6 v=64
475376 On ch=1 n=b6 v=0
475412 On ch=1 n=a#6 v=0
475419 On ch=1 n=a6 v=63
475508 On ch=1 n=a6 v=0
475523 On ch=1 n=g#6 v=63
475592 On ch=1 n=g#6 v=0
475635 On ch=1 n=g6 v=62
475735 On ch=1 n=g#6 v=64
475767 On ch=1 n=g6 v=0
475844 On ch=1 n=g#6 v=0
475848 On ch=1 n=c#7 v=63
475875 Par ch=1 c=67 v=127
475939 On ch=1 n=c#7 v=0
475959 On ch=1 n=b6 v=65
475987 On ch=1 n=b6 v=0
476099 Par ch=1 c=64 v=0
476131 On ch=1 n=f#4 v=66
476207 On ch=1 n=a6 v=84
476255 Par ch=1 c=64 v=127
476295 On ch=1 n=f#4 v=0
476324 Par ch=1 c=67 v=0
476424 On ch=1 n=a6 v=0
476455 On ch=1 n=d7 v=58
476492 On ch=1 n=d7 v=0
476503 On ch=1 n=a5 v=56
476511 On ch=1 n=a7 v=60
476559 On ch=1 n=f#7 v=67
476615 On ch=1 n=a7 v=0
476625 On ch=1 n=a5 v=0
476632 On ch=1 n=d7 v=66
476669 On ch=1 n=f#7 v=0
476669 On ch=1 n=f#5 v=55
476681 On ch=1 n=d7 v=0
476712 On ch=1 n=a6 v=64
476735 On ch=1 n=f#5 v=0
476768 On ch=1 n=a6 v=0
476796 On ch=1 n=f#6 v=69
476812 On ch=1 n=a5 v=56
476872 On ch=1 n=f#6 v=0
476876 On ch=1 n=a6 v=56
476912 On ch=1 n=a5 v=0
476936 On ch=1 n=a6 v=0
477049 On ch=1 n=c#6 v=73
477136 On ch=1 n=c#6 v=0
477152 On ch=1 n=f#6 v=53
477201 On ch=1 n=c#7 v=58
477225 On ch=1 n=f#5 v=59
477232 On ch=1 n=f#6 v=0
477261 On ch=1 n=a6 v=56
477272 On ch=1 n=f#5 v=0
477296 On ch=1 n=c#7 v=0
477325 On ch=1 n=f#6 v=67
477333 On ch=1 n=a6 v=0
477352 On ch=1 n=a5 v=51
477385 On ch=1 n=a6 v=55
477396 On ch=1 n=a5 v=0
477399 On ch=1 n=f#5 v=55
477413 On ch=1 n=f#6 v=0
477460 On ch=1 n=f#5 v=0
477476 On ch=1 n=d6 v=67
477493 On ch=1 n=a6 v=0
477536 Par ch=1 c=64 v=0
477576 On ch=1 n=d6 v=0
477576 On ch=1 n=g4 v=51
477580 On ch=1 n=d7 v=60
477629 On ch=1 n=f#6 v=65
477640 On ch=1 n=g4 v=0
477656 On ch=1 n=d7 v=0
477666 On ch=1 n=f#6 v=0
477682 Par ch=1 c=64 v=127
477742 On ch=1 n=b5 v=52
477789 On ch=1 n=b5 v=0
477801 On ch=1 n=b6 v=57
477869 On ch=1 n=b6 v=0
477877 On ch=1 n=d7 v=66
477896 On ch=1 n=e7 v=66
477913 On ch=1 n=d7 v=0
477923 On ch=1 n=e7 v=0
477970 On ch=1 n=f#7 v=72
478029 On ch=1 n=e7 v=78
478075 On ch=1 n=f#7 v=0
478098 On ch=1 n=d7 v=79
478146 On ch=1 n=e7 v=0
478170 On ch=1 n=d7 v=0
478175 On ch=1 n=b6 v=72
478195 On ch=1 n=b6 v=0
478223 On ch=1 n=f#6 v=74
478254 On ch=1 n=f#6 v=0
478254 Par ch=1 c=64 v=0
478299 On ch=1 n=e6 v=70
478343 Par ch=1 c=67 v=127
478359 On ch=1 n=d6 v=67
478373 On ch=1 n=e6 v=0
478422 On ch=1 n=b5 v=69
478446 On ch=1 n=d6 v=0
478483 On ch=1 n=g5 v=59
478499 On ch=1 n=b5 v=0
478535 On ch=1 n=g5 v=0
478582 On ch=1 n=b5 v=55
478607 Par ch=1 c=64 v=127
478655 On ch=1 n=b5 v=0
478663 On ch=1 n=d6 v=58
478735 On ch=1 n=e6 v=63
478750 On ch=1 n=d6 v=0
478770 On ch=1 n=e6 v=0
478895 On ch=1 n=a4 v=42
478943 Par ch=1 c=64 v=0
479006 On ch=1 n=a6 v=72
479110 On ch=1 n=a6 v=0
479134 Par ch=1 c=64 v=127
479199 On ch=1 n=d7 v=58
479246 On ch=1 n=a5 v=60
479258 On ch=1 n=d7 v=0
479283 On ch=1 n=a7 v=61
479319 On ch=1 n=f#7 v=68
479390 On ch=1 n=a7 v=0
479394 On ch=1 n=d7 v=69
479406 On ch=1 n=a5 v=0
479434 On ch=1 n=d7 v=0
479434 On ch=1 n=f#7 v=0
479470 On ch=1 n=f#5 v=55
479506 On ch=1 n=a6 v=50
479526 On ch=1 n=a6 v=0
479555 On ch=1 n=f#5 v=0
479570 On ch=1 n=f#6 v=67
479610 On ch=1 n=a5 v=51
479626 On ch=1 n=a6 v=57
479630 On ch=1 n=f#6 v=0
479734 On ch=1 n=a6 v=0
479793 Par ch=1 c=67 v=0
479810 On ch=1 n=a5 v=0
479810 On ch=1 n=a4 v=0
479814 On ch=1 n=c#6 v=73
479886 On ch=1 n=c#6 v=0
479890 On ch=1 n=f#6 v=59
479958 On ch=1 n=c#7 v=54
479966 On ch=1 n=f#6 v=0
479999 On ch=1 n=f#5 v=41
480006 On ch=1 n=a6 v=65
480010 On ch=1 n=c#7 v=0
480046 On ch=1 n=f#6 v=59
480049 On ch=1 n=f#5 v=0
480055 On ch=1 n=a6 v=0
480090 On ch=1 n=a5 v=42
480122 On ch=1 n=a6 v=42
480132 On ch=1 n=f#6 v=0
480147 On ch=1 n=a5 v=0
480179 On ch=1 n=d6 v=64
480183 On ch=1 n=f#5 v=46
480193 On ch=1 n=a6 v=0
480220 Par ch=1 c=64 v=0
480237 On ch=1 n=f#5 v=0
480280 On ch=1 n=d6 v=0
480290 On ch=1 n=b4 v=56
480325 On ch=1 n=f#6 v=56
480344 On ch=1 n=b4 v=0
480344 On ch=1 n=d7 v=51
480370 On ch=1 n=f#6 v=0
480385 Par ch=1 c=64 v=127
480405 On ch=1 n=g#6 v=55
480406 On ch=1 n=d7 v=0
480421 On ch=1 n=g#6 v=0
480461 On ch=1 n=d6 v=50
480501 On ch=1 n=d7 v=61
480509 On ch=1 n=d6 v=0
480541 On ch=1 n=d7 v=0
480564 On ch=1 n=e7 v=52
480605 On ch=1 n=e7 v=0
480610 On ch=1 n=f#7 v=77
480674 On ch=1 n=e7 v=67
480724 On ch=1 n=f#7 v=0
480744 On ch=1 n=d7 v=73
480761 On ch=1 n=e7 v=0
480766 Par ch=1 c=64 v=0
480784 On ch=1 n=d7 v=0
480794 On ch=1 n=g#6 v=64
480842 On ch=1 n=g#6 v=0
480850 On ch=1 n=f#6 v=69
480882 On ch=1 n=f#6 v=0
480941 On ch=1 n=e6 v=70
481001 On ch=1 n=e6 v=0
481001 On ch=1 n=d6 v=66
481007 Par ch=1 c=67 v=127
481063 On ch=1 n=b5 v=66
481074 On ch=1 n=d6 v=0
481122 On ch=1 n=g#5 v=63
481138 On ch=1 n=b5 v=0
481214 On ch=1 n=g#5 v=0
481214 On ch=1 n=e6 v=63
481278 On ch=1 n=d6 v=61
481290 Par ch=1 c=64 v=127
481300 On ch=1 n=e6 v=0
481331 On ch=1 n=d6 v=0
481360 On ch=1 n=b5 v=69
481399 On ch=1 n=b5 v=0
481475 On ch=1 n=a5 v=66
481580 On ch=1 n=a5 v=0
481655 On ch=1 n=b5 v=52
481715 On ch=1 n=c#4 v=51
481731 On ch=1 n=a5 v=57
481775 On ch=1 n=c#4 v=0
481775 On ch=1 n=b5 v=0
481807 On ch=1 n=a5 v=0
481835 On ch=1 n=g#5 v=61
481880 On ch=1 n=g#5 v=0
481935 Par ch=1 c=67 v=0
481940 On ch=1 n=g5 v=77
481955 On ch=1 n=a5 v=58
482008 On ch=1 n=a5 v=0
482067 On ch=1 n=a#5 v=51
482095 On ch=1 n=a#5 v=0
482168 On ch=1 n=b5 v=58
482219 On ch=1 n=b5 v=0
482219 On ch=1 n=g5 v=0
482219 On ch=1 n=e5 v=37
482227 On ch=1 n=a4 v=41
482237 On ch=1 n=c6 v=54
482252 On ch=1 n=e5 v=0
482268 On ch=1 n=a4 v=0
482278 On ch=1 n=c6 v=0
482289 On ch=1 n=c#6 v=73
482321 On ch=1 n=c#6 v=0
482369 On ch=1 n=d6 v=67
482405 On ch=1 n=d#4 v=59
482415 On ch=1 n=d6 v=0
482442 On ch=1 n=d#6 v=67
482479 On ch=1 n=d#6 v=0
482519 On ch=1 n=d#4 v=0
482519 On ch=1 n=e6 v=72
482538 On ch=1 n=f#5 v=88
482570 On ch=1 n=e6 v=0
482579 Par ch=1 c=64 v=0
482586 On ch=1 n=f6 v=66
482630 On ch=1 n=f#6 v=72
482650 On ch=1 n=f6 v=0
482675 On ch=1 n=f#6 v=0
482722 Par ch=1 c=64 v=127
482722 On ch=1 n=g6 v=73
482739 On ch=1 n=a4 v=57
482743 On ch=1 n=b4 v=53
482770 On ch=1 n=f#5 v=0
482786 On ch=1 n=b4 v=0
482803 On ch=1 n=g6 v=0
482810 On ch=1 n=g#6 v=70
482811 On ch=1 n=a4 v=0
482851 On ch=1 n=b6 v=77
482866 On ch=1 n=g#6 v=0
482914 On ch=1 n=a6 v=77
482935 On ch=1 n=e4 v=58
482982 On ch=1 n=b6 v=0
482991 On ch=1 n=g#6 v=74
482994 On ch=1 n=e4 v=0
482998 On ch=1 n=a6 v=0
483042 On ch=1 n=g#6 v=0
483070 On ch=1 n=a6 v=61
483119 On ch=1 n=a6 v=0
483131 On ch=1 n=b5 v=83
483138 Par ch=1 c=64 v=0
483138 On ch=1 n=a#6 v=67
483178 On ch=1 n=a#6 v=0
483225 On ch=1 n=b6 v=65
483305 On ch=1 n=b6 v=0
483319 On ch=1 n=c7 v=65
483331 Par ch=1 c=64 v=127
483362 On ch=1 n=b5 v=0
483362 On ch=1 n=g5 v=38
483366 On ch=1 n=c#7 v=66
483378 On ch=1 n=c#5 v=48
483388 On ch=1 n=c7 v=0
483399 On ch=1 n=g5 v=0
483416 On ch=1 n=c#7 v=0
483427 On ch=1 n=c#5 v=0
483467 On ch=1 n=d7 v=61
483507 On ch=1 n=d7 v=0
483536 On ch=1 n=d#7 v=66
483566 On ch=1 n=d#7 v=0
483587 On ch=1 n=f#4 v=58
483599 On ch=1 n=e7 v=71
483619 On ch=1 n=f#4 v=0
483663 On ch=1 n=f7 v=71
483668 On ch=1 n=e7 v=0
483695 On ch=1 n=a5 v=80
483716 On ch=1 n=f#7 v=75
483739 On ch=1 n=f7 v=0
483742 On ch=1 n=f#7 v=0
483788 On ch=1 n=g7 v=69
483892 On ch=1 n=g7 v=0
483892 On ch=1 n=g#7 v=72
483907 On ch=1 n=d#5 v=51
483926 On ch=1 n=a7 v=64
483943 On ch=1 n=c5 v=32
483983 On ch=1 n=d#5 v=0
483983 On ch=1 n=g#7 v=0
484003 On ch=1 n=a#7 v=68
484015 On ch=1 n=a7 v=0
484031 On ch=1 n=a#7 v=0
484042 On ch=1 n=c5 v=0
484079 On ch=1 n=b7 v=74
484086 On ch=1 n=g4 v=61
484139 On ch=1 n=g4 v=0
484148 On ch=1 n=c8 v=70
484159 On ch=1 n=b7 v=0
484159 On ch=1 n=a5 v=0
484200 On ch=1 n=c#8 v=74
484211 On ch=1 n=c8 v=0
484236 On ch=1 n=c#8 v=0
484236 On ch=1 n=a5 v=80
484243 On ch=1 n=c#5 v=71
484268 Par ch=1 c=64 v=0
484283 On ch=1 n=d8 v=75
484368 On ch=1 n=d#8 v=77
484386 On ch=1 n=d8 v=0
484403 On ch=1 n=c#5 v=0
484431 Par ch=1 c=64 v=127
484443 On ch=1 n=e8 v=78
484446 On ch=1 n=e5 v=70
484467 On ch=1 n=d#8 v=0
484495 On ch=1 n=f8 v=71
484527 On ch=1 n=e8 v=0
484539 On ch=1 n=a5 v=0
484568 On ch=1 n=f8 v=0
484576 On ch=1 n=f#8 v=75
484587 On ch=1 n=b5 v=85
484595 On ch=1 n=d5 v=74
484612 On ch=1 n=e5 v=0
484655 On ch=1 n=f8 v=67
484715 On ch=1 n=e8 v=78
484743 On ch=1 n=d5 v=0
484759 On ch=1 n=e5 v=64
484763 On ch=1 n=f#8 v=0
484788 On ch=1 n=d#8 v=73
484796 On ch=1 n=f8 v=0
484819 On ch=1 n=e8 v=0
484836 On ch=1 n=b5 v=0
484848 On ch=1 n=d8 v=74
484859 On ch=1 n=d#8 v=0
484939 Par ch=1 c=64 v=0
484942 On ch=1 n=a5 v=80
484946 On ch=1 n=e5 v=0
484952 On ch=1 n=c#5 v=68
484959 On ch=1 n=c#8 v=79
484967 On ch=1 n=d8 v=0
485003 On ch=1 n=c8 v=73
485028 Par ch=1 c=64 v=127
485063 On ch=1 n=c#8 v=0
485063 On ch=1 n=c#5 v=0
485079 On ch=1 n=e5 v=77
485089 On ch=1 n=c8 v=0
485089 On ch=1 n=b7 v=75
485123 On ch=1 n=b7 v=0
485173 On ch=1 n=a#7 v=74
485176 On ch=1 n=e5 v=0
485240 On ch=1 n=g5 v=77
485245 Par ch=1 c=64 v=0
485245 On ch=1 n=a7 v=71
485252 On ch=1 n=e6 v=86
485305 On ch=1 n=a#7 v=0
485324 On ch=1 n=g#7 v=66
485328 On ch=1 n=a5 v=0
485356 On ch=1 n=a7 v=0
485376 On ch=1 n=g5 v=0
485383 Par ch=1 c=64 v=127
485400 On ch=1 n=g#7 v=0
485400 On ch=1 n=g7 v=66
485433 On ch=1 n=g7 v=0
485449 On ch=1 n=a5 v=68
485472 On ch=1 n=e6 v=0
485489 On ch=1 n=f#7 v=63
485573 On ch=1 n=e5 v=67
485573 On ch=1 n=c#6 v=85
485576 On ch=1 n=e7 v=65
485605 On ch=1 n=f#7 v=0
485616 On ch=1 n=a5 v=0
485640 On ch=1 n=e7 v=0
485640 On ch=1 n=d7 v=72
485650 On ch=1 n=e5 v=0
485674 On ch=1 n=d7 v=0
485730 On ch=1 n=a5 v=66
485750 On ch=1 n=c#7 v=63
485781 On ch=1 n=c#6 v=0
485809 On ch=1 n=c#7 v=0
485826 On ch=1 n=b6 v=68
485841 Par ch=1 c=64 v=0
485853 On ch=1 n=b5 v=72
485882 On ch=1 n=a5 v=0
485882 On ch=1 n=a6 v=64
485896 On ch=1 n=d5 v=59
485929 On ch=1 n=b6 v=0
485961 On ch=1 n=a6 v=0
485962 On ch=1 n=g6 v=61
486001 Par ch=1 c=64 v=127
486020 On ch=1 n=g6 v=0
486020 On ch=1 n=d5 v=0
486062 On ch=1 n=e5 v=60
486062 On ch=1 n=f#6 v=65
486080 On ch=1 n=b5 v=0
486160 On ch=1 n=e6 v=58
486186 On ch=1 n=f#6 v=0
486201 Par ch=1 c=64 v=0
486213 On ch=1 n=e6 v=0
486222 On ch=1 n=a5 v=66
486226 On ch=1 n=e5 v=0
486253 On ch=1 n=c#5 v=54
486253 On ch=1 n=d6 v=48
486297 On ch=1 n=d6 v=0
486342 Par ch=1 c=64 v=127
486361 On ch=1 n=c#6 v=49
486390 On ch=1 n=a5 v=0
486409 On ch=1 n=e5 v=56
486419 On ch=1 n=c#5 v=0
486467 On ch=1 n=c#6 v=0
486479 On ch=1 n=e5 v=0
486494 On ch=1 n=b5 v=60
486526 On ch=1 n=b5 v=0
486647 Par ch=1 c=64 v=0
486690 On ch=1 n=a5 v=75
486690 On ch=1 n=f#3 v=53
486778 On ch=1 n=f#3 v=0
486806 Par ch=1 c=64 v=127
486910 On ch=1 n=a5 v=0
486914 On ch=1 n=d6 v=55
486954 On ch=1 n=d6 v=0
486987 On ch=1 n=a4 v=54
486990 On ch=1 n=a6 v=61
487034 On ch=1 n=f#6 v=62
487094 On ch=1 n=d6 v=66
487127 On ch=1 n=a6 v=0
487138 On ch=1 n=d6 v=0
487138 On ch=1 n=f#6 v=0
487150 On ch=1 n=a4 v=0
487170 On ch=1 n=f#4 v=44
487190 On ch=1 n=a5 v=53
487230 On ch=1 n=a5 v=0
487246 On ch=1 n=f#4 v=0
487278 On ch=1 n=f#5 v=64
487303 On ch=1 n=a4 v=44
487338 On ch=1 n=a5 v=57
487390 On ch=1 n=f#5 v=0
487414 On ch=1 n=a4 v=0
487514 On ch=1 n=a5 v=0
487519 On ch=1 n=c#5 v=70
487599 On ch=1 n=c#5 v=0
487602 On ch=1 n=f#5 v=57
487658 On ch=1 n=c#6 v=61
487674 On ch=1 n=f#4 v=46
487690 On ch=1 n=f#5 v=0
487719 On ch=1 n=f#4 v=0
487727 On ch=1 n=a5 v=55
487754 On ch=1 n=c#6 v=0
487764 On ch=1 n=a5 v=0
487767 On ch=1 n=f#5 v=59
487783 On ch=1 n=a4 v=42
487828 On ch=1 n=a4 v=0
487843 On ch=1 n=a5 v=57
487855 On ch=1 n=f#5 v=0
487915 On ch=1 n=d5 v=67
487931 On ch=1 n=a5 v=0
487984 Par ch=1 c=64 v=0
488014 On ch=1 n=d5 v=0
488035 On ch=1 n=d6 v=51
488039 On ch=1 n=g3 v=55
488087 On ch=1 n=d6 v=0
488097 On ch=1 n=f#5 v=66
488157 Par ch=1 c=64 v=127
488172 On ch=1 n=f#5 v=0
488180 On ch=1 n=g3 v=0
488201 On ch=1 n=b4 v=44
488233 On ch=1 n=b5 v=64
488252 On ch=1 n=b4 v=0
488292 On ch=1 n=b5 v=0
488311 On ch=1 n=d6 v=64
488368 On ch=1 n=e6 v=61
488424 On ch=1 n=d6 v=0
488440 On ch=1 n=f#6 v=70
488450 On ch=1 n=e6 v=0
488465 On ch=1 n=f#6 v=0
488541 On ch=1 n=b6 v=75
488574 On ch=1 n=b6 v=0
488590 On ch=1 n=d7 v=71
488661 On ch=1 n=e7 v=59
488665 On ch=1 n=e7 v=0
488665 On ch=1 n=d7 v=0
488690 On ch=1 n=f#7 v=82
488744 On ch=1 n=e7 v=67
488748 Par ch=1 c=64 v=0
488828 On ch=1 n=d7 v=73
488838 On ch=1 n=f#7 v=0
488878 On ch=1 n=e7 v=0
488887 On ch=1 n=b6 v=77
488899 On ch=1 n=d7 v=0
488931 On ch=1 n=b6 v=0
488935 On ch=1 n=f#6 v=59
488990 On ch=1 n=e6 v=61
489022 On ch=1 n=f#6 v=0
489026 Par ch=1 c=67 v=127
489091 On ch=1 n=d6 v=53
489095 On ch=1 n=e6 v=0
489154 Par ch=1 c=64 v=127
489178 On ch=1 n=b5 v=55
489227 On ch=1 n=d6 v=0
489246 On ch=1 n=b5 v=0
489422 On ch=1 n=a5 v=62
489590 On ch=1 n=a5 v=0
489635 On ch=1 n=d6 v=48
489665 On ch=1 n=a3 v=42
489675 On ch=1 n=d6 v=0
489702 On ch=1 n=a6 v=58
489747 On ch=1 n=f#6 v=61
489825 On ch=1 n=d6 v=64
489850 On ch=1 n=a6 v=0
489854 On ch=1 n=f#6 v=0
489874 On ch=1 n=d6 v=0
489874 On ch=1 n=a3 v=0
489884 On ch=1 n=f#4 v=43
489928 On ch=1 n=a5 v=48
489943 On ch=1 n=f#4 v=0
489959 On ch=1 n=a5 v=0
490003 On ch=1 n=a4 v=47
490011 On ch=1 n=f#5 v=68
490071 On ch=1 n=f#5 v=0
490096 On ch=1 n=a5 v=43
490198 On ch=1 n=a4 v=0
490288 On ch=1 n=a5 v=0
490299 On ch=1 n=c#5 v=63
490375 On ch=1 n=c#5 v=0
490375 On ch=1 n=f#5 v=55
490435 On ch=1 n=f#5 v=0
490442 On ch=1 n=c#6 v=54
490487 On ch=1 n=f#4 v=29
490487 On ch=1 n=a5 v=59
490511 On ch=1 n=c#6 v=0
490532 On ch=1 n=f#4 v=0
490543 On ch=1 n=f#5 v=64
490563 On ch=1 n=a5 v=0
490599 On ch=1 n=a4 v=33
490602 On ch=1 n=a5 v=37
490635 On ch=1 n=f#5 v=0
490635 On ch=1 n=f#4 v=46
490652 On ch=1 n=a4 v=0
490684 On ch=1 n=d5 v=64
490695 On ch=1 n=a5 v=0
490715 On ch=1 n=f#4 v=0
490725 Par ch=1 c=64 v=0
490784 On ch=1 n=d6 v=59
490788 On ch=1 n=d5 v=0
490799 On ch=1 n=b3 v=52
490852 On ch=1 n=f#5 v=85
490860 On ch=1 n=d6 v=0
490865 On ch=1 n=b3 v=0
490912 On ch=1 n=g#5 v=55
490921 Par ch=1 c=64 v=127
490939 On ch=1 n=g#5 v=0
490949 On ch=1 n=f#5 v=0
490953 On ch=1 n=d5 v=57
491005 On ch=1 n=d5 v=0
491029 On ch=1 n=d6 v=56
491070 On ch=1 n=d6 v=0
491086 On ch=1 n=e6 v=69
491138 On ch=1 n=f#6 v=66
491162 On ch=1 n=e6 v=0
491198 On ch=1 n=f#6 v=0
491198 On ch=1 n=g#6 v=50
491230 On ch=1 n=g#6 v=0
491282 On ch=1 n=d7 v=69
491317 On ch=1 n=d7 v=0
491322 On ch=1 n=e7 v=67
491333 Par ch=1 c=64 v=0
491365 On ch=1 n=e7 v=0
491369 On ch=1 n=f#7 v=74
491442 On ch=1 n=e7 v=66
491502 On ch=1 n=f#7 v=0
491533 On ch=1 n=d7 v=68
491536 On ch=1 n=e7 v=0
491553 On ch=1 n=d7 v=0
491585 On ch=1 n=g#6 v=59
491636 On ch=1 n=f#6 v=61
491665 On ch=1 n=g#6 v=0
491726 On ch=1 n=e6 v=56
491726 Par ch=1 c=64 v=127
491741 On ch=1 n=f#6 v=0
491798 On ch=1 n=d6 v=51
491842 On ch=1 n=d6 v=0
491842 On ch=1 n=e6 v=0
491885 On ch=1 n=g#5 v=51
491976 On ch=1 n=g#5 v=0
492037 On ch=1 n=f5 v=44
492233 On ch=1 n=f5 v=0
492233 On ch=1 n=g#5 v=56
492249 On ch=1 n=b3 v=45
492316 On ch=1 n=b3 v=0
492345 On ch=1 n=c#6 v=46
492378 On ch=1 n=g#5 v=0
492413 On ch=1 n=d#6 v=58
492438 On ch=1 n=c#6 v=0
492456 On ch=1 n=d#6 v=0
492558 On ch=1 n=c#5 v=72
492576 On ch=1 n=f6 v=49
492673 On ch=1 n=f6 v=0
492673 On ch=1 n=g#6 v=59
492690 Par ch=1 c=67 v=0
492766 On ch=1 n=c#7 v=56
492773 On ch=1 n=g#4 v=56
492777 On ch=1 n=g#6 v=0
492806 On ch=1 n=d#7 v=55
492817 On ch=1 n=c#5 v=0
492842 On ch=1 n=c#7 v=0
492849 On ch=1 n=d#7 v=0
492869 On ch=1 n=g#4 v=0
492952 On ch=1 n=f7 v=65
492977 On ch=1 n=g#7 v=66
492982 On ch=1 n=f7 v=0
493013 On ch=1 n=c4 v=53
493049 On ch=1 n=c#8 v=71
493069 On ch=1 n=g#7 v=0
493081 On ch=1 n=c4 v=0
493092 On ch=1 n=d#8 v=69
493142 On ch=1 n=f8 v=74
493149 Par ch=1 c=64 v=0
493153 On ch=1 n=c#8 v=0
493157 On ch=1 n=d#8 v=0
493202 On ch=1 n=f5 v=66
493250 On ch=1 n=e8 v=70
493293 On ch=1 n=d#8 v=73
493309 Par ch=1 c=64 v=127
493353 On ch=1 n=e8 v=0
493358 On ch=1 n=c5 v=47
493362 On ch=1 n=a4 v=50
493365 On ch=1 n=f5 v=0
493373 On ch=1 n=f8 v=0
493377 On ch=1 n=d#8 v=0
493377 On ch=1 n=d8 v=72
493392 On ch=1 n=c5 v=0
493406 On ch=1 n=a4 v=0
493437 On ch=1 n=d8 v=0
493449 On ch=1 n=c#8 v=76
493509 On ch=1 n=c8 v=69
493546 On ch=1 n=c#8 v=0
493558 On ch=1 n=c#4 v=65
493573 On ch=1 n=c8 v=0
493573 On ch=1 n=b7 v=74
493617 On ch=1 n=c#4 v=0
493622 On ch=1 n=b7 v=0
493662 On ch=1 n=a#7 v=77
493717 On ch=1 n=a7 v=82
493737 On ch=1 n=f5 v=74
493786 On ch=1 n=g#7 v=82
493829 On ch=1 n=a#7 v=0
493838 On ch=1 n=a7 v=0
493870 On ch=1 n=g7 v=69
493873 On ch=1 n=g#7 v=0
493916 On ch=1 n=g7 v=0
493945 On ch=1 n=b4 v=52
493949 On ch=1 n=f#7 v=80
493989 On ch=1 n=g#4 v=51
494001 On ch=1 n=f7 v=73
494049 On ch=1 n=f5 v=0
494066 On ch=1 n=f7 v=0
494066 On ch=1 n=f#7 v=0
494093 On ch=1 n=e7 v=67
494096 On ch=1 n=b4 v=0
494142 On ch=1 n=e7 v=0
494153 On ch=1 n=g#4 v=0
494153 On ch=1 n=d#7 v=70
494186 On ch=1 n=d4 v=63
494212 On ch=1 n=d#7 v=0
494222 On ch=1 n=d7 v=75
494302 On ch=1 n=c#7 v=77
494306 On ch=1 n=e5 v=89
494334 On ch=1 n=d7 v=0
494342 Par ch=1 c=64 v=0
494367 On ch=1 n=c7 v=67
494378 On ch=1 n=d4 v=0
494419 On ch=1 n=c#7 v=0
494435 On ch=1 n=c7 v=0
494450 On ch=1 n=b6 v=72
494514 On ch=1 n=b6 v=0
494522 On ch=1 n=b4 v=44
494534 On ch=1 n=a#6 v=66
494535 Par ch=1 c=64 v=127
494543 On ch=1 n=g#4 v=50
494626 On ch=1 n=a6 v=68
494630 On ch=1 n=a#6 v=0
494642 On ch=1 n=g#4 v=0
494663 On ch=1 n=g#6 v=65
494675 On ch=1 n=a6 v=0
494706 On ch=1 n=g#6 v=0
494716 On ch=1 n=e5 v=0
494731 On ch=1 n=b4 v=0
494811 On ch=1 n=b7 v=88
494811 On ch=1 n=d#4 v=61
494811 On ch=1 n=g#7 v=78
494851 Par ch=1 c=64 v=0
494895 On ch=1 n=d#4 v=0
494927 On ch=1 n=g#7 v=0
494943 On ch=1 n=g7 v=69
494952 Par ch=1 c=64 v=127
494967 On ch=1 n=b7 v=0
495000 On ch=1 n=g7 v=0
495059 On ch=1 n=f#7 v=64
495063 On ch=1 n=g#5 v=88
495087 Par ch=1 c=64 v=0
495130 On ch=1 n=f7 v=62
495140 On ch=1 n=f#7 v=0
495188 On ch=1 n=f7 v=0
495200 Par ch=1 c=64 v=127
495217 On ch=1 n=e7 v=66
495264 On ch=1 n=e7 v=0
495283 On ch=1 n=d#5 v=57
495297 On ch=1 n=b4 v=56
495297 On ch=1 n=d#7 v=58
495328 On ch=1 n=d#5 v=0
495333 On ch=1 n=g#5 v=0
495340 On ch=1 n=d#7 v=0
495340 On ch=1 n=b4 v=0
495360 On ch=1 n=d7 v=69
495428 On ch=1 n=d7 v=0
495433 On ch=1 n=c#7 v=74
495488 On ch=1 n=c7 v=73
495500 On ch=1 n=e4 v=62
495529 On ch=1 n=c#7 v=0
495537 On ch=1 n=e4 v=0
495560 On ch=1 n=c7 v=0
495560 On ch=1 n=b6 v=78
495608 On ch=1 n=b6 v=0
495653 On ch=1 n=a#6 v=81
495664 Par ch=1 c=64 v=0
495664 On ch=1 n=g#5 v=86
495713 On ch=1 n=a6 v=77
495768 On ch=1 n=a#6 v=0
495787 On ch=1 n=g#6 v=74
495833 On ch=1 n=a6 v=0
495841 Par ch=1 c=64 v=127
495860 On ch=1 n=b4 v=66
495864 On ch=1 n=d5 v=60
495868 On ch=1 n=g#6 v=0
495876 On ch=1 n=g6 v=67
495940 On ch=1 n=b4 v=0
495948 On ch=1 n=g6 v=0
495948 On ch=1 n=d5 v=0
495960 On ch=1 n=f#6 v=76
495969 On ch=1 n=g#5 v=0
496012 On ch=1 n=f6 v=69
496049 On ch=1 n=f6 v=0
496049 On ch=1 n=f#6 v=0
496080 On ch=1 n=e6 v=62
496109 On ch=1 n=f4 v=70
496124 On ch=1 n=e6 v=0
496144 On ch=1 n=f4 v=0
496144 On ch=1 n=d#6 v=74
496187 On ch=1 n=d#6 v=0
496217 Par ch=1 c=64 v=0
496229 On ch=1 n=d6 v=57
496243 On ch=1 n=g#5 v=86
496276 On ch=1 n=d6 v=0
496297 On ch=1 n=c#6 v=79
496376 On ch=1 n=c6 v=69
496416 On ch=1 n=c#6 v=0
496440 Par ch=1 c=67 v=127
496447 Par ch=1 c=64 v=127
496457 On ch=1 n=c6 v=0
496469 On ch=1 n=b5 v=73
496517 On ch=1 n=b5 v=0
496517 On ch=1 n=d5 v=58
496529 On ch=1 n=b4 v=59
496564 On ch=1 n=g#5 v=0
496564 On ch=1 n=a#5 v=70
496617 On ch=1 n=b4 v=0
496621 On ch=1 n=d5 v=0
496621 On ch=1 n=a5 v=72
496680 On ch=1 n=a#5 v=0
496680 On ch=1 n=g#5 v=70
496707 On ch=1 n=a5 v=0
496740 On ch=1 n=g#5 v=0
496756 On ch=1 n=g5 v=77
496788 Par ch=1 c=64 v=0
496824 On ch=1 n=g5 v=0
496836 On ch=1 n=a5 v=69
496848 On ch=1 n=d5 v=67
496848 On ch=1 n=b4 v=65
496872 On ch=1 n=g#5 v=67
496904 On ch=1 n=a5 v=0
496937 On ch=1 n=g#5 v=0
496949 On ch=1 n=g5 v=74
496964 Par ch=1 c=64 v=127
497024 On ch=1 n=b4 v=0
497049 On ch=1 n=f#5 v=66
497088 On ch=1 n=g5 v=0
497104 On ch=1 n=f#5 v=0
497113 On ch=1 n=d5 v=0
497128 On ch=1 n=c#5 v=65
497128 On ch=1 n=a#4 v=67
497160 On ch=1 n=a#4 v=0
497160 On ch=1 n=c#5 v=0
497244 Par ch=1 c=67 v=0
497280 On ch=1 n=f5 v=65
497337 On ch=1 n=f5 v=0
497364 On ch=1 n=f#5 v=70
497413 On ch=1 n=f#5 v=0
497429 Par ch=1 c=64 v=0
497457 On ch=1 n=a#5 v=69
497457 On ch=1 n=c#6 v=71
497460 On ch=1 n=f#6 v=70
497460 On ch=1 n=e5 v=74
497484 On ch=1 n=a#5 v=0
497493 On ch=1 n=c#6 v=0
497500 On ch=1 n=f#6 v=0
497527 On ch=1 n=d#5 v=68
497533 On ch=1 n=e5 v=0
497600 On ch=1 n=f#5 v=69
497608 On ch=1 n=d#5 v=0
497656 On ch=1 n=f#5 v=0
497673 On ch=1 n=e5 v=70
497749 On ch=1 n=d5 v=73
497749 On ch=1 n=d6 v=66
497749 On ch=1 n=b5 v=71
497753 On ch=1 n=f#6 v=73
497784 On ch=1 n=d6 v=0
497784 On ch=1 n=e5 v=0
497788 On ch=1 n=b5 v=0
497817 On ch=1 n=c#5 v=71
497844 On ch=1 n=d5 v=0
497893 On ch=1 n=f#6 v=0
497909 On ch=1 n=c#5 v=0
497917 On ch=1 n=e5 v=63
497960 On ch=1 n=e5 v=0
497967 On ch=1 n=d5 v=60
498024 On ch=1 n=c#5 v=72
498053 On ch=1 n=e6 v=69
498053 On ch=1 n=f#6 v=76
498060 On ch=1 n=a#5 v=72
498077 On ch=1 n=d5 v=0
498077 On ch=1 n=c5 v=70
498093 On ch=1 n=a#5 v=0
498093 On ch=1 n=e6 v=0
498107 On ch=1 n=c#5 v=0
498136 On ch=1 n=c5 v=0
498136 On ch=1 n=f#6 v=0
498180 On ch=1 n=d5 v=65
498224 On ch=1 n=d5 v=0
498240 On ch=1 n=c#5 v=71
498300 On ch=1 n=c#5 v=0
498310 On ch=1 n=b4 v=66
498326 On ch=1 n=b5 v=72
498326 On ch=1 n=f#6 v=77
498341 On ch=1 n=d6 v=70
498361 On ch=1 n=a#4 v=73
498371 On ch=1 n=b4 v=0
498407 On ch=1 n=b5 v=0
498430 On ch=1 n=a#4 v=0
498434 On ch=1 n=c#5 v=61
498487 On ch=1 n=c#5 v=0
498521 On ch=1 n=b4 v=72
498610 On ch=1 n=b4 v=0
498614 On ch=1 n=a4 v=66
498638 On ch=1 n=c6 v=66
498646 On ch=1 n=f#5 v=52
498658 On ch=1 n=e6 v=62
498674 On ch=1 n=d6 v=0
498682 On ch=1 n=g#4 v=65
498698 On ch=1 n=f#5 v=0
498698 On ch=1 n=f#6 v=0
498701 On ch=1 n=a4 v=0
498718 On ch=1 n=c6 v=0
498741 On ch=1 n=g#4 v=0
498762 On ch=1 n=b4 v=62
498790 On ch=1 n=d6 v=64
498806 On ch=1 n=a4 v=65
498821 On ch=1 n=b4 v=0
498821 On ch=1 n=e6 v=0
498910 On ch=1 n=a4 v=0
498910 On ch=1 n=g4 v=70
498920 On ch=1 n=d6 v=0
498951 On ch=1 n=b5 v=71
498968 On ch=1 n=g6 v=78
498968 On ch=1 n=g5 v=73
498968 On ch=1 n=f#4 v=63
498994 On ch=1 n=g4 v=0
499027 On ch=1 n=a4 v=64
499037 On ch=1 n=f#4 v=0
499104 On ch=1 n=g6 v=0
499108 On ch=1 n=a4 v=0
499115 On ch=1 n=g4 v=57
499117 On ch=1 n=b5 v=0
499131 On ch=1 n=g5 v=0
499192 On ch=1 n=f4 v=65
499204 On ch=1 n=g4 v=0
499244 On ch=1 n=e4 v=64
499292 On ch=1 n=f4 v=0
499317 On ch=1 n=g4 v=65
499321 On ch=1 n=e4 v=0
499381 On ch=1 n=f4 v=60
499404 On ch=1 n=d5 v=76
499404 On ch=1 n=b4 v=76
499408 On ch=1 n=g4 v=0
499408 On ch=1 n=g5 v=76
499457 On ch=1 n=b4 v=0
499457 On ch=1 n=d5 v=0
499468 On ch=1 n=g5 v=0
499485 On ch=1 n=f4 v=0
499485 On ch=1 n=d#4 v=64
499528 On ch=1 n=d4 v=67
499536 On ch=1 n=c5 v=94
499544 On ch=1 n=g5 v=87
499548 On ch=1 n=d#5 v=83
499555 On ch=1 n=d#4 v=0
499575 On ch=1 n=d#5 v=0
499581 On ch=1 n=c5 v=0
499592 On ch=1 n=f4 v=66
499608 On ch=1 n=d4 v=0
499612 On ch=1 n=g5 v=0
499685 On ch=1 n=d#4 v=70
499688 On ch=1 n=f4 v=0
499785 On ch=1 n=d#4 v=0
499796 On ch=1 n=d4 v=59
499845 On ch=1 n=c#4 v=64
499848 On ch=1 n=d4 v=0
499857 On ch=1 n=f6 v=73
499868 On ch=1 n=b5 v=78
499872 On ch=1 n=g6 v=67
499896 On ch=1 n=d#4 v=59
499908 On ch=1 n=b5 v=0
499912 On ch=1 n=g6 v=0
499917 On ch=1 n=f6 v=0
499920 On ch=1 n=c#4 v=0
499992 On ch=1 n=d4 v=72
500024 On ch=1 n=d#4 v=0
500084 On ch=1 n=c4 v=64
500116 On ch=1 n=d4 v=0
500161 On ch=1 n=c6 v=79
500164 On ch=1 n=b3 v=68
500164 On ch=1 n=g6 v=76
500164 On ch=1 n=d#6 v=71
500192 On ch=1 n=d#6 v=0
500192 On ch=1 n=c4 v=0
500208 On ch=1 n=c6 v=0
500218 On ch=1 n=g6 v=0
500233 On ch=1 n=d4 v=44
500241 On ch=1 n=b3 v=0
500309 On ch=1 n=c4 v=65
500318 On ch=1 n=d4 v=0
500406 On ch=1 n=c4 v=0
500406 On ch=1 n=a#3 v=69
500465 On ch=1 n=g5 v=85
500465 On ch=1 n=g6 v=85
500465 On ch=1 n=d6 v=77
500469 On ch=1 n=a3 v=67
500486 On ch=1 n=a#3 v=0
500489 On ch=1 n=d6 v=0
500501 On ch=1 n=g5 v=0
500511 On ch=1 n=g6 v=0
500530 On ch=1 n=c4 v=59
500551 On ch=1 n=a3 v=0
500614 On ch=1 n=a#3 v=72
500618 On ch=1 n=c4 v=0
500674 On ch=1 n=g#3 v=64
500706 On ch=1 n=a#3 v=0
500750 On ch=1 n=g3 v=64
500759 On ch=1 n=g6 v=91
500759 On ch=1 n=c6 v=83
500766 On ch=1 n=g5 v=85
500771 On ch=1 n=g#3 v=0
500786 On ch=1 n=g3 v=0
500819 On ch=1 n=a#3 v=67
500835 On ch=1 n=c6 v=0
500835 On ch=1 n=g6 v=0
500850 On ch=1 n=g5 v=0
500860 Par ch=1 c=64 v=127
500906 On ch=1 n=g#3 v=64
500916 On ch=1 n=a#3 v=0
500992 On ch=1 n=g#3 v=0
500992 On ch=1 n=g3 v=70
501052 Par ch=1 c=64 v=0
501062 On ch=1 n=f#3 v=69
501062 On ch=1 n=c6 v=58
501062 On ch=1 n=f6 v=69
501070 On ch=1 n=g#5 v=66
501077 On ch=1 n=g3 v=0
501126 On ch=1 n=g#3 v=65
501129 On ch=1 n=f#3 v=0
501146 On ch=1 n=g#5 v=0
501161 On ch=1 n=c6 v=0
501205 On ch=1 n=d#6 v=75
501220 On ch=1 n=g#3 v=0
501230 On ch=1 n=g3 v=70
501280 On ch=1 n=f6 v=0
501337 On ch=1 n=g3 v=0
501346 On ch=1 n=d#6 v=0
501346 On ch=1 n=f3 v=41
501374 On ch=1 n=c6 v=73
501382 On ch=1 n=g#5 v=82
501382 On ch=1 n=g#6 v=88
501385 On ch=1 n=e3 v=69
501410 On ch=1 n=f3 v=0
501446 On ch=1 n=g3 v=36
501453 Par ch=1 c=64 v=127
501480 On ch=1 n=g#6 v=0
501482 On ch=1 n=e3 v=0
501482 On ch=1 n=c6 v=0
501489 On ch=1 n=g#5 v=0
501510 On ch=1 n=f3 v=70
501522 On ch=1 n=g3 v=0
501606 On ch=1 n=f3 v=0
501613 On ch=1 n=e3 v=65
501653 On ch=1 n=d3 v=59
501670 On ch=1 n=e3 v=0
501681 On ch=1 n=f3 v=63
501709 On ch=1 n=d3 v=0
501757 On ch=1 n=d#3 v=75
501793 On ch=1 n=f3 v=0
501813 On ch=1 n=f#5 v=73
501830 On ch=1 n=g#5 v=68
501834 On ch=1 n=c5 v=65
501862 On ch=1 n=c5 v=0
501901 On ch=1 n=g#5 v=0
501902 On ch=1 n=f#5 v=0
501902 On ch=1 n=d#3 v=0
501950 On ch=1 n=c#3 v=75
501950 On ch=1 n=g#5 v=66
501953 On ch=1 n=f5 v=77
501961 On ch=1 n=c#5 v=84
501962 Par ch=1 c=64 v=0
501980 On ch=1 n=f5 v=0
501994 On ch=1 n=c#5 v=0
502022 On ch=1 n=c#3 v=0
502025 On ch=1 n=g#5 v=0
502277 On ch=1 n=b4 v=61
502277 On ch=1 n=g#5 v=71
502293 Par ch=1 c=67 v=127
502313 On ch=1 n=f#6 v=62
502321 On ch=1 n=c#6 v=52
502329 On ch=1 n=b4 v=0
502340 On ch=1 n=a#4 v=63
502361 Par ch=1 c=64 v=127
502366 On ch=1 n=g#5 v=0
502377 On ch=1 n=a#4 v=0
502414 On ch=1 n=c#6 v=0
502414 On ch=1 n=f6 v=66
502421 On ch=1 n=f#6 v=0
502440 On ch=1 n=c#5 v=68
502477 On ch=1 n=c#5 v=0
502477 On ch=1 n=f6 v=0
502526 On ch=1 n=b4 v=69
502542 On ch=1 n=c5 v=31
502594 On ch=1 n=a4 v=65
502597 On ch=1 n=c#6 v=93
502601 On ch=1 n=c#7 v=92
502602 On ch=1 n=c5 v=0
502602 On ch=1 n=b4 v=0
502606 Par ch=1 c=67 v=0
502641 On ch=1 n=c#7 v=0
502650 On ch=1 n=c#6 v=0
502650 On ch=1 n=g#4 v=69
502673 On ch=1 n=a4 v=0
502697 On ch=1 n=g#4 v=0
502725 On ch=1 n=b4 v=69
502761 On ch=1 n=a4 v=64
502781 On ch=1 n=b4 v=0
502842 On ch=1 n=g#4 v=76
502873 On ch=1 n=a4 v=0
502902 On ch=1 n=g4 v=74
502937 On ch=1 n=g#4 v=0
502966 Par ch=1 c=64 v=0
502981 On ch=1 n=a4 v=75
502993 On ch=1 n=g4 v=0
503029 On ch=1 n=b5 v=83
503040 On ch=1 n=f5 v=75
503046 On ch=1 n=c#5 v=84
503073 On ch=1 n=a4 v=0
503073 On ch=1 n=g#4 v=75
503120 On ch=1 n=c#5 v=0
503120 On ch=1 n=b5 v=0
503130 On ch=1 n=f5 v=0
503157 On ch=1 n=f#4 v=68
503163 On ch=1 n=g#4 v=0
503170 On ch=1 n=a5 v=76
503178 On ch=1 n=c#5 v=88
503178 On ch=1 n=f#5 v=69
503197 On ch=1 n=f4 v=67
503223 On ch=1 n=c#5 v=0
503258 On ch=1 n=f#5 v=0
503258 On ch=1 n=f#4 v=0
503270 On ch=1 n=a5 v=0
503278 On ch=1 n=f4 v=0
503303 On ch=1 n=g#4 v=57
503390 On ch=1 n=g#4 v=0
503402 On ch=1 n=f#4 v=63
503486 On ch=1 n=e4 v=59
503497 On ch=1 n=f#4 v=0
503497 On ch=1 n=b6 v=82
503497 On ch=1 n=c#6 v=75
503514 On ch=1 n=g#6 v=61
503546 On ch=1 n=c#6 v=0
503556 On ch=1 n=d#4 v=70
503564 On ch=1 n=g#6 v=0
503564 On ch=1 n=e4 v=0
503600 On ch=1 n=b6 v=0
503608 On ch=1 n=f#4 v=57
503615 On ch=1 n=a6 v=71
503631 On ch=1 n=d#4 v=0
503660 On ch=1 n=f#4 v=0
503683 On ch=1 n=a6 v=0
503715 On ch=1 n=e4 v=74
503803 On ch=1 n=d4 v=67
503824 On ch=1 n=e4 v=0
503835 On ch=1 n=f#6 v=94
503835 On ch=1 n=f#7 v=95
503851 On ch=1 n=c#4 v=67
503874 Par ch=1 c=64 v=127
503884 On ch=1 n=f#6 v=0
503895 On ch=1 n=f#7 v=0
503903 On ch=1 n=d4 v=0
503923 On ch=1 n=e4 v=58
503934 On ch=1 n=c#4 v=0
503996 On ch=1 n=d4 v=54
504015 On ch=1 n=e4 v=0
504075 On ch=1 n=c#4 v=67
504128 On ch=1 n=d4 v=0
504164 On ch=1 n=c4 v=74
504207 On ch=1 n=c#4 v=0
504243 On ch=1 n=d4 v=72
504243 On ch=1 n=a#5 v=80
504243 On ch=1 n=e6 v=84
504247 On ch=1 n=f#5 v=82
504274 On ch=1 n=c4 v=0
504334 On ch=1 n=f#5 v=0
504356 On ch=1 n=e6 v=0
504356 On ch=1 n=c#4 v=77
504356 Par ch=1 c=64 v=0
504367 On ch=1 n=d4 v=0
504374 On ch=1 n=b3 v=79
504374 On ch=1 n=d6 v=82
504374 On ch=1 n=b5 v=64
504374 On ch=1 n=f#5 v=80
504435 On ch=1 n=a#3 v=80
504447 On ch=1 n=f#5 v=0
504456 On ch=1 n=b3 v=0
504516 On ch=1 n=b5 v=0
504516 On ch=1 n=d6 v=0
504567 On ch=1 n=c#4 v=0
504577 On ch=1 n=b3 v=85
504608 On ch=1 n=a#3 v=0
504620 On ch=1 n=a#5 v=0
504668 On ch=1 n=a3 v=81
504668 On ch=1 n=f#6 v=88
504668 On ch=1 n=d#6 v=90
504671 On ch=1 n=d#7 v=88
504717 On ch=1 n=b3 v=0
504728 On ch=1 n=d#6 v=0
504744 On ch=1 n=a3 v=0
504751 On ch=1 n=f#6 v=0
504772 On ch=1 n=d#7 v=0
504780 On ch=1 n=g#3 v=85
504848 On ch=1 n=g#3 v=0
504858 On ch=1 n=b3 v=83
504917 On ch=1 n=b3 v=0
504927 On ch=1 n=a3 v=88
504990 On ch=1 n=g3 v=88
504990 On ch=1 n=g6 v=96
504994 On ch=1 n=e7 v=95
504994 On ch=1 n=e6 v=92
505034 On ch=1 n=g6 v=0
505038 On ch=1 n=a3 v=0
505041 On ch=1 n=e6 v=0
505041 On ch=1 n=g3 v=0
505058 On ch=1 n=e7 v=0
505058 On ch=1 n=b3 v=87
505079 On ch=1 n=b3 v=0
505111 On ch=1 n=e4 v=86
505138 On ch=1 n=e4 v=0
505167 On ch=1 n=g4 v=84
505198 On ch=1 n=g4 v=0
505299 On ch=1 n=g6 v=87
505299 On ch=1 n=b6 v=90
505299 On ch=1 n=b4 v=87
505299 On ch=1 n=g7 v=79
505306 Par ch=1 c=64 v=127
505318 On ch=1 n=e5 v=82
505338 On ch=1 n=b4 v=0
505342 On ch=1 n=e5 v=0
505358 On ch=1 n=g7 v=0
505365 On ch=1 n=g6 v=0
505375 On ch=1 n=b6 v=0
505415 On ch=1 n=g5 v=85
505455 On ch=1 n=g5 v=0
505638 On ch=1 n=e7 v=95
505638 On ch=1 n=d7 v=83
505638 On ch=1 n=e6 v=100
505642 On ch=1 n=a#4 v=83
505686 On ch=1 n=a#4 v=0
505871 On ch=1 n=d6 v=82
505915 On ch=1 n=d6 v=0
506002 On ch=1 n=c#7 v=86
506018 On ch=1 n=a4 v=86
506027 Par ch=1 c=64 v=0
506058 On ch=1 n=a4 v=0
506142 On ch=1 n=d7 v=0
506178 On ch=1 n=c#6 v=87
506207 On ch=1 n=c#6 v=0
506207 On ch=1 n=c#7 v=0
506327 On ch=1 n=e6 v=0
506327 On ch=1 n=c7 v=79
506327 On ch=1 n=g#4 v=88
506358 On ch=1 n=g#4 v=0
506358 On ch=1 n=e7 v=0
506478 On ch=1 n=c6 v=81
506525 On ch=1 n=c6 v=0
506571 On ch=1 n=c7 v=0
506599 On ch=1 n=g4 v=82
506627 On ch=1 n=f6 v=79
506627 On ch=1 n=f7 v=83
506627 On ch=1 n=b6 v=80
506662 On ch=1 n=g4 v=0
506678 On ch=1 n=b6 v=0
506687 On ch=1 n=f6 v=0
506705 On ch=1 n=f7 v=0
506726 On ch=1 n=b5 v=61
506747 On ch=1 n=b5 v=0
506851 On ch=1 n=f#4 v=78
506866 On ch=1 n=c#5 v=66
506874 On ch=1 n=f#4 v=0
506925 On ch=1 n=f#7 v=120
506925 On ch=1 n=f#6 v=110
506931 On ch=1 n=c#7 v=100
506942 On ch=1 n=a#5 v=110
506942 On ch=1 n=a#6 v=99
506942 Par ch=1 c=64 v=127
506987 On ch=1 n=a#5 v=0
506991 On ch=1 n=f#7 v=0
507002 On ch=1 n=a#6 v=0
507002 On ch=1 n=c#7 v=0
507002 On ch=1 n=f#6 v=0
507034 On ch=1 n=c#5 v=0
507267 On ch=1 n=c#6 v=83
507267 On ch=1 n=f#6 v=80
507267 On ch=1 n=a#5 v=80
507271 On ch=1 n=e5 v=65
507271 On ch=1 n=e4 v=62
507271 On ch=1 n=f#5 v=85
507298 On ch=1 n=e5 v=0
507302 On ch=1 n=e4 v=0
507319 Par ch=1 c=64 v=0
507334 On ch=1 n=f#6 v=0
507342 On ch=1 n=c#6 v=0
507352 On ch=1 n=a#5 v=0
507363 On ch=1 n=f#5 v=0
507435 On ch=1 n=f#4 v=63
507435 On ch=1 n=f#5 v=75
507475 On ch=1 n=f#4 v=0
507508 On ch=1 n=f#5 v=0
507583 On ch=1 n=f#6 v=79
507588 On ch=1 n=d4 v=80
507588 On ch=1 n=d6 v=65
507588 On ch=1 n=f#5 v=82
507591 On ch=1 n=d5 v=77
507595 On ch=1 n=b5 v=66
507623 On ch=1 n=d6 v=0
507631 On ch=1 n=b5 v=0
507631 On ch=1 n=d5 v=0
507643 On ch=1 n=d4 v=0
507659 On ch=1 n=f#5 v=0
507659 On ch=1 n=f#6 v=0
507735 On ch=1 n=e5 v=77
507743 On ch=1 n=e4 v=70
507753 On ch=1 n=e5 v=0
507768 On ch=1 n=e4 v=0
507865 On ch=1 n=a#5 v=84
507872 On ch=1 n=e6 v=80
507872 On ch=1 n=f#5 v=82
507876 On ch=1 n=c#5 v=78
507880 On ch=1 n=c#4 v=77
507888 On ch=1 n=f#6 v=76
507909 On ch=1 n=c#4 v=0
507920 On ch=1 n=c#5 v=0
507921 On ch=1 n=f#5 v=0
507932 On ch=1 n=a#5 v=0
507981 On ch=1 n=f#6 v=0
507981 On ch=1 n=e6 v=0
508021 On ch=1 n=d4 v=71
508025 On ch=1 n=d5 v=73
508056 On ch=1 n=d5 v=0
508060 On ch=1 n=d4 v=0
508159 On ch=1 n=b5 v=83
508159 On ch=1 n=f#6 v=89
508169 On ch=1 n=f#5 v=90
508172 Par ch=1 c=64 v=127
508176 On ch=1 n=d6 v=65
508180 On ch=1 n=b4 v=93
508185 On ch=1 n=b3 v=91
508199 On ch=1 n=d6 v=0
508209 On ch=1 n=b5 v=0
508218 On ch=1 n=b3 v=0
508218 On ch=1 n=b4 v=0
508225 On ch=1 n=f#5 v=0
508257 On ch=1 n=f#6 v=0
508473 On ch=1 n=e5 v=71
508478 On ch=1 n=f#4 v=73
508478 On ch=1 n=a3 v=86
508486 On ch=1 n=a2 v=84
508538 On ch=1 n=a2 v=0
508538 On ch=1 n=a3 v=0
508538 On ch=1 n=e5 v=0
508553 On ch=1 n=f#4 v=0
508629 On ch=1 n=d5 v=57
508633 On ch=1 n=b3 v=91
508633 On ch=1 n=b2 v=90
508676 On ch=1 n=b3 v=0
508678 On ch=1 n=b2 v=0
508693 On ch=1 n=d5 v=0
508726 Par ch=1 c=64 v=0
508769 On ch=1 n=b4 v=90
508779 On ch=1 n=g5 v=90
508779 On ch=1 n=g2 v=94
508783 On ch=1 n=g3 v=95
508783 On ch=1 n=g4 v=84
508806 On ch=1 n=g4 v=0
508813 On ch=1 n=b4 v=0
508834 On ch=1 n=g3 v=0
508834 On ch=1 n=g2 v=0
508873 On ch=1 n=g5 v=0
508926 On ch=1 n=a3 v=95
508926 On ch=1 n=a2 v=95
508970 On ch=1 n=a2 v=0
508970 On ch=1 n=a3 v=0
509063 On ch=1 n=b5 v=78
509066 On ch=1 n=f3 v=100
509075 On ch=1 n=d6 v=72
509075 On ch=1 n=f2 v=97
509075 On ch=1 n=g6 v=90
509106 On ch=1 n=b5 v=0
509114 On ch=1 n=f3 v=0
509122 On ch=1 n=f2 v=0
509122 On ch=1 n=d6 v=0
509170 On ch=1 n=g6 v=0
509209 On ch=1 n=g3 v=92
509209 On ch=1 n=g2 v=89
509254 On ch=1 n=g3 v=0
509255 On ch=1 n=g2 v=0
509363 On ch=1 n=d#2 v=91
509363 On ch=1 n=d#3 v=98
509366 On ch=1 n=c7 v=100
509374 On ch=1 n=g6 v=110
509374 On ch=1 n=g7 v=120
509374 On ch=1 n=d#7 v=110
509390 On ch=1 n=d#2 v=0
509390 Par ch=1 c=64 v=127
509406 On ch=1 n=d#3 v=0
509410 On ch=1 n=d#7 v=0
509422 On ch=1 n=c7 v=0
509432 On ch=1 n=g6 v=0
509464 On ch=1 n=g7 v=0
509676 On ch=1 n=d5 v=64
509687 On ch=1 n=d4 v=63
509687 On ch=1 n=b5 v=54
509687 On ch=1 n=g6 v=82
509703 On ch=1 n=g5 v=76
509703 On ch=1 n=f6 v=72
509713 On ch=1 n=d4 v=0
509713 On ch=1 n=d5 v=0
509736 On ch=1 n=g5 v=0
509747 On ch=1 n=b5 v=0
509787 On ch=1 n=g6 v=0
509787 Par ch=1 c=64 v=0
509797 On ch=1 n=f6 v=0
509820 On ch=1 n=d#4 v=66
509824 On ch=1 n=d#5 v=68
509860 On ch=1 n=d#5 v=0
509860 On ch=1 n=d#4 v=0
509960 On ch=1 n=c4 v=82
509968 On ch=1 n=c5 v=76
509977 On ch=1 n=d#6 v=75
509977 On ch=1 n=c6 v=81
509977 On ch=1 n=g5 v=81
509977 On ch=1 n=g6 v=90
510007 On ch=1 n=c5 v=0
510032 On ch=1 n=d#6 v=0
510040 On ch=1 n=g5 v=0
510040 On ch=1 n=c4 v=0
510049 On ch=1 n=c6 v=0
510109 On ch=1 n=d5 v=81
510117 On ch=1 n=g6 v=0
510117 On ch=1 n=d4 v=71
510137 On ch=1 n=d5 v=0
510160 On ch=1 n=d4 v=0
510252 On ch=1 n=g5 v=89
510264 On ch=1 n=g6 v=82
510267 On ch=1 n=d6 v=86
510267 On ch=1 n=a#4 v=85
510273 On ch=1 n=a#3 v=78
510296 On ch=1 n=a#3 v=0
510313 On ch=1 n=a#4 v=0
510320 On ch=1 n=g5 v=0
510332 On ch=1 n=d6 v=0
510408 On ch=1 n=g6 v=0
510416 On ch=1 n=c5 v=79
510424 On ch=1 n=c4 v=72
510433 On ch=1 n=c5 v=0
510447 On ch=1 n=c4 v=0
510541 On ch=1 n=c6 v=83
510541 On ch=1 n=g5 v=83
510556 On ch=1 n=g6 v=81
510564 On ch=1 n=g#3 v=95
510569 On ch=1 n=g#4 v=92
510573 On ch=1 n=c6 v=0
510580 Par ch=1 c=64 v=127
510588 On ch=1 n=g#4 v=0
510588 On ch=1 n=g#3 v=0
510600 On ch=1 n=g5 v=0
510649 On ch=1 n=g6 v=0
510720 On ch=1 n=a#2 v=88
510723 On ch=1 n=a#3 v=89
510757 On ch=1 n=a#3 v=0
510764 On ch=1 n=a#2 v=0
510856 On ch=1 n=f5 v=71
510856 On ch=1 n=g3 v=100
510860 On ch=1 n=c5 v=70
510864 On ch=1 n=g2 v=101
510864 On ch=1 n=g#4 v=79
510907 On ch=1 n=g3 v=0
510924 On ch=1 n=g2 v=0
510929 On ch=1 n=g#4 v=0
510937 On ch=1 n=f5 v=0
510953 On ch=1 n=c5 v=0
510960 Par ch=1 c=64 v=0
510993 On ch=1 n=d#5 v=75
511008 On ch=1 n=g#3 v=102
511009 On ch=1 n=g#2 v=100
511053 On ch=1 n=g#2 v=0
511068 On ch=1 n=g#3 v=0
511097 On ch=1 n=d#5 v=0
511144 On ch=1 n=g#4 v=86
511144 On ch=1 n=c5 v=76
511156 On ch=1 n=g#5 v=92
511156 On ch=1 n=f3 v=103
511156 On ch=1 n=f2 v=100
511187 On ch=1 n=c5 v=0
511197 On ch=1 n=f3 v=0
511204 On ch=1 n=g#4 v=0
511209 On ch=1 n=f2 v=0
511248 On ch=1 n=g#5 v=0
511308 On ch=1 n=g3 v=108
511313 On ch=1 n=g2 v=109
511336 On ch=1 n=g3 v=0
511361 On ch=1 n=g2 v=0
511444 On ch=1 n=d#3 v=120
511448 On ch=1 n=d#2 v=127
511456 On ch=1 n=c6 v=77
511456 On ch=1 n=g#5 v=80
511460 On ch=1 n=g#6 v=95
511463 On ch=1 n=f#6 v=76
511473 On ch=1 n=c6 v=0
511484 On ch=1 n=g#5 v=0
511487 On ch=1 n=d#2 v=0
511504 On ch=1 n=d#3 v=0
511528 On ch=1 n=f#6 v=0
511567 On ch=1 n=g#6 v=0
511588 On ch=1 n=f3 v=94
511588 On ch=1 n=f2 v=94
511633 On ch=1 n=f3 v=0
511640 On ch=1 n=f2 v=0
511756 On ch=1 n=g#7 v=95
511756 On ch=1 n=f7 v=81
511760 On ch=1 n=c#3 v=127
511760 On ch=1 n=c#7 v=92
511760 On ch=1 n=c#2 v=127
511764 On ch=1 n=g#6 v=100
511773 Par ch=1 c=64 v=127
511788 On ch=1 n=c#2 v=0
511844 On ch=1 n=f7 v=0
511848 On ch=1 n=c#7 v=0
511848 On ch=1 n=c#3 v=0
511853 On ch=1 n=g#6 v=0
511876 On ch=1 n=g#7 v=0
512060 On ch=1 n=b4 v=74
512076 On ch=1 n=b3 v=72
512076 On ch=1 n=f#6 v=100
512088 On ch=1 n=g#5 v=60
512104 On ch=1 n=c#6 v=73
512113 On ch=1 n=b4 v=0
512128 On ch=1 n=g#5 v=0
512133 On ch=1 n=b3 v=0
512169 On ch=1 n=c#6 v=0
512169 On ch=1 n=f#6 v=0
512209 On ch=1 n=f6 v=99
512217 Par ch=1 c=64 v=0
512221 On ch=1 n=c#4 v=74
512221 On ch=1 n=c#5 v=80
512249 On ch=1 n=c#5 v=0
512249 On ch=1 n=f6 v=0
512252 On ch=1 n=c#4 v=0
512352 On ch=1 n=c#7 v=115
512367 On ch=1 n=c#6 v=100
512367 On ch=1 n=a4 v=88
512373 On ch=1 n=a3 v=86
512373 On ch=1 n=d#6 v=66
512400 On ch=1 n=c#6 v=0
512400 On ch=1 n=c#7 v=0
512404 On ch=1 n=d#6 v=0
512404 On ch=1 n=a3 v=0
512412 On ch=1 n=a4 v=0
512520 On ch=1 n=b3 v=78
512520 On ch=1 n=b4 v=77
512548 On ch=1 n=b3 v=0
512573 On ch=1 n=b4 v=0
512648 On ch=1 n=b5 v=79
512649 On ch=1 n=g#3 v=80
512653 On ch=1 n=g#4 v=86
512657 On ch=1 n=c#5 v=77
512657 On ch=1 n=f5 v=75
512693 On ch=1 n=g#3 v=0
512708 On ch=1 n=g#4 v=0
512720 On ch=1 n=f5 v=0
512720 On ch=1 n=c#5 v=0
512737 On ch=1 n=b5 v=0
512788 On ch=1 n=a4 v=86
512792 On ch=1 n=a3 v=75
512828 On ch=1 n=a3 v=0
512828 On ch=1 n=a4 v=0
512924 On ch=1 n=f#4 v=90
512929 On ch=1 n=f#3 v=81
512932 On ch=1 n=c#5 v=85
512932 On ch=1 n=f#5 v=85
512936 On ch=1 n=a5 v=81
512973 On ch=1 n=c#5 v=0
512973 On ch=1 n=f#3 v=0
512973 On ch=1 n=f#4 v=0
512997 On ch=1 n=f#5 v=0
513001 On ch=1 n=a5 v=0
513069 On ch=1 n=g4 v=88
513077 On ch=1 n=g3 v=84
513108 On ch=1 n=g3 v=0
513108 On ch=1 n=g4 v=0
513228 On ch=1 n=e4 v=87
513228 On ch=1 n=b6 v=84
513229 On ch=1 n=c#6 v=81
513233 On ch=1 n=e3 v=76
513241 On ch=1 n=g#6 v=77
513257 On ch=1 n=e3 v=0
513268 On ch=1 n=c#6 v=0
513273 On ch=1 n=g#6 v=0
513276 On ch=1 n=e4 v=0
513353 On ch=1 n=a6 v=74
513353 On ch=1 n=f#4 v=90
513360 On ch=1 n=f#3 v=81
513368 On ch=1 n=b6 v=0
513376 On ch=1 n=a6 v=0
513400 On ch=1 n=f#3 v=0
513407 On ch=1 n=f#4 v=0
513500 Par ch=1 c=64 v=127
513507 On ch=1 n=f#7 v=115
513517 On ch=1 n=f#6 v=109
513517 On ch=1 n=d4 v=98
513521 On ch=1 n=d3 v=92
513544 On ch=1 n=f#6 v=0
513547 On ch=1 n=d4 v=0
513564 On ch=1 n=d3 v=0
513573 On ch=1 n=f#7 v=0
513640 On ch=1 n=e4 v=89
513648 On ch=1 n=e3 v=90
513667 Par ch=1 c=64 v=0
513689 On ch=1 n=e4 v=0
513697 On ch=1 n=e3 v=0
513780 On ch=1 n=c#4 v=88
513780 On ch=1 n=a#5 v=78
513796 On ch=1 n=e6 v=85
513800 On ch=1 n=f#5 v=84
513800 On ch=1 n=c#3 v=70
513840 On ch=1 n=c#3 v=0
513844 On ch=1 n=f#5 v=0
513844 On ch=1 n=c#4 v=0
513860 On ch=1 n=a#5 v=0
513916 On ch=1 n=e6 v=0
513920 On ch=1 n=d4 v=90
513920 On ch=1 n=d3 v=88
513963 On ch=1 n=d3 v=0
513963 On ch=1 n=d4 v=0
514064 On ch=1 n=b5 v=85
514076 On ch=1 n=d6 v=82
514076 On ch=1 n=b3 v=96
514076 On ch=1 n=b2 v=90
514076 On ch=1 n=f#5 v=80
514109 On ch=1 n=b2 v=0
514120 On ch=1 n=b3 v=0
514120 On ch=1 n=b5 v=0
514128 On ch=1 n=f#5 v=0
514128 On ch=1 n=d6 v=0
514204 On ch=1 n=c#4 v=86
514204 On ch=1 n=c#3 v=80
514247 On ch=1 n=c#3 v=0
514268 On ch=1 n=c#4 v=0
514344 On ch=1 n=f#6 v=73
514349 On ch=1 n=d#7 v=90
514349 On ch=1 n=d#6 v=86
514352 On ch=1 n=a3 v=95
514352 On ch=1 n=a2 v=92
514396 On ch=1 n=a3 v=0
514396 On ch=1 n=d#6 v=0
514407 On ch=1 n=a2 v=0
514407 On ch=1 n=f#6 v=0
514500 On ch=1 n=d#7 v=0
514500 On ch=1 n=b3 v=83
514500 On ch=1 n=b2 v=86
514529 On ch=1 n=b3 v=0
514544 On ch=1 n=b2 v=0
514648 On ch=1 n=g6 v=96
514648 On ch=1 n=e6 v=94
514652 On ch=1 n=e7 v=92
514652 On ch=1 n=g3 v=98
514652 On ch=1 n=g2 v=99
514689 On ch=1 n=g6 v=0
514693 On ch=1 n=g3 v=0
514693 Par ch=1 c=64 v=127
514708 On ch=1 n=g2 v=0
514724 On ch=1 n=e6 v=0
514747 On ch=1 n=e7 v=0
514861 On ch=1 n=b2 v=96
514861 On ch=1 n=b3 v=96
514904 On ch=1 n=b3 v=0
514912 On ch=1 n=b2 v=0
515023 On ch=1 n=b6 v=95
515027 On ch=1 n=g7 v=94
515037 On ch=1 n=g6 v=89
515041 On ch=1 n=e4 v=103
515041 On ch=1 n=e3 v=102
515081 On ch=1 n=e4 v=0
515101 On ch=1 n=e3 v=0
515101 On ch=1 n=b6 v=0
515113 On ch=1 n=g6 v=0
515145 On ch=1 n=g7 v=0
515217 On ch=1 n=g3 v=98
515217 On ch=1 n=g4 v=98
515261 On ch=1 n=g4 v=0
515277 On ch=1 n=g3 v=0
515361 Par ch=1 c=64 v=0
515377 On ch=1 n=d7 v=87
515377 On ch=1 n=e6 v=97
515377 On ch=1 n=e7 v=95
515377 On ch=1 n=a#3 v=91
515381 On ch=1 n=a#4 v=97
515425 On ch=1 n=a#4 v=0
515458 On ch=1 n=a#3 v=0
515458 On ch=1 n=e6 v=0
515497 On ch=1 n=e7 v=0
515513 On ch=1 n=d7 v=0
515513 Par ch=1 c=64 v=127
515626 On ch=1 n=a2 v=90
515721 On ch=1 n=c#7 v=86
515725 On ch=1 n=a7 v=90
515730 On ch=1 n=a6 v=82
515741 On ch=1 n=a3 v=84
515757 On ch=1 n=a2 v=0
515784 On ch=1 n=a7 v=0
515790 On ch=1 n=c#7 v=0
515801 On ch=1 n=a3 v=0
515805 On ch=1 n=a6 v=0
515941 On ch=1 n=c4 v=78
515966 On ch=1 n=d4 v=55
516061 On ch=1 n=e5 v=76
516066 On ch=1 n=f#5 v=78
516069 On ch=1 n=c5 v=50
516073 On ch=1 n=a4 v=73
516106 On ch=1 n=d4 v=0
516114 On ch=1 n=c5 v=0
516121 On ch=1 n=c4 v=0
516153 On ch=1 n=a4 v=0
516257 Par ch=1 c=64 v=0
516257 On ch=1 n=b2 v=84
516264 On ch=1 n=f#5 v=0
516266 On ch=1 n=e5 v=0
516350 On ch=1 n=a4 v=80
516353 On ch=1 n=b5 v=85
516357 On ch=1 n=d#5 v=85
516357 On ch=1 n=b3 v=73
516374 On ch=1 n=b2 v=0
516405 On ch=1 n=b3 v=0
516415 On ch=1 n=a4 v=0
516446 On ch=1 n=d#5 v=0
516461 On ch=1 n=b5 v=0
516483 Par ch=1 c=64 v=127
516534 On ch=1 n=d4 v=90
516654 On ch=1 n=g#5 v=98
516654 On ch=1 n=g#6 v=92
516654 On ch=1 n=d5 v=60
516662 On ch=1 n=f#6 v=90
516683 On ch=1 n=d5 v=0
516683 On ch=1 n=d4 v=0
516690 On ch=1 n=g#5 v=0
516715 On ch=1 n=f#6 v=0
516715 On ch=1 n=g#6 v=0
516818 On ch=1 n=c#3 v=88
516854 Par ch=1 c=64 v=0
516911 On ch=1 n=c#4 v=78
516927 On ch=1 n=c#3 v=0
516950 On ch=1 n=c#7 v=90
516954 On ch=1 n=c#6 v=96
516954 On ch=1 n=f6 v=89
516974 On ch=1 n=c#4 v=0
517003 On ch=1 n=f6 v=0
517022 Par ch=1 c=64 v=127
517043 On ch=1 n=c#6 v=0
517043 On ch=1 n=c#7 v=0
517102 On ch=1 n=f4 v=83
517163 On ch=1 n=f4 v=0
517223 On ch=1 n=b5 v=93
517227 On ch=1 n=a5 v=93
517238 On ch=1 n=d5 v=89
517314 On ch=1 n=d5 v=0
517354 On ch=1 n=e3 v=84
517383 Par ch=1 c=64 v=0
517414 On ch=1 n=b5 v=0
517417 On ch=1 n=a5 v=0
517443 On ch=1 n=e3 v=0
517462 On ch=1 n=e4 v=45
517494 On ch=1 n=d5 v=85
517503 On ch=1 n=e6 v=90
517503 On ch=1 n=g#5 v=88
517518 On ch=1 n=e4 v=0
517538 On ch=1 n=d5 v=0
517554 On ch=1 n=g#5 v=0
517578 Par ch=1 c=64 v=127
517594 On ch=1 n=e6 v=0
517631 On ch=1 n=a#4 v=85
517747 On ch=1 n=a#5 v=80
517778 On ch=1 n=e6 v=94
517787 On ch=1 n=a#5 v=0
517791 On ch=1 n=a#4 v=0
517791 On ch=1 n=e7 v=90
517795 On ch=1 n=d7 v=72
517795 On ch=1 n=c7 v=73
517818 On ch=1 n=c7 v=0
517821 On ch=1 n=e6 v=0
517838 On ch=1 n=d7 v=0
517863 On ch=1 n=e7 v=0
517935 On ch=1 n=a3 v=92
517987 Par ch=1 c=64 v=0
518023 On ch=1 n=a4 v=84
518037 On ch=1 n=c#7 v=98
518054 On ch=1 n=a7 v=92
518054 On ch=1 n=a6 v=88
518062 On ch=1 n=a3 v=0
518101 On ch=1 n=a4 v=0
518111 On ch=1 n=c#7 v=0
518115 On ch=1 n=a7 v=0
518119 On ch=1 n=a6 v=0
518175 Par ch=1 c=64 v=127
518219 On ch=1 n=c5 v=91
518279 On ch=1 n=c5 v=0
518295 On ch=1 n=f#6 v=80
518307 On ch=1 n=a5 v=84
518318 On ch=1 n=e6 v=74
518432 On ch=1 n=a5 v=0
518451 On ch=1 n=b3 v=85
518499 On ch=1 n=f#6 v=0
518511 On ch=1 n=e6 v=0
518535 Par ch=1 c=64 v=0
518539 On ch=1 n=b3 v=0
518559 On ch=1 n=b4 v=66
518559 On ch=1 n=a5 v=90
518575 On ch=1 n=b6 v=88
518575 On ch=1 n=d#6 v=77
518585 On ch=1 n=b4 v=0
518616 On ch=1 n=d#6 v=0
518616 On ch=1 n=a5 v=0
518676 On ch=1 n=b6 v=0
518705 Par ch=1 c=64 v=127
518717 On ch=1 n=d5 v=85
518824 On ch=1 n=g#6 v=90
518828 On ch=1 n=g#7 v=92
518837 On ch=1 n=d5 v=0
518837 On ch=1 n=f#7 v=88
518872 On ch=1 n=g#6 v=0
518904 On ch=1 n=g#7 v=0
518915 On ch=1 n=f#7 v=0
518957 On ch=1 n=c#4 v=86
519048 On ch=1 n=c#5 v=80
519051 On ch=1 n=c#4 v=0
519072 On ch=1 n=f7 v=91
519072 On ch=1 n=c#8 v=94
519080 On ch=1 n=c#7 v=95
519095 On ch=1 n=c#5 v=0
519135 On ch=1 n=f7 v=0
519137 On ch=1 n=c#8 v=0
519148 On ch=1 n=c#7 v=0
519212 On ch=1 n=f5 v=86
519271 On ch=1 n=f5 v=0
519317 On ch=1 n=b6 v=90
519321 On ch=1 n=a6 v=86
519332 On ch=1 n=d6 v=88
519381 Par ch=1 c=64 v=0
519437 On ch=1 n=d6 v=0
519448 On ch=1 n=e4 v=81
519495 On ch=1 n=a6 v=0
519497 On ch=1 n=b6 v=0
519497 On ch=1 n=f4 v=29
519537 On ch=1 n=e4 v=0
519556 Par ch=1 c=64 v=127
519560 On ch=1 n=e5 v=67
519568 On ch=1 n=f4 v=0
519571 On ch=1 n=d6 v=88
519577 On ch=1 n=g#6 v=92
519577 On ch=1 n=e7 v=90
519584 On ch=1 n=e5 v=0
519621 On ch=1 n=d6 v=0
519632 On ch=1 n=g#6 v=0
519668 On ch=1 n=e7 v=0
519685 On ch=1 n=a#4 v=94
519791 On ch=1 n=a#5 v=75
519795 Par ch=1 c=64 v=0
519824 On ch=1 n=a#4 v=0
519828 On ch=1 n=e7 v=88
519837 On ch=1 n=d7 v=87
519837 On ch=1 n=g6 v=91
519841 On ch=1 n=a#5 v=0
519917 On ch=1 n=g6 v=0
519932 On ch=1 n=a4 v=96
519944 Par ch=1 c=64 v=127
519948 On ch=1 n=d7 v=0
519964 On ch=1 n=e7 v=0
520044 On ch=1 n=a5 v=84
520055 On ch=1 n=a4 v=0
520076 On ch=1 n=g6 v=93
520076 On ch=1 n=a7 v=95
520077 On ch=1 n=c#7 v=92
520084 On ch=1 n=a5 v=0
520164 On ch=1 n=g6 v=0
520175 On ch=1 n=c5 v=99
520197 On ch=1 n=c#7 v=0
520205 On ch=1 n=a7 v=0
520288 Par ch=1 c=64 v=0
520297 On ch=1 n=c6 v=89
520308 On ch=1 n=f#7 v=92
520311 On ch=1 n=e7 v=90
520311 On ch=1 n=a6 v=98
520377 On ch=1 n=c6 v=0
520377 On ch=1 n=c5 v=0
520412 On ch=1 n=a6 v=0
520417 Par ch=1 c=64 v=127
520436 On ch=1 n=b4 v=96
520455 On ch=1 n=e7 v=0
520472 On ch=1 n=f#7 v=0
520552 On ch=1 n=b5 v=87
520564 On ch=1 n=a6 v=92
520564 On ch=1 n=d#7 v=92
520564 On ch=1 n=b7 v=95
520575 On ch=1 n=b4 v=0
520600 On ch=1 n=b5 v=0
520625 On ch=1 n=a6 v=0
520655 On ch=1 n=d#7 v=0
520665 On ch=1 n=b7 v=0
520682 On ch=1 n=d5 v=94
520785 Par ch=1 c=64 v=0
520802 On ch=1 n=d6 v=78
520802 On ch=1 n=g#7 v=92
520805 On ch=1 n=f#7 v=88
520813 On ch=1 n=d5 v=0
520813 On ch=1 n=b6 v=90
520849 On ch=1 n=d6 v=0
520893 On ch=1 n=b6 v=0
520893 Par ch=1 c=64 v=127
520921 On ch=1 n=c#5 v=86
520925 On ch=1 n=g#7 v=0
520937 On ch=1 n=f#7 v=0
521009 On ch=1 n=c#6 v=85
521014 On ch=1 n=f7 v=74
521029 On ch=1 n=c#8 v=91
521029 On ch=1 n=b6 v=90
521033 On ch=1 n=c#5 v=0
521049 On ch=1 n=c#6 v=0
521121 On ch=1 n=b6 v=0
521121 On ch=1 n=f7 v=0
521149 On ch=1 n=f5 v=95
521174 On ch=1 n=c#8 v=0
521234 Par ch=1 c=64 v=0
521249 On ch=1 n=f6 v=81
521265 On ch=1 n=b7 v=92
521272 On ch=1 n=a7 v=92
521278 On ch=1 n=d7 v=93
521313 On ch=1 n=f5 v=0
521325 On ch=1 n=f6 v=0
521373 On ch=1 n=d7 v=0
521385 Par ch=1 c=64 v=127
521402 On ch=1 n=a7 v=0
521402 On ch=1 n=e5 v=91
521405 On ch=1 n=b7 v=0
521513 On ch=1 n=e6 v=80
521521 On ch=1 n=d7 v=101
521525 On ch=1 n=e8 v=100
521525 On ch=1 n=g#7 v=100
521534 On ch=1 n=e5 v=0
521572 On ch=1 n=e6 v=0
521633 On ch=1 n=d7 v=0
521637 On ch=1 n=g#7 v=0
521649 On ch=1 n=e8 v=0
521652 On ch=1 n=f5 v=92
521754 On ch=1 n=f6 v=83
521762 On ch=1 n=b7 v=100
521762 On ch=1 n=a7 v=100
521769 On ch=1 n=d7 v=99
521789 On ch=1 n=f5 v=0
521814 On ch=1 n=f6 v=0
521882 On ch=1 n=d7 v=0
521894 On ch=1 n=e5 v=87
521909 On ch=1 n=a7 v=0
521926 On ch=1 n=b7 v=0
522013 On ch=1 n=e6 v=84
522013 On ch=1 n=e8 v=104
522018 On ch=1 n=d7 v=99
522026 On ch=1 n=g#7 v=104
522045 On ch=1 n=e5 v=0
522082 On ch=1 n=e6 v=0
522134 On ch=1 n=d7 v=0
522138 On ch=1 n=g#7 v=0
522138 On ch=1 n=e8 v=0
522153 On ch=1 n=f5 v=90
522273 Par ch=1 c=64 v=0
522281 On ch=1 n=b7 v=98
522281 On ch=1 n=a7 v=100
522288 On ch=1 n=d7 v=99
522288 On ch=1 n=f6 v=78
522313 On ch=1 n=f5 v=0
522354 On ch=1 n=f6 v=0
522389 On ch=1 n=a7 v=0
522394 Par ch=1 c=64 v=127
522421 On ch=1 n=d7 v=0
522425 On ch=1 n=e5 v=94
522429 On ch=1 n=b7 v=0
522554 On ch=1 n=e6 v=97
522554 On ch=1 n=d7 v=99
522565 On ch=1 n=e8 v=98
522569 On ch=1 n=g#7 v=100
522612 On ch=1 n=e5 v=0
522641 On ch=1 n=e6 v=0
522658 On ch=1 n=e8 v=0
522685 On ch=1 n=d7 v=0
522693 On ch=1 n=g#7 v=0
522853 Par ch=1 c=64 v=0
522912 On ch=1 n=a#5 v=110
522918 On ch=1 n=g7 v=127
522918 On ch=1 n=d7 v=101
522922 On ch=1 n=d6 v=115
522933 On ch=1 n=g6 v=120
523017 On ch=1 n=g6 v=0
523028 On ch=1 n=d6 v=0
523032 Par ch=1 c=64 v=127
523065 On ch=1 n=a#5 v=0
523146 On ch=1 n=g7 v=0
523182 On ch=1 n=d7 v=0
523182 On ch=1 n=a7 v=59
523193 On ch=1 n=d8 v=53
523277 On ch=1 n=d8 v=0
523277 On ch=1 n=a7 v=0
523277 On ch=1 n=g7 v=71
523289 On ch=1 n=d7 v=69
523328 On ch=1 n=a#4 v=100
523338 On ch=1 n=d7 v=0
523338 On ch=1 n=g5 v=115
523338 On ch=1 n=d5 v=99
523349 On ch=1 n=a7 v=78
523358 On ch=1 n=d8 v=90
523414 On ch=1 n=g7 v=0
523442 On ch=1 n=g5 v=0
523461 On ch=1 n=d5 v=0
523485 On ch=1 n=d8 v=0
523501 On ch=1 n=a7 v=0
523501 On ch=1 n=a#4 v=0
523518 On ch=1 n=g7 v=65
523518 On ch=1 n=d7 v=65
523562 On ch=1 n=d7 v=0
523577 On ch=1 n=g7 v=0
523613 On ch=1 n=d8 v=60
523621 On ch=1 n=a7 v=58
523665 On ch=1 n=d8 v=0
523689 On ch=1 n=g7 v=71
523689 On ch=1 n=d7 v=64
523698 On ch=1 n=a7 v=0
523745 On ch=1 n=d7 v=0
523774 On ch=1 n=a7 v=58
523781 On ch=1 n=d8 v=70
523789 On ch=1 n=g7 v=0
523849 On ch=1 n=d8 v=0
523852 On ch=1 n=g7 v=69
523862 On ch=1 n=d7 v=75
523866 On ch=1 n=a7 v=0
523909 On ch=1 n=g4 v=92
523919 On ch=1 n=d7 v=0
523919 On ch=1 n=d4 v=92
523919 On ch=1 n=a#3 v=89
523919 On ch=1 n=a7 v=74
523931 On ch=1 n=d8 v=90
523966 On ch=1 n=g7 v=0
524039 On ch=1 n=g7 v=55
524046 On ch=1 n=d8 v=0
524051 On ch=1 n=d7 v=72
524075 On ch=1 n=a7 v=0
524115 On ch=1 n=d7 v=0
524142 On ch=1 n=d4 v=0
524145 On ch=1 n=g4 v=0
524155 On ch=1 n=a7 v=64
524162 On ch=1 n=d8 v=71
524170 On ch=1 n=a#3 v=0
524218 On ch=1 n=g7 v=0
524222 On ch=1 n=g7 v=58
524225 On ch=1 n=d8 v=0
524231 On ch=1 n=d7 v=73
524249 On ch=1 n=a7 v=0
524302 On ch=1 n=d7 v=0
524326 On ch=1 n=d8 v=82
524326 On ch=1 n=a7 v=61
524342 On ch=1 n=g7 v=0
524409 On ch=1 n=g7 v=62
524415 On ch=1 n=d8 v=0
524418 On ch=1 n=d7 v=75
524438 On ch=1 n=a7 v=0
524462 On ch=1 n=g3 v=100
524462 On ch=1 n=g4 v=100
524506 On ch=1 n=d7 v=0
524529 On ch=1 n=a7 v=71
524529 On ch=1 n=d8 v=78
524539 On ch=1 n=g7 v=0
524603 On ch=1 n=g4 v=0
524632 On ch=1 n=g7 v=71
524636 On ch=1 n=d8 v=0
524636 On ch=1 n=g3 v=0
524636 On ch=1 n=d7 v=73
524648 On ch=1 n=a7 v=0
524720 On ch=1 n=d7 v=0
524739 On ch=1 n=d8 v=78
524739 On ch=1 n=a7 v=65
524755 On ch=1 n=g7 v=0
524828 On ch=1 n=f3 v=102
524828 On ch=1 n=f4 v=103
524832 Par ch=1 c=64 v=0
524843 On ch=1 n=d8 v=0
524843 On ch=1 n=g7 v=67
524859 On ch=1 n=a7 v=0
524859 On ch=1 n=d7 v=73
524939 On ch=1 n=d7 v=0
524948 Par ch=1 c=64 v=127
524963 On ch=1 n=d8 v=72
524979 On ch=1 n=g7 v=0
524979 On ch=1 n=f4 v=0
524983 On ch=1 n=a7 v=66
524992 On ch=1 n=f3 v=0
525052 On ch=1 n=d8 v=0
525059 On ch=1 n=g7 v=74
525059 On ch=1 n=d7 v=78
525083 On ch=1 n=a7 v=0
525119 On ch=1 n=d7 v=0
525156 On ch=1 n=d8 v=84
525159 On ch=1 n=a7 v=63
525168 On ch=1 n=g7 v=0
525236 On ch=1 n=g7 v=64
525239 On ch=1 n=d8 v=0
525248 On ch=1 n=d7 v=79
525262 On ch=1 n=d#4 v=105
525279 On ch=1 n=a7 v=0
525279 On ch=1 n=d#3 v=110
525307 On ch=1 n=d#3 v=0
525319 On ch=1 n=d#4 v=0
525319 On ch=1 n=d7 v=0
525339 On ch=1 n=d8 v=90
525346 On ch=1 n=a7 v=63
525352 On ch=1 n=g7 v=0
525395 On ch=1 n=d4 v=105
525395 On ch=1 n=d3 v=100
525412 Par ch=1 c=64 v=0
525412 On ch=1 n=g7 v=62
525427 On ch=1 n=d7 v=75
525443 On ch=1 n=d8 v=0
525448 On ch=1 n=a7 v=0
525562 On ch=1 n=d7 v=0
525568 Par ch=1 c=64 v=127
525579 On ch=1 n=g7 v=0
525579 On ch=1 n=d4 v=0
525579 On ch=1 n=d8 v=86
525583 On ch=1 n=d3 v=0
525583 On ch=1 n=a7 v=57
525623 On ch=1 n=g7 v=74
525632 On ch=1 n=d7 v=75
525647 On ch=1 n=d8 v=0
525651 On ch=1 n=a7 v=0
525706 On ch=1 n=d7 v=0
525723 On ch=1 n=c3 v=105
525723 On ch=1 n=c4 v=106
525727 On ch=1 n=d8 v=78
525731 On ch=1 n=a7 v=59
525756 On ch=1 n=g7 v=0
525828 On ch=1 n=g7 v=63
525832 On ch=1 n=d8 v=0
525835 On ch=1 n=d7 v=76
525862 On ch=1 n=a7 v=0
525862 On ch=1 n=c4 v=0
525872 On ch=1 n=c3 v=0
525904 On ch=1 n=d7 v=0
525929 On ch=1 n=d8 v=84
525929 On ch=1 n=a7 v=65
525944 On ch=1 n=g7 v=0
526009 On ch=1 n=g7 v=64
526020 On ch=1 n=d7 v=78
526024 On ch=1 n=b3 v=111
526028 On ch=1 n=b2 v=112
526040 On ch=1 n=d8 v=0
526045 On ch=1 n=a7 v=0
526096 On ch=1 n=b3 v=0
526100 On ch=1 n=d7 v=0
526125 On ch=1 n=d8 v=77
526132 On ch=1 n=a7 v=67
526136 On ch=1 n=b2 v=0
526136 On ch=1 n=g7 v=0
526225 On ch=1 n=a7 v=0
526233 On ch=1 n=g7 v=76
526240 On ch=1 n=d8 v=0
526240 On ch=1 n=d7 v=72
526328 On ch=1 n=a#3 v=100
526332 On ch=1 n=d7 v=0
526332 On ch=1 n=a#2 v=102
526336 On ch=1 n=a7 v=74
526345 On ch=1 n=d8 v=78
526360 On ch=1 n=a#2 v=0
526377 On ch=1 n=a#3 v=0
526377 On ch=1 n=g7 v=0
526443 On ch=1 n=d8 v=0
526443 On ch=1 n=d7 v=71
526445 On ch=1 n=g7 v=70
526449 On ch=1 n=a7 v=0
526533 On ch=1 n=a7 v=70
526536 On ch=1 n=d8 v=66
526556 On ch=1 n=d7 v=0
526566 On ch=1 n=g7 v=0
526601 On ch=1 n=d8 v=0
526633 Par ch=1 c=64 v=0
526653 On ch=1 n=a7 v=0
526740 On ch=1 n=g7 v=127
526742 On ch=1 n=d#7 v=115
526753 On ch=1 n=g6 v=115
526757 On ch=1 n=d#6 v=112
526757 On ch=1 n=a#5 v=119
526802 Par ch=1 c=64 v=127
526849 On ch=1 n=d#6 v=0
526849 On ch=1 n=g6 v=0
526859 On ch=1 n=a#5 v=0
526859 On ch=1 n=d#7 v=0
526891 On ch=1 n=g7 v=0
526891 On ch=1 n=d#8 v=74
526902 On ch=1 n=a#7 v=63
526990 On ch=1 n=g7 v=70
526999 On ch=1 n=a#7 v=0
526999 On ch=1 n=d#8 v=0
526999 On ch=1 n=d#7 v=74
527058 On ch=1 n=d#7 v=0
527087 On ch=1 n=d#8 v=91
527090 On ch=1 n=a#7 v=84
527094 On ch=1 n=g5 v=99
527099 On ch=1 n=a#4 v=94
527099 On ch=1 n=d#5 v=92
527130 On ch=1 n=g7 v=0
527218 On ch=1 n=g7 v=70
527218 On ch=1 n=d#7 v=72
527219 On ch=1 n=a#7 v=0
527230 On ch=1 n=d#8 v=0
527279 On ch=1 n=g5 v=0
527290 On ch=1 n=d#7 v=0
527290 On ch=1 n=d#5 v=0
527318 On ch=1 n=a#4 v=0
527318 On ch=1 n=d#8 v=77
527319 On ch=1 n=a#7 v=72
527331 On ch=1 n=g7 v=0
527394 On ch=1 n=a#7 v=0
527394 On ch=1 n=g7 v=66
527397 On ch=1 n=d#8 v=0
527397 On ch=1 n=d#7 v=82
527459 On ch=1 n=d#7 v=0
527499 On ch=1 n=a#7 v=78
527499 On ch=1 n=d#8 v=85
527502 On ch=1 n=g7 v=0
527554 On ch=1 n=g7 v=59
527564 On ch=1 n=d#7 v=82
527576 On ch=1 n=d#8 v=0
527576 On ch=1 n=a#7 v=0
527635 On ch=1 n=d#7 v=0
527651 On ch=1 n=a#7 v=88
527670 On ch=1 n=d#8 v=85
527670 On ch=1 n=a#3 v=93
527670 On ch=1 n=g4 v=95
527670 On ch=1 n=d#4 v=95
527691 On ch=1 n=g7 v=0
527751 On ch=1 n=g7 v=65
527784 On ch=1 n=a#7 v=0
527784 On ch=1 n=d#7 v=74
527787 On ch=1 n=d#8 v=0
527843 On ch=1 n=d#7 v=0
527867 On ch=1 n=d#8 v=81
527871 On ch=1 n=a#7 v=78
527883 On ch=1 n=g7 v=0
527948 On ch=1 n=g7 v=71
527960 On ch=1 n=a#7 v=0
527971 On ch=1 n=d#8 v=0
527971 On ch=1 n=d#7 v=78
527994 On ch=1 n=g4 v=0
528008 On ch=1 n=d#4 v=0
528008 On ch=1 n=a#3 v=0
528027 On ch=1 n=d#7 v=0
528055 On ch=1 n=d#8 v=89
528056 On ch=1 n=a#7 v=82
528071 On ch=1 n=g7 v=0
528115 On ch=1 n=g7 v=64
528147 On ch=1 n=d#7 v=80
528157 On ch=1 n=a#7 v=0
528157 On ch=1 n=d#8 v=0
528208 On ch=1 n=d#7 v=0
528224 On ch=1 n=g3 v=100
528228 On ch=1 n=g4 v=104
528240 On ch=1 n=d#8 v=85
528240 On ch=1 n=a#7 v=82
528250 Par ch=1 c=64 v=0
528258 On ch=1 n=g7 v=0
528328 On ch=1 n=g7 v=67
528349 On ch=1 n=d#7 v=74
528353 On ch=1 n=a#7 v=0
528357 On ch=1 n=d#8 v=0
528357 Par ch=1 c=64 v=127
528385 On ch=1 n=g4 v=0
528404 On ch=1 n=g3 v=0
528421 On ch=1 n=d#7 v=0
528430 On ch=1 n=d#8 v=85
528445 On ch=1 n=a#7 v=77
528465 On ch=1 n=g7 v=0
528537 On ch=1 n=g7 v=73
528549 On ch=1 n=d#7 v=82
528561 On ch=1 n=f3 v=106
528565 On ch=1 n=a#7 v=0
528565 On ch=1 n=d#8 v=0
528565 On ch=1 n=f4 v=106
528594 Par ch=1 c=64 v=0
528650 On ch=1 n=d#7 v=0
528669 On ch=1 n=d#8 v=89
528681 On ch=1 n=a#7 v=75
528689 On ch=1 n=g7 v=0
528704 Par ch=1 c=64 v=127
528708 On ch=1 n=f4 v=0
528742 On ch=1 n=f3 v=0
528761 On ch=1 n=g7 v=74
528770 On ch=1 n=a#7 v=0
528770 On ch=1 n=d#7 v=75
528781 On ch=1 n=d#8 v=0
528841 On ch=1 n=d#7 v=0
528849 On ch=1 n=d#8 v=83
528859 On ch=1 n=g7 v=0
528859 On ch=1 n=a#7 v=74
528931 On ch=1 n=g7 v=73
528950 On ch=1 n=d#7 v=78
528965 On ch=1 n=a#7 v=0
528965 On ch=1 n=d#8 v=0
528994 On ch=1 n=d#4 v=115
528994 On ch=1 n=d#3 v=112
529022 On ch=1 n=d#7 v=0
529034 On ch=1 n=d#3 v=0
529034 On ch=1 n=d#4 v=0
529054 On ch=1 n=d#8 v=83
529054 On ch=1 n=a#7 v=78
529082 On ch=1 n=g7 v=0
529127 On ch=1 n=d4 v=111
529127 On ch=1 n=d3 v=112
529127 On ch=1 n=g7 v=58
529142 Par ch=1 c=64 v=0
529142 On ch=1 n=d#7 v=80
529162 On ch=1 n=a#7 v=0
529166 On ch=1 n=d#8 v=0
529226 On ch=1 n=d#7 v=0
529247 Par ch=1 c=64 v=127
529251 On ch=1 n=d#8 v=85
529262 On ch=1 n=a#7 v=78
529270 On ch=1 n=g7 v=0
529318 On ch=1 n=d4 v=0
529335 On ch=1 n=d3 v=0
529346 On ch=1 n=g7 v=69
529366 On ch=1 n=d#7 v=80
529367 On ch=1 n=a#7 v=0
529378 On ch=1 n=d#8 v=0
529427 On ch=1 n=d#7 v=0
529442 On ch=1 n=d#8 v=81
529458 On ch=1 n=c3 v=111
529458 On ch=1 n=a#7 v=77
529458 On ch=1 n=c4 v=112
529487 On ch=1 n=g7 v=0
529547 On ch=1 n=g7 v=69
529562 On ch=1 n=d#7 v=78
529574 On ch=1 n=a#7 v=0
529578 On ch=1 n=d#8 v=0
529607 On ch=1 n=c4 v=0
529622 On ch=1 n=c3 v=0
529654 On ch=1 n=d#7 v=0
529664 On ch=1 n=d#8 v=85
529664 On ch=1 n=a#7 v=82
529675 On ch=1 n=g7 v=0
529764 On ch=1 n=g7 v=73
529768 On ch=1 n=b2 v=112
529768 On ch=1 n=b3 v=115
529772 On ch=1 n=d#7 v=77
529779 On ch=1 n=a#7 v=0
529799 On ch=1 n=d#8 v=0
529859 On ch=1 n=d#7 v=0
529875 On ch=1 n=d#8 v=77
529883 On ch=1 n=b3 v=0
529892 On ch=1 n=a#7 v=71
529895 On ch=1 n=g7 v=0
529903 On ch=1 n=b2 v=0
529975 On ch=1 n=g7 v=66
529983 On ch=1 n=a#7 v=0
529995 On ch=1 n=d#7 v=77
530023 On ch=1 n=d#8 v=0
530083 On ch=1 n=a#3 v=116
530088 On ch=1 n=d#7 v=0
530099 On ch=1 n=d#8 v=83
530099 On ch=1 n=a#2 v=119
530111 On ch=1 n=a#7 v=88
530139 On ch=1 n=a#2 v=0
530151 On ch=1 n=a#3 v=0
530151 On ch=1 n=g7 v=0
530204 On ch=1 n=g7 v=57
530215 On ch=1 n=d#8 v=0
530215 On ch=1 n=d#7 v=75
530219 On ch=1 n=a#7 v=0
530279 On ch=1 n=d#7 v=0
530303 On ch=1 n=d#8 v=81
530304 On ch=1 n=a#7 v=77
530348 On ch=1 n=g7 v=0
530399 Par ch=1 c=64 v=0
530482 On ch=1 n=a#7 v=0
530482 On ch=1 n=d#8 v=0
530503 On ch=1 n=g6 v=115
530503 On ch=1 n=a#5 v=113
530511 On ch=1 n=g7 v=115
530511 On ch=1 n=e6 v=119
530511 On ch=1 n=e7 v=120
530515 On ch=1 n=c#6 v=112
530604 On ch=1 n=e6 v=0
530604 On ch=1 n=g6 v=0
530608 Par ch=1 c=64 v=127
530611 On ch=1 n=c#6 v=0
530639 On ch=1 n=a#5 v=0
530649 On ch=1 n=e8 v=80
530656 On ch=1 n=e7 v=0
530661 On ch=1 n=c#8 v=77
530665 On ch=1 n=g7 v=0
530765 On ch=1 n=e8 v=0
530765 On ch=1 n=g7 v=74
530768 On ch=1 n=c#8 v=0
530789 On ch=1 n=e7 v=70
530855 On ch=1 n=a#4 v=91
530855 On ch=1 n=g5 v=91
530859 On ch=1 n=e5 v=81
530861 On ch=1 n=e7 v=0
530865 On ch=1 n=c#5 v=84
530865 On ch=1 n=c#8 v=87
530865 On ch=1 n=e8 v=90
530893 On ch=1 n=g7 v=0
530969 On ch=1 n=g7 v=74
530981 On ch=1 n=e8 v=0
530981 On ch=1 n=g5 v=0
530981 On ch=1 n=e7 v=74
530992 On ch=1 n=c#8 v=0
530999 On ch=1 n=e5 v=0
531009 On ch=1 n=c#5 v=0
531025 On ch=1 n=a#4 v=0
531032 On ch=1 n=e7 v=0
531061 On ch=1 n=c#8 v=79
531068 On ch=1 n=e8 v=84
531089 On ch=1 n=g7 v=0
531148 On ch=1 n=e8 v=0
531158 On ch=1 n=c#8 v=0
531158 On ch=1 n=g7 v=63
531182 On ch=1 n=e7 v=59
531225 On ch=1 n=e7 v=0
531249 On ch=1 n=c#8 v=83
531249 On ch=1 n=e8 v=84
531289 On ch=1 n=g7 v=0
531329 On ch=1 n=g7 v=57
531346 On ch=1 n=e8 v=0
531353 On ch=1 n=c#8 v=0
531361 On ch=1 n=e7 v=71
531416 On ch=1 n=e7 v=0
531416 On ch=1 n=e4 v=94
531418 On ch=1 n=a#3 v=91
531418 On ch=1 n=g4 v=95
531422 On ch=1 n=c#4 v=90
531429 On ch=1 n=c#8 v=81
531433 On ch=1 n=e8 v=88
531452 Par ch=1 c=64 v=0
531518 On ch=1 n=g7 v=0
531518 On ch=1 n=g7 v=24
531549 On ch=1 n=e8 v=0
531558 On ch=1 n=c#8 v=0
531582 On ch=1 n=e7 v=64
531596 Par ch=1 c=64 v=127
531629 On ch=1 n=e7 v=0
531639 On ch=1 n=c#8 v=79
531654 On ch=1 n=e8 v=82
531710 On ch=1 n=g4 v=0
531710 On ch=1 n=e4 v=0
531726 On ch=1 n=g7 v=0
531726 On ch=1 n=g7 v=52
531730 On ch=1 n=e8 v=0
531730 On ch=1 n=c#4 v=0
531740 On ch=1 n=a#3 v=0
531744 On ch=1 n=c#8 v=0
531756 On ch=1 n=e7 v=71
531810 On ch=1 n=e7 v=0
531820 On ch=1 n=c#8 v=81
531824 On ch=1 n=e8 v=86
531836 On ch=1 n=g7 v=0
531893 On ch=1 n=g7 v=63
531920 On ch=1 n=e8 v=0
531929 On ch=1 n=e7 v=74
531936 On ch=1 n=c#8 v=0
532004 On ch=1 n=e7 v=0
532004 On ch=1 n=c#8 v=81
532020 On ch=1 n=g3 v=100
532020 On ch=1 n=g4 v=104
532020 On ch=1 n=e8 v=88
532113 On ch=1 n=g7 v=0
532113 On ch=1 n=g7 v=56
532136 On ch=1 n=e8 v=0
532136 On ch=1 n=c#8 v=0
532153 On ch=1 n=e7 v=67
532180 On ch=1 n=g4 v=0
532200 On ch=1 n=g3 v=0
532227 On ch=1 n=e7 v=0
532237 On ch=1 n=e8 v=86
532241 On ch=1 n=c#8 v=87
532301 On ch=1 n=g7 v=0
532341 On ch=1 n=g7 v=83
532349 On ch=1 n=f3 v=102
532364 On ch=1 n=e8 v=0
532364 On ch=1 n=f4 v=106
532364 On ch=1 n=e7 v=75
532374 On ch=1 n=c#8 v=0
532381 Par ch=1 c=64 v=0
532457 On ch=1 n=e7 v=0
532467 On ch=1 n=e8 v=86
532478 On ch=1 n=c#8 v=83
532482 Par ch=1 c=64 v=127
532490 On ch=1 n=g7 v=0
532562 On ch=1 n=f4 v=0
532570 On ch=1 n=e8 v=0
532570 On ch=1 n=g7 v=77
532578 On ch=1 n=c#8 v=0
532581 On ch=1 n=f3 v=0
532591 On ch=1 n=e7 v=71
532657 On ch=1 n=e7 v=0
532674 On ch=1 n=c#8 v=85
532674 On ch=1 n=e8 v=90
532690 On ch=1 n=g7 v=0
532761 On ch=1 n=g7 v=73
532790 On ch=1 n=e8 v=0
532794 On ch=1 n=e7 v=68
532802 On ch=1 n=c#8 v=0
532834 On ch=1 n=e4 v=115
532838 On ch=1 n=e3 v=112
532848 On ch=1 n=e7 v=0
532878 On ch=1 n=c#8 v=81
532884 On ch=1 n=e8 v=88
532899 On ch=1 n=e3 v=0
532899 On ch=1 n=e4 v=0
532971 On ch=1 n=g7 v=0
532971 On ch=1 n=g7 v=65
532981 On ch=1 n=e8 v=0
532996 On ch=1 n=d#4 v=100
533001 On ch=1 n=c#8 v=0
533001 On ch=1 n=d#3 v=110
533012 On ch=1 n=e7 v=67
533012 Par ch=1 c=64 v=0
533101 On ch=1 n=e7 v=0
533108 Par ch=1 c=64 v=127
533120 On ch=1 n=e8 v=86
533120 On ch=1 n=c#8 v=85
533164 On ch=1 n=d#4 v=0
533175 On ch=1 n=d#3 v=0
533197 On ch=1 n=g7 v=0
533197 On ch=1 n=g7 v=64
533224 On ch=1 n=e8 v=0
533224 On ch=1 n=e7 v=72
533228 On ch=1 n=c#8 v=0
533304 On ch=1 n=e7 v=0
533335 On ch=1 n=e8 v=88
533335 On ch=1 n=c#8 v=85
533355 On ch=1 n=c#4 v=104
533365 On ch=1 n=c#3 v=106
533435 On ch=1 n=g7 v=0
533437 On ch=1 n=g7 v=65
533448 On ch=1 n=c#8 v=0
533448 On ch=1 n=e8 v=0
533471 On ch=1 n=e7 v=68
533485 On ch=1 n=c#3 v=0
533485 On ch=1 n=c#4 v=0
533551 On ch=1 n=e7 v=0
533568 On ch=1 n=c#8 v=85
533577 On ch=1 n=e8 v=88
533656 On ch=1 n=g7 v=0
533668 On ch=1 n=g7 v=63
533676 On ch=1 n=c4 v=119
533677 On ch=1 n=c3 v=118
533689 On ch=1 n=e8 v=0
533689 On ch=1 n=e7 v=77
533700 On ch=1 n=c#8 v=0
533795 On ch=1 n=e7 v=0
533805 On ch=1 n=g7 v=0
533805 On ch=1 n=e8 v=88
533805 On ch=1 n=c#8 v=81
533837 On ch=1 n=c4 v=0
533852 On ch=1 n=c3 v=0
533918 On ch=1 n=e8 v=0
533918 On ch=1 n=g7 v=77
533921 On ch=1 n=c#8 v=0
533941 On ch=1 n=e7 v=67
534029 On ch=1 n=e7 v=0
534033 On ch=1 n=b3 v=120
534033 On ch=1 n=b2 v=120
534041 On ch=1 n=e8 v=92
534045 On ch=1 n=c#8 v=89
534049 On ch=1 n=g7 v=0
534165 On ch=1 n=g7 v=81
534175 On ch=1 n=e8 v=0
534186 On ch=1 n=c#8 v=0
534190 On ch=1 n=e7 v=67
534191 On ch=1 n=b3 v=0
534205 On ch=1 n=b2 v=0
534251 On ch=1 n=e7 v=0
534278 On ch=1 n=e8 v=90
534282 On ch=1 n=c#8 v=81
534330 Par ch=1 c=64 v=0
534350 On ch=1 n=c#8 v=0
534362 On ch=1 n=e8 v=0
534386 On ch=1 n=e7 v=79
534406 On ch=1 n=g7 v=0
534431 Par ch=1 c=64 v=127
534458 On ch=1 n=e7 v=0
534479 On ch=1 n=a#3 v=125
534479 On ch=1 n=a#2 v=125
534479 On ch=1 n=e8 v=120
534482 On ch=1 n=e7 v=110
534482 On ch=1 n=c#8 v=110
534509 On ch=1 n=e7 v=0
534542 On ch=1 n=a#3 v=0
534566 On ch=1 n=e8 v=0
534570 On ch=1 n=a#2 v=0
534599 On ch=1 n=c#8 v=0
534763 Par ch=1 c=64 v=0
535219 Par ch=1 c=64 v=127
535235 On ch=1 n=c#7 v=120
535235 On ch=1 n=c#6 v=115
535242 On ch=1 n=c#5 v=108
535246 On ch=1 n=c#4 v=109
535346 On ch=1 n=c#5 v=0
535369 On ch=1 n=c#4 v=0
535386 On ch=1 n=c#6 v=0
535391 On ch=1 n=c#7 v=0
535722 On ch=1 n=e4 v=100
535726 On ch=1 n=e3 v=106
535726 On ch=1 n=e6 v=107
535726 On ch=1 n=e5 v=107
535743 Par ch=1 c=64 v=0
535966 Par ch=1 c=64 v=127
536082 On ch=1 n=e5 v=0
536130 On ch=1 n=e3 v=0
536130 On ch=1 n=e4 v=0
536202 On ch=1 n=e6 v=0
536442 On ch=1 n=f3 v=98
536442 On ch=1 n=f4 v=99
536459 On ch=1 n=f5 v=99
536459 On ch=1 n=f6 v=90
536491 On ch=1 n=f5 v=0
536499 On ch=1 n=f3 v=0
536506 On ch=1 n=f6 v=0
536506 On ch=1 n=f4 v=0
536603 On ch=1 n=g#3 v=102
536611 On ch=1 n=g#4 v=106
536611 On ch=1 n=g#5 v=110
536615 On ch=1 n=g#6 v=110
536869 Par ch=1 c=64 v=0
537254 Par ch=1 c=64 v=127
537355 On ch=1 n=g#3 v=0
537382 On ch=1 n=g#4 v=0
537386 On ch=1 n=g#6 v=0
537386 On ch=1 n=g#5 v=0
537582 Par ch=1 c=64 v=0
537654 On ch=1 n=g4 v=99
537669 On ch=1 n=g3 v=98
537669 On ch=1 n=g5 v=97
537675 On ch=1 n=g6 v=96
537702 On ch=1 n=g6 v=0
537702 Par ch=1 c=64 v=127
537711 On ch=1 n=g5 v=0
537711 On ch=1 n=g4 v=0
537715 On ch=1 n=g3 v=0
537789 On ch=1 n=e4 v=92
537806 On ch=1 n=e5 v=95
537810 On ch=1 n=e6 v=100
537810 On ch=1 n=e3 v=95
537822 On ch=1 n=e4 v=0
537832 On ch=1 n=e5 v=0
537835 On ch=1 n=e3 v=0
537846 On ch=1 n=e6 v=0
537908 On ch=1 n=c#4 v=98
537919 On ch=1 n=c#6 v=98
537919 On ch=1 n=c#3 v=98
537940 On ch=1 n=c#6 v=0
537940 On ch=1 n=c#4 v=0
537966 On ch=1 n=c#3 v=0
538027 On ch=1 n=a#3 v=109
538027 On ch=1 n=a#2 v=102
538043 On ch=1 n=a#4 v=107
538052 On ch=1 n=a#5 v=98
538056 On ch=1 n=a#3 v=0
538063 On ch=1 n=a#2 v=0
538071 On ch=1 n=a#4 v=0
538079 On ch=1 n=a#5 v=0
538079 Par ch=1 c=64 v=0
539027 On ch=1 n=a5 v=115
539031 On ch=1 n=a4 v=115
539031 On ch=1 n=a2 v=119
539039 On ch=1 n=a3 v=120
539099 On ch=1 n=a4 v=0
539099 On ch=1 n=a5 v=0
539103 On ch=1 n=a3 v=0
539107 On ch=1 n=a2 v=0
539239 On ch=1 n=a#3 v=118
539246 On ch=1 n=a#2 v=119
539251 On ch=1 n=a#5 v=120
539255 On ch=1 n=a#4 v=116
539287 On ch=1 n=a#2 v=0
539299 On ch=1 n=a#4 v=0
539299 On ch=1 n=a#3 v=0
539309 On ch=1 n=a#5 v=0
539436 On ch=1 n=c6 v=115
539440 On ch=1 n=c5 v=119
539445 On ch=1 n=c4 v=120
539445 On ch=1 n=c3 v=120
539496 On ch=1 n=c5 v=0
539503 On ch=1 n=c4 v=0
539513 On ch=1 n=c3 v=0
539517 On ch=1 n=c6 v=0
539660 On ch=1 n=d#5 v=115
539660 On ch=1 n=d#6 v=119
539669 On ch=1 n=d#3 v=116
539669 On ch=1 n=d#4 v=111
540169 Par ch=1 c=64 v=127
540408 On ch=1 n=d#6 v=0
540420 On ch=1 n=d#4 v=0
540448 On ch=1 n=d#3 v=0
540448 On ch=1 n=d#5 v=0
540736 Par ch=1 c=64 v=0
540796 On ch=1 n=c#3 v=115
540796 On ch=1 n=c#4 v=116
540799 On ch=1 n=c#5 v=119
540799 On ch=1 n=c#6 v=116
540829 On ch=1 n=c#6 v=0
540837 On ch=1 n=c#4 v=0
540837 On ch=1 n=c#3 v=0
540840 On ch=1 n=c#5 v=0
540844 Par ch=1 c=64 v=127
540923 On ch=1 n=a#3 v=115
540932 On ch=1 n=a#2 v=116
540932 On ch=1 n=a#4 v=117
540936 On ch=1 n=a#5 v=119
540956 On ch=1 n=a#3 v=0
540964 On ch=1 n=a#5 v=0
540972 On ch=1 n=a#2 v=0
540980 On ch=1 n=a#4 v=0
541049 On ch=1 n=g3 v=115
541049 On ch=1 n=g4 v=116
541057 On ch=1 n=g5 v=112
541080 On ch=1 n=g3 v=0
541080 On ch=1 n=g2 v=113
541099 On ch=1 n=g4 v=0
541103 On ch=1 n=g5 v=0
541125 On ch=1 n=g2 v=0
541169 On ch=1 n=e4 v=116
541169 On ch=1 n=e5 v=116
541173 On ch=1 n=e2 v=115
541180 On ch=1 n=e3 v=115
541217 On ch=1 n=e3 v=0
541228 On ch=1 n=e4 v=0
541260 On ch=1 n=e5 v=0
541276 On ch=1 n=e2 v=0
541276 Par ch=1 c=64 v=0
542720 On ch=1 n=f4 v=115
542724 On ch=1 n=f5 v=112
542732 On ch=1 n=f3 v=116
542793 Par ch=1 c=64 v=127
542809 On ch=1 n=f4 v=0
542820 On ch=1 n=f5 v=0
542865 On ch=1 n=f3 v=0
542940 Par ch=1 c=64 v=0
542988 On ch=1 n=f#3 v=115
542988 On ch=1 n=f#4 v=116
542992 On ch=1 n=f#5 v=115
543045 Par ch=1 c=64 v=127
543063 On ch=1 n=f#4 v=0
543077 On ch=1 n=f#5 v=0
543077 On ch=1 n=f#3 v=0
543165 Par ch=1 c=64 v=0
543209 On ch=1 n=g3 v=116
543209 On ch=1 n=g5 v=115
543220 On ch=1 n=g4 v=116
543285 On ch=1 n=g4 v=0
543285 On ch=1 n=g3 v=0
543296 On ch=1 n=g5 v=0
543300 Par ch=1 c=64 v=127
543420 On ch=1 n=g#4 v=127
543436 On ch=1 n=g#5 v=127
543436 On ch=1 n=g#3 v=127
543509 On ch=1 n=g#3 v=0
543520 On ch=1 n=g#4 v=0
543540 On ch=1 n=g#5 v=0
543652 On ch=1 n=g4 v=115
543652 On ch=1 n=g5 v=116
543660 On ch=1 n=g3 v=115
543725 On ch=1 n=g5 v=0
543725 On ch=1 n=g4 v=0
543780 On ch=1 n=g3 v=0
543843 On ch=1 n=e3 v=115
543853 On ch=1 n=e4 v=116
543857 On ch=1 n=e5 v=115
543925 On ch=1 n=e5 v=0
543929 On ch=1 n=e4 v=0
543940 On ch=1 n=e3 v=0
544036 On ch=1 n=c#3 v=116
544040 On ch=1 n=c#5 v=115
544044 On ch=1 n=c#4 v=116
544104 On ch=1 n=c#4 v=0
544109 On ch=1 n=c#5 v=0
544183 On ch=1 n=c#3 v=0
544216 On ch=1 n=a#2 v=114
544216 On ch=1 n=a#3 v=115
544220 On ch=1 n=a#4 v=116
544305 On ch=1 n=a#4 v=0
544305 On ch=1 n=a#3 v=0
544329 On ch=1 n=a#2 v=0
544404 On ch=1 n=b3 v=115
544404 On ch=1 n=b4 v=116
544405 On ch=1 n=b2 v=118
544465 On ch=1 n=b4 v=0
544465 On ch=1 n=b3 v=0
544520 On ch=1 n=b2 v=0
544563 On ch=1 n=c3 v=115
544563 On ch=1 n=c4 v=116
544563 On ch=1 n=c5 v=115
544624 On ch=1 n=c5 v=0
544624 Par ch=1 c=64 v=0
544625 On ch=1 n=c4 v=0
544660 On ch=1 n=c3 v=0
544713 On ch=1 n=c#3 v=115
544725 On ch=1 n=c#4 v=116
544725 On ch=1 n=c#5 v=115
544789 On ch=1 n=c#5 v=0
544789 On ch=1 n=c#4 v=0
544804 On ch=1 n=c#3 v=0
544814 Par ch=1 c=64 v=127
544890 On ch=1 n=d#4 v=100
544890 On ch=1 n=d#5 v=119
544894 On ch=1 n=d#3 v=110
544973 On ch=1 n=d#5 v=0
544985 On ch=1 n=d#4 v=0
544989 On ch=1 n=d#3 v=0
545090 On ch=1 n=c#3 v=110
545114 On ch=1 n=c#5 v=106
545114 On ch=1 n=c#4 v=102
545169 On ch=1 n=c#3 v=0
545173 On ch=1 n=c#4 v=0
545190 On ch=1 n=c#5 v=0
545269 On ch=1 n=a#3 v=92
545277 On ch=1 n=a#4 v=101
545322 On ch=1 n=a#3 v=0
545353 On ch=1 n=a#4 v=0
545400 On ch=1 n=g3 v=97
545410 On ch=1 n=g4 v=106
545470 On ch=1 n=g4 v=0
545470 On ch=1 n=g3 v=0
545513 Par ch=1 c=64 v=0
545550 On ch=1 n=e4 v=93
545559 On ch=1 n=e3 v=90
545637 On ch=1 n=e3 v=0
545637 On ch=1 n=e4 v=0
545679 On ch=1 n=f4 v=101
545687 On ch=1 n=f3 v=100
545753 On ch=1 n=f4 v=0
545757 On ch=1 n=f3 v=0
545818 On ch=1 n=f#4 v=100
545827 On ch=1 n=f#3 v=103
545871 On ch=1 n=f#4 v=0
545887 On ch=1 n=f#3 v=0
545946 On ch=1 n=g4 v=100
545946 On ch=1 n=g3 v=100
545990 On ch=1 n=g3 v=0
546006 On ch=1 n=g4 v=0
546067 Par ch=1 c=64 v=127
546083 On ch=1 n=g#4 v=127
546083 On ch=1 n=g#3 v=127
546143 On ch=1 n=g#4 v=0
546147 On ch=1 n=g#3 v=0
546238 On ch=1 n=g4 v=102
546250 On ch=1 n=g3 v=100
546322 On ch=1 n=g3 v=0
546337 On ch=1 n=g4 v=0
546370 On ch=1 n=e3 v=84
546377 On ch=1 n=e4 v=97
546410 Par ch=1 c=64 v=0
546439 On ch=1 n=e3 v=0
546443 On ch=1 n=e4 v=0
546497 On ch=1 n=c#3 v=90
546497 On ch=1 n=c#4 v=98
546570 On ch=1 n=c#4 v=0
546586 On ch=1 n=c#3 v=0
546619 On ch=1 n=a#2 v=98
546626 On ch=1 n=a#3 v=99
546698 On ch=1 n=a#3 v=0
546706 On ch=1 n=a#2 v=0
546754 On ch=1 n=c#3 v=90
546770 On ch=1 n=c#4 v=90
546802 On ch=1 n=c#4 v=0
546810 On ch=1 n=c#3 v=0
546867 On ch=1 n=e4 v=99
546878 On ch=1 n=e3 v=98
546926 On ch=1 n=e3 v=0
546926 On ch=1 n=e4 v=0
546986 On ch=1 n=f4 v=97
546990 On ch=1 n=f3 v=102
547030 On ch=1 n=f3 v=0
547047 On ch=1 n=f4 v=0
547114 Par ch=1 c=64 v=127
547123 On ch=1 n=g#4 v=127
547134 On ch=1 n=g#3 v=127
547174 On ch=1 n=g#4 v=0
547190 On ch=1 n=g#3 v=0
547258 On ch=1 n=g3 v=104
547263 On ch=1 n=g4 v=110
547330 On ch=1 n=g4 v=0
547359 On ch=1 n=g3 v=0
547390 On ch=1 n=e4 v=101
547390 On ch=1 n=e3 v=98
547450 On ch=1 n=e4 v=0
547479 On ch=1 n=e3 v=0
547494 On ch=1 n=c#4 v=106
547494 On ch=1 n=c#3 v=95
547557 On ch=1 n=c#4 v=0
547567 On ch=1 n=c#3 v=0
547611 On ch=1 n=a#2 v=110
547615 On ch=1 n=a#3 v=111
547674 On ch=1 n=a#3 v=0
547684 On ch=1 n=a#2 v=0
547684 Par ch=1 c=64 v=0
547733 On ch=1 n=c#3 v=92
547745 On ch=1 n=c#4 v=102
547804 On ch=1 n=c#4 v=0
547825 On ch=1 n=c#3 v=0
547848 On ch=1 n=e4 v=99
547858 On ch=1 n=e3 v=100
547909 On ch=1 n=e4 v=0
547924 On ch=1 n=e3 v=0
547974 On ch=1 n=f3 v=100
547977 On ch=1 n=f4 v=89
548021 On ch=1 n=f3 v=0
548029 On ch=1 n=f4 v=0
548108 Par ch=1 c=64 v=127
548141 On ch=1 n=g#3 v=127
548141 On ch=1 n=g#4 v=127
548168 On ch=1 n=g#4 v=0
548168 On ch=1 n=g#3 v=0
548254 On ch=1 n=g4 v=97
548297 On ch=1 n=g4 v=0
548368 On ch=1 n=g3 v=94
548378 On ch=1 n=e4 v=99
548389 On ch=1 n=e3 v=98
548408 On ch=1 n=g3 v=0
548485 On ch=1 n=e4 v=0
548505 On ch=1 n=c#4 v=106
548521 On ch=1 n=c#3 v=94
548528 On ch=1 n=e3 v=0
548569 On ch=1 n=c#4 v=0
548601 On ch=1 n=c#3 v=0
548628 On ch=1 n=a#3 v=113
548634 On ch=1 n=a#2 v=110
548689 On ch=1 n=a#3 v=0
548708 Par ch=1 c=64 v=0
548729 On ch=1 n=a#2 v=0
548758 On ch=1 n=c#3 v=91
548761 On ch=1 n=c#4 v=97
548830 On ch=1 n=c#4 v=0
548865 On ch=1 n=c#3 v=0
548869 On ch=1 n=e3 v=98
548881 On ch=1 n=e4 v=99
548954 On ch=1 n=e4 v=0
548961 On ch=1 n=e3 v=0
548990 On ch=1 n=f3 v=104
549005 On ch=1 n=f4 v=96
549050 On ch=1 n=f3 v=0
549057 On ch=1 n=f4 v=0
549130 On ch=1 n=a#3 v=109
549145 On ch=1 n=a#2 v=115
549194 Par ch=1 c=64 v=127
549202 On ch=1 n=a#3 v=0
549289 On ch=1 n=c#3 v=95
549294 On ch=1 n=c#4 v=77
549302 Par ch=1 c=64 v=0
549329 On ch=1 n=c#4 v=0
549430 On ch=1 n=f4 v=109
549434 On ch=1 n=f3 v=100
549448 On ch=1 n=a#2 v=0
549454 On ch=1 n=c#3 v=0
549494 On ch=1 n=f4 v=0
549570 On ch=1 n=f3 v=0
549570 On ch=1 n=f#3 v=111
549570 On ch=1 n=f#4 v=115
549637 On ch=1 n=f#3 v=0
549657 On ch=1 n=f#4 v=0
549737 On ch=1 n=a3 v=112
549737 On ch=1 n=a2 v=120
549834 On ch=1 n=a3 v=0
549933 On ch=1 n=c#3 v=106
549941 On ch=1 n=c#4 v=112
550014 On ch=1 n=c#4 v=0
550061 On ch=1 n=c#3 v=0
550125 On ch=1 n=f#3 v=111
550125 On ch=1 n=f#4 v=116
550201 On ch=1 n=f#3 v=0
550217 On ch=1 n=f#4 v=0
550310 On ch=1 n=g3 v=120
550318 On ch=1 n=g4 v=120
550384 On ch=1 n=g3 v=0
550401 On ch=1 n=a2 v=0
550409 On ch=1 n=g4 v=0
550589 On ch=1 n=e4 v=127
550590 On ch=1 n=g#2 v=127
550597 On ch=1 n=e3 v=127
550597 On ch=1 n=g#3 v=127
550601 On ch=1 n=c#3 v=127
550601 On ch=1 n=g#4 v=127
550604 On ch=1 n=c#4 v=127
550621 Par ch=1 c=64 v=127
550769 On ch=1 n=g#3 v=0
550773 On ch=1 n=e3 v=0
550781 On ch=1 n=c#3 v=0
550785 On ch=1 n=c#4 v=0
550788 On ch=1 n=e4 v=0
550798 On ch=1 n=g#4 v=0
550817 On ch=1 n=g#2 v=0
550950 Par ch=1 c=64 v=0
551613 On ch=1 n=g#2 v=109
551613 On ch=1 n=g#3 v=115
551613 On ch=1 n=e4 v=111
551613 On ch=1 n=c#3 v=102
551617 On ch=1 n=g#4 v=118
551617 On ch=1 n=c#4 v=118
551617 On ch=1 n=e3 v=102
551642 Par ch=1 c=64 v=127
551728 On ch=1 n=e4 v=0
551738 On ch=1 n=c#4 v=0
551745 On ch=1 n=g#3 v=0
551749 On ch=1 n=e3 v=0
551761 On ch=1 n=c#3 v=0
551773 On ch=1 n=g#2 v=0
551798 On ch=1 n=g#4 v=0
552241 Par ch=1 c=64 v=0
553081 Par ch=1 c=64 v=127
553125 On ch=1 n=g#3 v=112
553125 On ch=1 n=g#2 v=107
553128 On ch=1 n=e3 v=96
553128 On ch=1 n=c#3 v=98
553128 On ch=1 n=c#4 v=118
553128 On ch=1 n=g#4 v=127
553134 On ch=1 n=e4 v=114
553330 On ch=1 n=g#4 v=0
553345 On ch=1 n=c#4 v=0
553349 On ch=1 n=g#3 v=0
553357 On ch=1 n=e4 v=0
553357 On ch=1 n=c#3 v=0
553357 On ch=1 n=g#2 v=0
553368 On ch=1 n=e3 v=0
553394 Par ch=1 c=64 v=0
553621 On ch=1 n=g#3 v=118
553621 On ch=1 n=g#2 v=109
553630 On ch=1 n=e4 v=111
553633 On ch=1 n=c#4 v=118
553633 On ch=1 n=c#3 v=120
553633 On ch=1 n=g#4 v=116
553633 On ch=1 n=e3 v=100
553665 Par ch=1 c=64 v=127
553848 On ch=1 n=g#4 v=0
553858 On ch=1 n=c#4 v=0
553870 On ch=1 n=e4 v=0
553874 On ch=1 n=g#2 v=0
553885 On ch=1 n=g#3 v=0
553894 On ch=1 n=c#3 v=0
553909 On ch=1 n=e3 v=0
554038 Par ch=1 c=64 v=0
554313 On ch=1 n=a3 v=110
554321 On ch=1 n=c#3 v=100
554321 On ch=1 n=g#2 v=107
554328 On ch=1 n=e4 v=111
554328 On ch=1 n=c#4 v=118
554328 On ch=1 n=e3 v=96
554334 On ch=1 n=a4 v=108
554341 Par ch=1 c=64 v=127
554454 On ch=1 n=g#2 v=0
554461 On ch=1 n=a3 v=0
554465 On ch=1 n=c#4 v=0
554474 On ch=1 n=c#3 v=0
554478 On ch=1 n=a4 v=0
554482 On ch=1 n=e4 v=0
554509 On ch=1 n=e3 v=0
554541 On ch=1 n=e4 v=94
554541 On ch=1 n=a4 v=96
554545 On ch=1 n=e3 v=93
554550 On ch=1 n=c#4 v=112
554550 On ch=1 n=g#2 v=113
554550 On ch=1 n=a3 v=115
554905 On ch=1 n=e3 v=0
554957 On ch=1 n=a3 v=0
554968 On ch=1 n=g#2 v=0
554968 On ch=1 n=e4 v=0
554989 On ch=1 n=c#4 v=0
554989 On ch=1 n=a4 v=0
555109 Par ch=1 c=64 v=0
556898 On ch=1 n=e4 v=111
556898 On ch=1 n=c#5 v=110
556905 On ch=1 n=g#2 v=107
556909 On ch=1 n=a3 v=110
556910 On ch=1 n=c#3 v=100
556913 On ch=1 n=e3 v=104
556913 On ch=1 n=c#4 v=112
556913 On ch=1 n=a4 v=100
556925 Par ch=1 c=64 v=127
557254 On ch=1 n=a3 v=0
557285 On ch=1 n=e3 v=0
557295 On ch=1 n=g#2 v=0
557302 On ch=1 n=c#4 v=0
557302 On ch=1 n=c#5 v=0
557318 On ch=1 n=e4 v=0
557326 On ch=1 n=c#3 v=0
557330 On ch=1 n=a4 v=0
557406 Par ch=1 c=64 v=0
557894 On ch=1 n=e4 v=114
557894 On ch=1 n=g#2 v=107
557894 On ch=1 n=a3 v=112
557898 On ch=1 n=c#5 v=112
557902 On ch=1 n=c#3 v=102
557902 On ch=1 n=c#4 v=115
557902 On ch=1 n=a4 v=102
557907 On ch=1 n=e3 v=104
557954 Par ch=1 c=64 v=127
558026 On ch=1 n=a3 v=0
558038 On ch=1 n=c#3 v=0
558042 On ch=1 n=e3 v=0
558059 On ch=1 n=g#2 v=0
558102 On ch=1 n=c#4 v=0
558112 On ch=1 n=a4 v=0
558128 On ch=1 n=e4 v=0
558143 On ch=1 n=c#5 v=0
558548 Par ch=1 c=64 v=0
559276 Par ch=1 c=64 v=127
559444 On ch=1 n=a3 v=110
559444 On ch=1 n=f3 v=106
559447 On ch=1 n=g#2 v=105
559451 On ch=1 n=f4 v=111
559451 On ch=1 n=c#3 v=102
559451 On ch=1 n=c#4 v=118
559455 On ch=1 n=a4 v=104
559455 On ch=1 n=c#5 v=115
559631 On ch=1 n=g#2 v=0
559642 On ch=1 n=a3 v=0
559663 On ch=1 n=c#5 v=0
559664 On ch=1 n=c#3 v=0
559671 On ch=1 n=f3 v=0
559688 On ch=1 n=c#4 v=0
559703 On ch=1 n=a4 v=0
559708 On ch=1 n=f4 v=0
559903 Par ch=1 c=64 v=0
560024 On ch=1 n=g#2 v=107
560035 On ch=1 n=f3 v=108
560035 On ch=1 n=c#3 v=102
560035 On ch=1 n=a3 v=108
560035 On ch=1 n=a4 v=108
560039 On ch=1 n=f4 v=111
560039 On ch=1 n=c#4 v=118
560039 On ch=1 n=c#5 v=112
560079 Par ch=1 c=64 v=127
560172 On ch=1 n=a3 v=0
560176 On ch=1 n=g#2 v=0
560183 On ch=1 n=c#3 v=0
560187 On ch=1 n=f3 v=0
560195 On ch=1 n=c#4 v=0
560195 On ch=1 n=f4 v=0
560202 On ch=1 n=a4 v=0
560219 On ch=1 n=c#5 v=0
560483 Par ch=1 c=64 v=0
560831 Par ch=1 c=64 v=127
560859 On ch=1 n=d4 v=115
560859 On ch=1 n=f#3 v=103
560864 On ch=1 n=a4 v=116
560864 On ch=1 n=f#4 v=113
560864 On ch=1 n=d3 v=94
560864 On ch=1 n=d5 v=111
560864 On ch=1 n=g#2 v=99
560868 On ch=1 n=a3 v=104
561016 On ch=1 n=d4 v=0
561023 On ch=1 n=g#2 v=0
561031 On ch=1 n=a3 v=0
561031 On ch=1 n=d3 v=0
561043 On ch=1 n=f#4 v=0
561047 On ch=1 n=d5 v=0
561055 On ch=1 n=a4 v=0
561055 On ch=1 n=f#3 v=0
561143 On ch=1 n=a3 v=104
561143 On ch=1 n=g#2 v=103
561143 On ch=1 n=d3 v=91
561144 On ch=1 n=d5 v=109
561144 On ch=1 n=f#4 v=116
561144 On ch=1 n=a4 v=110
561144 On ch=1 n=d4 v=120
561144 On ch=1 n=f#3 v=96
561399 On ch=1 n=a3 v=0
561439 On ch=1 n=g#2 v=0
561459 On ch=1 n=d5 v=0
561459 On ch=1 n=d3 v=0
561467 On ch=1 n=f#3 v=0
561467 On ch=1 n=f#4 v=0
561471 On ch=1 n=a4 v=0
561482 On ch=1 n=d4 v=0
562112 Par ch=1 c=64 v=0
565004 Par ch=1 c=64 v=127
565572 On ch=1 n=f#6 v=84
566299 On ch=1 n=c5 v=44
566603 On ch=1 n=d#5 v=63
566823 On ch=1 n=f#5 v=75
567018 On ch=1 n=a5 v=75
567224 On ch=1 n=c#6 v=81
567322 On ch=1 n=f#6 v=0
567443 On ch=1 n=c6 v=77
567459 On ch=1 n=c#6 v=0
567659 On ch=1 n=d#6 v=86
567663 On ch=1 n=c6 v=0
567852 On ch=1 n=f#5 v=0
567852 On ch=1 n=c5 v=0
567884 On ch=1 n=d#6 v=0
567884 On ch=1 n=d#5 v=0
567912 On ch=1 n=a5 v=0
567975 On ch=1 n=a6 v=90
568315 On ch=1 n=b4 v=49
568624 On ch=1 n=d5 v=38
568675 On ch=1 n=g#6 v=80
568791 Par ch=1 c=64 v=0
568808 On ch=1 n=a6 v=0
568939 On ch=1 n=f5 v=51
569359 On ch=1 n=g#5 v=40
569435 Par ch=1 c=64 v=127
569695 On ch=1 n=g#6 v=0
569803 On ch=1 n=g#5 v=0
570182 On ch=1 n=f5 v=0
570192 On ch=1 n=b5 v=55
570264 On ch=1 n=b5 v=0
570387 On ch=1 n=d5 v=0
570416 On ch=1 n=d6 v=70
570448 On ch=1 n=b4 v=0
570575 On ch=1 n=f6 v=79
570595 On ch=1 n=d6 v=0
570742 On ch=1 n=g#6 v=82
570752 On ch=1 n=f6 v=0
570876 On ch=1 n=g#6 v=0
570973 On ch=1 n=d7 v=99
571580 On ch=1 n=d7 v=0
571745 On ch=1 n=c#7 v=90
571772 On ch=1 n=g5 v=46
571776 On ch=1 n=a#4 v=55
571785 On ch=1 n=e5 v=48
572076 Par ch=1 c=64 v=0
572519 Par ch=1 c=64 v=127
573533 On ch=1 n=a#4 v=0
573561 On ch=1 n=a4 v=38
573892 Par ch=1 c=64 v=0
574309 Par ch=1 c=64 v=127
574572 On ch=1 n=g5 v=0
574601 On ch=1 n=e5 v=0
574719 On ch=1 n=c#7 v=0
574784 On ch=1 n=a4 v=0
575361 On ch=1 n=c7 v=53
575632 On ch=1 n=c7 v=0
575676 On ch=1 n=c#7 v=72
575892 On ch=1 n=d#7 v=70
576020 On ch=1 n=c#7 v=0
576069 On ch=1 n=e7 v=70
576189 On ch=1 n=b6 v=75
576220 On ch=1 n=d#7 v=0
576293 On ch=1 n=e7 v=0
576319 On ch=1 n=a6 v=65
576352 On ch=1 n=b6 v=0
576441 On ch=1 n=g#6 v=66
576541 Par ch=1 c=64 v=0
576545 On ch=1 n=a6 v=0
576568 On ch=1 n=c7 v=67
576688 On ch=1 n=c#7 v=77
576712 On ch=1 n=g#6 v=0
576792 On ch=1 n=c7 v=0
576829 On ch=1 n=f#6 v=68
576929 On ch=1 n=c#7 v=0
576952 On ch=1 n=e6 v=74
577039 On ch=1 n=f#6 v=0
577120 On ch=1 n=b6 v=75
577180 On ch=1 n=e6 v=0
577265 On ch=1 n=a6 v=77
577409 On ch=1 n=g#6 v=74
577529 On ch=1 n=f#6 v=76
577605 On ch=1 n=b6 v=0
577629 Par ch=1 c=64 v=127
577641 On ch=1 n=e6 v=77
577656 On ch=1 n=a6 v=0
577696 On ch=1 n=g#6 v=0
577761 On ch=1 n=f#6 v=0
577761 On ch=1 n=d#6 v=78
577868 On ch=1 n=d#6 v=0
577878 On ch=1 n=e6 v=0
577878 On ch=1 n=c#6 v=83
577998 On ch=1 n=d#6 v=82
578109 On ch=1 n=d#6 v=0
578118 On ch=1 n=c#6 v=0
578129 On ch=1 n=c#6 v=83
578256 On ch=1 n=c6 v=69
578273 Par ch=1 c=64 v=0
578370 On ch=1 n=c#6 v=0
578418 On ch=1 n=c#6 v=76
578541 On ch=1 n=c6 v=0
578586 On ch=1 n=d#6 v=68
578710 On ch=1 n=c#6 v=0
578797 On ch=1 n=c#6 v=67
578933 On ch=1 n=d#6 v=0
579165 On ch=1 n=f#6 v=62
579706 Par ch=1 c=64 v=127
580233 On ch=1 n=e6 v=49
580473 Par ch=1 c=67 v=127
580505 On ch=1 n=f#6 v=0
580737 Par ch=1 c=64 v=0
581117 Par ch=1 c=64 v=127
581342 On ch=1 n=c#6 v=0
581373 On ch=1 n=e6 v=0
581401 Par ch=1 c=64 v=0
582156 Par ch=1 c=64 v=127
582909 On ch=1 n=e5 v=39
582909 On ch=1 n=g5 v=35
582913 On ch=1 n=a4 v=43
582913 On ch=1 n=c#5 v=36
583506 On ch=1 n=a5 v=53
583553 On ch=1 n=g#4 v=35
583576 On ch=1 n=a4 v=0
583586 On ch=1 n=g5 v=0
583846 Par ch=1 c=64 v=0
584089 Par ch=1 c=64 v=127
584162 On ch=1 n=e5 v=0
584216 On ch=1 n=c#5 v=0
585029 On ch=1 n=d#5 v=36
585029 On ch=1 n=c5 v=39
585277 Par ch=1 c=64 v=0
585772 Par ch=1 c=64 v=127
586145 On ch=1 n=a5 v=0
586856 On ch=1 n=g#5 v=39
587098 Par ch=1 c=64 v=0
588658 On ch=1 n=c5 v=0
588662 On ch=1 n=d#5 v=0
588677 On ch=1 n=g#5 v=0
588693 On ch=1 n=g#4 v=0
590052 Par ch=1 c=67 v=0
590713 Par ch=1 c=64 v=127
591113 On ch=1 n=f3 v=108
591118 On ch=1 n=c4 v=115
591118 On ch=1 n=c3 v=99
591122 On ch=1 n=c5 v=114
591126 On ch=1 n=f2 v=97
591126 On ch=1 n=f4 v=109
591126 On ch=1 n=g#4 v=110
591126 On ch=1 n=g#2 v=101
591137 Par ch=1 c=64 v=0
591409 On ch=1 n=c3 v=0
591409 On ch=1 n=f3 v=0
591418 On ch=1 n=g#2 v=0
591449 On ch=1 n=c4 v=0
591453 On ch=1 n=f4 v=0
591453 On ch=1 n=f2 v=0
591469 On ch=1 n=g#4 v=0
591479 On ch=1 n=c5 v=0
592110 On ch=1 n=c4 v=118
592115 On ch=1 n=f4 v=111
592118 On ch=1 n=f3 v=110
592122 On ch=1 n=c5 v=111
592126 On ch=1 n=g#4 v=116
592126 On ch=1 n=f2 v=107
592126 On ch=1 n=c3 v=105
592126 On ch=1 n=g#2 v=103
592133 Par ch=1 c=64 v=127
592295 On ch=1 n=f3 v=0
592302 On ch=1 n=g#2 v=0
592302 On ch=1 n=c3 v=0
592310 On ch=1 n=c4 v=0
592319 On ch=1 n=f4 v=0
592323 On ch=1 n=g#4 v=0
592334 On ch=1 n=c5 v=0
592350 On ch=1 n=f2 v=0
592614 Par ch=1 c=64 v=0
593279 Par ch=1 c=64 v=127
593566 On ch=1 n=f3 v=110
593566 On ch=1 n=c4 v=115
593575 On ch=1 n=f2 v=105
593575 On ch=1 n=g#4 v=113
593575 On ch=1 n=c5 v=114
593578 On ch=1 n=c3 v=105
593578 On ch=1 n=f4 v=111
593578 On ch=1 n=g#2 v=101
593790 On ch=1 n=c5 v=0
593794 On ch=1 n=c3 v=0
593806 On ch=1 n=g#2 v=0
593806 On ch=1 n=f2 v=0
593810 On ch=1 n=c4 v=0
593810 On ch=1 n=f3 v=0
593815 On ch=1 n=f4 v=0
593819 On ch=1 n=g#4 v=0
593842 Par ch=1 c=64 v=0
594059 Par ch=1 c=64 v=127
594113 On ch=1 n=f4 v=111
594115 On ch=1 n=g#4 v=116
594115 On ch=1 n=f2 v=109
594119 On ch=1 n=c3 v=111
594119 On ch=1 n=c4 v=118
594122 On ch=1 n=f3 v=114
594122 On ch=1 n=c5 v=114
594126 On ch=1 n=g#2 v=107
594314 On ch=1 n=f3 v=0
594314 On ch=1 n=c3 v=0
594318 On ch=1 n=g#2 v=0
594335 On ch=1 n=f2 v=0
594358 On ch=1 n=c5 v=0
594358 On ch=1 n=c4 v=0
594390 On ch=1 n=f4 v=0
594419 On ch=1 n=g#4 v=0
594538 Par ch=1 c=64 v=0
594707 Par ch=1 c=64 v=127
594853 On ch=1 n=g#4 v=108
594863 On ch=1 n=f4 v=105
594863 On ch=1 n=c#3 v=104
594871 On ch=1 n=c#4 v=110
594871 On ch=1 n=c#5 v=108
594871 On ch=1 n=f3 v=102
594871 On ch=1 n=f2 v=99
594871 On ch=1 n=g#2 v=101
594987 On ch=1 n=f2 v=0
594991 On ch=1 n=c#5 v=0
594991 On ch=1 n=c#4 v=0
594992 On ch=1 n=f3 v=0
594996 On ch=1 n=c#3 v=0
595000 On ch=1 n=g#4 v=0
595007 On ch=1 n=g#2 v=0
595030 On ch=1 n=f4 v=0
595080 On ch=1 n=f4 v=97
595080 On ch=1 n=g#4 v=106
595092 On ch=1 n=c#4 v=120
595092 On ch=1 n=c#5 v=115
595092 On ch=1 n=g#2 v=98
595095 On ch=1 n=c#3 v=110
595095 On ch=1 n=f3 v=110
595095 On ch=1 n=f2 v=109
595487 On ch=1 n=c#3 v=0
595487 On ch=1 n=c#5 v=0
595491 On ch=1 n=g#4 v=0
595496 On ch=1 n=f3 v=0
595500 On ch=1 n=g#2 v=0
595500 On ch=1 n=f4 v=0
595503 On ch=1 n=c#4 v=0
595511 On ch=1 n=f2 v=0
595663 Par ch=1 c=64 v=0
597443 On ch=1 n=g#4 v=118
597451 On ch=1 n=c#3 v=108
597451 On ch=1 n=c#5 v=112
597451 On ch=1 n=f5 v=110
597451 On ch=1 n=f4 v=111
597452 On ch=1 n=f3 v=110
597452 On ch=1 n=f2 v=105
597452 On ch=1 n=g#2 v=101
597675 On ch=1 n=f3 v=0
597690 On ch=1 n=c#3 v=0
597700 On ch=1 n=g#2 v=0
597700 On ch=1 n=f2 v=0
597717 On ch=1 n=f4 v=0
597776 On ch=1 n=f5 v=0
597797 On ch=1 n=g#4 v=0
597808 On ch=1 n=c#5 v=0
598467 On ch=1 n=g#4 v=116
598467 On ch=1 n=c#3 v=110
598469 On ch=1 n=f4 v=111
598469 On ch=1 n=f5 v=112
598469 On ch=1 n=f3 v=112
598469 On ch=1 n=f2 v=109
598469 On ch=1 n=c#5 v=112
598469 On ch=1 n=g#2 v=107
598472 Par ch=1 c=64 v=127
598704 On ch=1 n=f3 v=0
598720 On ch=1 n=c#3 v=0
598748 On ch=1 n=f2 v=0
598749 On ch=1 n=g#2 v=0
598749 On ch=1 n=f4 v=0
598763 On ch=1 n=g#4 v=0
598777 On ch=1 n=f5 v=0
598784 On ch=1 n=c#5 v=0
598969 Par ch=1 c=64 v=0
599647 Par ch=1 c=64 v=127
599940 On ch=1 n=c#3 v=108
599947 On ch=1 n=f2 v=105
599947 On ch=1 n=f3 v=108
599957 On ch=1 n=a2 v=102
599957 On ch=1 n=a4 v=116
599961 On ch=1 n=c#5 v=112
599961 On ch=1 n=f4 v=114
599961 On ch=1 n=f5 v=110
600168 On ch=1 n=f5 v=0
600188 On ch=1 n=f4 v=0
600207 On ch=1 n=a2 v=0
600207 On ch=1 n=f3 v=0
600207 On ch=1 n=f2 v=0
600213 On ch=1 n=a4 v=0
600213 On ch=1 n=c#3 v=0
600217 On ch=1 n=c#5 v=0
600524 On ch=1 n=c#3 v=110
600524 On ch=1 n=f3 v=114
600524 On ch=1 n=a4 v=118
600528 On ch=1 n=f2 v=105
600528 On ch=1 n=c#5 v=110
600528 On ch=1 n=f4 v=117
600529 On ch=1 n=f5 v=112
600529 On ch=1 n=a2 v=100
600777 On ch=1 n=a2 v=0
600777 On ch=1 n=f5 v=0
600780 On ch=1 n=f4 v=0
600789 On ch=1 n=c#3 v=0
600792 On ch=1 n=f3 v=0
600796 On ch=1 n=f2 v=0
600796 On ch=1 n=a4 v=0
600807 On ch=1 n=c#5 v=0
600984 Par ch=1 c=64 v=0
601321 On ch=1 n=f2 v=101
601321 On ch=1 n=f#3 v=107
601328 On ch=1 n=c#3 v=104
601328 On ch=1 n=a#4 v=111
601329 On ch=1 n=c#5 v=108
601329 On ch=1 n=a#2 v=98
601329 On ch=1 n=f4 v=111
601329 On ch=1 n=f#5 v=110
601388 Par ch=1 c=64 v=127
601477 On ch=1 n=f4 v=0
601484 On ch=1 n=f#5 v=0
601508 On ch=1 n=c#3 v=0
601508 On ch=1 n=f#3 v=0
601508 On ch=1 n=f2 v=0
601509 On ch=1 n=a#2 v=0
601512 On ch=1 n=a#4 v=0
601524 On ch=1 n=c#5 v=0
601597 On ch=1 n=a#4 v=111
601604 On ch=1 n=c#5 v=104
601609 On ch=1 n=c#3 v=106
601613 On ch=1 n=f4 v=119
601613 On ch=1 n=a#2 v=98
601613 On ch=1 n=f2 v=101
601613 On ch=1 n=f#3 v=109
601616 On ch=1 n=f#5 v=118
602089 On ch=1 n=f#3 v=0
602100 On ch=1 n=a#2 v=0
602100 On ch=1 n=c#3 v=0
602110 On ch=1 n=f2 v=0
602194 On ch=1 n=f4 v=0
602217 On ch=1 n=a#4 v=0
602234 On ch=1 n=c#5 v=0
602241 On ch=1 n=f#5 v=0
602517 Par ch=1 c=64 v=0
606006 Par ch=1 c=64 v=127
606214 On ch=1 n=a#6 v=75
606726 On ch=1 n=c#5 v=36
606981 On ch=1 n=e5 v=51
607177 On ch=1 n=g5 v=65
607377 On ch=1 n=a#5 v=73
607561 On ch=1 n=f6 v=79
607744 On ch=1 n=e6 v=77
607754 On ch=1 n=a#6 v=0
607784 On ch=1 n=f6 v=0
607897 On ch=1 n=g5 v=0
607914 On ch=1 n=a#5 v=0
607921 On ch=1 n=e5 v=0
607945 On ch=1 n=c#5 v=0
607955 On ch=1 n=g6 v=85
608038 On ch=1 n=e6 v=0
608170 On ch=1 n=c#7 v=90
608198 Par ch=1 c=64 v=0
608291 On ch=1 n=g6 v=0
608414 On ch=1 n=a4 v=50
608437 Par ch=1 c=64 v=127
608514 On ch=1 n=c#7 v=0
608631 On ch=1 n=d#5 v=48
608734 On ch=1 n=c7 v=85
608963 On ch=1 n=f#5 v=57
609074 On ch=1 n=c7 v=0
609335 On ch=1 n=c6 v=58
609603 On ch=1 n=c6 v=0
610047 On ch=1 n=d6 v=61
610314 On ch=1 n=d#6 v=71
610318 On ch=1 n=d6 v=0
610431 On ch=1 n=f#6 v=77
610495 On ch=1 n=d#6 v=0
610541 On ch=1 n=a6 v=77
610574 On ch=1 n=f#6 v=0
610655 On ch=1 n=c7 v=89
610767 On ch=1 n=a4 v=0
610790 On ch=1 n=f#5 v=0
610790 On ch=1 n=d#5 v=0
610834 On ch=1 n=f7 v=99
610910 Par ch=1 c=64 v=0
611114 Par ch=1 c=64 v=127
611143 On ch=1 n=f#4 v=56
611178 On ch=1 n=c5 v=74
611258 On ch=1 n=d#5 v=74
611267 On ch=1 n=f#4 v=0
611283 On ch=1 n=a5 v=88
611326 On ch=1 n=c5 v=0
611330 On ch=1 n=d#5 v=0
611354 On ch=1 n=a5 v=0
611643 On ch=1 n=c7 v=0
611878 On ch=1 n=a6 v=0
612538 On ch=1 n=d#7 v=70
612571 Par ch=1 c=64 v=0
612707 Par ch=1 c=64 v=127
612821 On ch=1 n=f7 v=0
612843 On ch=1 n=d7 v=75
612882 On ch=1 n=d#7 v=0
613067 On ch=1 n=c7 v=75
613078 On ch=1 n=d7 v=0
613238 On ch=1 n=a#6 v=73
613295 On ch=1 n=c7 v=0
613383 On ch=1 n=a6 v=82
613514 On ch=1 n=a#6 v=0
613530 On ch=1 n=g6 v=71
613563 On ch=1 n=a6 v=0
613671 On ch=1 n=f#6 v=76
613801 On ch=1 n=g6 v=0
613803 On ch=1 n=a#6 v=69
613831 Par ch=1 c=64 v=0
613907 On ch=1 n=f#6 v=0
613958 On ch=1 n=a6 v=70
614078 On ch=1 n=a#6 v=0
614086 Par ch=1 c=64 v=127
614103 On ch=1 n=g6 v=66
614178 On ch=1 n=a6 v=0
614218 On ch=1 n=f#6 v=67
614278 On ch=1 n=g6 v=0
614302 On ch=1 n=d#6 v=72
614435 On ch=1 n=d#6 v=0
614435 On ch=1 n=d6 v=78
614454 On ch=1 n=f#6 v=0
614537 On ch=1 n=d6 v=0
614537 On ch=1 n=d#6 v=82
614614 On ch=1 n=d#6 v=0
614651 On ch=1 n=d6 v=82
614774 On ch=1 n=c6 v=81
614778 On ch=1 n=d6 v=0
614898 On ch=1 n=d6 v=82
614987 On ch=1 n=c6 v=0
615002 Par ch=1 c=64 v=0
615082 On ch=1 n=f6 v=79
615167 On ch=1 n=d6 v=0
615222 Par ch=1 c=64 v=127
615357 On ch=1 n=d#6 v=86
615371 On ch=1 n=f6 v=0
615402 Par ch=1 c=64 v=0
615540 Par ch=1 c=64 v=127
615600 On ch=1 n=d6 v=82
615631 On ch=1 n=d#6 v=0
615872 On ch=1 n=d6 v=0
615900 On ch=1 n=c6 v=67
616011 On ch=1 n=c6 v=0
616267 On ch=1 n=a#5 v=66
616380 On ch=1 n=a#5 v=0
616692 On ch=1 n=a5 v=73
616707 On ch=1 n=f#4 v=53
616707 On ch=1 n=a4 v=49
616715 On ch=1 n=d#5 v=49
616720 On ch=1 n=c5 v=45
617227 On ch=1 n=a#3 v=76
617335 Par ch=1 c=64 v=0
617599 Par ch=1 c=64 v=127
617647 On ch=1 n=a4 v=0
617668 On ch=1 n=f#4 v=0
617744 On ch=1 n=c5 v=0
618211 On ch=1 n=d#5 v=0
618243 On ch=1 n=a#4 v=45
618247 On ch=1 n=d5 v=47
618251 On ch=1 n=g4 v=41
618271 Par ch=1 c=64 v=0
618532 On ch=1 n=a5 v=0
618532 Par ch=1 c=64 v=127
618618 On ch=1 n=f#5 v=68
618651 On ch=1 n=d5 v=0
618840 On ch=1 n=f#5 v=0
618943 On ch=1 n=a5 v=72
619099 On ch=1 n=a5 v=0
619235 On ch=1 n=g5 v=76
619403 On ch=1 n=g5 v=0
619527 On ch=1 n=d6 v=80
619539 On ch=1 n=g4 v=0
619539 On ch=1 n=a#4 v=0
619695 On ch=1 n=d6 v=0
619818 On ch=1 n=a#5 v=88
619847 On ch=1 n=d5 v=70
619847 On ch=1 n=g4 v=51
619847 On ch=1 n=g5 v=65
619847 On ch=1 n=a#4 v=52
619918 On ch=1 n=g4 v=0
619932 On ch=1 n=a#4 v=0
619960 On ch=1 n=a#3 v=0
620211 On ch=1 n=f#3 v=87
620231 Par ch=1 c=64 v=0
620435 Par ch=1 c=64 v=127
620571 On ch=1 n=f#3 v=0
620691 On ch=1 n=d5 v=0
620707 On ch=1 n=g5 v=0
621079 On ch=1 n=d#5 v=52
621079 On ch=1 n=c5 v=47
621091 On ch=1 n=f#4 v=49
621091 Par ch=1 c=64 v=0
621215 Par ch=1 c=64 v=127
621348 On ch=1 n=d#5 v=0
621395 On ch=1 n=g5 v=74
621527 On ch=1 n=g5 v=0
621551 On ch=1 n=a#5 v=0
621691 On ch=1 n=a#5 v=73
621872 On ch=1 n=a#5 v=0
621991 On ch=1 n=a5 v=69
622231 On ch=1 n=a5 v=0
622315 On ch=1 n=d#6 v=67
622424 On ch=1 n=d#6 v=0
622508 On ch=1 n=f#4 v=0
622515 On ch=1 n=c5 v=0
622735 On ch=1 n=f#5 v=82
622739 On ch=1 n=d#5 v=75
622739 On ch=1 n=c6 v=79
622760 On ch=1 n=c5 v=48
622775 On ch=1 n=a4 v=46
622908 On ch=1 n=c5 v=0
622923 On ch=1 n=a4 v=0
623371 On ch=1 n=c#3 v=98
623531 Par ch=1 c=64 v=0
623819 Par ch=1 c=64 v=127
624355 On ch=1 n=c#3 v=0
624620 On ch=1 n=f#5 v=0
624735 On ch=1 n=d#5 v=0
624779 On ch=1 n=c6 v=0
625218 On ch=1 n=d#5 v=41
625228 On ch=1 n=a5 v=45
625228 On ch=1 n=f#4 v=48
625261 On ch=1 n=c5 v=41
625352 On ch=1 n=d#5 v=0
625369 On ch=1 n=c5 v=0
625457 On ch=1 n=f#4 v=0
625561 On ch=1 n=a5 v=0
625581 On ch=1 n=a#5 v=58
625589 On ch=1 n=e5 v=57
625604 On ch=1 n=c#5 v=57
625604 On ch=1 n=g4 v=55
625628 Par ch=1 c=64 v=0
625695 On ch=1 n=e5 v=0
625716 On ch=1 n=c#5 v=0
625732 Par ch=1 c=64 v=127
625775 On ch=1 n=g4 v=0
625821 On ch=1 n=c6 v=64
625836 On ch=1 n=f#5 v=70
625844 On ch=1 n=a4 v=54
625844 On ch=1 n=d#5 v=61
625854 On ch=1 n=a#5 v=0
625922 On ch=1 n=f#5 v=0
625962 On ch=1 n=d#5 v=0
625977 On ch=1 n=c6 v=0
626053 On ch=1 n=e5 v=67
626053 On ch=1 n=c#6 v=73
626053 On ch=1 n=g5 v=74
626053 On ch=1 n=a#4 v=48
626082 On ch=1 n=a#4 v=0
626094 On ch=1 n=a4 v=0
626102 On ch=1 n=g5 v=0
626125 On ch=1 n=e5 v=0
626205 On ch=1 n=c5 v=71
626209 On ch=1 n=d#6 v=82
626213 On ch=1 n=c#6 v=0
626214 On ch=1 n=a5 v=78
626214 On ch=1 n=f#5 v=73
626292 On ch=1 n=a5 v=0
626354 On ch=1 n=f#5 v=0
626365 On ch=1 n=a#5 v=84
626365 On ch=1 n=e6 v=79
626374 On ch=1 n=d#6 v=0
626374 On ch=1 n=c#5 v=71
626374 On ch=1 n=g5 v=73
626398 On ch=1 n=c5 v=0
626425 On ch=1 n=a#5 v=0
626452 On ch=1 n=g5 v=0
626462 On ch=1 n=c#5 v=0
626522 On ch=1 n=c6 v=85
626522 On ch=1 n=f#6 v=88
626526 On ch=1 n=a5 v=80
626526 On ch=1 n=d#5 v=75
626530 On ch=1 n=e6 v=0
626586 On ch=1 n=a5 v=0
626586 On ch=1 n=c6 v=0
626655 On ch=1 n=d#5 v=0
626689 On ch=1 n=f#6 v=0
626710 On ch=1 n=a6 v=98
626722 On ch=1 n=c#6 v=101
626722 On ch=1 n=e5 v=83
626726 On ch=1 n=a#5 v=86
626914 Par ch=1 c=64 v=0
628223 Par ch=1 c=64 v=127
630410 On ch=1 n=g6 v=45
630922 On ch=1 n=a6 v=0
631970 On ch=1 n=a#5 v=0
632390 On ch=1 n=e5 v=0
632609 On ch=1 n=c#6 v=0
632670 On ch=1 n=g6 v=0
633545 Par ch=1 c=64 v=0
634251 Par ch=1 c=64 v=127
634555 On ch=1 n=c3 v=61
634595 On ch=1 n=c#3 v=74
634614 On ch=1 n=d#3 v=77
634650 On ch=1 n=c3 v=0
634659 On ch=1 n=e3 v=90
634686 On ch=1 n=c#3 v=0
634702 Par ch=1 c=64 v=0
634705 On ch=1 n=d#3 v=0
634715 On ch=1 n=e3 v=0
634931 On ch=1 n=e3 v=84
635003 On ch=1 n=e3 v=0
635186 On ch=1 n=e3 v=73
635262 On ch=1 n=e3 v=0
635418 On ch=1 n=e3 v=80
635498 On ch=1 n=e3 v=0
635650 On ch=1 n=e3 v=93
635725 On ch=1 n=e3 v=0
635889 On ch=1 n=e3 v=90
635969 On ch=1 n=e3 v=0
636159 On ch=1 n=e3 v=84
636306 Par ch=1 c=64 v=127
636322 On ch=1 n=e3 v=0
636499 On ch=1 n=d#3 v=77
636666 On ch=1 n=c#3 v=75
636669 Par ch=1 c=64 v=0
636675 On ch=1 n=d#3 v=0
636902 On ch=1 n=c#3 v=0
636931 On ch=1 n=g#3 v=66
636935 On ch=1 n=g#2 v=65
637966 Par ch=1 c=67 v=127
638490 Par ch=1 c=64 v=127
638610 On ch=1 n=g#3 v=0
638671 On ch=1 n=g#2 v=0
639458 On ch=1 n=e5 v=43
639458 On ch=1 n=a#5 v=47
639462 On ch=1 n=g4 v=44
639462 On ch=1 n=c#5 v=37
639466 Par ch=1 c=64 v=0
639562 On ch=1 n=e5 v=0
639606 Par ch=1 c=64 v=127
639699 On ch=1 n=c#5 v=0
639711 On ch=1 n=g4 v=0
639725 On ch=1 n=a#5 v=0
639742 On ch=1 n=d5 v=46
639742 On ch=1 n=f5 v=49
639746 On ch=1 n=g#4 v=46
639746 On ch=1 n=b5 v=52
639803 On ch=1 n=f5 v=0
639829 On ch=1 n=d5 v=0
639922 On ch=1 n=g#4 v=0
639945 On ch=1 n=a#4 v=59
639949 On ch=1 n=c#6 v=64
639955 On ch=1 n=g5 v=56
639955 On ch=1 n=e5 v=56
640002 On ch=1 n=a#4 v=0
640026 On ch=1 n=e5 v=0
640062 On ch=1 n=g5 v=0
640086 Par ch=1 c=64 v=0
640111 On ch=1 n=c#6 v=0
640129 On ch=1 n=b5 v=0
640139 On ch=1 n=d6 v=57
640139 On ch=1 n=g#5 v=51
640155 On ch=1 n=b4 v=55
640163 On ch=1 n=f5 v=58
640173 On ch=1 n=g#5 v=0
640216 On ch=1 n=f5 v=0
640216 Par ch=1 c=64 v=127
640260 On ch=1 n=d6 v=0
640289 On ch=1 n=e6 v=59
640303 On ch=1 n=g5 v=60
640309 On ch=1 n=a#5 v=62
640317 On ch=1 n=c#5 v=51
640320 On ch=1 n=b4 v=0
640349 On ch=1 n=a#5 v=0
640380 On ch=1 n=g5 v=0
640416 On ch=1 n=e6 v=0
640433 On ch=1 n=c#5 v=0
640440 On ch=1 n=d5 v=57
640472 On ch=1 n=b5 v=58
640482 On ch=1 n=f6 v=58
640526 On ch=1 n=b5 v=0
640614 On ch=1 n=g6 v=72
640650 On ch=1 n=e5 v=66
640653 On ch=1 n=f6 v=0
640657 On ch=1 n=c#6 v=66
640680 On ch=1 n=c#6 v=0
640690 On ch=1 n=e5 v=0
640700 On ch=1 n=d5 v=0
640700 On ch=1 n=a#5 v=55
640736 On ch=1 n=g6 v=0
640771 On ch=1 n=a#5 v=0
640927 On ch=1 n=a#6 v=63
640934 On ch=1 n=f5 v=42
640940 On ch=1 n=b5 v=54
640944 On ch=1 n=d6 v=46
641303 Par ch=1 c=64 v=0
642395 Par ch=1 c=64 v=127
644356 On ch=1 n=g#6 v=35
644615 Par ch=1 c=64 v=0
644755 On ch=1 n=a#6 v=0
644784 Par ch=1 c=64 v=127
644836 On ch=1 n=b5 v=0
644884 On ch=1 n=d6 v=0
644943 On ch=1 n=g#6 v=0
644967 On ch=1 n=f5 v=0
645543 Par ch=1 c=67 v=0
645820 Par ch=1 c=64 v=0
646923 Par ch=1 c=64 v=127
647236 On ch=1 n=e3 v=61
647264 On ch=1 n=f3 v=69
647287 On ch=1 n=g3 v=66
647308 On ch=1 n=e3 v=0
647331 On ch=1 n=f3 v=0
647355 On ch=1 n=g#3 v=78
647360 On ch=1 n=g3 v=0
647360 Par ch=1 c=64 v=0
647391 On ch=1 n=g#3 v=0
647611 On ch=1 n=g#3 v=66
647660 On ch=1 n=g#3 v=0
647827 On ch=1 n=g#3 v=66
647871 On ch=1 n=g#3 v=0
648023 On ch=1 n=g#3 v=67
648075 On ch=1 n=g#3 v=0
648207 On ch=1 n=g#3 v=66
648300 On ch=1 n=g#3 v=0
648400 On ch=1 n=g3 v=66
648479 On ch=1 n=f3 v=73
648487 On ch=1 n=g3 v=0
648534 On ch=1 n=f3 v=0
648564 On ch=1 n=c4 v=66
648607 On ch=1 n=c4 v=0
648760 On ch=1 n=b3 v=71
648803 On ch=1 n=b3 v=0
648987 On ch=1 n=d#4 v=78
648996 On ch=1 n=d#3 v=71
649007 Par ch=1 c=64 v=127
649047 On ch=1 n=d#3 v=0
649067 On ch=1 n=d#4 v=0
649399 On ch=1 n=g6 v=75
649403 On ch=1 n=b4 v=58
649414 On ch=1 n=d6 v=67
649414 On ch=1 n=g5 v=47
649414 On ch=1 n=b5 v=68
649431 On ch=1 n=d5 v=39
649447 On ch=1 n=g5 v=0
649447 On ch=1 n=d6 v=0
649451 On ch=1 n=b4 v=0
649461 On ch=1 n=b5 v=0
649473 On ch=1 n=d5 v=0
649473 On ch=1 n=g6 v=0
649828 On ch=1 n=g5 v=67
649828 On ch=1 n=b5 v=72
649828 On ch=1 n=g4 v=54
649833 On ch=1 n=d5 v=60
649836 On ch=1 n=d#4 v=44
649836 On ch=1 n=b4 v=46
649948 On ch=1 n=g5 v=0
649984 On ch=1 n=d5 v=0
650048 On ch=1 n=b4 v=0
650057 On ch=1 n=b5 v=0
650244 On ch=1 n=d#4 v=0
650372 On ch=1 n=c6 v=71
650384 On ch=1 n=c5 v=51
650387 On ch=1 n=d#5 v=60
650391 On ch=1 n=g5 v=60
650413 On ch=1 n=c5 v=0
650413 On ch=1 n=g4 v=0
650432 On ch=1 n=g5 v=0
650437 On ch=1 n=d#5 v=0
650472 On ch=1 n=c6 v=0
650504 Par ch=1 c=64 v=0
650596 On ch=1 n=d4 v=84
650600 On ch=1 n=d3 v=84
650657 On ch=1 n=d4 v=0
650672 Par ch=1 c=64 v=127
650677 On ch=1 n=d3 v=0
651008 On ch=1 n=g#6 v=86
651008 On ch=1 n=c5 v=66
651008 On ch=1 n=c6 v=87
651016 On ch=1 n=f6 v=81
651024 On ch=1 n=g#5 v=67
651024 On ch=1 n=f5 v=61
651071 On ch=1 n=f6 v=0
651077 On ch=1 n=f5 v=0
651077 On ch=1 n=g#5 v=0
651085 On ch=1 n=c5 v=0
651088 On ch=1 n=c6 v=0
651097 On ch=1 n=g#6 v=0
651441 On ch=1 n=c#6 v=85
651441 On ch=1 n=a5 v=84
651441 On ch=1 n=f5 v=84
651444 On ch=1 n=a4 v=65
651448 On ch=1 n=c#5 v=63
651453 On ch=1 n=f4 v=64
651500 Par ch=1 c=64 v=0
651600 Par ch=1 c=64 v=127
651633 On ch=1 n=a4 v=0
651633 On ch=1 n=a5 v=0
651651 On ch=1 n=c#5 v=0
651661 On ch=1 n=f4 v=0
651673 On ch=1 n=c#6 v=0
651677 On ch=1 n=f5 v=0
651944 On ch=1 n=a#4 v=64
651961 On ch=1 n=d5 v=44
651973 On ch=1 n=a#5 v=80
651977 On ch=1 n=d6 v=70
651987 On ch=1 n=a#4 v=0
652002 On ch=1 n=d5 v=0
652027 On ch=1 n=d6 v=0
652027 On ch=1 n=a#5 v=0
652078 Par ch=1 c=64 v=0
652154 On ch=1 n=c#4 v=92
652154 On ch=1 n=c#3 v=82
652198 On ch=1 n=c#3 v=0
652227 On ch=1 n=c#4 v=0
652227 Par ch=1 c=64 v=127
652555 On ch=1 n=f#5 v=65
652558 On ch=1 n=a6 v=80
652567 On ch=1 n=c#5 v=70
652567 On ch=1 n=f#6 v=84
652567 On ch=1 n=a5 v=76
652567 On ch=1 n=c#6 v=79
652614 On ch=1 n=f#6 v=0
652618 On ch=1 n=a5 v=0
652618 On ch=1 n=f#5 v=0
652628 On ch=1 n=c#5 v=0
652628 On ch=1 n=a6 v=0
652631 On ch=1 n=c#6 v=0
652963 On ch=1 n=f6 v=87
652979 On ch=1 n=d6 v=82
652979 On ch=1 n=f5 v=86
652979 On ch=1 n=g#4 v=84
652982 On ch=1 n=b4 v=78
652984 On ch=1 n=b5 v=85
652992 On ch=1 n=g#5 v=86
652992 On ch=1 n=d5 v=79
653003 Par ch=1 c=64 v=0
653103 On ch=1 n=b4 v=0
653103 On ch=1 n=g#4 v=0
653115 Par ch=1 c=64 v=127
653124 On ch=1 n=g#5 v=0
653124 On ch=1 n=b5 v=0
653128 On ch=1 n=f5 v=0
653132 On ch=1 n=d5 v=0
653148 On ch=1 n=d6 v=0
653148 On ch=1 n=f6 v=0
653475 On ch=1 n=a4 v=58
653479 On ch=1 n=f#5 v=59
653479 On ch=1 n=c#5 v=63
653502 On ch=1 n=c#6 v=85
653504 On ch=1 n=f#6 v=84
653512 On ch=1 n=a5 v=76
653519 On ch=1 n=f#5 v=0
653524 On ch=1 n=c#5 v=0
653524 On ch=1 n=a4 v=0
653578 On ch=1 n=a5 v=0
653578 On ch=1 n=c#6 v=0
653611 On ch=1 n=f#6 v=0
653628 Par ch=1 c=64 v=0
653711 On ch=1 n=c3 v=93
653719 On ch=1 n=c4 v=92
653784 On ch=1 n=c4 v=0
653784 On ch=1 n=c3 v=0
653787 Par ch=1 c=64 v=127
654099 On ch=1 n=a#6 v=91
654099 On ch=1 n=a#5 v=98
654109 On ch=1 n=e6 v=100
654109 On ch=1 n=g5 v=81
654112 On ch=1 n=a#4 v=83
654112 On ch=1 n=e5 v=77
654220 On ch=1 n=e5 v=0
654220 On ch=1 n=g5 v=0
654261 On ch=1 n=a#5 v=0
654276 On ch=1 n=a#4 v=0
654276 On ch=1 n=e6 v=0
654276 On ch=1 n=a#6 v=0
654472 On ch=1 n=d#5 v=83
654489 On ch=1 n=a4 v=86
654489 On ch=1 n=f#6 v=94
654500 On ch=1 n=f#5 v=88
654500 On ch=1 n=d#6 v=95
654500 On ch=1 n=a5 v=93
654510 Par ch=1 c=64 v=0
654633 Par ch=1 c=64 v=127
654658 On ch=1 n=d#5 v=0
654677 On ch=1 n=a5 v=0
654677 On ch=1 n=a4 v=0
654692 On ch=1 n=d#6 v=0
654696 On ch=1 n=f#6 v=0
654706 On ch=1 n=f#5 v=0
655006 On ch=1 n=e5 v=64
655014 On ch=1 n=g6 v=85
655015 On ch=1 n=e6 v=88
655015 On ch=1 n=a#4 v=67
655015 On ch=1 n=g5 v=62
655023 On ch=1 n=a#5 v=90
655030 On ch=1 n=g5 v=0
655034 On ch=1 n=e5 v=0
655067 On ch=1 n=a#4 v=0
655075 On ch=1 n=a#5 v=0
655082 On ch=1 n=e6 v=0
655110 On ch=1 n=g6 v=0
655270 Par ch=1 c=64 v=0
655330 On ch=1 n=b2 v=88
655418 On ch=1 n=b2 v=0
655418 Par ch=1 c=64 v=127
655515 On ch=1 n=b2 v=88
655606 On ch=1 n=b2 v=0
655670 Par ch=1 c=64 v=0
655699 On ch=1 n=b2 v=93
655766 On ch=1 n=b2 v=0
655775 Par ch=1 c=64 v=127
655866 On ch=1 n=b2 v=93
655986 On ch=1 n=b2 v=0
656054 On ch=1 n=d#6 v=104
656054 On ch=1 n=b2 v=93
656054 On ch=1 n=c7 v=120
656054 On ch=1 n=f#6 v=100
656103 Par ch=1 c=64 v=0
656242 On ch=1 n=b2 v=0
656242 On ch=1 n=a2 v=71
656246 Par ch=1 c=64 v=127
656310 On ch=1 n=g2 v=81
656330 On ch=1 n=a2 v=0
656370 On ch=1 n=c7 v=0
656374 On ch=1 n=f#6 v=0
656403 On ch=1 n=c3 v=87
656406 On ch=1 n=g2 v=0
656410 On ch=1 n=d#6 v=0
656475 On ch=1 n=c3 v=0
656575 On ch=1 n=b2 v=90
656670 On ch=1 n=b2 v=0
656762 On ch=1 n=d#6 v=115
656773 On ch=1 n=b2 v=82
656773 On ch=1 n=a5 v=96
656775 On ch=1 n=f#5 v=102
656866 On ch=1 n=b2 v=0
656942 On ch=1 n=b2 v=70
657046 On ch=1 n=b2 v=0
657067 Par ch=1 c=64 v=0
657138 On ch=1 n=b2 v=73
657223 On ch=1 n=b2 v=0
657319 On ch=1 n=b2 v=72
657402 On ch=1 n=b2 v=0
657494 On ch=1 n=b2 v=75
657586 On ch=1 n=a5 v=0
657596 Par ch=1 c=64 v=127
657630 On ch=1 n=f#5 v=0
657664 On ch=1 n=a2 v=72
657667 On ch=1 n=b2 v=0
657716 On ch=1 n=d#6 v=0
657732 On ch=1 n=g2 v=76
657751 On ch=1 n=a2 v=0
657816 On ch=1 n=c3 v=76
657820 On ch=1 n=g2 v=0
657827 On ch=1 n=g5 v=89
657836 On ch=1 n=e6 v=115
657836 On ch=1 n=c6 v=89
657903 On ch=1 n=c3 v=0
657980 On ch=1 n=g5 v=0
657992 On ch=1 n=b2 v=80
658020 On ch=1 n=c6 v=0
658020 On ch=1 n=e6 v=0
658103 On ch=1 n=b2 v=0
658191 On ch=1 n=g6 v=120
658191 On ch=1 n=a5 v=102
658200 On ch=1 n=c6 v=94
658200 On ch=1 n=b2 v=80
658291 On ch=1 n=b2 v=0
658363 On ch=1 n=b2 v=66
658392 Par ch=1 c=64 v=0
658460 On ch=1 n=b2 v=0
658550 On ch=1 n=b2 v=70
658643 On ch=1 n=b2 v=0
658723 On ch=1 n=b2 v=66
658812 On ch=1 n=b2 v=0
658919 On ch=1 n=b2 v=66
659099 On ch=1 n=b2 v=0
659109 On ch=1 n=a2 v=70
659164 On ch=1 n=g2 v=77
659197 On ch=1 n=a2 v=0
659240 On ch=1 n=c3 v=87
659288 On ch=1 n=g2 v=0
659347 On ch=1 n=c3 v=0
659432 On ch=1 n=b2 v=84
659509 On ch=1 n=b2 v=0
659540 Par ch=1 c=64 v=127
659616 On ch=1 n=b2 v=90
659620 On ch=1 n=c6 v=0
659692 On ch=1 n=b2 v=0
659744 On ch=1 n=a5 v=0
659754 On ch=1 n=g6 v=0
659781 On ch=1 n=b2 v=78
659877 On ch=1 n=b2 v=0
659953 On ch=1 n=b2 v=70
659964 On ch=1 n=a5 v=82
659974 On ch=1 n=f6 v=100
659978 On ch=1 n=c6 v=70
660004 On ch=1 n=c6 v=0
660041 On ch=1 n=a5 v=0
660045 On ch=1 n=b2 v=0
660170 On ch=1 n=b2 v=77
660197 On ch=1 n=f6 v=0
660213 On ch=1 n=b2 v=0
660333 On ch=1 n=a5 v=84
660337 On ch=1 n=d6 v=111
660337 On ch=1 n=f5 v=86
660341 On ch=1 n=b2 v=69
660410 Par ch=1 c=64 v=0
660505 On ch=1 n=a5 v=0
660517 On ch=1 n=b2 v=0
660517 On ch=1 n=a2 v=72
660586 Par ch=1 c=64 v=127
660600 On ch=1 n=f5 v=0
660604 On ch=1 n=g2 v=76
660629 On ch=1 n=a2 v=0
660689 On ch=1 n=g2 v=0
660689 On ch=1 n=c3 v=68
660697 On ch=1 n=e5 v=83
660697 On ch=1 n=a5 v=76
660704 On ch=1 n=c6 v=100
660733 On ch=1 n=d6 v=0
660773 On ch=1 n=c3 v=0
660837 On ch=1 n=c6 v=0
660845 On ch=1 n=a5 v=0
660864 On ch=1 n=e5 v=0
660864 On ch=1 n=b2 v=73
660953 On ch=1 n=b2 v=0
661073 On ch=1 n=b2 v=70
661083 On ch=1 n=f5 v=88
661083 On ch=1 n=a5 v=111
661083 On ch=1 n=d5 v=83
661161 On ch=1 n=b2 v=0
661191 Par ch=1 c=64 v=0
661242 On ch=1 n=b2 v=64
661341 On ch=1 n=b2 v=0
661422 On ch=1 n=b2 v=68
661527 On ch=1 n=b2 v=0
661594 On ch=1 n=b2 v=68
661635 On ch=1 n=a5 v=0
661662 On ch=1 n=d5 v=0
661687 On ch=1 n=b2 v=0
661791 On ch=1 n=b2 v=68
661791 On ch=1 n=c5 v=77
661791 On ch=1 n=a5 v=115
661795 On ch=1 n=e5 v=74
661821 On ch=1 n=f5 v=0
661918 Par ch=1 c=64 v=127
661981 On ch=1 n=b2 v=0
661983 On ch=1 n=a2 v=67
662058 On ch=1 n=g2 v=73
662074 On ch=1 n=a5 v=0
662078 On ch=1 n=a2 v=0
662094 On ch=1 n=e5 v=0
662094 On ch=1 n=c5 v=0
662117 On ch=1 n=c3 v=83
662127 On ch=1 n=g2 v=0
662200 On ch=1 n=c3 v=0
662280 On ch=1 n=b2 v=84
662371 On ch=1 n=b2 v=0
662480 On ch=1 n=a4 v=84
662480 On ch=1 n=d#5 v=79
662491 On ch=1 n=c6 v=119
662491 On ch=1 n=f#5 v=76
662491 On ch=1 n=b2 v=66
662575 On ch=1 n=b2 v=0
662587 Par ch=1 c=64 v=0
662668 On ch=1 n=b2 v=58
662739 On ch=1 n=b2 v=0
662851 On ch=1 n=b2 v=66
662924 On ch=1 n=b2 v=0
663059 On ch=1 n=b2 v=68
663111 On ch=1 n=b2 v=0
663183 Par ch=1 c=67 v=127
663223 On ch=1 n=b2 v=70
663411 On ch=1 n=b2 v=0
663431 On ch=1 n=a2 v=71
663504 On ch=1 n=g2 v=77
663527 On ch=1 n=a2 v=0
663579 On ch=1 n=c3 v=79
663588 Par ch=1 c=67 v=0
663599 On ch=1 n=g2 v=0
663668 On ch=1 n=c3 v=0
663715 On ch=1 n=a4 v=0
663767 On ch=1 n=d#5 v=0
663775 On ch=1 n=b2 v=78
663798 Par ch=1 c=64 v=127
663840 On ch=1 n=b2 v=0
663840 On ch=1 n=f#5 v=0
663964 On ch=1 n=f5 v=86
663964 On ch=1 n=b2 v=73
663967 On ch=1 n=d5 v=85
663975 On ch=1 n=a5 v=111
664039 On ch=1 n=b2 v=0
664071 On ch=1 n=c6 v=0
664071 Par ch=1 c=64 v=0
664131 On ch=1 n=b2 v=66
664219 On ch=1 n=b2 v=0
664318 On ch=1 n=b2 v=64
664407 On ch=1 n=b2 v=0
664438 On ch=1 n=a5 v=0
664440 Par ch=1 c=64 v=127
664458 On ch=1 n=d5 v=0
664472 On ch=1 n=b2 v=56
664563 On ch=1 n=b2 v=0
664654 On ch=1 n=f5 v=0
664684 On ch=1 n=e5 v=76
664684 On ch=1 n=c5 v=76
664692 On ch=1 n=a5 v=88
664692 On ch=1 n=b2 v=66
664735 Par ch=1 c=64 v=0
664859 On ch=1 n=b2 v=0
664859 On ch=1 n=a2 v=65
664948 On ch=1 n=g2 v=73
664978 On ch=1 n=a2 v=0
665039 Par ch=1 c=64 v=127
665040 On ch=1 n=g2 v=0
665040 On ch=1 n=c3 v=79
665071 On ch=1 n=a5 v=0
665083 On ch=1 n=c5 v=0
665083 On ch=1 n=e5 v=0
665115 On ch=1 n=c3 v=0
665219 On ch=1 n=b2 v=82
665295 On ch=1 n=b2 v=0
665415 On ch=1 n=a4 v=84
665427 On ch=1 n=d#5 v=79
665427 On ch=1 n=f#5 v=78
665434 On ch=1 n=c6 v=83
665434 On ch=1 n=b2 v=73
665511 On ch=1 n=b2 v=0
665575 Par ch=1 c=64 v=0
665607 On ch=1 n=b2 v=58
665671 On ch=1 n=b2 v=0
665808 On ch=1 n=b2 v=65
665863 On ch=1 n=b2 v=0
666001 On ch=1 n=b2 v=63
666051 On ch=1 n=b2 v=0
666185 On ch=1 n=b2 v=57
666372 On ch=1 n=b2 v=0
666396 On ch=1 n=a2 v=66
666488 On ch=1 n=g2 v=71
666492 On ch=1 n=a2 v=0
666572 On ch=1 n=c3 v=73
666582 On ch=1 n=g2 v=0
666654 On ch=1 n=c3 v=0
666705 On ch=1 n=a4 v=0
666738 Par ch=1 c=64 v=127
666745 On ch=1 n=d#5 v=0
666765 On ch=1 n=b2 v=72
666849 On ch=1 n=b2 v=0
666894 On ch=1 n=f#5 v=0
666973 On ch=1 n=f5 v=77
666985 On ch=1 n=d5 v=71
666985 On ch=1 n=a5 v=76
666985 On ch=1 n=b2 v=66
667029 On ch=1 n=c6 v=0
667061 Par ch=1 c=64 v=0
667071 On ch=1 n=b2 v=0
667186 On ch=1 n=b2 v=62
667251 On ch=1 n=b2 v=0
667399 On ch=1 n=b2 v=64
667486 On ch=1 n=b2 v=0
667666 On ch=1 n=b2 v=62
667670 On ch=1 n=a5 v=0
667699 On ch=1 n=b2 v=0
667711 On ch=1 n=d5 v=0
667711 Par ch=1 c=64 v=127
667778 On ch=1 n=f5 v=0
667894 On ch=1 n=c5 v=62
667894 On ch=1 n=a5 v=62
667902 On ch=1 n=b2 v=57
667906 On ch=1 n=e5 v=56
668039 Par ch=1 c=64 v=0
668158 On ch=1 n=b2 v=0
668183 On ch=1 n=a2 v=58
668298 On ch=1 n=a2 v=0
668306 On ch=1 n=g2 v=67
668439 On ch=1 n=g2 v=0
668469 On ch=1 n=c3 v=67
668542 On ch=1 n=c3 v=0
668835 Par ch=1 c=64 v=127
668871 On ch=1 n=b2 v=53
668938 On ch=1 n=a5 v=0
668946 On ch=1 n=e5 v=0
668946 On ch=1 n=c5 v=0
669631 On ch=1 n=c6 v=64
669638 On ch=1 n=f#5 v=58
669642 On ch=1 n=a4 v=55
669646 On ch=1 n=d#5 v=54
669678 On ch=1 n=b1 v=41
669862 Par ch=1 c=64 v=0
670391 Par ch=1 c=64 v=127
671502 Par ch=1 c=67 v=127
671790 On ch=1 n=a4 v=0
671809 On ch=1 n=f#5 v=0
671869 On ch=1 n=c6 v=0
671879 On ch=1 n=d#5 v=0
671976 On ch=1 n=b1 v=0
672587 On ch=1 n=a4 v=39
672588 On ch=1 n=c6 v=41
672602 On ch=1 n=d#5 v=34
672602 On ch=1 n=f#5 v=35
672655 On ch=1 n=b1 v=31
675088 On ch=1 n=a4 v=0
675160 On ch=1 n=f#5 v=0
675219 On ch=1 n=d#5 v=0
675328 On ch=1 n=c6 v=0
675332 On ch=1 n=b1 v=0
676819 On ch=1 n=c6 v=40
676819 On ch=1 n=d#5 v=40
676823 On ch=1 n=f#5 v=39
676823 On ch=1 n=b1 v=40
676823 On ch=1 n=a4 v=39
677523 On ch=1 n=a4 v=0
678166 On ch=1 n=b2 v=0
678183 On ch=1 n=b1 v=0
679955 On ch=1 n=d#5 v=0
680008 On ch=1 n=f#5 v=0
680146 On ch=1 n=c6 v=0
682623 Par ch=1 c=67 v=0
684396 On ch=1 n=c6 v=54
684440 On ch=1 n=e5 v=32
684440 On ch=1 n=a#4 v=34
684500 On ch=1 n=g2 v=34
684500 On ch=1 n=g3 v=25
684667 Par ch=1 c=64 v=0
685006 Par ch=1 c=64 v=127
685203 On ch=1 n=a#4 v=0
685246 On ch=1 n=e5 v=0
685307 On ch=1 n=c6 v=0
685712 On ch=1 n=g3 v=0
685772 On ch=1 n=c#6 v=65
685846 On ch=1 n=g2 v=0
686039 On ch=1 n=c#6 v=0
686419 On ch=1 n=c#6 v=72
686467 On ch=1 n=d#5 v=42
686496 On ch=1 n=g#5 v=35
686499 On ch=1 n=g#3 v=36
686508 On ch=1 n=g#2 v=37
686587 Par ch=1 c=64 v=0
686843 Par ch=1 c=64 v=127
686991 On ch=1 n=c#6 v=0
687335 On ch=1 n=b5 v=66
687456 On ch=1 n=g#5 v=0
687483 On ch=1 n=d#5 v=0
687692 On ch=1 n=g#3 v=0
687703 On ch=1 n=g#2 v=0
688023 On ch=1 n=a#5 v=66
688075 On ch=1 n=a#2 v=45
688075 On ch=1 n=a#3 v=39
688079 On ch=1 n=f#5 v=33
688079 On ch=1 n=c#5 v=35
688111 On ch=1 n=b5 v=0
688111 Par ch=1 c=64 v=0
688342 Par ch=1 c=64 v=127
688439 On ch=1 n=c#5 v=0
688566 On ch=1 n=a#3 v=0
688603 On ch=1 n=a#2 v=0
688826 On ch=1 n=d#5 v=42
688851 On ch=1 n=b2 v=36
688855 Par ch=1 c=64 v=0
688866 On ch=1 n=b3 v=33
689115 Par ch=1 c=64 v=127
689240 On ch=1 n=d#5 v=0
689328 On ch=1 n=b2 v=0
689375 On ch=1 n=b3 v=0
689403 On ch=1 n=f#5 v=0
689508 Par ch=1 c=67 v=127
689928 On ch=1 n=f5 v=35
689959 On ch=1 n=b4 v=36
689988 On ch=1 n=c#3 v=34
689995 On ch=1 n=c#4 v=35
690075 Par ch=1 c=64 v=0
690448 Par ch=1 c=64 v=127
691119 On ch=1 n=g#5 v=42
691460 On ch=1 n=b4 v=0
691487 On ch=1 n=c#4 v=0
691495 On ch=1 n=a#5 v=0
691519 On ch=1 n=f5 v=0
691668 On ch=1 n=g#5 v=0
691743 On ch=1 n=c#3 v=0
692755 On ch=1 n=f#5 v=39
692755 On ch=1 n=a#5 v=39
692759 On ch=1 n=c#5 v=36
692759 On ch=1 n=a#4 v=37
692759 On ch=1 n=f#2 v=36
692763 On ch=1 n=f#3 v=38
693211 Par ch=1 c=64 v=0
694568 Par ch=1 c=64 v=127
695039 On ch=1 n=a#4 v=0
695428 On ch=1 n=f#3 v=0
695566 On ch=1 n=c#5 v=0
695760 On ch=1 n=f#2 v=0
695807 On ch=1 n=a#5 v=0
695855 Par ch=1 c=67 v=0
695903 On ch=1 n=f#5 v=0
697263 On ch=1 n=c#6 v=52
697263 On ch=1 n=f#5 v=36
697263 On ch=1 n=f#4 v=38
697267 On ch=1 n=a#4 v=39
697711 On ch=1 n=f#5 v=0
697732 On ch=1 n=a#4 v=0
697806 On ch=1 n=f#4 v=0
697882 On ch=1 n=c#6 v=0
698119 On ch=1 n=c#6 v=64
698163 On ch=1 n=f#5 v=37
698182 On ch=1 n=a#4 v=39
698199 On ch=1 n=d#4 v=38
698252 Par ch=1 c=64 v=0
698447 Par ch=1 c=64 v=127
698863 On ch=1 n=f#6 v=68
699059 On ch=1 n=c#6 v=0
699423 On ch=1 n=d#6 v=71
699636 On ch=1 n=f#6 v=0
699662 On ch=1 n=f#5 v=0
699756 On ch=1 n=g#3 v=42
699799 On ch=1 n=a#4 v=0
699951 On ch=1 n=d#4 v=0
700112 On ch=1 n=c#6 v=78
700127 Par ch=1 c=64 v=0
700156 On ch=1 n=a#4 v=43
700159 On ch=1 n=f#5 v=39
700312 On ch=1 n=d#6 v=0
700359 Par ch=1 c=64 v=127
700412 On ch=1 n=g#3 v=0
700515 On ch=1 n=a#4 v=0
700919 On ch=1 n=d#5 v=37
701006 Par ch=1 c=64 v=0
701168 Par ch=1 c=64 v=127
701355 On ch=1 n=d#5 v=0
701412 On ch=1 n=b5 v=51
701607 On ch=1 n=c#6 v=0
701855 On ch=1 n=b4 v=33
702347 On ch=1 n=a#5 v=52
702439 On ch=1 n=f#5 v=0
702499 On ch=1 n=b4 v=0
702528 On ch=1 n=b5 v=0
702963 On ch=1 n=d#5 v=39
702973 On ch=1 n=g#5 v=46
703013 On ch=1 n=b4 v=32
703020 On ch=1 n=c#4 v=34
703064 On ch=1 n=a#5 v=0
703312 Par ch=1 c=64 v=0
703349 On ch=1 n=a#5 v=57
703372 On ch=1 n=g#5 v=0
703463 Par ch=1 c=64 v=127
703540 On ch=1 n=g#5 v=60
703712 On ch=1 n=g5 v=69
703753 On ch=1 n=g#5 v=0
703788 On ch=1 n=a#5 v=0
703880 On ch=1 n=g#5 v=68
703984 On ch=1 n=g5 v=0
704093 Par ch=1 c=64 v=0
704105 On ch=1 n=d#6 v=60
704205 On ch=1 n=g#5 v=0
704356 Par ch=1 c=64 v=127
704656 Par ch=1 c=67 v=127
704748 On ch=1 n=g#4 v=32
704756 On ch=1 n=f5 v=35
704925 On ch=1 n=b4 v=0
705089 On ch=1 n=d#6 v=0
705336 On ch=1 n=c#6 v=45
705416 On ch=1 n=f5 v=0
705423 On ch=1 n=c#4 v=0
705429 On ch=1 n=g#4 v=0
705556 On ch=1 n=d#5 v=0
705564 On ch=1 n=c#6 v=0
705856 On ch=1 n=c#6 v=52
705889 On ch=1 n=f#5 v=33
705905 On ch=1 n=a#4 v=35
705976 Par ch=1 c=64 v=0
706193 Par ch=1 c=64 v=127
706369 On ch=1 n=a#4 v=0
706389 On ch=1 n=d#4 v=44
706576 On ch=1 n=d#4 v=0
706608 On ch=1 n=c#4 v=50
706752 On ch=1 n=c#4 v=0
706763 On ch=1 n=c4 v=54
706936 On ch=1 n=c4 v=0
706936 On ch=1 n=c#4 v=49
707040 Par ch=1 c=64 v=0
707136 On ch=1 n=c#4 v=0
707196 On ch=1 n=g#4 v=37
707443 Par ch=1 c=64 v=127
707604 On ch=1 n=f#5 v=0
707685 On ch=1 n=c#6 v=0
707732 On ch=1 n=g#4 v=0
707940 Par ch=1 c=67 v=0
708329 On ch=1 n=a#5 v=42
708360 On ch=1 n=f#5 v=34
708360 On ch=1 n=c#5 v=33
708376 On ch=1 n=f#4 v=36
708400 On ch=1 n=a#4 v=35
708420 Par ch=1 c=64 v=0
708684 Par ch=1 c=64 v=127
708833 On ch=1 n=c#5 v=0
708876 On ch=1 n=f#5 v=0
708905 On ch=1 n=a#4 v=0
708916 On ch=1 n=a#5 v=0
708933 On ch=1 n=f#4 v=0
709420 On ch=1 n=c#6 v=68
709452 On ch=1 n=f#5 v=41
709452 On ch=1 n=f#4 v=36
709460 On ch=1 n=c#5 v=38
709472 On ch=1 n=a#4 v=35
709476 On ch=1 n=a#3 v=41
709504 Par ch=1 c=64 v=0
709653 Par ch=1 c=64 v=127
709785 On ch=1 n=a#3 v=0
709800 On ch=1 n=a#4 v=0
709816 On ch=1 n=c#5 v=0
709816 On ch=1 n=f#4 v=0
709833 On ch=1 n=f#5 v=0
709996 On ch=1 n=c#6 v=0
710133 On ch=1 n=a#5 v=62
710144 On ch=1 n=a#3 v=42
710145 On ch=1 n=f#4 v=47
710145 On ch=1 n=d5 v=50
710233 On ch=1 n=d5 v=0
710244 On ch=1 n=a#3 v=0
710260 On ch=1 n=f#4 v=0
710309 On ch=1 n=a#5 v=0
710356 On ch=1 n=a#5 v=57
710383 On ch=1 n=d5 v=53
710393 On ch=1 n=f#4 v=40
710397 On ch=1 n=a#3 v=49
710437 Par ch=1 c=64 v=0
710577 Par ch=1 c=64 v=127
710646 On ch=1 n=d5 v=0
710754 On ch=1 n=a#3 v=0
711201 On ch=1 n=d#5 v=33
711221 On ch=1 n=b3 v=33
711289 Par ch=1 c=64 v=0
711553 Par ch=1 c=64 v=127
711601 On ch=1 n=d#5 v=0
711621 On ch=1 n=a#5 v=0
711790 On ch=1 n=a#5 v=63
712217 On ch=1 n=b3 v=0
712237 On ch=1 n=g#5 v=74
712362 On ch=1 n=f#4 v=0
712557 On ch=1 n=a#5 v=0
712653 On ch=1 n=f#5 v=73
712726 On ch=1 n=g#5 v=0
712997 On ch=1 n=f#5 v=0
713229 On ch=1 n=f6 v=56
713320 Par ch=1 c=64 v=0
713806 Par ch=1 c=64 v=127
713910 Par ch=1 c=64 v=0
714241 Par ch=1 c=64 v=127
714397 On ch=1 n=f6 v=0
715077 Par ch=1 c=67 v=127
715097 On ch=1 n=d#6 v=34
715586 On ch=1 n=d#6 v=0
716282 On ch=1 n=c#6 v=38
716296 On ch=1 n=f#5 v=31
716317 On ch=1 n=c#5 v=30
716346 On ch=1 n=a#4 v=19
716350 On ch=1 n=a#3 v=29
716353 On ch=1 n=f#4 v=26
716361 Par ch=1 c=64 v=0
716553 Par ch=1 c=64 v=127
716713 On ch=1 n=f#4 v=0
716721 On ch=1 n=a#3 v=0
716742 On ch=1 n=c#5 v=0
716742 On ch=1 n=f#5 v=0
716802 On ch=1 n=a#4 v=0
716853 On ch=1 n=c#6 v=0
717069 On ch=1 n=a#3 v=40
717080 On ch=1 n=a#5 v=43
717090 On ch=1 n=d5 v=35
717090 On ch=1 n=f#4 v=35
717153 On ch=1 n=a#3 v=0
717159 On ch=1 n=d5 v=0
717163 On ch=1 n=f#4 v=0
717210 On ch=1 n=a#5 v=0
717307 On ch=1 n=a#5 v=49
717322 On ch=1 n=d5 v=37
717326 On ch=1 n=a#3 v=37
717326 On ch=1 n=f#4 v=38
717366 Par ch=1 c=64 v=0
717523 Par ch=1 c=64 v=127
717570 On ch=1 n=d5 v=0
717726 On ch=1 n=a#3 v=0
718119 On ch=1 n=d#5 v=35
718163 On ch=1 n=b3 v=36
718194 Par ch=1 c=64 v=0
718410 Par ch=1 c=64 v=127
718487 On ch=1 n=d#5 v=0
718518 On ch=1 n=a#5 v=0
718619 Par ch=1 c=67 v=0
718670 On ch=1 n=a#5 v=52
718974 On ch=1 n=f#4 v=0
719110 On ch=1 n=g#5 v=65
719170 On ch=1 n=b3 v=0
719390 On ch=1 n=a#5 v=0
719499 On ch=1 n=f#5 v=72
719594 On ch=1 n=g#5 v=0
719947 On ch=1 n=f6 v=69
719977 Par ch=1 c=64 v=0
720147 Par ch=1 c=64 v=127
720219 On ch=1 n=f#5 v=0
720670 On ch=1 n=f#5 v=44
720680 On ch=1 n=c4 v=41
720687 On ch=1 n=g#4 v=37
720995 On ch=1 n=d#6 v=74
721096 On ch=1 n=f#5 v=0
721355 On ch=1 n=c#6 v=75
721360 On ch=1 n=c#4 v=64
721364 On ch=1 n=f5 v=56
721376 On ch=1 n=f6 v=0
721376 Par ch=1 c=64 v=0
721427 On ch=1 n=c4 v=0
721480 On ch=1 n=f5 v=0
721515 On ch=1 n=d#6 v=0
721547 Par ch=1 c=64 v=127
721707 On ch=1 n=c6 v=74
721707 On ch=1 n=d#4 v=65
721716 On ch=1 n=f#5 v=59
721751 On ch=1 n=c#4 v=0
721796 On ch=1 n=d#4 v=0
721800 On ch=1 n=f#5 v=0
721804 On ch=1 n=g#4 v=0
721900 On ch=1 n=c#6 v=0
721931 On ch=1 n=c6 v=0
722136 On ch=1 n=a#6 v=77
722151 On ch=1 n=b5 v=52
722151 On ch=1 n=c#5 v=49
722167 On ch=1 n=f4 v=56
722407 Par ch=1 c=64 v=0
722795 On ch=1 n=d5 v=67
722871 Par ch=1 c=64 v=127
722927 On ch=1 n=c#5 v=0
723167 On ch=1 n=g#6 v=78
723210 On ch=1 n=b5 v=0
723214 On ch=1 n=f4 v=0
723224 On ch=1 n=d5 v=0
723304 On ch=1 n=a#6 v=0
723388 On ch=1 n=g#6 v=0
723552 On ch=1 n=f#6 v=74
723572 On ch=1 n=d#5 v=57
723576 On ch=1 n=a#5 v=65
723584 On ch=1 n=f#4 v=62
723600 Par ch=1 c=64 v=0
723691 Par ch=1 c=64 v=127
723760 On ch=1 n=f#4 v=0
723760 On ch=1 n=a#5 v=0
723768 On ch=1 n=f#6 v=0
723773 On ch=1 n=d#5 v=0
723948 On ch=1 n=f6 v=81
723951 On ch=1 n=g#4 v=65
723951 On ch=1 n=f5 v=60
723972 On ch=1 n=g#5 v=58
724152 On ch=1 n=g#5 v=0
724204 On ch=1 n=g#4 v=0
724353 On ch=1 n=f5 v=0
724353 On ch=1 n=d#6 v=78
724357 On ch=1 n=c#6 v=75
724368 On ch=1 n=a#4 v=74
724368 On ch=1 n=c#5 v=68
724368 On ch=1 n=d#5 v=68
724401 On ch=1 n=f#5 v=52
724464 Par ch=1 c=64 v=0
724473 On ch=1 n=f6 v=0
724752 Par ch=1 c=64 v=127
724804 On ch=1 n=c#6 v=0
724880 On ch=1 n=c#5 v=0
724908 On ch=1 n=f#5 v=0
725073 On ch=1 n=d#6 v=0
725104 On ch=1 n=a#4 v=0
725204 On ch=1 n=d#5 v=0
725372 On ch=1 n=e6 v=76
725391 On ch=1 n=a4 v=58
725401 On ch=1 n=c#6 v=54
725410 On ch=1 n=e5 v=50
725413 On ch=1 n=c#5 v=56
725425 On ch=1 n=g5 v=47
725501 Par ch=1 c=64 v=0
725721 Par ch=1 c=64 v=127
726190 On ch=1 n=a4 v=0
726209 On ch=1 n=g5 v=0
726237 On ch=1 n=c#6 v=0
726245 On ch=1 n=e5 v=0
726285 On ch=1 n=c#5 v=0
726301 On ch=1 n=e6 v=0
726448 On ch=1 n=g#4 v=57
726594 On ch=1 n=c#5 v=57
726670 On ch=1 n=f5 v=61
726782 On ch=1 n=g#5 v=63
726889 On ch=1 n=c#6 v=81
727005 Par ch=1 c=64 v=0
727361 On ch=1 n=g#6 v=74
727945 Par ch=1 c=64 v=127
728429 On ch=1 n=g#6 v=0
728445 On ch=1 n=c#6 v=0
728625 On ch=1 n=g#5 v=0
728637 Par ch=1 c=67 v=127
728901 On ch=1 n=f6 v=57
729177 Par ch=1 c=67 v=0
729241 On ch=1 n=f5 v=0
729381 On ch=1 n=c#6 v=60
729805 On ch=1 n=a#5 v=58
730221 On ch=1 n=g#5 v=59
730231 On ch=1 n=c#5 v=0
730278 On ch=1 n=g#4 v=0
730706 On ch=1 n=g5 v=50
730725 On ch=1 n=f6 v=0
730735 On ch=1 n=a#5 v=0
730755 On ch=1 n=c#6 v=0
730836 On ch=1 n=g#5 v=0
730883 On ch=1 n=g5 v=0
731018 On ch=1 n=g#3 v=42
731139 On ch=1 n=c5 v=45
731143 Par ch=1 c=64 v=0
731335 On ch=1 n=c5 v=0
731347 On ch=1 n=f#5 v=48
731399 Par ch=1 c=64 v=127
731563 On ch=1 n=f#5 v=0
731582 On ch=1 n=g#5 v=52
731736 On ch=1 n=g#3 v=0
731736 On ch=1 n=f#5 v=44
731839 On ch=1 n=g#5 v=0
731855 On ch=1 n=f#5 v=0
731882 On ch=1 n=f5 v=50
731983 On ch=1 n=f5 v=0
732043 On ch=1 n=f#5 v=52
732159 On ch=1 n=f#5 v=0
732179 On ch=1 n=g#3 v=40
732215 On ch=1 n=f#5 v=44
732292 Par ch=1 c=64 v=0
732522 Par ch=1 c=64 v=127
732599 On ch=1 n=f6 v=58
732844 On ch=1 n=g#3 v=0
733091 Par ch=1 c=67 v=127
733255 On ch=1 n=c5 v=39
733567 On ch=1 n=c5 v=0
733843 On ch=1 n=d#6 v=44
734196 On ch=1 n=f#5 v=0
734255 On ch=1 n=f6 v=0
734562 On ch=1 n=f5 v=36
735059 On ch=1 n=d#6 v=0
735059 On ch=1 n=c#3 v=38
735132 Par ch=1 c=64 v=0
735219 On ch=1 n=c#6 v=39
735463 Par ch=1 c=64 v=127
735564 On ch=1 n=c#3 v=0
736012 On ch=1 n=f4 v=33
736343 On ch=1 n=f5 v=0
736442 On ch=1 n=c#5 v=32
736648 On ch=1 n=c#5 v=0
736768 On ch=1 n=g#4 v=33
737099 On ch=1 n=f5 v=33
737204 On ch=1 n=c#6 v=0
737335 On ch=1 n=f5 v=0
737502 On ch=1 n=c#5 v=31
737755 On ch=1 n=c#5 v=0
737863 On ch=1 n=c#6 v=52
737867 On ch=1 n=g#4 v=0
737884 On ch=1 n=f4 v=0
738248 On ch=1 n=f5 v=33
738484 On ch=1 n=g#5 v=36
738699 On ch=1 n=b2 v=40
738739 On ch=1 n=c#6 v=0
738759 Par ch=1 c=64 v=0
738939 On ch=1 n=d6 v=55
739051 On ch=1 n=b2 v=0
739061 Par ch=1 c=64 v=127
739461 On ch=1 n=f4 v=33
739520 On ch=1 n=g#5 v=0
739539 On ch=1 n=f5 v=0
739892 On ch=1 n=c#6 v=45
739900 On ch=1 n=c#5 v=32
740072 Par ch=1 c=64 v=0
740121 On ch=1 n=d6 v=0
740245 On ch=1 n=g#4 v=31
740252 Par ch=1 c=64 v=127
740333 On ch=1 n=c#5 v=0
740376 Par ch=1 c=64 v=0
740632 On ch=1 n=f5 v=32
740932 Par ch=1 c=64 v=127
741020 On ch=1 n=c#6 v=0
741124 On ch=1 n=f5 v=0
741132 On ch=1 n=c#5 v=30
741545 On ch=1 n=c#5 v=0
741640 On ch=1 n=g#4 v=0
741896 On ch=1 n=f4 v=0
742088 On ch=1 n=c#7 v=44
742109 On ch=1 n=c#6 v=38
742676 On ch=1 n=c#6 v=0
742676 On ch=1 n=c#7 v=0
744032 On ch=1 n=c#7 v=48
744056 On ch=1 n=c#6 v=32
744093 Par ch=1 c=64 v=0
744101 On ch=1 n=a2 v=36
744104 On ch=1 n=a3 v=38
744340 Par ch=1 c=64 v=127
744400 On ch=1 n=a2 v=0
744488 On ch=1 n=a3 v=0
744872 On ch=1 n=e4 v=33
744872 On ch=1 n=c#5 v=32
745072 On ch=1 n=c#7 v=0
745088 On ch=1 n=c#6 v=0
745209 On ch=1 n=c#5 v=0
745239 On ch=1 n=e4 v=0
745379 On ch=1 n=c#7 v=52
745379 On ch=1 n=c#6 v=39
745412 On ch=1 n=e5 v=33
745412 On ch=1 n=a4 v=33
745652 On ch=1 n=a4 v=0
745769 On ch=1 n=c#6 v=0
745839 On ch=1 n=c#7 v=0
745879 On ch=1 n=c#5 v=33
745881 On ch=1 n=e4 v=33
746159 On ch=1 n=e4 v=0
746181 On ch=1 n=c#5 v=0
746209 On ch=1 n=c#7 v=56
746209 On ch=1 n=c#6 v=49
746316 On ch=1 n=e5 v=0
746533 On ch=1 n=f4 v=33
746533 On ch=1 n=c#5 v=33
746556 On ch=1 n=c#6 v=0
746596 On ch=1 n=c#7 v=0
746805 On ch=1 n=f4 v=0
746812 On ch=1 n=c#5 v=0
746861 On ch=1 n=c#7 v=65
746861 On ch=1 n=c#6 v=53
746893 On ch=1 n=a4 v=33
746900 On ch=1 n=f5 v=33
747145 On ch=1 n=c#5 v=33
747145 On ch=1 n=f4 v=33
747161 On ch=1 n=a4 v=0
747188 On ch=1 n=c#6 v=0
747220 On ch=1 n=c#7 v=0
747329 On ch=1 n=f4 v=0
747399 On ch=1 n=f5 v=0
747420 On ch=1 n=c#5 v=0
747460 On ch=1 n=c#7 v=70
747460 On ch=1 n=c#6 v=54
747669 On ch=1 n=c#6 v=0
747725 On ch=1 n=c#7 v=0
747759 On ch=1 n=c#5 v=33
747769 On ch=1 n=f#4 v=33
747893 On ch=1 n=f#4 v=0
747980 On ch=1 n=c#5 v=0
748073 On ch=1 n=a4 v=33
748073 On ch=1 n=f#5 v=32
748160 On ch=1 n=b6 v=63
748160 On ch=1 n=b5 v=52
748225 On ch=1 n=a4 v=0
748236 On ch=1 n=b5 v=0
748312 On ch=1 n=f#5 v=0
748356 On ch=1 n=c#5 v=33
748356 On ch=1 n=f#4 v=33
748400 On ch=1 n=c#5 v=0
748432 On ch=1 n=f#4 v=0
748579 On ch=1 n=a6 v=59
748585 On ch=1 n=a5 v=53
748625 On ch=1 n=b6 v=0
748673 On ch=1 n=a5 v=0
748800 On ch=1 n=a6 v=0
748889 On ch=1 n=a2 v=41
748999 Par ch=1 c=64 v=0
749056 On ch=1 n=d6 v=56
749056 On ch=1 n=d7 v=58
749196 On ch=1 n=a2 v=0
749248 Par ch=1 c=64 v=127
749588 On ch=1 n=e5 v=33
749588 On ch=1 n=g4 v=33
749708 On ch=1 n=g4 v=0
749708 On ch=1 n=e5 v=0
749860 On ch=1 n=d6 v=0
750013 On ch=1 n=g5 v=33
750013 On ch=1 n=a#4 v=33
750168 On ch=1 n=g5 v=0
750199 On ch=1 n=d7 v=0
750241 On ch=1 n=a#4 v=0
750453 On ch=1 n=g4 v=33
750453 On ch=1 n=e5 v=33
750544 On ch=1 n=e5 v=0
750679 On ch=1 n=g4 v=0
750880 On ch=1 n=c#6 v=36
750884 On ch=1 n=c#7 v=44
750985 On ch=1 n=c#6 v=0
751132 On ch=1 n=c#7 v=0
751144 On ch=1 n=c#6 v=50
751212 On ch=1 n=a2 v=39
751252 Par ch=1 c=64 v=0
751459 On ch=1 n=a2 v=0
751484 Par ch=1 c=64 v=127
751552 On ch=1 n=c#7 v=61
752169 On ch=1 n=f#4 v=33
752169 On ch=1 n=d#5 v=33
752369 On ch=1 n=f#4 v=0
752380 On ch=1 n=d#5 v=0
752696 On ch=1 n=a4 v=33
752696 On ch=1 n=f#5 v=33
752905 On ch=1 n=a4 v=0
752916 On ch=1 n=f#5 v=0
753096 On ch=1 n=f#4 v=33
753101 On ch=1 n=d#5 v=33
753232 On ch=1 n=d#5 v=0
753249 On ch=1 n=f#4 v=0
753448 On ch=1 n=a4 v=33
753452 On ch=1 n=f#5 v=33
753512 On ch=1 n=a4 v=0
753592 On ch=1 n=f#5 v=0
753784 On ch=1 n=c#6 v=0
753860 On ch=1 n=d#5 v=33
753864 On ch=1 n=a5 v=33
753965 On ch=1 n=d#5 v=0
754099 On ch=1 n=a5 v=0
754581 On ch=1 n=c#6 v=32
754581 On ch=1 n=f#5 v=30
754720 On ch=1 n=c#6 v=0
754748 On ch=1 n=f#5 v=0
755069 On ch=1 n=c#7 v=0
755568 On ch=1 n=f#6 v=32
755701 On ch=1 n=f#6 v=0
755839 On ch=1 n=f6 v=46
755972 On ch=1 n=f6 v=0
756001 On ch=1 n=f#6 v=47
756080 On ch=1 n=f#6 v=0
756156 On ch=1 n=g#6 v=49
756204 On ch=1 n=g#6 v=0
756272 On ch=1 n=f#6 v=52
756316 On ch=1 n=f#6 v=0
756360 On ch=1 n=g#6 v=55
756405 On ch=1 n=g#6 v=0
756465 On ch=1 n=f#6 v=51
756496 On ch=1 n=f#6 v=0
756532 On ch=1 n=g#6 v=57
756585 On ch=1 n=g#6 v=0
756600 On ch=1 n=f#6 v=54
756640 On ch=1 n=f#6 v=0
756680 On ch=1 n=g#6 v=52
756720 On ch=1 n=f#6 v=54
756732 On ch=1 n=g#6 v=0
756756 On ch=1 n=f#6 v=0
756785 On ch=1 n=g#6 v=55
756832 On ch=1 n=g#6 v=0
756880 On ch=1 n=f#6 v=51
756933 On ch=1 n=f#6 v=0
757072 On ch=1 n=f6 v=45
757132 On ch=1 n=f6 v=0
757181 On ch=1 n=f#6 v=50
757232 On ch=1 n=f#6 v=0
757299 On ch=1 n=g6 v=55
757345 On ch=1 n=g6 v=0
757392 On ch=1 n=g#6 v=57
757436 On ch=1 n=g#6 v=0
757496 On ch=1 n=a6 v=58
757536 On ch=1 n=a6 v=0
757581 On ch=1 n=a#6 v=46
757620 On ch=1 n=a#6 v=0
757665 On ch=1 n=b6 v=57
757725 On ch=1 n=b6 v=0
757772 On ch=1 n=c7 v=54
757840 On ch=1 n=c#7 v=55
757852 On ch=1 n=c7 v=0
758032 On ch=1 n=a2 v=37
758036 Par ch=1 c=64 v=0
758156 On ch=1 n=c#7 v=0
758196 On ch=1 n=d7 v=55
758212 On ch=1 n=d6 v=35
758276 Par ch=1 c=64 v=127
758320 On ch=1 n=a2 v=0
758764 On ch=1 n=d5 v=35
758779 On ch=1 n=f#4 v=35
758872 On ch=1 n=d6 v=0
758941 On ch=1 n=f#4 v=0
759012 On ch=1 n=d7 v=0
759052 On ch=1 n=d5 v=0
759120 On ch=1 n=d7 v=65
759140 On ch=1 n=b4 v=40
759161 On ch=1 n=d6 v=40
759169 On ch=1 n=f#5 v=31
759440 On ch=1 n=b4 v=0
759459 On ch=1 n=f#4 v=42
759476 On ch=1 n=d5 v=37
759509 On ch=1 n=d6 v=0
759592 Par ch=1 c=67 v=0
759613 On ch=1 n=d7 v=0
759716 On ch=1 n=f#5 v=0
759736 On ch=1 n=f#4 v=0
759759 On ch=1 n=d7 v=69
759768 On ch=1 n=d5 v=0
759795 On ch=1 n=d6 v=44
760101 On ch=1 n=g4 v=42
760105 On ch=1 n=d5 v=38
760239 On ch=1 n=d6 v=0
760249 On ch=1 n=d7 v=0
760389 On ch=1 n=g4 v=0
760409 On ch=1 n=d7 v=75
760426 On ch=1 n=d5 v=0
760433 On ch=1 n=b4 v=44
760442 On ch=1 n=g5 v=43
760445 On ch=1 n=d6 v=44
760456 Par ch=1 c=64 v=0
760593 Par ch=1 c=64 v=127
760713 On ch=1 n=d5 v=44
760713 On ch=1 n=g4 v=57
760773 On ch=1 n=d6 v=0
760802 On ch=1 n=d7 v=0
760870 On ch=1 n=b4 v=0
760893 On ch=1 n=d5 v=0
760896 On ch=1 n=g4 v=0
760997 On ch=1 n=d7 v=79
761037 On ch=1 n=d6 v=48
761193 On ch=1 n=g5 v=0
761257 On ch=1 n=d6 v=0
761318 On ch=1 n=g#4 v=49
761325 On ch=1 n=f5 v=43
761433 On ch=1 n=g#4 v=0
761493 On ch=1 n=f5 v=0
761569 On ch=1 n=d5 v=49
761589 On ch=1 n=g#5 v=38
761706 On ch=1 n=c#7 v=77
761717 On ch=1 n=c#6 v=71
761777 On ch=1 n=g#5 v=0
761822 On ch=1 n=f5 v=37
761825 On ch=1 n=d5 v=0
761829 On ch=1 n=c#6 v=0
761837 On ch=1 n=g#4 v=48
761862 On ch=1 n=d7 v=0
761869 On ch=1 n=f5 v=0
761893 On ch=1 n=g#4 v=0
761949 On ch=1 n=c#7 v=0
762062 On ch=1 n=b6 v=78
762077 On ch=1 n=b5 v=69
762161 On ch=1 n=b5 v=0
762233 On ch=1 n=b6 v=0
762389 On ch=1 n=a2 v=44
762389 Par ch=1 c=64 v=0
762509 On ch=1 n=g#7 v=82
762513 On ch=1 n=g#6 v=72
762513 Par ch=1 c=64 v=127
762593 On ch=1 n=a2 v=0
762937 On ch=1 n=c5 v=53
762945 On ch=1 n=a5 v=46
763053 On ch=1 n=c5 v=0
763089 On ch=1 n=a5 v=0
763269 On ch=1 n=c6 v=55
763269 On ch=1 n=d#5 v=54
763278 On ch=1 n=g#6 v=0
763458 On ch=1 n=c6 v=0
763489 On ch=1 n=d#5 v=0
763549 On ch=1 n=a5 v=51
763549 On ch=1 n=c5 v=47
763613 On ch=1 n=a5 v=0
763637 On ch=1 n=c5 v=0
763706 On ch=1 n=f#7 v=74
763742 On ch=1 n=f#6 v=50
763786 On ch=1 n=f#6 v=0
763789 On ch=1 n=g#7 v=0
763873 On ch=1 n=f#7 v=0
763873 On ch=1 n=f#6 v=73
764049 On ch=1 n=a2 v=48
764072 Par ch=1 c=64 v=0
764189 On ch=1 n=f#7 v=86
764226 On ch=1 n=a2 v=0
764289 Par ch=1 c=64 v=127
764653 On ch=1 n=c#5 v=46
764653 On ch=1 n=a5 v=39
764766 On ch=1 n=c#5 v=0
764862 On ch=1 n=a5 v=0
765037 Par ch=1 c=67 v=127
765053 On ch=1 n=e5 v=45
765053 On ch=1 n=c#6 v=46
765245 On ch=1 n=c#6 v=0
765262 On ch=1 n=e5 v=0
765329 On ch=1 n=f#7 v=0
765382 On ch=1 n=f#6 v=0
765429 On ch=1 n=c#5 v=46
765433 On ch=1 n=a5 v=36
765596 On ch=1 n=c#5 v=0
765649 On ch=1 n=a5 v=0
765786 On ch=1 n=e5 v=45
765786 On ch=1 n=c#6 v=43
765905 On ch=1 n=c#6 v=0
765976 On ch=1 n=e5 v=0
766006 On ch=1 n=e7 v=57
766141 On ch=1 n=c#5 v=50
766193 On ch=1 n=c#7 v=60
766203 On ch=1 n=a5 v=30
766259 On ch=1 n=a5 v=0
766274 On ch=1 n=c#5 v=0
766299 On ch=1 n=e7 v=0
766318 On ch=1 n=c#7 v=0
766318 On ch=1 n=a6 v=57
766394 On ch=1 n=f#6 v=57
766410 On ch=1 n=a6 v=0
766438 On ch=1 n=f#6 v=0
766474 On ch=1 n=e6 v=60
766513 On ch=1 n=e6 v=0
766546 On ch=1 n=f#6 v=66
766582 On ch=1 n=f#6 v=0
766643 On ch=1 n=e6 v=59
766686 On ch=1 n=e6 v=0
766726 On ch=1 n=d#6 v=42
766766 On ch=1 n=d#6 v=0
766782 On ch=1 n=e6 v=62
766792 Par ch=1 c=67 v=0
766807 On ch=1 n=e6 v=0
766867 On ch=1 n=a6 v=72
766964 On ch=1 n=a6 v=0
766964 On ch=1 n=c#7 v=65
767010 On ch=1 n=c#7 v=0
767090 On ch=1 n=e7 v=67
767190 On ch=1 n=e7 v=0
767243 On ch=1 n=c#8 v=74
767344 On ch=1 n=c#8 v=0
767387 On ch=1 n=b7 v=63
767463 On ch=1 n=b7 v=0
767496 On ch=1 n=a7 v=70
767543 On ch=1 n=a7 v=0
767571 On ch=1 n=g#7 v=70
767647 On ch=1 n=f#7 v=66
767670 On ch=1 n=g#7 v=0
767687 On ch=1 n=f#7 v=0
767719 On ch=1 n=e7 v=71
767803 On ch=1 n=d#7 v=72
767807 On ch=1 n=e7 v=0
767883 On ch=1 n=f#7 v=72
767887 On ch=1 n=d#7 v=0
767952 On ch=1 n=f#7 v=0
767963 On ch=1 n=e7 v=72
768043 On ch=1 n=e7 v=0
768060 On ch=1 n=d7 v=66
768147 On ch=1 n=c#7 v=75
768192 On ch=1 n=d7 v=0
768240 On ch=1 n=b6 v=68
768266 On ch=1 n=c#7 v=0
768280 On ch=1 n=b6 v=0
768312 On ch=1 n=a6 v=68
768431 On ch=1 n=a6 v=0
768431 On ch=1 n=g#6 v=72
768507 On ch=1 n=g#6 v=0
768552 On ch=1 n=a6 v=67
768650 On ch=1 n=a6 v=0
768667 On ch=1 n=g#6 v=64
768772 On ch=1 n=g#6 v=0
768786 On ch=1 n=f#6 v=62
768896 On ch=1 n=f#6 v=0
768936 On ch=1 n=g#6 v=71
769166 On ch=1 n=g#6 v=0
769166 On ch=1 n=b6 v=67
769247 Par ch=1 c=64 v=0
769400 On ch=1 n=b6 v=0
769430 On ch=1 n=a#6 v=71
769430 Par ch=1 c=64 v=127
769592 On ch=1 n=a6 v=77
769620 On ch=1 n=a#6 v=0
769751 On ch=1 n=g#6 v=70
769799 On ch=1 n=a6 v=0
769907 On ch=1 n=g#6 v=0
769919 On ch=1 n=g6 v=72
770071 On ch=1 n=f#6 v=68
770083 On ch=1 n=g6 v=0
770223 On ch=1 n=f#6 v=0
770263 Par ch=1 c=64 v=0
770279 On ch=1 n=f6 v=57
770459 Par ch=1 c=64 v=127
770580 On ch=1 n=f6 v=0
770607 On ch=1 n=e6 v=56
770647 On ch=1 n=e6 v=0
770903 On ch=1 n=f#5 v=45
770923 On ch=1 n=b3 v=39
770992 Par ch=1 c=64 v=0
771070 On ch=1 n=b5 v=58
771116 Par ch=1 c=64 v=127
771184 On ch=1 n=b3 v=0
771296 On ch=1 n=e6 v=77
771527 On ch=1 n=f#5 v=0
771546 On ch=1 n=b5 v=0
771759 On ch=1 n=f#4 v=37
772063 On ch=1 n=d6 v=68
772073 On ch=1 n=b4 v=35
772137 On ch=1 n=e6 v=0
772333 On ch=1 n=b4 v=0
772333 On ch=1 n=c#5 v=37
772496 On ch=1 n=c#5 v=0
772584 On ch=1 n=e5 v=40
772676 On ch=1 n=e5 v=0
772676 On ch=1 n=f#4 v=0
772843 On ch=1 n=d5 v=39
772929 On ch=1 n=d5 v=0
773124 On ch=1 n=f#5 v=63
773149 On ch=1 n=d6 v=0
773440 On ch=1 n=c5 v=50
773608 On ch=1 n=f#5 v=0
773616 On ch=1 n=f5 v=50
773644 On ch=1 n=f3 v=47
773741 Par ch=1 c=64 v=0
773872 On ch=1 n=a5 v=61
773980 Par ch=1 c=64 v=127
773987 On ch=1 n=f3 v=0
774317 On ch=1 n=f4 v=45
774384 On ch=1 n=c5 v=0
774576 On ch=1 n=a4 v=58
774724 On ch=1 n=f5 v=0
774740 On ch=1 n=a5 v=0
774800 On ch=1 n=b4 v=61
774948 On ch=1 n=a4 v=0
775032 On ch=1 n=b4 v=0
775056 On ch=1 n=d5 v=51
775288 On ch=1 n=d5 v=0
775289 On ch=1 n=c5 v=47
775389 On ch=1 n=b5 v=58
775468 On ch=1 n=a5 v=63
775524 On ch=1 n=b5 v=0
775544 On ch=1 n=a5 v=0
775568 On ch=1 n=g#5 v=59
775608 On ch=1 n=g#5 v=0
775648 On ch=1 n=a5 v=62
775664 On ch=1 n=c5 v=0
775747 On ch=1 n=b5 v=75
775753 On ch=1 n=a5 v=0
775809 On ch=1 n=f4 v=0
775969 On ch=1 n=b5 v=0
775988 On ch=1 n=c6 v=74
776149 On ch=1 n=f#5 v=69
776209 On ch=1 n=b3 v=47
776261 Par ch=1 c=64 v=0
776284 On ch=1 n=b5 v=76
776387 On ch=1 n=c6 v=0
776468 On ch=1 n=e6 v=77
776501 On ch=1 n=b3 v=0
776501 Par ch=1 c=64 v=127
776724 On ch=1 n=b5 v=0
776784 On ch=1 n=f#5 v=0
776793 On ch=1 n=f#4 v=55
777047 On ch=1 n=d6 v=67
777080 On ch=1 n=b4 v=46
777109 On ch=1 n=e6 v=0
777296 On ch=1 n=b4 v=0
777308 On ch=1 n=c#5 v=48
777489 On ch=1 n=c#5 v=0
777584 On ch=1 n=e5 v=40
777707 On ch=1 n=e5 v=0
777740 On ch=1 n=f#4 v=0
777848 Par ch=1 c=67 v=127
777864 On ch=1 n=d5 v=42
777964 On ch=1 n=d5 v=0
778152 On ch=1 n=f#5 v=57
778257 On ch=1 n=d6 v=0
778520 On ch=1 n=c5 v=33
778628 On ch=1 n=f5 v=40
778644 On ch=1 n=f#5 v=0
778767 Par ch=1 c=64 v=0
778777 On ch=1 n=f3 v=39
778946 On ch=1 n=a5 v=55
779013 On ch=1 n=f3 v=0
779041 Par ch=1 c=64 v=127
779405 On ch=1 n=f4 v=40
779464 On ch=1 n=c5 v=0
779624 On ch=1 n=f5 v=0
779673 On ch=1 n=a4 v=45
779713 On ch=1 n=a5 v=0
779917 On ch=1 n=b4 v=43
779977 On ch=1 n=a4 v=0
780081 On ch=1 n=b4 v=0
780161 On ch=1 n=d5 v=38
780417 On ch=1 n=d5 v=0
780441 On ch=1 n=c5 v=37
780561 On ch=1 n=b5 v=52
780677 On ch=1 n=a5 v=48
780698 On ch=1 n=b5 v=0
780726 On ch=1 n=a5 v=0
780757 On ch=1 n=g#5 v=56
780833 On ch=1 n=g#5 v=0
780865 On ch=1 n=a5 v=64
780970 On ch=1 n=c5 v=0
780984 On ch=1 n=a5 v=0
781025 On ch=1 n=b5 v=68
781053 Par ch=1 c=67 v=0
781186 On ch=1 n=f4 v=0
781357 On ch=1 n=c6 v=66
781445 On ch=1 n=b5 v=0
781786 On ch=1 n=c#6 v=61
781786 Par ch=1 c=64 v=0
781797 On ch=1 n=c6 v=0
781797 On ch=1 n=f3 v=50
781937 Par ch=1 c=64 v=127
782004 On ch=1 n=f3 v=0
782246 On ch=1 n=c#6 v=0
782317 On ch=1 n=f4 v=51
782526 On ch=1 n=f4 v=0
782638 On ch=1 n=g#4 v=47
782674 On ch=1 n=c#6 v=73
782681 On ch=1 n=c#7 v=78
782964 On ch=1 n=c#5 v=51
783017 On ch=1 n=c#5 v=0
783021 On ch=1 n=g#4 v=0
783094 On ch=1 n=c#7 v=0
783094 On ch=1 n=c#6 v=0
783210 Par ch=1 c=64 v=0
783218 On ch=1 n=g3 v=65
783218 On ch=1 n=c#7 v=74
783225 On ch=1 n=c#6 v=73
783325 On ch=1 n=g3 v=0
783346 Par ch=1 c=64 v=127
783501 On ch=1 n=g4 v=77
783530 On ch=1 n=c#6 v=0
783564 On ch=1 n=c#7 v=0
783674 On ch=1 n=g4 v=0
783744 On ch=1 n=c#7 v=92
783758 On ch=1 n=c#6 v=85
783761 On ch=1 n=e5 v=66
783773 On ch=1 n=a#4 v=60
783974 On ch=1 n=e5 v=0
783993 On ch=1 n=d#5 v=79
784003 On ch=1 n=a#4 v=0
784034 On ch=1 n=d#5 v=0
784038 On ch=1 n=c#6 v=0
784066 On ch=1 n=c#7 v=0
784181 Par ch=1 c=64 v=0
784214 On ch=1 n=g#3 v=72
784222 On ch=1 n=c#7 v=86
784222 On ch=1 n=c#6 v=83
784290 On ch=1 n=g#3 v=0
784322 Par ch=1 c=64 v=127
784461 On ch=1 n=g#4 v=82
784471 On ch=1 n=c#6 v=0
784507 On ch=1 n=c#7 v=0
784604 On ch=1 n=g#4 v=0
784714 On ch=1 n=d6 v=86
784714 On ch=1 n=d7 v=91
784714 On ch=1 n=f#5 v=73
784718 On ch=1 n=b4 v=69
784788 On ch=1 n=b4 v=0
784824 On ch=1 n=f#5 v=0
784831 On ch=1 n=d6 v=0
784847 On ch=1 n=d7 v=0
784951 On ch=1 n=f5 v=90
784968 On ch=1 n=f5 v=0
785055 On ch=1 n=f5 v=25
785056 On ch=1 n=f5 v=0
785231 On ch=1 n=d#7 v=92
785238 On ch=1 n=d#6 v=88
785244 On ch=1 n=a#3 v=78
785251 Par ch=1 c=64 v=0
785399 Par ch=1 c=64 v=127
785414 On ch=1 n=a#3 v=0
785598 On ch=1 n=a#4 v=89
785920 On ch=1 n=e5 v=76
785928 On ch=1 n=g#5 v=98
786135 On ch=1 n=g#5 v=0
786168 On ch=1 n=d#7 v=0
786224 On ch=1 n=d#6 v=0
786315 On ch=1 n=g5 v=89
786404 On ch=1 n=e5 v=0
786419 On ch=1 n=g5 v=0
786434 On ch=1 n=a#4 v=0
786571 On ch=1 n=c#7 v=92
786575 On ch=1 n=c#6 v=91
786639 On ch=1 n=c#6 v=0
786691 On ch=1 n=c#7 v=0
786931 On ch=1 n=b3 v=91
786940 On ch=1 n=a#7 v=98
786948 On ch=1 n=a#6 v=94
787064 Par ch=1 c=64 v=0
787204 Par ch=1 c=64 v=127
787339 On ch=1 n=b3 v=0
787731 On ch=1 n=a#5 v=102
787740 On ch=1 n=f5 v=80
787747 On ch=1 n=c#5 v=78
787747 On ch=1 n=b4 v=80
787834 Par ch=1 c=64 v=0
787955 Par ch=1 c=64 v=127
788251 On ch=1 n=g#7 v=77
788432 On ch=1 n=f7 v=70
788520 On ch=1 n=a#6 v=0
788567 On ch=1 n=g#7 v=0
788567 On ch=1 n=c#7 v=78
788599 On ch=1 n=a#7 v=0
788611 On ch=1 n=f7 v=0
788611 On ch=1 n=a#5 v=0
788644 On ch=1 n=c#7 v=0
788699 On ch=1 n=a#6 v=74
788764 On ch=1 n=a#6 v=0
788844 On ch=1 n=g#6 v=74
788924 On ch=1 n=g#5 v=77
789051 Par ch=1 c=64 v=0
789060 On ch=1 n=f7 v=73
789108 On ch=1 n=g#6 v=0
789218 On ch=1 n=d#7 v=66
789224 Par ch=1 c=64 v=127
789311 On ch=1 n=b6 v=68
789315 On ch=1 n=f7 v=0
789391 On ch=1 n=d#7 v=0
789400 On ch=1 n=g#6 v=75
789431 On ch=1 n=b6 v=0
789471 On ch=1 n=g#6 v=0
789479 On ch=1 n=f6 v=73
789547 On ch=1 n=f6 v=0
789599 On ch=1 n=d#6 v=77
789675 On ch=1 n=g#5 v=0
789678 On ch=1 n=d#6 v=0
789692 On ch=1 n=a#6 v=70
789768 On ch=1 n=a#6 v=0
789784 On ch=1 n=g#6 v=67
789831 On ch=1 n=f5 v=0
789831 On ch=1 n=f6 v=69
789867 On ch=1 n=c#5 v=0
789875 On ch=1 n=g#6 v=0
789907 On ch=1 n=b4 v=0
789915 On ch=1 n=c#6 v=75
789935 On ch=1 n=f6 v=0
789955 On ch=1 n=c#6 v=0
789983 On ch=1 n=a#5 v=78
790055 On ch=1 n=a#5 v=0
790072 On ch=1 n=g#5 v=74
790155 On ch=1 n=g#5 v=0
790159 On ch=1 n=f6 v=67
790188 Par ch=1 c=64 v=0
790220 On ch=1 n=d#6 v=68
790307 On ch=1 n=f6 v=0
790317 On ch=1 n=b5 v=66
790317 Par ch=1 c=64 v=127
790377 On ch=1 n=d#6 v=0
790384 On ch=1 n=g#5 v=74
790408 On ch=1 n=b5 v=0
790437 On ch=1 n=g#5 v=0
790452 On ch=1 n=f5 v=78
790528 On ch=1 n=f5 v=0
790557 On ch=1 n=d#5 v=75
790637 On ch=1 n=a#5 v=75
790680 On ch=1 n=d#5 v=0
790708 On ch=1 n=g#5 v=68
790724 Par ch=1 c=64 v=0
790797 On ch=1 n=f5 v=72
790816 On ch=1 n=a#5 v=0
790844 Par ch=1 c=64 v=127
790868 On ch=1 n=c#5 v=77
790872 On ch=1 n=g#5 v=0
790897 On ch=1 n=f5 v=0
790944 On ch=1 n=c#5 v=0
790948 On ch=1 n=a#4 v=77
791020 On ch=1 n=a#4 v=0
791048 On ch=1 n=g#4 v=76
791116 On ch=1 n=g#4 v=0
791128 On ch=1 n=f5 v=74
791175 On ch=1 n=d#5 v=65
791280 On ch=1 n=f5 v=0
791288 On ch=1 n=b4 v=59
791368 On ch=1 n=d#5 v=0
791377 On ch=1 n=g#4 v=72
791392 On ch=1 n=b4 v=0
791428 On ch=1 n=g#4 v=0
791452 On ch=1 n=f4 v=69
791525 On ch=1 n=f4 v=0
791544 On ch=1 n=d#4 v=78
791636 Par ch=1 c=64 v=0
791677 On ch=1 n=a#4 v=81
791680 On ch=1 n=d#4 v=0
791808 Par ch=1 c=64 v=127
791861 On ch=1 n=a#4 v=0
791901 On ch=1 n=g#4 v=86
792052 On ch=1 n=g#4 v=0
792112 On ch=1 n=f4 v=89
792248 On ch=1 n=f4 v=0
792404 On ch=1 n=b3 v=99
792436 Par ch=1 c=64 v=0
792585 Par ch=1 c=64 v=127
792612 On ch=1 n=b3 v=0
792837 On ch=1 n=c4 v=104
792920 Par ch=1 c=64 v=0
793032 Par ch=1 c=64 v=127
793108 On ch=1 n=c4 v=0
793361 On ch=1 n=d#4 v=98
793592 Par ch=1 c=64 v=0
794197 Par ch=1 c=64 v=127
794349 On ch=1 n=d#4 v=0
795929 On ch=1 n=c#4 v=78
796205 On ch=1 n=c#4 v=0
796752 On ch=1 n=c#5 v=77
796784 On ch=1 n=f#2 v=53
796788 Par ch=1 c=64 v=0
796795 On ch=1 n=c#4 v=59
796805 On ch=1 n=f#3 v=55
796808 On ch=1 n=a#2 v=57
796812 On ch=1 n=a#4 v=59
796821 On ch=1 n=c#3 v=58
797021 Par ch=1 c=64 v=127
797221 On ch=1 n=a#4 v=0
797221 On ch=1 n=a#2 v=0
797221 On ch=1 n=c#4 v=0
797221 On ch=1 n=f#2 v=0
797232 On ch=1 n=c#3 v=0
797248 On ch=1 n=f#3 v=0
797397 On ch=1 n=f#2 v=55
797401 On ch=1 n=f#3 v=49
797412 On ch=1 n=a#4 v=49
797429 On ch=1 n=f#4 v=48
797429 On ch=1 n=a#2 v=51
797436 On ch=1 n=c#4 v=50
797448 On ch=1 n=c#3 v=49
797632 On ch=1 n=f#2 v=0
797641 On ch=1 n=a#2 v=0
797652 On ch=1 n=c#5 v=0
797662 On ch=1 n=c#3 v=0
797678 On ch=1 n=f#3 v=0
797706 On ch=1 n=f#4 v=0
797718 On ch=1 n=c#4 v=0
797718 On ch=1 n=a#4 v=0
797838 On ch=1 n=c#5 v=72
797862 On ch=1 n=a#4 v=50
797874 On ch=1 n=f#3 v=35
797874 On ch=1 n=c#4 v=51
797889 On ch=1 n=f#2 v=34
797889 On ch=1 n=a#2 v=33
797905 On ch=1 n=f#4 v=33
797905 On ch=1 n=c#3 v=26
797981 On ch=1 n=f#4 v=0
798045 On ch=1 n=a#4 v=0
798089 On ch=1 n=f#2 v=0
798099 On ch=1 n=c#3 v=0
798103 On ch=1 n=a#2 v=0
798114 On ch=1 n=c#4 v=0
798118 On ch=1 n=f#3 v=0
798266 On ch=1 n=a#4 v=48
798274 On ch=1 n=c#4 v=49
798274 On ch=1 n=f#4 v=45
798282 On ch=1 n=f#3 v=39
798282 On ch=1 n=f#2 v=35
798289 On ch=1 n=a#2 v=39
798306 On ch=1 n=c#3 v=33
798502 On ch=1 n=f#2 v=0
798519 On ch=1 n=a#4 v=0
798523 On ch=1 n=a#2 v=0
798531 On ch=1 n=f#4 v=0
798531 On ch=1 n=c#4 v=0
798542 On ch=1 n=f#3 v=0
798558 On ch=1 n=c#3 v=0
798683 On ch=1 n=a#4 v=47
798683 On ch=1 n=c#4 v=49
798686 On ch=1 n=f#4 v=53
798696 On ch=1 n=a#2 v=41
798696 On ch=1 n=f#2 v=42
798708 On ch=1 n=f#3 v=47
798722 On ch=1 n=c#3 v=41
798859 On ch=1 n=a#4 v=0
798920 On ch=1 n=f#2 v=0
798927 On ch=1 n=a#2 v=0
798939 On ch=1 n=f#3 v=0
798939 On ch=1 n=c#5 v=0
798956 On ch=1 n=c#3 v=0
798956 On ch=1 n=f#4 v=0
798967 On ch=1 n=c#4 v=0
799067 On ch=1 n=c#5 v=75
799095 On ch=1 n=f#2 v=41
799095 On ch=1 n=a#4 v=62
799106 On ch=1 n=c#4 v=60
799106 On ch=1 n=a#2 v=36
799116 On ch=1 n=f#3 v=37
799127 On ch=1 n=c#3 v=38
799128 On ch=1 n=f#4 v=25
799187 On ch=1 n=c#4 v=0
799199 On ch=1 n=a#4 v=0
799203 On ch=1 n=f#4 v=0
799203 On ch=1 n=c#3 v=0
799231 On ch=1 n=f#3 v=0
799263 On ch=1 n=c#5 v=0
799279 On ch=1 n=a#2 v=0
799279 On ch=1 n=f#2 v=0
799503 On ch=1 n=c#5 v=78
799519 Par ch=1 c=64 v=0
799528 On ch=1 n=f#2 v=47
799535 On ch=1 n=f#3 v=44
799535 On ch=1 n=d#4 v=50
799539 On ch=1 n=a#2 v=37
799546 On ch=1 n=f#4 v=45
799546 On ch=1 n=a#4 v=47
799546 On ch=1 n=d#3 v=37
799679 On ch=1 n=f#4 v=0
799703 Par ch=1 c=64 v=127
799743 On ch=1 n=f#3 v=0
799759 On ch=1 n=f#2 v=0
799766 On ch=1 n=d#3 v=0
799795 On ch=1 n=a#2 v=0
799795 On ch=1 n=d#4 v=0
799799 On ch=1 n=a#4 v=0
799922 On ch=1 n=f#4 v=50
799928 On ch=1 n=a#2 v=48
799932 On ch=1 n=d#3 v=41
799932 On ch=1 n=d#4 v=51
799935 On ch=1 n=a#4 v=59
799939 On ch=1 n=f#2 v=43
799939 On ch=1 n=f#3 v=45
799946 On ch=1 n=c#5 v=0
800108 On ch=1 n=d#5 v=72
800115 On ch=1 n=f#2 v=0
800123 On ch=1 n=f#3 v=0
800135 On ch=1 n=d#3 v=0
800163 On ch=1 n=d#4 v=0
800166 On ch=1 n=a#4 v=0
800180 On ch=1 n=a#2 v=0
800216 On ch=1 n=f#4 v=0
800231 On ch=1 n=d#5 v=0
800323 On ch=1 n=d#5 v=69
800332 On ch=1 n=d#3 v=45
800339 On ch=1 n=f#3 v=46
800339 On ch=1 n=f#2 v=50
800343 On ch=1 n=d#4 v=55
800347 On ch=1 n=a#4 v=52
800347 On ch=1 n=f#4 v=54
800351 On ch=1 n=a#2 v=43
800546 On ch=1 n=a#4 v=0
800552 On ch=1 n=f#4 v=0
800552 On ch=1 n=f#3 v=0
800568 On ch=1 n=f#2 v=0
800599 On ch=1 n=a#2 v=0
800599 On ch=1 n=d#3 v=0
800607 On ch=1 n=d#4 v=0
800736 On ch=1 n=f#2 v=48
800736 On ch=1 n=f#4 v=48
800736 On ch=1 n=a#4 v=40
800740 On ch=1 n=d#4 v=55
800748 On ch=1 n=f#3 v=48
800748 On ch=1 n=a#2 v=51
800748 On ch=1 n=d#3 v=55
800943 On ch=1 n=a#4 v=0
800953 On ch=1 n=f#2 v=0
800956 On ch=1 n=f#3 v=0
800972 On ch=1 n=d#3 v=0
800982 On ch=1 n=f#4 v=0
800997 On ch=1 n=d#4 v=0
801013 On ch=1 n=a#2 v=0
801117 On ch=1 n=f#4 v=54
801125 On ch=1 n=d#4 v=45
801125 On ch=1 n=f#2 v=54
801136 On ch=1 n=a#4 v=43
801140 On ch=1 n=f#3 v=52
801150 On ch=1 n=d#3 v=50
801157 On ch=1 n=a#2 v=54
801341 On ch=1 n=a#4 v=0
801357 On ch=1 n=f#2 v=0
801373 On ch=1 n=f#3 v=0
801389 On ch=1 n=d#4 v=0
801393 On ch=1 n=f#4 v=0
801417 On ch=1 n=a#2 v=0
801417 On ch=1 n=d#3 v=0
801521 On ch=1 n=f#2 v=59
801540 On ch=1 n=f#4 v=49
801540 On ch=1 n=a#4 v=44
801540 On ch=1 n=d#4 v=48
801540 On ch=1 n=a#2 v=55
801540 On ch=1 n=f#3 v=49
801546 On ch=1 n=d#3 v=46
801582 On ch=1 n=f#4 v=0
801586 On ch=1 n=d#4 v=0
801609 On ch=1 n=a#4 v=0
801613 On ch=1 n=a#2 v=0
801622 On ch=1 n=d#5 v=0
801637 On ch=1 n=f#3 v=0
801682 On ch=1 n=f#2 v=0
801701 On ch=1 n=d#3 v=0
801937 On ch=1 n=f#5 v=88
801940 On ch=1 n=d#3 v=45
801950 On ch=1 n=d#5 v=71
801954 On ch=1 n=f#4 v=70
801957 On ch=1 n=f#3 v=47
801966 On ch=1 n=b2 v=51
801970 On ch=1 n=f#2 v=50
801973 Par ch=1 c=64 v=0
801973 On ch=1 n=b4 v=49
802037 On ch=1 n=b4 v=0
802177 Par ch=1 c=64 v=127
802182 On ch=1 n=f#4 v=0
802190 On ch=1 n=f#2 v=0
802202 On ch=1 n=f#3 v=0
802202 On ch=1 n=d#5 v=0
802226 On ch=1 n=b2 v=0
802241 On ch=1 n=d#3 v=0
802353 On ch=1 n=f#4 v=54
802357 On ch=1 n=f#2 v=54
802360 On ch=1 n=b2 v=51
802370 On ch=1 n=d#5 v=54
802370 On ch=1 n=d#3 v=50
802382 On ch=1 n=f#3 v=51
802382 On ch=1 n=b4 v=41
802502 On ch=1 n=b4 v=0
802502 On ch=1 n=d#5 v=0
802541 On ch=1 n=f#5 v=0
802549 On ch=1 n=f#3 v=0
802566 On ch=1 n=b2 v=0
802573 On ch=1 n=f#2 v=0
802597 On ch=1 n=d#3 v=0
802641 On ch=1 n=f#4 v=0
802741 On ch=1 n=f#5 v=88
802770 On ch=1 n=f#3 v=36
802770 On ch=1 n=d#5 v=65
802770 On ch=1 n=b2 v=50
802782 On ch=1 n=f#4 v=62
802782 On ch=1 n=d#3 v=44
802782 On ch=1 n=f#2 v=41
802797 On ch=1 n=b4 v=37
802921 On ch=1 n=f#4 v=0
802931 On ch=1 n=b4 v=0
802947 On ch=1 n=d#5 v=0
802959 On ch=1 n=f#2 v=0
802990 On ch=1 n=d#3 v=0
802990 On ch=1 n=f#3 v=0
803019 On ch=1 n=b2 v=0
803126 On ch=1 n=b2 v=44
803134 On ch=1 n=f#2 v=45
803137 On ch=1 n=d#5 v=50
803139 On ch=1 n=f#3 v=48
803150 On ch=1 n=f#4 v=48
803150 On ch=1 n=d#3 v=46
803154 On ch=1 n=b4 v=46
803319 On ch=1 n=b4 v=0
803319 On ch=1 n=d#5 v=0
803363 On ch=1 n=f#4 v=0
803363 On ch=1 n=f#2 v=0
803379 On ch=1 n=b2 v=0
803383 On ch=1 n=d#3 v=0
803383 On ch=1 n=f#3 v=0
803517 On ch=1 n=b2 v=55
803523 On ch=1 n=d#5 v=57
803531 On ch=1 n=f#4 v=55
803531 On ch=1 n=f#3 v=56
803534 On ch=1 n=b4 v=56
803534 On ch=1 n=f#2 v=57
803538 On ch=1 n=d#3 v=55
803706 On ch=1 n=d#5 v=0
803727 On ch=1 n=b4 v=0
803766 On ch=1 n=f#4 v=0
803770 On ch=1 n=f#2 v=0
803774 On ch=1 n=f#3 v=0
803784 On ch=1 n=d#3 v=0
803831 On ch=1 n=f#5 v=0
803911 On ch=1 n=b2 v=0
803911 On ch=1 n=b2 v=35
803915 On ch=1 n=f#2 v=53
803919 On ch=1 n=f#3 v=54
803930 On ch=1 n=f#5 v=88
803930 On ch=1 n=d#3 v=50
803951 On ch=1 n=f#4 v=66
803956 On ch=1 n=d#5 v=54
804063 On ch=1 n=f#4 v=0
804080 On ch=1 n=f#2 v=0
804091 On ch=1 n=d#5 v=0
804091 On ch=1 n=f#3 v=0
804111 On ch=1 n=f#5 v=0
804135 On ch=1 n=b2 v=0
804147 On ch=1 n=d#3 v=0
804374 On ch=1 n=f#5 v=88
804384 On ch=1 n=d#5 v=74
804388 On ch=1 n=f#2 v=67
804392 Par ch=1 c=64 v=0
804400 On ch=1 n=f#3 v=61
804400 On ch=1 n=g#3 v=65
804408 On ch=1 n=b2 v=59
804408 On ch=1 n=g#4 v=66
804408 On ch=1 n=b4 v=69
804408 On ch=1 n=d#3 v=53
804553 On ch=1 n=b4 v=0
804572 Par ch=1 c=64 v=127
804580 On ch=1 n=g#4 v=0
804591 On ch=1 n=d#5 v=0
804644 On ch=1 n=f#2 v=0
804648 On ch=1 n=b2 v=0
804672 On ch=1 n=g#3 v=0
804693 On ch=1 n=d#3 v=0
804693 On ch=1 n=f#3 v=0
804800 On ch=1 n=d#5 v=62
804817 On ch=1 n=f#2 v=58
804817 On ch=1 n=b2 v=57
804817 On ch=1 n=f#3 v=52
804817 On ch=1 n=b4 v=62
804832 On ch=1 n=d#3 v=65
804832 On ch=1 n=g#3 v=57
804844 On ch=1 n=f#5 v=0
804982 On ch=1 n=g#5 v=86
804998 On ch=1 n=d#3 v=0
805009 On ch=1 n=b2 v=0
805019 On ch=1 n=g#3 v=0
805019 On ch=1 n=f#3 v=0
805022 On ch=1 n=f#2 v=0
805082 On ch=1 n=g#5 v=0
805082 On ch=1 n=d#5 v=0
805125 On ch=1 n=b4 v=0
805158 On ch=1 n=f#3 v=52
805165 On ch=1 n=f#2 v=59
805171 On ch=1 n=g#5 v=82
805171 On ch=1 n=b4 v=59
805171 On ch=1 n=d#5 v=62
805174 On ch=1 n=d#3 v=52
805178 On ch=1 n=b2 v=56
805185 On ch=1 n=g#3 v=45
805185 On ch=1 n=g#4 v=58
805282 On ch=1 n=g#3 v=0
805286 On ch=1 n=g#3 v=4
805386 On ch=1 n=d#5 v=0
805394 On ch=1 n=g#4 v=0
805394 On ch=1 n=b4 v=0
805422 On ch=1 n=f#2 v=0
805430 On ch=1 n=b2 v=0
805438 On ch=1 n=g#3 v=0
805471 On ch=1 n=d#3 v=0
805471 On ch=1 n=f#3 v=0
805546 On ch=1 n=b4 v=65
805558 On ch=1 n=d#5 v=61
805558 On ch=1 n=g#4 v=58
805558 On ch=1 n=f#3 v=60
805561 On ch=1 n=f#2 v=60
805561 On ch=1 n=b2 v=54
805575 On ch=1 n=g#3 v=57
805575 On ch=1 n=d#3 v=59
805745 On ch=1 n=g#4 v=0
805778 On ch=1 n=d#5 v=0
805782 On ch=1 n=f#2 v=0
805791 On ch=1 n=b4 v=0
805795 On ch=1 n=b2 v=0
805822 On ch=1 n=g#3 v=0
805834 On ch=1 n=f#3 v=0
805845 On ch=1 n=d#3 v=0
805946 On ch=1 n=f#2 v=64
805947 On ch=1 n=g#4 v=58
805947 On ch=1 n=d#5 v=58
805950 On ch=1 n=f#3 v=55
805950 On ch=1 n=b2 v=59
805958 On ch=1 n=b4 v=64
805958 On ch=1 n=d#3 v=64
805958 On ch=1 n=g#3 v=60
806185 On ch=1 n=f#2 v=0
806191 On ch=1 n=b2 v=0
806198 On ch=1 n=d#5 v=0
806206 On ch=1 n=g#3 v=0
806222 On ch=1 n=f#3 v=0
806227 On ch=1 n=d#3 v=0
806227 On ch=1 n=g#4 v=0
806231 On ch=1 n=b4 v=0
806367 On ch=1 n=g#4 v=53
806371 On ch=1 n=b2 v=56
806375 On ch=1 n=d#3 v=57
806379 On ch=1 n=b4 v=68
806382 On ch=1 n=f#2 v=58
806386 On ch=1 n=d#5 v=63
806391 On ch=1 n=f#3 v=40
806394 On ch=1 n=g#3 v=53
806455 On ch=1 n=b4 v=0
806478 On ch=1 n=g#3 v=0
806478 On ch=1 n=d#3 v=0
806482 On ch=1 n=b2 v=0
806485 On ch=1 n=g#4 v=0
806502 On ch=1 n=d#5 v=0
806506 On ch=1 n=f#3 v=0
806506 On ch=1 n=g#5 v=0
806527 On ch=1 n=f#2 v=0
806861 Par ch=1 c=64 v=0
806871 On ch=1 n=b6 v=115
806875 On ch=1 n=g#6 v=100
806875 On ch=1 n=b5 v=111
806875 On ch=1 n=e6 v=111
806875 On ch=1 n=e2 v=91
806885 On ch=1 n=e3 v=93
807056 Par ch=1 c=64 v=127
807068 On ch=1 n=e3 v=0
807068 On ch=1 n=e2 v=0
807485 On ch=1 n=g#4 v=69
807496 On ch=1 n=g#5 v=72
807496 On ch=1 n=b4 v=66
807500 On ch=1 n=e5 v=66
807701 On ch=1 n=g#4 v=0
807712 On ch=1 n=b4 v=0
807720 On ch=1 n=e5 v=0
807753 On ch=1 n=g#5 v=0
807825 On ch=1 n=g#4 v=73
807840 On ch=1 n=e5 v=73
807848 On ch=1 n=g#5 v=71
807848 On ch=1 n=b4 v=72
807899 On ch=1 n=g#6 v=0
807925 On ch=1 n=b6 v=0
807960 On ch=1 n=b5 v=0
808001 On ch=1 n=g#4 v=0
808012 On ch=1 n=e5 v=0
808016 On ch=1 n=b4 v=0
808036 On ch=1 n=g#5 v=0
808072 On ch=1 n=e6 v=0
808149 On ch=1 n=b6 v=100
808153 On ch=1 n=b5 v=111
808153 On ch=1 n=g#4 v=62
808156 On ch=1 n=e5 v=65
808160 On ch=1 n=g#5 v=68
808161 On ch=1 n=b4 v=64
808284 On ch=1 n=g#4 v=0
808299 On ch=1 n=e5 v=0
808332 On ch=1 n=b4 v=0
808341 On ch=1 n=g#5 v=0
808344 On ch=1 n=b5 v=0
808348 On ch=1 n=b6 v=0
808468 On ch=1 n=b5 v=100
808472 On ch=1 n=b6 v=115
808476 On ch=1 n=g#4 v=59
808481 On ch=1 n=e5 v=59
808481 On ch=1 n=g#5 v=61
808485 On ch=1 n=b4 v=65
808569 On ch=1 n=b5 v=0
808609 On ch=1 n=g#5 v=0
808609 On ch=1 n=e5 v=0
808609 On ch=1 n=b6 v=0
808652 On ch=1 n=b4 v=0
808662 On ch=1 n=g#4 v=0
809042 On ch=1 n=c#6 v=116
809042 On ch=1 n=c#7 v=117
809109 On ch=1 n=c#6 v=0
809119 On ch=1 n=c#7 v=0
809182 On ch=1 n=g6 v=100
809190 On ch=1 n=c#7 v=112
809193 On ch=1 n=c#6 v=100
809193 On ch=1 n=d2 v=96
809193 On ch=1 n=d3 v=90
809193 Par ch=1 c=64 v=0
809366 On ch=1 n=d3 v=0
809383 On ch=1 n=d2 v=0
809383 Par ch=1 c=64 v=127
809794 On ch=1 n=b4 v=64
809794 On ch=1 n=d5 v=63
809794 On ch=1 n=g5 v=62
809794 On ch=1 n=g4 v=65
809955 On ch=1 n=g5 v=0
809958 On ch=1 n=c#6 v=0
809958 On ch=1 n=c#7 v=0
809962 On ch=1 n=g4 v=0
809969 On ch=1 n=g6 v=0
809986 On ch=1 n=b4 v=0
809994 On ch=1 n=d5 v=0
810082 On ch=1 n=g5 v=76
810092 On ch=1 n=d5 v=66
810092 On ch=1 n=g4 v=72
810092 On ch=1 n=b4 v=65
810207 On ch=1 n=g4 v=0
810219 On ch=1 n=b4 v=0
810223 On ch=1 n=g5 v=0
810252 On ch=1 n=d5 v=0
810346 On ch=1 n=b6 v=115
810360 On ch=1 n=g4 v=64
810360 On ch=1 n=b5 v=100
810363 On ch=1 n=g5 v=69
810367 On ch=1 n=b4 v=59
810371 On ch=1 n=d5 v=66
810435 On ch=1 n=b5 v=0
810496 On ch=1 n=b6 v=0
810500 On ch=1 n=b4 v=0
810527 On ch=1 n=g5 v=0
810543 On ch=1 n=g4 v=0
810576 On ch=1 n=d5 v=0
810731 On ch=1 n=a6 v=111
810731 On ch=1 n=a7 v=115
810731 On ch=1 n=g5 v=66
810732 On ch=1 n=g4 v=67
810732 On ch=1 n=d5 v=67
810735 On ch=1 n=b4 v=61
810940 On ch=1 n=a7 v=0
810987 On ch=1 n=a6 v=0
811004 On ch=1 n=g5 v=0
811020 On ch=1 n=d5 v=0
811051 On ch=1 n=b4 v=0
811079 On ch=1 n=g4 v=0
811089 On ch=1 n=g7 v=100
811089 On ch=1 n=g6 v=115
811164 On ch=1 n=g6 v=0
811164 On ch=1 n=g7 v=0
811397 Par ch=1 c=64 v=0
811427 On ch=1 n=f#7 v=116
811427 On ch=1 n=c#2 v=92
811429 On ch=1 n=f#6 v=100
811433 On ch=1 n=c#3 v=92
811493 On ch=1 n=c#2 v=0
811527 On ch=1 n=c#3 v=0
811533 Par ch=1 c=64 v=127
811567 On ch=1 n=f#7 v=0
811600 On ch=1 n=f#6 v=0
811867 On ch=1 n=e5 v=73
811877 On ch=1 n=g5 v=74
811884 On ch=1 n=e7 v=115
811888 On ch=1 n=e6 v=114
811888 On ch=1 n=g4 v=68
811888 On ch=1 n=a#4 v=69
811988 On ch=1 n=e6 v=0
812004 On ch=1 n=e7 v=0
812029 On ch=1 n=a#4 v=0
812029 On ch=1 n=g5 v=0
812036 On ch=1 n=g4 v=0
812061 On ch=1 n=e5 v=0
812164 On ch=1 n=d#6 v=111
812167 On ch=1 n=d#7 v=100
812177 On ch=1 n=g4 v=72
812180 On ch=1 n=g5 v=74
812184 On ch=1 n=e5 v=74
812188 On ch=1 n=a#4 v=73
812269 On ch=1 n=d#7 v=0
812269 On ch=1 n=d#6 v=0
812308 On ch=1 n=a#4 v=0
812308 On ch=1 n=g4 v=0
812313 On ch=1 n=g5 v=0
812328 On ch=1 n=e5 v=0
812372 On ch=1 n=c#7 v=115
812372 On ch=1 n=c#6 v=114
812448 On ch=1 n=c#6 v=0
812449 On ch=1 n=c#7 v=0
812460 On ch=1 n=g4 v=78
812463 On ch=1 n=g5 v=81
812463 On ch=1 n=e5 v=79
812467 On ch=1 n=a#4 v=74
812536 On ch=1 n=c7 v=117
812546 On ch=1 n=c6 v=113
812561 On ch=1 n=g4 v=0
812564 On ch=1 n=g5 v=0
812578 On ch=1 n=a#4 v=0
812581 On ch=1 n=e5 v=0
812593 On ch=1 n=c6 v=0
812593 On ch=1 n=c7 v=0
812680 On ch=1 n=c#7 v=116
812684 On ch=1 n=c#6 v=111
812694 On ch=1 n=g4 v=80
812697 On ch=1 n=e5 v=77
812701 On ch=1 n=g5 v=76
812701 On ch=1 n=a#4 v=74
812737 On ch=1 n=c#6 v=0
812741 On ch=1 n=c#7 v=0
812885 On ch=1 n=g5 v=0
812885 On ch=1 n=e5 v=0
812925 On ch=1 n=d#6 v=114
812929 On ch=1 n=d#7 v=100
812946 On ch=1 n=a#4 v=0
812946 On ch=1 n=g4 v=0
812977 On ch=1 n=d#6 v=0
813009 On ch=1 n=d#7 v=0
813246 On ch=1 n=e6 v=115
813246 On ch=1 n=e7 v=113
813265 On ch=1 n=e6 v=0
813280 On ch=1 n=e7 v=0
813306 Par ch=1 c=64 v=0
813321 On ch=1 n=c2 v=95
813321 On ch=1 n=c3 v=93
813357 On ch=1 n=e6 v=100
813357 On ch=1 n=e7 v=116
813453 On ch=1 n=c2 v=0
813457 On ch=1 n=c3 v=0
813457 Par ch=1 c=64 v=127
813817 On ch=1 n=g4 v=75
813817 On ch=1 n=e5 v=74
813821 On ch=1 n=a#4 v=69
813821 On ch=1 n=c#5 v=67
813997 On ch=1 n=g4 v=0
814001 On ch=1 n=a#4 v=0
814017 On ch=1 n=e5 v=0
814024 On ch=1 n=c#5 v=0
814105 On ch=1 n=c#5 v=77
814109 On ch=1 n=a#4 v=77
814113 On ch=1 n=e5 v=76
814113 On ch=1 n=g4 v=75
814117 On ch=1 n=e7 v=0
814204 On ch=1 n=e6 v=0
814225 On ch=1 n=g4 v=0
814233 On ch=1 n=e5 v=0
814237 On ch=1 n=a#4 v=0
814246 On ch=1 n=c#5 v=0
814341 On ch=1 n=g4 v=77
814346 On ch=1 n=e5 v=79
814350 On ch=1 n=a#4 v=79
814350 On ch=1 n=c#5 v=78
814470 On ch=1 n=g4 v=0
814474 On ch=1 n=e5 v=0
814478 On ch=1 n=a#4 v=0
814489 On ch=1 n=c#5 v=0
814605 On ch=1 n=g4 v=66
814605 On ch=1 n=e5 v=66
814606 On ch=1 n=a#4 v=69
814610 On ch=1 n=e6 v=105
814610 On ch=1 n=e7 v=111
814610 On ch=1 n=c#5 v=68
814706 On ch=1 n=a#4 v=0
814714 On ch=1 n=e5 v=0
814721 On ch=1 n=g4 v=0
814730 On ch=1 n=c#5 v=0
814845 On ch=1 n=a#4 v=66
814845 On ch=1 n=g4 v=71
814850 On ch=1 n=e5 v=73
814850 On ch=1 n=c#5 v=71
814873 On ch=1 n=e5 v=0
814890 On ch=1 n=c#5 v=0
814913 On ch=1 n=a#4 v=0
814921 On ch=1 n=g4 v=0
815094 Par ch=1 c=64 v=0
815125 On ch=1 n=c4 v=98
815137 On ch=1 n=c3 v=99
815241 On ch=1 n=c3 v=0
815241 On ch=1 n=c4 v=0
815258 Par ch=1 c=64 v=127
815534 On ch=1 n=e5 v=89
815541 On ch=1 n=c5 v=69
815541 On ch=1 n=g#4 v=82
815546 On ch=1 n=e6 v=0
815561 On ch=1 n=e7 v=0
815646 On ch=1 n=g#4 v=0
815677 On ch=1 n=e5 v=0
815704 On ch=1 n=c5 v=0
815809 On ch=1 n=f5 v=86
815817 On ch=1 n=g#4 v=76
815820 On ch=1 n=c5 v=73
815820 On ch=1 n=f6 v=91
815826 On ch=1 n=f7 v=97
815901 On ch=1 n=f6 v=0
815911 On ch=1 n=f7 v=0
815911 On ch=1 n=g#4 v=0
815911 On ch=1 n=f5 v=0
815931 On ch=1 n=c5 v=0
816014 On ch=1 n=c5 v=70
816018 On ch=1 n=f5 v=88
816018 On ch=1 n=g#4 v=78
816081 On ch=1 n=f5 v=0
816091 On ch=1 n=c5 v=0
816108 On ch=1 n=g#4 v=0
816180 On ch=1 n=f#6 v=80
816243 Par ch=1 c=64 v=0
816254 On ch=1 n=f#6 v=0
816300 On ch=1 n=f#7 v=92
816311 On ch=1 n=b3 v=93
816311 On ch=1 n=b2 v=93
816371 On ch=1 n=b3 v=0
816375 On ch=1 n=b2 v=0
816391 Par ch=1 c=64 v=127
816431 On ch=1 n=f#7 v=0
816538 On ch=1 n=g#7 v=86
816651 On ch=1 n=g#7 v=0
816660 On ch=1 n=f#7 v=82
816731 On ch=1 n=f#7 v=0
816740 On ch=1 n=g#7 v=80
816744 On ch=1 n=d#5 v=74
816747 On ch=1 n=a4 v=76
816751 On ch=1 n=f#5 v=96
816880 On ch=1 n=f#7 v=71
816907 On ch=1 n=f#7 v=0
816907 On ch=1 n=f#5 v=0
816911 On ch=1 n=d#5 v=0
816911 On ch=1 n=f7 v=79
816928 On ch=1 n=a4 v=0
816931 On ch=1 n=g#7 v=0
816968 On ch=1 n=f7 v=0
817004 On ch=1 n=f#7 v=80
817075 On ch=1 n=f#7 v=0
817138 On ch=1 n=a6 v=95
817144 On ch=1 n=a7 v=98
817155 On ch=1 n=a#3 v=99
817155 On ch=1 n=a#2 v=95
817368 On ch=1 n=a#2 v=0
817412 On ch=1 n=a#3 v=0
817724 On ch=1 n=a5 v=88
817735 On ch=1 n=f#5 v=62
817755 On ch=1 n=a#4 v=70
817767 On ch=1 n=d5 v=50
817892 On ch=1 n=a#4 v=0
817907 On ch=1 n=f#5 v=0
817917 On ch=1 n=d5 v=0
817932 On ch=1 n=a5 v=0
818041 On ch=1 n=a5 v=96
818049 On ch=1 n=f#5 v=84
818052 On ch=1 n=a#4 v=73
818068 On ch=1 n=d5 v=60
818136 On ch=1 n=a7 v=0
818161 On ch=1 n=a#4 v=0
818175 On ch=1 n=d5 v=0
818185 On ch=1 n=a5 v=0
818185 On ch=1 n=a6 v=0
818228 On ch=1 n=f#5 v=0
818337 On ch=1 n=g7 v=91
818337 On ch=1 n=g6 v=89
818341 On ch=1 n=g5 v=76
818341 On ch=1 n=a#4 v=70
818344 On ch=1 n=d5 v=60
818415 On ch=1 n=g6 v=0
818472 On ch=1 n=g7 v=0
818497 On ch=1 n=g5 v=0
818532 On ch=1 n=d5 v=0
818568 On ch=1 n=a#4 v=0
818671 On ch=1 n=d#8 v=99
818671 On ch=1 n=d#7 v=95
818685 On ch=1 n=a#4 v=76
818685 On ch=1 n=g5 v=81
818688 On ch=1 n=d5 v=66
818844 On ch=1 n=g5 v=0
818865 On ch=1 n=d#7 v=0
818880 On ch=1 n=d5 v=0
818884 On ch=1 n=d#8 v=0
818924 On ch=1 n=a#4 v=0
819037 On ch=1 n=g5 v=64
819048 On ch=1 n=a#4 v=65
819048 On ch=1 n=d8 v=100
819052 On ch=1 n=d7 v=96
819060 On ch=1 n=d5 v=56
819104 On ch=1 n=g5 v=0
819114 On ch=1 n=d5 v=0
819162 On ch=1 n=a#4 v=0
819249 On ch=1 n=d8 v=0
819269 On ch=1 n=d7 v=0
819369 Par ch=1 c=64 v=0
819385 On ch=1 n=c8 v=98
819389 On ch=1 n=d#4 v=100
819393 On ch=1 n=c7 v=93
819393 On ch=1 n=d#3 v=98
819518 On ch=1 n=d#3 v=0
819525 Par ch=1 c=64 v=127
819545 On ch=1 n=d#4 v=0
819545 On ch=1 n=c8 v=0
819573 On ch=1 n=c7 v=0
819805 On ch=1 n=a#7 v=90
819809 On ch=1 n=a#6 v=87
819925 On ch=1 n=g5 v=77
819925 On ch=1 n=g4 v=72
819925 On ch=1 n=a4 v=68
819928 On ch=1 n=c5 v=70
819932 On ch=1 n=d#5 v=68
819953 On ch=1 n=a#6 v=0
819958 On ch=1 n=a#7 v=0
820062 On ch=1 n=a7 v=92
820062 On ch=1 n=a6 v=90
820121 On ch=1 n=g5 v=0
820125 On ch=1 n=g4 v=0
820129 On ch=1 n=a4 v=0
820141 On ch=1 n=d#5 v=0
820145 On ch=1 n=c5 v=0
820173 On ch=1 n=a6 v=0
820189 On ch=1 n=a7 v=0
820266 On ch=1 n=g5 v=76
820269 On ch=1 n=g4 v=72
820269 On ch=1 n=a4 v=73
820269 On ch=1 n=c5 v=73
820273 On ch=1 n=g6 v=91
820274 On ch=1 n=d#5 v=72
820274 On ch=1 n=g7 v=91
820369 On ch=1 n=g7 v=0
820369 On ch=1 n=g6 v=0
820378 On ch=1 n=a4 v=0
820386 On ch=1 n=g4 v=0
820394 On ch=1 n=c5 v=0
820405 On ch=1 n=g5 v=0
820422 On ch=1 n=d#5 v=0
820473 On ch=1 n=f6 v=87
820477 On ch=1 n=f7 v=91
820532 On ch=1 n=g4 v=66
820538 On ch=1 n=g5 v=79
820542 On ch=1 n=a4 v=65
820542 On ch=1 n=d#5 v=71
820553 On ch=1 n=f7 v=0
820553 On ch=1 n=f6 v=0
820553 On ch=1 n=c5 v=67
820642 On ch=1 n=d#7 v=92
820642 On ch=1 n=d#6 v=95
820645 On ch=1 n=a4 v=0
820649 On ch=1 n=g5 v=0
820653 On ch=1 n=g4 v=0
820661 On ch=1 n=c5 v=0
820665 On ch=1 n=d#5 v=0
820705 On ch=1 n=d#6 v=0
820709 On ch=1 n=d#7 v=0
820752 On ch=1 n=g4 v=60
820752 On ch=1 n=g5 v=76
820762 On ch=1 n=a4 v=72
820762 On ch=1 n=d#5 v=64
820766 On ch=1 n=c5 v=69
820782 On ch=1 n=d6 v=92
820782 On ch=1 n=d7 v=91
820830 On ch=1 n=d7 v=0
820850 On ch=1 n=d6 v=0
820850 On ch=1 n=g5 v=0
820855 On ch=1 n=c5 v=0
820855 On ch=1 n=d#5 v=0
820855 On ch=1 n=g4 v=0
820859 On ch=1 n=a4 v=0
820919 On ch=1 n=c6 v=91
820919 On ch=1 n=c7 v=89
820958 On ch=1 n=g5 v=76
820969 On ch=1 n=c7 v=0
820969 On ch=1 n=c6 v=0
820969 On ch=1 n=g4 v=58
820971 On ch=1 n=d#5 v=68
820975 On ch=1 n=a4 v=55
820975 On ch=1 n=c5 v=58
821050 On ch=1 n=a#5 v=96
821058 On ch=1 n=g5 v=0
821066 On ch=1 n=a#6 v=89
821069 On ch=1 n=c5 v=0
821069 On ch=1 n=g4 v=0
821075 On ch=1 n=a4 v=0
821083 On ch=1 n=d#5 v=0
821095 On ch=1 n=a#6 v=0
821098 On ch=1 n=a#5 v=0
821166 On ch=1 n=g4 v=71
821166 On ch=1 n=g5 v=81
821166 On ch=1 n=d#5 v=68
821176 On ch=1 n=c5 v=77
821176 On ch=1 n=a4 v=75
821180 On ch=1 n=a5 v=98
821180 On ch=1 n=a6 v=92
821223 On ch=1 n=a5 v=0
821240 On ch=1 n=a6 v=0
821268 On ch=1 n=g5 v=0
821315 On ch=1 n=a4 v=0
821315 On ch=1 n=c5 v=0
821315 On ch=1 n=d#5 v=0
821363 On ch=1 n=g4 v=0
821467 On ch=1 n=a#5 v=98
821475 On ch=1 n=a#6 v=94
821519 On ch=1 n=a#5 v=0
821526 On ch=1 n=a#6 v=0
821792 On ch=1 n=c6 v=81
821803 On ch=1 n=c7 v=78
821823 On ch=1 n=c7 v=0
821823 On ch=1 n=c6 v=0
821866 On ch=1 n=c7 v=83
821866 Par ch=1 c=64 v=0
821872 On ch=1 n=c6 v=87
821883 On ch=1 n=d4 v=95
821883 On ch=1 n=d3 v=98
822046 Par ch=1 c=64 v=127
822063 On ch=1 n=d3 v=0
822063 On ch=1 n=d4 v=0
822435 On ch=1 n=g5 v=67
822439 On ch=1 n=g4 v=67
822443 On ch=1 n=a#4 v=67
822443 On ch=1 n=d#5 v=64
822566 On ch=1 n=g4 v=0
822583 On ch=1 n=a#4 v=0
822606 On ch=1 n=d#5 v=0
822627 On ch=1 n=g5 v=0
822735 On ch=1 n=a#4 v=64
822743 On ch=1 n=g4 v=63
822746 On ch=1 n=d#5 v=62
822746 On ch=1 n=g5 v=65
822859 On ch=1 n=g5 v=0
822859 On ch=1 n=g4 v=0
822869 On ch=1 n=a#4 v=0
822885 On ch=1 n=d#5 v=0
822996 On ch=1 n=g5 v=71
822996 On ch=1 n=g4 v=65
823000 On ch=1 n=d#5 v=64
823008 On ch=1 n=a#4 v=70
823100 On ch=1 n=g4 v=0
823105 On ch=1 n=g5 v=0
823109 On ch=1 n=a#4 v=0
823109 On ch=1 n=c6 v=0
823113 On ch=1 n=c7 v=0
823152 On ch=1 n=d#5 v=0
823232 On ch=1 n=g4 v=70
823232 On ch=1 n=g5 v=73
823236 On ch=1 n=d#5 v=56
823243 On ch=1 n=a#4 v=70
823324 On ch=1 n=d#5 v=0
823324 On ch=1 n=g4 v=0
823340 On ch=1 n=a#4 v=0
823340 On ch=1 n=g5 v=0
823485 On ch=1 n=d#5 v=55
823485 On ch=1 n=a#4 v=55
823489 On ch=1 n=g4 v=51
823504 On ch=1 n=g5 v=87
823504 On ch=1 n=g6 v=89
823592 On ch=1 n=g4 v=0
823600 On ch=1 n=a#4 v=0
823624 On ch=1 n=d#5 v=0
823652 On ch=1 n=g5 v=0
823680 On ch=1 n=g6 v=0
823797 On ch=1 n=d#5 v=61
823800 On ch=1 n=a#4 v=59
823800 On ch=1 n=a5 v=88
823804 On ch=1 n=a6 v=92
823804 On ch=1 n=g4 v=57
823936 On ch=1 n=a5 v=0
823946 On ch=1 n=a6 v=0
824101 On ch=1 n=a#5 v=93
824109 On ch=1 n=a#6 v=94
824129 On ch=1 n=d#5 v=0
824139 On ch=1 n=a#4 v=0
824154 On ch=1 n=a#6 v=0
824154 On ch=1 n=g4 v=0
824170 On ch=1 n=a#5 v=0
824493 On ch=1 n=d#5 v=101
824951 On ch=1 n=c5 v=65
824959 On ch=1 n=g4 v=72
824962 On ch=1 n=a4 v=65
824966 On ch=1 n=d4 v=66
825550 On ch=1 n=f#4 v=73
825598 On ch=1 n=g4 v=0
825737 Par ch=1 c=64 v=0
825927 Par ch=1 c=64 v=127
826087 On ch=1 n=d5 v=76
826134 On ch=1 n=d#5 v=0
826282 On ch=1 n=d5 v=0
826326 On ch=1 n=d#5 v=79
826454 On ch=1 n=d#5 v=0
826478 On ch=1 n=c5 v=0
826523 On ch=1 n=g5 v=81
826627 Par ch=1 c=64 v=0
826646 On ch=1 n=g5 v=0
826686 On ch=1 n=f#5 v=80
826759 Par ch=1 c=64 v=127
826806 On ch=1 n=f#5 v=0
826816 On ch=1 n=a#5 v=80
826855 On ch=1 n=a#5 v=0
826964 On ch=1 n=a5 v=76
826994 Par ch=1 c=64 v=0
827087 On ch=1 n=f#5 v=70
827108 Par ch=1 c=64 v=127
827134 On ch=1 n=a5 v=0
827176 On ch=1 n=d#5 v=74
827211 On ch=1 n=f#5 v=0
827239 On ch=1 n=d#5 v=0
827247 On ch=1 n=c5 v=79
827314 On ch=1 n=c5 v=0
827331 On ch=1 n=c#5 v=82
827423 On ch=1 n=c#5 v=0
827423 On ch=1 n=f#4 v=0
827423 On ch=1 n=a4 v=0
827427 On ch=1 n=d5 v=89
827480 On ch=1 n=d5 v=0
827531 On ch=1 n=d#5 v=95
827540 On ch=1 n=d4 v=0
827551 Par ch=1 c=64 v=0
827700 On ch=1 n=d#5 v=0
827719 Par ch=1 c=64 v=127
827799 On ch=1 n=d5 v=97
827907 On ch=1 n=d5 v=0
828000 On ch=1 n=f5 v=98
828104 On ch=1 n=f5 v=0
828171 On ch=1 n=d#5 v=101
828340 Par ch=1 c=64 v=0
829894 Par ch=1 c=64 v=127
830374 On ch=1 n=d#5 v=0
831680 Par ch=1 c=67 v=127
831800 On ch=1 n=d5 v=41
831951 On ch=1 n=d5 v=0
832768 Par ch=1 c=64 v=0
832791 On ch=1 n=d3 v=42
832799 On ch=1 n=g2 v=41
832799 On ch=1 n=d5 v=55
832799 On ch=1 n=d4 v=37
832803 On ch=1 n=g4 v=36
832803 On ch=1 n=a#2 v=35
832807 On ch=1 n=a#4 v=36
832807 On ch=1 n=g3 v=36
833024 Par ch=1 c=64 v=127
833076 On ch=1 n=g4 v=0
833076 On ch=1 n=d4 v=0
833076 On ch=1 n=g2 v=0
833079 On ch=1 n=g3 v=0
833079 On ch=1 n=a#4 v=0
833079 On ch=1 n=a#2 v=0
833136 On ch=1 n=d3 v=0
833455 On ch=1 n=d3 v=45
833474 On ch=1 n=g2 v=36
833474 On ch=1 n=a#2 v=36
833474 On ch=1 n=g4 v=35
833474 On ch=1 n=g3 v=36
833474 On ch=1 n=d4 v=36
833476 On ch=1 n=a#4 v=35
833787 On ch=1 n=g2 v=0
833791 On ch=1 n=a#4 v=0
833791 On ch=1 n=d4 v=0
833791 On ch=1 n=g3 v=0
833791 On ch=1 n=g4 v=0
833791 On ch=1 n=a#2 v=0
833791 On ch=1 n=d3 v=0
833811 On ch=1 n=d5 v=0
833967 On ch=1 n=d3 v=45
833974 On ch=1 n=d5 v=59
833980 On ch=1 n=a#2 v=36
833980 On ch=1 n=g4 v=35
833980 On ch=1 n=g2 v=36
833980 On ch=1 n=g3 v=36
833984 On ch=1 n=d4 v=35
833984 On ch=1 n=a#4 v=36
834243 On ch=1 n=g4 v=0
834243 On ch=1 n=a#2 v=0
834247 On ch=1 n=d4 v=0
834247 On ch=1 n=g3 v=0
834247 On ch=1 n=g2 v=0
834250 On ch=1 n=a#4 v=0
834250 On ch=1 n=d3 v=0
834500 On ch=1 n=d3 v=45
834515 On ch=1 n=a#2 v=33
834520 On ch=1 n=g2 v=33
834520 On ch=1 n=g3 v=32
834523 On ch=1 n=d4 v=32
834523 On ch=1 n=g4 v=33
834523 On ch=1 n=a#4 v=33
834767 On ch=1 n=g3 v=0
834767 On ch=1 n=g2 v=0
834767 On ch=1 n=a#2 v=0
834770 On ch=1 n=d4 v=0
834774 On ch=1 n=a#4 v=0
834774 On ch=1 n=g4 v=0
834776 On ch=1 n=d3 v=0
834955 On ch=1 n=d3 v=45
834967 On ch=1 n=g3 v=32
834967 On ch=1 n=a#2 v=32
834967 On ch=1 n=g2 v=33
834967 On ch=1 n=g4 v=33
834967 On ch=1 n=d4 v=33
834967 On ch=1 n=a#4 v=32
835207 On ch=1 n=d3 v=0
835211 On ch=1 n=g2 v=0
835211 On ch=1 n=a#2 v=0
835211 On ch=1 n=g3 v=0
835215 On ch=1 n=d4 v=0
835215 On ch=1 n=g4 v=0
835220 On ch=1 n=a#4 v=0
835290 On ch=1 n=d5 v=0
835423 On ch=1 n=d3 v=45
835444 On ch=1 n=d5 v=60
835444 On ch=1 n=g3 v=32
835444 On ch=1 n=g2 v=32
835444 On ch=1 n=d4 v=33
835451 On ch=1 n=a#2 v=32
835451 On ch=1 n=a#4 v=32
835451 On ch=1 n=g4 v=32
835674 On ch=1 n=d3 v=0
835694 On ch=1 n=g3 v=0
835700 On ch=1 n=a#4 v=0
835700 On ch=1 n=a#2 v=0
835700 On ch=1 n=d4 v=0
835700 On ch=1 n=g2 v=0
835704 On ch=1 n=g4 v=0
835704 On ch=1 n=d5 v=0
836016 On ch=1 n=d5 v=70
836019 On ch=1 n=d#4 v=56
836019 On ch=1 n=g4 v=53
836019 On ch=1 n=a#4 v=47
836019 Par ch=1 c=64 v=0
836023 On ch=1 n=d#3 v=38
836023 On ch=1 n=g2 v=41
836027 On ch=1 n=a#2 v=33
836027 On ch=1 n=g3 v=33
836207 Par ch=1 c=64 v=127
836227 Par ch=1 c=67 v=0
836256 On ch=1 n=a#4 v=0
836256 On ch=1 n=g4 v=0
836256 On ch=1 n=d#4 v=0
836260 On ch=1 n=g2 v=0
836260 On ch=1 n=d#3 v=0
836264 On ch=1 n=g3 v=0
836264 On ch=1 n=a#2 v=0
836484 On ch=1 n=d#4 v=38
836484 On ch=1 n=a#4 v=40
836488 On ch=1 n=g4 v=42
836488 On ch=1 n=g2 v=45
836491 On ch=1 n=a#2 v=50
836491 On ch=1 n=g3 v=51
836491 On ch=1 n=d#3 v=44
836543 On ch=1 n=d5 v=0
836607 On ch=1 n=d#5 v=72
836735 On ch=1 n=d#5 v=0
836799 On ch=1 n=a#2 v=0
836799 On ch=1 n=g2 v=0
836799 On ch=1 n=g4 v=0
836799 On ch=1 n=a#4 v=0
836799 On ch=1 n=d#4 v=0
836803 On ch=1 n=d#3 v=0
836803 On ch=1 n=g3 v=0
836907 On ch=1 n=a#2 v=46
836907 On ch=1 n=g3 v=44
836907 On ch=1 n=g4 v=51
836911 On ch=1 n=d#3 v=38
836911 On ch=1 n=g2 v=48
836911 On ch=1 n=a#4 v=44
836911 On ch=1 n=d#4 v=38
836921 On ch=1 n=d#5 v=80
837168 On ch=1 n=g3 v=0
837168 On ch=1 n=a#2 v=0
837172 On ch=1 n=g4 v=0
837176 On ch=1 n=d#3 v=0
837180 On ch=1 n=d#4 v=0
837180 On ch=1 n=a#4 v=0
837180 On ch=1 n=g2 v=0
837337 On ch=1 n=a#4 v=36
837337 On ch=1 n=g3 v=48
837337 On ch=1 n=d#3 v=48
837337 On ch=1 n=g2 v=52
837341 On ch=1 n=g4 v=37
837344 On ch=1 n=d#4 v=38
837344 On ch=1 n=a#2 v=58
837353 On ch=1 n=d#5 v=0
837604 On ch=1 n=g2 v=0
837604 On ch=1 n=d#3 v=0
837604 On ch=1 n=g3 v=0
837604 On ch=1 n=a#4 v=0
837612 On ch=1 n=a#2 v=0
837612 On ch=1 n=d#4 v=0
837612 On ch=1 n=g4 v=0
837781 On ch=1 n=g4 v=36
837781 On ch=1 n=g2 v=36
837781 On ch=1 n=d#4 v=36
837781 On ch=1 n=g3 v=44
837781 On ch=1 n=a#2 v=43
837784 On ch=1 n=a#4 v=30
837784 On ch=1 n=d#3 v=38
837984 On ch=1 n=d#4 v=0
837984 On ch=1 n=g2 v=0
837984 On ch=1 n=g4 v=0
837988 On ch=1 n=a#2 v=0
837988 On ch=1 n=g3 v=0
837991 On ch=1 n=d#3 v=0
837991 On ch=1 n=a#4 v=0
838261 On ch=1 n=g3 v=45
838261 On ch=1 n=a#2 v=40
838261 On ch=1 n=g2 v=43
838261 On ch=1 n=d#3 v=34
838265 On ch=1 n=g4 v=33
838265 On ch=1 n=d#4 v=33
838265 On ch=1 n=a#4 v=32
838473 On ch=1 n=g4 v=0
838473 On ch=1 n=d#3 v=0
838473 On ch=1 n=g2 v=0
838473 On ch=1 n=a#2 v=0
838473 On ch=1 n=g3 v=0
838477 On ch=1 n=a#4 v=0
838477 On ch=1 n=d#4 v=0
838800 On ch=1 n=g5 v=85
838800 On ch=1 n=g4 v=68
838804 On ch=1 n=g3 v=63
838804 On ch=1 n=b2 v=62
838807 On ch=1 n=g2 v=64
838807 On ch=1 n=d#3 v=60
838811 On ch=1 n=d#5 v=60
838811 On ch=1 n=b4 v=61
838844 Par ch=1 c=64 v=0
839053 Par ch=1 c=64 v=127
839113 On ch=1 n=g4 v=0
839121 On ch=1 n=b4 v=0
839121 On ch=1 n=d#5 v=0
839121 On ch=1 n=d#3 v=0
839121 On ch=1 n=g2 v=0
839121 On ch=1 n=b2 v=0
839121 On ch=1 n=g3 v=0
839284 On ch=1 n=d#5 v=54
839284 On ch=1 n=b2 v=50
839288 On ch=1 n=b4 v=49
839288 On ch=1 n=g3 v=60
839292 On ch=1 n=g4 v=58
839292 On ch=1 n=g2 v=59
839292 On ch=1 n=d#3 v=59
839371 On ch=1 n=g5 v=0
839504 On ch=1 n=b2 v=0
839504 On ch=1 n=d#5 v=0
839508 On ch=1 n=g3 v=0
839508 On ch=1 n=b4 v=0
839513 On ch=1 n=d#3 v=0
839513 On ch=1 n=g2 v=0
839513 On ch=1 n=g4 v=0
839693 On ch=1 n=g5 v=87
839693 On ch=1 n=g4 v=75
839693 On ch=1 n=g2 v=62
839693 On ch=1 n=d#3 v=57
839693 On ch=1 n=b4 v=68
839693 On ch=1 n=g3 v=57
839693 On ch=1 n=d#5 v=63
839693 On ch=1 n=b2 v=61
839932 On ch=1 n=b2 v=0
839932 On ch=1 n=g2 v=0
839932 On ch=1 n=g4 v=0
839933 On ch=1 n=d#5 v=0
839933 On ch=1 n=g3 v=0
839933 On ch=1 n=b4 v=0
839933 On ch=1 n=d#3 v=0
840097 On ch=1 n=b4 v=69
840097 On ch=1 n=g4 v=70
840097 On ch=1 n=d#5 v=65
840097 On ch=1 n=d#3 v=71
840097 On ch=1 n=g2 v=69
840101 On ch=1 n=g3 v=65
840101 On ch=1 n=b2 v=64
840231 On ch=1 n=d#5 v=0
840284 On ch=1 n=g4 v=0
840284 On ch=1 n=b4 v=0
840288 On ch=1 n=g3 v=0
840288 On ch=1 n=g2 v=0
840288 On ch=1 n=d#3 v=0
840292 On ch=1 n=b2 v=0
840472 On ch=1 n=b2 v=62
840472 On ch=1 n=b4 v=69
840472 On ch=1 n=d#3 v=66
840473 On ch=1 n=d#5 v=64
840473 On ch=1 n=g4 v=72
840473 On ch=1 n=g3 v=67
840473 On ch=1 n=g2 v=70
840592 On ch=1 n=g5 v=0
840653 On ch=1 n=b2 v=0
840660 On ch=1 n=g3 v=0
840660 On ch=1 n=g4 v=0
840660 On ch=1 n=d#5 v=0
840660 On ch=1 n=d#3 v=0
840660 On ch=1 n=b4 v=0
840664 On ch=1 n=g2 v=0
840848 On ch=1 n=g4 v=86
840848 On ch=1 n=b2 v=55
840852 On ch=1 n=b4 v=82
840852 On ch=1 n=g3 v=66
840860 On ch=1 n=g5 v=83
840860 On ch=1 n=d#5 v=75
840860 On ch=1 n=d#3 v=57
840860 On ch=1 n=g2 v=60
841011 On ch=1 n=g4 v=0
841017 On ch=1 n=g5 v=0
841017 On ch=1 n=g3 v=0
841017 On ch=1 n=b4 v=0
841017 On ch=1 n=b2 v=0
841028 On ch=1 n=d#3 v=0
841028 On ch=1 n=d#5 v=0
841032 On ch=1 n=g2 v=0
841233 On ch=1 n=g4 v=90
841233 On ch=1 n=g5 v=89
841237 On ch=1 n=g#3 v=80
841241 On ch=1 n=c3 v=73
841241 On ch=1 n=g2 v=74
841241 On ch=1 n=d#3 v=63
841241 On ch=1 n=c5 v=83
841241 On ch=1 n=d#5 v=79
841248 Par ch=1 c=64 v=0
841484 Par ch=1 c=64 v=127
841524 On ch=1 n=g4 v=0
841528 On ch=1 n=c3 v=0
841528 On ch=1 n=g#3 v=0
841532 On ch=1 n=d#5 v=0
841532 On ch=1 n=c5 v=0
841532 On ch=1 n=d#3 v=0
841532 On ch=1 n=g2 v=0
841644 On ch=1 n=c3 v=52
841644 On ch=1 n=g#3 v=74
841644 On ch=1 n=d#3 v=61
841644 On ch=1 n=d#5 v=60
841651 On ch=1 n=g2 v=67
841651 On ch=1 n=c5 v=51
841651 On ch=1 n=g4 v=46
841657 On ch=1 n=g5 v=0
841833 On ch=1 n=g#5 v=95
841948 On ch=1 n=g#5 v=0
841957 On ch=1 n=c3 v=0
841964 On ch=1 n=d#3 v=0
841964 On ch=1 n=g#3 v=0
841968 On ch=1 n=g4 v=0
841968 On ch=1 n=c5 v=0
841968 On ch=1 n=g2 v=0
841968 On ch=1 n=d#5 v=0
842048 On ch=1 n=c5 v=70
842048 On ch=1 n=d#5 v=77
842048 On ch=1 n=g2 v=71
842048 On ch=1 n=c3 v=59
842048 On ch=1 n=g#3 v=70
842052 On ch=1 n=g4 v=90
842053 On ch=1 n=d#3 v=61
842053 On ch=1 n=g#5 v=90
842072 Par ch=1 c=64 v=0
842231 Par ch=1 c=64 v=127
842332 On ch=1 n=g#3 v=0
842332 On ch=1 n=c3 v=0
842332 On ch=1 n=g2 v=0
842332 On ch=1 n=d#5 v=0
842332 On ch=1 n=c5 v=0
842333 On ch=1 n=d#3 v=0
842333 On ch=1 n=g4 v=0
842433 On ch=1 n=g4 v=72
842433 On ch=1 n=c3 v=36
842433 On ch=1 n=d#3 v=60
842433 On ch=1 n=g2 v=73
842433 On ch=1 n=c5 v=66
842440 On ch=1 n=d#5 v=74
842440 On ch=1 n=g#3 v=75
842597 On ch=1 n=d#5 v=0
842612 On ch=1 n=c5 v=0
842657 On ch=1 n=g4 v=0
842680 On ch=1 n=g#3 v=0
842732 On ch=1 n=g2 v=0
842736 On ch=1 n=c3 v=0
842751 On ch=1 n=d#3 v=0
842832 On ch=1 n=g#3 v=75
842840 On ch=1 n=g4 v=75
842840 On ch=1 n=d#5 v=74
842840 On ch=1 n=d#3 v=65
842840 On ch=1 n=c5 v=73
842844 On ch=1 n=g2 v=69
842844 On ch=1 n=c3 v=71
843020 On ch=1 n=d#5 v=0
843048 On ch=1 n=c5 v=0
843048 On ch=1 n=g4 v=0
843053 On ch=1 n=g#3 v=0
843084 On ch=1 n=d#3 v=0
843132 On ch=1 n=g2 v=0
843172 On ch=1 n=c3 v=0
843240 On ch=1 n=g4 v=71
843240 On ch=1 n=c3 v=52
843240 On ch=1 n=c5 v=66
843240 On ch=1 n=d#3 v=61
843240 On ch=1 n=g2 v=63
843244 On ch=1 n=g#3 v=65
843244 On ch=1 n=d#5 v=72
843304 On ch=1 n=g4 v=0
843308 On ch=1 n=c5 v=0
843317 On ch=1 n=d#3 v=0
843321 On ch=1 n=g#3 v=0
843328 On ch=1 n=d#5 v=0
843348 On ch=1 n=g2 v=0
843348 On ch=1 n=c3 v=0
843364 On ch=1 n=g#5 v=0
843728 On ch=1 n=c7 v=99
843731 On ch=1 n=g#6 v=92
843731 On ch=1 n=c6 v=103
843731 On ch=1 n=f6 v=93
843741 On ch=1 n=f3 v=94
843745 On ch=1 n=f2 v=94
843748 Par ch=1 c=64 v=0
843920 Par ch=1 c=64 v=127
843944 On ch=1 n=f3 v=0
843954 On ch=1 n=f2 v=0
844345 On ch=1 n=g#4 v=70
844345 On ch=1 n=f5 v=67
844345 On ch=1 n=c5 v=69
844349 On ch=1 n=g#5 v=71
844510 On ch=1 n=g#4 v=0
844514 On ch=1 n=g#5 v=0
844525 On ch=1 n=c5 v=0
844541 On ch=1 n=f5 v=0
844669 On ch=1 n=g#4 v=65
844669 On ch=1 n=c5 v=59
844669 On ch=1 n=f5 v=56
844669 On ch=1 n=g#5 v=68
844694 On ch=1 n=g#6 v=0
844714 On ch=1 n=f6 v=0
844741 On ch=1 n=c6 v=0
844785 On ch=1 n=g#5 v=0
844785 On ch=1 n=g#4 v=0
844808 On ch=1 n=c5 v=0
844848 On ch=1 n=f5 v=0
844869 On ch=1 n=c7 v=0
844937 On ch=1 n=c5 v=69
844937 On ch=1 n=g#4 v=62
844937 On ch=1 n=f5 v=66
844937 On ch=1 n=g#5 v=64
844949 On ch=1 n=c7 v=100
844957 On ch=1 n=c6 v=85
845082 On ch=1 n=g#5 v=0
845085 On ch=1 n=g#4 v=0
845085 On ch=1 n=c5 v=0
845110 On ch=1 n=f5 v=0
845125 On ch=1 n=c6 v=0
845222 On ch=1 n=c7 v=0
845305 On ch=1 n=g#4 v=66
845309 On ch=1 n=c5 v=69
845309 On ch=1 n=g#5 v=68
845309 On ch=1 n=f5 v=68
845309 On ch=1 n=c7 v=99
845309 On ch=1 n=c6 v=85
845405 On ch=1 n=c6 v=0
845465 On ch=1 n=g#4 v=0
845477 On ch=1 n=f5 v=0
845477 On ch=1 n=g#5 v=0
845477 On ch=1 n=c5 v=0
845497 On ch=1 n=c7 v=0
845857 On ch=1 n=c#7 v=100
845868 On ch=1 n=c#6 v=78
845925 On ch=1 n=c#6 v=0
845974 On ch=1 n=d#2 v=56
845985 On ch=1 n=c#7 v=0
845989 On ch=1 n=d#3 v=92
845990 On ch=1 n=a6 v=92
845993 On ch=1 n=c#6 v=91
845993 On ch=1 n=f#6 v=94
845993 On ch=1 n=c#7 v=105
846001 Par ch=1 c=64 v=0
846141 Par ch=1 c=64 v=127
846157 On ch=1 n=d#2 v=0
846161 On ch=1 n=d#3 v=0
846557 On ch=1 n=c5 v=58
846557 On ch=1 n=f#5 v=54
846557 On ch=1 n=a4 v=65
846561 On ch=1 n=a5 v=66
846689 On ch=1 n=a5 v=0
846689 On ch=1 n=a4 v=0
846722 On ch=1 n=f#5 v=0
846737 On ch=1 n=c5 v=0
846810 On ch=1 n=c#6 v=0
846824 On ch=1 n=f#6 v=0
846824 On ch=1 n=a6 v=0
846865 On ch=1 n=c5 v=73
846865 On ch=1 n=f#5 v=75
846870 On ch=1 n=a5 v=78
846874 On ch=1 n=a4 v=73
846877 On ch=1 n=c#7 v=0
846988 On ch=1 n=a4 v=0
846994 On ch=1 n=a5 v=0
847001 On ch=1 n=c5 v=0
847018 On ch=1 n=f#5 v=0
847149 On ch=1 n=a4 v=62
847149 On ch=1 n=a5 v=62
847149 On ch=1 n=c7 v=99
847149 On ch=1 n=c6 v=87
847150 On ch=1 n=c5 v=70
847150 On ch=1 n=f#5 v=69
847214 On ch=1 n=c6 v=0
847261 On ch=1 n=a4 v=0
847318 On ch=1 n=a5 v=0
847321 On ch=1 n=f#5 v=0
847330 On ch=1 n=c5 v=0
847333 On ch=1 n=c7 v=0
847490 On ch=1 n=f#5 v=66
847494 On ch=1 n=c5 v=66
847494 On ch=1 n=a5 v=66
847498 On ch=1 n=a4 v=68
847498 On ch=1 n=a#6 v=99
847498 On ch=1 n=a#7 v=100
847669 On ch=1 n=a4 v=0
847669 On ch=1 n=a5 v=0
847669 On ch=1 n=f#5 v=0
847677 On ch=1 n=c5 v=0
847765 On ch=1 n=a#6 v=0
847789 On ch=1 n=a#7 v=0
847838 On ch=1 n=a7 v=105
847838 On ch=1 n=a6 v=90
848042 On ch=1 n=a6 v=0
848058 On ch=1 n=a7 v=0
848101 Par ch=1 c=64 v=0
848148 On ch=1 n=d2 v=96
848148 On ch=1 n=d3 v=88
848148 On ch=1 n=g7 v=111
848150 On ch=1 n=g6 v=99
848258 Par ch=1 c=64 v=127
848269 On ch=1 n=d3 v=0
848269 On ch=1 n=d2 v=0
848297 On ch=1 n=g6 v=0
848329 On ch=1 n=g7 v=0
848589 On ch=1 n=f#7 v=100
848594 On ch=1 n=f#6 v=92
848594 On ch=1 n=a5 v=76
848594 On ch=1 n=c5 v=74
848598 On ch=1 n=f#5 v=66
848598 On ch=1 n=a4 v=70
848685 On ch=1 n=f#6 v=0
848730 On ch=1 n=a4 v=0
848741 On ch=1 n=a5 v=0
848745 On ch=1 n=c5 v=0
848778 On ch=1 n=f#5 v=0
848789 On ch=1 n=f#7 v=0
848882 On ch=1 n=f7 v=102
848882 On ch=1 n=f6 v=89
848882 On ch=1 n=f#5 v=70
848885 On ch=1 n=a4 v=80
848890 On ch=1 n=a5 v=80
848890 On ch=1 n=c5 v=79
848970 On ch=1 n=f6 v=0
849001 On ch=1 n=a4 v=0
849005 On ch=1 n=f7 v=0
849017 On ch=1 n=a5 v=0
849021 On ch=1 n=f#5 v=0
849028 On ch=1 n=c5 v=0
849105 On ch=1 n=f#7 v=100
849110 On ch=1 n=f#6 v=94
849113 On ch=1 n=a4 v=84
849113 On ch=1 n=f#5 v=86
849117 On ch=1 n=c5 v=79
849117 On ch=1 n=a5 v=90
849197 On ch=1 n=f#6 v=0
849201 On ch=1 n=a5 v=0
849237 On ch=1 n=a4 v=0
849241 On ch=1 n=f#5 v=0
849250 On ch=1 n=c5 v=0
849301 On ch=1 n=f#7 v=0
849325 On ch=1 n=g6 v=93
849325 On ch=1 n=g7 v=103
849325 On ch=1 n=a4 v=84
849329 On ch=1 n=c5 v=74
849329 On ch=1 n=f#5 v=76
849329 On ch=1 n=a5 v=97
849430 On ch=1 n=g6 v=0
849445 On ch=1 n=a5 v=0
849494 On ch=1 n=g7 v=0
849501 On ch=1 n=f#5 v=0
849501 On ch=1 n=a4 v=0
849505 On ch=1 n=c5 v=0
849614 On ch=1 n=g#7 v=102
849614 On ch=1 n=g#6 v=92
849778 On ch=1 n=g#6 v=0
849841 On ch=1 n=g#7 v=0
849945 On ch=1 n=a6 v=86
849950 On ch=1 n=a7 v=99
849965 On ch=1 n=a6 v=0
849981 Par ch=1 c=64 v=0
850005 On ch=1 n=a7 v=0
850030 On ch=1 n=c#3 v=100
850030 On ch=1 n=c#2 v=98
850061 On ch=1 n=a7 v=115
850061 On ch=1 n=a6 v=100
850093 On ch=1 n=c#2 v=0
850138 On ch=1 n=c#3 v=0
850145 Par ch=1 c=64 v=127
850493 On ch=1 n=f#5 v=65
850493 On ch=1 n=c#5 v=68
850501 On ch=1 n=a5 v=68
850501 On ch=1 n=a4 v=69
850601 On ch=1 n=a4 v=0
850617 On ch=1 n=a5 v=0
850617 On ch=1 n=c#5 v=0
850634 On ch=1 n=f#5 v=0
850742 On ch=1 n=c#5 v=75
850742 On ch=1 n=a4 v=76
850745 On ch=1 n=a5 v=80
850745 On ch=1 n=f#5 v=82
850755 On ch=1 n=a6 v=0
850778 On ch=1 n=a7 v=0
850842 On ch=1 n=a5 v=0
850842 On ch=1 n=a4 v=0
850851 On ch=1 n=f#5 v=0
850855 On ch=1 n=c#5 v=0
850994 On ch=1 n=f#5 v=80
850994 On ch=1 n=c#6 v=93
850994 On ch=1 n=a4 v=73
850998 On ch=1 n=a5 v=78
850998 On ch=1 n=c#5 v=72
850998 On ch=1 n=c#7 v=102
851038 On ch=1 n=c#6 v=0
851105 On ch=1 n=a4 v=0
851115 On ch=1 n=c#7 v=0
851115 On ch=1 n=a5 v=0
851122 On ch=1 n=c#5 v=0
851151 On ch=1 n=f#5 v=0
851335 On ch=1 n=b7 v=105
851335 On ch=1 n=b6 v=98
851335 On ch=1 n=f#5 v=82
851335 On ch=1 n=a5 v=82
851338 On ch=1 n=a4 v=76
851338 On ch=1 n=c#5 v=75
851487 On ch=1 n=a4 v=0
851498 On ch=1 n=c#5 v=0
851498 On ch=1 n=a5 v=0
851498 On ch=1 n=b6 v=0
851502 On ch=1 n=f#5 v=0
851566 On ch=1 n=b7 v=0
851650 On ch=1 n=a7 v=100
851665 On ch=1 n=a6 v=92
851730 On ch=1 n=a6 v=0
851778 On ch=1 n=a7 v=0
851914 Par ch=1 c=64 v=0
851938 On ch=1 n=g#7 v=108
851938 On ch=1 n=g#6 v=90
851942 On ch=1 n=c2 v=104
851942 On ch=1 n=c3 v=105
852058 On ch=1 n=c3 v=0
852058 On ch=1 n=c2 v=0
852146 On ch=1 n=g#6 v=0
852206 On ch=1 n=g#7 v=0
852282 On ch=1 n=f#6 v=100
852282 On ch=1 n=f#7 v=100
852386 On ch=1 n=f#6 v=0
852402 On ch=1 n=a4 v=84
852402 On ch=1 n=a5 v=88
852405 On ch=1 n=d5 v=83
852405 On ch=1 n=f#5 v=90
852446 On ch=1 n=f#7 v=0
852502 On ch=1 n=f6 v=91
852506 On ch=1 n=f7 v=100
852547 On ch=1 n=f#5 v=0
852547 On ch=1 n=a5 v=0
852554 On ch=1 n=d5 v=0
852554 On ch=1 n=a4 v=0
852565 On ch=1 n=f6 v=0
852647 On ch=1 n=f7 v=0
852658 On ch=1 n=f#5 v=93
852658 On ch=1 n=d5 v=87
852658 On ch=1 n=a5 v=88
852658 On ch=1 n=a4 v=88
852682 On ch=1 n=f#6 v=94
852682 On ch=1 n=f#7 v=106
852734 On ch=1 n=f#6 v=0
852745 On ch=1 n=a5 v=0
852766 On ch=1 n=a4 v=0
852770 On ch=1 n=d5 v=0
852778 On ch=1 n=f#5 v=0
852806 On ch=1 n=f#7 v=0
852822 On ch=1 n=g7 v=100
852827 On ch=1 n=g6 v=91
852882 On ch=1 n=g6 v=0
852901 On ch=1 n=f#5 v=96
852901 On ch=1 n=a4 v=88
852901 On ch=1 n=a5 v=90
852905 On ch=1 n=d5 v=83
852950 On ch=1 n=g7 v=0
852975 On ch=1 n=g#7 v=108
852975 On ch=1 n=g#6 v=92
852986 On ch=1 n=a5 v=0
853005 On ch=1 n=d5 v=0
853015 On ch=1 n=a4 v=0
853019 On ch=1 n=g#6 v=0
853031 On ch=1 n=f#5 v=0
853092 On ch=1 n=g#7 v=0
853104 On ch=1 n=a7 v=100
853104 On ch=1 n=a6 v=88
853119 On ch=1 n=f#5 v=90
853119 On ch=1 n=a4 v=88
853119 On ch=1 n=a5 v=88
853119 On ch=1 n=d5 v=85
853168 On ch=1 n=a6 v=0
853232 On ch=1 n=a7 v=0
853255 On ch=1 n=a5 v=0
853272 On ch=1 n=f#5 v=0
853272 On ch=1 n=a#7 v=109
853272 On ch=1 n=a#6 v=89
853279 On ch=1 n=d5 v=0
853304 On ch=1 n=a4 v=0
853323 On ch=1 n=a#6 v=0
853395 On ch=1 n=a#7 v=0
853411 On ch=1 n=b7 v=108
853415 On ch=1 n=b6 v=88
853459 On ch=1 n=b6 v=0
853539 On ch=1 n=b7 v=0
853539 On ch=1 n=c8 v=110
853539 On ch=1 n=c7 v=101
853543 On ch=1 n=b2 v=111
853543 On ch=1 n=b3 v=111
853579 On ch=1 n=c7 v=0
853588 On ch=1 n=b3 v=0
853595 On ch=1 n=b2 v=0
853611 On ch=1 n=c8 v=0
853615 Par ch=1 c=64 v=127
853942 On ch=1 n=f#5 v=69
853942 On ch=1 n=d#5 v=68
853944 On ch=1 n=a4 v=99
853955 On ch=1 n=c5 v=77
853955 On ch=1 n=a5 v=90
854067 On ch=1 n=a5 v=0
854082 On ch=1 n=f#5 v=0
854092 On ch=1 n=c5 v=0
854095 On ch=1 n=a4 v=0
854115 On ch=1 n=d#5 v=0
854215 On ch=1 n=d#4 v=99
854223 On ch=1 n=f#5 v=77
854223 On ch=1 n=a4 v=69
854223 On ch=1 n=d#5 v=77
854223 On ch=1 n=a5 v=69
854224 On ch=1 n=c5 v=69
854379 On ch=1 n=a4 v=0
854379 On ch=1 n=f#5 v=0
854383 On ch=1 n=c5 v=0
854383 On ch=1 n=a5 v=0
854383 On ch=1 n=d#5 v=0
854507 On ch=1 n=c5 v=59
854507 On ch=1 n=d#5 v=67
854507 On ch=1 n=a4 v=70
854507 On ch=1 n=f#5 v=75
854507 On ch=1 n=a5 v=73
854555 On ch=1 n=d#4 v=0
854632 On ch=1 n=a5 v=0
854643 On ch=1 n=a4 v=0
854644 On ch=1 n=c5 v=0
854648 On ch=1 n=f#5 v=0
854648 On ch=1 n=d#5 v=0
854771 On ch=1 n=a5 v=75
854771 On ch=1 n=f#5 v=70
854775 On ch=1 n=c5 v=76
854775 On ch=1 n=a4 v=69
854775 On ch=1 n=d#5 v=69
854875 On ch=1 n=a5 v=0
854879 On ch=1 n=d#5 v=0
854879 On ch=1 n=f#5 v=0
854883 On ch=1 n=a4 v=0
854888 On ch=1 n=c5 v=0
854999 On ch=1 n=c5 v=53
854999 On ch=1 n=a5 v=70
854999 On ch=1 n=a4 v=58
854999 On ch=1 n=f#5 v=70
854999 On ch=1 n=d#5 v=60
855104 On ch=1 n=a5 v=0
855111 On ch=1 n=c5 v=0
855143 On ch=1 n=e4 v=100
855151 On ch=1 n=f#5 v=0
855151 On ch=1 n=a4 v=0
855159 On ch=1 n=d#5 v=0
855219 On ch=1 n=e4 v=0
855224 Par ch=1 c=64 v=0
855252 On ch=1 n=g4 v=111
855252 On ch=1 n=a4 v=69
855252 On ch=1 n=c5 v=66
855252 On ch=1 n=a5 v=72
855255 On ch=1 n=f#5 v=62
855255 On ch=1 n=d#5 v=53
855351 On ch=1 n=a5 v=0
855355 On ch=1 n=d#5 v=0
855362 On ch=1 n=f#5 v=0
855364 On ch=1 n=c5 v=0
855364 Par ch=1 c=64 v=127
855379 On ch=1 n=a4 v=0
855495 On ch=1 n=a5 v=72
855499 On ch=1 n=f#5 v=76
855499 On ch=1 n=c5 v=69
855502 On ch=1 n=a4 v=59
855502 On ch=1 n=d#5 v=65
855588 On ch=1 n=a5 v=0
855602 On ch=1 n=d#5 v=0
855602 On ch=1 n=f#5 v=0
855608 On ch=1 n=c5 v=0
855635 On ch=1 n=a4 v=0
855699 On ch=1 n=a4 v=70
855699 On ch=1 n=c5 v=66
855699 On ch=1 n=f#5 v=76
855699 On ch=1 n=a5 v=73
855699 On ch=1 n=d#5 v=65
855804 On ch=1 n=d#5 v=0
855804 On ch=1 n=a5 v=0
855808 On ch=1 n=f#5 v=0
855815 On ch=1 n=f#4 v=88
855836 On ch=1 n=d#4 v=88
855839 On ch=1 n=c5 v=0
855851 On ch=1 n=g4 v=0
855861 On ch=1 n=a4 v=0
855861 On ch=1 n=c4 v=82
855865 On ch=1 n=f#5 v=70
855865 On ch=1 n=d#5 v=66
855865 On ch=1 n=a5 v=66
855869 On ch=1 n=c5 v=66
855869 On ch=1 n=a4 v=66
855913 On ch=1 n=a3 v=89
855925 On ch=1 n=f#4 v=0
855940 On ch=1 n=d#4 v=0
855952 On ch=1 n=c4 v=0
855985 On ch=1 n=a3 v=0
855996 On ch=1 n=f#3 v=88
856029 On ch=1 n=f#5 v=0
856032 On ch=1 n=c5 v=0
856032 On ch=1 n=a5 v=0
856036 On ch=1 n=a4 v=0
856041 On ch=1 n=d#5 v=0
856072 On ch=1 n=d#3 v=82
856133 Par ch=1 c=64 v=0
856161 On ch=1 n=b2 v=109
856161 On ch=1 n=a4 v=77
856161 On ch=1 n=c5 v=77
856165 On ch=1 n=f#3 v=0
856165 On ch=1 n=d#5 v=77
856165 On ch=1 n=f#5 v=77
856165 On ch=1 n=a5 v=77
856252 On ch=1 n=d#3 v=0
856268 Par ch=1 c=64 v=127
856278 On ch=1 n=b2 v=0
856305 On ch=1 n=a5 v=0
856305 On ch=1 n=f#5 v=0
856305 On ch=1 n=d#5 v=0
856305 On ch=1 n=a4 v=0
856309 On ch=1 n=c5 v=0
856518 On ch=1 n=a4 v=66
856521 On ch=1 n=a5 v=64
856521 On ch=1 n=c5 v=55
856525 On ch=1 n=f#5 v=58
856525 On ch=1 n=d#5 v=54
856597 On ch=1 n=a5 v=0
856626 On ch=1 n=d#5 v=0
856626 On ch=1 n=f#5 v=0
856650 On ch=1 n=c5 v=0
856669 On ch=1 n=a4 v=0
856921 On ch=1 n=c7 v=97
856921 On ch=1 n=c6 v=89
856969 On ch=1 n=c7 v=0
856981 On ch=1 n=c6 v=0
857045 On ch=1 n=c7 v=120
857045 On ch=1 n=c6 v=120
857049 Par ch=1 c=64 v=0
857049 On ch=1 n=a#3 v=115
857049 On ch=1 n=a#2 v=115
857226 Par ch=1 c=64 v=127
857253 On ch=1 n=a#2 v=0
857289 On ch=1 n=a#3 v=0
857597 On ch=1 n=a#4 v=54
857601 On ch=1 n=f#4 v=50
857601 On ch=1 n=d#5 v=48
857601 On ch=1 n=f#5 v=66
857698 On ch=1 n=f#5 v=0
857705 On ch=1 n=f#4 v=0
857717 On ch=1 n=a#4 v=0
857736 On ch=1 n=d#5 v=0
857736 On ch=1 n=c6 v=0
857742 On ch=1 n=c7 v=0
857876 On ch=1 n=f#4 v=50
857876 On ch=1 n=f#5 v=59
857890 On ch=1 n=a#4 v=56
857890 On ch=1 n=d#5 v=55
857941 On ch=1 n=f#4 v=0
857966 On ch=1 n=f#5 v=0
857977 On ch=1 n=d#5 v=0
857977 On ch=1 n=a#4 v=0
858138 On ch=1 n=a#5 v=82
858138 On ch=1 n=a#4 v=53
858138 On ch=1 n=a#6 v=95
858142 On ch=1 n=f#5 v=50
858142 On ch=1 n=d#5 v=51
858142 On ch=1 n=f#4 v=59
858209 On ch=1 n=f#4 v=0
858249 On ch=1 n=a#5 v=0
858252 On ch=1 n=a#4 v=0
858256 On ch=1 n=f#5 v=0
858266 On ch=1 n=a#6 v=0
858305 On ch=1 n=d#5 v=0
858457 On ch=1 n=d#5 v=53
858457 On ch=1 n=f#5 v=57
858457 On ch=1 n=a#4 v=55
858458 On ch=1 n=g#6 v=82
858458 On ch=1 n=g#7 v=100
858458 On ch=1 n=f#4 v=55
858589 On ch=1 n=f#4 v=0
858605 On ch=1 n=g#6 v=0
858605 On ch=1 n=f#5 v=0
858615 On ch=1 n=a#4 v=0
858626 On ch=1 n=d#5 v=0
858670 On ch=1 n=g#7 v=0
858810 On ch=1 n=d#5 v=49
858810 On ch=1 n=a#4 v=55
858814 On ch=1 n=f#5 v=52
858814 On ch=1 n=f#6 v=80
858814 On ch=1 n=f#7 v=96
858814 On ch=1 n=f#4 v=47
858902 On ch=1 n=f#6 v=0
858913 On ch=1 n=f#4 v=0
858930 On ch=1 n=f#5 v=0
858946 On ch=1 n=a#4 v=0
858956 On ch=1 n=d#5 v=0
858984 On ch=1 n=f#7 v=0
859092 On ch=1 n=a#4 v=55
859092 On ch=1 n=f#5 v=51
859096 On ch=1 n=f#4 v=49
859096 On ch=1 n=f6 v=79
859096 On ch=1 n=f7 v=95
859096 On ch=1 n=d#5 v=53
859167 On ch=1 n=f6 v=0
859210 On ch=1 n=f7 v=0
859210 On ch=1 n=f#4 v=0
859231 On ch=1 n=f#5 v=0
859247 On ch=1 n=d#5 v=0
859257 On ch=1 n=a#4 v=0
859347 On ch=1 n=d#6 v=86
859353 On ch=1 n=d#7 v=92
859407 On ch=1 n=d#5 v=57
859413 On ch=1 n=a#4 v=58
859413 On ch=1 n=f#5 v=55
859413 On ch=1 n=f#4 v=54
859440 On ch=1 n=d#6 v=0
859500 On ch=1 n=d#7 v=0
859528 On ch=1 n=f#4 v=0
859564 On ch=1 n=f#5 v=0
859564 On ch=1 n=d7 v=97
859564 On ch=1 n=d6 v=75
859573 On ch=1 n=a#4 v=0
859597 On ch=1 n=d#5 v=0
859640 On ch=1 n=d6 v=0
859688 On ch=1 n=d7 v=0
859748 On ch=1 n=d#5 v=62
859752 On ch=1 n=a#4 v=60
859752 On ch=1 n=f#5 v=57
859752 On ch=1 n=f#4 v=55
859764 On ch=1 n=d#6 v=84
859764 On ch=1 n=d#7 v=92
859840 On ch=1 n=f#4 v=0
859843 On ch=1 n=d#6 v=0
859864 On ch=1 n=f#5 v=0
859884 On ch=1 n=a#4 v=0
859884 On ch=1 n=d#5 v=0
859893 On ch=1 n=d#7 v=0
859933 On ch=1 n=e6 v=76
859933 On ch=1 n=e7 v=92
859972 On ch=1 n=e6 v=0
860077 On ch=1 n=d#5 v=54
860084 On ch=1 n=f#5 v=56
860084 On ch=1 n=a#4 v=56
860084 On ch=1 n=f#4 v=50
860088 On ch=1 n=e7 v=0
860088 On ch=1 n=f7 v=93
860088 On ch=1 n=f6 v=78
860120 On ch=1 n=f#4 v=0
860129 On ch=1 n=f6 v=0
860133 On ch=1 n=a#4 v=0
860140 On ch=1 n=f#5 v=0
860204 On ch=1 n=f#6 v=77
860204 On ch=1 n=f#7 v=92
860209 On ch=1 n=f7 v=0
860221 On ch=1 n=d#5 v=0
860228 On ch=1 n=f#6 v=0
860273 On ch=1 n=f#7 v=0
860312 On ch=1 n=g#7 v=96
860312 On ch=1 n=g#6 v=78
860333 On ch=1 n=f#5 v=58
860340 On ch=1 n=d#5 v=62
860340 On ch=1 n=a#4 v=58
860344 On ch=1 n=f#4 v=54
860356 On ch=1 n=g#6 v=0
860373 On ch=1 n=f#4 v=0
860373 On ch=1 n=a#4 v=0
860377 On ch=1 n=f#5 v=0
860404 On ch=1 n=d#5 v=0
860428 On ch=1 n=a7 v=94
860429 On ch=1 n=a6 v=67
860441 On ch=1 n=g#7 v=0
860448 On ch=1 n=a6 v=0
860500 On ch=1 n=f#5 v=55
860500 On ch=1 n=f#4 v=59
860500 On ch=1 n=d#5 v=48
860504 On ch=1 n=a#4 v=55
860528 On ch=1 n=f#5 v=0
860532 On ch=1 n=a#7 v=96
860540 On ch=1 n=a#4 v=0
860540 On ch=1 n=d#5 v=0
860544 On ch=1 n=a#6 v=81
860547 On ch=1 n=a7 v=0
860557 On ch=1 n=f#4 v=0
860577 On ch=1 n=a#6 v=0
860646 On ch=1 n=a#7 v=0
860646 On ch=1 n=b7 v=87
860646 On ch=1 n=b6 v=77
860650 Par ch=1 c=64 v=0
860677 On ch=1 n=b6 v=0
860710 On ch=1 n=b7 v=0
860725 On ch=1 n=b2 v=117
860725 On ch=1 n=c8 v=117
860725 On ch=1 n=b3 v=117
860725 On ch=1 n=c7 v=118
860757 On ch=1 n=b3 v=0
860761 On ch=1 n=b2 v=0
860766 On ch=1 n=c7 v=0
860774 On ch=1 n=c8 v=0
860789 Par ch=1 c=64 v=127
861081 On ch=1 n=d#5 v=66
861093 On ch=1 n=c5 v=74
861101 On ch=1 n=f#5 v=76
861101 On ch=1 n=a4 v=82
861101 On ch=1 n=a5 v=90
861190 On ch=1 n=d#5 v=0
861205 On ch=1 n=a5 v=0
861206 On ch=1 n=f#5 v=0
861221 On ch=1 n=c5 v=0
861237 On ch=1 n=a4 v=0
861353 On ch=1 n=a4 v=65
861353 On ch=1 n=f#5 v=66
861353 On ch=1 n=d#4 v=119
861357 On ch=1 n=c5 v=76
861357 On ch=1 n=a5 v=69
861357 On ch=1 n=d#5 v=67
861429 On ch=1 n=a5 v=0
861450 On ch=1 n=a4 v=0
861480 On ch=1 n=d#5 v=0
861486 On ch=1 n=c5 v=0
861493 On ch=1 n=f#5 v=0
861577 On ch=1 n=d#4 v=0
861634 On ch=1 n=a4 v=69
861634 On ch=1 n=f#5 v=78
861634 On ch=1 n=d#5 v=75
861634 On ch=1 n=c5 v=76
861637 On ch=1 n=a5 v=76
861741 On ch=1 n=a5 v=0
861769 On ch=1 n=c5 v=0
861769 On ch=1 n=f#5 v=0
861773 On ch=1 n=d#5 v=0
861784 On ch=1 n=a4 v=0
861901 On ch=1 n=f#5 v=84
861901 On ch=1 n=a5 v=76
861901 On ch=1 n=c5 v=73
861905 On ch=1 n=a4 v=69
861905 On ch=1 n=d#5 v=75
861985 On ch=1 n=a5 v=0
862014 On ch=1 n=a4 v=0
862017 On ch=1 n=f#5 v=0
862027 On ch=1 n=d#5 v=0
862038 On ch=1 n=c5 v=0
862103 On ch=1 n=c5 v=66
862103 On ch=1 n=f#5 v=76
862103 On ch=1 n=d#5 v=63
862107 On ch=1 n=a4 v=63
862107 On ch=1 n=a5 v=75
862214 On ch=1 n=a5 v=0
862217 On ch=1 n=a4 v=0
862247 On ch=1 n=e4 v=109
862251 On ch=1 n=c5 v=0
862258 On ch=1 n=f#5 v=0
862262 On ch=1 n=d#5 v=0
862323 On ch=1 n=e4 v=0
862350 On ch=1 n=a4 v=82
862350 On ch=1 n=c5 v=71
862350 On ch=1 n=a5 v=80
862354 On ch=1 n=f#5 v=76
862354 On ch=1 n=g4 v=111
862354 On ch=1 n=d#5 v=71
862364 Par ch=1 c=64 v=0
862451 On ch=1 n=a5 v=0
862455 On ch=1 n=d#5 v=0
862467 On ch=1 n=f#5 v=0
862484 On ch=1 n=a4 v=0
862495 On ch=1 n=c5 v=0
862495 Par ch=1 c=64 v=127
862598 On ch=1 n=f#5 v=84
862600 On ch=1 n=a5 v=80
862600 On ch=1 n=c5 v=73
862600 On ch=1 n=d#5 v=74
862600 On ch=1 n=a4 v=65
862711 On ch=1 n=d#5 v=0
862711 On ch=1 n=a5 v=0
862711 On ch=1 n=f#5 v=0
862731 On ch=1 n=c5 v=0
862739 On ch=1 n=a4 v=0
862787 On ch=1 n=c5 v=51
862787 On ch=1 n=f#5 v=76
862787 On ch=1 n=a4 v=69
862787 On ch=1 n=d#5 v=65
862791 On ch=1 n=a5 v=72
862843 On ch=1 n=f#4 v=73
862891 On ch=1 n=d#4 v=80
862919 On ch=1 n=a5 v=0
862919 On ch=1 n=c5 v=0
862928 On ch=1 n=d#5 v=0
862935 On ch=1 n=f#5 v=0
862935 On ch=1 n=g4 v=0
862940 On ch=1 n=a4 v=0
862958 On ch=1 n=f#4 v=0
862968 On ch=1 n=d#4 v=0
862975 On ch=1 n=c4 v=69
862985 On ch=1 n=d#5 v=48
862985 On ch=1 n=a5 v=57
862985 On ch=1 n=a4 v=66
862988 On ch=1 n=f#5 v=59
862988 On ch=1 n=c5 v=65
862992 On ch=1 n=a3 v=82
863056 On ch=1 n=a3 v=0
863056 On ch=1 n=c4 v=0
863096 On ch=1 n=f#3 v=75
863152 On ch=1 n=d#3 v=80
863181 On ch=1 n=f#3 v=0
863228 Par ch=1 c=64 v=0
863248 On ch=1 n=b2 v=96
863272 On ch=1 n=d#3 v=0
863281 On ch=1 n=c5 v=0
863296 On ch=1 n=a4 v=0
863337 On ch=1 n=d#5 v=0
863352 On ch=1 n=b2 v=0
863352 On ch=1 n=f#5 v=0
863352 On ch=1 n=a5 v=0
863368 Par ch=1 c=64 v=127
863595 On ch=1 n=a4 v=59
863595 On ch=1 n=a5 v=62
863605 On ch=1 n=f#5 v=61
863605 On ch=1 n=d#5 v=60
863605 On ch=1 n=c5 v=60
863675 On ch=1 n=a5 v=0
863692 On ch=1 n=f#5 v=0
863697 On ch=1 n=d#5 v=0
863705 On ch=1 n=c5 v=0
863712 On ch=1 n=a4 v=0
863908 On ch=1 n=c6 v=85
863908 On ch=1 n=c7 v=85
863965 On ch=1 n=c7 v=0
863965 On ch=1 n=c6 v=0
863997 On ch=1 n=a#3 v=108
863997 On ch=1 n=a#2 v=100
864012 Par ch=1 c=64 v=0
864012 On ch=1 n=c7 v=120
864012 On ch=1 n=c6 v=120
864121 On ch=1 n=a#2 v=0
864132 Par ch=1 c=64 v=127
864136 On ch=1 n=a#3 v=0
864437 On ch=1 n=a#4 v=66
864437 On ch=1 n=d#5 v=68
864437 On ch=1 n=f#5 v=75
864441 On ch=1 n=f#4 v=62
864552 On ch=1 n=f#4 v=0
864552 On ch=1 n=f#5 v=0
864555 On ch=1 n=c7 v=0
864561 On ch=1 n=c6 v=0
864569 On ch=1 n=d#5 v=0
864569 On ch=1 n=a#4 v=0
864664 On ch=1 n=f#5 v=84
864668 On ch=1 n=d#5 v=79
864668 On ch=1 n=a#4 v=73
864668 On ch=1 n=f#4 v=76
864761 On ch=1 n=f#4 v=0
864761 On ch=1 n=f#5 v=0
864775 On ch=1 n=d#5 v=0
864792 On ch=1 n=a#4 v=0
864877 On ch=1 n=f#5 v=73
864880 On ch=1 n=d#5 v=72
864880 On ch=1 n=a#5 v=93
864891 On ch=1 n=a#6 v=97
864891 On ch=1 n=a#4 v=65
864891 On ch=1 n=f#4 v=73
864928 On ch=1 n=a#5 v=0
864964 On ch=1 n=f#4 v=0
864968 On ch=1 n=a#6 v=0
865000 On ch=1 n=f#5 v=0
865012 On ch=1 n=a#4 v=0
865017 On ch=1 n=d#5 v=0
865145 On ch=1 n=d#5 v=87
865145 On ch=1 n=f#5 v=86
865145 On ch=1 n=a#4 v=81
865148 On ch=1 n=f#4 v=80
865148 On ch=1 n=g#6 v=98
865148 On ch=1 n=g#7 v=104
865228 On ch=1 n=g#7 v=0
865238 On ch=1 n=g#6 v=0
865253 On ch=1 n=f#4 v=0
865298 On ch=1 n=a#4 v=0
865298 On ch=1 n=f#5 v=0
865321 On ch=1 n=d#5 v=0
865437 On ch=1 n=f#5 v=78
865437 On ch=1 n=d#5 v=79
865437 On ch=1 n=a#4 v=74
865437 On ch=1 n=f#4 v=73
865441 On ch=1 n=f#7 v=100
865441 On ch=1 n=f#6 v=97
865502 On ch=1 n=f#6 v=0
865513 On ch=1 n=f#7 v=0
865545 On ch=1 n=f#4 v=0
865565 On ch=1 n=f#5 v=0
865585 On ch=1 n=a#4 v=0
865589 On ch=1 n=d#5 v=0
865694 On ch=1 n=d#5 v=92
865694 On ch=1 n=f7 v=97
865697 On ch=1 n=f6 v=93
865697 On ch=1 n=f#4 v=84
865697 On ch=1 n=f#5 v=90
865697 On ch=1 n=a#4 v=85
865745 On ch=1 n=f7 v=0
865752 On ch=1 n=f6 v=0
865833 On ch=1 n=f#4 v=0
865865 On ch=1 n=a#4 v=0
865865 On ch=1 n=f#5 v=0
865894 On ch=1 n=d#7 v=90
865898 On ch=1 n=d#6 v=90
865902 On ch=1 n=d#5 v=0
865932 On ch=1 n=d#6 v=0
865932 On ch=1 n=d#7 v=0
866021 On ch=1 n=d#5 v=87
866021 On ch=1 n=f#5 v=90
866021 On ch=1 n=a#4 v=85
866025 On ch=1 n=f#4 v=84
866025 On ch=1 n=d6 v=92
866029 On ch=1 n=d7 v=93
866081 On ch=1 n=d7 v=0
866081 On ch=1 n=d6 v=0
866141 On ch=1 n=f#4 v=0
866151 On ch=1 n=f#5 v=0
866159 On ch=1 n=d#5 v=0
866166 On ch=1 n=a#4 v=0
866166 On ch=1 n=d#7 v=95
866166 On ch=1 n=d#6 v=92
866211 On ch=1 n=d#6 v=0
866215 On ch=1 n=d#7 v=0
866275 On ch=1 n=d#5 v=89
866278 On ch=1 n=f#5 v=88
866278 On ch=1 n=f#4 v=84
866278 On ch=1 n=e6 v=92
866282 On ch=1 n=a#4 v=83
866282 On ch=1 n=e7 v=88
866323 On ch=1 n=e7 v=0
866330 On ch=1 n=e6 v=0
866379 On ch=1 n=f#4 v=0
866379 On ch=1 n=f#5 v=0
866382 On ch=1 n=d#5 v=0
866386 On ch=1 n=a#4 v=0
866410 On ch=1 n=f6 v=85
866410 On ch=1 n=f7 v=76
866438 On ch=1 n=f7 v=0
866442 On ch=1 n=f6 v=0
866518 On ch=1 n=d#5 v=83
866518 On ch=1 n=f#5 v=84
866518 On ch=1 n=f#6 v=94
866518 On ch=1 n=f#4 v=72
866518 On ch=1 n=f#7 v=90
866522 On ch=1 n=a#4 v=76
866571 On ch=1 n=f#4 v=0
866571 On ch=1 n=f#6 v=0
866582 On ch=1 n=f#5 v=0
866586 On ch=1 n=a#4 v=0
866586 On ch=1 n=f#7 v=0
866590 On ch=1 n=d#5 v=0
866631 On ch=1 n=g6 v=83
866631 On ch=1 n=g7 v=81
866678 On ch=1 n=g7 v=0
866682 On ch=1 n=g6 v=0
866742 On ch=1 n=f#5 v=82
866750 On ch=1 n=d#5 v=83
866750 On ch=1 n=f#4 v=72
866750 On ch=1 n=a#4 v=74
866750 On ch=1 n=g#7 v=95
866751 On ch=1 n=g#6 v=92
866811 On ch=1 n=g#6 v=0
866811 On ch=1 n=g#7 v=0
866814 On ch=1 n=f#4 v=0
866825 On ch=1 n=d#5 v=0
866842 On ch=1 n=a#4 v=0
866842 On ch=1 n=f#5 v=0
866878 On ch=1 n=a6 v=88
866878 On ch=1 n=a7 v=92
866915 On ch=1 n=a6 v=0
866929 On ch=1 n=a7 v=0
866962 On ch=1 n=f#5 v=80
866962 On ch=1 n=d#5 v=72
866966 On ch=1 n=f#4 v=64
866966 On ch=1 n=a#4 v=67
866966 On ch=1 n=a#7 v=104
866966 On ch=1 n=a#6 v=94
867002 On ch=1 n=f#5 v=0
867006 On ch=1 n=d#5 v=0
867009 On ch=1 n=a#4 v=0
867015 On ch=1 n=a#6 v=0
867022 On ch=1 n=a#7 v=0
867051 On ch=1 n=f#4 v=0
867135 On ch=1 n=b7 v=95
867135 On ch=1 n=b6 v=88
867178 On ch=1 n=b6 v=0
867186 On ch=1 n=b7 v=0
867229 Par ch=1 c=64 v=0
867246 On ch=1 n=c7 v=113
867250 On ch=1 n=c8 v=113
867258 On ch=1 n=a3 v=119
867258 On ch=1 n=a2 v=119
867306 On ch=1 n=a3 v=0
867351 On ch=1 n=a2 v=0
867351 Par ch=1 c=64 v=127
867662 On ch=1 n=d#5 v=68
867662 On ch=1 n=c5 v=87
867670 On ch=1 n=c6 v=91
867670 On ch=1 n=f#5 v=88
867808 On ch=1 n=c5 v=0
867823 On ch=1 n=c6 v=0
867843 On ch=1 n=d#5 v=0
867847 On ch=1 n=f#5 v=0
867948 On ch=1 n=c6 v=87
867959 On ch=1 n=c5 v=77
867959 On ch=1 n=d#5 v=81
867959 On ch=1 n=f#5 v=82
868111 On ch=1 n=c5 v=0
868115 On ch=1 n=c6 v=0
868119 On ch=1 n=d#5 v=0
868136 On ch=1 n=f#5 v=0
868223 On ch=1 n=c6 v=83
868226 On ch=1 n=f#5 v=72
868236 On ch=1 n=d#5 v=69
868236 On ch=1 n=c5 v=64
868240 On ch=1 n=c8 v=0
868267 On ch=1 n=c6 v=0
868299 On ch=1 n=f#5 v=0
868303 On ch=1 n=c5 v=0
868308 On ch=1 n=d#5 v=0
868375 On ch=1 n=c7 v=0
868468 Par ch=1 c=64 v=0
868483 On ch=1 n=c7 v=115
868487 On ch=1 n=c8 v=115
868487 On ch=1 n=f#7 v=115
868487 On ch=1 n=d#7 v=115
868496 On ch=1 n=g#2 v=113
868496 On ch=1 n=g#3 v=113
868551 On ch=1 n=g#2 v=0
868579 On ch=1 n=g#3 v=0
868587 Par ch=1 c=64 v=127
868895 On ch=1 n=c5 v=79
868899 On ch=1 n=c6 v=89
868899 On ch=1 n=d#5 v=85
868908 On ch=1 n=f#5 v=86
869060 On ch=1 n=f#5 v=0
869060 On ch=1 n=c6 v=0
869067 On ch=1 n=c5 v=0
869075 On ch=1 n=d#5 v=0
869207 On ch=1 n=c5 v=85
869207 On ch=1 n=d#5 v=79
869207 On ch=1 n=c6 v=89
869212 On ch=1 n=f#5 v=84
869315 On ch=1 n=f#7 v=0
869343 On ch=1 n=c5 v=0
869343 On ch=1 n=d#7 v=0
869359 On ch=1 n=c6 v=0
869375 On ch=1 n=d#5 v=0
869385 On ch=1 n=f#5 v=0
869412 On ch=1 n=c7 v=0
869429 On ch=1 n=c8 v=0
869489 On ch=1 n=c5 v=74
869493 On ch=1 n=c6 v=83
869500 On ch=1 n=d#5 v=74
869509 On ch=1 n=f#5 v=80
869540 On ch=1 n=c6 v=0
869565 On ch=1 n=f#5 v=0
869569 On ch=1 n=c5 v=0
869572 On ch=1 n=d#5 v=0
869784 Par ch=1 c=64 v=0
869800 On ch=1 n=e7 v=117
869800 On ch=1 n=g7 v=117
869800 On ch=1 n=c7 v=117
869804 On ch=1 n=c8 v=117
869816 On ch=1 n=g2 v=115
869816 On ch=1 n=g3 v=115
869863 Par ch=1 c=64 v=127
869877 On ch=1 n=g3 v=0
869920 On ch=1 n=g2 v=0
870304 On ch=1 n=g5 v=85
870304 On ch=1 n=c5 v=87
870305 On ch=1 n=c6 v=89
870313 On ch=1 n=e5 v=73
870336 On ch=1 n=c8 v=0
870348 On ch=1 n=c7 v=0
870412 On ch=1 n=c6 v=0
870420 On ch=1 n=g5 v=0
870425 On ch=1 n=e7 v=0
870456 On ch=1 n=e5 v=0
870465 On ch=1 n=g7 v=0
870469 On ch=1 n=c5 v=0
870709 Par ch=1 c=64 v=0
870709 On ch=1 n=a#7 v=119
870712 On ch=1 n=c#7 v=119
870712 On ch=1 n=e7 v=119
870716 On ch=1 n=c#8 v=119
870720 On ch=1 n=g3 v=117
870725 On ch=1 n=g2 v=117
870843 Par ch=1 c=64 v=127
870872 On ch=1 n=g2 v=0
870872 On ch=1 n=g3 v=0
871245 On ch=1 n=a#5 v=93
871249 On ch=1 n=c#5 v=88
871249 On ch=1 n=c#6 v=99
871260 On ch=1 n=e5 v=79
871348 On ch=1 n=a#7 v=0
871396 On ch=1 n=c#8 v=0
871396 On ch=1 n=c#7 v=0
871413 On ch=1 n=c#6 v=0
871413 On ch=1 n=a#5 v=0
871413 On ch=1 n=e7 v=0
871460 On ch=1 n=e5 v=0
871472 On ch=1 n=c#5 v=0
871904 On ch=1 n=c#7 v=119
871904 On ch=1 n=d#7 v=119
871904 On ch=1 n=c#8 v=120
871905 On ch=1 n=g#7 v=119
871905 On ch=1 n=g#3 v=119
871908 On ch=1 n=g#2 v=119
871912 Par ch=1 c=64 v=0
872056 Par ch=1 c=64 v=127
872113 On ch=1 n=g#2 v=0
872128 On ch=1 n=g#3 v=0
872236 On ch=1 n=c#8 v=0
872265 On ch=1 n=g#7 v=0
872329 On ch=1 n=c#7 v=0
872489 On ch=1 n=c#6 v=101
872496 On ch=1 n=c#5 v=88
872496 On ch=1 n=g#5 v=90
872496 On ch=1 n=d#5 v=83
872909 On ch=1 n=d#7 v=0
872932 On ch=1 n=c#5 v=0
872964 On ch=1 n=c#6 v=0
872988 On ch=1 n=b7 v=120
872988 On ch=1 n=b6 v=120
873003 On ch=1 n=g#5 v=0
873316 On ch=1 n=d#5 v=0
873392 On ch=1 n=b4 v=120
873392 On ch=1 n=b5 v=120
873409 On ch=1 n=b7 v=0
873443 On ch=1 n=b6 v=0
873469 On ch=1 n=b5 v=0
873512 On ch=1 n=b4 v=0
873760 Par ch=1 c=64 v=0
873772 On ch=1 n=a#6 v=120
873776 On ch=1 n=a#7 v=120
873783 On ch=1 n=f#7 v=120
873783 On ch=1 n=a#3 v=120
873785 On ch=1 n=c#7 v=120
873785 On ch=1 n=a#2 v=120
873864 On ch=1 n=a#2 v=0
873884 On ch=1 n=a#3 v=0
873885 Par ch=1 c=64 v=127
874200 On ch=1 n=a#5 v=90
874212 On ch=1 n=f#5 v=88
874216 On ch=1 n=a#4 v=83
874216 On ch=1 n=c#5 v=82
874292 On ch=1 n=c#7 v=0
874309 On ch=1 n=a#5 v=0
874316 On ch=1 n=a#6 v=0
874320 On ch=1 n=f#5 v=0
874336 On ch=1 n=f#7 v=0
874339 On ch=1 n=c#5 v=0
874339 On ch=1 n=a#7 v=0
874356 On ch=1 n=a#4 v=0
874592 Par ch=1 c=64 v=0
874624 On ch=1 n=f#7 v=120
874628 On ch=1 n=a#6 v=120
874628 On ch=1 n=d#7 v=120
874628 On ch=1 n=a#7 v=123
874632 On ch=1 n=b3 v=120
874639 On ch=1 n=b2 v=120
874720 Par ch=1 c=64 v=127
874793 On ch=1 n=b2 v=0
874793 On ch=1 n=b3 v=0
875148 On ch=1 n=d#5 v=89
875148 On ch=1 n=a#4 v=89
875148 On ch=1 n=a#5 v=96
875148 On ch=1 n=f#5 v=90
875260 On ch=1 n=a#7 v=0
875284 On ch=1 n=f#7 v=0
875292 On ch=1 n=a#6 v=0
875313 On ch=1 n=d#7 v=0
875656 On ch=1 n=f#7 v=95
875656 On ch=1 n=g#6 v=100
875656 On ch=1 n=d#7 v=98
875656 On ch=1 n=g#7 v=125
875743 On ch=1 n=f#5 v=0
875764 On ch=1 n=a#5 v=0
875764 On ch=1 n=a#4 v=0
875776 On ch=1 n=d#5 v=0
876004 On ch=1 n=f#7 v=0
876156 On ch=1 n=f#5 v=90
876164 On ch=1 n=g#5 v=95
876165 On ch=1 n=g#4 v=88
876165 On ch=1 n=d#5 v=77
876243 On ch=1 n=g#6 v=0
876285 On ch=1 n=d#7 v=0
876293 On ch=1 n=g#7 v=0
876332 On ch=1 n=g#5 v=0
876342 On ch=1 n=d#5 v=0
876342 On ch=1 n=f#5 v=0
876377 On ch=1 n=g#4 v=0
876709 On ch=1 n=c#7 v=120
876713 On ch=1 n=a#6 v=120
876720 On ch=1 n=f7 v=120
876720 On ch=1 n=a#7 v=125
876730 On ch=1 n=c#3 v=107
876734 Par ch=1 c=64 v=0
876734 On ch=1 n=c#2 v=98
876877 Par ch=1 c=64 v=127
876999 On ch=1 n=c#2 v=0
877046 On ch=1 n=c#3 v=0
877450 On ch=1 n=f5 v=39
877457 On ch=1 n=a#5 v=102
877467 On ch=1 n=b4 v=86
877467 On ch=1 n=c#5 v=84
877810 On ch=1 n=a#5 v=0
877877 On ch=1 n=f5 v=0
877879 On ch=1 n=b4 v=0
877910 On ch=1 n=c#5 v=0
878018 On ch=1 n=a#7 v=0
878074 On ch=1 n=a#6 v=0
878110 On ch=1 n=f7 v=0
878133 On ch=1 n=c#7 v=0
878458 On ch=1 n=f#7 v=127
878458 On ch=1 n=a#6 v=127
878458 On ch=1 n=c#7 v=127
878459 On ch=1 n=a#7 v=127
878459 On ch=1 n=f#3 v=127
878466 On ch=1 n=f#2 v=127
878514 Par ch=1 c=64 v=0
878718 Par ch=1 c=64 v=127
878878 On ch=1 n=f#2 v=0
878950 On ch=1 n=f#3 v=0
879339 On ch=1 n=c#4 v=59
879562 On ch=1 n=f#4 v=72
879670 On ch=1 n=a#7 v=0
879714 On ch=1 n=c#7 v=0
879714 On ch=1 n=f#7 v=0
879730 On ch=1 n=a#4 v=73
879739 On ch=1 n=a#6 v=0
879774 On ch=1 n=f#4 v=0
879894 On ch=1 n=c#4 v=0
879914 On ch=1 n=a#4 v=0
879924 On ch=1 n=c#5 v=68
879976 On ch=1 n=c#5 v=0
880115 On ch=1 n=f#5 v=64
880231 On ch=1 n=f#5 v=0
880283 On ch=1 n=a#5 v=65
880283 On ch=1 n=c#6 v=85
880283 On ch=1 n=c#7 v=95
880283 On ch=1 n=a#6 v=85
880283 On ch=1 n=f#6 v=82
880371 On ch=1 n=c#6 v=0
880376 On ch=1 n=f#6 v=0
880376 On ch=1 n=a#6 v=0
880459 On ch=1 n=a#5 v=0
880588 On ch=1 n=f#5 v=55
880744 On ch=1 n=f#5 v=0
880751 On ch=1 n=c#5 v=61
880796 On ch=1 n=c#5 v=0
880815 On ch=1 n=c#6 v=65
880831 On ch=1 n=c#7 v=0
880899 On ch=1 n=f#6 v=62
880947 On ch=1 n=a#6 v=64
880951 On ch=1 n=c#6 v=0
881004 On ch=1 n=a#6 v=0
881007 Par ch=1 c=64 v=0
881011 On ch=1 n=d#3 v=90
881020 On ch=1 n=f#6 v=0
881040 On ch=1 n=c#7 v=88
881196 Par ch=1 c=64 v=127
881347 On ch=1 n=a#3 v=60
881363 On ch=1 n=c#7 v=0
881496 On ch=1 n=d#3 v=0
881514 On ch=1 n=a#3 v=0
881524 On ch=1 n=d#4 v=63
881568 On ch=1 n=d#4 v=0
881733 On ch=1 n=f#4 v=68
881804 On ch=1 n=f#7 v=90
882005 On ch=1 n=a#4 v=49
882140 On ch=1 n=a#4 v=0
882184 On ch=1 n=d#5 v=53
882377 On ch=1 n=d#5 v=0
882388 On ch=1 n=f#5 v=49
882493 On ch=1 n=d#7 v=84
882624 On ch=1 n=f#7 v=0
882641 On ch=1 n=f#5 v=0
882677 On ch=1 n=d#5 v=44
882717 On ch=1 n=d#7 v=0
882880 On ch=1 n=a#4 v=55
882897 On ch=1 n=f#4 v=0
882901 On ch=1 n=d#5 v=0
882941 On ch=1 n=a#4 v=0
882953 On ch=1 n=a#5 v=63
883037 On ch=1 n=d#6 v=70
883064 On ch=1 n=a#5 v=0
883111 On ch=1 n=f#6 v=67
883172 On ch=1 n=g#3 v=71
883220 Par ch=1 c=64 v=0
883268 On ch=1 n=d#6 v=0
883293 On ch=1 n=c#7 v=90
883308 On ch=1 n=f#6 v=0
883411 Par ch=1 c=64 v=127
883540 On ch=1 n=d#4 v=50
883641 On ch=1 n=g#3 v=0
883724 On ch=1 n=f#4 v=46
883760 On ch=1 n=d#4 v=0
883844 On ch=1 n=f#4 v=0
883893 On ch=1 n=b4 v=46
883967 On ch=1 n=b4 v=0
884121 On ch=1 n=b6 v=75
884125 On ch=1 n=d#5 v=48
884180 On ch=1 n=c#7 v=0
884268 On ch=1 n=d#5 v=0
884320 On ch=1 n=f#5 v=46
884548 On ch=1 n=f#5 v=0
884565 On ch=1 n=b5 v=42
884732 On ch=1 n=b5 v=0
884844 On ch=1 n=f#5 v=40
884924 On ch=1 n=f#5 v=0
884984 On ch=1 n=a#6 v=65
885108 On ch=1 n=d#5 v=43
885185 On ch=1 n=d#5 v=0
885300 On ch=1 n=b5 v=53
885424 On ch=1 n=d#6 v=57
885512 Par ch=1 c=64 v=0
885548 On ch=1 n=c#3 v=57
885588 On ch=1 n=a#6 v=0
885604 On ch=1 n=b6 v=0
885632 On ch=1 n=g#6 v=64
885660 On ch=1 n=c#3 v=0
885677 Par ch=1 c=64 v=127
885765 On ch=1 n=d#6 v=0
885784 On ch=1 n=b5 v=0
885808 On ch=1 n=a#6 v=76
885852 On ch=1 n=b3 v=56
885905 On ch=1 n=g#6 v=0
885960 On ch=1 n=g#6 v=77
886084 On ch=1 n=b3 v=0
886084 On ch=1 n=a#6 v=0
886101 On ch=1 n=g6 v=79
886120 On ch=1 n=f4 v=49
886131 On ch=1 n=g#6 v=0
886208 On ch=1 n=g#6 v=86
886220 On ch=1 n=g6 v=0
886304 On ch=1 n=f4 v=0
886332 On ch=1 n=g#4 v=57
886376 On ch=1 n=g#4 v=0
886376 On ch=1 n=g#6 v=0
886477 On ch=1 n=d#7 v=88
886581 On ch=1 n=b4 v=56
886732 On ch=1 n=b4 v=0
886748 On ch=1 n=f5 v=56
886760 On ch=1 n=d#7 v=0
886884 On ch=1 n=b5 v=62
886951 On ch=1 n=g#6 v=33
886961 On ch=1 n=f5 v=0
887008 On ch=1 n=g#6 v=0
887008 On ch=1 n=f6 v=69
887072 On ch=1 n=g#5 v=46
887137 On ch=1 n=b5 v=0
887164 On ch=1 n=c#7 v=84
887253 On ch=1 n=f6 v=0
887268 On ch=1 n=g#5 v=0
887372 On ch=1 n=f5 v=45
887584 On ch=1 n=f5 v=0
887588 On ch=1 n=b4 v=49
887652 On ch=1 n=b4 v=0
887748 On ch=1 n=a#5 v=58
887771 On ch=1 n=c#7 v=0
887888 On ch=1 n=f#6 v=61
887968 On ch=1 n=f#3 v=52
888168 On ch=1 n=c#7 v=82
888168 Par ch=1 c=64 v=0
888372 Par ch=1 c=64 v=127
888404 On ch=1 n=c#4 v=58
888573 On ch=1 n=f#3 v=0
888604 On ch=1 n=f#4 v=66
888608 On ch=1 n=c#4 v=0
888652 On ch=1 n=f#4 v=0
888745 On ch=1 n=f#6 v=0
888784 On ch=1 n=c#7 v=0
888804 On ch=1 n=a#5 v=0
888804 On ch=1 n=a#4 v=69
888984 On ch=1 n=a#4 v=0
888984 On ch=1 n=f5 v=75
889161 On ch=1 n=d#5 v=77
889173 On ch=1 n=f5 v=0
889348 On ch=1 n=c#5 v=68
889400 On ch=1 n=a#5 v=84
889410 On ch=1 n=d#5 v=0
889561 On ch=1 n=a#4 v=66
889657 On ch=1 n=c#5 v=0
889753 On ch=1 n=f#4 v=70
889814 On ch=1 n=a#4 v=0
889848 On ch=1 n=f#4 v=0
889890 On ch=1 n=a#5 v=0
890009 On ch=1 n=c#6 v=89
890025 On ch=1 n=a#3 v=72
890042 On ch=1 n=f#5 v=64
890053 On ch=1 n=c#5 v=45
890133 Par ch=1 c=64 v=0
890321 On ch=1 n=f#4 v=65
890338 Par ch=1 c=64 v=127
890368 On ch=1 n=f#5 v=0
890378 On ch=1 n=c#5 v=0
890525 On ch=1 n=a#4 v=70
890606 On ch=1 n=f#4 v=0
890625 On ch=1 n=a#5 v=80
890755 On ch=1 n=a#5 v=0
890767 On ch=1 n=f#4 v=70
890794 On ch=1 n=a#3 v=0
890798 On ch=1 n=a#4 v=0
890847 On ch=1 n=a#5 v=82
890866 On ch=1 n=d5 v=54
891034 On ch=1 n=a#3 v=73
891094 On ch=1 n=d5 v=0
891111 On ch=1 n=c#6 v=0
891147 On ch=1 n=f#4 v=0
891222 On ch=1 n=f#4 v=68
891358 On ch=1 n=a#3 v=0
891447 On ch=1 n=b3 v=69
891451 On ch=1 n=d#5 v=60
891495 Par ch=1 c=64 v=0
891567 On ch=1 n=f#4 v=0
891666 Par ch=1 c=64 v=127
891718 On ch=1 n=d#5 v=0
891747 On ch=1 n=f#4 v=58
891782 On ch=1 n=a#5 v=0
891858 On ch=1 n=a#5 v=84
892062 On ch=1 n=g#4 v=48
892242 On ch=1 n=g#5 v=86
892407 On ch=1 n=a#5 v=0
892478 On ch=1 n=g#4 v=0
892611 On ch=1 n=f#5 v=84
892670 On ch=1 n=b3 v=0
892678 On ch=1 n=g#5 v=0
892878 On ch=1 n=f#4 v=0
892887 On ch=1 n=f#5 v=0
893210 On ch=1 n=f6 v=78
893474 Par ch=1 c=64 v=0
893762 Par ch=1 c=64 v=127
894038 On ch=1 n=f6 v=0
894734 Par ch=1 c=67 v=127
894847 On ch=1 n=d#6 v=39
895065 On ch=1 n=d#6 v=0
895194 Par ch=1 c=67 v=0
895606 On ch=1 n=c#6 v=54
895615 On ch=1 n=f#5 v=41
895634 On ch=1 n=c#5 v=39
895634 On ch=1 n=a#3 v=39
895666 Par ch=1 c=64 v=0
895858 Par ch=1 c=67 v=127
895886 Par ch=1 c=64 v=127
895906 On ch=1 n=c#5 v=0
895926 On ch=1 n=f#5 v=0
895970 On ch=1 n=f#4 v=40
896179 On ch=1 n=a#4 v=45
896247 On ch=1 n=f#4 v=0
896285 On ch=1 n=a#5 v=59
896414 On ch=1 n=a#5 v=0
896462 On ch=1 n=f#4 v=43
896518 On ch=1 n=a#3 v=0
896566 On ch=1 n=a#4 v=0
896566 On ch=1 n=a#5 v=53
896602 On ch=1 n=d5 v=41
896727 Par ch=1 c=64 v=0
896746 On ch=1 n=a#3 v=39
896818 On ch=1 n=c#6 v=0
896842 Par ch=1 c=64 v=127
896847 On ch=1 n=f#4 v=0
896895 On ch=1 n=d5 v=0
896967 On ch=1 n=f#4 v=41
897071 On ch=1 n=a#3 v=0
897147 On ch=1 n=f#4 v=0
897286 On ch=1 n=b3 v=39
897302 On ch=1 n=d#5 v=35
897354 Par ch=1 c=64 v=0
897599 Par ch=1 c=64 v=127
897762 On ch=1 n=d#5 v=0
897762 On ch=1 n=f#4 v=32
897826 On ch=1 n=a#5 v=0
897994 On ch=1 n=a#5 v=55
898238 On ch=1 n=g#4 v=33
898441 On ch=1 n=g#4 v=0
898458 Par ch=1 c=67 v=0
898531 On ch=1 n=g#5 v=72
898738 On ch=1 n=f#4 v=0
898818 On ch=1 n=a#5 v=0
898934 On ch=1 n=f#5 v=76
898966 On ch=1 n=g#5 v=0
898995 On ch=1 n=b3 v=0
899341 On ch=1 n=f6 v=79
899427 On ch=1 n=f#5 v=0
899998 On ch=1 n=f#5 v=51
900006 On ch=1 n=g#4 v=39
900006 Par ch=1 c=64 v=0
900014 On ch=1 n=c4 v=47
900199 Par ch=1 c=64 v=127
900311 On ch=1 n=d#6 v=78
900326 On ch=1 n=f#5 v=0
900558 On ch=1 n=f6 v=0
900622 On ch=1 n=c#6 v=76
900626 On ch=1 n=c#4 v=59
900630 On ch=1 n=f5 v=64
900727 On ch=1 n=f5 v=0
900802 On ch=1 n=d#6 v=0
900945 On ch=1 n=c4 v=0
900955 On ch=1 n=c6 v=76
900955 On ch=1 n=d#4 v=65
900999 On ch=1 n=c#4 v=0
901003 On ch=1 n=c#6 v=0
901028 On ch=1 n=g#4 v=0
901042 On ch=1 n=d#4 v=0
901075 On ch=1 n=c6 v=0
901356 On ch=1 n=a#6 v=77
901384 On ch=1 n=b5 v=55
901392 On ch=1 n=c#5 v=49
901404 On ch=1 n=f4 v=49
901496 Par ch=1 c=64 v=0
901751 Par ch=1 c=64 v=127
902039 On ch=1 n=d5 v=70
902344 On ch=1 n=c#5 v=0
902392 On ch=1 n=g#6 v=82
902424 On ch=1 n=f4 v=0
902439 On ch=1 n=d5 v=0
902455 On ch=1 n=b5 v=0
902462 On ch=1 n=a#6 v=0
902779 On ch=1 n=f#6 v=79
902783 On ch=1 n=d#5 v=64
902783 On ch=1 n=f#4 v=63
902795 On ch=1 n=a#5 v=72
902795 Par ch=1 c=64 v=0
902942 On ch=1 n=a#5 v=0
902952 Par ch=1 c=64 v=127
902968 On ch=1 n=d#5 v=0
903004 On ch=1 n=g#6 v=0
903032 On ch=1 n=f#4 v=0
903165 On ch=1 n=f6 v=79
903169 On ch=1 n=f5 v=72
903176 On ch=1 n=g#4 v=72
903180 On ch=1 n=g#5 v=72
903252 On ch=1 n=g#5 v=0
903300 On ch=1 n=g#4 v=0
903329 On ch=1 n=f#6 v=0
903332 On ch=1 n=f5 v=0
903380 On ch=1 n=f6 v=0
903801 On ch=1 n=d#7 v=95
903801 On ch=1 n=a#4 v=76
903805 On ch=1 n=g5 v=76
903816 On ch=1 n=e6 v=79
904292 Par ch=1 c=64 v=0
905633 Par ch=1 c=64 v=127
905889 On ch=1 n=a#4 v=0
906020 On ch=1 n=g5 v=0
906221 Par ch=1 c=67 v=127
906324 On ch=1 n=e6 v=0
906772 Par ch=1 c=67 v=0
906873 On ch=1 n=c#7 v=71
906880 On ch=1 n=a#5 v=39
906881 On ch=1 n=g5 v=39
906916 On ch=1 n=e6 v=41
907040 On ch=1 n=e6 v=0
907072 On ch=1 n=d#7 v=0
907149 On ch=1 n=c#7 v=0
907333 On ch=1 n=g5 v=0
907348 On ch=1 n=b6 v=70
907372 On ch=1 n=g#5 v=54
907379 On ch=1 n=d#6 v=54
907379 On ch=1 n=b5 v=49
907405 On ch=1 n=a#5 v=0
907436 On ch=1 n=g#5 v=0
907532 On ch=1 n=d#6 v=0
907700 On ch=1 n=b5 v=0
907728 On ch=1 n=a#6 v=71
907736 On ch=1 n=c#6 v=68
907741 On ch=1 n=d#5 v=50
907745 On ch=1 n=g5 v=54
907836 On ch=1 n=c#6 v=0
908045 Par ch=1 c=64 v=0
908060 On ch=1 n=g5 v=0
908068 On ch=1 n=b6 v=0
908076 On ch=1 n=g#5 v=46
908079 On ch=1 n=g#6 v=77
908079 On ch=1 n=e5 v=50
908079 On ch=1 n=b5 v=59
908089 On ch=1 n=d#5 v=0
908177 Par ch=1 c=64 v=127
908185 On ch=1 n=e5 v=0
908205 On ch=1 n=b5 v=0
908213 On ch=1 n=a#6 v=0
908378 On ch=1 n=f#6 v=73
908382 On ch=1 n=c5 v=56
908393 On ch=1 n=a5 v=63
908401 On ch=1 n=d#5 v=53
908412 On ch=1 n=g#6 v=0
908437 On ch=1 n=g#5 v=0
908469 On ch=1 n=a5 v=0
908553 On ch=1 n=f#6 v=0
908653 On ch=1 n=c5 v=0
908718 On ch=1 n=f5 v=47
908721 On ch=1 n=f6 v=73
908733 On ch=1 n=g#5 v=59
908749 Par ch=1 c=64 v=0
908749 On ch=1 n=c#5 v=52
908809 On ch=1 n=d#5 v=0
908849 On ch=1 n=c#5 v=0
908877 Par ch=1 c=64 v=127
909013 On ch=1 n=g#5 v=0
909053 On ch=1 n=f6 v=0
909098 On ch=1 n=e6 v=73
909105 On ch=1 n=f5 v=0
909126 On ch=1 n=g5 v=50
909129 On ch=1 n=a#4 v=47
909129 On ch=1 n=c#5 v=43
909237 On ch=1 n=g5 v=0
909426 On ch=1 n=a#4 v=0
909469 On ch=1 n=c#5 v=0
909473 On ch=1 n=d#6 v=71
909473 On ch=1 n=d#5 v=49
909485 On ch=1 n=b4 v=55
909495 On ch=1 n=f#5 v=48
909502 Par ch=1 c=67 v=127
909502 Par ch=1 c=64 v=0
909619 On ch=1 n=f#5 v=0
909630 On ch=1 n=b4 v=0
909674 Par ch=1 c=64 v=127
909866 On ch=1 n=g4 v=48
909870 On ch=1 n=c#6 v=72
909873 On ch=1 n=a#4 v=53
909879 On ch=1 n=e5 v=53
909930 On ch=1 n=e5 v=0
909946 On ch=1 n=e6 v=0
909962 On ch=1 n=d#5 v=0
909962 On ch=1 n=d#6 v=0
910003 On ch=1 n=c#6 v=0
910093 On ch=1 n=g4 v=0
910246 On ch=1 n=b5 v=65
910256 On ch=1 n=b4 v=44
910271 On ch=1 n=d#5 v=48
910271 On ch=1 n=g#4 v=46
910279 Par ch=1 c=64 v=0
910287 On ch=1 n=a#4 v=0
910372 On ch=1 n=g#4 v=0
910432 Par ch=1 c=64 v=127
910484 On ch=1 n=d#5 v=0
910570 On ch=1 n=b5 v=0
910660 On ch=1 n=b4 v=0
910703 On ch=1 n=a#5 v=58
910724 On ch=1 n=d#4 v=41
910735 On ch=1 n=c#5 v=39
910743 On ch=1 n=g4 v=32
910750 Par ch=1 c=64 v=0
910839 On ch=1 n=c#5 v=0
910883 Par ch=1 c=64 v=127
911191 Par ch=1 c=67 v=0
911207 On ch=1 n=g4 v=0
911270 On ch=1 n=d#4 v=0
911291 On ch=1 n=g#5 v=61
911324 On ch=1 n=g#4 v=30
911332 On ch=1 n=e4 v=38
911371 On ch=1 n=b4 v=32
911540 Par ch=1 c=64 v=0
911580 On ch=1 n=a#5 v=0
911610 Par ch=1 c=67 v=127
911866 Par ch=1 c=64 v=127
911883 On ch=1 n=b3 v=37
911910 On ch=1 n=e5 v=41
911999 On ch=1 n=b4 v=0
912086 On ch=1 n=b3 v=0
912432 On ch=1 n=d#5 v=38
912443 On ch=1 n=c4 v=41
912507 On ch=1 n=e5 v=0
912596 Par ch=1 c=64 v=0
912803 On ch=1 n=e4 v=0
912971 On ch=1 n=g5 v=43
912986 Par ch=1 c=64 v=127
913172 On ch=1 n=g#5 v=0
913343 On ch=1 n=d#5 v=0
913806 On ch=1 n=a4 v=39
913823 On ch=1 n=d5 v=35
913927 Par ch=1 c=64 v=0
913943 On ch=1 n=g#4 v=0
914472 Par ch=1 c=64 v=127
914592 On ch=1 n=g5 v=0
914907 On ch=1 n=f#5 v=41
915311 On ch=1 n=d5 v=0
915326 On ch=1 n=a4 v=0
915412 On ch=1 n=c4 v=0
915503 On ch=1 n=f#5 v=0
915731 Par ch=1 c=67 v=0
916171 On ch=1 n=c#6 v=57
916171 On ch=1 n=c#5 v=41
916172 On ch=1 n=f#5 v=39
916172 On ch=1 n=a#4 v=38
916175 On ch=1 n=c#4 v=39
916530 Par ch=1 c=64 v=0
916951 Par ch=1 c=64 v=127
917251 Par ch=1 c=67 v=127
917651 On ch=1 n=f#5 v=0
917659 On ch=1 n=c#6 v=0
917855 On ch=1 n=c#5 v=0
918327 On ch=1 n=a#5 v=43
918732 On ch=1 n=a#4 v=0
918931 On ch=1 n=f#5 v=49
919183 On ch=1 n=c#4 v=0
919371 On ch=1 n=d#5 v=62
919800 On ch=1 n=c#5 v=66
920043 On ch=1 n=f#5 v=0
920047 On ch=1 n=d#5 v=0
920272 On ch=1 n=c5 v=62
920320 On ch=1 n=a#5 v=0
920343 On ch=1 n=c#5 v=0
920707 On ch=1 n=c5 v=0
920823 On ch=1 n=d#4 v=28
920827 On ch=1 n=f#4 v=28
920827 On ch=1 n=c#4 v=31
920836 Par ch=1 c=64 v=0
920844 On ch=1 n=b4 v=45
921119 On ch=1 n=b4 v=0
921119 On ch=1 n=c#5 v=48
921150 Par ch=1 c=64 v=127
921250 On ch=1 n=f#4 v=0
921300 On ch=1 n=b4 v=55
921366 On ch=1 n=c#4 v=0
921391 On ch=1 n=c#5 v=0
921455 On ch=1 n=a#4 v=49
921470 On ch=1 n=d#4 v=0
921480 On ch=1 n=b4 v=0
921612 On ch=1 n=b4 v=47
921696 On ch=1 n=a#4 v=0
921750 On ch=1 n=b4 v=0
921927 On ch=1 n=a#5 v=54
921970 On ch=1 n=b4 v=32
921999 On ch=1 n=f4 v=31
922023 On ch=1 n=c#4 v=31
922047 Par ch=1 c=64 v=0
922483 Par ch=1 c=64 v=127
922663 On ch=1 n=g#5 v=44
922839 On ch=1 n=b4 v=0
922890 On ch=1 n=c#4 v=0
923171 On ch=1 n=f4 v=0
923607 On ch=1 n=f#5 v=37
923616 On ch=1 n=a#4 v=32
923647 On ch=1 n=c#4 v=24
923657 Par ch=1 c=64 v=0
923764 On ch=1 n=g#5 v=0
923904 On ch=1 n=a#5 v=0
923988 Par ch=1 c=64 v=127
924044 On ch=1 n=a#4 v=0
924197 On ch=1 n=c#4 v=0
924227 Par ch=1 c=67 v=0
924447 On ch=1 n=f#5 v=0
925028 On ch=1 n=c#5 v=48
925464 Par ch=1 c=64 v=0
925668 Par ch=1 c=64 v=127
926024 On ch=1 n=c#5 v=0
926607 On ch=1 n=a#4 v=43
927157 On ch=1 n=f#4 v=51
927280 On ch=1 n=a#4 v=0
927649 On ch=1 n=d#4 v=50
927789 On ch=1 n=f#4 v=0
927961 Par ch=1 c=64 v=0
928060 On ch=1 n=c#4 v=50
928080 Par ch=1 c=64 v=127
928188 On ch=1 n=d#4 v=0
928492 On ch=1 n=c4 v=55
928580 On ch=1 n=c#4 v=0
928913 On ch=1 n=b3 v=60
928989 On ch=1 n=c4 v=0
929044 On ch=1 n=g#4 v=49
929048 On ch=1 n=f#4 v=40
929056 On ch=1 n=d#5 v=53
929109 Par ch=1 c=64 v=0
929260 On ch=1 n=c#4 v=64
929304 On ch=1 n=b3 v=0
929337 Par ch=1 c=64 v=127
929456 On ch=1 n=b3 v=62
929487 On ch=1 n=c#4 v=0
929648 On ch=1 n=a#3 v=69
929664 On ch=1 n=f#4 v=0
929696 On ch=1 n=b3 v=0
929807 On ch=1 n=b3 v=65
929993 On ch=1 n=a#3 v=0
930147 On ch=1 n=b4 v=55
930168 On ch=1 n=f4 v=55
930196 On ch=1 n=g#3 v=60
930196 On ch=1 n=f#4 v=30
930204 On ch=1 n=g#4 v=0
930268 On ch=1 n=d#5 v=0
930273 Par ch=1 c=64 v=0
930301 On ch=1 n=b3 v=0
930580 Par ch=1 c=64 v=127
930840 On ch=1 n=d#4 v=59
930949 On ch=1 n=f4 v=0
931104 On ch=1 n=d#4 v=0
931109 On ch=1 n=f#4 v=0
931140 On ch=1 n=g#3 v=0
931324 On ch=1 n=b4 v=0
931728 On ch=1 n=d#5 v=61
931749 On ch=1 n=g#4 v=44
931764 On ch=1 n=f4 v=38
931780 On ch=1 n=c#3 v=52
931787 On ch=1 n=b3 v=47
932333 Par ch=1 c=64 v=0
932724 Par ch=1 c=64 v=127
932848 On ch=1 n=g#4 v=0
932896 On ch=1 n=f4 v=0
933636 On ch=1 n=d#5 v=0
933867 On ch=1 n=c5 v=41
934256 Par ch=1 c=64 v=0
934288 On ch=1 n=b3 v=0
934288 On ch=1 n=c#5 v=56
934300 On ch=1 n=c#3 v=0
934360 On ch=1 n=c5 v=0
934408 Par ch=1 c=64 v=127
934644 On ch=1 n=d#5 v=63
934767 On ch=1 n=c#5 v=0
934989 On ch=1 n=f5 v=65
935023 On ch=1 n=d#5 v=0
935320 On ch=1 n=g5 v=71
935424 On ch=1 n=f5 v=0
935647 On ch=1 n=g#5 v=67
935729 Par ch=1 c=64 v=0
935813 On ch=1 n=g5 v=0
935976 On ch=1 n=a#5 v=58
936027 Par ch=1 c=64 v=127
936200 On ch=1 n=g#5 v=0
936329 On ch=1 n=b5 v=58
936369 On ch=1 n=a#5 v=0
936644 On ch=1 n=c6 v=55
936760 Par ch=1 c=64 v=0
936767 On ch=1 n=b5 v=0
937021 On ch=1 n=c#6 v=50
937164 On ch=1 n=c6 v=0
937389 Par ch=1 c=64 v=127
937397 On ch=1 n=d#6 v=51
937540 On ch=1 n=c#6 v=0
937720 On ch=1 n=e6 v=48
937836 On ch=1 n=d#6 v=0
938044 On ch=1 n=f6 v=53
938164 On ch=1 n=e6 v=0
938364 On ch=1 n=f#6 v=59
938567 On ch=1 n=f6 v=0
938677 On ch=1 n=g6 v=64
938860 On ch=1 n=f#6 v=0
939117 On ch=1 n=a6 v=51
939117 On ch=1 n=e5 v=41
939117 On ch=1 n=c6 v=42
939117 On ch=1 n=g5 v=39
939201 On ch=1 n=g6 v=0
939328 Par ch=1 c=64 v=0
939549 On ch=1 n=g6 v=49
939620 On ch=1 n=c6 v=0
939627 On ch=1 n=a6 v=0
939669 Par ch=1 c=64 v=127
939913 On ch=1 n=f#6 v=46
940168 On ch=1 n=g5 v=0
940328 On ch=1 n=e6 v=40
940404 On ch=1 n=e5 v=0
940516 Par ch=1 c=67 v=127
940633 On ch=1 n=f#6 v=0
940648 On ch=1 n=g6 v=0
940717 On ch=1 n=b5 v=43
940764 On ch=1 n=e6 v=0
941057 On ch=1 n=b5 v=0
941160 On ch=1 n=c6 v=36
941340 On ch=1 n=c6 v=0
941928 On ch=1 n=d#6 v=37
941928 On ch=1 n=f5 v=22
941929 On ch=1 n=g#5 v=30
941929 On ch=1 n=b4 v=23
941932 On ch=1 n=c#4 v=33
942608 Par ch=1 c=64 v=0
943181 Par ch=1 c=64 v=127
943252 On ch=1 n=g#5 v=0
943380 On ch=1 n=f5 v=0
944048 On ch=1 n=b4 v=0
944084 On ch=1 n=c#4 v=0
944253 On ch=1 n=d#6 v=0
944448 On ch=1 n=c6 v=35
944900 On ch=1 n=c#6 v=39
945020 On ch=1 n=c6 v=0
945268 On ch=1 n=d#6 v=49
945469 On ch=1 n=c#6 v=0
945609 On ch=1 n=f6 v=57
945709 On ch=1 n=d#6 v=0
945953 On ch=1 n=g6 v=60
946049 On ch=1 n=f6 v=0
946293 On ch=1 n=g#6 v=54
946443 On ch=1 n=g6 v=0
946629 On ch=1 n=a#6 v=50
946756 Par ch=1 c=64 v=0
946844 On ch=1 n=g#6 v=0
946976 On ch=1 n=b6 v=47
947053 Par ch=1 c=64 v=127
947068 On ch=1 n=a#6 v=0
947340 On ch=1 n=c7 v=43
947409 On ch=1 n=b6 v=0
947768 On ch=1 n=c#7 v=39
947916 On ch=1 n=c7 v=0
948013 Par ch=1 c=64 v=0
948127 Par ch=1 c=64 v=127
948229 On ch=1 n=d#7 v=22
948360 On ch=1 n=c#7 v=0
948504 On ch=1 n=d#7 v=0
948684 On ch=1 n=e7 v=31
949087 On ch=1 n=f7 v=34
949184 On ch=1 n=e7 v=0
949469 On ch=1 n=f#7 v=36
949608 On ch=1 n=f7 v=0
949900 On ch=1 n=g7 v=29
950463 On ch=1 n=f#7 v=0
950540 On ch=1 n=a7 v=33
950540 On ch=1 n=e5 v=35
950540 On ch=1 n=c6 v=33
950543 On ch=1 n=g5 v=30
950680 On ch=1 n=g7 v=0
951029 Par ch=1 c=64 v=0
951077 On ch=1 n=g7 v=34
951184 On ch=1 n=a7 v=0
951287 Par ch=1 c=64 v=127
951488 On ch=1 n=f#7 v=32
951896 On ch=1 n=e7 v=33
952016 On ch=1 n=g7 v=0
952184 On ch=1 n=f#7 v=0
952247 On ch=1 n=c6 v=0
952293 On ch=1 n=d7 v=37
952464 On ch=1 n=e7 v=0
952628 On ch=1 n=e5 v=0
952660 On ch=1 n=c7 v=40
952733 On ch=1 n=d7 v=0
953029 On ch=1 n=b6 v=38
953029 On ch=1 n=b5 v=35
953033 On ch=1 n=d5 v=35
953229 On ch=1 n=c7 v=0
953476 On ch=1 n=a6 v=36
953597 On ch=1 n=b6 v=0
953869 On ch=1 n=g6 v=33
954053 On ch=1 n=a6 v=0
954256 On ch=1 n=f#6 v=39
954420 Par ch=1 c=64 v=0
954544 On ch=1 n=g6 v=0
954664 On ch=1 n=e6 v=36
954744 Par ch=1 c=64 v=127
954823 On ch=1 n=f#6 v=0
954840 On ch=1 n=b5 v=0
954909 On ch=1 n=d5 v=0
955108 On ch=1 n=d6 v=35
955160 On ch=1 n=g5 v=0
955237 On ch=1 n=e6 v=0
955273 On ch=1 n=d6 v=0
955687 On ch=1 n=g7 v=41
955687 On ch=1 n=f5 v=36
955693 On ch=1 n=d5 v=39
955693 On ch=1 n=a#5 v=35
956089 Par ch=1 c=64 v=0
956156 On ch=1 n=f7 v=43
956304 On ch=1 n=g7 v=0
956408 Par ch=1 c=64 v=127
956546 On ch=1 n=e7 v=40
956721 On ch=1 n=f7 v=0
956849 On ch=1 n=d5 v=0
956921 On ch=1 n=d7 v=43
957006 On ch=1 n=a#5 v=0
957221 On ch=1 n=e7 v=0
957326 On ch=1 n=c7 v=37
957413 On ch=1 n=d7 v=0
957713 On ch=1 n=c7 v=0
957723 On ch=1 n=a#6 v=42
958127 On ch=1 n=a6 v=37
958127 On ch=1 n=c5 v=35
958131 On ch=1 n=a5 v=36
958367 On ch=1 n=a#6 v=0
958367 Par ch=1 c=64 v=0
958543 On ch=1 n=g6 v=36
958694 Par ch=1 c=64 v=127
958750 On ch=1 n=a6 v=0
958967 On ch=1 n=f6 v=36
959118 On ch=1 n=g6 v=0
959394 On ch=1 n=e6 v=39
959462 On ch=1 n=f6 v=0
959826 On ch=1 n=e6 v=0
959854 On ch=1 n=d6 v=35
960114 On ch=1 n=a5 v=0
960194 On ch=1 n=c5 v=0
960287 On ch=1 n=f5 v=0
960346 On ch=1 n=d6 v=0
960346 On ch=1 n=c6 v=40
960570 On ch=1 n=c6 v=0
961058 On ch=1 n=f7 v=39
961058 On ch=1 n=c5 v=36
961058 On ch=1 n=d#5 v=32
961058 On ch=1 n=g#5 v=33
961301 Par ch=1 c=64 v=0
961534 On ch=1 n=d#7 v=38
961658 Par ch=1 c=64 v=127
961730 On ch=1 n=f7 v=0
961914 On ch=1 n=c#7 v=46
962158 On ch=1 n=d#7 v=0
962283 On ch=1 n=c7 v=43
962403 On ch=1 n=c#7 v=0
962510 On ch=1 n=c7 v=0
962667 On ch=1 n=a#6 v=37
962887 On ch=1 n=a#6 v=0
963034 On ch=1 n=c5 v=0
963070 On ch=1 n=g#6 v=46
963286 On ch=1 n=g#6 v=0
963518 On ch=1 n=g#7 v=53
963542 On ch=1 n=b4 v=42
963658 Par ch=1 c=64 v=0
963890 Par ch=1 c=64 v=127
963990 On ch=1 n=f#7 v=51
964286 On ch=1 n=g#7 v=0
964398 On ch=1 n=f7 v=38
964550 On ch=1 n=f#7 v=0
964614 On ch=1 n=f7 v=0
964827 On ch=1 n=d#7 v=37
965283 On ch=1 n=c#7 v=36
965806 On ch=1 n=b6 v=35
965821 On ch=1 n=b4 v=0
965922 On ch=1 n=g#5 v=0
965931 On ch=1 n=d#7 v=0
965931 On ch=1 n=d#5 v=0
965958 On ch=1 n=c#7 v=0
966030 On ch=1 n=b6 v=0
966418 On ch=1 n=d#8 v=62
966483 On ch=1 n=g#5 v=30
966487 On ch=1 n=d#5 v=34
966498 On ch=1 n=a#4 v=32
966743 Par ch=1 c=64 v=0
966927 Par ch=1 c=64 v=127
966978 On ch=1 n=c#8 v=59
967374 On ch=1 n=b7 v=55
967458 On ch=1 n=d#8 v=0
967475 On ch=1 n=c#8 v=0
967594 On ch=1 n=b7 v=0
967775 On ch=1 n=a#7 v=61
968143 On ch=1 n=g#7 v=60
968162 On ch=1 n=f#5 v=36
968271 On ch=1 n=g#5 v=0
968290 On ch=1 n=a#4 v=0
968342 On ch=1 n=d#5 v=0
968375 On ch=1 n=f#5 v=0
968527 Par ch=1 c=64 v=0
968535 On ch=1 n=f#7 v=61
968627 On ch=1 n=g#4 v=40
968631 Par ch=1 c=64 v=127
968734 On ch=1 n=g#4 v=0
968791 On ch=1 n=d#5 v=21
968821 On ch=1 n=f#5 v=33
968990 On ch=1 n=a#7 v=0
968997 On ch=1 n=f7 v=53
969034 On ch=1 n=g#7 v=0
969103 On ch=1 n=f#7 v=0
969170 On ch=1 n=b5 v=37
969430 On ch=1 n=f7 v=0
969430 On ch=1 n=d#7 v=43
969441 On ch=1 n=b5 v=0
969794 On ch=1 n=c#7 v=40
970181 On ch=1 n=b6 v=36
970231 On ch=1 n=c#7 v=0
970238 On ch=1 n=d#7 v=0
970563 On ch=1 n=a#6 v=37
970567 On ch=1 n=b6 v=0
970687 On ch=1 n=f#5 v=0
970978 On ch=1 n=g#6 v=37
971075 On ch=1 n=d#5 v=0
971374 On ch=1 n=f#6 v=37
971503 On ch=1 n=a#6 v=0
971783 On ch=1 n=f6 v=34
971858 On ch=1 n=g#6 v=0
971894 On ch=1 n=f#6 v=0
972006 On ch=1 n=f6 v=0
972183 On ch=1 n=d#6 v=34
972262 Par ch=1 c=64 v=0
972410 Par ch=1 c=64 v=127
972658 On ch=1 n=c#6 v=36
972994 On ch=1 n=d#6 v=0
973123 On ch=1 n=b5 v=38
973147 On ch=1 n=c#6 v=0
973291 On ch=1 n=b5 v=0
973703 On ch=1 n=a#5 v=39
974027 On ch=1 n=a#5 v=0
974435 On ch=1 n=a#5 v=38
974435 On ch=1 n=b4 v=39
974435 On ch=1 n=f5 v=37
974435 On ch=1 n=c#4 v=30
974621 Par ch=1 c=64 v=0
974823 Par ch=1 c=64 v=127
975011 On ch=1 n=f5 v=0
975090 On ch=1 n=g#5 v=39
975251 On ch=1 n=a#5 v=0
975487 On ch=1 n=f#5 v=37
975711 On ch=1 n=g#5 v=0
975914 On ch=1 n=f5 v=38
976038 On ch=1 n=f#5 v=0
976187 On ch=1 n=f5 v=0
976218 Par ch=1 c=67 v=0
976338 On ch=1 n=d#5 v=40
976441 On ch=1 n=b4 v=0
976667 On ch=1 n=d#5 v=0
976767 On ch=1 n=c#5 v=42
977111 On ch=1 n=c#5 v=0
977187 On ch=1 n=c#4 v=0
977261 On ch=1 n=c5 v=45
977303 Par ch=1 c=64 v=0
977478 Par ch=1 c=64 v=127
977643 On ch=1 n=c5 v=0
977814 On ch=1 n=c#5 v=52
977824 Par ch=1 c=64 v=0
977999 Par ch=1 c=64 v=127
978135 On ch=1 n=c#5 v=0
978298 On ch=1 n=d#5 v=45
978355 Par ch=1 c=64 v=0
978495 Par ch=1 c=64 v=127
978715 Par ch=1 c=67 v=127
978851 On ch=1 n=d#5 v=0
978851 On ch=1 n=f5 v=39
978898 Par ch=1 c=64 v=0
979128 Par ch=1 c=64 v=127
979284 On ch=1 n=f5 v=0
979443 On ch=1 n=f#5 v=36
979500 Par ch=1 c=64 v=0
979699 Par ch=1 c=64 v=127
979938 On ch=1 n=f#5 v=0
980280 On ch=1 n=g#5 v=39
980387 Par ch=1 c=64 v=0
980595 Par ch=1 c=64 v=127
980771 On ch=1 n=g#5 v=0
981411 On ch=1 n=a#5 v=56
981411 On ch=1 n=f#2 v=39
981447 Par ch=1 c=64 v=0
981643 Par ch=1 c=64 v=127
981704 On ch=1 n=f#2 v=0
982398 On ch=1 n=c#5 v=40
982398 On ch=1 n=c#4 v=41
982398 On ch=1 n=a#4 v=39
982400 On ch=1 n=f#4 v=38
982751 On ch=1 n=a#5 v=0
982860 On ch=1 n=c#4 v=0
982875 On ch=1 n=a#5 v=59
982875 On ch=1 n=f#3 v=39
982935 On ch=1 n=a#4 v=0
982980 On ch=1 n=c#5 v=0
983160 On ch=1 n=f#3 v=0
983218 Par ch=1 c=67 v=0
983220 On ch=1 n=f#4 v=0
983307 On ch=1 n=d5 v=45
983307 On ch=1 n=f#4 v=40
983311 On ch=1 n=a#4 v=39
983311 On ch=1 n=d4 v=38
983563 On ch=1 n=a#5 v=0
983611 On ch=1 n=d4 v=0
983651 On ch=1 n=a#5 v=62
983655 On ch=1 n=f#3 v=37
983695 On ch=1 n=a#4 v=0
983739 On ch=1 n=f#4 v=0
983744 On ch=1 n=d5 v=0
983858 On ch=1 n=f#3 v=0
984038 On ch=1 n=d#5 v=54
984040 On ch=1 n=d#4 v=34
984040 On ch=1 n=f#4 v=39
984040 On ch=1 n=a#4 v=41
984311 On ch=1 n=d#4 v=0
984359 On ch=1 n=a#5 v=0
984427 On ch=1 n=a#5 v=55
984439 On ch=1 n=f#3 v=39
984451 On ch=1 n=a#4 v=0
984484 On ch=1 n=d#5 v=0
984587 On ch=1 n=f#3 v=0
984597 On ch=1 n=f#4 v=0
985108 On ch=1 n=e5 v=39
985111 On ch=1 n=c#5 v=39
985121 On ch=1 n=g4 v=38
985121 On ch=1 n=e4 v=40
985216 Par ch=1 c=64 v=0
985568 Par ch=1 c=64 v=127
985605 On ch=1 n=g4 v=0
985617 On ch=1 n=e5 v=0
985645 On ch=1 n=e4 v=0
985688 On ch=1 n=c#5 v=0
987015 On ch=1 n=g#5 v=44
987448 On ch=1 n=a#5 v=0
987495 On ch=1 n=g5 v=59
987660 On ch=1 n=g#5 v=0
987992 On ch=1 n=b5 v=63
988112 On ch=1 n=g5 v=0
988304 Par ch=1 c=64 v=0
988736 Par ch=1 c=64 v=127
989095 On ch=1 n=b5 v=0
989337 Par ch=1 c=67 v=127
990121 On ch=1 n=a#5 v=45
990464 On ch=1 n=a#5 v=0
990657 Par ch=1 c=67 v=0
990928 On ch=1 n=d#6 v=66
990937 On ch=1 n=f#2 v=45
990948 Par ch=1 c=64 v=0
991124 Par ch=1 c=64 v=127
991134 On ch=1 n=f#2 v=0
991698 On ch=1 n=a#5 v=42
991706 On ch=1 n=e5 v=38
991706 On ch=1 n=c#5 v=39
991706 On ch=1 n=g4 v=38
991909 On ch=1 n=e5 v=0
991912 On ch=1 n=g4 v=0
991985 On ch=1 n=c#5 v=0
992094 On ch=1 n=d#6 v=0
992098 On ch=1 n=d#6 v=69
992209 On ch=1 n=a#5 v=0
992509 On ch=1 n=a5 v=42
992509 On ch=1 n=d#5 v=39
992514 On ch=1 n=c5 v=40
992514 On ch=1 n=f#4 v=39
992694 On ch=1 n=c5 v=0
992709 On ch=1 n=f#4 v=0
992822 On ch=1 n=d#6 v=0
992889 On ch=1 n=d#6 v=59
992914 On ch=1 n=d#5 v=0
992933 Par ch=1 c=67 v=127
992997 On ch=1 n=a5 v=0
993294 On ch=1 n=d#5 v=38
993305 On ch=1 n=g#5 v=36
993309 Par ch=1 c=64 v=0
993309 On ch=1 n=b4 v=39
993313 On ch=1 n=f#4 v=38
993474 Par ch=1 c=64 v=127
993581 On ch=1 n=b4 v=0
993657 On ch=1 n=d#6 v=0
993753 On ch=1 n=d#6 v=50
993814 On ch=1 n=d#5 v=0
993888 On ch=1 n=g#5 v=0
993892 On ch=1 n=f#4 v=0
994382 On ch=1 n=g#5 v=38
994393 On ch=1 n=c#5 v=39
994393 On ch=1 n=b4 v=40
994393 On ch=1 n=f4 v=39
994614 Par ch=1 c=64 v=0
994829 On ch=1 n=b4 v=0
994861 On ch=1 n=f4 v=0
994871 Par ch=1 c=64 v=127
994955 On ch=1 n=c#5 v=0
994979 On ch=1 n=g#5 v=0
995958 On ch=1 n=c#6 v=49
996463 On ch=1 n=b5 v=50
996558 On ch=1 n=d#6 v=0
996562 On ch=1 n=c#6 v=0
996879 Par ch=1 c=67 v=0
996906 On ch=1 n=b5 v=0
996982 On ch=1 n=g#6 v=62
997095 Par ch=1 c=64 v=0
997582 Par ch=1 c=64 v=127
997802 On ch=1 n=g#6 v=0
998469 Par ch=1 c=67 v=127
999086 On ch=1 n=a6 v=66
999335 Par ch=1 c=67 v=0
999455 On ch=1 n=a6 v=0
999986 On ch=1 n=a#6 v=55
999996 Par ch=1 c=64 v=0
1000019 On ch=1 n=f#2 v=39
1000182 Par ch=1 c=64 v=127
1000248 On ch=1 n=f#2 v=0
1000863 On ch=1 n=c#6 v=42
1000863 On ch=1 n=c#5 v=33
1000867 On ch=1 n=a#5 v=36
1000867 On ch=1 n=f#5 v=34
1001248 On ch=1 n=a#6 v=0
1001279 On ch=1 n=c#5 v=0
1001283 On ch=1 n=a#6 v=65
1001286 On ch=1 n=f#4 v=36
1001432 On ch=1 n=a#5 v=0
1001459 On ch=1 n=f#5 v=0
1001475 On ch=1 n=c#6 v=0
1001611 On ch=1 n=f#4 v=0
1001626 On ch=1 n=f#5 v=35
1001632 On ch=1 n=d6 v=70
1001632 On ch=1 n=a#5 v=51
1001632 On ch=1 n=d5 v=40
1001839 On ch=1 n=d5 v=0
1001883 On ch=1 n=a#6 v=0
1001923 On ch=1 n=f#5 v=0
1001979 On ch=1 n=a#6 v=69
1001979 On ch=1 n=f#4 v=41
1002003 On ch=1 n=a#5 v=0
1002026 On ch=1 n=d6 v=0
1002255 On ch=1 n=f#4 v=0
1002295 On ch=1 n=d#6 v=72
1002299 On ch=1 n=a#5 v=56
1002302 On ch=1 n=f#5 v=40
1002306 On ch=1 n=d#5 v=38
1002522 On ch=1 n=a#6 v=0
1002659 On ch=1 n=a#6 v=78
1002663 On ch=1 n=f#4 v=44
1002712 On ch=1 n=d#5 v=0
1002723 On ch=1 n=d#6 v=0
1002748 On ch=1 n=a#5 v=0
1002759 On ch=1 n=f#4 v=0
1002815 On ch=1 n=f#5 v=0
1003223 On ch=1 n=e6 v=66
1003228 On ch=1 n=c#6 v=51
1003232 On ch=1 n=g5 v=37
1003232 On ch=1 n=c#5 v=39
1003232 On ch=1 n=a#5 v=46
1003235 On ch=1 n=e5 v=40
1003339 Par ch=1 c=64 v=0
1003547 Par ch=1 c=64 v=127
1003699 On ch=1 n=e5 v=0
1003699 On ch=1 n=g5 v=0
1003716 On ch=1 n=a#5 v=0
1003716 On ch=1 n=c#5 v=0
1003720 On ch=1 n=c#6 v=0
1003756 On ch=1 n=e6 v=0
1005127 On ch=1 n=g#6 v=69
1005260 Par ch=1 c=64 v=0
1005408 Par ch=1 c=64 v=127
1005439 On ch=1 n=a#6 v=0
1005563 On ch=1 n=g6 v=80
1005675 On ch=1 n=g#6 v=0
1005888 On ch=1 n=g6 v=0
1005996 On ch=1 n=b6 v=90
1006203 Par ch=1 c=64 v=0
1006426 Par ch=1 c=64 v=127
1006840 On ch=1 n=b6 v=0
1007528 On ch=1 n=a#6 v=66
1007803 On ch=1 n=a#6 v=0
1008132 On ch=1 n=d#7 v=82
1008136 On ch=1 n=f#2 v=56
1008286 On ch=1 n=f#2 v=0
1008848 On ch=1 n=a#6 v=64
1008848 On ch=1 n=e6 v=50
1008848 On ch=1 n=c#5 v=37
1008848 On ch=1 n=g5 v=36
1008851 On ch=1 n=a#5 v=38
1009023 On ch=1 n=e6 v=0
1009103 On ch=1 n=g5 v=0
1009159 On ch=1 n=a#6 v=0
1009167 On ch=1 n=c#5 v=0
1009171 On ch=1 n=d#7 v=0
1009179 On ch=1 n=a#5 v=0
1009279 On ch=1 n=d#7 v=89
1009707 On ch=1 n=a6 v=51
1009712 On ch=1 n=c5 v=39
1009712 On ch=1 n=d#6 v=43
1009712 On ch=1 n=f#5 v=35
1009712 On ch=1 n=a5 v=36
1009939 On ch=1 n=a5 v=0
1009939 On ch=1 n=c5 v=0
1009959 On ch=1 n=f#5 v=0
1010023 On ch=1 n=d#6 v=0
1010031 On ch=1 n=d#7 v=0
1010076 On ch=1 n=d#7 v=80
1010139 On ch=1 n=a6 v=0
1010572 On ch=1 n=d#6 v=36
1010583 On ch=1 n=g#5 v=35
1010583 On ch=1 n=b4 v=39
1010583 On ch=1 n=f#5 v=36
1010820 On ch=1 n=b4 v=0
1010959 On ch=1 n=f#5 v=0
1010969 On ch=1 n=d#7 v=0
1010985 On ch=1 n=g#5 v=0
1011037 On ch=1 n=d#7 v=80
1011120 On ch=1 n=d#6 v=0
1011896 On ch=1 n=g#6 v=35
1011896 On ch=1 n=c#6 v=36
1011899 On ch=1 n=b5 v=35
1011899 On ch=1 n=c#5 v=36
1011899 On ch=1 n=f5 v=35
1012083 Par ch=1 c=64 v=0
1012436 Par ch=1 c=64 v=127
1012540 On ch=1 n=g#6 v=0
1012544 On ch=1 n=c#6 v=0
1012756 On ch=1 n=b5 v=0
1012804 On ch=1 n=f5 v=0
1012808 On ch=1 n=c#5 v=0
1013265 On ch=1 n=c#7 v=72
1013716 On ch=1 n=b6 v=80
1013863 On ch=1 n=d#7 v=0
1013892 On ch=1 n=c#7 v=0
1013985 On ch=1 n=b6 v=0
1014336 On ch=1 n=a#7 v=80
1016025 On ch=1 n=a#7 v=0
1016263 Par ch=1 c=67 v=127
1016369 On ch=1 n=g#7 v=42
1016803 On ch=1 n=g#7 v=0
1017172 Par ch=1 c=64 v=0
1017272 On ch=1 n=a#4 v=39
1017272 Par ch=1 c=64 v=127
1017836 On ch=1 n=c#6 v=40
1017844 On ch=1 n=f#5 v=35
1017845 On ch=1 n=c#5 v=32
1018185 On ch=1 n=c#5 v=0
1018245 On ch=1 n=c#6 v=0
1018248 On ch=1 n=f#5 v=0
1018259 On ch=1 n=g#4 v=35
1018412 On ch=1 n=a#4 v=0
1018665 On ch=1 n=f#5 v=38
1018676 On ch=1 n=a#5 v=33
1018676 On ch=1 n=f#4 v=36
1018676 On ch=1 n=c#5 v=39
1018740 On ch=1 n=g#4 v=0
1018920 On ch=1 n=a#5 v=0
1018929 On ch=1 n=f#5 v=0
1018952 On ch=1 n=c#5 v=0
1019160 On ch=1 n=f5 v=40
1019396 On ch=1 n=f#4 v=0
1019692 On ch=1 n=f#5 v=38
1019696 On ch=1 n=c#5 v=39
1019704 On ch=1 n=c6 v=36
1019704 On ch=1 n=a5 v=35
1019732 Par ch=1 c=64 v=0
1020060 Par ch=1 c=64 v=127
1020100 On ch=1 n=c#5 v=0
1020152 On ch=1 n=a5 v=0
1020184 On ch=1 n=f#5 v=0
1020225 On ch=1 n=c6 v=0
1020645 On ch=1 n=d#5 v=36
1020805 Par ch=1 c=67 v=0
1020809 On ch=1 n=f5 v=0
1021005 On ch=1 n=d#5 v=0
1021097 On ch=1 n=d#7 v=66
1021097 On ch=1 n=d#6 v=39
1021589 Par ch=1 c=64 v=0
1021613 On ch=1 n=f#5 v=32
1021616 On ch=1 n=b5 v=39
1021616 On ch=1 n=c#5 v=38
1021620 On ch=1 n=g#5 v=39
1021792 Par ch=1 c=64 v=127
1021829 On ch=1 n=g#5 v=0
1021933 On ch=1 n=c#5 v=0
1021945 On ch=1 n=f#5 v=0
1021945 On ch=1 n=d#6 v=0
1021965 On ch=1 n=b5 v=0
1021969 On ch=1 n=c#7 v=60
1022249 On ch=1 n=d#7 v=0
1022357 On ch=1 n=b6 v=56
1022357 On ch=1 n=c#5 v=36
1022357 On ch=1 n=b5 v=39
1022360 On ch=1 n=f#5 v=38
1022360 On ch=1 n=d#5 v=36
1022524 On ch=1 n=f6 v=40
1022528 On ch=1 n=b6 v=0
1022539 On ch=1 n=c#7 v=0
1022585 On ch=1 n=f#5 v=0
1022645 On ch=1 n=b6 v=48
1022660 On ch=1 n=c#5 v=0
1022664 On ch=1 n=f6 v=0
1022672 On ch=1 n=b5 v=0
1022709 On ch=1 n=d#5 v=0
1022723 On ch=1 n=b6 v=0
1022949 On ch=1 n=a#7 v=78
1023316 Par ch=1 c=67 v=127
1023525 On ch=1 n=b5 v=32
1023525 On ch=1 n=c#5 v=31
1023528 On ch=1 n=f5 v=32
1023528 On ch=1 n=g#5 v=38
1023600 Par ch=1 c=64 v=0
1023840 Par ch=1 c=64 v=127
1024063 On ch=1 n=b5 v=0
1024105 On ch=1 n=g#5 v=0
1024124 On ch=1 n=f5 v=0
1024233 On ch=1 n=c#5 v=0
1024644 On ch=1 n=a#7 v=0
1024644 On ch=1 n=g#7 v=39
1024952 On ch=1 n=g#7 v=0
1025325 On ch=1 n=a#4 v=34
1025820 Par ch=1 c=64 v=0
1025865 On ch=1 n=c#6 v=40
1025865 On ch=1 n=f#5 v=36
1025865 On ch=1 n=c#5 v=35
1026072 Par ch=1 c=64 v=127
1026120 On ch=1 n=c#5 v=0
1026136 On ch=1 n=f#5 v=0
1026284 On ch=1 n=g#4 v=41
1026316 On ch=1 n=a#4 v=0
1026685 On ch=1 n=c#5 v=33
1026685 On ch=1 n=f#5 v=36
1026689 On ch=1 n=f#4 v=39
1026689 On ch=1 n=a#5 v=36
1026764 On ch=1 n=c#6 v=0
1026809 On ch=1 n=g#4 v=0
1026928 On ch=1 n=f#5 v=0
1026936 On ch=1 n=a#5 v=0
1026976 On ch=1 n=c#5 v=0
1027163 On ch=1 n=f5 v=41
1027360 On ch=1 n=f#4 v=0
1027596 Par ch=1 c=64 v=0
1027713 On ch=1 n=c6 v=36
1027713 On ch=1 n=f#5 v=35
1027720 On ch=1 n=c#5 v=36
1027720 On ch=1 n=a5 v=36
1028080 Par ch=1 c=64 v=127
1028140 On ch=1 n=c#5 v=0
1028216 On ch=1 n=f#5 v=0
1028236 On ch=1 n=a5 v=0
1028280 On ch=1 n=c6 v=0
1028920 On ch=1 n=d#5 v=36
1029145 On ch=1 n=f5 v=0
1029293 Par ch=1 c=67 v=0
1029325 On ch=1 n=d#5 v=0
1029569 On ch=1 n=d#7 v=65
1029569 On ch=1 n=d#6 v=32
1030144 On ch=1 n=f#5 v=36
1030144 On ch=1 n=c#5 v=32
1030144 On ch=1 n=b5 v=35
1030144 On ch=1 n=g#5 v=36
1030145 Par ch=1 c=64 v=0
1030336 Par ch=1 c=64 v=127
1030413 On ch=1 n=g#5 v=0
1030444 On ch=1 n=c#5 v=0
1030485 On ch=1 n=b5 v=0
1030485 On ch=1 n=c#7 v=72
1030496 On ch=1 n=d#6 v=0
1030500 On ch=1 n=f#5 v=0
1030836 On ch=1 n=d#7 v=0
1030843 On ch=1 n=f#5 v=32
1030845 On ch=1 n=b5 v=35
1030853 On ch=1 n=c#5 v=32
1030853 On ch=1 n=b6 v=68
1030853 On ch=1 n=d#5 v=28
1031024 On ch=1 n=f6 v=60
1031043 On ch=1 n=b6 v=0
1031156 On ch=1 n=b6 v=64
1031160 On ch=1 n=c#7 v=0
1031172 On ch=1 n=f#5 v=0
1031283 On ch=1 n=c#5 v=0
1031297 On ch=1 n=b5 v=0
1031312 On ch=1 n=d#5 v=0
1031363 On ch=1 n=f6 v=0
1031472 On ch=1 n=a#7 v=85
1031536 On ch=1 n=b6 v=0
1032136 Par ch=1 c=67 v=127
1032260 On ch=1 n=g#5 v=33
1032272 On ch=1 n=b5 v=33
1032272 On ch=1 n=c#5 v=36
1032272 On ch=1 n=f5 v=32
1032464 Par ch=1 c=64 v=0
1032760 Par ch=1 c=64 v=127
1033616 On ch=1 n=g#7 v=39
1033844 On ch=1 n=a#7 v=0
1033892 On ch=1 n=g#7 v=0
1034028 On ch=1 n=b5 v=0
1034153 On ch=1 n=g#5 v=0
1034184 On ch=1 n=f5 v=0
1034184 On ch=1 n=c#5 v=0
1034320 Par ch=1 c=67 v=0
1034705 On ch=1 n=d#7 v=46
1034713 On ch=1 n=d#6 v=32
1035056 Par ch=1 c=67 v=127
1035280 Par ch=1 c=64 v=0
1035303 On ch=1 n=c#5 v=36
1035303 On ch=1 n=f#5 v=35
1035303 On ch=1 n=b5 v=33
1035303 On ch=1 n=g#5 v=32
1035520 On ch=1 n=g#5 v=0
1035540 Par ch=1 c=64 v=127
1035576 On ch=1 n=b5 v=0
1035576 On ch=1 n=f#5 v=0
1035612 On ch=1 n=c#5 v=0
1035720 On ch=1 n=c#7 v=48
1035725 On ch=1 n=d#6 v=0
1035924 On ch=1 n=d#7 v=0
1036083 On ch=1 n=b6 v=41
1036112 On ch=1 n=d#5 v=34
1036112 On ch=1 n=c#5 v=33
1036116 On ch=1 n=f#5 v=33
1036116 On ch=1 n=b5 v=33
1036309 On ch=1 n=b6 v=0
1036309 On ch=1 n=f6 v=39
1036380 On ch=1 n=c#7 v=0
1036408 On ch=1 n=b6 v=42
1036444 On ch=1 n=f6 v=0
1036503 On ch=1 n=b6 v=0
1036573 On ch=1 n=f#5 v=0
1036605 On ch=1 n=b5 v=0
1036636 On ch=1 n=c#5 v=0
1036740 On ch=1 n=a#7 v=65
1036750 On ch=1 n=d#5 v=0
1037316 On ch=1 n=c#5 v=32
1037521 On ch=1 n=f5 v=32
1037680 Par ch=1 c=64 v=0
1037760 On ch=1 n=g#5 v=35
1038241 On ch=1 n=b5 v=35
1038400 Par ch=1 c=64 v=127
1038434 On ch=1 n=b5 v=0
1038477 On ch=1 n=c#5 v=0
1038561 On ch=1 n=f5 v=0
1038569 On ch=1 n=g#5 v=0
1039226 On ch=1 n=a#7 v=0
1039557 On ch=1 n=g#7 v=39
1040021 On ch=1 n=f7 v=44
1040402 On ch=1 n=d#7 v=46
1040790 On ch=1 n=b6 v=44
1040817 On ch=1 n=f7 v=0
1040849 On ch=1 n=g#7 v=0
1040894 On ch=1 n=d#7 v=0
1041165 On ch=1 n=a#6 v=54
1041400 On ch=1 n=b6 v=0
1041538 On ch=1 n=g#6 v=56
1041898 On ch=1 n=f6 v=55
1042298 On ch=1 n=d#6 v=51
1042447 Par ch=1 c=64 v=0
1042603 On ch=1 n=a#6 v=0
1042639 Par ch=1 c=64 v=127
1042758 On ch=1 n=g#6 v=0
1042766 On ch=1 n=b5 v=40
1042777 On ch=1 n=f6 v=0
1042839 On ch=1 n=d#6 v=0
1043142 On ch=1 n=a#5 v=49
1043390 On ch=1 n=b5 v=0
1043510 On ch=1 n=g#5 v=57
1043922 On ch=1 n=f5 v=59
1044290 On ch=1 n=a#5 v=0
1044378 On ch=1 n=d#5 v=61
1044417 Par ch=1 c=64 v=0
1044633 Par ch=1 c=64 v=127
1044790 On ch=1 n=b4 v=59
1044910 On ch=1 n=f5 v=0
1044920 On ch=1 n=d#5 v=0
1044935 On ch=1 n=g#5 v=0
1044964 Par ch=1 c=67 v=0
1045188 On ch=1 n=a#4 v=58
1045459 On ch=1 n=b4 v=0
1045716 On ch=1 n=g#4 v=58
1045988 Par ch=1 c=64 v=0
1046015 On ch=1 n=a#4 v=0
1046394 Par ch=1 c=64 v=127
1046435 On ch=1 n=g#4 v=0
1046751 On ch=1 n=f4 v=50
1046931 Par ch=1 c=64 v=0
1047407 Par ch=1 c=64 v=127
1047940 On ch=1 n=d#4 v=45
1048074 On ch=1 n=f4 v=0
1048214 Par ch=1 c=64 v=0
1048644 Par ch=1 c=64 v=127
1049315 On ch=1 n=d#4 v=0
1050087 On ch=1 n=c#4 v=33
1050707 On ch=1 n=c#4 v=0
1050907 On ch=1 n=a#3 v=41
1051564 On ch=1 n=c#6 v=44
1051564 On ch=1 n=f#5 v=35
1051564 On ch=1 n=c#5 v=33
1051699 Par ch=1 c=64 v=0
1051807 Par ch=1 c=64 v=127
1051891 Par ch=1 c=67 v=127
1051971 On ch=1 n=c#5 v=0
1052024 On ch=1 n=f#5 v=0
1052094 On ch=1 n=g#3 v=44
1052283 On ch=1 n=a#3 v=0
1052584 On ch=1 n=a#5 v=40
1052584 On ch=1 n=f#3 v=40
1052587 On ch=1 n=f#5 v=32
1052587 On ch=1 n=c#5 v=32
1052680 On ch=1 n=c#6 v=0
1052719 On ch=1 n=g#3 v=0
1052834 Par ch=1 c=64 v=0
1053156 On ch=1 n=f4 v=38
1053164 Par ch=1 c=64 v=127
1053183 On ch=1 n=c#5 v=0
1053187 On ch=1 n=f#5 v=0
1053207 On ch=1 n=a#5 v=0
1053307 On ch=1 n=f#3 v=0
1054371 Par ch=1 c=64 v=0
1054375 On ch=1 n=d#4 v=25
1054591 On ch=1 n=f4 v=0
1054996 On ch=1 n=d#4 v=0
1055015 Par ch=1 c=64 v=127
1055611 On ch=1 n=a#3 v=42
1055623 Par ch=1 c=64 v=0
1055648 Par ch=1 c=64 v=127
1056211 On ch=1 n=c#5 v=36
1056211 On ch=1 n=f#5 v=36
1056211 On ch=1 n=f#4 v=36
1056436 On ch=1 n=a#3 v=0
1056663 On ch=1 n=f#4 v=0
1056703 On ch=1 n=c#5 v=0
1056727 On ch=1 n=g#3 v=41
1057267 On ch=1 n=c#5 v=32
1057270 On ch=1 n=a#4 v=35
1057276 On ch=1 n=f#4 v=33
1057280 On ch=1 n=f#3 v=37
1057400 On ch=1 n=g#3 v=0
1057415 Par ch=1 c=64 v=0
1057648 Par ch=1 c=64 v=127
1057891 On ch=1 n=d#3 v=36
1057951 On ch=1 n=f#3 v=0
1057967 Par ch=1 c=64 v=0
1057988 On ch=1 n=f#5 v=0
1058014 On ch=1 n=a#4 v=0
1058036 On ch=1 n=c#5 v=0
1058047 On ch=1 n=f#4 v=0
1058363 Par ch=1 c=64 v=127
1059223 On ch=1 n=c#3 v=27
1059383 On ch=1 n=d#3 v=0
1059891 On ch=1 n=c#3 v=0
1060123 Par ch=1 c=64 v=0
1060311 Par ch=1 c=64 v=127
1060975 On ch=1 n=a#3 v=30
1060984 On ch=1 n=a#2 v=33
1061587 On ch=1 n=a#3 v=0
1061619 On ch=1 n=c#5 v=28
1061631 On ch=1 n=f#4 v=25
1061634 On ch=1 n=c#4 v=25
1061971 On ch=1 n=a#2 v=0
1062030 On ch=1 n=f#4 v=0
1062055 On ch=1 n=c#4 v=0
1062143 On ch=1 n=g#2 v=37
1062143 On ch=1 n=g#3 v=34
1062344 On ch=1 n=g#3 v=0
1062575 On ch=1 n=g#2 v=0
1062704 On ch=1 n=f#4 v=24
1062704 On ch=1 n=f#3 v=28
1062711 Par ch=1 c=64 v=0
1062715 On ch=1 n=a#4 v=28
1062715 On ch=1 n=f#2 v=30
1062727 On ch=1 n=c#4 v=22
1062731 On ch=1 n=c#5 v=0
1062850 Par ch=1 c=64 v=127
1062935 On ch=1 n=f#2 v=0
1062955 On ch=1 n=c#4 v=0
1062974 On ch=1 n=f#3 v=0
1063027 On ch=1 n=f#4 v=0
1063224 On ch=1 n=a#4 v=0
1063360 On ch=1 n=f3 v=33
1063371 On ch=1 n=f4 v=32
1063371 Par ch=1 c=64 v=0
1063616 Par ch=1 c=64 v=127
1063944 On ch=1 n=f4 v=0
1064074 On ch=1 n=f3 v=0
1064776 On ch=1 n=d#4 v=32
1064780 On ch=1 n=d#3 v=31
1064915 Par ch=1 c=64 v=0
1065335 On ch=1 n=d#3 v=0
1065363 On ch=1 n=d#4 v=0
1065710 Par ch=1 c=64 v=127
1066267 On ch=1 n=a#2 v=30
1066276 On ch=1 n=a#3 v=31
1066847 On ch=1 n=a#3 v=0
1066896 On ch=1 n=c#5 v=29
1066923 On ch=1 n=f#4 v=26
1066967 On ch=1 n=c#4 v=29
1067263 On ch=1 n=a#2 v=0
1067271 On ch=1 n=f#4 v=0
1067314 On ch=1 n=c#4 v=0
1067467 On ch=1 n=g#2 v=32
1067470 On ch=1 n=g#3 v=30
1067735 On ch=1 n=g#3 v=0
1067756 On ch=1 n=g#2 v=0
1068107 On ch=1 n=f#2 v=32
1068111 On ch=1 n=f#3 v=28
1068111 On ch=1 n=a#4 v=27
1068115 On ch=1 n=f#4 v=25
1068151 Par ch=1 c=64 v=0
1068155 On ch=1 n=c#4 v=16
1068279 On ch=1 n=c#5 v=0
1068354 Par ch=1 c=64 v=127
1068487 On ch=1 n=f#3 v=0
1068540 On ch=1 n=f#2 v=0
1068867 On ch=1 n=d#3 v=25
1068895 On ch=1 n=d#2 v=28
1068899 Par ch=1 c=64 v=0
1069007 On ch=1 n=f#4 v=0
1069007 On ch=1 n=a#4 v=0
1069043 On ch=1 n=c#4 v=0
1069267 Par ch=1 c=64 v=127
1069587 On ch=1 n=d#3 v=0
1069820 On ch=1 n=d#2 v=0
1070591 On ch=1 n=c#3 v=22
1070607 On ch=1 n=c#2 v=23
1070991 Par ch=1 c=64 v=0
1071415 On ch=1 n=c#3 v=0
1071543 On ch=1 n=c#2 v=0
1073951 On ch=1 n=f#2 v=35
1074376 On ch=1 n=f#2 v=0
1076920 On ch=1 n=f#2 v=35
1077427 On ch=1 n=f#2 v=0
1079987 On ch=1 n=f#4 v=51
1079991 On ch=1 n=f#3 v=38
1080035 On ch=1 n=f#2 v=27
1080316 Par ch=1 c=64 v=127
1081371 On ch=1 n=e4 v=52
1081380 On ch=1 n=e3 v=41
1081567 On ch=1 n=f#2 v=0
1081779 Par ch=1 c=64 v=0
1082431 Par ch=1 c=64 v=127
1083314 On ch=1 n=d4 v=46
1083324 On ch=1 n=d3 v=42
1083459 On ch=1 n=e3 v=0
1083967 On ch=1 n=c#4 v=51
1083984 On ch=1 n=c#3 v=46
1084023 On ch=1 n=d4 v=0
1084088 On ch=1 n=e4 v=0
1084104 On ch=1 n=d3 v=0
1084176 Par ch=1 c=64 v=0
1084571 Par ch=1 c=64 v=127
1085263 On ch=1 n=b3 v=38
1085263 On ch=1 n=b2 v=36
1085295 On ch=1 n=c#3 v=0
1085343 Par ch=1 c=64 v=0
1085363 On ch=1 n=c#4 v=0
1085664 Par ch=1 c=64 v=127
1085876 On ch=1 n=b3 v=0
1086556 On ch=1 n=a3 v=36
1086556 On ch=1 n=a2 v=36
1086731 On ch=1 n=b2 v=0
1086784 Par ch=1 c=64 v=0
1087107 Par ch=1 c=64 v=127
1087347 On ch=1 n=a3 v=0
1087576 On ch=1 n=a2 v=0
1088215 On ch=1 n=g3 v=35
1088215 On ch=1 n=g2 v=35
1088323 Par ch=1 c=64 v=0
1088931 On ch=1 n=f#3 v=0
1089556 On ch=1 n=g2 v=0
1089559 On ch=1 n=g3 v=0
1089679 On ch=1 n=f#4 v=0
1091379 On ch=1 n=f#2 v=27
1091747 On ch=1 n=f#2 v=0
1094404 On ch=1 n=f#2 v=29
1094836 On ch=1 n=f#2 v=0
1097491 Par ch=1 c=67 v=0
1097595 On ch=1 n=f#4 v=35
1097595 Par ch=1 c=67 v=127
1097610 On ch=1 n=f#3 v=29
1097643 On ch=1 n=f#2 v=28
1097871 Par ch=1 c=64 v=127
1098474 On ch=1 n=f#2 v=0
1099144 On ch=1 n=f4 v=47
1099176 On ch=1 n=f3 v=36
1099755 Par ch=1 c=64 v=0
1099987 Par ch=1 c=64 v=127
1101263 On ch=1 n=f4 v=0
1101476 On ch=1 n=d#4 v=36
1101479 On ch=1 n=d#3 v=35
1101591 On ch=1 n=f3 v=0
1102191 On ch=1 n=c#4 v=35
1102191 On ch=1 n=c#3 v=35
1102296 On ch=1 n=d#3 v=0
1102371 On ch=1 n=d#4 v=0
1102380 Par ch=1 c=64 v=0
1102944 Par ch=1 c=64 v=127
1103530 On ch=1 n=b3 v=35
1103534 On ch=1 n=b2 v=35
1103694 On ch=1 n=c#3 v=0
1103760 Par ch=1 c=64 v=0
1103771 On ch=1 n=c#4 v=0
1104143 Par ch=1 c=64 v=127
1104367 On ch=1 n=b3 v=0
1104591 On ch=1 n=b2 v=0
1105011 On ch=1 n=a#3 v=35
1105011 On ch=1 n=a#2 v=35
1105314 Par ch=1 c=64 v=0
1105694 Par ch=1 c=64 v=127
1106291 On ch=1 n=a#2 v=0
1106810 On ch=1 n=a3 v=35
1106816 On ch=1 n=a2 v=35
1107188 Par ch=1 c=64 v=0
1107515 On ch=1 n=f#4 v=0
1107531 On ch=1 n=f#3 v=0
1107595 On ch=1 n=a#3 v=0
1107771 On ch=1 n=a2 v=0
1107900 On ch=1 n=a3 v=0
1110967 On ch=1 n=f#2 v=35
1111255 On ch=1 n=f#2 v=0
1114356 On ch=1 n=f#2 v=30
1114771 On ch=1 n=f#2 v=0
1116570 On ch=1 n=f#2 v=52
1116627 On ch=1 n=f#2 v=0
1116627 On ch=1 n=f#3 v=55
1116671 On ch=1 n=f#3 v=0
1117175 On ch=1 n=f#4 v=59
1117227 On ch=1 n=f#4 v=0
1117251 On ch=1 n=f#5 v=80
1117760 Par ch=1 c=64 v=127
1117907 On ch=1 n=f#5 v=0
1117960 On ch=1 n=a4 v=69
1117967 Par ch=1 c=64 v=0
1118194 Par ch=1 c=64 v=127
1118504 On ch=1 n=a4 v=0
1118547 On ch=1 n=a#4 v=70
1118591 Par ch=1 c=64 v=0
1118624 On ch=1 n=a#4 v=0
1118627 On ch=1 n=c#5 v=88
1119031 Par ch=1 c=64 v=127
1119155 On ch=1 n=c#5 v=0
1119611 On ch=1 n=c5 v=56
1119687 On ch=1 n=c5 v=0
1119708 On ch=1 n=a4 v=59
1119736 Par ch=1 c=64 v=0
1119760 On ch=1 n=a4 v=0
1119775 On ch=1 n=f#4 v=59
1119875 On ch=1 n=f#4 v=0
1119880 On ch=1 n=d#4 v=63
1119935 On ch=1 n=d#4 v=0
1120744 On ch=1 n=d4 v=54
1120787 On ch=1 n=d4 v=0
1120888 On ch=1 n=d#4 v=67
1120964 On ch=1 n=d#4 v=0
1121027 On ch=1 n=f4 v=74
1121084 On ch=1 n=f4 v=0
1121188 On ch=1 n=g#4 v=92
1121471 Par ch=1 c=64 v=127
1121875 On ch=1 n=g#4 v=0
1122207 On ch=1 n=f#4 v=57
1122291 On ch=1 n=d#4 v=59
1122307 On ch=1 n=f#4 v=0
1122355 On ch=1 n=d#4 v=0
1122380 On ch=1 n=c4 v=56
1122387 Par ch=1 c=64 v=0
1122447 On ch=1 n=a3 v=66
1122457 On ch=1 n=c4 v=0
1122500 On ch=1 n=a3 v=0
1123360 Par ch=1 c=64 v=127
1123520 On ch=1 n=a3 v=59
1123540 On ch=1 n=a#3 v=65
1123568 On ch=1 n=a3 v=0
1123584 On ch=1 n=a#3 v=0
1123613 On ch=1 n=c4 v=71
1123660 Par ch=1 c=64 v=0
1123660 On ch=1 n=c#4 v=75
1123670 On ch=1 n=c4 v=0
1123697 On ch=1 n=c#4 v=0
1123841 On ch=1 n=c#4 v=64
1123881 On ch=1 n=c#4 v=0
1123997 On ch=1 n=c#4 v=59
1124042 On ch=1 n=c#4 v=0
1124145 On ch=1 n=c#4 v=68
1124190 On ch=1 n=c#4 v=0
1124301 On ch=1 n=c#4 v=64
1124448 On ch=1 n=c4 v=62
1124509 On ch=1 n=a#3 v=64
1124517 On ch=1 n=c#4 v=0
1124541 On ch=1 n=c4 v=0
1124577 On ch=1 n=f4 v=63
1124585 On ch=1 n=a#3 v=0
1124618 On ch=1 n=f4 v=0
1124721 On ch=1 n=e4 v=67
1124758 On ch=1 n=e4 v=0
1124877 On ch=1 n=d#4 v=68
1124938 On ch=1 n=d#4 v=0
1125021 On ch=1 n=f#4 v=63
1125048 On ch=1 n=f#4 v=0
1125154 On ch=1 n=a#4 v=66
1125202 On ch=1 n=a#4 v=0
1125308 On ch=1 n=c#5 v=72
1125350 On ch=1 n=c#5 v=0
1125465 On ch=1 n=c5 v=81
1125509 On ch=1 n=c5 v=0
1125601 On ch=1 n=a4 v=63
1125638 On ch=1 n=a4 v=0
1125758 On ch=1 n=f#4 v=64
1125818 On ch=1 n=f#4 v=0
1125889 On ch=1 n=d#4 v=66
1125937 On ch=1 n=d#4 v=0
1126021 On ch=1 n=c#4 v=70
1126081 On ch=1 n=c#4 v=0
1126189 On ch=1 n=f4 v=61
1126241 On ch=1 n=f4 v=0
1126337 On ch=1 n=a4 v=64
1126370 On ch=1 n=a4 v=0
1126470 On ch=1 n=c5 v=68
1126505 On ch=1 n=c5 v=0
1126608 On ch=1 n=a#4 v=76
1126645 On ch=1 n=a#4 v=0
1126770 On ch=1 n=f#4 v=62
1126809 On ch=1 n=f#4 v=0
1126901 On ch=1 n=f4 v=61
1126957 On ch=1 n=f4 v=0
1127029 On ch=1 n=c#4 v=66
1127085 On ch=1 n=c#4 v=0
1127209 On ch=1 n=c4 v=72
1127248 On ch=1 n=c4 v=0
1127348 On ch=1 n=d#4 v=62
1127388 On ch=1 n=d#4 v=0
1127494 On ch=1 n=f#4 v=65
1127525 On ch=1 n=f#4 v=0
1127629 On ch=1 n=a#4 v=65
1127673 On ch=1 n=a#4 v=0
1127777 On ch=1 n=c4 v=65
1127829 On ch=1 n=c4 v=0
1127918 On ch=1 n=d#4 v=64
1127977 On ch=1 n=d#4 v=0
1128081 On ch=1 n=f#4 v=67
1128161 On ch=1 n=f#4 v=0
1128208 On ch=1 n=a4 v=68
1128250 On ch=1 n=a4 v=0
1128361 On ch=1 n=c#6 v=92
1128373 On ch=1 n=a#3 v=66
1128421 On ch=1 n=a#3 v=0
1128501 On ch=1 n=c#4 v=65
1128561 On ch=1 n=c#4 v=0
1128650 On ch=1 n=f4 v=68
1128685 On ch=1 n=f4 v=0
1128805 On ch=1 n=a4 v=69
1128834 On ch=1 n=a4 v=0
1128941 On ch=1 n=a#4 v=70
1128941 On ch=1 n=e5 v=74
1128985 On ch=1 n=a#4 v=0
1128995 On ch=1 n=c#6 v=0
1129078 On ch=1 n=c#5 v=63
1129115 On ch=1 n=c#5 v=0
1129187 Par ch=1 c=67 v=0
1129227 On ch=1 n=g#4 v=66
1129278 On ch=1 n=g#4 v=0
1129355 On ch=1 n=c#5 v=64
1129411 On ch=1 n=c#5 v=0
1129411 On ch=1 n=e5 v=0
1129422 On ch=1 n=f5 v=75
1129486 On ch=1 n=g#5 v=78
1129498 On ch=1 n=f5 v=0
1129502 On ch=1 n=f4 v=69
1129545 On ch=1 n=f4 v=0
1129591 Par ch=1 c=67 v=127
1129651 On ch=1 n=c#5 v=61
1129694 On ch=1 n=c#5 v=0
1129802 On ch=1 n=e4 v=60
1129845 On ch=1 n=e4 v=0
1129946 On ch=1 n=c#5 v=67
1129982 On ch=1 n=c#5 v=0
1130094 On ch=1 n=c5 v=65
1130134 On ch=1 n=c5 v=0
1130230 On ch=1 n=b4 v=66
1130262 On ch=1 n=b4 v=0
1130378 On ch=1 n=g5 v=60
1130382 On ch=1 n=a#4 v=62
1130405 On ch=1 n=a#4 v=0
1130441 On ch=1 n=e5 v=60
1130487 On ch=1 n=g#5 v=0
1130530 On ch=1 n=c#5 v=71
1130538 On ch=1 n=g5 v=0
1130585 On ch=1 n=e5 v=0
1130614 On ch=1 n=a#4 v=63
1130624 On ch=1 n=c#5 v=0
1130655 On ch=1 n=a#4 v=0
1130799 On ch=1 n=g4 v=58
1130839 On ch=1 n=g4 v=0
1130924 On ch=1 n=f#4 v=58
1130975 On ch=1 n=f#4 v=0
1131064 On ch=1 n=f4 v=54
1131099 On ch=1 n=f4 v=0
1131222 On ch=1 n=e4 v=56
1131271 On ch=1 n=e4 v=0
1131359 On ch=1 n=d#4 v=62
1131375 On ch=1 n=a4 v=61
1131395 On ch=1 n=d#4 v=0
1131405 On ch=1 n=a4 v=0
1131492 On ch=1 n=c#4 v=61
1131509 On ch=1 n=a#4 v=69
1131536 On ch=1 n=c#4 v=0
1131548 On ch=1 n=a#4 v=0
1131641 On ch=1 n=c5 v=79
1131652 On ch=1 n=c4 v=64
1131689 On ch=1 n=c4 v=0
1131689 On ch=1 n=c5 v=0
1131779 On ch=1 n=b3 v=71
1131789 On ch=1 n=d#5 v=85
1131817 On ch=1 n=b3 v=0
1131938 On ch=1 n=g#4 v=62
1131981 On ch=1 n=g#4 v=0
1132078 On ch=1 n=a#3 v=64
1132117 On ch=1 n=a#3 v=0
1132218 On ch=1 n=g4 v=63
1132256 On ch=1 n=g4 v=0
1132370 On ch=1 n=a3 v=59
1132425 On ch=1 n=a3 v=0
1132518 On ch=1 n=f#4 v=61
1132566 On ch=1 n=f#4 v=0
1132656 On ch=1 n=a#3 v=56
1132678 On ch=1 n=c#5 v=57
1132693 On ch=1 n=a#3 v=0
1132749 On ch=1 n=d#5 v=0
1132761 On ch=1 n=a#4 v=60
1132816 On ch=1 n=c#5 v=0
1132845 On ch=1 n=g4 v=65
1132862 On ch=1 n=a#4 v=0
1132886 On ch=1 n=g4 v=0
1132933 On ch=1 n=e4 v=59
1132977 On ch=1 n=e4 v=0
1133086 On ch=1 n=c#4 v=61
1133129 On ch=1 n=c#4 v=0
1133245 On ch=1 n=c4 v=56
1133289 On ch=1 n=c4 v=0
1133369 On ch=1 n=b3 v=61
1133413 On ch=1 n=b3 v=0
1133505 On ch=1 n=a#3 v=71
1133549 On ch=1 n=a#3 v=0
1133665 On ch=1 n=a3 v=58
1133709 On ch=1 n=a3 v=0
1133798 On ch=1 n=g#3 v=59
1133845 On ch=1 n=g#3 v=0
1133933 On ch=1 n=g3 v=56
1133966 On ch=1 n=g3 v=0
1133993 On ch=1 n=e4 v=49
1134009 On ch=1 n=f4 v=57
1134036 On ch=1 n=e4 v=0
1134036 On ch=1 n=g4 v=51
1134057 On ch=1 n=f3 v=63
1134089 On ch=1 n=g#4 v=64
1134098 On ch=1 n=g4 v=0
1134098 On ch=1 n=f4 v=0
1134101 On ch=1 n=f3 v=0
1134129 On ch=1 n=g#4 v=0
1134253 On ch=1 n=g#4 v=70
1134293 On ch=1 n=g#4 v=0
1134313 Par ch=1 c=67 v=0
1134409 On ch=1 n=g#4 v=69
1134413 On ch=1 n=b3 v=85
1134438 On ch=1 n=g#4 v=0
1134549 On ch=1 n=g#4 v=68
1134578 On ch=1 n=g#4 v=0
1134682 On ch=1 n=c4 v=75
1134697 On ch=1 n=b3 v=0
1134702 On ch=1 n=g#4 v=54
1134713 On ch=1 n=c4 v=0
1134796 Par ch=1 c=67 v=127
1134856 On ch=1 n=g4 v=70
1134862 On ch=1 n=g#4 v=0
1134910 On ch=1 n=f4 v=60
1134953 On ch=1 n=g4 v=0
1134956 On ch=1 n=f4 v=0
1134977 On ch=1 n=c5 v=69
1134989 On ch=1 n=d#4 v=88
1135037 On ch=1 n=c5 v=0
1135126 On ch=1 n=b4 v=76
1135165 On ch=1 n=b4 v=0
1135289 On ch=1 n=c#4 v=74
1135297 On ch=1 n=d#4 v=0
1135305 On ch=1 n=a#4 v=66
1135316 On ch=1 n=c#4 v=0
1135346 On ch=1 n=a#4 v=0
1135433 On ch=1 n=c#5 v=66
1135477 On ch=1 n=c#5 v=0
1135589 On ch=1 n=g#4 v=90
1135605 On ch=1 n=f5 v=64
1135622 On ch=1 n=g#4 v=0
1135658 On ch=1 n=f5 v=0
1135741 On ch=1 n=g#5 v=71
1135773 On ch=1 n=g#5 v=0
1135898 On ch=1 n=g5 v=74
1135898 On ch=1 n=a#3 v=72
1135946 On ch=1 n=g5 v=0
1136066 On ch=1 n=e5 v=61
1136081 On ch=1 n=e5 v=0
1136185 On ch=1 n=a#3 v=0
1136202 On ch=1 n=c#5 v=62
1136233 On ch=1 n=c#5 v=0
1136329 On ch=1 n=g3 v=70
1136337 On ch=1 n=a#4 v=60
1136373 On ch=1 n=g#3 v=75
1136389 On ch=1 n=a#4 v=0
1136405 On ch=1 n=a#3 v=76
1136437 On ch=1 n=g3 v=0
1136473 On ch=1 n=c4 v=80
1136489 On ch=1 n=g#3 v=0
1136496 On ch=1 n=a#3 v=0
1136496 On ch=1 n=g#4 v=62
1136498 On ch=1 n=c4 v=0
1136525 On ch=1 n=g#4 v=0
1136633 On ch=1 n=c5 v=64
1136678 On ch=1 n=c5 v=0
1136781 On ch=1 n=g4 v=72
1136789 On ch=1 n=e5 v=66
1136829 On ch=1 n=e5 v=0
1136829 On ch=1 n=g4 v=0
1136933 On ch=1 n=g5 v=70
1136965 On ch=1 n=g5 v=0
1137082 On ch=1 n=f5 v=77
1137097 On ch=1 n=g#3 v=75
1137117 On ch=1 n=f5 v=0
1137229 On ch=1 n=c#5 v=66
1137272 On ch=1 n=c#5 v=0
1137362 On ch=1 n=g#3 v=0
1137376 On ch=1 n=c5 v=57
1137409 On ch=1 n=c5 v=0
1137497 On ch=1 n=f3 v=72
1137533 On ch=1 n=g3 v=70
1137536 On ch=1 n=g#4 v=58
1137577 On ch=1 n=g#3 v=75
1137585 On ch=1 n=f3 v=0
1137596 On ch=1 n=g#4 v=0
1137596 On ch=1 n=g3 v=0
1137645 On ch=1 n=g#3 v=0
1137656 On ch=1 n=a#3 v=78
1137666 On ch=1 n=g4 v=66
1137693 On ch=1 n=a#3 v=0
1137707 On ch=1 n=g4 v=0
1137798 On ch=1 n=a#3 v=73
1137813 On ch=1 n=a#4 v=63
1137850 On ch=1 n=a#4 v=0
1137855 On ch=1 n=a#3 v=0
1137955 On ch=1 n=c#5 v=57
1137966 On ch=1 n=a#3 v=71
1138002 On ch=1 n=a#3 v=0
1138002 On ch=1 n=c#5 v=0
1138103 On ch=1 n=a#3 v=68
1138103 On ch=1 n=f5 v=70
1138139 On ch=1 n=a#3 v=0
1138146 On ch=1 n=f5 v=0
1138238 On ch=1 n=a#3 v=68
1138249 On ch=1 n=g4 v=64
1138287 On ch=1 n=g4 v=0
1138378 On ch=1 n=a#3 v=0
1138389 On ch=1 n=g#3 v=68
1138406 On ch=1 n=a#4 v=71
1138435 On ch=1 n=g3 v=68
1138450 On ch=1 n=a#4 v=0
1138503 On ch=1 n=g#3 v=0
1138514 On ch=1 n=c4 v=77
1138534 On ch=1 n=c#5 v=67
1138546 On ch=1 n=g3 v=0
1138579 On ch=1 n=c#5 v=0
1138579 On ch=1 n=c4 v=0
1138682 On ch=1 n=e5 v=73
1138682 On ch=1 n=a#3 v=65
1138710 On ch=1 n=e5 v=0
1138727 On ch=1 n=a#3 v=0
1138807 On ch=1 n=a3 v=70
1138835 On ch=1 n=f#4 v=69
1138850 On ch=1 n=a3 v=0
1138883 On ch=1 n=f#4 v=0
1138955 On ch=1 n=a3 v=63
1138974 On ch=1 n=b4 v=62
1139015 On ch=1 n=a3 v=0
1139023 On ch=1 n=b4 v=0
1139110 On ch=1 n=c5 v=65
1139114 On ch=1 n=a3 v=70
1139150 On ch=1 n=a3 v=0
1139154 On ch=1 n=c5 v=0
1139246 On ch=1 n=a3 v=61
1139256 On ch=1 n=d#5 v=71
1139292 On ch=1 n=d#5 v=0
1139307 On ch=1 n=a3 v=0
1139400 On ch=1 n=g#3 v=65
1139419 On ch=1 n=f4 v=59
1139491 On ch=1 n=f4 v=0
1139523 On ch=1 n=f#3 v=76
1139533 On ch=1 n=g#3 v=0
1139564 On ch=1 n=b4 v=70
1139587 On ch=1 n=f3 v=53
1139616 On ch=1 n=b4 v=0
1139624 On ch=1 n=f3 v=0
1139624 On ch=1 n=f#3 v=0
1139660 On ch=1 n=a#3 v=73
1139684 On ch=1 n=d5 v=56
1139701 On ch=1 n=a#3 v=0
1139736 On ch=1 n=d5 v=0
1139804 On ch=1 n=f5 v=68
1139821 On ch=1 n=g#3 v=71
1139847 On ch=1 n=g#3 v=0
1139847 On ch=1 n=f5 v=0
1139968 On ch=1 n=f#3 v=71
1139972 On ch=1 n=d#5 v=75
1140012 On ch=1 n=f#3 v=0
1140120 On ch=1 n=a#3 v=57
1140164 On ch=1 n=a#3 v=0
1140207 On ch=1 n=d#5 v=0
1140253 On ch=1 n=f#6 v=92
1140268 On ch=1 n=d#4 v=57
1140361 On ch=1 n=d#4 v=0
1140408 On ch=1 n=f#4 v=63
1140437 On ch=1 n=f#4 v=0
1140560 On ch=1 n=b4 v=65
1140564 On ch=1 n=a5 v=84
1140568 On ch=1 n=f5 v=65
1140576 On ch=1 n=f#6 v=0
1140580 Par ch=1 c=67 v=0
1140590 On ch=1 n=f5 v=0
1140590 On ch=1 n=b4 v=0
1140681 On ch=1 n=d#5 v=63
1140726 On ch=1 n=d#5 v=0
1140825 On ch=1 n=f#5 v=88
1140829 On ch=1 n=a#4 v=67
1140865 On ch=1 n=a#4 v=0
1140986 Par ch=1 c=67 v=127
1140994 On ch=1 n=d5 v=51
1141034 On ch=1 n=d5 v=0
1141064 On ch=1 n=a5 v=0
1141074 On ch=1 n=a#5 v=69
1141103 On ch=1 n=c#6 v=81
1141118 On ch=1 n=a4 v=61
1141138 On ch=1 n=a#5 v=0
1141154 On ch=1 n=a4 v=0
1141274 On ch=1 n=c#5 v=52
1141321 On ch=1 n=c#5 v=0
1141422 On ch=1 n=g#4 v=61
1141434 On ch=1 n=f5 v=67
1141446 On ch=1 n=g#4 v=0
1141523 On ch=1 n=f#5 v=0
1141570 On ch=1 n=c5 v=63
1141598 On ch=1 n=c5 v=0
1141691 On ch=1 n=f5 v=0
1141734 On ch=1 n=g4 v=60
1141734 On ch=1 n=e5 v=58
1141770 On ch=1 n=g4 v=0
1141798 On ch=1 n=c#6 v=0
1141870 On ch=1 n=b4 v=58
1141914 On ch=1 n=b4 v=0
1141943 On ch=1 n=e5 v=0
1142021 On ch=1 n=d#5 v=48
1142031 On ch=1 n=f#4 v=58
1142042 On ch=1 n=c6 v=62
1142061 On ch=1 n=f#4 v=0
1142078 On ch=1 n=d#5 v=0
1142122 On ch=1 n=a5 v=59
1142166 On ch=1 n=c6 v=0
1142194 On ch=1 n=f#5 v=65
1142243 On ch=1 n=a5 v=0
1142283 On ch=1 n=d#5 v=71
1142287 On ch=1 n=f#5 v=0
1142318 On ch=1 n=d#5 v=0
1142462 On ch=1 n=c#5 v=67
1142462 On ch=1 n=f5 v=64
1142490 On ch=1 n=c#5 v=0
1142494 On ch=1 n=f5 v=0
1142538 Par ch=1 c=67 v=0
1142598 On ch=1 n=c5 v=58
1142598 On ch=1 n=d#5 v=61
1142638 On ch=1 n=c5 v=0
1142643 On ch=1 n=d#5 v=0
1142734 On ch=1 n=c#5 v=70
1142734 On ch=1 n=a#4 v=70
1142757 On ch=1 n=a#4 v=0
1142767 On ch=1 n=c#5 v=0
1142874 On ch=1 n=a4 v=75
1142881 On ch=1 n=c5 v=77
1142927 On ch=1 n=c5 v=0
1142934 On ch=1 n=a4 v=0
1143014 On ch=1 n=g#4 v=76
1143018 On ch=1 n=d5 v=65
1143018 On ch=1 n=b4 v=62
1143054 On ch=1 n=b4 v=0
1143054 On ch=1 n=d5 v=0
1143054 On ch=1 n=g#4 v=0
1143162 On ch=1 n=a#4 v=74
1143162 On ch=1 n=d#5 v=64
1143162 On ch=1 n=f#4 v=59
1143194 On ch=1 n=a#4 v=0
1143198 On ch=1 n=d#5 v=0
1143202 On ch=1 n=f#4 v=0
1143302 On ch=1 n=f5 v=77
1143302 On ch=1 n=a4 v=70
1143302 On ch=1 n=f4 v=76
1143334 On ch=1 n=f4 v=0
1143341 On ch=1 n=a4 v=0
1143343 On ch=1 n=f5 v=0
1143454 On ch=1 n=g#5 v=82
1143454 On ch=1 n=e4 v=66
1143463 On ch=1 n=c#5 v=85
1143494 On ch=1 n=e4 v=0
1143598 On ch=1 n=g#4 v=64
1143603 Par ch=1 c=67 v=127
1143634 On ch=1 n=g#4 v=0
1143743 On ch=1 n=d#4 v=55
1143750 On ch=1 n=c#5 v=0
1143758 On ch=1 n=c5 v=70
1143791 On ch=1 n=d#4 v=0
1143923 On ch=1 n=g4 v=46
1143954 On ch=1 n=g4 v=0
1144027 On ch=1 n=c5 v=0
1144062 On ch=1 n=d4 v=55
1144074 On ch=1 n=b4 v=65
1144103 On ch=1 n=d4 v=0
1144134 On ch=1 n=g#5 v=0
1144210 On ch=1 n=f#4 v=55
1144281 On ch=1 n=f#4 v=0
1144342 On ch=1 n=b4 v=0
1144358 On ch=1 n=d#4 v=58
1144374 On ch=1 n=f#5 v=64
1144374 On ch=1 n=a#4 v=55
1144391 On ch=1 n=d#4 v=0
1144418 On ch=1 n=a#4 v=0
1144438 On ch=1 n=d#5 v=57
1144514 On ch=1 n=f#5 v=0
1144523 On ch=1 n=c5 v=62
1144570 On ch=1 n=d#5 v=0
1144622 On ch=1 n=a4 v=69
1144626 On ch=1 n=c5 v=0
1144655 On ch=1 n=a4 v=0
1144774 On ch=1 n=f#4 v=62
1144774 On ch=1 n=d#5 v=60
1144806 On ch=1 n=d#5 v=0
1144817 On ch=1 n=f#4 v=0
1144910 On ch=1 n=d5 v=73
1144914 On ch=1 n=f4 v=69
1144942 On ch=1 n=d5 v=0
1144954 On ch=1 n=f4 v=0
1145047 On ch=1 n=c#5 v=77
1145047 On ch=1 n=e4 v=77
1145078 On ch=1 n=e4 v=0
1145078 On ch=1 n=c#5 v=0
1145183 On ch=1 n=c5 v=77
1145183 On ch=1 n=d#4 v=55
1145227 On ch=1 n=c5 v=0
1145231 On ch=1 n=d#4 v=0
1145323 Par ch=1 c=67 v=0
1145334 On ch=1 n=d#4 v=60
1145334 On ch=1 n=f#4 v=62
1145370 On ch=1 n=f#4 v=0
1145374 On ch=1 n=d#4 v=0
1145474 On ch=1 n=c#4 v=66
1145474 On ch=1 n=f4 v=57
1145503 On ch=1 n=f4 v=0
1145518 On ch=1 n=c#4 v=0
1145601 On ch=1 n=c4 v=53
1145611 On ch=1 n=d#4 v=51
1145648 On ch=1 n=c4 v=0
1145663 On ch=1 n=d#4 v=0
1145663 On ch=1 n=a4 v=46
1145684 On ch=1 n=a#4 v=67
1145699 On ch=1 n=c5 v=64
1145707 On ch=1 n=a4 v=0
1145731 On ch=1 n=c#4 v=60
1145740 On ch=1 n=a#3 v=59
1145767 On ch=1 n=c5 v=0
1145767 On ch=1 n=a#4 v=0
1145767 On ch=1 n=c#5 v=65
1145788 On ch=1 n=a#3 v=0
1145788 On ch=1 n=c#4 v=0
1145799 On ch=1 n=c#5 v=0
1145799 Par ch=1 c=67 v=127
1145919 On ch=1 n=c#5 v=71
1145948 On ch=1 n=c#5 v=0
1146068 On ch=1 n=g4 v=80
1146068 On ch=1 n=e4 v=70
1146071 On ch=1 n=c#5 v=65
1146112 On ch=1 n=c#5 v=0
1146200 On ch=1 n=c#5 v=66
1146248 On ch=1 n=c#5 v=0
1146339 On ch=1 n=e4 v=0
1146348 On ch=1 n=g#4 v=72
1146351 On ch=1 n=g4 v=0
1146351 On ch=1 n=f4 v=73
1146378 On ch=1 n=g#4 v=0
1146378 On ch=1 n=c#5 v=65
1146388 On ch=1 n=f4 v=0
1146515 On ch=1 n=c5 v=62
1146571 On ch=1 n=a#4 v=67
1146598 On ch=1 n=c#5 v=0
1146608 On ch=1 n=a#4 v=0
1146608 On ch=1 n=c5 v=0
1146631 On ch=1 n=f5 v=66
1146647 On ch=1 n=c#4 v=86
1146647 On ch=1 n=a4 v=86
1146708 On ch=1 n=f5 v=0
1146795 On ch=1 n=e5 v=70
1146831 On ch=1 n=e5 v=0
1146855 Par ch=1 c=67 v=0
1146948 On ch=1 n=f#4 v=70
1146955 On ch=1 n=a4 v=0
1146955 On ch=1 n=a#4 v=71
1146955 On ch=1 n=d#5 v=49
1146964 On ch=1 n=a#4 v=0
1146964 On ch=1 n=c#4 v=0
1146979 On ch=1 n=f#4 v=0
1146991 On ch=1 n=d#5 v=0
1147099 On ch=1 n=f#5 v=59
1147138 On ch=1 n=f#5 v=0
1147240 On ch=1 n=a#5 v=63
1147240 On ch=1 n=c#5 v=86
1147247 On ch=1 n=f5 v=82
1147255 Par ch=1 c=67 v=127
1147278 On ch=1 n=f5 v=0
1147288 On ch=1 n=a#5 v=0
1147295 On ch=1 n=c#5 v=0
1147392 On ch=1 n=c#6 v=68
1147431 On ch=1 n=c#6 v=0
1147559 On ch=1 n=c6 v=71
1147571 On ch=1 n=f#4 v=69
1147571 On ch=1 n=d#4 v=65
1147600 On ch=1 n=c6 v=0
1147711 On ch=1 n=g#5 v=63
1147759 On ch=1 n=g#5 v=0
1147787 On ch=1 n=d#4 v=0
1147798 On ch=1 n=f#4 v=0
1147867 On ch=1 n=f#5 v=59
1147900 On ch=1 n=f#5 v=0
1147998 On ch=1 n=d#5 v=61
1148004 On ch=1 n=c4 v=59
1148015 On ch=1 n=c#4 v=68
1148043 On ch=1 n=d#5 v=0
1148072 On ch=1 n=d#4 v=70
1148091 On ch=1 n=f4 v=73
1148115 On ch=1 n=c4 v=0
1148131 On ch=1 n=g#4 v=85
1148140 On ch=1 n=c#4 v=0
1148151 On ch=1 n=d#4 v=0
1148155 On ch=1 n=c#5 v=64
1148159 On ch=1 n=f4 v=0
1148167 On ch=1 n=g#4 v=0
1148199 On ch=1 n=c#5 v=0
1148288 On ch=1 n=f5 v=66
1148319 On ch=1 n=f5 v=0
1148435 On ch=1 n=g#5 v=59
1148435 On ch=1 n=d#5 v=68
1148435 On ch=1 n=c5 v=63
1148467 On ch=1 n=d#5 v=0
1148471 On ch=1 n=g#5 v=0
1148478 On ch=1 n=c5 v=0
1148588 On ch=1 n=c6 v=67
1148618 On ch=1 n=c6 v=0
1148732 On ch=1 n=f4 v=65
1148732 On ch=1 n=a#5 v=73
1148759 On ch=1 n=c#4 v=56
1148778 On ch=1 n=a#5 v=0
1148895 On ch=1 n=f#5 v=59
1148939 On ch=1 n=f#5 v=0
1149035 On ch=1 n=f5 v=45
1149051 On ch=1 n=c#4 v=0
1149068 On ch=1 n=f5 v=0
1149080 On ch=1 n=f4 v=0
1149140 On ch=1 n=a#3 v=57
1149171 On ch=1 n=c#5 v=59
1149188 On ch=1 n=c4 v=66
1149218 On ch=1 n=c#4 v=71
1149228 On ch=1 n=c#5 v=0
1149244 On ch=1 n=a#3 v=0
1149261 On ch=1 n=c4 v=0
1149289 On ch=1 n=c5 v=70
1149289 On ch=1 n=d#4 v=80
1149304 On ch=1 n=c#4 v=0
1149325 On ch=1 n=d#4 v=0
1149336 On ch=1 n=c5 v=0
1149437 On ch=1 n=d#5 v=62
1149456 On ch=1 n=f#4 v=61
1149472 On ch=1 n=d#5 v=0
1149500 On ch=1 n=f#4 v=0
1149577 On ch=1 n=f#5 v=54
1149581 On ch=1 n=a#4 v=57
1149625 On ch=1 n=a#4 v=0
1149628 On ch=1 n=f#5 v=0
1149717 On ch=1 n=a#5 v=68
1149720 On ch=1 n=c#5 v=59
1149752 On ch=1 n=a#5 v=0
1149764 On ch=1 n=c#5 v=0
1149876 On ch=1 n=d#4 v=62
1149888 On ch=1 n=c5 v=55
1149915 On ch=1 n=c5 v=0
1149925 On ch=1 n=d#4 v=0
1150009 On ch=1 n=f#4 v=63
1150009 On ch=1 n=d#5 v=63
1150048 On ch=1 n=d#5 v=0
1150065 On ch=1 n=f#4 v=0
1150155 On ch=1 n=f#5 v=64
1150161 On ch=1 n=a4 v=59
1150192 On ch=1 n=f#5 v=0
1150200 On ch=1 n=a4 v=0
1150292 On ch=1 n=c5 v=58
1150296 On ch=1 n=a5 v=62
1150329 On ch=1 n=a5 v=0
1150332 On ch=1 n=c5 v=0
1150445 On ch=1 n=f4 v=62
1150445 On ch=1 n=g#5 v=63
1150481 On ch=1 n=g#5 v=0
1150500 On ch=1 n=f4 v=0
1150577 On ch=1 n=g#4 v=63
1150577 On ch=1 n=b5 v=69
1150578 On ch=1 n=b5 v=0
1150601 On ch=1 n=g#4 v=0
1150657 On ch=1 n=d#6 v=78
1150657 On ch=1 n=b4 v=54
1150752 On ch=1 n=d#6 v=0
1150761 On ch=1 n=b4 v=0
1150841 On ch=1 n=d#5 v=62
1150849 On ch=1 n=f#6 v=89
1150872 On ch=1 n=f#6 v=0
1150888 On ch=1 n=d#5 v=0
1150997 On ch=1 n=f6 v=89
1150997 On ch=1 n=d5 v=69
1151041 On ch=1 n=f6 v=0
1151045 On ch=1 n=d5 v=0
1151128 On ch=1 n=d6 v=78
1151135 On ch=1 n=b4 v=55
1151156 On ch=1 n=d6 v=0
1151216 On ch=1 n=b4 v=0
1151255 On ch=1 n=g#4 v=61
1151265 On ch=1 n=b5 v=68
1151294 On ch=1 n=b5 v=0
1151294 On ch=1 n=g#4 v=0
1151405 On ch=1 n=g#5 v=65
1151405 On ch=1 n=d4 v=57
1151433 On ch=1 n=g#5 v=0
1151433 On ch=1 n=d#4 v=70
1151465 On ch=1 n=d4 v=0
1151493 On ch=1 n=f4 v=70
1151526 On ch=1 n=d#4 v=0
1151537 On ch=1 n=d#5 v=79
1151552 On ch=1 n=f#4 v=81
1151569 On ch=1 n=f4 v=0
1151585 On ch=1 n=f#4 v=0
1151585 On ch=1 n=d#5 v=0
1151689 On ch=1 n=f#5 v=65
1151714 On ch=1 n=a#4 v=70
1151733 On ch=1 n=f#5 v=0
1151745 On ch=1 n=a#4 v=0
1151834 On ch=1 n=a#5 v=70
1151849 On ch=1 n=c#5 v=57
1151861 On ch=1 n=a#5 v=0
1151894 On ch=1 n=c#5 v=0
1151965 On ch=1 n=f5 v=70
1151965 On ch=1 n=c#6 v=83
1151998 On ch=1 n=f5 v=0
1152002 On ch=1 n=c#6 v=0
1152118 On ch=1 n=d#5 v=69
1152129 On ch=1 n=f#4 v=72
1152149 On ch=1 n=d#5 v=0
1152192 On ch=1 n=f#4 v=0
1152254 On ch=1 n=f#5 v=69
1152262 On ch=1 n=a4 v=62
1152298 On ch=1 n=f#5 v=0
1152321 On ch=1 n=a4 v=0
1152401 On ch=1 n=c5 v=66
1152405 On ch=1 n=a5 v=64
1152433 On ch=1 n=a5 v=0
1152433 On ch=1 n=c5 v=0
1152525 On ch=1 n=d#5 v=61
1152534 On ch=1 n=c6 v=73
1152566 On ch=1 n=c6 v=0
1152581 On ch=1 n=d#5 v=0
1152689 On ch=1 n=g#4 v=57
1152694 On ch=1 n=b5 v=65
1152733 On ch=1 n=b5 v=0
1152818 On ch=1 n=d#6 v=72
1152833 On ch=1 n=b4 v=62
1152841 On ch=1 n=g#4 v=0
1152849 On ch=1 n=d#6 v=0
1152925 On ch=1 n=b4 v=0
1152954 On ch=1 n=f#6 v=74
1152954 On ch=1 n=d#5 v=64
1152989 On ch=1 n=f#6 v=0
1153001 On ch=1 n=d#5 v=0
1153094 On ch=1 n=f#5 v=62
1153094 On ch=1 n=a#6 v=82
1153118 On ch=1 n=a#6 v=0
1153141 On ch=1 n=f#5 v=0
1153232 On ch=1 n=g#6 v=95
1153242 On ch=1 n=f5 v=67
1153286 On ch=1 n=g#6 v=0
1153318 On ch=1 n=f5 v=0
1153378 On ch=1 n=f6 v=76
1153378 On ch=1 n=c#5 v=56
1153410 On ch=1 n=f6 v=0
1153466 On ch=1 n=c#5 v=0
1153482 On ch=1 n=b4 v=58
1153502 On ch=1 n=d#6 v=74
1153511 On ch=1 n=g#5 v=74
1153515 On ch=1 n=b4 v=0
1153591 On ch=1 n=g#5 v=0
1153623 On ch=1 n=d#6 v=0
1153623 On ch=1 n=f4 v=63
1153651 On ch=1 n=b5 v=64
1153665 On ch=1 n=f#4 v=78
1153682 On ch=1 n=b5 v=0
1153694 On ch=1 n=f4 v=0
1153726 On ch=1 n=g#4 v=75
1153754 On ch=1 n=f#4 v=0
1153786 On ch=1 n=a#4 v=82
1153790 On ch=1 n=c#6 v=81
1153799 On ch=1 n=g#4 v=0
1153802 Par ch=1 c=67 v=0
1153806 On ch=1 n=a#4 v=0
1153835 On ch=1 n=c#6 v=0
1153926 On ch=1 n=f6 v=67
1153942 On ch=1 n=c#5 v=64
1153971 On ch=1 n=f6 v=0
1153990 On ch=1 n=c#5 v=0
1154051 On ch=1 n=g#6 v=67
1154066 On ch=1 n=f5 v=59
1154099 On ch=1 n=g#6 v=0
1154111 On ch=1 n=f5 v=0
1154186 On ch=1 n=g#5 v=61
1154186 On ch=1 n=b6 v=82
1154218 On ch=1 n=b6 v=0
1154228 On ch=1 n=g#5 v=0
1154287 Par ch=1 c=67 v=127
1154327 On ch=1 n=a#6 v=82
1154337 On ch=1 n=f#5 v=61
1154360 On ch=1 n=a#6 v=0
1154392 On ch=1 n=f#5 v=0
1154465 On ch=1 n=f#6 v=73
1154465 On ch=1 n=d#5 v=55
1154525 On ch=1 n=f#6 v=0
1154540 On ch=1 n=d#5 v=0
1154580 On ch=1 n=c#5 v=63
1154616 On ch=1 n=f6 v=62
1154625 On ch=1 n=c#5 v=0
1154629 On ch=1 n=a#5 v=57
1154705 On ch=1 n=a#5 v=0
1154724 On ch=1 n=f6 v=0
1154736 On ch=1 n=f#4 v=66
1154736 On ch=1 n=c#6 v=62
1154756 Par ch=1 c=64 v=127
1154768 On ch=1 n=c#6 v=0
1154780 On ch=1 n=g#4 v=75
1154819 On ch=1 n=a#4 v=76
1154829 Par ch=1 c=67 v=0
1154840 On ch=1 n=f#4 v=0
1154863 On ch=1 n=g#4 v=0
1154869 On ch=1 n=b4 v=78
1154892 On ch=1 n=d#6 v=90
1154896 On ch=1 n=a#4 v=0
1154899 Par ch=1 c=64 v=0
1154905 On ch=1 n=b4 v=0
1155020 On ch=1 n=d#5 v=67
1155076 On ch=1 n=d#5 v=0
1155123 On ch=1 n=d#6 v=0
1155160 On ch=1 n=g5 v=62
1155164 On ch=1 n=d#7 v=111
1155192 On ch=1 n=g5 v=0
1155288 On ch=1 n=g#5 v=71
1155332 On ch=1 n=g#5 v=0
1155444 On ch=1 n=g6 v=85
1155444 On ch=1 n=a#5 v=75
1155476 On ch=1 n=d#7 v=0
1155493 On ch=1 n=a#5 v=0
1155580 On ch=1 n=c#6 v=75
1155613 On ch=1 n=c#6 v=0
1155728 On ch=1 n=b5 v=68
1155764 On ch=1 n=b5 v=0
1155865 On ch=1 n=d#6 v=78
1155909 On ch=1 n=g6 v=0
1155924 On ch=1 n=d#6 v=0
1155934 On ch=1 n=g#6 v=75
1155993 On ch=1 n=g#6 v=0
1156010 On ch=1 n=g5 v=74
1156021 On ch=1 n=b6 v=98
1156082 On ch=1 n=g5 v=0
1156142 On ch=1 n=e6 v=70
1156177 On ch=1 n=e6 v=0
1156293 On ch=1 n=f#5 v=72
1156337 On ch=1 n=f#5 v=0
1156430 On ch=1 n=d#6 v=68
1156473 On ch=1 n=d#6 v=0
1156577 On ch=1 n=f5 v=72
1156633 On ch=1 n=f5 v=0
1156713 Par ch=1 c=67 v=127
1156713 On ch=1 n=d6 v=63
1156745 On ch=1 n=d6 v=0
1156902 On ch=1 n=a#6 v=60
1156910 On ch=1 n=b6 v=0
1157006 On ch=1 n=g#6 v=60
1157069 On ch=1 n=a#6 v=0
1157079 On ch=1 n=f6 v=62
1157098 On ch=1 n=g#6 v=0
1157139 On ch=1 n=a#4 v=47
1157142 On ch=1 n=c#6 v=67
1157170 On ch=1 n=f6 v=0
1157179 On ch=1 n=c#6 v=0
1157250 On ch=1 n=a#4 v=0
1157310 On ch=1 n=c#5 v=43
1157399 On ch=1 n=c#5 v=0
1157434 On ch=1 n=c#7 v=84
1157450 On ch=1 n=f5 v=43
1157503 On ch=1 n=f5 v=0
1157571 On ch=1 n=f#5 v=53
1157594 On ch=1 n=f#5 v=0
1157706 On ch=1 n=a5 v=64
1157723 On ch=1 n=f6 v=62
1157739 On ch=1 n=a5 v=0
1157770 On ch=1 n=c#7 v=0
1157854 On ch=1 n=c#6 v=65
1157899 On ch=1 n=c#6 v=0
1157994 On ch=1 n=a#5 v=68
1158030 On ch=1 n=a#5 v=0
1158154 On ch=1 n=d6 v=59
1158183 On ch=1 n=d6 v=0
1158237 On ch=1 n=f#6 v=67
1158258 On ch=1 n=f6 v=0
1158283 On ch=1 n=f#5 v=65
1158310 On ch=1 n=a#6 v=71
1158330 On ch=1 n=f#5 v=0
1158342 On ch=1 n=f#6 v=0
1158437 On ch=1 n=d#6 v=58
1158514 On ch=1 n=d#6 v=0
1158577 On ch=1 n=f5 v=62
1158617 On ch=1 n=f5 v=0
1158730 On ch=1 n=c#6 v=65
1158767 On ch=1 n=c#6 v=0
1158887 On ch=1 n=d#5 v=55
1158919 On ch=1 n=d#5 v=0
1159017 On ch=1 n=b5 v=47
1159046 On ch=1 n=b5 v=0
1159183 On ch=1 n=g#6 v=60
1159218 On ch=1 n=a#6 v=0
1159274 On ch=1 n=f#6 v=57
1159359 On ch=1 n=d#6 v=64
1159394 On ch=1 n=f#6 v=0
1159394 On ch=1 n=g#6 v=0
1159437 On ch=1 n=g#4 v=49
1159439 On ch=1 n=d#6 v=0
1159439 On ch=1 n=b5 v=61
1159483 On ch=1 n=b5 v=0
1159514 On ch=1 n=g#4 v=0
1159598 On ch=1 n=b4 v=44
1159682 On ch=1 n=b4 v=0
1159726 On ch=1 n=b6 v=82
1159758 On ch=1 n=d#5 v=34
1159803 On ch=1 n=d#5 v=0
1159866 On ch=1 n=f#5 v=55
1159910 On ch=1 n=f#5 v=0
1160010 Par ch=1 c=67 v=0
1160018 On ch=1 n=f5 v=70
1160019 On ch=1 n=d6 v=65
1160050 On ch=1 n=f5 v=0
1160090 On ch=1 n=b6 v=0
1160143 On ch=1 n=g#5 v=63
1160190 On ch=1 n=g#5 v=0
1160294 On ch=1 n=b5 v=78
1160298 On ch=1 n=d#5 v=75
1160397 On ch=1 n=d#5 v=0
1160447 On ch=1 n=f#5 v=66
1160503 On ch=1 n=f#5 v=0
1160534 On ch=1 n=d#6 v=74
1160550 On ch=1 n=d6 v=0
1160553 Par ch=1 c=67 v=127
1160591 On ch=1 n=d5 v=72
1160602 On ch=1 n=f#6 v=79
1160630 On ch=1 n=d#6 v=0
1160654 On ch=1 n=d5 v=0
1160730 On ch=1 n=f#5 v=63
1160777 On ch=1 n=f#5 v=0
1160870 On ch=1 n=c#5 v=57
1160887 On ch=1 n=a#5 v=75
1160930 On ch=1 n=c#5 v=0
1160934 On ch=1 n=b5 v=0
1161034 On ch=1 n=f5 v=46
1161070 On ch=1 n=f5 v=0
1161158 On ch=1 n=a#5 v=0
1161174 On ch=1 n=c5 v=59
1161191 On ch=1 n=a5 v=69
1161213 On ch=1 n=c5 v=0
1161238 On ch=1 n=f#6 v=0
1161317 On ch=1 n=e5 v=62
1161366 On ch=1 n=e5 v=0
1161433 On ch=1 n=a5 v=0
1161458 On ch=1 n=b4 v=58
1161494 On ch=1 n=b4 v=0
1161494 On ch=1 n=f6 v=60
1161494 On ch=1 n=g#5 v=38
1161539 On ch=1 n=g#5 v=0
1161570 On ch=1 n=d6 v=65
1161646 On ch=1 n=f6 v=0
1161650 On ch=1 n=b5 v=71
1161710 On ch=1 n=d6 v=0
1161737 On ch=1 n=b5 v=0
1161737 On ch=1 n=g#5 v=74
1161770 On ch=1 n=g#5 v=0
1161770 Par ch=1 c=67 v=0
1161894 On ch=1 n=a#5 v=65
1161894 On ch=1 n=f#5 v=62
1161930 On ch=1 n=f#5 v=0
1161934 On ch=1 n=a#5 v=0
1162019 On ch=1 n=g#5 v=74
1162019 On ch=1 n=f5 v=74
1162059 On ch=1 n=f5 v=0
1162059 On ch=1 n=g#5 v=0
1162170 On ch=1 n=d#5 v=79
1162170 On ch=1 n=f#5 v=72
1162198 On ch=1 n=f#5 v=0
1162230 On ch=1 n=d#5 v=0
1162303 On ch=1 n=f5 v=68
1162303 On ch=1 n=d5 v=67
1162334 On ch=1 n=d5 v=0
1162334 On ch=1 n=f5 v=0
1162454 On ch=1 n=c#5 v=66
1162457 On ch=1 n=g5 v=71
1162482 On ch=1 n=c#5 v=0
1162511 On ch=1 n=g5 v=0
1162574 On ch=1 n=d#5 v=58
1162598 On ch=1 n=g#5 v=74
1162598 On ch=1 n=b4 v=48
1162618 On ch=1 n=b4 v=0
1162623 On ch=1 n=d#5 v=0
1162643 On ch=1 n=g#5 v=0
1162726 On ch=1 n=a#5 v=84
1162726 On ch=1 n=d5 v=59
1162766 On ch=1 n=d5 v=0
1162770 On ch=1 n=a#4 v=51
1162780 On ch=1 n=a#5 v=0
1162795 On ch=1 n=a#4 v=0
1162871 On ch=1 n=a4 v=80
1162881 On ch=1 n=f#5 v=80
1162881 On ch=1 n=c#6 v=85
1162927 On ch=1 n=a4 v=0
1163024 On ch=1 n=c#5 v=64
1163064 On ch=1 n=c#5 v=0
1163147 On ch=1 n=f#5 v=0
1163164 On ch=1 n=f5 v=75
1163172 On ch=1 n=g#4 v=78
1163208 On ch=1 n=g#4 v=0
1163324 On ch=1 n=c5 v=71
1163356 On ch=1 n=c5 v=0
1163432 On ch=1 n=f5 v=0
1163440 On ch=1 n=c#6 v=0
1163450 On ch=1 n=e5 v=60
1163465 On ch=1 n=g4 v=82
1163510 On ch=1 n=g4 v=0
1163617 On ch=1 n=b4 v=78
1163661 On ch=1 n=b4 v=0
1163754 On ch=1 n=e5 v=0
1163754 On ch=1 n=g#4 v=73
1163765 On ch=1 n=b5 v=64
1163785 On ch=1 n=d#5 v=37
1163797 On ch=1 n=g#4 v=0
1163829 On ch=1 n=d#5 v=0
1163845 On ch=1 n=g#5 v=66
1163934 On ch=1 n=f5 v=67
1163977 On ch=1 n=g#5 v=0
1163985 On ch=1 n=b5 v=0
1164033 On ch=1 n=f5 v=0
1164037 On ch=1 n=d5 v=70
1164061 On ch=1 n=d5 v=0
1164198 On ch=1 n=g#4 v=72
1164198 On ch=1 n=f5 v=70
1164230 On ch=1 n=f5 v=0
1164230 On ch=1 n=g#4 v=0
1164338 On ch=1 n=e5 v=76
1164338 On ch=1 n=g4 v=68
1164365 On ch=1 n=e5 v=0
1164381 On ch=1 n=g4 v=0
1164470 On ch=1 n=d#5 v=85
1164473 On ch=1 n=f#4 v=75
1164510 On ch=1 n=d#5 v=0
1164529 On ch=1 n=f#4 v=0
1164609 On ch=1 n=d5 v=85
1164621 On ch=1 n=f4 v=74
1164638 On ch=1 n=d5 v=0
1164653 On ch=1 n=f4 v=0
1164761 On ch=1 n=b4 v=82
1164765 On ch=1 n=g#4 v=75
1164788 On ch=1 n=g#4 v=0
1164810 On ch=1 n=b4 v=0
1164917 On ch=1 n=a#4 v=65
1164921 On ch=1 n=f#4 v=61
1164950 On ch=1 n=f#4 v=0
1165044 On ch=1 n=g#4 v=64
1165054 On ch=1 n=a#4 v=0
1165054 On ch=1 n=d3 v=64
1165090 On ch=1 n=d#3 v=66
1165114 On ch=1 n=d3 v=0
1165118 On ch=1 n=f3 v=72
1165129 On ch=1 n=g#4 v=0
1165148 On ch=1 n=d#3 v=0
1165185 On ch=1 n=f#4 v=62
1165188 On ch=1 n=f#3 v=72
1165198 On ch=1 n=d#4 v=53
1165202 On ch=1 n=f3 v=0
1165225 On ch=1 n=f#3 v=0
1165225 On ch=1 n=f#4 v=0
1165231 On ch=1 n=d#4 v=0
1165334 On ch=1 n=f#3 v=74
1165378 On ch=1 n=f#3 v=0
1165478 On ch=1 n=f#3 v=78
1165486 On ch=1 n=a#5 v=76
1165490 On ch=1 n=d#5 v=64
1165498 On ch=1 n=a#4 v=55
1165519 On ch=1 n=a#5 v=0
1165526 On ch=1 n=d#5 v=0
1165527 On ch=1 n=f#3 v=0
1165531 On ch=1 n=a#4 v=0
1165622 On ch=1 n=f#3 v=69
1165665 On ch=1 n=f#3 v=0
1165778 On ch=1 n=f#3 v=73
1165788 On ch=1 n=d5 v=76
1165799 On ch=1 n=a#4 v=60
1165799 On ch=1 n=f4 v=59
1165911 On ch=1 n=f3 v=69
1165921 On ch=1 n=f#3 v=0
1166000 On ch=1 n=d#3 v=75
1166039 On ch=1 n=f3 v=0
1166049 On ch=1 n=a#3 v=83
1166072 On ch=1 n=d#3 v=0
1166105 On ch=1 n=a#3 v=0
1166201 On ch=1 n=a3 v=77
1166201 On ch=1 n=d#5 v=74
1166208 On ch=1 n=f#4 v=61
1166232 On ch=1 n=a#4 v=0
1166236 On ch=1 n=f4 v=0
1166248 On ch=1 n=f#4 v=0
1166248 On ch=1 n=a3 v=0
1166248 On ch=1 n=d5 v=0
1166272 On ch=1 n=d#5 v=0
1166369 On ch=1 n=d#5 v=63
1166369 On ch=1 n=b4 v=75
1166369 On ch=1 n=f#5 v=69
1166373 On ch=1 n=g#3 v=58
1166412 On ch=1 n=b4 v=0
1166456 On ch=1 n=g#3 v=0
1166501 On ch=1 n=b3 v=66
1166512 On ch=1 n=b4 v=78
1166540 On ch=1 n=b3 v=0
1166545 On ch=1 n=b4 v=0
1166561 On ch=1 n=d#5 v=0
1166635 On ch=1 n=d#4 v=66
1166639 On ch=1 n=b4 v=90
1166681 On ch=1 n=d#4 v=0
1166693 On ch=1 n=b4 v=0
1166789 On ch=1 n=g4 v=80
1166789 On ch=1 n=b4 v=90
1166812 On ch=1 n=g4 v=0
1166819 On ch=1 n=b4 v=0
1166921 On ch=1 n=g#4 v=115
1166921 On ch=1 n=b4 v=86
1166925 On ch=1 n=d5 v=86
1167045 On ch=1 n=g#4 v=0
1167052 On ch=1 n=d5 v=0
1167052 On ch=1 n=b4 v=0
1167056 On ch=1 n=f#5 v=0
1167076 On ch=1 n=a#4 v=74
1167153 On ch=1 n=a#4 v=0
1167168 On ch=1 n=g#4 v=68
1167195 On ch=1 n=f5 v=64
1167209 On ch=1 n=g#4 v=0
1167212 On ch=1 n=c#5 v=75
1167352 On ch=1 n=b4 v=72
1167352 On ch=1 n=f3 v=73
1167392 On ch=1 n=f#3 v=76
1167400 On ch=1 n=c#5 v=0
1167419 On ch=1 n=b4 v=0
1167429 On ch=1 n=f5 v=0
1167453 On ch=1 n=g#3 v=75
1167456 On ch=1 n=f3 v=0
1167484 On ch=1 n=a3 v=88
1167501 On ch=1 n=f#3 v=0
1167519 On ch=1 n=g#3 v=0
1167536 On ch=1 n=a3 v=0
1167624 On ch=1 n=a3 v=82
1167656 On ch=1 n=a3 v=0
1167769 On ch=1 n=a3 v=78
1167776 On ch=1 n=c#5 v=74
1167780 On ch=1 n=f#5 v=70
1167781 On ch=1 n=c#6 v=79
1167804 On ch=1 n=f#5 v=0
1167812 On ch=1 n=c#6 v=0
1167812 On ch=1 n=a3 v=0
1167816 On ch=1 n=c#5 v=0
1167920 On ch=1 n=a3 v=86
1167949 On ch=1 n=a3 v=0
1168068 On ch=1 n=f5 v=80
1168068 On ch=1 n=c#5 v=82
1168072 On ch=1 n=a3 v=86
1168076 On ch=1 n=g#4 v=75
1168201 On ch=1 n=a3 v=0
1168212 On ch=1 n=g#3 v=74
1168265 On ch=1 n=g3 v=65
1168319 On ch=1 n=g3 v=0
1168319 On ch=1 n=g#3 v=0
1168336 On ch=1 n=c#4 v=86
1168356 On ch=1 n=g#4 v=0
1168392 On ch=1 n=c#4 v=0
1168499 On ch=1 n=c4 v=77
1168509 On ch=1 n=f5 v=0
1168509 On ch=1 n=f#5 v=75
1168525 On ch=1 n=a4 v=64
1168529 On ch=1 n=c#5 v=0
1168557 On ch=1 n=a4 v=0
1168557 On ch=1 n=c4 v=0
1168566 On ch=1 n=f#5 v=0
1168658 On ch=1 n=b3 v=69
1168658 On ch=1 n=a5 v=98
1168661 On ch=1 n=d5 v=83
1168673 On ch=1 n=f#5 v=80
1168705 On ch=1 n=d5 v=0
1168726 On ch=1 n=b3 v=0
1168813 On ch=1 n=d4 v=65
1168813 On ch=1 n=d5 v=81
1168845 On ch=1 n=d5 v=0
1168853 On ch=1 n=d4 v=0
1168898 On ch=1 n=f#5 v=0
1168958 On ch=1 n=d5 v=87
1168958 On ch=1 n=f#4 v=64
1168985 On ch=1 n=d5 v=0
1169001 On ch=1 n=f#4 v=0
1169109 On ch=1 n=d5 v=89
1169109 On ch=1 n=a#4 v=75
1169129 On ch=1 n=d5 v=0
1169138 On ch=1 n=a#4 v=0
1169242 On ch=1 n=d5 v=95
1169245 On ch=1 n=b4 v=127
1169249 On ch=1 n=f5 v=78
1169305 On ch=1 n=b4 v=0
1169345 On ch=1 n=d5 v=0
1169355 On ch=1 n=f5 v=0
1169390 On ch=1 n=c#5 v=65
1169434 On ch=1 n=c#5 v=0
1169450 On ch=1 n=a5 v=0
1169466 On ch=1 n=b4 v=80
1169514 On ch=1 n=b4 v=0
1169546 On ch=1 n=e5 v=69
1169546 On ch=1 n=g#5 v=72
1169670 On ch=1 n=g#5 v=0
1169686 On ch=1 n=d5 v=76
1169715 On ch=1 n=e5 v=0
1169763 On ch=1 n=d5 v=0
1169813 On ch=1 n=c4 v=98
1169827 On ch=1 n=c3 v=96
1169862 On ch=1 n=c4 v=0
1169873 On ch=1 n=c3 v=0
1169954 On ch=1 n=c3 v=87
1169954 On ch=1 n=c4 v=90
1170003 On ch=1 n=c4 v=0
1170010 On ch=1 n=c3 v=0
1170115 On ch=1 n=c4 v=88
1170115 On ch=1 n=c3 v=89
1170115 On ch=1 n=b5 v=90
1170119 On ch=1 n=g#5 v=94
1170119 On ch=1 n=e5 v=88
1170119 On ch=1 n=e6 v=100
1170162 On ch=1 n=c3 v=0
1170162 On ch=1 n=c4 v=0
1170207 On ch=1 n=g#5 v=0
1170207 On ch=1 n=b5 v=0
1170214 On ch=1 n=e5 v=0
1170222 On ch=1 n=e6 v=0
1170255 On ch=1 n=c4 v=86
1170258 On ch=1 n=c3 v=81
1170306 On ch=1 n=c3 v=0
1170306 On ch=1 n=c4 v=0
1170414 On ch=1 n=c3 v=68
1170414 On ch=1 n=e5 v=81
1170415 On ch=1 n=c4 v=78
1170415 On ch=1 n=b4 v=76
1170419 On ch=1 n=g#5 v=78
1170473 On ch=1 n=c4 v=0
1170475 On ch=1 n=c3 v=0
1170530 On ch=1 n=b4 v=0
1170554 On ch=1 n=e5 v=0
1170573 On ch=1 n=b3 v=73
1170634 On ch=1 n=a3 v=74
1170653 On ch=1 n=b3 v=0
1170662 On ch=1 n=g#5 v=0
1170666 On ch=1 n=a3 v=0
1170726 On ch=1 n=e4 v=73
1170730 On ch=1 n=e5 v=79
1170730 On ch=1 n=c5 v=85
1170730 On ch=1 n=a5 v=82
1170759 On ch=1 n=c5 v=0
1170774 On ch=1 n=e5 v=0
1170778 On ch=1 n=a5 v=0
1170790 On ch=1 n=e4 v=0
1170858 On ch=1 n=d#4 v=82
1170890 On ch=1 n=d#4 v=0
1171023 On ch=1 n=d4 v=92
1171023 On ch=1 n=d3 v=92
1171063 On ch=1 n=d4 v=0
1171070 On ch=1 n=d3 v=0
1171162 On ch=1 n=d4 v=90
1171162 On ch=1 n=d3 v=88
1171194 On ch=1 n=d3 v=0
1171210 On ch=1 n=d4 v=0
1171313 On ch=1 n=a5 v=99
1171313 On ch=1 n=f5 v=98
1171323 On ch=1 n=c6 v=95
1171323 On ch=1 n=f6 v=100
1171323 On ch=1 n=d4 v=90
1171326 On ch=1 n=d3 v=84
1171367 On ch=1 n=d4 v=0
1171375 On ch=1 n=d3 v=0
1171406 On ch=1 n=c6 v=0
1171410 On ch=1 n=f5 v=0
1171415 On ch=1 n=f6 v=0
1171415 On ch=1 n=a5 v=0
1171462 On ch=1 n=d4 v=82
1171462 On ch=1 n=d3 v=80
1171494 On ch=1 n=d3 v=0
1171522 On ch=1 n=d4 v=0
1171622 On ch=1 n=a5 v=82
1171622 On ch=1 n=d3 v=82
1171622 On ch=1 n=d4 v=82
1171622 On ch=1 n=f5 v=75
1171626 On ch=1 n=c#5 v=71
1171674 On ch=1 n=d4 v=0
1171686 On ch=1 n=d3 v=0
1171742 On ch=1 n=f5 v=0
1171746 On ch=1 n=c#5 v=0
1171794 On ch=1 n=c4 v=74
1171835 On ch=1 n=a#3 v=75
1171850 On ch=1 n=a5 v=0
1171862 On ch=1 n=c4 v=0
1171902 On ch=1 n=a#3 v=0
1171913 On ch=1 n=f5 v=75
1171919 On ch=1 n=d5 v=77
1171923 On ch=1 n=f4 v=70
1171923 On ch=1 n=a#5 v=80
1171958 On ch=1 n=f5 v=0
1171970 On ch=1 n=d5 v=0
1171987 On ch=1 n=a#5 v=0
1171987 On ch=1 n=f4 v=0
1172058 On ch=1 n=e4 v=81
1172093 On ch=1 n=e4 v=0
1172223 On ch=1 n=e4 v=99
1172223 On ch=1 n=e3 v=96
1172270 On ch=1 n=e4 v=0
1172274 On ch=1 n=e3 v=0
1172359 On ch=1 n=e4 v=94
1172359 On ch=1 n=e3 v=93
1172407 On ch=1 n=e4 v=0
1172415 On ch=1 n=e3 v=0
1172494 On ch=1 n=e4 v=97
1172494 On ch=1 n=e3 v=90
1172502 On ch=1 n=d6 v=98
1172502 On ch=1 n=g5 v=98
1172502 On ch=1 n=a#5 v=98
1172502 On ch=1 n=g6 v=100
1172554 On ch=1 n=e3 v=0
1172570 On ch=1 n=e4 v=0
1172593 On ch=1 n=a#5 v=0
1172599 On ch=1 n=g5 v=0
1172602 On ch=1 n=d6 v=0
1172610 On ch=1 n=g6 v=0
1172646 On ch=1 n=e4 v=89
1172646 On ch=1 n=e3 v=89
1172710 On ch=1 n=e3 v=0
1172710 On ch=1 n=e4 v=0
1172830 On ch=1 n=e3 v=84
1172830 On ch=1 n=e4 v=84
1172830 On ch=1 n=g5 v=73
1172830 On ch=1 n=a#5 v=84
1172830 On ch=1 n=d5 v=81
1172882 On ch=1 n=e3 v=0
1172889 On ch=1 n=e4 v=0
1172918 On ch=1 n=d5 v=0
1172966 On ch=1 n=g5 v=0
1172974 On ch=1 n=d4 v=70
1173050 On ch=1 n=d4 v=0
1173055 On ch=1 n=c#4 v=77
1173063 On ch=1 n=a#5 v=0
1173082 On ch=1 n=g5 v=74
1173082 On ch=1 n=c#6 v=78
1173082 On ch=1 n=e5 v=64
1173082 On ch=1 n=g4 v=80
1173094 On ch=1 n=c#4 v=0
1173110 On ch=1 n=g5 v=0
1173135 On ch=1 n=e5 v=0
1173135 On ch=1 n=c#6 v=0
1173150 On ch=1 n=g4 v=0
1173266 On ch=1 n=f#4 v=88
1173327 On ch=1 n=f#4 v=0
1173426 On ch=1 n=f4 v=115
1173426 On ch=1 n=f3 v=102
1173614 Par ch=1 c=64 v=127
1173686 On ch=1 n=d6 v=84
1173686 On ch=1 n=a#5 v=82
1173690 On ch=1 n=a#6 v=90
1173715 On ch=1 n=d6 v=0
1173726 On ch=1 n=a#5 v=0
1173730 On ch=1 n=a#6 v=0
1173755 On ch=1 n=f3 v=0
1173802 On ch=1 n=d6 v=82
1173802 On ch=1 n=a#5 v=88
1173802 On ch=1 n=a#6 v=105
1173846 On ch=1 n=a#5 v=0
1173846 On ch=1 n=d6 v=0
1173878 On ch=1 n=a#6 v=0
1173926 On ch=1 n=f4 v=0
1173926 Par ch=1 c=64 v=0
1173994 On ch=1 n=f5 v=72
1173994 On ch=1 n=d6 v=95
1173994 On ch=1 n=a#5 v=69
1174035 On ch=1 n=a#5 v=0
1174035 On ch=1 n=d6 v=0
1174035 On ch=1 n=f5 v=0
1174094 On ch=1 n=d6 v=98
1174106 On ch=1 n=f5 v=71
1174106 On ch=1 n=a#5 v=86
1174106 On ch=1 n=d5 v=119
1174138 On ch=1 n=f5 v=0
1174153 On ch=1 n=a#5 v=0
1174194 On ch=1 n=d6 v=0
1174310 On ch=1 n=a#5 v=75
1174314 On ch=1 n=g5 v=76
1174314 On ch=1 n=e6 v=95
1174355 On ch=1 n=g5 v=0
1174355 On ch=1 n=a#5 v=0
1174358 On ch=1 n=e6 v=0
1174426 On ch=1 n=e6 v=105
1174426 On ch=1 n=a#5 v=86
1174426 On ch=1 n=g5 v=81
1174474 On ch=1 n=g5 v=0
1174474 On ch=1 n=a#5 v=0
1174502 On ch=1 n=e6 v=0
1174633 On ch=1 n=a#5 v=76
1174633 On ch=1 n=c#5 v=105
1174633 On ch=1 n=g6 v=99
1174639 On ch=1 n=e6 v=78
1174673 On ch=1 n=a#5 v=0
1174679 On ch=1 n=e6 v=0
1174679 On ch=1 n=g6 v=0
1174698 On ch=1 n=d5 v=0
1174706 On ch=1 n=c#5 v=0
1174730 On ch=1 n=g6 v=105
1174730 On ch=1 n=a#5 v=88
1174734 On ch=1 n=e6 v=88
1174734 On ch=1 n=a#4 v=109
1174775 On ch=1 n=a#5 v=0
1174775 On ch=1 n=g6 v=0
1174790 On ch=1 n=e6 v=0
1174947 On ch=1 n=f6 v=99
1174947 On ch=1 n=d6 v=63
1174947 On ch=1 n=g#5 v=78
1174986 On ch=1 n=f6 v=0
1174990 On ch=1 n=d6 v=0
1174993 On ch=1 n=g#5 v=0
1175046 On ch=1 n=d6 v=78
1175046 On ch=1 n=g#5 v=90
1175050 On ch=1 n=f6 v=95
1175090 On ch=1 n=g#5 v=0
1175090 On ch=1 n=d6 v=0
1175098 On ch=1 n=f6 v=0
1175250 On ch=1 n=d6 v=99
1175250 On ch=1 n=f5 v=80
1175250 On ch=1 n=g#5 v=78
1175295 On ch=1 n=g#5 v=0
1175295 On ch=1 n=f5 v=0
1175295 On ch=1 n=d6 v=0
1175355 On ch=1 n=f5 v=86
1175355 On ch=1 n=d6 v=105
1175358 On ch=1 n=g#5 v=90
1175595 Par ch=1 c=64 v=127
1175610 On ch=1 n=a#4 v=0
1175626 On ch=1 n=g#5 v=0
1175626 On ch=1 n=d6 v=0
1175630 On ch=1 n=f5 v=0
1175634 On ch=1 n=b4 v=95
1175698 Par ch=1 c=64 v=0
1175734 On ch=1 n=d5 v=95
1175814 On ch=1 n=d5 v=0
1175814 On ch=1 n=b4 v=0
1175826 On ch=1 n=f5 v=105
1175919 On ch=1 n=g#5 v=127
1175922 On ch=1 n=f5 v=0
1175994 On ch=1 n=g#5 v=0
1176130 On ch=1 n=d7 v=99
1176130 On ch=1 n=b6 v=80
1176130 On ch=1 n=f6 v=78
1176175 On ch=1 n=f6 v=0
1176175 On ch=1 n=b6 v=0
1176175 On ch=1 n=d7 v=0
1176243 On ch=1 n=d7 v=105
1176243 On ch=1 n=b6 v=86
1176243 On ch=1 n=f6 v=81
1176290 On ch=1 n=f6 v=0
1176290 On ch=1 n=b6 v=0
1176290 On ch=1 n=d7 v=0
1176439 On ch=1 n=f6 v=99
1176439 On ch=1 n=d6 v=74
1176439 On ch=1 n=b5 v=77
1176478 On ch=1 n=f6 v=0
1176482 On ch=1 n=b5 v=0
1176482 On ch=1 n=d6 v=0
1176533 On ch=1 n=f6 v=103
1176533 On ch=1 n=b5 v=79
1176533 On ch=1 n=d6 v=75
1176575 On ch=1 n=d6 v=0
1176575 On ch=1 n=b5 v=0
1176575 On ch=1 n=f6 v=0
1176687 On ch=1 n=a5 v=105
1176730 On ch=1 n=a5 v=0
1176746 On ch=1 n=c#6 v=87
1176746 On ch=1 n=f#6 v=95
1176790 On ch=1 n=f#6 v=0
1176790 On ch=1 n=c#6 v=0
1176850 On ch=1 n=c#6 v=89
1176854 On ch=1 n=f#6 v=102
1176854 On ch=1 n=g#5 v=109
1176893 On ch=1 n=g#5 v=0
1176903 On ch=1 n=f#6 v=0
1176922 On ch=1 n=c#6 v=0
1177006 On ch=1 n=f#5 v=108
1177053 On ch=1 n=f#5 v=0
1177063 On ch=1 n=c#6 v=78
1177063 On ch=1 n=a6 v=95
1177111 On ch=1 n=a6 v=0
1177111 On ch=1 n=c#6 v=0
1177152 On ch=1 n=c#6 v=75
1177152 On ch=1 n=a6 v=106
1177152 On ch=1 n=e5 v=109
1177200 On ch=1 n=c#6 v=0
1177207 On ch=1 n=a6 v=0
1177352 On ch=1 n=b5 v=79
1177352 On ch=1 n=g#6 v=89
1177356 On ch=1 n=d6 v=80
1177396 On ch=1 n=g#6 v=0
1177396 On ch=1 n=b5 v=0
1177399 On ch=1 n=d6 v=0
1177467 On ch=1 n=d6 v=80
1177467 On ch=1 n=b5 v=87
1177467 On ch=1 n=g#6 v=95
1177512 On ch=1 n=g#6 v=0
1177512 On ch=1 n=d6 v=0
1177543 On ch=1 n=b5 v=0
1177679 On ch=1 n=d6 v=95
1177679 On ch=1 n=g#5 v=82
1177679 On ch=1 n=b5 v=79
1177724 On ch=1 n=b5 v=0
1177724 On ch=1 n=g#5 v=0
1177724 On ch=1 n=d6 v=0
1177783 On ch=1 n=g#5 v=78
1177783 On ch=1 n=b5 v=78
1177783 On ch=1 n=d6 v=107
1177903 On ch=1 n=e5 v=0
1177924 Par ch=1 c=64 v=127
1177979 On ch=1 n=b5 v=0
1177991 On ch=1 n=g#5 v=0
1178007 On ch=1 n=d6 v=0
1178080 Par ch=1 c=64 v=0
1178092 On ch=1 n=f5 v=96
1178187 On ch=1 n=g#5 v=105
1178191 On ch=1 n=f5 v=0
1178276 On ch=1 n=g#5 v=0
1178283 On ch=1 n=b5 v=109
1178324 On ch=1 n=b5 v=0
1178363 On ch=1 n=d6 v=127
1178430 On ch=1 n=d6 v=0
1178580 On ch=1 n=d#7 v=89
1178580 On ch=1 n=d#6 v=69
1178623 On ch=1 n=d#7 v=0
1178627 On ch=1 n=d#6 v=0
1178683 On ch=1 n=c4 v=105
1178687 On ch=1 n=c3 v=109
1178690 On ch=1 n=d#6 v=78
1178690 On ch=1 n=d#7 v=105
1178726 Par ch=1 c=64 v=127
1178763 On ch=1 n=d#7 v=0
1178763 On ch=1 n=d#6 v=0
1178859 On ch=1 n=c4 v=0
1178863 On ch=1 n=c3 v=0
1178930 On ch=1 n=f#5 v=88
1178930 On ch=1 n=f#6 v=89
1178936 On ch=1 n=d#6 v=70
1178976 On ch=1 n=f#6 v=0
1178976 On ch=1 n=f#5 v=0
1178980 On ch=1 n=d#6 v=0
1179031 Par ch=1 c=64 v=0
1179041 On ch=1 n=a3 v=109
1179041 On ch=1 n=d#6 v=77
1179044 On ch=1 n=f#5 v=82
1179044 On ch=1 n=f#6 v=99
1179044 On ch=1 n=a4 v=109
1179117 On ch=1 n=f#5 v=0
1179117 On ch=1 n=d#6 v=0
1179160 On ch=1 n=f#6 v=0
1179164 Par ch=1 c=64 v=127
1179260 On ch=1 n=g5 v=79
1179269 On ch=1 n=a4 v=0
1179269 On ch=1 n=a3 v=0
1179269 On ch=1 n=d#6 v=78
1179269 On ch=1 n=g6 v=89
1179269 On ch=1 n=c6 v=71
1179304 On ch=1 n=d#6 v=0
1179304 On ch=1 n=g5 v=0
1179309 On ch=1 n=c6 v=0
1179309 On ch=1 n=g6 v=0
1179376 On ch=1 n=g6 v=99
1179376 On ch=1 n=c6 v=78
1179376 On ch=1 n=g5 v=77
1179380 On ch=1 n=d#6 v=78
1179420 On ch=1 n=g5 v=0
1179420 On ch=1 n=g6 v=0
1179464 On ch=1 n=d#6 v=0
1179464 On ch=1 n=c6 v=0
1179524 On ch=1 n=g#4 v=100
1179528 On ch=1 n=g#3 v=109
1179573 On ch=1 n=g#4 v=0
1179581 On ch=1 n=g#3 v=0
1179604 On ch=1 n=d#6 v=74
1179608 On ch=1 n=c6 v=79
1179609 On ch=1 n=g#5 v=78
1179609 On ch=1 n=g#6 v=89
1179647 On ch=1 n=d#6 v=0
1179653 On ch=1 n=c6 v=0
1179661 On ch=1 n=g#6 v=0
1179661 On ch=1 n=g#5 v=0
1179724 On ch=1 n=c6 v=79
1179727 On ch=1 n=g#5 v=85
1179727 On ch=1 n=g#6 v=105
1179727 On ch=1 n=f3 v=100
1179727 On ch=1 n=d#6 v=78
1179729 On ch=1 n=f4 v=99
1179767 On ch=1 n=g#6 v=0
1179793 On ch=1 n=c6 v=0
1179801 On ch=1 n=d#6 v=0
1179801 On ch=1 n=g#5 v=0
1179896 Par ch=1 c=64 v=0
1179913 On ch=1 n=d#6 v=72
1179913 On ch=1 n=c6 v=74
1179920 On ch=1 n=a5 v=66
1179920 On ch=1 n=a6 v=89
1179961 On ch=1 n=c6 v=0
1179961 On ch=1 n=d#6 v=0
1179964 On ch=1 n=a5 v=0
1179968 On ch=1 n=a6 v=0
1180024 On ch=1 n=a6 v=99
1180027 On ch=1 n=d#6 v=74
1180029 On ch=1 n=a5 v=64
1180029 On ch=1 n=c6 v=73
1180073 On ch=1 n=d#6 v=0
1180073 On ch=1 n=a6 v=0
1180077 On ch=1 n=c6 v=0
1180077 On ch=1 n=a5 v=0
1180224 On ch=1 n=d#5 v=79
1180224 On ch=1 n=d#6 v=71
1180224 On ch=1 n=a5 v=56
1180269 On ch=1 n=a5 v=0
1180269 On ch=1 n=d#6 v=0
1180276 On ch=1 n=d#5 v=0
1180344 On ch=1 n=d#5 v=72
1180348 On ch=1 n=a5 v=82
1180356 On ch=1 n=d#6 v=78
1180377 Par ch=1 c=64 v=127
1180408 On ch=1 n=f4 v=0
1180420 On ch=1 n=f3 v=0
1180544 Par ch=1 c=64 v=0
1180604 On ch=1 n=f#4 v=90
1180616 On ch=1 n=f#3 v=100
1180648 On ch=1 n=f#4 v=0
1180660 On ch=1 n=f#3 v=0
1180733 On ch=1 n=a4 v=105
1180740 On ch=1 n=a3 v=109
1180844 On ch=1 n=a4 v=0
1180849 On ch=1 n=a3 v=0
1180856 Par ch=1 c=64 v=127
1180864 On ch=1 n=c5 v=105
1180864 On ch=1 n=c4 v=109
1180883 On ch=1 n=d#5 v=0
1180897 On ch=1 n=a5 v=0
1180909 On ch=1 n=c4 v=0
1180909 On ch=1 n=c5 v=0
1180936 On ch=1 n=d#6 v=0
1180944 On ch=1 n=d#4 v=109
1180954 On ch=1 n=d#5 v=105
1181089 Par ch=1 c=64 v=0
1181104 On ch=1 n=d#5 v=0
1181110 On ch=1 n=d#4 v=0
1181150 On ch=1 n=f#6 v=82
1181150 On ch=1 n=a6 v=70
1181157 On ch=1 n=f#7 v=109
1181197 On ch=1 n=f#6 v=0
1181204 On ch=1 n=a6 v=0
1181229 On ch=1 n=f#7 v=0
1181257 On ch=1 n=f#7 v=110
1181257 On ch=1 n=f#6 v=74
1181257 On ch=1 n=a6 v=88
1181301 On ch=1 n=f#7 v=0
1181306 On ch=1 n=a6 v=0
1181325 On ch=1 n=f#6 v=0
1181464 On ch=1 n=a6 v=99
1181470 On ch=1 n=f#6 v=74
1181470 On ch=1 n=c6 v=77
1181513 On ch=1 n=c6 v=0
1181513 On ch=1 n=f#6 v=0
1181513 On ch=1 n=a6 v=0
1181549 On ch=1 n=c6 v=77
1181549 On ch=1 n=a6 v=80
1181553 On ch=1 n=f#6 v=80
1181606 On ch=1 n=c6 v=0
1181624 On ch=1 n=f#6 v=0
1181624 On ch=1 n=a6 v=0
1181661 On ch=1 n=e4 v=99
1181671 On ch=1 n=e5 v=98
1181714 On ch=1 n=e5 v=0
1181714 On ch=1 n=e4 v=0
1181735 On ch=1 n=g6 v=71
1181735 On ch=1 n=a#6 v=89
1181735 On ch=1 n=c#6 v=85
1181781 On ch=1 n=c#6 v=0
1181781 On ch=1 n=a#6 v=0
1181781 On ch=1 n=g6 v=0
1181823 On ch=1 n=c#6 v=71
1181823 On ch=1 n=d#4 v=95
1181823 On ch=1 n=d#5 v=98
1181826 On ch=1 n=a#6 v=99
1181826 On ch=1 n=g6 v=71
1181874 On ch=1 n=g6 v=0
1181883 On ch=1 n=d#5 v=0
1181894 On ch=1 n=d#4 v=0
1181894 On ch=1 n=c#6 v=0
1181902 On ch=1 n=a#6 v=0
1181990 On ch=1 n=c#5 v=98
1181990 On ch=1 n=c#4 v=83
1182050 On ch=1 n=g6 v=81
1182050 On ch=1 n=e6 v=66
1182050 On ch=1 n=e7 v=89
1182058 On ch=1 n=c#5 v=0
1182061 On ch=1 n=c#4 v=0
1182094 On ch=1 n=e7 v=0
1182094 On ch=1 n=e6 v=0
1182094 On ch=1 n=g6 v=0
1182171 On ch=1 n=e7 v=99
1182171 On ch=1 n=b4 v=115
1182171 On ch=1 n=b3 v=100
1182175 On ch=1 n=e6 v=80
1182175 On ch=1 n=g6 v=85
1182263 On ch=1 n=e6 v=0
1182263 On ch=1 n=e7 v=0
1182267 On ch=1 n=g6 v=0
1182382 On ch=1 n=f#6 v=82
1182382 On ch=1 n=d#6 v=75
1182382 On ch=1 n=d#7 v=89
1182423 On ch=1 n=d#7 v=0
1182423 On ch=1 n=d#6 v=0
1182423 On ch=1 n=f#6 v=0
1182495 On ch=1 n=d#6 v=90
1182495 On ch=1 n=f#6 v=72
1182495 On ch=1 n=d#7 v=99
1182543 On ch=1 n=d#7 v=0
1182543 On ch=1 n=f#6 v=0
1182562 On ch=1 n=d#6 v=0
1182700 On ch=1 n=c6 v=85
1182704 On ch=1 n=d#6 v=75
1182704 On ch=1 n=a6 v=77
1182748 On ch=1 n=c6 v=0
1182751 On ch=1 n=a6 v=0
1182751 On ch=1 n=d#6 v=0
1182799 On ch=1 n=d#6 v=88
1182803 On ch=1 n=c6 v=81
1182803 On ch=1 n=a6 v=80
1182855 On ch=1 n=b3 v=0
1182911 On ch=1 n=b4 v=0
1182928 Par ch=1 c=64 v=127
1182968 On ch=1 n=c6 v=0
1182987 On ch=1 n=d#6 v=0
1182997 On ch=1 n=a6 v=0
1183075 Par ch=1 c=64 v=0
1183092 On ch=1 n=c5 v=100
1183092 On ch=1 n=c4 v=89
1183125 On ch=1 n=c4 v=0
1183125 On ch=1 n=c5 v=0
1183197 On ch=1 n=d#4 v=98
1183197 On ch=1 n=d#5 v=95
1183215 Par ch=1 c=64 v=127
1183232 On ch=1 n=d#4 v=0
1183244 On ch=1 n=d#5 v=0
1183316 On ch=1 n=f#5 v=96
1183316 On ch=1 n=f#4 v=92
1183348 On ch=1 n=f#4 v=0
1183352 On ch=1 n=f#5 v=0
1183392 On ch=1 n=a6 v=98
1183392 On ch=1 n=f#6 v=100
1183402 On ch=1 n=f#7 v=105
1183406 On ch=1 n=a5 v=102
1183406 On ch=1 n=a4 v=100
1183453 On ch=1 n=a6 v=0
1183458 On ch=1 n=a5 v=0
1183465 On ch=1 n=f#6 v=0
1183474 On ch=1 n=a4 v=0
1183485 On ch=1 n=f#7 v=0
1183622 On ch=1 n=g6 v=83
1183622 On ch=1 n=e6 v=79
1183622 On ch=1 n=e7 v=105
1183638 On ch=1 n=e6 v=0
1183641 On ch=1 n=e7 v=0
1183645 Par ch=1 c=64 v=0
1183653 On ch=1 n=g6 v=0
1183753 On ch=1 n=b3 v=100
1183753 On ch=1 n=b4 v=109
1183753 On ch=1 n=g6 v=73
1183753 On ch=1 n=e7 v=89
1183753 On ch=1 n=e6 v=79
1183793 On ch=1 n=g6 v=0
1183805 On ch=1 n=e6 v=0
1183805 On ch=1 n=e7 v=0
1183965 On ch=1 n=c#6 v=83
1183965 On ch=1 n=a#6 v=89
1183969 On ch=1 n=e6 v=69
1184013 On ch=1 n=a#6 v=0
1184013 On ch=1 n=c#6 v=0
1184014 On ch=1 n=e6 v=0
1184085 On ch=1 n=c#6 v=89
1184085 On ch=1 n=a#6 v=99
1184085 On ch=1 n=e6 v=90
1184133 On ch=1 n=b3 v=0
1184133 Par ch=1 c=64 v=127
1184166 On ch=1 n=b4 v=0
1184209 On ch=1 n=e6 v=0
1184219 On ch=1 n=c#6 v=0
1184263 On ch=1 n=a#6 v=0
1184351 On ch=1 n=c#5 v=89
1184351 On ch=1 n=c#4 v=99
1184390 On ch=1 n=c#5 v=0
1184395 On ch=1 n=c#4 v=0
1184455 On ch=1 n=e5 v=99
1184458 On ch=1 n=e4 v=89
1184483 On ch=1 n=e4 v=0
1184483 On ch=1 n=e5 v=0
1184543 On ch=1 n=g5 v=98
1184543 On ch=1 n=g4 v=98
1184590 On ch=1 n=g5 v=0
1184595 On ch=1 n=g4 v=0
1184649 On ch=1 n=g6 v=89
1184649 On ch=1 n=g4 v=99
1184649 On ch=1 n=a#6 v=97
1184651 On ch=1 n=g7 v=99
1184651 On ch=1 n=a#5 v=100
1184651 On ch=1 n=a#4 v=99
1184682 On ch=1 n=g4 v=0
1184691 On ch=1 n=a#5 v=0
1184703 On ch=1 n=a#4 v=0
1184719 On ch=1 n=g6 v=0
1184726 On ch=1 n=a#6 v=0
1184731 On ch=1 n=g7 v=0
1184875 On ch=1 n=f#6 v=89
1184875 On ch=1 n=a6 v=77
1184878 On ch=1 n=f#7 v=99
1184894 On ch=1 n=f#7 v=0
1184894 On ch=1 n=a6 v=0
1184902 On ch=1 n=f#6 v=0
1184906 Par ch=1 c=64 v=0
1184979 On ch=1 n=a6 v=90
1184979 On ch=1 n=b4 v=115
1184979 On ch=1 n=b3 v=99
1184982 On ch=1 n=f#6 v=84
1184982 On ch=1 n=f#7 v=92
1185022 On ch=1 n=a6 v=0
1185051 On ch=1 n=f#6 v=0
1185055 On ch=1 n=f#7 v=0
1185202 On ch=1 n=d#6 v=75
1185202 On ch=1 n=d#7 v=77
1185206 On ch=1 n=f#6 v=72
1185215 On ch=1 n=d#7 v=0
1185226 On ch=1 n=f#6 v=0
1185230 On ch=1 n=d#6 v=0
1185291 Par ch=1 c=64 v=127
1185291 On ch=1 n=f#6 v=92
1185291 On ch=1 n=d#6 v=88
1185295 On ch=1 n=d#7 v=99
1185338 On ch=1 n=f#6 v=0
1185342 On ch=1 n=d#6 v=0
1185351 On ch=1 n=d#7 v=0
1185398 On ch=1 n=b3 v=0
1185398 On ch=1 n=b4 v=0
1185489 On ch=1 n=b6 v=92
1185495 On ch=1 n=b5 v=91
1185499 On ch=1 n=d#6 v=88
1185529 On ch=1 n=b5 v=0
1185539 On ch=1 n=d#6 v=0
1185547 On ch=1 n=b6 v=0
1185659 On ch=1 n=d#5 v=95
1185659 On ch=1 n=d#4 v=88
1185659 On ch=1 n=b6 v=95
1185663 On ch=1 n=d#6 v=98
1185663 On ch=1 n=b5 v=99
1185688 On ch=1 n=d#4 v=0
1185702 On ch=1 n=d#5 v=0
1185799 On ch=1 n=b5 v=0
1185808 On ch=1 n=d#6 v=0
1185808 On ch=1 n=f#4 v=88
1185812 On ch=1 n=f#5 v=86
1185823 On ch=1 n=b6 v=0
1185847 On ch=1 n=f#5 v=0
1185888 On ch=1 n=f#4 v=0
1186027 Par ch=1 c=64 v=0
1186027 On ch=1 n=c7 v=109
1186027 On ch=1 n=a5 v=100
1186027 On ch=1 n=a4 v=98
1186031 On ch=1 n=c6 v=99
1186067 On ch=1 n=a4 v=0
1186071 On ch=1 n=c6 v=0
1186071 On ch=1 n=a5 v=0
1186071 On ch=1 n=c7 v=0
1186122 On ch=1 n=c7 v=105
1186122 On ch=1 n=c5 v=100
1186122 On ch=1 n=c6 v=94
1186168 On ch=1 n=c5 v=0
1186171 On ch=1 n=c6 v=0
1186183 Par ch=1 c=64 v=127
1186193 On ch=1 n=c7 v=0
1186363 On ch=1 n=d#4 v=99
1186369 On ch=1 n=d#5 v=100
1186369 On ch=1 n=d#6 v=99
1186377 On ch=1 n=d#6 v=0
1186392 On ch=1 n=d#5 v=0
1186396 On ch=1 n=d#4 v=0
1186464 On ch=1 n=d#4 v=95
1186464 On ch=1 n=d#5 v=88
1186465 On ch=1 n=d#6 v=99
1186516 On ch=1 n=d#5 v=0
1186523 On ch=1 n=d#6 v=0
1186523 On ch=1 n=d#4 v=0
1186624 Par ch=1 c=64 v=0
1186665 On ch=1 n=e4 v=88
1186665 On ch=1 n=e5 v=89
1186665 On ch=1 n=e6 v=96
1186672 On ch=1 n=e5 v=0
1186689 On ch=1 n=e6 v=0
1186704 On ch=1 n=e4 v=0
1186745 Par ch=1 c=64 v=127
1186776 On ch=1 n=e5 v=104
1186776 On ch=1 n=e6 v=104
1186779 On ch=1 n=e4 v=99
1186824 Par ch=1 c=64 v=0
1186832 On ch=1 n=e6 v=0
1186832 On ch=1 n=e5 v=0
1186836 On ch=1 n=e4 v=0
1186917 Par ch=1 c=64 v=127
1186976 Par ch=1 c=64 v=0
1186988 On ch=1 n=g4 v=87
1186988 On ch=1 n=g6 v=93
1186992 On ch=1 n=g5 v=81
1187013 On ch=1 n=g6 v=0
1187020 On ch=1 n=g5 v=0
1187024 On ch=1 n=g4 v=0
1187085 On ch=1 n=g5 v=95
1187085 On ch=1 n=g6 v=89
1187085 On ch=1 n=g4 v=99
1187117 Par ch=1 c=64 v=127
1187136 On ch=1 n=g5 v=0
1187145 On ch=1 n=g6 v=0
1187152 On ch=1 n=g4 v=0
1187296 On ch=1 n=f#4 v=85
1187296 On ch=1 n=f#5 v=88
1187296 On ch=1 n=f#6 v=86
1187312 On ch=1 n=f#6 v=0
1187332 On ch=1 n=f#5 v=0
1187343 On ch=1 n=f#4 v=0
1187353 Par ch=1 c=64 v=0
1187397 On ch=1 n=f#5 v=100
1187397 On ch=1 n=f#6 v=100
1187397 On ch=1 n=f#4 v=98
1187457 On ch=1 n=f#6 v=0
1187457 On ch=1 n=f#5 v=0
1187457 Par ch=1 c=64 v=127
1187461 On ch=1 n=f#4 v=0
1187613 Par ch=1 c=64 v=0
1187622 On ch=1 n=a3 v=88
1187625 On ch=1 n=a4 v=89
1187625 On ch=1 n=a5 v=89
1187657 On ch=1 n=a5 v=0
1187669 On ch=1 n=a4 v=0
1187669 On ch=1 n=a3 v=0
1187722 On ch=1 n=a5 v=88
1187722 On ch=1 n=a3 v=99
1187722 On ch=1 n=a4 v=95
1187729 Par ch=1 c=64 v=127
1187769 On ch=1 n=a4 v=0
1187794 On ch=1 n=a3 v=0
1187794 On ch=1 n=a5 v=0
1187877 Par ch=1 c=64 v=0
1187937 On ch=1 n=b4 v=91
1187937 On ch=1 n=b5 v=93
1187941 On ch=1 n=b3 v=93
1187966 On ch=1 n=b3 v=0
1187966 On ch=1 n=b5 v=0
1187973 On ch=1 n=b4 v=0
1187981 Par ch=1 c=64 v=127
1188021 On ch=1 n=b4 v=98
1188022 On ch=1 n=b3 v=88
1188022 On ch=1 n=b5 v=98
1188077 On ch=1 n=b4 v=0
1188102 On ch=1 n=b5 v=0
1188102 On ch=1 n=b3 v=0
1188262 On ch=1 n=d5 v=88
1188262 On ch=1 n=d6 v=99
1188266 On ch=1 n=d4 v=78
1188281 On ch=1 n=d6 v=0
1188281 On ch=1 n=d5 v=0
1188293 On ch=1 n=d4 v=0
1188369 On ch=1 n=d6 v=95
1188369 On ch=1 n=d4 v=95
1188369 On ch=1 n=d5 v=101
1188433 On ch=1 n=d5 v=0
1188433 On ch=1 n=d6 v=0
1188442 On ch=1 n=d4 v=0
1188566 On ch=1 n=c4 v=91
1188577 On ch=1 n=c5 v=88
1188577 On ch=1 n=c6 v=89
1188597 On ch=1 n=c6 v=0
1188597 On ch=1 n=c4 v=0
1188606 On ch=1 n=c5 v=0
1188686 On ch=1 n=c4 v=88
1188689 On ch=1 n=c5 v=95
1188689 On ch=1 n=c6 v=95
1188733 On ch=1 n=c6 v=0
1188793 On ch=1 n=c5 v=0
1188793 On ch=1 n=c4 v=0
1188842 On ch=1 n=d#4 v=94
1188845 On ch=1 n=d#3 v=85
1188853 On ch=1 n=d#5 v=95
1188893 On ch=1 n=d#4 v=0
1188897 On ch=1 n=d#3 v=0
1188925 On ch=1 n=d#5 v=0
1188936 Par ch=1 c=64 v=0
1188997 On ch=1 n=e3 v=95
1189001 On ch=1 n=e4 v=95
1189009 On ch=1 n=e5 v=85
1189042 On ch=1 n=e4 v=0
1189156 On ch=1 n=e5 v=0
1189160 On ch=1 n=e3 v=0
1189177 Par ch=1 c=64 v=127
1189185 On ch=1 n=g4 v=102
1189185 On ch=1 n=g3 v=92
1189185 On ch=1 n=g5 v=104
1189193 On ch=1 n=g4 v=0
1189203 On ch=1 n=g3 v=0
1189237 Par ch=1 c=64 v=0
1189303 On ch=1 n=g5 v=0
1189303 On ch=1 n=f#5 v=95
1189303 On ch=1 n=f#4 v=96
1189307 On ch=1 n=f#3 v=95
1189337 On ch=1 n=f#4 v=0
1189347 On ch=1 n=f#3 v=0
1189347 Par ch=1 c=64 v=127
1189379 On ch=1 n=f#5 v=0
1189467 Par ch=1 c=64 v=0
1189470 On ch=1 n=a3 v=105
1189470 On ch=1 n=a4 v=85
1189474 On ch=1 n=a2 v=95
1189527 On ch=1 n=a2 v=0
1189531 On ch=1 n=a3 v=0
1189558 On ch=1 n=a4 v=0
1189559 Par ch=1 c=64 v=127
1189619 On ch=1 n=b3 v=105
1189622 On ch=1 n=b2 v=109
1189622 On ch=1 n=b4 v=98
1189666 On ch=1 n=b3 v=0
1189674 On ch=1 n=b2 v=0
1189690 On ch=1 n=b4 v=0
1189707 Par ch=1 c=64 v=0
1189770 On ch=1 n=d5 v=104
1189774 On ch=1 n=d4 v=98
1189778 On ch=1 n=d3 v=88
1189803 On ch=1 n=d4 v=0
1189811 On ch=1 n=d3 v=0
1189846 On ch=1 n=d5 v=0
1189846 Par ch=1 c=64 v=127
1189899 On ch=1 n=c4 v=95
1189911 On ch=1 n=c3 v=85
1189911 On ch=1 n=c5 v=95
1189946 On ch=1 n=c3 v=0
1189956 On ch=1 n=c5 v=0
1189971 On ch=1 n=c4 v=0
1190035 Par ch=1 c=64 v=0
1190074 On ch=1 n=d#3 v=88
1190076 On ch=1 n=d#4 v=100
1190136 On ch=1 n=d#3 v=0
1190140 On ch=1 n=d#4 v=0
1190171 Par ch=1 c=64 v=127
1190216 On ch=1 n=e3 v=95
1190216 On ch=1 n=e4 v=102
1190270 On ch=1 n=e3 v=0
1190270 Par ch=1 c=64 v=0
1190287 On ch=1 n=e4 v=0
1190360 On ch=1 n=g3 v=95
1190364 On ch=1 n=g4 v=105
1190436 On ch=1 n=g3 v=0
1190436 Par ch=1 c=64 v=127
1190447 On ch=1 n=g4 v=0
1190527 On ch=1 n=f#4 v=109
1190531 On ch=1 n=f#3 v=89
1190584 Par ch=1 c=64 v=0
1190591 On ch=1 n=f#3 v=0
1190614 On ch=1 n=f#4 v=0
1190676 On ch=1 n=d#4 v=95
1190676 On ch=1 n=d#3 v=85
1190720 On ch=1 n=d#3 v=0
1190744 On ch=1 n=d#4 v=0
1190834 On ch=1 n=c4 v=100
1190844 On ch=1 n=c3 v=100
1190894 On ch=1 n=c4 v=0
1190904 On ch=1 n=c3 v=0
1191016 On ch=1 n=b3 v=105
1191020 Par ch=1 c=64 v=127
1191020 On ch=1 n=b2 v=105
1191064 On ch=1 n=b3 v=0
1191075 On ch=1 n=b2 v=0
1191200 On ch=1 n=a#3 v=99
1191204 On ch=1 n=d#7 v=98
1191211 On ch=1 n=g7 v=127
1191211 On ch=1 n=a#6 v=97
1191215 On ch=1 n=g6 v=101
1191216 On ch=1 n=a#2 v=95
1191216 Par ch=1 c=64 v=0
1191316 On ch=1 n=a#3 v=0
1191331 On ch=1 n=a#2 v=0
1191335 Par ch=1 c=64 v=127
1191483 On ch=1 n=d#4 v=90
1191500 On ch=1 n=d#3 v=82
1191507 On ch=1 n=g7 v=0
1191534 On ch=1 n=d#3 v=0
1191534 On ch=1 n=d#7 v=0
1191551 On ch=1 n=d#4 v=0
1191563 On ch=1 n=g6 v=0
1191563 On ch=1 n=a#6 v=0
1191671 On ch=1 n=g4 v=95
1191671 On ch=1 n=g3 v=95
1191727 On ch=1 n=g4 v=0
1191734 On ch=1 n=g3 v=0
1191823 On ch=1 n=c4 v=90
1191827 On ch=1 n=c5 v=91
1191851 On ch=1 n=c5 v=0
1191884 On ch=1 n=c4 v=0
1191924 Par ch=1 c=64 v=0
1191956 On ch=1 n=a#6 v=91
1191956 On ch=1 n=g6 v=87
1191956 On ch=1 n=a#5 v=98
1191960 On ch=1 n=d#6 v=98
1191963 On ch=1 n=a#4 v=99
1191967 On ch=1 n=a#3 v=87
1192007 On ch=1 n=a#3 v=0
1192011 On ch=1 n=a#4 v=0
1192094 Par ch=1 c=64 v=127
1192134 On ch=1 n=g4 v=90
1192134 On ch=1 n=g3 v=95
1192176 On ch=1 n=g3 v=0
1192176 On ch=1 n=g4 v=0
1192303 On ch=1 n=d#5 v=97
1192303 On ch=1 n=d#4 v=90
1192327 On ch=1 n=d#4 v=0
1192343 On ch=1 n=d#5 v=0
1192351 On ch=1 n=a#6 v=0
1192356 On ch=1 n=a#5 v=0
1192356 On ch=1 n=g6 v=0
1192367 On ch=1 n=d#6 v=0
1192443 On ch=1 n=a#4 v=106
1192447 On ch=1 n=a#3 v=96
1192476 On ch=1 n=a#3 v=0
1192494 On ch=1 n=a#4 v=0
1192554 On ch=1 n=a#5 v=98
1192564 On ch=1 n=d#6 v=84
1192564 On ch=1 n=a#6 v=85
1192581 On ch=1 n=d#6 v=0
1192593 On ch=1 n=a#6 v=0
1192593 On ch=1 n=a#5 v=0
1192684 On ch=1 n=e5 v=93
1192684 On ch=1 n=g4 v=96
1192684 On ch=1 n=g5 v=101
1192687 On ch=1 n=d7 v=127
1192693 On ch=1 n=d6 v=109
1192693 On ch=1 n=a#4 v=89
1192773 On ch=1 n=d6 v=0
1192885 On ch=1 n=g5 v=0
1192893 On ch=1 n=e5 v=0
1192893 On ch=1 n=c#7 v=75
1192928 On ch=1 n=a#6 v=79
1192937 On ch=1 n=g4 v=0
1192952 On ch=1 n=a#4 v=0
1193004 On ch=1 n=g6 v=72
1193014 On ch=1 n=d7 v=0
1193029 On ch=1 n=c#7 v=0
1193034 On ch=1 n=a#6 v=0
1193050 On ch=1 n=e6 v=79
1193058 On ch=1 n=g6 v=0
1193074 On ch=1 n=e6 v=0
1193165 On ch=1 n=c#6 v=83
1193205 On ch=1 n=a#5 v=80
1193278 On ch=1 n=g5 v=79
1193325 On ch=1 n=e5 v=83
1193337 On ch=1 n=c#5 v=75
1193385 On ch=1 n=e5 v=0
1193385 On ch=1 n=a#5 v=0
1193389 On ch=1 n=g5 v=0
1193397 On ch=1 n=c#6 v=0
1193397 On ch=1 n=a#4 v=77
1193417 On ch=1 n=c#5 v=0
1193461 On ch=1 n=g4 v=77
1193505 On ch=1 n=a#4 v=0
1193534 On ch=1 n=e4 v=89
1193581 On ch=1 n=e4 v=0
1193581 On ch=1 n=g4 v=0
1193610 Par ch=1 c=64 v=0
1193937 On ch=1 n=d#7 v=110
1193937 On ch=1 n=g7 v=127
1193949 On ch=1 n=g6 v=115
1193949 On ch=1 n=a#6 v=119
1193949 On ch=1 n=a#2 v=100
1193949 On ch=1 n=a#3 v=105
1193994 Par ch=1 c=64 v=127
1194009 On ch=1 n=a#2 v=0
1194024 On ch=1 n=a#3 v=0
1194194 On ch=1 n=d#4 v=88
1194197 On ch=1 n=d#3 v=82
1194230 On ch=1 n=g7 v=0
1194237 On ch=1 n=d#3 v=0
1194258 On ch=1 n=d#4 v=0
1194258 On ch=1 n=g6 v=0
1194258 On ch=1 n=d#7 v=0
1194269 On ch=1 n=a#6 v=0
1194362 On ch=1 n=g4 v=95
1194369 On ch=1 n=g3 v=92
1194405 On ch=1 n=g4 v=0
1194421 On ch=1 n=g3 v=0
1194521 On ch=1 n=c4 v=90
1194530 On ch=1 n=c5 v=83
1194558 On ch=1 n=c5 v=0
1194573 On ch=1 n=c4 v=0
1194621 Par ch=1 c=64 v=0
1194662 On ch=1 n=g6 v=91
1194662 On ch=1 n=a#6 v=91
1194662 On ch=1 n=d#6 v=95
1194662 On ch=1 n=a#5 v=98
1194665 On ch=1 n=a#4 v=97
1194677 On ch=1 n=a#3 v=89
1194705 On ch=1 n=a#3 v=0
1194715 On ch=1 n=a#4 v=0
1194811 Par ch=1 c=64 v=127
1194818 On ch=1 n=g4 v=90
1194826 On ch=1 n=g3 v=77
1194862 On ch=1 n=g4 v=0
1194867 On ch=1 n=g3 v=0
1195006 On ch=1 n=d#5 v=95
1195006 On ch=1 n=d#4 v=90
1195047 On ch=1 n=d#5 v=0
1195050 On ch=1 n=d#4 v=0
1195054 On ch=1 n=a#6 v=0
1195071 On ch=1 n=a#5 v=0
1195078 On ch=1 n=d#6 v=0
1195082 On ch=1 n=g6 v=0
1195175 On ch=1 n=a#4 v=99
1195175 On ch=1 n=a#3 v=89
1195205 On ch=1 n=a#3 v=0
1195215 On ch=1 n=a#4 v=0
1195298 On ch=1 n=a#5 v=96
1195314 On ch=1 n=a#6 v=89
1195314 On ch=1 n=d#6 v=86
1195335 On ch=1 n=d#6 v=0
1195346 On ch=1 n=a#5 v=0
1195358 On ch=1 n=a#6 v=0
1195435 Par ch=1 c=64 v=0
1195439 On ch=1 n=e5 v=81
1195439 On ch=1 n=g5 v=89
1195439 On ch=1 n=g4 v=86
1195451 On ch=1 n=a#4 v=83
1195462 On ch=1 n=d7 v=127
1195462 On ch=1 n=d6 v=100
1195551 On ch=1 n=d6 v=0
1195622 Par ch=1 c=64 v=127
1195632 On ch=1 n=c#7 v=77
1195643 On ch=1 n=g5 v=0
1195652 On ch=1 n=e5 v=0
1195679 On ch=1 n=a#6 v=79
1195689 On ch=1 n=g4 v=0
1195696 On ch=1 n=a#4 v=0
1195749 On ch=1 n=d7 v=0
1195749 On ch=1 n=g6 v=75
1195764 On ch=1 n=c#7 v=0
1195779 On ch=1 n=a#6 v=0
1195805 On ch=1 n=e6 v=79
1195808 On ch=1 n=g6 v=0
1195820 On ch=1 n=e6 v=0
1195900 On ch=1 n=c#6 v=83
1195953 On ch=1 n=a#5 v=84
1196009 Par ch=1 c=64 v=0
1196028 On ch=1 n=g5 v=76
1196076 On ch=1 n=e5 v=83
1196092 On ch=1 n=c#5 v=75
1196152 On ch=1 n=e5 v=0
1196156 On ch=1 n=a#5 v=0
1196165 On ch=1 n=a#4 v=71
1196173 On ch=1 n=g5 v=0
1196180 On ch=1 n=c#5 v=0
1196185 Par ch=1 c=64 v=127
1196188 On ch=1 n=c#6 v=0
1196221 On ch=1 n=g4 v=75
1196264 On ch=1 n=a#4 v=0
1196285 On ch=1 n=e4 v=89
1196332 On ch=1 n=g4 v=0
1196376 On ch=1 n=e4 v=0
1196401 Par ch=1 c=64 v=0
1196676 On ch=1 n=b4 v=80
1196680 On ch=1 n=e6 v=102
1196680 On ch=1 n=f5 v=77
1196692 On ch=1 n=g#4 v=82
1196696 On ch=1 n=e7 v=127
1196696 On ch=1 n=g#5 v=90
1196732 Par ch=1 c=64 v=127
1196828 On ch=1 n=g#5 v=0
1196828 On ch=1 n=e6 v=0
1196865 On ch=1 n=g#4 v=0
1196879 On ch=1 n=b4 v=0
1196889 On ch=1 n=d7 v=71
1196919 On ch=1 n=f5 v=0
1196936 On ch=1 n=b6 v=82
1196976 On ch=1 n=e7 v=0
1197005 On ch=1 n=g#6 v=77
1197012 On ch=1 n=d7 v=0
1197021 On ch=1 n=b6 v=0
1197052 On ch=1 n=f6 v=75
1197068 On ch=1 n=g#6 v=0
1197075 On ch=1 n=f6 v=0
1197153 On ch=1 n=d6 v=75
1197212 On ch=1 n=b5 v=81
1197265 On ch=1 n=g#5 v=82
1197288 Par ch=1 c=64 v=0
1197329 On ch=1 n=f5 v=86
1197369 On ch=1 n=d5 v=73
1197412 On ch=1 n=b4 v=78
1197421 On ch=1 n=f5 v=0
1197445 On ch=1 n=b5 v=0
1197452 On ch=1 n=g#5 v=0
1197468 Par ch=1 c=64 v=127
1197472 On ch=1 n=d6 v=0
1197489 On ch=1 n=g#4 v=80
1197540 On ch=1 n=f4 v=87
1197548 On ch=1 n=b4 v=0
1197548 On ch=1 n=d5 v=0
1197580 On ch=1 n=g#4 v=0
1197612 On ch=1 n=f4 v=0
1197669 Par ch=1 c=64 v=0
1197929 On ch=1 n=c5 v=85
1197929 On ch=1 n=f6 v=127
1197929 On ch=1 n=f#5 v=90
1197932 On ch=1 n=f7 v=127
1197936 On ch=1 n=a5 v=90
1197940 On ch=1 n=a4 v=88
1198009 Par ch=1 c=64 v=127
1198068 On ch=1 n=f6 v=0
1198075 On ch=1 n=d#7 v=74
1198161 On ch=1 n=f7 v=0
1198165 On ch=1 n=c7 v=73
1198176 On ch=1 n=a4 v=0
1198193 On ch=1 n=f#5 v=0
1198193 On ch=1 n=c5 v=0
1198204 On ch=1 n=d#7 v=0
1198204 On ch=1 n=a6 v=72
1198216 On ch=1 n=a5 v=0
1198225 On ch=1 n=c7 v=0
1198236 On ch=1 n=a6 v=0
1198248 On ch=1 n=f6 v=76
1198276 On ch=1 n=f6 v=0
1198340 On ch=1 n=d#6 v=82
1198389 On ch=1 n=c6 v=89
1198436 On ch=1 n=d#6 v=0
1198448 On ch=1 n=c6 v=0
1198580 On ch=1 n=c#5 v=84
1198584 On ch=1 n=g5 v=91
1198584 On ch=1 n=a#4 v=89
1198592 On ch=1 n=a#5 v=96
1198595 On ch=1 n=f#6 v=127
1198599 On ch=1 n=f#7 v=127
1198688 On ch=1 n=f#6 v=0
1198716 On ch=1 n=e7 v=65
1198760 On ch=1 n=d#7 v=34
1198792 On ch=1 n=c#7 v=78
1198836 On ch=1 n=g5 v=0
1198846 On ch=1 n=a#6 v=76
1198857 On ch=1 n=c#5 v=0
1198865 On ch=1 n=a#5 v=0
1198865 On ch=1 n=a#4 v=0
1198873 On ch=1 n=f#7 v=0
1198877 On ch=1 n=e7 v=0
1198881 On ch=1 n=c#7 v=0
1198889 On ch=1 n=d#7 v=0
1198896 On ch=1 n=f#6 v=79
1198906 On ch=1 n=a#6 v=0
1198922 On ch=1 n=f#6 v=0
1199006 On ch=1 n=e6 v=86
1199062 On ch=1 n=c#6 v=96
1199072 On ch=1 n=e6 v=0
1199110 On ch=1 n=c#6 v=0
1199290 On ch=1 n=g#5 v=90
1199290 On ch=1 n=d5 v=83
1199300 On ch=1 n=g6 v=127
1199300 On ch=1 n=g7 v=127
1199303 On ch=1 n=b4 v=86
1199303 On ch=1 n=b5 v=93
1199307 Par ch=1 c=64 v=0
1199491 Par ch=1 c=64 v=127
1199496 On ch=1 n=g6 v=0
1199507 On ch=1 n=f7 v=69
1199511 On ch=1 n=b5 v=0
1199536 On ch=1 n=g#5 v=0
1199556 On ch=1 n=d5 v=0
1199563 On ch=1 n=d7 v=83
1199579 On ch=1 n=b4 v=0
1199639 On ch=1 n=g7 v=0
1199639 On ch=1 n=b6 v=78
1199667 On ch=1 n=d7 v=0
1199683 On ch=1 n=f7 v=0
1199700 On ch=1 n=g6 v=81
1199711 On ch=1 n=b6 v=0
1199731 On ch=1 n=g6 v=0
1199807 On ch=1 n=f6 v=71
1199867 On ch=1 n=d6 v=80
1199896 On ch=1 n=f6 v=0
1199926 On ch=1 n=d6 v=0
1199943 On ch=1 n=b5 v=87
1199983 On ch=1 n=b5 v=0
1200079 On ch=1 n=g4 v=115
1200083 Par ch=1 c=64 v=0
1200090 On ch=1 n=g5 v=110
1200135 On ch=1 n=f4 v=64
1200150 On ch=1 n=g4 v=0
1200160 On ch=1 n=f5 v=78
1200189 On ch=1 n=d4 v=66
1200237 On ch=1 n=f4 v=0
1200237 Par ch=1 c=64 v=127
1200249 On ch=1 n=d5 v=79
1200264 On ch=1 n=b3 v=68
1200280 On ch=1 n=d4 v=0
1200280 On ch=1 n=g5 v=0
1200292 On ch=1 n=f5 v=0
1200320 On ch=1 n=d5 v=0
1200320 On ch=1 n=b4 v=78
1200324 On ch=1 n=b3 v=0
1200356 On ch=1 n=b4 v=0
1200367 On ch=1 n=e4 v=111
1200384 Par ch=1 c=64 v=0
1200404 On ch=1 n=e5 v=115
1200429 On ch=1 n=d4 v=64
1200464 On ch=1 n=e4 v=0
1200476 On ch=1 n=d5 v=71
1200520 On ch=1 n=d4 v=0
1200520 On ch=1 n=b3 v=62
1200537 Par ch=1 c=64 v=127
1200549 On ch=1 n=e5 v=0
1200549 On ch=1 n=b4 v=76
1200576 On ch=1 n=d5 v=0
1200580 On ch=1 n=g#3 v=65
1200590 On ch=1 n=b4 v=0
1200606 On ch=1 n=b3 v=0
1200634 On ch=1 n=g#4 v=75
1200666 On ch=1 n=g#3 v=0
1200690 On ch=1 n=c#4 v=116
1200701 Par ch=1 c=64 v=0
1200710 On ch=1 n=c#5 v=115
1200744 On ch=1 n=d5 v=56
1200773 On ch=1 n=g#4 v=0
1200783 On ch=1 n=b3 v=69
1200783 On ch=1 n=b4 v=70
1200798 On ch=1 n=d5 v=0
1200798 On ch=1 n=c#4 v=0
1200834 Par ch=1 c=64 v=127
1200838 On ch=1 n=g#3 v=65
1200891 On ch=1 n=b3 v=0
1200891 On ch=1 n=g#4 v=80
1200895 On ch=1 n=c#5 v=0
1200895 On ch=1 n=a#4 v=39
1200903 On ch=1 n=f3 v=73
1200914 On ch=1 n=b4 v=0
1200918 On ch=1 n=g#3 v=0
1200934 On ch=1 n=a#4 v=0
1200943 On ch=1 n=f4 v=81
1200946 On ch=1 n=g#4 v=0
1201003 On ch=1 n=f3 v=0
1201007 On ch=1 n=f4 v=0
1201007 Par ch=1 c=64 v=0
1201022 On ch=1 n=a#3 v=115
1201037 On ch=1 n=a#4 v=116
1201090 On ch=1 n=g#4 v=73
1201094 On ch=1 n=g#3 v=68
1201111 On ch=1 n=a#3 v=0
1201167 On ch=1 n=f3 v=65
1201167 Par ch=1 c=64 v=127
1201202 On ch=1 n=f4 v=77
1201206 On ch=1 n=g#3 v=0
1201218 On ch=1 n=d3 v=71
1201242 On ch=1 n=a#4 v=0
1201243 On ch=1 n=g#4 v=0
1201258 On ch=1 n=d4 v=82
1201268 On ch=1 n=f3 v=0
1201271 On ch=1 n=f4 v=0
1201318 On ch=1 n=d4 v=0
1201328 On ch=1 n=d3 v=0
1201339 On ch=1 n=g3 v=88
1201340 Par ch=1 c=64 v=0
1201359 On ch=1 n=g4 v=90
1201420 On ch=1 n=f3 v=82
1201435 On ch=1 n=g3 v=0
1201435 On ch=1 n=f4 v=76
1201508 On ch=1 n=d3 v=71
1201527 On ch=1 n=d4 v=78
1201537 On ch=1 n=f3 v=0
1201556 Par ch=1 c=64 v=127
1201561 On ch=1 n=g4 v=0
1201568 On ch=1 n=b2 v=72
1201572 On ch=1 n=f4 v=0
1201588 On ch=1 n=d3 v=0
1201598 On ch=1 n=b3 v=79
1201602 On ch=1 n=d4 v=0
1201629 On ch=1 n=b3 v=0
1201638 On ch=1 n=b2 v=0
1201658 On ch=1 n=e3 v=88
1201692 Par ch=1 c=64 v=0
1201692 On ch=1 n=e4 v=95
1201732 On ch=1 n=d3 v=68
1201753 On ch=1 n=e3 v=0
1201754 On ch=1 n=d4 v=75
1201812 On ch=1 n=b2 v=75
1201829 Par ch=1 c=64 v=127
1201845 On ch=1 n=d3 v=0
1201855 On ch=1 n=b3 v=85
1201871 On ch=1 n=g2 v=48
1201902 On ch=1 n=b2 v=0
1201918 On ch=1 n=g2 v=0
1201925 On ch=1 n=g3 v=88
1201946 On ch=1 n=d4 v=0
1201978 On ch=1 n=e4 v=0
1201988 On ch=1 n=b3 v=0
1201988 On ch=1 n=f#3 v=127
1201988 On ch=1 n=f#2 v=120
1202015 On ch=1 n=g3 v=0
1202015 Par ch=1 c=64 v=0
1202036 On ch=1 n=f#2 v=0
1202036 On ch=1 n=f#3 v=0
1202268 On ch=1 n=f#2 v=100
1202272 On ch=1 n=f#3 v=105
1202403 On ch=1 n=f#3 v=0
1202403 On ch=1 n=f#2 v=0
1202527 On ch=1 n=d5 v=89
1202527 On ch=1 n=f#2 v=109
1202527 On ch=1 n=f#3 v=109
1202527 On ch=1 n=b4 v=90
1202528 On ch=1 n=f#4 v=98
1202528 On ch=1 n=f#5 v=98
1202643 On ch=1 n=f#2 v=0
1202647 On ch=1 n=f#3 v=0
1202780 On ch=1 n=f#3 v=111
1202780 On ch=1 n=f#2 v=111
1202903 On ch=1 n=f#2 v=0
1202903 On ch=1 n=f#3 v=0
1203048 On ch=1 n=f#3 v=115
1203048 On ch=1 n=f#2 v=120
1203095 Par ch=1 c=64 v=127
1203143 On ch=1 n=f#5 v=0
1203152 On ch=1 n=b4 v=0
1203152 On ch=1 n=d5 v=0
1203167 On ch=1 n=f#2 v=0
1203212 On ch=1 n=f#4 v=0
1203227 On ch=1 n=f#3 v=0
1203291 On ch=1 n=e3 v=120
1203359 On ch=1 n=e3 v=0
1203419 On ch=1 n=d3 v=120
1203483 On ch=1 n=d3 v=0
1203568 On ch=1 n=d5 v=103
1203568 On ch=1 n=f4 v=103
1203575 On ch=1 n=a3 v=123
1203575 On ch=1 n=b4 v=98
1203663 On ch=1 n=a3 v=0
1203912 On ch=1 n=g#3 v=125
1203987 On ch=1 n=g#3 v=0
1204103 On ch=1 n=f4 v=0
1204139 On ch=1 n=b4 v=0
1204199 Par ch=1 c=64 v=0
1204209 On ch=1 n=e4 v=99
1204216 On ch=1 n=g3 v=127
1204368 Par ch=1 c=64 v=127
1204420 On ch=1 n=g3 v=0
1204533 On ch=1 n=a3 v=50
1204592 On ch=1 n=a3 v=0
1204637 On ch=1 n=g3 v=59
1204673 On ch=1 n=g3 v=0
1204732 On ch=1 n=a3 v=64
1204772 On ch=1 n=g3 v=67
1204789 On ch=1 n=a3 v=0
1204793 On ch=1 n=e4 v=0
1204848 On ch=1 n=g3 v=0
1204865 On ch=1 n=a3 v=71
1204897 On ch=1 n=a#4 v=99
1204923 On ch=1 n=g3 v=63
1204933 On ch=1 n=a3 v=0
1204953 On ch=1 n=d5 v=0
1204981 On ch=1 n=g3 v=0
1205010 On ch=1 n=a3 v=67
1205082 On ch=1 n=a3 v=0
1205082 On ch=1 n=g3 v=70
1205133 On ch=1 n=g3 v=0
1205177 On ch=1 n=a3 v=67
1205217 On ch=1 n=a3 v=0
1205220 On ch=1 n=g3 v=71
1205253 On ch=1 n=a#4 v=0
1205263 On ch=1 n=g3 v=0
1205319 On ch=1 n=a3 v=72
1205354 On ch=1 n=g3 v=67
1205370 On ch=1 n=a3 v=0
1205426 On ch=1 n=g3 v=0
1205450 On ch=1 n=a3 v=77
1205514 On ch=1 n=g3 v=68
1205524 On ch=1 n=a3 v=0
1205575 On ch=1 n=g3 v=0
1205620 On ch=1 n=a3 v=77
1205647 On ch=1 n=c#5 v=120
1205663 Par ch=1 c=64 v=0
1205673 On ch=1 n=a3 v=0
1205673 On ch=1 n=g3 v=66
1205704 On ch=1 n=c#5 v=0
1205733 On ch=1 n=g3 v=0
1205764 On ch=1 n=a3 v=71
1205774 Par ch=1 c=64 v=127
1205838 On ch=1 n=a3 v=0
1205838 On ch=1 n=g3 v=71
1205902 On ch=1 n=g3 v=0
1205925 On ch=1 n=a3 v=70
1205985 On ch=1 n=g3 v=67
1206005 On ch=1 n=a3 v=0
1206068 On ch=1 n=g3 v=0
1206097 On ch=1 n=a3 v=38
1206161 On ch=1 n=g3 v=56
1206237 On ch=1 n=a3 v=0
1206281 On ch=1 n=g3 v=0
1206469 On ch=1 n=f#3 v=91
1206554 On ch=1 n=f#3 v=0
1206602 On ch=1 n=e3 v=76
1206689 On ch=1 n=e3 v=0
1206704 On ch=1 n=d3 v=72
1206785 On ch=1 n=c#3 v=78
1206793 On ch=1 n=d3 v=0
1206830 On ch=1 n=c#3 v=0
1206861 Par ch=1 c=64 v=0
1206918 On ch=1 n=b2 v=90
1207037 Par ch=1 c=64 v=127
1207089 On ch=1 n=b2 v=0
1207105 On ch=1 n=b3 v=61
1207148 On ch=1 n=b3 v=0
1207261 On ch=1 n=d4 v=70
1207310 On ch=1 n=f#4 v=70
1207385 On ch=1 n=d4 v=0
1207385 On ch=1 n=d7 v=120
1207389 On ch=1 n=f#6 v=84
1207397 On ch=1 n=d6 v=86
1207405 On ch=1 n=b4 v=42
1207410 On ch=1 n=f#4 v=0
1207433 On ch=1 n=d5 v=70
1207448 On ch=1 n=b4 v=0
1207458 On ch=1 n=d7 v=0
1207461 On ch=1 n=d6 v=0
1207461 On ch=1 n=f#6 v=0
1207465 On ch=1 n=d5 v=0
1207537 On ch=1 n=f5 v=78
1207605 On ch=1 n=f#5 v=82
1207617 On ch=1 n=f5 v=0
1207678 On ch=1 n=f#5 v=0
1207685 On ch=1 n=d6 v=95
1207689 On ch=1 n=f6 v=119
1207694 On ch=1 n=b5 v=99
1207697 On ch=1 n=a5 v=78
1207701 Par ch=1 c=64 v=0
1207741 On ch=1 n=a5 v=0
1207770 On ch=1 n=g5 v=73
1207817 Par ch=1 c=64 v=127
1207845 On ch=1 n=g5 v=0
1207862 On ch=1 n=d5 v=76
1207953 On ch=1 n=b4 v=75
1207965 On ch=1 n=d5 v=0
1208029 On ch=1 n=f6 v=0
1208029 On ch=1 n=g5 v=77
1208044 On ch=1 n=b4 v=0
1208074 On ch=1 n=d6 v=0
1208101 On ch=1 n=f#5 v=76
1208121 On ch=1 n=b5 v=0
1208131 On ch=1 n=f#6 v=110
1208142 On ch=1 n=g5 v=0
1208167 On ch=1 n=d5 v=74
1208206 On ch=1 n=b4 v=80
1208211 On ch=1 n=f#5 v=0
1208222 On ch=1 n=f#6 v=0
1208265 On ch=1 n=d5 v=0
1208291 On ch=1 n=b4 v=0
1208326 On ch=1 n=a6 v=100
1208330 On ch=1 n=d6 v=95
1208338 On ch=1 n=b5 v=93
1208338 On ch=1 n=f5 v=100
1208367 On ch=1 n=b5 v=0
1208371 On ch=1 n=d6 v=0
1208398 Par ch=1 c=64 v=0
1208406 On ch=1 n=f5 v=0
1208467 On ch=1 n=g#6 v=61
1208531 On ch=1 n=a6 v=0
1208531 On ch=1 n=f5 v=111
1208546 On ch=1 n=f6 v=61
1208574 On ch=1 n=f5 v=0
1208606 On ch=1 n=d6 v=66
1208655 On ch=1 n=d6 v=0
1208655 On ch=1 n=f6 v=0
1208682 On ch=1 n=g#6 v=0
1208682 On ch=1 n=f5 v=112
1208698 On ch=1 n=b5 v=68
1208742 On ch=1 n=f5 v=0
1208771 On ch=1 n=b5 v=0
1208786 On ch=1 n=d6 v=65
1208831 On ch=1 n=f6 v=49
1208834 On ch=1 n=f5 v=113
1208861 On ch=1 n=d6 v=0
1208878 On ch=1 n=f5 v=0
1208905 On ch=1 n=g#6 v=64
1208945 On ch=1 n=f6 v=0
1208986 Par ch=1 c=64 v=127
1209002 On ch=1 n=g#6 v=0
1209002 On ch=1 n=a6 v=82
1209002 On ch=1 n=e5 v=114
1209002 On ch=1 n=b5 v=83
1209007 On ch=1 n=c#6 v=78
1209062 On ch=1 n=b5 v=0
1209066 On ch=1 n=c#6 v=0
1209094 On ch=1 n=e5 v=0
1209134 On ch=1 n=g6 v=69
1209191 On ch=1 n=d5 v=115
1209202 On ch=1 n=a6 v=0
1209206 On ch=1 n=e6 v=68
1209238 On ch=1 n=c#5 v=116
1209248 On ch=1 n=g6 v=0
1209251 On ch=1 n=d5 v=0
1209283 On ch=1 n=e6 v=0
1209283 On ch=1 n=c#6 v=76
1209295 On ch=1 n=c#5 v=0
1209312 On ch=1 n=c#6 v=0
1209312 On ch=1 n=g5 v=117
1209315 Par ch=1 c=64 v=0
1209331 On ch=1 n=b5 v=58
1209355 On ch=1 n=b5 v=0
1209372 On ch=1 n=g5 v=0
1209404 On ch=1 n=a#5 v=75
1209479 On ch=1 n=e6 v=69
1209503 On ch=1 n=f#5 v=118
1209515 On ch=1 n=a#5 v=0
1209535 On ch=1 n=c#6 v=78
1209576 On ch=1 n=f#5 v=0
1209587 On ch=1 n=e6 v=0
1209612 On ch=1 n=c#6 v=0
1209635 On ch=1 n=b2 v=93
1209671 Par ch=1 c=64 v=127
1209702 On ch=1 n=b2 v=0
1209747 On ch=1 n=b3 v=47
1209792 On ch=1 n=b3 v=0
1209859 On ch=1 n=d4 v=67
1209939 On ch=1 n=f#4 v=33
1209984 On ch=1 n=b4 v=66
1209999 On ch=1 n=f#4 v=0
1209999 On ch=1 n=d4 v=0
1209999 On ch=1 n=d7 v=118
1210002 On ch=1 n=d6 v=88
1210002 On ch=1 n=f#6 v=116
1210023 On ch=1 n=b4 v=0
1210044 On ch=1 n=d5 v=77
1210059 On ch=1 n=f#6 v=0
1210075 On ch=1 n=d6 v=0
1210075 On ch=1 n=d7 v=0
1210104 On ch=1 n=d5 v=0
1210168 On ch=1 n=f5 v=58
1210228 On ch=1 n=f5 v=0
1210228 On ch=1 n=f#5 v=88
1210292 Par ch=1 c=64 v=0
1210295 On ch=1 n=f#5 v=0
1210304 On ch=1 n=f6 v=115
1210304 On ch=1 n=d6 v=98
1210308 On ch=1 n=b5 v=99
1210308 On ch=1 n=a5 v=80
1210371 On ch=1 n=a5 v=0
1210392 On ch=1 n=g5 v=70
1210422 Par ch=1 c=64 v=127
1210475 On ch=1 n=g5 v=0
1210487 On ch=1 n=d5 v=76
1210572 On ch=1 n=b4 v=80
1210584 On ch=1 n=d5 v=0
1210659 On ch=1 n=g5 v=79
1210675 On ch=1 n=b4 v=0
1210718 On ch=1 n=f#5 v=78
1210764 On ch=1 n=g5 v=0
1210764 On ch=1 n=f6 v=0
1210796 On ch=1 n=b5 v=0
1210796 On ch=1 n=d5 v=79
1210808 On ch=1 n=d6 v=0
1210808 On ch=1 n=f#6 v=79
1210819 On ch=1 n=f#5 v=0
1210835 On ch=1 n=b4 v=75
1210884 On ch=1 n=f#6 v=0
1210899 On ch=1 n=d5 v=0
1210932 On ch=1 n=b4 v=0
1210975 On ch=1 n=f5 v=100
1210979 On ch=1 n=b5 v=91
1210991 On ch=1 n=a6 v=92
1210991 On ch=1 n=d6 v=86
1211023 On ch=1 n=f5 v=0
1211035 On ch=1 n=d6 v=0
1211035 Par ch=1 c=64 v=0
1211039 On ch=1 n=b5 v=0
1211116 On ch=1 n=g#6 v=70
1211155 On ch=1 n=f5 v=103
1211195 On ch=1 n=a6 v=0
1211195 On ch=1 n=f6 v=58
1211215 On ch=1 n=f5 v=0
1211243 On ch=1 n=d6 v=71
1211271 On ch=1 n=g#6 v=0
1211281 On ch=1 n=f6 v=0
1211285 On ch=1 n=d6 v=0
1211316 On ch=1 n=b5 v=72
1211332 On ch=1 n=f5 v=106
1211368 On ch=1 n=f5 v=0
1211393 On ch=1 n=b5 v=0
1211412 On ch=1 n=d6 v=67
1211460 On ch=1 n=f6 v=58
1211480 On ch=1 n=f5 v=109
1211496 On ch=1 n=d6 v=0
1211520 On ch=1 n=f5 v=0
1211532 On ch=1 n=g#6 v=63
1211656 On ch=1 n=g#6 v=0
1211656 On ch=1 n=f6 v=0
1211661 On ch=1 n=b5 v=79
1211661 On ch=1 n=c#6 v=79
1211661 On ch=1 n=a6 v=70
1211669 On ch=1 n=e5 v=111
1211685 Par ch=1 c=64 v=127
1211700 On ch=1 n=c#6 v=0
1211700 On ch=1 n=b5 v=0
1211741 On ch=1 n=e5 v=0
1211748 On ch=1 n=g6 v=71
1211821 On ch=1 n=d5 v=113
1211824 On ch=1 n=a6 v=0
1211849 On ch=1 n=e6 v=59
1211865 On ch=1 n=c#5 v=116
1211885 On ch=1 n=g6 v=0
1211896 On ch=1 n=d5 v=0
1211919 On ch=1 n=e6 v=0
1211919 On ch=1 n=c#6 v=71
1211949 On ch=1 n=g5 v=117
1211956 On ch=1 n=c#6 v=0
1211972 On ch=1 n=b5 v=71
1211980 On ch=1 n=c#5 v=0
1211992 Par ch=1 c=64 v=0
1212016 On ch=1 n=b5 v=0
1212025 On ch=1 n=g5 v=0
1212052 On ch=1 n=a#5 v=70
1212112 On ch=1 n=e6 v=63
1212176 On ch=1 n=f#5 v=119
1212200 On ch=1 n=c#6 v=83
1212208 On ch=1 n=a#5 v=0
1212236 On ch=1 n=f#5 v=0
1212252 On ch=1 n=e6 v=0
1212262 On ch=1 n=c#6 v=0
1212278 On ch=1 n=e3 v=86
1212341 On ch=1 n=e3 v=0
1212376 Par ch=1 c=64 v=127
1212401 On ch=1 n=e4 v=71
1212489 On ch=1 n=e4 v=0
1212505 On ch=1 n=g4 v=74
1212546 On ch=1 n=b4 v=75
1212613 On ch=1 n=e5 v=79
1212633 On ch=1 n=g4 v=0
1212649 On ch=1 n=b4 v=0
1212649 On ch=1 n=g6 v=93
1212649 On ch=1 n=b6 v=95
1212657 On ch=1 n=g7 v=115
1212678 On ch=1 n=e5 v=0
1212693 On ch=1 n=g5 v=76
1212709 On ch=1 n=b6 v=0
1212725 On ch=1 n=g5 v=0
1212735 On ch=1 n=g7 v=0
1212750 On ch=1 n=g6 v=0
1212810 On ch=1 n=a#5 v=75
1212870 On ch=1 n=b5 v=85
1212886 On ch=1 n=a#5 v=0
1212909 Par ch=1 c=64 v=0
1212923 On ch=1 n=b5 v=0
1212935 On ch=1 n=d6 v=61
1212946 On ch=1 n=e6 v=94
1212946 On ch=1 n=g6 v=99
1212946 On ch=1 n=a#6 v=119
1212979 On ch=1 n=d6 v=0
1213050 On ch=1 n=c6 v=54
1213053 On ch=1 n=d6 v=52
1213070 Par ch=1 c=64 v=127
1213094 On ch=1 n=d6 v=0
1213114 On ch=1 n=c6 v=0
1213130 On ch=1 n=g5 v=79
1213215 On ch=1 n=e5 v=63
1213226 On ch=1 n=g5 v=0
1213246 On ch=1 n=f5 v=45
1213290 On ch=1 n=f5 v=0
1213290 On ch=1 n=c6 v=87
1213322 On ch=1 n=e5 v=0
1213346 On ch=1 n=a#6 v=0
1213367 On ch=1 n=c6 v=0
1213367 On ch=1 n=b5 v=71
1213410 On ch=1 n=e6 v=0
1213414 On ch=1 n=b6 v=111
1213426 On ch=1 n=g6 v=0
1213430 On ch=1 n=g5 v=83
1213473 On ch=1 n=e5 v=76
1213479 On ch=1 n=b5 v=0
1213499 On ch=1 n=b6 v=0
1213530 On ch=1 n=g5 v=0
1213566 On ch=1 n=e5 v=0
1213606 On ch=1 n=d7 v=99
1213610 On ch=1 n=e6 v=94
1213614 On ch=1 n=g6 v=96
1213618 On ch=1 n=a#5 v=100
1213646 On ch=1 n=g6 v=0
1213650 On ch=1 n=e6 v=0
1213670 On ch=1 n=a#5 v=0
1213675 Par ch=1 c=64 v=0
1213735 On ch=1 n=c#7 v=70
1213795 On ch=1 n=a#5 v=103
1213814 On ch=1 n=a#6 v=73
1213855 On ch=1 n=a#5 v=0
1213855 On ch=1 n=d7 v=0
1213870 On ch=1 n=g6 v=73
1213886 On ch=1 n=c#7 v=0
1213906 On ch=1 n=g6 v=0
1213916 On ch=1 n=a#6 v=0
1213947 On ch=1 n=e6 v=67
1213963 On ch=1 n=a#5 v=104
1214019 On ch=1 n=a#5 v=0
1214023 On ch=1 n=e6 v=0
1214023 On ch=1 n=g6 v=66
1214111 On ch=1 n=a#6 v=60
1214116 On ch=1 n=g6 v=0
1214127 On ch=1 n=a#5 v=106
1214163 On ch=1 n=c#7 v=68
1214170 On ch=1 n=a#5 v=0
1214223 On ch=1 n=a#6 v=0
1214239 On ch=1 n=c#7 v=0
1214283 On ch=1 n=d7 v=68
1214283 On ch=1 n=e6 v=72
1214283 On ch=1 n=f#6 v=66
1214286 On ch=1 n=a5 v=107
1214327 On ch=1 n=f#6 v=0
1214343 Par ch=1 c=64 v=127
1214371 On ch=1 n=a5 v=0
1214371 On ch=1 n=e6 v=0
1214419 On ch=1 n=c7 v=64
1214510 On ch=1 n=a6 v=72
1214516 On ch=1 n=g5 v=109
1214527 On ch=1 n=d7 v=0
1214580 On ch=1 n=f#5 v=111
1214587 On ch=1 n=g5 v=0
1214611 On ch=1 n=f#6 v=70
1214619 On ch=1 n=c7 v=0
1214619 Par ch=1 c=64 v=0
1214627 On ch=1 n=a6 v=0
1214637 On ch=1 n=f#6 v=0
1214649 On ch=1 n=c6 v=113
1214664 On ch=1 n=f#5 v=0
1214664 On ch=1 n=e6 v=73
1214704 On ch=1 n=c6 v=0
1214709 On ch=1 n=e6 v=0
1214737 On ch=1 n=d#6 v=74
1214816 On ch=1 n=d#6 v=0
1214816 On ch=1 n=a6 v=74
1214828 On ch=1 n=b5 v=114
1214889 On ch=1 n=f#6 v=84
1214920 On ch=1 n=b5 v=0
1214936 On ch=1 n=a6 v=0
1214964 On ch=1 n=f#6 v=0
1214964 On ch=1 n=e3 v=88
1215029 Par ch=1 c=64 v=127
1215044 On ch=1 n=e3 v=0
1215054 On ch=1 n=e4 v=58
1215097 On ch=1 n=e4 v=0
1215237 On ch=1 n=b4 v=63
1215306 On ch=1 n=e5 v=56
1215320 On ch=1 n=b4 v=0
1215330 On ch=1 n=b6 v=95
1215334 On ch=1 n=g6 v=93
1215337 On ch=1 n=g7 v=115
1215346 On ch=1 n=e5 v=0
1215361 On ch=1 n=g5 v=76
1215381 On ch=1 n=b6 v=0
1215397 On ch=1 n=g5 v=0
1215397 On ch=1 n=g7 v=0
1215426 On ch=1 n=g6 v=0
1215486 On ch=1 n=a#5 v=76
1215537 On ch=1 n=b5 v=83
1215577 On ch=1 n=a#5 v=0
1215605 On ch=1 n=b5 v=0
1215637 On ch=1 n=d6 v=80
1215637 On ch=1 n=g6 v=99
1215649 On ch=1 n=a#6 v=119
1215653 On ch=1 n=e6 v=94
1215664 Par ch=1 c=64 v=0
1215681 On ch=1 n=d6 v=0
1215725 On ch=1 n=c6 v=73
1215797 On ch=1 n=c6 v=0
1215797 On ch=1 n=g5 v=79
1215801 Par ch=1 c=64 v=127
1215857 On ch=1 n=e5 v=76
1215905 On ch=1 n=g5 v=0
1215970 On ch=1 n=c6 v=81
1215981 On ch=1 n=a#6 v=0
1215991 On ch=1 n=e5 v=0
1216021 On ch=1 n=b5 v=85
1216031 On ch=1 n=c6 v=0
1216050 On ch=1 n=g6 v=0
1216054 On ch=1 n=e6 v=0
1216064 On ch=1 n=b6 v=110
1216108 On ch=1 n=g5 v=69
1216140 On ch=1 n=e5 v=76
1216144 On ch=1 n=b5 v=0
1216171 On ch=1 n=b6 v=0
1216187 On ch=1 n=g5 v=0
1216219 On ch=1 n=e5 v=0
1216224 Par ch=1 c=64 v=0
1216278 On ch=1 n=d7 v=101
1216288 On ch=1 n=a#5 v=101
1216299 On ch=1 n=g6 v=96
1216299 On ch=1 n=e6 v=94
1216391 On ch=1 n=g6 v=0
1216400 On ch=1 n=e6 v=0
1216400 On ch=1 n=a#5 v=0
1216418 On ch=1 n=c#7 v=72
1216478 On ch=1 n=a#5 v=103
1216512 On ch=1 n=a#6 v=71
1216524 On ch=1 n=a#5 v=0
1216544 On ch=1 n=d7 v=0
1216567 On ch=1 n=g6 v=73
1216595 On ch=1 n=c#7 v=0
1216607 On ch=1 n=g6 v=0
1216607 On ch=1 n=a#6 v=0
1216639 On ch=1 n=a#5 v=105
1216644 On ch=1 n=e6 v=67
1216675 On ch=1 n=a#5 v=0
1216711 On ch=1 n=e6 v=0
1216735 On ch=1 n=g6 v=67
1216791 On ch=1 n=a#5 v=107
1216808 On ch=1 n=a#6 v=63
1216827 On ch=1 n=g6 v=0
1216839 On ch=1 n=a#5 v=0
1216851 On ch=1 n=c#7 v=66
1216935 On ch=1 n=a#6 v=0
1216955 On ch=1 n=c#7 v=0
1216971 On ch=1 n=d7 v=72
1216971 On ch=1 n=e6 v=76
1216971 On ch=1 n=f#6 v=72
1216975 On ch=1 n=a5 v=109
1217000 Par ch=1 c=64 v=127
1217015 On ch=1 n=f#6 v=0
1217032 On ch=1 n=e6 v=0
1217047 On ch=1 n=a5 v=0
1217091 On ch=1 n=c7 v=61
1217151 On ch=1 n=g5 v=111
1217155 Par ch=1 c=64 v=0
1217167 On ch=1 n=d7 v=0
1217177 On ch=1 n=a6 v=67
1217215 On ch=1 n=f#5 v=113
1217224 On ch=1 n=g5 v=0
1217241 On ch=1 n=c7 v=0
1217249 On ch=1 n=f#6 v=68
1217264 On ch=1 n=a6 v=0
1217288 On ch=1 n=f#6 v=0
1217291 On ch=1 n=c6 v=115
1217301 On ch=1 n=e6 v=79
1217305 On ch=1 n=f#5 v=0
1217352 On ch=1 n=c6 v=0
1217354 On ch=1 n=e6 v=0
1217493 On ch=1 n=b5 v=117
1217501 On ch=1 n=a6 v=66
1217574 On ch=1 n=f#6 v=56
1217582 On ch=1 n=b5 v=0
1217613 On ch=1 n=f#6 v=0
1217621 On ch=1 n=a6 v=0
1217713 On ch=1 n=e5 v=120
1217721 On ch=1 n=g6 v=120
1217721 On ch=1 n=g7 v=127
1217782 Par ch=1 c=64 v=127
1217913 On ch=1 n=e7 v=67
1217922 On ch=1 n=g6 v=0
1217973 On ch=1 n=c#7 v=78
1218022 On ch=1 n=g7 v=0
1218033 On ch=1 n=a#6 v=71
1218054 On ch=1 n=e7 v=0
1218058 On ch=1 n=c#7 v=0
1218097 On ch=1 n=a#6 v=0
1218105 On ch=1 n=g6 v=61
1218125 On ch=1 n=g6 v=0
1218161 On ch=1 n=e5 v=0
1218225 On ch=1 n=e6 v=63
1218235 On ch=1 n=b4 v=72
1218271 On ch=1 n=c#6 v=65
1218295 On ch=1 n=c#5 v=77
1218302 On ch=1 n=a#5 v=72
1218310 On ch=1 n=e6 v=0
1218318 On ch=1 n=c#6 v=0
1218343 On ch=1 n=b4 v=0
1218343 On ch=1 n=d5 v=76
1218350 Par ch=1 c=64 v=0
1218355 On ch=1 n=c#5 v=0
1218362 On ch=1 n=a#5 v=0
1218391 On ch=1 n=g5 v=111
1218391 On ch=1 n=b5 v=89
1218398 On ch=1 n=e5 v=81
1218406 On ch=1 n=d5 v=0
1218439 On ch=1 n=g5 v=0
1218482 On ch=1 n=b5 v=0
1218482 Par ch=1 c=64 v=127
1218494 On ch=1 n=e5 v=0
1218494 On ch=1 n=d5 v=65
1218559 On ch=1 n=b4 v=72
1218571 On ch=1 n=g4 v=77
1218590 On ch=1 n=d5 v=0
1218650 On ch=1 n=b4 v=0
1218660 On ch=1 n=g4 v=0
1218747 On ch=1 n=e4 v=73
1218806 On ch=1 n=d4 v=66
1218812 On ch=1 n=d#7 v=68
1218827 On ch=1 n=e4 v=0
1218839 On ch=1 n=b3 v=73
1218867 On ch=1 n=e7 v=74
1218877 On ch=1 n=d4 v=0
1218900 On ch=1 n=d#7 v=0
1218916 On ch=1 n=f#7 v=70
1218936 On ch=1 n=b3 v=0
1218953 On ch=1 n=f#7 v=0
1218953 On ch=1 n=e7 v=0
1218960 On ch=1 n=e3 v=115
1219004 Par ch=1 c=64 v=0
1219020 On ch=1 n=g7 v=127
1219023 On ch=1 n=g6 v=127
1219165 On ch=1 n=e7 v=71
1219177 On ch=1 n=g6 v=0
1219180 Par ch=1 c=64 v=127
1219192 On ch=1 n=e3 v=0
1219223 On ch=1 n=c#7 v=75
1219268 On ch=1 n=g7 v=0
1219300 On ch=1 n=a#6 v=63
1219305 On ch=1 n=e7 v=0
1219336 On ch=1 n=c#7 v=0
1219359 On ch=1 n=a#6 v=0
1219376 On ch=1 n=g6 v=60
1219400 On ch=1 n=g6 v=0
1219513 On ch=1 n=e6 v=53
1219543 On ch=1 n=b4 v=75
1219565 On ch=1 n=c#6 v=64
1219593 On ch=1 n=e6 v=0
1219608 On ch=1 n=c#5 v=78
1219623 On ch=1 n=a#5 v=68
1219632 On ch=1 n=c#6 v=0
1219632 On ch=1 n=b4 v=0
1219669 On ch=1 n=d5 v=60
1219684 On ch=1 n=a#5 v=0
1219684 On ch=1 n=c#5 v=0
1219684 Par ch=1 c=64 v=0
1219705 On ch=1 n=d5 v=0
1219720 On ch=1 n=e5 v=120
1219728 On ch=1 n=g5 v=77
1219739 On ch=1 n=b5 v=87
1219792 On ch=1 n=g5 v=0
1219796 On ch=1 n=d5 v=67
1219800 On ch=1 n=e5 v=0
1219820 On ch=1 n=b5 v=0
1219856 Par ch=1 c=64 v=127
1219896 On ch=1 n=b4 v=68
1219920 On ch=1 n=d5 v=0
1219920 On ch=1 n=g4 v=72
1219959 On ch=1 n=b4 v=0
1219969 On ch=1 n=g4 v=0
1220045 On ch=1 n=e4 v=71
1220117 On ch=1 n=d4 v=64
1220140 On ch=1 n=e4 v=0
1220180 On ch=1 n=b3 v=71
1220190 On ch=1 n=a#7 v=72
1220200 On ch=1 n=d4 v=0
1220231 On ch=1 n=b7 v=59
1220234 On ch=1 n=g3 v=74
1220248 On ch=1 n=b3 v=0
1220280 On ch=1 n=c#8 v=67
1220287 On ch=1 n=a#7 v=0
1220311 On ch=1 n=b7 v=0
1220314 On ch=1 n=c#8 v=0
1220314 On ch=1 n=g3 v=0
1220324 On ch=1 n=b3 v=100
1220367 Par ch=1 c=64 v=0
1220379 On ch=1 n=d8 v=127
1220383 On ch=1 n=d7 v=127
1220491 On ch=1 n=b3 v=0
1220507 On ch=1 n=b7 v=78
1220536 On ch=1 n=d7 v=0
1220536 Par ch=1 c=64 v=127
1220567 On ch=1 n=g#7 v=80
1220631 On ch=1 n=f7 v=77
1220643 On ch=1 n=d8 v=0
1220660 On ch=1 n=b7 v=0
1220688 On ch=1 n=g#7 v=0
1220703 On ch=1 n=d7 v=72
1220713 On ch=1 n=f7 v=0
1220728 On ch=1 n=d7 v=0
1220824 On ch=1 n=b6 v=66
1220872 On ch=1 n=f#5 v=88
1220888 On ch=1 n=g#6 v=71
1220917 On ch=1 n=g#5 v=89
1220948 On ch=1 n=b6 v=0
1220965 On ch=1 n=g#6 v=0
1220965 On ch=1 n=f6 v=71
1220980 On ch=1 n=a5 v=88
1220992 On ch=1 n=f6 v=0
1221000 On ch=1 n=f#5 v=0
1221011 Par ch=1 c=64 v=0
1221017 On ch=1 n=g#5 v=0
1221024 On ch=1 n=b5 v=115
1221034 On ch=1 n=d6 v=86
1221041 On ch=1 n=f#6 v=92
1221101 On ch=1 n=a5 v=0
1221125 On ch=1 n=d6 v=0
1221130 On ch=1 n=a5 v=75
1221153 On ch=1 n=b5 v=0
1221161 On ch=1 n=f#6 v=0
1221161 Par ch=1 c=64 v=127
1221201 On ch=1 n=f#5 v=70
1221229 On ch=1 n=d5 v=71
1221238 On ch=1 n=a5 v=0
1221270 On ch=1 n=f#5 v=0
1221282 On ch=1 n=d5 v=0
1221370 On ch=1 n=b4 v=70
1221434 On ch=1 n=a4 v=68
1221461 On ch=1 n=f#4 v=73
1221465 On ch=1 n=b4 v=0
1221481 On ch=1 n=a#7 v=71
1221517 On ch=1 n=a4 v=0
1221525 On ch=1 n=b7 v=71
1221630 On ch=1 n=f#4 v=0
1221637 On ch=1 n=c#8 v=71
1221637 On ch=1 n=b3 v=120
1221644 On ch=1 n=c#8 v=0
1221644 On ch=1 n=b7 v=0
1221644 On ch=1 n=a#7 v=0
1221673 Par ch=1 c=64 v=0
1221701 On ch=1 n=d8 v=127
1221701 On ch=1 n=d7 v=127
1221844 On ch=1 n=d7 v=0
1221844 On ch=1 n=b3 v=0
1221844 On ch=1 n=b7 v=68
1221850 Par ch=1 c=64 v=127
1221890 On ch=1 n=g#7 v=78
1221958 On ch=1 n=d8 v=0
1221970 On ch=1 n=f7 v=76
1221984 On ch=1 n=b7 v=0
1221988 On ch=1 n=g#7 v=0
1222014 On ch=1 n=d7 v=72
1222029 On ch=1 n=f7 v=0
1222045 On ch=1 n=d7 v=0
1222141 On ch=1 n=b6 v=71
1222170 On ch=1 n=f#5 v=115
1222208 On ch=1 n=g#6 v=77
1222233 On ch=1 n=g#5 v=119
1222270 On ch=1 n=f6 v=73
1222281 On ch=1 n=a5 v=121
1222284 On ch=1 n=b6 v=0
1222288 On ch=1 n=f#5 v=0
1222294 Par ch=1 c=64 v=0
1222301 On ch=1 n=g#5 v=0
1222301 On ch=1 n=g#6 v=0
1222325 On ch=1 n=b5 v=123
1222329 On ch=1 n=a5 v=0
1222345 On ch=1 n=d6 v=84
1222355 On ch=1 n=f#6 v=86
1222399 On ch=1 n=f6 v=0
1222414 On ch=1 n=d6 v=0
1222418 On ch=1 n=a5 v=68
1222442 Par ch=1 c=64 v=127
1222450 On ch=1 n=f#6 v=0
1222450 On ch=1 n=b5 v=0
1222474 On ch=1 n=f#5 v=73
1222505 On ch=1 n=d5 v=73
1222511 On ch=1 n=a5 v=0
1222535 On ch=1 n=f#5 v=0
1222551 On ch=1 n=d5 v=0
1222671 On ch=1 n=b4 v=57
1222718 On ch=1 n=a4 v=65
1222735 On ch=1 n=b4 v=0
1222754 On ch=1 n=f#4 v=69
1222774 On ch=1 n=a#7 v=68
1222815 On ch=1 n=a4 v=0
1222818 On ch=1 n=b7 v=68
1222839 On ch=1 n=d4 v=42
1222851 On ch=1 n=f#4 v=0
1222885 On ch=1 n=c#8 v=71
1222887 On ch=1 n=a#7 v=0
1222887 On ch=1 n=b3 v=115
1222894 On ch=1 n=d4 v=0
1222918 On ch=1 n=b7 v=0
1222938 On ch=1 n=c#8 v=0
1222998 Par ch=1 c=64 v=0
1223010 On ch=1 n=d8 v=127
1223025 On ch=1 n=d7 v=127
1223179 On ch=1 n=b7 v=75
1223205 On ch=1 n=d7 v=0
1223215 Par ch=1 c=64 v=127
1223258 On ch=1 n=g#7 v=78
1223306 On ch=1 n=f7 v=81
1223316 On ch=1 n=d8 v=0
1223335 On ch=1 n=b7 v=0
1223351 On ch=1 n=g#7 v=0
1223371 On ch=1 n=d7 v=72
1223379 On ch=1 n=f7 v=0
1223389 On ch=1 n=d7 v=0
1223479 On ch=1 n=b6 v=78
1223536 On ch=1 n=g#6 v=78
1223612 On ch=1 n=f6 v=75
1223616 On ch=1 n=b6 v=0
1223632 On ch=1 n=b3 v=0
1223641 On ch=1 n=g#6 v=0
1223652 On ch=1 n=a#3 v=116
1223676 On ch=1 n=f6 v=0
1223676 On ch=1 n=d6 v=75
1223701 On ch=1 n=d6 v=0
1223761 Par ch=1 c=64 v=0
1223780 On ch=1 n=b5 v=73
1223869 On ch=1 n=g#5 v=68
1223909 On ch=1 n=b5 v=0
1223929 On ch=1 n=f5 v=68
1223956 On ch=1 n=g#5 v=0
1223956 Par ch=1 c=64 v=127
1223973 On ch=1 n=f5 v=0
1224004 On ch=1 n=a#3 v=0
1224019 On ch=1 n=d5 v=64
1224029 On ch=1 n=g#3 v=88
1224045 On ch=1 n=d5 v=0
1224105 Par ch=1 c=64 v=0
1224137 On ch=1 n=b4 v=39
1224218 On ch=1 n=g#4 v=61
1224225 On ch=1 n=b4 v=0
1224242 Par ch=1 c=67 v=127
1224286 On ch=1 n=f4 v=60
1224297 On ch=1 n=g#4 v=0
1224297 Par ch=1 c=64 v=127
1224338 On ch=1 n=f4 v=0
1224369 Par ch=1 c=64 v=0
1224476 On ch=1 n=f#3 v=78
1224478 On ch=1 n=g#3 v=0
1224516 On ch=1 n=d#4 v=8
1224522 Par ch=1 c=64 v=127
1224536 On ch=1 n=f#3 v=0
1224569 On ch=1 n=f#4 v=54
1224597 On ch=1 n=d#4 v=0
1224613 On ch=1 n=a#4 v=56
1224629 On ch=1 n=f#4 v=0
1224656 On ch=1 n=a#4 v=0
1224666 Par ch=1 c=67 v=0
1224674 On ch=1 n=d5 v=59
1224746 On ch=1 n=d5 v=0
1224775 On ch=1 n=d#5 v=61
1224819 On ch=1 n=d#5 v=0
1224866 On ch=1 n=f#4 v=64
1224938 On ch=1 n=f#4 v=0
1224983 On ch=1 n=f#5 v=70
1224994 On ch=1 n=g#4 v=46
1224994 On ch=1 n=a#5 v=77
1225006 Par ch=1 c=64 v=0
1225026 On ch=1 n=g#4 v=0
1225043 On ch=1 n=c#5 v=55
1225143 On ch=1 n=b4 v=57
1225169 On ch=1 n=c#5 v=0
1225282 On ch=1 n=g#4 v=61
1225286 On ch=1 n=b5 v=88
1225290 On ch=1 n=a#5 v=0
1225295 On ch=1 n=f#5 v=0
1225295 On ch=1 n=g#5 v=56
1225299 On ch=1 n=b5 v=0
1225299 On ch=1 n=g#4 v=0
1225299 On ch=1 n=b4 v=0
1225299 On ch=1 n=f4 v=59
1225302 On ch=1 n=f4 v=0
1225302 On ch=1 n=g#5 v=0
1225346 On ch=1 n=d4 v=59
1225406 On ch=1 n=d4 v=0
1225418 On ch=1 n=f4 v=51
1225483 On ch=1 n=g#4 v=49
1225542 On ch=1 n=f4 v=0
1225553 On ch=1 n=b3 v=52
1225570 On ch=1 n=g#3 v=46
1225575 On ch=1 n=b4 v=48
1225610 On ch=1 n=b4 v=0
1225613 On ch=1 n=g#4 v=0
1225682 Par ch=1 c=64 v=127
1225692 On ch=1 n=d#4 v=57
1225751 On ch=1 n=d#4 v=0
1225770 On ch=1 n=f#4 v=66
1225827 On ch=1 n=a#4 v=59
1225837 On ch=1 n=b3 v=0
1225841 On ch=1 n=f#3 v=54
1225844 On ch=1 n=g#3 v=0
1225844 On ch=1 n=a#3 v=50
1225868 On ch=1 n=f#4 v=0
1225869 On ch=1 n=a#4 v=0
1225880 On ch=1 n=a#3 v=0
1225884 On ch=1 n=f#3 v=0
1225888 On ch=1 n=d5 v=64
1225928 Par ch=1 c=64 v=0
1225957 On ch=1 n=d5 v=0
1225969 On ch=1 n=d#5 v=72
1226029 On ch=1 n=d#5 v=0
1226088 On ch=1 n=f#4 v=64
1226141 On ch=1 n=f#4 v=0
1226180 On ch=1 n=f#5 v=64
1226196 On ch=1 n=g#4 v=62
1226196 On ch=1 n=a#5 v=77
1226229 On ch=1 n=a#4 v=52
1226240 On ch=1 n=g#4 v=0
1226269 On ch=1 n=c#5 v=57
1226284 On ch=1 n=a#4 v=0
1226353 On ch=1 n=b4 v=66
1226376 On ch=1 n=c#5 v=0
1226437 On ch=1 n=a#5 v=0
1226449 On ch=1 n=f#5 v=0
1226449 On ch=1 n=g#4 v=70
1226460 On ch=1 n=g#5 v=67
1226464 On ch=1 n=b5 v=88
1226496 On ch=1 n=b5 v=0
1226496 On ch=1 n=g#5 v=0
1226500 On ch=1 n=b4 v=0
1226504 On ch=1 n=f4 v=59
1226524 On ch=1 n=g#4 v=0
1226543 On ch=1 n=f4 v=0
1226573 On ch=1 n=d4 v=57
1226613 On ch=1 n=d4 v=0
1226644 On ch=1 n=f4 v=56
1226704 On ch=1 n=g#4 v=55
1226752 On ch=1 n=g#3 v=53
1226763 On ch=1 n=b3 v=49
1226780 On ch=1 n=f4 v=0
1226780 On ch=1 n=b4 v=58
1226824 On ch=1 n=g#4 v=0
1226847 On ch=1 n=b4 v=0
1226920 On ch=1 n=f4 v=38
1226964 On ch=1 n=a4 v=72
1226973 On ch=1 n=f4 v=0
1227041 On ch=1 n=a3 v=57
1227044 On ch=1 n=b3 v=0
1227048 On ch=1 n=c5 v=62
1227060 On ch=1 n=c4 v=45
1227088 On ch=1 n=a3 v=0
1227088 On ch=1 n=a4 v=0
1227088 On ch=1 n=g#3 v=0
1227089 On ch=1 n=e5 v=67
1227100 On ch=1 n=c4 v=0
1227164 On ch=1 n=f5 v=71
1227180 On ch=1 n=c5 v=0
1227213 On ch=1 n=e5 v=0
1227257 On ch=1 n=a4 v=69
1227269 On ch=1 n=f5 v=0
1227344 On ch=1 n=a#4 v=66
1227364 On ch=1 n=a4 v=0
1227374 On ch=1 n=a5 v=69
1227374 On ch=1 n=c6 v=75
1227405 On ch=1 n=c5 v=76
1227425 On ch=1 n=a#4 v=0
1227497 On ch=1 n=c5 v=0
1227501 On ch=1 n=e5 v=73
1227558 On ch=1 n=c6 v=0
1227574 On ch=1 n=d5 v=69
1227601 On ch=1 n=a5 v=0
1227660 On ch=1 n=d6 v=89
1227660 On ch=1 n=b4 v=76
1227660 On ch=1 n=b5 v=69
1227666 On ch=1 n=e5 v=0
1227681 On ch=1 n=d6 v=0
1227698 On ch=1 n=b5 v=0
1227713 On ch=1 n=g#4 v=72
1227741 On ch=1 n=b4 v=0
1227741 On ch=1 n=d5 v=0
1227774 On ch=1 n=g#4 v=0
1227797 On ch=1 n=f4 v=60
1227877 On ch=1 n=f4 v=0
1227877 On ch=1 n=g#4 v=62
1227945 On ch=1 n=b4 v=57
1227960 On ch=1 n=b3 v=66
1227970 On ch=1 n=d4 v=58
1227998 On ch=1 n=g#4 v=0
1228003 On ch=1 n=d5 v=50
1228058 On ch=1 n=b4 v=0
1228101 On ch=1 n=f4 v=58
1228118 On ch=1 n=d5 v=0
1228154 On ch=1 n=f4 v=0
1228181 On ch=1 n=a4 v=68
1228203 On ch=1 n=d4 v=0
1228243 On ch=1 n=c4 v=52
1228250 On ch=1 n=b3 v=0
1228261 On ch=1 n=c5 v=59
1228261 On ch=1 n=a3 v=46
1228278 On ch=1 n=c4 v=0
1228302 On ch=1 n=a3 v=0
1228303 On ch=1 n=a4 v=0
1228310 On ch=1 n=e5 v=65
1228382 On ch=1 n=f5 v=71
1228394 On ch=1 n=c5 v=0
1228423 On ch=1 n=e5 v=0
1228470 On ch=1 n=a4 v=69
1228480 On ch=1 n=f5 v=0
1228567 On ch=1 n=a4 v=0
1228567 On ch=1 n=a#4 v=67
1228575 On ch=1 n=c6 v=78
1228578 On ch=1 n=a5 v=63
1228614 On ch=1 n=c5 v=73
1228631 On ch=1 n=a#4 v=0
1228708 On ch=1 n=c5 v=0
1228715 On ch=1 n=e5 v=70
1228774 On ch=1 n=c6 v=0
1228780 On ch=1 n=d5 v=69
1228827 On ch=1 n=a5 v=0
1228859 On ch=1 n=e5 v=0
1228871 On ch=1 n=b4 v=75
1228888 On ch=1 n=d6 v=82
1228888 On ch=1 n=b5 v=67
1228914 On ch=1 n=d6 v=0
1228931 On ch=1 n=b5 v=0
1228931 On ch=1 n=g#4 v=68
1228947 On ch=1 n=b4 v=0
1228947 On ch=1 n=d5 v=0
1228979 On ch=1 n=g#4 v=0
1229003 On ch=1 n=f4 v=56
1229067 On ch=1 n=f4 v=0
1229077 On ch=1 n=g#4 v=61
1229148 On ch=1 n=b4 v=53
1229196 On ch=1 n=b3 v=66
1229201 On ch=1 n=g#4 v=0
1229204 On ch=1 n=d4 v=63
1229225 On ch=1 n=d5 v=45
1229237 On ch=1 n=b4 v=0
1229256 On ch=1 n=d5 v=0
1229268 Par ch=1 c=64 v=127
1229317 On ch=1 n=g#4 v=64
1229365 On ch=1 n=g#4 v=0
1229408 On ch=1 n=c5 v=65
1229468 On ch=1 n=d#5 v=55
1229477 On ch=1 n=c5 v=0
1229477 Par ch=1 c=64 v=0
1229504 On ch=1 n=d4 v=0
1229508 On ch=1 n=c4 v=59
1229511 On ch=1 n=d#5 v=0
1229511 On ch=1 n=b3 v=0
1229521 On ch=1 n=d#4 v=53
1229528 On ch=1 n=g5 v=65
1229538 On ch=1 n=c4 v=0
1229553 On ch=1 n=d#4 v=0
1229585 On ch=1 n=g5 v=0
1229595 On ch=1 n=g#5 v=75
1229670 On ch=1 n=g#5 v=0
1229699 On ch=1 n=c5 v=67
1229798 On ch=1 n=c5 v=0
1229798 On ch=1 n=c#5 v=68
1229815 On ch=1 n=d#6 v=75
1229830 On ch=1 n=c6 v=60
1229874 On ch=1 n=d#5 v=48
1229889 On ch=1 n=c#5 v=0
1229898 On ch=1 n=f#5 v=66
1229919 On ch=1 n=d#5 v=0
1230010 On ch=1 n=e5 v=67
1230071 On ch=1 n=f#5 v=0
1230075 On ch=1 n=c#5 v=74
1230083 On ch=1 n=c6 v=0
1230106 On ch=1 n=e6 v=79
1230126 On ch=1 n=d#6 v=0
1230126 On ch=1 n=c#6 v=65
1230131 On ch=1 n=e6 v=0
1230131 On ch=1 n=e5 v=0
1230135 On ch=1 n=a#4 v=70
1230146 On ch=1 n=c#6 v=0
1230166 On ch=1 n=c#5 v=0
1230203 On ch=1 n=a#4 v=0
1230230 On ch=1 n=g4 v=50
1230278 On ch=1 n=g4 v=0
1230302 On ch=1 n=a#4 v=65
1230342 On ch=1 n=c#5 v=57
1230390 On ch=1 n=a#4 v=0
1230402 On ch=1 n=e4 v=66
1230411 On ch=1 n=c#4 v=61
1230415 On ch=1 n=e5 v=52
1230450 On ch=1 n=c#5 v=0
1230470 On ch=1 n=e5 v=0
1230551 Par ch=1 c=64 v=127
1230551 On ch=1 n=g#4 v=62
1230599 On ch=1 n=g#4 v=0
1230631 On ch=1 n=c5 v=65
1230691 On ch=1 n=c4 v=68
1230706 On ch=1 n=d#5 v=52
1230706 On ch=1 n=d#4 v=64
1230722 On ch=1 n=c5 v=0
1230722 On ch=1 n=c#4 v=0
1230722 On ch=1 n=e4 v=0
1230751 On ch=1 n=d#4 v=0
1230751 On ch=1 n=d#5 v=0
1230751 On ch=1 n=c4 v=0
1230762 On ch=1 n=g5 v=57
1230790 Par ch=1 c=64 v=0
1230811 On ch=1 n=g5 v=0
1230849 On ch=1 n=g#5 v=67
1230918 On ch=1 n=g#5 v=0
1230922 On ch=1 n=c5 v=67
1231010 On ch=1 n=d#6 v=88
1231018 On ch=1 n=c6 v=76
1231029 On ch=1 n=c5 v=0
1231029 On ch=1 n=c#5 v=65
1231090 On ch=1 n=d#5 v=51
1231130 On ch=1 n=c#5 v=0
1231134 On ch=1 n=f#5 v=65
1231145 On ch=1 n=d#5 v=0
1231234 On ch=1 n=e5 v=69
1231299 On ch=1 n=c#5 v=72
1231318 On ch=1 n=e6 v=89
1231328 On ch=1 n=c6 v=0
1231328 On ch=1 n=c#6 v=78
1231343 On ch=1 n=d#6 v=0
1231347 On ch=1 n=e6 v=0
1231347 On ch=1 n=e5 v=0
1231351 On ch=1 n=f#5 v=0
1231439 On ch=1 n=c#6 v=0
1231439 On ch=1 n=c#5 v=0
1231439 On ch=1 n=a#4 v=66
1231446 On ch=1 n=a#4 v=0
1231452 On ch=1 n=g4 v=64
1231516 On ch=1 n=g4 v=0
1231516 On ch=1 n=a#4 v=69
1231563 On ch=1 n=c#5 v=51
1231619 On ch=1 n=e4 v=73
1231619 On ch=1 n=c#4 v=68
1231623 On ch=1 n=a#4 v=0
1231635 On ch=1 n=e5 v=58
1231699 On ch=1 n=e5 v=0
1231706 On ch=1 n=c#5 v=0
1231752 Par ch=1 c=64 v=127
1231782 On ch=1 n=g#4 v=86
1231872 On ch=1 n=g#4 v=0
1231879 On ch=1 n=c5 v=65
1231951 On ch=1 n=d#5 v=50
1231980 On ch=1 n=c4 v=68
1231983 On ch=1 n=c#4 v=0
1231987 On ch=1 n=d#4 v=66
1231988 On ch=1 n=c5 v=0
1231995 On ch=1 n=e4 v=0
1232003 On ch=1 n=g#5 v=70
1232026 On ch=1 n=d#5 v=0
1232036 On ch=1 n=d#4 v=0
1232040 On ch=1 n=c4 v=0
1232055 On ch=1 n=g#5 v=0
1232156 On ch=1 n=a5 v=64
1232219 On ch=1 n=a5 v=0
1232236 On ch=1 n=c#6 v=76
1232279 On ch=1 n=e6 v=77
1232296 On ch=1 n=c#4 v=95
1232307 On ch=1 n=a4 v=96
1232315 Par ch=1 c=64 v=0
1232319 On ch=1 n=e4 v=83
1232326 On ch=1 n=c#6 v=0
1232326 On ch=1 n=a6 v=77
1232340 On ch=1 n=e6 v=0
1232383 On ch=1 n=a6 v=0
1232486 On ch=1 n=c5 v=97
1232546 Par ch=1 c=64 v=127
1232607 On ch=1 n=e4 v=0
1232623 On ch=1 n=d#5 v=68
1232666 On ch=1 n=c5 v=0
1232687 On ch=1 n=f#5 v=66
1232687 On ch=1 n=d#4 v=72
1232688 On ch=1 n=c#4 v=0
1232691 On ch=1 n=a4 v=0
1232691 On ch=1 n=f#4 v=69
1232727 On ch=1 n=f#4 v=0
1232746 On ch=1 n=d#5 v=0
1232746 On ch=1 n=c6 v=65
1232756 On ch=1 n=d#4 v=0
1232756 On ch=1 n=f#5 v=0
1232784 On ch=1 n=c6 v=0
1232860 On ch=1 n=c#6 v=89
1232896 Par ch=1 c=64 v=0
1232920 On ch=1 n=f6 v=75
1232944 On ch=1 n=c#6 v=0
1232984 On ch=1 n=g#6 v=74
1233000 On ch=1 n=f4 v=89
1233000 On ch=1 n=c#5 v=100
1233003 On ch=1 n=g#4 v=84
1233025 On ch=1 n=c#7 v=82
1233029 On ch=1 n=f6 v=0
1233036 On ch=1 n=g#6 v=0
1233073 On ch=1 n=c#7 v=0
1233143 Par ch=1 c=64 v=127
1233165 On ch=1 n=g#4 v=0
1233176 On ch=1 n=d5 v=97
1233244 On ch=1 n=f4 v=0
1233276 On ch=1 n=c#5 v=0
1233324 On ch=1 n=d5 v=0
1233324 On ch=1 n=f#5 v=69
1233363 On ch=1 n=f#4 v=84
1233369 On ch=1 n=a4 v=86
1233389 On ch=1 n=a5 v=52
1233392 On ch=1 n=f#5 v=0
1233424 On ch=1 n=d6 v=71
1233429 On ch=1 n=a4 v=0
1233432 On ch=1 n=a5 v=0
1233457 On ch=1 n=f#4 v=0
1233468 On ch=1 n=d6 v=0
1233505 Par ch=1 c=64 v=0
1233565 On ch=1 n=f6 v=83
1233656 On ch=1 n=f6 v=0
1233656 On ch=1 n=g#6 v=77
1233685 On ch=1 n=b6 v=82
1233703 On ch=1 n=g#4 v=90
1233703 On ch=1 n=f5 v=92
1233709 On ch=1 n=b4 v=82
1233745 On ch=1 n=b6 v=0
1233745 On ch=1 n=g#6 v=0
1233745 On ch=1 n=f7 v=76
1233792 On ch=1 n=f7 v=0
1233792 Par ch=1 c=64 v=127
1233913 On ch=1 n=f#5 v=102
1233917 On ch=1 n=b4 v=0
1234037 On ch=1 n=g#4 v=0
1234056 On ch=1 n=f#5 v=0
1234060 On ch=1 n=f5 v=0
1234060 On ch=1 n=a#5 v=69
1234100 On ch=1 n=c#5 v=75
1234104 On ch=1 n=a#4 v=77
1234114 On ch=1 n=c#6 v=61
1234146 On ch=1 n=a#5 v=0
1234161 On ch=1 n=f#6 v=77
1234165 On ch=1 n=c#5 v=0
1234169 On ch=1 n=c#6 v=0
1234169 On ch=1 n=a#4 v=0
1234194 On ch=1 n=f#6 v=0
1234269 Par ch=1 c=64 v=0
1234279 On ch=1 n=g6 v=89
1234354 On ch=1 n=g6 v=0
1234354 On ch=1 n=b6 v=84
1234403 On ch=1 n=d7 v=83
1234418 On ch=1 n=b4 v=90
1234418 On ch=1 n=g5 v=91
1234418 On ch=1 n=d5 v=85
1234459 On ch=1 n=b6 v=0
1234467 On ch=1 n=d7 v=0
1234467 On ch=1 n=g7 v=74
1234518 On ch=1 n=g7 v=0
1234546 Par ch=1 c=64 v=127
1234619 On ch=1 n=a#5 v=98
1234713 On ch=1 n=d5 v=0
1234723 On ch=1 n=c#6 v=68
1234738 On ch=1 n=a#5 v=0
1234774 On ch=1 n=b4 v=0
1234784 On ch=1 n=g5 v=0
1234791 On ch=1 n=e6 v=65
1234814 On ch=1 n=e5 v=76
1234820 On ch=1 n=c#5 v=77
1234843 On ch=1 n=a#6 v=81
1234847 On ch=1 n=c#6 v=0
1234854 On ch=1 n=e6 v=0
1234856 On ch=1 n=e5 v=0
1234875 On ch=1 n=c#5 v=0
1234891 On ch=1 n=a#6 v=0
1234991 On ch=1 n=b6 v=95
1235011 Par ch=1 c=64 v=0
1235076 On ch=1 n=d#7 v=89
1235124 On ch=1 n=f#7 v=80
1235147 On ch=1 n=d#5 v=92
1235151 On ch=1 n=b5 v=96
1235154 On ch=1 n=f#5 v=88
1235187 On ch=1 n=b7 v=82
1235215 On ch=1 n=d#7 v=0
1235216 On ch=1 n=b6 v=0
1235247 Par ch=1 c=64 v=127
1235256 On ch=1 n=f#7 v=0
1235319 On ch=1 n=c7 v=105
1235334 On ch=1 n=f#5 v=0
1235344 On ch=1 n=b5 v=0
1235348 On ch=1 n=d#5 v=0
1235384 On ch=1 n=e7 v=75
1235392 On ch=1 n=b7 v=0
1235468 Par ch=1 c=64 v=0
1235468 On ch=1 n=g7 v=81
1235484 On ch=1 n=e5 v=87
1235484 On ch=1 n=c6 v=91
1235487 On ch=1 n=g5 v=89
1235491 On ch=1 n=c7 v=0
1235528 On ch=1 n=e7 v=0
1235548 On ch=1 n=c8 v=69
1235564 On ch=1 n=g7 v=0
1235573 On ch=1 n=g5 v=0
1235580 On ch=1 n=c6 v=0
1235597 On ch=1 n=e5 v=0
1235612 Par ch=1 c=64 v=127
1235631 On ch=1 n=d7 v=100
1235671 On ch=1 n=c8 v=0
1235704 On ch=1 n=f#7 v=80
1235808 On ch=1 n=a7 v=84
1235818 On ch=1 n=d7 v=0
1235818 On ch=1 n=d8 v=75
1235818 On ch=1 n=d6 v=92
1235818 On ch=1 n=f#5 v=86
1235822 On ch=1 n=a5 v=80
1235833 On ch=1 n=a7 v=0
1235833 On ch=1 n=f#7 v=0
1235845 On ch=1 n=a5 v=0
1235848 On ch=1 n=d6 v=0
1235858 On ch=1 n=f#5 v=0
1235865 On ch=1 n=d8 v=0
1235970 On ch=1 n=d#6 v=127
1235970 On ch=1 n=d#8 v=127
1235974 On ch=1 n=d#7 v=127
1235974 On ch=1 n=g5 v=127
1235974 On ch=1 n=a#5 v=127
1235981 On ch=1 n=a#7 v=127
1236119 On ch=1 n=g5 v=0
1236119 On ch=1 n=d#7 v=0
1236122 On ch=1 n=a#5 v=0
1236122 On ch=1 n=d#8 v=0
1236122 On ch=1 n=d#6 v=0
1236127 On ch=1 n=a#7 v=0
1236145 Par ch=1 c=64 v=0
1236846 Par ch=1 c=64 v=127
1236854 On ch=1 n=d#3 v=127
1236854 On ch=1 n=a#2 v=127
1236854 On ch=1 n=g3 v=127
1236854 On ch=1 n=a#3 v=127
1236858 On ch=1 n=d#4 v=127
1236858 On ch=1 n=g2 v=127
1236951 On ch=1 n=d#3 v=0
1236966 On ch=1 n=a#3 v=0
1236966 On ch=1 n=a#2 v=0
1236967 On ch=1 n=g2 v=0
1236979 On ch=1 n=d#4 v=0
1236979 On ch=1 n=g3 v=0
1237051 On ch=1 n=a#3 v=79
1237058 On ch=1 n=g3 v=78
1237058 Par ch=1 c=64 v=0
1237062 On ch=1 n=d#4 v=69
1237102 On ch=1 n=d#4 v=0
1237118 On ch=1 n=a#3 v=0
1237125 On ch=1 n=g3 v=0
1237206 On ch=1 n=a#3 v=75
1237211 On ch=1 n=d#4 v=71
1237214 On ch=1 n=g3 v=78
1237258 On ch=1 n=g3 v=0
1237262 On ch=1 n=d#4 v=0
1237266 On ch=1 n=a#3 v=0
1237367 On ch=1 n=g3 v=77
1237367 On ch=1 n=a#3 v=79
1237371 On ch=1 n=d#4 v=60
1237402 On ch=1 n=a#3 v=0
1237407 On ch=1 n=d#4 v=0
1237407 On ch=1 n=g3 v=0
1237535 On ch=1 n=g3 v=69
1237535 On ch=1 n=a#3 v=69
1237547 On ch=1 n=d#4 v=70
1237565 On ch=1 n=a#3 v=0
1237582 On ch=1 n=d#4 v=0
1237582 On ch=1 n=g3 v=0
1237682 On ch=1 n=a#3 v=69
1237682 On ch=1 n=g3 v=66
1237686 On ch=1 n=d#4 v=66
1237718 On ch=1 n=d#4 v=0
1237718 On ch=1 n=a#3 v=0
1237734 On ch=1 n=g3 v=0
1237827 On ch=1 n=d#4 v=70
1237827 On ch=1 n=g3 v=70
1237831 On ch=1 n=a#3 v=69
1237865 On ch=1 n=a#3 v=0
1237875 On ch=1 n=g3 v=0
1237875 On ch=1 n=d#4 v=0
1237975 On ch=1 n=a#3 v=61
1237975 On ch=1 n=d#4 v=61
1237979 On ch=1 n=g3 v=67
1238007 On ch=1 n=d#4 v=0
1238007 On ch=1 n=a#3 v=0
1238011 On ch=1 n=g3 v=0
1238127 On ch=1 n=g3 v=127
1238131 On ch=1 n=a#3 v=127
1238134 On ch=1 n=d#4 v=127
1238134 On ch=1 n=d#3 v=127
1238134 Par ch=1 c=64 v=127
1238134 On ch=1 n=a#2 v=127
1238134 On ch=1 n=g2 v=127
1238191 On ch=1 n=g3 v=0
1238202 On ch=1 n=a#3 v=0
1238222 On ch=1 n=d#4 v=0
1238231 On ch=1 n=a#2 v=0
1238231 On ch=1 n=d#3 v=0
1238250 On ch=1 n=g2 v=0
1238298 On ch=1 n=g3 v=75
1238298 On ch=1 n=d#4 v=66
1238301 On ch=1 n=a#3 v=73
1238351 On ch=1 n=a#3 v=0
1238358 On ch=1 n=d#4 v=0
1238358 On ch=1 n=g3 v=0
1238366 Par ch=1 c=64 v=0
1238474 On ch=1 n=g3 v=66
1238474 On ch=1 n=a#3 v=69
1238474 On ch=1 n=d#4 v=69
1238506 On ch=1 n=g3 v=0
1238511 On ch=1 n=d#4 v=0
1238514 On ch=1 n=a#3 v=0
1238618 On ch=1 n=d#4 v=66
1238618 On ch=1 n=a#3 v=69
1238618 On ch=1 n=g3 v=69
1238666 On ch=1 n=g3 v=0
1238667 On ch=1 n=a#3 v=0
1238667 On ch=1 n=d#4 v=0
1238774 On ch=1 n=a#3 v=69
1238774 On ch=1 n=g3 v=70
1238774 On ch=1 n=d#4 v=69
1238814 On ch=1 n=g3 v=0
1238818 On ch=1 n=d#4 v=0
1238825 On ch=1 n=a#3 v=0
1238934 On ch=1 n=d#4 v=69
1238934 On ch=1 n=g3 v=68
1238934 On ch=1 n=a#3 v=66
1238965 On ch=1 n=d#4 v=0
1238975 On ch=1 n=a#3 v=0
1238979 On ch=1 n=g3 v=0
1239067 On ch=1 n=a#3 v=66
1239071 On ch=1 n=d#4 v=69
1239071 On ch=1 n=g3 v=68
1239118 On ch=1 n=g3 v=0
1239118 On ch=1 n=d#4 v=0
1239118 On ch=1 n=a#3 v=0
1239222 On ch=1 n=d#4 v=69
1239230 On ch=1 n=a#3 v=68
1239230 On ch=1 n=g3 v=69
1239266 On ch=1 n=a#3 v=0
1239274 On ch=1 n=g3 v=0
1239274 On ch=1 n=d#4 v=0
1239412 On ch=1 n=a#3 v=66
1239412 Par ch=1 c=64 v=127
1239412 On ch=1 n=d#3 v=120
1239412 On ch=1 n=g3 v=69
1239412 On ch=1 n=d#4 v=69
1239443 On ch=1 n=g3 v=0
1239455 On ch=1 n=a#3 v=0
1239472 On ch=1 n=d#4 v=0
1239576 On ch=1 n=g3 v=66
1239576 On ch=1 n=a#3 v=69
1239579 On ch=1 n=d#4 v=69
1239615 On ch=1 n=d#4 v=0
1239615 On ch=1 n=a#3 v=0
1239615 On ch=1 n=g3 v=0
1239679 On ch=1 n=d#3 v=0
1239703 On ch=1 n=a#3 v=69
1239707 On ch=1 n=g3 v=68
1239711 On ch=1 n=d#4 v=68
1239747 On ch=1 n=d#4 v=0
1239747 On ch=1 n=g3 v=0
1239755 On ch=1 n=a#3 v=0
1239843 On ch=1 n=a#3 v=60
1239848 On ch=1 n=d#4 v=69
1239848 On ch=1 n=g3 v=69
1239884 On ch=1 n=a#3 v=0
1239915 On ch=1 n=g3 v=0
1239927 On ch=1 n=d#4 v=0
1240003 On ch=1 n=c#3 v=115
1240003 On ch=1 n=a#3 v=96
1240008 On ch=1 n=g3 v=88
1240012 On ch=1 n=d#4 v=88
1240012 On ch=1 n=d#3 v=90
1240095 On ch=1 n=g3 v=0
1240095 On ch=1 n=a#3 v=0
1240099 On ch=1 n=d#4 v=0
1240184 On ch=1 n=a#3 v=77
1240184 On ch=1 n=g3 v=74
1240187 On ch=1 n=d#4 v=68
1240232 On ch=1 n=d#4 v=0
1240232 On ch=1 n=g3 v=0
1240247 On ch=1 n=a#3 v=0
1240344 On ch=1 n=a#3 v=69
1240347 On ch=1 n=g3 v=68
1240347 On ch=1 n=d#4 v=68
1240368 On ch=1 n=d#3 v=0
1240383 On ch=1 n=a#3 v=0
1240419 On ch=1 n=d#4 v=0
1240419 On ch=1 n=g3 v=0
1240475 On ch=1 n=a#3 v=60
1240475 On ch=1 n=g3 v=69
1240475 On ch=1 n=d#4 v=69
1240515 On ch=1 n=a#3 v=0
1240523 On ch=1 n=d#4 v=0
1240523 On ch=1 n=g3 v=0
1240632 On ch=1 n=a#3 v=66
1240632 On ch=1 n=d#4 v=68
1240632 On ch=1 n=g3 v=68
1240675 On ch=1 n=d#4 v=0
1240675 On ch=1 n=a#3 v=0
1240685 On ch=1 n=c#3 v=0
1240689 On ch=1 n=g3 v=0
1240748 On ch=1 n=a#3 v=75
1240748 On ch=1 n=g3 v=77
1240752 On ch=1 n=d#4 v=77
1240801 On ch=1 n=d#4 v=0
1240801 On ch=1 n=g3 v=0
1240816 On ch=1 n=a#3 v=0
1240892 On ch=1 n=a#3 v=65
1240896 On ch=1 n=b2 v=120
1240896 On ch=1 n=g3 v=69
1240899 On ch=1 n=d#4 v=69
1240920 On ch=1 n=d#4 v=0
1240920 On ch=1 n=g3 v=0
1240969 On ch=1 n=a#3 v=0
1241012 On ch=1 n=b2 v=0
1241056 On ch=1 n=a#3 v=68
1241056 On ch=1 n=g3 v=66
1241056 On ch=1 n=d#4 v=66
1241101 On ch=1 n=d#4 v=0
1241101 On ch=1 n=g3 v=0
1241119 On ch=1 n=a#3 v=0
1241225 On ch=1 n=a#3 v=75
1241225 On ch=1 n=g3 v=68
1241229 On ch=1 n=d#4 v=66
1241260 On ch=1 n=g3 v=0
1241268 On ch=1 n=d#3 v=66
1241268 On ch=1 n=a#2 v=127
1241285 On ch=1 n=d#4 v=0
1241285 On ch=1 n=a#3 v=0
1241328 Par ch=1 c=64 v=0
1241368 On ch=1 n=a#3 v=62
1241368 On ch=1 n=g3 v=62
1241368 On ch=1 n=d#4 v=62
1241432 On ch=1 n=d#4 v=0
1241432 On ch=1 n=g3 v=0
1241432 On ch=1 n=a#3 v=0
1241509 On ch=1 n=a#2 v=0
1241521 On ch=1 n=a#3 v=62
1241521 On ch=1 n=g3 v=62
1241521 On ch=1 n=d#4 v=62
1241536 On ch=1 n=d#3 v=0
1241581 On ch=1 n=d#4 v=0
1241581 On ch=1 n=a#3 v=0
1241592 Par ch=1 c=64 v=127
1241596 On ch=1 n=g3 v=0
1241669 On ch=1 n=a#3 v=68
1241672 On ch=1 n=d#4 v=66
1241672 On ch=1 n=g3 v=68
1241716 On ch=1 n=a#3 v=0
1241719 On ch=1 n=g3 v=0
1241725 On ch=1 n=d#4 v=0
1241836 On ch=1 n=a#3 v=61
1241836 On ch=1 n=g3 v=53
1241839 On ch=1 n=d#4 v=64
1241864 Par ch=1 c=64 v=0
1241864 On ch=1 n=g#2 v=127
1241868 On ch=1 n=d#3 v=64
1241879 On ch=1 n=g3 v=0
1241885 On ch=1 n=d#4 v=0
1241885 On ch=1 n=a#3 v=0
1241999 On ch=1 n=a#3 v=69
1241999 On ch=1 n=g3 v=51
1242001 On ch=1 n=d#4 v=68
1242033 On ch=1 n=g3 v=0
1242036 On ch=1 n=d#4 v=0
1242036 Par ch=1 c=64 v=127
1242041 On ch=1 n=a#3 v=0
1242132 On ch=1 n=a#3 v=58
1242132 On ch=1 n=d#4 v=66
1242132 On ch=1 n=g3 v=68
1242176 On ch=1 n=g3 v=0
1242176 On ch=1 n=a#3 v=0
1242176 On ch=1 n=d#3 v=0
1242180 On ch=1 n=d#4 v=0
1242256 On ch=1 n=g#2 v=0
1242272 On ch=1 n=a#3 v=68
1242272 On ch=1 n=g3 v=68
1242276 On ch=1 n=d#4 v=68
1242316 On ch=1 n=a#3 v=0
1242319 On ch=1 n=d#4 v=0
1242319 On ch=1 n=g3 v=0
1242419 On ch=1 n=d#4 v=68
1242425 On ch=1 n=a#3 v=68
1242425 On ch=1 n=g3 v=68
1242469 On ch=1 n=g3 v=0
1242469 On ch=1 n=a#3 v=0
1242469 On ch=1 n=d#4 v=0
1242572 On ch=1 n=d#4 v=68
1242576 On ch=1 n=a#3 v=68
1242576 On ch=1 n=g3 v=68
1242616 On ch=1 n=d#4 v=0
1242621 On ch=1 n=g3 v=0
1242621 On ch=1 n=a#3 v=0
1242820 On ch=1 n=g2 v=89
1242885 On ch=1 n=a#2 v=66
1242889 On ch=1 n=d#5 v=65
1242948 On ch=1 n=d#5 v=0
1242959 On ch=1 n=d#3 v=66
1243016 On ch=1 n=a#2 v=0
1243016 On ch=1 n=g5 v=64
1243052 On ch=1 n=d#3 v=0
1243076 On ch=1 n=a#5 v=73
1243088 On ch=1 n=g5 v=0
1243096 On ch=1 n=g2 v=0
1243139 On ch=1 n=d#6 v=71
1243145 On ch=1 n=a#2 v=70
1243156 On ch=1 n=a#5 v=0
1243192 On ch=1 n=d#6 v=0
1243232 On ch=1 n=d#3 v=71
1243248 On ch=1 n=a#2 v=0
1243252 On ch=1 n=g6 v=73
1243312 On ch=1 n=a#6 v=81
1243336 On ch=1 n=g6 v=0
1243336 On ch=1 n=d#3 v=0
1243356 On ch=1 n=g2 v=74
1243384 On ch=1 n=a#6 v=0
1243384 On ch=1 n=a#2 v=74
1243399 On ch=1 n=d#7 v=105
1243472 On ch=1 n=d#3 v=74
1243488 On ch=1 n=a#2 v=0
1243498 On ch=1 n=d#7 v=0
1243498 On ch=1 n=g7 v=115
1243509 On ch=1 n=g2 v=0
1243525 On ch=1 n=a#7 v=116
1243545 On ch=1 n=d#8 v=118
1243573 On ch=1 n=d#8 v=0
1243573 On ch=1 n=a#7 v=0
1243573 On ch=1 n=g7 v=0
1243605 On ch=1 n=d#3 v=0
1243649 On ch=1 n=g2 v=127
1243659 On ch=1 n=b2 v=127
1243659 On ch=1 n=e8 v=127
1243663 On ch=1 n=b7 v=127
1243663 On ch=1 n=e3 v=127
1243663 On ch=1 n=e7 v=127
1243754 On ch=1 n=e7 v=0
1243770 On ch=1 n=b7 v=0
1243786 On ch=1 n=e8 v=0
1243830 On ch=1 n=e3 v=0
1243830 Par ch=1 c=64 v=0
1243842 On ch=1 n=b2 v=0
1243842 On ch=1 n=g2 v=0
1244519 Par ch=1 c=64 v=127
1244546 On ch=1 n=e4 v=127
1244546 On ch=1 n=e3 v=127
1244550 On ch=1 n=g2 v=127
1244550 On ch=1 n=b3 v=127
1244550 On ch=1 n=b2 v=127
1244550 On ch=1 n=g3 v=127
1244635 On ch=1 n=g3 v=0
1244662 On ch=1 n=b3 v=0
1244669 On ch=1 n=e4 v=0
1244734 On ch=1 n=e4 v=77
1244734 On ch=1 n=g3 v=74
1244734 On ch=1 n=b3 v=69
1244735 On ch=1 n=b2 v=0
1244739 Par ch=1 c=64 v=0
1244750 On ch=1 n=e3 v=0
1244770 On ch=1 n=g2 v=0
1244798 On ch=1 n=b3 v=0
1244806 On ch=1 n=g3 v=0
1244823 On ch=1 n=e4 v=0
1244882 On ch=1 n=g3 v=63
1244882 On ch=1 n=e4 v=66
1244882 On ch=1 n=b3 v=68
1244930 On ch=1 n=b3 v=0
1244934 On ch=1 n=g3 v=0
1244950 On ch=1 n=e4 v=0
1245050 On ch=1 n=e4 v=60
1245050 On ch=1 n=g3 v=55
1245054 On ch=1 n=b3 v=58
1245095 On ch=1 n=g3 v=0
1245098 On ch=1 n=b3 v=0
1245113 On ch=1 n=e4 v=0
1245199 On ch=1 n=b3 v=62
1245203 On ch=1 n=g3 v=63
1245206 On ch=1 n=e4 v=66
1245243 On ch=1 n=e4 v=0
1245243 On ch=1 n=g3 v=0
1245255 On ch=1 n=b3 v=0
1245346 On ch=1 n=e4 v=56
1245346 On ch=1 n=g3 v=56
1245346 On ch=1 n=b3 v=54
1245393 On ch=1 n=b3 v=0
1245395 On ch=1 n=g3 v=0
1245395 On ch=1 n=e4 v=0
1245493 On ch=1 n=g3 v=61
1245493 On ch=1 n=b3 v=60
1245493 On ch=1 n=e4 v=63
1245526 On ch=1 n=e4 v=0
1245546 On ch=1 n=g3 v=0
1245553 On ch=1 n=b3 v=0
1245626 On ch=1 n=g3 v=71
1245626 On ch=1 n=b3 v=67
1245626 On ch=1 n=e4 v=64
1245674 On ch=1 n=e4 v=0
1245674 On ch=1 n=b3 v=0
1245686 On ch=1 n=g3 v=0
1245794 On ch=1 n=g3 v=127
1245794 On ch=1 n=e4 v=127
1245794 On ch=1 n=g2 v=127
1245802 On ch=1 n=e3 v=127
1245802 On ch=1 n=b3 v=127
1245802 On ch=1 n=b2 v=127
1245806 Par ch=1 c=64 v=127
1245895 On ch=1 n=b3 v=0
1245895 On ch=1 n=e4 v=0
1245895 On ch=1 n=g3 v=0
1245910 On ch=1 n=b2 v=0
1245910 On ch=1 n=e3 v=0
1245930 Par ch=1 c=64 v=0
1245940 On ch=1 n=e4 v=66
1245943 On ch=1 n=b3 v=66
1245943 On ch=1 n=g3 v=58
1245984 On ch=1 n=g2 v=0
1246003 On ch=1 n=g3 v=0
1246012 On ch=1 n=b3 v=0
1246012 On ch=1 n=e4 v=0
1246107 On ch=1 n=e4 v=66
1246111 On ch=1 n=g3 v=67
1246116 On ch=1 n=b3 v=60
1246152 On ch=1 n=g3 v=0
1246156 On ch=1 n=b3 v=0
1246167 On ch=1 n=e4 v=0
1246251 On ch=1 n=g3 v=66
1246251 On ch=1 n=e4 v=56
1246251 On ch=1 n=b3 v=60
1246287 On ch=1 n=b3 v=0
1246291 On ch=1 n=g3 v=0
1246299 On ch=1 n=e4 v=0
1246399 On ch=1 n=g3 v=58
1246399 On ch=1 n=b3 v=58
1246403 On ch=1 n=e4 v=55
1246443 On ch=1 n=g3 v=0
1246450 On ch=1 n=e4 v=0
1246450 On ch=1 n=b3 v=0
1246552 On ch=1 n=e4 v=59
1246552 On ch=1 n=g3 v=57
1246552 On ch=1 n=b3 v=58
1246603 On ch=1 n=g3 v=0
1246603 On ch=1 n=e4 v=0
1246612 On ch=1 n=b3 v=0
1246691 On ch=1 n=b3 v=58
1246691 On ch=1 n=g3 v=57
1246696 On ch=1 n=e4 v=66
1246736 On ch=1 n=e4 v=0
1246739 On ch=1 n=g3 v=0
1246747 On ch=1 n=b3 v=0
1246830 On ch=1 n=g3 v=59
1246830 On ch=1 n=b3 v=62
1246830 On ch=1 n=e4 v=63
1246871 On ch=1 n=e4 v=0
1246883 On ch=1 n=g3 v=0
1246893 On ch=1 n=b3 v=0
1247017 On ch=1 n=e3 v=102
1247024 On ch=1 n=e4 v=66
1247024 On ch=1 n=b3 v=66
1247024 On ch=1 n=g3 v=68
1247029 Par ch=1 c=64 v=127
1247060 On ch=1 n=g3 v=0
1247070 On ch=1 n=b3 v=0
1247085 On ch=1 n=e4 v=0
1247190 On ch=1 n=g3 v=66
1247190 On ch=1 n=b3 v=68
1247197 On ch=1 n=e4 v=68
1247237 On ch=1 n=e4 v=0
1247241 On ch=1 n=b3 v=0
1247253 On ch=1 n=g3 v=0
1247321 On ch=1 n=e3 v=0
1247357 On ch=1 n=g3 v=66
1247361 On ch=1 n=b3 v=68
1247361 On ch=1 n=e4 v=66
1247397 On ch=1 n=b3 v=0
1247401 On ch=1 n=g3 v=0
1247477 On ch=1 n=e4 v=0
1247486 On ch=1 n=e4 v=69
1247486 On ch=1 n=b3 v=79
1247490 On ch=1 n=g3 v=77
1247517 On ch=1 n=g3 v=0
1247534 On ch=1 n=b3 v=0
1247566 On ch=1 n=e4 v=0
1247666 On ch=1 n=g3 v=74
1247674 On ch=1 n=d3 v=120
1247674 On ch=1 n=e4 v=85
1247677 On ch=1 n=b3 v=75
1247677 On ch=1 n=e3 v=75
1247729 On ch=1 n=g3 v=0
1247765 On ch=1 n=b3 v=0
1247765 On ch=1 n=e4 v=0
1247849 On ch=1 n=e4 v=66
1247853 On ch=1 n=b3 v=68
1247853 On ch=1 n=g3 v=68
1247886 On ch=1 n=e4 v=0
1247897 On ch=1 n=g3 v=0
1247901 On ch=1 n=b3 v=0
1247986 On ch=1 n=e4 v=51
1247986 On ch=1 n=b3 v=66
1247989 On ch=1 n=g3 v=68
1248021 On ch=1 n=g3 v=0
1248025 On ch=1 n=b3 v=0
1248041 On ch=1 n=e4 v=0
1248141 On ch=1 n=g3 v=68
1248141 On ch=1 n=e4 v=50
1248141 On ch=1 n=b3 v=66
1248165 On ch=1 n=e3 v=0
1248177 On ch=1 n=e4 v=0
1248186 On ch=1 n=g3 v=0
1248197 On ch=1 n=b3 v=0
1248297 On ch=1 n=g3 v=66
1248297 On ch=1 n=b3 v=68
1248301 On ch=1 n=e4 v=68
1248326 On ch=1 n=e4 v=0
1248333 On ch=1 n=g3 v=0
1248344 On ch=1 n=b3 v=0
1248401 On ch=1 n=d3 v=0
1248417 On ch=1 n=e4 v=56
1248417 On ch=1 n=g3 v=60
1248420 On ch=1 n=b3 v=60
1248466 On ch=1 n=g3 v=0
1248473 On ch=1 n=e4 v=0
1248505 On ch=1 n=b3 v=0
1248586 On ch=1 n=b3 v=57
1248586 On ch=1 n=c3 v=120
1248586 On ch=1 n=e4 v=66
1248601 On ch=1 n=b3 v=0
1248604 On ch=1 n=g3 v=66
1248614 On ch=1 n=e3 v=69
1248650 On ch=1 n=e4 v=0
1248665 On ch=1 n=e3 v=0
1248665 On ch=1 n=g3 v=0
1248757 On ch=1 n=b3 v=66
1248757 On ch=1 n=g3 v=57
1248765 On ch=1 n=e4 v=53
1248805 On ch=1 n=e4 v=0
1248805 On ch=1 n=g3 v=0
1248825 On ch=1 n=c3 v=0
1248830 On ch=1 n=b3 v=0
1248906 On ch=1 n=b2 v=120
1248910 On ch=1 n=e4 v=67
1248910 On ch=1 n=g3 v=64
1248910 On ch=1 n=b3 v=64
1248910 On ch=1 n=e3 v=80
1248966 On ch=1 n=g3 v=0
1248997 On ch=1 n=b3 v=0
1248997 On ch=1 n=e4 v=0
1249026 Par ch=1 c=64 v=0
1249085 On ch=1 n=b3 v=69
1249086 On ch=1 n=g3 v=68
1249086 On ch=1 n=e4 v=51
1249126 On ch=1 n=g3 v=0
1249141 On ch=1 n=e4 v=0
1249166 On ch=1 n=b3 v=0
1249244 On ch=1 n=g3 v=64
1249244 On ch=1 n=e4 v=53
1249244 On ch=1 n=b3 v=66
1249293 On ch=1 n=b3 v=0
1249293 On ch=1 n=e4 v=0
1249293 On ch=1 n=g3 v=0
1249297 Par ch=1 c=64 v=127
1249384 On ch=1 n=g3 v=61
1249394 On ch=1 n=b3 v=61
1249394 On ch=1 n=e4 v=54
1249421 On ch=1 n=g3 v=0
1249430 On ch=1 n=e4 v=0
1249442 On ch=1 n=b3 v=0
1249487 On ch=1 n=b2 v=0
1249518 On ch=1 n=e3 v=0
1249530 On ch=1 n=g3 v=58
1249530 On ch=1 n=e4 v=55
1249534 On ch=1 n=b3 v=60
1249534 On ch=1 n=a2 v=120
1249537 On ch=1 n=e3 v=71
1249590 On ch=1 n=e4 v=0
1249590 On ch=1 n=g3 v=0
1249594 On ch=1 n=b3 v=0
1249662 On ch=1 n=b3 v=66
1249666 On ch=1 n=e4 v=59
1249666 On ch=1 n=g3 v=58
1249694 On ch=1 n=g3 v=0
1249704 On ch=1 n=e4 v=0
1249735 On ch=1 n=b3 v=0
1249824 On ch=1 n=e4 v=70
1249824 On ch=1 n=b3 v=69
1249828 On ch=1 n=g3 v=68
1249855 On ch=1 n=e4 v=0
1249872 On ch=1 n=g3 v=0
1249872 On ch=1 n=b3 v=0
1249959 On ch=1 n=e4 v=58
1249967 On ch=1 n=b3 v=68
1249971 On ch=1 n=g3 v=88
1250012 On ch=1 n=b3 v=0
1250019 On ch=1 n=g3 v=0
1250024 On ch=1 n=e4 v=0
1250051 On ch=1 n=a2 v=0
1250124 On ch=1 n=e3 v=0
1250135 Par ch=1 c=64 v=0
1250151 On ch=1 n=g2 v=87
1250224 On ch=1 n=b3 v=66
1250280 On ch=1 n=b2 v=58
1250284 On ch=1 n=b3 v=0
1250295 On ch=1 n=e4 v=41
1250347 On ch=1 n=e4 v=0
1250358 On ch=1 n=g2 v=0
1250368 Par ch=1 c=64 v=127
1250372 On ch=1 n=e3 v=50
1250388 On ch=1 n=b2 v=0
1250421 On ch=1 n=g4 v=59
1250477 On ch=1 n=g4 v=0
1250480 On ch=1 n=b4 v=70
1250491 On ch=1 n=e3 v=0
1250508 On ch=1 n=g2 v=64
1250575 On ch=1 n=b2 v=56
1250581 On ch=1 n=b4 v=0
1250581 On ch=1 n=e5 v=59
1250635 On ch=1 n=e5 v=0
1250645 On ch=1 n=g2 v=0
1250665 On ch=1 n=e3 v=63
1250669 On ch=1 n=b2 v=0
1250705 On ch=1 n=g5 v=66
1250765 On ch=1 n=b5 v=78
1250769 On ch=1 n=e3 v=0
1250773 On ch=1 n=g5 v=0
1250792 On ch=1 n=g2 v=77
1250838 On ch=1 n=e6 v=69
1250862 On ch=1 n=b5 v=0
1250862 On ch=1 n=b2 v=57
1250905 On ch=1 n=e6 v=0
1250934 On ch=1 n=e3 v=63
1250949 On ch=1 n=g2 v=0
1250982 On ch=1 n=b2 v=0
1250982 On ch=1 n=g6 v=72
1251042 On ch=1 n=b6 v=78
1251054 On ch=1 n=g6 v=0
1251069 On ch=1 n=e3 v=0
1251085 On ch=1 n=g2 v=76
1251094 On ch=1 n=e7 v=89
1251117 On ch=1 n=b6 v=0
1251132 On ch=1 n=b2 v=72
1251149 On ch=1 n=e7 v=0
1251229 On ch=1 n=g7 v=88
1251229 On ch=1 n=e3 v=69
1251233 On ch=1 n=g2 v=0
1251252 On ch=1 n=b7 v=88
1251258 On ch=1 n=b2 v=0
1251274 On ch=1 n=g7 v=0
1251274 On ch=1 n=e8 v=115
1251292 On ch=1 n=f8 v=127
1251306 On ch=1 n=e3 v=0
1251322 On ch=1 n=b7 v=0
1251322 Par ch=1 c=64 v=0
1251322 On ch=1 n=g2 v=85
1251334 On ch=1 n=e8 v=0
1251349 On ch=1 n=a2 v=50
1251382 On ch=1 n=c#8 v=89
1251409 On ch=1 n=b2 v=55
1251425 On ch=1 n=a2 v=0
1251425 On ch=1 n=c3 v=61
1251445 On ch=1 n=b7 v=82
1251469 On ch=1 n=c#3 v=70
1251494 On ch=1 n=f8 v=0
1251497 On ch=1 n=c3 v=0
1251497 Par ch=1 c=64 v=127
1251501 On ch=1 n=c#8 v=0
1251512 On ch=1 n=b2 v=0
1251518 On ch=1 n=f3 v=59
1251526 On ch=1 n=b7 v=0
1251526 On ch=1 n=f7 v=77
1251529 On ch=1 n=g2 v=0
1251545 On ch=1 n=f7 v=0
1251605 On ch=1 n=c#3 v=0
1251613 On ch=1 n=c#7 v=82
1251617 On ch=1 n=f3 v=0
1251634 On ch=1 n=g2 v=70
1251673 On ch=1 n=b2 v=65
1251685 On ch=1 n=b6 v=80
1251692 On ch=1 n=c#7 v=0
1251742 On ch=1 n=f7 v=83
1251742 On ch=1 n=c#3 v=65
1251753 On ch=1 n=b6 v=0
1251758 On ch=1 n=g2 v=0
1251773 On ch=1 n=b2 v=0
1251785 On ch=1 n=f3 v=58
1251814 On ch=1 n=c#7 v=82
1251845 On ch=1 n=c#3 v=0
1251874 On ch=1 n=f3 v=0
1251874 On ch=1 n=g2 v=79
1251877 On ch=1 n=b6 v=82
1251922 On ch=1 n=b2 v=70
1251929 On ch=1 n=c#7 v=0
1251933 On ch=1 n=f7 v=0
1251943 On ch=1 n=f6 v=79
1251946 On ch=1 n=b6 v=0
1251978 On ch=1 n=f6 v=0
1252006 On ch=1 n=g2 v=0
1252006 On ch=1 n=c#3 v=57
1252023 On ch=1 n=b2 v=0
1252038 On ch=1 n=f3 v=51
1252050 On ch=1 n=c#6 v=79
1252102 On ch=1 n=c#3 v=0
1252110 On ch=1 n=b5 v=79
1252114 On ch=1 n=f3 v=0
1252125 On ch=1 n=c#6 v=0
1252142 On ch=1 n=g2 v=71
1252163 On ch=1 n=f6 v=83
1252170 On ch=1 n=b5 v=0
1252186 On ch=1 n=b2 v=62
1252239 On ch=1 n=c#6 v=87
1252275 On ch=1 n=g2 v=0
1252282 On ch=1 n=c#3 v=52
1252286 Par ch=1 c=64 v=0
1252286 On ch=1 n=b5 v=81
1252302 On ch=1 n=b2 v=0
1252331 On ch=1 n=c#6 v=0
1252331 On ch=1 n=f3 v=46
1252342 On ch=1 n=f6 v=0
1252362 On ch=1 n=b5 v=0
1252370 On ch=1 n=f5 v=75
1252378 On ch=1 n=c#3 v=0
1252378 Par ch=1 c=64 v=127
1252389 On ch=1 n=f3 v=0
1252391 On ch=1 n=f5 v=0
1252418 On ch=1 n=g2 v=66
1252451 On ch=1 n=b2 v=65
1252466 On ch=1 n=c#5 v=78
1252531 On ch=1 n=g2 v=0
1252542 On ch=1 n=b4 v=78
1252546 On ch=1 n=c#5 v=0
1252562 On ch=1 n=b2 v=0
1252571 On ch=1 n=c#3 v=45
1252586 Par ch=1 c=64 v=0
1252602 On ch=1 n=f3 v=45
1252602 On ch=1 n=f5 v=78
1252609 On ch=1 n=b4 v=0
1252634 On ch=1 n=c#3 v=0
1252649 On ch=1 n=f3 v=0
1252666 On ch=1 n=c#5 v=78
1252671 On ch=1 n=g2 v=88
1252710 Par ch=1 c=64 v=127
1252714 On ch=1 n=b2 v=66
1252725 On ch=1 n=b4 v=80
1252755 On ch=1 n=c#3 v=52
1252770 On ch=1 n=c#5 v=0
1252778 On ch=1 n=f5 v=0
1252788 On ch=1 n=b4 v=0
1252796 On ch=1 n=f4 v=77
1252819 On ch=1 n=f3 v=53
1252843 On ch=1 n=f4 v=0
1252866 Par ch=1 c=64 v=0
1252883 On ch=1 n=b2 v=0
1252887 On ch=1 n=c#3 v=0
1252899 On ch=1 n=f3 v=0
1252908 On ch=1 n=c#4 v=74
1252946 On ch=1 n=g2 v=0
1252980 On ch=1 n=b3 v=60
1252983 On ch=1 n=c#4 v=0
1253028 On ch=1 n=b3 v=0
1253028 On ch=1 n=f4 v=71
1253075 On ch=1 n=c#4 v=54
1253083 Par ch=1 c=64 v=127
1253123 On ch=1 n=b3 v=59
1253148 On ch=1 n=c#4 v=0
1253148 On ch=1 n=f4 v=0
1253166 On ch=1 n=b3 v=0
1253183 On ch=1 n=g3 v=89
1253227 On ch=1 n=c#3 v=57
1253282 On ch=1 n=f3 v=70
1253292 On ch=1 n=g3 v=0
1253300 On ch=1 n=b2 v=58
1253317 On ch=1 n=f3 v=0
1253324 On ch=1 n=g2 v=64
1253364 On ch=1 n=c#3 v=0
1253412 On ch=1 n=f#2 v=71
1253476 On ch=1 n=g2 v=0
1253476 On ch=1 n=b2 v=0
1253520 On ch=1 n=f#2 v=0
1253552 On ch=1 n=g3 v=98
1253628 Par ch=1 c=67 v=127
1253669 Par ch=1 c=64 v=0
1254012 On ch=1 n=a#3 v=77
1254022 Par ch=1 c=64 v=127
1254054 On ch=1 n=a#3 v=0
1254082 On ch=1 n=c#4 v=59
1254082 Par ch=1 c=64 v=0
1254157 On ch=1 n=c#4 v=0
1254160 On ch=1 n=a#4 v=53
1254170 On ch=1 n=e4 v=55
1254226 On ch=1 n=e4 v=0
1254247 On ch=1 n=a#4 v=0
1254298 On ch=1 n=a#2 v=98
1254310 On ch=1 n=c#4 v=57
1254330 Par ch=1 c=64 v=127
1254334 On ch=1 n=g3 v=0
1254359 On ch=1 n=c#4 v=0
1254374 On ch=1 n=e4 v=56
1254374 Par ch=1 c=64 v=0
1254450 On ch=1 n=c#5 v=51
1254467 On ch=1 n=e4 v=0
1254482 On ch=1 n=g4 v=57
1254547 On ch=1 n=g4 v=0
1254571 On ch=1 n=c#5 v=0
1254599 Par ch=1 c=64 v=127
1254599 On ch=1 n=e4 v=69
1254647 On ch=1 n=e4 v=0
1254647 Par ch=1 c=64 v=0
1254662 On ch=1 n=g4 v=72
1254742 On ch=1 n=g4 v=0
1254750 On ch=1 n=e5 v=65
1254786 On ch=1 n=a#4 v=69
1254926 On ch=1 n=b2 v=89
1254930 On ch=1 n=e5 v=0
1254934 On ch=1 n=a#4 v=0
1254939 On ch=1 n=g4 v=74
1254943 On ch=1 n=a#2 v=0
1254958 On ch=1 n=d3 v=95
1254963 On ch=1 n=g4 v=0
1254963 On ch=1 n=b2 v=0
1254974 On ch=1 n=a#4 v=62
1255030 On ch=1 n=g5 v=55
1255078 On ch=1 n=g5 v=0
1255090 On ch=1 n=a#4 v=0
1255098 On ch=1 n=c#5 v=61
1255138 On ch=1 n=c#5 v=0
1255187 On ch=1 n=a#4 v=70
1255258 On ch=1 n=a#4 v=0
1255266 On ch=1 n=c#5 v=65
1255277 On ch=1 n=a#5 v=58
1255363 On ch=1 n=e5 v=67
1255366 On ch=1 n=c#5 v=0
1255370 On ch=1 n=a#5 v=0
1255394 On ch=1 n=c#3 v=88
1255430 On ch=1 n=e5 v=0
1255440 On ch=1 n=d3 v=0
1255454 On ch=1 n=a#2 v=89
1255504 On ch=1 n=c#5 v=65
1255534 On ch=1 n=c#3 v=0
1255534 On ch=1 n=f#2 v=90
1255584 On ch=1 n=c#5 v=0
1255587 On ch=1 n=e5 v=54
1255595 On ch=1 n=a#2 v=0
1255631 On ch=1 n=c#6 v=55
1255674 On ch=1 n=e5 v=0
1255684 On ch=1 n=g5 v=63
1255715 Par ch=1 c=67 v=0
1255755 On ch=1 n=g5 v=0
1255759 On ch=1 n=c#6 v=0
1255816 On ch=1 n=e5 v=69
1255847 On ch=1 n=f#2 v=0
1255851 On ch=1 n=e5 v=0
1255895 On ch=1 n=g5 v=71
1255967 On ch=1 n=g5 v=0
1255967 On ch=1 n=e6 v=65
1256019 Par ch=1 c=64 v=127
1256027 On ch=1 n=a#5 v=69
1256055 On ch=1 n=a#5 v=0
1256075 On ch=1 n=e6 v=0
1256104 On ch=1 n=g5 v=71
1256167 On ch=1 n=g5 v=0
1256183 On ch=1 n=a#5 v=69
1256223 On ch=1 n=g6 v=67
1256284 On ch=1 n=g6 v=0
1256288 On ch=1 n=c#6 v=76
1256291 On ch=1 n=a#5 v=0
1256320 On ch=1 n=c#6 v=0
1256391 On ch=1 n=g4 v=92
1256396 On ch=1 n=g5 v=89
1256403 On ch=1 n=a#5 v=61
1256451 On ch=1 n=a#5 v=0
1256494 On ch=1 n=g5 v=0
1256500 On ch=1 n=a#6 v=60
1256511 On ch=1 n=g4 v=0
1256595 On ch=1 n=a#6 v=0
1256687 Par ch=1 c=64 v=0
1256714 On ch=1 n=f#4 v=90
1256714 On ch=1 n=f#5 v=96
1256720 On ch=1 n=c#6 v=68
1256787 On ch=1 n=c#6 v=0
1256794 On ch=1 n=e6 v=67
1256867 Par ch=1 c=64 v=127
1256867 On ch=1 n=c#7 v=59
1256899 On ch=1 n=g6 v=68
1256907 On ch=1 n=e6 v=0
1256956 On ch=1 n=f#5 v=0
1256956 On ch=1 n=f#4 v=0
1256987 On ch=1 n=g6 v=0
1256987 On ch=1 n=c#7 v=0
1257035 On ch=1 n=e6 v=67
1257067 On ch=1 n=e6 v=0
1257111 On ch=1 n=g6 v=69
1257155 On ch=1 n=e4 v=87
1257167 On ch=1 n=e5 v=87
1257184 On ch=1 n=e7 v=70
1257199 On ch=1 n=g6 v=0
1257214 On ch=1 n=e5 v=0
1257235 On ch=1 n=e4 v=0
1257235 On ch=1 n=a#6 v=74
1257276 On ch=1 n=e7 v=0
1257295 On ch=1 n=a#6 v=0
1257315 On ch=1 n=g6 v=72
1257327 On ch=1 n=d4 v=98
1257331 On ch=1 n=d5 v=97
1257348 Par ch=1 c=64 v=0
1257391 On ch=1 n=g6 v=0
1257419 On ch=1 n=a#6 v=70
1257455 On ch=1 n=g7 v=62
1257476 On ch=1 n=d5 v=0
1257479 On ch=1 n=d4 v=0
1257527 Par ch=1 c=64 v=127
1257537 On ch=1 n=c#7 v=78
1257541 On ch=1 n=a#6 v=0
1257545 On ch=1 n=g7 v=0
1257584 On ch=1 n=c#7 v=0
1257628 On ch=1 n=a#6 v=66
1257636 On ch=1 n=c#4 v=92
1257640 On ch=1 n=c#5 v=98
1257705 On ch=1 n=a#6 v=0
1257712 On ch=1 n=c#7 v=74
1257720 On ch=1 n=a#7 v=71
1257773 On ch=1 n=c#5 v=0
1257777 On ch=1 n=c#4 v=0
1257792 On ch=1 n=c#7 v=0
1257804 On ch=1 n=e7 v=77
1257852 On ch=1 n=a#7 v=0
1257868 On ch=1 n=e7 v=0
1257911 On ch=1 n=c#7 v=65
1257933 Par ch=1 c=64 v=0
1257936 On ch=1 n=b3 v=91
1257944 On ch=1 n=b4 v=90
1257972 On ch=1 n=e7 v=74
1257991 On ch=1 n=c#7 v=0
1258001 On ch=1 n=b4 v=0
1258017 On ch=1 n=b3 v=0
1258028 On ch=1 n=c#8 v=74
1258074 Par ch=1 c=64 v=127
1258085 On ch=1 n=e7 v=0
1258089 On ch=1 n=g7 v=76
1258214 On ch=1 n=g7 v=0
1258214 On ch=1 n=e7 v=68
1258230 On ch=1 n=c#7 v=75
1258230 On ch=1 n=a#4 v=85
1258234 On ch=1 n=a#3 v=79
1258270 On ch=1 n=a#3 v=0
1258270 On ch=1 n=e7 v=0
1258288 On ch=1 n=a#4 v=0
1258314 On ch=1 n=g7 v=77
1258321 On ch=1 n=c#7 v=0
1258381 On ch=1 n=c#8 v=0
1258381 On ch=1 n=e7 v=84
1258441 On ch=1 n=g7 v=0
1258461 On ch=1 n=f#2 v=80
1258485 On ch=1 n=e7 v=0
1258505 On ch=1 n=f#2 v=0
1258561 On ch=1 n=g3 v=99
1258808 Par ch=1 c=64 v=0
1258946 On ch=1 n=b3 v=41
1258987 On ch=1 n=d4 v=65
1258991 On ch=1 n=b3 v=0
1259065 On ch=1 n=d4 v=0
1259107 On ch=1 n=g4 v=56
1259122 Par ch=1 c=64 v=127
1259126 On ch=1 n=c5 v=29
1259186 On ch=1 n=g4 v=0
1259191 On ch=1 n=c5 v=0
1259227 On ch=1 n=d4 v=63
1259234 On ch=1 n=b2 v=99
1259245 On ch=1 n=g3 v=0
1259278 On ch=1 n=d4 v=0
1259282 Par ch=1 c=64 v=0
1259298 On ch=1 n=g4 v=58
1259358 On ch=1 n=g4 v=0
1259358 On ch=1 n=d5 v=59
1259405 On ch=1 n=b4 v=59
1259422 On ch=1 n=d5 v=0
1259438 On ch=1 n=b4 v=0
1259467 Par ch=1 c=64 v=127
1259525 On ch=1 n=f#4 v=70
1259574 On ch=1 n=b4 v=49
1259602 On ch=1 n=f#4 v=0
1259661 On ch=1 n=f#5 v=64
1259706 On ch=1 n=b4 v=0
1259706 On ch=1 n=d5 v=59
1259767 On ch=1 n=c#3 v=89
1259778 On ch=1 n=f#5 v=0
1259798 On ch=1 n=b2 v=0
1259798 On ch=1 n=g4 v=70
1259802 On ch=1 n=d5 v=0
1259842 On ch=1 n=e3 v=89
1259858 On ch=1 n=d3 v=88
1259867 On ch=1 n=g4 v=0
1259870 On ch=1 n=c#3 v=0
1259870 On ch=1 n=b4 v=68
1259918 Par ch=1 c=64 v=0
1259961 On ch=1 n=b4 v=0
1259967 On ch=1 n=g5 v=62
1259991 On ch=1 n=d5 v=67
1260039 On ch=1 n=d3 v=0
1260054 On ch=1 n=g5 v=0
1260064 On ch=1 n=d5 v=0
1260119 On ch=1 n=b4 v=70
1260152 Par ch=1 c=64 v=127
1260188 On ch=1 n=d5 v=74
1260195 On ch=1 n=b4 v=0
1260228 Par ch=1 c=64 v=0
1260279 On ch=1 n=b5 v=69
1260289 On ch=1 n=d5 v=0
1260300 On ch=1 n=d3 v=59
1260305 On ch=1 n=g5 v=69
1260359 On ch=1 n=e3 v=0
1260376 On ch=1 n=b2 v=78
1260388 On ch=1 n=b5 v=0
1260399 On ch=1 n=g5 v=0
1260416 On ch=1 n=d5 v=71
1260445 On ch=1 n=d3 v=0
1260449 On ch=1 n=f#2 v=99
1260492 On ch=1 n=b2 v=0
1260501 On ch=1 n=g5 v=65
1260505 On ch=1 n=d5 v=0
1260580 On ch=1 n=d6 v=64
1260596 On ch=1 n=g5 v=0
1260612 On ch=1 n=b5 v=72
1260640 On ch=1 n=d6 v=0
1260659 On ch=1 n=b5 v=0
1260733 On ch=1 n=f#5 v=78
1260749 Par ch=1 c=64 v=127
1260800 On ch=1 n=b5 v=58
1260812 On ch=1 n=f#5 v=0
1260841 On ch=1 n=f#2 v=0
1260872 On ch=1 n=f#6 v=76
1260920 On ch=1 n=b5 v=0
1260930 On ch=1 n=d6 v=61
1260990 On ch=1 n=d6 v=0
1260990 On ch=1 n=f#6 v=0
1261006 On ch=1 n=g5 v=79
1261069 On ch=1 n=g5 v=0
1261093 On ch=1 n=b5 v=79
1261146 On ch=1 n=g6 v=60
1261189 On ch=1 n=d6 v=77
1261205 On ch=1 n=b5 v=0
1261266 On ch=1 n=d6 v=0
1261266 On ch=1 n=g6 v=0
1261309 On ch=1 n=a5 v=96
1261309 On ch=1 n=a4 v=93
1261309 On ch=1 n=b5 v=76
1261381 On ch=1 n=d6 v=77
1261396 On ch=1 n=b5 v=0
1261469 On ch=1 n=a5 v=0
1261486 On ch=1 n=a4 v=0
1261486 On ch=1 n=b6 v=70
1261505 On ch=1 n=d6 v=0
1261529 On ch=1 n=g6 v=64
1261586 On ch=1 n=b6 v=0
1261609 On ch=1 n=g6 v=0
1261666 On ch=1 n=g4 v=98
1261666 On ch=1 n=g5 v=97
1261670 On ch=1 n=d6 v=71
1261678 Par ch=1 c=64 v=0
1261753 On ch=1 n=d6 v=0
1261753 On ch=1 n=g6 v=69
1261845 On ch=1 n=d7 v=62
1261855 On ch=1 n=g6 v=0
1261866 Par ch=1 c=64 v=127
1261870 On ch=1 n=g5 v=0
1261879 On ch=1 n=b6 v=71
1261902 On ch=1 n=d7 v=0
1261902 On ch=1 n=g4 v=0
1261912 On ch=1 n=b6 v=0
1261987 On ch=1 n=f#6 v=72
1262032 On ch=1 n=b6 v=63
1262066 On ch=1 n=f#6 v=0
1262107 On ch=1 n=f#7 v=72
1262123 On ch=1 n=f#4 v=86
1262127 On ch=1 n=f#5 v=93
1262167 On ch=1 n=b6 v=0
1262167 On ch=1 n=d7 v=69
1262184 On ch=1 n=f#4 v=0
1262187 On ch=1 n=f#5 v=0
1262239 On ch=1 n=f#7 v=0
1262243 On ch=1 n=d7 v=0
1262253 On ch=1 n=g6 v=73
1262272 Par ch=1 c=64 v=0
1262283 On ch=1 n=e5 v=91
1262283 On ch=1 n=e4 v=91
1262328 On ch=1 n=g6 v=0
1262336 On ch=1 n=b6 v=80
1262420 On ch=1 n=g7 v=58
1262456 On ch=1 n=d7 v=83
1262460 On ch=1 n=e5 v=0
1262464 On ch=1 n=b6 v=0
1262468 Par ch=1 c=64 v=127
1262476 On ch=1 n=e4 v=0
1262520 On ch=1 n=g7 v=0
1262524 On ch=1 n=d7 v=0
1262580 On ch=1 n=d5 v=91
1262580 On ch=1 n=d4 v=92
1262584 On ch=1 n=b6 v=72
1262653 On ch=1 n=d7 v=78
1262657 On ch=1 n=b6 v=0
1262700 On ch=1 n=d5 v=0
1262704 On ch=1 n=d4 v=0
1262714 On ch=1 n=b7 v=68
1262757 On ch=1 n=d7 v=0
1262764 On ch=1 n=g7 v=76
1262821 On ch=1 n=b7 v=0
1262837 On ch=1 n=g7 v=0
1262861 Par ch=1 c=64 v=0
1262870 On ch=1 n=c#4 v=86
1262870 On ch=1 n=c#5 v=90
1262870 On ch=1 n=d7 v=69
1263030 On ch=1 n=g7 v=67
1263045 On ch=1 n=d8 v=78
1263050 On ch=1 n=g7 v=0
1263050 On ch=1 n=c#5 v=0
1263050 On ch=1 n=c#4 v=0
1263074 On ch=1 n=b7 v=80
1263081 Par ch=1 c=64 v=127
1263097 On ch=1 n=d7 v=0
1263153 On ch=1 n=g7 v=79
1263157 On ch=1 n=b3 v=83
1263173 On ch=1 n=b4 v=80
1263183 On ch=1 n=b7 v=0
1263215 On ch=1 n=d7 v=76
1263227 On ch=1 n=b4 v=0
1263227 On ch=1 n=b3 v=0
1263230 On ch=1 n=g7 v=0
1263303 On ch=1 n=b7 v=84
1263382 On ch=1 n=g7 v=89
1263458 On ch=1 n=f#2 v=72
1263467 On ch=1 n=d7 v=0
1263474 On ch=1 n=b7 v=0
1263494 On ch=1 n=d8 v=0
1263501 On ch=1 n=g7 v=0
1263511 On ch=1 n=f#2 v=0
1263542 On ch=1 n=g3 v=100
1263583 Par ch=1 c=64 v=0
1264001 On ch=1 n=d#4 v=48
1264011 Par ch=1 c=64 v=127
1264052 On ch=1 n=g4 v=57
1264060 On ch=1 n=d#4 v=0
1264151 On ch=1 n=g4 v=0
1264158 On ch=1 n=a#4 v=56
1264168 On ch=1 n=d#5 v=48
1264212 On ch=1 n=d#5 v=0
1264228 On ch=1 n=a#4 v=0
1264272 On ch=1 n=g3 v=0
1264272 On ch=1 n=g4 v=74
1264288 On ch=1 n=a#2 v=95
1264347 Par ch=1 c=64 v=0
1264351 On ch=1 n=g4 v=0
1264360 On ch=1 n=a#4 v=67
1264451 On ch=1 n=g5 v=45
1264479 On ch=1 n=a#4 v=0
1264479 On ch=1 n=d#5 v=63
1264484 On ch=1 n=g5 v=0
1264528 On ch=1 n=d#5 v=0
1264540 Par ch=1 c=64 v=127
1264607 On ch=1 n=a#4 v=79
1264668 On ch=1 n=d#5 v=62
1264671 On ch=1 n=a#4 v=0
1264671 On ch=1 n=a#5 v=56
1264731 On ch=1 n=g5 v=65
1264767 On ch=1 n=d#5 v=0
1264811 On ch=1 n=g5 v=0
1264811 On ch=1 n=d3 v=89
1264840 On ch=1 n=a#5 v=0
1264871 On ch=1 n=a#2 v=0
1264881 On ch=1 n=d5 v=77
1264892 On ch=1 n=f3 v=105
1264921 On ch=1 n=d3 v=0
1264951 Par ch=1 c=64 v=0
1264984 On ch=1 n=g5 v=69
1265012 On ch=1 n=d5 v=0
1265048 On ch=1 n=d6 v=65
1265092 On ch=1 n=g5 v=0
1265121 On ch=1 n=d6 v=0
1265121 On ch=1 n=a#5 v=68
1265152 Par ch=1 c=64 v=127
1265181 On ch=1 n=a#5 v=0
1265204 On ch=1 n=d#5 v=85
1265265 On ch=1 n=g5 v=46
1265324 On ch=1 n=d#5 v=0
1265341 On ch=1 n=a#5 v=70
1265357 On ch=1 n=d#3 v=89
1265384 On ch=1 n=g5 v=0
1265388 On ch=1 n=d#6 v=75
1265397 On ch=1 n=f3 v=0
1265428 On ch=1 n=a#5 v=0
1265448 On ch=1 n=a#2 v=88
1265457 On ch=1 n=d#6 v=0
1265488 On ch=1 n=d#3 v=0
1265492 On ch=1 n=f#2 v=99
1265492 On ch=1 n=g5 v=77
1265544 Par ch=1 c=64 v=0
1265548 On ch=1 n=a#2 v=0
1265555 On ch=1 n=a#5 v=80
1265584 On ch=1 n=g5 v=0
1265640 On ch=1 n=g6 v=59
1265672 On ch=1 n=d#6 v=74
1265676 On ch=1 n=a#5 v=0
1265692 On ch=1 n=g6 v=0
1265728 On ch=1 n=d#6 v=0
1265768 Par ch=1 c=64 v=127
1265797 On ch=1 n=a#5 v=86
1265851 On ch=1 n=a#6 v=49
1265855 On ch=1 n=d#6 v=67
1265888 On ch=1 n=a#5 v=0
1265888 On ch=1 n=f#2 v=0
1265948 On ch=1 n=g6 v=71
1265965 On ch=1 n=d#6 v=0
1266008 On ch=1 n=g6 v=0
1266037 On ch=1 n=a#6 v=0
1266085 On ch=1 n=d6 v=82
1266176 On ch=1 n=g6 v=73
1266188 On ch=1 n=d6 v=0
1266208 On ch=1 n=d7 v=68
1266281 On ch=1 n=a#6 v=77
1266295 On ch=1 n=d7 v=0
1266295 On ch=1 n=g6 v=0
1266352 On ch=1 n=a#6 v=0
1266369 On ch=1 n=d#6 v=78
1266372 On ch=1 n=c6 v=91
1266384 On ch=1 n=c5 v=83
1266449 On ch=1 n=g6 v=66
1266464 On ch=1 n=d#6 v=0
1266504 On ch=1 n=c6 v=0
1266504 On ch=1 n=a#6 v=64
1266508 On ch=1 n=c5 v=0
1266537 On ch=1 n=g6 v=0
1266565 On ch=1 n=d#7 v=72
1266588 On ch=1 n=a#6 v=0
1266635 On ch=1 n=d#7 v=0
1266708 On ch=1 n=g6 v=75
1266716 On ch=1 n=a#5 v=102
1266716 On ch=1 n=a#4 v=97
1266724 Par ch=1 c=64 v=0
1266785 On ch=1 n=a#6 v=74
1266832 On ch=1 n=g6 v=0
1266889 On ch=1 n=g7 v=70
1266908 On ch=1 n=a#6 v=0
1266908 Par ch=1 c=64 v=127
1266984 On ch=1 n=a#5 v=0
1266996 On ch=1 n=g7 v=0
1266996 On ch=1 n=a#4 v=0
1267028 On ch=1 n=a6 v=72
1267148 On ch=1 n=a6 v=0
1267148 On ch=1 n=d#7 v=71
1267165 On ch=1 n=a7 v=70
1267192 On ch=1 n=a4 v=96
1267192 On ch=1 n=a5 v=98
1267221 On ch=1 n=d#7 v=0
1267248 On ch=1 n=a5 v=0
1267256 On ch=1 n=a4 v=0
1267268 On ch=1 n=a7 v=0
1267332 On ch=1 n=a#6 v=69
1267342 Par ch=1 c=64 v=0
1267349 On ch=1 n=g4 v=98
1267353 On ch=1 n=g5 v=103
1267401 On ch=1 n=d#7 v=74
1267432 On ch=1 n=a#6 v=0
1267485 On ch=1 n=a#7 v=68
1267514 On ch=1 n=d#7 v=0
1267525 Par ch=1 c=64 v=127
1267542 On ch=1 n=g5 v=0
1267542 On ch=1 n=g7 v=66
1267562 On ch=1 n=g4 v=0
1267589 On ch=1 n=a#7 v=0
1267634 On ch=1 n=g7 v=0
1267637 On ch=1 n=b6 v=74
1267669 On ch=1 n=f4 v=94
1267669 On ch=1 n=f5 v=95
1267709 On ch=1 n=d#7 v=75
1267721 On ch=1 n=b6 v=0
1267772 On ch=1 n=b7 v=72
1267782 On ch=1 n=f5 v=0
1267818 On ch=1 n=f4 v=0
1267849 On ch=1 n=g7 v=81
1267852 On ch=1 n=d#7 v=0
1267921 On ch=1 n=b7 v=0
1267942 On ch=1 n=g7 v=0
1267965 On ch=1 n=d#5 v=101
1267972 On ch=1 n=d#4 v=98
1267972 On ch=1 n=c7 v=79
1267972 Par ch=1 c=64 v=0
1268029 On ch=1 n=d#7 v=74
1268074 On ch=1 n=c7 v=0
1268137 On ch=1 n=c8 v=73
1268137 Par ch=1 c=64 v=127
1268154 On ch=1 n=d#7 v=0
1268161 On ch=1 n=g7 v=81
1268202 On ch=1 n=d#4 v=0
1268202 On ch=1 n=d#5 v=0
1268241 On ch=1 n=g7 v=0
1268252 On ch=1 n=c8 v=0
1268273 On ch=1 n=d7 v=76
1268337 On ch=1 n=g7 v=76
1268369 On ch=1 n=d7 v=0
1268405 On ch=1 n=d8 v=77
1268422 On ch=1 n=d4 v=92
1268422 On ch=1 n=d5 v=91
1268453 On ch=1 n=g7 v=0
1268482 On ch=1 n=d5 v=0
1268482 On ch=1 n=a#7 v=82
1268485 On ch=1 n=d4 v=0
1268495 On ch=1 n=d8 v=0
1268542 On ch=1 n=a#7 v=0
1268554 Par ch=1 c=64 v=0
1268569 On ch=1 n=d#7 v=75
1268579 On ch=1 n=c5 v=97
1268579 On ch=1 n=c4 v=92
1268619 On ch=1 n=g7 v=66
1268663 On ch=1 n=d#7 v=0
1268703 On ch=1 n=c5 v=0
1268719 On ch=1 n=a#7 v=77
1268719 Par ch=1 c=64 v=127
1268723 On ch=1 n=c4 v=0
1268735 On ch=1 n=g7 v=0
1268745 On ch=1 n=d#8 v=81
1268779 On ch=1 n=a#7 v=0
1268840 On ch=1 n=d#8 v=0
1268872 On ch=1 n=a#4 v=94
1268872 On ch=1 n=f7 v=69
1268872 On ch=1 n=a#3 v=89
1268933 On ch=1 n=a#7 v=75
1268944 On ch=1 n=f7 v=0
1268996 On ch=1 n=f8 v=77
1269025 On ch=1 n=a#7 v=0
1269040 On ch=1 n=a#4 v=0
1269052 On ch=1 n=a#3 v=0
1269072 On ch=1 n=d#8 v=81
1269100 On ch=1 n=f8 v=0
1269136 Par ch=1 c=64 v=0
1269145 On ch=1 n=a3 v=92
1269149 On ch=1 n=a4 v=90
1269160 On ch=1 n=f#7 v=77
1269193 On ch=1 n=d#8 v=0
1269256 On ch=1 n=a#7 v=82
1269265 On ch=1 n=f#7 v=0
1269313 On ch=1 n=a4 v=0
1269320 On ch=1 n=a3 v=0
1269324 Par ch=1 c=64 v=127
1269325 On ch=1 n=f#8 v=90
1269360 On ch=1 n=a#7 v=0
1269400 On ch=1 n=d#8 v=76
1269464 On ch=1 n=f#8 v=0
1269483 On ch=1 n=g4 v=100
1269493 On ch=1 n=g3 v=100
1269493 On ch=1 n=g7 v=83
1269520 On ch=1 n=d#8 v=0
1269557 On ch=1 n=a#7 v=82
1269649 On ch=1 n=g8 v=95
1269669 On ch=1 n=g4 v=0
1269680 On ch=1 n=a#7 v=0
1269682 On ch=1 n=g3 v=0
1269729 On ch=1 n=d#8 v=94
1269857 On ch=1 n=g8 v=0
1269937 On ch=1 n=d#8 v=0
1269953 On ch=1 n=g7 v=0
1270029 On ch=1 n=f#3 v=127
1270029 On ch=1 n=f#2 v=127
1270073 Par ch=1 c=64 v=0
1270221 Par ch=1 c=64 v=127
1270242 On ch=1 n=f#2 v=0
1270277 On ch=1 n=f#3 v=0
1270450 On ch=1 n=g4 v=68
1270450 On ch=1 n=g5 v=75
1270485 On ch=1 n=g5 v=0
1270485 On ch=1 n=g4 v=0
1270606 On ch=1 n=g4 v=68
1270613 On ch=1 n=a#4 v=78
1270633 On ch=1 n=e4 v=69
1270633 On ch=1 n=c#4 v=71
1270636 On ch=1 n=a#3 v=68
1270662 On ch=1 n=a#4 v=0
1270662 Par ch=1 c=64 v=0
1270666 On ch=1 n=g4 v=0
1270677 On ch=1 n=e4 v=0
1270681 On ch=1 n=a#3 v=0
1270689 On ch=1 n=c#4 v=0
1270740 On ch=1 n=b4 v=90
1270754 On ch=1 n=a#3 v=75
1270757 On ch=1 n=c#4 v=72
1270761 On ch=1 n=g4 v=67
1270769 On ch=1 n=e4 v=70
1270786 On ch=1 n=c#4 v=0
1270786 On ch=1 n=b4 v=0
1270793 On ch=1 n=e4 v=0
1270793 On ch=1 n=g4 v=0
1270802 On ch=1 n=a#3 v=0
1270877 On ch=1 n=a#3 v=78
1270881 On ch=1 n=e4 v=79
1270893 On ch=1 n=c#4 v=75
1270893 On ch=1 n=d5 v=105
1270897 On ch=1 n=g4 v=90
1270926 On ch=1 n=e4 v=0
1270953 On ch=1 n=g4 v=0
1270962 On ch=1 n=c#4 v=0
1270966 On ch=1 n=a#3 v=0
1270993 Par ch=1 c=64 v=127
1271026 On ch=1 n=c#5 v=78
1271050 On ch=1 n=d5 v=0
1271101 Par ch=1 c=64 v=0
1271117 On ch=1 n=c#5 v=0
1271160 On ch=1 n=a#4 v=70
1271229 On ch=1 n=a#4 v=0
1271274 On ch=1 n=g4 v=68
1271317 On ch=1 n=g4 v=0
1271409 On ch=1 n=f#2 v=127
1271413 On ch=1 n=f#3 v=127
1271441 Par ch=1 c=64 v=127
1271456 On ch=1 n=f#2 v=0
1271562 On ch=1 n=f#3 v=0
1271593 On ch=1 n=b4 v=70
1271613 On ch=1 n=b5 v=64
1271629 On ch=1 n=b4 v=0
1271637 On ch=1 n=b5 v=0
1271697 Par ch=1 c=64 v=0
1271709 On ch=1 n=g4 v=78
1271709 On ch=1 n=b3 v=72
1271720 On ch=1 n=d4 v=70
1271720 On ch=1 n=d5 v=88
1271722 On ch=1 n=b4 v=69
1271753 On ch=1 n=d4 v=0
1271753 On ch=1 n=b3 v=0
1271753 On ch=1 n=g4 v=0
1271756 On ch=1 n=d5 v=0
1271766 On ch=1 n=b4 v=0
1271827 On ch=1 n=b3 v=79
1271827 On ch=1 n=f#5 v=89
1271838 On ch=1 n=d4 v=78
1271838 On ch=1 n=g4 v=84
1271839 On ch=1 n=b4 v=70
1271870 On ch=1 n=g4 v=0
1271870 On ch=1 n=b3 v=0
1271874 On ch=1 n=d4 v=0
1271879 On ch=1 n=b4 v=0
1271882 On ch=1 n=f#5 v=0
1271943 On ch=1 n=g4 v=88
1271943 On ch=1 n=b3 v=83
1271958 On ch=1 n=d4 v=82
1271958 On ch=1 n=b4 v=90
1271962 On ch=1 n=a5 v=105
1271994 On ch=1 n=g4 v=0
1272023 On ch=1 n=b4 v=0
1272030 On ch=1 n=d4 v=0
1272034 Par ch=1 c=64 v=127
1272051 On ch=1 n=b3 v=0
1272077 On ch=1 n=g5 v=77
1272127 On ch=1 n=a5 v=0
1272197 On ch=1 n=g5 v=0
1272230 On ch=1 n=d5 v=56
1272290 On ch=1 n=d5 v=0
1272334 On ch=1 n=b4 v=75
1272370 On ch=1 n=b4 v=0
1272453 On ch=1 n=f#2 v=127
1272470 On ch=1 n=f#3 v=127
1272494 On ch=1 n=f#2 v=0
1272514 On ch=1 n=f#3 v=0
1272610 On ch=1 n=e5 v=76
1272619 Par ch=1 c=64 v=0
1272634 On ch=1 n=e6 v=53
1272637 On ch=1 n=e5 v=0
1272658 On ch=1 n=e6 v=0
1272723 On ch=1 n=e4 v=79
1272723 On ch=1 n=c5 v=81
1272726 On ch=1 n=g4 v=77
1272730 On ch=1 n=g5 v=83
1272734 On ch=1 n=e5 v=71
1272759 On ch=1 n=g4 v=0
1272763 On ch=1 n=c5 v=0
1272770 On ch=1 n=g5 v=0
1272774 On ch=1 n=e5 v=0
1272774 On ch=1 n=e4 v=0
1272837 On ch=1 n=b5 v=87
1272837 On ch=1 n=c5 v=85
1272839 On ch=1 n=e4 v=77
1272839 On ch=1 n=g4 v=80
1272843 On ch=1 n=e5 v=73
1272871 On ch=1 n=e5 v=0
1272886 On ch=1 n=e4 v=0
1272886 On ch=1 n=c5 v=0
1272898 On ch=1 n=g4 v=0
1272898 On ch=1 n=b5 v=0
1272943 On ch=1 n=c5 v=87
1272946 On ch=1 n=e4 v=83
1272958 On ch=1 n=e5 v=94
1272958 On ch=1 n=d6 v=106
1272962 On ch=1 n=g4 v=80
1273006 On ch=1 n=c5 v=0
1273023 On ch=1 n=g4 v=0
1273034 Par ch=1 c=64 v=127
1273038 On ch=1 n=e5 v=0
1273057 On ch=1 n=e4 v=0
1273091 On ch=1 n=c6 v=76
1273139 On ch=1 n=d6 v=0
1273143 Par ch=1 c=64 v=0
1273218 On ch=1 n=g5 v=76
1273222 On ch=1 n=c6 v=0
1273277 On ch=1 n=g5 v=0
1273314 On ch=1 n=e5 v=74
1273357 On ch=1 n=e5 v=0
1273434 On ch=1 n=f#2 v=127
1273434 On ch=1 n=f#3 v=127
1273477 On ch=1 n=f#2 v=0
1273494 Par ch=1 c=64 v=127
1273506 On ch=1 n=f#3 v=0
1273599 On ch=1 n=g5 v=77
1273603 On ch=1 n=g6 v=61
1273617 On ch=1 n=g5 v=0
1273634 On ch=1 n=g6 v=0
1273694 Par ch=1 c=64 v=0
1273704 On ch=1 n=a#4 v=81
1273704 On ch=1 n=d#5 v=77
1273707 On ch=1 n=g4 v=60
1273715 On ch=1 n=a#5 v=84
1273716 On ch=1 n=g5 v=73
1273744 On ch=1 n=g5 v=0
1273751 On ch=1 n=d#5 v=0
1273755 On ch=1 n=g4 v=0
1273756 On ch=1 n=a#5 v=0
1273756 On ch=1 n=a#4 v=0
1273816 On ch=1 n=a#4 v=85
1273816 On ch=1 n=d6 v=86
1273823 On ch=1 n=g4 v=82
1273823 On ch=1 n=d#5 v=85
1273834 On ch=1 n=g5 v=87
1273864 On ch=1 n=d#5 v=0
1273864 On ch=1 n=g4 v=0
1273875 On ch=1 n=d6 v=0
1273875 On ch=1 n=a#4 v=0
1273876 On ch=1 n=g5 v=0
1273923 On ch=1 n=d#5 v=92
1273927 On ch=1 n=a#4 v=81
1273931 On ch=1 n=g5 v=71
1273936 On ch=1 n=f6 v=99
1273936 On ch=1 n=g4 v=84
1273971 On ch=1 n=a#4 v=0
1273981 On ch=1 n=d#5 v=0
1274011 Par ch=1 c=64 v=127
1274021 On ch=1 n=g4 v=0
1274025 On ch=1 n=g5 v=0
1274061 On ch=1 n=d#6 v=80
1274109 Par ch=1 c=64 v=0
1274168 On ch=1 n=a#5 v=84
1274205 On ch=1 n=f6 v=0
1274221 On ch=1 n=d#6 v=0
1274278 On ch=1 n=g5 v=71
1274282 On ch=1 n=a#5 v=0
1274321 On ch=1 n=g5 v=0
1274369 Par ch=1 c=64 v=127
1274384 On ch=1 n=f#3 v=127
1274394 On ch=1 n=f#2 v=127
1274441 On ch=1 n=f#2 v=0
1274453 On ch=1 n=f#3 v=0
1274557 On ch=1 n=b5 v=79
1274565 On ch=1 n=b6 v=68
1274590 On ch=1 n=b5 v=0
1274593 On ch=1 n=b6 v=0
1274637 Par ch=1 c=64 v=0
1274665 On ch=1 n=b4 v=82
1274665 On ch=1 n=d5 v=83
1274669 On ch=1 n=g5 v=81
1274677 On ch=1 n=d6 v=80
1274681 On ch=1 n=g4 v=60
1274681 On ch=1 n=b5 v=72
1274691 On ch=1 n=d6 v=0
1274691 On ch=1 n=g5 v=0
1274705 On ch=1 n=d5 v=0
1274715 On ch=1 n=b5 v=0
1274715 On ch=1 n=b4 v=0
1274722 On ch=1 n=g4 v=0
1274767 On ch=1 n=f#6 v=84
1274778 On ch=1 n=b4 v=78
1274788 On ch=1 n=d5 v=83
1274788 On ch=1 n=g5 v=89
1274792 On ch=1 n=g4 v=72
1274795 On ch=1 n=b5 v=65
1274807 On ch=1 n=g5 v=0
1274818 On ch=1 n=d5 v=0
1274822 On ch=1 n=b5 v=0
1274828 On ch=1 n=b4 v=0
1274828 On ch=1 n=f#6 v=0
1274864 On ch=1 n=b5 v=96
1274879 On ch=1 n=b4 v=78
1274879 On ch=1 n=g5 v=87
1274883 On ch=1 n=a6 v=106
1274883 On ch=1 n=d5 v=77
1274895 On ch=1 n=g5 v=0
1275012 On ch=1 n=d5 v=0
1275028 On ch=1 n=b5 v=0
1275028 On ch=1 n=g4 v=0
1275039 On ch=1 n=b4 v=0
1275044 Par ch=1 c=64 v=127
1275044 On ch=1 n=g6 v=78
1275095 Par ch=1 c=64 v=0
1275135 On ch=1 n=a6 v=0
1275135 On ch=1 n=d6 v=82
1275168 On ch=1 n=g6 v=0
1275243 On ch=1 n=d6 v=0
1275243 On ch=1 n=b5 v=71
1275287 On ch=1 n=b5 v=0
1275335 On ch=1 n=f#3 v=127
1275335 On ch=1 n=f#2 v=127
1275363 Par ch=1 c=64 v=127
1275379 On ch=1 n=f#2 v=0
1275395 On ch=1 n=f#3 v=0
1275503 On ch=1 n=e6 v=76
1275503 On ch=1 n=e7 v=71
1275532 On ch=1 n=e7 v=0
1275532 On ch=1 n=e6 v=0
1275595 On ch=1 n=e5 v=87
1275595 On ch=1 n=c5 v=79
1275599 On ch=1 n=g5 v=85
1275602 On ch=1 n=g6 v=85
1275612 On ch=1 n=e6 v=73
1275628 On ch=1 n=g5 v=0
1275628 On ch=1 n=g4 v=64
1275631 On ch=1 n=g6 v=0
1275642 On ch=1 n=c5 v=0
1275642 On ch=1 n=e5 v=0
1275644 On ch=1 n=e6 v=0
1275655 On ch=1 n=g4 v=0
1275716 On ch=1 n=e5 v=85
1275716 On ch=1 n=b6 v=90
1275716 On ch=1 n=c5 v=83
1275719 On ch=1 n=g5 v=89
1275719 On ch=1 n=e6 v=86
1275731 On ch=1 n=g4 v=66
1275735 On ch=1 n=g5 v=0
1275747 Par ch=1 c=64 v=0
1275751 On ch=1 n=c5 v=0
1275751 On ch=1 n=e5 v=0
1275762 On ch=1 n=e6 v=0
1275762 On ch=1 n=b6 v=0
1275764 On ch=1 n=g4 v=0
1275807 On ch=1 n=g5 v=97
1275807 On ch=1 n=e5 v=81
1275815 On ch=1 n=g4 v=82
1275815 On ch=1 n=c5 v=83
1275822 On ch=1 n=d7 v=93
1275822 On ch=1 n=e6 v=90
1275859 On ch=1 n=g5 v=0
1275864 On ch=1 n=e5 v=0
1275899 On ch=1 n=c5 v=0
1275919 On ch=1 n=g4 v=0
1275939 On ch=1 n=e6 v=0
1275951 Par ch=1 c=64 v=127
1275951 On ch=1 n=c7 v=73
1276059 On ch=1 n=g6 v=83
1276071 On ch=1 n=d7 v=0
1276111 On ch=1 n=c7 v=0
1276162 On ch=1 n=e6 v=82
1276172 On ch=1 n=g6 v=0
1276233 On ch=1 n=e6 v=0
1276236 Par ch=1 c=64 v=0
1276268 On ch=1 n=f#3 v=127
1276279 On ch=1 n=f#2 v=127
1276313 On ch=1 n=f#2 v=0
1276336 On ch=1 n=f#3 v=0
1276413 Par ch=1 c=64 v=127
1276416 On ch=1 n=g6 v=83
1276416 On ch=1 n=g7 v=73
1276460 On ch=1 n=g7 v=0
1276465 On ch=1 n=g6 v=0
1276520 On ch=1 n=d#5 v=92
1276530 On ch=1 n=g5 v=94
1276530 On ch=1 n=g4 v=78
1276538 On ch=1 n=a#4 v=73
1276542 On ch=1 n=a#6 v=73
1276556 On ch=1 n=a#4 v=0
1276566 On ch=1 n=g5 v=0
1276570 On ch=1 n=g4 v=0
1276586 On ch=1 n=d#5 v=0
1276633 On ch=1 n=d#7 v=68
1276643 On ch=1 n=a#6 v=0
1276643 On ch=1 n=d#6 v=74
1276646 On ch=1 n=d#5 v=92
1276658 On ch=1 n=g5 v=97
1276666 On ch=1 n=a#4 v=65
1276670 On ch=1 n=g4 v=74
1276673 On ch=1 n=g5 v=0
1276673 On ch=1 n=d#6 v=0
1276673 On ch=1 n=d#7 v=0
1276690 On ch=1 n=g4 v=0
1276694 On ch=1 n=d#5 v=0
1276699 On ch=1 n=a#4 v=0
1276735 On ch=1 n=e6 v=90
1276739 On ch=1 n=g4 v=80
1276739 On ch=1 n=e7 v=88
1276750 On ch=1 n=g5 v=91
1276750 On ch=1 n=a#4 v=66
1276770 On ch=1 n=g5 v=0
1276782 On ch=1 n=e6 v=0
1276792 On ch=1 n=e7 v=0
1276832 On ch=1 n=g4 v=0
1276839 On ch=1 n=a#4 v=0
1276871 On ch=1 n=f6 v=89
1276879 On ch=1 n=f7 v=89
1276912 On ch=1 n=f6 v=0
1276923 On ch=1 n=f7 v=0
1276987 On ch=1 n=f#6 v=86
1276991 On ch=1 n=f#7 v=88
1277044 On ch=1 n=f#6 v=0
1277063 Par ch=1 c=64 v=0
1277090 On ch=1 n=g6 v=78
1277096 On ch=1 n=f#7 v=0
1277099 On ch=1 n=g7 v=85
1277143 On ch=1 n=g6 v=0
1277167 On ch=1 n=g7 v=0
1277196 On ch=1 n=f#3 v=127
1277203 On ch=1 n=f#2 v=127
1277227 On ch=1 n=f#2 v=0
1277243 On ch=1 n=f#3 v=0
1277331 Par ch=1 c=64 v=127
1277331 On ch=1 n=g6 v=66
1277332 On ch=1 n=g7 v=65
1277347 On ch=1 n=g6 v=0
1277352 On ch=1 n=g7 v=0
1277431 On ch=1 n=g5 v=91
1277432 On ch=1 n=g4 v=78
1277435 On ch=1 n=d#5 v=68
1277439 On ch=1 n=a#6 v=81
1277443 On ch=1 n=a#7 v=86
1277459 On ch=1 n=d#5 v=0
1277459 On ch=1 n=g5 v=0
1277469 On ch=1 n=a#7 v=0
1277469 On ch=1 n=g4 v=0
1277473 On ch=1 n=a#6 v=0
1277544 On ch=1 n=d#5 v=87
1277544 On ch=1 n=g5 v=91
1277554 On ch=1 n=d7 v=87
1277554 On ch=1 n=d8 v=88
1277573 On ch=1 n=g5 v=0
1277573 On ch=1 n=d#5 v=0
1277573 On ch=1 n=g4 v=57
1277597 On ch=1 n=g4 v=0
1277604 On ch=1 n=d8 v=0
1277604 On ch=1 n=d7 v=0
1277653 On ch=1 n=g5 v=91
1277657 On ch=1 n=d#5 v=81
1277665 On ch=1 n=g4 v=72
1277677 On ch=1 n=d#7 v=95
1277677 On ch=1 n=d#8 v=94
1277701 On ch=1 n=g4 v=0
1277706 On ch=1 n=d#5 v=0
1277706 On ch=1 n=g5 v=0
1277721 On ch=1 n=d#7 v=0
1277737 On ch=1 n=d#8 v=0
1277801 On ch=1 n=e7 v=92
1277805 On ch=1 n=e8 v=95
1277846 On ch=1 n=e7 v=0
1277854 On ch=1 n=e8 v=0
1277937 On ch=1 n=f7 v=85
1277941 On ch=1 n=f8 v=98
1277985 On ch=1 n=f7 v=0
1277989 On ch=1 n=f8 v=0
1278065 On ch=1 n=f#7 v=92
1278066 On ch=1 n=f#8 v=95
1278124 On ch=1 n=f#7 v=0
1278126 On ch=1 n=f#8 v=0
1278165 Par ch=1 c=64 v=0
1278184 On ch=1 n=g7 v=127
1278184 On ch=1 n=g8 v=127
1278184 On ch=1 n=e6 v=127
1278184 On ch=1 n=a#7 v=127
1278194 On ch=1 n=c#8 v=127
1278205 On ch=1 n=c#6 v=127
1278205 On ch=1 n=g5 v=127
1278205 On ch=1 n=g6 v=127
1278205 On ch=1 n=a#5 v=127
1278304 On ch=1 n=g6 v=0
1278304 On ch=1 n=g7 v=0
1278306 On ch=1 n=g8 v=0
1278317 On ch=1 n=e6 v=0
1278333 On ch=1 n=a#7 v=0
1278350 On ch=1 n=g5 v=0
1278350 On ch=1 n=c#8 v=0
1278354 On ch=1 n=c#6 v=0
1278365 On ch=1 n=a#5 v=0
1278381 Par ch=1 c=64 v=127
1278693 On ch=1 n=a#6 v=97
1278693 On ch=1 n=a#7 v=98
1278693 On ch=1 n=a#5 v=93
1278693 On ch=1 n=a#4 v=85
1278737 On ch=1 n=a#4 v=0
1278741 On ch=1 n=a#6 v=0
1278744 On ch=1 n=a#5 v=0
1278754 On ch=1 n=a#7 v=0
1278890 On ch=1 n=b4 v=90
1278897 On ch=1 n=b5 v=96
1278901 On ch=1 n=b7 v=98
1278901 On ch=1 n=b6 v=98
1278966 On ch=1 n=b5 v=0
1278970 On ch=1 n=b4 v=0
1278977 On ch=1 n=b6 v=0
1278985 Par ch=1 c=64 v=0
1279001 On ch=1 n=b7 v=0
1279105 On ch=1 n=d5 v=99
1279113 On ch=1 n=d6 v=95
1279113 On ch=1 n=d8 v=104
1279120 On ch=1 n=d7 v=99
1279166 Par ch=1 c=64 v=127
1279169 On ch=1 n=d7 v=0
1279169 On ch=1 n=d6 v=0
1279184 On ch=1 n=d5 v=0
1279198 On ch=1 n=d8 v=0
1279364 On ch=1 n=c#7 v=98
1279364 On ch=1 n=c#8 v=103
1279364 On ch=1 n=c#6 v=91
1279381 On ch=1 n=c#5 v=80
1279424 On ch=1 n=c#5 v=0
1279426 On ch=1 n=c#8 v=0
1279426 On ch=1 n=c#7 v=0
1279430 On ch=1 n=c#6 v=0
1279534 On ch=1 n=a#6 v=97
1279538 On ch=1 n=a#7 v=92
1279541 On ch=1 n=a#5 v=84
1279546 On ch=1 n=a#4 v=77
1279581 On ch=1 n=a#4 v=0
1279584 On ch=1 n=a#5 v=0
1279594 On ch=1 n=a#6 v=0
1279598 On ch=1 n=a#7 v=0
1279694 On ch=1 n=g5 v=85
1279694 On ch=1 n=g4 v=86
1279701 On ch=1 n=g6 v=93
1279706 On ch=1 n=g7 v=85
1279717 Par ch=1 c=64 v=0
1279729 On ch=1 n=g5 v=0
1279754 On ch=1 n=g6 v=0
1279754 On ch=1 n=g4 v=0
1279761 On ch=1 n=g7 v=0
1279850 On ch=1 n=d#5 v=95
1279858 On ch=1 n=d#4 v=82
1279861 On ch=1 n=d#6 v=98
1279870 On ch=1 n=d#7 v=98
1279901 On ch=1 n=d#4 v=0
1279901 On ch=1 n=d#5 v=0
1279921 Par ch=1 c=64 v=127
1279925 On ch=1 n=d#7 v=0
1279925 On ch=1 n=d#6 v=0
1280006 On ch=1 n=e5 v=94
1280010 On ch=1 n=e4 v=89
1280014 On ch=1 n=e7 v=95
1280014 On ch=1 n=e6 v=94
1280057 On ch=1 n=e5 v=0
1280066 On ch=1 n=e4 v=0
1280070 On ch=1 n=e6 v=0
1280070 On ch=1 n=e7 v=0
1280161 On ch=1 n=f#5 v=93
1280166 On ch=1 n=f#4 v=86
1280173 On ch=1 n=f#7 v=95
1280173 On ch=1 n=f#6 v=92
1280204 On ch=1 n=f#4 v=0
1280204 On ch=1 n=f#5 v=0
1280221 On ch=1 n=f#6 v=0
1280221 On ch=1 n=f#7 v=0
1280310 On ch=1 n=a7 v=98
1280321 On ch=1 n=a5 v=98
1280330 On ch=1 n=a4 v=93
1280330 On ch=1 n=a6 v=92
1280357 On ch=1 n=a5 v=0
1280369 On ch=1 n=a4 v=0
1280373 On ch=1 n=a6 v=0
1280377 On ch=1 n=a7 v=0
1280461 On ch=1 n=g6 v=91
1280466 On ch=1 n=g5 v=103
1280473 On ch=1 n=g7 v=97
1280481 On ch=1 n=g4 v=90
1280504 On ch=1 n=g5 v=0
1280521 On ch=1 n=g4 v=0
1280530 On ch=1 n=g6 v=0
1280534 On ch=1 n=g7 v=0
1280650 On ch=1 n=e4 v=87
1280650 On ch=1 n=e5 v=89
1280657 On ch=1 n=e6 v=92
1280661 On ch=1 n=e7 v=88
1280684 On ch=1 n=e5 v=0
1280705 On ch=1 n=e6 v=0
1280705 On ch=1 n=e4 v=0
1280709 On ch=1 n=e7 v=0
1280800 On ch=1 n=c#5 v=90
1280800 On ch=1 n=c#4 v=84
1280804 On ch=1 n=c#7 v=90
1280810 On ch=1 n=c#6 v=96
1280826 On ch=1 n=c#4 v=0
1280841 On ch=1 n=c#5 v=0
1280850 On ch=1 n=c#6 v=0
1280857 On ch=1 n=c#7 v=0
1280944 On ch=1 n=a#4 v=91
1280944 On ch=1 n=a#3 v=81
1280944 On ch=1 n=a#5 v=98
1280950 On ch=1 n=a#6 v=89
1280973 On ch=1 n=a#3 v=0
1280994 On ch=1 n=a#5 v=0
1280994 On ch=1 n=a#4 v=0
1280997 On ch=1 n=a#6 v=0
1281064 Par ch=1 c=64 v=0
1281074 On ch=1 n=b6 v=82
1281078 On ch=1 n=b5 v=87
1281083 On ch=1 n=b4 v=86
1281083 On ch=1 n=b3 v=79
1281118 On ch=1 n=b4 v=0
1281118 On ch=1 n=b5 v=0
1281127 On ch=1 n=b3 v=0
1281127 On ch=1 n=b6 v=0
1281222 On ch=1 n=d6 v=92
1281222 Par ch=1 c=64 v=127
1281223 On ch=1 n=d7 v=93
1281223 On ch=1 n=d5 v=91
1281226 On ch=1 n=d4 v=88
1281251 On ch=1 n=d5 v=0
1281251 On ch=1 n=d6 v=0
1281258 On ch=1 n=d7 v=0
1281266 On ch=1 n=d4 v=0
1281318 On ch=1 n=c#5 v=92
1281330 On ch=1 n=c#4 v=88
1281342 On ch=1 n=c#7 v=98
1281342 On ch=1 n=c#6 v=101
1281361 On ch=1 n=c#4 v=0
1281371 On ch=1 n=c#6 v=0
1281371 On ch=1 n=c#5 v=0
1281380 On ch=1 n=c#7 v=0
1281455 On ch=1 n=a#4 v=91
1281465 On ch=1 n=a#5 v=105
1281469 On ch=1 n=a#3 v=83
1281472 On ch=1 n=a#6 v=94
1281488 On ch=1 n=a#3 v=0
1281505 On ch=1 n=a#4 v=0
1281508 On ch=1 n=a#5 v=0
1281537 On ch=1 n=a#6 v=0
1281577 Par ch=1 c=64 v=0
1281595 On ch=1 n=g6 v=83
1281609 On ch=1 n=g5 v=91
1281609 On ch=1 n=g3 v=91
1281609 On ch=1 n=g4 v=91
1281641 On ch=1 n=g6 v=0
1281648 On ch=1 n=g5 v=0
1281652 On ch=1 n=g3 v=0
1281656 On ch=1 n=g4 v=0
1281704 Par ch=1 c=64 v=127
1281732 On ch=1 n=d#4 v=95
1281732 On ch=1 n=d#5 v=97
1281748 On ch=1 n=d#6 v=95
1281748 On ch=1 n=d#3 v=78
1281780 On ch=1 n=d#4 v=0
1281791 On ch=1 n=d#5 v=0
1281795 On ch=1 n=d#3 v=0
1281797 On ch=1 n=d#6 v=0
1281857 On ch=1 n=e6 v=92
1281857 On ch=1 n=e4 v=94
1281865 On ch=1 n=e5 v=85
1281872 On ch=1 n=e3 v=86
1281909 On ch=1 n=e3 v=0
1281912 On ch=1 n=e5 v=0
1281912 On ch=1 n=e4 v=0
1281917 On ch=1 n=e6 v=0
1281997 On ch=1 n=f#3 v=85
1281997 On ch=1 n=f#4 v=85
1281997 On ch=1 n=f#5 v=96
1282000 On ch=1 n=f#6 v=97
1282028 On ch=1 n=f#4 v=0
1282028 On ch=1 n=f#3 v=0
1282044 On ch=1 n=f#5 v=0
1282048 On ch=1 n=f#6 v=0
1282132 Par ch=1 c=64 v=0
1282148 On ch=1 n=a5 v=102
1282148 On ch=1 n=a4 v=98
1282152 On ch=1 n=a6 v=98
1282152 On ch=1 n=a3 v=98
1282192 On ch=1 n=a4 v=0
1282208 On ch=1 n=a3 v=0
1282208 On ch=1 n=a6 v=0
1282208 On ch=1 n=a5 v=0
1282218 Par ch=1 c=64 v=127
1282309 On ch=1 n=g5 v=91
1282309 On ch=1 n=g6 v=89
1282309 On ch=1 n=g4 v=95
1282309 On ch=1 n=g3 v=88
1282353 On ch=1 n=g6 v=0
1282354 On ch=1 n=g3 v=0
1282354 On ch=1 n=g4 v=0
1282357 On ch=1 n=g5 v=0
1282413 Par ch=1 c=64 v=0
1282453 On ch=1 n=e4 v=89
1282465 On ch=1 n=e3 v=84
1282473 On ch=1 n=e5 v=91
1282477 On ch=1 n=e6 v=80
1282494 On ch=1 n=e4 v=0
1282497 On ch=1 n=e3 v=0
1282501 On ch=1 n=e6 v=0
1282505 On ch=1 n=e5 v=0
1282521 Par ch=1 c=64 v=127
1282586 On ch=1 n=c#4 v=90
1282605 On ch=1 n=c#3 v=82
1282605 On ch=1 n=c#6 v=96
1282609 On ch=1 n=c#5 v=95
1282629 On ch=1 n=c#3 v=0
1282637 On ch=1 n=c#5 v=0
1282637 On ch=1 n=c#4 v=0
1282648 On ch=1 n=c#6 v=0
1282726 On ch=1 n=a#3 v=91
1282729 On ch=1 n=a#2 v=82
1282741 On ch=1 n=a#4 v=103
1282741 On ch=1 n=a#5 v=90
1282774 On ch=1 n=a#2 v=0
1282774 On ch=1 n=a#3 v=0
1282777 On ch=1 n=a#4 v=0
1282802 On ch=1 n=a#5 v=0
1282865 On ch=1 n=b3 v=88
1282865 On ch=1 n=b2 v=77
1282872 On ch=1 n=b4 v=82
1282874 On ch=1 n=b5 v=76
1282881 Par ch=1 c=64 v=0
1282889 On ch=1 n=b3 v=0
1282908 On ch=1 n=b4 v=0
1282908 On ch=1 n=b2 v=0
1282912 On ch=1 n=b5 v=0
1283005 Par ch=1 c=64 v=127
1283012 On ch=1 n=d5 v=87
1283018 On ch=1 n=d4 v=88
1283018 On ch=1 n=d3 v=86
1283022 On ch=1 n=d6 v=74
1283033 On ch=1 n=d4 v=0
1283037 On ch=1 n=d5 v=0
1283041 On ch=1 n=d3 v=0
1283045 On ch=1 n=d6 v=0
1283128 On ch=1 n=c#4 v=92
1283128 On ch=1 n=c#3 v=88
1283132 On ch=1 n=c#6 v=99
1283138 On ch=1 n=c#5 v=98
1283165 On ch=1 n=c#4 v=0
1283172 On ch=1 n=c#3 v=0
1283174 On ch=1 n=c#5 v=0
1283174 On ch=1 n=c#6 v=0
1283249 On ch=1 n=a#3 v=91
1283261 On ch=1 n=a#2 v=82
1283273 On ch=1 n=a#4 v=99
1283274 On ch=1 n=a#5 v=90
1283289 On ch=1 n=a#2 v=0
1283301 On ch=1 n=a#3 v=0
1283312 On ch=1 n=a#4 v=0
1283326 On ch=1 n=a#5 v=0
1283373 Par ch=1 c=64 v=0
1283385 On ch=1 n=g3 v=84
1283392 On ch=1 n=g2 v=79
1283392 On ch=1 n=g5 v=89
1283394 On ch=1 n=g4 v=90
1283413 On ch=1 n=g3 v=0
1283417 On ch=1 n=g2 v=0
1283442 On ch=1 n=g4 v=0
1283442 On ch=1 n=g5 v=0
1283481 Par ch=1 c=64 v=127
1283521 On ch=1 n=d#3 v=92
1283521 On ch=1 n=d#2 v=89
1283542 On ch=1 n=d#4 v=100
1283542 On ch=1 n=d#5 v=92
1283569 On ch=1 n=d#2 v=0
1283585 On ch=1 n=d#4 v=0
1283585 On ch=1 n=d#3 v=0
1283589 On ch=1 n=d#5 v=0
1283605 Par ch=1 c=64 v=0
1283648 On ch=1 n=e4 v=91
1283662 On ch=1 n=e5 v=91
1283662 On ch=1 n=e3 v=96
1283665 On ch=1 n=e2 v=85
1283709 On ch=1 n=e3 v=0
1283709 On ch=1 n=e5 v=0
1283709 On ch=1 n=e4 v=0
1283713 On ch=1 n=e2 v=0
1283785 On ch=1 n=f4 v=94
1283801 On ch=1 n=f3 v=100
1283801 On ch=1 n=f5 v=90
1283801 On ch=1 n=f2 v=87
1283832 On ch=1 n=f2 v=0
1283842 On ch=1 n=f3 v=0
1283842 On ch=1 n=f4 v=0
1283850 On ch=1 n=f5 v=0
1283922 On ch=1 n=f#3 v=91
1283926 On ch=1 n=f#4 v=96
1283931 On ch=1 n=f#2 v=70
1283931 On ch=1 n=f#5 v=90
1283971 On ch=1 n=f#5 v=0
1283975 On ch=1 n=f#2 v=0
1283975 On ch=1 n=f#3 v=0
1283979 On ch=1 n=f#4 v=0
1284062 On ch=1 n=g4 v=127
1284062 On ch=1 n=g5 v=127
1284066 On ch=1 n=g3 v=127
1284070 On ch=1 n=g2 v=127
1284122 Par ch=1 c=64 v=127
1284182 On ch=1 n=g4 v=0
1284190 On ch=1 n=g3 v=0
1284198 On ch=1 n=g5 v=0
1284245 On ch=1 n=g2 v=0
1284391 On ch=1 n=g3 v=127
1284391 On ch=1 n=g4 v=127
1284435 On ch=1 n=g4 v=0
1284435 On ch=1 n=g3 v=0
1284515 On ch=1 n=g4 v=127
1284526 On ch=1 n=g3 v=127
1284571 On ch=1 n=g3 v=0
1284571 On ch=1 n=g4 v=0
1284662 On ch=1 n=g4 v=127
1284662 On ch=1 n=g3 v=127
1284706 On ch=1 n=g4 v=0
1284710 On ch=1 n=g3 v=0
1284811 Par ch=1 c=64 v=0
1284822 On ch=1 n=g4 v=127
1284826 On ch=1 n=g3 v=127
1284870 On ch=1 n=g4 v=0
1284871 On ch=1 n=g3 v=0
1284975 On ch=1 n=g4 v=127
1284982 On ch=1 n=g3 v=127
1284994 Par ch=1 c=64 v=127
1285143 On ch=1 n=f#3 v=127
1285169 On ch=1 n=g4 v=0
1285183 On ch=1 n=f#4 v=127
1285186 On ch=1 n=g3 v=0
1285196 On ch=1 n=e3 v=127
1285223 On ch=1 n=e4 v=127
1285256 On ch=1 n=f#4 v=0
1285271 On ch=1 n=e4 v=0
1285271 On ch=1 n=f#3 v=0
1285283 On ch=1 n=c4 v=127
1285299 On ch=1 n=c5 v=127
1285328 On ch=1 n=e3 v=0
1285375 On ch=1 n=c5 v=0
1285387 On ch=1 n=c4 v=0
1285527 On ch=1 n=b3 v=127
1285532 On ch=1 n=b4 v=127
1285587 On ch=1 n=b4 v=0
1285603 On ch=1 n=b3 v=0
1285715 Par ch=1 c=64 v=0
1286699 Par ch=1 c=64 v=127
1286702 On ch=1 n=g3 v=90
1286712 On ch=1 n=g4 v=107
1286800 On ch=1 n=g3 v=0
1286803 On ch=1 n=g4 v=0
1286880 Par ch=1 c=64 v=0
1286916 On ch=1 n=g3 v=88
1286923 On ch=1 n=g4 v=111
1287000 On ch=1 n=g4 v=0
1287012 On ch=1 n=g3 v=0
1287103 On ch=1 n=g3 v=84
1287113 On ch=1 n=g4 v=107
1287179 On ch=1 n=g4 v=0
1287189 On ch=1 n=g3 v=0
1287306 On ch=1 n=g4 v=111
1287306 On ch=1 n=g3 v=86
1287381 On ch=1 n=g3 v=0
1287381 On ch=1 n=g4 v=0
1287486 Par ch=1 c=64 v=127
1287500 On ch=1 n=g4 v=107
1287500 On ch=1 n=g3 v=90
1287721 On ch=1 n=g3 v=0
1287726 On ch=1 n=f#3 v=65
1287730 On ch=1 n=f#4 v=86
1287793 On ch=1 n=g4 v=0
1287826 On ch=1 n=e3 v=72
1287829 On ch=1 n=e4 v=87
1287873 On ch=1 n=f#4 v=0
1287882 On ch=1 n=f#3 v=0
1287882 Par ch=1 c=64 v=0
1287913 On ch=1 n=e4 v=0
1287923 On ch=1 n=b3 v=127
1287923 On ch=1 n=b4 v=127
1287958 On ch=1 n=e3 v=0
1287986 On ch=1 n=b4 v=0
1287996 On ch=1 n=b3 v=0
1288199 On ch=1 n=a#4 v=115
1288207 On ch=1 n=a#3 v=116
1288235 On ch=1 n=a#4 v=0
1288240 Par ch=1 c=64 v=127
1288255 On ch=1 n=a#3 v=0
1288387 Par ch=1 c=64 v=0
1290687 Par ch=1 c=64 v=127
1290731 On ch=1 n=e4 v=106
1290735 On ch=1 n=e3 v=96
1291007 On ch=1 n=e4 v=0
1291027 On ch=1 n=e3 v=0
1291114 On ch=1 n=e4 v=110
1291116 On ch=1 n=e3 v=84
1291268 On ch=1 n=e3 v=0
1291311 On ch=1 n=e4 v=0
1291396 On ch=1 n=e3 v=84
1291399 On ch=1 n=e4 v=106
1291537 On ch=1 n=e3 v=0
1291573 On ch=1 n=e4 v=0
1291693 On ch=1 n=e4 v=106
1291693 On ch=1 n=e3 v=86
1291861 On ch=1 n=e3 v=0
1291865 On ch=1 n=e4 v=0
1291968 On ch=1 n=e3 v=96
1291971 On ch=1 n=e4 v=106
1291981 Par ch=1 c=64 v=0
1292188 Par ch=1 c=64 v=127
1292477 On ch=1 n=e3 v=0
1292549 On ch=1 n=e4 v=0
1292589 On ch=1 n=d4 v=95
1292594 On ch=1 n=d3 v=88
1292941 On ch=1 n=c3 v=83
1292957 On ch=1 n=d3 v=0
1292957 On ch=1 n=d4 v=0
1292957 On ch=1 n=c4 v=92
1293270 On ch=1 n=c4 v=0
1293321 On ch=1 n=g3 v=90
1293330 On ch=1 n=g4 v=104
1293390 On ch=1 n=c3 v=0
1293597 Par ch=1 c=64 v=0
1294177 On ch=1 n=g4 v=0
1294282 Par ch=1 c=64 v=127
1295681 On ch=1 n=g3 v=0
1296825 On ch=1 n=f#4 v=55
1296825 On ch=1 n=f#3 v=52
1297518 On ch=1 n=f#3 v=0
1297550 On ch=1 n=f#4 v=0
1297765 Par ch=1 c=64 v=0
1297829 On ch=1 n=b2 v=47
1297921 On ch=1 n=f#4 v=39
1297974 On ch=1 n=b4 v=53
1298041 On ch=1 n=d#5 v=50
1298093 On ch=1 n=f#5 v=80
1298149 On ch=1 n=f#4 v=0
1298165 On ch=1 n=b4 v=0
1298265 On ch=1 n=d#5 v=0
1298282 Par ch=1 c=64 v=127
1298610 On ch=1 n=b2 v=0
1299057 On ch=1 n=d#5 v=39
1299073 On ch=1 n=b4 v=38
1299077 On ch=1 n=f#4 v=39
1299084 On ch=1 n=f#3 v=40
1299329 On ch=1 n=f#5 v=0
1299361 On ch=1 n=d#5 v=0
1299377 On ch=1 n=f#4 v=0
1299387 On ch=1 n=b4 v=0
1299566 On ch=1 n=f#5 v=78
1299566 On ch=1 n=b4 v=44
1299574 On ch=1 n=f#4 v=48
1299574 On ch=1 n=d#5 v=50
1299582 On ch=1 n=b3 v=39
1299786 On ch=1 n=b4 v=0
1299835 On ch=1 n=d#5 v=0
1299835 On ch=1 n=f#4 v=0
1299998 On ch=1 n=b3 v=0
1300058 On ch=1 n=d#5 v=38
1300082 On ch=1 n=f#4 v=39
1300082 On ch=1 n=d#4 v=38
1300082 On ch=1 n=b4 v=39
1300187 On ch=1 n=f#3 v=0
1300366 On ch=1 n=f#4 v=0
1300367 On ch=1 n=b4 v=0
1300378 On ch=1 n=d#5 v=0
1300565 On ch=1 n=b4 v=39
1300571 On ch=1 n=f#4 v=38
1300578 On ch=1 n=d#5 v=39
1300578 On ch=1 n=f#3 v=41
1300694 On ch=1 n=d#4 v=0
1300798 On ch=1 n=d#5 v=0
1300798 On ch=1 n=b4 v=0
1300815 On ch=1 n=f#3 v=0
1300815 On ch=1 n=f#5 v=0
1300838 On ch=1 n=f#4 v=0
1301046 On ch=1 n=f#5 v=79
1301054 On ch=1 n=d#5 v=56
1301054 On ch=1 n=f#4 v=49
1301079 On ch=1 n=b3 v=40
1301082 On ch=1 n=b4 v=31
1301158 On ch=1 n=b4 v=0
1301202 On ch=1 n=f#4 v=0
1301202 On ch=1 n=d#5 v=0
1301262 On ch=1 n=f#5 v=0
1301282 On ch=1 n=b3 v=0
1301667 On ch=1 n=f#5 v=80
1301687 On ch=1 n=d#5 v=62
1301687 On ch=1 n=g#4 v=58
1301687 On ch=1 n=b4 v=55
1301705 On ch=1 n=b2 v=55
1301722 Par ch=1 c=64 v=0
1301890 Par ch=1 c=64 v=127
1301947 On ch=1 n=g#4 v=0
1301951 On ch=1 n=d#5 v=0
1301966 On ch=1 n=b2 v=0
1301981 On ch=1 n=b4 v=0
1302202 On ch=1 n=d#5 v=47
1302205 On ch=1 n=f#5 v=0
1302205 On ch=1 n=b4 v=44
1302219 On ch=1 n=g#4 v=45
1302238 On ch=1 n=g#3 v=48
1302386 On ch=1 n=g#5 v=82
1302431 On ch=1 n=d#5 v=0
1302486 On ch=1 n=g#4 v=0
1302527 On ch=1 n=g#5 v=0
1302542 On ch=1 n=b4 v=0
1302618 On ch=1 n=g#4 v=69
1302638 On ch=1 n=g#5 v=77
1302638 On ch=1 n=b4 v=63
1302638 On ch=1 n=d#5 v=63
1302642 On ch=1 n=b3 v=50
1302738 On ch=1 n=g#3 v=0
1302835 On ch=1 n=b3 v=0
1302851 On ch=1 n=d#5 v=0
1302866 On ch=1 n=b4 v=0
1302895 On ch=1 n=g#4 v=0
1303047 On ch=1 n=g#4 v=55
1303047 On ch=1 n=d#5 v=53
1303047 On ch=1 n=b4 v=56
1303051 On ch=1 n=d#4 v=58
1303262 On ch=1 n=g#4 v=0
1303278 On ch=1 n=b4 v=0
1303287 On ch=1 n=d#5 v=0
1303378 On ch=1 n=d#4 v=0
1303467 On ch=1 n=g#3 v=51
1303467 On ch=1 n=d#5 v=55
1303467 On ch=1 n=b4 v=52
1303478 On ch=1 n=g#4 v=44
1303606 On ch=1 n=g#3 v=0
1303666 On ch=1 n=g#4 v=0
1303678 On ch=1 n=d#5 v=0
1303698 On ch=1 n=b4 v=0
1303845 On ch=1 n=b4 v=49
1303855 On ch=1 n=g#4 v=48
1303867 On ch=1 n=d#5 v=47
1303867 On ch=1 n=b3 v=52
1303927 On ch=1 n=b4 v=0
1303942 On ch=1 n=d#5 v=0
1303942 On ch=1 n=g#4 v=0
1303962 On ch=1 n=g#5 v=0
1303974 On ch=1 n=b3 v=0
1304325 On ch=1 n=b4 v=82
1304339 On ch=1 n=b5 v=85
1304339 On ch=1 n=e5 v=76
1304339 On ch=1 n=g#5 v=77
1304351 Par ch=1 c=64 v=0
1304351 On ch=1 n=b2 v=76
1304566 Par ch=1 c=64 v=127
1304578 On ch=1 n=b2 v=0
1304610 On ch=1 n=e5 v=0
1304642 On ch=1 n=g#5 v=0
1304661 On ch=1 n=b4 v=0
1304935 On ch=1 n=e5 v=47
1304938 On ch=1 n=g#5 v=49
1304942 On ch=1 n=b4 v=43
1304942 On ch=1 n=b3 v=58
1305151 On ch=1 n=b3 v=0
1305151 On ch=1 n=b5 v=0
1305174 On ch=1 n=e5 v=0
1305182 On ch=1 n=b4 v=0
1305182 On ch=1 n=g#5 v=0
1305287 On ch=1 n=b5 v=85
1305291 On ch=1 n=b4 v=80
1305302 On ch=1 n=e5 v=65
1305306 On ch=1 n=g#5 v=72
1305306 On ch=1 n=e4 v=60
1305465 On ch=1 n=e5 v=0
1305475 On ch=1 n=g#5 v=0
1305522 On ch=1 n=b4 v=0
1305639 On ch=1 n=g#4 v=72
1305648 On ch=1 n=e4 v=0
1305655 On ch=1 n=e5 v=58
1305655 On ch=1 n=g#5 v=61
1305659 On ch=1 n=b4 v=70
1305862 On ch=1 n=b4 v=0
1305882 On ch=1 n=g#5 v=0
1305888 On ch=1 n=e5 v=0
1305947 On ch=1 n=g#4 v=0
1306008 On ch=1 n=e5 v=60
1306015 On ch=1 n=b3 v=60
1306023 On ch=1 n=b4 v=64
1306027 On ch=1 n=g#5 v=60
1306167 On ch=1 n=b5 v=0
1306239 On ch=1 n=g#5 v=0
1306239 On ch=1 n=e5 v=0
1306251 On ch=1 n=b4 v=0
1306268 On ch=1 n=b3 v=0
1306344 On ch=1 n=b5 v=75
1306348 On ch=1 n=g#5 v=77
1306359 On ch=1 n=b4 v=80
1306359 On ch=1 n=e4 v=63
1306376 On ch=1 n=e5 v=64
1306419 On ch=1 n=e5 v=0
1306423 On ch=1 n=e4 v=0
1306442 On ch=1 n=b4 v=0
1306459 On ch=1 n=g#5 v=0
1306479 On ch=1 n=b5 v=0
1306752 On ch=1 n=b5 v=89
1306759 Par ch=1 c=64 v=0
1306759 On ch=1 n=c#5 v=82
1306768 On ch=1 n=b2 v=84
1306775 On ch=1 n=e5 v=67
1306775 On ch=1 n=g#5 v=68
1306868 On ch=1 n=e5 v=0
1306915 On ch=1 n=g#5 v=0
1306925 On ch=1 n=b2 v=0
1306925 Par ch=1 c=64 v=127
1306952 On ch=1 n=c#5 v=0
1307179 On ch=1 n=c#4 v=58
1307185 On ch=1 n=b5 v=0
1307185 On ch=1 n=g#5 v=57
1307185 On ch=1 n=c#5 v=55
1307185 On ch=1 n=e5 v=47
1307353 On ch=1 n=c#5 v=0
1307365 On ch=1 n=c#6 v=89
1307376 On ch=1 n=g#5 v=0
1307420 On ch=1 n=e5 v=0
1307480 On ch=1 n=c#6 v=0
1307552 On ch=1 n=c#6 v=83
1307559 On ch=1 n=g#5 v=67
1307559 On ch=1 n=c#5 v=74
1307559 On ch=1 n=e5 v=63
1307569 On ch=1 n=c#4 v=0
1307573 On ch=1 n=e4 v=56
1307719 On ch=1 n=e4 v=0
1307740 On ch=1 n=e5 v=0
1307752 On ch=1 n=c#5 v=0
1307756 On ch=1 n=g#5 v=0
1307924 On ch=1 n=g#5 v=60
1307932 On ch=1 n=g#4 v=57
1307932 On ch=1 n=e5 v=60
1307935 On ch=1 n=c#5 v=58
1308136 On ch=1 n=e5 v=0
1308136 On ch=1 n=g#5 v=0
1308152 On ch=1 n=c#5 v=0
1308308 On ch=1 n=c#5 v=56
1308308 On ch=1 n=g#5 v=60
1308308 On ch=1 n=e5 v=55
1308308 On ch=1 n=c#4 v=60
1308368 On ch=1 n=g#4 v=0
1308516 On ch=1 n=e5 v=0
1308535 On ch=1 n=c#4 v=0
1308535 On ch=1 n=c#5 v=0
1308539 On ch=1 n=g#5 v=0
1308704 On ch=1 n=c#5 v=45
1308716 On ch=1 n=e5 v=41
1308716 On ch=1 n=g#5 v=49
1308719 On ch=1 n=e4 v=56
1308748 On ch=1 n=c#5 v=0
1308758 On ch=1 n=e5 v=0
1308789 On ch=1 n=g#5 v=0
1308789 On ch=1 n=c#6 v=0
1308809 On ch=1 n=e4 v=0
1309233 On ch=1 n=c#7 v=86
1309233 On ch=1 n=e7 v=90
1309236 On ch=1 n=e6 v=94
1309236 On ch=1 n=a6 v=88
1309238 On ch=1 n=a2 v=90
1309238 On ch=1 n=a3 v=90
1309276 Par ch=1 c=64 v=0
1309466 Par ch=1 c=64 v=127
1309509 On ch=1 n=a2 v=0
1309529 On ch=1 n=a3 v=0
1309993 On ch=1 n=a4 v=63
1309998 On ch=1 n=e5 v=60
1309998 On ch=1 n=c#5 v=61
1310002 On ch=1 n=e4 v=59
1310162 On ch=1 n=e4 v=0
1310189 On ch=1 n=c#5 v=0
1310189 On ch=1 n=a4 v=0
1310193 On ch=1 n=e5 v=0
1310226 On ch=1 n=e6 v=0
1310226 On ch=1 n=c#7 v=0
1310277 On ch=1 n=a6 v=0
1310285 On ch=1 n=e7 v=0
1310309 On ch=1 n=c#5 v=72
1310316 On ch=1 n=a4 v=68
1310316 On ch=1 n=e4 v=69
1310322 On ch=1 n=e5 v=76
1310473 On ch=1 n=e4 v=0
1310477 On ch=1 n=e5 v=0
1310497 On ch=1 n=a4 v=0
1310497 On ch=1 n=c#5 v=0
1310605 On ch=1 n=c#7 v=86
1310616 On ch=1 n=e6 v=88
1310616 On ch=1 n=e7 v=84
1310618 On ch=1 n=a6 v=84
1310618 On ch=1 n=e4 v=63
1310618 On ch=1 n=a4 v=69
1310629 On ch=1 n=c#5 v=70
1310629 On ch=1 n=e5 v=67
1310767 On ch=1 n=e4 v=0
1310795 On ch=1 n=e5 v=0
1310810 On ch=1 n=c#5 v=0
1310826 On ch=1 n=e7 v=0
1310836 On ch=1 n=a4 v=0
1310866 On ch=1 n=c#7 v=0
1310883 On ch=1 n=a6 v=0
1310960 On ch=1 n=e6 v=0
1310967 On ch=1 n=e6 v=72
1310967 On ch=1 n=e7 v=82
1310967 On ch=1 n=e4 v=58
1310967 On ch=1 n=c#7 v=86
1310967 On ch=1 n=c#5 v=60
1310971 On ch=1 n=a6 v=84
1310971 On ch=1 n=a4 v=64
1310971 On ch=1 n=e5 v=60
1311119 On ch=1 n=a6 v=0
1311119 On ch=1 n=e6 v=0
1311129 On ch=1 n=e5 v=0
1311129 On ch=1 n=e7 v=0
1311144 On ch=1 n=c#7 v=0
1311163 On ch=1 n=c#5 v=0
1311180 On ch=1 n=a4 v=0
1311236 On ch=1 n=e4 v=0
1311592 On ch=1 n=f#6 v=86
1311596 On ch=1 n=f#7 v=86
1311673 On ch=1 n=f#6 v=0
1311680 On ch=1 n=f#7 v=0
1311744 On ch=1 n=f#7 v=88
1311744 On ch=1 n=c7 v=96
1311756 Par ch=1 c=64 v=0
1311760 On ch=1 n=f#6 v=88
1311760 On ch=1 n=g2 v=94
1311763 On ch=1 n=g3 v=90
1311944 Par ch=1 c=64 v=127
1311953 On ch=1 n=g2 v=0
1311968 On ch=1 n=g3 v=0
1312360 On ch=1 n=c5 v=56
1312370 On ch=1 n=e5 v=62
1312373 On ch=1 n=g4 v=59
1312381 On ch=1 n=e4 v=59
1312557 On ch=1 n=e4 v=0
1312561 On ch=1 n=g4 v=0
1312573 On ch=1 n=e5 v=0
1312618 On ch=1 n=c5 v=0
1312625 On ch=1 n=f#7 v=0
1312633 On ch=1 n=f#6 v=0
1312644 On ch=1 n=c7 v=0
1312706 On ch=1 n=e4 v=73
1312706 On ch=1 n=g4 v=77
1312706 On ch=1 n=c5 v=67
1312713 On ch=1 n=e5 v=77
1312873 On ch=1 n=e4 v=0
1312901 On ch=1 n=g4 v=0
1312905 On ch=1 n=e5 v=0
1312929 On ch=1 n=c5 v=0
1313037 On ch=1 n=e6 v=88
1313041 On ch=1 n=e7 v=90
1313046 On ch=1 n=g4 v=65
1313046 On ch=1 n=c5 v=47
1313046 On ch=1 n=e4 v=57
1313050 On ch=1 n=e5 v=57
1313221 On ch=1 n=e4 v=0
1313224 On ch=1 n=g4 v=0
1313234 On ch=1 n=e5 v=0
1313257 On ch=1 n=c5 v=0
1313301 On ch=1 n=e6 v=0
1313365 On ch=1 n=e7 v=0
1313425 On ch=1 n=d7 v=91
1313425 On ch=1 n=d6 v=90
1313425 On ch=1 n=e4 v=49
1313430 On ch=1 n=c5 v=47
1313438 On ch=1 n=e5 v=51
1313441 On ch=1 n=g4 v=45
1313650 On ch=1 n=e5 v=0
1313666 On ch=1 n=c5 v=0
1313677 On ch=1 n=d6 v=0
1313697 On ch=1 n=d7 v=0
1313753 On ch=1 n=g4 v=0
1313765 On ch=1 n=e4 v=0
1313814 On ch=1 n=c6 v=89
1313814 On ch=1 n=c7 v=91
1313993 On ch=1 n=c7 v=0
1313993 On ch=1 n=c6 v=0
1314217 Par ch=1 c=64 v=0
1314225 On ch=1 n=b5 v=96
1314230 On ch=1 n=b6 v=98
1314230 On ch=1 n=e6 v=94
1314230 On ch=1 n=f#2 v=82
1314245 On ch=1 n=f#3 v=85
1314381 On ch=1 n=f#2 v=0
1314385 Par ch=1 c=64 v=127
1314410 On ch=1 n=f#3 v=0
1314485 On ch=1 n=b5 v=0
1314545 On ch=1 n=b6 v=0
1314741 On ch=1 n=a#5 v=86
1314746 On ch=1 n=a#6 v=87
1314753 On ch=1 n=c#5 v=46
1314761 On ch=1 n=e4 v=56
1314777 On ch=1 n=a#4 v=53
1314787 On ch=1 n=e5 v=55
1314910 On ch=1 n=e5 v=0
1314910 On ch=1 n=e4 v=0
1314920 On ch=1 n=c#5 v=0
1314924 On ch=1 n=a#4 v=0
1315019 On ch=1 n=a#5 v=0
1315023 On ch=1 n=e6 v=0
1315034 On ch=1 n=a#6 v=0
1315135 On ch=1 n=c#5 v=51
1315135 On ch=1 n=a#4 v=49
1315138 On ch=1 n=g#6 v=84
1315144 On ch=1 n=e5 v=50
1315152 On ch=1 n=g#5 v=82
1315152 On ch=1 n=e4 v=55
1315292 On ch=1 n=e4 v=0
1315292 On ch=1 n=e5 v=0
1315307 On ch=1 n=c#5 v=0
1315319 On ch=1 n=a#4 v=0
1315323 On ch=1 n=g#5 v=0
1315418 On ch=1 n=g#6 v=0
1315518 On ch=1 n=a#6 v=81
1315520 On ch=1 n=a#5 v=75
1315520 On ch=1 n=e4 v=51
1315520 On ch=1 n=e5 v=53
1315520 On ch=1 n=c#5 v=46
1315520 On ch=1 n=a#4 v=47
1315523 On ch=1 n=c#5 v=0
1315547 On ch=1 n=e5 v=0
1315551 On ch=1 n=e4 v=0
1315620 On ch=1 n=a#4 v=0
1315651 On ch=1 n=a#5 v=0
1315699 On ch=1 n=a#6 v=0
1315928 On ch=1 n=b6 v=86
1315931 Par ch=1 c=64 v=0
1315935 On ch=1 n=b5 v=83
1315935 On ch=1 n=g#6 v=80
1315939 On ch=1 n=e2 v=85
1315944 On ch=1 n=e3 v=76
1316059 On ch=1 n=e3 v=0
1316059 On ch=1 n=e2 v=0
1316100 Par ch=1 c=64 v=127
1316159 On ch=1 n=b5 v=0
1316220 On ch=1 n=b6 v=0
1316460 On ch=1 n=c#6 v=91
1316460 On ch=1 n=c#7 v=90
1316460 On ch=1 n=g#5 v=64
1316468 On ch=1 n=g#4 v=57
1316468 On ch=1 n=c#5 v=65
1316479 On ch=1 n=g#6 v=0
1316551 On ch=1 n=g#5 v=0
1316580 On ch=1 n=c#5 v=0
1316594 On ch=1 n=g#4 v=0
1316644 On ch=1 n=c#6 v=0
1316731 On ch=1 n=c#7 v=0
1317019 On ch=1 n=d#2 v=85
1317019 On ch=1 n=d#3 v=86
1317027 On ch=1 n=d#6 v=88
1317027 On ch=1 n=g6 v=87
1317027 On ch=1 n=d#7 v=88
1317067 Par ch=1 c=64 v=0
1317240 On ch=1 n=d#2 v=0
1317271 On ch=1 n=d#3 v=0
1317271 Par ch=1 c=64 v=127
1317695 On ch=1 n=g4 v=64
1317695 On ch=1 n=g5 v=63
1317699 On ch=1 n=a#4 v=65
1317700 On ch=1 n=d#5 v=58
1317883 On ch=1 n=g4 v=0
1317883 On ch=1 n=d#6 v=0
1317895 On ch=1 n=a#4 v=0
1317895 On ch=1 n=g5 v=0
1317911 On ch=1 n=g6 v=0
1317920 On ch=1 n=d#5 v=0
1317963 On ch=1 n=d#7 v=0
1318052 On ch=1 n=g4 v=67
1318052 On ch=1 n=g5 v=74
1318052 On ch=1 n=d#5 v=71
1318055 On ch=1 n=a#4 v=67
1318248 On ch=1 n=g4 v=0
1318251 On ch=1 n=a#4 v=0
1318259 On ch=1 n=g5 v=0
1318291 On ch=1 n=d#5 v=0
1318415 On ch=1 n=a#6 v=87
1318425 On ch=1 n=a#5 v=84
1318437 On ch=1 n=g4 v=55
1318437 On ch=1 n=g5 v=57
1318437 On ch=1 n=d#5 v=54
1318452 On ch=1 n=a#4 v=50
1318515 On ch=1 n=a#5 v=0
1318525 On ch=1 n=g5 v=0
1318553 On ch=1 n=a#6 v=0
1318558 On ch=1 n=d#5 v=0
1318593 On ch=1 n=g4 v=0
1318601 On ch=1 n=a#4 v=0
1318917 Par ch=1 c=64 v=0
1318932 On ch=1 n=f#6 v=86
1318932 On ch=1 n=d2 v=87
1318938 On ch=1 n=c#6 v=87
1318942 On ch=1 n=c#7 v=90
1318942 On ch=1 n=d3 v=78
1319052 On ch=1 n=d3 v=0
1319058 On ch=1 n=d2 v=0
1319077 Par ch=1 c=64 v=127
1319134 On ch=1 n=c#7 v=0
1319158 On ch=1 n=c#6 v=0
1319181 On ch=1 n=f#6 v=0
1319273 On ch=1 n=b6 v=90
1319274 On ch=1 n=b5 v=89
1319389 On ch=1 n=b5 v=0
1319393 On ch=1 n=b6 v=0
1319486 On ch=1 n=f#4 v=68
1319486 On ch=1 n=f#5 v=72
1319498 On ch=1 n=b4 v=70
1319642 On ch=1 n=f#5 v=0
1319673 On ch=1 n=b4 v=0
1319718 On ch=1 n=f#4 v=0
1320025 On ch=1 n=f#6 v=88
1320035 On ch=1 n=f#5 v=80
1320110 On ch=1 n=f#5 v=0
1320143 On ch=1 n=f#6 v=0
1320249 On ch=1 n=c#6 v=87
1320249 On ch=1 n=g#5 v=86
1320249 On ch=1 n=f#6 v=80
1320249 On ch=1 n=c#2 v=92
1320251 On ch=1 n=g#6 v=86
1320251 On ch=1 n=c#3 v=90
1320330 Par ch=1 c=64 v=0
1320522 On ch=1 n=c#2 v=0
1320542 Par ch=1 c=64 v=127
1320566 On ch=1 n=c#3 v=0
1320955 On ch=1 n=c#5 v=61
1320958 On ch=1 n=f#5 v=64
1320970 On ch=1 n=g#4 v=58
1321150 On ch=1 n=f#6 v=0
1321194 On ch=1 n=g#6 v=0
1321194 On ch=1 n=g#5 v=0
1321202 On ch=1 n=c#6 v=0
1321209 On ch=1 n=c#5 v=0
1321242 On ch=1 n=g#4 v=0
1321274 On ch=1 n=f#5 v=0
1321491 On ch=1 n=c#5 v=61
1321494 On ch=1 n=f6 v=72
1321505 On ch=1 n=g#5 v=71
1321505 On ch=1 n=f5 v=63
1321505 On ch=1 n=c#6 v=78
1321509 On ch=1 n=g#6 v=80
1321509 On ch=1 n=g#4 v=64
1321583 Par ch=1 c=64 v=0
1321766 Par ch=1 c=64 v=127
1321826 On ch=1 n=g#4 v=0
1321838 On ch=1 n=c#5 v=0
1321869 On ch=1 n=f5 v=0
1322062 On ch=1 n=f5 v=48
1322079 On ch=1 n=g#4 v=52
1322079 On ch=1 n=c#5 v=48
1322329 On ch=1 n=f5 v=0
1322335 On ch=1 n=c#5 v=0
1322335 On ch=1 n=g#4 v=0
1322783 On ch=1 n=c#5 v=41
1322791 On ch=1 n=g#4 v=42
1322794 On ch=1 n=f5 v=34
1323011 On ch=1 n=f5 v=0
1323086 On ch=1 n=g#4 v=0
1323086 On ch=1 n=c#5 v=0
1323382 On ch=1 n=f6 v=0
1323418 On ch=1 n=g#6 v=0
1323443 On ch=1 n=g#5 v=0
1323591 On ch=1 n=c#6 v=0
1323715 Par ch=1 c=64 v=0
1324071 Par ch=1 c=64 v=127
1324202 On ch=1 n=d#6 v=86
1324202 On ch=1 n=g#6 v=86
1324206 On ch=1 n=b3 v=87
1324206 On ch=1 n=g#5 v=82
1324206 On ch=1 n=b2 v=90
1324326 On ch=1 n=b3 v=0
1324329 On ch=1 n=b2 v=0
1324343 On ch=1 n=g#5 v=0
1324343 On ch=1 n=g#6 v=0
1324346 On ch=1 n=d#6 v=0
1324430 On ch=1 n=d#6 v=90
1324431 On ch=1 n=g#6 v=95
1324431 On ch=1 n=g#5 v=92
1324439 On ch=1 n=b2 v=93
1324443 On ch=1 n=b3 v=89
1324991 On ch=1 n=d#6 v=0
1324999 On ch=1 n=g#6 v=0
1325006 On ch=1 n=g#5 v=0
1325129 On ch=1 n=b3 v=0
1325129 On ch=1 n=b2 v=0
1325370 On ch=1 n=a#6 v=97
1325375 On ch=1 n=a#3 v=81
1325379 On ch=1 n=a#5 v=90
1325379 On ch=1 n=a#2 v=80
1325382 On ch=1 n=d6 v=90
1325506 On ch=1 n=a#2 v=0
1325506 On ch=1 n=a#3 v=0
1325522 On ch=1 n=a#5 v=0
1325522 On ch=1 n=a#6 v=0
1325542 On ch=1 n=d6 v=0
1325618 On ch=1 n=a#5 v=98
1325618 On ch=1 n=a#6 v=97
1325618 On ch=1 n=d6 v=88
1325618 On ch=1 n=a#3 v=89
1325622 On ch=1 n=a#2 v=86
1325829 Par ch=1 c=64 v=0
1326311 On ch=1 n=a#3 v=0
1326355 On ch=1 n=a#2 v=0
1326438 On ch=1 n=a#6 v=0
1326450 On ch=1 n=d6 v=0
1326458 On ch=1 n=a#5 v=0
1327702 Par ch=1 c=67 v=127
1327850 Par ch=1 c=64 v=127
1328102 On ch=1 n=f5 v=55
1328102 On ch=1 n=a#4 v=55
1328102 On ch=1 n=d4 v=54
1328198 On ch=1 n=d4 v=0
1328198 On ch=1 n=a#4 v=0
1328198 On ch=1 n=f5 v=0
1328422 On ch=1 n=a#4 v=59
1328422 On ch=1 n=d4 v=65
1328422 On ch=1 n=f5 v=67
1328555 Par ch=1 c=64 v=0
1328719 Par ch=1 c=64 v=127
1328846 On ch=1 n=d4 v=0
1328846 On ch=1 n=a#4 v=0
1329803 On ch=1 n=c5 v=45
1329803 On ch=1 n=a4 v=46
1329806 On ch=1 n=f4 v=45
1329966 On ch=1 n=c5 v=0
1329970 On ch=1 n=a4 v=0
1329971 On ch=1 n=f4 v=0
1330106 On ch=1 n=c5 v=45
1330106 On ch=1 n=a4 v=45
1330106 On ch=1 n=f4 v=45
1330291 Par ch=1 c=64 v=0
1330958 Par ch=1 c=67 v=0
1330991 Par ch=1 c=64 v=127
1331018 On ch=1 n=f4 v=0
1331018 On ch=1 n=a4 v=0
1331018 On ch=1 n=c5 v=0
1331062 On ch=1 n=f5 v=0
1331402 Par ch=1 c=64 v=0
1332058 Par ch=1 c=64 v=127
1332378 On ch=1 n=d#6 v=88
1332378 On ch=1 n=g#5 v=88
1332378 On ch=1 n=g#6 v=86
1332382 On ch=1 n=b2 v=93
1332382 On ch=1 n=b3 v=91
1332529 On ch=1 n=g#5 v=0
1332535 On ch=1 n=b3 v=0
1332535 On ch=1 n=b2 v=0
1332551 On ch=1 n=d#6 v=0
1332594 On ch=1 n=g#6 v=0
1332622 On ch=1 n=d#6 v=90
1332622 On ch=1 n=g#5 v=98
1332622 On ch=1 n=g#6 v=95
1332622 On ch=1 n=b3 v=93
1332626 On ch=1 n=b2 v=90
1333271 On ch=1 n=d#6 v=0
1333286 On ch=1 n=g#5 v=0
1333342 On ch=1 n=g#6 v=0
1333402 On ch=1 n=b2 v=0
1333406 On ch=1 n=b3 v=0
1333719 On ch=1 n=a#6 v=94
1333723 On ch=1 n=a#5 v=90
1333723 On ch=1 n=d6 v=88
1333723 On ch=1 n=a#3 v=91
1333723 On ch=1 n=a#2 v=90
1333770 On ch=1 n=a#3 v=0
1333791 On ch=1 n=a#2 v=0
1333791 On ch=1 n=a#5 v=0
1333810 On ch=1 n=d6 v=0
1333839 On ch=1 n=a#6 v=0
1333882 On ch=1 n=a#2 v=88
1333882 On ch=1 n=a#5 v=96
1333882 On ch=1 n=a#3 v=93
1333886 On ch=1 n=a#6 v=97
1333886 On ch=1 n=d6 v=90
1334111 Par ch=1 c=64 v=0
1334498 On ch=1 n=a#3 v=0
1334569 On ch=1 n=a#2 v=0
1334631 On ch=1 n=d6 v=0
1334662 On ch=1 n=a#6 v=0
1334662 On ch=1 n=a#5 v=0
1336086 Par ch=1 c=64 v=127
1336582 On ch=1 n=f5 v=45
1336582 On ch=1 n=a#4 v=49
1336582 On ch=1 n=d4 v=45
1336762 On ch=1 n=d4 v=0
1336762 On ch=1 n=a#4 v=0
1336762 On ch=1 n=f5 v=0
1336779 Par ch=1 c=67 v=127
1336855 On ch=1 n=f5 v=61
1336855 On ch=1 n=a#4 v=49
1336859 On ch=1 n=d4 v=44
1337311 On ch=1 n=d4 v=0
1337311 On ch=1 n=a#4 v=0
1337975 On ch=1 n=a4 v=45
1337978 On ch=1 n=f4 v=45
1337978 On ch=1 n=c5 v=45
1338071 On ch=1 n=f4 v=0
1338071 On ch=1 n=a4 v=0
1338075 On ch=1 n=c5 v=0
1338286 On ch=1 n=c5 v=46
1338286 On ch=1 n=a4 v=45
1338290 On ch=1 n=f4 v=45
1338459 Par ch=1 c=64 v=0
1339011 Par ch=1 c=64 v=127
1339279 On ch=1 n=f4 v=0
1339279 On ch=1 n=a4 v=0
1339279 On ch=1 n=c5 v=0
1339338 On ch=1 n=f5 v=0
1340070 Par ch=1 c=64 v=0
1340210 Par ch=1 c=64 v=127
1340655 On ch=1 n=d6 v=51
1340655 On ch=1 n=a#4 v=33
1340658 On ch=1 n=g5 v=39
1340662 On ch=1 n=d5 v=39
1340811 On ch=1 n=d5 v=0
1340811 On ch=1 n=g5 v=0
1340811 On ch=1 n=a#4 v=0
1340811 On ch=1 n=d6 v=0
1340950 On ch=1 n=d6 v=72
1340950 On ch=1 n=g5 v=38
1340950 On ch=1 n=a#4 v=38
1340954 On ch=1 n=d5 v=49
1341409 On ch=1 n=d5 v=0
1341409 On ch=1 n=a#4 v=0
1341409 On ch=1 n=g5 v=0
1342191 On ch=1 n=a5 v=44
1342194 On ch=1 n=d5 v=44
1342194 On ch=1 n=f#5 v=41
1342382 On ch=1 n=d5 v=0
1342382 On ch=1 n=a5 v=0
1342386 On ch=1 n=f#5 v=0
1342534 On ch=1 n=a5 v=43
1342538 On ch=1 n=f#5 v=42
1342538 On ch=1 n=d5 v=41
1342806 Par ch=1 c=64 v=0
1343358 Par ch=1 c=64 v=127
1344082 On ch=1 n=a5 v=0
1344089 On ch=1 n=d5 v=0
1344089 On ch=1 n=f#5 v=0
1344159 On ch=1 n=d6 v=0
1345042 On ch=1 n=d6 v=51
1345042 On ch=1 n=a#4 v=40
1345045 On ch=1 n=g5 v=36
1345045 On ch=1 n=d5 v=36
1345119 On ch=1 n=d5 v=0
1345119 On ch=1 n=g5 v=0
1345119 On ch=1 n=a#4 v=0
1345202 On ch=1 n=d6 v=0
1345369 On ch=1 n=d6 v=54
1345375 On ch=1 n=g5 v=41
1345375 On ch=1 n=d5 v=42
1345375 On ch=1 n=a#4 v=39
1345531 Par ch=1 c=64 v=0
1345850 On ch=1 n=d5 v=0
1345858 Par ch=1 c=64 v=127
1345882 On ch=1 n=g5 v=0
1346382 On ch=1 n=a#4 v=0
1346666 On ch=1 n=d5 v=41
1346689 On ch=1 n=f#5 v=39
1346689 On ch=1 n=a5 v=39
1346810 On ch=1 n=d5 v=0
1346842 On ch=1 n=f#5 v=0
1346871 On ch=1 n=a5 v=0
1347038 On ch=1 n=d5 v=42
1347048 On ch=1 n=a5 v=39
1347048 On ch=1 n=f#5 v=38
1347280 Par ch=1 c=64 v=0
1348115 Par ch=1 c=64 v=127
1348347 On ch=1 n=d5 v=0
1348819 On ch=1 n=f#5 v=0
1348876 On ch=1 n=d6 v=0
1348887 On ch=1 n=a5 v=0
1350023 On ch=1 n=d5 v=41
1350055 On ch=1 n=d6 v=39
1350055 On ch=1 n=g5 v=38
1350055 On ch=1 n=a#4 v=39
1350191 On ch=1 n=d5 v=0
1350195 On ch=1 n=g5 v=0
1350243 On ch=1 n=a#4 v=0
1350259 On ch=1 n=d6 v=0
1350459 On ch=1 n=d5 v=41
1350483 On ch=1 n=d6 v=47
1350487 On ch=1 n=g5 v=39
1350487 On ch=1 n=a#4 v=39
1350823 Par ch=1 c=64 v=0
1352015 Par ch=1 c=64 v=127
1352606 On ch=1 n=d5 v=0
1352786 On ch=1 n=d6 v=0
1352863 On ch=1 n=g5 v=0
1353403 On ch=1 n=a#4 v=0
1354239 On ch=1 n=d6 v=39
1354246 On ch=1 n=a#5 v=38
1354246 On ch=1 n=e5 v=39
1354248 On ch=1 n=f#4 v=39
1354866 Par ch=1 c=64 v=0
1356736 Par ch=1 c=64 v=127
1356952 On ch=1 n=f#4 v=0
1357008 On ch=1 n=d6 v=0
1357011 On ch=1 n=e5 v=0
1357083 On ch=1 n=a#5 v=0
1357976 Par ch=1 c=64 v=0
1357987 On ch=1 n=d#6 v=44
1358012 On ch=1 n=b3 v=36
1358192 Par ch=1 c=64 v=127
1358480 On ch=1 n=d#6 v=0
1358539 On ch=1 n=f#4 v=35
1358767 On ch=1 n=b4 v=36
1358899 On ch=1 n=d#6 v=52
1359048 On ch=1 n=b3 v=0
1359052 On ch=1 n=f#4 v=0
1359052 On ch=1 n=d#5 v=34
1359168 On ch=1 n=d#5 v=0
1359168 On ch=1 n=d#6 v=0
1359215 On ch=1 n=f#5 v=40
1359287 On ch=1 n=b4 v=0
1359396 On ch=1 n=d#6 v=67
1359428 On ch=1 n=f#5 v=0
1359428 On ch=1 n=a#3 v=37
1359428 Par ch=1 c=64 v=0
1359588 On ch=1 n=g4 v=35
1359596 Par ch=1 c=64 v=127
1359603 On ch=1 n=a#3 v=0
1359646 On ch=1 n=d#6 v=0
1359759 On ch=1 n=b4 v=37
1359808 On ch=1 n=g4 v=0
1359883 On ch=1 n=d#6 v=70
1359900 On ch=1 n=b4 v=0
1360059 On ch=1 n=d#5 v=36
1360099 Par ch=1 c=67 v=0
1360208 On ch=1 n=d#5 v=0
1360219 On ch=1 n=d#6 v=0
1360219 On ch=1 n=g5 v=38
1360229 On ch=1 n=g#3 v=39
1360303 Par ch=1 c=64 v=0
1360416 On ch=1 n=d#6 v=60
1360436 On ch=1 n=g5 v=0
1360446 On ch=1 n=g#3 v=0
1360473 Par ch=1 c=64 v=127
1360541 On ch=1 n=g#4 v=39
1360642 On ch=1 n=g#4 v=0
1360742 On ch=1 n=b4 v=39
1360797 On ch=1 n=b4 v=0
1360913 On ch=1 n=c#6 v=69
1361050 On ch=1 n=d#5 v=39
1361126 On ch=1 n=d#6 v=0
1361257 On ch=1 n=b5 v=68
1361322 On ch=1 n=g#5 v=37
1361369 On ch=1 n=g#5 v=0
1361380 On ch=1 n=d#5 v=0
1361386 On ch=1 n=c#6 v=0
1361622 Par ch=1 c=67 v=127
1361813 On ch=1 n=e6 v=63
1361813 On ch=1 n=f#3 v=49
1361837 Par ch=1 c=64 v=0
1361860 On ch=1 n=b5 v=0
1361980 Par ch=1 c=64 v=127
1362080 On ch=1 n=f#3 v=0
1362177 On ch=1 n=a4 v=46
1362253 On ch=1 n=a4 v=0
1362322 On ch=1 n=c5 v=44
1362369 On ch=1 n=c5 v=0
1362450 On ch=1 n=d#5 v=44
1362496 On ch=1 n=d#5 v=0
1362593 On ch=1 n=a5 v=44
1362641 On ch=1 n=a5 v=0
1362820 On ch=1 n=d#6 v=60
1362934 On ch=1 n=e6 v=0
1363082 On ch=1 n=d#6 v=0
1363086 Par ch=1 c=67 v=0
1363361 On ch=1 n=d#6 v=61
1363393 On ch=1 n=e3 v=49
1363441 Par ch=1 c=64 v=0
1363622 On ch=1 n=e3 v=0
1363641 Par ch=1 c=64 v=127
1363740 Par ch=1 c=67 v=127
1363970 On ch=1 n=e4 v=41
1364237 On ch=1 n=g#4 v=48
1364417 On ch=1 n=c5 v=49
1364501 On ch=1 n=d#6 v=0
1364580 On ch=1 n=d#5 v=56
1364740 On ch=1 n=e5 v=53
1364906 On ch=1 n=g#5 v=63
1364914 On ch=1 n=e5 v=0
1364973 Par ch=1 c=67 v=0
1365053 On ch=1 n=c6 v=63
1365214 On ch=1 n=d#6 v=64
1365253 On ch=1 n=c6 v=0
1365286 On ch=1 n=g#5 v=0
1365340 On ch=1 n=d#6 v=0
1365373 On ch=1 n=e6 v=70
1365550 On ch=1 n=e6 v=0
1365550 On ch=1 n=g#6 v=71
1365741 On ch=1 n=c7 v=73
1365753 On ch=1 n=g#6 v=0
1366014 On ch=1 n=d#7 v=72
1366053 On ch=1 n=c7 v=0
1366057 Par ch=1 c=64 v=0
1366062 On ch=1 n=d#5 v=0
1366133 On ch=1 n=e4 v=0
1366153 On ch=1 n=c5 v=0
1366163 On ch=1 n=g#4 v=0
1366190 Par ch=1 c=64 v=127
1366287 On ch=1 n=d#7 v=0
1366287 On ch=1 n=d7 v=76
1366466 On ch=1 n=c#7 v=78
1366510 On ch=1 n=d7 v=0
1366646 On ch=1 n=c#7 v=0
1366646 On ch=1 n=c7 v=71
1366794 On ch=1 n=b6 v=65
1366823 On ch=1 n=c7 v=0
1366946 On ch=1 n=b6 v=0
1366956 On ch=1 n=a#6 v=58
1367051 Par ch=1 c=64 v=0
1367134 On ch=1 n=a#6 v=0
1367144 On ch=1 n=a6 v=49
1367264 Par ch=1 c=64 v=127
1367312 On ch=1 n=g#6 v=49
1367313 On ch=1 n=a6 v=0
1367464 On ch=1 n=g#6 v=0
1367508 On ch=1 n=g6 v=42
1367712 Par ch=1 c=64 v=0
1367731 On ch=1 n=f#6 v=39
1367737 On ch=1 n=g6 v=0
1367860 Par ch=1 c=64 v=127
1367993 On ch=1 n=f6 v=39
1368168 On ch=1 n=f#6 v=0
1368361 On ch=1 n=e6 v=48
1368441 On ch=1 n=e6 v=0
1368441 On ch=1 n=f6 v=0
1368948 On ch=1 n=e6 v=57
1368985 On ch=1 n=c#4 v=39
1368993 Par ch=1 c=64 v=0
1369208 Par ch=1 c=64 v=127
1369381 On ch=1 n=g#4 v=39
1369384 On ch=1 n=e6 v=0
1369533 On ch=1 n=c#5 v=44
1369671 On ch=1 n=e6 v=68
1369761 On ch=1 n=c#5 v=0
1369773 On ch=1 n=c#4 v=0
1369844 On ch=1 n=e5 v=45
1369960 On ch=1 n=e5 v=0
1369964 On ch=1 n=e6 v=0
1369967 On ch=1 n=g#4 v=0
1370008 On ch=1 n=g#5 v=48
1370092 On ch=1 n=b3 v=48
1370148 Par ch=1 c=64 v=0
1370157 On ch=1 n=e6 v=72
1370204 On ch=1 n=g#5 v=0
1370267 On ch=1 n=b3 v=0
1370281 Par ch=1 c=64 v=127
1370324 On ch=1 n=g#4 v=43
1370432 On ch=1 n=e6 v=0
1370464 On ch=1 n=c#5 v=45
1370608 On ch=1 n=e6 v=73
1370624 On ch=1 n=c#5 v=0
1370721 On ch=1 n=g#4 v=0
1370772 On ch=1 n=e5 v=49
1370897 On ch=1 n=e6 v=0
1370931 On ch=1 n=g#5 v=57
1370941 On ch=1 n=e5 v=0
1370945 On ch=1 n=a#3 v=43
1371061 Par ch=1 c=64 v=0
1371097 On ch=1 n=e6 v=79
1371107 On ch=1 n=g#5 v=0
1371191 Par ch=1 c=64 v=127
1371198 On ch=1 n=a#3 v=0
1371225 On ch=1 n=g#4 v=43
1371335 On ch=1 n=g#4 v=0
1371382 On ch=1 n=c#5 v=50
1371434 On ch=1 n=c#5 v=0
1371554 On ch=1 n=d#6 v=78
1371675 On ch=1 n=e6 v=0
1371706 On ch=1 n=e5 v=44
1371882 On ch=1 n=c#6 v=85
1371906 On ch=1 n=e5 v=0
1371918 On ch=1 n=d#6 v=0
1371926 On ch=1 n=g#5 v=46
1371962 On ch=1 n=g#5 v=0
1372211 On ch=1 n=a#3 v=43
1372222 Par ch=1 c=64 v=0
1372299 On ch=1 n=a#6 v=77
1372359 On ch=1 n=c#6 v=0
1372390 On ch=1 n=a#3 v=0
1372390 Par ch=1 c=64 v=127
1372614 On ch=1 n=a#6 v=0
1372685 On ch=1 n=g#4 v=39
1372806 Par ch=1 c=67 v=127
1372878 On ch=1 n=d5 v=36
1372958 On ch=1 n=f5 v=40
1373030 On ch=1 n=f5 v=0
1373082 On ch=1 n=g#4 v=0
1373110 On ch=1 n=d5 v=0
1373125 On ch=1 n=a#5 v=46
1373226 On ch=1 n=a#5 v=0
1373326 On ch=1 n=d6 v=48
1373387 On ch=1 n=d6 v=0
1373670 On ch=1 n=g#6 v=66
1373861 On ch=1 n=g#6 v=0
1374027 On ch=1 n=g#6 v=67
1374058 On ch=1 n=d#3 v=35
1374062 Par ch=1 c=64 v=0
1374246 On ch=1 n=d#3 v=0
1374267 Par ch=1 c=64 v=127
1374542 On ch=1 n=f4 v=49
1374758 On ch=1 n=g#4 v=51
1374930 On ch=1 n=b4 v=50
1375042 On ch=1 n=g#6 v=0
1375091 On ch=1 n=d5 v=51
1375242 On ch=1 n=f5 v=59
1375331 On ch=1 n=f5 v=0
1375402 On ch=1 n=b5 v=60
1375462 Par ch=1 c=67 v=0
1375555 On ch=1 n=d6 v=63
1375582 On ch=1 n=b5 v=0
1375651 On ch=1 n=d6 v=0
1375706 On ch=1 n=f6 v=64
1375871 On ch=1 n=f6 v=0
1375879 On ch=1 n=b6 v=67
1376042 On ch=1 n=d7 v=67
1376091 On ch=1 n=f4 v=0
1376118 On ch=1 n=b6 v=0
1376134 On ch=1 n=d5 v=0
1376144 On ch=1 n=g#4 v=0
1376176 On ch=1 n=b4 v=0
1376267 On ch=1 n=g#7 v=78
1376315 On ch=1 n=d7 v=0
1376651 On ch=1 n=d#5 v=45
1376662 On ch=1 n=f#4 v=42
1376668 On ch=1 n=a#4 v=41
1376747 Par ch=1 c=64 v=0
1376923 Par ch=1 c=67 v=127
1377055 Par ch=1 c=64 v=127
1377184 On ch=1 n=f#7 v=57
1377355 On ch=1 n=g#7 v=0
1377359 On ch=1 n=f7 v=56
1377424 On ch=1 n=f#7 v=0
1377519 On ch=1 n=d#7 v=53
1377635 On ch=1 n=f7 v=0
1377668 On ch=1 n=d7 v=61
1377699 On ch=1 n=d#7 v=0
1377815 On ch=1 n=d7 v=0
1377835 On ch=1 n=c#7 v=59
1377892 On ch=1 n=d#5 v=0
1377939 On ch=1 n=f#4 v=0
1377975 On ch=1 n=c7 v=54
1378003 On ch=1 n=c#7 v=0
1378003 On ch=1 n=a#4 v=0
1378012 Par ch=1 c=64 v=0
1378144 On ch=1 n=b6 v=52
1378151 On ch=1 n=c7 v=0
1378219 Par ch=1 c=64 v=127
1378322 On ch=1 n=a#6 v=50
1378339 On ch=1 n=b6 v=0
1378522 On ch=1 n=a6 v=45
1378571 On ch=1 n=a#6 v=0
1378662 Par ch=1 c=64 v=0
1378795 On ch=1 n=a6 v=0
1378799 On ch=1 n=g#6 v=37
1378819 Par ch=1 c=64 v=127
1379085 On ch=1 n=g6 v=36
1379196 On ch=1 n=g#6 v=0
1379229 On ch=1 n=g6 v=0
1379436 Par ch=1 c=67 v=0
1379465 On ch=1 n=c#4 v=29
1379553 On ch=1 n=g#5 v=28
1379660 Par ch=1 c=64 v=0
1379709 On ch=1 n=c#6 v=39
1379781 Par ch=1 c=64 v=127
1379941 On ch=1 n=c#4 v=0
1379992 On ch=1 n=f#6 v=70
1380272 On ch=1 n=g#5 v=0
1380316 On ch=1 n=c#6 v=0
1380361 Par ch=1 c=67 v=127
1380688 On ch=1 n=g#4 v=32
1380772 On ch=1 n=e6 v=68
1380792 On ch=1 n=f#6 v=0
1380941 On ch=1 n=c#5 v=44
1380980 On ch=1 n=g#4 v=0
1381079 On ch=1 n=d#5 v=35
1381085 On ch=1 n=c#5 v=0
1381205 On ch=1 n=d#5 v=0
1381216 On ch=1 n=f#5 v=40
1381372 On ch=1 n=e5 v=47
1381436 On ch=1 n=f#5 v=0
1381512 On ch=1 n=c#5 v=42
1381660 On ch=1 n=e5 v=0
1381689 On ch=1 n=g#5 v=48
1381693 On ch=1 n=c#5 v=0
1381739 On ch=1 n=e6 v=0
1381989 On ch=1 n=d5 v=36
1382195 On ch=1 n=g5 v=41
1382195 Par ch=1 c=64 v=0
1382205 On ch=1 n=g#5 v=0
1382300 On ch=1 n=g3 v=38
1382401 On ch=1 n=d5 v=0
1382448 On ch=1 n=b5 v=35
1382509 Par ch=1 c=64 v=127
1382521 On ch=1 n=g3 v=0
1382901 On ch=1 n=g5 v=0
1383036 On ch=1 n=g4 v=33
1383220 On ch=1 n=b4 v=35
1383279 On ch=1 n=g4 v=0
1383379 On ch=1 n=d5 v=39
1383408 On ch=1 n=b4 v=0
1383473 On ch=1 n=b5 v=0
1383476 On ch=1 n=d5 v=0
1383636 On ch=1 n=a5 v=34
1383820 On ch=1 n=a5 v=0
1383921 On ch=1 n=g5 v=33
1384088 On ch=1 n=d5 v=36
1384121 On ch=1 n=g5 v=0
1384192 On ch=1 n=c#6 v=49
1384268 On ch=1 n=d5 v=0
1384329 On ch=1 n=b5 v=45
1384365 On ch=1 n=c#6 v=0
1384409 On ch=1 n=b5 v=0
1384412 On ch=1 n=a#5 v=57
1384484 On ch=1 n=a#5 v=0
1384539 On ch=1 n=b5 v=60
1384672 On ch=1 n=c#6 v=62
1384716 Par ch=1 c=67 v=0
1384728 On ch=1 n=b5 v=0
1384900 On ch=1 n=c#6 v=0
1384912 On ch=1 n=d6 v=63
1385092 On ch=1 n=g#5 v=54
1385221 On ch=1 n=d6 v=0
1385225 On ch=1 n=c#6 v=61
1385276 Par ch=1 c=64 v=0
1385281 On ch=1 n=c#4 v=36
1385480 On ch=1 n=f#6 v=68
1385592 Par ch=1 c=64 v=127
1385608 On ch=1 n=c#4 v=0
1385641 Par ch=1 c=67 v=127
1386021 On ch=1 n=g#4 v=36
1386036 On ch=1 n=c#6 v=0
1386036 On ch=1 n=e6 v=59
1386112 On ch=1 n=f#6 v=0
1386189 On ch=1 n=g#5 v=0
1386192 On ch=1 n=c#5 v=46
1386296 On ch=1 n=g#4 v=0
1386373 On ch=1 n=d#5 v=48
1386436 On ch=1 n=c#5 v=0
1386519 On ch=1 n=d#5 v=0
1386521 On ch=1 n=f#5 v=43
1386685 On ch=1 n=e5 v=44
1386760 On ch=1 n=f#5 v=0
1386848 On ch=1 n=c#5 v=44
1386972 On ch=1 n=e5 v=0
1387068 On ch=1 n=g#5 v=52
1387104 On ch=1 n=e6 v=0
1387119 On ch=1 n=c#5 v=0
1387401 On ch=1 n=d5 v=36
1387552 On ch=1 n=g#5 v=0
1387581 On ch=1 n=g5 v=39
1387679 Par ch=1 c=64 v=0
1387728 On ch=1 n=g3 v=33
1387861 On ch=1 n=b5 v=43
1388009 On ch=1 n=g3 v=0
1388025 Par ch=1 c=64 v=127
1388076 On ch=1 n=d5 v=0
1388360 On ch=1 n=g5 v=0
1388432 On ch=1 n=g4 v=34
1388612 On ch=1 n=b4 v=34
1388728 On ch=1 n=g4 v=0
1388765 On ch=1 n=d5 v=41
1388793 On ch=1 n=b4 v=0
1388859 On ch=1 n=d5 v=0
1389041 On ch=1 n=a5 v=32
1389219 On ch=1 n=a5 v=0
1389328 On ch=1 n=g5 v=36
1389501 On ch=1 n=d5 v=39
1389599 On ch=1 n=b5 v=0
1389621 On ch=1 n=c#6 v=49
1389652 On ch=1 n=g5 v=0
1389760 On ch=1 n=b5 v=47
1389816 On ch=1 n=c#6 v=0
1389861 On ch=1 n=b5 v=0
1389876 On ch=1 n=a#5 v=56
1389880 On ch=1 n=d5 v=0
1389989 On ch=1 n=a#5 v=0
1390024 On ch=1 n=b5 v=57
1390192 On ch=1 n=c#6 v=67
1390240 On ch=1 n=b5 v=0
1390312 Par ch=1 c=67 v=0
1390501 On ch=1 n=d6 v=67
1390672 On ch=1 n=c#6 v=0
1390852 Par ch=1 c=64 v=0
1390936 On ch=1 n=d#6 v=60
1390939 On ch=1 n=f#3 v=44
1390956 On ch=1 n=d6 v=0
1391105 Par ch=1 c=64 v=127
1391128 On ch=1 n=f#3 v=0
1391441 On ch=1 n=f#4 v=44
1391456 On ch=1 n=d#6 v=0
1391652 On ch=1 n=a#4 v=51
1391832 On ch=1 n=a#4 v=0
1391832 On ch=1 n=d5 v=45
1391842 On ch=1 n=d#6 v=60
1391842 On ch=1 n=d#7 v=72
1391893 On ch=1 n=f#4 v=0
1391969 On ch=1 n=d5 v=0
1392036 On ch=1 n=f5 v=51
1392129 On ch=1 n=f5 v=0
1392173 On ch=1 n=d#5 v=64
1392198 On ch=1 n=d#5 v=0
1392212 On ch=1 n=d#7 v=0
1392212 On ch=1 n=d#6 v=0
1392370 Par ch=1 c=64 v=0
1392378 On ch=1 n=d#6 v=66
1392378 On ch=1 n=g#3 v=63
1392381 On ch=1 n=d#7 v=71
1392469 On ch=1 n=g#3 v=0
1392510 Par ch=1 c=64 v=127
1392669 On ch=1 n=g#4 v=58
1392689 On ch=1 n=d#6 v=0
1392769 On ch=1 n=d#7 v=0
1392838 On ch=1 n=b4 v=59
1392962 On ch=1 n=g#4 v=0
1392992 On ch=1 n=d#6 v=74
1392992 On ch=1 n=d#7 v=77
1393022 On ch=1 n=b4 v=0
1393022 On ch=1 n=d#5 v=54
1393117 On ch=1 n=d#5 v=0
1393161 On ch=1 n=f#5 v=61
1393237 On ch=1 n=f#5 v=0
1393329 On ch=1 n=f5 v=48
1393346 On ch=1 n=d#6 v=0
1393358 On ch=1 n=f5 v=0
1393358 On ch=1 n=d#7 v=0
1393537 Par ch=1 c=64 v=0
1393553 On ch=1 n=a#3 v=61
1393577 On ch=1 n=d#7 v=75
1393589 On ch=1 n=d#6 v=67
1393697 On ch=1 n=a#3 v=0
1393709 Par ch=1 c=64 v=127
1393926 On ch=1 n=a#4 v=62
1394029 On ch=1 n=d#7 v=0
1394069 On ch=1 n=d#5 v=63
1394076 On ch=1 n=d#6 v=0
1394197 On ch=1 n=c#7 v=82
1394202 On ch=1 n=c#6 v=75
1394256 On ch=1 n=f5 v=60
1394262 On ch=1 n=d#5 v=0
1394346 On ch=1 n=c#7 v=0
1394353 On ch=1 n=c#6 v=0
1394393 On ch=1 n=f5 v=0
1394416 On ch=1 n=g#5 v=61
1394482 On ch=1 n=b6 v=82
1394493 On ch=1 n=b5 v=75
1394526 On ch=1 n=b5 v=0
1394558 On ch=1 n=b6 v=0
1394562 On ch=1 n=g#5 v=0
1394569 On ch=1 n=f#5 v=69
1394585 On ch=1 n=a#4 v=0
1394593 On ch=1 n=f#5 v=0
1394837 On ch=1 n=b3 v=59
1394881 Par ch=1 c=64 v=0
1394932 On ch=1 n=f#7 v=90
1394936 On ch=1 n=f#6 v=79
1395049 On ch=1 n=b3 v=0
1395061 Par ch=1 c=64 v=127
1395289 On ch=1 n=b4 v=52
1395349 On ch=1 n=f#6 v=0
1395426 On ch=1 n=f#7 v=0
1395473 On ch=1 n=d#5 v=56
1395662 On ch=1 n=g5 v=50
1395689 On ch=1 n=f7 v=89
1395693 On ch=1 n=f6 v=76
1395778 On ch=1 n=d#5 v=0
1395862 On ch=1 n=f6 v=0
1395993 On ch=1 n=a#5 v=54
1396018 On ch=1 n=g5 v=0
1396129 On ch=1 n=d#7 v=88
1396129 On ch=1 n=d#6 v=82
1396198 On ch=1 n=f7 v=0
1396225 On ch=1 n=d#6 v=0
1396253 On ch=1 n=a#5 v=0
1396263 On ch=1 n=g#5 v=60
1396279 On ch=1 n=d#7 v=0
1396290 On ch=1 n=g#5 v=0
1396295 On ch=1 n=b4 v=0
1396594 On ch=1 n=g#7 v=98
1396594 On ch=1 n=g#6 v=88
1396606 On ch=1 n=c4 v=64
1396655 Par ch=1 c=64 v=0
1396930 Par ch=1 c=64 v=127
1397026 On ch=1 n=c4 v=0
1397586 On ch=1 n=g#6 v=0
1397673 On ch=1 n=c5 v=46
1397687 On ch=1 n=d#5 v=46
1397687 On ch=1 n=a5 v=44
1397690 On ch=1 n=f#5 v=40
1398374 On ch=1 n=f#7 v=55
1398434 On ch=1 n=g#7 v=0
1398466 On ch=1 n=a5 v=0
1398514 On ch=1 n=f#5 v=0
1398514 On ch=1 n=d#5 v=0
1398543 On ch=1 n=c5 v=0
1398543 On ch=1 n=d#7 v=57
1398575 On ch=1 n=f#7 v=0
1398666 On ch=1 n=c7 v=61
1398727 On ch=1 n=d#7 v=0
1398742 On ch=1 n=c7 v=0
1398762 On ch=1 n=a6 v=60
1398803 On ch=1 n=a6 v=0
1398894 On ch=1 n=f#6 v=58
1398974 On ch=1 n=d#6 v=65
1399006 On ch=1 n=f#6 v=0
1399055 On ch=1 n=c6 v=70
1399082 On ch=1 n=d#6 v=0
1399092 On ch=1 n=c6 v=0
1399152 On ch=1 n=a5 v=40
1399199 On ch=1 n=a5 v=0
1399223 On ch=1 n=f#5 v=70
1399292 On ch=1 n=f#5 v=0
1399307 On ch=1 n=d#5 v=71
1399383 On ch=1 n=d#5 v=0
1399392 On ch=1 n=f#5 v=68
1399423 On ch=1 n=f#5 v=0
1399487 On ch=1 n=a5 v=72
1399547 On ch=1 n=a5 v=0
1399547 Par ch=1 c=64 v=0
1399579 On ch=1 n=c6 v=73
1399651 On ch=1 n=d#6 v=64
1399696 On ch=1 n=c6 v=0
1399704 Par ch=1 c=64 v=127
1399711 On ch=1 n=f#6 v=69
1399739 On ch=1 n=d#6 v=0
1399751 On ch=1 n=f#6 v=0
1399812 On ch=1 n=a6 v=71
1399887 On ch=1 n=a6 v=0
1399907 On ch=1 n=c7 v=79
1400011 On ch=1 n=c7 v=0
1400023 On ch=1 n=d#7 v=68
1400050 On ch=1 n=d#7 v=0
1400112 On ch=1 n=e7 v=75
1400191 On ch=1 n=e7 v=0
1400246 On ch=1 n=f7 v=83
1400367 On ch=1 n=f7 v=0
1400459 On ch=1 n=f#7 v=86
1400563 On ch=1 n=f#7 v=0
1400612 On ch=1 n=f7 v=85
1400711 On ch=1 n=f7 v=0
1400727 On ch=1 n=e7 v=80
1400840 On ch=1 n=e7 v=0
1400840 On ch=1 n=f7 v=85
1400963 On ch=1 n=g#7 v=88
1400979 On ch=1 n=f7 v=0
1400989 Par ch=1 c=64 v=0
1401147 Par ch=1 c=64 v=127
1401293 On ch=1 n=g#7 v=0
1401329 On ch=1 n=f#7 v=64
1401404 On ch=1 n=f#7 v=0
1401887 On ch=1 n=f7 v=64
1402016 On ch=1 n=f7 v=0
1402089 On ch=1 n=c#4 v=40
1402120 Par ch=1 c=64 v=0
1402209 On ch=1 n=f7 v=66
1402220 On ch=1 n=f6 v=52
1402269 On ch=1 n=c#4 v=0
1402284 Par ch=1 c=64 v=127
1402584 On ch=1 n=f6 v=0
1402629 On ch=1 n=c#5 v=42
1402656 On ch=1 n=f7 v=0
1402853 On ch=1 n=f5 v=58
1403017 On ch=1 n=a#6 v=62
1403020 On ch=1 n=a#7 v=78
1403064 On ch=1 n=f5 v=0
1403064 On ch=1 n=a5 v=44
1403196 On ch=1 n=a5 v=0
1403228 On ch=1 n=a#6 v=0
1403240 On ch=1 n=c6 v=59
1403273 On ch=1 n=c#5 v=0
1403364 On ch=1 n=c6 v=0
1403388 On ch=1 n=a#5 v=64
1403424 On ch=1 n=a#5 v=0
1403560 Par ch=1 c=64 v=0
1403580 On ch=1 n=g#7 v=84
1403580 On ch=1 n=d#4 v=68
1403589 On ch=1 n=g#6 v=77
1403687 On ch=1 n=d#4 v=0
1403701 On ch=1 n=a#7 v=0
1403701 Par ch=1 c=64 v=127
1403900 On ch=1 n=g#7 v=0
1403903 On ch=1 n=g#6 v=0
1403927 On ch=1 n=c#5 v=51
1404036 On ch=1 n=f#7 v=82
1404040 On ch=1 n=f#6 v=74
1404176 On ch=1 n=f#5 v=51
1404237 On ch=1 n=f#6 v=0
1404244 On ch=1 n=f#7 v=0
1404343 On ch=1 n=f#5 v=0
1404360 On ch=1 n=f7 v=79
1404369 On ch=1 n=f6 v=71
1404381 On ch=1 n=a5 v=43
1404476 On ch=1 n=f6 v=0
1404520 On ch=1 n=a5 v=0
1404567 On ch=1 n=c6 v=50
1404656 On ch=1 n=d#6 v=78
1404668 On ch=1 n=d#7 v=82
1404700 On ch=1 n=f7 v=0
1404744 On ch=1 n=c6 v=0
1404776 On ch=1 n=a#5 v=55
1404808 On ch=1 n=a#5 v=0
1404820 On ch=1 n=d#6 v=0
1404849 On ch=1 n=c#5 v=0
1404863 On ch=1 n=d#7 v=0
1404949 On ch=1 n=d#6 v=74
1404952 On ch=1 n=d#7 v=80
1405161 On ch=1 n=f4 v=56
1405161 Par ch=1 c=64 v=0
1405340 On ch=1 n=c#5 v=54
1405340 Par ch=1 c=64 v=127
1405360 On ch=1 n=d#6 v=0
1405449 On ch=1 n=f4 v=0
1405464 On ch=1 n=c#5 v=0
1405509 On ch=1 n=c#7 v=78
1405520 On ch=1 n=f5 v=54
1405530 On ch=1 n=c#6 v=61
1405581 On ch=1 n=f5 v=0
1405586 On ch=1 n=c#6 v=0
1405633 On ch=1 n=d#7 v=0
1405674 On ch=1 n=a#5 v=65
1405826 On ch=1 n=a#5 v=0
1405841 On ch=1 n=c#6 v=73
1405957 On ch=1 n=c#6 v=0
1405966 On ch=1 n=c#7 v=0
1406001 On ch=1 n=f6 v=69
1406157 On ch=1 n=f6 v=0
1406161 On ch=1 n=c#6 v=66
1406285 On ch=1 n=c#6 v=0
1406317 On ch=1 n=a#5 v=57
1406457 On ch=1 n=a#5 v=0
1406498 On ch=1 n=f5 v=50
1406597 On ch=1 n=f5 v=0
1406650 On ch=1 n=c#8 v=81
1406650 On ch=1 n=c#7 v=72
1406933 On ch=1 n=a#6 v=60
1407025 On ch=1 n=a#6 v=0
1407137 On ch=1 n=c#6 v=48
1407174 On ch=1 n=c#8 v=0
1407189 On ch=1 n=c#7 v=0
1407237 On ch=1 n=c#6 v=0
1407321 On ch=1 n=f5 v=46
1407377 On ch=1 n=c#8 v=79
1407381 On ch=1 n=c#7 v=72
1407391 On ch=1 n=f5 v=0
1407581 On ch=1 n=a6 v=63
1407681 On ch=1 n=a6 v=0
1407742 On ch=1 n=c#7 v=0
1407763 On ch=1 n=c#8 v=0
1407786 On ch=1 n=c6 v=56
1407970 On ch=1 n=f5 v=51
1407994 On ch=1 n=c#7 v=71
1407994 On ch=1 n=c#8 v=81
1408021 On ch=1 n=c6 v=0
1408054 On ch=1 n=f5 v=0
1408218 On ch=1 n=g#6 v=66
1408398 On ch=1 n=c#8 v=0
1408426 On ch=1 n=c#7 v=0
1408426 On ch=1 n=b5 v=50
1408487 On ch=1 n=g#6 v=0
1408518 On ch=1 n=b5 v=0
1408738 On ch=1 n=f#5 v=43
1408761 On ch=1 n=c#8 v=62
1408761 On ch=1 n=c#7 v=44
1408814 Par ch=1 c=64 v=0
1408974 Par ch=1 c=67 v=127
1408991 Par ch=1 c=64 v=127
1409081 On ch=1 n=f#5 v=0
1409091 On ch=1 n=g6 v=36
1409091 On ch=1 n=e6 v=35
1409382 On ch=1 n=a#5 v=41
1409422 On ch=1 n=c#7 v=0
1409434 On ch=1 n=e6 v=0
1409434 On ch=1 n=g6 v=0
1409461 On ch=1 n=c#8 v=0
1409618 On ch=1 n=a#5 v=0
1409690 On ch=1 n=f#5 v=34
1409834 On ch=1 n=f#5 v=0
1409891 On ch=1 n=d8 v=55
1409903 On ch=1 n=d7 v=40
1410361 On ch=1 n=f#6 v=36
1410361 On ch=1 n=e6 v=36
1410794 On ch=1 n=e6 v=0
1410794 On ch=1 n=f#6 v=0
1411122 On ch=1 n=a#5 v=24
1411422 On ch=1 n=a#5 v=0
1411474 On ch=1 n=d7 v=0
1411607 On ch=1 n=d8 v=0
1411743 Par ch=1 c=64 v=0
1411874 On ch=1 n=b4 v=34
1412058 On ch=1 n=b4 v=0
1412098 Par ch=1 c=64 v=127
1412210 On ch=1 n=f#5 v=25
1412590 On ch=1 n=d#6 v=69
1412823 On ch=1 n=d#8 v=49
1413002 On ch=1 n=d#8 v=0
1413003 On ch=1 n=f#7 v=48
1413018 On ch=1 n=d#6 v=0
1413034 On ch=1 n=f#7 v=0
1413138 On ch=1 n=b6 v=41
1413174 On ch=1 n=b6 v=0
1413254 On ch=1 n=d#6 v=59
1413258 On ch=1 n=d#7 v=59
1413302 On ch=1 n=d#6 v=0
1413362 On ch=1 n=d#7 v=0
1413366 On ch=1 n=f#5 v=0
1413414 On ch=1 n=f#6 v=38
1413458 On ch=1 n=f#6 v=0
1413538 On ch=1 n=b5 v=58
1413571 On ch=1 n=b5 v=0
1413634 On ch=1 n=a#4 v=32
1413678 On ch=1 n=a#4 v=0
1413721 On ch=1 n=g5 v=50
1413743 Par ch=1 c=64 v=0
1413827 On ch=1 n=d#6 v=71
1413894 Par ch=1 c=64 v=127
1413957 On ch=1 n=d#8 v=66
1414090 On ch=1 n=g7 v=56
1414094 On ch=1 n=d#8 v=0
1414118 On ch=1 n=g7 v=0
1414122 On ch=1 n=d#6 v=0
1414214 On ch=1 n=b6 v=51
1414234 On ch=1 n=b6 v=0
1414347 On ch=1 n=d#7 v=52
1414370 On ch=1 n=d#6 v=65
1414402 On ch=1 n=d#6 v=0
1414431 On ch=1 n=g5 v=0
1414443 On ch=1 n=d#7 v=0
1414474 On ch=1 n=g6 v=45
1414522 On ch=1 n=g6 v=0
1414610 On ch=1 n=b5 v=51
1414654 On ch=1 n=b5 v=0
1414683 On ch=1 n=g#4 v=27
1414746 On ch=1 n=g#4 v=0
1414754 On ch=1 n=d#5 v=44
1414854 On ch=1 n=g#5 v=48
1414887 Par ch=1 c=64 v=0
1414970 On ch=1 n=d#6 v=62
1415062 Par ch=1 c=64 v=127
1415103 On ch=1 n=d#8 v=69
1415178 On ch=1 n=d#6 v=0
1415222 On ch=1 n=d#8 v=0
1415223 On ch=1 n=g#7 v=59
1415263 On ch=1 n=g#7 v=0
1415371 On ch=1 n=b6 v=48
1415398 On ch=1 n=b6 v=0
1415514 On ch=1 n=c#6 v=65
1415522 On ch=1 n=d#7 v=41
1415541 On ch=1 n=d#5 v=0
1415581 On ch=1 n=g#5 v=0
1415610 On ch=1 n=c#6 v=0
1415614 On ch=1 n=d#7 v=0
1415671 On ch=1 n=g#6 v=37
1415702 On ch=1 n=g#6 v=0
1415840 On ch=1 n=b5 v=65
1415900 On ch=1 n=b5 v=0
1416039 On ch=1 n=f#5 v=40
1416111 On ch=1 n=a5 v=34
1416144 On ch=1 n=c6 v=43
1416255 Par ch=1 c=64 v=0
1416280 On ch=1 n=e6 v=66
1416384 On ch=1 n=e8 v=64
1416420 Par ch=1 c=64 v=127
1416507 On ch=1 n=e8 v=0
1416511 On ch=1 n=a7 v=57
1416555 On ch=1 n=a7 v=0
1416639 On ch=1 n=e6 v=0
1416640 On ch=1 n=c7 v=42
1416679 On ch=1 n=c7 v=0
1416720 On ch=1 n=c6 v=0
1416771 On ch=1 n=a5 v=0
1416771 On ch=1 n=e7 v=57
1416815 On ch=1 n=f#5 v=0
1416863 On ch=1 n=e7 v=0
1416891 On ch=1 n=a6 v=46
1416924 On ch=1 n=a6 v=0
1417051 On ch=1 n=c6 v=41
1417080 On ch=1 n=c6 v=0
1417188 On ch=1 n=d#6 v=65
1417358 On ch=1 n=d#6 v=0
1417419 On ch=1 n=e5 v=34
1417459 On ch=1 n=g#5 v=38
1417727 On ch=1 n=d#6 v=69
1417955 Par ch=1 c=64 v=0
1417998 On ch=1 n=d#8 v=58
1418135 On ch=1 n=g#7 v=45
1418158 On ch=1 n=d#8 v=0
1418208 On ch=1 n=g#7 v=0
1418224 Par ch=1 c=64 v=127
1418260 On ch=1 n=c7 v=59
1418287 On ch=1 n=d#6 v=0
1418338 On ch=1 n=c7 v=0
1418380 On ch=1 n=d#7 v=57
1418384 On ch=1 n=e5 v=0
1418411 On ch=1 n=g#5 v=0
1418478 On ch=1 n=d#7 v=0
1418492 On ch=1 n=g#6 v=54
1418551 On ch=1 n=g#6 v=0
1418623 On ch=1 n=c6 v=46
1418680 On ch=1 n=c6 v=0
1418715 On ch=1 n=c#6 v=60
1418795 On ch=1 n=c#6 v=0
1418835 On ch=1 n=d6 v=57
1418891 On ch=1 n=d6 v=0
1418960 On ch=1 n=d#6 v=59
1418960 On ch=1 n=c6 v=55
1419019 On ch=1 n=c6 v=0
1419019 On ch=1 n=d#6 v=0
1419123 On ch=1 n=e6 v=60
1419123 On ch=1 n=c#6 v=65
1419198 On ch=1 n=c#6 v=0
1419198 On ch=1 n=e6 v=0
1419208 Par ch=1 c=64 v=0
1419224 On ch=1 n=d6 v=60
1419224 On ch=1 n=f6 v=66
1419284 On ch=1 n=f6 v=0
1419284 On ch=1 n=d6 v=0
1419315 On ch=1 n=f#6 v=63
1419315 On ch=1 n=d#6 v=58
1419352 Par ch=1 c=64 v=127
1419357 On ch=1 n=d#6 v=0
1419357 On ch=1 n=f#6 v=0
1419371 On ch=1 n=g6 v=69
1419371 On ch=1 n=e6 v=68
1419428 On ch=1 n=g6 v=0
1419436 On ch=1 n=e6 v=0
1419472 On ch=1 n=f6 v=55
1419472 On ch=1 n=g#6 v=68
1419528 On ch=1 n=g#6 v=0
1419528 On ch=1 n=f6 v=0
1419576 On ch=1 n=f#6 v=63
1419576 On ch=1 n=a6 v=70
1419664 On ch=1 n=g6 v=62
1419664 On ch=1 n=a#6 v=71
1419675 On ch=1 n=a6 v=0
1419675 On ch=1 n=f#6 v=0
1419755 On ch=1 n=g6 v=0
1419761 On ch=1 n=a#6 v=0
1419776 On ch=1 n=b6 v=72
1419776 On ch=1 n=g#6 v=61
1419868 On ch=1 n=g#6 v=0
1419868 On ch=1 n=b6 v=0
1419868 On ch=1 n=c7 v=79
1419868 On ch=1 n=a6 v=64
1419945 On ch=1 n=a6 v=0
1419945 On ch=1 n=c7 v=0
1419960 On ch=1 n=c#7 v=80
1419960 On ch=1 n=a#6 v=71
1420035 On ch=1 n=b6 v=59
1420035 On ch=1 n=d7 v=72
1420061 On ch=1 n=c#7 v=0
1420064 On ch=1 n=a#6 v=0
1420112 On ch=1 n=d7 v=0
1420112 On ch=1 n=b6 v=0
1420140 On ch=1 n=c7 v=74
1420140 On ch=1 n=d#7 v=75
1420237 On ch=1 n=d#7 v=0
1420237 On ch=1 n=c7 v=0
1420241 On ch=1 n=c#7 v=74
1420241 On ch=1 n=e7 v=70
1420335 On ch=1 n=c#7 v=0
1420341 On ch=1 n=e7 v=0
1420372 On ch=1 n=d7 v=67
1420372 On ch=1 n=f7 v=73
1420465 On ch=1 n=f7 v=0
1420465 On ch=1 n=d7 v=0
1420468 On ch=1 n=f#7 v=75
1420468 On ch=1 n=d#7 v=65
1420555 On ch=1 n=d#7 v=0
1420555 On ch=1 n=f#7 v=0
1420565 On ch=1 n=e7 v=74
1420569 On ch=1 n=g7 v=73
1420649 On ch=1 n=f7 v=74
1420649 On ch=1 n=g#7 v=66
1420664 On ch=1 n=g7 v=0
1420664 On ch=1 n=e7 v=0
1420737 On ch=1 n=g#7 v=0
1420737 On ch=1 n=f7 v=0
1420777 On ch=1 n=f#7 v=77
1420777 On ch=1 n=a7 v=71
1420865 On ch=1 n=g7 v=74
1420865 On ch=1 n=a#7 v=71
1420872 On ch=1 n=f#7 v=0
1420877 On ch=1 n=a7 v=0
1420957 On ch=1 n=a#7 v=0
1420957 On ch=1 n=g7 v=0
1420992 On ch=1 n=g#7 v=77
1420992 On ch=1 n=b7 v=69
1421089 On ch=1 n=b7 v=0
1421089 On ch=1 n=g#7 v=0
1421124 On ch=1 n=f7 v=72
1421124 On ch=1 n=c8 v=69
1421220 On ch=1 n=c8 v=0
1421220 On ch=1 n=f7 v=0
1421308 On ch=1 n=g#7 v=73
1421308 On ch=1 n=c#8 v=73
1421401 On ch=1 n=c#8 v=0
1421401 On ch=1 n=g#7 v=0
1421736 On ch=1 n=c#5 v=43
1421848 Par ch=1 c=64 v=0
1421896 On ch=1 n=c#5 v=0
1421955 On ch=1 n=g#5 v=39
1421989 Par ch=1 c=64 v=127
1422244 On ch=1 n=e6 v=71
1422524 On ch=1 n=e6 v=0
1422556 On ch=1 n=e8 v=59
1422657 On ch=1 n=e8 v=0
1422672 On ch=1 n=g#7 v=53
1422717 On ch=1 n=g#7 v=0
1422777 On ch=1 n=c#7 v=64
1422812 On ch=1 n=c#7 v=0
1422912 On ch=1 n=e6 v=69
1422932 On ch=1 n=e7 v=53
1422972 On ch=1 n=e7 v=0
1422981 On ch=1 n=e6 v=0
1423048 On ch=1 n=g#6 v=52
1423092 On ch=1 n=g#6 v=0
1423164 On ch=1 n=g#5 v=0
1423164 On ch=1 n=c#6 v=54
1423181 On ch=1 n=c#6 v=0
1423208 On ch=1 n=b4 v=46
1423257 On ch=1 n=b4 v=0
1423301 On ch=1 n=g#5 v=59
1423435 On ch=1 n=e6 v=82
1423556 On ch=1 n=e8 v=67
1423648 On ch=1 n=e8 v=0
1423692 On ch=1 n=g#7 v=55
1423728 On ch=1 n=g#7 v=0
1423731 On ch=1 n=e6 v=0
1423792 On ch=1 n=c#7 v=59
1423811 On ch=1 n=c#7 v=0
1423915 On ch=1 n=e6 v=79
1423944 On ch=1 n=e7 v=48
1423976 On ch=1 n=e7 v=0
1423984 On ch=1 n=e6 v=0
1424037 On ch=1 n=g#6 v=56
1424080 On ch=1 n=g#6 v=0
1424148 On ch=1 n=c#6 v=65
1424188 On ch=1 n=c#6 v=0
1424192 On ch=1 n=a#4 v=63
1424209 On ch=1 n=g#5 v=0
1424269 On ch=1 n=a#4 v=0
1424272 On ch=1 n=g#5 v=45
1424404 On ch=1 n=e6 v=91
1424452 Par ch=1 c=64 v=0
1424529 On ch=1 n=e8 v=70
1424532 Par ch=1 c=64 v=127
1424572 On ch=1 n=g#5 v=0
1424624 On ch=1 n=e8 v=0
1424656 On ch=1 n=g#7 v=64
1424697 On ch=1 n=g#7 v=0
1424776 On ch=1 n=c#7 v=57
1424804 On ch=1 n=c#7 v=0
1424877 On ch=1 n=e6 v=0
1424896 On ch=1 n=d#6 v=88
1424937 On ch=1 n=e7 v=36
1424985 On ch=1 n=e7 v=0
1425057 On ch=1 n=g#6 v=39
1425061 On ch=1 n=d#6 v=0
1425108 On ch=1 n=g#6 v=0
1425208 On ch=1 n=c#6 v=88
1425297 On ch=1 n=c#6 v=0
1425372 On ch=1 n=g#5 v=42
1425436 On ch=1 n=d6 v=37
1425492 On ch=1 n=f6 v=53
1425652 Par ch=1 c=64 v=0
1425668 On ch=1 n=a#6 v=79
1425804 On ch=1 n=f8 v=66
1425821 Par ch=1 c=64 v=127
1425912 On ch=1 n=f8 v=0
1425921 On ch=1 n=a#7 v=59
1425956 On ch=1 n=a#6 v=0
1425971 On ch=1 n=a#7 v=0
1426032 On ch=1 n=f6 v=0
1426044 On ch=1 n=d7 v=50
1426076 On ch=1 n=d7 v=0
1426180 On ch=1 n=f7 v=57
1426248 On ch=1 n=f7 v=0
1426281 On ch=1 n=d6 v=0
1426292 On ch=1 n=a#6 v=47
1426340 On ch=1 n=a#6 v=0
1426455 On ch=1 n=d6 v=42
1426488 On ch=1 n=d6 v=0
1426601 On ch=1 n=g#6 v=69
1426632 On ch=1 n=g#5 v=0
1426652 On ch=1 n=g#6 v=0
1426888 On ch=1 n=d#5 v=56
1427085 On ch=1 n=d#5 v=0
1427148 On ch=1 n=a#5 v=43
1427248 On ch=1 n=d#6 v=45
1427441 On ch=1 n=g#6 v=68
1427732 On ch=1 n=f#8 v=57
1427768 On ch=1 n=g#6 v=0
1427845 On ch=1 n=f#8 v=0
1427861 On ch=1 n=a#7 v=48
1427917 On ch=1 n=a#7 v=0
1427981 On ch=1 n=d#7 v=51
1428012 On ch=1 n=d#7 v=0
1428101 On ch=1 n=f#6 v=53
1428195 On ch=1 n=f#7 v=57
1428220 On ch=1 n=f#6 v=0
1428245 On ch=1 n=d#6 v=0
1428277 On ch=1 n=a#5 v=0
1428300 On ch=1 n=f#7 v=0
1428332 On ch=1 n=a#6 v=42
1428365 On ch=1 n=a#6 v=0
1428468 On ch=1 n=d6 v=62
1428516 On ch=1 n=d6 v=0
1428560 On ch=1 n=d#6 v=69
1428621 On ch=1 n=d#6 v=0
1428672 On ch=1 n=e6 v=59
1428729 On ch=1 n=e6 v=0
1428795 On ch=1 n=f6 v=58
1428795 On ch=1 n=d6 v=51
1428868 On ch=1 n=f6 v=0
1428872 On ch=1 n=d6 v=0
1428881 On ch=1 n=d#6 v=57
1428884 Par ch=1 c=64 v=0
1428884 On ch=1 n=f#6 v=59
1428928 On ch=1 n=f#6 v=0
1428956 On ch=1 n=d#6 v=0
1428988 On ch=1 n=g6 v=66
1428988 On ch=1 n=e6 v=69
1429048 Par ch=1 c=64 v=127
1429065 On ch=1 n=e6 v=0
1429065 On ch=1 n=g6 v=0
1429077 On ch=1 n=f6 v=69
1429077 On ch=1 n=g#6 v=66
1429124 On ch=1 n=f6 v=0
1429131 On ch=1 n=g#6 v=0
1429192 On ch=1 n=f#6 v=61
1429192 On ch=1 n=a6 v=67
1429268 On ch=1 n=a6 v=0
1429268 On ch=1 n=f#6 v=0
1429296 On ch=1 n=g6 v=61
1429301 On ch=1 n=a#6 v=67
1429348 On ch=1 n=a#6 v=0
1429372 On ch=1 n=g6 v=0
1429395 On ch=1 n=g#6 v=61
1429397 On ch=1 n=b6 v=72
1429469 On ch=1 n=b6 v=0
1429469 On ch=1 n=g#6 v=0
1429500 On ch=1 n=c7 v=79
1429500 On ch=1 n=a6 v=65
1429575 On ch=1 n=a6 v=0
1429575 On ch=1 n=c7 v=0
1429604 On ch=1 n=a#6 v=63
1429604 On ch=1 n=c#7 v=78
1429677 On ch=1 n=c#7 v=0
1429677 On ch=1 n=a#6 v=0
1429677 On ch=1 n=b6 v=69
1429681 On ch=1 n=d7 v=76
1429769 On ch=1 n=d7 v=0
1429769 On ch=1 n=b6 v=0
1429772 On ch=1 n=c7 v=69
1429772 On ch=1 n=d#7 v=78
1429864 On ch=1 n=d#7 v=0
1429864 On ch=1 n=c7 v=0
1429875 On ch=1 n=c#7 v=69
1429875 On ch=1 n=e7 v=74
1429976 On ch=1 n=e7 v=0
1429976 On ch=1 n=c#7 v=0
1429977 On ch=1 n=d7 v=69
1429977 On ch=1 n=f7 v=77
1429992 Par ch=1 c=64 v=0
1430052 On ch=1 n=f#7 v=78
1430052 On ch=1 n=d#7 v=64
1430071 On ch=1 n=d7 v=0
1430075 On ch=1 n=f7 v=0
1430124 Par ch=1 c=64 v=127
1430152 On ch=1 n=d#7 v=0
1430152 On ch=1 n=f#7 v=0
1430171 On ch=1 n=g7 v=77
1430171 On ch=1 n=e7 v=70
1430248 On ch=1 n=e7 v=0
1430248 On ch=1 n=g7 v=0
1430280 On ch=1 n=f7 v=69
1430280 On ch=1 n=g#7 v=71
1430385 On ch=1 n=g#7 v=0
1430385 On ch=1 n=f7 v=0
1430396 On ch=1 n=f#7 v=77
1430397 On ch=1 n=a7 v=75
1430475 On ch=1 n=g7 v=64
1430475 On ch=1 n=a#7 v=71
1430504 On ch=1 n=a7 v=0
1430504 On ch=1 n=f#7 v=0
1430548 On ch=1 n=a#7 v=0
1430548 On ch=1 n=g7 v=0
1430577 On ch=1 n=g#7 v=69
1430577 On ch=1 n=b7 v=71
1430652 On ch=1 n=b7 v=0
1430652 On ch=1 n=g#7 v=0
1430681 On ch=1 n=a7 v=69
1430681 On ch=1 n=c8 v=73
1430756 On ch=1 n=c8 v=0
1430756 On ch=1 n=a7 v=0
1430801 On ch=1 n=a#7 v=63
1430801 On ch=1 n=c#8 v=76
1430876 On ch=1 n=c#8 v=0
1430876 On ch=1 n=a#7 v=0
1430921 On ch=1 n=d8 v=72
1430921 On ch=1 n=f#7 v=69
1431015 On ch=1 n=d8 v=0
1431021 On ch=1 n=f#7 v=0
1431057 On ch=1 n=d#8 v=73
1431061 On ch=1 n=a#7 v=63
1431129 On ch=1 n=d#8 v=0
1431132 On ch=1 n=a#7 v=0
1431335 On ch=1 n=c#6 v=60
1431341 On ch=1 n=e8 v=72
1431352 Par ch=1 c=64 v=0
1431416 On ch=1 n=c#6 v=0
1431500 On ch=1 n=e8 v=0
1431508 Par ch=1 c=64 v=127
1431537 On ch=1 n=g7 v=46
1431612 On ch=1 n=e7 v=51
1431620 On ch=1 n=g7 v=0
1431644 On ch=1 n=g#7 v=66
1431675 On ch=1 n=e7 v=0
1431736 On ch=1 n=g#7 v=0
1431764 On ch=1 n=c8 v=61
1431837 On ch=1 n=c8 v=0
1431837 On ch=1 n=g#6 v=77
1431837 On ch=1 n=d#8 v=74
1431937 On ch=1 n=g#6 v=0
1431964 On ch=1 n=c#8 v=67
1432037 On ch=1 n=d#8 v=0
1432052 On ch=1 n=c7 v=78
1432060 On ch=1 n=g#7 v=68
1432072 On ch=1 n=c#8 v=0
1432096 On ch=1 n=g#7 v=0
1432100 On ch=1 n=c7 v=0
1432155 On ch=1 n=e7 v=60
1432191 On ch=1 n=e7 v=0
1432252 On ch=1 n=d#7 v=70
1432261 On ch=1 n=f7 v=62
1432335 On ch=1 n=f7 v=0
1432352 On ch=1 n=f#7 v=66
1432392 On ch=1 n=f#7 v=0
1432392 On ch=1 n=d#7 v=0
1432444 On ch=1 n=c#7 v=77
1432444 On ch=1 n=g7 v=63
1432525 On ch=1 n=g#7 v=60
1432525 On ch=1 n=g#6 v=78
1432532 On ch=1 n=g7 v=0
1432532 On ch=1 n=c#7 v=0
1432555 On ch=1 n=g#7 v=0
1432605 On ch=1 n=e6 v=77
1432608 On ch=1 n=a7 v=65
1432617 On ch=1 n=g#6 v=0
1432628 Par ch=1 c=64 v=0
1432652 On ch=1 n=e6 v=0
1432695 On ch=1 n=g#7 v=61
1432724 On ch=1 n=a7 v=0
1432756 On ch=1 n=e7 v=60
1432775 On ch=1 n=g#7 v=0
1432844 On ch=1 n=e7 v=0
1432844 On ch=1 n=c#7 v=66
1432888 On ch=1 n=c#7 v=0
1432928 On ch=1 n=g5 v=71
1432931 On ch=1 n=b7 v=72
1432948 Par ch=1 c=64 v=127
1432976 On ch=1 n=g5 v=0
1432992 On ch=1 n=b7 v=0
1433012 On ch=1 n=c#7 v=63
1433112 On ch=1 n=c#7 v=0
1433155 On ch=1 n=b6 v=78
1433155 On ch=1 n=d7 v=65
1433236 On ch=1 n=f#7 v=59
1433241 On ch=1 n=b6 v=0
1433244 On ch=1 n=d7 v=0
1433281 On ch=1 n=f#7 v=0
1433324 On ch=1 n=d6 v=78
1433324 On ch=1 n=a7 v=70
1433355 On ch=1 n=d6 v=0
1433396 On ch=1 n=g7 v=67
1433484 On ch=1 n=d7 v=76
1433494 On ch=1 n=a7 v=0
1433494 On ch=1 n=f#6 v=80
1433498 On ch=1 n=g7 v=0
1433526 On ch=1 n=d7 v=0
1433541 On ch=1 n=f#6 v=0
1433551 On ch=1 n=b6 v=65
1433630 On ch=1 n=b6 v=0
1433649 On ch=1 n=a6 v=78
1433659 On ch=1 n=c7 v=65
1433695 On ch=1 n=b6 v=23
1433706 On ch=1 n=c#7 v=70
1433722 On ch=1 n=c7 v=0
1433749 On ch=1 n=b6 v=0
1433755 On ch=1 n=c#7 v=0
1433778 On ch=1 n=a6 v=0
1433809 On ch=1 n=g6 v=75
1433815 On ch=1 n=d7 v=68
1433870 On ch=1 n=d#7 v=66
1433875 On ch=1 n=d7 v=0
1433895 On ch=1 n=d6 v=77
1433942 On ch=1 n=d#7 v=0
1433946 On ch=1 n=e7 v=68
1433955 On ch=1 n=g6 v=0
1433958 On ch=1 n=b5 v=75
1433968 On ch=1 n=d6 v=0
1434023 On ch=1 n=b5 v=0
1434039 On ch=1 n=d7 v=71
1434072 Par ch=1 c=64 v=0
1434087 On ch=1 n=b6 v=67
1434099 On ch=1 n=e7 v=0
1434120 On ch=1 n=d7 v=0
1434152 On ch=1 n=b6 v=0
1434179 On ch=1 n=g6 v=66
1434211 On ch=1 n=g6 v=0
1434251 On ch=1 n=c#5 v=77
1434251 On ch=1 n=e7 v=67
1434279 On ch=1 n=c#5 v=0
1434319 Par ch=1 c=64 v=127
1434348 On ch=1 n=e7 v=0
1434348 On ch=1 n=g6 v=61
1434416 On ch=1 n=g6 v=0
1434428 On ch=1 n=g#6 v=67
1434443 On ch=1 n=e6 v=77
1434503 On ch=1 n=e6 v=0
1434503 On ch=1 n=g#6 v=0
1434519 On ch=1 n=c7 v=65
1434567 On ch=1 n=d#7 v=74
1434575 On ch=1 n=c7 v=0
1434585 On ch=1 n=g#5 v=78
1434623 On ch=1 n=c#7 v=68
1434676 On ch=1 n=g#5 v=0
1434717 On ch=1 n=g#6 v=75
1434725 On ch=1 n=c6 v=78
1434728 On ch=1 n=d#7 v=0
1434732 On ch=1 n=c#7 v=0
1434772 Par ch=1 c=64 v=0
1434776 On ch=1 n=g#6 v=0
1434783 On ch=1 n=c6 v=0
1434785 On ch=1 n=e6 v=72
1434844 On ch=1 n=e6 v=0
1434884 On ch=1 n=d#6 v=88
1434885 On ch=1 n=f6 v=68
1434945 On ch=1 n=f6 v=0
1434945 On ch=1 n=f#6 v=68
1434976 On ch=1 n=f#6 v=0
1435036 On ch=1 n=g6 v=66
1435039 On ch=1 n=c#6 v=79
1435053 On ch=1 n=d#6 v=0
1435096 On ch=1 n=g6 v=0
1435108 On ch=1 n=g#6 v=61
1435108 On ch=1 n=g#5 v=80
1435143 On ch=1 n=g#6 v=0
1435157 On ch=1 n=c#6 v=0
1435176 On ch=1 n=a6 v=65
1435186 On ch=1 n=e5 v=80
1435230 On ch=1 n=g#5 v=0
1435253 On ch=1 n=e5 v=0
1435270 On ch=1 n=g#6 v=60
1435273 On ch=1 n=a6 v=0
1435302 On ch=1 n=e6 v=66
1435313 On ch=1 n=g#6 v=0
1435381 On ch=1 n=e6 v=0
1435393 On ch=1 n=c#6 v=72
1435440 On ch=1 n=c#6 v=0
1435465 On ch=1 n=g4 v=84
1435473 On ch=1 n=b6 v=68
1435501 On ch=1 n=g4 v=0
1435517 Par ch=1 c=64 v=127
1435542 On ch=1 n=b6 v=0
1435556 On ch=1 n=c#6 v=71
1435629 On ch=1 n=c#6 v=0
1435650 On ch=1 n=b5 v=83
1435661 On ch=1 n=d6 v=65
1435677 Par ch=1 c=67 v=0
1435714 On ch=1 n=f#6 v=61
1435737 On ch=1 n=d6 v=0
1435737 On ch=1 n=b5 v=0
1435782 On ch=1 n=f#6 v=0
1435786 On ch=1 n=d5 v=80
1435786 On ch=1 n=a6 v=70
1435837 On ch=1 n=g6 v=69
1435856 On ch=1 n=d5 v=0
1435901 Par ch=1 c=64 v=0
1435913 On ch=1 n=a6 v=0
1435929 On ch=1 n=d6 v=75
1435940 On ch=1 n=g6 v=0
1435945 On ch=1 n=f#5 v=88
1435960 On ch=1 n=d6 v=0
1435981 On ch=1 n=f#5 v=0
1436002 On ch=1 n=b5 v=68
1436053 On ch=1 n=b5 v=0
1436097 On ch=1 n=a5 v=92
1436105 On ch=1 n=c6 v=67
1436133 On ch=1 n=c6 v=0
1436149 On ch=1 n=c#6 v=68
1436182 On ch=1 n=c#6 v=0
1436233 On ch=1 n=d6 v=67
1436242 On ch=1 n=a5 v=0
1436257 On ch=1 n=g5 v=81
1436302 On ch=1 n=d#6 v=64
1436306 On ch=1 n=d6 v=0
1436333 On ch=1 n=d5 v=77
1436362 On ch=1 n=d#6 v=0
1436381 On ch=1 n=e6 v=69
1436396 On ch=1 n=b4 v=86
1436400 On ch=1 n=g5 v=0
1436425 On ch=1 n=d5 v=0
1436462 On ch=1 n=b4 v=0
1436469 On ch=1 n=d6 v=70
1436522 On ch=1 n=e6 v=0
1436526 On ch=1 n=b5 v=71
1436530 On ch=1 n=d6 v=0
1436582 On ch=1 n=b5 v=0
1436585 On ch=1 n=g5 v=69
1436633 On ch=1 n=g5 v=0
1436669 On ch=1 n=d4 v=82
1436690 On ch=1 n=f#6 v=69
1436706 On ch=1 n=d4 v=0
1436721 Par ch=1 c=64 v=127
1436777 On ch=1 n=f#6 v=0
1436797 On ch=1 n=g#5 v=63
1436841 On ch=1 n=g#5 v=0
1436857 On ch=1 n=f#5 v=78
1436881 On ch=1 n=a5 v=57
1436889 Par ch=1 c=64 v=0
1436940 On ch=1 n=f#5 v=0
1436940 On ch=1 n=c#6 v=60
1436969 On ch=1 n=a5 v=0
1436969 On ch=1 n=a4 v=85
1437013 On ch=1 n=e6 v=76
1437017 On ch=1 n=c#6 v=0
1437042 On ch=1 n=a4 v=0
1437057 On ch=1 n=d6 v=64
1437133 On ch=1 n=a5 v=76
1437150 On ch=1 n=e6 v=0
1437150 On ch=1 n=c#5 v=88
1437154 On ch=1 n=d6 v=0
1437177 On ch=1 n=a5 v=0
1437193 On ch=1 n=c#5 v=0
1437230 On ch=1 n=f5 v=67
1437270 On ch=1 n=f5 v=0
1437300 On ch=1 n=e5 v=85
1437317 On ch=1 n=f#5 v=58
1437374 On ch=1 n=f#5 v=0
1437393 On ch=1 n=g5 v=60
1437437 On ch=1 n=e5 v=0
1437449 On ch=1 n=d5 v=79
1437470 On ch=1 n=g#5 v=57
1437473 On ch=1 n=g5 v=0
1437522 On ch=1 n=a5 v=68
1437537 On ch=1 n=a4 v=79
1437586 On ch=1 n=d5 v=0
1437593 On ch=1 n=g#5 v=0
1437597 On ch=1 n=f#4 v=83
1437607 On ch=1 n=a5 v=0
1437611 On ch=1 n=b5 v=75
1437626 On ch=1 n=a4 v=0
1437654 On ch=1 n=f#4 v=0
1437687 On ch=1 n=a5 v=61
1437723 On ch=1 n=b5 v=0
1437766 On ch=1 n=f#5 v=70
1437770 On ch=1 n=a5 v=0
1437819 On ch=1 n=d5 v=65
1437834 On ch=1 n=f#5 v=0
1437866 On ch=1 n=d5 v=0
1437876 On ch=1 n=g#3 v=88
1437876 On ch=1 n=c6 v=77
1437923 On ch=1 n=g#3 v=0
1437967 On ch=1 n=c6 v=0
1437977 On ch=1 n=d5 v=73
1438040 On ch=1 n=d#5 v=65
1438044 On ch=1 n=c5 v=79
1438051 On ch=1 n=d5 v=0
1438087 On ch=1 n=c5 v=0
1438108 On ch=1 n=g5 v=66
1438128 On ch=1 n=d#5 v=0
1438184 On ch=1 n=d#4 v=85
1438188 On ch=1 n=a#5 v=75
1438191 On ch=1 n=g5 v=0
1438231 On ch=1 n=g#5 v=67
1438260 On ch=1 n=d#4 v=0
1438292 On ch=1 n=a#5 v=0
1438321 On ch=1 n=d#5 v=71
1438321 On ch=1 n=g4 v=90
1438333 On ch=1 n=g#5 v=0
1438368 On ch=1 n=d#5 v=0
1438380 On ch=1 n=g4 v=0
1438384 On ch=1 n=c5 v=67
1438424 On ch=1 n=c5 v=0
1438472 On ch=1 n=a#4 v=99
1438480 On ch=1 n=c#5 v=65
1438531 On ch=1 n=c#5 v=0
1438548 On ch=1 n=d5 v=71
1438628 On ch=1 n=d5 v=0
1438633 On ch=1 n=d#5 v=56
1438637 On ch=1 n=g#4 v=85
1438644 On ch=1 n=a#4 v=0
1438704 On ch=1 n=e5 v=63
1438708 On ch=1 n=d#4 v=80
1438740 On ch=1 n=d#5 v=0
1438772 On ch=1 n=g#4 v=0
1438784 On ch=1 n=f5 v=72
1438788 On ch=1 n=e5 v=0
1438793 On ch=1 n=c4 v=84
1438856 On ch=1 n=d#4 v=0
1438871 On ch=1 n=d#5 v=74
1438873 On ch=1 n=f5 v=0
1438901 On ch=1 n=c4 v=0
1438933 On ch=1 n=c5 v=66
1438944 On ch=1 n=d#5 v=0
1439000 On ch=1 n=g#4 v=75
1439061 On ch=1 n=g#4 v=0
1439072 On ch=1 n=f3 v=99
1439076 On ch=1 n=g#5 v=80
1439132 On ch=1 n=f3 v=0
1439140 On ch=1 n=c5 v=0
1439191 On ch=1 n=b4 v=69
1439201 On ch=1 n=g#5 v=0
1439257 On ch=1 n=g#4 v=86
1439271 On ch=1 n=b4 v=0
1439273 On ch=1 n=c5 v=55
1439313 On ch=1 n=e5 v=63
1439328 On ch=1 n=g#4 v=0
1439352 On ch=1 n=c5 v=0
1439388 On ch=1 n=c4 v=87
1439393 On ch=1 n=g5 v=70
1439401 On ch=1 n=e5 v=0
1439424 On ch=1 n=f5 v=70
1439496 On ch=1 n=g5 v=0
1439496 On ch=1 n=c4 v=0
1439500 On ch=1 n=c5 v=70
1439511 On ch=1 n=f5 v=0
1439532 On ch=1 n=e4 v=91
1439568 On ch=1 n=g#4 v=76
1439584 On ch=1 n=c5 v=0
1439621 On ch=1 n=e4 v=0
1439628 On ch=1 n=g#4 v=0
1439688 On ch=1 n=g4 v=96
1439713 On ch=1 n=a4 v=54
1439772 On ch=1 n=a#4 v=57
1439812 On ch=1 n=b4 v=57
1439816 On ch=1 n=a4 v=0
1439828 On ch=1 n=f4 v=75
1439838 On ch=1 n=g4 v=0
1439854 On ch=1 n=a#4 v=0
1439881 On ch=1 n=c5 v=58
1439910 On ch=1 n=c4 v=77
1439925 On ch=1 n=c5 v=0
1439925 On ch=1 n=b4 v=0
1439957 On ch=1 n=c#5 v=64
1439973 On ch=1 n=f4 v=0
1439973 On ch=1 n=g#3 v=77
1440008 On ch=1 n=c5 v=66
1440037 On ch=1 n=c4 v=0
1440065 On ch=1 n=g#3 v=0
1440088 On ch=1 n=c#5 v=0
1440088 On ch=1 n=g#4 v=72
1440149 On ch=1 n=c5 v=0
1440164 On ch=1 n=f4 v=76
1440197 On ch=1 n=g#4 v=0
1440228 On ch=1 n=f4 v=0
1440245 On ch=1 n=d5 v=77
1440341 On ch=1 n=f4 v=64
1440345 On ch=1 n=d5 v=0
1440388 On ch=1 n=b3 v=93
1440398 On ch=1 n=g#4 v=72
1440414 On ch=1 n=f4 v=0
1440424 On ch=1 n=b3 v=0
1440456 On ch=1 n=a#4 v=59
1440504 On ch=1 n=g#4 v=0
1440528 On ch=1 n=a#4 v=0
1440528 On ch=1 n=c#5 v=67
1440536 On ch=1 n=g#3 v=94
1440599 On ch=1 n=g#3 v=0
1440609 On ch=1 n=b4 v=68
1440656 On ch=1 n=c#5 v=0
1440656 On ch=1 n=g#4 v=65
1440676 On ch=1 n=f#3 v=93
1440725 On ch=1 n=d4 v=70
1440739 On ch=1 n=f#3 v=0
1440760 On ch=1 n=b4 v=0
1440772 On ch=1 n=d4 v=0
1440832 On ch=1 n=g#4 v=0
1440832 On ch=1 n=d5 v=71
1440836 On ch=1 n=f3 v=99
1440925 On ch=1 n=d5 v=0
1440932 On ch=1 n=g4 v=72
1440996 On ch=1 n=f3 v=0
1441012 On ch=1 n=g4 v=0
1441022 On ch=1 n=g#4 v=64
1441037 On ch=1 n=a#4 v=60
1441113 On ch=1 n=a#4 v=0
1441113 On ch=1 n=g#4 v=0
1441142 On ch=1 n=c#5 v=71
1441157 On ch=1 n=e3 v=99
1441197 On ch=1 n=b4 v=68
1441232 On ch=1 n=e3 v=0
1441261 On ch=1 n=c#5 v=0
1441261 On ch=1 n=g#4 v=70
1441297 On ch=1 n=b4 v=0
1441353 On ch=1 n=g#4 v=0
1441358 On ch=1 n=d4 v=60
1441413 On ch=1 n=d4 v=0
1441449 On ch=1 n=g4 v=70
1441453 On ch=1 n=d#5 v=79
1441453 On ch=1 n=d#4 v=92
1441463 On ch=1 n=a#3 v=91
1441463 On ch=1 n=d#3 v=92
1441475 On ch=1 n=g4 v=0
1441522 On ch=1 n=d#5 v=0
1441530 Par ch=1 c=64 v=127
1441539 On ch=1 n=a#3 v=0
1441553 On ch=1 n=d#3 v=0
1441570 On ch=1 n=d#4 v=0
1441815 Par ch=1 c=64 v=0
1441826 On ch=1 n=a#5 v=73
1441826 On ch=1 n=d#6 v=68
1441830 On ch=1 n=c#5 v=59
1441830 On ch=1 n=g5 v=65
1441839 Par ch=1 c=67 v=127
1441854 On ch=1 n=a#5 v=0
1441858 On ch=1 n=g5 v=0
1441862 On ch=1 n=c#5 v=0
1441879 On ch=1 n=d#6 v=0
1441906 On ch=1 n=d#5 v=57
1441983 On ch=1 n=d#5 v=0
1442014 On ch=1 n=c#5 v=54
1442050 On ch=1 n=c#5 v=0
1442095 On ch=1 n=b4 v=61
1442110 On ch=1 n=b5 v=72
1442110 On ch=1 n=g#5 v=78
1442115 On ch=1 n=d#6 v=72
1442130 On ch=1 n=b5 v=0
1442139 On ch=1 n=g#5 v=0
1442147 On ch=1 n=b4 v=0
1442163 On ch=1 n=d#6 v=0
1442194 On ch=1 n=c#5 v=63
1442258 On ch=1 n=c#5 v=0
1442290 On ch=1 n=b4 v=56
1442370 On ch=1 n=b4 v=0
1442393 On ch=1 n=a#4 v=60
1442403 On ch=1 n=g5 v=76
1442410 On ch=1 n=c#6 v=68
1442410 On ch=1 n=d#6 v=71
1442426 On ch=1 n=a#4 v=0
1442433 On ch=1 n=g5 v=0
1442442 On ch=1 n=c#6 v=0
1442446 On ch=1 n=d#6 v=0
1442453 On ch=1 n=b4 v=51
1442514 On ch=1 n=b4 v=0
1442554 On ch=1 n=a#4 v=57
1442626 On ch=1 n=a#4 v=0
1442673 On ch=1 n=g#4 v=58
1442710 On ch=1 n=d#6 v=86
1442715 On ch=1 n=b5 v=78
1442719 On ch=1 n=g#4 v=0
1442719 On ch=1 n=g#5 v=77
1442763 On ch=1 n=a#4 v=56
1442826 On ch=1 n=a#4 v=0
1442826 On ch=1 n=g#5 v=0
1442870 On ch=1 n=g#4 v=52
1442922 On ch=1 n=b5 v=0
1442974 On ch=1 n=g#4 v=0
1443002 On ch=1 n=f#4 v=55
1443019 On ch=1 n=c#6 v=71
1443019 On ch=1 n=d#5 v=63
1443023 On ch=1 n=a5 v=63
1443063 On ch=1 n=f#4 v=0
1443063 On ch=1 n=d#6 v=0
1443070 On ch=1 n=d#5 v=0
1443090 On ch=1 n=a5 v=0
1443106 On ch=1 n=g#4 v=55
1443150 On ch=1 n=c#6 v=0
1443166 On ch=1 n=g#4 v=0
1443166 On ch=1 n=b5 v=72
1443194 On ch=1 n=f#4 v=53
1443255 On ch=1 n=b5 v=0
1443258 On ch=1 n=f#4 v=0
1443315 On ch=1 n=e4 v=57
1443315 On ch=1 n=e5 v=73
1443330 On ch=1 n=g#5 v=72
1443330 On ch=1 n=e6 v=80
1443382 On ch=1 n=e4 v=0
1443415 On ch=1 n=e6 v=0
1443426 On ch=1 n=f#4 v=58
1443433 On ch=1 n=g#5 v=0
1443447 On ch=1 n=e5 v=0
1443490 On ch=1 n=f#4 v=0
1443535 On ch=1 n=e4 v=59
1443595 On ch=1 n=e4 v=0
1443614 On ch=1 n=d4 v=65
1443659 On ch=1 n=d4 v=0
1443706 On ch=1 n=e4 v=59
1443755 On ch=1 n=e4 v=0
1443763 On ch=1 n=b4 v=76
1443763 On ch=1 n=g#4 v=78
1443766 On ch=1 n=e5 v=76
1443810 On ch=1 n=d4 v=64
1443839 On ch=1 n=e5 v=0
1443839 On ch=1 n=g#4 v=0
1443850 On ch=1 n=b4 v=0
1443866 On ch=1 n=d4 v=0
1443910 On ch=1 n=c4 v=72
1443913 On ch=1 n=c5 v=87
1443913 On ch=1 n=a4 v=90
1443923 On ch=1 n=e5 v=85
1443959 On ch=1 n=a4 v=0
1443978 On ch=1 n=c5 v=0
1443978 On ch=1 n=c4 v=0
1443993 On ch=1 n=e5 v=0
1444003 On ch=1 n=d4 v=64
1444079 On ch=1 n=d4 v=0
1444104 On ch=1 n=c4 v=63
1444180 On ch=1 n=c4 v=0
1444220 On ch=1 n=b3 v=66
1444227 On ch=1 n=g#5 v=74
1444227 On ch=1 n=d6 v=65
1444236 On ch=1 n=e6 v=74
1444259 On ch=1 n=d6 v=0
1444269 On ch=1 n=g#5 v=0
1444269 On ch=1 n=b3 v=0
1444288 On ch=1 n=e6 v=0
1444317 On ch=1 n=c4 v=59
1444373 On ch=1 n=c4 v=0
1444404 On ch=1 n=b3 v=58
1444473 On ch=1 n=b3 v=0
1444524 On ch=1 n=c6 v=69
1444524 On ch=1 n=a5 v=69
1444524 On ch=1 n=e6 v=65
1444533 On ch=1 n=a3 v=65
1444537 On ch=1 n=c6 v=0
1444548 On ch=1 n=a5 v=0
1444556 On ch=1 n=e6 v=0
1444564 On ch=1 n=a3 v=0
1444629 On ch=1 n=b3 v=52
1444680 On ch=1 n=b3 v=0
1444704 On ch=1 n=a3 v=35
1444767 On ch=1 n=a3 v=0
1444767 Par ch=1 c=67 v=0
1444807 On ch=1 n=e5 v=69
1444809 On ch=1 n=e6 v=70
1444809 On ch=1 n=g3 v=66
1444809 On ch=1 n=b5 v=67
1444827 On ch=1 n=e5 v=0
1444841 On ch=1 n=b5 v=0
1444841 On ch=1 n=e6 v=0
1444848 On ch=1 n=g3 v=0
1444913 On ch=1 n=a3 v=59
1444968 On ch=1 n=a3 v=0
1445012 On ch=1 n=g3 v=55
1445088 On ch=1 n=g3 v=0
1445109 On ch=1 n=e6 v=84
1445109 On ch=1 n=e5 v=79
1445113 On ch=1 n=a5 v=76
1445124 On ch=1 n=f3 v=58
1445169 On ch=1 n=f3 v=0
1445217 On ch=1 n=g3 v=56
1445276 On ch=1 n=g3 v=0
1445308 On ch=1 n=e6 v=0
1445309 On ch=1 n=f3 v=55
1445337 On ch=1 n=e5 v=0
1445349 On ch=1 n=a5 v=0
1445380 On ch=1 n=f3 v=0
1445424 On ch=1 n=e3 v=62
1445427 On ch=1 n=a5 v=68
1445444 On ch=1 n=d6 v=77
1445444 On ch=1 n=f5 v=66
1445467 On ch=1 n=e3 v=0
1445532 On ch=1 n=f3 v=59
1445540 On ch=1 n=a5 v=0
1445543 On ch=1 n=f5 v=0
1445547 On ch=1 n=d6 v=0
1445589 On ch=1 n=f3 v=0
1445593 On ch=1 n=c6 v=77
1445607 On ch=1 n=e3 v=54
1445676 On ch=1 n=c6 v=0
1445693 On ch=1 n=e3 v=0
1445740 On ch=1 n=a5 v=84
1445740 On ch=1 n=f6 v=85
1445744 On ch=1 n=d3 v=64
1445749 Par ch=1 c=64 v=127
1445749 On ch=1 n=f5 v=78
1445784 On ch=1 n=d3 v=0
1445843 On ch=1 n=f6 v=0
1445843 On ch=1 n=e3 v=62
1445853 On ch=1 n=a5 v=0
1445873 On ch=1 n=f5 v=0
1445901 On ch=1 n=e3 v=0
1445926 On ch=1 n=d3 v=57
1445990 On ch=1 n=d3 v=0
1446021 On ch=1 n=c3 v=71
1446064 On ch=1 n=c3 v=0
1446074 Par ch=1 c=64 v=0
1446109 On ch=1 n=d3 v=68
1446166 On ch=1 n=c3 v=73
1446169 On ch=1 n=d#5 v=77
1446169 On ch=1 n=f5 v=67
1446180 On ch=1 n=d3 v=0
1446180 On ch=1 n=a4 v=65
1446213 On ch=1 n=a4 v=0
1446238 On ch=1 n=f5 v=0
1446238 On ch=1 n=c3 v=0
1446250 On ch=1 n=d#5 v=0
1446298 On ch=1 n=a#2 v=82
1446298 On ch=1 n=f5 v=74
1446301 On ch=1 n=d5 v=79
1446301 On ch=1 n=a#4 v=85
1446346 On ch=1 n=a#4 v=0
1446346 On ch=1 n=a#2 v=0
1446361 On ch=1 n=d5 v=0
1446381 On ch=1 n=f5 v=0
1446634 On ch=1 n=d#6 v=65
1446634 On ch=1 n=a#5 v=63
1446641 On ch=1 n=g#4 v=49
1446645 On ch=1 n=f5 v=51
1446677 On ch=1 n=g#4 v=0
1446717 On ch=1 n=f5 v=0
1446734 On ch=1 n=a#4 v=59
1446738 On ch=1 n=a#5 v=0
1446741 On ch=1 n=d#6 v=0
1446777 On ch=1 n=d6 v=68
1446793 On ch=1 n=a#4 v=0
1446803 On ch=1 n=g#4 v=55
1446830 On ch=1 n=d6 v=0
1446881 On ch=1 n=g#4 v=0
1446910 On ch=1 n=f#4 v=58
1446910 Par ch=1 c=64 v=127
1446920 On ch=1 n=a#6 v=89
1446920 On ch=1 n=a#5 v=86
1446967 On ch=1 n=f#4 v=0
1447008 On ch=1 n=g#4 v=58
1447019 On ch=1 n=a#6 v=0
1447051 On ch=1 n=a#5 v=0
1447075 On ch=1 n=g#4 v=0
1447119 On ch=1 n=f#4 v=48
1447187 On ch=1 n=f4 v=69
1447191 On ch=1 n=f#4 v=0
1447231 Par ch=1 c=64 v=0
1447247 On ch=1 n=f4 v=0
1447279 On ch=1 n=f#4 v=73
1447332 On ch=1 n=f#4 v=0
1447351 On ch=1 n=a#4 v=76
1447355 On ch=1 n=g#5 v=78
1447358 On ch=1 n=d5 v=73
1447380 On ch=1 n=f4 v=67
1447428 On ch=1 n=a#4 v=0
1447432 On ch=1 n=d5 v=0
1447439 On ch=1 n=g#5 v=0
1447448 On ch=1 n=f4 v=0
1447488 On ch=1 n=d#4 v=70
1447500 On ch=1 n=a#4 v=79
1447500 On ch=1 n=f#5 v=82
1447504 On ch=1 n=d#5 v=81
1447547 On ch=1 n=a#4 v=0
1447558 On ch=1 n=d#4 v=0
1447560 On ch=1 n=d#5 v=0
1447578 On ch=1 n=f#5 v=0
1447578 On ch=1 n=f4 v=67
1447651 On ch=1 n=f4 v=0
1447680 On ch=1 n=d#4 v=66
1447787 On ch=1 n=d#4 v=0
1447799 On ch=1 n=c#4 v=63
1447800 On ch=1 n=a#5 v=72
1447811 On ch=1 n=e6 v=68
1447819 On ch=1 n=g#6 v=63
1447875 On ch=1 n=c#4 v=0
1447891 On ch=1 n=a#5 v=0
1447907 On ch=1 n=e6 v=0
1447918 On ch=1 n=g#6 v=0
1447920 On ch=1 n=d#4 v=52
1447951 On ch=1 n=f#6 v=76
1447979 On ch=1 n=d#4 v=0
1447983 On ch=1 n=c#4 v=60
1448007 On ch=1 n=f#6 v=0
1448087 On ch=1 n=c#4 v=0
1448097 On ch=1 n=b3 v=60
1448112 On ch=1 n=d#7 v=98
1448112 On ch=1 n=d#6 v=98
1448157 On ch=1 n=b3 v=0
1448192 On ch=1 n=c#4 v=61
1448204 On ch=1 n=d#7 v=0
1448228 On ch=1 n=d#6 v=0
1448277 On ch=1 n=c#4 v=0
1448277 On ch=1 n=b3 v=60
1448292 Par ch=1 c=64 v=127
1448376 On ch=1 n=b3 v=0
1448388 On ch=1 n=a#3 v=67
1448435 On ch=1 n=a#3 v=0
1448445 On ch=1 n=b3 v=62
1448533 On ch=1 n=b3 v=0
1448541 Par ch=1 c=64 v=0
1448548 On ch=1 n=a#3 v=65
1448558 On ch=1 n=c#6 v=75
1448562 On ch=1 n=g5 v=71
1448565 On ch=1 n=d#5 v=69
1448614 On ch=1 n=a#3 v=0
1448629 On ch=1 n=d#5 v=0
1448629 On ch=1 n=g5 v=0
1448629 On ch=1 n=c#6 v=0
1448666 On ch=1 n=g#3 v=65
1448674 On ch=1 n=d#5 v=83
1448674 On ch=1 n=g#5 v=86
1448677 On ch=1 n=b5 v=89
1448725 On ch=1 n=d#5 v=0
1448732 On ch=1 n=g#5 v=0
1448738 On ch=1 n=g#3 v=0
1448745 On ch=1 n=a#3 v=73
1448761 On ch=1 n=b5 v=0
1448829 On ch=1 n=a#3 v=0
1448848 On ch=1 n=g#3 v=59
1448942 On ch=1 n=g#3 v=0
1448961 On ch=1 n=f#3 v=62
1448982 On ch=1 n=c7 v=87
1448982 On ch=1 n=d#6 v=86
1448986 On ch=1 n=c6 v=81
1449042 On ch=1 n=d#6 v=0
1449042 On ch=1 n=c7 v=0
1449045 On ch=1 n=c6 v=0
1449061 On ch=1 n=f#3 v=0
1449065 On ch=1 n=g#3 v=68
1449185 On ch=1 n=f#3 v=65
1449192 On ch=1 n=g#3 v=0
1449265 On ch=1 n=e6 v=84
1449265 On ch=1 n=c#6 v=89
1449265 On ch=1 n=c#7 v=88
1449285 On ch=1 n=f#3 v=0
1449285 On ch=1 n=e3 v=73
1449294 On ch=1 n=e6 v=0
1449322 On ch=1 n=c#6 v=0
1449341 On ch=1 n=c#7 v=0
1449369 On ch=1 n=g#3 v=65
1449409 On ch=1 n=e3 v=0
1449474 On ch=1 n=g#3 v=0
1449474 On ch=1 n=c#4 v=67
1449513 On ch=1 n=c#4 v=0
1449534 On ch=1 n=e4 v=63
1449565 On ch=1 n=e7 v=88
1449565 On ch=1 n=g#6 v=88
1449569 On ch=1 n=e6 v=86
1449581 On ch=1 n=e4 v=0
1449581 Par ch=1 c=64 v=127
1449645 On ch=1 n=g#4 v=73
1449649 On ch=1 n=e6 v=0
1449661 On ch=1 n=e7 v=0
1449733 On ch=1 n=g#4 v=0
1449733 On ch=1 n=c#5 v=78
1449769 On ch=1 n=g#6 v=0
1449794 On ch=1 n=c#5 v=0
1449837 On ch=1 n=b6 v=64
1449837 On ch=1 n=c#7 v=98
1449841 On ch=1 n=c#6 v=105
1449848 On ch=1 n=g4 v=98
1449926 On ch=1 n=g4 v=0
1450061 On ch=1 n=b5 v=66
1450089 On ch=1 n=b5 v=0
1450181 On ch=1 n=a#6 v=83
1450185 On ch=1 n=f#4 v=88
1450209 On ch=1 n=f#4 v=0
1450226 On ch=1 n=b6 v=0
1450306 Par ch=1 c=64 v=0
1450328 On ch=1 n=a#6 v=0
1450345 On ch=1 n=a#5 v=84
1450453 On ch=1 n=a#5 v=0
1450494 On ch=1 n=a6 v=71
1450505 On ch=1 n=f4 v=87
1450558 On ch=1 n=f4 v=0
1450669 On ch=1 n=a5 v=80
1450689 On ch=1 n=c#7 v=0
1450705 On ch=1 n=a5 v=0
1450705 On ch=1 n=c#6 v=0
1450729 On ch=1 n=a6 v=0
1450781 On ch=1 n=e4 v=77
1450785 On ch=1 n=d6 v=86
1450792 On ch=1 n=e5 v=86
1450794 On ch=1 n=g#6 v=82
1450801 On ch=1 n=d7 v=83
1450845 On ch=1 n=e4 v=0
1450869 On ch=1 n=e5 v=0
1450869 On ch=1 n=d6 v=0
1450873 On ch=1 n=g#6 v=0
1450885 On ch=1 n=d7 v=0
1450914 On ch=1 n=g#5 v=77
1450945 On ch=1 n=g#5 v=0
1451018 On ch=1 n=d#4 v=78
1451042 On ch=1 n=a#4 v=65
1451065 On ch=1 n=g5 v=65
1451089 On ch=1 n=d#4 v=0
1451089 Par ch=1 c=64 v=127
1451105 On ch=1 n=g6 v=73
1451105 On ch=1 n=d#6 v=87
1451109 On ch=1 n=d#7 v=88
1451181 On ch=1 n=a#4 v=0
1451185 On ch=1 n=d#7 v=0
1451185 On ch=1 n=g6 v=0
1451189 On ch=1 n=d#6 v=0
1451205 On ch=1 n=g5 v=0
1451409 On ch=1 n=d#5 v=74
1451412 On ch=1 n=a#5 v=78
1451418 On ch=1 n=c#5 v=95
1451418 On ch=1 n=c#4 v=95
1451422 On ch=1 n=g5 v=71
1451422 On ch=1 n=d#6 v=79
1451448 On ch=1 n=c#5 v=0
1451485 On ch=1 n=d#5 v=0
1451492 On ch=1 n=a#5 v=0
1451494 On ch=1 n=d#6 v=0
1451494 On ch=1 n=g5 v=0
1451498 On ch=1 n=c#4 v=0
1451558 On ch=1 n=d#4 v=71
1451558 On ch=1 n=d#5 v=67
1451592 On ch=1 n=d#5 v=0
1451592 Par ch=1 c=64 v=0
1451602 On ch=1 n=d#4 v=0
1451702 On ch=1 n=g#5 v=82
1451709 On ch=1 n=d#5 v=75
1451709 On ch=1 n=d#6 v=82
1451709 On ch=1 n=b5 v=67
1451709 On ch=1 n=b4 v=78
1451711 On ch=1 n=b3 v=78
1451735 On ch=1 n=b5 v=0
1451739 On ch=1 n=b4 v=0
1451746 On ch=1 n=b3 v=0
1451782 On ch=1 n=g#5 v=0
1451789 On ch=1 n=d#6 v=0
1451791 On ch=1 n=d#5 v=0
1451866 On ch=1 n=c#4 v=77
1451871 On ch=1 n=c#5 v=78
1451906 On ch=1 n=c#5 v=0
1451906 On ch=1 n=c#4 v=0
1452002 On ch=1 n=d#5 v=83
1452002 On ch=1 n=c#6 v=78
1452009 On ch=1 n=d#6 v=77
1452009 On ch=1 n=g5 v=74
1452009 On ch=1 n=a#4 v=87
1452011 On ch=1 n=a#3 v=79
1452038 On ch=1 n=a#3 v=0
1452049 On ch=1 n=a#4 v=0
1452070 On ch=1 n=d#5 v=0
1452082 On ch=1 n=c#6 v=0
1452098 On ch=1 n=g5 v=0
1452109 On ch=1 n=d#6 v=0
1452142 On ch=1 n=b4 v=88
1452146 On ch=1 n=b3 v=85
1452190 On ch=1 n=b4 v=0
1452202 On ch=1 n=b3 v=0
1452309 On ch=1 n=g#5 v=77
1452309 On ch=1 n=g#4 v=93
1452309 On ch=1 n=g#3 v=90
1452309 On ch=1 n=d#5 v=83
1452311 On ch=1 n=d#6 v=77
1452311 On ch=1 n=b5 v=68
1452338 Par ch=1 c=64 v=127
1452345 On ch=1 n=d#6 v=0
1452351 On ch=1 n=b5 v=0
1452351 On ch=1 n=g#4 v=0
1452351 On ch=1 n=g#5 v=0
1452375 On ch=1 n=d#5 v=0
1452383 On ch=1 n=g#3 v=0
1452610 On ch=1 n=f#3 v=76
1452610 On ch=1 n=f#2 v=72
1452615 On ch=1 n=a4 v=69
1452615 On ch=1 n=d#4 v=68
1452615 On ch=1 n=c#5 v=66
1452651 On ch=1 n=c#5 v=0
1452651 On ch=1 n=f#2 v=0
1452658 On ch=1 n=f#3 v=0
1452690 Par ch=1 c=64 v=0
1452698 On ch=1 n=a4 v=0
1452702 On ch=1 n=d#4 v=0
1452770 On ch=1 n=g#3 v=77
1452770 On ch=1 n=g#2 v=73
1452770 On ch=1 n=b4 v=69
1452798 On ch=1 n=g#2 v=0
1452802 On ch=1 n=b4 v=0
1452802 On ch=1 n=g#3 v=0
1452909 On ch=1 n=e5 v=89
1452923 On ch=1 n=g#4 v=90
1452923 On ch=1 n=e4 v=81
1452923 On ch=1 n=e3 v=80
1452923 On ch=1 n=e2 v=85
1452942 On ch=1 n=e4 v=0
1452951 On ch=1 n=e3 v=0
1452954 On ch=1 n=e2 v=0
1452966 On ch=1 n=g#4 v=0
1452966 On ch=1 n=e5 v=0
1453070 On ch=1 n=f#3 v=83
1453071 On ch=1 n=f#2 v=75
1453106 On ch=1 n=f#3 v=0
1453110 On ch=1 n=f#2 v=0
1453210 On ch=1 n=d2 v=87
1453215 On ch=1 n=b5 v=96
1453215 On ch=1 n=d3 v=82
1453215 On ch=1 n=e6 v=92
1453215 On ch=1 n=e5 v=89
1453218 On ch=1 n=g#5 v=84
1453249 On ch=1 n=d3 v=0
1453251 On ch=1 n=e5 v=0
1453251 On ch=1 n=b5 v=0
1453262 On ch=1 n=e6 v=0
1453266 On ch=1 n=g#5 v=0
1453266 On ch=1 n=d2 v=0
1453355 On ch=1 n=e3 v=88
1453355 On ch=1 n=e2 v=85
1453385 On ch=1 n=e3 v=0
1453402 On ch=1 n=e2 v=0
1453502 On ch=1 n=c2 v=98
1453502 On ch=1 n=c7 v=87
1453502 On ch=1 n=a6 v=95
1453506 On ch=1 n=e7 v=95
1453506 On ch=1 n=e6 v=100
1453506 On ch=1 n=c3 v=91
1453506 Par ch=1 c=64 v=127
1453531 On ch=1 n=c3 v=0
1453535 On ch=1 n=a6 v=0
1453535 On ch=1 n=c7 v=0
1453539 On ch=1 n=e6 v=0
1453550 On ch=1 n=e7 v=0
1453550 On ch=1 n=c2 v=0
1453802 On ch=1 n=b3 v=72
1453810 On ch=1 n=b4 v=69
1453830 On ch=1 n=e6 v=74
1453830 On ch=1 n=g#5 v=72
1453830 On ch=1 n=d6 v=71
1453830 On ch=1 n=e5 v=70
1453851 On ch=1 n=b4 v=0
1453855 On ch=1 n=b3 v=0
1453882 On ch=1 n=e5 v=0
1453891 On ch=1 n=d6 v=0
1453895 On ch=1 n=g#5 v=0
1453903 On ch=1 n=e6 v=0
1453915 Par ch=1 c=64 v=0
1453966 On ch=1 n=c5 v=77
1453966 On ch=1 n=c4 v=75
1454002 On ch=1 n=c5 v=0
1454009 On ch=1 n=c4 v=0
1454119 On ch=1 n=a5 v=90
1454122 On ch=1 n=e5 v=87
1454122 On ch=1 n=a3 v=80
1454122 On ch=1 n=a4 v=80
1454122 On ch=1 n=c6 v=81
1454126 On ch=1 n=e6 v=80
1454150 On ch=1 n=a3 v=0
1454166 On ch=1 n=a4 v=0
1454182 On ch=1 n=c6 v=0
1454182 On ch=1 n=e5 v=0
1454182 On ch=1 n=a5 v=0
1454190 On ch=1 n=e6 v=0
1454271 On ch=1 n=b4 v=82
1454271 On ch=1 n=b3 v=76
1454286 On ch=1 n=b4 v=0
1454302 On ch=1 n=b3 v=0
1454411 On ch=1 n=b5 v=93
1454411 On ch=1 n=e6 v=92
1454414 On ch=1 n=e5 v=89
1454418 On ch=1 n=g4 v=82
1454422 On ch=1 n=g3 v=82
1454446 On ch=1 n=g3 v=0
1454451 On ch=1 n=g4 v=0
1454475 On ch=1 n=e5 v=0
1454475 On ch=1 n=b5 v=0
1454490 On ch=1 n=e6 v=0
1454546 On ch=1 n=a4 v=84
1454546 On ch=1 n=a3 v=82
1454574 On ch=1 n=a4 v=0
1454589 On ch=1 n=a3 v=0
1454686 On ch=1 n=e5 v=97
1454686 On ch=1 n=e6 v=100
1454698 On ch=1 n=a5 v=90
1454698 On ch=1 n=f4 v=89
1454698 On ch=1 n=f3 v=88
1454715 Par ch=1 c=64 v=127
1454738 On ch=1 n=f3 v=0
1454738 On ch=1 n=e6 v=0
1454746 On ch=1 n=f4 v=0
1454758 On ch=1 n=a5 v=0
1454762 On ch=1 n=e5 v=0
1455010 On ch=1 n=e3 v=72
1455011 On ch=1 n=e2 v=78
1455022 On ch=1 n=d5 v=77
1455022 On ch=1 n=a4 v=80
1455022 On ch=1 n=f4 v=67
1455043 On ch=1 n=e2 v=0
1455051 On ch=1 n=e3 v=0
1455051 Par ch=1 c=64 v=0
1455066 On ch=1 n=d5 v=0
1455099 On ch=1 n=f4 v=0
1455099 On ch=1 n=a4 v=0
1455158 On ch=1 n=c5 v=77
1455158 On ch=1 n=f3 v=79
1455162 On ch=1 n=f2 v=79
1455185 On ch=1 n=f3 v=0
1455191 On ch=1 n=f2 v=0
1455230 On ch=1 n=c5 v=0
1455286 On ch=1 n=d2 v=87
1455289 On ch=1 n=d3 v=86
1455291 On ch=1 n=a4 v=84
1455291 On ch=1 n=f5 v=82
1455291 On ch=1 n=f4 v=69
1455322 On ch=1 n=d3 v=0
1455329 On ch=1 n=f4 v=0
1455339 On ch=1 n=d2 v=0
1455342 On ch=1 n=a4 v=0
1455351 On ch=1 n=f5 v=0
1455451 On ch=1 n=e3 v=86
1455451 On ch=1 n=e2 v=89
1455486 On ch=1 n=e2 v=0
1455491 On ch=1 n=e3 v=0
1455578 On ch=1 n=c3 v=91
1455582 On ch=1 n=c2 v=88
1455589 On ch=1 n=f5 v=82
1455589 On ch=1 n=f6 v=79
1455589 On ch=1 n=a5 v=73
1455591 On ch=1 n=d#6 v=78
1455606 On ch=1 n=f5 v=0
1455606 On ch=1 n=c3 v=0
1455622 On ch=1 n=a5 v=0
1455625 On ch=1 n=c2 v=0
1455642 On ch=1 n=f6 v=0
1455651 On ch=1 n=d#6 v=0
1455726 On ch=1 n=d3 v=82
1455726 On ch=1 n=d2 v=81
1455754 On ch=1 n=d3 v=0
1455762 On ch=1 n=d2 v=0
1455862 On ch=1 n=f7 v=99
1455862 On ch=1 n=f6 v=99
1455866 On ch=1 n=a#6 v=94
1455866 On ch=1 n=d7 v=89
1455866 On ch=1 n=a#2 v=86
1455866 On ch=1 n=a#1 v=86
1455886 Par ch=1 c=64 v=127
1455891 On ch=1 n=a#1 v=0
1455891 On ch=1 n=a#2 v=0
1455891 On ch=1 n=d7 v=0
1455910 On ch=1 n=a#6 v=0
1455922 On ch=1 n=f6 v=0
1455932 On ch=1 n=f7 v=0
1456192 On ch=1 n=g#3 v=74
1456199 On ch=1 n=g#4 v=80
1456199 On ch=1 n=d#6 v=77
1456199 On ch=1 n=a#5 v=72
1456203 On ch=1 n=f5 v=71
1456232 On ch=1 n=f5 v=0
1456243 On ch=1 n=g#3 v=0
1456246 On ch=1 n=g#4 v=0
1456252 Par ch=1 c=64 v=0
1456279 On ch=1 n=a#5 v=0
1456279 On ch=1 n=d#6 v=0
1456351 On ch=1 n=d6 v=79
1456359 On ch=1 n=a#3 v=76
1456359 On ch=1 n=a#4 v=71
1456395 On ch=1 n=a#3 v=0
1456399 On ch=1 n=a#4 v=0
1456409 On ch=1 n=d6 v=0
1456500 On ch=1 n=a#5 v=102
1456509 On ch=1 n=a#6 v=94
1456513 On ch=1 n=f#4 v=86
1456517 On ch=1 n=f#3 v=79
1456536 On ch=1 n=a#6 v=0
1456543 On ch=1 n=f#3 v=0
1456553 On ch=1 n=f#4 v=0
1456564 On ch=1 n=a#5 v=0
1456648 On ch=1 n=g#4 v=88
1456652 On ch=1 n=g#3 v=74
1456692 On ch=1 n=g#3 v=0
1456703 On ch=1 n=g#4 v=0
1456800 On ch=1 n=f4 v=81
1456805 On ch=1 n=f3 v=84
1456809 On ch=1 n=g#5 v=84
1456809 On ch=1 n=a#4 v=81
1456820 On ch=1 n=d5 v=77
1456840 On ch=1 n=f4 v=0
1456845 On ch=1 n=f3 v=0
1456852 On ch=1 n=a#4 v=0
1456860 On ch=1 n=d5 v=0
1456893 On ch=1 n=g#5 v=0
1456936 On ch=1 n=f#3 v=79
1456936 On ch=1 n=f#4 v=79
1456985 On ch=1 n=f#4 v=0
1456985 On ch=1 n=f#3 v=0
1457073 On ch=1 n=d#5 v=71
1457073 On ch=1 n=f#5 v=76
1457080 On ch=1 n=d#4 v=92
1457080 On ch=1 n=d#3 v=77
1457084 On ch=1 n=a#4 v=88
1457116 On ch=1 n=d#3 v=0
1457116 On ch=1 n=d#5 v=0
1457132 On ch=1 n=d#4 v=0
1457132 On ch=1 n=f#5 v=0
1457142 On ch=1 n=a#4 v=0
1457193 On ch=1 n=f4 v=83
1457197 On ch=1 n=f3 v=83
1457233 On ch=1 n=f3 v=0
1457233 On ch=1 n=f4 v=0
1457353 On ch=1 n=c#4 v=90
1457353 On ch=1 n=c#3 v=86
1457353 On ch=1 n=e6 v=76
1457353 On ch=1 n=a#5 v=70
1457353 On ch=1 n=g#6 v=75
1457381 On ch=1 n=c#3 v=0
1457400 On ch=1 n=g#6 v=0
1457410 On ch=1 n=c#4 v=0
1457418 On ch=1 n=a#5 v=0
1457457 On ch=1 n=e6 v=0
1457478 On ch=1 n=d#4 v=95
1457483 On ch=1 n=f#6 v=72
1457486 On ch=1 n=d#3 v=86
1457523 On ch=1 n=d#3 v=0
1457539 On ch=1 n=f#6 v=0
1457550 On ch=1 n=d#4 v=0
1457650 On ch=1 n=d#7 v=98
1457650 On ch=1 n=d#6 v=104
1457667 On ch=1 n=b3 v=96
1457667 On ch=1 n=b2 v=96
1457691 On ch=1 n=d#6 v=0
1457691 On ch=1 n=d#7 v=0
1457706 On ch=1 n=b2 v=0
1457706 On ch=1 n=b3 v=0
1457798 On ch=1 n=c#4 v=90
1457799 On ch=1 n=c#3 v=82
1457830 On ch=1 n=c#3 v=0
1457847 On ch=1 n=c#4 v=0
1457950 On ch=1 n=a#3 v=89
1457950 On ch=1 n=a#2 v=86
1457950 On ch=1 n=c#6 v=85
1457953 On ch=1 n=d#5 v=75
1457953 On ch=1 n=g5 v=73
1457979 On ch=1 n=a#2 v=0
1457994 On ch=1 n=g5 v=0
1457994 On ch=1 n=d#5 v=0
1457994 On ch=1 n=a#3 v=0
1458070 On ch=1 n=c#6 v=0
1458078 On ch=1 n=b3 v=87
1458086 On ch=1 n=b2 v=88
1458110 On ch=1 n=b3 v=0
1458126 On ch=1 n=b2 v=0
1458223 On ch=1 n=b5 v=79
1458226 On ch=1 n=d#5 v=81
1458226 On ch=1 n=g#3 v=90
1458226 On ch=1 n=g#5 v=82
1458226 On ch=1 n=g#2 v=91
1458254 On ch=1 n=d#5 v=0
1458274 On ch=1 n=g#2 v=0
1458274 On ch=1 n=g#3 v=0
1458278 On ch=1 n=g#5 v=0
1458283 On ch=1 n=b5 v=0
1458367 On ch=1 n=a#3 v=93
1458367 On ch=1 n=a#2 v=90
1458410 On ch=1 n=a#2 v=0
1458414 On ch=1 n=a#3 v=0
1458502 On ch=1 n=d#6 v=90
1458502 On ch=1 n=c7 v=91
1458506 On ch=1 n=c6 v=85
1458506 On ch=1 n=f#3 v=93
1458510 On ch=1 n=f#2 v=88
1458534 On ch=1 n=c6 v=0
1458550 On ch=1 n=f#2 v=0
1458550 On ch=1 n=d#6 v=0
1458562 On ch=1 n=c7 v=0
1458570 On ch=1 n=f#3 v=0
1458637 On ch=1 n=g#3 v=90
1458637 On ch=1 n=g#2 v=87
1458698 On ch=1 n=g#2 v=0
1458698 On ch=1 n=g#3 v=0
1458797 On ch=1 n=e6 v=86
1458797 On ch=1 n=c#6 v=91
1458797 On ch=1 n=c#7 v=86
1458797 On ch=1 n=e2 v=91
1458799 On ch=1 n=e3 v=96
1458834 On ch=1 n=e6 v=0
1458846 On ch=1 n=e3 v=0
1458850 Par ch=1 c=64 v=127
1458854 On ch=1 n=c#6 v=0
1458859 On ch=1 n=e2 v=0
1458878 On ch=1 n=c#7 v=0
1458997 On ch=1 n=g#3 v=92
1459003 On ch=1 n=g#2 v=85
1459043 On ch=1 n=g#2 v=0
1459043 On ch=1 n=g#3 v=0
1459154 On ch=1 n=g#6 v=92
1459154 On ch=1 n=e6 v=88
1459154 On ch=1 n=e7 v=88
1459154 On ch=1 n=c#4 v=98
1459157 On ch=1 n=c#3 v=90
1459178 On ch=1 n=c#3 v=0
1459193 On ch=1 n=c#4 v=0
1459199 On ch=1 n=e7 v=0
1459206 On ch=1 n=e6 v=0
1459257 On ch=1 n=g#6 v=0
1459318 On ch=1 n=e4 v=97
1459318 On ch=1 n=e3 v=96
1459358 On ch=1 n=e4 v=0
1459366 On ch=1 n=e3 v=0
1459402 Par ch=1 c=64 v=0
1459451 On ch=1 n=b6 v=75
1459451 On ch=1 n=c#6 v=101
1459451 On ch=1 n=c#7 v=92
1459451 On ch=1 n=g4 v=100
1459451 On ch=1 n=g3 v=95
1459490 On ch=1 n=g4 v=0
1459499 On ch=1 n=c#7 v=0
1459510 On ch=1 n=c#6 v=0
1459510 On ch=1 n=b6 v=0
1459518 On ch=1 n=g3 v=0
1459574 Par ch=1 c=64 v=127
1459731 On ch=1 n=f#2 v=88
1459779 Par ch=1 c=64 v=0
1459862 On ch=1 n=f#2 v=0
1459870 On ch=1 n=f#3 v=85
1459877 On ch=1 n=a#6 v=91
1459883 On ch=1 n=f#6 v=90
1459883 On ch=1 n=f#7 v=90
1459918 On ch=1 n=f#3 v=0
1459919 On ch=1 n=a#6 v=0
1459922 On ch=1 n=f#7 v=0
1459930 On ch=1 n=f#6 v=0
1459930 Par ch=1 c=64 v=127
1460079 On ch=1 n=a3 v=90
1460186 On ch=1 n=a3 v=0
1460186 Par ch=1 c=64 v=0
1460203 On ch=1 n=d#6 v=92
1460203 On ch=1 n=d#5 v=92
1460206 On ch=1 n=c#6 v=96
1460210 On ch=1 n=a4 v=82
1460247 On ch=1 n=a4 v=0
1460254 On ch=1 n=d#5 v=0
1460258 On ch=1 n=c#6 v=0
1460259 On ch=1 n=d#6 v=0
1460406 On ch=1 n=g#2 v=87
1460527 On ch=1 n=c6 v=83
1460527 On ch=1 n=g#3 v=84
1460527 On ch=1 n=g#5 v=88
1460527 On ch=1 n=g#6 v=90
1460559 On ch=1 n=g#5 v=0
1460559 On ch=1 n=c6 v=0
1460559 Par ch=1 c=64 v=127
1460563 On ch=1 n=g#3 v=0
1460567 On ch=1 n=g#2 v=0
1460578 On ch=1 n=g#6 v=0
1460694 On ch=1 n=b3 v=91
1460750 Par ch=1 c=64 v=0
1460794 On ch=1 n=b3 v=0
1460846 On ch=1 n=f6 v=96
1460846 On ch=1 n=f7 v=89
1460846 On ch=1 n=d#7 v=78
1460850 On ch=1 n=b4 v=84
1460874 On ch=1 n=f7 v=0
1460874 On ch=1 n=f6 v=0
1460878 On ch=1 n=b4 v=0
1460890 On ch=1 n=d#7 v=0
1460973 On ch=1 n=a#2 v=90
1461097 Par ch=1 c=64 v=127
1461107 On ch=1 n=a#6 v=99
1461111 On ch=1 n=a#7 v=92
1461111 On ch=1 n=a#3 v=87
1461114 On ch=1 n=d7 v=87
1461116 On ch=1 n=a#2 v=0
1461156 On ch=1 n=d7 v=0
1461156 On ch=1 n=a#3 v=0
1461164 On ch=1 n=a#7 v=0
1461183 On ch=1 n=a#6 v=0
1461268 On ch=1 n=d4 v=92
1461316 Par ch=1 c=64 v=0
1461348 On ch=1 n=g#6 v=90
1461348 On ch=1 n=g#5 v=95
1461348 On ch=1 n=f#6 v=90
1461351 On ch=1 n=d5 v=77
1461388 On ch=1 n=d5 v=0
1461404 On ch=1 n=g#6 v=0
1461407 On ch=1 n=f#6 v=0
1461407 On ch=1 n=g#5 v=0
1461427 Par ch=1 c=64 v=127
1461471 On ch=1 n=d4 v=0
1461548 Par ch=1 c=64 v=0
1461548 On ch=1 n=c#3 v=88
1461659 Par ch=1 c=64 v=127
1461663 On ch=1 n=c#3 v=0
1461670 On ch=1 n=c#4 v=86
1461670 On ch=1 n=c#6 v=96
1461670 On ch=1 n=f6 v=87
1461670 On ch=1 n=c#7 v=86
1461680 On ch=1 n=f6 v=0
1461692 On ch=1 n=c#7 v=0
1461708 On ch=1 n=c#4 v=0
1461725 On ch=1 n=c#6 v=0
1461804 On ch=1 n=g4 v=90
1461893 On ch=1 n=g4 v=0
1461897 On ch=1 n=c#6 v=93
1461897 On ch=1 n=b5 v=91
1461901 On ch=1 n=e5 v=89
1461908 Par ch=1 c=64 v=0
1461953 On ch=1 n=b5 v=0
1461956 On ch=1 n=e5 v=0
1462025 Par ch=1 c=64 v=127
1462036 On ch=1 n=c#6 v=0
1462051 On ch=1 n=f#3 v=87
1462144 On ch=1 n=f#3 v=0
1462151 On ch=1 n=f#4 v=76
1462157 On ch=1 n=e5 v=94
1462157 On ch=1 n=f#6 v=90
1462157 On ch=1 n=a#5 v=88
1462180 On ch=1 n=f#4 v=0
1462204 On ch=1 n=e5 v=0
1462212 On ch=1 n=a#5 v=0
1462252 On ch=1 n=f#6 v=0
1462324 On ch=1 n=a4 v=88
1462444 On ch=1 n=a5 v=77
1462444 On ch=1 n=f#6 v=94
1462444 On ch=1 n=d#7 v=86
1462444 On ch=1 n=c#7 v=86
1462465 On ch=1 n=a4 v=0
1462480 On ch=1 n=a5 v=0
1462490 On ch=1 n=f#6 v=0
1462494 On ch=1 n=d#7 v=0
1462498 On ch=1 n=c#7 v=0
1462585 Par ch=1 c=64 v=0
1462589 On ch=1 n=g#3 v=88
1462690 On ch=1 n=c7 v=85
1462690 On ch=1 n=f#6 v=97
1462693 On ch=1 n=g#3 v=0
1462693 On ch=1 n=g#7 v=92
1462693 On ch=1 n=g#4 v=82
1462721 On ch=1 n=g#4 v=0
1462741 On ch=1 n=c7 v=0
1462745 On ch=1 n=g#7 v=0
1462769 On ch=1 n=f#6 v=0
1462769 Par ch=1 c=64 v=127
1462868 On ch=1 n=b4 v=90
1462950 On ch=1 n=b5 v=75
1462954 On ch=1 n=f6 v=89
1462961 On ch=1 n=g#5 v=88
1462961 On ch=1 n=d#6 v=84
1462990 On ch=1 n=b5 v=0
1462993 On ch=1 n=b4 v=0
1463014 On ch=1 n=f6 v=0
1463021 On ch=1 n=d#6 v=0
1463021 On ch=1 n=g#5 v=0
1463134 On ch=1 n=a#3 v=89
1463164 Par ch=1 c=64 v=0
1463209 On ch=1 n=d6 v=80
1463214 On ch=1 n=a#6 v=87
1463214 On ch=1 n=g#5 v=78
1463217 On ch=1 n=a#4 v=76
1463229 On ch=1 n=a#3 v=0
1463237 On ch=1 n=g#5 v=0
1463248 On ch=1 n=a#4 v=0
1463265 On ch=1 n=d6 v=0
1463297 On ch=1 n=a#6 v=0
1463321 Par ch=1 c=64 v=127
1463401 On ch=1 n=d5 v=85
1463470 On ch=1 n=d5 v=0
1463481 On ch=1 n=b6 v=92
1463481 On ch=1 n=f#7 v=86
1463481 On ch=1 n=g#7 v=90
1463481 On ch=1 n=d6 v=90
1463534 On ch=1 n=f#7 v=0
1463534 On ch=1 n=b6 v=0
1463541 On ch=1 n=d6 v=0
1463541 On ch=1 n=g#7 v=0
1463625 On ch=1 n=c#4 v=86
1463714 On ch=1 n=c#8 v=77
1463714 On ch=1 n=f7 v=79
1463718 On ch=1 n=b6 v=82
1463722 On ch=1 n=c#5 v=88
1463737 On ch=1 n=c#4 v=0
1463768 On ch=1 n=c#5 v=0
1463773 On ch=1 n=c#8 v=0
1463781 On ch=1 n=b6 v=0
1463781 On ch=1 n=f7 v=0
1463893 On ch=1 n=g4 v=98
1463977 Par ch=1 c=64 v=0
1463987 On ch=1 n=b6 v=77
1463987 On ch=1 n=c#7 v=80
1463987 On ch=1 n=e6 v=79
1463987 On ch=1 n=g5 v=87
1464034 On ch=1 n=g4 v=0
1464042 On ch=1 n=g5 v=0
1464047 On ch=1 n=e6 v=0
1464047 On ch=1 n=c#7 v=0
1464047 On ch=1 n=b6 v=0
1464131 On ch=1 n=f#4 v=93
1464178 On ch=1 n=f#4 v=0
1464231 Par ch=1 c=64 v=127
1464255 On ch=1 n=f#7 v=82
1464255 On ch=1 n=a#6 v=85
1464255 On ch=1 n=e6 v=90
1464255 On ch=1 n=f#5 v=86
1464298 On ch=1 n=e6 v=0
1464307 On ch=1 n=f#7 v=0
1464311 On ch=1 n=a#6 v=0
1464330 On ch=1 n=f#5 v=0
1464405 On ch=1 n=a4 v=96
1464507 On ch=1 n=a5 v=80
1464507 On ch=1 n=c#7 v=98
1464507 On ch=1 n=f#6 v=94
1464507 On ch=1 n=d#7 v=88
1464538 On ch=1 n=a4 v=0
1464558 On ch=1 n=f#6 v=0
1464562 On ch=1 n=a5 v=0
1464567 On ch=1 n=d#7 v=0
1464567 On ch=1 n=c#7 v=0
1464647 On ch=1 n=g#4 v=96
1464747 On ch=1 n=g#5 v=88
1464747 On ch=1 n=c7 v=89
1464747 On ch=1 n=f#6 v=92
1464751 On ch=1 n=g#7 v=92
1464771 On ch=1 n=g#4 v=0
1464806 On ch=1 n=g#7 v=0
1464806 On ch=1 n=f#6 v=0
1464806 On ch=1 n=c7 v=0
1464806 On ch=1 n=g#5 v=0
1464886 On ch=1 n=b4 v=98
1464990 On ch=1 n=b5 v=83
1464990 On ch=1 n=d#7 v=84
1464994 On ch=1 n=f7 v=87
1464994 On ch=1 n=g#6 v=92
1465018 On ch=1 n=b4 v=0
1465042 On ch=1 n=f7 v=0
1465047 On ch=1 n=d#7 v=0
1465051 On ch=1 n=b5 v=0
1465062 On ch=1 n=g#6 v=0
1465142 On ch=1 n=a#4 v=97
1465258 On ch=1 n=a#5 v=86
1465262 On ch=1 n=d7 v=87
1465262 On ch=1 n=g#6 v=92
1465266 On ch=1 n=a#7 v=90
1465274 On ch=1 n=a#4 v=0
1465302 On ch=1 n=a#5 v=0
1465314 On ch=1 n=d7 v=0
1465321 On ch=1 n=a#7 v=0
1465331 On ch=1 n=g#6 v=0
1465394 On ch=1 n=d5 v=97
1465458 Par ch=1 c=64 v=0
1465502 On ch=1 n=b6 v=90
1465502 On ch=1 n=g#7 v=88
1465505 On ch=1 n=d6 v=84
1465505 On ch=1 n=f#7 v=86
1465522 On ch=1 n=d5 v=0
1465551 On ch=1 n=g#7 v=0
1465555 On ch=1 n=d6 v=0
1465558 On ch=1 n=f#7 v=0
1465574 On ch=1 n=b6 v=0
1465618 Par ch=1 c=64 v=127
1465635 On ch=1 n=c#5 v=92
1465738 On ch=1 n=c#6 v=91
1465742 On ch=1 n=c#8 v=87
1465747 On ch=1 n=b6 v=82
1465747 On ch=1 n=f7 v=82
1465765 On ch=1 n=c#5 v=0
1465798 On ch=1 n=f7 v=0
1465798 On ch=1 n=b6 v=0
1465798 On ch=1 n=c#6 v=0
1465858 On ch=1 n=c#8 v=0
1465887 On ch=1 n=g5 v=97
1465985 Par ch=1 c=64 v=0
1466022 On ch=1 n=g6 v=76
1466022 On ch=1 n=c#8 v=85
1466025 On ch=1 n=b7 v=88
1466025 On ch=1 n=e7 v=84
1466031 On ch=1 n=g5 v=0
1466078 On ch=1 n=c#8 v=0
1466086 On ch=1 n=e7 v=0
1466086 On ch=1 n=g6 v=0
1466087 On ch=1 n=b7 v=0
1466155 On ch=1 n=f#5 v=84
1466162 Par ch=1 c=64 v=127
1466274 On ch=1 n=f#5 v=0
1466274 On ch=1 n=a#7 v=90
1466278 On ch=1 n=f#8 v=90
1466278 On ch=1 n=e7 v=90
1466278 On ch=1 n=f#6 v=90
1466335 On ch=1 n=f#6 v=0
1466335 On ch=1 n=e7 v=0
1466347 On ch=1 n=f#8 v=0
1466398 On ch=1 n=g4 v=98
1466408 On ch=1 n=a#7 v=0
1466502 On ch=1 n=g5 v=79
1466502 On ch=1 n=b7 v=84
1466502 On ch=1 n=c#8 v=89
1466502 On ch=1 n=e7 v=88
1466516 On ch=1 n=g4 v=0
1466552 On ch=1 n=e7 v=0
1466552 On ch=1 n=b7 v=0
1466559 On ch=1 n=g5 v=0
1466564 On ch=1 n=c#8 v=0
1466639 On ch=1 n=f#4 v=90
1466739 On ch=1 n=f#5 v=76
1466743 On ch=1 n=f#8 v=92
1466743 On ch=1 n=a#7 v=92
1466743 On ch=1 n=e7 v=92
1466764 On ch=1 n=f#5 v=0
1466775 On ch=1 n=f#4 v=0
1466791 On ch=1 n=e7 v=0
1466795 On ch=1 n=a#7 v=0
1466815 On ch=1 n=f#8 v=0
1466903 On ch=1 n=g3 v=98
1467022 On ch=1 n=g4 v=77
1467028 On ch=1 n=c#8 v=87
1467036 On ch=1 n=b7 v=88
1467036 On ch=1 n=e7 v=88
1467047 On ch=1 n=g3 v=0
1467079 On ch=1 n=c#8 v=0
1467079 On ch=1 n=g4 v=0
1467083 On ch=1 n=e7 v=0
1467095 On ch=1 n=b7 v=0
1467164 On ch=1 n=f#3 v=91
1467283 On ch=1 n=f#4 v=73
1467283 On ch=1 n=f#8 v=92
1467283 On ch=1 n=a#7 v=75
1467283 On ch=1 n=e7 v=92
1467315 On ch=1 n=f#4 v=0
1467332 On ch=1 n=f#8 v=0
1467332 On ch=1 n=f#3 v=0
1467335 On ch=1 n=a#7 v=0
1467339 On ch=1 n=e7 v=0
1467455 On ch=1 n=g2 v=94
1467583 On ch=1 n=c#8 v=94
1467583 On ch=1 n=g3 v=78
1467584 On ch=1 n=b7 v=90
1467588 On ch=1 n=e7 v=92
1467595 On ch=1 n=g2 v=0
1467636 On ch=1 n=e7 v=0
1467636 On ch=1 n=c#8 v=0
1467643 On ch=1 n=b7 v=0
1467647 On ch=1 n=g3 v=0
1467731 On ch=1 n=f#2 v=88
1467883 On ch=1 n=a#7 v=104
1467883 On ch=1 n=f#3 v=108
1467884 On ch=1 n=e7 v=104
1467884 On ch=1 n=f#8 v=100
1467928 On ch=1 n=a#7 v=0
1467939 On ch=1 n=f#8 v=0
1467939 On ch=1 n=e7 v=0
1467939 On ch=1 n=f#3 v=0
1468059 On ch=1 n=f#2 v=0
1468342 Par ch=1 c=64 v=0
1468899 Par ch=1 c=64 v=127
1468923 On ch=1 n=g3 v=95
1468924 On ch=1 n=g5 v=97
1468924 On ch=1 n=g6 v=96
1468928 On ch=1 n=g4 v=100
1468999 On ch=1 n=g5 v=0
1469015 On ch=1 n=g4 v=0
1469023 On ch=1 n=g6 v=0
1469048 On ch=1 n=g3 v=0
1469351 On ch=1 n=f#4 v=105
1469351 On ch=1 n=f#3 v=99
1469355 On ch=1 n=f#5 v=98
1469355 On ch=1 n=f#6 v=102
1469515 On ch=1 n=f#5 v=0
1469515 On ch=1 n=f#4 v=0
1469519 On ch=1 n=f#6 v=0
1469528 On ch=1 n=f#3 v=0
1469832 On ch=1 n=e5 v=81
1469839 On ch=1 n=e4 v=76
1469844 On ch=1 n=e6 v=82
1469844 On ch=1 n=e3 v=76
1469858 On ch=1 n=e6 v=0
1469862 On ch=1 n=e5 v=0
1469872 On ch=1 n=e3 v=0
1469872 On ch=1 n=e4 v=0
1469909 Par ch=1 c=64 v=0
1469932 On ch=1 n=d6 v=98
1469935 On ch=1 n=d3 v=95
1469935 On ch=1 n=d4 v=98
1469945 On ch=1 n=d5 v=97
1470045 On ch=1 n=d4 v=0
1470052 Par ch=1 c=64 v=127
1470060 On ch=1 n=d5 v=0
1470068 On ch=1 n=d3 v=0
1470068 On ch=1 n=d6 v=0
1470229 On ch=1 n=c#4 v=100
1470233 On ch=1 n=c#3 v=95
1470240 On ch=1 n=c#5 v=92
1470245 On ch=1 n=c#6 v=99
1470296 On ch=1 n=c#4 v=0
1470313 On ch=1 n=c#5 v=0
1470313 On ch=1 n=c#3 v=0
1470320 On ch=1 n=c#6 v=0
1470532 On ch=1 n=b2 v=98
1470532 On ch=1 n=b3 v=101
1470532 On ch=1 n=b4 v=102
1470536 On ch=1 n=b5 v=101
1470608 On ch=1 n=b3 v=0
1470618 On ch=1 n=b4 v=0
1470633 On ch=1 n=b5 v=0
1470649 On ch=1 n=b2 v=0
1470786 On ch=1 n=a#3 v=96
1470797 On ch=1 n=a#2 v=90
1470798 On ch=1 n=a#5 v=102
1470798 On ch=1 n=a#4 v=89
1470857 On ch=1 n=a#3 v=0
1470858 On ch=1 n=a#4 v=0
1470858 On ch=1 n=a#2 v=0
1470898 On ch=1 n=a#5 v=0
1471018 Par ch=1 c=64 v=0
1471409 Par ch=1 c=64 v=127
1471416 On ch=1 n=g#4 v=96
1471426 On ch=1 n=g#3 v=90
1471430 On ch=1 n=g#5 v=95
1471433 On ch=1 n=g#6 v=98
1471493 On ch=1 n=g#4 v=0
1471509 On ch=1 n=g#5 v=0
1471513 On ch=1 n=g#3 v=0
1471525 On ch=1 n=g#6 v=0
1471766 On ch=1 n=f#4 v=115
1471766 On ch=1 n=f#3 v=100
1471778 On ch=1 n=f#5 v=109
1471778 On ch=1 n=f#6 v=111
1471969 On ch=1 n=f#4 v=0
1471973 On ch=1 n=f#3 v=0
1471977 On ch=1 n=f#5 v=0
1471982 On ch=1 n=f#6 v=0
1472185 On ch=1 n=e4 v=76
1472189 On ch=1 n=e3 v=76
1472189 On ch=1 n=e5 v=81
1472197 On ch=1 n=e6 v=86
1472197 Par ch=1 c=64 v=0
1472206 On ch=1 n=e6 v=0
1472213 On ch=1 n=e5 v=0
1472213 On ch=1 n=e4 v=0
1472218 On ch=1 n=e3 v=0
1472282 Par ch=1 c=64 v=127
1472316 On ch=1 n=d#4 v=104
1472316 On ch=1 n=d#3 v=95
1472316 On ch=1 n=d#5 v=101
1472326 On ch=1 n=d#6 v=85
1472415 On ch=1 n=d#4 v=0
1472419 On ch=1 n=d#6 v=0
1472419 On ch=1 n=d#5 v=0
1472423 On ch=1 n=d#3 v=0
1472583 On ch=1 n=c#4 v=98
1472586 On ch=1 n=c#3 v=92
1472595 On ch=1 n=c#5 v=98
1472595 On ch=1 n=c#6 v=101
1472670 On ch=1 n=c#6 v=0
1472687 On ch=1 n=c#3 v=0
1472687 On ch=1 n=c#4 v=0
1472702 On ch=1 n=c#5 v=0
1472866 On ch=1 n=b3 v=99
1472866 On ch=1 n=b5 v=96
1472869 On ch=1 n=b2 v=96
1472869 On ch=1 n=b4 v=96
1472926 On ch=1 n=b3 v=0
1472942 On ch=1 n=b4 v=0
1472946 On ch=1 n=b2 v=0
1472955 On ch=1 n=b5 v=0
1473146 On ch=1 n=a#3 v=89
1473146 On ch=1 n=a#2 v=86
1473166 On ch=1 n=a#5 v=88
1473175 On ch=1 n=a#4 v=76
1473207 On ch=1 n=a#4 v=0
1473210 On ch=1 n=a#3 v=0
1473222 On ch=1 n=a#5 v=0
1473222 On ch=1 n=a#2 v=0
1473243 Par ch=1 c=64 v=0
1473666 On ch=1 n=b6 v=68
1473670 On ch=1 n=b5 v=62
1473674 On ch=1 n=b4 v=49
1473674 On ch=1 n=b3 v=49
1473694 On ch=1 n=b6 v=0
1473699 On ch=1 n=b4 v=0
1473703 On ch=1 n=b3 v=0
1473703 On ch=1 n=b5 v=0
1473735 Par ch=1 c=64 v=127
1473822 On ch=1 n=a#6 v=81
1473822 On ch=1 n=a#5 v=76
1473822 On ch=1 n=a#3 v=67
1473826 On ch=1 n=a#4 v=56
1473850 On ch=1 n=a#4 v=0
1473850 On ch=1 n=a#6 v=0
1473862 On ch=1 n=a#3 v=0
1473862 On ch=1 n=a#5 v=0
1473970 On ch=1 n=g#6 v=82
1473970 On ch=1 n=g#5 v=80
1473970 On ch=1 n=g#3 v=70
1473974 On ch=1 n=g#4 v=65
1473993 On ch=1 n=g#6 v=0
1474003 On ch=1 n=g#4 v=0
1474003 On ch=1 n=g#3 v=0
1474003 On ch=1 n=g#5 v=0
1474062 Par ch=1 c=64 v=0
1474106 On ch=1 n=f#6 v=86
1474106 On ch=1 n=f#5 v=90
1474110 On ch=1 n=f#4 v=76
1474110 On ch=1 n=f#3 v=69
1474133 On ch=1 n=f#3 v=0
1474143 On ch=1 n=f#4 v=0
1474166 On ch=1 n=f#5 v=0
1474166 On ch=1 n=f#6 v=0
1474238 On ch=1 n=e4 v=76
1474242 On ch=1 n=e5 v=77
1474242 On ch=1 n=e6 v=77
1474246 On ch=1 n=e3 v=64
1474270 On ch=1 n=e6 v=0
1474282 On ch=1 n=e4 v=0
1474286 On ch=1 n=e3 v=0
1474286 On ch=1 n=e5 v=0
1474399 On ch=1 n=d#6 v=74
1474399 On ch=1 n=d#3 v=66
1474399 On ch=1 n=d#5 v=74
1474402 On ch=1 n=d#4 v=51
1474430 On ch=1 n=d#5 v=0
1474430 On ch=1 n=d#6 v=0
1474435 On ch=1 n=d#3 v=0
1474443 On ch=1 n=d#4 v=0
1474509 On ch=1 n=c#6 v=79
1474509 On ch=1 n=c#5 v=67
1474513 On ch=1 n=c#4 v=74
1474513 On ch=1 n=c#3 v=57
1474539 On ch=1 n=c#5 v=0
1474554 On ch=1 n=c#3 v=0
1474570 On ch=1 n=c#4 v=0
1474570 Par ch=1 c=64 v=127
1474580 On ch=1 n=c#6 v=0
1474667 On ch=1 n=d#6 v=95
1474667 On ch=1 n=d#7 v=98
1474667 On ch=1 n=d#5 v=89
1474671 On ch=1 n=d#4 v=72
1474700 On ch=1 n=d#4 v=0
1474703 On ch=1 n=d#5 v=0
1474712 On ch=1 n=d#7 v=0
1474712 On ch=1 n=d#6 v=0
1474807 On ch=1 n=c#6 v=91
1474811 On ch=1 n=c#7 v=90
1474811 On ch=1 n=c#5 v=71
1474811 On ch=1 n=c#4 v=56
1474836 On ch=1 n=c#4 v=0
1474836 On ch=1 n=c#5 v=0
1474851 On ch=1 n=c#7 v=0
1474851 On ch=1 n=c#6 v=0
1474952 On ch=1 n=b5 v=72
1474956 On ch=1 n=b4 v=55
1474956 On ch=1 n=b6 v=64
1474956 On ch=1 n=b3 v=49
1474987 On ch=1 n=b4 v=0
1474990 On ch=1 n=b6 v=0
1474996 On ch=1 n=b5 v=0
1475000 On ch=1 n=b3 v=0
1475016 Par ch=1 c=64 v=0
1475070 On ch=1 n=a#4 v=79
1475070 On ch=1 n=a#3 v=62
1475070 On ch=1 n=a#6 v=89
1475072 On ch=1 n=a#5 v=84
1475100 On ch=1 n=a#4 v=0
1475104 On ch=1 n=a#5 v=0
1475104 On ch=1 n=a#6 v=0
1475112 On ch=1 n=a#3 v=0
1475199 On ch=1 n=g#4 v=80
1475199 On ch=1 n=g#3 v=72
1475199 On ch=1 n=g#5 v=90
1475199 On ch=1 n=g#6 v=86
1475220 On ch=1 n=g#6 v=0
1475220 On ch=1 n=g#3 v=0
1475231 On ch=1 n=g#5 v=0
1475231 On ch=1 n=g#4 v=0
1475335 On ch=1 n=f#4 v=68
1475335 On ch=1 n=f#5 v=82
1475339 On ch=1 n=f#6 v=76
1475339 On ch=1 n=f#3 v=78
1475363 On ch=1 n=f#6 v=0
1475363 On ch=1 n=f#5 v=0
1475379 On ch=1 n=f#4 v=0
1475383 On ch=1 n=f#3 v=0
1475471 On ch=1 n=e3 v=69
1475471 On ch=1 n=e6 v=80
1475471 On ch=1 n=e4 v=79
1475471 On ch=1 n=e5 v=79
1475487 Par ch=1 c=64 v=127
1475499 On ch=1 n=e6 v=0
1475531 On ch=1 n=e5 v=0
1475531 On ch=1 n=e4 v=0
1475531 On ch=1 n=e3 v=0
1475632 On ch=1 n=f#4 v=70
1475632 On ch=1 n=f#5 v=82
1475632 On ch=1 n=f#7 v=75
1475632 On ch=1 n=f#6 v=75
1475643 On ch=1 n=f#5 v=0
1475647 On ch=1 n=f#6 v=0
1475647 On ch=1 n=f#7 v=0
1475647 On ch=1 n=f#4 v=0
1475752 On ch=1 n=e4 v=76
1475752 On ch=1 n=e7 v=77
1475752 On ch=1 n=e6 v=90
1475752 On ch=1 n=e5 v=77
1475787 On ch=1 n=e5 v=0
1475787 On ch=1 n=e7 v=0
1475787 On ch=1 n=e4 v=0
1475795 On ch=1 n=e6 v=0
1475860 On ch=1 n=d#4 v=80
1475860 On ch=1 n=d#5 v=81
1475860 On ch=1 n=d#7 v=88
1475863 On ch=1 n=d#6 v=86
1475890 On ch=1 n=d#5 v=0
1475892 On ch=1 n=d#6 v=0
1475892 On ch=1 n=d#4 v=0
1475920 On ch=1 n=d#7 v=0
1476007 On ch=1 n=c#5 v=78
1476007 On ch=1 n=c#6 v=93
1476007 On ch=1 n=c#7 v=86
1476007 On ch=1 n=c#4 v=77
1476030 On ch=1 n=c#5 v=0
1476040 On ch=1 n=c#4 v=0
1476047 On ch=1 n=c#7 v=0
1476052 On ch=1 n=c#6 v=0
1476099 Par ch=1 c=64 v=0
1476109 On ch=1 n=b6 v=78
1476109 On ch=1 n=b3 v=65
1476109 On ch=1 n=b5 v=73
1476109 On ch=1 n=b4 v=59
1476127 On ch=1 n=b5 v=0
1476133 On ch=1 n=b4 v=0
1476141 On ch=1 n=b3 v=0
1476169 On ch=1 n=b6 v=0
1476244 On ch=1 n=a#4 v=85
1476244 On ch=1 n=a#3 v=76
1476244 On ch=1 n=a#6 v=85
1476247 On ch=1 n=a#5 v=82
1476268 On ch=1 n=a#4 v=0
1476276 On ch=1 n=a#5 v=0
1476276 On ch=1 n=a#3 v=0
1476286 On ch=1 n=a#6 v=0
1476365 On ch=1 n=g#4 v=84
1476365 On ch=1 n=g#6 v=71
1476370 On ch=1 n=g#3 v=80
1476370 On ch=1 n=g#5 v=71
1476397 On ch=1 n=g#5 v=0
1476406 On ch=1 n=g#3 v=0
1476413 On ch=1 n=g#4 v=0
1476421 On ch=1 n=g#6 v=0
1476421 Par ch=1 c=64 v=127
1476537 On ch=1 n=g#7 v=92
1476537 On ch=1 n=g#6 v=95
1476541 On ch=1 n=g#5 v=82
1476541 On ch=1 n=g#4 v=84
1476561 On ch=1 n=g#4 v=0
1476561 On ch=1 n=g#5 v=0
1476573 On ch=1 n=g#6 v=0
1476573 On ch=1 n=g#7 v=0
1476658 On ch=1 n=f#6 v=94
1476658 On ch=1 n=f#5 v=82
1476673 On ch=1 n=f#4 v=72
1476673 On ch=1 n=f#7 v=72
1476704 On ch=1 n=f#7 v=0
1476704 On ch=1 n=f#4 v=0
1476704 On ch=1 n=f#5 v=0
1476721 On ch=1 n=f#6 v=0
1476781 On ch=1 n=e5 v=87
1476781 On ch=1 n=e7 v=90
1476785 On ch=1 n=e6 v=94
1476789 On ch=1 n=e4 v=73
1476801 On ch=1 n=e4 v=0
1476825 On ch=1 n=e6 v=0
1476825 On ch=1 n=e7 v=0
1476841 On ch=1 n=e5 v=0
1476918 On ch=1 n=d#5 v=92
1476918 On ch=1 n=d#4 v=88
1476921 On ch=1 n=d#7 v=95
1476921 On ch=1 n=d#6 v=98
1476933 On ch=1 n=d#4 v=0
1476945 On ch=1 n=d#6 v=0
1476949 On ch=1 n=d#5 v=0
1476953 On ch=1 n=d#7 v=0
1477049 On ch=1 n=c#5 v=92
1477053 On ch=1 n=c#7 v=95
1477053 On ch=1 n=c#6 v=105
1477053 On ch=1 n=c#4 v=82
1477078 On ch=1 n=c#4 v=0
1477090 On ch=1 n=c#7 v=0
1477097 On ch=1 n=c#6 v=0
1477101 On ch=1 n=c#5 v=0
1477177 On ch=1 n=b4 v=88
1477177 On ch=1 n=b6 v=88
1477177 On ch=1 n=b5 v=89
1477177 On ch=1 n=b3 v=76
1477197 Par ch=1 c=64 v=0
1477205 On ch=1 n=b3 v=0
1477213 On ch=1 n=b4 v=0
1477221 On ch=1 n=b5 v=0
1477226 On ch=1 n=b6 v=0
1477306 On ch=1 n=a#6 v=97
1477313 On ch=1 n=a#5 v=90
1477313 On ch=1 n=a#3 v=91
1477317 Par ch=1 c=64 v=127
1477317 On ch=1 n=a#4 v=91
1477338 On ch=1 n=a#3 v=0
1477349 On ch=1 n=a#5 v=0
1477353 On ch=1 n=a#4 v=0
1477364 On ch=1 n=a#6 v=0
1477444 On ch=1 n=g#4 v=69
1477444 On ch=1 n=g#5 v=95
1477444 On ch=1 n=g#6 v=92
1477444 On ch=1 n=g#3 v=92
1477484 On ch=1 n=g#4 v=0
1477490 On ch=1 n=g#5 v=0
1477493 On ch=1 n=g#6 v=0
1477497 On ch=1 n=g#3 v=0
1477577 On ch=1 n=f#4 v=88
1477581 On ch=1 n=f#6 v=92
1477585 On ch=1 n=f#5 v=93
1477585 On ch=1 n=f#3 v=78
1477621 On ch=1 n=f#3 v=0
1477626 On ch=1 n=f#4 v=0
1477637 On ch=1 n=f#6 v=0
1477661 On ch=1 n=f#5 v=0
1477726 On ch=1 n=e6 v=99
1477726 On ch=1 n=e5 v=100
1477726 On ch=1 n=e4 v=100
1477726 On ch=1 n=e3 v=99
1477730 Par ch=1 c=64 v=0
1477761 On ch=1 n=e4 v=0
1477770 On ch=1 n=e3 v=0
1477793 On ch=1 n=e6 v=0
1477797 On ch=1 n=e5 v=0
1477873 Par ch=1 c=64 v=127
1477901 On ch=1 n=d#4 v=92
1477905 On ch=1 n=d#3 v=90
1477905 On ch=1 n=d#6 v=98
1477905 On ch=1 n=d#5 v=97
1477960 On ch=1 n=d#5 v=0
1477960 On ch=1 n=d#6 v=0
1477970 On ch=1 n=d#3 v=0
1477970 On ch=1 n=d#4 v=0
1478158 On ch=1 n=c#4 v=92
1478158 On ch=1 n=c#3 v=90
1478161 On ch=1 n=c#6 v=99
1478161 On ch=1 n=c#5 v=90
1478206 On ch=1 n=c#6 v=0
1478206 On ch=1 n=c#4 v=0
1478210 On ch=1 n=c#5 v=0
1478221 On ch=1 n=c#3 v=0
1478386 On ch=1 n=b5 v=91
1478386 On ch=1 n=b4 v=84
1478386 On ch=1 n=b3 v=91
1478386 On ch=1 n=b2 v=96
1478441 On ch=1 n=b4 v=0
1478446 On ch=1 n=b3 v=0
1478453 On ch=1 n=b2 v=0
1478465 On ch=1 n=b5 v=0
1478617 Par ch=1 c=64 v=0
1478670 On ch=1 n=a#2 v=95
1478670 On ch=1 n=a#3 v=93
1478670 On ch=1 n=a#4 v=99
1478674 On ch=1 n=a#5 v=102
1478769 Par ch=1 c=64 v=127
1478794 On ch=1 n=a#5 v=0
1478794 On ch=1 n=a#3 v=0
1478805 On ch=1 n=a#4 v=0
1478810 On ch=1 n=a#2 v=0
1478961 On ch=1 n=g#3 v=90
1478961 On ch=1 n=g#2 v=93
1478970 On ch=1 n=g#4 v=90
1478970 On ch=1 n=g#5 v=90
1479061 On ch=1 n=g#3 v=0
1479077 On ch=1 n=g#4 v=0
1479086 On ch=1 n=g#2 v=0
1479101 On ch=1 n=g#5 v=0
1479274 On ch=1 n=f#3 v=83
1479277 On ch=1 n=f#5 v=84
1479277 On ch=1 n=f#2 v=82
1479277 On ch=1 n=f#4 v=82
1479321 On ch=1 n=f#4 v=0
1479326 On ch=1 n=f#2 v=0
1479345 On ch=1 n=f#3 v=0
1479361 On ch=1 n=f#5 v=0
1479513 Par ch=1 c=64 v=0
1479577 On ch=1 n=e2 v=99
1479585 On ch=1 n=e3 v=102
1479637 On ch=1 n=e3 v=0
1479646 On ch=1 n=e2 v=0
1479646 Par ch=1 c=64 v=127
1479866 On ch=1 n=g#7 v=90
1479866 On ch=1 n=g#6 v=86
1479878 On ch=1 n=g#7 v=0
1479901 On ch=1 n=g#6 v=0
1479998 On ch=1 n=f#5 v=86
1479998 On ch=1 n=a#4 v=74
1479998 On ch=1 n=a#6 v=81
1480001 On ch=1 n=f#4 v=65
1480001 On ch=1 n=c#5 v=77
1480001 On ch=1 n=a#5 v=77
1480029 On ch=1 n=a#6 v=0
1480033 On ch=1 n=f#4 v=0
1480033 On ch=1 n=a#4 v=0
1480037 On ch=1 n=a#5 v=0
1480037 On ch=1 n=c#5 v=0
1480041 On ch=1 n=f#5 v=0
1480137 On ch=1 n=f#5 v=90
1480137 On ch=1 n=a#4 v=77
1480141 On ch=1 n=f#4 v=72
1480141 On ch=1 n=c#5 v=75
1480145 On ch=1 n=b5 v=75
1480145 On ch=1 n=b6 v=75
1480165 On ch=1 n=a#4 v=0
1480165 On ch=1 n=f#5 v=0
1480170 On ch=1 n=b6 v=0
1480170 On ch=1 n=b5 v=0
1480170 On ch=1 n=c#5 v=0
1480230 On ch=1 n=d#6 v=98
1480230 On ch=1 n=d#7 v=95
1480238 On ch=1 n=c#5 v=77
1480238 On ch=1 n=a#4 v=77
1480238 On ch=1 n=f#5 v=68
1480264 On ch=1 n=f#5 v=0
1480264 On ch=1 n=a#4 v=0
1480266 On ch=1 n=f#4 v=0
1480277 On ch=1 n=c#5 v=0
1480289 On ch=1 n=d#7 v=0
1480304 On ch=1 n=d#6 v=0
1480381 On ch=1 n=c#6 v=99
1480381 On ch=1 n=c#7 v=90
1480386 Par ch=1 c=64 v=0
1480405 On ch=1 n=c#7 v=0
1480409 On ch=1 n=c#6 v=0
1480493 On ch=1 n=a#5 v=96
1480493 On ch=1 n=a#6 v=83
1480521 On ch=1 n=a#6 v=0
1480531 On ch=1 n=a#5 v=0
1480598 On ch=1 n=f#6 v=90
1480598 On ch=1 n=f#5 v=82
1480627 On ch=1 n=f#5 v=0
1480658 On ch=1 n=f#6 v=0
1480730 On ch=1 n=d#4 v=92
1480734 On ch=1 n=d#3 v=88
1480758 Par ch=1 c=64 v=127
1480763 On ch=1 n=d#3 v=0
1480778 On ch=1 n=d#4 v=0
1480822 On ch=1 n=f5 v=72
1480822 On ch=1 n=f6 v=75
1480854 On ch=1 n=f5 v=0
1480858 On ch=1 n=f6 v=0
1480954 On ch=1 n=f#6 v=86
1480954 On ch=1 n=f#5 v=76
1480954 On ch=1 n=d#5 v=74
1480958 On ch=1 n=f#4 v=64
1480958 On ch=1 n=b4 v=66
1480968 On ch=1 n=f#6 v=0
1480979 On ch=1 n=b4 v=0
1480979 On ch=1 n=d#5 v=0
1480979 On ch=1 n=f#5 v=0
1480980 On ch=1 n=f#4 v=0
1481052 On ch=1 n=d#5 v=75
1481052 On ch=1 n=b4 v=76
1481052 On ch=1 n=f#4 v=69
1481052 On ch=1 n=a#6 v=85
1481055 On ch=1 n=a#5 v=82
1481084 On ch=1 n=f#4 v=0
1481088 On ch=1 n=a#6 v=0
1481095 On ch=1 n=a#5 v=0
1481099 On ch=1 n=b4 v=0
1481147 On ch=1 n=d#5 v=0
1481171 On ch=1 n=b5 v=87
1481175 On ch=1 n=b6 v=80
1481179 On ch=1 n=f#4 v=80
1481179 On ch=1 n=b4 v=80
1481179 On ch=1 n=d#5 v=80
1481231 On ch=1 n=b4 v=0
1481231 On ch=1 n=f#4 v=0
1481231 On ch=1 n=b6 v=0
1481234 On ch=1 n=d#5 v=0
1481234 On ch=1 n=b5 v=0
1481260 Par ch=1 c=64 v=0
1481299 On ch=1 n=c#7 v=92
1481303 On ch=1 n=c#6 v=91
1481348 On ch=1 n=c#6 v=0
1481351 On ch=1 n=c#7 v=0
1481415 On ch=1 n=d7 v=91
1481415 On ch=1 n=d6 v=88
1481451 On ch=1 n=d6 v=0
1481468 On ch=1 n=d7 v=0
1481515 On ch=1 n=d#6 v=90
1481515 On ch=1 n=d#7 v=95
1481560 On ch=1 n=d#6 v=0
1481575 On ch=1 n=d#7 v=0
1481635 On ch=1 n=e4 v=99
1481638 On ch=1 n=e3 v=98
1481680 On ch=1 n=e4 v=0
1481695 On ch=1 n=e3 v=0
1481695 Par ch=1 c=64 v=127
1481754 On ch=1 n=g#7 v=82
1481754 On ch=1 n=g#6 v=82
1481775 On ch=1 n=g#7 v=0
1481779 On ch=1 n=g#6 v=0
1481880 On ch=1 n=a#6 v=81
1481880 On ch=1 n=a#5 v=88
1481880 On ch=1 n=c#5 v=74
1481880 On ch=1 n=a#4 v=69
1481880 On ch=1 n=f#5 v=66
1481880 On ch=1 n=f#4 v=77
1481904 On ch=1 n=a#4 v=0
1481904 On ch=1 n=a#5 v=0
1481908 On ch=1 n=f#5 v=0
1481911 On ch=1 n=f#4 v=0
1481911 On ch=1 n=c#5 v=0
1481923 On ch=1 n=a#6 v=0
1481991 On ch=1 n=f#5 v=88
1481991 On ch=1 n=c#5 v=77
1481995 On ch=1 n=a#4 v=77
1481995 On ch=1 n=b6 v=82
1481999 On ch=1 n=b5 v=68
1481999 On ch=1 n=f#4 v=77
1482018 On ch=1 n=f#5 v=0
1482020 On ch=1 n=b6 v=0
1482020 On ch=1 n=a#4 v=0
1482024 On ch=1 n=b5 v=0
1482039 On ch=1 n=f#4 v=0
1482047 On ch=1 n=c#5 v=0
1482088 On ch=1 n=f#5 v=72
1482088 On ch=1 n=a#4 v=81
1482088 On ch=1 n=f#4 v=57
1482088 On ch=1 n=c#5 v=72
1482088 On ch=1 n=d#7 v=95
1482091 On ch=1 n=d#6 v=92
1482115 On ch=1 n=c#5 v=0
1482115 On ch=1 n=f#5 v=0
1482125 On ch=1 n=d#6 v=0
1482129 On ch=1 n=d#7 v=0
1482129 On ch=1 n=f#4 v=0
1482140 On ch=1 n=a#4 v=0
1482197 Par ch=1 c=64 v=0
1482216 On ch=1 n=c#7 v=88
1482216 On ch=1 n=c#6 v=89
1482245 On ch=1 n=c#7 v=0
1482248 On ch=1 n=c#6 v=0
1482335 On ch=1 n=a#5 v=84
1482335 On ch=1 n=a#6 v=75
1482352 On ch=1 n=a#6 v=0
1482368 On ch=1 n=a#5 v=0
1482452 On ch=1 n=f#5 v=96
1482456 On ch=1 n=f#6 v=84
1482485 On ch=1 n=f#5 v=0
1482500 On ch=1 n=f#6 v=0
1482560 On ch=1 n=d#4 v=104
1482568 On ch=1 n=d#3 v=92
1482617 On ch=1 n=d#3 v=0
1482617 On ch=1 n=d#4 v=0
1482621 Par ch=1 c=64 v=127
1482692 On ch=1 n=f6 v=71
1482692 On ch=1 n=f5 v=77
1482724 On ch=1 n=f5 v=0
1482735 On ch=1 n=f6 v=0
1482796 On ch=1 n=f#4 v=76
1482796 On ch=1 n=f#5 v=73
1482801 On ch=1 n=f#6 v=80
1482801 On ch=1 n=d#5 v=79
1482801 On ch=1 n=b4 v=73
1482816 On ch=1 n=f#6 v=0
1482828 On ch=1 n=b4 v=0
1482828 On ch=1 n=d#5 v=0
1482828 On ch=1 n=f#5 v=0
1482844 On ch=1 n=f#4 v=0
1482908 On ch=1 n=d#5 v=77
1482908 On ch=1 n=f#4 v=75
1482908 On ch=1 n=b4 v=75
1482908 On ch=1 n=a#5 v=76
1482908 On ch=1 n=a#6 v=76
1482932 On ch=1 n=a#5 v=0
1482932 On ch=1 n=b4 v=0
1482936 On ch=1 n=a#6 v=0
1482948 On ch=1 n=f#4 v=0
1482948 On ch=1 n=d#5 v=0
1483004 On ch=1 n=d#5 v=75
1483008 On ch=1 n=f#4 v=76
1483008 On ch=1 n=b4 v=66
1483012 On ch=1 n=b5 v=78
1483012 On ch=1 n=b6 v=80
1483032 On ch=1 n=b4 v=0
1483044 On ch=1 n=b5 v=0
1483044 On ch=1 n=d#5 v=0
1483048 On ch=1 n=b6 v=0
1483088 On ch=1 n=f#4 v=0
1483124 Par ch=1 c=64 v=0
1483157 On ch=1 n=c#6 v=78
1483160 On ch=1 n=c#7 v=84
1483208 On ch=1 n=c#7 v=0
1483208 On ch=1 n=c#6 v=0
1483260 On ch=1 n=d6 v=67
1483268 On ch=1 n=d7 v=65
1483297 On ch=1 n=d7 v=0
1483297 On ch=1 n=d6 v=0
1483365 On ch=1 n=d#6 v=88
1483365 On ch=1 n=d#7 v=90
1483391 On ch=1 n=d#6 v=0
1483424 On ch=1 n=d#7 v=0
1483492 On ch=1 n=g#4 v=102
1483492 On ch=1 n=g#3 v=92
1483495 Par ch=1 c=64 v=127
1483524 On ch=1 n=g#3 v=0
1483552 On ch=1 n=g#4 v=0
1483636 On ch=1 n=b7 v=74
1483644 On ch=1 n=b6 v=74
1483665 On ch=1 n=b7 v=0
1483668 On ch=1 n=b6 v=0
1483748 On ch=1 n=b5 v=93
1483748 On ch=1 n=f6 v=89
1483752 On ch=1 n=f5 v=77
1483752 On ch=1 n=f7 v=89
1483761 On ch=1 n=b4 v=72
1483761 On ch=1 n=c#5 v=77
1483777 On ch=1 n=f7 v=0
1483777 On ch=1 n=f6 v=0
1483777 On ch=1 n=b5 v=0
1483792 On ch=1 n=c#5 v=0
1483792 On ch=1 n=b4 v=0
1483792 On ch=1 n=f5 v=0
1483852 On ch=1 n=f5 v=84
1483852 On ch=1 n=b5 v=96
1483856 On ch=1 n=f#7 v=80
1483856 On ch=1 n=c#5 v=74
1483860 On ch=1 n=b4 v=71
1483860 On ch=1 n=f#6 v=80
1483885 On ch=1 n=b5 v=0
1483888 On ch=1 n=b4 v=0
1483896 On ch=1 n=c#5 v=0
1483897 On ch=1 n=f#6 v=0
1483897 On ch=1 n=f#7 v=0
1483905 On ch=1 n=f5 v=0
1483955 On ch=1 n=f5 v=75
1483955 On ch=1 n=b5 v=87
1483957 On ch=1 n=b4 v=82
1483957 On ch=1 n=c#5 v=74
1483957 On ch=1 n=a#7 v=98
1483961 On ch=1 n=a#6 v=91
1483975 On ch=1 n=b5 v=0
1483981 On ch=1 n=a#6 v=0
1483992 On ch=1 n=a#7 v=0
1484008 On ch=1 n=f5 v=0
1484025 On ch=1 n=b4 v=0
1484036 On ch=1 n=c#5 v=0
1484105 On ch=1 n=g#7 v=90
1484105 On ch=1 n=g#6 v=95
1484141 On ch=1 n=g#6 v=0
1484152 On ch=1 n=g#7 v=0
1484197 Par ch=1 c=64 v=0
1484228 On ch=1 n=f6 v=91
1484232 On ch=1 n=f7 v=87
1484257 On ch=1 n=f7 v=0
1484257 On ch=1 n=f6 v=0
1484332 On ch=1 n=c#6 v=91
1484332 On ch=1 n=c#7 v=72
1484348 On ch=1 n=c#7 v=0
1484358 On ch=1 n=c#6 v=0
1484433 On ch=1 n=f3 v=100
1484433 On ch=1 n=f4 v=97
1484494 On ch=1 n=f4 v=0
1484498 On ch=1 n=f3 v=0
1484509 Par ch=1 c=64 v=127
1484558 On ch=1 n=d#8 v=89
1484561 On ch=1 n=d#7 v=77
1484582 On ch=1 n=d#7 v=0
1484589 On ch=1 n=d#8 v=0
1484661 On ch=1 n=b5 v=91
1484661 On ch=1 n=b4 v=80
1484661 On ch=1 n=g#7 v=80
1484661 On ch=1 n=g#6 v=78
1484661 On ch=1 n=c#5 v=65
1484665 On ch=1 n=g#5 v=78
1484681 On ch=1 n=g#5 v=0
1484681 On ch=1 n=g#6 v=0
1484688 On ch=1 n=c#5 v=0
1484694 On ch=1 n=g#7 v=0
1484701 On ch=1 n=b5 v=0
1484729 On ch=1 n=b4 v=0
1484772 On ch=1 n=b5 v=75
1484772 On ch=1 n=a#7 v=74
1484772 On ch=1 n=a#6 v=81
1484772 On ch=1 n=g#5 v=77
1484774 On ch=1 n=b4 v=77
1484774 On ch=1 n=c#5 v=77
1484788 On ch=1 n=b5 v=0
1484802 On ch=1 n=a#6 v=0
1484806 On ch=1 n=a#7 v=0
1484809 On ch=1 n=b4 v=0
1484809 On ch=1 n=g#5 v=0
1484813 On ch=1 n=c#5 v=0
1484869 On ch=1 n=b5 v=79
1484879 On ch=1 n=g#5 v=79
1484879 On ch=1 n=c#5 v=70
1484879 On ch=1 n=c#8 v=97
1484882 On ch=1 n=c#7 v=95
1484882 On ch=1 n=b4 v=95
1484905 On ch=1 n=c#5 v=0
1484905 On ch=1 n=g#5 v=0
1484905 On ch=1 n=b5 v=0
1484930 On ch=1 n=b4 v=0
1484930 On ch=1 n=c#7 v=0
1484930 On ch=1 n=c#8 v=0
1485009 On ch=1 n=b7 v=90
1485009 On ch=1 n=b6 v=84
1485054 On ch=1 n=b6 v=0
1485062 On ch=1 n=b7 v=0
1485129 On ch=1 n=a#7 v=92
1485135 On ch=1 n=a#6 v=91
1485135 Par ch=1 c=64 v=0
1485170 On ch=1 n=a#6 v=0
1485171 On ch=1 n=a#7 v=0
1485231 On ch=1 n=g#7 v=95
1485231 On ch=1 n=g#6 v=95
1485278 On ch=1 n=g#6 v=0
1485282 On ch=1 n=g#7 v=0
1485342 On ch=1 n=f#4 v=105
1485342 On ch=1 n=f#3 v=89
1485370 On ch=1 n=f#3 v=0
1485399 On ch=1 n=f#4 v=0
1485435 Par ch=1 c=64 v=127
1485471 On ch=1 n=a#5 v=78
1485471 On ch=1 n=a#6 v=79
1485494 On ch=1 n=a#5 v=0
1485502 On ch=1 n=a#6 v=0
1485575 On ch=1 n=b4 v=69
1485579 On ch=1 n=d#5 v=63
1485579 On ch=1 n=f#5 v=70
1485579 On ch=1 n=c#7 v=92
1485583 On ch=1 n=c#6 v=93
1485583 On ch=1 n=f#4 v=74
1485590 On ch=1 n=f#5 v=0
1485609 On ch=1 n=d#5 v=0
1485619 On ch=1 n=c#6 v=0
1485619 On ch=1 n=c#7 v=0
1485635 On ch=1 n=b4 v=0
1485649 On ch=1 n=f#4 v=0
1485670 On ch=1 n=b4 v=69
1485678 On ch=1 n=f#5 v=86
1485678 On ch=1 n=d#5 v=87
1485678 On ch=1 n=f#4 v=70
1485678 On ch=1 n=b6 v=78
1485682 On ch=1 n=b5 v=75
1485710 On ch=1 n=b5 v=0
1485710 On ch=1 n=f#4 v=0
1485718 On ch=1 n=b6 v=0
1485739 On ch=1 n=d#5 v=0
1485739 On ch=1 n=f#5 v=0
1485742 On ch=1 n=b4 v=0
1485782 On ch=1 n=d#5 v=67
1485782 On ch=1 n=f#5 v=69
1485782 On ch=1 n=b4 v=59
1485782 On ch=1 n=f#4 v=69
1485786 On ch=1 n=e6 v=94
1485786 On ch=1 n=e7 v=88
1485826 On ch=1 n=e7 v=0
1485826 On ch=1 n=f#4 v=0
1485829 On ch=1 n=e6 v=0
1485890 On ch=1 n=b4 v=0
1485942 On ch=1 n=d#7 v=88
1485946 On ch=1 n=d#6 v=92
1485966 On ch=1 n=f#5 v=0
1485978 On ch=1 n=d#6 v=0
1485978 On ch=1 n=d#7 v=0
1485982 Par ch=1 c=64 v=0
1485992 On ch=1 n=d#5 v=0
1486035 On ch=1 n=d#5 v=61
1486035 On ch=1 n=f#5 v=80
1486035 On ch=1 n=b4 v=66
1486039 On ch=1 n=f#4 v=66
1486039 On ch=1 n=f#6 v=92
1486039 On ch=1 n=f#7 v=92
1486083 On ch=1 n=f#6 v=0
1486088 On ch=1 n=f#7 v=0
1486103 On ch=1 n=d#5 v=0
1486115 On ch=1 n=f#4 v=0
1486125 On ch=1 n=f#5 v=0
1486129 On ch=1 n=b4 v=0
1486136 Par ch=1 c=64 v=127
1486160 On ch=1 n=f6 v=87
1486163 On ch=1 n=f7 v=73
1486203 On ch=1 n=f7 v=0
1486213 On ch=1 n=f6 v=0
1486269 On ch=1 n=c#5 v=64
1486269 On ch=1 n=f#5 v=86
1486269 On ch=1 n=a#4 v=81
1486273 On ch=1 n=f#4 v=73
1486273 On ch=1 n=g#6 v=98
1486273 On ch=1 n=g#7 v=104
1486277 Par ch=1 c=64 v=0
1486300 On ch=1 n=f#5 v=0
1486304 On ch=1 n=g#6 v=0
1486316 On ch=1 n=g#7 v=0
1486333 On ch=1 n=a#4 v=0
1486345 On ch=1 n=f#4 v=0
1486360 On ch=1 n=c#5 v=0
1486393 Par ch=1 c=64 v=127
1486393 On ch=1 n=f#7 v=88
1486393 On ch=1 n=f#6 v=88
1486424 On ch=1 n=f#6 v=0
1486453 On ch=1 n=f#7 v=0
1486540 On ch=1 n=f#4 v=68
1486540 On ch=1 n=a#4 v=67
1486543 On ch=1 n=c#5 v=82
1486543 On ch=1 n=c#4 v=72
1486543 On ch=1 n=b6 v=98
1486543 On ch=1 n=b7 v=100
1486588 On ch=1 n=b7 v=0
1486588 On ch=1 n=b6 v=0
1486613 On ch=1 n=c#5 v=0
1486617 On ch=1 n=a#4 v=0
1486620 On ch=1 n=f#4 v=0
1486632 On ch=1 n=c#4 v=0
1486676 On ch=1 n=a#7 v=88
1486676 On ch=1 n=a#6 v=79
1486696 On ch=1 n=a#6 v=0
1486705 On ch=1 n=a#7 v=0
1486825 On ch=1 n=a#4 v=74
1486825 On ch=1 n=c#4 v=72
1486829 On ch=1 n=f#4 v=72
1486840 On ch=1 n=a#3 v=69
1486840 On ch=1 n=d#8 v=106
1486840 On ch=1 n=d#7 v=100
1486856 On ch=1 n=d#7 v=0
1486883 On ch=1 n=d#8 v=0
1486883 On ch=1 n=f#4 v=0
1486883 On ch=1 n=a#4 v=0
1486900 On ch=1 n=a#3 v=0
1486910 On ch=1 n=c#4 v=0
1486941 On ch=1 n=c#8 v=94
1486941 On ch=1 n=c#7 v=92
1486973 On ch=1 n=c#7 v=0
1486983 On ch=1 n=c#8 v=0
1487074 On ch=1 n=f#4 v=73
1487078 On ch=1 n=f#3 v=68
1487078 On ch=1 n=a#3 v=67
1487078 On ch=1 n=c#4 v=67
1487078 On ch=1 n=e7 v=92
1487079 On ch=1 n=e8 v=100
1487110 On ch=1 n=e7 v=0
1487117 On ch=1 n=e8 v=0
1487134 On ch=1 n=a#3 v=0
1487138 On ch=1 n=c#4 v=0
1487150 On ch=1 n=f#4 v=0
1487170 On ch=1 n=f#3 v=0
1487197 On ch=1 n=f8 v=84
1487203 On ch=1 n=f7 v=88
1487222 On ch=1 n=f7 v=0
1487226 On ch=1 n=f8 v=0
1487243 Par ch=1 c=64 v=0
1487334 On ch=1 n=e4 v=99
1487337 On ch=1 n=f#8 v=104
1487337 On ch=1 n=e3 v=96
1487343 On ch=1 n=a#7 v=100
1487347 On ch=1 n=c#8 v=99
1487347 On ch=1 n=f#7 v=104
1487374 On ch=1 n=e4 v=0
1487397 On ch=1 n=e3 v=0
1487403 On ch=1 n=f#8 v=0
1487417 On ch=1 n=f#7 v=0
1487417 On ch=1 n=c#8 v=0
1487427 Par ch=1 c=64 v=127
1487431 On ch=1 n=a#7 v=0
1487598 On ch=1 n=g#5 v=68
1487606 On ch=1 n=g#4 v=66
1487613 On ch=1 n=g#5 v=0
1487643 On ch=1 n=g#4 v=0
1487778 On ch=1 n=a#3 v=79
1487782 On ch=1 n=a#6 v=77
1487782 On ch=1 n=a#4 v=70
1487786 On ch=1 n=f#6 v=76
1487790 On ch=1 n=c#7 v=77
1487790 On ch=1 n=f#7 v=77
1487806 On ch=1 n=f#6 v=0
1487806 On ch=1 n=a#3 v=0
1487814 On ch=1 n=c#7 v=0
1487814 On ch=1 n=a#4 v=0
1487822 On ch=1 n=f#7 v=0
1487822 On ch=1 n=a#6 v=0
1487899 On ch=1 n=f#6 v=86
1487899 On ch=1 n=c#7 v=82
1487899 On ch=1 n=b3 v=79
1487899 On ch=1 n=a#6 v=79
1487903 On ch=1 n=b4 v=76
1487903 On ch=1 n=f#7 v=88
1487907 Par ch=1 c=64 v=0
1487918 On ch=1 n=b4 v=0
1487930 On ch=1 n=f#7 v=0
1487930 On ch=1 n=b3 v=0
1487954 On ch=1 n=c#7 v=0
1487958 On ch=1 n=a#6 v=0
1487966 On ch=1 n=f#6 v=0
1488017 On ch=1 n=a#6 v=79
1488023 On ch=1 n=f#7 v=90
1488023 On ch=1 n=c#7 v=78
1488030 On ch=1 n=f#6 v=74
1488030 On ch=1 n=d#4 v=88
1488038 On ch=1 n=d#5 v=95
1488053 On ch=1 n=d#5 v=0
1488078 On ch=1 n=d#4 v=0
1488107 Par ch=1 c=64 v=127
1488150 On ch=1 n=c#5 v=92
1488158 On ch=1 n=c#4 v=86
1488178 On ch=1 n=c#4 v=0
1488186 On ch=1 n=c#5 v=0
1488263 On ch=1 n=a#6 v=0
1488277 On ch=1 n=c#7 v=0
1488277 On ch=1 n=a#4 v=97
1488277 On ch=1 n=a#3 v=87
1488287 On ch=1 n=f#6 v=0
1488287 On ch=1 n=f#7 v=0
1488299 On ch=1 n=a#3 v=0
1488314 On ch=1 n=a#4 v=0
1488379 On ch=1 n=f#4 v=90
1488379 On ch=1 n=f#3 v=89
1488419 On ch=1 n=f#3 v=0
1488436 On ch=1 n=f#4 v=0
1488496 On ch=1 n=d#4 v=92
1488496 On ch=1 n=d#3 v=98
1488556 On ch=1 n=d#3 v=0
1488556 On ch=1 n=d#4 v=0
1488624 On ch=1 n=f#3 v=91
1488627 On ch=1 n=f#4 v=93
1488671 On ch=1 n=f#4 v=0
1488687 On ch=1 n=f#3 v=0
1488751 On ch=1 n=g#4 v=88
1488751 On ch=1 n=g#3 v=77
1488751 On ch=1 n=f#5 v=82
1488755 On ch=1 n=d#6 v=71
1488755 On ch=1 n=b5 v=72
1488755 On ch=1 n=f#6 v=65
1488783 On ch=1 n=f#6 v=0
1488783 On ch=1 n=b5 v=0
1488791 On ch=1 n=g#4 v=0
1488795 On ch=1 n=d#6 v=0
1488796 On ch=1 n=f#5 v=0
1488800 On ch=1 n=g#3 v=0
1488871 On ch=1 n=a#4 v=94
1488871 On ch=1 n=a#3 v=85
1488871 On ch=1 n=f#6 v=76
1488875 On ch=1 n=f#5 v=80
1488875 On ch=1 n=d#6 v=71
1488875 On ch=1 n=b5 v=68
1488903 On ch=1 n=b5 v=0
1488903 On ch=1 n=d#6 v=0
1488903 On ch=1 n=f#5 v=0
1488907 On ch=1 n=a#3 v=0
1488928 On ch=1 n=a#4 v=0
1488963 On ch=1 n=f#6 v=0
1488991 On ch=1 n=f#6 v=77
1488991 On ch=1 n=f#5 v=78
1488991 On ch=1 n=b4 v=88
1488991 On ch=1 n=b5 v=78
1488995 On ch=1 n=d#6 v=75
1488996 On ch=1 n=b3 v=78
1489020 On ch=1 n=b3 v=0
1489024 On ch=1 n=f#5 v=0
1489028 On ch=1 n=b5 v=0
1489028 On ch=1 n=b4 v=0
1489035 Par ch=1 c=64 v=0
1489063 On ch=1 n=f#6 v=0
1489073 On ch=1 n=d#6 v=0
1489108 On ch=1 n=c#5 v=95
1489108 On ch=1 n=c#4 v=84
1489141 On ch=1 n=c#4 v=0
1489153 On ch=1 n=c#5 v=0
1489171 Par ch=1 c=64 v=127
1489217 On ch=1 n=f#6 v=79
1489228 On ch=1 n=d5 v=81
1489228 On ch=1 n=d4 v=71
1489232 On ch=1 n=d#7 v=65
1489232 On ch=1 n=f#7 v=51
1489232 On ch=1 n=b6 v=66
1489233 On ch=1 n=b6 v=0
1489233 On ch=1 n=f#7 v=0
1489241 On ch=1 n=f#6 v=0
1489261 On ch=1 n=d#7 v=0
1489261 On ch=1 n=d4 v=0
1489261 On ch=1 n=d5 v=0
1489324 On ch=1 n=d#5 v=89
1489324 On ch=1 n=d#4 v=86
1489344 On ch=1 n=d#5 v=0
1489361 On ch=1 n=d#4 v=0
1489387 Par ch=1 c=64 v=0
1489488 On ch=1 n=f#7 v=111
1489493 On ch=1 n=f#8 v=104
1489493 On ch=1 n=a#7 v=98
1489497 On ch=1 n=c#8 v=89
1489497 On ch=1 n=e4 v=97
1489501 On ch=1 n=e3 v=98
1489508 On ch=1 n=c#8 v=0
1489517 On ch=1 n=a#7 v=0
1489524 On ch=1 n=f#8 v=0
1489524 On ch=1 n=f#7 v=0
1489545 On ch=1 n=e3 v=0
1489545 On ch=1 n=e4 v=0
1489557 Par ch=1 c=64 v=127
1489717 On ch=1 n=g#4 v=69
1489717 On ch=1 n=g#5 v=69
1489741 On ch=1 n=g#5 v=0
1489741 On ch=1 n=g#4 v=0
1489856 On ch=1 n=a#3 v=79
1489871 On ch=1 n=f#6 v=82
1489871 On ch=1 n=c#7 v=78
1489877 On ch=1 n=a#6 v=76
1489904 On ch=1 n=f#7 v=59
1489908 On ch=1 n=a#3 v=0
1489911 On ch=1 n=a#6 v=0
1489911 On ch=1 n=c#7 v=0
1489921 On ch=1 n=f#7 v=0
1489921 On ch=1 n=f#6 v=0
1489968 On ch=1 n=b4 v=88
1489980 On ch=1 n=f#6 v=82
1489988 On ch=1 n=f#7 v=75
1489991 On ch=1 n=b3 v=77
1489993 On ch=1 n=a#6 v=85
1489993 On ch=1 n=c#7 v=84
1490008 On ch=1 n=b4 v=0
1490020 On ch=1 n=b3 v=0
1490027 On ch=1 n=f#7 v=0
1490044 On ch=1 n=a#6 v=0
1490051 On ch=1 n=f#6 v=0
1490057 On ch=1 n=c#7 v=0
1490097 On ch=1 n=d#5 v=104
1490104 On ch=1 n=a#6 v=77
1490104 On ch=1 n=d#4 v=92
1490104 On ch=1 n=f#7 v=75
1490108 On ch=1 n=f#6 v=72
1490112 On ch=1 n=c#7 v=71
1490128 On ch=1 n=d#4 v=0
1490145 On ch=1 n=d#5 v=0
1490207 On ch=1 n=c#5 v=98
1490221 On ch=1 n=c#4 v=95
1490257 On ch=1 n=c#4 v=0
1490257 On ch=1 n=c#5 v=0
1490260 On ch=1 n=c#7 v=0
1490304 On ch=1 n=a#6 v=0
1490320 On ch=1 n=f#6 v=0
1490324 On ch=1 n=f#7 v=0
1490333 On ch=1 n=a#4 v=94
1490337 On ch=1 n=a#3 v=83
1490368 On ch=1 n=a#3 v=0
1490384 On ch=1 n=a#4 v=0
1490445 On ch=1 n=f#4 v=88
1490448 On ch=1 n=f#3 v=83
1490471 On ch=1 n=f#3 v=0
1490505 On ch=1 n=f#4 v=0
1490564 On ch=1 n=d#4 v=104
1490564 On ch=1 n=d#3 v=98
1490574 Par ch=1 c=64 v=0
1490597 On ch=1 n=d#3 v=0
1490607 On ch=1 n=d#4 v=0
1490659 Par ch=1 c=64 v=127
1490678 On ch=1 n=f#4 v=96
1490681 On ch=1 n=f#3 v=87
1490727 On ch=1 n=f#4 v=0
1490731 On ch=1 n=f#3 v=0
1490806 On ch=1 n=g#3 v=88
1490814 On ch=1 n=g#4 v=90
1490814 On ch=1 n=f#5 v=90
1490826 On ch=1 n=d#6 v=70
1490826 On ch=1 n=f#6 v=73
1490830 On ch=1 n=b5 v=68
1490847 On ch=1 n=f#5 v=0
1490851 On ch=1 n=d#6 v=0
1490851 On ch=1 n=g#4 v=0
1490858 On ch=1 n=g#3 v=0
1490858 Par ch=1 c=64 v=0
1490865 On ch=1 n=f#6 v=0
1490875 On ch=1 n=b5 v=0
1490918 On ch=1 n=f#6 v=72
1490918 On ch=1 n=f#5 v=84
1490922 On ch=1 n=a#3 v=85
1490926 On ch=1 n=a#4 v=89
1490930 On ch=1 n=d#6 v=64
1490938 On ch=1 n=b5 v=75
1490966 On ch=1 n=b5 v=0
1490967 On ch=1 n=a#3 v=0
1490967 Par ch=1 c=64 v=127
1490974 On ch=1 n=d#6 v=0
1490974 On ch=1 n=a#4 v=0
1490974 On ch=1 n=f#5 v=0
1491018 On ch=1 n=f#6 v=0
1491018 On ch=1 n=f#6 v=55
1491025 On ch=1 n=b4 v=96
1491027 On ch=1 n=b3 v=78
1491031 On ch=1 n=d#6 v=70
1491031 On ch=1 n=f#5 v=59
1491047 On ch=1 n=b5 v=55
1491062 On ch=1 n=f#5 v=0
1491062 On ch=1 n=b3 v=0
1491071 On ch=1 n=b5 v=0
1491075 On ch=1 n=d#6 v=0
1491082 On ch=1 n=b4 v=0
1491092 On ch=1 n=f#6 v=0
1491155 On ch=1 n=c#5 v=98
1491155 On ch=1 n=c#4 v=86
1491172 On ch=1 n=c#4 v=0
1491191 On ch=1 n=c#5 v=0
1491252 On ch=1 n=f#7 v=77
1491263 On ch=1 n=f#6 v=63
1491263 On ch=1 n=d#7 v=61
1491264 On ch=1 n=d5 v=91
1491275 On ch=1 n=d4 v=70
1491278 On ch=1 n=d#7 v=0
1491278 On ch=1 n=f#6 v=0
1491292 On ch=1 n=f#7 v=0
1491322 On ch=1 n=d4 v=0
1491322 On ch=1 n=d5 v=0
1491379 On ch=1 n=d#4 v=86
1491379 On ch=1 n=d#5 v=77
1491382 On ch=1 n=d#5 v=0
1491415 On ch=1 n=d#4 v=0
1491455 Par ch=1 c=64 v=0
1491512 On ch=1 n=f8 v=100
1491512 On ch=1 n=b7 v=100
1491512 On ch=1 n=g#4 v=105
1491512 On ch=1 n=c#8 v=97
1491519 On ch=1 n=f7 v=97
1491519 On ch=1 n=g#3 v=105
1491563 On ch=1 n=g#3 v=0
1491571 On ch=1 n=g#4 v=0
1491615 On ch=1 n=b4 v=105
1491615 On ch=1 n=b5 v=105
1491671 On ch=1 n=b4 v=0
1491675 On ch=1 n=b5 v=0
1491724 On ch=1 n=c#8 v=0
1491724 Par ch=1 c=64 v=127
1491728 On ch=1 n=f8 v=0
1491732 On ch=1 n=b7 v=0
1491735 On ch=1 n=f7 v=0
1491735 On ch=1 n=f4 v=79
1491744 On ch=1 n=f5 v=79
1491744 On ch=1 n=f7 v=77
1491744 On ch=1 n=c#7 v=80
1491744 On ch=1 n=f6 v=83
1491744 On ch=1 n=b6 v=83
1491768 On ch=1 n=c#7 v=0
1491772 On ch=1 n=b6 v=0
1491772 On ch=1 n=f6 v=0
1491784 On ch=1 n=f4 v=0
1491795 On ch=1 n=f7 v=0
1491798 On ch=1 n=f5 v=0
1491844 On ch=1 n=f#4 v=79
1491844 On ch=1 n=f#5 v=79
1491848 On ch=1 n=b6 v=86
1491848 On ch=1 n=f7 v=71
1491848 On ch=1 n=f6 v=91
1491848 On ch=1 n=c#7 v=90
1491891 On ch=1 n=f6 v=0
1491895 On ch=1 n=c#7 v=0
1491895 On ch=1 n=b6 v=0
1491904 On ch=1 n=f#5 v=0
1491904 On ch=1 n=f#4 v=0
1491956 On ch=1 n=f7 v=0
1491967 On ch=1 n=a#4 v=83
1491971 On ch=1 n=a#5 v=83
1491975 On ch=1 n=f7 v=74
1491975 On ch=1 n=f6 v=83
1491975 On ch=1 n=b6 v=82
1491979 On ch=1 n=c#7 v=74
1491979 Par ch=1 c=64 v=0
1492024 On ch=1 n=a#5 v=0
1492028 On ch=1 n=a#4 v=0
1492072 On ch=1 n=f7 v=0
1492079 On ch=1 n=f6 v=0
1492083 On ch=1 n=c#7 v=0
1492083 On ch=1 n=g#4 v=72
1492088 On ch=1 n=g#5 v=72
1492099 On ch=1 n=b6 v=0
1492139 Par ch=1 c=64 v=127
1492143 On ch=1 n=g#5 v=0
1492143 On ch=1 n=g#4 v=0
1492184 On ch=1 n=f4 v=93
1492184 On ch=1 n=f5 v=93
1492231 On ch=1 n=f5 v=0
1492231 On ch=1 n=f4 v=0
1492308 On ch=1 n=c#4 v=91
1492308 On ch=1 n=c#5 v=91
1492368 On ch=1 n=c#5 v=0
1492368 On ch=1 n=c#4 v=0
1492416 On ch=1 n=f7 v=89
1492416 On ch=1 n=b7 v=98
1492419 On ch=1 n=c#8 v=97
1492419 On ch=1 n=f8 v=95
1492519 On ch=1 n=b7 v=0
1492519 On ch=1 n=f7 v=0
1492531 On ch=1 n=c#8 v=0
1492535 Par ch=1 c=64 v=0
1492539 On ch=1 n=d#5 v=92
1492539 On ch=1 n=d#4 v=86
1492544 On ch=1 n=f8 v=0
1492591 On ch=1 n=d#5 v=0
1492595 On ch=1 n=d#4 v=0
1492655 Par ch=1 c=64 v=127
1492675 On ch=1 n=c#7 v=77
1492675 On ch=1 n=g#4 v=93
1492679 On ch=1 n=f6 v=83
1492684 On ch=1 n=b6 v=80
1492684 On ch=1 n=f7 v=73
1492684 On ch=1 n=g#3 v=86
1492688 On ch=1 n=c#7 v=0
1492703 On ch=1 n=g#3 v=0
1492703 On ch=1 n=g#4 v=0
1492711 On ch=1 n=f7 v=0
1492728 On ch=1 n=f6 v=0
1492736 On ch=1 n=b6 v=0
1492838 On ch=1 n=a#3 v=93
1492838 On ch=1 n=b6 v=78
1492838 On ch=1 n=f6 v=83
1492842 On ch=1 n=a#4 v=87
1492842 On ch=1 n=f7 v=73
1492842 On ch=1 n=c#7 v=90
1492879 On ch=1 n=a#4 v=0
1492888 On ch=1 n=f6 v=0
1492888 On ch=1 n=b6 v=0
1492888 On ch=1 n=a#3 v=0
1492891 On ch=1 n=c#7 v=0
1492891 On ch=1 n=f7 v=0
1493019 On ch=1 n=f6 v=87
1493019 On ch=1 n=f7 v=74
1493019 On ch=1 n=b6 v=80
1493019 On ch=1 n=c#7 v=78
1493019 On ch=1 n=c#5 v=104
1493019 On ch=1 n=c#4 v=92
1493072 On ch=1 n=c#5 v=0
1493075 On ch=1 n=c#4 v=0
1493123 On ch=1 n=b6 v=0
1493127 On ch=1 n=c#7 v=0
1493135 On ch=1 n=f7 v=0
1493135 On ch=1 n=f6 v=0
1493182 On ch=1 n=b4 v=93
1493182 On ch=1 n=b3 v=85
1493228 On ch=1 n=b4 v=0
1493243 On ch=1 n=b3 v=0
1493315 On ch=1 n=a#4 v=99
1493315 On ch=1 n=a#3 v=91
1493351 On ch=1 n=a#3 v=0
1493359 On ch=1 n=a#4 v=0
1493423 On ch=1 n=g#4 v=96
1493423 On ch=1 n=g#3 v=77
1493452 On ch=1 n=g#3 v=0
1493482 On ch=1 n=g#4 v=0
1493615 Par ch=1 c=64 v=0
1493615 On ch=1 n=f#6 v=94
1493619 On ch=1 n=f#5 v=98
1493619 On ch=1 n=b5 v=93
1493622 On ch=1 n=d#6 v=88
1493622 On ch=1 n=f#4 v=109
1493622 On ch=1 n=f#3 v=89
1493708 Par ch=1 c=64 v=127
1493719 On ch=1 n=b5 v=0
1493722 On ch=1 n=f#3 v=0
1493722 On ch=1 n=f#5 v=0
1493732 On ch=1 n=f#4 v=0
1493751 On ch=1 n=d#6 v=0
1493751 On ch=1 n=f#6 v=0
1493884 On ch=1 n=g5 v=64
1493884 On ch=1 n=g3 v=79
1493888 On ch=1 n=g6 v=72
1493892 On ch=1 n=g4 v=71
1493915 On ch=1 n=g4 v=0
1493915 On ch=1 n=g6 v=0
1493919 On ch=1 n=g5 v=0
1493922 On ch=1 n=g3 v=0
1494022 On ch=1 n=g#3 v=71
1494032 On ch=1 n=g#4 v=78
1494036 On ch=1 n=g#5 v=78
1494036 On ch=1 n=g#6 v=75
1494068 On ch=1 n=g#4 v=0
1494068 On ch=1 n=g#3 v=0
1494095 On ch=1 n=g#5 v=0
1494099 On ch=1 n=g#6 v=0
1494155 On ch=1 n=a4 v=80
1494155 On ch=1 n=a3 v=72
1494155 On ch=1 n=a5 v=75
1494159 On ch=1 n=a6 v=75
1494188 On ch=1 n=a3 v=0
1494191 On ch=1 n=a5 v=0
1494199 On ch=1 n=a6 v=0
1494218 On ch=1 n=a4 v=0
1494302 On ch=1 n=a#4 v=87
1494302 On ch=1 n=a#3 v=78
1494302 On ch=1 n=a#6 v=89
1494304 On ch=1 n=a#5 v=90
1494332 On ch=1 n=a#3 v=0
1494351 On ch=1 n=a#5 v=0
1494355 On ch=1 n=a#6 v=0
1494362 On ch=1 n=a#4 v=0
1494435 On ch=1 n=b4 v=93
1494438 On ch=1 n=b3 v=85
1494438 On ch=1 n=b6 v=84
1494438 On ch=1 n=b5 v=87
1494484 On ch=1 n=b5 v=0
1494495 On ch=1 n=b6 v=0
1494495 On ch=1 n=b4 v=0
1494499 On ch=1 n=b3 v=0
1494575 On ch=1 n=c5 v=91
1494575 On ch=1 n=c7 v=75
1494575 On ch=1 n=c6 v=79
1494603 On ch=1 n=c7 v=0
1494608 On ch=1 n=c6 v=0
1494635 On ch=1 n=c5 v=0
1494742 On ch=1 n=c#5 v=77
1494748 On ch=1 n=c#4 v=72
1494752 On ch=1 n=c#7 v=82
1494752 On ch=1 n=c#6 v=81
1494771 On ch=1 n=c#6 v=0
1494781 On ch=1 n=c#4 v=0
1494785 On ch=1 n=c#5 v=0
1494792 On ch=1 n=c#7 v=0
1494812 Par ch=1 c=64 v=0
1494881 On ch=1 n=d5 v=127
1494881 On ch=1 n=d4 v=127
1494889 On ch=1 n=d7 v=127
1494889 On ch=1 n=f#4 v=127
1494889 On ch=1 n=d6 v=127
1494889 On ch=1 n=f#6 v=127
1494940 Par ch=1 c=64 v=127
1494981 On ch=1 n=d5 v=0
1494985 On ch=1 n=d6 v=0
1494985 On ch=1 n=d7 v=0
1494989 On ch=1 n=d4 v=0
1494996 On ch=1 n=f#6 v=0
1494996 On ch=1 n=f#4 v=0
1495120 On ch=1 n=c#5 v=99
1495120 On ch=1 n=c#4 v=100
1495120 On ch=1 n=c#6 v=100
1495120 On ch=1 n=c#7 v=99
1495168 On ch=1 n=c#5 v=0
1495172 On ch=1 n=c#4 v=0
1495179 On ch=1 n=c#7 v=0
1495179 On ch=1 n=c#6 v=0
1495225 On ch=1 n=c7 v=83
1495225 On ch=1 n=c6 v=85
1495228 On ch=1 n=c5 v=89
1495228 On ch=1 n=c4 v=86
1495276 On ch=1 n=c6 v=0
1495281 On ch=1 n=c4 v=0
1495281 On ch=1 n=c5 v=0
1495289 On ch=1 n=c7 v=0
1495345 On ch=1 n=b4 v=90
1495348 On ch=1 n=b3 v=83
1495348 On ch=1 n=b6 v=84
1495352 On ch=1 n=b5 v=83
1495380 On ch=1 n=b3 v=0
1495385 On ch=1 n=b5 v=0
1495385 On ch=1 n=b4 v=0
1495396 On ch=1 n=b6 v=0
1495476 On ch=1 n=a#4 v=94
1495476 On ch=1 n=a#3 v=87
1495476 On ch=1 n=a#5 v=96
1495480 On ch=1 n=a#6 v=97
1495512 On ch=1 n=a#3 v=0
1495522 On ch=1 n=a#4 v=0
1495530 On ch=1 n=a#6 v=0
1495530 On ch=1 n=a#5 v=0
1495605 On ch=1 n=a4 v=90
1495605 On ch=1 n=a3 v=82
1495605 On ch=1 n=a6 v=88
1495605 On ch=1 n=a5 v=93
1495657 On ch=1 n=a6 v=0
1495657 On ch=1 n=a3 v=0
1495657 On ch=1 n=a4 v=0
1495669 On ch=1 n=a5 v=0
1495746 On ch=1 n=g#4 v=93
1495746 On ch=1 n=g#5 v=98
1495746 On ch=1 n=g#3 v=80
1495750 On ch=1 n=g#6 v=92
1495773 On ch=1 n=g#3 v=0
1495789 On ch=1 n=g#6 v=0
1495806 On ch=1 n=g#5 v=0
1495806 On ch=1 n=g#4 v=0
1495877 On ch=1 n=g4 v=92
1495878 On ch=1 n=g3 v=88
1495878 On ch=1 n=g5 v=91
1495878 On ch=1 n=g6 v=87
1495936 On ch=1 n=g4 v=0
1495942 On ch=1 n=g6 v=0
1495942 On ch=1 n=g5 v=0
1495942 On ch=1 n=g3 v=0
1495949 Par ch=1 c=64 v=0
1496009 On ch=1 n=b3 v=127
1496009 On ch=1 n=f#6 v=127
1496009 On ch=1 n=c#4 v=127
1496017 On ch=1 n=f#5 v=127
1496017 On ch=1 n=f#4 v=127
1496017 On ch=1 n=c#6 v=127
1496017 On ch=1 n=f#3 v=127
1496017 On ch=1 n=b5 v=127
1496057 Par ch=1 c=64 v=127
1496086 On ch=1 n=c#6 v=0
1496089 On ch=1 n=b5 v=0
1496098 On ch=1 n=f#5 v=0
1496098 On ch=1 n=c#4 v=0
1496102 On ch=1 n=b3 v=0
1496109 On ch=1 n=f#4 v=0
1496113 On ch=1 n=f#3 v=0
1496129 On ch=1 n=f#6 v=0
1496237 On ch=1 n=f4 v=87
1496238 On ch=1 n=f3 v=80
1496238 On ch=1 n=f5 v=86
1496241 On ch=1 n=f6 v=89
1496285 On ch=1 n=f6 v=0
1496285 On ch=1 n=f4 v=0
1496289 On ch=1 n=f3 v=0
1496293 On ch=1 n=f5 v=0
1496378 On ch=1 n=e4 v=87
1496378 On ch=1 n=e6 v=88
1496378 On ch=1 n=e5 v=85
1496382 On ch=1 n=e3 v=75
1496417 On ch=1 n=e3 v=0
1496422 On ch=1 n=e5 v=0
1496429 On ch=1 n=e6 v=0
1496429 On ch=1 n=e4 v=0
1496489 On ch=1 n=d#4 v=90
1496489 On ch=1 n=d#5 v=95
1496489 On ch=1 n=d#6 v=92
1496493 On ch=1 n=d#3 v=86
1496518 On ch=1 n=d#3 v=0
1496533 On ch=1 n=d#6 v=0
1496541 On ch=1 n=d#5 v=0
1496549 On ch=1 n=d#4 v=0
1496638 On ch=1 n=d4 v=90
1496638 On ch=1 n=d5 v=85
1496642 On ch=1 n=d3 v=86
1496642 On ch=1 n=d6 v=92
1496670 On ch=1 n=d6 v=0
1496670 On ch=1 n=d3 v=0
1496685 On ch=1 n=d5 v=0
1496685 On ch=1 n=d4 v=0
1496758 On ch=1 n=c#4 v=95
1496758 On ch=1 n=c#5 v=95
1496762 On ch=1 n=c#6 v=99
1496762 On ch=1 n=c#3 v=88
1496805 On ch=1 n=c#3 v=0
1496815 On ch=1 n=c#6 v=0
1496815 On ch=1 n=c#5 v=0
1496815 On ch=1 n=c#4 v=0
1496889 On ch=1 n=c4 v=86
1496889 On ch=1 n=c3 v=87
1496893 On ch=1 n=c6 v=94
1496899 On ch=1 n=c5 v=91
1496935 On ch=1 n=c6 v=0
1496939 On ch=1 n=c5 v=0
1496939 On ch=1 n=c3 v=0
1496939 On ch=1 n=c4 v=0
1497006 On ch=1 n=b3 v=79
1497006 On ch=1 n=b5 v=93
1497010 On ch=1 n=b4 v=96
1497010 On ch=1 n=b2 v=86
1497030 On ch=1 n=b2 v=0
1497047 On ch=1 n=b5 v=0
1497050 On ch=1 n=b4 v=0
1497073 On ch=1 n=b3 v=0
1497155 On ch=1 n=a#4 v=103
1497155 On ch=1 n=a#3 v=96
1497159 On ch=1 n=a#5 v=98
1497159 On ch=1 n=a#2 v=90
1497214 On ch=1 n=a#2 v=0
1497214 On ch=1 n=a#3 v=0
1497215 On ch=1 n=a#4 v=0
1497226 On ch=1 n=a#5 v=0
1497246 Par ch=1 c=64 v=0
1497293 On ch=1 n=a5 v=98
1497293 On ch=1 n=a4 v=96
1497299 On ch=1 n=a3 v=92
1497303 On ch=1 n=a2 v=74
1497350 Par ch=1 c=64 v=127
1497354 On ch=1 n=a2 v=0
1497354 On ch=1 n=a3 v=0
1497354 On ch=1 n=a4 v=0
1497354 On ch=1 n=a5 v=0
1497410 On ch=1 n=g#3 v=95
1497420 On ch=1 n=g#2 v=85
1497420 On ch=1 n=g#4 v=93
1497420 On ch=1 n=g#5 v=92
1497456 On ch=1 n=g#2 v=0
1497470 On ch=1 n=g#5 v=0
1497470 On ch=1 n=g#4 v=0
1497480 On ch=1 n=g#3 v=0
1497571 On ch=1 n=g3 v=98
1497571 On ch=1 n=g5 v=99
1497572 On ch=1 n=g2 v=94
1497575 On ch=1 n=g4 v=104
1497623 On ch=1 n=g5 v=0
1497630 On ch=1 n=g2 v=0
1497630 On ch=1 n=g3 v=0
1497636 On ch=1 n=g4 v=0
1497750 On ch=1 n=f#3 v=108
1497750 On ch=1 n=f#4 v=102
1497750 On ch=1 n=c#5 v=90
1497752 On ch=1 n=f#2 v=100
1497752 On ch=1 n=f#5 v=90
1497752 On ch=1 n=a#4 v=89
1497763 Par ch=1 c=64 v=0
1497867 Par ch=1 c=64 v=127
1497871 On ch=1 n=f#2 v=0
1497900 On ch=1 n=f#4 v=0
1497907 On ch=1 n=f#5 v=0
1497916 On ch=1 n=a#4 v=0
1497919 On ch=1 n=f#3 v=0
1497927 On ch=1 n=c#5 v=0
1498031 On ch=1 n=f#3 v=87
1498031 On ch=1 n=f#4 v=98
1498032 On ch=1 n=f#5 v=98
1498032 On ch=1 n=a#4 v=91
1498035 On ch=1 n=c#5 v=86
1498035 On ch=1 n=e3 v=80
1498136 On ch=1 n=f#3 v=0
1498151 On ch=1 n=f#4 v=0
1498160 On ch=1 n=f#5 v=0
1498167 On ch=1 n=e3 v=0
1498177 On ch=1 n=a#4 v=0
1498180 On ch=1 n=c#5 v=0
1498248 On ch=1 n=f#3 v=83
1498253 On ch=1 n=a#4 v=91
1498253 On ch=1 n=c#3 v=77
1498256 On ch=1 n=f#4 v=96
1498256 On ch=1 n=c#5 v=84
1498260 On ch=1 n=f#5 v=90
1498340 On ch=1 n=f#3 v=0
1498387 On ch=1 n=f#5 v=0
1498389 On ch=1 n=f#4 v=0
1498424 On ch=1 n=c#3 v=0
1498441 On ch=1 n=b2 v=77
1498444 On ch=1 n=d#3 v=78
1498444 On ch=1 n=b3 v=93
1498448 On ch=1 n=b4 v=90
1498448 On ch=1 n=f#4 v=105
1498448 On ch=1 n=f#5 v=96
1498449 On ch=1 n=c#5 v=0
1498449 On ch=1 n=a#4 v=0
1498449 On ch=1 n=d#5 v=83
1498508 Par ch=1 c=64 v=0
1498561 On ch=1 n=b3 v=0
1498580 On ch=1 n=d#3 v=0
1498609 Par ch=1 c=64 v=127
1498640 On ch=1 n=b2 v=0
1498729 On ch=1 n=d#5 v=0
1498804 On ch=1 n=b4 v=0
1498814 On ch=1 n=f#4 v=0
1498833 On ch=1 n=b2 v=90
1498837 On ch=1 n=b1 v=92
1498861 On ch=1 n=b4 v=88
1498877 On ch=1 n=f#4 v=78
1498898 On ch=1 n=b2 v=0
1498913 On ch=1 n=b1 v=0
1498925 On ch=1 n=b4 v=0
1498945 On ch=1 n=f#4 v=0
1499101 On ch=1 n=f#4 v=80
1499101 On ch=1 n=b4 v=72
1499110 On ch=1 n=b3 v=81
1499110 On ch=1 n=d#5 v=71
1499121 On ch=1 n=b2 v=66
1499125 On ch=1 n=d#3 v=65
1499130 On ch=1 n=f#3 v=64
1499133 On ch=1 n=f#5 v=0
1499170 On ch=1 n=f#3 v=0
1499184 On ch=1 n=b2 v=0
1499190 On ch=1 n=b3 v=0
1499198 On ch=1 n=d#3 v=0
1499213 On ch=1 n=f#4 v=0
1499223 On ch=1 n=d#5 v=0
1499227 On ch=1 n=b4 v=0
1499274 On ch=1 n=b3 v=99
1499290 On ch=1 n=f#4 v=96
1499290 On ch=1 n=d#5 v=74
1499294 On ch=1 n=b2 v=90
1499294 On ch=1 n=f#5 v=96
1499303 On ch=1 n=f#3 v=91
1499303 On ch=1 n=b4 v=75
1499303 On ch=1 n=d#3 v=84
1499447 On ch=1 n=b2 v=0
1499458 On ch=1 n=f#4 v=0
1499458 On ch=1 n=b3 v=0
1499463 On ch=1 n=d#3 v=0
1499466 On ch=1 n=d#5 v=0
1499470 On ch=1 n=f#3 v=0
1499491 On ch=1 n=b4 v=0
1499563 On ch=1 n=b3 v=91
1499567 On ch=1 n=d#3 v=80
1499567 On ch=1 n=f#3 v=79
1499567 On ch=1 n=b2 v=82
1499570 On ch=1 n=f#4 v=88
1499570 On ch=1 n=b4 v=73
1499574 On ch=1 n=d#5 v=74
1499678 On ch=1 n=f#4 v=0
1499690 On ch=1 n=b2 v=0
1499694 On ch=1 n=b3 v=0
1499710 On ch=1 n=f#3 v=0
1499714 On ch=1 n=d#5 v=0
1499714 On ch=1 n=b4 v=0
1499718 On ch=1 n=d#3 v=0
1499778 On ch=1 n=d#5 v=64
1499781 On ch=1 n=b4 v=73
1499781 On ch=1 n=d#3 v=65
1499787 On ch=1 n=f#4 v=86
1499791 On ch=1 n=b3 v=93
1499791 On ch=1 n=f#3 v=81
1499795 On ch=1 n=b2 v=80
1499870 On ch=1 n=b3 v=0
1499880 On ch=1 n=b2 v=0
1499880 On ch=1 n=f#4 v=0
1499888 On ch=1 n=d#3 v=0
1499895 On ch=1 n=f#3 v=0
1499904 On ch=1 n=d#5 v=0
1499911 On ch=1 n=b4 v=0
1499964 On ch=1 n=f#3 v=83
1499964 On ch=1 n=b4 v=70
1499975 On ch=1 n=b3 v=93
1499983 On ch=1 n=d#3 v=82
1499983 On ch=1 n=f#4 v=90
1499983 On ch=1 n=b2 v=80
1499983 On ch=1 n=d#5 v=64
1500071 On ch=1 n=b2 v=0
1500071 On ch=1 n=b3 v=0
1500075 On ch=1 n=f#4 v=0
1500083 On ch=1 n=d#3 v=0
1500098 On ch=1 n=d#5 v=0
1500098 On ch=1 n=f#3 v=0
1500104 On ch=1 n=b4 v=0
1500104 On ch=1 n=f#5 v=0
1500151 On ch=1 n=f#3 v=76
1500154 On ch=1 n=d#3 v=72
1500158 On ch=1 n=b3 v=89
1500164 On ch=1 n=b4 v=57
1500164 On ch=1 n=f#4 v=84
1500164 On ch=1 n=b2 v=75
1500167 On ch=1 n=d#5 v=61
1500335 On ch=1 n=b2 v=0
1500338 On ch=1 n=f#4 v=0
1500344 On ch=1 n=b3 v=0
1500344 On ch=1 n=d#3 v=0
1500348 On ch=1 n=d#5 v=0
1500348 On ch=1 n=f#3 v=0
1500351 On ch=1 n=b4 v=0
1500359 On ch=1 n=d#5 v=71
1500378 On ch=1 n=f#5 v=88
1500380 On ch=1 n=b4 v=80
1500380 On ch=1 n=f#4 v=102
1500384 On ch=1 n=f#3 v=83
1500387 On ch=1 n=b3 v=93
1500387 On ch=1 n=d#3 v=82
1500391 On ch=1 n=b2 v=90
1500499 On ch=1 n=b2 v=0
1500504 On ch=1 n=f#4 v=0
1500518 On ch=1 n=b3 v=0
1500539 On ch=1 n=f#5 v=0
1500551 On ch=1 n=d#3 v=0
1500568 On ch=1 n=f#3 v=0
1500579 On ch=1 n=d#5 v=0
1500608 On ch=1 n=b4 v=0
1500638 On ch=1 n=b3 v=99
1500655 On ch=1 n=b2 v=90
1500659 On ch=1 n=f#3 v=93
1500675 On ch=1 n=b4 v=86
1500675 On ch=1 n=f#4 v=102
1500675 On ch=1 n=d#5 v=75
1500675 On ch=1 n=f#5 v=96
1500675 On ch=1 n=d#3 v=92
1500775 On ch=1 n=f#4 v=0
1500807 On ch=1 n=b2 v=0
1500840 On ch=1 n=d#3 v=0
1500851 On ch=1 n=f#3 v=0
1500851 On ch=1 n=b3 v=0
1500854 On ch=1 n=f#5 v=0
1500854 On ch=1 n=d#5 v=0
1500887 On ch=1 n=b4 v=0
1501151 On ch=1 n=b3 v=87
1501155 On ch=1 n=d#3 v=84
1501159 On ch=1 n=g#3 v=84
1501159 On ch=1 n=d#5 v=89
1501163 On ch=1 n=g#4 v=98
1501163 On ch=1 n=b2 v=75
1501171 On ch=1 n=g#5 v=92
1501171 On ch=1 n=b4 v=86
1501235 On ch=1 n=b2 v=0
1501235 On ch=1 n=b3 v=0
1501245 On ch=1 n=g#3 v=0
1501245 On ch=1 n=d#3 v=0
1501249 On ch=1 n=g#4 v=0
1501257 On ch=1 n=d#5 v=0
1501261 On ch=1 n=g#5 v=0
1501264 On ch=1 n=b4 v=0
1501272 Par ch=1 c=64 v=0
1501305 On ch=1 n=b3 v=85
1501312 On ch=1 n=b2 v=76
1501312 On ch=1 n=g#3 v=82
1501312 On ch=1 n=b4 v=78
1501312 On ch=1 n=d#3 v=77
1501316 On ch=1 n=g#5 v=80
1501317 On ch=1 n=g#4 v=90
1501324 On ch=1 n=d#5 v=75
1501412 On ch=1 n=g#4 v=0
1501416 On ch=1 n=b2 v=0
1501417 Par ch=1 c=64 v=127
1501424 On ch=1 n=b4 v=0
1501428 On ch=1 n=b3 v=0
1501438 On ch=1 n=d#3 v=0
1501453 On ch=1 n=g#3 v=0
1501465 On ch=1 n=d#5 v=0
1501469 On ch=1 n=g#5 v=0
1501885 On ch=1 n=g#5 v=90
1501893 On ch=1 n=g#4 v=84
1501897 On ch=1 n=d#5 v=87
1501897 On ch=1 n=d#7 v=90
1501908 On ch=1 n=b6 v=92
1501912 On ch=1 n=g#7 v=98
1501912 On ch=1 n=b4 v=72
1501912 On ch=1 n=g#6 v=95
1501972 On ch=1 n=g#5 v=0
1501978 On ch=1 n=g#4 v=0
1501982 On ch=1 n=g#6 v=0
1501985 On ch=1 n=d#5 v=0
1501993 On ch=1 n=d#7 v=0
1501997 On ch=1 n=b4 v=0
1502005 On ch=1 n=b6 v=0
1502009 On ch=1 n=g#7 v=0
1502029 On ch=1 n=g#4 v=86
1502045 On ch=1 n=g#7 v=86
1502048 On ch=1 n=d#5 v=81
1502054 On ch=1 n=b4 v=66
1502058 On ch=1 n=g#5 v=92
1502058 On ch=1 n=d#7 v=86
1502061 On ch=1 n=b6 v=90
1502061 On ch=1 n=g#6 v=95
1502121 On ch=1 n=g#5 v=0
1502145 On ch=1 n=b4 v=0
1502149 On ch=1 n=d#5 v=0
1502159 On ch=1 n=d#7 v=0
1502159 On ch=1 n=g#4 v=0
1502166 On ch=1 n=b6 v=0
1502178 On ch=1 n=g#6 v=0
1502188 On ch=1 n=g#7 v=0
1502803 On ch=1 n=e5 v=97
1502807 On ch=1 n=b5 v=99
1502819 On ch=1 n=b4 v=102
1502827 On ch=1 n=g#5 v=90
1502827 On ch=1 n=e3 v=66
1502827 On ch=1 n=b3 v=85
1502827 On ch=1 n=b2 v=76
1502827 On ch=1 n=g#3 v=78
1502868 Par ch=1 c=64 v=0
1503035 Par ch=1 c=64 v=127
1503066 On ch=1 n=g#5 v=0
1503095 On ch=1 n=g#3 v=0
1503095 On ch=1 n=e5 v=0
1503099 On ch=1 n=b2 v=0
1503103 On ch=1 n=b3 v=0
1503103 On ch=1 n=e3 v=0
1503120 On ch=1 n=b4 v=0
1503219 On ch=1 n=g#3 v=74
1503228 On ch=1 n=e5 v=76
1503228 On ch=1 n=g#5 v=74
1503232 On ch=1 n=b2 v=68
1503232 On ch=1 n=b3 v=72
1503236 On ch=1 n=e3 v=64
1503236 On ch=1 n=b4 v=80
1503323 On ch=1 n=b3 v=0
1503323 On ch=1 n=b2 v=0
1503340 On ch=1 n=b4 v=0
1503343 On ch=1 n=e5 v=0
1503348 On ch=1 n=g#3 v=0
1503352 On ch=1 n=g#5 v=0
1503367 On ch=1 n=e3 v=0
1503452 On ch=1 n=b4 v=86
1503460 On ch=1 n=e3 v=64
1503463 On ch=1 n=b2 v=76
1503463 On ch=1 n=b3 v=79
1503463 On ch=1 n=g#3 v=80
1503467 On ch=1 n=e5 v=81
1503467 On ch=1 n=g#5 v=77
1503547 On ch=1 n=b2 v=0
1503559 On ch=1 n=b3 v=0
1503563 On ch=1 n=b5 v=0
1503572 On ch=1 n=b4 v=0
1503587 On ch=1 n=g#5 v=0
1503587 On ch=1 n=e5 v=0
1503587 On ch=1 n=g#3 v=0
1503588 On ch=1 n=e3 v=0
1503675 On ch=1 n=b4 v=105
1503675 On ch=1 n=b5 v=99
1503679 On ch=1 n=e3 v=65
1503679 On ch=1 n=g#5 v=92
1503688 On ch=1 n=b2 v=80
1503688 On ch=1 n=e5 v=91
1503688 On ch=1 n=g#3 v=84
1503692 On ch=1 n=b3 v=85
1503786 On ch=1 n=b3 v=0
1503800 On ch=1 n=e5 v=0
1503800 On ch=1 n=b4 v=0
1503803 On ch=1 n=b2 v=0
1503803 On ch=1 n=g#5 v=0
1503815 On ch=1 n=g#3 v=0
1503839 On ch=1 n=e3 v=0
1503887 On ch=1 n=e3 v=49
1503895 On ch=1 n=b2 v=69
1503895 On ch=1 n=b4 v=90
1503899 On ch=1 n=g#3 v=77
1503902 On ch=1 n=b3 v=85
1503908 On ch=1 n=e5 v=79
1503912 On ch=1 n=g#5 v=77
1503992 On ch=1 n=b3 v=0
1503992 On ch=1 n=b4 v=0
1504003 On ch=1 n=e5 v=0
1504003 On ch=1 n=b2 v=0
1504007 On ch=1 n=g#5 v=0
1504007 On ch=1 n=g#3 v=0
1504023 On ch=1 n=e3 v=0
1504052 On ch=1 n=e3 v=51
1504075 On ch=1 n=b4 v=88
1504083 On ch=1 n=g#3 v=77
1504083 On ch=1 n=b2 v=70
1504083 On ch=1 n=e5 v=77
1504083 On ch=1 n=g#5 v=75
1504083 On ch=1 n=b3 v=81
1504135 On ch=1 n=b3 v=0
1504139 On ch=1 n=b2 v=0
1504139 On ch=1 n=b4 v=0
1504156 On ch=1 n=e5 v=0
1504175 On ch=1 n=g#5 v=0
1504183 On ch=1 n=g#3 v=0
1504183 On ch=1 n=e3 v=0
1504228 On ch=1 n=e3 v=51
1504235 On ch=1 n=g#3 v=72
1504243 On ch=1 n=b2 v=72
1504246 On ch=1 n=b4 v=93
1504246 On ch=1 n=b3 v=81
1504246 On ch=1 n=e5 v=85
1504246 On ch=1 n=g#5 v=77
1504291 On ch=1 n=b3 v=0
1504306 On ch=1 n=b4 v=0
1504312 On ch=1 n=b2 v=0
1504320 On ch=1 n=e5 v=0
1504323 On ch=1 n=g#5 v=0
1504333 On ch=1 n=g#3 v=0
1504345 On ch=1 n=e3 v=0
1504392 On ch=1 n=e3 v=58
1504396 On ch=1 n=g#3 v=80
1504396 On ch=1 n=b2 v=68
1504405 On ch=1 n=e5 v=81
1504405 On ch=1 n=b4 v=90
1504409 On ch=1 n=b3 v=83
1504409 On ch=1 n=g#5 v=75
1504469 On ch=1 n=b3 v=0
1504476 On ch=1 n=b2 v=0
1504492 On ch=1 n=b5 v=0
1504500 On ch=1 n=g#5 v=0
1504500 On ch=1 n=b4 v=0
1504509 On ch=1 n=g#3 v=0
1504513 On ch=1 n=e5 v=0
1504524 On ch=1 n=e3 v=0
1504580 On ch=1 n=b5 v=96
1504580 On ch=1 n=b4 v=102
1504600 On ch=1 n=e5 v=91
1504600 On ch=1 n=e3 v=64
1504603 On ch=1 n=g#3 v=90
1504613 On ch=1 n=b3 v=89
1504613 On ch=1 n=g#5 v=92
1504617 On ch=1 n=b2 v=88
1504700 On ch=1 n=b3 v=0
1504712 On ch=1 n=b2 v=0
1504720 On ch=1 n=g#5 v=0
1504736 On ch=1 n=b4 v=0
1504752 On ch=1 n=e3 v=0
1504752 On ch=1 n=e5 v=0
1504763 On ch=1 n=g#3 v=0
1504765 On ch=1 n=b5 v=0
1504869 On ch=1 n=b5 v=93
1504873 On ch=1 n=b4 v=102
1504873 On ch=1 n=e5 v=89
1504873 On ch=1 n=g#5 v=86
1504876 On ch=1 n=b2 v=82
1504896 On ch=1 n=g#3 v=90
1504896 On ch=1 n=b3 v=91
1504896 On ch=1 n=e3 v=76
1504983 On ch=1 n=b4 v=0
1505004 On ch=1 n=b3 v=0
1505004 On ch=1 n=b5 v=0
1505019 On ch=1 n=b2 v=0
1505019 On ch=1 n=e5 v=0
1505023 On ch=1 n=g#3 v=0
1505033 On ch=1 n=e3 v=0
1505062 On ch=1 n=g#5 v=0
1505326 On ch=1 n=g#3 v=77
1505354 On ch=1 n=c#4 v=86
1505389 On ch=1 n=e5 v=85
1505389 On ch=1 n=g#5 v=90
1505389 On ch=1 n=c#5 v=92
1505400 On ch=1 n=c#6 v=93
1505445 On ch=1 n=c#4 v=0
1505477 On ch=1 n=g#3 v=0
1505487 On ch=1 n=c#6 v=0
1505487 On ch=1 n=c#5 v=0
1505491 On ch=1 n=g#5 v=0
1505503 On ch=1 n=e5 v=0
1505526 Par ch=1 c=64 v=0
1505550 On ch=1 n=g#3 v=78
1505550 On ch=1 n=e5 v=83
1505558 On ch=1 n=c#6 v=93
1505566 On ch=1 n=g#5 v=84
1505566 On ch=1 n=c#5 v=100
1505570 On ch=1 n=c#4 v=92
1505658 Par ch=1 c=64 v=127
1505666 On ch=1 n=c#5 v=0
1505674 On ch=1 n=e5 v=0
1505694 On ch=1 n=c#4 v=0
1505703 On ch=1 n=g#3 v=0
1505723 On ch=1 n=g#5 v=0
1505727 On ch=1 n=c#6 v=0
1506203 On ch=1 n=g#7 v=98
1506203 On ch=1 n=c#5 v=78
1506207 On ch=1 n=c#7 v=107
1506211 On ch=1 n=c#8 v=97
1506214 On ch=1 n=e7 v=92
1506218 On ch=1 n=c#6 v=91
1506218 On ch=1 n=g#5 v=78
1506298 On ch=1 n=c#5 v=0
1506310 On ch=1 n=c#7 v=0
1506317 On ch=1 n=c#6 v=0
1506319 On ch=1 n=g#5 v=0
1506334 On ch=1 n=e7 v=0
1506334 On ch=1 n=c#8 v=0
1506334 On ch=1 n=g#7 v=0
1506379 On ch=1 n=c#5 v=88
1506379 On ch=1 n=c#8 v=91
1506383 On ch=1 n=c#6 v=91
1506383 On ch=1 n=g#7 v=90
1506390 On ch=1 n=e7 v=88
1506394 On ch=1 n=g#5 v=74
1506394 On ch=1 n=c#7 v=104
1506486 On ch=1 n=g#5 v=0
1506486 On ch=1 n=c#6 v=0
1506494 On ch=1 n=c#7 v=0
1506504 On ch=1 n=e7 v=0
1506504 On ch=1 n=g#7 v=0
1506508 On ch=1 n=c#5 v=0
1506519 On ch=1 n=c#8 v=0
1507248 Par ch=1 c=64 v=0
1507694 On ch=1 n=a4 v=82
1507694 On ch=1 n=a3 v=98
1507700 On ch=1 n=a2 v=90
1507707 On ch=1 n=c#5 v=84
1507711 On ch=1 n=e4 v=94
1507711 On ch=1 n=e5 v=91
1507711 On ch=1 n=c#3 v=86
1507715 On ch=1 n=e3 v=90
1507727 Par ch=1 c=64 v=127
1508407 On ch=1 n=e5 v=0
1508495 On ch=1 n=e3 v=0
1508505 On ch=1 n=a4 v=0
1508512 On ch=1 n=c#3 v=0
1508520 On ch=1 n=e4 v=0
1508520 On ch=1 n=c#5 v=0
1508544 On ch=1 n=a2 v=0
1508564 On ch=1 n=a3 v=0
1508864 On ch=1 n=a3 v=90
1508874 On ch=1 n=a2 v=84
1508874 On ch=1 n=e3 v=82
1508878 On ch=1 n=a4 v=88
1508881 On ch=1 n=c#5 v=84
1508889 On ch=1 n=e4 v=89
1508889 On ch=1 n=e5 v=83
1508889 On ch=1 n=c#3 v=80
1509102 On ch=1 n=e5 v=0
1509118 On ch=1 n=e4 v=0
1509118 On ch=1 n=a3 v=0
1509130 On ch=1 n=c#5 v=0
1509134 On ch=1 n=e3 v=0
1509134 On ch=1 n=a2 v=0
1509145 On ch=1 n=c#3 v=0
1509145 On ch=1 n=a4 v=0
1509221 On ch=1 n=c#3 v=71
1509221 On ch=1 n=e3 v=66
1509221 On ch=1 n=a2 v=75
1509225 On ch=1 n=a3 v=86
1509225 On ch=1 n=c#5 v=82
1509234 On ch=1 n=a4 v=80
1509237 On ch=1 n=e4 v=89
1509237 On ch=1 n=e5 v=85
1509322 On ch=1 n=e4 v=0
1509337 On ch=1 n=a4 v=0
1509353 On ch=1 n=e5 v=0
1509381 On ch=1 n=c#5 v=0
1509410 On ch=1 n=a3 v=0
1509410 On ch=1 n=a2 v=0
1509410 On ch=1 n=c#3 v=0
1509518 On ch=1 n=e3 v=0
1509569 On ch=1 n=c#3 v=68
1509569 On ch=1 n=e3 v=79
1509577 On ch=1 n=a2 v=72
1509577 On ch=1 n=a3 v=78
1509581 On ch=1 n=f#4 v=96
1509581 On ch=1 n=f#5 v=102
1509654 On ch=1 n=a3 v=0
1509665 On ch=1 n=c#3 v=0
1509685 On ch=1 n=f#4 v=0
1509702 On ch=1 n=f#5 v=0
1509734 On ch=1 n=a2 v=0
1509821 On ch=1 n=e3 v=0
1509888 On ch=1 n=c5 v=94
1509888 On ch=1 n=e5 v=94
1509888 On ch=1 n=c3 v=87
1509888 On ch=1 n=g3 v=90
1509898 On ch=1 n=g4 v=100
1509898 On ch=1 n=g2 v=87
1509901 On ch=1 n=g5 v=99
1509977 Par ch=1 c=64 v=0
1510205 Par ch=1 c=64 v=127
1510625 On ch=1 n=g5 v=0
1510641 On ch=1 n=g4 v=0
1510657 On ch=1 n=c3 v=0
1510661 On ch=1 n=c5 v=0
1510670 On ch=1 n=g2 v=0
1510670 On ch=1 n=g3 v=0
1510677 On ch=1 n=e5 v=0
1511008 On ch=1 n=c3 v=81
1511008 On ch=1 n=g2 v=85
1511008 On ch=1 n=g3 v=90
1511010 On ch=1 n=e3 v=86
1511021 On ch=1 n=g4 v=104
1511021 On ch=1 n=e5 v=89
1511021 On ch=1 n=c5 v=89
1511025 On ch=1 n=g5 v=91
1511202 On ch=1 n=g4 v=0
1511218 On ch=1 n=g5 v=0
1511237 On ch=1 n=c5 v=0
1511237 On ch=1 n=e5 v=0
1511289 On ch=1 n=g2 v=0
1511318 On ch=1 n=g3 v=0
1511365 On ch=1 n=e3 v=0
1511365 On ch=1 n=c3 v=0
1511461 On ch=1 n=c5 v=91
1511465 On ch=1 n=e5 v=91
1511468 On ch=1 n=c3 v=78
1511468 On ch=1 n=e3 v=80
1511468 On ch=1 n=g4 v=98
1511474 On ch=1 n=g5 v=91
1511478 On ch=1 n=g2 v=81
1511489 On ch=1 n=g3 v=90
1511588 On ch=1 n=g4 v=0
1511630 On ch=1 n=g5 v=0
1511630 On ch=1 n=c5 v=0
1511634 On ch=1 n=e5 v=0
1511645 On ch=1 n=e3 v=0
1511649 On ch=1 n=g3 v=0
1511678 On ch=1 n=g2 v=0
1511718 On ch=1 n=c3 v=0
1511848 On ch=1 n=e5 v=89
1511862 On ch=1 n=c3 v=67
1511862 On ch=1 n=c5 v=89
1511865 On ch=1 n=e3 v=78
1511865 On ch=1 n=a4 v=90
1511873 On ch=1 n=g2 v=73
1511873 On ch=1 n=g3 v=82
1511877 On ch=1 n=a5 v=86
1511941 On ch=1 n=e3 v=0
1511941 On ch=1 n=c5 v=0
1511953 On ch=1 n=g3 v=0
1511965 On ch=1 n=a4 v=0
1511970 On ch=1 n=c3 v=0
1511977 On ch=1 n=e5 v=0
1511981 On ch=1 n=a5 v=0
1512008 On ch=1 n=g2 v=0
1512228 On ch=1 n=f3 v=97
1512228 On ch=1 n=d3 v=90
1512228 On ch=1 n=a#2 v=90
1512230 On ch=1 n=f2 v=89
1512230 On ch=1 n=d5 v=94
1512230 On ch=1 n=f5 v=88
1512230 On ch=1 n=a#5 v=98
1512230 On ch=1 n=a#4 v=99
1512254 Par ch=1 c=64 v=0
1512321 On ch=1 n=d5 v=0
1512325 On ch=1 n=a#4 v=0
1512342 On ch=1 n=f5 v=0
1512369 Par ch=1 c=64 v=127
1512381 On ch=1 n=a#5 v=0
1512430 On ch=1 n=f3 v=0
1512462 On ch=1 n=f2 v=0
1512485 On ch=1 n=d3 v=0
1512537 On ch=1 n=a#2 v=0
1512684 On ch=1 n=a#5 v=90
1512688 On ch=1 n=f5 v=98
1512688 On ch=1 n=d6 v=90
1512688 On ch=1 n=d5 v=97
1512688 On ch=1 n=d3 v=86
1512688 On ch=1 n=f2 v=85
1512688 On ch=1 n=a#2 v=86
1512709 On ch=1 n=f3 v=92
1512758 On ch=1 n=f5 v=0
1512765 On ch=1 n=d5 v=0
1512809 On ch=1 n=f3 v=0
1512809 On ch=1 n=a#5 v=0
1512814 On ch=1 n=a#2 v=0
1512814 On ch=1 n=d6 v=0
1512830 On ch=1 n=d3 v=0
1512834 On ch=1 n=f2 v=0
1513029 On ch=1 n=d6 v=75
1513029 On ch=1 n=a#2 v=88
1513041 On ch=1 n=d3 v=92
1513041 On ch=1 n=f2 v=87
1513041 On ch=1 n=f3 v=94
1513041 On ch=1 n=f5 v=98
1513041 On ch=1 n=f6 v=87
1513041 On ch=1 n=a#5 v=93
1513070 On ch=1 n=f5 v=0
1513073 On ch=1 n=a#5 v=0
1513117 On ch=1 n=f6 v=0
1513121 On ch=1 n=d6 v=0
1513177 On ch=1 n=f3 v=0
1513185 On ch=1 n=f2 v=0
1513209 On ch=1 n=d3 v=0
1513217 On ch=1 n=a#2 v=0
1513354 On ch=1 n=d3 v=75
1513361 On ch=1 n=f6 v=85
1513361 On ch=1 n=a#2 v=90
1513361 On ch=1 n=d6 v=82
1513361 On ch=1 n=f3 v=92
1513365 On ch=1 n=f2 v=91
1513365 On ch=1 n=a#5 v=96
1513365 On ch=1 n=a#6 v=89
1513405 On ch=1 n=a#5 v=0
1513413 On ch=1 n=d6 v=0
1513445 On ch=1 n=f6 v=0
1513457 On ch=1 n=d3 v=0
1513464 On ch=1 n=a#6 v=0
1513498 On ch=1 n=f3 v=0
1513517 On ch=1 n=f2 v=0
1513594 On ch=1 n=a#2 v=0
1513690 On ch=1 n=d3 v=79
1513690 On ch=1 n=f6 v=91
1513690 On ch=1 n=a#2 v=90
1513694 On ch=1 n=a#6 v=87
1513694 On ch=1 n=d6 v=95
1513694 On ch=1 n=f3 v=92
1513698 On ch=1 n=f2 v=91
1513698 On ch=1 n=d7 v=91
1513769 On ch=1 n=f6 v=0
1513777 On ch=1 n=d6 v=0
1513805 On ch=1 n=d7 v=0
1513805 On ch=1 n=a#6 v=0
1513821 On ch=1 n=d3 v=0
1513829 On ch=1 n=a#2 v=0
1513841 On ch=1 n=f3 v=0
1513862 On ch=1 n=f2 v=0
1514022 On ch=1 n=d3 v=74
1514022 On ch=1 n=d7 v=71
1514025 On ch=1 n=a#2 v=86
1514025 On ch=1 n=a#6 v=91
1514025 On ch=1 n=f6 v=96
1514025 On ch=1 n=f2 v=87
1514025 On ch=1 n=f3 v=92
1514029 On ch=1 n=f7 v=89
1514074 On ch=1 n=f6 v=0
1514101 On ch=1 n=f7 v=0
1514101 On ch=1 n=a#6 v=0
1514141 On ch=1 n=d7 v=0
1514157 On ch=1 n=f3 v=0
1514182 On ch=1 n=f2 v=0
1514182 On ch=1 n=a#2 v=0
1514290 On ch=1 n=d3 v=0
1514348 On ch=1 n=a#2 v=90
1514348 On ch=1 n=f3 v=94
1514348 On ch=1 n=f7 v=89
1514348 On ch=1 n=f2 v=91
1514350 On ch=1 n=d7 v=83
1514350 On ch=1 n=a#6 v=99
1514350 On ch=1 n=a#7 v=98
1514354 On ch=1 n=d3 v=98
1514441 On ch=1 n=a#6 v=0
1514458 On ch=1 n=d7 v=0
1514497 On ch=1 n=f7 v=0
1514507 On ch=1 n=d3 v=0
1514507 On ch=1 n=a#7 v=0
1514555 On ch=1 n=f2 v=0
1514574 On ch=1 n=f3 v=0
1514631 On ch=1 n=a#2 v=0
1514858 On ch=1 n=d3 v=84
1514862 On ch=1 n=a#7 v=95
1514862 On ch=1 n=f7 v=97
1514862 On ch=1 n=d7 v=99
1514862 On ch=1 n=f2 v=89
1514862 On ch=1 n=f3 v=88
1514866 On ch=1 n=a#2 v=84
1514867 On ch=1 n=d8 v=100
1514995 On ch=1 n=d7 v=0
1515014 On ch=1 n=f7 v=0
1515034 On ch=1 n=d8 v=0
1515067 On ch=1 n=a#7 v=0
1515182 On ch=1 n=f3 v=0
1515202 On ch=1 n=f2 v=0
1515202 On ch=1 n=d3 v=0
1515226 On ch=1 n=a#2 v=0
1515427 On ch=1 n=d8 v=98
1515427 On ch=1 n=a#7 v=107
1515427 On ch=1 n=d3 v=82
1515427 On ch=1 n=f8 v=104
1515431 On ch=1 n=f2 v=85
1515431 On ch=1 n=a#2 v=82
1515431 On ch=1 n=f7 v=99
1515431 On ch=1 n=f3 v=86
1515661 On ch=1 n=f7 v=0
1515678 On ch=1 n=d8 v=0
1515688 On ch=1 n=f8 v=0
1515696 On ch=1 n=a#7 v=0
1515703 On ch=1 n=d3 v=0
1515711 On ch=1 n=f3 v=0
1515711 On ch=1 n=f2 v=0
1515719 On ch=1 n=a#2 v=0
1515943 On ch=1 n=f#7 v=104
1515944 On ch=1 n=c#8 v=99
1515947 On ch=1 n=a#7 v=98
1515947 On ch=1 n=e3 v=127
1515947 On ch=1 n=e2 v=127
1515983 Par ch=1 c=64 v=0
1516108 Par ch=1 c=64 v=127
1516199 On ch=1 n=e3 v=0
1516211 On ch=1 n=e2 v=0
1516222 On ch=1 n=a#7 v=0
1516222 On ch=1 n=c#8 v=0
1516222 On ch=1 n=f#7 v=0
1516283 On ch=1 n=f#8 v=43
1516328 On ch=1 n=f#8 v=0
1516351 On ch=1 n=f#7 v=54
1516355 On ch=1 n=c#8 v=58
1516355 On ch=1 n=a#7 v=64
1516383 On ch=1 n=f#7 v=0
1516399 On ch=1 n=a#7 v=0
1516408 On ch=1 n=c#8 v=0
1516412 On ch=1 n=f#8 v=72
1516424 On ch=1 n=f#3 v=93
1516427 On ch=1 n=f#2 v=92
1516468 On ch=1 n=a#7 v=65
1516475 On ch=1 n=f#7 v=60
1516485 On ch=1 n=f#3 v=0
1516485 On ch=1 n=f#8 v=0
1516485 On ch=1 n=c#8 v=69
1516493 On ch=1 n=f#2 v=0
1516496 On ch=1 n=f#7 v=0
1516520 On ch=1 n=a#7 v=0
1516528 On ch=1 n=c#8 v=0
1516549 On ch=1 n=f#8 v=63
1516609 On ch=1 n=a#7 v=72
1516609 On ch=1 n=f#7 v=66
1516609 On ch=1 n=c#8 v=73
1516621 On ch=1 n=f#8 v=0
1516636 On ch=1 n=f#7 v=0
1516656 On ch=1 n=a#7 v=0
1516659 On ch=1 n=f#8 v=47
1516669 On ch=1 n=c#8 v=0
1516729 On ch=1 n=a#3 v=101
1516732 On ch=1 n=a#2 v=95
1516732 On ch=1 n=a#7 v=77
1516742 On ch=1 n=c#8 v=66
1516742 On ch=1 n=f#7 v=78
1516758 On ch=1 n=f#8 v=0
1516786 On ch=1 n=f#7 v=0
1516802 On ch=1 n=a#7 v=0
1516817 On ch=1 n=c#8 v=0
1516817 On ch=1 n=f#8 v=61
1516827 On ch=1 n=a#2 v=0
1516835 On ch=1 n=a#3 v=0
1516867 On ch=1 n=c#8 v=59
1516870 On ch=1 n=a#7 v=68
1516886 On ch=1 n=f#7 v=71
1516895 On ch=1 n=f#8 v=0
1516913 On ch=1 n=f#7 v=0
1516942 On ch=1 n=a#7 v=0
1516952 On ch=1 n=c#8 v=0
1516952 On ch=1 n=f#8 v=60
1517007 On ch=1 n=c#8 v=67
1517012 On ch=1 n=a#7 v=82
1517012 On ch=1 n=c#4 v=111
1517016 On ch=1 n=c#3 v=100
1517016 On ch=1 n=f#7 v=84
1517031 On ch=1 n=f#8 v=0
1517066 On ch=1 n=f#7 v=0
1517092 On ch=1 n=a#7 v=0
1517092 On ch=1 n=c#8 v=0
1517096 On ch=1 n=f#8 v=67
1517131 On ch=1 n=c#4 v=0
1517136 On ch=1 n=c#3 v=0
1517167 On ch=1 n=c#8 v=67
1517170 On ch=1 n=a#7 v=70
1517180 On ch=1 n=f#7 v=74
1517183 On ch=1 n=f#8 v=0
1517212 On ch=1 n=f#7 v=0
1517227 On ch=1 n=a#7 v=0
1517227 On ch=1 n=f#8 v=59
1517256 On ch=1 n=c#8 v=0
1517290 On ch=1 n=e3 v=93
1517300 On ch=1 n=e4 v=94
1517303 On ch=1 n=a#7 v=70
1517303 On ch=1 n=c#8 v=56
1517319 On ch=1 n=f#7 v=75
1517323 On ch=1 n=f#8 v=0
1517347 On ch=1 n=f#7 v=0
1517351 On ch=1 n=e4 v=0
1517363 On ch=1 n=a#7 v=0
1517363 On ch=1 n=e3 v=0
1517380 On ch=1 n=c#8 v=0
1517383 On ch=1 n=f#8 v=63
1517451 On ch=1 n=a#7 v=78
1517452 On ch=1 n=c#8 v=67
1517452 On ch=1 n=f#7 v=74
1517467 On ch=1 n=f#8 v=0
1517476 On ch=1 n=f#7 v=0
1517503 On ch=1 n=a#7 v=0
1517524 On ch=1 n=f#8 v=59
1517527 On ch=1 n=c#8 v=0
1517527 On ch=1 n=f#4 v=96
1517531 On ch=1 n=f#3 v=91
1517571 On ch=1 n=a#7 v=77
1517583 On ch=1 n=c#8 v=59
1517587 On ch=1 n=f#4 v=0
1517591 On ch=1 n=f#7 v=74
1517599 On ch=1 n=f#3 v=0
1517607 On ch=1 n=f#8 v=0
1517627 On ch=1 n=f#7 v=0
1517643 On ch=1 n=a#7 v=0
1517659 On ch=1 n=c#8 v=0
1517669 On ch=1 n=f#8 v=67
1517720 On ch=1 n=a#7 v=80
1517720 On ch=1 n=c#8 v=64
1517727 On ch=1 n=f#7 v=78
1517744 On ch=1 n=f#8 v=0
1517760 On ch=1 n=f#7 v=0
1517770 On ch=1 n=a#4 v=106
1517770 On ch=1 n=a#3 v=99
1517785 On ch=1 n=a#7 v=0
1517785 On ch=1 n=f#8 v=57
1517801 On ch=1 n=c#8 v=0
1517850 On ch=1 n=c#8 v=65
1517850 On ch=1 n=a#7 v=80
1517865 On ch=1 n=f#7 v=82
1517869 On ch=1 n=a#3 v=0
1517869 On ch=1 n=a#4 v=0
1517880 On ch=1 n=f#8 v=0
1517921 On ch=1 n=f#7 v=0
1517921 On ch=1 n=a#7 v=0
1517941 On ch=1 n=c#8 v=0
1517941 On ch=1 n=f#8 v=60
1518005 On ch=1 n=c#8 v=65
1518005 On ch=1 n=a#7 v=80
1518005 On ch=1 n=f#7 v=75
1518030 On ch=1 n=c#5 v=98
1518034 On ch=1 n=f#8 v=0
1518034 On ch=1 n=c#4 v=92
1518053 On ch=1 n=f#7 v=0
1518053 On ch=1 n=a#7 v=0
1518081 On ch=1 n=f#8 v=64
1518089 On ch=1 n=c#8 v=0
1518117 On ch=1 n=c#4 v=0
1518121 On ch=1 n=c#5 v=0
1518137 On ch=1 n=a#7 v=77
1518146 On ch=1 n=c#8 v=59
1518150 On ch=1 n=f#7 v=77
1518165 On ch=1 n=f#8 v=0
1518186 On ch=1 n=f#7 v=0
1518201 On ch=1 n=a#7 v=0
1518218 On ch=1 n=f#8 v=67
1518233 On ch=1 n=c#8 v=0
1518294 On ch=1 n=a#7 v=82
1518294 On ch=1 n=e5 v=94
1518294 On ch=1 n=e4 v=97
1518297 On ch=1 n=c#8 v=62
1518305 On ch=1 n=f#7 v=78
1518320 On ch=1 n=f#8 v=0
1518337 On ch=1 n=f#7 v=0
1518341 On ch=1 n=e5 v=0
1518353 On ch=1 n=e4 v=0
1518353 On ch=1 n=a#7 v=0
1518363 On ch=1 n=f#8 v=64
1518367 On ch=1 n=c#8 v=0
1518438 On ch=1 n=c#8 v=69
1518438 On ch=1 n=a#7 v=80
1518450 On ch=1 n=f#7 v=77
1518470 On ch=1 n=f#8 v=0
1518481 On ch=1 n=f#7 v=0
1518501 On ch=1 n=a#7 v=0
1518501 On ch=1 n=f#8 v=53
1518522 On ch=1 n=c#8 v=0
1518570 On ch=1 n=f#5 v=102
1518570 On ch=1 n=f#4 v=93
1518580 On ch=1 n=c#8 v=64
1518580 On ch=1 n=a#7 v=82
1518580 On ch=1 n=f#7 v=78
1518607 On ch=1 n=f#8 v=0
1518640 On ch=1 n=f#7 v=0
1518640 On ch=1 n=f#4 v=0
1518640 On ch=1 n=f#5 v=0
1518644 On ch=1 n=a#7 v=0
1518655 On ch=1 n=c#8 v=0
1518655 On ch=1 n=f#8 v=61
1518728 On ch=1 n=c#8 v=69
1518732 On ch=1 n=a#7 v=80
1518747 On ch=1 n=f#7 v=74
1518751 On ch=1 n=f#8 v=0
1518780 On ch=1 n=f#7 v=0
1518791 On ch=1 n=a#7 v=0
1518808 On ch=1 n=f#8 v=65
1518811 On ch=1 n=c#8 v=0
1518871 On ch=1 n=a#4 v=89
1518871 On ch=1 n=a#5 v=96
1518878 On ch=1 n=c#8 v=65
1518880 On ch=1 n=a#7 v=82
1518880 On ch=1 n=f#7 v=78
1518895 On ch=1 n=f#8 v=0
1518935 On ch=1 n=f#7 v=0
1518939 On ch=1 n=a#4 v=0
1518951 On ch=1 n=a#7 v=0
1518955 On ch=1 n=a#5 v=0
1518958 On ch=1 n=f#8 v=75
1518960 On ch=1 n=c#8 v=0
1519024 On ch=1 n=a#7 v=78
1519028 On ch=1 n=c#8 v=62
1519031 On ch=1 n=f#7 v=82
1519047 On ch=1 n=f#8 v=0
1519080 On ch=1 n=f#7 v=0
1519091 On ch=1 n=a#7 v=0
1519111 On ch=1 n=c#8 v=0
1519111 On ch=1 n=f#8 v=68
1519167 On ch=1 n=c#8 v=59
1519167 On ch=1 n=c#6 v=99
1519167 On ch=1 n=a#7 v=77
1519171 On ch=1 n=c#5 v=78
1519178 On ch=1 n=f#7 v=77
1519195 On ch=1 n=c#5 v=0
1519255 On ch=1 n=c#6 v=0
1519271 On ch=1 n=c#8 v=0
1519288 On ch=1 n=f#8 v=0
1519288 On ch=1 n=f#8 v=59
1519331 On ch=1 n=c#8 v=66
1519364 On ch=1 n=a#7 v=0
1519371 On ch=1 n=a#7 v=59
1519375 On ch=1 n=f#5 v=70
1519379 On ch=1 n=a#5 v=76
1519408 On ch=1 n=f#8 v=0
1519412 On ch=1 n=c#6 v=66
1519419 On ch=1 n=f#7 v=0
1519435 On ch=1 n=a#7 v=0
1519438 On ch=1 n=c#8 v=0
1519479 On ch=1 n=f#6 v=97
1519483 On ch=1 n=c#8 v=76
1519495 On ch=1 n=a#7 v=98
1519495 On ch=1 n=f#7 v=104
1519498 On ch=1 n=f#8 v=100
1519531 On ch=1 n=f#7 v=0
1519539 On ch=1 n=a#7 v=0
1519551 On ch=1 n=c#8 v=0
1519555 On ch=1 n=a#5 v=0
1519564 On ch=1 n=f#8 v=0
1519564 On ch=1 n=f#6 v=0
1519568 On ch=1 n=f#5 v=0
1519579 On ch=1 n=c#6 v=0
1524051 Par ch=1 c=64 v=0
1526547 Par ch=1 c=67 v=127
1526651 Par ch=1 c=64 v=127
1526815 On ch=1 n=f#5 v=44
1526835 On ch=1 n=c#5 v=39
1526851 On ch=1 n=a#4 v=40
1526854 On ch=1 n=f#4 v=41
1526860 On ch=1 n=e3 v=43
1527395 On ch=1 n=c#5 v=0
1527398 On ch=1 n=a#4 v=0
1527444 On ch=1 n=f#5 v=0
1527592 On ch=1 n=f#4 v=0
1527595 On ch=1 n=e3 v=0
1528032 On ch=1 n=f#5 v=55
1528032 On ch=1 n=d#3 v=36
1528032 On ch=1 n=b4 v=39
1528032 On ch=1 n=f#4 v=39
1528332 Par ch=1 c=64 v=0
1528591 Par ch=1 c=64 v=127
1528867 On ch=1 n=b5 v=51
1529099 On ch=1 n=f#5 v=0
1529311 On ch=1 n=f#4 v=0
1529480 On ch=1 n=d#3 v=0
1529532 On ch=1 n=g#5 v=57
1529678 On ch=1 n=b4 v=0
1529967 On ch=1 n=c#3 v=33
1530248 On ch=1 n=f#5 v=56
1530264 On ch=1 n=b4 v=34
1530287 Par ch=1 c=64 v=0
1530319 On ch=1 n=d#4 v=32
1530407 On ch=1 n=b5 v=0
1530475 On ch=1 n=g#5 v=0
1530504 Par ch=1 c=64 v=127
1530579 On ch=1 n=c#3 v=0
1530815 On ch=1 n=d#4 v=0
1530999 On ch=1 n=g#4 v=42
1531115 Par ch=1 c=64 v=0
1531251 Par ch=1 c=64 v=127
1531571 On ch=1 n=e5 v=40
1531648 On ch=1 n=g#4 v=0
1531731 On ch=1 n=f#5 v=0
1532039 On ch=1 n=e4 v=36
1532198 On ch=1 n=b4 v=0
1532318 On ch=1 n=e4 v=0
1532635 On ch=1 n=d#5 v=45
1532664 On ch=1 n=e5 v=0
1533371 On ch=1 n=c#5 v=43
1533371 On ch=1 n=g#4 v=35
1533371 On ch=1 n=e4 v=37
1533375 On ch=1 n=f#3 v=35
1533474 On ch=1 n=d#5 v=0
1533640 Par ch=1 c=64 v=0
1533831 On ch=1 n=d#5 v=50
1533867 On ch=1 n=c#5 v=0
1533887 Par ch=1 c=64 v=127
1534004 On ch=1 n=c#5 v=54
1534155 On ch=1 n=c5 v=65
1534180 On ch=1 n=c#5 v=0
1534228 On ch=1 n=d#5 v=0
1534319 On ch=1 n=c#5 v=66
1534398 On ch=1 n=c5 v=0
1534495 Par ch=1 c=64 v=0
1534559 On ch=1 n=g#5 v=65
1534611 On ch=1 n=c#5 v=0
1534814 Par ch=1 c=64 v=127
1534875 On ch=1 n=e4 v=0
1534878 On ch=1 n=f#3 v=0
1535304 On ch=1 n=a#4 v=37
1535312 On ch=1 n=c#5 v=37
1535312 On ch=1 n=f#3 v=33
1535312 On ch=1 n=e4 v=33
1535471 Par ch=1 c=64 v=0
1535500 On ch=1 n=g#5 v=0
1535598 Par ch=1 c=64 v=127
1535820 On ch=1 n=e4 v=0
1535879 On ch=1 n=f#3 v=0
1535987 On ch=1 n=a#4 v=0
1535987 On ch=1 n=f#5 v=42
1536008 On ch=1 n=c#5 v=0
1536118 On ch=1 n=g#4 v=0
1536128 On ch=1 n=f#5 v=0
1536415 On ch=1 n=f#5 v=45
1536457 On ch=1 n=b4 v=32
1536457 On ch=1 n=f#3 v=37
1536457 On ch=1 n=d#4 v=35
1536637 Par ch=1 c=64 v=0
1537108 Par ch=1 c=64 v=127
1537397 On ch=1 n=b4 v=0
1537656 On ch=1 n=f#5 v=0
1537977 On ch=1 n=d#4 v=0
1538611 On ch=1 n=d#5 v=33
1538621 On ch=1 n=f#4 v=34
1538652 On ch=1 n=b3 v=35
1538808 Par ch=1 c=64 v=0
1538997 Par ch=1 c=64 v=127
1539132 On ch=1 n=b3 v=0
1539161 On ch=1 n=f#4 v=0
1539315 On ch=1 n=f#3 v=0
1539357 On ch=1 n=d#5 v=0
1539991 On ch=1 n=f#5 v=54
1540012 On ch=1 n=b4 v=40
1540012 On ch=1 n=d#3 v=36
1540022 Par ch=1 c=64 v=0
1540025 On ch=1 n=f#4 v=36
1540033 On ch=1 n=b3 v=39
1540282 Par ch=1 c=64 v=127
1540362 On ch=1 n=b4 v=0
1540466 On ch=1 n=f#4 v=0
1540485 On ch=1 n=b3 v=0
1540513 On ch=1 n=d#3 v=0
1540532 On ch=1 n=f#5 v=0
1540726 On ch=1 n=d#5 v=46
1540729 On ch=1 n=g4 v=39
1540741 On ch=1 n=d#3 v=39
1540773 On ch=1 n=b3 v=39
1540806 On ch=1 n=d#3 v=0
1540806 On ch=1 n=g4 v=0
1540845 On ch=1 n=b3 v=0
1540945 On ch=1 n=d#3 v=43
1540952 On ch=1 n=g4 v=41
1540961 On ch=1 n=b3 v=40
1541034 Par ch=1 c=64 v=0
1541142 Par ch=1 c=64 v=127
1541214 On ch=1 n=d#5 v=0
1541289 On ch=1 n=g4 v=0
1541441 On ch=1 n=d#3 v=0
1541781 On ch=1 n=g#4 v=39
1541814 On ch=1 n=e3 v=42
1541869 Par ch=1 c=64 v=0
1542094 Par ch=1 c=64 v=127
1542225 On ch=1 n=g#4 v=0
1542349 On ch=1 n=d#5 v=45
1542772 On ch=1 n=c#5 v=58
1542798 On ch=1 n=b3 v=0
1542869 On ch=1 n=e3 v=0
1543194 On ch=1 n=b4 v=58
1543289 On ch=1 n=d#5 v=0
1543368 On ch=1 n=c#5 v=0
1543805 On ch=1 n=a#5 v=49
1543809 Par ch=1 c=64 v=0
1544082 On ch=1 n=b4 v=0
1544662 Par ch=1 c=64 v=127
1545141 On ch=1 n=a#5 v=0
1545769 On ch=1 n=g#5 v=39
1545845 Par ch=1 c=64 v=0
1545993 Par ch=1 c=64 v=127
1546154 On ch=1 n=g#5 v=0
1546597 Par ch=1 c=67 v=0
1546714 On ch=1 n=f#6 v=48
1546729 On ch=1 n=f#5 v=38
1546739 On ch=1 n=d#4 v=34
1546750 On ch=1 n=b4 v=39
1546782 Par ch=1 c=64 v=0
1547009 Par ch=1 c=64 v=127
1547098 On ch=1 n=b4 v=0
1547163 On ch=1 n=f#5 v=0
1547239 On ch=1 n=d#4 v=0
1547383 On ch=1 n=f#6 v=0
1547478 On ch=1 n=d#6 v=46
1547489 On ch=1 n=d#4 v=33
1547499 On ch=1 n=b4 v=36
1547503 On ch=1 n=g5 v=35
1547576 On ch=1 n=g5 v=0
1547576 On ch=1 n=b4 v=0
1547668 On ch=1 n=d#4 v=0
1547712 On ch=1 n=g5 v=38
1547712 On ch=1 n=d#4 v=38
1547727 On ch=1 n=b4 v=36
1547787 Par ch=1 c=64 v=0
1547915 Par ch=1 c=64 v=127
1547940 On ch=1 n=g5 v=0
1548139 On ch=1 n=d#6 v=0
1548239 On ch=1 n=d#4 v=0
1548576 On ch=1 n=g#5 v=39
1548576 On ch=1 n=e4 v=40
1548627 Par ch=1 c=64 v=0
1548827 Par ch=1 c=64 v=127
1548963 On ch=1 n=g#5 v=0
1549132 On ch=1 n=d#6 v=53
1549216 On ch=1 n=b4 v=0
1549400 On ch=1 n=e4 v=0
1549575 On ch=1 n=c#6 v=67
1549859 On ch=1 n=d#6 v=0
1549992 On ch=1 n=b5 v=58
1550052 Par ch=1 c=64 v=0
1550192 On ch=1 n=c#6 v=0
1550216 Par ch=1 c=64 v=127
1550583 Par ch=1 c=64 v=0
1550599 On ch=1 n=a#6 v=57
1550743 Par ch=1 c=64 v=127
1550763 On ch=1 n=b5 v=0
1551083 Par ch=1 c=67 v=127
1551407 On ch=1 n=b5 v=41
1551439 On ch=1 n=c#5 v=36
1551455 On ch=1 n=f4 v=39
1551679 Par ch=1 c=67 v=0
1551780 On ch=1 n=g#6 v=61
1551791 On ch=1 n=b5 v=0
1552139 On ch=1 n=f#6 v=63
1552143 On ch=1 n=f#4 v=46
1552152 On ch=1 n=a#5 v=50
1552182 Par ch=1 c=64 v=0
1552247 On ch=1 n=f4 v=0
1552266 Par ch=1 c=64 v=127
1552319 On ch=1 n=a#6 v=0
1552383 On ch=1 n=g#6 v=0
1552387 On ch=1 n=a#5 v=0
1552496 On ch=1 n=f6 v=69
1552511 On ch=1 n=g#4 v=57
1552515 On ch=1 n=b5 v=57
1552602 On ch=1 n=b5 v=0
1552666 On ch=1 n=f#4 v=0
1552723 On ch=1 n=c#5 v=0
1552728 On ch=1 n=g#4 v=0
1552759 On ch=1 n=f#6 v=0
1552783 On ch=1 n=f6 v=0
1553000 On ch=1 n=d#7 v=77
1553023 On ch=1 n=f#5 v=46
1553027 On ch=1 n=e6 v=50
1553035 On ch=1 n=a#4 v=47
1553288 Par ch=1 c=64 v=0
1553546 Par ch=1 c=64 v=127
1553955 On ch=1 n=g5 v=43
1554015 On ch=1 n=f#5 v=0
1554352 On ch=1 n=c#7 v=74
1554399 On ch=1 n=g5 v=0
1554399 On ch=1 n=e6 v=0
1554409 On ch=1 n=a#4 v=0
1554760 On ch=1 n=d#7 v=0
1554760 On ch=1 n=b6 v=75
1554772 On ch=1 n=b4 v=53
1554772 On ch=1 n=g#5 v=55
1554772 On ch=1 n=d#6 v=60
1554836 Par ch=1 c=64 v=0
1554869 On ch=1 n=c#7 v=0
1554956 Par ch=1 c=64 v=127
1555013 On ch=1 n=d#6 v=0
1555013 On ch=1 n=g#5 v=0
1555049 On ch=1 n=b4 v=0
1555165 On ch=1 n=a#6 v=81
1555165 On ch=1 n=a#5 v=65
1555165 On ch=1 n=c#6 v=66
1555165 On ch=1 n=c#5 v=63
1555265 On ch=1 n=c#6 v=0
1555284 On ch=1 n=b6 v=0
1555404 On ch=1 n=a#5 v=0
1555465 On ch=1 n=a#6 v=0
1555719 On ch=1 n=c#5 v=0
1555776 On ch=1 n=g#7 v=88
1555796 On ch=1 n=d#5 v=49
1555796 On ch=1 n=b5 v=51
1555799 On ch=1 n=a6 v=60
1556096 Par ch=1 c=64 v=0
1556712 Par ch=1 c=64 v=127
1557209 On ch=1 n=c6 v=58
1557293 On ch=1 n=b5 v=0
1557617 Par ch=1 c=64 v=0
1558076 Par ch=1 c=64 v=127
1558843 On ch=1 n=d#5 v=0
1558872 On ch=1 n=c6 v=0
1558997 On ch=1 n=a6 v=0
1559736 On ch=1 n=f#7 v=55
1559757 On ch=1 n=a6 v=36
1559765 On ch=1 n=d#6 v=36
1559772 On ch=1 n=c6 v=37
1559892 On ch=1 n=a6 v=0
1559949 On ch=1 n=g#7 v=0
1559980 On ch=1 n=f#7 v=0
1560280 On ch=1 n=c6 v=0
1560280 On ch=1 n=e7 v=67
1560309 On ch=1 n=d#6 v=0
1560309 On ch=1 n=g#6 v=43
1560312 On ch=1 n=e6 v=55
1560316 On ch=1 n=c#6 v=47
1560323 Par ch=1 c=64 v=0
1560403 On ch=1 n=c#6 v=0
1560417 Par ch=1 c=64 v=127
1560559 On ch=1 n=g#6 v=0
1560609 On ch=1 n=e7 v=0
1560676 On ch=1 n=e6 v=0
1560717 On ch=1 n=d#7 v=66
1560725 On ch=1 n=f#6 v=50
1560740 On ch=1 n=g#5 v=46
1560756 On ch=1 n=c6 v=41
1560893 On ch=1 n=f#6 v=0
1561036 On ch=1 n=g#5 v=0
1561076 On ch=1 n=c6 v=0
1561083 On ch=1 n=c#7 v=68
1561085 On ch=1 n=a5 v=50
1561096 On ch=1 n=c#6 v=45
1561112 Par ch=1 c=64 v=0
1561112 On ch=1 n=e6 v=50
1561185 Par ch=1 c=64 v=127
1561196 On ch=1 n=a5 v=0
1561284 On ch=1 n=d#7 v=0
1561305 On ch=1 n=e6 v=0
1561356 On ch=1 n=c#7 v=0
1561416 On ch=1 n=b6 v=59
1561426 On ch=1 n=f5 v=48
1561440 On ch=1 n=g#5 v=44
1561450 On ch=1 n=c#6 v=0
1561454 On ch=1 n=d6 v=43
1561533 On ch=1 n=d6 v=0
1561702 On ch=1 n=f5 v=0
1561753 On ch=1 n=a#6 v=63
1561765 On ch=1 n=g#5 v=0
1561765 On ch=1 n=a#5 v=36
1561769 On ch=1 n=f#5 v=46
1561776 Par ch=1 c=64 v=0
1561790 On ch=1 n=c#6 v=38
1561873 On ch=1 n=f#5 v=0
1561881 Par ch=1 c=64 v=127
1561885 On ch=1 n=b6 v=0
1562021 On ch=1 n=c#6 v=0
1562109 On ch=1 n=a6 v=57
1562119 On ch=1 n=a#5 v=0
1562134 On ch=1 n=a#6 v=0
1562134 On ch=1 n=c6 v=38
1562138 On ch=1 n=f#5 v=45
1562150 On ch=1 n=d#5 v=45
1562314 On ch=1 n=c6 v=0
1562390 On ch=1 n=d#5 v=0
1562478 On ch=1 n=f#5 v=0
1562483 On ch=1 n=e5 v=48
1562483 On ch=1 n=g#6 v=59
1562498 On ch=1 n=g#5 v=39
1562506 Par ch=1 c=64 v=0
1562510 On ch=1 n=b5 v=49
1562630 On ch=1 n=e5 v=0
1562639 Par ch=1 c=64 v=127
1562657 On ch=1 n=b5 v=0
1562879 On ch=1 n=c5 v=45
1562879 On ch=1 n=f#6 v=56
1562894 On ch=1 n=a5 v=41
1562894 On ch=1 n=d#5 v=39
1562910 On ch=1 n=g#5 v=0
1562991 On ch=1 n=a5 v=0
1562994 On ch=1 n=a6 v=0
1563033 On ch=1 n=g#6 v=0
1563098 On ch=1 n=f#6 v=0
1563154 On ch=1 n=c5 v=0
1563283 On ch=1 n=e6 v=53
1563286 On ch=1 n=c#5 v=44
1563298 On ch=1 n=e5 v=36
1563298 Par ch=1 c=64 v=0
1563318 On ch=1 n=g#5 v=36
1563334 On ch=1 n=d#5 v=0
1563417 On ch=1 n=c#5 v=0
1563434 Par ch=1 c=64 v=127
1563510 On ch=1 n=g#5 v=0
1563607 On ch=1 n=e6 v=0
1563687 On ch=1 n=e5 v=0
1563699 On ch=1 n=d#6 v=54
1563739 On ch=1 n=g#4 v=41
1563739 Par ch=1 c=64 v=0
1563758 On ch=1 n=f#5 v=41
1563774 On ch=1 n=c5 v=42
1563850 Par ch=1 c=64 v=127
1563879 On ch=1 n=f#5 v=0
1564190 On ch=1 n=g#4 v=0
1564207 On ch=1 n=c#6 v=66
1564250 On ch=1 n=c5 v=0
1564266 On ch=1 n=c#5 v=41
1564266 On ch=1 n=e5 v=42
1564273 On ch=1 n=a4 v=40
1564311 Par ch=1 c=64 v=0
1564430 On ch=1 n=d#6 v=0
1564650 Par ch=1 c=64 v=127
1564910 On ch=1 n=e4 v=41
1564910 On ch=1 n=a5 v=42
1564920 On ch=1 n=e5 v=0
1565071 On ch=1 n=e4 v=0
1565424 On ch=1 n=g#5 v=41
1565455 On ch=1 n=f4 v=41
1565476 On ch=1 n=a5 v=0
1565487 On ch=1 n=a4 v=0
1565531 Par ch=1 c=64 v=0
1565815 Par ch=1 c=64 v=127
1565948 On ch=1 n=c6 v=46
1566187 On ch=1 n=c#6 v=0
1566243 On ch=1 n=g#5 v=0
1566614 On ch=1 n=g5 v=39
1566631 On ch=1 n=d5 v=41
1566707 Par ch=1 c=64 v=0
1566727 On ch=1 n=c#5 v=0
1567307 Par ch=1 c=64 v=127
1567543 On ch=1 n=b5 v=38
1567647 Par ch=1 c=64 v=0
1567767 On ch=1 n=c6 v=0
1567774 Par ch=1 c=64 v=127
1567951 On ch=1 n=g5 v=0
1567967 On ch=1 n=d5 v=0
1568031 On ch=1 n=b5 v=0
1568036 On ch=1 n=f4 v=0
1568755 On ch=1 n=f#6 v=48
1568755 On ch=1 n=b5 v=40
1568764 On ch=1 n=f#5 v=41
1568764 On ch=1 n=f#4 v=40
1568764 On ch=1 n=d#5 v=40
1568995 Par ch=1 c=64 v=0
1569607 Par ch=1 c=64 v=127
1570063 On ch=1 n=b5 v=0
1570067 On ch=1 n=f#4 v=0
1570067 On ch=1 n=f#5 v=0
1570071 On ch=1 n=d#5 v=0
1570095 On ch=1 n=f#6 v=0
1570951 On ch=1 n=d#6 v=48
1571480 On ch=1 n=b5 v=49
1571931 On ch=1 n=g#5 v=45
1572376 On ch=1 n=f#5 v=46
1572407 Par ch=1 c=64 v=0
1572603 On ch=1 n=b5 v=0
1572607 On ch=1 n=g#5 v=0
1572690 On ch=1 n=d#6 v=0
1572707 Par ch=1 c=64 v=127
1572895 On ch=1 n=f5 v=47
1572947 On ch=1 n=f#5 v=0
1573136 On ch=1 n=f5 v=0
1573455 On ch=1 n=e5 v=45
1573491 On ch=1 n=f#4 v=41
1573494 On ch=1 n=g#4 v=41
1573504 Par ch=1 c=64 v=0
1573504 On ch=1 n=b4 v=42
1573767 On ch=1 n=f#5 v=44
1573791 On ch=1 n=e5 v=0
1573843 Par ch=1 c=64 v=127
1573967 On ch=1 n=e5 v=44
1574016 On ch=1 n=b4 v=0
1574104 On ch=1 n=f#4 v=0
1574108 On ch=1 n=f#5 v=0
1574151 On ch=1 n=d#5 v=45
1574155 On ch=1 n=e5 v=0
1574243 On ch=1 n=g#4 v=0
1574343 On ch=1 n=e5 v=42
1574394 On ch=1 n=d#5 v=0
1574467 On ch=1 n=e5 v=0
1574704 On ch=1 n=d#6 v=50
1574704 On ch=1 n=e5 v=41
1574704 On ch=1 n=f#4 v=42
1574707 On ch=1 n=a#4 v=43
1574795 Par ch=1 c=64 v=0
1575244 Par ch=1 c=64 v=127
1575467 On ch=1 n=c#6 v=41
1575477 On ch=1 n=f#4 v=0
1575484 On ch=1 n=e5 v=0
1575672 On ch=1 n=a#4 v=0
1575692 On ch=1 n=d#6 v=0
1575752 On ch=1 n=c#6 v=0
1576384 On ch=1 n=b5 v=42
1576411 On ch=1 n=d#5 v=41
1576413 On ch=1 n=f#4 v=45
1576488 Par ch=1 c=64 v=0
1576772 Par ch=1 c=64 v=127
1576782 On ch=1 n=d#5 v=0
1576808 On ch=1 n=f#4 v=0
1577221 On ch=1 n=b5 v=0
1577690 Par ch=1 c=67 v=127
1577782 On ch=1 n=f#5 v=49
1577990 Par ch=1 c=64 v=0
1578410 Par ch=1 c=64 v=127
1578877 On ch=1 n=f#5 v=0
1580045 On ch=1 n=d#5 v=33
1580633 On ch=1 n=d#5 v=0
1580637 On ch=1 n=b4 v=41
1581170 On ch=1 n=g#4 v=51
1581428 On ch=1 n=b4 v=0
1581690 On ch=1 n=f#4 v=49
1581749 Par ch=1 c=64 v=0
1581897 On ch=1 n=g#4 v=0
1581934 Par ch=1 c=64 v=127
1582273 On ch=1 n=f4 v=43
1582449 On ch=1 n=f#4 v=0
1583005 On ch=1 n=e4 v=49
1583005 On ch=1 n=d#5 v=43
1583009 On ch=1 n=f#5 v=46
1583009 On ch=1 n=g#4 v=39
1583085 On ch=1 n=f4 v=0
1583381 Par ch=1 c=64 v=0
1583529 On ch=1 n=f#4 v=53
1583573 Par ch=1 c=64 v=127
1583598 On ch=1 n=e4 v=0
1583694 On ch=1 n=g#4 v=0
1583768 On ch=1 n=e4 v=56
1583778 On ch=1 n=d#5 v=0
1583850 On ch=1 n=f#5 v=0
1583854 On ch=1 n=f#4 v=0
1583988 On ch=1 n=d#4 v=60
1584101 On ch=1 n=e4 v=0
1584230 On ch=1 n=e4 v=56
1584378 On ch=1 n=d#4 v=0
1584721 On ch=1 n=d#5 v=52
1584721 On ch=1 n=a#4 v=42
1584721 On ch=1 n=f#3 v=45
1584721 On ch=1 n=f#5 v=45
1585061 Par ch=1 c=64 v=0
1585748 Par ch=1 c=64 v=127
1587642 On ch=1 n=c#5 v=39
1587950 On ch=1 n=d#5 v=0
1587957 Par ch=1 c=64 v=0
1588268 Par ch=1 c=67 v=0
1588329 Par ch=1 c=64 v=127
1588945 On ch=1 n=e4 v=0
1588985 On ch=1 n=f#5 v=0
1589069 On ch=1 n=a#4 v=0
1589070 On ch=1 n=c#5 v=0
1589128 On ch=1 n=f#3 v=0
1590625 On ch=1 n=f#5 v=51
1590629 On ch=1 n=a4 v=40
1590634 On ch=1 n=d#5 v=40
1590634 On ch=1 n=c5 v=40
1590645 On ch=1 n=b2 v=42
1590737 Par ch=1 c=64 v=0
1590768 On ch=1 n=b2 v=0
1591090 On ch=1 n=b2 v=45
1591165 On ch=1 n=b2 v=0
1591421 On ch=1 n=b2 v=46
1591493 On ch=1 n=b2 v=0
1591738 On ch=1 n=b2 v=48
1591821 On ch=1 n=b2 v=0
1592061 On ch=1 n=b2 v=48
1592338 On ch=1 n=b2 v=0
1592345 On ch=1 n=a2 v=41
1592434 On ch=1 n=a2 v=0
1592465 On ch=1 n=g2 v=56
1592530 On ch=1 n=g2 v=0
1592577 On ch=1 n=c3 v=58
1592638 On ch=1 n=c3 v=0
1592822 On ch=1 n=f#5 v=0
1592830 On ch=1 n=d#5 v=0
1592830 On ch=1 n=a4 v=0
1592834 On ch=1 n=c5 v=0
1592861 Par ch=1 c=64 v=127
1592922 On ch=1 n=b2 v=36
1593001 On ch=1 n=b2 v=0
1593201 On ch=1 n=b2 v=43
1593221 On ch=1 n=f#5 v=44
1593221 On ch=1 n=a5 v=55
1593225 On ch=1 n=c5 v=42
1593225 On ch=1 n=d#5 v=42
1593249 Par ch=1 c=64 v=0
1593301 On ch=1 n=b2 v=0
1593484 On ch=1 n=b2 v=39
1593548 On ch=1 n=b2 v=0
1593773 On ch=1 n=b2 v=38
1593845 On ch=1 n=b2 v=0
1594050 On ch=1 n=b2 v=37
1594121 On ch=1 n=b2 v=0
1594354 On ch=1 n=b2 v=39
1594601 On ch=1 n=b2 v=0
1594630 On ch=1 n=a2 v=43
1594721 On ch=1 n=a2 v=0
1594741 On ch=1 n=g2 v=55
1594814 On ch=1 n=g2 v=0
1594857 On ch=1 n=c3 v=59
1594905 On ch=1 n=c3 v=0
1595077 On ch=1 n=d#5 v=0
1595077 On ch=1 n=c5 v=0
1595077 On ch=1 n=a5 v=0
1595077 On ch=1 n=f#5 v=0
1595105 Par ch=1 c=64 v=127
1595157 On ch=1 n=b2 v=39
1595229 On ch=1 n=b2 v=0
1595398 Par ch=1 c=64 v=0
1595410 On ch=1 n=b2 v=36
1595425 On ch=1 n=c6 v=63
1595425 On ch=1 n=g5 v=40
1595429 On ch=1 n=e5 v=41
1595509 On ch=1 n=b2 v=0
1595681 On ch=1 n=b2 v=42
1595741 On ch=1 n=b2 v=0
1595950 On ch=1 n=b2 v=40
1596025 On ch=1 n=b2 v=0
1596230 On ch=1 n=b2 v=39
1596301 On ch=1 n=b2 v=0
1596521 On ch=1 n=b2 v=35
1596777 On ch=1 n=b2 v=0
1596797 On ch=1 n=a2 v=51
1596901 On ch=1 n=a2 v=0
1596901 On ch=1 n=g2 v=64
1597005 On ch=1 n=g2 v=0
1597015 On ch=1 n=c3 v=69
1597091 On ch=1 n=c3 v=0
1597194 On ch=1 n=c6 v=0
1597198 On ch=1 n=e5 v=0
1597198 On ch=1 n=g5 v=0
1597270 Par ch=1 c=64 v=127
1597327 On ch=1 n=b2 v=46
1597405 On ch=1 n=b2 v=0
1597526 Par ch=1 c=64 v=0
1597579 On ch=1 n=e6 v=69
1597582 On ch=1 n=c6 v=44
1597582 On ch=1 n=g5 v=45
1597582 On ch=1 n=b2 v=41
1597674 On ch=1 n=b2 v=0
1597855 On ch=1 n=b2 v=42
1597914 On ch=1 n=b2 v=0
1598138 On ch=1 n=b2 v=36
1598198 On ch=1 n=b2 v=0
1598398 On ch=1 n=b2 v=34
1598462 On ch=1 n=b2 v=0
1598691 On ch=1 n=b2 v=32
1598938 On ch=1 n=b2 v=0
1598958 On ch=1 n=a2 v=50
1599050 On ch=1 n=g2 v=67
1599054 On ch=1 n=a2 v=0
1599147 On ch=1 n=g2 v=0
1599162 On ch=1 n=c3 v=68
1599238 On ch=1 n=c3 v=0
1599386 Par ch=1 c=64 v=127
1599458 On ch=1 n=b2 v=46
1599507 On ch=1 n=e6 v=0
1599511 On ch=1 n=g5 v=0
1599511 On ch=1 n=c6 v=0
1599534 On ch=1 n=b2 v=0
1599646 On ch=1 n=d#5 v=47
1599678 Par ch=1 c=64 v=0
1599705 On ch=1 n=b5 v=55
1599711 On ch=1 n=b2 v=41
1599745 On ch=1 n=f#6 v=78
1599794 On ch=1 n=b2 v=0
1599967 On ch=1 n=b2 v=41
1600030 On ch=1 n=b2 v=0
1600238 On ch=1 n=b2 v=39
1600302 On ch=1 n=b2 v=0
1600506 On ch=1 n=b2 v=38
1600562 On ch=1 n=b2 v=0
1600806 On ch=1 n=b2 v=36
1601042 On ch=1 n=b2 v=0
1601067 On ch=1 n=a2 v=42
1601146 On ch=1 n=a2 v=0
1601155 On ch=1 n=g2 v=58
1601246 On ch=1 n=g2 v=0
1601278 On ch=1 n=c3 v=67
1601338 On ch=1 n=c3 v=0
1601518 Par ch=1 c=64 v=127
1601525 On ch=1 n=d#5 v=0
1601558 On ch=1 n=b2 v=50
1601586 On ch=1 n=b5 v=0
1601618 On ch=1 n=f#6 v=0
1601639 On ch=1 n=b2 v=0
1601662 On ch=1 n=f#5 v=51
1601702 On ch=1 n=f#5 v=0
1601722 On ch=1 n=c6 v=58
1601762 On ch=1 n=d#6 v=57
1601795 On ch=1 n=b2 v=55
1601807 On ch=1 n=a6 v=77
1601838 Par ch=1 c=64 v=0
1601874 On ch=1 n=b2 v=0
1602055 On ch=1 n=b2 v=47
1602114 On ch=1 n=b2 v=0
1602326 On ch=1 n=b2 v=44
1602378 On ch=1 n=b2 v=0
1602578 On ch=1 n=b2 v=47
1602645 On ch=1 n=b2 v=0
1602847 On ch=1 n=b2 v=42
1603065 On ch=1 n=b2 v=0
1603091 On ch=1 n=a2 v=57
1603185 On ch=1 n=a2 v=0
1603195 On ch=1 n=g2 v=71
1603276 On ch=1 n=g2 v=0
1603291 On ch=1 n=c3 v=69
1603359 On ch=1 n=c3 v=0
1603544 Par ch=1 c=64 v=127
1603548 On ch=1 n=b2 v=49
1603595 On ch=1 n=c6 v=0
1603631 On ch=1 n=d#6 v=0
1603639 On ch=1 n=b2 v=0
1603667 On ch=1 n=g5 v=56
1603675 On ch=1 n=a6 v=0
1603699 On ch=1 n=g5 v=0
1603735 On ch=1 n=e6 v=68
1603788 On ch=1 n=b2 v=57
1603815 On ch=1 n=c7 v=80
1603862 On ch=1 n=b2 v=0
1603895 Par ch=1 c=64 v=0
1604035 On ch=1 n=b2 v=53
1604088 On ch=1 n=b2 v=0
1604291 On ch=1 n=b2 v=52
1604351 On ch=1 n=b2 v=0
1604536 On ch=1 n=b2 v=51
1604607 On ch=1 n=b2 v=0
1604819 On ch=1 n=b2 v=54
1605039 On ch=1 n=b2 v=0
1605055 On ch=1 n=a2 v=57
1605143 On ch=1 n=g2 v=70
1605159 On ch=1 n=a2 v=0
1605248 On ch=1 n=g2 v=0
1605259 On ch=1 n=c3 v=75
1605339 On ch=1 n=c3 v=0
1605484 On ch=1 n=e6 v=0
1605484 Par ch=1 c=64 v=127
1605515 On ch=1 n=b2 v=64
1605575 On ch=1 n=c7 v=0
1605604 On ch=1 n=b2 v=0
1605679 On ch=1 n=c6 v=60
1605722 On ch=1 n=g6 v=67
1605768 On ch=1 n=b2 v=59
1605768 On ch=1 n=e7 v=82
1605815 Par ch=1 c=64 v=0
1605842 On ch=1 n=b2 v=0
1606015 On ch=1 n=b2 v=56
1606079 On ch=1 n=b2 v=0
1606275 On ch=1 n=b2 v=57
1606339 On ch=1 n=b2 v=0
1606528 On ch=1 n=b2 v=57
1606588 On ch=1 n=b2 v=0
1606799 On ch=1 n=b2 v=55
1607064 On ch=1 n=b2 v=0
1607079 On ch=1 n=a2 v=59
1607182 On ch=1 n=g2 v=69
1607211 On ch=1 n=a2 v=0
1607291 On ch=1 n=g2 v=0
1607319 On ch=1 n=c3 v=71
1607395 On ch=1 n=c3 v=0
1607675 On ch=1 n=b2 v=66
1607764 On ch=1 n=b2 v=0
1607932 On ch=1 n=c6 v=0
1607975 On ch=1 n=g6 v=0
1608023 Par ch=1 c=64 v=127
1608027 On ch=1 n=e7 v=0
1608421 On ch=1 n=e6 v=40
1608468 Par ch=1 c=67 v=127
1608478 On ch=1 n=a#6 v=41
1608525 On ch=1 n=c#7 v=42
1608577 On ch=1 n=g7 v=59
1608637 On ch=1 n=b1 v=40
1608653 Par ch=1 c=64 v=0
1608878 Par ch=1 c=64 v=127
1608893 On ch=1 n=b1 v=0
1609317 On ch=1 n=g7 v=0
1609325 On ch=1 n=e6 v=0
1609332 On ch=1 n=c#7 v=0
1609370 On ch=1 n=a#6 v=0
1610309 On ch=1 n=a#5 v=63
1610317 On ch=1 n=g5 v=36
1610317 On ch=1 n=c#5 v=36
1610317 On ch=1 n=e5 v=36
1610317 On ch=1 n=g4 v=36
1610317 On ch=1 n=e4 v=36
1610317 On ch=1 n=a#4 v=36
1610993 On ch=1 n=g5 v=0
1610993 On ch=1 n=a#5 v=0
1610996 On ch=1 n=e4 v=0
1610996 On ch=1 n=g4 v=0
1610996 On ch=1 n=e5 v=0
1610996 On ch=1 n=c#5 v=0
1611002 On ch=1 n=a#4 v=0
1611498 On ch=1 n=b5 v=68
1611498 On ch=1 n=g5 v=36
1611498 On ch=1 n=e5 v=36
1611502 On ch=1 n=e4 v=35
1611502 On ch=1 n=c#5 v=35
1611502 On ch=1 n=g4 v=38
1611502 On ch=1 n=a#4 v=36
1611657 On ch=1 n=b5 v=0
1611665 On ch=1 n=e4 v=0
1611665 On ch=1 n=e5 v=0
1611665 On ch=1 n=g5 v=0
1611669 On ch=1 n=c#5 v=0
1611673 On ch=1 n=a#4 v=0
1611673 On ch=1 n=g4 v=0
1611869 On ch=1 n=g5 v=40
1611869 On ch=1 n=d#6 v=70
1611869 On ch=1 n=e5 v=38
1611873 On ch=1 n=c#5 v=36
1611873 On ch=1 n=e4 v=36
1611873 On ch=1 n=g4 v=36
1611873 On ch=1 n=a#4 v=36
1612737 Par ch=1 c=64 v=0
1612993 Par ch=1 c=64 v=127
1613849 On ch=1 n=e5 v=0
1613849 On ch=1 n=g5 v=0
1613857 On ch=1 n=a#4 v=0
1613857 On ch=1 n=g4 v=0
1613857 On ch=1 n=e4 v=0
1613857 On ch=1 n=c#5 v=0
1614229 On ch=1 n=c#6 v=38
1614717 On ch=1 n=a#5 v=33
1614749 On ch=1 n=c#6 v=0
1615102 On ch=1 n=a#5 v=0
1615246 On ch=1 n=g5 v=33
1615426 On ch=1 n=g5 v=0
1615725 On ch=1 n=d#6 v=0
1616256 On ch=1 n=e6 v=39
1616322 On ch=1 n=a#6 v=34
1616378 On ch=1 n=c#7 v=38
1616449 On ch=1 n=g7 v=43
1616542 On ch=1 n=b1 v=32
1616576 Par ch=1 c=64 v=0
1616769 Par ch=1 c=64 v=127
1616853 On ch=1 n=b1 v=0
1616853 On ch=1 n=e6 v=0
1616949 On ch=1 n=c#7 v=0
1616993 On ch=1 n=a#6 v=0
1617009 On ch=1 n=g7 v=0
1618493 On ch=1 n=a#5 v=52
1618493 On ch=1 n=g5 v=38
1618493 On ch=1 n=e5 v=37
1618493 On ch=1 n=e4 v=36
1618496 On ch=1 n=c#5 v=36
1618496 On ch=1 n=g4 v=36
1618498 On ch=1 n=a#4 v=36
1618662 Par ch=1 c=64 v=0
1618797 Par ch=1 c=64 v=127
1619145 On ch=1 n=c#5 v=0
1619145 On ch=1 n=e4 v=0
1619145 On ch=1 n=e5 v=0
1619145 On ch=1 n=g5 v=0
1619145 On ch=1 n=a#5 v=0
1619149 On ch=1 n=a#4 v=0
1619149 On ch=1 n=g4 v=0
1619849 On ch=1 n=b5 v=62
1619849 On ch=1 n=e4 v=36
1619849 On ch=1 n=c#5 v=35
1619853 On ch=1 n=g5 v=36
1619853 On ch=1 n=e5 v=37
1619853 On ch=1 n=g4 v=36
1619858 On ch=1 n=a#4 v=36
1620016 On ch=1 n=g4 v=0
1620016 On ch=1 n=e4 v=0
1620016 On ch=1 n=b5 v=0
1620018 On ch=1 n=a#4 v=0
1620018 On ch=1 n=e5 v=0
1620018 On ch=1 n=g5 v=0
1620018 On ch=1 n=c#5 v=0
1620253 On ch=1 n=d#6 v=68
1620253 On ch=1 n=g5 v=36
1620253 On ch=1 n=e5 v=34
1620257 On ch=1 n=e4 v=36
1620257 On ch=1 n=c#5 v=36
1620257 On ch=1 n=g4 v=36
1620257 On ch=1 n=a#4 v=35
1620702 Par ch=1 c=64 v=0
1620853 Par ch=1 c=64 v=127
1621838 On ch=1 n=g5 v=0
1621842 On ch=1 n=e4 v=0
1621842 On ch=1 n=e5 v=0
1621846 On ch=1 n=a#4 v=0
1621846 On ch=1 n=g4 v=0
1621846 On ch=1 n=c#5 v=0
1622453 On ch=1 n=d#6 v=0
1622726 On ch=1 n=c#6 v=48
1623158 On ch=1 n=a#5 v=50
1623557 On ch=1 n=g5 v=48
1623717 On ch=1 n=c#6 v=0
1624216 On ch=1 n=e5 v=33
1624537 On ch=1 n=a#5 v=0
1624638 Par ch=1 c=64 v=0
1624665 On ch=1 n=g5 v=0
1625505 On ch=1 n=e5 v=0
1626389 Par ch=1 c=64 v=127
1626989 Par ch=1 c=67 v=0
1627038 Par ch=1 c=67 v=127
1627093 On ch=1 n=d#5 v=31
1627576 On ch=1 n=e5 v=47
1627665 On ch=1 n=d#5 v=0
1627985 On ch=1 n=f#5 v=52
1628073 On ch=1 n=e5 v=0
1628456 On ch=1 n=a5 v=53
1628609 On ch=1 n=f#5 v=0
1628785 Par ch=1 c=64 v=0
1629413 Par ch=1 c=64 v=127
1630692 On ch=1 n=g5 v=43
1631158 On ch=1 n=e5 v=45
1631489 On ch=1 n=a5 v=0
1631529 On ch=1 n=c#5 v=48
1631681 On ch=1 n=g5 v=0
1631953 On ch=1 n=a#4 v=40
1631989 On ch=1 n=e5 v=0
1632153 On ch=1 n=c#5 v=0
1632373 On ch=1 n=g4 v=44
1632718 On ch=1 n=a#4 v=0
1632809 On ch=1 n=e4 v=45
1632917 On ch=1 n=g4 v=0
1633258 On ch=1 n=c#4 v=51
1633429 On ch=1 n=e4 v=0
1633822 On ch=1 n=a#3 v=47
1633976 On ch=1 n=c#4 v=0
1634018 Par ch=1 c=64 v=0
1634506 Par ch=1 c=64 v=127
1635206 On ch=1 n=d5 v=40
1635206 On ch=1 n=e4 v=41
1635206 On ch=1 n=a#4 v=39
1635206 On ch=1 n=g3 v=38
1635997 On ch=1 n=e4 v=0
1635998 On ch=1 n=g3 v=0
1635998 On ch=1 n=a#4 v=0
1635998 On ch=1 n=d5 v=0
1636077 On ch=1 n=a#3 v=0
1637125 On ch=1 n=d#4 v=36
1637133 On ch=1 n=f#4 v=35
1637133 On ch=1 n=b4 v=34
1637137 On ch=1 n=d#5 v=36
1637137 On ch=1 n=f#3 v=36
1637137 On ch=1 n=b3 v=35
1637137 On ch=1 n=b2 v=32
1637469 Par ch=1 c=64 v=0
1638809 Par ch=1 c=64 v=127
1639890 On ch=1 n=d#5 v=0
1639890 On ch=1 n=b4 v=0
1639890 On ch=1 n=f#4 v=0
1639890 On ch=1 n=d#4 v=0
1639897 On ch=1 n=b2 v=0
1639897 On ch=1 n=b3 v=0
1639897 On ch=1 n=f#3 v=0
1641010 On ch=1 n=d#4 v=39
1641010 On ch=1 n=d#3 v=39
1641013 On ch=1 n=b4 v=39
1641013 On ch=1 n=g#4 v=39
1641017 On ch=1 n=d#5 v=39
1641017 On ch=1 n=g#2 v=39
1641017 On ch=1 n=g#3 v=39
1641418 Par ch=1 c=64 v=0
1641673 Par ch=1 c=64 v=127
1642665 On ch=1 n=g#3 v=0
1642665 On ch=1 n=g#2 v=0
1642665 On ch=1 n=g#4 v=0
1642858 On ch=1 n=g4 v=41
1642858 On ch=1 n=g3 v=40
1642858 On ch=1 n=g2 v=40
1643089 Par ch=1 c=64 v=0
1643370 Par ch=1 c=64 v=127
1643730 On ch=1 n=d#3 v=0
1643730 On ch=1 n=d#4 v=0
1643733 On ch=1 n=d#5 v=0
1643733 On ch=1 n=b4 v=0
1644517 On ch=1 n=g2 v=0
1644517 On ch=1 n=g3 v=0
1644517 On ch=1 n=g4 v=0
1644622 On ch=1 n=d#4 v=36
1644622 On ch=1 n=d#5 v=35
1644625 On ch=1 n=f#4 v=36
1644625 On ch=1 n=b4 v=36
1644629 On ch=1 n=f#3 v=36
1644629 On ch=1 n=b3 v=36
1644629 On ch=1 n=b2 v=35
1644905 Par ch=1 c=64 v=0
1646249 Par ch=1 c=64 v=127
1647378 On ch=1 n=f#4 v=0
1647378 On ch=1 n=d#5 v=0
1647378 On ch=1 n=d#4 v=0
1647385 On ch=1 n=b3 v=0
1647385 On ch=1 n=f#3 v=0
1647385 On ch=1 n=b4 v=0
1647389 On ch=1 n=b2 v=0
1648242 On ch=1 n=d#4 v=35
1648242 On ch=1 n=d#5 v=40
1648242 On ch=1 n=g#4 v=44
1648245 On ch=1 n=b4 v=44
1648245 On ch=1 n=g#3 v=36
1648245 On ch=1 n=g#2 v=38
1648245 On ch=1 n=d#3 v=36
1648676 Par ch=1 c=64 v=0
1649053 Par ch=1 c=64 v=127
1649889 On ch=1 n=g#4 v=0
1649893 On ch=1 n=g#3 v=0
1649897 On ch=1 n=g#2 v=0
1650022 On ch=1 n=g4 v=48
1650025 On ch=1 n=g2 v=45
1650025 On ch=1 n=g3 v=42
1650261 Par ch=1 c=64 v=0
1650602 Par ch=1 c=64 v=127
1650989 On ch=1 n=d#5 v=0
1650989 On ch=1 n=d#4 v=0
1650993 On ch=1 n=b4 v=0
1650997 On ch=1 n=d#3 v=0
1651289 On ch=1 n=g2 v=0
1651289 On ch=1 n=g4 v=0
1651293 On ch=1 n=g3 v=0
1651998 On ch=1 n=d#5 v=38
1651998 On ch=1 n=b4 v=36
1651998 On ch=1 n=d#4 v=36
1651998 On ch=1 n=f#4 v=35
1652001 On ch=1 n=f#3 v=39
1652001 On ch=1 n=b2 v=35
1652001 On ch=1 n=b3 v=36
1652186 Par ch=1 c=64 v=0
1652897 On ch=1 n=d#4 v=0
1652897 On ch=1 n=b4 v=0
1652897 On ch=1 n=d#5 v=0
1652898 On ch=1 n=b3 v=0
1652898 On ch=1 n=b2 v=0
1652898 On ch=1 n=f#3 v=0
1652898 On ch=1 n=f#4 v=0
1653550 Par ch=1 c=64 v=127
1653869 On ch=1 n=d#5 v=40
1653873 On ch=1 n=b4 v=35
1653873 On ch=1 n=f#4 v=36
1653873 On ch=1 n=d#4 v=35
1653873 On ch=1 n=b3 v=36
1653876 On ch=1 n=f#3 v=36
1653876 On ch=1 n=b2 v=36
1654565 Par ch=1 c=64 v=0
1654758 On ch=1 n=f#4 v=0
1654758 On ch=1 n=b4 v=0
1654758 On ch=1 n=d#5 v=0
1654762 On ch=1 n=f#3 v=0
1654762 On ch=1 n=b3 v=0
1654762 On ch=1 n=d#4 v=0
1654765 On ch=1 n=b2 v=0
1656237 Par ch=1 c=64 v=127
1657338 On ch=1 n=d#5 v=36
1657346 On ch=1 n=d#4 v=36
1657346 On ch=1 n=f#4 v=35
1657346 On ch=1 n=b4 v=36
1657346 On ch=1 n=b2 v=36
1657346 On ch=1 n=b3 v=35
1657349 On ch=1 n=f#3 v=36
1658122 Par ch=1 c=64 v=0
1658166 Par ch=1 c=67 v=0
1658232 On ch=1 n=d#4 v=0
1658232 On ch=1 n=d#5 v=0
1658236 On ch=1 n=b4 v=0
1658236 On ch=1 n=f#4 v=0
1658238 On ch=1 n=f#3 v=0
1658238 On ch=1 n=b3 v=0
1658238 On ch=1 n=b2 v=0
1660266 Par ch=1 c=64 v=127
1660498 Par ch=1 c=67 v=127
1660646 On ch=1 n=b3 v=39
1660646 On ch=1 n=b2 v=38
1661997 On ch=1 n=a3 v=56
1661997 On ch=1 n=a2 v=47
1664086 On ch=1 n=g3 v=42
1664086 On ch=1 n=g2 v=35
1664156 Par ch=1 c=64 v=0
1664189 Par ch=1 c=64 v=127
1664378 On ch=1 n=a3 v=0
1664382 On ch=1 n=a2 v=0
1664769 On ch=1 n=f#3 v=42
1664769 On ch=1 n=f#2 v=39
1665017 On ch=1 n=g2 v=0
1665017 On ch=1 n=g3 v=0
1665057 Par ch=1 c=64 v=0
1665733 Par ch=1 c=64 v=127
1666138 On ch=1 n=e3 v=34
1666138 On ch=1 n=e2 v=36
1666333 Par ch=1 c=64 v=0
1666353 On ch=1 n=f#2 v=0
1666353 On ch=1 n=f#3 v=0
1666609 Par ch=1 c=64 v=127
1667533 On ch=1 n=d#3 v=36
1667537 On ch=1 n=d#2 v=35
1667706 Par ch=1 c=64 v=0
1667729 On ch=1 n=e2 v=0
1667729 On ch=1 n=e3 v=0
1667993 Par ch=1 c=64 v=127
1668778 On ch=1 n=d#2 v=0
1668778 On ch=1 n=d#3 v=0
1669273 On ch=1 n=c3 v=34
1669277 On ch=1 n=c2 v=34
1669589 Par ch=1 c=64 v=0
1669921 Par ch=1 c=64 v=127
1670025 On ch=1 n=b2 v=0
1670025 On ch=1 n=b3 v=0
1670122 On ch=1 n=c2 v=0
1670122 On ch=1 n=c3 v=0
1670573 Par ch=1 c=64 v=0
1673093 Par ch=1 c=64 v=127
1673253 On ch=1 n=b2 v=35
1674737 On ch=1 n=a2 v=34
1675093 Par ch=1 c=64 v=0
1675546 Par ch=1 c=64 v=127
1676222 On ch=1 n=a2 v=0
1676785 On ch=1 n=g2 v=29
1677285 On ch=1 n=g2 v=0
1677466 On ch=1 n=f#2 v=32
1677689 Par ch=1 c=64 v=0
1678053 Par ch=1 c=64 v=127
1678456 On ch=1 n=f#2 v=0
1678838 On ch=1 n=e2 v=34
1679049 Par ch=1 c=64 v=0
1679329 Par ch=1 c=64 v=127
1679632 On ch=1 n=e2 v=0
1680269 On ch=1 n=d#2 v=32
1680598 Par ch=1 c=64 v=0
1680813 Par ch=1 c=64 v=127
1681166 On ch=1 n=d#2 v=0
1681198 On ch=1 n=b2 v=0
1682129 On ch=1 n=c2 v=40
1682318 Par ch=1 c=64 v=0
1683069 Par ch=1 c=64 v=127
1684262 On ch=1 n=c2 v=0
1686852 Par ch=1 c=67 v=0
1686956 On ch=1 n=e7 v=48
1686962 On ch=1 n=a6 v=42
1686962 On ch=1 n=e6 v=44
1686962 On ch=1 n=a4 v=39
1686962 On ch=1 n=e5 v=40
1686966 On ch=1 n=c5 v=40
1686966 On ch=1 n=a5 v=39
1690429 On ch=1 n=a6 v=0
1690429 On ch=1 n=e7 v=0
1690432 On ch=1 n=e6 v=0
1690438 On ch=1 n=a5 v=0
1690438 On ch=1 n=c5 v=0
1690438 On ch=1 n=e5 v=0
1690438 On ch=1 n=a4 v=0
1691470 On ch=1 n=f6 v=42
1691470 On ch=1 n=c7 v=50
1691470 On ch=1 n=f7 v=56
1691470 On ch=1 n=a6 v=46
1691473 On ch=1 n=f5 v=34
1691473 On ch=1 n=c5 v=36
1691473 On ch=1 n=a4 v=36
1691473 On ch=1 n=a5 v=38
1695133 Par ch=1 c=67 v=127
1695318 On ch=1 n=a4 v=0
1695325 On ch=1 n=a5 v=0
1695329 On ch=1 n=f7 v=0
1695329 On ch=1 n=c7 v=0
1695329 On ch=1 n=f6 v=0
1695333 On ch=1 n=c5 v=0
1695333 On ch=1 n=f5 v=0
1695333 On ch=1 n=a6 v=0
1697085 On ch=1 n=f#6 v=36
1697093 On ch=1 n=f#7 v=36
1697093 On ch=1 n=b6 v=39
1697093 On ch=1 n=d#7 v=38
1697093 On ch=1 n=b4 v=37
1697093 On ch=1 n=d#5 v=36
1697098 On ch=1 n=f#5 v=36
1697098 On ch=1 n=f#4 v=36
1697189 Par ch=1 c=64 v=0
1698633 Par ch=1 c=64 v=127
1700977 On ch=1 n=f#6 v=0
1700982 On ch=1 n=b4 v=0
1700982 On ch=1 n=f#7 v=0
1700985 On ch=1 n=f#5 v=0
1700985 On ch=1 n=d#5 v=0
1700985 On ch=1 n=d#7 v=0
1700985 On ch=1 n=b6 v=0
1700989 On ch=1 n=f#4 v=0
1702193 On ch=1 n=f#7 v=36
1702193 On ch=1 n=d#7 v=37
1702193 On ch=1 n=f#6 v=39
1702198 On ch=1 n=b6 v=36
1702198 On ch=1 n=b4 v=35
1702198 On ch=1 n=f#5 v=36
1702198 On ch=1 n=d#5 v=38
1702198 On ch=1 n=f#4 v=36
1705637 On ch=1 n=f#5 v=0
1705637 On ch=1 n=f#7 v=0
1705638 On ch=1 n=f#4 v=0
1705638 On ch=1 n=d#5 v=0
1705638 On ch=1 n=b4 v=0
1705638 On ch=1 n=b6 v=0
1705638 On ch=1 n=f#6 v=0
1705638 On ch=1 n=d#7 v=0
1707946 On ch=1 n=f#6 v=36
1707946 On ch=1 n=f#7 v=35
1707946 On ch=1 n=d#7 v=39
1707946 On ch=1 n=b6 v=35
1707950 On ch=1 n=f#5 v=37
1707950 On ch=1 n=f#4 v=36
1707953 On ch=1 n=b4 v=33
1707953 On ch=1 n=d#5 v=36
1715885 On ch=1 n=f#7 v=0
1715885 On ch=1 n=f#6 v=0
1715893 On ch=1 n=b4 v=0
1715893 On ch=1 n=f#5 v=0
1715893 On ch=1 n=b6 v=0
1715893 On ch=1 n=d#7 v=0
1715896 On ch=1 n=d#5 v=0
1715896 On ch=1 n=f#4 v=0
1717796 On ch=1 n=b1 v=30
1717949 Par ch=1 c=64 v=0
1718049 On ch=1 n=b1 v=0
1721029 Par ch=1 c=67 v=0
1723909 Par ch=1 c=120 v=0
1723918 SysEx f0 7e 7f 09 01 f7
1723918 Meta TrkEnd
TrkEnd
