MFile 1 4 120
MTrk
0 TimeSig 4/4 24 8
0 KeySig -5 major
0 Tempo 909091
1440 TimeSig 2/4 24 8
1680 TimeSig 4/4 24 8
3120 TimeSig 2/4 24 8
3360 TimeSig 4/4 24 8
7680 TimeSig 2/4 24 8
9120 TimeSig 4/4 24 8
15840 TimeSig 12/8 12 8
19440 TimeSig 9/8 12 8
19980 TimeSig 12/8 12 8
27900 TimeSig 6/8 12 8
28980 TimeSig 9/8 12 8
29520 TimeSig 12/8 12 8
29520 KeySig 0 major
30240 TimeSig 6/8 12 8
30960 TimeSig 9/8 12 8
31500 TimeSig 12/8 12 8
32940 TimeSig 6/8 12 8
33300 TimeSig 12/8 12 8
34740 TimeSig 6/8 12 8
41580 TimeSig 4/8 12 8
41820 TimeSig 6/8 12 8
42180 TimeSig 4/8 12 8
42420 TimeSig 6/8 12 8
45300 TimeSig 4/4 24 8
45300 KeySig -5 major
52020 TimeSig 9/8 12 8
52560 TimeSig 12/8 12 8
61920 TimeSig 6/8 12 8
65880 TimeSig 9/8 12 8
66420 TimeSig 12/8 12 8
67140 TimeSig 4/4 24 8
67140 KeySig 1 major
67620 Tempo 769231
70500 TimeSig 12/8 12 8
76260 TimeSig 4/4 24 8
78180 TimeSig 12/8 12 8
91140 TimeSig 3/4 24 8
91140 KeySig 0 major
91500 TimeSig 4/4 24 8
91980 TimeSig 12/8 12 8
93420 TimeSig 4/4 24 8
93900 TimeSig 2/4 24 8
94380 TimeSig 3/4 24 8
95100 TimeSig 2/4 24 8
95580 TimeSig 3/4 24 8
97020 TimeSig 3/2 48 8
97740 TimeSig 4/4 24 8
99180 TimeSig 2/4 24 8
99420 TimeSig 4/4 24 8
99420 KeySig 1 major
101340 Tempo 1818182
101820 TimeSig 12/8 12 8
101820 KeySig 4 major
101820 Tempo 769231
111900 TimeSig 3/4 24 8
111900 KeySig 0 major
114420 KeySig -2 major
114420 Tempo 500000
135660 TimeSig 4/4 24 8
139980 TimeSig 3/4 24 8
150781 Tempo 769231
152220 Tempo 625000
154380 KeySig 0 major
175260 TimeSig 2/4 24 8
175500 TimeSig 3/4 24 8
176580 KeySig -2 major
179820 Tempo 714286
180180 Tempo 666667
180540 Tempo 600000
189540 Tempo 451128
189540 Meta TrkEnd
TrkEnd
MTrk
0 Meta 0x21 00
0 PrCh ch=1 p=1
570 On ch=1 n=f6 v=100
570 On ch=1 n=a#5 v=100
570 On ch=1 n=f5 v=100
599 On ch=1 n=f5 v=0
599 On ch=1 n=a#5 v=0
599 On ch=1 n=f6 v=0
600 On ch=1 n=c#5 v=100
600 On ch=1 n=c#6 v=100
600 On ch=1 n=a#5 v=100
660 On ch=1 n=c#6 v=100
660 On ch=1 n=f6 v=100
679 On ch=1 n=f6 v=0
679 On ch=1 n=c#6 v=0
719 On ch=1 n=c#5 v=0
719 On ch=1 n=c#6 v=0
719 On ch=1 n=a#5 v=0
720 On ch=1 n=c#6 v=100
720 On ch=1 n=f6 v=100
739 On ch=1 n=f6 v=0
739 On ch=1 n=c#6 v=0
760 On ch=1 n=f5 v=100
779 On ch=1 n=f5 v=0
780 On ch=1 n=c#6 v=100
780 On ch=1 n=f6 v=100
799 On ch=1 n=f6 v=0
799 On ch=1 n=c#6 v=0
820 On ch=1 n=f5 v=100
839 On ch=1 n=f5 v=0
840 On ch=1 n=c#6 v=100
840 On ch=1 n=f6 v=100
859 On ch=1 n=f6 v=0
859 On ch=1 n=c#6 v=0
880 On ch=1 n=f5 v=100
899 On ch=1 n=f5 v=0
900 On ch=1 n=c#6 v=100
900 On ch=1 n=f6 v=100
919 On ch=1 n=f6 v=0
919 On ch=1 n=c#6 v=0
940 On ch=1 n=f5 v=100
959 On ch=1 n=f5 v=0
960 On ch=1 n=c#6 v=100
960 On ch=1 n=f6 v=100
979 On ch=1 n=f6 v=0
979 On ch=1 n=c#6 v=0
980 On ch=1 n=f5 v=100
999 On ch=1 n=f5 v=0
1000 On ch=1 n=a#5 v=100
1000 On ch=1 n=c#6 v=100
1019 On ch=1 n=c#6 v=0
1019 On ch=1 n=a#5 v=0
1100 On ch=1 n=f5 v=100
1119 On ch=1 n=f5 v=0
1120 On ch=1 n=c#6 v=100
1120 On ch=1 n=a#5 v=100
1139 On ch=1 n=a#5 v=0
1139 On ch=1 n=c#6 v=0
1140 On ch=1 n=f6 v=100
1159 On ch=1 n=f6 v=0
1160 On ch=1 n=f5 v=100
1179 On ch=1 n=f5 v=0
1180 On ch=1 n=a#5 v=100
1180 On ch=1 n=c#6 v=100
1199 On ch=1 n=c#6 v=0
1199 On ch=1 n=a#5 v=0
1220 On ch=1 n=f5 v=100
1239 On ch=1 n=f5 v=0
1240 On ch=1 n=c#6 v=100
1240 On ch=1 n=a#5 v=100
1259 On ch=1 n=a#5 v=0
1259 On ch=1 n=c#6 v=0
1260 On ch=1 n=f6 v=100
1279 On ch=1 n=f6 v=0
1280 On ch=1 n=f5 v=100
1299 On ch=1 n=f5 v=0
1300 On ch=1 n=a#5 v=100
1300 On ch=1 n=c#6 v=100
1319 On ch=1 n=c#6 v=0
1319 On ch=1 n=a#5 v=0
1340 On ch=1 n=f5 v=100
1359 On ch=1 n=f5 v=0
1360 On ch=1 n=c#6 v=100
1360 On ch=1 n=a#5 v=100
1379 On ch=1 n=a#5 v=0
1379 On ch=1 n=c#6 v=0
1380 On ch=1 n=f6 v=100
1399 On ch=1 n=f6 v=0
1400 On ch=1 n=f5 v=100
1419 On ch=1 n=f5 v=0
1420 On ch=1 n=a#5 v=100
1420 On ch=1 n=c#6 v=100
1439 On ch=1 n=c#6 v=0
1439 On ch=1 n=a#5 v=0
1460 On ch=1 n=f#4 v=100
1479 On ch=1 n=f#4 v=0
1480 On ch=1 n=a#4 v=100
1480 On ch=1 n=c#5 v=100
1499 On ch=1 n=c#5 v=0
1499 On ch=1 n=a#4 v=0
1500 On ch=1 n=f5 v=100
1519 On ch=1 n=f5 v=0
1520 On ch=1 n=f#4 v=100
1539 On ch=1 n=f#4 v=0
1540 On ch=1 n=a#4 v=100
1540 On ch=1 n=c#5 v=100
1559 On ch=1 n=c#5 v=0
1559 On ch=1 n=a#4 v=0
1560 On ch=1 n=f#4 v=100
1579 On ch=1 n=f#4 v=0
1580 On ch=1 n=a#4 v=100
1599 On ch=1 n=a#4 v=0
1600 On ch=1 n=c#5 v=100
1619 On ch=1 n=c#5 v=0
1660 On ch=1 n=c#5 v=100
1660 On ch=1 n=f4 v=100
1719 On ch=1 n=f4 v=0
1719 On ch=1 n=c#5 v=0
1720 On ch=1 n=f5 v=100
1720 On ch=1 n=f4 v=100
1720 On ch=1 n=c#5 v=100
1779 On ch=1 n=c#5 v=0
1779 On ch=1 n=f4 v=0
1779 On ch=1 n=f5 v=0
1780 On ch=1 n=f4 v=100
1780 On ch=1 n=c5 v=100
1839 On ch=1 n=c5 v=0
1839 On ch=1 n=f4 v=0
1840 On ch=1 n=f4 v=100
1840 On ch=1 n=c5 v=100
1840 On ch=1 n=f5 v=100
1899 On ch=1 n=f5 v=0
1899 On ch=1 n=c5 v=0
1899 On ch=1 n=f4 v=0
1900 On ch=1 n=f4 v=100
1900 On ch=1 n=a#4 v=100
1959 On ch=1 n=a#4 v=0
1959 On ch=1 n=f4 v=0
1960 On ch=1 n=f4 v=100
1960 On ch=1 n=a#4 v=100
1960 On ch=1 n=f5 v=100
2019 On ch=1 n=f5 v=0
2019 On ch=1 n=a#4 v=0
2019 On ch=1 n=f4 v=0
2020 On ch=1 n=f4 v=100
2020 On ch=1 n=g#4 v=100
2079 On ch=1 n=g#4 v=0
2079 On ch=1 n=f4 v=0
2080 On ch=1 n=f4 v=100
2080 On ch=1 n=g#4 v=100
2080 On ch=1 n=f5 v=100
2139 On ch=1 n=f5 v=0
2139 On ch=1 n=g#4 v=0
2139 On ch=1 n=f4 v=0
2140 On ch=1 n=f#3 v=100
2140 On ch=1 n=f#4 v=100
2259 On ch=1 n=f#4 v=0
2259 On ch=1 n=f#3 v=0
2260 On ch=1 n=a#6 v=100
2260 On ch=1 n=f7 v=100
2260 On ch=1 n=f6 v=100
2279 On ch=1 n=f6 v=0
2279 On ch=1 n=f7 v=0
2279 On ch=1 n=a#6 v=0
2280 On ch=1 n=c#6 v=100
2280 On ch=1 n=a#6 v=100
2280 On ch=1 n=c#7 v=100
2340 On ch=1 n=c#6 v=100
2340 On ch=1 n=f6 v=100
2359 On ch=1 n=f6 v=0
2359 On ch=1 n=c#6 v=0
2380 On ch=1 n=f#5 v=100
2399 On ch=1 n=f#5 v=0
2399 On ch=1 n=c#7 v=0
2399 On ch=1 n=a#6 v=0
2399 On ch=1 n=c#6 v=0
2400 On ch=1 n=c#6 v=100
2400 On ch=1 n=f6 v=100
2419 On ch=1 n=f6 v=0
2419 On ch=1 n=c#6 v=0
2440 On ch=1 n=f#5 v=100
2459 On ch=1 n=f#5 v=0
2460 On ch=1 n=c#6 v=100
2460 On ch=1 n=f6 v=100
2479 On ch=1 n=f6 v=0
2479 On ch=1 n=c#6 v=0
2500 On ch=1 n=f#5 v=100
2519 On ch=1 n=f#5 v=0
2520 On ch=1 n=c#6 v=100
2520 On ch=1 n=f6 v=100
2539 On ch=1 n=f6 v=0
2539 On ch=1 n=c#6 v=0
2560 On ch=1 n=f#5 v=100
2579 On ch=1 n=f#5 v=0
2580 On ch=1 n=c#6 v=100
2580 On ch=1 n=f6 v=100
2599 On ch=1 n=f6 v=0
2599 On ch=1 n=c#6 v=0
2620 On ch=1 n=f#5 v=100
2639 On ch=1 n=f#5 v=0
2640 On ch=1 n=f6 v=100
2640 On ch=1 n=c#6 v=100
2659 On ch=1 n=c#6 v=0
2659 On ch=1 n=f6 v=0
2660 On ch=1 n=f#5 v=100
2679 On ch=1 n=f#5 v=0
2680 On ch=1 n=a#5 v=100
2680 On ch=1 n=c#6 v=100
2699 On ch=1 n=c#6 v=0
2699 On ch=1 n=a#5 v=0
2780 On ch=1 n=f#5 v=100
2799 On ch=1 n=f#5 v=0
2800 On ch=1 n=c#6 v=100
2800 On ch=1 n=a#5 v=100
2819 On ch=1 n=a#5 v=0
2819 On ch=1 n=c#6 v=0
2820 On ch=1 n=f6 v=100
2839 On ch=1 n=f6 v=0
2840 On ch=1 n=f#5 v=100
2859 On ch=1 n=f#5 v=0
2860 On ch=1 n=a#5 v=100
2860 On ch=1 n=c#6 v=100
2879 On ch=1 n=c#6 v=0
2879 On ch=1 n=a#5 v=0
2900 On ch=1 n=f#5 v=100
2919 On ch=1 n=f#5 v=0
2920 On ch=1 n=c#6 v=100
2920 On ch=1 n=a#5 v=100
2939 On ch=1 n=a#5 v=0
2939 On ch=1 n=c#6 v=0
2940 On ch=1 n=f6 v=100
2959 On ch=1 n=f6 v=0
2960 On ch=1 n=f#5 v=100
2979 On ch=1 n=f#5 v=0
2980 On ch=1 n=c#6 v=100
2980 On ch=1 n=a#5 v=100
2999 On ch=1 n=a#5 v=0
2999 On ch=1 n=c#6 v=0
3020 On ch=1 n=f#5 v=100
3039 On ch=1 n=f#5 v=0
3040 On ch=1 n=c#6 v=100
3040 On ch=1 n=a#5 v=100
3059 On ch=1 n=a#5 v=0
3059 On ch=1 n=c#6 v=0
3060 On ch=1 n=f6 v=100
3079 On ch=1 n=f6 v=0
3080 On ch=1 n=f#5 v=100
3099 On ch=1 n=f#5 v=0
3100 On ch=1 n=c#6 v=100
3100 On ch=1 n=a#5 v=100
3119 On ch=1 n=a#5 v=0
3119 On ch=1 n=c#6 v=0
3140 On ch=1 n=f#4 v=100
3159 On ch=1 n=f#4 v=0
3160 On ch=1 n=c#5 v=100
3160 On ch=1 n=a#4 v=100
3179 On ch=1 n=a#4 v=0
3179 On ch=1 n=c#5 v=0
3180 On ch=1 n=f5 v=100
3199 On ch=1 n=f5 v=0
3200 On ch=1 n=f#4 v=100
3219 On ch=1 n=f#4 v=0
3220 On ch=1 n=c#5 v=100
3220 On ch=1 n=a#4 v=100
3239 On ch=1 n=a#4 v=0
3239 On ch=1 n=c#5 v=0
3240 On ch=1 n=f#4 v=100
3259 On ch=1 n=f#4 v=0
3260 On ch=1 n=a#4 v=100
3279 On ch=1 n=a#4 v=0
3280 On ch=1 n=c#5 v=100
3299 On ch=1 n=c#5 v=0
3340 On ch=1 n=f#4 v=100
3340 On ch=1 n=c#5 v=100
3399 On ch=1 n=c#5 v=0
3399 On ch=1 n=f#4 v=0
3400 On ch=1 n=f5 v=100
3400 On ch=1 n=f4 v=100
3400 On ch=1 n=c#5 v=100
3459 On ch=1 n=c#5 v=0
3459 On ch=1 n=f4 v=0
3459 On ch=1 n=f5 v=0
3460 On ch=1 n=f#4 v=100
3460 On ch=1 n=c5 v=100
3519 On ch=1 n=c5 v=0
3519 On ch=1 n=f#4 v=0
3520 On ch=1 n=f4 v=100
3520 On ch=1 n=c5 v=100
3520 On ch=1 n=f5 v=100
3579 On ch=1 n=f5 v=0
3579 On ch=1 n=c5 v=0
3579 On ch=1 n=f4 v=0
3580 On ch=1 n=f#4 v=100
3580 On ch=1 n=a#4 v=100
3639 On ch=1 n=a#4 v=0
3639 On ch=1 n=f#4 v=0
3640 On ch=1 n=f4 v=100
3640 On ch=1 n=a#4 v=100
3640 On ch=1 n=f5 v=100
3699 On ch=1 n=f5 v=0
3699 On ch=1 n=a#4 v=0
3699 On ch=1 n=f4 v=0
3700 On ch=1 n=a4 v=100
3700 On ch=1 n=f#4 v=100
3759 On ch=1 n=f#4 v=0
3759 On ch=1 n=a4 v=0
3760 On ch=1 n=a4 v=100
3760 On ch=1 n=f4 v=100
3760 On ch=1 n=f5 v=100
3819 On ch=1 n=f5 v=0
3819 On ch=1 n=f4 v=0
3819 On ch=1 n=a4 v=0
3820 On ch=1 n=f#3 v=100
3820 On ch=1 n=f#4 v=100
3939 On ch=1 n=f#4 v=0
3939 On ch=1 n=f#3 v=0
3940 On ch=1 n=f6 v=100
3940 On ch=1 n=a#6 v=100
3940 On ch=1 n=d7 v=100
3940 On ch=1 n=f7 v=100
3959 On ch=1 n=f7 v=0
3959 On ch=1 n=f6 v=0
3959 On ch=1 n=a#6 v=0
3959 On ch=1 n=d7 v=0
3960 On ch=1 n=d6 v=100
3960 On ch=1 n=a#6 v=100
3960 On ch=1 n=d7 v=100
4020 On ch=1 n=d6 v=100
4020 On ch=1 n=f6 v=100
4039 On ch=1 n=f6 v=0
4039 On ch=1 n=d6 v=0
4040 On ch=1 n=f5 v=100
4059 On ch=1 n=f5 v=0
4060 On ch=1 n=a#5 v=100
4079 On ch=1 n=a#5 v=0
4079 On ch=1 n=d6 v=0
4079 On ch=1 n=a#6 v=0
4079 On ch=1 n=d7 v=0
4080 On ch=1 n=d6 v=100
4080 On ch=1 n=f6 v=100
4099 On ch=1 n=f6 v=0
4099 On ch=1 n=d6 v=0
4100 On ch=1 n=f5 v=100
4119 On ch=1 n=f5 v=0
4120 On ch=1 n=d6 v=100
4120 On ch=1 n=a#5 v=100
4139 On ch=1 n=a#5 v=0
4139 On ch=1 n=d6 v=0
4180 On ch=1 n=a#5 v=100
4180 On ch=1 n=d6 v=100
4199 On ch=1 n=d6 v=0
4199 On ch=1 n=a#5 v=0
4200 On ch=1 n=f6 v=100
4219 On ch=1 n=f6 v=0
4220 On ch=1 n=f5 v=100
4239 On ch=1 n=f5 v=0
4240 On ch=1 n=a#5 v=100
4240 On ch=1 n=d6 v=100
4259 On ch=1 n=d6 v=0
4259 On ch=1 n=a#5 v=0
4280 On ch=1 n=f5 v=100
4299 On ch=1 n=f5 v=0
4300 On ch=1 n=a#5 v=100
4300 On ch=1 n=d6 v=100
4319 On ch=1 n=d6 v=0
4319 On ch=1 n=a#5 v=0
4320 On ch=1 n=f6 v=100
4339 On ch=1 n=f6 v=0
4340 On ch=1 n=f5 v=100
4359 On ch=1 n=f5 v=0
4360 On ch=1 n=a#5 v=100
4360 On ch=1 n=d6 v=100
4379 On ch=1 n=d6 v=0
4379 On ch=1 n=a#5 v=0
4400 On ch=1 n=f5 v=100
4419 On ch=1 n=f5 v=0
4420 On ch=1 n=a#5 v=100
4420 On ch=1 n=d6 v=100
4439 On ch=1 n=d6 v=0
4439 On ch=1 n=a#5 v=0
4440 On ch=1 n=f6 v=100
4459 On ch=1 n=f6 v=0
4460 On ch=1 n=f5 v=100
4479 On ch=1 n=f5 v=0
4480 On ch=1 n=a#5 v=100
4480 On ch=1 n=d6 v=100
4499 On ch=1 n=d6 v=0
4499 On ch=1 n=a#5 v=0
4560 On ch=1 n=d6 v=100
4560 On ch=1 n=g#6 v=100
4560 On ch=1 n=b6 v=100
4560 On ch=1 n=b5 v=100
4679 On ch=1 n=b5 v=0
4679 On ch=1 n=d6 v=0
4679 On ch=1 n=g#6 v=0
4679 On ch=1 n=b6 v=0
4680 On ch=1 n=f#6 v=100
4680 On ch=1 n=d6 v=100
4680 On ch=1 n=a#6 v=100
4680 On ch=1 n=a#5 v=100
4739 On ch=1 n=a#5 v=0
4739 On ch=1 n=f#6 v=0
4739 On ch=1 n=d6 v=0
4739 On ch=1 n=a#6 v=0
4740 On ch=1 n=g#6 v=100
4740 On ch=1 n=f6 v=100
4740 On ch=1 n=d6 v=100
4740 On ch=1 n=g#5 v=100
4799 On ch=1 n=g#5 v=0
4799 On ch=1 n=g#6 v=0
4799 On ch=1 n=f6 v=0
4799 On ch=1 n=d6 v=0
4800 On ch=1 n=g#6 v=100
4800 On ch=1 n=f6 v=100
4800 On ch=1 n=c#6 v=100
4800 On ch=1 n=g#5 v=100
4979 On ch=1 n=g#5 v=0
4979 On ch=1 n=g#6 v=0
4979 On ch=1 n=f6 v=0
4979 On ch=1 n=c#6 v=0
4980 On ch=1 n=c#6 v=100
4980 On ch=1 n=f#6 v=100
5009 On ch=1 n=c#6 v=0
5010 On ch=1 n=f#5 v=100
5039 On ch=1 n=f#5 v=0
5039 On ch=1 n=f#6 v=0
5040 On ch=1 n=c#6 v=100
5040 On ch=1 n=f6 v=100
5069 On ch=1 n=c#6 v=0
5070 On ch=1 n=f5 v=100
5099 On ch=1 n=f5 v=0
5159 On ch=1 n=f6 v=0
5160 On ch=1 n=c#6 v=100
5160 On ch=1 n=e6 v=100
5189 On ch=1 n=c#6 v=0
5190 On ch=1 n=e5 v=100
5219 On ch=1 n=e5 v=0
5220 On ch=1 n=d#5 v=100
5249 On ch=1 n=d#5 v=0
5249 On ch=1 n=e6 v=0
5250 On ch=1 n=c6 v=100
5250 On ch=1 n=d#6 v=100
5279 On ch=1 n=d#6 v=0
5279 On ch=1 n=c6 v=0
5280 On ch=1 n=c6 v=100
5280 On ch=1 n=d#6 v=100
5309 On ch=1 n=c6 v=0
5310 On ch=1 n=d#5 v=100
5339 On ch=1 n=d#5 v=0
5339 On ch=1 n=d#6 v=0
5340 On ch=1 n=a#5 v=100
5340 On ch=1 n=d6 v=100
5369 On ch=1 n=a#5 v=0
5370 On ch=1 n=d5 v=100
5399 On ch=1 n=d5 v=0
5400 On ch=1 n=f#5 v=100
5429 On ch=1 n=f#5 v=0
5430 On ch=1 n=d#5 v=100
5459 On ch=1 n=d#5 v=0
5459 On ch=1 n=d6 v=0
5460 On ch=1 n=d#6 v=100
5460 On ch=1 n=c6 v=100
5489 On ch=1 n=c6 v=0
5489 On ch=1 n=d#6 v=0
5490 On ch=1 n=d#5 v=100
5519 On ch=1 n=d#5 v=0
5520 On ch=1 n=b5 v=100
5520 On ch=1 n=d#6 v=100
5549 On ch=1 n=d#6 v=0
5549 On ch=1 n=b5 v=0
5550 On ch=1 n=d#5 v=100
5579 On ch=1 n=d#5 v=0
5580 On ch=1 n=a#5 v=100
5580 On ch=1 n=d6 v=100
5609 On ch=1 n=d6 v=0
5609 On ch=1 n=a#5 v=0
5610 On ch=1 n=d5 v=100
5639 On ch=1 n=d5 v=0
5640 On ch=1 n=f#5 v=100
5669 On ch=1 n=f#5 v=0
5670 On ch=1 n=d5 v=100
5699 On ch=1 n=d5 v=0
5700 On ch=1 n=d6 v=100
5700 On ch=1 n=a5 v=100
5729 On ch=1 n=a5 v=0
5729 On ch=1 n=d6 v=0
5730 On ch=1 n=d5 v=100
5759 On ch=1 n=d5 v=0
5760 On ch=1 n=a#5 v=100
5760 On ch=1 n=d6 v=100
5789 On ch=1 n=a#5 v=0
5790 On ch=1 n=d5 v=100
5819 On ch=1 n=d5 v=0
5819 On ch=1 n=d6 v=0
5820 On ch=1 n=a5 v=100
5820 On ch=1 n=c#6 v=100
5849 On ch=1 n=a5 v=0
5850 On ch=1 n=c#5 v=100
5879 On ch=1 n=c#5 v=0
5880 On ch=1 n=f5 v=100
5910 On ch=1 n=d5 v=100
5939 On ch=1 n=d5 v=0
5939 On ch=1 n=f5 v=0
5939 On ch=1 n=c#6 v=0
5940 On ch=1 n=d6 v=100
5940 On ch=1 n=a#5 v=100
5969 On ch=1 n=a#5 v=0
5970 On ch=1 n=d5 v=100
5999 On ch=1 n=d5 v=0
5999 On ch=1 n=d6 v=0
6000 On ch=1 n=a#5 v=100
6000 On ch=1 n=d6 v=100
6029 On ch=1 n=a#5 v=0
6030 On ch=1 n=d5 v=100
6059 On ch=1 n=d5 v=0
6059 On ch=1 n=d6 v=0
6060 On ch=1 n=a#5 v=100
6060 On ch=1 n=c6 v=100
6089 On ch=1 n=a#5 v=0
6090 On ch=1 n=c5 v=100
6119 On ch=1 n=c5 v=0
6120 On ch=1 n=e5 v=100
6150 On ch=1 n=c5 v=100
6179 On ch=1 n=c5 v=0
6179 On ch=1 n=e5 v=0
6179 On ch=1 n=c6 v=0
6180 On ch=1 n=a5 v=100
6199 On ch=1 n=a5 v=0
6200 On ch=1 n=c5 v=100
6219 On ch=1 n=c5 v=0
6220 On ch=1 n=c6 v=100
6239 On ch=1 n=c6 v=0
6240 On ch=1 n=a5 v=100
6279 On ch=1 n=a5 v=0
6280 On ch=1 n=f#5 v=100
6299 On ch=1 n=f#5 v=0
6300 On ch=1 n=g4 v=100
6339 On ch=1 n=g4 v=0
6340 On ch=1 n=c6 v=100
6359 On ch=1 n=c6 v=0
6360 On ch=1 n=a5 v=100
6399 On ch=1 n=a5 v=0
6400 On ch=1 n=f5 v=100
6419 On ch=1 n=f5 v=0
6420 On ch=1 n=g4 v=100
6459 On ch=1 n=g4 v=0
6460 On ch=1 n=c6 v=100
6479 On ch=1 n=c6 v=0
6480 On ch=1 n=g#5 v=100
6519 On ch=1 n=g#5 v=0
6520 On ch=1 n=e5 v=100
6539 On ch=1 n=e5 v=0
6540 On ch=1 n=a#4 v=100
6579 On ch=1 n=a#4 v=0
6580 On ch=1 n=c6 v=100
6599 On ch=1 n=c6 v=0
6600 On ch=1 n=g#5 v=100
6639 On ch=1 n=g#5 v=0
6640 On ch=1 n=e5 v=100
6659 On ch=1 n=e5 v=0
6660 On ch=1 n=a4 v=100
6699 On ch=1 n=a4 v=0
6700 On ch=1 n=f6 v=100
6719 On ch=1 n=f6 v=0
6720 On ch=1 n=c#6 v=100
6759 On ch=1 n=c#6 v=0
6760 On ch=1 n=f#5 v=100
6779 On ch=1 n=f#5 v=0
6780 On ch=1 n=a4 v=100
6819 On ch=1 n=a4 v=0
6820 On ch=1 n=c6 v=100
6839 On ch=1 n=c6 v=0
6840 On ch=1 n=a5 v=100
6879 On ch=1 n=a5 v=0
6880 On ch=1 n=f5 v=100
6899 On ch=1 n=f5 v=0
6900 On ch=1 n=a4 v=100
6939 On ch=1 n=a4 v=0
6940 On ch=1 n=c6 v=100
6959 On ch=1 n=c6 v=0
6960 On ch=1 n=g#5 v=100
6999 On ch=1 n=g#5 v=0
7000 On ch=1 n=e5 v=100
7019 On ch=1 n=e5 v=0
7020 On ch=1 n=a#4 v=100
7059 On ch=1 n=a#4 v=0
7060 On ch=1 n=c6 v=100
7079 On ch=1 n=c6 v=0
7080 On ch=1 n=a5 v=100
7119 On ch=1 n=a5 v=0
7120 On ch=1 n=f5 v=100
7139 On ch=1 n=f5 v=0
7140 On ch=1 n=a4 v=100
7179 On ch=1 n=a4 v=0
7180 On ch=1 n=a#5 v=100
7199 On ch=1 n=a#5 v=0
7200 On ch=1 n=c#6 v=100
7220 On ch=1 n=f#5 v=100
7239 On ch=1 n=f#5 v=0
7240 On ch=1 n=f5 v=100
7259 On ch=1 n=f5 v=0
7260 On ch=1 n=e5 v=100
7279 On ch=1 n=e5 v=0
7280 On ch=1 n=d#5 v=100
7289 On ch=1 n=c#6 v=0
7290 On ch=1 n=a5 v=100
7299 On ch=1 n=d#5 v=0
7319 On ch=1 n=a5 v=0
7320 On ch=1 n=c6 v=100
7340 On ch=1 n=a4 v=100
7359 On ch=1 n=a4 v=0
7360 On ch=1 n=d#5 v=100
7379 On ch=1 n=d#5 v=0
7380 On ch=1 n=f#5 v=100
7399 On ch=1 n=f#5 v=0
7400 On ch=1 n=a5 v=100
7409 On ch=1 n=c6 v=0
7410 On ch=1 n=c#6 v=100
7419 On ch=1 n=a5 v=0
7439 On ch=1 n=c#6 v=0
7440 On ch=1 n=f6 v=100
7460 On ch=1 n=c6 v=100
7479 On ch=1 n=c6 v=0
7480 On ch=1 n=b5 v=100
7499 On ch=1 n=b5 v=0
7500 On ch=1 n=a#5 v=100
7519 On ch=1 n=a#5 v=0
7520 On ch=1 n=f5 v=100
7529 On ch=1 n=f6 v=0
7530 On ch=1 n=c6 v=100
7539 On ch=1 n=f5 v=0
7559 On ch=1 n=c6 v=0
7560 On ch=1 n=d#6 v=100
7580 On ch=1 n=c5 v=100
7599 On ch=1 n=c5 v=0
7600 On ch=1 n=f#5 v=100
7619 On ch=1 n=f#5 v=0
7620 On ch=1 n=a#5 v=100
7639 On ch=1 n=a#5 v=0
7640 On ch=1 n=c6 v=100
7640 On ch=1 n=f6 v=100
7649 On ch=1 n=d#6 v=0
7659 On ch=1 n=c6 v=0
7680 On ch=1 n=g#6 v=100
7699 On ch=1 n=f6 v=0
7700 On ch=1 n=e6 v=100
7719 On ch=1 n=e6 v=0
7720 On ch=1 n=d#6 v=100
7739 On ch=1 n=d#6 v=0
7740 On ch=1 n=c#6 v=100
7759 On ch=1 n=c#6 v=0
7760 On ch=1 n=g#5 v=100
7769 On ch=1 n=g#6 v=0
7770 On ch=1 n=d#6 v=100
7779 On ch=1 n=g#5 v=0
7799 On ch=1 n=d#6 v=0
7800 On ch=1 n=f#6 v=100
7820 On ch=1 n=d#5 v=100
7839 On ch=1 n=d#5 v=0
7840 On ch=1 n=a#5 v=100
7859 On ch=1 n=a#5 v=0
7860 On ch=1 n=c6 v=100
7879 On ch=1 n=c6 v=0
7880 On ch=1 n=d#6 v=100
7889 On ch=1 n=f#6 v=0
7890 On ch=1 n=f#6 v=100
7899 On ch=1 n=d#6 v=0
7920 On ch=1 n=a#6 v=100
8009 On ch=1 n=a#6 v=0
8009 On ch=1 n=f#6 v=0
8010 On ch=1 n=f#6 v=100
8040 On ch=1 n=a#5 v=100
8040 On ch=1 n=a#6 v=100
8129 On ch=1 n=a#6 v=0
8129 On ch=1 n=a#5 v=0
8129 On ch=1 n=f#6 v=0
8130 On ch=1 n=f6 v=100
8160 On ch=1 n=a#5 v=100
8160 On ch=1 n=a#6 v=100
8249 On ch=1 n=a#6 v=0
8249 On ch=1 n=a#5 v=0
8249 On ch=1 n=f6 v=0
8250 On ch=1 n=d#6 v=100
8279 On ch=1 n=d#6 v=0
8280 On ch=1 n=a#5 v=100
8280 On ch=1 n=a#6 v=100
8369 On ch=1 n=a#6 v=0
8369 On ch=1 n=a#5 v=0
8370 On ch=1 n=c#6 v=100
8399 On ch=1 n=c#6 v=0
8400 On ch=1 n=a#5 v=100
8400 On ch=1 n=a#6 v=100
8489 On ch=1 n=a#6 v=0
8489 On ch=1 n=a#5 v=0
8490 On ch=1 n=c6 v=100
8519 On ch=1 n=c6 v=0
8520 On ch=1 n=a#5 v=100
8520 On ch=1 n=a#6 v=100
8609 On ch=1 n=a#6 v=0
8609 On ch=1 n=a#5 v=0
8610 On ch=1 n=a#5 v=100
8639 On ch=1 n=a#5 v=0
8640 On ch=1 n=a#5 v=100
8640 On ch=1 n=a#6 v=100
8729 On ch=1 n=a#6 v=0
8729 On ch=1 n=a#5 v=0
8730 On ch=1 n=b5 v=100
8759 On ch=1 n=b5 v=0
8760 On ch=1 n=a#5 v=100
8760 On ch=1 n=a#6 v=100
8849 On ch=1 n=a#6 v=0
8849 On ch=1 n=a#5 v=0
8850 On ch=1 n=a#5 v=100
8879 On ch=1 n=a#5 v=0
8880 On ch=1 n=a#5 v=100
8880 On ch=1 n=a#6 v=100
8969 On ch=1 n=a#6 v=0
8969 On ch=1 n=a#5 v=0
8970 On ch=1 n=c#6 v=100
8999 On ch=1 n=c#6 v=0
9000 On ch=1 n=a5 v=100
9000 On ch=1 n=a6 v=100
9089 On ch=1 n=a6 v=0
9089 On ch=1 n=a5 v=0
9120 On ch=1 n=a#4 v=100
9120 On ch=1 n=a#3 v=100
9180 On ch=1 n=f5 v=100
9180 On ch=1 n=c#5 v=100
9180 On ch=1 n=a#4 v=100
9269 On ch=1 n=a#4 v=0
9269 On ch=1 n=f5 v=0
9269 On ch=1 n=c#5 v=0
9270 On ch=1 n=c#5 v=100
9270 On ch=1 n=f5 v=100
9270 On ch=1 n=a#4 v=100
9329 On ch=1 n=a#4 v=0
9329 On ch=1 n=c#5 v=0
9329 On ch=1 n=f5 v=0
9330 On ch=1 n=c#5 v=100
9330 On ch=1 n=f5 v=100
9330 On ch=1 n=a#4 v=100
9359 On ch=1 n=a#4 v=0
9359 On ch=1 n=c#5 v=0
9359 On ch=1 n=a#4 v=0
9359 On ch=1 n=a#3 v=0
9359 On ch=1 n=f5 v=0
9360 On ch=1 n=g#5 v=100
9360 On ch=1 n=f5 v=100
9360 On ch=1 n=c#5 v=100
9360 On ch=1 n=g#4 v=100
9420 On ch=1 n=f6 v=100
9420 On ch=1 n=c#6 v=100
9420 On ch=1 n=a#5 v=100
9509 On ch=1 n=a#5 v=0
9509 On ch=1 n=f6 v=0
9509 On ch=1 n=c#6 v=0
9510 On ch=1 n=a#5 v=100
9510 On ch=1 n=c#6 v=100
9510 On ch=1 n=f6 v=100
9569 On ch=1 n=f6 v=0
9569 On ch=1 n=a#5 v=0
9569 On ch=1 n=c#6 v=0
9570 On ch=1 n=a#5 v=100
9570 On ch=1 n=c#6 v=100
9570 On ch=1 n=f6 v=100
9599 On ch=1 n=f6 v=0
9599 On ch=1 n=a#5 v=0
9599 On ch=1 n=f5 v=0
9599 On ch=1 n=c#5 v=0
9599 On ch=1 n=g#5 v=0
9599 On ch=1 n=c#6 v=0
9599 On ch=1 n=g#4 v=0
9600 On ch=1 n=a#1 v=100
9600 On ch=1 n=a#2 v=100
9640 On ch=1 n=f4 v=100
9659 On ch=1 n=f4 v=0
9660 On ch=1 n=f5 v=100
9660 On ch=1 n=c#5 v=100
9699 On ch=1 n=c#5 v=0
9699 On ch=1 n=f5 v=0
9700 On ch=1 n=f4 v=100
9719 On ch=1 n=f4 v=0
9720 On ch=1 n=f5 v=100
9720 On ch=1 n=e5 v=100
9720 On ch=1 n=c5 v=100
9759 On ch=1 n=c5 v=0
9759 On ch=1 n=f5 v=0
9759 On ch=1 n=e5 v=0
9760 On ch=1 n=f4 v=100
9779 On ch=1 n=f4 v=0
9780 On ch=1 n=f5 v=100
9780 On ch=1 n=d#5 v=100
9780 On ch=1 n=b4 v=100
9819 On ch=1 n=b4 v=0
9819 On ch=1 n=f5 v=0
9819 On ch=1 n=d#5 v=0
9820 On ch=1 n=f4 v=100
9839 On ch=1 n=f4 v=0
9839 On ch=1 n=a#2 v=0
9839 On ch=1 n=a#1 v=0
9840 On ch=1 n=f5 v=100
9840 On ch=1 n=c#5 v=100
9840 On ch=1 n=a#4 v=100
9899 On ch=1 n=a#4 v=0
9899 On ch=1 n=c#5 v=0
9899 On ch=1 n=f5 v=0
9900 On ch=1 n=f4 v=100
9919 On ch=1 n=f4 v=0
9920 On ch=1 n=d#4 v=100
9939 On ch=1 n=d#4 v=0
9940 On ch=1 n=d4 v=100
9959 On ch=1 n=d4 v=0
9960 On ch=1 n=c#4 v=100
9979 On ch=1 n=c#4 v=0
9980 On ch=1 n=a#3 v=100
9999 On ch=1 n=a#3 v=0
10000 On ch=1 n=f3 v=100
10019 On ch=1 n=f3 v=0
10080 On ch=1 n=a#3 v=100
10140 On ch=1 n=f5 v=100
10140 On ch=1 n=c#5 v=100
10140 On ch=1 n=a#4 v=100
10229 On ch=1 n=a#4 v=0
10229 On ch=1 n=c#5 v=0
10229 On ch=1 n=f5 v=0
10230 On ch=1 n=a#4 v=100
10230 On ch=1 n=c#5 v=100
10230 On ch=1 n=f5 v=100
10289 On ch=1 n=f5 v=0
10289 On ch=1 n=c#5 v=0
10289 On ch=1 n=a#4 v=0
10290 On ch=1 n=a#4 v=100
10290 On ch=1 n=c#5 v=100
10290 On ch=1 n=f5 v=100
10319 On ch=1 n=f5 v=0
10319 On ch=1 n=a#3 v=0
10319 On ch=1 n=a#4 v=0
10319 On ch=1 n=c#5 v=0
10320 On ch=1 n=g#6 v=100
10320 On ch=1 n=f6 v=100
10320 On ch=1 n=c#6 v=100
10320 On ch=1 n=g#5 v=100
10380 On ch=1 n=f6 v=100
10380 On ch=1 n=c#6 v=100
10380 On ch=1 n=a#5 v=100
10469 On ch=1 n=a#5 v=0
10469 On ch=1 n=f6 v=0
10469 On ch=1 n=c#6 v=0
10470 On ch=1 n=c#6 v=100
10470 On ch=1 n=f6 v=100
10470 On ch=1 n=a#5 v=100
10529 On ch=1 n=a#5 v=0
10529 On ch=1 n=c#6 v=0
10529 On ch=1 n=f6 v=0
10530 On ch=1 n=f6 v=100
10530 On ch=1 n=c#6 v=100
10530 On ch=1 n=a#5 v=100
10559 On ch=1 n=a#5 v=0
10559 On ch=1 n=f6 v=0
10559 On ch=1 n=f6 v=0
10559 On ch=1 n=c#6 v=0
10559 On ch=1 n=g#6 v=0
10559 On ch=1 n=c#6 v=0
10559 On ch=1 n=g#5 v=0
10600 On ch=1 n=f6 v=100
10619 On ch=1 n=f6 v=0
10620 On ch=1 n=f7 v=100
10620 On ch=1 n=c#7 v=100
10639 On ch=1 n=c#7 v=0
10639 On ch=1 n=f7 v=0
10640 On ch=1 n=d#7 v=100
10659 On ch=1 n=d#7 v=0
10660 On ch=1 n=d7 v=100
10679 On ch=1 n=d7 v=0
10680 On ch=1 n=c#7 v=100
10699 On ch=1 n=c#7 v=0
10700 On ch=1 n=a#6 v=100
10719 On ch=1 n=a#6 v=0
10720 On ch=1 n=f#6 v=100
10739 On ch=1 n=f#6 v=0
10740 On ch=1 n=f6 v=100
10759 On ch=1 n=f6 v=0
10760 On ch=1 n=d#6 v=100
10779 On ch=1 n=d#6 v=0
10780 On ch=1 n=d6 v=100
10799 On ch=1 n=d6 v=0
10800 On ch=1 n=c#6 v=100
10819 On ch=1 n=c#6 v=0
10820 On ch=1 n=a#5 v=100
10839 On ch=1 n=a#5 v=0
10840 On ch=1 n=f#5 v=100
10859 On ch=1 n=f#5 v=0
10860 On ch=1 n=f5 v=100
10879 On ch=1 n=f5 v=0
10880 On ch=1 n=d#5 v=100
10899 On ch=1 n=d#5 v=0
10900 On ch=1 n=d5 v=100
10919 On ch=1 n=d5 v=0
10920 On ch=1 n=c#5 v=100
10939 On ch=1 n=c#5 v=0
10940 On ch=1 n=a#4 v=100
10959 On ch=1 n=a#4 v=0
10960 On ch=1 n=f#4 v=100
10979 On ch=1 n=f#4 v=0
10980 On ch=1 n=f4 v=100
10999 On ch=1 n=f4 v=0
11000 On ch=1 n=d#4 v=100
11019 On ch=1 n=d#4 v=0
11020 On ch=1 n=d4 v=100
11039 On ch=1 n=d4 v=0
11040 On ch=1 n=c#4 v=100
11079 On ch=1 n=c#4 v=0
11080 On ch=1 n=f#6 v=100
11099 On ch=1 n=f#6 v=0
11100 On ch=1 n=c#6 v=100
11100 On ch=1 n=f6 v=100
11119 On ch=1 n=f6 v=0
11119 On ch=1 n=c#6 v=0
11120 On ch=1 n=a#5 v=100
11139 On ch=1 n=a#5 v=0
11140 On ch=1 n=f#6 v=100
11159 On ch=1 n=f#6 v=0
11160 On ch=1 n=c6 v=100
11160 On ch=1 n=d#6 v=100
11179 On ch=1 n=d#6 v=0
11179 On ch=1 n=c6 v=0
11180 On ch=1 n=g#5 v=100
11199 On ch=1 n=g#5 v=0
11200 On ch=1 n=f#6 v=100
11219 On ch=1 n=f#6 v=0
11220 On ch=1 n=a#5 v=100
11220 On ch=1 n=c#6 v=100
11239 On ch=1 n=c#6 v=0
11239 On ch=1 n=a#5 v=0
11240 On ch=1 n=f#5 v=100
11259 On ch=1 n=f#5 v=0
11260 On ch=1 n=f#6 v=100
11279 On ch=1 n=f#6 v=0
11280 On ch=1 n=g#5 v=100
11280 On ch=1 n=c6 v=100
11299 On ch=1 n=c6 v=0
11299 On ch=1 n=g#5 v=0
11300 On ch=1 n=d#5 v=100
11319 On ch=1 n=d#5 v=0
11320 On ch=1 n=g#6 v=100
11339 On ch=1 n=g#6 v=0
11340 On ch=1 n=d#6 v=100
11340 On ch=1 n=f#6 v=100
11359 On ch=1 n=f#6 v=0
11359 On ch=1 n=d#6 v=0
11360 On ch=1 n=c6 v=100
11379 On ch=1 n=c6 v=0
11380 On ch=1 n=g#6 v=100
11399 On ch=1 n=g#6 v=0
11400 On ch=1 n=c#6 v=100
11400 On ch=1 n=f6 v=100
11419 On ch=1 n=f6 v=0
11419 On ch=1 n=c#6 v=0
11420 On ch=1 n=a#5 v=100
11439 On ch=1 n=a#5 v=0
11440 On ch=1 n=g#6 v=100
11459 On ch=1 n=g#6 v=0
11460 On ch=1 n=c6 v=100
11460 On ch=1 n=d#6 v=100
11479 On ch=1 n=d#6 v=0
11479 On ch=1 n=c6 v=0
11480 On ch=1 n=g#5 v=100
11499 On ch=1 n=g#5 v=0
11500 On ch=1 n=g#6 v=100
11519 On ch=1 n=g#6 v=0
11520 On ch=1 n=a#5 v=100
11520 On ch=1 n=c#6 v=100
11539 On ch=1 n=c#6 v=0
11539 On ch=1 n=a#5 v=0
11540 On ch=1 n=f5 v=100
11559 On ch=1 n=f5 v=0
11560 On ch=1 n=a#6 v=100
11579 On ch=1 n=a#6 v=0
11580 On ch=1 n=f6 v=100
11580 On ch=1 n=g#6 v=100
11599 On ch=1 n=g#6 v=0
11599 On ch=1 n=f6 v=0
11600 On ch=1 n=c#6 v=100
11619 On ch=1 n=c#6 v=0
11620 On ch=1 n=a#6 v=100
11639 On ch=1 n=a#6 v=0
11640 On ch=1 n=d#6 v=100
11640 On ch=1 n=f#6 v=100
11659 On ch=1 n=f#6 v=0
11659 On ch=1 n=d#6 v=0
11660 On ch=1 n=c6 v=100
11679 On ch=1 n=c6 v=0
11680 On ch=1 n=a#6 v=100
11699 On ch=1 n=a#6 v=0
11700 On ch=1 n=c#6 v=100
11700 On ch=1 n=f6 v=100
11719 On ch=1 n=f6 v=0
11719 On ch=1 n=c#6 v=0
11720 On ch=1 n=a#5 v=100
11739 On ch=1 n=a#5 v=0
11740 On ch=1 n=a#6 v=100
11759 On ch=1 n=a#6 v=0
11760 On ch=1 n=c6 v=100
11760 On ch=1 n=d#6 v=100
11779 On ch=1 n=d#6 v=0
11779 On ch=1 n=c6 v=0
11780 On ch=1 n=f#5 v=100
11799 On ch=1 n=f#5 v=0
11800 On ch=1 n=c7 v=100
11819 On ch=1 n=c7 v=0
11820 On ch=1 n=a#6 v=100
11820 On ch=1 n=f#6 v=100
11839 On ch=1 n=f#6 v=0
11839 On ch=1 n=a#6 v=0
11840 On ch=1 n=c6 v=100
11859 On ch=1 n=c6 v=0
11860 On ch=1 n=c7 v=100
11879 On ch=1 n=c7 v=0
11880 On ch=1 n=f6 v=100
11880 On ch=1 n=g#6 v=100
11899 On ch=1 n=g#6 v=0
11899 On ch=1 n=f6 v=0
11900 On ch=1 n=c#6 v=100
11919 On ch=1 n=c#6 v=0
11920 On ch=1 n=c7 v=100
11939 On ch=1 n=c7 v=0
11940 On ch=1 n=f#6 v=100
11959 On ch=1 n=f#6 v=0
11960 On ch=1 n=d#6 v=100
11979 On ch=1 n=d#6 v=0
11980 On ch=1 n=c7 v=100
11999 On ch=1 n=c7 v=0
12000 On ch=1 n=f6 v=100
12075 On ch=1 n=c6 v=100
12089 On ch=1 n=c6 v=0
12089 On ch=1 n=f6 v=0
12090 On ch=1 n=c8 v=100
12090 On ch=1 n=f6 v=100
12104 On ch=1 n=f6 v=0
12119 On ch=1 n=c8 v=0
12120 On ch=1 n=f#7 v=100
12180 On ch=1 n=f#6 v=100
12194 On ch=1 n=f#6 v=0
12195 On ch=1 n=a#6 v=100
12209 On ch=1 n=a#6 v=0
12209 On ch=1 n=f#7 v=0
12210 On ch=1 n=a#7 v=100
12210 On ch=1 n=d#7 v=100
12224 On ch=1 n=d#7 v=0
12239 On ch=1 n=a#7 v=0
12240 On ch=1 n=f7 v=100
12300 On ch=1 n=f6 v=100
12314 On ch=1 n=f6 v=0
12315 On ch=1 n=a#6 v=100
12329 On ch=1 n=a#6 v=0
12329 On ch=1 n=f7 v=0
12330 On ch=1 n=a#7 v=100
12330 On ch=1 n=c#7 v=100
12344 On ch=1 n=c#7 v=0
12359 On ch=1 n=a#7 v=0
12360 On ch=1 n=d#7 v=100
12420 On ch=1 n=d#6 v=100
12434 On ch=1 n=d#6 v=0
12435 On ch=1 n=f#6 v=100
12449 On ch=1 n=f#6 v=0
12449 On ch=1 n=d#7 v=0
12450 On ch=1 n=f7 v=100
12450 On ch=1 n=a#6 v=100
12464 On ch=1 n=a#6 v=0
12479 On ch=1 n=f7 v=0
12480 On ch=1 n=a#6 v=100
12540 On ch=1 n=f6 v=100
12554 On ch=1 n=f6 v=0
12555 On ch=1 n=a#6 v=100
12569 On ch=1 n=a#6 v=0
12569 On ch=1 n=a#6 v=0
12570 On ch=1 n=g#7 v=100
12570 On ch=1 n=c#7 v=100
12584 On ch=1 n=c#7 v=0
12599 On ch=1 n=g#7 v=0
12600 On ch=1 n=f7 v=100
12660 On ch=1 n=f6 v=100
12674 On ch=1 n=f6 v=0
12675 On ch=1 n=g#6 v=100
12689 On ch=1 n=g#6 v=0
12689 On ch=1 n=f7 v=0
12690 On ch=1 n=g#7 v=100
12690 On ch=1 n=c#7 v=100
12704 On ch=1 n=c#7 v=0
12719 On ch=1 n=g#7 v=0
12720 On ch=1 n=d#7 v=100
12780 On ch=1 n=d#6 v=100
12794 On ch=1 n=d#6 v=0
12795 On ch=1 n=g#6 v=100
12809 On ch=1 n=g#6 v=0
12809 On ch=1 n=d#7 v=0
12810 On ch=1 n=g#7 v=100
12810 On ch=1 n=c#7 v=100
12824 On ch=1 n=c#7 v=0
12839 On ch=1 n=g#7 v=0
12840 On ch=1 n=c#7 v=100
12900 On ch=1 n=c#6 v=100
12914 On ch=1 n=c#6 v=0
12915 On ch=1 n=f6 v=100
12929 On ch=1 n=f6 v=0
12929 On ch=1 n=c#7 v=0
12930 On ch=1 n=d#7 v=100
12930 On ch=1 n=g#6 v=100
12944 On ch=1 n=g#6 v=0
12959 On ch=1 n=d#7 v=0
12960 On ch=1 n=g#6 v=100
13020 On ch=1 n=d#6 v=100
13034 On ch=1 n=d#6 v=0
13035 On ch=1 n=g#6 v=100
13049 On ch=1 n=g#6 v=0
13049 On ch=1 n=g#6 v=0
13050 On ch=1 n=f#7 v=100
13050 On ch=1 n=c7 v=100
13064 On ch=1 n=c7 v=0
13079 On ch=1 n=f#7 v=0
13080 On ch=1 n=c#7 v=100
13140 On ch=1 n=c#6 v=100
13154 On ch=1 n=c#6 v=0
13155 On ch=1 n=f#6 v=100
13169 On ch=1 n=f#6 v=0
13169 On ch=1 n=c#7 v=0
13170 On ch=1 n=f7 v=100
13170 On ch=1 n=a#6 v=100
13184 On ch=1 n=a#6 v=0
13199 On ch=1 n=f7 v=0
13200 On ch=1 n=c7 v=100
13260 On ch=1 n=c6 v=100
13274 On ch=1 n=c6 v=0
13275 On ch=1 n=f6 v=100
13289 On ch=1 n=f6 v=0
13289 On ch=1 n=c7 v=0
13290 On ch=1 n=d#7 v=100
13290 On ch=1 n=g#6 v=100
13304 On ch=1 n=g#6 v=0
13319 On ch=1 n=d#7 v=0
13320 On ch=1 n=a#6 v=100
13380 On ch=1 n=a#5 v=100
13394 On ch=1 n=a#5 v=0
13395 On ch=1 n=d#6 v=100
13409 On ch=1 n=d#6 v=0
13409 On ch=1 n=a#6 v=0
13410 On ch=1 n=c#7 v=100
13410 On ch=1 n=f#6 v=100
13424 On ch=1 n=f#6 v=0
13439 On ch=1 n=c#7 v=0
13440 On ch=1 n=g#6 v=100
13500 On ch=1 n=g#5 v=100
13514 On ch=1 n=g#5 v=0
13515 On ch=1 n=c#6 v=100
13529 On ch=1 n=c#6 v=0
13529 On ch=1 n=g#6 v=0
13530 On ch=1 n=c7 v=100
13530 On ch=1 n=f6 v=100
13544 On ch=1 n=f6 v=0
13559 On ch=1 n=c7 v=0
13560 On ch=1 n=g6 v=100
13620 On ch=1 n=g5 v=100
13634 On ch=1 n=g5 v=0
13635 On ch=1 n=c6 v=100
13649 On ch=1 n=c6 v=0
13649 On ch=1 n=g6 v=0
13650 On ch=1 n=b6 v=100
13650 On ch=1 n=e6 v=100
13664 On ch=1 n=e6 v=0
13679 On ch=1 n=b6 v=0
13680 On ch=1 n=f#6 v=100
13740 On ch=1 n=f#5 v=100
13754 On ch=1 n=f#5 v=0
13755 On ch=1 n=b5 v=100
13769 On ch=1 n=b5 v=0
13769 On ch=1 n=f#6 v=0
13770 On ch=1 n=a#6 v=100
13770 On ch=1 n=d#6 v=100
13784 On ch=1 n=d#6 v=0
13799 On ch=1 n=a#6 v=0
13800 On ch=1 n=f#6 v=100
13860 On ch=1 n=f#5 v=100
13874 On ch=1 n=f#5 v=0
13875 On ch=1 n=b5 v=100
13889 On ch=1 n=b5 v=0
13889 On ch=1 n=f#6 v=0
13890 On ch=1 n=a6 v=100
13890 On ch=1 n=c6 v=100
13904 On ch=1 n=c6 v=0
13919 On ch=1 n=a6 v=0
13920 On ch=1 n=f6 v=100
14009 On ch=1 n=f6 v=0
14010 On ch=1 n=g#6 v=100
14039 On ch=1 n=g#6 v=0
14040 On ch=1 n=d#6 v=100
14060 On ch=1 n=c6 v=100
14079 On ch=1 n=c6 v=0
14080 On ch=1 n=g#5 v=100
14099 On ch=1 n=g#5 v=0
14129 On ch=1 n=d#6 v=0
14130 On ch=1 n=f6 v=100
14159 On ch=1 n=f6 v=0
14160 On ch=1 n=c#6 v=100
14180 On ch=1 n=a#5 v=100
14199 On ch=1 n=a#5 v=0
14200 On ch=1 n=f#5 v=100
14219 On ch=1 n=f#5 v=0
14249 On ch=1 n=c#6 v=0
14250 On ch=1 n=d#6 v=100
14279 On ch=1 n=d#6 v=0
14280 On ch=1 n=c6 v=100
14300 On ch=1 n=a5 v=100
14319 On ch=1 n=a5 v=0
14320 On ch=1 n=f5 v=100
14339 On ch=1 n=f5 v=0
14369 On ch=1 n=c6 v=0
14370 On ch=1 n=a5 v=100
14399 On ch=1 n=a5 v=0
14400 On ch=1 n=f#5 v=100
14420 On ch=1 n=d#5 v=100
14439 On ch=1 n=d#5 v=0
14440 On ch=1 n=a#4 v=100
14459 On ch=1 n=a#4 v=0
14489 On ch=1 n=f#5 v=0
14490 On ch=1 n=g#5 v=100
14519 On ch=1 n=g#5 v=0
14520 On ch=1 n=f5 v=100
14540 On ch=1 n=c#5 v=100
14559 On ch=1 n=c#5 v=0
14560 On ch=1 n=a4 v=100
14579 On ch=1 n=a4 v=0
14609 On ch=1 n=f5 v=0
14610 On ch=1 n=f#5 v=100
14639 On ch=1 n=f#5 v=0
14640 On ch=1 n=d#5 v=100
14660 On ch=1 n=c5 v=100
14679 On ch=1 n=c5 v=0
14680 On ch=1 n=g#4 v=100
14699 On ch=1 n=g#4 v=0
14759 On ch=1 n=d#5 v=0
14820 On ch=1 n=c5 v=100
14835 On ch=1 n=d#5 v=100
14839 On ch=1 n=c5 v=0
14850 On ch=1 n=a5 v=100
14854 On ch=1 n=d#5 v=0
14865 On ch=1 n=c6 v=100
14869 On ch=1 n=a5 v=0
14880 On ch=1 n=g#6 v=100
14880 On ch=1 n=d#6 v=100
14884 On ch=1 n=c6 v=0
14894 On ch=1 n=d#6 v=0
14894 On ch=1 n=g#6 v=0
14895 On ch=1 n=d#6 v=100
14909 On ch=1 n=d#6 v=0
14910 On ch=1 n=f6 v=100
14924 On ch=1 n=f6 v=0
14925 On ch=1 n=c#6 v=100
14939 On ch=1 n=c#6 v=0
14940 On ch=1 n=e6 v=100
14954 On ch=1 n=e6 v=0
14955 On ch=1 n=c6 v=100
14969 On ch=1 n=c6 v=0
14970 On ch=1 n=d#6 v=100
14984 On ch=1 n=d#6 v=0
14985 On ch=1 n=a5 v=100
14999 On ch=1 n=a5 v=0
15000 On ch=1 n=f#6 v=100
15014 On ch=1 n=f#6 v=0
15015 On ch=1 n=d#6 v=100
15029 On ch=1 n=d#6 v=0
15030 On ch=1 n=f6 v=100
15044 On ch=1 n=f6 v=0
15045 On ch=1 n=c#6 v=100
15059 On ch=1 n=c#6 v=0
15060 On ch=1 n=e6 v=100
15074 On ch=1 n=e6 v=0
15075 On ch=1 n=c6 v=100
15089 On ch=1 n=c6 v=0
15090 On ch=1 n=d#6 v=100
15104 On ch=1 n=d#6 v=0
15105 On ch=1 n=g#5 v=100
15119 On ch=1 n=g#5 v=0
15120 On ch=1 n=f#6 v=100
15134 On ch=1 n=f#6 v=0
15135 On ch=1 n=d#6 v=100
15149 On ch=1 n=d#6 v=0
15150 On ch=1 n=f6 v=100
15164 On ch=1 n=f6 v=0
15165 On ch=1 n=c#6 v=100
15179 On ch=1 n=c#6 v=0
15180 On ch=1 n=e6 v=100
15194 On ch=1 n=e6 v=0
15195 On ch=1 n=c6 v=100
15209 On ch=1 n=c6 v=0
15210 On ch=1 n=d#6 v=100
15224 On ch=1 n=d#6 v=0
15225 On ch=1 n=g#5 v=100
15239 On ch=1 n=g#5 v=0
15240 On ch=1 n=f#6 v=100
15254 On ch=1 n=f#6 v=0
15255 On ch=1 n=d#6 v=100
15269 On ch=1 n=d#6 v=0
15270 On ch=1 n=f6 v=100
15284 On ch=1 n=f6 v=0
15285 On ch=1 n=c#6 v=100
15299 On ch=1 n=c#6 v=0
15300 On ch=1 n=e6 v=100
15314 On ch=1 n=e6 v=0
15315 On ch=1 n=c6 v=100
15329 On ch=1 n=c6 v=0
15330 On ch=1 n=d#6 v=100
15344 On ch=1 n=d#6 v=0
15345 On ch=1 n=g#5 v=100
15359 On ch=1 n=g#5 v=0
15360 On ch=1 n=f6 v=100
15379 On ch=1 n=f6 v=0
15380 On ch=1 n=c#6 v=100
15399 On ch=1 n=c#6 v=0
15400 On ch=1 n=e6 v=100
15419 On ch=1 n=e6 v=0
15420 On ch=1 n=c6 v=100
15439 On ch=1 n=c6 v=0
15440 On ch=1 n=d#6 v=100
15459 On ch=1 n=d#6 v=0
15460 On ch=1 n=a5 v=100
15479 On ch=1 n=a5 v=0
15480 On ch=1 n=f6 v=100
15499 On ch=1 n=f6 v=0
15500 On ch=1 n=c#6 v=100
15519 On ch=1 n=c#6 v=0
15520 On ch=1 n=e6 v=100
15539 On ch=1 n=e6 v=0
15540 On ch=1 n=c6 v=100
15559 On ch=1 n=c6 v=0
15560 On ch=1 n=d#6 v=100
15579 On ch=1 n=d#6 v=0
15580 On ch=1 n=a5 v=100
15599 On ch=1 n=a5 v=0
15600 On ch=1 n=f6 v=100
15619 On ch=1 n=f6 v=0
15620 On ch=1 n=c#6 v=100
15639 On ch=1 n=c#6 v=0
15640 On ch=1 n=e6 v=100
15659 On ch=1 n=e6 v=0
15660 On ch=1 n=c6 v=100
15679 On ch=1 n=c6 v=0
15680 On ch=1 n=d#6 v=100
15699 On ch=1 n=d#6 v=0
15700 On ch=1 n=a5 v=100
15719 On ch=1 n=a5 v=0
15720 On ch=1 n=f6 v=100
15739 On ch=1 n=f6 v=0
15740 On ch=1 n=c#6 v=100
15750 On ch=1 n=e6 v=100
15759 On ch=1 n=c#6 v=0
15769 On ch=1 n=e6 v=0
15770 On ch=1 n=c6 v=100
15789 On ch=1 n=c6 v=0
15790 On ch=1 n=d#6 v=100
15809 On ch=1 n=d#6 v=0
15820 On ch=1 n=a5 v=100
15839 On ch=1 n=a5 v=0
15840 On ch=1 n=f6 v=100
15840 On ch=1 n=c#6 v=100
15929 On ch=1 n=c#6 v=0
15929 On ch=1 n=f6 v=0
15930 On ch=1 n=e6 v=100
15930 On ch=1 n=c6 v=100
15930 On ch=1 n=g5 v=100
15959 On ch=1 n=g5 v=0
15959 On ch=1 n=c6 v=0
15959 On ch=1 n=e6 v=0
15960 On ch=1 n=d#6 v=100
15960 On ch=1 n=a#5 v=100
16019 On ch=1 n=a#5 v=0
16019 On ch=1 n=d#6 v=0
16020 On ch=1 n=c#6 v=100
16020 On ch=1 n=f6 v=100
16289 On ch=1 n=f6 v=0
16289 On ch=1 n=c#6 v=0
16290 On ch=1 n=d#6 v=100
16319 On ch=1 n=d#6 v=0
16320 On ch=1 n=d#6 v=100
16320 On ch=1 n=a#5 v=100
16379 On ch=1 n=a#5 v=0
16379 On ch=1 n=d#6 v=0
16380 On ch=1 n=c#6 v=100
16380 On ch=1 n=f6 v=100
16439 On ch=1 n=f6 v=0
16439 On ch=1 n=c#6 v=0
16440 On ch=1 n=d#6 v=100
16469 On ch=1 n=d#6 v=0
16470 On ch=1 n=c#6 v=100
16499 On ch=1 n=c#6 v=0
16500 On ch=1 n=g#5 v=100
16500 On ch=1 n=c6 v=100
16559 On ch=1 n=c6 v=0
16559 On ch=1 n=g#5 v=0
16560 On ch=1 n=f6 v=100
16560 On ch=1 n=c#6 v=100
16649 On ch=1 n=c#6 v=0
16649 On ch=1 n=f6 v=0
16650 On ch=1 n=g#6 v=100
16650 On ch=1 n=d#6 v=100
16679 On ch=1 n=d#6 v=0
16679 On ch=1 n=g#6 v=0
16680 On ch=1 n=c#6 v=100
16680 On ch=1 n=f6 v=100
16739 On ch=1 n=f6 v=0
16739 On ch=1 n=c#6 v=0
16740 On ch=1 n=c#6 v=100
16740 On ch=1 n=f6 v=100
17039 On ch=1 n=f6 v=0
17039 On ch=1 n=c#6 v=0
17040 On ch=1 n=d#6 v=100
17099 On ch=1 n=d#6 v=0
17100 On ch=1 n=f6 v=100
17159 On ch=1 n=f6 v=0
17160 On ch=1 n=f#6 v=100
17219 On ch=1 n=f#6 v=0
17220 On ch=1 n=f6 v=100
17279 On ch=1 n=f6 v=0
17280 On ch=1 n=g#6 v=100
17310 On ch=1 n=d#6 v=100
17310 On ch=1 n=g#5 v=100
17339 On ch=1 n=d#6 v=0
17370 On ch=1 n=f6 v=100
17370 On ch=1 n=c#6 v=100
17399 On ch=1 n=c#6 v=0
17399 On ch=1 n=f6 v=0
17399 On ch=1 n=g#5 v=0
17400 On ch=1 n=g#5 v=100
17400 On ch=1 n=c#6 v=100
17400 On ch=1 n=f6 v=100
17459 On ch=1 n=g#6 v=0
17460 On ch=1 n=a#6 v=100
17489 On ch=1 n=g#5 v=0
17489 On ch=1 n=f6 v=0
17489 On ch=1 n=c#6 v=0
17490 On ch=1 n=d#6 v=100
17490 On ch=1 n=a#5 v=100
17519 On ch=1 n=d#6 v=0
17520 On ch=1 n=f6 v=100
17520 On ch=1 n=c#6 v=100
17579 On ch=1 n=f6 v=0
17580 On ch=1 n=f6 v=100
17639 On ch=1 n=a#6 v=0
17640 On ch=1 n=g#6 v=100
17669 On ch=1 n=c#6 v=0
17669 On ch=1 n=f6 v=0
17669 On ch=1 n=a#5 v=0
17670 On ch=1 n=d#6 v=100
17670 On ch=1 n=g#5 v=100
17699 On ch=1 n=d#6 v=0
17700 On ch=1 n=f6 v=100
17700 On ch=1 n=c#6 v=100
17759 On ch=1 n=f6 v=0
17760 On ch=1 n=f6 v=100
17909 On ch=1 n=g#6 v=0
17910 On ch=1 n=g#6 v=100
17939 On ch=1 n=g#6 v=0
17939 On ch=1 n=f6 v=0
17939 On ch=1 n=g#5 v=0
17939 On ch=1 n=c#6 v=0
17940 On ch=1 n=a#5 v=100
17940 On ch=1 n=f#6 v=100
17969 On ch=1 n=a#5 v=0
17970 On ch=1 n=c6 v=100
17999 On ch=1 n=c6 v=0
17999 On ch=1 n=f#6 v=0
18000 On ch=1 n=f6 v=100
18000 On ch=1 n=c#6 v=100
18299 On ch=1 n=c#6 v=0
18299 On ch=1 n=f6 v=0
18300 On ch=1 n=d#6 v=100
18359 On ch=1 n=d#6 v=0
18360 On ch=1 n=c#6 v=100
18366 On ch=1 n=c#6 v=0
18371 On ch=1 n=d#6 v=100
18377 On ch=1 n=d#6 v=0
18385 On ch=1 n=c#6 v=100
18419 On ch=1 n=c#6 v=0
18420 On ch=1 n=c#6 v=100
18479 On ch=1 n=c#6 v=0
18480 On ch=1 n=c6 v=100
18539 On ch=1 n=c6 v=0
18540 On ch=1 n=f5 v=100
18540 On ch=1 n=a#5 v=100
18659 On ch=1 n=a#5 v=0
18659 On ch=1 n=f5 v=0
18660 On ch=1 n=c#6 v=100
18660 On ch=1 n=e5 v=100
18719 On ch=1 n=e5 v=0
18719 On ch=1 n=c#6 v=0
18720 On ch=1 n=d#5 v=100
18720 On ch=1 n=c#5 v=100
19019 On ch=1 n=c#5 v=0
19019 On ch=1 n=d#5 v=0
19020 On ch=1 n=c6 v=100
19020 On ch=1 n=e5 v=100
19079 On ch=1 n=e5 v=0
19079 On ch=1 n=c6 v=0
19080 On ch=1 n=d#5 v=100
19080 On ch=1 n=c#5 v=100
19199 On ch=1 n=c#5 v=0
19199 On ch=1 n=d#5 v=0
19200 On ch=1 n=b5 v=100
19200 On ch=1 n=d5 v=100
19259 On ch=1 n=d5 v=0
19259 On ch=1 n=b5 v=0
19260 On ch=1 n=d#5 v=100
19260 On ch=1 n=c#5 v=100
19379 On ch=1 n=c#5 v=0
19379 On ch=1 n=d#5 v=0
19380 On ch=1 n=a#5 v=100
19380 On ch=1 n=c5 v=100
19439 On ch=1 n=c5 v=0
19439 On ch=1 n=a#5 v=0
19440 On ch=1 n=c#5 v=100
19440 On ch=1 n=d#5 v=100
19649 On ch=1 n=c#5 v=0
19650 On ch=1 n=a#4 v=100
19679 On ch=1 n=a#4 v=0
19679 On ch=1 n=d#5 v=0
19680 On ch=1 n=c5 v=100
19709 On ch=1 n=c5 v=0
19710 On ch=1 n=c#5 v=100
19739 On ch=1 n=c#5 v=0
19740 On ch=1 n=d5 v=100
19769 On ch=1 n=d5 v=0
19770 On ch=1 n=f5 v=100
19799 On ch=1 n=f5 v=0
19800 On ch=1 n=f#5 v=100
19829 On ch=1 n=f#5 v=0
19830 On ch=1 n=d#5 v=100
19849 On ch=1 n=d#5 v=0
19850 On ch=1 n=f5 v=100
19869 On ch=1 n=f5 v=0
19870 On ch=1 n=f#5 v=100
19889 On ch=1 n=f#5 v=0
19890 On ch=1 n=g#5 v=100
19909 On ch=1 n=g#5 v=0
19910 On ch=1 n=a#5 v=100
19929 On ch=1 n=a#5 v=0
19930 On ch=1 n=c6 v=100
19949 On ch=1 n=c6 v=0
19950 On ch=1 n=c#6 v=100
19969 On ch=1 n=c#6 v=0
19970 On ch=1 n=d#6 v=100
19980 On ch=1 n=f6 v=100
19980 On ch=1 n=c#6 v=100
19989 On ch=1 n=d#6 v=0
20069 On ch=1 n=c#6 v=0
20069 On ch=1 n=f6 v=0
20070 On ch=1 n=e6 v=100
20070 On ch=1 n=c6 v=100
20070 On ch=1 n=g5 v=100
20099 On ch=1 n=g5 v=0
20099 On ch=1 n=c6 v=0
20099 On ch=1 n=e6 v=0
20100 On ch=1 n=d#6 v=100
20100 On ch=1 n=a#5 v=100
20159 On ch=1 n=a#5 v=0
20159 On ch=1 n=d#6 v=0
20160 On ch=1 n=f6 v=100
20160 On ch=1 n=c#6 v=100
20429 On ch=1 n=c#6 v=0
20429 On ch=1 n=f6 v=0
20430 On ch=1 n=d#6 v=100
20459 On ch=1 n=d#6 v=0
20460 On ch=1 n=c#6 v=100
20460 On ch=1 n=a#5 v=100
20519 On ch=1 n=a#5 v=0
20519 On ch=1 n=c#6 v=0
20520 On ch=1 n=f6 v=100
20520 On ch=1 n=c#6 v=100
20579 On ch=1 n=c#6 v=0
20579 On ch=1 n=f6 v=0
20580 On ch=1 n=d#6 v=100
20609 On ch=1 n=d#6 v=0
20610 On ch=1 n=c#6 v=100
20639 On ch=1 n=c#6 v=0
20640 On ch=1 n=g#5 v=100
20640 On ch=1 n=c6 v=100
20699 On ch=1 n=c6 v=0
20699 On ch=1 n=g#5 v=0
20700 On ch=1 n=f6 v=100
20700 On ch=1 n=c#6 v=100
20789 On ch=1 n=c#6 v=0
20789 On ch=1 n=f6 v=0
20790 On ch=1 n=g#6 v=100
20790 On ch=1 n=d#6 v=100
20819 On ch=1 n=d#6 v=0
20819 On ch=1 n=g#6 v=0
20820 On ch=1 n=c#6 v=100
20820 On ch=1 n=f6 v=100
21179 On ch=1 n=f6 v=0
21179 On ch=1 n=c#6 v=0
21180 On ch=1 n=d#6 v=100
21239 On ch=1 n=d#6 v=0
21240 On ch=1 n=f6 v=100
21299 On ch=1 n=f6 v=0
21300 On ch=1 n=g#6 v=100
21309 On ch=1 n=g#6 v=0
21310 On ch=1 n=f#6 v=100
21359 On ch=1 n=f#6 v=0
21360 On ch=1 n=f6 v=100
21419 On ch=1 n=f6 v=0
21420 On ch=1 n=g#6 v=100
21509 On ch=1 n=g#6 v=0
21510 On ch=1 n=d#6 v=100
21510 On ch=1 n=d6 v=100
21510 On ch=1 n=c#7 v=100
21539 On ch=1 n=d#6 v=0
21540 On ch=1 n=f6 v=100
21599 On ch=1 n=f6 v=0
21599 On ch=1 n=d6 v=0
21600 On ch=1 n=d6 v=100
21600 On ch=1 n=f6 v=100
21689 On ch=1 n=f6 v=0
21689 On ch=1 n=d6 v=0
21689 On ch=1 n=c#7 v=0
21690 On ch=1 n=c6 v=100
21690 On ch=1 n=d#6 v=100
21690 On ch=1 n=c7 v=100
21779 On ch=1 n=d#6 v=0
21780 On ch=1 n=f6 v=100
21780 On ch=1 n=c#6 v=100
21869 On ch=1 n=c#6 v=0
21869 On ch=1 n=c6 v=0
21869 On ch=1 n=c7 v=0
21869 On ch=1 n=f6 v=0
21870 On ch=1 n=d#6 v=100
21870 On ch=1 n=c6 v=100
21870 On ch=1 n=a#5 v=100
21870 On ch=1 n=a#6 v=100
21899 On ch=1 n=c6 v=0
21899 On ch=1 n=d#6 v=0
21900 On ch=1 n=f6 v=100
21900 On ch=1 n=c#6 v=100
21959 On ch=1 n=c#6 v=0
21959 On ch=1 n=f6 v=0
21960 On ch=1 n=f6 v=100
21960 On ch=1 n=c#6 v=100
22049 On ch=1 n=c#6 v=0
22049 On ch=1 n=a#6 v=0
22049 On ch=1 n=a#5 v=0
22049 On ch=1 n=f6 v=0
22050 On ch=1 n=g#5 v=100
22050 On ch=1 n=d#6 v=100
22050 On ch=1 n=c6 v=100
22050 On ch=1 n=g#6 v=100
22079 On ch=1 n=c6 v=0
22079 On ch=1 n=d#6 v=0
22080 On ch=1 n=f6 v=100
22080 On ch=1 n=c#6 v=100
22139 On ch=1 n=c#6 v=0
22139 On ch=1 n=f6 v=0
22140 On ch=1 n=f6 v=100
22140 On ch=1 n=c#6 v=100
22439 On ch=1 n=c#6 v=0
22439 On ch=1 n=g#6 v=0
22439 On ch=1 n=g#5 v=0
22439 On ch=1 n=f6 v=0
22440 On ch=1 n=f#6 v=100
22499 On ch=1 n=f#6 v=0
22500 On ch=1 n=f6 v=100
22509 On ch=1 n=f6 v=0
22510 On ch=1 n=f#6 v=100
22519 On ch=1 n=f#6 v=0
22520 On ch=1 n=f6 v=100
22559 On ch=1 n=f6 v=0
22560 On ch=1 n=d#6 v=100
22619 On ch=1 n=d#6 v=0
22620 On ch=1 n=c#6 v=100
22679 On ch=1 n=c#6 v=0
22680 On ch=1 n=f5 v=100
22680 On ch=1 n=a#5 v=100
22799 On ch=1 n=a#5 v=0
22799 On ch=1 n=f5 v=0
22800 On ch=1 n=e5 v=100
22800 On ch=1 n=c6 v=100
22859 On ch=1 n=c6 v=0
22859 On ch=1 n=e5 v=0
22860 On ch=1 n=g#5 v=100
22860 On ch=1 n=f5 v=100
22979 On ch=1 n=g#5 v=0
22980 On ch=1 n=c#6 v=100
23159 On ch=1 n=c#6 v=0
23160 On ch=1 n=c6 v=100
23219 On ch=1 n=c6 v=0
23219 On ch=1 n=f5 v=0
23220 On ch=1 n=a#5 v=100
23220 On ch=1 n=d#5 v=100
23229 On ch=1 n=a#5 v=0
23230 On ch=1 n=c6 v=100
23239 On ch=1 n=c6 v=0
23240 On ch=1 n=a#5 v=100
23279 On ch=1 n=a#5 v=0
23280 On ch=1 n=g#5 v=100
23339 On ch=1 n=g#5 v=0
23339 On ch=1 n=d#5 v=0
23340 On ch=1 n=f#5 v=100
23340 On ch=1 n=c#5 v=100
23399 On ch=1 n=c#5 v=0
23400 On ch=1 n=c5 v=100
23459 On ch=1 n=f#5 v=0
23460 On ch=1 n=g#5 v=100
23519 On ch=1 n=g#5 v=0
23520 On ch=1 n=a5 v=100
23579 On ch=1 n=a5 v=0
23579 On ch=1 n=c5 v=0
23580 On ch=1 n=f5 v=100
23580 On ch=1 n=c#5 v=100
23759 On ch=1 n=c#5 v=0
23759 On ch=1 n=f5 v=0
23760 On ch=1 n=g#5 v=100
23770 On ch=1 n=f6 v=100
23779 On ch=1 n=g#5 v=0
23780 On ch=1 n=d#6 v=100
23780 On ch=1 n=f#5 v=100
23789 On ch=1 n=f6 v=0
23879 On ch=1 n=f#5 v=0
23879 On ch=1 n=d#6 v=0
23880 On ch=1 n=f5 v=100
23880 On ch=1 n=c#5 v=100
24150 On ch=1 n=f5 v=100
24179 On ch=1 n=f5 v=0
24179 On ch=1 n=c#5 v=0
24180 On ch=1 n=e5 v=100
24199 On ch=1 n=f5 v=0
24209 On ch=1 n=e5 v=0
24210 On ch=1 n=d#5 v=100
24239 On ch=1 n=d#5 v=0
24240 On ch=1 n=c#6 v=100
24240 On ch=1 n=c#5 v=100
24269 On ch=1 n=c#5 v=0
24299 On ch=1 n=c#6 v=0
24300 On ch=1 n=d#5 v=100
24300 On ch=1 n=a#4 v=100
24600 On ch=1 n=c#7 v=100
24719 On ch=1 n=c#7 v=0
24720 On ch=1 n=c7 v=100
24780 On ch=1 n=d#6 v=100
24839 On ch=1 n=c7 v=0
24840 On ch=1 n=b6 v=100
24899 On ch=1 n=d#6 v=0
24900 On ch=1 n=d6 v=100
24959 On ch=1 n=d6 v=0
24959 On ch=1 n=b6 v=0
24960 On ch=1 n=c#6 v=100
24960 On ch=1 n=a#6 v=100
25019 On ch=1 n=a#6 v=0
25019 On ch=1 n=d#5 v=0
25019 On ch=1 n=a#4 v=0
25019 On ch=1 n=c#6 v=0
25020 On ch=1 n=d#7 v=100
25020 On ch=1 n=c7 v=100
25079 On ch=1 n=c7 v=0
25079 On ch=1 n=d#7 v=0
25080 On ch=1 n=b6 v=100
25139 On ch=1 n=b6 v=0
25140 On ch=1 n=d7 v=100
25140 On ch=1 n=a#6 v=100
25199 On ch=1 n=d7 v=0
25200 On ch=1 n=c#7 v=100
25259 On ch=1 n=c#7 v=0
25259 On ch=1 n=a#6 v=0
25260 On ch=1 n=d#6 v=100
25260 On ch=1 n=c7 v=100
25319 On ch=1 n=c7 v=0
25319 On ch=1 n=d#6 v=0
25320 On ch=1 n=b6 v=100
25320 On ch=1 n=d6 v=100
25379 On ch=1 n=d6 v=0
25379 On ch=1 n=b6 v=0
25380 On ch=1 n=c#6 v=100
25380 On ch=1 n=a#6 v=100
25439 On ch=1 n=a#6 v=0
25439 On ch=1 n=c#6 v=0
25440 On ch=1 n=d#6 v=100
25440 On ch=1 n=c6 v=100
25499 On ch=1 n=c6 v=0
25499 On ch=1 n=d#6 v=0
25500 On ch=1 n=b5 v=100
25559 On ch=1 n=b5 v=0
25560 On ch=1 n=d6 v=100
25560 On ch=1 n=a#5 v=100
25619 On ch=1 n=a#5 v=0
25619 On ch=1 n=d6 v=0
25620 On ch=1 n=c#6 v=100
25679 On ch=1 n=c#6 v=0
25680 On ch=1 n=a5 v=100
25680 On ch=1 n=c6 v=100
25739 On ch=1 n=a5 v=0
25740 On ch=1 n=d#5 v=100
25799 On ch=1 n=c6 v=0
25800 On ch=1 n=a#5 v=100
25859 On ch=1 n=a#5 v=0
25859 On ch=1 n=d#5 v=0
25860 On ch=1 n=a#5 v=100
25860 On ch=1 n=d5 v=100
25919 On ch=1 n=d5 v=0
25919 On ch=1 n=a#5 v=0
25920 On ch=1 n=d#5 v=100
25920 On ch=1 n=c5 v=100
26219 On ch=1 n=d#5 v=0
26220 On ch=1 n=a#5 v=100
26279 On ch=1 n=a#5 v=0
26279 On ch=1 n=c5 v=0
26280 On ch=1 n=e5 v=100
26280 On ch=1 n=c5 v=100
26399 On ch=1 n=e5 v=0
26400 On ch=1 n=a5 v=100
26459 On ch=1 n=a5 v=0
26459 On ch=1 n=c5 v=0
26460 On ch=1 n=c#5 v=100
26460 On ch=1 n=g#4 v=100
26460 On ch=1 n=f4 v=100
26460 On ch=1 n=c#4 v=100
26520 On ch=1 n=c#7 v=100
26520 On ch=1 n=g#6 v=100
26520 On ch=1 n=f6 v=100
26520 On ch=1 n=c#6 v=100
26639 On ch=1 n=c#6 v=0
26639 On ch=1 n=f6 v=0
26639 On ch=1 n=c#7 v=0
26639 On ch=1 n=g#6 v=0
26640 On ch=1 n=c7 v=100
26640 On ch=1 n=g#6 v=100
26640 On ch=1 n=f6 v=100
26640 On ch=1 n=c6 v=100
26759 On ch=1 n=c6 v=0
26759 On ch=1 n=f6 v=0
26759 On ch=1 n=c7 v=0
26759 On ch=1 n=g#6 v=0
26760 On ch=1 n=b6 v=100
26760 On ch=1 n=g#6 v=100
26760 On ch=1 n=f6 v=100
26760 On ch=1 n=b5 v=100
26819 On ch=1 n=b5 v=0
26819 On ch=1 n=f4 v=0
26819 On ch=1 n=b6 v=0
26819 On ch=1 n=g#4 v=0
26819 On ch=1 n=c#4 v=0
26819 On ch=1 n=c#5 v=0
26819 On ch=1 n=g#6 v=0
26819 On ch=1 n=f6 v=0
26880 On ch=1 n=f6 v=100
26880 On ch=1 n=c6 v=100
26880 On ch=1 n=a5 v=100
26880 On ch=1 n=f5 v=100
26999 On ch=1 n=f5 v=0
26999 On ch=1 n=f6 v=0
26999 On ch=1 n=c6 v=0
26999 On ch=1 n=a5 v=0
27000 On ch=1 n=e6 v=100
27000 On ch=1 n=c6 v=100
27000 On ch=1 n=g#5 v=100
27000 On ch=1 n=e5 v=100
27119 On ch=1 n=e5 v=0
27119 On ch=1 n=e6 v=0
27119 On ch=1 n=c6 v=0
27119 On ch=1 n=g#5 v=0
27120 On ch=1 n=d#6 v=100
27120 On ch=1 n=c6 v=100
27120 On ch=1 n=g#5 v=100
27120 On ch=1 n=d#5 v=100
27179 On ch=1 n=d#5 v=0
27179 On ch=1 n=d#6 v=0
27179 On ch=1 n=c6 v=0
27179 On ch=1 n=g#5 v=0
27180 On ch=1 n=c#5 v=100
27180 On ch=1 n=g#4 v=100
27180 On ch=1 n=f4 v=100
27180 On ch=1 n=c#4 v=100
27240 On ch=1 n=f5 v=100
27240 On ch=1 n=g#5 v=100
27240 On ch=1 n=c#6 v=100
27240 On ch=1 n=c#5 v=100
27359 On ch=1 n=c#5 v=0
27359 On ch=1 n=c#6 v=0
27359 On ch=1 n=f5 v=0
27359 On ch=1 n=g#5 v=0
27360 On ch=1 n=c6 v=100
27360 On ch=1 n=g#5 v=100
27360 On ch=1 n=f5 v=100
27360 On ch=1 n=c5 v=100
27479 On ch=1 n=c5 v=0
27479 On ch=1 n=f5 v=0
27479 On ch=1 n=c6 v=0
27479 On ch=1 n=g#5 v=0
27480 On ch=1 n=b5 v=100
27480 On ch=1 n=g#5 v=100
27480 On ch=1 n=f5 v=100
27480 On ch=1 n=b4 v=100
27539 On ch=1 n=b4 v=0
27539 On ch=1 n=f4 v=0
27539 On ch=1 n=b5 v=0
27539 On ch=1 n=g#4 v=0
27539 On ch=1 n=c#4 v=0
27539 On ch=1 n=c#5 v=0
27539 On ch=1 n=g#5 v=0
27539 On ch=1 n=f5 v=0
27540 On ch=1 n=a6 v=100
27540 On ch=1 n=f6 v=100
27540 On ch=1 n=c7 v=100
27540 On ch=1 n=c6 v=100
27600 On ch=1 n=a4 v=100
27600 On ch=1 n=c5 v=100
27600 On ch=1 n=f5 v=100
27719 On ch=1 n=f5 v=0
27719 On ch=1 n=a4 v=0
27719 On ch=1 n=c5 v=0
27720 On ch=1 n=g#4 v=100
27720 On ch=1 n=c5 v=100
27720 On ch=1 n=e5 v=100
27839 On ch=1 n=e5 v=0
27839 On ch=1 n=g#4 v=0
27839 On ch=1 n=c5 v=0
27840 On ch=1 n=d#5 v=100
27840 On ch=1 n=c5 v=100
27840 On ch=1 n=a4 v=100
27899 On ch=1 n=a4 v=0
27899 On ch=1 n=d#5 v=0
27899 On ch=1 n=f6 v=0
27899 On ch=1 n=c7 v=0
27899 On ch=1 n=a6 v=0
27899 On ch=1 n=c5 v=0
27899 On ch=1 n=c6 v=0
27930 On ch=1 n=g#4 v=100
27930 On ch=1 n=f4 v=100
27930 On ch=1 n=c#5 v=100
27989 On ch=1 n=c#5 v=0
27989 On ch=1 n=f4 v=0
27989 On ch=1 n=g#4 v=0
27990 On ch=1 n=g#4 v=100
27990 On ch=1 n=e4 v=100
27990 On ch=1 n=c5 v=100
28049 On ch=1 n=c5 v=0
28049 On ch=1 n=e4 v=0
28049 On ch=1 n=g#4 v=0
28050 On ch=1 n=c#4 v=100
28050 On ch=1 n=f4 v=100
28079 On ch=1 n=f4 v=0
28079 On ch=1 n=c#4 v=0
28110 On ch=1 n=f4 v=100
28110 On ch=1 n=g#4 v=100
28110 On ch=1 n=c#5 v=100
28169 On ch=1 n=c#5 v=0
28169 On ch=1 n=g#4 v=0
28169 On ch=1 n=f4 v=0
28170 On ch=1 n=d#4 v=100
28170 On ch=1 n=g#4 v=100
28170 On ch=1 n=c5 v=100
28229 On ch=1 n=c5 v=0
28229 On ch=1 n=g#4 v=0
28229 On ch=1 n=d#4 v=0
28230 On ch=1 n=c#4 v=100
28230 On ch=1 n=f4 v=100
28259 On ch=1 n=f4 v=0
28259 On ch=1 n=c#4 v=0
28290 On ch=1 n=c5 v=100
28290 On ch=1 n=g#4 v=100
28290 On ch=1 n=f4 v=100
28349 On ch=1 n=f4 v=0
28349 On ch=1 n=g#4 v=0
28349 On ch=1 n=c5 v=0
28350 On ch=1 n=e4 v=100
28350 On ch=1 n=g#4 v=100
28350 On ch=1 n=b4 v=100
28409 On ch=1 n=b4 v=0
28409 On ch=1 n=g#4 v=0
28409 On ch=1 n=e4 v=0
28410 On ch=1 n=f4 v=100
28410 On ch=1 n=c#4 v=100
28439 On ch=1 n=c#4 v=0
28439 On ch=1 n=f4 v=0
28470 On ch=1 n=f4 v=100
28470 On ch=1 n=g#4 v=100
28470 On ch=1 n=c5 v=100
28529 On ch=1 n=c5 v=0
28529 On ch=1 n=g#4 v=0
28529 On ch=1 n=f4 v=0
28530 On ch=1 n=e4 v=100
28530 On ch=1 n=g#4 v=100
28530 On ch=1 n=b4 v=100
28589 On ch=1 n=b4 v=0
28589 On ch=1 n=g#4 v=0
28589 On ch=1 n=e4 v=0
28590 On ch=1 n=c#4 v=100
28590 On ch=1 n=f4 v=100
28619 On ch=1 n=f4 v=0
28619 On ch=1 n=c#4 v=0
28650 On ch=1 n=f4 v=100
28650 On ch=1 n=g#4 v=100
28650 On ch=1 n=b4 v=100
28709 On ch=1 n=b4 v=0
28709 On ch=1 n=g#4 v=0
28709 On ch=1 n=f4 v=0
28710 On ch=1 n=e4 v=100
28710 On ch=1 n=g4 v=100
28710 On ch=1 n=a#4 v=100
28769 On ch=1 n=a#4 v=0
28769 On ch=1 n=g4 v=0
28769 On ch=1 n=e4 v=0
28770 On ch=1 n=f4 v=100
28770 On ch=1 n=d#4 v=100
28799 On ch=1 n=d#4 v=0
28799 On ch=1 n=f4 v=0
28830 On ch=1 n=f4 v=100
28830 On ch=1 n=g#4 v=100
28830 On ch=1 n=b4 v=100
28889 On ch=1 n=b4 v=0
28889 On ch=1 n=g#4 v=0
28889 On ch=1 n=f4 v=0
28890 On ch=1 n=e4 v=100
28890 On ch=1 n=g4 v=100
28890 On ch=1 n=a#4 v=100
28949 On ch=1 n=a#4 v=0
28949 On ch=1 n=g4 v=0
28949 On ch=1 n=e4 v=0
28950 On ch=1 n=d#4 v=100
28950 On ch=1 n=f4 v=100
28979 On ch=1 n=f4 v=0
28979 On ch=1 n=d#4 v=0
29010 On ch=1 n=f4 v=100
29010 On ch=1 n=a#4 v=100
29010 On ch=1 n=g#4 v=100
29069 On ch=1 n=g#4 v=0
29069 On ch=1 n=a#4 v=0
29069 On ch=1 n=f4 v=0
29070 On ch=1 n=a4 v=100
29070 On ch=1 n=g4 v=100
29070 On ch=1 n=e4 v=100
29099 On ch=1 n=e4 v=0
29099 On ch=1 n=g4 v=0
29099 On ch=1 n=a4 v=0
29100 On ch=1 n=f4 v=100
29100 On ch=1 n=c#4 v=100
29159 On ch=1 n=c#4 v=0
29159 On ch=1 n=f4 v=0
29190 On ch=1 n=f4 v=100
29190 On ch=1 n=g#4 v=100
29190 On ch=1 n=a#4 v=100
29249 On ch=1 n=a#4 v=0
29249 On ch=1 n=g#4 v=0
29249 On ch=1 n=f4 v=0
29250 On ch=1 n=e4 v=100
29250 On ch=1 n=g4 v=100
29250 On ch=1 n=a4 v=100
29279 On ch=1 n=a4 v=0
29279 On ch=1 n=g4 v=0
29279 On ch=1 n=e4 v=0
29280 On ch=1 n=c#4 v=100
29280 On ch=1 n=f4 v=100
29339 On ch=1 n=f4 v=0
29339 On ch=1 n=c#4 v=0
29460 On ch=1 n=g5 v=100
29519 On ch=1 n=g5 v=0
29580 On ch=1 n=a6 v=100
29639 On ch=1 n=a6 v=0
29640 On ch=1 n=a6 v=100
29699 On ch=1 n=a6 v=0
29700 On ch=1 n=g#6 v=100
29759 On ch=1 n=g#6 v=0
29760 On ch=1 n=a5 v=100
29760 On ch=1 n=g6 v=100
29819 On ch=1 n=g6 v=0
29819 On ch=1 n=a5 v=0
29820 On ch=1 n=g#5 v=100
29820 On ch=1 n=f#6 v=100
29879 On ch=1 n=f#6 v=0
29879 On ch=1 n=g#5 v=0
29880 On ch=1 n=g5 v=100
29880 On ch=1 n=d6 v=100
29939 On ch=1 n=g5 v=0
29940 On ch=1 n=f#5 v=100
29999 On ch=1 n=f#5 v=0
29999 On ch=1 n=d6 v=0
30000 On ch=1 n=f5 v=100
30000 On ch=1 n=a5 v=100
30060 On ch=1 n=a4 v=100
30119 On ch=1 n=f5 v=0
30120 On ch=1 n=e5 v=100
30179 On ch=1 n=e5 v=0
30180 On ch=1 n=d#5 v=100
30239 On ch=1 n=d#5 v=0
30239 On ch=1 n=a4 v=0
30239 On ch=1 n=a5 v=0
30270 On ch=1 n=d5 v=100
30270 On ch=1 n=a4 v=100
30270 On ch=1 n=g4 v=100
30329 On ch=1 n=g4 v=0
30329 On ch=1 n=a4 v=0
30329 On ch=1 n=d5 v=0
30330 On ch=1 n=f#4 v=100
30330 On ch=1 n=a4 v=100
30330 On ch=1 n=c#5 v=100
30389 On ch=1 n=c#5 v=0
30389 On ch=1 n=a4 v=0
30389 On ch=1 n=f#4 v=0
30390 On ch=1 n=g#4 v=100
30390 On ch=1 n=f4 v=100
30419 On ch=1 n=f4 v=0
30419 On ch=1 n=g#4 v=0
30450 On ch=1 n=d5 v=100
30450 On ch=1 n=a4 v=100
30450 On ch=1 n=g4 v=100
30509 On ch=1 n=g4 v=0
30509 On ch=1 n=a4 v=0
30509 On ch=1 n=d5 v=0
30510 On ch=1 n=f#4 v=100
30510 On ch=1 n=a4 v=100
30510 On ch=1 n=c#5 v=100
30569 On ch=1 n=c#5 v=0
30569 On ch=1 n=a4 v=0
30569 On ch=1 n=f#4 v=0
30570 On ch=1 n=f4 v=100
30570 On ch=1 n=g#4 v=100
30599 On ch=1 n=g#4 v=0
30599 On ch=1 n=f4 v=0
30630 On ch=1 n=f#4 v=100
30630 On ch=1 n=a4 v=100
30630 On ch=1 n=c#5 v=100
30689 On ch=1 n=c#5 v=0
30689 On ch=1 n=a4 v=0
30689 On ch=1 n=f#4 v=0
30690 On ch=1 n=f4 v=100
30690 On ch=1 n=g#4 v=100
30690 On ch=1 n=c5 v=100
30749 On ch=1 n=c5 v=0
30749 On ch=1 n=g#4 v=0
30749 On ch=1 n=f4 v=0
30750 On ch=1 n=g4 v=100
30750 On ch=1 n=e4 v=100
30779 On ch=1 n=e4 v=0
30779 On ch=1 n=g4 v=0
30810 On ch=1 n=f#4 v=100
30810 On ch=1 n=a4 v=100
30810 On ch=1 n=c#5 v=100
30869 On ch=1 n=c#5 v=0
30869 On ch=1 n=a4 v=0
30869 On ch=1 n=f#4 v=0
30870 On ch=1 n=f4 v=100
30870 On ch=1 n=g#4 v=100
30870 On ch=1 n=c5 v=100
30929 On ch=1 n=c5 v=0
30929 On ch=1 n=g#4 v=0
30929 On ch=1 n=f4 v=0
30930 On ch=1 n=e4 v=100
30930 On ch=1 n=g4 v=100
30959 On ch=1 n=g4 v=0
30959 On ch=1 n=e4 v=0
30990 On ch=1 n=f4 v=100
30990 On ch=1 n=g#4 v=100
30990 On ch=1 n=c5 v=100
31049 On ch=1 n=c5 v=0
31049 On ch=1 n=g#4 v=0
31049 On ch=1 n=f4 v=0
31050 On ch=1 n=e4 v=100
31050 On ch=1 n=g#4 v=100
31050 On ch=1 n=b4 v=100
31109 On ch=1 n=b4 v=0
31109 On ch=1 n=g#4 v=0
31109 On ch=1 n=e4 v=0
31110 On ch=1 n=g4 v=100
31110 On ch=1 n=d#4 v=100
31139 On ch=1 n=d#4 v=0
31139 On ch=1 n=g4 v=0
31170 On ch=1 n=f4 v=100
31170 On ch=1 n=g#4 v=100
31170 On ch=1 n=c5 v=100
31229 On ch=1 n=c5 v=0
31229 On ch=1 n=g#4 v=0
31229 On ch=1 n=f4 v=0
31230 On ch=1 n=e4 v=100
31230 On ch=1 n=g#4 v=100
31230 On ch=1 n=b4 v=100
31289 On ch=1 n=b4 v=0
31289 On ch=1 n=g#4 v=0
31289 On ch=1 n=e4 v=0
31290 On ch=1 n=d#4 v=100
31290 On ch=1 n=g4 v=100
31319 On ch=1 n=g4 v=0
31319 On ch=1 n=d#4 v=0
31440 On ch=1 n=a4 v=100
31499 On ch=1 n=a4 v=0
31560 On ch=1 n=d#7 v=100
31560 On ch=1 n=b6 v=100
31619 On ch=1 n=b6 v=0
31619 On ch=1 n=d#7 v=0
31620 On ch=1 n=d7 v=100
31620 On ch=1 n=a#6 v=100
31679 On ch=1 n=a#6 v=0
31679 On ch=1 n=d7 v=0
31680 On ch=1 n=a6 v=100
31680 On ch=1 n=c#7 v=100
31739 On ch=1 n=c#7 v=0
31739 On ch=1 n=a6 v=0
31740 On ch=1 n=b6 v=100
31740 On ch=1 n=g#6 v=100
31799 On ch=1 n=g#6 v=0
31799 On ch=1 n=b6 v=0
31800 On ch=1 n=d6 v=100
31800 On ch=1 n=a#6 v=100
31859 On ch=1 n=a#6 v=0
31859 On ch=1 n=d6 v=0
31860 On ch=1 n=d#6 v=100
31860 On ch=1 n=c#6 v=100
31919 On ch=1 n=c#6 v=0
31920 On ch=1 n=b5 v=100
31979 On ch=1 n=b5 v=0
31980 On ch=1 n=g#5 v=100
32039 On ch=1 n=g#5 v=0
32039 On ch=1 n=d#6 v=0
32040 On ch=1 n=g5 v=100
32040 On ch=1 n=d6 v=100
32159 On ch=1 n=g5 v=0
32160 On ch=1 n=f#5 v=100
32219 On ch=1 n=f#5 v=0
32219 On ch=1 n=d6 v=0
32220 On ch=1 n=g4 v=100
32220 On ch=1 n=b4 v=100
32220 On ch=1 n=e5 v=100
32220 On ch=1 n=g5 v=100
32280 On ch=1 n=b7 v=100
32280 On ch=1 n=g7 v=100
32339 On ch=1 n=g7 v=0
32339 On ch=1 n=b4 v=0
32339 On ch=1 n=e5 v=0
32339 On ch=1 n=g4 v=0
32339 On ch=1 n=b7 v=0
32339 On ch=1 n=g5 v=0
32340 On ch=1 n=a#7 v=100
32340 On ch=1 n=f#7 v=100
32340 On ch=1 n=e5 v=100
32399 On ch=1 n=e5 v=0
32399 On ch=1 n=f#7 v=0
32399 On ch=1 n=a#7 v=0
32400 On ch=1 n=a7 v=100
32400 On ch=1 n=f7 v=100
32459 On ch=1 n=f7 v=0
32459 On ch=1 n=a7 v=0
32460 On ch=1 n=b6 v=100
32460 On ch=1 n=g7 v=100
32519 On ch=1 n=g7 v=0
32519 On ch=1 n=b6 v=0
32520 On ch=1 n=b6 v=100
32520 On ch=1 n=a#6 v=100
32579 On ch=1 n=a#6 v=0
32580 On ch=1 n=a6 v=100
32639 On ch=1 n=a6 v=0
32640 On ch=1 n=g6 v=100
32699 On ch=1 n=g6 v=0
32699 On ch=1 n=b6 v=0
32700 On ch=1 n=a#6 v=100
32700 On ch=1 n=f#6 v=100
32759 On ch=1 n=f#6 v=0
32759 On ch=1 n=a#6 v=0
32760 On ch=1 n=f6 v=100
32760 On ch=1 n=a6 v=100
32819 On ch=1 n=a6 v=0
32819 On ch=1 n=f6 v=0
32820 On ch=1 n=b5 v=100
32820 On ch=1 n=g6 v=100
32879 On ch=1 n=g6 v=0
32879 On ch=1 n=b5 v=0
32880 On ch=1 n=b5 v=100
32880 On ch=1 n=a#5 v=100
32939 On ch=1 n=a#5 v=0
32939 On ch=1 n=b5 v=0
32940 On ch=1 n=b5 v=100
32940 On ch=1 n=a5 v=100
32999 On ch=1 n=a5 v=0
33000 On ch=1 n=g#5 v=100
33059 On ch=1 n=g#5 v=0
33060 On ch=1 n=g5 v=100
33179 On ch=1 n=g5 v=0
33179 On ch=1 n=b5 v=0
33180 On ch=1 n=f#5 v=100
33180 On ch=1 n=a#5 v=100
33239 On ch=1 n=a#5 v=0
33239 On ch=1 n=f#5 v=0
33240 On ch=1 n=f5 v=100
33240 On ch=1 n=a5 v=100
33299 On ch=1 n=a5 v=0
33299 On ch=1 n=f5 v=0
33300 On ch=1 n=e6 v=100
33300 On ch=1 n=c6 v=100
33300 On ch=1 n=g5 v=100
33389 On ch=1 n=g5 v=0
33389 On ch=1 n=c6 v=0
33389 On ch=1 n=e6 v=0
33390 On ch=1 n=b5 v=100
33390 On ch=1 n=f#5 v=100
33390 On ch=1 n=d#6 v=100
33419 On ch=1 n=d#6 v=0
33419 On ch=1 n=f#5 v=0
33419 On ch=1 n=b5 v=0
33420 On ch=1 n=d6 v=100
33420 On ch=1 n=a5 v=100
33479 On ch=1 n=a5 v=0
33479 On ch=1 n=d6 v=0
33480 On ch=1 n=g5 v=100
33480 On ch=1 n=c6 v=100
33480 On ch=1 n=e6 v=100
33540 On ch=1 n=b6 v=100
33540 On ch=1 n=g6 v=100
33599 On ch=1 n=g6 v=0
33599 On ch=1 n=b6 v=0
33600 On ch=1 n=f#6 v=100
33600 On ch=1 n=a#6 v=100
33659 On ch=1 n=a#6 v=0
33659 On ch=1 n=f#6 v=0
33660 On ch=1 n=e6 v=100
33660 On ch=1 n=g6 v=100
33719 On ch=1 n=g6 v=0
33719 On ch=1 n=e6 v=0
33720 On ch=1 n=a#5 v=100
33720 On ch=1 n=f#6 v=100
33779 On ch=1 n=f#6 v=0
33779 On ch=1 n=a#5 v=0
33780 On ch=1 n=g5 v=100
33780 On ch=1 n=b5 v=100
33839 On ch=1 n=b5 v=0
33839 On ch=1 n=e6 v=0
33839 On ch=1 n=g5 v=0
33839 On ch=1 n=c6 v=0
33839 On ch=1 n=g5 v=0
33840 On ch=1 n=a5 v=100
33840 On ch=1 n=f#5 v=100
33899 On ch=1 n=f#5 v=0
33899 On ch=1 n=a5 v=0
33900 On ch=1 n=g5 v=100
33900 On ch=1 n=e5 v=100
33959 On ch=1 n=e5 v=0
33959 On ch=1 n=g5 v=0
33960 On ch=1 n=f5 v=100
33960 On ch=1 n=e5 v=100
34019 On ch=1 n=e5 v=0
34019 On ch=1 n=f5 v=0
34020 On ch=1 n=g4 v=100
34020 On ch=1 n=e5 v=100
34020 On ch=1 n=c5 v=100
34109 On ch=1 n=c5 v=0
34109 On ch=1 n=e5 v=0
34109 On ch=1 n=g4 v=0
34110 On ch=1 n=d#5 v=100
34110 On ch=1 n=b4 v=100
34139 On ch=1 n=b4 v=0
34139 On ch=1 n=d#5 v=0
34140 On ch=1 n=d5 v=100
34199 On ch=1 n=d5 v=0
34200 On ch=1 n=g4 v=100
34200 On ch=1 n=c5 v=100
34200 On ch=1 n=e5 v=100
34379 On ch=1 n=e5 v=0
34379 On ch=1 n=c5 v=0
34379 On ch=1 n=g4 v=0
34380 On ch=1 n=b4 v=100
34380 On ch=1 n=g4 v=100
34439 On ch=1 n=g4 v=0
34439 On ch=1 n=b4 v=0
34440 On ch=1 n=f#4 v=100
34440 On ch=1 n=a#4 v=100
34499 On ch=1 n=a#4 v=0
34499 On ch=1 n=f#4 v=0
34500 On ch=1 n=g4 v=100
34559 On ch=1 n=g4 v=0
34560 On ch=1 n=f4 v=100
34619 On ch=1 n=f4 v=0
34860 On ch=1 n=e6 v=100
35039 On ch=1 n=e6 v=0
35040 On ch=1 n=d6 v=100
35099 On ch=1 n=d6 v=0
35100 On ch=1 n=g5 v=100
35100 On ch=1 n=e6 v=100
35159 On ch=1 n=e6 v=0
35160 On ch=1 n=c#6 v=100
35219 On ch=1 n=g5 v=0
35220 On ch=1 n=f#5 v=100
35279 On ch=1 n=f#5 v=0
35280 On ch=1 n=e5 v=100
35339 On ch=1 n=e5 v=0
35340 On ch=1 n=a#4 v=100
35399 On ch=1 n=a#4 v=0
35399 On ch=1 n=c#6 v=0
35400 On ch=1 n=b5 v=100
35430 On ch=1 n=d5 v=100
35459 On ch=1 n=d5 v=0
35459 On ch=1 n=b5 v=0
35460 On ch=1 n=c#6 v=100
35519 On ch=1 n=c#6 v=0
35520 On ch=1 n=a#5 v=100
35639 On ch=1 n=a#5 v=0
35640 On ch=1 n=f5 v=100
35670 On ch=1 n=c#6 v=100
35699 On ch=1 n=c#6 v=0
35700 On ch=1 n=b5 v=100
35729 On ch=1 n=b5 v=0
35730 On ch=1 n=f#5 v=100
35759 On ch=1 n=f#5 v=0
35819 On ch=1 n=f5 v=0
35820 On ch=1 n=e5 v=100
35850 On ch=1 n=c#6 v=100
35879 On ch=1 n=c#6 v=0
35880 On ch=1 n=a#5 v=100
35909 On ch=1 n=a#5 v=0
35910 On ch=1 n=f#5 v=100
35939 On ch=1 n=f#5 v=0
35999 On ch=1 n=e5 v=0
36000 On ch=1 n=d#5 v=100
36030 On ch=1 n=c#6 v=100
36059 On ch=1 n=c#6 v=0
36060 On ch=1 n=a#5 v=100
36089 On ch=1 n=a#5 v=0
36090 On ch=1 n=f#5 v=100
36119 On ch=1 n=f#5 v=0
36179 On ch=1 n=d#5 v=0
36180 On ch=1 n=d5 v=100
36270 On ch=1 n=d6 v=100
36270 On ch=1 n=b5 v=100
36299 On ch=1 n=b5 v=0
36299 On ch=1 n=d6 v=0
36300 On ch=1 n=f#5 v=100
36300 On ch=1 n=a5 v=100
36359 On ch=1 n=d5 v=0
36389 On ch=1 n=a5 v=0
36389 On ch=1 n=f#5 v=0
36390 On ch=1 n=a5 v=100
36390 On ch=1 n=c#6 v=100
36419 On ch=1 n=c#6 v=0
36419 On ch=1 n=a5 v=0
36420 On ch=1 n=g5 v=100
36420 On ch=1 n=d#5 v=100
36509 On ch=1 n=d#5 v=0
36509 On ch=1 n=g5 v=0
36510 On ch=1 n=b5 v=100
36510 On ch=1 n=g5 v=100
36539 On ch=1 n=g5 v=0
36539 On ch=1 n=b5 v=0
36540 On ch=1 n=f#5 v=100
36540 On ch=1 n=d5 v=100
36569 On ch=1 n=d5 v=0
36569 On ch=1 n=f#5 v=0
36570 On ch=1 n=a5 v=100
36570 On ch=1 n=f#5 v=100
36599 On ch=1 n=f#5 v=0
36599 On ch=1 n=a5 v=0
36600 On ch=1 n=e5 v=100
36600 On ch=1 n=c#5 v=100
36689 On ch=1 n=c#5 v=0
36689 On ch=1 n=e5 v=0
36690 On ch=1 n=g5 v=100
36690 On ch=1 n=e5 v=100
36719 On ch=1 n=e5 v=0
36719 On ch=1 n=g5 v=0
36720 On ch=1 n=d5 v=100
36720 On ch=1 n=b4 v=100
36809 On ch=1 n=b4 v=0
36809 On ch=1 n=d5 v=0
36810 On ch=1 n=f#5 v=100
36810 On ch=1 n=d5 v=100
36839 On ch=1 n=d5 v=0
36839 On ch=1 n=f#5 v=0
36840 On ch=1 n=a#4 v=100
36840 On ch=1 n=c#5 v=100
36869 On ch=1 n=c#5 v=0
36869 On ch=1 n=a#4 v=0
36870 On ch=1 n=e5 v=100
36870 On ch=1 n=c#5 v=100
36899 On ch=1 n=c#5 v=0
36899 On ch=1 n=e5 v=0
36900 On ch=1 n=f4 v=100
36900 On ch=1 n=b4 v=100
36959 On ch=1 n=b4 v=0
36959 On ch=1 n=f4 v=0
37020 On ch=1 n=f7 v=100
37020 On ch=1 n=a6 v=100
37039 On ch=1 n=f7 v=0
37040 On ch=1 n=e7 v=100
37059 On ch=1 n=e7 v=0
37060 On ch=1 n=d#7 v=100
37079 On ch=1 n=d#7 v=0
37079 On ch=1 n=a6 v=0
37080 On ch=1 n=d7 v=100
37080 On ch=1 n=f6 v=100
37099 On ch=1 n=d7 v=0
37100 On ch=1 n=a6 v=100
37119 On ch=1 n=a6 v=0
37120 On ch=1 n=f6 v=100
37139 On ch=1 n=f6 v=0
37139 On ch=1 n=f6 v=0
37140 On ch=1 n=d6 v=100
37159 On ch=1 n=d6 v=0
37160 On ch=1 n=c#6 v=100
37179 On ch=1 n=c#6 v=0
37180 On ch=1 n=c6 v=100
37199 On ch=1 n=c6 v=0
37200 On ch=1 n=b5 v=100
37200 On ch=1 n=f6 v=100
37219 On ch=1 n=b5 v=0
37220 On ch=1 n=a#5 v=100
37239 On ch=1 n=a#5 v=0
37240 On ch=1 n=a5 v=100
37259 On ch=1 n=a5 v=0
37259 On ch=1 n=f6 v=0
37260 On ch=1 n=g#5 v=100
37260 On ch=1 n=d6 v=100
37279 On ch=1 n=g#5 v=0
37280 On ch=1 n=g5 v=100
37299 On ch=1 n=g5 v=0
37300 On ch=1 n=e6 v=100
37319 On ch=1 n=e6 v=0
37319 On ch=1 n=d6 v=0
37320 On ch=1 n=f6 v=100
37339 On ch=1 n=f6 v=0
37340 On ch=1 n=e6 v=100
37359 On ch=1 n=e6 v=0
37360 On ch=1 n=d#6 v=100
37379 On ch=1 n=d#6 v=0
37380 On ch=1 n=g#6 v=100
37380 On ch=1 n=d6 v=100
37399 On ch=1 n=d6 v=0
37400 On ch=1 n=c#6 v=100
37419 On ch=1 n=c#6 v=0
37420 On ch=1 n=c6 v=100
37439 On ch=1 n=c6 v=0
37439 On ch=1 n=g#6 v=0
37440 On ch=1 n=f6 v=100
37440 On ch=1 n=b5 v=100
37459 On ch=1 n=b5 v=0
37460 On ch=1 n=a#5 v=100
37479 On ch=1 n=a#5 v=0
37480 On ch=1 n=a5 v=100
37499 On ch=1 n=a5 v=0
37499 On ch=1 n=f6 v=0
37500 On ch=1 n=g#5 v=100
37520 On ch=1 n=d#5 v=100
37539 On ch=1 n=d#5 v=0
37540 On ch=1 n=d5 v=100
37559 On ch=1 n=d5 v=0
37560 On ch=1 n=c#5 v=100
37579 On ch=1 n=c#5 v=0
37580 On ch=1 n=c5 v=100
37599 On ch=1 n=c5 v=0
37600 On ch=1 n=b4 v=100
37619 On ch=1 n=g#5 v=0
37620 On ch=1 n=f5 v=100
37739 On ch=1 n=f5 v=0
37739 On ch=1 n=b4 v=0
37740 On ch=1 n=g#6 v=100
37770 On ch=1 n=f#5 v=100
37799 On ch=1 n=f#5 v=0
37799 On ch=1 n=g#6 v=0
37800 On ch=1 n=g6 v=100
37830 On ch=1 n=g5 v=100
37859 On ch=1 n=g5 v=0
37859 On ch=1 n=g6 v=0
38100 On ch=1 n=f#6 v=100
38129 On ch=1 n=f#6 v=0
38130 On ch=1 n=c#6 v=100
38159 On ch=1 n=c#6 v=0
38280 On ch=1 n=f6 v=100
38309 On ch=1 n=f6 v=0
38310 On ch=1 n=g5 v=100
38339 On ch=1 n=g5 v=0
38430 On ch=1 n=d#6 v=100
38430 On ch=1 n=c6 v=100
38459 On ch=1 n=c6 v=0
38459 On ch=1 n=d#6 v=0
38460 On ch=1 n=g5 v=100
38460 On ch=1 n=a#5 v=100
38549 On ch=1 n=a#5 v=0
38549 On ch=1 n=g5 v=0
38550 On ch=1 n=d6 v=100
38550 On ch=1 n=a#5 v=100
38579 On ch=1 n=a#5 v=0
38579 On ch=1 n=d6 v=0
38580 On ch=1 n=f5 v=100
38580 On ch=1 n=g#5 v=100
38640 On ch=1 n=c6 v=100
38640 On ch=1 n=g#5 v=100
38669 On ch=1 n=g#5 v=0
38669 On ch=1 n=f5 v=0
38699 On ch=1 n=c6 v=0
38699 On ch=1 n=g#5 v=0
38700 On ch=1 n=g5 v=100
38700 On ch=1 n=d#5 v=100
38729 On ch=1 n=d#5 v=0
38729 On ch=1 n=g5 v=0
38730 On ch=1 n=a#5 v=100
38730 On ch=1 n=g5 v=100
38759 On ch=1 n=g5 v=0
38759 On ch=1 n=a#5 v=0
38760 On ch=1 n=f5 v=100
38760 On ch=1 n=d5 v=100
38849 On ch=1 n=d5 v=0
38849 On ch=1 n=f5 v=0
38850 On ch=1 n=g#5 v=100
38850 On ch=1 n=f5 v=100
38879 On ch=1 n=f5 v=0
38879 On ch=1 n=g#5 v=0
38880 On ch=1 n=c5 v=100
38880 On ch=1 n=d#5 v=100
38969 On ch=1 n=d#5 v=0
38969 On ch=1 n=c5 v=0
38970 On ch=1 n=g5 v=100
38970 On ch=1 n=d#5 v=100
38999 On ch=1 n=d#5 v=0
38999 On ch=1 n=g5 v=0
39000 On ch=1 n=d5 v=100
39000 On ch=1 n=b4 v=100
39029 On ch=1 n=b4 v=0
39029 On ch=1 n=d5 v=0
39030 On ch=1 n=f5 v=100
39030 On ch=1 n=d5 v=100
39059 On ch=1 n=d5 v=0
39059 On ch=1 n=f5 v=0
39060 On ch=1 n=f#4 v=100
39060 On ch=1 n=c5 v=100
39149 On ch=1 n=c5 v=0
39149 On ch=1 n=f#4 v=0
39150 On ch=1 n=a6 v=100
39150 On ch=1 n=f#6 v=100
39179 On ch=1 n=f#6 v=0
39179 On ch=1 n=a6 v=0
39180 On ch=1 n=e6 v=100
39180 On ch=1 n=c#6 v=100
39180 On ch=1 n=a5 v=100
39269 On ch=1 n=a5 v=0
39269 On ch=1 n=c#6 v=0
39269 On ch=1 n=e6 v=0
39270 On ch=1 n=g#6 v=100
39270 On ch=1 n=e6 v=100
39299 On ch=1 n=e6 v=0
39299 On ch=1 n=g#6 v=0
39300 On ch=1 n=d#6 v=100
39300 On ch=1 n=c6 v=100
39300 On ch=1 n=g#5 v=100
39389 On ch=1 n=g#5 v=0
39389 On ch=1 n=c6 v=0
39389 On ch=1 n=d#6 v=0
39390 On ch=1 n=f#6 v=100
39390 On ch=1 n=d#6 v=100
39419 On ch=1 n=d#6 v=0
39419 On ch=1 n=f#6 v=0
39420 On ch=1 n=c#6 v=100
39420 On ch=1 n=a5 v=100
39420 On ch=1 n=g5 v=100
39449 On ch=1 n=g5 v=0
39449 On ch=1 n=a5 v=0
39449 On ch=1 n=c#6 v=0
39450 On ch=1 n=f6 v=100
39450 On ch=1 n=d6 v=100
39479 On ch=1 n=d6 v=0
39479 On ch=1 n=f6 v=0
39480 On ch=1 n=f5 v=100
39480 On ch=1 n=g#5 v=100
39480 On ch=1 n=c6 v=100
39569 On ch=1 n=c6 v=0
39569 On ch=1 n=g#5 v=0
39569 On ch=1 n=f5 v=0
39570 On ch=1 n=e6 v=100
39570 On ch=1 n=c#6 v=100
39599 On ch=1 n=c#6 v=0
39599 On ch=1 n=e6 v=0
39600 On ch=1 n=e5 v=100
39600 On ch=1 n=g5 v=100
39600 On ch=1 n=a#5 v=100
39689 On ch=1 n=a#5 v=0
39689 On ch=1 n=g5 v=0
39689 On ch=1 n=e5 v=0
39690 On ch=1 n=d6 v=100
39690 On ch=1 n=a#5 v=100
39719 On ch=1 n=a#5 v=0
39719 On ch=1 n=d6 v=0
39720 On ch=1 n=a5 v=100
39720 On ch=1 n=f5 v=100
39720 On ch=1 n=d#5 v=100
39749 On ch=1 n=d#5 v=0
39749 On ch=1 n=f5 v=0
39749 On ch=1 n=a5 v=0
39750 On ch=1 n=c6 v=100
39750 On ch=1 n=a5 v=100
39779 On ch=1 n=a5 v=0
39779 On ch=1 n=c6 v=0
39780 On ch=1 n=g#5 v=100
39780 On ch=1 n=f5 v=100
39780 On ch=1 n=d5 v=100
39869 On ch=1 n=d5 v=0
39869 On ch=1 n=f5 v=0
39869 On ch=1 n=g#5 v=0
39870 On ch=1 n=g#6 v=100
39870 On ch=1 n=b6 v=100
39899 On ch=1 n=b6 v=0
39899 On ch=1 n=g#6 v=0
39900 On ch=1 n=d#6 v=100
39900 On ch=1 n=b5 v=100
39900 On ch=1 n=f#6 v=100
39989 On ch=1 n=f#6 v=0
39989 On ch=1 n=b5 v=0
39989 On ch=1 n=d#6 v=0
39990 On ch=1 n=a#6 v=100
39990 On ch=1 n=f#6 v=100
40019 On ch=1 n=f#6 v=0
40019 On ch=1 n=a#6 v=0
40020 On ch=1 n=f6 v=100
40020 On ch=1 n=d6 v=100
40020 On ch=1 n=a#5 v=100
40109 On ch=1 n=a#5 v=0
40109 On ch=1 n=d6 v=0
40109 On ch=1 n=f6 v=0
40110 On ch=1 n=g#6 v=100
40110 On ch=1 n=d6 v=100
40139 On ch=1 n=d6 v=0
40139 On ch=1 n=g#6 v=0
40140 On ch=1 n=d#6 v=100
40140 On ch=1 n=b5 v=100
40140 On ch=1 n=a5 v=100
40169 On ch=1 n=a5 v=0
40169 On ch=1 n=b5 v=0
40169 On ch=1 n=d#6 v=0
40170 On ch=1 n=g6 v=100
40170 On ch=1 n=e6 v=100
40199 On ch=1 n=e6 v=0
40199 On ch=1 n=g6 v=0
40200 On ch=1 n=d6 v=100
40200 On ch=1 n=b5 v=100
40200 On ch=1 n=g5 v=100
40289 On ch=1 n=g5 v=0
40289 On ch=1 n=b5 v=0
40289 On ch=1 n=d6 v=0
40290 On ch=1 n=f#6 v=100
40290 On ch=1 n=d6 v=100
40319 On ch=1 n=d6 v=0
40319 On ch=1 n=f#6 v=0
40320 On ch=1 n=c6 v=100
40320 On ch=1 n=a5 v=100
40320 On ch=1 n=f#5 v=100
40409 On ch=1 n=f#5 v=0
40409 On ch=1 n=a5 v=0
40409 On ch=1 n=c6 v=0
40410 On ch=1 n=e6 v=100
40410 On ch=1 n=c6 v=100
40439 On ch=1 n=c6 v=0
40439 On ch=1 n=e6 v=0
40440 On ch=1 n=b5 v=100
40440 On ch=1 n=g5 v=100
40440 On ch=1 n=f5 v=100
40469 On ch=1 n=f5 v=0
40469 On ch=1 n=g5 v=0
40469 On ch=1 n=b5 v=0
40470 On ch=1 n=d6 v=100
40470 On ch=1 n=b5 v=100
40499 On ch=1 n=b5 v=0
40499 On ch=1 n=d6 v=0
40500 On ch=1 n=a#5 v=100
40500 On ch=1 n=g5 v=100
40500 On ch=1 n=e5 v=100
40589 On ch=1 n=e5 v=0
40589 On ch=1 n=g5 v=0
40589 On ch=1 n=a#5 v=0
40590 On ch=1 n=c#7 v=100
40590 On ch=1 n=a#6 v=100
40619 On ch=1 n=a#6 v=0
40619 On ch=1 n=c#7 v=0
40620 On ch=1 n=g#6 v=100
40620 On ch=1 n=f6 v=100
40620 On ch=1 n=c#6 v=100
40709 On ch=1 n=c#6 v=0
40709 On ch=1 n=f6 v=0
40709 On ch=1 n=g#6 v=0
40710 On ch=1 n=c7 v=100
40710 On ch=1 n=g#6 v=100
40739 On ch=1 n=g#6 v=0
40739 On ch=1 n=c7 v=0
40740 On ch=1 n=g6 v=100
40740 On ch=1 n=e6 v=100
40740 On ch=1 n=c6 v=100
40829 On ch=1 n=c6 v=0
40829 On ch=1 n=e6 v=0
40829 On ch=1 n=g6 v=0
40830 On ch=1 n=a#6 v=100
40830 On ch=1 n=g6 v=100
40859 On ch=1 n=g6 v=0
40859 On ch=1 n=a#6 v=0
40860 On ch=1 n=f6 v=100
40860 On ch=1 n=c#6 v=100
40860 On ch=1 n=a#5 v=100
40889 On ch=1 n=a#5 v=0
40889 On ch=1 n=c#6 v=0
40889 On ch=1 n=f6 v=0
40890 On ch=1 n=g#6 v=100
40890 On ch=1 n=f6 v=100
40919 On ch=1 n=f6 v=0
40919 On ch=1 n=g#6 v=0
40920 On ch=1 n=e6 v=100
40920 On ch=1 n=c6 v=100
40920 On ch=1 n=g5 v=100
41009 On ch=1 n=g5 v=0
41009 On ch=1 n=c6 v=0
41009 On ch=1 n=e6 v=0
41010 On ch=1 n=g6 v=100
41010 On ch=1 n=e6 v=100
41039 On ch=1 n=e6 v=0
41039 On ch=1 n=g6 v=0
41040 On ch=1 n=f5 v=100
41040 On ch=1 n=c#6 v=100
41129 On ch=1 n=c#6 v=0
41129 On ch=1 n=f5 v=0
41130 On ch=1 n=f6 v=100
41159 On ch=1 n=f6 v=0
41160 On ch=1 n=g5 v=100
41160 On ch=1 n=c6 v=100
41189 On ch=1 n=c6 v=0
41189 On ch=1 n=g5 v=0
41190 On ch=1 n=e6 v=100
41219 On ch=1 n=e6 v=0
41220 On ch=1 n=b5 v=100
41220 On ch=1 n=g5 v=100
41220 On ch=1 n=e5 v=100
41249 On ch=1 n=e5 v=0
41249 On ch=1 n=g5 v=0
41249 On ch=1 n=b5 v=0
41250 On ch=1 n=c#7 v=100
41250 On ch=1 n=e6 v=100
41279 On ch=1 n=e6 v=0
41279 On ch=1 n=c#7 v=0
41280 On ch=1 n=g6 v=100
41280 On ch=1 n=d#6 v=100
41309 On ch=1 n=d#6 v=0
41309 On ch=1 n=g6 v=0
41310 On ch=1 n=b6 v=100
41310 On ch=1 n=d6 v=100
41339 On ch=1 n=d6 v=0
41339 On ch=1 n=b6 v=0
41340 On ch=1 n=f#6 v=100
41340 On ch=1 n=d#6 v=100
41369 On ch=1 n=d#6 v=0
41369 On ch=1 n=f#6 v=0
41370 On ch=1 n=a6 v=100
41370 On ch=1 n=d6 v=100
41399 On ch=1 n=d6 v=0
41399 On ch=1 n=a6 v=0
41400 On ch=1 n=e6 v=100
41400 On ch=1 n=c#6 v=100
41429 On ch=1 n=c#6 v=0
41429 On ch=1 n=e6 v=0
41430 On ch=1 n=g6 v=100
41430 On ch=1 n=c6 v=100
41459 On ch=1 n=c6 v=0
41459 On ch=1 n=g6 v=0
41460 On ch=1 n=d6 v=100
41460 On ch=1 n=b5 v=100
41489 On ch=1 n=b5 v=0
41489 On ch=1 n=d6 v=0
41490 On ch=1 n=f#6 v=100
41490 On ch=1 n=a#5 v=100
41519 On ch=1 n=a#5 v=0
41519 On ch=1 n=f#6 v=0
41520 On ch=1 n=a5 v=100
41520 On ch=1 n=c#6 v=100
41549 On ch=1 n=c#6 v=0
41549 On ch=1 n=a5 v=0
41550 On ch=1 n=e6 v=100
41550 On ch=1 n=g#5 v=100
41579 On ch=1 n=g#5 v=0
41579 On ch=1 n=e6 v=0
41580 On ch=1 n=g5 v=100
41580 On ch=1 n=b5 v=100
41594 On ch=1 n=b5 v=0
41594 On ch=1 n=g5 v=0
41595 On ch=1 n=c#7 v=100
41595 On ch=1 n=e6 v=100
41609 On ch=1 n=e6 v=0
41609 On ch=1 n=c#7 v=0
41610 On ch=1 n=d#6 v=100
41610 On ch=1 n=g6 v=100
41624 On ch=1 n=g6 v=0
41624 On ch=1 n=d#6 v=0
41625 On ch=1 n=d6 v=100
41625 On ch=1 n=b6 v=100
41639 On ch=1 n=b6 v=0
41639 On ch=1 n=d6 v=0
41640 On ch=1 n=d#6 v=100
41640 On ch=1 n=f#6 v=100
41654 On ch=1 n=f#6 v=0
41654 On ch=1 n=d#6 v=0
41655 On ch=1 n=a6 v=100
41655 On ch=1 n=d6 v=100
41669 On ch=1 n=d6 v=0
41669 On ch=1 n=a6 v=0
41670 On ch=1 n=c#6 v=100
41670 On ch=1 n=e6 v=100
41684 On ch=1 n=e6 v=0
41684 On ch=1 n=c#6 v=0
41685 On ch=1 n=c6 v=100
41685 On ch=1 n=g6 v=100
41699 On ch=1 n=g6 v=0
41699 On ch=1 n=c6 v=0
41700 On ch=1 n=b5 v=100
41700 On ch=1 n=d#6 v=100
41714 On ch=1 n=d#6 v=0
41714 On ch=1 n=b5 v=0
41715 On ch=1 n=f#6 v=100
41715 On ch=1 n=a#5 v=100
41729 On ch=1 n=a#5 v=0
41729 On ch=1 n=f#6 v=0
41730 On ch=1 n=a5 v=100
41730 On ch=1 n=c#6 v=100
41744 On ch=1 n=c#6 v=0
41744 On ch=1 n=a5 v=0
41745 On ch=1 n=g#5 v=100
41745 On ch=1 n=e6 v=100
41759 On ch=1 n=e6 v=0
41759 On ch=1 n=g#5 v=0
41760 On ch=1 n=g5 v=100
41760 On ch=1 n=b5 v=100
41774 On ch=1 n=b5 v=0
41774 On ch=1 n=g5 v=0
41775 On ch=1 n=f#5 v=100
41775 On ch=1 n=d6 v=100
41789 On ch=1 n=d6 v=0
41789 On ch=1 n=f#5 v=0
41790 On ch=1 n=e5 v=100
41790 On ch=1 n=a5 v=100
41804 On ch=1 n=a5 v=0
41804 On ch=1 n=e5 v=0
41805 On ch=1 n=c#6 v=100
41805 On ch=1 n=f#5 v=100
41819 On ch=1 n=f#5 v=0
41819 On ch=1 n=c#6 v=0
41820 On ch=1 n=d#5 v=100
41820 On ch=1 n=g5 v=100
41849 On ch=1 n=g5 v=0
41849 On ch=1 n=d#5 v=0
41850 On ch=1 n=d#7 v=100
41850 On ch=1 n=f#6 v=100
41879 On ch=1 n=f#6 v=0
41879 On ch=1 n=d#7 v=0
41880 On ch=1 n=b6 v=100
41880 On ch=1 n=g6 v=100
41909 On ch=1 n=g6 v=0
41909 On ch=1 n=b6 v=0
41910 On ch=1 n=d7 v=100
41910 On ch=1 n=f#6 v=100
41939 On ch=1 n=f#6 v=0
41939 On ch=1 n=d7 v=0
41940 On ch=1 n=a6 v=100
41940 On ch=1 n=e6 v=100
41969 On ch=1 n=e6 v=0
41969 On ch=1 n=a6 v=0
41970 On ch=1 n=c#7 v=100
41970 On ch=1 n=f#6 v=100
41999 On ch=1 n=f#6 v=0
41999 On ch=1 n=c#7 v=0
42000 On ch=1 n=g6 v=100
42000 On ch=1 n=e6 v=100
42029 On ch=1 n=e6 v=0
42029 On ch=1 n=g6 v=0
42030 On ch=1 n=b6 v=100
42030 On ch=1 n=d#6 v=100
42059 On ch=1 n=d#6 v=0
42059 On ch=1 n=b6 v=0
42060 On ch=1 n=f#6 v=100
42060 On ch=1 n=d6 v=100
42089 On ch=1 n=d6 v=0
42089 On ch=1 n=f#6 v=0
42090 On ch=1 n=a6 v=100
42090 On ch=1 n=c#6 v=100
42119 On ch=1 n=c#6 v=0
42119 On ch=1 n=a6 v=0
42120 On ch=1 n=e6 v=100
42120 On ch=1 n=b5 v=100
42149 On ch=1 n=b5 v=0
42149 On ch=1 n=e6 v=0
42150 On ch=1 n=g6 v=100
42150 On ch=1 n=g#5 v=100
42179 On ch=1 n=g#5 v=0
42179 On ch=1 n=g6 v=0
42180 On ch=1 n=d6 v=100
42180 On ch=1 n=b5 v=100
42194 On ch=1 n=b5 v=0
42194 On ch=1 n=d6 v=0
42195 On ch=1 n=e7 v=100
42195 On ch=1 n=f#6 v=100
42209 On ch=1 n=f#6 v=0
42209 On ch=1 n=e7 v=0
42210 On ch=1 n=b6 v=100
42210 On ch=1 n=g6 v=100
42224 On ch=1 n=g6 v=0
42224 On ch=1 n=b6 v=0
42225 On ch=1 n=d7 v=100
42225 On ch=1 n=f#6 v=100
42239 On ch=1 n=f#6 v=0
42239 On ch=1 n=d7 v=0
42240 On ch=1 n=a6 v=100
42240 On ch=1 n=e6 v=100
42254 On ch=1 n=e6 v=0
42254 On ch=1 n=a6 v=0
42255 On ch=1 n=c#7 v=100
42255 On ch=1 n=f#6 v=100
42269 On ch=1 n=f#6 v=0
42269 On ch=1 n=c#7 v=0
42270 On ch=1 n=g6 v=100
42270 On ch=1 n=e6 v=100
42284 On ch=1 n=e6 v=0
42284 On ch=1 n=g6 v=0
42285 On ch=1 n=b6 v=100
42285 On ch=1 n=d#6 v=100
42299 On ch=1 n=d#6 v=0
42299 On ch=1 n=b6 v=0
42300 On ch=1 n=f#6 v=100
42300 On ch=1 n=d6 v=100
42314 On ch=1 n=d6 v=0
42314 On ch=1 n=f#6 v=0
42315 On ch=1 n=a6 v=100
42315 On ch=1 n=c#6 v=100
42329 On ch=1 n=c#6 v=0
42329 On ch=1 n=a6 v=0
42330 On ch=1 n=e6 v=100
42330 On ch=1 n=b5 v=100
42344 On ch=1 n=b5 v=0
42344 On ch=1 n=e6 v=0
42345 On ch=1 n=g6 v=100
42345 On ch=1 n=a#5 v=100
42359 On ch=1 n=a#5 v=0
42359 On ch=1 n=g6 v=0
42360 On ch=1 n=d6 v=100
42360 On ch=1 n=b5 v=100
42374 On ch=1 n=b5 v=0
42374 On ch=1 n=d6 v=0
42375 On ch=1 n=f#6 v=100
42375 On ch=1 n=a#5 v=100
42389 On ch=1 n=a#5 v=0
42389 On ch=1 n=f#6 v=0
42390 On ch=1 n=c#6 v=100
42390 On ch=1 n=a5 v=100
42404 On ch=1 n=a5 v=0
42404 On ch=1 n=c#6 v=0
42405 On ch=1 n=e6 v=100
42405 On ch=1 n=g#5 v=100
42419 On ch=1 n=g#5 v=0
42419 On ch=1 n=e6 v=0
42420 On ch=1 n=b5 v=100
42420 On ch=1 n=g5 v=100
42464 On ch=1 n=g5 v=0
42464 On ch=1 n=b5 v=0
42465 On ch=1 n=g7 v=100
42465 On ch=1 n=d7 v=100
42465 On ch=1 n=b6 v=100
42465 On ch=1 n=g6 v=100
42509 On ch=1 n=g6 v=0
42509 On ch=1 n=g7 v=0
42509 On ch=1 n=d7 v=0
42509 On ch=1 n=b6 v=0
42510 On ch=1 n=a6 v=100
42510 On ch=1 n=c#7 v=100
42510 On ch=1 n=f#7 v=100
42510 On ch=1 n=f#6 v=100
42554 On ch=1 n=f#6 v=0
42554 On ch=1 n=a6 v=0
42554 On ch=1 n=c#7 v=0
42554 On ch=1 n=f#7 v=0
42555 On ch=1 n=e7 v=100
42555 On ch=1 n=b6 v=100
42555 On ch=1 n=g6 v=100
42555 On ch=1 n=e6 v=100
42599 On ch=1 n=e6 v=0
42599 On ch=1 n=e7 v=0
42599 On ch=1 n=b6 v=0
42599 On ch=1 n=g6 v=0
42600 On ch=1 n=d7 v=100
42600 On ch=1 n=b6 v=100
42600 On ch=1 n=f#6 v=100
42600 On ch=1 n=d6 v=100
42644 On ch=1 n=d6 v=0
42644 On ch=1 n=d7 v=0
42644 On ch=1 n=b6 v=0
42644 On ch=1 n=f#6 v=0
42645 On ch=1 n=c#7 v=100
42645 On ch=1 n=a6 v=100
42645 On ch=1 n=e6 v=100
42645 On ch=1 n=c#6 v=100
42689 On ch=1 n=c#6 v=0
42689 On ch=1 n=c#7 v=0
42689 On ch=1 n=a6 v=0
42689 On ch=1 n=e6 v=0
42690 On ch=1 n=b6 v=100
42690 On ch=1 n=g6 v=100
42690 On ch=1 n=d6 v=100
42690 On ch=1 n=b5 v=100
42734 On ch=1 n=b5 v=0
42734 On ch=1 n=b6 v=0
42734 On ch=1 n=g6 v=0
42734 On ch=1 n=d6 v=0
42735 On ch=1 n=a6 v=100
42735 On ch=1 n=f#6 v=100
42735 On ch=1 n=c#6 v=100
42735 On ch=1 n=a5 v=100
42779 On ch=1 n=a5 v=0
42779 On ch=1 n=a6 v=0
42779 On ch=1 n=f#6 v=0
42779 On ch=1 n=c#6 v=0
42780 On ch=1 n=g6 v=100
42780 On ch=1 n=e6 v=100
42780 On ch=1 n=b5 v=100
42780 On ch=1 n=g5 v=100
42824 On ch=1 n=g5 v=0
42824 On ch=1 n=g6 v=0
42824 On ch=1 n=e6 v=0
42824 On ch=1 n=b5 v=0
42825 On ch=1 n=g7 v=100
42825 On ch=1 n=d7 v=100
42825 On ch=1 n=b6 v=100
42825 On ch=1 n=g6 v=100
42869 On ch=1 n=g6 v=0
42869 On ch=1 n=g7 v=0
42869 On ch=1 n=d7 v=0
42869 On ch=1 n=b6 v=0
42870 On ch=1 n=f#7 v=100
42870 On ch=1 n=c#7 v=100
42870 On ch=1 n=a6 v=100
42870 On ch=1 n=f#6 v=100
42914 On ch=1 n=f#6 v=0
42914 On ch=1 n=f#7 v=0
42914 On ch=1 n=c#7 v=0
42914 On ch=1 n=a6 v=0
42915 On ch=1 n=e7 v=100
42915 On ch=1 n=b6 v=100
42915 On ch=1 n=g6 v=100
42915 On ch=1 n=e6 v=100
42959 On ch=1 n=e6 v=0
42959 On ch=1 n=e7 v=0
42959 On ch=1 n=b6 v=0
42959 On ch=1 n=g6 v=0
42960 On ch=1 n=d7 v=100
42960 On ch=1 n=a6 v=100
42960 On ch=1 n=f6 v=100
42960 On ch=1 n=d6 v=100
43004 On ch=1 n=d6 v=0
43004 On ch=1 n=d7 v=0
43004 On ch=1 n=a6 v=0
43004 On ch=1 n=f6 v=0
43005 On ch=1 n=c7 v=100
43005 On ch=1 n=g6 v=100
43005 On ch=1 n=e6 v=100
43005 On ch=1 n=c6 v=100
43049 On ch=1 n=c6 v=0
43049 On ch=1 n=c7 v=0
43049 On ch=1 n=g6 v=0
43049 On ch=1 n=e6 v=0
43050 On ch=1 n=b6 v=100
43050 On ch=1 n=f6 v=100
43050 On ch=1 n=d6 v=100
43050 On ch=1 n=b5 v=100
43094 On ch=1 n=b5 v=0
43094 On ch=1 n=b6 v=0
43094 On ch=1 n=f6 v=0
43094 On ch=1 n=d6 v=0
43095 On ch=1 n=a6 v=100
43095 On ch=1 n=f6 v=100
43095 On ch=1 n=d6 v=100
43095 On ch=1 n=a5 v=100
43139 On ch=1 n=a5 v=0
43139 On ch=1 n=a6 v=0
43139 On ch=1 n=f6 v=0
43139 On ch=1 n=d6 v=0
43140 On ch=1 n=g6 v=100
43140 On ch=1 n=d#6 v=100
43140 On ch=1 n=c6 v=100
43140 On ch=1 n=g5 v=100
43184 On ch=1 n=g5 v=0
43184 On ch=1 n=g6 v=0
43184 On ch=1 n=d#6 v=0
43184 On ch=1 n=c6 v=0
43185 On ch=1 n=a#7 v=100
43185 On ch=1 n=g7 v=100
43190 On ch=1 n=a#6 v=100
43210 On ch=1 n=d#7 v=100
43219 On ch=1 n=a#6 v=0
43229 On ch=1 n=a#7 v=0
43229 On ch=1 n=g7 v=0
43230 On ch=1 n=a6 v=100
43230 On ch=1 n=a7 v=100
43230 On ch=1 n=f7 v=100
43239 On ch=1 n=d#7 v=0
43250 On ch=1 n=c7 v=100
43259 On ch=1 n=a6 v=0
43270 On ch=1 n=g6 v=100
43274 On ch=1 n=f7 v=0
43274 On ch=1 n=a7 v=0
43275 On ch=1 n=d#7 v=100
43275 On ch=1 n=g7 v=100
43279 On ch=1 n=c7 v=0
43290 On ch=1 n=a#6 v=100
43299 On ch=1 n=g6 v=0
43319 On ch=1 n=g7 v=0
43319 On ch=1 n=d#7 v=0
43319 On ch=1 n=a#6 v=0
43320 On ch=1 n=f6 v=100
43320 On ch=1 n=f7 v=100
43320 On ch=1 n=d7 v=100
43349 On ch=1 n=f6 v=0
43350 On ch=1 n=a#6 v=100
43379 On ch=1 n=a#6 v=0
43379 On ch=1 n=d7 v=0
43379 On ch=1 n=f7 v=0
43380 On ch=1 n=d#6 v=100
43380 On ch=1 n=d#7 v=100
43380 On ch=1 n=c7 v=100
43409 On ch=1 n=d#6 v=0
43410 On ch=1 n=g6 v=100
43439 On ch=1 n=g6 v=0
43439 On ch=1 n=c7 v=0
43439 On ch=1 n=d#7 v=0
43440 On ch=1 n=d6 v=100
43440 On ch=1 n=d7 v=100
43440 On ch=1 n=a#6 v=100
43469 On ch=1 n=d6 v=0
43470 On ch=1 n=g6 v=100
43499 On ch=1 n=g6 v=0
43499 On ch=1 n=a#6 v=0
43499 On ch=1 n=d7 v=0
43500 On ch=1 n=c6 v=100
43500 On ch=1 n=c7 v=100
43500 On ch=1 n=g6 v=100
43520 On ch=1 n=d#6 v=100
43529 On ch=1 n=c6 v=0
43540 On ch=1 n=a#5 v=100
43544 On ch=1 n=c7 v=0
43544 On ch=1 n=g6 v=0
43545 On ch=1 n=a#6 v=100
43545 On ch=1 n=g6 v=100
43549 On ch=1 n=d#6 v=0
43569 On ch=1 n=a#5 v=0
43570 On ch=1 n=d#6 v=100
43589 On ch=1 n=a#6 v=0
43589 On ch=1 n=g6 v=0
43590 On ch=1 n=a5 v=100
43590 On ch=1 n=a6 v=100
43590 On ch=1 n=f6 v=100
43599 On ch=1 n=d#6 v=0
43610 On ch=1 n=c6 v=100
43619 On ch=1 n=a5 v=0
43630 On ch=1 n=g5 v=100
43634 On ch=1 n=f6 v=0
43634 On ch=1 n=a6 v=0
43635 On ch=1 n=g6 v=100
43635 On ch=1 n=d#6 v=100
43639 On ch=1 n=c6 v=0
43650 On ch=1 n=a#5 v=100
43659 On ch=1 n=g5 v=0
43679 On ch=1 n=d#6 v=0
43679 On ch=1 n=g6 v=0
43680 On ch=1 n=d6 v=100
43680 On ch=1 n=f5 v=100
43680 On ch=1 n=f6 v=100
43719 On ch=1 n=a#5 v=0
43724 On ch=1 n=d6 v=0
43724 On ch=1 n=f5 v=0
43724 On ch=1 n=f6 v=0
43725 On ch=1 n=d#5 v=100
43725 On ch=1 n=g5 v=100
43725 On ch=1 n=c6 v=100
43725 On ch=1 n=d#6 v=100
43769 On ch=1 n=d#6 v=0
43769 On ch=1 n=d#5 v=0
43769 On ch=1 n=g5 v=0
43769 On ch=1 n=c6 v=0
43770 On ch=1 n=g5 v=100
43770 On ch=1 n=d6 v=100
43770 On ch=1 n=a#5 v=100
43770 On ch=1 n=d5 v=100
43819 On ch=1 n=d5 v=0
43819 On ch=1 n=g5 v=0
43819 On ch=1 n=d6 v=0
43819 On ch=1 n=a#5 v=0
43820 On ch=1 n=g5 v=100
43820 On ch=1 n=d#5 v=100
43820 On ch=1 n=c6 v=100
43820 On ch=1 n=c5 v=100
43859 On ch=1 n=c5 v=0
43859 On ch=1 n=g5 v=0
43859 On ch=1 n=d#5 v=0
43859 On ch=1 n=c6 v=0
43860 On ch=1 n=g5 v=100
43860 On ch=1 n=d#5 v=100
43860 On ch=1 n=a#5 v=100
43860 On ch=1 n=a#4 v=100
43904 On ch=1 n=a#4 v=0
43904 On ch=1 n=g5 v=0
43904 On ch=1 n=d#5 v=0
43904 On ch=1 n=a#5 v=0
43905 On ch=1 n=a#6 v=100
43905 On ch=1 n=g6 v=100
43905 On ch=1 n=a#5 v=100
43934 On ch=1 n=a#5 v=0
43935 On ch=1 n=d#6 v=100
43949 On ch=1 n=g6 v=0
43949 On ch=1 n=a#6 v=0
43950 On ch=1 n=a5 v=100
43950 On ch=1 n=a6 v=100
43950 On ch=1 n=f6 v=100
43964 On ch=1 n=d#6 v=0
43965 On ch=1 n=c6 v=100
43979 On ch=1 n=a5 v=0
43994 On ch=1 n=f6 v=0
43994 On ch=1 n=a6 v=0
43994 On ch=1 n=c6 v=0
43995 On ch=1 n=g5 v=100
43995 On ch=1 n=d#6 v=100
43995 On ch=1 n=g6 v=100
44010 On ch=1 n=a#5 v=100
44024 On ch=1 n=g5 v=0
44039 On ch=1 n=d#6 v=0
44039 On ch=1 n=g6 v=0
44039 On ch=1 n=a#5 v=0
44040 On ch=1 n=f5 v=100
44040 On ch=1 n=f6 v=100
44040 On ch=1 n=d6 v=100
44069 On ch=1 n=f5 v=0
44070 On ch=1 n=a#5 v=100
44099 On ch=1 n=a#5 v=0
44099 On ch=1 n=d6 v=0
44099 On ch=1 n=f6 v=0
44100 On ch=1 n=d#5 v=100
44100 On ch=1 n=d#6 v=100
44100 On ch=1 n=c6 v=100
44129 On ch=1 n=d#5 v=0
44130 On ch=1 n=g5 v=100
44159 On ch=1 n=g5 v=0
44159 On ch=1 n=c6 v=0
44159 On ch=1 n=d#6 v=0
44160 On ch=1 n=d5 v=100
44160 On ch=1 n=d6 v=100
44160 On ch=1 n=a#5 v=100
44189 On ch=1 n=d5 v=0
44190 On ch=1 n=g5 v=100
44219 On ch=1 n=g5 v=0
44219 On ch=1 n=a#5 v=0
44219 On ch=1 n=d6 v=0
44220 On ch=1 n=c6 v=100
44220 On ch=1 n=c7 v=100
44220 On ch=1 n=g6 v=100
44240 On ch=1 n=d#6 v=100
44249 On ch=1 n=c6 v=0
44260 On ch=1 n=a#5 v=100
44264 On ch=1 n=c7 v=0
44264 On ch=1 n=g6 v=0
44265 On ch=1 n=a#6 v=100
44265 On ch=1 n=g6 v=100
44269 On ch=1 n=d#6 v=0
44289 On ch=1 n=a#5 v=0
44290 On ch=1 n=d#6 v=100
44309 On ch=1 n=a#6 v=0
44309 On ch=1 n=g6 v=0
44310 On ch=1 n=a5 v=100
44310 On ch=1 n=a6 v=100
44310 On ch=1 n=f6 v=100
44319 On ch=1 n=d#6 v=0
44330 On ch=1 n=c6 v=100
44339 On ch=1 n=a5 v=0
44350 On ch=1 n=g5 v=100
44354 On ch=1 n=f6 v=0
44354 On ch=1 n=a6 v=0
44355 On ch=1 n=g6 v=100
44355 On ch=1 n=d#6 v=100
44359 On ch=1 n=c6 v=0
44370 On ch=1 n=a#5 v=100
44379 On ch=1 n=g5 v=0
44399 On ch=1 n=d#6 v=0
44399 On ch=1 n=g6 v=0
44400 On ch=1 n=f6 v=100
44400 On ch=1 n=d6 v=100
44400 On ch=1 n=f5 v=100
44444 On ch=1 n=f5 v=0
44444 On ch=1 n=a#5 v=0
44444 On ch=1 n=f6 v=0
44444 On ch=1 n=d6 v=0
44445 On ch=1 n=c6 v=100
44445 On ch=1 n=g5 v=100
44445 On ch=1 n=d#5 v=100
44445 On ch=1 n=d#6 v=100
44489 On ch=1 n=d#6 v=0
44489 On ch=1 n=c6 v=0
44489 On ch=1 n=g5 v=0
44489 On ch=1 n=d#5 v=0
44490 On ch=1 n=g5 v=100
44490 On ch=1 n=a#5 v=100
44490 On ch=1 n=d6 v=100
44490 On ch=1 n=d5 v=100
44534 On ch=1 n=d5 v=0
44534 On ch=1 n=g5 v=0
44534 On ch=1 n=a#5 v=0
44534 On ch=1 n=d6 v=0
44535 On ch=1 n=d#5 v=100
44535 On ch=1 n=g5 v=100
44535 On ch=1 n=c5 v=100
44535 On ch=1 n=c6 v=100
44579 On ch=1 n=c6 v=0
44579 On ch=1 n=d#5 v=0
44579 On ch=1 n=g5 v=0
44579 On ch=1 n=c5 v=0
44580 On ch=1 n=a#5 v=100
44580 On ch=1 n=g5 v=100
44580 On ch=1 n=d#5 v=100
44580 On ch=1 n=a#4 v=100
44639 On ch=1 n=a#4 v=0
44639 On ch=1 n=a#5 v=0
44639 On ch=1 n=g5 v=0
44639 On ch=1 n=d#5 v=0
44640 On ch=1 n=a5 v=100
44640 On ch=1 n=f#5 v=100
44699 On ch=1 n=f#5 v=0
44699 On ch=1 n=a5 v=0
44700 On ch=1 n=g5 v=100
44700 On ch=1 n=d#5 v=100
44759 On ch=1 n=d#5 v=0
44759 On ch=1 n=g5 v=0
44760 On ch=1 n=f5 v=100
44760 On ch=1 n=c#5 v=100
44819 On ch=1 n=c#5 v=0
44819 On ch=1 n=f5 v=0
44820 On ch=1 n=d#5 v=100
44820 On ch=1 n=a#4 v=100
44879 On ch=1 n=a#4 v=0
44879 On ch=1 n=d#5 v=0
44880 On ch=1 n=g4 v=100
44880 On ch=1 n=d5 v=100
44939 On ch=1 n=d5 v=0
44939 On ch=1 n=g4 v=0
44940 On ch=1 n=f#4 v=100
44940 On ch=1 n=c#5 v=100
44999 On ch=1 n=c#5 v=0
44999 On ch=1 n=f#4 v=0
45000 On ch=1 n=a4 v=100
45000 On ch=1 n=d#4 v=100
45059 On ch=1 n=d#4 v=0
45059 On ch=1 n=a4 v=0
45060 On ch=1 n=g4 v=100
45060 On ch=1 n=c#4 v=100
45119 On ch=1 n=c#4 v=0
45119 On ch=1 n=g4 v=0
45120 On ch=1 n=f4 v=100
45120 On ch=1 n=c4 v=100
45179 On ch=1 n=c4 v=0
45179 On ch=1 n=f4 v=0
45180 On ch=1 n=d#4 v=100
45180 On ch=1 n=a#3 v=100
45239 On ch=1 n=a#3 v=0
45239 On ch=1 n=d#4 v=0
45240 On ch=1 n=c#4 v=100
45240 On ch=1 n=a3 v=100
45299 On ch=1 n=a3 v=0
45299 On ch=1 n=c#4 v=0
45360 On ch=1 n=f5 v=100
45360 On ch=1 n=c#5 v=100
45360 On ch=1 n=a#4 v=100
45479 On ch=1 n=a#4 v=0
45479 On ch=1 n=c#5 v=0
45479 On ch=1 n=f5 v=0
45480 On ch=1 n=f6 v=100
45480 On ch=1 n=c#6 v=100
45480 On ch=1 n=a#5 v=100
45539 On ch=1 n=a#5 v=0
45539 On ch=1 n=c#6 v=0
45539 On ch=1 n=f6 v=0
45540 On ch=1 n=g#7 v=100
45540 On ch=1 n=f7 v=100
45540 On ch=1 n=c#7 v=100
45540 On ch=1 n=g#6 v=100
45600 On ch=1 n=a#5 v=100
45600 On ch=1 n=c#6 v=100
45600 On ch=1 n=f6 v=100
45719 On ch=1 n=f6 v=0
45719 On ch=1 n=a#5 v=0
45719 On ch=1 n=c#6 v=0
45720 On ch=1 n=f5 v=100
45720 On ch=1 n=c#5 v=100
45720 On ch=1 n=a#4 v=100
45779 On ch=1 n=a#4 v=0
45779 On ch=1 n=f5 v=0
45779 On ch=1 n=f7 v=0
45779 On ch=1 n=g#6 v=0
45779 On ch=1 n=g#7 v=0
45779 On ch=1 n=c#5 v=0
45779 On ch=1 n=c#7 v=0
45825 On ch=1 n=f7 v=100
45825 On ch=1 n=a#6 v=100
45825 On ch=1 n=f6 v=100
45839 On ch=1 n=f6 v=0
45839 On ch=1 n=a#6 v=0
45839 On ch=1 n=f7 v=0
45840 On ch=1 n=c#7 v=100
45840 On ch=1 n=a#6 v=100
45840 On ch=1 n=c#6 v=100
45899 On ch=1 n=c#6 v=0
45899 On ch=1 n=a#6 v=0
45899 On ch=1 n=c#7 v=0
45920 On ch=1 n=a#6 v=100
45939 On ch=1 n=a#6 v=0
45940 On ch=1 n=c#7 v=100
45959 On ch=1 n=c#7 v=0
45960 On ch=1 n=f7 v=100
45979 On ch=1 n=f7 v=0
45980 On ch=1 n=g6 v=100
45999 On ch=1 n=g6 v=0
46000 On ch=1 n=a#6 v=100
46019 On ch=1 n=a#6 v=0
46020 On ch=1 n=c#7 v=100
46039 On ch=1 n=c#7 v=0
46040 On ch=1 n=f6 v=100
46059 On ch=1 n=f6 v=0
46060 On ch=1 n=a#6 v=100
46079 On ch=1 n=a#6 v=0
46080 On ch=1 n=f7 v=100
46099 On ch=1 n=f7 v=0
46100 On ch=1 n=g6 v=100
46119 On ch=1 n=g6 v=0
46120 On ch=1 n=c#7 v=100
46139 On ch=1 n=c#7 v=0
46140 On ch=1 n=f6 v=100
46159 On ch=1 n=f6 v=0
46160 On ch=1 n=a#6 v=100
46179 On ch=1 n=a#6 v=0
46240 On ch=1 n=f4 v=100
46240 On ch=1 n=c#5 v=100
46299 On ch=1 n=c#5 v=0
46299 On ch=1 n=f4 v=0
46300 On ch=1 n=f5 v=100
46300 On ch=1 n=f4 v=100
46300 On ch=1 n=c#5 v=100
46359 On ch=1 n=c#5 v=0
46359 On ch=1 n=f4 v=0
46359 On ch=1 n=f5 v=0
46360 On ch=1 n=c5 v=100
46360 On ch=1 n=f4 v=100
46419 On ch=1 n=f4 v=0
46419 On ch=1 n=c5 v=0
46420 On ch=1 n=f5 v=100
46420 On ch=1 n=c5 v=100
46420 On ch=1 n=f4 v=100
46479 On ch=1 n=f4 v=0
46479 On ch=1 n=c5 v=0
46479 On ch=1 n=f5 v=0
46480 On ch=1 n=a#4 v=100
46480 On ch=1 n=f4 v=100
46539 On ch=1 n=f4 v=0
46539 On ch=1 n=a#4 v=0
46540 On ch=1 n=f5 v=100
46540 On ch=1 n=a#4 v=100
46540 On ch=1 n=f4 v=100
46599 On ch=1 n=f4 v=0
46599 On ch=1 n=a#4 v=0
46599 On ch=1 n=f5 v=0
46600 On ch=1 n=a4 v=100
46600 On ch=1 n=f4 v=100
46659 On ch=1 n=f4 v=0
46659 On ch=1 n=a4 v=0
46660 On ch=1 n=f5 v=100
46660 On ch=1 n=a4 v=100
46660 On ch=1 n=f4 v=100
46719 On ch=1 n=f4 v=0
46719 On ch=1 n=a4 v=0
46719 On ch=1 n=f5 v=0
46720 On ch=1 n=g#4 v=100
46720 On ch=1 n=g#3 v=100
46800 On ch=1 n=f5 v=100
46800 On ch=1 n=d5 v=100
46800 On ch=1 n=a#4 v=100
46919 On ch=1 n=a#4 v=0
46919 On ch=1 n=f5 v=0
46919 On ch=1 n=d5 v=0
46920 On ch=1 n=f6 v=100
46920 On ch=1 n=d6 v=100
46920 On ch=1 n=a#5 v=100
46979 On ch=1 n=a#5 v=0
46979 On ch=1 n=f6 v=0
46979 On ch=1 n=g#4 v=0
46979 On ch=1 n=g#3 v=0
46979 On ch=1 n=d6 v=0
46980 On ch=1 n=b7 v=100
46980 On ch=1 n=g#7 v=100
46980 On ch=1 n=e7 v=100
46980 On ch=1 n=b6 v=100
47039 On ch=1 n=b6 v=0
47039 On ch=1 n=b7 v=0
47039 On ch=1 n=g#7 v=0
47039 On ch=1 n=e7 v=0
47040 On ch=1 n=g#6 v=100
47040 On ch=1 n=d#6 v=100
47040 On ch=1 n=b5 v=100
47040 On ch=1 n=g#5 v=100
47159 On ch=1 n=g#5 v=0
47159 On ch=1 n=g#6 v=0
47159 On ch=1 n=d#6 v=0
47159 On ch=1 n=b5 v=0
47160 On ch=1 n=g#5 v=100
47160 On ch=1 n=d#5 v=100
47160 On ch=1 n=g#4 v=100
47219 On ch=1 n=g#4 v=0
47219 On ch=1 n=d#5 v=0
47219 On ch=1 n=g#5 v=0
47265 On ch=1 n=a#6 v=100
47265 On ch=1 n=f7 v=100
47265 On ch=1 n=f6 v=100
47279 On ch=1 n=f6 v=0
47279 On ch=1 n=f7 v=0
47279 On ch=1 n=a#6 v=0
47280 On ch=1 n=d7 v=100
47280 On ch=1 n=a#6 v=100
47280 On ch=1 n=d6 v=100
47339 On ch=1 n=d6 v=0
47339 On ch=1 n=a#6 v=0
47339 On ch=1 n=d7 v=0
47360 On ch=1 n=a#5 v=100
47379 On ch=1 n=a#5 v=0
47380 On ch=1 n=d6 v=100
47399 On ch=1 n=d6 v=0
47400 On ch=1 n=f6 v=100
47419 On ch=1 n=f6 v=0
47420 On ch=1 n=f#5 v=100
47439 On ch=1 n=f#5 v=0
47440 On ch=1 n=a#5 v=100
47459 On ch=1 n=a#5 v=0
47460 On ch=1 n=d6 v=100
47479 On ch=1 n=d6 v=0
47480 On ch=1 n=f5 v=100
47499 On ch=1 n=f5 v=0
47500 On ch=1 n=a#5 v=100
47519 On ch=1 n=a#5 v=0
47520 On ch=1 n=f6 v=100
47539 On ch=1 n=f6 v=0
47540 On ch=1 n=f5 v=100
47559 On ch=1 n=f5 v=0
47560 On ch=1 n=a#5 v=100
47579 On ch=1 n=a#5 v=0
47580 On ch=1 n=d6 v=100
47599 On ch=1 n=d6 v=0
47600 On ch=1 n=f5 v=100
47619 On ch=1 n=f5 v=0
47620 On ch=1 n=a#5 v=100
47639 On ch=1 n=a#5 v=0
47680 On ch=1 n=g#4 v=100
47680 On ch=1 n=d5 v=100
47680 On ch=1 n=g#5 v=100
47739 On ch=1 n=g#5 v=0
47739 On ch=1 n=d5 v=0
47739 On ch=1 n=g#4 v=0
47740 On ch=1 n=b4 v=100
47740 On ch=1 n=d#5 v=100
47740 On ch=1 n=b5 v=100
47740 On ch=1 n=a5 v=100
47799 On ch=1 n=a5 v=0
47799 On ch=1 n=b4 v=0
47799 On ch=1 n=d#5 v=0
47799 On ch=1 n=b5 v=0
47800 On ch=1 n=g4 v=100
47800 On ch=1 n=d5 v=100
47800 On ch=1 n=g5 v=100
47859 On ch=1 n=g5 v=0
47859 On ch=1 n=d5 v=0
47859 On ch=1 n=g4 v=0
47860 On ch=1 n=a#4 v=100
47860 On ch=1 n=a#5 v=100
47860 On ch=1 n=g5 v=100
47860 On ch=1 n=d5 v=100
47919 On ch=1 n=d5 v=0
47919 On ch=1 n=a#4 v=0
47919 On ch=1 n=a#5 v=0
47919 On ch=1 n=g5 v=0
47920 On ch=1 n=d5 v=100
47920 On ch=1 n=f#4 v=100
47920 On ch=1 n=f#5 v=100
47979 On ch=1 n=f#5 v=0
47979 On ch=1 n=f#4 v=0
47979 On ch=1 n=d5 v=0
47980 On ch=1 n=f#5 v=100
47980 On ch=1 n=a4 v=100
47980 On ch=1 n=a5 v=100
47980 On ch=1 n=d5 v=100
48039 On ch=1 n=d5 v=0
48039 On ch=1 n=f#5 v=0
48039 On ch=1 n=a4 v=0
48039 On ch=1 n=a5 v=0
48040 On ch=1 n=d5 v=100
48040 On ch=1 n=f4 v=100
48040 On ch=1 n=f5 v=100
48099 On ch=1 n=f5 v=0
48099 On ch=1 n=f4 v=0
48099 On ch=1 n=d5 v=0
48100 On ch=1 n=g#4 v=100
48100 On ch=1 n=g#5 v=100
48100 On ch=1 n=d5 v=100
48100 On ch=1 n=f5 v=100
48159 On ch=1 n=f5 v=0
48159 On ch=1 n=g#4 v=0
48159 On ch=1 n=g#5 v=0
48159 On ch=1 n=d5 v=0
48160 On ch=1 n=d4 v=100
48160 On ch=1 n=d5 v=100
48240 On ch=1 n=a5 v=100
48240 On ch=1 n=a4 v=100
48240 On ch=1 n=f#5 v=100
48240 On ch=1 n=d5 v=100
48299 On ch=1 n=d5 v=0
48299 On ch=1 n=a4 v=0
48299 On ch=1 n=a5 v=0
48299 On ch=1 n=f#5 v=0
48300 On ch=1 n=f#6 v=100
48300 On ch=1 n=d6 v=100
48300 On ch=1 n=b5 v=100
48300 On ch=1 n=f#5 v=100
48359 On ch=1 n=f#5 v=0
48359 On ch=1 n=d6 v=0
48359 On ch=1 n=f#6 v=0
48359 On ch=1 n=b5 v=0
48360 On ch=1 n=d7 v=100
48360 On ch=1 n=a6 v=100
48360 On ch=1 n=f#6 v=100
48360 On ch=1 n=d6 v=100
48419 On ch=1 n=d6 v=0
48419 On ch=1 n=d5 v=0
48419 On ch=1 n=d7 v=0
48419 On ch=1 n=d4 v=0
48419 On ch=1 n=f#6 v=0
48419 On ch=1 n=a6 v=0
48420 On ch=1 n=c#8 v=100
48420 On ch=1 n=a#7 v=100
48420 On ch=1 n=f#7 v=100
48420 On ch=1 n=c#7 v=100
48480 On ch=1 n=a#6 v=100
48480 On ch=1 n=e6 v=100
48480 On ch=1 n=c#6 v=100
48480 On ch=1 n=a#5 v=100
48599 On ch=1 n=a#5 v=0
48599 On ch=1 n=c#6 v=0
48599 On ch=1 n=a#6 v=0
48599 On ch=1 n=e6 v=0
48600 On ch=1 n=d#5 v=100
48600 On ch=1 n=a#4 v=100
48659 On ch=1 n=a#4 v=0
48659 On ch=1 n=a#7 v=0
48659 On ch=1 n=c#8 v=0
48659 On ch=1 n=c#7 v=0
48659 On ch=1 n=d#5 v=0
48659 On ch=1 n=f#7 v=0
48705 On ch=1 n=a6 v=100
48705 On ch=1 n=d6 v=100
48705 On ch=1 n=a5 v=100
48719 On ch=1 n=a5 v=0
48719 On ch=1 n=d6 v=0
48719 On ch=1 n=a6 v=0
48720 On ch=1 n=f#5 v=100
48720 On ch=1 n=d6 v=100
48720 On ch=1 n=f#6 v=100
48779 On ch=1 n=f#6 v=0
48779 On ch=1 n=d6 v=0
48779 On ch=1 n=f#5 v=0
48800 On ch=1 n=d5 v=100
48819 On ch=1 n=d5 v=0
48820 On ch=1 n=f#5 v=100
48839 On ch=1 n=f#5 v=0
48840 On ch=1 n=a5 v=100
48859 On ch=1 n=a5 v=0
48860 On ch=1 n=a#4 v=100
48879 On ch=1 n=a#4 v=0
48880 On ch=1 n=d5 v=100
48899 On ch=1 n=d5 v=0
48900 On ch=1 n=f#5 v=100
48919 On ch=1 n=f#5 v=0
48920 On ch=1 n=a4 v=100
48939 On ch=1 n=a4 v=0
48940 On ch=1 n=d5 v=100
48959 On ch=1 n=d5 v=0
48960 On ch=1 n=a5 v=100
48979 On ch=1 n=a5 v=0
48980 On ch=1 n=a#4 v=100
48999 On ch=1 n=a#4 v=0
49000 On ch=1 n=d5 v=100
49019 On ch=1 n=d5 v=0
49020 On ch=1 n=f#5 v=100
49039 On ch=1 n=f#5 v=0
49040 On ch=1 n=a4 v=100
49059 On ch=1 n=a4 v=0
49060 On ch=1 n=d5 v=100
49079 On ch=1 n=d5 v=0
49120 On ch=1 n=a5 v=100
49139 On ch=1 n=a5 v=0
49140 On ch=1 n=c#6 v=100
49179 On ch=1 n=c#6 v=0
49180 On ch=1 n=f#5 v=100
49199 On ch=1 n=f#5 v=0
49200 On ch=1 n=a4 v=100
49239 On ch=1 n=a4 v=0
49240 On ch=1 n=c6 v=100
49259 On ch=1 n=c6 v=0
49260 On ch=1 n=a5 v=100
49299 On ch=1 n=a5 v=0
49300 On ch=1 n=f5 v=100
49319 On ch=1 n=f5 v=0
49320 On ch=1 n=a4 v=100
49359 On ch=1 n=a4 v=0
49360 On ch=1 n=c6 v=100
49379 On ch=1 n=c6 v=0
49380 On ch=1 n=g#5 v=100
49419 On ch=1 n=g#5 v=0
49420 On ch=1 n=e5 v=100
49439 On ch=1 n=e5 v=0
49440 On ch=1 n=a#4 v=100
49479 On ch=1 n=a#4 v=0
49480 On ch=1 n=c6 v=100
49499 On ch=1 n=c6 v=0
49500 On ch=1 n=a5 v=100
49539 On ch=1 n=a5 v=0
49540 On ch=1 n=f5 v=100
49559 On ch=1 n=f5 v=0
49560 On ch=1 n=a4 v=100
49599 On ch=1 n=a4 v=0
49600 On ch=1 n=f6 v=100
49619 On ch=1 n=f6 v=0
49620 On ch=1 n=c#6 v=100
49659 On ch=1 n=c#6 v=0
49660 On ch=1 n=f#5 v=100
49679 On ch=1 n=f#5 v=0
49680 On ch=1 n=a4 v=100
49719 On ch=1 n=a4 v=0
49720 On ch=1 n=c6 v=100
49739 On ch=1 n=c6 v=0
49740 On ch=1 n=a5 v=100
49779 On ch=1 n=a5 v=0
49780 On ch=1 n=f5 v=100
49799 On ch=1 n=f5 v=0
49800 On ch=1 n=a4 v=100
49839 On ch=1 n=a4 v=0
49840 On ch=1 n=c6 v=100
49859 On ch=1 n=c6 v=0
49860 On ch=1 n=g#5 v=100
49899 On ch=1 n=g#5 v=0
49900 On ch=1 n=e5 v=100
49919 On ch=1 n=e5 v=0
49920 On ch=1 n=a#4 v=100
49959 On ch=1 n=a#4 v=0
49960 On ch=1 n=c6 v=100
49979 On ch=1 n=c6 v=0
49980 On ch=1 n=a5 v=100
50019 On ch=1 n=a5 v=0
50020 On ch=1 n=f5 v=100
50039 On ch=1 n=f5 v=0
50040 On ch=1 n=a4 v=100
50079 On ch=1 n=a4 v=0
50080 On ch=1 n=a#5 v=100
50099 On ch=1 n=a#5 v=0
50100 On ch=1 n=c#6 v=100
50120 On ch=1 n=f#5 v=100
50139 On ch=1 n=f#5 v=0
50140 On ch=1 n=f5 v=100
50159 On ch=1 n=f5 v=0
50160 On ch=1 n=e5 v=100
50179 On ch=1 n=e5 v=0
50180 On ch=1 n=d#5 v=100
50189 On ch=1 n=c#6 v=0
50190 On ch=1 n=a5 v=100
50199 On ch=1 n=d#5 v=0
50219 On ch=1 n=a5 v=0
50220 On ch=1 n=c6 v=100
50240 On ch=1 n=a4 v=100
50259 On ch=1 n=a4 v=0
50260 On ch=1 n=d#5 v=100
50279 On ch=1 n=d#5 v=0
50280 On ch=1 n=f#5 v=100
50299 On ch=1 n=f#5 v=0
50300 On ch=1 n=a5 v=100
50309 On ch=1 n=c6 v=0
50310 On ch=1 n=c#6 v=100
50319 On ch=1 n=a5 v=0
50339 On ch=1 n=c#6 v=0
50340 On ch=1 n=f6 v=100
50360 On ch=1 n=c6 v=100
50379 On ch=1 n=c6 v=0
50380 On ch=1 n=b5 v=100
50399 On ch=1 n=b5 v=0
50400 On ch=1 n=a#5 v=100
50419 On ch=1 n=a#5 v=0
50420 On ch=1 n=f5 v=100
50429 On ch=1 n=f6 v=0
50430 On ch=1 n=c6 v=100
50439 On ch=1 n=f5 v=0
50459 On ch=1 n=c6 v=0
50460 On ch=1 n=d#6 v=100
50480 On ch=1 n=c5 v=100
50499 On ch=1 n=c5 v=0
50500 On ch=1 n=f#5 v=100
50519 On ch=1 n=f#5 v=0
50520 On ch=1 n=a#5 v=100
50539 On ch=1 n=a#5 v=0
50540 On ch=1 n=c6 v=100
50549 On ch=1 n=d#6 v=0
50550 On ch=1 n=f6 v=100
50559 On ch=1 n=c6 v=0
50579 On ch=1 n=f6 v=0
50580 On ch=1 n=g#6 v=100
50600 On ch=1 n=e6 v=100
50619 On ch=1 n=e6 v=0
50620 On ch=1 n=d#6 v=100
50639 On ch=1 n=d#6 v=0
50640 On ch=1 n=c#6 v=100
50659 On ch=1 n=c#6 v=0
50660 On ch=1 n=g#5 v=100
50669 On ch=1 n=g#6 v=0
50670 On ch=1 n=d#6 v=100
50679 On ch=1 n=g#5 v=0
50699 On ch=1 n=d#6 v=0
50700 On ch=1 n=f#6 v=100
50720 On ch=1 n=d#5 v=100
50739 On ch=1 n=d#5 v=0
50740 On ch=1 n=a#5 v=100
50759 On ch=1 n=a#5 v=0
50760 On ch=1 n=c6 v=100
50779 On ch=1 n=c6 v=0
50780 On ch=1 n=d#6 v=100
50789 On ch=1 n=f#6 v=0
50790 On ch=1 n=f#6 v=100
50799 On ch=1 n=d#6 v=0
50819 On ch=1 n=f#6 v=0
50820 On ch=1 n=a#6 v=100
50840 On ch=1 n=a#5 v=100
50859 On ch=1 n=a#5 v=0
50860 On ch=1 n=f#6 v=100
50879 On ch=1 n=f#6 v=0
50880 On ch=1 n=f6 v=100
50909 On ch=1 n=a#6 v=0
50920 On ch=1 n=g#5 v=100
50939 On ch=1 n=g#5 v=0
50939 On ch=1 n=f6 v=0
50940 On ch=1 n=g#6 v=100
50960 On ch=1 n=g#5 v=100
50979 On ch=1 n=g#5 v=0
50980 On ch=1 n=f6 v=100
50999 On ch=1 n=f6 v=0
51000 On ch=1 n=d#6 v=100
51029 On ch=1 n=g#6 v=0
51040 On ch=1 n=f#5 v=100
51059 On ch=1 n=f#5 v=0
51059 On ch=1 n=d#6 v=0
51060 On ch=1 n=f#6 v=100
51079 On ch=1 n=f#6 v=0
51080 On ch=1 n=f#5 v=100
51099 On ch=1 n=f#5 v=0
51100 On ch=1 n=d#6 v=100
51119 On ch=1 n=d#6 v=0
51140 On ch=1 n=c#6 v=100
51159 On ch=1 n=c#6 v=0
51160 On ch=1 n=f6 v=100
51179 On ch=1 n=f6 v=0
51180 On ch=1 n=c#6 v=100
51199 On ch=1 n=c#6 v=0
51200 On ch=1 n=f5 v=100
51219 On ch=1 n=f5 v=0
51220 On ch=1 n=c#6 v=100
51239 On ch=1 n=c#6 v=0
51260 On ch=1 n=c6 v=100
51279 On ch=1 n=c6 v=0
51280 On ch=1 n=d#6 v=100
51299 On ch=1 n=d#6 v=0
51300 On ch=1 n=c6 v=100
51319 On ch=1 n=c6 v=0
51320 On ch=1 n=d#5 v=100
51339 On ch=1 n=d#5 v=0
51340 On ch=1 n=c6 v=100
51359 On ch=1 n=c6 v=0
51380 On ch=1 n=a#5 v=100
51399 On ch=1 n=a#5 v=0
51400 On ch=1 n=c#6 v=100
51419 On ch=1 n=c#6 v=0
51420 On ch=1 n=a#5 v=100
51439 On ch=1 n=a#5 v=0
51440 On ch=1 n=c#5 v=100
51459 On ch=1 n=c#5 v=0
51460 On ch=1 n=a#5 v=100
51479 On ch=1 n=a#5 v=0
51500 On ch=1 n=a5 v=100
51519 On ch=1 n=a5 v=0
51520 On ch=1 n=c6 v=100
51539 On ch=1 n=c6 v=0
51540 On ch=1 n=a5 v=100
51559 On ch=1 n=a5 v=0
51560 On ch=1 n=c5 v=100
51579 On ch=1 n=c5 v=0
51580 On ch=1 n=a5 v=100
51599 On ch=1 n=a5 v=0
51640 On ch=1 n=b5 v=100
51659 On ch=1 n=b5 v=0
51660 On ch=1 n=g#5 v=100
51679 On ch=1 n=g#5 v=0
51680 On ch=1 n=b4 v=100
51699 On ch=1 n=b4 v=0
51760 On ch=1 n=a#5 v=100
51779 On ch=1 n=a#5 v=0
51780 On ch=1 n=f#5 v=100
51799 On ch=1 n=f#5 v=0
51800 On ch=1 n=a#4 v=100
51819 On ch=1 n=a#4 v=0
51880 On ch=1 n=g#5 v=100
51899 On ch=1 n=g#5 v=0
51900 On ch=1 n=f5 v=100
51919 On ch=1 n=f5 v=0
51920 On ch=1 n=g#4 v=100
51939 On ch=1 n=g#4 v=0
52020 On ch=1 n=a#5 v=100
52020 On ch=1 n=c#5 v=100
52109 On ch=1 n=c#5 v=0
52109 On ch=1 n=a#5 v=0
52110 On ch=1 n=c5 v=100
52110 On ch=1 n=a5 v=100
52139 On ch=1 n=a5 v=0
52139 On ch=1 n=c5 v=0
52140 On ch=1 n=g#5 v=100
52140 On ch=1 n=b4 v=100
52199 On ch=1 n=b4 v=0
52199 On ch=1 n=g#5 v=0
52200 On ch=1 n=a#4 v=100
52200 On ch=1 n=c#5 v=100
52200 On ch=1 n=a#5 v=100
52399 On ch=1 n=a#5 v=0
52400 On ch=1 n=c#5 v=100
52419 On ch=1 n=c#5 v=0
52420 On ch=1 n=d#5 v=100
52439 On ch=1 n=d#5 v=0
52440 On ch=1 n=f5 v=100
52459 On ch=1 n=f5 v=0
52460 On ch=1 n=f#5 v=100
52479 On ch=1 n=f#5 v=0
52480 On ch=1 n=g#5 v=100
52490 On ch=1 n=a#5 v=100
52499 On ch=1 n=g#5 v=0
52500 On ch=1 n=b5 v=100
52509 On ch=1 n=a#5 v=0
52510 On ch=1 n=c#6 v=100
52519 On ch=1 n=b5 v=0
52520 On ch=1 n=d#6 v=100
52529 On ch=1 n=c#6 v=0
52530 On ch=1 n=f6 v=100
52539 On ch=1 n=d#6 v=0
52540 On ch=1 n=f#6 v=100
52549 On ch=1 n=f6 v=0
52550 On ch=1 n=g#6 v=100
52559 On ch=1 n=a#4 v=0
52559 On ch=1 n=f#6 v=0
52559 On ch=1 n=c#5 v=0
52560 On ch=1 n=a#6 v=100
52560 On ch=1 n=f#6 v=100
52569 On ch=1 n=g#6 v=0
52649 On ch=1 n=f#6 v=0
52649 On ch=1 n=a#6 v=0
52650 On ch=1 n=c6 v=100
52650 On ch=1 n=f6 v=100
52650 On ch=1 n=a6 v=100
52679 On ch=1 n=a6 v=0
52679 On ch=1 n=f6 v=0
52679 On ch=1 n=c6 v=0
52680 On ch=1 n=d#6 v=100
52680 On ch=1 n=g#6 v=100
52739 On ch=1 n=g#6 v=0
52739 On ch=1 n=d#6 v=0
52740 On ch=1 n=f#6 v=100
52740 On ch=1 n=a#6 v=100
53009 On ch=1 n=a#6 v=0
53009 On ch=1 n=f#6 v=0
53010 On ch=1 n=f6 v=100
53010 On ch=1 n=a6 v=100
53039 On ch=1 n=a6 v=0
53039 On ch=1 n=f6 v=0
53040 On ch=1 n=d#6 v=100
53040 On ch=1 n=f#6 v=100
53099 On ch=1 n=f#6 v=0
53099 On ch=1 n=d#6 v=0
53100 On ch=1 n=a#6 v=100
53100 On ch=1 n=f#6 v=100
53159 On ch=1 n=f#6 v=0
53159 On ch=1 n=a#6 v=0
53160 On ch=1 n=f6 v=100
53160 On ch=1 n=g#6 v=100
53189 On ch=1 n=g#6 v=0
53189 On ch=1 n=f6 v=0
53190 On ch=1 n=d#6 v=100
53190 On ch=1 n=f#6 v=100
53219 On ch=1 n=f#6 v=0
53219 On ch=1 n=d#6 v=0
53220 On ch=1 n=c#6 v=100
53220 On ch=1 n=f6 v=100
53279 On ch=1 n=f6 v=0
53279 On ch=1 n=c#6 v=0
53280 On ch=1 n=a#6 v=100
53280 On ch=1 n=f#6 v=100
53369 On ch=1 n=f#6 v=0
53369 On ch=1 n=a#6 v=0
53370 On ch=1 n=c#7 v=100
53370 On ch=1 n=g#6 v=100
53399 On ch=1 n=g#6 v=0
53399 On ch=1 n=c#7 v=0
53400 On ch=1 n=a#6 v=100
53400 On ch=1 n=f#6 v=100
53459 On ch=1 n=f#6 v=0
53459 On ch=1 n=a#6 v=0
53460 On ch=1 n=f#6 v=100
53460 On ch=1 n=a#6 v=100
53759 On ch=1 n=a#6 v=0
53759 On ch=1 n=f#6 v=0
53760 On ch=1 n=g#6 v=100
53819 On ch=1 n=g#6 v=0
53820 On ch=1 n=a#6 v=100
53879 On ch=1 n=a#6 v=0
53880 On ch=1 n=c#7 v=100
53889 On ch=1 n=c#7 v=0
53890 On ch=1 n=b6 v=100
53939 On ch=1 n=b6 v=0
53940 On ch=1 n=a#6 v=100
53999 On ch=1 n=a#6 v=0
54000 On ch=1 n=c#7 v=100
54089 On ch=1 n=c#7 v=0
54090 On ch=1 n=f#6 v=100
54090 On ch=1 n=g#6 v=100
54090 On ch=1 n=f#7 v=100
54119 On ch=1 n=g#6 v=0
54120 On ch=1 n=a#6 v=100
54179 On ch=1 n=a#6 v=0
54179 On ch=1 n=f#6 v=0
54180 On ch=1 n=a#6 v=100
54180 On ch=1 n=f#6 v=100
54269 On ch=1 n=f#6 v=0
54269 On ch=1 n=a#6 v=0
54269 On ch=1 n=f#7 v=0
54270 On ch=1 n=g#6 v=100
54270 On ch=1 n=f6 v=100
54270 On ch=1 n=f7 v=100
54299 On ch=1 n=g#6 v=0
54300 On ch=1 n=a#6 v=100
54300 On ch=1 n=f#6 v=100
54359 On ch=1 n=f#6 v=0
54359 On ch=1 n=a#6 v=0
54360 On ch=1 n=a#6 v=100
54360 On ch=1 n=f#6 v=100
54449 On ch=1 n=f#6 v=0
54449 On ch=1 n=f6 v=0
54449 On ch=1 n=f7 v=0
54449 On ch=1 n=a#6 v=0
54450 On ch=1 n=f6 v=100
54450 On ch=1 n=g#6 v=100
54450 On ch=1 n=d#6 v=100
54450 On ch=1 n=d#7 v=100
54479 On ch=1 n=g#6 v=0
54479 On ch=1 n=f6 v=0
54480 On ch=1 n=f6 v=100
54480 On ch=1 n=a#6 v=100
54539 On ch=1 n=a#6 v=0
54539 On ch=1 n=f6 v=0
54540 On ch=1 n=a#6 v=100
54540 On ch=1 n=f#6 v=100
54629 On ch=1 n=f#6 v=0
54629 On ch=1 n=d#7 v=0
54629 On ch=1 n=d#6 v=0
54629 On ch=1 n=a#6 v=0
54630 On ch=1 n=g#6 v=100
54630 On ch=1 n=f6 v=100
54630 On ch=1 n=c#6 v=100
54630 On ch=1 n=c#7 v=100
54659 On ch=1 n=f6 v=0
54659 On ch=1 n=g#6 v=0
54660 On ch=1 n=a#6 v=100
54660 On ch=1 n=f#6 v=100
54719 On ch=1 n=f#6 v=0
54719 On ch=1 n=a#6 v=0
54720 On ch=1 n=a#6 v=100
54720 On ch=1 n=f#6 v=100
55019 On ch=1 n=f#6 v=0
55019 On ch=1 n=c#7 v=0
55019 On ch=1 n=c#6 v=0
55019 On ch=1 n=a#6 v=0
55020 On ch=1 n=b6 v=100
55079 On ch=1 n=b6 v=0
55080 On ch=1 n=a#6 v=100
55090 On ch=1 n=b6 v=100
55099 On ch=1 n=a#6 v=0
55100 On ch=1 n=a#6 v=100
55109 On ch=1 n=b6 v=0
55139 On ch=1 n=a#6 v=0
55140 On ch=1 n=g#6 v=100
55199 On ch=1 n=g#6 v=0
55200 On ch=1 n=f#6 v=100
55259 On ch=1 n=f#6 v=0
55260 On ch=1 n=a#5 v=100
55260 On ch=1 n=d#6 v=100
55319 On ch=1 n=d#6 v=0
55319 On ch=1 n=a#5 v=0
55320 On ch=1 n=g#5 v=100
55320 On ch=1 n=b5 v=100
55379 On ch=1 n=b5 v=0
55379 On ch=1 n=g#5 v=0
55380 On ch=1 n=f5 v=100
55380 On ch=1 n=c#6 v=100
55439 On ch=1 n=c#6 v=0
55439 On ch=1 n=f5 v=0
55440 On ch=1 n=d#5 v=100
55440 On ch=1 n=a#5 v=100
55529 On ch=1 n=a#5 v=0
55529 On ch=1 n=d#5 v=0
55530 On ch=1 n=d#7 v=100
55530 On ch=1 n=f6 v=100
55530 On ch=1 n=d#6 v=100
55559 On ch=1 n=f6 v=0
55560 On ch=1 n=g6 v=100
55619 On ch=1 n=g6 v=0
55619 On ch=1 n=d#6 v=0
55620 On ch=1 n=g6 v=100
55620 On ch=1 n=d#6 v=100
55709 On ch=1 n=d#6 v=0
55709 On ch=1 n=g6 v=0
55709 On ch=1 n=d#7 v=0
55710 On ch=1 n=d7 v=100
55710 On ch=1 n=f6 v=100
55710 On ch=1 n=d6 v=100
55739 On ch=1 n=f6 v=0
55740 On ch=1 n=g6 v=100
55740 On ch=1 n=d#6 v=100
55799 On ch=1 n=d#6 v=0
55799 On ch=1 n=g6 v=0
55800 On ch=1 n=g6 v=100
55800 On ch=1 n=d#6 v=100
55889 On ch=1 n=d#6 v=0
55889 On ch=1 n=d7 v=0
55889 On ch=1 n=d6 v=0
55889 On ch=1 n=g6 v=0
55890 On ch=1 n=c7 v=100
55890 On ch=1 n=f6 v=100
55890 On ch=1 n=d6 v=100
55890 On ch=1 n=c6 v=100
55919 On ch=1 n=d6 v=0
55919 On ch=1 n=f6 v=0
55920 On ch=1 n=g6 v=100
55920 On ch=1 n=d6 v=100
55979 On ch=1 n=d6 v=0
55979 On ch=1 n=g6 v=0
55980 On ch=1 n=g6 v=100
55980 On ch=1 n=d#6 v=100
56069 On ch=1 n=d#6 v=0
56069 On ch=1 n=c6 v=0
56069 On ch=1 n=c7 v=0
56069 On ch=1 n=g6 v=0
56070 On ch=1 n=a#6 v=100
56070 On ch=1 n=f6 v=100
56070 On ch=1 n=d6 v=100
56070 On ch=1 n=a#5 v=100
56099 On ch=1 n=d6 v=0
56099 On ch=1 n=f6 v=0
56100 On ch=1 n=g6 v=100
56100 On ch=1 n=d#6 v=100
56159 On ch=1 n=d#6 v=0
56159 On ch=1 n=g6 v=0
56160 On ch=1 n=d#6 v=100
56160 On ch=1 n=g6 v=100
56459 On ch=1 n=g6 v=0
56459 On ch=1 n=a#5 v=0
56459 On ch=1 n=a#6 v=0
56459 On ch=1 n=d#6 v=0
56460 On ch=1 n=g#6 v=100
56519 On ch=1 n=g#6 v=0
56520 On ch=1 n=g6 v=100
56530 On ch=1 n=g#6 v=100
56539 On ch=1 n=g6 v=0
56540 On ch=1 n=g6 v=100
56549 On ch=1 n=g#6 v=0
56579 On ch=1 n=g6 v=0
56580 On ch=1 n=f6 v=100
56639 On ch=1 n=f6 v=0
56640 On ch=1 n=d#6 v=100
56699 On ch=1 n=d#6 v=0
56700 On ch=1 n=g5 v=100
56700 On ch=1 n=c6 v=100
56759 On ch=1 n=c6 v=0
56760 On ch=1 n=a#5 v=100
56819 On ch=1 n=a#5 v=0
56819 On ch=1 n=g5 v=0
56820 On ch=1 n=g5 v=100
56820 On ch=1 n=d#5 v=100
56879 On ch=1 n=d#5 v=0
56879 On ch=1 n=g5 v=0
56880 On ch=1 n=g4 v=100
56880 On ch=1 n=a#4 v=100
56880 On ch=1 n=c5 v=100
56999 On ch=1 n=c5 v=0
56999 On ch=1 n=a#4 v=0
56999 On ch=1 n=g4 v=0
57000 On ch=1 n=a#7 v=100
57059 On ch=1 n=a#7 v=0
57060 On ch=1 n=a7 v=100
57119 On ch=1 n=a7 v=0
57120 On ch=1 n=c7 v=100
57120 On ch=1 n=g#7 v=100
57179 On ch=1 n=g#7 v=0
57179 On ch=1 n=c7 v=0
57180 On ch=1 n=g7 v=100
57180 On ch=1 n=b6 v=100
57239 On ch=1 n=b6 v=0
57239 On ch=1 n=g7 v=0
57240 On ch=1 n=c7 v=100
57240 On ch=1 n=a#6 v=100
57299 On ch=1 n=a#6 v=0
57299 On ch=1 n=c7 v=0
57300 On ch=1 n=g6 v=100
57359 On ch=1 n=g6 v=0
57360 On ch=1 n=b6 v=100
57360 On ch=1 n=c6 v=100
57419 On ch=1 n=b6 v=0
57420 On ch=1 n=a#6 v=100
57479 On ch=1 n=a#6 v=0
57479 On ch=1 n=c6 v=0
57480 On ch=1 n=g6 v=100
57480 On ch=1 n=b5 v=100
57539 On ch=1 n=b5 v=0
57539 On ch=1 n=g6 v=0
57540 On ch=1 n=c6 v=100
57540 On ch=1 n=a#5 v=100
57599 On ch=1 n=a#5 v=0
57599 On ch=1 n=c6 v=0
57600 On ch=1 n=g5 v=100
57600 On ch=1 n=c5 v=100
57659 On ch=1 n=g5 v=0
57660 On ch=1 n=a#7 v=100
57719 On ch=1 n=a#7 v=0
57719 On ch=1 n=c5 v=0
57720 On ch=1 n=a7 v=100
57720 On ch=1 n=c7 v=100
57779 On ch=1 n=c7 v=0
57779 On ch=1 n=a7 v=0
57780 On ch=1 n=g#7 v=100
57780 On ch=1 n=b6 v=100
57839 On ch=1 n=b6 v=0
57839 On ch=1 n=g#7 v=0
57840 On ch=1 n=g7 v=100
57840 On ch=1 n=a#6 v=100
57899 On ch=1 n=a#6 v=0
57899 On ch=1 n=g7 v=0
57900 On ch=1 n=c6 v=100
57900 On ch=1 n=c7 v=100
57900 On ch=1 n=g6 v=100
57959 On ch=1 n=g6 v=0
58019 On ch=1 n=c7 v=0
58019 On ch=1 n=c6 v=0
58020 On ch=1 n=b6 v=100
58079 On ch=1 n=b6 v=0
58080 On ch=1 n=a#6 v=100
58139 On ch=1 n=a#6 v=0
58140 On ch=1 n=b5 v=100
58140 On ch=1 n=g6 v=100
58199 On ch=1 n=g6 v=0
58199 On ch=1 n=b5 v=0
58200 On ch=1 n=c6 v=100
58200 On ch=1 n=a#5 v=100
58259 On ch=1 n=a#5 v=0
58259 On ch=1 n=c6 v=0
58260 On ch=1 n=c5 v=100
58260 On ch=1 n=b5 v=100
58289 On ch=1 n=c5 v=0
58290 On ch=1 n=b4 v=100
58319 On ch=1 n=b4 v=0
58319 On ch=1 n=b5 v=0
58320 On ch=1 n=g4 v=100
58320 On ch=1 n=a#4 v=100
58320 On ch=1 n=c5 v=100
58439 On ch=1 n=c5 v=0
58440 On ch=1 n=a#6 v=100
58499 On ch=1 n=a#6 v=0
58499 On ch=1 n=a#4 v=0
58499 On ch=1 n=g4 v=0
58500 On ch=1 n=c6 v=100
58500 On ch=1 n=a6 v=100
58559 On ch=1 n=a6 v=0
58560 On ch=1 n=g#6 v=100
58619 On ch=1 n=g#6 v=0
58619 On ch=1 n=c6 v=0
58620 On ch=1 n=b5 v=100
58620 On ch=1 n=g6 v=100
58679 On ch=1 n=g6 v=0
58679 On ch=1 n=b5 v=0
58680 On ch=1 n=a#5 v=100
58680 On ch=1 n=c6 v=100
58799 On ch=1 n=c6 v=0
58800 On ch=1 n=g6 v=100
58859 On ch=1 n=g6 v=0
58860 On ch=1 n=f#6 v=100
58919 On ch=1 n=f#6 v=0
58919 On ch=1 n=a#5 v=0
58920 On ch=1 n=a5 v=100
58920 On ch=1 n=f6 v=100
58979 On ch=1 n=f6 v=0
58979 On ch=1 n=a5 v=0
58980 On ch=1 n=g#5 v=100
58980 On ch=1 n=e6 v=100
59039 On ch=1 n=e6 v=0
59039 On ch=1 n=g#5 v=0
59040 On ch=1 n=a#5 v=100
59040 On ch=1 n=g5 v=100
59159 On ch=1 n=g5 v=0
59160 On ch=1 n=f#5 v=100
59160 On ch=1 n=d#6 v=100
59219 On ch=1 n=d#6 v=0
59220 On ch=1 n=d6 v=100
59279 On ch=1 n=d6 v=0
59279 On ch=1 n=f#5 v=0
59279 On ch=1 n=a#5 v=0
59280 On ch=1 n=f5 v=100
59280 On ch=1 n=c#6 v=100
59339 On ch=1 n=c#6 v=0
59339 On ch=1 n=f5 v=0
59340 On ch=1 n=c6 v=100
59340 On ch=1 n=e5 v=100
59399 On ch=1 n=e5 v=0
59399 On ch=1 n=c6 v=0
59400 On ch=1 n=b4 v=100
59400 On ch=1 n=d#5 v=100
59400 On ch=1 n=f#5 v=100
59519 On ch=1 n=f#5 v=0
59519 On ch=1 n=d#5 v=0
59519 On ch=1 n=b4 v=0
59520 On ch=1 n=d#5 v=100
59520 On ch=1 n=b5 v=100
59579 On ch=1 n=b5 v=0
59580 On ch=1 n=a#5 v=100
59639 On ch=1 n=d#5 v=0
59640 On ch=1 n=d5 v=100
59699 On ch=1 n=a#5 v=0
59700 On ch=1 n=a5 v=100
59759 On ch=1 n=a5 v=0
59759 On ch=1 n=d5 v=0
59760 On ch=1 n=f#5 v=100
59760 On ch=1 n=d#5 v=100
59760 On ch=1 n=a#4 v=100
59879 On ch=1 n=a#4 v=0
59879 On ch=1 n=d#5 v=0
59879 On ch=1 n=f#5 v=0
59880 On ch=1 n=a#5 v=100
59880 On ch=1 n=d5 v=100
59939 On ch=1 n=a#5 v=0
59940 On ch=1 n=a5 v=100
59999 On ch=1 n=a5 v=0
59999 On ch=1 n=d5 v=0
60000 On ch=1 n=c#5 v=100
60059 On ch=1 n=c#5 v=0
60060 On ch=1 n=g#5 v=100
60060 On ch=1 n=c5 v=100
60119 On ch=1 n=c5 v=0
60119 On ch=1 n=g#5 v=0
60120 On ch=1 n=a4 v=100
60120 On ch=1 n=d#5 v=100
60120 On ch=1 n=c#5 v=100
60239 On ch=1 n=c#5 v=0
60239 On ch=1 n=d#5 v=0
60239 On ch=1 n=a4 v=0
60240 On ch=1 n=a5 v=100
60240 On ch=1 n=c#5 v=100
60299 On ch=1 n=a5 v=0
60300 On ch=1 n=g#5 v=100
60359 On ch=1 n=g#5 v=0
60360 On ch=1 n=g5 v=100
60389 On ch=1 n=c#5 v=0
60390 On ch=1 n=c5 v=100
60419 On ch=1 n=c5 v=0
60419 On ch=1 n=g5 v=0
60420 On ch=1 n=c#5 v=100
60420 On ch=1 n=f#5 v=100
60479 On ch=1 n=f#5 v=0
60479 On ch=1 n=c#5 v=0
60540 On ch=1 n=a#4 v=100
60540 On ch=1 n=f#4 v=100
60540 On ch=1 n=f5 v=100
60540 On ch=1 n=d5 v=100
60659 On ch=1 n=d5 v=0
60659 On ch=1 n=a#4 v=0
60659 On ch=1 n=f#4 v=0
60659 On ch=1 n=f5 v=0
60660 On ch=1 n=g4 v=100
60660 On ch=1 n=a#4 v=100
60660 On ch=1 n=d5 v=100
60660 On ch=1 n=f5 v=100
60779 On ch=1 n=f5 v=0
60779 On ch=1 n=g4 v=0
60779 On ch=1 n=a#4 v=0
60779 On ch=1 n=d5 v=0
60780 On ch=1 n=g#4 v=100
60780 On ch=1 n=a#4 v=100
60780 On ch=1 n=d5 v=100
60780 On ch=1 n=f5 v=100
60839 On ch=1 n=f5 v=0
60839 On ch=1 n=g#4 v=0
60839 On ch=1 n=a#4 v=0
60839 On ch=1 n=d5 v=0
60840 On ch=1 n=a5 v=100
60840 On ch=1 n=f#5 v=100
60840 On ch=1 n=d5 v=100
60840 On ch=1 n=a4 v=100
60900 On ch=1 n=d6 v=100
60900 On ch=1 n=a#5 v=100
60900 On ch=1 n=d#5 v=100
60900 On ch=1 n=d5 v=100
61019 On ch=1 n=d5 v=0
61019 On ch=1 n=d#5 v=0
61019 On ch=1 n=d6 v=0
61019 On ch=1 n=a#5 v=0
61020 On ch=1 n=d5 v=100
61020 On ch=1 n=f5 v=100
61020 On ch=1 n=a#5 v=100
61020 On ch=1 n=d6 v=100
61139 On ch=1 n=d6 v=0
61139 On ch=1 n=a#5 v=0
61139 On ch=1 n=d5 v=0
61139 On ch=1 n=f5 v=0
61140 On ch=1 n=d5 v=100
61140 On ch=1 n=f#5 v=100
61140 On ch=1 n=a#5 v=100
61140 On ch=1 n=d6 v=100
61199 On ch=1 n=d6 v=0
61199 On ch=1 n=d5 v=0
61199 On ch=1 n=d5 v=0
61199 On ch=1 n=f#5 v=0
61199 On ch=1 n=a4 v=0
61199 On ch=1 n=a5 v=0
61199 On ch=1 n=f#5 v=0
61199 On ch=1 n=a#5 v=0
61260 On ch=1 n=c#6 v=100
61260 On ch=1 n=f6 v=100
61260 On ch=1 n=b5 v=100
61260 On ch=1 n=f5 v=100
61379 On ch=1 n=f5 v=0
61379 On ch=1 n=c#6 v=0
61379 On ch=1 n=f6 v=0
61379 On ch=1 n=b5 v=0
61380 On ch=1 n=c6 v=100
61380 On ch=1 n=f5 v=100
61380 On ch=1 n=c#6 v=100
61380 On ch=1 n=f6 v=100
61499 On ch=1 n=f6 v=0
61499 On ch=1 n=c6 v=0
61499 On ch=1 n=f5 v=0
61499 On ch=1 n=c#6 v=0
61500 On ch=1 n=c#6 v=100
61500 On ch=1 n=f5 v=100
61500 On ch=1 n=f6 v=100
61559 On ch=1 n=f6 v=0
61559 On ch=1 n=f5 v=0
61559 On ch=1 n=c#6 v=0
61560 On ch=1 n=c#6 v=100
61560 On ch=1 n=f6 v=100
61560 On ch=1 n=g#6 v=100
61560 On ch=1 n=g#5 v=100
61620 On ch=1 n=c#7 v=100
61620 On ch=1 n=a#6 v=100
61620 On ch=1 n=d#6 v=100
61620 On ch=1 n=c#6 v=100
61739 On ch=1 n=c#6 v=0
61739 On ch=1 n=d#6 v=0
61739 On ch=1 n=c#7 v=0
61739 On ch=1 n=a#6 v=0
61740 On ch=1 n=c#7 v=100
61740 On ch=1 n=a#6 v=100
61740 On ch=1 n=e6 v=100
61740 On ch=1 n=c#6 v=100
61859 On ch=1 n=c#6 v=0
61859 On ch=1 n=e6 v=0
61859 On ch=1 n=c#7 v=0
61859 On ch=1 n=a#6 v=0
61860 On ch=1 n=a#6 v=100
61860 On ch=1 n=c#7 v=100
61860 On ch=1 n=f6 v=100
61860 On ch=1 n=c#6 v=100
61919 On ch=1 n=c#6 v=0
61919 On ch=1 n=g#6 v=0
61919 On ch=1 n=a#6 v=0
61919 On ch=1 n=f6 v=0
61919 On ch=1 n=g#5 v=0
61919 On ch=1 n=c#6 v=0
61919 On ch=1 n=c#7 v=0
61919 On ch=1 n=f6 v=0
61980 On ch=1 n=a#4 v=100
61999 On ch=1 n=a#4 v=0
62000 On ch=1 n=c#4 v=100
62019 On ch=1 n=c#4 v=0
62020 On ch=1 n=f4 v=100
62039 On ch=1 n=f4 v=0
62040 On ch=1 n=a#4 v=100
62059 On ch=1 n=a#4 v=0
62060 On ch=1 n=c4 v=100
62079 On ch=1 n=c4 v=0
62080 On ch=1 n=e4 v=100
62099 On ch=1 n=e4 v=0
62100 On ch=1 n=a#4 v=100
62119 On ch=1 n=a#4 v=0
62120 On ch=1 n=b3 v=100
62139 On ch=1 n=b3 v=0
62140 On ch=1 n=d#4 v=100
62159 On ch=1 n=d#4 v=0
62160 On ch=1 n=a#4 v=100
62179 On ch=1 n=a#4 v=0
62180 On ch=1 n=c4 v=100
62199 On ch=1 n=c4 v=0
62200 On ch=1 n=e4 v=100
62219 On ch=1 n=e4 v=0
62220 On ch=1 n=a#4 v=100
62239 On ch=1 n=a#4 v=0
62240 On ch=1 n=c#4 v=100
62259 On ch=1 n=c#4 v=0
62260 On ch=1 n=f4 v=100
62279 On ch=1 n=f4 v=0
62340 On ch=1 n=a#4 v=100
62359 On ch=1 n=a#4 v=0
62360 On ch=1 n=c4 v=100
62379 On ch=1 n=c4 v=0
62380 On ch=1 n=e4 v=100
62399 On ch=1 n=e4 v=0
62400 On ch=1 n=a#4 v=100
62419 On ch=1 n=a#4 v=0
62420 On ch=1 n=b3 v=100
62439 On ch=1 n=b3 v=0
62440 On ch=1 n=d#4 v=100
62459 On ch=1 n=d#4 v=0
62460 On ch=1 n=a#4 v=100
62479 On ch=1 n=a#4 v=0
62480 On ch=1 n=a#3 v=100
62499 On ch=1 n=a#3 v=0
62500 On ch=1 n=d4 v=100
62519 On ch=1 n=d4 v=0
62520 On ch=1 n=a#4 v=100
62539 On ch=1 n=a#4 v=0
62540 On ch=1 n=b3 v=100
62559 On ch=1 n=b3 v=0
62560 On ch=1 n=d#4 v=100
62579 On ch=1 n=d#4 v=0
62580 On ch=1 n=a#4 v=100
62599 On ch=1 n=a#4 v=0
62600 On ch=1 n=c4 v=100
62619 On ch=1 n=c4 v=0
62620 On ch=1 n=e4 v=100
62639 On ch=1 n=e4 v=0
62660 On ch=1 n=c4 v=100
62679 On ch=1 n=c4 v=0
62680 On ch=1 n=e4 v=100
62699 On ch=1 n=e4 v=0
62700 On ch=1 n=a#4 v=100
62719 On ch=1 n=a#4 v=0
62720 On ch=1 n=c#4 v=100
62739 On ch=1 n=c#4 v=0
62740 On ch=1 n=f4 v=100
62759 On ch=1 n=f4 v=0
62760 On ch=1 n=b4 v=100
62779 On ch=1 n=b4 v=0
62780 On ch=1 n=d4 v=100
62799 On ch=1 n=d4 v=0
62800 On ch=1 n=f#4 v=100
62819 On ch=1 n=f#4 v=0
62820 On ch=1 n=a#4 v=100
62839 On ch=1 n=a#4 v=0
62840 On ch=1 n=c#4 v=100
62859 On ch=1 n=c#4 v=0
62860 On ch=1 n=f4 v=100
62879 On ch=1 n=f4 v=0
62880 On ch=1 n=a4 v=100
62899 On ch=1 n=a4 v=0
62900 On ch=1 n=c4 v=100
62919 On ch=1 n=c4 v=0
62920 On ch=1 n=e4 v=100
62939 On ch=1 n=e4 v=0
62940 On ch=1 n=g#4 v=100
62959 On ch=1 n=g#4 v=0
62960 On ch=1 n=b3 v=100
62979 On ch=1 n=b3 v=0
62980 On ch=1 n=d#4 v=100
62999 On ch=1 n=d#4 v=0
63000 On ch=1 n=a4 v=100
63019 On ch=1 n=a4 v=0
63020 On ch=1 n=c4 v=100
63039 On ch=1 n=c4 v=0
63040 On ch=1 n=e4 v=100
63059 On ch=1 n=e4 v=0
63060 On ch=1 n=a#4 v=100
63079 On ch=1 n=a#4 v=0
63080 On ch=1 n=c#4 v=100
63099 On ch=1 n=c#4 v=0
63100 On ch=1 n=f4 v=100
63119 On ch=1 n=f4 v=0
63120 On ch=1 n=b4 v=100
63139 On ch=1 n=b4 v=0
63140 On ch=1 n=d4 v=100
63159 On ch=1 n=d4 v=0
63160 On ch=1 n=f#4 v=100
63179 On ch=1 n=f#4 v=0
63180 On ch=1 n=a#4 v=100
63199 On ch=1 n=a#4 v=0
63200 On ch=1 n=c#4 v=100
63219 On ch=1 n=c#4 v=0
63220 On ch=1 n=f4 v=100
63239 On ch=1 n=f4 v=0
63240 On ch=1 n=a4 v=100
63259 On ch=1 n=a4 v=0
63260 On ch=1 n=b3 v=100
63279 On ch=1 n=b3 v=0
63280 On ch=1 n=d#4 v=100
63299 On ch=1 n=d#4 v=0
63300 On ch=1 n=g#4 v=100
63319 On ch=1 n=g#4 v=0
63320 On ch=1 n=a#3 v=100
63339 On ch=1 n=a#3 v=0
63340 On ch=1 n=d4 v=100
63359 On ch=1 n=d4 v=0
63360 On ch=1 n=a4 v=100
63379 On ch=1 n=a4 v=0
63380 On ch=1 n=d#4 v=100
63399 On ch=1 n=d#4 v=0
63400 On ch=1 n=d4 v=100
63419 On ch=1 n=d4 v=0
63420 On ch=1 n=c#4 v=100
63439 On ch=1 n=c#4 v=0
63440 On ch=1 n=f4 v=100
63459 On ch=1 n=f4 v=0
63460 On ch=1 n=a#4 v=100
63479 On ch=1 n=a#4 v=0
63480 On ch=1 n=b4 v=100
63499 On ch=1 n=b4 v=0
63500 On ch=1 n=d4 v=100
63519 On ch=1 n=d4 v=0
63520 On ch=1 n=c#4 v=100
63539 On ch=1 n=c#4 v=0
63540 On ch=1 n=c4 v=100
63559 On ch=1 n=c4 v=0
63560 On ch=1 n=f#4 v=100
63579 On ch=1 n=f#4 v=0
63580 On ch=1 n=b4 v=100
63599 On ch=1 n=b4 v=0
63600 On ch=1 n=c5 v=100
63619 On ch=1 n=c5 v=0
63620 On ch=1 n=g#4 v=100
63639 On ch=1 n=g#4 v=0
63640 On ch=1 n=f#4 v=100
63659 On ch=1 n=f#4 v=0
63660 On ch=1 n=f4 v=100
63679 On ch=1 n=f4 v=0
63680 On ch=1 n=b4 v=100
63699 On ch=1 n=b4 v=0
63700 On ch=1 n=c#5 v=100
63719 On ch=1 n=c#5 v=0
63720 On ch=1 n=d#5 v=100
63739 On ch=1 n=d#5 v=0
63740 On ch=1 n=a#4 v=100
63759 On ch=1 n=a#4 v=0
63760 On ch=1 n=g#4 v=100
63779 On ch=1 n=g#4 v=0
63780 On ch=1 n=g4 v=100
63799 On ch=1 n=g4 v=0
63800 On ch=1 n=a#4 v=100
63819 On ch=1 n=a#4 v=0
63820 On ch=1 n=d#5 v=100
63839 On ch=1 n=d#5 v=0
63840 On ch=1 n=e5 v=100
63859 On ch=1 n=e5 v=0
63860 On ch=1 n=c#5 v=100
63879 On ch=1 n=c#5 v=0
63880 On ch=1 n=a4 v=100
63899 On ch=1 n=a4 v=0
63900 On ch=1 n=g#4 v=100
63919 On ch=1 n=g#4 v=0
63920 On ch=1 n=d5 v=100
63939 On ch=1 n=d5 v=0
63940 On ch=1 n=f5 v=100
63959 On ch=1 n=f5 v=0
63960 On ch=1 n=f#5 v=100
63979 On ch=1 n=f#5 v=0
63980 On ch=1 n=c#5 v=100
63999 On ch=1 n=c#5 v=0
64000 On ch=1 n=c5 v=100
64019 On ch=1 n=c5 v=0
64020 On ch=1 n=b4 v=100
64039 On ch=1 n=b4 v=0
64040 On ch=1 n=d#5 v=100
64059 On ch=1 n=d#5 v=0
64060 On ch=1 n=g5 v=100
64079 On ch=1 n=g5 v=0
64080 On ch=1 n=g#5 v=100
64099 On ch=1 n=g#5 v=0
64100 On ch=1 n=d#5 v=100
64119 On ch=1 n=d#5 v=0
64120 On ch=1 n=c#5 v=100
64139 On ch=1 n=c#5 v=0
64140 On ch=1 n=c5 v=100
64159 On ch=1 n=c5 v=0
64160 On ch=1 n=d#5 v=100
64179 On ch=1 n=d#5 v=0
64180 On ch=1 n=g#5 v=100
64199 On ch=1 n=g#5 v=0
64200 On ch=1 n=g5 v=100
64219 On ch=1 n=g5 v=0
64220 On ch=1 n=f#5 v=100
64239 On ch=1 n=f#5 v=0
64240 On ch=1 n=d5 v=100
64259 On ch=1 n=d5 v=0
64260 On ch=1 n=c#5 v=100
64279 On ch=1 n=c#5 v=0
64280 On ch=1 n=g5 v=100
64299 On ch=1 n=g5 v=0
64300 On ch=1 n=a5 v=100
64319 On ch=1 n=a5 v=0
64320 On ch=1 n=a#5 v=100
64339 On ch=1 n=a#5 v=0
64340 On ch=1 n=f#5 v=100
64359 On ch=1 n=f#5 v=0
64360 On ch=1 n=e5 v=100
64379 On ch=1 n=e5 v=0
64380 On ch=1 n=d#5 v=100
64399 On ch=1 n=d#5 v=0
64400 On ch=1 n=g5 v=100
64419 On ch=1 n=g5 v=0
64420 On ch=1 n=b5 v=100
64439 On ch=1 n=b5 v=0
64440 On ch=1 n=c6 v=100
64459 On ch=1 n=c6 v=0
64460 On ch=1 n=g#5 v=100
64479 On ch=1 n=g#5 v=0
64480 On ch=1 n=f#5 v=100
64499 On ch=1 n=f#5 v=0
64500 On ch=1 n=f5 v=100
64519 On ch=1 n=f5 v=0
64520 On ch=1 n=a5 v=100
64539 On ch=1 n=a5 v=0
64540 On ch=1 n=c#6 v=100
64559 On ch=1 n=c#6 v=0
64560 On ch=1 n=d6 v=100
64579 On ch=1 n=d6 v=0
64580 On ch=1 n=f#5 v=100
64599 On ch=1 n=f#5 v=0
64600 On ch=1 n=e5 v=100
64619 On ch=1 n=e5 v=0
64620 On ch=1 n=d#5 v=100
64639 On ch=1 n=d#5 v=0
64640 On ch=1 n=b5 v=100
64659 On ch=1 n=b5 v=0
64660 On ch=1 n=d#6 v=100
64679 On ch=1 n=d#6 v=0
64680 On ch=1 n=e6 v=100
64699 On ch=1 n=e6 v=0
64700 On ch=1 n=a#5 v=100
64719 On ch=1 n=a#5 v=0
64720 On ch=1 n=d5 v=100
64739 On ch=1 n=d5 v=0
64740 On ch=1 n=c#5 v=100
64759 On ch=1 n=c#5 v=0
64760 On ch=1 n=a5 v=100
64779 On ch=1 n=a5 v=0
64780 On ch=1 n=f6 v=100
64799 On ch=1 n=f6 v=0
64800 On ch=1 n=e6 v=100
64819 On ch=1 n=e6 v=0
64820 On ch=1 n=c6 v=100
64839 On ch=1 n=c6 v=0
64840 On ch=1 n=b5 v=100
64859 On ch=1 n=b5 v=0
64860 On ch=1 n=a#5 v=100
64879 On ch=1 n=a#5 v=0
64880 On ch=1 n=c#6 v=100
64899 On ch=1 n=c#6 v=0
64900 On ch=1 n=f6 v=100
64919 On ch=1 n=f6 v=0
64920 On ch=1 n=e6 v=100
64939 On ch=1 n=e6 v=0
64940 On ch=1 n=c6 v=100
64959 On ch=1 n=c6 v=0
64960 On ch=1 n=b5 v=100
64979 On ch=1 n=b5 v=0
64980 On ch=1 n=a#5 v=100
64999 On ch=1 n=a#5 v=0
65000 On ch=1 n=c#6 v=100
65019 On ch=1 n=c#6 v=0
65020 On ch=1 n=f6 v=100
65039 On ch=1 n=f6 v=0
65040 On ch=1 n=e6 v=100
65059 On ch=1 n=e6 v=0
65060 On ch=1 n=c6 v=100
65079 On ch=1 n=c6 v=0
65080 On ch=1 n=b5 v=100
65099 On ch=1 n=b5 v=0
65100 On ch=1 n=a#5 v=100
65119 On ch=1 n=a#5 v=0
65120 On ch=1 n=c#6 v=100
65139 On ch=1 n=c#6 v=0
65140 On ch=1 n=f6 v=100
65159 On ch=1 n=f6 v=0
65160 On ch=1 n=e6 v=100
65179 On ch=1 n=e6 v=0
65180 On ch=1 n=c6 v=100
65199 On ch=1 n=c6 v=0
65200 On ch=1 n=b5 v=100
65219 On ch=1 n=b5 v=0
65220 On ch=1 n=a#5 v=100
65239 On ch=1 n=a#5 v=0
65240 On ch=1 n=c#6 v=100
65259 On ch=1 n=c#6 v=0
65260 On ch=1 n=f6 v=100
65279 On ch=1 n=f6 v=0
65280 On ch=1 n=e6 v=100
65299 On ch=1 n=e6 v=0
65300 On ch=1 n=c6 v=100
65319 On ch=1 n=c6 v=0
65320 On ch=1 n=b5 v=100
65339 On ch=1 n=b5 v=0
65340 On ch=1 n=a#5 v=100
65359 On ch=1 n=a#5 v=0
65360 On ch=1 n=c#6 v=100
65379 On ch=1 n=c#6 v=0
65380 On ch=1 n=f6 v=100
65399 On ch=1 n=f6 v=0
65400 On ch=1 n=e6 v=100
65419 On ch=1 n=e6 v=0
65420 On ch=1 n=c6 v=100
65439 On ch=1 n=c6 v=0
65440 On ch=1 n=b5 v=100
65459 On ch=1 n=b5 v=0
65460 On ch=1 n=a#5 v=100
65479 On ch=1 n=a#5 v=0
65480 On ch=1 n=c#6 v=100
65499 On ch=1 n=c#6 v=0
65500 On ch=1 n=f6 v=100
65519 On ch=1 n=f6 v=0
65520 On ch=1 n=a6 v=100
65539 On ch=1 n=a6 v=0
65540 On ch=1 n=e6 v=100
65559 On ch=1 n=e6 v=0
65560 On ch=1 n=c6 v=100
65579 On ch=1 n=c6 v=0
65580 On ch=1 n=c#6 v=100
65599 On ch=1 n=c#6 v=0
65600 On ch=1 n=f6 v=100
65619 On ch=1 n=f6 v=0
65620 On ch=1 n=a#6 v=100
65639 On ch=1 n=a#6 v=0
65640 On ch=1 n=c7 v=100
65659 On ch=1 n=c7 v=0
65660 On ch=1 n=a6 v=100
65679 On ch=1 n=a6 v=0
65680 On ch=1 n=e6 v=100
65699 On ch=1 n=e6 v=0
65700 On ch=1 n=f6 v=100
65719 On ch=1 n=f6 v=0
65720 On ch=1 n=a#6 v=100
65739 On ch=1 n=a#6 v=0
65740 On ch=1 n=c#7 v=100
65759 On ch=1 n=c#7 v=0
65760 On ch=1 n=e7 v=100
65779 On ch=1 n=e7 v=0
65780 On ch=1 n=c7 v=100
65799 On ch=1 n=c7 v=0
65800 On ch=1 n=a6 v=100
65819 On ch=1 n=a6 v=0
65820 On ch=1 n=a#6 v=100
65839 On ch=1 n=a#6 v=0
65840 On ch=1 n=c#7 v=100
65859 On ch=1 n=c#7 v=0
65860 On ch=1 n=f7 v=100
65879 On ch=1 n=f7 v=0
65880 On ch=1 n=a#7 v=100
65939 On ch=1 n=a#7 v=0
65940 On ch=1 n=f6 v=100
65940 On ch=1 n=c#6 v=100
66090 On ch=1 n=c#5 v=100
66100 On ch=1 n=f5 v=100
66110 On ch=1 n=g#5 v=100
66179 On ch=1 n=c#6 v=0
66179 On ch=1 n=f6 v=0
66180 On ch=1 n=c6 v=100
66180 On ch=1 n=e6 v=100
66239 On ch=1 n=e6 v=0
66239 On ch=1 n=c6 v=0
66240 On ch=1 n=b5 v=100
66240 On ch=1 n=d#6 v=100
66299 On ch=1 n=d#6 v=0
66299 On ch=1 n=b5 v=0
66419 On ch=1 n=f5 v=0
66419 On ch=1 n=c#5 v=0
66419 On ch=1 n=g#5 v=0
66420 On ch=1 n=c#6 v=100
66420 On ch=1 n=a#5 v=100
66719 On ch=1 n=a#5 v=0
66719 On ch=1 n=c#6 v=0
66720 On ch=1 n=a#5 v=100
66779 On ch=1 n=a#5 v=0
66780 On ch=1 n=f5 v=100
67139 On ch=1 n=f5 v=0
67140 On ch=1 n=f#6 v=100
67140 On ch=1 n=a#5 v=100
67259 On ch=1 n=f#6 v=0
67260 On ch=1 n=g6 v=100
67439 On ch=1 n=g6 v=0
67440 On ch=1 n=f#6 v=100
67499 On ch=1 n=f#6 v=0
67500 On ch=1 n=d#6 v=100
67559 On ch=1 n=d#6 v=0
67560 On ch=1 n=e6 v=100
67619 On ch=1 n=e6 v=0
67619 On ch=1 n=a#5 v=0
67620 On ch=1 n=a5 v=100
67620 On ch=1 n=e6 v=100
67739 On ch=1 n=e6 v=0
67740 On ch=1 n=a5 v=100
67979 On ch=1 n=a5 v=0
67980 On ch=1 n=g5 v=100
68039 On ch=1 n=a5 v=0
68040 On ch=1 n=b5 v=100
68099 On ch=1 n=b5 v=0
68099 On ch=1 n=g5 v=0
68100 On ch=1 n=f#5 v=100
68100 On ch=1 n=c6 v=100
68219 On ch=1 n=c6 v=0
68220 On ch=1 n=e6 v=100
68399 On ch=1 n=e6 v=0
68400 On ch=1 n=d6 v=100
68459 On ch=1 n=d6 v=0
68459 On ch=1 n=f#5 v=0
68460 On ch=1 n=b5 v=100
68460 On ch=1 n=f5 v=100
68519 On ch=1 n=b5 v=0
68520 On ch=1 n=c6 v=100
68579 On ch=1 n=c6 v=0
68579 On ch=1 n=f5 v=0
68580 On ch=1 n=e5 v=100
68580 On ch=1 n=c6 v=100
68699 On ch=1 n=c6 v=0
68700 On ch=1 n=g5 v=100
68819 On ch=1 n=e5 v=0
68820 On ch=1 n=d#5 v=100
68879 On ch=1 n=g5 v=0
68880 On ch=1 n=a5 v=100
68939 On ch=1 n=d#5 v=0
68940 On ch=1 n=d5 v=100
68999 On ch=1 n=a5 v=0
69000 On ch=1 n=b5 v=100
69059 On ch=1 n=b5 v=0
69059 On ch=1 n=d5 v=0
69060 On ch=1 n=c#5 v=100
69060 On ch=1 n=a5 v=100
69179 On ch=1 n=a5 v=0
69180 On ch=1 n=e5 v=100
69299 On ch=1 n=c#5 v=0
69300 On ch=1 n=c5 v=100
69359 On ch=1 n=e5 v=0
69360 On ch=1 n=f#5 v=100
69419 On ch=1 n=c5 v=0
69420 On ch=1 n=b4 v=100
69479 On ch=1 n=f#5 v=0
69480 On ch=1 n=g5 v=100
69539 On ch=1 n=g5 v=0
69539 On ch=1 n=b4 v=0
69540 On ch=1 n=f#5 v=100
69540 On ch=1 n=d5 v=100
69540 On ch=1 n=a4 v=100
69779 On ch=1 n=a4 v=0
69779 On ch=1 n=d5 v=0
69779 On ch=1 n=f#5 v=0
69780 On ch=1 n=e5 v=100
69780 On ch=1 n=d5 v=100
69780 On ch=1 n=g4 v=100
70019 On ch=1 n=g4 v=0
70019 On ch=1 n=d5 v=0
70019 On ch=1 n=e5 v=0
70020 On ch=1 n=f#5 v=100
70020 On ch=1 n=d5 v=100
70020 On ch=1 n=a4 v=100
70319 On ch=1 n=a4 v=0
70319 On ch=1 n=d5 v=0
70319 On ch=1 n=f#5 v=0
70380 On ch=1 n=g5 v=100
70380 On ch=1 n=e5 v=100
70380 On ch=1 n=a#4 v=100
70459 On ch=1 n=g5 v=0
70460 On ch=1 n=a5 v=100
70499 On ch=1 n=a5 v=0
70499 On ch=1 n=a#4 v=0
70499 On ch=1 n=e5 v=0
70500 On ch=1 n=c5 v=100
70510 On ch=1 n=f#5 v=100
70520 On ch=1 n=g5 v=100
70799 On ch=1 n=g5 v=0
70800 On ch=1 n=b5 v=100
70859 On ch=1 n=b5 v=0
70859 On ch=1 n=f#5 v=0
70859 On ch=1 n=c5 v=0
70860 On ch=1 n=g5 v=100
70860 On ch=1 n=e5 v=100
70860 On ch=1 n=c5 v=100
70979 On ch=1 n=g5 v=0
70980 On ch=1 n=a5 v=100
71039 On ch=1 n=a5 v=0
71039 On ch=1 n=c5 v=0
71039 On ch=1 n=e5 v=0
71040 On ch=1 n=f#5 v=100
71040 On ch=1 n=e5 v=100
71040 On ch=1 n=b4 v=100
71159 On ch=1 n=b4 v=0
71159 On ch=1 n=e5 v=0
71159 On ch=1 n=f#5 v=0
71160 On ch=1 n=f4 v=100
71170 On ch=1 n=c5 v=100
71180 On ch=1 n=d5 v=100
71190 On ch=1 n=a5 v=100
71219 On ch=1 n=a5 v=0
71219 On ch=1 n=f4 v=0
71219 On ch=1 n=c5 v=0
71219 On ch=1 n=d5 v=0
71220 On ch=1 n=b4 v=100
71230 On ch=1 n=e5 v=100
71240 On ch=1 n=f#5 v=100
71520 On ch=1 n=a5 v=100
71524 On ch=1 n=f#5 v=0
71579 On ch=1 n=b4 v=0
71579 On ch=1 n=e5 v=0
71579 On ch=1 n=a5 v=0
71580 On ch=1 n=f#5 v=100
71580 On ch=1 n=b4 v=100
71580 On ch=1 n=e5 v=100
71699 On ch=1 n=f#5 v=0
71700 On ch=1 n=g5 v=100
71759 On ch=1 n=g5 v=0
71759 On ch=1 n=e5 v=0
71759 On ch=1 n=b4 v=0
71760 On ch=1 n=e5 v=100
71760 On ch=1 n=d5 v=100
71760 On ch=1 n=b4 v=100
71879 On ch=1 n=b4 v=0
71879 On ch=1 n=d5 v=0
71880 On ch=1 n=e4 v=100
71890 On ch=1 n=g4 v=100
71900 On ch=1 n=c5 v=100
71910 On ch=1 n=b5 v=100
71939 On ch=1 n=b5 v=0
71939 On ch=1 n=g4 v=0
71939 On ch=1 n=e5 v=0
71939 On ch=1 n=e4 v=0
71939 On ch=1 n=c5 v=0
71940 On ch=1 n=b4 v=100
71950 On ch=1 n=d5 v=100
71960 On ch=1 n=e5 v=100
72239 On ch=1 n=e5 v=0
72240 On ch=1 n=g5 v=100
72299 On ch=1 n=g5 v=0
72299 On ch=1 n=d5 v=0
72299 On ch=1 n=b4 v=0
72300 On ch=1 n=e5 v=100
72300 On ch=1 n=a4 v=100
72300 On ch=1 n=d5 v=100
72419 On ch=1 n=e5 v=0
72420 On ch=1 n=f#5 v=100
72479 On ch=1 n=f#5 v=0
72479 On ch=1 n=d5 v=0
72479 On ch=1 n=a4 v=0
72480 On ch=1 n=d#5 v=100
72480 On ch=1 n=c5 v=100
72480 On ch=1 n=a4 v=100
72599 On ch=1 n=a4 v=0
72599 On ch=1 n=c5 v=0
72599 On ch=1 n=d#5 v=0
72600 On ch=1 n=g#4 v=100
72600 On ch=1 n=a#4 v=100
72600 On ch=1 n=e5 v=100
72659 On ch=1 n=e5 v=0
72659 On ch=1 n=a#4 v=0
72659 On ch=1 n=g#4 v=0
72660 On ch=1 n=f#5 v=100
72660 On ch=1 n=a#4 v=100
72660 On ch=1 n=g4 v=100
72700 On ch=1 n=g5 v=100
72709 On ch=1 n=f#5 v=0
72719 On ch=1 n=a#4 v=0
72719 On ch=1 n=g4 v=0
72749 On ch=1 n=g5 v=0
72750 On ch=1 n=a#5 v=100
72790 On ch=1 n=d#6 v=100
72840 On ch=1 n=e6 v=100
72849 On ch=1 n=d#6 v=0
72900 On ch=1 n=f#6 v=100
72909 On ch=1 n=e6 v=0
73019 On ch=1 n=a#5 v=0
73020 On ch=1 n=a5 v=100
73139 On ch=1 n=a5 v=0
73139 On ch=1 n=f#6 v=0
73200 On ch=1 n=b4 v=100
73200 On ch=1 n=e5 v=100
73200 On ch=1 n=g5 v=100
73319 On ch=1 n=g5 v=0
73319 On ch=1 n=e5 v=0
73319 On ch=1 n=b4 v=0
73320 On ch=1 n=a5 v=100
73320 On ch=1 n=e5 v=100
73320 On ch=1 n=c5 v=100
73379 On ch=1 n=c5 v=0
73379 On ch=1 n=e5 v=0
73379 On ch=1 n=a5 v=0
73380 On ch=1 n=g5 v=100
73380 On ch=1 n=e5 v=100
73380 On ch=1 n=d5 v=100
73500 On ch=1 n=g6 v=100
73559 On ch=1 n=g6 v=0
73560 On ch=1 n=e6 v=100
73679 On ch=1 n=g5 v=0
73679 On ch=1 n=d5 v=0
73679 On ch=1 n=e5 v=0
73680 On ch=1 n=b5 v=100
73680 On ch=1 n=e5 v=100
73680 On ch=1 n=c5 v=100
73739 On ch=1 n=c5 v=0
73739 On ch=1 n=e5 v=0
73739 On ch=1 n=b5 v=0
73740 On ch=1 n=g5 v=100
73740 On ch=1 n=e5 v=100
73740 On ch=1 n=d5 v=100
73859 On ch=1 n=d5 v=0
73859 On ch=1 n=e5 v=0
73859 On ch=1 n=g5 v=0
73860 On ch=1 n=a5 v=100
73860 On ch=1 n=e5 v=100
73860 On ch=1 n=c5 v=100
73919 On ch=1 n=c5 v=0
73919 On ch=1 n=e6 v=0
73919 On ch=1 n=a5 v=0
73919 On ch=1 n=e5 v=0
73920 On ch=1 n=f#5 v=100
73920 On ch=1 n=e5 v=100
73920 On ch=1 n=b4 v=100
74039 On ch=1 n=b4 v=0
74039 On ch=1 n=e5 v=0
74039 On ch=1 n=f#5 v=0
74040 On ch=1 n=a4 v=100
74050 On ch=1 n=c5 v=100
74060 On ch=1 n=d5 v=100
74070 On ch=1 n=a5 v=100
74099 On ch=1 n=a5 v=0
74099 On ch=1 n=a4 v=0
74099 On ch=1 n=c5 v=0
74099 On ch=1 n=d5 v=0
74100 On ch=1 n=f#5 v=100
74100 On ch=1 n=e5 v=100
74100 On ch=1 n=c5 v=100
74220 On ch=1 n=f#6 v=100
74279 On ch=1 n=f#6 v=0
74280 On ch=1 n=d6 v=100
74399 On ch=1 n=f#5 v=0
74399 On ch=1 n=c5 v=0
74399 On ch=1 n=e5 v=0
74400 On ch=1 n=a5 v=100
74400 On ch=1 n=d5 v=100
74400 On ch=1 n=b4 v=100
74459 On ch=1 n=b4 v=0
74459 On ch=1 n=d5 v=0
74459 On ch=1 n=a5 v=0
74460 On ch=1 n=f#5 v=100
74460 On ch=1 n=e5 v=100
74460 On ch=1 n=c5 v=100
74579 On ch=1 n=c5 v=0
74579 On ch=1 n=e5 v=0
74579 On ch=1 n=f#5 v=0
74580 On ch=1 n=g5 v=100
74580 On ch=1 n=d5 v=100
74580 On ch=1 n=b4 v=100
74639 On ch=1 n=b4 v=0
74639 On ch=1 n=d6 v=0
74639 On ch=1 n=g5 v=0
74639 On ch=1 n=d5 v=0
74640 On ch=1 n=e5 v=100
74640 On ch=1 n=d5 v=100
74640 On ch=1 n=a4 v=100
74759 On ch=1 n=a4 v=0
74759 On ch=1 n=d5 v=0
74759 On ch=1 n=e5 v=0
74760 On ch=1 n=g4 v=100
74770 On ch=1 n=c5 v=100
74780 On ch=1 n=g5 v=100
74819 On ch=1 n=g5 v=0
74819 On ch=1 n=c5 v=0
74819 On ch=1 n=g4 v=0
74820 On ch=1 n=e5 v=100
74820 On ch=1 n=d5 v=100
74820 On ch=1 n=b4 v=100
74940 On ch=1 n=e6 v=100
74999 On ch=1 n=e6 v=0
75000 On ch=1 n=c6 v=100
75119 On ch=1 n=e5 v=0
75119 On ch=1 n=b4 v=0
75119 On ch=1 n=d5 v=0
75120 On ch=1 n=g5 v=100
75120 On ch=1 n=c5 v=100
75120 On ch=1 n=g4 v=100
75179 On ch=1 n=g4 v=0
75179 On ch=1 n=c5 v=0
75179 On ch=1 n=g5 v=0
75180 On ch=1 n=e5 v=100
75180 On ch=1 n=d5 v=100
75180 On ch=1 n=b4 v=100
75299 On ch=1 n=b4 v=0
75299 On ch=1 n=d5 v=0
75299 On ch=1 n=e5 v=0
75300 On ch=1 n=f#5 v=100
75300 On ch=1 n=c5 v=100
75300 On ch=1 n=g4 v=100
75359 On ch=1 n=g4 v=0
75359 On ch=1 n=c6 v=0
75359 On ch=1 n=f#5 v=0
75359 On ch=1 n=c5 v=0
75360 On ch=1 n=d#5 v=100
75360 On ch=1 n=b4 v=100
75360 On ch=1 n=g4 v=100
75420 On ch=1 n=b5 v=100
75479 On ch=1 n=g4 v=0
75479 On ch=1 n=d#5 v=0
75479 On ch=1 n=b4 v=0
75480 On ch=1 n=e5 v=100
75539 On ch=1 n=e5 v=0
75539 On ch=1 n=b5 v=0
75540 On ch=1 n=a#5 v=100
75540 On ch=1 n=f#5 v=100
75579 On ch=1 n=f#5 v=0
75580 On ch=1 n=g5 v=100
75619 On ch=1 n=g5 v=0
75620 On ch=1 n=a#5 v=100
75650 On ch=1 n=d#6 v=100
75659 On ch=1 n=a#5 v=0
75680 On ch=1 n=e6 v=100
75689 On ch=1 n=d#6 v=0
75719 On ch=1 n=e6 v=0
75719 On ch=1 n=a#5 v=0
75720 On ch=1 n=f#6 v=100
75720 On ch=1 n=a5 v=100
75839 On ch=1 n=a5 v=0
75839 On ch=1 n=f#6 v=0
75840 On ch=1 n=g#5 v=100
75840 On ch=1 n=b5 v=100
75899 On ch=1 n=g#5 v=0
75900 On ch=1 n=g5 v=100
75930 On ch=1 n=c6 v=100
75939 On ch=1 n=b5 v=0
75960 On ch=1 n=d#6 v=100
75969 On ch=1 n=c6 v=0
75999 On ch=1 n=d#6 v=0
76000 On ch=1 n=f#6 v=100
76039 On ch=1 n=f#6 v=0
76040 On ch=1 n=g6 v=100
76079 On ch=1 n=g6 v=0
76079 On ch=1 n=g5 v=0
76080 On ch=1 n=a6 v=100
76080 On ch=1 n=a5 v=100
76080 On ch=1 n=d6 v=100
76139 On ch=1 n=a5 v=0
76139 On ch=1 n=a6 v=0
76140 On ch=1 n=b6 v=100
76140 On ch=1 n=b5 v=100
76169 On ch=1 n=d6 v=0
76170 On ch=1 n=e6 v=100
76199 On ch=1 n=e6 v=0
76199 On ch=1 n=b5 v=0
76199 On ch=1 n=b6 v=0
76200 On ch=1 n=c7 v=100
76200 On ch=1 n=c6 v=100
76200 On ch=1 n=f#6 v=100
76229 On ch=1 n=f#6 v=0
76259 On ch=1 n=c6 v=0
76259 On ch=1 n=c7 v=0
76290 On ch=1 n=d7 v=100
76290 On ch=1 n=g6 v=100
76290 On ch=1 n=d6 v=100
76350 On ch=1 n=d6 v=100
76350 On ch=1 n=b5 v=100
76350 On ch=1 n=g5 v=100
76379 On ch=1 n=g5 v=0
76379 On ch=1 n=d6 v=0
76379 On ch=1 n=b5 v=0
76470 On ch=1 n=f#5 v=100
76470 On ch=1 n=d6 v=100
76470 On ch=1 n=b5 v=100
76499 On ch=1 n=b5 v=0
76499 On ch=1 n=f#5 v=0
76499 On ch=1 n=d6 v=0
76590 On ch=1 n=e5 v=100
76590 On ch=1 n=b5 v=100
76590 On ch=1 n=d6 v=100
76619 On ch=1 n=d6 v=0
76619 On ch=1 n=d7 v=0
76619 On ch=1 n=g6 v=0
76619 On ch=1 n=d6 v=0
76619 On ch=1 n=b5 v=0
76619 On ch=1 n=e5 v=0
76620 On ch=1 n=a5 v=100
76620 On ch=1 n=a7 v=100
76649 On ch=1 n=a5 v=0
76650 On ch=1 n=b5 v=100
76679 On ch=1 n=b5 v=0
76680 On ch=1 n=a5 v=100
76709 On ch=1 n=a5 v=0
76710 On ch=1 n=d6 v=100
76724 On ch=1 n=a7 v=0
76725 On ch=1 n=g6 v=100
76739 On ch=1 n=g6 v=0
76739 On ch=1 n=d6 v=0
76740 On ch=1 n=g5 v=100
76750 On ch=1 n=d6 v=100
76754 On ch=1 n=g5 v=0
76760 On ch=1 n=g#6 v=100
76770 On ch=1 n=d7 v=100
76830 On ch=1 n=d6 v=100
76830 On ch=1 n=b5 v=100
76830 On ch=1 n=g5 v=100
76859 On ch=1 n=g5 v=0
76859 On ch=1 n=d6 v=0
76859 On ch=1 n=b5 v=0
76950 On ch=1 n=f#5 v=100
76950 On ch=1 n=d6 v=100
76950 On ch=1 n=b5 v=100
76979 On ch=1 n=b5 v=0
76979 On ch=1 n=f#5 v=0
76979 On ch=1 n=d6 v=0
77070 On ch=1 n=e5 v=100
77070 On ch=1 n=b5 v=100
77070 On ch=1 n=d6 v=100
77099 On ch=1 n=d6 v=0
77099 On ch=1 n=d6 v=0
77099 On ch=1 n=g#6 v=0
77099 On ch=1 n=d7 v=0
77099 On ch=1 n=b5 v=0
77099 On ch=1 n=e5 v=0
77100 On ch=1 n=g6 v=100
77100 On ch=1 n=g5 v=100
77100 On ch=1 n=a7 v=100
77129 On ch=1 n=g5 v=0
77130 On ch=1 n=a5 v=100
77159 On ch=1 n=a5 v=0
77160 On ch=1 n=g5 v=100
77189 On ch=1 n=g5 v=0
77189 On ch=1 n=g6 v=0
77190 On ch=1 n=f#6 v=100
77190 On ch=1 n=f#5 v=100
77190 On ch=1 n=d6 v=100
77204 On ch=1 n=a7 v=0
77219 On ch=1 n=f#6 v=0
77219 On ch=1 n=f#5 v=0
77219 On ch=1 n=d6 v=0
77220 On ch=1 n=e5 v=100
77229 On ch=1 n=e5 v=0
77230 On ch=1 n=b5 v=100
77239 On ch=1 n=b5 v=0
77240 On ch=1 n=e6 v=100
77249 On ch=1 n=e6 v=0
77250 On ch=1 n=d7 v=100
77310 On ch=1 n=d6 v=100
77310 On ch=1 n=b5 v=100
77310 On ch=1 n=g5 v=100
77339 On ch=1 n=g5 v=0
77339 On ch=1 n=b5 v=0
77339 On ch=1 n=d6 v=0
77430 On ch=1 n=f#5 v=100
77430 On ch=1 n=d6 v=100
77430 On ch=1 n=b5 v=100
77459 On ch=1 n=b5 v=0
77459 On ch=1 n=d6 v=0
77459 On ch=1 n=f#5 v=0
77550 On ch=1 n=e5 v=100
77550 On ch=1 n=b5 v=100
77550 On ch=1 n=d6 v=100
77579 On ch=1 n=d6 v=0
77579 On ch=1 n=d7 v=0
77579 On ch=1 n=e5 v=0
77579 On ch=1 n=b5 v=0
77580 On ch=1 n=f#6 v=100
77580 On ch=1 n=f#5 v=100
77580 On ch=1 n=a7 v=100
77609 On ch=1 n=f#5 v=0
77610 On ch=1 n=g5 v=100
77639 On ch=1 n=g5 v=0
77640 On ch=1 n=f#5 v=100
77669 On ch=1 n=f#5 v=0
77669 On ch=1 n=f#6 v=0
77670 On ch=1 n=e6 v=100
77670 On ch=1 n=e5 v=100
77670 On ch=1 n=d6 v=100
77684 On ch=1 n=a7 v=0
77699 On ch=1 n=e6 v=0
77699 On ch=1 n=e5 v=0
77699 On ch=1 n=d6 v=0
77700 On ch=1 n=e5 v=100
77709 On ch=1 n=e5 v=0
77710 On ch=1 n=b5 v=100
77719 On ch=1 n=b5 v=0
77720 On ch=1 n=e6 v=100
77729 On ch=1 n=e6 v=0
77730 On ch=1 n=d7 v=100
77730 On ch=1 n=d6 v=100
77740 On ch=1 n=e6 v=100
77790 On ch=1 n=d6 v=100
77790 On ch=1 n=b5 v=100
77790 On ch=1 n=g5 v=100
77819 On ch=1 n=g5 v=0
77819 On ch=1 n=d6 v=0
77819 On ch=1 n=b5 v=0
77910 On ch=1 n=f#5 v=100
77910 On ch=1 n=d6 v=100
77910 On ch=1 n=b5 v=100
77939 On ch=1 n=b5 v=0
77939 On ch=1 n=f#5 v=0
77939 On ch=1 n=d6 v=0
78030 On ch=1 n=e5 v=100
78030 On ch=1 n=b5 v=100
78030 On ch=1 n=d6 v=100
78059 On ch=1 n=d6 v=0
78059 On ch=1 n=d7 v=0
78059 On ch=1 n=e6 v=0
78059 On ch=1 n=d6 v=0
78059 On ch=1 n=b5 v=0
78060 On ch=1 n=e6 v=100
78060 On ch=1 n=g5 v=100
78060 On ch=1 n=a7 v=100
78089 On ch=1 n=g5 v=0
78089 On ch=1 n=e6 v=0
78090 On ch=1 n=a5 v=100
78119 On ch=1 n=a5 v=0
78120 On ch=1 n=g5 v=100
78149 On ch=1 n=g5 v=0
78149 On ch=1 n=e5 v=0
78150 On ch=1 n=b5 v=100
78150 On ch=1 n=e5 v=100
78150 On ch=1 n=d6 v=100
78164 On ch=1 n=a7 v=0
78179 On ch=1 n=b5 v=0
78179 On ch=1 n=e5 v=0
78179 On ch=1 n=d6 v=0
78180 On ch=1 n=d5 v=100
78189 On ch=1 n=d5 v=0
78190 On ch=1 n=a5 v=100
78199 On ch=1 n=a5 v=0
78200 On ch=1 n=d6 v=100
78209 On ch=1 n=d6 v=0
78210 On ch=1 n=a6 v=100
78210 On ch=1 n=d6 v=100
78220 On ch=1 n=d7 v=100
78239 On ch=1 n=d6 v=0
78239 On ch=1 n=a6 v=0
78240 On ch=1 n=e6 v=100
78299 On ch=1 n=e6 v=0
78300 On ch=1 n=d6 v=100
78359 On ch=1 n=d6 v=0
78359 On ch=1 n=d7 v=0
78360 On ch=1 n=e6 v=100
78360 On ch=1 n=b6 v=100
78419 On ch=1 n=e6 v=0
78420 On ch=1 n=d6 v=100
78479 On ch=1 n=d6 v=0
78479 On ch=1 n=b6 v=0
78480 On ch=1 n=e6 v=100
78480 On ch=1 n=a6 v=100
78539 On ch=1 n=a6 v=0
78539 On ch=1 n=e6 v=0
78540 On ch=1 n=d7 v=100
78540 On ch=1 n=d6 v=100
78599 On ch=1 n=d6 v=0
78600 On ch=1 n=e6 v=100
78659 On ch=1 n=e6 v=0
78660 On ch=1 n=d6 v=100
78719 On ch=1 n=d6 v=0
78719 On ch=1 n=d7 v=0
78720 On ch=1 n=g6 v=100
78720 On ch=1 n=e6 v=100
78779 On ch=1 n=e6 v=0
78780 On ch=1 n=d6 v=100
78839 On ch=1 n=d6 v=0
78839 On ch=1 n=g6 v=0
78840 On ch=1 n=f#6 v=100
78840 On ch=1 n=e6 v=100
78899 On ch=1 n=e6 v=0
78899 On ch=1 n=f#6 v=0
78900 On ch=1 n=d7 v=100
78900 On ch=1 n=d6 v=100
78959 On ch=1 n=d6 v=0
78960 On ch=1 n=e5 v=100
78960 On ch=1 n=g5 v=100
79019 On ch=1 n=g5 v=0
79019 On ch=1 n=e5 v=0
79020 On ch=1 n=d5 v=100
79020 On ch=1 n=f#5 v=100
79079 On ch=1 n=d7 v=0
79080 On ch=1 n=e6 v=100
79139 On ch=1 n=f#5 v=0
79139 On ch=1 n=d5 v=0
79140 On ch=1 n=e5 v=100
79140 On ch=1 n=g5 v=100
79199 On ch=1 n=g5 v=0
79199 On ch=1 n=e5 v=0
79199 On ch=1 n=e6 v=0
79200 On ch=1 n=d5 v=100
79200 On ch=1 n=f#5 v=100
79200 On ch=1 n=d6 v=100
79259 On ch=1 n=d6 v=0
79260 On ch=1 n=d7 v=100
79319 On ch=1 n=f#5 v=0
79319 On ch=1 n=d5 v=0
79320 On ch=1 n=e5 v=100
79320 On ch=1 n=g5 v=100
79379 On ch=1 n=g5 v=0
79379 On ch=1 n=e5 v=0
79380 On ch=1 n=d5 v=100
79380 On ch=1 n=f#5 v=100
79439 On ch=1 n=d7 v=0
79440 On ch=1 n=c5 v=100
79440 On ch=1 n=c6 v=100
79499 On ch=1 n=c5 v=0
79499 On ch=1 n=d5 v=0
79499 On ch=1 n=f#5 v=0
79500 On ch=1 n=e5 v=100
79500 On ch=1 n=g5 v=100
79559 On ch=1 n=g5 v=0
79559 On ch=1 n=e5 v=0
79559 On ch=1 n=c6 v=0
79560 On ch=1 n=d5 v=100
79560 On ch=1 n=f#5 v=100
79560 On ch=1 n=a#5 v=100
79619 On ch=1 n=a#5 v=0
79619 On ch=1 n=f#5 v=0
79619 On ch=1 n=d5 v=0
79620 On ch=1 n=a4 v=100
79626 On ch=1 n=a4 v=0
79627 On ch=1 n=d5 v=100
79633 On ch=1 n=d5 v=0
79634 On ch=1 n=f#5 v=100
79640 On ch=1 n=f#5 v=0
79641 On ch=1 n=a5 v=100
79647 On ch=1 n=a5 v=0
79648 On ch=1 n=d6 v=100
79654 On ch=1 n=d6 v=0
79655 On ch=1 n=f#6 v=100
79661 On ch=1 n=f#6 v=0
79662 On ch=1 n=d7 v=100
79668 On ch=1 n=d7 v=0
79669 On ch=1 n=e7 v=100
79675 On ch=1 n=e7 v=0
79680 On ch=1 n=g6 v=100
79680 On ch=1 n=d6 v=100
79683 On ch=1 n=d7 v=100
79707 On ch=1 n=d6 v=0
79707 On ch=1 n=g6 v=0
79710 On ch=1 n=d7 v=0
79710 On ch=1 n=e7 v=100
79737 On ch=1 n=e7 v=0
79740 On ch=1 n=a6 v=100
79740 On ch=1 n=d6 v=100
79740 On ch=1 n=d7 v=100
79767 On ch=1 n=d7 v=0
79767 On ch=1 n=d6 v=0
79767 On ch=1 n=a6 v=0
79770 On ch=1 n=e7 v=100
79797 On ch=1 n=e7 v=0
79800 On ch=1 n=a6 v=100
79800 On ch=1 n=d6 v=100
79800 On ch=1 n=d7 v=100
79827 On ch=1 n=d7 v=0
79827 On ch=1 n=d6 v=0
79827 On ch=1 n=a6 v=0
79830 On ch=1 n=e7 v=100
79857 On ch=1 n=e7 v=0
79860 On ch=1 n=b6 v=100
79860 On ch=1 n=d6 v=100
79860 On ch=1 n=d7 v=100
79887 On ch=1 n=d7 v=0
79887 On ch=1 n=d6 v=0
79887 On ch=1 n=b6 v=0
79890 On ch=1 n=e7 v=100
79917 On ch=1 n=e7 v=0
79920 On ch=1 n=a6 v=100
79920 On ch=1 n=d6 v=100
79920 On ch=1 n=d7 v=100
79947 On ch=1 n=d7 v=0
79947 On ch=1 n=d6 v=0
79947 On ch=1 n=a6 v=0
79950 On ch=1 n=e7 v=100
79977 On ch=1 n=e7 v=0
79980 On ch=1 n=a6 v=100
79980 On ch=1 n=d6 v=100
79980 On ch=1 n=d7 v=100
80007 On ch=1 n=d7 v=0
80007 On ch=1 n=d6 v=0
80007 On ch=1 n=a6 v=0
80010 On ch=1 n=e7 v=100
80037 On ch=1 n=e7 v=0
80040 On ch=1 n=g6 v=100
80040 On ch=1 n=d6 v=100
80040 On ch=1 n=d7 v=100
80067 On ch=1 n=d7 v=0
80067 On ch=1 n=d6 v=0
80067 On ch=1 n=g6 v=0
80070 On ch=1 n=e7 v=100
80097 On ch=1 n=e7 v=0
80100 On ch=1 n=a6 v=100
80100 On ch=1 n=d6 v=100
80100 On ch=1 n=d7 v=100
80127 On ch=1 n=d7 v=0
80127 On ch=1 n=d6 v=0
80127 On ch=1 n=a6 v=0
80130 On ch=1 n=e7 v=100
80157 On ch=1 n=e7 v=0
80160 On ch=1 n=a6 v=100
80160 On ch=1 n=d6 v=100
80160 On ch=1 n=d7 v=100
80187 On ch=1 n=d7 v=0
80187 On ch=1 n=d6 v=0
80187 On ch=1 n=a6 v=0
80190 On ch=1 n=e7 v=100
80217 On ch=1 n=e7 v=0
80220 On ch=1 n=b6 v=100
80220 On ch=1 n=d6 v=100
80220 On ch=1 n=d7 v=100
80247 On ch=1 n=d7 v=0
80247 On ch=1 n=d6 v=0
80247 On ch=1 n=b6 v=0
80250 On ch=1 n=e7 v=100
80277 On ch=1 n=e7 v=0
80280 On ch=1 n=a6 v=100
80280 On ch=1 n=d6 v=100
80280 On ch=1 n=d7 v=100
80307 On ch=1 n=d7 v=0
80307 On ch=1 n=d6 v=0
80307 On ch=1 n=a6 v=0
80310 On ch=1 n=e7 v=100
80337 On ch=1 n=e7 v=0
80340 On ch=1 n=d7 v=100
80340 On ch=1 n=a6 v=100
80340 On ch=1 n=d6 v=100
80369 On ch=1 n=d7 v=0
80370 On ch=1 n=e7 v=100
80399 On ch=1 n=e7 v=0
80400 On ch=1 n=d7 v=100
80759 On ch=1 n=d7 v=0
80759 On ch=1 n=d6 v=0
80759 On ch=1 n=a6 v=0
80880 On ch=1 n=g5 v=100
80880 On ch=1 n=e5 v=100
80880 On ch=1 n=b4 v=100
80999 On ch=1 n=b4 v=0
80999 On ch=1 n=e5 v=0
80999 On ch=1 n=g5 v=0
81000 On ch=1 n=a5 v=100
81000 On ch=1 n=e5 v=100
81000 On ch=1 n=c5 v=100
81059 On ch=1 n=c5 v=0
81059 On ch=1 n=e5 v=0
81059 On ch=1 n=a5 v=0
81060 On ch=1 n=g5 v=100
81060 On ch=1 n=e5 v=100
81060 On ch=1 n=d5 v=100
81120 On ch=1 n=e7 v=100
81179 On ch=1 n=e7 v=0
81180 On ch=1 n=e6 v=100
81239 On ch=1 n=e6 v=0
81240 On ch=1 n=e6 v=100
81299 On ch=1 n=e6 v=0
81300 On ch=1 n=b6 v=100
81359 On ch=1 n=b6 v=0
81359 On ch=1 n=d5 v=0
81359 On ch=1 n=e5 v=0
81359 On ch=1 n=g5 v=0
81360 On ch=1 n=b5 v=100
81360 On ch=1 n=e5 v=100
81360 On ch=1 n=c5 v=100
81419 On ch=1 n=c5 v=0
81419 On ch=1 n=e5 v=0
81419 On ch=1 n=b5 v=0
81420 On ch=1 n=d5 v=100
81420 On ch=1 n=e5 v=100
81420 On ch=1 n=g5 v=100
81420 On ch=1 n=b5 v=100
81479 On ch=1 n=b5 v=0
81480 On ch=1 n=e6 v=100
81539 On ch=1 n=e6 v=0
81539 On ch=1 n=g5 v=0
81539 On ch=1 n=e5 v=0
81539 On ch=1 n=d5 v=0
81540 On ch=1 n=a5 v=100
81540 On ch=1 n=e5 v=100
81540 On ch=1 n=c5 v=100
81599 On ch=1 n=c5 v=0
81599 On ch=1 n=e5 v=0
81599 On ch=1 n=a5 v=0
81600 On ch=1 n=f#5 v=100
81600 On ch=1 n=e5 v=100
81600 On ch=1 n=b4 v=100
81660 On ch=1 n=b5 v=100
81719 On ch=1 n=b5 v=0
81719 On ch=1 n=f#5 v=0
81719 On ch=1 n=e5 v=0
81719 On ch=1 n=b4 v=0
81730 On ch=1 n=c5 v=100
81740 On ch=1 n=d5 v=100
81750 On ch=1 n=a5 v=100
81779 On ch=1 n=a5 v=0
81779 On ch=1 n=d5 v=0
81779 On ch=1 n=c5 v=0
81780 On ch=1 n=f#5 v=100
81780 On ch=1 n=e5 v=100
81780 On ch=1 n=b4 v=100
81840 On ch=1 n=e7 v=100
81899 On ch=1 n=e7 v=0
81900 On ch=1 n=e6 v=100
81959 On ch=1 n=e6 v=0
81960 On ch=1 n=e6 v=100
82019 On ch=1 n=e6 v=0
82020 On ch=1 n=b6 v=100
82079 On ch=1 n=b6 v=0
82079 On ch=1 n=b4 v=0
82079 On ch=1 n=e5 v=0
82079 On ch=1 n=f#5 v=0
82080 On ch=1 n=a5 v=100
82080 On ch=1 n=d5 v=100
82080 On ch=1 n=b4 v=100
82080 On ch=1 n=b5 v=100
82139 On ch=1 n=b5 v=0
82139 On ch=1 n=a5 v=0
82139 On ch=1 n=d5 v=0
82139 On ch=1 n=b4 v=0
82140 On ch=1 n=f#5 v=100
82140 On ch=1 n=e5 v=100
82140 On ch=1 n=c5 v=100
82140 On ch=1 n=b5 v=100
82199 On ch=1 n=b5 v=0
82200 On ch=1 n=e6 v=100
82259 On ch=1 n=e6 v=0
82259 On ch=1 n=c5 v=0
82259 On ch=1 n=e5 v=0
82259 On ch=1 n=f#5 v=0
82260 On ch=1 n=g5 v=100
82260 On ch=1 n=c5 v=100
82260 On ch=1 n=a4 v=100
82260 On ch=1 n=e5 v=100
82319 On ch=1 n=e5 v=0
82319 On ch=1 n=g5 v=0
82319 On ch=1 n=c5 v=0
82319 On ch=1 n=a4 v=0
82320 On ch=1 n=e5 v=100
82320 On ch=1 n=d5 v=100
82320 On ch=1 n=b4 v=100
82320 On ch=1 n=e5 v=100
82379 On ch=1 n=e5 v=0
82380 On ch=1 n=b5 v=100
82439 On ch=1 n=b5 v=0
82439 On ch=1 n=b4 v=0
82439 On ch=1 n=d5 v=0
82439 On ch=1 n=e5 v=0
82440 On ch=1 n=g5 v=100
82440 On ch=1 n=c5 v=100
82440 On ch=1 n=g4 v=100
82499 On ch=1 n=g4 v=0
82499 On ch=1 n=c5 v=0
82499 On ch=1 n=g5 v=0
82500 On ch=1 n=e5 v=100
82500 On ch=1 n=d5 v=100
82500 On ch=1 n=b4 v=100
82560 On ch=1 n=e7 v=100
82619 On ch=1 n=e7 v=0
82620 On ch=1 n=e6 v=100
82679 On ch=1 n=e6 v=0
82680 On ch=1 n=e6 v=100
82739 On ch=1 n=e6 v=0
82740 On ch=1 n=b6 v=100
82799 On ch=1 n=b6 v=0
82799 On ch=1 n=b4 v=0
82799 On ch=1 n=d5 v=0
82799 On ch=1 n=e5 v=0
82800 On ch=1 n=b5 v=100
82800 On ch=1 n=g5 v=100
82800 On ch=1 n=c5 v=100
82800 On ch=1 n=a4 v=100
82859 On ch=1 n=a4 v=0
82859 On ch=1 n=b5 v=0
82859 On ch=1 n=g5 v=0
82859 On ch=1 n=c5 v=0
82860 On ch=1 n=b5 v=100
82860 On ch=1 n=e5 v=100
82860 On ch=1 n=d5 v=100
82860 On ch=1 n=b4 v=100
82919 On ch=1 n=b5 v=0
82920 On ch=1 n=e6 v=100
82979 On ch=1 n=e6 v=0
82979 On ch=1 n=b4 v=0
82979 On ch=1 n=d5 v=0
82979 On ch=1 n=e5 v=0
82980 On ch=1 n=e5 v=100
82980 On ch=1 n=f#5 v=100
82980 On ch=1 n=c5 v=100
82980 On ch=1 n=a4 v=100
83039 On ch=1 n=a4 v=0
83039 On ch=1 n=e5 v=0
83039 On ch=1 n=f#5 v=0
83039 On ch=1 n=c5 v=0
83040 On ch=1 n=d#5 v=100
83040 On ch=1 n=a4 v=100
83099 On ch=1 n=d#5 v=0
83100 On ch=1 n=e6 v=100
83159 On ch=1 n=e6 v=0
83159 On ch=1 n=a4 v=0
83160 On ch=1 n=e5 v=100
83160 On ch=1 n=b4 v=100
83219 On ch=1 n=b4 v=0
83219 On ch=1 n=e5 v=0
83220 On ch=1 n=f#5 v=100
83220 On ch=1 n=d#5 v=100
83220 On ch=1 n=a#4 v=100
83220 On ch=1 n=g4 v=100
83259 On ch=1 n=d#5 v=0
83259 On ch=1 n=f#5 v=0
83260 On ch=1 n=g5 v=100
83260 On ch=1 n=e5 v=100
83299 On ch=1 n=e5 v=0
83299 On ch=1 n=g5 v=0
83300 On ch=1 n=f#5 v=100
83300 On ch=1 n=a#5 v=100
83339 On ch=1 n=a#5 v=0
83339 On ch=1 n=f#5 v=0
83340 On ch=1 n=a5 v=100
83340 On ch=1 n=d#6 v=100
83340 On ch=1 n=g5 v=100
83370 On ch=1 n=e6 v=100
83379 On ch=1 n=g5 v=0
83379 On ch=1 n=d#6 v=0
83399 On ch=1 n=a#4 v=0
83399 On ch=1 n=g4 v=0
83400 On ch=1 n=f#6 v=100
83409 On ch=1 n=e6 v=0
83519 On ch=1 n=f#6 v=0
83519 On ch=1 n=a5 v=0
83520 On ch=1 n=b5 v=100
83520 On ch=1 n=f#5 v=100
83579 On ch=1 n=f#5 v=0
83580 On ch=1 n=g5 v=100
83639 On ch=1 n=g5 v=0
83640 On ch=1 n=a5 v=100
83699 On ch=1 n=a5 v=0
83699 On ch=1 n=b5 v=0
83700 On ch=1 n=f#6 v=100
83700 On ch=1 n=a#5 v=100
83759 On ch=1 n=a#5 v=0
83759 On ch=1 n=f#6 v=0
83760 On ch=1 n=g6 v=100
83760 On ch=1 n=b5 v=100
83819 On ch=1 n=b5 v=0
83819 On ch=1 n=g6 v=0
83820 On ch=1 n=a6 v=100
83820 On ch=1 n=c6 v=100
83879 On ch=1 n=c6 v=0
83879 On ch=1 n=a6 v=0
83880 On ch=1 n=g5 v=100
83880 On ch=1 n=d6 v=100
83880 On ch=1 n=g6 v=100
83939 On ch=1 n=g6 v=0
83939 On ch=1 n=d6 v=0
83939 On ch=1 n=g5 v=0
83940 On ch=1 n=e6 v=100
83940 On ch=1 n=g6 v=100
83940 On ch=1 n=g5 v=100
83999 On ch=1 n=g5 v=0
83999 On ch=1 n=g6 v=0
83999 On ch=1 n=e6 v=0
84000 On ch=1 n=b6 v=100
84000 On ch=1 n=b5 v=100
84059 On ch=1 n=b5 v=0
84059 On ch=1 n=b6 v=0
84060 On ch=1 n=f#6 v=100
84060 On ch=1 n=d6 v=100
84060 On ch=1 n=f#5 v=100
84119 On ch=1 n=f#5 v=0
84119 On ch=1 n=d6 v=0
84119 On ch=1 n=f#6 v=0
84120 On ch=1 n=f#5 v=100
84120 On ch=1 n=d6 v=100
84120 On ch=1 n=f#6 v=100
84179 On ch=1 n=f#6 v=0
84179 On ch=1 n=d6 v=0
84179 On ch=1 n=f#5 v=0
84180 On ch=1 n=b6 v=100
84180 On ch=1 n=b5 v=100
84239 On ch=1 n=b5 v=0
84239 On ch=1 n=b6 v=0
84240 On ch=1 n=e6 v=100
84240 On ch=1 n=c6 v=100
84240 On ch=1 n=e5 v=100
84299 On ch=1 n=e5 v=0
84299 On ch=1 n=c6 v=0
84299 On ch=1 n=e6 v=0
84300 On ch=1 n=e5 v=100
84300 On ch=1 n=c6 v=100
84300 On ch=1 n=e6 v=100
84359 On ch=1 n=e6 v=0
84359 On ch=1 n=c6 v=0
84359 On ch=1 n=e5 v=0
84360 On ch=1 n=b6 v=100
84360 On ch=1 n=b5 v=100
84419 On ch=1 n=b5 v=0
84419 On ch=1 n=b6 v=0
84420 On ch=1 n=d6 v=100
84420 On ch=1 n=d5 v=100
84479 On ch=1 n=d5 v=0
84479 On ch=1 n=d6 v=0
84480 On ch=1 n=e6 v=100
84480 On ch=1 n=c6 v=100
84480 On ch=1 n=e5 v=100
84539 On ch=1 n=e5 v=0
84539 On ch=1 n=c6 v=0
84539 On ch=1 n=e6 v=0
84540 On ch=1 n=a5 v=100
84540 On ch=1 n=a6 v=100
84599 On ch=1 n=a6 v=0
84599 On ch=1 n=a5 v=0
84600 On ch=1 n=f#6 v=100
84600 On ch=1 n=d6 v=100
84659 On ch=1 n=d6 v=0
84659 On ch=1 n=f#6 v=0
84660 On ch=1 n=f#5 v=100
84660 On ch=1 n=d6 v=100
84660 On ch=1 n=f#6 v=100
84719 On ch=1 n=f#6 v=0
84719 On ch=1 n=d6 v=0
84719 On ch=1 n=f#5 v=0
84720 On ch=1 n=b6 v=100
84720 On ch=1 n=b5 v=100
84779 On ch=1 n=b5 v=0
84779 On ch=1 n=b6 v=0
84780 On ch=1 n=e5 v=100
84780 On ch=1 n=c6 v=100
84780 On ch=1 n=e6 v=100
84839 On ch=1 n=e6 v=0
84839 On ch=1 n=c6 v=0
84839 On ch=1 n=e5 v=0
84840 On ch=1 n=e6 v=100
84840 On ch=1 n=c6 v=100
84840 On ch=1 n=e5 v=100
84899 On ch=1 n=e5 v=0
84899 On ch=1 n=c6 v=0
84899 On ch=1 n=e6 v=0
84900 On ch=1 n=b6 v=100
84900 On ch=1 n=b5 v=100
84959 On ch=1 n=b5 v=0
84959 On ch=1 n=b6 v=0
84960 On ch=1 n=d5 v=100
84960 On ch=1 n=b5 v=100
84960 On ch=1 n=d6 v=100
85019 On ch=1 n=d6 v=0
85019 On ch=1 n=b5 v=0
85019 On ch=1 n=d5 v=0
85020 On ch=1 n=d6 v=100
85020 On ch=1 n=b5 v=100
85020 On ch=1 n=d5 v=100
85079 On ch=1 n=d5 v=0
85079 On ch=1 n=b5 v=0
85079 On ch=1 n=d6 v=0
85080 On ch=1 n=b5 v=100
85080 On ch=1 n=b6 v=100
85139 On ch=1 n=b6 v=0
85139 On ch=1 n=b5 v=0
85140 On ch=1 n=c5 v=100
85140 On ch=1 n=c6 v=100
85199 On ch=1 n=c6 v=0
85199 On ch=1 n=c5 v=0
85200 On ch=1 n=d6 v=100
85200 On ch=1 n=b5 v=100
85200 On ch=1 n=d5 v=100
85259 On ch=1 n=d5 v=0
85259 On ch=1 n=b5 v=0
85259 On ch=1 n=d6 v=0
85260 On ch=1 n=a6 v=100
85260 On ch=1 n=a5 v=100
85319 On ch=1 n=a5 v=0
85319 On ch=1 n=a6 v=0
85320 On ch=1 n=e6 v=100
85320 On ch=1 n=c6 v=100
85379 On ch=1 n=c6 v=0
85379 On ch=1 n=e6 v=0
85380 On ch=1 n=e6 v=100
85380 On ch=1 n=c6 v=100
85380 On ch=1 n=c5 v=100
85439 On ch=1 n=c5 v=0
85439 On ch=1 n=c6 v=0
85439 On ch=1 n=e6 v=0
85440 On ch=1 n=b6 v=100
85440 On ch=1 n=b5 v=100
85499 On ch=1 n=b5 v=0
85499 On ch=1 n=b6 v=0
85500 On ch=1 n=d6 v=100
85500 On ch=1 n=b5 v=100
85500 On ch=1 n=d5 v=100
85559 On ch=1 n=d5 v=0
85559 On ch=1 n=b5 v=0
85559 On ch=1 n=d6 v=0
85560 On ch=1 n=d5 v=100
85560 On ch=1 n=b5 v=100
85560 On ch=1 n=d6 v=100
85619 On ch=1 n=d6 v=0
85619 On ch=1 n=b5 v=0
85619 On ch=1 n=d5 v=0
85620 On ch=1 n=b6 v=100
85620 On ch=1 n=b5 v=100
85679 On ch=1 n=b5 v=0
85679 On ch=1 n=b6 v=0
85680 On ch=1 n=c5 v=100
85680 On ch=1 n=c6 v=100
85680 On ch=1 n=a5 v=100
85739 On ch=1 n=a5 v=0
85739 On ch=1 n=c6 v=0
85739 On ch=1 n=c5 v=0
85740 On ch=1 n=c6 v=100
85740 On ch=1 n=a5 v=100
85740 On ch=1 n=c5 v=100
85799 On ch=1 n=c5 v=0
85799 On ch=1 n=a5 v=0
85799 On ch=1 n=c6 v=0
85800 On ch=1 n=e6 v=100
85800 On ch=1 n=e5 v=100
85859 On ch=1 n=e5 v=0
85859 On ch=1 n=e6 v=0
85860 On ch=1 n=b5 v=100
85860 On ch=1 n=b4 v=100
85919 On ch=1 n=b4 v=0
85919 On ch=1 n=b5 v=0
85920 On ch=1 n=c#6 v=100
85920 On ch=1 n=a5 v=100
85920 On ch=1 n=c#5 v=100
85979 On ch=1 n=c#5 v=0
85979 On ch=1 n=a5 v=0
85979 On ch=1 n=c#6 v=0
85980 On ch=1 n=f#6 v=100
85980 On ch=1 n=f#5 v=100
86039 On ch=1 n=f#5 v=0
86039 On ch=1 n=f#6 v=0
86040 On ch=1 n=d#6 v=100
86040 On ch=1 n=a5 v=100
86099 On ch=1 n=a5 v=0
86099 On ch=1 n=d#6 v=0
86100 On ch=1 n=d#6 v=100
86100 On ch=1 n=a5 v=100
86159 On ch=1 n=a5 v=0
86159 On ch=1 n=d#6 v=0
86160 On ch=1 n=g6 v=100
86160 On ch=1 n=g5 v=100
86219 On ch=1 n=g5 v=0
86219 On ch=1 n=g6 v=0
86220 On ch=1 n=e6 v=100
86220 On ch=1 n=b5 v=100
86279 On ch=1 n=b5 v=0
86279 On ch=1 n=e6 v=0
86280 On ch=1 n=d#6 v=100
86280 On ch=1 n=f#6 v=100
86280 On ch=1 n=f#5 v=100
86339 On ch=1 n=f#5 v=0
86339 On ch=1 n=f#6 v=0
86339 On ch=1 n=d#6 v=0
86340 On ch=1 n=b6 v=100
86340 On ch=1 n=b5 v=100
86399 On ch=1 n=b5 v=0
86399 On ch=1 n=b6 v=0
86400 On ch=1 n=g6 v=100
86400 On ch=1 n=e6 v=100
86400 On ch=1 n=g5 v=100
86459 On ch=1 n=g5 v=0
86459 On ch=1 n=e6 v=0
86459 On ch=1 n=g6 v=0
86460 On ch=1 n=a6 v=100
86460 On ch=1 n=f#6 v=100
86460 On ch=1 n=a5 v=100
86519 On ch=1 n=a5 v=0
86519 On ch=1 n=f#6 v=0
86519 On ch=1 n=a6 v=0
86520 On ch=1 n=d7 v=100
86520 On ch=1 n=d6 v=100
86579 On ch=1 n=d6 v=0
86579 On ch=1 n=d7 v=0
86580 On ch=1 n=b6 v=100
86580 On ch=1 n=g6 v=100
86580 On ch=1 n=b5 v=100
86639 On ch=1 n=b5 v=0
86639 On ch=1 n=g6 v=0
86639 On ch=1 n=b6 v=0
86640 On ch=1 n=a6 v=100
86640 On ch=1 n=f#6 v=100
86640 On ch=1 n=a5 v=100
86699 On ch=1 n=a5 v=0
86699 On ch=1 n=f#6 v=0
86699 On ch=1 n=a6 v=0
86700 On ch=1 n=e7 v=100
86700 On ch=1 n=e6 v=100
86759 On ch=1 n=e6 v=0
86759 On ch=1 n=e7 v=0
86760 On ch=1 n=b6 v=100
86760 On ch=1 n=g6 v=100
86760 On ch=1 n=b5 v=100
86939 On ch=1 n=b5 v=0
86939 On ch=1 n=g6 v=0
86939 On ch=1 n=b6 v=0
86940 On ch=1 n=c7 v=100
86940 On ch=1 n=a6 v=100
86940 On ch=1 n=c6 v=100
87119 On ch=1 n=c6 v=0
87119 On ch=1 n=a6 v=0
87119 On ch=1 n=c7 v=0
87120 On ch=1 n=b6 v=100
87120 On ch=1 n=d7 v=100
87120 On ch=1 n=d6 v=100
87179 On ch=1 n=d6 v=0
87179 On ch=1 n=d7 v=0
87179 On ch=1 n=b6 v=0
87180 On ch=1 n=c7 v=100
87180 On ch=1 n=e7 v=100
87180 On ch=1 n=e6 v=100
87239 On ch=1 n=e6 v=0
87239 On ch=1 n=e7 v=0
87239 On ch=1 n=c7 v=0
87240 On ch=1 n=f#7 v=100
87240 On ch=1 n=d7 v=100
87240 On ch=1 n=f#6 v=100
87299 On ch=1 n=f#6 v=0
87299 On ch=1 n=d7 v=0
87299 On ch=1 n=f#7 v=0
87300 On ch=1 n=g7 v=100
87300 On ch=1 n=e7 v=100
87300 On ch=1 n=g6 v=100
87359 On ch=1 n=g6 v=0
87359 On ch=1 n=e7 v=0
87359 On ch=1 n=g7 v=0
87360 On ch=1 n=a7 v=100
87360 On ch=1 n=f#7 v=100
87360 On ch=1 n=a6 v=100
87419 On ch=1 n=a6 v=0
87419 On ch=1 n=f#7 v=0
87419 On ch=1 n=a7 v=0
87420 On ch=1 n=b7 v=100
87420 On ch=1 n=g7 v=100
87420 On ch=1 n=b6 v=100
87479 On ch=1 n=b6 v=0
87479 On ch=1 n=g7 v=0
87479 On ch=1 n=b7 v=0
87480 On ch=1 n=a6 v=100
87480 On ch=1 n=f#6 v=100
87480 On ch=1 n=d6 v=100
87480 On ch=1 n=a5 v=100
87659 On ch=1 n=a5 v=0
87659 On ch=1 n=a6 v=0
87659 On ch=1 n=f#6 v=0
87659 On ch=1 n=d6 v=0
87660 On ch=1 n=b6 v=100
87660 On ch=1 n=g6 v=100
87660 On ch=1 n=b5 v=100
87839 On ch=1 n=b5 v=0
87839 On ch=1 n=g6 v=0
87839 On ch=1 n=b6 v=0
87840 On ch=1 n=c7 v=100
87840 On ch=1 n=a6 v=100
87840 On ch=1 n=c6 v=100
87899 On ch=1 n=c6 v=0
87899 On ch=1 n=a6 v=0
87899 On ch=1 n=c7 v=0
87900 On ch=1 n=d7 v=100
87900 On ch=1 n=b6 v=100
87900 On ch=1 n=d6 v=100
87959 On ch=1 n=d6 v=0
87959 On ch=1 n=b6 v=0
87959 On ch=1 n=d7 v=0
87960 On ch=1 n=e7 v=100
87960 On ch=1 n=c7 v=100
87960 On ch=1 n=e6 v=100
88019 On ch=1 n=e6 v=0
88019 On ch=1 n=c7 v=0
88019 On ch=1 n=e7 v=0
88020 On ch=1 n=f#7 v=100
88020 On ch=1 n=d7 v=100
88020 On ch=1 n=f#6 v=100
88079 On ch=1 n=f#6 v=0
88079 On ch=1 n=d7 v=0
88079 On ch=1 n=f#7 v=0
88080 On ch=1 n=g7 v=100
88080 On ch=1 n=e7 v=100
88080 On ch=1 n=g6 v=100
88139 On ch=1 n=g6 v=0
88139 On ch=1 n=e7 v=0
88139 On ch=1 n=g7 v=0
88140 On ch=1 n=a7 v=100
88140 On ch=1 n=f#7 v=100
88140 On ch=1 n=a6 v=100
88199 On ch=1 n=a6 v=0
88199 On ch=1 n=f#7 v=0
88199 On ch=1 n=a7 v=0
88200 On ch=1 n=g6 v=100
88200 On ch=1 n=e6 v=100
88200 On ch=1 n=c6 v=100
88200 On ch=1 n=g5 v=100
88379 On ch=1 n=g5 v=0
88379 On ch=1 n=g6 v=0
88379 On ch=1 n=e6 v=0
88379 On ch=1 n=c6 v=0
88380 On ch=1 n=f#6 v=100
88380 On ch=1 n=a6 v=100
88380 On ch=1 n=a5 v=100
88559 On ch=1 n=a5 v=0
88559 On ch=1 n=a6 v=0
88559 On ch=1 n=f#6 v=0
88560 On ch=1 n=b6 v=100
88560 On ch=1 n=g6 v=100
88560 On ch=1 n=b5 v=100
88619 On ch=1 n=b5 v=0
88619 On ch=1 n=g6 v=0
88619 On ch=1 n=b6 v=0
88620 On ch=1 n=c7 v=100
88620 On ch=1 n=a6 v=100
88620 On ch=1 n=c6 v=100
88679 On ch=1 n=c6 v=0
88679 On ch=1 n=a6 v=0
88679 On ch=1 n=c7 v=0
88680 On ch=1 n=d7 v=100
88680 On ch=1 n=b6 v=100
88680 On ch=1 n=d6 v=100
88739 On ch=1 n=d6 v=0
88739 On ch=1 n=b6 v=0
88739 On ch=1 n=d7 v=0
88740 On ch=1 n=e7 v=100
88740 On ch=1 n=c7 v=100
88740 On ch=1 n=e6 v=100
88799 On ch=1 n=e6 v=0
88799 On ch=1 n=c7 v=0
88799 On ch=1 n=e7 v=0
88800 On ch=1 n=f#7 v=100
88800 On ch=1 n=d#7 v=100
88800 On ch=1 n=f#6 v=100
88859 On ch=1 n=f#6 v=0
88859 On ch=1 n=d#7 v=0
88859 On ch=1 n=f#7 v=0
88860 On ch=1 n=g7 v=100
88860 On ch=1 n=e7 v=100
88860 On ch=1 n=g6 v=100
88949 On ch=1 n=g6 v=0
88949 On ch=1 n=e7 v=0
88949 On ch=1 n=g7 v=0
88950 On ch=1 n=b5 v=100
88950 On ch=1 n=b6 v=100
88979 On ch=1 n=b6 v=0
88979 On ch=1 n=b5 v=0
88980 On ch=1 n=e6 v=100
88980 On ch=1 n=b6 v=100
88980 On ch=1 n=b5 v=100
89099 On ch=1 n=b5 v=0
89099 On ch=1 n=b6 v=0
89099 On ch=1 n=e6 v=0
89100 On ch=1 n=e7 v=100
89100 On ch=1 n=b6 v=100
89100 On ch=1 n=e6 v=100
89279 On ch=1 n=e6 v=0
89279 On ch=1 n=b6 v=0
89279 On ch=1 n=e7 v=0
89280 On ch=1 n=b6 v=100
89280 On ch=1 n=e6 v=100
89280 On ch=1 n=b5 v=100
89459 On ch=1 n=b5 v=0
89459 On ch=1 n=e6 v=0
89459 On ch=1 n=b6 v=0
89460 On ch=1 n=e5 v=100
89460 On ch=1 n=b5 v=100
89460 On ch=1 n=e6 v=100
89639 On ch=1 n=e6 v=0
89639 On ch=1 n=b5 v=0
89639 On ch=1 n=e5 v=0
90120 On ch=1 n=g5 v=100
90179 On ch=1 n=g5 v=0
90180 On ch=1 n=f#5 v=100
90239 On ch=1 n=f#5 v=0
90240 On ch=1 n=f5 v=100
90299 On ch=1 n=f5 v=0
90300 On ch=1 n=e5 v=100
90359 On ch=1 n=e5 v=0
90360 On ch=1 n=g4 v=100
90419 On ch=1 n=g4 v=0
90660 On ch=1 n=e5 v=100
90719 On ch=1 n=e5 v=0
90720 On ch=1 n=g4 v=100
90779 On ch=1 n=g4 v=0
90840 On ch=1 n=d6 v=100
90899 On ch=1 n=d6 v=0
90900 On ch=1 n=c#6 v=100
90959 On ch=1 n=c#6 v=0
90960 On ch=1 n=c6 v=100
91019 On ch=1 n=c6 v=0
91020 On ch=1 n=b5 v=100
91079 On ch=1 n=b5 v=0
91080 On ch=1 n=d5 v=100
91139 On ch=1 n=d5 v=0
91170 On ch=1 n=f6 v=100
91199 On ch=1 n=f6 v=0
91200 On ch=1 n=e6 v=100
91229 On ch=1 n=e6 v=0
91230 On ch=1 n=d#6 v=100
91259 On ch=1 n=d#6 v=0
91260 On ch=1 n=c#6 v=100
91289 On ch=1 n=c#6 v=0
91290 On ch=1 n=a#5 v=100
91319 On ch=1 n=a#5 v=0
91320 On ch=1 n=f5 v=100
91349 On ch=1 n=f5 v=0
91350 On ch=1 n=e5 v=100
91379 On ch=1 n=e5 v=0
91380 On ch=1 n=d#5 v=100
91409 On ch=1 n=d#5 v=0
91410 On ch=1 n=c#5 v=100
91439 On ch=1 n=c#5 v=0
91440 On ch=1 n=a#4 v=100
91469 On ch=1 n=a#4 v=0
91470 On ch=1 n=f4 v=100
91499 On ch=1 n=f4 v=0
91540 On ch=1 n=a#4 v=100
91540 On ch=1 n=c#5 v=100
91540 On ch=1 n=f5 v=100
91599 On ch=1 n=f5 v=0
91599 On ch=1 n=c#5 v=0
91599 On ch=1 n=a#4 v=0
91600 On ch=1 n=c5 v=100
91600 On ch=1 n=c#5 v=100
91600 On ch=1 n=f5 v=100
91600 On ch=1 n=a5 v=100
91659 On ch=1 n=a5 v=0
91659 On ch=1 n=c5 v=0
91659 On ch=1 n=c#5 v=0
91659 On ch=1 n=f5 v=0
91660 On ch=1 n=a#4 v=100
91660 On ch=1 n=c#5 v=100
91660 On ch=1 n=f5 v=100
91719 On ch=1 n=f5 v=0
91719 On ch=1 n=c#5 v=0
91719 On ch=1 n=a#4 v=0
91720 On ch=1 n=c5 v=100
91720 On ch=1 n=c#5 v=100
91720 On ch=1 n=f5 v=100
91720 On ch=1 n=g#5 v=100
91779 On ch=1 n=g#5 v=0
91779 On ch=1 n=c5 v=0
91779 On ch=1 n=c#5 v=0
91779 On ch=1 n=f5 v=0
91780 On ch=1 n=a#4 v=100
91780 On ch=1 n=c#5 v=100
91780 On ch=1 n=f5 v=100
91839 On ch=1 n=f5 v=0
91839 On ch=1 n=c#5 v=0
91839 On ch=1 n=a#4 v=0
91840 On ch=1 n=g5 v=100
91840 On ch=1 n=c5 v=100
91840 On ch=1 n=c#5 v=100
91840 On ch=1 n=f5 v=100
91899 On ch=1 n=f5 v=0
91899 On ch=1 n=g5 v=0
91899 On ch=1 n=c5 v=0
91899 On ch=1 n=c#5 v=0
91900 On ch=1 n=f5 v=100
91900 On ch=1 n=c#5 v=100
91900 On ch=1 n=a#4 v=100
91959 On ch=1 n=a#4 v=0
91959 On ch=1 n=c#5 v=0
91959 On ch=1 n=f5 v=0
91960 On ch=1 n=a#4 v=100
91960 On ch=1 n=f#4 v=100
91960 On ch=1 n=c#5 v=100
91960 On ch=1 n=f#5 v=100
92099 On ch=1 n=f#5 v=0
92099 On ch=1 n=a#4 v=0
92099 On ch=1 n=f#4 v=0
92099 On ch=1 n=c#5 v=0
92400 On ch=1 n=c5 v=100
92459 On ch=1 n=c5 v=0
92460 On ch=1 n=b4 v=100
92519 On ch=1 n=b4 v=0
92520 On ch=1 n=a#4 v=100
92579 On ch=1 n=a#4 v=0
92580 On ch=1 n=f#4 v=100
92639 On ch=1 n=f#4 v=0
92640 On ch=1 n=c#4 v=100
92699 On ch=1 n=c#4 v=0
92940 On ch=1 n=a#5 v=100
92999 On ch=1 n=a#5 v=0
93000 On ch=1 n=g#5 v=100
93059 On ch=1 n=g#5 v=0
93120 On ch=1 n=f#6 v=100
93179 On ch=1 n=f#6 v=0
93180 On ch=1 n=f6 v=100
93239 On ch=1 n=f6 v=0
93240 On ch=1 n=e6 v=100
93299 On ch=1 n=e6 v=0
93300 On ch=1 n=d#6 v=100
93359 On ch=1 n=d#6 v=0
93360 On ch=1 n=c#5 v=100
93419 On ch=1 n=c#5 v=0
93450 On ch=1 n=e7 v=100
93479 On ch=1 n=e7 v=0
93480 On ch=1 n=d#7 v=100
93509 On ch=1 n=d#7 v=0
93510 On ch=1 n=d7 v=100
93539 On ch=1 n=d7 v=0
93540 On ch=1 n=c#7 v=100
93569 On ch=1 n=c#7 v=0
93570 On ch=1 n=c7 v=100
93599 On ch=1 n=c7 v=0
93600 On ch=1 n=a6 v=100
93629 On ch=1 n=a6 v=0
93630 On ch=1 n=e6 v=100
93689 On ch=1 n=e6 v=0
93690 On ch=1 n=d#6 v=100
93719 On ch=1 n=d#6 v=0
93720 On ch=1 n=d6 v=100
93749 On ch=1 n=d6 v=0
93750 On ch=1 n=c#6 v=100
93779 On ch=1 n=c#6 v=0
93780 On ch=1 n=c6 v=100
93809 On ch=1 n=c6 v=0
93810 On ch=1 n=a5 v=100
93839 On ch=1 n=a5 v=0
93840 On ch=1 n=e5 v=100
93869 On ch=1 n=e5 v=0
93870 On ch=1 n=d#5 v=100
93899 On ch=1 n=d#5 v=0
93900 On ch=1 n=d5 v=100
93929 On ch=1 n=d5 v=0
93930 On ch=1 n=c5 v=100
93959 On ch=1 n=c5 v=0
94180 On ch=1 n=c6 v=100
94219 On ch=1 n=c6 v=0
94220 On ch=1 n=b5 v=100
94259 On ch=1 n=b5 v=0
94260 On ch=1 n=a#5 v=100
94299 On ch=1 n=a#5 v=0
94300 On ch=1 n=a5 v=100
94339 On ch=1 n=a5 v=0
94340 On ch=1 n=c5 v=100
94379 On ch=1 n=c5 v=0
94440 On ch=1 n=d#6 v=100
94499 On ch=1 n=d#6 v=0
94500 On ch=1 n=d6 v=100
94559 On ch=1 n=d6 v=0
94560 On ch=1 n=c#6 v=100
94619 On ch=1 n=c#6 v=0
94620 On ch=1 n=b5 v=100
94659 On ch=1 n=b5 v=0
94660 On ch=1 n=b4 v=100
94660 On ch=1 n=g#5 v=100
94699 On ch=1 n=g#5 v=0
94699 On ch=1 n=b4 v=0
94700 On ch=1 n=a5 v=100
94700 On ch=1 n=c5 v=100
94739 On ch=1 n=c5 v=0
94739 On ch=1 n=a5 v=0
94740 On ch=1 n=a#5 v=100
94740 On ch=1 n=c#5 v=100
94740 On ch=1 n=e5 v=100
94799 On ch=1 n=a#5 v=0
94800 On ch=1 n=f#6 v=100
94919 On ch=1 n=f#6 v=0
94920 On ch=1 n=f6 v=100
94979 On ch=1 n=f6 v=0
94979 On ch=1 n=e5 v=0
94979 On ch=1 n=c#5 v=0
94980 On ch=1 n=e6 v=100
95019 On ch=1 n=e6 v=0
95020 On ch=1 n=g5 v=100
95020 On ch=1 n=b5 v=100
95059 On ch=1 n=b5 v=0
95059 On ch=1 n=g5 v=0
95060 On ch=1 n=c6 v=100
95060 On ch=1 n=g#5 v=100
95099 On ch=1 n=g#5 v=0
95099 On ch=1 n=c6 v=0
95100 On ch=1 n=c#6 v=100
95140 On ch=1 n=a5 v=100
95179 On ch=1 n=a5 v=0
95179 On ch=1 n=c#6 v=0
95180 On ch=1 n=c6 v=100
95180 On ch=1 n=a6 v=100
95219 On ch=1 n=c6 v=0
95220 On ch=1 n=c#6 v=100
95259 On ch=1 n=a6 v=0
95260 On ch=1 n=g#6 v=100
95299 On ch=1 n=g#6 v=0
95299 On ch=1 n=c#6 v=0
95300 On ch=1 n=c6 v=100
95300 On ch=1 n=f#6 v=100
95339 On ch=1 n=f#6 v=0
95339 On ch=1 n=c6 v=0
95340 On ch=1 n=f6 v=100
95380 On ch=1 n=c#6 v=100
95419 On ch=1 n=c#6 v=0
95419 On ch=1 n=f6 v=0
95420 On ch=1 n=e6 v=100
95420 On ch=1 n=c#7 v=100
95459 On ch=1 n=e6 v=0
95460 On ch=1 n=f6 v=100
95499 On ch=1 n=f6 v=0
95499 On ch=1 n=c#7 v=0
95500 On ch=1 n=c6 v=100
95500 On ch=1 n=c7 v=100
95539 On ch=1 n=c7 v=0
95539 On ch=1 n=c6 v=0
95540 On ch=1 n=b5 v=100
95540 On ch=1 n=b6 v=100
95579 On ch=1 n=b6 v=0
95579 On ch=1 n=b5 v=0
95580 On ch=1 n=a#6 v=100
95580 On ch=1 n=d#6 v=100
95580 On ch=1 n=a#5 v=100
95639 On ch=1 n=a#5 v=0
95639 On ch=1 n=d#6 v=0
95639 On ch=1 n=a#6 v=0
95640 On ch=1 n=d#7 v=100
95640 On ch=1 n=c#7 v=100
95640 On ch=1 n=d#6 v=100
95699 On ch=1 n=d#6 v=0
95699 On ch=1 n=c#7 v=0
95699 On ch=1 n=d#7 v=0
95700 On ch=1 n=d7 v=100
95700 On ch=1 n=b6 v=100
95700 On ch=1 n=d6 v=100
95759 On ch=1 n=d6 v=0
95759 On ch=1 n=b6 v=0
95759 On ch=1 n=d7 v=0
95760 On ch=1 n=a#6 v=100
95760 On ch=1 n=c#6 v=100
95760 On ch=1 n=c#7 v=100
95819 On ch=1 n=c#7 v=0
95819 On ch=1 n=c#6 v=0
95819 On ch=1 n=a#6 v=0
95820 On ch=1 n=d6 v=100
95820 On ch=1 n=e6 v=100
95859 On ch=1 n=d6 v=0
95860 On ch=1 n=c#6 v=100
95899 On ch=1 n=c#6 v=0
95900 On ch=1 n=c6 v=100
95939 On ch=1 n=c6 v=0
95939 On ch=1 n=e6 v=0
95940 On ch=1 n=d6 v=100
95940 On ch=1 n=c6 v=100
95999 On ch=1 n=c6 v=0
96000 On ch=1 n=b5 v=100
96059 On ch=1 n=b5 v=0
96060 On ch=1 n=a#5 v=100
96119 On ch=1 n=a#5 v=0
96120 On ch=1 n=g5 v=100
96179 On ch=1 n=g5 v=0
96179 On ch=1 n=d6 v=0
96180 On ch=1 n=d5 v=100
96180 On ch=1 n=c5 v=100
96219 On ch=1 n=c5 v=0
96220 On ch=1 n=b4 v=100
96259 On ch=1 n=b4 v=0
96260 On ch=1 n=a#4 v=100
96299 On ch=1 n=a#4 v=0
96299 On ch=1 n=d5 v=0
96300 On ch=1 n=c#5 v=100
96300 On ch=1 n=a#4 v=100
96360 On ch=1 n=c#6 v=100
96360 On ch=1 n=c#7 v=100
96419 On ch=1 n=c#7 v=0
96420 On ch=1 n=c7 v=100
96479 On ch=1 n=c7 v=0
96480 On ch=1 n=b6 v=100
96539 On ch=1 n=b6 v=0
96539 On ch=1 n=c#5 v=0
96539 On ch=1 n=a#4 v=0
96539 On ch=1 n=c#6 v=0
96540 On ch=1 n=c#6 v=100
96540 On ch=1 n=a#6 v=100
96579 On ch=1 n=c#6 v=0
96580 On ch=1 n=c6 v=100
96619 On ch=1 n=c6 v=0
96619 On ch=1 n=a#6 v=0
96620 On ch=1 n=c#6 v=100
96620 On ch=1 n=b5 v=100
96659 On ch=1 n=b5 v=0
96659 On ch=1 n=c#6 v=0
96660 On ch=1 n=c#5 v=100
96660 On ch=1 n=b4 v=100
96719 On ch=1 n=b4 v=0
96720 On ch=1 n=a#4 v=100
96779 On ch=1 n=a#4 v=0
96780 On ch=1 n=a4 v=100
96839 On ch=1 n=a4 v=0
96840 On ch=1 n=g#4 v=100
96899 On ch=1 n=g#4 v=0
96899 On ch=1 n=c#5 v=0
96900 On ch=1 n=c#5 v=100
96900 On ch=1 n=f#4 v=100
96939 On ch=1 n=f#4 v=0
96939 On ch=1 n=c#5 v=0
96940 On ch=1 n=a3 v=100
96940 On ch=1 n=c#4 v=100
96979 On ch=1 n=a3 v=0
96980 On ch=1 n=g#3 v=100
97019 On ch=1 n=g#3 v=0
97019 On ch=1 n=c#4 v=0
97020 On ch=1 n=c5 v=100
97020 On ch=1 n=g4 v=100
97059 On ch=1 n=g4 v=0
97059 On ch=1 n=c5 v=0
97060 On ch=1 n=b4 v=100
97099 On ch=1 n=b4 v=0
97100 On ch=1 n=a4 v=100
97139 On ch=1 n=a4 v=0
97140 On ch=1 n=g4 v=100
97179 On ch=1 n=g4 v=0
97180 On ch=1 n=e4 v=100
97219 On ch=1 n=e4 v=0
97220 On ch=1 n=b3 v=100
97259 On ch=1 n=b3 v=0
97300 On ch=1 n=b4 v=100
97339 On ch=1 n=b4 v=0
97340 On ch=1 n=a4 v=100
97379 On ch=1 n=a4 v=0
97380 On ch=1 n=g4 v=100
97419 On ch=1 n=g4 v=0
97420 On ch=1 n=e4 v=100
97459 On ch=1 n=e4 v=0
97460 On ch=1 n=b3 v=100
97499 On ch=1 n=b3 v=0
97530 On ch=1 n=b4 v=100
97559 On ch=1 n=b4 v=0
97560 On ch=1 n=a4 v=100
97589 On ch=1 n=a4 v=0
97590 On ch=1 n=g#4 v=100
97619 On ch=1 n=g#4 v=0
97620 On ch=1 n=g4 v=100
97659 On ch=1 n=g4 v=0
97660 On ch=1 n=e4 v=100
97699 On ch=1 n=e4 v=0
97700 On ch=1 n=a#3 v=100
97739 On ch=1 n=a#3 v=0
97780 On ch=1 n=c#5 v=100
97819 On ch=1 n=c#5 v=0
97820 On ch=1 n=a4 v=100
97859 On ch=1 n=a4 v=0
97860 On ch=1 n=g4 v=100
97899 On ch=1 n=g4 v=0
97900 On ch=1 n=e4 v=100
97939 On ch=1 n=e4 v=0
97940 On ch=1 n=a#3 v=100
97979 On ch=1 n=a#3 v=0
98010 On ch=1 n=c#5 v=100
98039 On ch=1 n=c#5 v=0
98040 On ch=1 n=a4 v=100
98069 On ch=1 n=a4 v=0
98070 On ch=1 n=g#4 v=100
98099 On ch=1 n=g#4 v=0
98100 On ch=1 n=g4 v=100
98139 On ch=1 n=g4 v=0
98140 On ch=1 n=e4 v=100
98179 On ch=1 n=e4 v=0
98180 On ch=1 n=a3 v=100
98219 On ch=1 n=a3 v=0
98220 On ch=1 n=d5 v=100
98249 On ch=1 n=d5 v=0
98250 On ch=1 n=c5 v=100
98279 On ch=1 n=c5 v=0
98280 On ch=1 n=b4 v=100
98309 On ch=1 n=b4 v=0
98310 On ch=1 n=g4 v=100
98339 On ch=1 n=g4 v=0
98340 On ch=1 n=d4 v=100
98370 On ch=1 n=d5 v=100
98379 On ch=1 n=d4 v=0
98399 On ch=1 n=d5 v=0
98400 On ch=1 n=c5 v=100
98429 On ch=1 n=c5 v=0
98430 On ch=1 n=b4 v=100
98459 On ch=1 n=b4 v=0
98460 On ch=1 n=g4 v=100
98499 On ch=1 n=g4 v=0
98500 On ch=1 n=d4 v=100
98539 On ch=1 n=d4 v=0
98540 On ch=1 n=d5 v=100
98579 On ch=1 n=d5 v=0
98580 On ch=1 n=c5 v=100
98619 On ch=1 n=c5 v=0
98620 On ch=1 n=b4 v=100
98659 On ch=1 n=b4 v=0
98660 On ch=1 n=g4 v=100
98699 On ch=1 n=g4 v=0
98700 On ch=1 n=d4 v=100
98729 On ch=1 n=d4 v=0
98730 On ch=1 n=d5 v=100
98759 On ch=1 n=d5 v=0
98760 On ch=1 n=c5 v=100
98789 On ch=1 n=c5 v=0
98790 On ch=1 n=b4 v=100
98819 On ch=1 n=b4 v=0
98820 On ch=1 n=g4 v=100
98859 On ch=1 n=g4 v=0
98860 On ch=1 n=d4 v=100
98899 On ch=1 n=d4 v=0
98900 On ch=1 n=e5 v=100
98939 On ch=1 n=e5 v=0
98940 On ch=1 n=d5 v=100
98979 On ch=1 n=d5 v=0
98980 On ch=1 n=c5 v=100
99019 On ch=1 n=c5 v=0
99020 On ch=1 n=g4 v=100
99059 On ch=1 n=g4 v=0
99060 On ch=1 n=e4 v=100
99099 On ch=1 n=e4 v=0
99100 On ch=1 n=e5 v=100
99139 On ch=1 n=e5 v=0
99140 On ch=1 n=d5 v=100
99179 On ch=1 n=d5 v=0
99180 On ch=1 n=c5 v=100
99219 On ch=1 n=c5 v=0
99220 On ch=1 n=g4 v=100
99259 On ch=1 n=g4 v=0
99260 On ch=1 n=e4 v=100
99299 On ch=1 n=e4 v=0
99320 On ch=1 n=b7 v=100
99339 On ch=1 n=b7 v=0
99340 On ch=1 n=a7 v=100
99359 On ch=1 n=a7 v=0
99360 On ch=1 n=g#7 v=100
99379 On ch=1 n=g#7 v=0
99380 On ch=1 n=g7 v=100
99399 On ch=1 n=g7 v=0
99400 On ch=1 n=e7 v=100
99419 On ch=1 n=e7 v=0
99420 On ch=1 n=b6 v=100
99439 On ch=1 n=b6 v=0
99440 On ch=1 n=g7 v=100
99459 On ch=1 n=g7 v=0
99460 On ch=1 n=f#7 v=100
99479 On ch=1 n=f#7 v=0
99480 On ch=1 n=f7 v=100
99499 On ch=1 n=f7 v=0
99500 On ch=1 n=e7 v=100
99519 On ch=1 n=e7 v=0
99520 On ch=1 n=c7 v=100
99539 On ch=1 n=c7 v=0
99540 On ch=1 n=g6 v=100
99559 On ch=1 n=g6 v=0
99560 On ch=1 n=b6 v=100
99579 On ch=1 n=b6 v=0
99580 On ch=1 n=a6 v=100
99599 On ch=1 n=a6 v=0
99600 On ch=1 n=g#6 v=100
99619 On ch=1 n=g#6 v=0
99620 On ch=1 n=g6 v=100
99639 On ch=1 n=g6 v=0
99640 On ch=1 n=e6 v=100
99659 On ch=1 n=e6 v=0
99660 On ch=1 n=b5 v=100
99679 On ch=1 n=b5 v=0
99680 On ch=1 n=g6 v=100
99699 On ch=1 n=g6 v=0
99700 On ch=1 n=f#6 v=100
99719 On ch=1 n=f#6 v=0
99720 On ch=1 n=f6 v=100
99739 On ch=1 n=f6 v=0
99740 On ch=1 n=e6 v=100
99759 On ch=1 n=e6 v=0
99760 On ch=1 n=c6 v=100
99779 On ch=1 n=c6 v=0
99780 On ch=1 n=g5 v=100
99799 On ch=1 n=g5 v=0
99800 On ch=1 n=b7 v=100
99819 On ch=1 n=b7 v=0
99820 On ch=1 n=a7 v=100
99839 On ch=1 n=a7 v=0
99840 On ch=1 n=g#7 v=100
99859 On ch=1 n=g#7 v=0
99860 On ch=1 n=g7 v=100
99879 On ch=1 n=g7 v=0
99880 On ch=1 n=e7 v=100
99899 On ch=1 n=e7 v=0
99900 On ch=1 n=b6 v=100
99919 On ch=1 n=b6 v=0
99920 On ch=1 n=g7 v=100
99939 On ch=1 n=g7 v=0
99940 On ch=1 n=f#7 v=100
99959 On ch=1 n=f#7 v=0
99960 On ch=1 n=f7 v=100
99979 On ch=1 n=f7 v=0
99980 On ch=1 n=e7 v=100
99999 On ch=1 n=e7 v=0
100000 On ch=1 n=c7 v=100
100019 On ch=1 n=c7 v=0
100020 On ch=1 n=g6 v=100
100039 On ch=1 n=g6 v=0
100040 On ch=1 n=b6 v=100
100059 On ch=1 n=b6 v=0
100060 On ch=1 n=a6 v=100
100079 On ch=1 n=a6 v=0
100080 On ch=1 n=g#6 v=100
100099 On ch=1 n=g#6 v=0
100100 On ch=1 n=g6 v=100
100119 On ch=1 n=g6 v=0
100120 On ch=1 n=e6 v=100
100139 On ch=1 n=e6 v=0
100140 On ch=1 n=b5 v=100
100159 On ch=1 n=b5 v=0
100160 On ch=1 n=g6 v=100
100179 On ch=1 n=g6 v=0
100180 On ch=1 n=f#6 v=100
100199 On ch=1 n=f#6 v=0
100200 On ch=1 n=f6 v=100
100219 On ch=1 n=f6 v=0
100220 On ch=1 n=e6 v=100
100239 On ch=1 n=e6 v=0
100240 On ch=1 n=c6 v=100
100259 On ch=1 n=c6 v=0
100260 On ch=1 n=g5 v=100
100279 On ch=1 n=g5 v=0
100280 On ch=1 n=b6 v=100
100299 On ch=1 n=b6 v=0
100300 On ch=1 n=a6 v=100
100319 On ch=1 n=a6 v=0
100320 On ch=1 n=g#6 v=100
100339 On ch=1 n=g#6 v=0
100340 On ch=1 n=g6 v=100
100359 On ch=1 n=g6 v=0
100360 On ch=1 n=e6 v=100
100379 On ch=1 n=e6 v=0
100380 On ch=1 n=b5 v=100
100399 On ch=1 n=b5 v=0
100400 On ch=1 n=g7 v=100
100419 On ch=1 n=g7 v=0
100420 On ch=1 n=f#7 v=100
100439 On ch=1 n=f#7 v=0
100440 On ch=1 n=f7 v=100
100459 On ch=1 n=f7 v=0
100460 On ch=1 n=e7 v=100
100479 On ch=1 n=e7 v=0
100480 On ch=1 n=c7 v=100
100499 On ch=1 n=c7 v=0
100500 On ch=1 n=g6 v=100
100519 On ch=1 n=g6 v=0
100520 On ch=1 n=b6 v=100
100539 On ch=1 n=b6 v=0
100540 On ch=1 n=a6 v=100
100559 On ch=1 n=a6 v=0
100560 On ch=1 n=g#6 v=100
100579 On ch=1 n=g#6 v=0
100580 On ch=1 n=g6 v=100
100599 On ch=1 n=g6 v=0
100600 On ch=1 n=e6 v=100
100619 On ch=1 n=e6 v=0
100620 On ch=1 n=b5 v=100
100639 On ch=1 n=b5 v=0
100640 On ch=1 n=b7 v=100
100659 On ch=1 n=b7 v=0
100660 On ch=1 n=a7 v=100
100679 On ch=1 n=a7 v=0
100680 On ch=1 n=g#7 v=100
100699 On ch=1 n=g#7 v=0
100700 On ch=1 n=g7 v=100
100719 On ch=1 n=g7 v=0
100720 On ch=1 n=e7 v=100
100739 On ch=1 n=e7 v=0
100740 On ch=1 n=g6 v=100
100759 On ch=1 n=g6 v=0
100760 On ch=1 n=b6 v=100
100779 On ch=1 n=b6 v=0
100780 On ch=1 n=a6 v=100
100799 On ch=1 n=a6 v=0
100800 On ch=1 n=g#6 v=100
100819 On ch=1 n=g#6 v=0
100820 On ch=1 n=g6 v=100
100839 On ch=1 n=g6 v=0
100840 On ch=1 n=e6 v=100
100859 On ch=1 n=e6 v=0
100860 On ch=1 n=b5 v=100
100879 On ch=1 n=b5 v=0
100880 On ch=1 n=b6 v=100
100899 On ch=1 n=b6 v=0
100900 On ch=1 n=a6 v=100
100919 On ch=1 n=a6 v=0
100920 On ch=1 n=g#6 v=100
100939 On ch=1 n=g#6 v=0
100940 On ch=1 n=g6 v=100
100959 On ch=1 n=g6 v=0
100960 On ch=1 n=e6 v=100
100979 On ch=1 n=e6 v=0
100980 On ch=1 n=b5 v=100
100999 On ch=1 n=b5 v=0
101000 On ch=1 n=a5 v=100
101019 On ch=1 n=a5 v=0
101020 On ch=1 n=g#5 v=100
101039 On ch=1 n=g#5 v=0
101040 On ch=1 n=g5 v=100
101059 On ch=1 n=g5 v=0
101060 On ch=1 n=e5 v=100
101079 On ch=1 n=e5 v=0
101080 On ch=1 n=c5 v=100
101099 On ch=1 n=c5 v=0
101403 On ch=1 n=c6 v=100
101405 On ch=1 n=d#6 v=100
101409 On ch=1 n=c6 v=0
101410 On ch=1 n=g#6 v=100
101411 On ch=1 n=d#6 v=0
101415 On ch=1 n=b6 v=100
101416 On ch=1 n=g#6 v=0
101421 On ch=1 n=b6 v=0
101425 On ch=1 n=d#6 v=100
101430 On ch=1 n=a6 v=100
101431 On ch=1 n=d#6 v=0
101436 On ch=1 n=a6 v=0
101440 On ch=1 n=b6 v=100
101445 On ch=1 n=c7 v=100
101446 On ch=1 n=b6 v=0
101450 On ch=1 n=d#7 v=100
101451 On ch=1 n=c7 v=0
101456 On ch=1 n=d#7 v=0
101460 On ch=1 n=g#6 v=100
101465 On ch=1 n=b6 v=100
101466 On ch=1 n=g#6 v=0
101470 On ch=1 n=d#7 v=100
101471 On ch=1 n=b6 v=0
101476 On ch=1 n=d#7 v=0
101480 On ch=1 n=f7 v=100
101486 On ch=1 n=f7 v=0
101490 On ch=1 n=a6 v=100
101495 On ch=1 n=c7 v=100
101496 On ch=1 n=a6 v=0
101500 On ch=1 n=d#7 v=100
101501 On ch=1 n=c7 v=0
101505 On ch=1 n=e7 v=100
101506 On ch=1 n=d#7 v=0
101510 On ch=1 n=g#7 v=100
101511 On ch=1 n=e7 v=0
101516 On ch=1 n=g#7 v=0
101520 On ch=1 n=c7 v=100
101525 On ch=1 n=d#7 v=100
101526 On ch=1 n=c7 v=0
101530 On ch=1 n=g#7 v=100
101531 On ch=1 n=d#7 v=0
101535 On ch=1 n=a7 v=100
101536 On ch=1 n=g#7 v=0
101541 On ch=1 n=a7 v=0
101545 On ch=1 n=d#7 v=100
101551 On ch=1 n=d#7 v=0
101555 On ch=1 n=a7 v=100
101560 On ch=1 n=b7 v=100
101561 On ch=1 n=a7 v=0
101565 On ch=1 n=c8 v=100
101566 On ch=1 n=b7 v=0
101570 On ch=1 n=d#8 v=100
101571 On ch=1 n=c8 v=0
101576 On ch=1 n=d#8 v=0
101580 On ch=1 n=g#6 v=100
101585 On ch=1 n=b6 v=100
101586 On ch=1 n=g#6 v=0
101590 On ch=1 n=d#7 v=100
101591 On ch=1 n=b6 v=0
101595 On ch=1 n=f7 v=100
101596 On ch=1 n=d#7 v=0
101600 On ch=1 n=a6 v=100
101601 On ch=1 n=f7 v=0
101605 On ch=1 n=c7 v=100
101606 On ch=1 n=a6 v=0
101610 On ch=1 n=d#7 v=100
101611 On ch=1 n=c7 v=0
101615 On ch=1 n=e7 v=100
101616 On ch=1 n=d#7 v=0
101620 On ch=1 n=g#7 v=100
101621 On ch=1 n=e7 v=0
101625 On ch=1 n=c7 v=100
101626 On ch=1 n=g#7 v=0
101630 On ch=1 n=d#7 v=100
101631 On ch=1 n=c7 v=0
101636 On ch=1 n=d#7 v=0
101640 On ch=1 n=g#7 v=100
101645 On ch=1 n=b7 v=100
101646 On ch=1 n=g#7 v=0
101650 On ch=1 n=d#7 v=100
101651 On ch=1 n=b7 v=0
101656 On ch=1 n=d#7 v=0
101660 On ch=1 n=a7 v=100
101665 On ch=1 n=b7 v=100
101666 On ch=1 n=a7 v=0
101670 On ch=1 n=c#8 v=100
101671 On ch=1 n=b7 v=0
101675 On ch=1 n=d#8 v=100
101676 On ch=1 n=c#8 v=0
101681 On ch=1 n=d#8 v=0
101685 On ch=1 n=e8 v=100
101691 On ch=1 n=e8 v=0
101760 On ch=1 n=e4 v=100
101819 On ch=1 n=e4 v=0
101820 On ch=1 n=a4 v=100
101879 On ch=1 n=a4 v=0
101880 On ch=1 n=e5 v=100
101939 On ch=1 n=e5 v=0
101940 On ch=1 n=b4 v=100
101940 On ch=1 n=b5 v=100
101999 On ch=1 n=b5 v=0
101999 On ch=1 n=b4 v=0
102000 On ch=1 n=c5 v=100
102059 On ch=1 n=c5 v=0
102060 On ch=1 n=e5 v=100
102119 On ch=1 n=e5 v=0
102120 On ch=1 n=e4 v=100
102179 On ch=1 n=e4 v=0
102180 On ch=1 n=g4 v=100
102239 On ch=1 n=g4 v=0
102240 On ch=1 n=e5 v=100
102299 On ch=1 n=e5 v=0
102300 On ch=1 n=b5 v=100
102300 On ch=1 n=b4 v=100
102359 On ch=1 n=b4 v=0
102359 On ch=1 n=b5 v=0
102360 On ch=1 n=c5 v=100
102419 On ch=1 n=c5 v=0
102420 On ch=1 n=e5 v=100
102479 On ch=1 n=e5 v=0
102480 On ch=1 n=e4 v=100
102539 On ch=1 n=e4 v=0
102540 On ch=1 n=g#4 v=100
102599 On ch=1 n=g#4 v=0
102600 On ch=1 n=e5 v=100
102659 On ch=1 n=e5 v=0
102660 On ch=1 n=b5 v=100
102660 On ch=1 n=b4 v=100
102719 On ch=1 n=b4 v=0
102719 On ch=1 n=b5 v=0
102720 On ch=1 n=c#5 v=100
102779 On ch=1 n=c#5 v=0
102780 On ch=1 n=e5 v=100
102839 On ch=1 n=e5 v=0
102840 On ch=1 n=e5 v=100
102899 On ch=1 n=e5 v=0
102900 On ch=1 n=b5 v=100
102959 On ch=1 n=b5 v=0
102960 On ch=1 n=e6 v=100
103019 On ch=1 n=e6 v=0
103140 On ch=1 n=b5 v=100
103199 On ch=1 n=b5 v=0
103200 On ch=1 n=c#6 v=100
103259 On ch=1 n=c#6 v=0
103260 On ch=1 n=g#6 v=100
103260 On ch=1 n=e6 v=100
103349 On ch=1 n=e6 v=0
103349 On ch=1 n=g#6 v=0
103350 On ch=1 n=g6 v=100
103379 On ch=1 n=g6 v=0
103380 On ch=1 n=f#6 v=100
103380 On ch=1 n=c6 v=100
103439 On ch=1 n=c6 v=0
103439 On ch=1 n=f#6 v=0
103440 On ch=1 n=g#6 v=100
103440 On ch=1 n=e6 v=100
103709 On ch=1 n=e6 v=0
103709 On ch=1 n=g#6 v=0
103710 On ch=1 n=f#6 v=100
103739 On ch=1 n=f#6 v=0
103740 On ch=1 n=e6 v=100
103740 On ch=1 n=c#6 v=100
103799 On ch=1 n=c#6 v=0
103799 On ch=1 n=e6 v=0
103800 On ch=1 n=g#6 v=100
103800 On ch=1 n=e6 v=100
103859 On ch=1 n=e6 v=0
103859 On ch=1 n=g#6 v=0
103860 On ch=1 n=f#6 v=100
103889 On ch=1 n=f#6 v=0
103890 On ch=1 n=e6 v=100
103919 On ch=1 n=e6 v=0
103920 On ch=1 n=d#6 v=100
103920 On ch=1 n=b5 v=100
103979 On ch=1 n=b5 v=0
103979 On ch=1 n=d#6 v=0
103980 On ch=1 n=g#6 v=100
103980 On ch=1 n=e6 v=100
104069 On ch=1 n=e6 v=0
104069 On ch=1 n=g#6 v=0
104070 On ch=1 n=b6 v=100
104070 On ch=1 n=f#6 v=100
104099 On ch=1 n=f#6 v=0
104099 On ch=1 n=b6 v=0
104100 On ch=1 n=g#6 v=100
104100 On ch=1 n=e6 v=100
104159 On ch=1 n=e6 v=0
104159 On ch=1 n=g#6 v=0
104160 On ch=1 n=g#6 v=100
104160 On ch=1 n=e6 v=100
104459 On ch=1 n=e6 v=0
104459 On ch=1 n=g#6 v=0
104460 On ch=1 n=f#6 v=100
104519 On ch=1 n=f#6 v=0
104520 On ch=1 n=d#6 v=100
104520 On ch=1 n=b5 v=100
104520 On ch=1 n=g#6 v=100
104639 On ch=1 n=g#6 v=0
104640 On ch=1 n=b6 v=100
104699 On ch=1 n=b6 v=0
104699 On ch=1 n=b5 v=0
104699 On ch=1 n=d#6 v=0
104700 On ch=1 n=e5 v=100
104710 On ch=1 n=g#5 v=100
104720 On ch=1 n=c#6 v=100
104730 On ch=1 n=e6 v=100
104999 On ch=1 n=e6 v=0
105000 On ch=1 n=d#6 v=100
105059 On ch=1 n=d#6 v=0
105059 On ch=1 n=c#6 v=0
105059 On ch=1 n=g#5 v=0
105059 On ch=1 n=e5 v=0
105060 On ch=1 n=g#5 v=100
105060 On ch=1 n=c#6 v=100
105060 On ch=1 n=e6 v=100
105119 On ch=1 n=e6 v=0
105120 On ch=1 n=d#6 v=100
105179 On ch=1 n=d#6 v=0
105180 On ch=1 n=e6 v=100
105239 On ch=1 n=e6 v=0
105239 On ch=1 n=c#6 v=0
105239 On ch=1 n=g#5 v=0
105240 On ch=1 n=f#5 v=100
105240 On ch=1 n=c6 v=100
105240 On ch=1 n=f#6 v=100
105359 On ch=1 n=f#6 v=0
105360 On ch=1 n=g#6 v=100
105419 On ch=1 n=g#6 v=0
105419 On ch=1 n=c6 v=0
105419 On ch=1 n=f#5 v=0
105420 On ch=1 n=c#5 v=100
105430 On ch=1 n=e5 v=100
105440 On ch=1 n=a5 v=100
105450 On ch=1 n=b5 v=100
105779 On ch=1 n=a5 v=0
105779 On ch=1 n=c#5 v=0
105779 On ch=1 n=e5 v=0
105780 On ch=1 n=g#5 v=100
105780 On ch=1 n=e5 v=100
105899 On ch=1 n=b5 v=0
105900 On ch=1 n=c#6 v=100
105959 On ch=1 n=c#6 v=0
105959 On ch=1 n=e5 v=0
105959 On ch=1 n=g#5 v=0
105960 On ch=1 n=d#6 v=100
105960 On ch=1 n=g#5 v=100
105960 On ch=1 n=d#5 v=100
106079 On ch=1 n=d#5 v=0
106079 On ch=1 n=g#5 v=0
106079 On ch=1 n=d#6 v=0
106080 On ch=1 n=d5 v=100
106090 On ch=1 n=g5 v=100
106100 On ch=1 n=e6 v=100
106139 On ch=1 n=e6 v=0
106139 On ch=1 n=g5 v=0
106139 On ch=1 n=d5 v=0
106140 On ch=1 n=a4 v=100
106150 On ch=1 n=c#5 v=100
106160 On ch=1 n=f#5 v=100
106170 On ch=1 n=g#5 v=100
106499 On ch=1 n=f#5 v=0
106499 On ch=1 n=a4 v=0
106499 On ch=1 n=c#5 v=0
106500 On ch=1 n=e5 v=100
106500 On ch=1 n=c5 v=100
106619 On ch=1 n=g#5 v=0
106620 On ch=1 n=a5 v=100
106679 On ch=1 n=a5 v=0
106679 On ch=1 n=c5 v=0
106679 On ch=1 n=e5 v=0
106680 On ch=1 n=b5 v=100
106680 On ch=1 n=e5 v=100
106680 On ch=1 n=b4 v=100
106799 On ch=1 n=b4 v=0
106799 On ch=1 n=e5 v=0
106799 On ch=1 n=b5 v=0
106800 On ch=1 n=a#4 v=100
106810 On ch=1 n=d#5 v=100
106820 On ch=1 n=c#6 v=100
106859 On ch=1 n=c#6 v=0
106859 On ch=1 n=d#5 v=0
106859 On ch=1 n=a#4 v=0
106860 On ch=1 n=d#5 v=100
106860 On ch=1 n=d5 v=100
106860 On ch=1 n=a4 v=100
106860 On ch=1 n=f#4 v=100
107219 On ch=1 n=f#4 v=0
107219 On ch=1 n=a4 v=0
107219 On ch=1 n=d5 v=0
107220 On ch=1 n=c#5 v=100
107220 On ch=1 n=g#4 v=100
107339 On ch=1 n=d#5 v=0
107340 On ch=1 n=f#5 v=100
107399 On ch=1 n=f#5 v=0
107399 On ch=1 n=g#4 v=0
107399 On ch=1 n=c#5 v=0
107400 On ch=1 n=g#5 v=100
107400 On ch=1 n=c5 v=100
107400 On ch=1 n=f#4 v=100
107519 On ch=1 n=g#5 v=0
107520 On ch=1 n=a5 v=100
107579 On ch=1 n=a5 v=0
107579 On ch=1 n=f#4 v=0
107579 On ch=1 n=c5 v=0
107580 On ch=1 n=a5 v=100
107590 On ch=1 n=c#6 v=100
107600 On ch=1 n=f#6 v=100
107610 On ch=1 n=g#6 v=100
107879 On ch=1 n=g#6 v=0
107880 On ch=1 n=c#7 v=100
107939 On ch=1 n=c#7 v=0
107939 On ch=1 n=f#6 v=0
107939 On ch=1 n=c#6 v=0
107939 On ch=1 n=a5 v=0
107940 On ch=1 n=d#6 v=100
108239 On ch=1 n=d#6 v=0
108240 On ch=1 n=a5 v=100
108299 On ch=1 n=a5 v=0
108300 On ch=1 n=a5 v=100
108310 On ch=1 n=c#6 v=100
108320 On ch=1 n=f#6 v=100
108330 On ch=1 n=g#6 v=100
108599 On ch=1 n=g#6 v=0
108600 On ch=1 n=c#7 v=100
108659 On ch=1 n=c#7 v=0
108659 On ch=1 n=f#6 v=0
108659 On ch=1 n=c#6 v=0
108659 On ch=1 n=a5 v=0
108660 On ch=1 n=d#6 v=100
108959 On ch=1 n=d#6 v=0
108960 On ch=1 n=a5 v=100
109019 On ch=1 n=a5 v=0
109020 On ch=1 n=e4 v=100
109020 On ch=1 n=b4 v=100
109020 On ch=1 n=a4 v=100
109020 On ch=1 n=c#4 v=100
109079 On ch=1 n=e4 v=0
109080 On ch=1 n=f#4 v=100
109139 On ch=1 n=f#4 v=0
109140 On ch=1 n=g#4 v=100
109199 On ch=1 n=g#4 v=0
109199 On ch=1 n=c#4 v=0
109199 On ch=1 n=a4 v=0
109259 On ch=1 n=b4 v=0
109260 On ch=1 n=e4 v=100
109319 On ch=1 n=e4 v=0
109320 On ch=1 n=b4 v=100
109439 On ch=1 n=b4 v=0
109440 On ch=1 n=d#4 v=100
109499 On ch=1 n=d#4 v=0
109500 On ch=1 n=b4 v=100
109619 On ch=1 n=b4 v=0
109620 On ch=1 n=c#4 v=100
109679 On ch=1 n=c#4 v=0
109680 On ch=1 n=b4 v=100
109799 On ch=1 n=b4 v=0
109800 On ch=1 n=a4 v=100
109859 On ch=1 n=a4 v=0
109860 On ch=1 n=b4 v=100
109979 On ch=1 n=b4 v=0
109980 On ch=1 n=g#4 v=100
110039 On ch=1 n=g#4 v=0
110040 On ch=1 n=b4 v=100
110159 On ch=1 n=b4 v=0
110160 On ch=1 n=f#4 v=100
110219 On ch=1 n=f#4 v=0
110220 On ch=1 n=b4 v=100
110339 On ch=1 n=b4 v=0
110340 On ch=1 n=e4 v=100
110399 On ch=1 n=e4 v=0
110400 On ch=1 n=b4 v=100
110460 On ch=1 n=g#4 v=100
110819 On ch=1 n=g#4 v=0
110819 On ch=1 n=b4 v=0
110820 On ch=1 n=b4 v=100
110820 On ch=1 n=a4 v=100
110820 On ch=1 n=e4 v=100
111089 On ch=1 n=b4 v=0
111090 On ch=1 n=a#4 v=100
111119 On ch=1 n=a#4 v=0
111120 On ch=1 n=a4 v=100
111179 On ch=1 n=a4 v=0
111179 On ch=1 n=e4 v=0
111179 On ch=1 n=a4 v=0
111180 On ch=1 n=b4 v=100
111180 On ch=1 n=g#4 v=100
111180 On ch=1 n=e4 v=100
111899 On ch=1 n=e4 v=0
111899 On ch=1 n=g#4 v=0
111899 On ch=1 n=b4 v=0
111900 On ch=1 n=e6 v=100
111900 On ch=1 n=g#5 v=100
111959 On ch=1 n=e6 v=0
111960 On ch=1 n=f6 v=100
112079 On ch=1 n=f6 v=0
112080 On ch=1 n=e6 v=100
112139 On ch=1 n=e6 v=0
112140 On ch=1 n=c#6 v=100
112199 On ch=1 n=c#6 v=0
112200 On ch=1 n=d6 v=100
112259 On ch=1 n=d6 v=0
112259 On ch=1 n=g#5 v=0
112260 On ch=1 n=g5 v=100
112260 On ch=1 n=d6 v=100
112379 On ch=1 n=d6 v=0
112380 On ch=1 n=g5 v=100
112500 On ch=1 n=f5 v=100
112559 On ch=1 n=g5 v=0
112560 On ch=1 n=a5 v=100
112619 On ch=1 n=a5 v=0
112619 On ch=1 n=f5 v=0
112619 On ch=1 n=g5 v=0
112620 On ch=1 n=e5 v=100
112620 On ch=1 n=a#5 v=100
112679 On ch=1 n=a#5 v=0
112680 On ch=1 n=d6 v=100
112740 On ch=1 n=g5 v=100
112799 On ch=1 n=d6 v=0
112800 On ch=1 n=c6 v=100
112859 On ch=1 n=c6 v=0
112859 On ch=1 n=g5 v=0
112859 On ch=1 n=e5 v=0
112860 On ch=1 n=d#5 v=100
112860 On ch=1 n=a5 v=100
112919 On ch=1 n=a5 v=0
112920 On ch=1 n=a#5 v=100
112979 On ch=1 n=a#5 v=0
112979 On ch=1 n=d#5 v=0
112980 On ch=1 n=a#5 v=100
112980 On ch=1 n=d5 v=100
113039 On ch=1 n=a#5 v=0
113040 On ch=1 n=f5 v=100
113099 On ch=1 n=d5 v=0
113100 On ch=1 n=c#5 v=100
113159 On ch=1 n=f5 v=0
113160 On ch=1 n=g5 v=100
113219 On ch=1 n=c#5 v=0
113220 On ch=1 n=c5 v=100
113279 On ch=1 n=g5 v=0
113280 On ch=1 n=a5 v=100
113339 On ch=1 n=a5 v=0
113339 On ch=1 n=c5 v=0
113340 On ch=1 n=b4 v=100
113340 On ch=1 n=g5 v=100
113399 On ch=1 n=g5 v=0
113400 On ch=1 n=d5 v=100
113459 On ch=1 n=b4 v=0
113460 On ch=1 n=a#4 v=100
113519 On ch=1 n=d5 v=0
113520 On ch=1 n=e5 v=100
113579 On ch=1 n=a#4 v=0
113580 On ch=1 n=a4 v=100
113639 On ch=1 n=e5 v=0
113640 On ch=1 n=f5 v=100
113699 On ch=1 n=f5 v=0
113699 On ch=1 n=a4 v=0
113700 On ch=1 n=g4 v=100
113700 On ch=1 n=e5 v=100
113700 On ch=1 n=c5 v=100
113879 On ch=1 n=c5 v=0
113879 On ch=1 n=e5 v=0
113879 On ch=1 n=g4 v=0
113880 On ch=1 n=d5 v=100
113880 On ch=1 n=c5 v=100
113880 On ch=1 n=f4 v=100
114059 On ch=1 n=f4 v=0
114059 On ch=1 n=c5 v=0
114059 On ch=1 n=d5 v=0
114060 On ch=1 n=e5 v=100
114060 On ch=1 n=c5 v=100
114060 On ch=1 n=g4 v=100
114419 On ch=1 n=g4 v=0
114419 On ch=1 n=c5 v=0
114419 On ch=1 n=e5 v=0
114460 On ch=1 n=f7 v=100
114499 On ch=1 n=f7 v=0
114500 On ch=1 n=e7 v=100
114539 On ch=1 n=e7 v=0
114540 On ch=1 n=d#7 v=100
114579 On ch=1 n=d#7 v=0
114580 On ch=1 n=c#7 v=100
114619 On ch=1 n=c#7 v=0
114620 On ch=1 n=a#6 v=100
114659 On ch=1 n=a#6 v=0
114780 On ch=1 n=d#6 v=100
114819 On ch=1 n=d#6 v=0
114820 On ch=1 n=c#6 v=100
114859 On ch=1 n=c#6 v=0
114860 On ch=1 n=a#5 v=100
114899 On ch=1 n=a#5 v=0
114900 On ch=1 n=g5 v=100
114939 On ch=1 n=g5 v=0
115020 On ch=1 n=d#5 v=100
115049 On ch=1 n=d#5 v=0
115050 On ch=1 n=c#5 v=100
115079 On ch=1 n=c#5 v=0
115080 On ch=1 n=a#4 v=100
115109 On ch=1 n=a#4 v=0
115110 On ch=1 n=g4 v=100
115139 On ch=1 n=g4 v=0
115140 On ch=1 n=d5 v=100
115140 On ch=1 n=a#4 v=100
115140 On ch=1 n=f4 v=100
115140 On ch=1 n=d4 v=100
115259 On ch=1 n=d4 v=0
115259 On ch=1 n=d5 v=0
115259 On ch=1 n=a#4 v=0
115259 On ch=1 n=f4 v=0
115500 On ch=1 n=d5 v=100
115500 On ch=1 n=a#4 v=100
115500 On ch=1 n=f4 v=100
115500 On ch=1 n=d4 v=100
115619 On ch=1 n=d4 v=0
115619 On ch=1 n=d5 v=0
115619 On ch=1 n=a#4 v=0
115619 On ch=1 n=f4 v=0
115860 On ch=1 n=d5 v=100
115860 On ch=1 n=a#4 v=100
115860 On ch=1 n=f4 v=100
115860 On ch=1 n=d4 v=100
115919 On ch=1 n=d4 v=0
115919 On ch=1 n=d5 v=0
115919 On ch=1 n=a#4 v=0
115919 On ch=1 n=f4 v=0
115920 On ch=1 n=d5 v=100
115920 On ch=1 n=a#4 v=100
115920 On ch=1 n=f4 v=100
115920 On ch=1 n=d4 v=100
115979 On ch=1 n=d4 v=0
115979 On ch=1 n=d5 v=0
115979 On ch=1 n=a#4 v=0
115979 On ch=1 n=f4 v=0
115980 On ch=1 n=d4 v=100
115980 On ch=1 n=f4 v=100
115980 On ch=1 n=a#4 v=100
115980 On ch=1 n=d5 v=100
116099 On ch=1 n=d5 v=0
116099 On ch=1 n=d4 v=0
116099 On ch=1 n=f4 v=0
116099 On ch=1 n=a#4 v=0
116100 On ch=1 n=d4 v=100
116100 On ch=1 n=f4 v=100
116100 On ch=1 n=a#4 v=100
116100 On ch=1 n=d5 v=100
116219 On ch=1 n=d5 v=0
116219 On ch=1 n=d4 v=0
116219 On ch=1 n=f4 v=0
116219 On ch=1 n=a#4 v=0
116340 On ch=1 n=d4 v=100
116340 On ch=1 n=f4 v=100
116340 On ch=1 n=a#4 v=100
116340 On ch=1 n=d5 v=100
116399 On ch=1 n=d5 v=0
116399 On ch=1 n=d4 v=0
116399 On ch=1 n=f4 v=0
116399 On ch=1 n=a#4 v=0
116400 On ch=1 n=d4 v=100
116400 On ch=1 n=f4 v=100
116400 On ch=1 n=a#4 v=100
116400 On ch=1 n=d5 v=100
116459 On ch=1 n=d5 v=0
116459 On ch=1 n=d4 v=0
116459 On ch=1 n=f4 v=0
116459 On ch=1 n=a#4 v=0
116460 On ch=1 n=d5 v=100
116460 On ch=1 n=a#4 v=100
116460 On ch=1 n=f4 v=100
116460 On ch=1 n=d4 v=100
116579 On ch=1 n=d4 v=0
116579 On ch=1 n=d5 v=0
116579 On ch=1 n=a#4 v=0
116579 On ch=1 n=f4 v=0
116640 On ch=1 n=d5 v=100
116640 On ch=1 n=a#4 v=100
116640 On ch=1 n=d4 v=100
116669 On ch=1 n=d4 v=0
116669 On ch=1 n=a#4 v=0
116669 On ch=1 n=d5 v=0
116700 On ch=1 n=d4 v=100
116700 On ch=1 n=a#4 v=100
116700 On ch=1 n=d5 v=100
116729 On ch=1 n=d5 v=0
116729 On ch=1 n=a#4 v=0
116729 On ch=1 n=d4 v=0
116760 On ch=1 n=a4 v=100
116789 On ch=1 n=a4 v=0
116820 On ch=1 n=a#4 v=100
116820 On ch=1 n=d4 v=100
116820 On ch=1 n=d5 v=100
116849 On ch=1 n=d5 v=0
116849 On ch=1 n=d4 v=0
116849 On ch=1 n=a#4 v=0
116880 On ch=1 n=g#4 v=100
116909 On ch=1 n=g#4 v=0
116940 On ch=1 n=d4 v=100
116940 On ch=1 n=a#4 v=100
116940 On ch=1 n=d5 v=100
116969 On ch=1 n=d5 v=0
116969 On ch=1 n=a#4 v=0
116969 On ch=1 n=d4 v=0
117000 On ch=1 n=g4 v=100
117029 On ch=1 n=g4 v=0
117060 On ch=1 n=d4 v=100
117060 On ch=1 n=a#4 v=100
117060 On ch=1 n=d5 v=100
117089 On ch=1 n=d5 v=0
117089 On ch=1 n=a#4 v=0
117089 On ch=1 n=d4 v=0
117120 On ch=1 n=f#4 v=100
117149 On ch=1 n=f#4 v=0
117180 On ch=1 n=d4 v=100
117180 On ch=1 n=a#4 v=100
117180 On ch=1 n=d5 v=100
117209 On ch=1 n=d5 v=0
117209 On ch=1 n=a#4 v=0
117209 On ch=1 n=d4 v=0
117240 On ch=1 n=f4 v=100
117269 On ch=1 n=f4 v=0
117300 On ch=1 n=a#4 v=100
117300 On ch=1 n=f#4 v=100
117300 On ch=1 n=c#4 v=100
117300 On ch=1 n=c#5 v=100
117379 On ch=1 n=c#5 v=0
117379 On ch=1 n=a#4 v=0
117379 On ch=1 n=f#4 v=0
117379 On ch=1 n=c#4 v=0
117380 On ch=1 n=c#6 v=100
117380 On ch=1 n=a#5 v=100
117420 On ch=1 n=a#6 v=100
117420 On ch=1 n=f#6 v=100
117619 On ch=1 n=f#6 v=0
117619 On ch=1 n=c#6 v=0
117619 On ch=1 n=a#5 v=0
117619 On ch=1 n=a#6 v=0
117620 On ch=1 n=c#5 v=100
117620 On ch=1 n=c#6 v=100
117620 On ch=1 n=a#5 v=100
117659 On ch=1 n=c#5 v=0
117660 On ch=1 n=g#6 v=100
117660 On ch=1 n=f6 v=100
117660 On ch=1 n=g#5 v=100
117859 On ch=1 n=g#5 v=0
117859 On ch=1 n=g#6 v=0
117859 On ch=1 n=c#6 v=0
117859 On ch=1 n=a#5 v=0
117859 On ch=1 n=f6 v=0
117860 On ch=1 n=c#5 v=100
117860 On ch=1 n=a#5 v=100
117860 On ch=1 n=c#6 v=100
117899 On ch=1 n=c#6 v=0
117899 On ch=1 n=a#5 v=0
117899 On ch=1 n=c#5 v=0
117900 On ch=1 n=f#6 v=100
117900 On ch=1 n=d#6 v=100
117900 On ch=1 n=c#6 v=100
117900 On ch=1 n=a#5 v=100
117900 On ch=1 n=f#5 v=100
118099 On ch=1 n=f#5 v=0
118099 On ch=1 n=c#6 v=0
118099 On ch=1 n=f#6 v=0
118099 On ch=1 n=d#6 v=0
118099 On ch=1 n=a#5 v=0
118100 On ch=1 n=a#4 v=100
118100 On ch=1 n=f#5 v=100
118100 On ch=1 n=a#5 v=100
118139 On ch=1 n=a#4 v=0
118140 On ch=1 n=f6 v=100
118140 On ch=1 n=c#6 v=100
118140 On ch=1 n=f5 v=100
118339 On ch=1 n=f5 v=0
118339 On ch=1 n=f6 v=0
118339 On ch=1 n=f#5 v=0
118339 On ch=1 n=a#5 v=0
118339 On ch=1 n=c#6 v=0
118340 On ch=1 n=a#4 v=100
118340 On ch=1 n=f#5 v=100
118340 On ch=1 n=a#5 v=100
118379 On ch=1 n=a#5 v=0
118379 On ch=1 n=f#5 v=0
118379 On ch=1 n=a#4 v=0
118380 On ch=1 n=d#6 v=100
118380 On ch=1 n=b5 v=100
118380 On ch=1 n=a#5 v=100
118380 On ch=1 n=f#5 v=100
118380 On ch=1 n=d#5 v=100
118579 On ch=1 n=d#5 v=0
118579 On ch=1 n=a#5 v=0
118579 On ch=1 n=d#6 v=0
118579 On ch=1 n=b5 v=0
118579 On ch=1 n=f#5 v=0
118580 On ch=1 n=a#4 v=100
118580 On ch=1 n=a#5 v=100
118580 On ch=1 n=f#5 v=100
118619 On ch=1 n=a#4 v=0
118620 On ch=1 n=c#6 v=100
118620 On ch=1 n=c#5 v=100
118739 On ch=1 n=c#5 v=0
118739 On ch=1 n=a#5 v=0
118739 On ch=1 n=f#5 v=0
118739 On ch=1 n=c#6 v=0
118820 On ch=1 n=f7 v=100
118820 On ch=1 n=d7 v=100
118820 On ch=1 n=a#6 v=100
118820 On ch=1 n=f6 v=100
118859 On ch=1 n=f6 v=0
118859 On ch=1 n=f7 v=0
118859 On ch=1 n=d7 v=0
118859 On ch=1 n=a#6 v=0
118860 On ch=1 n=d6 v=100
118860 On ch=1 n=a#6 v=100
118860 On ch=1 n=d7 v=100
119099 On ch=1 n=d7 v=0
119099 On ch=1 n=a#6 v=0
119099 On ch=1 n=d6 v=0
119100 On ch=1 n=f5 v=100
119100 On ch=1 n=d5 v=100
119100 On ch=1 n=a#4 v=100
119219 On ch=1 n=a#4 v=0
119219 On ch=1 n=d5 v=0
119219 On ch=1 n=f5 v=0
119220 On ch=1 n=g4 v=100
119220 On ch=1 n=e4 v=100
119220 On ch=1 n=e5 v=100
119339 On ch=1 n=e5 v=0
119339 On ch=1 n=e4 v=0
119339 On ch=1 n=g4 v=0
119340 On ch=1 n=a4 v=100
119340 On ch=1 n=d#4 v=100
119340 On ch=1 n=d#5 v=100
119459 On ch=1 n=d#5 v=0
119459 On ch=1 n=d#4 v=0
119459 On ch=1 n=a4 v=0
119460 On ch=1 n=a#4 v=100
119460 On ch=1 n=d4 v=100
119460 On ch=1 n=d5 v=100
119519 On ch=1 n=d5 v=0
119519 On ch=1 n=d4 v=0
119519 On ch=1 n=a#4 v=0
119520 On ch=1 n=d5 v=100
119520 On ch=1 n=a#4 v=100
119520 On ch=1 n=d4 v=100
119549 On ch=1 n=d4 v=0
119549 On ch=1 n=a#4 v=0
119549 On ch=1 n=d5 v=0
119580 On ch=1 n=d4 v=100
119580 On ch=1 n=a#4 v=100
119580 On ch=1 n=d5 v=100
119609 On ch=1 n=d5 v=0
119609 On ch=1 n=a#4 v=0
119609 On ch=1 n=d4 v=0
119640 On ch=1 n=a4 v=100
119669 On ch=1 n=a4 v=0
119700 On ch=1 n=d4 v=100
119700 On ch=1 n=a#4 v=100
119700 On ch=1 n=d5 v=100
119729 On ch=1 n=d5 v=0
119729 On ch=1 n=a#4 v=0
119729 On ch=1 n=d4 v=0
119760 On ch=1 n=g#4 v=100
119789 On ch=1 n=g#4 v=0
119820 On ch=1 n=d4 v=100
119820 On ch=1 n=a#4 v=100
119820 On ch=1 n=d5 v=100
119849 On ch=1 n=d5 v=0
119849 On ch=1 n=a#4 v=0
119849 On ch=1 n=d4 v=0
119880 On ch=1 n=g4 v=100
119909 On ch=1 n=g4 v=0
119940 On ch=1 n=d4 v=100
119940 On ch=1 n=a#4 v=100
119940 On ch=1 n=d5 v=100
119969 On ch=1 n=d5 v=0
119969 On ch=1 n=a#4 v=0
119969 On ch=1 n=d4 v=0
120000 On ch=1 n=f#4 v=100
120029 On ch=1 n=f#4 v=0
120060 On ch=1 n=d4 v=100
120060 On ch=1 n=a#4 v=100
120060 On ch=1 n=d5 v=100
120089 On ch=1 n=d5 v=0
120089 On ch=1 n=a#4 v=0
120089 On ch=1 n=d4 v=0
120120 On ch=1 n=f4 v=100
120149 On ch=1 n=f4 v=0
120180 On ch=1 n=c#5 v=100
120180 On ch=1 n=a#4 v=100
120180 On ch=1 n=f#4 v=100
120180 On ch=1 n=c#4 v=100
120259 On ch=1 n=c#4 v=0
120259 On ch=1 n=c#5 v=0
120259 On ch=1 n=a#4 v=0
120259 On ch=1 n=f#4 v=0
120260 On ch=1 n=c#6 v=100
120260 On ch=1 n=a#5 v=100
120300 On ch=1 n=a#6 v=100
120300 On ch=1 n=f#6 v=100
120499 On ch=1 n=f#6 v=0
120499 On ch=1 n=c#6 v=0
120499 On ch=1 n=a#5 v=0
120499 On ch=1 n=a#6 v=0
120500 On ch=1 n=c#5 v=100
120500 On ch=1 n=a#5 v=100
120500 On ch=1 n=c#6 v=100
120539 On ch=1 n=c#6 v=0
120539 On ch=1 n=a#5 v=0
120539 On ch=1 n=c#5 v=0
120540 On ch=1 n=g#6 v=100
120540 On ch=1 n=f6 v=100
120540 On ch=1 n=d6 v=100
120540 On ch=1 n=a#5 v=100
120540 On ch=1 n=g#5 v=100
120739 On ch=1 n=g#5 v=0
120739 On ch=1 n=d6 v=0
120739 On ch=1 n=g#6 v=0
120739 On ch=1 n=f6 v=0
120739 On ch=1 n=a#5 v=0
120740 On ch=1 n=c#6 v=100
120740 On ch=1 n=a#5 v=100
120740 On ch=1 n=c#5 v=100
120779 On ch=1 n=c#5 v=0
120779 On ch=1 n=a#5 v=0
120779 On ch=1 n=c#6 v=0
120780 On ch=1 n=f#6 v=100
120780 On ch=1 n=c#6 v=100
120780 On ch=1 n=a#5 v=100
120780 On ch=1 n=f#5 v=100
120979 On ch=1 n=f#5 v=0
120979 On ch=1 n=f#6 v=0
120979 On ch=1 n=c#6 v=0
120979 On ch=1 n=a#5 v=0
120980 On ch=1 n=a#4 v=100
120980 On ch=1 n=f#5 v=100
120980 On ch=1 n=a#5 v=100
121019 On ch=1 n=a#5 v=0
121019 On ch=1 n=f#5 v=0
121019 On ch=1 n=a#4 v=0
121020 On ch=1 n=f6 v=100
121020 On ch=1 n=c#6 v=100
121020 On ch=1 n=a#5 v=100
121020 On ch=1 n=f#5 v=100
121020 On ch=1 n=f5 v=100
121219 On ch=1 n=f5 v=0
121219 On ch=1 n=a#5 v=0
121219 On ch=1 n=f6 v=0
121219 On ch=1 n=c#6 v=0
121219 On ch=1 n=f#5 v=0
121220 On ch=1 n=a#5 v=100
121220 On ch=1 n=f#5 v=100
121220 On ch=1 n=a#4 v=100
121259 On ch=1 n=a#4 v=0
121260 On ch=1 n=d#6 v=100
121260 On ch=1 n=b5 v=100
121260 On ch=1 n=d#5 v=100
121459 On ch=1 n=d#5 v=0
121459 On ch=1 n=d#6 v=0
121459 On ch=1 n=a#5 v=0
121459 On ch=1 n=f#5 v=0
121459 On ch=1 n=b5 v=0
121460 On ch=1 n=a#5 v=100
121460 On ch=1 n=f#5 v=100
121460 On ch=1 n=a#4 v=100
121499 On ch=1 n=a#4 v=0
121500 On ch=1 n=c#6 v=100
121500 On ch=1 n=c#5 v=100
121619 On ch=1 n=c#5 v=0
121619 On ch=1 n=a#5 v=0
121619 On ch=1 n=f#5 v=0
121619 On ch=1 n=c#6 v=0
121700 On ch=1 n=d5 v=100
121739 On ch=1 n=d5 v=0
121740 On ch=1 n=g#5 v=100
121740 On ch=1 n=c6 v=100
121779 On ch=1 n=c6 v=0
121779 On ch=1 n=g#5 v=0
121780 On ch=1 n=f6 v=100
121819 On ch=1 n=f6 v=0
121820 On ch=1 n=d#5 v=100
121859 On ch=1 n=d#5 v=0
121860 On ch=1 n=a5 v=100
121860 On ch=1 n=c#6 v=100
121899 On ch=1 n=c#6 v=0
121899 On ch=1 n=a5 v=0
121900 On ch=1 n=f6 v=100
121939 On ch=1 n=f6 v=0
121940 On ch=1 n=f5 v=100
121979 On ch=1 n=f5 v=0
121980 On ch=1 n=d6 v=100
121980 On ch=1 n=a#5 v=100
122019 On ch=1 n=a#5 v=0
122019 On ch=1 n=d6 v=0
122020 On ch=1 n=f6 v=100
122059 On ch=1 n=f6 v=0
122060 On ch=1 n=f#5 v=100
122099 On ch=1 n=f#5 v=0
122100 On ch=1 n=c#6 v=100
122100 On ch=1 n=a#5 v=100
122139 On ch=1 n=a#5 v=0
122139 On ch=1 n=c#6 v=0
122140 On ch=1 n=f#6 v=100
122179 On ch=1 n=f#6 v=0
122180 On ch=1 n=g5 v=100
122219 On ch=1 n=g5 v=0
122220 On ch=1 n=d6 v=100
122220 On ch=1 n=a#5 v=100
122259 On ch=1 n=a#5 v=0
122259 On ch=1 n=d6 v=0
122260 On ch=1 n=g6 v=100
122299 On ch=1 n=g6 v=0
122340 On ch=1 n=c#6 v=100
122340 On ch=1 n=a5 v=100
122379 On ch=1 n=a5 v=0
122379 On ch=1 n=c#6 v=0
122380 On ch=1 n=f6 v=100
122419 On ch=1 n=f6 v=0
122420 On ch=1 n=f5 v=100
122459 On ch=1 n=f5 v=0
122460 On ch=1 n=d6 v=100
122460 On ch=1 n=a#5 v=100
122499 On ch=1 n=a#5 v=0
122499 On ch=1 n=d6 v=0
122500 On ch=1 n=g6 v=100
122539 On ch=1 n=g6 v=0
122540 On ch=1 n=c6 v=100
122579 On ch=1 n=c6 v=0
122580 On ch=1 n=f#6 v=100
122580 On ch=1 n=d6 v=100
122619 On ch=1 n=d6 v=0
122619 On ch=1 n=f#6 v=0
122620 On ch=1 n=a6 v=100
122659 On ch=1 n=a6 v=0
122660 On ch=1 n=d6 v=100
122699 On ch=1 n=d6 v=0
122700 On ch=1 n=g6 v=100
122700 On ch=1 n=d#6 v=100
122739 On ch=1 n=d#6 v=0
122739 On ch=1 n=g6 v=0
122740 On ch=1 n=d7 v=100
122779 On ch=1 n=d7 v=0
122780 On ch=1 n=d#6 v=100
122819 On ch=1 n=d#6 v=0
122820 On ch=1 n=a6 v=100
122820 On ch=1 n=f#6 v=100
122859 On ch=1 n=f#6 v=0
122859 On ch=1 n=a6 v=0
122860 On ch=1 n=d7 v=100
122899 On ch=1 n=d7 v=0
122900 On ch=1 n=f#6 v=100
122939 On ch=1 n=f#6 v=0
122940 On ch=1 n=a#6 v=100
122940 On ch=1 n=d7 v=100
122979 On ch=1 n=d7 v=0
122979 On ch=1 n=a#6 v=0
122980 On ch=1 n=g7 v=100
123019 On ch=1 n=g7 v=0
123020 On ch=1 n=g6 v=100
123059 On ch=1 n=g6 v=0
123140 On ch=1 n=g7 v=100
123140 On ch=1 n=g6 v=100
123179 On ch=1 n=g6 v=0
123179 On ch=1 n=g7 v=0
123180 On ch=1 n=a#7 v=100
123180 On ch=1 n=g7 v=100
123180 On ch=1 n=d7 v=100
123180 On ch=1 n=a#6 v=100
123259 On ch=1 n=a#6 v=0
123259 On ch=1 n=a#7 v=0
123259 On ch=1 n=g7 v=0
123259 On ch=1 n=d7 v=0
123260 On ch=1 n=f#6 v=100
123260 On ch=1 n=f#7 v=100
123299 On ch=1 n=f#7 v=0
123299 On ch=1 n=f#6 v=0
123300 On ch=1 n=a7 v=100
123300 On ch=1 n=f#7 v=100
123300 On ch=1 n=c#7 v=100
123300 On ch=1 n=a6 v=100
123419 On ch=1 n=a6 v=0
123419 On ch=1 n=a7 v=0
123419 On ch=1 n=f#7 v=0
123419 On ch=1 n=c#7 v=0
123500 On ch=1 n=d7 v=100
123500 On ch=1 n=d6 v=100
123539 On ch=1 n=d6 v=0
123540 On ch=1 n=a#6 v=100
123540 On ch=1 n=f#7 v=100
123540 On ch=1 n=f#6 v=100
123619 On ch=1 n=f#6 v=0
123619 On ch=1 n=d7 v=0
123619 On ch=1 n=a#6 v=0
123619 On ch=1 n=f#7 v=0
123620 On ch=1 n=c#7 v=100
123620 On ch=1 n=c#6 v=100
123659 On ch=1 n=c#6 v=0
123659 On ch=1 n=c#7 v=0
123660 On ch=1 n=f7 v=100
123660 On ch=1 n=c#7 v=100
123660 On ch=1 n=a#6 v=100
123660 On ch=1 n=f6 v=100
123779 On ch=1 n=f6 v=0
123779 On ch=1 n=f7 v=0
123779 On ch=1 n=c#7 v=0
123779 On ch=1 n=a#6 v=0
123860 On ch=1 n=a#6 v=100
123860 On ch=1 n=a#5 v=100
123899 On ch=1 n=a#5 v=0
123900 On ch=1 n=d7 v=100
123900 On ch=1 n=d6 v=100
123900 On ch=1 n=g6 v=100
123979 On ch=1 n=g6 v=0
123979 On ch=1 n=a#6 v=0
123979 On ch=1 n=d7 v=0
123979 On ch=1 n=d6 v=0
123980 On ch=1 n=a6 v=100
123980 On ch=1 n=a5 v=100
124019 On ch=1 n=a5 v=0
124019 On ch=1 n=a6 v=0
124020 On ch=1 n=c#7 v=100
124020 On ch=1 n=a6 v=100
124020 On ch=1 n=f#6 v=100
124020 On ch=1 n=c#6 v=100
124139 On ch=1 n=c#6 v=0
124139 On ch=1 n=c#7 v=0
124139 On ch=1 n=a6 v=0
124139 On ch=1 n=f#6 v=0
124220 On ch=1 n=g6 v=100
124220 On ch=1 n=g5 v=100
124259 On ch=1 n=g5 v=0
124260 On ch=1 n=d6 v=100
124260 On ch=1 n=a#6 v=100
124260 On ch=1 n=a#5 v=100
124339 On ch=1 n=a#5 v=0
124339 On ch=1 n=g6 v=0
124339 On ch=1 n=d6 v=0
124339 On ch=1 n=a#6 v=0
124340 On ch=1 n=f#6 v=100
124340 On ch=1 n=f#5 v=100
124379 On ch=1 n=f#5 v=0
124380 On ch=1 n=c#6 v=100
124380 On ch=1 n=a6 v=100
124499 On ch=1 n=a6 v=0
124499 On ch=1 n=c#6 v=0
124499 On ch=1 n=f#6 v=0
124620 On ch=1 n=a#6 v=100
124620 On ch=1 n=g6 v=100
124620 On ch=1 n=d6 v=100
124620 On ch=1 n=a#5 v=100
124739 On ch=1 n=a#5 v=0
124739 On ch=1 n=a#6 v=0
124739 On ch=1 n=g6 v=0
124739 On ch=1 n=d6 v=0
124740 On ch=1 n=a#5 v=100
124740 On ch=1 n=e6 v=100
124740 On ch=1 n=e5 v=100
124859 On ch=1 n=e5 v=0
124859 On ch=1 n=e6 v=0
124859 On ch=1 n=a#5 v=0
124860 On ch=1 n=a#6 v=100
124860 On ch=1 n=g6 v=100
124860 On ch=1 n=d6 v=100
124860 On ch=1 n=a#5 v=100
124979 On ch=1 n=a#5 v=0
124979 On ch=1 n=a#6 v=0
124979 On ch=1 n=g6 v=0
124979 On ch=1 n=d6 v=0
124980 On ch=1 n=d#5 v=100
124980 On ch=1 n=b5 v=100
124980 On ch=1 n=d#6 v=100
125099 On ch=1 n=d#6 v=0
125099 On ch=1 n=b5 v=0
125099 On ch=1 n=d#5 v=0
125100 On ch=1 n=a#5 v=100
125100 On ch=1 n=d6 v=100
125100 On ch=1 n=g6 v=100
125100 On ch=1 n=a#6 v=100
125219 On ch=1 n=a#6 v=0
125219 On ch=1 n=a#5 v=0
125219 On ch=1 n=d6 v=0
125219 On ch=1 n=g6 v=0
125220 On ch=1 n=a#5 v=100
125220 On ch=1 n=c#6 v=100
125220 On ch=1 n=c#5 v=100
125339 On ch=1 n=c#5 v=0
125339 On ch=1 n=c#6 v=0
125339 On ch=1 n=a#5 v=0
125340 On ch=1 n=a#6 v=100
125340 On ch=1 n=f6 v=100
125340 On ch=1 n=d6 v=100
125340 On ch=1 n=a#5 v=100
125459 On ch=1 n=a#5 v=0
125459 On ch=1 n=a#6 v=0
125459 On ch=1 n=f6 v=0
125459 On ch=1 n=d6 v=0
125460 On ch=1 n=d#5 v=100
125460 On ch=1 n=f#5 v=100
125460 On ch=1 n=c6 v=100
125460 On ch=1 n=c5 v=100
125579 On ch=1 n=c5 v=0
125579 On ch=1 n=d#5 v=0
125579 On ch=1 n=f#5 v=0
125579 On ch=1 n=c6 v=0
125580 On ch=1 n=a#6 v=100
125580 On ch=1 n=f6 v=100
125580 On ch=1 n=d6 v=100
125580 On ch=1 n=a#5 v=100
125699 On ch=1 n=a#5 v=0
125699 On ch=1 n=a#6 v=0
125699 On ch=1 n=f6 v=0
125699 On ch=1 n=d6 v=0
125760 On ch=1 n=f5 v=100
125760 On ch=1 n=d5 v=100
125760 On ch=1 n=a#4 v=100
125760 On ch=1 n=d4 v=100
125819 On ch=1 n=d4 v=0
125819 On ch=1 n=f5 v=0
125819 On ch=1 n=d5 v=0
125819 On ch=1 n=a#4 v=0
125820 On ch=1 n=d4 v=100
125820 On ch=1 n=a#4 v=100
125820 On ch=1 n=d5 v=100
125939 On ch=1 n=d5 v=0
125939 On ch=1 n=a#4 v=0
125939 On ch=1 n=d4 v=0
126000 On ch=1 n=f5 v=100
126000 On ch=1 n=d5 v=100
126000 On ch=1 n=a#4 v=100
126000 On ch=1 n=d4 v=100
126059 On ch=1 n=d4 v=0
126059 On ch=1 n=f5 v=0
126059 On ch=1 n=d5 v=0
126059 On ch=1 n=a#4 v=0
126060 On ch=1 n=d4 v=100
126060 On ch=1 n=a#4 v=100
126060 On ch=1 n=d5 v=100
126179 On ch=1 n=d5 v=0
126179 On ch=1 n=a#4 v=0
126179 On ch=1 n=d4 v=0
126240 On ch=1 n=d4 v=100
126240 On ch=1 n=a#4 v=100
126240 On ch=1 n=d5 v=100
126240 On ch=1 n=f5 v=100
126299 On ch=1 n=f5 v=0
126299 On ch=1 n=d4 v=0
126299 On ch=1 n=a#4 v=0
126299 On ch=1 n=d5 v=0
126300 On ch=1 n=a#4 v=100
126300 On ch=1 n=d5 v=100
126300 On ch=1 n=d4 v=100
126329 On ch=1 n=d4 v=0
126329 On ch=1 n=d5 v=0
126329 On ch=1 n=a#4 v=0
126360 On ch=1 n=d4 v=100
126360 On ch=1 n=a#4 v=100
126360 On ch=1 n=d5 v=100
126389 On ch=1 n=d5 v=0
126389 On ch=1 n=a#4 v=0
126389 On ch=1 n=d4 v=0
126420 On ch=1 n=d4 v=100
126420 On ch=1 n=a#4 v=100
126420 On ch=1 n=d5 v=100
126449 On ch=1 n=d5 v=0
126449 On ch=1 n=a#4 v=0
126449 On ch=1 n=d4 v=0
126480 On ch=1 n=d4 v=100
126480 On ch=1 n=a4 v=100
126480 On ch=1 n=d5 v=100
126509 On ch=1 n=d5 v=0
126509 On ch=1 n=a4 v=0
126509 On ch=1 n=d4 v=0
126540 On ch=1 n=d4 v=100
126540 On ch=1 n=a#4 v=100
126540 On ch=1 n=d5 v=100
126569 On ch=1 n=d5 v=0
126569 On ch=1 n=a#4 v=0
126569 On ch=1 n=d4 v=0
126600 On ch=1 n=d4 v=100
126600 On ch=1 n=g#4 v=100
126600 On ch=1 n=d5 v=100
126629 On ch=1 n=d5 v=0
126629 On ch=1 n=g#4 v=0
126629 On ch=1 n=d4 v=0
126660 On ch=1 n=d4 v=100
126660 On ch=1 n=a#4 v=100
126660 On ch=1 n=d5 v=100
126689 On ch=1 n=d5 v=0
126689 On ch=1 n=a#4 v=0
126689 On ch=1 n=d4 v=0
126720 On ch=1 n=d4 v=100
126720 On ch=1 n=g4 v=100
126720 On ch=1 n=d5 v=100
126749 On ch=1 n=d5 v=0
126749 On ch=1 n=g4 v=0
126749 On ch=1 n=d4 v=0
126780 On ch=1 n=d4 v=100
126780 On ch=1 n=a#4 v=100
126780 On ch=1 n=d5 v=100
126809 On ch=1 n=d5 v=0
126809 On ch=1 n=a#4 v=0
126809 On ch=1 n=d4 v=0
126840 On ch=1 n=d4 v=100
126840 On ch=1 n=f#4 v=100
126840 On ch=1 n=d5 v=100
126869 On ch=1 n=d5 v=0
126869 On ch=1 n=f#4 v=0
126869 On ch=1 n=d4 v=0
126900 On ch=1 n=d4 v=100
126900 On ch=1 n=a#4 v=100
126900 On ch=1 n=d5 v=100
126929 On ch=1 n=d5 v=0
126929 On ch=1 n=a#4 v=0
126929 On ch=1 n=d4 v=0
126960 On ch=1 n=f4 v=100
126989 On ch=1 n=f4 v=0
127020 On ch=1 n=c#5 v=100
127020 On ch=1 n=a#4 v=100
127020 On ch=1 n=f#4 v=100
127020 On ch=1 n=c#4 v=100
127099 On ch=1 n=c#4 v=0
127099 On ch=1 n=c#5 v=0
127099 On ch=1 n=a#4 v=0
127099 On ch=1 n=f#4 v=0
127100 On ch=1 n=c#6 v=100
127100 On ch=1 n=a#5 v=100
127140 On ch=1 n=a#6 v=100
127140 On ch=1 n=f#6 v=100
127339 On ch=1 n=f#6 v=0
127339 On ch=1 n=c#6 v=0
127339 On ch=1 n=a#5 v=0
127339 On ch=1 n=a#6 v=0
127340 On ch=1 n=c#5 v=100
127340 On ch=1 n=a#5 v=100
127340 On ch=1 n=c#6 v=100
127379 On ch=1 n=c#6 v=0
127379 On ch=1 n=a#5 v=0
127379 On ch=1 n=c#5 v=0
127380 On ch=1 n=g#6 v=100
127380 On ch=1 n=f6 v=100
127380 On ch=1 n=d6 v=100
127380 On ch=1 n=a#5 v=100
127380 On ch=1 n=g#5 v=100
127579 On ch=1 n=g#5 v=0
127579 On ch=1 n=d6 v=0
127579 On ch=1 n=g#6 v=0
127579 On ch=1 n=f6 v=0
127579 On ch=1 n=a#5 v=0
127580 On ch=1 n=c#6 v=100
127580 On ch=1 n=a#5 v=100
127580 On ch=1 n=c#5 v=100
127619 On ch=1 n=c#5 v=0
127619 On ch=1 n=a#5 v=0
127619 On ch=1 n=c#6 v=0
127620 On ch=1 n=f#6 v=100
127620 On ch=1 n=c#6 v=100
127620 On ch=1 n=a#5 v=100
127620 On ch=1 n=f#5 v=100
127819 On ch=1 n=f#5 v=0
127819 On ch=1 n=f#6 v=0
127819 On ch=1 n=c#6 v=0
127819 On ch=1 n=a#5 v=0
127820 On ch=1 n=a#4 v=100
127820 On ch=1 n=f#5 v=100
127820 On ch=1 n=a#5 v=100
127859 On ch=1 n=a#5 v=0
127859 On ch=1 n=f#5 v=0
127859 On ch=1 n=a#4 v=0
127860 On ch=1 n=f6 v=100
127860 On ch=1 n=c#6 v=100
127860 On ch=1 n=a#5 v=100
127860 On ch=1 n=f#5 v=100
127860 On ch=1 n=f5 v=100
128059 On ch=1 n=f5 v=0
128059 On ch=1 n=a#5 v=0
128059 On ch=1 n=f6 v=0
128059 On ch=1 n=c#6 v=0
128059 On ch=1 n=f#5 v=0
128060 On ch=1 n=a#5 v=100
128060 On ch=1 n=f#5 v=100
128060 On ch=1 n=a#4 v=100
128099 On ch=1 n=a#4 v=0
128100 On ch=1 n=d#6 v=100
128100 On ch=1 n=b5 v=100
128100 On ch=1 n=d#5 v=100
128299 On ch=1 n=d#5 v=0
128299 On ch=1 n=d#6 v=0
128299 On ch=1 n=a#5 v=0
128299 On ch=1 n=f#5 v=0
128299 On ch=1 n=b5 v=0
128300 On ch=1 n=a#5 v=100
128300 On ch=1 n=f#5 v=100
128300 On ch=1 n=a#4 v=100
128339 On ch=1 n=a#4 v=0
128340 On ch=1 n=c#6 v=100
128340 On ch=1 n=c#5 v=100
128459 On ch=1 n=c#5 v=0
128459 On ch=1 n=a#5 v=0
128459 On ch=1 n=f#5 v=0
128459 On ch=1 n=c#6 v=0
128540 On ch=1 n=d5 v=100
128579 On ch=1 n=d5 v=0
128580 On ch=1 n=g#5 v=100
128580 On ch=1 n=c6 v=100
128619 On ch=1 n=c6 v=0
128619 On ch=1 n=g#5 v=0
128620 On ch=1 n=f6 v=100
128659 On ch=1 n=f6 v=0
128660 On ch=1 n=d#5 v=100
128699 On ch=1 n=d#5 v=0
128700 On ch=1 n=a5 v=100
128700 On ch=1 n=c#6 v=100
128739 On ch=1 n=c#6 v=0
128739 On ch=1 n=a5 v=0
128740 On ch=1 n=f6 v=100
128779 On ch=1 n=f6 v=0
128780 On ch=1 n=f5 v=100
128819 On ch=1 n=f5 v=0
128820 On ch=1 n=d6 v=100
128820 On ch=1 n=a#5 v=100
128859 On ch=1 n=a#5 v=0
128859 On ch=1 n=d6 v=0
128860 On ch=1 n=f6 v=100
128899 On ch=1 n=f6 v=0
128900 On ch=1 n=f#5 v=100
128939 On ch=1 n=f#5 v=0
128940 On ch=1 n=c#6 v=100
128940 On ch=1 n=a#5 v=100
128979 On ch=1 n=a#5 v=0
128979 On ch=1 n=c#6 v=0
128980 On ch=1 n=f#6 v=100
129019 On ch=1 n=f#6 v=0
129020 On ch=1 n=g5 v=100
129059 On ch=1 n=g5 v=0
129060 On ch=1 n=d6 v=100
129060 On ch=1 n=a#5 v=100
129099 On ch=1 n=a#5 v=0
129099 On ch=1 n=d6 v=0
129100 On ch=1 n=g6 v=100
129139 On ch=1 n=g6 v=0
129260 On ch=1 n=d#5 v=100
129299 On ch=1 n=d#5 v=0
129300 On ch=1 n=d6 v=100
129300 On ch=1 n=a#5 v=100
129339 On ch=1 n=a#5 v=0
129339 On ch=1 n=d6 v=0
129340 On ch=1 n=g6 v=100
129379 On ch=1 n=g6 v=0
129380 On ch=1 n=f5 v=100
129419 On ch=1 n=f5 v=0
129420 On ch=1 n=d6 v=100
129420 On ch=1 n=b5 v=100
129459 On ch=1 n=b5 v=0
129459 On ch=1 n=d6 v=0
129460 On ch=1 n=g6 v=100
129499 On ch=1 n=g6 v=0
129500 On ch=1 n=g5 v=100
129539 On ch=1 n=g5 v=0
129540 On ch=1 n=d#6 v=100
129540 On ch=1 n=c6 v=100
129579 On ch=1 n=c6 v=0
129579 On ch=1 n=d#6 v=0
129580 On ch=1 n=g6 v=100
129619 On ch=1 n=g6 v=0
129620 On ch=1 n=g#5 v=100
129659 On ch=1 n=g#5 v=0
129660 On ch=1 n=d#6 v=100
129660 On ch=1 n=c6 v=100
129699 On ch=1 n=c6 v=0
129699 On ch=1 n=d#6 v=0
129700 On ch=1 n=g#6 v=100
129739 On ch=1 n=g#6 v=0
129740 On ch=1 n=a5 v=100
129779 On ch=1 n=a5 v=0
129780 On ch=1 n=d#6 v=100
129780 On ch=1 n=c6 v=100
129819 On ch=1 n=c6 v=0
129819 On ch=1 n=d#6 v=0
129820 On ch=1 n=a6 v=100
129859 On ch=1 n=a6 v=0
129860 On ch=1 n=a5 v=100
129899 On ch=1 n=a5 v=0
129900 On ch=1 n=d6 v=100
129939 On ch=1 n=d6 v=0
129940 On ch=1 n=a6 v=100
129979 On ch=1 n=a6 v=0
129980 On ch=1 n=d6 v=100
130019 On ch=1 n=d6 v=0
130020 On ch=1 n=a6 v=100
130059 On ch=1 n=a6 v=0
130060 On ch=1 n=d7 v=100
130099 On ch=1 n=d7 v=0
130100 On ch=1 n=a6 v=100
130139 On ch=1 n=a6 v=0
130140 On ch=1 n=d7 v=100
130179 On ch=1 n=d7 v=0
130180 On ch=1 n=a7 v=100
130219 On ch=1 n=a7 v=0
130220 On ch=1 n=d7 v=100
130259 On ch=1 n=d7 v=0
130260 On ch=1 n=a7 v=100
130299 On ch=1 n=a7 v=0
130300 On ch=1 n=d8 v=100
130339 On ch=1 n=d8 v=0
130340 On ch=1 n=a7 v=100
130379 On ch=1 n=a7 v=0
130380 On ch=1 n=d8 v=100
130419 On ch=1 n=d8 v=0
130420 On ch=1 n=a8 v=100
130459 On ch=1 n=a8 v=0
130460 On ch=1 n=a7 v=100
130499 On ch=1 n=a7 v=0
130500 On ch=1 n=c8 v=100
130539 On ch=1 n=c8 v=0
130540 On ch=1 n=g7 v=100
130579 On ch=1 n=g7 v=0
130580 On ch=1 n=c7 v=100
130619 On ch=1 n=c7 v=0
130620 On ch=1 n=f7 v=100
130620 On ch=1 n=a6 v=100
130739 On ch=1 n=a6 v=0
130739 On ch=1 n=f7 v=0
130740 On ch=1 n=a#6 v=100
130740 On ch=1 n=d6 v=100
130859 On ch=1 n=d6 v=0
130859 On ch=1 n=a#6 v=0
130860 On ch=1 n=d6 v=100
130860 On ch=1 n=a5 v=100
130860 On ch=1 n=f5 v=100
130860 On ch=1 n=f6 v=100
130979 On ch=1 n=f6 v=0
130979 On ch=1 n=d6 v=0
130979 On ch=1 n=a5 v=0
130979 On ch=1 n=f5 v=0
130980 On ch=1 n=g5 v=100
130980 On ch=1 n=d5 v=100
130980 On ch=1 n=a#4 v=100
130980 On ch=1 n=a#5 v=100
131099 On ch=1 n=a#5 v=0
131099 On ch=1 n=g5 v=0
131099 On ch=1 n=d5 v=0
131099 On ch=1 n=a#4 v=0
131100 On ch=1 n=f4 v=100
131100 On ch=1 n=b4 v=100
131100 On ch=1 n=f5 v=100
131219 On ch=1 n=f5 v=0
131219 On ch=1 n=b4 v=0
131219 On ch=1 n=f4 v=0
131220 On ch=1 n=d4 v=100
131220 On ch=1 n=a#4 v=100
131339 On ch=1 n=a#4 v=0
131339 On ch=1 n=d4 v=0
131340 On ch=1 n=d7 v=100
131340 On ch=1 n=d6 v=100
131579 On ch=1 n=d6 v=0
131579 On ch=1 n=d7 v=0
131580 On ch=1 n=d4 v=100
131580 On ch=1 n=d5 v=100
131699 On ch=1 n=d5 v=0
131699 On ch=1 n=d4 v=0
131700 On ch=1 n=c5 v=100
131739 On ch=1 n=c5 v=0
131740 On ch=1 n=d5 v=100
131779 On ch=1 n=d5 v=0
131780 On ch=1 n=d#5 v=100
131819 On ch=1 n=d#5 v=0
131820 On ch=1 n=a#4 v=100
131820 On ch=1 n=d5 v=100
131820 On ch=1 n=f5 v=100
131859 On ch=1 n=f5 v=0
131859 On ch=1 n=d5 v=0
131859 On ch=1 n=a#4 v=0
131940 On ch=1 n=g4 v=100
131940 On ch=1 n=g5 v=100
131940 On ch=1 n=d#5 v=100
132059 On ch=1 n=d#5 v=0
132059 On ch=1 n=g5 v=0
132059 On ch=1 n=g4 v=0
132060 On ch=1 n=g5 v=100
132060 On ch=1 n=g6 v=100
132180 On ch=1 n=f#5 v=100
132180 On ch=1 n=d5 v=100
132180 On ch=1 n=a5 v=100
132219 On ch=1 n=a5 v=0
132219 On ch=1 n=f#5 v=0
132219 On ch=1 n=d5 v=0
132300 On ch=1 n=a#5 v=100
132300 On ch=1 n=g5 v=100
132300 On ch=1 n=a#4 v=100
132419 On ch=1 n=a#4 v=0
132419 On ch=1 n=a#5 v=0
132419 On ch=1 n=g5 v=0
132419 On ch=1 n=g6 v=0
132419 On ch=1 n=g5 v=0
132420 On ch=1 n=d7 v=100
132420 On ch=1 n=d6 v=100
132659 On ch=1 n=d6 v=0
132659 On ch=1 n=d7 v=0
132660 On ch=1 n=d4 v=100
132660 On ch=1 n=d5 v=100
132779 On ch=1 n=d5 v=0
132779 On ch=1 n=d4 v=0
132780 On ch=1 n=g4 v=100
132819 On ch=1 n=g4 v=0
132820 On ch=1 n=a4 v=100
132859 On ch=1 n=a4 v=0
132860 On ch=1 n=a#4 v=100
132899 On ch=1 n=a#4 v=0
132900 On ch=1 n=f4 v=100
132900 On ch=1 n=a4 v=100
132900 On ch=1 n=c5 v=100
132939 On ch=1 n=c5 v=0
132939 On ch=1 n=a4 v=0
132939 On ch=1 n=f4 v=0
133020 On ch=1 n=d4 v=100
133020 On ch=1 n=a#4 v=100
133020 On ch=1 n=d5 v=100
133139 On ch=1 n=d5 v=0
133139 On ch=1 n=a#4 v=0
133139 On ch=1 n=d4 v=0
133140 On ch=1 n=g5 v=100
133260 On ch=1 n=e5 v=100
133260 On ch=1 n=c#5 v=100
133260 On ch=1 n=a4 v=100
133299 On ch=1 n=a4 v=0
133299 On ch=1 n=c#5 v=0
133299 On ch=1 n=e5 v=0
133379 On ch=1 n=g5 v=0
133380 On ch=1 n=f#4 v=100
133380 On ch=1 n=d5 v=100
133380 On ch=1 n=f#5 v=100
133499 On ch=1 n=f#5 v=0
133499 On ch=1 n=d5 v=0
133499 On ch=1 n=f#4 v=0
133500 On ch=1 n=d6 v=100
133739 On ch=1 n=d6 v=0
133740 On ch=1 n=d4 v=100
133740 On ch=1 n=d5 v=100
133859 On ch=1 n=d5 v=0
133859 On ch=1 n=d4 v=0
133860 On ch=1 n=f#5 v=100
133860 On ch=1 n=d#5 v=100
133860 On ch=1 n=f#4 v=100
134219 On ch=1 n=f#4 v=0
134219 On ch=1 n=d#5 v=0
134219 On ch=1 n=f#5 v=0
134220 On ch=1 n=a#4 v=100
134339 On ch=1 n=a#4 v=0
134340 On ch=1 n=a4 v=100
134459 On ch=1 n=a4 v=0
134460 On ch=1 n=g#4 v=100
134579 On ch=1 n=g#4 v=0
134580 On ch=1 n=f#4 v=100
134699 On ch=1 n=f#4 v=0
134700 On ch=1 n=d#4 v=100
134819 On ch=1 n=d#4 v=0
134820 On ch=1 n=a#3 v=100
134999 On ch=1 n=a#3 v=0
135000 On ch=1 n=a3 v=100
135059 On ch=1 n=a3 v=0
135060 On ch=1 n=g#3 v=100
135119 On ch=1 n=g#3 v=0
135120 On ch=1 n=g3 v=100
135179 On ch=1 n=g3 v=0
135180 On ch=1 n=f#3 v=100
135239 On ch=1 n=f#3 v=0
135240 On ch=1 n=d#3 v=100
135299 On ch=1 n=d#3 v=0
135540 On ch=1 n=d5 v=100
135540 On ch=1 n=f#5 v=100
135579 On ch=1 n=f#5 v=0
135579 On ch=1 n=d5 v=0
135620 On ch=1 n=g5 v=100
135620 On ch=1 n=e5 v=100
135659 On ch=1 n=e5 v=0
135659 On ch=1 n=g5 v=0
135660 On ch=1 n=a5 v=100
135660 On ch=1 n=f#5 v=100
135660 On ch=1 n=d5 v=100
135899 On ch=1 n=d5 v=0
135899 On ch=1 n=f#5 v=0
135899 On ch=1 n=a5 v=0
135900 On ch=1 n=a#5 v=100
135900 On ch=1 n=f5 v=100
135900 On ch=1 n=d5 v=100
135900 On ch=1 n=a#4 v=100
136019 On ch=1 n=a#4 v=0
136019 On ch=1 n=a#5 v=0
136019 On ch=1 n=f5 v=0
136019 On ch=1 n=d5 v=0
136020 On ch=1 n=e5 v=100
136020 On ch=1 n=c5 v=100
136059 On ch=1 n=c5 v=0
136059 On ch=1 n=e5 v=0
136100 On ch=1 n=f5 v=100
136100 On ch=1 n=d5 v=100
136139 On ch=1 n=d5 v=0
136139 On ch=1 n=f5 v=0
136140 On ch=1 n=g5 v=100
136140 On ch=1 n=e5 v=100
136140 On ch=1 n=c5 v=100
136379 On ch=1 n=c5 v=0
136379 On ch=1 n=e5 v=0
136379 On ch=1 n=g5 v=0
136380 On ch=1 n=d#5 v=100
136380 On ch=1 n=c5 v=100
136380 On ch=1 n=a4 v=100
136380 On ch=1 n=a5 v=100
136419 On ch=1 n=a5 v=0
136419 On ch=1 n=d#5 v=0
136419 On ch=1 n=c5 v=0
136419 On ch=1 n=a4 v=0
136500 On ch=1 n=d5 v=100
136500 On ch=1 n=a#4 v=100
136539 On ch=1 n=a#4 v=0
136539 On ch=1 n=d5 v=0
136580 On ch=1 n=a#4 v=100
136580 On ch=1 n=c5 v=100
136580 On ch=1 n=d#5 v=100
136619 On ch=1 n=d#5 v=0
136619 On ch=1 n=c5 v=0
136619 On ch=1 n=a#4 v=0
136620 On ch=1 n=f5 v=100
136620 On ch=1 n=d5 v=100
136620 On ch=1 n=a#4 v=100
136739 On ch=1 n=a#4 v=0
136739 On ch=1 n=d5 v=0
136739 On ch=1 n=f5 v=0
136740 On ch=1 n=a#4 v=100
136740 On ch=1 n=c#5 v=100
136740 On ch=1 n=g4 v=100
136740 On ch=1 n=g5 v=100
136859 On ch=1 n=g5 v=0
136859 On ch=1 n=a#4 v=0
136859 On ch=1 n=c#5 v=0
136859 On ch=1 n=g4 v=0
136860 On ch=1 n=c#5 v=100
136860 On ch=1 n=a4 v=100
136860 On ch=1 n=g4 v=100
136860 On ch=1 n=g5 v=100
137099 On ch=1 n=g5 v=0
137099 On ch=1 n=c#5 v=0
137099 On ch=1 n=a4 v=0
137099 On ch=1 n=g4 v=0
137100 On ch=1 n=d5 v=100
137100 On ch=1 n=f#5 v=100
137100 On ch=1 n=a5 v=100
137100 On ch=1 n=a4 v=100
137219 On ch=1 n=a4 v=0
137219 On ch=1 n=d5 v=0
137219 On ch=1 n=f#5 v=0
137219 On ch=1 n=a5 v=0
137220 On ch=1 n=d#6 v=100
137220 On ch=1 n=f#6 v=100
137220 On ch=1 n=f#5 v=100
137459 On ch=1 n=f#5 v=0
137459 On ch=1 n=f#6 v=0
137459 On ch=1 n=d#6 v=0
137460 On ch=1 n=f#5 v=100
137460 On ch=1 n=d5 v=100
137499 On ch=1 n=d5 v=0
137499 On ch=1 n=f#5 v=0
137540 On ch=1 n=g5 v=100
137540 On ch=1 n=d#5 v=100
137579 On ch=1 n=d#5 v=0
137579 On ch=1 n=g5 v=0
137580 On ch=1 n=a5 v=100
137580 On ch=1 n=f#5 v=100
137580 On ch=1 n=d5 v=100
137819 On ch=1 n=d5 v=0
137819 On ch=1 n=f#5 v=0
137819 On ch=1 n=a5 v=0
137820 On ch=1 n=f5 v=100
137820 On ch=1 n=c#5 v=100
137820 On ch=1 n=b4 v=100
137820 On ch=1 n=b5 v=100
137939 On ch=1 n=b5 v=0
137939 On ch=1 n=f5 v=0
137939 On ch=1 n=c#5 v=0
137939 On ch=1 n=b4 v=0
137940 On ch=1 n=e5 v=100
137940 On ch=1 n=c5 v=100
137979 On ch=1 n=c5 v=0
137979 On ch=1 n=e5 v=0
138020 On ch=1 n=f5 v=100
138020 On ch=1 n=d5 v=100
138059 On ch=1 n=d5 v=0
138059 On ch=1 n=f5 v=0
138060 On ch=1 n=g5 v=100
138060 On ch=1 n=e5 v=100
138060 On ch=1 n=c5 v=100
138299 On ch=1 n=c5 v=0
138299 On ch=1 n=e5 v=0
138299 On ch=1 n=g5 v=0
138300 On ch=1 n=b4 v=100
138300 On ch=1 n=d#5 v=100
138300 On ch=1 n=a5 v=100
138300 On ch=1 n=a4 v=100
138419 On ch=1 n=a4 v=0
138419 On ch=1 n=b4 v=0
138419 On ch=1 n=d#5 v=0
138419 On ch=1 n=a5 v=0
138420 On ch=1 n=d5 v=100
138420 On ch=1 n=a#4 v=100
138459 On ch=1 n=a#4 v=0
138459 On ch=1 n=d5 v=0
138500 On ch=1 n=d#5 v=100
138500 On ch=1 n=c5 v=100
138500 On ch=1 n=a#4 v=100
138539 On ch=1 n=a#4 v=0
138539 On ch=1 n=c5 v=0
138539 On ch=1 n=d#5 v=0
138540 On ch=1 n=f5 v=100
138540 On ch=1 n=d5 v=100
138540 On ch=1 n=a#4 v=100
138579 On ch=1 n=a#4 v=0
138579 On ch=1 n=d5 v=0
138579 On ch=1 n=f5 v=0
138660 On ch=1 n=g4 v=100
138660 On ch=1 n=g5 v=100
138660 On ch=1 n=c#5 v=100
138660 On ch=1 n=a#4 v=100
138699 On ch=1 n=a#4 v=0
138699 On ch=1 n=g4 v=0
138699 On ch=1 n=g5 v=0
138699 On ch=1 n=c#5 v=0
138780 On ch=1 n=g5 v=100
138780 On ch=1 n=c#5 v=100
138780 On ch=1 n=a4 v=100
138780 On ch=1 n=g4 v=100
139019 On ch=1 n=g4 v=0
139019 On ch=1 n=g5 v=0
139019 On ch=1 n=c#5 v=0
139019 On ch=1 n=a4 v=0
139020 On ch=1 n=a5 v=100
139020 On ch=1 n=f#5 v=100
139020 On ch=1 n=d5 v=100
139020 On ch=1 n=a4 v=100
139139 On ch=1 n=a4 v=0
139139 On ch=1 n=a5 v=0
139139 On ch=1 n=f#5 v=0
139139 On ch=1 n=d5 v=0
139140 On ch=1 n=a#6 v=100
139140 On ch=1 n=f#6 v=100
139140 On ch=1 n=a#5 v=100
139379 On ch=1 n=a#5 v=0
139379 On ch=1 n=f#6 v=0
139379 On ch=1 n=a#6 v=0
139380 On ch=1 n=f#5 v=100
139380 On ch=1 n=a#5 v=100
139499 On ch=1 n=f#5 v=0
139500 On ch=1 n=a5 v=100
139500 On ch=1 n=f5 v=100
139619 On ch=1 n=f5 v=0
139619 On ch=1 n=a5 v=0
139620 On ch=1 n=e5 v=100
139620 On ch=1 n=g#5 v=100
139859 On ch=1 n=g#5 v=0
139859 On ch=1 n=e5 v=0
139860 On ch=1 n=g5 v=100
139860 On ch=1 n=d#5 v=100
139979 On ch=1 n=d#5 v=0
139979 On ch=1 n=g5 v=0
139979 On ch=1 n=a#5 v=0
139980 On ch=1 n=g5 v=100
139980 On ch=1 n=d5 v=100
139980 On ch=1 n=g#4 v=100
140039 On ch=1 n=g5 v=0
140040 On ch=1 n=g5 v=100
140099 On ch=1 n=g#4 v=0
140099 On ch=1 n=d5 v=0
140100 On ch=1 n=g6 v=100
140100 On ch=1 n=c6 v=100
140159 On ch=1 n=c6 v=0
140159 On ch=1 n=g5 v=0
140160 On ch=1 n=d5 v=100
140219 On ch=1 n=d5 v=0
140220 On ch=1 n=b5 v=100
140220 On ch=1 n=g5 v=100
140279 On ch=1 n=g5 v=0
140279 On ch=1 n=b5 v=0
140279 On ch=1 n=g6 v=0
140280 On ch=1 n=a#5 v=100
140280 On ch=1 n=a#4 v=100
140339 On ch=1 n=a#4 v=0
140339 On ch=1 n=a#5 v=0
140340 On ch=1 n=d5 v=100
140340 On ch=1 n=g5 v=100
140340 On ch=1 n=a#5 v=100
140399 On ch=1 n=g5 v=0
140399 On ch=1 n=d5 v=0
140400 On ch=1 n=c5 v=100
140459 On ch=1 n=c5 v=0
140459 On ch=1 n=a#5 v=0
140460 On ch=1 n=a5 v=100
140460 On ch=1 n=d#5 v=100
140460 On ch=1 n=d#6 v=100
140519 On ch=1 n=d#5 v=0
140519 On ch=1 n=a5 v=0
140520 On ch=1 n=b4 v=100
140579 On ch=1 n=b4 v=0
140580 On ch=1 n=g#5 v=100
140580 On ch=1 n=d#5 v=100
140639 On ch=1 n=d#5 v=0
140639 On ch=1 n=g#5 v=0
140640 On ch=1 n=a#4 v=100
140699 On ch=1 n=a#4 v=0
140699 On ch=1 n=d#6 v=0
140700 On ch=1 n=d6 v=100
140760 On ch=1 n=b4 v=100
140819 On ch=1 n=b4 v=0
140820 On ch=1 n=g5 v=100
140820 On ch=1 n=d5 v=100
140879 On ch=1 n=d5 v=0
140879 On ch=1 n=g5 v=0
140880 On ch=1 n=a#4 v=100
140939 On ch=1 n=a#4 v=0
140939 On ch=1 n=d6 v=0
140940 On ch=1 n=d5 v=100
140940 On ch=1 n=f#5 v=100
140940 On ch=1 n=b5 v=100
140999 On ch=1 n=f#5 v=0
140999 On ch=1 n=d5 v=0
141000 On ch=1 n=a4 v=100
141059 On ch=1 n=a4 v=0
141059 On ch=1 n=b5 v=0
141060 On ch=1 n=b5 v=100
141120 On ch=1 n=a4 v=100
141179 On ch=1 n=a4 v=0
141180 On ch=1 n=c#5 v=100
141180 On ch=1 n=f5 v=100
141239 On ch=1 n=f5 v=0
141239 On ch=1 n=c#5 v=0
141240 On ch=1 n=g#4 v=100
141299 On ch=1 n=g#4 v=0
141299 On ch=1 n=b5 v=0
141300 On ch=1 n=c#5 v=100
141300 On ch=1 n=f5 v=100
141300 On ch=1 n=g5 v=100
141359 On ch=1 n=f5 v=0
141359 On ch=1 n=c#5 v=0
141360 On ch=1 n=g4 v=100
141419 On ch=1 n=g4 v=0
141419 On ch=1 n=g5 v=0
141480 On ch=1 n=c5 v=100
141539 On ch=1 n=c5 v=0
141540 On ch=1 n=g5 v=100
141540 On ch=1 n=a#5 v=100
141599 On ch=1 n=a#5 v=0
141599 On ch=1 n=g5 v=0
141600 On ch=1 n=c5 v=100
141659 On ch=1 n=c5 v=0
141660 On ch=1 n=f5 v=100
141660 On ch=1 n=g#5 v=100
141719 On ch=1 n=g#5 v=0
141719 On ch=1 n=f5 v=0
141720 On ch=1 n=c5 v=100
141779 On ch=1 n=c5 v=0
141780 On ch=1 n=d#5 v=100
141780 On ch=1 n=g5 v=100
141839 On ch=1 n=d#5 v=0
141840 On ch=1 n=a#4 v=100
141899 On ch=1 n=a#4 v=0
141899 On ch=1 n=g5 v=0
141900 On ch=1 n=d#5 v=100
141900 On ch=1 n=f5 v=100
141959 On ch=1 n=d#5 v=0
141960 On ch=1 n=a4 v=100
142019 On ch=1 n=a4 v=0
142019 On ch=1 n=f5 v=0
142020 On ch=1 n=d5 v=100
142020 On ch=1 n=g5 v=100
142080 On ch=1 n=g#4 v=100
142139 On ch=1 n=g5 v=0
142139 On ch=1 n=d5 v=0
142140 On ch=1 n=a#4 v=100
142199 On ch=1 n=g#4 v=0
142259 On ch=1 n=a#4 v=0
142260 On ch=1 n=c6 v=100
142260 On ch=1 n=g5 v=100
142319 On ch=1 n=c6 v=0
142320 On ch=1 n=d5 v=100
142379 On ch=1 n=d5 v=0
142379 On ch=1 n=g5 v=0
142380 On ch=1 n=b5 v=100
142380 On ch=1 n=g5 v=100
142439 On ch=1 n=g5 v=0
142439 On ch=1 n=b5 v=0
142440 On ch=1 n=a#4 v=100
142440 On ch=1 n=a#5 v=100
142499 On ch=1 n=a#5 v=0
142499 On ch=1 n=a#4 v=0
142500 On ch=1 n=d5 v=100
142500 On ch=1 n=a#5 v=100
142500 On ch=1 n=g5 v=100
142559 On ch=1 n=d5 v=0
142560 On ch=1 n=c#5 v=100
142619 On ch=1 n=c#5 v=0
142619 On ch=1 n=g5 v=0
142619 On ch=1 n=a#5 v=0
142620 On ch=1 n=d#6 v=100
142620 On ch=1 n=a5 v=100
142620 On ch=1 n=d#5 v=100
142679 On ch=1 n=d#5 v=0
142679 On ch=1 n=a5 v=0
142680 On ch=1 n=b4 v=100
142739 On ch=1 n=b4 v=0
142740 On ch=1 n=d#5 v=100
142740 On ch=1 n=g#5 v=100
142799 On ch=1 n=g#5 v=0
142799 On ch=1 n=d#5 v=0
142800 On ch=1 n=g5 v=100
142800 On ch=1 n=a#4 v=100
142859 On ch=1 n=a#4 v=0
142859 On ch=1 n=g5 v=0
142859 On ch=1 n=d#6 v=0
142860 On ch=1 n=g5 v=100
142860 On ch=1 n=a#5 v=100
142860 On ch=1 n=d6 v=100
142919 On ch=1 n=g5 v=0
142920 On ch=1 n=f#5 v=100
142979 On ch=1 n=f#5 v=0
142979 On ch=1 n=d6 v=0
142979 On ch=1 n=a#5 v=0
142980 On ch=1 n=f5 v=100
142980 On ch=1 n=a5 v=100
142980 On ch=1 n=c#6 v=100
143039 On ch=1 n=f5 v=0
143040 On ch=1 n=e5 v=100
143159 On ch=1 n=e5 v=0
143159 On ch=1 n=c#6 v=0
143160 On ch=1 n=f5 v=100
143160 On ch=1 n=d6 v=100
143219 On ch=1 n=d6 v=0
143219 On ch=1 n=f5 v=0
143219 On ch=1 n=a5 v=0
143220 On ch=1 n=e5 v=100
143220 On ch=1 n=g#5 v=100
143220 On ch=1 n=c6 v=100
143279 On ch=1 n=e5 v=0
143280 On ch=1 n=d#5 v=100
143399 On ch=1 n=d#5 v=0
143399 On ch=1 n=c6 v=0
143400 On ch=1 n=e5 v=100
143400 On ch=1 n=d6 v=100
143459 On ch=1 n=d6 v=0
143459 On ch=1 n=e5 v=0
143459 On ch=1 n=g#5 v=0
143460 On ch=1 n=d#5 v=100
143460 On ch=1 n=g5 v=100
143460 On ch=1 n=a#5 v=100
143519 On ch=1 n=d#5 v=0
143520 On ch=1 n=d5 v=100
143579 On ch=1 n=d5 v=0
143579 On ch=1 n=a#5 v=0
143579 On ch=1 n=g5 v=0
143640 On ch=1 n=a#4 v=100
143699 On ch=1 n=a#4 v=0
143700 On ch=1 n=f5 v=100
143700 On ch=1 n=d5 v=100
143759 On ch=1 n=d5 v=0
143760 On ch=1 n=a#4 v=100
143819 On ch=1 n=a#4 v=0
143819 On ch=1 n=f5 v=0
143820 On ch=1 n=a#5 v=100
143820 On ch=1 n=d5 v=100
143820 On ch=1 n=f5 v=100
143879 On ch=1 n=f5 v=0
143879 On ch=1 n=d5 v=0
143880 On ch=1 n=a#4 v=100
143939 On ch=1 n=a#4 v=0
143939 On ch=1 n=a#5 v=0
143940 On ch=1 n=c6 v=100
144000 On ch=1 n=a#4 v=100
144059 On ch=1 n=a#4 v=0
144060 On ch=1 n=f5 v=100
144060 On ch=1 n=c#5 v=100
144119 On ch=1 n=c#5 v=0
144119 On ch=1 n=f5 v=0
144120 On ch=1 n=a#4 v=100
144179 On ch=1 n=a#4 v=0
144179 On ch=1 n=c6 v=0
144180 On ch=1 n=c#5 v=100
144180 On ch=1 n=f5 v=100
144180 On ch=1 n=a#5 v=100
144239 On ch=1 n=f5 v=0
144239 On ch=1 n=c#5 v=0
144240 On ch=1 n=a#4 v=100
144299 On ch=1 n=a#4 v=0
144360 On ch=1 n=a#4 v=100
144419 On ch=1 n=a#4 v=0
144419 On ch=1 n=a#5 v=0
144420 On ch=1 n=f5 v=100
144420 On ch=1 n=d5 v=100
144420 On ch=1 n=a5 v=100
144479 On ch=1 n=d5 v=0
144479 On ch=1 n=f5 v=0
144480 On ch=1 n=a#4 v=100
144539 On ch=1 n=a#4 v=0
144540 On ch=1 n=d5 v=100
144540 On ch=1 n=f5 v=100
144599 On ch=1 n=f5 v=0
144599 On ch=1 n=d5 v=0
144599 On ch=1 n=a5 v=0
144600 On ch=1 n=a#4 v=100
144600 On ch=1 n=a#5 v=100
144659 On ch=1 n=a#5 v=0
144659 On ch=1 n=a#4 v=0
144660 On ch=1 n=c#5 v=100
144660 On ch=1 n=f5 v=100
144660 On ch=1 n=a#5 v=100
144719 On ch=1 n=a#5 v=0
144719 On ch=1 n=f5 v=0
144719 On ch=1 n=c#5 v=0
144720 On ch=1 n=a4 v=100
144720 On ch=1 n=a5 v=100
144779 On ch=1 n=a5 v=0
144779 On ch=1 n=a4 v=0
144780 On ch=1 n=c#5 v=100
144780 On ch=1 n=f5 v=100
144780 On ch=1 n=a5 v=100
144839 On ch=1 n=a5 v=0
144839 On ch=1 n=f5 v=0
144839 On ch=1 n=c#5 v=0
144840 On ch=1 n=g#4 v=100
144840 On ch=1 n=g#5 v=100
144899 On ch=1 n=g#5 v=0
144899 On ch=1 n=g#4 v=0
144900 On ch=1 n=d5 v=100
144900 On ch=1 n=f5 v=100
144900 On ch=1 n=g#5 v=100
144959 On ch=1 n=g#5 v=0
144959 On ch=1 n=f5 v=0
144959 On ch=1 n=d5 v=0
144960 On ch=1 n=g4 v=100
144960 On ch=1 n=g5 v=100
145019 On ch=1 n=g5 v=0
145019 On ch=1 n=g4 v=0
145080 On ch=1 n=c5 v=100
145139 On ch=1 n=c5 v=0
145140 On ch=1 n=g5 v=100
145140 On ch=1 n=e5 v=100
145199 On ch=1 n=e5 v=0
145199 On ch=1 n=g5 v=0
145200 On ch=1 n=c5 v=100
145259 On ch=1 n=c5 v=0
145260 On ch=1 n=c6 v=100
145260 On ch=1 n=g5 v=100
145260 On ch=1 n=e5 v=100
145319 On ch=1 n=e5 v=0
145319 On ch=1 n=g5 v=0
145320 On ch=1 n=c5 v=100
145379 On ch=1 n=c5 v=0
145379 On ch=1 n=c6 v=0
145380 On ch=1 n=c#6 v=100
145440 On ch=1 n=c5 v=100
145499 On ch=1 n=c5 v=0
145500 On ch=1 n=f#5 v=100
145500 On ch=1 n=d#5 v=100
145559 On ch=1 n=d#5 v=0
145559 On ch=1 n=f#5 v=0
145560 On ch=1 n=c5 v=100
145619 On ch=1 n=c5 v=0
145619 On ch=1 n=c#6 v=0
145620 On ch=1 n=f#5 v=100
145620 On ch=1 n=d#5 v=100
145620 On ch=1 n=c6 v=100
145679 On ch=1 n=d#5 v=0
145679 On ch=1 n=f#5 v=0
145680 On ch=1 n=c5 v=100
145739 On ch=1 n=c5 v=0
145739 On ch=1 n=c6 v=0
145800 On ch=1 n=c5 v=100
145859 On ch=1 n=c5 v=0
145860 On ch=1 n=b5 v=100
145860 On ch=1 n=g5 v=100
145860 On ch=1 n=e5 v=100
145919 On ch=1 n=e5 v=0
145919 On ch=1 n=g5 v=0
145920 On ch=1 n=c5 v=100
145979 On ch=1 n=c5 v=0
145980 On ch=1 n=e5 v=100
145980 On ch=1 n=g5 v=100
146039 On ch=1 n=g5 v=0
146039 On ch=1 n=e5 v=0
146039 On ch=1 n=b5 v=0
146040 On ch=1 n=c6 v=100
146040 On ch=1 n=c5 v=100
146099 On ch=1 n=c5 v=0
146099 On ch=1 n=c6 v=0
146100 On ch=1 n=c6 v=100
146100 On ch=1 n=g5 v=100
146100 On ch=1 n=d#5 v=100
146159 On ch=1 n=d#5 v=0
146159 On ch=1 n=g5 v=0
146159 On ch=1 n=c6 v=0
146160 On ch=1 n=b4 v=100
146160 On ch=1 n=b5 v=100
146219 On ch=1 n=b5 v=0
146219 On ch=1 n=b4 v=0
146220 On ch=1 n=d#5 v=100
146220 On ch=1 n=g5 v=100
146220 On ch=1 n=b5 v=100
146279 On ch=1 n=b5 v=0
146279 On ch=1 n=g5 v=0
146279 On ch=1 n=d#5 v=0
146280 On ch=1 n=a#4 v=100
146280 On ch=1 n=a#5 v=100
146339 On ch=1 n=a#5 v=0
146339 On ch=1 n=a#4 v=0
146340 On ch=1 n=e5 v=100
146340 On ch=1 n=g5 v=100
146340 On ch=1 n=a#5 v=100
146399 On ch=1 n=a#5 v=0
146399 On ch=1 n=g5 v=0
146399 On ch=1 n=e5 v=0
146400 On ch=1 n=a4 v=100
146400 On ch=1 n=a5 v=100
146459 On ch=1 n=a5 v=0
146459 On ch=1 n=a4 v=0
146520 On ch=1 n=d5 v=100
146579 On ch=1 n=d5 v=0
146580 On ch=1 n=a5 v=100
146580 On ch=1 n=f#5 v=100
146639 On ch=1 n=f#5 v=0
146639 On ch=1 n=a5 v=0
146640 On ch=1 n=d5 v=100
146699 On ch=1 n=d5 v=0
146700 On ch=1 n=d6 v=100
146700 On ch=1 n=a5 v=100
146700 On ch=1 n=f#5 v=100
146759 On ch=1 n=f#5 v=0
146759 On ch=1 n=a5 v=0
146760 On ch=1 n=d5 v=100
146819 On ch=1 n=d5 v=0
146819 On ch=1 n=d6 v=0
146820 On ch=1 n=d#6 v=100
146880 On ch=1 n=d#5 v=100
146939 On ch=1 n=d#5 v=0
146940 On ch=1 n=g#5 v=100
146940 On ch=1 n=c6 v=100
146999 On ch=1 n=c6 v=0
146999 On ch=1 n=g#5 v=0
147000 On ch=1 n=d#5 v=100
147059 On ch=1 n=d#5 v=0
147059 On ch=1 n=d#6 v=0
147060 On ch=1 n=g#5 v=100
147060 On ch=1 n=c6 v=100
147060 On ch=1 n=e6 v=100
147119 On ch=1 n=c6 v=0
147119 On ch=1 n=g#5 v=0
147120 On ch=1 n=e5 v=100
147179 On ch=1 n=e5 v=0
147179 On ch=1 n=e6 v=0
147180 On ch=1 n=f6 v=100
147180 On ch=1 n=d6 v=100
147180 On ch=1 n=b5 v=100
147239 On ch=1 n=b5 v=0
147239 On ch=1 n=d6 v=0
147240 On ch=1 n=f5 v=100
147240 On ch=1 n=b5 v=100
147240 On ch=1 n=d6 v=100
147299 On ch=1 n=d6 v=0
147299 On ch=1 n=f6 v=0
147299 On ch=1 n=f5 v=0
147299 On ch=1 n=b5 v=0
147300 On ch=1 n=f#6 v=100
147300 On ch=1 n=b5 v=100
147300 On ch=1 n=d6 v=100
147359 On ch=1 n=d6 v=0
147359 On ch=1 n=b5 v=0
147360 On ch=1 n=f#5 v=100
147360 On ch=1 n=b5 v=100
147360 On ch=1 n=d6 v=100
147419 On ch=1 n=d6 v=0
147419 On ch=1 n=f#6 v=0
147419 On ch=1 n=f#5 v=0
147419 On ch=1 n=b5 v=0
147420 On ch=1 n=d#6 v=100
147420 On ch=1 n=b5 v=100
147420 On ch=1 n=g6 v=100
147479 On ch=1 n=b5 v=0
147479 On ch=1 n=d#6 v=0
147480 On ch=1 n=g5 v=100
147480 On ch=1 n=d#6 v=100
147480 On ch=1 n=b5 v=100
147539 On ch=1 n=b5 v=0
147539 On ch=1 n=g6 v=0
147539 On ch=1 n=g5 v=0
147539 On ch=1 n=d#6 v=0
147540 On ch=1 n=a#6 v=100
147540 On ch=1 n=e6 v=100
147540 On ch=1 n=c#6 v=100
147540 On ch=1 n=a#5 v=100
147599 On ch=1 n=a#5 v=0
147599 On ch=1 n=c#6 v=0
147599 On ch=1 n=e6 v=0
147600 On ch=1 n=g5 v=100
147600 On ch=1 n=a#5 v=100
147600 On ch=1 n=c#6 v=100
147659 On ch=1 n=c#6 v=0
147659 On ch=1 n=a#5 v=0
147659 On ch=1 n=g5 v=0
147660 On ch=1 n=e6 v=100
147660 On ch=1 n=c#6 v=100
147660 On ch=1 n=a#5 v=100
147719 On ch=1 n=a#5 v=0
147719 On ch=1 n=c#6 v=0
147719 On ch=1 n=e6 v=0
147720 On ch=1 n=g5 v=100
147720 On ch=1 n=a#5 v=100
147720 On ch=1 n=c#6 v=100
147779 On ch=1 n=c#6 v=0
147779 On ch=1 n=a#6 v=0
147779 On ch=1 n=g5 v=0
147779 On ch=1 n=a#5 v=0
147780 On ch=1 n=g#6 v=100
147780 On ch=1 n=e6 v=100
147780 On ch=1 n=c6 v=100
147839 On ch=1 n=c6 v=0
147839 On ch=1 n=e6 v=0
147840 On ch=1 n=g#5 v=100
147840 On ch=1 n=c6 v=100
147899 On ch=1 n=c6 v=0
147899 On ch=1 n=g#5 v=0
147899 On ch=1 n=g#6 v=0
147900 On ch=1 n=g6 v=100
147960 On ch=1 n=d#6 v=100
147960 On ch=1 n=b5 v=100
148019 On ch=1 n=b5 v=0
148019 On ch=1 n=d#6 v=0
148019 On ch=1 n=g6 v=0
148020 On ch=1 n=a#5 v=100
148020 On ch=1 n=c#6 v=100
148020 On ch=1 n=f6 v=100
148079 On ch=1 n=c#6 v=0
148079 On ch=1 n=a#5 v=0
148080 On ch=1 n=g#5 v=100
148080 On ch=1 n=b5 v=100
148139 On ch=1 n=b5 v=0
148139 On ch=1 n=g#5 v=0
148140 On ch=1 n=a#5 v=100
148140 On ch=1 n=c#6 v=100
148199 On ch=1 n=c#6 v=0
148199 On ch=1 n=a#5 v=0
148200 On ch=1 n=b5 v=100
148200 On ch=1 n=d#6 v=100
148259 On ch=1 n=f6 v=0
148260 On ch=1 n=g6 v=100
148319 On ch=1 n=d#6 v=0
148319 On ch=1 n=b5 v=0
148320 On ch=1 n=a#5 v=100
148320 On ch=1 n=c#6 v=100
148379 On ch=1 n=c#6 v=0
148379 On ch=1 n=a#5 v=0
148379 On ch=1 n=g6 v=0
148380 On ch=1 n=d#6 v=100
148380 On ch=1 n=g#5 v=100
148380 On ch=1 n=b5 v=100
148439 On ch=1 n=b5 v=0
148439 On ch=1 n=g#5 v=0
148440 On ch=1 n=g5 v=100
148440 On ch=1 n=a#5 v=100
148499 On ch=1 n=a#5 v=0
148499 On ch=1 n=g5 v=0
148500 On ch=1 n=b5 v=100
148500 On ch=1 n=g#5 v=100
148559 On ch=1 n=g#5 v=0
148559 On ch=1 n=b5 v=0
148560 On ch=1 n=c#6 v=100
148560 On ch=1 n=a#5 v=100
148619 On ch=1 n=d#6 v=0
148620 On ch=1 n=g6 v=100
148679 On ch=1 n=a#5 v=0
148679 On ch=1 n=c#6 v=0
148680 On ch=1 n=g#5 v=100
148680 On ch=1 n=b5 v=100
148739 On ch=1 n=b5 v=0
148739 On ch=1 n=g#5 v=0
148739 On ch=1 n=g6 v=0
148740 On ch=1 n=g5 v=100
148740 On ch=1 n=a#5 v=100
148740 On ch=1 n=d6 v=100
148799 On ch=1 n=a#5 v=0
148799 On ch=1 n=g5 v=0
148800 On ch=1 n=f5 v=100
148800 On ch=1 n=g#5 v=100
148859 On ch=1 n=g#5 v=0
148859 On ch=1 n=f5 v=0
148860 On ch=1 n=a#5 v=100
148860 On ch=1 n=g5 v=100
148919 On ch=1 n=g5 v=0
148919 On ch=1 n=a#5 v=0
148920 On ch=1 n=b5 v=100
148920 On ch=1 n=g#5 v=100
148979 On ch=1 n=d6 v=0
148980 On ch=1 n=g6 v=100
149039 On ch=1 n=g#5 v=0
149039 On ch=1 n=b5 v=0
149040 On ch=1 n=g#5 v=100
149040 On ch=1 n=b5 v=100
149099 On ch=1 n=b5 v=0
149099 On ch=1 n=g#5 v=0
149099 On ch=1 n=g6 v=0
149100 On ch=1 n=g5 v=100
149100 On ch=1 n=a#5 v=100
149100 On ch=1 n=c6 v=100
149159 On ch=1 n=a#5 v=0
149159 On ch=1 n=g5 v=0
149160 On ch=1 n=f5 v=100
149160 On ch=1 n=g#5 v=100
149219 On ch=1 n=g#5 v=0
149219 On ch=1 n=f5 v=0
149220 On ch=1 n=g5 v=100
149220 On ch=1 n=e5 v=100
149279 On ch=1 n=e5 v=0
149279 On ch=1 n=g5 v=0
149279 On ch=1 n=c6 v=0
149280 On ch=1 n=b5 v=100
149280 On ch=1 n=g#5 v=100
149280 On ch=1 n=f5 v=100
149339 On ch=1 n=f5 v=0
149339 On ch=1 n=g#5 v=0
149339 On ch=1 n=b5 v=0
149340 On ch=1 n=f6 v=100
149400 On ch=1 n=d5 v=100
149459 On ch=1 n=d5 v=0
149459 On ch=1 n=f6 v=0
149460 On ch=1 n=g#5 v=100
149460 On ch=1 n=f5 v=100
149460 On ch=1 n=a#5 v=100
149519 On ch=1 n=f5 v=0
149519 On ch=1 n=g#5 v=0
149520 On ch=1 n=c5 v=100
149579 On ch=1 n=c5 v=0
149580 On ch=1 n=g#5 v=100
149580 On ch=1 n=e5 v=100
149639 On ch=1 n=e5 v=0
149639 On ch=1 n=g#5 v=0
149640 On ch=1 n=b4 v=100
149699 On ch=1 n=b4 v=0
149699 On ch=1 n=a#5 v=0
149700 On ch=1 n=d#6 v=100
149760 On ch=1 n=a#4 v=100
149819 On ch=1 n=a#4 v=0
149819 On ch=1 n=d#6 v=0
149820 On ch=1 n=g5 v=100
149820 On ch=1 n=d#5 v=100
149820 On ch=1 n=a#5 v=100
149879 On ch=1 n=d#5 v=0
149879 On ch=1 n=g5 v=0
149880 On ch=1 n=g#4 v=100
149939 On ch=1 n=g#4 v=0
149940 On ch=1 n=c5 v=100
149940 On ch=1 n=d#5 v=100
149999 On ch=1 n=d#5 v=0
149999 On ch=1 n=c5 v=0
150000 On ch=1 n=g4 v=100
150059 On ch=1 n=g4 v=0
150059 On ch=1 n=a#5 v=0
150060 On ch=1 n=c6 v=100
150120 On ch=1 n=g4 v=100
150179 On ch=1 n=g4 v=0
150179 On ch=1 n=c6 v=0
150180 On ch=1 n=d#5 v=100
150180 On ch=1 n=c5 v=100
150180 On ch=1 n=a5 v=100
150239 On ch=1 n=c5 v=0
150239 On ch=1 n=d#5 v=0
150240 On ch=1 n=f#4 v=100
150299 On ch=1 n=f#4 v=0
150300 On ch=1 n=d5 v=100
150300 On ch=1 n=a#4 v=100
150359 On ch=1 n=a#4 v=0
150359 On ch=1 n=d5 v=0
150359 On ch=1 n=a5 v=0
150360 On ch=1 n=g4 v=100
150370 On ch=1 n=a#5 v=100
150419 On ch=1 n=a#5 v=0
150419 On ch=1 n=g4 v=0
150420 On ch=1 n=a#5 v=100
150480 On ch=1 n=g4 v=100
150539 On ch=1 n=g4 v=0
150539 On ch=1 n=a#5 v=0
150540 On ch=1 n=g#4 v=100
150540 On ch=1 n=d#5 v=100
150600 On ch=1 n=e4 v=100
150659 On ch=1 n=e4 v=0
150659 On ch=1 n=g#4 v=0
150660 On ch=1 n=g4 v=100
150720 On ch=1 n=d#4 v=100
150779 On ch=1 n=d#4 v=0
150779 On ch=1 n=g4 v=0
150779 On ch=1 n=d#5 v=0
150820 On ch=1 n=g6 v=100
150859 On ch=1 n=g6 v=0
150860 On ch=1 n=g7 v=100
150899 On ch=1 n=g7 v=0
150900 On ch=1 n=f7 v=100
150939 On ch=1 n=f7 v=0
150940 On ch=1 n=d#7 v=100
150979 On ch=1 n=d#7 v=0
150980 On ch=1 n=c7 v=100
151019 On ch=1 n=c7 v=0
151020 On ch=1 n=a6 v=100
151059 On ch=1 n=a6 v=0
151140 On ch=1 n=f6 v=100
151179 On ch=1 n=f6 v=0
151180 On ch=1 n=d#6 v=100
151219 On ch=1 n=d#6 v=0
151220 On ch=1 n=c6 v=100
151259 On ch=1 n=c6 v=0
151260 On ch=1 n=a5 v=100
151299 On ch=1 n=a5 v=0
151380 On ch=1 n=f5 v=100
151409 On ch=1 n=f5 v=0
151410 On ch=1 n=d#5 v=100
151439 On ch=1 n=d#5 v=0
151440 On ch=1 n=c5 v=100
151469 On ch=1 n=c5 v=0
151470 On ch=1 n=a4 v=100
151499 On ch=1 n=a4 v=0
151500 On ch=1 n=e5 v=100
151500 On ch=1 n=c5 v=100
151500 On ch=1 n=e4 v=100
151529 On ch=1 n=e4 v=0
151529 On ch=1 n=c5 v=0
151529 On ch=1 n=e5 v=0
151740 On ch=1 n=e5 v=100
151740 On ch=1 n=c5 v=100
151740 On ch=1 n=e4 v=100
151769 On ch=1 n=e4 v=0
151769 On ch=1 n=c5 v=0
151769 On ch=1 n=e5 v=0
151980 On ch=1 n=e5 v=100
151980 On ch=1 n=c5 v=100
151980 On ch=1 n=e4 v=100
152009 On ch=1 n=e4 v=0
152009 On ch=1 n=c5 v=0
152009 On ch=1 n=e5 v=0
152040 On ch=1 n=e5 v=100
152040 On ch=1 n=c5 v=100
152040 On ch=1 n=e4 v=100
152069 On ch=1 n=e4 v=0
152069 On ch=1 n=c5 v=0
152069 On ch=1 n=e5 v=0
152100 On ch=1 n=e5 v=100
152100 On ch=1 n=c5 v=100
152100 On ch=1 n=e4 v=100
152129 On ch=1 n=e4 v=0
152129 On ch=1 n=c5 v=0
152129 On ch=1 n=e5 v=0
152260 On ch=1 n=g6 v=100
152299 On ch=1 n=g6 v=0
152300 On ch=1 n=g7 v=100
152339 On ch=1 n=g7 v=0
152340 On ch=1 n=f7 v=100
152369 On ch=1 n=f7 v=0
152370 On ch=1 n=d#7 v=100
152399 On ch=1 n=d#7 v=0
152400 On ch=1 n=c7 v=100
152429 On ch=1 n=c7 v=0
152430 On ch=1 n=a6 v=100
152459 On ch=1 n=a6 v=0
152620 On ch=1 n=g5 v=100
152659 On ch=1 n=g5 v=0
152660 On ch=1 n=f#5 v=100
152699 On ch=1 n=f#5 v=0
152700 On ch=1 n=f5 v=100
152729 On ch=1 n=f5 v=0
152730 On ch=1 n=d#5 v=100
152759 On ch=1 n=d#5 v=0
152760 On ch=1 n=c5 v=100
152789 On ch=1 n=c5 v=0
152790 On ch=1 n=a4 v=100
152819 On ch=1 n=a4 v=0
152900 On ch=1 n=d#4 v=100
152940 On ch=1 n=d#5 v=100
152940 On ch=1 n=c5 v=100
152969 On ch=1 n=c5 v=0
152969 On ch=1 n=d#5 v=0
152979 On ch=1 n=d#4 v=0
153120 On ch=1 n=g5 v=100
153120 On ch=1 n=d#5 v=100
153120 On ch=1 n=c5 v=100
153120 On ch=1 n=g4 v=100
153149 On ch=1 n=g4 v=0
153149 On ch=1 n=g5 v=0
153149 On ch=1 n=d#5 v=0
153149 On ch=1 n=c5 v=0
153180 On ch=1 n=d#5 v=100
153180 On ch=1 n=c5 v=100
153180 On ch=1 n=d#4 v=100
153209 On ch=1 n=d#4 v=0
153209 On ch=1 n=c5 v=0
153209 On ch=1 n=d#5 v=0
153360 On ch=1 n=g5 v=100
153360 On ch=1 n=d#5 v=100
153360 On ch=1 n=c5 v=100
153360 On ch=1 n=g4 v=100
153389 On ch=1 n=g4 v=0
153389 On ch=1 n=g5 v=0
153389 On ch=1 n=d#5 v=0
153389 On ch=1 n=c5 v=0
153420 On ch=1 n=d#4 v=100
153420 On ch=1 n=c5 v=100
153420 On ch=1 n=d#5 v=100
153449 On ch=1 n=d#5 v=0
153449 On ch=1 n=c5 v=0
153449 On ch=1 n=d#4 v=0
153600 On ch=1 n=g5 v=100
153600 On ch=1 n=d#5 v=100
153600 On ch=1 n=c5 v=100
153600 On ch=1 n=g4 v=100
153629 On ch=1 n=g4 v=0
153629 On ch=1 n=g5 v=0
153629 On ch=1 n=d#5 v=0
153629 On ch=1 n=c5 v=0
153660 On ch=1 n=d#4 v=100
153660 On ch=1 n=b4 v=100
153660 On ch=1 n=d#5 v=100
153689 On ch=1 n=d#5 v=0
153689 On ch=1 n=b4 v=0
153689 On ch=1 n=d#4 v=0
153780 On ch=1 n=d#6 v=100
153780 On ch=1 n=b5 v=100
153780 On ch=1 n=g#5 v=100
153899 On ch=1 n=g#5 v=0
153899 On ch=1 n=b5 v=0
153899 On ch=1 n=d#6 v=0
153960 On ch=1 n=g#4 v=100
153960 On ch=1 n=d#5 v=100
153989 On ch=1 n=d#5 v=0
153989 On ch=1 n=g#4 v=0
154020 On ch=1 n=g#4 v=100
154020 On ch=1 n=d#5 v=100
154049 On ch=1 n=d#5 v=0
154049 On ch=1 n=g#4 v=0
154200 On ch=1 n=g#3 v=100
154200 On ch=1 n=d#4 v=100
154229 On ch=1 n=d#4 v=0
154229 On ch=1 n=g#3 v=0
154260 On ch=1 n=g#3 v=100
154260 On ch=1 n=d#4 v=100
154379 On ch=1 n=d#4 v=0
154379 On ch=1 n=g#3 v=0
154420 On ch=1 n=b6 v=100
154459 On ch=1 n=b6 v=0
154460 On ch=1 n=b7 v=100
154499 On ch=1 n=b7 v=0
154500 On ch=1 n=a#7 v=100
154539 On ch=1 n=a#7 v=0
154540 On ch=1 n=g7 v=100
154579 On ch=1 n=g7 v=0
154580 On ch=1 n=e7 v=100
154619 On ch=1 n=e7 v=0
154620 On ch=1 n=c#7 v=100
154659 On ch=1 n=c#7 v=0
154660 On ch=1 n=a#6 v=100
154699 On ch=1 n=a#6 v=0
154700 On ch=1 n=g6 v=100
154739 On ch=1 n=g6 v=0
154860 On ch=1 n=f#5 v=100
154899 On ch=1 n=f#5 v=0
154900 On ch=1 n=e5 v=100
154939 On ch=1 n=e5 v=0
154940 On ch=1 n=c#5 v=100
154979 On ch=1 n=c#5 v=0
154980 On ch=1 n=a#4 v=100
155009 On ch=1 n=a#4 v=0
155010 On ch=1 n=g4 v=100
155039 On ch=1 n=g4 v=0
155040 On ch=1 n=f#4 v=100
155069 On ch=1 n=f#4 v=0
155070 On ch=1 n=e4 v=100
155099 On ch=1 n=e4 v=0
155160 On ch=1 n=e6 v=100
155220 On ch=1 n=c7 v=100
155220 On ch=1 n=a6 v=100
155220 On ch=1 n=c6 v=100
155399 On ch=1 n=c6 v=0
155399 On ch=1 n=e6 v=0
155399 On ch=1 n=c7 v=0
155399 On ch=1 n=a6 v=0
155400 On ch=1 n=e6 v=100
155460 On ch=1 n=b6 v=100
155460 On ch=1 n=g6 v=100
155460 On ch=1 n=c6 v=100
155460 On ch=1 n=b5 v=100
155639 On ch=1 n=b5 v=0
155639 On ch=1 n=g6 v=0
155639 On ch=1 n=e6 v=0
155639 On ch=1 n=b6 v=0
155639 On ch=1 n=c6 v=0
155640 On ch=1 n=e6 v=100
155699 On ch=1 n=e6 v=0
155700 On ch=1 n=f6 v=100
155700 On ch=1 n=a6 v=100
155700 On ch=1 n=a5 v=100
155700 On ch=1 n=c6 v=100
155879 On ch=1 n=c6 v=0
155879 On ch=1 n=f6 v=0
155879 On ch=1 n=a6 v=0
155879 On ch=1 n=a5 v=0
155880 On ch=1 n=c6 v=100
155940 On ch=1 n=g6 v=100
155940 On ch=1 n=e6 v=100
155940 On ch=1 n=a5 v=100
155940 On ch=1 n=g5 v=100
156119 On ch=1 n=g5 v=0
156119 On ch=1 n=e6 v=0
156119 On ch=1 n=c6 v=0
156119 On ch=1 n=g6 v=0
156119 On ch=1 n=a5 v=0
156120 On ch=1 n=c6 v=100
156180 On ch=1 n=f6 v=100
156180 On ch=1 n=a5 v=100
156180 On ch=1 n=f5 v=100
156359 On ch=1 n=f5 v=0
156359 On ch=1 n=c6 v=0
156359 On ch=1 n=f6 v=0
156359 On ch=1 n=a5 v=0
156360 On ch=1 n=c6 v=100
156420 On ch=1 n=e6 v=100
156420 On ch=1 n=a5 v=100
156420 On ch=1 n=e5 v=100
156539 On ch=1 n=e5 v=0
156539 On ch=1 n=c6 v=0
156539 On ch=1 n=e6 v=0
156539 On ch=1 n=a5 v=0
156540 On ch=1 n=a#5 v=100
156540 On ch=1 n=g5 v=100
156540 On ch=1 n=c6 v=100
156599 On ch=1 n=g5 v=0
156599 On ch=1 n=a#5 v=0
156660 On ch=1 n=c5 v=100
156660 On ch=1 n=f#5 v=100
156660 On ch=1 n=a5 v=100
156689 On ch=1 n=a5 v=0
156689 On ch=1 n=f#5 v=0
156689 On ch=1 n=c5 v=0
156780 On ch=1 n=a6 v=100
156899 On ch=1 n=a6 v=0
156899 On ch=1 n=c6 v=0
156900 On ch=1 n=a5 v=100
156900 On ch=1 n=f#5 v=100
156900 On ch=1 n=c6 v=100
156929 On ch=1 n=f#5 v=0
156929 On ch=1 n=a5 v=0
157020 On ch=1 n=c5 v=100
157020 On ch=1 n=f5 v=100
157020 On ch=1 n=g#5 v=100
157049 On ch=1 n=g#5 v=0
157049 On ch=1 n=f5 v=0
157049 On ch=1 n=c5 v=0
157140 On ch=1 n=g#6 v=100
157259 On ch=1 n=g#6 v=0
157259 On ch=1 n=c6 v=0
157260 On ch=1 n=f5 v=100
157260 On ch=1 n=g#5 v=100
157260 On ch=1 n=c6 v=100
157289 On ch=1 n=g#5 v=0
157289 On ch=1 n=f5 v=0
157380 On ch=1 n=b4 v=100
157380 On ch=1 n=e5 v=100
157380 On ch=1 n=g5 v=100
157409 On ch=1 n=g5 v=0
157409 On ch=1 n=e5 v=0
157409 On ch=1 n=b4 v=0
157500 On ch=1 n=g6 v=100
157619 On ch=1 n=g6 v=0
157619 On ch=1 n=c6 v=0
157620 On ch=1 n=g5 v=100
157620 On ch=1 n=e5 v=100
157620 On ch=1 n=c6 v=100
157649 On ch=1 n=e5 v=0
157649 On ch=1 n=g5 v=0
157740 On ch=1 n=b4 v=100
157740 On ch=1 n=e5 v=100
157740 On ch=1 n=f#5 v=100
157769 On ch=1 n=f#5 v=0
157769 On ch=1 n=e5 v=0
157769 On ch=1 n=b4 v=0
157860 On ch=1 n=f#6 v=100
157979 On ch=1 n=f#6 v=0
157979 On ch=1 n=c6 v=0
157980 On ch=1 n=g4 v=100
158060 On ch=1 n=c7 v=100
158060 On ch=1 n=c6 v=100
158099 On ch=1 n=c7 v=0
158100 On ch=1 n=a6 v=100
158100 On ch=1 n=d#6 v=100
158220 On ch=1 n=a5 v=100
158259 On ch=1 n=a5 v=0
158260 On ch=1 n=c6 v=100
158299 On ch=1 n=c6 v=0
158300 On ch=1 n=d#6 v=100
158339 On ch=1 n=d#6 v=0
158339 On ch=1 n=a6 v=0
158339 On ch=1 n=g4 v=0
158339 On ch=1 n=c6 v=0
158339 On ch=1 n=d#6 v=0
158340 On ch=1 n=f#7 v=100
158340 On ch=1 n=f#6 v=100
158460 On ch=1 n=b6 v=100
158460 On ch=1 n=d#6 v=100
158460 On ch=1 n=b5 v=100
158579 On ch=1 n=b5 v=0
158579 On ch=1 n=b6 v=0
158579 On ch=1 n=d#6 v=0
158580 On ch=1 n=d#5 v=100
158580 On ch=1 n=a#5 v=100
158699 On ch=1 n=a#5 v=0
158699 On ch=1 n=f#7 v=0
158699 On ch=1 n=f#6 v=0
158699 On ch=1 n=d#5 v=0
158700 On ch=1 n=f4 v=100
158780 On ch=1 n=c6 v=100
158780 On ch=1 n=d#5 v=100
158819 On ch=1 n=d#5 v=0
158819 On ch=1 n=c6 v=0
158820 On ch=1 n=f#5 v=100
158820 On ch=1 n=a5 v=100
158859 On ch=1 n=f#5 v=0
158860 On ch=1 n=d#5 v=100
158899 On ch=1 n=d#5 v=0
158900 On ch=1 n=c#5 v=100
158939 On ch=1 n=c#5 v=0
159059 On ch=1 n=a5 v=0
159059 On ch=1 n=f4 v=0
159060 On ch=1 n=d#5 v=100
159100 On ch=1 n=b4 v=100
159139 On ch=1 n=b4 v=0
159140 On ch=1 n=a#4 v=100
159179 On ch=1 n=a#4 v=0
159180 On ch=1 n=a4 v=100
159219 On ch=1 n=a4 v=0
159220 On ch=1 n=f#4 v=100
159259 On ch=1 n=f#4 v=0
159260 On ch=1 n=d#4 v=100
159299 On ch=1 n=d#4 v=0
159300 On ch=1 n=b3 v=100
159339 On ch=1 n=b3 v=0
159340 On ch=1 n=a#3 v=100
159379 On ch=1 n=a#3 v=0
159380 On ch=1 n=a3 v=100
159419 On ch=1 n=a3 v=0
159419 On ch=1 n=d#5 v=0
159480 On ch=1 n=f6 v=100
159540 On ch=1 n=c#7 v=100
159540 On ch=1 n=a#6 v=100
159540 On ch=1 n=c#6 v=100
159719 On ch=1 n=c#6 v=0
159719 On ch=1 n=f6 v=0
159719 On ch=1 n=c#7 v=0
159719 On ch=1 n=a#6 v=0
159720 On ch=1 n=f6 v=100
159780 On ch=1 n=c7 v=100
159780 On ch=1 n=g#6 v=100
159780 On ch=1 n=c#6 v=100
159780 On ch=1 n=c6 v=100
159959 On ch=1 n=c6 v=0
159959 On ch=1 n=g#6 v=0
159959 On ch=1 n=f6 v=0
159959 On ch=1 n=c7 v=0
159959 On ch=1 n=c#6 v=0
159960 On ch=1 n=f6 v=100
160020 On ch=1 n=a#6 v=100
160020 On ch=1 n=f#6 v=100
160020 On ch=1 n=c#6 v=100
160020 On ch=1 n=a#5 v=100
160199 On ch=1 n=a#5 v=0
160199 On ch=1 n=f#6 v=0
160199 On ch=1 n=f6 v=0
160199 On ch=1 n=a#6 v=0
160199 On ch=1 n=c#6 v=0
160200 On ch=1 n=c#6 v=100
160260 On ch=1 n=g#6 v=100
160260 On ch=1 n=f6 v=100
160260 On ch=1 n=g#5 v=100
160260 On ch=1 n=a#5 v=100
160439 On ch=1 n=a#5 v=0
160439 On ch=1 n=f6 v=0
160439 On ch=1 n=c#6 v=0
160439 On ch=1 n=g#6 v=0
160439 On ch=1 n=g#5 v=0
160440 On ch=1 n=c#6 v=100
160500 On ch=1 n=f#6 v=100
160500 On ch=1 n=a#5 v=100
160500 On ch=1 n=f#5 v=100
160679 On ch=1 n=f#5 v=0
160679 On ch=1 n=c#6 v=0
160679 On ch=1 n=f#6 v=0
160679 On ch=1 n=a#5 v=0
160680 On ch=1 n=f6 v=100
160680 On ch=1 n=a#5 v=100
160680 On ch=1 n=f5 v=100
160680 On ch=1 n=c#6 v=100
160859 On ch=1 n=c#6 v=0
160859 On ch=1 n=f6 v=0
160859 On ch=1 n=a#5 v=0
160859 On ch=1 n=f5 v=0
160860 On ch=1 n=c#6 v=100
160860 On ch=1 n=b5 v=100
160860 On ch=1 n=g#5 v=100
160979 On ch=1 n=g#5 v=0
160979 On ch=1 n=b5 v=0
160980 On ch=1 n=g5 v=100
160980 On ch=1 n=a#5 v=100
161099 On ch=1 n=a#5 v=0
161099 On ch=1 n=g5 v=0
161100 On ch=1 n=a#6 v=100
161219 On ch=1 n=a#6 v=0
161219 On ch=1 n=c#6 v=0
161220 On ch=1 n=g5 v=100
161220 On ch=1 n=a#5 v=100
161220 On ch=1 n=c#6 v=100
161339 On ch=1 n=a#5 v=0
161339 On ch=1 n=g5 v=0
161340 On ch=1 n=f#5 v=100
161340 On ch=1 n=a5 v=100
161459 On ch=1 n=a5 v=0
161459 On ch=1 n=f#5 v=0
161460 On ch=1 n=a6 v=100
161579 On ch=1 n=a6 v=0
161579 On ch=1 n=c#6 v=0
161580 On ch=1 n=a5 v=100
161580 On ch=1 n=f#5 v=100
161580 On ch=1 n=c#6 v=100
161699 On ch=1 n=f#5 v=0
161699 On ch=1 n=a5 v=0
161700 On ch=1 n=g#5 v=100
161700 On ch=1 n=f5 v=100
161819 On ch=1 n=f5 v=0
161819 On ch=1 n=g#5 v=0
161820 On ch=1 n=g#6 v=100
161939 On ch=1 n=g#6 v=0
161939 On ch=1 n=c#6 v=0
161940 On ch=1 n=f5 v=100
161940 On ch=1 n=g#5 v=100
161940 On ch=1 n=c#6 v=100
162059 On ch=1 n=g#5 v=0
162059 On ch=1 n=f5 v=0
162060 On ch=1 n=e5 v=100
162060 On ch=1 n=g5 v=100
162179 On ch=1 n=g5 v=0
162179 On ch=1 n=e5 v=0
162180 On ch=1 n=g6 v=100
162299 On ch=1 n=g6 v=0
162299 On ch=1 n=c#6 v=0
162300 On ch=1 n=g#4 v=100
162380 On ch=1 n=c#7 v=100
162380 On ch=1 n=c#6 v=100
162419 On ch=1 n=c#6 v=0
162419 On ch=1 n=c#7 v=0
162420 On ch=1 n=e6 v=100
162420 On ch=1 n=a#5 v=100
162420 On ch=1 n=a#6 v=100
162540 On ch=1 n=g5 v=100
162579 On ch=1 n=g5 v=0
162580 On ch=1 n=a#5 v=100
162619 On ch=1 n=a#5 v=0
162620 On ch=1 n=c#6 v=100
162659 On ch=1 n=c#6 v=0
162659 On ch=1 n=a#5 v=0
162659 On ch=1 n=g#4 v=0
162659 On ch=1 n=e6 v=0
162659 On ch=1 n=a#6 v=0
162660 On ch=1 n=g7 v=100
162660 On ch=1 n=g6 v=100
162780 On ch=1 n=c7 v=100
162780 On ch=1 n=e6 v=100
162780 On ch=1 n=c6 v=100
162899 On ch=1 n=c6 v=0
162899 On ch=1 n=c7 v=0
162899 On ch=1 n=e6 v=0
162900 On ch=1 n=e5 v=100
162900 On ch=1 n=b5 v=100
163019 On ch=1 n=b5 v=0
163019 On ch=1 n=g7 v=0
163019 On ch=1 n=g6 v=0
163019 On ch=1 n=e5 v=0
163020 On ch=1 n=g#4 v=100
163100 On ch=1 n=c#6 v=100
163100 On ch=1 n=e5 v=100
163139 On ch=1 n=e5 v=0
163139 On ch=1 n=c#6 v=0
163140 On ch=1 n=g5 v=100
163140 On ch=1 n=a#5 v=100
163179 On ch=1 n=g5 v=0
163180 On ch=1 n=e5 v=100
163219 On ch=1 n=e5 v=0
163379 On ch=1 n=a#5 v=0
163379 On ch=1 n=g#4 v=0
163380 On ch=1 n=e5 v=100
163420 On ch=1 n=c5 v=100
163459 On ch=1 n=c5 v=0
163460 On ch=1 n=b4 v=100
163499 On ch=1 n=b4 v=0
163500 On ch=1 n=a#4 v=100
163539 On ch=1 n=a#4 v=0
163540 On ch=1 n=g4 v=100
163579 On ch=1 n=g4 v=0
163580 On ch=1 n=e4 v=100
163619 On ch=1 n=e4 v=0
163620 On ch=1 n=c4 v=100
163659 On ch=1 n=c4 v=0
163660 On ch=1 n=b3 v=100
163699 On ch=1 n=b3 v=0
163700 On ch=1 n=a#3 v=100
163739 On ch=1 n=a#3 v=0
163739 On ch=1 n=e5 v=0
163800 On ch=1 n=f#6 v=100
163860 On ch=1 n=d7 v=100
163860 On ch=1 n=b6 v=100
163860 On ch=1 n=d6 v=100
164039 On ch=1 n=d6 v=0
164039 On ch=1 n=f#6 v=0
164039 On ch=1 n=d7 v=0
164039 On ch=1 n=b6 v=0
164040 On ch=1 n=d6 v=100
164040 On ch=1 n=f#6 v=100
164100 On ch=1 n=c#7 v=100
164100 On ch=1 n=a6 v=100
164100 On ch=1 n=c#6 v=100
164279 On ch=1 n=c#6 v=0
164279 On ch=1 n=c#7 v=0
164279 On ch=1 n=d6 v=0
164279 On ch=1 n=f#6 v=0
164279 On ch=1 n=a6 v=0
164280 On ch=1 n=f#6 v=100
164280 On ch=1 n=d6 v=100
164340 On ch=1 n=g6 v=100
164340 On ch=1 n=b6 v=100
164340 On ch=1 n=b5 v=100
164519 On ch=1 n=b5 v=0
164519 On ch=1 n=g6 v=0
164519 On ch=1 n=f#6 v=0
164519 On ch=1 n=d6 v=0
164519 On ch=1 n=b6 v=0
164520 On ch=1 n=d6 v=100
164520 On ch=1 n=b5 v=100
164580 On ch=1 n=a6 v=100
164580 On ch=1 n=f#6 v=100
164580 On ch=1 n=a5 v=100
164759 On ch=1 n=a5 v=0
164759 On ch=1 n=a6 v=0
164759 On ch=1 n=d6 v=0
164759 On ch=1 n=b5 v=0
164759 On ch=1 n=f#6 v=0
164760 On ch=1 n=b5 v=100
164760 On ch=1 n=d6 v=100
164820 On ch=1 n=g6 v=100
164820 On ch=1 n=e6 v=100
164820 On ch=1 n=g5 v=100
164999 On ch=1 n=g5 v=0
164999 On ch=1 n=g6 v=0
164999 On ch=1 n=b5 v=0
164999 On ch=1 n=d6 v=0
164999 On ch=1 n=e6 v=0
165000 On ch=1 n=b5 v=100
165000 On ch=1 n=d6 v=100
165060 On ch=1 n=f#6 v=100
165060 On ch=1 n=f#5 v=100
165179 On ch=1 n=f#5 v=0
165179 On ch=1 n=b5 v=0
165179 On ch=1 n=d6 v=0
165179 On ch=1 n=f#6 v=0
165180 On ch=1 n=d5 v=100
165180 On ch=1 n=a#4 v=100
165180 On ch=1 n=f4 v=100
165180 On ch=1 n=f5 v=100
165259 On ch=1 n=f5 v=0
165259 On ch=1 n=d5 v=0
165259 On ch=1 n=a#4 v=0
165259 On ch=1 n=f4 v=0
165260 On ch=1 n=f6 v=100
165260 On ch=1 n=d6 v=100
165299 On ch=1 n=d6 v=0
165299 On ch=1 n=f6 v=0
165300 On ch=1 n=d7 v=100
165300 On ch=1 n=a#6 v=100
165300 On ch=1 n=f6 v=100
165300 On ch=1 n=d6 v=100
165499 On ch=1 n=d6 v=0
165499 On ch=1 n=d7 v=0
165499 On ch=1 n=a#6 v=0
165499 On ch=1 n=f6 v=0
165500 On ch=1 n=d6 v=100
165500 On ch=1 n=f6 v=100
165540 On ch=1 n=c7 v=100
165540 On ch=1 n=a6 v=100
165540 On ch=1 n=c6 v=100
165739 On ch=1 n=c6 v=0
165739 On ch=1 n=c7 v=0
165739 On ch=1 n=d6 v=0
165739 On ch=1 n=f6 v=0
165739 On ch=1 n=a6 v=0
165740 On ch=1 n=d6 v=100
165740 On ch=1 n=f6 v=100
165780 On ch=1 n=g6 v=100
165780 On ch=1 n=a#6 v=100
165780 On ch=1 n=a#5 v=100
165979 On ch=1 n=a#5 v=0
165979 On ch=1 n=g6 v=0
165979 On ch=1 n=d6 v=0
165979 On ch=1 n=f6 v=0
165979 On ch=1 n=a#6 v=0
165980 On ch=1 n=a#5 v=100
165980 On ch=1 n=d6 v=100
166020 On ch=1 n=a6 v=100
166020 On ch=1 n=f6 v=100
166020 On ch=1 n=a5 v=100
166219 On ch=1 n=a5 v=0
166219 On ch=1 n=a6 v=0
166219 On ch=1 n=a#5 v=0
166219 On ch=1 n=d6 v=0
166219 On ch=1 n=f6 v=0
166220 On ch=1 n=a#5 v=100
166220 On ch=1 n=d6 v=100
166260 On ch=1 n=d#6 v=100
166260 On ch=1 n=g6 v=100
166260 On ch=1 n=g5 v=100
166459 On ch=1 n=g5 v=0
166459 On ch=1 n=d#6 v=0
166459 On ch=1 n=a#5 v=0
166459 On ch=1 n=d6 v=0
166459 On ch=1 n=g6 v=0
166460 On ch=1 n=d5 v=100
166460 On ch=1 n=a#5 v=100
166460 On ch=1 n=d6 v=100
166499 On ch=1 n=d5 v=0
166500 On ch=1 n=f6 v=100
166500 On ch=1 n=f5 v=100
166619 On ch=1 n=f5 v=0
166619 On ch=1 n=a#5 v=0
166619 On ch=1 n=d6 v=0
166619 On ch=1 n=f6 v=0
166700 On ch=1 n=f#5 v=100
166739 On ch=1 n=f#5 v=0
166740 On ch=1 n=e6 v=100
166740 On ch=1 n=c6 v=100
166779 On ch=1 n=c6 v=0
166779 On ch=1 n=e6 v=0
166780 On ch=1 n=a6 v=100
166819 On ch=1 n=a6 v=0
166820 On ch=1 n=g5 v=100
166859 On ch=1 n=g5 v=0
166860 On ch=1 n=f6 v=100
166860 On ch=1 n=c#6 v=100
166899 On ch=1 n=c#6 v=0
166899 On ch=1 n=f6 v=0
166900 On ch=1 n=a6 v=100
166939 On ch=1 n=a6 v=0
166940 On ch=1 n=a5 v=100
166979 On ch=1 n=a5 v=0
166980 On ch=1 n=f#6 v=100
166980 On ch=1 n=d6 v=100
167019 On ch=1 n=d6 v=0
167019 On ch=1 n=f#6 v=0
167020 On ch=1 n=a6 v=100
167059 On ch=1 n=a6 v=0
167060 On ch=1 n=a#5 v=100
167099 On ch=1 n=a#5 v=0
167100 On ch=1 n=d6 v=100
167100 On ch=1 n=f#6 v=100
167139 On ch=1 n=f#6 v=0
167139 On ch=1 n=d6 v=0
167140 On ch=1 n=a#6 v=100
167179 On ch=1 n=a#6 v=0
167180 On ch=1 n=b5 v=100
167219 On ch=1 n=b5 v=0
167220 On ch=1 n=f#6 v=100
167220 On ch=1 n=d6 v=100
167259 On ch=1 n=d6 v=0
167259 On ch=1 n=f#6 v=0
167260 On ch=1 n=b6 v=100
167299 On ch=1 n=b6 v=0
167420 On ch=1 n=g5 v=100
167459 On ch=1 n=g5 v=0
167460 On ch=1 n=f#6 v=100
167460 On ch=1 n=d6 v=100
167499 On ch=1 n=d6 v=0
167499 On ch=1 n=f#6 v=0
167500 On ch=1 n=b6 v=100
167539 On ch=1 n=b6 v=0
167540 On ch=1 n=a5 v=100
167579 On ch=1 n=a5 v=0
167580 On ch=1 n=g6 v=100
167580 On ch=1 n=d#6 v=100
167619 On ch=1 n=d#6 v=0
167619 On ch=1 n=g6 v=0
167620 On ch=1 n=b6 v=100
167659 On ch=1 n=b6 v=0
167660 On ch=1 n=b5 v=100
167699 On ch=1 n=b5 v=0
167700 On ch=1 n=g#6 v=100
167700 On ch=1 n=e6 v=100
167739 On ch=1 n=e6 v=0
167739 On ch=1 n=g#6 v=0
167740 On ch=1 n=b6 v=100
167779 On ch=1 n=b6 v=0
167780 On ch=1 n=c6 v=100
167819 On ch=1 n=c6 v=0
167820 On ch=1 n=g6 v=100
167820 On ch=1 n=e6 v=100
167859 On ch=1 n=e6 v=0
167859 On ch=1 n=g6 v=0
167860 On ch=1 n=c7 v=100
167899 On ch=1 n=c7 v=0
167900 On ch=1 n=c#6 v=100
167939 On ch=1 n=c#6 v=0
167940 On ch=1 n=g6 v=100
167940 On ch=1 n=e6 v=100
167979 On ch=1 n=e6 v=0
167979 On ch=1 n=g6 v=0
167980 On ch=1 n=c#7 v=100
168019 On ch=1 n=c#7 v=0
168120 On ch=1 n=c#5 v=100
168179 On ch=1 n=c#5 v=0
168180 On ch=1 n=a5 v=100
168180 On ch=1 n=c#6 v=100
168239 On ch=1 n=a5 v=0
168240 On ch=1 n=c#5 v=100
168299 On ch=1 n=c#5 v=0
168299 On ch=1 n=c#6 v=0
168300 On ch=1 n=a#5 v=100
168300 On ch=1 n=d6 v=100
168359 On ch=1 n=a#5 v=0
168360 On ch=1 n=d5 v=100
168419 On ch=1 n=d5 v=0
168419 On ch=1 n=d6 v=0
168480 On ch=1 n=d5 v=100
168539 On ch=1 n=d5 v=0
168540 On ch=1 n=d6 v=100
168540 On ch=1 n=a#5 v=100
168599 On ch=1 n=a#5 v=0
168600 On ch=1 n=d5 v=100
168659 On ch=1 n=d5 v=0
168659 On ch=1 n=d6 v=0
168660 On ch=1 n=b5 v=100
168660 On ch=1 n=d#6 v=100
168719 On ch=1 n=b5 v=0
168720 On ch=1 n=d#5 v=100
168779 On ch=1 n=d#5 v=0
168779 On ch=1 n=d#6 v=0
168840 On ch=1 n=d#5 v=100
168899 On ch=1 n=d#5 v=0
168900 On ch=1 n=b5 v=100
168900 On ch=1 n=d#6 v=100
168959 On ch=1 n=b5 v=0
168960 On ch=1 n=d#5 v=100
169019 On ch=1 n=d#5 v=0
169019 On ch=1 n=d#6 v=0
169020 On ch=1 n=b5 v=100
169020 On ch=1 n=e6 v=100
169079 On ch=1 n=b5 v=0
169080 On ch=1 n=e5 v=100
169139 On ch=1 n=e5 v=0
169139 On ch=1 n=e6 v=0
169140 On ch=1 n=e6 v=100
169140 On ch=1 n=c6 v=100
169199 On ch=1 n=c6 v=0
169200 On ch=1 n=e5 v=100
169259 On ch=1 n=e5 v=0
169259 On ch=1 n=e6 v=0
169260 On ch=1 n=f6 v=100
169260 On ch=1 n=c#6 v=100
169319 On ch=1 n=c#6 v=0
169320 On ch=1 n=f5 v=100
169379 On ch=1 n=f5 v=0
169379 On ch=1 n=f6 v=0
169380 On ch=1 n=c#6 v=100
169380 On ch=1 n=f#6 v=100
169380 On ch=1 n=f#5 v=100
169439 On ch=1 n=f#5 v=0
169439 On ch=1 n=f#6 v=0
169439 On ch=1 n=c#6 v=0
169440 On ch=1 n=d6 v=100
169440 On ch=1 n=b5 v=100
169499 On ch=1 n=b5 v=0
169499 On ch=1 n=d6 v=0
169500 On ch=1 n=g6 v=100
169500 On ch=1 n=d6 v=100
169559 On ch=1 n=d6 v=0
169559 On ch=1 n=g6 v=0
169560 On ch=1 n=e6 v=100
169560 On ch=1 n=c#6 v=100
169589 On ch=1 n=c#6 v=0
169589 On ch=1 n=e6 v=0
169620 On ch=1 n=a6 v=100
169620 On ch=1 n=e6 v=100
169679 On ch=1 n=e6 v=0
169679 On ch=1 n=a6 v=0
169680 On ch=1 n=f#6 v=100
169680 On ch=1 n=d6 v=100
169709 On ch=1 n=d6 v=0
169709 On ch=1 n=f#6 v=0
169740 On ch=1 n=a#6 v=100
169740 On ch=1 n=f#6 v=100
169799 On ch=1 n=f#6 v=0
169799 On ch=1 n=a#6 v=0
169800 On ch=1 n=g6 v=100
169800 On ch=1 n=e6 v=100
169829 On ch=1 n=e6 v=0
169829 On ch=1 n=g6 v=0
169860 On ch=1 n=e6 v=100
169860 On ch=1 n=c#6 v=100
169899 On ch=1 n=c#6 v=0
169899 On ch=1 n=e6 v=0
169940 On ch=1 n=f#6 v=100
169940 On ch=1 n=d6 v=100
169979 On ch=1 n=d6 v=0
169979 On ch=1 n=f#6 v=0
169980 On ch=1 n=g6 v=100
169980 On ch=1 n=d#6 v=100
170039 On ch=1 n=d#6 v=0
170039 On ch=1 n=g6 v=0
170040 On ch=1 n=e6 v=100
170040 On ch=1 n=c#6 v=100
170069 On ch=1 n=c#6 v=0
170069 On ch=1 n=e6 v=0
170100 On ch=1 n=a6 v=100
170100 On ch=1 n=f6 v=100
170159 On ch=1 n=f6 v=0
170159 On ch=1 n=a6 v=0
170160 On ch=1 n=f#6 v=100
170160 On ch=1 n=d#6 v=100
170189 On ch=1 n=d#6 v=0
170189 On ch=1 n=f#6 v=0
170220 On ch=1 n=d6 v=100
170220 On ch=1 n=a#5 v=100
170220 On ch=1 n=g5 v=100
170249 On ch=1 n=g5 v=0
170249 On ch=1 n=a#5 v=0
170249 On ch=1 n=d6 v=0
170280 On ch=1 n=e6 v=100
170280 On ch=1 n=c#6 v=100
170309 On ch=1 n=c#6 v=0
170309 On ch=1 n=e6 v=0
170340 On ch=1 n=f#6 v=100
170340 On ch=1 n=d6 v=100
170369 On ch=1 n=d6 v=0
170369 On ch=1 n=f#6 v=0
170400 On ch=1 n=g6 v=100
170400 On ch=1 n=e6 v=100
170429 On ch=1 n=e6 v=0
170429 On ch=1 n=g6 v=0
170460 On ch=1 n=a6 v=100
170460 On ch=1 n=f#6 v=100
170460 On ch=1 n=d6 v=100
170489 On ch=1 n=d6 v=0
170489 On ch=1 n=f#6 v=0
170489 On ch=1 n=a6 v=0
170520 On ch=1 n=a5 v=100
170549 On ch=1 n=a5 v=0
170580 On ch=1 n=d5 v=100
170580 On ch=1 n=g#4 v=100
170580 On ch=1 n=f4 v=100
170580 On ch=1 n=a#3 v=100
170609 On ch=1 n=a#3 v=0
170609 On ch=1 n=d5 v=0
170609 On ch=1 n=g#4 v=0
170609 On ch=1 n=f4 v=0
170640 On ch=1 n=b5 v=100
170640 On ch=1 n=g#5 v=100
170640 On ch=1 n=f#5 v=100
170759 On ch=1 n=f#5 v=0
170759 On ch=1 n=g#5 v=0
170759 On ch=1 n=b5 v=0
170760 On ch=1 n=e5 v=100
170760 On ch=1 n=g#5 v=100
170760 On ch=1 n=b5 v=100
170879 On ch=1 n=b5 v=0
170879 On ch=1 n=g#5 v=0
170879 On ch=1 n=e5 v=0
170880 On ch=1 n=b5 v=100
170880 On ch=1 n=g#5 v=100
170880 On ch=1 n=d#5 v=100
170909 On ch=1 n=d#5 v=0
170909 On ch=1 n=g#5 v=0
170909 On ch=1 n=b5 v=0
170940 On ch=1 n=b7 v=100
170940 On ch=1 n=g#7 v=100
170940 On ch=1 n=e7 v=100
170940 On ch=1 n=b6 v=100
170969 On ch=1 n=b6 v=0
170969 On ch=1 n=b7 v=0
170969 On ch=1 n=g#7 v=0
170969 On ch=1 n=e7 v=0
171000 On ch=1 n=b6 v=100
171000 On ch=1 n=e7 v=100
171000 On ch=1 n=g#7 v=100
171000 On ch=1 n=b7 v=100
171029 On ch=1 n=b7 v=0
171029 On ch=1 n=b6 v=0
171029 On ch=1 n=e7 v=0
171029 On ch=1 n=g#7 v=0
171060 On ch=1 n=b7 v=100
171060 On ch=1 n=g#7 v=100
171060 On ch=1 n=e7 v=100
171060 On ch=1 n=b6 v=100
171089 On ch=1 n=b6 v=0
171089 On ch=1 n=b7 v=0
171089 On ch=1 n=g#7 v=0
171089 On ch=1 n=e7 v=0
171120 On ch=1 n=b6 v=100
171120 On ch=1 n=e7 v=100
171120 On ch=1 n=g#7 v=100
171120 On ch=1 n=b7 v=100
171149 On ch=1 n=b7 v=0
171149 On ch=1 n=b6 v=0
171149 On ch=1 n=e7 v=0
171149 On ch=1 n=g#7 v=0
171180 On ch=1 n=g#6 v=100
171180 On ch=1 n=d#6 v=100
171239 On ch=1 n=d#6 v=0
171239 On ch=1 n=g#6 v=0
171240 On ch=1 n=e6 v=100
171240 On ch=1 n=c#6 v=100
171269 On ch=1 n=c#6 v=0
171269 On ch=1 n=e6 v=0
171300 On ch=1 n=a6 v=100
171300 On ch=1 n=e6 v=100
171359 On ch=1 n=e6 v=0
171359 On ch=1 n=a6 v=0
171360 On ch=1 n=f#6 v=100
171360 On ch=1 n=d#6 v=100
171389 On ch=1 n=d#6 v=0
171389 On ch=1 n=f#6 v=0
171420 On ch=1 n=b6 v=100
171420 On ch=1 n=f#6 v=100
171479 On ch=1 n=f#6 v=0
171479 On ch=1 n=b6 v=0
171480 On ch=1 n=g#6 v=100
171480 On ch=1 n=e6 v=100
171509 On ch=1 n=e6 v=0
171509 On ch=1 n=g#6 v=0
171540 On ch=1 n=c7 v=100
171540 On ch=1 n=g#6 v=100
171599 On ch=1 n=g#6 v=0
171599 On ch=1 n=c7 v=0
171600 On ch=1 n=a6 v=100
171600 On ch=1 n=f#6 v=100
171629 On ch=1 n=f#6 v=0
171629 On ch=1 n=a6 v=0
171660 On ch=1 n=f#6 v=100
171660 On ch=1 n=d#6 v=100
171699 On ch=1 n=d#6 v=0
171699 On ch=1 n=f#6 v=0
171740 On ch=1 n=g#6 v=100
171740 On ch=1 n=e6 v=100
171779 On ch=1 n=e6 v=0
171779 On ch=1 n=g#6 v=0
171780 On ch=1 n=a6 v=100
171780 On ch=1 n=f6 v=100
171839 On ch=1 n=f6 v=0
171839 On ch=1 n=a6 v=0
171840 On ch=1 n=f#6 v=100
171840 On ch=1 n=d#6 v=100
171869 On ch=1 n=d#6 v=0
171869 On ch=1 n=f#6 v=0
171900 On ch=1 n=b6 v=100
171900 On ch=1 n=g6 v=100
171959 On ch=1 n=g6 v=0
171959 On ch=1 n=b6 v=0
171960 On ch=1 n=g#6 v=100
171960 On ch=1 n=f6 v=100
171989 On ch=1 n=f6 v=0
171989 On ch=1 n=g#6 v=0
172020 On ch=1 n=a5 v=100
172020 On ch=1 n=c6 v=100
172020 On ch=1 n=e6 v=100
172049 On ch=1 n=e6 v=0
172049 On ch=1 n=c6 v=0
172049 On ch=1 n=a5 v=0
172080 On ch=1 n=f#6 v=100
172080 On ch=1 n=c#6 v=100
172109 On ch=1 n=c#6 v=0
172109 On ch=1 n=f#6 v=0
172140 On ch=1 n=g#6 v=100
172140 On ch=1 n=e6 v=100
172169 On ch=1 n=e6 v=0
172169 On ch=1 n=g#6 v=0
172200 On ch=1 n=a6 v=100
172200 On ch=1 n=f#6 v=100
172229 On ch=1 n=f#6 v=0
172229 On ch=1 n=a6 v=0
172260 On ch=1 n=b6 v=100
172260 On ch=1 n=g#6 v=100
172260 On ch=1 n=e6 v=100
172319 On ch=1 n=e6 v=0
172319 On ch=1 n=g#6 v=0
172319 On ch=1 n=b6 v=0
172320 On ch=1 n=b5 v=100
172379 On ch=1 n=b5 v=0
172380 On ch=1 n=c7 v=100
172380 On ch=1 n=a#6 v=100
172380 On ch=1 n=e6 v=100
172380 On ch=1 n=c6 v=100
172409 On ch=1 n=c6 v=0
172409 On ch=1 n=c7 v=0
172409 On ch=1 n=a#6 v=0
172409 On ch=1 n=e6 v=0
172440 On ch=1 n=c#7 v=100
172440 On ch=1 n=a#6 v=100
172440 On ch=1 n=g#6 v=100
172559 On ch=1 n=g#6 v=0
172559 On ch=1 n=a#6 v=0
172559 On ch=1 n=c#7 v=0
172560 On ch=1 n=g6 v=100
172560 On ch=1 n=a#6 v=100
172560 On ch=1 n=c#7 v=100
172589 On ch=1 n=c#7 v=0
172589 On ch=1 n=a#6 v=0
172589 On ch=1 n=g6 v=0
172620 On ch=1 n=f#6 v=100
172620 On ch=1 n=a#6 v=100
172620 On ch=1 n=c#7 v=100
172649 On ch=1 n=c#7 v=0
172649 On ch=1 n=a#6 v=0
172649 On ch=1 n=f#6 v=0
172680 On ch=1 n=f6 v=100
172680 On ch=1 n=a#6 v=100
172680 On ch=1 n=c#7 v=100
172709 On ch=1 n=c#7 v=0
172709 On ch=1 n=a#6 v=0
172709 On ch=1 n=f6 v=0
172740 On ch=1 n=c#8 v=100
172740 On ch=1 n=a#7 v=100
172740 On ch=1 n=f#7 v=100
172740 On ch=1 n=c#7 v=100
172769 On ch=1 n=c#7 v=0
172769 On ch=1 n=c#8 v=0
172769 On ch=1 n=a#7 v=0
172769 On ch=1 n=f#7 v=0
172800 On ch=1 n=c#7 v=100
172800 On ch=1 n=f#7 v=100
172800 On ch=1 n=a#7 v=100
172800 On ch=1 n=c#8 v=100
172829 On ch=1 n=c#8 v=0
172829 On ch=1 n=c#7 v=0
172829 On ch=1 n=f#7 v=0
172829 On ch=1 n=a#7 v=0
172860 On ch=1 n=c#8 v=100
172860 On ch=1 n=a#7 v=100
172860 On ch=1 n=f#7 v=100
172860 On ch=1 n=c#7 v=100
172889 On ch=1 n=c#7 v=0
172889 On ch=1 n=c#8 v=0
172889 On ch=1 n=a#7 v=0
172889 On ch=1 n=f#7 v=0
172920 On ch=1 n=c#7 v=100
172920 On ch=1 n=f#7 v=100
172920 On ch=1 n=a#7 v=100
172920 On ch=1 n=c#8 v=100
172949 On ch=1 n=c#8 v=0
172949 On ch=1 n=c#7 v=0
172949 On ch=1 n=f#7 v=0
172949 On ch=1 n=a#7 v=0
172980 On ch=1 n=a#6 v=100
172980 On ch=1 n=f6 v=100
173039 On ch=1 n=f6 v=0
173039 On ch=1 n=a#6 v=0
173040 On ch=1 n=f#6 v=100
173040 On ch=1 n=d#6 v=100
173069 On ch=1 n=d#6 v=0
173069 On ch=1 n=f#6 v=0
173100 On ch=1 n=b6 v=100
173100 On ch=1 n=f#6 v=100
173159 On ch=1 n=f#6 v=0
173159 On ch=1 n=b6 v=0
173160 On ch=1 n=g#6 v=100
173160 On ch=1 n=f6 v=100
173189 On ch=1 n=f6 v=0
173189 On ch=1 n=g#6 v=0
173220 On ch=1 n=c#7 v=100
173220 On ch=1 n=g#6 v=100
173279 On ch=1 n=g#6 v=0
173279 On ch=1 n=c#7 v=0
173280 On ch=1 n=a#6 v=100
173280 On ch=1 n=f#6 v=100
173309 On ch=1 n=f#6 v=0
173309 On ch=1 n=a#6 v=0
173340 On ch=1 n=d7 v=100
173340 On ch=1 n=a#6 v=100
173399 On ch=1 n=a#6 v=0
173399 On ch=1 n=d7 v=0
173400 On ch=1 n=b6 v=100
173400 On ch=1 n=g#6 v=100
173429 On ch=1 n=g#6 v=0
173429 On ch=1 n=b6 v=0
173460 On ch=1 n=d6 v=100
173460 On ch=1 n=d5 v=100
173579 On ch=1 n=d5 v=0
173579 On ch=1 n=d6 v=0
173580 On ch=1 n=d#7 v=100
173580 On ch=1 n=a#6 v=100
173580 On ch=1 n=f#6 v=100
173580 On ch=1 n=d#6 v=100
173639 On ch=1 n=d#6 v=0
173639 On ch=1 n=d#7 v=0
173639 On ch=1 n=a#6 v=0
173639 On ch=1 n=f#6 v=0
173640 On ch=1 n=a6 v=100
173699 On ch=1 n=a6 v=0
173700 On ch=1 n=c7 v=100
173700 On ch=1 n=g6 v=100
173729 On ch=1 n=g6 v=0
173729 On ch=1 n=c7 v=0
173760 On ch=1 n=g#6 v=100
173760 On ch=1 n=f6 v=100
173789 On ch=1 n=f6 v=0
173789 On ch=1 n=g#6 v=0
173820 On ch=1 n=c#7 v=100
173820 On ch=1 n=g#6 v=100
173849 On ch=1 n=g#6 v=0
173849 On ch=1 n=c#7 v=0
173880 On ch=1 n=a#6 v=100
173880 On ch=1 n=g6 v=100
173909 On ch=1 n=g6 v=0
173909 On ch=1 n=a#6 v=0
173940 On ch=1 n=d#7 v=100
173940 On ch=1 n=a#6 v=100
173969 On ch=1 n=a#6 v=0
173969 On ch=1 n=d#7 v=0
174000 On ch=1 n=c7 v=100
174000 On ch=1 n=g#6 v=100
174029 On ch=1 n=g#6 v=0
174029 On ch=1 n=c7 v=0
174060 On ch=1 n=e7 v=100
174060 On ch=1 n=c7 v=100
174089 On ch=1 n=c7 v=0
174089 On ch=1 n=e7 v=0
174120 On ch=1 n=c#7 v=100
174120 On ch=1 n=a#6 v=100
174149 On ch=1 n=a#6 v=0
174149 On ch=1 n=c#7 v=0
174180 On ch=1 n=e6 v=100
174180 On ch=1 n=e5 v=100
174299 On ch=1 n=e5 v=0
174299 On ch=1 n=e6 v=0
174300 On ch=1 n=f7 v=100
174300 On ch=1 n=c7 v=100
174300 On ch=1 n=g#6 v=100
174300 On ch=1 n=f6 v=100
174419 On ch=1 n=f6 v=0
174419 On ch=1 n=f7 v=0
174419 On ch=1 n=c7 v=0
174419 On ch=1 n=g#6 v=0
174420 On ch=1 n=e7 v=100
174420 On ch=1 n=c#7 v=100
174459 On ch=1 n=c#7 v=0
174459 On ch=1 n=e7 v=0
174460 On ch=1 n=a6 v=100
174499 On ch=1 n=a6 v=0
174500 On ch=1 n=f7 v=100
174500 On ch=1 n=d7 v=100
174539 On ch=1 n=d7 v=0
174539 On ch=1 n=f7 v=0
174540 On ch=1 n=g7 v=100
174540 On ch=1 n=e7 v=100
174579 On ch=1 n=e7 v=0
174579 On ch=1 n=g7 v=0
174580 On ch=1 n=a6 v=100
174619 On ch=1 n=a6 v=0
174620 On ch=1 n=g7 v=100
174620 On ch=1 n=e7 v=100
174659 On ch=1 n=e7 v=0
174659 On ch=1 n=g7 v=0
174660 On ch=1 n=a7 v=100
174660 On ch=1 n=f7 v=100
174699 On ch=1 n=f7 v=0
174699 On ch=1 n=a7 v=0
174700 On ch=1 n=a6 v=100
174739 On ch=1 n=a6 v=0
174740 On ch=1 n=a7 v=100
174779 On ch=1 n=a7 v=0
174780 On ch=1 n=d7 v=100
174780 On ch=1 n=b6 v=100
174819 On ch=1 n=b6 v=0
174819 On ch=1 n=d7 v=0
174820 On ch=1 n=a6 v=100
174859 On ch=1 n=a6 v=0
174860 On ch=1 n=e7 v=100
174860 On ch=1 n=c#7 v=100
174899 On ch=1 n=c#7 v=0
174899 On ch=1 n=e7 v=0
174900 On ch=1 n=f7 v=100
174900 On ch=1 n=d7 v=100
174939 On ch=1 n=d7 v=0
174939 On ch=1 n=f7 v=0
174940 On ch=1 n=a6 v=100
174979 On ch=1 n=a6 v=0
174980 On ch=1 n=d7 v=100
174980 On ch=1 n=f7 v=100
175019 On ch=1 n=f7 v=0
175019 On ch=1 n=d7 v=0
175020 On ch=1 n=g7 v=100
175020 On ch=1 n=e7 v=100
175059 On ch=1 n=e7 v=0
175059 On ch=1 n=g7 v=0
175060 On ch=1 n=a6 v=100
175099 On ch=1 n=a6 v=0
175100 On ch=1 n=g7 v=100
175139 On ch=1 n=g7 v=0
175140 On ch=1 n=c7 v=100
175179 On ch=1 n=c7 v=0
175180 On ch=1 n=a6 v=100
175219 On ch=1 n=a6 v=0
175220 On ch=1 n=d7 v=100
175220 On ch=1 n=b6 v=100
175259 On ch=1 n=b6 v=0
175259 On ch=1 n=d7 v=0
175260 On ch=1 n=e7 v=100
175260 On ch=1 n=c#7 v=100
175299 On ch=1 n=c#7 v=0
175299 On ch=1 n=e7 v=0
175300 On ch=1 n=a6 v=100
175339 On ch=1 n=a6 v=0
175340 On ch=1 n=f7 v=100
175340 On ch=1 n=d7 v=100
175379 On ch=1 n=d7 v=0
175379 On ch=1 n=f7 v=0
175380 On ch=1 n=g7 v=100
175380 On ch=1 n=e7 v=100
175419 On ch=1 n=e7 v=0
175419 On ch=1 n=g7 v=0
175420 On ch=1 n=a6 v=100
175459 On ch=1 n=a6 v=0
175460 On ch=1 n=a7 v=100
175499 On ch=1 n=a7 v=0
175500 On ch=1 n=b7 v=100
175539 On ch=1 n=b7 v=0
175540 On ch=1 n=a7 v=100
175540 On ch=1 n=c#8 v=100
175579 On ch=1 n=c#8 v=0
175579 On ch=1 n=a7 v=0
175580 On ch=1 n=b7 v=100
175580 On ch=1 n=d8 v=100
175619 On ch=1 n=d8 v=0
175619 On ch=1 n=b7 v=0
175620 On ch=1 n=c#8 v=100
175620 On ch=1 n=e8 v=100
175659 On ch=1 n=e8 v=0
175659 On ch=1 n=c#8 v=0
175660 On ch=1 n=a7 v=100
175699 On ch=1 n=a7 v=0
175700 On ch=1 n=d8 v=100
175700 On ch=1 n=f8 v=100
175739 On ch=1 n=f8 v=0
175739 On ch=1 n=d8 v=0
175740 On ch=1 n=e8 v=100
175740 On ch=1 n=g8 v=100
175779 On ch=1 n=g8 v=0
175779 On ch=1 n=e8 v=0
175780 On ch=1 n=a7 v=100
175819 On ch=1 n=a7 v=0
175820 On ch=1 n=f8 v=100
175820 On ch=1 n=a8 v=100
175859 On ch=1 n=a8 v=0
175859 On ch=1 n=f8 v=0
175860 On ch=1 n=b7 v=100
175899 On ch=1 n=b7 v=0
175900 On ch=1 n=f#7 v=100
175939 On ch=1 n=f#7 v=0
175940 On ch=1 n=c#8 v=100
175940 On ch=1 n=a7 v=100
175979 On ch=1 n=a7 v=0
175979 On ch=1 n=c#8 v=0
175980 On ch=1 n=d8 v=100
175980 On ch=1 n=b7 v=100
176019 On ch=1 n=b7 v=0
176019 On ch=1 n=d8 v=0
176020 On ch=1 n=f#7 v=100
176059 On ch=1 n=f#7 v=0
176060 On ch=1 n=e8 v=100
176060 On ch=1 n=c#8 v=100
176099 On ch=1 n=c#8 v=0
176099 On ch=1 n=e8 v=0
176100 On ch=1 n=f8 v=100
176100 On ch=1 n=d8 v=100
176139 On ch=1 n=d8 v=0
176139 On ch=1 n=f8 v=0
176140 On ch=1 n=f#7 v=100
176179 On ch=1 n=f#7 v=0
176180 On ch=1 n=g8 v=100
176180 On ch=1 n=e8 v=100
176219 On ch=1 n=e8 v=0
176219 On ch=1 n=g8 v=0
176220 On ch=1 n=a7 v=100
176220 On ch=1 n=f7 v=100
176249 On ch=1 n=f7 v=0
176249 On ch=1 n=a7 v=0
176280 On ch=1 n=a#7 v=100
176280 On ch=1 n=g7 v=100
176309 On ch=1 n=g7 v=0
176309 On ch=1 n=a#7 v=0
176340 On ch=1 n=c8 v=100
176340 On ch=1 n=a7 v=100
176369 On ch=1 n=a7 v=0
176369 On ch=1 n=c8 v=0
176400 On ch=1 n=d8 v=100
176400 On ch=1 n=a#7 v=100
176429 On ch=1 n=a#7 v=0
176429 On ch=1 n=d8 v=0
176460 On ch=1 n=a7 v=100
176460 On ch=1 n=c#8 v=100
176460 On ch=1 n=e8 v=100
176460 On ch=1 n=e7 v=100
176579 On ch=1 n=e7 v=0
176579 On ch=1 n=a7 v=0
176579 On ch=1 n=c#8 v=0
176579 On ch=1 n=e8 v=0
176580 On ch=1 n=f4 v=100
176700 On ch=1 n=a5 v=100
176700 On ch=1 n=d#5 v=100
176700 On ch=1 n=a4 v=100
176819 On ch=1 n=a4 v=0
176819 On ch=1 n=d#5 v=0
176819 On ch=1 n=a5 v=0
176820 On ch=1 n=d#6 v=100
176820 On ch=1 n=a5 v=100
176939 On ch=1 n=a5 v=0
176939 On ch=1 n=d#6 v=0
176939 On ch=1 n=f4 v=0
176940 On ch=1 n=f#7 v=100
176940 On ch=1 n=f#6 v=100
177060 On ch=1 n=b6 v=100
177060 On ch=1 n=d#6 v=100
177060 On ch=1 n=b5 v=100
177179 On ch=1 n=b5 v=0
177179 On ch=1 n=b6 v=0
177179 On ch=1 n=d#6 v=0
177180 On ch=1 n=d#5 v=100
177180 On ch=1 n=a#5 v=100
177299 On ch=1 n=a#5 v=0
177299 On ch=1 n=f#7 v=0
177299 On ch=1 n=f#6 v=0
177299 On ch=1 n=d#5 v=0
177300 On ch=1 n=f4 v=100
177480 On ch=1 n=a4 v=100
177480 On ch=1 n=d#5 v=100
177480 On ch=1 n=f5 v=100
177539 On ch=1 n=f5 v=0
177539 On ch=1 n=d#5 v=0
177539 On ch=1 n=a4 v=0
177540 On ch=1 n=g5 v=100
177540 On ch=1 n=d#5 v=100
177540 On ch=1 n=a#4 v=100
177659 On ch=1 n=a#4 v=0
177659 On ch=1 n=f4 v=0
177659 On ch=1 n=g5 v=0
177659 On ch=1 n=d#5 v=0
177660 On ch=1 n=a5 v=100
177660 On ch=1 n=g5 v=100
177660 On ch=1 n=d#5 v=100
177660 On ch=1 n=a4 v=100
177779 On ch=1 n=a4 v=0
177779 On ch=1 n=a5 v=0
177779 On ch=1 n=g5 v=0
177779 On ch=1 n=d#5 v=0
177780 On ch=1 n=d#5 v=100
177780 On ch=1 n=g5 v=100
177780 On ch=1 n=a#5 v=100
177780 On ch=1 n=a#4 v=100
177899 On ch=1 n=a#4 v=0
177899 On ch=1 n=d#5 v=0
177899 On ch=1 n=g5 v=0
177899 On ch=1 n=a#5 v=0
177900 On ch=1 n=a5 v=100
177900 On ch=1 n=c6 v=100
177900 On ch=1 n=d#5 v=100
177900 On ch=1 n=c5 v=100
178019 On ch=1 n=c5 v=0
178019 On ch=1 n=a5 v=0
178019 On ch=1 n=c6 v=0
178019 On ch=1 n=d#5 v=0
178020 On ch=1 n=g5 v=100
178020 On ch=1 n=a#5 v=100
178020 On ch=1 n=d6 v=100
178020 On ch=1 n=d5 v=100
178139 On ch=1 n=d5 v=0
178139 On ch=1 n=g5 v=0
178139 On ch=1 n=a#5 v=0
178139 On ch=1 n=d6 v=0
178140 On ch=1 n=d#6 v=100
178140 On ch=1 n=d#5 v=100
178140 On ch=1 n=g5 v=100
178140 On ch=1 n=a#5 v=100
178259 On ch=1 n=a#5 v=0
178259 On ch=1 n=d#6 v=0
178259 On ch=1 n=d#5 v=0
178259 On ch=1 n=g5 v=0
178260 On ch=1 n=g6 v=100
178260 On ch=1 n=d#6 v=100
178260 On ch=1 n=b5 v=100
178260 On ch=1 n=g5 v=100
178379 On ch=1 n=g5 v=0
178379 On ch=1 n=g6 v=0
178379 On ch=1 n=d#6 v=0
178379 On ch=1 n=b5 v=0
178380 On ch=1 n=a6 v=100
178380 On ch=1 n=g6 v=100
178380 On ch=1 n=d#6 v=100
178380 On ch=1 n=a5 v=100
178499 On ch=1 n=a5 v=0
178499 On ch=1 n=a6 v=0
178499 On ch=1 n=g6 v=0
178499 On ch=1 n=d#6 v=0
178500 On ch=1 n=a#6 v=100
178500 On ch=1 n=g6 v=100
178500 On ch=1 n=d#6 v=100
178500 On ch=1 n=a#5 v=100
178619 On ch=1 n=a#5 v=0
178619 On ch=1 n=a#6 v=0
178619 On ch=1 n=g6 v=0
178619 On ch=1 n=d#6 v=0
178620 On ch=1 n=c7 v=100
178620 On ch=1 n=g#6 v=100
178620 On ch=1 n=d#6 v=100
178620 On ch=1 n=c6 v=100
178739 On ch=1 n=c6 v=0
178739 On ch=1 n=c7 v=0
178739 On ch=1 n=g#6 v=0
178739 On ch=1 n=d#6 v=0
178800 On ch=1 n=f5 v=100
178800 On ch=1 n=d5 v=100
178800 On ch=1 n=a4 v=100
178859 On ch=1 n=a4 v=0
178859 On ch=1 n=d5 v=0
178859 On ch=1 n=f5 v=0
178860 On ch=1 n=f6 v=100
178860 On ch=1 n=a6 v=100
178860 On ch=1 n=d7 v=100
178860 On ch=1 n=d6 v=100
178919 On ch=1 n=d6 v=0
178919 On ch=1 n=f6 v=0
178919 On ch=1 n=a6 v=0
178919 On ch=1 n=d7 v=0
178920 On ch=1 n=a5 v=100
178920 On ch=1 n=f5 v=100
178979 On ch=1 n=f5 v=0
178979 On ch=1 n=a5 v=0
178980 On ch=1 n=d6 v=100
178980 On ch=1 n=a5 v=100
179039 On ch=1 n=a5 v=0
179039 On ch=1 n=d6 v=0
179040 On ch=1 n=f6 v=100
179040 On ch=1 n=a5 v=100
179040 On ch=1 n=f5 v=100
179099 On ch=1 n=f5 v=0
179099 On ch=1 n=a5 v=0
179099 On ch=1 n=f6 v=0
179100 On ch=1 n=d6 v=100
179100 On ch=1 n=a#5 v=100
179100 On ch=1 n=f5 v=100
179100 On ch=1 n=f6 v=100
179159 On ch=1 n=f5 v=0
179159 On ch=1 n=d6 v=0
179159 On ch=1 n=a#5 v=0
179160 On ch=1 n=d5 v=100
179160 On ch=1 n=a#5 v=100
179219 On ch=1 n=a#5 v=0
179219 On ch=1 n=d5 v=0
179219 On ch=1 n=f6 v=0
179220 On ch=1 n=a#6 v=100
179220 On ch=1 n=c6 v=100
179220 On ch=1 n=a#5 v=100
179279 On ch=1 n=a#5 v=0
179279 On ch=1 n=c6 v=0
179280 On ch=1 n=c5 v=100
179280 On ch=1 n=d#5 v=100
179280 On ch=1 n=a#5 v=100
179339 On ch=1 n=a#5 v=0
179339 On ch=1 n=d#5 v=0
179339 On ch=1 n=c5 v=0
179340 On ch=1 n=d6 v=100
179340 On ch=1 n=a#5 v=100
179399 On ch=1 n=a#5 v=0
179399 On ch=1 n=d6 v=0
179400 On ch=1 n=d5 v=100
179400 On ch=1 n=f5 v=100
179400 On ch=1 n=a#5 v=100
179459 On ch=1 n=a#5 v=0
179459 On ch=1 n=a#6 v=0
179459 On ch=1 n=d5 v=0
179459 On ch=1 n=f5 v=0
179460 On ch=1 n=a5 v=100
179467 On ch=1 n=c6 v=100
179474 On ch=1 n=d#6 v=100
179481 On ch=1 n=a6 v=100
179522 On ch=1 n=d#6 v=0
179522 On ch=1 n=a5 v=0
179522 On ch=1 n=c6 v=0
179579 On ch=1 n=c5 v=100
179586 On ch=1 n=d#5 v=100
179593 On ch=1 n=g#5 v=100
179641 On ch=1 n=g#5 v=0
179641 On ch=1 n=d#5 v=0
179641 On ch=1 n=c5 v=0
179704 On ch=1 n=a6 v=0
179705 On ch=1 n=f#5 v=100
179712 On ch=1 n=a5 v=100
179719 On ch=1 n=b5 v=100
179726 On ch=1 n=f#6 v=100
179760 On ch=1 n=f#6 v=0
179760 On ch=1 n=f#5 v=0
179760 On ch=1 n=a5 v=0
179760 On ch=1 n=b5 v=0
179820 On ch=1 n=f#5 v=100
179827 On ch=1 n=g#5 v=100
179834 On ch=1 n=b5 v=100
179841 On ch=1 n=f#6 v=100
179882 On ch=1 n=b5 v=0
179882 On ch=1 n=f#5 v=0
179882 On ch=1 n=g#5 v=0
179939 On ch=1 n=b4 v=100
179953 On ch=1 n=d5 v=100
179960 On ch=1 n=e5 v=100
180001 On ch=1 n=e5 v=0
180001 On ch=1 n=d5 v=0
180001 On ch=1 n=b4 v=0
180064 On ch=1 n=f#6 v=0
180065 On ch=1 n=d5 v=100
180072 On ch=1 n=f5 v=100
180079 On ch=1 n=g5 v=100
180086 On ch=1 n=d6 v=100
180120 On ch=1 n=g5 v=0
180120 On ch=1 n=d5 v=0
180120 On ch=1 n=f5 v=0
180183 On ch=1 n=d6 v=0
180240 On ch=1 n=a#5 v=100
180240 On ch=1 n=g5 v=100
180240 On ch=1 n=d5 v=100
180299 On ch=1 n=d5 v=0
180299 On ch=1 n=g5 v=0
180299 On ch=1 n=a#5 v=0
180300 On ch=1 n=f6 v=100
180300 On ch=1 n=a#5 v=100
180300 On ch=1 n=g5 v=100
180359 On ch=1 n=g5 v=0
180359 On ch=1 n=a#5 v=0
180360 On ch=1 n=d5 v=100
180360 On ch=1 n=a#5 v=100
180360 On ch=1 n=g5 v=100
180419 On ch=1 n=g5 v=0
180419 On ch=1 n=f6 v=0
180419 On ch=1 n=d5 v=0
180419 On ch=1 n=a#5 v=0
180420 On ch=1 n=d#6 v=100
180420 On ch=1 n=a#5 v=100
180420 On ch=1 n=g5 v=100
180479 On ch=1 n=g5 v=0
180479 On ch=1 n=a#5 v=0
180480 On ch=1 n=d#5 v=100
180480 On ch=1 n=a#5 v=100
180480 On ch=1 n=g5 v=100
180539 On ch=1 n=g5 v=0
180539 On ch=1 n=d#6 v=0
180539 On ch=1 n=d#5 v=0
180539 On ch=1 n=a#5 v=0
180540 On ch=1 n=d5 v=100
180540 On ch=1 n=d6 v=100
180540 On ch=1 n=a#5 v=100
180599 On ch=1 n=d5 v=0
180600 On ch=1 n=e5 v=100
180659 On ch=1 n=e5 v=0
180659 On ch=1 n=a#5 v=0
180659 On ch=1 n=d6 v=0
180660 On ch=1 n=c5 v=100
180660 On ch=1 n=c6 v=100
180660 On ch=1 n=a#5 v=100
180719 On ch=1 n=c5 v=0
180720 On ch=1 n=d#5 v=100
180779 On ch=1 n=d#5 v=0
180779 On ch=1 n=a#5 v=0
180779 On ch=1 n=c6 v=0
180780 On ch=1 n=d5 v=100
180780 On ch=1 n=d6 v=100
180780 On ch=1 n=a5 v=100
180839 On ch=1 n=d5 v=0
180840 On ch=1 n=d#5 v=100
180899 On ch=1 n=d#5 v=0
180899 On ch=1 n=a5 v=0
180899 On ch=1 n=d6 v=0
180900 On ch=1 n=f4 v=100
180900 On ch=1 n=a4 v=100
180900 On ch=1 n=f5 v=100
180900 On ch=1 n=d#5 v=100
181019 On ch=1 n=d#5 v=0
181019 On ch=1 n=f4 v=0
181019 On ch=1 n=a4 v=0
181019 On ch=1 n=f5 v=0
181020 On ch=1 n=d7 v=100
181020 On ch=1 n=a6 v=100
181020 On ch=1 n=f6 v=100
181020 On ch=1 n=d6 v=100
181020 On ch=1 n=f5 v=100
181020 On ch=1 n=d5 v=100
181020 On ch=1 n=a4 v=100
181079 On ch=1 n=a4 v=0
181079 On ch=1 n=f5 v=0
181079 On ch=1 n=d5 v=0
181080 On ch=1 n=f6 v=100
181080 On ch=1 n=d#6 v=100
181080 On ch=1 n=a5 v=100
181080 On ch=1 n=f5 v=100
181139 On ch=1 n=f5 v=0
181139 On ch=1 n=a5 v=0
181139 On ch=1 n=f6 v=0
181139 On ch=1 n=d#6 v=0
181140 On ch=1 n=e6 v=100
181140 On ch=1 n=a5 v=100
181140 On ch=1 n=e5 v=100
181199 On ch=1 n=e5 v=0
181199 On ch=1 n=e6 v=0
181199 On ch=1 n=a6 v=0
181199 On ch=1 n=d7 v=0
181199 On ch=1 n=f6 v=0
181199 On ch=1 n=a5 v=0
181199 On ch=1 n=d6 v=0
181200 On ch=1 n=d#6 v=100
181200 On ch=1 n=a5 v=100
181200 On ch=1 n=d#5 v=100
181200 On ch=1 n=f6 v=100
181259 On ch=1 n=f6 v=0
181259 On ch=1 n=d#6 v=0
181259 On ch=1 n=a5 v=0
181259 On ch=1 n=d#5 v=0
181260 On ch=1 n=d5 v=100
181267 On ch=1 n=a5 v=100
181274 On ch=1 n=d6 v=100
181281 On ch=1 n=f6 v=100
181320 On ch=1 n=d5 v=100
181320 On ch=1 n=a5 v=100
181322 On ch=1 n=f6 v=0
181322 On ch=1 n=d6 v=0
181322 On ch=1 n=d5 v=0
181322 On ch=1 n=a5 v=0
181379 On ch=1 n=a5 v=0
181379 On ch=1 n=d5 v=0
181380 On ch=1 n=a6 v=100
181380 On ch=1 n=d6 v=100
181380 On ch=1 n=a5 v=100
181500 On ch=1 n=f#4 v=100
181500 On ch=1 n=a#4 v=100
181500 On ch=1 n=d#5 v=100
181559 On ch=1 n=d#5 v=0
181559 On ch=1 n=f#4 v=0
181559 On ch=1 n=a#4 v=0
181560 On ch=1 n=d5 v=100
181560 On ch=1 n=a#4 v=100
181560 On ch=1 n=f4 v=100
181619 On ch=1 n=f4 v=0
181619 On ch=1 n=a5 v=0
181619 On ch=1 n=a6 v=0
181619 On ch=1 n=d6 v=0
181619 On ch=1 n=a#4 v=0
181619 On ch=1 n=d5 v=0
181620 On ch=1 n=a6 v=100
181620 On ch=1 n=f6 v=100
181620 On ch=1 n=d6 v=100
181620 On ch=1 n=a5 v=100
181679 On ch=1 n=d6 v=0
181680 On ch=1 n=c#6 v=100
181739 On ch=1 n=c#6 v=0
181739 On ch=1 n=a5 v=0
181739 On ch=1 n=f6 v=0
181739 On ch=1 n=a6 v=0
181740 On ch=1 n=g#6 v=100
181740 On ch=1 n=e6 v=100
181740 On ch=1 n=g#5 v=100
181740 On ch=1 n=c6 v=100
181799 On ch=1 n=c6 v=0
181800 On ch=1 n=b5 v=100
181919 On ch=1 n=b5 v=0
181919 On ch=1 n=g#5 v=0
181919 On ch=1 n=e6 v=0
181919 On ch=1 n=g#6 v=0
181920 On ch=1 n=a6 v=100
181920 On ch=1 n=f6 v=100
181920 On ch=1 n=a5 v=100
181920 On ch=1 n=c6 v=100
181979 On ch=1 n=c6 v=0
181979 On ch=1 n=a6 v=0
181979 On ch=1 n=f6 v=0
181979 On ch=1 n=a5 v=0
181980 On ch=1 n=b5 v=100
181980 On ch=1 n=g6 v=100
181980 On ch=1 n=d#6 v=100
181980 On ch=1 n=g5 v=100
182039 On ch=1 n=b5 v=0
182040 On ch=1 n=a#5 v=100
182159 On ch=1 n=a#5 v=0
182159 On ch=1 n=g5 v=0
182159 On ch=1 n=d#6 v=0
182159 On ch=1 n=g6 v=0
182160 On ch=1 n=a6 v=100
182160 On ch=1 n=f6 v=100
182160 On ch=1 n=c6 v=100
182160 On ch=1 n=a5 v=100
182219 On ch=1 n=a5 v=0
182219 On ch=1 n=a6 v=0
182219 On ch=1 n=f6 v=0
182219 On ch=1 n=c6 v=0
182220 On ch=1 n=a#5 v=100
182220 On ch=1 n=c#6 v=100
182220 On ch=1 n=f6 v=100
182220 On ch=1 n=f5 v=100
182279 On ch=1 n=c#6 v=0
182279 On ch=1 n=a#5 v=0
182280 On ch=1 n=d6 v=100
182280 On ch=1 n=a5 v=100
182339 On ch=1 n=a5 v=0
182339 On ch=1 n=f5 v=0
182339 On ch=1 n=f6 v=0
182339 On ch=1 n=d6 v=0
182400 On ch=1 n=a5 v=100
182400 On ch=1 n=f5 v=100
182400 On ch=1 n=c5 v=100
182459 On ch=1 n=c5 v=0
182459 On ch=1 n=f5 v=0
182459 On ch=1 n=a5 v=0
182460 On ch=1 n=a5 v=100
182460 On ch=1 n=c6 v=100
182460 On ch=1 n=f5 v=100
182519 On ch=1 n=f5 v=0
182519 On ch=1 n=a5 v=0
182520 On ch=1 n=c5 v=100
182520 On ch=1 n=a5 v=100
182520 On ch=1 n=f5 v=100
182579 On ch=1 n=f5 v=0
182579 On ch=1 n=c6 v=0
182579 On ch=1 n=c5 v=0
182579 On ch=1 n=a5 v=0
182580 On ch=1 n=c6 v=100
182580 On ch=1 n=a5 v=100
182580 On ch=1 n=f6 v=100
182639 On ch=1 n=a5 v=0
182639 On ch=1 n=c6 v=0
182640 On ch=1 n=c6 v=100
182640 On ch=1 n=a5 v=100
182640 On ch=1 n=f5 v=100
182699 On ch=1 n=f5 v=0
182699 On ch=1 n=f6 v=0
182699 On ch=1 n=c6 v=0
182699 On ch=1 n=a5 v=0
182700 On ch=1 n=g6 v=100
182760 On ch=1 n=g#5 v=100
182760 On ch=1 n=d#5 v=100
182760 On ch=1 n=c5 v=100
182819 On ch=1 n=c5 v=0
182819 On ch=1 n=d#5 v=0
182819 On ch=1 n=g#5 v=0
182820 On ch=1 n=c6 v=100
182820 On ch=1 n=g#5 v=100
182820 On ch=1 n=d#5 v=100
182879 On ch=1 n=d#5 v=0
182879 On ch=1 n=g#5 v=0
182879 On ch=1 n=c6 v=0
182880 On ch=1 n=g#5 v=100
182880 On ch=1 n=d#5 v=100
182880 On ch=1 n=c5 v=100
182939 On ch=1 n=c5 v=0
182939 On ch=1 n=g6 v=0
182939 On ch=1 n=g#5 v=0
182939 On ch=1 n=d#5 v=0
182940 On ch=1 n=c6 v=100
182940 On ch=1 n=g#5 v=100
182940 On ch=1 n=f6 v=100
182999 On ch=1 n=g#5 v=0
182999 On ch=1 n=c6 v=0
183000 On ch=1 n=f5 v=100
183000 On ch=1 n=g#5 v=100
183000 On ch=1 n=c6 v=100
183059 On ch=1 n=c6 v=0
183059 On ch=1 n=f6 v=0
183059 On ch=1 n=f5 v=0
183059 On ch=1 n=g#5 v=0
183120 On ch=1 n=a5 v=100
183120 On ch=1 n=f5 v=100
183179 On ch=1 n=f5 v=0
183179 On ch=1 n=a5 v=0
183180 On ch=1 n=e6 v=100
183180 On ch=1 n=c6 v=100
183180 On ch=1 n=a5 v=100
183239 On ch=1 n=a5 v=0
183239 On ch=1 n=c6 v=0
183240 On ch=1 n=a5 v=100
183240 On ch=1 n=f5 v=100
183299 On ch=1 n=f5 v=0
183299 On ch=1 n=a5 v=0
183300 On ch=1 n=a5 v=100
183300 On ch=1 n=c6 v=100
183359 On ch=1 n=c6 v=0
183359 On ch=1 n=a5 v=0
183359 On ch=1 n=e6 v=0
183360 On ch=1 n=f5 v=100
183360 On ch=1 n=a5 v=100
183360 On ch=1 n=f6 v=100
183419 On ch=1 n=f6 v=0
183419 On ch=1 n=a5 v=0
183420 On ch=1 n=c6 v=100
183420 On ch=1 n=g#5 v=100
183420 On ch=1 n=f6 v=100
183479 On ch=1 n=f6 v=0
183479 On ch=1 n=f5 v=0
183479 On ch=1 n=c6 v=0
183479 On ch=1 n=g#5 v=0
183480 On ch=1 n=g#5 v=100
183480 On ch=1 n=c6 v=100
183480 On ch=1 n=e5 v=100
183480 On ch=1 n=e6 v=100
183539 On ch=1 n=e6 v=0
183539 On ch=1 n=g#5 v=0
183539 On ch=1 n=c6 v=0
183539 On ch=1 n=e5 v=0
183540 On ch=1 n=e5 v=100
183540 On ch=1 n=g#5 v=100
183540 On ch=1 n=c6 v=100
183540 On ch=1 n=e6 v=100
183599 On ch=1 n=e6 v=0
183599 On ch=1 n=e5 v=0
183599 On ch=1 n=g#5 v=0
183599 On ch=1 n=c6 v=0
183600 On ch=1 n=d#5 v=100
183600 On ch=1 n=g#5 v=100
183600 On ch=1 n=c6 v=100
183600 On ch=1 n=d#6 v=100
183659 On ch=1 n=d#6 v=0
183659 On ch=1 n=d#5 v=0
183659 On ch=1 n=g#5 v=0
183659 On ch=1 n=c6 v=0
183660 On ch=1 n=d#5 v=100
183660 On ch=1 n=g#5 v=100
183660 On ch=1 n=c6 v=100
183660 On ch=1 n=d#6 v=100
183719 On ch=1 n=d#6 v=0
183719 On ch=1 n=d#5 v=0
183719 On ch=1 n=g#5 v=0
183719 On ch=1 n=c6 v=0
183720 On ch=1 n=g#5 v=100
183720 On ch=1 n=c6 v=100
183720 On ch=1 n=d6 v=100
183720 On ch=1 n=d5 v=100
183779 On ch=1 n=d5 v=0
183779 On ch=1 n=g#5 v=0
183779 On ch=1 n=c6 v=0
183779 On ch=1 n=d6 v=0
183840 On ch=1 n=b5 v=100
183840 On ch=1 n=g5 v=100
183840 On ch=1 n=d5 v=100
183899 On ch=1 n=d5 v=0
183899 On ch=1 n=g5 v=0
183899 On ch=1 n=b5 v=0
183900 On ch=1 n=d6 v=100
183900 On ch=1 n=b5 v=100
183900 On ch=1 n=g5 v=100
183959 On ch=1 n=g5 v=0
183959 On ch=1 n=b5 v=0
183959 On ch=1 n=d6 v=0
183960 On ch=1 n=d5 v=100
183960 On ch=1 n=g5 v=100
183960 On ch=1 n=b5 v=100
184019 On ch=1 n=b5 v=0
184019 On ch=1 n=g5 v=0
184019 On ch=1 n=d5 v=0
184020 On ch=1 n=g6 v=100
184020 On ch=1 n=d6 v=100
184020 On ch=1 n=b5 v=100
184079 On ch=1 n=b5 v=0
184079 On ch=1 n=d6 v=0
184079 On ch=1 n=g6 v=0
184080 On ch=1 n=g5 v=100
184080 On ch=1 n=b5 v=100
184080 On ch=1 n=d6 v=100
184139 On ch=1 n=d6 v=0
184139 On ch=1 n=b5 v=0
184139 On ch=1 n=g5 v=0
184140 On ch=1 n=g#6 v=100
184200 On ch=1 n=a#5 v=100
184200 On ch=1 n=f5 v=100
184200 On ch=1 n=c#5 v=100
184259 On ch=1 n=c#5 v=0
184259 On ch=1 n=f5 v=0
184259 On ch=1 n=a#5 v=0
184260 On ch=1 n=c#6 v=100
184260 On ch=1 n=a#5 v=100
184260 On ch=1 n=f5 v=100
184319 On ch=1 n=f5 v=0
184319 On ch=1 n=a#5 v=0
184319 On ch=1 n=c#6 v=0
184320 On ch=1 n=a#5 v=100
184320 On ch=1 n=f5 v=100
184320 On ch=1 n=c#5 v=100
184379 On ch=1 n=c#5 v=0
184379 On ch=1 n=g#6 v=0
184379 On ch=1 n=a#5 v=0
184379 On ch=1 n=f5 v=0
184380 On ch=1 n=c#6 v=100
184380 On ch=1 n=a#5 v=100
184380 On ch=1 n=g6 v=100
184439 On ch=1 n=a#5 v=0
184439 On ch=1 n=c#6 v=0
184440 On ch=1 n=g5 v=100
184440 On ch=1 n=a#5 v=100
184440 On ch=1 n=c#6 v=100
184499 On ch=1 n=c#6 v=0
184499 On ch=1 n=g6 v=0
184499 On ch=1 n=g5 v=0
184499 On ch=1 n=a#5 v=0
184560 On ch=1 n=d6 v=100
184560 On ch=1 n=f#5 v=100
184560 On ch=1 n=b5 v=100
184619 On ch=1 n=b5 v=0
184619 On ch=1 n=f#5 v=0
184619 On ch=1 n=d6 v=0
184620 On ch=1 n=d6 v=100
184620 On ch=1 n=f#6 v=100
184620 On ch=1 n=b5 v=100
184679 On ch=1 n=b5 v=0
184679 On ch=1 n=d6 v=0
184680 On ch=1 n=d6 v=100
184680 On ch=1 n=f#5 v=100
184680 On ch=1 n=b5 v=100
184739 On ch=1 n=b5 v=0
184739 On ch=1 n=f#6 v=0
184739 On ch=1 n=d6 v=0
184739 On ch=1 n=f#5 v=0
184740 On ch=1 n=g6 v=100
184740 On ch=1 n=d6 v=100
184740 On ch=1 n=b5 v=100
184799 On ch=1 n=b5 v=0
184799 On ch=1 n=d6 v=0
184800 On ch=1 n=g5 v=100
184800 On ch=1 n=b5 v=100
184800 On ch=1 n=d6 v=100
184859 On ch=1 n=d6 v=0
184859 On ch=1 n=b5 v=0
184859 On ch=1 n=g6 v=0
184860 On ch=1 n=g6 v=100
184860 On ch=1 n=d6 v=100
184860 On ch=1 n=a#5 v=100
184919 On ch=1 n=a#5 v=0
184919 On ch=1 n=g5 v=0
184919 On ch=1 n=g6 v=0
184919 On ch=1 n=d6 v=0
184920 On ch=1 n=d6 v=100
184920 On ch=1 n=a#5 v=100
184920 On ch=1 n=f#5 v=100
184920 On ch=1 n=f#6 v=100
184979 On ch=1 n=f#6 v=0
184979 On ch=1 n=d6 v=0
184979 On ch=1 n=a#5 v=0
184979 On ch=1 n=f#5 v=0
184980 On ch=1 n=f#5 v=100
184980 On ch=1 n=a#5 v=100
184980 On ch=1 n=d6 v=100
184980 On ch=1 n=f#6 v=100
185039 On ch=1 n=f#6 v=0
185039 On ch=1 n=f#5 v=0
185039 On ch=1 n=a#5 v=0
185039 On ch=1 n=d6 v=0
185040 On ch=1 n=f5 v=100
185040 On ch=1 n=a#5 v=100
185040 On ch=1 n=d6 v=100
185040 On ch=1 n=f6 v=100
185099 On ch=1 n=f6 v=0
185099 On ch=1 n=f5 v=0
185099 On ch=1 n=a#5 v=0
185099 On ch=1 n=d6 v=0
185100 On ch=1 n=f5 v=100
185100 On ch=1 n=a#5 v=100
185100 On ch=1 n=d6 v=100
185100 On ch=1 n=f6 v=100
185159 On ch=1 n=f6 v=0
185159 On ch=1 n=f5 v=0
185159 On ch=1 n=a#5 v=0
185159 On ch=1 n=d6 v=0
185160 On ch=1 n=e5 v=100
185160 On ch=1 n=a#5 v=100
185160 On ch=1 n=d6 v=100
185160 On ch=1 n=e6 v=100
185219 On ch=1 n=e6 v=0
185219 On ch=1 n=e5 v=0
185219 On ch=1 n=a#5 v=0
185219 On ch=1 n=d6 v=0
185280 On ch=1 n=a5 v=100
185280 On ch=1 n=c#6 v=100
185339 On ch=1 n=c#6 v=0
185339 On ch=1 n=a5 v=0
185340 On ch=1 n=e6 v=100
185340 On ch=1 n=a5 v=100
185340 On ch=1 n=c#6 v=100
185399 On ch=1 n=c#6 v=0
185399 On ch=1 n=a5 v=0
185399 On ch=1 n=e6 v=0
185400 On ch=1 n=a5 v=100
185400 On ch=1 n=d6 v=100
185459 On ch=1 n=d6 v=0
185459 On ch=1 n=a5 v=0
185460 On ch=1 n=a6 v=100
185460 On ch=1 n=a5 v=100
185460 On ch=1 n=d6 v=100
185519 On ch=1 n=d6 v=0
185519 On ch=1 n=a5 v=0
185519 On ch=1 n=a6 v=0
185520 On ch=1 n=a#5 v=100
185520 On ch=1 n=d#6 v=100
185579 On ch=1 n=d#6 v=0
185579 On ch=1 n=a#5 v=0
185580 On ch=1 n=a#6 v=100
185580 On ch=1 n=d#6 v=100
185580 On ch=1 n=a#5 v=100
185639 On ch=1 n=a#5 v=0
185639 On ch=1 n=d#6 v=0
185640 On ch=1 n=e6 v=100
185640 On ch=1 n=a#5 v=100
185699 On ch=1 n=a#5 v=0
185699 On ch=1 n=e6 v=0
185700 On ch=1 n=e6 v=100
185700 On ch=1 n=a#5 v=100
185759 On ch=1 n=a#5 v=0
185759 On ch=1 n=e6 v=0
185760 On ch=1 n=f6 v=100
185760 On ch=1 n=b5 v=100
185819 On ch=1 n=b5 v=0
185819 On ch=1 n=f6 v=0
185819 On ch=1 n=a#6 v=0
185820 On ch=1 n=b6 v=100
185820 On ch=1 n=f6 v=100
185820 On ch=1 n=b5 v=100
185879 On ch=1 n=b5 v=0
185879 On ch=1 n=f6 v=0
185880 On ch=1 n=f#6 v=100
185880 On ch=1 n=c6 v=100
185939 On ch=1 n=c6 v=0
185939 On ch=1 n=f#6 v=0
185939 On ch=1 n=b6 v=0
185940 On ch=1 n=c7 v=100
185940 On ch=1 n=f#6 v=100
185940 On ch=1 n=d6 v=100
185940 On ch=1 n=c6 v=100
185999 On ch=1 n=c6 v=0
185999 On ch=1 n=d6 v=0
185999 On ch=1 n=f#6 v=0
186000 On ch=1 n=b6 v=100
186000 On ch=1 n=f#6 v=100
186000 On ch=1 n=d6 v=100
186000 On ch=1 n=c6 v=100
186059 On ch=1 n=c6 v=0
186059 On ch=1 n=f#6 v=0
186059 On ch=1 n=c7 v=0
186059 On ch=1 n=b6 v=0
186059 On ch=1 n=d6 v=0
186060 On ch=1 n=c#7 v=100
186060 On ch=1 n=b6 v=100
186060 On ch=1 n=f#6 v=100
186060 On ch=1 n=c#6 v=100
186119 On ch=1 n=c#6 v=0
186119 On ch=1 n=f#6 v=0
186119 On ch=1 n=b6 v=0
186120 On ch=1 n=a#6 v=100
186120 On ch=1 n=f#6 v=100
186120 On ch=1 n=c#6 v=100
186179 On ch=1 n=c#6 v=0
186179 On ch=1 n=c#7 v=0
186179 On ch=1 n=a#6 v=0
186179 On ch=1 n=f#6 v=0
186180 On ch=1 n=d7 v=100
186180 On ch=1 n=a#6 v=100
186180 On ch=1 n=f#6 v=100
186180 On ch=1 n=d6 v=100
186239 On ch=1 n=d6 v=0
186239 On ch=1 n=f#6 v=0
186239 On ch=1 n=a#6 v=0
186240 On ch=1 n=f#6 v=100
186240 On ch=1 n=d6 v=100
186299 On ch=1 n=d6 v=0
186299 On ch=1 n=f#6 v=0
186299 On ch=1 n=d7 v=0
186300 On ch=1 n=f7 v=100
186300 On ch=1 n=c7 v=100
186300 On ch=1 n=a6 v=100
186300 On ch=1 n=f6 v=100
186360 On ch=1 n=a6 v=100
186360 On ch=1 n=f6 v=100
186360 On ch=1 n=c6 v=100
186419 On ch=1 n=c6 v=0
186419 On ch=1 n=a6 v=0
186419 On ch=1 n=f6 v=0
186420 On ch=1 n=a6 v=100
186420 On ch=1 n=f6 v=100
186420 On ch=1 n=c6 v=100
186479 On ch=1 n=c6 v=0
186479 On ch=1 n=a6 v=0
186479 On ch=1 n=f6 v=0
186480 On ch=1 n=g#6 v=100
186480 On ch=1 n=f6 v=100
186480 On ch=1 n=c6 v=100
186539 On ch=1 n=c6 v=0
186539 On ch=1 n=g#6 v=0
186539 On ch=1 n=c7 v=0
186539 On ch=1 n=a6 v=0
186539 On ch=1 n=f7 v=0
186539 On ch=1 n=f6 v=0
186539 On ch=1 n=f6 v=0
186540 On ch=1 n=f6 v=100
186540 On ch=1 n=g#6 v=100
186540 On ch=1 n=d#6 v=100
186540 On ch=1 n=d#7 v=100
186599 On ch=1 n=d#6 v=0
186599 On ch=1 n=f6 v=0
186599 On ch=1 n=g#6 v=0
186600 On ch=1 n=g6 v=100
186600 On ch=1 n=a#5 v=100
186600 On ch=1 n=f6 v=100
186659 On ch=1 n=f6 v=0
186659 On ch=1 n=d#7 v=0
186659 On ch=1 n=g6 v=0
186659 On ch=1 n=a#5 v=0
186660 On ch=1 n=d7 v=100
186660 On ch=1 n=d6 v=100
186720 On ch=1 n=f6 v=100
186720 On ch=1 n=d#6 v=100
186720 On ch=1 n=a#5 v=100
186720 On ch=1 n=f5 v=100
186779 On ch=1 n=d6 v=0
186779 On ch=1 n=d7 v=0
186780 On ch=1 n=c6 v=100
186780 On ch=1 n=c7 v=100
186839 On ch=1 n=a#5 v=0
186839 On ch=1 n=f6 v=0
186839 On ch=1 n=d#6 v=0
186839 On ch=1 n=f5 v=0
186840 On ch=1 n=f#6 v=100
186840 On ch=1 n=d#6 v=100
186840 On ch=1 n=a#5 v=100
186840 On ch=1 n=f#5 v=100
186959 On ch=1 n=f#5 v=0
186959 On ch=1 n=d#6 v=0
186959 On ch=1 n=f#6 v=0
186959 On ch=1 n=a#5 v=0
186960 On ch=1 n=a#5 v=100
186960 On ch=1 n=d#6 v=100
186960 On ch=1 n=g#6 v=100
186960 On ch=1 n=g#5 v=100
187019 On ch=1 n=g#5 v=0
187019 On ch=1 n=c6 v=0
187019 On ch=1 n=a#5 v=0
187019 On ch=1 n=c7 v=0
187019 On ch=1 n=g#6 v=0
187019 On ch=1 n=d#6 v=0
187020 On ch=1 n=d7 v=100
187020 On ch=1 n=d6 v=100
187080 On ch=1 n=e6 v=100
187080 On ch=1 n=d6 v=100
187080 On ch=1 n=a#5 v=100
187080 On ch=1 n=e5 v=100
187139 On ch=1 n=d6 v=0
187139 On ch=1 n=d7 v=0
187140 On ch=1 n=a#6 v=100
187140 On ch=1 n=a#5 v=100
187199 On ch=1 n=a#5 v=0
187199 On ch=1 n=e6 v=0
187199 On ch=1 n=d6 v=0
187199 On ch=1 n=e5 v=0
187200 On ch=1 n=f6 v=100
187200 On ch=1 n=d6 v=100
187200 On ch=1 n=a#5 v=100
187200 On ch=1 n=f5 v=100
187319 On ch=1 n=f5 v=0
187319 On ch=1 n=d6 v=0
187319 On ch=1 n=f6 v=0
187319 On ch=1 n=a#5 v=0
187320 On ch=1 n=d6 v=100
187320 On ch=1 n=f#5 v=100
187320 On ch=1 n=f#6 v=100
187379 On ch=1 n=f#6 v=0
187379 On ch=1 n=d6 v=0
187379 On ch=1 n=a#5 v=0
187379 On ch=1 n=a#6 v=0
187379 On ch=1 n=f#5 v=0
187380 On ch=1 n=d7 v=100
187380 On ch=1 n=d6 v=100
187440 On ch=1 n=a5 v=100
187440 On ch=1 n=d#6 v=100
187440 On ch=1 n=d#5 v=100
187499 On ch=1 n=d6 v=0
187499 On ch=1 n=d7 v=0
187500 On ch=1 n=a6 v=100
187500 On ch=1 n=a5 v=100
187559 On ch=1 n=d#6 v=0
187559 On ch=1 n=d#5 v=0
187559 On ch=1 n=a5 v=0
187560 On ch=1 n=e6 v=100
187560 On ch=1 n=a5 v=100
187560 On ch=1 n=e5 v=100
187679 On ch=1 n=e5 v=0
187679 On ch=1 n=e6 v=0
187679 On ch=1 n=a5 v=0
187680 On ch=1 n=f6 v=100
187680 On ch=1 n=f5 v=100
187739 On ch=1 n=f5 v=0
187739 On ch=1 n=a5 v=0
187739 On ch=1 n=a6 v=0
187739 On ch=1 n=f6 v=0
187740 On ch=1 n=d7 v=100
187740 On ch=1 n=d6 v=100
187800 On ch=1 n=d6 v=100
187800 On ch=1 n=a#5 v=100
187800 On ch=1 n=d5 v=100
187859 On ch=1 n=d6 v=0
187859 On ch=1 n=d7 v=0
187860 On ch=1 n=g6 v=100
187860 On ch=1 n=g5 v=100
187919 On ch=1 n=a#5 v=0
187919 On ch=1 n=d5 v=0
187919 On ch=1 n=d6 v=0
187920 On ch=1 n=a#5 v=100
187920 On ch=1 n=d#6 v=100
187920 On ch=1 n=d#5 v=100
188039 On ch=1 n=d#5 v=0
188039 On ch=1 n=a#5 v=0
188039 On ch=1 n=d#6 v=0
188040 On ch=1 n=a#5 v=100
188040 On ch=1 n=e6 v=100
188040 On ch=1 n=e5 v=100
188099 On ch=1 n=e5 v=0
188099 On ch=1 n=a#5 v=0
188099 On ch=1 n=g5 v=0
188099 On ch=1 n=g6 v=0
188099 On ch=1 n=e6 v=0
188100 On ch=1 n=d7 v=100
188100 On ch=1 n=d6 v=100
188160 On ch=1 n=d6 v=100
188160 On ch=1 n=a#5 v=100
188219 On ch=1 n=d6 v=0
188219 On ch=1 n=d7 v=0
188220 On ch=1 n=f#6 v=100
188220 On ch=1 n=f#5 v=100
188279 On ch=1 n=d6 v=0
188279 On ch=1 n=a#5 v=0
188280 On ch=1 n=a#5 v=100
188280 On ch=1 n=d6 v=100
188399 On ch=1 n=d6 v=0
188399 On ch=1 n=a#5 v=0
188400 On ch=1 n=a#5 v=100
188400 On ch=1 n=d6 v=100
188459 On ch=1 n=d6 v=0
188459 On ch=1 n=f#5 v=0
188459 On ch=1 n=f#6 v=0
188459 On ch=1 n=a#5 v=0
188460 On ch=1 n=d7 v=100
188460 On ch=1 n=d6 v=100
188520 On ch=1 n=d6 v=100
188520 On ch=1 n=a#5 v=100
188579 On ch=1 n=d6 v=0
188579 On ch=1 n=d7 v=0
188580 On ch=1 n=f6 v=100
188580 On ch=1 n=f5 v=100
188639 On ch=1 n=d6 v=0
188639 On ch=1 n=a#5 v=0
188640 On ch=1 n=a#5 v=100
188640 On ch=1 n=d6 v=100
188759 On ch=1 n=d6 v=0
188759 On ch=1 n=a#5 v=0
188760 On ch=1 n=a#5 v=100
188760 On ch=1 n=d6 v=100
188819 On ch=1 n=d6 v=0
188819 On ch=1 n=f5 v=0
188819 On ch=1 n=f6 v=0
188819 On ch=1 n=a#5 v=0
188820 On ch=1 n=d7 v=100
188820 On ch=1 n=d6 v=100
188880 On ch=1 n=d6 v=100
188880 On ch=1 n=a#5 v=100
188939 On ch=1 n=d6 v=0
188939 On ch=1 n=d7 v=0
188940 On ch=1 n=e5 v=100
188940 On ch=1 n=e6 v=100
188999 On ch=1 n=d6 v=0
188999 On ch=1 n=a#5 v=0
189000 On ch=1 n=a#5 v=100
189000 On ch=1 n=d6 v=100
189119 On ch=1 n=d6 v=0
189119 On ch=1 n=a#5 v=0
189120 On ch=1 n=a#5 v=100
189120 On ch=1 n=d6 v=100
189179 On ch=1 n=d6 v=0
189179 On ch=1 n=e6 v=0
189179 On ch=1 n=e5 v=0
189179 On ch=1 n=a#5 v=0
189180 On ch=1 n=d7 v=100
189180 On ch=1 n=d6 v=100
189240 On ch=1 n=d6 v=100
189240 On ch=1 n=a5 v=100
189299 On ch=1 n=d6 v=0
189299 On ch=1 n=d7 v=0
189300 On ch=1 n=d#6 v=100
189300 On ch=1 n=d#5 v=100
189359 On ch=1 n=d6 v=0
189359 On ch=1 n=a5 v=0
189360 On ch=1 n=f5 v=100
189360 On ch=1 n=a5 v=100
189360 On ch=1 n=d6 v=100
189479 On ch=1 n=d6 v=0
189479 On ch=1 n=f5 v=0
189479 On ch=1 n=a5 v=0
189480 On ch=1 n=d6 v=100
189480 On ch=1 n=a5 v=100
189480 On ch=1 n=f5 v=100
189539 On ch=1 n=f5 v=0
189539 On ch=1 n=d6 v=0
189539 On ch=1 n=d#5 v=0
189539 On ch=1 n=d#6 v=0
189539 On ch=1 n=a5 v=0
189620 On ch=1 n=f4 v=100
189659 On ch=1 n=f4 v=0
189660 On ch=1 n=a#4 v=100
189699 On ch=1 n=a#4 v=0
189700 On ch=1 n=c#5 v=100
189739 On ch=1 n=c#5 v=0
189740 On ch=1 n=d5 v=100
189779 On ch=1 n=d5 v=0
189780 On ch=1 n=f5 v=100
189819 On ch=1 n=f5 v=0
189820 On ch=1 n=f#5 v=100
189859 On ch=1 n=f#5 v=0
189860 On ch=1 n=g5 v=100
189899 On ch=1 n=g5 v=0
189900 On ch=1 n=g#5 v=100
189939 On ch=1 n=g#5 v=0
189940 On ch=1 n=b5 v=100
189979 On ch=1 n=b5 v=0
189980 On ch=1 n=g5 v=100
190019 On ch=1 n=g5 v=0
190020 On ch=1 n=f#5 v=100
190059 On ch=1 n=f#5 v=0
190060 On ch=1 n=f5 v=100
190099 On ch=1 n=f5 v=0
190100 On ch=1 n=d5 v=100
190139 On ch=1 n=d5 v=0
190140 On ch=1 n=b4 v=100
190179 On ch=1 n=b4 v=0
190180 On ch=1 n=g#4 v=100
190219 On ch=1 n=g#4 v=0
190220 On ch=1 n=f4 v=100
190259 On ch=1 n=f4 v=0
190340 On ch=1 n=f#4 v=100
190379 On ch=1 n=f#4 v=0
190380 On ch=1 n=a#4 v=100
190419 On ch=1 n=a#4 v=0
190420 On ch=1 n=c5 v=100
190459 On ch=1 n=c5 v=0
190460 On ch=1 n=c#5 v=100
190499 On ch=1 n=c#5 v=0
190500 On ch=1 n=f#5 v=100
190539 On ch=1 n=f#5 v=0
190540 On ch=1 n=a#5 v=100
190579 On ch=1 n=a#5 v=0
190580 On ch=1 n=b5 v=100
190619 On ch=1 n=b5 v=0
190620 On ch=1 n=c6 v=100
190659 On ch=1 n=c6 v=0
190660 On ch=1 n=d#6 v=100
190699 On ch=1 n=d#6 v=0
190700 On ch=1 n=b5 v=100
190739 On ch=1 n=b5 v=0
190740 On ch=1 n=a#5 v=100
190779 On ch=1 n=a#5 v=0
190780 On ch=1 n=a5 v=100
190819 On ch=1 n=a5 v=0
190820 On ch=1 n=f#5 v=100
190859 On ch=1 n=f#5 v=0
190860 On ch=1 n=d#5 v=100
190899 On ch=1 n=d#5 v=0
190900 On ch=1 n=c5 v=100
190939 On ch=1 n=c5 v=0
190940 On ch=1 n=a4 v=100
190979 On ch=1 n=a4 v=0
191060 On ch=1 n=d5 v=100
191099 On ch=1 n=d5 v=0
191100 On ch=1 n=g5 v=100
191139 On ch=1 n=g5 v=0
191140 On ch=1 n=a#5 v=100
191179 On ch=1 n=a#5 v=0
191180 On ch=1 n=c#6 v=100
191219 On ch=1 n=c#6 v=0
191220 On ch=1 n=d6 v=100
191259 On ch=1 n=d6 v=0
191260 On ch=1 n=f6 v=100
191299 On ch=1 n=f6 v=0
191300 On ch=1 n=f#6 v=100
191339 On ch=1 n=f#6 v=0
191340 On ch=1 n=g6 v=100
191379 On ch=1 n=g6 v=0
191380 On ch=1 n=a#6 v=100
191419 On ch=1 n=a#6 v=0
191420 On ch=1 n=f#6 v=100
191459 On ch=1 n=f#6 v=0
191460 On ch=1 n=f6 v=100
191499 On ch=1 n=f6 v=0
191500 On ch=1 n=e6 v=100
191539 On ch=1 n=e6 v=0
191540 On ch=1 n=c#6 v=100
191579 On ch=1 n=c#6 v=0
191580 On ch=1 n=a#5 v=100
191619 On ch=1 n=a#5 v=0
191620 On ch=1 n=g5 v=100
191659 On ch=1 n=g5 v=0
191660 On ch=1 n=e5 v=100
191699 On ch=1 n=e5 v=0
191780 On ch=1 n=f#5 v=100
191819 On ch=1 n=f#5 v=0
191820 On ch=1 n=a#5 v=100
191859 On ch=1 n=a#5 v=0
191860 On ch=1 n=d6 v=100
191899 On ch=1 n=d6 v=0
191900 On ch=1 n=d#6 v=100
191939 On ch=1 n=d#6 v=0
191940 On ch=1 n=f#6 v=100
191979 On ch=1 n=f#6 v=0
191980 On ch=1 n=a#6 v=100
192019 On ch=1 n=a#6 v=0
192020 On ch=1 n=b6 v=100
192059 On ch=1 n=b6 v=0
192060 On ch=1 n=c7 v=100
192099 On ch=1 n=c7 v=0
192100 On ch=1 n=d#7 v=100
192139 On ch=1 n=d#7 v=0
192140 On ch=1 n=b6 v=100
192179 On ch=1 n=b6 v=0
192180 On ch=1 n=a#6 v=100
192219 On ch=1 n=a#6 v=0
192220 On ch=1 n=a6 v=100
192259 On ch=1 n=a6 v=0
192260 On ch=1 n=f#6 v=100
192299 On ch=1 n=f#6 v=0
192300 On ch=1 n=d#6 v=100
192339 On ch=1 n=d#6 v=0
192340 On ch=1 n=c6 v=100
192379 On ch=1 n=c6 v=0
192380 On ch=1 n=a5 v=100
192419 On ch=1 n=a5 v=0
192500 On ch=1 n=d6 v=100
192539 On ch=1 n=d6 v=0
192540 On ch=1 n=b5 v=100
192540 On ch=1 n=e6 v=100
192579 On ch=1 n=e6 v=0
192579 On ch=1 n=b5 v=0
192580 On ch=1 n=e5 v=100
192619 On ch=1 n=e5 v=0
192660 On ch=1 n=c6 v=100
192660 On ch=1 n=f6 v=100
192699 On ch=1 n=f6 v=0
192699 On ch=1 n=c6 v=0
192700 On ch=1 n=f5 v=100
192739 On ch=1 n=f5 v=0
192780 On ch=1 n=d#6 v=100
192780 On ch=1 n=g#6 v=100
192819 On ch=1 n=g#6 v=0
192819 On ch=1 n=d#6 v=0
192820 On ch=1 n=g#5 v=100
192859 On ch=1 n=g#5 v=0
192900 On ch=1 n=c7 v=100
192900 On ch=1 n=g#6 v=100
192939 On ch=1 n=g#6 v=0
192939 On ch=1 n=c7 v=0
192940 On ch=1 n=c6 v=100
192979 On ch=1 n=c6 v=0
193020 On ch=1 n=c7 v=100
193020 On ch=1 n=f7 v=100
193020 On ch=1 n=f6 v=100
193059 On ch=1 n=f6 v=0
193059 On ch=1 n=f7 v=0
193059 On ch=1 n=c7 v=0
193060 On ch=1 n=c7 v=100
193060 On ch=1 n=f6 v=100
193060 On ch=1 n=f7 v=100
193099 On ch=1 n=f7 v=0
193099 On ch=1 n=f6 v=0
193099 On ch=1 n=c7 v=0
193220 On ch=1 n=e6 v=100
193259 On ch=1 n=e6 v=0
193260 On ch=1 n=c#6 v=100
193260 On ch=1 n=f#6 v=100
193299 On ch=1 n=f#6 v=0
193299 On ch=1 n=c#6 v=0
193300 On ch=1 n=f#5 v=100
193339 On ch=1 n=f#5 v=0
193380 On ch=1 n=d6 v=100
193380 On ch=1 n=g6 v=100
193419 On ch=1 n=g6 v=0
193419 On ch=1 n=d6 v=0
193420 On ch=1 n=g5 v=100
193459 On ch=1 n=g5 v=0
193500 On ch=1 n=f6 v=100
193500 On ch=1 n=a#6 v=100
193539 On ch=1 n=a#6 v=0
193539 On ch=1 n=f6 v=0
193540 On ch=1 n=a#5 v=100
193579 On ch=1 n=a#5 v=0
193620 On ch=1 n=d7 v=100
193620 On ch=1 n=a#6 v=100
193659 On ch=1 n=a#6 v=0
193659 On ch=1 n=d7 v=0
193660 On ch=1 n=d6 v=100
193699 On ch=1 n=d6 v=0
193740 On ch=1 n=g7 v=100
193740 On ch=1 n=c#7 v=100
193740 On ch=1 n=g6 v=100
193779 On ch=1 n=g6 v=0
193779 On ch=1 n=c#7 v=0
193779 On ch=1 n=g7 v=0
193780 On ch=1 n=g7 v=100
193780 On ch=1 n=c#7 v=100
193780 On ch=1 n=g6 v=100
193819 On ch=1 n=g6 v=0
193819 On ch=1 n=c#7 v=0
193819 On ch=1 n=g7 v=0
193940 On ch=1 n=d#6 v=100
193940 On ch=1 n=d#7 v=100
193979 On ch=1 n=d#7 v=0
193979 On ch=1 n=d#6 v=0
193980 On ch=1 n=g#6 v=100
193980 On ch=1 n=b6 v=100
193980 On ch=1 n=d7 v=100
193980 On ch=1 n=g#7 v=100
194059 On ch=1 n=g#7 v=0
194059 On ch=1 n=g#6 v=0
194059 On ch=1 n=b6 v=0
194059 On ch=1 n=d7 v=0
194060 On ch=1 n=d#6 v=100
194060 On ch=1 n=d#7 v=100
194099 On ch=1 n=d#7 v=0
194099 On ch=1 n=d#6 v=0
194100 On ch=1 n=g6 v=100
194100 On ch=1 n=b6 v=100
194100 On ch=1 n=d7 v=100
194100 On ch=1 n=g7 v=100
194179 On ch=1 n=g7 v=0
194179 On ch=1 n=g6 v=0
194179 On ch=1 n=b6 v=0
194179 On ch=1 n=d7 v=0
194180 On ch=1 n=d#6 v=100
194180 On ch=1 n=d#7 v=100
194219 On ch=1 n=d#7 v=0
194219 On ch=1 n=d#6 v=0
194220 On ch=1 n=g6 v=100
194220 On ch=1 n=a#6 v=100
194220 On ch=1 n=d7 v=100
194220 On ch=1 n=g7 v=100
194299 On ch=1 n=g7 v=0
194299 On ch=1 n=g6 v=0
194299 On ch=1 n=a#6 v=0
194299 On ch=1 n=d7 v=0
194300 On ch=1 n=d#6 v=100
194300 On ch=1 n=d#7 v=100
194339 On ch=1 n=d#7 v=0
194339 On ch=1 n=d#6 v=0
194340 On ch=1 n=f#6 v=100
194340 On ch=1 n=a#6 v=100
194340 On ch=1 n=d7 v=100
194340 On ch=1 n=f#7 v=100
194419 On ch=1 n=f#7 v=0
194419 On ch=1 n=f#6 v=0
194419 On ch=1 n=a#6 v=0
194419 On ch=1 n=d7 v=0
194420 On ch=1 n=d#6 v=100
194420 On ch=1 n=d#7 v=100
194459 On ch=1 n=d#7 v=0
194459 On ch=1 n=d#6 v=0
194460 On ch=1 n=f6 v=100
194460 On ch=1 n=a6 v=100
194460 On ch=1 n=d7 v=100
194460 On ch=1 n=f7 v=100
194539 On ch=1 n=f7 v=0
194539 On ch=1 n=f6 v=0
194539 On ch=1 n=a6 v=0
194539 On ch=1 n=d7 v=0
194540 On ch=1 n=d#7 v=100
194579 On ch=1 n=d#7 v=0
194660 On ch=1 n=e7 v=100
194660 On ch=1 n=e6 v=100
194699 On ch=1 n=e6 v=0
194699 On ch=1 n=e7 v=0
194700 On ch=1 n=a6 v=100
194700 On ch=1 n=c7 v=100
194700 On ch=1 n=d#7 v=100
194700 On ch=1 n=a7 v=100
194779 On ch=1 n=a7 v=0
194779 On ch=1 n=a6 v=0
194779 On ch=1 n=c7 v=0
194779 On ch=1 n=d#7 v=0
194780 On ch=1 n=e7 v=100
194780 On ch=1 n=e6 v=100
194819 On ch=1 n=e6 v=0
194819 On ch=1 n=e7 v=0
194820 On ch=1 n=g#6 v=100
194820 On ch=1 n=c7 v=100
194820 On ch=1 n=d#7 v=100
194820 On ch=1 n=g#7 v=100
194899 On ch=1 n=g#7 v=0
194899 On ch=1 n=g#6 v=0
194899 On ch=1 n=c7 v=0
194899 On ch=1 n=d#7 v=0
194900 On ch=1 n=e7 v=100
194900 On ch=1 n=e6 v=100
194939 On ch=1 n=e6 v=0
194939 On ch=1 n=e7 v=0
194940 On ch=1 n=g#6 v=100
194940 On ch=1 n=b6 v=100
194940 On ch=1 n=d#7 v=100
194940 On ch=1 n=g#7 v=100
195019 On ch=1 n=g#7 v=0
195019 On ch=1 n=g#6 v=0
195019 On ch=1 n=b6 v=0
195019 On ch=1 n=d#7 v=0
195020 On ch=1 n=e7 v=100
195020 On ch=1 n=e6 v=100
195059 On ch=1 n=e6 v=0
195059 On ch=1 n=e7 v=0
195060 On ch=1 n=g6 v=100
195060 On ch=1 n=b6 v=100
195060 On ch=1 n=d#7 v=100
195060 On ch=1 n=g7 v=100
195139 On ch=1 n=g7 v=0
195139 On ch=1 n=g6 v=0
195139 On ch=1 n=b6 v=0
195139 On ch=1 n=d#7 v=0
195140 On ch=1 n=e7 v=100
195140 On ch=1 n=e6 v=100
195179 On ch=1 n=e6 v=0
195179 On ch=1 n=e7 v=0
195180 On ch=1 n=f#6 v=100
195180 On ch=1 n=a#6 v=100
195180 On ch=1 n=d#7 v=100
195180 On ch=1 n=f#7 v=100
195259 On ch=1 n=f#7 v=0
195259 On ch=1 n=f#6 v=0
195259 On ch=1 n=a#6 v=0
195259 On ch=1 n=d#7 v=0
195260 On ch=1 n=e6 v=100
195299 On ch=1 n=e6 v=0
195380 On ch=1 n=g7 v=100
195419 On ch=1 n=g7 v=0
195420 On ch=1 n=d#7 v=100
195420 On ch=1 n=g7 v=100
195420 On ch=1 n=c8 v=100
195420 On ch=1 n=c7 v=100
195459 On ch=1 n=c7 v=0
195459 On ch=1 n=d#7 v=0
195459 On ch=1 n=g7 v=0
195459 On ch=1 n=c8 v=0
195460 On ch=1 n=d#7 v=100
195460 On ch=1 n=g7 v=100
195460 On ch=1 n=c8 v=100
195460 On ch=1 n=c7 v=100
195499 On ch=1 n=c7 v=0
195499 On ch=1 n=d#7 v=0
195499 On ch=1 n=g7 v=0
195499 On ch=1 n=c8 v=0
195500 On ch=1 n=d#7 v=100
195500 On ch=1 n=g7 v=100
195500 On ch=1 n=c8 v=100
195500 On ch=1 n=c7 v=100
195539 On ch=1 n=c7 v=0
195539 On ch=1 n=d#7 v=0
195539 On ch=1 n=g7 v=0
195539 On ch=1 n=c8 v=0
195580 On ch=1 n=d#7 v=100
195580 On ch=1 n=g7 v=100
195580 On ch=1 n=b7 v=100
195580 On ch=1 n=b6 v=100
195619 On ch=1 n=b6 v=0
195619 On ch=1 n=d#7 v=0
195619 On ch=1 n=g7 v=0
195619 On ch=1 n=b7 v=0
195620 On ch=1 n=d#7 v=100
195620 On ch=1 n=g7 v=100
195620 On ch=1 n=b7 v=100
195620 On ch=1 n=b6 v=100
195659 On ch=1 n=b6 v=0
195659 On ch=1 n=d#7 v=0
195659 On ch=1 n=g7 v=0
195659 On ch=1 n=b7 v=0
195820 On ch=1 n=g7 v=100
195820 On ch=1 n=d#7 v=100
195820 On ch=1 n=b7 v=100
195820 On ch=1 n=b6 v=100
195859 On ch=1 n=b6 v=0
195859 On ch=1 n=g7 v=0
195859 On ch=1 n=d#7 v=0
195859 On ch=1 n=b7 v=0
195860 On ch=1 n=g7 v=100
195860 On ch=1 n=d#7 v=100
195860 On ch=1 n=b7 v=100
195860 On ch=1 n=b6 v=100
195899 On ch=1 n=b6 v=0
195899 On ch=1 n=g7 v=0
195899 On ch=1 n=d#7 v=0
195899 On ch=1 n=b7 v=0
195940 On ch=1 n=g7 v=100
195940 On ch=1 n=d#7 v=100
195940 On ch=1 n=a#7 v=100
195940 On ch=1 n=a#6 v=100
195979 On ch=1 n=a#6 v=0
195979 On ch=1 n=g7 v=0
195979 On ch=1 n=d#7 v=0
195979 On ch=1 n=a#7 v=0
195980 On ch=1 n=g7 v=100
195980 On ch=1 n=d#7 v=100
195980 On ch=1 n=a#7 v=100
195980 On ch=1 n=a#6 v=100
196019 On ch=1 n=a#6 v=0
196019 On ch=1 n=g7 v=0
196019 On ch=1 n=d#7 v=0
196019 On ch=1 n=a#7 v=0
196180 On ch=1 n=d#7 v=100
196180 On ch=1 n=g7 v=100
196180 On ch=1 n=a#7 v=100
196180 On ch=1 n=a#6 v=100
196219 On ch=1 n=a#6 v=0
196219 On ch=1 n=d#7 v=0
196219 On ch=1 n=g7 v=0
196219 On ch=1 n=a#7 v=0
196220 On ch=1 n=d#7 v=100
196220 On ch=1 n=g7 v=100
196220 On ch=1 n=a#7 v=100
196220 On ch=1 n=a#6 v=100
196259 On ch=1 n=a#6 v=0
196259 On ch=1 n=d#7 v=0
196259 On ch=1 n=g7 v=0
196259 On ch=1 n=a#7 v=0
196300 On ch=1 n=g7 v=100
196300 On ch=1 n=d#7 v=100
196300 On ch=1 n=a7 v=100
196300 On ch=1 n=a6 v=100
196339 On ch=1 n=a6 v=0
196339 On ch=1 n=g7 v=0
196339 On ch=1 n=d#7 v=0
196339 On ch=1 n=a7 v=0
196340 On ch=1 n=g7 v=100
196340 On ch=1 n=d#7 v=100
196340 On ch=1 n=a7 v=100
196340 On ch=1 n=a6 v=100
196379 On ch=1 n=a6 v=0
196379 On ch=1 n=g7 v=0
196379 On ch=1 n=d#7 v=0
196379 On ch=1 n=a7 v=0
196420 On ch=1 n=g#7 v=100
196420 On ch=1 n=d#7 v=100
196420 On ch=1 n=g#6 v=100
196459 On ch=1 n=g#6 v=0
196459 On ch=1 n=d#7 v=0
196459 On ch=1 n=g#7 v=0
196460 On ch=1 n=g#7 v=100
196460 On ch=1 n=d#7 v=100
196460 On ch=1 n=g#6 v=100
196499 On ch=1 n=g#6 v=0
196499 On ch=1 n=d#7 v=0
196499 On ch=1 n=g#7 v=0
196500 On ch=1 n=g7 v=100
196500 On ch=1 n=d#7 v=100
196500 On ch=1 n=a6 v=100
196500 On ch=1 n=g6 v=100
196559 On ch=1 n=g6 v=0
196559 On ch=1 n=g7 v=0
196559 On ch=1 n=d#7 v=0
196559 On ch=1 n=a6 v=0
196560 On ch=1 n=d7 v=100
196560 On ch=1 n=a6 v=100
196560 On ch=1 n=f#6 v=100
196560 On ch=1 n=f#7 v=100
196619 On ch=1 n=f#7 v=0
196619 On ch=1 n=d7 v=0
196619 On ch=1 n=a6 v=0
196619 On ch=1 n=f#6 v=0
196620 On ch=1 n=a6 v=100
196620 On ch=1 n=c#7 v=100
196620 On ch=1 n=f6 v=100
196620 On ch=1 n=f7 v=100
196679 On ch=1 n=f7 v=0
196679 On ch=1 n=a6 v=0
196679 On ch=1 n=c#7 v=0
196679 On ch=1 n=f6 v=0
196680 On ch=1 n=a6 v=100
196680 On ch=1 n=c#7 v=100
196680 On ch=1 n=e7 v=100
196680 On ch=1 n=e6 v=100
196739 On ch=1 n=e6 v=0
196739 On ch=1 n=a6 v=0
196739 On ch=1 n=c#7 v=0
196739 On ch=1 n=e7 v=0
196820 On ch=1 n=f7 v=100
196820 On ch=1 n=d7 v=100
196820 On ch=1 n=a#6 v=100
196820 On ch=1 n=f6 v=100
196859 On ch=1 n=f6 v=0
196859 On ch=1 n=f7 v=0
196859 On ch=1 n=d7 v=0
196859 On ch=1 n=a#6 v=0
196860 On ch=1 n=g8 v=100
196860 On ch=1 n=d8 v=100
196860 On ch=1 n=a#7 v=100
196860 On ch=1 n=g7 v=100
196979 On ch=1 n=g7 v=0
196979 On ch=1 n=g8 v=0
196979 On ch=1 n=d8 v=0
196979 On ch=1 n=a#7 v=0
197010 On ch=1 n=f8 v=100
197010 On ch=1 n=d8 v=100
197010 On ch=1 n=a#7 v=100
197010 On ch=1 n=f7 v=100
197039 On ch=1 n=f7 v=0
197039 On ch=1 n=f8 v=0
197039 On ch=1 n=d8 v=0
197039 On ch=1 n=a#7 v=0
197070 On ch=1 n=f8 v=100
197070 On ch=1 n=d8 v=100
197070 On ch=1 n=a#7 v=100
197070 On ch=1 n=f7 v=100
197099 On ch=1 n=f7 v=0
197099 On ch=1 n=f8 v=0
197099 On ch=1 n=d8 v=0
197099 On ch=1 n=a#7 v=0
197130 On ch=1 n=d8 v=100
197130 On ch=1 n=a#7 v=100
197130 On ch=1 n=f7 v=100
197130 On ch=1 n=d7 v=100
197159 On ch=1 n=d7 v=0
197159 On ch=1 n=d8 v=0
197159 On ch=1 n=a#7 v=0
197159 On ch=1 n=f7 v=0
197190 On ch=1 n=d8 v=100
197190 On ch=1 n=a#7 v=100
197190 On ch=1 n=f7 v=100
197190 On ch=1 n=d7 v=100
197219 On ch=1 n=d7 v=0
197219 On ch=1 n=d8 v=0
197219 On ch=1 n=a#7 v=0
197219 On ch=1 n=f7 v=0
197250 On ch=1 n=a#6 v=100
197250 On ch=1 n=d7 v=100
197250 On ch=1 n=f7 v=100
197250 On ch=1 n=a#7 v=100
197279 On ch=1 n=a#7 v=0
197279 On ch=1 n=a#6 v=0
197279 On ch=1 n=d7 v=0
197279 On ch=1 n=f7 v=0
197310 On ch=1 n=a#6 v=100
197310 On ch=1 n=d7 v=100
197310 On ch=1 n=f7 v=100
197310 On ch=1 n=a#7 v=100
197339 On ch=1 n=a#7 v=0
197339 On ch=1 n=a#6 v=0
197339 On ch=1 n=d7 v=0
197339 On ch=1 n=f7 v=0
197370 On ch=1 n=f7 v=100
197370 On ch=1 n=d7 v=100
197370 On ch=1 n=a#6 v=100
197370 On ch=1 n=f6 v=100
197399 On ch=1 n=f6 v=0
197399 On ch=1 n=f7 v=0
197399 On ch=1 n=d7 v=0
197399 On ch=1 n=a#6 v=0
197430 On ch=1 n=f7 v=100
197430 On ch=1 n=d7 v=100
197430 On ch=1 n=a#6 v=100
197430 On ch=1 n=f6 v=100
197459 On ch=1 n=f6 v=0
197459 On ch=1 n=f7 v=0
197459 On ch=1 n=d7 v=0
197459 On ch=1 n=a#6 v=0
197490 On ch=1 n=d7 v=100
197490 On ch=1 n=a#6 v=100
197490 On ch=1 n=f6 v=100
197490 On ch=1 n=d6 v=100
197519 On ch=1 n=d6 v=0
197519 On ch=1 n=d7 v=0
197519 On ch=1 n=a#6 v=0
197519 On ch=1 n=f6 v=0
197550 On ch=1 n=d7 v=100
197550 On ch=1 n=a#6 v=100
197550 On ch=1 n=f6 v=100
197550 On ch=1 n=d6 v=100
197579 On ch=1 n=d6 v=0
197579 On ch=1 n=d7 v=0
197579 On ch=1 n=a#6 v=0
197579 On ch=1 n=f6 v=0
197610 On ch=1 n=a#5 v=100
197610 On ch=1 n=d6 v=100
197610 On ch=1 n=f6 v=100
197610 On ch=1 n=a#6 v=100
197639 On ch=1 n=a#6 v=0
197639 On ch=1 n=a#5 v=0
197639 On ch=1 n=d6 v=0
197639 On ch=1 n=f6 v=0
197670 On ch=1 n=a#5 v=100
197670 On ch=1 n=d6 v=100
197670 On ch=1 n=f6 v=100
197670 On ch=1 n=a#6 v=100
197699 On ch=1 n=a#6 v=0
197699 On ch=1 n=a#5 v=0
197699 On ch=1 n=d6 v=0
197699 On ch=1 n=f6 v=0
197730 On ch=1 n=f5 v=100
197730 On ch=1 n=a#5 v=100
197730 On ch=1 n=d6 v=100
197730 On ch=1 n=f6 v=100
197759 On ch=1 n=f6 v=0
197759 On ch=1 n=f5 v=0
197759 On ch=1 n=a#5 v=0
197759 On ch=1 n=d6 v=0
197790 On ch=1 n=f5 v=100
197790 On ch=1 n=a#5 v=100
197790 On ch=1 n=d6 v=100
197790 On ch=1 n=f6 v=100
197819 On ch=1 n=f6 v=0
197819 On ch=1 n=f5 v=0
197819 On ch=1 n=a#5 v=0
197819 On ch=1 n=d6 v=0
197850 On ch=1 n=d6 v=100
197850 On ch=1 n=a#5 v=100
197850 On ch=1 n=f5 v=100
197850 On ch=1 n=d5 v=100
197879 On ch=1 n=d5 v=0
197879 On ch=1 n=d6 v=0
197879 On ch=1 n=a#5 v=0
197879 On ch=1 n=f5 v=0
197910 On ch=1 n=d6 v=100
197910 On ch=1 n=a#5 v=100
197910 On ch=1 n=f5 v=100
197910 On ch=1 n=d5 v=100
197939 On ch=1 n=d5 v=0
197939 On ch=1 n=d6 v=0
197939 On ch=1 n=a#5 v=0
197939 On ch=1 n=f5 v=0
197970 On ch=1 n=a#4 v=100
197970 On ch=1 n=a#5 v=100
197970 On ch=1 n=f5 v=100
197970 On ch=1 n=d5 v=100
197999 On ch=1 n=d5 v=0
197999 On ch=1 n=a#4 v=0
197999 On ch=1 n=a#5 v=0
197999 On ch=1 n=f5 v=0
198030 On ch=1 n=a#4 v=100
198030 On ch=1 n=a#5 v=100
198030 On ch=1 n=f5 v=100
198030 On ch=1 n=d5 v=100
198059 On ch=1 n=d5 v=0
198059 On ch=1 n=a#4 v=0
198059 On ch=1 n=a#5 v=0
198059 On ch=1 n=f5 v=0
198090 On ch=1 n=f4 v=100
198090 On ch=1 n=a#4 v=100
198090 On ch=1 n=f5 v=100
198090 On ch=1 n=d5 v=100
198119 On ch=1 n=d5 v=0
198119 On ch=1 n=f4 v=0
198119 On ch=1 n=a#4 v=0
198119 On ch=1 n=f5 v=0
198150 On ch=1 n=f4 v=100
198150 On ch=1 n=a#4 v=100
198150 On ch=1 n=f5 v=100
198150 On ch=1 n=d5 v=100
198179 On ch=1 n=d5 v=0
198179 On ch=1 n=f4 v=0
198179 On ch=1 n=a#4 v=0
198179 On ch=1 n=f5 v=0
198300 On ch=1 n=a#5 v=100
198300 On ch=1 n=f5 v=100
198300 On ch=1 n=d5 v=100
198300 On ch=1 n=a#4 v=100
198539 On ch=1 n=a#4 v=0
198539 On ch=1 n=a#5 v=0
198539 On ch=1 n=f5 v=0
198539 On ch=1 n=d5 v=0
198540 On ch=1 n=a#6 v=100
198540 On ch=1 n=f#6 v=100
198540 On ch=1 n=d#6 v=100
198540 On ch=1 n=a#5 v=100
198779 On ch=1 n=a#5 v=0
198779 On ch=1 n=a#6 v=0
198779 On ch=1 n=f#6 v=0
198779 On ch=1 n=d#6 v=0
198780 On ch=1 n=a#7 v=100
198780 On ch=1 n=g7 v=100
198780 On ch=1 n=e7 v=100
198780 On ch=1 n=c7 v=100
198780 On ch=1 n=a#6 v=100
198899 On ch=1 n=a#6 v=0
198899 On ch=1 n=e7 v=0
198899 On ch=1 n=a#7 v=0
198899 On ch=1 n=g7 v=0
198899 On ch=1 n=c7 v=0
198980 On ch=1 n=a#6 v=100
198980 On ch=1 n=f6 v=100
198980 On ch=1 n=d6 v=100
198980 On ch=1 n=a#5 v=100
199019 On ch=1 n=a#5 v=0
199019 On ch=1 n=a#6 v=0
199019 On ch=1 n=f6 v=0
199019 On ch=1 n=d6 v=0
199020 On ch=1 n=a#6 v=100
199020 On ch=1 n=f6 v=100
199020 On ch=1 n=d6 v=100
199020 On ch=1 n=a#5 v=100
199619 On ch=1 n=a#5 v=0
199619 On ch=1 n=a#6 v=0
199619 On ch=1 n=f6 v=0
199619 On ch=1 n=d6 v=0
199619 Meta TrkEnd
TrkEnd
MTrk
0 Meta 0x21 00
0 PrCh ch=2 p=1
330 On ch=2 n=f5 v=116
344 On ch=2 n=f5 v=0
345 On ch=2 n=d#5 v=116
359 On ch=2 n=d#5 v=0
360 On ch=2 n=c#5 v=116
374 On ch=2 n=c#5 v=0
375 On ch=2 n=a#4 v=116
389 On ch=2 n=a#4 v=0
390 On ch=2 n=f4 v=116
404 On ch=2 n=f4 v=0
405 On ch=2 n=c#4 v=116
419 On ch=2 n=c#4 v=0
420 On ch=2 n=a#3 v=116
434 On ch=2 n=a#3 v=0
435 On ch=2 n=f3 v=116
449 On ch=2 n=f3 v=0
450 On ch=2 n=d#3 v=116
464 On ch=2 n=d#3 v=0
465 On ch=2 n=c#3 v=116
479 On ch=2 n=c#3 v=0
480 On ch=2 n=a#1 v=116
480 On ch=2 n=a#2 v=116
570 On ch=2 n=f5 v=116
570 On ch=2 n=c#5 v=116
570 On ch=2 n=a#4 v=116
570 On ch=2 n=f4 v=116
599 On ch=2 n=f4 v=0
599 On ch=2 n=c#5 v=0
599 On ch=2 n=f5 v=0
599 On ch=2 n=a#4 v=0
600 On ch=2 n=f4 v=116
600 On ch=2 n=a#4 v=116
600 On ch=2 n=c#5 v=116
600 On ch=2 n=f5 v=116
680 On ch=2 n=c#5 v=116
680 On ch=2 n=a#5 v=116
699 On ch=2 n=a#5 v=0
699 On ch=2 n=c#5 v=0
719 On ch=2 n=c#5 v=0
719 On ch=2 n=a#4 v=0
719 On ch=2 n=f4 v=0
719 On ch=2 n=f5 v=0
740 On ch=2 n=c#5 v=116
740 On ch=2 n=a#5 v=116
759 On ch=2 n=a#5 v=0
759 On ch=2 n=c#5 v=0
800 On ch=2 n=c#5 v=116
800 On ch=2 n=a#5 v=116
819 On ch=2 n=a#5 v=0
819 On ch=2 n=c#5 v=0
860 On ch=2 n=c#5 v=116
860 On ch=2 n=a#5 v=116
879 On ch=2 n=a#5 v=0
879 On ch=2 n=c#5 v=0
920 On ch=2 n=c#5 v=116
920 On ch=2 n=a#5 v=116
939 On ch=2 n=a#5 v=0
939 On ch=2 n=c#5 v=0
959 On ch=2 n=a#2 v=0
959 On ch=2 n=a#1 v=0
1020 On ch=2 n=f5 v=116
1079 On ch=2 n=f5 v=0
1080 On ch=2 n=e5 v=116
1139 On ch=2 n=e5 v=0
1140 On ch=2 n=d#5 v=116
1199 On ch=2 n=d#5 v=0
1200 On ch=2 n=c#5 v=116
1260 On ch=2 n=a#4 v=116
1319 On ch=2 n=a#4 v=0
1320 On ch=2 n=f4 v=116
1499 On ch=2 n=f4 v=0
1499 On ch=2 n=c#5 v=0
1500 On ch=2 n=e4 v=116
1619 On ch=2 n=e4 v=0
1620 On ch=2 n=d#4 v=116
1679 On ch=2 n=d#4 v=0
1680 On ch=2 n=f3 v=116
1680 On ch=2 n=c#4 v=116
1699 On ch=2 n=c#4 v=0
1699 On ch=2 n=f3 v=0
1700 On ch=2 n=a#2 v=116
1719 On ch=2 n=a#2 v=0
1740 On ch=2 n=f4 v=116
1740 On ch=2 n=c#4 v=116
1759 On ch=2 n=c#4 v=0
1759 On ch=2 n=f4 v=0
1760 On ch=2 n=f3 v=116
1779 On ch=2 n=f3 v=0
1800 On ch=2 n=c4 v=116
1800 On ch=2 n=f3 v=116
1819 On ch=2 n=f3 v=0
1819 On ch=2 n=c4 v=0
1820 On ch=2 n=a#2 v=116
1839 On ch=2 n=a#2 v=0
1860 On ch=2 n=c4 v=116
1860 On ch=2 n=f4 v=116
1879 On ch=2 n=f4 v=0
1879 On ch=2 n=c4 v=0
1880 On ch=2 n=f3 v=116
1899 On ch=2 n=f3 v=0
1920 On ch=2 n=f3 v=116
1920 On ch=2 n=a#3 v=116
1939 On ch=2 n=a#3 v=0
1939 On ch=2 n=f3 v=0
1940 On ch=2 n=a#2 v=116
1959 On ch=2 n=a#2 v=0
1980 On ch=2 n=a#3 v=116
1980 On ch=2 n=f4 v=116
1999 On ch=2 n=f4 v=0
1999 On ch=2 n=a#3 v=0
2000 On ch=2 n=f3 v=116
2019 On ch=2 n=f3 v=0
2040 On ch=2 n=f3 v=116
2040 On ch=2 n=g#3 v=116
2059 On ch=2 n=g#3 v=0
2059 On ch=2 n=f3 v=0
2060 On ch=2 n=a#2 v=116
2079 On ch=2 n=a#2 v=0
2100 On ch=2 n=g#3 v=116
2100 On ch=2 n=f4 v=116
2119 On ch=2 n=f4 v=0
2119 On ch=2 n=g#3 v=0
2120 On ch=2 n=f3 v=116
2139 On ch=2 n=f3 v=0
2160 On ch=2 n=a#1 v=116
2160 On ch=2 n=a#2 v=116
2200 On ch=2 n=f#4 v=116
2219 On ch=2 n=f#4 v=0
2220 On ch=2 n=f#4 v=116
2259 On ch=2 n=f#4 v=0
2260 On ch=2 n=f#4 v=116
2279 On ch=2 n=f#4 v=0
2280 On ch=2 n=f#4 v=116
2299 On ch=2 n=f#4 v=0
2300 On ch=2 n=f#4 v=116
2339 On ch=2 n=f#4 v=0
2340 On ch=2 n=f#4 v=116
2359 On ch=2 n=f#4 v=0
2360 On ch=2 n=a#5 v=116
2360 On ch=2 n=c#5 v=116
2379 On ch=2 n=c#5 v=0
2379 On ch=2 n=a#5 v=0
2420 On ch=2 n=c#5 v=116
2420 On ch=2 n=a#5 v=116
2439 On ch=2 n=a#5 v=0
2439 On ch=2 n=c#5 v=0
2480 On ch=2 n=c#5 v=116
2480 On ch=2 n=a#5 v=116
2499 On ch=2 n=a#5 v=0
2499 On ch=2 n=c#5 v=0
2519 On ch=2 n=a#2 v=0
2519 On ch=2 n=a#1 v=0
2540 On ch=2 n=c#5 v=116
2540 On ch=2 n=a#5 v=116
2559 On ch=2 n=a#5 v=0
2559 On ch=2 n=c#5 v=0
2600 On ch=2 n=a#5 v=116
2600 On ch=2 n=c#5 v=116
2619 On ch=2 n=c#5 v=0
2619 On ch=2 n=a#5 v=0
2700 On ch=2 n=f5 v=116
2759 On ch=2 n=f5 v=0
2760 On ch=2 n=e5 v=116
2819 On ch=2 n=e5 v=0
2820 On ch=2 n=d#5 v=116
2879 On ch=2 n=d#5 v=0
2880 On ch=2 n=c#5 v=116
2940 On ch=2 n=a#4 v=116
2999 On ch=2 n=a#4 v=0
3000 On ch=2 n=f4 v=116
3179 On ch=2 n=f4 v=0
3179 On ch=2 n=c#5 v=0
3180 On ch=2 n=e4 v=116
3299 On ch=2 n=e4 v=0
3300 On ch=2 n=d#4 v=116
3359 On ch=2 n=d#4 v=0
3360 On ch=2 n=f#3 v=116
3360 On ch=2 n=c#4 v=116
3379 On ch=2 n=c#4 v=0
3379 On ch=2 n=f#3 v=0
3380 On ch=2 n=a#2 v=116
3399 On ch=2 n=a#2 v=0
3420 On ch=2 n=f4 v=116
3420 On ch=2 n=c#4 v=116
3439 On ch=2 n=c#4 v=0
3439 On ch=2 n=f4 v=0
3440 On ch=2 n=f#3 v=116
3459 On ch=2 n=f#3 v=0
3480 On ch=2 n=f#3 v=116
3480 On ch=2 n=c4 v=116
3499 On ch=2 n=c4 v=0
3499 On ch=2 n=f#3 v=0
3500 On ch=2 n=a#2 v=116
3519 On ch=2 n=a#2 v=0
3540 On ch=2 n=c4 v=116
3540 On ch=2 n=f4 v=116
3559 On ch=2 n=f4 v=0
3559 On ch=2 n=c4 v=0
3560 On ch=2 n=f#3 v=116
3579 On ch=2 n=f#3 v=0
3600 On ch=2 n=f#3 v=116
3600 On ch=2 n=a#3 v=116
3619 On ch=2 n=a#3 v=0
3619 On ch=2 n=f#3 v=0
3620 On ch=2 n=a#2 v=116
3639 On ch=2 n=a#2 v=0
3660 On ch=2 n=a#3 v=116
3660 On ch=2 n=f4 v=116
3679 On ch=2 n=f4 v=0
3679 On ch=2 n=a#3 v=0
3680 On ch=2 n=f#3 v=116
3699 On ch=2 n=f#3 v=0
3720 On ch=2 n=a3 v=116
3720 On ch=2 n=f#3 v=116
3739 On ch=2 n=f#3 v=0
3739 On ch=2 n=a3 v=0
3740 On ch=2 n=a#2 v=116
3759 On ch=2 n=a#2 v=0
3780 On ch=2 n=a3 v=116
3780 On ch=2 n=f4 v=116
3799 On ch=2 n=f4 v=0
3799 On ch=2 n=a3 v=0
3800 On ch=2 n=f#3 v=116
3819 On ch=2 n=f#3 v=0
3840 On ch=2 n=a#1 v=116
3840 On ch=2 n=a#2 v=116
3920 On ch=2 n=f5 v=116
3920 On ch=2 n=d5 v=116
3920 On ch=2 n=a#4 v=116
3920 On ch=2 n=g#4 v=116
3920 On ch=2 n=f4 v=116
3939 On ch=2 n=f4 v=0
3939 On ch=2 n=a#4 v=0
3939 On ch=2 n=d5 v=0
3939 On ch=2 n=f5 v=0
3939 On ch=2 n=g#4 v=0
3940 On ch=2 n=f5 v=116
3940 On ch=2 n=d5 v=116
3940 On ch=2 n=a#4 v=116
3940 On ch=2 n=g#4 v=116
3940 On ch=2 n=f4 v=116
3979 On ch=2 n=f4 v=0
3979 On ch=2 n=a#4 v=0
3979 On ch=2 n=d5 v=0
3979 On ch=2 n=f5 v=0
3979 On ch=2 n=g#4 v=0
3980 On ch=2 n=f5 v=116
3980 On ch=2 n=d5 v=116
3980 On ch=2 n=a#4 v=116
3980 On ch=2 n=g#4 v=116
3980 On ch=2 n=f4 v=116
3999 On ch=2 n=f4 v=0
3999 On ch=2 n=a#4 v=0
3999 On ch=2 n=d5 v=0
3999 On ch=2 n=f5 v=0
3999 On ch=2 n=g#4 v=0
4000 On ch=2 n=f5 v=116
4000 On ch=2 n=d5 v=116
4000 On ch=2 n=a#4 v=116
4000 On ch=2 n=g#4 v=116
4000 On ch=2 n=f4 v=116
4019 On ch=2 n=f4 v=0
4019 On ch=2 n=a#4 v=0
4019 On ch=2 n=d5 v=0
4019 On ch=2 n=f5 v=0
4019 On ch=2 n=g#4 v=0
4020 On ch=2 n=g#4 v=116
4020 On ch=2 n=a#4 v=116
4020 On ch=2 n=d5 v=116
4020 On ch=2 n=f5 v=116
4020 On ch=2 n=f4 v=116
4059 On ch=2 n=f4 v=0
4059 On ch=2 n=d5 v=0
4059 On ch=2 n=a#4 v=0
4059 On ch=2 n=g#4 v=0
4059 On ch=2 n=f5 v=0
4060 On ch=2 n=f5 v=116
4060 On ch=2 n=d5 v=116
4060 On ch=2 n=a#4 v=116
4060 On ch=2 n=g#4 v=116
4060 On ch=2 n=f4 v=116
4079 On ch=2 n=f4 v=0
4079 On ch=2 n=a#4 v=0
4079 On ch=2 n=a#1 v=0
4079 On ch=2 n=f5 v=0
4079 On ch=2 n=a#2 v=0
4079 On ch=2 n=g#4 v=0
4079 On ch=2 n=d5 v=0
4140 On ch=2 n=f5 v=116
4199 On ch=2 n=f5 v=0
4200 On ch=2 n=e5 v=116
4259 On ch=2 n=e5 v=0
4260 On ch=2 n=d#5 v=116
4319 On ch=2 n=d#5 v=0
4320 On ch=2 n=d5 v=116
4410 On ch=2 n=a#4 v=116
4439 On ch=2 n=a#4 v=0
4439 On ch=2 n=d5 v=0
4440 On ch=2 n=f4 v=116
4499 On ch=2 n=f4 v=0
4500 On ch=2 n=a#2 v=116
4500 On ch=2 n=f3 v=116
4529 On ch=2 n=f3 v=0
4529 On ch=2 n=a#2 v=0
4530 On ch=2 n=a#3 v=116
4559 On ch=2 n=a#3 v=0
4560 On ch=2 n=d4 v=116
4589 On ch=2 n=d4 v=0
4590 On ch=2 n=f4 v=116
4620 On ch=2 n=g#4 v=116
4650 On ch=2 n=d5 v=116
4709 On ch=2 n=d5 v=0
4710 On ch=2 n=f5 v=116
4739 On ch=2 n=g#4 v=0
4739 On ch=2 n=f4 v=0
4740 On ch=2 n=d5 v=116
4740 On ch=2 n=b5 v=116
4769 On ch=2 n=b5 v=0
4770 On ch=2 n=a#5 v=116
4799 On ch=2 n=a#5 v=0
4799 On ch=2 n=d5 v=0
4799 On ch=2 n=f5 v=0
4800 On ch=2 n=c#5 v=116
4800 On ch=2 n=a5 v=116
4859 On ch=2 n=a5 v=0
4859 On ch=2 n=c#5 v=0
4860 On ch=2 n=f#3 v=116
4889 On ch=2 n=f#3 v=0
4890 On ch=2 n=c#4 v=116
4919 On ch=2 n=c#4 v=0
4920 On ch=2 n=a4 v=116
4949 On ch=2 n=a4 v=0
4950 On ch=2 n=c#5 v=116
4979 On ch=2 n=c#5 v=0
4980 On ch=2 n=a5 v=116
5039 On ch=2 n=a5 v=0
5100 On ch=2 n=g3 v=116
5129 On ch=2 n=g3 v=0
5130 On ch=2 n=f4 v=116
5159 On ch=2 n=f4 v=0
5160 On ch=2 n=c#5 v=116
5189 On ch=2 n=c#5 v=0
5190 On ch=2 n=c5 v=116
5219 On ch=2 n=c5 v=0
5220 On ch=2 n=f4 v=116
5249 On ch=2 n=f4 v=0
5250 On ch=2 n=a3 v=116
5279 On ch=2 n=a3 v=0
5280 On ch=2 n=a#3 v=116
5309 On ch=2 n=a#3 v=0
5310 On ch=2 n=f#4 v=116
5339 On ch=2 n=f#4 v=0
5340 On ch=2 n=f#5 v=116
5370 On ch=2 n=f#4 v=116
5399 On ch=2 n=f#4 v=0
5399 On ch=2 n=f#5 v=0
5400 On ch=2 n=a3 v=116
5429 On ch=2 n=a3 v=0
5430 On ch=2 n=f4 v=116
5459 On ch=2 n=f4 v=0
5460 On ch=2 n=f5 v=116
5490 On ch=2 n=f4 v=116
5519 On ch=2 n=f4 v=0
5519 On ch=2 n=f5 v=0
5520 On ch=2 n=a#3 v=116
5549 On ch=2 n=a#3 v=0
5550 On ch=2 n=f#4 v=116
5579 On ch=2 n=f#4 v=0
5580 On ch=2 n=f#5 v=116
5610 On ch=2 n=f#4 v=116
5639 On ch=2 n=f#4 v=0
5639 On ch=2 n=f#5 v=0
5640 On ch=2 n=g#3 v=116
5669 On ch=2 n=g#3 v=0
5670 On ch=2 n=f4 v=116
5699 On ch=2 n=f4 v=0
5700 On ch=2 n=f5 v=116
5730 On ch=2 n=f4 v=116
5759 On ch=2 n=f4 v=0
5759 On ch=2 n=f5 v=0
5760 On ch=2 n=a3 v=116
5789 On ch=2 n=a3 v=0
5790 On ch=2 n=f4 v=116
5819 On ch=2 n=f4 v=0
5820 On ch=2 n=f5 v=116
5849 On ch=2 n=f5 v=0
5850 On ch=2 n=f4 v=116
5879 On ch=2 n=f4 v=0
5880 On ch=2 n=g#3 v=116
5909 On ch=2 n=g#3 v=0
5910 On ch=2 n=e4 v=116
5939 On ch=2 n=e4 v=0
5940 On ch=2 n=e5 v=116
5969 On ch=2 n=e5 v=0
5970 On ch=2 n=e4 v=116
5999 On ch=2 n=e4 v=0
6000 On ch=2 n=a3 v=116
6029 On ch=2 n=a3 v=0
6030 On ch=2 n=e4 v=116
6059 On ch=2 n=e4 v=0
6060 On ch=2 n=e5 v=116
6089 On ch=2 n=e5 v=0
6090 On ch=2 n=e4 v=116
6119 On ch=2 n=e4 v=0
6120 On ch=2 n=f#3 v=116
6149 On ch=2 n=f#3 v=0
6150 On ch=2 n=d#4 v=116
6179 On ch=2 n=d#4 v=0
6180 On ch=2 n=d#5 v=116
6209 On ch=2 n=d#5 v=0
6210 On ch=2 n=d#4 v=116
6239 On ch=2 n=d#4 v=0
6240 On ch=2 n=d#3 v=116
6279 On ch=2 n=d#3 v=0
6280 On ch=2 n=c#4 v=116
6299 On ch=2 n=c#4 v=0
6300 On ch=2 n=c#5 v=116
6339 On ch=2 n=c#5 v=0
6340 On ch=2 n=c4 v=116
6359 On ch=2 n=c4 v=0
6360 On ch=2 n=f3 v=116
6399 On ch=2 n=f3 v=0
6400 On ch=2 n=c#4 v=116
6419 On ch=2 n=c#4 v=0
6420 On ch=2 n=c#5 v=116
6459 On ch=2 n=c#5 v=0
6460 On ch=2 n=c4 v=116
6479 On ch=2 n=c4 v=0
6480 On ch=2 n=f#3 v=116
6519 On ch=2 n=f#3 v=0
6520 On ch=2 n=c#4 v=116
6539 On ch=2 n=c#4 v=0
6540 On ch=2 n=c#5 v=116
6579 On ch=2 n=c#5 v=0
6580 On ch=2 n=c4 v=116
6599 On ch=2 n=c4 v=0
6600 On ch=2 n=f3 v=116
6639 On ch=2 n=f3 v=0
6640 On ch=2 n=c#4 v=116
6659 On ch=2 n=c#4 v=0
6660 On ch=2 n=c#5 v=116
6699 On ch=2 n=c#5 v=0
6700 On ch=2 n=c4 v=116
6719 On ch=2 n=c4 v=0
6720 On ch=2 n=d#3 v=116
6759 On ch=2 n=d#3 v=0
6760 On ch=2 n=c#4 v=116
6779 On ch=2 n=c#4 v=0
6780 On ch=2 n=c#5 v=116
6819 On ch=2 n=c#5 v=0
6820 On ch=2 n=c4 v=116
6839 On ch=2 n=c4 v=0
6840 On ch=2 n=f3 v=116
6879 On ch=2 n=f3 v=0
6880 On ch=2 n=c#4 v=116
6899 On ch=2 n=c#4 v=0
6900 On ch=2 n=c#5 v=116
6939 On ch=2 n=c#5 v=0
6940 On ch=2 n=c4 v=116
6959 On ch=2 n=c4 v=0
6960 On ch=2 n=f#3 v=116
6999 On ch=2 n=f#3 v=0
7000 On ch=2 n=c#4 v=116
7019 On ch=2 n=c#4 v=0
7020 On ch=2 n=c#5 v=116
7059 On ch=2 n=c#5 v=0
7060 On ch=2 n=c4 v=116
7079 On ch=2 n=c4 v=0
7080 On ch=2 n=f3 v=116
7119 On ch=2 n=f3 v=0
7120 On ch=2 n=c#4 v=116
7139 On ch=2 n=c#4 v=0
7140 On ch=2 n=c#5 v=116
7179 On ch=2 n=c#5 v=0
7180 On ch=2 n=c4 v=116
7199 On ch=2 n=c4 v=0
7200 On ch=2 n=d#3 v=116
7239 On ch=2 n=d#3 v=0
7240 On ch=2 n=c#4 v=116
7259 On ch=2 n=c#4 v=0
7260 On ch=2 n=a#4 v=116
7299 On ch=2 n=a#4 v=0
7300 On ch=2 n=c4 v=116
7319 On ch=2 n=c4 v=0
7320 On ch=2 n=f3 v=116
7359 On ch=2 n=f3 v=0
7360 On ch=2 n=c#4 v=116
7379 On ch=2 n=c#4 v=0
7380 On ch=2 n=a4 v=116
7419 On ch=2 n=a4 v=0
7420 On ch=2 n=d#4 v=116
7439 On ch=2 n=d#4 v=0
7440 On ch=2 n=g3 v=116
7479 On ch=2 n=g3 v=0
7480 On ch=2 n=f4 v=116
7499 On ch=2 n=f4 v=0
7500 On ch=2 n=c#5 v=116
7539 On ch=2 n=c#5 v=0
7540 On ch=2 n=d#4 v=116
7559 On ch=2 n=d#4 v=0
7560 On ch=2 n=g#3 v=116
7599 On ch=2 n=g#3 v=0
7600 On ch=2 n=f4 v=116
7619 On ch=2 n=f4 v=0
7620 On ch=2 n=c5 v=116
7659 On ch=2 n=c5 v=0
7660 On ch=2 n=f#4 v=116
7679 On ch=2 n=f#4 v=0
7680 On ch=2 n=a#3 v=116
7719 On ch=2 n=a#3 v=0
7720 On ch=2 n=g#4 v=116
7739 On ch=2 n=g#4 v=0
7740 On ch=2 n=f5 v=116
7779 On ch=2 n=f5 v=0
7780 On ch=2 n=f#4 v=116
7799 On ch=2 n=f#4 v=0
7800 On ch=2 n=c4 v=116
7839 On ch=2 n=c4 v=0
7840 On ch=2 n=g#4 v=116
7859 On ch=2 n=g#4 v=0
7860 On ch=2 n=d#5 v=116
7899 On ch=2 n=d#5 v=0
7900 On ch=2 n=a#4 v=116
7920 On ch=2 n=d4 v=116
7939 On ch=2 n=d4 v=0
7939 On ch=2 n=a#4 v=0
7940 On ch=2 n=a#4 v=116
7940 On ch=2 n=d4 v=116
7959 On ch=2 n=d4 v=0
7959 On ch=2 n=a#4 v=0
7960 On ch=2 n=f#6 v=116
7960 On ch=2 n=f#5 v=116
7960 On ch=2 n=a#5 v=116
7979 On ch=2 n=a#5 v=0
7979 On ch=2 n=f#5 v=0
7979 On ch=2 n=f#6 v=0
7980 On ch=2 n=g#5 v=116
7980 On ch=2 n=g#4 v=116
7980 On ch=2 n=a#4 v=116
7999 On ch=2 n=a#4 v=0
7999 On ch=2 n=g#4 v=0
7999 On ch=2 n=g#5 v=0
8000 On ch=2 n=g#5 v=116
8000 On ch=2 n=g#4 v=116
8000 On ch=2 n=a#4 v=116
8019 On ch=2 n=a#4 v=0
8019 On ch=2 n=g#4 v=0
8019 On ch=2 n=g#5 v=0
8020 On ch=2 n=f#5 v=116
8020 On ch=2 n=a#5 v=116
8039 On ch=2 n=a#5 v=0
8039 On ch=2 n=f#5 v=0
8040 On ch=2 n=a#3 v=116
8040 On ch=2 n=g#4 v=116
8059 On ch=2 n=g#4 v=0
8059 On ch=2 n=a#3 v=0
8060 On ch=2 n=a#3 v=116
8060 On ch=2 n=g#4 v=116
8079 On ch=2 n=g#4 v=0
8079 On ch=2 n=a#3 v=0
8080 On ch=2 n=a#5 v=116
8080 On ch=2 n=f6 v=116
8080 On ch=2 n=f5 v=116
8099 On ch=2 n=f5 v=0
8099 On ch=2 n=f6 v=0
8099 On ch=2 n=a#5 v=0
8100 On ch=2 n=g#5 v=116
8100 On ch=2 n=g#4 v=116
8100 On ch=2 n=a#4 v=116
8119 On ch=2 n=a#4 v=0
8119 On ch=2 n=g#4 v=0
8119 On ch=2 n=g#5 v=0
8120 On ch=2 n=g#5 v=116
8120 On ch=2 n=g#4 v=116
8120 On ch=2 n=a#4 v=116
8139 On ch=2 n=a#4 v=0
8139 On ch=2 n=g#4 v=0
8139 On ch=2 n=g#5 v=0
8140 On ch=2 n=f5 v=116
8140 On ch=2 n=a#5 v=116
8159 On ch=2 n=a#5 v=0
8159 On ch=2 n=f5 v=0
8160 On ch=2 n=f#3 v=116
8160 On ch=2 n=c#4 v=116
8179 On ch=2 n=c#4 v=0
8179 On ch=2 n=f#3 v=0
8180 On ch=2 n=f#3 v=116
8180 On ch=2 n=c#4 v=116
8199 On ch=2 n=c#4 v=0
8199 On ch=2 n=f#3 v=0
8200 On ch=2 n=e6 v=116
8200 On ch=2 n=a#5 v=116
8200 On ch=2 n=e5 v=116
8219 On ch=2 n=e5 v=0
8219 On ch=2 n=a#5 v=0
8219 On ch=2 n=e6 v=0
8220 On ch=2 n=a#4 v=116
8220 On ch=2 n=c#5 v=116
8220 On ch=2 n=g#5 v=116
8239 On ch=2 n=g#5 v=0
8239 On ch=2 n=c#5 v=0
8239 On ch=2 n=a#4 v=0
8240 On ch=2 n=a#4 v=116
8240 On ch=2 n=c#5 v=116
8240 On ch=2 n=g#5 v=116
8259 On ch=2 n=g#5 v=0
8259 On ch=2 n=c#5 v=0
8259 On ch=2 n=a#4 v=0
8260 On ch=2 n=d#5 v=116
8260 On ch=2 n=a#5 v=116
8279 On ch=2 n=a#5 v=0
8279 On ch=2 n=d#5 v=0
8280 On ch=2 n=g3 v=116
8280 On ch=2 n=d#4 v=116
8299 On ch=2 n=d#4 v=0
8299 On ch=2 n=g3 v=0
8300 On ch=2 n=g3 v=116
8300 On ch=2 n=d#4 v=116
8319 On ch=2 n=d#4 v=0
8319 On ch=2 n=g3 v=0
8320 On ch=2 n=d5 v=116
8320 On ch=2 n=a#5 v=116
8320 On ch=2 n=d6 v=116
8339 On ch=2 n=d6 v=0
8339 On ch=2 n=a#5 v=0
8339 On ch=2 n=d5 v=0
8340 On ch=2 n=e4 v=116
8340 On ch=2 n=a#4 v=116
8340 On ch=2 n=e5 v=116
8359 On ch=2 n=e5 v=0
8359 On ch=2 n=a#4 v=0
8359 On ch=2 n=e4 v=0
8360 On ch=2 n=e4 v=116
8360 On ch=2 n=a#4 v=116
8360 On ch=2 n=e5 v=116
8379 On ch=2 n=e5 v=0
8379 On ch=2 n=a#4 v=0
8379 On ch=2 n=e4 v=0
8380 On ch=2 n=a#5 v=116
8380 On ch=2 n=c#6 v=116
8380 On ch=2 n=c#5 v=116
8399 On ch=2 n=c#5 v=0
8399 On ch=2 n=c#6 v=0
8399 On ch=2 n=a#5 v=0
8400 On ch=2 n=g#3 v=116
8400 On ch=2 n=f4 v=116
8419 On ch=2 n=f4 v=0
8419 On ch=2 n=g#3 v=0
8420 On ch=2 n=f4 v=116
8420 On ch=2 n=g#3 v=116
8439 On ch=2 n=g#3 v=0
8439 On ch=2 n=f4 v=0
8440 On ch=2 n=c#6 v=116
8440 On ch=2 n=g#5 v=116
8440 On ch=2 n=c#5 v=116
8459 On ch=2 n=c#5 v=0
8459 On ch=2 n=g#5 v=0
8459 On ch=2 n=c#6 v=0
8460 On ch=2 n=g#4 v=116
8460 On ch=2 n=f4 v=116
8460 On ch=2 n=f5 v=116
8479 On ch=2 n=f5 v=0
8479 On ch=2 n=f4 v=0
8479 On ch=2 n=g#4 v=0
8480 On ch=2 n=g#4 v=116
8480 On ch=2 n=f4 v=116
8480 On ch=2 n=f5 v=116
8499 On ch=2 n=f5 v=0
8499 On ch=2 n=f4 v=0
8499 On ch=2 n=g#4 v=0
8500 On ch=2 n=c6 v=116
8500 On ch=2 n=c5 v=116
8500 On ch=2 n=g#5 v=116
8519 On ch=2 n=g#5 v=0
8519 On ch=2 n=c5 v=0
8519 On ch=2 n=c6 v=0
8520 On ch=2 n=a2 v=116
8520 On ch=2 n=a3 v=116
8539 On ch=2 n=a3 v=0
8539 On ch=2 n=a2 v=0
8540 On ch=2 n=a2 v=116
8540 On ch=2 n=a3 v=116
8559 On ch=2 n=a3 v=0
8559 On ch=2 n=a2 v=0
8560 On ch=2 n=b5 v=116
8560 On ch=2 n=f#5 v=116
8560 On ch=2 n=b4 v=116
8579 On ch=2 n=b4 v=0
8579 On ch=2 n=f#5 v=0
8579 On ch=2 n=b5 v=0
8580 On ch=2 n=f#4 v=116
8580 On ch=2 n=d#4 v=116
8580 On ch=2 n=d#5 v=116
8599 On ch=2 n=d#5 v=0
8599 On ch=2 n=d#4 v=0
8599 On ch=2 n=f#4 v=0
8600 On ch=2 n=f#4 v=116
8600 On ch=2 n=d#4 v=116
8600 On ch=2 n=d#5 v=116
8619 On ch=2 n=d#5 v=0
8619 On ch=2 n=d#4 v=0
8619 On ch=2 n=f#4 v=0
8620 On ch=2 n=a#5 v=116
8620 On ch=2 n=f#5 v=116
8620 On ch=2 n=a#4 v=116
8639 On ch=2 n=a#4 v=0
8639 On ch=2 n=f#5 v=0
8639 On ch=2 n=a#5 v=0
8640 On ch=2 n=a#1 v=116
8640 On ch=2 n=a#2 v=116
8659 On ch=2 n=a#2 v=0
8659 On ch=2 n=a#1 v=0
8660 On ch=2 n=a#1 v=116
8660 On ch=2 n=a#2 v=116
8679 On ch=2 n=a#2 v=0
8679 On ch=2 n=a#1 v=0
8680 On ch=2 n=f5 v=116
8680 On ch=2 n=a#5 v=116
8680 On ch=2 n=a#4 v=116
8699 On ch=2 n=a#4 v=0
8699 On ch=2 n=a#5 v=0
8699 On ch=2 n=f5 v=0
8700 On ch=2 n=f4 v=116
8700 On ch=2 n=c#4 v=116
8700 On ch=2 n=c#5 v=116
8719 On ch=2 n=c#5 v=0
8719 On ch=2 n=c#4 v=0
8719 On ch=2 n=f4 v=0
8720 On ch=2 n=f4 v=116
8720 On ch=2 n=c#4 v=116
8720 On ch=2 n=c#5 v=116
8739 On ch=2 n=c#5 v=0
8739 On ch=2 n=c#4 v=0
8739 On ch=2 n=f4 v=0
8740 On ch=2 n=b4 v=116
8740 On ch=2 n=f5 v=116
8759 On ch=2 n=f5 v=0
8759 On ch=2 n=b4 v=0
8760 On ch=2 n=c#2 v=116
8760 On ch=2 n=c#3 v=116
8779 On ch=2 n=c#3 v=0
8779 On ch=2 n=c#2 v=0
8780 On ch=2 n=c#2 v=116
8780 On ch=2 n=c#3 v=116
8799 On ch=2 n=c#3 v=0
8799 On ch=2 n=c#2 v=0
8800 On ch=2 n=f5 v=116
8800 On ch=2 n=c5 v=116
8800 On ch=2 n=c6 v=116
8819 On ch=2 n=c6 v=0
8819 On ch=2 n=c5 v=0
8819 On ch=2 n=f5 v=0
8820 On ch=2 n=g#4 v=116
8820 On ch=2 n=f4 v=116
8820 On ch=2 n=d5 v=116
8839 On ch=2 n=d5 v=0
8839 On ch=2 n=f4 v=0
8839 On ch=2 n=g#4 v=0
8840 On ch=2 n=g#4 v=116
8840 On ch=2 n=f4 v=116
8840 On ch=2 n=d5 v=116
8859 On ch=2 n=d5 v=0
8859 On ch=2 n=f4 v=0
8859 On ch=2 n=g#4 v=0
8860 On ch=2 n=f#5 v=116
8860 On ch=2 n=a#5 v=116
8860 On ch=2 n=c6 v=116
8860 On ch=2 n=c5 v=116
8879 On ch=2 n=c5 v=0
8879 On ch=2 n=f#5 v=0
8879 On ch=2 n=a#5 v=0
8879 On ch=2 n=c6 v=0
8880 On ch=2 n=d#2 v=116
8880 On ch=2 n=d#3 v=116
8899 On ch=2 n=d#3 v=0
8899 On ch=2 n=d#2 v=0
8900 On ch=2 n=d#2 v=116
8900 On ch=2 n=d#3 v=116
8919 On ch=2 n=d#3 v=0
8919 On ch=2 n=d#2 v=0
8920 On ch=2 n=c5 v=116
8920 On ch=2 n=f#5 v=116
8920 On ch=2 n=a#5 v=116
8920 On ch=2 n=c6 v=116
8939 On ch=2 n=c6 v=0
8939 On ch=2 n=c5 v=0
8939 On ch=2 n=f#5 v=0
8939 On ch=2 n=a#5 v=0
8940 On ch=2 n=f4 v=116
8940 On ch=2 n=a#4 v=116
8940 On ch=2 n=d#5 v=116
8959 On ch=2 n=d#5 v=0
8959 On ch=2 n=a#4 v=0
8959 On ch=2 n=f4 v=0
8960 On ch=2 n=f4 v=116
8960 On ch=2 n=a#4 v=116
8960 On ch=2 n=d#5 v=116
8979 On ch=2 n=d#5 v=0
8979 On ch=2 n=a#4 v=0
8979 On ch=2 n=f4 v=0
8980 On ch=2 n=a5 v=116
8980 On ch=2 n=c#6 v=116
8980 On ch=2 n=c#5 v=116
8999 On ch=2 n=c#5 v=0
8999 On ch=2 n=c#6 v=0
8999 On ch=2 n=a5 v=0
9000 On ch=2 n=f2 v=116
9000 On ch=2 n=f3 v=116
9019 On ch=2 n=f3 v=0
9019 On ch=2 n=f2 v=0
9020 On ch=2 n=f2 v=116
9020 On ch=2 n=f3 v=116
9039 On ch=2 n=f3 v=0
9039 On ch=2 n=f2 v=0
9040 On ch=2 n=c#5 v=116
9040 On ch=2 n=c#6 v=116
9060 On ch=2 n=f4 v=116
9060 On ch=2 n=g#4 v=116
9060 On ch=2 n=f5 v=116
9060 On ch=2 n=d#5 v=116
9079 On ch=2 n=d#5 v=0
9079 On ch=2 n=g#4 v=0
9079 On ch=2 n=f4 v=0
9079 On ch=2 n=f5 v=0
9080 On ch=2 n=f4 v=116
9080 On ch=2 n=g#4 v=116
9080 On ch=2 n=f5 v=116
9080 On ch=2 n=d#5 v=116
9099 On ch=2 n=d#5 v=0
9099 On ch=2 n=c#5 v=0
9099 On ch=2 n=f4 v=0
9099 On ch=2 n=c#6 v=0
9099 On ch=2 n=f5 v=0
9099 On ch=2 n=g#4 v=0
9120 On ch=2 n=a#1 v=116
9120 On ch=2 n=a#2 v=116
9180 On ch=2 n=f3 v=116
9180 On ch=2 n=a#3 v=116
9180 On ch=2 n=c#4 v=116
9180 On ch=2 n=f4 v=116
9269 On ch=2 n=f4 v=0
9269 On ch=2 n=a#3 v=0
9269 On ch=2 n=f3 v=0
9269 On ch=2 n=c#4 v=0
9270 On ch=2 n=f3 v=116
9270 On ch=2 n=a#3 v=116
9270 On ch=2 n=c#4 v=116
9270 On ch=2 n=f4 v=116
9329 On ch=2 n=f4 v=0
9329 On ch=2 n=a#3 v=0
9329 On ch=2 n=f3 v=0
9329 On ch=2 n=c#4 v=0
9330 On ch=2 n=f3 v=116
9330 On ch=2 n=a#3 v=116
9330 On ch=2 n=c#4 v=116
9330 On ch=2 n=f4 v=116
9359 On ch=2 n=f4 v=0
9359 On ch=2 n=a#2 v=0
9359 On ch=2 n=f3 v=0
9359 On ch=2 n=a#1 v=0
9359 On ch=2 n=c#4 v=0
9359 On ch=2 n=a#3 v=0
9360 On ch=2 n=g#3 v=116
9360 On ch=2 n=f3 v=116
9360 On ch=2 n=c#3 v=116
9360 On ch=2 n=g#2 v=116
9420 On ch=2 n=f5 v=116
9420 On ch=2 n=c#5 v=116
9420 On ch=2 n=a#4 v=116
9420 On ch=2 n=f4 v=116
9509 On ch=2 n=f4 v=0
9509 On ch=2 n=a#4 v=0
9509 On ch=2 n=f5 v=0
9509 On ch=2 n=c#5 v=0
9510 On ch=2 n=f4 v=116
9510 On ch=2 n=a#4 v=116
9510 On ch=2 n=c#5 v=116
9510 On ch=2 n=f5 v=116
9569 On ch=2 n=f5 v=0
9569 On ch=2 n=c#5 v=0
9569 On ch=2 n=f4 v=0
9569 On ch=2 n=a#4 v=0
9570 On ch=2 n=f4 v=116
9570 On ch=2 n=a#4 v=116
9570 On ch=2 n=c#5 v=116
9570 On ch=2 n=f5 v=116
9599 On ch=2 n=f5 v=0
9599 On ch=2 n=c#3 v=0
9599 On ch=2 n=f4 v=0
9599 On ch=2 n=f3 v=0
9599 On ch=2 n=g#2 v=0
9599 On ch=2 n=g#3 v=0
9599 On ch=2 n=a#4 v=0
9599 On ch=2 n=c#5 v=0
9600 On ch=2 n=a#1 v=116
9600 On ch=2 n=a#2 v=116
9660 On ch=2 n=f7 v=116
9660 On ch=2 n=c#7 v=116
9679 On ch=2 n=c#7 v=0
9679 On ch=2 n=f7 v=0
9680 On ch=2 n=d#7 v=116
9699 On ch=2 n=d#7 v=0
9700 On ch=2 n=d7 v=116
9719 On ch=2 n=d7 v=0
9720 On ch=2 n=c#7 v=116
9739 On ch=2 n=c#7 v=0
9740 On ch=2 n=a#6 v=116
9759 On ch=2 n=a#6 v=0
9760 On ch=2 n=f#6 v=116
9779 On ch=2 n=f#6 v=0
9780 On ch=2 n=f6 v=116
9799 On ch=2 n=f6 v=0
9800 On ch=2 n=d#6 v=116
9819 On ch=2 n=d#6 v=0
9820 On ch=2 n=d6 v=116
9839 On ch=2 n=d6 v=0
9839 On ch=2 n=a#2 v=0
9839 On ch=2 n=a#1 v=0
9840 On ch=2 n=c#6 v=116
9859 On ch=2 n=c#6 v=0
9860 On ch=2 n=a#5 v=116
9879 On ch=2 n=a#5 v=0
9880 On ch=2 n=f#5 v=116
9899 On ch=2 n=f#5 v=0
9900 On ch=2 n=f5 v=116
9919 On ch=2 n=f5 v=0
9920 On ch=2 n=d#5 v=116
9939 On ch=2 n=d#5 v=0
9940 On ch=2 n=d5 v=116
9959 On ch=2 n=d5 v=0
9960 On ch=2 n=c#5 v=116
9979 On ch=2 n=c#5 v=0
9980 On ch=2 n=a#4 v=116
9999 On ch=2 n=a#4 v=0
10000 On ch=2 n=f#4 v=116
10019 On ch=2 n=f#4 v=0
10020 On ch=2 n=f4 v=116
10039 On ch=2 n=f4 v=0
10040 On ch=2 n=d#4 v=116
10059 On ch=2 n=d#4 v=0
10060 On ch=2 n=d4 v=116
10079 On ch=2 n=d4 v=0
10080 On ch=2 n=c#2 v=116
10080 On ch=2 n=c#3 v=116
10140 On ch=2 n=a#3 v=116
10140 On ch=2 n=f3 v=116
10140 On ch=2 n=c#4 v=116
10140 On ch=2 n=f4 v=116
10229 On ch=2 n=f4 v=0
10229 On ch=2 n=f3 v=0
10229 On ch=2 n=a#3 v=0
10229 On ch=2 n=c#4 v=0
10230 On ch=2 n=a#3 v=116
10230 On ch=2 n=f3 v=116
10230 On ch=2 n=f4 v=116
10230 On ch=2 n=c#4 v=116
10289 On ch=2 n=c#4 v=0
10289 On ch=2 n=f3 v=0
10289 On ch=2 n=a#3 v=0
10289 On ch=2 n=f4 v=0
10290 On ch=2 n=a#3 v=116
10290 On ch=2 n=f3 v=116
10290 On ch=2 n=f4 v=116
10290 On ch=2 n=c#4 v=116
10319 On ch=2 n=c#4 v=0
10319 On ch=2 n=c#3 v=0
10319 On ch=2 n=a#3 v=0
10319 On ch=2 n=c#2 v=0
10319 On ch=2 n=f4 v=0
10319 On ch=2 n=f3 v=0
10320 On ch=2 n=g#4 v=116
10320 On ch=2 n=f4 v=116
10320 On ch=2 n=g#3 v=116
10320 On ch=2 n=c#4 v=116
10320 On ch=2 n=f6 v=116
10320 On ch=2 n=g#6 v=116
10320 On ch=2 n=c#6 v=116
10320 On ch=2 n=g#5 v=116
10380 On ch=2 n=f5 v=116
10380 On ch=2 n=c#5 v=116
10380 On ch=2 n=a#4 v=116
10380 On ch=2 n=f4 v=116
10380 On ch=2 n=c#6 v=116
10380 On ch=2 n=f6 v=116
10380 On ch=2 n=a#5 v=116
10469 On ch=2 n=a#5 v=0
10469 On ch=2 n=f4 v=0
10469 On ch=2 n=c#5 v=0
10469 On ch=2 n=f5 v=0
10469 On ch=2 n=f6 v=0
10469 On ch=2 n=a#4 v=0
10469 On ch=2 n=c#6 v=0
10470 On ch=2 n=f4 v=116
10470 On ch=2 n=a#4 v=116
10470 On ch=2 n=c#5 v=116
10470 On ch=2 n=f5 v=116
10470 On ch=2 n=a#5 v=116
10470 On ch=2 n=c#6 v=116
10470 On ch=2 n=f6 v=116
10529 On ch=2 n=f6 v=0
10529 On ch=2 n=f5 v=0
10529 On ch=2 n=a#4 v=0
10529 On ch=2 n=f4 v=0
10529 On ch=2 n=c#6 v=0
10529 On ch=2 n=c#5 v=0
10529 On ch=2 n=a#5 v=0
10530 On ch=2 n=f5 v=116
10530 On ch=2 n=c#5 v=116
10530 On ch=2 n=a#4 v=116
10530 On ch=2 n=f4 v=116
10530 On ch=2 n=a#5 v=116
10530 On ch=2 n=c#6 v=116
10530 On ch=2 n=f6 v=116
10559 On ch=2 n=f6 v=0
10559 On ch=2 n=f4 v=0
10559 On ch=2 n=c#4 v=0
10559 On ch=2 n=f6 v=0
10559 On ch=2 n=f4 v=0
10559 On ch=2 n=c#6 v=0
10559 On ch=2 n=g#5 v=0
10559 On ch=2 n=g#6 v=0
10559 On ch=2 n=g#4 v=0
10559 On ch=2 n=a#5 v=0
10559 On ch=2 n=a#4 v=0
10559 On ch=2 n=f5 v=0
10559 On ch=2 n=g#3 v=0
10559 On ch=2 n=c#6 v=0
10559 On ch=2 n=c#5 v=0
10560 On ch=2 n=c#2 v=116
10560 On ch=2 n=c#3 v=116
10600 On ch=2 n=f4 v=116
10619 On ch=2 n=f4 v=0
10620 On ch=2 n=f5 v=116
10620 On ch=2 n=c#5 v=116
10659 On ch=2 n=c#5 v=0
10659 On ch=2 n=f5 v=0
10660 On ch=2 n=f4 v=116
10679 On ch=2 n=f4 v=0
10680 On ch=2 n=f5 v=116
10680 On ch=2 n=e5 v=116
10680 On ch=2 n=c5 v=116
10719 On ch=2 n=c5 v=0
10719 On ch=2 n=f5 v=0
10719 On ch=2 n=e5 v=0
10720 On ch=2 n=f4 v=116
10739 On ch=2 n=f4 v=0
10740 On ch=2 n=f5 v=116
10740 On ch=2 n=d#5 v=116
10740 On ch=2 n=b4 v=116
10779 On ch=2 n=b4 v=0
10779 On ch=2 n=f5 v=0
10779 On ch=2 n=d#5 v=0
10780 On ch=2 n=f4 v=116
10799 On ch=2 n=f4 v=0
10799 On ch=2 n=c#3 v=0
10799 On ch=2 n=c#2 v=0
10800 On ch=2 n=f5 v=116
10800 On ch=2 n=c#5 v=116
10800 On ch=2 n=a#4 v=116
10859 On ch=2 n=a#4 v=0
10859 On ch=2 n=c#5 v=0
10859 On ch=2 n=f5 v=0
10860 On ch=2 n=f4 v=116
10879 On ch=2 n=f4 v=0
10880 On ch=2 n=d#4 v=116
10899 On ch=2 n=d#4 v=0
10900 On ch=2 n=d4 v=116
10919 On ch=2 n=d4 v=0
10920 On ch=2 n=c#4 v=116
10939 On ch=2 n=c#4 v=0
10940 On ch=2 n=a#3 v=116
10959 On ch=2 n=a#3 v=0
10960 On ch=2 n=f3 v=116
10979 On ch=2 n=f3 v=0
11040 On ch=2 n=f#2 v=116
11040 On ch=2 n=f#3 v=116
11079 On ch=2 n=f#3 v=0
11079 On ch=2 n=f#2 v=0
11080 On ch=2 n=c#4 v=116
11099 On ch=2 n=c#4 v=0
11100 On ch=2 n=a#4 v=116
11139 On ch=2 n=a#4 v=0
11140 On ch=2 n=d#4 v=116
11159 On ch=2 n=d#4 v=0
11160 On ch=2 n=c5 v=116
11199 On ch=2 n=c5 v=0
11200 On ch=2 n=f4 v=116
11219 On ch=2 n=f4 v=0
11220 On ch=2 n=c#5 v=116
11259 On ch=2 n=c#5 v=0
11260 On ch=2 n=g#4 v=116
11279 On ch=2 n=g#4 v=0
11280 On ch=2 n=f#4 v=116
11319 On ch=2 n=f#4 v=0
11320 On ch=2 n=d#4 v=116
11339 On ch=2 n=d#4 v=0
11340 On ch=2 n=c5 v=116
11379 On ch=2 n=c5 v=0
11380 On ch=2 n=f4 v=116
11399 On ch=2 n=f4 v=0
11400 On ch=2 n=c#5 v=116
11439 On ch=2 n=c#5 v=0
11440 On ch=2 n=f#4 v=116
11459 On ch=2 n=f#4 v=0
11460 On ch=2 n=d#5 v=116
11499 On ch=2 n=d#5 v=0
11500 On ch=2 n=a#3 v=116
11519 On ch=2 n=a#3 v=0
11520 On ch=2 n=g#4 v=116
11559 On ch=2 n=g#4 v=0
11560 On ch=2 n=f4 v=116
11579 On ch=2 n=f4 v=0
11580 On ch=2 n=c#5 v=116
11619 On ch=2 n=c#5 v=0
11620 On ch=2 n=f#4 v=116
11639 On ch=2 n=f#4 v=0
11640 On ch=2 n=d#5 v=116
11679 On ch=2 n=d#5 v=0
11680 On ch=2 n=g#4 v=116
11699 On ch=2 n=g#4 v=0
11700 On ch=2 n=f5 v=116
11739 On ch=2 n=f5 v=0
11740 On ch=2 n=c4 v=116
11759 On ch=2 n=c4 v=0
11760 On ch=2 n=a#4 v=116
11799 On ch=2 n=a#4 v=0
11800 On ch=2 n=c5 v=116
11819 On ch=2 n=c5 v=0
11820 On ch=2 n=f5 v=116
11859 On ch=2 n=f5 v=0
11860 On ch=2 n=d#4 v=116
11860 On ch=2 n=c#5 v=116
11879 On ch=2 n=c#5 v=0
11879 On ch=2 n=d#4 v=0
11880 On ch=2 n=a#5 v=116
11919 On ch=2 n=a#5 v=0
11920 On ch=2 n=d#5 v=116
11939 On ch=2 n=d#5 v=0
11940 On ch=2 n=c6 v=116
11979 On ch=2 n=c6 v=0
11980 On ch=2 n=f4 v=116
11980 On ch=2 n=c#5 v=116
11999 On ch=2 n=c#5 v=0
11999 On ch=2 n=f4 v=0
12000 On ch=2 n=a5 v=116
12014 On ch=2 n=a5 v=0
12015 On ch=2 n=c6 v=116
12029 On ch=2 n=c6 v=0
12030 On ch=2 n=f6 v=116
12044 On ch=2 n=f6 v=0
12045 On ch=2 n=g#6 v=116
12059 On ch=2 n=g#6 v=0
12060 On ch=2 n=a6 v=116
12074 On ch=2 n=a6 v=0
12090 On ch=2 n=f5 v=116
12119 On ch=2 n=f5 v=0
12120 On ch=2 n=f#5 v=116
12120 On ch=2 n=g#5 v=116
12134 On ch=2 n=g#5 v=0
12135 On ch=2 n=a#5 v=116
12149 On ch=2 n=a#5 v=0
12150 On ch=2 n=d#6 v=116
12164 On ch=2 n=d#6 v=0
12165 On ch=2 n=f6 v=116
12179 On ch=2 n=f6 v=0
12209 On ch=2 n=f#5 v=0
12210 On ch=2 n=d#5 v=116
12239 On ch=2 n=d#5 v=0
12240 On ch=2 n=f5 v=116
12255 On ch=2 n=a#5 v=116
12269 On ch=2 n=a#5 v=0
12270 On ch=2 n=c#6 v=116
12284 On ch=2 n=c#6 v=0
12285 On ch=2 n=d#6 v=116
12299 On ch=2 n=d#6 v=0
12329 On ch=2 n=f5 v=0
12330 On ch=2 n=c#5 v=116
12359 On ch=2 n=c#5 v=0
12360 On ch=2 n=d#5 v=116
12375 On ch=2 n=f#5 v=116
12389 On ch=2 n=f#5 v=0
12390 On ch=2 n=a#5 v=116
12404 On ch=2 n=a#5 v=0
12405 On ch=2 n=c#6 v=116
12419 On ch=2 n=c#6 v=0
12449 On ch=2 n=d#5 v=0
12450 On ch=2 n=f5 v=116
12479 On ch=2 n=f5 v=0
12480 On ch=2 n=a#4 v=116
12495 On ch=2 n=f5 v=116
12509 On ch=2 n=f5 v=0
12510 On ch=2 n=a#5 v=116
12524 On ch=2 n=a#5 v=0
12525 On ch=2 n=c#6 v=116
12539 On ch=2 n=c#6 v=0
12569 On ch=2 n=a#4 v=0
12570 On ch=2 n=d#5 v=116
12599 On ch=2 n=d#5 v=0
12600 On ch=2 n=f5 v=116
12615 On ch=2 n=g#5 v=116
12629 On ch=2 n=g#5 v=0
12630 On ch=2 n=c#6 v=116
12644 On ch=2 n=c#6 v=0
12645 On ch=2 n=d#6 v=116
12659 On ch=2 n=d#6 v=0
12689 On ch=2 n=f5 v=0
12690 On ch=2 n=c#5 v=116
12719 On ch=2 n=c#5 v=0
12720 On ch=2 n=d#5 v=116
12735 On ch=2 n=g#5 v=116
12749 On ch=2 n=g#5 v=0
12750 On ch=2 n=c#6 v=116
12764 On ch=2 n=c#6 v=0
12765 On ch=2 n=d6 v=116
12779 On ch=2 n=d6 v=0
12809 On ch=2 n=d#5 v=0
12810 On ch=2 n=c5 v=116
12839 On ch=2 n=c5 v=0
12840 On ch=2 n=c#5 v=116
12855 On ch=2 n=f5 v=116
12869 On ch=2 n=f5 v=0
12870 On ch=2 n=g#5 v=116
12884 On ch=2 n=g#5 v=0
12885 On ch=2 n=c6 v=116
12899 On ch=2 n=c6 v=0
12929 On ch=2 n=c#5 v=0
12930 On ch=2 n=d#5 v=116
12959 On ch=2 n=d#5 v=0
12960 On ch=2 n=g#4 v=116
12975 On ch=2 n=d#5 v=116
12989 On ch=2 n=d#5 v=0
12990 On ch=2 n=g#5 v=116
13004 On ch=2 n=g#5 v=0
13005 On ch=2 n=c6 v=116
13019 On ch=2 n=c6 v=0
13049 On ch=2 n=g#4 v=0
13050 On ch=2 n=c5 v=116
13079 On ch=2 n=c5 v=0
13080 On ch=2 n=c#5 v=116
13095 On ch=2 n=f#5 v=116
13109 On ch=2 n=f#5 v=0
13110 On ch=2 n=a#5 v=116
13124 On ch=2 n=a#5 v=0
13125 On ch=2 n=b5 v=116
13139 On ch=2 n=b5 v=0
13169 On ch=2 n=c#5 v=0
13170 On ch=2 n=a#4 v=116
13199 On ch=2 n=a#4 v=0
13200 On ch=2 n=c5 v=116
13215 On ch=2 n=f5 v=116
13229 On ch=2 n=f5 v=0
13230 On ch=2 n=g#5 v=116
13244 On ch=2 n=g#5 v=0
13245 On ch=2 n=a#5 v=116
13259 On ch=2 n=a#5 v=0
13289 On ch=2 n=c5 v=0
13290 On ch=2 n=g#4 v=116
13319 On ch=2 n=g#4 v=0
13320 On ch=2 n=a#4 v=116
13335 On ch=2 n=d#5 v=116
13349 On ch=2 n=d#5 v=0
13350 On ch=2 n=f#5 v=116
13364 On ch=2 n=f#5 v=0
13365 On ch=2 n=g#5 v=116
13379 On ch=2 n=g#5 v=0
13409 On ch=2 n=a#4 v=0
13410 On ch=2 n=f#4 v=116
13439 On ch=2 n=f#4 v=0
13440 On ch=2 n=g#4 v=116
13455 On ch=2 n=c#5 v=116
13469 On ch=2 n=c#5 v=0
13470 On ch=2 n=f5 v=116
13484 On ch=2 n=f5 v=0
13485 On ch=2 n=f#5 v=116
13499 On ch=2 n=f#5 v=0
13529 On ch=2 n=g#4 v=0
13530 On ch=2 n=f#4 v=116
13559 On ch=2 n=f#4 v=0
13560 On ch=2 n=g4 v=116
13575 On ch=2 n=c5 v=116
13589 On ch=2 n=c5 v=0
13590 On ch=2 n=e5 v=116
13604 On ch=2 n=e5 v=0
13605 On ch=2 n=f5 v=116
13619 On ch=2 n=f5 v=0
13649 On ch=2 n=g4 v=0
13650 On ch=2 n=f4 v=116
13679 On ch=2 n=f4 v=0
13680 On ch=2 n=f#4 v=116
13695 On ch=2 n=b4 v=116
13709 On ch=2 n=b4 v=0
13710 On ch=2 n=d#5 v=116
13724 On ch=2 n=d#5 v=0
13725 On ch=2 n=f5 v=116
13739 On ch=2 n=f5 v=0
13769 On ch=2 n=f#4 v=0
13770 On ch=2 n=c#4 v=116
13799 On ch=2 n=c#4 v=0
13800 On ch=2 n=d4 v=116
13815 On ch=2 n=a4 v=116
13829 On ch=2 n=a4 v=0
13830 On ch=2 n=c5 v=116
13844 On ch=2 n=c5 v=0
13845 On ch=2 n=f5 v=116
13859 On ch=2 n=f5 v=0
13889 On ch=2 n=d4 v=0
13890 On ch=2 n=f3 v=116
13919 On ch=2 n=f3 v=0
13920 On ch=2 n=f3 v=116
13920 On ch=2 n=d#4 v=116
13939 On ch=2 n=d#4 v=0
13939 On ch=2 n=f3 v=0
13940 On ch=2 n=a4 v=116
13959 On ch=2 n=a4 v=0
13960 On ch=2 n=c5 v=116
13979 On ch=2 n=c5 v=0
13980 On ch=2 n=d#5 v=116
13999 On ch=2 n=d#5 v=0
14000 On ch=2 n=a5 v=116
14019 On ch=2 n=a5 v=0
14020 On ch=2 n=a#5 v=116
14039 On ch=2 n=a#5 v=0
14040 On ch=2 n=b5 v=116
14099 On ch=2 n=b5 v=0
14100 On ch=2 n=a5 v=116
14119 On ch=2 n=a5 v=0
14120 On ch=2 n=d#5 v=116
14139 On ch=2 n=d#5 v=0
14140 On ch=2 n=c5 v=116
14159 On ch=2 n=c5 v=0
14220 On ch=2 n=g5 v=116
14239 On ch=2 n=g5 v=0
14240 On ch=2 n=c#5 v=116
14259 On ch=2 n=c#5 v=0
14260 On ch=2 n=a#4 v=116
14279 On ch=2 n=a#4 v=0
14340 On ch=2 n=f#5 v=116
14359 On ch=2 n=f#5 v=0
14360 On ch=2 n=c5 v=116
14379 On ch=2 n=c5 v=0
14380 On ch=2 n=a4 v=116
14399 On ch=2 n=a4 v=0
14460 On ch=2 n=b4 v=116
14479 On ch=2 n=b4 v=0
14480 On ch=2 n=d#4 v=116
14499 On ch=2 n=d#4 v=0
14500 On ch=2 n=f3 v=116
14519 On ch=2 n=f3 v=0
14580 On ch=2 n=a#4 v=116
14599 On ch=2 n=a#4 v=0
14600 On ch=2 n=d#4 v=116
14619 On ch=2 n=d#4 v=0
14620 On ch=2 n=f3 v=116
14639 On ch=2 n=f3 v=0
14700 On ch=2 n=a4 v=116
14719 On ch=2 n=a4 v=0
14720 On ch=2 n=d#4 v=116
14739 On ch=2 n=d#4 v=0
14740 On ch=2 n=f3 v=116
14759 On ch=2 n=f3 v=0
14760 On ch=2 n=f2 v=116
14775 On ch=2 n=d#4 v=116
14779 On ch=2 n=f2 v=0
14790 On ch=2 n=f#4 v=116
14794 On ch=2 n=d#4 v=0
14805 On ch=2 n=g#4 v=116
14809 On ch=2 n=f#4 v=0
14824 On ch=2 n=g#4 v=0
15480 On ch=2 n=f5 v=116
15759 On ch=2 n=f5 v=0
15760 On ch=2 n=e5 v=116
15799 On ch=2 n=e5 v=0
15800 On ch=2 n=d#5 v=116
15839 On ch=2 n=d#5 v=0
15840 On ch=2 n=g#5 v=116
15840 On ch=2 n=f5 v=116
15840 On ch=2 n=c#5 v=116
15929 On ch=2 n=c#5 v=0
15929 On ch=2 n=f5 v=0
15929 On ch=2 n=g#5 v=0
15930 On ch=2 n=c5 v=116
15930 On ch=2 n=e5 v=116
15959 On ch=2 n=e5 v=0
15959 On ch=2 n=c5 v=0
15960 On ch=2 n=a#4 v=116
15960 On ch=2 n=d#5 v=116
15960 On ch=2 n=f#5 v=116
16019 On ch=2 n=f#5 v=0
16019 On ch=2 n=d#5 v=0
16019 On ch=2 n=a#4 v=0
16020 On ch=2 n=c#5 v=116
16020 On ch=2 n=f5 v=116
16020 On ch=2 n=g#5 v=116
16289 On ch=2 n=g#5 v=0
16289 On ch=2 n=f5 v=0
16289 On ch=2 n=c#5 v=0
16290 On ch=2 n=c5 v=116
16319 On ch=2 n=c5 v=0
16320 On ch=2 n=a#4 v=116
16320 On ch=2 n=c#5 v=116
16320 On ch=2 n=f5 v=116
16379 On ch=2 n=f5 v=0
16379 On ch=2 n=c#5 v=0
16379 On ch=2 n=a#4 v=0
16380 On ch=2 n=c#5 v=116
16380 On ch=2 n=f5 v=116
16380 On ch=2 n=g#5 v=116
16439 On ch=2 n=g#5 v=0
16439 On ch=2 n=f5 v=0
16439 On ch=2 n=c#5 v=0
16440 On ch=2 n=c5 v=116
16469 On ch=2 n=c5 v=0
16470 On ch=2 n=a#4 v=116
16499 On ch=2 n=a#4 v=0
16500 On ch=2 n=g#4 v=116
16500 On ch=2 n=c5 v=116
16500 On ch=2 n=f5 v=116
16559 On ch=2 n=f5 v=0
16559 On ch=2 n=c5 v=0
16559 On ch=2 n=g#4 v=0
16560 On ch=2 n=g#5 v=116
16560 On ch=2 n=f5 v=116
16560 On ch=2 n=c#5 v=116
16649 On ch=2 n=c#5 v=0
16649 On ch=2 n=f5 v=0
16649 On ch=2 n=g#5 v=0
16650 On ch=2 n=a#5 v=116
16650 On ch=2 n=f#5 v=116
16650 On ch=2 n=c5 v=116
16679 On ch=2 n=c5 v=0
16679 On ch=2 n=f#5 v=0
16679 On ch=2 n=a#5 v=0
16680 On ch=2 n=c5 v=116
16680 On ch=2 n=f5 v=116
16680 On ch=2 n=g#5 v=116
16739 On ch=2 n=g#5 v=0
16739 On ch=2 n=f5 v=0
16739 On ch=2 n=c5 v=0
16740 On ch=2 n=c5 v=116
16740 On ch=2 n=f5 v=116
16740 On ch=2 n=g#5 v=116
17039 On ch=2 n=g#5 v=0
17039 On ch=2 n=f5 v=0
17039 On ch=2 n=c5 v=0
17310 On ch=2 n=g#5 v=116
17339 On ch=2 n=g#5 v=0
17340 On ch=2 n=g5 v=116
17369 On ch=2 n=g5 v=0
17370 On ch=2 n=f#5 v=116
17399 On ch=2 n=f#5 v=0
17400 On ch=2 n=f5 v=116
17429 On ch=2 n=f5 v=0
17430 On ch=2 n=g#4 v=116
17489 On ch=2 n=g#4 v=0
17490 On ch=2 n=g4 v=116
17519 On ch=2 n=g4 v=0
17520 On ch=2 n=f#4 v=116
17549 On ch=2 n=f#4 v=0
17550 On ch=2 n=f4 v=116
17579 On ch=2 n=f4 v=0
17580 On ch=2 n=g#3 v=116
17609 On ch=2 n=g#3 v=0
17610 On ch=2 n=c#3 v=116
17669 On ch=2 n=c#3 v=0
17670 On ch=2 n=g#3 v=116
17699 On ch=2 n=g#3 v=0
17700 On ch=2 n=f4 v=116
17729 On ch=2 n=f4 v=0
17730 On ch=2 n=f#4 v=116
17759 On ch=2 n=f#4 v=0
17760 On ch=2 n=g4 v=116
17789 On ch=2 n=g4 v=0
17790 On ch=2 n=g#4 v=116
17819 On ch=2 n=g#4 v=0
17820 On ch=2 n=f5 v=116
17849 On ch=2 n=f5 v=0
17850 On ch=2 n=f#5 v=116
17879 On ch=2 n=f#5 v=0
17880 On ch=2 n=g5 v=116
17909 On ch=2 n=g5 v=0
17910 On ch=2 n=f5 v=116
17939 On ch=2 n=f5 v=0
17940 On ch=2 n=f#5 v=116
17940 On ch=2 n=d#5 v=116
17969 On ch=2 n=d#5 v=0
17969 On ch=2 n=f#5 v=0
17970 On ch=2 n=g#4 v=116
17999 On ch=2 n=g#4 v=0
18000 On ch=2 n=f5 v=116
18000 On ch=2 n=c#5 v=116
18299 On ch=2 n=c#5 v=0
18299 On ch=2 n=f5 v=0
18540 On ch=2 n=f#4 v=116
18540 On ch=2 n=a#4 v=116
18659 On ch=2 n=f#4 v=0
18660 On ch=2 n=g4 v=116
18719 On ch=2 n=g4 v=0
18719 On ch=2 n=a#4 v=0
18720 On ch=2 n=g#3 v=116
18720 On ch=2 n=d#4 v=116
18720 On ch=2 n=f#4 v=116
19019 On ch=2 n=f#4 v=0
19019 On ch=2 n=d#4 v=0
19019 On ch=2 n=g#3 v=0
19020 On ch=2 n=g4 v=116
19020 On ch=2 n=a#4 v=116
19079 On ch=2 n=a#4 v=0
19079 On ch=2 n=g4 v=0
19080 On ch=2 n=g#3 v=116
19080 On ch=2 n=d#4 v=116
19080 On ch=2 n=f#4 v=116
19199 On ch=2 n=f#4 v=0
19199 On ch=2 n=d#4 v=0
19199 On ch=2 n=g#3 v=0
19200 On ch=2 n=f4 v=116
19200 On ch=2 n=g#4 v=116
19259 On ch=2 n=g#4 v=0
19259 On ch=2 n=f4 v=0
19260 On ch=2 n=g#3 v=116
19260 On ch=2 n=d#4 v=116
19260 On ch=2 n=f#4 v=116
19379 On ch=2 n=f#4 v=0
19379 On ch=2 n=d#4 v=0
19379 On ch=2 n=g#3 v=0
19380 On ch=2 n=e4 v=116
19380 On ch=2 n=g4 v=116
19439 On ch=2 n=g4 v=0
19439 On ch=2 n=e4 v=0
19440 On ch=2 n=g#3 v=116
19440 On ch=2 n=d#4 v=116
19440 On ch=2 n=f#4 v=116
19679 On ch=2 n=f#4 v=0
19679 On ch=2 n=d#4 v=0
19679 On ch=2 n=g#3 v=0
19980 On ch=2 n=g#5 v=116
19980 On ch=2 n=f5 v=116
19980 On ch=2 n=c#5 v=116
20069 On ch=2 n=c#5 v=0
20069 On ch=2 n=f5 v=0
20069 On ch=2 n=g#5 v=0
20070 On ch=2 n=e5 v=116
20070 On ch=2 n=c5 v=116
20099 On ch=2 n=c5 v=0
20099 On ch=2 n=e5 v=0
20100 On ch=2 n=f#5 v=116
20100 On ch=2 n=d#5 v=116
20100 On ch=2 n=g#4 v=116
20159 On ch=2 n=g#4 v=0
20159 On ch=2 n=d#5 v=0
20159 On ch=2 n=f#5 v=0
20160 On ch=2 n=c#5 v=116
20160 On ch=2 n=f5 v=116
20160 On ch=2 n=g#5 v=116
20429 On ch=2 n=g#5 v=0
20429 On ch=2 n=f5 v=0
20429 On ch=2 n=c#5 v=0
20430 On ch=2 n=c5 v=116
20459 On ch=2 n=c5 v=0
20460 On ch=2 n=a#4 v=116
20460 On ch=2 n=c#5 v=116
20460 On ch=2 n=f5 v=116
20519 On ch=2 n=f5 v=0
20519 On ch=2 n=c#5 v=0
20519 On ch=2 n=a#4 v=0
20520 On ch=2 n=g#5 v=116
20520 On ch=2 n=f5 v=116
20520 On ch=2 n=c#5 v=116
20579 On ch=2 n=c#5 v=0
20579 On ch=2 n=f5 v=0
20579 On ch=2 n=g#5 v=0
20580 On ch=2 n=c5 v=116
20609 On ch=2 n=c5 v=0
20610 On ch=2 n=a#4 v=116
20639 On ch=2 n=a#4 v=0
20640 On ch=2 n=f5 v=116
20640 On ch=2 n=g#4 v=116
20640 On ch=2 n=c5 v=116
20699 On ch=2 n=c5 v=0
20699 On ch=2 n=g#4 v=0
20699 On ch=2 n=f5 v=0
20700 On ch=2 n=c#5 v=116
20700 On ch=2 n=f5 v=116
20700 On ch=2 n=g#5 v=116
20789 On ch=2 n=g#5 v=0
20789 On ch=2 n=f5 v=0
20789 On ch=2 n=c#5 v=0
20790 On ch=2 n=a#5 v=116
20790 On ch=2 n=f#5 v=116
20790 On ch=2 n=c5 v=116
20819 On ch=2 n=c5 v=0
20819 On ch=2 n=f#5 v=0
20819 On ch=2 n=a#5 v=0
20820 On ch=2 n=c#5 v=116
20820 On ch=2 n=f5 v=116
20820 On ch=2 n=g#5 v=116
21119 On ch=2 n=g#5 v=0
21119 On ch=2 n=f5 v=0
21119 On ch=2 n=c#5 v=0
21510 On ch=2 n=g#3 v=116
21510 On ch=2 n=c#3 v=116
21539 On ch=2 n=c#3 v=0
21539 On ch=2 n=g#3 v=0
21540 On ch=2 n=g#4 v=116
21559 On ch=2 n=g#4 v=0
21560 On ch=2 n=d#5 v=116
21579 On ch=2 n=d#5 v=0
21580 On ch=2 n=e5 v=116
21599 On ch=2 n=e5 v=0
21600 On ch=2 n=f5 v=116
21600 On ch=2 n=c#5 v=116
21689 On ch=2 n=c#5 v=0
21689 On ch=2 n=f5 v=0
21690 On ch=2 n=c#3 v=116
21690 On ch=2 n=g#3 v=116
21719 On ch=2 n=g#3 v=0
21719 On ch=2 n=c#3 v=0
21720 On ch=2 n=g4 v=116
21739 On ch=2 n=g4 v=0
21740 On ch=2 n=c#5 v=116
21759 On ch=2 n=c#5 v=0
21760 On ch=2 n=d#5 v=116
21779 On ch=2 n=d#5 v=0
21780 On ch=2 n=f5 v=116
21780 On ch=2 n=c5 v=116
21869 On ch=2 n=c5 v=0
21869 On ch=2 n=f5 v=0
21870 On ch=2 n=c#3 v=116
21870 On ch=2 n=g#3 v=116
21899 On ch=2 n=g#3 v=0
21899 On ch=2 n=c#3 v=0
21900 On ch=2 n=f#4 v=116
21919 On ch=2 n=f#4 v=0
21930 On ch=2 n=c5 v=116
21940 On ch=2 n=d#5 v=116
21949 On ch=2 n=c5 v=0
21959 On ch=2 n=d#5 v=0
21960 On ch=2 n=a#4 v=116
21960 On ch=2 n=c#5 v=116
21960 On ch=2 n=f5 v=116
22049 On ch=2 n=f5 v=0
22049 On ch=2 n=c#5 v=0
22049 On ch=2 n=a#4 v=0
22050 On ch=2 n=c#3 v=116
22060 On ch=2 n=g#3 v=116
22079 On ch=2 n=c#3 v=0
22080 On ch=2 n=f4 v=116
22089 On ch=2 n=g#3 v=0
22099 On ch=2 n=f4 v=0
22100 On ch=2 n=a#4 v=116
22119 On ch=2 n=a#4 v=0
22120 On ch=2 n=d#5 v=116
22139 On ch=2 n=d#5 v=0
22140 On ch=2 n=a#4 v=116
22140 On ch=2 n=c#5 v=116
22140 On ch=2 n=f5 v=116
22439 On ch=2 n=f5 v=0
22439 On ch=2 n=c#5 v=0
22439 On ch=2 n=a#4 v=0
22680 On ch=2 n=f#4 v=116
22680 On ch=2 n=a#4 v=116
22799 On ch=2 n=a#4 v=0
22800 On ch=2 n=a4 v=116
22859 On ch=2 n=a4 v=0
22859 On ch=2 n=f#4 v=0
22860 On ch=2 n=g#4 v=116
22860 On ch=2 n=c#4 v=116
23219 On ch=2 n=g#4 v=0
23220 On ch=2 n=f#4 v=116
23339 On ch=2 n=c#4 v=0
23340 On ch=2 n=f4 v=116
23399 On ch=2 n=f4 v=0
23400 On ch=2 n=d#4 v=116
23579 On ch=2 n=d#4 v=0
23579 On ch=2 n=f#4 v=0
23580 On ch=2 n=f4 v=116
23580 On ch=2 n=a#3 v=116
23759 On ch=2 n=a#3 v=0
23759 On ch=2 n=f4 v=0
23760 On ch=2 n=a5 v=116
23760 On ch=2 n=d#5 v=116
23760 On ch=2 n=c5 v=116
23939 On ch=2 n=c5 v=0
23939 On ch=2 n=d#5 v=0
23939 On ch=2 n=a5 v=0
23940 On ch=2 n=f4 v=116
23940 On ch=2 n=a#3 v=116
24239 On ch=2 n=a#3 v=0
24239 On ch=2 n=f4 v=0
24270 On ch=2 n=a#4 v=116
24299 On ch=2 n=a#4 v=0
24300 On ch=2 n=c#4 v=116
24329 On ch=2 n=c#4 v=0
24330 On ch=2 n=f#3 v=116
24359 On ch=2 n=f#3 v=0
24390 On ch=2 n=c#4 v=116
24419 On ch=2 n=c#4 v=0
24420 On ch=2 n=a#4 v=116
24449 On ch=2 n=a#4 v=0
24450 On ch=2 n=d#5 v=116
24479 On ch=2 n=d#5 v=0
24480 On ch=2 n=g#5 v=116
24569 On ch=2 n=g#5 v=0
24570 On ch=2 n=d#5 v=116
24599 On ch=2 n=d#5 v=0
24600 On ch=2 n=a#4 v=116
24629 On ch=2 n=a#4 v=0
24630 On ch=2 n=c#4 v=116
24659 On ch=2 n=c#4 v=0
24660 On ch=2 n=f#3 v=116
24749 On ch=2 n=f#3 v=0
24750 On ch=2 n=c#4 v=116
24779 On ch=2 n=c#4 v=0
24780 On ch=2 n=a#4 v=116
24809 On ch=2 n=a#4 v=0
24810 On ch=2 n=d#5 v=116
24839 On ch=2 n=d#5 v=0
24840 On ch=2 n=g#5 v=116
24929 On ch=2 n=g#5 v=0
24930 On ch=2 n=d#5 v=116
24959 On ch=2 n=d#5 v=0
24960 On ch=2 n=a#4 v=116
24989 On ch=2 n=a#4 v=0
24990 On ch=2 n=c#4 v=116
25019 On ch=2 n=c#4 v=0
25020 On ch=2 n=f#3 v=116
25109 On ch=2 n=f#3 v=0
25110 On ch=2 n=c#4 v=116
25139 On ch=2 n=c#4 v=0
25140 On ch=2 n=a#4 v=116
25229 On ch=2 n=a#4 v=0
25230 On ch=2 n=d#5 v=116
25259 On ch=2 n=d#5 v=0
25260 On ch=2 n=a#5 v=116
25349 On ch=2 n=a#5 v=0
25350 On ch=2 n=d#5 v=116
25379 On ch=2 n=d#5 v=0
25380 On ch=2 n=a#4 v=116
25499 On ch=2 n=a#4 v=0
25620 On ch=2 n=d#5 v=116
25649 On ch=2 n=d#5 v=0
25650 On ch=2 n=a#4 v=116
25679 On ch=2 n=a#4 v=0
25680 On ch=2 n=c#4 v=116
25829 On ch=2 n=c#4 v=0
25830 On ch=2 n=f#3 v=116
25859 On ch=2 n=f#3 v=0
25860 On ch=2 n=c#4 v=116
25889 On ch=2 n=c#4 v=0
25890 On ch=2 n=a#4 v=116
25919 On ch=2 n=a#4 v=0
25920 On ch=2 n=g#5 v=116
26009 On ch=2 n=g#5 v=0
26010 On ch=2 n=d#5 v=116
26039 On ch=2 n=d#5 v=0
26040 On ch=2 n=a#4 v=116
26069 On ch=2 n=a#4 v=0
26070 On ch=2 n=c#4 v=116
26099 On ch=2 n=c#4 v=0
26100 On ch=2 n=f#3 v=116
26189 On ch=2 n=f#3 v=0
26190 On ch=2 n=c#4 v=116
26219 On ch=2 n=c#4 v=0
26220 On ch=2 n=a#4 v=116
26339 On ch=2 n=a#4 v=0
26340 On ch=2 n=a4 v=116
26369 On ch=2 n=a4 v=0
26370 On ch=2 n=c#4 v=116
26399 On ch=2 n=c#4 v=0
26400 On ch=2 n=f#3 v=116
26459 On ch=2 n=f#3 v=0
26460 On ch=2 n=c#3 v=116
26460 On ch=2 n=g#3 v=116
26460 On ch=2 n=c#4 v=116
26520 On ch=2 n=f5 v=116
26520 On ch=2 n=c#5 v=116
26520 On ch=2 n=g#4 v=116
26639 On ch=2 n=g#4 v=0
26639 On ch=2 n=f5 v=0
26639 On ch=2 n=c#5 v=0
26640 On ch=2 n=d#5 v=116
26640 On ch=2 n=c5 v=116
26640 On ch=2 n=f#4 v=116
26759 On ch=2 n=f#4 v=0
26759 On ch=2 n=d#5 v=0
26759 On ch=2 n=c5 v=0
26760 On ch=2 n=f5 v=116
26760 On ch=2 n=d5 v=116
26760 On ch=2 n=b4 v=116
26760 On ch=2 n=f4 v=116
26819 On ch=2 n=f4 v=0
26819 On ch=2 n=d5 v=0
26819 On ch=2 n=c#3 v=0
26819 On ch=2 n=g#3 v=0
26819 On ch=2 n=c#4 v=0
26819 On ch=2 n=b4 v=0
26819 On ch=2 n=f5 v=0
26820 On ch=2 n=c3 v=116
26820 On ch=2 n=f3 v=116
26820 On ch=2 n=a3 v=116
26820 On ch=2 n=c4 v=116
26880 On ch=2 n=f4 v=116
26880 On ch=2 n=a4 v=116
26880 On ch=2 n=c5 v=116
26999 On ch=2 n=c5 v=0
26999 On ch=2 n=f4 v=0
26999 On ch=2 n=a4 v=0
27000 On ch=2 n=e4 v=116
27000 On ch=2 n=g#4 v=116
27000 On ch=2 n=c5 v=116
27119 On ch=2 n=c5 v=0
27119 On ch=2 n=e4 v=0
27119 On ch=2 n=g#4 v=0
27120 On ch=2 n=e4 v=116
27120 On ch=2 n=d#4 v=116
27120 On ch=2 n=a4 v=116
27120 On ch=2 n=c5 v=116
27179 On ch=2 n=c5 v=0
27179 On ch=2 n=c3 v=0
27179 On ch=2 n=e4 v=0
27179 On ch=2 n=f3 v=0
27179 On ch=2 n=a3 v=0
27179 On ch=2 n=c4 v=0
27179 On ch=2 n=d#4 v=0
27179 On ch=2 n=a4 v=0
27180 On ch=2 n=g#3 v=116
27180 On ch=2 n=c#4 v=116
27180 On ch=2 n=c#3 v=116
27240 On ch=2 n=f4 v=116
27240 On ch=2 n=g#4 v=116
27359 On ch=2 n=g#4 v=0
27359 On ch=2 n=f4 v=0
27360 On ch=2 n=d#4 v=116
27360 On ch=2 n=f#4 v=116
27479 On ch=2 n=f#4 v=0
27479 On ch=2 n=d#4 v=0
27480 On ch=2 n=d4 v=116
27480 On ch=2 n=f4 v=116
27539 On ch=2 n=f4 v=0
27539 On ch=2 n=c#3 v=0
27539 On ch=2 n=g#3 v=0
27539 On ch=2 n=c#4 v=0
27539 On ch=2 n=d4 v=0
27540 On ch=2 n=c5 v=116
27540 On ch=2 n=a4 v=116
27540 On ch=2 n=f4 v=116
27540 On ch=2 n=c4 v=116
27600 On ch=2 n=f3 v=116
27600 On ch=2 n=c4 v=116
27600 On ch=2 n=f4 v=116
27719 On ch=2 n=f4 v=0
27719 On ch=2 n=f3 v=0
27719 On ch=2 n=c4 v=0
27720 On ch=2 n=e3 v=116
27720 On ch=2 n=c4 v=116
27720 On ch=2 n=e4 v=116
27839 On ch=2 n=e4 v=0
27839 On ch=2 n=e3 v=0
27839 On ch=2 n=c4 v=0
27840 On ch=2 n=d#3 v=116
27840 On ch=2 n=c4 v=116
27840 On ch=2 n=d#4 v=116
27899 On ch=2 n=d#4 v=0
27899 On ch=2 n=d#3 v=0
27899 On ch=2 n=a4 v=0
27899 On ch=2 n=f4 v=0
27899 On ch=2 n=c5 v=0
27899 On ch=2 n=c4 v=0
27899 On ch=2 n=c4 v=0
27900 On ch=2 n=c#2 v=116
27900 On ch=2 n=c#3 v=116
28019 On ch=2 n=c#3 v=0
28019 On ch=2 n=c#2 v=0
28020 On ch=2 n=c4 v=116
28079 On ch=2 n=c4 v=0
28080 On ch=2 n=c#3 v=116
28199 On ch=2 n=c#3 v=0
28200 On ch=2 n=c4 v=116
28259 On ch=2 n=c4 v=0
28260 On ch=2 n=c#3 v=116
28379 On ch=2 n=c#3 v=0
28380 On ch=2 n=b3 v=116
28439 On ch=2 n=b3 v=0
28440 On ch=2 n=c#3 v=116
28559 On ch=2 n=c#3 v=0
28560 On ch=2 n=b3 v=116
28619 On ch=2 n=b3 v=0
28620 On ch=2 n=c#3 v=116
28739 On ch=2 n=c#3 v=0
28740 On ch=2 n=a#3 v=116
28799 On ch=2 n=a#3 v=0
28800 On ch=2 n=c#3 v=116
28919 On ch=2 n=c#3 v=0
28920 On ch=2 n=a#3 v=116
28979 On ch=2 n=a#3 v=0
28980 On ch=2 n=c#3 v=116
29099 On ch=2 n=c#3 v=0
29100 On ch=2 n=a3 v=116
29159 On ch=2 n=a3 v=0
29160 On ch=2 n=c#3 v=116
29279 On ch=2 n=c#3 v=0
29280 On ch=2 n=a3 v=116
29339 On ch=2 n=a3 v=0
29340 On ch=2 n=a5 v=116
29399 On ch=2 n=a5 v=0
29400 On ch=2 n=g#5 v=116
29459 On ch=2 n=g#5 v=0
29520 On ch=2 n=f5 v=116
29520 On ch=2 n=a4 v=116
29520 On ch=2 n=c4 v=116
29639 On ch=2 n=c4 v=0
29639 On ch=2 n=a4 v=0
29639 On ch=2 n=f5 v=0
29640 On ch=2 n=c5 v=116
29699 On ch=2 n=c5 v=0
29700 On ch=2 n=a4 v=116
29760 On ch=2 n=d3 v=116
29819 On ch=2 n=d3 v=0
29820 On ch=2 n=a3 v=116
29879 On ch=2 n=a3 v=0
29880 On ch=2 n=d4 v=116
29939 On ch=2 n=d4 v=0
29940 On ch=2 n=a3 v=116
30000 On ch=2 n=a4 v=116
30059 On ch=2 n=a4 v=0
30059 On ch=2 n=a4 v=0
30060 On ch=2 n=g#4 v=116
30179 On ch=2 n=g#4 v=0
30180 On ch=2 n=g4 v=116
30239 On ch=2 n=g4 v=0
30239 On ch=2 n=a3 v=0
30240 On ch=2 n=d3 v=116
30359 On ch=2 n=d3 v=0
30360 On ch=2 n=c#4 v=116
30419 On ch=2 n=c#4 v=0
30420 On ch=2 n=d3 v=116
30539 On ch=2 n=d3 v=0
30540 On ch=2 n=c#4 v=116
30599 On ch=2 n=c#4 v=0
30600 On ch=2 n=d3 v=116
30719 On ch=2 n=d3 v=0
30720 On ch=2 n=c4 v=116
30779 On ch=2 n=c4 v=0
30780 On ch=2 n=d3 v=116
30899 On ch=2 n=d3 v=0
30900 On ch=2 n=c4 v=116
30959 On ch=2 n=c4 v=0
30960 On ch=2 n=d3 v=116
31079 On ch=2 n=d3 v=0
31080 On ch=2 n=b3 v=116
31139 On ch=2 n=b3 v=0
31140 On ch=2 n=d3 v=116
31259 On ch=2 n=d3 v=0
31260 On ch=2 n=b3 v=116
31319 On ch=2 n=b3 v=0
31320 On ch=2 n=b5 v=116
31379 On ch=2 n=b5 v=0
31380 On ch=2 n=a#5 v=116
31439 On ch=2 n=a#5 v=0
31500 On ch=2 n=g#5 v=116
31500 On ch=2 n=d#5 v=116
31500 On ch=2 n=b4 v=116
31500 On ch=2 n=d#4 v=116
31619 On ch=2 n=d#4 v=0
31619 On ch=2 n=g#5 v=0
31619 On ch=2 n=d#5 v=0
31619 On ch=2 n=b4 v=0
31620 On ch=2 n=d#5 v=116
31679 On ch=2 n=d#5 v=0
31680 On ch=2 n=b4 v=116
31740 On ch=2 n=d#3 v=116
31799 On ch=2 n=d#3 v=0
31799 On ch=2 n=b4 v=0
31800 On ch=2 n=b3 v=116
31859 On ch=2 n=b3 v=0
31860 On ch=2 n=d#4 v=116
31919 On ch=2 n=d#4 v=0
31920 On ch=2 n=g#4 v=116
31979 On ch=2 n=g#4 v=0
31980 On ch=2 n=b5 v=116
32040 On ch=2 n=a4 v=116
32099 On ch=2 n=b5 v=0
32100 On ch=2 n=a#5 v=116
32159 On ch=2 n=a#5 v=0
32159 On ch=2 n=a4 v=0
32160 On ch=2 n=a#4 v=116
32160 On ch=2 n=a5 v=116
32219 On ch=2 n=a5 v=0
32219 On ch=2 n=a#4 v=0
32220 On ch=2 n=e4 v=116
32220 On ch=2 n=e3 v=116
32339 On ch=2 n=e3 v=0
32339 On ch=2 n=e4 v=0
32400 On ch=2 n=b4 v=116
32460 On ch=2 n=e2 v=116
32519 On ch=2 n=e2 v=0
32520 On ch=2 n=e3 v=116
32579 On ch=2 n=e3 v=0
32580 On ch=2 n=b3 v=116
32639 On ch=2 n=b3 v=0
32640 On ch=2 n=e4 v=116
32699 On ch=2 n=e4 v=0
32820 On ch=2 n=b3 v=116
32879 On ch=2 n=b3 v=0
32880 On ch=2 n=e4 v=116
32939 On ch=2 n=e4 v=0
32939 On ch=2 n=b4 v=0
32940 On ch=2 n=e4 v=116
33000 On ch=2 n=a#4 v=116
33059 On ch=2 n=a#4 v=0
33060 On ch=2 n=b4 v=116
33119 On ch=2 n=e4 v=0
33120 On ch=2 n=c#5 v=116
33179 On ch=2 n=c#5 v=0
33180 On ch=2 n=d5 v=116
33239 On ch=2 n=d5 v=0
33240 On ch=2 n=d#5 v=116
33299 On ch=2 n=d#5 v=0
33299 On ch=2 n=b4 v=0
33300 On ch=2 n=e5 v=116
33300 On ch=2 n=c5 v=116
33389 On ch=2 n=c5 v=0
33389 On ch=2 n=e5 v=0
33390 On ch=2 n=b4 v=116
33390 On ch=2 n=d#5 v=116
33419 On ch=2 n=d#5 v=0
33419 On ch=2 n=b4 v=0
33420 On ch=2 n=d5 v=116
33420 On ch=2 n=a4 v=116
33479 On ch=2 n=a4 v=0
33479 On ch=2 n=d5 v=0
33480 On ch=2 n=e5 v=116
33480 On ch=2 n=c5 v=116
33540 On ch=2 n=c3 v=116
33599 On ch=2 n=c3 v=0
33600 On ch=2 n=g3 v=116
33659 On ch=2 n=g3 v=0
33660 On ch=2 n=e4 v=116
33719 On ch=2 n=e4 v=0
33720 On ch=2 n=g3 v=116
33779 On ch=2 n=g3 v=0
33780 On ch=2 n=e4 v=116
33899 On ch=2 n=e4 v=0
33900 On ch=2 n=b4 v=116
33959 On ch=2 n=b4 v=0
33960 On ch=2 n=a#4 v=116
34019 On ch=2 n=a#4 v=0
34019 On ch=2 n=c5 v=0
34019 On ch=2 n=e5 v=0
34020 On ch=2 n=c4 v=116
34020 On ch=2 n=e4 v=116
34109 On ch=2 n=e4 v=0
34109 On ch=2 n=c4 v=0
34110 On ch=2 n=b3 v=116
34110 On ch=2 n=f#4 v=116
34139 On ch=2 n=f#4 v=0
34139 On ch=2 n=b3 v=0
34140 On ch=2 n=a3 v=116
34140 On ch=2 n=f4 v=116
34199 On ch=2 n=f4 v=0
34199 On ch=2 n=a3 v=0
34200 On ch=2 n=c4 v=116
34200 On ch=2 n=e4 v=116
34260 On ch=2 n=c3 v=116
34319 On ch=2 n=c3 v=0
34320 On ch=2 n=g3 v=116
34379 On ch=2 n=g3 v=0
34379 On ch=2 n=e4 v=0
34379 On ch=2 n=c4 v=0
34380 On ch=2 n=b3 v=116
34439 On ch=2 n=b3 v=0
34440 On ch=2 n=a#3 v=116
34499 On ch=2 n=a#3 v=0
34500 On ch=2 n=b3 v=116
34500 On ch=2 n=g3 v=116
34559 On ch=2 n=g3 v=0
34560 On ch=2 n=f#3 v=116
34619 On ch=2 n=f#3 v=0
34619 On ch=2 n=b3 v=0
34620 On ch=2 n=a#3 v=116
34620 On ch=2 n=d#3 v=116
34679 On ch=2 n=d#3 v=0
34680 On ch=2 n=e3 v=116
34739 On ch=2 n=e3 v=0
34739 On ch=2 n=a#3 v=0
34740 On ch=2 n=f#2 v=116
34799 On ch=2 n=f#2 v=0
34800 On ch=2 n=f#3 v=116
34829 On ch=2 n=f#3 v=0
34830 On ch=2 n=e4 v=116
34859 On ch=2 n=e4 v=0
34860 On ch=2 n=a#4 v=116
34889 On ch=2 n=a#4 v=0
34890 On ch=2 n=b4 v=116
34919 On ch=2 n=b4 v=0
34920 On ch=2 n=c5 v=116
34949 On ch=2 n=c5 v=0
34950 On ch=2 n=c#5 v=116
34979 On ch=2 n=c#5 v=0
34980 On ch=2 n=a#4 v=116
35009 On ch=2 n=a#4 v=0
35010 On ch=2 n=e5 v=116
35039 On ch=2 n=e5 v=0
35070 On ch=2 n=f#5 v=116
35099 On ch=2 n=f#5 v=0
35130 On ch=2 n=f#5 v=116
35159 On ch=2 n=f#5 v=0
35160 On ch=2 n=e5 v=116
35189 On ch=2 n=e5 v=0
35190 On ch=2 n=a#4 v=116
35219 On ch=2 n=a#4 v=0
35250 On ch=2 n=g4 v=116
35279 On ch=2 n=g4 v=0
35280 On ch=2 n=c#4 v=116
35309 On ch=2 n=c#4 v=0
35310 On ch=2 n=f#3 v=116
35339 On ch=2 n=f#3 v=0
35370 On ch=2 n=e4 v=116
35399 On ch=2 n=e4 v=0
35400 On ch=2 n=b4 v=116
35429 On ch=2 n=b4 v=0
35460 On ch=2 n=d#5 v=116
35489 On ch=2 n=d#5 v=0
35490 On ch=2 n=e5 v=116
35519 On ch=2 n=e5 v=0
35520 On ch=2 n=c#5 v=116
35549 On ch=2 n=c#5 v=0
35550 On ch=2 n=f#4 v=116
35579 On ch=2 n=f#4 v=0
35580 On ch=2 n=g5 v=116
35609 On ch=2 n=g5 v=0
35610 On ch=2 n=e5 v=116
35639 On ch=2 n=e5 v=0
35760 On ch=2 n=g5 v=116
35789 On ch=2 n=g5 v=0
35790 On ch=2 n=d#5 v=116
35819 On ch=2 n=d#5 v=0
35940 On ch=2 n=g5 v=116
35969 On ch=2 n=g5 v=0
35970 On ch=2 n=d5 v=116
35999 On ch=2 n=d5 v=0
36120 On ch=2 n=g5 v=116
36149 On ch=2 n=g5 v=0
36150 On ch=2 n=c#5 v=116
36179 On ch=2 n=c#5 v=0
36210 On ch=2 n=f#3 v=116
36239 On ch=2 n=f#3 v=0
36240 On ch=2 n=d4 v=116
36269 On ch=2 n=d4 v=0
36270 On ch=2 n=b4 v=116
36299 On ch=2 n=b4 v=0
36330 On ch=2 n=d4 v=116
36359 On ch=2 n=d4 v=0
36360 On ch=2 n=b4 v=116
36389 On ch=2 n=b4 v=0
36390 On ch=2 n=d5 v=116
36419 On ch=2 n=d5 v=0
36450 On ch=2 n=d5 v=116
36479 On ch=2 n=d5 v=0
36480 On ch=2 n=d4 v=116
36509 On ch=2 n=d4 v=0
36510 On ch=2 n=f#3 v=116
36569 On ch=2 n=f#3 v=0
36570 On ch=2 n=d4 v=116
36599 On ch=2 n=d4 v=0
36600 On ch=2 n=a#4 v=116
36629 On ch=2 n=a#4 v=0
36630 On ch=2 n=d4 v=116
36659 On ch=2 n=d4 v=0
36660 On ch=2 n=f#3 v=116
36689 On ch=2 n=f#3 v=0
36690 On ch=2 n=d4 v=116
36719 On ch=2 n=d4 v=0
36720 On ch=2 n=a4 v=116
36749 On ch=2 n=a4 v=0
36750 On ch=2 n=d4 v=116
36779 On ch=2 n=d4 v=0
36780 On ch=2 n=f#3 v=116
36809 On ch=2 n=f#3 v=0
36810 On ch=2 n=d4 v=116
36839 On ch=2 n=d4 v=0
36840 On ch=2 n=g4 v=116
36869 On ch=2 n=g4 v=0
36870 On ch=2 n=d4 v=116
36899 On ch=2 n=d4 v=0
36900 On ch=2 n=g3 v=116
36919 On ch=2 n=g3 v=0
36920 On ch=2 n=d4 v=116
36939 On ch=2 n=d4 v=0
36940 On ch=2 n=f4 v=116
36959 On ch=2 n=f4 v=0
36960 On ch=2 n=b4 v=116
36979 On ch=2 n=b4 v=0
36980 On ch=2 n=d5 v=116
36999 On ch=2 n=d5 v=0
37000 On ch=2 n=e5 v=116
37019 On ch=2 n=e5 v=0
37020 On ch=2 n=f5 v=116
37039 On ch=2 n=f5 v=0
37040 On ch=2 n=g5 v=116
37059 On ch=2 n=g5 v=0
37060 On ch=2 n=g#5 v=116
37079 On ch=2 n=g#5 v=0
37080 On ch=2 n=a5 v=116
37080 On ch=2 n=f5 v=116
37169 On ch=2 n=f5 v=0
37169 On ch=2 n=a5 v=0
37170 On ch=2 n=f5 v=116
37199 On ch=2 n=f5 v=0
37200 On ch=2 n=d5 v=116
37230 On ch=2 n=c#5 v=116
37259 On ch=2 n=c#5 v=0
37260 On ch=2 n=c5 v=116
37289 On ch=2 n=c5 v=0
37290 On ch=2 n=b4 v=116
37319 On ch=2 n=b4 v=0
37319 On ch=2 n=d5 v=0
37350 On ch=2 n=g#5 v=116
37379 On ch=2 n=g#5 v=0
37380 On ch=2 n=f5 v=116
37409 On ch=2 n=f5 v=0
37410 On ch=2 n=d#5 v=116
37439 On ch=2 n=d#5 v=0
37470 On ch=2 n=d5 v=116
37499 On ch=2 n=d5 v=0
37500 On ch=2 n=b4 v=116
37529 On ch=2 n=b4 v=0
37530 On ch=2 n=g#4 v=116
37559 On ch=2 n=g#4 v=0
37560 On ch=2 n=e4 v=116
37589 On ch=2 n=e4 v=0
37590 On ch=2 n=d#4 v=116
37619 On ch=2 n=d#4 v=0
37620 On ch=2 n=d4 v=116
37649 On ch=2 n=d4 v=0
37650 On ch=2 n=g3 v=116
37679 On ch=2 n=g3 v=0
37710 On ch=2 n=d4 v=116
37739 On ch=2 n=d4 v=0
37740 On ch=2 n=b4 v=116
37769 On ch=2 n=b4 v=0
37770 On ch=2 n=d5 v=116
37799 On ch=2 n=d5 v=0
37800 On ch=2 n=g5 v=116
37829 On ch=2 n=g5 v=0
37830 On ch=2 n=d5 v=116
37859 On ch=2 n=d5 v=0
37860 On ch=2 n=g#5 v=116
37889 On ch=2 n=g#5 v=0
37890 On ch=2 n=b4 v=116
37919 On ch=2 n=b4 v=0
37980 On ch=2 n=g#5 v=116
38009 On ch=2 n=g#5 v=0
38010 On ch=2 n=d5 v=116
38039 On ch=2 n=d5 v=0
38040 On ch=2 n=g5 v=116
38069 On ch=2 n=g5 v=0
38070 On ch=2 n=a#4 v=116
38099 On ch=2 n=a#4 v=0
38160 On ch=2 n=a5 v=116
38189 On ch=2 n=a5 v=0
38190 On ch=2 n=d5 v=116
38219 On ch=2 n=d5 v=0
38220 On ch=2 n=g#5 v=116
38249 On ch=2 n=g#5 v=0
38250 On ch=2 n=b4 v=116
38279 On ch=2 n=b4 v=0
38340 On ch=2 n=g3 v=116
38369 On ch=2 n=g3 v=0
38370 On ch=2 n=d#4 v=116
38399 On ch=2 n=d#4 v=0
38400 On ch=2 n=g4 v=116
38429 On ch=2 n=g4 v=0
38430 On ch=2 n=c5 v=116
38459 On ch=2 n=c5 v=0
38490 On ch=2 n=d#5 v=116
38519 On ch=2 n=d#5 v=0
38520 On ch=2 n=c5 v=116
38549 On ch=2 n=c5 v=0
38550 On ch=2 n=d#4 v=116
38579 On ch=2 n=d#4 v=0
38610 On ch=2 n=c5 v=116
38639 On ch=2 n=c5 v=0
38640 On ch=2 n=d#4 v=116
38669 On ch=2 n=d#4 v=0
38670 On ch=2 n=g3 v=116
38729 On ch=2 n=g3 v=0
38730 On ch=2 n=d#4 v=116
38759 On ch=2 n=d#4 v=0
38760 On ch=2 n=b4 v=116
38789 On ch=2 n=b4 v=0
38790 On ch=2 n=d#4 v=116
38819 On ch=2 n=d#4 v=0
38820 On ch=2 n=g3 v=116
38849 On ch=2 n=g3 v=0
38850 On ch=2 n=d#4 v=116
38879 On ch=2 n=d#4 v=0
38880 On ch=2 n=a#4 v=116
38909 On ch=2 n=a#4 v=0
38910 On ch=2 n=d#4 v=116
38939 On ch=2 n=d#4 v=0
38940 On ch=2 n=g3 v=116
38969 On ch=2 n=g3 v=0
38970 On ch=2 n=d#4 v=116
38999 On ch=2 n=d#4 v=0
39000 On ch=2 n=g#4 v=116
39029 On ch=2 n=g#4 v=0
39030 On ch=2 n=d4 v=116
39059 On ch=2 n=d4 v=0
39060 On ch=2 n=g#2 v=116
39089 On ch=2 n=g#2 v=0
39090 On ch=2 n=g#3 v=116
39119 On ch=2 n=g#3 v=0
39120 On ch=2 n=f#4 v=116
39120 On ch=2 n=d#4 v=116
39149 On ch=2 n=d#4 v=0
39149 On ch=2 n=f#4 v=0
39150 On ch=2 n=c5 v=116
39179 On ch=2 n=c5 v=0
39180 On ch=2 n=f#4 v=116
39180 On ch=2 n=a4 v=116
39180 On ch=2 n=c#5 v=116
39209 On ch=2 n=c#5 v=0
39209 On ch=2 n=a4 v=0
39209 On ch=2 n=f#4 v=0
39210 On ch=2 n=e4 v=116
39269 On ch=2 n=e4 v=0
39270 On ch=2 n=g#3 v=116
39299 On ch=2 n=g#3 v=0
39300 On ch=2 n=g#4 v=116
39300 On ch=2 n=c5 v=116
39300 On ch=2 n=d#5 v=116
39329 On ch=2 n=d#5 v=0
39329 On ch=2 n=c5 v=0
39329 On ch=2 n=g#4 v=0
39330 On ch=2 n=f#4 v=116
39389 On ch=2 n=f#4 v=0
39390 On ch=2 n=g#3 v=116
39419 On ch=2 n=g#3 v=0
39420 On ch=2 n=e5 v=116
39420 On ch=2 n=c#5 v=116
39420 On ch=2 n=a4 v=116
39449 On ch=2 n=a4 v=0
39449 On ch=2 n=c#5 v=0
39449 On ch=2 n=e5 v=0
39450 On ch=2 n=g4 v=116
39479 On ch=2 n=g4 v=0
39480 On ch=2 n=a4 v=116
39480 On ch=2 n=f4 v=116
39509 On ch=2 n=f4 v=0
39509 On ch=2 n=a4 v=0
39510 On ch=2 n=a3 v=116
39539 On ch=2 n=a3 v=0
39540 On ch=2 n=a3 v=116
39569 On ch=2 n=a3 v=0
39570 On ch=2 n=a2 v=116
39599 On ch=2 n=a2 v=0
39600 On ch=2 n=a#4 v=116
39600 On ch=2 n=g4 v=116
39659 On ch=2 n=g4 v=0
39659 On ch=2 n=a#4 v=0
39660 On ch=2 n=g#3 v=116
39689 On ch=2 n=g#3 v=0
39690 On ch=2 n=g4 v=116
39719 On ch=2 n=g4 v=0
39720 On ch=2 n=f4 v=116
39720 On ch=2 n=c5 v=116
39749 On ch=2 n=c5 v=0
39749 On ch=2 n=f4 v=0
39750 On ch=2 n=g#3 v=116
39779 On ch=2 n=g#3 v=0
39780 On ch=2 n=a#2 v=116
39809 On ch=2 n=a#2 v=0
39810 On ch=2 n=a#3 v=116
39839 On ch=2 n=a#3 v=0
39840 On ch=2 n=g#4 v=116
39840 On ch=2 n=f4 v=116
39869 On ch=2 n=f4 v=0
39869 On ch=2 n=g#4 v=0
39870 On ch=2 n=d5 v=116
39899 On ch=2 n=d5 v=0
39900 On ch=2 n=g#4 v=116
39900 On ch=2 n=b4 v=116
39900 On ch=2 n=d#5 v=116
39929 On ch=2 n=d#5 v=0
39929 On ch=2 n=b4 v=0
39929 On ch=2 n=g#4 v=0
39930 On ch=2 n=f#4 v=116
39989 On ch=2 n=f#4 v=0
39990 On ch=2 n=a#3 v=116
40019 On ch=2 n=a#3 v=0
40020 On ch=2 n=f5 v=116
40020 On ch=2 n=d5 v=116
40020 On ch=2 n=a#4 v=116
40049 On ch=2 n=a#4 v=0
40049 On ch=2 n=d5 v=0
40049 On ch=2 n=f5 v=0
40050 On ch=2 n=g#4 v=116
40109 On ch=2 n=g#4 v=0
40110 On ch=2 n=a#3 v=116
40139 On ch=2 n=a#3 v=0
40140 On ch=2 n=f#5 v=116
40140 On ch=2 n=d#5 v=116
40140 On ch=2 n=b4 v=116
40169 On ch=2 n=b4 v=0
40169 On ch=2 n=d#5 v=0
40169 On ch=2 n=f#5 v=0
40170 On ch=2 n=a4 v=116
40199 On ch=2 n=a4 v=0
40200 On ch=2 n=g4 v=116
40200 On ch=2 n=b4 v=116
40229 On ch=2 n=b4 v=0
40229 On ch=2 n=g4 v=0
40230 On ch=2 n=b3 v=116
40259 On ch=2 n=b3 v=0
40260 On ch=2 n=b3 v=116
40289 On ch=2 n=b3 v=0
40290 On ch=2 n=b2 v=116
40319 On ch=2 n=b2 v=0
40320 On ch=2 n=c5 v=116
40320 On ch=2 n=a4 v=116
40379 On ch=2 n=a4 v=0
40379 On ch=2 n=c5 v=0
40380 On ch=2 n=b3 v=116
40409 On ch=2 n=b3 v=0
40410 On ch=2 n=a4 v=116
40439 On ch=2 n=a4 v=0
40440 On ch=2 n=d5 v=116
40440 On ch=2 n=g4 v=116
40469 On ch=2 n=g4 v=0
40469 On ch=2 n=d5 v=0
40470 On ch=2 n=b3 v=116
40499 On ch=2 n=b3 v=0
40500 On ch=2 n=c3 v=116
40529 On ch=2 n=c3 v=0
40530 On ch=2 n=c4 v=116
40559 On ch=2 n=c4 v=0
40560 On ch=2 n=a#4 v=116
40560 On ch=2 n=g4 v=116
40589 On ch=2 n=g4 v=0
40589 On ch=2 n=a#4 v=0
40590 On ch=2 n=e5 v=116
40619 On ch=2 n=e5 v=0
40620 On ch=2 n=a#4 v=116
40620 On ch=2 n=c#5 v=116
40620 On ch=2 n=f5 v=116
40649 On ch=2 n=f5 v=0
40649 On ch=2 n=c#5 v=0
40649 On ch=2 n=a#4 v=0
40650 On ch=2 n=g#4 v=116
40709 On ch=2 n=g#4 v=0
40710 On ch=2 n=c4 v=116
40739 On ch=2 n=c4 v=0
40740 On ch=2 n=g5 v=116
40740 On ch=2 n=e5 v=116
40740 On ch=2 n=c5 v=116
40769 On ch=2 n=c5 v=0
40769 On ch=2 n=e5 v=0
40769 On ch=2 n=g5 v=0
40770 On ch=2 n=a#4 v=116
40829 On ch=2 n=a#4 v=0
40830 On ch=2 n=c4 v=116
40859 On ch=2 n=c4 v=0
40860 On ch=2 n=g#5 v=116
40860 On ch=2 n=f5 v=116
40860 On ch=2 n=c#5 v=116
40889 On ch=2 n=c#5 v=0
40889 On ch=2 n=f5 v=0
40889 On ch=2 n=g#5 v=0
40890 On ch=2 n=a#4 v=116
40919 On ch=2 n=a#4 v=0
40920 On ch=2 n=a#5 v=116
40920 On ch=2 n=e5 v=116
40920 On ch=2 n=c5 v=116
40949 On ch=2 n=c5 v=0
40949 On ch=2 n=e5 v=0
40949 On ch=2 n=a#5 v=0
40950 On ch=2 n=g4 v=116
40979 On ch=2 n=g4 v=0
40980 On ch=2 n=a#4 v=116
41009 On ch=2 n=a#4 v=0
41010 On ch=2 n=c4 v=116
41039 On ch=2 n=c4 v=0
41040 On ch=2 n=b5 v=116
41040 On ch=2 n=c#5 v=116
41069 On ch=2 n=c#5 v=0
41069 On ch=2 n=b5 v=0
41070 On ch=2 n=g#4 v=116
41099 On ch=2 n=g#4 v=0
41100 On ch=2 n=b4 v=116
41129 On ch=2 n=b4 v=0
41130 On ch=2 n=c4 v=116
41159 On ch=2 n=c4 v=0
41160 On ch=2 n=e5 v=116
41160 On ch=2 n=c5 v=116
41160 On ch=2 n=a#5 v=116
41189 On ch=2 n=a#5 v=0
41189 On ch=2 n=c5 v=0
41189 On ch=2 n=e5 v=0
41190 On ch=2 n=g4 v=116
41219 On ch=2 n=g4 v=0
41220 On ch=2 n=e2 v=116
41220 On ch=2 n=e3 v=116
41279 On ch=2 n=e3 v=0
41279 On ch=2 n=e2 v=0
41280 On ch=2 n=b3 v=116
41280 On ch=2 n=e3 v=116
41309 On ch=2 n=e3 v=0
41309 On ch=2 n=b3 v=0
41310 On ch=2 n=e4 v=116
41339 On ch=2 n=e4 v=0
41340 On ch=2 n=b4 v=116
41340 On ch=2 n=b3 v=116
41340 On ch=2 n=e4 v=116
41459 On ch=2 n=e4 v=0
41459 On ch=2 n=b3 v=0
41459 On ch=2 n=b4 v=0
41460 On ch=2 n=b5 v=116
41460 On ch=2 n=e5 v=116
41460 On ch=2 n=b4 v=116
41579 On ch=2 n=b4 v=0
41579 On ch=2 n=e5 v=0
41579 On ch=2 n=b5 v=0
41580 On ch=2 n=b4 v=116
41580 On ch=2 n=e4 v=116
41580 On ch=2 n=b3 v=116
41609 On ch=2 n=b3 v=0
41609 On ch=2 n=e4 v=0
41609 On ch=2 n=b4 v=0
41610 On ch=2 n=e3 v=116
41610 On ch=2 n=b3 v=116
41610 On ch=2 n=e4 v=116
41669 On ch=2 n=e4 v=0
41669 On ch=2 n=b3 v=0
41669 On ch=2 n=e3 v=0
41670 On ch=2 n=e2 v=116
41670 On ch=2 n=b2 v=116
41670 On ch=2 n=e3 v=116
41729 On ch=2 n=e3 v=0
41729 On ch=2 n=b2 v=0
41729 On ch=2 n=e2 v=0
41730 On ch=2 n=b3 v=116
41730 On ch=2 n=e3 v=116
41744 On ch=2 n=e3 v=0
41744 On ch=2 n=b3 v=0
41745 On ch=2 n=e4 v=116
41759 On ch=2 n=e4 v=0
41760 On ch=2 n=b3 v=116
41760 On ch=2 n=e4 v=116
41760 On ch=2 n=b4 v=116
41819 On ch=2 n=b4 v=0
41819 On ch=2 n=e4 v=0
41819 On ch=2 n=b3 v=0
41820 On ch=2 n=g2 v=116
41820 On ch=2 n=d3 v=116
41820 On ch=2 n=g3 v=116
41879 On ch=2 n=g3 v=0
41879 On ch=2 n=d3 v=0
41879 On ch=2 n=g2 v=0
41880 On ch=2 n=d4 v=116
41880 On ch=2 n=g3 v=116
41909 On ch=2 n=g3 v=0
41909 On ch=2 n=d4 v=0
41910 On ch=2 n=g4 v=116
41939 On ch=2 n=g4 v=0
41940 On ch=2 n=g3 v=116
41940 On ch=2 n=d4 v=116
41940 On ch=2 n=g4 v=116
42059 On ch=2 n=g4 v=0
42059 On ch=2 n=d4 v=0
42059 On ch=2 n=g3 v=0
42060 On ch=2 n=d6 v=116
42060 On ch=2 n=g5 v=116
42060 On ch=2 n=d5 v=116
42179 On ch=2 n=d5 v=0
42179 On ch=2 n=g5 v=0
42179 On ch=2 n=d6 v=0
42180 On ch=2 n=d5 v=116
42180 On ch=2 n=g4 v=116
42180 On ch=2 n=d4 v=116
42209 On ch=2 n=d4 v=0
42209 On ch=2 n=g4 v=0
42209 On ch=2 n=d5 v=0
42210 On ch=2 n=g3 v=116
42210 On ch=2 n=d4 v=116
42210 On ch=2 n=g4 v=116
42269 On ch=2 n=g4 v=0
42269 On ch=2 n=d4 v=0
42269 On ch=2 n=g3 v=0
42270 On ch=2 n=g2 v=116
42270 On ch=2 n=d3 v=116
42270 On ch=2 n=g3 v=116
42329 On ch=2 n=g3 v=0
42329 On ch=2 n=d3 v=0
42329 On ch=2 n=g2 v=0
42330 On ch=2 n=d4 v=116
42330 On ch=2 n=g3 v=116
42344 On ch=2 n=g3 v=0
42344 On ch=2 n=d4 v=0
42345 On ch=2 n=g4 v=116
42359 On ch=2 n=g4 v=0
42360 On ch=2 n=d5 v=116
42360 On ch=2 n=d4 v=116
42360 On ch=2 n=g4 v=116
42419 On ch=2 n=g4 v=0
42419 On ch=2 n=d4 v=0
42419 On ch=2 n=d5 v=0
42420 On ch=2 n=b3 v=116
42420 On ch=2 n=e3 v=116
42420 On ch=2 n=b2 v=116
42539 On ch=2 n=b2 v=0
42539 On ch=2 n=e3 v=0
42539 On ch=2 n=b3 v=0
42540 On ch=2 n=e4 v=116
42540 On ch=2 n=e5 v=116
42540 On ch=2 n=b4 v=116
42599 On ch=2 n=b4 v=0
42599 On ch=2 n=e5 v=0
42599 On ch=2 n=e4 v=0
42600 On ch=2 n=d3 v=116
42600 On ch=2 n=g3 v=116
42600 On ch=2 n=d4 v=116
42719 On ch=2 n=d4 v=0
42719 On ch=2 n=g3 v=0
42719 On ch=2 n=d3 v=0
42720 On ch=2 n=g5 v=116
42720 On ch=2 n=d5 v=116
42720 On ch=2 n=g4 v=116
42779 On ch=2 n=g4 v=0
42779 On ch=2 n=d5 v=0
42779 On ch=2 n=g5 v=0
42780 On ch=2 n=b3 v=116
42780 On ch=2 n=e3 v=116
42780 On ch=2 n=b2 v=116
42899 On ch=2 n=b2 v=0
42899 On ch=2 n=e3 v=0
42899 On ch=2 n=b3 v=0
42900 On ch=2 n=e4 v=116
42900 On ch=2 n=e5 v=116
42900 On ch=2 n=b4 v=116
42959 On ch=2 n=b4 v=0
42959 On ch=2 n=e5 v=0
42959 On ch=2 n=e4 v=0
42960 On ch=2 n=d3 v=116
42960 On ch=2 n=g3 v=116
42960 On ch=2 n=d4 v=116
43079 On ch=2 n=d4 v=0
43079 On ch=2 n=g3 v=0
43079 On ch=2 n=d3 v=0
43080 On ch=2 n=g5 v=116
43080 On ch=2 n=d5 v=116
43080 On ch=2 n=g4 v=116
43139 On ch=2 n=g4 v=0
43139 On ch=2 n=d5 v=0
43139 On ch=2 n=g5 v=0
43140 On ch=2 n=c3 v=116
43140 On ch=2 n=c4 v=116
43140 On ch=2 n=g3 v=116
43259 On ch=2 n=g3 v=0
43259 On ch=2 n=c4 v=0
43259 On ch=2 n=c3 v=0
43260 On ch=2 n=g5 v=116
43260 On ch=2 n=c5 v=116
43260 On ch=2 n=g4 v=116
43319 On ch=2 n=g4 v=0
43319 On ch=2 n=c5 v=0
43319 On ch=2 n=g5 v=0
43320 On ch=2 n=g2 v=116
43320 On ch=2 n=c3 v=116
43320 On ch=2 n=g3 v=116
43439 On ch=2 n=g3 v=0
43439 On ch=2 n=c3 v=0
43439 On ch=2 n=g2 v=0
43440 On ch=2 n=a#4 v=116
43440 On ch=2 n=d#4 v=116
43440 On ch=2 n=a#3 v=116
43499 On ch=2 n=a#3 v=0
43499 On ch=2 n=d#4 v=0
43499 On ch=2 n=a#4 v=0
43500 On ch=2 n=d#3 v=116
43500 On ch=2 n=a#3 v=116
43500 On ch=2 n=d#4 v=116
43619 On ch=2 n=d#4 v=0
43619 On ch=2 n=a#3 v=0
43619 On ch=2 n=d#3 v=0
43620 On ch=2 n=c5 v=116
43620 On ch=2 n=g4 v=116
43620 On ch=2 n=c4 v=116
43679 On ch=2 n=c4 v=0
43679 On ch=2 n=g4 v=0
43679 On ch=2 n=c5 v=0
43680 On ch=2 n=a#2 v=116
43680 On ch=2 n=d#3 v=116
43680 On ch=2 n=a#3 v=116
43799 On ch=2 n=a#3 v=0
43799 On ch=2 n=d#3 v=0
43799 On ch=2 n=a#2 v=0
43800 On ch=2 n=d#3 v=116
43800 On ch=2 n=a#3 v=116
43800 On ch=2 n=d#4 v=116
43859 On ch=2 n=d#4 v=0
43859 On ch=2 n=a#3 v=0
43859 On ch=2 n=d#3 v=0
43860 On ch=2 n=c2 v=116
43860 On ch=2 n=g2 v=116
43860 On ch=2 n=c3 v=116
43979 On ch=2 n=c3 v=0
43979 On ch=2 n=g2 v=0
43979 On ch=2 n=c2 v=0
43980 On ch=2 n=g5 v=116
43980 On ch=2 n=c5 v=116
43980 On ch=2 n=g4 v=116
44039 On ch=2 n=g4 v=0
44039 On ch=2 n=c5 v=0
44039 On ch=2 n=g5 v=0
44040 On ch=2 n=g3 v=116
44040 On ch=2 n=c3 v=116
44040 On ch=2 n=g2 v=116
44159 On ch=2 n=g2 v=0
44159 On ch=2 n=c3 v=0
44159 On ch=2 n=g3 v=0
44160 On ch=2 n=a#4 v=116
44160 On ch=2 n=d#4 v=116
44160 On ch=2 n=a#3 v=116
44219 On ch=2 n=a#3 v=0
44219 On ch=2 n=d#4 v=0
44219 On ch=2 n=a#4 v=0
44220 On ch=2 n=d#3 v=116
44220 On ch=2 n=a#3 v=116
44220 On ch=2 n=d#4 v=116
44339 On ch=2 n=d#4 v=0
44339 On ch=2 n=a#3 v=0
44339 On ch=2 n=d#3 v=0
44340 On ch=2 n=c5 v=116
44340 On ch=2 n=g4 v=116
44340 On ch=2 n=c4 v=116
44399 On ch=2 n=c4 v=0
44399 On ch=2 n=g4 v=0
44399 On ch=2 n=c5 v=0
44400 On ch=2 n=g2 v=116
44400 On ch=2 n=c3 v=116
44400 On ch=2 n=g3 v=116
44519 On ch=2 n=g3 v=0
44519 On ch=2 n=c3 v=0
44519 On ch=2 n=g2 v=0
44520 On ch=2 n=d#4 v=116
44520 On ch=2 n=a#3 v=116
44520 On ch=2 n=d#3 v=116
44639 On ch=2 n=d#3 v=0
44639 On ch=2 n=a#3 v=0
44639 On ch=2 n=d#4 v=0
44640 On ch=2 n=a4 v=116
44640 On ch=2 n=f#4 v=116
44699 On ch=2 n=f#4 v=0
44699 On ch=2 n=a4 v=0
44700 On ch=2 n=g4 v=116
44700 On ch=2 n=d#4 v=116
44759 On ch=2 n=d#4 v=0
44759 On ch=2 n=g4 v=0
44760 On ch=2 n=f4 v=116
44760 On ch=2 n=c#4 v=116
44819 On ch=2 n=c#4 v=0
44819 On ch=2 n=f4 v=0
44820 On ch=2 n=d#4 v=116
44820 On ch=2 n=a#3 v=116
44879 On ch=2 n=a#3 v=0
44879 On ch=2 n=d#4 v=0
44880 On ch=2 n=d4 v=116
44880 On ch=2 n=g3 v=116
44939 On ch=2 n=g3 v=0
44939 On ch=2 n=d4 v=0
44940 On ch=2 n=f#3 v=116
44940 On ch=2 n=c#4 v=116
44999 On ch=2 n=c#4 v=0
44999 On ch=2 n=f#3 v=0
45000 On ch=2 n=d#3 v=116
45000 On ch=2 n=a3 v=116
45059 On ch=2 n=a3 v=0
45059 On ch=2 n=d#3 v=0
45060 On ch=2 n=c#3 v=116
45060 On ch=2 n=g3 v=116
45119 On ch=2 n=g3 v=0
45119 On ch=2 n=c#3 v=0
45120 On ch=2 n=f3 v=116
45120 On ch=2 n=c3 v=116
45179 On ch=2 n=c3 v=0
45179 On ch=2 n=f3 v=0
45180 On ch=2 n=d#3 v=116
45180 On ch=2 n=a#2 v=116
45239 On ch=2 n=a#2 v=0
45239 On ch=2 n=d#3 v=0
45240 On ch=2 n=c#3 v=116
45240 On ch=2 n=a2 v=116
45299 On ch=2 n=a2 v=0
45299 On ch=2 n=c#3 v=0
45300 On ch=2 n=a#3 v=116
45300 On ch=2 n=a#4 v=116
45300 On ch=2 n=a#1 v=116
45300 On ch=2 n=a#2 v=116
45360 On ch=2 n=f3 v=116
45360 On ch=2 n=a#3 v=116
45360 On ch=2 n=c#4 v=116
45360 On ch=2 n=f4 v=116
45479 On ch=2 n=f4 v=0
45479 On ch=2 n=c#4 v=0
45479 On ch=2 n=f3 v=0
45479 On ch=2 n=a#3 v=0
45480 On ch=2 n=f5 v=116
45480 On ch=2 n=c#5 v=116
45480 On ch=2 n=a#4 v=116
45480 On ch=2 n=f4 v=116
45539 On ch=2 n=f4 v=0
45539 On ch=2 n=a#2 v=0
45539 On ch=2 n=f5 v=0
45539 On ch=2 n=a#4 v=0
45539 On ch=2 n=a#3 v=0
45539 On ch=2 n=a#1 v=0
45539 On ch=2 n=c#5 v=0
45539 On ch=2 n=a#4 v=0
45540 On ch=2 n=g#5 v=116
45540 On ch=2 n=f5 v=116
45540 On ch=2 n=c#5 v=116
45540 On ch=2 n=g#4 v=116
45600 On ch=2 n=f5 v=116
45600 On ch=2 n=c#5 v=116
45600 On ch=2 n=a#4 v=116
45600 On ch=2 n=f4 v=116
45719 On ch=2 n=f4 v=0
45719 On ch=2 n=a#4 v=0
45719 On ch=2 n=f5 v=0
45719 On ch=2 n=c#5 v=0
45720 On ch=2 n=f3 v=116
45720 On ch=2 n=a#3 v=116
45720 On ch=2 n=c#4 v=116
45720 On ch=2 n=f4 v=116
45779 On ch=2 n=f4 v=0
45779 On ch=2 n=g#4 v=0
45779 On ch=2 n=f3 v=0
45779 On ch=2 n=f5 v=0
45779 On ch=2 n=g#5 v=0
45779 On ch=2 n=c#5 v=0
45779 On ch=2 n=a#3 v=0
45779 On ch=2 n=c#4 v=0
45780 On ch=2 n=a#4 v=116
45780 On ch=2 n=a#3 v=116
45780 On ch=2 n=a#1 v=116
45780 On ch=2 n=a#2 v=116
45825 On ch=2 n=a#4 v=116
45825 On ch=2 n=c#5 v=116
45839 On ch=2 n=c#5 v=0
45839 On ch=2 n=a#4 v=0
45840 On ch=2 n=f5 v=116
45899 On ch=2 n=f5 v=0
45899 On ch=2 n=a#2 v=0
45899 On ch=2 n=a#4 v=0
45899 On ch=2 n=a#3 v=0
45899 On ch=2 n=a#1 v=0
45900 On ch=2 n=e5 v=116
45959 On ch=2 n=e5 v=0
45960 On ch=2 n=d#5 v=116
46019 On ch=2 n=d#5 v=0
46020 On ch=2 n=c#5 v=116
46109 On ch=2 n=c#5 v=0
46110 On ch=2 n=a#4 v=116
46139 On ch=2 n=a#4 v=0
46140 On ch=2 n=f4 v=116
46169 On ch=2 n=f4 v=0
46170 On ch=2 n=e4 v=116
46199 On ch=2 n=e4 v=0
46200 On ch=2 n=d#4 v=116
46229 On ch=2 n=d#4 v=0
46230 On ch=2 n=d4 v=116
46259 On ch=2 n=d4 v=0
46260 On ch=2 n=f3 v=116
46260 On ch=2 n=c#4 v=116
46279 On ch=2 n=c#4 v=0
46279 On ch=2 n=f3 v=0
46280 On ch=2 n=a#2 v=116
46299 On ch=2 n=a#2 v=0
46320 On ch=2 n=f4 v=116
46320 On ch=2 n=c#4 v=116
46339 On ch=2 n=c#4 v=0
46339 On ch=2 n=f4 v=0
46340 On ch=2 n=f3 v=116
46359 On ch=2 n=f3 v=0
46380 On ch=2 n=f3 v=116
46380 On ch=2 n=c4 v=116
46399 On ch=2 n=c4 v=0
46399 On ch=2 n=f3 v=0
46400 On ch=2 n=a#2 v=116
46419 On ch=2 n=a#2 v=0
46440 On ch=2 n=f4 v=116
46440 On ch=2 n=c4 v=116
46459 On ch=2 n=c4 v=0
46459 On ch=2 n=f4 v=0
46460 On ch=2 n=f3 v=116
46479 On ch=2 n=f3 v=0
46500 On ch=2 n=f3 v=116
46500 On ch=2 n=a#3 v=116
46519 On ch=2 n=a#3 v=0
46519 On ch=2 n=f3 v=0
46520 On ch=2 n=a#2 v=116
46539 On ch=2 n=a#2 v=0
46560 On ch=2 n=f4 v=116
46560 On ch=2 n=a#3 v=116
46579 On ch=2 n=a#3 v=0
46579 On ch=2 n=f4 v=0
46580 On ch=2 n=f3 v=116
46599 On ch=2 n=f3 v=0
46620 On ch=2 n=f3 v=116
46620 On ch=2 n=a3 v=116
46639 On ch=2 n=a3 v=0
46639 On ch=2 n=f3 v=0
46640 On ch=2 n=a#2 v=116
46659 On ch=2 n=a#2 v=0
46680 On ch=2 n=f4 v=116
46680 On ch=2 n=a3 v=116
46699 On ch=2 n=a3 v=0
46699 On ch=2 n=f4 v=0
46700 On ch=2 n=f3 v=116
46719 On ch=2 n=f3 v=0
46740 On ch=2 n=a#1 v=116
46740 On ch=2 n=a#2 v=116
46800 On ch=2 n=f4 v=116
46800 On ch=2 n=d4 v=116
46800 On ch=2 n=a#3 v=116
46800 On ch=2 n=f3 v=116
46919 On ch=2 n=f3 v=0
46919 On ch=2 n=d4 v=0
46919 On ch=2 n=f4 v=0
46919 On ch=2 n=a#3 v=0
46920 On ch=2 n=f5 v=116
46920 On ch=2 n=d5 v=116
46920 On ch=2 n=a#4 v=116
46920 On ch=2 n=f4 v=116
46979 On ch=2 n=f4 v=0
46979 On ch=2 n=a#1 v=0
46979 On ch=2 n=f5 v=0
46979 On ch=2 n=a#2 v=0
46979 On ch=2 n=a#4 v=0
46979 On ch=2 n=d5 v=0
46980 On ch=2 n=b5 v=116
46980 On ch=2 n=g#5 v=116
46980 On ch=2 n=e5 v=116
46980 On ch=2 n=b4 v=116
47040 On ch=2 n=d#5 v=116
47040 On ch=2 n=b4 v=116
47040 On ch=2 n=g#4 v=116
47040 On ch=2 n=d#4 v=116
47159 On ch=2 n=d#4 v=0
47159 On ch=2 n=g#4 v=0
47159 On ch=2 n=d#5 v=0
47159 On ch=2 n=b4 v=0
47160 On ch=2 n=e4 v=116
47160 On ch=2 n=b3 v=116
47160 On ch=2 n=e3 v=116
47219 On ch=2 n=e3 v=0
47219 On ch=2 n=e4 v=0
47219 On ch=2 n=g#5 v=0
47219 On ch=2 n=b5 v=0
47219 On ch=2 n=b4 v=0
47219 On ch=2 n=b3 v=0
47219 On ch=2 n=e5 v=0
47220 On ch=2 n=a#4 v=116
47220 On ch=2 n=a#3 v=116
47220 On ch=2 n=a#1 v=116
47220 On ch=2 n=a#2 v=116
47265 On ch=2 n=d5 v=116
47265 On ch=2 n=a#4 v=116
47265 On ch=2 n=g#4 v=116
47265 On ch=2 n=f4 v=116
47279 On ch=2 n=f4 v=0
47279 On ch=2 n=g#4 v=0
47279 On ch=2 n=d5 v=0
47279 On ch=2 n=a#4 v=0
47280 On ch=2 n=f5 v=116
47339 On ch=2 n=f5 v=0
47339 On ch=2 n=a#4 v=0
47339 On ch=2 n=a#2 v=0
47339 On ch=2 n=a#3 v=0
47339 On ch=2 n=a#1 v=0
47340 On ch=2 n=e5 v=116
47399 On ch=2 n=e5 v=0
47400 On ch=2 n=d#5 v=116
47459 On ch=2 n=d#5 v=0
47460 On ch=2 n=d5 v=116
47549 On ch=2 n=d5 v=0
47550 On ch=2 n=a#4 v=116
47579 On ch=2 n=a#4 v=0
47580 On ch=2 n=f4 v=116
47609 On ch=2 n=f4 v=0
47610 On ch=2 n=e4 v=116
47639 On ch=2 n=e4 v=0
47640 On ch=2 n=d#4 v=116
47669 On ch=2 n=d#4 v=0
47670 On ch=2 n=d4 v=116
47699 On ch=2 n=d4 v=0
47700 On ch=2 n=d4 v=116
47700 On ch=2 n=g#3 v=116
47719 On ch=2 n=g#3 v=0
47719 On ch=2 n=d4 v=0
47720 On ch=2 n=a#2 v=116
47739 On ch=2 n=a#2 v=0
47760 On ch=2 n=d4 v=116
47760 On ch=2 n=g#4 v=116
47779 On ch=2 n=g#4 v=0
47779 On ch=2 n=d4 v=0
47780 On ch=2 n=g#3 v=116
47799 On ch=2 n=g#3 v=0
47820 On ch=2 n=g3 v=116
47820 On ch=2 n=d4 v=116
47839 On ch=2 n=d4 v=0
47839 On ch=2 n=g3 v=0
47840 On ch=2 n=a#2 v=116
47859 On ch=2 n=a#2 v=0
47880 On ch=2 n=g4 v=116
47880 On ch=2 n=d4 v=116
47899 On ch=2 n=d4 v=0
47899 On ch=2 n=g4 v=0
47900 On ch=2 n=g3 v=116
47919 On ch=2 n=g3 v=0
47940 On ch=2 n=f#3 v=116
47940 On ch=2 n=d4 v=116
47959 On ch=2 n=d4 v=0
47959 On ch=2 n=f#3 v=0
47960 On ch=2 n=a#2 v=116
47979 On ch=2 n=a#2 v=0
48000 On ch=2 n=f#4 v=116
48000 On ch=2 n=d4 v=116
48019 On ch=2 n=d4 v=0
48019 On ch=2 n=f#4 v=0
48020 On ch=2 n=f#3 v=116
48039 On ch=2 n=f#3 v=0
48060 On ch=2 n=f3 v=116
48060 On ch=2 n=d4 v=116
48079 On ch=2 n=d4 v=0
48079 On ch=2 n=f3 v=0
48080 On ch=2 n=a#2 v=116
48099 On ch=2 n=a#2 v=0
48120 On ch=2 n=f4 v=116
48120 On ch=2 n=d4 v=116
48139 On ch=2 n=d4 v=0
48139 On ch=2 n=f4 v=0
48140 On ch=2 n=f3 v=116
48159 On ch=2 n=f3 v=0
48180 On ch=2 n=d2 v=116
48180 On ch=2 n=d3 v=116
48240 On ch=2 n=a3 v=116
48240 On ch=2 n=d3 v=116
48299 On ch=2 n=d3 v=0
48299 On ch=2 n=a3 v=0
48300 On ch=2 n=a4 v=116
48300 On ch=2 n=f#4 v=116
48300 On ch=2 n=d4 v=116
48300 On ch=2 n=a3 v=116
48359 On ch=2 n=a3 v=0
48359 On ch=2 n=f#4 v=0
48359 On ch=2 n=a4 v=0
48359 On ch=2 n=d4 v=0
48360 On ch=2 n=f#5 v=116
48360 On ch=2 n=d5 v=116
48360 On ch=2 n=b4 v=116
48360 On ch=2 n=f#4 v=116
48419 On ch=2 n=f#4 v=0
48419 On ch=2 n=d2 v=0
48419 On ch=2 n=f#5 v=0
48419 On ch=2 n=d3 v=0
48419 On ch=2 n=b4 v=0
48419 On ch=2 n=d5 v=0
48420 On ch=2 n=c#6 v=116
48420 On ch=2 n=a#5 v=116
48420 On ch=2 n=f#5 v=116
48420 On ch=2 n=c#5 v=116
48480 On ch=2 n=e5 v=116
48480 On ch=2 n=c#5 v=116
48480 On ch=2 n=a#4 v=116
48480 On ch=2 n=e4 v=116
48599 On ch=2 n=e4 v=0
48599 On ch=2 n=a#4 v=0
48599 On ch=2 n=e5 v=0
48599 On ch=2 n=c#5 v=0
48600 On ch=2 n=f#3 v=116
48600 On ch=2 n=c#4 v=116
48659 On ch=2 n=c#4 v=0
48659 On ch=2 n=a#5 v=0
48659 On ch=2 n=c#6 v=0
48659 On ch=2 n=c#5 v=0
48659 On ch=2 n=f#3 v=0
48659 On ch=2 n=f#5 v=0
48660 On ch=2 n=d5 v=116
48660 On ch=2 n=d4 v=116
48660 On ch=2 n=d2 v=116
48660 On ch=2 n=d3 v=116
48705 On ch=2 n=f#4 v=116
48705 On ch=2 n=d4 v=116
48705 On ch=2 n=a3 v=116
48719 On ch=2 n=a3 v=0
48719 On ch=2 n=f#4 v=0
48719 On ch=2 n=d4 v=0
48720 On ch=2 n=a4 v=116
48779 On ch=2 n=a4 v=0
48779 On ch=2 n=d3 v=0
48779 On ch=2 n=d5 v=0
48779 On ch=2 n=d4 v=0
48779 On ch=2 n=d2 v=0
48780 On ch=2 n=g#4 v=116
48839 On ch=2 n=g#4 v=0
48840 On ch=2 n=g4 v=116
48899 On ch=2 n=g4 v=0
48900 On ch=2 n=f#4 v=116
48989 On ch=2 n=f#4 v=0
48990 On ch=2 n=d4 v=116
49019 On ch=2 n=d4 v=0
49020 On ch=2 n=a3 v=116
49049 On ch=2 n=a3 v=0
49050 On ch=2 n=g#3 v=116
49079 On ch=2 n=g#3 v=0
49080 On ch=2 n=g3 v=116
49109 On ch=2 n=g3 v=0
49110 On ch=2 n=f#3 v=116
49139 On ch=2 n=f#3 v=0
49140 On ch=2 n=d#3 v=116
49179 On ch=2 n=d#3 v=0
49180 On ch=2 n=c#4 v=116
49199 On ch=2 n=c#4 v=0
49200 On ch=2 n=c#5 v=116
49239 On ch=2 n=c#5 v=0
49240 On ch=2 n=c4 v=116
49259 On ch=2 n=c4 v=0
49260 On ch=2 n=f3 v=116
49299 On ch=2 n=f3 v=0
49300 On ch=2 n=c#4 v=116
49319 On ch=2 n=c#4 v=0
49320 On ch=2 n=c#5 v=116
49359 On ch=2 n=c#5 v=0
49360 On ch=2 n=c4 v=116
49379 On ch=2 n=c4 v=0
49380 On ch=2 n=f#3 v=116
49419 On ch=2 n=f#3 v=0
49420 On ch=2 n=c#4 v=116
49439 On ch=2 n=c#4 v=0
49440 On ch=2 n=c#5 v=116
49479 On ch=2 n=c#5 v=0
49480 On ch=2 n=c4 v=116
49499 On ch=2 n=c4 v=0
49500 On ch=2 n=f3 v=116
49539 On ch=2 n=f3 v=0
49540 On ch=2 n=c#4 v=116
49559 On ch=2 n=c#4 v=0
49560 On ch=2 n=c#5 v=116
49599 On ch=2 n=c#5 v=0
49600 On ch=2 n=c4 v=116
49619 On ch=2 n=c4 v=0
49620 On ch=2 n=d#3 v=116
49659 On ch=2 n=d#3 v=0
49660 On ch=2 n=c#4 v=116
49679 On ch=2 n=c#4 v=0
49680 On ch=2 n=c#5 v=116
49719 On ch=2 n=c#5 v=0
49720 On ch=2 n=c4 v=116
49739 On ch=2 n=c4 v=0
49740 On ch=2 n=f3 v=116
49779 On ch=2 n=f3 v=0
49780 On ch=2 n=c#4 v=116
49799 On ch=2 n=c#4 v=0
49800 On ch=2 n=c#5 v=116
49839 On ch=2 n=c#5 v=0
49840 On ch=2 n=c4 v=116
49859 On ch=2 n=c4 v=0
49860 On ch=2 n=f#3 v=116
49899 On ch=2 n=f#3 v=0
49900 On ch=2 n=c#4 v=116
49919 On ch=2 n=c#4 v=0
49920 On ch=2 n=c#5 v=116
49959 On ch=2 n=c#5 v=0
49960 On ch=2 n=c4 v=116
49979 On ch=2 n=c4 v=0
49980 On ch=2 n=f3 v=116
50019 On ch=2 n=f3 v=0
50020 On ch=2 n=c#4 v=116
50039 On ch=2 n=c#4 v=0
50040 On ch=2 n=c#5 v=116
50079 On ch=2 n=c#5 v=0
50080 On ch=2 n=c4 v=116
50099 On ch=2 n=c4 v=0
50100 On ch=2 n=d#3 v=116
50139 On ch=2 n=d#3 v=0
50140 On ch=2 n=c#4 v=116
50159 On ch=2 n=c#4 v=0
50160 On ch=2 n=a#4 v=116
50199 On ch=2 n=a#4 v=0
50200 On ch=2 n=c4 v=116
50219 On ch=2 n=c4 v=0
50220 On ch=2 n=f3 v=116
50259 On ch=2 n=f3 v=0
50260 On ch=2 n=c#4 v=116
50279 On ch=2 n=c#4 v=0
50280 On ch=2 n=a4 v=116
50319 On ch=2 n=a4 v=0
50320 On ch=2 n=d#4 v=116
50339 On ch=2 n=d#4 v=0
50340 On ch=2 n=g3 v=116
50379 On ch=2 n=g3 v=0
50380 On ch=2 n=f4 v=116
50399 On ch=2 n=f4 v=0
50400 On ch=2 n=c#5 v=116
50439 On ch=2 n=c#5 v=0
50440 On ch=2 n=d#4 v=116
50459 On ch=2 n=d#4 v=0
50460 On ch=2 n=g#3 v=116
50499 On ch=2 n=g#3 v=0
50500 On ch=2 n=f4 v=116
50519 On ch=2 n=f4 v=0
50520 On ch=2 n=c5 v=116
50559 On ch=2 n=c5 v=0
50560 On ch=2 n=f#4 v=116
50579 On ch=2 n=f#4 v=0
50580 On ch=2 n=a#3 v=116
50619 On ch=2 n=a#3 v=0
50620 On ch=2 n=g#4 v=116
50639 On ch=2 n=g#4 v=0
50640 On ch=2 n=f5 v=116
50679 On ch=2 n=f5 v=0
50680 On ch=2 n=f#4 v=116
50699 On ch=2 n=f#4 v=0
50700 On ch=2 n=c4 v=116
50739 On ch=2 n=c4 v=0
50740 On ch=2 n=g#4 v=116
50759 On ch=2 n=g#4 v=0
50760 On ch=2 n=d#5 v=116
50799 On ch=2 n=d#5 v=0
50800 On ch=2 n=a#4 v=116
50819 On ch=2 n=a#4 v=0
50820 On ch=2 n=d4 v=116
50859 On ch=2 n=d4 v=0
50860 On ch=2 n=a#4 v=116
50879 On ch=2 n=a#4 v=0
50880 On ch=2 n=g#5 v=116
50919 On ch=2 n=g#5 v=0
50920 On ch=2 n=b4 v=116
50939 On ch=2 n=b4 v=0
50940 On ch=2 n=d#4 v=116
50979 On ch=2 n=d#4 v=0
50980 On ch=2 n=c5 v=116
50999 On ch=2 n=c5 v=0
51000 On ch=2 n=a#5 v=116
51039 On ch=2 n=a#5 v=0
51040 On ch=2 n=c#5 v=116
51059 On ch=2 n=c#5 v=0
51060 On ch=2 n=f3 v=116
51079 On ch=2 n=f3 v=0
51080 On ch=2 n=a4 v=116
51099 On ch=2 n=a4 v=0
51100 On ch=2 n=d#5 v=116
51119 On ch=2 n=d#5 v=0
51120 On ch=2 n=f#5 v=116
51139 On ch=2 n=f#5 v=0
51140 On ch=2 n=g#5 v=116
51159 On ch=2 n=g#5 v=0
51160 On ch=2 n=a5 v=116
51179 On ch=2 n=a5 v=0
51200 On ch=2 n=g#4 v=116
51219 On ch=2 n=g#4 v=0
51220 On ch=2 n=c#5 v=116
51239 On ch=2 n=c#5 v=0
51240 On ch=2 n=f5 v=116
51259 On ch=2 n=f5 v=0
51260 On ch=2 n=f#5 v=116
51279 On ch=2 n=f#5 v=0
51280 On ch=2 n=g#5 v=116
51299 On ch=2 n=g#5 v=0
51320 On ch=2 n=g4 v=116
51339 On ch=2 n=g4 v=0
51340 On ch=2 n=c5 v=116
51359 On ch=2 n=c5 v=0
51360 On ch=2 n=d#5 v=116
51379 On ch=2 n=d#5 v=0
51380 On ch=2 n=e5 v=116
51399 On ch=2 n=e5 v=0
51400 On ch=2 n=f5 v=116
51419 On ch=2 n=f5 v=0
51440 On ch=2 n=f#4 v=116
51459 On ch=2 n=f#4 v=0
51460 On ch=2 n=a#4 v=116
51479 On ch=2 n=a#4 v=0
51480 On ch=2 n=c#5 v=116
51499 On ch=2 n=c#5 v=0
51500 On ch=2 n=d#5 v=116
51519 On ch=2 n=d#5 v=0
51520 On ch=2 n=e5 v=116
51539 On ch=2 n=e5 v=0
51560 On ch=2 n=f4 v=116
51579 On ch=2 n=f4 v=0
51580 On ch=2 n=a4 v=116
51599 On ch=2 n=a4 v=0
51600 On ch=2 n=c#5 v=116
51619 On ch=2 n=c#5 v=0
51620 On ch=2 n=d5 v=116
51639 On ch=2 n=d5 v=0
51640 On ch=2 n=d#5 v=116
51659 On ch=2 n=d#5 v=0
51680 On ch=2 n=f3 v=116
51699 On ch=2 n=f3 v=0
51700 On ch=2 n=c#4 v=116
51719 On ch=2 n=c#4 v=0
51720 On ch=2 n=b4 v=116
51739 On ch=2 n=b4 v=0
51740 On ch=2 n=c5 v=116
51759 On ch=2 n=c5 v=0
51760 On ch=2 n=c#5 v=116
51779 On ch=2 n=c#5 v=0
51800 On ch=2 n=c#5 v=116
51819 On ch=2 n=c#5 v=0
51820 On ch=2 n=f#5 v=116
51839 On ch=2 n=f#5 v=0
51840 On ch=2 n=a5 v=116
51859 On ch=2 n=a5 v=0
51860 On ch=2 n=a#5 v=116
51879 On ch=2 n=a#5 v=0
51880 On ch=2 n=b5 v=116
51899 On ch=2 n=b5 v=0
51920 On ch=2 n=a#5 v=116
51939 On ch=2 n=a#5 v=0
51940 On ch=2 n=d6 v=116
51959 On ch=2 n=d6 v=0
51960 On ch=2 n=g#6 v=116
51979 On ch=2 n=g#6 v=0
51980 On ch=2 n=a6 v=116
51999 On ch=2 n=a6 v=0
52000 On ch=2 n=a#6 v=116
52019 On ch=2 n=a#6 v=0
52020 On ch=2 n=f#3 v=116
52020 On ch=2 n=c#4 v=116
52109 On ch=2 n=c#4 v=0
52110 On ch=2 n=d4 v=116
52139 On ch=2 n=d4 v=0
52140 On ch=2 n=d#4 v=116
52199 On ch=2 n=d#4 v=0
52199 On ch=2 n=f#3 v=0
52200 On ch=2 n=f#3 v=116
52200 On ch=2 n=c#4 v=116
52559 On ch=2 n=c#4 v=0
52559 On ch=2 n=f#3 v=0
52560 On ch=2 n=c#6 v=116
52560 On ch=2 n=a#5 v=116
52560 On ch=2 n=f#5 v=116
52649 On ch=2 n=f#5 v=0
52649 On ch=2 n=a#5 v=0
52649 On ch=2 n=c#6 v=0
52650 On ch=2 n=a5 v=116
52650 On ch=2 n=f5 v=116
52679 On ch=2 n=f5 v=0
52679 On ch=2 n=a5 v=0
52680 On ch=2 n=b5 v=116
52680 On ch=2 n=g#5 v=116
52680 On ch=2 n=d#5 v=116
52739 On ch=2 n=d#5 v=0
52739 On ch=2 n=g#5 v=0
52739 On ch=2 n=b5 v=0
52740 On ch=2 n=f#5 v=116
52740 On ch=2 n=a#5 v=116
52740 On ch=2 n=c#6 v=116
53009 On ch=2 n=c#6 v=0
53009 On ch=2 n=a#5 v=0
53009 On ch=2 n=f#5 v=0
53010 On ch=2 n=c#5 v=116
53039 On ch=2 n=c#5 v=0
53040 On ch=2 n=a#5 v=116
53040 On ch=2 n=f#5 v=116
53040 On ch=2 n=d#5 v=116
53099 On ch=2 n=d#5 v=0
53099 On ch=2 n=f#5 v=0
53099 On ch=2 n=a#5 v=0
53100 On ch=2 n=c#6 v=116
53100 On ch=2 n=a#5 v=116
53100 On ch=2 n=f#5 v=116
53159 On ch=2 n=f#5 v=0
53159 On ch=2 n=a#5 v=0
53159 On ch=2 n=c#6 v=0
53160 On ch=2 n=a#4 v=116
53189 On ch=2 n=a#4 v=0
53190 On ch=2 n=b4 v=116
53219 On ch=2 n=b4 v=0
53220 On ch=2 n=a#5 v=116
53220 On ch=2 n=f5 v=116
53220 On ch=2 n=c#5 v=116
53279 On ch=2 n=c#5 v=0
53279 On ch=2 n=f5 v=0
53279 On ch=2 n=a#5 v=0
53280 On ch=2 n=c#6 v=116
53280 On ch=2 n=a#5 v=116
53280 On ch=2 n=f#5 v=116
53369 On ch=2 n=f#5 v=0
53369 On ch=2 n=a#5 v=0
53369 On ch=2 n=c#6 v=0
53370 On ch=2 n=d#5 v=116
53370 On ch=2 n=d#6 v=116
53370 On ch=2 n=b5 v=116
53399 On ch=2 n=b5 v=0
53399 On ch=2 n=d#6 v=0
53399 On ch=2 n=d#5 v=0
53400 On ch=2 n=f#5 v=116
53400 On ch=2 n=a#5 v=116
53400 On ch=2 n=c#6 v=116
53459 On ch=2 n=c#6 v=0
53459 On ch=2 n=a#5 v=0
53459 On ch=2 n=f#5 v=0
53460 On ch=2 n=f#5 v=116
53460 On ch=2 n=a#5 v=116
53460 On ch=2 n=c#6 v=116
53759 On ch=2 n=c#6 v=0
53759 On ch=2 n=a#5 v=0
53759 On ch=2 n=f#5 v=0
54090 On ch=2 n=c#4 v=116
54090 On ch=2 n=f#3 v=116
54119 On ch=2 n=f#3 v=0
54119 On ch=2 n=c#4 v=0
54120 On ch=2 n=c#5 v=116
54140 On ch=2 n=g#5 v=116
54159 On ch=2 n=g#5 v=0
54160 On ch=2 n=a5 v=116
54179 On ch=2 n=a5 v=0
54179 On ch=2 n=c#5 v=0
54180 On ch=2 n=f#5 v=116
54180 On ch=2 n=a#5 v=116
54269 On ch=2 n=a#5 v=0
54269 On ch=2 n=f#5 v=0
54270 On ch=2 n=f#3 v=116
54270 On ch=2 n=c#4 v=116
54299 On ch=2 n=c#4 v=0
54299 On ch=2 n=f#3 v=0
54300 On ch=2 n=c5 v=116
54320 On ch=2 n=f#5 v=116
54339 On ch=2 n=f#5 v=0
54340 On ch=2 n=g#5 v=116
54359 On ch=2 n=g#5 v=0
54359 On ch=2 n=c5 v=0
54360 On ch=2 n=a#5 v=116
54360 On ch=2 n=f5 v=116
54449 On ch=2 n=f5 v=0
54449 On ch=2 n=a#5 v=0
54450 On ch=2 n=f#3 v=116
54450 On ch=2 n=c#4 v=116
54479 On ch=2 n=c#4 v=0
54479 On ch=2 n=f#3 v=0
54480 On ch=2 n=b4 v=116
54500 On ch=2 n=f5 v=116
54519 On ch=2 n=f5 v=0
54520 On ch=2 n=g#5 v=116
54539 On ch=2 n=g#5 v=0
54539 On ch=2 n=b4 v=0
54540 On ch=2 n=f#5 v=116
54540 On ch=2 n=d#5 v=116
54540 On ch=2 n=a#5 v=116
54629 On ch=2 n=a#5 v=0
54629 On ch=2 n=d#5 v=0
54629 On ch=2 n=f#5 v=0
54630 On ch=2 n=f#3 v=116
54630 On ch=2 n=c#4 v=116
54659 On ch=2 n=c#4 v=0
54659 On ch=2 n=f#3 v=0
54660 On ch=2 n=d#5 v=116
54680 On ch=2 n=f#5 v=116
54699 On ch=2 n=f#5 v=0
54700 On ch=2 n=g#5 v=116
54719 On ch=2 n=g#5 v=0
54719 On ch=2 n=d#5 v=0
54720 On ch=2 n=a#5 v=116
54720 On ch=2 n=f#5 v=116
54720 On ch=2 n=c#5 v=116
55019 On ch=2 n=c#5 v=0
55019 On ch=2 n=f#5 v=0
55019 On ch=2 n=a#5 v=0
55260 On ch=2 n=b4 v=116
55260 On ch=2 n=d#5 v=116
55319 On ch=2 n=b4 v=0
55320 On ch=2 n=a#4 v=116
55379 On ch=2 n=a#4 v=0
55380 On ch=2 n=b4 v=116
55380 On ch=2 n=g#4 v=116
55439 On ch=2 n=g#4 v=0
55439 On ch=2 n=b4 v=0
55439 On ch=2 n=d#5 v=0
55440 On ch=2 n=g4 v=116
55440 On ch=2 n=a#4 v=116
55529 On ch=2 n=a#4 v=0
55529 On ch=2 n=g4 v=0
55530 On ch=2 n=a#3 v=116
55530 On ch=2 n=d#3 v=116
55559 On ch=2 n=d#3 v=0
55559 On ch=2 n=a#3 v=0
55560 On ch=2 n=a#4 v=116
55580 On ch=2 n=f5 v=116
55599 On ch=2 n=f5 v=0
55600 On ch=2 n=f#5 v=116
55619 On ch=2 n=f#5 v=0
55619 On ch=2 n=a#4 v=0
55620 On ch=2 n=g5 v=116
55620 On ch=2 n=d#5 v=116
55709 On ch=2 n=d#5 v=0
55709 On ch=2 n=g5 v=0
55710 On ch=2 n=a#3 v=116
55710 On ch=2 n=d#3 v=116
55739 On ch=2 n=d#3 v=0
55739 On ch=2 n=a#3 v=0
55740 On ch=2 n=a4 v=116
55760 On ch=2 n=d#5 v=116
55779 On ch=2 n=d#5 v=0
55780 On ch=2 n=f5 v=116
55799 On ch=2 n=f5 v=0
55799 On ch=2 n=a4 v=0
55800 On ch=2 n=g5 v=116
55800 On ch=2 n=d5 v=116
55889 On ch=2 n=d5 v=0
55889 On ch=2 n=g5 v=0
55890 On ch=2 n=a#3 v=116
55890 On ch=2 n=d#3 v=116
55919 On ch=2 n=d#3 v=0
55919 On ch=2 n=a#3 v=0
55920 On ch=2 n=g#4 v=116
55940 On ch=2 n=d5 v=116
55959 On ch=2 n=d5 v=0
55960 On ch=2 n=f5 v=116
55979 On ch=2 n=f5 v=0
55979 On ch=2 n=g#4 v=0
55980 On ch=2 n=g5 v=116
55980 On ch=2 n=d#5 v=116
55980 On ch=2 n=c5 v=116
56069 On ch=2 n=c5 v=0
56069 On ch=2 n=d#5 v=0
56069 On ch=2 n=g5 v=0
56070 On ch=2 n=a#3 v=116
56070 On ch=2 n=d#3 v=116
56099 On ch=2 n=d#3 v=0
56099 On ch=2 n=a#3 v=0
56100 On ch=2 n=f#4 v=116
56120 On ch=2 n=c5 v=116
56139 On ch=2 n=c5 v=0
56140 On ch=2 n=f5 v=116
56159 On ch=2 n=f5 v=0
56159 On ch=2 n=f#4 v=0
56160 On ch=2 n=g5 v=116
56160 On ch=2 n=d#5 v=116
56160 On ch=2 n=a#4 v=116
56459 On ch=2 n=a#4 v=0
56459 On ch=2 n=d#5 v=0
56459 On ch=2 n=g5 v=0
56700 On ch=2 n=d#5 v=116
56759 On ch=2 n=d#5 v=0
56760 On ch=2 n=d5 v=116
56819 On ch=2 n=d5 v=0
56820 On ch=2 n=c#5 v=116
56879 On ch=2 n=c#5 v=0
56880 On ch=2 n=d#3 v=116
56909 On ch=2 n=d#3 v=0
56910 On ch=2 n=c4 v=116
56939 On ch=2 n=c4 v=0
56940 On ch=2 n=a#4 v=116
56969 On ch=2 n=a#4 v=0
56970 On ch=2 n=c5 v=116
56999 On ch=2 n=c5 v=0
57000 On ch=2 n=g5 v=116
57089 On ch=2 n=g5 v=0
57090 On ch=2 n=c5 v=116
57119 On ch=2 n=c5 v=0
57120 On ch=2 n=a#4 v=116
57149 On ch=2 n=a#4 v=0
57150 On ch=2 n=c4 v=116
57179 On ch=2 n=c4 v=0
57180 On ch=2 n=d#3 v=116
57269 On ch=2 n=d#3 v=0
57270 On ch=2 n=c4 v=116
57299 On ch=2 n=c4 v=0
57300 On ch=2 n=a#4 v=116
57329 On ch=2 n=a#4 v=0
57330 On ch=2 n=c5 v=116
57359 On ch=2 n=c5 v=0
57360 On ch=2 n=g5 v=116
57449 On ch=2 n=g5 v=0
57450 On ch=2 n=c5 v=116
57479 On ch=2 n=c5 v=0
57480 On ch=2 n=a#4 v=116
57509 On ch=2 n=a#4 v=0
57510 On ch=2 n=c4 v=116
57539 On ch=2 n=c4 v=0
57540 On ch=2 n=e3 v=116
57629 On ch=2 n=e3 v=0
57630 On ch=2 n=c4 v=116
57659 On ch=2 n=c4 v=0
57660 On ch=2 n=g4 v=116
57689 On ch=2 n=g4 v=0
57690 On ch=2 n=c5 v=116
57719 On ch=2 n=c5 v=0
57720 On ch=2 n=a#5 v=116
57809 On ch=2 n=a#5 v=0
57810 On ch=2 n=c5 v=116
57839 On ch=2 n=c5 v=0
57840 On ch=2 n=g4 v=116
57869 On ch=2 n=g4 v=0
57870 On ch=2 n=c4 v=116
57899 On ch=2 n=c4 v=0
57900 On ch=2 n=e3 v=116
57989 On ch=2 n=e3 v=0
57990 On ch=2 n=c4 v=116
58019 On ch=2 n=c4 v=0
58020 On ch=2 n=g4 v=116
58049 On ch=2 n=g4 v=0
58050 On ch=2 n=c5 v=116
58079 On ch=2 n=c5 v=0
58080 On ch=2 n=a#5 v=116
58139 On ch=2 n=a#5 v=0
58170 On ch=2 n=c5 v=116
58199 On ch=2 n=c5 v=0
58200 On ch=2 n=g4 v=116
58229 On ch=2 n=g4 v=0
58230 On ch=2 n=c4 v=116
58259 On ch=2 n=c4 v=0
58260 On ch=2 n=e3 v=116
58319 On ch=2 n=e3 v=0
58320 On ch=2 n=f2 v=116
58349 On ch=2 n=f2 v=0
58350 On ch=2 n=f3 v=116
58379 On ch=2 n=f3 v=0
58380 On ch=2 n=c4 v=116
58409 On ch=2 n=c4 v=0
58410 On ch=2 n=a#4 v=116
58439 On ch=2 n=a#4 v=0
58440 On ch=2 n=c5 v=116
58499 On ch=2 n=c5 v=0
58530 On ch=2 n=c5 v=116
58559 On ch=2 n=c5 v=0
58560 On ch=2 n=a#4 v=116
58589 On ch=2 n=a#4 v=0
58590 On ch=2 n=c4 v=116
58619 On ch=2 n=c4 v=0
58650 On ch=2 n=c4 v=116
58679 On ch=2 n=c4 v=0
58680 On ch=2 n=f3 v=116
58709 On ch=2 n=f3 v=0
58710 On ch=2 n=c4 v=116
58739 On ch=2 n=c4 v=0
58740 On ch=2 n=c4 v=116
58769 On ch=2 n=c4 v=0
58770 On ch=2 n=a#4 v=116
58799 On ch=2 n=a#4 v=0
58800 On ch=2 n=c5 v=116
58889 On ch=2 n=c5 v=0
58890 On ch=2 n=c5 v=116
58919 On ch=2 n=c5 v=0
58920 On ch=2 n=a#4 v=116
58949 On ch=2 n=a#4 v=0
58950 On ch=2 n=c4 v=116
58979 On ch=2 n=c4 v=0
59010 On ch=2 n=c4 v=116
59039 On ch=2 n=c4 v=0
59040 On ch=2 n=f3 v=116
59069 On ch=2 n=f3 v=0
59070 On ch=2 n=c4 v=116
59099 On ch=2 n=c4 v=0
59100 On ch=2 n=c4 v=116
59129 On ch=2 n=c4 v=0
59130 On ch=2 n=a#4 v=116
59159 On ch=2 n=a#4 v=0
59160 On ch=2 n=c5 v=116
59249 On ch=2 n=c5 v=0
59250 On ch=2 n=c5 v=116
59279 On ch=2 n=c5 v=0
59280 On ch=2 n=a#4 v=116
59309 On ch=2 n=a#4 v=0
59310 On ch=2 n=c4 v=116
59339 On ch=2 n=c4 v=0
59370 On ch=2 n=f3 v=116
59399 On ch=2 n=f3 v=0
59400 On ch=2 n=f2 v=116
59429 On ch=2 n=f2 v=0
59430 On ch=2 n=f3 v=116
59459 On ch=2 n=f3 v=0
59460 On ch=2 n=d#4 v=116
59489 On ch=2 n=d#4 v=0
59490 On ch=2 n=f#4 v=116
59519 On ch=2 n=f#4 v=0
59520 On ch=2 n=d#5 v=116
59609 On ch=2 n=d#5 v=0
59610 On ch=2 n=f#4 v=116
59639 On ch=2 n=f#4 v=0
59640 On ch=2 n=d#4 v=116
59669 On ch=2 n=d#4 v=0
59670 On ch=2 n=f3 v=116
59699 On ch=2 n=f3 v=0
59730 On ch=2 n=f3 v=116
59759 On ch=2 n=f3 v=0
59760 On ch=2 n=f2 v=116
59789 On ch=2 n=f2 v=0
59790 On ch=2 n=f3 v=116
59819 On ch=2 n=f3 v=0
59820 On ch=2 n=d#4 v=116
59849 On ch=2 n=d#4 v=0
59850 On ch=2 n=f#4 v=116
59879 On ch=2 n=f#4 v=0
59880 On ch=2 n=d5 v=116
59969 On ch=2 n=d5 v=0
59970 On ch=2 n=f#4 v=116
59999 On ch=2 n=f#4 v=0
60000 On ch=2 n=d#4 v=116
60029 On ch=2 n=d#4 v=0
60030 On ch=2 n=f3 v=116
60059 On ch=2 n=f3 v=0
60090 On ch=2 n=f3 v=116
60119 On ch=2 n=f3 v=0
60120 On ch=2 n=f2 v=116
60149 On ch=2 n=f2 v=0
60150 On ch=2 n=f3 v=116
60179 On ch=2 n=f3 v=0
60180 On ch=2 n=d#4 v=116
60209 On ch=2 n=d#4 v=0
60210 On ch=2 n=f#4 v=116
60239 On ch=2 n=f#4 v=0
60240 On ch=2 n=c#5 v=116
60299 On ch=2 n=c#5 v=0
60330 On ch=2 n=f#4 v=116
60359 On ch=2 n=f#4 v=0
60360 On ch=2 n=d#4 v=116
60389 On ch=2 n=d#4 v=0
60390 On ch=2 n=f3 v=116
60419 On ch=2 n=f3 v=0
60420 On ch=2 n=a4 v=116
60420 On ch=2 n=d#4 v=116
60479 On ch=2 n=d#4 v=0
60479 On ch=2 n=a4 v=0
60480 On ch=2 n=a#1 v=116
60480 On ch=2 n=f2 v=116
60480 On ch=2 n=a#2 v=116
60480 On ch=2 n=a#3 v=116
60480 On ch=2 n=f4 v=116
60480 On ch=2 n=a#4 v=116
60540 On ch=2 n=f4 v=116
60540 On ch=2 n=d4 v=116
60540 On ch=2 n=a#3 v=116
60540 On ch=2 n=f#3 v=116
60659 On ch=2 n=f#3 v=0
60659 On ch=2 n=a#3 v=0
60659 On ch=2 n=f4 v=0
60659 On ch=2 n=d4 v=0
60660 On ch=2 n=f4 v=116
60660 On ch=2 n=d4 v=116
60660 On ch=2 n=a#3 v=116
60660 On ch=2 n=g3 v=116
60779 On ch=2 n=g3 v=0
60779 On ch=2 n=a#3 v=0
60779 On ch=2 n=f4 v=0
60779 On ch=2 n=d4 v=0
60780 On ch=2 n=g#3 v=116
60780 On ch=2 n=a#3 v=116
60780 On ch=2 n=d4 v=116
60780 On ch=2 n=f4 v=116
60839 On ch=2 n=f4 v=0
60839 On ch=2 n=a#1 v=0
60839 On ch=2 n=a#2 v=0
60839 On ch=2 n=a#3 v=0
60839 On ch=2 n=f4 v=0
60839 On ch=2 n=f2 v=0
60839 On ch=2 n=a#3 v=0
60839 On ch=2 n=g#3 v=0
60839 On ch=2 n=a#4 v=0
60839 On ch=2 n=d4 v=0
60840 On ch=2 n=f#3 v=116
60840 On ch=2 n=d3 v=116
60840 On ch=2 n=a2 v=116
60840 On ch=2 n=a3 v=116
60900 On ch=2 n=a#4 v=116
60900 On ch=2 n=e4 v=116
60900 On ch=2 n=c#4 v=116
61019 On ch=2 n=c#4 v=0
61019 On ch=2 n=a#4 v=0
61019 On ch=2 n=e4 v=0
61020 On ch=2 n=f4 v=116
61020 On ch=2 n=c#4 v=116
61020 On ch=2 n=a#4 v=116
61139 On ch=2 n=a#4 v=0
61139 On ch=2 n=f4 v=0
61139 On ch=2 n=c#4 v=0
61140 On ch=2 n=f#4 v=116
61140 On ch=2 n=c#4 v=116
61140 On ch=2 n=a#4 v=116
61199 On ch=2 n=a#4 v=0
61199 On ch=2 n=f#4 v=0
61199 On ch=2 n=d3 v=0
61199 On ch=2 n=a2 v=0
61199 On ch=2 n=f#3 v=0
61199 On ch=2 n=c#4 v=0
61199 On ch=2 n=a3 v=0
61200 On ch=2 n=f4 v=116
61200 On ch=2 n=a#3 v=116
61200 On ch=2 n=a#4 v=116
61260 On ch=2 n=c#5 v=116
61260 On ch=2 n=b4 v=116
61260 On ch=2 n=f4 v=116
61379 On ch=2 n=f4 v=0
61379 On ch=2 n=c#5 v=0
61379 On ch=2 n=b4 v=0
61380 On ch=2 n=c5 v=116
61380 On ch=2 n=c#5 v=116
61380 On ch=2 n=f4 v=116
61499 On ch=2 n=f4 v=0
61499 On ch=2 n=c5 v=0
61499 On ch=2 n=c#5 v=0
61500 On ch=2 n=c#5 v=116
61500 On ch=2 n=f4 v=116
61559 On ch=2 n=f4 v=0
61559 On ch=2 n=a#3 v=0
61559 On ch=2 n=a#4 v=0
61559 On ch=2 n=f4 v=0
61559 On ch=2 n=c#5 v=0
61560 On ch=2 n=f3 v=116
61560 On ch=2 n=c#3 v=116
61560 On ch=2 n=g#3 v=116
61560 On ch=2 n=g#2 v=116
61620 On ch=2 n=c#5 v=116
61620 On ch=2 n=d#5 v=116
61620 On ch=2 n=a#5 v=116
61739 On ch=2 n=a#5 v=0
61739 On ch=2 n=c#5 v=0
61739 On ch=2 n=d#5 v=0
61740 On ch=2 n=c#5 v=116
61740 On ch=2 n=e5 v=116
61740 On ch=2 n=a#5 v=116
61859 On ch=2 n=a#5 v=0
61859 On ch=2 n=c#5 v=0
61859 On ch=2 n=e5 v=0
61860 On ch=2 n=a#5 v=116
61860 On ch=2 n=f5 v=116
61860 On ch=2 n=c#5 v=116
61919 On ch=2 n=c#5 v=0
61919 On ch=2 n=a#5 v=0
61919 On ch=2 n=c#3 v=0
61919 On ch=2 n=g#3 v=0
61919 On ch=2 n=f3 v=0
61919 On ch=2 n=f5 v=0
61919 On ch=2 n=g#2 v=0
61920 On ch=2 n=a#2 v=116
61920 On ch=2 n=a#3 v=116
62039 On ch=2 n=a#3 v=0
62039 On ch=2 n=a#2 v=0
62040 On ch=2 n=a2 v=116
62040 On ch=2 n=a3 v=116
62099 On ch=2 n=a3 v=0
62099 On ch=2 n=a2 v=0
62100 On ch=2 n=f#2 v=116
62100 On ch=2 n=f#3 v=116
62219 On ch=2 n=f#3 v=0
62219 On ch=2 n=f#2 v=0
62220 On ch=2 n=g2 v=116
62220 On ch=2 n=g3 v=116
62279 On ch=2 n=g3 v=0
62279 On ch=2 n=g2 v=0
62280 On ch=2 n=a#2 v=116
62280 On ch=2 n=a#3 v=116
62399 On ch=2 n=a#3 v=0
62399 On ch=2 n=a#2 v=0
62400 On ch=2 n=a2 v=116
62400 On ch=2 n=a3 v=116
62459 On ch=2 n=a3 v=0
62459 On ch=2 n=a2 v=0
62460 On ch=2 n=f2 v=116
62460 On ch=2 n=f3 v=116
62579 On ch=2 n=f3 v=0
62579 On ch=2 n=f2 v=0
62580 On ch=2 n=f#2 v=116
62580 On ch=2 n=f#3 v=116
62639 On ch=2 n=f#3 v=0
62639 On ch=2 n=f#2 v=0
62640 On ch=2 n=a#2 v=116
62640 On ch=2 n=a#3 v=116
62759 On ch=2 n=a#3 v=0
62759 On ch=2 n=a#2 v=0
62760 On ch=2 n=a2 v=116
62760 On ch=2 n=a3 v=116
62819 On ch=2 n=a3 v=0
62819 On ch=2 n=a2 v=0
62820 On ch=2 n=e2 v=116
62820 On ch=2 n=e3 v=116
62939 On ch=2 n=e3 v=0
62939 On ch=2 n=e2 v=0
62940 On ch=2 n=f2 v=116
62940 On ch=2 n=f3 v=116
62999 On ch=2 n=f3 v=0
62999 On ch=2 n=f2 v=0
63000 On ch=2 n=a#2 v=116
63000 On ch=2 n=a#3 v=116
63119 On ch=2 n=a#3 v=0
63119 On ch=2 n=a#2 v=0
63120 On ch=2 n=a2 v=116
63120 On ch=2 n=a3 v=116
63179 On ch=2 n=a3 v=0
63179 On ch=2 n=a2 v=0
63180 On ch=2 n=e2 v=116
63180 On ch=2 n=e3 v=116
63299 On ch=2 n=e3 v=0
63299 On ch=2 n=e2 v=0
63300 On ch=2 n=f2 v=116
63300 On ch=2 n=f3 v=116
63359 On ch=2 n=f3 v=0
63359 On ch=2 n=f2 v=0
63360 On ch=2 n=a#2 v=116
63360 On ch=2 n=f#3 v=116
63419 On ch=2 n=f#3 v=0
63420 On ch=2 n=f3 v=116
63479 On ch=2 n=f3 v=0
63480 On ch=2 n=e3 v=116
63539 On ch=2 n=e3 v=0
63540 On ch=2 n=d#3 v=116
63599 On ch=2 n=d#3 v=0
63600 On ch=2 n=d3 v=116
63659 On ch=2 n=d3 v=0
63660 On ch=2 n=c#3 v=116
63719 On ch=2 n=c#3 v=0
63719 On ch=2 n=a#2 v=0
63720 On ch=2 n=c#4 v=116
63720 On ch=2 n=a#2 v=116
63779 On ch=2 n=c#4 v=0
63780 On ch=2 n=c4 v=116
63839 On ch=2 n=c4 v=0
63840 On ch=2 n=b3 v=116
63899 On ch=2 n=b3 v=0
63900 On ch=2 n=a#3 v=116
63959 On ch=2 n=a#3 v=0
63960 On ch=2 n=a3 v=116
64019 On ch=2 n=a3 v=0
64020 On ch=2 n=g#3 v=116
64079 On ch=2 n=g#3 v=0
64079 On ch=2 n=a#2 v=0
64080 On ch=2 n=f#4 v=116
64080 On ch=2 n=a#2 v=116
64139 On ch=2 n=f#4 v=0
64140 On ch=2 n=f4 v=116
64199 On ch=2 n=f4 v=0
64200 On ch=2 n=e4 v=116
64259 On ch=2 n=e4 v=0
64260 On ch=2 n=a#3 v=116
64260 On ch=2 n=d#4 v=116
64319 On ch=2 n=d#4 v=0
64320 On ch=2 n=d4 v=116
64379 On ch=2 n=d4 v=0
64380 On ch=2 n=c#4 v=116
64439 On ch=2 n=c#4 v=0
64439 On ch=2 n=a#3 v=0
64439 On ch=2 n=a#2 v=0
64440 On ch=2 n=a#4 v=116
64440 On ch=2 n=a#2 v=116
64499 On ch=2 n=a#4 v=0
64500 On ch=2 n=a4 v=116
64559 On ch=2 n=a4 v=0
64560 On ch=2 n=g#4 v=116
64619 On ch=2 n=g#4 v=0
64620 On ch=2 n=a#3 v=116
64620 On ch=2 n=g4 v=116
64679 On ch=2 n=g4 v=0
64680 On ch=2 n=f#4 v=116
64739 On ch=2 n=f#4 v=0
64740 On ch=2 n=f4 v=116
64799 On ch=2 n=f4 v=0
64799 On ch=2 n=a#3 v=0
64799 On ch=2 n=a#2 v=0
64800 On ch=2 n=f4 v=116
64800 On ch=2 n=a#4 v=116
64800 On ch=2 n=a#3 v=116
64860 On ch=2 n=a#6 v=116
64919 On ch=2 n=a#6 v=0
64920 On ch=2 n=a6 v=116
64979 On ch=2 n=a6 v=0
64979 On ch=2 n=a#3 v=0
64979 On ch=2 n=a#4 v=0
64979 On ch=2 n=f4 v=0
64980 On ch=2 n=g#6 v=116
65039 On ch=2 n=g#6 v=0
65040 On ch=2 n=a5 v=116
65099 On ch=2 n=a5 v=0
65100 On ch=2 n=g#5 v=116
65159 On ch=2 n=g#5 v=0
65160 On ch=2 n=g5 v=116
65219 On ch=2 n=g5 v=0
65220 On ch=2 n=g#4 v=116
65279 On ch=2 n=g#4 v=0
65280 On ch=2 n=g4 v=116
65339 On ch=2 n=g4 v=0
65340 On ch=2 n=f#4 v=116
65399 On ch=2 n=f#4 v=0
65400 On ch=2 n=g3 v=116
65459 On ch=2 n=g3 v=0
65460 On ch=2 n=f#3 v=116
65519 On ch=2 n=f#3 v=0
65520 On ch=2 n=a#2 v=116
65879 On ch=2 n=a#2 v=0
66060 On ch=2 n=g#3 v=116
66070 On ch=2 n=f4 v=116
66080 On ch=2 n=g#4 v=116
66419 On ch=2 n=g#4 v=0
66419 On ch=2 n=f4 v=0
66419 On ch=2 n=g#3 v=0
66420 On ch=2 n=a#2 v=116
66430 On ch=2 n=f3 v=116
66440 On ch=2 n=a#3 v=116
66450 On ch=2 n=c#4 v=116
66460 On ch=2 n=f4 v=116
66470 On ch=2 n=a#4 v=116
66480 On ch=2 n=c#5 v=116
67139 On ch=2 n=c#5 v=0
67139 On ch=2 n=f4 v=0
67139 On ch=2 n=f3 v=0
67139 On ch=2 n=a#3 v=0
67139 On ch=2 n=a#2 v=0
67139 On ch=2 n=a#4 v=0
67139 On ch=2 n=c#4 v=0
67140 On ch=2 n=e5 v=116
67140 On ch=2 n=c#5 v=116
67140 On ch=2 n=f#4 v=116
67619 On ch=2 n=f#4 v=0
67619 On ch=2 n=c#5 v=0
67619 On ch=2 n=e5 v=0
67620 On ch=2 n=e4 v=116
67620 On ch=2 n=c4 v=116
67979 On ch=2 n=c4 v=0
67979 On ch=2 n=e4 v=0
67980 On ch=2 n=d4 v=116
67980 On ch=2 n=b3 v=116
68099 On ch=2 n=b3 v=0
68099 On ch=2 n=d4 v=0
68100 On ch=2 n=c4 v=116
68100 On ch=2 n=a3 v=116
68459 On ch=2 n=a3 v=0
68460 On ch=2 n=g#3 v=116
68579 On ch=2 n=g#3 v=0
68579 On ch=2 n=c4 v=0
68580 On ch=2 n=c3 v=116
68580 On ch=2 n=g3 v=116
68819 On ch=2 n=g3 v=0
68820 On ch=2 n=f#3 v=116
68939 On ch=2 n=f#3 v=0
68940 On ch=2 n=f3 v=116
69059 On ch=2 n=f3 v=0
69059 On ch=2 n=c3 v=0
69060 On ch=2 n=a3 v=116
69060 On ch=2 n=e4 v=116
69299 On ch=2 n=e4 v=0
69300 On ch=2 n=d#4 v=116
69419 On ch=2 n=d#4 v=0
69419 On ch=2 n=a3 v=0
69420 On ch=2 n=g3 v=116
69420 On ch=2 n=d4 v=116
69479 On ch=2 n=d4 v=0
69480 On ch=2 n=c#4 v=116
69539 On ch=2 n=c#4 v=0
69539 On ch=2 n=g3 v=0
69540 On ch=2 n=d3 v=116
69540 On ch=2 n=d4 v=116
69779 On ch=2 n=d4 v=0
69779 On ch=2 n=d3 v=0
69780 On ch=2 n=d4 v=116
69780 On ch=2 n=b2 v=116
70019 On ch=2 n=b2 v=0
70019 On ch=2 n=d4 v=0
70020 On ch=2 n=d3 v=116
70020 On ch=2 n=d4 v=116
70319 On ch=2 n=d4 v=0
70319 On ch=2 n=d3 v=0
70380 On ch=2 n=e3 v=116
70380 On ch=2 n=e4 v=116
70499 On ch=2 n=e4 v=0
70499 On ch=2 n=e3 v=0
70500 On ch=2 n=a2 v=116
70500 On ch=2 n=a3 v=116
70679 On ch=2 n=a2 v=0
70680 On ch=2 n=e4 v=116
71039 On ch=2 n=e4 v=0
71039 On ch=2 n=a3 v=0
71040 On ch=2 n=d4 v=116
71219 On ch=2 n=d4 v=0
71220 On ch=2 n=g3 v=116
71220 On ch=2 n=g2 v=116
71399 On ch=2 n=g2 v=0
71400 On ch=2 n=d4 v=116
71759 On ch=2 n=d4 v=0
71759 On ch=2 n=g3 v=0
71760 On ch=2 n=c4 v=116
71939 On ch=2 n=c4 v=0
71940 On ch=2 n=f#2 v=116
71940 On ch=2 n=f#3 v=116
72119 On ch=2 n=f#2 v=0
72120 On ch=2 n=c4 v=116
72479 On ch=2 n=c4 v=0
72479 On ch=2 n=f#3 v=0
72480 On ch=2 n=b3 v=116
72599 On ch=2 n=b3 v=0
72600 On ch=2 n=c4 v=116
72659 On ch=2 n=c4 v=0
72660 On ch=2 n=e3 v=116
72660 On ch=2 n=c#4 v=116
72719 On ch=2 n=c#4 v=0
72720 On ch=2 n=g4 v=116
72779 On ch=2 n=g4 v=0
72780 On ch=2 n=c#5 v=116
72839 On ch=2 n=e3 v=0
72840 On ch=2 n=b4 v=116
72840 On ch=2 n=e5 v=116
72959 On ch=2 n=e5 v=0
72959 On ch=2 n=c#5 v=0
72960 On ch=2 n=d#5 v=116
73139 On ch=2 n=d#5 v=0
73139 On ch=2 n=b4 v=0
73200 On ch=2 n=e4 v=116
73379 On ch=2 n=e4 v=0
73380 On ch=2 n=a2 v=116
73380 On ch=2 n=a3 v=116
73500 On ch=2 n=e4 v=116
73559 On ch=2 n=e4 v=0
73559 On ch=2 n=a3 v=0
73559 On ch=2 n=a2 v=0
73560 On ch=2 n=e5 v=116
73679 On ch=2 n=e5 v=0
73680 On ch=2 n=g4 v=116
73739 On ch=2 n=g4 v=0
73740 On ch=2 n=e4 v=116
73859 On ch=2 n=e4 v=0
73860 On ch=2 n=a3 v=116
73919 On ch=2 n=a3 v=0
73920 On ch=2 n=d4 v=116
74039 On ch=2 n=d4 v=0
74040 On ch=2 n=f#4 v=116
74099 On ch=2 n=f#4 v=0
74100 On ch=2 n=g2 v=116
74100 On ch=2 n=g3 v=116
74220 On ch=2 n=d4 v=116
74279 On ch=2 n=d4 v=0
74279 On ch=2 n=g3 v=0
74279 On ch=2 n=g2 v=0
74280 On ch=2 n=d5 v=116
74399 On ch=2 n=d5 v=0
74400 On ch=2 n=f#4 v=116
74459 On ch=2 n=f#4 v=0
74460 On ch=2 n=d4 v=116
74579 On ch=2 n=d4 v=0
74580 On ch=2 n=g3 v=116
74639 On ch=2 n=g3 v=0
74640 On ch=2 n=c4 v=116
74759 On ch=2 n=c4 v=0
74760 On ch=2 n=e3 v=116
74819 On ch=2 n=e3 v=0
74820 On ch=2 n=f#2 v=116
74820 On ch=2 n=f#3 v=116
74940 On ch=2 n=c4 v=116
74999 On ch=2 n=c4 v=0
74999 On ch=2 n=f#3 v=0
74999 On ch=2 n=f#2 v=0
75000 On ch=2 n=c5 v=116
75119 On ch=2 n=c5 v=0
75120 On ch=2 n=e4 v=116
75179 On ch=2 n=e4 v=0
75180 On ch=2 n=c4 v=116
75299 On ch=2 n=c4 v=0
75300 On ch=2 n=f#3 v=116
75359 On ch=2 n=f#3 v=0
75360 On ch=2 n=b3 v=116
75479 On ch=2 n=b3 v=0
75480 On ch=2 n=g#4 v=116
75480 On ch=2 n=c4 v=116
75539 On ch=2 n=c4 v=0
75539 On ch=2 n=g#4 v=0
75540 On ch=2 n=g4 v=116
75540 On ch=2 n=c#4 v=116
75540 On ch=2 n=e3 v=116
75599 On ch=2 n=c#4 v=0
75599 On ch=2 n=g4 v=0
75600 On ch=2 n=c#5 v=116
75659 On ch=2 n=c#5 v=0
75660 On ch=2 n=e5 v=116
75719 On ch=2 n=e5 v=0
75719 On ch=2 n=e3 v=0
75720 On ch=2 n=b4 v=116
75720 On ch=2 n=d#5 v=116
75839 On ch=2 n=b4 v=0
75840 On ch=2 n=a#4 v=116
75899 On ch=2 n=a#4 v=0
75900 On ch=2 n=a4 v=116
76019 On ch=2 n=d#5 v=0
76020 On ch=2 n=g5 v=116
76079 On ch=2 n=g5 v=0
76079 On ch=2 n=a4 v=0
76080 On ch=2 n=c5 v=116
76080 On ch=2 n=f#5 v=116
76169 On ch=2 n=f#5 v=0
76169 On ch=2 n=c5 v=0
76170 On ch=2 n=g4 v=116
76170 On ch=2 n=e5 v=116
76199 On ch=2 n=e5 v=0
76199 On ch=2 n=g4 v=0
76200 On ch=2 n=d5 v=116
76200 On ch=2 n=f#4 v=116
76259 On ch=2 n=f#4 v=0
76259 On ch=2 n=d5 v=0
76260 On ch=2 n=g3 v=116
76266 On ch=2 n=g3 v=0
76267 On ch=2 n=d4 v=116
76273 On ch=2 n=d4 v=0
76274 On ch=2 n=b4 v=116
76281 On ch=2 n=b5 v=116
76281 On ch=2 n=g5 v=116
76281 On ch=2 n=d5 v=116
76283 On ch=2 n=b4 v=0
76295 On ch=2 n=e5 v=116
76295 On ch=2 n=c6 v=116
76301 On ch=2 n=b5 v=0
76301 On ch=2 n=d5 v=0
76301 On ch=2 n=g5 v=0
76323 On ch=2 n=d5 v=116
76323 On ch=2 n=b5 v=116
76324 On ch=2 n=e5 v=0
76324 On ch=2 n=c6 v=0
76352 On ch=2 n=d5 v=0
76352 On ch=2 n=b5 v=0
76379 On ch=2 n=a5 v=116
76379 On ch=2 n=f#5 v=116
76379 On ch=2 n=c5 v=116
76407 On ch=2 n=a#5 v=116
76408 On ch=2 n=c5 v=0
76408 On ch=2 n=a5 v=0
76410 On ch=2 n=d5 v=116
76439 On ch=2 n=d5 v=0
76440 On ch=2 n=c5 v=116
76440 On ch=2 n=a5 v=116
76441 On ch=2 n=a#5 v=0
76468 On ch=2 n=f#5 v=0
76469 On ch=2 n=c5 v=0
76469 On ch=2 n=a5 v=0
76500 On ch=2 n=e5 v=116
76500 On ch=2 n=g5 v=116
76500 On ch=2 n=b4 v=116
76529 On ch=2 n=b4 v=0
76529 On ch=2 n=g5 v=0
76530 On ch=2 n=a5 v=116
76530 On ch=2 n=c5 v=116
76559 On ch=2 n=c5 v=0
76559 On ch=2 n=a5 v=0
76560 On ch=2 n=b4 v=116
76560 On ch=2 n=g5 v=116
76589 On ch=2 n=g5 v=0
76589 On ch=2 n=b4 v=0
76589 On ch=2 n=e5 v=0
76620 On ch=2 n=e5 v=116
76620 On ch=2 n=c5 v=116
76649 On ch=2 n=c5 v=0
76649 On ch=2 n=e5 v=0
76650 On ch=2 n=f#5 v=116
76650 On ch=2 n=d5 v=116
76679 On ch=2 n=d5 v=0
76679 On ch=2 n=f#5 v=0
76680 On ch=2 n=e5 v=116
76680 On ch=2 n=c5 v=116
76709 On ch=2 n=c5 v=0
76709 On ch=2 n=e5 v=0
76710 On ch=2 n=a5 v=116
76710 On ch=2 n=f#5 v=116
76739 On ch=2 n=f#5 v=0
76739 On ch=2 n=a5 v=0
76740 On ch=2 n=g3 v=116
76746 On ch=2 n=g3 v=0
76747 On ch=2 n=d4 v=116
76753 On ch=2 n=d4 v=0
76754 On ch=2 n=b4 v=116
76761 On ch=2 n=b5 v=116
76761 On ch=2 n=g5 v=116
76761 On ch=2 n=d5 v=116
76763 On ch=2 n=b4 v=0
76775 On ch=2 n=e5 v=116
76775 On ch=2 n=c6 v=116
76781 On ch=2 n=b5 v=0
76781 On ch=2 n=d5 v=0
76781 On ch=2 n=g5 v=0
76803 On ch=2 n=d5 v=116
76803 On ch=2 n=b5 v=116
76804 On ch=2 n=e5 v=0
76804 On ch=2 n=c6 v=0
76832 On ch=2 n=d5 v=0
76832 On ch=2 n=b5 v=0
76859 On ch=2 n=a5 v=116
76859 On ch=2 n=f#5 v=116
76859 On ch=2 n=c5 v=116
76887 On ch=2 n=a#5 v=116
76888 On ch=2 n=c5 v=0
76888 On ch=2 n=a5 v=0
76890 On ch=2 n=d5 v=116
76919 On ch=2 n=d5 v=0
76920 On ch=2 n=c5 v=116
76920 On ch=2 n=a5 v=116
76921 On ch=2 n=a#5 v=0
76948 On ch=2 n=f#5 v=0
76949 On ch=2 n=c5 v=0
76949 On ch=2 n=a5 v=0
76980 On ch=2 n=e5 v=116
76980 On ch=2 n=g5 v=116
76980 On ch=2 n=b4 v=116
77009 On ch=2 n=b4 v=0
77009 On ch=2 n=g5 v=0
77010 On ch=2 n=a5 v=116
77010 On ch=2 n=c5 v=116
77039 On ch=2 n=c5 v=0
77039 On ch=2 n=a5 v=0
77040 On ch=2 n=b4 v=116
77040 On ch=2 n=g5 v=116
77069 On ch=2 n=g5 v=0
77069 On ch=2 n=b4 v=0
77069 On ch=2 n=e5 v=0
77100 On ch=2 n=e5 v=116
77100 On ch=2 n=c5 v=116
77129 On ch=2 n=c5 v=0
77129 On ch=2 n=e5 v=0
77130 On ch=2 n=f#5 v=116
77130 On ch=2 n=d5 v=116
77159 On ch=2 n=d5 v=0
77159 On ch=2 n=f#5 v=0
77160 On ch=2 n=e5 v=116
77160 On ch=2 n=c5 v=116
77189 On ch=2 n=c5 v=0
77189 On ch=2 n=e5 v=0
77190 On ch=2 n=a5 v=116
77190 On ch=2 n=f#5 v=116
77219 On ch=2 n=f#5 v=0
77219 On ch=2 n=a5 v=0
77220 On ch=2 n=e3 v=116
77226 On ch=2 n=e3 v=0
77227 On ch=2 n=b3 v=116
77233 On ch=2 n=b3 v=0
77234 On ch=2 n=g4 v=116
77241 On ch=2 n=b5 v=116
77241 On ch=2 n=g5 v=116
77241 On ch=2 n=d5 v=116
77243 On ch=2 n=g4 v=0
77255 On ch=2 n=e5 v=116
77255 On ch=2 n=c6 v=116
77261 On ch=2 n=b5 v=0
77261 On ch=2 n=d5 v=0
77261 On ch=2 n=g5 v=0
77283 On ch=2 n=d5 v=116
77283 On ch=2 n=b5 v=116
77284 On ch=2 n=e5 v=0
77284 On ch=2 n=c6 v=0
77312 On ch=2 n=d5 v=0
77312 On ch=2 n=b5 v=0
77339 On ch=2 n=a5 v=116
77339 On ch=2 n=f#5 v=116
77339 On ch=2 n=c5 v=116
77367 On ch=2 n=a#5 v=116
77368 On ch=2 n=c5 v=0
77368 On ch=2 n=a5 v=0
77370 On ch=2 n=d5 v=116
77399 On ch=2 n=d5 v=0
77400 On ch=2 n=c5 v=116
77400 On ch=2 n=a5 v=116
77401 On ch=2 n=a#5 v=0
77428 On ch=2 n=f#5 v=0
77429 On ch=2 n=c5 v=0
77429 On ch=2 n=a5 v=0
77460 On ch=2 n=e5 v=116
77460 On ch=2 n=g5 v=116
77460 On ch=2 n=b4 v=116
77489 On ch=2 n=b4 v=0
77489 On ch=2 n=g5 v=0
77490 On ch=2 n=a5 v=116
77490 On ch=2 n=c5 v=116
77519 On ch=2 n=c5 v=0
77519 On ch=2 n=a5 v=0
77520 On ch=2 n=b4 v=116
77520 On ch=2 n=g5 v=116
77549 On ch=2 n=g5 v=0
77549 On ch=2 n=b4 v=0
77549 On ch=2 n=e5 v=0
77580 On ch=2 n=e5 v=116
77580 On ch=2 n=c5 v=116
77580 On ch=2 n=a4 v=116
77609 On ch=2 n=a4 v=0
77609 On ch=2 n=c5 v=0
77610 On ch=2 n=d5 v=116
77610 On ch=2 n=b4 v=116
77639 On ch=2 n=b4 v=0
77639 On ch=2 n=d5 v=0
77640 On ch=2 n=c5 v=116
77640 On ch=2 n=a4 v=116
77669 On ch=2 n=a4 v=0
77669 On ch=2 n=c5 v=0
77669 On ch=2 n=e5 v=0
77670 On ch=2 n=e5 v=116
77670 On ch=2 n=a5 v=116
77699 On ch=2 n=a5 v=0
77699 On ch=2 n=e5 v=0
77700 On ch=2 n=e3 v=116
77706 On ch=2 n=e3 v=0
77707 On ch=2 n=b3 v=116
77713 On ch=2 n=b3 v=0
77714 On ch=2 n=g4 v=116
77721 On ch=2 n=b5 v=116
77721 On ch=2 n=g5 v=116
77721 On ch=2 n=d5 v=116
77723 On ch=2 n=g4 v=0
77735 On ch=2 n=e5 v=116
77735 On ch=2 n=c6 v=116
77741 On ch=2 n=b5 v=0
77741 On ch=2 n=d5 v=0
77741 On ch=2 n=g5 v=0
77763 On ch=2 n=d5 v=116
77763 On ch=2 n=b5 v=116
77764 On ch=2 n=e5 v=0
77764 On ch=2 n=c6 v=0
77792 On ch=2 n=d5 v=0
77792 On ch=2 n=b5 v=0
77819 On ch=2 n=a5 v=116
77819 On ch=2 n=f#5 v=116
77819 On ch=2 n=c5 v=116
77847 On ch=2 n=a#5 v=116
77848 On ch=2 n=c5 v=0
77848 On ch=2 n=a5 v=0
77850 On ch=2 n=d5 v=116
77879 On ch=2 n=d5 v=0
77880 On ch=2 n=c5 v=116
77880 On ch=2 n=a5 v=116
77881 On ch=2 n=a#5 v=0
77908 On ch=2 n=f#5 v=0
77909 On ch=2 n=c5 v=0
77909 On ch=2 n=a5 v=0
77940 On ch=2 n=e5 v=116
77940 On ch=2 n=g5 v=116
77940 On ch=2 n=b4 v=116
77969 On ch=2 n=b4 v=0
77969 On ch=2 n=g5 v=0
77970 On ch=2 n=a5 v=116
77970 On ch=2 n=c5 v=116
77999 On ch=2 n=c5 v=0
77999 On ch=2 n=a5 v=0
78000 On ch=2 n=b4 v=116
78000 On ch=2 n=g5 v=116
78029 On ch=2 n=g5 v=0
78029 On ch=2 n=b4 v=0
78029 On ch=2 n=e5 v=0
78060 On ch=2 n=b4 v=116
78060 On ch=2 n=e4 v=116
78060 On ch=2 n=a3 v=116
78089 On ch=2 n=b4 v=0
78090 On ch=2 n=c#5 v=116
78119 On ch=2 n=c#5 v=0
78120 On ch=2 n=b4 v=116
78149 On ch=2 n=b4 v=0
78149 On ch=2 n=a3 v=0
78149 On ch=2 n=e4 v=0
78150 On ch=2 n=g5 v=116
78150 On ch=2 n=d5 v=116
78150 On ch=2 n=a4 v=116
78179 On ch=2 n=a4 v=0
78179 On ch=2 n=d5 v=0
78179 On ch=2 n=g5 v=0
78180 On ch=2 n=d3 v=116
78186 On ch=2 n=d3 v=0
78187 On ch=2 n=a3 v=116
78193 On ch=2 n=a3 v=0
78194 On ch=2 n=f#4 v=116
78200 On ch=2 n=d5 v=116
78203 On ch=2 n=f#4 v=0
78210 On ch=2 n=f#5 v=116
78220 On ch=2 n=a5 v=116
78239 On ch=2 n=a5 v=0
78239 On ch=2 n=f#5 v=0
78239 On ch=2 n=d5 v=0
78240 On ch=2 n=b5 v=116
78240 On ch=2 n=f#5 v=116
78240 On ch=2 n=c#5 v=116
78299 On ch=2 n=b5 v=0
78300 On ch=2 n=a5 v=116
78300 On ch=2 n=d5 v=116
78359 On ch=2 n=c#5 v=0
78419 On ch=2 n=f#5 v=0
78419 On ch=2 n=a5 v=0
78419 On ch=2 n=d5 v=0
78420 On ch=2 n=b5 v=116
78420 On ch=2 n=f#5 v=116
78420 On ch=2 n=c5 v=116
78479 On ch=2 n=b5 v=0
78480 On ch=2 n=d5 v=116
78480 On ch=2 n=a5 v=116
78539 On ch=2 n=c5 v=0
78599 On ch=2 n=f#5 v=0
78599 On ch=2 n=d5 v=0
78599 On ch=2 n=a5 v=0
78600 On ch=2 n=b5 v=116
78600 On ch=2 n=f#5 v=116
78600 On ch=2 n=b4 v=116
78659 On ch=2 n=b5 v=0
78660 On ch=2 n=d5 v=116
78660 On ch=2 n=a5 v=116
78719 On ch=2 n=b4 v=0
78779 On ch=2 n=f#5 v=0
78779 On ch=2 n=d5 v=0
78779 On ch=2 n=a5 v=0
78780 On ch=2 n=b5 v=116
78780 On ch=2 n=d5 v=116
78780 On ch=2 n=a4 v=116
78839 On ch=2 n=b5 v=0
78840 On ch=2 n=f#5 v=116
78840 On ch=2 n=a5 v=116
78959 On ch=2 n=a5 v=0
78959 On ch=2 n=d5 v=0
78959 On ch=2 n=a4 v=0
78959 On ch=2 n=f#5 v=0
78960 On ch=2 n=b4 v=116
78960 On ch=2 n=f#4 v=116
79019 On ch=2 n=b4 v=0
79020 On ch=2 n=a4 v=116
79079 On ch=2 n=a4 v=0
79080 On ch=2 n=b4 v=116
79139 On ch=2 n=b4 v=0
79139 On ch=2 n=f#4 v=0
79140 On ch=2 n=a4 v=116
79140 On ch=2 n=d4 v=116
79199 On ch=2 n=a4 v=0
79200 On ch=2 n=b4 v=116
79259 On ch=2 n=b4 v=0
79260 On ch=2 n=a4 v=116
79319 On ch=2 n=a4 v=0
79319 On ch=2 n=d4 v=0
79320 On ch=2 n=a3 v=116
79320 On ch=2 n=d4 v=116
79320 On ch=2 n=b4 v=116
79379 On ch=2 n=b4 v=0
79380 On ch=2 n=a4 v=116
79439 On ch=2 n=d4 v=0
79440 On ch=2 n=e4 v=116
79499 On ch=2 n=e4 v=0
79499 On ch=2 n=a4 v=0
79499 On ch=2 n=a3 v=0
79500 On ch=2 n=d4 v=116
79500 On ch=2 n=a#4 v=116
79500 On ch=2 n=g3 v=116
79559 On ch=2 n=d4 v=0
79560 On ch=2 n=e4 v=116
79619 On ch=2 n=e4 v=0
79619 On ch=2 n=g3 v=0
79619 On ch=2 n=a#4 v=0
79620 On ch=2 n=d2 v=116
79640 On ch=2 n=d3 v=116
79649 On ch=2 n=d2 v=0
79650 On ch=2 n=a3 v=116
79669 On ch=2 n=d3 v=0
79679 On ch=2 n=a3 v=0
79680 On ch=2 n=e4 v=116
79709 On ch=2 n=e4 v=0
79710 On ch=2 n=a3 v=116
79739 On ch=2 n=a3 v=0
79740 On ch=2 n=f#4 v=116
79769 On ch=2 n=f#4 v=0
79770 On ch=2 n=d4 v=116
79799 On ch=2 n=d4 v=0
79800 On ch=2 n=a4 v=116
79829 On ch=2 n=a4 v=0
79830 On ch=2 n=f#4 v=116
79859 On ch=2 n=f#4 v=0
79860 On ch=2 n=b4 v=116
79889 On ch=2 n=b4 v=0
79890 On ch=2 n=e4 v=116
79919 On ch=2 n=e4 v=0
79920 On ch=2 n=a4 v=116
79949 On ch=2 n=a4 v=0
79950 On ch=2 n=f#4 v=116
79979 On ch=2 n=f#4 v=0
79980 On ch=2 n=d5 v=116
80009 On ch=2 n=d5 v=0
80010 On ch=2 n=f#4 v=116
80039 On ch=2 n=f#4 v=0
80040 On ch=2 n=e5 v=116
80069 On ch=2 n=e5 v=0
80070 On ch=2 n=a4 v=116
80099 On ch=2 n=a4 v=0
80100 On ch=2 n=f#5 v=116
80129 On ch=2 n=f#5 v=0
80130 On ch=2 n=d5 v=116
80159 On ch=2 n=d5 v=0
80160 On ch=2 n=a5 v=116
80189 On ch=2 n=a5 v=0
80190 On ch=2 n=f#5 v=116
80219 On ch=2 n=f#5 v=0
80220 On ch=2 n=b5 v=116
80249 On ch=2 n=b5 v=0
80250 On ch=2 n=e5 v=116
80279 On ch=2 n=e5 v=0
80280 On ch=2 n=d6 v=116
80309 On ch=2 n=d6 v=0
80310 On ch=2 n=f#5 v=116
80339 On ch=2 n=f#5 v=0
80340 On ch=2 n=f#6 v=116
80400 On ch=2 n=a5 v=116
80460 On ch=2 n=d5 v=116
80520 On ch=2 n=d6 v=116
80699 On ch=2 n=f#6 v=0
80759 On ch=2 n=a5 v=0
80759 On ch=2 n=d5 v=0
80759 On ch=2 n=d6 v=0
80880 On ch=2 n=e4 v=116
80999 On ch=2 n=e4 v=0
81000 On ch=2 n=e3 v=116
81059 On ch=2 n=e3 v=0
81060 On ch=2 n=a2 v=116
81060 On ch=2 n=a3 v=116
81180 On ch=2 n=b4 v=116
81239 On ch=2 n=b4 v=0
81240 On ch=2 n=e5 v=116
81359 On ch=2 n=e5 v=0
81419 On ch=2 n=a3 v=0
81419 On ch=2 n=a2 v=0
81600 On ch=2 n=d4 v=116
81719 On ch=2 n=d4 v=0
81720 On ch=2 n=f#4 v=116
81779 On ch=2 n=f#4 v=0
81780 On ch=2 n=g2 v=116
81790 On ch=2 n=g3 v=116
81799 On ch=2 n=g2 v=0
81800 On ch=2 n=d4 v=116
81900 On ch=2 n=b4 v=116
81959 On ch=2 n=b4 v=0
81960 On ch=2 n=e5 v=116
82079 On ch=2 n=e5 v=0
82139 On ch=2 n=d4 v=0
82139 On ch=2 n=g3 v=0
82320 On ch=2 n=c4 v=116
82439 On ch=2 n=c4 v=0
82440 On ch=2 n=e3 v=116
82499 On ch=2 n=e3 v=0
82500 On ch=2 n=f#2 v=116
82500 On ch=2 n=f#3 v=116
82859 On ch=2 n=f#3 v=0
82859 On ch=2 n=f#2 v=0
83040 On ch=2 n=b3 v=116
83159 On ch=2 n=b3 v=0
83160 On ch=2 n=g#4 v=116
83160 On ch=2 n=c4 v=116
83219 On ch=2 n=c4 v=0
83219 On ch=2 n=g#4 v=0
83220 On ch=2 n=e3 v=116
83220 On ch=2 n=c#4 v=116
83279 On ch=2 n=c#4 v=0
83280 On ch=2 n=g4 v=116
83339 On ch=2 n=g4 v=0
83340 On ch=2 n=c#5 v=116
83399 On ch=2 n=c#5 v=0
83399 On ch=2 n=e3 v=0
83400 On ch=2 n=e5 v=116
83400 On ch=2 n=b4 v=116
83459 On ch=2 n=e5 v=0
83460 On ch=2 n=c5 v=116
83519 On ch=2 n=c5 v=0
83520 On ch=2 n=d#5 v=116
83579 On ch=2 n=d#5 v=0
83580 On ch=2 n=e5 v=116
83639 On ch=2 n=e5 v=0
83640 On ch=2 n=f5 v=116
83699 On ch=2 n=f5 v=0
83700 On ch=2 n=f#5 v=116
83759 On ch=2 n=f#5 v=0
83759 On ch=2 n=b4 v=0
83760 On ch=2 n=g5 v=116
83760 On ch=2 n=e5 v=116
83819 On ch=2 n=e5 v=0
83819 On ch=2 n=g5 v=0
83940 On ch=2 n=a3 v=116
83999 On ch=2 n=a3 v=0
84000 On ch=2 n=e4 v=116
84059 On ch=2 n=e4 v=0
84060 On ch=2 n=c5 v=116
84119 On ch=2 n=c5 v=0
84120 On ch=2 n=b5 v=116
84180 On ch=2 n=c5 v=116
84239 On ch=2 n=c5 v=0
84240 On ch=2 n=e4 v=116
84299 On ch=2 n=e4 v=0
84299 On ch=2 n=b5 v=0
84300 On ch=2 n=e4 v=116
84359 On ch=2 n=e4 v=0
84360 On ch=2 n=c5 v=116
84420 On ch=2 n=a5 v=116
84479 On ch=2 n=a5 v=0
84480 On ch=2 n=g5 v=116
84480 On ch=2 n=a4 v=116
84539 On ch=2 n=a4 v=0
84539 On ch=2 n=c5 v=0
84540 On ch=2 n=d4 v=116
84599 On ch=2 n=d4 v=0
84599 On ch=2 n=g5 v=0
84600 On ch=2 n=a4 v=116
84600 On ch=2 n=c5 v=116
84600 On ch=2 n=f#5 v=116
84659 On ch=2 n=f#5 v=0
84659 On ch=2 n=c5 v=0
84659 On ch=2 n=a4 v=0
84660 On ch=2 n=g3 v=116
84719 On ch=2 n=g3 v=0
84720 On ch=2 n=d4 v=116
84779 On ch=2 n=d4 v=0
84780 On ch=2 n=b4 v=116
84839 On ch=2 n=b4 v=0
84840 On ch=2 n=a5 v=116
84900 On ch=2 n=b4 v=116
84959 On ch=2 n=b4 v=0
84960 On ch=2 n=d4 v=116
85019 On ch=2 n=a5 v=0
85079 On ch=2 n=d4 v=0
85080 On ch=2 n=b4 v=116
85139 On ch=2 n=b4 v=0
85140 On ch=2 n=g5 v=116
85199 On ch=2 n=g5 v=0
85200 On ch=2 n=a4 v=116
85200 On ch=2 n=f#5 v=116
85260 On ch=2 n=c5 v=116
85319 On ch=2 n=f#5 v=0
85320 On ch=2 n=e5 v=116
85379 On ch=2 n=e5 v=0
85379 On ch=2 n=c5 v=0
85379 On ch=2 n=a4 v=0
85380 On ch=2 n=f#3 v=116
85439 On ch=2 n=f#3 v=0
85440 On ch=2 n=c4 v=116
85499 On ch=2 n=c4 v=0
85500 On ch=2 n=a4 v=116
85559 On ch=2 n=a4 v=0
85560 On ch=2 n=g5 v=116
85620 On ch=2 n=a4 v=116
85679 On ch=2 n=a4 v=0
85680 On ch=2 n=e4 v=116
85739 On ch=2 n=g5 v=0
85799 On ch=2 n=e4 v=0
85800 On ch=2 n=a4 v=116
85860 On ch=2 n=f#5 v=116
85919 On ch=2 n=f#5 v=0
85920 On ch=2 n=e5 v=116
85920 On ch=2 n=f#4 v=116
85979 On ch=2 n=f#4 v=0
85979 On ch=2 n=a4 v=0
85980 On ch=2 n=b3 v=116
86039 On ch=2 n=b3 v=0
86039 On ch=2 n=e5 v=0
86040 On ch=2 n=d#5 v=116
86040 On ch=2 n=a4 v=116
86040 On ch=2 n=f#4 v=116
86099 On ch=2 n=f#4 v=0
86099 On ch=2 n=a4 v=0
86099 On ch=2 n=d#5 v=0
86100 On ch=2 n=d#5 v=116
86100 On ch=2 n=a4 v=116
86100 On ch=2 n=f#4 v=116
86159 On ch=2 n=f#4 v=0
86159 On ch=2 n=a4 v=0
86159 On ch=2 n=d#5 v=0
86160 On ch=2 n=c4 v=116
86219 On ch=2 n=c4 v=0
86220 On ch=2 n=b4 v=116
86220 On ch=2 n=e5 v=116
86220 On ch=2 n=g4 v=116
86279 On ch=2 n=g4 v=0
86279 On ch=2 n=e5 v=0
86279 On ch=2 n=b4 v=0
86280 On ch=2 n=d#5 v=116
86280 On ch=2 n=a4 v=116
86280 On ch=2 n=f#4 v=116
86339 On ch=2 n=f#4 v=0
86339 On ch=2 n=a4 v=0
86339 On ch=2 n=d#5 v=0
86340 On ch=2 n=b3 v=116
86399 On ch=2 n=b3 v=0
86400 On ch=2 n=e5 v=116
86400 On ch=2 n=b4 v=116
86400 On ch=2 n=g4 v=116
86459 On ch=2 n=g4 v=0
86459 On ch=2 n=b4 v=0
86459 On ch=2 n=e5 v=0
86460 On ch=2 n=f#5 v=116
86460 On ch=2 n=d5 v=116
86460 On ch=2 n=a4 v=116
86519 On ch=2 n=a4 v=0
86519 On ch=2 n=d5 v=0
86519 On ch=2 n=f#5 v=0
86520 On ch=2 n=d4 v=116
86520 On ch=2 n=g3 v=116
86579 On ch=2 n=g3 v=0
86579 On ch=2 n=d4 v=0
86580 On ch=2 n=g5 v=116
86580 On ch=2 n=b4 v=116
86580 On ch=2 n=d5 v=116
86639 On ch=2 n=d5 v=0
86639 On ch=2 n=b4 v=0
86639 On ch=2 n=g5 v=0
86640 On ch=2 n=a4 v=116
86640 On ch=2 n=e5 v=116
86640 On ch=2 n=f#5 v=116
86699 On ch=2 n=f#5 v=0
86699 On ch=2 n=e5 v=0
86699 On ch=2 n=a4 v=0
86700 On ch=2 n=e3 v=116
86700 On ch=2 n=e4 v=116
86759 On ch=2 n=e4 v=0
86759 On ch=2 n=e3 v=0
86760 On ch=2 n=g5 v=116
86760 On ch=2 n=e5 v=116
86760 On ch=2 n=b4 v=116
86819 On ch=2 n=b4 v=0
86819 On ch=2 n=e5 v=0
86819 On ch=2 n=g5 v=0
86820 On ch=2 n=g5 v=116
86820 On ch=2 n=e5 v=116
86820 On ch=2 n=c5 v=116
86820 On ch=2 n=g4 v=116
86820 On ch=2 n=a3 v=116
86820 On ch=2 n=a2 v=116
86879 On ch=2 n=g4 v=0
86879 On ch=2 n=c5 v=0
86879 On ch=2 n=g5 v=0
86879 On ch=2 n=e5 v=0
86880 On ch=2 n=c6 v=116
86880 On ch=2 n=c5 v=116
86939 On ch=2 n=c5 v=0
86939 On ch=2 n=c6 v=0
86940 On ch=2 n=e5 v=116
86940 On ch=2 n=c5 v=116
86940 On ch=2 n=f#4 v=116
86940 On ch=2 n=f#5 v=116
86999 On ch=2 n=f#5 v=0
86999 On ch=2 n=c5 v=0
86999 On ch=2 n=e5 v=0
86999 On ch=2 n=f#4 v=0
87000 On ch=2 n=f#4 v=116
87000 On ch=2 n=c5 v=116
87000 On ch=2 n=e5 v=116
87000 On ch=2 n=f#5 v=116
87059 On ch=2 n=f#5 v=0
87059 On ch=2 n=c5 v=0
87059 On ch=2 n=f#4 v=0
87059 On ch=2 n=e5 v=0
87060 On ch=2 n=c6 v=116
87060 On ch=2 n=c5 v=116
87119 On ch=2 n=c5 v=0
87119 On ch=2 n=c6 v=0
87120 On ch=2 n=e5 v=116
87120 On ch=2 n=c5 v=116
87120 On ch=2 n=a4 v=116
87120 On ch=2 n=e4 v=116
87179 On ch=2 n=e4 v=0
87179 On ch=2 n=a2 v=0
87179 On ch=2 n=e5 v=0
87179 On ch=2 n=a3 v=0
87179 On ch=2 n=a4 v=0
87179 On ch=2 n=c5 v=0
87180 On ch=2 n=e4 v=116
87180 On ch=2 n=a4 v=116
87180 On ch=2 n=c5 v=116
87180 On ch=2 n=e5 v=116
87239 On ch=2 n=e5 v=0
87239 On ch=2 n=e4 v=0
87239 On ch=2 n=a4 v=0
87239 On ch=2 n=c5 v=0
87240 On ch=2 n=c6 v=116
87240 On ch=2 n=c5 v=116
87299 On ch=2 n=c5 v=0
87299 On ch=2 n=c6 v=0
87300 On ch=2 n=d4 v=116
87300 On ch=2 n=d5 v=116
87359 On ch=2 n=d5 v=0
87359 On ch=2 n=d4 v=0
87360 On ch=2 n=d3 v=116
87370 On ch=2 n=d4 v=116
87380 On ch=2 n=d5 v=116
87419 On ch=2 n=d5 v=0
87419 On ch=2 n=d4 v=0
87419 On ch=2 n=d3 v=0
87420 On ch=2 n=c6 v=116
87420 On ch=2 n=g5 v=116
87420 On ch=2 n=e5 v=116
87420 On ch=2 n=c5 v=116
87479 On ch=2 n=c5 v=0
87479 On ch=2 n=c6 v=0
87479 On ch=2 n=g5 v=0
87479 On ch=2 n=e5 v=0
87480 On ch=2 n=f#4 v=116
87480 On ch=2 n=f#5 v=116
87539 On ch=2 n=f#5 v=0
87539 On ch=2 n=f#4 v=0
87540 On ch=2 n=g2 v=116
87540 On ch=2 n=g3 v=116
87540 On ch=2 n=f#5 v=116
87540 On ch=2 n=d5 v=116
87540 On ch=2 n=b4 v=116
87540 On ch=2 n=f#4 v=116
87599 On ch=2 n=f#4 v=0
87599 On ch=2 n=d5 v=0
87599 On ch=2 n=f#5 v=0
87599 On ch=2 n=b4 v=0
87600 On ch=2 n=b5 v=116
87600 On ch=2 n=b4 v=116
87659 On ch=2 n=b4 v=0
87659 On ch=2 n=b5 v=0
87660 On ch=2 n=e4 v=116
87660 On ch=2 n=e5 v=116
87660 On ch=2 n=d5 v=116
87660 On ch=2 n=b4 v=116
87719 On ch=2 n=b4 v=0
87719 On ch=2 n=e5 v=0
87719 On ch=2 n=e4 v=0
87719 On ch=2 n=d5 v=0
87720 On ch=2 n=e5 v=116
87720 On ch=2 n=d5 v=116
87720 On ch=2 n=b4 v=116
87720 On ch=2 n=e4 v=116
87779 On ch=2 n=e4 v=0
87779 On ch=2 n=d5 v=0
87779 On ch=2 n=e5 v=0
87779 On ch=2 n=b4 v=0
87780 On ch=2 n=b5 v=116
87780 On ch=2 n=b4 v=116
87839 On ch=2 n=b4 v=0
87839 On ch=2 n=b5 v=0
87840 On ch=2 n=d4 v=116
87840 On ch=2 n=g4 v=116
87840 On ch=2 n=d5 v=116
87840 On ch=2 n=b4 v=116
87899 On ch=2 n=b4 v=0
87899 On ch=2 n=g2 v=0
87899 On ch=2 n=d4 v=0
87899 On ch=2 n=g3 v=0
87899 On ch=2 n=d5 v=0
87899 On ch=2 n=g4 v=0
87900 On ch=2 n=d5 v=116
87900 On ch=2 n=b4 v=116
87900 On ch=2 n=g4 v=116
87900 On ch=2 n=d4 v=116
87959 On ch=2 n=d4 v=0
87959 On ch=2 n=d5 v=0
87959 On ch=2 n=b4 v=0
87959 On ch=2 n=g4 v=0
87960 On ch=2 n=b5 v=116
87960 On ch=2 n=b4 v=116
88019 On ch=2 n=b4 v=0
88019 On ch=2 n=b5 v=0
88020 On ch=2 n=c4 v=116
88020 On ch=2 n=c5 v=116
88079 On ch=2 n=c5 v=0
88079 On ch=2 n=c4 v=0
88080 On ch=2 n=c3 v=116
88090 On ch=2 n=c4 v=116
88100 On ch=2 n=c5 v=116
88139 On ch=2 n=c5 v=0
88139 On ch=2 n=c4 v=0
88139 On ch=2 n=c3 v=0
88140 On ch=2 n=b5 v=116
88140 On ch=2 n=g5 v=116
88140 On ch=2 n=e5 v=116
88140 On ch=2 n=b4 v=116
88199 On ch=2 n=b4 v=0
88199 On ch=2 n=b5 v=0
88199 On ch=2 n=g5 v=0
88199 On ch=2 n=e5 v=0
88200 On ch=2 n=e4 v=116
88200 On ch=2 n=e5 v=116
88259 On ch=2 n=e5 v=0
88259 On ch=2 n=e4 v=0
88260 On ch=2 n=e5 v=116
88260 On ch=2 n=c5 v=116
88260 On ch=2 n=a4 v=116
88260 On ch=2 n=e4 v=116
88260 On ch=2 n=f#2 v=116
88260 On ch=2 n=f#3 v=116
88319 On ch=2 n=e4 v=0
88319 On ch=2 n=a4 v=0
88319 On ch=2 n=e5 v=0
88319 On ch=2 n=c5 v=0
88320 On ch=2 n=a5 v=116
88320 On ch=2 n=a4 v=116
88379 On ch=2 n=a4 v=0
88379 On ch=2 n=a5 v=0
88380 On ch=2 n=d5 v=116
88380 On ch=2 n=c5 v=116
88380 On ch=2 n=a4 v=116
88380 On ch=2 n=d4 v=116
88439 On ch=2 n=d4 v=0
88439 On ch=2 n=c5 v=0
88439 On ch=2 n=d5 v=0
88439 On ch=2 n=a4 v=0
88440 On ch=2 n=d4 v=116
88440 On ch=2 n=a4 v=116
88440 On ch=2 n=c5 v=116
88440 On ch=2 n=d5 v=116
88499 On ch=2 n=d5 v=0
88499 On ch=2 n=a4 v=0
88499 On ch=2 n=d4 v=0
88499 On ch=2 n=c5 v=0
88500 On ch=2 n=a5 v=116
88500 On ch=2 n=a4 v=116
88559 On ch=2 n=a4 v=0
88559 On ch=2 n=a5 v=0
88560 On ch=2 n=c4 v=116
88560 On ch=2 n=e4 v=116
88560 On ch=2 n=c5 v=116
88619 On ch=2 n=c5 v=0
88619 On ch=2 n=c4 v=0
88619 On ch=2 n=f#2 v=0
88619 On ch=2 n=f#3 v=0
88619 On ch=2 n=e4 v=0
88620 On ch=2 n=c5 v=116
88620 On ch=2 n=e4 v=116
88620 On ch=2 n=c4 v=116
88679 On ch=2 n=c4 v=0
88679 On ch=2 n=e4 v=0
88679 On ch=2 n=c5 v=0
88680 On ch=2 n=a5 v=116
88680 On ch=2 n=a4 v=116
88739 On ch=2 n=a4 v=0
88739 On ch=2 n=a5 v=0
88740 On ch=2 n=b3 v=116
88740 On ch=2 n=b4 v=116
88799 On ch=2 n=b4 v=0
88799 On ch=2 n=b3 v=0
88800 On ch=2 n=b2 v=116
88810 On ch=2 n=b3 v=116
88820 On ch=2 n=b4 v=116
88859 On ch=2 n=b4 v=0
88859 On ch=2 n=b3 v=0
88859 On ch=2 n=b2 v=0
88860 On ch=2 n=a5 v=116
88860 On ch=2 n=e5 v=116
88860 On ch=2 n=c5 v=116
88860 On ch=2 n=a4 v=116
88919 On ch=2 n=a4 v=0
88919 On ch=2 n=a5 v=0
88919 On ch=2 n=e5 v=0
88919 On ch=2 n=c5 v=0
88920 On ch=2 n=a3 v=116
88920 On ch=2 n=a4 v=116
88979 On ch=2 n=a4 v=0
88979 On ch=2 n=a3 v=0
88980 On ch=2 n=e3 v=116
88990 On ch=2 n=b3 v=116
89000 On ch=2 n=a4 v=116
89039 On ch=2 n=a4 v=0
89039 On ch=2 n=b3 v=0
89039 On ch=2 n=e3 v=0
89040 On ch=2 n=e5 v=116
89099 On ch=2 n=e5 v=0
89100 On ch=2 n=a3 v=116
89100 On ch=2 n=g4 v=116
89159 On ch=2 n=g4 v=0
89159 On ch=2 n=a3 v=0
89160 On ch=2 n=e3 v=116
89170 On ch=2 n=b3 v=116
89180 On ch=2 n=g4 v=116
89219 On ch=2 n=g4 v=0
89219 On ch=2 n=b3 v=0
89219 On ch=2 n=e3 v=0
89220 On ch=2 n=b4 v=116
89279 On ch=2 n=b4 v=0
89280 On ch=2 n=a3 v=116
89280 On ch=2 n=f#4 v=116
89339 On ch=2 n=f#4 v=0
89339 On ch=2 n=a3 v=0
89340 On ch=2 n=b3 v=116
89340 On ch=2 n=f#4 v=116
89340 On ch=2 n=e3 v=116
89399 On ch=2 n=e3 v=0
89399 On ch=2 n=f#4 v=0
89399 On ch=2 n=b3 v=0
89400 On ch=2 n=b4 v=116
89459 On ch=2 n=b4 v=0
89460 On ch=2 n=a3 v=116
89460 On ch=2 n=e4 v=116
89519 On ch=2 n=e4 v=0
89519 On ch=2 n=a3 v=0
89520 On ch=2 n=e4 v=116
89520 On ch=2 n=b3 v=116
89520 On ch=2 n=e3 v=116
89579 On ch=2 n=e3 v=0
89579 On ch=2 n=b3 v=0
89579 On ch=2 n=e4 v=0
89580 On ch=2 n=g4 v=116
89639 On ch=2 n=g4 v=0
89640 On ch=2 n=b3 v=116
89700 On ch=2 n=e3 v=116
89759 On ch=2 n=b3 v=0
89760 On ch=2 n=b4 v=116
89819 On ch=2 n=b4 v=0
89820 On ch=2 n=a#4 v=116
89879 On ch=2 n=a#4 v=0
89880 On ch=2 n=a4 v=116
89939 On ch=2 n=a4 v=0
89940 On ch=2 n=g4 v=116
89999 On ch=2 n=g4 v=0
90000 On ch=2 n=b3 v=116
90059 On ch=2 n=e3 v=0
90119 On ch=2 n=b3 v=0
90420 On ch=2 n=b5 v=116
90479 On ch=2 n=b5 v=0
90480 On ch=2 n=a#5 v=116
90539 On ch=2 n=a#5 v=0
90540 On ch=2 n=a5 v=116
90599 On ch=2 n=a5 v=0
90600 On ch=2 n=g5 v=116
90659 On ch=2 n=g5 v=0
90780 On ch=2 n=f5 v=116
90780 On ch=2 n=d5 v=116
90780 On ch=2 n=g#4 v=116
91139 On ch=2 n=g#4 v=0
91139 On ch=2 n=d5 v=0
91139 On ch=2 n=f5 v=0
91140 On ch=2 n=f5 v=116
91140 On ch=2 n=c#5 v=116
91140 On ch=2 n=a#4 v=116
91140 On ch=2 n=f4 v=116
91140 On ch=2 n=a#2 v=116
91140 On ch=2 n=f3 v=116
91140 On ch=2 n=c#4 v=116
91499 On ch=2 n=c#4 v=0
91499 On ch=2 n=a#2 v=0
91499 On ch=2 n=c#5 v=0
91499 On ch=2 n=a#4 v=0
91499 On ch=2 n=f5 v=0
91499 On ch=2 n=f3 v=0
91499 On ch=2 n=f4 v=0
91500 On ch=2 n=f3 v=116
91500 On ch=2 n=c#4 v=116
91519 On ch=2 n=c#4 v=0
91519 On ch=2 n=f3 v=0
91520 On ch=2 n=a#2 v=116
91539 On ch=2 n=a#2 v=0
91560 On ch=2 n=c#4 v=116
91560 On ch=2 n=a4 v=116
91579 On ch=2 n=a4 v=0
91579 On ch=2 n=c#4 v=0
91580 On ch=2 n=f3 v=116
91599 On ch=2 n=f3 v=0
91620 On ch=2 n=f3 v=116
91620 On ch=2 n=c#4 v=116
91639 On ch=2 n=c#4 v=0
91639 On ch=2 n=f3 v=0
91640 On ch=2 n=a#2 v=116
91659 On ch=2 n=a#2 v=0
91680 On ch=2 n=c#4 v=116
91680 On ch=2 n=g#4 v=116
91699 On ch=2 n=g#4 v=0
91699 On ch=2 n=c#4 v=0
91700 On ch=2 n=f3 v=116
91719 On ch=2 n=f3 v=0
91740 On ch=2 n=f3 v=116
91740 On ch=2 n=c#4 v=116
91759 On ch=2 n=c#4 v=0
91759 On ch=2 n=f3 v=0
91760 On ch=2 n=a#2 v=116
91779 On ch=2 n=a#2 v=0
91800 On ch=2 n=c#4 v=116
91800 On ch=2 n=g4 v=116
91819 On ch=2 n=g4 v=0
91819 On ch=2 n=c#4 v=0
91820 On ch=2 n=f3 v=116
91839 On ch=2 n=f3 v=0
91860 On ch=2 n=f3 v=116
91860 On ch=2 n=c#4 v=116
91879 On ch=2 n=c#4 v=0
91879 On ch=2 n=f3 v=0
91880 On ch=2 n=a#2 v=116
91899 On ch=2 n=a#2 v=0
91920 On ch=2 n=c#4 v=116
91920 On ch=2 n=f#4 v=116
91939 On ch=2 n=f#4 v=0
91939 On ch=2 n=c#4 v=0
91940 On ch=2 n=f3 v=116
91959 On ch=2 n=f3 v=0
91980 On ch=2 n=f4 v=116
91980 On ch=2 n=f#3 v=116
91980 On ch=2 n=a#2 v=116
92039 On ch=2 n=a#2 v=0
92039 On ch=2 n=f#3 v=0
92039 On ch=2 n=f4 v=0
92040 On ch=2 n=e4 v=116
92099 On ch=2 n=e4 v=0
92100 On ch=2 n=d#4 v=116
92159 On ch=2 n=d#4 v=0
92160 On ch=2 n=c#4 v=116
92219 On ch=2 n=c#4 v=0
92220 On ch=2 n=a#3 v=116
92279 On ch=2 n=a#3 v=0
92280 On ch=2 n=f#3 v=116
92399 On ch=2 n=f#3 v=0
92700 On ch=2 n=f5 v=116
92759 On ch=2 n=f5 v=0
92760 On ch=2 n=e5 v=116
92819 On ch=2 n=e5 v=0
92820 On ch=2 n=d#5 v=116
92879 On ch=2 n=d#5 v=0
92880 On ch=2 n=c#5 v=116
92939 On ch=2 n=c#5 v=0
93060 On ch=2 n=d#3 v=116
93070 On ch=2 n=a#3 v=116
93080 On ch=2 n=g4 v=116
93090 On ch=2 n=c#5 v=116
93100 On ch=2 n=e5 v=116
93419 On ch=2 n=e5 v=0
93419 On ch=2 n=g4 v=0
93419 On ch=2 n=d#3 v=0
93419 On ch=2 n=a#3 v=0
93419 On ch=2 n=c#5 v=0
93420 On ch=2 n=a2 v=116
93430 On ch=2 n=e3 v=116
93440 On ch=2 n=c4 v=116
93450 On ch=2 n=e4 v=116
93460 On ch=2 n=a4 v=116
93470 On ch=2 n=c5 v=116
93480 On ch=2 n=e6 v=116
93480 On ch=2 n=e5 v=116
93539 On ch=2 n=e6 v=0
93540 On ch=2 n=d#6 v=116
93599 On ch=2 n=d#6 v=0
93600 On ch=2 n=d6 v=116
93659 On ch=2 n=d6 v=0
93660 On ch=2 n=c6 v=116
93749 On ch=2 n=c6 v=0
93750 On ch=2 n=a5 v=116
93779 On ch=2 n=a5 v=0
93780 On ch=2 n=e5 v=116
93899 On ch=2 n=e5 v=0
93899 On ch=2 n=e5 v=0
93899 On ch=2 n=a4 v=0
93899 On ch=2 n=e3 v=0
93899 On ch=2 n=c4 v=0
93899 On ch=2 n=a2 v=0
93899 On ch=2 n=c5 v=0
93899 On ch=2 n=e4 v=0
93960 On ch=2 n=a4 v=116
93989 On ch=2 n=a4 v=0
93990 On ch=2 n=e4 v=116
94049 On ch=2 n=e4 v=0
94050 On ch=2 n=d#4 v=116
94079 On ch=2 n=d#4 v=0
94080 On ch=2 n=e4 v=116
94109 On ch=2 n=e4 v=0
94110 On ch=2 n=f4 v=116
94139 On ch=2 n=f4 v=0
94140 On ch=2 n=d3 v=116
94140 On ch=2 n=a3 v=116
94140 On ch=2 n=f#4 v=116
94140 On ch=2 n=d#5 v=116
94140 On ch=2 n=c5 v=116
94379 On ch=2 n=c5 v=0
94379 On ch=2 n=f#4 v=0
94379 On ch=2 n=d3 v=0
94379 On ch=2 n=a3 v=0
94379 On ch=2 n=d#5 v=0
94380 On ch=2 n=d#5 v=116
94380 On ch=2 n=b4 v=116
94380 On ch=2 n=f#4 v=116
94380 On ch=2 n=d#4 v=116
94380 On ch=2 n=f#3 v=116
94380 On ch=2 n=f#2 v=116
94420 On ch=2 n=d5 v=116
94459 On ch=2 n=d5 v=0
94460 On ch=2 n=c#5 v=116
94499 On ch=2 n=c#5 v=0
94499 On ch=2 n=f#2 v=0
94499 On ch=2 n=b4 v=0
94499 On ch=2 n=f#4 v=0
94499 On ch=2 n=d#5 v=0
94499 On ch=2 n=f#3 v=0
94499 On ch=2 n=d#4 v=0
94500 On ch=2 n=b4 v=116
94539 On ch=2 n=b4 v=0
94540 On ch=2 n=d#4 v=116
94579 On ch=2 n=d#4 v=0
94580 On ch=2 n=f#3 v=116
94619 On ch=2 n=f#3 v=0
94740 On ch=2 n=f#5 v=116
94779 On ch=2 n=f#5 v=0
94780 On ch=2 n=f5 v=116
94819 On ch=2 n=f5 v=0
94820 On ch=2 n=e5 v=116
94859 On ch=2 n=e5 v=0
94860 On ch=2 n=a#4 v=116
94899 On ch=2 n=a#4 v=0
94900 On ch=2 n=e4 v=116
94939 On ch=2 n=e4 v=0
94940 On ch=2 n=f#3 v=116
94979 On ch=2 n=f#3 v=0
95100 On ch=2 n=g#5 v=116
95100 On ch=2 n=d#5 v=116
95100 On ch=2 n=a4 v=116
95139 On ch=2 n=a4 v=0
95139 On ch=2 n=d#5 v=0
95139 On ch=2 n=g#5 v=0
95140 On ch=2 n=f#5 v=116
95179 On ch=2 n=f#5 v=0
95180 On ch=2 n=d#5 v=116
95219 On ch=2 n=d#5 v=0
95220 On ch=2 n=a4 v=116
95259 On ch=2 n=a4 v=0
95260 On ch=2 n=b3 v=116
95299 On ch=2 n=b3 v=0
95340 On ch=2 n=c6 v=116
95340 On ch=2 n=f5 v=116
95340 On ch=2 n=c#5 v=116
95379 On ch=2 n=c#5 v=0
95379 On ch=2 n=f5 v=0
95379 On ch=2 n=c6 v=0
95380 On ch=2 n=a#5 v=116
95419 On ch=2 n=a#5 v=0
95420 On ch=2 n=g#5 v=116
95459 On ch=2 n=g#5 v=0
95460 On ch=2 n=c#5 v=116
95499 On ch=2 n=c#5 v=0
95500 On ch=2 n=f4 v=116
95539 On ch=2 n=f4 v=0
95540 On ch=2 n=g#3 v=116
95579 On ch=2 n=g#3 v=0
95580 On ch=2 n=g3 v=116
95619 On ch=2 n=g3 v=0
95620 On ch=2 n=d#4 v=116
95659 On ch=2 n=d#4 v=0
95660 On ch=2 n=a#4 v=116
95699 On ch=2 n=a#4 v=0
95700 On ch=2 n=d5 v=116
95739 On ch=2 n=d5 v=0
95740 On ch=2 n=d#5 v=116
95779 On ch=2 n=d#5 v=0
95780 On ch=2 n=a#5 v=116
95819 On ch=2 n=a#5 v=0
95860 On ch=2 n=c#5 v=116
95899 On ch=2 n=c#5 v=0
95900 On ch=2 n=d#4 v=116
95939 On ch=2 n=d#4 v=0
95940 On ch=2 n=g3 v=116
95979 On ch=2 n=g3 v=0
95980 On ch=2 n=d4 v=116
96019 On ch=2 n=d4 v=0
96020 On ch=2 n=d5 v=116
96099 On ch=2 n=d5 v=0
96100 On ch=2 n=c#5 v=116
96139 On ch=2 n=c#5 v=0
96140 On ch=2 n=c5 v=116
96179 On ch=2 n=c5 v=0
96180 On ch=2 n=d4 v=116
96219 On ch=2 n=d4 v=0
96220 On ch=2 n=g3 v=116
96259 On ch=2 n=g3 v=0
96260 On ch=2 n=f#3 v=116
96299 On ch=2 n=f#3 v=0
96300 On ch=2 n=c#4 v=116
96300 On ch=2 n=f3 v=116
96340 On ch=2 n=a#5 v=116
96340 On ch=2 n=f#5 v=116
96359 On ch=2 n=f3 v=0
96359 On ch=2 n=c#4 v=0
96379 On ch=2 n=a#5 v=0
96379 On ch=2 n=f#5 v=0
96380 On ch=2 n=c#5 v=116
96380 On ch=2 n=a5 v=116
96419 On ch=2 n=a5 v=0
96419 On ch=2 n=c#5 v=0
96420 On ch=2 n=f5 v=116
96420 On ch=2 n=g#5 v=116
96459 On ch=2 n=g#5 v=0
96459 On ch=2 n=f5 v=0
96460 On ch=2 n=a#4 v=116
96460 On ch=2 n=g5 v=116
96499 On ch=2 n=g5 v=0
96499 On ch=2 n=a#4 v=0
96500 On ch=2 n=f#5 v=116
96500 On ch=2 n=c#5 v=116
96539 On ch=2 n=c#5 v=0
96539 On ch=2 n=f#5 v=0
96540 On ch=2 n=f5 v=116
96540 On ch=2 n=f4 v=116
96579 On ch=2 n=f4 v=0
96579 On ch=2 n=f5 v=0
96580 On ch=2 n=e4 v=116
96619 On ch=2 n=e4 v=0
96620 On ch=2 n=d#4 v=116
96659 On ch=2 n=d#4 v=0
96660 On ch=2 n=f#3 v=116
96699 On ch=2 n=f#3 v=0
96700 On ch=2 n=c#4 v=116
96739 On ch=2 n=c#4 v=0
96740 On ch=2 n=c#5 v=116
96819 On ch=2 n=c#5 v=0
96820 On ch=2 n=c5 v=116
96859 On ch=2 n=c5 v=0
96860 On ch=2 n=b4 v=116
96899 On ch=2 n=b4 v=0
96900 On ch=2 n=c#5 v=116
96900 On ch=2 n=a#4 v=116
96939 On ch=2 n=a#4 v=0
96939 On ch=2 n=c#5 v=0
96940 On ch=2 n=f#3 v=116
96940 On ch=2 n=c#4 v=116
96979 On ch=2 n=f#3 v=0
96980 On ch=2 n=f3 v=116
97019 On ch=2 n=f3 v=0
97019 On ch=2 n=c#4 v=0
97020 On ch=2 n=c4 v=116
97020 On ch=2 n=e3 v=116
97139 On ch=2 n=e3 v=0
97139 On ch=2 n=c4 v=0
97140 On ch=2 n=e2 v=116
97140 On ch=2 n=e3 v=116
97259 On ch=2 n=e3 v=0
97259 On ch=2 n=e2 v=0
97260 On ch=2 n=c4 v=116
97379 On ch=2 n=c4 v=0
97380 On ch=2 n=e2 v=116
97380 On ch=2 n=e3 v=116
97499 On ch=2 n=e3 v=0
97499 On ch=2 n=e2 v=0
97500 On ch=2 n=c4 v=116
97619 On ch=2 n=c4 v=0
97620 On ch=2 n=e2 v=116
97620 On ch=2 n=e3 v=116
97739 On ch=2 n=e3 v=0
97739 On ch=2 n=e2 v=0
97740 On ch=2 n=b3 v=116
97859 On ch=2 n=b3 v=0
97860 On ch=2 n=e2 v=116
97860 On ch=2 n=e3 v=116
97979 On ch=2 n=e3 v=0
97979 On ch=2 n=e2 v=0
97980 On ch=2 n=b3 v=116
98099 On ch=2 n=b3 v=0
98100 On ch=2 n=e2 v=116
98100 On ch=2 n=e3 v=116
98219 On ch=2 n=e3 v=0
98219 On ch=2 n=e2 v=0
98220 On ch=2 n=a#3 v=116
98339 On ch=2 n=a#3 v=0
98340 On ch=2 n=e2 v=116
98340 On ch=2 n=e3 v=116
98459 On ch=2 n=e3 v=0
98459 On ch=2 n=e2 v=0
98460 On ch=2 n=a#3 v=116
98579 On ch=2 n=a#3 v=0
98580 On ch=2 n=e2 v=116
98580 On ch=2 n=e3 v=116
98699 On ch=2 n=e3 v=0
98699 On ch=2 n=e2 v=0
98700 On ch=2 n=a#3 v=116
98819 On ch=2 n=a#3 v=0
98820 On ch=2 n=e2 v=116
98820 On ch=2 n=e3 v=116
98939 On ch=2 n=e3 v=0
98939 On ch=2 n=e2 v=0
98940 On ch=2 n=a3 v=116
99059 On ch=2 n=a3 v=0
99060 On ch=2 n=e2 v=116
99060 On ch=2 n=e3 v=116
99179 On ch=2 n=e3 v=0
99179 On ch=2 n=e2 v=0
99180 On ch=2 n=a3 v=116
99299 On ch=2 n=a3 v=0
99300 On ch=2 n=e2 v=116
99300 On ch=2 n=e3 v=116
99419 On ch=2 n=e3 v=0
99419 On ch=2 n=e2 v=0
99420 On ch=2 n=e3 v=116
99420 On ch=2 n=a3 v=116
99480 On ch=2 n=e5 v=116
99480 On ch=2 n=c5 v=116
99480 On ch=2 n=g4 v=116
99539 On ch=2 n=a3 v=0
99539 On ch=2 n=e3 v=0
99540 On ch=2 n=e3 v=116
99540 On ch=2 n=a2 v=116
99659 On ch=2 n=a2 v=0
99659 On ch=2 n=c5 v=0
99659 On ch=2 n=g4 v=0
99659 On ch=2 n=e5 v=0
99659 On ch=2 n=e3 v=0
99660 On ch=2 n=e2 v=116
99660 On ch=2 n=a2 v=116
99720 On ch=2 n=e4 v=116
99720 On ch=2 n=g4 v=116
99720 On ch=2 n=c5 v=116
99779 On ch=2 n=a2 v=0
99779 On ch=2 n=e2 v=0
99780 On ch=2 n=a2 v=116
99780 On ch=2 n=e3 v=116
99899 On ch=2 n=e3 v=0
99899 On ch=2 n=g4 v=0
99899 On ch=2 n=c5 v=0
99899 On ch=2 n=e4 v=0
99899 On ch=2 n=a2 v=0
99900 On ch=2 n=e3 v=116
99900 On ch=2 n=a3 v=116
99960 On ch=2 n=e5 v=116
99960 On ch=2 n=c5 v=116
99960 On ch=2 n=g4 v=116
100019 On ch=2 n=a3 v=0
100019 On ch=2 n=e3 v=0
100020 On ch=2 n=e3 v=116
100020 On ch=2 n=a2 v=116
100139 On ch=2 n=a2 v=0
100139 On ch=2 n=c5 v=0
100139 On ch=2 n=g4 v=0
100139 On ch=2 n=e5 v=0
100139 On ch=2 n=e3 v=0
100140 On ch=2 n=e2 v=116
100140 On ch=2 n=a2 v=116
100200 On ch=2 n=e4 v=116
100200 On ch=2 n=g4 v=116
100200 On ch=2 n=c5 v=116
100259 On ch=2 n=a2 v=0
100259 On ch=2 n=e2 v=0
100260 On ch=2 n=a2 v=116
100260 On ch=2 n=e3 v=116
100379 On ch=2 n=e3 v=0
100379 On ch=2 n=g4 v=0
100379 On ch=2 n=c5 v=0
100379 On ch=2 n=e4 v=0
100379 On ch=2 n=a2 v=0
100380 On ch=2 n=a3 v=116
100380 On ch=2 n=e3 v=116
100440 On ch=2 n=g4 v=116
100440 On ch=2 n=c5 v=116
100440 On ch=2 n=e5 v=116
100499 On ch=2 n=e5 v=0
100499 On ch=2 n=g4 v=0
100499 On ch=2 n=c5 v=0
100500 On ch=2 n=e4 v=116
100500 On ch=2 n=g4 v=116
100500 On ch=2 n=c5 v=116
100559 On ch=2 n=e3 v=0
100559 On ch=2 n=a3 v=0
100619 On ch=2 n=g4 v=0
100619 On ch=2 n=e4 v=0
100619 On ch=2 n=c5 v=0
100620 On ch=2 n=a2 v=116
100620 On ch=2 n=e3 v=116
100680 On ch=2 n=e5 v=116
100680 On ch=2 n=c5 v=116
100680 On ch=2 n=g4 v=116
100799 On ch=2 n=g4 v=0
100799 On ch=2 n=e5 v=0
100799 On ch=2 n=a2 v=0
100799 On ch=2 n=e3 v=0
100799 On ch=2 n=c5 v=0
100800 On ch=2 n=e4 v=116
100800 On ch=2 n=g4 v=116
100800 On ch=2 n=c5 v=116
100859 On ch=2 n=c5 v=0
100859 On ch=2 n=g4 v=0
100859 On ch=2 n=e4 v=0
100860 On ch=2 n=e5 v=116
100860 On ch=2 n=c5 v=116
100860 On ch=2 n=g4 v=116
100980 On ch=2 n=e2 v=116
100980 On ch=2 n=a2 v=116
101100 On ch=2 n=b4 v=116
101119 On ch=2 n=b4 v=0
101120 On ch=2 n=a4 v=116
101139 On ch=2 n=a4 v=0
101140 On ch=2 n=g#4 v=116
101159 On ch=2 n=g#4 v=0
101160 On ch=2 n=g4 v=116
101179 On ch=2 n=g4 v=0
101180 On ch=2 n=e4 v=116
101199 On ch=2 n=e4 v=0
101200 On ch=2 n=c4 v=116
101219 On ch=2 n=c4 v=0
101220 On ch=2 n=b3 v=116
101239 On ch=2 n=b3 v=0
101240 On ch=2 n=a3 v=116
101259 On ch=2 n=a3 v=0
101260 On ch=2 n=g#3 v=116
101279 On ch=2 n=g#3 v=0
101280 On ch=2 n=g3 v=116
101299 On ch=2 n=g3 v=0
101300 On ch=2 n=e3 v=116
101319 On ch=2 n=e3 v=0
101320 On ch=2 n=c3 v=116
101339 On ch=2 n=c3 v=0
101339 On ch=2 n=a2 v=0
101339 On ch=2 n=g4 v=0
101339 On ch=2 n=e5 v=0
101339 On ch=2 n=c5 v=0
101339 On ch=2 n=e2 v=0
101340 On ch=2 n=a1 v=116
101340 On ch=2 n=a2 v=116
101346 On ch=2 n=a1 v=0
101347 On ch=2 n=e2 v=116
101349 On ch=2 n=a2 v=0
101354 On ch=2 n=a2 v=116
101356 On ch=2 n=e2 v=0
101361 On ch=2 n=c3 v=116
101363 On ch=2 n=a2 v=0
101370 On ch=2 n=c3 v=0
101370 On ch=2 n=d#3 v=116
101379 On ch=2 n=d#3 v=0
101385 On ch=2 n=e3 v=116
101394 On ch=2 n=e3 v=0
101400 On ch=2 n=f3 v=116
101414 On ch=2 n=f3 v=0
101415 On ch=2 n=f#3 v=116
101429 On ch=2 n=f#3 v=0
101430 On ch=2 n=g#3 v=116
101444 On ch=2 n=g#3 v=0
101445 On ch=2 n=a3 v=116
101459 On ch=2 n=a3 v=0
101460 On ch=2 n=b3 v=116
101474 On ch=2 n=b3 v=0
101475 On ch=2 n=c4 v=116
101484 On ch=2 n=c4 v=0
101490 On ch=2 n=d#4 v=116
101504 On ch=2 n=d#4 v=0
101505 On ch=2 n=e4 v=116
101519 On ch=2 n=e4 v=0
101522 On ch=2 n=f4 v=116
101529 On ch=2 n=f#4 v=116
101536 On ch=2 n=f4 v=0
101536 On ch=2 n=g4 v=116
101543 On ch=2 n=f#4 v=0
101543 On ch=2 n=g#4 v=116
101550 On ch=2 n=g4 v=0
101550 On ch=2 n=a4 v=116
101557 On ch=2 n=g#4 v=0
101564 On ch=2 n=a4 v=0
101564 On ch=2 n=a#4 v=116
101578 On ch=2 n=a#4 v=0
101578 On ch=2 n=b4 v=116
101585 On ch=2 n=c5 v=116
101592 On ch=2 n=b4 v=0
101592 On ch=2 n=c#5 v=116
101599 On ch=2 n=c5 v=0
101599 On ch=2 n=d5 v=116
101606 On ch=2 n=c#5 v=0
101606 On ch=2 n=d#5 v=116
101613 On ch=2 n=d5 v=0
101613 On ch=2 n=e5 v=116
101620 On ch=2 n=d#5 v=0
101620 On ch=2 n=f5 v=116
101626 On ch=2 n=e5 v=0
101627 On ch=2 n=f#5 v=116
101633 On ch=2 n=f5 v=0
101634 On ch=2 n=g5 v=116
101640 On ch=2 n=f#5 v=0
101647 On ch=2 n=g5 v=0
101648 On ch=2 n=g#5 v=116
101661 On ch=2 n=g#5 v=0
101662 On ch=2 n=a5 v=116
101675 On ch=2 n=a5 v=0
101676 On ch=2 n=a#5 v=116
101689 On ch=2 n=a#5 v=0
101690 On ch=2 n=b5 v=116
101703 On ch=2 n=b5 v=0
101704 On ch=2 n=c6 v=116
101711 On ch=2 n=c#6 v=116
101717 On ch=2 n=c6 v=0
101718 On ch=2 n=d6 v=116
101724 On ch=2 n=c#6 v=0
101725 On ch=2 n=d#6 v=116
101731 On ch=2 n=d6 v=0
101738 On ch=2 n=d#6 v=0
101739 On ch=2 n=e6 v=116
101752 On ch=2 n=e6 v=0
101820 On ch=2 n=a2 v=116
101879 On ch=2 n=a2 v=0
101880 On ch=2 n=c4 v=116
101939 On ch=2 n=c4 v=0
101940 On ch=2 n=e3 v=116
101999 On ch=2 n=e3 v=0
102000 On ch=2 n=e4 v=116
102059 On ch=2 n=e4 v=0
102060 On ch=2 n=a3 v=116
102119 On ch=2 n=a3 v=0
102120 On ch=2 n=e3 v=116
102179 On ch=2 n=e3 v=0
102180 On ch=2 n=c3 v=116
102239 On ch=2 n=c3 v=0
102240 On ch=2 n=e4 v=116
102299 On ch=2 n=e4 v=0
102300 On ch=2 n=g3 v=116
102359 On ch=2 n=g3 v=0
102360 On ch=2 n=g4 v=116
102419 On ch=2 n=g4 v=0
102420 On ch=2 n=c4 v=116
102479 On ch=2 n=c4 v=0
102480 On ch=2 n=g3 v=116
102539 On ch=2 n=g3 v=0
102540 On ch=2 n=e2 v=116
102599 On ch=2 n=e2 v=0
102600 On ch=2 n=b3 v=116
102659 On ch=2 n=b3 v=0
102660 On ch=2 n=e3 v=116
102719 On ch=2 n=e3 v=0
102720 On ch=2 n=g#4 v=116
102779 On ch=2 n=g#4 v=0
102780 On ch=2 n=b3 v=116
102839 On ch=2 n=b3 v=0
102840 On ch=2 n=b4 v=116
102899 On ch=2 n=b4 v=0
102900 On ch=2 n=c#5 v=116
102959 On ch=2 n=c#5 v=0
102960 On ch=2 n=e5 v=116
103019 On ch=2 n=e5 v=0
103020 On ch=2 n=b5 v=116
103079 On ch=2 n=b5 v=0
103080 On ch=2 n=c#6 v=116
103139 On ch=2 n=c#6 v=0
103140 On ch=2 n=e6 v=116
103199 On ch=2 n=e6 v=0
103260 On ch=2 n=b5 v=116
103260 On ch=2 n=g#5 v=116
103260 On ch=2 n=e5 v=116
103349 On ch=2 n=e5 v=0
103349 On ch=2 n=g#5 v=0
103349 On ch=2 n=b5 v=0
103350 On ch=2 n=d#5 v=116
103379 On ch=2 n=d#5 v=0
103380 On ch=2 n=a5 v=116
103380 On ch=2 n=f#5 v=116
103380 On ch=2 n=c#5 v=116
103439 On ch=2 n=c#5 v=0
103439 On ch=2 n=f#5 v=0
103439 On ch=2 n=a5 v=0
103440 On ch=2 n=e5 v=116
103440 On ch=2 n=g#5 v=116
103440 On ch=2 n=b5 v=116
103709 On ch=2 n=b5 v=0
103709 On ch=2 n=g#5 v=0
103709 On ch=2 n=e5 v=0
103710 On ch=2 n=d#5 v=116
103739 On ch=2 n=d#5 v=0
103740 On ch=2 n=a5 v=116
103740 On ch=2 n=e5 v=116
103740 On ch=2 n=c#5 v=116
103799 On ch=2 n=c#5 v=0
103799 On ch=2 n=e5 v=0
103799 On ch=2 n=a5 v=0
103800 On ch=2 n=e5 v=116
103800 On ch=2 n=g#5 v=116
103800 On ch=2 n=b5 v=116
103859 On ch=2 n=b5 v=0
103859 On ch=2 n=g#5 v=0
103859 On ch=2 n=e5 v=0
103860 On ch=2 n=d#5 v=116
103889 On ch=2 n=d#5 v=0
103890 On ch=2 n=c#5 v=116
103919 On ch=2 n=c#5 v=0
103920 On ch=2 n=g#5 v=116
103920 On ch=2 n=d#5 v=116
103920 On ch=2 n=b4 v=116
103979 On ch=2 n=b4 v=0
103979 On ch=2 n=d#5 v=0
103979 On ch=2 n=g#5 v=0
103980 On ch=2 n=b5 v=116
103980 On ch=2 n=g#5 v=116
103980 On ch=2 n=e5 v=116
104069 On ch=2 n=e5 v=0
104069 On ch=2 n=g#5 v=0
104069 On ch=2 n=b5 v=0
104070 On ch=2 n=a5 v=116
104070 On ch=2 n=c#6 v=116
104070 On ch=2 n=d#5 v=116
104099 On ch=2 n=d#5 v=0
104099 On ch=2 n=c#6 v=0
104099 On ch=2 n=a5 v=0
104100 On ch=2 n=e5 v=116
104100 On ch=2 n=g#5 v=116
104100 On ch=2 n=b5 v=116
104399 On ch=2 n=b5 v=0
104399 On ch=2 n=g#5 v=0
104399 On ch=2 n=e5 v=0
104400 On ch=2 n=b4 v=116
104459 On ch=2 n=b4 v=0
104460 On ch=2 n=b5 v=116
104519 On ch=2 n=b5 v=0
104520 On ch=2 n=f#5 v=116
104520 On ch=2 n=g#5 v=116
104699 On ch=2 n=g#5 v=0
104699 On ch=2 n=f#5 v=0
104760 On ch=2 n=e3 v=116
104819 On ch=2 n=e3 v=0
104820 On ch=2 n=c#4 v=116
104879 On ch=2 n=c#4 v=0
104880 On ch=2 n=g#4 v=116
104939 On ch=2 n=g#4 v=0
104940 On ch=2 n=g#4 v=116
105000 On ch=2 n=f#5 v=116
105059 On ch=2 n=f#5 v=0
105060 On ch=2 n=e5 v=116
105179 On ch=2 n=e5 v=0
105179 On ch=2 n=g#4 v=0
105180 On ch=2 n=g#4 v=116
105239 On ch=2 n=g#4 v=0
105240 On ch=2 n=d#5 v=116
105240 On ch=2 n=g#4 v=116
105359 On ch=2 n=d#5 v=0
105360 On ch=2 n=d5 v=116
105419 On ch=2 n=d5 v=0
105419 On ch=2 n=g#4 v=0
105420 On ch=2 n=e3 v=116
105479 On ch=2 n=e3 v=0
105480 On ch=2 n=b3 v=116
105539 On ch=2 n=b3 v=0
105540 On ch=2 n=f#4 v=116
105599 On ch=2 n=f#4 v=0
105600 On ch=2 n=a4 v=116
105659 On ch=2 n=a4 v=0
105660 On ch=2 n=b4 v=116
105719 On ch=2 n=b4 v=0
105720 On ch=2 n=c#5 v=116
105779 On ch=2 n=c#5 v=0
105780 On ch=2 n=b4 v=116
105900 On ch=2 n=b3 v=116
105959 On ch=2 n=b4 v=0
105960 On ch=2 n=b4 v=116
106079 On ch=2 n=b4 v=0
106080 On ch=2 n=a#4 v=116
106139 On ch=2 n=a#4 v=0
106139 On ch=2 n=b3 v=0
106140 On ch=2 n=e3 v=116
106199 On ch=2 n=e3 v=0
106200 On ch=2 n=b3 v=116
106259 On ch=2 n=b3 v=0
106260 On ch=2 n=f#4 v=116
106319 On ch=2 n=f#4 v=0
106320 On ch=2 n=g#4 v=116
106379 On ch=2 n=g#4 v=0
106380 On ch=2 n=a4 v=116
106439 On ch=2 n=a4 v=0
106440 On ch=2 n=b4 v=116
106499 On ch=2 n=b4 v=0
106500 On ch=2 n=g#4 v=116
106620 On ch=2 n=b3 v=116
106679 On ch=2 n=g#4 v=0
106680 On ch=2 n=g#4 v=116
106799 On ch=2 n=g#4 v=0
106800 On ch=2 n=g4 v=116
106859 On ch=2 n=g4 v=0
106859 On ch=2 n=b3 v=0
106860 On ch=2 n=e2 v=116
106919 On ch=2 n=e2 v=0
106920 On ch=2 n=e3 v=116
106979 On ch=2 n=e3 v=0
106980 On ch=2 n=b3 v=116
107039 On ch=2 n=b3 v=0
107040 On ch=2 n=c#4 v=116
107099 On ch=2 n=c#4 v=0
107100 On ch=2 n=d4 v=116
107159 On ch=2 n=d4 v=0
107160 On ch=2 n=a4 v=116
107219 On ch=2 n=a4 v=0
107220 On ch=2 n=e4 v=116
107340 On ch=2 n=e3 v=116
107399 On ch=2 n=e4 v=0
107400 On ch=2 n=d#4 v=116
107519 On ch=2 n=d#4 v=0
107520 On ch=2 n=d4 v=116
107579 On ch=2 n=d4 v=0
107579 On ch=2 n=e3 v=0
107580 On ch=2 n=e3 v=116
107580 On ch=2 n=e2 v=116
107639 On ch=2 n=e2 v=0
107639 On ch=2 n=e3 v=0
107640 On ch=2 n=c#4 v=116
107699 On ch=2 n=c#4 v=0
107700 On ch=2 n=g#4 v=116
107759 On ch=2 n=g#4 v=0
107760 On ch=2 n=a4 v=116
107819 On ch=2 n=a4 v=0
107820 On ch=2 n=c#5 v=116
107879 On ch=2 n=c#5 v=0
107880 On ch=2 n=e5 v=116
107939 On ch=2 n=e5 v=0
107940 On ch=2 n=a4 v=116
107940 On ch=2 n=b4 v=116
107940 On ch=2 n=g#5 v=116
107999 On ch=2 n=g#5 v=0
108000 On ch=2 n=f#5 v=116
108059 On ch=2 n=f#5 v=0
108060 On ch=2 n=d#5 v=116
108119 On ch=2 n=d#5 v=0
108120 On ch=2 n=c#5 v=116
108179 On ch=2 n=c#5 v=0
108180 On ch=2 n=g#4 v=116
108239 On ch=2 n=g#4 v=0
108240 On ch=2 n=f#4 v=116
108299 On ch=2 n=f#4 v=0
108299 On ch=2 n=b4 v=0
108299 On ch=2 n=a4 v=0
108300 On ch=2 n=e3 v=116
108300 On ch=2 n=e2 v=116
108359 On ch=2 n=e2 v=0
108359 On ch=2 n=e3 v=0
108360 On ch=2 n=c#4 v=116
108419 On ch=2 n=c#4 v=0
108420 On ch=2 n=g#4 v=116
108479 On ch=2 n=g#4 v=0
108480 On ch=2 n=a4 v=116
108539 On ch=2 n=a4 v=0
108540 On ch=2 n=c#5 v=116
108599 On ch=2 n=c#5 v=0
108600 On ch=2 n=e5 v=116
108659 On ch=2 n=e5 v=0
108660 On ch=2 n=a4 v=116
108660 On ch=2 n=b4 v=116
108660 On ch=2 n=g#5 v=116
108719 On ch=2 n=g#5 v=0
108720 On ch=2 n=f#5 v=116
108779 On ch=2 n=f#5 v=0
108780 On ch=2 n=d#5 v=116
108839 On ch=2 n=d#5 v=0
108840 On ch=2 n=c#5 v=116
108899 On ch=2 n=c#5 v=0
108900 On ch=2 n=g#4 v=116
108959 On ch=2 n=g#4 v=0
108960 On ch=2 n=f#4 v=116
109019 On ch=2 n=f#4 v=0
109019 On ch=2 n=b4 v=0
109019 On ch=2 n=a4 v=0
109020 On ch=2 n=a4 v=116
109020 On ch=2 n=e2 v=116
109020 On ch=2 n=e3 v=116
109199 On ch=2 n=e3 v=0
109199 On ch=2 n=e2 v=0
109199 On ch=2 n=a4 v=0
109200 On ch=2 n=a4 v=116
109379 On ch=2 n=a4 v=0
109380 On ch=2 n=g#4 v=116
109559 On ch=2 n=g#4 v=0
109560 On ch=2 n=f#4 v=116
109739 On ch=2 n=f#4 v=0
109740 On ch=2 n=e4 v=116
109919 On ch=2 n=e4 v=0
109920 On ch=2 n=d#4 v=116
110099 On ch=2 n=d#4 v=0
110100 On ch=2 n=c#4 v=116
110279 On ch=2 n=c#4 v=0
110280 On ch=2 n=b3 v=116
110399 On ch=2 n=b3 v=0
110400 On ch=2 n=a3 v=116
110459 On ch=2 n=a3 v=0
110460 On ch=2 n=d#4 v=116
110460 On ch=2 n=b3 v=116
110460 On ch=2 n=g#3 v=116
110819 On ch=2 n=g#3 v=0
110819 On ch=2 n=b3 v=0
110819 On ch=2 n=d#4 v=0
110820 On ch=2 n=c#4 v=116
110820 On ch=2 n=f#3 v=116
111119 On ch=2 n=f#3 v=0
111119 On ch=2 n=c#4 v=0
111120 On ch=2 n=c4 v=116
111120 On ch=2 n=f3 v=116
111179 On ch=2 n=f3 v=0
111179 On ch=2 n=c4 v=0
111180 On ch=2 n=b3 v=116
111180 On ch=2 n=d#3 v=116
111899 On ch=2 n=d#3 v=0
111899 On ch=2 n=b3 v=0
111900 On ch=2 n=d5 v=116
111900 On ch=2 n=b4 v=116
111900 On ch=2 n=e4 v=116
112259 On ch=2 n=e4 v=0
112259 On ch=2 n=b4 v=0
112259 On ch=2 n=d5 v=0
112260 On ch=2 n=d5 v=116
112260 On ch=2 n=a#4 v=116
112499 On ch=2 n=a#4 v=0
112499 On ch=2 n=d5 v=0
112500 On ch=2 n=c5 v=116
112500 On ch=2 n=a4 v=116
112619 On ch=2 n=a4 v=0
112619 On ch=2 n=c5 v=0
112620 On ch=2 n=a#4 v=116
112620 On ch=2 n=g4 v=116
112859 On ch=2 n=g4 v=0
112860 On ch=2 n=f#4 v=116
112979 On ch=2 n=f#4 v=0
112979 On ch=2 n=a#4 v=0
112980 On ch=2 n=a#3 v=116
112980 On ch=2 n=f4 v=116
113099 On ch=2 n=f4 v=0
113100 On ch=2 n=e4 v=116
113219 On ch=2 n=e4 v=0
113220 On ch=2 n=d#4 v=116
113339 On ch=2 n=d#4 v=0
113339 On ch=2 n=a#3 v=0
113340 On ch=2 n=d4 v=116
113340 On ch=2 n=g3 v=116
113459 On ch=2 n=d4 v=0
113460 On ch=2 n=c#4 v=116
113579 On ch=2 n=c#4 v=0
113579 On ch=2 n=g3 v=0
113580 On ch=2 n=f3 v=116
113580 On ch=2 n=c4 v=116
113639 On ch=2 n=c4 v=0
113640 On ch=2 n=b3 v=116
113699 On ch=2 n=b3 v=0
113699 On ch=2 n=f3 v=0
113700 On ch=2 n=c3 v=116
113700 On ch=2 n=c4 v=116
113879 On ch=2 n=c4 v=0
113879 On ch=2 n=c3 v=0
113880 On ch=2 n=a2 v=116
113880 On ch=2 n=c4 v=116
114059 On ch=2 n=c4 v=0
114059 On ch=2 n=a2 v=0
114060 On ch=2 n=c4 v=116
114060 On ch=2 n=g3 v=116
114060 On ch=2 n=c3 v=116
114419 On ch=2 n=c3 v=0
114419 On ch=2 n=g3 v=0
114419 On ch=2 n=c4 v=0
114420 On ch=2 n=f2 v=116
114420 On ch=2 n=f3 v=116
114539 On ch=2 n=f3 v=0
114539 On ch=2 n=f2 v=0
114540 On ch=2 n=g5 v=116
114540 On ch=2 n=e5 v=116
114540 On ch=2 n=c#5 v=116
114540 On ch=2 n=a#4 v=116
114540 On ch=2 n=g4 v=116
114660 On ch=2 n=g6 v=116
114699 On ch=2 n=g6 v=0
114700 On ch=2 n=f6 v=116
114739 On ch=2 n=f6 v=0
114740 On ch=2 n=e6 v=116
114779 On ch=2 n=e6 v=0
114779 On ch=2 n=e5 v=0
114779 On ch=2 n=c#5 v=0
114779 On ch=2 n=g5 v=0
114779 On ch=2 n=g4 v=0
114779 On ch=2 n=a#4 v=0
114940 On ch=2 n=f5 v=116
114979 On ch=2 n=f5 v=0
114980 On ch=2 n=e5 v=116
115019 On ch=2 n=e5 v=0
115140 On ch=2 n=a#2 v=116
115140 On ch=2 n=f3 v=116
115259 On ch=2 n=f3 v=0
115259 On ch=2 n=a#2 v=0
115500 On ch=2 n=a#2 v=116
115500 On ch=2 n=f3 v=116
115619 On ch=2 n=f3 v=0
115619 On ch=2 n=a#2 v=0
115860 On ch=2 n=a#2 v=116
115860 On ch=2 n=f3 v=116
115919 On ch=2 n=f3 v=0
115919 On ch=2 n=a#2 v=0
115920 On ch=2 n=f3 v=116
115920 On ch=2 n=a#2 v=116
115979 On ch=2 n=a#2 v=0
115979 On ch=2 n=f3 v=0
115980 On ch=2 n=a#2 v=116
115980 On ch=2 n=f3 v=116
116099 On ch=2 n=f3 v=0
116099 On ch=2 n=a#2 v=0
116100 On ch=2 n=a#2 v=116
116100 On ch=2 n=f3 v=116
116219 On ch=2 n=f3 v=0
116219 On ch=2 n=a#2 v=0
116340 On ch=2 n=a#2 v=116
116340 On ch=2 n=f3 v=116
116399 On ch=2 n=f3 v=0
116399 On ch=2 n=a#2 v=0
116400 On ch=2 n=a#2 v=116
116400 On ch=2 n=f3 v=116
116459 On ch=2 n=f3 v=0
116459 On ch=2 n=a#2 v=0
116460 On ch=2 n=a#2 v=116
116460 On ch=2 n=f3 v=116
116579 On ch=2 n=f3 v=0
116579 On ch=2 n=a#2 v=0
116640 On ch=2 n=d3 v=116
116640 On ch=2 n=a#2 v=116
116669 On ch=2 n=a#2 v=0
116669 On ch=2 n=d3 v=0
116700 On ch=2 n=e3 v=116
116729 On ch=2 n=e3 v=0
116760 On ch=2 n=a#2 v=116
116760 On ch=2 n=d3 v=116
116789 On ch=2 n=d3 v=0
116789 On ch=2 n=a#2 v=0
116820 On ch=2 n=f3 v=116
116849 On ch=2 n=f3 v=0
116880 On ch=2 n=a#2 v=116
116880 On ch=2 n=d3 v=116
116909 On ch=2 n=d3 v=0
116909 On ch=2 n=a#2 v=0
116940 On ch=2 n=f#3 v=116
116969 On ch=2 n=f#3 v=0
117000 On ch=2 n=a#2 v=116
117000 On ch=2 n=d3 v=116
117029 On ch=2 n=d3 v=0
117029 On ch=2 n=a#2 v=0
117060 On ch=2 n=f3 v=116
117089 On ch=2 n=f3 v=0
117120 On ch=2 n=a#2 v=116
117120 On ch=2 n=d3 v=116
117149 On ch=2 n=d3 v=0
117149 On ch=2 n=a#2 v=0
117180 On ch=2 n=e3 v=116
117209 On ch=2 n=e3 v=0
117240 On ch=2 n=a#1 v=116
117299 On ch=2 n=a#1 v=0
117300 On ch=2 n=b2 v=116
117379 On ch=2 n=b2 v=0
117380 On ch=2 n=f#3 v=116
117419 On ch=2 n=f#3 v=0
117420 On ch=2 n=a#4 v=116
117459 On ch=2 n=a#4 v=0
117460 On ch=2 n=c#4 v=116
117499 On ch=2 n=c#4 v=0
117500 On ch=2 n=f#3 v=116
117539 On ch=2 n=f#3 v=0
117540 On ch=2 n=b2 v=116
117619 On ch=2 n=b2 v=0
117620 On ch=2 n=a#1 v=116
117659 On ch=2 n=a#1 v=0
117660 On ch=2 n=a#2 v=116
117739 On ch=2 n=a#2 v=0
117740 On ch=2 n=f#3 v=116
117779 On ch=2 n=f#3 v=0
117780 On ch=2 n=a#4 v=116
117819 On ch=2 n=a#4 v=0
117820 On ch=2 n=c#4 v=116
117859 On ch=2 n=c#4 v=0
117860 On ch=2 n=f#3 v=116
117899 On ch=2 n=f#3 v=0
117900 On ch=2 n=a#2 v=116
117979 On ch=2 n=a#2 v=0
117980 On ch=2 n=b1 v=116
118019 On ch=2 n=b1 v=0
118020 On ch=2 n=a#2 v=116
118099 On ch=2 n=a#2 v=0
118100 On ch=2 n=f#3 v=116
118139 On ch=2 n=f#3 v=0
118140 On ch=2 n=a#4 v=116
118179 On ch=2 n=a#4 v=0
118180 On ch=2 n=c#4 v=116
118219 On ch=2 n=c#4 v=0
118220 On ch=2 n=f#3 v=116
118259 On ch=2 n=f#3 v=0
118260 On ch=2 n=a#2 v=116
118339 On ch=2 n=a#2 v=0
118340 On ch=2 n=b1 v=116
118379 On ch=2 n=b1 v=0
118380 On ch=2 n=a#2 v=116
118459 On ch=2 n=a#2 v=0
118460 On ch=2 n=f#3 v=116
118499 On ch=2 n=f#3 v=0
118500 On ch=2 n=a#4 v=116
118539 On ch=2 n=a#4 v=0
118540 On ch=2 n=c#4 v=116
118579 On ch=2 n=c#4 v=0
118580 On ch=2 n=f#3 v=116
118619 On ch=2 n=f#3 v=0
118620 On ch=2 n=a#2 v=116
118699 On ch=2 n=a#2 v=0
118700 On ch=2 n=b1 v=116
118739 On ch=2 n=b1 v=0
118740 On ch=2 n=a#2 v=116
118819 On ch=2 n=a#2 v=0
118820 On ch=2 n=d5 v=116
118820 On ch=2 n=a#4 v=116
118820 On ch=2 n=f4 v=116
118859 On ch=2 n=f4 v=0
118859 On ch=2 n=a#4 v=0
118859 On ch=2 n=d5 v=0
118860 On ch=2 n=f5 v=116
118899 On ch=2 n=f5 v=0
118900 On ch=2 n=e5 v=116
118939 On ch=2 n=e5 v=0
118940 On ch=2 n=d#5 v=116
118979 On ch=2 n=d#5 v=0
118980 On ch=2 n=d5 v=116
119019 On ch=2 n=d5 v=0
119020 On ch=2 n=a#4 v=116
119059 On ch=2 n=a#4 v=0
119060 On ch=2 n=f#4 v=116
119099 On ch=2 n=f#4 v=0
119100 On ch=2 n=f4 v=116
119139 On ch=2 n=f4 v=0
119140 On ch=2 n=e4 v=116
119179 On ch=2 n=e4 v=0
119180 On ch=2 n=d#4 v=116
119219 On ch=2 n=d#4 v=0
119220 On ch=2 n=d4 v=116
119259 On ch=2 n=d4 v=0
119260 On ch=2 n=c4 v=116
119299 On ch=2 n=c4 v=0
119300 On ch=2 n=a#3 v=116
119339 On ch=2 n=a#3 v=0
119340 On ch=2 n=a3 v=116
119379 On ch=2 n=a3 v=0
119380 On ch=2 n=g3 v=116
119419 On ch=2 n=g3 v=0
119420 On ch=2 n=f#3 v=116
119459 On ch=2 n=f#3 v=0
119460 On ch=2 n=a#2 v=116
119460 On ch=2 n=f3 v=116
119519 On ch=2 n=f3 v=0
119519 On ch=2 n=a#2 v=0
119520 On ch=2 n=d3 v=116
119520 On ch=2 n=a#2 v=116
119549 On ch=2 n=a#2 v=0
119549 On ch=2 n=d3 v=0
119580 On ch=2 n=e3 v=116
119609 On ch=2 n=e3 v=0
119640 On ch=2 n=d3 v=116
119640 On ch=2 n=a#2 v=116
119669 On ch=2 n=a#2 v=0
119669 On ch=2 n=d3 v=0
119700 On ch=2 n=f3 v=116
119729 On ch=2 n=f3 v=0
119760 On ch=2 n=d3 v=116
119760 On ch=2 n=a#2 v=116
119789 On ch=2 n=a#2 v=0
119789 On ch=2 n=d3 v=0
119820 On ch=2 n=f#3 v=116
119849 On ch=2 n=f#3 v=0
119880 On ch=2 n=d3 v=116
119880 On ch=2 n=a#2 v=116
119909 On ch=2 n=a#2 v=0
119909 On ch=2 n=d3 v=0
119940 On ch=2 n=f3 v=116
119969 On ch=2 n=f3 v=0
120000 On ch=2 n=a#2 v=116
120000 On ch=2 n=d3 v=116
120029 On ch=2 n=d3 v=0
120029 On ch=2 n=a#2 v=0
120060 On ch=2 n=e2 v=116
120060 On ch=2 n=e3 v=116
120089 On ch=2 n=e3 v=0
120089 On ch=2 n=e2 v=0
120180 On ch=2 n=a#2 v=116
120259 On ch=2 n=a#2 v=0
120260 On ch=2 n=f#3 v=116
120299 On ch=2 n=f#3 v=0
120300 On ch=2 n=a#4 v=116
120339 On ch=2 n=a#4 v=0
120340 On ch=2 n=c#4 v=116
120379 On ch=2 n=c#4 v=0
120380 On ch=2 n=f#3 v=116
120419 On ch=2 n=f#3 v=0
120420 On ch=2 n=a#2 v=116
120499 On ch=2 n=a#2 v=0
120500 On ch=2 n=b1 v=116
120539 On ch=2 n=b1 v=0
120540 On ch=2 n=a#2 v=116
120619 On ch=2 n=a#2 v=0
120620 On ch=2 n=f#3 v=116
120659 On ch=2 n=f#3 v=0
120660 On ch=2 n=a#4 v=116
120699 On ch=2 n=a#4 v=0
120700 On ch=2 n=c#4 v=116
120739 On ch=2 n=c#4 v=0
120740 On ch=2 n=f#3 v=116
120779 On ch=2 n=f#3 v=0
120780 On ch=2 n=a#2 v=116
120859 On ch=2 n=a#2 v=0
120860 On ch=2 n=b1 v=116
120899 On ch=2 n=b1 v=0
120900 On ch=2 n=a#2 v=116
120979 On ch=2 n=a#2 v=0
120980 On ch=2 n=f#3 v=116
121019 On ch=2 n=f#3 v=0
121020 On ch=2 n=a#4 v=116
121059 On ch=2 n=a#4 v=0
121060 On ch=2 n=c#4 v=116
121099 On ch=2 n=c#4 v=0
121100 On ch=2 n=f#3 v=116
121139 On ch=2 n=f#3 v=0
121140 On ch=2 n=a#2 v=116
121219 On ch=2 n=a#2 v=0
121220 On ch=2 n=b1 v=116
121259 On ch=2 n=b1 v=0
121260 On ch=2 n=a#2 v=116
121339 On ch=2 n=a#2 v=0
121340 On ch=2 n=f#3 v=116
121379 On ch=2 n=f#3 v=0
121380 On ch=2 n=a#4 v=116
121419 On ch=2 n=a#4 v=0
121420 On ch=2 n=c#4 v=116
121459 On ch=2 n=c#4 v=0
121460 On ch=2 n=f#3 v=116
121499 On ch=2 n=f#3 v=0
121500 On ch=2 n=a#2 v=116
121579 On ch=2 n=a#2 v=0
121580 On ch=2 n=b1 v=116
121619 On ch=2 n=b1 v=0
121620 On ch=2 n=a#2 v=116
121699 On ch=2 n=a#2 v=0
121700 On ch=2 n=f4 v=116
121739 On ch=2 n=f4 v=0
121740 On ch=2 n=f5 v=116
121899 On ch=2 n=f5 v=0
121900 On ch=2 n=e5 v=116
121939 On ch=2 n=e5 v=0
121940 On ch=2 n=d#5 v=116
121979 On ch=2 n=d#5 v=0
121980 On ch=2 n=d5 v=116
122019 On ch=2 n=d5 v=0
122020 On ch=2 n=c5 v=116
122059 On ch=2 n=c5 v=0
122060 On ch=2 n=a#4 v=116
122099 On ch=2 n=a#4 v=0
122100 On ch=2 n=a4 v=116
122139 On ch=2 n=a4 v=0
122140 On ch=2 n=g#4 v=116
122179 On ch=2 n=g#4 v=0
122180 On ch=2 n=g4 v=116
122219 On ch=2 n=g4 v=0
122220 On ch=2 n=a#3 v=116
122259 On ch=2 n=a#3 v=0
122260 On ch=2 n=d#3 v=116
122299 On ch=2 n=d#3 v=0
122340 On ch=2 n=f5 v=116
122379 On ch=2 n=f5 v=0
122380 On ch=2 n=e5 v=116
122419 On ch=2 n=e5 v=0
122420 On ch=2 n=d#5 v=116
122459 On ch=2 n=d#5 v=0
122460 On ch=2 n=d5 v=116
122539 On ch=2 n=d5 v=0
122540 On ch=2 n=a#4 v=116
122580 On ch=2 n=a#5 v=116
122580 On ch=2 n=d5 v=116
122619 On ch=2 n=d5 v=0
122619 On ch=2 n=a#5 v=0
122620 On ch=2 n=a5 v=116
122659 On ch=2 n=a5 v=0
122660 On ch=2 n=g#5 v=116
122699 On ch=2 n=g#5 v=0
122699 On ch=2 n=a#4 v=0
122700 On ch=2 n=d#5 v=116
122700 On ch=2 n=g5 v=116
122779 On ch=2 n=d#5 v=0
122780 On ch=2 n=d5 v=116
122819 On ch=2 n=g5 v=0
122820 On ch=2 n=d6 v=116
122820 On ch=2 n=f#5 v=116
122859 On ch=2 n=f#5 v=0
122859 On ch=2 n=d6 v=0
122860 On ch=2 n=c#6 v=116
122899 On ch=2 n=c#6 v=0
122900 On ch=2 n=c6 v=116
122939 On ch=2 n=c6 v=0
122939 On ch=2 n=d5 v=0
122940 On ch=2 n=g5 v=116
122940 On ch=2 n=a#5 v=116
122940 On ch=2 n=d#5 v=116
123059 On ch=2 n=d#5 v=0
123059 On ch=2 n=a#5 v=0
123059 On ch=2 n=g5 v=0
123060 On ch=2 n=d#2 v=116
123060 On ch=2 n=d#3 v=116
123139 On ch=2 n=d#3 v=0
123139 On ch=2 n=d#2 v=0
123140 On ch=2 n=a#3 v=116
123179 On ch=2 n=a#3 v=0
123180 On ch=2 n=g4 v=116
123259 On ch=2 n=g4 v=0
123260 On ch=2 n=c#4 v=116
123299 On ch=2 n=c#4 v=0
123300 On ch=2 n=a4 v=116
123419 On ch=2 n=a4 v=0
123420 On ch=2 n=g3 v=116
123420 On ch=2 n=g2 v=116
123499 On ch=2 n=g2 v=0
123499 On ch=2 n=g3 v=0
123500 On ch=2 n=d4 v=116
123539 On ch=2 n=d4 v=0
123540 On ch=2 n=a#4 v=116
123619 On ch=2 n=a#4 v=0
123620 On ch=2 n=d#4 v=116
123659 On ch=2 n=d#4 v=0
123660 On ch=2 n=c#5 v=116
123779 On ch=2 n=c#5 v=0
123780 On ch=2 n=a#2 v=116
123780 On ch=2 n=a#3 v=116
123859 On ch=2 n=a#3 v=0
123859 On ch=2 n=a#2 v=0
123860 On ch=2 n=g4 v=116
123899 On ch=2 n=g4 v=0
123900 On ch=2 n=d#5 v=116
123979 On ch=2 n=d#5 v=0
123980 On ch=2 n=a4 v=116
124019 On ch=2 n=a4 v=0
124020 On ch=2 n=f#5 v=116
124139 On ch=2 n=f#5 v=0
124140 On ch=2 n=d#3 v=116
124140 On ch=2 n=d#4 v=116
124219 On ch=2 n=d#4 v=0
124219 On ch=2 n=d#3 v=0
124220 On ch=2 n=a#4 v=116
124259 On ch=2 n=a#4 v=0
124260 On ch=2 n=g5 v=116
124339 On ch=2 n=g5 v=0
124340 On ch=2 n=c#5 v=116
124379 On ch=2 n=c#5 v=0
124380 On ch=2 n=a5 v=116
124499 On ch=2 n=a5 v=0
124620 On ch=2 n=g5 v=116
124620 On ch=2 n=d5 v=116
124739 On ch=2 n=d5 v=0
124739 On ch=2 n=g5 v=0
124740 On ch=2 n=a#4 v=116
124740 On ch=2 n=c#5 v=116
124740 On ch=2 n=f#5 v=116
124859 On ch=2 n=f#5 v=0
124859 On ch=2 n=c#5 v=0
124859 On ch=2 n=a#4 v=0
124860 On ch=2 n=d5 v=116
124860 On ch=2 n=g5 v=116
124979 On ch=2 n=g5 v=0
124979 On ch=2 n=d5 v=0
124980 On ch=2 n=g#4 v=116
124980 On ch=2 n=b4 v=116
124980 On ch=2 n=f5 v=116
125099 On ch=2 n=f5 v=0
125099 On ch=2 n=b4 v=0
125099 On ch=2 n=g#4 v=0
125100 On ch=2 n=a#4 v=116
125100 On ch=2 n=d5 v=116
125100 On ch=2 n=g5 v=116
125219 On ch=2 n=g5 v=0
125219 On ch=2 n=d5 v=0
125219 On ch=2 n=a#4 v=0
125220 On ch=2 n=e5 v=116
125220 On ch=2 n=a#4 v=116
125220 On ch=2 n=f#4 v=116
125339 On ch=2 n=f#4 v=0
125339 On ch=2 n=a#4 v=0
125339 On ch=2 n=e5 v=0
125340 On ch=2 n=g#4 v=116
125340 On ch=2 n=f4 v=116
125340 On ch=2 n=f5 v=116
125340 On ch=2 n=d5 v=116
125459 On ch=2 n=d5 v=0
125459 On ch=2 n=g#4 v=0
125459 On ch=2 n=f4 v=0
125459 On ch=2 n=f5 v=0
125460 On ch=2 n=a4 v=116
125460 On ch=2 n=f#4 v=116
125460 On ch=2 n=d#4 v=116
125579 On ch=2 n=d#4 v=0
125579 On ch=2 n=f#4 v=0
125579 On ch=2 n=a4 v=0
125580 On ch=2 n=d5 v=116
125580 On ch=2 n=a#4 v=116
125580 On ch=2 n=f4 v=116
125580 On ch=2 n=a#3 v=116
125699 On ch=2 n=a#3 v=0
125699 On ch=2 n=d5 v=0
125699 On ch=2 n=a#4 v=0
125699 On ch=2 n=f4 v=0
125760 On ch=2 n=f3 v=116
125760 On ch=2 n=a#2 v=116
125819 On ch=2 n=a#2 v=0
125819 On ch=2 n=f3 v=0
125820 On ch=2 n=a#2 v=116
125820 On ch=2 n=f3 v=116
125939 On ch=2 n=f3 v=0
125939 On ch=2 n=a#2 v=0
126000 On ch=2 n=a#2 v=116
126000 On ch=2 n=f3 v=116
126059 On ch=2 n=f3 v=0
126059 On ch=2 n=a#2 v=0
126060 On ch=2 n=a#2 v=116
126060 On ch=2 n=f3 v=116
126179 On ch=2 n=f3 v=0
126179 On ch=2 n=a#2 v=0
126240 On ch=2 n=a#2 v=116
126240 On ch=2 n=f3 v=116
126299 On ch=2 n=f3 v=0
126299 On ch=2 n=a#2 v=0
126300 On ch=2 n=a#2 v=116
126300 On ch=2 n=f3 v=116
126329 On ch=2 n=f3 v=0
126329 On ch=2 n=a#2 v=0
126360 On ch=2 n=a#1 v=116
126360 On ch=2 n=a#2 v=116
126389 On ch=2 n=a#2 v=0
126389 On ch=2 n=a#1 v=0
126420 On ch=2 n=e2 v=116
126420 On ch=2 n=e3 v=116
126449 On ch=2 n=e3 v=0
126449 On ch=2 n=e2 v=0
126480 On ch=2 n=a#1 v=116
126480 On ch=2 n=a#2 v=116
126509 On ch=2 n=a#2 v=0
126509 On ch=2 n=a#1 v=0
126540 On ch=2 n=f2 v=116
126540 On ch=2 n=f3 v=116
126569 On ch=2 n=f3 v=0
126569 On ch=2 n=f2 v=0
126600 On ch=2 n=a#1 v=116
126600 On ch=2 n=a#2 v=116
126629 On ch=2 n=a#2 v=0
126629 On ch=2 n=a#1 v=0
126660 On ch=2 n=f#2 v=116
126660 On ch=2 n=f#3 v=116
126689 On ch=2 n=f#3 v=0
126689 On ch=2 n=f#2 v=0
126720 On ch=2 n=a#1 v=116
126720 On ch=2 n=a#2 v=116
126749 On ch=2 n=a#2 v=0
126749 On ch=2 n=a#1 v=0
126780 On ch=2 n=f2 v=116
126780 On ch=2 n=f3 v=116
126809 On ch=2 n=f3 v=0
126809 On ch=2 n=f2 v=0
126840 On ch=2 n=a#1 v=116
126840 On ch=2 n=a#2 v=116
126869 On ch=2 n=a#2 v=0
126869 On ch=2 n=a#1 v=0
126900 On ch=2 n=e2 v=116
126900 On ch=2 n=e3 v=116
126929 On ch=2 n=e3 v=0
126929 On ch=2 n=e2 v=0
126960 On ch=2 n=a#1 v=116
127019 On ch=2 n=a#1 v=0
127020 On ch=2 n=a#2 v=116
127099 On ch=2 n=a#2 v=0
127100 On ch=2 n=f#3 v=116
127139 On ch=2 n=f#3 v=0
127140 On ch=2 n=a#4 v=116
127179 On ch=2 n=a#4 v=0
127180 On ch=2 n=c#4 v=116
127219 On ch=2 n=c#4 v=0
127220 On ch=2 n=f#3 v=116
127259 On ch=2 n=f#3 v=0
127260 On ch=2 n=a#2 v=116
127339 On ch=2 n=a#2 v=0
127340 On ch=2 n=b1 v=116
127379 On ch=2 n=b1 v=0
127380 On ch=2 n=a#2 v=116
127459 On ch=2 n=a#2 v=0
127460 On ch=2 n=f#3 v=116
127499 On ch=2 n=f#3 v=0
127500 On ch=2 n=a#4 v=116
127539 On ch=2 n=a#4 v=0
127540 On ch=2 n=c#4 v=116
127579 On ch=2 n=c#4 v=0
127580 On ch=2 n=f#3 v=116
127619 On ch=2 n=f#3 v=0
127620 On ch=2 n=a#2 v=116
127699 On ch=2 n=a#2 v=0
127700 On ch=2 n=b1 v=116
127739 On ch=2 n=b1 v=0
127740 On ch=2 n=a#2 v=116
127819 On ch=2 n=a#2 v=0
127820 On ch=2 n=f#3 v=116
127859 On ch=2 n=f#3 v=0
127860 On ch=2 n=a#4 v=116
127899 On ch=2 n=a#4 v=0
127900 On ch=2 n=c#4 v=116
127939 On ch=2 n=c#4 v=0
127940 On ch=2 n=f#3 v=116
127979 On ch=2 n=f#3 v=0
127980 On ch=2 n=a#2 v=116
128059 On ch=2 n=a#2 v=0
128060 On ch=2 n=b1 v=116
128099 On ch=2 n=b1 v=0
128100 On ch=2 n=a#2 v=116
128179 On ch=2 n=a#2 v=0
128180 On ch=2 n=f#3 v=116
128219 On ch=2 n=f#3 v=0
128220 On ch=2 n=a#4 v=116
128259 On ch=2 n=a#4 v=0
128260 On ch=2 n=c#4 v=116
128299 On ch=2 n=c#4 v=0
128300 On ch=2 n=f#3 v=116
128339 On ch=2 n=f#3 v=0
128340 On ch=2 n=a#2 v=116
128419 On ch=2 n=a#2 v=0
128420 On ch=2 n=b1 v=116
128459 On ch=2 n=b1 v=0
128460 On ch=2 n=a#2 v=116
128539 On ch=2 n=a#2 v=0
128540 On ch=2 n=f4 v=116
128579 On ch=2 n=f4 v=0
128580 On ch=2 n=f5 v=116
128739 On ch=2 n=f5 v=0
128740 On ch=2 n=e5 v=116
128779 On ch=2 n=e5 v=0
128780 On ch=2 n=d#5 v=116
128819 On ch=2 n=d#5 v=0
128820 On ch=2 n=d5 v=116
128859 On ch=2 n=d5 v=0
128860 On ch=2 n=c5 v=116
128899 On ch=2 n=c5 v=0
128900 On ch=2 n=a#4 v=116
128939 On ch=2 n=a#4 v=0
128940 On ch=2 n=a4 v=116
128979 On ch=2 n=a4 v=0
128980 On ch=2 n=g#4 v=116
129019 On ch=2 n=g#4 v=0
129020 On ch=2 n=g4 v=116
129059 On ch=2 n=g4 v=0
129060 On ch=2 n=a#3 v=116
129099 On ch=2 n=a#3 v=0
129100 On ch=2 n=d#3 v=116
129139 On ch=2 n=d#3 v=0
129180 On ch=2 n=c3 v=116
129259 On ch=2 n=c3 v=0
129260 On ch=2 n=g4 v=116
129299 On ch=2 n=g4 v=0
129300 On ch=2 n=g5 v=116
129459 On ch=2 n=g5 v=0
129460 On ch=2 n=f5 v=116
129499 On ch=2 n=f5 v=0
129500 On ch=2 n=e5 v=116
129539 On ch=2 n=e5 v=0
129540 On ch=2 n=d#5 v=116
129579 On ch=2 n=d#5 v=0
129580 On ch=2 n=d5 v=116
129619 On ch=2 n=d5 v=0
129620 On ch=2 n=c#5 v=116
129659 On ch=2 n=c#5 v=0
129660 On ch=2 n=c5 v=116
129699 On ch=2 n=c5 v=0
129700 On ch=2 n=a#4 v=116
129739 On ch=2 n=a#4 v=0
129740 On ch=2 n=a4 v=116
129779 On ch=2 n=a4 v=0
129780 On ch=2 n=c4 v=116
129819 On ch=2 n=c4 v=0
129820 On ch=2 n=f3 v=116
129859 On ch=2 n=f3 v=0
129900 On ch=2 n=c#4 v=116
129909 On ch=2 n=c#4 v=0
129910 On ch=2 n=a4 v=116
129910 On ch=2 n=f5 v=116
129910 On ch=2 n=b4 v=116
130019 On ch=2 n=b4 v=0
130019 On ch=2 n=f5 v=0
130020 On ch=2 n=f#5 v=116
130020 On ch=2 n=c5 v=116
130099 On ch=2 n=c5 v=0
130099 On ch=2 n=f#5 v=0
130099 On ch=2 n=a4 v=0
130100 On ch=2 n=g4 v=116
130139 On ch=2 n=g4 v=0
130140 On ch=2 n=e5 v=116
130140 On ch=2 n=a#5 v=116
130140 On ch=2 n=d5 v=116
130259 On ch=2 n=e5 v=0
130260 On ch=2 n=f5 v=116
130339 On ch=2 n=f5 v=0
130339 On ch=2 n=d5 v=0
130339 On ch=2 n=a#5 v=0
130340 On ch=2 n=c5 v=116
130379 On ch=2 n=c5 v=0
130380 On ch=2 n=d#6 v=116
130380 On ch=2 n=a5 v=116
130380 On ch=2 n=g5 v=116
130499 On ch=2 n=a5 v=0
130499 On ch=2 n=d#6 v=0
130500 On ch=2 n=e6 v=116
130500 On ch=2 n=a#5 v=116
130619 On ch=2 n=a#5 v=0
130619 On ch=2 n=e6 v=0
130619 On ch=2 n=g5 v=0
130620 On ch=2 n=d#6 v=116
130620 On ch=2 n=a5 v=116
130620 On ch=2 n=f5 v=116
130739 On ch=2 n=f5 v=0
130739 On ch=2 n=a5 v=0
130739 On ch=2 n=d#6 v=0
130740 On ch=2 n=a#5 v=116
130740 On ch=2 n=f5 v=116
130740 On ch=2 n=a#4 v=116
130859 On ch=2 n=a#4 v=0
130859 On ch=2 n=f5 v=0
130859 On ch=2 n=a#5 v=0
130860 On ch=2 n=d5 v=116
130860 On ch=2 n=a4 v=116
130860 On ch=2 n=d4 v=116
130979 On ch=2 n=d4 v=0
130979 On ch=2 n=a4 v=0
130979 On ch=2 n=d5 v=0
130980 On ch=2 n=g4 v=116
130980 On ch=2 n=d4 v=116
130980 On ch=2 n=g3 v=116
131099 On ch=2 n=g3 v=0
131099 On ch=2 n=d4 v=0
131099 On ch=2 n=g4 v=0
131100 On ch=2 n=d#4 v=116
131100 On ch=2 n=g#3 v=116
131219 On ch=2 n=g#3 v=0
131219 On ch=2 n=d#4 v=0
131220 On ch=2 n=a#2 v=116
131220 On ch=2 n=f3 v=116
131220 On ch=2 n=a#3 v=116
131339 On ch=2 n=a#3 v=0
131339 On ch=2 n=f3 v=0
131339 On ch=2 n=a#2 v=0
131340 On ch=2 n=d5 v=116
131340 On ch=2 n=d4 v=116
131579 On ch=2 n=d4 v=0
131579 On ch=2 n=d5 v=0
131580 On ch=2 n=d2 v=116
131580 On ch=2 n=d3 v=116
131699 On ch=2 n=d3 v=0
131699 On ch=2 n=d2 v=0
131700 On ch=2 n=c4 v=116
131739 On ch=2 n=c4 v=0
131740 On ch=2 n=d4 v=116
131779 On ch=2 n=d4 v=0
131780 On ch=2 n=d#4 v=116
131819 On ch=2 n=d#4 v=0
131820 On ch=2 n=a#3 v=116
131820 On ch=2 n=f4 v=116
131859 On ch=2 n=f4 v=0
131859 On ch=2 n=a#3 v=0
131940 On ch=2 n=a#3 v=116
131940 On ch=2 n=d#3 v=116
131940 On ch=2 n=d#4 v=116
132059 On ch=2 n=d#4 v=0
132059 On ch=2 n=d#3 v=0
132059 On ch=2 n=a#3 v=0
132060 On ch=2 n=g4 v=116
132180 On ch=2 n=a4 v=116
132180 On ch=2 n=d4 v=116
132209 On ch=2 n=d4 v=0
132209 On ch=2 n=a4 v=0
132300 On ch=2 n=d4 v=116
132300 On ch=2 n=g3 v=116
132300 On ch=2 n=g4 v=116
132419 On ch=2 n=g4 v=0
132419 On ch=2 n=g4 v=0
132419 On ch=2 n=d4 v=0
132419 On ch=2 n=g3 v=0
132420 On ch=2 n=d5 v=116
132420 On ch=2 n=d4 v=116
132659 On ch=2 n=d4 v=0
132659 On ch=2 n=d5 v=0
132660 On ch=2 n=d2 v=116
132660 On ch=2 n=d3 v=116
132779 On ch=2 n=d3 v=0
132779 On ch=2 n=d2 v=0
132780 On ch=2 n=g4 v=116
132819 On ch=2 n=g4 v=0
132820 On ch=2 n=a4 v=116
132859 On ch=2 n=a4 v=0
132860 On ch=2 n=a#4 v=116
132899 On ch=2 n=a#4 v=0
132900 On ch=2 n=f4 v=116
132900 On ch=2 n=c5 v=116
132939 On ch=2 n=c5 v=0
132939 On ch=2 n=f4 v=0
133020 On ch=2 n=f4 v=116
133020 On ch=2 n=a#3 v=116
133020 On ch=2 n=a#4 v=116
133139 On ch=2 n=a#4 v=0
133139 On ch=2 n=a#3 v=0
133139 On ch=2 n=f4 v=0
133140 On ch=2 n=g4 v=116
133260 On ch=2 n=a3 v=116
133260 On ch=2 n=e4 v=116
133299 On ch=2 n=e4 v=0
133299 On ch=2 n=a3 v=0
133379 On ch=2 n=g4 v=0
133380 On ch=2 n=d3 v=116
133380 On ch=2 n=a3 v=116
133380 On ch=2 n=d4 v=116
133499 On ch=2 n=d4 v=0
133499 On ch=2 n=a3 v=0
133499 On ch=2 n=d3 v=0
133500 On ch=2 n=d5 v=116
133739 On ch=2 n=d5 v=0
133740 On ch=2 n=d2 v=116
133740 On ch=2 n=d3 v=116
133859 On ch=2 n=d3 v=0
133859 On ch=2 n=d2 v=0
133860 On ch=2 n=d#4 v=116
133899 On ch=2 n=d#4 v=0
133900 On ch=2 n=d4 v=116
133939 On ch=2 n=d4 v=0
133940 On ch=2 n=c#4 v=116
133979 On ch=2 n=c#4 v=0
133980 On ch=2 n=c4 v=116
134019 On ch=2 n=c4 v=0
134020 On ch=2 n=b3 v=116
134059 On ch=2 n=b3 v=0
134060 On ch=2 n=a#3 v=116
134099 On ch=2 n=a#3 v=0
134100 On ch=2 n=f#3 v=116
134139 On ch=2 n=f#3 v=0
134140 On ch=2 n=d#3 v=116
134179 On ch=2 n=d#3 v=0
134180 On ch=2 n=d3 v=116
134219 On ch=2 n=d3 v=0
134220 On ch=2 n=c#3 v=116
134259 On ch=2 n=c#3 v=0
134260 On ch=2 n=c3 v=116
134299 On ch=2 n=c3 v=0
134300 On ch=2 n=b2 v=116
134339 On ch=2 n=b2 v=0
134340 On ch=2 n=a#2 v=116
134379 On ch=2 n=a#2 v=0
134380 On ch=2 n=f#2 v=116
134419 On ch=2 n=f#2 v=0
134420 On ch=2 n=d#2 v=116
134459 On ch=2 n=d#2 v=0
134460 On ch=2 n=c#3 v=116
134499 On ch=2 n=c#3 v=0
134500 On ch=2 n=c3 v=116
134539 On ch=2 n=c3 v=0
134540 On ch=2 n=b2 v=116
134579 On ch=2 n=b2 v=0
134580 On ch=2 n=a#2 v=116
134619 On ch=2 n=a#2 v=0
134620 On ch=2 n=f#2 v=116
134659 On ch=2 n=f#2 v=0
134660 On ch=2 n=d#2 v=116
134699 On ch=2 n=d#2 v=0
134700 On ch=2 n=c#3 v=116
134739 On ch=2 n=c#3 v=0
134740 On ch=2 n=c3 v=116
134779 On ch=2 n=c3 v=0
134780 On ch=2 n=b2 v=116
134819 On ch=2 n=b2 v=0
134820 On ch=2 n=a#2 v=116
134859 On ch=2 n=a#2 v=0
134860 On ch=2 n=f#2 v=116
134899 On ch=2 n=f#2 v=0
134900 On ch=2 n=d#2 v=116
134939 On ch=2 n=d#2 v=0
134940 On ch=2 n=c#3 v=116
134979 On ch=2 n=c#3 v=0
135060 On ch=2 n=c3 v=116
135099 On ch=2 n=c3 v=0
135180 On ch=2 n=a#2 v=116
135219 On ch=2 n=a#2 v=0
135300 On ch=2 n=f#2 v=116
135339 On ch=2 n=f#2 v=0
135420 On ch=2 n=d#2 v=116
135459 On ch=2 n=d#2 v=0
135540 On ch=2 n=a4 v=116
135540 On ch=2 n=f#4 v=116
135540 On ch=2 n=d4 v=116
135540 On ch=2 n=a3 v=116
135579 On ch=2 n=a3 v=0
135579 On ch=2 n=a4 v=0
135579 On ch=2 n=f#4 v=0
135579 On ch=2 n=d4 v=0
135620 On ch=2 n=a#4 v=116
135620 On ch=2 n=g4 v=116
135620 On ch=2 n=d4 v=116
135620 On ch=2 n=a#3 v=116
135659 On ch=2 n=a#3 v=0
135659 On ch=2 n=a#4 v=0
135659 On ch=2 n=g4 v=0
135659 On ch=2 n=d4 v=0
135660 On ch=2 n=a4 v=116
135660 On ch=2 n=f#4 v=116
135660 On ch=2 n=d4 v=116
135660 On ch=2 n=a3 v=116
135780 On ch=2 n=d3 v=116
135899 On ch=2 n=d3 v=0
135899 On ch=2 n=d4 v=0
135899 On ch=2 n=a4 v=0
135899 On ch=2 n=f#4 v=0
135899 On ch=2 n=a3 v=0
135900 On ch=2 n=g#4 v=116
135900 On ch=2 n=f4 v=116
135900 On ch=2 n=d4 v=116
135900 On ch=2 n=g#3 v=116
136019 On ch=2 n=g#3 v=0
136019 On ch=2 n=g#4 v=0
136019 On ch=2 n=f4 v=0
136019 On ch=2 n=d4 v=0
136020 On ch=2 n=g3 v=116
136020 On ch=2 n=g4 v=116
136020 On ch=2 n=e4 v=116
136020 On ch=2 n=c4 v=116
136059 On ch=2 n=c4 v=0
136059 On ch=2 n=g3 v=0
136059 On ch=2 n=g4 v=0
136059 On ch=2 n=e4 v=0
136100 On ch=2 n=g#4 v=116
136100 On ch=2 n=f4 v=116
136100 On ch=2 n=c4 v=116
136100 On ch=2 n=g#3 v=116
136139 On ch=2 n=g#3 v=0
136139 On ch=2 n=g#4 v=0
136139 On ch=2 n=f4 v=0
136139 On ch=2 n=c4 v=0
136140 On ch=2 n=g4 v=116
136140 On ch=2 n=e4 v=116
136140 On ch=2 n=c4 v=116
136140 On ch=2 n=g3 v=116
136260 On ch=2 n=d3 v=116
136379 On ch=2 n=d3 v=0
136379 On ch=2 n=c4 v=0
136379 On ch=2 n=g4 v=0
136379 On ch=2 n=e4 v=0
136379 On ch=2 n=g3 v=0
136380 On ch=2 n=f#4 v=116
136380 On ch=2 n=d#4 v=116
136380 On ch=2 n=c4 v=116
136380 On ch=2 n=f#3 v=116
136499 On ch=2 n=f#3 v=0
136499 On ch=2 n=f#4 v=0
136499 On ch=2 n=d#4 v=0
136499 On ch=2 n=c4 v=0
136500 On ch=2 n=f4 v=116
136500 On ch=2 n=d4 v=116
136500 On ch=2 n=a#3 v=116
136500 On ch=2 n=f3 v=116
136539 On ch=2 n=f3 v=0
136539 On ch=2 n=f4 v=0
136539 On ch=2 n=d4 v=0
136539 On ch=2 n=a#3 v=0
136580 On ch=2 n=a#3 v=116
136580 On ch=2 n=d#4 v=116
136580 On ch=2 n=f#4 v=116
136580 On ch=2 n=f#3 v=116
136619 On ch=2 n=f#3 v=0
136619 On ch=2 n=a#3 v=0
136619 On ch=2 n=d#4 v=0
136619 On ch=2 n=f#4 v=0
136620 On ch=2 n=f4 v=116
136620 On ch=2 n=d4 v=116
136620 On ch=2 n=a#3 v=116
136620 On ch=2 n=f3 v=116
136739 On ch=2 n=f3 v=0
136739 On ch=2 n=f4 v=0
136739 On ch=2 n=d4 v=0
136739 On ch=2 n=a#3 v=0
136740 On ch=2 n=a#3 v=116
136740 On ch=2 n=c#4 v=116
136740 On ch=2 n=e4 v=116
136740 On ch=2 n=e3 v=116
136859 On ch=2 n=e3 v=0
136859 On ch=2 n=a#3 v=0
136859 On ch=2 n=c#4 v=0
136859 On ch=2 n=e4 v=0
136860 On ch=2 n=c4 v=116
136860 On ch=2 n=a3 v=116
136860 On ch=2 n=d#3 v=116
136860 On ch=2 n=d#4 v=116
137099 On ch=2 n=d#4 v=0
137099 On ch=2 n=c4 v=0
137099 On ch=2 n=a3 v=0
137099 On ch=2 n=d#3 v=0
137100 On ch=2 n=f#4 v=116
137100 On ch=2 n=a3 v=116
137100 On ch=2 n=d3 v=116
137219 On ch=2 n=d3 v=0
137219 On ch=2 n=a3 v=0
137219 On ch=2 n=f#4 v=0
137220 On ch=2 n=d#5 v=116
137259 On ch=2 n=d#5 v=0
137260 On ch=2 n=d5 v=116
137299 On ch=2 n=d5 v=0
137300 On ch=2 n=c#5 v=116
137339 On ch=2 n=c#5 v=0
137340 On ch=2 n=c5 v=116
137379 On ch=2 n=c5 v=0
137380 On ch=2 n=b4 v=116
137419 On ch=2 n=b4 v=0
137420 On ch=2 n=a#4 v=116
137459 On ch=2 n=a#4 v=0
137460 On ch=2 n=d4 v=116
137460 On ch=2 n=a3 v=116
137460 On ch=2 n=f#4 v=116
137460 On ch=2 n=a4 v=116
137499 On ch=2 n=a4 v=0
137499 On ch=2 n=d4 v=0
137499 On ch=2 n=a3 v=0
137499 On ch=2 n=f#4 v=0
137540 On ch=2 n=d4 v=116
137540 On ch=2 n=g4 v=116
137540 On ch=2 n=a#4 v=116
137540 On ch=2 n=a#3 v=116
137579 On ch=2 n=a#3 v=0
137579 On ch=2 n=a#4 v=0
137579 On ch=2 n=g4 v=0
137580 On ch=2 n=a4 v=116
137580 On ch=2 n=f#4 v=116
137580 On ch=2 n=a3 v=116
137700 On ch=2 n=d3 v=116
137819 On ch=2 n=d3 v=0
137819 On ch=2 n=f#4 v=0
137819 On ch=2 n=d4 v=0
137819 On ch=2 n=a4 v=0
137819 On ch=2 n=a3 v=0
137820 On ch=2 n=g#4 v=116
137820 On ch=2 n=f4 v=116
137820 On ch=2 n=c#4 v=116
137820 On ch=2 n=g#3 v=116
137939 On ch=2 n=g#3 v=0
137939 On ch=2 n=g#4 v=0
137939 On ch=2 n=f4 v=0
137939 On ch=2 n=c#4 v=0
137940 On ch=2 n=e4 v=116
137940 On ch=2 n=c4 v=116
137940 On ch=2 n=g3 v=116
137940 On ch=2 n=g4 v=116
137979 On ch=2 n=g4 v=0
137979 On ch=2 n=e4 v=0
137979 On ch=2 n=c4 v=0
137979 On ch=2 n=g3 v=0
138020 On ch=2 n=f4 v=116
138020 On ch=2 n=c4 v=116
138020 On ch=2 n=g#3 v=116
138020 On ch=2 n=g#4 v=116
138059 On ch=2 n=g#4 v=0
138059 On ch=2 n=g#3 v=0
138059 On ch=2 n=f4 v=0
138060 On ch=2 n=g3 v=116
138060 On ch=2 n=g4 v=116
138060 On ch=2 n=e4 v=116
138180 On ch=2 n=d3 v=116
138299 On ch=2 n=d3 v=0
138299 On ch=2 n=g4 v=0
138299 On ch=2 n=c4 v=0
138299 On ch=2 n=g3 v=0
138299 On ch=2 n=e4 v=0
138300 On ch=2 n=f#4 v=116
138300 On ch=2 n=d#4 v=116
138300 On ch=2 n=b3 v=116
138300 On ch=2 n=f#3 v=116
138419 On ch=2 n=f#3 v=0
138419 On ch=2 n=f#4 v=0
138419 On ch=2 n=d#4 v=0
138419 On ch=2 n=b3 v=0
138420 On ch=2 n=d4 v=116
138420 On ch=2 n=a#3 v=116
138420 On ch=2 n=f3 v=116
138420 On ch=2 n=f4 v=116
138459 On ch=2 n=f4 v=0
138459 On ch=2 n=d4 v=0
138459 On ch=2 n=a#3 v=0
138459 On ch=2 n=f3 v=0
138500 On ch=2 n=a#3 v=116
138500 On ch=2 n=d#4 v=116
138500 On ch=2 n=f#4 v=116
138500 On ch=2 n=f#3 v=116
138539 On ch=2 n=f#3 v=0
138539 On ch=2 n=f#4 v=0
138539 On ch=2 n=d#4 v=0
138540 On ch=2 n=d4 v=116
138540 On ch=2 n=f4 v=116
138540 On ch=2 n=f3 v=116
138579 On ch=2 n=f3 v=0
138579 On ch=2 n=a#3 v=0
138579 On ch=2 n=d4 v=0
138579 On ch=2 n=f4 v=0
138660 On ch=2 n=a#3 v=116
138660 On ch=2 n=c#4 v=116
138660 On ch=2 n=e4 v=116
138660 On ch=2 n=e3 v=116
138699 On ch=2 n=e3 v=0
138699 On ch=2 n=a#3 v=0
138699 On ch=2 n=c#4 v=0
138699 On ch=2 n=e4 v=0
138780 On ch=2 n=a3 v=116
138780 On ch=2 n=d#3 v=116
138780 On ch=2 n=d#4 v=116
139019 On ch=2 n=d#4 v=0
139019 On ch=2 n=d#3 v=0
139019 On ch=2 n=a3 v=0
139020 On ch=2 n=d3 v=116
139020 On ch=2 n=a3 v=116
139020 On ch=2 n=f#4 v=116
139139 On ch=2 n=f#4 v=0
139139 On ch=2 n=a3 v=0
139139 On ch=2 n=d3 v=0
139140 On ch=2 n=f#5 v=116
139179 On ch=2 n=f#5 v=0
139180 On ch=2 n=f5 v=116
139219 On ch=2 n=f5 v=0
139220 On ch=2 n=e5 v=116
139259 On ch=2 n=e5 v=0
139260 On ch=2 n=d#5 v=116
139299 On ch=2 n=d#5 v=0
139300 On ch=2 n=d5 v=116
139339 On ch=2 n=d5 v=0
139340 On ch=2 n=c#5 v=116
139419 On ch=2 n=c#5 v=0
139420 On ch=2 n=c5 v=116
139459 On ch=2 n=c5 v=0
139460 On ch=2 n=b4 v=116
139499 On ch=2 n=b4 v=0
139500 On ch=2 n=a#4 v=116
139539 On ch=2 n=a#4 v=0
139540 On ch=2 n=a4 v=116
139579 On ch=2 n=a4 v=0
139580 On ch=2 n=a#4 v=116
139619 On ch=2 n=a#4 v=0
139620 On ch=2 n=b4 v=116
139659 On ch=2 n=b4 v=0
139660 On ch=2 n=a#4 v=116
139699 On ch=2 n=a#4 v=0
139700 On ch=2 n=b4 v=116
139739 On ch=2 n=b4 v=0
139740 On ch=2 n=c5 v=116
139779 On ch=2 n=c5 v=0
139780 On ch=2 n=b4 v=116
139819 On ch=2 n=b4 v=0
139820 On ch=2 n=c5 v=116
139859 On ch=2 n=c5 v=0
139860 On ch=2 n=c#5 v=116
139899 On ch=2 n=c#5 v=0
139900 On ch=2 n=c5 v=116
139939 On ch=2 n=c5 v=0
139940 On ch=2 n=c#5 v=116
139979 On ch=2 n=c#5 v=0
139980 On ch=2 n=d#3 v=116
140039 On ch=2 n=d#3 v=0
140040 On ch=2 n=a#3 v=116
140099 On ch=2 n=a#3 v=0
140100 On ch=2 n=d#5 v=116
140100 On ch=2 n=g#4 v=116
140159 On ch=2 n=g#4 v=0
140159 On ch=2 n=d#5 v=0
140160 On ch=2 n=a#3 v=116
140219 On ch=2 n=a#3 v=0
140220 On ch=2 n=d5 v=116
140220 On ch=2 n=g#4 v=116
140279 On ch=2 n=g#4 v=0
140279 On ch=2 n=d5 v=0
140280 On ch=2 n=a#3 v=116
140339 On ch=2 n=a#3 v=0
140340 On ch=2 n=d#3 v=116
140399 On ch=2 n=d#3 v=0
140400 On ch=2 n=a#3 v=116
140459 On ch=2 n=a#3 v=0
140460 On ch=2 n=c5 v=116
140460 On ch=2 n=f#4 v=116
140519 On ch=2 n=f#4 v=0
140519 On ch=2 n=c5 v=0
140520 On ch=2 n=a#3 v=116
140579 On ch=2 n=a#3 v=0
140580 On ch=2 n=g4 v=116
140580 On ch=2 n=b4 v=116
140639 On ch=2 n=b4 v=0
140639 On ch=2 n=g4 v=0
140640 On ch=2 n=a#3 v=116
140699 On ch=2 n=a#3 v=0
140700 On ch=2 n=d#3 v=116
140759 On ch=2 n=d#3 v=0
140760 On ch=2 n=b3 v=116
140819 On ch=2 n=b3 v=0
140820 On ch=2 n=b4 v=116
140879 On ch=2 n=b4 v=0
140880 On ch=2 n=b3 v=116
140939 On ch=2 n=b3 v=0
140940 On ch=2 n=a#4 v=116
140999 On ch=2 n=a#4 v=0
141000 On ch=2 n=b3 v=116
141059 On ch=2 n=b3 v=0
141060 On ch=2 n=d#3 v=116
141119 On ch=2 n=d#3 v=0
141120 On ch=2 n=a#3 v=116
141179 On ch=2 n=a#3 v=0
141180 On ch=2 n=a4 v=116
141239 On ch=2 n=a4 v=0
141240 On ch=2 n=a#3 v=116
141299 On ch=2 n=a#3 v=0
141300 On ch=2 n=g#4 v=116
141359 On ch=2 n=g#4 v=0
141360 On ch=2 n=a#3 v=116
141419 On ch=2 n=a#3 v=0
141420 On ch=2 n=g#3 v=116
141479 On ch=2 n=g#3 v=0
141480 On ch=2 n=d#4 v=116
141539 On ch=2 n=d#4 v=0
141540 On ch=2 n=d#5 v=116
141540 On ch=2 n=a#4 v=116
141599 On ch=2 n=a#4 v=0
141599 On ch=2 n=d#5 v=0
141600 On ch=2 n=d#4 v=116
141659 On ch=2 n=d#4 v=0
141660 On ch=2 n=b4 v=116
141719 On ch=2 n=b4 v=0
141720 On ch=2 n=d#4 v=116
141779 On ch=2 n=d#4 v=0
141780 On ch=2 n=a4 v=116
141839 On ch=2 n=a4 v=0
141840 On ch=2 n=c4 v=116
141899 On ch=2 n=c4 v=0
141900 On ch=2 n=g#4 v=116
141959 On ch=2 n=g#4 v=0
141960 On ch=2 n=b3 v=116
142019 On ch=2 n=b3 v=0
142020 On ch=2 n=g4 v=116
142079 On ch=2 n=g4 v=0
142080 On ch=2 n=a#3 v=116
142140 On ch=2 n=d#3 v=116
142199 On ch=2 n=d#3 v=0
142199 On ch=2 n=a#3 v=0
142200 On ch=2 n=a#3 v=116
142259 On ch=2 n=a#3 v=0
142260 On ch=2 n=d#5 v=116
142260 On ch=2 n=g#4 v=116
142319 On ch=2 n=g#4 v=0
142319 On ch=2 n=d#5 v=0
142320 On ch=2 n=a#3 v=116
142379 On ch=2 n=a#3 v=0
142380 On ch=2 n=d5 v=116
142380 On ch=2 n=g#4 v=116
142439 On ch=2 n=g#4 v=0
142439 On ch=2 n=d5 v=0
142440 On ch=2 n=a#3 v=116
142499 On ch=2 n=a#3 v=0
142500 On ch=2 n=d#3 v=116
142559 On ch=2 n=d#3 v=0
142560 On ch=2 n=a#3 v=116
142619 On ch=2 n=a#3 v=0
142620 On ch=2 n=c5 v=116
142620 On ch=2 n=f#4 v=116
142679 On ch=2 n=f#4 v=0
142679 On ch=2 n=c5 v=0
142680 On ch=2 n=a#3 v=116
142739 On ch=2 n=a#3 v=0
142740 On ch=2 n=g4 v=116
142740 On ch=2 n=b4 v=116
142799 On ch=2 n=b4 v=0
142799 On ch=2 n=g4 v=0
142800 On ch=2 n=a#3 v=116
142859 On ch=2 n=a#3 v=0
142860 On ch=2 n=g3 v=116
142919 On ch=2 n=g3 v=0
142920 On ch=2 n=d4 v=116
142979 On ch=2 n=d4 v=0
142980 On ch=2 n=c#5 v=116
142980 On ch=2 n=a4 v=116
143099 On ch=2 n=a4 v=0
143099 On ch=2 n=c#5 v=0
143100 On ch=2 n=g3 v=116
143159 On ch=2 n=g3 v=0
143160 On ch=2 n=d4 v=116
143219 On ch=2 n=d4 v=0
143220 On ch=2 n=g#4 v=116
143220 On ch=2 n=c5 v=116
143339 On ch=2 n=c5 v=0
143339 On ch=2 n=g#4 v=0
143340 On ch=2 n=g3 v=116
143399 On ch=2 n=g3 v=0
143400 On ch=2 n=d4 v=116
143459 On ch=2 n=d4 v=0
143460 On ch=2 n=a#4 v=116
143460 On ch=2 n=g4 v=116
143579 On ch=2 n=g4 v=0
143579 On ch=2 n=a#4 v=0
143580 On ch=2 n=a#2 v=116
143640 On ch=2 n=f3 v=116
143699 On ch=2 n=f3 v=0
143700 On ch=2 n=a4 v=116
143700 On ch=2 n=d4 v=116
143700 On ch=2 n=a#3 v=116
143759 On ch=2 n=a#3 v=0
143759 On ch=2 n=d4 v=0
143759 On ch=2 n=a4 v=0
143760 On ch=2 n=f3 v=116
143819 On ch=2 n=f3 v=0
143820 On ch=2 n=a#3 v=116
143820 On ch=2 n=d4 v=116
143820 On ch=2 n=g#4 v=116
143879 On ch=2 n=g#4 v=0
143879 On ch=2 n=d4 v=0
143879 On ch=2 n=a#3 v=0
143880 On ch=2 n=f3 v=116
143939 On ch=2 n=f3 v=0
143939 On ch=2 n=a#2 v=0
143940 On ch=2 n=a#2 v=116
144000 On ch=2 n=f3 v=116
144059 On ch=2 n=f3 v=0
144060 On ch=2 n=g4 v=116
144060 On ch=2 n=c#4 v=116
144060 On ch=2 n=a#3 v=116
144119 On ch=2 n=a#3 v=0
144119 On ch=2 n=c#4 v=0
144119 On ch=2 n=g4 v=0
144120 On ch=2 n=f3 v=116
144179 On ch=2 n=f3 v=0
144180 On ch=2 n=a#3 v=116
144180 On ch=2 n=c#4 v=116
144180 On ch=2 n=g#4 v=116
144239 On ch=2 n=g#4 v=0
144239 On ch=2 n=c#4 v=0
144239 On ch=2 n=a#3 v=0
144240 On ch=2 n=f3 v=116
144299 On ch=2 n=f3 v=0
144299 On ch=2 n=a#2 v=0
144300 On ch=2 n=a#2 v=116
144359 On ch=2 n=a#2 v=0
144360 On ch=2 n=f3 v=116
144419 On ch=2 n=f3 v=0
144420 On ch=2 n=a4 v=116
144420 On ch=2 n=d4 v=116
144420 On ch=2 n=a#3 v=116
144479 On ch=2 n=a#3 v=0
144479 On ch=2 n=d4 v=0
144479 On ch=2 n=a4 v=0
144480 On ch=2 n=f3 v=116
144539 On ch=2 n=f3 v=0
144540 On ch=2 n=a#3 v=116
144540 On ch=2 n=d4 v=116
144540 On ch=2 n=g#4 v=116
144599 On ch=2 n=g#4 v=0
144599 On ch=2 n=d4 v=0
144599 On ch=2 n=a#3 v=0
144600 On ch=2 n=f3 v=116
144659 On ch=2 n=f3 v=0
144660 On ch=2 n=c#3 v=116
144719 On ch=2 n=c#3 v=0
144720 On ch=2 n=g3 v=116
144779 On ch=2 n=g3 v=0
144780 On ch=2 n=a4 v=116
144780 On ch=2 n=f4 v=116
144780 On ch=2 n=c#4 v=116
144839 On ch=2 n=c#4 v=0
144839 On ch=2 n=f4 v=0
144839 On ch=2 n=a4 v=0
144840 On ch=2 n=g3 v=116
144899 On ch=2 n=g3 v=0
144900 On ch=2 n=b4 v=116
144900 On ch=2 n=f4 v=116
144900 On ch=2 n=d4 v=116
144959 On ch=2 n=d4 v=0
144959 On ch=2 n=f4 v=0
144959 On ch=2 n=b4 v=0
144960 On ch=2 n=g3 v=116
145019 On ch=2 n=g3 v=0
145020 On ch=2 n=c3 v=116
145080 On ch=2 n=g3 v=116
145139 On ch=2 n=g3 v=0
145140 On ch=2 n=b4 v=116
145140 On ch=2 n=e4 v=116
145140 On ch=2 n=c4 v=116
145199 On ch=2 n=c4 v=0
145199 On ch=2 n=e4 v=0
145199 On ch=2 n=b4 v=0
145200 On ch=2 n=g3 v=116
145259 On ch=2 n=g3 v=0
145260 On ch=2 n=c4 v=116
145260 On ch=2 n=e4 v=116
145260 On ch=2 n=a#4 v=116
145319 On ch=2 n=a#4 v=0
145319 On ch=2 n=e4 v=0
145319 On ch=2 n=c4 v=0
145320 On ch=2 n=g3 v=116
145379 On ch=2 n=g3 v=0
145379 On ch=2 n=c3 v=0
145380 On ch=2 n=c3 v=116
145440 On ch=2 n=f#3 v=116
145499 On ch=2 n=f#3 v=0
145500 On ch=2 n=a4 v=116
145500 On ch=2 n=d#4 v=116
145500 On ch=2 n=c4 v=116
145559 On ch=2 n=c4 v=0
145559 On ch=2 n=d#4 v=0
145559 On ch=2 n=a4 v=0
145560 On ch=2 n=f#3 v=116
145619 On ch=2 n=f#3 v=0
145620 On ch=2 n=a#4 v=116
145620 On ch=2 n=c4 v=116
145620 On ch=2 n=d#4 v=116
145679 On ch=2 n=d#4 v=0
145679 On ch=2 n=c4 v=0
145679 On ch=2 n=a#4 v=0
145680 On ch=2 n=f#3 v=116
145739 On ch=2 n=f#3 v=0
145739 On ch=2 n=c3 v=0
145740 On ch=2 n=c3 v=116
145799 On ch=2 n=c3 v=0
145800 On ch=2 n=f#3 v=116
145859 On ch=2 n=f#3 v=0
145860 On ch=2 n=b4 v=116
145860 On ch=2 n=e4 v=116
145860 On ch=2 n=c4 v=116
145919 On ch=2 n=c4 v=0
145919 On ch=2 n=e4 v=0
145919 On ch=2 n=b4 v=0
145920 On ch=2 n=f#3 v=116
145979 On ch=2 n=f#3 v=0
145980 On ch=2 n=c4 v=116
145980 On ch=2 n=e4 v=116
145980 On ch=2 n=a#4 v=116
146039 On ch=2 n=a#4 v=0
146039 On ch=2 n=e4 v=0
146039 On ch=2 n=c4 v=0
146040 On ch=2 n=f#3 v=116
146099 On ch=2 n=f#3 v=0
146100 On ch=2 n=a2 v=116
146159 On ch=2 n=a2 v=0
146160 On ch=2 n=a3 v=116
146219 On ch=2 n=a3 v=0
146220 On ch=2 n=b4 v=116
146220 On ch=2 n=g4 v=116
146220 On ch=2 n=d#4 v=116
146279 On ch=2 n=d#4 v=0
146279 On ch=2 n=g4 v=0
146279 On ch=2 n=b4 v=0
146280 On ch=2 n=a3 v=116
146339 On ch=2 n=a3 v=0
146340 On ch=2 n=c#5 v=116
146340 On ch=2 n=g4 v=116
146340 On ch=2 n=e4 v=116
146399 On ch=2 n=e4 v=0
146399 On ch=2 n=g4 v=0
146399 On ch=2 n=c#5 v=0
146400 On ch=2 n=a3 v=116
146459 On ch=2 n=a3 v=0
146460 On ch=2 n=d3 v=116
146519 On ch=2 n=d3 v=0
146520 On ch=2 n=a3 v=116
146579 On ch=2 n=a3 v=0
146580 On ch=2 n=c#5 v=116
146580 On ch=2 n=f#4 v=116
146580 On ch=2 n=d4 v=116
146639 On ch=2 n=d4 v=0
146639 On ch=2 n=f#4 v=0
146639 On ch=2 n=c#5 v=0
146640 On ch=2 n=a3 v=116
146699 On ch=2 n=a3 v=0
146700 On ch=2 n=d4 v=116
146700 On ch=2 n=f#4 v=116
146700 On ch=2 n=c5 v=116
146759 On ch=2 n=c5 v=0
146759 On ch=2 n=f#4 v=0
146759 On ch=2 n=d4 v=0
146760 On ch=2 n=a3 v=116
146819 On ch=2 n=a3 v=0
146880 On ch=2 n=d4 v=116
146939 On ch=2 n=d4 v=0
146940 On ch=2 n=c5 v=116
146940 On ch=2 n=f#5 v=116
146999 On ch=2 n=f#5 v=0
146999 On ch=2 n=c5 v=0
147000 On ch=2 n=g#4 v=116
147059 On ch=2 n=g#4 v=0
147060 On ch=2 n=g5 v=116
147060 On ch=2 n=c5 v=116
147119 On ch=2 n=c5 v=0
147119 On ch=2 n=g5 v=0
147120 On ch=2 n=g#4 v=116
147179 On ch=2 n=g#4 v=0
147180 On ch=2 n=g2 v=116
147180 On ch=2 n=g3 v=116
147239 On ch=2 n=g3 v=0
147239 On ch=2 n=g2 v=0
147240 On ch=2 n=b4 v=116
147240 On ch=2 n=f4 v=116
147240 On ch=2 n=d4 v=116
147299 On ch=2 n=d4 v=0
147299 On ch=2 n=f4 v=0
147299 On ch=2 n=b4 v=0
147300 On ch=2 n=d5 v=116
147300 On ch=2 n=b4 v=116
147300 On ch=2 n=f#4 v=116
147359 On ch=2 n=f#4 v=0
147359 On ch=2 n=b4 v=0
147359 On ch=2 n=d5 v=0
147360 On ch=2 n=d4 v=116
147360 On ch=2 n=f#4 v=116
147360 On ch=2 n=b4 v=116
147419 On ch=2 n=b4 v=0
147419 On ch=2 n=f#4 v=0
147419 On ch=2 n=d4 v=0
147420 On ch=2 n=d#5 v=116
147420 On ch=2 n=g4 v=116
147420 On ch=2 n=b4 v=116
147479 On ch=2 n=b4 v=0
147479 On ch=2 n=g4 v=0
147479 On ch=2 n=d#5 v=0
147480 On ch=2 n=d#4 v=116
147480 On ch=2 n=g4 v=116
147480 On ch=2 n=b4 v=116
147539 On ch=2 n=b4 v=0
147539 On ch=2 n=g4 v=0
147539 On ch=2 n=d#4 v=0
147540 On ch=2 n=e4 v=116
147540 On ch=2 n=c3 v=116
147599 On ch=2 n=c3 v=0
147599 On ch=2 n=e4 v=0
147600 On ch=2 n=c#5 v=116
147600 On ch=2 n=a#4 v=116
147600 On ch=2 n=e4 v=116
147659 On ch=2 n=e4 v=0
147659 On ch=2 n=a#4 v=0
147659 On ch=2 n=c#5 v=0
147660 On ch=2 n=a#4 v=116
147660 On ch=2 n=d#5 v=116
147660 On ch=2 n=d5 v=116
147719 On ch=2 n=d5 v=0
147719 On ch=2 n=d#5 v=0
147719 On ch=2 n=a#4 v=0
147720 On ch=2 n=d5 v=116
147720 On ch=2 n=a#4 v=116
147779 On ch=2 n=a#4 v=0
147779 On ch=2 n=d5 v=0
147780 On ch=2 n=a#5 v=116
147780 On ch=2 n=e5 v=116
147780 On ch=2 n=c5 v=116
147839 On ch=2 n=c5 v=0
147839 On ch=2 n=e5 v=0
147839 On ch=2 n=a#5 v=0
147840 On ch=2 n=a#4 v=116
147840 On ch=2 n=c5 v=116
147840 On ch=2 n=e5 v=116
147899 On ch=2 n=e5 v=0
147899 On ch=2 n=c5 v=0
147899 On ch=2 n=a#4 v=0
147900 On ch=2 n=f3 v=116
147959 On ch=2 n=f3 v=0
147960 On ch=2 n=d#4 v=116
148019 On ch=2 n=d#4 v=0
148020 On ch=2 n=f5 v=116
148020 On ch=2 n=b4 v=116
148079 On ch=2 n=b4 v=0
148079 On ch=2 n=f5 v=0
148080 On ch=2 n=g#4 v=116
148139 On ch=2 n=g#4 v=0
148140 On ch=2 n=g5 v=116
148140 On ch=2 n=d#5 v=116
148199 On ch=2 n=d#5 v=0
148199 On ch=2 n=g5 v=0
148200 On ch=2 n=b4 v=116
148259 On ch=2 n=b4 v=0
148260 On ch=2 n=g3 v=116
148319 On ch=2 n=g3 v=0
148320 On ch=2 n=d#4 v=116
148379 On ch=2 n=d#4 v=0
148380 On ch=2 n=d#5 v=116
148380 On ch=2 n=a#4 v=116
148439 On ch=2 n=a#4 v=0
148439 On ch=2 n=d#5 v=0
148440 On ch=2 n=d#4 v=116
148499 On ch=2 n=d#4 v=0
148500 On ch=2 n=f5 v=116
148500 On ch=2 n=d#5 v=116
148500 On ch=2 n=a#4 v=116
148559 On ch=2 n=a#4 v=0
148559 On ch=2 n=d#5 v=0
148559 On ch=2 n=f5 v=0
148560 On ch=2 n=g5 v=116
148619 On ch=2 n=g5 v=0
148620 On ch=2 n=g#3 v=116
148679 On ch=2 n=g#3 v=0
148680 On ch=2 n=d#4 v=116
148739 On ch=2 n=d#4 v=0
148740 On ch=2 n=d5 v=116
148740 On ch=2 n=b4 v=116
148740 On ch=2 n=g#4 v=116
148799 On ch=2 n=g#4 v=0
148799 On ch=2 n=b4 v=0
148799 On ch=2 n=d5 v=0
148800 On ch=2 n=d#4 v=116
148859 On ch=2 n=d#4 v=0
148860 On ch=2 n=d#5 v=116
148860 On ch=2 n=b4 v=116
148919 On ch=2 n=b4 v=0
148919 On ch=2 n=d#5 v=0
148920 On ch=2 n=g#4 v=116
148979 On ch=2 n=g#4 v=0
148980 On ch=2 n=a#2 v=116
149039 On ch=2 n=a#2 v=0
149040 On ch=2 n=a#3 v=116
149099 On ch=2 n=a#3 v=0
149100 On ch=2 n=c5 v=116
149100 On ch=2 n=g#4 v=116
149159 On ch=2 n=g#4 v=0
149159 On ch=2 n=c5 v=0
149160 On ch=2 n=a#3 v=116
149219 On ch=2 n=a#3 v=0
149220 On ch=2 n=c#5 v=116
149220 On ch=2 n=g#4 v=116
149279 On ch=2 n=g#4 v=0
149279 On ch=2 n=c#5 v=0
149280 On ch=2 n=d5 v=116
149339 On ch=2 n=d5 v=0
149340 On ch=2 n=d#3 v=116
149399 On ch=2 n=d#3 v=0
149400 On ch=2 n=a#3 v=116
149459 On ch=2 n=a#3 v=0
149460 On ch=2 n=c#5 v=116
149460 On ch=2 n=g#4 v=116
149519 On ch=2 n=g#4 v=0
149519 On ch=2 n=c#5 v=0
149520 On ch=2 n=a#3 v=116
149579 On ch=2 n=a#3 v=0
149580 On ch=2 n=g#4 v=116
149580 On ch=2 n=c5 v=116
149639 On ch=2 n=c5 v=0
149639 On ch=2 n=g#4 v=0
149640 On ch=2 n=a#3 v=116
149699 On ch=2 n=a#3 v=0
149700 On ch=2 n=d#3 v=116
149759 On ch=2 n=d#3 v=0
149760 On ch=2 n=a#3 v=116
149819 On ch=2 n=a#3 v=0
149820 On ch=2 n=a4 v=116
149879 On ch=2 n=a4 v=0
149880 On ch=2 n=a#3 v=116
149939 On ch=2 n=a#3 v=0
149940 On ch=2 n=g#4 v=116
149999 On ch=2 n=g#4 v=0
150000 On ch=2 n=a#3 v=116
150059 On ch=2 n=a#3 v=0
150060 On ch=2 n=d#3 v=116
150119 On ch=2 n=d#3 v=0
150120 On ch=2 n=a#3 v=116
150179 On ch=2 n=a#3 v=0
150180 On ch=2 n=g4 v=116
150239 On ch=2 n=g4 v=0
150240 On ch=2 n=a#3 v=116
150299 On ch=2 n=a#3 v=0
150300 On ch=2 n=f#4 v=116
150359 On ch=2 n=f#4 v=0
150360 On ch=2 n=a#3 v=116
150419 On ch=2 n=a#3 v=0
150420 On ch=2 n=d#3 v=116
150479 On ch=2 n=d#3 v=0
150480 On ch=2 n=a#3 v=116
150539 On ch=2 n=a#3 v=0
150540 On ch=2 n=f4 v=116
150599 On ch=2 n=f4 v=0
150600 On ch=2 n=b3 v=116
150659 On ch=2 n=b3 v=0
150660 On ch=2 n=e4 v=116
150719 On ch=2 n=e4 v=0
150720 On ch=2 n=a#3 v=116
150779 On ch=2 n=a#3 v=0
150780 On ch=2 n=g2 v=116
150780 On ch=2 n=g3 v=116
150900 On ch=2 n=f#5 v=116
150900 On ch=2 n=d#5 v=116
150900 On ch=2 n=c5 v=116
150900 On ch=2 n=a4 v=116
150900 On ch=2 n=f#4 v=116
151060 On ch=2 n=g6 v=116
151099 On ch=2 n=g6 v=0
151100 On ch=2 n=f#6 v=116
151139 On ch=2 n=f#6 v=0
151139 On ch=2 n=d#5 v=0
151139 On ch=2 n=c5 v=0
151139 On ch=2 n=g3 v=0
151139 On ch=2 n=f#5 v=0
151139 On ch=2 n=f#4 v=0
151139 On ch=2 n=a4 v=0
151139 On ch=2 n=g2 v=0
151300 On ch=2 n=g5 v=116
151339 On ch=2 n=g5 v=0
151340 On ch=2 n=f#5 v=116
151379 On ch=2 n=f#5 v=0
151500 On ch=2 n=g3 v=116
151500 On ch=2 n=c3 v=116
151539 On ch=2 n=c3 v=0
151539 On ch=2 n=g3 v=0
151740 On ch=2 n=g3 v=116
151740 On ch=2 n=c3 v=116
151779 On ch=2 n=c3 v=0
151779 On ch=2 n=g3 v=0
151980 On ch=2 n=c3 v=116
151980 On ch=2 n=g3 v=116
152009 On ch=2 n=g3 v=0
152009 On ch=2 n=c3 v=0
152040 On ch=2 n=c3 v=116
152040 On ch=2 n=g3 v=116
152069 On ch=2 n=g3 v=0
152069 On ch=2 n=c3 v=0
152100 On ch=2 n=c3 v=116
152100 On ch=2 n=g3 v=116
152129 On ch=2 n=g3 v=0
152129 On ch=2 n=c3 v=0
152220 On ch=2 n=g2 v=116
152220 On ch=2 n=g3 v=116
152340 On ch=2 n=f#5 v=116
152340 On ch=2 n=d#5 v=116
152340 On ch=2 n=c5 v=116
152340 On ch=2 n=a4 v=116
152340 On ch=2 n=f#4 v=116
152460 On ch=2 n=g6 v=116
152499 On ch=2 n=g6 v=0
152500 On ch=2 n=f#6 v=116
152539 On ch=2 n=f#6 v=0
152540 On ch=2 n=d#6 v=116
152579 On ch=2 n=d#6 v=0
152579 On ch=2 n=f#4 v=0
152579 On ch=2 n=c5 v=0
152579 On ch=2 n=g3 v=0
152579 On ch=2 n=f#5 v=0
152579 On ch=2 n=g2 v=0
152579 On ch=2 n=a4 v=0
152579 On ch=2 n=d#5 v=0
152580 On ch=2 n=c6 v=116
152619 On ch=2 n=c6 v=0
152820 On ch=2 n=g4 v=116
152859 On ch=2 n=g4 v=0
152860 On ch=2 n=f#4 v=116
152899 On ch=2 n=f#4 v=0
152940 On ch=2 n=c3 v=116
152940 On ch=2 n=g3 v=116
152969 On ch=2 n=g3 v=0
152969 On ch=2 n=c3 v=0
153120 On ch=2 n=c3 v=116
153120 On ch=2 n=f#3 v=116
153149 On ch=2 n=f#3 v=0
153149 On ch=2 n=c3 v=0
153180 On ch=2 n=c3 v=116
153180 On ch=2 n=g3 v=116
153209 On ch=2 n=g3 v=0
153209 On ch=2 n=c3 v=0
153360 On ch=2 n=c3 v=116
153360 On ch=2 n=f#3 v=116
153389 On ch=2 n=f#3 v=0
153389 On ch=2 n=c3 v=0
153420 On ch=2 n=c3 v=116
153420 On ch=2 n=g3 v=116
153449 On ch=2 n=g3 v=0
153449 On ch=2 n=c3 v=0
153600 On ch=2 n=g2 v=116
153600 On ch=2 n=g3 v=116
153629 On ch=2 n=g3 v=0
153629 On ch=2 n=g2 v=0
153660 On ch=2 n=g#2 v=116
153660 On ch=2 n=g#3 v=116
153689 On ch=2 n=g#3 v=0
153689 On ch=2 n=g#2 v=0
153780 On ch=2 n=d#5 v=116
153780 On ch=2 n=b4 v=116
153780 On ch=2 n=g#4 v=116
153780 On ch=2 n=d#4 v=116
153809 On ch=2 n=d#4 v=0
153809 On ch=2 n=d#5 v=0
153809 On ch=2 n=b4 v=0
153809 On ch=2 n=g#4 v=0
153840 On ch=2 n=d4 v=116
153840 On ch=2 n=d5 v=116
153869 On ch=2 n=d5 v=0
153869 On ch=2 n=d4 v=0
153900 On ch=2 n=c#4 v=116
153900 On ch=2 n=c#5 v=116
153929 On ch=2 n=c#5 v=0
153929 On ch=2 n=c#4 v=0
153960 On ch=2 n=c4 v=116
153960 On ch=2 n=c5 v=116
153989 On ch=2 n=c5 v=0
153989 On ch=2 n=c4 v=0
154020 On ch=2 n=b3 v=116
154020 On ch=2 n=b4 v=116
154079 On ch=2 n=b4 v=0
154079 On ch=2 n=b3 v=0
154080 On ch=2 n=d#4 v=116
154139 On ch=2 n=d#4 v=0
154140 On ch=2 n=d3 v=116
154140 On ch=2 n=d4 v=116
154169 On ch=2 n=d4 v=0
154169 On ch=2 n=d3 v=0
154200 On ch=2 n=c#3 v=116
154200 On ch=2 n=c#4 v=116
154229 On ch=2 n=c#4 v=0
154229 On ch=2 n=c#3 v=0
154260 On ch=2 n=b2 v=116
154260 On ch=2 n=b3 v=116
154289 On ch=2 n=b3 v=0
154289 On ch=2 n=b2 v=0
154320 On ch=2 n=d#3 v=116
154349 On ch=2 n=d#3 v=0
154380 On ch=2 n=b1 v=116
154380 On ch=2 n=b2 v=116
154380 On ch=2 n=b3 v=116
154380 On ch=2 n=b4 v=116
154500 On ch=2 n=g5 v=116
154500 On ch=2 n=e5 v=116
154500 On ch=2 n=c#5 v=116
154500 On ch=2 n=a#4 v=116
154500 On ch=2 n=g4 v=116
154739 On ch=2 n=g4 v=0
154739 On ch=2 n=b4 v=0
154739 On ch=2 n=b1 v=0
154739 On ch=2 n=g5 v=0
154739 On ch=2 n=b2 v=0
154739 On ch=2 n=b3 v=0
154739 On ch=2 n=c#5 v=0
154739 On ch=2 n=e5 v=0
154739 On ch=2 n=a#4 v=0
154740 On ch=2 n=e6 v=116
154769 On ch=2 n=e6 v=0
154770 On ch=2 n=c#6 v=116
154799 On ch=2 n=c#6 v=0
154800 On ch=2 n=a#5 v=116
154829 On ch=2 n=a#5 v=0
154830 On ch=2 n=g5 v=116
154859 On ch=2 n=g5 v=0
155100 On ch=2 n=e2 v=116
155100 On ch=2 n=e3 v=116
155159 On ch=2 n=e3 v=0
155159 On ch=2 n=e2 v=0
155160 On ch=2 n=c4 v=116
155219 On ch=2 n=c4 v=0
155220 On ch=2 n=c5 v=116
155220 On ch=2 n=a4 v=116
155220 On ch=2 n=e4 v=116
155279 On ch=2 n=e4 v=0
155279 On ch=2 n=a4 v=0
155279 On ch=2 n=c5 v=0
155280 On ch=2 n=c4 v=116
155339 On ch=2 n=c4 v=0
155340 On ch=2 n=e3 v=116
155399 On ch=2 n=e3 v=0
155400 On ch=2 n=e2 v=116
155459 On ch=2 n=e2 v=0
155460 On ch=2 n=e3 v=116
155519 On ch=2 n=e3 v=0
155520 On ch=2 n=c4 v=116
155579 On ch=2 n=c4 v=0
155580 On ch=2 n=c5 v=116
155580 On ch=2 n=a4 v=116
155580 On ch=2 n=e4 v=116
155609 On ch=2 n=e4 v=0
155609 On ch=2 n=a4 v=0
155609 On ch=2 n=c5 v=0
155610 On ch=2 n=e4 v=116
155610 On ch=2 n=a4 v=116
155610 On ch=2 n=c5 v=116
155639 On ch=2 n=c5 v=0
155639 On ch=2 n=a4 v=0
155639 On ch=2 n=e4 v=0
155640 On ch=2 n=c4 v=116
155699 On ch=2 n=c4 v=0
155700 On ch=2 n=e3 v=116
155759 On ch=2 n=e3 v=0
155760 On ch=2 n=e2 v=116
155819 On ch=2 n=e2 v=0
155820 On ch=2 n=e3 v=116
155879 On ch=2 n=e3 v=0
155880 On ch=2 n=c4 v=116
155939 On ch=2 n=c4 v=0
155940 On ch=2 n=c5 v=116
155940 On ch=2 n=a4 v=116
155940 On ch=2 n=e4 v=116
155999 On ch=2 n=e4 v=0
155999 On ch=2 n=a4 v=0
155999 On ch=2 n=c5 v=0
156000 On ch=2 n=c4 v=116
156059 On ch=2 n=c4 v=0
156060 On ch=2 n=e3 v=116
156119 On ch=2 n=e3 v=0
156120 On ch=2 n=e2 v=116
156179 On ch=2 n=e2 v=0
156180 On ch=2 n=e3 v=116
156239 On ch=2 n=e3 v=0
156240 On ch=2 n=c4 v=116
156299 On ch=2 n=c4 v=0
156300 On ch=2 n=c5 v=116
156300 On ch=2 n=a4 v=116
156300 On ch=2 n=e4 v=116
156329 On ch=2 n=e4 v=0
156329 On ch=2 n=a4 v=0
156329 On ch=2 n=c5 v=0
156330 On ch=2 n=c5 v=116
156330 On ch=2 n=a4 v=116
156330 On ch=2 n=e4 v=116
156359 On ch=2 n=e4 v=0
156359 On ch=2 n=a4 v=0
156359 On ch=2 n=c5 v=0
156360 On ch=2 n=c4 v=116
156419 On ch=2 n=c4 v=0
156420 On ch=2 n=e3 v=116
156479 On ch=2 n=e3 v=0
156480 On ch=2 n=e2 v=116
156539 On ch=2 n=e2 v=0
156600 On ch=2 n=a5 v=116
156600 On ch=2 n=f#5 v=116
156600 On ch=2 n=c5 v=116
156629 On ch=2 n=c5 v=0
156629 On ch=2 n=f#5 v=0
156629 On ch=2 n=a5 v=0
156720 On ch=2 n=e4 v=116
156720 On ch=2 n=c5 v=116
156749 On ch=2 n=c5 v=0
156749 On ch=2 n=e4 v=0
156960 On ch=2 n=g#5 v=116
156960 On ch=2 n=f5 v=116
156960 On ch=2 n=c5 v=116
156989 On ch=2 n=c5 v=0
156989 On ch=2 n=f5 v=0
156989 On ch=2 n=g#5 v=0
157080 On ch=2 n=e4 v=116
157080 On ch=2 n=c5 v=116
157109 On ch=2 n=c5 v=0
157109 On ch=2 n=e4 v=0
157320 On ch=2 n=g5 v=116
157320 On ch=2 n=e5 v=116
157320 On ch=2 n=b4 v=116
157349 On ch=2 n=b4 v=0
157349 On ch=2 n=e5 v=0
157349 On ch=2 n=g5 v=0
157440 On ch=2 n=e4 v=116
157440 On ch=2 n=b4 v=116
157469 On ch=2 n=b4 v=0
157469 On ch=2 n=e4 v=0
157680 On ch=2 n=f#5 v=116
157680 On ch=2 n=e5 v=116
157680 On ch=2 n=a#4 v=116
157709 On ch=2 n=a#4 v=0
157709 On ch=2 n=e5 v=0
157709 On ch=2 n=f#5 v=0
157800 On ch=2 n=c4 v=116
157800 On ch=2 n=a#4 v=116
157829 On ch=2 n=a#4 v=0
157829 On ch=2 n=c4 v=0
157980 On ch=2 n=f3 v=116
157980 On ch=2 n=f2 v=116
158060 On ch=2 n=a4 v=116
158060 On ch=2 n=c4 v=116
158099 On ch=2 n=c4 v=0
158099 On ch=2 n=a4 v=0
158100 On ch=2 n=c5 v=116
158139 On ch=2 n=c5 v=0
158140 On ch=2 n=d#5 v=116
158179 On ch=2 n=d#5 v=0
158180 On ch=2 n=f#5 v=116
158219 On ch=2 n=f#5 v=0
158339 On ch=2 n=f2 v=0
158339 On ch=2 n=f3 v=0
158340 On ch=2 n=f#5 v=116
158340 On ch=2 n=f#4 v=116
158460 On ch=2 n=a5 v=116
158460 On ch=2 n=d#5 v=116
158460 On ch=2 n=b4 v=116
158579 On ch=2 n=b4 v=0
158579 On ch=2 n=a5 v=0
158579 On ch=2 n=d#5 v=0
158580 On ch=2 n=d#4 v=116
158580 On ch=2 n=a#4 v=116
158699 On ch=2 n=a#4 v=0
158699 On ch=2 n=f#5 v=0
158699 On ch=2 n=f#4 v=0
158699 On ch=2 n=d#4 v=0
158700 On ch=2 n=f3 v=116
158700 On ch=2 n=f2 v=116
158780 On ch=2 n=a4 v=116
158780 On ch=2 n=c4 v=116
158819 On ch=2 n=c4 v=0
158819 On ch=2 n=a4 v=0
158820 On ch=2 n=c5 v=116
158939 On ch=2 n=c5 v=0
158940 On ch=2 n=c5 v=116
158979 On ch=2 n=c5 v=0
158980 On ch=2 n=a4 v=116
159019 On ch=2 n=a4 v=0
159020 On ch=2 n=f#4 v=116
159059 On ch=2 n=f#4 v=0
159059 On ch=2 n=f2 v=0
159059 On ch=2 n=f3 v=0
159060 On ch=2 n=d#3 v=116
159060 On ch=2 n=d#4 v=116
159100 On ch=2 n=b3 v=116
159139 On ch=2 n=b3 v=0
159140 On ch=2 n=a#3 v=116
159179 On ch=2 n=a#3 v=0
159180 On ch=2 n=a3 v=116
159219 On ch=2 n=a3 v=0
159220 On ch=2 n=f#3 v=116
159259 On ch=2 n=f#3 v=0
159260 On ch=2 n=d#3 v=116
159299 On ch=2 n=d#3 v=0
159419 On ch=2 n=d#4 v=0
159419 On ch=2 n=d#3 v=0
159420 On ch=2 n=f2 v=116
159420 On ch=2 n=f3 v=116
159479 On ch=2 n=f3 v=0
159479 On ch=2 n=f2 v=0
159480 On ch=2 n=c#4 v=116
159539 On ch=2 n=c#4 v=0
159540 On ch=2 n=a#4 v=116
159540 On ch=2 n=c#5 v=116
159540 On ch=2 n=f4 v=116
159599 On ch=2 n=f4 v=0
159599 On ch=2 n=c#5 v=0
159599 On ch=2 n=a#4 v=0
159600 On ch=2 n=c#4 v=116
159659 On ch=2 n=c#4 v=0
159660 On ch=2 n=f3 v=116
159719 On ch=2 n=f3 v=0
159720 On ch=2 n=f2 v=116
159779 On ch=2 n=f2 v=0
159780 On ch=2 n=f3 v=116
159839 On ch=2 n=f3 v=0
159840 On ch=2 n=c#4 v=116
159899 On ch=2 n=c#4 v=0
159900 On ch=2 n=c#5 v=116
159900 On ch=2 n=a#4 v=116
159900 On ch=2 n=f4 v=116
159929 On ch=2 n=f4 v=0
159929 On ch=2 n=a#4 v=0
159929 On ch=2 n=c#5 v=0
159930 On ch=2 n=f4 v=116
159930 On ch=2 n=a#4 v=116
159930 On ch=2 n=c#5 v=116
159959 On ch=2 n=c#5 v=0
159959 On ch=2 n=a#4 v=0
159959 On ch=2 n=f4 v=0
159960 On ch=2 n=c#4 v=116
159989 On ch=2 n=c#4 v=0
160020 On ch=2 n=f3 v=116
160079 On ch=2 n=f3 v=0
160080 On ch=2 n=f2 v=116
160139 On ch=2 n=f2 v=0
160140 On ch=2 n=f3 v=116
160199 On ch=2 n=f3 v=0
160200 On ch=2 n=c#4 v=116
160259 On ch=2 n=c#4 v=0
160260 On ch=2 n=c#5 v=116
160260 On ch=2 n=a#4 v=116
160260 On ch=2 n=f4 v=116
160319 On ch=2 n=f4 v=0
160319 On ch=2 n=a#4 v=0
160319 On ch=2 n=c#5 v=0
160320 On ch=2 n=c#4 v=116
160379 On ch=2 n=c#4 v=0
160380 On ch=2 n=f3 v=116
160439 On ch=2 n=f3 v=0
160440 On ch=2 n=f2 v=116
160499 On ch=2 n=f2 v=0
160500 On ch=2 n=f3 v=116
160559 On ch=2 n=f3 v=0
160560 On ch=2 n=c#4 v=116
160619 On ch=2 n=c#4 v=0
160620 On ch=2 n=c#5 v=116
160620 On ch=2 n=a#4 v=116
160620 On ch=2 n=f4 v=116
160649 On ch=2 n=f4 v=0
160649 On ch=2 n=a#4 v=0
160649 On ch=2 n=c#5 v=0
160650 On ch=2 n=f4 v=116
160650 On ch=2 n=a#4 v=116
160650 On ch=2 n=c#5 v=116
160679 On ch=2 n=c#5 v=0
160679 On ch=2 n=a#4 v=0
160679 On ch=2 n=f4 v=0
160680 On ch=2 n=c#4 v=116
160739 On ch=2 n=c#4 v=0
160740 On ch=2 n=f3 v=116
160799 On ch=2 n=f3 v=0
160800 On ch=2 n=f2 v=116
160859 On ch=2 n=f2 v=0
160900 On ch=2 n=g5 v=116
160939 On ch=2 n=g5 v=0
160940 On ch=2 n=f#5 v=116
160979 On ch=2 n=f#5 v=0
160980 On ch=2 n=f5 v=116
161019 On ch=2 n=f5 v=0
161020 On ch=2 n=e5 v=116
161059 On ch=2 n=e5 v=0
161060 On ch=2 n=c#5 v=116
161099 On ch=2 n=c#5 v=0
161100 On ch=2 n=f4 v=116
161159 On ch=2 n=f4 v=0
161260 On ch=2 n=f#5 v=116
161299 On ch=2 n=f#5 v=0
161300 On ch=2 n=f5 v=116
161339 On ch=2 n=f5 v=0
161340 On ch=2 n=e5 v=116
161379 On ch=2 n=e5 v=0
161380 On ch=2 n=d5 v=116
161419 On ch=2 n=d5 v=0
161420 On ch=2 n=c#5 v=116
161459 On ch=2 n=c#5 v=0
161460 On ch=2 n=f4 v=116
161519 On ch=2 n=f4 v=0
161620 On ch=2 n=f5 v=116
161659 On ch=2 n=f5 v=0
161660 On ch=2 n=e5 v=116
161699 On ch=2 n=e5 v=0
161700 On ch=2 n=d#5 v=116
161739 On ch=2 n=d#5 v=0
161740 On ch=2 n=d5 v=116
161779 On ch=2 n=d5 v=0
161780 On ch=2 n=c#5 v=116
161819 On ch=2 n=c#5 v=0
161820 On ch=2 n=f4 v=116
161879 On ch=2 n=f4 v=0
161980 On ch=2 n=d5 v=116
162019 On ch=2 n=d5 v=0
162020 On ch=2 n=c#5 v=116
162059 On ch=2 n=c#5 v=0
162060 On ch=2 n=c5 v=116
162099 On ch=2 n=c5 v=0
162100 On ch=2 n=b4 v=116
162139 On ch=2 n=b4 v=0
162140 On ch=2 n=c#4 v=116
162179 On ch=2 n=c#4 v=0
162300 On ch=2 n=f#1 v=116
162300 On ch=2 n=f#2 v=116
162380 On ch=2 n=c#4 v=116
162419 On ch=2 n=c#4 v=0
162420 On ch=2 n=a#4 v=116
162459 On ch=2 n=a#4 v=0
162460 On ch=2 n=c#5 v=116
162499 On ch=2 n=c#5 v=0
162500 On ch=2 n=e5 v=116
162539 On ch=2 n=e5 v=0
162659 On ch=2 n=f#2 v=0
162659 On ch=2 n=f#1 v=0
162660 On ch=2 n=g5 v=116
162660 On ch=2 n=g4 v=116
162780 On ch=2 n=a#5 v=116
162780 On ch=2 n=e5 v=116
162780 On ch=2 n=c5 v=116
162899 On ch=2 n=c5 v=0
162899 On ch=2 n=a#5 v=0
162899 On ch=2 n=e5 v=0
162900 On ch=2 n=e4 v=116
162900 On ch=2 n=b4 v=116
163019 On ch=2 n=b4 v=0
163019 On ch=2 n=g5 v=0
163019 On ch=2 n=g4 v=0
163019 On ch=2 n=e4 v=0
163020 On ch=2 n=f#1 v=116
163020 On ch=2 n=f#2 v=116
163100 On ch=2 n=a#4 v=116
163100 On ch=2 n=c#4 v=116
163139 On ch=2 n=c#4 v=0
163139 On ch=2 n=a#4 v=0
163140 On ch=2 n=c#5 v=116
163220 On ch=2 n=d5 v=116
163259 On ch=2 n=d5 v=0
163259 On ch=2 n=c#5 v=0
163260 On ch=2 n=c#5 v=116
163299 On ch=2 n=c#5 v=0
163300 On ch=2 n=a#4 v=116
163339 On ch=2 n=a#4 v=0
163340 On ch=2 n=g4 v=116
163379 On ch=2 n=g4 v=0
163379 On ch=2 n=f#2 v=0
163379 On ch=2 n=f#1 v=0
163380 On ch=2 n=e3 v=116
163380 On ch=2 n=e4 v=116
163420 On ch=2 n=c4 v=116
163459 On ch=2 n=c4 v=0
163460 On ch=2 n=b3 v=116
163499 On ch=2 n=b3 v=0
163500 On ch=2 n=a#3 v=116
163619 On ch=2 n=a#3 v=0
163739 On ch=2 n=e4 v=0
163739 On ch=2 n=e3 v=0
163740 On ch=2 n=f#2 v=116
163740 On ch=2 n=f#3 v=116
163799 On ch=2 n=f#3 v=0
163799 On ch=2 n=f#2 v=0
163800 On ch=2 n=d4 v=116
163859 On ch=2 n=d4 v=0
163860 On ch=2 n=d5 v=116
163860 On ch=2 n=b4 v=116
163860 On ch=2 n=f#4 v=116
163919 On ch=2 n=f#4 v=0
163919 On ch=2 n=b4 v=0
163919 On ch=2 n=d5 v=0
163920 On ch=2 n=d4 v=116
163979 On ch=2 n=d4 v=0
163980 On ch=2 n=f#3 v=116
164039 On ch=2 n=f#3 v=0
164040 On ch=2 n=f#2 v=116
164099 On ch=2 n=f#2 v=0
164100 On ch=2 n=f#3 v=116
164159 On ch=2 n=f#3 v=0
164160 On ch=2 n=d4 v=116
164219 On ch=2 n=d4 v=0
164220 On ch=2 n=d5 v=116
164220 On ch=2 n=b4 v=116
164220 On ch=2 n=f#4 v=116
164249 On ch=2 n=f#4 v=0
164249 On ch=2 n=b4 v=0
164249 On ch=2 n=d5 v=0
164250 On ch=2 n=f#4 v=116
164250 On ch=2 n=b4 v=116
164250 On ch=2 n=d5 v=116
164279 On ch=2 n=d5 v=0
164279 On ch=2 n=b4 v=0
164279 On ch=2 n=f#4 v=0
164280 On ch=2 n=d4 v=116
164339 On ch=2 n=d4 v=0
164340 On ch=2 n=f#3 v=116
164399 On ch=2 n=f#3 v=0
164400 On ch=2 n=f#2 v=116
164459 On ch=2 n=f#2 v=0
164460 On ch=2 n=f#3 v=116
164519 On ch=2 n=f#3 v=0
164520 On ch=2 n=d4 v=116
164579 On ch=2 n=d4 v=0
164580 On ch=2 n=d5 v=116
164580 On ch=2 n=b4 v=116
164580 On ch=2 n=f#4 v=116
164639 On ch=2 n=f#4 v=0
164639 On ch=2 n=b4 v=0
164639 On ch=2 n=d5 v=0
164640 On ch=2 n=d4 v=116
164699 On ch=2 n=d4 v=0
164700 On ch=2 n=f#3 v=116
164759 On ch=2 n=f#3 v=0
164760 On ch=2 n=f#2 v=116
164819 On ch=2 n=f#2 v=0
164820 On ch=2 n=f#3 v=116
164879 On ch=2 n=f#3 v=0
164880 On ch=2 n=d4 v=116
164939 On ch=2 n=d4 v=0
164940 On ch=2 n=d5 v=116
164940 On ch=2 n=b4 v=116
164940 On ch=2 n=f#4 v=116
164969 On ch=2 n=f#4 v=0
164969 On ch=2 n=b4 v=0
164969 On ch=2 n=d5 v=0
164970 On ch=2 n=f#4 v=116
164970 On ch=2 n=b4 v=116
164970 On ch=2 n=d5 v=116
164999 On ch=2 n=d5 v=0
164999 On ch=2 n=b4 v=0
164999 On ch=2 n=f#4 v=0
165000 On ch=2 n=d4 v=116
165059 On ch=2 n=d4 v=0
165060 On ch=2 n=f#3 v=116
165119 On ch=2 n=f#3 v=0
165120 On ch=2 n=f#2 v=116
165179 On ch=2 n=f#2 v=0
165180 On ch=2 n=d2 v=116
165180 On ch=2 n=d3 v=116
165239 On ch=2 n=d3 v=0
165239 On ch=2 n=d2 v=0
165240 On ch=2 n=a#3 v=116
165299 On ch=2 n=a#3 v=0
165300 On ch=2 n=d5 v=116
165300 On ch=2 n=a#4 v=116
165300 On ch=2 n=f4 v=116
165359 On ch=2 n=f4 v=0
165359 On ch=2 n=a#4 v=0
165359 On ch=2 n=d5 v=0
165360 On ch=2 n=a#3 v=116
165419 On ch=2 n=a#3 v=0
165420 On ch=2 n=d3 v=116
165479 On ch=2 n=d3 v=0
165480 On ch=2 n=d2 v=116
165539 On ch=2 n=d2 v=0
165540 On ch=2 n=d3 v=116
165599 On ch=2 n=d3 v=0
165600 On ch=2 n=a#3 v=116
165659 On ch=2 n=a#3 v=0
165660 On ch=2 n=d5 v=116
165660 On ch=2 n=a#4 v=116
165660 On ch=2 n=f4 v=116
165719 On ch=2 n=f4 v=0
165719 On ch=2 n=a#4 v=0
165719 On ch=2 n=d5 v=0
165720 On ch=2 n=a#3 v=116
165779 On ch=2 n=a#3 v=0
165780 On ch=2 n=d3 v=116
165839 On ch=2 n=d3 v=0
165840 On ch=2 n=d2 v=116
165899 On ch=2 n=d2 v=0
165900 On ch=2 n=d3 v=116
165959 On ch=2 n=d3 v=0
165960 On ch=2 n=a#3 v=116
166019 On ch=2 n=a#3 v=0
166020 On ch=2 n=d5 v=116
166020 On ch=2 n=a#4 v=116
166020 On ch=2 n=f4 v=116
166079 On ch=2 n=f4 v=0
166079 On ch=2 n=a#4 v=0
166079 On ch=2 n=d5 v=0
166080 On ch=2 n=a#3 v=116
166139 On ch=2 n=a#3 v=0
166140 On ch=2 n=d3 v=116
166199 On ch=2 n=d3 v=0
166200 On ch=2 n=d2 v=116
166259 On ch=2 n=d2 v=0
166260 On ch=2 n=d3 v=116
166319 On ch=2 n=d3 v=0
166320 On ch=2 n=a#3 v=116
166379 On ch=2 n=a#3 v=0
166380 On ch=2 n=d5 v=116
166380 On ch=2 n=a#4 v=116
166380 On ch=2 n=f4 v=116
166439 On ch=2 n=f4 v=0
166439 On ch=2 n=a#4 v=0
166439 On ch=2 n=d5 v=0
166440 On ch=2 n=a#3 v=116
166499 On ch=2 n=a#3 v=0
166500 On ch=2 n=d3 v=116
166559 On ch=2 n=d3 v=0
166560 On ch=2 n=d2 v=116
166619 On ch=2 n=d2 v=0
166620 On ch=2 n=d3 v=116
166699 On ch=2 n=d3 v=0
166700 On ch=2 n=f#4 v=116
166739 On ch=2 n=f#4 v=0
166740 On ch=2 n=e5 v=116
166740 On ch=2 n=c5 v=116
166819 On ch=2 n=c5 v=0
166819 On ch=2 n=e5 v=0
166820 On ch=2 n=g4 v=116
166859 On ch=2 n=g4 v=0
166860 On ch=2 n=f5 v=116
166860 On ch=2 n=c#5 v=116
166939 On ch=2 n=c#5 v=0
166939 On ch=2 n=f5 v=0
166940 On ch=2 n=a4 v=116
166979 On ch=2 n=a4 v=0
166980 On ch=2 n=f#5 v=116
166980 On ch=2 n=d5 v=116
167059 On ch=2 n=d5 v=0
167059 On ch=2 n=f#5 v=0
167060 On ch=2 n=a#4 v=116
167099 On ch=2 n=a#4 v=0
167100 On ch=2 n=g5 v=116
167100 On ch=2 n=d5 v=116
167179 On ch=2 n=d5 v=0
167179 On ch=2 n=g5 v=0
167180 On ch=2 n=b4 v=116
167219 On ch=2 n=b4 v=0
167220 On ch=2 n=g#5 v=116
167220 On ch=2 n=d5 v=116
167339 On ch=2 n=d5 v=0
167339 On ch=2 n=g#5 v=0
167340 On ch=2 n=b3 v=116
167340 On ch=2 n=e3 v=116
167419 On ch=2 n=e3 v=0
167419 On ch=2 n=b3 v=0
167420 On ch=2 n=g4 v=116
167459 On ch=2 n=g4 v=0
167460 On ch=2 n=f#5 v=116
167460 On ch=2 n=d5 v=116
167539 On ch=2 n=d5 v=0
167539 On ch=2 n=f#5 v=0
167540 On ch=2 n=a4 v=116
167579 On ch=2 n=a4 v=0
167580 On ch=2 n=g5 v=116
167580 On ch=2 n=d#5 v=116
167659 On ch=2 n=d#5 v=0
167659 On ch=2 n=g5 v=0
167660 On ch=2 n=b4 v=116
167699 On ch=2 n=b4 v=0
167700 On ch=2 n=g#5 v=116
167700 On ch=2 n=e5 v=116
167779 On ch=2 n=e5 v=0
167779 On ch=2 n=g#5 v=0
167780 On ch=2 n=c5 v=116
167819 On ch=2 n=c5 v=0
167820 On ch=2 n=a5 v=116
167820 On ch=2 n=e5 v=116
167899 On ch=2 n=e5 v=0
167899 On ch=2 n=a5 v=0
167900 On ch=2 n=c#5 v=116
167939 On ch=2 n=c#5 v=0
167940 On ch=2 n=a#5 v=116
167940 On ch=2 n=e5 v=116
168059 On ch=2 n=e5 v=0
168059 On ch=2 n=a#5 v=0
168060 On ch=2 n=f#3 v=116
168139 On ch=2 n=f#3 v=0
168140 On ch=2 n=c#4 v=116
168179 On ch=2 n=c#4 v=0
168180 On ch=2 n=a4 v=116
168220 On ch=2 n=c#4 v=116
168259 On ch=2 n=c#4 v=0
168260 On ch=2 n=f#3 v=116
168299 On ch=2 n=f#3 v=0
168299 On ch=2 n=a4 v=0
168300 On ch=2 n=a#4 v=116
168340 On ch=2 n=d4 v=116
168379 On ch=2 n=d4 v=0
168380 On ch=2 n=f#3 v=116
168419 On ch=2 n=f#3 v=0
168419 On ch=2 n=a#4 v=0
168420 On ch=2 n=g3 v=116
168499 On ch=2 n=g3 v=0
168500 On ch=2 n=d4 v=116
168539 On ch=2 n=d4 v=0
168540 On ch=2 n=a#4 v=116
168580 On ch=2 n=d4 v=116
168619 On ch=2 n=d4 v=0
168620 On ch=2 n=g3 v=116
168659 On ch=2 n=g3 v=0
168659 On ch=2 n=a#4 v=0
168660 On ch=2 n=b4 v=116
168700 On ch=2 n=d#4 v=116
168739 On ch=2 n=d#4 v=0
168740 On ch=2 n=g3 v=116
168779 On ch=2 n=g3 v=0
168779 On ch=2 n=b4 v=0
168780 On ch=2 n=g#3 v=116
168859 On ch=2 n=g#3 v=0
168860 On ch=2 n=e4 v=116
168899 On ch=2 n=e4 v=0
168900 On ch=2 n=d4 v=116
168939 On ch=2 n=d4 v=0
168940 On ch=2 n=c#4 v=116
168979 On ch=2 n=c#4 v=0
168980 On ch=2 n=c4 v=116
169019 On ch=2 n=c4 v=0
169020 On ch=2 n=b3 v=116
169059 On ch=2 n=b3 v=0
169060 On ch=2 n=a#3 v=116
169099 On ch=2 n=a#3 v=0
169100 On ch=2 n=a3 v=116
169139 On ch=2 n=a3 v=0
169140 On ch=2 n=g#3 v=116
169179 On ch=2 n=g#3 v=0
169180 On ch=2 n=g3 v=116
169219 On ch=2 n=g3 v=0
169220 On ch=2 n=f#3 v=116
169259 On ch=2 n=f#3 v=0
169260 On ch=2 n=f3 v=116
169299 On ch=2 n=f3 v=0
169300 On ch=2 n=e3 v=116
169339 On ch=2 n=e3 v=0
169340 On ch=2 n=d#3 v=116
169379 On ch=2 n=d#3 v=0
169380 On ch=2 n=a2 v=116
169380 On ch=2 n=d3 v=116
169419 On ch=2 n=d3 v=0
169419 On ch=2 n=a2 v=0
169420 On ch=2 n=f#3 v=116
169459 On ch=2 n=f#3 v=0
169460 On ch=2 n=a3 v=116
169499 On ch=2 n=a3 v=0
169500 On ch=2 n=d5 v=116
169579 On ch=2 n=d5 v=0
169580 On ch=2 n=e5 v=116
169619 On ch=2 n=e5 v=0
169620 On ch=2 n=f#5 v=116
169659 On ch=2 n=f#5 v=0
169660 On ch=2 n=g5 v=116
169699 On ch=2 n=g5 v=0
169700 On ch=2 n=a5 v=116
169739 On ch=2 n=a5 v=0
169740 On ch=2 n=c#5 v=116
169740 On ch=2 n=e5 v=116
169740 On ch=2 n=a#5 v=116
169779 On ch=2 n=a#5 v=0
169779 On ch=2 n=e5 v=0
169779 On ch=2 n=c#5 v=0
169860 On ch=2 n=a3 v=116
169899 On ch=2 n=a3 v=0
169900 On ch=2 n=e4 v=116
169939 On ch=2 n=e4 v=0
169940 On ch=2 n=g4 v=116
169979 On ch=2 n=g4 v=0
169980 On ch=2 n=a#4 v=116
170019 On ch=2 n=a#4 v=0
170020 On ch=2 n=c#5 v=116
170059 On ch=2 n=c#5 v=0
170060 On ch=2 n=g5 v=116
170099 On ch=2 n=g5 v=0
170100 On ch=2 n=c5 v=116
170100 On ch=2 n=d#5 v=116
170100 On ch=2 n=a5 v=116
170139 On ch=2 n=a5 v=0
170139 On ch=2 n=d#5 v=0
170139 On ch=2 n=c5 v=0
170260 On ch=2 n=a3 v=116
170260 On ch=2 n=e4 v=116
170299 On ch=2 n=e4 v=0
170299 On ch=2 n=a3 v=0
170300 On ch=2 n=g4 v=116
170339 On ch=2 n=g4 v=0
170340 On ch=2 n=a#4 v=116
170379 On ch=2 n=a#4 v=0
170380 On ch=2 n=c#5 v=116
170419 On ch=2 n=c#5 v=0
170420 On ch=2 n=g5 v=116
170459 On ch=2 n=g5 v=0
170460 On ch=2 n=a4 v=116
170460 On ch=2 n=d5 v=116
170460 On ch=2 n=f#5 v=116
170499 On ch=2 n=f#5 v=0
170499 On ch=2 n=d5 v=0
170499 On ch=2 n=a4 v=0
170580 On ch=2 n=d5 v=116
170580 On ch=2 n=g#4 v=116
170580 On ch=2 n=f4 v=116
170580 On ch=2 n=a#3 v=116
170609 On ch=2 n=a#3 v=0
170609 On ch=2 n=d5 v=0
170609 On ch=2 n=g#4 v=0
170609 On ch=2 n=f4 v=0
170640 On ch=2 n=b5 v=116
170640 On ch=2 n=g#5 v=116
170640 On ch=2 n=f#5 v=116
170759 On ch=2 n=f#5 v=0
170759 On ch=2 n=g#5 v=0
170759 On ch=2 n=b5 v=0
170760 On ch=2 n=e5 v=116
170760 On ch=2 n=g#5 v=116
170760 On ch=2 n=b5 v=116
170879 On ch=2 n=b5 v=0
170879 On ch=2 n=g#5 v=0
170879 On ch=2 n=e5 v=0
170880 On ch=2 n=d#5 v=116
170880 On ch=2 n=g#5 v=116
170880 On ch=2 n=b5 v=116
170909 On ch=2 n=b5 v=0
170909 On ch=2 n=g#5 v=0
170909 On ch=2 n=d#5 v=0
170940 On ch=2 n=d6 v=116
170940 On ch=2 n=g#5 v=116
170940 On ch=2 n=e5 v=116
170940 On ch=2 n=d5 v=116
170999 On ch=2 n=d5 v=0
170999 On ch=2 n=d6 v=0
170999 On ch=2 n=g#5 v=0
170999 On ch=2 n=e5 v=0
171000 On ch=2 n=c#5 v=116
171000 On ch=2 n=e5 v=116
171000 On ch=2 n=g#5 v=116
171000 On ch=2 n=c#6 v=116
171059 On ch=2 n=c#6 v=0
171059 On ch=2 n=c#5 v=0
171059 On ch=2 n=e5 v=0
171059 On ch=2 n=g#5 v=0
171060 On ch=2 n=c5 v=116
171060 On ch=2 n=g#5 v=116
171060 On ch=2 n=e5 v=116
171060 On ch=2 n=c6 v=116
171119 On ch=2 n=c6 v=0
171119 On ch=2 n=c5 v=0
171119 On ch=2 n=g#5 v=0
171119 On ch=2 n=e5 v=0
171120 On ch=2 n=e5 v=116
171120 On ch=2 n=b4 v=116
171120 On ch=2 n=g#5 v=116
171120 On ch=2 n=b5 v=116
171179 On ch=2 n=b5 v=0
171179 On ch=2 n=e5 v=0
171179 On ch=2 n=b4 v=0
171179 On ch=2 n=g#5 v=0
171180 On ch=2 n=b3 v=116
171219 On ch=2 n=b3 v=0
171220 On ch=2 n=g#4 v=116
171259 On ch=2 n=g#4 v=0
171260 On ch=2 n=b4 v=116
171299 On ch=2 n=b4 v=0
171300 On ch=2 n=e5 v=116
171379 On ch=2 n=e5 v=0
171380 On ch=2 n=f#5 v=116
171419 On ch=2 n=f#5 v=0
171420 On ch=2 n=g#5 v=116
171459 On ch=2 n=g#5 v=0
171460 On ch=2 n=a5 v=116
171499 On ch=2 n=a5 v=0
171500 On ch=2 n=b5 v=116
171539 On ch=2 n=b5 v=0
171540 On ch=2 n=d#5 v=116
171540 On ch=2 n=f#5 v=116
171540 On ch=2 n=c6 v=116
171569 On ch=2 n=c6 v=0
171569 On ch=2 n=f#5 v=0
171569 On ch=2 n=d#5 v=0
171660 On ch=2 n=b3 v=116
171699 On ch=2 n=b3 v=0
171700 On ch=2 n=f#4 v=116
171739 On ch=2 n=f#4 v=0
171740 On ch=2 n=a4 v=116
171779 On ch=2 n=a4 v=0
171780 On ch=2 n=c5 v=116
171819 On ch=2 n=c5 v=0
171820 On ch=2 n=d#5 v=116
171859 On ch=2 n=d#5 v=0
171860 On ch=2 n=a5 v=116
171899 On ch=2 n=a5 v=0
171900 On ch=2 n=b5 v=116
171900 On ch=2 n=f5 v=116
171900 On ch=2 n=d5 v=116
171929 On ch=2 n=d5 v=0
171929 On ch=2 n=f5 v=0
171929 On ch=2 n=b5 v=0
172060 On ch=2 n=f#4 v=116
172060 On ch=2 n=b3 v=116
172099 On ch=2 n=b3 v=0
172099 On ch=2 n=f#4 v=0
172100 On ch=2 n=a4 v=116
172139 On ch=2 n=a4 v=0
172140 On ch=2 n=c5 v=116
172179 On ch=2 n=c5 v=0
172180 On ch=2 n=d#5 v=116
172219 On ch=2 n=d#5 v=0
172220 On ch=2 n=a5 v=116
172259 On ch=2 n=a5 v=0
172260 On ch=2 n=g#5 v=116
172260 On ch=2 n=e5 v=116
172260 On ch=2 n=b4 v=116
172379 On ch=2 n=b4 v=0
172379 On ch=2 n=e5 v=0
172379 On ch=2 n=g#5 v=0
172380 On ch=2 n=e5 v=116
172380 On ch=2 n=a#4 v=116
172380 On ch=2 n=g4 v=116
172380 On ch=2 n=c4 v=116
172409 On ch=2 n=c4 v=0
172409 On ch=2 n=e5 v=0
172409 On ch=2 n=a#4 v=0
172409 On ch=2 n=g4 v=0
172440 On ch=2 n=c#6 v=116
172440 On ch=2 n=a#5 v=116
172440 On ch=2 n=g#5 v=116
172559 On ch=2 n=g#5 v=0
172559 On ch=2 n=a#5 v=0
172559 On ch=2 n=c#6 v=0
172560 On ch=2 n=g5 v=116
172560 On ch=2 n=a#5 v=116
172560 On ch=2 n=c#6 v=116
172589 On ch=2 n=c#6 v=0
172589 On ch=2 n=a#5 v=0
172589 On ch=2 n=g5 v=0
172620 On ch=2 n=f#5 v=116
172620 On ch=2 n=a#5 v=116
172620 On ch=2 n=c#6 v=116
172649 On ch=2 n=c#6 v=0
172649 On ch=2 n=a#5 v=0
172649 On ch=2 n=f#5 v=0
172680 On ch=2 n=f5 v=116
172680 On ch=2 n=a#5 v=116
172680 On ch=2 n=c#6 v=116
172709 On ch=2 n=c#6 v=0
172709 On ch=2 n=a#5 v=0
172709 On ch=2 n=f5 v=0
172740 On ch=2 n=e6 v=116
172740 On ch=2 n=a#5 v=116
172740 On ch=2 n=f#5 v=116
172740 On ch=2 n=e5 v=116
172769 On ch=2 n=e5 v=0
172769 On ch=2 n=e6 v=0
172769 On ch=2 n=a#5 v=0
172769 On ch=2 n=f#5 v=0
172800 On ch=2 n=f#5 v=116
172800 On ch=2 n=a#5 v=116
172800 On ch=2 n=d#5 v=116
172800 On ch=2 n=d#6 v=116
172829 On ch=2 n=d#6 v=0
172829 On ch=2 n=f#5 v=0
172829 On ch=2 n=a#5 v=0
172829 On ch=2 n=d#5 v=0
172860 On ch=2 n=f#5 v=116
172860 On ch=2 n=a#5 v=116
172860 On ch=2 n=d5 v=116
172860 On ch=2 n=d6 v=116
172889 On ch=2 n=d6 v=0
172889 On ch=2 n=f#5 v=0
172889 On ch=2 n=a#5 v=0
172889 On ch=2 n=d5 v=0
172920 On ch=2 n=f#5 v=116
172920 On ch=2 n=a#5 v=116
172920 On ch=2 n=c#5 v=116
172920 On ch=2 n=c#6 v=116
172949 On ch=2 n=c#6 v=0
172949 On ch=2 n=f#5 v=0
172949 On ch=2 n=a#5 v=0
172949 On ch=2 n=c#5 v=0
172980 On ch=2 n=c#4 v=116
173019 On ch=2 n=c#4 v=0
173020 On ch=2 n=a#4 v=116
173059 On ch=2 n=a#4 v=0
173060 On ch=2 n=c#5 v=116
173099 On ch=2 n=c#5 v=0
173100 On ch=2 n=g#5 v=116
173139 On ch=2 n=g#5 v=0
173140 On ch=2 n=d5 v=116
173179 On ch=2 n=d5 v=0
173180 On ch=2 n=b4 v=116
173219 On ch=2 n=b4 v=0
173220 On ch=2 n=a#5 v=116
173259 On ch=2 n=a#5 v=0
173260 On ch=2 n=e5 v=116
173299 On ch=2 n=e5 v=0
173300 On ch=2 n=c#5 v=116
173339 On ch=2 n=c#5 v=0
173340 On ch=2 n=b5 v=116
173379 On ch=2 n=b5 v=0
173380 On ch=2 n=f5 v=116
173419 On ch=2 n=f5 v=0
173420 On ch=2 n=d5 v=116
173459 On ch=2 n=d5 v=0
173460 On ch=2 n=d3 v=116
173460 On ch=2 n=d4 v=116
173579 On ch=2 n=d4 v=0
173579 On ch=2 n=d3 v=0
173580 On ch=2 n=f#5 v=116
173580 On ch=2 n=d#5 v=116
173580 On ch=2 n=c5 v=116
173580 On ch=2 n=f#4 v=116
173699 On ch=2 n=f#4 v=0
173699 On ch=2 n=f#5 v=0
173699 On ch=2 n=d#5 v=0
173699 On ch=2 n=c5 v=0
173700 On ch=2 n=d#4 v=116
173739 On ch=2 n=d#4 v=0
173740 On ch=2 n=c5 v=116
173779 On ch=2 n=c5 v=0
173780 On ch=2 n=d#5 v=116
173819 On ch=2 n=d#5 v=0
173820 On ch=2 n=a#5 v=116
173859 On ch=2 n=a#5 v=0
173860 On ch=2 n=e5 v=116
173899 On ch=2 n=e5 v=0
173900 On ch=2 n=c#5 v=116
173939 On ch=2 n=c#5 v=0
173940 On ch=2 n=c6 v=116
173979 On ch=2 n=c6 v=0
173980 On ch=2 n=f#5 v=116
174019 On ch=2 n=f#5 v=0
174020 On ch=2 n=d#5 v=116
174059 On ch=2 n=d#5 v=0
174060 On ch=2 n=g5 v=116
174060 On ch=2 n=e5 v=116
174060 On ch=2 n=c#6 v=116
174179 On ch=2 n=c#6 v=0
174179 On ch=2 n=e5 v=0
174179 On ch=2 n=g5 v=0
174180 On ch=2 n=e3 v=116
174180 On ch=2 n=e4 v=116
174299 On ch=2 n=e4 v=0
174299 On ch=2 n=e3 v=0
174300 On ch=2 n=g#5 v=116
174300 On ch=2 n=f5 v=116
174300 On ch=2 n=d5 v=116
174300 On ch=2 n=g#4 v=116
174419 On ch=2 n=g#4 v=0
174419 On ch=2 n=g#5 v=0
174419 On ch=2 n=f5 v=0
174419 On ch=2 n=d5 v=0
174420 On ch=2 n=c#6 v=116
174420 On ch=2 n=e5 v=116
174420 On ch=2 n=a4 v=116
174459 On ch=2 n=a4 v=0
174459 On ch=2 n=e5 v=0
174459 On ch=2 n=c#6 v=0
174500 On ch=2 n=a5 v=116
174500 On ch=2 n=d6 v=116
174539 On ch=2 n=d6 v=0
174539 On ch=2 n=a5 v=0
174540 On ch=2 n=e6 v=116
174540 On ch=2 n=c#6 v=116
174619 On ch=2 n=c#6 v=0
174619 On ch=2 n=e6 v=0
174620 On ch=2 n=f5 v=116
174659 On ch=2 n=f5 v=0
174660 On ch=2 n=f6 v=116
174660 On ch=2 n=a5 v=116
174739 On ch=2 n=a5 v=0
174739 On ch=2 n=f6 v=0
174740 On ch=2 n=g#4 v=116
174779 On ch=2 n=g#4 v=0
174780 On ch=2 n=b5 v=116
174780 On ch=2 n=d5 v=116
174859 On ch=2 n=d5 v=0
174859 On ch=2 n=b5 v=0
174860 On ch=2 n=c6 v=116
174860 On ch=2 n=g5 v=116
174899 On ch=2 n=g5 v=0
174899 On ch=2 n=c6 v=0
174900 On ch=2 n=d6 v=116
174900 On ch=2 n=b5 v=116
174979 On ch=2 n=b5 v=0
174979 On ch=2 n=d6 v=0
174980 On ch=2 n=c#5 v=116
175019 On ch=2 n=c#5 v=0
175020 On ch=2 n=e6 v=116
175020 On ch=2 n=a#5 v=116
175020 On ch=2 n=g5 v=116
175099 On ch=2 n=g5 v=0
175099 On ch=2 n=a#5 v=0
175099 On ch=2 n=e6 v=0
175100 On ch=2 n=a4 v=116
175139 On ch=2 n=a4 v=0
175140 On ch=2 n=a5 v=116
175140 On ch=2 n=f5 v=116
175140 On ch=2 n=c5 v=116
175169 On ch=2 n=c5 v=0
175169 On ch=2 n=f5 v=0
175169 On ch=2 n=a5 v=0
175200 On ch=2 n=b5 v=116
175229 On ch=2 n=b5 v=0
175260 On ch=2 n=c#6 v=116
175260 On ch=2 n=a5 v=116
175260 On ch=2 n=f5 v=116
175289 On ch=2 n=f5 v=0
175289 On ch=2 n=a5 v=0
175289 On ch=2 n=c#6 v=0
175320 On ch=2 n=d6 v=116
175320 On ch=2 n=b5 v=116
175349 On ch=2 n=b5 v=0
175349 On ch=2 n=d6 v=0
175380 On ch=2 n=e6 v=116
175380 On ch=2 n=c#6 v=116
175380 On ch=2 n=a5 v=116
175439 On ch=2 n=a5 v=0
175439 On ch=2 n=c#6 v=0
175439 On ch=2 n=e6 v=0
175440 On ch=2 n=e5 v=116
175499 On ch=2 n=e5 v=0
175500 On ch=2 n=a6 v=116
175539 On ch=2 n=a6 v=0
175540 On ch=2 n=e6 v=116
175579 On ch=2 n=e6 v=0
175580 On ch=2 n=a5 v=116
175619 On ch=2 n=a5 v=0
175620 On ch=2 n=a5 v=116
175659 On ch=2 n=a5 v=0
175660 On ch=2 n=e5 v=116
175699 On ch=2 n=e5 v=0
175700 On ch=2 n=a4 v=116
175739 On ch=2 n=a4 v=0
175740 On ch=2 n=f5 v=116
175740 On ch=2 n=c6 v=116
175859 On ch=2 n=c6 v=0
175859 On ch=2 n=f5 v=0
175860 On ch=2 n=g6 v=116
175899 On ch=2 n=g6 v=0
175900 On ch=2 n=d6 v=116
175939 On ch=2 n=d6 v=0
175940 On ch=2 n=g5 v=116
175979 On ch=2 n=g5 v=0
175980 On ch=2 n=g5 v=116
176019 On ch=2 n=g5 v=0
176020 On ch=2 n=d5 v=116
176059 On ch=2 n=d5 v=0
176060 On ch=2 n=a4 v=116
176099 On ch=2 n=a4 v=0
176100 On ch=2 n=a#5 v=116
176100 On ch=2 n=g5 v=116
176100 On ch=2 n=e5 v=116
176219 On ch=2 n=e5 v=0
176219 On ch=2 n=g5 v=0
176219 On ch=2 n=a#5 v=0
176220 On ch=2 n=a4 v=116
176220 On ch=2 n=c5 v=116
176259 On ch=2 n=c5 v=0
176259 On ch=2 n=a4 v=0
176260 On ch=2 n=f5 v=116
176299 On ch=2 n=f5 v=0
176300 On ch=2 n=a5 v=116
176339 On ch=2 n=a5 v=0
176340 On ch=2 n=a#5 v=116
176379 On ch=2 n=a#5 v=0
176380 On ch=2 n=d6 v=116
176419 On ch=2 n=d6 v=0
176420 On ch=2 n=f6 v=116
176459 On ch=2 n=f6 v=0
176460 On ch=2 n=e6 v=116
176460 On ch=2 n=c#6 v=116
176460 On ch=2 n=a5 v=116
176579 On ch=2 n=a5 v=0
176579 On ch=2 n=c#6 v=0
176579 On ch=2 n=e6 v=0
176580 On ch=2 n=f2 v=116
176580 On ch=2 n=f3 v=116
176700 On ch=2 n=f4 v=116
176700 On ch=2 n=c4 v=116
176819 On ch=2 n=c4 v=0
176819 On ch=2 n=f4 v=0
176820 On ch=2 n=f5 v=116
176820 On ch=2 n=c5 v=116
176820 On ch=2 n=f4 v=116
176939 On ch=2 n=f4 v=0
176939 On ch=2 n=f5 v=0
176939 On ch=2 n=f2 v=0
176939 On ch=2 n=f3 v=0
176939 On ch=2 n=c5 v=0
176940 On ch=2 n=f#4 v=116
176940 On ch=2 n=f#5 v=116
177060 On ch=2 n=a5 v=116
177060 On ch=2 n=d#5 v=116
177060 On ch=2 n=b4 v=116
177179 On ch=2 n=b4 v=0
177179 On ch=2 n=a5 v=0
177179 On ch=2 n=d#5 v=0
177180 On ch=2 n=d#4 v=116
177180 On ch=2 n=a#4 v=116
177299 On ch=2 n=a#4 v=0
177299 On ch=2 n=f#4 v=0
177299 On ch=2 n=f#5 v=0
177299 On ch=2 n=d#4 v=0
177300 On ch=2 n=f2 v=116
177300 On ch=2 n=f3 v=116
177480 On ch=2 n=d4 v=116
177539 On ch=2 n=d4 v=0
177540 On ch=2 n=c4 v=116
177600 On ch=2 n=f3 v=116
177659 On ch=2 n=f3 v=0
177659 On ch=2 n=f2 v=0
177659 On ch=2 n=f3 v=0
177659 On ch=2 n=c4 v=0
177660 On ch=2 n=d4 v=116
177720 On ch=2 n=f3 v=116
177779 On ch=2 n=f3 v=0
177779 On ch=2 n=d4 v=0
177780 On ch=2 n=d#4 v=116
177840 On ch=2 n=f3 v=116
177899 On ch=2 n=f3 v=0
177899 On ch=2 n=d#4 v=0
177900 On ch=2 n=f#4 v=116
177900 On ch=2 n=c4 v=116
177959 On ch=2 n=c4 v=0
177959 On ch=2 n=f#4 v=0
177960 On ch=2 n=f3 v=116
178019 On ch=2 n=f3 v=0
178020 On ch=2 n=g4 v=116
178020 On ch=2 n=c4 v=116
178079 On ch=2 n=c4 v=0
178079 On ch=2 n=g4 v=0
178080 On ch=2 n=f3 v=116
178139 On ch=2 n=f3 v=0
178140 On ch=2 n=a#4 v=116
178140 On ch=2 n=c4 v=116
178199 On ch=2 n=c4 v=0
178199 On ch=2 n=a#4 v=0
178200 On ch=2 n=f3 v=116
178259 On ch=2 n=f3 v=0
178260 On ch=2 n=b4 v=116
178260 On ch=2 n=d#4 v=116
178319 On ch=2 n=d#4 v=0
178319 On ch=2 n=b4 v=0
178320 On ch=2 n=f3 v=116
178379 On ch=2 n=f3 v=0
178380 On ch=2 n=d5 v=116
178380 On ch=2 n=g4 v=116
178380 On ch=2 n=d#4 v=116
178439 On ch=2 n=d#4 v=0
178439 On ch=2 n=g4 v=0
178439 On ch=2 n=d5 v=0
178440 On ch=2 n=f3 v=116
178499 On ch=2 n=f3 v=0
178500 On ch=2 n=c5 v=116
178500 On ch=2 n=d#4 v=116
178500 On ch=2 n=g4 v=116
178559 On ch=2 n=g4 v=0
178559 On ch=2 n=d#4 v=0
178559 On ch=2 n=c5 v=0
178560 On ch=2 n=f3 v=116
178619 On ch=2 n=f3 v=0
178620 On ch=2 n=a#4 v=116
178620 On ch=2 n=d#4 v=116
178620 On ch=2 n=f#4 v=116
178679 On ch=2 n=f#4 v=0
178679 On ch=2 n=d#4 v=0
178679 On ch=2 n=a#4 v=0
178680 On ch=2 n=f3 v=116
178739 On ch=2 n=f3 v=0
178740 On ch=2 n=f4 v=116
178740 On ch=2 n=a#2 v=116
178740 On ch=2 n=f3 v=116
178800 On ch=2 n=f3 v=116
178800 On ch=2 n=d#4 v=116
178800 On ch=2 n=f4 v=116
178859 On ch=2 n=f4 v=0
178859 On ch=2 n=f3 v=0
178859 On ch=2 n=d#4 v=0
178860 On ch=2 n=a4 v=116
178860 On ch=2 n=d#5 v=116
178860 On ch=2 n=f5 v=116
178860 On ch=2 n=a5 v=116
178919 On ch=2 n=a5 v=0
178919 On ch=2 n=d#5 v=0
178919 On ch=2 n=a4 v=0
178919 On ch=2 n=f5 v=0
178920 On ch=2 n=a4 v=116
178920 On ch=2 n=d#5 v=116
178920 On ch=2 n=f4 v=116
178979 On ch=2 n=f4 v=0
178979 On ch=2 n=a4 v=0
178979 On ch=2 n=d#5 v=0
178980 On ch=2 n=f5 v=116
178980 On ch=2 n=d#5 v=116
178980 On ch=2 n=a4 v=116
179039 On ch=2 n=a4 v=0
179039 On ch=2 n=f5 v=0
179039 On ch=2 n=d#5 v=0
179040 On ch=2 n=a4 v=116
179040 On ch=2 n=d#5 v=116
179040 On ch=2 n=f4 v=116
179099 On ch=2 n=f4 v=0
179099 On ch=2 n=f3 v=0
179099 On ch=2 n=f4 v=0
179099 On ch=2 n=a#2 v=0
179099 On ch=2 n=d#5 v=0
179099 On ch=2 n=a4 v=0
179100 On ch=2 n=a#2 v=116
179100 On ch=2 n=f3 v=116
179159 On ch=2 n=f3 v=0
179159 On ch=2 n=a#2 v=0
179160 On ch=2 n=f4 v=116
179160 On ch=2 n=d4 v=116
179160 On ch=2 n=a#3 v=116
179160 On ch=2 n=f3 v=116
179219 On ch=2 n=f3 v=0
179219 On ch=2 n=f4 v=0
179219 On ch=2 n=d4 v=0
179219 On ch=2 n=a#3 v=0
179220 On ch=2 n=g5 v=116
179220 On ch=2 n=d#5 v=116
179220 On ch=2 n=c5 v=116
179220 On ch=2 n=a#4 v=116
179279 On ch=2 n=a#4 v=0
179279 On ch=2 n=g5 v=0
179279 On ch=2 n=d#5 v=0
179279 On ch=2 n=c5 v=0
179280 On ch=2 n=f4 v=116
179339 On ch=2 n=f4 v=0
179340 On ch=2 n=a#4 v=116
179340 On ch=2 n=d5 v=116
179340 On ch=2 n=f5 v=116
179399 On ch=2 n=f5 v=0
179399 On ch=2 n=d5 v=0
179399 On ch=2 n=a#4 v=0
179400 On ch=2 n=f4 v=116
179459 On ch=2 n=f4 v=0
179460 On ch=2 n=a#2 v=116
179523 On ch=2 n=d#4 v=116
179530 On ch=2 n=a4 v=116
179537 On ch=2 n=c5 v=116
179544 On ch=2 n=f#5 v=116
179585 On ch=2 n=f#5 v=0
179585 On ch=2 n=a4 v=0
179585 On ch=2 n=c5 v=0
179585 On ch=2 n=d#4 v=0
179642 On ch=2 n=f#4 v=116
179649 On ch=2 n=c5 v=116
179656 On ch=2 n=d#5 v=116
179663 On ch=2 n=a5 v=116
179704 On ch=2 n=a5 v=0
179704 On ch=2 n=c5 v=0
179704 On ch=2 n=d#5 v=0
179704 On ch=2 n=f#4 v=0
179761 On ch=2 n=a4 v=116
179768 On ch=2 n=d#5 v=116
179775 On ch=2 n=f#5 v=116
179782 On ch=2 n=c6 v=116
179819 On ch=2 n=a#2 v=0
179820 On ch=2 n=a#2 v=116
179823 On ch=2 n=f#5 v=0
179823 On ch=2 n=c6 v=0
179823 On ch=2 n=a4 v=0
179823 On ch=2 n=d#5 v=0
179883 On ch=2 n=f4 v=116
179890 On ch=2 n=g#4 v=116
179897 On ch=2 n=d#5 v=116
179945 On ch=2 n=d#5 v=0
179945 On ch=2 n=g#4 v=0
179945 On ch=2 n=f4 v=0
180002 On ch=2 n=g#4 v=116
180009 On ch=2 n=b4 v=116
180016 On ch=2 n=f5 v=116
180064 On ch=2 n=f5 v=0
180064 On ch=2 n=b4 v=0
180064 On ch=2 n=g#4 v=0
180121 On ch=2 n=b4 v=116
180128 On ch=2 n=d5 v=116
180135 On ch=2 n=g#5 v=116
180180 On ch=2 n=d#3 v=116
180183 On ch=2 n=g#5 v=0
180183 On ch=2 n=d5 v=0
180183 On ch=2 n=a#2 v=0
180183 On ch=2 n=b4 v=0
180239 On ch=2 n=d#3 v=0
180240 On ch=2 n=g4 v=116
180240 On ch=2 n=a#3 v=116
180299 On ch=2 n=a#3 v=0
180299 On ch=2 n=g4 v=0
180300 On ch=2 n=c#5 v=116
180300 On ch=2 n=g4 v=116
180359 On ch=2 n=g4 v=0
180359 On ch=2 n=c#5 v=0
180360 On ch=2 n=a#3 v=116
180360 On ch=2 n=g4 v=116
180419 On ch=2 n=g4 v=0
180419 On ch=2 n=a#3 v=0
180420 On ch=2 n=d5 v=116
180420 On ch=2 n=g4 v=116
180479 On ch=2 n=g4 v=0
180479 On ch=2 n=d5 v=0
180480 On ch=2 n=a#3 v=116
180480 On ch=2 n=g4 v=116
180539 On ch=2 n=g4 v=0
180539 On ch=2 n=a#3 v=0
180540 On ch=2 n=a#4 v=116
180540 On ch=2 n=d4 v=116
180599 On ch=2 n=d4 v=0
180599 On ch=2 n=a#4 v=0
180600 On ch=2 n=e4 v=116
180600 On ch=2 n=g3 v=116
180659 On ch=2 n=g3 v=0
180659 On ch=2 n=e4 v=0
180660 On ch=2 n=c4 v=116
180660 On ch=2 n=a#4 v=116
180719 On ch=2 n=a#4 v=0
180719 On ch=2 n=c4 v=0
180720 On ch=2 n=d#4 v=116
180720 On ch=2 n=f#3 v=116
180779 On ch=2 n=f#3 v=0
180779 On ch=2 n=d#4 v=0
180780 On ch=2 n=d4 v=116
180780 On ch=2 n=a4 v=116
180839 On ch=2 n=a4 v=0
180839 On ch=2 n=d4 v=0
180840 On ch=2 n=d#4 v=116
180840 On ch=2 n=f3 v=116
180899 On ch=2 n=f3 v=0
180899 On ch=2 n=d#4 v=0
180900 On ch=2 n=a#2 v=116
180900 On ch=2 n=f3 v=116
180960 On ch=2 n=d#4 v=116
180960 On ch=2 n=f4 v=116
180960 On ch=2 n=f3 v=116
181019 On ch=2 n=f3 v=0
181019 On ch=2 n=d#4 v=0
181019 On ch=2 n=f4 v=0
181020 On ch=2 n=a5 v=116
181020 On ch=2 n=f5 v=116
181020 On ch=2 n=d#5 v=116
181020 On ch=2 n=a4 v=116
181079 On ch=2 n=a4 v=0
181079 On ch=2 n=f5 v=0
181079 On ch=2 n=a5 v=0
181079 On ch=2 n=d#5 v=0
181080 On ch=2 n=d#4 v=116
181080 On ch=2 n=f3 v=116
181080 On ch=2 n=a4 v=116
181139 On ch=2 n=a4 v=0
181139 On ch=2 n=d#4 v=0
181139 On ch=2 n=f3 v=0
181140 On ch=2 n=g5 v=116
181140 On ch=2 n=c5 v=116
181140 On ch=2 n=a4 v=116
181199 On ch=2 n=a4 v=0
181199 On ch=2 n=g5 v=0
181199 On ch=2 n=c5 v=0
181200 On ch=2 n=f4 v=116
181200 On ch=2 n=c5 v=116
181259 On ch=2 n=c5 v=0
181259 On ch=2 n=f3 v=0
181259 On ch=2 n=a#2 v=0
181259 On ch=2 n=f4 v=0
181260 On ch=2 n=a#2 v=116
181260 On ch=2 n=f3 v=116
181320 On ch=2 n=f4 v=116
181320 On ch=2 n=d4 v=116
181320 On ch=2 n=f3 v=116
181379 On ch=2 n=f3 v=0
181379 On ch=2 n=f4 v=0
181379 On ch=2 n=d4 v=0
181380 On ch=2 n=f5 v=116
181380 On ch=2 n=d5 v=116
181380 On ch=2 n=a#4 v=116
181380 On ch=2 n=a4 v=116
181439 On ch=2 n=a4 v=0
181439 On ch=2 n=d5 v=0
181439 On ch=2 n=f5 v=0
181439 On ch=2 n=a#4 v=0
181440 On ch=2 n=g4 v=116
181440 On ch=2 n=a#4 v=116
181440 On ch=2 n=e5 v=116
181499 On ch=2 n=e5 v=0
181499 On ch=2 n=g4 v=0
181499 On ch=2 n=f3 v=0
181499 On ch=2 n=a#2 v=0
181499 On ch=2 n=a#4 v=0
181500 On ch=2 n=f3 v=116
181559 On ch=2 n=f3 v=0
181560 On ch=2 n=a#2 v=116
181619 On ch=2 n=a#2 v=0
181620 On ch=2 n=d2 v=116
181620 On ch=2 n=d3 v=116
181679 On ch=2 n=d3 v=0
181679 On ch=2 n=d2 v=0
181680 On ch=2 n=f4 v=116
181680 On ch=2 n=a3 v=116
181739 On ch=2 n=a3 v=0
181739 On ch=2 n=f4 v=0
181740 On ch=2 n=e5 v=116
181740 On ch=2 n=c5 v=116
181740 On ch=2 n=g#4 v=116
181799 On ch=2 n=g#4 v=0
181799 On ch=2 n=c5 v=0
181799 On ch=2 n=e5 v=0
181800 On ch=2 n=b4 v=116
181859 On ch=2 n=b4 v=0
181860 On ch=2 n=d3 v=116
181860 On ch=2 n=a3 v=116
181919 On ch=2 n=a3 v=0
181919 On ch=2 n=d3 v=0
181920 On ch=2 n=f4 v=116
181979 On ch=2 n=f4 v=0
181980 On ch=2 n=d#5 v=116
181980 On ch=2 n=b4 v=116
181980 On ch=2 n=g4 v=116
182039 On ch=2 n=b4 v=0
182040 On ch=2 n=a#4 v=116
182099 On ch=2 n=a#4 v=0
182100 On ch=2 n=d3 v=116
182100 On ch=2 n=a3 v=116
182159 On ch=2 n=a3 v=0
182159 On ch=2 n=d#5 v=0
182159 On ch=2 n=g4 v=0
182159 On ch=2 n=d3 v=0
182160 On ch=2 n=f4 v=116
182219 On ch=2 n=f4 v=0
182220 On ch=2 n=c#5 v=116
182220 On ch=2 n=b4 v=116
182220 On ch=2 n=f4 v=116
182279 On ch=2 n=b4 v=0
182279 On ch=2 n=c#5 v=0
182280 On ch=2 n=a4 v=116
182280 On ch=2 n=d5 v=116
182339 On ch=2 n=d5 v=0
182339 On ch=2 n=a4 v=0
182339 On ch=2 n=f4 v=0
182340 On ch=2 n=f2 v=116
182399 On ch=2 n=f2 v=0
182400 On ch=2 n=d#4 v=116
182400 On ch=2 n=c4 v=116
182400 On ch=2 n=f3 v=116
182459 On ch=2 n=f3 v=0
182459 On ch=2 n=c4 v=0
182459 On ch=2 n=d#4 v=0
182460 On ch=2 n=a4 v=116
182460 On ch=2 n=c4 v=116
182460 On ch=2 n=d#4 v=116
182519 On ch=2 n=d#4 v=0
182519 On ch=2 n=c4 v=0
182519 On ch=2 n=a4 v=0
182520 On ch=2 n=f3 v=116
182520 On ch=2 n=c4 v=116
182520 On ch=2 n=d#4 v=116
182579 On ch=2 n=d#4 v=0
182579 On ch=2 n=c4 v=0
182579 On ch=2 n=f3 v=0
182580 On ch=2 n=d#5 v=116
182580 On ch=2 n=f4 v=116
182580 On ch=2 n=a4 v=116
182639 On ch=2 n=a4 v=0
182639 On ch=2 n=f4 v=0
182639 On ch=2 n=d#5 v=0
182640 On ch=2 n=c4 v=116
182640 On ch=2 n=f4 v=116
182640 On ch=2 n=a4 v=116
182699 On ch=2 n=a4 v=0
182699 On ch=2 n=f4 v=0
182699 On ch=2 n=c4 v=0
182700 On ch=2 n=f2 v=116
182759 On ch=2 n=f2 v=0
182760 On ch=2 n=d#4 v=116
182760 On ch=2 n=c4 v=116
182760 On ch=2 n=f3 v=116
182819 On ch=2 n=f3 v=0
182819 On ch=2 n=c4 v=0
182819 On ch=2 n=d#4 v=0
182820 On ch=2 n=g#4 v=116
182820 On ch=2 n=d#4 v=116
182820 On ch=2 n=c4 v=116
182879 On ch=2 n=c4 v=0
182879 On ch=2 n=d#4 v=0
182879 On ch=2 n=g#4 v=0
182880 On ch=2 n=d#4 v=116
182880 On ch=2 n=c4 v=116
182880 On ch=2 n=f3 v=116
182939 On ch=2 n=f3 v=0
182939 On ch=2 n=c4 v=0
182939 On ch=2 n=d#4 v=0
182940 On ch=2 n=d#5 v=116
182940 On ch=2 n=f4 v=116
182940 On ch=2 n=g#4 v=116
182999 On ch=2 n=g#4 v=0
182999 On ch=2 n=f4 v=0
182999 On ch=2 n=d#5 v=0
183000 On ch=2 n=c4 v=116
183000 On ch=2 n=f4 v=116
183000 On ch=2 n=g#4 v=116
183059 On ch=2 n=g#4 v=0
183059 On ch=2 n=f4 v=0
183059 On ch=2 n=c4 v=0
183060 On ch=2 n=f2 v=116
183119 On ch=2 n=f2 v=0
183120 On ch=2 n=d#4 v=116
183120 On ch=2 n=c4 v=116
183120 On ch=2 n=f3 v=116
183179 On ch=2 n=f3 v=0
183179 On ch=2 n=c4 v=0
183179 On ch=2 n=d#4 v=0
183180 On ch=2 n=a4 v=116
183180 On ch=2 n=d#4 v=116
183180 On ch=2 n=c4 v=116
183239 On ch=2 n=c4 v=0
183239 On ch=2 n=d#4 v=0
183239 On ch=2 n=a4 v=0
183240 On ch=2 n=f3 v=116
183240 On ch=2 n=c4 v=116
183240 On ch=2 n=d#4 v=116
183299 On ch=2 n=d#4 v=0
183299 On ch=2 n=c4 v=0
183299 On ch=2 n=f3 v=0
183300 On ch=2 n=d#5 v=116
183300 On ch=2 n=f4 v=116
183300 On ch=2 n=a4 v=116
183359 On ch=2 n=a4 v=0
183359 On ch=2 n=f4 v=0
183359 On ch=2 n=d#5 v=0
183360 On ch=2 n=c4 v=116
183360 On ch=2 n=f4 v=116
183360 On ch=2 n=a4 v=116
183419 On ch=2 n=a4 v=0
183419 On ch=2 n=f4 v=0
183419 On ch=2 n=c4 v=0
183420 On ch=2 n=d3 v=116
183480 On ch=2 n=d4 v=116
183480 On ch=2 n=g#3 v=116
183539 On ch=2 n=g#3 v=0
183539 On ch=2 n=d4 v=0
183540 On ch=2 n=c5 v=116
183540 On ch=2 n=d#4 v=116
183599 On ch=2 n=d#4 v=0
183599 On ch=2 n=c5 v=0
183600 On ch=2 n=g#3 v=116
183600 On ch=2 n=e4 v=116
183659 On ch=2 n=e4 v=0
183659 On ch=2 n=g#3 v=0
183660 On ch=2 n=c5 v=116
183660 On ch=2 n=f4 v=116
183719 On ch=2 n=f4 v=0
183719 On ch=2 n=c5 v=0
183720 On ch=2 n=g#3 v=116
183720 On ch=2 n=f#4 v=116
183779 On ch=2 n=f#4 v=0
183779 On ch=2 n=g#3 v=0
183779 On ch=2 n=d3 v=0
183780 On ch=2 n=g2 v=116
183780 On ch=2 n=g3 v=116
183840 On ch=2 n=f4 v=116
183840 On ch=2 n=d4 v=116
183840 On ch=2 n=g3 v=116
183899 On ch=2 n=g3 v=0
183899 On ch=2 n=f4 v=0
183899 On ch=2 n=d4 v=0
183900 On ch=2 n=b4 v=116
183900 On ch=2 n=f4 v=116
183900 On ch=2 n=d4 v=116
183959 On ch=2 n=d4 v=0
183959 On ch=2 n=b4 v=0
183959 On ch=2 n=f4 v=0
183960 On ch=2 n=g3 v=116
183960 On ch=2 n=d4 v=116
183960 On ch=2 n=f4 v=116
184019 On ch=2 n=f4 v=0
184019 On ch=2 n=g3 v=0
184019 On ch=2 n=d4 v=0
184020 On ch=2 n=f5 v=116
184020 On ch=2 n=b4 v=116
184020 On ch=2 n=g4 v=116
184079 On ch=2 n=g4 v=0
184079 On ch=2 n=f5 v=0
184079 On ch=2 n=b4 v=0
184080 On ch=2 n=d4 v=116
184080 On ch=2 n=g4 v=116
184080 On ch=2 n=b4 v=116
184139 On ch=2 n=b4 v=0
184139 On ch=2 n=d4 v=0
184139 On ch=2 n=g2 v=0
184139 On ch=2 n=g3 v=0
184139 On ch=2 n=g4 v=0
184140 On ch=2 n=g2 v=116
184199 On ch=2 n=g2 v=0
184200 On ch=2 n=f4 v=116
184200 On ch=2 n=c#4 v=116
184200 On ch=2 n=g3 v=116
184259 On ch=2 n=g3 v=0
184259 On ch=2 n=c#4 v=0
184259 On ch=2 n=f4 v=0
184260 On ch=2 n=a#4 v=116
184260 On ch=2 n=f4 v=116
184260 On ch=2 n=c#4 v=116
184319 On ch=2 n=c#4 v=0
184319 On ch=2 n=f4 v=0
184319 On ch=2 n=a#4 v=0
184320 On ch=2 n=g3 v=116
184320 On ch=2 n=c#4 v=116
184320 On ch=2 n=f4 v=116
184379 On ch=2 n=f4 v=0
184379 On ch=2 n=c#4 v=0
184379 On ch=2 n=g3 v=0
184380 On ch=2 n=f5 v=116
184380 On ch=2 n=a#4 v=116
184380 On ch=2 n=g4 v=116
184439 On ch=2 n=g4 v=0
184439 On ch=2 n=a#4 v=0
184439 On ch=2 n=f5 v=0
184440 On ch=2 n=c#4 v=116
184440 On ch=2 n=g4 v=116
184440 On ch=2 n=a#4 v=116
184499 On ch=2 n=a#4 v=0
184499 On ch=2 n=g4 v=0
184499 On ch=2 n=c#4 v=0
184500 On ch=2 n=g2 v=116
184559 On ch=2 n=g2 v=0
184560 On ch=2 n=f4 v=116
184560 On ch=2 n=d4 v=116
184560 On ch=2 n=g3 v=116
184619 On ch=2 n=g3 v=0
184619 On ch=2 n=d4 v=0
184619 On ch=2 n=f4 v=0
184620 On ch=2 n=b4 v=116
184620 On ch=2 n=f4 v=116
184620 On ch=2 n=d4 v=116
184679 On ch=2 n=d4 v=0
184679 On ch=2 n=f4 v=0
184679 On ch=2 n=b4 v=0
184680 On ch=2 n=f4 v=116
184680 On ch=2 n=d4 v=116
184680 On ch=2 n=g3 v=116
184739 On ch=2 n=g3 v=0
184739 On ch=2 n=d4 v=0
184739 On ch=2 n=f4 v=0
184740 On ch=2 n=f5 v=116
184740 On ch=2 n=g4 v=116
184740 On ch=2 n=b4 v=116
184799 On ch=2 n=b4 v=0
184799 On ch=2 n=g4 v=0
184799 On ch=2 n=f5 v=0
184800 On ch=2 n=d4 v=116
184800 On ch=2 n=g4 v=116
184800 On ch=2 n=b4 v=116
184859 On ch=2 n=b4 v=0
184859 On ch=2 n=g4 v=0
184859 On ch=2 n=d4 v=0
184860 On ch=2 n=e3 v=116
184920 On ch=2 n=e4 v=116
184920 On ch=2 n=a#3 v=116
184979 On ch=2 n=a#3 v=0
184979 On ch=2 n=e4 v=0
184980 On ch=2 n=d5 v=116
184980 On ch=2 n=f4 v=116
185039 On ch=2 n=f4 v=0
185039 On ch=2 n=d5 v=0
185040 On ch=2 n=a#3 v=116
185040 On ch=2 n=f#4 v=116
185099 On ch=2 n=f#4 v=0
185099 On ch=2 n=a#3 v=0
185100 On ch=2 n=d5 v=116
185100 On ch=2 n=g4 v=116
185159 On ch=2 n=g4 v=0
185159 On ch=2 n=d5 v=0
185160 On ch=2 n=a#3 v=116
185160 On ch=2 n=g#4 v=116
185219 On ch=2 n=g#4 v=0
185219 On ch=2 n=a#3 v=0
185219 On ch=2 n=e3 v=0
185220 On ch=2 n=a2 v=116
185220 On ch=2 n=a3 v=116
185280 On ch=2 n=c#5 v=116
185280 On ch=2 n=g4 v=116
185280 On ch=2 n=e4 v=116
185339 On ch=2 n=e4 v=0
185339 On ch=2 n=c#5 v=0
185339 On ch=2 n=g4 v=0
185340 On ch=2 n=c#5 v=116
185340 On ch=2 n=g4 v=116
185340 On ch=2 n=e4 v=116
185399 On ch=2 n=e4 v=0
185399 On ch=2 n=c#5 v=0
185399 On ch=2 n=g4 v=0
185400 On ch=2 n=a4 v=116
185400 On ch=2 n=f4 v=116
185400 On ch=2 n=d5 v=116
185459 On ch=2 n=d5 v=0
185459 On ch=2 n=a4 v=0
185459 On ch=2 n=f4 v=0
185460 On ch=2 n=f4 v=116
185460 On ch=2 n=a4 v=116
185460 On ch=2 n=d5 v=116
185519 On ch=2 n=d5 v=0
185519 On ch=2 n=f4 v=0
185519 On ch=2 n=a4 v=0
185520 On ch=2 n=d#5 v=116
185520 On ch=2 n=c5 v=116
185520 On ch=2 n=f#4 v=116
185579 On ch=2 n=f#4 v=0
185579 On ch=2 n=d#5 v=0
185579 On ch=2 n=a2 v=0
185579 On ch=2 n=a3 v=0
185579 On ch=2 n=c5 v=0
185580 On ch=2 n=d#5 v=116
185580 On ch=2 n=c5 v=116
185580 On ch=2 n=f#4 v=116
185639 On ch=2 n=f#4 v=0
185639 On ch=2 n=c5 v=0
185639 On ch=2 n=d#5 v=0
185640 On ch=2 n=e5 v=116
185640 On ch=2 n=c#5 v=116
185640 On ch=2 n=g4 v=116
185699 On ch=2 n=g4 v=0
185699 On ch=2 n=c#5 v=0
185699 On ch=2 n=e5 v=0
185700 On ch=2 n=e5 v=116
185700 On ch=2 n=c#5 v=116
185700 On ch=2 n=g4 v=116
185759 On ch=2 n=g4 v=0
185759 On ch=2 n=c#5 v=0
185759 On ch=2 n=e5 v=0
185760 On ch=2 n=f5 v=116
185760 On ch=2 n=d5 v=116
185760 On ch=2 n=g#4 v=116
185819 On ch=2 n=g#4 v=0
185819 On ch=2 n=d5 v=0
185819 On ch=2 n=f5 v=0
185820 On ch=2 n=f5 v=116
185820 On ch=2 n=d5 v=116
185820 On ch=2 n=g#4 v=116
185879 On ch=2 n=g#4 v=0
185879 On ch=2 n=d5 v=0
185879 On ch=2 n=f5 v=0
185880 On ch=2 n=f#5 v=116
185880 On ch=2 n=d#5 v=116
185880 On ch=2 n=a4 v=116
185939 On ch=2 n=a4 v=0
185939 On ch=2 n=d#5 v=0
185939 On ch=2 n=f#5 v=0
185940 On ch=2 n=d3 v=116
185940 On ch=2 n=d4 v=116
186000 On ch=2 n=b5 v=116
186000 On ch=2 n=f#5 v=116
186000 On ch=2 n=c5 v=116
186000 On ch=2 n=b4 v=116
186059 On ch=2 n=b4 v=0
186059 On ch=2 n=f#5 v=0
186059 On ch=2 n=b5 v=0
186059 On ch=2 n=c5 v=0
186060 On ch=2 n=b5 v=116
186060 On ch=2 n=f#5 v=116
186060 On ch=2 n=c#5 v=116
186060 On ch=2 n=b4 v=116
186119 On ch=2 n=b4 v=0
186119 On ch=2 n=f#5 v=0
186119 On ch=2 n=b5 v=0
186119 On ch=2 n=c#5 v=0
186120 On ch=2 n=a#5 v=116
186120 On ch=2 n=f#5 v=116
186120 On ch=2 n=c#5 v=116
186120 On ch=2 n=a#4 v=116
186179 On ch=2 n=a#4 v=0
186179 On ch=2 n=f#5 v=0
186179 On ch=2 n=a#5 v=0
186179 On ch=2 n=c#5 v=0
186180 On ch=2 n=a#5 v=116
186180 On ch=2 n=f#5 v=116
186180 On ch=2 n=c#5 v=116
186180 On ch=2 n=a#4 v=116
186239 On ch=2 n=a#4 v=0
186239 On ch=2 n=f#5 v=0
186239 On ch=2 n=a#5 v=0
186239 On ch=2 n=c#5 v=0
186240 On ch=2 n=a5 v=116
186240 On ch=2 n=f#5 v=116
186240 On ch=2 n=c5 v=116
186240 On ch=2 n=a4 v=116
186299 On ch=2 n=a4 v=0
186299 On ch=2 n=d4 v=0
186299 On ch=2 n=a5 v=0
186299 On ch=2 n=d3 v=0
186299 On ch=2 n=c5 v=0
186299 On ch=2 n=f#5 v=0
186300 On ch=2 n=g3 v=116
186300 On ch=2 n=g2 v=116
186360 On ch=2 n=f5 v=116
186360 On ch=2 n=c5 v=116
186360 On ch=2 n=a4 v=116
186360 On ch=2 n=d4 v=116
186419 On ch=2 n=d4 v=0
186419 On ch=2 n=c5 v=0
186419 On ch=2 n=f5 v=0
186419 On ch=2 n=a4 v=0
186420 On ch=2 n=a5 v=116
186420 On ch=2 n=f5 v=116
186420 On ch=2 n=c5 v=116
186420 On ch=2 n=a4 v=116
186479 On ch=2 n=a4 v=0
186479 On ch=2 n=f5 v=0
186479 On ch=2 n=a5 v=0
186479 On ch=2 n=c5 v=0
186480 On ch=2 n=g#5 v=116
186480 On ch=2 n=f5 v=116
186480 On ch=2 n=c5 v=116
186480 On ch=2 n=g#4 v=116
186539 On ch=2 n=g#4 v=0
186539 On ch=2 n=f5 v=0
186539 On ch=2 n=g#5 v=0
186539 On ch=2 n=c5 v=0
186540 On ch=2 n=g#5 v=116
186540 On ch=2 n=f5 v=116
186540 On ch=2 n=b4 v=116
186540 On ch=2 n=g#4 v=116
186599 On ch=2 n=g#4 v=0
186599 On ch=2 n=f5 v=0
186599 On ch=2 n=g#5 v=0
186599 On ch=2 n=b4 v=0
186600 On ch=2 n=g5 v=116
186600 On ch=2 n=f5 v=116
186600 On ch=2 n=b4 v=116
186600 On ch=2 n=g4 v=116
186659 On ch=2 n=g4 v=0
186659 On ch=2 n=g2 v=0
186659 On ch=2 n=g5 v=0
186659 On ch=2 n=g3 v=0
186659 On ch=2 n=b4 v=0
186659 On ch=2 n=f5 v=0
186660 On ch=2 n=c3 v=116
186660 On ch=2 n=c4 v=116
186720 On ch=2 n=d5 v=116
186720 On ch=2 n=g#4 v=116
186720 On ch=2 n=a#4 v=116
186779 On ch=2 n=c4 v=0
186779 On ch=2 n=c3 v=0
186780 On ch=2 n=c5 v=116
186839 On ch=2 n=g#4 v=0
186839 On ch=2 n=a#4 v=0
186839 On ch=2 n=d5 v=0
186840 On ch=2 n=d5 v=116
186840 On ch=2 n=f#4 v=116
186959 On ch=2 n=f#4 v=0
186959 On ch=2 n=d5 v=0
186960 On ch=2 n=f4 v=116
186960 On ch=2 n=d5 v=116
187019 On ch=2 n=d5 v=0
187019 On ch=2 n=f4 v=0
187019 On ch=2 n=c5 v=0
187020 On ch=2 n=d3 v=116
187020 On ch=2 n=d4 v=116
187080 On ch=2 n=d5 v=116
187080 On ch=2 n=g4 v=116
187139 On ch=2 n=d4 v=0
187139 On ch=2 n=d3 v=0
187140 On ch=2 n=a#4 v=116
187199 On ch=2 n=d5 v=0
187199 On ch=2 n=g4 v=0
187200 On ch=2 n=f4 v=116
187200 On ch=2 n=d5 v=116
187319 On ch=2 n=d5 v=0
187319 On ch=2 n=f4 v=0
187320 On ch=2 n=e4 v=116
187320 On ch=2 n=d5 v=116
187379 On ch=2 n=d5 v=0
187379 On ch=2 n=e4 v=0
187379 On ch=2 n=a#4 v=0
187380 On ch=2 n=d#4 v=116
187380 On ch=2 n=d#3 v=116
187440 On ch=2 n=c5 v=116
187440 On ch=2 n=f#4 v=116
187499 On ch=2 n=d#3 v=0
187499 On ch=2 n=d#4 v=0
187500 On ch=2 n=a4 v=116
187559 On ch=2 n=c5 v=0
187559 On ch=2 n=f#4 v=0
187560 On ch=2 n=f4 v=116
187560 On ch=2 n=c5 v=116
187679 On ch=2 n=c5 v=0
187679 On ch=2 n=f4 v=0
187680 On ch=2 n=d#4 v=116
187680 On ch=2 n=c5 v=116
187739 On ch=2 n=c5 v=0
187739 On ch=2 n=d#4 v=0
187739 On ch=2 n=a4 v=0
187740 On ch=2 n=e3 v=116
187740 On ch=2 n=e4 v=116
187800 On ch=2 n=a#4 v=116
187800 On ch=2 n=d4 v=116
187859 On ch=2 n=e4 v=0
187859 On ch=2 n=e3 v=0
187860 On ch=2 n=g4 v=116
187919 On ch=2 n=a#4 v=0
187919 On ch=2 n=d4 v=0
187920 On ch=2 n=c#4 v=116
187920 On ch=2 n=a#4 v=116
188039 On ch=2 n=a#4 v=0
188039 On ch=2 n=c#4 v=0
188040 On ch=2 n=a#4 v=116
188040 On ch=2 n=c4 v=116
188099 On ch=2 n=c4 v=0
188099 On ch=2 n=a#4 v=0
188099 On ch=2 n=g4 v=0
188100 On ch=2 n=f2 v=116
188100 On ch=2 n=f3 v=116
188160 On ch=2 n=d4 v=116
188219 On ch=2 n=f3 v=0
188219 On ch=2 n=f2 v=0
188220 On ch=2 n=f#4 v=116
188220 On ch=2 n=f#3 v=116
188279 On ch=2 n=d4 v=0
188280 On ch=2 n=d5 v=116
188280 On ch=2 n=a#4 v=116
188280 On ch=2 n=d4 v=116
188399 On ch=2 n=d4 v=0
188399 On ch=2 n=d5 v=0
188399 On ch=2 n=a#4 v=0
188400 On ch=2 n=d5 v=116
188400 On ch=2 n=a#4 v=116
188400 On ch=2 n=d4 v=116
188459 On ch=2 n=d4 v=0
188459 On ch=2 n=d5 v=0
188459 On ch=2 n=f#4 v=0
188459 On ch=2 n=f#3 v=0
188459 On ch=2 n=a#4 v=0
188460 On ch=2 n=f2 v=116
188460 On ch=2 n=f3 v=116
188520 On ch=2 n=d4 v=116
188579 On ch=2 n=f3 v=0
188579 On ch=2 n=f2 v=0
188580 On ch=2 n=g4 v=116
188580 On ch=2 n=g3 v=116
188639 On ch=2 n=d4 v=0
188640 On ch=2 n=d5 v=116
188640 On ch=2 n=a#4 v=116
188640 On ch=2 n=d4 v=116
188759 On ch=2 n=d4 v=0
188759 On ch=2 n=d5 v=0
188759 On ch=2 n=a#4 v=0
188760 On ch=2 n=a#4 v=116
188760 On ch=2 n=d5 v=116
188760 On ch=2 n=d4 v=116
188819 On ch=2 n=d4 v=0
188819 On ch=2 n=a#4 v=0
188819 On ch=2 n=g4 v=0
188819 On ch=2 n=g3 v=0
188819 On ch=2 n=d5 v=0
188820 On ch=2 n=f2 v=116
188820 On ch=2 n=f3 v=116
188880 On ch=2 n=d4 v=116
188939 On ch=2 n=f3 v=0
188939 On ch=2 n=f2 v=0
188940 On ch=2 n=g#4 v=116
188940 On ch=2 n=g#3 v=116
188999 On ch=2 n=d4 v=0
189000 On ch=2 n=d5 v=116
189000 On ch=2 n=a#4 v=116
189000 On ch=2 n=d4 v=116
189119 On ch=2 n=d4 v=0
189119 On ch=2 n=d5 v=0
189119 On ch=2 n=a#4 v=0
189120 On ch=2 n=a#4 v=116
189120 On ch=2 n=d5 v=116
189120 On ch=2 n=d4 v=116
189179 On ch=2 n=d4 v=0
189179 On ch=2 n=a#4 v=0
189179 On ch=2 n=g#4 v=0
189179 On ch=2 n=g#3 v=0
189179 On ch=2 n=d5 v=0
189180 On ch=2 n=f2 v=116
189180 On ch=2 n=f3 v=116
189240 On ch=2 n=d#4 v=116
189299 On ch=2 n=f3 v=0
189299 On ch=2 n=f2 v=0
189300 On ch=2 n=a4 v=116
189300 On ch=2 n=a3 v=116
189359 On ch=2 n=d#4 v=0
189360 On ch=2 n=d#5 v=116
189360 On ch=2 n=a#4 v=116
189360 On ch=2 n=f4 v=116
189479 On ch=2 n=f4 v=0
189479 On ch=2 n=d#5 v=0
189479 On ch=2 n=a#4 v=0
189480 On ch=2 n=d#5 v=116
189480 On ch=2 n=a#4 v=116
189480 On ch=2 n=f4 v=116
189539 On ch=2 n=f4 v=0
189539 On ch=2 n=d#5 v=0
189539 On ch=2 n=a4 v=0
189539 On ch=2 n=a3 v=0
189539 On ch=2 n=a#4 v=0
189540 On ch=2 n=a#1 v=116
189540 On ch=2 n=a#2 v=116
189619 On ch=2 n=a#2 v=0
189619 On ch=2 n=a#1 v=0
189620 On ch=2 n=f3 v=116
189659 On ch=2 n=f3 v=0
189660 On ch=2 n=d4 v=116
189660 On ch=2 n=a#3 v=116
189719 On ch=2 n=a#3 v=0
189719 On ch=2 n=d4 v=0
189720 On ch=2 n=f4 v=116
189779 On ch=2 n=f4 v=0
189820 On ch=2 n=f#4 v=116
189859 On ch=2 n=f#4 v=0
189860 On ch=2 n=g4 v=116
189899 On ch=2 n=g4 v=0
189900 On ch=2 n=g#4 v=116
189900 On ch=2 n=f4 v=116
189959 On ch=2 n=f4 v=0
189959 On ch=2 n=g#4 v=0
189960 On ch=2 n=b4 v=116
190019 On ch=2 n=b4 v=0
190020 On ch=2 n=g#4 v=116
190079 On ch=2 n=g#4 v=0
190080 On ch=2 n=f4 v=116
190139 On ch=2 n=f4 v=0
190140 On ch=2 n=d4 v=116
190199 On ch=2 n=d4 v=0
190200 On ch=2 n=f3 v=116
190259 On ch=2 n=f3 v=0
190260 On ch=2 n=a#2 v=116
190339 On ch=2 n=a#2 v=0
190340 On ch=2 n=f#3 v=116
190379 On ch=2 n=f#3 v=0
190380 On ch=2 n=c#4 v=116
190439 On ch=2 n=c#4 v=0
190440 On ch=2 n=f#4 v=116
190499 On ch=2 n=f#4 v=0
190540 On ch=2 n=a#4 v=116
190579 On ch=2 n=a#4 v=0
190580 On ch=2 n=b4 v=116
190619 On ch=2 n=b4 v=0
190620 On ch=2 n=f#4 v=116
190620 On ch=2 n=a4 v=116
190620 On ch=2 n=c5 v=116
190679 On ch=2 n=c5 v=0
190680 On ch=2 n=d#5 v=116
190739 On ch=2 n=d#5 v=0
190740 On ch=2 n=b4 v=116
190799 On ch=2 n=b4 v=0
190800 On ch=2 n=a#4 v=116
190859 On ch=2 n=a#4 v=0
190860 On ch=2 n=a4 v=116
190919 On ch=2 n=a4 v=0
190920 On ch=2 n=f#4 v=116
190979 On ch=2 n=f#4 v=0
190979 On ch=2 n=a4 v=0
190979 On ch=2 n=f#4 v=0
190980 On ch=2 n=a#2 v=116
191059 On ch=2 n=a#2 v=0
191060 On ch=2 n=d4 v=116
191099 On ch=2 n=d4 v=0
191100 On ch=2 n=a#4 v=116
191100 On ch=2 n=g4 v=116
191159 On ch=2 n=g4 v=0
191159 On ch=2 n=a#4 v=0
191160 On ch=2 n=d5 v=116
191219 On ch=2 n=d5 v=0
191260 On ch=2 n=f5 v=116
191299 On ch=2 n=f5 v=0
191300 On ch=2 n=f#5 v=116
191339 On ch=2 n=f#5 v=0
191340 On ch=2 n=e5 v=116
191340 On ch=2 n=c#5 v=116
191340 On ch=2 n=g5 v=116
191399 On ch=2 n=g5 v=0
191400 On ch=2 n=a#5 v=116
191459 On ch=2 n=a#5 v=0
191460 On ch=2 n=f#5 v=116
191519 On ch=2 n=f#5 v=0
191520 On ch=2 n=f5 v=116
191579 On ch=2 n=f5 v=0
191580 On ch=2 n=e5 v=116
191639 On ch=2 n=e5 v=0
191640 On ch=2 n=c#5 v=116
191699 On ch=2 n=c#5 v=0
191699 On ch=2 n=c#5 v=0
191699 On ch=2 n=e5 v=0
191700 On ch=2 n=a#2 v=116
191759 On ch=2 n=a#2 v=0
191760 On ch=2 n=f#4 v=116
191819 On ch=2 n=f#4 v=0
191820 On ch=2 n=d#5 v=116
191820 On ch=2 n=a#4 v=116
191879 On ch=2 n=a#4 v=0
191879 On ch=2 n=d#5 v=0
191880 On ch=2 n=f#5 v=116
191939 On ch=2 n=f#5 v=0
191980 On ch=2 n=a#5 v=116
192019 On ch=2 n=a#5 v=0
192020 On ch=2 n=b5 v=116
192059 On ch=2 n=b5 v=0
192060 On ch=2 n=a5 v=116
192060 On ch=2 n=f#5 v=116
192060 On ch=2 n=c6 v=116
192119 On ch=2 n=c6 v=0
192120 On ch=2 n=d#6 v=116
192179 On ch=2 n=d#6 v=0
192180 On ch=2 n=b5 v=116
192239 On ch=2 n=b5 v=0
192240 On ch=2 n=a#5 v=116
192299 On ch=2 n=a#5 v=0
192300 On ch=2 n=a5 v=116
192359 On ch=2 n=a5 v=0
192360 On ch=2 n=f#5 v=116
192419 On ch=2 n=f#5 v=0
192419 On ch=2 n=f#5 v=0
192419 On ch=2 n=a5 v=0
192420 On ch=2 n=a#2 v=116
192499 On ch=2 n=a#2 v=0
192500 On ch=2 n=f4 v=116
192539 On ch=2 n=f4 v=0
192540 On ch=2 n=b4 v=116
192540 On ch=2 n=g#4 v=116
192619 On ch=2 n=g#4 v=0
192619 On ch=2 n=b4 v=0
192620 On ch=2 n=c5 v=116
192660 On ch=2 n=g#4 v=116
192739 On ch=2 n=g#4 v=0
192739 On ch=2 n=c5 v=0
192740 On ch=2 n=e5 v=116
192779 On ch=2 n=e5 v=0
192780 On ch=2 n=d#5 v=116
192819 On ch=2 n=d#5 v=0
192820 On ch=2 n=d5 v=116
192859 On ch=2 n=d5 v=0
192860 On ch=2 n=c#5 v=116
192899 On ch=2 n=c#5 v=0
192900 On ch=2 n=c5 v=116
192939 On ch=2 n=c5 v=0
192940 On ch=2 n=g#4 v=116
192979 On ch=2 n=g#4 v=0
192980 On ch=2 n=f4 v=116
193019 On ch=2 n=f4 v=0
193020 On ch=2 n=d#4 v=116
193099 On ch=2 n=d#4 v=0
193100 On ch=2 n=d4 v=116
193139 On ch=2 n=d4 v=0
193220 On ch=2 n=g4 v=116
193259 On ch=2 n=g4 v=0
193260 On ch=2 n=c#5 v=116
193260 On ch=2 n=a#4 v=116
193260 On ch=2 n=a#2 v=116
193339 On ch=2 n=a#2 v=0
193339 On ch=2 n=a#4 v=0
193339 On ch=2 n=c#5 v=0
193340 On ch=2 n=d5 v=116
193380 On ch=2 n=g5 v=116
193380 On ch=2 n=a#4 v=116
193459 On ch=2 n=a#4 v=0
193459 On ch=2 n=g5 v=0
193459 On ch=2 n=d5 v=0
193460 On ch=2 n=f#5 v=116
193499 On ch=2 n=f#5 v=0
193500 On ch=2 n=f5 v=116
193539 On ch=2 n=f5 v=0
193540 On ch=2 n=e5 v=116
193579 On ch=2 n=e5 v=0
193580 On ch=2 n=d#5 v=116
193619 On ch=2 n=d#5 v=0
193620 On ch=2 n=d5 v=116
193659 On ch=2 n=d5 v=0
193660 On ch=2 n=a#4 v=116
193699 On ch=2 n=a#4 v=0
193700 On ch=2 n=g4 v=116
193739 On ch=2 n=g4 v=0
193740 On ch=2 n=f4 v=116
193819 On ch=2 n=f4 v=0
193820 On ch=2 n=d#4 v=116
193859 On ch=2 n=d#4 v=0
193860 On ch=2 n=a#3 v=116
193860 On ch=2 n=a#2 v=116
193939 On ch=2 n=a#2 v=0
193939 On ch=2 n=a#3 v=0
193940 On ch=2 n=f4 v=116
193979 On ch=2 n=f4 v=0
193980 On ch=2 n=g#5 v=116
193980 On ch=2 n=d#5 v=116
193980 On ch=2 n=b4 v=116
194059 On ch=2 n=b4 v=0
194059 On ch=2 n=d#5 v=0
194059 On ch=2 n=g#5 v=0
194060 On ch=2 n=f4 v=116
194099 On ch=2 n=f4 v=0
194100 On ch=2 n=a5 v=116
194100 On ch=2 n=d#5 v=116
194100 On ch=2 n=b4 v=116
194179 On ch=2 n=b4 v=0
194179 On ch=2 n=d#5 v=0
194179 On ch=2 n=a5 v=0
194180 On ch=2 n=c5 v=116
194219 On ch=2 n=c5 v=0
194220 On ch=2 n=a#5 v=116
194220 On ch=2 n=g5 v=116
194220 On ch=2 n=d#5 v=116
194299 On ch=2 n=d#5 v=0
194299 On ch=2 n=g5 v=0
194299 On ch=2 n=a#5 v=0
194300 On ch=2 n=a#4 v=116
194339 On ch=2 n=a#4 v=0
194340 On ch=2 n=d#5 v=116
194340 On ch=2 n=f#5 v=116
194340 On ch=2 n=b5 v=116
194419 On ch=2 n=b5 v=0
194419 On ch=2 n=f#5 v=0
194419 On ch=2 n=d#5 v=0
194420 On ch=2 n=a4 v=116
194459 On ch=2 n=a4 v=0
194460 On ch=2 n=d#5 v=116
194460 On ch=2 n=f5 v=116
194460 On ch=2 n=c6 v=116
194579 On ch=2 n=c6 v=0
194579 On ch=2 n=f5 v=0
194579 On ch=2 n=d#5 v=0
194580 On ch=2 n=a#3 v=116
194580 On ch=2 n=a#2 v=116
194659 On ch=2 n=a#2 v=0
194659 On ch=2 n=a#3 v=0
194660 On ch=2 n=f#4 v=116
194699 On ch=2 n=f#4 v=0
194700 On ch=2 n=a5 v=116
194700 On ch=2 n=e5 v=116
194700 On ch=2 n=c5 v=116
194779 On ch=2 n=c5 v=0
194779 On ch=2 n=e5 v=0
194779 On ch=2 n=a5 v=0
194780 On ch=2 n=f#4 v=116
194819 On ch=2 n=f#4 v=0
194820 On ch=2 n=a#5 v=116
194820 On ch=2 n=e5 v=116
194820 On ch=2 n=c5 v=116
194899 On ch=2 n=c5 v=0
194899 On ch=2 n=e5 v=0
194899 On ch=2 n=a#5 v=0
194900 On ch=2 n=c#5 v=116
194939 On ch=2 n=c#5 v=0
194940 On ch=2 n=b5 v=116
194940 On ch=2 n=g#5 v=116
194940 On ch=2 n=e5 v=116
194940 On ch=2 n=a#3 v=116
194940 On ch=2 n=a#2 v=116
195019 On ch=2 n=e5 v=0
195019 On ch=2 n=b5 v=0
195019 On ch=2 n=g#5 v=0
195020 On ch=2 n=b4 v=116
195059 On ch=2 n=b4 v=0
195059 On ch=2 n=a#3 v=0
195059 On ch=2 n=a#2 v=0
195060 On ch=2 n=c6 v=116
195060 On ch=2 n=g5 v=116
195060 On ch=2 n=e5 v=116
195139 On ch=2 n=e5 v=0
195139 On ch=2 n=g5 v=0
195139 On ch=2 n=c6 v=0
195140 On ch=2 n=a#4 v=116
195179 On ch=2 n=a#4 v=0
195180 On ch=2 n=c#6 v=116
195180 On ch=2 n=f#5 v=116
195180 On ch=2 n=e5 v=116
195259 On ch=2 n=e5 v=0
195259 On ch=2 n=f#5 v=0
195259 On ch=2 n=c#6 v=0
195300 On ch=2 n=a#3 v=116
195300 On ch=2 n=a#2 v=116
195380 On ch=2 n=g4 v=116
195419 On ch=2 n=g4 v=0
195419 On ch=2 n=a#2 v=0
195419 On ch=2 n=a#3 v=0
195420 On ch=2 n=g5 v=116
195420 On ch=2 n=d#5 v=116
195420 On ch=2 n=c5 v=116
195539 On ch=2 n=c5 v=0
195539 On ch=2 n=d#5 v=0
195539 On ch=2 n=g5 v=0
195540 On ch=2 n=g#5 v=116
195540 On ch=2 n=d#5 v=116
195540 On ch=2 n=c5 v=116
195540 On ch=2 n=g#4 v=116
195579 On ch=2 n=g#4 v=0
195579 On ch=2 n=g#5 v=0
195579 On ch=2 n=d#5 v=0
195579 On ch=2 n=c5 v=0
195580 On ch=2 n=g#4 v=116
195580 On ch=2 n=c5 v=116
195580 On ch=2 n=d#5 v=116
195580 On ch=2 n=g#5 v=116
195619 On ch=2 n=g#5 v=0
195619 On ch=2 n=g#4 v=0
195619 On ch=2 n=c5 v=0
195619 On ch=2 n=d#5 v=0
195660 On ch=2 n=a#3 v=116
195660 On ch=2 n=a#1 v=116
195660 On ch=2 n=a#2 v=116
195779 On ch=2 n=a#2 v=0
195779 On ch=2 n=a#3 v=0
195780 On ch=2 n=d#5 v=116
195780 On ch=2 n=c5 v=116
195780 On ch=2 n=g#5 v=116
195780 On ch=2 n=g#4 v=116
195819 On ch=2 n=g#4 v=0
195819 On ch=2 n=c5 v=0
195819 On ch=2 n=g#5 v=0
195819 On ch=2 n=d#5 v=0
195820 On ch=2 n=d#5 v=116
195820 On ch=2 n=c5 v=116
195820 On ch=2 n=g#5 v=116
195820 On ch=2 n=g#4 v=116
195859 On ch=2 n=g#4 v=0
195859 On ch=2 n=c5 v=0
195859 On ch=2 n=g#5 v=0
195859 On ch=2 n=d#5 v=0
195900 On ch=2 n=a5 v=116
195900 On ch=2 n=d#5 v=116
195900 On ch=2 n=c5 v=116
195900 On ch=2 n=a4 v=116
195939 On ch=2 n=a4 v=0
195939 On ch=2 n=d#5 v=0
195939 On ch=2 n=c5 v=0
195939 On ch=2 n=a5 v=0
195940 On ch=2 n=a5 v=116
195940 On ch=2 n=d#5 v=116
195940 On ch=2 n=c5 v=116
195940 On ch=2 n=a4 v=116
195979 On ch=2 n=a4 v=0
195979 On ch=2 n=d#5 v=0
195979 On ch=2 n=c5 v=0
195979 On ch=2 n=a5 v=0
196019 On ch=2 n=a#1 v=0
196020 On ch=2 n=a#2 v=116
196020 On ch=2 n=a#3 v=116
196139 On ch=2 n=a#3 v=0
196139 On ch=2 n=a#2 v=0
196140 On ch=2 n=a5 v=116
196140 On ch=2 n=d#5 v=116
196140 On ch=2 n=a4 v=116
196140 On ch=2 n=c5 v=116
196179 On ch=2 n=c5 v=0
196179 On ch=2 n=a5 v=0
196179 On ch=2 n=d#5 v=0
196179 On ch=2 n=a4 v=0
196180 On ch=2 n=a5 v=116
196180 On ch=2 n=d#5 v=116
196180 On ch=2 n=a4 v=116
196180 On ch=2 n=c5 v=116
196219 On ch=2 n=c5 v=0
196219 On ch=2 n=a5 v=0
196219 On ch=2 n=d#5 v=0
196219 On ch=2 n=a4 v=0
196260 On ch=2 n=a#4 v=116
196260 On ch=2 n=c5 v=116
196260 On ch=2 n=d#5 v=116
196260 On ch=2 n=a#5 v=116
196299 On ch=2 n=a#5 v=0
196299 On ch=2 n=a#4 v=0
196299 On ch=2 n=c5 v=0
196299 On ch=2 n=d#5 v=0
196300 On ch=2 n=a#5 v=116
196300 On ch=2 n=d#5 v=116
196300 On ch=2 n=c5 v=116
196300 On ch=2 n=a#4 v=116
196339 On ch=2 n=a#4 v=0
196339 On ch=2 n=a#5 v=0
196339 On ch=2 n=d#5 v=0
196339 On ch=2 n=c5 v=0
196380 On ch=2 n=d#5 v=116
196380 On ch=2 n=c5 v=116
196380 On ch=2 n=b4 v=116
196380 On ch=2 n=b5 v=116
196419 On ch=2 n=b5 v=0
196419 On ch=2 n=d#5 v=0
196419 On ch=2 n=c5 v=0
196419 On ch=2 n=b4 v=0
196420 On ch=2 n=d#5 v=116
196420 On ch=2 n=c5 v=116
196420 On ch=2 n=b4 v=116
196420 On ch=2 n=b5 v=116
196459 On ch=2 n=b5 v=0
196459 On ch=2 n=d#5 v=0
196459 On ch=2 n=c5 v=0
196459 On ch=2 n=b4 v=0
196500 On ch=2 n=c6 v=116
196500 On ch=2 n=a5 v=116
196500 On ch=2 n=d#5 v=116
196500 On ch=2 n=c5 v=116
196559 On ch=2 n=c5 v=0
196559 On ch=2 n=c6 v=0
196559 On ch=2 n=a5 v=0
196559 On ch=2 n=d#5 v=0
196560 On ch=2 n=c6 v=116
196560 On ch=2 n=a5 v=116
196560 On ch=2 n=e5 v=116
196560 On ch=2 n=c5 v=116
196619 On ch=2 n=c5 v=0
196619 On ch=2 n=c6 v=0
196619 On ch=2 n=a5 v=0
196619 On ch=2 n=e5 v=0
196620 On ch=2 n=c#6 v=116
196620 On ch=2 n=a5 v=116
196620 On ch=2 n=f5 v=116
196620 On ch=2 n=c#5 v=116
196679 On ch=2 n=c#5 v=0
196679 On ch=2 n=c#6 v=0
196679 On ch=2 n=a5 v=0
196679 On ch=2 n=f5 v=0
196680 On ch=2 n=c#6 v=116
196680 On ch=2 n=a5 v=116
196680 On ch=2 n=f#5 v=116
196680 On ch=2 n=c#5 v=116
196739 On ch=2 n=c#5 v=0
196739 On ch=2 n=c#6 v=0
196739 On ch=2 n=a5 v=0
196739 On ch=2 n=f#5 v=0
196740 On ch=2 n=a#1 v=116
196740 On ch=2 n=a#2 v=116
196820 On ch=2 n=f5 v=116
196820 On ch=2 n=d5 v=116
196820 On ch=2 n=a#4 v=116
196820 On ch=2 n=f4 v=116
196859 On ch=2 n=f4 v=0
196859 On ch=2 n=d5 v=0
196859 On ch=2 n=f5 v=0
196859 On ch=2 n=a#4 v=0
196860 On ch=2 n=f4 v=116
196860 On ch=2 n=a#4 v=116
196860 On ch=2 n=d5 v=116
196860 On ch=2 n=f5 v=116
196979 On ch=2 n=f5 v=0
196979 On ch=2 n=a#4 v=0
196979 On ch=2 n=f4 v=0
196979 On ch=2 n=d5 v=0
196980 On ch=2 n=e7 v=116
196980 On ch=2 n=d7 v=116
196980 On ch=2 n=a#6 v=116
196980 On ch=2 n=f6 v=116
197009 On ch=2 n=f6 v=0
197009 On ch=2 n=d7 v=0
197009 On ch=2 n=e7 v=0
197009 On ch=2 n=a#6 v=0
197040 On ch=2 n=e7 v=116
197040 On ch=2 n=d7 v=116
197040 On ch=2 n=a#6 v=116
197040 On ch=2 n=f6 v=116
197069 On ch=2 n=f6 v=0
197069 On ch=2 n=d7 v=0
197069 On ch=2 n=e7 v=0
197069 On ch=2 n=a#6 v=0
197099 On ch=2 n=a#2 v=0
197099 On ch=2 n=a#1 v=0
197100 On ch=2 n=c#7 v=116
197100 On ch=2 n=a#6 v=116
197100 On ch=2 n=f6 v=116
197100 On ch=2 n=d6 v=116
197129 On ch=2 n=d6 v=0
197129 On ch=2 n=c#7 v=0
197129 On ch=2 n=a#6 v=0
197129 On ch=2 n=f6 v=0
197160 On ch=2 n=c#7 v=116
197160 On ch=2 n=a#6 v=116
197160 On ch=2 n=f6 v=116
197160 On ch=2 n=d6 v=116
197189 On ch=2 n=d6 v=0
197189 On ch=2 n=c#7 v=0
197189 On ch=2 n=a#6 v=0
197189 On ch=2 n=f6 v=0
197220 On ch=2 n=a#5 v=116
197220 On ch=2 n=a6 v=116
197220 On ch=2 n=f6 v=116
197220 On ch=2 n=d6 v=116
197249 On ch=2 n=d6 v=0
197249 On ch=2 n=a#5 v=0
197249 On ch=2 n=a6 v=0
197249 On ch=2 n=f6 v=0
197280 On ch=2 n=a#5 v=116
197280 On ch=2 n=a6 v=116
197280 On ch=2 n=f6 v=116
197280 On ch=2 n=d6 v=116
197309 On ch=2 n=d6 v=0
197309 On ch=2 n=a#5 v=0
197309 On ch=2 n=a6 v=0
197309 On ch=2 n=f6 v=0
197340 On ch=2 n=f5 v=116
197340 On ch=2 n=a#5 v=116
197340 On ch=2 n=f6 v=116
197340 On ch=2 n=d6 v=116
197340 On ch=2 n=a#3 v=116
197340 On ch=2 n=a#2 v=116
197369 On ch=2 n=d6 v=0
197369 On ch=2 n=f6 v=0
197369 On ch=2 n=f5 v=0
197369 On ch=2 n=a#5 v=0
197400 On ch=2 n=f5 v=116
197400 On ch=2 n=a#5 v=116
197400 On ch=2 n=f6 v=116
197400 On ch=2 n=d6 v=116
197429 On ch=2 n=d6 v=0
197429 On ch=2 n=a#5 v=0
197429 On ch=2 n=f5 v=0
197429 On ch=2 n=f6 v=0
197459 On ch=2 n=a#3 v=0
197459 On ch=2 n=a#2 v=0
197460 On ch=2 n=c#6 v=116
197460 On ch=2 n=a#5 v=116
197460 On ch=2 n=f5 v=116
197460 On ch=2 n=d5 v=116
197489 On ch=2 n=d5 v=0
197489 On ch=2 n=c#6 v=0
197489 On ch=2 n=a#5 v=0
197489 On ch=2 n=f5 v=0
197520 On ch=2 n=c#6 v=116
197520 On ch=2 n=a#5 v=116
197520 On ch=2 n=f5 v=116
197520 On ch=2 n=d5 v=116
197549 On ch=2 n=d5 v=0
197549 On ch=2 n=c#6 v=0
197549 On ch=2 n=a#5 v=0
197549 On ch=2 n=f5 v=0
197580 On ch=2 n=a#4 v=116
197580 On ch=2 n=a5 v=116
197580 On ch=2 n=f5 v=116
197580 On ch=2 n=d5 v=116
197580 On ch=2 n=a#3 v=116
197609 On ch=2 n=d5 v=0
197609 On ch=2 n=f5 v=0
197609 On ch=2 n=a#4 v=0
197609 On ch=2 n=a5 v=0
197640 On ch=2 n=a#4 v=116
197640 On ch=2 n=a5 v=116
197640 On ch=2 n=f5 v=116
197640 On ch=2 n=d5 v=116
197669 On ch=2 n=d5 v=0
197669 On ch=2 n=a5 v=0
197669 On ch=2 n=f5 v=0
197669 On ch=2 n=a#4 v=0
197700 On ch=2 n=e5 v=116
197700 On ch=2 n=d5 v=116
197700 On ch=2 n=a#4 v=116
197700 On ch=2 n=f4 v=116
197729 On ch=2 n=f4 v=0
197729 On ch=2 n=d5 v=0
197729 On ch=2 n=a#4 v=0
197729 On ch=2 n=e5 v=0
197760 On ch=2 n=e5 v=116
197760 On ch=2 n=d5 v=116
197760 On ch=2 n=a#4 v=116
197760 On ch=2 n=f4 v=116
197789 On ch=2 n=f4 v=0
197789 On ch=2 n=d5 v=0
197789 On ch=2 n=a#4 v=0
197789 On ch=2 n=e5 v=0
197819 On ch=2 n=a#3 v=0
197820 On ch=2 n=d4 v=116
197820 On ch=2 n=f4 v=116
197820 On ch=2 n=a#4 v=116
197820 On ch=2 n=c#5 v=116
197849 On ch=2 n=c#5 v=0
197849 On ch=2 n=d4 v=0
197849 On ch=2 n=f4 v=0
197849 On ch=2 n=a#4 v=0
197880 On ch=2 n=d4 v=116
197880 On ch=2 n=f4 v=116
197880 On ch=2 n=a#4 v=116
197880 On ch=2 n=c#5 v=116
197909 On ch=2 n=c#5 v=0
197909 On ch=2 n=d4 v=0
197909 On ch=2 n=f4 v=0
197909 On ch=2 n=a#4 v=0
197940 On ch=2 n=a4 v=116
197940 On ch=2 n=a#3 v=116
197940 On ch=2 n=f4 v=116
197940 On ch=2 n=d4 v=116
197969 On ch=2 n=d4 v=0
197969 On ch=2 n=a4 v=0
197969 On ch=2 n=a#3 v=0
197969 On ch=2 n=f4 v=0
198000 On ch=2 n=a4 v=116
198000 On ch=2 n=a#3 v=116
198000 On ch=2 n=d4 v=116
198000 On ch=2 n=f4 v=116
198029 On ch=2 n=f4 v=0
198029 On ch=2 n=a4 v=0
198029 On ch=2 n=a#3 v=0
198029 On ch=2 n=d4 v=0
198060 On ch=2 n=f3 v=116
198060 On ch=2 n=a#3 v=116
198060 On ch=2 n=d4 v=116
198060 On ch=2 n=e4 v=116
198089 On ch=2 n=e4 v=0
198089 On ch=2 n=f3 v=0
198089 On ch=2 n=a#3 v=0
198089 On ch=2 n=d4 v=0
198120 On ch=2 n=f3 v=116
198120 On ch=2 n=a#3 v=116
198120 On ch=2 n=d4 v=116
198120 On ch=2 n=e4 v=116
198149 On ch=2 n=e4 v=0
198149 On ch=2 n=f3 v=0
198149 On ch=2 n=a#3 v=0
198149 On ch=2 n=d4 v=0
198180 On ch=2 n=a#1 v=116
198180 On ch=2 n=a#2 v=116
198300 On ch=2 n=g#4 v=116
198300 On ch=2 n=f4 v=116
198300 On ch=2 n=d4 v=116
198300 On ch=2 n=g#3 v=116
198419 On ch=2 n=a#2 v=0
198419 On ch=2 n=a#1 v=0
198420 On ch=2 n=a#3 v=116
198420 On ch=2 n=a#2 v=116
198539 On ch=2 n=a#2 v=0
198539 On ch=2 n=g#3 v=0
198539 On ch=2 n=g#4 v=0
198539 On ch=2 n=f4 v=0
198539 On ch=2 n=a#3 v=0
198539 On ch=2 n=d4 v=0
198540 On ch=2 n=a5 v=116
198540 On ch=2 n=f#5 v=116
198540 On ch=2 n=d#5 v=116
198540 On ch=2 n=a4 v=116
198660 On ch=2 n=a#3 v=116
198660 On ch=2 n=a#2 v=116
198779 On ch=2 n=a4 v=0
198779 On ch=2 n=d#5 v=0
198779 On ch=2 n=a5 v=0
198779 On ch=2 n=f#5 v=0
198780 On ch=2 n=a#5 v=116
198780 On ch=2 n=e5 v=116
198780 On ch=2 n=c5 v=116
198780 On ch=2 n=g4 v=116
198899 On ch=2 n=g4 v=0
198899 On ch=2 n=a#2 v=0
198899 On ch=2 n=a#5 v=0
198899 On ch=2 n=a#3 v=0
198899 On ch=2 n=c5 v=0
198899 On ch=2 n=e5 v=0
198900 On ch=2 n=a#4 v=116
198900 On ch=2 n=a#3 v=116
198900 On ch=2 n=a#1 v=116
198900 On ch=2 n=a#2 v=116
198980 On ch=2 n=f4 v=116
198980 On ch=2 n=d4 v=116
198980 On ch=2 n=a#3 v=116
198980 On ch=2 n=f3 v=116
199019 On ch=2 n=f3 v=0
199019 On ch=2 n=a#3 v=0
199019 On ch=2 n=f4 v=0
199019 On ch=2 n=d4 v=0
199020 On ch=2 n=f5 v=116
199020 On ch=2 n=d5 v=116
199020 On ch=2 n=f4 v=116
199259 On ch=2 n=a#3 v=0
199619 On ch=2 n=d5 v=0
199619 On ch=2 n=a#1 v=0
199619 On ch=2 n=a#2 v=0
199619 On ch=2 n=a#4 v=0
199619 On ch=2 n=f4 v=0
199619 On ch=2 n=f5 v=0
199619 Meta TrkEnd
TrkEnd
MTrk
0 Meta 0x21 00
0 PrCh ch=3 p=1
98280 On ch=3 n=g6 v=100
98519 On ch=3 n=g6 v=0
98520 On ch=3 n=e6 v=100
98759 On ch=3 n=e6 v=0
98760 On ch=3 n=c6 v=100
98999 On ch=3 n=c6 v=0
99000 On ch=3 n=a5 v=100
99239 On ch=3 n=a5 v=0
99240 On ch=3 n=g5 v=100
99419 On ch=3 n=g5 v=0
99419 Meta TrkEnd
TrkEnd
