MFile 0 1 192
MTrk
0 Meta SeqName "Sonata N\xffffffb0 1 Op. 28 2do. movimiento"
0 Meta Text "By Sergei Rachmaninoff"
0 Meta Copyright "Copyright \xffffffa9 2002 by Lord Pianito"
0 Meta Copyright "All Rights Reserved"
0 Meta Text "Generated by NoteWorthy Composer"
0 Par ch=3 c=7 v=127
0 Par ch=3 c=10 v=64
0 PrCh ch=1 p=0
0 Par ch=1 c=7 v=127
0 Par ch=1 c=10 v=64
0 PrCh ch=2 p=0
0 Par ch=2 c=7 v=127
0 Par ch=2 c=10 v=64
0 PrCh ch=3 p=0
0 PrCh ch=1 p=0
0 Tempo 1666666
0 PrCh ch=2 p=0
0 Tempo 1621621
0 TimeSig 3/4 24 8
0 KeySig -1 major
0 Par ch=1 c=64 v=127
0 On ch=1 n=a5 v=30
14 Tempo 1621621
29 Tempo 1578947
44 Tempo 1538461
59 Tempo 1500000
64 On ch=1 n=a5 v=0
64 On ch=1 n=f#5 v=30
73 Tempo 1463414
88 Tempo 1428571
103 Tempo 1395348
118 Tempo 1363636
128 On ch=1 n=f#5 v=0
128 On ch=1 n=a5 v=30
132 Tempo 1333333
147 Tempo 1304347
162 Tempo 1276595
177 Tempo 1250000
192 On ch=1 n=a5 v=0
192 Tempo 1224489
192 On ch=1 n=f#5 v=30
256 On ch=1 n=f#5 v=0
256 On ch=1 n=a5 v=30
320 On ch=1 n=a5 v=0
320 On ch=1 n=f#5 v=30
384 On ch=1 n=f#5 v=0
384 Tempo 1224489
384 Par ch=2 c=64 v=127
384 On ch=1 n=a5 v=30
384 On ch=2 n=d5 v=30
448 On ch=1 n=a5 v=0
448 On ch=1 n=f#5 v=30
512 On ch=1 n=f#5 v=0
512 On ch=1 n=a5 v=30
576 On ch=1 n=a5 v=0
576 Par ch=1 c=64 v=0
576 On ch=1 n=f5 v=30
640 On ch=1 n=f5 v=0
640 On ch=1 n=a5 v=35
704 On ch=1 n=a5 v=0
704 On ch=1 n=f5 v=40
736 On ch=2 n=d5 v=0
768 On ch=1 n=f5 v=0
768 On ch=1 n=a5 v=45
768 On ch=2 n=g4 v=45
832 On ch=1 n=a5 v=0
832 On ch=1 n=f5 v=50
896 On ch=1 n=f5 v=0
896 On ch=1 n=a5 v=55
928 On ch=2 n=g4 v=0
960 On ch=1 n=a5 v=0
960 On ch=1 n=f5 v=60
960 On ch=2 n=c4 v=60
1024 On ch=1 n=f5 v=0
1024 On ch=1 n=a5 v=65
1088 On ch=1 n=a5 v=0
1088 On ch=1 n=f5 v=70
1120 On ch=2 n=c4 v=0
1150 On ch=1 n=f5 v=0
1152 Par ch=2 c=64 v=0
1152 Par ch=2 c=64 v=127
1152 On ch=1 n=a#5 v=75
1152 On ch=2 n=f3 v=75
1216 On ch=1 n=a#5 v=0
1216 On ch=1 n=e5 v=75
1280 On ch=1 n=e5 v=0
1280 On ch=1 n=a#5 v=75
1344 On ch=1 n=a#5 v=0
1344 On ch=1 n=d5 v=75
1344 On ch=1 n=e5 v=75
1408 On ch=1 n=e5 v=0
1408 On ch=1 n=a#5 v=75
1472 On ch=1 n=a#5 v=0
1472 On ch=1 n=e5 v=75
1536 On ch=1 n=e5 v=0
1536 On ch=1 n=a#5 v=75
1600 On ch=1 n=a#5 v=0
1600 On ch=1 n=e5 v=75
1664 On ch=1 n=e5 v=0
1664 On ch=1 n=a#5 v=75
1728 On ch=1 n=a#5 v=0
1728 On ch=1 n=f5 v=75
1728 On ch=2 n=g4 v=75
1792 On ch=1 n=f5 v=0
1792 On ch=1 n=a#5 v=74
1856 On ch=1 n=a#5 v=0
1856 On ch=1 n=f5 v=73
1920 On ch=1 n=f5 v=0
1920 On ch=1 n=a#5 v=72
1984 On ch=1 n=a#5 v=0
1984 On ch=1 n=f5 v=71
2048 On ch=1 n=f5 v=0
2048 On ch=1 n=a#5 v=70
2064 On ch=1 n=d5 v=0
2064 On ch=2 n=g4 v=0
2112 On ch=1 n=a#5 v=0
2112 On ch=1 n=d#5 v=69
2112 On ch=1 n=f#5 v=69
2112 On ch=2 n=c4 v=64
2176 On ch=1 n=f#5 v=0
2176 On ch=1 n=a#5 v=68
2240 On ch=1 n=a#5 v=0
2240 On ch=1 n=f#5 v=67
2304 On ch=1 n=f#5 v=0
2304 On ch=1 n=a#5 v=66
2368 On ch=1 n=a#5 v=0
2368 On ch=1 n=f#5 v=64
2432 On ch=1 n=f#5 v=0
2432 On ch=1 n=a#5 v=62
2464 On ch=1 n=e5 v=0
2464 On ch=2 n=f3 v=0
2494 On ch=1 n=a#5 v=0
2496 Par ch=2 c=64 v=0
2496 Par ch=1 c=64 v=127
2496 Par ch=2 c=64 v=127
2496 On ch=1 n=e5 v=60
2496 On ch=1 n=g5 v=60
2496 On ch=2 n=f3 v=54
2522 Tempo 1250000
2529 Tempo 1250000
2548 Tempo 1276595
2560 On ch=1 n=g5 v=0
2560 On ch=1 n=a#5 v=58
2562 Tempo 1276595
2575 Tempo 1304347
2595 Tempo 1304347
2601 Tempo 1333333
2624 On ch=1 n=a#5 v=0
2624 On ch=1 n=g5 v=56
2628 Tempo 1333333
2628 Tempo 1363636
2654 Tempo 1395348
2661 Tempo 1363636
2681 Tempo 1428571
2688 On ch=1 n=g5 v=0
2688 On ch=1 n=a#5 v=54
2694 Tempo 1395348
2707 Tempo 1463414
2727 Tempo 1428571
2734 Tempo 1500000
2752 On ch=1 n=a#5 v=0
2752 On ch=1 n=c5 v=52
2760 Tempo 1463414
2760 Tempo 1538461
2787 Tempo 1578947
2793 Tempo 1500000
2813 Tempo 1621621
2816 On ch=1 n=c5 v=0
2816 On ch=1 n=e5 v=50
2827 Tempo 1538461
2832 On ch=1 n=e5 v=0
2832 On ch=2 n=c4 v=0
2840 Tempo 1666666
2860 Tempo 1578947
2866 Tempo 1714285
2880 On ch=2 n=f3 v=0
2880 On ch=1 n=e5 v=0
2880 Par ch=1 c=64 v=0
2880 Par ch=2 c=64 v=0
2880 Par ch=2 c=64 v=127
2880 On ch=2 n=a4 v=42
2893 Tempo 1621621
2893 Tempo 1764705
2919 Tempo 1818181
2926 Tempo 1666666
2944 On ch=2 n=a4 v=0
2944 On ch=2 n=c5 v=40
2946 Tempo 1875000
2959 Tempo 1714285
2972 Tempo 1935483
2992 Tempo 1764705
2999 Tempo 2000000
3008 On ch=2 n=c5 v=0
3008 On ch=2 n=f#4 v=38
3025 Tempo 1818181
3025 Tempo 2068965
3052 Tempo 2142857
3058 Tempo 1875000
3072 On ch=2 n=f#4 v=0
3072 On ch=2 n=g4 v=36
3078 Tempo 2222222
3091 Tempo 1935483
3105 Tempo 2307692
3124 Tempo 2000000
3131 Tempo 2400000
3136 On ch=2 n=g4 v=0
3136 On ch=2 n=a#4 v=34
3158 Tempo 2068965
3158 Tempo 2500000
3184 Tempo 2608695
3191 Tempo 2142857
3200 On ch=2 n=a#4 v=0
3200 On ch=2 n=e4 v=32
3211 Tempo 2727272
3224 Tempo 2222222
3237 Tempo 2857142
3257 Tempo 2307692
3264 On ch=2 n=e4 v=0
3264 Tempo 3000000
3264 On ch=2 n=d5 v=30
3290 Tempo 2400000
3323 Tempo 2500000
3356 Tempo 2608695
3360 On ch=2 n=d5 v=0
3360 On ch=2 n=g4 v=30
3389 Tempo 2727272
3422 Tempo 2857142
3456 On ch=2 n=g4 v=0
3456 Tempo 3000000
3456 On ch=2 n=c4 v=30
3616 On ch=2 n=c4 v=0
3648 Par ch=2 c=64 v=0
3648 Tempo 1224489
3648 Tempo 1224489
3648 Par ch=2 c=64 v=127
3648 On ch=2 n=f3 v=30
3776 On ch=2 n=f3 v=0
3776 On ch=2 n=c4 v=30
3840 On ch=2 n=c4 v=0
3840 On ch=2 n=f3 v=30
3968 On ch=2 n=f3 v=0
3968 On ch=2 n=c4 v=30
4032 On ch=2 n=c4 v=0
4032 On ch=2 n=f3 v=30
4096 On ch=2 n=f3 v=0
4096 On ch=2 n=c4 v=30
4160 On ch=2 n=c4 v=0
4160 On ch=2 n=f3 v=30
4224 On ch=2 n=f3 v=0
4224 Par ch=2 c=64 v=0
4224 Par ch=2 c=64 v=127
4224 On ch=2 n=c4 v=30
4288 On ch=2 n=c4 v=0
4288 On ch=2 n=f3 v=30
4352 On ch=2 n=c4 v=30
4416 On ch=2 n=a4 v=30
4480 On ch=2 n=a4 v=0
4480 On ch=2 n=d4 v=30
4544 On ch=2 n=d4 v=0
4544 On ch=2 n=a4 v=30
4608 On ch=2 n=a4 v=0
4608 On ch=1 n=g5 v=60
4608 On ch=2 n=d4 v=30
4672 On ch=2 n=d4 v=0
4672 On ch=2 n=a4 v=30
4736 On ch=2 n=a4 v=0
4736 On ch=2 n=d4 v=30
4752 On ch=2 n=f3 v=0
4752 On ch=2 n=c4 v=0
4752 On ch=1 n=g5 v=0
4752 On ch=1 n=f5 v=60
4800 On ch=1 n=f5 v=0
4800 Par ch=2 c=64 v=0
4800 Par ch=2 c=64 v=127
4800 On ch=1 n=a4 v=60
4800 On ch=1 n=f5 v=60
4800 On ch=1 n=f5 v=60
4862 On ch=2 n=d4 v=0
4864 On ch=2 n=c4 v=30
4926 On ch=2 n=c4 v=0
4928 On ch=2 n=f3 v=30
4992 On ch=1 n=f5 v=0
4992 On ch=1 n=c6 v=60
5120 On ch=2 n=f3 v=0
5120 On ch=2 n=c4 v=30
5184 On ch=2 n=c4 v=0
5184 On ch=2 n=f3 v=30
5248 On ch=2 n=f3 v=0
5248 On ch=2 n=c4 v=30
5312 On ch=2 n=c4 v=0
5312 On ch=2 n=f3 v=30
5328 On ch=1 n=a4 v=0
5376 Par ch=2 c=64 v=0
5376 Par ch=2 c=64 v=127
5376 On ch=1 n=a4 v=60
5440 On ch=2 n=c4 v=30
5504 On ch=2 n=c4 v=0
5504 On ch=2 n=d4 v=30
5536 On ch=1 n=a4 v=0
5568 On ch=1 n=a#4 v=60
5632 On ch=2 n=d4 v=0
5632 On ch=2 n=a4 v=30
5696 On ch=2 n=a4 v=0
5696 On ch=2 n=d4 v=30
5712 On ch=1 n=f5 v=0
5712 On ch=1 n=c6 v=0
5760 On ch=1 n=g5 v=60
5824 On ch=2 n=d4 v=0
5824 On ch=2 n=c4 v=30
5888 On ch=2 n=f3 v=30
5904 On ch=1 n=a#4 v=0
5904 On ch=2 n=f3 v=0
5904 On ch=1 n=g5 v=0
5904 On ch=1 n=f5 v=60
5952 On ch=1 n=f5 v=0
5952 Par ch=2 c=64 v=0
5952 Par ch=2 c=64 v=127
5952 On ch=1 n=a4 v=60
5952 On ch=1 n=f5 v=60
5952 On ch=1 n=f5 v=60
6014 On ch=2 n=f3 v=0
6014 On ch=2 n=c4 v=0
6016 On ch=2 n=c4 v=30
6080 On ch=2 n=c4 v=0
6080 On ch=2 n=f3 v=30
6144 On ch=1 n=f5 v=0
6144 On ch=1 n=c6 v=60
6208 On ch=2 n=f3 v=0
6208 On ch=2 n=c4 v=30
6272 On ch=2 n=c4 v=0
6272 On ch=2 n=a4 v=30
6288 On ch=1 n=a4 v=0
6288 On ch=1 n=f5 v=0
6336 On ch=2 n=a4 v=0
6336 On ch=1 n=f5 v=60
6336 On ch=1 n=a#5 v=60
6336 On ch=2 n=f4 v=30
6336 On ch=2 n=d5 v=30
6462 On ch=2 n=d5 v=0
6464 On ch=1 n=a#5 v=0
6464 On ch=1 n=a5 v=60
6464 On ch=2 n=c5 v=30
6526 On ch=1 n=a5 v=0
6526 On ch=2 n=c5 v=0
6528 Par ch=2 c=64 v=0
6528 Par ch=2 c=64 v=127
6528 On ch=1 n=a5 v=60
6528 On ch=2 n=e5 v=30
6590 On ch=2 n=f4 v=0
6592 On ch=2 n=c4 v=30
6656 On ch=2 n=c4 v=0
6656 On ch=2 n=f3 v=30
6688 On ch=1 n=c6 v=0
6720 On ch=1 n=f6 v=60
6784 On ch=2 n=f3 v=0
6784 On ch=2 n=c4 v=30
6848 On ch=2 n=c4 v=0
6848 On ch=2 n=a4 v=30
6864 On ch=1 n=f5 v=0
6864 On ch=1 n=a5 v=0
6864 On ch=2 n=e5 v=0
6912 On ch=2 n=a4 v=0
6912 On ch=1 n=d6 v=60
6912 On ch=2 n=a4 v=30
6936 On ch=2 n=f5 v=30
7038 On ch=1 n=d6 v=0
7038 On ch=2 n=f5 v=0
7040 On ch=1 n=c6 v=60
7040 On ch=2 n=e5 v=30
7102 On ch=1 n=c6 v=0
7102 On ch=2 n=e5 v=0
7104 Par ch=2 c=64 v=127
7104 On ch=1 n=c6 v=60
7104 On ch=2 n=e5 v=30
7166 On ch=2 n=a4 v=0
7168 On ch=2 n=g4 v=30
7198 On ch=1 n=f6 v=0
7200 On ch=1 n=e6 v=60
7232 On ch=2 n=g4 v=0
7232 On ch=2 n=c4 v=30
7294 On ch=1 n=e6 v=0
7296 On ch=1 n=d6 v=60
7360 On ch=2 n=c4 v=0
7360 On ch=2 n=f3 v=30
7424 On ch=2 n=f3 v=0
7424 On ch=2 n=c4 v=30
7440 On ch=1 n=c6 v=0
7440 On ch=2 n=e5 v=0
7486 On ch=2 n=c4 v=0
7488 On ch=1 n=a#5 v=30
7488 On ch=2 n=d5 v=30
7488 On ch=2 n=d5 v=30
7552 On ch=2 n=d5 v=0
7552 On ch=2 n=e4 v=30
7584 On ch=1 n=a#5 v=0
7584 On ch=1 n=a5 v=30
7616 On ch=2 n=c5 v=42
7648 On ch=2 n=d5 v=0
7678 On ch=2 n=c5 v=0
7680 On ch=1 n=a5 v=0
7680 Par ch=2 c=64 v=0
7680 Par ch=2 c=64 v=127
7680 On ch=1 n=f#5 v=30
7680 On ch=2 n=a#4 v=30
7742 On ch=2 n=a#4 v=0
7744 On ch=2 n=c4 v=30
7776 On ch=1 n=f#5 v=0
7776 On ch=1 n=d6 v=0
7776 On ch=1 n=g5 v=60
7776 On ch=1 n=e6 v=60
7808 On ch=2 n=a#4 v=30
7872 On ch=1 n=e6 v=0
7872 On ch=1 n=f6 v=60
7936 On ch=1 n=g5 v=0
7968 On ch=2 n=a#4 v=0
7968 On ch=1 n=a5 v=60
7968 On ch=2 n=c5 v=30
8032 On ch=2 n=e4 v=0
8064 On ch=1 n=a5 v=0
8064 On ch=2 n=c5 v=0
8064 On ch=1 n=a#5 v=60
8064 On ch=1 n=e6 v=60
8064 On ch=2 n=g4 v=30
8064 On ch=2 n=d5 v=30
8190 On ch=2 n=d5 v=0
8192 On ch=1 n=a#5 v=0
8192 On ch=1 n=c6 v=60
8192 On ch=2 n=e5 v=30
8224 On ch=1 n=f6 v=0
8254 On ch=1 n=c6 v=0
8254 On ch=2 n=e5 v=0
8256 Par ch=2 c=64 v=0
8256 On ch=1 n=a#5 v=60
8256 On ch=2 n=d5 v=30
8318 On ch=2 n=c4 v=0
8318 On ch=2 n=g4 v=0
8320 On ch=2 n=f4 v=30
8350 On ch=1 n=e6 v=0
8352 On ch=1 n=d6 v=60
8382 On ch=2 n=f4 v=0
8384 On ch=2 n=c4 v=30
8446 On ch=1 n=d6 v=0
8448 On ch=1 n=c6 v=60
8510 On ch=2 n=c4 v=0
8512 On ch=2 n=f3 v=30
8574 On ch=2 n=f3 v=0
8576 On ch=2 n=c4 v=30
8592 On ch=1 n=a#5 v=0
8592 On ch=2 n=d5 v=0
8638 On ch=2 n=c4 v=0
8640 On ch=1 n=a5 v=30
8640 On ch=2 n=c5 v=30
8640 On ch=2 n=c5 v=30
8702 On ch=2 n=c5 v=0
8704 On ch=2 n=f4 v=30
8736 On ch=1 n=a5 v=0
8736 On ch=1 n=g5 v=30
8768 On ch=2 n=a#4 v=42
8800 On ch=2 n=c5 v=0
8830 On ch=2 n=a#4 v=0
8832 On ch=1 n=g5 v=0
8832 Par ch=2 c=64 v=0
8832 Par ch=2 c=64 v=127
8832 On ch=1 n=e5 v=30
8832 On ch=2 n=a4 v=30
8894 On ch=2 n=a4 v=0
8896 On ch=2 n=c4 v=30
8928 On ch=1 n=e5 v=0
8928 On ch=1 n=c6 v=0
8928 On ch=1 n=f5 v=60
8928 On ch=1 n=d6 v=60
8960 On ch=2 n=a4 v=30
9024 On ch=1 n=d6 v=0
9024 On ch=1 n=e6 v=60
9088 On ch=1 n=f5 v=0
9120 On ch=1 n=e6 v=0
9120 On ch=2 n=a4 v=0
9120 On ch=1 n=g5 v=45
9120 On ch=2 n=a#4 v=30
9184 On ch=2 n=c4 v=0
9184 On ch=2 n=f4 v=0
9216 On ch=1 n=g5 v=0
9216 On ch=2 n=a#4 v=0
9216 On ch=1 n=a5 v=60
9216 On ch=1 n=d6 v=60
9216 On ch=2 n=c4 v=30
9216 On ch=2 n=f4 v=30
9216 On ch=2 n=c5 v=30
9342 On ch=1 n=a5 v=0
9342 On ch=2 n=c5 v=0
9344 On ch=1 n=a#5 v=60
9344 On ch=2 n=d5 v=30
9406 On ch=1 n=a#5 v=0
9406 On ch=2 n=d5 v=0
9408 Par ch=2 c=64 v=0
9408 Par ch=2 c=64 v=127
9408 On ch=1 n=a5 v=60
9408 On ch=2 n=c5 v=30
9472 On ch=2 n=c4 v=0
9472 On ch=2 n=f4 v=0
9472 On ch=2 n=d4 v=30
9502 On ch=1 n=d6 v=0
9504 On ch=1 n=c6 v=60
9536 On ch=2 n=d4 v=0
9536 On ch=2 n=f3 v=30
9598 On ch=1 n=c6 v=0
9600 On ch=1 n=a#5 v=60
9664 On ch=2 n=f3 v=0
9664 On ch=2 n=d4 v=30
9728 On ch=2 n=d4 v=0
9728 On ch=2 n=c5 v=30
9744 On ch=1 n=a5 v=0
9744 On ch=2 n=c5 v=0
9790 On ch=2 n=c5 v=0
9792 On ch=1 n=g5 v=60
9792 On ch=2 n=a#4 v=30
9792 On ch=2 n=a#4 v=30
9856 On ch=2 n=a#4 v=0
9856 On ch=2 n=d4 v=30
9920 On ch=1 n=g5 v=0
9920 On ch=1 n=f5 v=60
9920 On ch=2 n=a4 v=42
9952 On ch=2 n=a#4 v=0
9982 On ch=2 n=a4 v=0
9984 On ch=1 n=f5 v=0
9984 Par ch=2 c=64 v=0
9984 Par ch=2 c=64 v=127
9984 On ch=1 n=f5 v=60
9984 On ch=2 n=f4 v=30
10048 On ch=2 n=d4 v=0
10048 On ch=2 n=d4 v=30
10080 On ch=1 n=a#5 v=0
10080 On ch=1 n=c6 v=60
10112 On ch=2 n=d4 v=0
10112 On ch=2 n=f3 v=30
10176 On ch=1 n=c6 v=0
10176 Par ch=1 c=64 v=127
10176 On ch=1 n=d6 v=60
10240 On ch=1 n=d6 v=0
10240 On ch=2 n=f3 v=0
10240 On ch=1 n=c6 v=60
10240 On ch=2 n=d4 v=30
10304 On ch=1 n=c6 v=0
10304 On ch=2 n=d4 v=0
10304 On ch=1 n=f5 v=60
10304 On ch=2 n=a4 v=30
10320 On ch=1 n=f5 v=0
10320 On ch=2 n=f4 v=0
10366 On ch=2 n=a4 v=0
10368 On ch=1 n=f5 v=0
10368 On ch=1 n=e5 v=60
10368 On ch=1 n=g5 v=60
10368 On ch=2 n=g4 v=30
10368 On ch=2 n=g4 v=30
10432 On ch=2 n=g4 v=0
10432 On ch=2 n=c4 v=30
10494 On ch=1 n=e5 v=0
10496 On ch=1 n=d5 v=60
10496 On ch=2 n=f4 v=42
10528 On ch=2 n=g4 v=0
10558 On ch=1 n=d5 v=0
10558 On ch=2 n=f4 v=0
10560 Par ch=1 c=64 v=0
10560 Par ch=2 c=64 v=0
10560 Par ch=2 c=64 v=127
10560 On ch=1 n=d5 v=60
10560 On ch=2 n=f4 v=30
10624 On ch=2 n=c4 v=0
10624 On ch=2 n=c4 v=30
10656 On ch=1 n=g5 v=0
10656 On ch=1 n=a5 v=60
10688 On ch=2 n=c4 v=0
10688 On ch=2 n=f3 v=30
10752 On ch=1 n=a5 v=0
10752 Par ch=1 c=64 v=127
10752 On ch=1 n=a#5 v=60
10816 On ch=1 n=a#5 v=0
10816 On ch=2 n=f3 v=0
10816 On ch=1 n=a5 v=60
10816 On ch=2 n=c4 v=30
10880 On ch=1 n=a5 v=0
10880 On ch=2 n=c4 v=0
10880 On ch=1 n=d5 v=60
10880 On ch=2 n=f4 v=30
10896 On ch=1 n=d5 v=0
10896 On ch=2 n=f4 v=0
10942 On ch=2 n=f4 v=0
10944 On ch=1 n=d5 v=0
10944 On ch=1 n=c5 v=60
10944 On ch=1 n=e5 v=60
10944 On ch=2 n=e4 v=30
10944 On ch=2 n=e4 v=30
11008 On ch=2 n=e4 v=0
11008 On ch=2 n=c4 v=30
11070 On ch=1 n=c5 v=0
11072 On ch=2 n=c4 v=0
11072 On ch=1 n=a#4 v=60
11072 On ch=2 n=d4 v=42
11104 On ch=2 n=e4 v=0
11134 On ch=1 n=a#4 v=0
11134 On ch=2 n=d4 v=0
11136 Par ch=1 c=64 v=0
11136 Par ch=2 c=64 v=0
11136 Par ch=2 c=64 v=127
11136 On ch=1 n=a#4 v=60
11136 On ch=2 n=d4 v=30
11200 On ch=2 n=d4 v=0
11200 On ch=2 n=f3 v=30
11264 On ch=2 n=f3 v=0
11264 On ch=2 n=d4 v=30
11328 On ch=1 n=e5 v=0
11328 On ch=1 n=g5 v=60
11352 Tempo 1250000
11352 Tempo 1250000
11376 Tempo 1276595
11376 Tempo 1276595
11392 On ch=2 n=d4 v=0
11392 On ch=2 n=f3 v=30
11400 Tempo 1304347
11400 Tempo 1304347
11424 Tempo 1333333
11424 Tempo 1333333
11448 Tempo 1363636
11448 Tempo 1363636
11456 On ch=2 n=d4 v=30
11472 Tempo 1395348
11472 Tempo 1395348
11496 Tempo 1428571
11496 Tempo 1428571
11520 On ch=2 n=d4 v=0
11520 Tempo 1463414
11520 Tempo 1463414
11520 On ch=2 n=a#4 v=30
11544 Tempo 1500000
11544 Tempo 1500000
11568 Tempo 1538461
11568 Tempo 1538461
11584 On ch=2 n=a#4 v=0
11584 On ch=2 n=c#4 v=30
11592 Tempo 1578947
11592 Tempo 1578947
11616 On ch=1 n=g5 v=0
11616 Tempo 1621621
11616 Tempo 1621621
11616 On ch=1 n=f5 v=60
11640 Tempo 1666666
11640 Tempo 1666666
11648 On ch=2 n=a4 v=30
11664 On ch=1 n=a#4 v=0
11664 Tempo 1714285
11664 Tempo 1714285
11688 Tempo 1764705
11688 Tempo 1764705
11710 On ch=2 n=a4 v=0
11712 On ch=1 n=f5 v=0
11712 Par ch=2 c=64 v=0
11712 Tempo 1818181
11712 Tempo 1224489
11712 Tempo 1818181
11712 Tempo 1224489
11712 Par ch=2 c=64 v=127
11712 On ch=1 n=a4 v=60
11712 On ch=1 n=f5 v=60
11776 On ch=2 n=c#4 v=0
11776 On ch=2 n=c4 v=30
11840 On ch=2 n=c4 v=0
11904 On ch=1 n=c6 v=60
11968 On ch=2 n=f3 v=0
11968 On ch=2 n=c4 v=30
12032 On ch=2 n=c4 v=0
12032 On ch=2 n=f3 v=30
12048 On ch=1 n=a4 v=0
12096 On ch=1 n=a4 v=60
12160 On ch=2 n=c4 v=30
12224 On ch=2 n=c4 v=0
12224 On ch=2 n=c#4 v=30
12256 On ch=1 n=a4 v=0
12288 Par ch=2 c=64 v=0
12288 Par ch=2 c=64 v=127
12288 On ch=1 n=a#4 v=60
12352 On ch=2 n=d4 v=0
12352 On ch=2 n=c4 v=30
12416 On ch=2 n=c4 v=0
12416 On ch=2 n=c#4 v=30
12448 On ch=1 n=a#4 v=0
12480 On ch=2 n=c#4 v=0
12480 On ch=1 n=b4 v=60
12480 On ch=2 n=c#4 v=30
12480 On ch=2 n=d4 v=30
12544 On ch=2 n=d4 v=0
12544 On ch=2 n=a4 v=30
12608 On ch=2 n=a4 v=0
12608 On ch=2 n=d4 v=30
12624 On ch=1 n=f5 v=0
12624 On ch=1 n=c6 v=0
12640 On ch=2 n=c#4 v=0
12672 On ch=1 n=b4 v=0
12672 On ch=2 n=d4 v=0
12672 On ch=1 n=a#4 v=60
12672 On ch=1 n=c5 v=60
12672 On ch=1 n=g5 v=60
12672 On ch=2 n=c4 v=30
12672 On ch=2 n=c4 v=30
12736 On ch=2 n=c4 v=0
12736 On ch=2 n=f3 v=30
12800 On ch=2 n=c4 v=30
12816 On ch=2 n=f3 v=0
12816 On ch=1 n=g5 v=0
12816 On ch=1 n=f5 v=60
12832 On ch=1 n=a#4 v=0
12832 On ch=2 n=c4 v=0
12864 On ch=1 n=f5 v=0
12864 Par ch=2 c=64 v=0
12864 Par ch=2 c=64 v=127
12864 On ch=1 n=a4 v=60
12864 On ch=1 n=f5 v=60
12928 On ch=2 n=f3 v=0
12928 On ch=2 n=c4 v=0
12928 On ch=2 n=f3 v=30
12992 On ch=2 n=f3 v=0
12992 On ch=2 n=c4 v=30
13024 On ch=1 n=a4 v=0
13024 On ch=1 n=c5 v=0
13056 On ch=1 n=c6 v=60
13120 On ch=2 n=c4 v=0
13120 On ch=2 n=f3 v=30
13184 On ch=2 n=f3 v=0
13184 On ch=2 n=c4 v=30
13248 On ch=2 n=c4 v=0
13248 On ch=1 n=c5 v=60
13248 On ch=2 n=d4 v=30
13312 On ch=2 n=d4 v=0
13312 On ch=2 n=a4 v=30
13376 On ch=2 n=a4 v=0
13376 On ch=2 n=d4 v=30
13408 On ch=1 n=c5 v=0
13438 On ch=2 n=d4 v=0
13440 Par ch=2 c=64 v=0
13440 Par ch=2 c=64 v=127
13440 On ch=1 n=d5 v=60
13504 On ch=2 n=g4 v=30
13568 On ch=2 n=g4 v=0
13568 On ch=2 n=d5 v=30
13600 On ch=1 n=d5 v=0
13600 On ch=1 n=f5 v=0
13632 On ch=2 n=d5 v=0
13632 On ch=1 n=d#5 v=60
13632 On ch=2 n=g4 v=30
13696 On ch=2 n=g4 v=0
13696 On ch=2 n=c4 v=30
13760 On ch=2 n=c4 v=0
13760 On ch=2 n=g4 v=30
13776 On ch=1 n=c6 v=0
13824 On ch=1 n=d#5 v=0
13824 On ch=2 n=g4 v=0
13824 On ch=1 n=a#4 v=60
13824 On ch=1 n=e5 v=60
13824 On ch=1 n=g5 v=60
13824 On ch=2 n=c4 v=30
13888 On ch=2 n=c4 v=0
13888 On ch=2 n=f3 v=30
13952 On ch=2 n=f3 v=0
13952 On ch=2 n=c4 v=30
13968 On ch=1 n=g5 v=0
13968 On ch=1 n=f5 v=60
13984 On ch=1 n=a#4 v=0
13984 On ch=1 n=e5 v=0
14014 On ch=2 n=c4 v=0
14016 On ch=1 n=f5 v=0
14016 Par ch=2 c=64 v=0
14016 Par ch=2 c=64 v=127
14016 On ch=1 n=a4 v=60
14016 On ch=1 n=f5 v=60
14016 On ch=1 n=f5 v=60
14080 On ch=2 n=f3 v=30
14144 On ch=2 n=f3 v=0
14144 On ch=2 n=c4 v=30
14176 On ch=1 n=f5 v=0
14208 On ch=1 n=c6 v=60
14272 On ch=2 n=c4 v=0
14272 On ch=2 n=c4 v=30
14336 On ch=2 n=c4 v=0
14336 On ch=2 n=a4 v=30
14352 On ch=1 n=a4 v=0
14352 On ch=1 n=f5 v=0
14400 On ch=2 n=a4 v=0
14400 On ch=1 n=f5 v=60
14400 On ch=1 n=a#5 v=60
14400 On ch=2 n=f4 v=30
14400 On ch=2 n=d5 v=30
14526 On ch=1 n=f5 v=0
14526 On ch=1 n=a#5 v=0
14528 On ch=2 n=d5 v=0
14528 On ch=1 n=a5 v=60
14528 On ch=2 n=c5 v=30
14590 On ch=1 n=a5 v=0
14590 On ch=2 n=c5 v=0
14592 Par ch=2 c=64 v=127
14592 On ch=1 n=f5 v=60
14592 On ch=1 n=a5 v=60
14592 On ch=2 n=c5 v=30
14654 On ch=2 n=c5 v=0
14686 On ch=2 n=f4 v=0
14720 On ch=2 n=f3 v=30
14752 On ch=1 n=c6 v=0
14784 On ch=2 n=f3 v=0
14784 On ch=1 n=d6 v=60
14784 On ch=2 n=c4 v=30
14848 On ch=2 n=c4 v=0
14848 On ch=2 n=c4 v=30
14912 On ch=2 n=c5 v=30
14928 On ch=1 n=f5 v=0
14928 On ch=1 n=a5 v=0
14976 On ch=2 n=c5 v=0
14976 On ch=1 n=g5 v=60
14976 On ch=2 n=a#4 v=30
15102 On ch=1 n=g5 v=0
15102 On ch=2 n=c4 v=0
15102 On ch=2 n=a#4 v=0
15104 On ch=1 n=f5 v=60
15104 On ch=2 n=a4 v=30
15166 On ch=1 n=f5 v=0
15166 On ch=2 n=a4 v=0
15168 Par ch=2 c=64 v=0
15168 Par ch=2 c=64 v=127
15168 On ch=1 n=f5 v=60
15168 On ch=2 n=c4 v=30
15168 On ch=2 n=a4 v=30
15230 On ch=2 n=c4 v=0
15230 On ch=2 n=a4 v=0
15294 On ch=1 n=d6 v=0
15296 On ch=2 n=f3 v=30
15360 On ch=2 n=f3 v=0
15360 On ch=1 n=e6 v=60
15360 On ch=2 n=c4 v=30
15424 On ch=2 n=c4 v=0
15424 On ch=2 n=c#4 v=30
15488 On ch=2 n=c#4 v=0
15488 On ch=2 n=a4 v=30
15504 On ch=1 n=f5 v=0
15552 On ch=2 n=a4 v=0
15552 On ch=1 n=d6 v=57
15552 On ch=2 n=a4 v=30
15552 On ch=2 n=f5 v=30
15616 On ch=2 n=d4 v=30
15678 On ch=1 n=d6 v=0
15680 On ch=2 n=d4 v=0
15680 On ch=1 n=c6 v=55
15680 On ch=2 n=a4 v=30
15680 On ch=2 n=e5 v=30
15712 On ch=2 n=a4 v=0
15712 On ch=2 n=f5 v=0
15742 On ch=1 n=c6 v=0
15742 On ch=2 n=e5 v=0
15744 Par ch=2 c=64 v=0
15744 Par ch=2 c=64 v=127
15744 On ch=1 n=c6 v=54
15744 On ch=2 n=e5 v=30
15838 On ch=2 n=a4 v=0
15838 On ch=2 n=e5 v=0
15904 On ch=1 n=e6 v=0
15936 On ch=2 n=f3 v=30
16032 On ch=2 n=f3 v=0
16032 On ch=1 n=f6 v=50
16032 On ch=2 n=d4 v=30
16080 On ch=1 n=c6 v=0
16096 On ch=2 n=d4 v=0
16096 On ch=2 n=d4 v=30
16160 On ch=2 n=d4 v=0
16160 On ch=2 n=a4 v=30
16224 On ch=2 n=a4 v=0
16224 On ch=1 n=a#5 v=46
16224 On ch=2 n=d5 v=30
16224 On ch=2 n=d5 v=30
16288 On ch=2 n=d5 v=0
16288 On ch=2 n=d4 v=30
16352 On ch=1 n=a#5 v=0
16352 On ch=2 n=d4 v=0
16352 On ch=1 n=a5 v=44
16352 On ch=2 n=d#4 v=30
16352 On ch=2 n=c#5 v=30
16384 On ch=2 n=d5 v=0
16414 On ch=2 n=d#4 v=0
16414 On ch=2 n=c#5 v=0
16416 On ch=1 n=a5 v=0
16416 Par ch=2 c=64 v=0
16416 Par ch=2 c=64 v=127
16416 On ch=1 n=a5 v=43
16416 On ch=2 n=e4 v=30
16416 On ch=2 n=c#5 v=30
16478 On ch=2 n=e4 v=0
16478 On ch=2 n=c#5 v=0
16544 On ch=2 n=f3 v=30
16576 On ch=1 n=f6 v=0
16608 On ch=2 n=f3 v=0
16608 On ch=1 n=g6 v=39
16608 On ch=2 n=e4 v=30
16672 On ch=2 n=e4 v=0
16672 On ch=2 n=c5 v=30
16736 On ch=2 n=c5 v=0
16736 On ch=2 n=c#5 v=30
16752 On ch=1 n=a5 v=0
16800 On ch=2 n=c#5 v=0
16800 On ch=1 n=f6 v=35
16800 On ch=2 n=c#5 v=30
16800 On ch=2 n=a5 v=30
16864 On ch=2 n=a4 v=30
16928 On ch=1 n=f6 v=0
16928 On ch=1 n=e6 v=32
16928 On ch=2 n=g5 v=30
16960 On ch=2 n=a5 v=0
16990 On ch=2 n=c#5 v=0
16990 On ch=2 n=g5 v=0
16992 On ch=1 n=e6 v=0
16992 Par ch=2 c=64 v=0
16992 Par ch=2 c=64 v=127
16992 On ch=1 n=a5 v=30
16992 On ch=1 n=e6 v=30
16992 On ch=2 n=c5 v=30
16992 On ch=2 n=g5 v=30
17054 On ch=2 n=a4 v=0
17054 On ch=2 n=c5 v=0
17054 On ch=2 n=g5 v=0
17120 On ch=2 n=f3 v=30
17152 On ch=1 n=g6 v=0
17184 On ch=2 n=f3 v=0
17184 On ch=1 n=a6 v=30
17184 On ch=2 n=c4 v=30
17248 On ch=2 n=c4 v=0
17248 On ch=2 n=c4 v=34
17312 On ch=2 n=c4 v=0
17312 On ch=2 n=a4 v=38
17328 On ch=1 n=a5 v=0
17328 On ch=1 n=e6 v=0
17376 On ch=2 n=a4 v=0
17376 On ch=1 n=d6 v=50
17376 On ch=2 n=f5 v=42
17376 On ch=2 n=f5 v=42
17440 On ch=2 n=f5 v=0
17440 On ch=2 n=a4 v=46
17504 On ch=1 n=d6 v=0
17504 On ch=1 n=c6 v=64
17504 On ch=2 n=e5 v=50
17504 On ch=2 n=e5 v=50
17536 On ch=2 n=f5 v=0
17566 On ch=2 n=e5 v=0
17568 On ch=1 n=c6 v=0
17568 Par ch=2 c=64 v=0
17568 Par ch=2 c=64 v=127
17568 On ch=1 n=c6 v=71
17568 On ch=2 n=e5 v=54
17598 On ch=2 n=e5 v=0
17630 On ch=2 n=a4 v=0
17630 On ch=2 n=e5 v=0
17632 On ch=2 n=g4 v=58
17664 On ch=1 n=a6 v=0
17664 On ch=1 n=a#6 v=81
17696 On ch=2 n=g4 v=0
17696 On ch=2 n=f4 v=62
17760 On ch=1 n=a#6 v=0
17760 On ch=1 n=c7 v=92
17824 On ch=2 n=f4 v=0
17824 On ch=2 n=g4 v=70
17888 On ch=2 n=g4 v=0
17888 On ch=2 n=g#4 v=74
17952 On ch=2 n=g#4 v=0
17952 On ch=2 n=a4 v=78
17952 On ch=2 n=d#5 v=78
18016 On ch=2 n=a4 v=0
18016 On ch=2 n=a#4 v=82
18046 On ch=1 n=c6 v=0
18048 On ch=1 n=a#5 v=60
18080 On ch=2 n=a#4 v=0
18080 On ch=2 n=c5 v=87
18112 On ch=2 n=d#5 v=0
18142 On ch=1 n=a#5 v=0
18144 On ch=2 n=c5 v=0
18144 Par ch=2 c=64 v=0
18144 Par ch=2 c=64 v=127
18144 On ch=1 n=a#5 v=60
18144 On ch=2 n=d5 v=92
18144 On ch=2 n=d5 v=92
18208 On ch=2 n=d5 v=0
18208 On ch=2 n=c5 v=92
18238 On ch=1 n=c7 v=0
18240 On ch=1 n=c6 v=92
18272 On ch=2 n=c5 v=0
18272 On ch=2 n=f#4 v=92
18336 On ch=1 n=c6 v=0
18336 On ch=2 n=f#4 v=0
18336 On ch=1 n=d6 v=92
18336 On ch=2 n=d4 v=92
18400 On ch=2 n=d4 v=0
18400 On ch=2 n=d3 v=92
18432 On ch=1 n=d6 v=0
18432 On ch=1 n=e6 v=92
18464 On ch=2 n=d3 v=0
18480 On ch=1 n=a#5 v=0
18480 On ch=2 n=d5 v=0
18528 On ch=1 n=e6 v=0
18528 On ch=1 n=a5 v=92
18528 On ch=1 n=f#6 v=92
18528 On ch=2 n=c5 v=92
18528 On ch=2 n=c5 v=92
18592 On ch=2 n=c5 v=0
18592 On ch=2 n=d#4 v=92
18624 On ch=1 n=f#6 v=0
18624 On ch=1 n=g6 v=92
18656 On ch=2 n=d#4 v=0
18656 On ch=2 n=d4 v=92
18688 On ch=2 n=c5 v=0
18720 On ch=1 n=g6 v=0
18720 Par ch=2 c=64 v=0
18720 Par ch=2 c=64 v=127
18720 On ch=1 n=a6 v=92
18720 On ch=2 n=g3 v=92
18720 On ch=2 n=a#4 v=92
18816 On ch=1 n=a6 v=0
18816 On ch=1 n=a#6 v=92
18846 On ch=2 n=g3 v=0
18846 On ch=2 n=d4 v=0
18846 On ch=2 n=a#4 v=0
18848 On ch=2 n=d4 v=92
18880 On ch=1 n=a5 v=0
18912 On ch=2 n=d4 v=0
18912 On ch=1 n=a5 v=92
18912 On ch=2 n=c#5 v=92
18912 On ch=2 n=c#5 v=92
18976 On ch=2 n=c#5 v=0
18976 On ch=2 n=a#4 v=92
19040 On ch=2 n=a#4 v=0
19040 On ch=2 n=a4 v=92
19072 On ch=2 n=c#5 v=0
19104 On ch=2 n=a4 v=0
19104 On ch=2 n=d5 v=92
19104 On ch=2 n=d5 v=92
19168 On ch=2 n=d5 v=0
19168 On ch=2 n=a#4 v=87
19200 On ch=1 n=a5 v=0
19200 On ch=1 n=g5 v=75
19232 On ch=2 n=a#4 v=0
19232 On ch=2 n=d4 v=81
19264 On ch=2 n=d5 v=0
19294 On ch=1 n=g5 v=0
19294 On ch=2 n=d4 v=0
19296 Par ch=2 c=64 v=0
19296 Par ch=2 c=64 v=127
19296 On ch=1 n=g5 v=75
19296 On ch=2 n=f5 v=75
19296 On ch=2 n=f5 v=75
19360 On ch=2 n=f5 v=0
19360 On ch=2 n=a#4 v=76
19390 On ch=1 n=a#6 v=0
19392 On ch=1 n=a5 v=75
19424 On ch=2 n=a#4 v=0
19424 On ch=2 n=g4 v=78
19456 On ch=2 n=f5 v=0
19488 On ch=1 n=a5 v=0
19488 On ch=2 n=g4 v=0
19488 On ch=1 n=a#5 v=78
19488 On ch=2 n=e5 v=80
19488 On ch=2 n=e5 v=80
19552 On ch=2 n=e5 v=0
19552 On ch=2 n=g4 v=82
19584 On ch=1 n=a#5 v=0
19584 On ch=1 n=c6 v=81
19616 On ch=2 n=g4 v=0
19616 On ch=2 n=c4 v=84
19648 On ch=2 n=e5 v=0
19680 On ch=1 n=c6 v=0
19680 On ch=2 n=c4 v=0
19680 On ch=1 n=d6 v=84
19680 On ch=2 n=a#4 v=86
19680 On ch=2 n=a#4 v=86
19744 On ch=1 n=d6 v=0
19744 On ch=2 n=a#4 v=0
19744 On ch=1 n=e6 v=86
19744 On ch=2 n=c4 v=88
19808 On ch=1 n=e6 v=0
19808 On ch=1 n=f6 v=89
19808 On ch=2 n=f3 v=90
19840 On ch=2 n=a#4 v=0
19872 On ch=1 n=f6 v=0
19872 Par ch=2 c=64 v=0
19872 Par ch=2 c=64 v=127
19872 On ch=1 n=g6 v=92
19872 On ch=2 n=a4 v=92
19968 On ch=1 n=g6 v=0
19968 On ch=1 n=a6 v=92
19998 On ch=2 n=f3 v=0
19998 On ch=2 n=c4 v=0
19998 On ch=2 n=a4 v=0
20000 On ch=2 n=c4 v=92
20032 On ch=1 n=g5 v=0
20064 On ch=2 n=c4 v=0
20064 On ch=1 n=g5 v=92
20064 On ch=2 n=b4 v=92
20064 On ch=2 n=b4 v=92
20128 On ch=2 n=b4 v=0
20128 On ch=2 n=a4 v=92
20192 On ch=2 n=a4 v=0
20192 On ch=2 n=c4 v=92
20224 On ch=2 n=b4 v=0
20256 On ch=2 n=c4 v=0
20256 On ch=2 n=c5 v=92
20256 On ch=2 n=c5 v=92
20320 On ch=2 n=c5 v=0
20320 On ch=2 n=a4 v=92
20352 On ch=1 n=g5 v=0
20352 On ch=1 n=f5 v=92
20384 On ch=2 n=a4 v=0
20384 On ch=2 n=g4 v=92
20416 On ch=2 n=c5 v=0
20446 On ch=1 n=f5 v=0
20446 On ch=2 n=g4 v=0
20448 Par ch=2 c=64 v=0
20448 Par ch=2 c=64 v=127
20448 On ch=1 n=f5 v=92
20448 On ch=2 n=f4 v=92
20448 On ch=2 n=e5 v=92
20574 On ch=2 n=f4 v=0
20574 On ch=2 n=e5 v=0
20576 On ch=2 n=g3 v=92
20608 On ch=1 n=a6 v=0
20640 On ch=2 n=g3 v=0
20640 On ch=1 n=a5 v=92
20640 On ch=1 n=a5 v=92
20640 On ch=2 n=f4 v=92
20704 On ch=1 n=f5 v=0
20704 On ch=2 n=f4 v=0
20704 On ch=2 n=d5 v=92
20704 On ch=2 n=d5 v=92
20736 On ch=1 n=a5 v=0
20736 On ch=1 n=e5 v=92
20768 On ch=2 n=d5 v=0
20768 On ch=2 n=c5 v=92
20768 On ch=2 n=c5 v=92
20798 On ch=2 n=d5 v=0
20800 On ch=1 n=a5 v=0
20832 On ch=1 n=e5 v=0
20832 On ch=2 n=c5 v=0
20832 On ch=1 n=d5 v=92
20832 On ch=2 n=b4 v=92
20832 On ch=2 n=b4 v=92
20862 On ch=2 n=c5 v=0
20896 On ch=2 n=b4 v=0
20896 On ch=2 n=f4 v=92
20926 On ch=2 n=b4 v=0
20928 On ch=1 n=d5 v=0
20928 On ch=1 n=g5 v=92
20928 On ch=1 n=g5 v=92
20960 On ch=2 n=f4 v=0
20960 On ch=2 n=g3 v=92
21022 On ch=1 n=g5 v=0
21022 On ch=2 n=g3 v=0
21024 On ch=1 n=g5 v=0
21024 Par ch=2 c=64 v=0
21024 Par ch=2 c=64 v=127
21024 On ch=1 n=c5 v=92
21024 On ch=1 n=g5 v=92
21024 On ch=2 n=c4 v=92
21024 On ch=2 n=e4 v=92
21088 On ch=1 n=c5 v=0
21088 On ch=2 n=e4 v=0
21088 On ch=1 n=d5 v=90
21088 On ch=2 n=f4 v=89
21152 On ch=1 n=d5 v=0
21152 On ch=2 n=f4 v=0
21152 On ch=1 n=d#5 v=88
21152 On ch=2 n=f#4 v=86
21184 On ch=1 n=g5 v=0
21216 On ch=1 n=d#5 v=0
21216 On ch=2 n=f#4 v=0
21216 On ch=1 n=e5 v=86
21216 On ch=1 n=c6 v=86
21216 On ch=2 n=g4 v=83
21280 On ch=1 n=e5 v=0
21280 On ch=2 n=g4 v=0
21280 On ch=1 n=d#5 v=84
21280 On ch=2 n=f#4 v=80
21344 On ch=1 n=d#5 v=0
21344 On ch=2 n=f#4 v=0
21344 On ch=1 n=e5 v=82
21344 On ch=2 n=g4 v=77
21360 On ch=2 n=c4 v=0
21408 On ch=1 n=c5 v=80
21472 On ch=2 n=g4 v=0
21472 On ch=2 n=b4 v=71
21536 On ch=2 n=b4 v=0
21536 On ch=2 n=a#4 v=68
21550 On ch=1 n=e5 v=0
21552 On ch=1 n=f#5 v=74
21598 On ch=1 n=f#5 v=0
21598 On ch=2 n=a#4 v=0
21600 Par ch=2 c=64 v=0
21600 Par ch=2 c=64 v=127
21600 On ch=1 n=e5 v=72
21600 On ch=1 n=f#5 v=72
21600 On ch=2 n=a#4 v=65
21664 On ch=2 n=a#4 v=0
21664 On ch=2 n=a4 v=62
21728 On ch=2 n=a4 v=0
21728 On ch=2 n=a#4 v=58
21760 On ch=1 n=c6 v=0
21792 On ch=1 n=c6 v=63
21856 On ch=2 n=a#4 v=0
21856 On ch=2 n=c4 v=50
21920 On ch=2 n=a#4 v=46
21936 On ch=1 n=c5 v=0
21984 On ch=1 n=c6 v=0
21984 On ch=1 n=c5 v=54
22048 On ch=2 n=a#4 v=0
22048 On ch=2 n=a#4 v=38
22112 On ch=2 n=a#4 v=0
22112 On ch=2 n=a4 v=34
22128 On ch=1 n=e5 v=0
22128 On ch=1 n=f#5 v=0
22128 On ch=1 n=f5 v=48
22144 On ch=2 n=c4 v=0
22174 On ch=2 n=a4 v=0
22176 On ch=1 n=f5 v=0
22176 Par ch=2 c=64 v=0
22176 Par ch=2 c=64 v=127
22176 On ch=1 n=f5 v=45
22176 On ch=1 n=c6 v=45
22176 On ch=2 n=a4 v=30
22240 On ch=2 n=c4 v=30
22304 On ch=2 n=c4 v=0
22304 On ch=2 n=f3 v=30
22336 On ch=1 n=c6 v=0
22368 On ch=1 n=c6 v=45
22432 On ch=2 n=f3 v=0
22432 On ch=2 n=c4 v=30
22496 On ch=2 n=a4 v=30
22512 On ch=1 n=c5 v=0
22528 On ch=2 n=a4 v=0
22560 On ch=2 n=a4 v=0
22560 On ch=1 n=c5 v=45
22560 On ch=2 n=a4 v=30
22624 On ch=2 n=a4 v=0
22624 On ch=2 n=g#4 v=30
22688 On ch=2 n=g#4 v=0
22688 On ch=2 n=g4 v=30
22702 On ch=1 n=f5 v=0
22704 On ch=1 n=e5 v=45
22752 On ch=1 n=e5 v=0
22752 On ch=2 n=g4 v=0
22752 Par ch=2 c=64 v=0
22752 Par ch=2 c=64 v=127
22752 On ch=1 n=e5 v=45
22752 On ch=2 n=g#4 v=30
22816 On ch=2 n=c4 v=0
22816 On ch=2 n=c4 v=30
22880 On ch=2 n=c4 v=0
22880 On ch=2 n=f3 v=30
22912 On ch=1 n=c6 v=0
22944 On ch=2 n=f3 v=0
22944 On ch=1 n=c6 v=45
22944 On ch=2 n=f3 v=30
23008 On ch=2 n=f3 v=0
23008 On ch=2 n=c4 v=30
23072 On ch=2 n=g#4 v=30
23088 On ch=1 n=c5 v=0
23104 On ch=2 n=g#4 v=0
23136 On ch=2 n=g#4 v=0
23136 On ch=1 n=c5 v=45
23136 On ch=2 n=a4 v=30
23200 On ch=2 n=a4 v=0
23200 On ch=2 n=g#4 v=30
23264 On ch=2 n=g#4 v=0
23264 On ch=2 n=g4 v=30
23278 On ch=1 n=c5 v=0
23278 On ch=1 n=e5 v=0
23280 On ch=1 n=d#5 v=45
23296 On ch=2 n=c4 v=0
23326 On ch=2 n=g4 v=0
23328 On ch=1 n=d#5 v=0
23328 Par ch=2 c=64 v=0
23328 Par ch=2 c=64 v=127
23328 On ch=1 n=c5 v=45
23328 On ch=1 n=d#5 v=45
23328 On ch=2 n=c4 v=30
23328 On ch=2 n=g4 v=30
23392 On ch=2 n=c4 v=0
23392 On ch=2 n=g4 v=0
23392 On ch=2 n=g3 v=30
23456 On ch=2 n=g3 v=0
23456 On ch=2 n=c3 v=30
23488 On ch=1 n=c5 v=0
23488 On ch=1 n=c6 v=0
23520 On ch=1 n=c6 v=43
23584 On ch=2 n=c3 v=0
23584 On ch=2 n=g3 v=30
23648 On ch=2 n=g3 v=0
23648 On ch=1 n=c5 v=42
23648 On ch=2 n=c4 v=30
23712 On ch=2 n=c4 v=0
23712 Par ch=1 c=64 v=127
23712 On ch=2 n=a#4 v=30
23756 Tempo 1250000
23760 Tempo 1250000
23776 On ch=1 n=d#5 v=0
23776 On ch=1 n=d#5 v=40
23800 Tempo 1276595
23808 Tempo 1276595
23840 On ch=1 n=d#5 v=0
23840 On ch=1 n=c5 v=39
23844 Tempo 1304347
23856 Tempo 1304347
23872 On ch=1 n=c5 v=0
23888 Tempo 1333333
23904 On ch=1 n=c5 v=0
23904 Par ch=2 c=64 v=0
23904 Tempo 1333333
23904 Par ch=2 c=64 v=127
23904 On ch=1 n=d#5 v=38
23932 Tempo 1363636
23952 Tempo 1363636
23968 On ch=1 n=c6 v=0
23968 On ch=1 n=c5 v=37
23976 Tempo 1395348
23998 On ch=1 n=d#5 v=0
24000 Tempo 1395348
24020 Tempo 1428571
24032 On ch=1 n=c5 v=0
24032 On ch=1 n=d#5 v=36
24048 Tempo 1428571
24064 Tempo 1463414
24096 On ch=1 n=d#5 v=0
24096 On ch=2 n=a#4 v=0
24096 Tempo 1463414
24096 On ch=1 n=c5 v=35
24096 On ch=2 n=d#4 v=30
24108 Tempo 1500000
24144 Tempo 1500000
24152 Tempo 1538461
24160 On ch=1 n=c5 v=0
24160 On ch=1 n=d#5 v=34
24192 Tempo 1538461
24196 Tempo 1578947
24224 On ch=1 n=d#5 v=0
24224 On ch=1 n=c5 v=33
24240 Tempo 1621621
24240 Tempo 1578947
24284 Tempo 1666666
24288 On ch=2 n=d#4 v=0
24288 On ch=1 n=c5 v=0
24288 Tempo 1621621
24288 On ch=1 n=g4 v=32
24288 On ch=1 n=d#5 v=32
24288 On ch=2 n=a3 v=30
24328 Tempo 1714285
24336 Tempo 1666666
24352 On ch=1 n=g4 v=0
24352 On ch=1 n=d#5 v=0
24352 On ch=1 n=c5 v=31
24372 Tempo 1764705
24384 Tempo 1714285
24416 On ch=1 n=c5 v=0
24416 Tempo 1818181
24416 On ch=1 n=d#5 v=30
24432 Tempo 1764705
24448 On ch=1 n=d#5 v=0
24448 On ch=2 n=a3 v=0
24448 On ch=1 n=d5 v=30
24480 On ch=1 n=d5 v=0
24480 Par ch=1 c=64 v=0
24480 Par ch=2 c=64 v=0
24480 Tempo 1250000
24480 Tempo 1818181
24480 Tempo 1250000
24480 Par ch=2 c=64 v=127
24480 On ch=1 n=f#4 v=30
24480 On ch=1 n=c5 v=30
24480 On ch=1 n=d5 v=30
24480 On ch=2 n=d3 v=30
24494 Tempo 1224489
24494 Tempo 1224489
24509 Tempo 1200000
24509 Tempo 1200000
24524 Tempo 1176470
24524 Tempo 1176470
24528 On ch=2 n=d3 v=0
24528 On ch=2 n=a3 v=30
24539 Tempo 1153846
24539 Tempo 1153846
24554 Tempo 1132075
24554 Tempo 1132075
24569 Tempo 1111111
24569 Tempo 1111111
24576 On ch=2 n=a3 v=0
24576 On ch=2 n=d4 v=30
24584 Tempo 1090909
24584 Tempo 1090909
24599 Tempo 1071428
24599 Tempo 1071428
24614 Tempo 1052631
24614 Tempo 1052631
24624 On ch=2 n=d4 v=0
24624 On ch=2 n=e4 v=30
24629 Tempo 1034482
24629 Tempo 1034482
24640 On ch=1 n=f#4 v=0
24640 On ch=1 n=c5 v=0
24640 On ch=1 n=d5 v=0
24644 Tempo 1016949
24644 Tempo 1016949
24659 Tempo 1000000
24659 Tempo 1000000
24672 On ch=2 n=e4 v=0
24672 TimeSig 5/8 24 8
24672 On ch=2 n=f#4 v=30
24672 On ch=2 n=f#4 v=30
24674 Tempo 983606
24674 Tempo 983606
24689 Tempo 967741
24689 Tempo 967741
24704 Tempo 952380
24704 Tempo 952380
24718 Tempo 937500
24718 Tempo 937500
24720 On ch=2 n=f#4 v=0
24720 On ch=2 n=c5 v=30
24733 Tempo 923076
24733 Tempo 923076
24748 Tempo 909090
24748 Tempo 909090
24763 Tempo 895522
24763 Tempo 895522
24768 On ch=2 n=c5 v=0
24768 On ch=2 n=d5 v=30
24778 Tempo 882352
24778 Tempo 882352
24793 Tempo 869565
24793 Tempo 869565
24808 Tempo 857142
24808 Tempo 857142
24816 On ch=2 n=d5 v=0
24816 On ch=2 n=a#4 v=30
24823 Tempo 845070
24823 Tempo 845070
24832 On ch=2 n=f#4 v=0
24838 Tempo 833333
24838 Tempo 833333
24853 Tempo 821917
24853 Tempo 821917
24864 On ch=2 n=a#4 v=0
24864 On ch=2 n=c5 v=30
24868 Tempo 810810
24868 Tempo 810810
24883 Tempo 800000
24883 Tempo 800000
24898 Tempo 789473
24898 Tempo 789473
24912 On ch=2 n=c5 v=0
24912 On ch=2 n=a4 v=30
24912 On ch=2 n=a4 v=30
24913 Tempo 779220
24913 Tempo 779220
24928 Tempo 769230
24928 Tempo 769230
24942 Tempo 759493
24942 Tempo 759493
24957 Tempo 750000
24957 Tempo 750000
24960 On ch=2 n=a4 v=0
24960 On ch=2 n=c5 v=30
24972 Tempo 740740
24972 Tempo 740740
24987 Tempo 731707
24987 Tempo 731707
25002 Tempo 722891
25002 Tempo 722891
25008 On ch=2 n=c5 v=0
25008 On ch=2 n=f#5 v=30
25017 Tempo 714285
25017 Tempo 714285
25032 Tempo 705882
25032 Tempo 705882
25047 Tempo 697674
25047 Tempo 697674
25056 On ch=2 n=f#5 v=0
25056 On ch=2 n=d5 v=30
25062 Tempo 689655
25062 Tempo 689655
25072 On ch=2 n=a4 v=0
25077 Tempo 681818
25077 Tempo 681818
25092 Tempo 674157
25092 Tempo 674157
25104 On ch=2 n=d5 v=0
25104 On ch=2 n=d#5 v=30
25107 Tempo 666666
25107 Tempo 666666
25122 Tempo 659340
25122 Tempo 659340
25137 Tempo 652173
25137 Tempo 652173
25150 On ch=2 n=d#5 v=0
25152 Par ch=2 c=64 v=0
25152 Tempo 645161
25152 Tempo 645161
25152 Par ch=2 c=64 v=127
25152 On ch=2 n=c5 v=30
25152 On ch=2 n=c5 v=30
25200 On ch=2 n=c5 v=0
25200 On ch=2 n=d5 v=30
25248 On ch=2 n=d5 v=0
25248 On ch=2 n=a5 v=30
25296 On ch=2 n=a5 v=0
25296 On ch=2 n=d5 v=30
25312 On ch=2 n=c5 v=0
25344 On ch=2 n=d5 v=0
25344 On ch=2 n=d#5 v=30
25390 On ch=2 n=d#5 v=0
25392 On ch=2 n=a#4 v=30
25392 On ch=2 n=a#4 v=30
25440 On ch=2 n=a#4 v=0
25440 On ch=2 n=c5 v=30
25488 On ch=2 n=c5 v=0
25488 On ch=2 n=g5 v=30
25536 On ch=2 n=g5 v=0
25536 On ch=2 n=d5 v=30
25552 On ch=2 n=a#4 v=0
25584 On ch=2 n=d5 v=0
25584 On ch=2 n=d#5 v=30
25630 On ch=2 n=d#5 v=0
25632 On ch=1 n=d6 v=75
25632 On ch=2 n=a4 v=30
25632 On ch=2 n=a4 v=30
25680 On ch=2 n=a4 v=0
25680 On ch=2 n=c5 v=30
25728 On ch=2 n=c5 v=0
25728 On ch=2 n=f#5 v=30
25776 On ch=2 n=f#5 v=0
25776 On ch=2 n=d5 v=30
25792 On ch=2 n=a4 v=0
25800 On ch=1 n=d6 v=0
25800 On ch=1 n=c6 v=75
25824 On ch=2 n=d5 v=0
25824 On ch=2 n=d#5 v=30
25870 On ch=1 n=c6 v=0
25870 On ch=2 n=d#5 v=0
25872 Par ch=2 c=64 v=0
25872 Par ch=2 c=64 v=127
25872 On ch=1 n=c6 v=75
25872 On ch=2 n=d4 v=30
25872 On ch=2 n=g4 v=30
25920 On ch=2 n=d4 v=0
25920 On ch=2 n=c5 v=30
25968 On ch=2 n=c5 v=0
25968 On ch=2 n=d#5 v=30
26016 On ch=2 n=d#5 v=0
26016 On ch=2 n=a#4 v=30
26032 On ch=1 n=c6 v=0
26032 On ch=2 n=g4 v=0
26064 On ch=2 n=a#4 v=0
26064 On ch=2 n=c5 v=30
26110 On ch=2 n=c5 v=0
26112 On ch=1 n=d#6 v=75
26112 On ch=2 n=f#4 v=30
26112 On ch=2 n=f#4 v=30
26160 On ch=2 n=f#4 v=0
26160 On ch=2 n=c5 v=30
26208 On ch=2 n=c5 v=0
26208 On ch=2 n=d#5 v=30
26256 On ch=2 n=d#5 v=0
26256 On ch=2 n=a#4 v=30
26272 On ch=2 n=f#4 v=0
26304 On ch=2 n=a#4 v=0
26304 On ch=2 n=c5 v=30
26350 On ch=2 n=c5 v=0
26352 On ch=2 n=a4 v=30
26352 On ch=2 n=a4 v=30
26400 On ch=2 n=a4 v=0
26400 On ch=2 n=c5 v=30
26448 On ch=2 n=c5 v=0
26448 On ch=2 n=f#5 v=30
26496 On ch=2 n=f#5 v=0
26496 On ch=2 n=d5 v=30
26512 On ch=2 n=a4 v=0
26544 On ch=2 n=d5 v=0
26544 On ch=2 n=d#5 v=30
26590 On ch=2 n=d#5 v=0
26592 Par ch=2 c=64 v=0
26592 Par ch=2 c=64 v=127
26592 On ch=2 n=c5 v=30
26592 On ch=2 n=c5 v=30
26640 On ch=2 n=c5 v=0
26640 On ch=2 n=d#5 v=30
26688 On ch=2 n=d#5 v=0
26688 On ch=2 n=a5 v=30
26736 On ch=2 n=a5 v=0
26736 On ch=2 n=d5 v=30
26752 On ch=1 n=e6 v=0
26752 On ch=2 n=c5 v=0
26784 On ch=2 n=d5 v=0
26784 On ch=2 n=d#5 v=30
26830 On ch=2 n=d#5 v=0
26832 On ch=2 n=a#4 v=30
26832 On ch=2 n=a#4 v=30
26880 On ch=2 n=a#4 v=0
26880 On ch=2 n=c5 v=30
26928 On ch=2 n=c5 v=0
26928 On ch=1 n=d6 v=75
26928 On ch=2 n=g5 v=30
26976 On ch=2 n=g5 v=0
26976 On ch=2 n=d5 v=30
26992 On ch=2 n=a#4 v=0
27024 On ch=2 n=d5 v=0
27024 On ch=2 n=d#5 v=30
27070 On ch=2 n=d#5 v=0
27072 On ch=2 n=a4 v=30
27072 On ch=2 n=a4 v=30
27120 On ch=1 n=d6 v=0
27120 On ch=2 n=a4 v=0
27120 On ch=2 n=c5 v=30
27168 On ch=2 n=c5 v=0
27168 On ch=2 n=f#5 v=30
27216 On ch=2 n=f#5 v=0
27216 On ch=1 n=c6 v=75
27216 On ch=2 n=c5 v=30
27232 On ch=2 n=a4 v=0
27264 On ch=2 n=c5 v=0
27264 On ch=2 n=d5 v=30
27310 On ch=1 n=c6 v=0
27310 On ch=2 n=d5 v=0
27312 Par ch=2 c=64 v=0
27312 Tempo 555555
27312 Par ch=2 c=64 v=127
27312 On ch=1 n=c6 v=75
27312 On ch=2 n=d3 v=30
27336 On ch=2 n=d3 v=0
27336 On ch=2 n=g4 v=30
27336 On ch=2 n=g4 v=30
27360 On ch=2 n=g4 v=0
27360 On ch=2 n=b4 v=30
27408 On ch=1 n=c6 v=0
27408 On ch=2 n=b4 v=0
27408 On ch=1 n=b5 v=75
27408 On ch=2 n=f5 v=30
27456 On ch=2 n=f5 v=0
27456 On ch=2 n=c5 v=30
27502 On ch=2 n=g4 v=0
27504 On ch=1 n=b5 v=0
27504 On ch=1 n=c6 v=75
27552 On ch=2 n=c5 v=0
27552 On ch=2 n=d5 v=30
27598 On ch=1 n=c6 v=0
27598 On ch=2 n=d5 v=0
27600 Tempo 645161
27600 On ch=1 n=d6 v=75
27600 On ch=2 n=b4 v=30
27600 On ch=2 n=b4 v=30
27648 On ch=2 n=b4 v=0
27648 On ch=2 n=d5 v=30
27696 On ch=2 n=d5 v=0
27696 On ch=2 n=g5 v=30
27744 On ch=2 n=g5 v=0
27744 On ch=2 n=d#5 v=30
27760 On ch=2 n=b4 v=0
27792 On ch=2 n=d#5 v=0
27792 On ch=2 n=f5 v=30
27838 On ch=2 n=f5 v=0
27840 On ch=2 n=d5 v=30
27840 On ch=2 n=d5 v=30
27888 On ch=2 n=d5 v=0
27888 On ch=2 n=f5 v=30
27936 On ch=2 n=f5 v=0
27936 On ch=2 n=b5 v=30
27984 On ch=2 n=b5 v=0
27984 On ch=2 n=g5 v=30
28000 On ch=2 n=d5 v=0
28032 On ch=2 n=g5 v=0
28032 On ch=2 n=g#5 v=30
28078 On ch=1 n=d6 v=0
28078 On ch=2 n=g#5 v=0
28080 Par ch=2 c=64 v=0
28080 Par ch=2 c=64 v=127
28080 On ch=2 n=f5 v=30
28080 On ch=2 n=f5 v=30
28128 On ch=2 n=f5 v=0
28128 On ch=2 n=g#5 v=30
28176 On ch=2 n=g#5 v=0
28176 On ch=1 n=d6 v=75
28176 On ch=2 n=b5 v=30
28224 On ch=2 n=b5 v=0
28224 On ch=2 n=g5 v=30
28240 On ch=2 n=f5 v=0
28272 On ch=2 n=g5 v=0
28272 On ch=2 n=g#5 v=30
28318 On ch=2 n=g#5 v=0
28320 On ch=1 n=d6 v=0
28320 On ch=1 n=b5 v=75
28320 On ch=2 n=d#5 v=30
28320 On ch=2 n=d#5 v=30
28368 On ch=2 n=d#5 v=0
28368 On ch=2 n=f5 v=30
28416 On ch=2 n=f5 v=0
28416 On ch=2 n=g#5 v=30
28464 On ch=1 n=b5 v=0
28464 On ch=2 n=g#5 v=0
28464 On ch=1 n=c6 v=75
28464 On ch=2 n=g5 v=30
28480 On ch=2 n=d#5 v=0
28512 On ch=2 n=g5 v=0
28512 On ch=2 n=g#5 v=30
28558 On ch=2 n=g#5 v=0
28560 On ch=1 n=c6 v=0
28560 Tempo 555555
28560 On ch=1 n=d6 v=75
28560 On ch=2 n=d5 v=30
28560 On ch=2 n=d5 v=30
28608 On ch=2 n=d5 v=0
28608 On ch=2 n=f5 v=30
28654 On ch=2 n=d5 v=0
28656 On ch=1 n=d6 v=0
28656 On ch=2 n=f5 v=0
28656 On ch=1 n=f6 v=75
28656 On ch=2 n=b5 v=30
28704 On ch=2 n=b5 v=0
28704 On ch=2 n=c5 v=30
28752 On ch=1 n=f6 v=0
28752 On ch=1 n=f#6 v=75
28800 On ch=2 n=c5 v=0
28800 On ch=2 n=d5 v=30
28846 On ch=2 n=d5 v=0
28848 On ch=1 n=f#6 v=0
28848 Par ch=2 c=64 v=0
28848 Tempo 645161
28848 Par ch=2 c=64 v=127
28848 On ch=1 n=g6 v=75
28848 On ch=2 n=d4 v=30
28848 On ch=2 n=b4 v=30
28896 On ch=2 n=d4 v=0
28896 On ch=2 n=d5 v=30
28942 On ch=2 n=b4 v=0
28944 On ch=2 n=d5 v=0
28944 On ch=2 n=g5 v=30
28992 On ch=2 n=g5 v=0
28992 On ch=2 n=g#4 v=30
28992 On ch=2 n=g#4 v=30
29040 On ch=2 n=g#4 v=0
29040 On ch=2 n=c5 v=30
29086 On ch=2 n=g#4 v=0
29086 On ch=2 n=c5 v=0
29088 On ch=1 n=g6 v=0
29088 On ch=1 n=d6 v=75
29088 On ch=2 n=g4 v=30
29088 On ch=2 n=g4 v=30
29136 On ch=2 n=g4 v=0
29136 On ch=2 n=b4 v=30
29184 On ch=2 n=b4 v=0
29184 On ch=2 n=f5 v=30
29232 On ch=2 n=f5 v=0
29232 On ch=2 n=c5 v=30
29248 On ch=2 n=g4 v=0
29280 On ch=2 n=c5 v=0
29280 On ch=2 n=d5 v=30
29326 On ch=2 n=d5 v=0
29328 On ch=2 n=b4 v=30
29328 On ch=2 n=b4 v=30
29376 On ch=2 n=b4 v=0
29376 On ch=2 n=d5 v=30
29424 On ch=2 n=d5 v=0
29424 On ch=2 n=g5 v=30
29472 On ch=2 n=g5 v=0
29472 On ch=2 n=d#5 v=30
29488 On ch=2 n=b4 v=0
29520 On ch=2 n=d#5 v=0
29520 On ch=2 n=f5 v=30
29566 On ch=2 n=f5 v=0
29568 Par ch=2 c=64 v=0
29568 Par ch=2 c=64 v=127
29568 On ch=2 n=d5 v=30
29568 On ch=2 n=d5 v=30
29616 On ch=2 n=d5 v=0
29616 On ch=2 n=f5 v=30
29664 On ch=2 n=f5 v=0
29664 On ch=2 n=b5 v=30
29712 On ch=2 n=b5 v=0
29712 On ch=2 n=g5 v=30
29728 On ch=1 n=d6 v=0
29728 On ch=2 n=d5 v=0
29760 On ch=2 n=g5 v=0
29760 On ch=2 n=g#5 v=30
29806 On ch=2 n=g#5 v=0
29808 On ch=2 n=c5 v=30
29808 On ch=2 n=c5 v=30
29856 On ch=2 n=c5 v=0
29856 On ch=2 n=d#5 v=30
29904 On ch=2 n=d#5 v=0
29904 On ch=1 n=f6 v=75
29904 On ch=2 n=g#5 v=30
29952 On ch=2 n=g#5 v=0
29952 On ch=2 n=d#5 v=30
29968 On ch=2 n=c5 v=0
30000 On ch=2 n=d#5 v=0
30000 On ch=2 n=f5 v=30
30046 On ch=2 n=f5 v=0
30048 On ch=2 n=b4 v=30
30048 On ch=2 n=b4 v=30
30096 On ch=2 n=b4 v=0
30096 On ch=2 n=d5 v=30
30144 On ch=2 n=d5 v=0
30144 On ch=2 n=g5 v=30
30192 On ch=1 n=f6 v=0
30192 On ch=2 n=g5 v=0
30192 On ch=1 n=d6 v=75
30192 On ch=2 n=d5 v=30
30208 On ch=2 n=b4 v=0
30240 On ch=2 n=d5 v=0
30240 On ch=2 n=f5 v=30
30286 On ch=1 n=d6 v=0
30286 On ch=2 n=f5 v=0
30288 Par ch=2 c=64 v=0
30288 Tempo 555555
30288 Par ch=2 c=64 v=127
30288 On ch=1 n=d6 v=75
30288 On ch=2 n=c4 v=30
30288 On ch=2 n=g4 v=30
30336 On ch=2 n=c4 v=0
30336 On ch=2 n=d#5 v=30
30384 On ch=1 n=d6 v=0
30384 On ch=2 n=d#5 v=0
30384 On ch=1 n=c6 v=75
30384 On ch=2 n=g5 v=30
30432 On ch=2 n=g5 v=0
30432 On ch=2 n=d5 v=30
30448 On ch=2 n=g4 v=0
30480 On ch=1 n=c6 v=0
30480 On ch=1 n=d6 v=75
30528 On ch=2 n=d5 v=0
30528 On ch=2 n=d#5 v=30
30574 On ch=1 n=d6 v=0
30574 On ch=2 n=d#5 v=0
30576 Tempo 645161
30576 On ch=1 n=d#6 v=75
30576 On ch=2 n=c5 v=30
30576 On ch=2 n=c5 v=30
30624 On ch=2 n=c5 v=0
30624 On ch=2 n=d#5 v=30
30672 On ch=2 n=d#5 v=0
30672 On ch=2 n=g5 v=30
30720 On ch=2 n=g5 v=0
30720 On ch=2 n=g4 v=30
30736 On ch=2 n=c5 v=0
30768 On ch=2 n=g4 v=0
30768 On ch=2 n=c5 v=30
30814 On ch=2 n=c5 v=0
30816 On ch=2 n=d5 v=30
30816 On ch=2 n=d5 v=30
30864 On ch=2 n=d5 v=0
30864 On ch=2 n=d#5 v=30
30912 On ch=2 n=d#5 v=0
30912 On ch=2 n=g5 v=30
30960 On ch=2 n=g5 v=0
30960 On ch=1 n=c6 v=75
30960 On ch=2 n=g4 v=30
30976 On ch=2 n=d5 v=0
31008 On ch=2 n=g4 v=0
31008 On ch=2 n=d5 v=30
31054 On ch=1 n=c6 v=0
31054 On ch=2 n=d5 v=0
31056 Par ch=2 c=64 v=0
31056 Tempo 555555
31056 Par ch=2 c=64 v=127
31056 On ch=1 n=c6 v=75
31056 On ch=2 n=d#5 v=30
31056 On ch=2 n=d#5 v=30
31104 On ch=2 n=d#5 v=0
31104 On ch=2 n=g5 v=30
31152 On ch=1 n=c6 v=0
31152 On ch=2 n=g5 v=0
31152 On ch=1 n=a#5 v=75
31152 On ch=2 n=d#5 v=30
31200 On ch=2 n=d#5 v=0
31200 On ch=2 n=g4 v=30
31216 On ch=2 n=d#5 v=0
31248 On ch=1 n=a#5 v=0
31248 On ch=1 n=c6 v=75
31296 On ch=2 n=g4 v=0
31296 On ch=2 n=d#5 v=30
31342 On ch=1 n=c6 v=0
31342 On ch=2 n=d#5 v=0
31344 Tempo 645161
31344 On ch=1 n=d6 v=75
31344 On ch=2 n=a#4 v=30
31344 On ch=2 n=a#4 v=30
31392 On ch=2 n=a#4 v=0
31392 On ch=2 n=g5 v=30
31440 On ch=2 n=g5 v=0
31440 On ch=2 n=a#4 v=30
31488 On ch=1 n=d6 v=0
31488 On ch=2 n=a#4 v=0
31488 On ch=1 n=a#5 v=75
31488 On ch=2 n=g4 v=30
31504 On ch=2 n=a#4 v=0
31536 On ch=2 n=g4 v=0
31536 On ch=2 n=a#4 v=30
31582 On ch=2 n=a#4 v=0
31584 On ch=1 n=e6 v=0
31584 On ch=1 n=a#5 v=0
31584 Tempo 555555
31584 On ch=1 n=a#5 v=75
31584 On ch=2 n=d5 v=30
31584 On ch=2 n=d5 v=30
31632 On ch=2 n=d5 v=0
31632 On ch=2 n=d#5 v=30
31680 On ch=1 n=a#5 v=0
31680 On ch=2 n=d#5 v=0
31680 On ch=1 n=a5 v=75
31680 On ch=2 n=g4 v=30
31728 On ch=2 n=g4 v=0
31728 On ch=2 n=d5 v=30
31744 On ch=2 n=d5 v=0
31776 On ch=1 n=a5 v=0
31776 On ch=1 n=a#5 v=75
31824 On ch=2 n=d5 v=0
31824 On ch=2 n=d#5 v=30
31870 On ch=1 n=a#5 v=0
31870 On ch=2 n=d#5 v=0
31872 Par ch=2 c=64 v=0
31872 Tempo 645161
31872 Par ch=2 c=64 v=127
31872 On ch=1 n=c6 v=75
31872 On ch=1 n=d#6 v=75
31872 On ch=2 n=f3 v=42
31896 On ch=2 n=f3 v=0
31896 On ch=2 n=c4 v=42
31920 On ch=2 n=c4 v=0
31920 On ch=2 n=a4 v=0
31920 On ch=2 n=a4 v=42
31920 On ch=2 n=c5 v=30
31968 On ch=2 n=c5 v=0
31968 On ch=2 n=d#5 v=30
32016 On ch=2 n=d#5 v=0
32016 On ch=2 n=a4 v=30
32064 On ch=2 n=a4 v=0
32064 On ch=2 n=d#5 v=30
32112 On ch=2 n=d#5 v=0
32112 On ch=2 n=c5 v=30
32112 On ch=2 n=c5 v=30
32160 On ch=2 n=c5 v=0
32160 On ch=2 n=d#5 v=30
32208 On ch=2 n=d#5 v=0
32208 On ch=2 n=c5 v=30
32256 On ch=2 n=c5 v=0
32256 On ch=2 n=a4 v=30
32272 On ch=2 n=c5 v=0
32304 On ch=2 n=a4 v=0
32304 On ch=2 n=d#5 v=30
32352 On ch=2 n=d#5 v=0
32352 On ch=2 n=f#4 v=30
32352 On ch=2 n=f#4 v=30
32400 On ch=2 n=f#4 v=0
32400 On ch=2 n=a#4 v=30
32448 On ch=2 n=a#4 v=0
32448 On ch=2 n=d#5 v=30
32496 On ch=2 n=d#5 v=0
32496 On ch=2 n=a#4 v=30
32512 On ch=2 n=f#4 v=0
32544 On ch=2 n=a#4 v=0
32544 On ch=2 n=c5 v=30
32590 On ch=2 n=c5 v=0
32592 Par ch=2 c=64 v=0
32592 Par ch=2 c=64 v=127
32592 On ch=2 n=f4 v=30
32592 On ch=2 n=f4 v=30
32640 On ch=2 n=f4 v=0
32640 On ch=2 n=a4 v=30
32688 On ch=2 n=a4 v=0
32688 On ch=2 n=d#5 v=30
32736 On ch=2 n=d#5 v=0
32736 On ch=2 n=a#4 v=30
32752 On ch=1 n=c6 v=0
32752 On ch=1 n=e6 v=0
32752 On ch=2 n=f4 v=0
32784 On ch=2 n=a#4 v=0
32784 On ch=2 n=c5 v=30
32832 On ch=2 n=c5 v=0
32832 On ch=2 n=a#4 v=30
32832 On ch=2 n=a#4 v=30
32880 On ch=2 n=a#4 v=0
32880 On ch=2 n=d#5 v=30
32926 On ch=2 n=a#4 v=0
32928 On ch=2 n=d#5 v=0
32928 On ch=2 n=f#5 v=30
32976 On ch=2 n=f#5 v=0
32976 On ch=2 n=b4 v=30
32976 On ch=2 n=b4 v=30
33022 On ch=2 n=b4 v=0
33024 On ch=2 n=b4 v=0
33024 On ch=2 n=c5 v=30
33024 On ch=2 n=c5 v=30
33070 On ch=2 n=c5 v=0
33072 On ch=2 n=c5 v=0
33072 On ch=1 n=f6 v=75
33072 On ch=2 n=b4 v=30
33072 On ch=2 n=b4 v=30
33120 On ch=2 n=b4 v=0
33120 On ch=2 n=d#5 v=30
33166 On ch=2 n=b4 v=0
33168 On ch=2 n=d#5 v=0
33168 On ch=2 n=a5 v=30
33216 On ch=2 n=a5 v=0
33216 On ch=2 n=c5 v=30
33216 On ch=2 n=c5 v=30
33240 On ch=1 n=f6 v=0
33240 On ch=1 n=d#6 v=75
33262 On ch=2 n=c5 v=0
33264 On ch=2 n=c5 v=0
33264 On ch=2 n=c#5 v=30
33264 On ch=2 n=c#5 v=30
33310 On ch=2 n=c#5 v=0
33310 On ch=2 n=c#5 v=0
33312 On ch=1 n=d#6 v=0
33312 Par ch=2 c=64 v=0
33312 Par ch=2 c=64 v=127
33312 On ch=1 n=d#6 v=75
33312 On ch=2 n=f3 v=30
33312 On ch=2 n=c5 v=30
33336 On ch=2 n=f3 v=0
33336 On ch=2 n=d#4 v=30
33360 On ch=2 n=d#4 v=0
33360 On ch=2 n=c5 v=0
33360 On ch=2 n=a4 v=30
33360 On ch=2 n=d#5 v=30
33384 On ch=2 n=a4 v=0
33384 On ch=2 n=c5 v=30
33408 On ch=2 n=d#5 v=0
33408 On ch=2 n=a5 v=30
33456 On ch=2 n=a5 v=0
33456 On ch=2 n=c5 v=30
33472 On ch=1 n=d#6 v=0
33502 On ch=2 n=c5 v=0
33504 On ch=2 n=c5 v=0
33504 On ch=2 n=d#5 v=30
33550 On ch=2 n=d#5 v=0
33552 On ch=1 n=f#6 v=75
33552 On ch=2 n=a4 v=30
33552 On ch=2 n=a4 v=30
33600 On ch=2 n=a4 v=0
33600 On ch=2 n=c5 v=30
33648 On ch=2 n=c5 v=0
33648 On ch=2 n=f#5 v=30
33696 On ch=2 n=f#5 v=0
33696 On ch=2 n=c#5 v=30
33712 On ch=2 n=a4 v=0
33744 On ch=2 n=c#5 v=0
33744 On ch=2 n=d#5 v=30
33790 On ch=2 n=d#5 v=0
33792 On ch=2 n=c5 v=30
33792 On ch=2 n=c5 v=30
33840 On ch=2 n=c5 v=0
33840 On ch=2 n=d#5 v=30
33888 On ch=2 n=d#5 v=0
33888 On ch=2 n=a5 v=30
33936 On ch=2 n=a5 v=0
33936 On ch=2 n=f5 v=30
33952 On ch=2 n=c5 v=0
33984 On ch=2 n=f5 v=0
33984 On ch=2 n=f#5 v=30
34030 On ch=2 n=f#5 v=0
34032 Par ch=2 c=64 v=0
34032 Par ch=2 c=64 v=127
34032 On ch=2 n=d#5 v=30
34032 On ch=2 n=d#5 v=30
34080 On ch=2 n=d#5 v=0
34080 On ch=2 n=f#5 v=30
34128 On ch=2 n=f#5 v=0
34128 On ch=2 n=c6 v=30
34176 On ch=2 n=c6 v=0
34176 On ch=2 n=f5 v=30
34192 On ch=2 n=d#5 v=0
34224 On ch=2 n=f5 v=0
34224 On ch=2 n=f#5 v=30
34270 On ch=2 n=f#5 v=0
34272 On ch=2 n=c#5 v=30
34272 On ch=2 n=c#5 v=30
34320 On ch=2 n=c#5 v=0
34320 On ch=2 n=f5 v=30
34336 On ch=1 n=f#6 v=0
34368 On ch=2 n=f5 v=0
34368 On ch=1 n=f6 v=75
34368 On ch=2 n=a#5 v=30
34416 On ch=2 n=a#5 v=0
34416 On ch=2 n=f5 v=30
34432 On ch=2 n=c#5 v=0
34464 On ch=2 n=f5 v=0
34464 On ch=2 n=f#5 v=30
34510 On ch=2 n=f#5 v=0
34512 On ch=2 n=c5 v=30
34512 On ch=2 n=c5 v=30
34560 On ch=2 n=c5 v=0
34560 On ch=2 n=d#5 v=30
34608 On ch=2 n=d#5 v=0
34608 On ch=2 n=a5 v=30
34656 On ch=1 n=f6 v=0
34656 On ch=2 n=a5 v=0
34656 On ch=1 n=d#6 v=75
34656 On ch=2 n=d#5 v=30
34672 On ch=2 n=c5 v=0
34704 On ch=2 n=d#5 v=0
34704 On ch=2 n=f5 v=30
34750 On ch=2 n=f5 v=0
34752 On ch=1 n=d#6 v=0
34752 Par ch=2 c=64 v=0
34752 Par ch=2 c=64 v=127
34752 On ch=1 n=d#6 v=75
34752 On ch=2 n=f4 v=30
34752 On ch=2 n=a#4 v=30
34800 On ch=2 n=f4 v=0
34800 On ch=2 n=d5 v=30
34848 On ch=1 n=d#6 v=0
34848 On ch=2 n=d5 v=0
34848 On ch=1 n=d6 v=75
34848 On ch=2 n=g#5 v=30
34896 On ch=2 n=g#5 v=0
34896 On ch=2 n=d#5 v=30
34912 On ch=2 n=a#4 v=0
34944 On ch=1 n=d6 v=0
34944 On ch=1 n=d#6 v=75
34992 On ch=2 n=d#5 v=0
34992 On ch=2 n=f5 v=30
35038 On ch=2 n=f5 v=0
35040 On ch=1 n=d#6 v=0
35040 On ch=1 n=f6 v=75
35040 On ch=2 n=d5 v=30
35040 On ch=2 n=d5 v=30
35088 On ch=2 n=d5 v=0
35088 On ch=2 n=f5 v=30
35136 On ch=2 n=f5 v=0
35136 On ch=2 n=a#5 v=30
35184 On ch=2 n=a#5 v=0
35184 On ch=2 n=f#5 v=30
35200 On ch=2 n=d5 v=0
35232 On ch=2 n=f#5 v=0
35232 On ch=2 n=g#5 v=30
35278 On ch=2 n=g#5 v=0
35280 On ch=2 n=f5 v=30
35280 On ch=2 n=f5 v=30
35326 On ch=2 n=f5 v=0
35328 On ch=2 n=g#5 v=30
35374 On ch=2 n=g#5 v=0
35376 On ch=2 n=d6 v=30
35422 On ch=2 n=d6 v=0
35424 On ch=2 n=a#5 v=30
35440 On ch=2 n=f5 v=0
35470 On ch=2 n=a#5 v=0
35472 On ch=2 n=b5 v=30
35518 On ch=2 n=b5 v=0
35520 Par ch=2 c=64 v=0
35520 Par ch=2 c=64 v=127
35520 On ch=2 n=g#5 v=30
35520 On ch=2 n=g#5 v=30
35568 On ch=2 n=g#5 v=0
35568 On ch=2 n=b5 v=30
35614 On ch=1 n=f6 v=0
35616 On ch=2 n=b5 v=0
35616 On ch=1 n=f6 v=75
35616 On ch=2 n=d6 v=30
35664 On ch=2 n=d6 v=0
35664 On ch=2 n=a#5 v=30
35680 On ch=2 n=g#5 v=0
35712 On ch=2 n=a#5 v=0
35712 On ch=2 n=b5 v=30
35758 On ch=2 n=b5 v=0
35760 On ch=1 n=f6 v=0
35760 On ch=1 n=d6 v=75
35760 On ch=2 n=f#5 v=30
35760 On ch=2 n=f#5 v=30
35808 On ch=2 n=f#5 v=0
35808 On ch=2 n=g#5 v=30
35856 On ch=2 n=g#5 v=0
35856 On ch=2 n=b5 v=30
35904 On ch=1 n=d6 v=0
35904 On ch=2 n=b5 v=0
35904 On ch=1 n=d#6 v=75
35904 On ch=2 n=a#5 v=30
35920 On ch=2 n=f#5 v=0
35952 On ch=2 n=a#5 v=0
35952 On ch=2 n=b5 v=30
35998 On ch=2 n=b5 v=0
36000 On ch=1 n=d#6 v=0
36000 On ch=1 n=f6 v=75
36000 On ch=2 n=f5 v=30
36000 On ch=2 n=f5 v=30
36048 On ch=1 n=f6 v=0
36048 On ch=2 n=f5 v=0
36048 On ch=1 n=f#6 v=75
36048 On ch=2 n=g#5 v=30
36096 On ch=1 n=f#6 v=0
36096 On ch=2 n=g#5 v=0
36096 On ch=1 n=g#6 v=75
36096 On ch=2 n=d6 v=30
36144 On ch=1 n=g#6 v=0
36144 On ch=2 n=d6 v=0
36144 On ch=1 n=a#6 v=75
36144 On ch=2 n=d#5 v=30
36144 On ch=2 n=d#5 v=30
36160 On ch=2 n=f5 v=0
36192 On ch=1 n=a#6 v=0
36192 On ch=2 n=d#5 v=0
36192 On ch=1 n=g#6 v=75
36192 On ch=2 n=f5 v=30
36238 On ch=2 n=d#5 v=0
36238 On ch=2 n=f5 v=0
36240 On ch=1 n=g#6 v=0
36240 Par ch=2 c=64 v=0
36240 Par ch=2 c=64 v=127
36240 On ch=1 n=a#6 v=75
36240 On ch=2 n=f3 v=30
36240 On ch=2 n=d5 v=30
36264 On ch=2 n=f3 v=0
36264 On ch=2 n=a#3 v=30
36288 On ch=2 n=a#3 v=0
36288 On ch=2 n=d5 v=0
36288 On ch=2 n=g#4 v=30
36288 On ch=2 n=f5 v=30
36312 On ch=2 n=g#4 v=0
36336 On ch=2 n=f5 v=0
36336 On ch=2 n=a#5 v=30
36384 On ch=2 n=a#5 v=0
36384 On ch=2 n=b4 v=30
36384 On ch=2 n=b4 v=30
36432 On ch=2 n=b4 v=0
36432 On ch=2 n=d#5 v=30
36478 On ch=1 n=a#6 v=0
36478 On ch=2 n=b4 v=0
36478 On ch=2 n=d#5 v=0
36480 On ch=1 n=f6 v=75
36480 On ch=2 n=a#4 v=30
36480 On ch=2 n=a#4 v=30
36528 On ch=2 n=a#4 v=0
36528 On ch=2 n=d5 v=30
36576 On ch=2 n=d5 v=0
36576 On ch=2 n=g#5 v=30
36624 On ch=2 n=g#5 v=0
36624 On ch=2 n=d#5 v=30
36640 On ch=2 n=a#4 v=0
36672 On ch=2 n=d#5 v=0
36672 On ch=2 n=f5 v=30
36718 On ch=2 n=f5 v=0
36720 On ch=2 n=d5 v=30
36720 On ch=2 n=d5 v=30
36768 On ch=2 n=d5 v=0
36768 On ch=2 n=f5 v=30
36816 On ch=2 n=f5 v=0
36816 On ch=2 n=a#5 v=30
36864 On ch=2 n=a#5 v=0
36864 On ch=2 n=f#5 v=30
36880 On ch=2 n=d5 v=0
36912 On ch=2 n=f#5 v=0
36912 On ch=2 n=g#5 v=30
36958 On ch=2 n=g#5 v=0
36960 Par ch=2 c=64 v=0
36960 Par ch=2 c=64 v=127
36960 On ch=2 n=f5 v=30
36960 On ch=2 n=f5 v=30
37008 On ch=2 n=f5 v=0
37008 On ch=2 n=g#5 v=30
37056 On ch=2 n=g#5 v=0
37056 On ch=2 n=d6 v=30
37102 On ch=1 n=f6 v=0
37104 On ch=2 n=d6 v=0
37104 On ch=1 n=f6 v=75
37104 On ch=2 n=g#5 v=30
37120 On ch=2 n=f5 v=0
37152 On ch=2 n=g#5 v=0
37152 On ch=2 n=a#5 v=30
37198 On ch=2 n=a#5 v=0
37200 On ch=1 n=f6 v=0
37200 On ch=1 n=f#6 v=75
37200 On ch=2 n=d#5 v=30
37200 On ch=2 n=d#5 v=30
37248 On ch=2 n=d#5 v=0
37248 On ch=2 n=f#5 v=30
37296 On ch=1 n=f#6 v=0
37296 On ch=2 n=f#5 v=0
37296 On ch=1 n=g#6 v=75
37296 On ch=2 n=b5 v=30
37344 On ch=2 n=b5 v=0
37344 On ch=2 n=f#5 v=30
37360 On ch=2 n=d#5 v=0
37392 On ch=2 n=f#5 v=0
37392 On ch=2 n=g#5 v=30
37438 On ch=2 n=g#5 v=0
37440 On ch=2 n=d5 v=30
37440 On ch=2 n=d5 v=30
37488 On ch=2 n=d5 v=0
37488 On ch=2 n=f5 v=30
37534 On ch=1 n=g#6 v=0
37536 On ch=2 n=f5 v=0
37536 On ch=1 n=f6 v=75
37536 On ch=2 n=a#5 v=30
37584 On ch=2 n=a#5 v=0
37584 On ch=2 n=f5 v=30
37600 On ch=2 n=d5 v=0
37632 On ch=2 n=f5 v=0
37632 On ch=2 n=g#5 v=30
37678 On ch=1 n=f6 v=0
37678 On ch=2 n=g#5 v=0
37680 Par ch=2 c=64 v=0
37680 Tempo 555555
37680 Par ch=2 c=64 v=127
37680 On ch=1 n=f6 v=75
37680 On ch=2 n=d#3 v=30
37704 On ch=2 n=d#3 v=0
37704 On ch=2 n=a#4 v=30
37704 On ch=2 n=a#4 v=30
37728 On ch=2 n=a#4 v=0
37728 On ch=2 n=d#5 v=30
37776 On ch=1 n=f6 v=0
37776 On ch=2 n=d#5 v=0
37776 On ch=1 n=d#6 v=75
37776 On ch=2 n=f#5 v=30
37824 On ch=2 n=f#5 v=0
37824 On ch=2 n=a#5 v=30
37870 On ch=2 n=a#4 v=0
37872 On ch=1 n=d#6 v=0
37872 On ch=1 n=f6 v=75
37920 On ch=2 n=a#5 v=0
37920 On ch=2 n=a#4 v=30
37966 On ch=2 n=a#4 v=0
37968 On ch=1 n=f6 v=0
37968 Tempo 645161
37968 On ch=1 n=f#6 v=75
37968 On ch=2 n=d#5 v=30
37968 On ch=2 n=d#5 v=30
38016 On ch=2 n=d#5 v=0
38016 On ch=2 n=f#5 v=30
38064 On ch=2 n=f#5 v=0
38064 On ch=2 n=a#5 v=30
38112 On ch=2 n=a#5 v=0
38112 On ch=2 n=a#4 v=30
38128 On ch=2 n=d#5 v=0
38160 On ch=2 n=a#4 v=0
38160 On ch=2 n=d#5 v=30
38206 On ch=2 n=d#5 v=0
38208 On ch=2 n=f5 v=30
38208 On ch=2 n=f5 v=30
38256 On ch=2 n=f5 v=0
38256 On ch=2 n=f#5 v=30
38304 On ch=1 n=f#6 v=0
38304 On ch=2 n=f#5 v=0
38304 On ch=2 n=a#5 v=30
38352 On ch=2 n=a#5 v=0
38352 On ch=1 n=d#6 v=75
38352 On ch=2 n=a#4 v=30
38368 On ch=2 n=f5 v=0
38400 On ch=2 n=a#4 v=0
38400 On ch=2 n=f5 v=30
38446 On ch=2 n=f5 v=0
38448 On ch=1 n=d#6 v=0
38448 Par ch=2 c=64 v=0
38448 Tempo 555555
38448 Par ch=2 c=64 v=127
38448 On ch=1 n=d#6 v=75
38448 On ch=2 n=f#5 v=30
38448 On ch=2 n=f#5 v=30
38496 On ch=2 n=f#5 v=0
38496 On ch=2 n=a#5 v=30
38544 On ch=1 n=d#6 v=0
38544 On ch=2 n=a#5 v=0
38544 On ch=1 n=c#6 v=75
38544 On ch=2 n=f#5 v=30
38592 On ch=2 n=f#5 v=0
38592 On ch=2 n=a#4 v=30
38608 On ch=2 n=f#5 v=0
38640 On ch=1 n=c#6 v=0
38640 On ch=1 n=d#6 v=75
38688 On ch=2 n=a#4 v=0
38688 On ch=2 n=f#5 v=30
38734 On ch=2 n=f#5 v=0
38736 On ch=1 n=d#6 v=0
38736 Tempo 645161
38736 On ch=1 n=f6 v=75
38736 On ch=2 n=c#5 v=30
38736 On ch=2 n=c#5 v=30
38784 On ch=2 n=c#5 v=0
38784 On ch=2 n=a#5 v=30
38832 On ch=2 n=a#5 v=0
38832 On ch=2 n=c#5 v=30
38880 On ch=2 n=c#5 v=0
38880 On ch=2 n=a#4 v=30
38896 On ch=2 n=c#5 v=0
38928 On ch=1 n=f6 v=0
38928 On ch=1 n=c#6 v=75
38976 On ch=2 n=a#4 v=0
38976 On ch=2 n=c#5 v=30
39022 On ch=2 n=c#5 v=0
39024 On ch=1 n=c#6 v=0
39024 Tempo 555555
39024 On ch=1 n=c#6 v=75
39024 On ch=2 n=f5 v=30
39024 On ch=2 n=f5 v=30
39072 On ch=2 n=f5 v=0
39072 On ch=2 n=f#5 v=30
39120 On ch=1 n=c#6 v=0
39120 On ch=2 n=f#5 v=0
39120 On ch=1 n=c6 v=75
39120 On ch=2 n=a#4 v=30
39168 On ch=2 n=a#4 v=0
39168 On ch=2 n=f5 v=30
39184 On ch=2 n=f5 v=0
39216 On ch=1 n=c6 v=0
39216 On ch=1 n=c#6 v=75
39264 On ch=2 n=f5 v=0
39264 On ch=2 n=f#5 v=30
39310 On ch=1 n=c#6 v=0
39310 On ch=2 n=f#5 v=0
39312 Par ch=2 c=64 v=0
39312 Tempo 645161
39312 Par ch=2 c=64 v=127
39312 On ch=1 n=d#6 v=75
39312 On ch=1 n=f#6 v=75
39312 On ch=2 n=g#3 v=30
39312 On ch=2 n=d#5 v=30
39336 On ch=2 n=g#3 v=0
39336 On ch=2 n=d#4 v=30
39360 On ch=2 n=d#4 v=0
39360 On ch=2 n=d#5 v=0
39360 On ch=2 n=c5 v=30
39360 On ch=2 n=f#5 v=30
39384 On ch=2 n=c5 v=0
39408 On ch=2 n=f#5 v=0
39408 On ch=2 n=c5 v=30
39456 On ch=2 n=c5 v=0
39456 On ch=2 n=f#5 v=30
39504 On ch=2 n=f#5 v=0
39504 On ch=2 n=d#5 v=30
39504 On ch=2 n=d#5 v=30
39552 On ch=2 n=d#5 v=0
39552 On ch=2 n=f#5 v=30
39600 On ch=2 n=f#5 v=0
39600 On ch=2 n=d#5 v=30
39632 Tempo 638297
39632 Tempo 638297
39648 On ch=2 n=d#5 v=0
39648 On ch=2 n=c5 v=30
39664 On ch=2 n=d#5 v=0
39696 On ch=2 n=c5 v=0
39696 On ch=2 n=f#5 v=30
39744 On ch=2 n=f#5 v=0
39744 On ch=2 n=a4 v=30
39744 On ch=2 n=a4 v=30
39792 On ch=2 n=a4 v=0
39792 On ch=2 n=c#5 v=30
39840 On ch=2 n=c#5 v=0
39840 On ch=2 n=f#5 v=30
39888 On ch=2 n=f#5 v=0
39888 On ch=2 n=c#5 v=30
39904 On ch=2 n=a4 v=0
39936 On ch=2 n=c#5 v=0
39936 On ch=2 n=d#5 v=30
39952 Tempo 631578
39952 Tempo 631578
39982 On ch=2 n=d#5 v=0
39984 Par ch=2 c=64 v=0
39984 Par ch=2 c=64 v=127
39984 On ch=2 n=g#4 v=30
39984 On ch=2 n=g#4 v=30
40032 On ch=2 n=g#4 v=0
40032 On ch=2 n=c5 v=30
40080 On ch=2 n=c5 v=0
40080 On ch=2 n=f#5 v=30
40128 On ch=2 n=f#5 v=0
40128 On ch=2 n=c#5 v=30
40144 On ch=1 n=e6 v=0
40144 On ch=1 n=g6 v=0
40144 On ch=2 n=g#4 v=0
40176 On ch=2 n=c#5 v=0
40176 On ch=2 n=d#5 v=30
40222 On ch=2 n=d#5 v=0
40224 On ch=2 n=c#5 v=30
40224 On ch=2 n=c#5 v=30
40272 On ch=2 n=c#5 v=0
40272 Tempo 625000
40272 Tempo 625000
40272 On ch=2 n=d#5 v=30
40320 On ch=2 n=d#5 v=0
40320 On ch=2 n=a5 v=30
40368 On ch=2 n=a5 v=0
40368 On ch=2 n=d5 v=30
40384 On ch=2 n=c#5 v=0
40416 On ch=2 n=d5 v=0
40416 On ch=2 n=d#5 v=30
40462 On ch=2 n=d#5 v=0
40464 On ch=1 n=g#6 v=75
40464 On ch=2 n=d5 v=30
40464 On ch=2 n=d5 v=30
40512 On ch=2 n=d5 v=0
40512 On ch=2 n=f#5 v=30
40560 On ch=2 n=f#5 v=0
40560 On ch=2 n=c6 v=30
40592 Tempo 618556
40592 Tempo 618556
40608 On ch=2 n=c6 v=0
40608 On ch=2 n=d#5 v=30
40624 On ch=2 n=d5 v=0
40656 On ch=1 n=g#6 v=0
40656 On ch=1 n=f#6 v=75
40704 On ch=2 n=d#5 v=0
40704 On ch=2 n=e5 v=30
40750 On ch=2 n=e5 v=0
40752 On ch=1 n=f#6 v=0
40752 Par ch=2 c=64 v=0
40752 Par ch=2 c=64 v=127
40752 On ch=1 n=f#6 v=75
40752 On ch=2 n=g#3 v=30
40752 On ch=2 n=d#5 v=30
40776 On ch=2 n=g#3 v=0
40776 On ch=2 n=d#5 v=0
40776 On ch=2 n=f#4 v=30
40776 On ch=2 n=c5 v=30
40800 On ch=2 n=f#4 v=0
40800 On ch=2 n=c5 v=0
40800 On ch=2 n=c5 v=30
40800 On ch=2 n=f#4 v=30
40824 On ch=2 n=c5 v=0
40824 On ch=2 n=f#4 v=0
40824 On ch=2 n=c5 v=30
40848 On ch=2 n=c5 v=0
40848 On ch=2 n=d#5 v=30
40878 On ch=1 n=f#6 v=0
40880 On ch=2 n=d#5 v=0
40880 On ch=1 n=a6 v=76
40880 On ch=2 n=e5 v=30
40912 On ch=2 n=e5 v=0
40912 Tempo 612244
40912 Tempo 612244
40912 On ch=2 n=f5 v=30
40944 On ch=2 n=f5 v=0
40944 On ch=2 n=f#5 v=30
40944 On ch=2 n=f#5 v=30
40992 On ch=2 n=f#5 v=0
40992 On ch=2 n=d#5 v=31
41040 On ch=2 n=d#5 v=0
41040 On ch=2 n=c5 v=32
41088 On ch=2 n=c5 v=0
41088 On ch=2 n=d#5 v=33
41104 On ch=1 n=a6 v=0
41104 On ch=2 n=f#5 v=0
41136 On ch=2 n=d#5 v=0
41136 On ch=1 n=f#6 v=78
41136 On ch=2 n=f#5 v=34
41168 On ch=2 n=f#5 v=0
41168 On ch=2 n=g5 v=34
41200 On ch=2 n=g5 v=0
41200 On ch=2 n=g#5 v=35
41230 On ch=1 n=f#6 v=0
41230 On ch=2 n=g#5 v=0
41232 Tempo 606060
41232 Tempo 606060
41232 On ch=1 n=f#6 v=79
41232 On ch=2 n=a5 v=35
41232 On ch=2 n=a5 v=35
41256 On ch=2 n=a5 v=0
41256 On ch=2 n=e5 v=35
41280 On ch=2 n=e5 v=0
41280 On ch=2 n=c#5 v=35
41294 On ch=1 n=f#6 v=0
41296 On ch=1 n=e6 v=79
41304 On ch=2 n=c#5 v=0
41304 On ch=2 n=e5 v=35
41328 On ch=2 n=e5 v=0
41328 On ch=2 n=g#5 v=35
41328 On ch=2 n=g#5 v=35
41358 On ch=1 n=e6 v=0
41360 On ch=2 n=g#5 v=0
41360 On ch=1 n=f#6 v=79
41360 On ch=2 n=a5 v=36
41392 On ch=2 n=a5 v=0
41392 On ch=2 n=a5 v=0
41392 On ch=2 n=a#5 v=37
41422 On ch=1 n=f#6 v=0
41422 On ch=2 n=g#5 v=0
41422 On ch=2 n=a#5 v=0
41424 Par ch=2 c=64 v=0
41424 Par ch=2 c=64 v=127
41424 On ch=1 n=b5 v=79
41424 On ch=1 n=d6 v=79
41424 On ch=2 n=d#5 v=38
41424 On ch=2 n=g#5 v=38
41456 On ch=1 n=b5 v=0
41456 On ch=1 n=g#5 v=79
41488 On ch=1 n=g#5 v=0
41488 On ch=1 n=d#5 v=79
41520 On ch=1 n=d#5 v=0
41520 On ch=1 n=g#5 v=79
41550 On ch=2 n=d#5 v=0
41550 On ch=2 n=g#5 v=0
41552 On ch=1 n=g#5 v=0
41552 Tempo 600000
41552 Tempo 600000
41552 On ch=1 n=a5 v=79
41552 On ch=2 n=g#4 v=42
41584 On ch=1 n=a5 v=0
41584 On ch=1 n=a#5 v=79
41614 On ch=2 n=g#4 v=0
41616 On ch=1 n=a#5 v=0
41616 On ch=1 n=c6 v=79
41616 On ch=2 n=d#6 v=44
41648 On ch=1 n=c6 v=0
41648 On ch=1 n=c6 v=79
41680 On ch=1 n=c6 v=0
41680 On ch=1 n=g#5 v=79
41712 On ch=1 n=g#5 v=0
41712 On ch=1 n=d#6 v=79
41744 On ch=1 n=d#6 v=0
41744 On ch=1 n=f#6 v=79
41760 On ch=1 n=d6 v=0
41776 On ch=1 n=f#6 v=0
41776 On ch=1 n=g6 v=79
41808 On ch=1 n=g6 v=0
41808 On ch=1 n=g#6 v=79
41840 On ch=2 n=g#3 v=51
41872 On ch=2 n=g#3 v=0
41872 Tempo 594059
41872 Tempo 594059
41872 On ch=2 n=d#4 v=52
41904 On ch=2 n=d#4 v=0
41904 On ch=2 n=f4 v=53
41934 On ch=1 n=g#6 v=0
41936 On ch=2 n=f4 v=0
41936 On ch=1 n=f#6 v=81
41936 On ch=2 n=c5 v=54
41952 On ch=2 n=d#6 v=0
41968 On ch=2 n=c5 v=0
41968 On ch=2 n=c#5 v=55
41998 On ch=1 n=f#6 v=0
41998 On ch=2 n=c#5 v=0
42000 Par ch=2 c=64 v=0
42000 Par ch=2 c=64 v=127
42000 On ch=1 n=f#6 v=82
42000 On ch=2 n=d#5 v=56
42000 On ch=2 n=d#5 v=56
42024 On ch=2 n=d#5 v=0
42024 On ch=2 n=c5 v=56
42048 On ch=2 n=c5 v=0
42048 On ch=2 n=f#4 v=56
42072 On ch=2 n=f#4 v=0
42072 On ch=2 n=c5 v=56
42096 On ch=2 n=c5 v=0
42096 On ch=2 n=d#5 v=56
42126 On ch=1 n=f#6 v=0
42128 On ch=2 n=d#5 v=0
42128 On ch=1 n=a6 v=84
42128 On ch=2 n=e5 v=57
42160 On ch=2 n=d#5 v=0
42160 On ch=2 n=e5 v=0
42160 On ch=2 n=f5 v=58
42192 On ch=2 n=f5 v=0
42192 Tempo 588235
42192 Tempo 588235
42192 On ch=2 n=f#5 v=59
42192 On ch=2 n=f#5 v=59
42216 On ch=2 n=f#5 v=0
42216 On ch=2 n=d#5 v=59
42240 On ch=2 n=d#5 v=0
42240 On ch=2 n=c5 v=59
42264 On ch=2 n=c5 v=0
42264 On ch=2 n=d#5 v=59
42288 On ch=2 n=d#5 v=0
42288 On ch=2 n=f#5 v=59
42318 On ch=1 n=a6 v=0
42320 On ch=2 n=f#5 v=0
42320 On ch=1 n=f#6 v=87
42320 On ch=2 n=g5 v=60
42352 On ch=2 n=f#5 v=0
42352 On ch=2 n=g5 v=0
42352 On ch=2 n=g#5 v=61
42382 On ch=2 n=g#5 v=0
42384 On ch=1 n=f#6 v=0
42384 On ch=1 n=f#6 v=88
42384 On ch=2 n=a5 v=62
42384 On ch=2 n=a5 v=62
42416 On ch=2 n=a5 v=0
42416 On ch=2 n=f#5 v=63
42448 On ch=1 n=f#6 v=0
42448 On ch=2 n=f#5 v=0
42448 On ch=1 n=e6 v=89
42448 On ch=2 n=e5 v=64
42480 On ch=2 n=e5 v=0
42480 On ch=2 n=c5 v=65
42512 On ch=1 n=e6 v=0
42512 On ch=2 n=c5 v=0
42512 Tempo 582524
42512 Tempo 582524
42512 On ch=1 n=g#5 v=90
42512 On ch=1 n=f#6 v=90
42512 On ch=2 n=c#5 v=66
42544 On ch=2 n=a5 v=0
42544 On ch=2 n=c#5 v=0
42544 On ch=2 n=d#5 v=67
42574 On ch=1 n=f#6 v=0
42574 On ch=2 n=d#5 v=0
42576 Par ch=2 c=64 v=0
42576 Par ch=2 c=64 v=127
42576 On ch=1 n=g#5 v=91
42576 On ch=1 n=g#6 v=91
42576 On ch=2 n=e5 v=68
42598 On ch=2 n=e5 v=0
42600 On ch=2 n=b4 v=69
42606 On ch=1 n=g#5 v=0
42622 On ch=2 n=b4 v=0
42624 On ch=2 n=g#3 v=70
42624 On ch=2 n=e4 v=70
42646 On ch=2 n=e4 v=0
42648 On ch=2 n=b4 v=71
42670 On ch=2 n=b4 v=0
42672 On ch=2 n=e5 v=72
42702 On ch=1 n=g#6 v=0
42702 On ch=2 n=e5 v=0
42704 On ch=1 n=e6 v=93
42704 On ch=2 n=f#5 v=73
42718 On ch=2 n=g#3 v=0
42734 On ch=2 n=f#5 v=0
42736 On ch=1 n=g#5 v=0
42736 On ch=2 n=g5 v=74
42766 On ch=1 n=e6 v=0
42766 On ch=2 n=g5 v=0
42768 On ch=1 n=b5 v=94
42768 On ch=1 n=e6 v=94
42768 On ch=2 n=g#5 v=75
42790 On ch=2 n=g#5 v=0
42792 On ch=2 n=e5 v=76
42814 On ch=2 n=e5 v=0
42816 On ch=2 n=b4 v=77
42830 On ch=1 n=e6 v=0
42832 Tempo 576923
42832 Tempo 576923
42832 On ch=1 n=d#6 v=95
42838 On ch=2 n=b4 v=0
42840 On ch=2 n=e5 v=78
42862 On ch=2 n=e5 v=0
42864 On ch=2 n=g#5 v=79
42894 On ch=1 n=d#6 v=0
42894 On ch=2 n=g#5 v=0
42896 On ch=1 n=e6 v=96
42896 On ch=2 n=a5 v=80
42926 On ch=2 n=a5 v=0
42928 On ch=1 n=b5 v=0
42928 On ch=2 n=b5 v=81
42958 On ch=1 n=e6 v=0
42958 On ch=2 n=b5 v=0
42960 On ch=1 n=a5 v=97
42960 On ch=1 n=f#6 v=97
42960 On ch=2 n=c#6 v=82
42960 On ch=2 n=c#6 v=82
42982 On ch=2 n=c#6 v=0
42984 On ch=2 n=f#5 v=83
43006 On ch=2 n=f#5 v=0
43008 On ch=2 n=d#5 v=84
43030 On ch=2 n=d#5 v=0
43032 On ch=2 n=f#5 v=85
43054 On ch=1 n=a5 v=0
43054 On ch=1 n=f#6 v=0
43054 On ch=2 n=f#5 v=0
43056 On ch=1 n=g#5 v=98
43056 On ch=1 n=d#6 v=98
43056 On ch=2 n=c6 v=86
43086 On ch=1 n=g#5 v=0
43088 On ch=1 n=c#6 v=98
43118 On ch=1 n=c#6 v=0
43120 On ch=2 n=c#6 v=0
43120 On ch=1 n=d6 v=98
43150 On ch=1 n=d#6 v=0
43150 On ch=1 n=d6 v=0
43150 On ch=2 n=c6 v=0
43152 Par ch=2 c=64 v=0
43152 Tempo 571428
43152 Tempo 571428
43152 Par ch=2 c=64 v=127
43152 On ch=1 n=d#6 v=98
43152 On ch=1 n=d#6 v=98
43152 On ch=2 n=d#5 v=90
43152 On ch=2 n=c6 v=90
43174 On ch=1 n=d#6 v=0
43176 On ch=1 n=g#5 v=98
43198 On ch=1 n=g#5 v=0
43200 On ch=1 n=d#5 v=98
43222 On ch=1 n=d#5 v=0
43224 On ch=1 n=g#5 v=98
43246 On ch=1 n=g#5 v=0
43248 On ch=1 n=d#6 v=98
43278 On ch=1 n=d#6 v=0
43278 On ch=2 n=d#5 v=0
43278 On ch=2 n=c6 v=0
43280 On ch=1 n=f#6 v=99
43280 On ch=2 n=g#4 v=96
43310 On ch=1 n=f#6 v=0
43312 On ch=1 n=d#6 v=0
43312 On ch=1 n=g6 v=100
43342 On ch=1 n=g6 v=0
43342 On ch=2 n=g#4 v=0
43344 On ch=1 n=g#6 v=101
43344 On ch=1 n=g#6 v=101
43376 On ch=2 n=c5 v=100
43406 On ch=1 n=g#6 v=0
43406 On ch=2 n=c5 v=0
43408 On ch=1 n=g#5 v=103
43408 On ch=2 n=f#4 v=101
43438 On ch=2 n=f#4 v=0
43440 On ch=2 n=e4 v=102
43470 On ch=1 n=g#5 v=0
43470 On ch=2 n=e4 v=0
43472 Tempo 566037
43472 Tempo 566037
43472 On ch=1 n=a#5 v=105
43472 On ch=2 n=d#4 v=104
43502 On ch=2 n=d#4 v=0
43504 On ch=2 n=g#3 v=106
43534 On ch=1 n=a#5 v=0
43534 On ch=2 n=g#3 v=0
43536 Par ch=2 c=64 v=0
43536 TimeSig 3/4 24 8
43536 Par ch=2 c=64 v=127
43536 On ch=1 n=g#5 v=108
43536 On ch=1 n=c6 v=108
43536 On ch=2 n=g#2 v=108
43566 On ch=2 n=g#2 v=0
43568 On ch=2 n=g#3 v=108
43598 On ch=1 n=g6 v=0
43598 On ch=2 n=g#3 v=0
43600 On ch=1 n=c#6 v=108
43600 On ch=1 n=f#6 v=108
43630 On ch=1 n=g#5 v=0
43630 On ch=1 n=c6 v=0
43632 On ch=2 n=d#4 v=108
43662 On ch=1 n=f#6 v=0
43662 On ch=2 n=d#4 v=0
43664 On ch=1 n=d#6 v=108
43664 On ch=1 n=g#6 v=108
43664 On ch=2 n=f#4 v=108
43694 On ch=1 n=c#6 v=0
43694 On ch=2 n=f#4 v=0
43696 On ch=2 n=c5 v=108
43726 On ch=1 n=g#6 v=0
43726 On ch=2 n=c5 v=0
43728 On ch=1 n=e6 v=108
43728 On ch=1 n=a6 v=108
43728 On ch=2 n=c#5 v=108
43728 On ch=2 n=c#5 v=108
43758 On ch=1 n=d#6 v=0
43758 On ch=2 n=c#5 v=0
43760 On ch=2 n=e4 v=108
43790 On ch=1 n=e6 v=0
43790 On ch=2 n=e4 v=0
43792 Tempo 560747
43792 Tempo 560747
43792 On ch=1 n=d#6 v=108
43792 On ch=2 n=g#3 v=108
43822 On ch=2 n=g#3 v=0
43824 On ch=2 n=e4 v=108
43854 On ch=1 n=d#6 v=0
43854 On ch=2 n=e4 v=0
43856 On ch=1 n=e6 v=108
43856 On ch=2 n=g4 v=108
43886 On ch=2 n=g4 v=0
43888 On ch=2 n=c#5 v=0
43888 On ch=2 n=c#5 v=108
43918 On ch=1 n=e6 v=0
43918 On ch=2 n=c#5 v=0
43920 On ch=1 n=f#5 v=108
43920 On ch=1 n=f#6 v=108
43920 On ch=2 n=d#5 v=108
43920 On ch=2 n=d#5 v=108
43950 On ch=2 n=d#5 v=0
43952 On ch=2 n=g#3 v=108
43982 On ch=1 n=a6 v=0
43982 On ch=2 n=g#3 v=0
43984 On ch=1 n=c6 v=108
43984 On ch=1 n=g#6 v=108
43984 On ch=2 n=d#4 v=108
44014 On ch=1 n=f#5 v=0
44014 On ch=1 n=f#6 v=0
44014 On ch=2 n=d#4 v=0
44016 On ch=2 n=f#4 v=108
44046 On ch=1 n=g#6 v=0
44046 On ch=2 n=f#4 v=0
44048 On ch=1 n=f#5 v=108
44048 On ch=1 n=c#6 v=108
44048 On ch=1 n=a6 v=108
44048 On ch=2 n=d#5 v=108
44078 On ch=1 n=c6 v=0
44078 On ch=2 n=d#5 v=0
44080 On ch=2 n=d#5 v=0
44080 On ch=2 n=f5 v=108
44110 On ch=1 n=a6 v=0
44110 On ch=2 n=f5 v=0
44112 Par ch=2 c=64 v=0
44112 Tempo 555555
44112 Tempo 555555
44112 Par ch=2 c=64 v=127
44112 On ch=1 n=c6 v=108
44112 On ch=1 n=d6 v=108
44112 On ch=1 n=a6 v=108
44112 On ch=2 n=f5 v=108
44112 On ch=2 n=f5 v=108
44142 On ch=1 n=f#5 v=0
44142 On ch=1 n=c#6 v=0
44142 On ch=2 n=f5 v=0
44144 On ch=2 n=d5 v=108
44174 On ch=1 n=a6 v=0
44174 On ch=2 n=d5 v=0
44176 On ch=1 n=d#6 v=108
44176 On ch=1 n=g#6 v=108
44176 On ch=2 n=a#4 v=108
44206 On ch=1 n=c6 v=0
44206 On ch=1 n=d6 v=0
44206 On ch=2 n=a#4 v=0
44208 On ch=2 n=d5 v=108
44238 On ch=1 n=g#6 v=0
44238 On ch=2 n=d5 v=0
44240 On ch=1 n=f6 v=108
44240 On ch=1 n=a6 v=108
44240 On ch=2 n=a#4 v=108
44270 On ch=1 n=d#6 v=0
44270 On ch=2 n=a#4 v=0
44272 On ch=2 n=f5 v=0
44272 On ch=2 n=f4 v=108
44302 On ch=1 n=a6 v=0
44302 On ch=2 n=f4 v=0
44304 On ch=1 n=g5 v=108
44304 On ch=1 n=f#6 v=108
44304 On ch=1 n=a#6 v=108
44304 On ch=2 n=d#5 v=108
44304 On ch=2 n=d#5 v=108
44318 Tempo 560747
44318 Tempo 560747
44333 Tempo 566037
44333 Tempo 566037
44334 On ch=1 n=f6 v=0
44334 On ch=2 n=d#5 v=0
44336 On ch=2 n=a#4 v=108
44348 Tempo 571428
44348 Tempo 571428
44363 Tempo 576923
44363 Tempo 576923
44366 On ch=1 n=f#6 v=0
44366 On ch=2 n=a#4 v=0
44368 On ch=1 n=f6 v=108
44368 On ch=2 n=f4 v=108
44377 Tempo 582524
44377 Tempo 582524
44392 Tempo 588235
44392 Tempo 588235
44398 On ch=2 n=f4 v=0
44400 On ch=2 n=g#3 v=108
44407 Tempo 594059
44407 Tempo 594059
44422 Tempo 600000
44422 Tempo 600000
44430 On ch=1 n=f6 v=0
44430 On ch=2 n=g#3 v=0
44432 On ch=1 n=f#6 v=108
44436 Tempo 606060
44436 Tempo 606060
44451 Tempo 612244
44451 Tempo 612244
44464 On ch=2 n=d#5 v=0
44464 On ch=2 n=f4 v=108
44466 Tempo 618556
44466 Tempo 618556
44481 Tempo 625000
44481 Tempo 625000
44494 On ch=1 n=f#6 v=0
44494 On ch=2 n=f4 v=0
44496 Tempo 631578
44496 Tempo 631578
44496 On ch=1 n=g#6 v=108
44496 On ch=2 n=d5 v=108
44496 On ch=2 n=d5 v=108
44510 Tempo 638297
44510 Tempo 638297
44525 Tempo 645161
44525 Tempo 645161
44526 On ch=2 n=d5 v=0
44528 On ch=2 n=a#4 v=108
44540 Tempo 652173
44540 Tempo 652173
44555 Tempo 659340
44555 Tempo 659340
44558 On ch=1 n=a#6 v=0
44558 On ch=2 n=a#4 v=0
44560 On ch=1 n=a#6 v=108
44560 On ch=2 n=f4 v=108
44569 Tempo 666666
44569 Tempo 666666
44584 Tempo 674157
44584 Tempo 674157
44590 On ch=2 n=f4 v=0
44592 On ch=2 n=a#4 v=108
44599 Tempo 681818
44599 Tempo 681818
44614 Tempo 689655
44614 Tempo 689655
44622 On ch=1 n=a#6 v=0
44622 On ch=2 n=a#4 v=0
44624 On ch=1 n=g#6 v=108
44624 On ch=2 n=d5 v=108
44628 Tempo 697674
44628 Tempo 697674
44643 Tempo 705882
44643 Tempo 705882
44654 On ch=2 n=d5 v=0
44656 On ch=1 n=f#5 v=0
44656 On ch=1 n=g#6 v=0
44656 On ch=2 n=d5 v=0
44656 On ch=2 n=d#5 v=108
44658 Tempo 714285
44658 Tempo 714285
44673 Tempo 722891
44673 Tempo 722891
44686 On ch=1 n=g#6 v=0
44686 On ch=2 n=d#5 v=0
44688 Par ch=2 c=64 v=0
44688 Tempo 731707
44688 Tempo 588235
44688 Tempo 731707
44688 Tempo 588235
44688 Par ch=2 c=64 v=127
44688 On ch=1 n=g#6 v=75
44688 On ch=2 n=f5 v=75
44710 On ch=2 n=f5 v=0
44712 On ch=2 n=d5 v=75
44734 On ch=2 n=d5 v=0
44736 On ch=2 n=a#3 v=75
44736 On ch=2 n=g#4 v=75
44758 On ch=2 n=g#4 v=0
44760 On ch=2 n=d5 v=75
44782 On ch=2 n=d5 v=0
44784 On ch=2 n=f5 v=75
44814 On ch=1 n=g#6 v=0
44814 On ch=2 n=f5 v=0
44816 On ch=1 n=b6 v=76
44816 On ch=2 n=f#5 v=75
44830 On ch=2 n=a#3 v=0
44846 On ch=2 n=f#5 v=0
44848 On ch=2 n=g5 v=75
44878 On ch=2 n=g5 v=0
44880 On ch=2 n=g#5 v=75
44902 On ch=2 n=g#5 v=0
44904 On ch=2 n=f5 v=75
44926 On ch=2 n=f5 v=0
44928 On ch=2 n=d5 v=75
44950 On ch=2 n=d5 v=0
44952 On ch=2 n=f5 v=75
44974 On ch=2 n=f5 v=0
44976 On ch=2 n=g#5 v=75
45006 On ch=1 n=b6 v=0
45006 On ch=2 n=g#5 v=0
45008 On ch=1 n=g#6 v=77
45008 On ch=2 n=a5 v=75
45027 Tempo 582524
45027 Tempo 582524
45038 On ch=2 n=a5 v=0
45040 On ch=2 n=a#5 v=75
45070 On ch=1 n=g#6 v=0
45070 On ch=2 n=a#5 v=0
45072 On ch=1 n=g#6 v=77
45072 On ch=2 n=b5 v=75
45094 On ch=2 n=b5 v=0
45096 On ch=2 n=f#5 v=75
45118 On ch=2 n=f#5 v=0
45120 On ch=2 n=d#5 v=75
45134 On ch=1 n=g#6 v=0
45136 On ch=1 n=f#6 v=77
45142 On ch=2 n=d#5 v=0
45144 On ch=2 n=f#5 v=75
45166 On ch=2 n=f#5 v=0
45168 On ch=2 n=a#5 v=75
45198 On ch=1 n=f#6 v=0
45198 On ch=2 n=a#5 v=0
45200 On ch=1 n=a#6 v=77
45200 On ch=2 n=b5 v=75
45230 On ch=2 n=b5 v=0
45232 On ch=2 n=c6 v=75
45262 On ch=2 n=c6 v=0
45262 On ch=1 n=a#6 v=0
45264 Par ch=2 c=64 v=0
45264 Par ch=2 c=64 v=127
45264 On ch=1 n=f6 v=77
45264 On ch=2 n=f5 v=75
45264 On ch=2 n=a#5 v=75
45264 On ch=2 n=c#6 v=75
45294 On ch=2 n=c#6 v=0
45296 On ch=2 n=a#5 v=75
45326 On ch=2 n=a#5 v=0
45328 On ch=2 n=f5 v=75
45358 On ch=2 n=f5 v=0
45360 On ch=2 n=a#4 v=75
45360 On ch=2 n=a#5 v=75
45366 Tempo 576923
45366 Tempo 576923
45390 On ch=2 n=a#5 v=0
45392 On ch=2 n=b5 v=75
45422 On ch=2 n=b5 v=0
45424 On ch=2 n=f5 v=0
45424 On ch=2 n=a#5 v=0
45424 On ch=2 n=c6 v=75
45454 On ch=2 n=a#4 v=0
45454 On ch=2 n=c6 v=0
45456 On ch=2 n=c#6 v=75
45456 On ch=2 n=f6 v=75
45486 On ch=2 n=c#6 v=0
45488 On ch=2 n=d6 v=75
45518 On ch=2 n=d6 v=0
45520 On ch=2 n=a#5 v=75
45550 On ch=2 n=a#5 v=0
45552 On ch=2 n=f6 v=75
45582 On ch=2 n=f6 v=0
45584 On ch=2 n=g#6 v=75
45600 On ch=1 n=f6 v=0
45614 On ch=2 n=g#6 v=0
45616 On ch=2 n=a6 v=75
45646 On ch=2 n=a6 v=0
45648 On ch=1 n=a#6 v=80
45680 On ch=2 n=a#3 v=75
45705 Tempo 571428
45705 Tempo 571428
45710 On ch=2 n=a#3 v=0
45712 On ch=2 n=f4 v=75
45742 On ch=2 n=f4 v=0
45744 On ch=2 n=g#4 v=75
45774 On ch=1 n=a#6 v=0
45774 On ch=2 n=g#4 v=0
45776 On ch=1 n=g#6 v=81
45776 On ch=2 n=d5 v=75
45792 On ch=2 n=f6 v=0
45806 On ch=2 n=d5 v=0
45808 On ch=2 n=d#5 v=75
45838 On ch=1 n=g#6 v=0
45838 On ch=2 n=d#5 v=0
45840 Par ch=2 c=64 v=127
45840 On ch=1 n=g#6 v=81
45840 On ch=2 n=f5 v=75
45862 On ch=2 n=f5 v=0
45864 On ch=2 n=d5 v=75
45886 On ch=2 n=d5 v=0
45888 On ch=2 n=a#3 v=75
45888 On ch=2 n=g#4 v=75
45910 On ch=2 n=g#4 v=0
45912 On ch=2 n=d5 v=75
45934 On ch=2 n=d5 v=0
45936 On ch=2 n=f5 v=75
45966 On ch=1 n=g#6 v=0
45966 On ch=2 n=f5 v=0
45968 On ch=1 n=b6 v=82
45968 On ch=2 n=f#5 v=75
45982 On ch=2 n=a#3 v=0
45998 On ch=2 n=f#5 v=0
46000 On ch=2 n=g5 v=75
46030 On ch=2 n=g5 v=0
46032 On ch=2 n=g#5 v=75
46044 Tempo 566037
46044 Tempo 566037
46078 On ch=2 n=g#5 v=0
46080 On ch=2 n=f5 v=75
46126 On ch=2 n=f5 v=0
46128 On ch=2 n=d5 v=75
46174 On ch=2 n=d5 v=0
46176 On ch=2 n=f5 v=75
46192 On ch=1 n=b6 v=0
46222 On ch=2 n=f5 v=0
46224 On ch=1 n=g#6 v=83
46224 On ch=2 n=g#5 v=75
46254 On ch=2 n=g#5 v=0
46256 On ch=2 n=a5 v=75
46286 On ch=2 n=a5 v=0
46288 On ch=2 n=a#5 v=75
46318 On ch=1 n=g#6 v=0
46318 On ch=2 n=a#5 v=0
46320 On ch=1 n=g#6 v=83
46320 On ch=2 n=b5 v=75
46350 On ch=2 n=b5 v=0
46352 On ch=2 n=g#5 v=75
46382 On ch=1 n=g#6 v=0
46382 On ch=2 n=g#5 v=0
46384 Tempo 560747
46384 Tempo 560747
46384 On ch=1 n=f#6 v=83
46384 On ch=2 n=f#5 v=75
46414 On ch=2 n=f#5 v=0
46416 On ch=2 n=d5 v=75
46446 On ch=1 n=f#6 v=0
46446 On ch=2 n=d5 v=0
46448 On ch=1 n=a#5 v=83
46448 On ch=1 n=g#6 v=83
46448 On ch=2 n=d#5 v=75
46478 On ch=2 n=d#5 v=0
46480 On ch=2 n=f5 v=75
46510 On ch=1 n=a#5 v=0
46510 On ch=1 n=g#6 v=0
46510 On ch=2 n=f5 v=0
46512 Par ch=2 c=64 v=0
46512 Par ch=2 c=64 v=127
46512 On ch=1 n=a#6 v=83
46512 On ch=2 n=f#5 v=75
46534 On ch=2 n=f#5 v=0
46536 On ch=2 n=c#5 v=75
46558 On ch=2 n=c#5 v=0
46560 On ch=2 n=a#3 v=75
46560 On ch=2 n=f#4 v=75
46582 On ch=2 n=f#4 v=0
46584 On ch=2 n=c#5 v=75
46606 On ch=2 n=c#5 v=0
46608 On ch=2 n=f#5 v=75
46638 On ch=1 n=a#6 v=0
46638 On ch=2 n=f#5 v=0
46640 On ch=1 n=f#6 v=84
46640 On ch=2 n=g#5 v=75
46654 On ch=2 n=a#3 v=0
46670 On ch=2 n=g#5 v=0
46672 On ch=2 n=a5 v=75
46702 On ch=1 n=f#6 v=0
46702 On ch=2 n=a5 v=0
46704 On ch=1 n=c#6 v=84
46704 On ch=1 n=f#6 v=84
46704 On ch=2 n=a#5 v=75
46704 On ch=2 n=a#5 v=75
46723 Tempo 555555
46723 Tempo 555555
46726 On ch=2 n=a#5 v=0
46728 On ch=2 n=f#5 v=75
46750 On ch=2 n=f#5 v=0
46752 On ch=2 n=c#5 v=75
46766 On ch=1 n=f#6 v=0
46768 On ch=1 n=f6 v=84
46774 On ch=2 n=c#5 v=0
46776 On ch=2 n=f#5 v=75
46798 On ch=2 n=f#5 v=0
46800 On ch=2 n=a#5 v=75
46830 On ch=1 n=f6 v=0
46830 On ch=2 n=a#5 v=0
46832 On ch=1 n=f#6 v=84
46832 On ch=2 n=b5 v=75
46862 On ch=2 n=b5 v=0
46864 On ch=1 n=c#6 v=0
46864 On ch=2 n=a#5 v=0
46864 On ch=2 n=c#6 v=75
46894 On ch=1 n=f#6 v=0
46894 On ch=2 n=c#6 v=0
46896 On ch=1 n=b5 v=84
46896 On ch=1 n=g#6 v=84
46896 On ch=2 n=d#6 v=75
46896 On ch=2 n=d#6 v=75
46918 On ch=2 n=d#6 v=0
46920 On ch=2 n=g#5 v=75
46942 On ch=2 n=g#5 v=0
46944 On ch=2 n=f5 v=75
46966 On ch=2 n=f5 v=0
46968 On ch=2 n=g#5 v=75
46990 On ch=1 n=b5 v=0
46990 On ch=1 n=g#6 v=0
46990 On ch=2 n=g#5 v=0
46992 On ch=1 n=a#5 v=85
46992 On ch=1 n=f6 v=85
46992 On ch=2 n=d6 v=75
47022 On ch=1 n=a#5 v=0
47024 On ch=1 n=d#6 v=85
47054 On ch=1 n=d#6 v=0
47056 On ch=2 n=d#6 v=0
47056 On ch=1 n=e6 v=85
47062 Tempo 550458
47062 Tempo 550458
47086 On ch=1 n=f6 v=0
47086 On ch=1 n=e6 v=0
47086 On ch=2 n=d6 v=0
47088 Par ch=2 c=64 v=0
47088 Par ch=2 c=64 v=127
47088 On ch=1 n=f6 v=85
47088 On ch=1 n=f6 v=85
47088 On ch=2 n=f5 v=76
47088 On ch=2 n=d6 v=76
47110 On ch=1 n=f6 v=0
47112 On ch=1 n=a#5 v=85
47134 On ch=1 n=a#5 v=0
47136 On ch=1 n=f5 v=85
47158 On ch=1 n=f5 v=0
47160 On ch=1 n=a#5 v=85
47182 On ch=1 n=a#5 v=0
47184 On ch=1 n=f6 v=85
47214 On ch=1 n=f6 v=0
47214 On ch=2 n=f5 v=0
47214 On ch=2 n=d6 v=0
47216 On ch=1 n=g#6 v=85
47216 On ch=2 n=a#4 v=78
47246 On ch=1 n=g#6 v=0
47248 On ch=1 n=f6 v=0
47248 On ch=1 n=a6 v=85
47278 On ch=2 n=a#4 v=0
47278 On ch=1 n=a6 v=0
47280 On ch=1 n=a#6 v=85
47312 On ch=2 n=d5 v=79
47342 On ch=2 n=d5 v=0
47344 On ch=1 n=a#5 v=86
47344 On ch=2 n=g#4 v=79
47374 On ch=2 n=g#4 v=0
47376 On ch=2 n=f#4 v=79
47401 Tempo 545454
47401 Tempo 545454
47406 On ch=1 n=a#5 v=0
47406 On ch=2 n=f#4 v=0
47408 On ch=1 n=c6 v=87
47408 On ch=2 n=f4 v=79
47438 On ch=2 n=f4 v=0
47440 On ch=2 n=a#3 v=79
47470 On ch=1 n=c6 v=0
47470 On ch=2 n=a#3 v=0
47472 Par ch=2 c=64 v=0
47472 Par ch=2 c=64 v=127
47472 On ch=1 n=a#5 v=88
47472 On ch=1 n=e6 v=88
47472 On ch=2 n=a#2 v=79
47502 On ch=2 n=a#2 v=0
47504 On ch=2 n=a#3 v=79
47534 On ch=1 n=a#6 v=0
47534 On ch=2 n=a#3 v=0
47536 On ch=1 n=d#6 v=89
47536 On ch=1 n=g#6 v=89
47566 On ch=1 n=e6 v=0
47568 On ch=2 n=f4 v=79
47598 On ch=1 n=g#6 v=0
47598 On ch=2 n=f4 v=0
47600 On ch=1 n=f6 v=90
47600 On ch=1 n=a#6 v=90
47600 On ch=2 n=g#4 v=79
47630 On ch=1 n=d#6 v=0
47630 On ch=2 n=g#4 v=0
47632 On ch=2 n=d5 v=79
47662 On ch=1 n=a#6 v=0
47662 On ch=2 n=d5 v=0
47664 On ch=1 n=a5 v=91
47664 On ch=1 n=f#6 v=91
47664 On ch=1 n=b6 v=91
47664 On ch=2 n=d#5 v=79
47664 On ch=2 n=d#5 v=79
47694 On ch=1 n=a#5 v=0
47694 On ch=1 n=f6 v=0
47694 On ch=2 n=d#5 v=0
47696 On ch=2 n=f#4 v=79
47726 On ch=1 n=f#6 v=0
47726 On ch=2 n=f#4 v=0
47728 On ch=1 n=f6 v=92
47728 On ch=2 n=a#3 v=79
47740 Tempo 540540
47740 Tempo 540540
47758 On ch=2 n=a#3 v=0
47760 On ch=2 n=f#4 v=80
47790 On ch=1 n=f6 v=0
47790 On ch=2 n=f#4 v=0
47792 On ch=1 n=f#6 v=93
47792 On ch=2 n=a4 v=81
47822 On ch=2 n=a4 v=0
47824 On ch=2 n=d#5 v=0
47824 On ch=2 n=d#5 v=82
47854 On ch=1 n=a5 v=0
47854 On ch=1 n=f#6 v=0
47854 On ch=2 n=d#5 v=0
47856 On ch=1 n=g#5 v=94
47856 On ch=1 n=g#6 v=94
47856 On ch=2 n=f5 v=83
47856 On ch=2 n=f5 v=83
47886 On ch=2 n=f5 v=0
47888 On ch=2 n=a#3 v=84
47918 On ch=1 n=g#5 v=0
47918 On ch=2 n=a#3 v=0
47920 On ch=1 n=d6 v=95
47920 On ch=1 n=a#6 v=95
47920 On ch=2 n=f4 v=85
47950 On ch=1 n=g#6 v=0
47950 On ch=1 n=b6 v=0
47950 On ch=2 n=f4 v=0
47952 On ch=2 n=g#4 v=86
47982 On ch=1 n=d6 v=0
47982 On ch=2 n=g#4 v=0
47984 On ch=1 n=g#5 v=96
47984 On ch=1 n=d#6 v=96
47984 On ch=1 n=b6 v=96
47984 On ch=2 n=f5 v=87
48014 On ch=1 n=a#6 v=0
48014 On ch=2 n=f5 v=0
48016 On ch=2 n=f5 v=0
48016 On ch=2 n=g5 v=88
48046 On ch=1 n=g#5 v=0
48046 On ch=1 n=d#6 v=0
48046 On ch=2 n=g5 v=0
48048 Par ch=2 c=64 v=0
48048 Par ch=2 c=64 v=127
48048 On ch=1 n=e6 v=97
48048 On ch=1 n=b6 v=97
48048 On ch=2 n=g5 v=89
48048 On ch=2 n=g5 v=89
48078 On ch=1 n=b6 v=0
48078 On ch=2 n=g5 v=0
48080 Tempo 535714
48080 Tempo 535714
48080 On ch=2 n=e5 v=90
48110 On ch=1 n=e6 v=0
48110 On ch=2 n=e5 v=0
48112 On ch=1 n=f6 v=98
48112 On ch=1 n=a#6 v=98
48112 On ch=2 n=c5 v=91
48142 On ch=1 n=b6 v=0
48142 On ch=2 n=c5 v=0
48144 On ch=2 n=e5 v=92
48174 On ch=1 n=f6 v=0
48174 On ch=2 n=e5 v=0
48176 On ch=1 n=g6 v=99
48176 On ch=1 n=b6 v=99
48176 On ch=2 n=c5 v=93
48206 On ch=1 n=a#6 v=0
48206 On ch=2 n=c5 v=0
48208 On ch=2 n=g5 v=0
48208 On ch=2 n=g4 v=94
48238 On ch=1 n=g6 v=0
48238 On ch=2 n=g4 v=0
48240 On ch=1 n=g#6 v=100
48240 On ch=1 n=c7 v=100
48240 On ch=2 n=f5 v=95
48240 On ch=2 n=f5 v=95
48270 On ch=1 n=b6 v=0
48270 On ch=2 n=f5 v=0
48272 On ch=2 n=c5 v=96
48302 On ch=1 n=g#6 v=0
48302 On ch=2 n=c5 v=0
48304 On ch=1 n=g6 v=101
48304 On ch=2 n=g4 v=97
48334 On ch=2 n=g4 v=0
48336 On ch=2 n=a#3 v=98
48366 On ch=1 n=g6 v=0
48366 On ch=2 n=a#3 v=0
48368 On ch=1 n=g#6 v=102
48400 On ch=1 n=c7 v=0
48400 On ch=2 n=f5 v=0
48400 On ch=2 n=g4 v=100
48419 Tempo 530973
48419 Tempo 530973
48430 On ch=1 n=g#6 v=0
48430 On ch=2 n=g4 v=0
48432 On ch=1 n=b6 v=103
48432 On ch=1 n=b6 v=103
48432 On ch=2 n=e5 v=101
48432 On ch=2 n=e5 v=101
48462 On ch=2 n=e5 v=0
48464 On ch=2 n=c5 v=102
48478 On ch=1 n=b6 v=0
48480 On ch=1 n=g6 v=104
48494 On ch=2 n=c5 v=0
48496 On ch=2 n=g4 v=103
48526 On ch=1 n=g6 v=0
48526 On ch=2 n=g4 v=0
48528 On ch=1 n=b6 v=105
48528 On ch=2 n=a#4 v=104
48558 On ch=2 n=a#4 v=0
48560 On ch=2 n=g4 v=105
48574 On ch=1 n=b6 v=0
48576 On ch=1 n=b6 v=106
48590 On ch=2 n=g4 v=0
48592 On ch=1 n=b6 v=0
48592 On ch=2 n=e5 v=0
48592 On ch=2 n=c4 v=106
48622 On ch=1 n=b6 v=0
48622 On ch=2 n=c4 v=0
48624 Par ch=2 c=64 v=0
48624 Par ch=2 c=64 v=127
48624 On ch=1 n=c6 v=108
48624 On ch=1 n=e6 v=108
48624 On ch=1 n=c7 v=108
48624 On ch=2 n=c3 v=108
48654 On ch=2 n=c3 v=0
48656 On ch=2 n=c4 v=108
48686 On ch=1 n=e6 v=0
48686 On ch=1 n=c7 v=0
48686 On ch=2 n=c4 v=0
48688 On ch=1 n=f6 v=108
48688 On ch=1 n=a#6 v=108
48720 On ch=2 n=g4 v=108
48750 On ch=1 n=f6 v=0
48750 On ch=1 n=a#6 v=0
48750 On ch=2 n=g4 v=0
48752 On ch=1 n=g6 v=108
48752 On ch=1 n=c7 v=108
48752 On ch=2 n=a#4 v=108
48758 Tempo 526315
48758 Tempo 526315
48782 On ch=2 n=a#4 v=0
48784 On ch=1 n=c6 v=0
48784 On ch=2 n=e5 v=108
48814 On ch=1 n=g6 v=0
48814 On ch=1 n=c7 v=0
48814 On ch=2 n=e5 v=0
48816 On ch=1 n=b5 v=108
48816 On ch=1 n=g#6 v=108
48816 On ch=1 n=c#7 v=108
48816 On ch=2 n=f5 v=108
48816 On ch=2 n=f5 v=108
48846 On ch=2 n=f5 v=0
48848 On ch=2 n=g#4 v=108
48878 On ch=1 n=g#6 v=0
48878 On ch=2 n=g#4 v=0
48880 On ch=1 n=g6 v=108
48880 On ch=2 n=c4 v=108
48910 On ch=2 n=c4 v=0
48912 On ch=2 n=g#4 v=108
48942 On ch=1 n=g6 v=0
48942 On ch=2 n=g#4 v=0
48944 On ch=1 n=g#6 v=108
48944 On ch=2 n=b4 v=108
48974 On ch=2 n=b4 v=0
48976 On ch=2 n=f5 v=0
48976 On ch=2 n=f5 v=108
49006 On ch=1 n=b5 v=0
49006 On ch=1 n=g#6 v=0
49006 On ch=2 n=f5 v=0
49008 On ch=1 n=a#5 v=108
49008 On ch=1 n=b6 v=108
49008 On ch=2 n=g5 v=108
49008 On ch=2 n=g5 v=108
49038 On ch=2 n=g5 v=0
49040 On ch=2 n=c4 v=108
49070 On ch=2 n=c4 v=0
49072 On ch=1 n=e6 v=108
49072 On ch=1 n=c7 v=108
49072 On ch=2 n=g4 v=108
49097 Tempo 521739
49097 Tempo 521739
49102 On ch=1 n=b6 v=0
49102 On ch=2 n=g4 v=0
49104 On ch=2 n=b4 v=108
49134 On ch=2 n=b4 v=0
49136 On ch=1 n=f6 v=108
49136 On ch=2 n=g5 v=108
49166 On ch=1 n=e6 v=0
49166 On ch=1 n=c7 v=0
49166 On ch=2 n=g5 v=0
49168 On ch=2 n=g5 v=0
49168 On ch=2 n=a5 v=108
49198 On ch=1 n=a#5 v=0
49198 On ch=2 n=a5 v=0
49200 Par ch=2 c=64 v=0
49200 Par ch=2 c=64 v=127
49200 On ch=1 n=f#6 v=108
49200 On ch=1 n=c#7 v=108
49200 On ch=2 n=a5 v=108
49200 On ch=2 n=a5 v=108
49230 On ch=1 n=f6 v=0
49230 On ch=1 n=c#7 v=0
49230 On ch=2 n=a5 v=0
49232 On ch=2 n=f#5 v=108
49262 On ch=1 n=f#6 v=0
49262 On ch=1 n=c#7 v=0
49262 On ch=2 n=f#5 v=0
49264 On ch=1 n=g6 v=108
49264 On ch=1 n=c7 v=108
49264 On ch=2 n=d5 v=108
49294 On ch=2 n=d5 v=0
49296 On ch=2 n=f#5 v=108
49326 On ch=1 n=g6 v=0
49326 On ch=1 n=c7 v=0
49326 On ch=2 n=f#5 v=0
49328 On ch=1 n=a6 v=108
49328 On ch=1 n=c#7 v=108
49328 On ch=2 n=d5 v=108
49358 On ch=2 n=d5 v=0
49360 On ch=2 n=a5 v=0
49360 On ch=2 n=a4 v=108
49390 On ch=1 n=a6 v=0
49390 On ch=1 n=c#7 v=0
49390 On ch=2 n=a4 v=0
49392 On ch=1 n=d6 v=108
49392 On ch=1 n=a#6 v=108
49392 On ch=1 n=d7 v=108
49392 On ch=2 n=g5 v=108
49392 On ch=2 n=g5 v=108
49422 On ch=2 n=g5 v=0
49424 On ch=2 n=d5 v=108
49436 Tempo 517241
49436 Tempo 517241
49454 On ch=1 n=a#6 v=0
49454 On ch=2 n=d5 v=0
49456 On ch=1 n=a6 v=108
49456 On ch=2 n=a4 v=108
49486 On ch=2 n=a4 v=0
49488 On ch=2 n=c4 v=108
49518 On ch=1 n=a6 v=0
49518 On ch=2 n=c4 v=0
49520 On ch=1 n=a#6 v=108
49552 On ch=1 n=d7 v=0
49552 On ch=2 n=g5 v=0
49552 On ch=2 n=a4 v=108
49582 On ch=1 n=a#6 v=0
49582 On ch=2 n=a4 v=0
49584 On ch=1 n=c7 v=108
49584 On ch=1 n=d7 v=108
49584 On ch=2 n=f#5 v=108
49584 On ch=2 n=f#5 v=108
49614 On ch=1 n=d7 v=0
49614 On ch=2 n=f#5 v=0
49616 On ch=1 n=f#6 v=108
49616 On ch=2 n=d5 v=108
49646 On ch=1 n=f#6 v=0
49646 On ch=2 n=d5 v=0
49648 On ch=1 n=g6 v=108
49648 On ch=2 n=a4 v=108
49678 On ch=1 n=g6 v=0
49678 On ch=2 n=a4 v=0
49680 On ch=1 n=a6 v=108
49680 On ch=2 n=d5 v=108
49710 On ch=1 n=a6 v=0
49710 On ch=2 n=d5 v=0
49712 On ch=1 n=c7 v=108
49712 On ch=2 n=a4 v=108
49742 On ch=1 n=c7 v=0
49742 On ch=2 n=a4 v=0
49744 On ch=1 n=d6 v=0
49744 On ch=1 n=c7 v=0
49744 On ch=2 n=f#5 v=0
49744 On ch=1 n=c#7 v=108
49744 On ch=2 n=d4 v=108
49774 On ch=1 n=c#7 v=0
49774 On ch=2 n=d4 v=0
49776 Par ch=2 c=64 v=0
49776 Tempo 512820
49776 Tempo 512820
49776 Par ch=2 c=64 v=127
49776 On ch=1 n=d7 v=108
49808 On ch=2 n=d3 v=108
49838 On ch=1 n=d7 v=0
49840 On ch=1 n=c7 v=108
49870 On ch=2 n=d3 v=0
49872 On ch=2 n=a3 v=108
49902 On ch=1 n=c7 v=0
49902 On ch=2 n=a3 v=0
49904 On ch=1 n=d#7 v=108
49904 On ch=2 n=f#4 v=108
49934 On ch=2 n=f#4 v=0
49936 On ch=2 n=b4 v=108
49966 On ch=1 n=d#7 v=0
49966 On ch=2 n=b4 v=0
49968 On ch=1 n=c7 v=108
49968 On ch=2 n=c5 v=108
49982 On ch=2 n=c5 v=0
49984 On ch=2 n=d4 v=108
49998 On ch=2 n=d4 v=0
50030 On ch=1 n=c7 v=0
50032 On ch=1 n=a#6 v=108
50032 On ch=2 n=f#4 v=108
50062 On ch=2 n=f#4 v=0
50064 On ch=2 n=c5 v=108
50094 On ch=1 n=a#6 v=0
50094 On ch=2 n=c5 v=0
50096 On ch=1 n=d7 v=108
50096 On ch=2 n=c#5 v=108
50126 On ch=2 n=c#5 v=0
50128 On ch=2 n=d5 v=108
50158 On ch=1 n=d7 v=0
50158 On ch=2 n=d5 v=0
50160 On ch=1 n=a#6 v=108
50160 On ch=2 n=f#5 v=108
50182 On ch=2 n=f#5 v=0
50184 On ch=2 n=c#5 v=108
50206 On ch=2 n=c#5 v=0
50208 On ch=2 n=a4 v=108
50222 On ch=1 n=a#6 v=0
50224 On ch=1 n=a6 v=108
50230 On ch=2 n=a4 v=0
50232 On ch=2 n=c#5 v=108
50254 On ch=2 n=c#5 v=0
50256 On ch=2 n=f#5 v=108
50286 On ch=1 n=a6 v=0
50286 On ch=2 n=f#5 v=0
50288 On ch=1 n=c7 v=108
50288 On ch=2 n=g5 v=108
50318 On ch=2 n=g5 v=0
50320 On ch=2 n=g#5 v=108
50350 On ch=1 n=c7 v=0
50350 On ch=2 n=g#5 v=0
50352 Par ch=2 c=64 v=0
50352 Par ch=2 c=64 v=127
50352 On ch=1 n=g6 v=108
50352 On ch=2 n=a5 v=108
50374 On ch=2 n=a5 v=0
50376 On ch=2 n=f#5 v=108
50398 On ch=2 n=f#5 v=0
50400 On ch=2 n=c5 v=108
50414 On ch=1 n=g6 v=0
50416 On ch=1 n=f#6 v=108
50422 On ch=2 n=c5 v=0
50424 On ch=2 n=f#5 v=108
50446 On ch=2 n=f#5 v=0
50448 On ch=2 n=a5 v=108
50478 On ch=1 n=f#6 v=0
50478 On ch=2 n=a5 v=0
50480 On ch=1 n=c7 v=108
50480 On ch=2 n=a#5 v=108
50510 On ch=2 n=a#5 v=0
50512 On ch=2 n=b5 v=108
50542 On ch=1 n=c7 v=0
50542 On ch=2 n=b5 v=0
50544 On ch=1 n=d#6 v=108
50544 On ch=2 n=c6 v=108
50574 On ch=2 n=c6 v=0
50576 On ch=2 n=f#5 v=108
50606 On ch=1 n=d#6 v=0
50606 On ch=2 n=f#5 v=0
50608 On ch=1 n=d6 v=108
50608 On ch=2 n=d5 v=108
50638 On ch=2 n=d5 v=0
50640 On ch=2 n=f#5 v=108
50670 On ch=1 n=d6 v=0
50670 On ch=2 n=f#5 v=0
50672 On ch=1 n=c7 v=108
50672 On ch=2 n=c6 v=108
50702 On ch=2 n=c6 v=0
50704 On ch=2 n=c#6 v=108
50734 On ch=1 n=c7 v=0
50734 On ch=2 n=c#6 v=0
50736 Tempo 333333
50736 Tempo 333333
50736 On ch=1 n=d6 v=108
50782 On ch=1 n=d6 v=0
50784 On ch=1 n=c6 v=108
50830 On ch=1 n=c6 v=0
50832 On ch=1 n=c6 v=108
50878 On ch=1 n=c6 v=0
50880 On ch=1 n=d6 v=108
50926 On ch=1 n=d6 v=0
50928 Par ch=2 c=64 v=0
50928 Par ch=1 c=64 v=127
50928 On ch=1 n=a6 v=108
50974 On ch=1 n=a6 v=0
50976 On ch=1 n=c6 v=108
51022 On ch=1 n=c6 v=0
51024 On ch=1 n=b5 v=108
51070 On ch=1 n=b5 v=0
51072 On ch=1 n=a#5 v=108
51118 On ch=1 n=a#5 v=0
51120 On ch=1 n=d6 v=108
51166 On ch=1 n=d6 v=0
51168 On ch=1 n=f#6 v=108
51214 On ch=1 n=f#6 v=0
51216 On ch=1 n=b5 v=108
51262 On ch=1 n=b5 v=0
51264 On ch=1 n=a#5 v=108
51310 On ch=1 n=a#5 v=0
51312 On ch=1 n=a5 v=108
51358 On ch=1 n=a5 v=0
51360 On ch=1 n=c6 v=108
51406 On ch=1 n=c6 v=0
51408 On ch=1 n=d#6 v=108
51454 On ch=1 n=d#6 v=0
51456 On ch=1 n=a5 v=108
51502 On ch=1 n=a5 v=0
51504 Par ch=1 c=64 v=0
51504 Par ch=1 c=64 v=127
51504 On ch=1 n=g#5 v=108
51550 On ch=1 n=g#5 v=0
51552 On ch=1 n=g5 v=108
51598 On ch=1 n=g5 v=0
51600 On ch=1 n=a5 v=108
51646 On ch=1 n=a5 v=0
51648 On ch=1 n=c6 v=108
51694 On ch=1 n=c6 v=0
51696 On ch=1 n=f#5 v=108
51742 On ch=1 n=f#5 v=0
51744 On ch=1 n=f5 v=108
51790 On ch=1 n=f5 v=0
51792 On ch=1 n=e5 v=108
51838 On ch=1 n=e5 v=0
51840 On ch=1 n=g5 v=108
51886 On ch=1 n=g5 v=0
51888 On ch=1 n=a#5 v=108
51934 On ch=1 n=a#5 v=0
51936 On ch=1 n=d#5 v=108
51982 On ch=1 n=d#5 v=0
51984 On ch=1 n=d5 v=108
52030 On ch=1 n=d5 v=0
52032 On ch=1 n=c#5 v=108
52078 On ch=1 n=c#5 v=0
52080 Par ch=1 c=64 v=0
52080 Par ch=1 c=64 v=127
52080 Par ch=2 c=64 v=127
52080 On ch=1 n=e5 v=108
52126 On ch=1 n=e5 v=0
52128 On ch=1 n=g5 v=108
52174 On ch=1 n=g5 v=0
52176 On ch=1 n=a#4 v=108
52222 On ch=1 n=a#4 v=0
52224 On ch=1 n=a4 v=108
52270 On ch=1 n=a4 v=0
52272 Par ch=1 c=64 v=0
52272 On ch=2 n=g#4 v=108
52318 On ch=2 n=g#4 v=0
52320 On ch=2 n=c#5 v=108
52366 On ch=2 n=c#5 v=0
52368 On ch=2 n=g4 v=108
52414 On ch=2 n=g4 v=0
52416 On ch=2 n=f#4 v=108
52462 On ch=2 n=f#4 v=0
52464 On ch=2 n=f4 v=108
52510 On ch=2 n=f4 v=0
52512 On ch=2 n=e4 v=108
52558 On ch=2 n=e4 v=0
52560 On ch=2 n=a#4 v=108
52606 On ch=2 n=a#4 v=0
52608 On ch=2 n=d#4 v=108
52654 On ch=2 n=d#4 v=0
52656 Par ch=2 c=64 v=0
52656 Par ch=2 c=64 v=127
52656 On ch=2 n=g4 v=108
52662 Tempo 335195
52669 Tempo 337078
52675 Tempo 338983
52682 Tempo 340909
52689 Tempo 342857
52695 Tempo 344827
52702 On ch=2 n=g4 v=0
52702 Tempo 346820
52704 On ch=2 n=d4 v=108
52708 Tempo 348837
52715 Tempo 350877
52722 Tempo 352941
52728 Tempo 355029
52735 Tempo 357142
52742 Tempo 359281
52748 Tempo 361445
52750 On ch=2 n=d4 v=0
52752 On ch=2 n=c#4 v=108
52755 Tempo 363636
52761 Tempo 365853
52768 Tempo 368098
52775 Tempo 370370
52781 Tempo 372670
52788 Tempo 375000
52795 Tempo 377358
52798 On ch=2 n=c#4 v=0
52800 On ch=2 n=a#3 v=108
52801 Tempo 379746
52808 Tempo 382165
52814 Tempo 384615
52821 Tempo 387096
52828 Tempo 389610
52834 Tempo 392156
52841 Tempo 394736
52846 On ch=2 n=a#3 v=0
52848 Tempo 397350
52848 On ch=2 n=a3 v=108
52854 Tempo 400000
52861 Tempo 402684
52867 Tempo 405405
52874 Tempo 408163
52881 Tempo 410958
52887 Tempo 413793
52894 On ch=2 n=a3 v=0
52894 Tempo 416666
52896 On ch=2 n=g3 v=108
52900 Tempo 419580
52907 Tempo 422535
52914 Tempo 425531
52920 Tempo 428571
52927 Tempo 431654
52934 Tempo 434782
52940 Tempo 437956
52942 On ch=2 n=g3 v=0
52944 On ch=2 n=e3 v=108
52947 Tempo 441176
52953 Tempo 444444
52960 Tempo 447761
52967 Tempo 451127
52973 Tempo 454545
52980 Tempo 458015
52987 Tempo 461538
52990 On ch=2 n=e3 v=0
52992 On ch=2 n=d#3 v=108
52993 Tempo 465116
53000 Tempo 468750
53006 Tempo 472440
53013 Tempo 476190
53020 Tempo 480000
53026 Tempo 483870
53033 Tempo 487804
53038 On ch=2 n=d#3 v=0
53040 Tempo 491803
53040 On ch=2 n=d3 v=108
53046 Tempo 495867
53053 Tempo 500000
53059 Tempo 504201
53066 Tempo 508474
53073 Tempo 512820
53079 Tempo 517241
53086 On ch=2 n=d3 v=0
53086 Tempo 521739
53088 On ch=2 n=d#3 v=108
53092 Tempo 526315
53099 Tempo 530973
53106 Tempo 535714
53112 Tempo 540540
53119 Tempo 545454
53126 Tempo 550458
53132 Tempo 555555
53134 On ch=2 n=d#3 v=0
53136 On ch=2 n=c#3 v=108
53139 Tempo 560747
53145 Tempo 566037
53152 Tempo 571428
53159 Tempo 576923
53165 Tempo 582524
53172 Tempo 588235
53179 Tempo 594059
53182 On ch=2 n=c#3 v=0
53184 On ch=2 n=a#2 v=108
53185 Tempo 600000
53192 Tempo 606060
53198 Tempo 612244
53205 Tempo 618556
53212 Tempo 625000
53218 Tempo 631578
53225 Tempo 638297
53230 On ch=2 n=a#2 v=0
53232 Par ch=2 c=64 v=0
53232 Tempo 333333
53232 Tempo 645161
53232 Tempo 333333
53232 Par ch=2 c=64 v=127
53232 On ch=2 n=d2 v=127
53952 On ch=2 n=d2 v=0
54000 On ch=2 n=d3 v=92
54062 On ch=2 n=d3 v=0
54064 On ch=2 n=a3 v=92
54126 On ch=2 n=a3 v=0
54128 On ch=2 n=d3 v=92
54190 On ch=2 n=d3 v=0
54192 On ch=2 n=a3 v=92
54254 On ch=2 n=a3 v=0
54256 On ch=2 n=d4 v=92
54318 On ch=2 n=d4 v=0
54320 On ch=2 n=a3 v=92
54382 On ch=2 n=a3 v=0
54384 Par ch=1 c=64 v=127
54384 On ch=1 n=d4 v=92
54446 On ch=1 n=d4 v=0
54448 On ch=1 n=a3 v=92
54510 On ch=1 n=a3 v=0
54512 On ch=1 n=d4 v=92
54574 On ch=1 n=d4 v=0
54576 On ch=1 n=a4 v=92
54638 On ch=1 n=a4 v=0
54640 On ch=1 n=d4 v=92
54702 On ch=1 n=d4 v=0
54704 On ch=1 n=a4 v=92
54766 On ch=1 n=a4 v=0
54768 On ch=1 n=d5 v=92
54830 On ch=1 n=d5 v=0
54832 On ch=1 n=a#4 v=92
54894 On ch=1 n=a#4 v=0
54896 On ch=1 n=a4 v=92
54958 On ch=1 n=a4 v=0
54960 On ch=1 n=a4 v=92
55022 On ch=1 n=a4 v=0
55024 On ch=1 n=a#4 v=92
55086 On ch=1 n=a#4 v=0
55088 On ch=1 n=a4 v=92
55150 On ch=1 n=a4 v=0
55152 On ch=1 n=a5 v=92
55152 On ch=2 n=a3 v=92
55214 On ch=1 n=a5 v=0
55216 On ch=1 n=d#5 v=91
55278 On ch=1 n=d#5 v=0
55278 On ch=2 n=a3 v=0
55280 On ch=1 n=d5 v=90
55280 On ch=2 n=f#4 v=91
55342 On ch=1 n=d5 v=0
55344 On ch=1 n=d5 v=89
55406 On ch=2 n=f#4 v=0
55406 On ch=1 n=d5 v=0
55408 On ch=1 n=d#5 v=88
55408 On ch=2 n=a#4 v=89
55470 On ch=1 n=d#5 v=0
55472 On ch=1 n=d5 v=87
55534 On ch=1 n=d5 v=0
55534 On ch=2 n=a#4 v=0
55536 On ch=1 n=d6 v=86
55536 On ch=2 n=a4 v=87
55598 On ch=1 n=d6 v=0
55600 On ch=1 n=a#5 v=85
55662 On ch=1 n=a#5 v=0
55662 On ch=2 n=a4 v=0
55664 On ch=1 n=a5 v=84
55664 On ch=2 n=f#4 v=85
55726 On ch=1 n=a5 v=0
55728 On ch=1 n=a5 v=83
55790 On ch=2 n=f#4 v=0
55790 On ch=1 n=a5 v=0
55792 On ch=1 n=a#5 v=82
55792 On ch=2 n=d#5 v=83
55854 On ch=1 n=a#5 v=0
55856 On ch=1 n=a5 v=81
55918 On ch=1 n=a5 v=0
55918 On ch=2 n=d#5 v=0
55920 On ch=1 n=a6 v=80
55920 On ch=2 n=d5 v=81
55982 On ch=1 n=a6 v=0
55984 On ch=1 n=d#6 v=79
56046 On ch=1 n=d#6 v=0
56046 On ch=2 n=d5 v=0
56048 On ch=1 n=d6 v=78
56048 On ch=2 n=a4 v=79
56110 On ch=1 n=d6 v=0
56112 On ch=1 n=d6 v=77
56174 On ch=2 n=a4 v=0
56174 On ch=1 n=d6 v=0
56176 On ch=1 n=d#6 v=76
56176 On ch=2 n=g5 v=77
56238 On ch=1 n=d#6 v=0
56240 On ch=1 n=d6 v=75
56302 On ch=1 n=d6 v=0
56302 On ch=2 n=g5 v=0
56304 On ch=1 n=d7 v=74
56304 On ch=2 n=f#5 v=75
56366 On ch=1 n=d7 v=0
56368 On ch=1 n=a#6 v=73
56430 On ch=1 n=a#6 v=0
56430 On ch=2 n=f#5 v=0
56432 On ch=1 n=a6 v=72
56432 On ch=2 n=d5 v=73
56494 On ch=1 n=a6 v=0
56496 On ch=1 n=a6 v=71
56558 On ch=2 n=d5 v=0
56558 On ch=1 n=a6 v=0
56560 On ch=1 n=a#6 v=70
56560 On ch=2 n=d#6 v=71
56622 On ch=1 n=a#6 v=0
56624 On ch=1 n=a6 v=69
56686 On ch=1 n=a6 v=0
56686 On ch=2 n=d#6 v=0
56688 On ch=1 n=a7 v=68
56688 On ch=2 n=d6 v=69
56750 On ch=1 n=a7 v=0
56752 On ch=1 n=d#7 v=67
56814 On ch=1 n=d#7 v=0
56814 On ch=2 n=d6 v=0
56816 On ch=1 n=d7 v=65
56816 On ch=2 n=f#5 v=67
56878 On ch=1 n=d7 v=0
56880 On ch=1 n=d7 v=63
56942 On ch=2 n=f#5 v=0
56942 On ch=1 n=d7 v=0
56944 On ch=1 n=d#7 v=61
56944 On ch=2 n=g6 v=65
57006 On ch=1 n=d#7 v=0
57008 On ch=1 n=d7 v=59
57070 On ch=1 n=d7 v=0
57070 On ch=2 n=g6 v=0
57072 On ch=1 n=d8 v=57
57072 On ch=2 n=f#6 v=63
57097 Tempo 335195
57097 Tempo 335195
57123 Tempo 337078
57123 Tempo 337078
57134 On ch=1 n=d8 v=0
57136 On ch=1 n=a#7 v=55
57148 Tempo 338983
57148 Tempo 338983
57174 Tempo 340909
57174 Tempo 340909
57198 On ch=1 n=a#7 v=0
57198 On ch=2 n=f#6 v=0
57200 Tempo 342857
57200 Tempo 342857
57200 On ch=1 n=a7 v=53
57200 On ch=2 n=a5 v=61
57225 Tempo 344827
57225 Tempo 344827
57251 Tempo 346820
57251 Tempo 346820
57262 On ch=1 n=a7 v=0
57264 On ch=1 n=a7 v=51
57276 Tempo 348837
57276 Tempo 348837
57302 Tempo 350877
57302 Tempo 350877
57326 On ch=2 n=a5 v=0
57326 On ch=1 n=a7 v=0
57328 Tempo 352941
57328 Tempo 352941
57328 On ch=1 n=a#7 v=49
57328 On ch=2 n=d#7 v=59
57353 Tempo 355029
57353 Tempo 355029
57379 Tempo 357142
57379 Tempo 357142
57390 On ch=1 n=a#7 v=0
57392 On ch=1 n=a7 v=47
57404 Tempo 359281
57404 Tempo 359281
57430 Tempo 361445
57430 Tempo 361445
57454 On ch=2 n=d#7 v=0
57454 On ch=1 n=a7 v=0
57456 Tempo 363636
57456 Tempo 363636
57456 On ch=1 n=a8 v=45
57456 On ch=2 n=d7 v=57
57481 Tempo 365853
57481 Tempo 365853
57507 Tempo 368098
57507 Tempo 368098
57532 Tempo 370370
57532 Tempo 370370
57558 Tempo 372670
57558 Tempo 372670
57582 On ch=2 n=d7 v=0
57584 Tempo 375000
57584 Tempo 375000
57584 On ch=2 n=f#6 v=55
57609 Tempo 377358
57609 Tempo 377358
57635 Tempo 379746
57635 Tempo 379746
57660 Tempo 382165
57660 Tempo 382165
57686 Tempo 384615
57686 Tempo 384615
57710 On ch=2 n=f#6 v=0
57712 Tempo 387096
57712 Tempo 387096
57712 On ch=2 n=a6 v=53
57737 Tempo 389610
57737 Tempo 389610
57763 Tempo 392156
57763 Tempo 392156
57788 Tempo 394736
57788 Tempo 394736
57814 Tempo 397350
57814 Tempo 397350
57838 On ch=2 n=a6 v=0
57840 Tempo 400000
57840 Tempo 400000
57840 On ch=2 n=g7 v=51
57865 Tempo 402684
57865 Tempo 402684
57891 Tempo 405405
57891 Tempo 405405
57916 Tempo 408163
57916 Tempo 408163
57942 Tempo 410958
57942 Tempo 410958
57968 Tempo 413793
57968 Tempo 413793
57993 Tempo 416666
57993 Tempo 416666
58000 On ch=2 n=g7 v=0
58019 Tempo 419580
58019 Tempo 419580
58032 On ch=2 n=f#7 v=48
58044 Tempo 422535
58044 Tempo 422535
58070 Tempo 425531
58070 Tempo 425531
58096 Tempo 428571
58096 Tempo 428571
58121 Tempo 431654
58121 Tempo 431654
58147 Tempo 434782
58147 Tempo 434782
58172 Tempo 437956
58172 Tempo 437956
58192 On ch=2 n=f#7 v=0
58198 Tempo 441176
58198 Tempo 441176
58224 Tempo 444444
58224 Tempo 444444
58224 On ch=2 n=d8 v=45
59712 On ch=1 n=a8 v=0
59712 On ch=2 n=d8 v=0
59760 Par ch=1 c=64 v=0
59760 Par ch=2 c=64 v=0
59760 Tempo 1224489
59760 Tempo 1224489
59760 Par ch=1 c=64 v=127
59760 On ch=1 n=d7 v=10
59822 On ch=1 n=d7 v=0
59824 On ch=1 n=c7 v=10
59886 On ch=1 n=c7 v=0
59888 On ch=1 n=d#7 v=10
59950 On ch=1 n=d#7 v=0
59952 On ch=1 n=c7 v=10
60014 On ch=1 n=c7 v=0
60016 On ch=1 n=a#6 v=10
60078 On ch=1 n=a#6 v=0
60080 On ch=1 n=d7 v=10
60142 On ch=1 n=d7 v=0
60144 On ch=1 n=a#6 v=10
60206 On ch=1 n=a#6 v=0
60208 On ch=1 n=a6 v=10
60270 On ch=1 n=a6 v=0
60272 On ch=1 n=c7 v=10
60334 On ch=1 n=c7 v=0
60336 Par ch=1 c=64 v=0
60336 Par ch=1 c=64 v=127
60336 On ch=1 n=d7 v=10
60398 On ch=1 n=d7 v=0
60400 On ch=1 n=c7 v=10
60462 On ch=1 n=c7 v=0
60464 On ch=1 n=d#7 v=10
60526 On ch=1 n=d#7 v=0
60528 On ch=1 n=c7 v=10
60528 On ch=2 n=d#6 v=45
60590 On ch=1 n=c7 v=0
60592 On ch=1 n=a#6 v=10
60654 On ch=1 n=a#6 v=0
60656 On ch=1 n=d7 v=10
60718 On ch=1 n=d7 v=0
60720 On ch=1 n=a#6 v=10
60782 On ch=1 n=a#6 v=0
60784 On ch=2 n=d#6 v=0
60784 On ch=1 n=a6 v=10
60816 On ch=2 n=d6 v=45
60846 On ch=1 n=a6 v=0
60848 On ch=1 n=c7 v=10
60910 On ch=1 n=c7 v=0
60910 On ch=2 n=d6 v=0
60912 Par ch=1 c=64 v=0
60912 Par ch=1 c=64 v=127
60912 On ch=1 n=d7 v=10
60912 On ch=2 n=d6 v=45
60974 On ch=1 n=d7 v=0
60976 On ch=1 n=c7 v=10
61038 On ch=1 n=c7 v=0
61040 On ch=1 n=d#7 v=10
61102 On ch=1 n=d#7 v=0
61104 On ch=1 n=c7 v=10
61166 On ch=1 n=c7 v=0
61168 On ch=1 n=a#6 v=10
61230 On ch=1 n=a#6 v=0
61232 On ch=1 n=d7 v=10
61296 On ch=2 n=a6 v=45
61358 On ch=1 n=d7 v=0
61360 On ch=1 n=c7 v=10
61422 On ch=1 n=c7 v=0
61424 On ch=1 n=d#7 v=10
61486 On ch=1 n=d#7 v=0
61488 Par ch=1 c=64 v=0
61488 Par ch=1 c=64 v=127
61488 On ch=1 n=c7 v=10
61550 On ch=1 n=c7 v=0
61552 On ch=1 n=a#6 v=10
61614 On ch=1 n=a#6 v=0
61616 On ch=1 n=d7 v=10
61648 On ch=2 n=d6 v=0
61648 On ch=2 n=a6 v=0
61680 On ch=2 n=a4 v=45
61742 On ch=1 n=d7 v=0
61744 On ch=1 n=c7 v=10
61806 On ch=1 n=c7 v=0
61808 On ch=1 n=d#7 v=10
61870 On ch=1 n=d#7 v=0
61872 On ch=1 n=c7 v=10
61934 On ch=1 n=c7 v=0
61936 On ch=2 n=a4 v=0
61936 On ch=1 n=a#6 v=10
61968 On ch=2 n=g4 v=45
61998 On ch=1 n=a#6 v=0
62000 On ch=1 n=d7 v=10
62062 On ch=2 n=g4 v=0
62064 Par ch=1 c=64 v=0
62064 Par ch=1 c=64 v=127
62064 On ch=2 n=g4 v=45
62126 On ch=1 n=d7 v=0
62128 On ch=1 n=c7 v=10
62190 On ch=1 n=c7 v=0
62192 On ch=1 n=d7 v=10
62254 On ch=1 n=d7 v=0
62256 On ch=1 n=a#6 v=10
62318 On ch=1 n=a#6 v=0
62320 On ch=1 n=a6 v=10
62382 On ch=1 n=a6 v=0
62384 On ch=1 n=c7 v=10
62446 On ch=1 n=c7 v=0
62448 On ch=1 n=a6 v=10
62448 On ch=2 n=d5 v=45
62510 On ch=1 n=a6 v=0
62512 On ch=1 n=g6 v=10
62574 On ch=1 n=g6 v=0
62576 On ch=1 n=a#6 v=10
62638 On ch=1 n=a#6 v=0
62640 Par ch=1 c=64 v=0
62640 Par ch=1 c=64 v=127
62640 On ch=1 n=c7 v=10
62702 On ch=1 n=c7 v=0
62704 On ch=1 n=a#6 v=10
62766 On ch=1 n=a#6 v=0
62768 On ch=1 n=d7 v=10
62800 On ch=2 n=g4 v=0
62800 On ch=2 n=d5 v=0
62830 On ch=1 n=d7 v=0
62832 On ch=1 n=a#6 v=10
62832 On ch=2 n=d4 v=45
62894 On ch=1 n=a#6 v=0
62896 On ch=1 n=a6 v=10
62958 On ch=1 n=a6 v=0
62960 On ch=1 n=c7 v=10
63022 On ch=1 n=c7 v=0
63024 On ch=1 n=a6 v=10
63086 On ch=1 n=a6 v=0
63088 On ch=2 n=d4 v=0
63088 On ch=1 n=g6 v=10
63120 On ch=2 n=c4 v=45
63150 On ch=1 n=g6 v=0
63152 On ch=1 n=a#6 v=10
63214 On ch=2 n=c4 v=0
63216 Par ch=1 c=64 v=0
63216 Par ch=1 c=64 v=127
63216 On ch=2 n=c4 v=45
63278 On ch=1 n=a#6 v=0
63280 On ch=1 n=g6 v=10
63342 On ch=1 n=g6 v=0
63344 On ch=1 n=a#6 v=10
63406 On ch=1 n=a#6 v=0
63408 On ch=1 n=g6 v=10
63470 On ch=1 n=g6 v=0
63472 On ch=1 n=f6 v=10
63534 On ch=1 n=f6 v=0
63536 On ch=1 n=a#6 v=10
63598 On ch=1 n=a#6 v=0
63600 On ch=1 n=f6 v=10
63600 On ch=2 n=g4 v=45
63662 On ch=1 n=f6 v=0
63664 On ch=1 n=e6 v=10
63726 On ch=1 n=e6 v=0
63728 On ch=1 n=a#6 v=10
63790 On ch=1 n=a#6 v=0
63792 Par ch=1 c=64 v=0
63792 Par ch=1 c=64 v=127
63792 On ch=1 n=e6 v=10
63854 On ch=1 n=e6 v=0
63856 On ch=1 n=d6 v=10
63918 On ch=1 n=d6 v=0
63920 On ch=1 n=a#6 v=10
63952 On ch=2 n=c4 v=0
63952 On ch=2 n=g4 v=0
63982 On ch=1 n=a#6 v=0
63984 On ch=1 n=d6 v=10
63984 On ch=2 n=g3 v=45
64046 On ch=1 n=d6 v=0
64048 On ch=1 n=c6 v=10
64110 On ch=1 n=c6 v=0
64112 On ch=1 n=a#6 v=10
64174 On ch=1 n=a#6 v=0
64176 On ch=1 n=c6 v=10
64238 On ch=1 n=c6 v=0
64240 On ch=2 n=g3 v=0
64240 On ch=1 n=a#5 v=10
64272 On ch=2 n=f3 v=45
64302 On ch=1 n=a#5 v=0
64304 On ch=1 n=a#6 v=10
64366 On ch=1 n=a#6 v=0
64366 On ch=2 n=f3 v=0
64368 Par ch=1 c=64 v=0
64368 Par ch=1 c=64 v=127
64368 On ch=1 n=a#5 v=10
64368 On ch=2 n=f3 v=45
64430 On ch=1 n=a#5 v=0
64432 On ch=1 n=a#6 v=10
64494 On ch=1 n=a#6 v=0
64496 On ch=1 n=c6 v=10
64558 On ch=1 n=c6 v=0
64560 On ch=1 n=a#6 v=10
64560 On ch=2 n=c4 v=45
64622 On ch=1 n=a#6 v=0
64624 On ch=1 n=c#6 v=10
64686 On ch=1 n=c#6 v=0
64688 On ch=1 n=a#6 v=10
64750 On ch=1 n=a#6 v=0
64752 On ch=1 n=d6 v=10
64752 On ch=1 n=d6 v=10
64814 On ch=1 n=d6 v=0
64816 On ch=1 n=a#6 v=10
64878 On ch=1 n=a#6 v=0
64880 On ch=1 n=d#6 v=10
64942 On ch=1 n=d#6 v=0
64944 Par ch=1 c=64 v=0
64944 Par ch=1 c=64 v=127
64944 On ch=1 n=a#6 v=10
64998 Tempo 1250000
65006 On ch=1 n=a#6 v=0
65008 On ch=1 n=e6 v=10
65026 Tempo 1250000
65053 Tempo 1276595
65070 On ch=1 n=e6 v=0
65072 On ch=1 n=a#6 v=10
65108 Tempo 1304347
65108 Tempo 1276595
65134 On ch=1 n=a#6 v=0
65136 On ch=1 n=e6 v=10
65136 On ch=2 n=g4 v=45
65163 Tempo 1333333
65190 Tempo 1304347
65198 On ch=1 n=e6 v=0
65200 On ch=1 n=a#6 v=10
65218 Tempo 1363636
65262 On ch=1 n=a#6 v=0
65264 On ch=1 n=f6 v=10
65273 Tempo 1395348
65273 Tempo 1333333
65326 On ch=1 n=f6 v=0
65328 Tempo 1428571
65328 On ch=1 n=a#6 v=10
65355 Tempo 1363636
65390 On ch=1 n=a#6 v=0
65392 On ch=1 n=f#6 v=10
65437 Tempo 1395348
65454 On ch=1 n=f#6 v=0
65456 On ch=1 n=a#6 v=10
65472 On ch=2 n=f3 v=0
65472 On ch=2 n=c4 v=0
65472 On ch=2 n=g4 v=0
65518 On ch=1 n=a#6 v=0
65520 Par ch=1 c=64 v=0
65520 Tempo 1250000
65520 Tempo 1428571
65520 Tempo 1250000
65520 Par ch=1 c=64 v=127
65520 Par ch=2 c=64 v=127
65520 On ch=1 n=d#6 v=10
65520 On ch=1 n=g6 v=10
65520 On ch=2 n=f3 v=45
65520 On ch=2 n=c4 v=45
65568 On ch=1 n=d6 v=0
65582 On ch=1 n=g6 v=0
65584 On ch=1 n=a#6 v=10
65646 On ch=1 n=a#6 v=0
65648 On ch=1 n=g6 v=10
65710 On ch=1 n=g6 v=0
65712 On ch=1 n=a#6 v=10
65712 On ch=1 n=d8 v=10
65774 On ch=1 n=a#6 v=0
65776 On ch=1 n=g6 v=10
65838 On ch=1 n=g6 v=0
65840 On ch=1 n=a#6 v=10
65856 On ch=1 n=d#6 v=0
65856 On ch=2 n=c4 v=0
65902 On ch=1 n=a#6 v=0
65904 On ch=1 n=e6 v=10
65904 On ch=1 n=g6 v=10
65904 On ch=2 n=f3 v=45
65966 On ch=1 n=g6 v=0
65968 On ch=1 n=a#6 v=10
66030 On ch=1 n=a#6 v=0
66032 On ch=1 n=g6 v=10
66048 On ch=2 n=f3 v=0
66048 On ch=1 n=d8 v=0
66094 On ch=1 n=g6 v=0
66096 Par ch=1 c=64 v=0
66096 Par ch=1 c=64 v=127
66096 On ch=1 n=a#6 v=10
66096 On ch=1 n=g7 v=10
66096 On ch=2 n=c4 v=42
66158 On ch=1 n=a#6 v=0
66160 On ch=1 n=g6 v=10
66222 On ch=1 n=g6 v=0
66224 On ch=1 n=a#6 v=10
66256 On ch=2 n=c4 v=0
66286 On ch=1 n=a#6 v=0
66288 On ch=1 n=g6 v=10
66288 On ch=2 n=d5 v=39
66350 On ch=1 n=g6 v=0
66352 On ch=1 n=a#6 v=10
66414 On ch=1 n=a#6 v=0
66416 On ch=1 n=e6 v=10
66416 On ch=1 n=g6 v=10
66432 On ch=1 n=g7 v=0
66446 On ch=1 n=e6 v=0
66448 On ch=2 n=d5 v=0
66478 On ch=1 n=g6 v=0
66480 On ch=1 n=a#6 v=10
66480 On ch=1 n=c7 v=10
66480 On ch=2 n=g4 v=36
66542 On ch=1 n=a#6 v=0
66544 On ch=1 n=g6 v=10
66606 On ch=1 n=g6 v=0
66608 On ch=1 n=a#6 v=10
66640 On ch=1 n=c7 v=0
66640 On ch=2 n=g4 v=0
66670 On ch=1 n=a#6 v=0
66672 Par ch=1 c=64 v=0
66672 Par ch=1 c=64 v=127
66672 On ch=1 n=g6 v=10
66672 On ch=2 n=c4 v=33
66734 On ch=1 n=g6 v=0
66736 On ch=1 n=a#6 v=10
66798 On ch=1 n=a#6 v=0
66800 On ch=1 n=g6 v=10
66832 On ch=2 n=c4 v=0
66862 On ch=1 n=g6 v=0
66864 On ch=1 n=a#6 v=10
66864 On ch=2 n=f2 v=30
66926 On ch=1 n=a#6 v=0
66928 On ch=1 n=e6 v=10
66990 On ch=1 n=e6 v=0
66992 On ch=1 n=g6 v=10
67054 On ch=1 n=g6 v=0
67056 On ch=1 n=c6 v=10
67090 Tempo 1276595
67118 On ch=1 n=c6 v=0
67120 On ch=1 n=e6 v=10
67124 Tempo 1304347
67158 Tempo 1333333
67182 On ch=1 n=e6 v=0
67184 On ch=1 n=a5 v=10
67193 Tempo 1363636
67200 On ch=1 n=e6 v=0
67200 On ch=2 n=f3 v=0
67200 On ch=2 n=f2 v=0
67227 Tempo 1395348
67246 On ch=1 n=a5 v=0
67248 Par ch=1 c=64 v=0
67248 On ch=2 n=c5 v=22
67261 Tempo 1428571
67261 Tempo 1276595
67275 Tempo 1304347
67289 Tempo 1333333
67295 Tempo 1463414
67302 Tempo 1363636
67310 On ch=2 n=c5 v=0
67312 On ch=2 n=f#4 v=21
67316 Tempo 1395348
67330 Tempo 1500000
67330 Tempo 1428571
67344 Tempo 1463414
67357 Tempo 1500000
67364 Tempo 1538461
67371 Tempo 1538461
67374 On ch=2 n=f#4 v=0
67376 On ch=2 n=a4 v=20
67385 Tempo 1578947
67398 Tempo 1578947
67398 Tempo 1621621
67412 Tempo 1666666
67426 Tempo 1714285
67433 Tempo 1621621
67438 On ch=2 n=a4 v=0
67440 Tempo 1764705
67440 On ch=2 n=g4 v=19
67453 Tempo 1818181
67467 Tempo 1666666
67467 Tempo 1875000
67481 Tempo 1935483
67494 Tempo 2000000
67501 Tempo 1714285
67502 On ch=2 n=g4 v=0
67504 On ch=2 n=a#4 v=18
67508 Tempo 2068965
67522 Tempo 2142857
67535 Tempo 1764705
67536 Tempo 2222222
67549 Tempo 2307692
67563 Tempo 2400000
67566 On ch=2 n=a#4 v=0
67568 On ch=2 n=e4 v=17
67570 Tempo 1818181
67577 Tempo 2500000
67590 Tempo 2608695
67604 Tempo 1875000
67604 Tempo 2727272
67618 Tempo 2857142
67630 On ch=2 n=e4 v=0
67632 Tempo 3000000
67632 On ch=2 n=d5 v=16
67638 Tempo 1935483
67673 Tempo 2000000
67707 Tempo 2068965
67726 On ch=2 n=d5 v=0
67728 On ch=2 n=g4 v=13
67741 Tempo 2142857
67775 Tempo 2222222
67810 Tempo 2307692
67822 On ch=2 n=g4 v=0
67824 On ch=2 n=c4 v=10
67844 Tempo 2400000
67878 Tempo 2500000
67913 Tempo 2608695
67947 Tempo 2727272
67981 Tempo 2857142
67984 On ch=2 n=c4 v=0
68016 Par ch=2 c=64 v=0
68016 Tempo 3000000
68016 Tempo 1224489
68016 Tempo 1224489
68016 Par ch=2 c=64 v=127
68016 On ch=2 n=f3 v=10
68142 On ch=2 n=f3 v=0
68144 On ch=2 n=c4 v=10
68206 On ch=2 n=c4 v=0
68208 On ch=2 n=f3 v=10
68334 On ch=2 n=f3 v=0
68336 On ch=2 n=c4 v=10
68398 On ch=2 n=c4 v=0
68400 On ch=2 n=f3 v=10
68462 On ch=2 n=f3 v=0
68464 On ch=2 n=c4 v=10
68526 On ch=2 n=c4 v=0
68528 On ch=2 n=f3 v=10
68590 On ch=2 n=f3 v=0
68592 Par ch=2 c=64 v=0
68592 Par ch=2 c=64 v=127
68592 On ch=2 n=c4 v=10
68654 On ch=2 n=c4 v=0
68656 On ch=2 n=f3 v=10
68720 On ch=2 n=c4 v=10
68784 On ch=2 n=a4 v=10
68846 On ch=2 n=a4 v=0
68848 On ch=2 n=d4 v=10
68910 On ch=2 n=d4 v=0
68912 On ch=2 n=a4 v=10
68974 On ch=2 n=a4 v=0
68976 On ch=1 n=g6 v=30
68976 On ch=2 n=d4 v=10
69038 On ch=2 n=d4 v=0
69040 On ch=2 n=a4 v=10
69102 On ch=2 n=a4 v=0
69104 On ch=2 n=d4 v=10
69120 On ch=1 n=g6 v=0
69120 On ch=2 n=f3 v=0
69120 On ch=2 n=c4 v=0
69120 On ch=1 n=f6 v=30
69168 On ch=1 n=f6 v=0
69168 Par ch=2 c=64 v=0
69168 Par ch=2 c=64 v=127
69168 On ch=1 n=a5 v=30
69168 On ch=1 n=f6 v=30
69168 On ch=1 n=f6 v=30
69230 On ch=2 n=d4 v=0
69232 On ch=2 n=c4 v=10
69294 On ch=2 n=c4 v=0
69296 On ch=2 n=f3 v=10
69360 On ch=1 n=f6 v=0
69360 On ch=1 n=c7 v=30
69486 On ch=2 n=f3 v=0
69488 On ch=2 n=c4 v=10
69550 On ch=2 n=c4 v=0
69552 On ch=2 n=f3 v=10
69614 On ch=2 n=f3 v=0
69616 On ch=2 n=c4 v=10
69678 On ch=2 n=c4 v=0
69680 On ch=2 n=f3 v=10
69696 On ch=1 n=a5 v=0
69744 Par ch=2 c=64 v=0
69744 Par ch=2 c=64 v=127
69744 On ch=1 n=a5 v=30
69808 On ch=2 n=c4 v=10
69870 On ch=2 n=c4 v=0
69872 On ch=2 n=d4 v=10
69904 On ch=1 n=a5 v=0
69936 On ch=1 n=a#5 v=30
69998 On ch=2 n=d4 v=0
70000 On ch=2 n=a4 v=10
70062 On ch=2 n=a4 v=0
70064 On ch=2 n=d4 v=10
70080 On ch=1 n=f6 v=0
70080 On ch=1 n=c7 v=0
70128 On ch=1 n=g6 v=30
70190 On ch=2 n=d4 v=0
70192 On ch=2 n=c4 v=10
70256 On ch=2 n=f3 v=10
70270 On ch=1 n=g6 v=0
70272 On ch=2 n=f3 v=0
70272 On ch=1 n=a#5 v=0
70272 On ch=1 n=f6 v=30
70318 On ch=1 n=f6 v=0
70320 Par ch=2 c=64 v=0
70320 Par ch=2 c=64 v=127
70320 On ch=1 n=a5 v=30
70320 On ch=1 n=f6 v=30
70320 On ch=1 n=f6 v=30
70382 On ch=2 n=f3 v=0
70382 On ch=2 n=c4 v=0
70384 On ch=2 n=c4 v=10
70446 On ch=2 n=c4 v=0
70448 On ch=2 n=f3 v=10
70480 On ch=1 n=f6 v=0
70512 On ch=1 n=c7 v=30
70574 On ch=2 n=f3 v=0
70576 On ch=2 n=c4 v=10
70638 On ch=2 n=c4 v=0
70640 On ch=2 n=a4 v=10
70656 On ch=1 n=a5 v=0
70656 On ch=1 n=f6 v=0
70702 On ch=2 n=a4 v=0
70704 On ch=1 n=f6 v=30
70704 On ch=1 n=a#6 v=30
70704 On ch=2 n=f4 v=10
70704 On ch=2 n=d5 v=10
70832 On ch=1 n=a#6 v=0
70832 On ch=2 n=d5 v=0
70832 On ch=1 n=a6 v=30
70832 On ch=2 n=c5 v=10
70894 On ch=1 n=a6 v=0
70894 On ch=2 n=c5 v=0
70896 Par ch=2 c=64 v=0
70896 Par ch=2 c=64 v=127
70896 On ch=1 n=a6 v=30
70896 On ch=2 n=e5 v=10
70958 On ch=2 n=f4 v=0
70960 On ch=2 n=c4 v=10
71022 On ch=2 n=c4 v=0
71024 On ch=2 n=f3 v=10
71056 On ch=1 n=c7 v=0
71088 On ch=1 n=f7 v=30
71150 On ch=2 n=f3 v=0
71152 On ch=2 n=c4 v=10
71214 On ch=2 n=c4 v=0
71216 On ch=2 n=a4 v=10
71232 On ch=1 n=f6 v=0
71232 On ch=1 n=a6 v=0
71232 On ch=2 n=e5 v=0
71278 On ch=2 n=a4 v=0
71280 On ch=1 n=d7 v=30
71280 On ch=2 n=a4 v=10
71304 On ch=2 n=f5 v=10
71406 On ch=1 n=d7 v=0
71406 On ch=2 n=f5 v=0
71408 On ch=1 n=c7 v=30
71408 On ch=2 n=e5 v=10
71470 On ch=1 n=c7 v=0
71470 On ch=2 n=e5 v=0
71472 Par ch=2 c=64 v=127
71472 On ch=1 n=c7 v=30
71472 On ch=2 n=e5 v=10
71534 On ch=2 n=a4 v=0
71536 On ch=2 n=g4 v=10
71566 On ch=1 n=f7 v=0
71568 On ch=1 n=e7 v=30
71598 On ch=2 n=g4 v=0
71600 On ch=2 n=c4 v=10
71662 On ch=1 n=e7 v=0
71662 On ch=2 n=c4 v=0
71664 On ch=1 n=c7 v=30
71664 On ch=1 n=d7 v=30
71664 On ch=2 n=f3 v=10
71726 On ch=1 n=c7 v=0
71726 On ch=2 n=f3 v=0
71728 On ch=1 n=d6 v=30
71728 On ch=2 n=c4 v=10
71790 On ch=1 n=d6 v=0
71790 On ch=2 n=c4 v=0
71792 On ch=1 n=e6 v=30
71792 On ch=2 n=g4 v=10
71808 On ch=1 n=c7 v=0
71808 On ch=2 n=e5 v=0
71854 On ch=1 n=e6 v=0
71856 On ch=1 n=a#6 v=30
71856 On ch=2 n=d5 v=10
71918 On ch=1 n=a#6 v=0
71918 On ch=2 n=d5 v=0
71920 On ch=1 n=a6 v=30
71920 On ch=2 n=e4 v=10
71920 On ch=2 n=c5 v=10
71950 On ch=2 n=g4 v=0
71982 On ch=1 n=a6 v=0
71982 On ch=2 n=c5 v=0
71984 On ch=1 n=g6 v=30
71984 On ch=2 n=a#4 v=10
72046 On ch=1 n=g6 v=0
72046 On ch=2 n=a#4 v=0
72048 Par ch=2 c=64 v=0
72048 Par ch=2 c=64 v=127
72048 On ch=1 n=g6 v=30
72048 On ch=2 n=a#4 v=14
72110 On ch=2 n=a#4 v=0
72112 On ch=2 n=c4 v=10
72142 On ch=1 n=d7 v=0
72144 On ch=1 n=e7 v=30
72176 On ch=2 n=a#4 v=10
72238 On ch=1 n=e7 v=0
72240 On ch=1 n=f7 v=30
72334 On ch=1 n=g6 v=0
72334 On ch=2 n=a#4 v=0
72336 On ch=1 n=a6 v=30
72336 On ch=2 n=c5 v=10
72400 On ch=1 n=f7 v=0
72400 On ch=2 n=e4 v=0
72430 On ch=1 n=a6 v=0
72430 On ch=2 n=c5 v=0
72432 On ch=1 n=a#6 v=30
72432 On ch=1 n=e7 v=30
72432 On ch=2 n=g4 v=10
72432 On ch=2 n=d5 v=10
72560 On ch=1 n=c7 v=30
72560 On ch=2 n=e5 v=10
72592 On ch=1 n=a#6 v=0
72592 On ch=2 n=d5 v=0
72622 On ch=1 n=c7 v=0
72622 On ch=2 n=e5 v=0
72624 Par ch=2 c=64 v=0
72624 Par ch=2 c=64 v=127
72624 On ch=1 n=a#6 v=30
72624 On ch=2 n=d5 v=10
72686 On ch=2 n=c4 v=0
72686 On ch=2 n=g4 v=0
72688 On ch=2 n=f4 v=10
72718 On ch=1 n=e7 v=0
72720 On ch=1 n=d7 v=30
72750 On ch=2 n=f4 v=0
72752 On ch=2 n=c4 v=10
72814 On ch=1 n=d7 v=0
72816 On ch=1 n=c7 v=30
72878 On ch=1 n=a#6 v=0
72878 On ch=2 n=c4 v=0
72880 On ch=1 n=d6 v=30
72880 On ch=2 n=f3 v=10
72942 On ch=1 n=d6 v=0
72942 On ch=2 n=f3 v=0
72944 On ch=1 n=e6 v=30
72944 On ch=2 n=c4 v=10
72960 On ch=2 n=d5 v=0
73006 On ch=1 n=e6 v=0
73008 On ch=1 n=a6 v=30
73008 On ch=2 n=c5 v=10
73070 On ch=1 n=a6 v=0
73070 On ch=2 n=c5 v=0
73072 On ch=1 n=g6 v=30
73072 On ch=2 n=f4 v=10
73072 On ch=2 n=a#4 v=10
73102 On ch=2 n=c4 v=0
73134 On ch=1 n=g6 v=0
73134 On ch=2 n=a#4 v=0
73136 On ch=1 n=f6 v=30
73136 On ch=2 n=a4 v=10
73198 On ch=1 n=f6 v=0
73198 On ch=2 n=a4 v=0
73200 Par ch=2 c=64 v=0
73200 Par ch=2 c=64 v=127
73200 On ch=1 n=f6 v=30
73264 On ch=2 n=c4 v=10
73294 On ch=1 n=c7 v=0
73296 On ch=1 n=d7 v=30
73328 On ch=2 n=a4 v=10
73390 On ch=1 n=d7 v=0
73392 On ch=1 n=e7 v=30
73486 On ch=1 n=f6 v=0
73486 On ch=2 n=a4 v=0
73488 On ch=1 n=g6 v=30
73488 On ch=2 n=a#4 v=10
73552 On ch=1 n=e7 v=0
73552 On ch=2 n=f4 v=0
73582 On ch=1 n=g6 v=0
73582 On ch=2 n=a#4 v=0
73584 On ch=1 n=a6 v=30
73584 On ch=1 n=d7 v=30
73584 On ch=2 n=f4 v=10
73584 On ch=2 n=c5 v=10
73710 On ch=2 n=c5 v=0
73712 On ch=1 n=a#6 v=30
73712 On ch=2 n=d5 v=10
73744 On ch=1 n=a6 v=0
73774 On ch=1 n=a#6 v=0
73774 On ch=2 n=d5 v=0
73776 Par ch=2 c=64 v=0
73776 Par ch=2 c=64 v=127
73776 On ch=1 n=a6 v=30
73838 On ch=2 n=c4 v=0
73838 On ch=2 n=f4 v=0
73840 On ch=2 n=d4 v=10
73870 On ch=1 n=d7 v=0
73872 On ch=1 n=c7 v=30
73902 On ch=2 n=d4 v=0
73904 On ch=2 n=f3 v=10
73966 On ch=1 n=c7 v=0
73966 On ch=2 n=f3 v=0
73968 On ch=1 n=a#6 v=30
73968 On ch=2 n=f3 v=10
74030 On ch=1 n=a6 v=0
74030 On ch=2 n=f3 v=0
74032 On ch=1 n=c6 v=30
74032 On ch=2 n=d4 v=10
74094 On ch=1 n=c6 v=0
74094 On ch=2 n=d4 v=0
74096 On ch=1 n=d6 v=30
74096 On ch=2 n=c5 v=10
74158 On ch=1 n=d6 v=0
74158 On ch=2 n=c5 v=0
74160 On ch=1 n=g6 v=30
74160 On ch=2 n=a#4 v=10
74160 On ch=2 n=a#4 v=10
74222 On ch=1 n=g6 v=0
74222 On ch=2 n=a#4 v=0
74224 On ch=1 n=f#6 v=30
74224 On ch=2 n=d4 v=10
74286 On ch=1 n=f#6 v=0
74288 On ch=1 n=f6 v=30
74288 On ch=2 n=a4 v=10
74288 On ch=2 n=a4 v=10
74320 On ch=2 n=a#4 v=0
74350 On ch=1 n=f6 v=0
74350 On ch=2 n=a4 v=0
74352 Par ch=2 c=64 v=0
74352 Par ch=2 c=64 v=127
74352 On ch=1 n=f6 v=30
74352 On ch=2 n=a4 v=10
74382 On ch=2 n=a4 v=0
74414 On ch=2 n=d4 v=0
74416 On ch=2 n=d4 v=10
74446 On ch=1 n=a#6 v=0
74448 On ch=1 n=c7 v=30
74478 On ch=2 n=d4 v=0
74480 On ch=2 n=f3 v=10
74542 On ch=1 n=c7 v=0
74544 On ch=1 n=d7 v=30
74606 On ch=1 n=d7 v=0
74606 On ch=2 n=f3 v=0
74608 On ch=1 n=c7 v=30
74608 On ch=2 n=d4 v=10
74670 On ch=1 n=c7 v=0
74670 On ch=2 n=d4 v=0
74672 On ch=1 n=f6 v=30
74672 On ch=2 n=a4 v=10
74688 On ch=1 n=f6 v=0
74688 On ch=2 n=a4 v=0
74734 On ch=1 n=f6 v=0
74734 On ch=2 n=a4 v=0
74736 On ch=1 n=e6 v=30
74736 On ch=1 n=g6 v=30
74736 On ch=2 n=g4 v=10
74736 On ch=2 n=g4 v=10
74798 On ch=2 n=g4 v=0
74800 On ch=2 n=c4 v=10
74864 On ch=1 n=d6 v=30
74864 On ch=2 n=f4 v=10
74864 On ch=2 n=f4 v=10
74896 On ch=1 n=e6 v=0
74896 On ch=2 n=g4 v=0
74926 On ch=1 n=d6 v=0
74926 On ch=2 n=f4 v=0
74928 Par ch=2 c=64 v=0
74928 Par ch=2 c=64 v=127
74928 On ch=1 n=d6 v=30
74928 On ch=2 n=f4 v=10
74958 On ch=2 n=f4 v=0
74990 On ch=2 n=c4 v=0
74992 On ch=2 n=c4 v=10
75022 On ch=1 n=g6 v=0
75024 On ch=1 n=a6 v=30
75054 On ch=2 n=c4 v=0
75056 On ch=2 n=f3 v=10
75118 On ch=1 n=a6 v=0
75120 On ch=1 n=a#6 v=30
75182 On ch=1 n=a#6 v=0
75182 On ch=2 n=f3 v=0
75184 On ch=1 n=a6 v=30
75184 On ch=2 n=c4 v=10
75246 On ch=1 n=a6 v=0
75246 On ch=2 n=c4 v=0
75248 On ch=1 n=d6 v=30
75248 On ch=2 n=f4 v=10
75264 On ch=1 n=d6 v=0
75264 On ch=2 n=f4 v=0
75310 On ch=1 n=d6 v=0
75310 On ch=2 n=f4 v=0
75312 On ch=1 n=c6 v=30
75312 On ch=1 n=e6 v=30
75312 On ch=2 n=e4 v=10
75312 On ch=2 n=e4 v=10
75374 On ch=2 n=e4 v=0
75376 On ch=2 n=c4 v=10
75438 On ch=1 n=c6 v=0
75438 On ch=2 n=c4 v=0
75440 On ch=1 n=a#5 v=30
75440 On ch=2 n=d4 v=10
75440 On ch=2 n=d4 v=10
75472 On ch=2 n=e4 v=0
75502 On ch=1 n=a#5 v=0
75502 On ch=2 n=d4 v=0
75504 Par ch=2 c=64 v=0
75504 Par ch=2 c=64 v=127
75504 On ch=1 n=a#5 v=30
75504 On ch=2 n=d4 v=10
75534 On ch=2 n=d4 v=0
75566 On ch=2 n=d4 v=0
75568 On ch=2 n=f3 v=10
75630 On ch=2 n=f3 v=0
75632 On ch=2 n=d4 v=10
75664 On ch=1 n=e6 v=0
75696 On ch=1 n=g6 v=75
75724 Tempo 1250000
75728 Tempo 1250000
75753 Tempo 1276595
75758 On ch=2 n=d4 v=0
75760 Tempo 1276595
75760 On ch=2 n=f3 v=10
75782 Tempo 1304347
75792 Tempo 1304347
75811 Tempo 1333333
75824 Tempo 1333333
75824 On ch=2 n=d4 v=10
75839 Tempo 1363636
75856 Tempo 1363636
75868 Tempo 1395348
75886 On ch=2 n=d4 v=0
75888 Tempo 1395348
75888 On ch=2 n=a#4 v=14
75897 Tempo 1428571
75920 Tempo 1428571
75926 Tempo 1463414
75950 On ch=2 n=a#4 v=0
75952 On ch=1 n=g6 v=0
75952 Tempo 1463414
75952 On ch=2 n=c#4 v=10
75955 Tempo 1500000
75984 Tempo 1538461
75984 Tempo 1500000
75984 On ch=1 n=f6 v=75
76016 Tempo 1538461
76016 On ch=2 n=a4 v=10
76032 On ch=1 n=a#5 v=0
76048 On ch=2 n=f3 v=0
76078 On ch=1 n=f6 v=0
76078 On ch=2 n=a4 v=0
76080 Par ch=2 c=64 v=0
76080 Tempo 1250000
76080 Tempo 1250000
76080 Par ch=2 c=64 v=127
76080 On ch=1 n=a5 v=75
76080 On ch=1 n=f6 v=75
76142 On ch=2 n=d4 v=0
76144 On ch=2 n=c4 v=10
76206 On ch=2 n=c4 v=0
76208 On ch=2 n=f3 v=10
76270 On ch=2 n=f3 v=0
76272 On ch=1 n=c7 v=75
76272 On ch=2 n=c4 v=10
76334 On ch=2 n=c4 v=0
76336 On ch=2 n=f3 v=10
76398 On ch=2 n=f3 v=0
76400 On ch=2 n=c4 v=10
76416 On ch=1 n=a5 v=0
76462 On ch=2 n=c4 v=0
76464 On ch=1 n=a5 v=30
76464 On ch=2 n=d4 v=10
76526 On ch=2 n=d4 v=0
76528 On ch=2 n=a4 v=10
76590 On ch=2 n=a4 v=0
76592 On ch=2 n=d4 v=10
76624 On ch=1 n=a5 v=0
76654 On ch=2 n=d4 v=0
76656 Par ch=2 c=64 v=0
76656 Par ch=2 c=64 v=127
76656 On ch=1 n=a#5 v=30
76656 On ch=2 n=d5 v=10
76718 On ch=2 n=d5 v=0
76720 On ch=2 n=g4 v=10
76782 On ch=2 n=g4 v=0
76784 On ch=2 n=d5 v=10
76816 On ch=1 n=a#5 v=0
76846 On ch=2 n=d5 v=0
76848 On ch=1 n=b5 v=30
76848 On ch=2 n=g4 v=10
76910 On ch=2 n=g4 v=0
76912 On ch=2 n=c4 v=10
76974 On ch=2 n=c4 v=0
76976 On ch=2 n=g4 v=10
76992 On ch=1 n=f6 v=0
76992 On ch=1 n=c7 v=0
77008 On ch=1 n=b5 v=0
77038 On ch=2 n=g4 v=0
77040 On ch=1 n=a#5 v=75
77040 On ch=1 n=c6 v=75
77040 On ch=1 n=g6 v=75
77040 On ch=2 n=c4 v=10
77102 On ch=2 n=c4 v=0
77104 On ch=2 n=f3 v=10
77168 On ch=2 n=c4 v=10
77182 On ch=1 n=g6 v=0
77184 On ch=1 n=f6 v=75
77200 On ch=1 n=a#5 v=0
77230 On ch=1 n=f6 v=0
77232 Par ch=2 c=64 v=0
77232 Par ch=2 c=64 v=127
77232 On ch=1 n=a5 v=75
77232 On ch=1 n=f6 v=75
77294 On ch=2 n=f3 v=0
77294 On ch=2 n=c4 v=0
77296 On ch=2 n=f3 v=10
77358 On ch=2 n=f3 v=0
77360 On ch=2 n=c4 v=10
77422 On ch=2 n=c4 v=0
77424 On ch=1 n=c7 v=75
77424 On ch=2 n=d4 v=10
77486 On ch=2 n=d4 v=0
77488 On ch=2 n=a4 v=10
77550 On ch=2 n=a4 v=0
77552 On ch=2 n=d4 v=10
77568 On ch=1 n=a5 v=0
77568 On ch=1 n=c6 v=0
77614 On ch=2 n=d4 v=0
77616 On ch=1 n=c6 v=75
77616 On ch=2 n=a5 v=10
77678 On ch=2 n=a5 v=0
77680 On ch=2 n=d5 v=10
77742 On ch=2 n=d5 v=0
77744 On ch=2 n=a5 v=10
77776 On ch=1 n=c6 v=0
77806 On ch=2 n=a5 v=0
77808 Par ch=2 c=64 v=0
77808 Par ch=2 c=64 v=127
77808 On ch=1 n=d6 v=75
77872 On ch=2 n=g4 v=10
77934 On ch=2 n=g4 v=0
77936 On ch=2 n=d5 v=10
77968 On ch=1 n=d6 v=0
77968 On ch=1 n=f6 v=0
77998 On ch=2 n=d5 v=0
78000 On ch=1 n=d#6 v=75
78000 On ch=2 n=g4 v=10
78062 On ch=2 n=g4 v=0
78064 On ch=2 n=c4 v=10
78126 On ch=2 n=c4 v=0
78128 On ch=2 n=g4 v=10
78144 On ch=1 n=c7 v=0
78160 On ch=1 n=d#6 v=0
78190 On ch=2 n=g4 v=0
78192 On ch=2 n=c4 v=10
78192 On ch=1 n=g6 v=75
78192 On ch=1 n=e6 v=75
78192 On ch=1 n=a#5 v=75
78254 On ch=2 n=c4 v=0
78256 On ch=2 n=f3 v=10
78318 On ch=2 n=f3 v=0
78320 On ch=2 n=c4 v=10
78334 On ch=1 n=g6 v=0
78336 On ch=1 n=f6 v=75
78352 On ch=1 n=e6 v=0
78352 On ch=1 n=a#5 v=0
78382 On ch=2 n=c4 v=0
78382 On ch=1 n=f6 v=0
78384 Par ch=2 c=64 v=0
78384 Par ch=2 c=64 v=127
78384 On ch=1 n=a5 v=75
78384 On ch=1 n=f6 v=75
78384 On ch=1 n=f6 v=75
78448 On ch=2 n=f3 v=10
78510 On ch=2 n=f3 v=0
78512 On ch=2 n=c4 v=10
78544 On ch=1 n=f6 v=0
78576 On ch=1 n=c7 v=75
78638 On ch=2 n=c4 v=0
78640 On ch=2 n=c4 v=10
78702 On ch=2 n=c4 v=0
78704 On ch=2 n=a4 v=10
78720 On ch=1 n=a5 v=0
78720 On ch=1 n=f6 v=0
78736 On ch=1 n=c7 v=0
78766 On ch=2 n=a4 v=0
78768 On ch=1 n=f6 v=75
78768 On ch=1 n=a#6 v=75
78768 On ch=2 n=f4 v=10
78768 On ch=2 n=d5 v=10
78894 On ch=1 n=a#6 v=0
78896 On ch=1 n=a6 v=75
78896 On ch=2 n=c5 v=10
78928 On ch=2 n=d5 v=0
78958 On ch=1 n=a6 v=0
78958 On ch=2 n=c5 v=0
78960 Par ch=2 c=64 v=0
78960 Par ch=2 c=64 v=127
78960 On ch=1 n=a6 v=75
78960 On ch=1 n=c7 v=75
78960 On ch=2 n=c5 v=10
79024 On ch=2 n=c4 v=10
79086 On ch=2 n=c4 v=0
79088 On ch=2 n=f3 v=10
79120 On ch=1 n=c7 v=0
79150 On ch=2 n=f3 v=0
79152 On ch=1 n=d7 v=75
79152 On ch=2 n=c4 v=10
79214 On ch=2 n=c4 v=0
79216 On ch=2 n=c4 v=10
79280 On ch=2 n=c5 v=10
79296 On ch=1 n=f6 v=0
79296 On ch=1 n=a6 v=0
79296 On ch=2 n=f4 v=0
79296 On ch=2 n=c5 v=0
79342 On ch=2 n=c5 v=0
79344 On ch=1 n=g6 v=75
79344 On ch=2 n=a#4 v=10
79470 On ch=1 n=g6 v=0
79470 On ch=2 n=a#4 v=0
79472 On ch=1 n=f6 v=75
79472 On ch=2 n=a4 v=10
79504 On ch=2 n=c4 v=0
79534 On ch=1 n=f6 v=0
79534 On ch=2 n=a4 v=0
79536 Par ch=2 c=64 v=0
79536 Par ch=2 c=64 v=127
79536 On ch=1 n=f6 v=75
79536 On ch=2 n=c4 v=10
79536 On ch=2 n=a4 v=10
79600 On ch=2 n=c4 v=10
79662 On ch=2 n=c4 v=0
79664 On ch=2 n=f3 v=10
79696 On ch=1 n=d7 v=0
79726 On ch=2 n=f3 v=0
79728 On ch=1 n=e7 v=75
79728 On ch=2 n=c4 v=10
79790 On ch=2 n=c4 v=0
79792 On ch=2 n=c#4 v=10
79854 On ch=2 n=c#4 v=0
79856 On ch=2 n=a4 v=10
79872 On ch=1 n=f6 v=0
79872 On ch=2 n=c4 v=0
79872 On ch=2 n=a4 v=0
79918 On ch=2 n=a4 v=0
79920 On ch=1 n=d7 v=75
79920 On ch=2 n=a4 v=10
79920 On ch=2 n=f5 v=10
79984 On ch=2 n=d4 v=10
80046 On ch=1 n=d7 v=0
80046 On ch=2 n=d4 v=0
80048 On ch=1 n=c7 v=75
80048 On ch=2 n=a4 v=10
80048 On ch=2 n=e5 v=10
80080 On ch=2 n=a4 v=0
80080 On ch=2 n=f5 v=0
80110 On ch=1 n=c7 v=0
80112 Par ch=2 c=64 v=0
80112 Par ch=2 c=64 v=127
80112 On ch=1 n=c7 v=75
80112 On ch=2 n=e5 v=10
80142 On ch=2 n=e5 v=0
80176 On ch=2 n=d4 v=10
80238 On ch=2 n=d4 v=0
80240 On ch=2 n=f3 v=10
80272 On ch=1 n=e7 v=0
80302 On ch=2 n=f3 v=0
80304 On ch=1 n=f7 v=75
80304 On ch=2 n=d4 v=10
80366 On ch=2 n=d4 v=0
80368 On ch=2 n=d4 v=10
80430 On ch=2 n=d4 v=0
80432 On ch=2 n=a4 v=10
80448 On ch=1 n=c7 v=0
80448 On ch=2 n=a4 v=0
80448 On ch=2 n=e5 v=0
80494 On ch=2 n=a4 v=0
80496 On ch=1 n=a#6 v=75
80496 On ch=2 n=d5 v=10
80496 On ch=2 n=d5 v=10
80558 On ch=2 n=d5 v=0
80560 On ch=2 n=d4 v=10
80622 On ch=1 n=a#6 v=0
80622 On ch=2 n=d4 v=0
80624 On ch=1 n=a6 v=75
80624 On ch=2 n=d#4 v=10
80624 On ch=2 n=c#5 v=10
80656 On ch=2 n=d5 v=0
80686 On ch=1 n=a6 v=0
80686 On ch=2 n=d#4 v=0
80688 Par ch=2 c=64 v=0
80688 Par ch=2 c=64 v=127
80688 On ch=1 n=a6 v=75
80688 On ch=2 n=e4 v=10
80688 On ch=2 n=c#5 v=10
80718 On ch=2 n=c#5 v=0
80816 On ch=2 n=f3 v=10
80848 On ch=1 n=f7 v=0
80878 On ch=2 n=f3 v=0
80880 On ch=1 n=g7 v=75
80880 On ch=2 n=e4 v=10
80942 On ch=2 n=e4 v=0
80944 On ch=2 n=c5 v=10
81006 On ch=2 n=c5 v=0
81008 On ch=2 n=c#5 v=10
81024 On ch=1 n=a6 v=0
81024 On ch=2 n=e4 v=0
81024 On ch=2 n=c#5 v=0
81070 On ch=2 n=c#5 v=0
81072 On ch=1 n=f7 v=75
81072 On ch=2 n=c#5 v=10
81072 On ch=2 n=a5 v=10
81136 On ch=2 n=a4 v=10
81198 On ch=1 n=f7 v=0
81200 On ch=1 n=e7 v=75
81200 On ch=2 n=g5 v=10
81232 On ch=2 n=a5 v=0
81262 On ch=1 n=e7 v=0
81262 On ch=2 n=a4 v=0
81264 Par ch=2 c=64 v=0
81264 Par ch=2 c=64 v=127
81264 On ch=1 n=a6 v=75
81264 On ch=1 n=e7 v=75
81264 On ch=2 n=a4 v=10
81264 On ch=2 n=c5 v=10
81264 On ch=2 n=g5 v=10
81360 On ch=2 n=c#5 v=0
81360 On ch=2 n=g5 v=0
81392 On ch=2 n=f3 v=10
81424 On ch=1 n=g7 v=0
81454 On ch=2 n=f3 v=0
81456 On ch=1 n=a7 v=75
81456 On ch=2 n=c4 v=10
81518 On ch=2 n=c4 v=0
81520 On ch=2 n=c4 v=10
81582 On ch=2 n=c4 v=0
81584 On ch=2 n=a4 v=10
81600 On ch=1 n=e7 v=0
81600 On ch=2 n=a4 v=0
81600 On ch=2 n=c5 v=0
81600 On ch=2 n=g5 v=0
81646 On ch=2 n=a4 v=0
81648 On ch=1 n=d7 v=75
81648 On ch=2 n=f5 v=10
81648 On ch=2 n=f5 v=10
81710 On ch=2 n=f5 v=0
81712 On ch=2 n=a4 v=10
81774 On ch=1 n=d7 v=0
81776 On ch=1 n=c7 v=75
81776 On ch=2 n=e5 v=10
81776 On ch=2 n=e5 v=10
81808 On ch=2 n=f5 v=0
81838 On ch=1 n=a6 v=0
81838 On ch=1 n=c7 v=0
81838 On ch=2 n=e5 v=0
81840 Par ch=2 c=64 v=0
81840 Par ch=2 c=64 v=127
81840 On ch=1 n=c7 v=75
81840 On ch=2 n=e5 v=10
81870 On ch=2 n=e5 v=0
81904 On ch=2 n=g4 v=10
81934 On ch=1 n=a7 v=0
81936 On ch=1 n=a#7 v=75
81966 On ch=2 n=g4 v=0
81968 On ch=2 n=f4 v=10
82030 On ch=1 n=a#7 v=0
82032 On ch=1 n=c8 v=75
82094 On ch=2 n=f4 v=0
82096 On ch=2 n=g4 v=10
82158 On ch=2 n=g4 v=0
82160 On ch=2 n=g#4 v=10
82176 On ch=2 n=a4 v=0
82176 On ch=2 n=e5 v=0
82222 On ch=2 n=g#4 v=0
82224 On ch=2 n=a4 v=10
82224 On ch=2 n=d#5 v=10
82286 On ch=2 n=a4 v=0
82288 On ch=2 n=a#4 v=10
82318 On ch=1 n=c7 v=0
82320 On ch=1 n=a#6 v=75
82350 On ch=2 n=a#4 v=0
82352 On ch=2 n=c5 v=10
82384 On ch=2 n=d#5 v=0
82414 On ch=1 n=a#6 v=0
82414 On ch=2 n=c5 v=0
82416 Par ch=2 c=64 v=0
82416 Par ch=2 c=64 v=127
82416 On ch=1 n=a#6 v=75
82416 On ch=2 n=d5 v=10
82416 On ch=2 n=d5 v=10
82478 On ch=2 n=d5 v=0
82480 On ch=2 n=c5 v=10
82510 On ch=1 n=c8 v=0
82512 On ch=1 n=c7 v=75
82542 On ch=2 n=c5 v=0
82544 On ch=2 n=f#4 v=10
82606 On ch=1 n=c7 v=0
82606 On ch=2 n=f#4 v=0
82608 On ch=1 n=d7 v=75
82608 On ch=2 n=d4 v=10
82670 On ch=2 n=d4 v=0
82672 On ch=2 n=d3 v=10
82702 On ch=1 n=d7 v=0
82704 On ch=1 n=e7 v=75
82734 On ch=2 n=d3 v=0
82752 On ch=1 n=a#6 v=0
82752 On ch=2 n=d5 v=0
82798 On ch=1 n=e7 v=0
82800 On ch=1 n=a6 v=75
82800 On ch=1 n=f#7 v=75
82800 On ch=2 n=d#4 v=10
82800 On ch=2 n=c5 v=10
82894 On ch=1 n=f#7 v=0
82896 On ch=1 n=g7 v=75
82926 On ch=2 n=d#4 v=0
82928 On ch=2 n=d4 v=10
82960 On ch=2 n=c5 v=0
82990 On ch=1 n=g7 v=0
82990 On ch=2 n=d4 v=0
82992 Par ch=2 c=64 v=0
82992 Par ch=2 c=64 v=127
82992 On ch=1 n=a7 v=75
82992 On ch=2 n=a#4 v=10
83056 On ch=2 n=g3 v=10
83086 On ch=1 n=a7 v=0
83088 On ch=1 n=a#7 v=75
83118 On ch=2 n=g3 v=0
83120 On ch=2 n=d4 v=10
83152 On ch=1 n=a6 v=0
83152 On ch=2 n=a#4 v=0
83182 On ch=2 n=d4 v=0
83184 On ch=1 n=a6 v=75
83184 On ch=2 n=a#4 v=10
83184 On ch=2 n=c#5 v=10
83312 On ch=2 n=d4 v=10
83344 On ch=2 n=a#4 v=0
83344 On ch=2 n=c#5 v=0
83374 On ch=2 n=d4 v=0
83376 On ch=2 n=d5 v=10
83438 On ch=2 n=d5 v=0
83440 On ch=1 n=a6 v=0
83440 On ch=2 n=a#4 v=10
83472 On ch=1 n=g6 v=75
83504 On ch=2 n=d4 v=10
83566 On ch=1 n=g6 v=0
83566 On ch=2 n=d4 v=0
83568 Par ch=2 c=64 v=0
83568 Par ch=2 c=64 v=127
83568 On ch=1 n=g6 v=75
83568 On ch=2 n=f5 v=10
83568 On ch=2 n=f5 v=10
83630 On ch=2 n=f5 v=0
83662 On ch=1 n=a#7 v=0
83664 On ch=1 n=a6 v=75
83694 On ch=2 n=a#4 v=0
83696 On ch=2 n=g4 v=10
83728 On ch=2 n=f5 v=0
83758 On ch=1 n=a6 v=0
83758 On ch=2 n=g4 v=0
83760 On ch=1 n=a#6 v=75
83760 On ch=2 n=e5 v=10
83760 On ch=2 n=e5 v=10
83822 On ch=2 n=e5 v=0
83824 On ch=2 n=g4 v=10
83854 On ch=1 n=a#6 v=0
83856 On ch=1 n=c7 v=75
83886 On ch=2 n=g4 v=0
83888 On ch=2 n=c4 v=10
83920 On ch=2 n=e5 v=0
83950 On ch=1 n=c7 v=0
83950 On ch=2 n=c4 v=0
83952 On ch=1 n=d7 v=75
83952 On ch=2 n=d4 v=10
83952 On ch=2 n=a#4 v=10
84014 On ch=1 n=d7 v=0
84016 On ch=1 n=e7 v=75
84078 On ch=1 n=e7 v=0
84078 On ch=2 n=d4 v=0
84080 On ch=1 n=f7 v=75
84080 On ch=2 n=c4 v=10
84112 On ch=2 n=a#4 v=0
84142 On ch=1 n=f7 v=0
84142 On ch=2 n=c4 v=0
84144 Par ch=2 c=64 v=0
84144 Par ch=2 c=64 v=127
84144 On ch=1 n=g7 v=75
84144 On ch=2 n=a4 v=10
84208 On ch=2 n=f3 v=10
84238 On ch=1 n=g7 v=0
84240 On ch=1 n=a7 v=75
84270 On ch=2 n=f3 v=0
84272 On ch=2 n=c4 v=10
84304 On ch=1 n=g6 v=0
84304 On ch=2 n=a4 v=0
84334 On ch=2 n=c4 v=0
84336 On ch=1 n=g6 v=75
84336 On ch=2 n=a4 v=10
84336 On ch=2 n=b4 v=10
84464 On ch=2 n=c4 v=10
84496 On ch=2 n=a4 v=0
84496 On ch=2 n=b4 v=0
84526 On ch=2 n=c4 v=0
84528 On ch=2 n=c5 v=10
84528 On ch=2 n=c5 v=10
84590 On ch=2 n=c5 v=0
84592 On ch=1 n=g6 v=0
84592 On ch=2 n=a4 v=10
84624 On ch=1 n=f6 v=75
84656 On ch=2 n=g4 v=10
84688 On ch=2 n=c5 v=0
84718 On ch=1 n=f6 v=0
84718 On ch=2 n=g4 v=0
84720 Par ch=2 c=64 v=0
84720 Par ch=2 c=64 v=127
84720 On ch=1 n=f6 v=75
84720 On ch=2 n=f4 v=10
84720 On ch=2 n=e5 v=10
84814 On ch=1 n=a7 v=0
84816 On ch=1 n=g6 v=75
84848 On ch=2 n=d3 v=10
84880 On ch=2 n=f4 v=0
84880 On ch=2 n=a4 v=0
84880 On ch=2 n=e5 v=0
84910 On ch=1 n=g6 v=0
84910 On ch=2 n=d3 v=0
84912 On ch=1 n=a6 v=75
84912 On ch=2 n=a3 v=10
84912 On ch=2 n=d5 v=10
84974 On ch=2 n=a3 v=0
84976 On ch=2 n=f4 v=10
85006 On ch=1 n=a6 v=0
85008 On ch=1 n=a#6 v=75
85038 On ch=2 n=f4 v=0
85040 On ch=2 n=g4 v=10
85056 On ch=1 n=f6 v=0
85072 On ch=2 n=d5 v=0
85102 On ch=1 n=a#6 v=0
85102 On ch=2 n=g4 v=0
85104 On ch=1 n=e6 v=75
85104 On ch=1 n=c7 v=75
85104 On ch=2 n=a4 v=10
85104 On ch=2 n=c5 v=10
85166 On ch=2 n=a4 v=0
85168 On ch=2 n=a#4 v=10
85230 On ch=2 n=a#4 v=0
85232 On ch=2 n=c5 v=10
85264 On ch=1 n=e6 v=0
85264 On ch=2 n=c5 v=0
85294 On ch=2 n=c5 v=0
85296 Par ch=2 c=64 v=0
85296 Par ch=2 c=64 v=127
85296 On ch=1 n=d#6 v=75
85296 On ch=2 n=c5 v=10
85360 On ch=2 n=f4 v=10
85390 On ch=1 n=c7 v=0
85392 On ch=1 n=e6 v=75
85422 On ch=2 n=f4 v=0
85424 On ch=2 n=a#3 v=10
85456 On ch=1 n=d#6 v=0
85456 On ch=2 n=c5 v=0
85486 On ch=1 n=e6 v=0
85488 On ch=1 n=a#5 v=75
85488 On ch=1 n=d6 v=75
85488 On ch=1 n=f6 v=75
85488 On ch=2 n=f4 v=10
85550 On ch=2 n=f4 v=0
85552 On ch=2 n=e4 v=10
85582 On ch=1 n=f6 v=0
85584 On ch=1 n=g6 v=75
85614 On ch=2 n=e4 v=0
85616 On ch=2 n=f4 v=10
85648 On ch=1 n=a#5 v=0
85648 On ch=1 n=d6 v=0
85678 On ch=1 n=g6 v=0
85680 On ch=1 n=c#6 v=75
85680 On ch=1 n=a6 v=75
85680 On ch=2 n=a4 v=10
85742 On ch=2 n=f4 v=0
85744 On ch=2 n=g4 v=10
85806 On ch=2 n=g4 v=0
85808 On ch=2 n=a4 v=10
85824 On ch=2 n=a#3 v=0
85840 On ch=1 n=c#6 v=0
85840 On ch=2 n=a4 v=0
85870 On ch=2 n=a4 v=0
85872 Par ch=2 c=64 v=0
85872 Par ch=2 c=64 v=127
85872 On ch=1 n=c6 v=75
85872 On ch=2 n=a4 v=10
85936 On ch=2 n=c4 v=13
85966 On ch=1 n=a6 v=0
85968 On ch=1 n=c#6 v=77
85998 On ch=2 n=c4 v=0
86000 On ch=2 n=c3 v=16
86032 On ch=1 n=c6 v=0
86032 On ch=2 n=a4 v=0
86062 On ch=1 n=c#6 v=0
86064 On ch=1 n=b5 v=80
86064 On ch=1 n=d6 v=80
86064 On ch=2 n=g#4 v=20
86126 On ch=2 n=c3 v=0
86128 On ch=2 n=c4 v=24
86158 On ch=1 n=d6 v=0
86160 On ch=1 n=e6 v=83
86190 On ch=2 n=c4 v=0
86192 On ch=2 n=d4 v=28
86224 On ch=1 n=b5 v=0
86224 On ch=2 n=g#4 v=0
86254 On ch=1 n=e6 v=0
86256 On ch=1 n=a#5 v=86
86256 On ch=1 n=f6 v=86
86256 On ch=2 n=g4 v=32
86318 On ch=2 n=d4 v=0
86320 On ch=2 n=d#4 v=36
86350 On ch=1 n=f6 v=0
86352 On ch=1 n=g6 v=89
86382 On ch=2 n=d#4 v=0
86384 On ch=2 n=e4 v=40
86416 On ch=1 n=a#5 v=0
86416 On ch=2 n=g4 v=0
86446 On ch=1 n=g6 v=0
86446 On ch=2 n=e4 v=0
86448 Par ch=2 c=64 v=0
86448 Par ch=2 c=64 v=127
86448 On ch=1 n=a5 v=92
86448 On ch=1 n=g6 v=92
86448 On ch=2 n=g4 v=44
86448 On ch=2 n=g4 v=44
86510 On ch=2 n=g4 v=0
86512 On ch=2 n=c4 v=48
86542 On ch=1 n=g6 v=0
86544 On ch=1 n=a6 v=60
86574 On ch=2 n=c4 v=0
86576 On ch=2 n=f3 v=52
86608 On ch=2 n=g4 v=0
86638 On ch=2 n=f3 v=0
86640 On ch=2 n=f4 v=56
86640 On ch=2 n=f4 v=56
86702 On ch=2 n=f4 v=0
86704 On ch=1 n=a6 v=0
86704 On ch=2 n=a4 v=60
86736 On ch=1 n=c6 v=60
86736 On ch=1 n=c7 v=60
86766 On ch=2 n=a4 v=0
86768 On ch=2 n=f3 v=64
86784 On ch=1 n=a5 v=0
86800 On ch=2 n=f4 v=0
86830 On ch=1 n=c6 v=0
86830 On ch=1 n=c7 v=0
86830 On ch=2 n=f3 v=0
86832 On ch=1 n=e6 v=66
86832 On ch=1 n=a6 v=66
86832 On ch=1 n=e7 v=66
86832 On ch=2 n=e4 v=68
86832 On ch=2 n=e4 v=68
86894 On ch=2 n=e4 v=0
86896 On ch=2 n=a4 v=72
86926 On ch=1 n=e6 v=0
86926 On ch=1 n=e7 v=0
86928 On ch=1 n=f6 v=72
86928 On ch=1 n=f7 v=72
86958 On ch=2 n=a4 v=0
86960 On ch=2 n=f3 v=76
86992 On ch=2 n=e4 v=0
87022 On ch=1 n=f6 v=0
87022 On ch=1 n=a6 v=0
87022 On ch=1 n=f7 v=0
87022 On ch=2 n=f3 v=0
87024 Par ch=2 c=64 v=0
87024 Par ch=2 c=64 v=127
87024 On ch=1 n=g6 v=78
87024 On ch=1 n=c7 v=78
87024 On ch=1 n=g7 v=78
87024 On ch=2 n=d4 v=80
87024 On ch=2 n=d4 v=80
87086 On ch=2 n=d4 v=0
87088 On ch=2 n=a4 v=84
87118 On ch=1 n=g6 v=0
87118 On ch=1 n=g7 v=0
87120 On ch=1 n=a6 v=85
87120 On ch=1 n=a7 v=85
87150 On ch=2 n=a4 v=0
87152 On ch=2 n=f3 v=88
87184 On ch=2 n=d4 v=0
87214 On ch=1 n=a6 v=0
87214 On ch=1 n=c7 v=0
87214 On ch=1 n=a7 v=0
87214 On ch=2 n=f3 v=0
87216 On ch=1 n=b6 v=92
87216 On ch=1 n=f7 v=92
87216 On ch=1 n=b7 v=92
87216 On ch=2 n=c#4 v=92
87216 On ch=2 n=c#4 v=92
87278 On ch=2 n=c#4 v=0
87280 On ch=2 n=a4 v=92
87310 On ch=1 n=b6 v=0
87310 On ch=1 n=b7 v=0
87312 On ch=1 n=c7 v=92
87312 On ch=1 n=c8 v=92
87342 On ch=2 n=a4 v=0
87344 On ch=2 n=f3 v=92
87376 On ch=2 n=c#4 v=0
87406 On ch=1 n=c7 v=0
87406 On ch=1 n=f7 v=0
87406 On ch=1 n=c8 v=0
87406 On ch=2 n=f3 v=0
87408 On ch=3 n=c7 v=60
87408 On ch=1 n=e7 v=92
87408 On ch=1 n=e8 v=92
87408 On ch=2 n=c4 v=92
87408 On ch=2 n=c4 v=92
87418 On ch=3 n=c7 v=0
87420 On ch=3 n=d7 v=60
87430 On ch=3 n=d7 v=0
87432 On ch=3 n=c7 v=60
87442 On ch=3 n=c7 v=0
87444 On ch=3 n=d7 v=60
87454 On ch=3 n=d7 v=0
87456 On ch=3 n=c7 v=60
87466 On ch=3 n=c7 v=0
87468 On ch=3 n=d7 v=60
87470 On ch=2 n=c4 v=0
87472 On ch=2 n=a4 v=92
87478 On ch=3 n=d7 v=0
87480 On ch=3 n=c7 v=60
87490 On ch=3 n=c7 v=0
87492 On ch=3 n=d7 v=60
87502 On ch=3 n=d7 v=0
87504 On ch=3 n=c7 v=60
87514 On ch=3 n=c7 v=0
87516 On ch=3 n=d7 v=60
87526 On ch=3 n=d7 v=0
87528 On ch=3 n=c7 v=60
87534 On ch=2 n=a4 v=0
87536 On ch=2 n=f2 v=92
87536 On ch=2 n=f3 v=92
87538 On ch=3 n=c7 v=0
87540 On ch=3 n=d7 v=60
87550 On ch=3 n=d7 v=0
87552 On ch=1 n=e7 v=0
87552 On ch=1 n=e8 v=0
87552 On ch=3 n=g6 v=60
87552 On ch=1 n=d#8 v=92
87562 On ch=3 n=g6 v=0
87564 On ch=3 n=a6 v=60
87568 On ch=2 n=c4 v=0
87574 On ch=3 n=a6 v=0
87576 On ch=3 n=a#6 v=60
87586 On ch=3 n=a#6 v=0
87588 On ch=3 n=c7 v=60
87598 On ch=2 n=f2 v=0
87598 On ch=2 n=f3 v=0
87598 On ch=3 n=c7 v=0
87600 On ch=1 n=d#8 v=0
87600 Par ch=2 c=64 v=0
87600 Par ch=2 c=64 v=127
87600 On ch=3 n=c7 v=60
87600 On ch=1 n=g7 v=92
87600 On ch=1 n=g8 v=92
87600 On ch=2 n=c4 v=92
87600 On ch=2 n=a4 v=92
87600 On ch=2 n=c5 v=92
87610 On ch=3 n=c7 v=0
87612 On ch=3 n=d7 v=60
87622 On ch=3 n=d7 v=0
87624 On ch=3 n=c7 v=60
87634 On ch=3 n=c7 v=0
87636 On ch=3 n=d7 v=60
87646 On ch=3 n=d7 v=0
87648 On ch=3 n=c7 v=60
87658 On ch=3 n=c7 v=0
87660 On ch=3 n=d7 v=60
87670 On ch=3 n=d7 v=0
87672 On ch=3 n=c7 v=60
87682 On ch=3 n=c7 v=0
87684 On ch=3 n=d7 v=60
87694 On ch=3 n=d7 v=0
87696 On ch=3 n=c7 v=60
87706 On ch=3 n=c7 v=0
87708 On ch=3 n=d7 v=60
87718 On ch=3 n=d7 v=0
87720 On ch=3 n=c7 v=60
87726 On ch=2 n=c4 v=0
87726 On ch=2 n=a4 v=0
87728 On ch=2 n=f3 v=92
87730 On ch=3 n=c7 v=0
87732 On ch=3 n=d7 v=60
87742 On ch=3 n=d7 v=0
87744 On ch=3 n=c7 v=60
87754 On ch=3 n=c7 v=0
87756 On ch=3 n=d7 v=60
87766 On ch=3 n=d7 v=0
87768 On ch=3 n=g6 v=60
87778 On ch=3 n=g6 v=0
87780 On ch=3 n=c7 v=60
87790 On ch=3 n=c7 v=0
87790 On ch=2 n=f3 v=0
87792 On ch=3 n=g6 v=60
87792 On ch=3 n=g6 v=60
87792 On ch=2 n=c4 v=92
87802 On ch=3 n=g6 v=0
87804 On ch=3 n=a6 v=60
87814 On ch=3 n=a6 v=0
87816 On ch=3 n=g6 v=60
87826 On ch=3 n=g6 v=0
87828 On ch=3 n=a6 v=60
87838 On ch=3 n=a6 v=0
87840 On ch=3 n=g6 v=60
87850 On ch=3 n=g6 v=0
87852 On ch=3 n=a6 v=60
87854 On ch=2 n=c4 v=0
87856 On ch=2 n=a4 v=92
87862 On ch=3 n=a6 v=0
87864 On ch=3 n=g6 v=60
87874 On ch=3 n=g6 v=0
87876 On ch=3 n=a6 v=60
87886 On ch=3 n=a6 v=0
87888 On ch=3 n=g6 v=60
87898 On ch=3 n=g6 v=0
87900 On ch=3 n=a6 v=60
87910 On ch=3 n=a6 v=0
87912 On ch=3 n=g6 v=60
87918 On ch=2 n=a4 v=0
87920 On ch=2 n=c5 v=92
87922 On ch=3 n=g6 v=0
87924 On ch=3 n=a6 v=60
87934 On ch=3 n=a6 v=0
87936 On ch=2 n=c5 v=0
87936 On ch=3 n=g6 v=60
87946 On ch=3 n=g6 v=0
87948 On ch=3 n=a6 v=60
87952 On ch=3 n=g6 v=0
87958 On ch=3 n=a6 v=0
87960 On ch=3 n=c6 v=60
87970 On ch=3 n=c6 v=0
87972 On ch=3 n=c7 v=60
87982 On ch=3 n=c7 v=0
87984 On ch=1 n=g7 v=0
87984 On ch=1 n=g8 v=0
87984 On ch=3 n=c7 v=60
87984 On ch=1 n=f#7 v=92
87984 On ch=1 n=f#8 v=92
87984 On ch=2 n=a#4 v=92
87994 On ch=3 n=c7 v=0
87996 On ch=3 n=d7 v=60
88006 On ch=3 n=d7 v=0
88008 On ch=3 n=c7 v=60
88018 On ch=3 n=c7 v=0
88020 On ch=3 n=d7 v=60
88030 On ch=3 n=d7 v=0
88032 On ch=3 n=c7 v=60
88042 On ch=3 n=c7 v=0
88044 On ch=3 n=d7 v=60
88046 On ch=2 n=c5 v=0
88048 On ch=2 n=c6 v=92
88054 On ch=3 n=d7 v=0
88056 On ch=3 n=c7 v=60
88066 On ch=3 n=c7 v=0
88068 On ch=3 n=d7 v=60
88078 On ch=3 n=d7 v=0
88080 On ch=3 n=c7 v=60
88090 On ch=3 n=c7 v=0
88092 On ch=3 n=d7 v=60
88102 On ch=3 n=d7 v=0
88104 On ch=3 n=c7 v=60
88110 On ch=2 n=c6 v=0
88112 On ch=2 n=a4 v=92
88112 On ch=2 n=a4 v=92
88114 On ch=3 n=c7 v=0
88116 On ch=3 n=d7 v=60
88126 On ch=3 n=d7 v=0
88128 On ch=1 n=f#7 v=0
88128 On ch=1 n=f#8 v=0
88128 On ch=3 n=f6 v=60
88128 On ch=1 n=f8 v=92
88138 On ch=3 n=f6 v=0
88140 On ch=3 n=g6 v=60
88144 On ch=2 n=a#4 v=0
88150 On ch=3 n=g6 v=0
88152 On ch=3 n=a6 v=60
88162 On ch=3 n=a6 v=0
88164 On ch=3 n=a#6 v=60
88174 On ch=3 n=a#6 v=0
88174 On ch=2 n=a4 v=0
88176 On ch=1 n=f8 v=0
88176 Par ch=2 c=64 v=0
88176 Par ch=2 c=64 v=127
88176 On ch=3 n=c7 v=60
88176 On ch=1 n=f7 v=92
88176 On ch=1 n=f8 v=92
88176 On ch=2 n=c4 v=92
88176 On ch=2 n=a4 v=92
88186 On ch=3 n=c7 v=0
88188 On ch=3 n=d7 v=60
88198 On ch=3 n=d7 v=0
88200 On ch=3 n=c7 v=60
88206 On ch=2 n=a4 v=0
88210 On ch=3 n=c7 v=0
88212 On ch=3 n=d7 v=60
88222 On ch=3 n=d7 v=0
88224 On ch=3 n=c7 v=60
88234 On ch=3 n=c7 v=0
88236 On ch=3 n=d7 v=60
88246 On ch=3 n=d7 v=0
88248 On ch=3 n=c7 v=60
88258 On ch=3 n=c7 v=0
88260 On ch=3 n=d7 v=60
88270 On ch=3 n=d7 v=0
88272 On ch=3 n=c7 v=60
88282 On ch=3 n=c7 v=0
88284 On ch=3 n=d7 v=60
88294 On ch=3 n=d7 v=0
88296 On ch=3 n=c7 v=60
88302 On ch=2 n=c4 v=0
88304 On ch=2 n=f2 v=92
88306 On ch=3 n=c7 v=0
88308 On ch=3 n=d7 v=60
88318 On ch=3 n=d7 v=0
88320 On ch=3 n=c7 v=60
88330 On ch=3 n=c7 v=0
88332 On ch=3 n=d7 v=60
88342 On ch=3 n=d7 v=0
88344 On ch=3 n=f6 v=60
88354 On ch=3 n=f6 v=0
88356 On ch=3 n=c7 v=60
88366 On ch=2 n=f2 v=0
88366 On ch=3 n=c7 v=0
88368 On ch=3 n=f6 v=60
88368 On ch=3 n=f6 v=60
88368 On ch=2 n=f3 v=92
88378 On ch=3 n=f6 v=0
88380 On ch=3 n=g6 v=60
88390 On ch=3 n=g6 v=0
88392 On ch=3 n=f6 v=60
88402 On ch=3 n=f6 v=0
88404 On ch=3 n=g6 v=60
88414 On ch=3 n=g6 v=0
88416 On ch=3 n=f6 v=60
88426 On ch=3 n=f6 v=0
88428 On ch=3 n=g6 v=60
88430 On ch=2 n=f3 v=0
88432 On ch=2 n=c4 v=92
88438 On ch=3 n=g6 v=0
88440 On ch=3 n=f6 v=60
88450 On ch=3 n=f6 v=0
88452 On ch=3 n=g6 v=60
88462 On ch=3 n=g6 v=0
88464 On ch=3 n=f6 v=60
88474 On ch=3 n=f6 v=0
88476 On ch=3 n=g6 v=60
88486 On ch=3 n=g6 v=0
88488 On ch=3 n=f6 v=60
88494 On ch=2 n=c4 v=0
88496 On ch=2 n=a4 v=92
88498 On ch=3 n=f6 v=0
88500 On ch=3 n=g6 v=60
88510 On ch=3 n=g6 v=0
88512 On ch=2 n=a4 v=0
88512 On ch=3 n=f6 v=60
88522 On ch=3 n=f6 v=0
88524 On ch=3 n=g6 v=60
88528 On ch=3 n=f6 v=0
88534 On ch=3 n=g6 v=0
88536 On ch=3 n=c6 v=60
88546 On ch=3 n=c6 v=0
88548 On ch=3 n=c7 v=60
88558 On ch=3 n=c7 v=0
88558 On ch=2 n=a4 v=0
88560 On ch=1 n=f7 v=0
88560 On ch=1 n=f8 v=0
88560 On ch=3 n=a6 v=60
88560 On ch=1 n=e7 v=92
88560 On ch=1 n=e8 v=92
88560 On ch=2 n=c5 v=92
88560 On ch=2 n=a5 v=92
88570 On ch=3 n=a6 v=0
88572 On ch=3 n=a#6 v=60
88582 On ch=3 n=a#6 v=0
88584 On ch=3 n=a6 v=60
88594 On ch=3 n=a6 v=0
88596 On ch=3 n=a#6 v=60
88606 On ch=3 n=a#6 v=0
88608 On ch=3 n=a6 v=60
88618 On ch=3 n=a6 v=0
88620 On ch=3 n=a#6 v=60
88622 On ch=2 n=c5 v=0
88624 On ch=2 n=a4 v=92
88630 On ch=3 n=a#6 v=0
88632 On ch=3 n=a6 v=60
88642 On ch=3 n=a6 v=0
88644 On ch=3 n=a#6 v=60
88654 On ch=3 n=a#6 v=0
88656 On ch=3 n=a6 v=60
88666 On ch=3 n=a6 v=0
88668 On ch=3 n=a#6 v=60
88678 On ch=3 n=a#6 v=0
88680 On ch=3 n=a6 v=60
88686 On ch=2 n=a4 v=0
88688 On ch=2 n=c4 v=92
88690 On ch=3 n=a6 v=0
88692 On ch=3 n=a#6 v=60
88702 On ch=3 n=a#6 v=0
88704 On ch=1 n=e7 v=0
88704 On ch=1 n=e8 v=0
88704 On ch=3 n=a6 v=60
88704 On ch=1 n=d#8 v=92
88714 On ch=3 n=a6 v=0
88716 On ch=3 n=d#6 v=60
88720 On ch=2 n=a5 v=0
88726 On ch=3 n=d#6 v=0
88728 On ch=3 n=f6 v=60
88738 On ch=3 n=f6 v=0
88740 On ch=3 n=g6 v=60
88750 On ch=2 n=c4 v=0
88750 On ch=3 n=g6 v=0
88752 On ch=1 n=d#8 v=0
88752 Par ch=2 c=64 v=0
88752 Par ch=2 c=64 v=127
88752 On ch=3 n=a6 v=60
88752 On ch=1 n=e7 v=92
88752 On ch=1 n=d#8 v=92
88752 On ch=2 n=a4 v=92
88752 On ch=2 n=c5 v=92
88752 On ch=2 n=g5 v=92
88762 On ch=3 n=a6 v=0
88764 On ch=3 n=a#6 v=60
88774 On ch=3 n=a#6 v=0
88776 On ch=3 n=a6 v=60
88786 On ch=3 n=a6 v=0
88788 On ch=3 n=a#6 v=60
88798 On ch=3 n=a#6 v=0
88800 On ch=3 n=a6 v=60
88810 On ch=3 n=a6 v=0
88812 On ch=3 n=a#6 v=60
88822 On ch=3 n=a#6 v=0
88824 On ch=3 n=a6 v=60
88834 On ch=3 n=a6 v=0
88836 On ch=3 n=a#6 v=60
88846 On ch=3 n=a#6 v=0
88848 On ch=3 n=a6 v=60
88858 On ch=3 n=a6 v=0
88860 On ch=3 n=a#6 v=60
88870 On ch=3 n=a#6 v=0
88872 On ch=3 n=a6 v=60
88880 On ch=2 n=f3 v=92
88880 On ch=2 n=c4 v=92
88882 On ch=3 n=a6 v=0
88884 On ch=3 n=a#6 v=60
88894 On ch=3 n=a#6 v=0
88896 On ch=3 n=a6 v=60
88906 On ch=3 n=a6 v=0
88908 On ch=3 n=a#6 v=60
88918 On ch=3 n=a#6 v=0
88920 On ch=3 n=e6 v=60
88930 On ch=3 n=e6 v=0
88932 On ch=3 n=a6 v=60
88942 On ch=3 n=a6 v=0
88942 On ch=2 n=f3 v=0
88942 On ch=2 n=c4 v=0
88944 On ch=3 n=e6 v=60
88944 On ch=3 n=e6 v=60
88944 On ch=2 n=a4 v=92
88954 On ch=3 n=e6 v=0
88956 On ch=3 n=f6 v=60
88966 On ch=3 n=f6 v=0
88968 On ch=3 n=e6 v=60
88978 On ch=3 n=e6 v=0
88980 On ch=3 n=f6 v=60
88990 On ch=3 n=f6 v=0
88992 On ch=3 n=e6 v=60
89002 On ch=3 n=e6 v=0
89004 On ch=3 n=f6 v=60
89006 On ch=2 n=a4 v=0
89008 On ch=2 n=c4 v=92
89014 On ch=3 n=f6 v=0
89016 On ch=3 n=e6 v=60
89026 On ch=3 n=e6 v=0
89028 On ch=3 n=f6 v=60
89038 On ch=3 n=f6 v=0
89040 On ch=3 n=e6 v=60
89050 On ch=3 n=e6 v=0
89052 On ch=3 n=f6 v=60
89062 On ch=3 n=f6 v=0
89064 On ch=3 n=e6 v=60
89070 On ch=2 n=c4 v=0
89072 On ch=2 n=d#5 v=92
89074 On ch=3 n=e6 v=0
89076 On ch=3 n=f6 v=60
89086 On ch=3 n=f6 v=0
89088 On ch=2 n=a4 v=0
89088 On ch=2 n=c5 v=0
89088 On ch=2 n=g5 v=0
89088 On ch=3 n=e6 v=60
89098 On ch=3 n=e6 v=0
89100 On ch=3 n=f6 v=60
89104 On ch=3 n=e6 v=0
89110 On ch=3 n=f6 v=0
89112 On ch=3 n=a5 v=60
89122 On ch=3 n=a5 v=0
89124 On ch=3 n=a6 v=60
89134 On ch=2 n=d#5 v=0
89134 On ch=3 n=a6 v=0
89136 On ch=1 n=e7 v=0
89136 On ch=1 n=d#8 v=0
89136 On ch=3 n=a6 v=60
89136 On ch=1 n=d7 v=92
89136 On ch=1 n=d8 v=92
89136 On ch=2 n=a4 v=92
89136 On ch=2 n=c5 v=92
89136 On ch=2 n=f#5 v=92
89146 On ch=3 n=a6 v=0
89148 On ch=3 n=a#6 v=60
89158 On ch=3 n=a#6 v=0
89160 On ch=3 n=a6 v=60
89170 On ch=3 n=a6 v=0
89172 On ch=3 n=a#6 v=60
89182 On ch=3 n=a#6 v=0
89184 On ch=3 n=a6 v=60
89194 On ch=3 n=a6 v=0
89196 On ch=3 n=a#6 v=60
89198 On ch=2 n=a4 v=0
89200 On ch=2 n=d4 v=92
89206 On ch=3 n=a#6 v=0
89208 On ch=3 n=a6 v=60
89218 On ch=3 n=a6 v=0
89220 On ch=3 n=a#6 v=60
89230 On ch=3 n=a#6 v=0
89232 On ch=3 n=a6 v=60
89242 On ch=3 n=a6 v=0
89244 On ch=3 n=a#6 v=60
89254 On ch=3 n=a#6 v=0
89256 On ch=3 n=a6 v=60
89262 On ch=2 n=d4 v=0
89264 On ch=2 n=a4 v=92
89266 On ch=3 n=a6 v=0
89268 On ch=3 n=a#6 v=60
89278 On ch=3 n=a#6 v=0
89280 On ch=1 n=d7 v=0
89280 On ch=1 n=d8 v=0
89280 On ch=3 n=c#6 v=60
89280 On ch=1 n=c#6 v=92
89280 On ch=1 n=f6 v=92
89280 On ch=1 n=c#8 v=92
89290 On ch=3 n=c#6 v=0
89292 On ch=3 n=e6 v=60
89302 On ch=3 n=e6 v=0
89304 On ch=3 n=f6 v=60
89314 On ch=3 n=f6 v=0
89316 On ch=3 n=g6 v=60
89326 On ch=3 n=g6 v=0
89328 On ch=1 n=c#6 v=0
89328 On ch=1 n=f6 v=0
89328 On ch=1 n=c#8 v=0
89328 Par ch=2 c=64 v=0
89328 Par ch=2 c=64 v=127
89328 On ch=3 n=a6 v=60
89328 On ch=1 n=d7 v=92
89328 On ch=1 n=c#8 v=92
89328 On ch=2 n=c#5 v=92
89328 On ch=2 n=f5 v=92
89338 On ch=3 n=a6 v=0
89340 On ch=3 n=g6 v=60
89350 On ch=3 n=g6 v=0
89352 On ch=3 n=a6 v=60
89362 On ch=3 n=a6 v=0
89364 On ch=3 n=g6 v=60
89374 On ch=3 n=g6 v=0
89376 On ch=3 n=a6 v=60
89386 On ch=3 n=a6 v=0
89388 On ch=3 n=g6 v=60
89392 On ch=2 n=c5 v=0
89392 On ch=2 n=f#5 v=0
89398 On ch=3 n=g6 v=0
89400 On ch=3 n=a6 v=60
89410 On ch=3 n=a6 v=0
89412 On ch=3 n=g6 v=60
89422 On ch=3 n=g6 v=0
89424 On ch=3 n=a6 v=60
89434 On ch=3 n=a6 v=0
89436 On ch=3 n=g6 v=60
89446 On ch=3 n=g6 v=0
89448 On ch=3 n=a6 v=60
89456 On ch=2 n=f2 v=92
89458 On ch=3 n=a6 v=0
89460 On ch=3 n=g6 v=60
89470 On ch=3 n=g6 v=0
89472 On ch=3 n=a6 v=60
89482 On ch=3 n=a6 v=0
89484 On ch=3 n=d6 v=60
89494 On ch=3 n=d6 v=0
89496 On ch=3 n=a6 v=60
89506 On ch=3 n=a6 v=0
89508 On ch=3 n=c#6 v=60
89508 On ch=3 n=c#6 v=60
89518 On ch=2 n=f2 v=0
89518 On ch=3 n=c#6 v=0
89520 On ch=3 n=e6 v=60
89520 On ch=2 n=f3 v=92
89530 On ch=3 n=e6 v=0
89532 On ch=3 n=c#6 v=60
89542 On ch=3 n=c#6 v=0
89544 On ch=3 n=e6 v=60
89554 On ch=3 n=e6 v=0
89556 On ch=3 n=c#6 v=60
89566 On ch=3 n=c#6 v=0
89568 On ch=3 n=e6 v=60
89578 On ch=3 n=e6 v=0
89580 On ch=3 n=c#6 v=60
89582 On ch=2 n=f3 v=0
89584 On ch=2 n=d#4 v=92
89590 On ch=3 n=c#6 v=0
89592 On ch=3 n=e6 v=60
89602 On ch=3 n=e6 v=0
89604 On ch=3 n=c#6 v=60
89614 On ch=3 n=c#6 v=0
89616 On ch=3 n=e6 v=60
89626 On ch=3 n=e6 v=0
89628 On ch=3 n=c#6 v=60
89638 On ch=3 n=c#6 v=0
89640 On ch=3 n=e6 v=60
89646 On ch=2 n=d#4 v=0
89648 On ch=2 n=a4 v=92
89650 On ch=3 n=e6 v=0
89652 On ch=3 n=c#6 v=60
89662 On ch=3 n=c#6 v=0
89664 On ch=2 n=a4 v=0
89664 On ch=2 n=c#5 v=0
89664 On ch=2 n=f5 v=0
89664 On ch=3 n=e6 v=60
89668 On ch=3 n=c#6 v=0
89674 On ch=3 n=e6 v=0
89676 On ch=3 n=c#6 v=60
89686 On ch=3 n=c#6 v=0
89688 On ch=3 n=a5 v=60
89698 On ch=3 n=a5 v=0
89700 On ch=3 n=a6 v=60
89710 On ch=3 n=a6 v=0
89712 On ch=1 n=c#8 v=0
89712 On ch=1 n=d7 v=0
89712 On ch=3 n=f6 v=60
89712 On ch=1 n=c7 v=92
89712 On ch=1 n=c8 v=92
89712 On ch=2 n=c5 v=92
89712 On ch=2 n=e5 v=92
89722 On ch=3 n=f6 v=0
89724 On ch=3 n=g6 v=60
89734 On ch=3 n=g6 v=0
89736 On ch=3 n=f6 v=60
89746 On ch=3 n=f6 v=0
89748 On ch=3 n=g6 v=60
89758 On ch=3 n=g6 v=0
89760 On ch=3 n=f6 v=60
89770 On ch=3 n=f6 v=0
89772 On ch=3 n=g6 v=60
89774 On ch=2 n=a4 v=0
89776 On ch=2 n=e4 v=92
89782 On ch=3 n=g6 v=0
89784 On ch=3 n=f6 v=60
89794 On ch=3 n=f6 v=0
89796 On ch=3 n=g6 v=60
89806 On ch=3 n=g6 v=0
89808 On ch=3 n=f6 v=60
89818 On ch=3 n=f6 v=0
89820 On ch=3 n=g6 v=60
89830 On ch=3 n=g6 v=0
89832 On ch=3 n=f6 v=60
89838 On ch=2 n=e4 v=0
89840 On ch=2 n=f4 v=92
89842 On ch=3 n=f6 v=0
89844 On ch=3 n=g6 v=60
89854 On ch=3 n=g6 v=0
89854 On ch=2 n=c5 v=0
89854 On ch=2 n=e5 v=0
89856 On ch=1 n=c7 v=0
89856 On ch=1 n=c8 v=0
89856 On ch=3 n=f6 v=60
89856 On ch=1 n=a5 v=92
89856 On ch=1 n=d#6 v=92
89856 On ch=1 n=b7 v=92
89866 On ch=3 n=f6 v=0
89868 On ch=3 n=g6 v=60
89878 On ch=3 n=g6 v=0
89880 On ch=3 n=f6 v=60
89890 On ch=3 n=f6 v=0
89892 On ch=3 n=g6 v=60
89902 On ch=3 n=g6 v=0
89904 On ch=1 n=a5 v=0
89904 On ch=1 n=d#6 v=0
89904 On ch=1 n=b7 v=0
89904 Par ch=2 c=64 v=0
89904 TimeSig 2/4 24 8
89904 Par ch=2 c=64 v=127
89904 On ch=3 n=b5 v=60
89904 On ch=1 n=b6 v=92
89904 On ch=1 n=b7 v=92
89904 On ch=2 n=a4 v=92
89904 On ch=2 n=d#5 v=92
89914 On ch=3 n=b5 v=0
89916 On ch=3 n=f6 v=60
89926 On ch=3 n=f6 v=0
89928 On ch=3 n=f6 v=60
89938 On ch=3 n=f6 v=0
89940 On ch=3 n=g6 v=60
89950 On ch=3 n=g6 v=0
89952 On ch=3 n=f6 v=60
89962 On ch=3 n=f6 v=0
89964 On ch=3 n=g6 v=60
89974 On ch=3 n=g6 v=0
89976 On ch=3 n=f6 v=60
89986 On ch=3 n=f6 v=0
89988 On ch=3 n=g6 v=60
89998 On ch=3 n=g6 v=0
90000 On ch=3 n=f6 v=60
90010 On ch=3 n=f6 v=0
90012 On ch=3 n=g6 v=60
90022 On ch=3 n=g6 v=0
90024 On ch=3 n=f6 v=60
90032 On ch=2 n=f3 v=92
90034 On ch=3 n=f6 v=0
90036 On ch=3 n=g6 v=60
90046 On ch=3 n=g6 v=0
90048 On ch=3 n=f6 v=60
90058 On ch=3 n=f6 v=0
90060 On ch=3 n=g6 v=60
90070 On ch=3 n=g6 v=0
90072 On ch=3 n=b5 v=60
90082 On ch=3 n=b5 v=0
90084 On ch=3 n=f6 v=60
90094 On ch=3 n=f6 v=0
90094 On ch=2 n=f3 v=0
90096 On ch=3 n=b5 v=60
90096 On ch=3 n=b5 v=60
90096 On ch=2 n=d#4 v=92
90106 On ch=3 n=b5 v=0
90108 On ch=3 n=c6 v=60
90118 On ch=3 n=c6 v=0
90120 On ch=3 n=b5 v=60
90130 On ch=3 n=b5 v=0
90132 On ch=3 n=c6 v=60
90142 On ch=3 n=c6 v=0
90144 On ch=3 n=b5 v=60
90154 On ch=3 n=b5 v=0
90156 On ch=3 n=c6 v=60
90158 On ch=2 n=d#4 v=0
90160 On ch=2 n=a4 v=92
90166 On ch=3 n=c6 v=0
90168 On ch=3 n=b5 v=60
90178 On ch=3 n=b5 v=0
90180 On ch=3 n=c6 v=60
90190 On ch=3 n=c6 v=0
90192 On ch=3 n=b5 v=60
90202 On ch=3 n=b5 v=0
90204 On ch=3 n=c6 v=60
90214 On ch=3 n=c6 v=0
90216 On ch=3 n=b5 v=60
90222 On ch=2 n=a4 v=0
90224 On ch=2 n=d#5 v=92
90226 On ch=3 n=b5 v=0
90228 On ch=3 n=c6 v=60
90238 On ch=3 n=c6 v=0
90240 On ch=2 n=f4 v=0
90240 On ch=2 n=a4 v=0
90240 On ch=2 n=d#5 v=0
90240 On ch=3 n=b5 v=60
90250 On ch=3 n=b5 v=0
90252 On ch=3 n=c6 v=60
90256 On ch=3 n=b5 v=0
90262 On ch=3 n=c6 v=0
90264 On ch=3 n=f5 v=60
90274 On ch=3 n=f5 v=0
90276 On ch=3 n=f6 v=60
90286 On ch=2 n=d#5 v=0
90286 On ch=3 n=f6 v=0
90288 On ch=1 n=b6 v=0
90288 On ch=1 n=b7 v=0
90288 Par ch=2 c=64 v=0
90288 Par ch=2 c=64 v=127
90288 On ch=3 n=f6 v=60
90288 On ch=1 n=a#6 v=92
90288 On ch=1 n=a#7 v=92
90288 On ch=2 n=d4 v=92
90288 On ch=2 n=f4 v=92
90288 On ch=2 n=d5 v=92
90298 On ch=3 n=f6 v=0
90300 On ch=3 n=g6 v=60
90310 On ch=3 n=g6 v=0
90312 On ch=3 n=f6 v=60
90322 On ch=3 n=f6 v=0
90324 On ch=3 n=g6 v=60
90334 On ch=3 n=g6 v=0
90336 On ch=3 n=f6 v=60
90346 On ch=3 n=f6 v=0
90348 On ch=3 n=g6 v=60
90358 On ch=3 n=g6 v=0
90360 On ch=3 n=f6 v=60
90370 On ch=3 n=f6 v=0
90372 On ch=3 n=g6 v=60
90382 On ch=3 n=g6 v=0
90384 On ch=3 n=f6 v=60
90394 On ch=3 n=f6 v=0
90396 On ch=3 n=g6 v=60
90406 On ch=3 n=g6 v=0
90408 On ch=3 n=f6 v=60
90416 On ch=2 n=f3 v=92
90418 On ch=3 n=f6 v=0
90420 On ch=3 n=g6 v=60
90430 On ch=3 n=g6 v=0
90432 On ch=3 n=f6 v=60
90442 On ch=3 n=f6 v=0
90444 On ch=3 n=g6 v=60
90454 On ch=3 n=g6 v=0
90456 On ch=3 n=a#5 v=60
90466 On ch=3 n=a#5 v=0
90468 On ch=3 n=f6 v=60
90478 On ch=3 n=f6 v=0
90478 On ch=2 n=f3 v=0
90480 On ch=3 n=a#5 v=60
90480 On ch=3 n=a#5 v=60
90480 On ch=2 n=d4 v=92
90490 On ch=3 n=a#5 v=0
90492 On ch=3 n=c6 v=60
90502 On ch=3 n=c6 v=0
90504 On ch=3 n=a#5 v=60
90514 On ch=3 n=a#5 v=0
90516 On ch=3 n=c6 v=60
90526 On ch=3 n=c6 v=0
90528 On ch=3 n=a#5 v=60
90538 On ch=3 n=a#5 v=0
90540 On ch=3 n=c6 v=60
90542 On ch=2 n=d4 v=0
90544 On ch=2 n=d4 v=0
90544 On ch=2 n=f4 v=0
90544 On ch=2 n=d5 v=0
90544 On ch=2 n=f4 v=92
90550 On ch=3 n=c6 v=0
90552 On ch=3 n=a#5 v=60
90562 On ch=3 n=a#5 v=0
90564 On ch=3 n=c6 v=60
90574 On ch=3 n=c6 v=0
90576 On ch=3 n=a#5 v=60
90586 On ch=3 n=a#5 v=0
90588 On ch=3 n=c6 v=60
90598 On ch=3 n=c6 v=0
90600 On ch=3 n=a#5 v=60
90606 On ch=2 n=f4 v=0
90608 On ch=2 n=c#4 v=92
90608 On ch=2 n=f4 v=92
90608 On ch=2 n=c#5 v=92
90610 On ch=3 n=a#5 v=0
90612 On ch=3 n=c6 v=60
90622 On ch=3 n=c6 v=0
90624 On ch=3 n=a#5 v=60
90634 On ch=3 n=a#5 v=0
90636 On ch=3 n=a#5 v=60
90640 On ch=3 n=a#5 v=0
90646 On ch=3 n=a#5 v=0
90648 On ch=3 n=a5 v=60
90658 On ch=3 n=a5 v=0
90660 On ch=3 n=a6 v=60
90670 On ch=2 n=c#4 v=0
90670 On ch=3 n=a6 v=0
90672 On ch=1 n=a#6 v=0
90672 On ch=1 n=a#7 v=0
90672 Par ch=2 c=64 v=0
90672 TimeSig 3/4 24 8
90672 Par ch=2 c=64 v=127
90672 On ch=3 n=f6 v=60
90672 On ch=1 n=a6 v=92
90672 On ch=1 n=a7 v=92
90672 On ch=2 n=c4 v=92
90672 On ch=2 n=a4 v=92
90672 On ch=2 n=c5 v=92
90682 On ch=3 n=f6 v=0
90684 On ch=3 n=g6 v=60
90694 On ch=3 n=g6 v=0
90696 On ch=3 n=f6 v=60
90702 On ch=2 n=f4 v=0
90702 On ch=2 n=c#5 v=0
90706 On ch=3 n=f6 v=0
90708 On ch=3 n=g6 v=60
90718 On ch=3 n=g6 v=0
90720 On ch=3 n=f6 v=60
90730 On ch=3 n=f6 v=0
90732 On ch=3 n=g6 v=60
90742 On ch=3 n=g6 v=0
90744 On ch=3 n=f6 v=60
90754 On ch=3 n=f6 v=0
90756 On ch=3 n=g6 v=60
90766 On ch=3 n=g6 v=0
90768 On ch=3 n=f6 v=60
90778 On ch=3 n=f6 v=0
90780 On ch=3 n=g6 v=60
90790 On ch=3 n=g6 v=0
90792 On ch=3 n=f6 v=60
90800 On ch=2 n=f2 v=92
90802 On ch=3 n=f6 v=0
90804 On ch=3 n=g6 v=60
90814 On ch=3 n=g6 v=0
90816 On ch=3 n=f6 v=60
90826 On ch=3 n=f6 v=0
90828 On ch=3 n=g6 v=60
90838 On ch=3 n=g6 v=0
90840 On ch=3 n=f6 v=60
90850 On ch=3 n=f6 v=0
90852 On ch=3 n=g6 v=60
90862 On ch=3 n=g6 v=0
90862 On ch=2 n=f2 v=0
90864 On ch=1 n=a6 v=0
90864 On ch=1 n=a7 v=0
90864 On ch=3 n=e6 v=60
90864 On ch=1 n=a6 v=92
90864 On ch=1 n=a7 v=92
90864 On ch=2 n=f3 v=92
90874 On ch=3 n=e6 v=0
90876 On ch=3 n=f6 v=60
90886 On ch=3 n=f6 v=0
90888 On ch=3 n=e6 v=60
90898 On ch=3 n=e6 v=0
90900 On ch=3 n=f6 v=60
90910 On ch=3 n=f6 v=0
90912 On ch=3 n=e6 v=60
90922 On ch=3 n=e6 v=0
90924 On ch=3 n=f6 v=60
90926 On ch=2 n=f3 v=0
90928 On ch=2 n=c4 v=92
90934 On ch=3 n=f6 v=0
90936 On ch=3 n=e6 v=60
90946 On ch=3 n=e6 v=0
90948 On ch=3 n=f6 v=60
90958 On ch=3 n=f6 v=0
90960 On ch=3 n=e6 v=60
90970 On ch=3 n=e6 v=0
90972 On ch=3 n=f6 v=60
90982 On ch=3 n=f6 v=0
90984 On ch=3 n=e6 v=60
90990 On ch=2 n=c4 v=0
90992 On ch=2 n=a4 v=92
90994 On ch=3 n=e6 v=0
90996 On ch=3 n=f6 v=60
91006 On ch=3 n=f6 v=0
91008 On ch=1 n=a6 v=0
91008 On ch=1 n=a7 v=0
91008 On ch=2 n=c4 v=0
91008 On ch=2 n=a4 v=0
91008 On ch=2 n=c5 v=0
91008 On ch=3 n=e6 v=60
91008 On ch=1 n=g6 v=92
91008 On ch=1 n=g7 v=92
91018 On ch=3 n=e6 v=0
91020 On ch=3 n=f6 v=60
91030 On ch=3 n=f6 v=0
91032 On ch=3 n=e6 v=60
91042 On ch=3 n=e6 v=0
91044 On ch=3 n=f6 v=60
91054 On ch=3 n=f6 v=0
91056 On ch=1 n=g6 v=0
91056 On ch=1 n=g7 v=0
91056 On ch=3 n=d6 v=60
91056 On ch=1 n=g6 v=92
91056 On ch=1 n=g7 v=92
91056 On ch=2 n=c5 v=92
91066 On ch=3 n=d6 v=0
91068 On ch=3 n=e6 v=60
91078 On ch=3 n=e6 v=0
91080 On ch=3 n=d6 v=60
91090 On ch=3 n=d6 v=0
91092 On ch=3 n=e6 v=60
91102 On ch=3 n=e6 v=0
91104 On ch=3 n=d6 v=60
91114 On ch=3 n=d6 v=0
91116 On ch=3 n=e6 v=60
91118 On ch=2 n=a4 v=0
91120 On ch=2 n=c4 v=92
91126 On ch=3 n=e6 v=0
91128 On ch=3 n=d6 v=60
91138 On ch=3 n=d6 v=0
91140 On ch=3 n=e6 v=60
91150 On ch=3 n=e6 v=0
91152 On ch=3 n=d6 v=60
91162 On ch=3 n=d6 v=0
91164 On ch=3 n=e6 v=60
91174 On ch=3 n=e6 v=0
91176 On ch=3 n=d6 v=60
91182 On ch=2 n=c4 v=0
91184 On ch=2 n=f3 v=92
91186 On ch=3 n=d6 v=0
91188 On ch=3 n=e6 v=60
91198 On ch=3 n=e6 v=0
91200 On ch=3 n=d6 v=60
91210 On ch=3 n=d6 v=0
91212 On ch=3 n=e6 v=60
91216 On ch=2 n=c5 v=0
91222 On ch=3 n=e6 v=0
91224 On ch=3 n=d6 v=60
91234 On ch=3 n=d6 v=0
91236 On ch=3 n=e6 v=60
91246 On ch=3 n=e6 v=0
91246 On ch=2 n=f3 v=0
91248 Par ch=2 c=64 v=0
91248 Par ch=2 c=64 v=127
91248 On ch=3 n=c6 v=60
91248 On ch=2 n=a5 v=92
91248 On ch=2 n=c6 v=92
91258 On ch=3 n=c6 v=0
91260 On ch=3 n=d6 v=60
91270 On ch=3 n=d6 v=0
91272 On ch=3 n=c6 v=60
91282 On ch=3 n=c6 v=0
91284 On ch=3 n=d6 v=60
91294 On ch=3 n=d6 v=0
91296 On ch=3 n=c6 v=60
91306 On ch=3 n=c6 v=0
91308 On ch=3 n=d6 v=60
91318 On ch=3 n=d6 v=0
91320 On ch=3 n=c6 v=60
91330 On ch=3 n=c6 v=0
91332 On ch=3 n=d6 v=60
91342 On ch=3 n=d6 v=0
91344 On ch=3 n=c6 v=60
91354 On ch=3 n=c6 v=0
91356 On ch=3 n=d6 v=60
91366 On ch=3 n=d6 v=0
91368 On ch=3 n=c6 v=60
91374 On ch=2 n=a5 v=0
91376 On ch=2 n=c5 v=92
91378 On ch=3 n=c6 v=0
91380 On ch=3 n=d6 v=60
91390 On ch=3 n=d6 v=0
91392 On ch=3 n=c6 v=60
91402 On ch=3 n=c6 v=0
91404 On ch=3 n=d6 v=60
91408 On ch=2 n=c6 v=0
91414 On ch=3 n=d6 v=0
91416 On ch=3 n=c6 v=60
91426 On ch=3 n=c6 v=0
91428 On ch=3 n=d6 v=60
91438 On ch=2 n=c5 v=0
91438 On ch=3 n=d6 v=0
91440 On ch=1 n=g6 v=0
91440 On ch=1 n=g7 v=0
91440 On ch=3 n=c6 v=60
91440 On ch=1 n=f#7 v=92
91440 On ch=2 n=f#5 v=92
91440 On ch=2 n=a#5 v=92
91450 On ch=3 n=c6 v=0
91452 On ch=3 n=d6 v=60
91462 On ch=3 n=d6 v=0
91464 On ch=3 n=c6 v=60
91474 On ch=3 n=c6 v=0
91476 On ch=3 n=d6 v=60
91486 On ch=3 n=d6 v=0
91488 On ch=3 n=c6 v=60
91498 On ch=3 n=c6 v=0
91500 On ch=3 n=d6 v=60
91502 On ch=2 n=f#5 v=0
91504 On ch=2 n=c5 v=92
91510 On ch=3 n=d6 v=0
91512 On ch=3 n=c6 v=60
91522 On ch=3 n=c6 v=0
91524 On ch=3 n=d6 v=60
91534 On ch=3 n=d6 v=0
91536 On ch=3 n=c6 v=60
91546 On ch=3 n=c6 v=0
91548 On ch=3 n=d6 v=60
91558 On ch=3 n=d6 v=0
91560 On ch=3 n=c6 v=60
91568 On ch=2 n=a#4 v=92
91570 On ch=3 n=c6 v=0
91572 On ch=3 n=d6 v=60
91582 On ch=3 n=d6 v=0
91582 On ch=2 n=a#5 v=0
91584 On ch=1 n=f#7 v=0
91584 On ch=3 n=c6 v=60
91584 On ch=1 n=f6 v=92
91584 On ch=1 n=a6 v=92
91584 On ch=1 n=f7 v=92
91594 On ch=3 n=c6 v=0
91596 On ch=3 n=d6 v=60
91606 On ch=3 n=d6 v=0
91608 On ch=3 n=c6 v=60
91618 On ch=3 n=c6 v=0
91620 On ch=3 n=d6 v=60
91630 On ch=3 n=d6 v=0
91630 On ch=2 n=a#4 v=0
91632 On ch=1 n=f6 v=0
91632 On ch=1 n=a6 v=0
91632 On ch=1 n=f7 v=0
91632 On ch=3 n=c6 v=60
91632 On ch=1 n=f7 v=92
91632 On ch=2 n=f5 v=92
91632 On ch=2 n=a5 v=92
91642 On ch=3 n=c6 v=0
91644 On ch=3 n=d6 v=60
91654 On ch=3 n=d6 v=0
91656 On ch=3 n=c6 v=60
91666 On ch=3 n=c6 v=0
91668 On ch=3 n=d6 v=60
91678 On ch=3 n=d6 v=0
91680 On ch=3 n=c6 v=60
91690 On ch=3 n=c6 v=0
91692 On ch=3 n=d6 v=60
91694 On ch=2 n=c5 v=0
91696 On ch=2 n=c5 v=92
91702 On ch=3 n=d6 v=0
91704 On ch=3 n=c6 v=60
91714 On ch=3 n=c6 v=0
91716 On ch=3 n=d6 v=60
91726 On ch=3 n=d6 v=0
91728 On ch=3 n=c6 v=60
91738 On ch=3 n=c6 v=0
91740 On ch=3 n=d6 v=60
91750 On ch=3 n=d6 v=0
91752 On ch=3 n=c6 v=60
91758 On ch=2 n=c5 v=0
91760 On ch=2 n=a4 v=92
91762 On ch=3 n=c6 v=0
91764 On ch=3 n=d6 v=60
91774 On ch=3 n=d6 v=0
91776 On ch=3 n=c6 v=60
91786 On ch=3 n=c6 v=0
91788 On ch=3 n=d6 v=60
91792 On ch=2 n=f5 v=0
91792 On ch=2 n=a5 v=0
91798 On ch=3 n=d6 v=0
91800 On ch=3 n=f5 v=60
91810 On ch=3 n=f5 v=0
91812 On ch=3 n=c6 v=60
91822 On ch=2 n=a4 v=0
91822 On ch=3 n=c6 v=0
91824 Par ch=2 c=64 v=0
91824 Par ch=2 c=64 v=127
91824 On ch=3 n=f6 v=60
91824 On ch=1 n=c8 v=92
91824 On ch=2 n=f3 v=92
91824 On ch=2 n=c4 v=92
91834 On ch=3 n=f6 v=0
91836 On ch=3 n=g6 v=60
91846 On ch=3 n=g6 v=0
91848 On ch=3 n=f6 v=60
91858 On ch=3 n=f6 v=0
91860 On ch=3 n=g6 v=60
91870 On ch=3 n=g6 v=0
91872 On ch=3 n=f6 v=60
91882 On ch=3 n=f6 v=0
91884 On ch=3 n=g6 v=60
91886 On ch=2 n=f3 v=0
91886 On ch=2 n=c4 v=0
91888 On ch=2 n=a4 v=92
91894 On ch=3 n=g6 v=0
91896 On ch=3 n=f6 v=60
91906 On ch=3 n=f6 v=0
91908 On ch=3 n=g6 v=60
91918 On ch=3 n=g6 v=0
91920 On ch=3 n=f6 v=60
91930 On ch=3 n=f6 v=0
91932 On ch=3 n=g6 v=60
91942 On ch=3 n=g6 v=0
91944 On ch=3 n=f6 v=60
91950 On ch=2 n=a4 v=0
91952 On ch=2 n=c5 v=92
91954 On ch=3 n=f6 v=0
91956 On ch=3 n=g6 v=60
91966 On ch=3 n=g6 v=0
91968 On ch=3 n=f6 v=60
91978 On ch=3 n=f6 v=0
91980 On ch=3 n=g6 v=60
91984 On ch=1 n=f7 v=0
91984 On ch=1 n=c8 v=0
91990 On ch=3 n=g6 v=0
91992 On ch=3 n=e6 v=60
92002 On ch=3 n=e6 v=0
92004 On ch=3 n=c7 v=60
92014 On ch=3 n=c7 v=0
92014 On ch=2 n=c5 v=0
92016 On ch=3 n=c6 v=60
92016 On ch=1 n=e6 v=92
92016 On ch=1 n=e7 v=92
92016 On ch=2 n=a4 v=92
92016 On ch=2 n=a4 v=92
92026 On ch=3 n=c6 v=0
92028 On ch=3 n=d6 v=60
92038 On ch=3 n=d6 v=0
92040 On ch=3 n=c6 v=60
92050 On ch=3 n=c6 v=0
92052 On ch=3 n=d6 v=60
92062 On ch=3 n=d6 v=0
92064 On ch=3 n=c6 v=60
92074 On ch=3 n=c6 v=0
92076 On ch=3 n=d6 v=60
92078 On ch=2 n=a4 v=0
92080 On ch=2 n=c4 v=92
92086 On ch=3 n=d6 v=0
92088 On ch=3 n=c6 v=60
92098 On ch=3 n=c6 v=0
92100 On ch=3 n=d6 v=60
92110 On ch=3 n=d6 v=0
92112 On ch=3 n=c6 v=60
92122 On ch=3 n=c6 v=0
92124 On ch=3 n=d6 v=60
92134 On ch=3 n=d6 v=0
92136 On ch=3 n=c6 v=60
92144 On ch=2 n=f3 v=92
92146 On ch=3 n=c6 v=0
92148 On ch=3 n=d6 v=60
92158 On ch=3 n=d6 v=0
92158 On ch=1 n=e6 v=0
92158 On ch=1 n=e7 v=0
92158 On ch=2 n=a4 v=0
92160 On ch=3 n=c6 v=60
92160 On ch=1 n=g5 v=92
92160 On ch=1 n=d#7 v=92
92170 On ch=3 n=c6 v=0
92172 On ch=3 n=d6 v=60
92182 On ch=3 n=d6 v=0
92184 On ch=3 n=d#5 v=60
92194 On ch=3 n=d#5 v=0
92196 On ch=3 n=c6 v=60
92206 On ch=3 n=c6 v=0
92206 On ch=1 n=g5 v=0
92206 On ch=1 n=d#7 v=0
92208 On ch=3 n=c6 v=60
92208 On ch=1 n=d#6 v=92
92208 On ch=1 n=d#7 v=92
92208 On ch=2 n=g4 v=92
92218 On ch=3 n=c6 v=0
92220 On ch=3 n=d6 v=60
92230 On ch=3 n=d6 v=0
92232 On ch=3 n=c6 v=60
92242 On ch=3 n=c6 v=0
92244 On ch=3 n=d6 v=60
92254 On ch=3 n=d6 v=0
92256 On ch=3 n=c6 v=60
92266 On ch=3 n=c6 v=0
92268 On ch=3 n=d6 v=60
92272 On ch=2 n=a5 v=92
92278 On ch=3 n=d6 v=0
92280 On ch=3 n=c6 v=60
92290 On ch=3 n=c6 v=0
92292 On ch=3 n=d6 v=60
92302 On ch=3 n=d6 v=0
92304 On ch=3 n=c6 v=60
92314 On ch=3 n=c6 v=0
92316 On ch=3 n=d6 v=60
92326 On ch=3 n=d6 v=0
92328 On ch=3 n=c6 v=60
92334 On ch=2 n=a5 v=0
92336 On ch=2 n=c5 v=92
92338 On ch=3 n=c6 v=0
92340 On ch=3 n=d6 v=60
92350 On ch=3 n=d6 v=0
92352 On ch=3 n=c6 v=60
92362 On ch=3 n=c6 v=0
92364 On ch=3 n=d6 v=60
92368 On ch=1 n=d#6 v=0
92368 On ch=1 n=d#7 v=0
92368 On ch=2 n=f3 v=0
92368 On ch=2 n=c4 v=0
92368 On ch=2 n=g4 v=0
92374 On ch=3 n=d6 v=0
92376 On ch=3 n=d#5 v=60
92386 On ch=3 n=d#5 v=0
92388 On ch=3 n=c6 v=60
92398 On ch=3 n=c6 v=0
92398 On ch=2 n=c5 v=0
92400 Par ch=2 c=64 v=0
92400 Par ch=2 c=64 v=127
92400 On ch=3 n=e6 v=60
92400 On ch=1 n=c8 v=92
92400 On ch=2 n=a4 v=92
92410 On ch=3 n=e6 v=0
92412 On ch=3 n=f6 v=60
92422 On ch=3 n=f6 v=0
92424 On ch=3 n=e6 v=60
92434 On ch=3 n=e6 v=0
92436 On ch=3 n=f6 v=60
92446 On ch=3 n=f6 v=0
92448 On ch=3 n=e6 v=60
92458 On ch=3 n=e6 v=0
92460 On ch=3 n=f6 v=60
92462 On ch=2 n=a4 v=0
92464 On ch=2 n=d#4 v=92
92470 On ch=3 n=f6 v=0
92472 On ch=3 n=e6 v=60
92482 On ch=3 n=e6 v=0
92484 On ch=3 n=f6 v=60
92494 On ch=3 n=f6 v=0
92496 On ch=3 n=e6 v=60
92506 On ch=3 n=e6 v=0
92508 On ch=3 n=f6 v=60
92518 On ch=3 n=f6 v=0
92520 On ch=3 n=e6 v=60
92526 On ch=2 n=d#4 v=0
92528 On ch=2 n=f3 v=92
92530 On ch=3 n=e6 v=0
92532 On ch=3 n=f6 v=60
92542 On ch=3 n=f6 v=0
92544 On ch=3 n=e6 v=60
92554 On ch=3 n=e6 v=0
92556 On ch=3 n=f6 v=60
92560 On ch=1 n=c8 v=0
92566 On ch=3 n=f6 v=0
92568 On ch=3 n=e6 v=60
92578 On ch=3 n=e6 v=0
92580 On ch=3 n=f6 v=60
92590 On ch=2 n=f3 v=0
92590 On ch=3 n=f6 v=0
92592 On ch=3 n=c6 v=60
92592 On ch=1 n=d6 v=92
92592 On ch=1 n=d7 v=92
92592 On ch=2 n=f#4 v=92
92592 On ch=2 n=f#4 v=92
92602 On ch=3 n=c6 v=0
92604 On ch=3 n=c7 v=60
92614 On ch=3 n=c7 v=0
92616 On ch=3 n=a#5 v=60
92626 On ch=3 n=a#5 v=0
92628 On ch=3 n=c6 v=60
92638 On ch=3 n=c6 v=0
92640 On ch=3 n=a#5 v=60
92650 On ch=3 n=a#5 v=0
92652 On ch=3 n=c6 v=60
92654 On ch=2 n=f#4 v=0
92656 On ch=2 n=f2 v=92
92662 On ch=3 n=c6 v=0
92664 On ch=3 n=a#5 v=60
92674 On ch=3 n=a#5 v=0
92676 On ch=3 n=c6 v=60
92686 On ch=3 n=c6 v=0
92688 On ch=3 n=a#5 v=60
92698 On ch=3 n=a#5 v=0
92700 On ch=3 n=c6 v=60
92710 On ch=3 n=c6 v=0
92712 On ch=3 n=a#5 v=60
92718 On ch=2 n=f2 v=0
92720 On ch=2 n=f4 v=92
92720 On ch=2 n=f4 v=92
92722 On ch=3 n=a#5 v=0
92724 On ch=3 n=c6 v=60
92734 On ch=3 n=c6 v=0
92734 On ch=1 n=d6 v=0
92734 On ch=1 n=d7 v=0
92736 On ch=3 n=a#5 v=60
92736 On ch=1 n=c#7 v=92
92746 On ch=3 n=a#5 v=0
92748 On ch=3 n=c6 v=60
92752 On ch=2 n=f#4 v=0
92758 On ch=3 n=c6 v=0
92760 On ch=3 n=a#5 v=60
92770 On ch=3 n=a#5 v=0
92772 On ch=3 n=c6 v=60
92782 On ch=3 n=c6 v=0
92782 On ch=1 n=c#7 v=0
92782 On ch=2 n=f4 v=0
92784 On ch=3 n=c#5 v=60
92784 On ch=1 n=c#6 v=92
92784 On ch=1 n=c#7 v=92
92784 On ch=2 n=f4 v=92
92784 On ch=2 n=f4 v=92
92794 On ch=3 n=c#5 v=0
92796 On ch=3 n=a#5 v=60
92806 On ch=3 n=a#5 v=0
92808 On ch=3 n=a5 v=60
92814 On ch=2 n=f4 v=0
92818 On ch=3 n=a5 v=0
92820 On ch=3 n=a#5 v=60
92830 On ch=3 n=a#5 v=0
92832 On ch=3 n=a5 v=60
92842 On ch=3 n=a5 v=0
92844 On ch=3 n=a#5 v=60
92846 On ch=2 n=f4 v=0
92848 On ch=2 n=f5 v=92
92854 On ch=3 n=a#5 v=0
92856 On ch=3 n=a5 v=60
92866 On ch=3 n=a5 v=0
92868 On ch=3 n=a#5 v=60
92878 On ch=3 n=a#5 v=0
92880 On ch=3 n=a5 v=60
92890 On ch=3 n=a5 v=0
92892 On ch=3 n=a#5 v=60
92902 On ch=3 n=a#5 v=0
92904 On ch=3 n=a5 v=60
92910 On ch=2 n=f5 v=0
92912 On ch=2 n=a4 v=92
92914 On ch=3 n=a5 v=0
92916 On ch=3 n=a#5 v=60
92926 On ch=3 n=a#5 v=0
92928 On ch=3 n=a5 v=60
92938 On ch=3 n=a5 v=0
92940 On ch=3 n=a#5 v=60
92944 On ch=1 n=c#6 v=0
92944 On ch=1 n=c#7 v=0
92944 On ch=2 n=f4 v=0
92950 On ch=3 n=a#5 v=0
92952 On ch=3 n=c#5 v=60
92962 On ch=3 n=c#5 v=0
92964 On ch=3 n=a5 v=60
92974 On ch=2 n=a4 v=0
92974 On ch=3 n=a5 v=0
92976 Par ch=2 c=64 v=0
92976 Par ch=2 c=64 v=127
92976 On ch=3 n=e6 v=60
92976 On ch=1 n=a7 v=92
92976 On ch=2 n=f4 v=92
92986 On ch=3 n=e6 v=0
92988 On ch=3 n=e6 v=60
92998 On ch=3 n=e6 v=0
93000 On ch=3 n=e6 v=60
93010 On ch=3 n=e6 v=0
93012 On ch=3 n=e6 v=60
93022 On ch=3 n=e6 v=0
93024 On ch=3 n=e6 v=60
93034 On ch=3 n=e6 v=0
93036 On ch=3 n=e6 v=60
93038 On ch=2 n=f4 v=0
93040 On ch=2 n=c#4 v=92
93046 On ch=3 n=e6 v=0
93048 On ch=3 n=e6 v=60
93058 On ch=3 n=e6 v=0
93060 On ch=3 n=e6 v=60
93070 On ch=3 n=e6 v=0
93072 On ch=3 n=e6 v=60
93082 On ch=3 n=e6 v=0
93084 On ch=3 n=e6 v=60
93094 On ch=3 n=e6 v=0
93096 On ch=3 n=e6 v=60
93102 On ch=2 n=c#4 v=0
93104 On ch=2 n=f3 v=92
93106 On ch=3 n=e6 v=0
93108 On ch=3 n=e6 v=60
93118 On ch=3 n=e6 v=0
93120 On ch=3 n=e6 v=60
93130 On ch=3 n=e6 v=0
93132 On ch=3 n=e6 v=60
93136 On ch=1 n=a7 v=0
93142 On ch=3 n=e6 v=0
93144 On ch=3 n=a5 v=60
93154 On ch=3 n=a5 v=0
93156 On ch=3 n=a6 v=60
93166 On ch=3 n=a6 v=0
93166 On ch=2 n=f3 v=0
93168 On ch=3 n=a5 v=60
93168 On ch=1 n=c6 v=92
93168 On ch=1 n=c7 v=92
93168 On ch=2 n=e4 v=92
93168 On ch=2 n=e4 v=92
93178 On ch=3 n=a5 v=0
93180 On ch=3 n=a#5 v=60
93190 On ch=3 n=a#5 v=0
93192 On ch=3 n=a5 v=60
93202 On ch=3 n=a5 v=0
93204 On ch=3 n=a#5 v=60
93214 On ch=3 n=a#5 v=0
93216 On ch=3 n=a5 v=60
93226 On ch=3 n=a5 v=0
93228 On ch=3 n=a#5 v=60
93230 On ch=2 n=e4 v=0
93232 On ch=2 n=f3 v=92
93238 On ch=3 n=a#5 v=0
93240 On ch=3 n=a5 v=60
93250 On ch=3 n=a5 v=0
93252 On ch=3 n=a#5 v=60
93262 On ch=3 n=a#5 v=0
93264 On ch=3 n=a5 v=60
93274 On ch=3 n=a5 v=0
93276 On ch=3 n=a#5 v=60
93286 On ch=3 n=a#5 v=0
93288 On ch=3 n=a5 v=60
93294 On ch=2 n=f3 v=0
93296 On ch=2 n=f2 v=92
93298 On ch=3 n=a5 v=0
93300 On ch=3 n=a#5 v=60
93310 On ch=3 n=a#5 v=0
93310 On ch=1 n=c6 v=0
93310 On ch=1 n=c7 v=0
93312 On ch=3 n=g5 v=60
93312 On ch=1 n=b6 v=92
93322 On ch=3 n=g5 v=0
93324 On ch=3 n=a5 v=60
93328 On ch=2 n=e4 v=0
93334 On ch=3 n=a5 v=0
93336 On ch=3 n=a5 v=60
93346 On ch=3 n=a5 v=0
93348 On ch=3 n=a#5 v=60
93358 On ch=2 n=f2 v=0
93358 On ch=3 n=a#5 v=0
93358 On ch=1 n=b6 v=0
93360 On ch=3 n=b4 v=60
93360 On ch=1 n=b5 v=92
93360 On ch=1 n=b6 v=92
93360 On ch=2 n=d#4 v=92
93360 On ch=2 n=d#4 v=92
93370 On ch=3 n=b4 v=0
93372 On ch=3 n=a5 v=60
93382 On ch=3 n=a5 v=0
93384 On ch=3 n=g#5 v=60
93394 On ch=3 n=g#5 v=0
93396 On ch=3 n=a#5 v=60
93406 On ch=3 n=a#5 v=0
93408 On ch=3 n=g#5 v=60
93418 On ch=3 n=g#5 v=0
93420 On ch=3 n=a#5 v=60
93422 On ch=2 n=d#4 v=0
93424 On ch=2 n=f3 v=92
93430 On ch=3 n=a#5 v=0
93432 On ch=3 n=g#5 v=60
93442 On ch=3 n=g#5 v=0
93444 On ch=3 n=a#5 v=60
93454 On ch=3 n=a#5 v=0
93456 On ch=3 n=g#5 v=60
93466 On ch=3 n=g#5 v=0
93468 On ch=3 n=a#5 v=60
93478 On ch=3 n=a#5 v=0
93480 On ch=3 n=g#5 v=60
93486 On ch=2 n=f3 v=0
93488 On ch=2 n=f2 v=91
93490 On ch=3 n=g#5 v=0
93492 On ch=3 n=a#5 v=60
93502 On ch=3 n=a#5 v=0
93504 On ch=3 n=g#5 v=60
93514 On ch=3 n=g#5 v=0
93516 On ch=3 n=a#5 v=60
93520 On ch=1 n=b5 v=0
93520 On ch=1 n=b6 v=0
93520 On ch=2 n=d#4 v=0
93526 On ch=3 n=a#5 v=0
93528 On ch=3 n=g#5 v=60
93538 On ch=3 n=g#5 v=0
93540 On ch=3 n=a#5 v=60
93550 On ch=3 n=a#5 v=0
93550 On ch=2 n=f2 v=0
93552 Par ch=2 c=64 v=0
93552 Par ch=2 c=64 v=127
93552 On ch=3 n=c5 v=60
93552 On ch=1 n=b6 v=90
93552 On ch=2 n=d4 v=90
93552 On ch=2 n=d4 v=90
93562 On ch=3 n=c5 v=0
93564 On ch=3 n=a5 v=60
93574 On ch=3 n=a5 v=0
93576 On ch=3 n=g5 v=60
93586 On ch=3 n=g5 v=0
93588 On ch=3 n=a5 v=60
93598 On ch=3 n=a5 v=0
93600 On ch=3 n=g5 v=60
93610 On ch=3 n=g5 v=0
93612 On ch=3 n=a5 v=60
93614 On ch=2 n=d4 v=0
93616 On ch=2 n=f3 v=89
93622 On ch=3 n=a5 v=0
93624 On ch=3 n=g5 v=60
93634 On ch=3 n=g5 v=0
93636 On ch=3 n=a5 v=60
93646 On ch=3 n=a5 v=0
93648 On ch=3 n=g5 v=60
93658 On ch=3 n=g5 v=0
93660 On ch=3 n=a5 v=60
93670 On ch=3 n=a5 v=0
93672 On ch=3 n=g5 v=60
93678 On ch=2 n=f3 v=0
93680 On ch=2 n=f2 v=88
93682 On ch=3 n=g5 v=0
93684 On ch=3 n=a5 v=60
93694 On ch=3 n=a5 v=0
93694 On ch=1 n=b6 v=0
93696 On ch=3 n=g5 v=60
93696 On ch=1 n=a#6 v=88
93706 On ch=3 n=g5 v=0
93708 On ch=3 n=a5 v=60
93712 On ch=2 n=d4 v=0
93718 On ch=3 n=a5 v=0
93720 On ch=3 n=g5 v=60
93730 On ch=3 n=g5 v=0
93732 On ch=3 n=a#4 v=60
93742 On ch=2 n=f2 v=0
93742 On ch=3 n=a#4 v=0
93742 On ch=1 n=a#6 v=0
93744 On ch=3 n=g5 v=60
93744 On ch=1 n=a#5 v=88
93744 On ch=1 n=a#6 v=88
93744 On ch=2 n=c#4 v=87
93744 On ch=2 n=c#4 v=87
93754 On ch=3 n=g5 v=0
93756 On ch=3 n=f#5 v=60
93766 On ch=3 n=f#5 v=0
93768 On ch=3 n=a5 v=60
93778 On ch=3 n=a5 v=0
93780 On ch=3 n=f#5 v=60
93790 On ch=3 n=f#5 v=0
93792 On ch=3 n=a5 v=60
93802 On ch=3 n=a5 v=0
93804 On ch=3 n=f#5 v=60
93806 On ch=2 n=c#4 v=0
93808 On ch=2 n=f3 v=86
93814 On ch=3 n=f#5 v=0
93816 On ch=3 n=a5 v=60
93826 On ch=3 n=a5 v=0
93828 On ch=3 n=f#5 v=60
93838 On ch=3 n=f#5 v=0
93840 On ch=3 n=a5 v=60
93850 On ch=3 n=a5 v=0
93852 On ch=3 n=f#5 v=60
93862 On ch=3 n=f#5 v=0
93864 On ch=3 n=a5 v=60
93870 On ch=2 n=f3 v=0
93872 On ch=2 n=f2 v=85
93874 On ch=3 n=a5 v=0
93876 On ch=3 n=f#5 v=60
93886 On ch=3 n=f#5 v=0
93888 On ch=3 n=a5 v=60
93898 On ch=3 n=a5 v=0
93900 On ch=3 n=f#5 v=60
93904 On ch=1 n=a#5 v=0
93904 On ch=2 n=c#4 v=0
93910 On ch=3 n=f#5 v=0
93912 On ch=3 n=a#4 v=60
93922 On ch=3 n=a#4 v=0
93924 On ch=3 n=f#5 v=60
93934 On ch=3 n=f#5 v=0
93934 On ch=2 n=f2 v=0
93936 On ch=3 n=f5 v=60
93936 On ch=2 n=c4 v=84
93936 On ch=2 n=c4 v=84
93946 On ch=3 n=f5 v=0
93948 On ch=3 n=f#5 v=60
93958 On ch=3 n=f#5 v=0
93960 On ch=3 n=f5 v=60
93970 On ch=3 n=f5 v=0
93972 On ch=3 n=f#5 v=60
93982 On ch=3 n=f#5 v=0
93984 On ch=3 n=f5 v=60
93994 On ch=3 n=f5 v=0
93996 On ch=3 n=f#5 v=60
93998 On ch=2 n=c4 v=0
94000 On ch=2 n=f3 v=83
94006 On ch=3 n=f#5 v=0
94008 On ch=3 n=f5 v=60
94018 On ch=3 n=f5 v=0
94020 On ch=3 n=f#5 v=60
94030 On ch=3 n=f#5 v=0
94032 On ch=3 n=f5 v=60
94042 On ch=3 n=f5 v=0
94044 On ch=3 n=f#5 v=60
94054 On ch=3 n=f#5 v=0
94056 On ch=3 n=f5 v=60
94062 On ch=2 n=f3 v=0
94064 On ch=2 n=f2 v=82
94066 On ch=3 n=f5 v=0
94068 On ch=3 n=f#5 v=60
94078 On ch=3 n=f#5 v=0
94078 On ch=1 n=a#6 v=0
94080 On ch=3 n=f5 v=60
94080 On ch=1 n=a6 v=83
94090 On ch=3 n=f5 v=0
94092 On ch=3 n=f#5 v=60
94096 On ch=2 n=c4 v=0
94102 On ch=3 n=f#5 v=0
94104 On ch=3 n=f5 v=60
94114 On ch=3 n=f5 v=0
94116 On ch=3 n=f#5 v=60
94126 On ch=3 n=f#5 v=0
94126 On ch=1 n=a6 v=0
94128 Par ch=2 c=64 v=0
94128 Par ch=2 c=64 v=127
94128 On ch=3 n=a4 v=61
94128 On ch=1 n=a5 v=83
94128 On ch=1 n=a6 v=83
94138 On ch=3 n=a4 v=0
94140 On ch=3 n=f5 v=62
94150 On ch=3 n=f5 v=0
94152 On ch=3 n=f5 v=63
94162 On ch=3 n=f5 v=0
94164 On ch=3 n=g5 v=64
94174 On ch=3 n=g5 v=0
94176 On ch=3 n=f5 v=65
94186 On ch=3 n=f5 v=0
94188 On ch=3 n=g5 v=66
94190 On ch=2 n=f2 v=0
94192 On ch=2 n=f3 v=80
94198 On ch=3 n=g5 v=0
94200 On ch=3 n=f5 v=67
94210 On ch=3 n=f5 v=0
94212 On ch=3 n=g5 v=68
94222 On ch=3 n=g5 v=0
94224 On ch=3 n=f5 v=69
94234 On ch=3 n=f5 v=0
94236 On ch=3 n=g5 v=70
94246 On ch=3 n=g5 v=0
94248 On ch=3 n=f5 v=71
94254 On ch=2 n=f3 v=0
94256 On ch=2 n=c4 v=79
94258 On ch=3 n=f5 v=0
94260 On ch=3 n=g5 v=72
94270 On ch=3 n=g5 v=0
94272 On ch=3 n=f5 v=73
94282 On ch=3 n=f5 v=0
94284 On ch=3 n=g5 v=74
94294 On ch=3 n=g5 v=0
94296 On ch=3 n=a4 v=75
94306 On ch=3 n=a4 v=0
94308 On ch=3 n=f5 v=75
94318 On ch=3 n=f5 v=0
94318 On ch=2 n=c4 v=0
94320 On ch=1 n=c7 v=79
94320 On ch=2 n=a4 v=78
94382 On ch=2 n=a4 v=0
94384 On ch=2 n=c4 v=77
94414 On ch=1 n=c7 v=0
94446 On ch=2 n=c4 v=0
94448 On ch=2 n=c5 v=76
94464 On ch=1 n=a5 v=0
94464 On ch=1 n=a6 v=0
94510 On ch=2 n=c5 v=0
94512 On ch=2 n=d#3 v=75
94534 On ch=2 n=d#3 v=0
94536 On ch=2 n=a3 v=75
94540 Tempo 1276595
94558 On ch=2 n=a3 v=0
94560 On ch=2 n=c4 v=75
94560 On ch=2 n=g4 v=75
94568 Tempo 1304347
94597 Tempo 1333333
94625 Tempo 1363636
94654 On ch=2 n=g4 v=0
94654 Tempo 1395348
94656 On ch=2 n=f#4 v=75
94682 Tempo 1428571
94702 On ch=2 n=c4 v=0
94702 On ch=2 n=f#4 v=0
94704 Par ch=2 c=64 v=0
94704 Par ch=2 c=64 v=127
94704 On ch=2 n=d3 v=75
94711 Tempo 1463414
94726 On ch=2 n=d3 v=0
94728 On ch=2 n=a3 v=75
94739 Tempo 1500000
94750 On ch=2 n=a3 v=0
94752 On ch=2 n=f#4 v=75
94768 Tempo 1538461
94768 Tempo 1250000
94768 On ch=2 n=a3 v=75
94830 On ch=2 n=a3 v=0
94832 On ch=2 n=c5 v=75
94894 On ch=2 n=f#4 v=0
94894 On ch=2 n=c5 v=0
94896 On ch=2 n=f#4 v=75
94896 On ch=2 n=c5 v=75
94896 On ch=2 n=d5 v=75
94958 On ch=2 n=f#4 v=0
94958 On ch=2 n=c5 v=0
94960 On ch=2 n=d4 v=75
95022 On ch=2 n=d4 v=0
95024 On ch=2 n=d5 v=75
95088 On ch=1 n=c6 v=75
95088 On ch=1 n=f#6 v=75
95150 On ch=2 n=d5 v=0
95152 On ch=2 n=a#4 v=75
95214 On ch=2 n=a#4 v=0
95216 On ch=2 n=a4 v=75
95232 On ch=1 n=f#6 v=0
95232 On ch=2 n=d5 v=0
95232 On ch=1 n=f6 v=75
95248 On ch=1 n=c6 v=0
95278 On ch=2 n=a4 v=0
95280 On ch=1 n=f6 v=0
95280 Par ch=2 c=64 v=0
95280 Par ch=2 c=64 v=127
95280 On ch=1 n=a#5 v=75
95280 On ch=1 n=f6 v=75
95280 On ch=2 n=d4 v=75
95280 On ch=2 n=d5 v=75
95342 On ch=2 n=d4 v=0
95344 On ch=2 n=g3 v=75
95406 On ch=2 n=g3 v=0
95408 On ch=2 n=d4 v=75
95470 On ch=2 n=d4 v=0
95472 On ch=1 n=c7 v=75
95472 On ch=2 n=a4 v=75
95534 On ch=1 n=f6 v=0
95536 On ch=1 n=d6 v=75
95598 On ch=1 n=d6 v=0
95600 On ch=1 n=f6 v=75
95616 On ch=2 n=d5 v=0
95632 On ch=2 n=a4 v=0
95662 On ch=1 n=f6 v=0
95664 On ch=1 n=d6 v=75
95664 On ch=2 n=f4 v=75
95726 On ch=1 n=d6 v=0
95728 On ch=1 n=a#5 v=75
95790 On ch=1 n=a#5 v=0
95792 On ch=1 n=d6 v=75
95806 On ch=2 n=f4 v=0
95808 On ch=1 n=a#5 v=0
95808 On ch=1 n=c7 v=0
95808 On ch=2 n=e4 v=75
95854 On ch=1 n=d6 v=0
95854 On ch=2 n=e4 v=0
95856 Par ch=2 c=64 v=0
95856 Par ch=2 c=64 v=127
95856 On ch=2 n=c3 v=75
95878 On ch=2 n=c3 v=0
95880 On ch=2 n=g3 v=75
95902 On ch=2 n=g3 v=0
95904 On ch=2 n=e4 v=75
95920 On ch=2 n=g3 v=75
95982 On ch=2 n=g3 v=0
95984 On ch=2 n=a#4 v=75
96046 On ch=2 n=e4 v=0
96046 On ch=2 n=a#4 v=0
96048 On ch=2 n=e4 v=75
96048 On ch=2 n=a#4 v=75
96048 On ch=2 n=c5 v=75
96110 On ch=2 n=e4 v=0
96110 On ch=2 n=a#4 v=0
96112 On ch=2 n=c4 v=75
96174 On ch=2 n=c4 v=0
96176 On ch=2 n=c5 v=75
96240 On ch=1 n=a#5 v=75
96240 On ch=1 n=e6 v=75
96302 On ch=2 n=c5 v=0
96304 On ch=2 n=a4 v=75
96366 On ch=2 n=a4 v=0
96368 On ch=2 n=g4 v=75
96382 On ch=1 n=e6 v=0
96384 On ch=2 n=c5 v=0
96384 On ch=1 n=d#6 v=75
96430 On ch=2 n=g4 v=0
96430 On ch=1 n=d#6 v=0
96432 Par ch=2 c=64 v=0
96432 Par ch=2 c=64 v=127
96432 On ch=1 n=d#6 v=75
96432 On ch=2 n=c4 v=75
96432 On ch=2 n=c5 v=75
96494 On ch=2 n=c4 v=0
96496 On ch=2 n=f3 v=75
96558 On ch=2 n=f3 v=0
96560 On ch=2 n=c4 v=75
96622 On ch=2 n=c4 v=0
96624 On ch=1 n=a#6 v=75
96624 On ch=2 n=g4 v=75
96686 On ch=1 n=d#6 v=0
96688 On ch=1 n=c6 v=75
96750 On ch=1 n=c6 v=0
96752 On ch=1 n=d#6 v=75
96768 On ch=2 n=c5 v=0
96784 On ch=2 n=g4 v=0
96814 On ch=1 n=d#6 v=0
96816 On ch=1 n=c6 v=75
96816 On ch=2 n=d#4 v=75
96878 On ch=1 n=c6 v=0
96880 On ch=1 n=g5 v=75
96942 On ch=1 n=g5 v=0
96944 On ch=1 n=c6 v=75
96958 On ch=2 n=d#4 v=0
96960 On ch=1 n=a#5 v=0
96960 On ch=1 n=a#6 v=0
96960 On ch=2 n=d4 v=75
97006 On ch=1 n=c6 v=0
97006 On ch=2 n=d4 v=0
97008 Par ch=2 c=64 v=0
97008 Par ch=2 c=64 v=127
97008 On ch=2 n=f#3 v=75
97030 On ch=2 n=f#3 v=0
97032 On ch=2 n=d4 v=75
97072 On ch=2 n=f#3 v=75
97134 On ch=2 n=f#3 v=0
97136 On ch=2 n=d4 v=75
97198 On ch=2 n=d4 v=0
97200 On ch=2 n=a#4 v=75
97208 Tempo 1276595
97208 Tempo 1276595
97262 On ch=2 n=d4 v=0
97264 On ch=2 n=c#4 v=75
97326 On ch=2 n=c#4 v=0
97328 On ch=2 n=d4 v=75
97392 On ch=1 n=d6 v=70
97408 Tempo 1304347
97408 Tempo 1304347
97454 On ch=2 n=d4 v=0
97456 On ch=2 n=d#4 v=73
97518 On ch=2 n=d#4 v=0
97520 On ch=2 n=e4 v=72
97534 On ch=1 n=d6 v=0
97536 On ch=2 n=a#4 v=0
97536 On ch=1 n=c#6 v=69
97582 On ch=1 n=c#6 v=0
97584 Par ch=2 c=64 v=0
97584 Par ch=2 c=64 v=127
97584 On ch=1 n=a#5 v=69
97584 On ch=1 n=c#6 v=69
97584 On ch=2 n=c3 v=71
97608 Tempo 1333333
97608 Tempo 1333333
97646 On ch=1 n=a#5 v=0
97648 On ch=1 n=e5 v=69
97678 On ch=2 n=e4 v=0
97680 On ch=2 n=e4 v=70
97710 On ch=1 n=e5 v=0
97712 On ch=1 n=a#5 v=69
97774 On ch=1 n=a#5 v=0
97776 On ch=1 n=a#5 v=68
97776 On ch=1 n=a6 v=68
97808 Tempo 1363636
97808 Tempo 1363636
97840 On ch=2 n=e4 v=0
97840 On ch=1 n=e5 v=67
97872 On ch=2 n=e4 v=67
97902 On ch=1 n=e5 v=0
97966 On ch=1 n=a#5 v=0
97966 On ch=1 n=c#6 v=0
97968 On ch=1 n=a#5 v=65
98008 Tempo 1395348
98008 Tempo 1395348
98064 On ch=1 n=c6 v=64
98112 On ch=2 n=c3 v=0
98126 On ch=2 n=e4 v=0
98128 On ch=2 n=d4 v=63
98190 On ch=2 n=d4 v=0
98192 On ch=2 n=c4 v=62
98206 On ch=1 n=c6 v=0
98208 Tempo 1428571
98208 Tempo 1428571
98208 On ch=1 n=a#5 v=62
98224 On ch=1 n=a#5 v=0
98254 On ch=1 n=a#5 v=0
98254 On ch=2 n=c4 v=0
98256 Par ch=2 c=64 v=0
98256 Par ch=2 c=64 v=127
98256 On ch=1 n=a#5 v=62
98256 On ch=2 n=c4 v=61
98256 On ch=2 n=c4 v=61
98318 On ch=2 n=c4 v=0
98320 On ch=2 n=f3 v=60
98384 On ch=2 n=c4 v=59
98408 Tempo 1463414
98408 Tempo 1463414
98416 On ch=1 n=a6 v=0
98448 On ch=1 n=f6 v=59
98494 On ch=2 n=c4 v=0
98496 On ch=2 n=g4 v=58
98542 On ch=2 n=g4 v=0
98544 On ch=2 n=f4 v=58
98590 On ch=2 n=f4 v=0
98592 On ch=1 n=a#5 v=0
98592 On ch=2 n=c4 v=58
98608 Tempo 1500000
98608 Tempo 1500000
98686 On ch=2 n=c4 v=0
98688 On ch=2 n=d5 v=56
98734 On ch=2 n=d5 v=0
98736 On ch=2 n=c5 v=55
98782 On ch=2 n=c5 v=0
98784 On ch=2 n=c4 v=0
98784 On ch=1 n=f6 v=0
98784 On ch=2 n=f3 v=0
98784 On ch=2 n=f4 v=54
98808 Tempo 1538461
98808 Tempo 1538461
98830 On ch=2 n=f4 v=0
98832 Par ch=2 c=64 v=0
98832 Par ch=1 c=64 v=127
98832 On ch=1 n=e6 v=52
98878 On ch=1 n=e6 v=0
98880 On ch=1 n=g6 v=52
98926 On ch=1 n=g6 v=0
98928 On ch=1 n=f6 v=51
98974 On ch=1 n=f6 v=0
98976 On ch=1 n=c6 v=50
99008 Tempo 1578947
99008 Tempo 1578947
99022 On ch=1 n=c6 v=0
99024 On ch=1 n=a6 v=49
99070 On ch=1 n=a6 v=0
99072 On ch=1 n=a#6 v=48
99118 On ch=1 n=a#6 v=0
99120 On ch=1 n=b6 v=47
99166 On ch=1 n=b6 v=0
99168 On ch=1 n=d7 v=46
99208 Tempo 1621621
99208 Tempo 1621621
99214 On ch=1 n=d7 v=0
99216 On ch=1 n=c7 v=45
99262 On ch=1 n=c7 v=0
99264 On ch=1 n=a6 v=51
99310 On ch=1 n=a6 v=0
99312 On ch=1 n=c7 v=57
99358 On ch=1 n=c7 v=0
99360 On ch=1 n=d#7 v=63
99406 On ch=1 n=d#7 v=0
99408 Tempo 1666666
99408 Tempo 1666666
99408 On ch=1 n=e7 v=69
99454 On ch=1 n=e7 v=0
99456 Par ch=1 c=64 v=0
99456 Par ch=2 c=64 v=127
99456 On ch=1 n=g7 v=75
99456 On ch=2 n=c#5 v=75
99456 On ch=2 n=a#5 v=75
99598 On ch=1 n=g7 v=0
99600 On ch=1 n=f7 v=75
99608 Tempo 1714285
99608 Tempo 1714285
99616 On ch=2 n=c#5 v=0
99616 On ch=2 n=a#5 v=0
99646 On ch=1 n=f7 v=0
99648 On ch=1 n=a#6 v=45
99648 On ch=1 n=f7 v=45
99648 On ch=2 n=f4 v=45
99648 On ch=2 n=c5 v=45
99648 On ch=2 n=f5 v=45
99808 Tempo 1764705
99808 Tempo 1764705
99984 On ch=1 n=a#6 v=0
99984 On ch=1 n=f7 v=0
99984 On ch=2 n=f4 v=0
99984 On ch=2 n=c5 v=0
99984 On ch=2 n=f5 v=0
100008 Tempo 1818181
100008 Tempo 1818181
100032 Par ch=2 c=64 v=0
100032 Par ch=1 c=64 v=127
100032 Par ch=2 c=64 v=127
100032 On ch=1 n=f4 v=30
100032 On ch=1 n=c5 v=30
100032 On ch=2 n=f3 v=30
100032 On ch=2 n=c4 v=30
100032 On ch=2 n=a4 v=30
100208 Tempo 1875000
100208 Tempo 1875000
100224 On ch=1 n=f4 v=0
100224 On ch=1 n=c5 v=0
100224 On ch=2 n=f3 v=0
100224 On ch=2 n=c4 v=0
100224 On ch=2 n=a4 v=0
100224 On ch=1 n=f4 v=30
100224 On ch=1 n=c5 v=30
100224 On ch=2 n=f3 v=30
100224 On ch=2 n=c4 v=30
100224 On ch=2 n=a4 v=30
100408 Tempo 1935483
100408 Tempo 1935483
100608 On ch=1 n=f4 v=0
100608 On ch=1 n=c5 v=0
100608 On ch=2 n=f3 v=0
100608 On ch=2 n=c4 v=0
100608 On ch=2 n=a4 v=0
100608 Tempo 2000000
100608 Tempo 2000000
100608 On ch=1 n=b4 v=10
100608 On ch=2 n=d4 v=10
100654 On ch=1 n=b4 v=0
100654 On ch=2 n=d4 v=0
100656 On ch=1 n=c5 v=10
100656 On ch=2 n=c4 v=10
100702 On ch=1 n=c5 v=0
100702 On ch=2 n=c4 v=0
100704 On ch=1 n=d5 v=10
100704 On ch=2 n=b3 v=10
100750 On ch=1 n=d5 v=0
100750 On ch=2 n=b3 v=0
100752 On ch=1 n=f4 v=10
100752 On ch=1 n=c5 v=10
100752 On ch=2 n=f3 v=10
100752 On ch=2 n=c4 v=10
100752 On ch=2 n=a4 v=10
101472 On ch=1 n=f4 v=0
101472 On ch=1 n=c5 v=0
101472 On ch=2 n=f3 v=0
101472 On ch=2 n=c4 v=0
101472 On ch=2 n=a4 v=0
101520 Par ch=1 c=64 v=0
101520 Par ch=2 c=64 v=0
101520 Meta TrkEnd
TrkEnd
