MFile 0 1 192
MTrk
0 Meta SeqName "Sonata N\xffffffb01 Op. 28 3er. mvto."
0 Meta Text "By Sergei Rachmaninoff"
0 Meta Copyright "Copyright \xffffffa9 <Year> by <Name>"
0 Meta Copyright "All Rights Reserved"
0 Meta Text "Generated by NoteWorthy Composer"
0 PrCh ch=1 p=0
0 Par ch=1 c=7 v=127
0 Par ch=1 c=10 v=64
0 PrCh ch=2 p=0
0 Par ch=2 c=7 v=127
0 Par ch=2 c=10 v=64
0 Tempo 230769
0 Tempo 230769
0 TimeSig 2/2 24 8
0 KeySig -1 major
0 Par ch=2 c=64 v=127
0 On ch=1 n=e7 v=127
0 On ch=2 n=e5 v=127
22 On ch=1 n=e7 v=0
22 On ch=2 n=e5 v=0
24 On ch=1 n=f7 v=127
24 On ch=2 n=f5 v=127
46 On ch=1 n=f7 v=0
46 On ch=2 n=f5 v=0
48 On ch=1 n=g7 v=127
48 On ch=2 n=g5 v=127
70 On ch=1 n=g7 v=0
70 On ch=2 n=g5 v=0
72 On ch=1 n=a6 v=127
72 On ch=1 n=a7 v=127
72 On ch=2 n=a4 v=127
72 On ch=2 n=a5 v=127
352 On ch=1 n=a6 v=0
352 On ch=1 n=a7 v=0
352 On ch=2 n=a4 v=0
352 On ch=2 n=a5 v=0
384 On ch=1 n=f6 v=127
384 On ch=1 n=f7 v=127
384 On ch=2 n=f4 v=127
384 On ch=2 n=f5 v=127
720 On ch=1 n=f6 v=0
720 On ch=1 n=f7 v=0
720 On ch=2 n=f4 v=0
720 On ch=2 n=f5 v=0
768 Par ch=2 c=64 v=0
768 Par ch=2 c=64 v=127
768 On ch=1 n=a5 v=127
768 On ch=1 n=a6 v=127
768 On ch=2 n=a3 v=127
768 On ch=2 n=a4 v=127
928 On ch=1 n=a5 v=0
928 On ch=1 n=a6 v=0
928 On ch=2 n=a3 v=0
928 On ch=2 n=a4 v=0
960 On ch=1 n=e5 v=127
960 On ch=1 n=e6 v=127
960 On ch=2 n=e3 v=127
960 On ch=2 n=e4 v=127
1296 On ch=1 n=e5 v=0
1296 On ch=1 n=e6 v=0
1296 On ch=2 n=e3 v=0
1296 On ch=2 n=e4 v=0
1344 On ch=1 n=a4 v=127
1344 On ch=1 n=a5 v=127
1344 On ch=2 n=a2 v=127
1344 On ch=2 n=a3 v=127
1504 On ch=1 n=a4 v=0
1504 On ch=1 n=a5 v=0
1504 On ch=2 n=a2 v=0
1504 On ch=2 n=a3 v=0
1536 Par ch=2 c=64 v=0
1536 Par ch=2 c=64 v=127
1536 On ch=1 n=d4 v=127
1536 On ch=1 n=d5 v=127
1536 On ch=2 n=d2 v=127
1536 On ch=2 n=d3 v=127
1728 On ch=1 n=a4 v=127
1728 On ch=1 n=c5 v=127
1728 On ch=1 n=f5 v=127
1822 On ch=1 n=a4 v=0
1822 On ch=1 n=f5 v=0
1824 On ch=1 n=f4 v=108
1872 On ch=1 n=d4 v=0
1872 On ch=1 n=d5 v=0
1872 On ch=2 n=d2 v=0
1872 On ch=2 n=d3 v=0
1918 On ch=1 n=f4 v=0
1918 On ch=1 n=c5 v=0
1920 On ch=2 n=a2 v=127
1920 On ch=2 n=d3 v=127
1982 On ch=2 n=d3 v=0
1984 On ch=2 n=a3 v=108
2016 On ch=1 n=f4 v=108
2046 On ch=2 n=a3 v=0
2048 On ch=2 n=d3 v=108
2110 On ch=1 n=f4 v=0
2110 On ch=2 n=d3 v=0
2112 On ch=1 n=a4 v=127
2112 On ch=1 n=d5 v=127
2112 On ch=1 n=f5 v=127
2206 On ch=1 n=a4 v=0
2206 On ch=1 n=f5 v=0
2208 On ch=1 n=f4 v=108
2272 On ch=2 n=a2 v=0
2302 On ch=1 n=f4 v=0
2302 On ch=1 n=d5 v=0
2304 Par ch=2 c=64 v=0
2304 Par ch=2 c=64 v=127
2304 On ch=2 n=a3 v=127
2304 On ch=2 n=d4 v=127
2366 On ch=2 n=a3 v=0
2366 On ch=2 n=d4 v=0
2368 On ch=2 n=a4 v=108
2430 On ch=2 n=a4 v=0
2432 On ch=2 n=d4 v=108
2494 On ch=2 n=d4 v=0
2496 On ch=1 n=d5 v=127
2496 On ch=1 n=e5 v=127
2496 On ch=1 n=a5 v=127
2496 On ch=2 n=a3 v=108
2590 On ch=1 n=d5 v=0
2590 On ch=1 n=a5 v=0
2592 On ch=1 n=a4 v=108
2656 On ch=2 n=a3 v=0
2686 On ch=1 n=a4 v=0
2686 On ch=1 n=e5 v=0
2688 On ch=2 n=d3 v=127
2688 On ch=2 n=a3 v=127
2750 On ch=2 n=d3 v=0
2750 On ch=2 n=a3 v=0
2752 On ch=2 n=d4 v=108
2784 On ch=1 n=a4 v=108
2814 On ch=2 n=d4 v=0
2816 On ch=2 n=a3 v=108
2878 On ch=1 n=a4 v=0
2878 On ch=2 n=a3 v=0
2880 On ch=1 n=d5 v=127
2880 On ch=1 n=f5 v=127
2880 On ch=1 n=a5 v=127
2880 On ch=2 n=d3 v=108
2974 On ch=1 n=d5 v=0
2974 On ch=1 n=a5 v=0
2976 On ch=1 n=a4 v=108
3040 On ch=2 n=d3 v=0
3070 On ch=1 n=a4 v=0
3070 On ch=1 n=f5 v=0
3072 Par ch=2 c=64 v=0
3072 Par ch=2 c=64 v=127
3072 On ch=2 n=d3 v=127
3072 On ch=2 n=a3 v=127
3134 On ch=2 n=d3 v=0
3134 On ch=2 n=a3 v=0
3136 On ch=2 n=d4 v=108
3168 On ch=1 n=f4 v=108
3198 On ch=2 n=d4 v=0
3200 On ch=2 n=a3 v=108
3262 On ch=1 n=f4 v=0
3262 On ch=2 n=a3 v=0
3264 On ch=1 n=a4 v=127
3264 On ch=1 n=c5 v=127
3264 On ch=1 n=f5 v=127
3264 On ch=2 n=d3 v=108
3358 On ch=1 n=a4 v=0
3358 On ch=1 n=f5 v=0
3360 On ch=1 n=f4 v=108
3424 On ch=2 n=d3 v=0
3454 On ch=1 n=f4 v=0
3454 On ch=1 n=c5 v=0
3456 On ch=2 n=a2 v=127
3456 On ch=2 n=d3 v=127
3518 On ch=2 n=d3 v=0
3520 On ch=2 n=a3 v=108
3552 On ch=1 n=f4 v=108
3582 On ch=2 n=a3 v=0
3584 On ch=2 n=d3 v=108
3646 On ch=1 n=f4 v=0
3646 On ch=2 n=d3 v=0
3648 On ch=1 n=a4 v=127
3648 On ch=1 n=d5 v=127
3648 On ch=1 n=f5 v=127
3742 On ch=1 n=a4 v=0
3742 On ch=1 n=f5 v=0
3744 On ch=1 n=f4 v=108
3808 On ch=2 n=a2 v=0
3838 On ch=1 n=f4 v=0
3838 On ch=1 n=d5 v=0
3840 Par ch=2 c=64 v=0
3840 Par ch=2 c=64 v=127
3840 On ch=2 n=a3 v=127
3840 On ch=2 n=d4 v=127
3902 On ch=2 n=a3 v=0
3902 On ch=2 n=d4 v=0
3904 On ch=2 n=a4 v=108
3966 On ch=2 n=a4 v=0
3968 On ch=2 n=d4 v=108
4030 On ch=2 n=d4 v=0
4032 On ch=1 n=d5 v=127
4032 On ch=1 n=e5 v=127
4032 On ch=1 n=a5 v=127
4032 On ch=2 n=a3 v=108
4126 On ch=1 n=d5 v=0
4126 On ch=1 n=a5 v=0
4128 On ch=1 n=a4 v=108
4192 On ch=2 n=a3 v=0
4222 On ch=1 n=a4 v=0
4222 On ch=1 n=e5 v=0
4224 On ch=2 n=d3 v=127
4224 On ch=2 n=a3 v=127
4286 On ch=2 n=d3 v=0
4286 On ch=2 n=a3 v=0
4288 On ch=2 n=d4 v=108
4320 On ch=1 n=a4 v=108
4350 On ch=2 n=d4 v=0
4352 On ch=2 n=a3 v=108
4414 On ch=1 n=a4 v=0
4414 On ch=2 n=a3 v=0
4416 On ch=1 n=d5 v=127
4416 On ch=1 n=f5 v=127
4416 On ch=1 n=a5 v=127
4416 On ch=2 n=d3 v=108
4510 On ch=1 n=d5 v=0
4510 On ch=1 n=a5 v=0
4512 On ch=1 n=a4 v=108
4576 On ch=2 n=d3 v=0
4606 On ch=1 n=a4 v=0
4606 On ch=1 n=f5 v=0
4608 Par ch=2 c=64 v=0
4608 Par ch=2 c=64 v=127
4608 On ch=2 n=c4 v=108
4608 On ch=2 n=a4 v=108
4670 On ch=2 n=c4 v=0
4670 On ch=2 n=a4 v=0
4672 On ch=2 n=c5 v=108
4734 On ch=2 n=c5 v=0
4736 On ch=2 n=a4 v=108
4798 On ch=2 n=a4 v=0
4800 On ch=1 n=f5 v=127
4800 On ch=1 n=g5 v=127
4800 On ch=1 n=c6 v=127
4800 On ch=2 n=c4 v=108
4894 On ch=1 n=f5 v=0
4894 On ch=1 n=c6 v=0
4896 On ch=1 n=c5 v=108
4960 On ch=2 n=c4 v=0
4990 On ch=1 n=c5 v=0
4990 On ch=1 n=g5 v=0
4992 On ch=2 n=f3 v=108
4992 On ch=2 n=c4 v=108
5054 On ch=2 n=f3 v=0
5054 On ch=2 n=c4 v=0
5056 On ch=2 n=f4 v=109
5088 On ch=1 n=c5 v=108
5118 On ch=2 n=f4 v=0
5120 On ch=2 n=c4 v=110
5182 On ch=1 n=c5 v=0
5182 On ch=2 n=c4 v=0
5184 On ch=1 n=f5 v=127
5184 On ch=1 n=a5 v=127
5184 On ch=1 n=c6 v=127
5184 On ch=2 n=f3 v=111
5278 On ch=1 n=f5 v=0
5278 On ch=1 n=c6 v=0
5280 On ch=1 n=c5 v=112
5344 On ch=2 n=f3 v=0
5374 On ch=1 n=c5 v=0
5374 On ch=1 n=a5 v=0
5376 Par ch=2 c=64 v=0
5376 Par ch=2 c=64 v=127
5376 On ch=2 n=a3 v=116
5376 On ch=2 n=f4 v=116
5438 On ch=2 n=a3 v=0
5438 On ch=2 n=f4 v=0
5440 On ch=2 n=a4 v=117
5472 On ch=1 n=f5 v=116
5502 On ch=2 n=a4 v=0
5504 On ch=2 n=f4 v=119
5566 On ch=1 n=f5 v=0
5566 On ch=2 n=f4 v=0
5568 On ch=1 n=a5 v=127
5568 On ch=1 n=c6 v=127
5568 On ch=1 n=f6 v=127
5568 On ch=2 n=a3 v=121
5662 On ch=1 n=a5 v=0
5662 On ch=1 n=f6 v=0
5664 On ch=1 n=f5 v=121
5728 On ch=2 n=a3 v=0
5758 On ch=1 n=f5 v=0
5758 On ch=1 n=c6 v=0
5760 On ch=2 n=d2 v=127
5760 On ch=2 n=a2 v=127
5822 On ch=2 n=d2 v=0
5822 On ch=2 n=a2 v=0
5824 On ch=2 n=d3 v=127
5856 On ch=1 n=a5 v=127
5886 On ch=2 n=d3 v=0
5888 On ch=2 n=a2 v=127
5950 On ch=1 n=a5 v=0
5950 On ch=2 n=a2 v=0
5952 On ch=1 n=d6 v=127
5952 On ch=1 n=f6 v=127
5952 On ch=1 n=a6 v=127
5952 On ch=2 n=d2 v=127
6046 On ch=1 n=d6 v=0
6046 On ch=1 n=f6 v=0
6046 On ch=1 n=a6 v=0
6048 On ch=1 n=a5 v=127
6112 On ch=2 n=d2 v=0
6142 On ch=1 n=a5 v=0
6144 Par ch=2 c=64 v=0
6144 Par ch=2 c=64 v=127
6144 On ch=2 n=c4 v=108
6144 On ch=2 n=a4 v=108
6206 On ch=2 n=c4 v=0
6206 On ch=2 n=a4 v=0
6208 On ch=2 n=c5 v=108
6270 On ch=2 n=c5 v=0
6272 On ch=2 n=a4 v=108
6334 On ch=2 n=a4 v=0
6336 On ch=1 n=f5 v=127
6336 On ch=1 n=g5 v=127
6336 On ch=1 n=c6 v=127
6336 On ch=2 n=c4 v=108
6430 On ch=1 n=f5 v=0
6430 On ch=1 n=c6 v=0
6432 On ch=1 n=c5 v=108
6496 On ch=2 n=c4 v=0
6526 On ch=1 n=c5 v=0
6526 On ch=1 n=g5 v=0
6528 On ch=2 n=f3 v=108
6528 On ch=2 n=c4 v=108
6590 On ch=2 n=f3 v=0
6590 On ch=2 n=c4 v=0
6592 On ch=2 n=f4 v=109
6624 On ch=1 n=c5 v=108
6654 On ch=2 n=f4 v=0
6656 On ch=2 n=c4 v=110
6718 On ch=1 n=c5 v=0
6718 On ch=2 n=c4 v=0
6720 On ch=1 n=f5 v=127
6720 On ch=1 n=a5 v=127
6720 On ch=1 n=c6 v=127
6720 On ch=2 n=f3 v=111
6814 On ch=1 n=f5 v=0
6814 On ch=1 n=c6 v=0
6816 On ch=1 n=c5 v=112
6880 On ch=2 n=f3 v=0
6910 On ch=1 n=c5 v=0
6910 On ch=1 n=a5 v=0
6912 Par ch=2 c=64 v=0
6912 Par ch=2 c=64 v=127
6912 On ch=2 n=a3 v=116
6912 On ch=2 n=f4 v=116
6974 On ch=2 n=a3 v=0
6974 On ch=2 n=f4 v=0
6976 On ch=2 n=a4 v=117
7008 On ch=1 n=f5 v=116
7038 On ch=2 n=a4 v=0
7040 On ch=2 n=f4 v=119
7102 On ch=1 n=f5 v=0
7102 On ch=2 n=f4 v=0
7104 On ch=1 n=a5 v=127
7104 On ch=1 n=c6 v=127
7104 On ch=1 n=f6 v=127
7104 On ch=2 n=a3 v=121
7198 On ch=1 n=a5 v=0
7198 On ch=1 n=f6 v=0
7200 On ch=1 n=f5 v=121
7264 On ch=2 n=a3 v=0
7294 On ch=1 n=f5 v=0
7294 On ch=1 n=c6 v=0
7296 On ch=2 n=d2 v=127
7296 On ch=2 n=a2 v=127
7358 On ch=2 n=d2 v=0
7358 On ch=2 n=a2 v=0
7360 On ch=2 n=d3 v=127
7392 On ch=1 n=a5 v=127
7422 On ch=2 n=d3 v=0
7424 On ch=2 n=a2 v=127
7486 On ch=1 n=a5 v=0
7486 On ch=2 n=a2 v=0
7488 On ch=1 n=d6 v=127
7488 On ch=1 n=f6 v=127
7488 On ch=1 n=a6 v=127
7488 On ch=2 n=d2 v=127
7582 On ch=1 n=d6 v=0
7582 On ch=1 n=f6 v=0
7582 On ch=1 n=a6 v=0
7584 On ch=1 n=a5 v=127
7648 On ch=2 n=d2 v=0
7678 On ch=1 n=a5 v=0
7680 Par ch=2 c=64 v=0
7680 Par ch=2 c=64 v=127
7680 On ch=2 n=a4 v=127
7680 On ch=2 n=f5 v=127
7742 On ch=2 n=a4 v=0
7742 On ch=2 n=f5 v=0
7744 On ch=2 n=a5 v=92
7806 On ch=2 n=a5 v=0
7808 On ch=1 n=d6 v=92
7808 On ch=2 n=f5 v=92
7870 On ch=2 n=f5 v=0
7872 On ch=1 n=a6 v=127
7872 On ch=2 n=a4 v=92
7934 On ch=1 n=d6 v=0
7934 On ch=1 n=a6 v=0
7936 On ch=1 n=d6 v=92
7998 On ch=1 n=d6 v=0
8000 On ch=1 n=a5 v=92
8032 On ch=2 n=a4 v=0
8062 On ch=1 n=a5 v=0
8064 On ch=2 n=a4 v=127
8064 On ch=2 n=f5 v=127
8126 On ch=2 n=a4 v=0
8126 On ch=2 n=f5 v=0
8128 On ch=2 n=a5 v=92
8190 On ch=2 n=a5 v=0
8192 On ch=1 n=d6 v=92
8192 On ch=2 n=f5 v=92
8254 On ch=2 n=f5 v=0
8256 On ch=1 n=a6 v=127
8256 On ch=2 n=a4 v=92
8318 On ch=1 n=d6 v=0
8318 On ch=1 n=a6 v=0
8320 On ch=1 n=d6 v=92
8382 On ch=1 n=d6 v=0
8384 On ch=1 n=a5 v=92
8416 On ch=2 n=a4 v=0
8446 On ch=1 n=a5 v=0
8448 Par ch=2 c=64 v=0
8448 Par ch=2 c=64 v=127
8448 On ch=2 n=a4 v=127
8448 On ch=2 n=e5 v=127
8510 On ch=2 n=a4 v=0
8510 On ch=2 n=e5 v=0
8512 On ch=2 n=a5 v=92
8574 On ch=2 n=a5 v=0
8576 On ch=1 n=c#6 v=92
8576 On ch=2 n=e5 v=92
8638 On ch=2 n=e5 v=0
8640 On ch=1 n=f6 v=92
8640 On ch=2 n=a4 v=92
8702 On ch=1 n=c#6 v=0
8702 On ch=1 n=f6 v=0
8704 On ch=1 n=c#6 v=92
8766 On ch=1 n=c#6 v=0
8768 On ch=1 n=f5 v=92
8800 On ch=2 n=a4 v=0
8830 On ch=1 n=f5 v=0
8832 On ch=2 n=a4 v=92
8832 On ch=2 n=d#5 v=92
8894 On ch=2 n=a4 v=0
8894 On ch=2 n=d#5 v=0
8896 On ch=2 n=a5 v=92
8958 On ch=2 n=a5 v=0
8960 On ch=1 n=c6 v=92
8960 On ch=2 n=d#5 v=92
9022 On ch=2 n=d#5 v=0
9024 On ch=1 n=a6 v=92
9024 On ch=2 n=a4 v=92
9086 On ch=1 n=c6 v=0
9086 On ch=1 n=a6 v=0
9088 On ch=1 n=c6 v=92
9150 On ch=1 n=c6 v=0
9152 On ch=1 n=a5 v=92
9184 On ch=2 n=a4 v=0
9214 On ch=1 n=a5 v=0
9216 Par ch=2 c=64 v=0
9216 Par ch=2 c=64 v=127
9216 On ch=2 n=a4 v=92
9216 On ch=2 n=d5 v=92
9278 On ch=2 n=a4 v=0
9278 On ch=2 n=d5 v=0
9280 On ch=2 n=f5 v=92
9342 On ch=2 n=f5 v=0
9344 On ch=1 n=b5 v=92
9344 On ch=2 n=d5 v=92
9406 On ch=2 n=d5 v=0
9408 On ch=1 n=f6 v=92
9408 On ch=2 n=a4 v=92
9470 On ch=1 n=b5 v=0
9470 On ch=1 n=f6 v=0
9472 On ch=1 n=b5 v=92
9534 On ch=1 n=b5 v=0
9536 On ch=1 n=f5 v=92
9568 On ch=2 n=a4 v=0
9598 On ch=1 n=f5 v=0
9600 On ch=2 n=a4 v=92
9600 On ch=2 n=c#5 v=92
9662 On ch=2 n=a4 v=0
9662 On ch=2 n=c#5 v=0
9664 On ch=2 n=f5 v=92
9726 On ch=2 n=f5 v=0
9728 On ch=1 n=a#5 v=92
9728 On ch=2 n=c#5 v=92
9790 On ch=2 n=c#5 v=0
9792 On ch=1 n=a6 v=92
9792 On ch=2 n=a4 v=92
9854 On ch=1 n=a#5 v=0
9854 On ch=1 n=a6 v=0
9856 On ch=1 n=a#5 v=92
9918 On ch=1 n=a#5 v=0
9920 On ch=1 n=a5 v=92
9952 On ch=2 n=a4 v=0
9982 On ch=1 n=a5 v=0
9984 Par ch=2 c=64 v=0
9984 Par ch=2 c=64 v=127
9984 On ch=2 n=a4 v=92
9984 On ch=2 n=c5 v=92
10046 On ch=2 n=a4 v=0
10046 On ch=2 n=c5 v=0
10048 On ch=2 n=f5 v=93
10110 On ch=2 n=f5 v=0
10112 On ch=1 n=a5 v=94
10112 On ch=2 n=c5 v=94
10174 On ch=2 n=c5 v=0
10176 On ch=1 n=d6 v=95
10176 On ch=2 n=a4 v=95
10238 On ch=1 n=a5 v=0
10238 On ch=1 n=d6 v=0
10240 On ch=1 n=a5 v=96
10302 On ch=1 n=a5 v=0
10304 On ch=1 n=d5 v=97
10336 On ch=2 n=a4 v=0
10366 On ch=1 n=d5 v=0
10368 On ch=2 n=e4 v=99
10368 On ch=2 n=b4 v=99
10430 On ch=2 n=e4 v=0
10430 On ch=2 n=b4 v=0
10432 On ch=2 n=e5 v=100
10494 On ch=2 n=e5 v=0
10496 On ch=1 n=g#5 v=100
10496 On ch=2 n=b4 v=101
10558 On ch=2 n=b4 v=0
10560 On ch=1 n=e6 v=102
10560 On ch=2 n=e4 v=102
10622 On ch=1 n=g#5 v=0
10622 On ch=1 n=e6 v=0
10624 On ch=1 n=g#5 v=104
10686 On ch=1 n=g#5 v=0
10688 On ch=1 n=d5 v=106
10720 On ch=2 n=e4 v=0
10750 On ch=1 n=d5 v=0
10752 Par ch=2 c=64 v=0
10752 Par ch=2 c=64 v=127
10752 On ch=2 n=a3 v=127
10752 On ch=2 n=e4 v=127
10814 On ch=2 n=a3 v=0
10814 On ch=2 n=e4 v=0
10816 On ch=2 n=a4 v=108
10848 On ch=1 n=g4 v=108
10878 On ch=2 n=a4 v=0
10880 On ch=2 n=e4 v=108
10942 On ch=1 n=g4 v=0
10942 On ch=2 n=e4 v=0
10944 On ch=1 n=c#5 v=127
10944 On ch=1 n=e5 v=127
10944 On ch=1 n=g5 v=127
10944 On ch=2 n=a3 v=108
11038 On ch=1 n=c#5 v=0
11038 On ch=1 n=e5 v=0
11038 On ch=1 n=g5 v=0
11040 On ch=1 n=g4 v=108
11104 On ch=2 n=a3 v=0
11134 On ch=1 n=g4 v=0
11136 On ch=2 n=e3 v=127
11136 On ch=2 n=a3 v=127
11198 On ch=2 n=e3 v=0
11198 On ch=2 n=a3 v=0
11200 On ch=2 n=e4 v=108
11232 On ch=1 n=a4 v=108
11262 On ch=2 n=e4 v=0
11264 On ch=2 n=a3 v=108
11326 On ch=1 n=a4 v=0
11326 On ch=2 n=a3 v=0
11328 On ch=1 n=c#5 v=127
11328 On ch=1 n=e5 v=127
11328 On ch=1 n=a5 v=127
11328 On ch=2 n=e3 v=108
11422 On ch=1 n=c#5 v=0
11422 On ch=1 n=e5 v=0
11422 On ch=1 n=a5 v=0
11424 On ch=1 n=a4 v=108
11488 On ch=2 n=e3 v=0
11518 On ch=1 n=a4 v=0
11520 Par ch=2 c=64 v=0
11520 Par ch=2 c=64 v=127
11520 On ch=2 n=e4 v=127
11520 On ch=2 n=a4 v=127
11582 On ch=2 n=e4 v=0
11582 On ch=2 n=a4 v=0
11584 On ch=2 n=e5 v=108
11646 On ch=2 n=e5 v=0
11648 On ch=2 n=a4 v=108
11710 On ch=2 n=a4 v=0
11712 On ch=1 n=a5 v=127
11712 On ch=1 n=b5 v=127
11712 On ch=1 n=e6 v=127
11712 On ch=2 n=e4 v=108
11806 On ch=1 n=a5 v=0
11806 On ch=1 n=b5 v=0
11806 On ch=1 n=e6 v=0
11808 On ch=1 n=e5 v=108
11872 On ch=2 n=e4 v=0
11902 On ch=1 n=e5 v=0
11904 On ch=2 n=a2 v=127
11904 On ch=2 n=e3 v=127
11966 On ch=2 n=a2 v=0
11966 On ch=2 n=e3 v=0
11968 On ch=2 n=a3 v=108
12000 On ch=1 n=e5 v=108
12030 On ch=2 n=a3 v=0
12032 On ch=2 n=e3 v=108
12094 On ch=1 n=e5 v=0
12094 On ch=2 n=e3 v=0
12096 On ch=1 n=a5 v=127
12096 On ch=1 n=c#6 v=127
12096 On ch=1 n=e6 v=127
12096 On ch=2 n=a2 v=108
12190 On ch=1 n=a5 v=0
12190 On ch=1 n=c#6 v=0
12190 On ch=1 n=e6 v=0
12192 On ch=1 n=e5 v=108
12256 On ch=2 n=a2 v=0
12286 On ch=1 n=e5 v=0
12288 Par ch=2 c=64 v=0
12288 Par ch=2 c=64 v=127
12288 On ch=2 n=a3 v=127
12288 On ch=2 n=e4 v=127
12350 On ch=2 n=a3 v=0
12350 On ch=2 n=e4 v=0
12352 On ch=2 n=a4 v=108
12384 On ch=1 n=g4 v=108
12414 On ch=2 n=a4 v=0
12416 On ch=2 n=e4 v=108
12478 On ch=1 n=g4 v=0
12478 On ch=2 n=e4 v=0
12480 On ch=1 n=c#5 v=127
12480 On ch=1 n=e5 v=127
12480 On ch=1 n=g5 v=127
12480 On ch=2 n=a3 v=108
12574 On ch=1 n=c#5 v=0
12574 On ch=1 n=e5 v=0
12574 On ch=1 n=g5 v=0
12576 On ch=1 n=g4 v=108
12640 On ch=2 n=a3 v=0
12670 On ch=1 n=g4 v=0
12672 On ch=2 n=e3 v=127
12672 On ch=2 n=a3 v=127
12734 On ch=2 n=e3 v=0
12734 On ch=2 n=a3 v=0
12736 On ch=2 n=e4 v=108
12768 On ch=1 n=a4 v=108
12798 On ch=2 n=e4 v=0
12800 On ch=2 n=a3 v=108
12862 On ch=1 n=a4 v=0
12862 On ch=2 n=a3 v=0
12864 On ch=1 n=c#5 v=127
12864 On ch=1 n=e5 v=127
12864 On ch=1 n=a5 v=127
12864 On ch=2 n=e3 v=108
12958 On ch=1 n=c#5 v=0
12958 On ch=1 n=e5 v=0
12958 On ch=1 n=a5 v=0
12960 On ch=1 n=a4 v=108
13024 On ch=2 n=e3 v=0
13054 On ch=1 n=a4 v=0
13056 Par ch=2 c=64 v=0
13056 Par ch=2 c=64 v=127
13056 On ch=2 n=e4 v=127
13056 On ch=2 n=a4 v=127
13118 On ch=2 n=e4 v=0
13118 On ch=2 n=a4 v=0
13120 On ch=2 n=e5 v=108
13182 On ch=2 n=e5 v=0
13184 On ch=2 n=a4 v=108
13246 On ch=2 n=a4 v=0
13248 On ch=1 n=a5 v=127
13248 On ch=1 n=b5 v=127
13248 On ch=1 n=e6 v=127
13248 On ch=2 n=e4 v=108
13342 On ch=1 n=a5 v=0
13342 On ch=1 n=b5 v=0
13342 On ch=1 n=e6 v=0
13344 On ch=1 n=e5 v=108
13408 On ch=2 n=e4 v=0
13438 On ch=1 n=e5 v=0
13440 On ch=2 n=a2 v=127
13440 On ch=2 n=e3 v=127
13502 On ch=2 n=a2 v=0
13502 On ch=2 n=e3 v=0
13504 On ch=2 n=a3 v=108
13536 On ch=1 n=e5 v=108
13566 On ch=2 n=a3 v=0
13568 On ch=2 n=e3 v=108
13630 On ch=1 n=e5 v=0
13630 On ch=2 n=e3 v=0
13632 On ch=1 n=a5 v=127
13632 On ch=1 n=c#6 v=127
13632 On ch=1 n=e6 v=127
13632 On ch=2 n=a2 v=108
13726 On ch=1 n=a5 v=0
13726 On ch=1 n=c#6 v=0
13726 On ch=1 n=e6 v=0
13728 On ch=1 n=e5 v=108
13792 On ch=2 n=a2 v=0
13822 On ch=1 n=e5 v=0
13824 Par ch=2 c=64 v=0
13824 Par ch=2 c=64 v=127
13824 On ch=2 n=e5 v=108
13824 On ch=2 n=a5 v=108
13886 On ch=2 n=e5 v=0
13886 On ch=2 n=a5 v=0
13888 On ch=2 n=e6 v=108
13950 On ch=2 n=e6 v=0
13952 On ch=2 n=a5 v=108
14014 On ch=2 n=a5 v=0
14016 On ch=1 n=a6 v=108
14016 On ch=1 n=b6 v=108
14016 On ch=1 n=e7 v=108
14016 On ch=2 n=e5 v=108
14110 On ch=1 n=a6 v=0
14110 On ch=1 n=b6 v=0
14110 On ch=1 n=e7 v=0
14112 On ch=1 n=e6 v=108
14176 On ch=2 n=e5 v=0
14206 On ch=1 n=e6 v=0
14208 On ch=2 n=a4 v=108
14208 On ch=2 n=e5 v=108
14270 On ch=2 n=a4 v=0
14270 On ch=2 n=e5 v=0
14272 On ch=2 n=a5 v=108
14304 On ch=1 n=a6 v=108
14334 On ch=2 n=a5 v=0
14336 On ch=2 n=e5 v=108
14398 On ch=1 n=a6 v=0
14398 On ch=2 n=e5 v=0
14400 On ch=1 n=c#7 v=108
14400 On ch=1 n=a7 v=108
14400 On ch=2 n=a4 v=108
14494 On ch=1 n=c#7 v=0
14494 On ch=1 n=a7 v=0
14496 On ch=1 n=e6 v=108
14560 On ch=2 n=a4 v=0
14590 On ch=1 n=e6 v=0
14592 Par ch=2 c=64 v=0
14592 Par ch=2 c=64 v=127
14592 On ch=2 n=e4 v=108
14592 On ch=2 n=a4 v=108
14654 On ch=2 n=e4 v=0
14654 On ch=2 n=a4 v=0
14656 On ch=2 n=e5 v=108
14718 On ch=2 n=e5 v=0
14720 On ch=2 n=a4 v=108
14782 On ch=2 n=a4 v=0
14784 On ch=1 n=a5 v=108
14784 On ch=1 n=b5 v=108
14784 On ch=1 n=e6 v=108
14784 On ch=2 n=e4 v=108
14878 On ch=1 n=a5 v=0
14878 On ch=1 n=b5 v=0
14878 On ch=1 n=e6 v=0
14880 On ch=1 n=e5 v=108
14944 On ch=2 n=e4 v=0
14974 On ch=1 n=e5 v=0
14976 On ch=2 n=a3 v=108
14976 On ch=2 n=e4 v=108
15038 On ch=2 n=a3 v=0
15038 On ch=2 n=e4 v=0
15040 On ch=2 n=a4 v=108
15072 On ch=1 n=a5 v=108
15102 On ch=2 n=a4 v=0
15104 On ch=2 n=e4 v=108
15166 On ch=1 n=a5 v=0
15166 On ch=2 n=e4 v=0
15168 On ch=1 n=c#6 v=108
15168 On ch=1 n=a6 v=108
15168 On ch=2 n=a3 v=108
15262 On ch=1 n=c#6 v=0
15262 On ch=1 n=a6 v=0
15264 On ch=1 n=e5 v=108
15328 On ch=2 n=a3 v=0
15358 On ch=1 n=e5 v=0
15360 Par ch=2 c=64 v=0
15360 Par ch=2 c=64 v=127
15360 On ch=2 n=a4 v=108
15360 On ch=2 n=a4 v=108
15422 On ch=2 n=a4 v=0
15424 On ch=2 n=e5 v=108
15486 On ch=2 n=e5 v=0
15488 On ch=1 n=a5 v=108
15488 On ch=2 n=a4 v=108
15550 On ch=2 n=a4 v=0
15552 On ch=1 n=e6 v=108
15552 On ch=2 n=e4 v=108
15614 On ch=1 n=a5 v=0
15614 On ch=1 n=e6 v=0
15616 On ch=1 n=a5 v=108
15678 On ch=1 n=a5 v=0
15680 On ch=1 n=c#5 v=108
15696 On ch=2 n=a4 v=0
15712 On ch=2 n=e4 v=0
15742 On ch=1 n=c#5 v=0
15744 On ch=2 n=g4 v=108
15744 On ch=2 n=g4 v=108
15806 On ch=2 n=g4 v=0
15808 On ch=2 n=e5 v=108
15870 On ch=2 n=e5 v=0
15872 On ch=1 n=a#5 v=108
15872 On ch=2 n=e4 v=108
15934 On ch=2 n=e4 v=0
15936 On ch=1 n=e6 v=108
15936 On ch=2 n=a3 v=108
15998 On ch=1 n=a#5 v=0
15998 On ch=1 n=e6 v=0
16000 On ch=1 n=a#5 v=108
16062 On ch=1 n=a#5 v=0
16064 On ch=1 n=c#5 v=108
16080 On ch=2 n=g4 v=0
16096 On ch=2 n=a3 v=0
16126 On ch=1 n=c#5 v=0
16128 Par ch=2 c=64 v=0
16128 Par ch=2 c=64 v=127
16128 On ch=2 n=a4 v=108
16128 On ch=2 n=a4 v=108
16190 On ch=2 n=a4 v=0
16192 On ch=2 n=e5 v=108
16254 On ch=2 n=e5 v=0
16256 On ch=1 n=a5 v=108
16256 On ch=2 n=a4 v=108
16318 On ch=2 n=a4 v=0
16320 On ch=1 n=e6 v=108
16320 On ch=2 n=e4 v=108
16382 On ch=1 n=a5 v=0
16382 On ch=1 n=e6 v=0
16384 On ch=1 n=a5 v=108
16446 On ch=1 n=a5 v=0
16448 On ch=1 n=c#5 v=108
16464 On ch=2 n=a4 v=0
16480 On ch=2 n=e4 v=0
16510 On ch=1 n=c#5 v=0
16512 On ch=2 n=g4 v=108
16512 On ch=2 n=g4 v=108
16574 On ch=2 n=g4 v=0
16576 On ch=2 n=e5 v=108
16638 On ch=2 n=e5 v=0
16640 On ch=1 n=a#5 v=108
16640 On ch=2 n=e4 v=108
16702 On ch=2 n=e4 v=0
16704 On ch=1 n=e6 v=108
16704 On ch=2 n=a3 v=108
16766 On ch=1 n=a#5 v=0
16766 On ch=1 n=e6 v=0
16768 On ch=1 n=a#5 v=108
16830 On ch=1 n=a#5 v=0
16832 On ch=1 n=c#5 v=108
16848 On ch=2 n=g4 v=0
16864 On ch=2 n=a3 v=0
16894 On ch=1 n=c#5 v=0
16896 Par ch=2 c=64 v=0
16896 Par ch=2 c=64 v=127
16896 On ch=2 n=a3 v=108
16896 On ch=2 n=e4 v=108
16958 On ch=2 n=a3 v=0
16958 On ch=2 n=e4 v=0
16960 On ch=2 n=a4 v=108
16992 On ch=1 n=g4 v=108
17022 On ch=2 n=a4 v=0
17024 On ch=2 n=e4 v=108
17086 On ch=1 n=g4 v=0
17086 On ch=2 n=e4 v=0
17088 On ch=1 n=c#5 v=127
17088 On ch=1 n=e5 v=127
17088 On ch=1 n=g5 v=127
17088 On ch=2 n=a3 v=108
17182 On ch=1 n=c#5 v=0
17182 On ch=1 n=e5 v=0
17182 On ch=1 n=g5 v=0
17184 On ch=1 n=g4 v=108
17248 On ch=2 n=a3 v=0
17278 On ch=1 n=g4 v=0
17280 On ch=2 n=e3 v=108
17280 On ch=2 n=a3 v=108
17342 On ch=2 n=e3 v=0
17342 On ch=2 n=a3 v=0
17344 On ch=2 n=e4 v=108
17376 On ch=1 n=a4 v=108
17406 On ch=2 n=e4 v=0
17408 On ch=2 n=a3 v=108
17470 On ch=1 n=a4 v=0
17470 On ch=2 n=a3 v=0
17472 On ch=1 n=c#5 v=127
17472 On ch=1 n=e5 v=127
17472 On ch=1 n=a5 v=127
17472 On ch=2 n=e3 v=108
17566 On ch=1 n=c#5 v=0
17566 On ch=1 n=e5 v=0
17566 On ch=1 n=a5 v=0
17568 On ch=1 n=a4 v=108
17632 On ch=2 n=e3 v=0
17662 On ch=1 n=a4 v=0
17664 Par ch=2 c=64 v=0
17664 Par ch=2 c=64 v=127
17664 On ch=2 n=g3 v=108
17664 On ch=2 n=d#4 v=108
17726 On ch=2 n=g3 v=0
17726 On ch=2 n=d#4 v=0
17728 On ch=2 n=g4 v=108
17760 On ch=1 n=g4 v=108
17790 On ch=2 n=g4 v=0
17792 On ch=2 n=d#4 v=108
17854 On ch=1 n=g4 v=0
17854 On ch=2 n=d#4 v=0
17856 On ch=1 n=c5 v=127
17856 On ch=1 n=d#5 v=127
17856 On ch=1 n=g5 v=127
17856 On ch=2 n=g3 v=108
17950 On ch=1 n=c5 v=0
17950 On ch=1 n=d#5 v=0
17950 On ch=1 n=g5 v=0
17952 On ch=1 n=g4 v=108
18016 On ch=2 n=g3 v=0
18046 On ch=1 n=g4 v=0
18048 On ch=2 n=c3 v=108
18048 On ch=2 n=g3 v=108
18110 On ch=2 n=c3 v=0
18110 On ch=2 n=g3 v=0
18112 On ch=2 n=d#4 v=108
18144 On ch=1 n=a4 v=108
18174 On ch=2 n=d#4 v=0
18176 On ch=2 n=g3 v=108
18238 On ch=1 n=a4 v=0
18238 On ch=2 n=g3 v=0
18240 On ch=1 n=c5 v=127
18240 On ch=1 n=d#5 v=127
18240 On ch=1 n=a5 v=127
18240 On ch=2 n=c3 v=108
18334 On ch=1 n=c5 v=0
18334 On ch=1 n=d#5 v=0
18334 On ch=1 n=a5 v=0
18336 On ch=1 n=a4 v=108
18400 On ch=2 n=c3 v=0
18430 On ch=1 n=a4 v=0
18432 Par ch=2 c=64 v=0
18432 Par ch=2 c=64 v=127
18432 On ch=2 n=g3 v=108
18432 On ch=2 n=d4 v=108
18494 On ch=2 n=g3 v=0
18494 On ch=2 n=d4 v=0
18496 On ch=2 n=f4 v=108
18528 On ch=1 n=g4 v=108
18558 On ch=2 n=f4 v=0
18560 On ch=2 n=d4 v=108
18622 On ch=1 n=g4 v=0
18622 On ch=2 n=d4 v=0
18624 On ch=1 n=a#4 v=127
18624 On ch=1 n=d5 v=127
18624 On ch=1 n=g5 v=127
18624 On ch=2 n=f3 v=108
18718 On ch=1 n=a#4 v=0
18718 On ch=1 n=d5 v=0
18718 On ch=1 n=g5 v=0
18720 On ch=1 n=g4 v=108
18784 On ch=2 n=f3 v=0
18814 On ch=1 n=g4 v=0
18816 On ch=2 n=a#2 v=108
18816 On ch=2 n=f3 v=108
18878 On ch=2 n=a#2 v=0
18878 On ch=2 n=f3 v=0
18880 On ch=2 n=d4 v=108
18912 On ch=1 n=a4 v=108
18942 On ch=2 n=d4 v=0
18944 On ch=2 n=f3 v=108
19006 On ch=1 n=a4 v=0
19006 On ch=2 n=f3 v=0
19008 On ch=1 n=a#4 v=127
19008 On ch=1 n=d5 v=127
19008 On ch=1 n=a5 v=127
19008 On ch=2 n=a#2 v=108
19102 On ch=1 n=a#4 v=0
19102 On ch=1 n=d5 v=0
19102 On ch=1 n=a5 v=0
19104 On ch=1 n=a4 v=108
19168 On ch=2 n=a#2 v=0
19198 On ch=1 n=a4 v=0
19200 Par ch=2 c=64 v=0
19200 Par ch=2 c=64 v=127
19200 On ch=2 n=e3 v=108
19200 On ch=2 n=c#4 v=108
19219 Tempo 231660
19219 Tempo 231660
19238 Tempo 232558
19238 Tempo 232558
19257 Tempo 233463
19257 Tempo 233463
19262 On ch=2 n=e3 v=0
19262 On ch=2 n=c#4 v=0
19264 On ch=2 n=e4 v=109
19276 Tempo 234375
19276 Tempo 234375
19296 Tempo 235294
19296 Tempo 235294
19296 On ch=1 n=g4 v=110
19315 Tempo 236220
19315 Tempo 236220
19326 On ch=2 n=e4 v=0
19328 On ch=2 n=c#4 v=110
19334 Tempo 237154
19334 Tempo 237154
19353 Tempo 238095
19353 Tempo 238095
19372 Tempo 239043
19372 Tempo 239043
19390 On ch=1 n=g4 v=0
19390 On ch=2 n=c#4 v=0
19392 Tempo 240000
19392 Tempo 240000
19392 On ch=1 n=a4 v=127
19392 On ch=1 n=c#5 v=127
19392 On ch=1 n=g5 v=127
19392 On ch=2 n=e3 v=111
19411 Tempo 240963
19411 Tempo 240963
19430 Tempo 241935
19430 Tempo 241935
19449 Tempo 242914
19449 Tempo 242914
19468 Tempo 243902
19468 Tempo 243902
19486 On ch=1 n=a4 v=0
19486 On ch=1 n=g5 v=0
19486 On ch=1 n=c#5 v=0
19488 Tempo 244897
19488 Tempo 244897
19488 On ch=1 n=g4 v=114
19507 Tempo 245901
19507 Tempo 245901
19526 Tempo 246913
19526 Tempo 246913
19545 Tempo 247933
19545 Tempo 247933
19552 On ch=2 n=e3 v=0
19564 Tempo 248962
19564 Tempo 248962
19582 On ch=1 n=g4 v=0
19584 Tempo 250000
19584 Tempo 250000
19584 On ch=2 n=a2 v=116
19584 On ch=2 n=e3 v=116
19603 Tempo 251046
19603 Tempo 251046
19622 Tempo 252100
19622 Tempo 252100
19641 Tempo 253164
19641 Tempo 253164
19646 On ch=2 n=a2 v=0
19646 On ch=2 n=e3 v=0
19648 On ch=2 n=c#4 v=117
19660 Tempo 254237
19660 Tempo 254237
19680 Tempo 255319
19680 Tempo 255319
19680 On ch=1 n=a4 v=118
19699 Tempo 256410
19699 Tempo 256410
19710 On ch=2 n=c#4 v=0
19712 On ch=2 n=e3 v=119
19718 Tempo 257510
19718 Tempo 257510
19737 Tempo 258620
19737 Tempo 258620
19756 Tempo 259740
19756 Tempo 259740
19774 On ch=1 n=a4 v=0
19774 On ch=2 n=e3 v=0
19776 Tempo 260869
19776 Tempo 260869
19776 On ch=1 n=c#5 v=127
19776 On ch=1 n=a5 v=127
19776 On ch=2 n=a2 v=121
19795 Tempo 262008
19795 Tempo 262008
19814 Tempo 263157
19814 Tempo 263157
19833 Tempo 264317
19833 Tempo 264317
19852 Tempo 265486
19852 Tempo 265486
19870 On ch=1 n=c#5 v=0
19870 On ch=1 n=a5 v=0
19872 Tempo 266666
19872 Tempo 266666
19872 On ch=1 n=g4 v=124
19891 Tempo 267857
19891 Tempo 267857
19910 Tempo 269058
19910 Tempo 269058
19929 Tempo 270270
19929 Tempo 270270
19936 On ch=2 n=a2 v=0
19948 Tempo 271493
19948 Tempo 271493
19966 On ch=1 n=g4 v=0
19968 Par ch=2 c=64 v=0
19968 Tempo 272727
19968 Tempo 230769
19968 Tempo 272727
19968 Tempo 230769
19968 Par ch=2 c=64 v=127
19968 On ch=2 n=d2 v=127
19968 On ch=2 n=a2 v=127
20030 On ch=2 n=d2 v=0
20030 On ch=2 n=a2 v=0
20032 On ch=2 n=d3 v=127
20064 On ch=1 n=f4 v=127
20094 On ch=2 n=d3 v=0
20096 On ch=2 n=a2 v=127
20158 On ch=1 n=f4 v=0
20158 On ch=2 n=a2 v=0
20160 On ch=1 n=a4 v=127
20160 On ch=1 n=c5 v=127
20160 On ch=1 n=f5 v=127
20160 On ch=2 n=d2 v=127
20254 On ch=1 n=a4 v=0
20254 On ch=1 n=c5 v=0
20254 On ch=1 n=f5 v=0
20256 On ch=1 n=f4 v=127
20320 On ch=2 n=d2 v=0
20350 On ch=1 n=f4 v=0
20352 On ch=2 n=a1 v=127
20352 On ch=2 n=d2 v=127
20414 On ch=2 n=a1 v=0
20414 On ch=2 n=d2 v=0
20416 On ch=2 n=a2 v=127
20448 On ch=1 n=f4 v=127
20478 On ch=2 n=a2 v=0
20480 On ch=2 n=d2 v=127
20542 On ch=1 n=f4 v=0
20542 On ch=2 n=d2 v=0
20544 On ch=1 n=a4 v=127
20544 On ch=1 n=d5 v=127
20544 On ch=1 n=f5 v=127
20544 On ch=2 n=a1 v=127
20638 On ch=1 n=a4 v=0
20638 On ch=1 n=d5 v=0
20638 On ch=1 n=f5 v=0
20640 On ch=1 n=f4 v=127
20704 On ch=2 n=a1 v=0
20734 On ch=1 n=f4 v=0
20736 Par ch=2 c=64 v=0
20736 Par ch=2 c=64 v=127
20736 On ch=2 n=a3 v=127
20736 On ch=2 n=d4 v=127
20798 On ch=2 n=a3 v=0
20798 On ch=2 n=d4 v=0
20800 On ch=2 n=a4 v=127
20862 On ch=2 n=a4 v=0
20864 On ch=2 n=d4 v=127
20926 On ch=2 n=d4 v=0
20928 On ch=1 n=d5 v=127
20928 On ch=1 n=e5 v=127
20928 On ch=1 n=a5 v=127
20928 On ch=2 n=a3 v=127
21022 On ch=1 n=d5 v=0
21022 On ch=1 n=e5 v=0
21022 On ch=1 n=a5 v=0
21024 On ch=1 n=a4 v=127
21088 On ch=2 n=a3 v=0
21118 On ch=1 n=a4 v=0
21120 On ch=2 n=d3 v=127
21120 On ch=2 n=a3 v=127
21182 On ch=2 n=d3 v=0
21182 On ch=2 n=a3 v=0
21184 On ch=2 n=d4 v=127
21216 On ch=1 n=a4 v=127
21246 On ch=2 n=d4 v=0
21248 On ch=2 n=a3 v=127
21310 On ch=1 n=a4 v=0
21310 On ch=2 n=a3 v=0
21312 On ch=1 n=d5 v=127
21312 On ch=1 n=f5 v=127
21312 On ch=1 n=a5 v=127
21312 On ch=2 n=d3 v=127
21406 On ch=1 n=d5 v=0
21406 On ch=1 n=f5 v=0
21406 On ch=1 n=a5 v=0
21408 On ch=1 n=a4 v=127
21472 On ch=2 n=d3 v=0
21502 On ch=1 n=a4 v=0
21504 Par ch=2 c=64 v=0
21504 Par ch=2 c=64 v=127
21504 On ch=2 n=d2 v=127
21504 On ch=2 n=a2 v=127
21566 On ch=2 n=d2 v=0
21566 On ch=2 n=a2 v=0
21568 On ch=2 n=d3 v=127
21600 On ch=1 n=f4 v=127
21630 On ch=2 n=d3 v=0
21632 On ch=2 n=a2 v=127
21694 On ch=1 n=f4 v=0
21694 On ch=2 n=a2 v=0
21696 On ch=1 n=a4 v=127
21696 On ch=1 n=c5 v=127
21696 On ch=1 n=f5 v=127
21696 On ch=2 n=d2 v=127
21790 On ch=1 n=a4 v=0
21790 On ch=1 n=c5 v=0
21790 On ch=1 n=f5 v=0
21792 On ch=1 n=f4 v=127
21856 On ch=2 n=d2 v=0
21886 On ch=1 n=f4 v=0
21888 On ch=2 n=a1 v=127
21888 On ch=2 n=d2 v=127
21950 On ch=2 n=a1 v=0
21950 On ch=2 n=d2 v=0
21952 On ch=2 n=a2 v=127
21984 On ch=1 n=f4 v=127
22014 On ch=2 n=a2 v=0
22016 On ch=2 n=d2 v=127
22078 On ch=1 n=f4 v=0
22078 On ch=2 n=d2 v=0
22080 On ch=1 n=a4 v=127
22080 On ch=1 n=d5 v=127
22080 On ch=1 n=f5 v=127
22080 On ch=2 n=a1 v=127
22174 On ch=1 n=a4 v=0
22174 On ch=1 n=d5 v=0
22174 On ch=1 n=f5 v=0
22176 On ch=1 n=f4 v=127
22240 On ch=2 n=a1 v=0
22270 On ch=1 n=f4 v=0
22272 Par ch=2 c=64 v=0
22272 Par ch=2 c=64 v=127
22272 On ch=2 n=a3 v=127
22272 On ch=2 n=d4 v=127
22334 On ch=2 n=a3 v=0
22334 On ch=2 n=d4 v=0
22336 On ch=2 n=a4 v=127
22398 On ch=2 n=a4 v=0
22400 On ch=2 n=d4 v=127
22462 On ch=2 n=d4 v=0
22464 On ch=1 n=d5 v=127
22464 On ch=1 n=e5 v=127
22464 On ch=1 n=a5 v=127
22464 On ch=2 n=a3 v=127
22558 On ch=1 n=d5 v=0
22558 On ch=1 n=e5 v=0
22558 On ch=1 n=a5 v=0
22560 On ch=1 n=a4 v=127
22624 On ch=2 n=a3 v=0
22654 On ch=1 n=a4 v=0
22656 On ch=2 n=d3 v=127
22656 On ch=2 n=a3 v=127
22718 On ch=2 n=d3 v=0
22718 On ch=2 n=a3 v=0
22720 On ch=2 n=d4 v=127
22752 On ch=1 n=a4 v=127
22782 On ch=2 n=d4 v=0
22784 On ch=2 n=a3 v=127
22846 On ch=1 n=a4 v=0
22846 On ch=2 n=a3 v=0
22848 On ch=1 n=d5 v=127
22848 On ch=1 n=f5 v=127
22848 On ch=1 n=a5 v=127
22848 On ch=2 n=d3 v=127
22942 On ch=1 n=d5 v=0
22942 On ch=1 n=f5 v=0
22942 On ch=1 n=a5 v=0
22944 On ch=1 n=a4 v=127
23008 On ch=2 n=d3 v=0
23038 On ch=1 n=a4 v=0
23040 Par ch=2 c=64 v=0
23040 Par ch=2 c=64 v=127
23040 On ch=2 n=c4 v=127
23040 On ch=2 n=a4 v=127
23102 On ch=2 n=c4 v=0
23102 On ch=2 n=a4 v=0
23104 On ch=2 n=c5 v=127
23166 On ch=2 n=c5 v=0
23168 On ch=2 n=a4 v=127
23230 On ch=2 n=a4 v=0
23232 On ch=1 n=f5 v=127
23232 On ch=1 n=g5 v=127
23232 On ch=1 n=c6 v=127
23232 On ch=2 n=c4 v=127
23326 On ch=1 n=f5 v=0
23326 On ch=1 n=g5 v=0
23326 On ch=1 n=c6 v=0
23328 On ch=1 n=c5 v=127
23392 On ch=2 n=c4 v=0
23422 On ch=1 n=c5 v=0
23424 On ch=2 n=f3 v=127
23424 On ch=2 n=c4 v=127
23486 On ch=2 n=f3 v=0
23486 On ch=2 n=c4 v=0
23488 On ch=2 n=f4 v=127
23520 On ch=1 n=c5 v=127
23550 On ch=2 n=f4 v=0
23552 On ch=2 n=c4 v=127
23614 On ch=1 n=c5 v=0
23614 On ch=2 n=c4 v=0
23616 On ch=1 n=f5 v=127
23616 On ch=1 n=a5 v=127
23616 On ch=1 n=c6 v=127
23616 On ch=2 n=f3 v=127
23710 On ch=1 n=f5 v=0
23710 On ch=1 n=a5 v=0
23710 On ch=1 n=c6 v=0
23712 On ch=1 n=c5 v=127
23776 On ch=2 n=f3 v=0
23806 On ch=1 n=c5 v=0
23808 Par ch=2 c=64 v=0
23808 Par ch=2 c=64 v=127
23808 On ch=2 n=a3 v=127
23808 On ch=2 n=f4 v=127
23870 On ch=2 n=a3 v=0
23870 On ch=2 n=f4 v=0
23872 On ch=2 n=a4 v=127
23904 On ch=1 n=f5 v=127
23934 On ch=2 n=a4 v=0
23936 On ch=2 n=f4 v=127
23998 On ch=1 n=f5 v=0
23998 On ch=2 n=f4 v=0
24000 On ch=1 n=a5 v=127
24000 On ch=1 n=c6 v=127
24000 On ch=1 n=f6 v=127
24000 On ch=2 n=a3 v=127
24094 On ch=1 n=a5 v=0
24094 On ch=1 n=c6 v=0
24094 On ch=1 n=f6 v=0
24096 On ch=1 n=f5 v=127
24160 On ch=2 n=a3 v=0
24190 On ch=1 n=f5 v=0
24192 On ch=2 n=d2 v=127
24192 On ch=2 n=a2 v=127
24254 On ch=2 n=d2 v=0
24254 On ch=2 n=a2 v=0
24256 On ch=2 n=d3 v=127
24288 On ch=1 n=a5 v=127
24318 On ch=2 n=d3 v=0
24320 On ch=2 n=a2 v=127
24382 On ch=1 n=a5 v=0
24382 On ch=2 n=a2 v=0
24384 On ch=1 n=d6 v=127
24384 On ch=1 n=f6 v=127
24384 On ch=1 n=a6 v=127
24384 On ch=2 n=d2 v=127
24478 On ch=1 n=d6 v=0
24478 On ch=1 n=f6 v=0
24478 On ch=1 n=a6 v=0
24480 On ch=1 n=a5 v=127
24544 On ch=2 n=d2 v=0
24574 On ch=1 n=a5 v=0
24576 Par ch=2 c=64 v=0
24576 Par ch=2 c=64 v=127
24576 On ch=2 n=c4 v=127
24576 On ch=2 n=a4 v=127
24638 On ch=2 n=c4 v=0
24638 On ch=2 n=a4 v=0
24640 On ch=2 n=c5 v=127
24702 On ch=2 n=c5 v=0
24704 On ch=2 n=a4 v=127
24766 On ch=2 n=a4 v=0
24768 On ch=1 n=f5 v=127
24768 On ch=1 n=g5 v=127
24768 On ch=1 n=c6 v=127
24768 On ch=2 n=c4 v=127
24862 On ch=1 n=f5 v=0
24862 On ch=1 n=g5 v=0
24862 On ch=1 n=c6 v=0
24864 On ch=1 n=c5 v=127
24928 On ch=2 n=c4 v=0
24958 On ch=1 n=c5 v=0
24960 On ch=2 n=f3 v=127
24960 On ch=2 n=c4 v=127
25022 On ch=2 n=f3 v=0
25022 On ch=2 n=c4 v=0
25024 On ch=2 n=f4 v=127
25056 On ch=1 n=c5 v=127
25086 On ch=2 n=f4 v=0
25088 On ch=2 n=c4 v=127
25150 On ch=1 n=c5 v=0
25150 On ch=2 n=c4 v=0
25152 On ch=1 n=f5 v=127
25152 On ch=1 n=a5 v=127
25152 On ch=1 n=c6 v=127
25152 On ch=2 n=f3 v=127
25246 On ch=1 n=f5 v=0
25246 On ch=1 n=a5 v=0
25246 On ch=1 n=c6 v=0
25248 On ch=1 n=c5 v=127
25312 On ch=2 n=f3 v=0
25342 On ch=1 n=c5 v=0
25344 Par ch=2 c=64 v=0
25344 Par ch=2 c=64 v=127
25344 On ch=2 n=a3 v=127
25344 On ch=2 n=f4 v=127
25406 On ch=2 n=a3 v=0
25406 On ch=2 n=f4 v=0
25408 On ch=2 n=a4 v=127
25440 On ch=1 n=f5 v=127
25470 On ch=2 n=a4 v=0
25472 On ch=2 n=f4 v=127
25534 On ch=1 n=f5 v=0
25534 On ch=2 n=f4 v=0
25536 On ch=1 n=a5 v=127
25536 On ch=1 n=c6 v=127
25536 On ch=1 n=f6 v=127
25536 On ch=2 n=a3 v=127
25630 On ch=1 n=a5 v=0
25630 On ch=1 n=c6 v=0
25630 On ch=1 n=f6 v=0
25632 On ch=1 n=f5 v=127
25696 On ch=2 n=a3 v=0
25726 On ch=1 n=f5 v=0
25728 On ch=2 n=d2 v=127
25728 On ch=2 n=a2 v=127
25790 On ch=2 n=d2 v=0
25790 On ch=2 n=a2 v=0
25792 On ch=2 n=d3 v=127
25824 On ch=1 n=a5 v=127
25854 On ch=2 n=d3 v=0
25856 On ch=2 n=a2 v=127
25918 On ch=1 n=a5 v=0
25918 On ch=2 n=a2 v=0
25920 On ch=1 n=d6 v=127
25920 On ch=1 n=f6 v=127
25920 On ch=1 n=a6 v=127
25920 On ch=2 n=d2 v=127
26014 On ch=1 n=d6 v=0
26014 On ch=1 n=f6 v=0
26014 On ch=1 n=a6 v=0
26016 On ch=1 n=a5 v=127
26080 On ch=2 n=d2 v=0
26110 On ch=1 n=a5 v=0
26112 Par ch=2 c=64 v=0
26112 Par ch=2 c=64 v=127
26112 On ch=2 n=g3 v=127
26112 On ch=2 n=d4 v=127
26174 On ch=2 n=g3 v=0
26174 On ch=2 n=d4 v=0
26176 On ch=2 n=g4 v=127
26208 On ch=1 n=a#4 v=127
26238 On ch=2 n=g4 v=0
26240 On ch=2 n=d4 v=127
26302 On ch=1 n=a#4 v=0
26302 On ch=2 n=d4 v=0
26304 On ch=1 n=d5 v=127
26304 On ch=1 n=f5 v=127
26304 On ch=1 n=a#5 v=127
26304 On ch=2 n=g3 v=127
26398 On ch=1 n=d5 v=0
26398 On ch=1 n=f5 v=0
26398 On ch=1 n=a#5 v=0
26400 On ch=1 n=a#4 v=127
26464 On ch=2 n=g3 v=0
26494 On ch=1 n=a#4 v=0
26496 On ch=2 n=d3 v=127
26496 On ch=2 n=g3 v=127
26558 On ch=2 n=d3 v=0
26558 On ch=2 n=g3 v=0
26560 On ch=2 n=d4 v=127
26592 On ch=1 n=a#4 v=127
26622 On ch=2 n=d4 v=0
26624 On ch=2 n=g3 v=127
26686 On ch=1 n=a#4 v=0
26686 On ch=2 n=g3 v=0
26688 On ch=1 n=d5 v=127
26688 On ch=1 n=f5 v=127
26688 On ch=1 n=a#5 v=127
26688 On ch=2 n=d3 v=127
26782 On ch=1 n=d5 v=0
26782 On ch=1 n=f5 v=0
26782 On ch=1 n=a#5 v=0
26784 On ch=1 n=a#4 v=127
26848 On ch=2 n=d3 v=0
26878 On ch=1 n=a#4 v=0
26880 Par ch=2 c=64 v=0
26880 Par ch=2 c=64 v=127
26880 On ch=2 n=d4 v=127
26880 On ch=2 n=g4 v=127
26942 On ch=2 n=d4 v=0
26942 On ch=2 n=g4 v=0
26944 On ch=2 n=d5 v=127
27006 On ch=2 n=d5 v=0
27008 On ch=2 n=g4 v=127
27070 On ch=2 n=g4 v=0
27072 On ch=1 n=g5 v=127
27072 On ch=1 n=a5 v=127
27072 On ch=1 n=d6 v=127
27072 On ch=2 n=d4 v=127
27166 On ch=1 n=g5 v=0
27166 On ch=1 n=a5 v=0
27166 On ch=1 n=d6 v=0
27168 On ch=1 n=d5 v=127
27232 On ch=2 n=d4 v=0
27262 On ch=1 n=d5 v=0
27264 On ch=2 n=g3 v=127
27264 On ch=2 n=d4 v=127
27326 On ch=2 n=g3 v=0
27326 On ch=2 n=d4 v=0
27328 On ch=2 n=g4 v=127
27360 On ch=1 n=d5 v=127
27390 On ch=2 n=g4 v=0
27392 On ch=2 n=d4 v=127
27454 On ch=1 n=d5 v=0
27454 On ch=2 n=d4 v=0
27456 On ch=1 n=g5 v=127
27456 On ch=1 n=a#5 v=127
27456 On ch=1 n=d6 v=127
27456 On ch=2 n=g3 v=127
27550 On ch=1 n=g5 v=0
27550 On ch=1 n=a#5 v=0
27550 On ch=1 n=d6 v=0
27552 On ch=1 n=d5 v=127
27616 On ch=2 n=g3 v=0
27646 On ch=1 n=d5 v=0
27648 Par ch=2 c=64 v=0
27648 Par ch=2 c=64 v=127
27648 On ch=2 n=f4 v=127
27648 On ch=2 n=d5 v=127
27710 On ch=2 n=f4 v=0
27710 On ch=2 n=d5 v=0
27712 On ch=2 n=f5 v=127
27774 On ch=2 n=f5 v=0
27776 On ch=2 n=d5 v=127
27838 On ch=2 n=d5 v=0
27840 On ch=1 n=a#5 v=127
27840 On ch=1 n=c6 v=127
27840 On ch=1 n=f6 v=127
27840 On ch=2 n=f4 v=127
27934 On ch=1 n=a#5 v=0
27934 On ch=1 n=c6 v=0
27934 On ch=1 n=f6 v=0
27936 On ch=1 n=f5 v=127
28000 On ch=2 n=f4 v=0
28030 On ch=1 n=f5 v=0
28032 On ch=2 n=a#3 v=127
28032 On ch=2 n=f4 v=127
28094 On ch=2 n=a#3 v=0
28094 On ch=2 n=f4 v=0
28096 On ch=2 n=a#4 v=127
28128 On ch=1 n=g5 v=127
28158 On ch=2 n=a#4 v=0
28160 On ch=2 n=f4 v=127
28222 On ch=1 n=g5 v=0
28222 On ch=2 n=f4 v=0
28224 On ch=1 n=a#5 v=127
28224 On ch=1 n=d6 v=127
28224 On ch=1 n=g6 v=127
28224 On ch=2 n=a#3 v=127
28318 On ch=1 n=a#5 v=0
28318 On ch=1 n=d6 v=0
28318 On ch=1 n=g6 v=0
28320 On ch=1 n=g5 v=127
28384 On ch=2 n=a#3 v=0
28414 On ch=1 n=g5 v=0
28416 Par ch=2 c=64 v=0
28416 Par ch=2 c=64 v=127
28416 On ch=2 n=d4 v=127
28416 On ch=2 n=a#4 v=127
28478 On ch=2 n=d4 v=0
28478 On ch=2 n=a#4 v=0
28480 On ch=2 n=d5 v=127
28512 On ch=1 n=a#5 v=127
28542 On ch=2 n=d5 v=0
28544 On ch=2 n=a#4 v=127
28606 On ch=1 n=a#5 v=0
28606 On ch=2 n=a#4 v=0
28608 On ch=1 n=d6 v=127
28608 On ch=1 n=f6 v=127
28608 On ch=1 n=a#6 v=127
28608 On ch=2 n=d4 v=127
28702 On ch=1 n=d6 v=0
28702 On ch=1 n=f6 v=0
28702 On ch=1 n=a#6 v=0
28704 On ch=1 n=a#5 v=127
28768 On ch=2 n=d4 v=0
28798 On ch=1 n=a#5 v=0
28800 On ch=2 n=g2 v=127
28800 On ch=2 n=d3 v=127
28862 On ch=2 n=g2 v=0
28862 On ch=2 n=d3 v=0
28864 On ch=2 n=g3 v=127
28896 On ch=1 n=d6 v=127
28926 On ch=2 n=g3 v=0
28928 On ch=2 n=d3 v=127
28990 On ch=1 n=d6 v=0
28990 On ch=2 n=d3 v=0
28992 On ch=1 n=g6 v=127
28992 On ch=1 n=a#6 v=127
28992 On ch=1 n=d7 v=127
28992 On ch=2 n=g2 v=127
29086 On ch=1 n=g6 v=0
29086 On ch=1 n=a#6 v=0
29086 On ch=1 n=d7 v=0
29088 On ch=1 n=d6 v=127
29152 On ch=2 n=g2 v=0
29182 On ch=1 n=d6 v=0
29184 Par ch=2 c=64 v=0
29184 Par ch=2 c=64 v=127
29184 On ch=2 n=d5 v=127
29184 On ch=2 n=a#5 v=127
29246 On ch=2 n=d5 v=0
29246 On ch=2 n=a#5 v=0
29248 On ch=2 n=d6 v=127
29310 On ch=2 n=d6 v=0
29312 On ch=1 n=g6 v=127
29312 On ch=2 n=a#5 v=127
29374 On ch=2 n=a#5 v=0
29376 On ch=1 n=d7 v=127
29376 On ch=2 n=d5 v=127
29438 On ch=1 n=g6 v=0
29438 On ch=1 n=d7 v=0
29440 On ch=1 n=g6 v=127
29502 On ch=1 n=g6 v=0
29504 On ch=1 n=d6 v=127
29536 On ch=2 n=d5 v=0
29566 On ch=1 n=d6 v=0
29568 On ch=2 n=d5 v=127
29568 On ch=2 n=a#5 v=127
29630 On ch=2 n=d5 v=0
29630 On ch=2 n=a#5 v=0
29632 On ch=2 n=d6 v=127
29694 On ch=2 n=d6 v=0
29696 On ch=1 n=d7 v=127
29696 On ch=2 n=a#5 v=127
29758 On ch=2 n=a#5 v=0
29760 On ch=1 n=g7 v=127
29760 On ch=2 n=d5 v=127
29822 On ch=1 n=d7 v=0
29822 On ch=1 n=g7 v=0
29824 On ch=1 n=d7 v=127
29886 On ch=1 n=d7 v=0
29888 On ch=1 n=g6 v=127
29920 On ch=2 n=d5 v=0
29950 On ch=1 n=g6 v=0
29952 Par ch=2 c=64 v=0
29952 Par ch=2 c=64 v=127
29952 On ch=2 n=d5 v=127
29952 On ch=2 n=a5 v=127
30014 On ch=2 n=d5 v=0
30014 On ch=2 n=a5 v=0
30016 On ch=2 n=d6 v=127
30078 On ch=2 n=d6 v=0
30080 On ch=1 n=f#6 v=127
30080 On ch=2 n=a5 v=127
30142 On ch=2 n=a5 v=0
30144 On ch=1 n=a#6 v=127
30144 On ch=2 n=d5 v=127
30206 On ch=1 n=f#6 v=0
30206 On ch=1 n=a#6 v=0
30208 On ch=1 n=f#6 v=127
30270 On ch=1 n=f#6 v=0
30272 On ch=1 n=a#5 v=127
30304 On ch=2 n=d5 v=0
30334 On ch=1 n=a#5 v=0
30336 On ch=2 n=d5 v=127
30336 On ch=2 n=g#5 v=127
30398 On ch=2 n=d5 v=0
30398 On ch=2 n=g#5 v=0
30400 On ch=2 n=d6 v=127
30462 On ch=2 n=d6 v=0
30464 On ch=1 n=f6 v=127
30464 On ch=2 n=g#5 v=127
30526 On ch=2 n=g#5 v=0
30528 On ch=1 n=d7 v=127
30528 On ch=2 n=d5 v=127
30590 On ch=1 n=f6 v=0
30590 On ch=1 n=d7 v=0
30592 On ch=1 n=f6 v=127
30654 On ch=1 n=f6 v=0
30656 On ch=1 n=d6 v=127
30688 On ch=2 n=d5 v=0
30718 On ch=1 n=d6 v=0
30720 Par ch=2 c=64 v=0
30720 Par ch=2 c=64 v=127
30720 On ch=2 n=d5 v=127
30720 On ch=2 n=g5 v=127
30782 On ch=2 n=d5 v=0
30782 On ch=2 n=g5 v=0
30784 On ch=2 n=a#5 v=127
30846 On ch=2 n=a#5 v=0
30848 On ch=1 n=e6 v=127
30848 On ch=2 n=g5 v=127
30910 On ch=2 n=g5 v=0
30912 On ch=1 n=g6 v=127
30912 On ch=2 n=d5 v=127
30974 On ch=1 n=e6 v=0
30974 On ch=1 n=g6 v=0
30976 On ch=1 n=e6 v=127
31038 On ch=1 n=e6 v=0
31040 On ch=1 n=g5 v=127
31072 On ch=2 n=d5 v=0
31102 On ch=1 n=g5 v=0
31104 On ch=2 n=d5 v=127
31104 On ch=2 n=f#5 v=127
31166 On ch=2 n=d5 v=0
31166 On ch=2 n=f#5 v=0
31168 On ch=2 n=a#5 v=127
31230 On ch=2 n=a#5 v=0
31232 On ch=1 n=d#6 v=127
31232 On ch=2 n=f#5 v=127
31294 On ch=2 n=f#5 v=0
31296 On ch=1 n=a#6 v=127
31296 On ch=2 n=d5 v=127
31358 On ch=1 n=d#6 v=0
31358 On ch=1 n=a#6 v=0
31360 On ch=1 n=d#6 v=127
31422 On ch=1 n=d#6 v=0
31424 On ch=1 n=a#5 v=127
31456 On ch=2 n=d5 v=0
31486 On ch=1 n=a#5 v=0
31488 Par ch=2 c=64 v=0
31488 Par ch=2 c=64 v=127
31488 On ch=2 n=f5 v=127
31550 On ch=2 n=f5 v=0
31552 On ch=2 n=a#5 v=127
31614 On ch=2 n=a#5 v=0
31616 On ch=1 n=g5 v=127
31616 On ch=2 n=f5 v=127
31678 On ch=2 n=f5 v=0
31680 On ch=1 n=d6 v=127
31680 On ch=2 n=d5 v=127
31742 On ch=1 n=g5 v=0
31742 On ch=1 n=d6 v=0
31744 On ch=1 n=g5 v=127
31806 On ch=1 n=g5 v=0
31808 On ch=1 n=d5 v=127
31840 On ch=2 n=d5 v=0
31870 On ch=1 n=d5 v=0
31872 On ch=2 n=e5 v=127
31934 On ch=2 n=e5 v=0
31936 On ch=2 n=a#5 v=127
31998 On ch=2 n=a#5 v=0
32000 On ch=1 n=d6 v=127
32000 On ch=2 n=e5 v=127
32062 On ch=2 n=e5 v=0
32064 On ch=1 n=g6 v=127
32064 On ch=2 n=g4 v=127
32126 On ch=1 n=d6 v=0
32126 On ch=1 n=g6 v=0
32128 On ch=1 n=d6 v=127
32190 On ch=1 n=d6 v=0
32192 On ch=1 n=g5 v=127
32224 On ch=2 n=g4 v=0
32254 On ch=1 n=g5 v=0
32256 Par ch=2 c=64 v=0
32256 Par ch=2 c=64 v=127
32256 On ch=2 n=a2 v=127
32256 On ch=2 n=a3 v=127
32448 On ch=2 n=a2 v=0
32448 On ch=2 n=a3 v=0
32640 On ch=2 n=g4 v=127
32640 On ch=2 n=c#5 v=127
32640 On ch=2 n=e5 v=127
32640 On ch=2 n=g5 v=127
32704 On ch=1 n=c#6 v=127
32704 On ch=1 n=e6 v=127
32704 On ch=1 n=g6 v=127
32766 On ch=1 n=c#6 v=0
32766 On ch=1 n=e6 v=0
32766 On ch=1 n=g6 v=0
32768 On ch=1 n=g5 v=127
32830 On ch=1 n=g5 v=0
32832 On ch=1 n=a5 v=127
32894 On ch=1 n=a5 v=0
32896 On ch=1 n=a#5 v=127
32958 On ch=1 n=a#5 v=0
32960 On ch=1 n=g5 v=127
32976 On ch=2 n=g4 v=0
32976 On ch=2 n=c#5 v=0
32976 On ch=2 n=e5 v=0
32976 On ch=2 n=g5 v=0
33022 On ch=1 n=g5 v=0
33024 Par ch=2 c=64 v=0
33024 Par ch=2 c=64 v=127
33024 On ch=2 n=f4 v=127
33024 On ch=2 n=a4 v=127
33024 On ch=2 n=c#5 v=127
33024 On ch=2 n=f5 v=127
33088 On ch=1 n=c#6 v=124
33088 On ch=1 n=f6 v=124
33150 On ch=1 n=c#6 v=0
33150 On ch=1 n=f6 v=0
33152 On ch=1 n=g5 v=120
33214 On ch=1 n=g5 v=0
33216 On ch=1 n=a5 v=116
33278 On ch=1 n=a5 v=0
33280 On ch=1 n=a#5 v=112
33342 On ch=1 n=a#5 v=0
33344 On ch=1 n=g5 v=108
33360 On ch=2 n=f4 v=0
33360 On ch=2 n=a4 v=0
33360 On ch=2 n=c#5 v=0
33360 On ch=2 n=f5 v=0
33406 On ch=1 n=g5 v=0
33408 On ch=2 n=g4 v=104
33408 On ch=2 n=c#5 v=104
33408 On ch=2 n=e5 v=104
33408 On ch=2 n=g5 v=104
33472 On ch=1 n=c#6 v=100
33472 On ch=1 n=e6 v=100
33472 On ch=1 n=g6 v=100
33534 On ch=1 n=c#6 v=0
33534 On ch=1 n=e6 v=0
33534 On ch=1 n=g6 v=0
33536 On ch=1 n=g5 v=96
33568 On ch=2 n=g4 v=0
33568 On ch=2 n=c#5 v=0
33568 On ch=2 n=e5 v=0
33568 On ch=2 n=g5 v=0
33598 On ch=1 n=g5 v=0
33600 On ch=2 n=a4 v=92
33600 On ch=2 n=c#5 v=92
33600 On ch=2 n=f5 v=92
33600 On ch=2 n=a5 v=92
33664 On ch=1 n=c#6 v=92
33664 On ch=1 n=f6 v=92
33664 On ch=1 n=a6 v=92
33726 On ch=1 n=c#6 v=0
33726 On ch=1 n=f6 v=0
33726 On ch=1 n=a6 v=0
33728 On ch=1 n=a5 v=92
33760 On ch=2 n=a4 v=0
33760 On ch=2 n=c#5 v=0
33760 On ch=2 n=f5 v=0
33760 On ch=2 n=a5 v=0
33790 On ch=1 n=a5 v=0
33792 Par ch=2 c=64 v=0
33792 Par ch=2 c=64 v=127
33792 On ch=2 n=a2 v=127
33792 On ch=2 n=a3 v=127
34176 On ch=2 n=f4 v=127
34176 On ch=2 n=a4 v=127
34176 On ch=2 n=c#5 v=127
34176 On ch=2 n=f5 v=127
34240 On ch=1 n=c#6 v=127
34240 On ch=1 n=f6 v=127
34302 On ch=1 n=c#6 v=0
34302 On ch=1 n=f6 v=0
34304 On ch=1 n=g5 v=127
34366 On ch=1 n=g5 v=0
34368 On ch=1 n=a5 v=127
34430 On ch=1 n=a5 v=0
34432 On ch=1 n=a#5 v=127
34494 On ch=1 n=a#5 v=0
34496 On ch=1 n=g5 v=127
34512 On ch=2 n=a2 v=0
34512 On ch=2 n=a3 v=0
34512 On ch=2 n=f4 v=0
34512 On ch=2 n=a4 v=0
34512 On ch=2 n=c#5 v=0
34512 On ch=2 n=f5 v=0
34558 On ch=1 n=g5 v=0
34560 Par ch=2 c=64 v=0
34560 Par ch=2 c=64 v=127
34560 On ch=2 n=e4 v=127
34560 On ch=2 n=a4 v=127
34560 On ch=2 n=c#5 v=127
34560 On ch=2 n=e5 v=127
34624 On ch=1 n=c#6 v=127
34624 On ch=1 n=e6 v=127
34686 On ch=1 n=c#6 v=0
34686 On ch=1 n=e6 v=0
34688 On ch=1 n=g5 v=127
34750 On ch=1 n=g5 v=0
34752 On ch=1 n=a5 v=127
34814 On ch=1 n=a5 v=0
34816 On ch=1 n=a#5 v=127
34878 On ch=1 n=a#5 v=0
34880 On ch=1 n=g5 v=127
34896 On ch=2 n=e4 v=0
34896 On ch=2 n=a4 v=0
34896 On ch=2 n=c#5 v=0
34896 On ch=2 n=e5 v=0
34942 On ch=1 n=g5 v=0
34944 On ch=2 n=f4 v=127
34944 On ch=2 n=a4 v=127
34944 On ch=2 n=c#5 v=127
34944 On ch=2 n=f5 v=127
35008 On ch=1 n=a5 v=127
35008 On ch=1 n=c#6 v=127
35008 On ch=1 n=f6 v=127
35070 On ch=1 n=a5 v=0
35070 On ch=1 n=c#6 v=0
35070 On ch=1 n=f6 v=0
35072 On ch=1 n=g5 v=127
35104 On ch=2 n=f4 v=0
35104 On ch=2 n=a4 v=0
35104 On ch=2 n=c#5 v=0
35104 On ch=2 n=f5 v=0
35134 On ch=1 n=g5 v=0
35136 On ch=2 n=g4 v=127
35136 On ch=2 n=a4 v=127
35136 On ch=2 n=c#5 v=127
35136 On ch=2 n=g5 v=127
35200 On ch=1 n=a5 v=127
35200 On ch=1 n=c#6 v=127
35200 On ch=1 n=f6 v=127
35262 On ch=1 n=a5 v=0
35262 On ch=1 n=c#6 v=0
35262 On ch=1 n=f6 v=0
35264 On ch=1 n=g5 v=127
35296 On ch=2 n=g4 v=0
35296 On ch=2 n=a4 v=0
35296 On ch=2 n=c#5 v=0
35296 On ch=2 n=g5 v=0
35326 On ch=1 n=g5 v=0
35328 Par ch=2 c=64 v=0
35328 Par ch=2 c=64 v=127
35328 On ch=2 n=a2 v=127
35328 On ch=2 n=a3 v=127
35712 On ch=2 n=e4 v=127
35712 On ch=2 n=a4 v=127
35712 On ch=2 n=c5 v=127
35712 On ch=2 n=e5 v=127
35776 On ch=1 n=a5 v=127
35776 On ch=1 n=c6 v=127
35776 On ch=1 n=e6 v=127
35838 On ch=1 n=a5 v=0
35838 On ch=1 n=c6 v=0
35838 On ch=1 n=e6 v=0
35840 On ch=1 n=f5 v=127
35902 On ch=1 n=f5 v=0
35904 On ch=1 n=g5 v=127
35966 On ch=1 n=g5 v=0
35968 On ch=1 n=a5 v=127
36030 On ch=1 n=a5 v=0
36032 On ch=1 n=f5 v=127
36048 On ch=2 n=a2 v=0
36048 On ch=2 n=a3 v=0
36048 On ch=2 n=e4 v=0
36048 On ch=2 n=a4 v=0
36048 On ch=2 n=c5 v=0
36048 On ch=2 n=e5 v=0
36094 On ch=1 n=f5 v=0
36096 Par ch=2 c=64 v=0
36096 Par ch=2 c=64 v=127
36096 On ch=2 n=d4 v=127
36096 On ch=2 n=a4 v=127
36096 On ch=2 n=a#4 v=127
36096 On ch=2 n=d5 v=127
36160 On ch=1 n=a5 v=124
36160 On ch=1 n=b5 v=124
36160 On ch=1 n=d6 v=124
36222 On ch=1 n=a5 v=0
36222 On ch=1 n=b5 v=0
36222 On ch=1 n=d6 v=0
36224 On ch=1 n=f5 v=120
36286 On ch=1 n=f5 v=0
36288 On ch=1 n=g5 v=116
36350 On ch=1 n=g5 v=0
36352 On ch=1 n=a5 v=112
36414 On ch=1 n=a5 v=0
36416 On ch=1 n=f5 v=108
36432 On ch=2 n=d4 v=0
36432 On ch=2 n=a4 v=0
36432 On ch=2 n=a#4 v=0
36432 On ch=2 n=d5 v=0
36478 On ch=1 n=f5 v=0
36480 On ch=2 n=e4 v=104
36480 On ch=2 n=a4 v=104
36480 On ch=2 n=c5 v=104
36480 On ch=2 n=e5 v=104
36544 On ch=1 n=a5 v=100
36544 On ch=1 n=c6 v=100
36544 On ch=1 n=e6 v=100
36606 On ch=1 n=a5 v=0
36606 On ch=1 n=c6 v=0
36606 On ch=1 n=e6 v=0
36608 On ch=1 n=e5 v=96
36640 On ch=2 n=e4 v=0
36640 On ch=2 n=a4 v=0
36640 On ch=2 n=c5 v=0
36640 On ch=2 n=e5 v=0
36670 On ch=1 n=e5 v=0
36672 On ch=2 n=f4 v=92
36672 On ch=2 n=a4 v=92
36672 On ch=2 n=d5 v=92
36672 On ch=2 n=f5 v=92
36736 On ch=1 n=a5 v=92
36736 On ch=1 n=d6 v=92
36736 On ch=1 n=f6 v=92
36798 On ch=1 n=a5 v=0
36798 On ch=1 n=d6 v=0
36798 On ch=1 n=f6 v=0
36800 On ch=1 n=f5 v=92
36832 On ch=2 n=f4 v=0
36832 On ch=2 n=a4 v=0
36832 On ch=2 n=d5 v=0
36832 On ch=2 n=f5 v=0
36862 On ch=1 n=f5 v=0
36864 Par ch=2 c=64 v=0
36864 Par ch=2 c=64 v=127
36864 On ch=2 n=a2 v=127
36864 On ch=2 n=a3 v=127
37248 On ch=2 n=f4 v=127
37248 On ch=2 n=a4 v=127
37248 On ch=2 n=b4 v=127
37248 On ch=2 n=d5 v=127
37312 On ch=1 n=a5 v=127
37312 On ch=1 n=b5 v=127
37312 On ch=1 n=d6 v=127
37374 On ch=1 n=a5 v=0
37374 On ch=1 n=b5 v=0
37374 On ch=1 n=d6 v=0
37376 On ch=1 n=f5 v=127
37408 On ch=2 n=f4 v=0
37408 On ch=2 n=a4 v=0
37408 On ch=2 n=b4 v=0
37408 On ch=2 n=d5 v=0
37438 On ch=1 n=f5 v=0
37440 On ch=2 n=e4 v=127
37440 On ch=2 n=a4 v=127
37440 On ch=2 n=c5 v=127
37440 On ch=2 n=e5 v=127
37504 On ch=1 n=a5 v=127
37504 On ch=1 n=c6 v=127
37504 On ch=1 n=e6 v=127
37566 On ch=1 n=a5 v=0
37566 On ch=1 n=c6 v=0
37566 On ch=1 n=e6 v=0
37568 On ch=1 n=e5 v=127
37584 On ch=2 n=a2 v=0
37584 On ch=2 n=a3 v=0
37600 On ch=2 n=e4 v=0
37600 On ch=2 n=a4 v=0
37600 On ch=2 n=c5 v=0
37600 On ch=2 n=e5 v=0
37630 On ch=1 n=e5 v=0
37632 Par ch=2 c=64 v=0
37632 Par ch=2 c=64 v=127
37632 On ch=2 n=a2 v=127
37632 On ch=2 n=a3 v=127
38016 On ch=2 n=e4 v=92
38016 On ch=2 n=g4 v=92
38016 On ch=2 n=a4 v=92
38016 On ch=2 n=c5 v=92
38080 On ch=1 n=g5 v=92
38080 On ch=1 n=a5 v=92
38080 On ch=1 n=c6 v=92
38142 On ch=1 n=g5 v=0
38142 On ch=1 n=a5 v=0
38142 On ch=1 n=c6 v=0
38144 On ch=1 n=e5 v=92
38176 On ch=2 n=e4 v=0
38176 On ch=2 n=g4 v=0
38176 On ch=2 n=a4 v=0
38176 On ch=2 n=c5 v=0
38206 On ch=1 n=e5 v=0
38208 On ch=2 n=d4 v=92
38208 On ch=2 n=f4 v=92
38208 On ch=2 n=a4 v=92
38208 On ch=2 n=d5 v=92
38272 On ch=1 n=d6 v=92
38272 On ch=1 n=a5 v=92
38272 On ch=1 n=f5 v=92
38334 On ch=1 n=d6 v=0
38334 On ch=1 n=a5 v=0
38334 On ch=1 n=f5 v=0
38336 On ch=1 n=d5 v=92
38352 On ch=2 n=a3 v=0
38352 On ch=2 n=a2 v=0
38368 On ch=2 n=d4 v=0
38368 On ch=2 n=f4 v=0
38368 On ch=2 n=a4 v=0
38368 On ch=2 n=d5 v=0
38398 On ch=1 n=d5 v=0
38400 Par ch=2 c=64 v=0
38400 Par ch=2 c=64 v=127
38400 On ch=2 n=e2 v=127
38400 On ch=2 n=e3 v=127
38784 On ch=2 n=d4 v=127
38784 On ch=2 n=g#4 v=127
38784 On ch=2 n=b4 v=127
38784 On ch=2 n=d5 v=127
38848 On ch=1 n=g#5 v=127
38848 On ch=1 n=b5 v=127
38848 On ch=1 n=d6 v=127
38910 On ch=1 n=g#5 v=0
38910 On ch=1 n=b5 v=0
38910 On ch=1 n=d6 v=0
38912 On ch=1 n=d5 v=127
38974 On ch=1 n=d5 v=0
38976 On ch=1 n=e5 v=127
39038 On ch=1 n=e5 v=0
39040 On ch=1 n=f5 v=127
39102 On ch=1 n=f5 v=0
39104 On ch=1 n=d5 v=127
39120 On ch=2 n=e2 v=0
39120 On ch=2 n=e3 v=0
39120 On ch=2 n=d4 v=0
39120 On ch=2 n=g#4 v=0
39120 On ch=2 n=b4 v=0
39120 On ch=2 n=d5 v=0
39166 On ch=1 n=d5 v=0
39168 Par ch=2 c=64 v=0
39168 Par ch=2 c=64 v=127
39168 On ch=2 n=c4 v=127
39168 On ch=2 n=e4 v=127
39168 On ch=2 n=g#4 v=127
39168 On ch=2 n=c5 v=127
39232 On ch=1 n=g#5 v=124
39232 On ch=1 n=c6 v=124
39294 On ch=1 n=g#5 v=0
39294 On ch=1 n=c6 v=0
39296 On ch=1 n=d5 v=120
39358 On ch=1 n=d5 v=0
39360 On ch=1 n=e5 v=116
39422 On ch=1 n=e5 v=0
39424 On ch=1 n=f5 v=112
39486 On ch=1 n=f5 v=0
39488 On ch=1 n=d5 v=108
39504 On ch=2 n=c4 v=0
39504 On ch=2 n=e4 v=0
39504 On ch=2 n=g#4 v=0
39504 On ch=2 n=c5 v=0
39550 On ch=1 n=d5 v=0
39552 On ch=2 n=d4 v=104
39552 On ch=2 n=g#4 v=104
39552 On ch=2 n=b4 v=104
39552 On ch=2 n=d5 v=104
39616 On ch=1 n=g#5 v=100
39616 On ch=1 n=b5 v=100
39616 On ch=1 n=d6 v=100
39678 On ch=1 n=g#5 v=0
39678 On ch=1 n=b5 v=0
39678 On ch=1 n=d6 v=0
39680 On ch=1 n=d5 v=96
39712 On ch=2 n=d4 v=0
39712 On ch=2 n=g#4 v=0
39712 On ch=2 n=b4 v=0
39712 On ch=2 n=d5 v=0
39742 On ch=1 n=d5 v=0
39744 On ch=2 n=e4 v=92
39744 On ch=2 n=g#4 v=92
39744 On ch=2 n=c5 v=92
39744 On ch=2 n=e5 v=92
39808 On ch=1 n=g#5 v=92
39808 On ch=1 n=c6 v=92
39808 On ch=1 n=e6 v=92
39870 On ch=1 n=g#5 v=0
39870 On ch=1 n=c6 v=0
39870 On ch=1 n=e6 v=0
39872 On ch=1 n=e5 v=92
39904 On ch=2 n=e4 v=0
39904 On ch=2 n=g#4 v=0
39904 On ch=2 n=c5 v=0
39904 On ch=2 n=e5 v=0
39934 On ch=1 n=e5 v=0
39936 Par ch=2 c=64 v=0
39936 Par ch=2 c=64 v=127
39936 On ch=2 n=e2 v=127
39936 On ch=2 n=e3 v=127
40320 On ch=2 n=c4 v=127
40320 On ch=2 n=e4 v=127
40320 On ch=2 n=g#4 v=127
40320 On ch=2 n=c5 v=127
40384 On ch=1 n=g#5 v=127
40384 On ch=1 n=c6 v=127
40446 On ch=1 n=g#5 v=0
40446 On ch=1 n=c6 v=0
40448 On ch=1 n=d5 v=127
40510 On ch=1 n=d5 v=0
40512 On ch=1 n=e5 v=127
40574 On ch=1 n=e5 v=0
40576 On ch=1 n=f5 v=127
40638 On ch=1 n=f5 v=0
40640 On ch=1 n=d5 v=127
40656 On ch=2 n=e2 v=0
40656 On ch=2 n=e3 v=0
40656 On ch=2 n=c4 v=0
40656 On ch=2 n=e4 v=0
40656 On ch=2 n=g#4 v=0
40656 On ch=2 n=c5 v=0
40702 On ch=1 n=d5 v=0
40704 Par ch=2 c=64 v=0
40704 Par ch=2 c=64 v=127
40704 On ch=2 n=b3 v=127
40704 On ch=2 n=e4 v=127
40704 On ch=2 n=g#4 v=127
40704 On ch=2 n=b4 v=127
40768 On ch=1 n=g#5 v=124
40768 On ch=1 n=b5 v=124
40830 On ch=1 n=g#5 v=0
40830 On ch=1 n=b5 v=0
40832 On ch=1 n=d5 v=120
40894 On ch=1 n=d5 v=0
40896 On ch=1 n=e5 v=116
40958 On ch=1 n=e5 v=0
40960 On ch=1 n=f5 v=112
41022 On ch=1 n=f5 v=0
41024 On ch=1 n=d5 v=108
41040 On ch=2 n=b3 v=0
41040 On ch=2 n=e4 v=0
41040 On ch=2 n=g#4 v=0
41040 On ch=2 n=b4 v=0
41086 On ch=1 n=d5 v=0
41088 On ch=2 n=c4 v=104
41088 On ch=2 n=e4 v=104
41088 On ch=2 n=g#4 v=104
41088 On ch=2 n=c5 v=104
41152 On ch=1 n=e5 v=100
41152 On ch=1 n=g#5 v=100
41152 On ch=1 n=c6 v=100
41214 On ch=1 n=e5 v=0
41214 On ch=1 n=g#5 v=0
41214 On ch=1 n=c6 v=0
41216 On ch=1 n=c5 v=96
41248 On ch=2 n=c4 v=0
41248 On ch=2 n=e4 v=0
41248 On ch=2 n=g#4 v=0
41248 On ch=2 n=c5 v=0
41278 On ch=1 n=c5 v=0
41280 On ch=2 n=d4 v=92
41280 On ch=2 n=e4 v=92
41280 On ch=2 n=g#4 v=92
41280 On ch=2 n=d5 v=92
41344 On ch=1 n=e5 v=92
41344 On ch=1 n=g#5 v=92
41344 On ch=1 n=d6 v=92
41406 On ch=1 n=e5 v=0
41406 On ch=1 n=g#5 v=0
41406 On ch=1 n=d6 v=0
41408 On ch=1 n=d5 v=92
41440 On ch=2 n=d4 v=0
41440 On ch=2 n=e4 v=0
41440 On ch=2 n=g#4 v=0
41440 On ch=2 n=d5 v=0
41470 On ch=1 n=d5 v=0
41472 Par ch=2 c=64 v=0
41472 Par ch=2 c=64 v=127
41472 On ch=2 n=e2 v=127
41472 On ch=2 n=e3 v=127
41856 On ch=2 n=b3 v=127
41856 On ch=2 n=e4 v=127
41856 On ch=2 n=g4 v=127
41856 On ch=2 n=b4 v=127
41920 On ch=1 n=e5 v=127
41920 On ch=1 n=g5 v=127
41920 On ch=1 n=b5 v=127
41982 On ch=1 n=e5 v=0
41982 On ch=1 n=g5 v=0
41982 On ch=1 n=b5 v=0
41984 On ch=1 n=c5 v=127
42046 On ch=1 n=c5 v=0
42048 On ch=1 n=d5 v=127
42110 On ch=1 n=d5 v=0
42112 On ch=1 n=e5 v=127
42174 On ch=1 n=e5 v=0
42176 On ch=1 n=c5 v=127
42192 On ch=2 n=e2 v=0
42192 On ch=2 n=e3 v=0
42192 On ch=2 n=b3 v=0
42192 On ch=2 n=e4 v=0
42192 On ch=2 n=g4 v=0
42192 On ch=2 n=b4 v=0
42238 On ch=1 n=c5 v=0
42240 Par ch=2 c=64 v=0
42240 Par ch=2 c=64 v=127
42240 On ch=2 n=a3 v=127
42240 On ch=2 n=e4 v=127
42240 On ch=2 n=f#4 v=127
42240 On ch=2 n=a4 v=127
42304 On ch=1 n=e5 v=124
42304 On ch=1 n=f#5 v=124
42304 On ch=1 n=a5 v=124
42366 On ch=1 n=e5 v=0
42366 On ch=1 n=f#5 v=0
42366 On ch=1 n=a5 v=0
42368 On ch=1 n=c5 v=120
42430 On ch=1 n=c5 v=0
42432 On ch=1 n=d5 v=116
42494 On ch=1 n=d5 v=0
42496 On ch=1 n=e5 v=112
42558 On ch=1 n=e5 v=0
42560 On ch=1 n=c5 v=108
42576 On ch=2 n=a3 v=0
42576 On ch=2 n=e4 v=0
42576 On ch=2 n=f#4 v=0
42576 On ch=2 n=a4 v=0
42622 On ch=1 n=c5 v=0
42624 On ch=2 n=b3 v=104
42624 On ch=2 n=e4 v=104
42624 On ch=2 n=g4 v=104
42624 On ch=2 n=b4 v=104
42688 On ch=1 n=e5 v=100
42688 On ch=1 n=g5 v=100
42688 On ch=1 n=b5 v=100
42750 On ch=1 n=e5 v=0
42750 On ch=1 n=g5 v=0
42750 On ch=1 n=b5 v=0
42752 On ch=1 n=b4 v=96
42784 On ch=2 n=b3 v=0
42784 On ch=2 n=e4 v=0
42784 On ch=2 n=g4 v=0
42784 On ch=2 n=b4 v=0
42814 On ch=1 n=b4 v=0
42816 On ch=2 n=c4 v=92
42816 On ch=2 n=e4 v=92
42816 On ch=2 n=a4 v=92
42816 On ch=2 n=c5 v=92
42880 On ch=1 n=e5 v=92
42880 On ch=1 n=a5 v=92
42880 On ch=1 n=c6 v=92
42942 On ch=1 n=e5 v=0
42942 On ch=1 n=a5 v=0
42942 On ch=1 n=c6 v=0
42944 On ch=1 n=c5 v=92
42976 On ch=2 n=c4 v=0
42976 On ch=2 n=e4 v=0
42976 On ch=2 n=a4 v=0
42976 On ch=2 n=c5 v=0
43006 On ch=1 n=c5 v=0
43008 Par ch=2 c=64 v=0
43008 Par ch=2 c=64 v=127
43008 On ch=2 n=e2 v=127
43008 On ch=2 n=e3 v=127
43392 On ch=2 n=a#3 v=127
43392 On ch=2 n=d4 v=127
43392 On ch=2 n=f4 v=127
43392 On ch=2 n=a4 v=127
43456 On ch=1 n=e5 v=127
43456 On ch=1 n=f#5 v=127
43456 On ch=1 n=a5 v=127
43518 On ch=1 n=e5 v=0
43518 On ch=1 n=f#5 v=0
43518 On ch=1 n=a5 v=0
43520 On ch=1 n=c5 v=127
43552 On ch=2 n=a#3 v=0
43552 On ch=2 n=d4 v=0
43552 On ch=2 n=f4 v=0
43552 On ch=2 n=a4 v=0
43582 On ch=1 n=c5 v=0
43584 On ch=2 n=a3 v=127
43584 On ch=2 n=c#4 v=127
43584 On ch=2 n=f4 v=127
43584 On ch=2 n=a4 v=127
43648 On ch=1 n=e5 v=127
43648 On ch=1 n=g5 v=127
43648 On ch=1 n=b5 v=127
43710 On ch=1 n=e5 v=0
43710 On ch=1 n=g5 v=0
43710 On ch=1 n=b5 v=0
43712 On ch=1 n=b4 v=127
43728 On ch=2 n=e2 v=0
43728 On ch=2 n=e3 v=0
43744 On ch=2 n=a3 v=0
43744 On ch=2 n=c#4 v=0
43744 On ch=2 n=f4 v=0
43744 On ch=2 n=a4 v=0
43774 On ch=1 n=b4 v=0
43776 Par ch=2 c=64 v=0
43776 Par ch=2 c=64 v=127
43776 On ch=2 n=e2 v=127
43776 On ch=2 n=e3 v=127
44160 On ch=2 n=a#3 v=92
44160 On ch=2 n=d4 v=92
44160 On ch=2 n=e4 v=92
44160 On ch=2 n=g4 v=92
44224 On ch=1 n=d5 v=92
44224 On ch=1 n=e5 v=92
44224 On ch=1 n=g5 v=92
44286 On ch=1 n=d5 v=0
44286 On ch=1 n=e5 v=0
44286 On ch=1 n=g5 v=0
44288 On ch=1 n=a#4 v=92
44320 On ch=2 n=a#3 v=0
44320 On ch=2 n=d4 v=0
44320 On ch=2 n=e4 v=0
44320 On ch=2 n=g4 v=0
44350 On ch=1 n=a#4 v=0
44352 On ch=2 n=a3 v=92
44352 On ch=2 n=c#4 v=92
44352 On ch=2 n=e4 v=92
44352 On ch=2 n=a4 v=92
44416 On ch=1 n=c#5 v=92
44416 On ch=1 n=e5 v=92
44416 On ch=1 n=a5 v=92
44478 On ch=1 n=c#5 v=0
44478 On ch=1 n=e5 v=0
44478 On ch=1 n=a5 v=0
44480 On ch=1 n=a4 v=92
44496 On ch=2 n=e2 v=0
44496 On ch=2 n=e3 v=0
44512 On ch=2 n=a3 v=0
44512 On ch=2 n=c#4 v=0
44512 On ch=2 n=e4 v=0
44512 On ch=2 n=a4 v=0
44542 On ch=1 n=a4 v=0
44544 Par ch=2 c=64 v=0
44544 Par ch=2 c=64 v=127
44544 On ch=2 n=d3 v=127
44544 On ch=2 n=a3 v=127
44606 On ch=2 n=d3 v=0
44606 On ch=2 n=a3 v=0
44608 On ch=2 n=d4 v=108
44640 On ch=1 n=f4 v=108
44670 On ch=2 n=d4 v=0
44672 On ch=2 n=a3 v=108
44734 On ch=1 n=f4 v=0
44734 On ch=2 n=a3 v=0
44736 On ch=1 n=a4 v=127
44736 On ch=1 n=c5 v=127
44736 On ch=1 n=f5 v=127
44736 On ch=2 n=d3 v=108
44830 On ch=1 n=a4 v=0
44830 On ch=1 n=c5 v=0
44830 On ch=1 n=f5 v=0
44832 On ch=1 n=f4 v=108
44896 On ch=2 n=d3 v=0
44926 On ch=1 n=f4 v=0
44928 On ch=2 n=a2 v=108
44928 On ch=2 n=d3 v=108
44990 On ch=2 n=a2 v=0
44990 On ch=2 n=d3 v=0
44992 On ch=2 n=a3 v=108
45024 On ch=1 n=f4 v=108
45054 On ch=2 n=a3 v=0
45056 On ch=2 n=d3 v=108
45118 On ch=1 n=f4 v=0
45118 On ch=2 n=d3 v=0
45120 On ch=1 n=a4 v=127
45120 On ch=1 n=d5 v=127
45120 On ch=1 n=f5 v=127
45120 On ch=2 n=a2 v=108
45214 On ch=1 n=a4 v=0
45214 On ch=1 n=d5 v=0
45214 On ch=1 n=f5 v=0
45216 On ch=1 n=f4 v=108
45280 On ch=2 n=a2 v=0
45310 On ch=1 n=f4 v=0
45312 Par ch=2 c=64 v=0
45312 Par ch=2 c=64 v=127
45312 On ch=2 n=a3 v=108
45312 On ch=2 n=d4 v=108
45374 On ch=2 n=a3 v=0
45374 On ch=2 n=d4 v=0
45376 On ch=2 n=a4 v=108
45438 On ch=2 n=a4 v=0
45440 On ch=2 n=d4 v=108
45502 On ch=2 n=d4 v=0
45504 On ch=1 n=d5 v=127
45504 On ch=1 n=e5 v=127
45504 On ch=1 n=a5 v=127
45504 On ch=2 n=a3 v=108
45598 On ch=1 n=d5 v=0
45598 On ch=1 n=e5 v=0
45598 On ch=1 n=a5 v=0
45600 On ch=1 n=a4 v=108
45664 On ch=2 n=a3 v=0
45694 On ch=1 n=a4 v=0
45696 On ch=2 n=d3 v=108
45696 On ch=2 n=a3 v=108
45758 On ch=2 n=d3 v=0
45758 On ch=2 n=a3 v=0
45760 On ch=2 n=d4 v=108
45792 On ch=1 n=a4 v=108
45822 On ch=2 n=d4 v=0
45824 On ch=2 n=a3 v=108
45886 On ch=1 n=a4 v=0
45886 On ch=2 n=a3 v=0
45888 On ch=1 n=d5 v=127
45888 On ch=1 n=f5 v=127
45888 On ch=1 n=a5 v=127
45888 On ch=2 n=d3 v=108
45982 On ch=1 n=d5 v=0
45982 On ch=1 n=f5 v=0
45982 On ch=1 n=a5 v=0
45984 On ch=1 n=a4 v=108
46048 On ch=2 n=d3 v=0
46078 On ch=1 n=a4 v=0
46080 Par ch=2 c=64 v=0
46080 Par ch=2 c=64 v=127
46080 On ch=2 n=c4 v=108
46080 On ch=2 n=g4 v=108
46142 On ch=2 n=c4 v=0
46142 On ch=2 n=g4 v=0
46144 On ch=2 n=c5 v=108
46176 On ch=1 n=d#5 v=108
46206 On ch=2 n=c5 v=0
46208 On ch=2 n=g4 v=108
46270 On ch=1 n=d#5 v=0
46270 On ch=2 n=g4 v=0
46272 On ch=1 n=g5 v=127
46272 On ch=1 n=a#5 v=127
46272 On ch=1 n=f6 v=127
46272 On ch=2 n=c4 v=108
46366 On ch=1 n=g5 v=0
46366 On ch=1 n=a#5 v=0
46366 On ch=1 n=f6 v=0
46368 On ch=1 n=d#5 v=108
46432 On ch=2 n=c4 v=0
46462 On ch=1 n=d#5 v=0
46464 On ch=2 n=f3 v=108
46464 On ch=2 n=c4 v=108
46526 On ch=2 n=f3 v=0
46526 On ch=2 n=c4 v=0
46528 On ch=2 n=a4 v=108
46560 On ch=1 n=d#5 v=108
46590 On ch=2 n=a4 v=0
46592 On ch=2 n=c4 v=108
46654 On ch=1 n=d#5 v=0
46654 On ch=2 n=c4 v=0
46656 On ch=1 n=a5 v=127
46656 On ch=1 n=c6 v=127
46656 On ch=1 n=f6 v=127
46656 On ch=2 n=f3 v=108
46750 On ch=1 n=a5 v=0
46750 On ch=1 n=c6 v=0
46750 On ch=1 n=f6 v=0
46752 On ch=1 n=d#5 v=108
46816 On ch=2 n=f3 v=0
46846 On ch=1 n=d#5 v=0
46848 Par ch=2 c=64 v=0
46848 Par ch=2 c=64 v=127
46848 On ch=2 n=a#3 v=108
46848 On ch=2 n=f4 v=108
46910 On ch=2 n=a#3 v=0
46910 On ch=2 n=f4 v=0
46912 On ch=2 n=a#4 v=108
46944 On ch=1 n=d5 v=108
46974 On ch=2 n=a#4 v=0
46976 On ch=2 n=f4 v=108
47038 On ch=1 n=d5 v=0
47038 On ch=2 n=f4 v=0
47040 On ch=1 n=f5 v=127
47040 On ch=1 n=a5 v=127
47040 On ch=1 n=d6 v=127
47040 On ch=2 n=a#3 v=108
47134 On ch=1 n=f5 v=0
47134 On ch=1 n=a5 v=0
47134 On ch=1 n=d6 v=0
47136 On ch=1 n=d5 v=108
47200 On ch=2 n=a#3 v=0
47230 On ch=1 n=d5 v=0
47232 On ch=2 n=f3 v=108
47232 On ch=2 n=a#3 v=108
47294 On ch=2 n=f3 v=0
47294 On ch=2 n=a#3 v=0
47296 On ch=2 n=f4 v=108
47328 On ch=1 n=d5 v=108
47358 On ch=2 n=f4 v=0
47360 On ch=2 n=a#3 v=108
47422 On ch=1 n=d5 v=0
47422 On ch=2 n=a#3 v=0
47424 On ch=1 n=f5 v=127
47424 On ch=1 n=a#5 v=127
47424 On ch=1 n=d6 v=127
47424 On ch=2 n=f3 v=108
47518 On ch=1 n=f5 v=0
47518 On ch=1 n=a#5 v=0
47518 On ch=1 n=d6 v=0
47520 On ch=1 n=d5 v=108
47584 On ch=2 n=f3 v=0
47614 On ch=1 n=d5 v=0
47616 Par ch=2 c=64 v=0
47616 Par ch=2 c=64 v=127
47616 On ch=2 n=f4 v=108
47616 On ch=2 n=d5 v=108
47678 On ch=2 n=f4 v=0
47678 On ch=2 n=d5 v=0
47680 On ch=2 n=f5 v=108
47742 On ch=2 n=f5 v=0
47744 On ch=2 n=d5 v=108
47806 On ch=2 n=d5 v=0
47808 On ch=1 n=a#5 v=127
47808 On ch=1 n=c6 v=127
47808 On ch=1 n=f6 v=127
47808 On ch=2 n=f4 v=108
47902 On ch=1 n=a#5 v=0
47902 On ch=1 n=c6 v=0
47902 On ch=1 n=f6 v=0
47904 On ch=1 n=f5 v=108
47968 On ch=2 n=f4 v=0
47998 On ch=1 n=f5 v=0
48000 On ch=2 n=a#3 v=108
48000 On ch=2 n=f4 v=108
48062 On ch=2 n=a#3 v=0
48062 On ch=2 n=f4 v=0
48064 On ch=2 n=a#4 v=108
48096 On ch=1 n=f5 v=108
48126 On ch=2 n=a#4 v=0
48128 On ch=2 n=f4 v=108
48190 On ch=1 n=f5 v=0
48190 On ch=2 n=f4 v=0
48192 On ch=1 n=a#5 v=127
48192 On ch=1 n=d6 v=127
48192 On ch=1 n=f6 v=127
48192 On ch=2 n=a#3 v=108
48286 On ch=1 n=a#5 v=0
48286 On ch=1 n=d6 v=0
48286 On ch=1 n=f6 v=0
48288 On ch=1 n=f5 v=108
48352 On ch=2 n=a#3 v=0
48382 On ch=1 n=f5 v=0
48384 Par ch=2 c=64 v=0
48384 Par ch=2 c=64 v=127
48384 On ch=2 n=c5 v=108
48384 On ch=2 n=f5 v=108
48446 On ch=2 n=c5 v=0
48446 On ch=2 n=f5 v=0
48448 On ch=2 n=c6 v=108
48480 On ch=1 n=g#5 v=108
48510 On ch=2 n=c6 v=0
48512 On ch=2 n=f5 v=108
48574 On ch=1 n=g#5 v=0
48574 On ch=2 n=f5 v=0
48576 On ch=1 n=c6 v=127
48576 On ch=1 n=d#6 v=127
48576 On ch=1 n=a#6 v=127
48576 On ch=2 n=c5 v=108
48670 On ch=1 n=c6 v=0
48670 On ch=1 n=d#6 v=0
48670 On ch=1 n=a#6 v=0
48672 On ch=1 n=g#5 v=108
48736 On ch=2 n=c5 v=0
48766 On ch=1 n=g#5 v=0
48768 On ch=2 n=f4 v=108
48768 On ch=2 n=d5 v=108
48830 On ch=2 n=f4 v=0
48830 On ch=2 n=d5 v=0
48832 On ch=2 n=f5 v=108
48864 On ch=1 n=g#5 v=108
48894 On ch=2 n=f5 v=0
48896 On ch=2 n=d5 v=108
48958 On ch=1 n=g#5 v=0
48958 On ch=2 n=d5 v=0
48960 On ch=1 n=d6 v=127
48960 On ch=1 n=f6 v=127
48960 On ch=1 n=a#6 v=127
48960 On ch=2 n=f4 v=108
49054 On ch=1 n=d6 v=0
49054 On ch=1 n=f6 v=0
49054 On ch=1 n=a#6 v=0
49056 On ch=1 n=g#5 v=108
49120 On ch=2 n=f4 v=0
49150 On ch=1 n=g#5 v=0
49152 Par ch=2 c=64 v=0
49152 Par ch=2 c=64 v=127
49152 On ch=2 n=d#3 v=108
49152 On ch=2 n=a#3 v=108
49214 On ch=2 n=d#3 v=0
49214 On ch=2 n=a#3 v=0
49216 On ch=2 n=d#4 v=108
49248 On ch=1 n=g4 v=108
49278 On ch=2 n=d#4 v=0
49280 On ch=2 n=a#3 v=108
49342 On ch=1 n=g4 v=0
49342 On ch=2 n=a#3 v=0
49344 On ch=1 n=a#4 v=127
49344 On ch=1 n=d5 v=127
49344 On ch=1 n=g5 v=127
49344 On ch=2 n=d#3 v=108
49438 On ch=1 n=a#4 v=0
49438 On ch=1 n=d5 v=0
49438 On ch=1 n=g5 v=0
49440 On ch=1 n=g4 v=108
49504 On ch=2 n=d#3 v=0
49534 On ch=1 n=g4 v=0
49536 On ch=2 n=a#2 v=108
49536 On ch=2 n=d#3 v=108
49598 On ch=2 n=a#2 v=0
49598 On ch=2 n=d#3 v=0
49600 On ch=2 n=a#3 v=108
49632 On ch=1 n=g4 v=108
49662 On ch=2 n=a#3 v=0
49664 On ch=2 n=d#3 v=108
49726 On ch=1 n=g4 v=0
49726 On ch=2 n=d#3 v=0
49728 On ch=1 n=a#4 v=127
49728 On ch=1 n=d#5 v=127
49728 On ch=1 n=a#5 v=127
49728 On ch=2 n=a#2 v=108
49822 On ch=1 n=a#4 v=0
49822 On ch=1 n=d#5 v=0
49822 On ch=1 n=a#5 v=0
49824 On ch=1 n=g4 v=108
49888 On ch=2 n=a#2 v=0
49918 On ch=1 n=g4 v=0
49920 Par ch=2 c=64 v=0
49920 Par ch=2 c=64 v=127
49920 On ch=2 n=a#3 v=108
49920 On ch=2 n=g4 v=108
49982 On ch=2 n=a#3 v=0
49982 On ch=2 n=g4 v=0
49984 On ch=2 n=a#4 v=108
50046 On ch=2 n=a#4 v=0
50048 On ch=2 n=g4 v=108
50110 On ch=2 n=g4 v=0
50112 On ch=1 n=d#5 v=127
50112 On ch=1 n=f5 v=127
50112 On ch=1 n=a#5 v=127
50112 On ch=2 n=a#3 v=108
50206 On ch=1 n=d#5 v=0
50206 On ch=1 n=f5 v=0
50206 On ch=1 n=a#5 v=0
50208 On ch=1 n=a#4 v=108
50272 On ch=2 n=a#3 v=0
50302 On ch=1 n=a#4 v=0
50304 On ch=2 n=d#3 v=108
50304 On ch=2 n=a#3 v=108
50366 On ch=2 n=d#3 v=0
50366 On ch=2 n=a#3 v=0
50368 On ch=2 n=d#4 v=108
50400 On ch=1 n=d#5 v=108
50430 On ch=2 n=d#4 v=0
50432 On ch=2 n=a#3 v=108
50494 On ch=1 n=d#5 v=0
50494 On ch=2 n=a#3 v=0
50496 On ch=1 n=g5 v=127
50496 On ch=1 n=d#6 v=127
50496 On ch=2 n=d#3 v=108
50590 On ch=1 n=g5 v=0
50590 On ch=1 n=d#6 v=0
50592 On ch=1 n=a#4 v=108
50656 On ch=2 n=d#3 v=0
50686 On ch=1 n=a#4 v=0
50688 Par ch=2 c=64 v=0
50688 Par ch=2 c=64 v=127
50688 On ch=2 n=g4 v=108
50688 On ch=2 n=d#5 v=108
50750 On ch=2 n=g4 v=0
50750 On ch=2 n=d#5 v=0
50752 On ch=2 n=g5 v=108
50814 On ch=2 n=g5 v=0
50816 On ch=2 n=d#5 v=108
50878 On ch=2 n=d#5 v=0
50880 On ch=1 n=a#5 v=127
50880 On ch=1 n=d6 v=127
50880 On ch=1 n=g6 v=127
50880 On ch=2 n=g4 v=108
50974 On ch=1 n=a#5 v=0
50974 On ch=1 n=d6 v=0
50974 On ch=1 n=g6 v=0
50976 On ch=1 n=g5 v=108
51040 On ch=2 n=g4 v=0
51070 On ch=1 n=g5 v=0
51072 On ch=2 n=a#3 v=108
51072 On ch=2 n=g4 v=108
51134 On ch=2 n=a#3 v=0
51134 On ch=2 n=g4 v=0
51136 On ch=2 n=a#4 v=108
51168 On ch=1 n=g5 v=108
51198 On ch=2 n=a#4 v=0
51200 On ch=2 n=g4 v=108
51262 On ch=1 n=g5 v=0
51262 On ch=2 n=g4 v=0
51264 On ch=1 n=a#5 v=127
51264 On ch=1 n=d#6 v=127
51264 On ch=1 n=a#6 v=127
51264 On ch=2 n=a#3 v=108
51358 On ch=1 n=a#5 v=0
51358 On ch=1 n=d#6 v=0
51358 On ch=1 n=a#6 v=0
51360 On ch=1 n=g5 v=108
51424 On ch=2 n=a#3 v=0
51454 On ch=1 n=g5 v=0
51456 Par ch=2 c=64 v=0
51456 Par ch=2 c=64 v=127
51456 On ch=2 n=a#4 v=108
51456 On ch=2 n=g5 v=108
51518 On ch=2 n=a#4 v=0
51518 On ch=2 n=g5 v=0
51520 On ch=2 n=a#5 v=108
51582 On ch=2 n=a#5 v=0
51584 On ch=2 n=g5 v=108
51646 On ch=2 n=g5 v=0
51648 On ch=1 n=d#6 v=127
51648 On ch=1 n=f6 v=127
51648 On ch=1 n=a#6 v=127
51648 On ch=2 n=a#4 v=108
51742 On ch=1 n=d#6 v=0
51742 On ch=1 n=f6 v=0
51742 On ch=1 n=a#6 v=0
51744 On ch=1 n=a#5 v=108
51808 On ch=2 n=a#4 v=0
51838 On ch=1 n=a#5 v=0
51840 On ch=2 n=g4 v=108
51840 On ch=2 n=d#5 v=108
51902 On ch=2 n=g4 v=0
51902 On ch=2 n=d#5 v=0
51904 On ch=2 n=g5 v=108
51936 On ch=1 n=d#6 v=108
51966 On ch=2 n=g5 v=0
51968 On ch=2 n=d#5 v=108
52030 On ch=1 n=d#6 v=0
52030 On ch=2 n=d#5 v=0
52032 On ch=1 n=g6 v=127
52032 On ch=1 n=d#7 v=127
52032 On ch=2 n=g4 v=108
52126 On ch=1 n=g6 v=0
52126 On ch=1 n=d#7 v=0
52128 On ch=1 n=d#6 v=108
52192 On ch=2 n=g4 v=0
52222 On ch=1 n=d#6 v=0
52224 Par ch=2 c=64 v=0
52224 Par ch=2 c=64 v=127
52224 On ch=1 n=a#7 v=108
52224 On ch=2 n=d#5 v=108
52224 On ch=2 n=a#5 v=108
52286 On ch=1 n=a#7 v=0
52288 On ch=1 n=d#7 v=108
52350 On ch=1 n=d#7 v=0
52352 On ch=1 n=a#7 v=108
52414 On ch=1 n=a#7 v=0
52416 On ch=1 n=a#6 v=108
52542 On ch=1 n=a#6 v=0
52542 On ch=2 n=d#5 v=0
52542 On ch=2 n=a#5 v=0
52544 On ch=1 n=d#6 v=108
52544 On ch=2 n=f5 v=108
52544 On ch=2 n=g#5 v=108
52606 On ch=1 n=d#6 v=0
52606 On ch=2 n=f5 v=0
52606 On ch=2 n=g#5 v=0
52608 On ch=1 n=a#6 v=108
52608 On ch=2 n=d#5 v=127
52608 On ch=2 n=a#5 v=127
52670 On ch=1 n=a#6 v=0
52672 On ch=1 n=a#5 v=108
52734 On ch=1 n=a#5 v=0
52736 On ch=1 n=a#6 v=108
52798 On ch=1 n=a#6 v=0
52800 On ch=1 n=d#6 v=108
52862 On ch=1 n=d#6 v=0
52864 On ch=1 n=a#6 v=108
52926 On ch=1 n=a#6 v=0
52928 On ch=1 n=a#6 v=108
52990 On ch=1 n=a#6 v=0
52992 Par ch=2 c=64 v=0
52992 Par ch=2 c=64 v=127
52992 On ch=1 n=a#7 v=108
53054 On ch=1 n=a#7 v=0
53056 On ch=1 n=d#7 v=108
53118 On ch=1 n=d#7 v=0
53120 On ch=1 n=a#7 v=108
53182 On ch=1 n=a#7 v=0
53184 On ch=1 n=a#6 v=108
53310 On ch=1 n=a#6 v=0
53310 On ch=2 n=e5 v=0
53310 On ch=2 n=a#5 v=0
53312 On ch=1 n=d#6 v=108
53312 On ch=2 n=f5 v=108
53312 On ch=2 n=g#5 v=108
53374 On ch=1 n=d#6 v=0
53374 On ch=2 n=f5 v=0
53374 On ch=2 n=g#5 v=0
53376 On ch=1 n=a#6 v=108
53376 On ch=2 n=e5 v=127
53376 On ch=2 n=a#5 v=127
53438 On ch=1 n=a#6 v=0
53440 On ch=1 n=a#5 v=108
53502 On ch=1 n=a#5 v=0
53504 On ch=1 n=a#6 v=108
53566 On ch=1 n=a#6 v=0
53568 On ch=1 n=d#6 v=108
53630 On ch=1 n=d#6 v=0
53632 On ch=1 n=a#6 v=108
53694 On ch=1 n=a#6 v=0
53696 On ch=1 n=a#6 v=108
53758 On ch=1 n=a#6 v=0
53760 Par ch=2 c=64 v=0
53760 Par ch=2 c=64 v=127
53760 On ch=1 n=a#7 v=108
53822 On ch=1 n=a#7 v=0
53824 On ch=1 n=d#7 v=108
53886 On ch=1 n=d#7 v=0
53888 On ch=1 n=a#7 v=108
53950 On ch=1 n=a#7 v=0
53952 On ch=1 n=a#6 v=108
54014 On ch=1 n=a#6 v=0
54016 On ch=1 n=a#6 v=108
54078 On ch=1 n=a#6 v=0
54078 On ch=2 n=e5 v=0
54078 On ch=2 n=a#5 v=0
54080 On ch=1 n=d#6 v=108
54080 On ch=2 n=f5 v=108
54080 On ch=2 n=g#5 v=108
54142 On ch=1 n=d#6 v=0
54142 On ch=2 n=f5 v=0
54142 On ch=2 n=g#5 v=0
54144 On ch=1 n=a#6 v=108
54144 On ch=2 n=e5 v=127
54144 On ch=2 n=a#5 v=127
54206 On ch=1 n=a#6 v=0
54208 On ch=1 n=a#5 v=108
54270 On ch=1 n=a#5 v=0
54272 On ch=1 n=a#6 v=108
54334 On ch=1 n=a#6 v=0
54336 On ch=1 n=d#6 v=108
54398 On ch=1 n=d#6 v=0
54400 On ch=1 n=a#6 v=108
54462 On ch=1 n=a#6 v=0
54462 On ch=2 n=e5 v=0
54462 On ch=2 n=a#5 v=0
54464 On ch=1 n=a#6 v=108
54464 On ch=2 n=f4 v=108
54464 On ch=2 n=g#4 v=108
54526 On ch=1 n=a#6 v=0
54526 On ch=2 n=f4 v=0
54526 On ch=2 n=g#4 v=0
54528 Par ch=2 c=64 v=0
54528 Par ch=2 c=64 v=127
54528 On ch=1 n=a#7 v=108
54528 On ch=2 n=d#4 v=108
54528 On ch=2 n=a#4 v=108
54590 On ch=1 n=a#7 v=0
54592 On ch=1 n=d#7 v=108
54654 On ch=1 n=d#7 v=0
54656 On ch=1 n=a#7 v=108
54718 On ch=1 n=a#7 v=0
54720 On ch=1 n=a#6 v=108
54782 On ch=1 n=a#6 v=0
54784 On ch=1 n=a#7 v=108
54846 On ch=1 n=a#7 v=0
54846 On ch=2 n=d#4 v=0
54846 On ch=2 n=a#4 v=0
54848 On ch=1 n=d#7 v=108
54848 On ch=2 n=f3 v=108
54848 On ch=2 n=g#3 v=108
54910 On ch=1 n=d#7 v=0
54910 On ch=2 n=f3 v=0
54910 On ch=2 n=g#3 v=0
54912 On ch=1 n=a#7 v=108
54912 On ch=2 n=d#3 v=108
54912 On ch=2 n=a#3 v=108
54974 On ch=1 n=a#7 v=0
54976 On ch=1 n=a#6 v=108
55038 On ch=1 n=a#6 v=0
55040 On ch=1 n=a#7 v=108
55102 On ch=1 n=a#7 v=0
55104 On ch=1 n=d#7 v=108
55166 On ch=1 n=d#7 v=0
55168 On ch=1 n=a#7 v=108
55230 On ch=1 n=a#7 v=0
55230 On ch=2 n=d#3 v=0
55230 On ch=2 n=a#3 v=0
55232 On ch=1 n=a#6 v=108
55232 On ch=2 n=d#3 v=108
55232 On ch=2 n=g3 v=108
55294 On ch=1 n=a#6 v=0
55294 On ch=2 n=d#3 v=0
55294 On ch=2 n=g3 v=0
55296 Par ch=2 c=64 v=0
55296 Par ch=2 c=64 v=127
55296 On ch=2 n=a2 v=127
55296 On ch=2 n=a3 v=127
55488 On ch=2 n=e4 v=112
55488 On ch=2 n=a4 v=112
55488 On ch=2 n=b4 v=112
55488 On ch=2 n=d5 v=112
55552 On ch=1 n=a6 v=113
55552 On ch=1 n=b6 v=113
55552 On ch=1 n=d7 v=113
55614 On ch=1 n=a6 v=0
55614 On ch=1 n=b6 v=0
55614 On ch=1 n=d7 v=0
55616 On ch=1 n=d6 v=114
55648 On ch=2 n=e4 v=0
55648 On ch=2 n=a4 v=0
55648 On ch=2 n=b4 v=0
55648 On ch=2 n=d5 v=0
55678 On ch=1 n=d6 v=0
55680 On ch=2 n=e4 v=117
55680 On ch=2 n=a4 v=117
55680 On ch=2 n=c#5 v=117
55680 On ch=2 n=e5 v=117
55744 On ch=1 n=a6 v=117
55744 On ch=1 n=c#7 v=117
55744 On ch=1 n=e7 v=117
55806 On ch=1 n=a6 v=0
55806 On ch=1 n=c#7 v=0
55806 On ch=1 n=e7 v=0
55808 On ch=1 n=e6 v=119
55840 On ch=2 n=e4 v=0
55840 On ch=2 n=a4 v=0
55840 On ch=2 n=c#5 v=0
55840 On ch=2 n=e5 v=0
55870 On ch=1 n=e6 v=0
55872 On ch=2 n=a4 v=122
55872 On ch=2 n=c#5 v=122
55872 On ch=2 n=e5 v=122
55872 On ch=2 n=g5 v=122
55936 On ch=1 n=c#7 v=123
55936 On ch=1 n=e7 v=123
55936 On ch=1 n=g7 v=123
55998 On ch=1 n=c#7 v=0
55998 On ch=1 n=e7 v=0
55998 On ch=1 n=g7 v=0
56000 On ch=1 n=g6 v=125
56016 On ch=2 n=a2 v=0
56016 On ch=2 n=a3 v=0
56032 On ch=2 n=a4 v=0
56032 On ch=2 n=c#5 v=0
56032 On ch=2 n=e5 v=0
56032 On ch=2 n=g5 v=0
56062 On ch=1 n=g6 v=0
56064 Par ch=2 c=64 v=0
56064 Par ch=2 c=64 v=127
56064 On ch=2 n=a4 v=127
56064 On ch=2 n=c#5 v=127
56064 On ch=2 n=f5 v=127
56064 On ch=2 n=a5 v=127
56128 On ch=1 n=c#7 v=127
56128 On ch=1 n=f7 v=127
56128 On ch=1 n=a7 v=127
56190 On ch=1 n=c#7 v=0
56190 On ch=1 n=f7 v=0
56190 On ch=1 n=a7 v=0
56192 On ch=1 n=a6 v=127
56224 On ch=2 n=a4 v=0
56224 On ch=2 n=c#5 v=0
56224 On ch=2 n=f5 v=0
56224 On ch=2 n=a5 v=0
56254 On ch=1 n=a6 v=0
56256 On ch=2 n=e4 v=127
56256 On ch=2 n=a4 v=127
56256 On ch=2 n=b4 v=127
56256 On ch=2 n=d5 v=127
56320 On ch=1 n=a6 v=127
56320 On ch=1 n=b6 v=127
56320 On ch=1 n=d7 v=127
56382 On ch=1 n=a6 v=0
56382 On ch=1 n=b6 v=0
56382 On ch=1 n=d7 v=0
56384 On ch=1 n=d6 v=127
56416 On ch=2 n=e4 v=0
56416 On ch=2 n=a4 v=0
56416 On ch=2 n=b4 v=0
56416 On ch=2 n=d5 v=0
56446 On ch=1 n=d6 v=0
56448 On ch=2 n=e4 v=127
56448 On ch=2 n=a4 v=127
56448 On ch=2 n=c#5 v=127
56448 On ch=2 n=e5 v=127
56512 On ch=1 n=a6 v=127
56512 On ch=1 n=c#7 v=127
56512 On ch=1 n=e7 v=127
56574 On ch=1 n=a6 v=0
56574 On ch=1 n=c#7 v=0
56574 On ch=1 n=e7 v=0
56576 On ch=1 n=e6 v=127
56608 On ch=2 n=e4 v=0
56608 On ch=2 n=a4 v=0
56608 On ch=2 n=c#5 v=0
56608 On ch=2 n=e5 v=0
56638 On ch=1 n=e6 v=0
56640 On ch=2 n=e4 v=127
56640 On ch=2 n=g4 v=127
56640 On ch=2 n=c#5 v=127
56704 On ch=1 n=c#6 v=127
56704 On ch=1 n=e6 v=127
56704 On ch=1 n=g6 v=127
56766 On ch=1 n=c#6 v=0
56766 On ch=1 n=e6 v=0
56766 On ch=1 n=g6 v=0
56768 On ch=1 n=g5 v=127
56800 On ch=2 n=e4 v=0
56800 On ch=2 n=g4 v=0
56800 On ch=2 n=c#5 v=0
56830 On ch=1 n=g5 v=0
56832 Par ch=2 c=64 v=0
56832 Par ch=2 c=64 v=127
56832 On ch=2 n=f4 v=127
56832 On ch=2 n=a4 v=127
56832 On ch=2 n=c#5 v=127
56896 On ch=1 n=c#6 v=127
56896 On ch=1 n=f6 v=127
56896 On ch=1 n=a6 v=127
56958 On ch=1 n=c#6 v=0
56958 On ch=1 n=f6 v=0
56958 On ch=1 n=a6 v=0
56960 On ch=1 n=a5 v=127
56992 On ch=2 n=f4 v=0
56992 On ch=2 n=a4 v=0
56992 On ch=2 n=c#5 v=0
57022 On ch=1 n=a5 v=0
57024 On ch=2 n=d4 v=125
57024 On ch=2 n=a4 v=125
57024 On ch=2 n=b3 v=125
57088 On ch=1 n=d6 v=127
57088 On ch=1 n=b5 v=127
57088 On ch=1 n=a5 v=127
57150 On ch=1 n=d6 v=0
57150 On ch=1 n=b5 v=0
57150 On ch=1 n=a5 v=0
57152 On ch=1 n=d5 v=127
57184 On ch=2 n=b3 v=0
57184 On ch=2 n=d4 v=0
57184 On ch=2 n=a4 v=0
57214 On ch=1 n=d5 v=0
57216 On ch=2 n=c#4 v=123
57216 On ch=2 n=e4 v=123
57216 On ch=2 n=a4 v=123
57280 On ch=1 n=a5 v=125
57280 On ch=1 n=c#6 v=125
57280 On ch=1 n=e6 v=125
57342 On ch=1 n=a5 v=0
57342 On ch=1 n=c#6 v=0
57342 On ch=1 n=e6 v=0
57344 On ch=1 n=e5 v=124
57376 On ch=2 n=c#4 v=0
57376 On ch=2 n=e4 v=0
57376 On ch=2 n=a4 v=0
57406 On ch=1 n=e5 v=0
57408 On ch=2 n=a3 v=121
57408 On ch=2 n=c#4 v=121
57408 On ch=2 n=e4 v=121
57472 On ch=1 n=c#5 v=122
57472 On ch=1 n=e5 v=122
57472 On ch=1 n=g5 v=122
57534 On ch=1 n=c#5 v=0
57534 On ch=1 n=e5 v=0
57534 On ch=1 n=g5 v=0
57536 On ch=1 n=g4 v=121
57568 On ch=2 n=a3 v=0
57568 On ch=2 n=c#4 v=0
57568 On ch=2 n=e4 v=0
57598 On ch=1 n=g4 v=0
57600 Par ch=2 c=64 v=0
57600 Par ch=2 c=64 v=127
57600 On ch=2 n=c#4 v=119
57600 On ch=2 n=f4 v=119
57664 On ch=1 n=c#5 v=119
57664 On ch=1 n=f5 v=119
57664 On ch=1 n=a5 v=119
57726 On ch=1 n=c#5 v=0
57726 On ch=1 n=f5 v=0
57726 On ch=1 n=a5 v=0
57728 On ch=1 n=a4 v=118
57760 On ch=2 n=c#4 v=0
57760 On ch=2 n=f4 v=0
57790 On ch=1 n=a4 v=0
57792 On ch=2 n=f3 v=117
57792 On ch=2 n=a3 v=117
57856 On ch=1 n=a4 v=116
57856 On ch=1 n=b4 v=116
57856 On ch=1 n=d5 v=116
57918 On ch=1 n=a4 v=0
57918 On ch=1 n=b4 v=0
57918 On ch=1 n=d5 v=0
57920 On ch=1 n=d4 v=115
57952 On ch=2 n=f3 v=0
57952 On ch=2 n=a3 v=0
57982 On ch=1 n=d4 v=0
57984 On ch=2 n=e3 v=114
57984 On ch=2 n=c#4 v=114
58048 On ch=1 n=a4 v=113
58048 On ch=1 n=c#5 v=113
58048 On ch=1 n=e5 v=113
58110 On ch=1 n=a4 v=0
58110 On ch=1 n=c#5 v=0
58110 On ch=1 n=e5 v=0
58112 On ch=1 n=e4 v=112
58144 On ch=2 n=e3 v=0
58144 On ch=2 n=c#4 v=0
58174 On ch=1 n=e4 v=0
58176 On ch=2 n=e3 v=111
58240 On ch=1 n=e4 v=110
58302 On ch=1 n=e4 v=0
58304 On ch=1 n=a3 v=109
58336 On ch=2 n=e3 v=0
58366 On ch=1 n=a3 v=0
58368 Par ch=2 c=64 v=0
58368 Par ch=2 c=64 v=127
58368 On ch=1 n=a4 v=108
58368 On ch=2 n=a2 v=127
58368 On ch=2 n=a3 v=127
58560 On ch=1 n=e4 v=108
58560 On ch=2 n=e3 v=108
58622 On ch=1 n=e4 v=0
58622 On ch=2 n=e3 v=0
58624 On ch=1 n=a3 v=108
58624 On ch=2 n=a2 v=108
58686 On ch=1 n=a3 v=0
58686 On ch=2 n=a2 v=0
58688 On ch=1 n=e4 v=108
58688 On ch=2 n=e3 v=108
58750 On ch=1 n=e4 v=0
58750 On ch=2 n=e3 v=0
58752 On ch=1 n=a4 v=108
58752 On ch=2 n=a3 v=108
58814 On ch=1 n=a4 v=0
58814 On ch=2 n=a3 v=0
58816 On ch=1 n=e4 v=108
58816 On ch=2 n=e3 v=108
58878 On ch=1 n=e4 v=0
58878 On ch=2 n=e3 v=0
58880 On ch=1 n=a4 v=108
58880 On ch=2 n=a3 v=108
58896 On ch=1 n=a4 v=0
58896 On ch=2 n=a2 v=0
58896 On ch=2 n=a3 v=0
58942 On ch=1 n=a4 v=0
58942 On ch=2 n=a3 v=0
58944 On ch=1 n=e5 v=127
58944 On ch=2 n=e4 v=127
59006 On ch=1 n=e5 v=0
59006 On ch=2 n=e4 v=0
59008 On ch=1 n=a4 v=108
59008 On ch=2 n=a3 v=108
59070 On ch=1 n=a4 v=0
59070 On ch=2 n=a3 v=0
59072 On ch=1 n=e4 v=108
59072 On ch=2 n=e3 v=108
59134 On ch=1 n=e4 v=0
59134 On ch=2 n=e3 v=0
59136 Par ch=2 c=64 v=0
59136 Par ch=2 c=64 v=0
59136 On ch=1 n=a4 v=108
59136 On ch=2 n=a2 v=127
59136 On ch=2 n=a3 v=127
59328 On ch=1 n=e4 v=108
59328 On ch=2 n=e3 v=108
59390 On ch=1 n=e4 v=0
59390 On ch=2 n=e3 v=0
59392 On ch=1 n=a3 v=108
59392 On ch=2 n=a2 v=108
59454 On ch=1 n=a3 v=0
59454 On ch=2 n=a2 v=0
59456 On ch=1 n=e4 v=108
59456 On ch=2 n=e3 v=108
59518 On ch=1 n=e4 v=0
59518 On ch=2 n=e3 v=0
59520 On ch=1 n=a4 v=108
59520 On ch=2 n=a3 v=108
59582 On ch=1 n=a4 v=0
59582 On ch=2 n=a3 v=0
59584 On ch=1 n=e4 v=108
59584 On ch=2 n=e3 v=108
59646 On ch=1 n=e4 v=0
59646 On ch=2 n=e3 v=0
59648 On ch=1 n=a4 v=108
59648 On ch=2 n=a3 v=108
59664 On ch=1 n=a4 v=0
59664 On ch=2 n=a2 v=0
59664 On ch=2 n=a3 v=0
59710 On ch=1 n=a4 v=0
59710 On ch=2 n=a3 v=0
59712 On ch=1 n=e5 v=127
59712 On ch=2 n=e4 v=127
59774 On ch=1 n=e5 v=0
59774 On ch=2 n=e4 v=0
59776 On ch=1 n=a4 v=108
59776 On ch=2 n=a3 v=108
59838 On ch=1 n=a4 v=0
59838 On ch=2 n=a3 v=0
59840 On ch=1 n=e4 v=108
59840 On ch=2 n=e3 v=108
59902 On ch=1 n=e4 v=0
59902 On ch=2 n=e3 v=0
59904 Par ch=2 c=64 v=0
59904 Par ch=2 c=64 v=0
59904 On ch=1 n=a4 v=127
59904 On ch=2 n=a2 v=127
59904 On ch=2 n=a3 v=127
59918 Tempo 231660
59918 Tempo 231660
59932 Tempo 232558
59932 Tempo 232558
59947 Tempo 233463
59947 Tempo 233463
59961 Tempo 234375
59961 Tempo 234375
59975 Tempo 235294
59975 Tempo 235294
59990 Tempo 236220
59990 Tempo 236220
60004 Tempo 237154
60004 Tempo 237154
60019 Tempo 238095
60019 Tempo 238095
60033 Tempo 239043
60033 Tempo 239043
60047 Tempo 240000
60047 Tempo 240000
60062 Tempo 240963
60062 Tempo 240963
60076 Tempo 241935
60076 Tempo 241935
60091 Tempo 242914
60091 Tempo 242914
60105 Tempo 243902
60105 Tempo 243902
60119 Tempo 244897
60119 Tempo 244897
60134 Tempo 245901
60134 Tempo 245901
60148 Tempo 246913
60148 Tempo 246913
60163 Tempo 247933
60163 Tempo 247933
60177 Tempo 248962
60177 Tempo 248962
60191 Tempo 250000
60191 Tempo 250000
60206 Tempo 251046
60206 Tempo 251046
60220 Tempo 252100
60220 Tempo 252100
60235 Tempo 253164
60235 Tempo 253164
60240 On ch=1 n=a4 v=0
60240 On ch=2 n=a2 v=0
60240 On ch=2 n=a3 v=0
60249 Tempo 254237
60249 Tempo 254237
60263 Tempo 255319
60263 Tempo 255319
60278 Tempo 256410
60278 Tempo 256410
60288 On ch=1 n=a4 v=127
60288 On ch=2 n=a2 v=127
60288 On ch=2 n=a3 v=127
60292 Tempo 257510
60292 Tempo 257510
60307 Tempo 258620
60307 Tempo 258620
60321 Tempo 259740
60321 Tempo 259740
60335 Tempo 260869
60335 Tempo 260869
60350 Tempo 262008
60350 Tempo 262008
60364 Tempo 263157
60364 Tempo 263157
60379 Tempo 264317
60379 Tempo 264317
60393 Tempo 265486
60393 Tempo 265486
60407 Tempo 266666
60407 Tempo 266666
60422 Tempo 267857
60422 Tempo 267857
60436 Tempo 269058
60436 Tempo 269058
60451 Tempo 270270
60451 Tempo 270270
60465 Tempo 271493
60465 Tempo 271493
60479 Tempo 272727
60479 Tempo 272727
60494 Tempo 273972
60494 Tempo 273972
60508 Tempo 275229
60508 Tempo 275229
60523 Tempo 276497
60523 Tempo 276497
60537 Tempo 277777
60537 Tempo 277777
60551 Tempo 279069
60551 Tempo 279069
60566 Tempo 280373
60566 Tempo 280373
60580 Tempo 281690
60580 Tempo 281690
60595 Tempo 283018
60595 Tempo 283018
60609 Tempo 284360
60609 Tempo 284360
60623 Tempo 285714
60623 Tempo 285714
60624 On ch=1 n=a4 v=0
60624 On ch=2 n=a2 v=0
60624 On ch=2 n=a3 v=0
60638 Tempo 287081
60638 Tempo 287081
60652 Tempo 288461
60652 Tempo 288461
60667 Tempo 289855
60667 Tempo 289855
60672 Par ch=2 c=64 v=0
60672 Par ch=2 c=64 v=127
60672 On ch=1 n=a4 v=127
60672 On ch=2 n=a2 v=127
60672 On ch=2 n=a3 v=127
60681 Tempo 291262
60681 Tempo 291262
60695 Tempo 292682
60695 Tempo 292682
60710 Tempo 294117
60710 Tempo 294117
60724 Tempo 295566
60724 Tempo 295566
60739 Tempo 297029
60739 Tempo 297029
60753 Tempo 298507
60753 Tempo 298507
60767 Tempo 300000
60767 Tempo 300000
60782 Tempo 301507
60782 Tempo 301507
60796 Tempo 303030
60796 Tempo 303030
60811 Tempo 304568
60811 Tempo 304568
60825 Tempo 306122
60825 Tempo 306122
60839 Tempo 307692
60839 Tempo 307692
60854 Tempo 309278
60854 Tempo 309278
60868 Tempo 310880
60868 Tempo 310880
60883 Tempo 312500
60883 Tempo 312500
60897 Tempo 314136
60897 Tempo 314136
60911 Tempo 315789
60911 Tempo 315789
60926 Tempo 317460
60926 Tempo 317460
60940 Tempo 319148
60940 Tempo 319148
60955 Tempo 320855
60955 Tempo 320855
60969 Tempo 322580
60969 Tempo 322580
60983 Tempo 324324
60983 Tempo 324324
60998 Tempo 326086
60998 Tempo 326086
61008 On ch=1 n=a4 v=0
61008 On ch=2 n=a2 v=0
61008 On ch=2 n=a3 v=0
61012 Tempo 327868
61012 Tempo 327868
61027 Tempo 329670
61027 Tempo 329670
61041 Tempo 331491
61041 Tempo 331491
61056 Tempo 333333
61056 Tempo 333333
61056 On ch=1 n=a4 v=127
61056 On ch=2 n=a2 v=127
61056 On ch=2 n=a3 v=127
61392 On ch=1 n=a4 v=0
61392 On ch=2 n=a2 v=0
61392 On ch=2 n=a3 v=0
61440 Par ch=2 c=64 v=0
61440 Tempo 240000
61440 Tempo 240000
61440 On ch=1 n=a3 v=105
61440 On ch=1 n=a4 v=105
61440 On ch=2 n=a2 v=75
61600 On ch=2 n=a2 v=0
61632 On ch=2 n=g3 v=75
61664 On ch=2 n=g3 v=0
61776 On ch=2 n=g3 v=75
61824 On ch=2 n=g3 v=0
61824 On ch=2 n=a3 v=75
61872 On ch=2 n=a3 v=0
62016 On ch=2 n=f3 v=75
62048 On ch=2 n=f3 v=0
62160 On ch=2 n=f3 v=75
62208 On ch=2 n=f3 v=0
62208 On ch=2 n=g3 v=75
62256 On ch=2 n=g3 v=0
62400 On ch=2 n=e3 v=75
62432 On ch=2 n=e3 v=0
62544 On ch=2 n=e3 v=75
62592 On ch=2 n=e3 v=0
62592 On ch=2 n=f3 v=75
62640 On ch=2 n=f3 v=0
62784 On ch=2 n=d3 v=75
62816 On ch=2 n=d3 v=0
62928 On ch=2 n=d3 v=75
62976 On ch=2 n=d3 v=0
62976 On ch=2 n=e3 v=75
63024 On ch=2 n=e3 v=0
63168 On ch=2 n=c3 v=75
63168 On ch=2 n=e3 v=75
63200 On ch=2 n=c3 v=0
63200 On ch=2 n=e3 v=0
63312 On ch=2 n=c3 v=75
63312 On ch=2 n=e3 v=75
63360 On ch=2 n=c3 v=0
63360 On ch=2 n=e3 v=0
63360 On ch=2 n=d3 v=75
63360 On ch=2 n=f3 v=75
63408 On ch=2 n=d3 v=0
63408 On ch=2 n=f3 v=0
63552 On ch=2 n=a#2 v=75
63552 On ch=2 n=d3 v=75
63584 On ch=2 n=a#2 v=0
63584 On ch=2 n=d3 v=0
63696 On ch=2 n=a#2 v=75
63696 On ch=2 n=d3 v=75
63744 On ch=2 n=a#2 v=0
63744 On ch=2 n=d3 v=0
63744 On ch=2 n=c3 v=75
63744 On ch=2 n=e3 v=75
63792 On ch=2 n=c3 v=0
63792 On ch=2 n=e3 v=0
63936 On ch=2 n=a2 v=75
63936 On ch=2 n=c3 v=75
63968 On ch=2 n=a2 v=0
63968 On ch=2 n=c3 v=0
64080 On ch=2 n=a2 v=75
64080 On ch=2 n=c3 v=75
64128 On ch=2 n=a2 v=0
64128 On ch=2 n=c3 v=0
64128 On ch=2 n=a#2 v=75
64128 On ch=2 n=d3 v=75
64176 On ch=2 n=a#2 v=0
64176 On ch=2 n=d3 v=0
64320 On ch=2 n=a2 v=75
64352 On ch=2 n=a2 v=0
64464 On ch=1 n=a3 v=0
64464 On ch=1 n=a4 v=0
64464 On ch=2 n=a2 v=75
64512 On ch=2 n=a2 v=0
64512 TimeSig 3/2 24 8
64512 On ch=1 n=a#4 v=105
64512 On ch=2 n=a#2 v=75
64512 On ch=2 n=a#3 v=75
64672 On ch=1 n=a#4 v=0
64672 On ch=2 n=a#2 v=0
64672 On ch=2 n=a#3 v=0
64704 On ch=1 n=g#4 v=75
64798 On ch=1 n=g#4 v=0
64848 On ch=1 n=g#4 v=75
64894 On ch=1 n=g#4 v=0
64896 On ch=1 n=a#4 v=105
65056 On ch=1 n=a#4 v=0
65088 On ch=1 n=f#4 v=75
65182 On ch=1 n=f#4 v=0
65232 On ch=1 n=f#4 v=75
65278 On ch=1 n=f#4 v=0
65280 On ch=1 n=g#4 v=105
65440 On ch=1 n=g#4 v=0
65472 On ch=1 n=f4 v=75
65566 On ch=1 n=f4 v=0
65616 On ch=1 n=f4 v=75
65662 On ch=1 n=f4 v=0
65664 On ch=1 n=f#4 v=105
65664 On ch=1 n=a#4 v=105
65664 On ch=2 n=a#2 v=105
65824 On ch=1 n=f#4 v=0
65824 On ch=1 n=a#4 v=0
65824 On ch=2 n=a#2 v=0
65856 On ch=1 n=g#4 v=75
65856 On ch=2 n=f4 v=75
65950 On ch=1 n=g#4 v=0
66000 On ch=1 n=g#4 v=75
66046 On ch=1 n=g#4 v=0
66048 On ch=1 n=a#4 v=105
66208 On ch=1 n=a#4 v=0
66240 On ch=2 n=f4 v=0
66240 On ch=1 n=f#4 v=75
66240 On ch=2 n=d#4 v=75
66334 On ch=1 n=f#4 v=0
66384 On ch=1 n=f#4 v=75
66430 On ch=1 n=f#4 v=0
66432 On ch=1 n=g#4 v=105
66592 On ch=1 n=g#4 v=0
66624 On ch=2 n=d#4 v=0
66624 On ch=1 n=f4 v=75
66624 On ch=2 n=a#2 v=75
66624 On ch=2 n=c#4 v=75
66718 On ch=1 n=f4 v=0
66768 On ch=1 n=f4 v=75
66814 On ch=1 n=f4 v=0
66816 On ch=2 n=a#2 v=0
66816 On ch=1 n=f#4 v=105
66816 On ch=1 n=a#4 v=105
66816 On ch=2 n=a#2 v=75
66976 On ch=1 n=f#4 v=0
66976 On ch=1 n=a#4 v=0
66976 On ch=2 n=a#2 v=0
66976 On ch=2 n=d4 v=0
67008 On ch=1 n=f4 v=75
67008 On ch=1 n=g#4 v=75
67008 On ch=2 n=b3 v=75
67102 On ch=1 n=g#4 v=0
67102 On ch=2 n=b3 v=0
67152 On ch=1 n=g#4 v=75
67152 On ch=2 n=b3 v=75
67198 On ch=2 n=b3 v=0
67200 On ch=1 n=g#4 v=0
67200 On ch=1 n=a#4 v=105
67200 On ch=2 n=c#4 v=105
67344 On ch=1 n=f4 v=0
67360 On ch=1 n=a#4 v=0
67360 On ch=2 n=c#4 v=0
67392 On ch=1 n=d#4 v=75
67392 On ch=1 n=f#4 v=75
67392 On ch=2 n=a#3 v=75
67486 On ch=1 n=f#4 v=0
67486 On ch=2 n=a#3 v=0
67536 On ch=1 n=f#4 v=75
67536 On ch=2 n=a#3 v=75
67582 On ch=2 n=a#3 v=0
67584 On ch=1 n=f#4 v=0
67584 On ch=1 n=g#4 v=105
67584 On ch=2 n=b3 v=105
67728 On ch=1 n=d#4 v=0
67744 On ch=1 n=g#4 v=0
67744 On ch=2 n=b3 v=0
67776 On ch=1 n=c#4 v=75
67776 On ch=1 n=f4 v=75
67776 On ch=2 n=g#3 v=75
67870 On ch=1 n=f4 v=0
67870 On ch=2 n=g#3 v=0
67920 On ch=1 n=f4 v=75
67920 On ch=2 n=g#3 v=75
67936 On ch=1 n=c#4 v=0
67966 On ch=1 n=f4 v=0
67966 On ch=2 n=g#3 v=0
67968 On ch=1 n=c#4 v=105
67968 On ch=1 n=f#4 v=105
67968 On ch=2 n=a#3 v=105
68128 On ch=1 n=c#4 v=0
68128 On ch=1 n=f#4 v=0
68128 On ch=2 n=a#3 v=0
68160 On ch=1 n=f4 v=75
68160 On ch=1 n=a#4 v=75
68160 On ch=2 n=a#2 v=75
68160 On ch=2 n=g#3 v=75
68254 On ch=1 n=f4 v=0
68254 On ch=2 n=g#3 v=0
68304 On ch=1 n=f4 v=75
68304 On ch=2 n=g#3 v=75
68350 On ch=1 n=f4 v=0
68350 On ch=2 n=g#3 v=0
68352 On ch=1 n=f#4 v=105
68352 On ch=2 n=a#3 v=105
68496 On ch=1 n=a#4 v=0
68512 On ch=1 n=f#4 v=0
68512 On ch=2 n=a#3 v=0
68544 On ch=1 n=d#4 v=75
68544 On ch=1 n=a#4 v=75
68544 On ch=2 n=f#3 v=75
68638 On ch=1 n=d#4 v=0
68638 On ch=2 n=f#3 v=0
68688 On ch=1 n=d#4 v=75
68688 On ch=2 n=f#3 v=75
68734 On ch=1 n=d#4 v=0
68734 On ch=2 n=f#3 v=0
68736 On ch=1 n=f4 v=105
68736 On ch=2 n=g#3 v=105
68880 On ch=1 n=a#4 v=0
68896 On ch=1 n=f4 v=0
68896 On ch=2 n=g#3 v=0
68928 On ch=1 n=c#4 v=75
68928 On ch=1 n=a#4 v=75
68928 On ch=2 n=f3 v=75
69022 On ch=1 n=c#4 v=0
69022 On ch=2 n=f3 v=0
69072 On ch=1 n=c#4 v=75
69072 On ch=2 n=f3 v=75
69118 On ch=1 n=c#4 v=0
69118 On ch=2 n=f3 v=0
69120 On ch=1 n=d#4 v=75
69120 On ch=2 n=f#3 v=105
69280 On ch=1 n=d#4 v=0
69280 On ch=1 n=a#4 v=0
69280 On ch=2 n=a#2 v=0
69280 On ch=2 n=f#3 v=0
69312 On ch=1 n=d4 v=75
69312 On ch=1 n=g#4 v=75
69312 On ch=2 n=a#2 v=75
69312 On ch=2 n=f3 v=75
69406 On ch=1 n=g#4 v=0
69456 On ch=1 n=g#4 v=75
69502 On ch=1 n=g#4 v=0
69504 On ch=1 n=a#4 v=75
69552 On ch=1 n=a#4 v=0
69648 On ch=1 n=d4 v=0
69648 On ch=2 n=a#2 v=0
69648 On ch=2 n=f3 v=0
69696 On ch=1 n=c#4 v=75
69696 On ch=1 n=f#4 v=75
69696 On ch=2 n=a#2 v=75
69696 On ch=2 n=e3 v=75
69790 On ch=1 n=f#4 v=0
69840 On ch=1 n=f#4 v=75
69886 On ch=1 n=f#4 v=0
69888 On ch=1 n=g#4 v=75
69936 On ch=1 n=g#4 v=0
70032 On ch=1 n=c#4 v=0
70032 On ch=2 n=a#2 v=0
70032 On ch=2 n=e3 v=0
70080 On ch=1 n=c4 v=75
70080 On ch=1 n=f4 v=75
70080 On ch=2 n=a#2 v=75
70080 On ch=2 n=d#3 v=75
70174 On ch=1 n=f4 v=0
70224 On ch=1 n=f4 v=75
70270 On ch=1 n=f4 v=0
70272 On ch=1 n=f#4 v=75
70432 On ch=1 n=c4 v=0
70432 On ch=1 n=f#4 v=0
70432 On ch=2 n=e3 v=0
70464 On ch=1 n=d4 v=75
70464 On ch=1 n=g#4 v=75
70464 On ch=2 n=f3 v=75
70558 On ch=1 n=d4 v=0
70558 On ch=2 n=f3 v=0
70608 On ch=1 n=d4 v=75
70608 On ch=2 n=f3 v=75
70654 On ch=1 n=d4 v=0
70654 On ch=2 n=f3 v=0
70656 On ch=1 n=d#4 v=75
70656 On ch=2 n=f#3 v=75
70704 On ch=2 n=f#3 v=0
70800 On ch=1 n=g#4 v=0
70800 On ch=2 n=a#2 v=0
70816 On ch=1 n=d#4 v=0
70848 On ch=1 n=c4 v=75
70848 On ch=1 n=a4 v=75
70848 On ch=2 n=a#2 v=75
70848 On ch=2 n=d#3 v=75
70942 On ch=1 n=c4 v=0
70942 On ch=2 n=d#3 v=0
70992 On ch=1 n=c4 v=75
70992 On ch=2 n=d#3 v=75
71038 On ch=1 n=c4 v=0
71038 On ch=2 n=d#3 v=0
71040 On ch=1 n=d4 v=75
71040 On ch=2 n=f3 v=75
71088 On ch=2 n=f3 v=0
71184 On ch=1 n=a4 v=0
71200 On ch=1 n=d4 v=0
71232 On ch=1 n=a#3 v=60
71232 On ch=1 n=a#4 v=60
71232 On ch=2 n=d3 v=60
71326 On ch=2 n=d3 v=0
71376 On ch=2 n=d3 v=60
71422 On ch=2 n=d3 v=0
71424 On ch=2 n=a#3 v=60
71472 On ch=2 n=a#3 v=0
71584 On ch=1 n=a#3 v=0
71584 On ch=1 n=a#4 v=0
71616 On ch=1 n=d4 v=60
71616 On ch=1 n=a#4 v=60
71616 On ch=1 n=d5 v=60
71616 On ch=2 n=g#3 v=60
71710 On ch=2 n=g#3 v=0
71760 On ch=2 n=g#3 v=61
71806 On ch=2 n=g#3 v=0
71808 On ch=2 n=a#3 v=61
71856 On ch=2 n=a#3 v=0
72000 On ch=1 n=d4 v=0
72000 On ch=1 n=a#4 v=0
72000 On ch=1 n=d5 v=0
72000 On ch=1 n=d#4 v=66
72000 On ch=1 n=c5 v=66
72000 On ch=1 n=d#5 v=66
72000 On ch=2 n=f#3 v=64
72094 On ch=2 n=f#3 v=0
72144 On ch=2 n=f#3 v=65
72190 On ch=2 n=f#3 v=0
72192 On ch=2 n=g#3 v=65
72240 On ch=2 n=a#2 v=0
72240 On ch=2 n=g#3 v=0
72384 On ch=1 n=d#4 v=0
72384 On ch=1 n=c5 v=0
72384 On ch=1 n=d#5 v=0
72384 On ch=1 n=a#4 v=72
72384 On ch=1 n=d5 v=72
72384 On ch=1 n=a#5 v=72
72384 On ch=2 n=a#2 v=68
72384 On ch=2 n=f3 v=68
72478 On ch=2 n=f3 v=0
72528 On ch=2 n=f3 v=69
72574 On ch=2 n=f3 v=0
72576 On ch=1 n=a#4 v=0
72576 On ch=1 n=a#4 v=75
72576 On ch=2 n=f#3 v=69
72624 On ch=2 n=f#3 v=0
72768 On ch=1 n=a#4 v=0
72768 On ch=1 n=d5 v=0
72768 On ch=1 n=a#5 v=0
72768 On ch=1 n=c4 v=78
72768 On ch=1 n=a#4 v=78
72768 On ch=1 n=c5 v=78
72768 On ch=2 n=f#3 v=72
72862 On ch=2 n=f#3 v=0
72912 On ch=2 n=f#3 v=75
72958 On ch=2 n=f#3 v=0
72960 On ch=2 n=g#3 v=76
73008 On ch=2 n=g#3 v=0
73152 On ch=1 n=c4 v=0
73152 On ch=1 n=a#4 v=0
73152 On ch=1 n=c5 v=0
73152 On ch=1 n=d4 v=84
73152 On ch=1 n=a#4 v=84
73152 On ch=1 n=d5 v=84
73152 On ch=2 n=f3 v=80
73246 On ch=2 n=f3 v=0
73296 On ch=2 n=f3 v=83
73342 On ch=2 n=f3 v=0
73344 On ch=2 n=f#3 v=83
73392 On ch=2 n=a#2 v=0
73392 On ch=2 n=f#3 v=0
73536 On ch=1 n=d4 v=0
73536 On ch=1 n=a#4 v=0
73536 On ch=1 n=d5 v=0
73536 On ch=1 n=a#4 v=90
73536 On ch=1 n=d5 v=90
73536 On ch=1 n=a#5 v=90
73536 On ch=2 n=a#2 v=87
73536 On ch=2 n=e3 v=87
73630 On ch=2 n=e3 v=0
73680 On ch=2 n=e3 v=90
73726 On ch=2 n=e3 v=0
73728 On ch=1 n=a#4 v=0
73728 On ch=1 n=a#4 v=93
73728 On ch=2 n=f3 v=91
73776 On ch=2 n=f3 v=0
73920 On ch=1 n=a#4 v=0
73920 On ch=1 n=d5 v=0
73920 On ch=1 n=a#5 v=0
73920 On ch=1 n=a#3 v=96
73920 On ch=1 n=d4 v=96
73920 On ch=1 n=a#4 v=96
73920 On ch=2 n=f3 v=95
74014 On ch=2 n=f3 v=0
74064 On ch=2 n=f3 v=98
74110 On ch=2 n=f3 v=0
74112 On ch=2 n=f#3 v=99
74160 On ch=2 n=f#3 v=0
74304 On ch=1 n=a#3 v=0
74304 On ch=1 n=d4 v=0
74304 On ch=1 n=a#4 v=0
74304 On ch=1 n=c4 v=102
74304 On ch=1 n=a#4 v=102
74304 On ch=1 n=c5 v=102
74304 On ch=2 n=d#3 v=103
74398 On ch=2 n=d#3 v=0
74448 On ch=2 n=d#3 v=106
74494 On ch=2 n=d#3 v=0
74496 On ch=2 n=f3 v=108
74544 On ch=2 n=f3 v=0
74688 On ch=1 n=c4 v=0
74688 On ch=1 n=a#4 v=0
74688 On ch=1 n=c5 v=0
74688 On ch=1 n=f4 v=108
74688 On ch=1 n=a#4 v=108
74688 On ch=1 n=f5 v=108
74688 On ch=2 n=d3 v=108
74782 On ch=2 n=d3 v=0
74832 On ch=2 n=d3 v=108
74878 On ch=2 n=d3 v=0
74880 On ch=2 n=d#3 v=108
75040 On ch=2 n=d#3 v=0
75072 On ch=2 n=c#3 v=108
75166 On ch=2 n=c#3 v=0
75216 On ch=2 n=c#3 v=108
75262 On ch=2 n=c#3 v=0
75264 On ch=2 n=d3 v=108
75424 On ch=2 n=a#2 v=0
75424 On ch=2 n=d3 v=0
75456 On ch=1 n=a#4 v=0
75456 On ch=1 n=a4 v=93
75456 On ch=2 n=b2 v=100
75550 On ch=2 n=b2 v=0
75600 On ch=2 n=b2 v=94
75646 On ch=2 n=b2 v=0
75648 On ch=2 n=c#3 v=92
75808 On ch=2 n=c#3 v=0
75840 On ch=1 n=a4 v=0
75840 On ch=1 n=a#4 v=61
75840 On ch=2 n=a#2 v=84
75934 On ch=2 n=a#2 v=0
75984 On ch=2 n=a#2 v=78
76030 On ch=2 n=a#2 v=0
76032 On ch=1 n=f4 v=0
76032 On ch=1 n=a#4 v=0
76032 On ch=1 n=f5 v=0
76032 On ch=1 n=a#6 v=75
76032 On ch=2 n=a#3 v=75
76192 On ch=1 n=a#6 v=0
76192 On ch=2 n=a#3 v=0
76224 On ch=1 n=f6 v=75
76224 On ch=1 n=g#6 v=75
76318 On ch=1 n=g#6 v=0
76368 On ch=1 n=g#6 v=75
76414 On ch=1 n=g#6 v=0
76416 On ch=1 n=a#6 v=75
76464 On ch=1 n=a#6 v=0
76560 On ch=1 n=f6 v=0
76608 On ch=1 n=d#6 v=75
76608 On ch=1 n=f#6 v=75
76608 On ch=2 n=a#5 v=75
76656 On ch=2 n=a#5 v=0
76702 On ch=1 n=f#6 v=0
76752 On ch=1 n=f#6 v=75
76798 On ch=1 n=f#6 v=0
76800 On ch=1 n=g#6 v=75
76800 On ch=2 n=g#5 v=75
76848 On ch=1 n=g#6 v=0
76894 On ch=2 n=g#5 v=0
76944 On ch=1 n=d#6 v=0
76944 On ch=2 n=g#5 v=75
76990 On ch=2 n=g#5 v=0
76992 On ch=1 n=c#6 v=75
76992 On ch=1 n=f6 v=75
76992 On ch=2 n=a#5 v=75
77040 On ch=2 n=a#5 v=0
77086 On ch=1 n=f6 v=0
77136 On ch=1 n=f6 v=75
77182 On ch=1 n=f6 v=0
77184 On ch=1 n=f#6 v=75
77184 On ch=2 n=f#5 v=75
77232 On ch=1 n=f#6 v=0
77278 On ch=2 n=f#5 v=0
77328 On ch=2 n=f#5 v=75
77344 On ch=1 n=d6 v=0
77374 On ch=2 n=f#5 v=0
77376 On ch=1 n=b5 v=75
77376 On ch=1 n=d#6 v=75
77376 On ch=2 n=g#5 v=75
77470 On ch=1 n=d#6 v=0
77520 On ch=1 n=d#6 v=75
77536 On ch=1 n=b5 v=0
77536 On ch=2 n=g#5 v=0
77566 On ch=1 n=d#6 v=0
77568 On ch=1 n=a#5 v=75
77568 On ch=1 n=f6 v=75
77568 On ch=2 n=a#4 v=75
77568 On ch=2 n=f5 v=75
77616 On ch=1 n=f6 v=0
77662 On ch=2 n=f5 v=0
77712 On ch=2 n=f5 v=75
77728 On ch=1 n=a#5 v=0
77728 On ch=2 n=a#4 v=0
77758 On ch=2 n=f5 v=0
77760 On ch=1 n=d5 v=75
77760 On ch=1 n=a#5 v=75
77760 On ch=2 n=g#4 v=75
77760 On ch=2 n=f#5 v=75
77808 On ch=1 n=d5 v=0
77854 On ch=2 n=g#4 v=0
77904 On ch=2 n=g#4 v=75
77920 On ch=2 n=f#5 v=0
77950 On ch=2 n=g#4 v=0
77952 On ch=1 n=a#4 v=75
77952 On ch=1 n=d#5 v=75
77952 On ch=2 n=a#3 v=75
77952 On ch=2 n=f#4 v=75
78046 On ch=1 n=a#4 v=0
78046 On ch=1 n=d#5 v=0
78096 On ch=1 n=a#5 v=0
78096 On ch=1 n=d#5 v=75
78112 On ch=2 n=a#3 v=0
78112 On ch=2 n=f#4 v=0
78142 On ch=1 n=d#5 v=0
78144 On ch=1 n=a#4 v=75
78144 On ch=1 n=f5 v=75
78144 On ch=1 n=a#5 v=75
78144 On ch=2 n=g#3 v=75
78238 On ch=2 n=g#3 v=0
78288 On ch=2 n=g#3 v=75
78304 On ch=1 n=a#4 v=0
78304 On ch=1 n=f5 v=0
78304 On ch=1 n=a#5 v=0
78334 On ch=2 n=g#3 v=0
78336 On ch=1 n=c#5 v=75
78336 On ch=2 n=a#3 v=75
78430 On ch=1 n=c#5 v=0
78480 On ch=1 n=c#5 v=75
78496 On ch=2 n=a#3 v=0
78526 On ch=1 n=c#5 v=0
78528 On ch=1 n=a#4 v=75
78528 On ch=1 n=d#5 v=75
78528 On ch=1 n=a#5 v=75
78528 On ch=2 n=f#3 v=75
78576 On ch=1 n=a#4 v=0
78576 On ch=1 n=d#5 v=0
78576 On ch=1 n=a#5 v=0
78622 On ch=2 n=f#3 v=0
78672 On ch=2 n=f#3 v=75
78718 On ch=2 n=f#3 v=0
78720 On ch=1 n=b4 v=75
78720 On ch=1 n=g#5 v=75
78720 On ch=2 n=g#3 v=75
78814 On ch=1 n=b4 v=0
78814 On ch=1 n=g#5 v=0
78864 On ch=1 n=b4 v=75
78864 On ch=1 n=g#5 v=75
78880 On ch=2 n=g#3 v=0
78910 On ch=1 n=b4 v=0
78910 On ch=1 n=g#5 v=0
78912 On ch=1 n=c#5 v=75
78912 On ch=1 n=a#5 v=75
78912 On ch=2 n=f3 v=75
78960 On ch=1 n=c#5 v=0
78960 On ch=1 n=a#5 v=0
79006 On ch=2 n=f3 v=0
79056 On ch=2 n=f3 v=75
79102 On ch=2 n=f3 v=0
79104 On ch=1 n=a#4 v=75
79104 On ch=1 n=f#5 v=75
79104 On ch=2 n=f#3 v=105
79104 On ch=2 n=a#3 v=105
79198 On ch=1 n=a#4 v=0
79198 On ch=1 n=f#5 v=0
79248 On ch=1 n=a#4 v=75
79248 On ch=1 n=f#5 v=75
79264 On ch=2 n=f#3 v=0
79264 On ch=2 n=a#3 v=0
79294 On ch=1 n=a#4 v=0
79294 On ch=1 n=f#5 v=0
79296 On ch=1 n=c5 v=75
79296 On ch=1 n=g#5 v=75
79296 On ch=2 n=d#3 v=75
79296 On ch=2 n=g#3 v=75
79344 On ch=1 n=c5 v=0
79344 On ch=1 n=g#5 v=0
79390 On ch=2 n=d#3 v=0
79390 On ch=2 n=g#3 v=0
79440 On ch=2 n=f3 v=75
79440 On ch=2 n=g#3 v=75
79486 On ch=2 n=f3 v=0
79486 On ch=2 n=g#3 v=0
79488 On ch=1 n=a#4 v=105
79488 On ch=2 n=a#2 v=75
79488 On ch=2 n=a#3 v=75
79536 On ch=1 n=a#4 v=0
79648 On ch=2 n=a#2 v=0
79648 On ch=2 n=a#3 v=0
79680 On ch=2 n=a2 v=75
79774 On ch=2 n=a2 v=0
79824 On ch=2 n=a2 v=75
79870 On ch=2 n=a2 v=0
79872 On ch=2 n=a#2 v=75
80032 On ch=2 n=a#2 v=0
80064 On ch=2 n=g#2 v=75
80158 On ch=2 n=g#2 v=0
80208 On ch=2 n=g#2 v=75
80254 On ch=2 n=g#2 v=0
80256 On ch=2 n=a2 v=75
80416 On ch=2 n=a2 v=0
80448 On ch=2 n=g2 v=75
80542 On ch=2 n=g2 v=0
80592 On ch=2 n=g2 v=75
80638 On ch=2 n=g2 v=0
80640 TimeSig 2/2 24 8
80640 On ch=1 n=g#4 v=75
80640 On ch=1 n=b4 v=75
80640 On ch=1 n=d#5 v=75
80640 On ch=2 n=g#2 v=75
80702 On ch=1 n=g#4 v=0
80702 On ch=1 n=b4 v=0
80702 On ch=1 n=d#5 v=0
80702 On ch=2 n=g#2 v=0
80768 On ch=1 n=a#4 v=75
80768 On ch=1 n=c#5 v=75
80768 On ch=1 n=g5 v=75
80768 On ch=2 n=d#3 v=75
80768 On ch=2 n=d#4 v=75
80830 On ch=1 n=a#4 v=0
80830 On ch=1 n=c#5 v=0
80830 On ch=1 n=g5 v=0
80830 On ch=2 n=d#3 v=0
80830 On ch=2 n=d#4 v=0
80832 On ch=1 n=b4 v=75
80832 On ch=1 n=g#5 v=75
80832 On ch=2 n=g#3 v=75
80832 On ch=2 n=d#4 v=75
81168 On ch=1 n=b4 v=0
81168 On ch=1 n=g#5 v=0
81168 On ch=2 n=g#3 v=0
81168 On ch=2 n=d#4 v=0
81216 On ch=1 n=a#4 v=75
81216 On ch=1 n=c#5 v=75
81216 On ch=1 n=d#5 v=75
81216 On ch=2 n=d#4 v=75
81216 On ch=2 n=g4 v=75
81264 On ch=1 n=a#4 v=0
81264 On ch=1 n=c#5 v=0
81264 On ch=1 n=d#5 v=0
81264 On ch=2 n=d#4 v=0
81264 On ch=2 n=g4 v=0
81408 On ch=1 n=b4 v=81
81408 On ch=1 n=d#5 v=81
81408 On ch=2 n=g#3 v=81
81408 On ch=2 n=d#4 v=81
81408 On ch=2 n=g#4 v=81
81456 On ch=1 n=b4 v=0
81456 On ch=1 n=d#5 v=0
81456 On ch=2 n=g#3 v=0
81456 On ch=2 n=d#4 v=0
81456 On ch=2 n=g#4 v=0
81600 On ch=2 n=e3 v=87
81600 On ch=2 n=c#4 v=87
81662 On ch=2 n=e3 v=0
81662 On ch=2 n=c#4 v=0
81728 On ch=2 n=e3 v=91
81728 On ch=2 n=c#4 v=91
81790 On ch=2 n=e3 v=0
81790 On ch=2 n=c#4 v=0
81792 On ch=2 n=g#3 v=93
81792 On ch=2 n=d#4 v=93
81952 On ch=2 n=g#3 v=0
81952 On ch=2 n=d#4 v=0
81984 On ch=1 n=g4 v=101
81984 On ch=1 n=c#5 v=101
81984 On ch=2 n=d#3 v=100
81984 On ch=1 n=d#5 v=101
82032 On ch=2 n=d#3 v=0
82046 On ch=1 n=g4 v=0
82048 On ch=1 n=g#4 v=103
82110 On ch=1 n=g#4 v=0
82112 On ch=1 n=a#4 v=105
82144 On ch=1 n=d#5 v=0
82144 On ch=1 n=c#5 v=0
82174 On ch=1 n=a#4 v=0
82176 On ch=1 n=b4 v=108
82176 On ch=1 n=d#5 v=108
82176 On ch=2 n=g#3 v=108
82224 On ch=2 n=g#3 v=0
82336 On ch=1 n=b4 v=0
82336 On ch=1 n=d#5 v=0
82368 On ch=2 n=e4 v=108
82368 On ch=2 n=c#5 v=108
82430 On ch=2 n=e4 v=0
82430 On ch=2 n=c#5 v=0
82496 On ch=2 n=e4 v=108
82496 On ch=2 n=c#5 v=108
82558 On ch=2 n=e4 v=0
82558 On ch=2 n=c#5 v=0
82560 On ch=2 n=g#4 v=108
82560 On ch=2 n=d#5 v=108
82720 On ch=2 n=g#4 v=0
82720 On ch=2 n=d#5 v=0
82752 On ch=1 n=g4 v=108
82752 On ch=1 n=c#5 v=108
82752 On ch=1 n=d#5 v=108
82752 On ch=2 n=d#4 v=108
82814 On ch=1 n=g4 v=0
82814 On ch=2 n=d#4 v=0
82816 On ch=1 n=g#4 v=108
82816 On ch=2 n=f4 v=108
82878 On ch=1 n=g#4 v=0
82878 On ch=2 n=f4 v=0
82880 On ch=1 n=a#4 v=108
82880 On ch=2 n=g4 v=108
82912 On ch=1 n=c#5 v=0
82912 On ch=1 n=d#5 v=0
82942 On ch=1 n=a#4 v=0
82942 On ch=2 n=g4 v=0
82944 On ch=1 n=b4 v=108
82944 On ch=1 n=d#5 v=108
82944 On ch=2 n=g#3 v=108
82944 On ch=2 n=d#4 v=108
83104 On ch=1 n=b4 v=0
83104 On ch=1 n=d#5 v=0
83104 On ch=2 n=g#3 v=0
83104 On ch=2 n=d#4 v=0
83136 On ch=1 n=d#6 v=108
83136 On ch=2 n=d#5 v=108
83136 On ch=2 n=b5 v=108
83178 On ch=2 n=d#5 v=0
83178 On ch=2 n=b5 v=0
83198 On ch=1 n=d#6 v=0
83200 On ch=1 n=g#5 v=108
83262 On ch=1 n=g#5 v=0
83264 On ch=1 n=d#6 v=108
83264 On ch=2 n=d#5 v=108
83264 On ch=2 n=b5 v=108
83306 On ch=2 n=d#5 v=0
83306 On ch=2 n=b5 v=0
83326 On ch=1 n=d#6 v=0
83328 On ch=1 n=g#5 v=108
83328 On ch=2 n=d#5 v=108
83328 On ch=2 n=b5 v=108
83390 On ch=1 n=g#5 v=0
83392 On ch=1 n=d#6 v=108
83454 On ch=1 n=d#6 v=0
83456 On ch=1 n=g#5 v=108
83488 On ch=2 n=d#5 v=0
83488 On ch=2 n=b5 v=0
83518 On ch=1 n=g#5 v=0
83520 On ch=1 n=d#5 v=108
83520 On ch=2 n=d#4 v=108
83520 On ch=2 n=b4 v=108
83582 On ch=1 n=d#5 v=0
83582 On ch=2 n=d#4 v=0
83582 On ch=2 n=b4 v=0
83584 On ch=1 n=g#4 v=108
83646 On ch=1 n=g#4 v=0
83648 On ch=1 n=d#5 v=108
83648 On ch=2 n=d#4 v=108
83648 On ch=2 n=b4 v=108
83710 On ch=1 n=d#5 v=0
83710 On ch=2 n=d#4 v=0
83710 On ch=2 n=b4 v=0
83712 On ch=1 n=g#4 v=108
83712 On ch=2 n=d#4 v=108
83712 On ch=2 n=b4 v=108
83760 On ch=2 n=d#4 v=0
83760 On ch=2 n=b4 v=0
83774 On ch=1 n=g#4 v=0
83776 On ch=1 n=e5 v=108
83838 On ch=1 n=e5 v=0
83840 On ch=1 n=g#4 v=108
83902 On ch=1 n=g#4 v=0
83904 On ch=1 n=b4 v=108
83904 On ch=1 n=d#5 v=108
83904 On ch=2 n=g#3 v=108
83904 On ch=2 n=d#4 v=108
83952 On ch=2 n=g#3 v=0
83952 On ch=2 n=d#4 v=0
83966 On ch=1 n=b4 v=0
83966 On ch=1 n=d#5 v=0
83968 On ch=1 n=c#5 v=108
84030 On ch=1 n=c#5 v=0
84032 On ch=1 n=b4 v=108
84094 On ch=1 n=b4 v=0
84096 On ch=1 n=e4 v=108
84096 On ch=1 n=b4 v=108
84096 On ch=2 n=c#3 v=108
84096 On ch=2 n=g#3 v=108
84144 On ch=1 n=e4 v=0
84144 On ch=1 n=b4 v=0
84144 On ch=2 n=c#3 v=0
84144 On ch=2 n=g#3 v=0
84288 On ch=1 n=e4 v=108
84288 On ch=1 n=f#4 v=108
84288 On ch=1 n=a#4 v=108
84288 On ch=2 n=f#3 v=108
84336 On ch=1 n=e4 v=0
84336 On ch=1 n=f#4 v=0
84336 On ch=1 n=a#4 v=0
84336 On ch=2 n=f#3 v=0
84480 On ch=1 n=d#4 v=108
84480 On ch=1 n=f#4 v=108
84480 On ch=1 n=b4 v=108
84480 On ch=2 n=b2 v=108
84480 On ch=2 n=f#3 v=108
84528 On ch=1 n=d#4 v=0
84528 On ch=1 n=f#4 v=0
84528 On ch=1 n=b4 v=0
84640 On ch=2 n=b2 v=0
84640 On ch=2 n=f#3 v=0
84672 On ch=1 n=c#4 v=108
84672 On ch=1 n=e4 v=108
84672 On ch=1 n=f#4 v=108
84672 On ch=2 n=f#2 v=108
84672 On ch=2 n=f#3 v=108
84832 On ch=1 n=c#4 v=0
84832 On ch=1 n=e4 v=0
84832 On ch=2 n=f#2 v=0
84864 On ch=1 n=b3 v=108
84864 On ch=1 n=d#4 v=108
84864 On ch=2 n=b2 v=108
85008 On ch=1 n=f#4 v=0
85008 On ch=2 n=f#3 v=0
85024 On ch=1 n=b3 v=0
85024 On ch=1 n=d#4 v=0
85024 On ch=2 n=b2 v=0
85056 On ch=1 n=g4 v=108
85056 On ch=2 n=e3 v=108
85056 On ch=2 n=c#4 v=108
85118 On ch=1 n=g4 v=0
85118 On ch=2 n=e3 v=0
85118 On ch=2 n=c#4 v=0
85120 On ch=1 n=g#4 v=108
85182 On ch=1 n=g#4 v=0
85184 On ch=1 n=a#4 v=108
85184 On ch=2 n=e3 v=108
85184 On ch=2 n=c#4 v=108
85246 On ch=1 n=a#4 v=0
85246 On ch=2 n=e3 v=0
85246 On ch=2 n=c#4 v=0
85248 On ch=1 n=g#4 v=108
85248 On ch=1 n=b4 v=108
85248 On ch=2 n=g#3 v=108
85248 On ch=2 n=d#4 v=108
85408 On ch=1 n=g#4 v=0
85408 On ch=1 n=b4 v=0
85408 On ch=2 n=g#3 v=0
85408 On ch=2 n=d#4 v=0
85440 On ch=1 n=d#6 v=108
85440 On ch=2 n=d#5 v=108
85440 On ch=2 n=b5 v=108
85482 On ch=2 n=d#5 v=0
85482 On ch=2 n=b5 v=0
85502 On ch=1 n=d#6 v=0
85504 On ch=1 n=g#5 v=109
85566 On ch=1 n=g#5 v=0
85568 On ch=1 n=d#6 v=110
85568 On ch=2 n=d#5 v=110
85568 On ch=2 n=b5 v=110
85610 On ch=2 n=d#5 v=0
85610 On ch=2 n=b5 v=0
85630 On ch=1 n=d#6 v=0
85632 On ch=1 n=g#5 v=111
85632 On ch=2 n=d#5 v=111
85632 On ch=2 n=b5 v=111
85680 On ch=2 n=d#5 v=0
85680 On ch=2 n=b5 v=0
85694 On ch=1 n=g#5 v=0
85696 On ch=1 n=d#6 v=112
85758 On ch=1 n=d#6 v=0
85760 On ch=1 n=g#5 v=113
85822 On ch=1 n=g#5 v=0
85824 On ch=1 n=d#5 v=115
85824 On ch=2 n=d#4 v=116
85824 On ch=2 n=b4 v=116
85886 On ch=1 n=d#5 v=0
85886 On ch=2 n=d#4 v=0
85886 On ch=2 n=b4 v=0
85888 On ch=1 n=g#4 v=117
85950 On ch=1 n=g#4 v=0
85952 On ch=1 n=d#5 v=119
85952 On ch=2 n=d#4 v=119
86014 On ch=1 n=d#5 v=0
86014 On ch=2 n=d#4 v=0
86016 On ch=1 n=e4 v=121
86016 On ch=1 n=g#4 v=121
86016 On ch=1 n=b4 v=121
86016 On ch=2 n=e3 v=121
86016 On ch=2 n=b3 v=121
86078 On ch=1 n=e4 v=0
86078 On ch=1 n=g#4 v=0
86078 On ch=1 n=b4 v=0
86078 On ch=2 n=e3 v=0
86078 On ch=2 n=b3 v=0
86144 On ch=1 n=f#4 v=125
86144 On ch=1 n=a4 v=125
86144 On ch=1 n=d#5 v=125
86144 On ch=2 n=b2 v=125
86144 On ch=2 n=b3 v=125
86206 On ch=1 n=f#4 v=0
86206 On ch=1 n=a4 v=0
86206 On ch=1 n=d#5 v=0
86206 On ch=2 n=b2 v=0
86206 On ch=2 n=b3 v=0
86208 On ch=1 n=g#4 v=127
86208 On ch=1 n=b4 v=127
86208 On ch=1 n=e5 v=127
86208 On ch=2 n=e3 v=127
86208 On ch=2 n=b3 v=127
86544 On ch=1 n=g#4 v=0
86544 On ch=1 n=b4 v=0
86544 On ch=1 n=e5 v=0
86544 On ch=2 n=e3 v=0
86544 On ch=2 n=b3 v=0
86592 On ch=1 n=f#4 v=127
86592 On ch=1 n=a4 v=127
86592 On ch=1 n=b4 v=127
86592 On ch=2 n=b3 v=127
86592 On ch=2 n=d#4 v=127
86752 On ch=1 n=f#4 v=0
86752 On ch=1 n=a4 v=0
86752 On ch=1 n=b4 v=0
86752 On ch=2 n=b3 v=0
86752 On ch=2 n=d#4 v=0
86784 On ch=1 n=g#4 v=127
86784 On ch=1 n=b4 v=127
86784 On ch=2 n=e3 v=127
86784 On ch=2 n=b3 v=127
86784 On ch=2 n=e4 v=127
86944 On ch=1 n=g#4 v=0
86944 On ch=1 n=b4 v=0
86944 On ch=2 n=e3 v=0
86944 On ch=2 n=b3 v=0
86944 On ch=2 n=e4 v=0
86976 On ch=2 n=e3 v=127
86976 On ch=2 n=c#4 v=127
87038 On ch=2 n=e3 v=0
87038 On ch=2 n=c#4 v=0
87104 On ch=2 n=e3 v=127
87104 On ch=2 n=c#4 v=127
87166 On ch=2 n=e3 v=0
87166 On ch=2 n=c#4 v=0
87168 On ch=2 n=g#3 v=127
87168 On ch=2 n=d#4 v=127
87328 On ch=2 n=g#3 v=0
87328 On ch=2 n=d#4 v=0
87360 On ch=1 n=d#4 v=127
87360 On ch=1 n=a4 v=127
87360 On ch=1 n=b4 v=127
87360 On ch=2 n=b2 v=127
87408 On ch=2 n=b2 v=0
87422 On ch=1 n=d#4 v=0
87424 On ch=1 n=e4 v=127
87486 On ch=1 n=e4 v=0
87488 On ch=1 n=f#4 v=127
87520 On ch=1 n=a4 v=0
87520 On ch=1 n=b4 v=0
87550 On ch=1 n=f#4 v=0
87552 On ch=1 n=g#4 v=127
87552 On ch=1 n=b4 v=127
87552 On ch=2 n=e3 v=127
87600 On ch=2 n=e3 v=0
87712 On ch=1 n=g#4 v=0
87712 On ch=1 n=b4 v=0
87744 On ch=2 n=e4 v=127
87744 On ch=2 n=c#5 v=127
87806 On ch=2 n=e4 v=0
87806 On ch=2 n=c#5 v=0
87872 On ch=2 n=e4 v=127
87872 On ch=2 n=c#5 v=127
87934 On ch=2 n=e4 v=0
87934 On ch=2 n=c#5 v=0
87936 On ch=2 n=g#4 v=127
87936 On ch=2 n=d#5 v=127
88096 On ch=2 n=g#4 v=0
88096 On ch=2 n=d#5 v=0
88128 On ch=1 n=d#5 v=127
88128 On ch=1 n=a5 v=127
88128 On ch=1 n=b5 v=127
88128 On ch=2 n=b4 v=127
88190 On ch=1 n=d#5 v=0
88190 On ch=2 n=b4 v=0
88192 On ch=1 n=e5 v=127
88192 On ch=2 n=c#5 v=127
88254 On ch=1 n=e5 v=0
88254 On ch=2 n=c#5 v=0
88256 On ch=1 n=f#5 v=127
88256 On ch=2 n=d#5 v=127
88288 On ch=1 n=a5 v=0
88288 On ch=1 n=b5 v=0
88318 On ch=1 n=f#5 v=0
88318 On ch=2 n=d#5 v=0
88320 On ch=1 n=g#5 v=127
88320 On ch=1 n=b5 v=127
88320 On ch=2 n=e4 v=127
88320 On ch=2 n=b4 v=127
88480 On ch=1 n=g#5 v=0
88480 On ch=1 n=b5 v=0
88480 On ch=2 n=e4 v=0
88480 On ch=2 n=b4 v=0
88512 On ch=1 n=d#6 v=127
88512 On ch=2 n=f#3 v=127
88512 On ch=2 n=d4 v=127
88554 On ch=2 n=f#3 v=0
88554 On ch=2 n=d4 v=0
88574 On ch=1 n=d#6 v=0
88576 On ch=1 n=g#5 v=125
88638 On ch=1 n=g#5 v=0
88640 On ch=1 n=d#6 v=123
88640 On ch=2 n=f#3 v=123
88640 On ch=2 n=d4 v=123
88682 On ch=2 n=f#3 v=0
88682 On ch=2 n=d4 v=0
88702 On ch=1 n=d#6 v=0
88704 On ch=1 n=g#5 v=121
88704 On ch=2 n=f#3 v=121
88704 On ch=2 n=d4 v=121
88752 On ch=2 n=f#3 v=0
88752 On ch=2 n=d4 v=0
88766 On ch=1 n=g#5 v=0
88768 On ch=1 n=d#6 v=119
88830 On ch=1 n=d#6 v=0
88832 On ch=1 n=g#5 v=117
88894 On ch=1 n=g#5 v=0
88896 On ch=1 n=d#5 v=115
88896 On ch=2 n=d#4 v=114
88896 On ch=2 n=b4 v=114
88958 On ch=1 n=d#5 v=0
88958 On ch=2 n=d#4 v=0
88958 On ch=2 n=b4 v=0
88960 On ch=1 n=g#4 v=113
89022 On ch=1 n=g#4 v=0
89024 On ch=1 n=d#5 v=111
89024 On ch=2 n=d#4 v=110
89024 On ch=2 n=b4 v=110
89086 On ch=1 n=d#5 v=0
89086 On ch=2 n=d#4 v=0
89088 On ch=1 n=g#4 v=109
89088 On ch=2 n=d#4 v=108
89088 On ch=2 n=b4 v=108
89118 On ch=2 n=b4 v=0
89136 On ch=2 n=d#4 v=0
89136 On ch=2 n=b4 v=0
89150 On ch=1 n=g#4 v=0
89152 On ch=1 n=d#5 v=107
89214 On ch=1 n=d#5 v=0
89216 On ch=1 n=g#4 v=105
89278 On ch=1 n=g#4 v=0
89280 On ch=1 n=b4 v=102
89280 On ch=1 n=d#5 v=102
89280 On ch=2 n=g#3 v=100
89280 On ch=2 n=d#4 v=100
89328 On ch=2 n=g#3 v=0
89328 On ch=2 n=d#4 v=0
89342 On ch=1 n=b4 v=0
89342 On ch=1 n=d#5 v=0
89344 On ch=1 n=c#5 v=99
89406 On ch=1 n=c#5 v=0
89408 On ch=1 n=b4 v=96
89470 On ch=1 n=b4 v=0
89472 On ch=1 n=e4 v=93
89472 On ch=1 n=b4 v=93
89472 On ch=2 n=c#3 v=92
89472 On ch=2 n=g#3 v=92
89520 On ch=1 n=e4 v=0
89520 On ch=1 n=b4 v=0
89520 On ch=2 n=c#3 v=0
89520 On ch=2 n=g#3 v=0
89664 On ch=1 n=g4 v=84
89664 On ch=1 n=a#4 v=84
89664 On ch=2 n=d#3 v=84
89664 On ch=2 n=c#4 v=84
89712 On ch=1 n=g4 v=0
89712 On ch=1 n=a#4 v=0
89712 On ch=2 n=d#3 v=0
89712 On ch=2 n=c#4 v=0
89856 On ch=1 n=d#4 v=75
89856 On ch=1 n=g#4 v=75
89856 On ch=1 n=b4 v=75
89856 On ch=2 n=g#2 v=75
89856 On ch=2 n=g#3 v=75
89904 On ch=1 n=d#4 v=0
89904 On ch=1 n=g#4 v=0
89904 On ch=1 n=b4 v=0
90016 On ch=2 n=g#2 v=0
90016 On ch=2 n=g#3 v=0
90048 On ch=1 n=e4 v=75
90048 On ch=1 n=g#4 v=75
90048 On ch=2 n=c#3 v=75
90048 On ch=2 n=g#3 v=75
90208 On ch=1 n=e4 v=0
90208 On ch=2 n=c#3 v=0
90240 On ch=1 n=d#4 v=75
90240 On ch=2 n=b2 v=75
90384 On ch=1 n=g#4 v=0
90384 On ch=2 n=g#3 v=0
90400 On ch=1 n=d#4 v=0
90400 On ch=2 n=b2 v=0
90432 On ch=2 n=e3 v=75
90432 On ch=2 n=c#4 v=75
90494 On ch=2 n=e3 v=0
90494 On ch=2 n=c#4 v=0
90560 On ch=2 n=e3 v=75
90560 On ch=2 n=c#4 v=75
90622 On ch=2 n=e3 v=0
90622 On ch=2 n=c#4 v=0
90624 On ch=2 n=g#3 v=75
90624 On ch=2 n=d#4 v=75
90784 On ch=2 n=g#3 v=0
90784 On ch=2 n=d#4 v=0
90816 On ch=1 n=c#4 v=75
90816 On ch=1 n=g#4 v=75
90816 On ch=2 n=c#3 v=75
90816 On ch=2 n=g#3 v=75
90976 On ch=1 n=c#4 v=0
90976 On ch=2 n=c#3 v=0
91008 On ch=1 n=b3 v=75
91008 On ch=2 n=b2 v=75
91152 On ch=1 n=g#4 v=0
91152 On ch=2 n=g#3 v=0
91168 On ch=1 n=b3 v=0
91168 On ch=2 n=b2 v=0
91200 On ch=2 n=f3 v=75
91200 On ch=2 n=g#3 v=75
91262 On ch=2 n=f3 v=0
91262 On ch=2 n=g#3 v=0
91328 On ch=2 n=f3 v=75
91328 On ch=2 n=g#3 v=75
91390 On ch=2 n=f3 v=0
91390 On ch=2 n=g#3 v=0
91392 On ch=2 n=a#2 v=75
91392 On ch=2 n=a#3 v=75
91552 On ch=2 n=a#3 v=0
91584 On ch=1 n=d4 v=77
91584 On ch=1 n=a#4 v=77
91584 On ch=1 n=d5 v=77
91584 On ch=2 n=g#3 v=77
91678 On ch=2 n=g#3 v=0
91728 On ch=2 n=g#3 v=78
91774 On ch=2 n=g#3 v=0
91776 On ch=2 n=a#3 v=78
91824 On ch=2 n=a#3 v=0
91920 On ch=1 n=d4 v=0
91920 On ch=1 n=a#4 v=0
91920 On ch=1 n=d5 v=0
91968 On ch=1 n=d#4 v=82
91968 On ch=1 n=a#4 v=82
91968 On ch=1 n=c5 v=82
91968 On ch=1 n=d#5 v=82
91968 On ch=2 n=f#3 v=81
92062 On ch=2 n=f#3 v=0
92112 On ch=2 n=f#3 v=82
92158 On ch=2 n=f#3 v=0
92160 On ch=2 n=g#3 v=82
92208 On ch=2 n=g#3 v=0
92304 On ch=1 n=d#4 v=0
92304 On ch=1 n=a#4 v=0
92304 On ch=1 n=c5 v=0
92304 On ch=1 n=d#5 v=0
92352 On ch=1 n=f4 v=88
92352 On ch=1 n=a#4 v=88
92352 On ch=1 n=d5 v=88
92352 On ch=1 n=f5 v=88
92352 On ch=2 n=f3 v=85
92446 On ch=2 n=f3 v=0
92496 On ch=2 n=f3 v=86
92542 On ch=2 n=f3 v=0
92544 On ch=2 n=a#3 v=86
92704 On ch=1 n=f4 v=0
92704 On ch=1 n=a#4 v=0
92704 On ch=1 n=d5 v=0
92704 On ch=1 n=f5 v=0
92704 On ch=2 n=a#3 v=0
92736 On ch=1 n=f#4 v=94
92736 On ch=1 n=a#4 v=94
92736 On ch=1 n=c5 v=94
92736 On ch=1 n=f#5 v=94
92736 On ch=2 n=d#3 v=89
92830 On ch=2 n=d#3 v=0
92880 On ch=2 n=d#3 v=90
92926 On ch=2 n=d#3 v=0
92928 On ch=2 n=f3 v=90
92976 On ch=2 n=f3 v=0
93072 On ch=1 n=f#4 v=0
93072 On ch=1 n=a#4 v=0
93072 On ch=1 n=c5 v=0
93072 On ch=1 n=f#5 v=0
93120 On ch=1 n=g#4 v=100
93120 On ch=1 n=a#4 v=100
93120 On ch=1 n=f5 v=100
93120 On ch=1 n=g#5 v=100
93120 On ch=2 n=d3 v=93
93214 On ch=2 n=d3 v=0
93264 On ch=2 n=d3 v=94
93310 On ch=2 n=d3 v=0
93312 On ch=2 n=a#3 v=95
93360 On ch=2 n=a#3 v=0
93456 On ch=1 n=g#4 v=0
93456 On ch=1 n=a#4 v=0
93456 On ch=1 n=f5 v=0
93456 On ch=1 n=g#5 v=0
93504 On ch=1 n=a4 v=106
93504 On ch=1 n=d#5 v=106
93504 On ch=1 n=f5 v=106
93504 On ch=1 n=a5 v=106
93504 On ch=2 n=c3 v=99
93598 On ch=2 n=c3 v=0
93648 On ch=2 n=a#2 v=0
93648 On ch=2 n=c3 v=102
93664 On ch=1 n=a4 v=0
93664 On ch=1 n=d#5 v=0
93664 On ch=1 n=f5 v=0
93664 On ch=1 n=a5 v=0
93694 On ch=2 n=c3 v=0
93696 On ch=1 n=a#4 v=109
93696 On ch=1 n=d5 v=109
93696 On ch=1 n=f5 v=109
93696 On ch=1 n=a#5 v=109
93696 On ch=2 n=a#2 v=102
93696 On ch=2 n=a#3 v=102
93856 On ch=1 n=a#4 v=0
93856 On ch=1 n=d5 v=0
93856 On ch=1 n=f5 v=0
93856 On ch=1 n=a#5 v=0
93856 On ch=2 n=a#2 v=0
93856 On ch=2 n=a#3 v=0
93888 On ch=1 n=c5 v=112
93888 On ch=1 n=a#5 v=112
93888 On ch=1 n=c6 v=112
93888 On ch=2 n=g#2 v=106
93888 On ch=2 n=g#3 v=106
93982 On ch=2 n=g#2 v=0
93982 On ch=2 n=g#3 v=0
94032 On ch=2 n=g#2 v=109
94032 On ch=2 n=g#3 v=109
94048 On ch=1 n=c5 v=0
94048 On ch=1 n=a#5 v=0
94048 On ch=1 n=c6 v=0
94078 On ch=2 n=g#2 v=0
94078 On ch=2 n=g#3 v=0
94080 On ch=1 n=d5 v=115
94080 On ch=1 n=a#5 v=115
94080 On ch=1 n=d6 v=115
94080 On ch=2 n=a#2 v=127
94080 On ch=2 n=a#3 v=127
94240 On ch=1 n=d5 v=0
94240 On ch=1 n=a#5 v=0
94240 On ch=1 n=d6 v=0
94240 On ch=2 n=a#2 v=0
94240 On ch=2 n=a#3 v=0
94272 On ch=1 n=d#5 v=118
94272 On ch=1 n=a#5 v=118
94272 On ch=1 n=c6 v=118
94272 On ch=1 n=d#6 v=118
94272 On ch=2 n=f#2 v=114
94272 On ch=2 n=f#3 v=114
94366 On ch=2 n=f#2 v=0
94366 On ch=2 n=f#3 v=0
94416 On ch=2 n=f#2 v=117
94416 On ch=2 n=f#3 v=117
94462 On ch=2 n=f#2 v=0
94462 On ch=2 n=f#3 v=0
94464 On ch=2 n=g#2 v=127
94464 On ch=2 n=g#3 v=127
94608 On ch=1 n=d#5 v=0
94608 On ch=1 n=a#5 v=0
94608 On ch=1 n=c6 v=0
94608 On ch=1 n=d#6 v=0
94624 On ch=2 n=g#2 v=0
94624 On ch=2 n=g#3 v=0
94656 On ch=1 n=f5 v=124
94656 On ch=1 n=a#5 v=124
94656 On ch=1 n=d6 v=124
94656 On ch=1 n=f6 v=124
94656 On ch=2 n=f2 v=122
94656 On ch=2 n=f3 v=122
94750 On ch=2 n=f2 v=0
94750 On ch=2 n=f3 v=0
94800 On ch=2 n=f3 v=125
94816 On ch=1 n=f5 v=0
94816 On ch=1 n=a#5 v=0
94816 On ch=1 n=d6 v=0
94816 On ch=1 n=f6 v=0
94846 On ch=2 n=f3 v=0
94848 On ch=1 n=f#5 v=127
94848 On ch=1 n=a#5 v=127
94848 On ch=1 n=d#6 v=127
94848 On ch=1 n=f#6 v=127
94848 On ch=2 n=a#2 v=127
94848 On ch=2 n=a#3 v=127
95008 On ch=1 n=f#5 v=0
95008 On ch=1 n=a#5 v=0
95008 On ch=1 n=d#6 v=0
95008 On ch=1 n=f#6 v=0
95008 On ch=2 n=a#2 v=0
95008 On ch=2 n=a#3 v=0
95040 On ch=1 n=g#5 v=127
95040 On ch=1 n=a#5 v=127
95040 On ch=1 n=f6 v=127
95040 On ch=1 n=g#6 v=127
95040 On ch=2 n=d#2 v=127
95040 On ch=2 n=d#3 v=127
95134 On ch=2 n=d#2 v=0
95134 On ch=2 n=d#3 v=0
95184 On ch=2 n=d#2 v=127
95184 On ch=2 n=d#3 v=127
95230 On ch=2 n=d#2 v=0
95230 On ch=2 n=d#3 v=0
95232 On ch=2 n=f2 v=127
95232 On ch=2 n=f3 v=127
95376 On ch=1 n=g#5 v=0
95376 On ch=1 n=a#5 v=0
95376 On ch=1 n=f6 v=0
95376 On ch=1 n=g#6 v=0
95392 On ch=2 n=f2 v=0
95392 On ch=2 n=f3 v=0
95424 On ch=1 n=a5 v=127
95424 On ch=1 n=d#6 v=127
95424 On ch=1 n=f6 v=127
95424 On ch=1 n=a6 v=127
95424 On ch=2 n=c2 v=127
95424 On ch=2 n=c3 v=127
95518 On ch=2 n=c2 v=0
95518 On ch=2 n=c3 v=0
95568 On ch=2 n=c3 v=127
95584 On ch=1 n=a5 v=0
95584 On ch=1 n=d#6 v=0
95584 On ch=1 n=f6 v=0
95584 On ch=1 n=a6 v=0
95614 On ch=2 n=c3 v=0
95616 On ch=1 n=a#5 v=127
95616 On ch=1 n=d6 v=127
95616 On ch=1 n=f6 v=127
95616 On ch=1 n=a#6 v=127
95616 On ch=2 n=a#2 v=127
95616 On ch=2 n=a#3 v=127
95776 On ch=1 n=a#5 v=0
95776 On ch=1 n=d6 v=0
95776 On ch=1 n=f6 v=0
95776 On ch=1 n=a#6 v=0
95776 On ch=2 n=a#2 v=0
95776 On ch=2 n=a#3 v=0
95808 On ch=1 n=a#4 v=127
95808 On ch=2 n=a#2 v=127
95870 On ch=1 n=a#4 v=0
95870 On ch=2 n=a#2 v=0
95872 On ch=1 n=d#4 v=127
95872 On ch=2 n=d#2 v=127
95934 On ch=1 n=d#4 v=0
95934 On ch=2 n=d#2 v=0
95936 On ch=1 n=a#4 v=127
95936 On ch=2 n=a#2 v=127
95998 On ch=1 n=a#4 v=0
95998 On ch=2 n=a#2 v=0
96000 On ch=1 n=d#4 v=127
96000 On ch=2 n=d#2 v=127
96000 On ch=2 n=d#3 v=127
96126 On ch=1 n=d#4 v=0
96126 On ch=2 n=d#2 v=0
96126 On ch=2 n=d#3 v=0
96128 On ch=1 n=d#5 v=127
96128 On ch=1 n=g5 v=127
96128 On ch=1 n=c6 v=127
96128 On ch=2 n=c4 v=127
96128 On ch=2 n=d#4 v=127
96128 On ch=2 n=g4 v=127
96128 On ch=2 n=c5 v=127
96190 On ch=1 n=d#5 v=0
96190 On ch=1 n=g5 v=0
96190 On ch=1 n=c6 v=0
96190 On ch=2 n=c4 v=0
96190 On ch=2 n=d#4 v=0
96190 On ch=2 n=g4 v=0
96190 On ch=2 n=c5 v=0
96192 On ch=1 n=d#5 v=127
96192 On ch=1 n=g5 v=127
96192 On ch=1 n=a#5 v=127
96192 On ch=2 n=a#3 v=127
96192 On ch=2 n=d#4 v=127
96192 On ch=2 n=g4 v=127
96192 On ch=2 n=a#4 v=127
96510 On ch=1 n=d#5 v=0
96510 On ch=1 n=g5 v=0
96510 On ch=1 n=a#5 v=0
96510 On ch=2 n=a#3 v=0
96510 On ch=2 n=d#4 v=0
96510 On ch=2 n=g4 v=0
96510 On ch=2 n=a#4 v=0
96512 On ch=1 n=g#4 v=127
96512 On ch=1 n=d#5 v=127
96512 On ch=1 n=f5 v=127
96512 On ch=2 n=c4 v=127
96574 On ch=1 n=g#4 v=0
96574 On ch=1 n=d#5 v=0
96574 On ch=1 n=f5 v=0
96574 On ch=2 n=c4 v=0
96576 On ch=1 n=g4 v=127
96576 On ch=1 n=d#5 v=127
96576 On ch=1 n=g5 v=127
96576 On ch=2 n=a#3 v=127
96702 On ch=1 n=g4 v=0
96702 On ch=1 n=d#5 v=0
96702 On ch=1 n=g5 v=0
96702 On ch=2 n=a#3 v=0
96704 On ch=1 n=f4 v=127
96704 On ch=1 n=g#4 v=127
96704 On ch=1 n=d5 v=127
96704 On ch=2 n=a#2 v=127
96704 On ch=2 n=a#3 v=127
96766 On ch=1 n=f4 v=0
96766 On ch=1 n=g#4 v=0
96766 On ch=1 n=d5 v=0
96766 On ch=2 n=a#2 v=0
96766 On ch=2 n=a#3 v=0
96768 On ch=1 n=g4 v=127
96768 On ch=1 n=a#4 v=127
96768 On ch=1 n=d#5 v=127
96768 On ch=2 n=d#3 v=127
96768 On ch=2 n=a#3 v=127
96830 On ch=1 n=g4 v=0
96830 On ch=1 n=a#4 v=0
96830 On ch=1 n=d#5 v=0
96830 On ch=2 n=d#3 v=0
96830 On ch=2 n=a#3 v=0
96896 On ch=1 n=g4 v=92
96896 On ch=1 n=d5 v=92
96896 On ch=1 n=d#5 v=92
96896 On ch=2 n=d4 v=92
96938 On ch=1 n=g4 v=0
96938 On ch=1 n=d5 v=0
96938 On ch=1 n=d#5 v=0
96938 On ch=2 n=d4 v=0
96960 On ch=1 n=g4 v=92
96960 On ch=1 n=d5 v=92
96960 On ch=1 n=d#5 v=92
96960 On ch=2 n=d4 v=92
97002 On ch=1 n=g4 v=0
97002 On ch=1 n=d5 v=0
97002 On ch=1 n=d#5 v=0
97002 On ch=2 n=d4 v=0
97024 On ch=2 n=d#3 v=92
97066 On ch=2 n=d#3 v=0
97088 On ch=1 n=g4 v=92
97088 On ch=1 n=c#5 v=92
97088 On ch=1 n=d#5 v=92
97088 On ch=2 n=c#4 v=92
97130 On ch=1 n=g4 v=0
97130 On ch=1 n=c#5 v=0
97130 On ch=1 n=d#5 v=0
97130 On ch=2 n=c#4 v=0
97152 On ch=1 n=g4 v=92
97152 On ch=1 n=c#5 v=92
97152 On ch=1 n=d#5 v=92
97152 On ch=2 n=c#4 v=92
97194 On ch=1 n=g4 v=0
97194 On ch=1 n=c#5 v=0
97194 On ch=1 n=d#5 v=0
97194 On ch=2 n=c#4 v=0
97216 On ch=2 n=d#3 v=92
97258 On ch=2 n=d#3 v=0
97280 On ch=1 n=g4 v=92
97280 On ch=1 n=c5 v=92
97280 On ch=1 n=d#5 v=92
97280 On ch=2 n=c4 v=92
97322 On ch=1 n=g4 v=0
97322 On ch=1 n=c5 v=0
97322 On ch=1 n=d#5 v=0
97322 On ch=2 n=c4 v=0
97344 On ch=1 n=g4 v=92
97344 On ch=1 n=c5 v=92
97344 On ch=1 n=d#5 v=92
97344 On ch=2 n=c4 v=92
97386 On ch=1 n=g4 v=0
97386 On ch=1 n=c5 v=0
97386 On ch=1 n=d#5 v=0
97386 On ch=2 n=c4 v=0
97408 On ch=2 n=d#3 v=92
97450 On ch=2 n=d#3 v=0
97472 On ch=1 n=g4 v=127
97472 On ch=1 n=b4 v=127
97472 On ch=1 n=d#5 v=127
97472 On ch=1 n=g5 v=127
97472 On ch=2 n=b3 v=92
97514 On ch=2 n=b3 v=0
97534 On ch=1 n=g4 v=0
97534 On ch=1 n=b4 v=0
97534 On ch=1 n=d#5 v=0
97534 On ch=1 n=g5 v=0
97536 On ch=1 n=g4 v=127
97536 On ch=1 n=a#4 v=127
97536 On ch=1 n=d#5 v=127
97536 On ch=2 n=d#3 v=127
97536 On ch=2 n=a#3 v=127
97598 On ch=1 n=g4 v=0
97598 On ch=1 n=a#4 v=0
97598 On ch=1 n=d#5 v=0
97598 On ch=2 n=d#3 v=0
97598 On ch=2 n=a#3 v=0
97664 On ch=1 n=g4 v=92
97664 On ch=1 n=d5 v=92
97664 On ch=1 n=d#5 v=92
97664 On ch=2 n=d4 v=92
97706 On ch=1 n=g4 v=0
97706 On ch=1 n=d5 v=0
97706 On ch=1 n=d#5 v=0
97706 On ch=2 n=d4 v=0
97728 On ch=1 n=g4 v=92
97728 On ch=1 n=d5 v=92
97728 On ch=1 n=d#5 v=92
97728 On ch=2 n=d4 v=92
97770 On ch=1 n=g4 v=0
97770 On ch=1 n=d5 v=0
97770 On ch=1 n=d#5 v=0
97770 On ch=2 n=d4 v=0
97792 On ch=2 n=d#3 v=92
97834 On ch=2 n=d#3 v=0
97856 On ch=1 n=g4 v=92
97856 On ch=1 n=c#5 v=92
97856 On ch=1 n=d#5 v=92
97856 On ch=2 n=c#4 v=92
97898 On ch=1 n=g4 v=0
97898 On ch=1 n=c#5 v=0
97898 On ch=1 n=d#5 v=0
97898 On ch=2 n=c#4 v=0
97920 On ch=1 n=g4 v=92
97920 On ch=1 n=c#5 v=92
97920 On ch=1 n=d#5 v=92
97920 On ch=2 n=c#4 v=92
97962 On ch=1 n=g4 v=0
97962 On ch=1 n=c#5 v=0
97962 On ch=1 n=d#5 v=0
97962 On ch=2 n=c#4 v=0
97984 On ch=2 n=d#3 v=92
98026 On ch=2 n=d#3 v=0
98048 On ch=1 n=g4 v=92
98048 On ch=1 n=c5 v=92
98048 On ch=1 n=d#5 v=92
98048 On ch=2 n=c4 v=92
98090 On ch=1 n=g4 v=0
98090 On ch=1 n=c5 v=0
98090 On ch=1 n=d#5 v=0
98090 On ch=2 n=c4 v=0
98112 On ch=1 n=g4 v=92
98112 On ch=1 n=c5 v=92
98112 On ch=1 n=d#5 v=92
98112 On ch=2 n=c4 v=92
98154 On ch=1 n=g4 v=0
98154 On ch=1 n=c5 v=0
98154 On ch=1 n=d#5 v=0
98154 On ch=2 n=c4 v=0
98176 On ch=2 n=d#3 v=92
98218 On ch=2 n=d#3 v=0
98240 On ch=1 n=g4 v=127
98240 On ch=1 n=b4 v=127
98240 On ch=1 n=d#5 v=127
98240 On ch=1 n=g5 v=127
98240 On ch=2 n=b3 v=92
98282 On ch=2 n=b3 v=0
98302 On ch=1 n=g4 v=0
98302 On ch=1 n=b4 v=0
98302 On ch=1 n=d#5 v=0
98302 On ch=1 n=g5 v=0
98304 On ch=1 n=g4 v=127
98304 On ch=1 n=a#4 v=127
98304 On ch=1 n=d#5 v=127
98304 On ch=2 n=a#3 v=127
98366 On ch=1 n=g4 v=0
98366 On ch=1 n=a#4 v=0
98366 On ch=1 n=d#5 v=0
98366 On ch=2 n=a#3 v=0
98368 On ch=2 n=d#3 v=92
98410 On ch=2 n=d#3 v=0
98432 On ch=1 n=c5 v=92
98432 On ch=1 n=e5 v=92
98432 On ch=1 n=g#5 v=92
98432 On ch=2 n=e4 v=92
98432 On ch=2 n=g#4 v=92
98474 On ch=2 n=e4 v=0
98474 On ch=2 n=g#4 v=0
98494 On ch=1 n=c5 v=0
98494 On ch=1 n=e5 v=0
98494 On ch=1 n=g#5 v=0
98496 On ch=1 n=c5 v=92
98496 On ch=1 n=e5 v=92
98496 On ch=1 n=g#5 v=92
98496 On ch=2 n=e4 v=92
98496 On ch=2 n=g#4 v=92
98538 On ch=2 n=e4 v=0
98538 On ch=2 n=g#4 v=0
98558 On ch=1 n=c5 v=0
98558 On ch=1 n=e5 v=0
98558 On ch=1 n=g#5 v=0
98560 On ch=2 n=d#3 v=92
98602 On ch=2 n=d#3 v=0
98624 On ch=1 n=b4 v=92
98624 On ch=1 n=d#5 v=92
98624 On ch=1 n=g#5 v=92
98624 On ch=2 n=d#4 v=92
98624 On ch=2 n=g#4 v=92
98666 On ch=2 n=d#4 v=0
98666 On ch=2 n=g#4 v=0
98686 On ch=1 n=b4 v=0
98686 On ch=1 n=d#5 v=0
98686 On ch=1 n=g#5 v=0
98688 On ch=1 n=b4 v=92
98688 On ch=1 n=d#5 v=92
98688 On ch=1 n=g#5 v=92
98688 On ch=2 n=d#4 v=92
98688 On ch=2 n=g#4 v=92
98730 On ch=2 n=d#4 v=0
98730 On ch=2 n=g#4 v=0
98750 On ch=1 n=b4 v=0
98750 On ch=1 n=d#5 v=0
98750 On ch=1 n=g#5 v=0
98752 On ch=2 n=d#3 v=92
98794 On ch=2 n=d#3 v=0
98816 On ch=1 n=a#4 v=92
98816 On ch=1 n=d5 v=92
98816 On ch=1 n=g#5 v=92
98816 On ch=2 n=d4 v=92
98816 On ch=2 n=g#4 v=92
98858 On ch=2 n=d4 v=0
98858 On ch=2 n=g#4 v=0
98878 On ch=1 n=a#4 v=0
98878 On ch=1 n=d5 v=0
98878 On ch=1 n=g#5 v=0
98880 On ch=1 n=a#4 v=92
98880 On ch=1 n=d5 v=92
98880 On ch=1 n=g#5 v=92
98880 On ch=2 n=d4 v=92
98880 On ch=2 n=g#4 v=92
98922 On ch=2 n=d4 v=0
98922 On ch=2 n=g#4 v=0
98942 On ch=1 n=a#4 v=0
98942 On ch=1 n=d5 v=0
98942 On ch=1 n=g#5 v=0
98944 On ch=2 n=d#3 v=92
98986 On ch=2 n=d#3 v=0
99008 On ch=1 n=b4 v=92
99008 On ch=1 n=d5 v=92
99008 On ch=1 n=f#5 v=92
99008 On ch=1 n=b5 v=92
99008 On ch=2 n=d4 v=127
99008 On ch=2 n=f#4 v=127
99070 On ch=1 n=b4 v=0
99070 On ch=1 n=d5 v=0
99070 On ch=1 n=f#5 v=0
99070 On ch=1 n=b5 v=0
99070 On ch=2 n=d4 v=0
99070 On ch=2 n=f#4 v=0
99072 On ch=1 n=a#4 v=127
99072 On ch=1 n=d#5 v=127
99072 On ch=1 n=g5 v=127
99072 On ch=2 n=d#4 v=127
99072 On ch=2 n=g4 v=127
99198 On ch=2 n=d#4 v=0
99198 On ch=2 n=g4 v=0
99200 On ch=2 n=a#3 v=92
99232 On ch=1 n=a#4 v=0
99232 On ch=1 n=d#5 v=0
99232 On ch=1 n=g5 v=0
99262 On ch=2 n=a#3 v=0
99264 On ch=1 n=f5 v=92
99264 On ch=1 n=f#5 v=127
99264 On ch=2 n=f#4 v=127
99264 On ch=2 n=b4 v=127
99310 On ch=1 n=f#5 v=0
99312 On ch=1 n=d5 v=92
99358 On ch=1 n=d5 v=0
99360 On ch=1 n=d#5 v=92
99406 On ch=1 n=d#5 v=0
99408 On ch=1 n=b5 v=92
99424 On ch=1 n=f5 v=0
99424 On ch=2 n=f#4 v=0
99424 On ch=2 n=b4 v=0
99454 On ch=1 n=b5 v=0
99456 On ch=1 n=d#5 v=92
99456 On ch=1 n=g5 v=92
99456 On ch=2 n=g4 v=95
99456 On ch=2 n=a#4 v=95
99616 On ch=1 n=d#5 v=0
99616 On ch=1 n=g5 v=0
99616 On ch=2 n=g4 v=0
99616 On ch=2 n=a#4 v=0
99648 On ch=1 n=a5 v=96
99648 On ch=1 n=a5 v=96
99648 On ch=2 n=d#4 v=98
99694 On ch=1 n=a5 v=0
99696 On ch=1 n=f5 v=97
99710 On ch=2 n=d#4 v=0
99712 On ch=2 n=a4 v=99
99712 On ch=2 n=d#5 v=99
99742 On ch=1 n=f5 v=0
99744 On ch=1 n=f#5 v=98
99790 On ch=1 n=f#5 v=0
99792 On ch=1 n=d#6 v=99
99808 On ch=1 n=a5 v=0
99838 On ch=2 n=a4 v=0
99838 On ch=1 n=d#6 v=0
99840 On ch=1 n=a#5 v=100
99840 On ch=2 n=a#4 v=101
99840 On ch=1 n=g5 v=100
100000 On ch=1 n=g5 v=0
100000 On ch=1 n=a#5 v=0
100000 On ch=2 n=a#4 v=0
100000 On ch=2 n=e5 v=0
100032 On ch=1 n=d6 v=104
100032 On ch=1 n=d6 v=127
100032 On ch=2 n=g4 v=104
100078 On ch=1 n=d6 v=0
100080 On ch=1 n=g5 v=105
100094 On ch=2 n=g4 v=0
100096 On ch=2 n=d5 v=127
100096 On ch=2 n=g5 v=127
100126 On ch=1 n=g5 v=0
100128 On ch=1 n=a#5 v=106
100174 On ch=1 n=a#5 v=0
100176 On ch=1 n=g6 v=107
100192 On ch=1 n=d6 v=0
100222 On ch=1 n=g6 v=0
100222 On ch=2 n=d5 v=0
100224 On ch=1 n=a#5 v=108
100224 On ch=1 n=d#6 v=108
100224 On ch=2 n=d#5 v=108
100350 On ch=1 n=a#5 v=0
100350 On ch=1 n=d#6 v=0
100350 On ch=2 n=d#5 v=0
100350 On ch=2 n=g5 v=0
100352 On ch=1 n=g5 v=108
100352 On ch=1 n=a#5 v=108
100352 On ch=1 n=d#6 v=108
100352 On ch=1 n=g6 v=108
100352 On ch=2 n=g4 v=108
100352 On ch=2 n=a#4 v=108
100352 On ch=2 n=d#5 v=108
100352 On ch=2 n=g5 v=108
100414 On ch=1 n=g5 v=0
100414 On ch=1 n=a#5 v=0
100414 On ch=1 n=d#6 v=0
100414 On ch=1 n=g6 v=0
100414 On ch=2 n=g4 v=0
100414 On ch=2 n=a#4 v=0
100414 On ch=2 n=d#5 v=0
100414 On ch=2 n=g5 v=0
100416 On ch=1 n=g5 v=108
100416 On ch=1 n=a#5 v=108
100416 On ch=1 n=d6 v=108
100416 On ch=1 n=f6 v=108
100416 On ch=2 n=g4 v=127
100416 On ch=2 n=a#4 v=127
100416 On ch=2 n=d5 v=127
100416 On ch=2 n=f5 v=127
100542 On ch=1 n=g5 v=0
100542 On ch=1 n=a#5 v=0
100542 On ch=1 n=d6 v=0
100542 On ch=1 n=f6 v=0
100542 On ch=2 n=g4 v=0
100542 On ch=2 n=a#4 v=0
100542 On ch=2 n=d5 v=0
100542 On ch=2 n=f5 v=0
100544 On ch=1 n=g4 v=108
100544 On ch=1 n=a#4 v=108
100544 On ch=1 n=d5 v=108
100544 On ch=1 n=f5 v=108
100544 On ch=2 n=d4 v=108
100544 On ch=2 n=f4 v=108
100606 On ch=1 n=g4 v=0
100606 On ch=1 n=a#4 v=0
100606 On ch=1 n=d5 v=0
100606 On ch=1 n=f5 v=0
100606 On ch=2 n=d4 v=0
100606 On ch=2 n=f4 v=0
100608 On ch=1 n=g4 v=108
100608 On ch=1 n=b4 v=108
100608 On ch=1 n=d#5 v=108
100608 On ch=1 n=g5 v=108
100608 On ch=2 n=d#3 v=108
100608 On ch=2 n=c4 v=108
100608 On ch=2 n=d#4 v=108
100736 On ch=1 n=b5 v=108
100736 On ch=1 n=d#6 v=108
100736 On ch=1 n=g6 v=108
100736 On ch=2 n=c5 v=108
100736 On ch=2 n=d#5 v=108
100736 On ch=2 n=g5 v=108
100798 On ch=1 n=b5 v=0
100798 On ch=1 n=d#6 v=0
100798 On ch=1 n=g6 v=0
100798 On ch=2 n=c5 v=0
100798 On ch=2 n=d#5 v=0
100798 On ch=2 n=g5 v=0
100800 On ch=1 n=b5 v=108
100800 On ch=1 n=d#6 v=108
100800 On ch=1 n=g6 v=108
100800 On ch=1 n=b6 v=108
100800 On ch=2 n=g4 v=108
100800 On ch=2 n=c5 v=108
100800 On ch=2 n=d#5 v=108
100800 On ch=2 n=g5 v=108
100944 On ch=1 n=g4 v=0
100944 On ch=1 n=b4 v=0
100944 On ch=1 n=d#5 v=0
100944 On ch=1 n=g5 v=0
100944 On ch=2 n=d#3 v=0
100944 On ch=2 n=c4 v=0
100944 On ch=2 n=d#4 v=0
101118 On ch=1 n=b5 v=0
101118 On ch=1 n=d#6 v=0
101118 On ch=1 n=g6 v=0
101118 On ch=1 n=b6 v=0
101118 On ch=2 n=g4 v=0
101118 On ch=2 n=c5 v=0
101118 On ch=2 n=d#5 v=0
101118 On ch=2 n=g5 v=0
101120 On ch=1 n=g5 v=108
101120 On ch=1 n=b5 v=108
101120 On ch=1 n=d#6 v=108
101120 On ch=2 n=g4 v=108
101120 On ch=2 n=c5 v=108
101120 On ch=2 n=d#5 v=108
101182 On ch=1 n=g5 v=0
101182 On ch=1 n=b5 v=0
101182 On ch=1 n=d#6 v=0
101182 On ch=2 n=g4 v=0
101182 On ch=2 n=c5 v=0
101182 On ch=2 n=d#5 v=0
101184 On ch=1 n=g5 v=127
101184 On ch=1 n=a#5 v=127
101184 On ch=1 n=d6 v=127
101184 On ch=2 n=f4 v=108
101184 On ch=2 n=g4 v=108
101184 On ch=2 n=a#4 v=108
101184 On ch=2 n=d5 v=108
101310 On ch=1 n=g5 v=0
101310 On ch=1 n=a#5 v=0
101310 On ch=1 n=d6 v=0
101310 On ch=2 n=f4 v=0
101310 On ch=2 n=g4 v=0
101310 On ch=2 n=a#4 v=0
101310 On ch=2 n=d5 v=0
101312 On ch=1 n=g4 v=108
101312 On ch=1 n=a#4 v=108
101312 On ch=1 n=d5 v=108
101312 On ch=2 n=d4 v=108
101374 On ch=1 n=g4 v=0
101374 On ch=1 n=a#4 v=0
101374 On ch=1 n=d5 v=0
101374 On ch=2 n=d4 v=0
101376 On ch=1 n=g4 v=108
101376 On ch=1 n=c5 v=108
101376 On ch=1 n=d#5 v=108
101376 On ch=2 n=d#3 v=108
101376 On ch=2 n=c4 v=108
101504 On ch=1 n=g5 v=108
101504 On ch=1 n=c6 v=108
101504 On ch=1 n=d#6 v=108
101504 On ch=2 n=g4 v=108
101504 On ch=2 n=c5 v=108
101504 On ch=2 n=d#5 v=108
101566 On ch=1 n=g5 v=0
101566 On ch=1 n=c6 v=0
101566 On ch=1 n=d#6 v=0
101566 On ch=2 n=g4 v=0
101566 On ch=2 n=c5 v=0
101566 On ch=2 n=d#5 v=0
101568 On ch=1 n=g5 v=108
101568 On ch=1 n=c6 v=108
101568 On ch=1 n=d#6 v=108
101568 On ch=1 n=g6 v=108
101568 On ch=2 n=d#4 v=108
101568 On ch=2 n=g4 v=108
101568 On ch=2 n=c5 v=108
101568 On ch=2 n=d#5 v=108
101712 On ch=1 n=g4 v=0
101712 On ch=1 n=c5 v=0
101712 On ch=1 n=d#5 v=0
101712 On ch=2 n=d#3 v=0
101712 On ch=2 n=c4 v=0
101886 On ch=1 n=g5 v=0
101886 On ch=1 n=c6 v=0
101886 On ch=1 n=d#6 v=0
101886 On ch=1 n=g6 v=0
101886 On ch=2 n=d#4 v=0
101886 On ch=2 n=g4 v=0
101886 On ch=2 n=c5 v=0
101886 On ch=2 n=d#5 v=0
101888 On ch=1 n=d#5 v=108
101888 On ch=1 n=g5 v=108
101888 On ch=1 n=c6 v=108
101888 On ch=2 n=d#4 v=108
101888 On ch=2 n=g4 v=108
101888 On ch=2 n=c5 v=108
101950 On ch=1 n=d#5 v=0
101950 On ch=1 n=g5 v=0
101950 On ch=1 n=c6 v=0
101950 On ch=2 n=d#4 v=0
101950 On ch=2 n=g4 v=0
101950 On ch=2 n=c5 v=0
101952 On ch=1 n=d#5 v=127
101952 On ch=1 n=g5 v=127
101952 On ch=1 n=a#5 v=127
101952 On ch=2 n=d4 v=108
101952 On ch=2 n=g4 v=108
101952 On ch=2 n=a#4 v=108
102078 On ch=1 n=d#5 v=0
102078 On ch=1 n=g5 v=0
102078 On ch=1 n=a#5 v=0
102078 On ch=2 n=d4 v=0
102078 On ch=2 n=g4 v=0
102078 On ch=2 n=a#4 v=0
102080 On ch=1 n=d#4 v=108
102080 On ch=1 n=g4 v=108
102080 On ch=1 n=a#4 v=108
102080 On ch=2 n=a#3 v=108
102080 On ch=2 n=d4 v=108
102142 On ch=1 n=d#4 v=0
102142 On ch=1 n=g4 v=0
102142 On ch=1 n=a#4 v=0
102142 On ch=2 n=a#3 v=0
102142 On ch=2 n=d4 v=0
102144 On ch=1 n=d#4 v=127
102144 On ch=1 n=g4 v=127
102144 On ch=1 n=c5 v=127
102144 On ch=2 n=d#3 v=108
102144 On ch=2 n=g3 v=108
102144 On ch=2 n=c4 v=108
102270 On ch=1 n=d#4 v=0
102270 On ch=1 n=g4 v=0
102270 On ch=1 n=c5 v=0
102270 On ch=2 n=d#3 v=0
102270 On ch=2 n=g3 v=0
102270 On ch=2 n=c4 v=0
102272 On ch=1 n=d#5 v=108
102272 On ch=1 n=g5 v=108
102272 On ch=1 n=c6 v=108
102272 On ch=2 n=d#4 v=108
102272 On ch=2 n=g4 v=108
102272 On ch=2 n=c5 v=108
102334 On ch=1 n=d#5 v=0
102334 On ch=1 n=g5 v=0
102334 On ch=1 n=c6 v=0
102334 On ch=2 n=d#4 v=0
102334 On ch=2 n=g4 v=0
102334 On ch=2 n=c5 v=0
102336 On ch=1 n=d#5 v=108
102336 On ch=1 n=g5 v=108
102336 On ch=1 n=a#5 v=108
102336 On ch=1 n=d#6 v=108
102336 On ch=2 n=a#3 v=108
102336 On ch=2 n=d#4 v=108
102336 On ch=2 n=g4 v=108
102336 On ch=2 n=a#4 v=108
102384 On ch=1 n=d#5 v=0
102384 On ch=1 n=g5 v=0
102384 On ch=1 n=a#5 v=0
102384 On ch=1 n=d#6 v=0
102384 On ch=2 n=a#3 v=0
102384 On ch=2 n=d#4 v=0
102384 On ch=2 n=g4 v=0
102384 On ch=2 n=a#4 v=0
102528 On ch=1 n=d#5 v=108
102528 On ch=1 n=g#5 v=108
102528 On ch=1 n=c6 v=108
102528 On ch=1 n=d#6 v=108
102528 On ch=2 n=g#3 v=108
102528 On ch=2 n=c4 v=108
102528 On ch=2 n=d#4 v=108
102528 On ch=2 n=g#4 v=108
102576 On ch=1 n=d#5 v=0
102576 On ch=1 n=g#5 v=0
102576 On ch=1 n=c6 v=0
102576 On ch=1 n=d#6 v=0
102576 On ch=2 n=g#3 v=0
102576 On ch=2 n=c4 v=0
102576 On ch=2 n=d#4 v=0
102576 On ch=2 n=g#4 v=0
102720 On ch=1 n=d#5 v=108
102720 On ch=1 n=a#5 v=108
102720 On ch=1 n=d#6 v=108
102720 On ch=2 n=g3 v=108
102720 On ch=2 n=a#3 v=108
102720 On ch=2 n=d#4 v=108
102720 On ch=2 n=g4 v=108
102768 On ch=1 n=d#5 v=0
102768 On ch=1 n=a#5 v=0
102768 On ch=1 n=d#6 v=0
102768 On ch=2 n=g3 v=0
102768 On ch=2 n=a#3 v=0
102768 On ch=2 n=d#4 v=0
102768 On ch=2 n=g4 v=0
102912 On ch=1 n=b3 v=108
102912 On ch=2 n=d#2 v=108
102912 On ch=2 n=d#3 v=108
103040 On ch=1 n=g#5 v=108
103040 On ch=1 n=b5 v=108
103040 On ch=1 n=d6 v=108
103040 On ch=2 n=f4 v=108
103040 On ch=2 n=g#4 v=108
103040 On ch=2 n=c5 v=108
103040 On ch=2 n=f5 v=108
103102 On ch=1 n=g#5 v=0
103102 On ch=1 n=b5 v=0
103102 On ch=1 n=d6 v=0
103102 On ch=2 n=f4 v=0
103102 On ch=2 n=g#4 v=0
103102 On ch=2 n=c5 v=0
103102 On ch=2 n=f5 v=0
103104 On ch=1 n=g#5 v=108
103104 On ch=1 n=b5 v=108
103104 On ch=1 n=d#6 v=108
103104 On ch=2 n=d#4 v=108
103104 On ch=2 n=g#4 v=108
103104 On ch=2 n=c5 v=108
103104 On ch=2 n=d#5 v=108
103264 On ch=1 n=b5 v=0
103296 On ch=1 n=b5 v=108
103422 On ch=1 n=g#5 v=0
103422 On ch=1 n=b5 v=0
103422 On ch=1 n=d#6 v=0
103422 On ch=2 n=d#4 v=0
103422 On ch=2 n=g#4 v=0
103422 On ch=2 n=c5 v=0
103422 On ch=2 n=d#5 v=0
103424 On ch=1 n=c#5 v=108
103424 On ch=1 n=g#5 v=108
103424 On ch=1 n=a#5 v=108
103424 On ch=2 n=f4 v=108
103486 On ch=1 n=c#5 v=0
103486 On ch=1 n=g#5 v=0
103486 On ch=1 n=a#5 v=0
103486 On ch=2 n=f4 v=0
103488 On ch=1 n=b4 v=106
103488 On ch=1 n=g#5 v=106
103488 On ch=1 n=b5 v=106
103488 On ch=2 n=d#4 v=106
103614 On ch=1 n=b4 v=0
103614 On ch=1 n=g#5 v=0
103614 On ch=1 n=b5 v=0
103614 On ch=2 n=d#4 v=0
103616 On ch=1 n=a#4 v=101
103616 On ch=1 n=c#5 v=101
103616 On ch=1 n=g5 v=101
103616 On ch=2 n=d#3 v=101
103616 On ch=2 n=d#4 v=101
103632 On ch=1 n=b3 v=0
103632 On ch=2 n=d#2 v=0
103632 On ch=2 n=d#3 v=0
103678 On ch=1 n=a#4 v=0
103678 On ch=1 n=c#5 v=0
103678 On ch=1 n=g5 v=0
103678 On ch=2 n=d#3 v=0
103678 On ch=2 n=d#4 v=0
103680 On ch=1 n=c5 v=98
103680 On ch=1 n=d#5 v=98
103680 On ch=1 n=g#5 v=98
103680 On ch=2 n=g#3 v=127
103680 On ch=2 n=d#4 v=127
103742 On ch=1 n=c5 v=0
103742 On ch=1 n=d#5 v=0
103742 On ch=1 n=g#5 v=0
103742 On ch=2 n=g#3 v=0
103742 On ch=2 n=d#4 v=0
103808 On ch=1 n=c5 v=92
103808 On ch=1 n=g5 v=92
103808 On ch=1 n=g#5 v=92
103808 On ch=2 n=g4 v=92
103870 On ch=1 n=c5 v=0
103870 On ch=1 n=g5 v=0
103870 On ch=1 n=g#5 v=0
103870 On ch=2 n=g4 v=0
103872 On ch=1 n=c5 v=92
103872 On ch=1 n=g5 v=92
103872 On ch=1 n=g#5 v=92
103872 On ch=2 n=g4 v=92
103914 On ch=2 n=g4 v=0
103934 On ch=1 n=c5 v=0
103934 On ch=1 n=g5 v=0
103934 On ch=1 n=g#5 v=0
103936 On ch=2 n=d#3 v=92
103998 On ch=2 n=d#3 v=0
104000 On ch=1 n=c5 v=92
104000 On ch=1 n=f#5 v=92
104000 On ch=1 n=g#5 v=92
104000 On ch=2 n=f#4 v=92
104062 On ch=1 n=c5 v=0
104062 On ch=1 n=f#5 v=0
104062 On ch=1 n=g#5 v=0
104062 On ch=2 n=f#4 v=0
104064 On ch=1 n=c5 v=92
104064 On ch=1 n=f#5 v=92
104064 On ch=1 n=g#5 v=92
104064 On ch=2 n=f#4 v=92
104106 On ch=2 n=f#4 v=0
104126 On ch=1 n=c5 v=0
104126 On ch=1 n=f#5 v=0
104126 On ch=1 n=g#5 v=0
104128 On ch=2 n=d#3 v=92
104190 On ch=2 n=d#3 v=0
104192 On ch=1 n=c5 v=92
104192 On ch=1 n=f5 v=92
104192 On ch=1 n=g#5 v=92
104192 On ch=2 n=f4 v=92
104254 On ch=1 n=c5 v=0
104254 On ch=1 n=f5 v=0
104254 On ch=1 n=g#5 v=0
104254 On ch=2 n=f4 v=0
104256 On ch=1 n=c5 v=92
104256 On ch=1 n=f5 v=92
104256 On ch=1 n=g#5 v=92
104256 On ch=2 n=f4 v=92
104298 On ch=2 n=f4 v=0
104318 On ch=1 n=c5 v=0
104318 On ch=1 n=f5 v=0
104318 On ch=1 n=g#5 v=0
104320 On ch=2 n=d#3 v=92
104382 On ch=2 n=d#3 v=0
104384 On ch=1 n=c5 v=127
104384 On ch=1 n=e5 v=127
104384 On ch=1 n=g#5 v=127
104384 On ch=1 n=c6 v=127
104384 On ch=2 n=e4 v=127
104446 On ch=1 n=c5 v=0
104446 On ch=1 n=e5 v=0
104446 On ch=1 n=g#5 v=0
104446 On ch=1 n=c6 v=0
104446 On ch=2 n=e4 v=0
104448 On ch=1 n=c5 v=127
104448 On ch=1 n=d#5 v=127
104448 On ch=1 n=g#5 v=127
104448 On ch=2 n=d#4 v=92
104510 On ch=1 n=c5 v=0
104510 On ch=1 n=d#5 v=0
104510 On ch=1 n=g#5 v=0
104510 On ch=2 n=d#4 v=0
104512 On ch=2 n=d#3 v=92
104574 On ch=2 n=d#3 v=0
104576 On ch=1 n=c5 v=92
104576 On ch=1 n=g5 v=92
104576 On ch=1 n=g#5 v=92
104576 On ch=2 n=g4 v=92
104638 On ch=1 n=c5 v=0
104638 On ch=1 n=g5 v=0
104638 On ch=1 n=g#5 v=0
104638 On ch=2 n=g4 v=0
104640 On ch=1 n=c5 v=92
104640 On ch=1 n=g5 v=92
104640 On ch=1 n=g#5 v=92
104640 On ch=2 n=g4 v=92
104682 On ch=2 n=g4 v=0
104702 On ch=1 n=c5 v=0
104702 On ch=1 n=g5 v=0
104702 On ch=1 n=g#5 v=0
104704 On ch=2 n=d#3 v=92
104766 On ch=2 n=d#3 v=0
104768 On ch=1 n=c5 v=92
104768 On ch=1 n=f#5 v=92
104768 On ch=1 n=g#5 v=92
104768 On ch=2 n=f#4 v=92
104830 On ch=1 n=c5 v=0
104830 On ch=1 n=f#5 v=0
104830 On ch=1 n=g#5 v=0
104830 On ch=2 n=f#4 v=0
104832 On ch=1 n=c5 v=92
104832 On ch=1 n=f#5 v=92
104832 On ch=1 n=g#5 v=92
104832 On ch=2 n=f#4 v=92
104874 On ch=2 n=f#4 v=0
104894 On ch=1 n=c5 v=0
104894 On ch=1 n=f#5 v=0
104894 On ch=1 n=g#5 v=0
104896 On ch=2 n=d#3 v=92
104958 On ch=2 n=d#3 v=0
104960 On ch=1 n=c5 v=92
104960 On ch=1 n=f5 v=92
104960 On ch=1 n=g#5 v=92
104960 On ch=2 n=f4 v=92
105022 On ch=1 n=c5 v=0
105022 On ch=1 n=f5 v=0
105022 On ch=1 n=g#5 v=0
105022 On ch=2 n=f4 v=0
105024 On ch=1 n=c5 v=92
105024 On ch=1 n=f5 v=92
105024 On ch=1 n=g#5 v=92
105024 On ch=2 n=f4 v=92
105066 On ch=2 n=f4 v=0
105086 On ch=1 n=c5 v=0
105086 On ch=1 n=f5 v=0
105086 On ch=1 n=g#5 v=0
105088 On ch=2 n=d#3 v=92
105150 On ch=2 n=d#3 v=0
105152 On ch=1 n=c5 v=127
105152 On ch=1 n=e5 v=127
105152 On ch=1 n=g#5 v=127
105152 On ch=1 n=c6 v=127
105152 On ch=2 n=e4 v=127
105214 On ch=1 n=c5 v=0
105214 On ch=1 n=e5 v=0
105214 On ch=1 n=g#5 v=0
105214 On ch=1 n=c6 v=0
105214 On ch=2 n=e4 v=0
105216 On ch=1 n=c5 v=127
105216 On ch=1 n=d#5 v=127
105216 On ch=1 n=g#5 v=127
105216 On ch=2 n=d#4 v=127
105278 On ch=1 n=c5 v=0
105278 On ch=1 n=d#5 v=0
105278 On ch=1 n=g#5 v=0
105278 On ch=2 n=d#4 v=0
105280 On ch=2 n=d#3 v=92
105342 On ch=2 n=d#3 v=0
105344 On ch=1 n=f5 v=92
105344 On ch=1 n=a5 v=92
105344 On ch=1 n=c#6 v=92
105344 On ch=2 n=a4 v=92
105344 On ch=2 n=c#5 v=92
105406 On ch=1 n=f5 v=0
105406 On ch=1 n=a5 v=0
105406 On ch=1 n=c#6 v=0
105406 On ch=2 n=a4 v=0
105406 On ch=2 n=c#5 v=0
105408 On ch=1 n=f5 v=92
105408 On ch=1 n=a5 v=92
105408 On ch=1 n=c#6 v=92
105408 On ch=2 n=a4 v=92
105408 On ch=2 n=c#5 v=92
105470 On ch=1 n=f5 v=0
105470 On ch=1 n=a5 v=0
105470 On ch=1 n=c#6 v=0
105470 On ch=2 n=a4 v=0
105470 On ch=2 n=c#5 v=0
105472 On ch=2 n=d#4 v=92
105534 On ch=2 n=d#4 v=0
105536 On ch=1 n=e5 v=92
105536 On ch=1 n=g#5 v=92
105536 On ch=1 n=c#6 v=92
105536 On ch=2 n=g#4 v=92
105536 On ch=2 n=c#5 v=92
105598 On ch=1 n=e5 v=0
105598 On ch=1 n=g#5 v=0
105598 On ch=1 n=c#6 v=0
105598 On ch=2 n=g#4 v=0
105598 On ch=2 n=c#5 v=0
105600 On ch=1 n=e5 v=92
105600 On ch=1 n=g#5 v=92
105600 On ch=1 n=c#6 v=92
105600 On ch=2 n=g#4 v=92
105600 On ch=2 n=c#5 v=92
105662 On ch=1 n=e5 v=0
105662 On ch=1 n=g#5 v=0
105662 On ch=1 n=c#6 v=0
105662 On ch=2 n=g#4 v=0
105662 On ch=2 n=c#5 v=0
105664 On ch=2 n=d#4 v=92
105726 On ch=2 n=d#4 v=0
105728 On ch=1 n=d#5 v=92
105728 On ch=1 n=g5 v=92
105728 On ch=1 n=c#6 v=92
105728 On ch=2 n=g4 v=92
105728 On ch=2 n=c#5 v=92
105790 On ch=1 n=d#5 v=0
105790 On ch=1 n=g5 v=0
105790 On ch=1 n=c#6 v=0
105790 On ch=2 n=g4 v=0
105790 On ch=2 n=c#5 v=0
105792 On ch=1 n=d#5 v=92
105792 On ch=1 n=g5 v=92
105792 On ch=1 n=c#6 v=92
105792 On ch=2 n=g4 v=92
105792 On ch=2 n=c#5 v=92
105854 On ch=1 n=d#5 v=0
105854 On ch=1 n=g5 v=0
105854 On ch=1 n=c#6 v=0
105854 On ch=2 n=g4 v=0
105854 On ch=2 n=c#5 v=0
105856 On ch=2 n=d#3 v=92
105918 On ch=2 n=d#3 v=0
105920 On ch=1 n=e5 v=127
105920 On ch=1 n=g5 v=127
105920 On ch=1 n=b5 v=127
105920 On ch=1 n=e6 v=127
105920 On ch=2 n=g4 v=92
105920 On ch=2 n=b4 v=92
105982 On ch=1 n=e5 v=0
105982 On ch=1 n=g5 v=0
105982 On ch=1 n=b5 v=0
105982 On ch=1 n=e6 v=0
105982 On ch=2 n=g4 v=0
105982 On ch=2 n=b4 v=0
105984 On ch=1 n=d#5 v=127
105984 On ch=1 n=g#5 v=127
105984 On ch=1 n=c6 v=127
105984 On ch=2 n=g#4 v=92
105984 On ch=2 n=c5 v=92
106046 On ch=1 n=d#5 v=0
106046 On ch=1 n=g#5 v=0
106046 On ch=1 n=c6 v=0
106046 On ch=2 n=g#4 v=0
106046 On ch=2 n=c5 v=0
106048 On ch=2 n=d#4 v=92
106110 On ch=2 n=d#4 v=0
106112 On ch=1 n=f5 v=92
106112 On ch=1 n=a5 v=92
106112 On ch=1 n=c#6 v=92
106112 On ch=2 n=a4 v=92
106112 On ch=2 n=c#5 v=92
106174 On ch=1 n=f5 v=0
106174 On ch=1 n=a5 v=0
106174 On ch=1 n=c#6 v=0
106174 On ch=2 n=a4 v=0
106174 On ch=2 n=c#5 v=0
106176 On ch=1 n=f5 v=92
106176 On ch=1 n=a5 v=92
106176 On ch=1 n=c#6 v=92
106176 On ch=2 n=a4 v=92
106176 On ch=2 n=c#5 v=92
106238 On ch=1 n=f5 v=0
106238 On ch=1 n=a5 v=0
106238 On ch=1 n=c#6 v=0
106238 On ch=2 n=a4 v=0
106238 On ch=2 n=c#5 v=0
106240 On ch=2 n=d#4 v=92
106302 On ch=2 n=d#4 v=0
106304 On ch=1 n=e5 v=92
106304 On ch=1 n=g#5 v=92
106304 On ch=1 n=c#6 v=92
106304 On ch=2 n=g#4 v=92
106304 On ch=2 n=c#5 v=92
106366 On ch=1 n=e5 v=0
106366 On ch=1 n=g#5 v=0
106366 On ch=1 n=c#6 v=0
106366 On ch=2 n=g#4 v=0
106366 On ch=2 n=c#5 v=0
106368 On ch=1 n=e5 v=92
106368 On ch=1 n=g#5 v=92
106368 On ch=1 n=c#6 v=92
106368 On ch=2 n=g#4 v=92
106368 On ch=2 n=c#5 v=92
106430 On ch=1 n=e5 v=0
106430 On ch=1 n=g#5 v=0
106430 On ch=1 n=c#6 v=0
106430 On ch=2 n=g#4 v=0
106430 On ch=2 n=c#5 v=0
106432 On ch=2 n=d#4 v=92
106494 On ch=2 n=d#4 v=0
106496 On ch=1 n=d#5 v=92
106496 On ch=1 n=g5 v=92
106496 On ch=1 n=c#6 v=92
106496 On ch=2 n=g4 v=92
106496 On ch=2 n=c#5 v=92
106558 On ch=1 n=d#5 v=0
106558 On ch=1 n=g5 v=0
106558 On ch=1 n=c#6 v=0
106558 On ch=2 n=g4 v=0
106558 On ch=2 n=c#5 v=0
106560 On ch=1 n=d#5 v=92
106560 On ch=1 n=g5 v=92
106560 On ch=1 n=c#6 v=92
106560 On ch=2 n=g4 v=92
106560 On ch=2 n=c#5 v=92
106622 On ch=1 n=d#5 v=0
106622 On ch=1 n=g5 v=0
106622 On ch=1 n=c#6 v=0
106622 On ch=2 n=g4 v=0
106622 On ch=2 n=c#5 v=0
106624 On ch=2 n=d#3 v=92
106686 On ch=2 n=d#3 v=0
106688 On ch=1 n=e5 v=127
106688 On ch=1 n=g5 v=127
106688 On ch=1 n=b5 v=127
106688 On ch=1 n=e6 v=127
106688 On ch=2 n=g4 v=92
106688 On ch=2 n=b4 v=92
106750 On ch=1 n=e5 v=0
106750 On ch=1 n=g5 v=0
106750 On ch=1 n=b5 v=0
106750 On ch=1 n=e6 v=0
106750 On ch=2 n=g4 v=0
106750 On ch=2 n=b4 v=0
106752 On ch=1 n=d#5 v=127
106752 On ch=1 n=g#5 v=127
106752 On ch=1 n=c6 v=127
106752 On ch=2 n=g#4 v=92
106752 On ch=2 n=c5 v=92
106878 On ch=2 n=g#4 v=0
106878 On ch=2 n=c5 v=0
106880 On ch=2 n=d#4 v=92
106912 On ch=1 n=d#5 v=0
106912 On ch=1 n=g#5 v=0
106912 On ch=1 n=c6 v=0
106942 On ch=2 n=d#4 v=0
106944 On ch=1 n=b5 v=92
106944 On ch=1 n=a#5 v=92
106944 On ch=2 n=b4 v=127
106944 On ch=2 n=f5 v=127
106990 On ch=1 n=a#5 v=0
106992 On ch=1 n=g5 v=92
107038 On ch=1 n=g5 v=0
107040 On ch=1 n=g#5 v=92
107086 On ch=1 n=g#5 v=0
107088 On ch=1 n=e6 v=92
107104 On ch=1 n=b5 v=0
107104 On ch=2 n=b4 v=0
107104 On ch=2 n=f5 v=0
107134 On ch=1 n=e6 v=0
107136 On ch=1 n=g#5 v=92
107136 On ch=1 n=c6 v=92
107136 On ch=2 n=c5 v=94
107136 On ch=2 n=d#5 v=94
107262 On ch=2 n=c5 v=0
107262 On ch=2 n=d#5 v=0
107264 On ch=2 n=g#4 v=95
107296 On ch=1 n=g#5 v=0
107296 On ch=1 n=c6 v=0
107326 On ch=2 n=g#4 v=0
107328 On ch=1 n=d6 v=95
107328 On ch=1 n=d6 v=95
107328 On ch=2 n=d5 v=127
107328 On ch=2 n=g#5 v=127
107374 On ch=1 n=d6 v=0
107376 On ch=1 n=a#5 v=95
107422 On ch=1 n=a#5 v=0
107424 On ch=1 n=b5 v=95
107470 On ch=1 n=b5 v=0
107472 On ch=1 n=g#6 v=95
107488 On ch=1 n=d6 v=0
107488 On ch=2 n=d5 v=0
107518 On ch=1 n=g#6 v=0
107520 On ch=1 n=c6 v=96
107520 On ch=1 n=d#6 v=96
107520 On ch=2 n=d#5 v=98
107680 On ch=1 n=c6 v=0
107680 On ch=1 n=d#6 v=0
107680 On ch=2 n=d#5 v=0
107680 On ch=2 n=a5 v=0
107712 On ch=1 n=g6 v=100
107712 On ch=1 n=g6 v=100
107712 On ch=2 n=c5 v=101
107758 On ch=1 n=g6 v=0
107760 On ch=1 n=c6 v=101
107806 On ch=1 n=c6 v=0
107806 On ch=2 n=c5 v=0
107808 On ch=1 n=d#6 v=102
107808 On ch=2 n=g5 v=127
107808 On ch=2 n=c6 v=127
107854 On ch=1 n=d#6 v=0
107856 On ch=1 n=c7 v=103
107872 On ch=1 n=g6 v=0
107902 On ch=1 n=c7 v=0
107904 On ch=1 n=d#6 v=104
107904 On ch=1 n=g#6 v=104
107968 On ch=2 n=g5 v=0
108000 On ch=2 n=g#5 v=105
108064 On ch=1 n=d#6 v=0
108064 On ch=1 n=g#6 v=0
108096 On ch=1 n=c6 v=108
108096 On ch=1 n=d#6 v=108
108096 On ch=1 n=g#6 v=108
108096 On ch=1 n=c7 v=108
108126 On ch=2 n=g#5 v=0
108126 On ch=2 n=c6 v=0
108128 On ch=2 n=c5 v=108
108128 On ch=2 n=d#5 v=108
108128 On ch=2 n=g#5 v=108
108128 On ch=2 n=c6 v=108
108190 On ch=1 n=c6 v=0
108190 On ch=1 n=d#6 v=0
108190 On ch=1 n=g#6 v=0
108190 On ch=1 n=c7 v=0
108190 On ch=2 n=c5 v=0
108190 On ch=2 n=d#5 v=0
108190 On ch=2 n=g#5 v=0
108190 On ch=2 n=c6 v=0
108192 On ch=1 n=c6 v=127
108192 On ch=1 n=d#6 v=127
108192 On ch=1 n=g6 v=127
108192 On ch=1 n=a#6 v=127
108192 On ch=2 n=c5 v=127
108192 On ch=2 n=d#5 v=127
108192 On ch=2 n=g5 v=127
108192 On ch=2 n=a#5 v=127
108318 On ch=1 n=c6 v=0
108318 On ch=1 n=d#6 v=0
108318 On ch=1 n=g6 v=0
108318 On ch=1 n=a#6 v=0
108318 On ch=2 n=c5 v=0
108318 On ch=2 n=d#5 v=0
108318 On ch=2 n=g5 v=0
108318 On ch=2 n=a#5 v=0
108320 On ch=1 n=c5 v=108
108320 On ch=1 n=d#5 v=108
108320 On ch=1 n=g5 v=108
108320 On ch=1 n=a#5 v=108
108320 On ch=2 n=c4 v=108
108320 On ch=2 n=g4 v=108
108382 On ch=1 n=c5 v=0
108382 On ch=1 n=d#5 v=0
108382 On ch=1 n=g5 v=0
108382 On ch=1 n=a#5 v=0
108382 On ch=2 n=c4 v=0
108382 On ch=2 n=g4 v=0
108384 On ch=1 n=c5 v=127
108384 On ch=1 n=f5 v=127
108384 On ch=1 n=g#5 v=127
108384 On ch=1 n=c6 v=127
108384 On ch=2 n=d#3 v=127
108384 On ch=2 n=c4 v=127
108384 On ch=2 n=g#4 v=127
108512 On ch=1 n=f6 v=108
108512 On ch=1 n=g#6 v=108
108512 On ch=1 n=c7 v=108
108512 On ch=2 n=f5 v=108
108512 On ch=2 n=g#5 v=108
108512 On ch=2 n=c6 v=108
108574 On ch=1 n=f6 v=0
108574 On ch=1 n=g#6 v=0
108574 On ch=1 n=c7 v=0
108574 On ch=2 n=f5 v=0
108574 On ch=2 n=g#5 v=0
108574 On ch=2 n=c6 v=0
108576 On ch=1 n=f6 v=127
108576 On ch=1 n=g#6 v=127
108576 On ch=1 n=c7 v=127
108576 On ch=1 n=f7 v=127
108576 On ch=2 n=c5 v=127
108576 On ch=2 n=f5 v=127
108576 On ch=2 n=g#5 v=127
108576 On ch=2 n=c6 v=127
108720 On ch=1 n=c5 v=0
108720 On ch=1 n=f5 v=0
108720 On ch=1 n=g#5 v=0
108720 On ch=1 n=c6 v=0
108720 On ch=2 n=d#3 v=0
108720 On ch=2 n=c4 v=0
108720 On ch=2 n=g#4 v=0
108894 On ch=1 n=f6 v=0
108894 On ch=1 n=g#6 v=0
108894 On ch=1 n=c7 v=0
108894 On ch=1 n=f7 v=0
108894 On ch=2 n=c5 v=0
108894 On ch=2 n=f5 v=0
108894 On ch=2 n=g#5 v=0
108894 On ch=2 n=c6 v=0
108896 On ch=1 n=c6 v=108
108896 On ch=1 n=f6 v=108
108896 On ch=1 n=g#6 v=108
108896 On ch=2 n=g#4 v=108
108896 On ch=2 n=b4 v=108
108896 On ch=2 n=f5 v=108
108896 On ch=2 n=g#5 v=108
108958 On ch=1 n=c6 v=0
108958 On ch=1 n=f6 v=0
108958 On ch=1 n=g#6 v=0
108958 On ch=2 n=g#4 v=0
108958 On ch=2 n=b4 v=0
108958 On ch=2 n=f5 v=0
108958 On ch=2 n=g#5 v=0
108960 On ch=1 n=c6 v=127
108960 On ch=1 n=d#6 v=127
108960 On ch=1 n=g6 v=127
108960 On ch=2 n=g#4 v=127
108960 On ch=2 n=b4 v=127
108960 On ch=2 n=d#5 v=127
108960 On ch=2 n=g5 v=127
109086 On ch=1 n=c6 v=0
109086 On ch=1 n=d#6 v=0
109086 On ch=1 n=g6 v=0
109086 On ch=2 n=g#4 v=0
109086 On ch=2 n=b4 v=0
109086 On ch=2 n=d#5 v=0
109086 On ch=2 n=g5 v=0
109088 On ch=1 n=c5 v=108
109088 On ch=1 n=d#5 v=108
109088 On ch=1 n=g5 v=108
109088 On ch=2 n=b3 v=108
109088 On ch=2 n=g4 v=108
109150 On ch=1 n=c5 v=0
109150 On ch=1 n=d#5 v=0
109150 On ch=1 n=g5 v=0
109150 On ch=2 n=b3 v=0
109150 On ch=2 n=g4 v=0
109152 On ch=1 n=c5 v=127
109152 On ch=1 n=f5 v=127
109152 On ch=1 n=g#5 v=127
109152 On ch=2 n=d#3 v=127
109152 On ch=2 n=c4 v=127
109152 On ch=2 n=f4 v=127
109280 On ch=1 n=c6 v=108
109280 On ch=1 n=f6 v=108
109280 On ch=1 n=g#6 v=108
109280 On ch=2 n=c5 v=108
109280 On ch=2 n=f5 v=108
109280 On ch=2 n=g#5 v=108
109342 On ch=1 n=c6 v=0
109342 On ch=1 n=f6 v=0
109342 On ch=1 n=g#6 v=0
109342 On ch=2 n=c5 v=0
109342 On ch=2 n=f5 v=0
109342 On ch=2 n=g#5 v=0
109344 On ch=1 n=c6 v=108
109344 On ch=1 n=f6 v=108
109344 On ch=1 n=g#6 v=108
109344 On ch=1 n=c7 v=108
109344 On ch=2 n=g#4 v=108
109344 On ch=2 n=c5 v=108
109344 On ch=2 n=f5 v=108
109344 On ch=2 n=g#5 v=108
109488 On ch=1 n=c5 v=0
109488 On ch=1 n=f5 v=0
109488 On ch=1 n=g#5 v=0
109488 On ch=2 n=d#3 v=0
109488 On ch=2 n=c4 v=0
109488 On ch=2 n=f4 v=0
109662 On ch=1 n=c6 v=0
109662 On ch=1 n=f6 v=0
109662 On ch=1 n=g#6 v=0
109662 On ch=1 n=c7 v=0
109662 On ch=2 n=g#4 v=0
109662 On ch=2 n=c5 v=0
109662 On ch=2 n=f5 v=0
109662 On ch=2 n=g#5 v=0
109664 On ch=1 n=g#5 v=108
109664 On ch=1 n=c6 v=108
109664 On ch=1 n=f6 v=108
109664 On ch=2 n=g#4 v=108
109664 On ch=2 n=c5 v=108
109664 On ch=2 n=f5 v=108
109726 On ch=1 n=g#5 v=0
109726 On ch=1 n=c6 v=0
109726 On ch=1 n=f6 v=0
109726 On ch=2 n=g#4 v=0
109726 On ch=2 n=c5 v=0
109726 On ch=2 n=f5 v=0
109728 On ch=1 n=g#5 v=108
109728 On ch=1 n=c6 v=108
109728 On ch=1 n=d#6 v=108
109728 On ch=2 n=g4 v=127
109728 On ch=2 n=c5 v=127
109728 On ch=2 n=d#5 v=127
109854 On ch=1 n=g#5 v=0
109854 On ch=1 n=c6 v=0
109854 On ch=1 n=d#6 v=0
109854 On ch=2 n=g4 v=0
109854 On ch=2 n=c5 v=0
109854 On ch=2 n=d#5 v=0
109856 On ch=1 n=g#4 v=108
109856 On ch=1 n=c5 v=108
109856 On ch=1 n=d#5 v=108
109856 On ch=2 n=c4 v=108
109856 On ch=2 n=d#4 v=108
109918 On ch=1 n=g#4 v=0
109918 On ch=1 n=c5 v=0
109918 On ch=1 n=d#5 v=0
109918 On ch=2 n=c4 v=0
109918 On ch=2 n=d#4 v=0
109920 On ch=1 n=f4 v=127
109920 On ch=1 n=g#4 v=127
109920 On ch=1 n=c5 v=127
109920 On ch=1 n=f5 v=127
109920 On ch=2 n=d#3 v=108
109920 On ch=2 n=g#3 v=108
109920 On ch=2 n=c4 v=108
109928 Tempo 240963
109928 Tempo 240963
109937 Tempo 241935
109937 Tempo 241935
109945 Tempo 242914
109945 Tempo 242914
109954 Tempo 243902
109954 Tempo 243902
109962 Tempo 244897
109962 Tempo 244897
109971 Tempo 245901
109971 Tempo 245901
109979 Tempo 246913
109979 Tempo 246913
109988 Tempo 247933
109988 Tempo 247933
109996 Tempo 248962
109996 Tempo 248962
110005 Tempo 250000
110005 Tempo 250000
110013 Tempo 251046
110013 Tempo 251046
110022 Tempo 252100
110022 Tempo 252100
110030 Tempo 253164
110030 Tempo 253164
110039 Tempo 254237
110039 Tempo 254237
110046 On ch=1 n=f4 v=0
110046 On ch=1 n=g#4 v=0
110046 On ch=1 n=c5 v=0
110046 On ch=1 n=f5 v=0
110046 On ch=2 n=d#3 v=0
110046 On ch=2 n=g#3 v=0
110046 On ch=2 n=c4 v=0
110048 Tempo 255319
110048 Tempo 255319
110048 On ch=1 n=g#5 v=108
110048 On ch=1 n=c6 v=108
110048 On ch=1 n=f6 v=108
110048 On ch=2 n=g#4 v=108
110048 On ch=2 n=c5 v=108
110048 On ch=2 n=f5 v=108
110056 Tempo 256410
110056 Tempo 256410
110065 Tempo 257510
110065 Tempo 257510
110073 Tempo 258620
110073 Tempo 258620
110082 Tempo 259740
110082 Tempo 259740
110090 Tempo 260869
110090 Tempo 260869
110099 Tempo 262008
110099 Tempo 262008
110107 Tempo 263157
110107 Tempo 263157
110110 On ch=1 n=g#5 v=0
110110 On ch=1 n=c6 v=0
110110 On ch=2 n=f5 v=0
110110 On ch=2 n=c5 v=0
110110 On ch=2 n=g#4 v=0
110110 On ch=1 n=f6 v=0
110112 On ch=1 n=g#6 v=108
110112 On ch=1 n=d#6 v=108
110112 On ch=1 n=c6 v=108
110112 On ch=1 n=g#5 v=108
110112 On ch=2 n=d#4 v=108
110112 On ch=2 n=g#4 v=108
110112 On ch=2 n=c5 v=108
110112 On ch=2 n=d#5 v=108
110116 Tempo 264317
110116 Tempo 264317
110124 Tempo 265486
110124 Tempo 265486
110133 Tempo 266666
110133 Tempo 266666
110141 Tempo 267857
110141 Tempo 267857
110150 Tempo 269058
110150 Tempo 269058
110158 Tempo 270270
110158 Tempo 270270
110160 On ch=1 n=g#6 v=0
110160 On ch=1 n=d#6 v=0
110160 On ch=1 n=c6 v=0
110160 On ch=1 n=g#5 v=0
110160 On ch=2 n=d#4 v=0
110160 On ch=2 n=g#4 v=0
110160 On ch=2 n=c5 v=0
110160 On ch=2 n=d#5 v=0
110167 Tempo 271493
110167 Tempo 271493
110176 Tempo 272727
110176 Tempo 272727
110184 Tempo 273972
110184 Tempo 273972
110193 Tempo 275229
110193 Tempo 275229
110201 Tempo 276497
110201 Tempo 276497
110210 Tempo 277777
110210 Tempo 277777
110218 Tempo 279069
110218 Tempo 279069
110227 Tempo 280373
110227 Tempo 280373
110235 Tempo 281690
110235 Tempo 281690
110244 Tempo 283018
110244 Tempo 283018
110252 Tempo 284360
110252 Tempo 284360
110261 Tempo 285714
110261 Tempo 285714
110269 Tempo 287081
110269 Tempo 287081
110278 Tempo 288461
110278 Tempo 288461
110286 Tempo 289855
110286 Tempo 289855
110295 Tempo 291262
110295 Tempo 291262
110304 Tempo 292682
110304 Tempo 292682
110304 On ch=1 n=g#5 v=108
110304 On ch=1 n=a#5 v=108
110304 On ch=1 n=f6 v=108
110304 On ch=1 n=g#6 v=108
110304 On ch=2 n=d4 v=108
110304 On ch=2 n=f4 v=108
110304 On ch=2 n=a#4 v=108
110304 On ch=2 n=d5 v=108
110312 Tempo 294117
110312 Tempo 294117
110321 Tempo 295566
110321 Tempo 295566
110329 Tempo 297029
110329 Tempo 297029
110338 Tempo 298507
110338 Tempo 298507
110346 Tempo 300000
110346 Tempo 300000
110352 On ch=1 n=g#5 v=0
110352 On ch=1 n=a#5 v=0
110352 On ch=1 n=f6 v=0
110352 On ch=1 n=g#6 v=0
110352 On ch=2 n=d4 v=0
110352 On ch=2 n=f4 v=0
110352 On ch=2 n=a#4 v=0
110352 On ch=2 n=d5 v=0
110355 Tempo 301507
110355 Tempo 301507
110363 Tempo 303030
110363 Tempo 303030
110372 Tempo 304568
110372 Tempo 304568
110380 Tempo 306122
110380 Tempo 306122
110389 Tempo 307692
110389 Tempo 307692
110397 Tempo 309278
110397 Tempo 309278
110406 Tempo 310880
110406 Tempo 310880
110414 Tempo 312500
110414 Tempo 312500
110423 Tempo 314136
110423 Tempo 314136
110432 Tempo 315789
110432 Tempo 315789
110440 Tempo 317460
110440 Tempo 317460
110449 Tempo 319148
110449 Tempo 319148
110457 Tempo 320855
110457 Tempo 320855
110466 Tempo 322580
110466 Tempo 322580
110474 Tempo 324324
110474 Tempo 324324
110483 Tempo 326086
110483 Tempo 326086
110491 Tempo 327868
110491 Tempo 327868
110496 On ch=1 n=g#5 v=108
110496 On ch=1 n=d#6 v=108
110496 On ch=1 n=g#6 v=108
110496 On ch=2 n=c4 v=108
110496 On ch=2 n=d#4 v=108
110496 On ch=2 n=g#4 v=108
110496 On ch=2 n=c5 v=108
110500 Tempo 329670
110500 Tempo 329670
110508 Tempo 331491
110508 Tempo 331491
110517 Tempo 333333
110517 Tempo 333333
110525 Tempo 335195
110525 Tempo 335195
110534 Tempo 337078
110534 Tempo 337078
110542 Tempo 338983
110542 Tempo 338983
110544 On ch=1 n=g#5 v=0
110544 On ch=1 n=d#6 v=0
110544 On ch=1 n=g#6 v=0
110544 On ch=2 n=c4 v=0
110544 On ch=2 n=d#4 v=0
110544 On ch=2 n=g#4 v=0
110544 On ch=2 n=c5 v=0
110551 Tempo 340909
110551 Tempo 340909
110560 Tempo 342857
110560 Tempo 342857
110568 Tempo 344827
110568 Tempo 344827
110577 Tempo 346820
110577 Tempo 346820
110585 Tempo 348837
110585 Tempo 348837
110594 Tempo 350877
110594 Tempo 350877
110602 Tempo 352941
110602 Tempo 352941
110611 Tempo 355029
110611 Tempo 355029
110619 Tempo 357142
110619 Tempo 357142
110628 Tempo 359281
110628 Tempo 359281
110636 Tempo 361445
110636 Tempo 361445
110645 Tempo 363636
110645 Tempo 363636
110653 Tempo 365853
110653 Tempo 365853
110662 Tempo 368098
110662 Tempo 368098
110670 Tempo 370370
110670 Tempo 370370
110679 Tempo 372670
110679 Tempo 372670
110688 Tempo 375000
110688 Tempo 375000
110688 On ch=1 n=f4 v=127
110688 On ch=1 n=g#4 v=127
110688 On ch=1 n=d5 v=127
110688 On ch=2 n=a#2 v=127
110688 On ch=2 n=a#3 v=127
110736 On ch=1 n=f4 v=0
110736 On ch=1 n=g#4 v=0
110736 On ch=1 n=d5 v=0
110736 On ch=2 n=a#2 v=0
110736 On ch=2 n=a#3 v=0
110880 Tempo 300000
110880 Tempo 300000
110880 Par ch=2 c=64 v=127
110880 On ch=1 n=g#6 v=75
110944 On ch=2 n=a#4 v=75
110944 On ch=2 n=a#4 v=75
111008 On ch=2 n=d5 v=75
111070 On ch=2 n=d5 v=0
111072 On ch=2 n=g#5 v=75
111104 On ch=2 n=a#4 v=0
111134 On ch=2 n=g#5 v=0
111136 On ch=2 n=d5 v=75
111166 On ch=1 n=g#6 v=0
111168 On ch=1 n=g6 v=75
111198 On ch=2 n=d5 v=0
111200 On ch=2 n=f4 v=75
111232 On ch=2 n=a#4 v=0
111262 On ch=1 n=g6 v=0
111262 On ch=2 n=f4 v=0
111264 On ch=1 n=f6 v=75
111328 On ch=2 n=c5 v=75
111328 On ch=2 n=c5 v=75
111390 On ch=2 n=c5 v=0
111392 On ch=2 n=d#5 v=75
111454 On ch=2 n=d#5 v=0
111456 Par ch=2 c=64 v=0
111456 Par ch=2 c=64 v=127
111456 On ch=2 n=g#5 v=75
111518 On ch=2 n=g#5 v=0
111520 On ch=2 n=d#5 v=75
111550 On ch=1 n=f6 v=0
111552 On ch=1 n=d#6 v=75
111582 On ch=2 n=d#5 v=0
111584 On ch=2 n=f4 v=75
111616 On ch=2 n=c5 v=0
111646 On ch=1 n=d#6 v=0
111646 On ch=2 n=f4 v=0
111648 On ch=1 n=d6 v=75
111712 On ch=2 n=d5 v=75
111712 On ch=2 n=d5 v=75
111774 On ch=2 n=d5 v=0
111776 On ch=2 n=f5 v=75
111838 On ch=2 n=f5 v=0
111840 On ch=2 n=g#5 v=75
111902 On ch=2 n=g#5 v=0
111904 On ch=2 n=f5 v=75
111966 On ch=2 n=f5 v=0
111968 On ch=2 n=a#4 v=75
111984 On ch=1 n=d6 v=0
112000 On ch=2 n=d5 v=0
112030 On ch=2 n=a#4 v=0
112032 On ch=1 n=c6 v=75
112032 On ch=2 n=g5 v=75
112032 On ch=2 n=g5 v=75
112094 On ch=2 n=g5 v=0
112096 On ch=2 n=g#5 v=75
112126 On ch=1 n=c6 v=0
112128 On ch=1 n=d#6 v=75
112158 On ch=2 n=g#5 v=0
112160 On ch=2 n=d#5 v=75
112192 On ch=2 n=g5 v=0
112222 On ch=1 n=d#6 v=0
112222 On ch=2 n=d#5 v=0
112224 Par ch=2 c=64 v=0
112224 Par ch=2 c=64 v=127
112224 On ch=1 n=d6 v=75
112224 On ch=2 n=f5 v=75
112286 On ch=2 n=f5 v=0
112288 On ch=2 n=g#5 v=75
112318 On ch=1 n=d6 v=0
112320 On ch=1 n=c6 v=75
112350 On ch=2 n=g#5 v=0
112352 On ch=2 n=d#5 v=75
112414 On ch=1 n=c6 v=0
112414 On ch=2 n=d#5 v=0
112416 On ch=1 n=f5 v=75
112416 On ch=1 n=g#5 v=75
112416 On ch=1 n=d6 v=75
112416 On ch=2 n=d5 v=75
112416 On ch=2 n=d5 v=75
112478 On ch=2 n=d5 v=0
112480 On ch=2 n=g#4 v=75
112542 On ch=2 n=g#4 v=0
112544 On ch=2 n=g4 v=72
112606 On ch=2 n=g4 v=0
112608 On ch=2 n=g#4 v=69
112670 On ch=2 n=g#4 v=0
112672 On ch=2 n=f4 v=65
112734 On ch=2 n=f4 v=0
112736 On ch=2 n=a#3 v=61
112752 On ch=1 n=f5 v=0
112752 On ch=1 n=g#5 v=0
112752 On ch=1 n=d6 v=0
112752 On ch=2 n=d5 v=0
112798 On ch=2 n=a#3 v=0
112800 On ch=1 n=d#5 v=75
112800 On ch=1 n=g#5 v=75
112800 On ch=1 n=c6 v=75
112800 On ch=2 n=c5 v=57
112800 On ch=2 n=c5 v=57
112862 On ch=2 n=c5 v=0
112864 On ch=2 n=g4 v=53
112894 On ch=1 n=c6 v=0
112896 On ch=1 n=d6 v=60
112926 On ch=2 n=g4 v=0
112928 On ch=2 n=f4 v=49
112960 On ch=1 n=d#5 v=0
112960 On ch=1 n=g#5 v=0
112960 On ch=2 n=c5 v=0
112990 On ch=1 n=d6 v=0
112990 On ch=2 n=f4 v=0
112992 Par ch=2 c=64 v=0
112992 Par ch=2 c=64 v=127
112992 On ch=1 n=d5 v=45
112992 On ch=1 n=g#5 v=45
112992 On ch=1 n=a#5 v=45
112992 On ch=2 n=g#4 v=45
113054 On ch=2 n=g#4 v=0
113056 On ch=2 n=f4 v=45
113118 On ch=2 n=f4 v=0
113120 On ch=2 n=a#3 v=45
113152 On ch=1 n=d5 v=0
113152 On ch=1 n=g#5 v=0
113152 On ch=1 n=a#5 v=0
113182 On ch=2 n=a#3 v=0
113184 On ch=1 n=g#6 v=75
113248 On ch=2 n=a#4 v=75
113248 On ch=2 n=a#4 v=75
113312 On ch=2 n=d5 v=75
113374 On ch=2 n=d5 v=0
113376 On ch=2 n=g#5 v=75
113408 On ch=2 n=a#4 v=0
113438 On ch=2 n=g#5 v=0
113440 On ch=2 n=d5 v=75
113470 On ch=1 n=g#6 v=0
113472 On ch=1 n=g6 v=75
113502 On ch=2 n=d5 v=0
113504 On ch=2 n=f4 v=75
113536 On ch=2 n=a#4 v=0
113566 On ch=1 n=g6 v=0
113566 On ch=2 n=f4 v=0
113568 On ch=1 n=f6 v=75
113632 On ch=2 n=c5 v=75
113632 On ch=2 n=c5 v=75
113694 On ch=2 n=c5 v=0
113696 On ch=2 n=d#5 v=75
113758 On ch=2 n=d#5 v=0
113760 Par ch=2 c=64 v=0
113760 Par ch=2 c=64 v=127
113760 On ch=2 n=g#5 v=75
113822 On ch=2 n=g#5 v=0
113824 On ch=2 n=d#5 v=75
113854 On ch=1 n=f6 v=0
113856 On ch=1 n=d#6 v=75
113886 On ch=2 n=d#5 v=0
113888 On ch=2 n=f4 v=75
113920 On ch=2 n=c5 v=0
113950 On ch=1 n=d#6 v=0
113950 On ch=2 n=f4 v=0
113952 On ch=1 n=d6 v=75
114016 On ch=2 n=d5 v=75
114016 On ch=2 n=d5 v=75
114078 On ch=2 n=d5 v=0
114080 On ch=2 n=f5 v=75
114142 On ch=2 n=f5 v=0
114144 On ch=2 n=g#5 v=75
114206 On ch=2 n=g#5 v=0
114208 On ch=2 n=f5 v=75
114238 On ch=1 n=d6 v=0
114240 On ch=1 n=f6 v=105
114270 On ch=2 n=f5 v=0
114272 On ch=2 n=a#4 v=75
114304 On ch=2 n=d5 v=0
114334 On ch=1 n=f6 v=0
114334 On ch=2 n=a#4 v=0
114336 On ch=1 n=c6 v=75
114336 On ch=2 n=g5 v=75
114336 On ch=2 n=g5 v=75
114398 On ch=2 n=g5 v=0
114400 On ch=2 n=g#5 v=75
114430 On ch=1 n=c6 v=0
114432 On ch=1 n=d#6 v=75
114462 On ch=2 n=g#5 v=0
114464 On ch=2 n=d#5 v=75
114496 On ch=2 n=g5 v=0
114526 On ch=1 n=d#6 v=0
114526 On ch=2 n=d#5 v=0
114528 Par ch=2 c=64 v=0
114528 Par ch=2 c=64 v=127
114528 On ch=1 n=d6 v=75
114528 On ch=2 n=f5 v=75
114590 On ch=2 n=f5 v=0
114592 On ch=2 n=g#5 v=75
114622 On ch=1 n=d6 v=0
114624 On ch=1 n=c6 v=75
114654 On ch=2 n=g#5 v=0
114656 On ch=2 n=d#5 v=75
114718 On ch=1 n=c6 v=0
114718 On ch=2 n=d#5 v=0
114720 On ch=1 n=f5 v=75
114720 On ch=1 n=g#5 v=75
114720 On ch=1 n=d6 v=75
114720 On ch=2 n=d5 v=75
114720 On ch=2 n=d5 v=75
114782 On ch=2 n=d5 v=0
114784 On ch=2 n=g#4 v=75
114846 On ch=2 n=g#4 v=0
114848 On ch=2 n=g4 v=72
114910 On ch=2 n=g4 v=0
114912 On ch=2 n=g#4 v=69
114974 On ch=2 n=g#4 v=0
114976 On ch=2 n=f4 v=65
115038 On ch=2 n=f4 v=0
115040 On ch=2 n=a#3 v=61
115056 On ch=1 n=f5 v=0
115056 On ch=1 n=g#5 v=0
115056 On ch=1 n=d6 v=0
115056 On ch=2 n=d5 v=0
115102 On ch=2 n=a#3 v=0
115104 On ch=1 n=d#5 v=75
115104 On ch=1 n=g#5 v=75
115104 On ch=1 n=c6 v=75
115104 On ch=2 n=d#5 v=57
115104 On ch=2 n=d#5 v=57
115166 On ch=2 n=d#5 v=0
115168 On ch=2 n=g4 v=53
115198 On ch=1 n=c6 v=0
115200 On ch=1 n=d6 v=60
115230 On ch=2 n=g4 v=0
115232 On ch=2 n=f4 v=49
115264 On ch=1 n=d#5 v=0
115264 On ch=1 n=g#5 v=0
115264 On ch=2 n=d#5 v=0
115294 On ch=1 n=d6 v=0
115294 On ch=2 n=f4 v=0
115296 Par ch=2 c=64 v=0
115296 Par ch=2 c=64 v=127
115296 On ch=1 n=g#5 v=45
115296 On ch=1 n=a#5 v=45
115296 On ch=2 n=d5 v=45
115296 On ch=2 n=d5 v=45
115358 On ch=2 n=d5 v=0
115360 On ch=2 n=f4 v=45
115390 On ch=1 n=a#5 v=0
115392 On ch=1 n=c6 v=45
115422 On ch=2 n=f4 v=0
115424 On ch=2 n=a#3 v=45
115456 On ch=2 n=d5 v=0
115486 On ch=1 n=c6 v=0
115486 On ch=2 n=a#3 v=0
115488 On ch=1 n=d6 v=45
115552 On ch=2 n=g#4 v=45
115614 On ch=2 n=g#4 v=0
115616 On ch=2 n=d5 v=48
115632 On ch=1 n=g#5 v=0
115678 On ch=2 n=d5 v=0
115680 On ch=1 n=g#5 v=45
115680 On ch=1 n=a#5 v=45
115680 On ch=2 n=f5 v=51
115742 On ch=2 n=f5 v=0
115744 On ch=2 n=g#4 v=54
115774 On ch=1 n=d6 v=0
115776 On ch=1 n=d#6 v=50
115806 On ch=2 n=g#4 v=0
115808 On ch=2 n=a#4 v=57
115870 On ch=1 n=d#6 v=0
115870 On ch=2 n=a#4 v=0
115872 On ch=1 n=f6 v=56
115872 On ch=2 n=d5 v=60
115934 On ch=2 n=d5 v=0
115936 On ch=2 n=f5 v=63
115998 On ch=2 n=f5 v=0
116000 On ch=2 n=g5 v=66
116016 On ch=1 n=g#5 v=0
116016 On ch=1 n=a#5 v=0
116062 On ch=2 n=g5 v=0
116064 Par ch=2 c=64 v=0
116064 Par ch=2 c=64 v=127
116064 On ch=1 n=a#5 v=68
116064 On ch=1 n=c#6 v=68
116064 On ch=2 n=g#5 v=69
116158 On ch=1 n=f6 v=0
116160 On ch=1 n=g6 v=74
116190 On ch=2 n=g#5 v=0
116192 On ch=2 n=d#4 v=76
116192 On ch=2 n=a#4 v=76
116254 On ch=1 n=g6 v=0
116254 On ch=2 n=d#4 v=0
116254 On ch=2 n=a#4 v=0
116256 On ch=1 n=g#6 v=80
116256 On ch=2 n=c#5 v=80
116318 On ch=2 n=c#5 v=0
116320 On ch=2 n=f5 v=84
116382 On ch=2 n=f5 v=0
116384 On ch=2 n=g#5 v=88
116400 On ch=1 n=a#5 v=0
116400 On ch=1 n=c#6 v=0
116446 On ch=2 n=g#5 v=0
116448 On ch=1 n=c#6 v=92
116448 On ch=1 n=f6 v=92
116448 On ch=2 n=c6 v=92
116510 On ch=2 n=c6 v=0
116512 On ch=2 n=g#5 v=92
116542 On ch=1 n=g#6 v=0
116544 On ch=1 n=c7 v=92
116574 On ch=2 n=g#5 v=0
116576 On ch=2 n=a#5 v=92
116608 On ch=1 n=c#6 v=0
116608 On ch=1 n=f6 v=0
116638 On ch=1 n=c7 v=0
116638 On ch=2 n=a#5 v=0
116640 On ch=1 n=c#6 v=92
116640 On ch=1 n=d#6 v=92
116640 On ch=1 n=g6 v=92
116640 On ch=2 n=g5 v=92
116702 On ch=2 n=g5 v=0
116704 On ch=2 n=a#5 v=92
116734 On ch=1 n=g6 v=0
116736 On ch=1 n=a#6 v=92
116766 On ch=2 n=a#5 v=0
116768 On ch=2 n=f5 v=92
116800 On ch=1 n=c#6 v=0
116800 On ch=1 n=d#6 v=0
116830 On ch=1 n=a#6 v=0
116830 On ch=2 n=f5 v=0
116832 Par ch=2 c=64 v=0
116832 Par ch=2 c=64 v=127
116832 On ch=1 n=c6 v=92
116832 On ch=1 n=d#6 v=92
116832 On ch=1 n=g6 v=92
116832 On ch=2 n=g5 v=92
116894 On ch=2 n=g5 v=0
116896 On ch=2 n=d#5 v=92
116926 On ch=1 n=g6 v=0
116928 On ch=1 n=a#6 v=92
116958 On ch=2 n=d#5 v=0
116960 On ch=2 n=f5 v=92
116992 On ch=1 n=c6 v=0
116992 On ch=1 n=d#6 v=0
117022 On ch=1 n=a#6 v=0
117022 On ch=2 n=f5 v=0
117024 On ch=1 n=g#5 v=92
117024 On ch=1 n=c6 v=92
117024 On ch=1 n=f6 v=92
117024 On ch=2 n=d5 v=92
117086 On ch=2 n=d5 v=0
117088 On ch=2 n=d#5 v=92
117150 On ch=2 n=d#5 v=0
117152 On ch=2 n=c5 v=92
117214 On ch=2 n=c5 v=0
117216 On ch=2 n=d#5 v=92
117278 On ch=2 n=d#5 v=0
117280 On ch=2 n=g#4 v=92
117310 On ch=1 n=f6 v=0
117312 On ch=1 n=g#6 v=92
117342 On ch=2 n=g#4 v=0
117344 On ch=2 n=c5 v=92
117360 On ch=1 n=g#5 v=0
117360 On ch=1 n=c6 v=0
117406 On ch=1 n=g#6 v=0
117406 On ch=2 n=c5 v=0
117408 On ch=1 n=g5 v=87
117408 On ch=1 n=b5 v=87
117408 On ch=1 n=f6 v=87
117408 On ch=2 n=g4 v=89
117470 On ch=2 n=g4 v=0
117472 On ch=2 n=g#4 v=85
117502 On ch=1 n=f6 v=0
117504 On ch=1 n=g6 v=81
117534 On ch=2 n=g#4 v=0
117536 On ch=2 n=f4 v=81
117598 On ch=1 n=g6 v=0
117598 On ch=2 n=f4 v=0
117600 Par ch=2 c=64 v=0
117600 Par ch=2 c=64 v=127
117600 On ch=1 n=f6 v=75
117600 On ch=2 n=g#3 v=77
117600 On ch=2 n=g4 v=77
117662 On ch=2 n=g4 v=0
117664 On ch=2 n=d4 v=73
117694 On ch=1 n=f6 v=0
117696 On ch=1 n=g6 v=69
117726 On ch=2 n=d4 v=0
117728 On ch=2 n=f4 v=69
117760 On ch=1 n=g5 v=0
117760 On ch=1 n=a#5 v=0
117790 On ch=1 n=g6 v=0
117790 On ch=2 n=f4 v=0
117792 On ch=1 n=g#5 v=63
117792 On ch=1 n=c6 v=63
117792 On ch=1 n=d#6 v=63
117792 On ch=2 n=d#4 v=65
117854 On ch=2 n=d#4 v=0
117856 On ch=2 n=g#4 v=61
117918 On ch=2 n=g#4 v=0
117920 On ch=2 n=c5 v=57
117936 On ch=2 n=g#3 v=0
117982 On ch=2 n=c5 v=0
117984 On ch=2 n=d#5 v=53
118078 On ch=1 n=d#6 v=0
118080 On ch=1 n=g6 v=45
118110 On ch=2 n=d#5 v=0
118112 On ch=2 n=g#4 v=45
118128 On ch=1 n=g#5 v=0
118128 On ch=1 n=c6 v=0
118174 On ch=1 n=g6 v=0
118174 On ch=2 n=g#4 v=0
118176 On ch=1 n=a#5 v=45
118176 On ch=1 n=f6 v=45
118176 On ch=2 n=g4 v=45
118176 On ch=2 n=g4 v=45
118238 On ch=2 n=g4 v=0
118240 On ch=2 n=a#4 v=45
118270 On ch=1 n=f6 v=0
118272 On ch=1 n=g6 v=45
118302 On ch=2 n=a#4 v=0
118304 On ch=2 n=d#5 v=45
118336 On ch=1 n=a#5 v=0
118336 On ch=2 n=g4 v=0
118366 On ch=1 n=g6 v=0
118366 On ch=2 n=d#5 v=0
118368 Par ch=2 c=64 v=0
118368 Par ch=2 c=64 v=127
118368 On ch=1 n=a5 v=45
118368 On ch=1 n=d#6 v=45
118368 On ch=2 n=f4 v=45
118368 On ch=2 n=c5 v=45
118494 On ch=2 n=f4 v=0
118494 On ch=2 n=c5 v=0
118496 On ch=2 n=f3 v=45
118496 On ch=2 n=c4 v=45
118528 On ch=1 n=a5 v=0
118528 On ch=1 n=d#6 v=0
118558 On ch=2 n=f3 v=0
118558 On ch=2 n=c4 v=0
118560 On ch=1 n=d#7 v=92
118560 On ch=2 n=a4 v=92
118622 On ch=2 n=a4 v=0
118624 On ch=2 n=f5 v=92
118688 On ch=2 n=a5 v=92
118750 On ch=2 n=a5 v=0
118752 On ch=2 n=d#6 v=92
118814 On ch=2 n=d#6 v=0
118816 On ch=2 n=a5 v=92
118846 On ch=1 n=d#7 v=0
118848 On ch=1 n=d7 v=92
118878 On ch=2 n=a5 v=0
118880 On ch=2 n=c5 v=92
118912 On ch=2 n=f5 v=0
118942 On ch=1 n=d7 v=0
118942 On ch=2 n=c5 v=0
118944 On ch=1 n=c7 v=92
119008 On ch=2 n=g5 v=92
119072 On ch=2 n=a#5 v=92
119134 On ch=2 n=a#5 v=0
119136 Par ch=2 c=64 v=0
119136 Par ch=2 c=64 v=127
119136 On ch=2 n=d#6 v=92
119198 On ch=2 n=d#6 v=0
119200 On ch=2 n=a#5 v=92
119230 On ch=1 n=c7 v=0
119232 On ch=1 n=a#6 v=92
119262 On ch=2 n=a#5 v=0
119264 On ch=2 n=c5 v=92
119296 On ch=2 n=g5 v=0
119326 On ch=1 n=a#6 v=0
119326 On ch=2 n=c5 v=0
119328 On ch=1 n=a6 v=92
119392 On ch=2 n=a5 v=92
119392 On ch=2 n=a5 v=92
119454 On ch=2 n=a5 v=0
119456 On ch=2 n=c6 v=92
119518 On ch=2 n=c6 v=0
119520 On ch=2 n=d#6 v=92
119582 On ch=2 n=d#6 v=0
119584 On ch=2 n=c6 v=92
119646 On ch=2 n=c6 v=0
119648 On ch=2 n=f5 v=92
119664 On ch=1 n=a6 v=0
119680 On ch=2 n=a5 v=0
119710 On ch=2 n=f5 v=0
119712 On ch=1 n=d#6 v=92
119712 On ch=1 n=g6 v=92
119712 On ch=2 n=a#5 v=92
119712 On ch=2 n=a#5 v=92
119774 On ch=2 n=a#5 v=0
119776 On ch=2 n=d#5 v=92
119806 On ch=1 n=g6 v=0
119808 On ch=1 n=a#6 v=92
119838 On ch=2 n=d#5 v=0
119840 On ch=2 n=d5 v=92
119872 On ch=2 n=a#5 v=0
119902 On ch=1 n=a#6 v=0
119902 On ch=2 n=d5 v=0
119904 Par ch=2 c=64 v=0
119904 Par ch=2 c=64 v=127
119904 On ch=1 n=a6 v=92
119904 On ch=2 n=a5 v=92
119904 On ch=2 n=a5 v=92
119966 On ch=2 n=a5 v=0
119968 On ch=2 n=d#5 v=92
119998 On ch=1 n=a6 v=0
120000 On ch=1 n=g6 v=92
120030 On ch=2 n=d#5 v=0
120032 On ch=2 n=c5 v=92
120064 On ch=1 n=e6 v=0
120064 On ch=2 n=a5 v=0
120094 On ch=1 n=g6 v=0
120096 On ch=1 n=a5 v=92
120096 On ch=1 n=d#6 v=92
120096 On ch=1 n=a6 v=92
120158 On ch=2 n=c5 v=0
120160 On ch=2 n=d5 v=89
120222 On ch=2 n=d5 v=0
120224 On ch=2 n=c5 v=86
120286 On ch=2 n=c5 v=0
120288 On ch=2 n=d#5 v=83
120350 On ch=2 n=d#5 v=0
120352 On ch=2 n=c5 v=80
120414 On ch=2 n=c5 v=0
120416 On ch=2 n=f4 v=76
120432 On ch=1 n=a5 v=0
120432 On ch=1 n=d#6 v=0
120432 On ch=1 n=a6 v=0
120478 On ch=2 n=f4 v=0
120480 On ch=1 n=g5 v=71
120480 On ch=1 n=d#6 v=71
120480 On ch=1 n=g6 v=71
120480 On ch=2 n=a#4 v=72
120480 On ch=2 n=a#4 v=72
120542 On ch=2 n=a#4 v=0
120544 On ch=2 n=d#4 v=68
120574 On ch=1 n=g5 v=0
120574 On ch=1 n=g6 v=0
120576 On ch=1 n=a6 v=66
120606 On ch=2 n=d#4 v=0
120608 On ch=2 n=c4 v=64
120640 On ch=2 n=a#4 v=0
120670 On ch=1 n=d#6 v=0
120670 On ch=1 n=a6 v=0
120670 On ch=2 n=c4 v=0
120672 Par ch=2 c=64 v=0
120672 Par ch=2 c=64 v=127
120672 On ch=1 n=f5 v=60
120672 On ch=1 n=d#6 v=60
120672 On ch=1 n=f6 v=60
120672 On ch=2 n=a4 v=60
120672 On ch=2 n=a4 v=60
120734 On ch=2 n=a4 v=0
120736 On ch=2 n=c4 v=60
120798 On ch=2 n=c4 v=0
120800 On ch=2 n=f3 v=60
120832 On ch=1 n=f5 v=0
120832 On ch=1 n=d#6 v=0
120832 On ch=1 n=f6 v=0
120832 On ch=2 n=a4 v=0
120862 On ch=2 n=f3 v=0
120864 On ch=1 n=d#7 v=92
120928 On ch=2 n=f5 v=92
120992 On ch=2 n=a5 v=92
121054 On ch=2 n=a5 v=0
121056 On ch=2 n=d#6 v=92
121118 On ch=2 n=d#6 v=0
121120 On ch=2 n=a5 v=92
121150 On ch=1 n=d#7 v=0
121152 On ch=1 n=d7 v=92
121182 On ch=2 n=a5 v=0
121184 On ch=2 n=c5 v=92
121216 On ch=2 n=f5 v=0
121246 On ch=1 n=d7 v=0
121246 On ch=2 n=c5 v=0
121248 On ch=1 n=c7 v=92
121312 On ch=2 n=g5 v=92
121376 On ch=2 n=a#5 v=92
121438 On ch=2 n=a#5 v=0
121440 Par ch=2 c=64 v=0
121440 Par ch=2 c=64 v=127
121440 On ch=2 n=d#6 v=92
121502 On ch=2 n=d#6 v=0
121504 On ch=2 n=a#5 v=92
121534 On ch=1 n=c7 v=0
121536 On ch=1 n=a#6 v=92
121566 On ch=2 n=a#5 v=0
121568 On ch=2 n=c5 v=92
121600 On ch=2 n=g5 v=0
121630 On ch=1 n=a#6 v=0
121630 On ch=2 n=c5 v=0
121632 On ch=1 n=a6 v=92
121696 On ch=2 n=a5 v=92
121696 On ch=2 n=a5 v=92
121758 On ch=2 n=a5 v=0
121760 On ch=2 n=c6 v=92
121822 On ch=2 n=c6 v=0
121824 Tempo 375000
121824 Tempo 375000
121824 On ch=2 n=d#6 v=92
121828 Tempo 372670
121828 Tempo 372670
121833 Tempo 370370
121833 Tempo 370370
121838 Tempo 368098
121838 Tempo 368098
121843 Tempo 365853
121843 Tempo 365853
121848 Tempo 363636
121848 Tempo 363636
121852 Tempo 361445
121852 Tempo 361445
121857 Tempo 359281
121857 Tempo 359281
121862 Tempo 357142
121862 Tempo 357142
121867 Tempo 355029
121867 Tempo 355029
121872 Tempo 352941
121872 Tempo 352941
121876 Tempo 350877
121876 Tempo 350877
121881 Tempo 348837
121881 Tempo 348837
121886 On ch=2 n=d#6 v=0
121886 Tempo 346820
121886 Tempo 346820
121888 On ch=2 n=c6 v=92
121891 Tempo 344827
121891 Tempo 344827
121896 Tempo 342857
121896 Tempo 342857
121900 Tempo 340909
121900 Tempo 340909
121905 Tempo 338983
121905 Tempo 338983
121910 Tempo 337078
121910 Tempo 337078
121915 Tempo 335195
121915 Tempo 335195
121918 On ch=1 n=a6 v=0
121920 Tempo 333333
121920 Tempo 333333
121920 On ch=1 n=c7 v=92
121924 Tempo 331491
121924 Tempo 331491
121929 Tempo 329670
121929 Tempo 329670
121934 Tempo 327868
121934 Tempo 327868
121939 Tempo 326086
121939 Tempo 326086
121944 Tempo 324324
121944 Tempo 324324
121948 Tempo 322580
121948 Tempo 322580
121950 On ch=2 n=c6 v=0
121952 On ch=2 n=f5 v=92
121953 Tempo 320855
121953 Tempo 320855
121958 Tempo 319148
121958 Tempo 319148
121963 Tempo 317460
121963 Tempo 317460
121968 Tempo 315789
121968 Tempo 315789
121972 Tempo 314136
121972 Tempo 314136
121977 Tempo 312500
121977 Tempo 312500
121982 Tempo 310880
121982 Tempo 310880
121984 On ch=2 n=a5 v=0
121987 Tempo 309278
121987 Tempo 309278
121992 Tempo 307692
121992 Tempo 307692
121996 Tempo 306122
121996 Tempo 306122
122001 Tempo 304568
122001 Tempo 304568
122006 Tempo 303030
122006 Tempo 303030
122011 Tempo 301507
122011 Tempo 301507
122014 On ch=1 n=c7 v=0
122014 On ch=2 n=f5 v=0
122016 Tempo 300000
122016 Tempo 300000
122016 On ch=1 n=d#6 v=92
122016 On ch=1 n=g6 v=92
122016 On ch=2 n=d6 v=92
122016 On ch=2 n=d6 v=92
122078 On ch=2 n=d6 v=0
122080 On ch=2 n=g5 v=92
122110 On ch=1 n=g6 v=0
122112 On ch=1 n=a#6 v=92
122142 On ch=2 n=g5 v=0
122144 On ch=2 n=d#5 v=92
122176 On ch=2 n=d6 v=0
122206 On ch=1 n=a#6 v=0
122206 On ch=2 n=d#5 v=0
122208 Par ch=2 c=64 v=0
122208 Par ch=2 c=64 v=127
122208 On ch=1 n=a6 v=92
122208 On ch=2 n=c6 v=92
122208 On ch=2 n=c6 v=92
122270 On ch=2 n=c6 v=0
122272 On ch=2 n=d#5 v=92
122302 On ch=1 n=a6 v=0
122304 On ch=1 n=g6 v=92
122334 On ch=2 n=d#5 v=0
122336 On ch=2 n=c5 v=92
122368 On ch=1 n=e6 v=0
122368 On ch=2 n=c6 v=0
122398 On ch=1 n=g6 v=0
122400 On ch=1 n=a5 v=92
122400 On ch=1 n=d#6 v=92
122400 On ch=1 n=a6 v=92
122462 On ch=2 n=c5 v=0
122464 On ch=2 n=d5 v=89
122526 On ch=2 n=d5 v=0
122528 On ch=2 n=c5 v=86
122590 On ch=2 n=c5 v=0
122592 On ch=2 n=d#5 v=83
122654 On ch=2 n=d#5 v=0
122656 On ch=2 n=c5 v=80
122718 On ch=2 n=c5 v=0
122720 On ch=2 n=f4 v=76
122736 On ch=1 n=a5 v=0
122736 On ch=1 n=d#6 v=0
122736 On ch=1 n=a6 v=0
122782 On ch=2 n=f4 v=0
122784 On ch=1 n=d#6 v=71
122784 On ch=1 n=g6 v=71
122784 On ch=2 n=a#5 v=72
122784 On ch=2 n=a#5 v=72
122846 On ch=2 n=a#5 v=0
122848 On ch=2 n=d#5 v=68
122878 On ch=1 n=g6 v=0
122880 On ch=1 n=a6 v=66
122910 On ch=2 n=d#5 v=0
122912 On ch=2 n=c5 v=64
122944 On ch=2 n=a#5 v=0
122974 On ch=1 n=a6 v=0
122974 On ch=2 n=c5 v=0
122976 Par ch=2 c=64 v=0
122976 Par ch=2 c=64 v=127
122976 On ch=1 n=f6 v=60
122976 On ch=2 n=a5 v=60
122976 On ch=2 n=a5 v=60
123038 On ch=2 n=a5 v=0
123040 On ch=2 n=c5 v=60
123070 On ch=1 n=f6 v=0
123072 On ch=1 n=g6 v=60
123102 On ch=2 n=c5 v=0
123104 On ch=2 n=f4 v=60
123136 On ch=1 n=e6 v=0
123136 On ch=2 n=a5 v=0
123166 On ch=1 n=g6 v=0
123166 On ch=2 n=f4 v=0
123168 On ch=1 n=b5 v=60
123168 On ch=1 n=d#6 v=60
123168 On ch=1 n=g#6 v=60
123168 On ch=2 n=g#5 v=60
123168 On ch=2 n=g#5 v=60
123230 On ch=2 n=g#5 v=0
123232 On ch=2 n=d#5 v=62
123294 On ch=2 n=d#5 v=0
123296 On ch=2 n=b4 v=64
123328 On ch=2 n=g#5 v=0
123358 On ch=2 n=b4 v=0
123360 On ch=2 n=g5 v=66
123360 On ch=2 n=g5 v=66
123422 On ch=2 n=g5 v=0
123424 On ch=2 n=b4 v=68
123454 On ch=1 n=g#6 v=0
123456 On ch=1 n=g6 v=69
123486 On ch=2 n=b4 v=0
123488 On ch=2 n=g#4 v=70
123504 On ch=1 n=b5 v=0
123504 On ch=1 n=d#6 v=0
123520 On ch=2 n=g5 v=0
123550 On ch=1 n=g6 v=0
123550 On ch=2 n=g#4 v=0
123552 On ch=1 n=g#5 v=72
123552 On ch=1 n=b5 v=72
123552 On ch=1 n=g#6 v=72
123552 On ch=2 n=f5 v=72
123552 On ch=2 n=f5 v=72
123614 On ch=2 n=f5 v=0
123616 On ch=2 n=g#4 v=74
123678 On ch=2 n=g#4 v=0
123680 On ch=2 n=a#3 v=76
123712 On ch=1 n=b5 v=0
123712 On ch=2 n=f5 v=0
123742 On ch=2 n=a#3 v=0
123744 Par ch=2 c=64 v=0
123744 Par ch=2 c=64 v=127
123744 On ch=1 n=a#5 v=78
123744 On ch=2 n=d#5 v=78
123744 On ch=2 n=d#5 v=78
123806 On ch=2 n=d#5 v=0
123808 On ch=2 n=a#4 v=80
123838 On ch=1 n=g#5 v=0
123838 On ch=1 n=g#6 v=0
123840 On ch=1 n=g5 v=81
123840 On ch=1 n=g6 v=81
123870 On ch=2 n=a#4 v=0
123872 On ch=2 n=g#4 v=82
123904 On ch=2 n=d#5 v=0
123934 On ch=1 n=g5 v=0
123934 On ch=1 n=a#5 v=0
123934 On ch=1 n=g6 v=0
123934 On ch=2 n=g#4 v=0
123936 On ch=1 n=g#5 v=84
123936 On ch=1 n=b5 v=84
123936 On ch=1 n=g#6 v=84
123936 On ch=2 n=d5 v=84
123936 On ch=2 n=d5 v=84
123998 On ch=2 n=d5 v=0
124000 On ch=2 n=g#4 v=86
124062 On ch=2 n=g#4 v=0
124064 On ch=2 n=f4 v=88
124096 On ch=1 n=b5 v=0
124096 On ch=2 n=d5 v=0
124126 On ch=2 n=f4 v=0
124128 On ch=1 n=c6 v=90
124128 On ch=2 n=c5 v=90
124128 On ch=2 n=c5 v=90
124190 On ch=2 n=c5 v=0
124192 On ch=2 n=g#4 v=92
124222 On ch=1 n=g#6 v=0
124222 On ch=1 n=g#5 v=0
124224 On ch=1 n=g6 v=93
124224 On ch=1 n=g5 v=93
124254 On ch=2 n=g#4 v=0
124256 On ch=2 n=d#4 v=94
124288 On ch=2 n=c5 v=0
124318 On ch=1 n=g6 v=0
124318 On ch=1 n=c6 v=0
124318 On ch=1 n=g5 v=0
124318 On ch=2 n=d#4 v=0
124320 On ch=1 n=g#6 v=96
124320 On ch=1 n=d6 v=96
124320 On ch=1 n=g#5 v=96
124320 On ch=2 n=a#4 v=96
124320 On ch=2 n=a#4 v=96
124382 On ch=2 n=a#4 v=0
124384 On ch=2 n=d4 v=98
124414 On ch=1 n=g#5 v=0
124414 On ch=1 n=g#6 v=0
124416 On ch=1 n=a#5 v=99
124416 On ch=1 n=a#6 v=99
124446 On ch=2 n=d4 v=0
124448 On ch=2 n=a#3 v=100
124480 On ch=2 n=a#4 v=0
124510 On ch=1 n=a#5 v=0
124510 On ch=1 n=d6 v=0
124510 On ch=1 n=a#6 v=0
124510 On ch=2 n=a#3 v=0
124512 Par ch=2 c=64 v=0
124512 Par ch=2 c=64 v=127
124512 On ch=1 n=g5 v=102
124512 On ch=1 n=d#6 v=102
124512 On ch=1 n=g6 v=102
124512 On ch=2 n=d#3 v=102
124574 On ch=2 n=d#3 v=0
124576 On ch=2 n=a#3 v=104
124606 On ch=1 n=g5 v=0
124606 On ch=1 n=g6 v=0
124608 On ch=1 n=g#5 v=105
124608 On ch=1 n=g#6 v=105
124638 On ch=2 n=a#3 v=0
124640 On ch=2 n=g4 v=106
124702 On ch=1 n=g#5 v=0
124702 On ch=1 n=d#6 v=0
124702 On ch=1 n=g#6 v=0
124702 On ch=2 n=g4 v=0
124704 On ch=1 n=g6 v=108
124704 On ch=1 n=a#6 v=108
124704 On ch=2 n=a#4 v=108
124704 On ch=2 n=d#5 v=108
124704 On ch=2 n=g5 v=108
124766 On ch=1 n=g6 v=0
124768 On ch=1 n=a#5 v=108
124830 On ch=1 n=a#5 v=0
124832 On ch=1 n=g6 v=108
124864 On ch=2 n=g5 v=0
124894 On ch=1 n=g6 v=0
124896 On ch=1 n=f#6 v=108
124896 On ch=2 n=a4 v=108
124896 On ch=2 n=f#5 v=108
124958 On ch=1 n=f#6 v=0
124960 On ch=1 n=a#5 v=108
125022 On ch=1 n=a#5 v=0
125024 On ch=1 n=a6 v=108
125024 On ch=1 n=a6 v=108
125040 On ch=2 n=a#4 v=0
125040 On ch=2 n=d#5 v=0
125056 On ch=1 n=a#6 v=0
125056 On ch=2 n=a4 v=0
125056 On ch=2 n=f#5 v=0
125086 On ch=1 n=a6 v=0
125088 On ch=1 n=f6 v=108
125088 On ch=1 n=a#6 v=108
125088 On ch=2 n=g#4 v=108
125088 On ch=2 n=a#4 v=108
125088 On ch=2 n=f5 v=108
125118 On ch=1 n=a6 v=0
125150 On ch=1 n=f6 v=0
125152 On ch=1 n=a#5 v=108
125214 On ch=1 n=a#5 v=0
125216 On ch=1 n=e6 v=108
125248 On ch=2 n=g#4 v=0
125248 On ch=2 n=a#4 v=0
125248 On ch=2 n=f5 v=0
125278 On ch=1 n=e6 v=0
125280 Par ch=2 c=64 v=0
125280 Par ch=2 c=64 v=127
125280 On ch=1 n=f6 v=108
125280 On ch=2 n=d#4 v=108
125342 On ch=1 n=f6 v=0
125342 On ch=2 n=d#4 v=0
125344 On ch=1 n=a#5 v=108
125344 On ch=2 n=g#4 v=108
125406 On ch=1 n=a#5 v=0
125406 On ch=2 n=g#4 v=0
125408 On ch=1 n=a6 v=108
125408 On ch=1 n=a6 v=108
125408 On ch=2 n=f5 v=108
125440 On ch=1 n=a#6 v=0
125470 On ch=1 n=a6 v=0
125470 On ch=2 n=f5 v=0
125472 On ch=1 n=e6 v=108
125472 On ch=1 n=a#6 v=108
125472 On ch=2 n=g#4 v=108
125472 On ch=2 n=a#4 v=108
125472 On ch=2 n=e5 v=108
125502 On ch=1 n=a6 v=0
125534 On ch=1 n=e6 v=0
125536 On ch=1 n=a#5 v=108
125598 On ch=1 n=a#5 v=0
125600 On ch=1 n=e6 v=108
125632 On ch=2 n=g#4 v=0
125632 On ch=2 n=a#4 v=0
125632 On ch=2 n=e5 v=0
125662 On ch=1 n=e6 v=0
125664 On ch=1 n=d#6 v=108
125664 On ch=2 n=g4 v=108
125664 On ch=2 n=d#5 v=108
125726 On ch=1 n=d#6 v=0
125728 On ch=1 n=a#5 v=108
125792 On ch=1 n=a6 v=108
125792 On ch=1 n=a6 v=108
125824 On ch=1 n=a#6 v=0
125824 On ch=2 n=g4 v=0
125824 On ch=2 n=d#5 v=0
125854 On ch=1 n=a6 v=0
125856 On ch=1 n=c#6 v=108
125856 On ch=1 n=a#6 v=108
125856 On ch=2 n=f4 v=108
125856 On ch=2 n=c#5 v=108
125886 On ch=1 n=a6 v=0
125918 On ch=2 n=f4 v=0
125920 On ch=2 n=e4 v=108
125950 On ch=1 n=a#5 v=0
125950 On ch=1 n=c#6 v=0
125950 On ch=1 n=a#6 v=0
125952 On ch=1 n=c6 v=108
125952 On ch=1 n=c7 v=108
125982 On ch=2 n=e4 v=0
125984 On ch=2 n=d#4 v=108
126016 On ch=2 n=c#5 v=0
126046 On ch=1 n=c6 v=0
126046 On ch=1 n=c7 v=0
126048 Par ch=2 c=64 v=0
126048 Par ch=2 c=64 v=127
126048 On ch=1 n=a5 v=108
126048 On ch=1 n=c6 v=108
126048 On ch=1 n=a6 v=108
126048 On ch=2 n=g#4 v=108
126048 On ch=2 n=c5 v=108
126142 On ch=1 n=a5 v=0
126142 On ch=1 n=a6 v=0
126142 On ch=2 n=d#4 v=0
126142 On ch=2 n=g#4 v=0
126142 On ch=2 n=c5 v=0
126144 On ch=1 n=a#5 v=108
126144 On ch=1 n=a#6 v=108
126144 On ch=2 n=d#3 v=108
126238 On ch=1 n=a#5 v=0
126238 On ch=1 n=c6 v=0
126238 On ch=1 n=a#6 v=0
126238 On ch=2 n=d#3 v=0
126240 On ch=1 n=a6 v=108
126240 On ch=1 n=c7 v=108
126240 On ch=2 n=c5 v=108
126240 On ch=2 n=d#5 v=108
126240 On ch=2 n=g#5 v=108
126302 On ch=1 n=a6 v=0
126304 On ch=1 n=c6 v=108
126366 On ch=1 n=c6 v=0
126368 On ch=1 n=a6 v=108
126400 On ch=2 n=g#5 v=0
126430 On ch=1 n=a6 v=0
126432 On ch=1 n=g6 v=108
126432 On ch=2 n=b4 v=108
126432 On ch=2 n=g5 v=108
126494 On ch=1 n=g6 v=0
126496 On ch=1 n=c6 v=108
126558 On ch=1 n=c6 v=0
126560 On ch=1 n=b6 v=108
126560 On ch=1 n=b6 v=108
126576 On ch=2 n=c5 v=0
126576 On ch=2 n=d#5 v=0
126592 On ch=1 n=c7 v=0
126592 On ch=2 n=b4 v=0
126592 On ch=2 n=g5 v=0
126622 On ch=1 n=b6 v=0
126624 On ch=1 n=f#6 v=108
126624 On ch=1 n=c7 v=108
126624 On ch=2 n=a#4 v=108
126624 On ch=2 n=c5 v=108
126624 On ch=2 n=d#5 v=108
126624 On ch=2 n=f#5 v=108
126654 On ch=1 n=b6 v=0
126686 On ch=1 n=f#6 v=0
126688 On ch=1 n=c6 v=108
126750 On ch=1 n=c6 v=0
126752 On ch=1 n=f6 v=108
126784 On ch=2 n=a#4 v=0
126784 On ch=2 n=c5 v=0
126784 On ch=2 n=d#5 v=0
126784 On ch=2 n=f#5 v=0
126814 On ch=1 n=f6 v=0
126816 Par ch=2 c=64 v=0
126816 Par ch=2 c=64 v=127
126816 On ch=1 n=f#6 v=108
126816 On ch=2 n=d#4 v=108
126878 On ch=1 n=f#6 v=0
126878 On ch=2 n=d#4 v=0
126880 On ch=1 n=c6 v=108
126880 On ch=2 n=a#4 v=108
126942 On ch=1 n=c6 v=0
126942 On ch=2 n=a#4 v=0
126944 On ch=1 n=b6 v=108
126944 On ch=1 n=b6 v=108
126944 On ch=2 n=f#5 v=108
126976 On ch=1 n=c7 v=0
127006 On ch=1 n=b6 v=0
127006 On ch=2 n=f#5 v=0
127008 On ch=1 n=f6 v=108
127008 On ch=1 n=c7 v=108
127008 On ch=2 n=a4 v=108
127008 On ch=2 n=c5 v=108
127008 On ch=2 n=f5 v=108
127038 On ch=1 n=b6 v=0
127070 On ch=1 n=f6 v=0
127072 On ch=1 n=c6 v=108
127134 On ch=1 n=c6 v=0
127136 On ch=1 n=f6 v=108
127168 On ch=2 n=a4 v=0
127168 On ch=2 n=f5 v=0
127198 On ch=1 n=f6 v=0
127200 On ch=1 n=e6 v=108
127200 On ch=2 n=g#4 v=108
127200 On ch=2 n=e5 v=108
127262 On ch=1 n=e6 v=0
127264 On ch=1 n=c6 v=108
127328 On ch=1 n=a#6 v=108
127328 On ch=1 n=a#6 v=108
127360 On ch=1 n=c7 v=0
127360 On ch=2 n=g#4 v=0
127360 On ch=2 n=c5 v=0
127360 On ch=2 n=e5 v=0
127390 On ch=1 n=a#6 v=0
127392 On ch=1 n=d#6 v=108
127392 On ch=1 n=c7 v=108
127392 On ch=2 n=f#4 v=108
127392 On ch=2 n=d#5 v=108
127422 On ch=1 n=a#6 v=0
127454 On ch=2 n=f#4 v=0
127456 On ch=2 n=f#4 v=108
127486 On ch=1 n=c6 v=0
127486 On ch=1 n=d#6 v=0
127486 On ch=1 n=c7 v=0
127488 On ch=1 n=d6 v=108
127488 On ch=1 n=d7 v=108
127518 On ch=2 n=f#4 v=0
127520 On ch=2 n=e4 v=108
127552 On ch=2 n=d#5 v=0
127582 On ch=1 n=d6 v=0
127582 On ch=1 n=d7 v=0
127584 Par ch=2 c=64 v=0
127584 TimeSig 3/2 24 8
127584 Par ch=2 c=64 v=127
127584 On ch=1 n=a#5 v=108
127584 On ch=1 n=a#6 v=108
127584 On ch=2 n=g#4 v=108
127584 On ch=2 n=d5 v=108
127678 On ch=1 n=a#5 v=0
127678 On ch=1 n=a#6 v=0
127678 On ch=2 n=f4 v=0
127678 On ch=2 n=g#4 v=0
127678 On ch=2 n=d5 v=0
127680 On ch=1 n=c6 v=108
127680 On ch=1 n=c7 v=108
127680 On ch=2 n=d#3 v=108
127680 On ch=2 n=a#3 v=108
127774 On ch=1 n=c6 v=0
127774 On ch=1 n=c7 v=0
127774 On ch=2 n=d#3 v=0
127774 On ch=2 n=a#3 v=0
127776 On ch=1 n=a#6 v=108
127776 On ch=1 n=d7 v=108
127776 On ch=2 n=d5 v=108
127776 On ch=2 n=f5 v=108
127776 On ch=2 n=a#5 v=108
127838 On ch=1 n=a#6 v=0
127840 On ch=1 n=d6 v=108
127902 On ch=1 n=d6 v=0
127904 On ch=1 n=a#6 v=108
127936 On ch=2 n=a#5 v=0
127966 On ch=1 n=a#6 v=0
127968 On ch=1 n=a6 v=108
127968 On ch=2 n=c#5 v=108
127968 On ch=2 n=a5 v=108
128030 On ch=1 n=a6 v=0
128032 On ch=1 n=d6 v=108
128094 On ch=1 n=d6 v=0
128096 On ch=1 n=c#7 v=108
128096 On ch=1 n=c#7 v=108
128112 On ch=2 n=d5 v=0
128112 On ch=2 n=f5 v=0
128128 On ch=1 n=d7 v=0
128128 On ch=2 n=c#5 v=0
128128 On ch=2 n=a5 v=0
128158 On ch=1 n=c#7 v=0
128160 On ch=1 n=g#6 v=108
128160 On ch=1 n=d7 v=108
128160 On ch=2 n=c5 v=108
128160 On ch=2 n=d5 v=108
128160 On ch=2 n=f5 v=108
128160 On ch=2 n=g#5 v=108
128190 On ch=1 n=c#7 v=0
128222 On ch=1 n=g#6 v=0
128224 On ch=1 n=d6 v=108
128286 On ch=1 n=d6 v=0
128288 On ch=1 n=g6 v=108
128320 On ch=2 n=c5 v=0
128350 On ch=1 n=g6 v=0
128352 On ch=1 n=g#6 v=108
128352 On ch=2 n=b4 v=108
128414 On ch=1 n=g#6 v=0
128416 On ch=1 n=d6 v=108
128478 On ch=1 n=d6 v=0
128480 On ch=1 n=c#7 v=108
128480 On ch=1 n=c#7 v=108
128512 On ch=1 n=d7 v=0
128512 On ch=2 n=g#5 v=0
128542 On ch=1 n=c#7 v=0
128544 On ch=1 n=g6 v=108
128544 On ch=1 n=d7 v=108
128544 On ch=2 n=g5 v=108
128574 On ch=1 n=c#7 v=0
128606 On ch=1 n=g6 v=0
128608 On ch=1 n=d6 v=108
128670 On ch=1 n=d6 v=0
128672 On ch=1 n=g6 v=108
128688 On ch=2 n=b4 v=0
128688 On ch=2 n=d5 v=0
128688 On ch=2 n=f5 v=0
128704 On ch=1 n=d7 v=0
128704 On ch=2 n=g5 v=0
128734 On ch=1 n=g6 v=0
128736 Par ch=2 c=64 v=0
128736 Par ch=2 c=64 v=127
128736 On ch=1 n=c#6 v=108
128736 On ch=1 n=c#7 v=108
128736 On ch=2 n=d#4 v=108
128736 On ch=2 n=a#4 v=108
128736 On ch=2 n=c#5 v=108
128736 On ch=2 n=g5 v=108
128784 Tempo 301507
128784 Tempo 301507
128798 On ch=1 n=c#6 v=0
128800 On ch=1 n=g6 v=108
128832 Tempo 303030
128832 Tempo 303030
128862 On ch=1 n=g6 v=0
128864 On ch=1 n=d6 v=108
128864 On ch=1 n=d7 v=108
128880 Tempo 304568
128880 Tempo 304568
128896 On ch=1 n=c#7 v=0
128896 On ch=2 n=d#4 v=0
128896 On ch=2 n=a#4 v=0
128896 On ch=2 n=c#5 v=0
128896 On ch=2 n=g5 v=0
128926 On ch=1 n=d6 v=0
128928 Tempo 306122
128928 Tempo 306122
128928 On ch=1 n=c#7 v=108
128928 On ch=1 n=d#7 v=108
128928 On ch=2 n=f5 v=108
128928 On ch=2 n=g5 v=108
128928 On ch=2 n=c#6 v=108
128976 Tempo 307692
128976 Tempo 307692
128990 On ch=1 n=c#7 v=0
128992 On ch=1 n=d#6 v=108
129024 On ch=1 n=d7 v=0
129024 Tempo 309278
129024 Tempo 309278
129054 On ch=1 n=d#6 v=0
129056 On ch=1 n=c#7 v=108
129072 Tempo 310880
129072 Tempo 310880
129088 On ch=2 n=f5 v=0
129088 On ch=2 n=c#6 v=0
129118 On ch=1 n=c#7 v=0
129120 Tempo 312500
129120 Tempo 312500
129120 On ch=1 n=c7 v=108
129120 On ch=2 n=d#5 v=108
129120 On ch=2 n=c6 v=108
129168 Tempo 314136
129168 Tempo 314136
129182 On ch=1 n=c7 v=0
129184 On ch=1 n=d#6 v=108
129216 Tempo 315789
129216 Tempo 315789
129246 On ch=1 n=d#6 v=0
129248 On ch=1 n=d7 v=108
129248 On ch=1 n=d7 v=108
129264 Tempo 317460
129264 Tempo 317460
129280 On ch=1 n=d#7 v=0
129280 On ch=2 n=d#5 v=0
129280 On ch=2 n=g5 v=0
129280 On ch=2 n=c6 v=0
129310 On ch=1 n=d7 v=0
129312 Tempo 319148
129312 Tempo 319148
129312 On ch=1 n=b6 v=108
129312 On ch=1 n=d#7 v=108
129312 On ch=2 n=d5 v=108
129312 On ch=2 n=d#5 v=108
129312 On ch=2 n=g5 v=108
129312 On ch=2 n=b5 v=108
129360 Tempo 320855
129360 Tempo 320855
129374 On ch=1 n=b6 v=0
129376 On ch=1 n=d#6 v=108
129408 On ch=1 n=d7 v=0
129408 Tempo 322580
129408 Tempo 322580
129438 On ch=1 n=d#6 v=0
129440 On ch=1 n=a#6 v=108
129456 Tempo 324324
129456 Tempo 324324
129502 On ch=1 n=a#6 v=0
129504 Tempo 326086
129504 Tempo 326086
129504 On ch=1 n=b6 v=108
129552 Tempo 327868
129552 Tempo 327868
129566 On ch=1 n=b6 v=0
129568 On ch=1 n=d#6 v=108
129600 Tempo 329670
129600 Tempo 329670
129630 On ch=1 n=d#6 v=0
129632 On ch=1 n=d7 v=108
129632 On ch=1 n=d7 v=108
129648 Tempo 331491
129648 Tempo 331491
129664 On ch=1 n=d#7 v=0
129664 On ch=2 n=b5 v=0
129694 On ch=1 n=d7 v=0
129696 Tempo 333333
129696 Tempo 333333
129696 On ch=1 n=a#6 v=108
129696 On ch=1 n=d#7 v=108
129696 On ch=2 n=a#5 v=108
129726 On ch=1 n=d7 v=0
129758 On ch=1 n=a#6 v=0
129760 On ch=1 n=d#6 v=108
129822 On ch=1 n=d#6 v=0
129824 On ch=1 n=a#6 v=108
129840 On ch=2 n=d5 v=0
129840 On ch=2 n=d#5 v=0
129840 On ch=2 n=g5 v=0
129856 On ch=1 n=d#7 v=0
129856 On ch=2 n=a#5 v=0
129886 On ch=1 n=a#6 v=0
129888 Par ch=2 c=64 v=0
129888 Tempo 300000
129888 Tempo 300000
129888 TimeSig 2/2 24 8
129888 Par ch=2 c=64 v=127
129888 On ch=1 n=a#5 v=60
129888 On ch=2 n=a#4 v=60
129888 On ch=2 n=a#4 v=60
129950 On ch=2 n=a#4 v=0
129952 On ch=2 n=d#4 v=60
130014 On ch=2 n=d#4 v=0
130016 On ch=2 n=g#3 v=60
130078 On ch=2 n=g#3 v=0
130080 On ch=1 n=d6 v=61
130080 On ch=1 n=d6 v=61
130142 On ch=1 n=d6 v=0
130144 On ch=1 n=d5 v=61
130182 Tempo 298507
130182 Tempo 298507
130206 On ch=1 n=d5 v=0
130208 On ch=1 n=a#5 v=61
130224 On ch=1 n=a#5 v=0
130224 On ch=2 n=a#4 v=0
130240 On ch=1 n=d6 v=0
130270 On ch=1 n=a#5 v=0
130272 On ch=1 n=b5 v=61
130272 On ch=2 n=b4 v=61
130272 On ch=2 n=b4 v=61
130334 On ch=2 n=b4 v=0
130336 On ch=2 n=d#4 v=61
130398 On ch=2 n=d#4 v=0
130400 On ch=2 n=g#4 v=61
130462 On ch=2 n=g#4 v=0
130464 On ch=1 n=d#6 v=62
130464 On ch=1 n=d#6 v=62
130476 Tempo 297029
130476 Tempo 297029
130526 On ch=1 n=d#6 v=0
130528 On ch=1 n=d#5 v=62
130590 On ch=1 n=d#5 v=0
130592 On ch=1 n=g#5 v=62
130608 On ch=1 n=b5 v=0
130608 On ch=2 n=b4 v=0
130624 On ch=1 n=d#6 v=0
130654 On ch=1 n=g#5 v=0
130656 Par ch=2 c=64 v=0
130656 Par ch=2 c=64 v=127
130656 On ch=1 n=c6 v=62
130656 On ch=2 n=c5 v=62
130656 On ch=2 n=c5 v=62
130718 On ch=2 n=c5 v=0
130720 On ch=2 n=e4 v=62
130771 Tempo 295566
130771 Tempo 295566
130782 On ch=2 n=e4 v=0
130784 On ch=2 n=g#4 v=62
130846 On ch=2 n=g#4 v=0
130848 On ch=1 n=e6 v=63
130848 On ch=1 n=e6 v=63
130910 On ch=1 n=e6 v=0
130912 On ch=1 n=e5 v=63
130974 On ch=1 n=e5 v=0
130976 On ch=1 n=g#5 v=63
130992 On ch=1 n=c6 v=0
130992 On ch=2 n=c5 v=0
131008 On ch=1 n=e6 v=0
131038 On ch=1 n=g#5 v=0
131040 On ch=1 n=c#6 v=63
131040 On ch=2 n=c#5 v=63
131040 On ch=2 n=c#5 v=63
131065 Tempo 294117
131065 Tempo 294117
131102 On ch=2 n=c#5 v=0
131104 On ch=2 n=f4 v=63
131166 On ch=2 n=f4 v=0
131168 On ch=2 n=g#4 v=63
131230 On ch=2 n=g#4 v=0
131232 On ch=1 n=f6 v=64
131232 On ch=1 n=f6 v=64
131294 On ch=1 n=f6 v=0
131296 On ch=1 n=f5 v=64
131358 On ch=1 n=f5 v=0
131359 Tempo 292682
131359 Tempo 292682
131360 On ch=1 n=g#5 v=64
131376 On ch=1 n=c#6 v=0
131376 On ch=2 n=c#5 v=0
131392 On ch=1 n=f6 v=0
131422 On ch=1 n=g#5 v=0
131424 Par ch=2 c=64 v=0
131424 Par ch=2 c=64 v=127
131424 On ch=1 n=d6 v=64
131424 On ch=2 n=e3 v=64
131424 On ch=2 n=b3 v=64
131446 On ch=2 n=e3 v=0
131446 On ch=2 n=b3 v=0
131448 On ch=2 n=d5 v=64
131448 On ch=2 n=d5 v=64
131486 On ch=2 n=d5 v=0
131488 On ch=2 n=f#4 v=64
131550 On ch=2 n=f#4 v=0
131552 On ch=2 n=g#4 v=64
131614 On ch=2 n=g#4 v=0
131616 On ch=1 n=f#6 v=65
131616 On ch=1 n=f#6 v=65
131654 Tempo 291262
131654 Tempo 291262
131678 On ch=1 n=f#6 v=0
131680 On ch=1 n=f#5 v=65
131742 On ch=1 n=f#5 v=0
131744 On ch=1 n=g#5 v=65
131760 On ch=1 n=d6 v=0
131776 On ch=1 n=f#6 v=0
131776 On ch=2 n=d5 v=0
131806 On ch=1 n=g#5 v=0
131808 On ch=1 n=c#6 v=65
131808 On ch=2 n=c#5 v=65
131808 On ch=2 n=c#5 v=65
131870 On ch=2 n=c#5 v=0
131872 On ch=2 n=f4 v=65
131934 On ch=2 n=f4 v=0
131936 On ch=2 n=g#4 v=65
131948 Tempo 289855
131948 Tempo 289855
131998 On ch=2 n=g#4 v=0
132000 On ch=1 n=f6 v=66
132000 On ch=1 n=f6 v=66
132062 On ch=1 n=f6 v=0
132064 On ch=1 n=f5 v=66
132126 On ch=1 n=f5 v=0
132128 On ch=1 n=g#5 v=66
132144 On ch=1 n=c#6 v=0
132144 On ch=2 n=c#5 v=0
132160 On ch=1 n=f6 v=0
132190 On ch=1 n=g#5 v=0
132192 Par ch=2 c=64 v=0
132192 Par ch=2 c=64 v=127
132192 On ch=1 n=d6 v=66
132192 On ch=2 n=d5 v=66
132192 On ch=2 n=d5 v=66
132243 Tempo 288461
132243 Tempo 288461
132254 On ch=2 n=d5 v=0
132256 On ch=2 n=f#4 v=66
132318 On ch=2 n=f#4 v=0
132320 On ch=2 n=g#4 v=66
132382 On ch=2 n=g#4 v=0
132384 On ch=1 n=f#6 v=67
132384 On ch=1 n=f#6 v=67
132446 On ch=1 n=f#6 v=0
132448 On ch=1 n=f#5 v=67
132510 On ch=1 n=f#5 v=0
132512 On ch=1 n=g#5 v=67
132528 On ch=1 n=d6 v=0
132528 On ch=2 n=d5 v=0
132537 Tempo 287081
132537 Tempo 287081
132544 On ch=1 n=f#6 v=0
132574 On ch=1 n=g#5 v=0
132576 On ch=1 n=d#6 v=67
132576 On ch=2 n=d#5 v=67
132576 On ch=2 n=d#5 v=67
132638 On ch=2 n=d#5 v=0
132640 On ch=2 n=g4 v=67
132702 On ch=2 n=g4 v=0
132704 On ch=2 n=b4 v=67
132766 On ch=2 n=b4 v=0
132768 On ch=1 n=g6 v=68
132768 On ch=1 n=g6 v=68
132830 On ch=1 n=g6 v=0
132831 Tempo 285714
132831 Tempo 285714
132832 On ch=1 n=g5 v=68
132894 On ch=1 n=g5 v=0
132896 On ch=1 n=b5 v=68
132912 On ch=1 n=d#6 v=0
132912 On ch=2 n=d#5 v=0
132928 On ch=1 n=g6 v=0
132958 On ch=1 n=b5 v=0
132960 Par ch=2 c=64 v=0
132960 Par ch=2 c=64 v=127
132960 On ch=1 n=e6 v=68
132960 On ch=2 n=g#3 v=68
132960 On ch=2 n=e4 v=68
132982 On ch=2 n=g#3 v=0
132982 On ch=2 n=e4 v=0
132984 On ch=2 n=e5 v=68
132984 On ch=2 n=e5 v=68
133022 On ch=2 n=e5 v=0
133024 On ch=2 n=g#4 v=68
133086 On ch=2 n=g#4 v=0
133088 On ch=2 n=b4 v=68
133126 Tempo 284360
133126 Tempo 284360
133150 On ch=2 n=b4 v=0
133152 On ch=1 n=g#6 v=69
133152 On ch=1 n=g#6 v=69
133214 On ch=1 n=g#6 v=0
133216 On ch=1 n=g#5 v=69
133278 On ch=1 n=g#5 v=0
133280 On ch=1 n=b5 v=69
133296 On ch=1 n=e6 v=0
133312 On ch=1 n=g#6 v=0
133312 On ch=2 n=e5 v=0
133342 On ch=1 n=b5 v=0
133344 On ch=1 n=d#6 v=69
133344 On ch=2 n=d#5 v=69
133344 On ch=2 n=d#5 v=69
133406 On ch=2 n=d#5 v=0
133408 On ch=2 n=g4 v=69
133420 Tempo 283018
133420 Tempo 283018
133470 On ch=2 n=g4 v=0
133472 On ch=2 n=b4 v=69
133534 On ch=2 n=b4 v=0
133536 On ch=1 n=g6 v=70
133536 On ch=1 n=g6 v=70
133598 On ch=1 n=g6 v=0
133600 On ch=1 n=g5 v=70
133662 On ch=1 n=g5 v=0
133664 On ch=1 n=b5 v=70
133680 On ch=1 n=d#6 v=0
133680 On ch=2 n=d#5 v=0
133696 On ch=1 n=g6 v=0
133715 Tempo 281690
133715 Tempo 281690
133726 On ch=1 n=b5 v=0
133728 Par ch=2 c=64 v=0
133728 Par ch=2 c=64 v=127
133728 On ch=1 n=e6 v=70
133728 On ch=2 n=e5 v=70
133728 On ch=2 n=e5 v=70
133790 On ch=2 n=e5 v=0
133792 On ch=2 n=g#4 v=70
133854 On ch=2 n=g#4 v=0
133856 On ch=2 n=b4 v=70
133918 On ch=2 n=b4 v=0
133920 On ch=1 n=g#6 v=72
133920 On ch=1 n=g#6 v=72
133982 On ch=1 n=g#6 v=0
133984 On ch=1 n=g#5 v=72
134009 Tempo 280373
134009 Tempo 280373
134046 On ch=1 n=g#5 v=0
134048 On ch=1 n=b5 v=72
134064 On ch=1 n=e6 v=0
134064 On ch=2 n=e5 v=0
134080 On ch=1 n=g#6 v=0
134110 On ch=1 n=b5 v=0
134112 On ch=1 n=f6 v=72
134112 On ch=2 n=f5 v=72
134112 On ch=2 n=f5 v=72
134174 On ch=2 n=f5 v=0
134176 On ch=2 n=a4 v=72
134238 On ch=2 n=a4 v=0
134240 On ch=2 n=f5 v=72
134302 On ch=2 n=f5 v=0
134303 Tempo 279069
134303 Tempo 279069
134304 On ch=1 n=a6 v=74
134304 On ch=1 n=a6 v=74
134366 On ch=1 n=a6 v=0
134368 On ch=1 n=a5 v=74
134430 On ch=1 n=a5 v=0
134432 On ch=1 n=d#6 v=74
134448 On ch=1 n=f6 v=0
134448 On ch=2 n=f5 v=0
134464 On ch=1 n=a6 v=0
134494 On ch=1 n=d#6 v=0
134496 Par ch=2 c=64 v=0
134496 Par ch=2 c=64 v=127
134496 On ch=1 n=f#6 v=74
134496 On ch=2 n=b3 v=74
134496 On ch=2 n=f#4 v=74
134518 On ch=2 n=b3 v=0
134518 On ch=2 n=f#4 v=0
134520 On ch=2 n=f#5 v=74
134520 On ch=2 n=f#5 v=74
134558 On ch=2 n=f#5 v=0
134560 On ch=2 n=a#4 v=74
134598 Tempo 277777
134598 Tempo 277777
134622 On ch=2 n=a#4 v=0
134624 On ch=2 n=d#5 v=74
134686 On ch=2 n=d#5 v=0
134688 On ch=1 n=a#6 v=76
134688 On ch=1 n=a#6 v=76
134750 On ch=1 n=a#6 v=0
134752 On ch=1 n=a#5 v=76
134814 On ch=1 n=a#5 v=0
134816 On ch=1 n=d#6 v=76
134832 On ch=1 n=f#6 v=0
134848 On ch=1 n=a#6 v=0
134848 On ch=2 n=f#5 v=0
134878 On ch=1 n=d#6 v=0
134880 On ch=1 n=g6 v=76
134880 On ch=2 n=g5 v=76
134880 On ch=2 n=g5 v=76
134892 Tempo 276497
134892 Tempo 276497
134942 On ch=2 n=g5 v=0
134944 On ch=2 n=b4 v=76
135006 On ch=2 n=b4 v=0
135008 On ch=2 n=d#5 v=76
135070 On ch=2 n=d#5 v=0
135072 On ch=1 n=b6 v=78
135072 On ch=1 n=b6 v=78
135134 On ch=1 n=b6 v=0
135136 On ch=1 n=b5 v=78
135187 Tempo 275229
135187 Tempo 275229
135198 On ch=1 n=b5 v=0
135200 On ch=1 n=d#6 v=78
135216 On ch=1 n=g6 v=0
135216 On ch=2 n=g5 v=0
135232 On ch=1 n=b6 v=0
135262 On ch=1 n=d#6 v=0
135264 Par ch=2 c=64 v=0
135264 Par ch=2 c=64 v=127
135264 On ch=1 n=g#6 v=78
135264 On ch=2 n=g#5 v=78
135264 On ch=2 n=g#5 v=78
135326 On ch=2 n=g#5 v=0
135328 On ch=2 n=a#4 v=78
135390 On ch=2 n=a#4 v=0
135392 On ch=2 n=d#5 v=78
135454 On ch=2 n=d#5 v=0
135456 On ch=1 n=b6 v=80
135456 On ch=1 n=b6 v=80
135481 Tempo 273972
135481 Tempo 273972
135518 On ch=1 n=b6 v=0
135520 On ch=1 n=b5 v=80
135582 On ch=1 n=b5 v=0
135584 On ch=1 n=d#6 v=80
135600 On ch=1 n=g#6 v=0
135600 On ch=2 n=g#5 v=0
135616 On ch=1 n=b6 v=0
135646 On ch=1 n=d#6 v=0
135648 On ch=1 n=a6 v=80
135648 On ch=2 n=a5 v=80
135648 On ch=2 n=a5 v=80
135710 On ch=2 n=a5 v=0
135712 On ch=2 n=a4 v=80
135774 On ch=2 n=a4 v=0
135775 Tempo 272727
135775 Tempo 272727
135776 On ch=2 n=d#5 v=80
135838 On ch=2 n=d#5 v=0
135840 On ch=1 n=b6 v=82
135840 On ch=1 n=b6 v=82
135902 On ch=1 n=b6 v=0
135904 On ch=1 n=b5 v=82
135966 On ch=1 n=b5 v=0
135968 On ch=1 n=d#6 v=82
135984 On ch=1 n=a6 v=0
135984 On ch=2 n=a5 v=0
136000 On ch=1 n=b6 v=0
136030 On ch=1 n=d#6 v=0
136032 Par ch=2 c=64 v=0
136032 Par ch=2 c=64 v=127
136032 On ch=2 n=a#3 v=82
136032 On ch=2 n=d#4 v=82
136032 On ch=2 n=g4 v=82
136032 On ch=2 n=a#4 v=82
136070 Tempo 271493
136070 Tempo 271493
136192 On ch=2 n=a#3 v=0
136192 On ch=2 n=d#4 v=0
136192 On ch=2 n=g4 v=0
136192 On ch=2 n=a#4 v=0
136224 On ch=1 n=d#5 v=84
136224 On ch=2 n=a#4 v=84
136224 On ch=2 n=g5 v=84
136286 On ch=1 n=d#5 v=0
136288 On ch=1 n=a#5 v=84
136350 On ch=1 n=a#5 v=0
136352 On ch=1 n=d#5 v=84
136364 Tempo 270270
136364 Tempo 270270
136414 On ch=1 n=d#5 v=0
136416 On ch=1 n=d#6 v=84
136478 On ch=1 n=d#6 v=0
136480 On ch=1 n=a#5 v=85
136542 On ch=1 n=a#5 v=0
136544 On ch=1 n=d#6 v=86
136576 On ch=2 n=a#4 v=0
136576 On ch=2 n=g5 v=0
136606 On ch=1 n=d#6 v=0
136608 On ch=1 n=a#5 v=87
136608 On ch=2 n=g#4 v=88
136608 On ch=2 n=f5 v=88
136659 Tempo 269058
136659 Tempo 269058
136670 On ch=1 n=a#5 v=0
136670 On ch=2 n=g#4 v=0
136670 On ch=2 n=f5 v=0
136672 On ch=1 n=d#6 v=88
136672 On ch=2 n=g4 v=89
136672 On ch=2 n=a#4 v=89
136672 On ch=2 n=d#5 v=89
136734 On ch=1 n=d#6 v=0
136736 On ch=1 n=a#5 v=89
136798 On ch=1 n=a#5 v=0
136800 Par ch=2 c=64 v=0
136800 Par ch=2 c=64 v=127
136800 On ch=1 n=a#6 v=90
136862 On ch=1 n=a#6 v=0
136864 On ch=1 n=d#6 v=91
136926 On ch=1 n=d#6 v=0
136926 On ch=2 n=g4 v=0
136926 On ch=2 n=a#4 v=0
136926 On ch=2 n=d#5 v=0
136928 On ch=1 n=a#6 v=92
136928 On ch=2 n=f4 v=93
136928 On ch=2 n=d5 v=93
136953 Tempo 267857
136953 Tempo 267857
136990 On ch=1 n=a#6 v=0
136990 On ch=2 n=f4 v=0
136990 On ch=2 n=d5 v=0
136992 On ch=1 n=g5 v=93
136992 On ch=2 n=d#4 v=94
136992 On ch=2 n=g4 v=94
136992 On ch=2 n=c5 v=94
137054 On ch=1 n=g5 v=0
137056 On ch=1 n=c6 v=94
137118 On ch=1 n=c6 v=0
137120 On ch=1 n=g5 v=95
137182 On ch=1 n=g5 v=0
137184 On ch=1 n=g6 v=96
137246 On ch=1 n=g6 v=0
137247 Tempo 266666
137247 Tempo 266666
137248 On ch=1 n=c6 v=97
137310 On ch=1 n=c6 v=0
137310 On ch=2 n=d#4 v=0
137310 On ch=2 n=g4 v=0
137310 On ch=2 n=c5 v=0
137312 On ch=1 n=g6 v=98
137312 On ch=2 n=d4 v=99
137312 On ch=2 n=a#4 v=99
137374 On ch=1 n=g6 v=0
137374 On ch=2 n=d4 v=0
137374 On ch=2 n=a#4 v=0
137376 On ch=1 n=d#6 v=99
137376 On ch=2 n=c4 v=100
137376 On ch=2 n=d#4 v=100
137376 On ch=2 n=g#4 v=100
137438 On ch=1 n=d#6 v=0
137440 On ch=1 n=g#6 v=100
137502 On ch=1 n=g#6 v=0
137504 On ch=1 n=d#6 v=101
137542 Tempo 265486
137542 Tempo 265486
137566 On ch=1 n=d#6 v=0
137568 Par ch=2 c=64 v=0
137568 Par ch=2 c=64 v=127
137568 On ch=1 n=d#7 v=102
137630 On ch=1 n=d#7 v=0
137632 On ch=1 n=g#6 v=103
137694 On ch=1 n=g#6 v=0
137694 On ch=2 n=c4 v=0
137694 On ch=2 n=e4 v=0
137694 On ch=2 n=g#4 v=0
137696 On ch=1 n=d#7 v=104
137696 On ch=2 n=a#3 v=105
137696 On ch=2 n=g4 v=105
137758 On ch=1 n=d#7 v=0
137758 On ch=2 n=a#3 v=0
137758 On ch=2 n=g4 v=0
137760 On ch=1 n=c6 v=105
137760 On ch=2 n=g#3 v=106
137760 On ch=2 n=c4 v=106
137760 On ch=2 n=f4 v=106
137822 On ch=1 n=c6 v=0
137824 On ch=1 n=f6 v=106
137836 Tempo 264317
137836 Tempo 264317
137886 On ch=1 n=f6 v=0
137888 On ch=1 n=c6 v=107
137950 On ch=1 n=c6 v=0
137952 On ch=1 n=c7 v=108
138014 On ch=1 n=c7 v=0
138016 On ch=1 n=f6 v=109
138078 On ch=1 n=f6 v=0
138078 On ch=2 n=g#3 v=0
138078 On ch=2 n=c4 v=0
138078 On ch=2 n=f4 v=0
138080 On ch=1 n=c7 v=110
138080 On ch=2 n=g3 v=111
138080 On ch=2 n=d#4 v=111
138131 Tempo 263157
138131 Tempo 263157
138142 On ch=1 n=c7 v=0
138142 On ch=2 n=g3 v=0
138142 On ch=2 n=d#4 v=0
138144 On ch=1 n=g6 v=111
138144 On ch=2 n=f3 v=112
138144 On ch=2 n=d4 v=112
138206 On ch=1 n=g6 v=0
138208 On ch=1 n=a#6 v=112
138270 On ch=1 n=a#6 v=0
138270 On ch=2 n=f3 v=0
138270 On ch=2 n=d4 v=0
138272 On ch=1 n=g6 v=113
138272 On ch=2 n=d#3 v=114
138272 On ch=2 n=c4 v=114
138334 On ch=1 n=g6 v=0
138334 On ch=2 n=d#3 v=0
138334 On ch=2 n=c4 v=0
138336 Par ch=2 c=64 v=0
138336 Par ch=2 c=64 v=127
138336 On ch=1 n=g7 v=114
138336 On ch=2 n=d3 v=115
138336 On ch=2 n=a#3 v=115
138384 On ch=2 n=d3 v=0
138384 On ch=2 n=a#3 v=0
138398 On ch=1 n=g7 v=0
138400 On ch=1 n=a#6 v=115
138425 Tempo 262008
138425 Tempo 262008
138462 On ch=1 n=a#6 v=0
138464 On ch=1 n=g7 v=116
138526 On ch=1 n=g7 v=0
138528 On ch=1 n=a#6 v=117
138528 On ch=2 n=c3 v=118
138528 On ch=2 n=g#3 v=118
138576 On ch=2 n=c3 v=0
138576 On ch=2 n=g#3 v=0
138590 On ch=1 n=a#6 v=0
138592 On ch=1 n=d#7 v=118
138654 On ch=1 n=d#7 v=0
138656 On ch=1 n=a#6 v=119
138718 On ch=1 n=a#6 v=0
138720 Tempo 260869
138720 Tempo 260869
138720 On ch=1 n=a#7 v=120
138720 On ch=2 n=a#2 v=121
138720 On ch=2 n=g3 v=121
138768 On ch=2 n=a#2 v=0
138768 On ch=2 n=g3 v=0
138782 On ch=1 n=a#7 v=0
138784 On ch=1 n=d#7 v=121
138846 On ch=1 n=d#7 v=0
138848 On ch=1 n=a#7 v=122
138910 On ch=1 n=a#7 v=0
138912 On ch=1 n=a#6 v=123
138912 On ch=2 n=g#2 v=124
138912 On ch=2 n=f3 v=124
138960 On ch=2 n=g#2 v=0
138960 On ch=2 n=f3 v=0
138974 On ch=1 n=a#6 v=0
138976 On ch=1 n=a#7 v=124
139038 On ch=1 n=a#7 v=0
139040 On ch=1 n=a#6 v=125
139102 On ch=1 n=a#6 v=0
139104 Par ch=2 c=64 v=0
139104 Par ch=2 c=64 v=127
139104 On ch=2 n=d#2 v=127
139104 On ch=2 n=d#3 v=127
139232 On ch=2 n=g5 v=127
139232 On ch=2 n=c6 v=127
139232 On ch=2 n=d#5 v=127
139232 On ch=1 n=a7 v=127
139232 On ch=1 n=g7 v=127
139232 On ch=1 n=d#7 v=127
139232 On ch=1 n=a6 v=127
139294 On ch=1 n=a7 v=0
139294 On ch=1 n=g7 v=0
139294 On ch=1 n=d#7 v=0
139294 On ch=1 n=a6 v=0
139294 On ch=2 n=d#5 v=0
139294 On ch=2 n=g5 v=0
139294 On ch=2 n=c6 v=0
139296 On ch=1 n=d#7 v=127
139296 On ch=1 n=g7 v=127
139296 On ch=1 n=a#7 v=127
139296 On ch=1 n=a#6 v=127
139296 On ch=2 n=d5 v=127
139296 On ch=2 n=e5 v=127
139296 On ch=2 n=g5 v=127
139296 On ch=2 n=a#5 v=127
139614 On ch=1 n=a#6 v=0
139614 On ch=1 n=d#7 v=0
139614 On ch=1 n=g7 v=0
139614 On ch=1 n=a#7 v=0
139614 On ch=2 n=d5 v=0
139614 On ch=2 n=e5 v=0
139614 On ch=2 n=g5 v=0
139614 On ch=2 n=a#5 v=0
139616 On ch=1 n=f6 v=127
139616 On ch=1 n=c7 v=127
139616 On ch=1 n=d#7 v=127
139616 On ch=1 n=f7 v=127
139616 On ch=2 n=c5 v=127
139616 On ch=2 n=e5 v=127
139616 On ch=2 n=g#5 v=127
139678 On ch=1 n=f6 v=0
139678 On ch=1 n=c7 v=0
139678 On ch=1 n=d#7 v=0
139678 On ch=1 n=f7 v=0
139678 On ch=2 n=c5 v=0
139678 On ch=2 n=e5 v=0
139678 On ch=2 n=g#5 v=0
139680 On ch=1 n=g6 v=127
139680 On ch=1 n=a#6 v=127
139680 On ch=1 n=d#7 v=127
139680 On ch=1 n=g7 v=127
139680 On ch=2 n=a#4 v=127
139680 On ch=2 n=e5 v=127
139680 On ch=2 n=g5 v=127
139806 On ch=1 n=g6 v=0
139806 On ch=1 n=a#6 v=0
139806 On ch=1 n=d#7 v=0
139806 On ch=1 n=g7 v=0
139806 On ch=2 n=a#4 v=0
139806 On ch=2 n=e5 v=0
139806 On ch=2 n=g5 v=0
139808 On ch=1 n=d6 v=127
139808 On ch=1 n=a#6 v=127
139808 On ch=1 n=d7 v=127
139808 On ch=2 n=g#4 v=127
139808 On ch=2 n=f5 v=127
139824 On ch=2 n=d#2 v=0
139824 On ch=2 n=d#3 v=0
139870 On ch=1 n=d6 v=0
139870 On ch=1 n=a#6 v=0
139870 On ch=1 n=d7 v=0
139870 On ch=2 n=g#4 v=0
139870 On ch=2 n=f5 v=0
139872 Par ch=2 c=64 v=0
139872 Par ch=2 c=64 v=127
139872 On ch=1 n=d#6 v=127
139872 On ch=1 n=a#6 v=127
139872 On ch=1 n=d#7 v=127
139872 On ch=2 n=g4 v=127
139872 On ch=2 n=a#4 v=127
139872 On ch=2 n=d#5 v=127
139998 On ch=1 n=d#6 v=0
139998 On ch=1 n=a#6 v=0
139998 On ch=1 n=d#7 v=0
139998 On ch=2 n=g4 v=0
139998 On ch=2 n=a#4 v=0
139998 On ch=2 n=d#5 v=0
140000 On ch=1 n=a5 v=127
140000 On ch=1 n=d#6 v=127
140000 On ch=1 n=g6 v=127
140000 On ch=1 n=a6 v=127
140000 On ch=2 n=d#4 v=127
140000 On ch=2 n=g4 v=127
140000 On ch=2 n=c5 v=127
140062 On ch=1 n=a5 v=0
140062 On ch=1 n=d#6 v=0
140062 On ch=1 n=g6 v=0
140062 On ch=1 n=a6 v=0
140062 On ch=2 n=d#4 v=0
140062 On ch=2 n=g4 v=0
140062 On ch=2 n=c5 v=0
140064 On ch=1 n=a#5 v=127
140064 On ch=1 n=d#6 v=127
140064 On ch=1 n=g6 v=127
140064 On ch=1 n=a#6 v=127
140064 On ch=2 n=d4 v=127
140064 On ch=2 n=d#4 v=127
140064 On ch=2 n=g4 v=127
140064 On ch=2 n=a#4 v=127
140382 On ch=1 n=a#5 v=0
140382 On ch=1 n=d#6 v=0
140382 On ch=1 n=g6 v=0
140382 On ch=1 n=a#6 v=0
140382 On ch=2 n=d4 v=0
140382 On ch=2 n=d#4 v=0
140382 On ch=2 n=g4 v=0
140382 On ch=2 n=a#4 v=0
140384 On ch=1 n=f5 v=127
140384 On ch=1 n=c6 v=127
140384 On ch=1 n=d#6 v=127
140384 On ch=1 n=f6 v=127
140384 On ch=2 n=c4 v=127
140384 On ch=2 n=d#4 v=127
140384 On ch=2 n=g#4 v=127
140446 On ch=1 n=f5 v=0
140446 On ch=1 n=c6 v=0
140446 On ch=1 n=d#6 v=0
140446 On ch=1 n=f6 v=0
140446 On ch=2 n=c4 v=0
140446 On ch=2 n=d#4 v=0
140446 On ch=2 n=g#4 v=0
140448 On ch=1 n=g5 v=127
140448 On ch=1 n=d#6 v=127
140448 On ch=1 n=g6 v=127
140448 On ch=2 n=a#3 v=127
140448 On ch=2 n=d#4 v=127
140448 On ch=2 n=g4 v=127
140574 On ch=1 n=g5 v=0
140574 On ch=1 n=d#6 v=0
140574 On ch=1 n=g6 v=0
140574 On ch=2 n=a#3 v=0
140574 On ch=2 n=d#4 v=0
140574 On ch=2 n=g4 v=0
140576 On ch=1 n=d5 v=127
140576 On ch=1 n=a#5 v=127
140576 On ch=1 n=d6 v=127
140576 On ch=2 n=g#3 v=127
140576 On ch=2 n=a#3 v=127
140576 On ch=2 n=f4 v=127
140638 On ch=1 n=d5 v=0
140638 On ch=1 n=a#5 v=0
140638 On ch=1 n=d6 v=0
140638 On ch=2 n=g#3 v=0
140638 On ch=2 n=a#3 v=0
140638 On ch=2 n=f4 v=0
140640 Par ch=2 c=64 v=0
140640 Par ch=2 c=64 v=127
140640 On ch=1 n=d#5 v=127
140640 On ch=1 n=a#5 v=127
140640 On ch=1 n=d#6 v=127
140640 On ch=2 n=g3 v=127
140640 On ch=2 n=a#3 v=127
140640 On ch=2 n=d#4 v=127
140766 On ch=1 n=d#5 v=0
140766 On ch=1 n=a#5 v=0
140766 On ch=1 n=d#6 v=0
140766 On ch=2 n=g3 v=0
140766 On ch=2 n=a#3 v=0
140766 On ch=2 n=d#4 v=0
140768 On ch=1 n=c5 v=127
140768 On ch=1 n=d#5 v=127
140768 On ch=1 n=g5 v=127
140768 On ch=1 n=a5 v=127
140768 On ch=2 n=d#2 v=127
140768 On ch=2 n=d#3 v=127
140830 On ch=1 n=c5 v=0
140830 On ch=1 n=d#5 v=0
140830 On ch=1 n=g5 v=0
140830 On ch=1 n=a5 v=0
140830 On ch=2 n=d#2 v=0
140830 On ch=2 n=d#3 v=0
140832 On ch=1 n=a#4 v=127
140832 On ch=1 n=d#5 v=127
140832 On ch=1 n=g5 v=127
140832 On ch=1 n=a#5 v=127
140832 On ch=2 n=a#3 v=127
140832 On ch=2 n=d#4 v=127
140832 On ch=2 n=g4 v=127
141150 On ch=1 n=a#4 v=0
141150 On ch=1 n=d#5 v=0
141150 On ch=1 n=g5 v=0
141150 On ch=1 n=a#5 v=0
141150 On ch=2 n=a#3 v=0
141150 On ch=2 n=d#4 v=0
141150 On ch=2 n=g4 v=0
141152 On ch=1 n=c5 v=127
141152 On ch=1 n=d#5 v=127
141152 On ch=1 n=f5 v=127
141152 On ch=2 n=g#3 v=127
141152 On ch=2 n=f4 v=127
141214 On ch=1 n=c5 v=0
141214 On ch=1 n=d#5 v=0
141214 On ch=1 n=f5 v=0
141214 On ch=2 n=g#3 v=0
141214 On ch=2 n=f4 v=0
141216 On ch=1 n=a#4 v=127
141216 On ch=1 n=d#5 v=127
141216 On ch=1 n=g5 v=127
141216 On ch=2 n=g3 v=127
141216 On ch=2 n=d#4 v=127
141342 On ch=1 n=a#4 v=0
141342 On ch=1 n=d#5 v=0
141342 On ch=1 n=g5 v=0
141342 On ch=2 n=g3 v=0
141342 On ch=2 n=d#4 v=0
141344 On ch=1 n=g#4 v=127
141344 On ch=1 n=d5 v=127
141344 On ch=2 n=f3 v=127
141344 On ch=2 n=a#3 v=127
141406 On ch=1 n=g#4 v=0
141406 On ch=1 n=d5 v=0
141406 On ch=2 n=f3 v=0
141406 On ch=2 n=a#3 v=0
141408 Par ch=2 c=64 v=0
141408 On ch=1 n=g4 v=127
141408 On ch=1 n=d#5 v=127
141408 On ch=2 n=d#3 v=127
141408 On ch=2 n=a#3 v=127
141420 Tempo 262008
141420 Tempo 262008
141433 Tempo 263157
141433 Tempo 263157
141446 Tempo 264317
141446 Tempo 264317
141459 Tempo 265486
141459 Tempo 265486
141472 Tempo 266666
141472 Tempo 266666
141484 Tempo 267857
141484 Tempo 267857
141497 Tempo 269058
141497 Tempo 269058
141510 Tempo 270270
141510 Tempo 270270
141523 Tempo 271493
141523 Tempo 271493
141534 On ch=1 n=g4 v=0
141534 On ch=1 n=d#5 v=0
141534 On ch=2 n=d#3 v=0
141534 On ch=2 n=a#3 v=0
141536 Tempo 272727
141536 Tempo 272727
141536 On ch=1 n=f4 v=127
141536 On ch=1 n=a#4 v=127
141536 On ch=2 n=d3 v=127
141536 On ch=2 n=g3 v=127
141548 Tempo 273972
141548 Tempo 273972
141561 Tempo 275229
141561 Tempo 275229
141574 Tempo 276497
141574 Tempo 276497
141587 Tempo 277777
141587 Tempo 277777
141598 On ch=1 n=f4 v=0
141598 On ch=1 n=a#4 v=0
141598 On ch=2 n=d3 v=0
141598 On ch=2 n=g3 v=0
141600 Tempo 279069
141600 Tempo 279069
141600 On ch=1 n=d#4 v=127
141600 On ch=1 n=c5 v=127
141600 On ch=2 n=c3 v=127
141600 On ch=2 n=g3 v=127
141612 Tempo 280373
141612 Tempo 280373
141625 Tempo 281690
141625 Tempo 281690
141638 Tempo 283018
141638 Tempo 283018
141651 Tempo 284360
141651 Tempo 284360
141664 Tempo 285714
141664 Tempo 285714
141676 Tempo 287081
141676 Tempo 287081
141689 Tempo 288461
141689 Tempo 288461
141702 Tempo 289855
141702 Tempo 289855
141715 Tempo 291262
141715 Tempo 291262
141726 On ch=1 n=d#4 v=0
141726 On ch=1 n=c5 v=0
141726 On ch=2 n=c3 v=0
141726 On ch=2 n=g3 v=0
141728 Tempo 292682
141728 Tempo 292682
141728 On ch=1 n=a4 v=127
141728 On ch=2 n=a2 v=127
141728 On ch=2 n=a3 v=127
141740 Tempo 294117
141740 Tempo 294117
141753 Tempo 295566
141753 Tempo 295566
141766 Tempo 297029
141766 Tempo 297029
141779 Tempo 298507
141779 Tempo 298507
141790 On ch=1 n=a4 v=0
141790 On ch=2 n=a2 v=0
141790 On ch=2 n=a3 v=0
141792 Tempo 300000
141792 Tempo 300000
141792 On ch=1 n=a#4 v=127
141792 On ch=2 n=a#2 v=127
141792 On ch=2 n=a#3 v=127
141804 Tempo 301507
141804 Tempo 301507
141817 Tempo 303030
141817 Tempo 303030
141830 Tempo 304568
141830 Tempo 304568
141843 Tempo 306122
141843 Tempo 306122
141856 Tempo 307692
141856 Tempo 307692
141868 Tempo 309278
141868 Tempo 309278
141881 Tempo 310880
141881 Tempo 310880
141894 Tempo 312500
141894 Tempo 312500
141907 Tempo 314136
141907 Tempo 314136
141918 On ch=1 n=a#4 v=0
141918 On ch=2 n=a#2 v=0
141918 On ch=2 n=a#3 v=0
141920 Tempo 315789
141920 Tempo 315789
141920 On ch=1 n=f4 v=127
141920 On ch=2 n=f2 v=127
141920 On ch=2 n=f3 v=127
141932 Tempo 317460
141932 Tempo 317460
141945 Tempo 319148
141945 Tempo 319148
141958 Tempo 320855
141958 Tempo 320855
141971 Tempo 322580
141971 Tempo 322580
141982 On ch=1 n=f4 v=0
141982 On ch=2 n=f2 v=0
141982 On ch=2 n=f3 v=0
141984 Tempo 324324
141984 Tempo 324324
141984 On ch=1 n=g4 v=127
141984 On ch=2 n=g2 v=127
141984 On ch=2 n=g3 v=127
141996 Tempo 326086
141996 Tempo 326086
142009 Tempo 327868
142009 Tempo 327868
142022 Tempo 329670
142022 Tempo 329670
142035 Tempo 331491
142035 Tempo 331491
142048 Tempo 333333
142048 Tempo 333333
142060 Tempo 335195
142060 Tempo 335195
142073 Tempo 337078
142073 Tempo 337078
142086 Tempo 338983
142086 Tempo 338983
142099 Tempo 340909
142099 Tempo 340909
142110 On ch=1 n=g4 v=0
142110 On ch=2 n=g2 v=0
142110 On ch=2 n=g3 v=0
142112 Tempo 342857
142112 Tempo 342857
142112 On ch=2 n=d2 v=127
142112 On ch=2 n=d3 v=127
142124 Tempo 344827
142124 Tempo 344827
142137 Tempo 346820
142137 Tempo 346820
142150 Tempo 348837
142150 Tempo 348837
142163 Tempo 350877
142163 Tempo 350877
142174 On ch=2 n=d2 v=0
142174 On ch=2 n=d3 v=0
142176 Tempo 352941
142176 Tempo 309278
142176 Tempo 352941
142176 Tempo 309278
142176 Par ch=2 c=64 v=127
142176 On ch=1 n=g4 v=127
142176 On ch=1 n=c5 v=127
142176 On ch=1 n=d#5 v=127
142176 On ch=1 n=g5 v=127
142176 On ch=2 n=d#2 v=127
142176 On ch=2 n=d#3 v=127
142318 On ch=2 n=d#2 v=0
142318 On ch=2 n=d#3 v=0
142320 On ch=2 n=g4 v=92
142368 On ch=2 n=g4 v=0
142368 On ch=2 n=d#3 v=92
142702 On ch=2 n=d#3 v=0
142704 On ch=2 n=d#4 v=92
142752 On ch=2 n=d#4 v=0
142752 On ch=2 n=d#3 v=92
142896 On ch=2 n=d#3 v=0
142896 On ch=2 n=c4 v=92
142944 On ch=2 n=c4 v=0
142944 Par ch=2 c=64 v=0
142944 Par ch=2 c=64 v=127
142944 On ch=2 n=d#3 v=92
143088 On ch=2 n=d#3 v=0
143088 On ch=2 n=d#4 v=92
143136 On ch=2 n=d#4 v=0
143136 On ch=2 n=d#3 v=92
143470 On ch=2 n=d#3 v=0
143472 On ch=2 n=c4 v=92
143520 On ch=2 n=c4 v=0
143520 On ch=2 n=d#3 v=92
143662 On ch=2 n=d#3 v=0
143664 On ch=2 n=g3 v=92
143712 On ch=2 n=g3 v=0
143712 Par ch=2 c=64 v=0
143712 Par ch=2 c=64 v=127
143712 On ch=2 n=d#3 v=92
143854 On ch=2 n=d#3 v=0
143856 On ch=2 n=c4 v=92
143904 On ch=2 n=c4 v=0
143904 On ch=2 n=d#3 v=92
144238 On ch=2 n=d#3 v=0
144240 On ch=2 n=g3 v=92
144288 On ch=2 n=g3 v=0
144288 On ch=2 n=d#3 v=92
144430 On ch=2 n=d#3 v=0
144432 On ch=2 n=f3 v=92
144480 On ch=2 n=f3 v=0
144480 Par ch=2 c=64 v=0
144480 Par ch=2 c=64 v=127
144480 On ch=2 n=d#3 v=92
144624 On ch=2 n=d#3 v=0
144624 On ch=2 n=g3 v=92
144672 On ch=2 n=g3 v=0
144672 On ch=2 n=d#3 v=92
144816 On ch=1 n=g5 v=0
144864 On ch=1 n=a#5 v=108
145006 On ch=2 n=d#3 v=0
145008 On ch=2 n=f3 v=92
145056 On ch=2 n=f3 v=0
145056 On ch=2 n=d#3 v=92
145168 On ch=1 n=a#5 v=0
145198 On ch=2 n=d#3 v=0
145200 On ch=1 n=g4 v=0
145200 On ch=1 n=c5 v=0
145200 On ch=1 n=e5 v=0
145200 On ch=1 n=g#5 v=108
145200 On ch=2 n=e3 v=92
145246 On ch=1 n=g#5 v=0
145248 On ch=2 n=e3 v=0
145248 Par ch=2 c=64 v=0
145248 Par ch=2 c=64 v=127
145248 On ch=1 n=g#4 v=108
145248 On ch=1 n=d#5 v=108
145248 On ch=1 n=g#5 v=108
145248 On ch=2 n=d#3 v=92
145248 On ch=2 n=b3 v=92
145390 On ch=2 n=d#3 v=0
145392 On ch=2 n=g#4 v=92
145438 On ch=2 n=g#4 v=0
145440 On ch=2 n=d#3 v=92
145584 On ch=1 n=g#5 v=0
145632 On ch=1 n=d#6 v=108
145774 On ch=2 n=d#3 v=0
145776 On ch=2 n=d#4 v=92
145822 On ch=2 n=d#4 v=0
145824 On ch=2 n=d#3 v=92
145966 On ch=2 n=d#3 v=0
145968 On ch=2 n=b3 v=0
145968 On ch=2 n=b3 v=92
146016 Par ch=2 c=64 v=0
146016 Par ch=2 c=64 v=127
146016 On ch=2 n=d#3 v=92
146158 On ch=2 n=d#3 v=0
146160 On ch=2 n=d#4 v=92
146206 On ch=2 n=d#4 v=0
146208 On ch=2 n=d#3 v=92
146542 On ch=2 n=d#3 v=0
146544 On ch=2 n=b3 v=92
146592 On ch=2 n=d#3 v=92
146734 On ch=2 n=d#3 v=0
146736 On ch=2 n=b3 v=0
146736 On ch=2 n=g#3 v=92
146782 On ch=2 n=g#3 v=0
146784 Par ch=2 c=64 v=0
146784 Par ch=2 c=64 v=127
146784 On ch=2 n=d#3 v=92
146926 On ch=2 n=d#3 v=0
146928 On ch=2 n=b3 v=92
146974 On ch=2 n=b3 v=0
146976 On ch=2 n=d#3 v=92
147310 On ch=2 n=d#3 v=0
147312 On ch=2 n=g#3 v=92
147358 On ch=2 n=g#3 v=0
147360 On ch=2 n=d#3 v=92
147502 On ch=2 n=d#3 v=0
147504 On ch=1 n=g#4 v=0
147504 On ch=1 n=d#5 v=0
147504 On ch=1 n=d#6 v=0
147504 On ch=2 n=b3 v=0
147504 On ch=2 n=f#3 v=92
147550 On ch=2 n=f#3 v=0
147552 Par ch=2 c=64 v=0
147552 Par ch=2 c=64 v=127
147552 On ch=1 n=f#4 v=108
147552 On ch=2 n=d#3 v=92
147576 On ch=1 n=a4 v=108
147600 On ch=1 n=d#5 v=108
147624 On ch=1 n=a5 v=108
147694 On ch=2 n=d#3 v=0
147696 On ch=2 n=c4 v=92
147742 On ch=2 n=c4 v=0
147744 On ch=2 n=d#3 v=92
148078 On ch=2 n=d#3 v=0
148080 On ch=2 n=g#3 v=92
148126 On ch=2 n=g#3 v=0
148128 On ch=2 n=d#3 v=92
148176 On ch=1 n=a5 v=0
148270 On ch=2 n=d#3 v=0
148272 On ch=1 n=f#4 v=0
148272 On ch=1 n=a4 v=0
148272 On ch=1 n=d#5 v=0
148272 On ch=1 n=a#5 v=108
148272 On ch=2 n=f3 v=92
148318 On ch=1 n=a#5 v=0
148318 On ch=2 n=f3 v=0
148320 Par ch=2 c=64 v=0
148320 Par ch=2 c=64 v=127
148320 On ch=1 n=f#4 v=108
148320 On ch=2 n=d#3 v=92
148344 On ch=1 n=a#4 v=108
148368 On ch=1 n=d#5 v=108
148392 On ch=1 n=a#5 v=108
148462 On ch=2 n=d#3 v=0
148464 On ch=2 n=f3 v=92
148510 On ch=2 n=f3 v=0
148512 On ch=2 n=d#3 v=92
148846 On ch=2 n=d#3 v=0
148848 On ch=2 n=a#3 v=92
148894 On ch=2 n=a#3 v=0
148896 On ch=2 n=d#3 v=92
149038 On ch=2 n=d#3 v=0
149040 On ch=2 n=f#4 v=92
149086 On ch=2 n=f#4 v=0
149088 Par ch=2 c=64 v=0
149088 Par ch=2 c=64 v=127
149088 On ch=2 n=d#3 v=92
149105 Tempo 310880
149106 Tempo 310880
149122 Tempo 312500
149125 Tempo 312500
149139 Tempo 314136
149143 Tempo 314136
149156 Tempo 315789
149162 Tempo 315789
149173 Tempo 317460
149180 Tempo 317460
149190 Tempo 319148
149199 Tempo 319148
149207 Tempo 320855
149218 Tempo 320855
149224 Tempo 322580
149230 On ch=2 n=d#3 v=0
149232 On ch=2 n=b3 v=92
149236 Tempo 322580
149241 Tempo 324324
149255 Tempo 324324
149258 Tempo 326086
149273 Tempo 326086
149275 Tempo 327868
149278 On ch=2 n=b3 v=0
149280 On ch=2 n=a#3 v=92
149292 Tempo 327868
149292 Tempo 329670
149309 Tempo 331491
149310 Tempo 329670
149326 Tempo 333333
149329 Tempo 331491
149343 Tempo 335195
149348 Tempo 333333
149360 Tempo 337078
149366 Tempo 335195
149377 Tempo 338983
149385 Tempo 337078
149394 Tempo 340909
149403 Tempo 338983
149411 Tempo 342857
149422 Tempo 340909
149428 Tempo 344827
149441 Tempo 342857
149445 Tempo 346820
149459 Tempo 344827
149462 Tempo 348837
149478 Tempo 346820
149479 Tempo 350877
149496 Tempo 348837
149496 Tempo 352941
149513 Tempo 355029
149515 Tempo 350877
149530 Tempo 357142
149533 Tempo 352941
149547 Tempo 359281
149552 Tempo 355029
149564 Tempo 361445
149571 Tempo 357142
149581 Tempo 363636
149589 Tempo 359281
149598 Tempo 365853
149608 Tempo 361445
149614 On ch=2 n=a#3 v=0
149616 Tempo 368098
149616 On ch=2 n=f#4 v=92
149626 Tempo 363636
149633 Tempo 370370
149645 Tempo 365853
149650 Tempo 372670
149662 On ch=2 n=f#4 v=0
149663 Tempo 368098
149664 On ch=2 n=a#3 v=92
149667 Tempo 375000
149682 Tempo 370370
149684 Tempo 377358
149701 Tempo 372670
149701 Tempo 379746
149718 Tempo 382165
149719 Tempo 375000
149735 Tempo 384615
149738 Tempo 377358
149752 Tempo 387096
149756 Tempo 379746
149769 Tempo 389610
149775 Tempo 382165
149786 Tempo 392156
149794 Tempo 384615
149803 Tempo 394736
149806 On ch=2 n=a#3 v=0
149808 On ch=2 n=d#5 v=92
149812 Tempo 387096
149820 Tempo 397350
149831 Tempo 389610
149837 Tempo 400000
149849 Tempo 392156
149854 On ch=2 n=d#5 v=0
149854 Tempo 402684
149856 Par ch=2 c=64 v=0
149856 Par ch=2 c=64 v=127
149856 On ch=2 n=a#3 v=92
149868 Tempo 394736
149871 Tempo 405405
149886 Tempo 397350
149888 Tempo 408163
149905 Tempo 400000
149905 Tempo 410958
149922 Tempo 413793
149924 Tempo 402684
149939 Tempo 416666
149942 Tempo 405405
149956 Tempo 419580
149961 Tempo 408163
149973 Tempo 422535
149979 Tempo 410958
149990 Tempo 425531
149998 On ch=2 n=a#3 v=0
149998 Tempo 413793
150000 On ch=2 n=f4 v=92
150007 Tempo 428571
150017 Tempo 416666
150024 Tempo 431654
150035 Tempo 419580
150041 Tempo 434782
150046 On ch=2 n=f4 v=0
150048 On ch=2 n=d#4 v=92
150054 Tempo 422535
150058 Tempo 437956
150072 Tempo 425531
150075 Tempo 441176
150091 Tempo 428571
150092 Tempo 444444
150109 Tempo 431654
150109 Tempo 447761
150126 Tempo 451127
150128 Tempo 434782
150144 Tempo 454545
150147 Tempo 437956
150161 Tempo 458015
150165 Tempo 441176
150178 Tempo 461538
150184 Tempo 444444
150195 Tempo 465116
150202 Tempo 447761
150212 Tempo 468750
150221 Tempo 451127
150229 Tempo 472440
150239 Tempo 454545
150246 Tempo 476190
150258 Tempo 458015
150263 Tempo 480000
150277 Tempo 461538
150280 Tempo 483870
150295 Tempo 465116
150297 Tempo 487804
150314 Tempo 468750
150314 Tempo 491803
150331 Tempo 495867
150332 Tempo 472440
150348 Tempo 500000
150351 Tempo 476190
150365 Tempo 504201
150370 Tempo 480000
150382 On ch=2 n=d#4 v=0
150382 Tempo 508474
150384 On ch=2 n=a#4 v=85
150388 Tempo 483870
150399 Tempo 512820
150407 Tempo 487804
150416 Tempo 517241
150425 Tempo 491803
150430 On ch=2 n=a#4 v=0
150432 On ch=2 n=d#4 v=83
150433 Tempo 521739
150444 Tempo 495867
150450 Tempo 526315
150462 Tempo 500000
150467 Tempo 530973
150481 Tempo 504201
150484 Tempo 535714
150500 Tempo 508474
150501 Tempo 540540
150518 Tempo 512820
150518 Tempo 545454
150535 Tempo 550458
150537 Tempo 517241
150552 Tempo 555555
150555 Tempo 521739
150569 Tempo 560747
150574 On ch=2 n=d#4 v=0
150574 Tempo 526315
150576 On ch=2 n=f#5 v=76
150586 Tempo 566037
150593 Tempo 530973
150603 Tempo 571428
150611 Tempo 535714
150620 Tempo 576923
150622 On ch=2 n=f#5 v=0
150624 Par ch=2 c=64 v=0
150624 Par ch=2 c=64 v=127
150624 On ch=2 n=d#4 v=74
150630 Tempo 540540
150637 Tempo 582524
150648 Tempo 545454
150654 Tempo 588235
150667 Tempo 550458
150672 Tempo 594059
150685 Tempo 555555
150689 Tempo 600000
150704 Tempo 560747
150706 Tempo 606060
150723 Tempo 566037
150723 Tempo 612244
150740 Tempo 618556
150741 Tempo 571428
150757 Tempo 625000
150760 Tempo 576923
150766 On ch=2 n=d#4 v=0
150768 On ch=2 n=f#5 v=67
150774 Tempo 631578
150778 Tempo 582524
150791 Tempo 638297
150797 Tempo 588235
150808 Tempo 645161
150814 On ch=2 n=f#5 v=0
150815 Tempo 594059
150816 On ch=2 n=a#4 v=65
150825 Tempo 652173
150834 Tempo 600000
150842 Tempo 659340
150853 Tempo 606060
150859 Tempo 666666
150871 Tempo 612244
150876 Tempo 674157
150890 Tempo 618556
150893 Tempo 681818
150908 Tempo 625000
150910 Tempo 689655
150927 Tempo 631578
150927 Tempo 697674
150944 Tempo 705882
150946 Tempo 638297
150961 Tempo 714285
150964 Tempo 645161
150978 Tempo 722891
150983 Tempo 652173
150995 Tempo 731707
151001 Tempo 659340
151012 Tempo 740740
151020 Tempo 666666
151029 Tempo 750000
151038 Tempo 674157
151046 Tempo 759493
151057 Tempo 681818
151063 Tempo 769230
151076 Tempo 689655
151080 Tempo 779220
151094 Tempo 697674
151097 Tempo 789473
151113 Tempo 705882
151114 Tempo 800000
151131 Tempo 714285
151131 Tempo 810810
151148 Tempo 821917
151150 On ch=2 n=a#4 v=0
151150 Tempo 722891
151152 On ch=2 n=a#5 v=48
151165 Tempo 833333
151169 Tempo 731707
151182 Tempo 845070
151187 Tempo 740740
151198 On ch=2 n=a#5 v=0
151200 Tempo 857142
151200 On ch=2 n=d#5 v=45
151206 Tempo 750000
151224 Tempo 759493
151243 Tempo 769230
151261 Tempo 779220
151280 Tempo 789473
151299 Tempo 800000
151317 Tempo 810810
151336 Tempo 821917
151344 On ch=1 n=f#4 v=0
151344 On ch=1 n=a#4 v=0
151344 On ch=1 n=d#5 v=0
151344 On ch=1 n=a#5 v=0
151354 Tempo 833333
151360 On ch=2 n=d#5 v=0
151373 Tempo 845070
151392 Par ch=2 c=64 v=0
151392 Tempo 857142
151392 Tempo 666666
151392 Tempo 666666
151584 On ch=1 n=f#5 v=75
151584 On ch=1 n=a#5 v=75
151584 On ch=1 n=d#6 v=75
151584 On ch=2 n=f#4 v=75
151584 On ch=2 n=a#4 v=75
151584 On ch=2 n=d#5 v=75
151776 On ch=1 n=f#5 v=0
151776 On ch=1 n=a#5 v=0
151776 On ch=1 n=d#6 v=0
151776 On ch=2 n=f#4 v=0
151776 On ch=2 n=a#4 v=0
151776 On ch=2 n=d#5 v=0
151776 On ch=1 n=f#5 v=75
151776 On ch=1 n=a#5 v=75
151776 On ch=1 n=c#6 v=75
151776 On ch=2 n=f4 v=75
151776 On ch=2 n=f#4 v=75
151776 On ch=2 n=a#4 v=75
151776 On ch=2 n=c#5 v=75
152160 On ch=1 n=f#5 v=0
152160 On ch=1 n=a#5 v=0
152160 On ch=1 n=c#6 v=0
152160 On ch=2 n=f4 v=0
152160 On ch=2 n=f#4 v=0
152160 On ch=2 n=a#4 v=0
152160 On ch=2 n=c#5 v=0
152160 On ch=1 n=f#5 v=75
152160 On ch=1 n=b5 v=75
152160 On ch=1 n=d#6 v=75
152160 On ch=1 n=d#6 v=75
152160 On ch=2 n=d#4 v=75
152160 On ch=2 n=f#4 v=75
152160 On ch=2 n=b4 v=75
152160 On ch=2 n=d#5 v=75
152352 On ch=1 n=d#6 v=0
152352 On ch=1 n=f#6 v=92
152352 On ch=2 n=d#3 v=92
152928 On ch=2 n=d#3 v=0
153022 On ch=1 n=g5 v=0
153022 On ch=1 n=c6 v=0
153022 On ch=1 n=e6 v=0
153022 On ch=1 n=g6 v=0
153024 On ch=2 n=e4 v=0
153024 On ch=2 n=g4 v=0
153024 On ch=2 n=c5 v=0
153024 On ch=2 n=e5 v=0
153120 On ch=1 n=d#5 v=92
153120 On ch=1 n=f#5 v=92
153120 On ch=1 n=a#5 v=92
153120 On ch=2 n=c#4 v=92
153120 On ch=2 n=d#4 v=92
153120 On ch=2 n=f#4 v=92
153120 On ch=2 n=a#4 v=92
153312 On ch=1 n=d#5 v=0
153312 On ch=1 n=f#5 v=0
153312 On ch=1 n=a#5 v=0
153312 On ch=2 n=c#4 v=0
153312 On ch=2 n=d#4 v=0
153312 On ch=2 n=f#4 v=0
153312 On ch=2 n=a#4 v=0
153312 On ch=1 n=d#5 v=81
153312 On ch=1 n=f5 v=81
153312 On ch=1 n=g#5 v=81
153312 On ch=2 n=b3 v=81
153312 On ch=2 n=d#4 v=81
153312 On ch=2 n=f4 v=81
153312 On ch=2 n=g#4 v=81
153696 On ch=1 n=d#5 v=0
153696 On ch=1 n=f5 v=0
153696 On ch=1 n=g#5 v=0
153696 On ch=2 n=b3 v=0
153696 On ch=2 n=d#4 v=0
153696 On ch=2 n=f4 v=0
153696 On ch=2 n=g#4 v=0
153696 On ch=1 n=d#5 v=57
153696 On ch=1 n=f#5 v=57
153696 On ch=1 n=a#5 v=57
153696 On ch=1 n=a#5 v=57
153696 On ch=2 n=a#3 v=57
153696 On ch=2 n=d#4 v=57
153696 On ch=2 n=f#4 v=57
153696 On ch=2 n=a#4 v=57
153856 On ch=1 n=a#5 v=0
153888 On ch=1 n=d#6 v=45
153888 On ch=2 n=d#3 v=45
154416 On ch=2 n=d#3 v=0
154558 On ch=1 n=e5 v=0
154558 On ch=1 n=g5 v=0
154558 On ch=1 n=a#5 v=0
154558 On ch=1 n=e6 v=0
154558 On ch=2 n=a#3 v=0
154558 On ch=2 n=e4 v=0
154558 On ch=2 n=g4 v=0
154558 On ch=2 n=a#4 v=0
154656 On ch=1 n=a#4 v=92
154656 On ch=1 n=d#5 v=92
154656 On ch=1 n=f#5 v=92
154656 On ch=2 n=a#3 v=92
154656 On ch=2 n=d#4 v=92
154656 On ch=2 n=f#4 v=92
154816 On ch=1 n=a#4 v=0
154816 On ch=1 n=d#5 v=0
154816 On ch=1 n=f#5 v=0
154816 On ch=2 n=a#3 v=0
154816 On ch=2 n=d#4 v=0
154816 On ch=2 n=f#4 v=0
154848 On ch=1 n=a4 v=92
154848 On ch=1 n=d#5 v=92
154848 On ch=1 n=f5 v=92
154848 On ch=2 n=c4 v=92
154848 On ch=2 n=f4 v=92
155104 On ch=1 n=a4 v=0
155136 On ch=1 n=g#4 v=92
155184 On ch=1 n=d#5 v=0
155184 On ch=1 n=f5 v=0
155184 On ch=2 n=c4 v=0
155184 On ch=2 n=f4 v=0
155230 On ch=1 n=g#4 v=0
155232 On ch=1 n=g4 v=92
155232 On ch=1 n=b4 v=92
155232 On ch=1 n=e5 v=92
155232 On ch=2 n=e3 v=92
155232 On ch=2 n=b3 v=92
155232 On ch=2 n=e4 v=92
155902 On ch=1 n=g4 v=0
155902 On ch=1 n=b4 v=0
155902 On ch=1 n=e5 v=0
155902 On ch=2 n=e3 v=0
155902 On ch=2 n=b3 v=0
155902 On ch=2 n=e4 v=0
155904 On ch=1 n=a4 v=92
155904 On ch=1 n=d#5 v=92
155904 On ch=1 n=b5 v=92
155904 On ch=2 n=b2 v=92
155904 On ch=2 n=b3 v=92
155998 On ch=1 n=a4 v=0
155998 On ch=1 n=d#5 v=0
155998 On ch=1 n=b5 v=0
155998 On ch=2 n=b2 v=0
156000 On ch=1 n=g4 v=92
156000 On ch=1 n=e5 v=92
156000 On ch=1 n=g5 v=92
156000 On ch=2 n=e3 v=92
157104 On ch=1 n=e5 v=0
157152 On ch=1 n=d#5 v=92
157488 On ch=2 n=a#3 v=0
157488 On ch=1 n=g4 v=0
157488 On ch=1 n=g5 v=0
157536 On ch=1 n=g#4 v=92
157536 On ch=1 n=g#5 v=92
157536 On ch=2 n=b3 v=92
157872 On ch=2 n=e3 v=0
157920 On ch=2 n=f3 v=92
158256 On ch=1 n=d#5 v=0
158256 On ch=2 n=b3 v=0
158256 On ch=2 n=f3 v=0
158304 Tempo 300000
158304 Tempo 300000
158304 On ch=1 n=d5 v=45
158304 On ch=2 n=a#2 v=75
158304 On ch=2 n=a#3 v=75
158432 Par ch=1 c=64 v=127
158432 On ch=1 n=d5 v=45
158494 On ch=1 n=d5 v=0
158496 On ch=1 n=g#5 v=45
158558 On ch=1 n=g#5 v=0
158560 On ch=1 n=f5 v=45
158622 On ch=1 n=f5 v=0
158624 On ch=1 n=d5 v=45
158686 On ch=1 n=d5 v=0
158688 Par ch=1 c=64 v=0
158688 Par ch=1 c=64 v=127
158688 On ch=2 n=a#3 v=75
158752 On ch=1 n=d5 v=45
158814 On ch=1 n=d5 v=0
158816 On ch=1 n=f5 v=45
158878 On ch=1 n=f5 v=0
158880 On ch=1 n=a#5 v=45
158942 On ch=1 n=a#5 v=0
158944 On ch=1 n=f5 v=45
159006 On ch=1 n=f5 v=0
159008 On ch=1 n=d5 v=45
159024 On ch=2 n=a#3 v=0
159024 On ch=2 n=a#2 v=0
159024 On ch=1 n=g#5 v=0
159024 On ch=1 n=d5 v=0
159024 On ch=1 n=a4 v=0
159024 On ch=2 n=a#3 v=0
159070 On ch=1 n=d5 v=0
159072 Par ch=1 c=64 v=0
159072 Par ch=1 c=64 v=127
159072 On ch=2 n=g#4 v=75
159136 On ch=1 n=d5 v=45
159198 On ch=1 n=d5 v=0
159200 On ch=1 n=f5 v=45
159262 On ch=1 n=f5 v=0
159264 On ch=1 n=g#5 v=45
159326 On ch=1 n=g#5 v=0
159328 On ch=1 n=f5 v=45
159390 On ch=1 n=f5 v=0
159392 On ch=1 n=d5 v=45
159454 On ch=1 n=d5 v=0
159456 Par ch=1 c=64 v=0
159456 Par ch=1 c=64 v=127
159456 On ch=2 n=a#3 v=75
159520 On ch=1 n=d5 v=45
159582 On ch=1 n=d5 v=0
159584 On ch=1 n=f5 v=45
159646 On ch=1 n=f5 v=0
159648 On ch=1 n=a#5 v=45
159710 On ch=1 n=a#5 v=0
159712 On ch=1 n=f5 v=45
159774 On ch=1 n=f5 v=0
159776 On ch=1 n=d5 v=45
159792 On ch=2 n=g#4 v=0
159792 On ch=2 n=a#3 v=0
159838 On ch=1 n=d5 v=0
159840 Par ch=1 c=64 v=0
159840 Par ch=1 c=64 v=127
159840 On ch=2 n=g#4 v=75
159904 On ch=1 n=d5 v=45
159966 On ch=1 n=d5 v=0
159968 On ch=1 n=f5 v=45
160030 On ch=1 n=f5 v=0
160032 On ch=1 n=g#5 v=45
160094 On ch=1 n=g#5 v=0
160096 On ch=1 n=f5 v=45
160158 On ch=1 n=f5 v=0
160160 On ch=1 n=d5 v=45
160222 On ch=1 n=d5 v=0
160224 Par ch=1 c=64 v=0
160224 Par ch=1 c=64 v=127
160224 On ch=2 n=a#3 v=53
160288 On ch=1 n=d5 v=45
160350 On ch=1 n=d5 v=0
160352 On ch=1 n=f5 v=45
160414 On ch=1 n=f5 v=0
160416 On ch=1 n=a#5 v=45
160478 On ch=1 n=a#5 v=0
160480 On ch=1 n=f5 v=45
160542 On ch=1 n=f5 v=0
160544 On ch=1 n=d5 v=45
160560 On ch=2 n=g#4 v=0
160560 On ch=2 n=a#3 v=0
160606 On ch=1 n=d5 v=0
160608 Par ch=1 c=64 v=0
160608 Par ch=2 c=64 v=127
160608 On ch=1 n=f6 v=75
160608 On ch=2 n=g#4 v=30
160672 On ch=2 n=d5 v=30
160734 On ch=2 n=d5 v=0
160736 On ch=2 n=f5 v=30
160798 On ch=2 n=f5 v=0
160800 On ch=2 n=g#5 v=30
160862 On ch=2 n=g#5 v=0
160864 On ch=2 n=f5 v=30
160926 On ch=2 n=f5 v=0
160928 On ch=2 n=d5 v=30
160990 On ch=2 n=d5 v=0
160992 Par ch=2 c=64 v=0
160992 Par ch=2 c=64 v=127
160992 On ch=2 n=a#3 v=30
161056 On ch=2 n=d5 v=30
161118 On ch=2 n=d5 v=0
161120 On ch=2 n=f5 v=30
161182 On ch=2 n=f5 v=0
161184 On ch=2 n=a#5 v=30
161246 On ch=2 n=a#5 v=0
161248 On ch=2 n=f5 v=30
161280 On ch=1 n=f6 v=0
161280 On ch=1 n=f#6 v=75
161310 On ch=2 n=f5 v=0
161312 On ch=2 n=d5 v=30
161328 On ch=2 n=g#4 v=0
161328 On ch=2 n=a#3 v=0
161374 On ch=2 n=d5 v=0
161376 On ch=1 n=f#6 v=0
161376 Par ch=2 c=64 v=0
161376 Par ch=2 c=64 v=127
161376 On ch=1 n=f#6 v=75
161376 On ch=2 n=f#4 v=30
161440 On ch=2 n=a#4 v=30
161502 On ch=2 n=a#4 v=0
161504 On ch=2 n=c#5 v=30
161566 On ch=2 n=c#5 v=0
161568 On ch=2 n=g#5 v=30
161630 On ch=2 n=g#5 v=0
161632 On ch=2 n=c#5 v=30
161694 On ch=2 n=c#5 v=0
161696 On ch=2 n=a#4 v=30
161758 On ch=2 n=a#4 v=0
161760 Par ch=2 c=64 v=0
161760 Par ch=2 c=64 v=127
161760 On ch=2 n=a#3 v=30
161824 On ch=2 n=a#4 v=30
161886 On ch=2 n=a#4 v=0
161888 On ch=2 n=c#5 v=30
161950 On ch=2 n=c#5 v=0
161952 On ch=2 n=a#5 v=30
162014 On ch=2 n=a#5 v=0
162016 On ch=2 n=c#5 v=30
162078 On ch=2 n=c#5 v=0
162080 On ch=2 n=a#4 v=30
162096 On ch=2 n=f#4 v=0
162096 On ch=2 n=a#3 v=0
162142 On ch=2 n=a#4 v=0
162144 On ch=1 n=f#6 v=0
162144 Par ch=2 c=64 v=0
162144 Par ch=2 c=64 v=127
162144 On ch=1 n=a#6 v=75
162144 On ch=2 n=f#4 v=30
162208 On ch=2 n=a#4 v=30
162270 On ch=2 n=a#4 v=0
162272 On ch=2 n=c#5 v=30
162334 On ch=2 n=c#5 v=0
162336 On ch=2 n=g#5 v=30
162398 On ch=2 n=g#5 v=0
162400 On ch=2 n=c#5 v=30
162462 On ch=2 n=c#5 v=0
162464 On ch=2 n=a#4 v=30
162526 On ch=2 n=a#4 v=0
162528 Par ch=2 c=64 v=0
162528 Par ch=2 c=64 v=127
162528 On ch=2 n=a#3 v=30
162592 On ch=2 n=a#4 v=30
162654 On ch=2 n=a#4 v=0
162656 On ch=2 n=c#5 v=30
162718 On ch=2 n=c#5 v=0
162720 On ch=2 n=a#5 v=30
162782 On ch=2 n=a#5 v=0
162784 On ch=2 n=c#5 v=30
162846 On ch=2 n=c#5 v=0
162848 On ch=2 n=a#4 v=30
162864 On ch=2 n=f#4 v=0
162864 On ch=2 n=a#3 v=0
162910 On ch=2 n=a#4 v=0
162912 On ch=1 n=a#6 v=0
162912 Par ch=2 c=64 v=0
162912 Par ch=2 c=64 v=127
162912 On ch=2 n=f#4 v=30
162976 On ch=2 n=b4 v=30
163038 On ch=2 n=b4 v=0
163040 On ch=2 n=d#5 v=30
163102 On ch=2 n=d#5 v=0
163104 On ch=2 n=g#5 v=30
163166 On ch=2 n=g#5 v=0
163168 On ch=2 n=d#5 v=30
163230 On ch=2 n=d#5 v=0
163232 On ch=2 n=b4 v=30
163294 On ch=2 n=b4 v=0
163296 Par ch=2 c=64 v=0
163296 Par ch=2 c=64 v=127
163296 On ch=2 n=a#3 v=30
163360 On ch=2 n=b4 v=30
163422 On ch=2 n=b4 v=0
163424 On ch=2 n=d#5 v=30
163486 On ch=2 n=d#5 v=0
163488 On ch=2 n=a#5 v=30
163550 On ch=2 n=a#5 v=0
163552 On ch=2 n=d#5 v=30
163614 On ch=2 n=d#5 v=0
163616 On ch=2 n=b4 v=30
163632 On ch=2 n=f#4 v=0
163632 On ch=2 n=a#3 v=0
163678 On ch=2 n=b4 v=0
163680 Par ch=2 c=64 v=0
163680 Par ch=2 c=64 v=127
163680 On ch=1 n=d#6 v=75
163680 On ch=2 n=g4 v=30
163744 On ch=2 n=c5 v=30
163806 On ch=2 n=c5 v=0
163808 On ch=2 n=d#5 v=30
163870 On ch=2 n=d#5 v=0
163872 On ch=2 n=g#5 v=30
163934 On ch=2 n=g#5 v=0
163936 On ch=2 n=d#5 v=30
163998 On ch=2 n=d#5 v=0
164000 On ch=2 n=c5 v=30
164062 On ch=2 n=c5 v=0
164064 Par ch=2 c=64 v=0
164064 Par ch=2 c=64 v=127
164064 On ch=2 n=a#3 v=30
164128 On ch=2 n=c5 v=30
164190 On ch=2 n=c5 v=0
164192 On ch=2 n=d#5 v=30
164254 On ch=2 n=d#5 v=0
164256 On ch=2 n=a#5 v=30
164318 On ch=2 n=a#5 v=0
164320 On ch=2 n=d#5 v=30
164352 On ch=1 n=d#6 v=0
164352 On ch=1 n=f6 v=75
164382 On ch=2 n=d#5 v=0
164384 On ch=2 n=c5 v=30
164400 On ch=2 n=g4 v=0
164400 On ch=2 n=a#3 v=0
164446 On ch=2 n=c5 v=0
164448 On ch=1 n=f6 v=0
164448 Par ch=2 c=64 v=0
164448 Par ch=2 c=64 v=127
164448 On ch=1 n=f6 v=75
164448 On ch=2 n=f4 v=30
164512 On ch=2 n=c#5 v=30
164574 On ch=2 n=c#5 v=0
164576 On ch=2 n=f5 v=30
164638 On ch=2 n=f5 v=0
164640 On ch=2 n=g#5 v=30
164702 On ch=2 n=g#5 v=0
164704 On ch=2 n=f5 v=30
164766 On ch=2 n=f5 v=0
164768 On ch=2 n=c#5 v=30
164830 On ch=2 n=c#5 v=0
164832 Par ch=2 c=64 v=0
164832 Par ch=2 c=64 v=127
164832 On ch=2 n=a#3 v=30
164896 On ch=2 n=c#5 v=30
164958 On ch=2 n=c#5 v=0
164960 On ch=2 n=f5 v=30
165022 On ch=2 n=f5 v=0
165024 On ch=2 n=a#5 v=30
165086 On ch=2 n=a#5 v=0
165088 On ch=2 n=f5 v=30
165150 On ch=2 n=f5 v=0
165152 On ch=2 n=c#5 v=30
165168 On ch=1 n=f6 v=0
165168 On ch=2 n=f4 v=0
165168 On ch=2 n=a#3 v=0
165214 On ch=2 n=c#5 v=0
165216 Par ch=2 c=64 v=0
165216 On ch=1 n=a#6 v=75
165216 On ch=2 n=f4 v=30
165280 On ch=2 n=c#5 v=30
165342 On ch=2 n=c#5 v=0
165344 On ch=2 n=f5 v=30
165406 On ch=2 n=f5 v=0
165408 On ch=2 n=g#5 v=30
165470 On ch=2 n=g#5 v=0
165472 On ch=2 n=f5 v=30
165534 On ch=2 n=f5 v=0
165536 On ch=2 n=c#5 v=30
165598 On ch=2 n=c#5 v=0
165600 Par ch=2 c=64 v=0
165600 Par ch=2 c=64 v=127
165600 On ch=2 n=a#3 v=30
165664 On ch=2 n=c#5 v=30
165726 On ch=2 n=c#5 v=0
165728 On ch=2 n=f5 v=30
165790 On ch=2 n=f5 v=0
165792 On ch=2 n=a#5 v=30
165854 On ch=2 n=a#5 v=0
165856 On ch=2 n=f5 v=30
165918 On ch=2 n=f5 v=0
165920 On ch=2 n=c#5 v=30
165936 On ch=1 n=a#6 v=0
165936 On ch=2 n=f4 v=0
165936 On ch=2 n=a#3 v=0
165982 On ch=2 n=c#5 v=0
165984 Par ch=2 c=64 v=0
165984 Par ch=2 c=64 v=127
165984 On ch=2 n=e4 v=30
166048 On ch=2 n=a#4 v=30
166110 On ch=2 n=a#4 v=0
166112 On ch=2 n=c#5 v=30
166174 On ch=2 n=c#5 v=0
166176 On ch=1 n=a#6 v=75
166176 On ch=2 n=g#5 v=30
166238 On ch=2 n=g#5 v=0
166240 On ch=2 n=c#5 v=30
166302 On ch=2 n=c#5 v=0
166304 On ch=2 n=a#4 v=30
166366 On ch=2 n=a#4 v=0
166368 Par ch=2 c=64 v=0
166368 Par ch=2 c=64 v=127
166368 On ch=2 n=a#3 v=30
166432 On ch=2 n=a#4 v=30
166494 On ch=2 n=a#4 v=0
166496 On ch=2 n=c#5 v=30
166512 On ch=1 n=a#6 v=0
166558 On ch=2 n=c#5 v=0
166560 On ch=1 n=g#6 v=75
166560 On ch=2 n=a#5 v=30
166622 On ch=2 n=a#5 v=0
166624 On ch=2 n=c#5 v=30
166686 On ch=2 n=c#5 v=0
166688 On ch=2 n=a#4 v=30
166704 On ch=2 n=e4 v=0
166704 On ch=2 n=a#3 v=0
166720 On ch=1 n=g#6 v=0
166750 On ch=2 n=a#4 v=0
166752 Par ch=2 c=64 v=0
166752 Par ch=2 c=64 v=127
166752 On ch=1 n=a#6 v=75
166752 On ch=2 n=e4 v=30
166816 On ch=2 n=a#4 v=30
166878 On ch=2 n=a#4 v=0
166880 On ch=2 n=c#5 v=30
166942 On ch=2 n=c#5 v=0
166944 On ch=2 n=g#5 v=30
167006 On ch=2 n=g#5 v=0
167008 On ch=2 n=c#5 v=30
167070 On ch=2 n=c#5 v=0
167072 On ch=2 n=a#4 v=30
167134 On ch=2 n=a#4 v=0
167136 Par ch=2 c=64 v=0
167136 Par ch=2 c=64 v=127
167136 On ch=2 n=a#3 v=30
167200 On ch=2 n=a#4 v=30
167262 On ch=2 n=a#4 v=0
167264 On ch=2 n=c#5 v=30
167280 On ch=1 n=a#6 v=0
167326 On ch=2 n=c#5 v=0
167328 On ch=1 n=c#7 v=75
167328 On ch=2 n=a#5 v=30
167390 On ch=2 n=a#5 v=0
167392 On ch=2 n=c#5 v=30
167454 On ch=2 n=c#5 v=0
167456 On ch=2 n=a#4 v=30
167472 On ch=2 n=e4 v=0
167472 On ch=2 n=a#3 v=0
167488 On ch=1 n=c#7 v=0
167518 On ch=2 n=a#4 v=0
167520 Par ch=2 c=64 v=0
167520 Par ch=2 c=64 v=127
167520 On ch=1 n=a#7 v=75
167520 On ch=2 n=d#4 v=30
167584 On ch=2 n=a#4 v=30
167646 On ch=2 n=a#4 v=0
167648 On ch=2 n=c#5 v=30
167710 On ch=2 n=c#5 v=0
167712 On ch=2 n=g5 v=30
167774 On ch=2 n=g5 v=0
167776 On ch=2 n=c#5 v=30
167838 On ch=2 n=c#5 v=0
167840 On ch=2 n=a#4 v=30
167902 On ch=2 n=a#4 v=0
167904 Par ch=2 c=64 v=0
167904 Par ch=2 c=64 v=127
167904 On ch=2 n=a#3 v=30
167968 On ch=2 n=a#4 v=30
168030 On ch=2 n=a#4 v=0
168032 On ch=2 n=c#5 v=30
168094 On ch=2 n=c#5 v=0
168096 On ch=2 n=a#5 v=30
168158 On ch=2 n=a#5 v=0
168160 On ch=2 n=c#5 v=30
168222 On ch=2 n=c#5 v=0
168224 On ch=2 n=a#4 v=30
168240 On ch=1 n=a#7 v=0
168240 On ch=2 n=d#4 v=0
168240 On ch=2 n=a#3 v=0
168286 On ch=2 n=a#4 v=0
168288 Par ch=2 c=64 v=0
168288 Par ch=2 c=64 v=127
168288 On ch=1 n=d#7 v=75
168288 On ch=2 n=d#4 v=30
168352 On ch=2 n=a#4 v=30
168414 On ch=2 n=a#4 v=0
168416 On ch=2 n=c#5 v=30
168478 On ch=2 n=c#5 v=0
168480 On ch=2 n=g5 v=30
168542 On ch=2 n=g5 v=0
168544 On ch=2 n=c#5 v=30
168606 On ch=2 n=c#5 v=0
168608 On ch=2 n=a#4 v=30
168670 On ch=2 n=a#4 v=0
168672 Par ch=2 c=64 v=0
168672 Par ch=2 c=64 v=127
168672 On ch=2 n=a#3 v=30
168736 On ch=2 n=a#4 v=30
168798 On ch=2 n=a#4 v=0
168800 On ch=2 n=c#5 v=30
168862 On ch=2 n=c#5 v=0
168864 On ch=2 n=a#5 v=30
168926 On ch=2 n=a#5 v=0
168928 On ch=2 n=c#5 v=30
168990 On ch=2 n=c#5 v=0
168992 On ch=2 n=a#4 v=30
169008 On ch=1 n=d#7 v=0
169008 On ch=2 n=d#4 v=0
169008 On ch=2 n=a#3 v=0
169054 On ch=2 n=a#4 v=0
169056 Par ch=2 c=64 v=0
169056 Par ch=2 c=64 v=127
169056 On ch=2 n=d#4 v=30
169120 On ch=2 n=a#4 v=30
169182 On ch=2 n=a#4 v=0
169184 On ch=2 n=c#5 v=30
169246 On ch=2 n=c#5 v=0
169248 On ch=2 n=g5 v=30
169310 On ch=2 n=g5 v=0
169312 On ch=2 n=c#5 v=30
169374 On ch=2 n=c#5 v=0
169376 On ch=2 n=a#4 v=30
169438 On ch=2 n=a#4 v=0
169440 Par ch=2 c=64 v=0
169440 Par ch=2 c=64 v=127
169440 On ch=2 n=a#3 v=30
169504 On ch=2 n=a#4 v=30
169566 On ch=2 n=a#4 v=0
169568 On ch=2 n=c#5 v=30
169630 On ch=2 n=c#5 v=0
169632 On ch=2 n=a#5 v=30
169694 On ch=2 n=a#5 v=0
169696 On ch=2 n=c#5 v=30
169758 On ch=2 n=c#5 v=0
169760 On ch=2 n=a#4 v=30
169776 On ch=2 n=d#4 v=0
169776 On ch=2 n=a#3 v=0
169822 On ch=2 n=a#4 v=0
169824 Par ch=2 c=64 v=0
169824 Par ch=2 c=64 v=127
169824 On ch=1 n=a#6 v=75
169824 On ch=2 n=e4 v=30
169888 On ch=2 n=a#4 v=30
169950 On ch=2 n=a#4 v=0
169952 On ch=2 n=c5 v=30
170014 On ch=2 n=c5 v=0
170016 On ch=2 n=g5 v=30
170078 On ch=2 n=g5 v=0
170080 On ch=2 n=c5 v=30
170142 On ch=2 n=c5 v=0
170144 On ch=2 n=a#4 v=30
170206 On ch=2 n=a#4 v=0
170208 Par ch=2 c=64 v=0
170208 Par ch=2 c=64 v=127
170208 On ch=2 n=a#3 v=30
170272 On ch=2 n=a#4 v=30
170334 On ch=2 n=a#4 v=0
170336 On ch=2 n=c5 v=30
170352 On ch=1 n=a#6 v=0
170398 On ch=2 n=c5 v=0
170400 On ch=1 n=a#6 v=75
170400 On ch=2 n=a#5 v=30
170462 On ch=2 n=a#5 v=0
170464 On ch=2 n=c5 v=30
170526 On ch=2 n=c5 v=0
170528 On ch=2 n=a#4 v=30
170544 On ch=2 n=e4 v=0
170544 On ch=2 n=a#3 v=0
170560 On ch=1 n=a#6 v=0
170590 On ch=2 n=a#4 v=0
170592 Par ch=2 c=64 v=0
170592 Par ch=2 c=64 v=127
170592 On ch=1 n=a#6 v=75
170592 On ch=2 n=f4 v=30
170656 On ch=2 n=a#4 v=30
170718 On ch=2 n=a#4 v=0
170720 On ch=2 n=c#5 v=30
170782 On ch=2 n=c#5 v=0
170784 On ch=2 n=g#5 v=30
170846 On ch=2 n=g#5 v=0
170848 On ch=2 n=c#5 v=30
170910 On ch=2 n=c#5 v=0
170912 On ch=2 n=a#4 v=30
170974 On ch=2 n=a#4 v=0
170976 Par ch=2 c=64 v=0
170976 Par ch=2 c=64 v=127
170976 On ch=2 n=a#3 v=30
171040 On ch=2 n=a#4 v=30
171102 On ch=2 n=a#4 v=0
171104 On ch=2 n=c#5 v=30
171166 On ch=2 n=c#5 v=0
171168 On ch=2 n=a#5 v=30
171230 On ch=2 n=a#5 v=0
171232 On ch=2 n=c#5 v=30
171294 On ch=2 n=c#5 v=0
171296 On ch=2 n=a#4 v=30
171312 On ch=1 n=a#6 v=0
171312 On ch=2 n=f4 v=0
171312 On ch=2 n=a#3 v=0
171358 On ch=2 n=a#4 v=0
171360 Par ch=2 c=64 v=0
171360 Par ch=2 c=64 v=127
171360 On ch=1 n=c#7 v=75
171360 On ch=2 n=f4 v=30
171424 On ch=2 n=a#4 v=30
171486 On ch=2 n=a#4 v=0
171488 On ch=2 n=c#5 v=30
171550 On ch=2 n=c#5 v=0
171552 On ch=2 n=g#5 v=30
171614 On ch=2 n=g#5 v=0
171616 On ch=2 n=c#5 v=30
171678 On ch=2 n=c#5 v=0
171680 On ch=2 n=a#4 v=30
171742 On ch=2 n=a#4 v=0
171744 Par ch=2 c=64 v=0
171744 Par ch=2 c=64 v=127
171744 On ch=2 n=a#3 v=30
171808 On ch=2 n=a#4 v=30
171870 On ch=2 n=a#4 v=0
171872 On ch=2 n=c#5 v=30
171934 On ch=2 n=c#5 v=0
171936 On ch=2 n=a#5 v=30
171998 On ch=2 n=a#5 v=0
172000 On ch=2 n=c#5 v=30
172062 On ch=2 n=c#5 v=0
172064 On ch=2 n=a#4 v=30
172080 On ch=2 n=f4 v=0
172080 On ch=2 n=a#3 v=0
172126 On ch=2 n=a#4 v=0
172128 Par ch=2 c=64 v=0
172128 Par ch=1 c=64 v=127
172128 Par ch=2 c=64 v=127
172128 On ch=2 n=f4 v=30
172192 On ch=1 n=a#4 v=45
172254 On ch=1 n=a#4 v=0
172256 On ch=1 n=c#5 v=45
172318 On ch=1 n=c#5 v=0
172320 On ch=1 n=g#5 v=45
172382 On ch=1 n=g#5 v=0
172384 On ch=1 n=c#5 v=45
172446 On ch=1 n=c#5 v=0
172448 On ch=1 n=a#4 v=45
172510 On ch=1 n=a#4 v=0
172512 Par ch=1 c=64 v=0
172512 Par ch=1 c=64 v=127
172512 On ch=2 n=a#3 v=45
172576 On ch=1 n=a#4 v=45
172638 On ch=1 n=a#4 v=0
172640 On ch=1 n=c#5 v=45
172702 On ch=1 n=c#5 v=0
172704 On ch=1 n=a#5 v=45
172766 On ch=1 n=a#5 v=0
172768 On ch=1 n=c#5 v=45
172830 On ch=1 n=c#5 v=0
172832 On ch=1 n=a#4 v=45
172848 On ch=1 n=c#7 v=0
172848 On ch=2 n=f4 v=0
172848 On ch=2 n=a#3 v=0
172894 On ch=1 n=a#4 v=0
172896 Par ch=1 c=64 v=0
172896 Par ch=2 c=64 v=0
172896 Par ch=1 c=64 v=127
172896 Par ch=2 c=64 v=127
172896 On ch=2 n=f#4 v=60
172960 On ch=1 n=a#4 v=45
173022 On ch=1 n=a#4 v=0
173024 On ch=1 n=c#5 v=45
173086 On ch=1 n=c#5 v=0
173088 On ch=1 n=g#5 v=45
173150 On ch=1 n=g#5 v=0
173152 On ch=1 n=c#5 v=45
173214 On ch=1 n=c#5 v=0
173216 On ch=1 n=a#4 v=45
173278 On ch=1 n=a#4 v=0
173280 Par ch=1 c=64 v=0
173280 Par ch=1 c=64 v=127
173280 On ch=2 n=a#3 v=76
173344 On ch=1 n=a#4 v=45
173406 On ch=1 n=a#4 v=0
173408 On ch=1 n=c#5 v=45
173440 On ch=2 n=a#3 v=0
173470 On ch=1 n=c#5 v=0
173472 On ch=1 n=a#5 v=45
173472 On ch=2 n=a#3 v=84
173534 On ch=1 n=a#5 v=0
173534 On ch=2 n=a#3 v=0
173536 On ch=1 n=c#5 v=45
173536 On ch=2 n=b3 v=86
173598 On ch=1 n=c#5 v=0
173598 On ch=2 n=b3 v=0
173600 On ch=1 n=a#4 v=45
173600 On ch=2 n=c4 v=89
173616 On ch=2 n=f#4 v=0
173662 On ch=1 n=a#4 v=0
173662 On ch=2 n=c4 v=0
173664 Par ch=1 c=64 v=0
173664 Par ch=2 c=64 v=0
173664 Tempo 272727
173664 Tempo 272727
173664 TimeSig 3/2 24 8
173664 On ch=2 n=c3 v=92
173664 On ch=2 n=d4 v=127
173824 On ch=2 n=d4 v=0
173856 Par ch=2 c=64 v=127
173856 On ch=2 n=c4 v=92
173950 On ch=2 n=c4 v=0
174000 On ch=2 n=c4 v=92
174046 On ch=2 n=c4 v=0
174048 Par ch=2 c=64 v=0
174048 On ch=2 n=d4 v=92
174096 On ch=2 n=d4 v=0
174240 Par ch=2 c=64 v=127
174240 On ch=2 n=a#3 v=92
174334 On ch=2 n=a#3 v=0
174384 On ch=2 n=a#3 v=92
174430 On ch=2 n=a#3 v=0
174432 Par ch=2 c=64 v=0
174432 On ch=1 n=c#6 v=92
174432 On ch=2 n=c4 v=92
174480 On ch=2 n=c4 v=0
174624 Par ch=2 c=64 v=127
174624 On ch=2 n=g#3 v=92
174718 On ch=2 n=g#3 v=0
174768 On ch=2 n=g#3 v=92
174814 On ch=2 n=g#3 v=0
174816 Par ch=2 c=64 v=0
174816 On ch=2 n=a#3 v=92
174864 On ch=2 n=a#3 v=0
175008 Par ch=2 c=64 v=127
175008 On ch=2 n=g#3 v=92
175102 On ch=2 n=g#3 v=0
175152 On ch=2 n=g#3 v=92
175198 On ch=2 n=g#3 v=0
175200 Par ch=2 c=64 v=0
175200 On ch=2 n=a#3 v=92
175248 On ch=2 n=a#3 v=0
175392 Par ch=2 c=64 v=127
175392 On ch=2 n=g3 v=92
175486 On ch=2 n=g3 v=0
175536 On ch=1 n=d6 v=0
175536 On ch=2 n=g3 v=92
175582 On ch=2 n=g3 v=0
175584 Par ch=2 c=64 v=0
175584 On ch=1 n=a#5 v=92
175584 On ch=2 n=g#3 v=92
175632 On ch=2 n=g#3 v=0
175776 Par ch=2 c=64 v=127
175776 On ch=2 n=f3 v=92
175870 On ch=2 n=f3 v=0
175920 On ch=2 n=f3 v=92
175966 On ch=2 n=f3 v=0
175968 Par ch=2 c=64 v=0
175968 On ch=2 n=g3 v=92
175987 Tempo 273972
176006 Tempo 275229
176016 On ch=2 n=g3 v=0
176025 Tempo 273972
176025 Tempo 276497
176044 Tempo 277777
176064 Tempo 279069
176083 Tempo 275229
176083 Tempo 280373
176102 Tempo 281690
176121 Tempo 283018
176140 Tempo 276497
176140 Tempo 284360
176160 Tempo 285714
176160 Par ch=2 c=64 v=127
176160 On ch=2 n=e3 v=82
176179 Tempo 287081
176198 Tempo 277777
176198 Tempo 288461
176217 Tempo 289855
176236 Tempo 291262
176254 On ch=2 n=e3 v=0
176255 Tempo 279069
176256 Tempo 292682
176275 Tempo 294117
176294 Tempo 295566
176304 On ch=1 n=a#5 v=0
176304 On ch=2 n=e3 v=75
176313 Tempo 280373
176313 Tempo 297029
176332 Tempo 298507
176350 On ch=2 n=e3 v=0
176352 Par ch=2 c=64 v=0
176352 Tempo 300000
176352 On ch=1 n=g5 v=72
176352 On ch=2 n=f3 v=73
176371 Tempo 281690
176371 Tempo 301507
176390 Tempo 303030
176400 On ch=2 n=f3 v=0
176409 Tempo 304568
176428 Tempo 283018
176428 Tempo 306122
176448 Tempo 307692
176467 Tempo 309278
176486 Tempo 284360
176486 Tempo 310880
176505 Tempo 312500
176524 Tempo 314136
176543 Tempo 285714
176544 Tempo 315789
176544 Par ch=2 c=64 v=127
176544 On ch=2 n=d3 v=63
176563 Tempo 317460
176582 Tempo 319148
176601 Tempo 287081
176601 Tempo 320855
176620 Tempo 322580
176638 On ch=2 n=d3 v=0
176640 Tempo 324324
176659 Tempo 288461
176659 Tempo 326086
176678 Tempo 327868
176688 On ch=2 n=d3 v=56
176697 Tempo 329670
176716 Tempo 289855
176716 Tempo 331491
176734 On ch=2 n=d3 v=0
176736 Tempo 333333
176736 Par ch=2 c=64 v=127
176736 On ch=2 n=e3 v=54
176755 Tempo 335195
176774 Tempo 291262
176774 Tempo 337078
176793 Tempo 338983
176812 Tempo 340909
176831 Tempo 292682
176832 Tempo 342857
176851 Tempo 344827
176870 Tempo 346820
176889 Tempo 294117
176889 Tempo 348837
176896 On ch=2 n=c3 v=0
176896 On ch=2 n=e3 v=0
176908 Tempo 350877
176928 Par ch=2 c=64 v=0
176928 Tempo 352941
176928 On ch=2 n=b2 v=42
176947 Tempo 295566
176947 Tempo 355029
176966 Tempo 357142
176985 Tempo 359281
177004 Tempo 297029
177004 Tempo 361445
177022 On ch=2 n=b2 v=0
177024 Tempo 363636
177043 Tempo 365853
177062 Tempo 298507
177062 Tempo 368098
177072 Par ch=2 c=64 v=127
177072 On ch=2 n=b2 v=33
177081 Tempo 370370
177100 Tempo 372670
177118 On ch=2 n=b2 v=0
177120 On ch=1 n=g5 v=0
177120 Par ch=2 c=64 v=0
177120 Tempo 300000
177120 Tempo 375000
177120 Tempo 300000
177120 TimeSig 2/2 24 8
177120 Par ch=1 c=64 v=127
177120 On ch=1 n=e5 v=45
177120 On ch=2 n=c3 v=30
177248 On ch=1 n=g5 v=45
177280 On ch=2 n=c3 v=0
177310 On ch=1 n=g5 v=0
177312 On ch=1 n=a#5 v=45
177374 On ch=1 n=a#5 v=0
177376 On ch=1 n=g5 v=45
177438 On ch=1 n=g5 v=0
177440 On ch=1 n=e5 v=45
177502 On ch=1 n=e5 v=0
177504 Par ch=1 c=64 v=0
177504 Par ch=1 c=64 v=127
177504 On ch=2 n=c4 v=30
177568 On ch=1 n=e5 v=45
177630 On ch=1 n=e5 v=0
177632 On ch=1 n=g5 v=45
177694 On ch=1 n=g5 v=0
177696 On ch=1 n=c6 v=45
177758 On ch=1 n=c6 v=0
177760 On ch=1 n=g5 v=45
177822 On ch=1 n=g5 v=0
177824 On ch=1 n=e5 v=45
177840 On ch=1 n=e5 v=0
177840 On ch=2 n=c4 v=0
177886 On ch=1 n=e5 v=0
177888 Par ch=1 c=64 v=0
177888 Par ch=1 c=64 v=127
177888 On ch=2 n=a#4 v=30
177952 On ch=1 n=e5 v=45
178014 On ch=1 n=e5 v=0
178016 On ch=1 n=g5 v=45
178078 On ch=1 n=g5 v=0
178080 On ch=1 n=a#5 v=45
178142 On ch=1 n=a#5 v=0
178144 On ch=1 n=g5 v=45
178206 On ch=1 n=g5 v=0
178208 On ch=1 n=e5 v=45
178270 On ch=1 n=e5 v=0
178272 Par ch=1 c=64 v=0
178272 Par ch=1 c=64 v=127
178272 On ch=2 n=c4 v=30
178336 On ch=1 n=e5 v=45
178398 On ch=1 n=e5 v=0
178400 On ch=1 n=g5 v=45
178462 On ch=1 n=g5 v=0
178464 On ch=1 n=c6 v=45
178526 On ch=1 n=c6 v=0
178528 On ch=1 n=g5 v=45
178590 On ch=1 n=g5 v=0
178592 On ch=1 n=e5 v=45
178608 On ch=2 n=a#4 v=0
178608 On ch=2 n=c4 v=0
178654 On ch=1 n=e5 v=0
178656 Par ch=1 c=64 v=0
178656 Par ch=1 c=64 v=127
178656 On ch=2 n=a#4 v=30
178720 On ch=1 n=e5 v=45
178782 On ch=1 n=e5 v=0
178784 On ch=1 n=g5 v=45
178846 On ch=1 n=g5 v=0
178848 On ch=1 n=a#5 v=45
178910 On ch=1 n=a#5 v=0
178912 On ch=1 n=g5 v=45
178974 On ch=1 n=g5 v=0
178976 On ch=1 n=e5 v=45
179038 On ch=1 n=e5 v=0
179040 Par ch=1 c=64 v=0
179040 Par ch=1 c=64 v=127
179040 On ch=2 n=c4 v=30
179104 On ch=1 n=e5 v=45
179166 On ch=1 n=e5 v=0
179168 On ch=1 n=g5 v=45
179230 On ch=1 n=g5 v=0
179232 On ch=1 n=c6 v=45
179294 On ch=1 n=c6 v=0
179296 On ch=1 n=g5 v=45
179358 On ch=1 n=g5 v=0
179360 On ch=1 n=e5 v=45
179376 On ch=2 n=a#4 v=0
179376 On ch=2 n=c4 v=0
179422 On ch=1 n=e5 v=0
179424 Par ch=1 c=64 v=0
179424 Par ch=2 c=64 v=127
179424 On ch=1 n=g6 v=75
179424 On ch=2 n=a#4 v=30
179488 On ch=2 n=e5 v=30
179550 On ch=2 n=e5 v=0
179552 On ch=2 n=g5 v=30
179614 On ch=2 n=g5 v=0
179616 On ch=2 n=a#5 v=30
179678 On ch=2 n=a#5 v=0
179680 On ch=2 n=g5 v=30
179742 On ch=2 n=g5 v=0
179744 On ch=2 n=e5 v=30
179806 On ch=2 n=e5 v=0
179808 Par ch=2 c=64 v=0
179808 Par ch=2 c=64 v=127
179808 On ch=2 n=c4 v=30
179872 On ch=2 n=e5 v=30
179934 On ch=2 n=e5 v=0
179936 On ch=2 n=g5 v=30
179998 On ch=2 n=g5 v=0
180000 On ch=2 n=c6 v=30
180062 On ch=2 n=c6 v=0
180064 On ch=2 n=g5 v=30
180096 On ch=1 n=g6 v=0
180096 On ch=1 n=g#6 v=75
180126 On ch=2 n=g5 v=0
180128 On ch=2 n=e5 v=30
180144 On ch=2 n=a#4 v=0
180144 On ch=2 n=c4 v=0
180190 On ch=2 n=e5 v=0
180192 On ch=1 n=g#6 v=0
180192 Par ch=2 c=64 v=0
180192 Par ch=2 c=64 v=127
180192 On ch=1 n=g#6 v=75
180192 On ch=2 n=a#4 v=30
180256 On ch=2 n=c5 v=30
180318 On ch=2 n=c5 v=0
180320 On ch=2 n=d#5 v=30
180382 On ch=2 n=d#5 v=0
180384 On ch=2 n=a#5 v=30
180446 On ch=2 n=a#5 v=0
180448 On ch=2 n=d#5 v=30
180510 On ch=2 n=d#5 v=0
180512 On ch=2 n=c5 v=30
180574 On ch=2 n=c5 v=0
180576 Par ch=2 c=64 v=0
180576 Par ch=2 c=64 v=127
180576 On ch=2 n=c4 v=30
180640 On ch=2 n=c5 v=30
180702 On ch=2 n=c5 v=0
180704 On ch=2 n=d#5 v=30
180766 On ch=2 n=d#5 v=0
180768 On ch=2 n=c6 v=30
180830 On ch=2 n=c6 v=0
180832 On ch=2 n=d#5 v=30
180894 On ch=2 n=d#5 v=0
180896 On ch=2 n=c5 v=30
180912 On ch=2 n=a#4 v=0
180912 On ch=2 n=c4 v=0
180958 On ch=2 n=c5 v=0
180960 On ch=1 n=g#6 v=0
180960 Par ch=2 c=64 v=0
180960 Par ch=2 c=64 v=127
180960 On ch=1 n=c7 v=75
180960 On ch=2 n=a#4 v=30
181024 On ch=2 n=c5 v=30
181086 On ch=2 n=c5 v=0
181088 On ch=2 n=d#5 v=30
181150 On ch=2 n=d#5 v=0
181152 On ch=2 n=a#5 v=30
181214 On ch=2 n=a#5 v=0
181216 On ch=2 n=d#5 v=30
181278 On ch=2 n=d#5 v=0
181280 On ch=2 n=c5 v=30
181342 On ch=2 n=c5 v=0
181344 Par ch=2 c=64 v=0
181344 Par ch=2 c=64 v=127
181344 On ch=2 n=c4 v=30
181408 On ch=2 n=c5 v=30
181470 On ch=2 n=c5 v=0
181472 On ch=2 n=d#5 v=30
181534 On ch=2 n=d#5 v=0
181536 On ch=2 n=c6 v=30
181598 On ch=2 n=c6 v=0
181600 On ch=2 n=d#5 v=30
181662 On ch=2 n=d#5 v=0
181664 On ch=2 n=c5 v=30
181680 On ch=2 n=a#4 v=0
181680 On ch=2 n=c4 v=0
181726 On ch=2 n=c5 v=0
181728 On ch=1 n=c7 v=0
181728 Par ch=2 c=64 v=0
181728 Par ch=2 c=64 v=127
181728 On ch=2 n=a#4 v=30
181792 On ch=2 n=c#5 v=30
181854 On ch=2 n=c#5 v=0
181856 On ch=2 n=f5 v=30
181918 On ch=2 n=f5 v=0
181920 On ch=2 n=a#5 v=30
181982 On ch=2 n=a#5 v=0
181984 On ch=2 n=f5 v=30
182046 On ch=2 n=f5 v=0
182048 On ch=2 n=c#5 v=30
182110 On ch=2 n=c#5 v=0
182112 Par ch=2 c=64 v=0
182112 Par ch=2 c=64 v=127
182112 On ch=2 n=c4 v=30
182176 On ch=2 n=c#5 v=30
182238 On ch=2 n=c#5 v=0
182240 On ch=2 n=f5 v=30
182302 On ch=2 n=f5 v=0
182304 On ch=2 n=c6 v=30
182366 On ch=2 n=c6 v=0
182368 On ch=2 n=f5 v=30
182430 On ch=2 n=f5 v=0
182432 On ch=2 n=c#5 v=30
182448 On ch=2 n=a#4 v=0
182448 On ch=2 n=c4 v=0
182494 On ch=2 n=c#5 v=0
182496 Par ch=2 c=64 v=0
182496 Par ch=2 c=64 v=127
182496 On ch=1 n=f6 v=75
182496 On ch=2 n=a#4 v=30
182560 On ch=2 n=d5 v=30
182622 On ch=2 n=d5 v=0
182624 On ch=2 n=f5 v=30
182686 On ch=2 n=f5 v=0
182688 On ch=2 n=a#5 v=30
182750 On ch=2 n=a#5 v=0
182752 On ch=2 n=f5 v=30
182814 On ch=2 n=f5 v=0
182816 On ch=2 n=d5 v=30
182878 On ch=2 n=d5 v=0
182880 Par ch=2 c=64 v=0
182880 Par ch=2 c=64 v=127
182880 On ch=2 n=c4 v=30
182944 On ch=2 n=d5 v=30
183006 On ch=2 n=d5 v=0
183008 On ch=2 n=f5 v=30
183070 On ch=2 n=f5 v=0
183072 On ch=2 n=c6 v=30
183134 On ch=2 n=c6 v=0
183136 On ch=2 n=f5 v=30
183168 On ch=1 n=f6 v=0
183168 On ch=1 n=g6 v=75
183198 On ch=2 n=f5 v=0
183200 On ch=2 n=d5 v=30
183216 On ch=2 n=a#4 v=0
183216 On ch=2 n=c4 v=0
183262 On ch=2 n=d5 v=0
183264 On ch=1 n=g6 v=0
183264 Par ch=2 c=64 v=0
183264 Par ch=2 c=64 v=127
183264 On ch=1 n=g6 v=75
183264 On ch=2 n=g4 v=30
183328 On ch=2 n=d#5 v=30
183390 On ch=2 n=d#5 v=0
183392 On ch=2 n=g5 v=30
183454 On ch=2 n=g5 v=0
183456 On ch=2 n=a#5 v=30
183518 On ch=2 n=a#5 v=0
183520 On ch=2 n=g5 v=30
183582 On ch=2 n=g5 v=0
183584 On ch=2 n=d#5 v=30
183646 On ch=2 n=d#5 v=0
183648 Par ch=2 c=64 v=0
183648 Par ch=2 c=64 v=127
183648 On ch=2 n=c4 v=30
183712 On ch=2 n=d#5 v=30
183774 On ch=2 n=d#5 v=0
183776 On ch=2 n=g5 v=30
183838 On ch=2 n=g5 v=0
183840 On ch=2 n=c6 v=30
183902 On ch=2 n=c6 v=0
183904 On ch=2 n=g5 v=30
183966 On ch=2 n=g5 v=0
183968 On ch=2 n=d#5 v=30
183984 On ch=2 n=c4 v=0
183984 On ch=2 n=g4 v=0
184030 On ch=2 n=d#5 v=0
184032 On ch=1 n=g6 v=0
184032 Par ch=2 c=64 v=0
184032 Par ch=2 c=64 v=127
184032 On ch=2 n=g4 v=30
184032 On ch=1 n=c7 v=75
184096 On ch=2 n=d#5 v=30
184158 On ch=2 n=d#5 v=0
184160 On ch=2 n=g5 v=30
184222 On ch=2 n=g5 v=0
184224 On ch=2 n=a#5 v=30
184286 On ch=2 n=a#5 v=0
184288 On ch=2 n=g5 v=30
184350 On ch=2 n=g5 v=0
184352 On ch=2 n=d#5 v=30
184414 On ch=2 n=d#5 v=0
184416 Par ch=2 c=64 v=0
184416 Par ch=2 c=64 v=127
184416 On ch=2 n=c4 v=30
184480 On ch=2 n=d#5 v=30
184542 On ch=2 n=d#5 v=0
184544 On ch=2 n=g5 v=30
184606 On ch=2 n=g5 v=0
184608 On ch=2 n=c6 v=30
184670 On ch=2 n=c6 v=0
184672 On ch=2 n=g5 v=30
184734 On ch=2 n=g5 v=0
184736 On ch=2 n=d#5 v=30
184752 On ch=1 n=c7 v=0
184752 On ch=2 n=g4 v=0
184752 On ch=2 n=c4 v=0
184798 On ch=2 n=d#5 v=0
184800 Par ch=2 c=64 v=0
184800 Par ch=2 c=64 v=127
184800 On ch=2 n=f#4 v=30
184864 On ch=2 n=d#5 v=30
184926 On ch=2 n=d#5 v=0
184928 On ch=2 n=f#5 v=30
184990 On ch=2 n=f#5 v=0
184992 On ch=1 n=c7 v=75
184992 On ch=2 n=a#5 v=30
185054 On ch=2 n=a#5 v=0
185056 On ch=2 n=d#5 v=30
185118 On ch=2 n=d#5 v=0
185120 On ch=2 n=c5 v=30
185182 On ch=2 n=c5 v=0
185184 Par ch=2 c=64 v=0
185184 Par ch=2 c=64 v=127
185184 On ch=2 n=c4 v=30
185248 On ch=2 n=c5 v=30
185310 On ch=2 n=c5 v=0
185312 On ch=2 n=d#5 v=30
185374 On ch=2 n=d#5 v=0
185376 On ch=1 n=c7 v=0
185376 On ch=1 n=a#6 v=75
185376 On ch=2 n=c6 v=30
185438 On ch=2 n=c6 v=0
185440 On ch=2 n=d#5 v=30
185502 On ch=2 n=d#5 v=0
185504 On ch=2 n=c5 v=30
185520 On ch=2 n=f#4 v=0
185520 On ch=2 n=c4 v=0
185566 On ch=2 n=c5 v=0
185568 On ch=1 n=a#6 v=0
185568 Par ch=2 c=64 v=0
185568 Par ch=2 c=64 v=127
185568 On ch=1 n=c7 v=75
185568 On ch=2 n=f#4 v=30
185632 On ch=2 n=d#5 v=30
185694 On ch=2 n=d#5 v=0
185696 On ch=2 n=f#5 v=30
185758 On ch=2 n=f#5 v=0
185760 On ch=2 n=a#5 v=30
185822 On ch=2 n=a#5 v=0
185824 On ch=2 n=d#5 v=30
185886 On ch=2 n=d#5 v=0
185888 On ch=2 n=c5 v=30
185950 On ch=2 n=c5 v=0
185952 Par ch=2 c=64 v=0
185952 Par ch=2 c=64 v=127
185952 On ch=2 n=c4 v=30
186016 On ch=2 n=c5 v=30
186078 On ch=2 n=c5 v=0
186080 On ch=2 n=d#5 v=30
186142 On ch=2 n=d#5 v=0
186144 On ch=1 n=c7 v=0
186144 On ch=1 n=d#7 v=75
186144 On ch=2 n=c6 v=30
186206 On ch=2 n=c6 v=0
186208 On ch=2 n=d#5 v=30
186270 On ch=2 n=d#5 v=0
186272 On ch=2 n=c5 v=30
186288 On ch=2 n=f#4 v=0
186288 On ch=2 n=c4 v=0
186334 On ch=2 n=c5 v=0
186336 On ch=1 n=d#7 v=0
186336 Par ch=2 c=64 v=0
186336 Par ch=2 c=64 v=127
186336 On ch=1 n=c8 v=75
186336 On ch=2 n=f4 v=30
186400 On ch=2 n=c5 v=30
186462 On ch=2 n=c5 v=0
186464 On ch=2 n=d#5 v=30
186526 On ch=2 n=d#5 v=0
186528 On ch=2 n=a5 v=30
186590 On ch=2 n=a5 v=0
186592 On ch=2 n=d#5 v=30
186654 On ch=2 n=d#5 v=0
186656 On ch=2 n=c5 v=30
186718 On ch=2 n=c5 v=0
186720 Par ch=2 c=64 v=0
186720 Par ch=2 c=64 v=127
186720 On ch=2 n=c4 v=30
186784 On ch=2 n=c5 v=30
186846 On ch=2 n=c5 v=0
186848 On ch=2 n=d#5 v=30
186910 On ch=2 n=d#5 v=0
186912 On ch=2 n=c6 v=30
186974 On ch=2 n=c6 v=0
186976 On ch=2 n=d#5 v=30
187038 On ch=2 n=d#5 v=0
187040 On ch=2 n=c5 v=30
187056 On ch=2 n=f4 v=0
187056 On ch=2 n=c4 v=0
187102 On ch=2 n=c5 v=0
187104 On ch=1 n=c8 v=0
187104 Par ch=2 c=64 v=0
187104 Par ch=2 c=64 v=127
187104 On ch=1 n=f7 v=75
187104 On ch=2 n=f4 v=30
187168 On ch=2 n=c5 v=30
187230 On ch=2 n=c5 v=0
187232 On ch=2 n=d#5 v=30
187294 On ch=2 n=d#5 v=0
187296 On ch=2 n=a5 v=30
187358 On ch=2 n=a5 v=0
187360 On ch=2 n=d#5 v=30
187422 On ch=2 n=d#5 v=0
187424 On ch=2 n=c5 v=30
187486 On ch=2 n=c5 v=0
187488 Par ch=2 c=64 v=0
187488 Par ch=2 c=64 v=127
187488 On ch=2 n=c4 v=30
187552 On ch=2 n=c5 v=30
187614 On ch=2 n=c5 v=0
187616 On ch=2 n=d#5 v=30
187678 On ch=2 n=d#5 v=0
187680 On ch=2 n=c6 v=30
187742 On ch=2 n=c6 v=0
187744 On ch=2 n=d#5 v=30
187806 On ch=2 n=d#5 v=0
187808 On ch=2 n=c5 v=30
187824 On ch=2 n=f4 v=0
187824 On ch=2 n=c4 v=0
187870 On ch=2 n=c5 v=0
187872 On ch=1 n=f7 v=0
187872 Par ch=2 c=64 v=0
187872 Par ch=2 c=64 v=127
187872 On ch=2 n=f4 v=30
187936 On ch=2 n=c5 v=30
187998 On ch=2 n=c5 v=0
188000 On ch=2 n=d#5 v=30
188062 On ch=2 n=d#5 v=0
188064 On ch=2 n=g#5 v=30
188126 On ch=2 n=g#5 v=0
188128 On ch=2 n=d#5 v=30
188190 On ch=2 n=d#5 v=0
188192 On ch=2 n=c5 v=30
188254 On ch=2 n=c5 v=0
188256 Par ch=2 c=64 v=0
188256 Par ch=2 c=64 v=127
188256 On ch=2 n=c4 v=30
188320 On ch=2 n=c5 v=30
188382 On ch=2 n=c5 v=0
188384 On ch=2 n=d#5 v=30
188446 On ch=2 n=d#5 v=0
188448 On ch=2 n=c6 v=30
188510 On ch=2 n=c6 v=0
188512 On ch=2 n=d#5 v=30
188574 On ch=2 n=d#5 v=0
188576 On ch=2 n=c5 v=30
188592 On ch=2 n=f4 v=0
188592 On ch=2 n=c4 v=0
188638 On ch=2 n=c5 v=0
188640 Par ch=2 c=64 v=0
188640 Par ch=2 c=64 v=127
188640 On ch=1 n=c7 v=75
188640 On ch=2 n=f#4 v=30
188704 On ch=2 n=c5 v=30
188766 On ch=2 n=c5 v=0
188768 On ch=2 n=d#5 v=30
188830 On ch=2 n=d#5 v=0
188832 On ch=2 n=g#5 v=30
188894 On ch=2 n=g#5 v=0
188896 On ch=2 n=d5 v=30
188958 On ch=2 n=d5 v=0
188960 On ch=2 n=c5 v=30
189022 On ch=2 n=c5 v=0
189024 Par ch=2 c=64 v=0
189024 Par ch=2 c=64 v=127
189024 On ch=2 n=c4 v=30
189088 On ch=2 n=c5 v=30
189150 On ch=2 n=c5 v=0
189152 On ch=2 n=d5 v=30
189214 On ch=2 n=d5 v=0
189216 On ch=1 n=c7 v=0
189216 On ch=1 n=c7 v=75
189216 On ch=2 n=c6 v=30
189278 On ch=2 n=c6 v=0
189280 On ch=2 n=d5 v=30
189342 On ch=2 n=d5 v=0
189344 On ch=2 n=c5 v=30
189360 On ch=2 n=f#4 v=0
189360 On ch=2 n=c4 v=0
189406 On ch=2 n=c5 v=0
189408 On ch=1 n=c7 v=0
189408 Par ch=2 c=64 v=0
189408 Par ch=2 c=64 v=127
189408 On ch=1 n=c7 v=75
189408 On ch=2 n=g4 v=30
189472 On ch=2 n=d#5 v=30
189534 On ch=2 n=d#5 v=0
189536 On ch=2 n=g5 v=30
189598 On ch=2 n=g5 v=0
189600 On ch=2 n=a#5 v=30
189662 On ch=2 n=a#5 v=0
189664 On ch=2 n=d#5 v=30
189726 On ch=2 n=d#5 v=0
189728 On ch=2 n=c5 v=30
189790 On ch=2 n=c5 v=0
189792 Par ch=2 c=64 v=0
189792 Par ch=2 c=64 v=127
189792 On ch=2 n=c4 v=30
189856 On ch=2 n=c5 v=30
189918 On ch=2 n=c5 v=0
189920 On ch=2 n=d#5 v=30
189982 On ch=2 n=d#5 v=0
189984 On ch=2 n=c6 v=30
190046 On ch=2 n=c6 v=0
190048 On ch=2 n=d#5 v=30
190110 On ch=2 n=d#5 v=0
190112 On ch=2 n=c5 v=30
190128 On ch=2 n=g4 v=0
190128 On ch=2 n=c4 v=0
190174 On ch=2 n=c5 v=0
190176 On ch=1 n=c7 v=0
190176 Par ch=2 c=64 v=0
190176 Par ch=2 c=64 v=127
190176 On ch=1 n=d#7 v=75
190176 On ch=2 n=g4 v=30
190240 On ch=2 n=d#5 v=30
190302 On ch=2 n=d#5 v=0
190304 On ch=2 n=g5 v=30
190366 On ch=2 n=g5 v=0
190368 On ch=2 n=a#5 v=30
190430 On ch=2 n=a#5 v=0
190432 On ch=2 n=d#5 v=30
190494 On ch=2 n=d#5 v=0
190496 On ch=2 n=c5 v=30
190558 On ch=2 n=c5 v=0
190560 Par ch=2 c=64 v=0
190560 Par ch=2 c=64 v=127
190560 On ch=2 n=c4 v=30
190624 On ch=2 n=c5 v=30
190686 On ch=2 n=c5 v=0
190688 On ch=2 n=d#5 v=30
190750 On ch=2 n=d#5 v=0
190752 On ch=2 n=c6 v=30
190814 On ch=2 n=c6 v=0
190816 On ch=2 n=d#5 v=30
190878 On ch=2 n=d#5 v=0
190880 On ch=2 n=c5 v=30
190896 On ch=2 n=g4 v=0
190896 On ch=2 n=c4 v=0
190942 On ch=2 n=c5 v=0
190944 Par ch=2 c=64 v=0
190944 Par ch=1 c=64 v=127
190944 Par ch=2 c=64 v=127
190944 On ch=2 n=g4 v=30
191008 On ch=1 n=c5 v=45
191070 On ch=1 n=c5 v=0
191072 On ch=1 n=d#5 v=45
191134 On ch=1 n=d#5 v=0
191136 On ch=1 n=a#5 v=45
191198 On ch=1 n=a#5 v=0
191200 On ch=1 n=d#5 v=45
191262 On ch=1 n=d#5 v=0
191264 On ch=1 n=c5 v=45
191326 On ch=1 n=c5 v=0
191328 On ch=2 n=c4 v=45
191392 Par ch=1 c=64 v=0
191392 Par ch=1 c=64 v=127
191392 On ch=1 n=c5 v=45
191454 On ch=1 n=c5 v=0
191456 On ch=1 n=d#5 v=45
191518 On ch=1 n=d#5 v=0
191520 On ch=1 n=c6 v=45
191582 On ch=1 n=c6 v=0
191584 On ch=1 n=d#5 v=45
191646 On ch=1 n=d#5 v=0
191648 On ch=1 n=c5 v=45
191664 On ch=1 n=d#7 v=0
191664 On ch=2 n=g4 v=0
191664 On ch=2 n=c4 v=0
191710 On ch=1 n=c5 v=0
191712 Par ch=1 c=64 v=0
191712 Par ch=2 c=64 v=0
191712 Par ch=1 c=64 v=127
191712 Par ch=2 c=64 v=127
191712 On ch=2 n=g4 v=60
191776 On ch=1 n=c5 v=45
191838 On ch=1 n=c5 v=0
191840 On ch=1 n=d#5 v=45
191902 On ch=1 n=d#5 v=0
191904 On ch=1 n=a#5 v=45
191966 On ch=1 n=a#5 v=0
191968 On ch=1 n=d#5 v=45
192030 On ch=1 n=d#5 v=0
192032 On ch=1 n=c5 v=45
192094 On ch=1 n=c5 v=0
192096 On ch=2 n=c4 v=76
192160 Par ch=1 c=64 v=0
192160 Par ch=1 c=64 v=127
192160 On ch=1 n=c5 v=45
192222 On ch=1 n=c5 v=0
192224 On ch=1 n=d#5 v=45
192256 On ch=2 n=c4 v=0
192286 On ch=1 n=d#5 v=0
192288 On ch=1 n=c6 v=45
192288 On ch=2 n=c4 v=84
192350 On ch=1 n=c6 v=0
192350 On ch=2 n=c4 v=0
192352 On ch=1 n=d#5 v=45
192352 On ch=2 n=c#4 v=86
192414 On ch=1 n=d#5 v=0
192414 On ch=2 n=c#4 v=0
192416 On ch=1 n=c5 v=45
192416 On ch=2 n=d4 v=89
192432 On ch=2 n=g4 v=0
192478 On ch=1 n=c5 v=0
192478 On ch=2 n=d4 v=0
192480 Par ch=1 c=64 v=0
192480 Par ch=2 c=64 v=0
192480 TimeSig 3/2 24 8
192480 On ch=2 n=d3 v=92
192480 On ch=2 n=d#4 v=127
192640 On ch=2 n=d#4 v=0
192672 On ch=2 n=c4 v=92
192766 On ch=2 n=c4 v=0
192816 On ch=2 n=c4 v=92
192862 On ch=2 n=c4 v=0
192864 On ch=1 n=d#5 v=127
192864 On ch=2 n=d4 v=92
192912 On ch=2 n=d4 v=0
193056 On ch=2 n=a#3 v=92
193150 On ch=2 n=a#3 v=0
193200 On ch=2 n=a#3 v=92
193246 On ch=2 n=a#3 v=0
193248 On ch=2 n=c4 v=92
193296 On ch=2 n=c4 v=0
193440 On ch=2 n=a3 v=92
193534 On ch=2 n=a3 v=0
193584 On ch=1 n=d#5 v=0
193584 On ch=2 n=a3 v=92
193630 On ch=2 n=a3 v=0
193632 TimeSig 2/2 24 8
193632 On ch=1 n=d5 v=92
193632 On ch=2 n=a#3 v=92
193680 On ch=2 n=a#3 v=0
193824 On ch=2 n=g3 v=92
193918 On ch=2 n=g3 v=0
193968 On ch=1 n=d5 v=0
193968 On ch=2 n=g3 v=92
194014 On ch=2 n=g3 v=0
194016 On ch=1 n=c5 v=92
194016 On ch=2 n=a3 v=92
194064 On ch=2 n=a3 v=0
194208 On ch=2 n=f#3 v=92
194302 On ch=2 n=f#3 v=0
194352 On ch=1 n=c5 v=0
194352 On ch=2 n=f#3 v=92
194398 On ch=2 n=f#3 v=0
194400 On ch=1 n=a#4 v=92
194400 On ch=2 n=g3 v=92
194448 On ch=2 n=g3 v=0
194592 On ch=2 n=e3 v=92
194686 On ch=2 n=e3 v=0
194736 On ch=1 n=a#4 v=0
194736 On ch=2 n=e3 v=92
194782 On ch=2 n=e3 v=0
194784 On ch=1 n=a4 v=92
194784 On ch=2 n=f#3 v=92
194832 On ch=2 n=f#3 v=0
194928 On ch=2 n=d3 v=0
194976 On ch=1 n=d5 v=92
194976 On ch=2 n=d3 v=92
195038 On ch=1 n=d5 v=0
195040 On ch=1 n=d#5 v=92
195070 On ch=2 n=d3 v=0
195102 On ch=1 n=d#5 v=0
195104 On ch=1 n=e5 v=92
195120 On ch=1 n=a4 v=0
195120 On ch=2 n=d3 v=92
195166 On ch=1 n=e5 v=0
195166 On ch=2 n=d3 v=0
195168 TimeSig 3/2 24 8
195168 Par ch=2 c=64 v=127
195168 On ch=1 n=g#4 v=92
195168 On ch=1 n=d5 v=92
195168 On ch=1 n=f5 v=127
195168 On ch=2 n=e2 v=127
195168 On ch=2 n=e3 v=127
195328 On ch=1 n=g#4 v=0
195328 On ch=1 n=d5 v=0
195328 On ch=1 n=f5 v=0
195328 On ch=2 n=e2 v=0
195328 On ch=2 n=e3 v=0
195360 On ch=1 n=e5 v=92
195422 On ch=1 n=e5 v=0
195488 On ch=1 n=e5 v=92
195550 On ch=1 n=e5 v=0
195552 Par ch=2 c=64 v=0
195552 On ch=1 n=b4 v=92
195552 On ch=1 n=f5 v=92
195552 On ch=2 n=d4 v=92
195552 On ch=2 n=g#4 v=92
195600 On ch=1 n=b4 v=0
195600 On ch=1 n=f5 v=0
195614 On ch=2 n=d4 v=0
195614 On ch=2 n=g#4 v=0
195680 On ch=2 n=e3 v=92
195742 On ch=2 n=e3 v=0
195744 On ch=1 n=a#4 v=92
195744 On ch=1 n=d5 v=92
195744 On ch=2 n=d4 v=92
195744 On ch=2 n=g4 v=92
195806 On ch=1 n=a#4 v=0
195806 On ch=1 n=d5 v=0
195806 On ch=2 n=d4 v=0
195806 On ch=2 n=g4 v=0
195872 On ch=1 n=d5 v=92
195872 On ch=2 n=e3 v=92
195934 On ch=1 n=d5 v=0
195934 On ch=2 n=e3 v=0
195936 On ch=1 n=a4 v=92
195936 On ch=1 n=e5 v=92
195936 On ch=2 n=c#4 v=92
195936 On ch=2 n=f#4 v=92
195984 On ch=1 n=a4 v=0
195984 On ch=1 n=e5 v=0
195998 On ch=2 n=c#4 v=0
195998 On ch=2 n=f#4 v=0
196064 On ch=2 n=e3 v=92
196126 On ch=2 n=e3 v=0
196128 On ch=1 n=g#4 v=92
196128 On ch=1 n=c#5 v=92
196128 On ch=2 n=c4 v=92
196128 On ch=2 n=f4 v=92
196190 On ch=1 n=g#4 v=0
196190 On ch=1 n=c#5 v=0
196190 On ch=2 n=c4 v=0
196190 On ch=2 n=f4 v=0
196192 On ch=1 n=d5 v=92
196254 On ch=1 n=d5 v=0
196256 On ch=1 n=e5 v=92
196256 On ch=2 n=e3 v=92
196318 On ch=1 n=e5 v=0
196318 On ch=2 n=e3 v=0
196320 On ch=1 n=g4 v=127
196320 On ch=1 n=f5 v=127
196320 On ch=2 n=b3 v=127
196320 On ch=2 n=f4 v=127
196382 On ch=2 n=b3 v=0
196382 On ch=2 n=f4 v=0
196448 On ch=2 n=e3 v=92
196480 On ch=1 n=g4 v=0
196480 On ch=1 n=f5 v=0
196510 On ch=2 n=e3 v=0
196512 On ch=1 n=a4 v=92
196512 On ch=1 n=e5 v=92
196512 On ch=2 n=c4 v=92
196512 On ch=2 n=c4 v=92
196574 On ch=1 n=e5 v=0
196574 On ch=2 n=c4 v=0
196576 On ch=2 n=f4 v=92
196638 On ch=2 n=f4 v=0
196640 On ch=1 n=e5 v=92
196640 On ch=2 n=e3 v=92
196672 On ch=1 n=a4 v=0
196672 On ch=2 n=c4 v=0
196702 On ch=1 n=e5 v=0
196702 On ch=2 n=e3 v=0
196704 On ch=1 n=g#4 v=92
196704 On ch=1 n=f5 v=92
196704 On ch=2 n=b3 v=92
196704 On ch=2 n=b3 v=92
196766 On ch=2 n=b3 v=0
196768 On ch=2 n=f4 v=92
196830 On ch=2 n=f4 v=0
196832 On ch=2 n=e3 v=92
196864 On ch=1 n=g#4 v=0
196864 On ch=1 n=f5 v=0
196864 On ch=2 n=b3 v=0
196894 On ch=2 n=e3 v=0
196896 On ch=1 n=g4 v=92
196896 On ch=1 n=d5 v=92
196896 On ch=2 n=a#3 v=92
196896 On ch=2 n=a#3 v=92
196958 On ch=1 n=d5 v=0
196958 On ch=2 n=a#3 v=0
196960 On ch=2 n=e4 v=92
197022 On ch=2 n=e4 v=0
197024 On ch=1 n=d5 v=92
197024 On ch=2 n=e3 v=92
197056 On ch=1 n=g4 v=0
197056 On ch=2 n=a#3 v=0
197086 On ch=1 n=d5 v=0
197086 On ch=2 n=e3 v=0
197088 On ch=1 n=f#4 v=92
197088 On ch=1 n=e5 v=92
197088 On ch=2 n=a3 v=92
197088 On ch=2 n=a3 v=92
197150 On ch=1 n=e5 v=0
197150 On ch=2 n=a3 v=0
197152 On ch=2 n=e4 v=92
197214 On ch=2 n=e4 v=0
197216 On ch=1 n=c#5 v=92
197216 On ch=2 n=e3 v=92
197248 On ch=1 n=f#4 v=0
197248 On ch=2 n=a3 v=0
197278 On ch=1 n=c#5 v=0
197278 On ch=2 n=e3 v=0
197280 On ch=1 n=f4 v=92
197280 On ch=1 n=d5 v=92
197280 On ch=2 n=g#3 v=92
197280 On ch=2 n=g#3 v=92
197342 On ch=1 n=d5 v=0
197342 On ch=2 n=g#3 v=0
197344 On ch=1 n=e5 v=92
197344 On ch=2 n=e4 v=92
197406 On ch=1 n=e5 v=0
197406 On ch=2 n=e4 v=0
197408 On ch=1 n=f5 v=92
197408 On ch=2 n=e3 v=92
197440 On ch=1 n=f4 v=0
197440 On ch=2 n=g#3 v=0
197470 On ch=1 n=f5 v=0
197470 On ch=2 n=e3 v=0
197472 TimeSig 2/2 24 8
197472 On ch=1 n=g4 v=127
197472 On ch=1 n=c5 v=127
197472 On ch=1 n=g5 v=127
197472 On ch=2 n=g3 v=127
197472 On ch=2 n=e4 v=127
197632 On ch=1 n=g4 v=0
197632 On ch=1 n=c5 v=0
197632 On ch=1 n=g5 v=0
197632 On ch=2 n=g3 v=0
197632 On ch=2 n=e4 v=0
197664 On ch=1 n=c5 v=92
197664 On ch=1 n=f5 v=92
197664 On ch=2 n=g#4 v=92
197664 On ch=2 n=g#4 v=92
197726 On ch=1 n=f5 v=0
197726 On ch=2 n=g#4 v=0
197728 On ch=2 n=c4 v=92
197790 On ch=2 n=c4 v=0
197792 On ch=1 n=f5 v=92
197792 On ch=2 n=e3 v=92
197824 On ch=1 n=c5 v=0
197824 On ch=2 n=g#4 v=0
197854 On ch=1 n=f5 v=0
197854 On ch=2 n=e3 v=0
197856 On ch=1 n=c5 v=92
197856 On ch=1 n=e5 v=92
197856 On ch=1 n=g5 v=92
197856 On ch=2 n=g4 v=92
197856 On ch=2 n=g4 v=92
197918 On ch=2 n=g4 v=0
197920 On ch=2 n=c4 v=92
197982 On ch=2 n=c4 v=0
197984 On ch=2 n=e3 v=92
198016 On ch=1 n=c5 v=0
198016 On ch=1 n=e5 v=0
198016 On ch=1 n=g5 v=0
198016 On ch=2 n=g4 v=0
198046 On ch=2 n=e3 v=0
198048 On ch=1 n=a4 v=92
198048 On ch=1 n=c5 v=92
198048 On ch=1 n=e5 v=92
198048 On ch=2 n=f4 v=92
198048 On ch=2 n=f4 v=92
198110 On ch=1 n=e5 v=0
198110 On ch=2 n=f4 v=0
198112 On ch=1 n=f5 v=92
198112 On ch=2 n=c4 v=92
198174 On ch=1 n=f5 v=0
198174 On ch=2 n=c4 v=0
198176 On ch=1 n=g5 v=92
198176 On ch=2 n=e3 v=92
198208 On ch=1 n=a4 v=0
198208 On ch=1 n=c5 v=0
198208 On ch=2 n=f4 v=0
198238 On ch=1 n=g5 v=0
198238 On ch=2 n=e3 v=0
198240 On ch=1 n=a4 v=92
198240 On ch=1 n=c5 v=92
198240 On ch=1 n=a5 v=127
198240 On ch=2 n=c4 v=127
198240 On ch=2 n=e4 v=127
198400 On ch=1 n=a4 v=0
198400 On ch=1 n=c5 v=0
198400 On ch=1 n=a5 v=0
198400 On ch=2 n=c4 v=0
198400 On ch=2 n=e4 v=0
198432 On ch=1 n=g5 v=92
198432 On ch=2 n=b4 v=92
198432 On ch=2 n=b4 v=92
198494 On ch=1 n=g5 v=0
198494 On ch=2 n=b4 v=0
198496 On ch=2 n=c4 v=92
198558 On ch=2 n=c4 v=0
198560 On ch=1 n=g5 v=92
198560 On ch=2 n=e3 v=92
198592 On ch=2 n=b4 v=0
198622 On ch=1 n=g5 v=0
198622 On ch=2 n=e3 v=0
198624 On ch=1 n=c5 v=92
198624 On ch=1 n=e5 v=92
198624 On ch=1 n=a5 v=92
198624 On ch=2 n=a#4 v=92
198624 On ch=2 n=a#4 v=92
198686 On ch=2 n=a#4 v=0
198688 On ch=2 n=c4 v=92
198750 On ch=2 n=c4 v=0
198752 On ch=2 n=e3 v=92
198784 On ch=1 n=c5 v=0
198784 On ch=1 n=e5 v=0
198784 On ch=1 n=a5 v=0
198784 On ch=2 n=a#4 v=0
198814 On ch=2 n=e3 v=0
198816 On ch=1 n=c5 v=92
198816 On ch=1 n=d#5 v=92
198816 On ch=1 n=f#5 v=92
198816 On ch=2 n=a4 v=92
198816 On ch=2 n=a4 v=92
198819 Tempo 301507
198819 Tempo 301507
198822 Tempo 303030
198822 Tempo 303030
198825 Tempo 304568
198825 Tempo 304568
198828 Tempo 306122
198828 Tempo 306122
198832 Tempo 307692
198832 Tempo 307692
198835 Tempo 309278
198835 Tempo 309278
198838 Tempo 310880
198838 Tempo 310880
198841 Tempo 312500
198841 Tempo 312500
198844 Tempo 314136
198844 Tempo 314136
198848 Tempo 315789
198848 Tempo 315789
198851 Tempo 317460
198851 Tempo 317460
198854 Tempo 319148
198854 Tempo 319148
198857 Tempo 320855
198857 Tempo 320855
198860 Tempo 322580
198860 Tempo 322580
198864 Tempo 324324
198864 Tempo 324324
198867 Tempo 326086
198867 Tempo 326086
198870 Tempo 327868
198870 Tempo 327868
198873 Tempo 329670
198873 Tempo 329670
198876 Tempo 331491
198876 Tempo 331491
198878 On ch=1 n=f#5 v=0
198878 On ch=2 n=a4 v=0
198880 Tempo 333333
198880 Tempo 333333
198880 On ch=1 n=g5 v=92
198880 On ch=2 n=c4 v=92
198883 Tempo 335195
198883 Tempo 335195
198886 Tempo 337078
198886 Tempo 337078
198889 Tempo 338983
198889 Tempo 338983
198892 Tempo 340909
198892 Tempo 340909
198896 Tempo 342857
198896 Tempo 342857
198899 Tempo 344827
198899 Tempo 344827
198902 Tempo 346820
198902 Tempo 346820
198905 Tempo 348837
198905 Tempo 348837
198908 Tempo 350877
198908 Tempo 350877
198912 Tempo 352941
198912 Tempo 352941
198915 Tempo 355029
198915 Tempo 355029
198918 Tempo 357142
198918 Tempo 357142
198921 Tempo 359281
198921 Tempo 359281
198924 Tempo 361445
198924 Tempo 361445
198928 Tempo 363636
198928 Tempo 363636
198931 Tempo 365853
198931 Tempo 365853
198934 Tempo 368098
198934 Tempo 368098
198937 Tempo 370370
198937 Tempo 370370
198940 Tempo 372670
198940 Tempo 372670
198942 On ch=1 n=g5 v=0
198942 On ch=2 n=c4 v=0
198944 Tempo 375000
198944 Tempo 375000
198944 On ch=1 n=a5 v=92
198944 On ch=2 n=e3 v=92
198947 Tempo 377358
198947 Tempo 377358
198950 Tempo 379746
198950 Tempo 379746
198953 Tempo 382165
198953 Tempo 382165
198956 Tempo 384615
198956 Tempo 384615
198960 Tempo 387096
198960 Tempo 387096
198963 Tempo 389610
198963 Tempo 389610
198966 Tempo 392156
198966 Tempo 392156
198969 Tempo 394736
198969 Tempo 394736
198972 Tempo 397350
198972 Tempo 397350
198976 On ch=1 n=c5 v=0
198976 On ch=1 n=d#5 v=0
198976 On ch=2 n=a4 v=0
198976 Tempo 400000
198976 Tempo 400000
198979 Tempo 402684
198979 Tempo 402684
198982 Tempo 405405
198982 Tempo 405405
198985 Tempo 408163
198985 Tempo 408163
198988 Tempo 410958
198988 Tempo 410958
198992 Tempo 413793
198992 Tempo 413793
198995 Tempo 416666
198995 Tempo 416666
198998 Tempo 419580
198998 Tempo 419580
199001 Tempo 422535
199001 Tempo 422535
199004 Tempo 425531
199004 Tempo 425531
199006 On ch=1 n=a5 v=0
199006 On ch=2 n=e3 v=0
199008 Tempo 428571
199008 Tempo 300000
199008 Tempo 428571
199008 Tempo 300000
199008 TimeSig 3/2 24 8
199008 On ch=1 n=b4 v=92
199008 On ch=1 n=e5 v=92
199008 On ch=1 n=b5 v=92
199008 On ch=2 n=b3 v=127
199008 On ch=2 n=g4 v=127
199168 On ch=1 n=b4 v=0
199168 On ch=1 n=e5 v=0
199168 On ch=1 n=b5 v=0
199168 On ch=2 n=b3 v=0
199168 On ch=2 n=g4 v=0
199200 On ch=1 n=c5 v=92
199200 On ch=1 n=e5 v=92
199200 On ch=1 n=a5 v=92
199200 On ch=2 n=c4 v=92
199200 On ch=2 n=a4 v=92
199262 On ch=1 n=a5 v=0
199262 On ch=2 n=c4 v=0
199262 On ch=2 n=a4 v=0
199328 On ch=1 n=a5 v=92
199328 On ch=2 n=e3 v=92
199360 On ch=1 n=c5 v=0
199360 On ch=1 n=e5 v=0
199390 On ch=1 n=a5 v=0
199390 On ch=2 n=e3 v=0
199392 On ch=1 n=b4 v=92
199392 On ch=1 n=e5 v=92
199392 On ch=1 n=b5 v=92
199392 On ch=2 n=b3 v=92
199392 On ch=2 n=g4 v=92
199454 On ch=2 n=b3 v=0
199454 On ch=2 n=g4 v=0
199520 On ch=2 n=e3 v=92
199552 On ch=1 n=b4 v=0
199552 On ch=1 n=e5 v=0
199552 On ch=1 n=b5 v=0
199582 On ch=2 n=e3 v=0
199584 On ch=1 n=a#4 v=92
199584 On ch=1 n=d5 v=92
199584 On ch=1 n=g5 v=92
199584 On ch=2 n=d4 v=92
199584 On ch=2 n=f4 v=92
199646 On ch=1 n=g5 v=0
199646 On ch=2 n=d4 v=0
199646 On ch=2 n=f4 v=0
199712 On ch=1 n=g5 v=92
199712 On ch=2 n=e3 v=92
199744 On ch=1 n=a#4 v=0
199744 On ch=1 n=d5 v=0
199774 On ch=1 n=g5 v=0
199774 On ch=2 n=e3 v=0
199776 On ch=1 n=a4 v=92
199776 On ch=1 n=c#5 v=92
199776 On ch=1 n=a5 v=92
199776 On ch=2 n=c#4 v=92
199776 On ch=2 n=e4 v=92
199838 On ch=2 n=c#4 v=0
199838 On ch=2 n=e4 v=0
199904 On ch=2 n=e3 v=92
199936 On ch=1 n=a4 v=0
199936 On ch=1 n=c#5 v=0
199936 On ch=1 n=a5 v=0
199966 On ch=2 n=e3 v=0
199968 On ch=1 n=c5 v=92
199968 On ch=1 n=f#5 v=92
199968 On ch=2 n=d#4 v=92
200030 On ch=1 n=f#5 v=0
200030 On ch=2 n=d#4 v=0
200032 On ch=1 n=g5 v=92
200094 On ch=1 n=g5 v=0
200096 On ch=1 n=a5 v=92
200096 On ch=2 n=e3 v=92
200128 On ch=1 n=c5 v=0
200158 On ch=1 n=a5 v=0
200158 On ch=2 n=e3 v=0
200160 On ch=1 n=b4 v=92
200160 On ch=1 n=e5 v=92
200160 On ch=1 n=b5 v=92
200160 On ch=2 n=d4 v=92
200160 On ch=2 n=d4 v=92
200222 On ch=2 n=d4 v=0
200224 On ch=2 n=g#4 v=92
200286 On ch=2 n=g#4 v=0
200288 On ch=2 n=e3 v=92
200320 On ch=1 n=b4 v=0
200320 On ch=1 n=e5 v=0
200320 On ch=1 n=b5 v=0
200320 On ch=2 n=d4 v=0
200350 On ch=2 n=e3 v=0
200352 On ch=1 n=a4 v=92
200352 On ch=1 n=e5 v=92
200352 On ch=1 n=a5 v=92
200352 On ch=2 n=c4 v=92
200352 On ch=2 n=c4 v=92
200414 On ch=1 n=a5 v=0
200414 On ch=2 n=c4 v=0
200416 On ch=2 n=g4 v=92
200478 On ch=2 n=g4 v=0
200480 On ch=1 n=a5 v=92
200480 On ch=2 n=e3 v=92
200512 On ch=1 n=a4 v=0
200512 On ch=1 n=e5 v=0
200512 On ch=2 n=c4 v=0
200542 On ch=1 n=a5 v=0
200542 On ch=2 n=e3 v=0
200544 On ch=1 n=a4 v=92
200544 On ch=1 n=d#5 v=92
200544 On ch=1 n=b5 v=92
200544 On ch=2 n=b3 v=92
200544 On ch=2 n=b3 v=92
200606 On ch=2 n=b3 v=0
200608 On ch=2 n=f#4 v=92
200670 On ch=2 n=f#4 v=0
200672 On ch=2 n=e3 v=92
200704 On ch=1 n=a4 v=0
200704 On ch=1 n=d#5 v=0
200704 On ch=1 n=b5 v=0
200704 On ch=2 n=b3 v=0
200734 On ch=2 n=e3 v=0
200736 On ch=1 n=g4 v=92
200736 On ch=1 n=d5 v=92
200736 On ch=1 n=g5 v=92
200736 On ch=2 n=a#3 v=92
200736 On ch=2 n=a#3 v=92
200798 On ch=1 n=g5 v=0
200798 On ch=2 n=a#3 v=0
200800 On ch=2 n=f4 v=92
200862 On ch=2 n=f4 v=0
200864 On ch=1 n=g5 v=92
200864 On ch=2 n=e3 v=92
200896 On ch=1 n=g4 v=0
200896 On ch=1 n=d5 v=0
200896 On ch=2 n=a#3 v=0
200926 On ch=1 n=g5 v=0
200926 On ch=2 n=e3 v=0
200928 On ch=1 n=g4 v=92
200928 On ch=1 n=c#5 v=92
200928 On ch=1 n=a5 v=92
200928 On ch=2 n=a3 v=92
200928 On ch=2 n=a3 v=92
200990 On ch=1 n=a5 v=0
200990 On ch=2 n=a3 v=0
200992 On ch=2 n=e4 v=92
201054 On ch=2 n=e4 v=0
201056 On ch=1 n=f#5 v=92
201056 On ch=2 n=e3 v=92
201088 On ch=1 n=g4 v=0
201088 On ch=1 n=c#5 v=0
201088 On ch=2 n=a3 v=0
201118 On ch=1 n=f#5 v=0
201118 On ch=2 n=e3 v=0
201120 On ch=1 n=c5 v=92
201120 On ch=1 n=g5 v=92
201120 On ch=2 n=a3 v=92
201120 On ch=2 n=a3 v=92
201182 On ch=1 n=g5 v=0
201182 On ch=2 n=a3 v=0
201184 On ch=1 n=a5 v=92
201184 On ch=2 n=d#4 v=92
201246 On ch=1 n=a5 v=0
201246 On ch=2 n=d#4 v=0
201248 On ch=1 n=b5 v=92
201248 On ch=2 n=e3 v=92
201280 On ch=1 n=c5 v=0
201280 On ch=2 n=a3 v=0
201310 On ch=1 n=b5 v=0
201310 On ch=2 n=e3 v=0
201312 TimeSig 2/2 24 8
201312 On ch=1 n=c5 v=127
201312 On ch=1 n=e5 v=127
201312 On ch=1 n=c6 v=127
201312 On ch=2 n=c4 v=127
201312 On ch=2 n=e4 v=127
201472 On ch=1 n=c5 v=0
201472 On ch=1 n=e5 v=0
201472 On ch=1 n=c6 v=0
201472 On ch=2 n=c4 v=0
201472 On ch=2 n=e4 v=0
201504 On ch=1 n=e5 v=92
201504 On ch=1 n=g5 v=92
201504 On ch=1 n=b5 v=92
201504 On ch=2 n=d5 v=92
201504 On ch=2 n=d5 v=92
201566 On ch=1 n=b5 v=0
201566 On ch=2 n=d5 v=0
201568 On ch=2 n=g4 v=92
201630 On ch=2 n=g4 v=0
201632 On ch=1 n=b5 v=92
201632 On ch=2 n=e4 v=92
201664 On ch=1 n=e5 v=0
201664 On ch=1 n=g5 v=0
201664 On ch=2 n=d5 v=0
201694 On ch=1 n=b5 v=0
201694 On ch=2 n=e4 v=0
201696 On ch=1 n=e5 v=92
201696 On ch=1 n=g5 v=92
201696 On ch=1 n=c6 v=92
201696 On ch=2 n=c5 v=92
201696 On ch=2 n=c5 v=92
201758 On ch=2 n=c5 v=0
201760 On ch=2 n=g4 v=92
201822 On ch=2 n=g4 v=0
201824 On ch=2 n=c4 v=92
201856 On ch=1 n=e5 v=0
201856 On ch=1 n=g5 v=0
201856 On ch=1 n=c6 v=0
201856 On ch=2 n=c5 v=0
201886 On ch=2 n=c4 v=0
201888 On ch=1 n=e5 v=92
201888 On ch=1 n=g5 v=92
201888 On ch=1 n=a5 v=92
201888 On ch=2 n=b4 v=92
201888 On ch=2 n=b4 v=92
201950 On ch=1 n=a5 v=0
201950 On ch=2 n=b4 v=0
201952 On ch=1 n=b5 v=92
201952 On ch=2 n=c4 v=92
202014 On ch=1 n=b5 v=0
202014 On ch=2 n=c4 v=0
202016 On ch=1 n=c6 v=92
202016 On ch=2 n=e3 v=92
202048 On ch=1 n=e5 v=0
202048 On ch=1 n=g5 v=0
202048 On ch=2 n=b4 v=0
202078 On ch=1 n=c6 v=0
202078 On ch=2 n=e3 v=0
202080 On ch=1 n=d5 v=92
202080 On ch=1 n=f5 v=92
202080 On ch=1 n=d6 v=92
202080 On ch=2 n=d4 v=127
202080 On ch=2 n=a4 v=127
202240 On ch=1 n=d5 v=0
202240 On ch=1 n=f5 v=0
202240 On ch=1 n=d6 v=0
202240 On ch=2 n=d4 v=0
202240 On ch=2 n=a4 v=0
202272 On ch=1 n=f5 v=92
202272 On ch=1 n=a5 v=92
202272 On ch=1 n=c6 v=92
202272 On ch=2 n=e5 v=92
202272 On ch=2 n=e5 v=92
202334 On ch=2 n=e5 v=0
202334 On ch=1 n=c6 v=0
202336 On ch=2 n=a4 v=92
202398 On ch=2 n=a4 v=0
202400 On ch=2 n=f4 v=92
202400 On ch=1 n=c6 v=92
202432 On ch=2 n=e5 v=0
202432 On ch=1 n=a5 v=0
202432 On ch=1 n=f5 v=0
202462 On ch=2 n=f4 v=0
202462 On ch=1 n=c6 v=0
202464 On ch=2 n=d5 v=92
202464 On ch=2 n=d5 v=92
202464 On ch=1 n=d6 v=92
202464 On ch=1 n=a5 v=92
202464 On ch=1 n=f5 v=92
202526 On ch=2 n=d5 v=0
202528 On ch=2 n=a4 v=92
202590 On ch=2 n=a4 v=0
202592 On ch=2 n=d4 v=92
202624 On ch=1 n=d6 v=0
202624 On ch=1 n=a5 v=0
202624 On ch=1 n=f5 v=0
202624 On ch=2 n=d5 v=0
202654 On ch=2 n=d4 v=0
202656 On ch=1 n=f5 v=92
202656 On ch=1 n=b5 v=92
202656 On ch=2 n=d5 v=92
202718 On ch=1 n=b5 v=0
202718 On ch=2 n=d5 v=0
202720 On ch=1 n=c6 v=92
202720 On ch=2 n=c5 v=92
202782 On ch=1 n=c6 v=0
202782 On ch=2 n=c5 v=0
202784 On ch=1 n=d6 v=92
202784 On ch=2 n=b4 v=92
202816 On ch=1 n=f5 v=0
202846 On ch=1 n=d6 v=0
202846 On ch=2 n=b4 v=0
202848 Par ch=2 c=64 v=127
202848 On ch=1 n=c6 v=92
202848 On ch=1 n=e6 v=92
202848 On ch=2 n=a4 v=92
202848 On ch=2 n=c5 v=92
202848 On ch=2 n=e5 v=92
202910 On ch=1 n=c6 v=0
202912 On ch=1 n=g#5 v=92
202974 On ch=1 n=g#5 v=0
202976 On ch=1 n=a5 v=92
203008 On ch=1 n=e6 v=0
203008 On ch=2 n=a4 v=0
203008 On ch=2 n=c5 v=0
203008 On ch=2 n=e5 v=0
203038 On ch=1 n=a5 v=0
203040 On ch=1 n=b5 v=92
203040 On ch=1 n=d6 v=92
203040 On ch=2 n=f4 v=92
203040 On ch=2 n=b4 v=92
203040 On ch=2 n=d5 v=92
203052 Tempo 298507
203052 Tempo 298507
203102 On ch=1 n=b5 v=0
203102 On ch=2 n=f4 v=0
203102 On ch=2 n=b4 v=0
203102 On ch=2 n=d5 v=0
203104 On ch=1 n=g5 v=92
203166 On ch=1 n=g5 v=0
203168 On ch=1 n=g#5 v=92
203168 On ch=2 n=f4 v=92
203168 On ch=2 n=b4 v=92
203168 On ch=2 n=d5 v=92
203200 On ch=1 n=d6 v=0
203230 On ch=1 n=g#5 v=0
203230 On ch=2 n=f4 v=0
203230 On ch=2 n=b4 v=0
203230 On ch=2 n=d5 v=0
203232 Par ch=2 c=64 v=0
203232 Par ch=2 c=64 v=127
203232 On ch=1 n=c6 v=92
203232 On ch=1 n=e6 v=92
203232 On ch=2 n=e4 v=92
203232 On ch=2 n=c5 v=92
203232 On ch=2 n=e5 v=92
203257 Tempo 297029
203257 Tempo 297029
203294 On ch=1 n=c6 v=0
203296 On ch=1 n=f#5 v=92
203358 On ch=1 n=f#5 v=0
203360 On ch=1 n=g5 v=92
203392 On ch=1 n=e6 v=0
203392 On ch=2 n=e4 v=0
203392 On ch=2 n=c5 v=0
203392 On ch=2 n=e5 v=0
203422 On ch=1 n=g5 v=0
203424 On ch=1 n=f5 v=92
203424 On ch=1 n=a5 v=92
203424 On ch=2 n=e3 v=92
203462 Tempo 295566
203462 Tempo 295566
203486 On ch=1 n=f5 v=0
203488 On ch=1 n=e5 v=92
203550 On ch=1 n=e5 v=0
203552 On ch=1 n=f5 v=92
203584 On ch=1 n=a5 v=0
203584 On ch=2 n=e3 v=0
203614 On ch=1 n=f5 v=0
203616 Par ch=2 c=64 v=0
203616 Par ch=2 c=64 v=127
203616 On ch=1 n=c6 v=92
203616 On ch=1 n=e6 v=92
203616 On ch=2 n=a4 v=92
203616 On ch=2 n=c5 v=92
203616 On ch=2 n=e5 v=92
203667 Tempo 294117
203667 Tempo 294117
203678 On ch=1 n=c6 v=0
203680 On ch=1 n=g#5 v=92
203742 On ch=1 n=g#5 v=0
203744 On ch=1 n=a5 v=92
203776 On ch=1 n=e6 v=0
203776 On ch=2 n=a4 v=0
203776 On ch=2 n=c5 v=0
203776 On ch=2 n=e5 v=0
203806 On ch=1 n=a5 v=0
203808 On ch=1 n=d6 v=92
203808 On ch=1 n=f6 v=92
203808 On ch=2 n=g#4 v=93
203808 On ch=2 n=d5 v=93
203808 On ch=2 n=f5 v=93
203870 On ch=1 n=d6 v=0
203870 On ch=2 n=g#4 v=0
203870 On ch=2 n=d5 v=0
203870 On ch=2 n=f5 v=0
203872 Tempo 292682
203872 Tempo 292682
203872 On ch=1 n=a#5 v=92
203934 On ch=1 n=a#5 v=0
203936 On ch=1 n=b5 v=92
203936 On ch=2 n=g#4 v=93
203936 On ch=2 n=d5 v=93
203936 On ch=2 n=f5 v=93
203968 On ch=1 n=f6 v=0
203998 On ch=1 n=b5 v=0
203998 On ch=2 n=g#4 v=0
203998 On ch=2 n=d5 v=0
203998 On ch=2 n=f5 v=0
204000 Par ch=2 c=64 v=0
204000 Par ch=2 c=64 v=127
204000 On ch=1 n=e6 v=92
204000 On ch=1 n=g#6 v=92
204000 On ch=2 n=g4 v=93
204000 On ch=2 n=e5 v=93
204000 On ch=2 n=g5 v=93
204062 On ch=1 n=e6 v=0
204064 On ch=1 n=b5 v=92
204076 Tempo 291262
204076 Tempo 291262
204126 On ch=1 n=b5 v=0
204128 On ch=1 n=c6 v=92
204160 On ch=1 n=g#6 v=0
204160 On ch=2 n=g4 v=0
204160 On ch=2 n=e5 v=0
204160 On ch=2 n=g5 v=0
204190 On ch=1 n=c6 v=0
204192 On ch=1 n=c#6 v=92
204192 On ch=1 n=f6 v=92
204192 On ch=2 n=a4 v=94
204192 On ch=2 n=c#5 v=94
204192 On ch=2 n=f5 v=94
204254 On ch=1 n=c#6 v=0
204254 On ch=2 n=a4 v=0
204254 On ch=2 n=c#5 v=0
204254 On ch=2 n=f5 v=0
204256 On ch=1 n=c#6 v=92
204281 Tempo 289855
204281 Tempo 289855
204286 On ch=1 n=f6 v=0
204318 On ch=1 n=c#6 v=0
204320 On ch=1 n=c#6 v=92
204320 On ch=1 n=g#6 v=92
204320 On ch=2 n=a4 v=94
204320 On ch=2 n=c#5 v=94
204320 On ch=2 n=g5 v=94
204382 On ch=1 n=c#6 v=0
204382 On ch=2 n=a4 v=0
204382 On ch=2 n=c#5 v=0
204382 On ch=2 n=g5 v=0
204384 Par ch=2 c=64 v=0
204384 Par ch=2 c=64 v=127
204384 On ch=1 n=f6 v=92
204384 On ch=1 n=a6 v=92
204384 On ch=2 n=d5 v=94
204384 On ch=2 n=f5 v=94
204384 On ch=2 n=a5 v=94
204414 On ch=1 n=g#6 v=0
204446 On ch=1 n=f6 v=0
204448 On ch=1 n=c#6 v=92
204486 Tempo 288461
204486 Tempo 288461
204510 On ch=1 n=c#6 v=0
204512 On ch=1 n=d6 v=92
204544 On ch=1 n=a6 v=0
204544 On ch=2 n=d5 v=0
204544 On ch=2 n=f5 v=0
204544 On ch=2 n=a5 v=0
204574 On ch=1 n=d6 v=0
204576 On ch=1 n=e6 v=92
204576 On ch=1 n=g6 v=92
204576 On ch=2 n=a#4 v=95
204576 On ch=2 n=e5 v=95
204576 On ch=2 n=g5 v=95
204638 On ch=1 n=e6 v=0
204638 On ch=2 n=a#4 v=0
204638 On ch=2 n=e5 v=0
204638 On ch=2 n=g5 v=0
204640 On ch=1 n=c6 v=92
204691 Tempo 287081
204691 Tempo 287081
204702 On ch=1 n=c6 v=0
204704 On ch=1 n=c#6 v=92
204704 On ch=2 n=a#4 v=95
204704 On ch=2 n=e5 v=95
204704 On ch=2 n=g5 v=95
204736 On ch=1 n=g6 v=0
204766 On ch=1 n=c#6 v=0
204766 On ch=2 n=a#4 v=0
204766 On ch=2 n=e5 v=0
204766 On ch=2 n=g5 v=0
204768 Par ch=2 c=64 v=0
204768 Par ch=2 c=64 v=127
204768 On ch=1 n=f6 v=92
204768 On ch=1 n=a6 v=92
204768 On ch=2 n=a4 v=95
204768 On ch=2 n=f5 v=95
204768 On ch=2 n=a5 v=95
204830 On ch=1 n=f6 v=0
204832 On ch=1 n=b5 v=92
204894 On ch=1 n=b5 v=0
204896 Tempo 285714
204896 Tempo 285714
204896 On ch=1 n=c6 v=92
204928 On ch=1 n=a6 v=0
204928 On ch=2 n=a4 v=0
204928 On ch=2 n=f5 v=0
204928 On ch=2 n=a5 v=0
204958 On ch=1 n=c6 v=0
204960 On ch=1 n=a5 v=92
204960 On ch=1 n=c6 v=92
204960 On ch=2 n=e3 v=127
205022 On ch=1 n=a5 v=0
205024 On ch=1 n=g#5 v=92
205086 On ch=1 n=g#5 v=0
205088 On ch=1 n=a5 v=92
205100 Tempo 284360
205100 Tempo 284360
205120 On ch=1 n=c6 v=0
205120 On ch=2 n=e3 v=0
205150 On ch=1 n=a5 v=0
205152 Par ch=2 c=64 v=0
205152 Par ch=2 c=64 v=127
205152 On ch=1 n=f6 v=92
205152 On ch=1 n=a6 v=92
205152 On ch=2 n=d5 v=97
205152 On ch=2 n=f5 v=97
205152 On ch=2 n=a5 v=97
205214 On ch=1 n=f6 v=0
205216 On ch=1 n=c#6 v=92
205278 On ch=1 n=c#6 v=0
205280 On ch=1 n=d6 v=92
205305 Tempo 283018
205305 Tempo 283018
205312 On ch=1 n=a6 v=0
205312 On ch=2 n=d5 v=0
205312 On ch=2 n=f5 v=0
205312 On ch=2 n=a5 v=0
205342 On ch=1 n=d6 v=0
205344 On ch=1 n=g6 v=92
205344 On ch=1 n=b6 v=92
205344 On ch=2 n=c#5 v=98
205344 On ch=2 n=g5 v=98
205344 On ch=2 n=b5 v=98
205406 On ch=1 n=g6 v=0
205406 On ch=2 n=c#5 v=0
205406 On ch=2 n=g5 v=0
205406 On ch=2 n=b5 v=0
205408 On ch=1 n=d#6 v=92
205470 On ch=1 n=d#6 v=0
205472 On ch=1 n=e6 v=92
205472 On ch=2 n=c#5 v=98
205472 On ch=2 n=g5 v=98
205472 On ch=2 n=b5 v=98
205504 On ch=1 n=b6 v=0
205510 Tempo 281690
205510 Tempo 281690
205534 On ch=1 n=e6 v=0
205534 On ch=2 n=c#5 v=0
205534 On ch=2 n=g5 v=0
205534 On ch=2 n=b5 v=0
205536 Par ch=2 c=64 v=0
205536 Par ch=2 c=64 v=127
205536 On ch=1 n=a6 v=92
205536 On ch=1 n=c#7 v=92
205536 On ch=2 n=c5 v=98
205536 On ch=2 n=a5 v=98
205536 On ch=2 n=c6 v=98
205598 On ch=1 n=a6 v=0
205600 On ch=1 n=e6 v=92
205662 On ch=1 n=e6 v=0
205664 On ch=1 n=f6 v=92
205696 On ch=1 n=c#7 v=0
205696 On ch=2 n=c5 v=0
205696 On ch=2 n=a5 v=0
205696 On ch=2 n=c6 v=0
205715 Tempo 280373
205715 Tempo 280373
205726 On ch=1 n=f6 v=0
205728 On ch=1 n=g#6 v=92
205728 On ch=1 n=b6 v=92
205728 On ch=2 n=f5 v=100
205728 On ch=2 n=g#5 v=100
205728 On ch=2 n=c#6 v=100
205790 On ch=1 n=g#6 v=0
205790 On ch=2 n=f5 v=0
205790 On ch=2 n=g#5 v=0
205790 On ch=2 n=c#6 v=0
205792 On ch=1 n=g6 v=92
205822 On ch=1 n=b6 v=0
205854 On ch=1 n=g6 v=0
205856 On ch=1 n=g#6 v=92
205856 On ch=1 n=c#7 v=92
205856 On ch=2 n=f5 v=100
205856 On ch=2 n=g#5 v=100
205856 On ch=2 n=e6 v=100
205918 On ch=1 n=g#6 v=0
205918 On ch=2 n=f5 v=0
205918 On ch=2 n=g#5 v=0
205918 On ch=2 n=e6 v=0
205920 Par ch=2 c=64 v=0
205920 Tempo 279069
205920 Tempo 279069
205920 Par ch=2 c=64 v=127
205920 On ch=1 n=a6 v=92
205920 On ch=1 n=d7 v=92
205920 On ch=2 n=f5 v=100
205920 On ch=2 n=a5 v=100
205920 On ch=2 n=f6 v=100
205950 On ch=1 n=c#7 v=0
205982 On ch=1 n=a6 v=0
205984 On ch=1 n=g#6 v=92
206046 On ch=1 n=g#6 v=0
206048 On ch=1 n=a6 v=93
206080 On ch=1 n=d7 v=0
206080 On ch=2 n=f5 v=0
206080 On ch=2 n=a5 v=0
206080 On ch=2 n=f6 v=0
206110 On ch=1 n=a6 v=0
206112 On ch=1 n=e6 v=94
206112 On ch=1 n=c7 v=94
206112 On ch=2 n=f4 v=102
206112 On ch=2 n=g#4 v=102
206112 On ch=2 n=c5 v=102
206112 On ch=2 n=e5 v=102
206124 Tempo 277777
206124 Tempo 277777
206174 On ch=1 n=e6 v=0
206176 On ch=1 n=d#6 v=95
206238 On ch=1 n=d#6 v=0
206240 On ch=1 n=e6 v=96
206272 On ch=1 n=c7 v=0
206272 On ch=2 n=f4 v=0
206272 On ch=2 n=g#4 v=0
206272 On ch=2 n=c5 v=0
206272 On ch=2 n=e5 v=0
206302 On ch=1 n=e6 v=0
206304 Par ch=2 c=64 v=0
206304 Par ch=2 c=64 v=127
206304 On ch=1 n=f6 v=96
206304 On ch=1 n=d#7 v=96
206304 On ch=2 n=f4 v=104
206304 On ch=2 n=a4 v=104
206304 On ch=2 n=d5 v=104
206304 On ch=2 n=f5 v=104
206329 Tempo 276497
206329 Tempo 276497
206366 On ch=1 n=f6 v=0
206368 On ch=1 n=e6 v=97
206430 On ch=1 n=e6 v=0
206432 On ch=1 n=f6 v=98
206464 On ch=1 n=d#7 v=0
206494 On ch=1 n=f6 v=0
206496 On ch=1 n=d6 v=99
206496 On ch=1 n=a6 v=99
206496 On ch=2 n=e2 v=106
206496 On ch=2 n=e3 v=106
206534 Tempo 275229
206534 Tempo 275229
206558 On ch=1 n=d6 v=0
206560 On ch=1 n=c#6 v=100
206622 On ch=1 n=c#6 v=0
206624 On ch=1 n=d6 v=101
206640 On ch=2 n=f4 v=0
206640 On ch=2 n=a4 v=0
206640 On ch=2 n=d5 v=0
206640 On ch=2 n=f5 v=0
206656 On ch=1 n=a6 v=0
206656 On ch=2 n=e2 v=0
206656 On ch=2 n=e3 v=0
206686 On ch=1 n=d6 v=0
206688 Par ch=2 c=64 v=0
206688 Par ch=2 c=64 v=127
206688 On ch=1 n=a#6 v=102
206688 On ch=1 n=f7 v=102
206688 On ch=2 n=f4 v=108
206688 On ch=2 n=c5 v=108
206688 On ch=2 n=d5 v=108
206688 On ch=2 n=f5 v=108
206739 Tempo 273972
206739 Tempo 273972
206750 On ch=1 n=a#6 v=0
206752 On ch=1 n=a6 v=103
206814 On ch=1 n=a6 v=0
206816 On ch=1 n=a#6 v=104
206848 On ch=1 n=f7 v=0
206848 On ch=2 n=f4 v=0
206848 On ch=2 n=c5 v=0
206848 On ch=2 n=d5 v=0
206848 On ch=2 n=f5 v=0
206878 On ch=1 n=a#6 v=0
206880 On ch=1 n=a6 v=105
206880 On ch=1 n=c#7 v=105
206880 On ch=2 n=f4 v=110
206880 On ch=2 n=a4 v=110
206880 On ch=2 n=c#5 v=110
206880 On ch=2 n=e5 v=110
206942 On ch=1 n=a6 v=0
206944 Tempo 272727
206944 Tempo 272727
206944 On ch=1 n=g#6 v=106
207006 On ch=1 n=g#6 v=0
207008 On ch=1 n=a6 v=107
207040 On ch=1 n=c#7 v=0
207040 On ch=2 n=f4 v=0
207040 On ch=2 n=a4 v=0
207040 On ch=2 n=c#5 v=0
207040 On ch=2 n=e5 v=0
207070 On ch=1 n=a6 v=0
207072 Par ch=2 c=64 v=0
207072 Par ch=2 c=64 v=127
207072 On ch=1 n=a#6 v=108
207072 On ch=1 n=d7 v=108
207072 On ch=2 n=f4 v=112
207072 On ch=2 n=c5 v=112
207072 On ch=2 n=d5 v=112
207072 On ch=2 n=f5 v=112
207134 On ch=1 n=a#6 v=0
207136 On ch=1 n=a6 v=109
207148 Tempo 271493
207148 Tempo 271493
207198 On ch=1 n=a6 v=0
207200 On ch=1 n=a#6 v=110
207232 On ch=1 n=d7 v=0
207262 On ch=1 n=a#6 v=0
207264 On ch=1 n=f6 v=111
207264 On ch=1 n=a#6 v=111
207264 On ch=2 n=e2 v=114
207264 On ch=2 n=e3 v=114
207326 On ch=1 n=f6 v=0
207328 On ch=1 n=e6 v=112
207353 Tempo 270270
207353 Tempo 270270
207390 On ch=1 n=e6 v=0
207392 On ch=1 n=f6 v=113
207408 On ch=2 n=f4 v=0
207408 On ch=2 n=c5 v=0
207408 On ch=2 n=d5 v=0
207408 On ch=2 n=f5 v=0
207424 On ch=1 n=a#6 v=0
207424 On ch=2 n=e2 v=0
207424 On ch=2 n=e3 v=0
207454 On ch=1 n=f6 v=0
207456 Par ch=2 c=64 v=0
207456 Par ch=2 c=64 v=127
207456 On ch=1 n=f7 v=114
207456 On ch=1 n=a7 v=114
207456 On ch=2 n=f4 v=116
207456 On ch=2 n=c5 v=116
207456 On ch=2 n=d5 v=116
207456 On ch=2 n=f5 v=116
207518 On ch=1 n=f7 v=0
207518 On ch=1 n=a7 v=0
207520 On ch=1 n=e7 v=115
207558 Tempo 269058
207558 Tempo 269058
207582 On ch=1 n=e7 v=0
207584 On ch=1 n=f7 v=116
207616 On ch=2 n=f4 v=0
207616 On ch=2 n=c5 v=0
207616 On ch=2 n=d5 v=0
207616 On ch=2 n=f5 v=0
207646 On ch=1 n=f7 v=0
207648 On ch=1 n=a6 v=117
207648 On ch=2 n=f4 v=118
207648 On ch=2 n=b4 v=118
207648 On ch=2 n=d5 v=118
207648 On ch=2 n=f5 v=118
207710 On ch=1 n=a6 v=0
207710 On ch=2 n=f4 v=0
207710 On ch=2 n=b4 v=0
207710 On ch=2 n=d5 v=0
207710 On ch=2 n=f5 v=0
207712 On ch=1 n=f7 v=118
207763 Tempo 267857
207763 Tempo 267857
207774 On ch=1 n=f7 v=0
207776 On ch=1 n=e7 v=119
207776 On ch=2 n=f4 v=120
207776 On ch=2 n=b4 v=120
207776 On ch=2 n=d5 v=120
207776 On ch=2 n=f5 v=120
207838 On ch=1 n=e7 v=0
207838 On ch=2 n=f4 v=0
207838 On ch=2 n=b4 v=0
207838 On ch=2 n=d5 v=0
207838 On ch=2 n=f5 v=0
207840 Par ch=2 c=64 v=0
207840 Par ch=2 c=64 v=127
207840 On ch=1 n=f7 v=120
207840 On ch=1 n=a7 v=120
207840 On ch=2 n=f4 v=121
207840 On ch=2 n=c5 v=121
207840 On ch=2 n=d5 v=121
207840 On ch=2 n=f5 v=121
207902 On ch=1 n=f7 v=0
207902 On ch=1 n=a7 v=0
207904 On ch=1 n=e7 v=121
207966 On ch=1 n=e7 v=0
207968 Tempo 266666
207968 Tempo 266666
207968 On ch=1 n=f7 v=122
208000 On ch=2 n=f4 v=0
208000 On ch=2 n=c5 v=0
208000 On ch=2 n=d5 v=0
208000 On ch=2 n=f5 v=0
208030 On ch=1 n=f7 v=0
208032 On ch=1 n=a6 v=123
208032 On ch=2 n=f4 v=124
208032 On ch=2 n=c#5 v=124
208032 On ch=2 n=f5 v=124
208094 On ch=1 n=a6 v=0
208096 On ch=1 n=f7 v=124
208158 On ch=1 n=f7 v=0
208160 On ch=1 n=a7 v=125
208172 Tempo 265486
208172 Tempo 265486
208192 On ch=2 n=f4 v=0
208192 On ch=2 n=c#5 v=0
208192 On ch=2 n=f5 v=0
208222 On ch=1 n=a7 v=0
208224 Par ch=2 c=64 v=0
208224 Par ch=2 c=64 v=127
208224 On ch=1 n=d7 v=127
208224 On ch=1 n=a#7 v=127
208224 On ch=1 n=d8 v=127
208224 On ch=2 n=g2 v=127
208224 On ch=2 n=g3 v=127
208248 On ch=2 n=d4 v=127
208248 On ch=2 n=a#4 v=127
208248 On ch=2 n=d5 v=127
208377 Tempo 264317
208377 Tempo 264317
208384 On ch=1 n=d7 v=0
208384 On ch=1 n=a#7 v=0
208384 On ch=1 n=d8 v=0
208414 On ch=2 n=d4 v=0
208414 On ch=2 n=a#4 v=0
208414 On ch=2 n=d5 v=0
208416 On ch=1 n=a7 v=127
208416 On ch=1 n=c8 v=127
208416 On ch=2 n=d5 v=127
208416 On ch=2 n=a5 v=127
208416 On ch=2 n=c6 v=127
208478 On ch=1 n=a7 v=0
208478 On ch=1 n=c8 v=0
208478 On ch=2 n=d5 v=0
208478 On ch=2 n=a5 v=0
208478 On ch=2 n=c6 v=0
208480 On ch=1 n=d7 v=127
208542 On ch=1 n=d7 v=0
208544 On ch=1 n=a7 v=127
208544 On ch=1 n=c8 v=127
208544 On ch=2 n=a5 v=127
208544 On ch=2 n=c6 v=127
208582 Tempo 263157
208582 Tempo 263157
208606 On ch=1 n=a7 v=0
208606 On ch=1 n=c8 v=0
208606 On ch=2 n=a5 v=0
208606 On ch=2 n=c6 v=0
208608 Par ch=2 c=64 v=0
208608 Par ch=2 c=64 v=127
208608 On ch=1 n=a#7 v=127
208608 On ch=1 n=d8 v=127
208608 On ch=2 n=d5 v=127
208608 On ch=2 n=a#5 v=127
208608 On ch=2 n=d6 v=127
208670 On ch=1 n=a#7 v=0
208670 On ch=1 n=d8 v=0
208672 On ch=1 n=d7 v=127
208734 On ch=1 n=d7 v=0
208736 On ch=1 n=a#7 v=127
208736 On ch=1 n=d8 v=127
208768 On ch=2 n=d5 v=0
208768 On ch=2 n=a#5 v=0
208768 On ch=2 n=d6 v=0
208787 Tempo 262008
208787 Tempo 262008
208798 On ch=1 n=a#7 v=0
208798 On ch=1 n=d8 v=0
208800 On ch=2 n=a5 v=127
208800 On ch=2 n=f#6 v=127
208862 On ch=2 n=a5 v=0
208862 On ch=2 n=f#6 v=0
208864 On ch=1 n=f#7 v=127
208864 On ch=1 n=a7 v=127
208926 On ch=1 n=f#7 v=0
208926 On ch=1 n=a7 v=0
208928 On ch=1 n=a6 v=127
208928 On ch=2 n=f#6 v=127
208944 On ch=2 n=g2 v=0
208944 On ch=2 n=g3 v=0
208990 On ch=1 n=a6 v=0
208990 On ch=2 n=f#6 v=0
208992 Par ch=2 c=64 v=0
208992 Tempo 260869
208992 Tempo 260869
208992 Par ch=2 c=64 v=127
208992 On ch=2 n=a#5 v=127
208992 On ch=2 n=g6 v=127
209056 On ch=1 n=g7 v=127
209056 On ch=1 n=a#7 v=127
209118 On ch=1 n=g7 v=0
209118 On ch=1 n=a#7 v=0
209120 On ch=1 n=a#6 v=127
209152 On ch=2 n=a#5 v=0
209152 On ch=2 n=g6 v=0
209182 On ch=1 n=a#6 v=0
209184 On ch=2 n=c5 v=127
209184 On ch=2 n=a5 v=127
209246 On ch=2 n=c5 v=0
209246 On ch=2 n=a5 v=0
209248 On ch=1 n=a6 v=127
209248 On ch=1 n=c7 v=127
209310 On ch=1 n=a6 v=0
209310 On ch=1 n=c7 v=0
209312 On ch=1 n=c6 v=127
209312 On ch=2 n=a5 v=127
209374 On ch=1 n=c6 v=0
209374 On ch=2 n=a5 v=0
209376 Par ch=2 c=64 v=0
209376 Par ch=2 c=64 v=127
209376 On ch=2 n=d5 v=127
209376 On ch=2 n=a#5 v=127
209440 On ch=1 n=a#6 v=127
209440 On ch=1 n=d7 v=127
209502 On ch=1 n=a#6 v=0
209502 On ch=1 n=d7 v=0
209504 On ch=1 n=d6 v=127
209536 On ch=2 n=d5 v=0
209536 On ch=2 n=a#5 v=0
209566 On ch=1 n=d6 v=0
209568 On ch=2 n=a4 v=127
209568 On ch=2 n=f#5 v=127
209630 On ch=2 n=a4 v=0
209630 On ch=2 n=f#5 v=0
209632 On ch=1 n=f#6 v=127
209632 On ch=1 n=a6 v=127
209694 On ch=1 n=f#6 v=0
209694 On ch=1 n=a6 v=0
209696 On ch=1 n=a5 v=127
209696 On ch=2 n=f#5 v=127
209758 On ch=1 n=a5 v=0
209758 On ch=2 n=f#5 v=0
209760 Par ch=2 c=64 v=0
209760 Par ch=2 c=64 v=127
209760 On ch=2 n=a#4 v=127
209760 On ch=2 n=g5 v=127
209824 On ch=1 n=g6 v=127
209824 On ch=1 n=a#6 v=127
209886 On ch=1 n=g6 v=0
209886 On ch=1 n=a#6 v=0
209888 On ch=1 n=a#5 v=127
209920 On ch=2 n=a#4 v=0
209920 On ch=2 n=g5 v=0
209950 On ch=1 n=a#5 v=0
209952 On ch=2 n=c4 v=127
209952 On ch=2 n=a4 v=127
210014 On ch=2 n=c4 v=0
210014 On ch=2 n=a4 v=0
210016 On ch=1 n=a5 v=127
210016 On ch=1 n=c6 v=127
210078 On ch=1 n=a5 v=0
210078 On ch=1 n=c6 v=0
210080 On ch=1 n=c5 v=127
210080 On ch=2 n=a4 v=127
210142 On ch=1 n=c5 v=0
210142 On ch=2 n=a4 v=0
210144 Par ch=2 c=64 v=0
210144 Par ch=2 c=64 v=127
210144 On ch=2 n=d4 v=127
210144 On ch=2 n=a#4 v=127
210208 On ch=1 n=a#5 v=127
210208 On ch=1 n=d6 v=127
210270 On ch=1 n=a#5 v=0
210270 On ch=1 n=d6 v=0
210272 On ch=1 n=d5 v=127
210304 On ch=2 n=d4 v=0
210304 On ch=2 n=a#4 v=0
210334 On ch=1 n=d5 v=0
210336 On ch=2 n=a3 v=127
210336 On ch=2 n=f#4 v=127
210398 On ch=2 n=a3 v=0
210398 On ch=2 n=f#4 v=0
210400 On ch=1 n=f#5 v=127
210400 On ch=1 n=a5 v=127
210462 On ch=1 n=f#5 v=0
210462 On ch=1 n=a5 v=0
210464 On ch=1 n=a4 v=127
210464 On ch=2 n=f#4 v=127
210526 On ch=1 n=a4 v=0
210526 On ch=2 n=f#4 v=0
210528 Par ch=2 c=64 v=0
210528 Par ch=2 c=64 v=127
210528 On ch=2 n=a#3 v=127
210528 On ch=2 n=g4 v=127
210592 On ch=1 n=g5 v=127
210592 On ch=1 n=a#5 v=127
210654 On ch=1 n=g5 v=0
210654 On ch=1 n=a#5 v=0
210656 On ch=1 n=a#4 v=127
210688 On ch=2 n=a#3 v=0
210688 On ch=2 n=g4 v=0
210718 On ch=1 n=a#4 v=0
210720 On ch=2 n=c3 v=127
210720 On ch=2 n=a3 v=127
210782 On ch=2 n=c3 v=0
210782 On ch=2 n=a3 v=0
210784 On ch=1 n=a4 v=127
210784 On ch=1 n=c5 v=127
210846 On ch=1 n=a4 v=0
210846 On ch=1 n=c5 v=0
210848 On ch=1 n=c4 v=127
210848 On ch=2 n=a3 v=127
210910 On ch=1 n=c4 v=0
210910 On ch=2 n=a3 v=0
210912 Par ch=2 c=64 v=0
210912 Par ch=2 c=64 v=127
210912 On ch=2 n=d3 v=127
210912 On ch=2 n=a#3 v=127
210976 On ch=1 n=a#4 v=127
210976 On ch=1 n=d5 v=127
211038 On ch=1 n=a#4 v=0
211038 On ch=1 n=d5 v=0
211040 On ch=1 n=d4 v=127
211072 On ch=2 n=d3 v=0
211072 On ch=2 n=a#3 v=0
211102 On ch=1 n=d4 v=0
211104 On ch=2 n=g2 v=127
211104 On ch=2 n=g3 v=127
211166 On ch=2 n=g2 v=0
211166 On ch=2 n=g3 v=0
211232 On ch=2 n=g2 v=127
211232 On ch=2 n=g3 v=127
211294 On ch=2 n=g2 v=0
211294 On ch=2 n=g3 v=0
211296 Par ch=2 c=64 v=0
211296 Par ch=2 c=64 v=127
211296 On ch=2 n=a2 v=127
211296 On ch=2 n=a3 v=127
211360 On ch=2 n=e4 v=127
211422 On ch=2 n=e4 v=0
211424 On ch=2 n=a4 v=127
211486 On ch=2 n=a4 v=0
211488 On ch=2 n=c#5 v=127
211550 On ch=2 n=c#5 v=0
211552 On ch=2 n=a4 v=127
211614 On ch=2 n=a4 v=0
211616 On ch=2 n=e4 v=127
211632 On ch=2 n=a2 v=0
211632 On ch=2 n=a3 v=0
211678 On ch=2 n=e4 v=0
211680 Par ch=2 c=64 v=0
211680 Par ch=2 c=64 v=127
211680 On ch=2 n=g2 v=127
211680 On ch=2 n=g3 v=127
211808 On ch=2 n=a4 v=127
211870 On ch=2 n=a4 v=0
211872 On ch=1 n=e5 v=127
211872 On ch=1 n=c#6 v=127
211872 On ch=1 n=e6 v=127
211872 On ch=2 n=c#5 v=127
211934 On ch=1 n=e5 v=0
211934 On ch=1 n=c#6 v=0
211934 On ch=1 n=e6 v=0
211934 On ch=2 n=c#5 v=0
211936 On ch=2 n=a4 v=127
211998 On ch=2 n=a4 v=0
212000 On ch=1 n=d5 v=127
212000 On ch=1 n=b5 v=127
212000 On ch=1 n=d6 v=127
212000 On ch=2 n=e4 v=127
212016 On ch=2 n=g2 v=0
212016 On ch=2 n=g3 v=0
212062 On ch=1 n=d5 v=0
212062 On ch=1 n=b5 v=0
212062 On ch=1 n=d6 v=0
212062 On ch=2 n=e4 v=0
212064 Par ch=2 c=64 v=0
212064 Par ch=2 c=64 v=127
212064 On ch=1 n=e5 v=127
212064 On ch=1 n=c#6 v=127
212064 On ch=1 n=e6 v=127
212064 On ch=2 n=a2 v=127
212064 On ch=2 n=a3 v=127
212192 On ch=2 n=a4 v=127
212224 On ch=1 n=e5 v=0
212224 On ch=1 n=c#6 v=0
212224 On ch=1 n=e6 v=0
212254 On ch=2 n=a4 v=0
212256 On ch=2 n=c#5 v=127
212318 On ch=2 n=c#5 v=0
212320 On ch=2 n=a4 v=127
212382 On ch=2 n=a4 v=0
212384 On ch=2 n=e4 v=127
212400 On ch=2 n=a2 v=0
212400 On ch=2 n=a3 v=0
212446 On ch=2 n=e4 v=0
212448 Par ch=2 c=64 v=0
212448 Par ch=2 c=64 v=127
212448 On ch=2 n=f2 v=127
212448 On ch=2 n=f3 v=127
212576 On ch=2 n=a4 v=127
212638 On ch=2 n=a4 v=0
212640 On ch=1 n=f5 v=127
212640 On ch=1 n=c#6 v=127
212640 On ch=1 n=f6 v=127
212640 On ch=2 n=c#5 v=127
212702 On ch=1 n=f5 v=0
212702 On ch=1 n=c#6 v=0
212702 On ch=1 n=f6 v=0
212702 On ch=2 n=c#5 v=0
212704 On ch=2 n=a4 v=127
212766 On ch=2 n=a4 v=0
212768 On ch=1 n=e5 v=127
212768 On ch=1 n=c#6 v=127
212768 On ch=1 n=e6 v=127
212768 On ch=2 n=e4 v=127
212784 On ch=2 n=f2 v=0
212784 On ch=2 n=f3 v=0
212830 On ch=1 n=e5 v=0
212830 On ch=1 n=c#6 v=0
212830 On ch=1 n=e6 v=0
212830 On ch=2 n=e4 v=0
212832 Par ch=2 c=64 v=0
212832 Par ch=2 c=64 v=127
212832 On ch=1 n=f5 v=127
212832 On ch=1 n=c#6 v=127
212832 On ch=1 n=f6 v=127
212832 On ch=2 n=g2 v=127
212832 On ch=2 n=g3 v=127
212860 Tempo 262008
212860 Tempo 262008
212889 Tempo 263157
212889 Tempo 263157
212918 Tempo 264317
212918 Tempo 264317
212947 Tempo 265486
212947 Tempo 265486
212960 On ch=2 n=a4 v=127
212975 Tempo 266666
212975 Tempo 266666
212992 On ch=1 n=f5 v=0
212992 On ch=1 n=c#6 v=0
212992 On ch=1 n=f6 v=0
213004 Tempo 267857
213004 Tempo 267857
213022 On ch=2 n=a4 v=0
213024 On ch=2 n=c#5 v=127
213033 Tempo 269058
213033 Tempo 269058
213062 Tempo 270270
213062 Tempo 270270
213086 On ch=2 n=c#5 v=0
213088 On ch=2 n=a4 v=127
213091 Tempo 271493
213091 Tempo 271493
213119 Tempo 272727
213119 Tempo 272727
213148 Tempo 273972
213148 Tempo 273972
213150 On ch=2 n=a4 v=0
213152 On ch=2 n=e4 v=127
213168 On ch=2 n=g2 v=0
213168 On ch=2 n=g3 v=0
213177 Tempo 275229
213177 Tempo 275229
213206 Tempo 276497
213206 Tempo 276497
213214 On ch=2 n=e4 v=0
213216 Par ch=2 c=64 v=0
213216 Par ch=2 c=64 v=127
213216 On ch=2 n=e2 v=127
213216 On ch=2 n=e3 v=127
213235 Tempo 277777
213235 Tempo 277777
213263 Tempo 279069
213263 Tempo 279069
213292 Tempo 280373
213292 Tempo 280373
213321 Tempo 281690
213321 Tempo 281690
213344 On ch=2 n=a4 v=127
213350 Tempo 283018
213350 Tempo 283018
213379 Tempo 284360
213379 Tempo 284360
213406 On ch=2 n=a4 v=0
213407 Tempo 285714
213407 Tempo 285714
213408 On ch=1 n=g5 v=127
213408 On ch=1 n=a5 v=127
213408 On ch=1 n=c#6 v=127
213408 On ch=1 n=g6 v=127
213408 On ch=2 n=c#5 v=127
213436 Tempo 287081
213436 Tempo 287081
213465 Tempo 288461
213465 Tempo 288461
213470 On ch=1 n=g5 v=0
213470 On ch=1 n=a5 v=0
213470 On ch=1 n=c#6 v=0
213470 On ch=1 n=g6 v=0
213470 On ch=2 n=c#5 v=0
213472 On ch=2 n=a4 v=127
213494 Tempo 289855
213494 Tempo 289855
213523 Tempo 291262
213523 Tempo 291262
213534 On ch=2 n=a4 v=0
213536 On ch=1 n=f5 v=127
213536 On ch=1 n=a5 v=127
213536 On ch=1 n=c#6 v=127
213536 On ch=1 n=f6 v=127
213536 On ch=2 n=c#4 v=127
213551 Tempo 292682
213551 Tempo 292682
213552 On ch=2 n=e2 v=0
213552 On ch=2 n=e3 v=0
213580 Tempo 294117
213580 Tempo 294117
213598 On ch=1 n=f5 v=0
213598 On ch=1 n=a5 v=0
213598 On ch=1 n=c#6 v=0
213598 On ch=1 n=f6 v=0
213598 On ch=2 n=c#4 v=0
213600 Par ch=2 c=64 v=0
213600 Par ch=2 c=64 v=127
213600 On ch=1 n=g5 v=127
213600 On ch=1 n=a5 v=127
213600 On ch=1 n=c#6 v=127
213600 On ch=1 n=g6 v=127
213600 On ch=2 n=f2 v=127
213600 On ch=2 n=f3 v=127
213609 Tempo 295566
213609 Tempo 295566
213638 Tempo 297029
213638 Tempo 297029
213667 Tempo 298507
213667 Tempo 298507
213695 Tempo 300000
213695 Tempo 300000
213724 Tempo 301507
213724 Tempo 301507
213728 On ch=2 n=a4 v=127
213753 Tempo 303030
213753 Tempo 303030
213760 On ch=1 n=g5 v=0
213760 On ch=1 n=a5 v=0
213760 On ch=1 n=c#6 v=0
213760 On ch=1 n=g6 v=0
213782 Tempo 304568
213782 Tempo 304568
213790 On ch=2 n=a4 v=0
213792 On ch=2 n=c#5 v=127
213811 Tempo 306122
213811 Tempo 306122
213839 Tempo 307692
213839 Tempo 307692
213854 On ch=2 n=c#5 v=0
213856 On ch=2 n=a4 v=127
213868 Tempo 309278
213868 Tempo 309278
213897 Tempo 310880
213897 Tempo 310880
213918 On ch=2 n=a4 v=0
213920 On ch=2 n=g4 v=127
213926 Tempo 312500
213926 Tempo 312500
213936 On ch=2 n=f2 v=0
213936 On ch=2 n=f3 v=0
213955 Tempo 314136
213955 Tempo 314136
213982 On ch=2 n=g4 v=0
213984 Par ch=2 c=64 v=0
213984 Tempo 315789
213984 Tempo 315789
213984 Par ch=2 c=64 v=127
213984 On ch=2 n=a1 v=127
213984 On ch=2 n=a2 v=127
214112 On ch=2 n=a4 v=127
214174 On ch=2 n=a4 v=0
214176 On ch=1 n=a5 v=127
214176 On ch=1 n=c#6 v=127
214176 On ch=1 n=f6 v=127
214176 On ch=1 n=a6 v=127
214176 On ch=2 n=f5 v=127
214176 On ch=2 n=c#5 v=127
214238 On ch=2 n=f5 v=0
214238 On ch=2 n=c#5 v=0
214238 On ch=1 n=a6 v=0
214238 On ch=1 n=f6 v=0
214238 On ch=1 n=c#6 v=0
214238 On ch=1 n=a5 v=0
214240 On ch=2 n=a4 v=127
214302 On ch=2 n=a4 v=0
214304 On ch=2 n=g4 v=127
214304 On ch=1 n=g6 v=127
214304 On ch=1 n=e6 v=127
214304 On ch=1 n=c#6 v=127
214304 On ch=1 n=g5 v=127
214320 On ch=2 n=a2 v=0
214320 On ch=2 n=a1 v=0
214366 On ch=1 n=g5 v=0
214366 On ch=1 n=c#6 v=0
214366 On ch=1 n=e6 v=0
214366 On ch=1 n=g6 v=0
214366 On ch=2 n=g4 v=0
214368 Par ch=2 c=64 v=0
214368 Tempo 230769
214368 Tempo 230769
214368 On ch=1 n=a5 v=127
214368 On ch=1 n=d6 v=127
214368 On ch=1 n=f6 v=127
214368 On ch=1 n=a6 v=127
214368 On ch=2 n=d3 v=108
214368 On ch=2 n=a3 v=108
214430 On ch=2 n=d3 v=0
214430 On ch=2 n=a3 v=0
214432 On ch=2 n=d4 v=108
214494 On ch=2 n=d4 v=0
214496 On ch=2 n=a3 v=108
214528 On ch=1 n=a5 v=0
214528 On ch=1 n=d6 v=0
214528 On ch=1 n=f6 v=0
214528 On ch=1 n=a6 v=0
214558 On ch=2 n=a3 v=0
214560 On ch=1 n=a4 v=108
214560 On ch=1 n=c5 v=108
214560 On ch=1 n=f5 v=108
214560 On ch=2 n=d3 v=108
214654 On ch=1 n=a4 v=0
214654 On ch=1 n=c5 v=0
214654 On ch=1 n=f5 v=0
214656 On ch=1 n=f4 v=108
214720 On ch=2 n=d3 v=0
214750 On ch=1 n=f4 v=0
214752 On ch=2 n=a2 v=108
214752 On ch=2 n=d3 v=108
214814 On ch=2 n=a2 v=0
214814 On ch=2 n=d3 v=0
214816 On ch=2 n=a3 v=108
214848 On ch=1 n=f4 v=108
214878 On ch=2 n=a3 v=0
214880 On ch=2 n=d3 v=108
214942 On ch=1 n=f4 v=0
214942 On ch=2 n=d3 v=0
214944 On ch=1 n=a4 v=108
214944 On ch=1 n=d5 v=108
214944 On ch=1 n=f5 v=108
214944 On ch=2 n=a2 v=108
215038 On ch=1 n=a4 v=0
215038 On ch=1 n=d5 v=0
215038 On ch=1 n=f5 v=0
215040 On ch=1 n=f4 v=108
215104 On ch=2 n=a2 v=0
215134 On ch=1 n=f4 v=0
215136 Par ch=2 c=64 v=127
215136 On ch=2 n=a3 v=127
215136 On ch=2 n=d4 v=127
215198 On ch=2 n=a3 v=0
215198 On ch=2 n=d4 v=0
215200 On ch=2 n=a4 v=108
215262 On ch=2 n=a4 v=0
215264 On ch=2 n=d4 v=108
215326 On ch=2 n=d4 v=0
215328 On ch=1 n=d5 v=127
215328 On ch=1 n=e5 v=127
215328 On ch=1 n=a5 v=127
215328 On ch=2 n=a3 v=108
215422 On ch=1 n=d5 v=0
215422 On ch=1 n=a5 v=0
215424 On ch=1 n=a4 v=108
215488 On ch=2 n=a3 v=0
215518 On ch=1 n=a4 v=0
215518 On ch=1 n=e5 v=0
215520 On ch=2 n=d3 v=127
215520 On ch=2 n=a3 v=127
215582 On ch=2 n=d3 v=0
215582 On ch=2 n=a3 v=0
215584 On ch=2 n=d4 v=108
215616 On ch=1 n=a4 v=108
215646 On ch=2 n=d4 v=0
215648 On ch=2 n=a3 v=108
215710 On ch=1 n=a4 v=0
215710 On ch=2 n=a3 v=0
215712 On ch=1 n=d5 v=127
215712 On ch=1 n=f5 v=127
215712 On ch=1 n=a5 v=127
215712 On ch=2 n=d3 v=108
215774 On ch=1 n=d5 v=0
215774 On ch=1 n=f5 v=0
215774 On ch=1 n=a5 v=0
215840 On ch=1 n=e5 v=127
215840 On ch=1 n=g5 v=127
215872 On ch=2 n=d3 v=0
215902 On ch=1 n=e5 v=0
215902 On ch=1 n=g5 v=0
215904 Par ch=2 c=64 v=0
215904 Par ch=2 c=64 v=127
215904 On ch=1 n=f5 v=127
215904 On ch=1 n=a5 v=127
215904 On ch=2 n=d3 v=127
215904 On ch=2 n=a3 v=127
215966 On ch=2 n=d3 v=0
215966 On ch=2 n=a3 v=0
215968 On ch=2 n=d4 v=108
216030 On ch=2 n=d4 v=0
216032 On ch=2 n=a3 v=108
216064 On ch=1 n=f5 v=0
216064 On ch=1 n=a5 v=0
216094 On ch=2 n=a3 v=0
216096 On ch=1 n=a4 v=127
216096 On ch=1 n=c5 v=127
216096 On ch=1 n=f5 v=127
216096 On ch=2 n=d3 v=108
216190 On ch=1 n=a4 v=0
216190 On ch=1 n=f5 v=0
216192 On ch=1 n=f4 v=108
216256 On ch=2 n=d3 v=0
216286 On ch=1 n=f4 v=0
216286 On ch=1 n=c5 v=0
216288 On ch=2 n=a2 v=127
216288 On ch=2 n=d3 v=127
216350 On ch=2 n=d3 v=0
216352 On ch=2 n=a3 v=108
216384 On ch=1 n=f4 v=108
216414 On ch=2 n=a3 v=0
216416 On ch=2 n=d3 v=108
216478 On ch=1 n=f4 v=0
216478 On ch=2 n=d3 v=0
216480 On ch=1 n=a4 v=127
216480 On ch=1 n=d5 v=127
216480 On ch=1 n=f5 v=127
216574 On ch=1 n=a4 v=0
216574 On ch=1 n=f5 v=0
216576 On ch=1 n=f4 v=108
216640 On ch=2 n=a2 v=0
216670 On ch=1 n=f4 v=0
216670 On ch=1 n=d5 v=0
216672 Par ch=2 c=64 v=0
216672 Par ch=2 c=64 v=127
216672 On ch=2 n=a3 v=127
216672 On ch=2 n=d4 v=127
216734 On ch=2 n=a3 v=0
216734 On ch=2 n=d4 v=0
216736 On ch=2 n=a4 v=108
216798 On ch=2 n=a4 v=0
216800 On ch=2 n=d4 v=108
216862 On ch=2 n=d4 v=0
216864 On ch=1 n=d5 v=127
216864 On ch=1 n=e5 v=127
216864 On ch=1 n=a5 v=127
216864 On ch=2 n=a3 v=108
216958 On ch=1 n=d5 v=0
216958 On ch=1 n=a5 v=0
216960 On ch=1 n=a4 v=108
217024 On ch=2 n=a3 v=0
217054 On ch=1 n=a4 v=0
217054 On ch=1 n=e5 v=0
217056 On ch=2 n=d3 v=127
217056 On ch=2 n=a3 v=127
217118 On ch=2 n=d3 v=0
217118 On ch=2 n=a3 v=0
217120 On ch=2 n=d4 v=108
217152 On ch=1 n=a4 v=108
217182 On ch=2 n=d4 v=0
217184 On ch=2 n=a3 v=108
217246 On ch=1 n=a4 v=0
217246 On ch=2 n=a3 v=0
217248 On ch=1 n=d5 v=127
217248 On ch=1 n=f5 v=127
217248 On ch=1 n=a5 v=127
217248 On ch=2 n=d3 v=108
217310 On ch=1 n=d5 v=0
217310 On ch=1 n=f5 v=0
217310 On ch=1 n=a5 v=0
217376 On ch=1 n=e5 v=127
217376 On ch=1 n=g5 v=127
217408 On ch=2 n=d3 v=0
217438 On ch=1 n=e5 v=0
217438 On ch=1 n=g5 v=0
217440 Par ch=2 c=64 v=0
217440 Par ch=2 c=64 v=127
217440 On ch=1 n=f5 v=127
217440 On ch=1 n=a5 v=127
217440 On ch=2 n=c4 v=108
217440 On ch=2 n=a4 v=108
217502 On ch=2 n=c4 v=0
217502 On ch=2 n=a4 v=0
217504 On ch=2 n=c5 v=108
217566 On ch=2 n=c5 v=0
217568 On ch=2 n=a4 v=108
217600 On ch=1 n=f5 v=0
217600 On ch=1 n=a5 v=0
217630 On ch=2 n=a4 v=0
217632 On ch=1 n=f5 v=127
217632 On ch=1 n=g5 v=127
217632 On ch=1 n=c6 v=127
217632 On ch=2 n=c4 v=108
217726 On ch=1 n=f5 v=0
217726 On ch=1 n=c6 v=0
217728 On ch=1 n=c5 v=108
217792 On ch=2 n=c4 v=0
217822 On ch=1 n=c5 v=0
217822 On ch=1 n=g5 v=0
217824 On ch=2 n=f3 v=108
217824 On ch=2 n=c4 v=108
217886 On ch=2 n=f3 v=0
217886 On ch=2 n=c4 v=0
217888 On ch=2 n=f4 v=109
217920 On ch=1 n=c5 v=108
217950 On ch=2 n=f4 v=0
217952 On ch=2 n=c4 v=110
218014 On ch=1 n=c5 v=0
218014 On ch=2 n=c4 v=0
218016 On ch=1 n=f5 v=127
218016 On ch=1 n=a5 v=127
218016 On ch=1 n=c6 v=127
218016 On ch=2 n=f3 v=111
218110 On ch=1 n=f5 v=0
218110 On ch=1 n=c6 v=0
218112 On ch=1 n=c5 v=112
218176 On ch=2 n=f3 v=0
218206 On ch=1 n=c5 v=0
218206 On ch=1 n=a5 v=0
218208 Par ch=2 c=64 v=0
218208 Par ch=2 c=64 v=127
218208 On ch=2 n=a3 v=116
218208 On ch=2 n=f4 v=116
218270 On ch=2 n=a3 v=0
218270 On ch=2 n=f4 v=0
218272 On ch=2 n=a4 v=117
218304 On ch=1 n=f5 v=116
218334 On ch=2 n=a4 v=0
218336 On ch=2 n=f4 v=119
218398 On ch=1 n=f5 v=0
218398 On ch=2 n=f4 v=0
218400 On ch=1 n=a5 v=127
218400 On ch=1 n=c6 v=127
218400 On ch=1 n=f6 v=127
218400 On ch=2 n=a3 v=121
218494 On ch=1 n=a5 v=0
218494 On ch=1 n=f6 v=0
218496 On ch=1 n=f5 v=121
218560 On ch=2 n=a3 v=0
218590 On ch=1 n=f5 v=0
218590 On ch=1 n=c6 v=0
218592 On ch=2 n=d2 v=127
218592 On ch=2 n=a2 v=127
218654 On ch=2 n=d2 v=0
218654 On ch=2 n=a2 v=0
218656 On ch=2 n=d3 v=127
218688 On ch=1 n=a5 v=127
218718 On ch=2 n=d3 v=0
218720 On ch=2 n=a2 v=127
218782 On ch=1 n=a5 v=0
218782 On ch=2 n=a2 v=0
218784 On ch=1 n=d6 v=127
218784 On ch=1 n=f6 v=127
218784 On ch=1 n=a6 v=127
218784 On ch=2 n=d2 v=127
218846 On ch=1 n=d6 v=0
218846 On ch=1 n=f6 v=0
218846 On ch=1 n=a6 v=0
218912 On ch=1 n=e6 v=127
218912 On ch=1 n=g6 v=127
218944 On ch=2 n=d2 v=0
218974 On ch=1 n=e6 v=0
218974 On ch=1 n=g6 v=0
218976 Par ch=2 c=64 v=0
218976 Par ch=2 c=64 v=127
218976 On ch=1 n=a5 v=127
218976 On ch=1 n=f6 v=127
218976 On ch=1 n=a6 v=127
218976 On ch=2 n=c4 v=108
218976 On ch=2 n=a4 v=108
219038 On ch=2 n=c4 v=0
219038 On ch=2 n=a4 v=0
219040 On ch=2 n=c5 v=108
219102 On ch=2 n=c5 v=0
219104 On ch=2 n=a4 v=108
219136 On ch=1 n=a5 v=0
219136 On ch=1 n=f6 v=0
219136 On ch=1 n=a6 v=0
219166 On ch=2 n=a4 v=0
219168 On ch=1 n=f5 v=127
219168 On ch=1 n=g5 v=127
219168 On ch=1 n=c6 v=127
219168 On ch=2 n=c4 v=108
219262 On ch=1 n=f5 v=0
219262 On ch=1 n=c6 v=0
219264 On ch=1 n=c5 v=108
219328 On ch=2 n=c4 v=0
219358 On ch=1 n=c5 v=0
219358 On ch=1 n=g5 v=0
219360 On ch=2 n=f3 v=108
219360 On ch=2 n=c4 v=108
219422 On ch=2 n=f3 v=0
219422 On ch=2 n=c4 v=0
219424 On ch=2 n=f4 v=109
219456 On ch=1 n=c5 v=108
219486 On ch=2 n=f4 v=0
219488 On ch=2 n=c4 v=110
219550 On ch=1 n=c5 v=0
219550 On ch=2 n=c4 v=0
219552 On ch=1 n=f5 v=127
219552 On ch=1 n=a5 v=127
219552 On ch=1 n=c6 v=127
219552 On ch=2 n=f3 v=111
219646 On ch=1 n=f5 v=0
219646 On ch=1 n=c6 v=0
219648 On ch=1 n=c5 v=112
219712 On ch=2 n=f3 v=0
219742 On ch=1 n=c5 v=0
219742 On ch=1 n=a5 v=0
219744 Par ch=2 c=64 v=0
219744 Par ch=2 c=64 v=127
219744 On ch=2 n=a3 v=116
219744 On ch=2 n=f4 v=116
219806 On ch=2 n=a3 v=0
219806 On ch=2 n=f4 v=0
219808 On ch=2 n=a4 v=117
219840 On ch=1 n=f5 v=116
219870 On ch=2 n=a4 v=0
219872 On ch=2 n=f4 v=119
219934 On ch=1 n=f5 v=0
219934 On ch=2 n=f4 v=0
219936 On ch=1 n=a5 v=127
219936 On ch=1 n=c6 v=127
219936 On ch=1 n=f6 v=127
219936 On ch=2 n=a3 v=121
220030 On ch=1 n=a5 v=0
220030 On ch=1 n=f6 v=0
220032 On ch=1 n=f5 v=121
220096 On ch=2 n=a3 v=0
220126 On ch=1 n=f5 v=0
220126 On ch=1 n=c6 v=0
220128 On ch=2 n=d2 v=127
220128 On ch=2 n=a2 v=127
220190 On ch=2 n=d2 v=0
220190 On ch=2 n=a2 v=0
220192 On ch=2 n=d3 v=127
220224 On ch=1 n=a5 v=127
220254 On ch=2 n=d3 v=0
220256 On ch=2 n=a2 v=127
220318 On ch=1 n=a5 v=0
220318 On ch=2 n=a2 v=0
220320 On ch=1 n=d6 v=127
220320 On ch=1 n=f6 v=127
220320 On ch=1 n=a6 v=127
220320 On ch=2 n=d2 v=127
220382 On ch=1 n=d6 v=0
220382 On ch=1 n=f6 v=0
220382 On ch=1 n=a6 v=0
220448 On ch=1 n=e6 v=127
220448 On ch=1 n=g6 v=127
220480 On ch=2 n=d2 v=0
220510 On ch=1 n=e6 v=0
220510 On ch=1 n=g6 v=0
220512 Par ch=2 c=64 v=0
220512 Par ch=2 c=64 v=127
220512 On ch=1 n=f6 v=127
220512 On ch=1 n=a6 v=127
220512 On ch=2 n=a4 v=127
220512 On ch=2 n=f5 v=127
220574 On ch=2 n=a4 v=0
220574 On ch=2 n=f5 v=0
220576 On ch=2 n=a5 v=108
220638 On ch=2 n=a5 v=0
220640 On ch=1 n=d6 v=108
220640 On ch=2 n=f5 v=108
220672 On ch=1 n=f6 v=0
220672 On ch=1 n=a6 v=0
220702 On ch=2 n=f5 v=0
220704 On ch=1 n=a6 v=127
220704 On ch=2 n=a4 v=108
220766 On ch=1 n=d6 v=0
220766 On ch=1 n=a6 v=0
220768 On ch=1 n=d6 v=108
220830 On ch=1 n=d6 v=0
220832 On ch=1 n=a5 v=108
220864 On ch=2 n=a4 v=0
220894 On ch=1 n=a5 v=0
220896 On ch=2 n=a4 v=127
220896 On ch=2 n=f5 v=127
220958 On ch=2 n=a4 v=0
220958 On ch=2 n=f5 v=0
220960 On ch=2 n=a5 v=108
221022 On ch=2 n=a5 v=0
221024 On ch=1 n=d6 v=108
221024 On ch=2 n=f5 v=108
221086 On ch=2 n=f5 v=0
221088 On ch=1 n=a6 v=127
221088 On ch=2 n=a4 v=108
221150 On ch=1 n=d6 v=0
221150 On ch=1 n=a6 v=0
221152 On ch=1 n=d6 v=108
221214 On ch=1 n=d6 v=0
221216 On ch=1 n=a5 v=108
221248 On ch=2 n=a4 v=0
221278 On ch=1 n=a5 v=0
221280 Par ch=2 c=64 v=0
221280 Par ch=2 c=64 v=127
221280 On ch=2 n=a4 v=127
221280 On ch=2 n=e5 v=127
221342 On ch=2 n=a4 v=0
221342 On ch=2 n=e5 v=0
221344 On ch=2 n=a5 v=108
221406 On ch=2 n=a5 v=0
221408 On ch=1 n=c#6 v=108
221408 On ch=2 n=e5 v=108
221470 On ch=2 n=e5 v=0
221472 On ch=1 n=f6 v=108
221472 On ch=2 n=a4 v=108
221534 On ch=1 n=c#6 v=0
221534 On ch=1 n=f6 v=0
221536 On ch=1 n=c#6 v=108
221598 On ch=1 n=c#6 v=0
221600 On ch=1 n=f5 v=108
221632 On ch=2 n=a4 v=0
221662 On ch=1 n=f5 v=0
221664 On ch=2 n=a4 v=108
221664 On ch=2 n=d#5 v=108
221726 On ch=2 n=a4 v=0
221726 On ch=2 n=d#5 v=0
221728 On ch=2 n=a5 v=108
221790 On ch=2 n=a5 v=0
221792 On ch=1 n=c6 v=108
221792 On ch=2 n=d#5 v=108
221854 On ch=2 n=d#5 v=0
221856 On ch=1 n=a6 v=108
221856 On ch=2 n=a4 v=108
221918 On ch=1 n=c6 v=0
221918 On ch=1 n=a6 v=0
221920 On ch=1 n=c6 v=108
221982 On ch=1 n=c6 v=0
221984 On ch=1 n=a5 v=108
222016 On ch=2 n=a4 v=0
222046 On ch=1 n=a5 v=0
222048 Par ch=2 c=64 v=0
222048 Par ch=2 c=64 v=127
222048 On ch=2 n=a4 v=108
222048 On ch=2 n=d5 v=108
222110 On ch=2 n=a4 v=0
222110 On ch=2 n=d5 v=0
222112 On ch=2 n=f5 v=108
222174 On ch=2 n=f5 v=0
222176 On ch=1 n=b5 v=108
222176 On ch=2 n=d5 v=108
222238 On ch=2 n=d5 v=0
222240 On ch=1 n=f6 v=108
222240 On ch=2 n=a4 v=108
222302 On ch=1 n=b5 v=0
222302 On ch=1 n=f6 v=0
222304 On ch=1 n=b5 v=108
222366 On ch=1 n=b5 v=0
222368 On ch=1 n=f5 v=108
222400 On ch=2 n=a4 v=0
222430 On ch=1 n=f5 v=0
222432 On ch=2 n=a4 v=108
222432 On ch=2 n=c#5 v=108
222494 On ch=2 n=a4 v=0
222494 On ch=2 n=c#5 v=0
222496 On ch=2 n=f5 v=108
222558 On ch=2 n=f5 v=0
222560 On ch=1 n=a#5 v=108
222560 On ch=2 n=c#5 v=108
222622 On ch=2 n=c#5 v=0
222624 On ch=1 n=a6 v=108
222624 On ch=2 n=a4 v=108
222686 On ch=1 n=a#5 v=0
222686 On ch=1 n=a6 v=0
222688 On ch=1 n=a#5 v=108
222750 On ch=1 n=a#5 v=0
222752 On ch=1 n=a5 v=108
222784 On ch=2 n=a4 v=0
222814 On ch=1 n=a5 v=0
222816 Par ch=2 c=64 v=0
222816 Par ch=2 c=64 v=127
222816 On ch=2 n=a4 v=108
222816 On ch=2 n=c5 v=108
222878 On ch=2 n=a4 v=0
222878 On ch=2 n=c5 v=0
222880 On ch=2 n=f5 v=108
222942 On ch=2 n=f5 v=0
222944 On ch=1 n=a5 v=108
222944 On ch=2 n=c5 v=108
223006 On ch=2 n=c5 v=0
223008 On ch=1 n=d6 v=108
223008 On ch=2 n=a4 v=108
223070 On ch=1 n=a5 v=0
223070 On ch=1 n=d6 v=0
223072 On ch=1 n=a5 v=108
223134 On ch=1 n=a5 v=0
223136 On ch=1 n=d5 v=108
223168 On ch=2 n=a4 v=0
223198 On ch=1 n=d5 v=0
223200 On ch=2 n=e4 v=108
223200 On ch=2 n=b4 v=108
223262 On ch=2 n=e4 v=0
223262 On ch=2 n=b4 v=0
223264 On ch=2 n=e5 v=108
223326 On ch=2 n=e5 v=0
223328 On ch=1 n=g#5 v=108
223328 On ch=2 n=b4 v=108
223390 On ch=2 n=b4 v=0
223392 On ch=1 n=e6 v=108
223392 On ch=2 n=e4 v=108
223454 On ch=1 n=g#5 v=0
223454 On ch=1 n=e6 v=0
223456 On ch=1 n=g#5 v=108
223518 On ch=1 n=g#5 v=0
223520 On ch=1 n=d5 v=108
223552 On ch=2 n=e4 v=0
223582 On ch=1 n=d5 v=0
223584 Par ch=2 c=64 v=0
223584 Par ch=2 c=64 v=127
223584 On ch=2 n=a3 v=127
223584 On ch=2 n=e4 v=127
223646 On ch=2 n=a3 v=0
223646 On ch=2 n=e4 v=0
223648 On ch=2 n=a4 v=108
223680 On ch=1 n=g4 v=108
223710 On ch=2 n=a4 v=0
223712 On ch=2 n=e4 v=108
223774 On ch=1 n=g4 v=0
223774 On ch=2 n=e4 v=0
223776 On ch=1 n=c#5 v=127
223776 On ch=1 n=e5 v=127
223776 On ch=1 n=g5 v=127
223776 On ch=2 n=a3 v=108
223870 On ch=1 n=c#5 v=0
223870 On ch=1 n=e5 v=0
223870 On ch=1 n=g5 v=0
223872 On ch=1 n=g4 v=108
223936 On ch=2 n=a3 v=0
223966 On ch=1 n=g4 v=0
223968 On ch=2 n=e3 v=127
223968 On ch=2 n=a3 v=127
224030 On ch=2 n=e3 v=0
224030 On ch=2 n=a3 v=0
224032 On ch=2 n=e4 v=108
224064 On ch=1 n=a4 v=108
224094 On ch=2 n=e4 v=0
224096 On ch=2 n=a3 v=108
224158 On ch=1 n=a4 v=0
224158 On ch=2 n=a3 v=0
224160 On ch=1 n=c#5 v=127
224160 On ch=1 n=e5 v=127
224160 On ch=1 n=a5 v=127
224160 On ch=2 n=e3 v=108
224254 On ch=1 n=c#5 v=0
224254 On ch=1 n=e5 v=0
224254 On ch=1 n=a5 v=0
224256 On ch=1 n=a4 v=108
224320 On ch=2 n=e3 v=0
224350 On ch=1 n=a4 v=0
224352 Par ch=2 c=64 v=0
224352 Par ch=2 c=64 v=127
224352 On ch=2 n=e4 v=127
224352 On ch=2 n=a4 v=127
224414 On ch=2 n=e4 v=0
224414 On ch=2 n=a4 v=0
224416 On ch=2 n=e5 v=108
224478 On ch=2 n=e5 v=0
224480 On ch=2 n=a4 v=108
224542 On ch=2 n=a4 v=0
224544 On ch=1 n=a5 v=127
224544 On ch=1 n=b5 v=127
224544 On ch=1 n=e6 v=127
224544 On ch=2 n=e4 v=108
224638 On ch=1 n=a5 v=0
224638 On ch=1 n=b5 v=0
224638 On ch=1 n=e6 v=0
224640 On ch=1 n=e5 v=108
224704 On ch=2 n=e4 v=0
224734 On ch=1 n=e5 v=0
224736 On ch=2 n=a2 v=127
224736 On ch=2 n=e3 v=127
224798 On ch=2 n=a2 v=0
224798 On ch=2 n=e3 v=0
224800 On ch=2 n=a3 v=108
224832 On ch=1 n=c#6 v=108
224862 On ch=2 n=a3 v=0
224864 On ch=2 n=e3 v=108
224926 On ch=1 n=c#6 v=0
224926 On ch=2 n=e3 v=0
224928 On ch=1 n=e6 v=127
224928 On ch=1 n=c#7 v=127
224928 On ch=1 n=e7 v=127
224928 On ch=2 n=a2 v=108
224990 On ch=1 n=e6 v=0
224990 On ch=1 n=c#7 v=0
224990 On ch=1 n=e7 v=0
225056 On ch=1 n=b6 v=127
225056 On ch=1 n=d7 v=127
225088 On ch=2 n=a2 v=0
225118 On ch=1 n=b6 v=0
225118 On ch=1 n=d7 v=0
225120 Par ch=2 c=64 v=0
225120 Par ch=2 c=64 v=127
225120 On ch=1 n=e6 v=127
225120 On ch=1 n=c#7 v=127
225120 On ch=1 n=e7 v=127
225120 On ch=2 n=a3 v=127
225120 On ch=2 n=e4 v=127
225182 On ch=2 n=a3 v=0
225182 On ch=2 n=e4 v=0
225184 On ch=2 n=a4 v=108
225246 On ch=2 n=a4 v=0
225248 On ch=2 n=e4 v=108
225280 On ch=1 n=e6 v=0
225280 On ch=1 n=c#7 v=0
225280 On ch=1 n=e7 v=0
225310 On ch=2 n=e4 v=0
225312 On ch=1 n=c#5 v=127
225312 On ch=1 n=e5 v=127
225312 On ch=1 n=g5 v=127
225312 On ch=2 n=a3 v=108
225406 On ch=1 n=c#5 v=0
225406 On ch=1 n=e5 v=0
225406 On ch=1 n=g5 v=0
225408 On ch=1 n=g4 v=108
225472 On ch=2 n=a3 v=0
225502 On ch=1 n=g4 v=0
225504 On ch=2 n=e3 v=127
225504 On ch=2 n=a3 v=127
225566 On ch=2 n=e3 v=0
225566 On ch=2 n=a3 v=0
225568 On ch=2 n=e4 v=108
225600 On ch=1 n=a4 v=108
225630 On ch=2 n=e4 v=0
225632 On ch=2 n=a3 v=108
225694 On ch=1 n=a4 v=0
225694 On ch=2 n=a3 v=0
225696 On ch=1 n=c#5 v=127
225696 On ch=1 n=e5 v=127
225696 On ch=1 n=a5 v=127
225696 On ch=2 n=e3 v=108
225790 On ch=1 n=c#5 v=0
225790 On ch=1 n=e5 v=0
225790 On ch=1 n=a5 v=0
225792 On ch=1 n=a4 v=108
225856 On ch=2 n=e3 v=0
225886 On ch=1 n=a4 v=0
225888 Par ch=2 c=64 v=0
225888 Par ch=2 c=64 v=127
225888 On ch=2 n=e4 v=127
225888 On ch=2 n=a4 v=127
225950 On ch=2 n=e4 v=0
225950 On ch=2 n=a4 v=0
225952 On ch=2 n=e5 v=108
226014 On ch=2 n=e5 v=0
226016 On ch=2 n=a4 v=108
226078 On ch=2 n=a4 v=0
226080 On ch=1 n=a5 v=127
226080 On ch=1 n=b5 v=127
226080 On ch=1 n=e6 v=127
226080 On ch=2 n=e4 v=108
226174 On ch=1 n=a5 v=0
226174 On ch=1 n=b5 v=0
226174 On ch=1 n=e6 v=0
226176 On ch=1 n=e5 v=108
226240 On ch=2 n=e4 v=0
226270 On ch=1 n=e5 v=0
226272 On ch=2 n=a2 v=127
226272 On ch=2 n=e3 v=127
226334 On ch=2 n=a2 v=0
226334 On ch=2 n=e3 v=0
226336 On ch=2 n=a3 v=108
226368 On ch=1 n=c#6 v=108
226398 On ch=2 n=a3 v=0
226400 On ch=2 n=e3 v=108
226462 On ch=1 n=c#6 v=0
226462 On ch=2 n=e3 v=0
226464 On ch=1 n=e6 v=127
226464 On ch=1 n=c#7 v=127
226464 On ch=1 n=e7 v=127
226464 On ch=2 n=a2 v=108
226526 On ch=1 n=e6 v=0
226526 On ch=1 n=c#7 v=0
226526 On ch=1 n=e7 v=0
226592 On ch=1 n=b6 v=127
226592 On ch=1 n=d7 v=127
226624 On ch=2 n=a2 v=0
226654 On ch=1 n=b6 v=0
226654 On ch=1 n=d7 v=0
226656 Par ch=2 c=64 v=0
226656 Par ch=2 c=64 v=127
226656 On ch=1 n=e6 v=127
226656 On ch=1 n=c#7 v=127
226656 On ch=1 n=e7 v=127
226656 On ch=2 n=e5 v=108
226656 On ch=2 n=a5 v=108
226718 On ch=2 n=e5 v=0
226718 On ch=2 n=a5 v=0
226720 On ch=2 n=e6 v=108
226782 On ch=2 n=e6 v=0
226784 On ch=2 n=a5 v=108
226816 On ch=1 n=e6 v=0
226816 On ch=1 n=c#7 v=0
226816 On ch=1 n=e7 v=0
226846 On ch=2 n=a5 v=0
226848 On ch=1 n=a6 v=108
226848 On ch=1 n=b6 v=108
226848 On ch=1 n=e7 v=108
226848 On ch=2 n=e5 v=108
226942 On ch=1 n=a6 v=0
226942 On ch=1 n=b6 v=0
226942 On ch=1 n=e7 v=0
226944 On ch=1 n=e6 v=108
227008 On ch=2 n=e5 v=0
227038 On ch=1 n=e6 v=0
227040 On ch=2 n=a4 v=108
227040 On ch=2 n=e5 v=108
227102 On ch=2 n=a4 v=0
227102 On ch=2 n=e5 v=0
227104 On ch=2 n=a5 v=108
227136 On ch=1 n=a6 v=108
227166 On ch=2 n=a5 v=0
227168 On ch=2 n=e5 v=108
227230 On ch=1 n=a6 v=0
227230 On ch=2 n=e5 v=0
227232 On ch=1 n=c#7 v=108
227232 On ch=1 n=a7 v=108
227232 On ch=2 n=a4 v=108
227326 On ch=1 n=c#7 v=0
227326 On ch=1 n=a7 v=0
227328 On ch=1 n=e6 v=108
227392 On ch=2 n=a4 v=0
227422 On ch=1 n=e6 v=0
227424 Par ch=2 c=64 v=0
227424 Par ch=2 c=64 v=127
227424 On ch=2 n=e4 v=108
227424 On ch=2 n=a4 v=108
227486 On ch=2 n=e4 v=0
227486 On ch=2 n=a4 v=0
227488 On ch=2 n=e5 v=108
227550 On ch=2 n=e5 v=0
227552 On ch=2 n=a4 v=108
227614 On ch=2 n=a4 v=0
227616 On ch=1 n=a5 v=108
227616 On ch=1 n=b5 v=108
227616 On ch=1 n=e6 v=108
227616 On ch=2 n=e4 v=108
227710 On ch=1 n=a5 v=0
227710 On ch=1 n=b5 v=0
227710 On ch=1 n=e6 v=0
227712 On ch=1 n=e5 v=108
227776 On ch=2 n=e4 v=0
227806 On ch=1 n=e5 v=0
227808 On ch=2 n=a3 v=108
227808 On ch=2 n=e4 v=108
227870 On ch=2 n=a3 v=0
227870 On ch=2 n=e4 v=0
227872 On ch=2 n=a4 v=108
227904 On ch=1 n=a5 v=108
227934 On ch=2 n=a4 v=0
227936 On ch=2 n=e4 v=108
227998 On ch=1 n=a5 v=0
227998 On ch=2 n=e4 v=0
228000 On ch=1 n=c#6 v=108
228000 On ch=1 n=a6 v=108
228000 On ch=2 n=a3 v=108
228094 On ch=1 n=c#6 v=0
228094 On ch=1 n=a6 v=0
228096 On ch=1 n=e5 v=108
228160 On ch=2 n=a3 v=0
228190 On ch=1 n=e5 v=0
228192 Par ch=2 c=64 v=0
228192 Par ch=2 c=64 v=127
228192 On ch=2 n=a4 v=108
228192 On ch=2 n=a4 v=108
228254 On ch=2 n=a4 v=0
228256 On ch=2 n=e5 v=108
228318 On ch=2 n=e5 v=0
228320 On ch=1 n=a5 v=108
228320 On ch=2 n=a4 v=108
228382 On ch=2 n=a4 v=0
228384 On ch=1 n=e6 v=108
228384 On ch=2 n=e4 v=108
228446 On ch=1 n=a5 v=0
228446 On ch=1 n=e6 v=0
228448 On ch=1 n=a5 v=108
228510 On ch=1 n=a5 v=0
228512 On ch=1 n=c#5 v=108
228528 On ch=2 n=a4 v=0
228544 On ch=2 n=e4 v=0
228574 On ch=1 n=c#5 v=0
228576 On ch=2 n=g4 v=108
228576 On ch=2 n=g4 v=108
228638 On ch=2 n=g4 v=0
228640 On ch=2 n=e5 v=108
228702 On ch=2 n=e5 v=0
228704 On ch=1 n=a#5 v=108
228704 On ch=2 n=e4 v=108
228766 On ch=2 n=e4 v=0
228768 On ch=1 n=e6 v=108
228768 On ch=2 n=a3 v=108
228830 On ch=1 n=a#5 v=0
228830 On ch=1 n=e6 v=0
228832 On ch=1 n=a#5 v=108
228894 On ch=1 n=a#5 v=0
228896 On ch=1 n=c#5 v=108
228912 On ch=2 n=g4 v=0
228928 On ch=2 n=a3 v=0
228958 On ch=1 n=c#5 v=0
228960 Par ch=2 c=64 v=0
228960 Par ch=2 c=64 v=127
228960 On ch=2 n=a4 v=108
228960 On ch=2 n=a4 v=108
229022 On ch=2 n=a4 v=0
229024 On ch=2 n=e5 v=108
229086 On ch=2 n=e5 v=0
229088 On ch=1 n=a5 v=108
229088 On ch=2 n=a4 v=108
229150 On ch=2 n=a4 v=0
229152 On ch=1 n=e6 v=108
229152 On ch=2 n=e4 v=108
229214 On ch=1 n=a5 v=0
229214 On ch=1 n=e6 v=0
229216 On ch=1 n=a5 v=108
229278 On ch=1 n=a5 v=0
229280 On ch=1 n=c#5 v=108
229296 On ch=2 n=a4 v=0
229312 On ch=2 n=e4 v=0
229342 On ch=1 n=c#5 v=0
229344 On ch=2 n=g4 v=108
229344 On ch=2 n=g4 v=108
229406 On ch=2 n=g4 v=0
229408 On ch=2 n=e5 v=108
229470 On ch=2 n=e5 v=0
229472 On ch=1 n=a#5 v=108
229472 On ch=2 n=e4 v=108
229534 On ch=2 n=e4 v=0
229536 On ch=1 n=e6 v=108
229536 On ch=2 n=a3 v=108
229598 On ch=1 n=a#5 v=0
229598 On ch=1 n=e6 v=0
229600 On ch=1 n=a#5 v=108
229662 On ch=1 n=a#5 v=0
229664 On ch=1 n=c#5 v=108
229680 On ch=2 n=g4 v=0
229696 On ch=2 n=a3 v=0
229726 On ch=1 n=c#5 v=0
229728 Par ch=2 c=64 v=0
229728 Par ch=2 c=64 v=127
229728 On ch=2 n=a4 v=108
229728 On ch=2 n=a4 v=108
229790 On ch=2 n=a4 v=0
229792 On ch=2 n=f#5 v=108
229854 On ch=2 n=f#5 v=0
229856 On ch=1 n=a5 v=108
229856 On ch=1 n=a5 v=108
229856 On ch=2 n=c5 v=108
229918 On ch=1 n=a5 v=0
229918 On ch=2 n=c5 v=0
229920 On ch=1 n=d6 v=108
229920 On ch=2 n=d4 v=108
229982 On ch=1 n=d6 v=0
229984 On ch=1 n=f#5 v=108
230046 On ch=1 n=f#5 v=0
230048 On ch=1 n=d5 v=108
230064 On ch=2 n=a4 v=0
230080 On ch=1 n=a5 v=0
230080 On ch=2 n=d4 v=0
230110 On ch=1 n=d5 v=0
230112 On ch=2 n=g4 v=108
230112 On ch=2 n=g4 v=108
230174 On ch=2 n=g4 v=0
230176 On ch=2 n=g5 v=108
230238 On ch=2 n=g5 v=0
230240 On ch=1 n=d#6 v=108
230240 On ch=1 n=d#6 v=108
230240 On ch=2 n=c5 v=108
230302 On ch=1 n=d#6 v=0
230302 On ch=2 n=c5 v=0
230304 On ch=1 n=a6 v=108
230304 On ch=2 n=d4 v=108
230366 On ch=1 n=a6 v=0
230368 On ch=1 n=c6 v=108
230430 On ch=1 n=c6 v=0
230432 On ch=1 n=a5 v=108
230448 On ch=2 n=g4 v=0
230464 On ch=1 n=d#6 v=0
230464 On ch=2 n=d4 v=0
230494 On ch=1 n=a5 v=0
230496 Par ch=2 c=64 v=0
230496 Par ch=2 c=64 v=127
230496 On ch=2 n=a4 v=108
230496 On ch=2 n=a4 v=108
230558 On ch=2 n=a4 v=0
230560 On ch=2 n=f#5 v=108
230622 On ch=2 n=f#5 v=0
230624 On ch=1 n=a5 v=108
230624 On ch=1 n=a5 v=108
230624 On ch=2 n=c5 v=108
230686 On ch=1 n=a5 v=0
230686 On ch=2 n=c5 v=0
230688 On ch=1 n=d6 v=108
230688 On ch=2 n=d4 v=108
230750 On ch=1 n=d6 v=0
230752 On ch=1 n=f#5 v=108
230814 On ch=1 n=f#5 v=0
230816 On ch=1 n=d5 v=108
230832 On ch=2 n=a4 v=0
230848 On ch=1 n=a5 v=0
230848 On ch=2 n=d4 v=0
230878 On ch=1 n=d5 v=0
230880 On ch=2 n=g4 v=108
230880 On ch=2 n=g4 v=108
230942 On ch=2 n=g4 v=0
230944 On ch=2 n=g5 v=108
231006 On ch=2 n=g5 v=0
231008 On ch=1 n=d#6 v=108
231008 On ch=1 n=d#6 v=108
231008 On ch=2 n=c5 v=108
231070 On ch=1 n=d#6 v=0
231070 On ch=2 n=c5 v=0
231072 On ch=1 n=a6 v=108
231072 On ch=2 n=d4 v=108
231134 On ch=1 n=a6 v=0
231136 On ch=1 n=c6 v=108
231198 On ch=1 n=c6 v=0
231200 On ch=1 n=a5 v=108
231216 On ch=2 n=g4 v=0
231232 On ch=1 n=d#6 v=0
231232 On ch=2 n=d4 v=0
231262 On ch=1 n=a5 v=0
231264 Par ch=2 c=64 v=0
231264 Par ch=2 c=64 v=127
231264 On ch=2 n=d4 v=108
231264 On ch=2 n=a4 v=108
231326 On ch=2 n=d4 v=0
231326 On ch=2 n=a4 v=0
231328 On ch=2 n=d5 v=108
231360 On ch=1 n=c5 v=108
231390 On ch=2 n=d5 v=0
231392 On ch=2 n=a4 v=108
231454 On ch=1 n=c5 v=0
231454 On ch=2 n=a4 v=0
231456 On ch=1 n=f#5 v=108
231456 On ch=1 n=a5 v=108
231456 On ch=1 n=c6 v=108
231456 On ch=2 n=d4 v=108
231550 On ch=1 n=f#5 v=0
231550 On ch=1 n=a5 v=0
231550 On ch=1 n=c6 v=0
231552 On ch=1 n=c5 v=108
231616 On ch=2 n=d4 v=0
231646 On ch=1 n=c5 v=0
231648 On ch=2 n=a3 v=108
231648 On ch=2 n=d4 v=108
231710 On ch=2 n=a3 v=0
231710 On ch=2 n=d4 v=0
231712 On ch=2 n=a4 v=108
231744 On ch=1 n=d5 v=108
231774 On ch=2 n=a4 v=0
231776 On ch=2 n=d4 v=108
231838 On ch=1 n=d5 v=0
231838 On ch=2 n=d4 v=0
231840 On ch=1 n=f#5 v=108
231840 On ch=1 n=a5 v=108
231840 On ch=1 n=d6 v=108
231840 On ch=2 n=a3 v=108
231934 On ch=1 n=f#5 v=0
231934 On ch=1 n=a5 v=0
231934 On ch=1 n=d6 v=0
231936 On ch=1 n=d5 v=108
232000 On ch=2 n=a3 v=0
232030 On ch=1 n=d5 v=0
232032 Par ch=2 c=64 v=0
232032 Par ch=2 c=64 v=127
232032 On ch=2 n=c4 v=108
232032 On ch=2 n=a#4 v=108
232094 On ch=2 n=c4 v=0
232094 On ch=2 n=a#4 v=0
232096 On ch=2 n=c5 v=108
232128 On ch=1 n=c5 v=108
232158 On ch=2 n=c5 v=0
232160 On ch=2 n=a#4 v=108
232222 On ch=1 n=c5 v=0
232222 On ch=2 n=a#4 v=0
232224 On ch=1 n=f5 v=108
232224 On ch=1 n=g#5 v=108
232224 On ch=1 n=c6 v=108
232224 On ch=2 n=c4 v=108
232318 On ch=1 n=f5 v=0
232318 On ch=1 n=g#5 v=0
232318 On ch=1 n=c6 v=0
232320 On ch=1 n=c5 v=108
232384 On ch=2 n=c4 v=0
232414 On ch=1 n=c5 v=0
232416 On ch=2 n=a#3 v=108
232416 On ch=2 n=d4 v=108
232478 On ch=2 n=a#3 v=0
232478 On ch=2 n=d4 v=0
232480 On ch=2 n=a#4 v=108
232512 On ch=1 n=d5 v=108
232542 On ch=2 n=a#4 v=0
232544 On ch=2 n=d4 v=108
232606 On ch=1 n=d5 v=0
232606 On ch=2 n=d4 v=0
232608 On ch=1 n=f5 v=108
232608 On ch=1 n=g#5 v=108
232608 On ch=1 n=d6 v=108
232608 On ch=2 n=a#3 v=108
232702 On ch=1 n=f5 v=0
232702 On ch=1 n=g#5 v=0
232702 On ch=1 n=d6 v=0
232704 On ch=1 n=d5 v=108
232768 On ch=2 n=a#3 v=0
232798 On ch=1 n=d5 v=0
232800 Par ch=2 c=64 v=0
232800 Par ch=2 c=64 v=127
232800 On ch=2 n=g4 v=108
232800 On ch=2 n=a#3 v=108
232862 On ch=2 n=g4 v=0
232862 On ch=2 n=a#3 v=0
232864 On ch=2 n=a#4 v=108
232896 On ch=1 n=c5 v=108
232926 On ch=2 n=a#4 v=0
232928 On ch=2 n=g4 v=108
232990 On ch=1 n=c5 v=0
232990 On ch=2 n=g4 v=0
232992 On ch=1 n=c6 v=108
232992 On ch=1 n=g5 v=108
232992 On ch=1 n=d#5 v=108
232992 On ch=2 n=a#3 v=108
233086 On ch=1 n=c6 v=0
233086 On ch=1 n=g5 v=0
233086 On ch=1 n=d#5 v=0
233088 On ch=1 n=c5 v=108
233152 On ch=2 n=a#3 v=0
233182 On ch=1 n=c5 v=0
233184 On ch=2 n=a3 v=108
233184 On ch=2 n=d4 v=108
233246 On ch=2 n=a3 v=0
233246 On ch=2 n=d4 v=0
233248 On ch=2 n=a4 v=108
233280 On ch=1 n=d5 v=108
233310 On ch=2 n=a4 v=0
233312 On ch=2 n=d4 v=108
233374 On ch=1 n=d5 v=0
233374 On ch=2 n=d4 v=0
233376 On ch=1 n=d#5 v=108
233376 On ch=1 n=g5 v=108
233376 On ch=1 n=d6 v=108
233376 On ch=2 n=a3 v=108
233470 On ch=1 n=d#5 v=0
233470 On ch=1 n=g5 v=0
233470 On ch=1 n=d6 v=0
233472 On ch=1 n=d5 v=108
233536 On ch=2 n=a3 v=0
233566 On ch=1 n=d5 v=0
233568 Par ch=2 c=64 v=0
233568 Par ch=2 c=64 v=127
233568 On ch=2 n=a3 v=108
233568 On ch=2 n=f#4 v=108
233630 On ch=2 n=a3 v=0
233630 On ch=2 n=f#4 v=0
233632 On ch=2 n=a4 v=108
233664 On ch=1 n=c5 v=108
233694 On ch=2 n=a4 v=0
233696 On ch=2 n=f#4 v=108
233758 On ch=1 n=c5 v=0
233758 On ch=2 n=f#4 v=0
233760 On ch=1 n=d5 v=108
233760 On ch=1 n=f#5 v=108
233760 On ch=1 n=c6 v=108
233760 On ch=2 n=a3 v=108
233854 On ch=1 n=d5 v=0
233854 On ch=1 n=f#5 v=0
233854 On ch=1 n=c6 v=0
233856 On ch=1 n=c5 v=108
233920 On ch=2 n=a3 v=0
233950 On ch=1 n=c5 v=0
233952 On ch=2 n=d3 v=108
233952 On ch=2 n=a3 v=108
234014 On ch=2 n=d3 v=0
234014 On ch=2 n=a3 v=0
234016 On ch=2 n=f#4 v=108
234048 On ch=1 n=d6 v=108
234078 On ch=2 n=f#4 v=0
234080 On ch=2 n=f#4 v=108
234144 On ch=1 n=a#6 v=127
234144 On ch=1 n=d7 v=127
234144 On ch=2 n=c5 v=108
234144 On ch=2 n=d5 v=108
234206 On ch=1 n=d6 v=0
234206 On ch=1 n=a#6 v=0
234206 On ch=1 n=d7 v=0
234272 On ch=1 n=c6 v=127
234272 On ch=1 n=a6 v=127
234272 On ch=1 n=c7 v=127
234304 On ch=2 n=f#4 v=0
234304 On ch=2 n=c5 v=0
234304 On ch=2 n=d5 v=0
234334 On ch=1 n=c6 v=0
234334 On ch=1 n=a6 v=0
234334 On ch=1 n=c7 v=0
234336 Par ch=2 c=64 v=0
234336 Par ch=2 c=64 v=127
234336 On ch=1 n=d6 v=127
234336 On ch=1 n=a#6 v=127
234336 On ch=1 n=d7 v=127
234336 On ch=2 n=g3 v=108
234336 On ch=2 n=d4 v=108
234398 On ch=2 n=g3 v=0
234398 On ch=2 n=d4 v=0
234400 On ch=2 n=g4 v=108
234462 On ch=2 n=g4 v=0
234464 On ch=2 n=d4 v=108
234496 On ch=1 n=d6 v=0
234496 On ch=1 n=a#6 v=0
234496 On ch=1 n=d7 v=0
234526 On ch=2 n=d4 v=0
234528 On ch=1 n=d5 v=108
234528 On ch=1 n=f5 v=108
234528 On ch=1 n=a#5 v=108
234528 On ch=2 n=g3 v=108
234622 On ch=1 n=d5 v=0
234622 On ch=1 n=f5 v=0
234622 On ch=1 n=a#5 v=0
234624 On ch=1 n=a#4 v=108
234688 On ch=2 n=g3 v=0
234718 On ch=1 n=a#4 v=0
234720 On ch=2 n=d3 v=108
234720 On ch=2 n=g3 v=108
234782 On ch=2 n=d3 v=0
234782 On ch=2 n=g3 v=0
234784 On ch=2 n=d4 v=108
234816 On ch=1 n=d5 v=108
234846 On ch=2 n=d4 v=0
234848 On ch=2 n=g3 v=108
234910 On ch=1 n=d5 v=0
234910 On ch=2 n=g3 v=0
234912 On ch=1 n=g5 v=127
234912 On ch=1 n=a#5 v=127
234912 On ch=1 n=d6 v=127
234912 On ch=2 n=d3 v=108
234974 On ch=1 n=g5 v=0
234974 On ch=1 n=a#5 v=0
234974 On ch=1 n=d6 v=0
235040 On ch=1 n=a5 v=127
235040 On ch=1 n=c6 v=127
235072 On ch=2 n=d3 v=0
235102 On ch=1 n=a5 v=0
235102 On ch=1 n=c6 v=0
235104 Par ch=2 c=64 v=0
235104 Par ch=2 c=64 v=127
235104 On ch=1 n=a#5 v=127
235104 On ch=1 n=d6 v=127
235104 On ch=2 n=d4 v=108
235104 On ch=2 n=g4 v=108
235166 On ch=2 n=d4 v=0
235166 On ch=2 n=g4 v=0
235168 On ch=2 n=d5 v=108
235230 On ch=2 n=d5 v=0
235232 On ch=2 n=g4 v=108
235264 On ch=1 n=a#5 v=0
235264 On ch=1 n=d6 v=0
235294 On ch=2 n=g4 v=0
235296 On ch=1 n=a5 v=108
235296 On ch=1 n=a#5 v=108
235296 On ch=1 n=d6 v=108
235296 On ch=2 n=d4 v=108
235390 On ch=1 n=a5 v=0
235390 On ch=1 n=a#5 v=0
235390 On ch=1 n=d6 v=0
235392 On ch=1 n=d5 v=108
235456 On ch=2 n=d4 v=0
235486 On ch=1 n=d5 v=0
235488 On ch=2 n=g2 v=108
235488 On ch=2 n=d3 v=108
235550 On ch=2 n=g2 v=0
235550 On ch=2 n=d3 v=0
235552 On ch=2 n=g3 v=108
235584 On ch=1 n=a#5 v=108
235614 On ch=2 n=g3 v=0
235616 On ch=2 n=d3 v=108
235678 On ch=1 n=a#5 v=0
235678 On ch=2 n=d3 v=0
235680 On ch=1 n=d6 v=127
235680 On ch=1 n=a#6 v=127
235680 On ch=1 n=d7 v=127
235680 On ch=2 n=g2 v=108
235742 On ch=1 n=d6 v=0
235742 On ch=1 n=a#6 v=0
235742 On ch=1 n=d7 v=0
235808 On ch=1 n=a6 v=127
235808 On ch=1 n=c7 v=127
235840 On ch=2 n=g2 v=0
235870 On ch=1 n=a6 v=0
235870 On ch=1 n=c7 v=0
235872 Par ch=2 c=64 v=0
235872 Par ch=2 c=64 v=127
235872 On ch=1 n=d6 v=127
235872 On ch=1 n=a#6 v=127
235872 On ch=1 n=d7 v=127
235872 On ch=2 n=g3 v=108
235872 On ch=2 n=d4 v=108
235934 On ch=2 n=g3 v=0
235934 On ch=2 n=d4 v=0
235936 On ch=2 n=g4 v=108
235998 On ch=2 n=g4 v=0
236000 On ch=2 n=d4 v=108
236032 On ch=1 n=d6 v=0
236032 On ch=1 n=a#6 v=0
236032 On ch=1 n=d7 v=0
236062 On ch=2 n=d4 v=0
236064 On ch=1 n=d5 v=108
236064 On ch=1 n=f5 v=108
236064 On ch=1 n=a#5 v=108
236064 On ch=2 n=g3 v=108
236158 On ch=1 n=d5 v=0
236158 On ch=1 n=f5 v=0
236158 On ch=1 n=a#5 v=0
236160 On ch=1 n=a#4 v=108
236224 On ch=2 n=g3 v=0
236254 On ch=1 n=a#4 v=0
236256 On ch=2 n=d3 v=108
236256 On ch=2 n=g3 v=108
236318 On ch=2 n=d3 v=0
236318 On ch=2 n=g3 v=0
236320 On ch=2 n=d4 v=108
236352 On ch=1 n=d5 v=108
236382 On ch=2 n=d4 v=0
236384 On ch=2 n=g3 v=108
236446 On ch=1 n=d5 v=0
236446 On ch=2 n=g3 v=0
236448 On ch=1 n=g5 v=127
236448 On ch=1 n=a#5 v=127
236448 On ch=1 n=d6 v=127
236448 On ch=2 n=d3 v=108
236510 On ch=1 n=g5 v=0
236510 On ch=1 n=a#5 v=0
236510 On ch=1 n=d6 v=0
236576 On ch=1 n=a5 v=127
236576 On ch=1 n=c6 v=127
236608 On ch=2 n=d3 v=0
236638 On ch=1 n=a5 v=0
236638 On ch=1 n=c6 v=0
236640 Par ch=2 c=64 v=0
236640 Par ch=2 c=64 v=127
236640 On ch=1 n=a#5 v=127
236640 On ch=1 n=d6 v=127
236640 On ch=2 n=d4 v=108
236640 On ch=2 n=g4 v=108
236702 On ch=2 n=d4 v=0
236702 On ch=2 n=g4 v=0
236704 On ch=2 n=d5 v=108
236766 On ch=2 n=d5 v=0
236768 On ch=2 n=g4 v=108
236800 On ch=1 n=a#5 v=0
236800 On ch=1 n=d6 v=0
236830 On ch=2 n=g4 v=0
236832 On ch=1 n=a5 v=108
236832 On ch=1 n=a#5 v=108
236832 On ch=1 n=d6 v=108
236832 On ch=2 n=d4 v=108
236926 On ch=1 n=a5 v=0
236926 On ch=1 n=a#5 v=0
236926 On ch=1 n=d6 v=0
236928 On ch=1 n=d5 v=108
236992 On ch=2 n=d4 v=0
237022 On ch=1 n=d5 v=0
237024 On ch=2 n=g2 v=108
237024 On ch=2 n=d3 v=108
237086 On ch=2 n=g2 v=0
237086 On ch=2 n=d3 v=0
237088 On ch=2 n=g3 v=108
237120 On ch=1 n=a#5 v=108
237150 On ch=2 n=g3 v=0
237152 On ch=2 n=d3 v=108
237214 On ch=1 n=a#5 v=0
237214 On ch=2 n=d3 v=0
237216 On ch=1 n=d6 v=127
237216 On ch=1 n=a#6 v=127
237216 On ch=1 n=d7 v=127
237216 On ch=2 n=g2 v=108
237278 On ch=1 n=d6 v=0
237278 On ch=1 n=a#6 v=0
237278 On ch=1 n=d7 v=0
237344 On ch=1 n=a6 v=127
237344 On ch=1 n=c7 v=127
237376 On ch=2 n=g2 v=0
237406 On ch=1 n=a6 v=0
237406 On ch=1 n=c7 v=0
237408 Par ch=2 c=64 v=0
237408 Par ch=2 c=64 v=127
237408 On ch=1 n=d6 v=127
237408 On ch=1 n=a#6 v=127
237408 On ch=1 n=d7 v=127
237408 On ch=2 n=f4 v=108
237408 On ch=2 n=d5 v=108
237470 On ch=2 n=f4 v=0
237470 On ch=2 n=d5 v=0
237472 On ch=2 n=f5 v=108
237534 On ch=2 n=f5 v=0
237536 On ch=2 n=d5 v=108
237568 On ch=1 n=d6 v=0
237568 On ch=1 n=a#6 v=0
237568 On ch=1 n=d7 v=0
237598 On ch=2 n=d5 v=0
237600 On ch=1 n=a#5 v=108
237600 On ch=1 n=c6 v=108
237600 On ch=1 n=f6 v=108
237600 On ch=2 n=f4 v=108
237694 On ch=1 n=a#5 v=0
237694 On ch=1 n=c6 v=0
237694 On ch=1 n=f6 v=0
237696 On ch=1 n=f5 v=108
237760 On ch=2 n=f4 v=0
237790 On ch=1 n=f5 v=0
237792 On ch=2 n=a#3 v=108
237792 On ch=2 n=f4 v=108
237854 On ch=2 n=a#3 v=0
237854 On ch=2 n=f4 v=0
237856 On ch=2 n=a#4 v=108
237888 On ch=1 n=g5 v=108
237918 On ch=2 n=a#4 v=0
237920 On ch=2 n=f4 v=108
237982 On ch=1 n=g5 v=0
237982 On ch=2 n=f4 v=0
237984 On ch=1 n=a#5 v=108
237984 On ch=1 n=d6 v=108
237984 On ch=1 n=g6 v=108
237984 On ch=2 n=a#3 v=108
238078 On ch=1 n=a#5 v=0
238078 On ch=1 n=d6 v=0
238078 On ch=1 n=g6 v=0
238080 On ch=1 n=g5 v=108
238144 On ch=2 n=a#3 v=0
238174 On ch=1 n=g5 v=0
238176 Par ch=2 c=64 v=0
238176 Par ch=2 c=64 v=127
238176 On ch=2 n=d4 v=108
238176 On ch=2 n=a#4 v=108
238238 On ch=2 n=d4 v=0
238238 On ch=2 n=a#4 v=0
238240 On ch=2 n=d5 v=108
238272 On ch=1 n=a#5 v=108
238302 On ch=2 n=d5 v=0
238304 On ch=2 n=a#4 v=108
238366 On ch=1 n=a#5 v=0
238366 On ch=2 n=a#4 v=0
238368 On ch=1 n=d6 v=108
238368 On ch=1 n=f6 v=108
238368 On ch=1 n=a#6 v=108
238368 On ch=2 n=d4 v=108
238462 On ch=1 n=d6 v=0
238462 On ch=1 n=f6 v=0
238462 On ch=1 n=a#6 v=0
238464 On ch=1 n=a#5 v=108
238528 On ch=2 n=d4 v=0
238558 On ch=1 n=a#5 v=0
238560 On ch=2 n=g2 v=108
238560 On ch=2 n=d3 v=108
238622 On ch=2 n=g2 v=0
238622 On ch=2 n=d3 v=0
238624 On ch=2 n=g3 v=108
238656 On ch=1 n=d6 v=108
238686 On ch=2 n=g3 v=0
238688 On ch=2 n=d3 v=108
238750 On ch=1 n=d6 v=0
238750 On ch=2 n=d3 v=0
238752 On ch=1 n=f6 v=127
238752 On ch=1 n=d7 v=127
238752 On ch=1 n=f7 v=127
238752 On ch=2 n=g2 v=108
238814 On ch=1 n=f6 v=0
238814 On ch=1 n=d7 v=0
238814 On ch=1 n=f7 v=0
238880 On ch=1 n=c7 v=127
238880 On ch=1 n=d#7 v=127
238912 On ch=2 n=g2 v=0
238942 On ch=1 n=c7 v=0
238942 On ch=1 n=d#7 v=0
238944 Par ch=2 c=64 v=0
238944 Par ch=2 c=64 v=127
238944 On ch=1 n=f6 v=127
238944 On ch=1 n=d7 v=127
238944 On ch=1 n=f7 v=127
238944 On ch=2 n=f4 v=108
238944 On ch=2 n=d5 v=108
239006 On ch=2 n=f4 v=0
239006 On ch=2 n=d5 v=0
239008 On ch=2 n=f5 v=108
239070 On ch=2 n=f5 v=0
239072 On ch=2 n=d5 v=108
239104 On ch=1 n=f6 v=0
239104 On ch=1 n=d7 v=0
239104 On ch=1 n=f7 v=0
239134 On ch=2 n=d5 v=0
239136 On ch=1 n=a#5 v=108
239136 On ch=1 n=d6 v=108
239136 On ch=1 n=g6 v=108
239136 On ch=2 n=f4 v=108
239230 On ch=1 n=a#5 v=0
239230 On ch=1 n=d6 v=0
239230 On ch=1 n=g6 v=0
239232 On ch=1 n=g5 v=108
239296 On ch=2 n=f4 v=0
239326 On ch=1 n=g5 v=0
239328 On ch=2 n=a#3 v=108
239328 On ch=2 n=f4 v=108
239390 On ch=2 n=a#3 v=0
239390 On ch=2 n=f4 v=0
239392 On ch=2 n=a#4 v=108
239424 On ch=1 n=a#5 v=108
239454 On ch=2 n=a#4 v=0
239456 On ch=2 n=f4 v=108
239518 On ch=1 n=a#5 v=0
239518 On ch=2 n=f4 v=0
239520 On ch=1 n=d6 v=108
239520 On ch=1 n=f6 v=108
239520 On ch=1 n=a#6 v=108
239520 On ch=2 n=a#3 v=108
239614 On ch=1 n=d6 v=0
239614 On ch=1 n=f6 v=0
239614 On ch=1 n=a#6 v=0
239616 On ch=1 n=a#5 v=108
239680 On ch=2 n=a#3 v=0
239710 On ch=1 n=a#5 v=0
239712 Par ch=2 c=64 v=0
239712 Par ch=2 c=64 v=127
239712 On ch=2 n=d4 v=108
239712 On ch=2 n=a#4 v=108
239774 On ch=2 n=d4 v=0
239774 On ch=2 n=a#4 v=0
239776 On ch=2 n=d5 v=108
239808 On ch=1 n=d6 v=108
239838 On ch=2 n=d5 v=0
239840 On ch=2 n=a#4 v=108
239902 On ch=1 n=d6 v=0
239902 On ch=2 n=a#4 v=0
239904 On ch=1 n=g6 v=108
239904 On ch=1 n=a#6 v=108
239904 On ch=1 n=d7 v=108
239904 On ch=2 n=d4 v=108
239998 On ch=1 n=g6 v=0
239998 On ch=1 n=a#6 v=0
239998 On ch=1 n=d7 v=0
240000 On ch=1 n=d6 v=108
240064 On ch=2 n=d4 v=0
240094 On ch=1 n=d6 v=0
240096 On ch=2 n=a#2 v=108
240096 On ch=2 n=f3 v=108
240158 On ch=2 n=a#2 v=0
240158 On ch=2 n=f3 v=0
240160 On ch=2 n=d4 v=108
240192 On ch=1 n=a#6 v=108
240222 On ch=2 n=d4 v=0
240224 On ch=2 n=f3 v=108
240286 On ch=1 n=a#6 v=0
240286 On ch=2 n=f3 v=0
240288 On ch=1 n=d7 v=127
240288 On ch=1 n=g7 v=127
240288 On ch=1 n=a#7 v=127
240288 On ch=2 n=a#2 v=108
240350 On ch=1 n=d7 v=0
240350 On ch=1 n=g7 v=0
240350 On ch=1 n=a#7 v=0
240416 On ch=1 n=f7 v=127
240416 On ch=1 n=g#7 v=127
240448 On ch=2 n=a#2 v=0
240478 On ch=1 n=f7 v=0
240478 On ch=1 n=g#7 v=0
240480 Par ch=2 c=64 v=0
240480 Par ch=2 c=64 v=127
240480 On ch=1 n=a#6 v=127
240480 On ch=1 n=g7 v=127
240480 On ch=1 n=a#7 v=127
240480 On ch=2 n=d#3 v=108
240480 On ch=2 n=a#3 v=108
240542 On ch=2 n=d#3 v=0
240542 On ch=2 n=a#3 v=0
240544 On ch=2 n=d#4 v=108
240606 On ch=2 n=d#4 v=0
240608 On ch=2 n=a#3 v=108
240640 On ch=1 n=a#6 v=0
240640 On ch=1 n=g7 v=0
240640 On ch=1 n=a#7 v=0
240670 On ch=2 n=a#3 v=0
240672 On ch=1 n=a#4 v=108
240672 On ch=1 n=d5 v=108
240672 On ch=2 n=d#3 v=108
240766 On ch=1 n=a#4 v=0
240766 On ch=1 n=d5 v=0
240768 On ch=1 n=g4 v=108
240832 On ch=2 n=d#3 v=0
240862 On ch=1 n=g4 v=0
240864 On ch=2 n=a#2 v=108
240864 On ch=2 n=d#3 v=108
240926 On ch=2 n=a#2 v=0
240926 On ch=2 n=d#3 v=0
240928 On ch=2 n=a#3 v=108
240960 On ch=1 n=a#4 v=108
240990 On ch=2 n=a#3 v=0
240992 On ch=2 n=d#3 v=108
241054 On ch=1 n=a#4 v=0
241054 On ch=2 n=d#3 v=0
241056 On ch=1 n=d#5 v=127
241056 On ch=1 n=g5 v=127
241056 On ch=1 n=a#5 v=127
241056 On ch=2 n=a#2 v=108
241118 On ch=1 n=d#5 v=0
241118 On ch=1 n=g5 v=0
241118 On ch=1 n=a#5 v=0
241184 On ch=1 n=f5 v=127
241184 On ch=1 n=g#5 v=127
241216 On ch=2 n=a#2 v=0
241246 On ch=1 n=f5 v=0
241246 On ch=1 n=g#5 v=0
241248 Par ch=2 c=64 v=0
241248 Par ch=2 c=64 v=127
241248 On ch=1 n=g5 v=127
241248 On ch=1 n=a#5 v=127
241248 On ch=2 n=a#3 v=108
241248 On ch=2 n=d#4 v=108
241310 On ch=2 n=a#3 v=0
241310 On ch=2 n=d#4 v=0
241312 On ch=2 n=a#4 v=108
241374 On ch=2 n=a#4 v=0
241376 On ch=2 n=d#4 v=108
241408 On ch=1 n=g5 v=0
241408 On ch=1 n=a#5 v=0
241438 On ch=2 n=d#4 v=0
241440 On ch=1 n=a#4 v=108
241440 On ch=1 n=f5 v=108
241440 On ch=2 n=a#3 v=108
241534 On ch=1 n=a#4 v=0
241534 On ch=1 n=f5 v=0
241536 On ch=1 n=g4 v=108
241600 On ch=2 n=a#3 v=0
241630 On ch=1 n=g4 v=0
241632 On ch=2 n=d#3 v=108
241632 On ch=2 n=a#3 v=108
241694 On ch=2 n=d#3 v=0
241694 On ch=2 n=a#3 v=0
241696 On ch=2 n=g4 v=108
241728 On ch=1 n=g5 v=108
241758 On ch=2 n=g4 v=0
241760 On ch=2 n=a#3 v=108
241822 On ch=1 n=g5 v=0
241822 On ch=2 n=a#3 v=0
241824 On ch=1 n=a#5 v=127
241824 On ch=1 n=d#6 v=127
241824 On ch=1 n=g6 v=127
241824 On ch=2 n=d#3 v=108
241886 On ch=1 n=a#5 v=0
241886 On ch=1 n=d#6 v=0
241886 On ch=1 n=g6 v=0
241952 On ch=1 n=d6 v=127
241952 On ch=1 n=f6 v=127
241984 On ch=2 n=d#3 v=0
242014 On ch=1 n=d6 v=0
242014 On ch=1 n=f6 v=0
242016 Par ch=2 c=64 v=0
242016 Par ch=2 c=64 v=127
242016 On ch=1 n=d#6 v=127
242016 On ch=1 n=g6 v=127
242016 On ch=2 n=g4 v=108
242016 On ch=2 n=d#5 v=108
242078 On ch=2 n=g4 v=0
242078 On ch=2 n=d#5 v=0
242080 On ch=2 n=g5 v=108
242142 On ch=2 n=g5 v=0
242144 On ch=2 n=d#5 v=108
242176 On ch=1 n=d#6 v=0
242176 On ch=1 n=g6 v=0
242206 On ch=2 n=d#5 v=0
242208 On ch=1 n=g5 v=108
242208 On ch=1 n=a#5 v=108
242208 On ch=1 n=d6 v=108
242208 On ch=2 n=g4 v=108
242302 On ch=1 n=g5 v=0
242302 On ch=1 n=a#5 v=0
242302 On ch=1 n=d6 v=0
242304 On ch=1 n=d5 v=108
242368 On ch=2 n=g4 v=0
242398 On ch=1 n=d5 v=0
242400 On ch=2 n=a#3 v=108
242400 On ch=2 n=g4 v=108
242462 On ch=2 n=a#3 v=0
242462 On ch=2 n=g4 v=0
242464 On ch=2 n=a#4 v=108
242496 On ch=1 n=a#5 v=108
242526 On ch=2 n=a#4 v=0
242528 On ch=2 n=g4 v=108
242590 On ch=1 n=a#5 v=0
242590 On ch=2 n=g4 v=0
242592 On ch=1 n=d#6 v=127
242592 On ch=1 n=g6 v=127
242592 On ch=1 n=a#6 v=127
242592 On ch=2 n=a#3 v=108
242654 On ch=1 n=d#6 v=0
242654 On ch=1 n=g6 v=0
242654 On ch=1 n=a#6 v=0
242720 On ch=1 n=f6 v=127
242720 On ch=1 n=g#6 v=127
242752 On ch=2 n=a#3 v=0
242782 On ch=1 n=f6 v=0
242782 On ch=1 n=g#6 v=0
242784 Par ch=2 c=64 v=0
242784 Par ch=2 c=64 v=127
242784 On ch=1 n=g6 v=127
242784 On ch=1 n=a#6 v=127
242784 On ch=2 n=a#4 v=108
242784 On ch=2 n=g5 v=108
242846 On ch=2 n=a#4 v=0
242846 On ch=2 n=g5 v=0
242848 On ch=2 n=a#5 v=108
242910 On ch=2 n=a#5 v=0
242912 On ch=2 n=g5 v=108
242944 On ch=1 n=g6 v=0
242944 On ch=1 n=a#6 v=0
242974 On ch=2 n=g5 v=0
242976 On ch=1 n=a#5 v=108
242976 On ch=1 n=f6 v=108
242976 On ch=2 n=a#4 v=108
243070 On ch=1 n=a#5 v=0
243070 On ch=1 n=f6 v=0
243072 On ch=1 n=g5 v=108
243136 On ch=2 n=a#4 v=0
243166 On ch=1 n=g5 v=0
243168 On ch=2 n=g4 v=108
243168 On ch=2 n=d#5 v=108
243230 On ch=2 n=g4 v=0
243230 On ch=2 n=d#5 v=0
243232 On ch=2 n=g5 v=108
243264 On ch=1 n=d#6 v=108
243294 On ch=2 n=g5 v=0
243296 On ch=2 n=d#5 v=108
243358 On ch=1 n=d#6 v=0
243358 On ch=2 n=d#5 v=0
243360 On ch=1 n=g6 v=108
243360 On ch=1 n=d#7 v=108
243360 On ch=2 n=g4 v=108
243454 On ch=1 n=g6 v=0
243454 On ch=1 n=d#7 v=0
243456 On ch=1 n=d#6 v=108
243520 On ch=2 n=g4 v=0
243550 On ch=1 n=d#6 v=0
243552 Par ch=2 c=64 v=0
243552 On ch=1 n=a#7 v=108
243552 On ch=2 n=d#6 v=108
243552 On ch=2 n=g6 v=108
243552 On ch=2 n=a#6 v=108
243614 On ch=1 n=a#7 v=0
243616 On ch=1 n=d#7 v=108
243678 On ch=1 n=d#7 v=0
243680 On ch=1 n=a#7 v=108
243742 On ch=1 n=a#7 v=0
243744 On ch=1 n=a#6 v=108
243870 On ch=1 n=a#6 v=0
243870 On ch=2 n=d#6 v=0
243870 On ch=2 n=g6 v=0
243870 On ch=2 n=a#6 v=0
243872 On ch=1 n=d#6 v=108
243872 On ch=2 n=f5 v=108
243872 On ch=2 n=g#5 v=108
243934 On ch=1 n=d#6 v=0
243934 On ch=2 n=f5 v=0
243934 On ch=2 n=g#5 v=0
243936 On ch=1 n=a#6 v=108
243936 On ch=2 n=d#5 v=108
243936 On ch=2 n=g5 v=108
243936 On ch=2 n=a#5 v=108
243998 On ch=1 n=a#6 v=0
244000 On ch=1 n=a#5 v=108
244062 On ch=1 n=a#5 v=0
244064 On ch=1 n=a#6 v=108
244126 On ch=1 n=a#6 v=0
244128 On ch=1 n=d#6 v=108
244190 On ch=1 n=d#6 v=0
244192 On ch=1 n=a#6 v=108
244254 On ch=1 n=a#6 v=0
244254 On ch=2 n=d#5 v=0
244254 On ch=2 n=g5 v=0
244254 On ch=2 n=a#5 v=0
244256 On ch=1 n=a#6 v=108
244256 On ch=2 n=f6 v=108
244256 On ch=2 n=g#6 v=108
244318 On ch=1 n=a#6 v=0
244318 On ch=2 n=f6 v=0
244318 On ch=2 n=g#6 v=0
244320 On ch=1 n=a#7 v=108
244320 On ch=2 n=d#6 v=108
244320 On ch=2 n=g6 v=108
244320 On ch=2 n=a#6 v=108
244382 On ch=1 n=a#7 v=0
244384 On ch=1 n=d#7 v=108
244446 On ch=1 n=d#7 v=0
244448 On ch=1 n=a#7 v=108
244510 On ch=1 n=a#7 v=0
244512 On ch=1 n=a#6 v=108
244638 On ch=1 n=a#6 v=0
244638 On ch=2 n=d#6 v=0
244638 On ch=2 n=g6 v=0
244638 On ch=2 n=a#6 v=0
244640 On ch=1 n=d#6 v=108
244640 On ch=2 n=f5 v=108
244640 On ch=2 n=g#5 v=108
244702 On ch=1 n=d#6 v=0
244702 On ch=2 n=f5 v=0
244702 On ch=2 n=g#5 v=0
244704 On ch=1 n=a#6 v=108
244704 On ch=2 n=d#5 v=108
244704 On ch=2 n=g5 v=108
244704 On ch=2 n=a#5 v=108
244766 On ch=1 n=a#6 v=0
244768 On ch=1 n=a#5 v=108
244830 On ch=1 n=a#5 v=0
244832 On ch=1 n=a#6 v=108
244894 On ch=1 n=a#6 v=0
244896 On ch=1 n=d#6 v=108
244958 On ch=1 n=d#6 v=0
244960 On ch=1 n=a#6 v=108
245022 On ch=1 n=a#6 v=0
245022 On ch=2 n=d#5 v=0
245022 On ch=2 n=g5 v=0
245022 On ch=2 n=a#5 v=0
245024 On ch=1 n=a#6 v=108
245024 On ch=2 n=f6 v=108
245024 On ch=2 n=g#6 v=108
245086 On ch=1 n=a#6 v=0
245086 On ch=2 n=f6 v=0
245086 On ch=2 n=g#6 v=0
245088 On ch=1 n=a#7 v=108
245088 On ch=2 n=d#6 v=108
245088 On ch=2 n=g6 v=108
245088 On ch=2 n=a#6 v=108
245150 On ch=1 n=a#7 v=0
245152 On ch=1 n=d#7 v=108
245214 On ch=1 n=d#7 v=0
245216 On ch=1 n=a#7 v=108
245278 On ch=1 n=a#7 v=0
245280 On ch=1 n=a#6 v=108
245342 On ch=1 n=a#6 v=0
245344 On ch=1 n=a#6 v=108
245406 On ch=1 n=a#6 v=0
245406 On ch=2 n=d#6 v=0
245406 On ch=2 n=g6 v=0
245406 On ch=2 n=a#6 v=0
245408 On ch=1 n=d#6 v=108
245408 On ch=2 n=f5 v=108
245408 On ch=2 n=g#5 v=108
245470 On ch=1 n=d#6 v=0
245470 On ch=2 n=f5 v=0
245470 On ch=2 n=g#5 v=0
245472 On ch=1 n=a#6 v=108
245472 On ch=2 n=d#5 v=108
245472 On ch=2 n=g5 v=108
245472 On ch=2 n=a#5 v=108
245534 On ch=1 n=a#6 v=0
245536 On ch=1 n=a#5 v=108
245598 On ch=1 n=a#5 v=0
245600 On ch=1 n=a#6 v=108
245662 On ch=1 n=a#6 v=0
245664 On ch=1 n=d#6 v=108
245726 On ch=1 n=d#6 v=0
245728 On ch=1 n=a#6 v=108
245790 On ch=1 n=a#6 v=0
245790 On ch=2 n=d#5 v=0
245790 On ch=2 n=g5 v=0
245790 On ch=2 n=a#5 v=0
245792 On ch=1 n=a#5 v=108
245792 On ch=2 n=f4 v=108
245792 On ch=2 n=g#4 v=108
245854 On ch=1 n=a#5 v=0
245854 On ch=2 n=f4 v=0
245854 On ch=2 n=g#4 v=0
245856 On ch=1 n=a#6 v=108
245856 On ch=2 n=d#4 v=108
245856 On ch=2 n=g4 v=108
245856 On ch=2 n=a#4 v=108
245918 On ch=1 n=a#6 v=0
245920 On ch=1 n=d#6 v=108
245982 On ch=1 n=d#6 v=0
245984 On ch=1 n=a#6 v=108
246046 On ch=1 n=a#6 v=0
246048 On ch=1 n=a#5 v=108
246110 On ch=1 n=a#5 v=0
246112 On ch=1 n=a#5 v=108
246174 On ch=1 n=a#5 v=0
246174 On ch=2 n=d#4 v=0
246174 On ch=2 n=g4 v=0
246174 On ch=2 n=a#4 v=0
246176 On ch=1 n=d#5 v=108
246176 On ch=2 n=f3 v=108
246176 On ch=2 n=g#3 v=108
246238 On ch=1 n=d#5 v=0
246238 On ch=2 n=f3 v=0
246238 On ch=2 n=g#3 v=0
246240 On ch=1 n=a#5 v=108
246240 On ch=2 n=d#3 v=108
246240 On ch=2 n=g3 v=108
246240 On ch=2 n=a#3 v=108
246302 On ch=1 n=a#5 v=0
246304 On ch=1 n=a#4 v=108
246366 On ch=1 n=a#4 v=0
246368 On ch=1 n=a4 v=108
246430 On ch=1 n=a4 v=0
246432 On ch=1 n=d#4 v=108
246494 On ch=1 n=d#4 v=0
246496 On ch=1 n=a#4 v=108
246558 On ch=1 n=a#4 v=0
246560 On ch=1 n=a#3 v=108
246576 On ch=2 n=d#3 v=0
246576 On ch=2 n=g3 v=0
246576 On ch=2 n=a#3 v=0
246622 On ch=1 n=a#3 v=0
246624 Par ch=2 c=64 v=127
246624 On ch=1 n=d#4 v=127
246624 On ch=2 n=d#2 v=127
246624 On ch=2 n=d#3 v=127
246816 On ch=1 n=a#4 v=108
246816 On ch=2 n=a#3 v=108
246878 On ch=1 n=a#4 v=0
246878 On ch=2 n=a#3 v=0
246880 On ch=1 n=d#4 v=108
246880 On ch=2 n=d#3 v=108
246942 On ch=1 n=d#4 v=0
246942 On ch=2 n=d#3 v=0
246944 On ch=1 n=a#4 v=108
246944 On ch=2 n=a#3 v=108
247006 On ch=1 n=a#4 v=0
247006 On ch=2 n=a#3 v=0
247008 On ch=1 n=d#5 v=108
247008 On ch=2 n=d#4 v=108
247070 On ch=1 n=d#5 v=0
247070 On ch=2 n=d#4 v=0
247072 On ch=1 n=a#4 v=108
247072 On ch=2 n=a#3 v=108
247134 On ch=1 n=a#4 v=0
247134 On ch=2 n=a#3 v=0
247136 On ch=1 n=d#5 v=108
247136 On ch=2 n=d#3 v=108
247152 On ch=1 n=d#4 v=0
247152 On ch=2 n=d#2 v=0
247152 On ch=2 n=d#3 v=0
247198 On ch=1 n=d#5 v=0
247198 On ch=2 n=d#3 v=0
247200 On ch=1 n=a#4 v=108
247200 On ch=1 n=a#5 v=108
247200 On ch=2 n=a#3 v=108
247200 On ch=2 n=a#3 v=108
247262 On ch=1 n=a#4 v=0
247262 On ch=2 n=a#3 v=0
247264 On ch=1 n=d#5 v=108
247264 On ch=2 n=d#3 v=108
247326 On ch=1 n=d#5 v=0
247326 On ch=2 n=d#3 v=0
247328 On ch=1 n=a#4 v=108
247328 On ch=2 n=a#2 v=108
247360 On ch=1 n=a#5 v=0
247360 On ch=2 n=a#3 v=0
247390 On ch=1 n=a#4 v=0
247390 On ch=2 n=a#2 v=0
247392 Par ch=2 c=64 v=0
247392 Par ch=2 c=64 v=127
247392 On ch=1 n=d#4 v=108
247392 On ch=1 n=d#5 v=108
247392 On ch=2 n=d#2 v=127
247392 On ch=2 n=d#3 v=127
247584 On ch=1 n=a#4 v=108
247584 On ch=2 n=a#3 v=108
247646 On ch=1 n=a#4 v=0
247646 On ch=2 n=a#3 v=0
247648 On ch=1 n=d#4 v=108
247648 On ch=2 n=d#3 v=108
247710 On ch=1 n=d#4 v=0
247710 On ch=2 n=d#3 v=0
247712 On ch=1 n=a#4 v=108
247712 On ch=2 n=a#3 v=108
247774 On ch=1 n=a#4 v=0
247774 On ch=2 n=a#3 v=0
247776 On ch=1 n=d#5 v=108
247776 On ch=2 n=d#4 v=108
247838 On ch=1 n=d#5 v=0
247838 On ch=2 n=d#4 v=0
247840 On ch=1 n=a#4 v=108
247840 On ch=2 n=a#3 v=108
247902 On ch=1 n=a#4 v=0
247902 On ch=2 n=a#3 v=0
247904 On ch=1 n=d#5 v=108
247904 On ch=2 n=d#3 v=108
247920 On ch=1 n=d#4 v=0
247920 On ch=1 n=d#5 v=0
247920 On ch=2 n=d#2 v=0
247920 On ch=2 n=d#3 v=0
247966 On ch=1 n=d#5 v=0
247966 On ch=2 n=d#3 v=0
247968 On ch=1 n=a#4 v=108
247968 On ch=1 n=a#5 v=108
247968 On ch=2 n=a#3 v=108
247968 On ch=2 n=a#3 v=108
248030 On ch=1 n=a#4 v=0
248030 On ch=2 n=a#3 v=0
248032 On ch=1 n=d#5 v=108
248032 On ch=2 n=d#3 v=108
248094 On ch=1 n=d#5 v=0
248094 On ch=2 n=d#3 v=0
248096 On ch=1 n=a#4 v=108
248096 On ch=2 n=a#2 v=108
248128 On ch=1 n=a#5 v=0
248128 On ch=2 n=a#3 v=0
248158 On ch=1 n=a#4 v=0
248158 On ch=2 n=a#2 v=0
248160 Par ch=2 c=64 v=0
248160 Par ch=2 c=64 v=127
248160 On ch=1 n=d#4 v=108
248160 On ch=1 n=d#5 v=108
248160 On ch=2 n=d#2 v=127
248160 On ch=2 n=d#3 v=127
248320 On ch=1 n=d#4 v=0
248320 On ch=1 n=d#5 v=0
248320 On ch=2 n=d#2 v=0
248320 On ch=2 n=d#3 v=0
248352 On ch=1 n=a#6 v=108
248352 On ch=1 n=a#7 v=108
248352 On ch=2 n=a#5 v=108
248512 On ch=1 n=a#6 v=0
248512 On ch=1 n=a#7 v=0
248512 On ch=2 n=a#5 v=0
248544 Par ch=2 c=64 v=0
248544 Par ch=2 c=64 v=127
248544 On ch=1 n=d#6 v=108
248544 On ch=1 n=d#7 v=108
248544 On ch=2 n=d#5 v=108
248704 On ch=1 n=d#6 v=0
248704 On ch=1 n=d#7 v=0
248704 On ch=2 n=d#5 v=0
248736 On ch=1 n=a#5 v=108
248736 On ch=1 n=a#6 v=108
248736 On ch=2 n=a#4 v=108
248896 On ch=1 n=a#5 v=0
248896 On ch=1 n=a#6 v=0
248896 On ch=2 n=a#4 v=0
248928 Par ch=2 c=64 v=0
248928 Par ch=2 c=64 v=127
248928 On ch=1 n=d#5 v=108
248928 On ch=1 n=d#6 v=108
248928 On ch=2 n=d#4 v=108
248940 Tempo 231660
248940 Tempo 231660
248953 Tempo 232558
248953 Tempo 232558
248966 Tempo 233463
248966 Tempo 233463
248979 Tempo 234375
248979 Tempo 234375
248992 Tempo 235294
248992 Tempo 235294
249004 Tempo 236220
249004 Tempo 236220
249017 Tempo 237154
249017 Tempo 237154
249030 Tempo 238095
249030 Tempo 238095
249043 Tempo 239043
249043 Tempo 239043
249056 Tempo 240000
249056 Tempo 240000
249068 Tempo 240963
249068 Tempo 240963
249081 Tempo 241935
249081 Tempo 241935
249088 On ch=1 n=d#5 v=0
249088 On ch=1 n=d#6 v=0
249088 On ch=2 n=d#4 v=0
249094 Tempo 242914
249094 Tempo 242914
249107 Tempo 243902
249107 Tempo 243902
249120 Tempo 244897
249120 Tempo 244897
249120 On ch=1 n=d#5 v=108
249120 On ch=2 n=d#3 v=108
249120 On ch=2 n=d#4 v=108
249132 Tempo 245901
249132 Tempo 245901
249145 Tempo 246913
249145 Tempo 246913
249158 Tempo 247933
249158 Tempo 247933
249171 Tempo 248962
249171 Tempo 248962
249184 Tempo 250000
249184 Tempo 250000
249196 Tempo 251046
249196 Tempo 251046
249209 Tempo 252100
249209 Tempo 252100
249222 Tempo 253164
249222 Tempo 253164
249235 Tempo 254237
249235 Tempo 254237
249248 Tempo 255319
249248 Tempo 255319
249260 Tempo 256410
249260 Tempo 256410
249273 Tempo 257510
249273 Tempo 257510
249280 On ch=1 n=d#5 v=0
249280 On ch=2 n=d#3 v=0
249280 On ch=2 n=d#4 v=0
249286 Tempo 258620
249286 Tempo 258620
249299 Tempo 259740
249299 Tempo 259740
249312 Par ch=2 c=64 v=0
249312 Tempo 260869
249312 Tempo 260869
249312 Par ch=2 c=64 v=127
249312 On ch=1 n=a4 v=108
249312 On ch=2 n=a2 v=108
249312 On ch=2 n=a3 v=108
249324 Tempo 262008
249324 Tempo 262008
249337 Tempo 263157
249337 Tempo 263157
249350 Tempo 264317
249350 Tempo 264317
249363 Tempo 265486
249363 Tempo 265486
249376 Tempo 266666
249376 Tempo 266666
249388 Tempo 267857
249388 Tempo 267857
249401 Tempo 269058
249401 Tempo 269058
249414 Tempo 270270
249414 Tempo 270270
249427 Tempo 271493
249427 Tempo 271493
249440 Tempo 272727
249440 Tempo 272727
249452 Tempo 273972
249452 Tempo 273972
249465 Tempo 275229
249465 Tempo 275229
249472 On ch=2 n=a3 v=0
249472 On ch=2 n=a2 v=0
249472 On ch=1 n=a4 v=0
249478 Tempo 276497
249478 Tempo 276497
249491 Tempo 277777
249491 Tempo 277777
249504 Tempo 279069
249504 Tempo 279069
249504 On ch=1 n=a3 v=108
249504 On ch=2 n=a2 v=108
249516 Tempo 280373
249516 Tempo 280373
249529 Tempo 281690
249529 Tempo 281690
249542 Tempo 283018
249542 Tempo 283018
249555 Tempo 284360
249555 Tempo 284360
249568 Tempo 285714
249568 Tempo 285714
249580 Tempo 287081
249580 Tempo 287081
249593 Tempo 288461
249593 Tempo 288461
249606 Tempo 289855
249606 Tempo 289855
249619 Tempo 291262
249619 Tempo 291262
249632 Tempo 292682
249632 Tempo 292682
249644 Tempo 294117
249644 Tempo 294117
249657 Tempo 295566
249657 Tempo 295566
249664 On ch=1 n=a3 v=0
249664 On ch=2 n=a2 v=0
249670 Tempo 297029
249670 Tempo 297029
249683 Tempo 298507
249683 Tempo 298507
249696 Par ch=2 c=64 v=0
249696 Tempo 300000
249696 Tempo 240000
249696 Tempo 300000
249696 Tempo 240000
249696 TimeSig 3/2 24 8
249696 On ch=1 n=d4 v=127
249696 On ch=1 n=d5 v=127
249696 On ch=2 n=d2 v=108
249696 On ch=2 n=d3 v=108
249856 On ch=1 n=d4 v=0
249856 On ch=1 n=d5 v=0
249856 On ch=2 n=d2 v=0
249856 On ch=2 n=d3 v=0
249888 On ch=1 n=c5 v=75
249982 On ch=1 n=c5 v=0
250032 On ch=1 n=c5 v=75
250078 On ch=1 n=c5 v=0
250080 On ch=1 n=d5 v=105
250240 On ch=1 n=d5 v=0
250272 On ch=1 n=a#4 v=75
250366 On ch=1 n=a#4 v=0
250416 On ch=1 n=a#4 v=75
250462 On ch=1 n=a#4 v=0
250464 On ch=1 n=c5 v=105
250624 On ch=1 n=c5 v=0
250656 On ch=1 n=a4 v=75
250750 On ch=1 n=a4 v=0
250800 On ch=1 n=a4 v=75
250846 On ch=1 n=a4 v=0
250848 On ch=1 n=a#4 v=105
250848 On ch=1 n=d5 v=105
250848 On ch=2 n=d3 v=105
251008 On ch=1 n=a#4 v=0
251008 On ch=1 n=d5 v=0
251008 On ch=2 n=d3 v=0
251040 On ch=1 n=c5 v=75
251040 On ch=2 n=a4 v=75
251134 On ch=1 n=c5 v=0
251184 On ch=1 n=c5 v=75
251230 On ch=1 n=c5 v=0
251232 On ch=1 n=d5 v=105
251376 On ch=2 n=a4 v=0
251392 On ch=1 n=d5 v=0
251424 On ch=1 n=a#4 v=75
251424 On ch=2 n=g4 v=75
251518 On ch=1 n=a#4 v=0
251568 On ch=1 n=a#4 v=75
251614 On ch=1 n=a#4 v=0
251616 On ch=1 n=c5 v=105
251760 On ch=2 n=g4 v=0
251776 On ch=1 n=c5 v=0
251808 On ch=1 n=a4 v=75
251808 On ch=2 n=f4 v=75
251902 On ch=1 n=a4 v=0
251952 On ch=1 n=a4 v=75
251998 On ch=1 n=a4 v=0
252000 On ch=1 n=a#4 v=105
252000 On ch=1 n=d5 v=105
252000 On ch=2 n=d3 v=75
252160 On ch=1 n=a#4 v=0
252160 On ch=1 n=d5 v=0
252160 On ch=2 n=d3 v=0
252160 On ch=2 n=f4 v=0
252192 On ch=1 n=a4 v=75
252192 On ch=1 n=c5 v=75
252192 On ch=2 n=e4 v=75
252286 On ch=1 n=c5 v=0
252286 On ch=2 n=e4 v=0
252336 On ch=1 n=c5 v=75
252336 On ch=2 n=e4 v=75
252382 On ch=1 n=c5 v=0
252382 On ch=2 n=e4 v=0
252384 On ch=1 n=d5 v=105
252384 On ch=2 n=f4 v=105
252528 On ch=1 n=a4 v=0
252544 On ch=1 n=d5 v=0
252544 On ch=2 n=f4 v=0
252576 On ch=1 n=g4 v=75
252576 On ch=1 n=a#4 v=75
252576 On ch=2 n=d4 v=75
252670 On ch=1 n=a#4 v=0
252670 On ch=2 n=d4 v=0
252720 On ch=1 n=a#4 v=75
252720 On ch=2 n=d4 v=75
252766 On ch=1 n=a#4 v=0
252766 On ch=2 n=d4 v=0
252768 On ch=1 n=c5 v=105
252768 On ch=2 n=e4 v=105
252912 On ch=1 n=g4 v=0
252928 On ch=1 n=c5 v=0
252928 On ch=2 n=e4 v=0
252960 On ch=1 n=f4 v=75
252960 On ch=1 n=a4 v=75
252960 On ch=2 n=c4 v=75
253054 On ch=1 n=a4 v=0
253054 On ch=2 n=c4 v=0
253104 On ch=1 n=a4 v=75
253104 On ch=2 n=c4 v=75
253150 On ch=1 n=a4 v=0
253150 On ch=2 n=c4 v=0
253152 On ch=1 n=a#4 v=75
253152 On ch=2 n=d4 v=105
253312 On ch=1 n=f4 v=0
253312 On ch=1 n=a#4 v=0
253312 On ch=2 n=d4 v=0
253344 On ch=1 n=a4 v=75
253344 On ch=1 n=d5 v=75
253344 On ch=2 n=d3 v=75
253344 On ch=2 n=c4 v=75
253438 On ch=1 n=a4 v=0
253438 On ch=2 n=c4 v=0
253488 On ch=1 n=a4 v=75
253488 On ch=2 n=c4 v=75
253534 On ch=1 n=a4 v=0
253534 On ch=2 n=c4 v=0
253536 On ch=1 n=a#4 v=105
253536 On ch=2 n=d4 v=105
253680 On ch=1 n=d5 v=0
253696 On ch=1 n=a#4 v=0
253696 On ch=2 n=d4 v=0
253728 On ch=1 n=g4 v=75
253728 On ch=1 n=d5 v=75
253728 On ch=2 n=a#3 v=75
253822 On ch=1 n=g4 v=0
253822 On ch=2 n=a#3 v=0
253872 On ch=1 n=g4 v=75
253872 On ch=2 n=a#3 v=75
253918 On ch=1 n=g4 v=0
253918 On ch=2 n=a#3 v=0
253920 On ch=1 n=a4 v=105
253920 On ch=2 n=c4 v=105
254064 On ch=1 n=d5 v=0
254080 On ch=1 n=a4 v=0
254080 On ch=2 n=c4 v=0
254112 On ch=1 n=f4 v=75
254112 On ch=1 n=d5 v=75
254112 On ch=2 n=a3 v=75
254206 On ch=1 n=f4 v=0
254206 On ch=2 n=a3 v=0
254256 On ch=1 n=f4 v=75
254256 On ch=2 n=a3 v=75
254302 On ch=1 n=f4 v=0
254302 On ch=2 n=a3 v=0
254304 On ch=1 n=g4 v=75
254304 On ch=2 n=a#3 v=75
254464 On ch=1 n=g4 v=0
254464 On ch=1 n=d5 v=0
254464 On ch=2 n=d3 v=0
254464 On ch=2 n=a#3 v=0
254496 On ch=1 n=f#4 v=75
254496 On ch=1 n=c5 v=75
254496 On ch=2 n=d3 v=75
254496 On ch=2 n=a3 v=75
254590 On ch=1 n=c5 v=0
254640 On ch=1 n=c5 v=75
254686 On ch=1 n=c5 v=0
254688 On ch=1 n=d5 v=75
254736 On ch=1 n=d5 v=0
254832 On ch=1 n=f#4 v=0
254832 On ch=2 n=d3 v=0
254832 On ch=2 n=a3 v=0
254880 On ch=1 n=f4 v=76
254880 On ch=1 n=a#4 v=76
254880 On ch=2 n=d3 v=75
254880 On ch=2 n=g#3 v=75
254974 On ch=1 n=a#4 v=0
255024 On ch=1 n=a#4 v=77
255070 On ch=1 n=a#4 v=0
255072 On ch=1 n=c5 v=77
255120 On ch=1 n=c5 v=0
255216 On ch=1 n=f4 v=0
255216 On ch=2 n=d3 v=0
255216 On ch=2 n=g#3 v=0
255264 On ch=1 n=e4 v=79
255264 On ch=1 n=a4 v=79
255264 On ch=2 n=d3 v=75
255264 On ch=2 n=g3 v=75
255358 On ch=1 n=a4 v=0
255408 On ch=1 n=a4 v=80
255454 On ch=1 n=a4 v=0
255456 On ch=1 n=a#4 v=80
255616 On ch=1 n=e4 v=0
255616 On ch=1 n=a#4 v=0
255616 On ch=2 n=g3 v=0
255648 On ch=1 n=f#4 v=82
255648 On ch=1 n=c5 v=82
255648 On ch=2 n=a3 v=75
255742 On ch=1 n=f#4 v=0
255742 On ch=2 n=a3 v=0
255792 On ch=1 n=f#4 v=83
255792 On ch=2 n=a3 v=75
255838 On ch=1 n=f#4 v=0
255838 On ch=2 n=a3 v=0
255840 On ch=1 n=g4 v=83
255840 On ch=2 n=a#3 v=105
255888 On ch=1 n=g4 v=0
255984 On ch=1 n=c5 v=0
255984 On ch=2 n=d3 v=0
256000 On ch=2 n=a#3 v=0
256032 On ch=1 n=e4 v=86
256032 On ch=1 n=c#5 v=86
256032 On ch=2 n=d3 v=75
256032 On ch=2 n=g3 v=75
256126 On ch=1 n=e4 v=0
256126 On ch=2 n=g3 v=0
256176 On ch=1 n=e4 v=87
256176 On ch=2 n=g3 v=75
256222 On ch=1 n=e4 v=0
256222 On ch=2 n=g3 v=0
256224 On ch=1 n=f#4 v=88
256224 On ch=2 n=a3 v=105
256272 On ch=1 n=f#4 v=0
256368 On ch=1 n=c#5 v=0
256384 On ch=2 n=a3 v=0
256416 On ch=1 n=d4 v=92
256416 On ch=1 n=d5 v=92
256416 On ch=2 n=f#3 v=75
256510 On ch=2 n=f#3 v=0
256560 On ch=2 n=d3 v=0
256560 On ch=2 n=f#3 v=75
256576 On ch=1 n=d4 v=0
256576 On ch=1 n=d5 v=0
256606 On ch=2 n=f#3 v=0
256608 On ch=1 n=d7 v=75
256608 On ch=2 n=d4 v=75
256656 On ch=1 n=d7 v=0
256768 On ch=2 n=d4 v=0
256800 On ch=1 n=a6 v=75
256800 On ch=1 n=c7 v=75
256894 On ch=1 n=c7 v=0
256944 On ch=1 n=c7 v=75
256990 On ch=1 n=c7 v=0
256992 On ch=1 n=g6 v=75
256992 On ch=1 n=d7 v=75
257040 On ch=1 n=d7 v=0
257136 On ch=1 n=a6 v=0
257184 On ch=1 n=a#6 v=75
257184 On ch=2 n=d6 v=75
257232 On ch=2 n=d6 v=0
257278 On ch=1 n=a#6 v=0
257328 On ch=1 n=g6 v=0
257328 On ch=1 n=a#6 v=75
257374 On ch=1 n=a#6 v=0
257376 On ch=1 n=c7 v=75
257376 On ch=2 n=c6 v=75
257424 On ch=1 n=c7 v=0
257470 On ch=2 n=c6 v=0
257520 On ch=2 n=c6 v=75
257566 On ch=2 n=c6 v=0
257568 On ch=1 n=f6 v=75
257568 On ch=1 n=a6 v=75
257568 On ch=2 n=d6 v=75
257616 On ch=2 n=d6 v=0
257662 On ch=1 n=a6 v=0
257712 On ch=1 n=a6 v=75
257758 On ch=1 n=a6 v=0
257760 On ch=1 n=a#6 v=75
257760 On ch=2 n=a#5 v=75
257854 On ch=2 n=a#5 v=0
257904 On ch=2 n=a#5 v=75
257920 On ch=1 n=f6 v=0
257920 On ch=1 n=a#6 v=0
257950 On ch=2 n=a#5 v=0
257952 On ch=1 n=d#6 v=75
257952 On ch=1 n=g6 v=75
257952 On ch=2 n=c6 v=75
258000 On ch=2 n=c6 v=0
258046 On ch=1 n=g6 v=0
258096 On ch=1 n=g6 v=75
258112 On ch=1 n=d#6 v=0
258142 On ch=1 n=g6 v=0
258144 On ch=1 n=d6 v=75
258144 On ch=1 n=a6 v=75
258144 On ch=2 n=d5 v=75
258144 On ch=2 n=a5 v=75
258192 On ch=1 n=a6 v=0
258238 On ch=2 n=a5 v=0
258288 On ch=2 n=a5 v=75
258304 On ch=1 n=d6 v=0
258304 On ch=2 n=d5 v=0
258334 On ch=2 n=a5 v=0
258336 On ch=1 n=a#5 v=75
258336 On ch=1 n=d6 v=75
258336 On ch=2 n=c5 v=75
258336 On ch=2 n=f#5 v=75
258430 On ch=2 n=c5 v=0
258480 On ch=2 n=c5 v=75
258496 On ch=1 n=a#5 v=0
258496 On ch=2 n=f#5 v=0
258526 On ch=2 n=c5 v=0
258528 On ch=1 n=d5 v=75
258528 On ch=1 n=g5 v=75
258528 On ch=2 n=d4 v=75
258528 On ch=2 n=a#4 v=75
258622 On ch=1 n=d5 v=0
258622 On ch=1 n=g5 v=0
258672 On ch=1 n=d6 v=0
258672 On ch=1 n=g5 v=75
258688 On ch=2 n=d4 v=0
258688 On ch=2 n=a#4 v=0
258718 On ch=1 n=g5 v=0
258720 On ch=1 n=d5 v=75
258720 On ch=1 n=a5 v=75
258720 On ch=1 n=d6 v=75
258720 On ch=2 n=c4 v=75
258814 On ch=2 n=c4 v=0
258864 On ch=2 n=c4 v=75
258880 On ch=1 n=d5 v=0
258880 On ch=1 n=a5 v=0
258880 On ch=1 n=d6 v=0
258910 On ch=2 n=c4 v=0
258912 On ch=1 n=f5 v=75
258912 On ch=2 n=d4 v=75
258960 On ch=2 n=d4 v=0
259006 On ch=1 n=f5 v=0
259056 On ch=1 n=f5 v=75
259102 On ch=1 n=f5 v=0
259104 On ch=1 n=d5 v=75
259104 On ch=1 n=g5 v=75
259104 On ch=1 n=d6 v=75
259104 On ch=2 n=a#3 v=75
259152 On ch=1 n=d5 v=0
259152 On ch=1 n=g5 v=0
259198 On ch=2 n=a#3 v=0
259248 On ch=2 n=a#3 v=75
259264 On ch=1 n=d6 v=0
259294 On ch=2 n=a#3 v=0
259296 On ch=1 n=d#5 v=75
259296 On ch=1 n=c6 v=75
259296 On ch=2 n=c4 v=75
259344 On ch=2 n=c4 v=0
259390 On ch=1 n=d#5 v=0
259390 On ch=1 n=c6 v=0
259440 On ch=1 n=d#5 v=75
259440 On ch=1 n=c6 v=75
259486 On ch=1 n=d#5 v=0
259486 On ch=1 n=c6 v=0
259488 On ch=1 n=f5 v=75
259488 On ch=1 n=d6 v=75
259488 On ch=2 n=a3 v=75
259536 On ch=1 n=f5 v=0
259582 On ch=2 n=a3 v=0
259632 On ch=2 n=a3 v=75
259648 On ch=1 n=d6 v=0
259678 On ch=2 n=a3 v=0
259680 On ch=1 n=d5 v=75
259680 On ch=1 n=a#5 v=75
259680 On ch=2 n=a#3 v=75
259680 On ch=2 n=d4 v=75
259728 On ch=2 n=a#3 v=0
259774 On ch=1 n=d5 v=0
259774 On ch=1 n=a#5 v=0
259824 On ch=1 n=d5 v=75
259824 On ch=1 n=a#5 v=75
259840 On ch=2 n=d4 v=0
259870 On ch=1 n=d5 v=0
259870 On ch=1 n=a#5 v=0
259872 On ch=1 n=e5 v=75
259872 On ch=1 n=c6 v=75
259872 On ch=2 n=g3 v=75
259872 On ch=2 n=c4 v=75
259920 On ch=1 n=e5 v=0
259966 On ch=2 n=g3 v=0
259966 On ch=2 n=c4 v=0
260016 On ch=2 n=a3 v=75
260016 On ch=2 n=c4 v=75
260032 On ch=1 n=c6 v=0
260062 On ch=2 n=a3 v=0
260062 On ch=2 n=c4 v=0
260064 On ch=1 n=d5 v=105
260064 On ch=2 n=d3 v=105
260064 On ch=2 n=d4 v=105
260224 On ch=1 n=d5 v=0
260224 On ch=2 n=d3 v=0
260224 On ch=2 n=d4 v=0
260256 On ch=1 n=c#5 v=80
260256 On ch=2 n=c#3 v=80
260350 On ch=1 n=c#5 v=0
260350 On ch=2 n=c#3 v=0
260400 On ch=1 n=c#5 v=83
260400 On ch=2 n=c#3 v=83
260446 On ch=1 n=c#5 v=0
260446 On ch=2 n=c#3 v=0
260448 On ch=1 n=d5 v=84
260448 On ch=2 n=d3 v=84
260496 On ch=2 n=d3 v=0
260608 On ch=1 n=d5 v=0
260640 On ch=1 n=c4 v=90
260640 On ch=2 n=c3 v=90
260734 On ch=1 n=c4 v=0
260734 On ch=2 n=c3 v=0
260784 On ch=1 n=c4 v=94
260784 On ch=2 n=c3 v=94
260830 On ch=1 n=c4 v=0
260830 On ch=2 n=c3 v=0
260832 On ch=1 n=c#4 v=95
260832 On ch=2 n=c#3 v=95
260880 On ch=2 n=c#3 v=0
260992 On ch=1 n=c#4 v=0
261024 On ch=2 n=b2 v=101
261118 On ch=2 n=b2 v=0
261168 On ch=2 n=b2 v=106
261214 On ch=2 n=b2 v=0
261216 TimeSig 2/2 24 8
261216 On ch=1 n=c5 v=108
261216 On ch=1 n=d#5 v=108
261216 On ch=1 n=g5 v=108
261216 On ch=2 n=c3 v=108
261278 On ch=1 n=c5 v=0
261278 On ch=1 n=d#5 v=0
261278 On ch=1 n=g5 v=0
261278 On ch=2 n=c3 v=0
261344 On ch=1 n=d5 v=108
261344 On ch=1 n=f5 v=108
261344 On ch=1 n=b5 v=108
261344 On ch=2 n=g3 v=108
261344 On ch=2 n=g4 v=108
261406 On ch=1 n=d5 v=0
261406 On ch=1 n=f5 v=0
261406 On ch=1 n=b5 v=0
261406 On ch=2 n=g3 v=0
261406 On ch=2 n=g4 v=0
261408 On ch=1 n=d#5 v=108
261408 On ch=1 n=c6 v=108
261408 On ch=2 n=c4 v=108
261408 On ch=2 n=g4 v=108
261744 On ch=1 n=d#5 v=0
261744 On ch=1 n=c6 v=0
261744 On ch=2 n=c4 v=0
261744 On ch=2 n=g4 v=0
261792 On ch=1 n=d5 v=108
261792 On ch=1 n=f5 v=108
261792 On ch=1 n=g5 v=108
261792 On ch=2 n=g4 v=108
261792 On ch=2 n=b4 v=108
261840 On ch=1 n=d5 v=0
261840 On ch=1 n=f5 v=0
261840 On ch=1 n=g5 v=0
261840 On ch=2 n=g4 v=0
261840 On ch=2 n=b4 v=0
261984 On ch=1 n=d#5 v=108
261984 On ch=1 n=g5 v=108
261984 On ch=2 n=c4 v=108
261984 On ch=2 n=g4 v=108
261984 On ch=2 n=c5 v=108
262144 On ch=1 n=d#5 v=0
262144 On ch=1 n=g5 v=0
262144 On ch=2 n=c4 v=0
262144 On ch=2 n=g4 v=0
262144 On ch=2 n=c5 v=0
262176 On ch=2 n=g#3 v=108
262176 On ch=2 n=f4 v=108
262238 On ch=2 n=g#3 v=0
262238 On ch=2 n=f4 v=0
262304 On ch=2 n=g#3 v=108
262304 On ch=2 n=f4 v=108
262366 On ch=2 n=g#3 v=0
262366 On ch=2 n=f4 v=0
262368 On ch=2 n=c4 v=108
262368 On ch=2 n=g4 v=108
262528 On ch=2 n=c4 v=0
262528 On ch=2 n=g4 v=0
262560 On ch=1 n=f4 v=108
262560 On ch=1 n=g4 v=108
262560 On ch=2 n=g3 v=108
262560 On ch=2 n=b3 v=108
262560 On ch=2 n=d4 v=108
262622 On ch=1 n=f4 v=0
262624 On ch=1 n=d#4 v=108
262686 On ch=1 n=d#4 v=0
262688 On ch=1 n=f4 v=108
262720 On ch=1 n=g4 v=0
262720 On ch=2 n=g3 v=0
262720 On ch=2 n=b3 v=0
262720 On ch=2 n=d4 v=0
262750 On ch=1 n=f4 v=0
262752 On ch=1 n=d#4 v=108
262752 On ch=1 n=g4 v=108
262752 On ch=2 n=c3 v=108
262752 On ch=2 n=g3 v=108
262752 On ch=2 n=c4 v=108
262912 On ch=1 n=d#4 v=0
262912 On ch=1 n=g4 v=0
262912 On ch=2 n=c3 v=0
262912 On ch=2 n=g3 v=0
262912 On ch=2 n=c4 v=0
262944 On ch=2 n=g#3 v=108
262944 On ch=2 n=f4 v=108
263006 On ch=2 n=g#3 v=0
263006 On ch=2 n=f4 v=0
263072 On ch=2 n=g#3 v=108
263072 On ch=2 n=f4 v=108
263134 On ch=2 n=g#3 v=0
263134 On ch=2 n=f4 v=0
263136 On ch=2 n=c4 v=108
263136 On ch=2 n=g4 v=108
263296 On ch=2 n=c4 v=0
263296 On ch=2 n=g4 v=0
263328 On ch=1 n=b4 v=108
263328 On ch=1 n=f5 v=108
263328 On ch=1 n=g5 v=108
263328 On ch=2 n=g4 v=108
263390 On ch=1 n=b4 v=0
263390 On ch=2 n=g4 v=0
263392 On ch=1 n=c5 v=108
263392 On ch=2 n=a4 v=108
263454 On ch=1 n=c5 v=0
263454 On ch=2 n=a4 v=0
263456 On ch=1 n=d5 v=108
263456 On ch=2 n=b4 v=108
263488 On ch=1 n=f5 v=0
263488 On ch=1 n=g5 v=0
263518 On ch=1 n=d5 v=0
263518 On ch=2 n=b4 v=0
263520 On ch=1 n=d#5 v=108
263520 On ch=1 n=g5 v=108
263520 On ch=2 n=c4 v=108
263520 On ch=2 n=g4 v=108
263680 On ch=1 n=d#5 v=0
263680 On ch=1 n=g5 v=0
263680 On ch=2 n=c4 v=0
263680 On ch=2 n=g4 v=0
263712 On ch=1 n=g6 v=108
263712 On ch=2 n=g5 v=108
263712 On ch=2 n=d#6 v=108
263754 On ch=2 n=g5 v=0
263754 On ch=2 n=d#6 v=0
263774 On ch=1 n=g6 v=0
263776 On ch=1 n=c6 v=108
263838 On ch=1 n=c6 v=0
263840 On ch=1 n=g6 v=108
263840 On ch=2 n=g5 v=108
263840 On ch=2 n=d#6 v=108
263882 On ch=2 n=g5 v=0
263882 On ch=2 n=d#6 v=0
263902 On ch=1 n=g6 v=0
263904 On ch=1 n=c6 v=108
263904 On ch=2 n=g5 v=108
263904 On ch=2 n=d#6 v=108
263952 On ch=2 n=g5 v=0
263952 On ch=2 n=d#6 v=0
263966 On ch=1 n=c6 v=0
263968 On ch=1 n=g6 v=108
264030 On ch=1 n=g6 v=0
264032 On ch=1 n=a#5 v=108
264094 On ch=1 n=a#5 v=0
264096 On ch=1 n=g5 v=108
264096 On ch=2 n=g4 v=108
264096 On ch=2 n=d#5 v=108
264138 On ch=2 n=g4 v=0
264138 On ch=2 n=d#5 v=0
264158 On ch=1 n=g5 v=0
264160 On ch=1 n=c5 v=108
264222 On ch=1 n=c5 v=0
264224 On ch=1 n=g5 v=108
264224 On ch=2 n=g4 v=108
264224 On ch=2 n=d#5 v=108
264266 On ch=2 n=g4 v=0
264266 On ch=2 n=d#5 v=0
264286 On ch=1 n=g5 v=0
264288 On ch=1 n=c5 v=108
264288 On ch=2 n=g4 v=108
264288 On ch=2 n=e5 v=108
264336 On ch=2 n=g4 v=0
264336 On ch=2 n=e5 v=0
264350 On ch=1 n=c5 v=0
264352 On ch=1 n=g5 v=108
264414 On ch=1 n=g5 v=0
264416 On ch=1 n=c5 v=108
264478 On ch=1 n=c5 v=0
264480 On ch=1 n=d#5 v=108
264480 On ch=1 n=g5 v=108
264480 On ch=2 n=c4 v=108
264480 On ch=2 n=g4 v=108
264528 On ch=2 n=c4 v=0
264528 On ch=2 n=g4 v=0
264542 On ch=1 n=d#5 v=0
264542 On ch=1 n=g5 v=0
264544 On ch=1 n=f5 v=108
264606 On ch=1 n=f5 v=0
264608 On ch=1 n=d#5 v=108
264670 On ch=1 n=d#5 v=0
264672 On ch=1 n=g#4 v=108
264672 On ch=1 n=d#5 v=108
264672 On ch=2 n=f3 v=108
264672 On ch=2 n=c4 v=108
264720 On ch=1 n=g#4 v=0
264720 On ch=1 n=d#5 v=0
264720 On ch=2 n=f3 v=0
264720 On ch=2 n=c4 v=0
264864 On ch=1 n=g#4 v=108
264864 On ch=1 n=a#4 v=108
264864 On ch=1 n=d5 v=108
264864 On ch=2 n=a#3 v=108
264912 On ch=1 n=g#4 v=0
264912 On ch=1 n=a#4 v=0
264912 On ch=1 n=d5 v=0
264912 On ch=2 n=a#3 v=0
265056 On ch=1 n=g4 v=108
265056 On ch=1 n=a#4 v=108
265056 On ch=1 n=d#5 v=108
265056 On ch=2 n=d#3 v=108
265056 On ch=2 n=a#3 v=108
265216 On ch=1 n=g4 v=0
265216 On ch=1 n=a#4 v=0
265216 On ch=1 n=d#5 v=0
265216 On ch=2 n=d#3 v=0
265216 On ch=2 n=a#3 v=0
265248 On ch=1 n=f4 v=108
265248 On ch=1 n=g#4 v=108
265248 On ch=1 n=a#4 v=108
265248 On ch=2 n=a#2 v=108
265248 On ch=2 n=a#3 v=108
265408 On ch=1 n=f4 v=0
265408 On ch=1 n=g#4 v=0
265408 On ch=2 n=a#2 v=0
265440 On ch=1 n=d#4 v=108
265440 On ch=1 n=g4 v=108
265440 On ch=2 n=d#3 v=108
265584 On ch=1 n=a#4 v=0
265584 On ch=2 n=a#3 v=0
265600 On ch=1 n=d#4 v=0
265600 On ch=1 n=g4 v=0
265600 On ch=2 n=d#3 v=0
265632 On ch=1 n=b4 v=108
265632 On ch=2 n=g#3 v=108
265632 On ch=2 n=f4 v=108
265694 On ch=1 n=b4 v=0
265694 On ch=2 n=g#3 v=0
265694 On ch=2 n=f4 v=0
265696 On ch=1 n=c5 v=108
265758 On ch=1 n=c5 v=0
265760 On ch=1 n=d5 v=108
265760 On ch=2 n=g#3 v=108
265760 On ch=2 n=f4 v=108
265822 On ch=1 n=d5 v=0
265822 On ch=2 n=g#3 v=0
265822 On ch=2 n=f4 v=0
265824 On ch=1 n=d#5 v=108
265824 On ch=1 n=g5 v=108
265824 On ch=2 n=c4 v=108
265824 On ch=2 n=g4 v=108
265984 On ch=1 n=d#5 v=0
265984 On ch=1 n=g5 v=0
265984 On ch=2 n=c4 v=0
265984 On ch=2 n=g4 v=0
266016 On ch=1 n=g6 v=108
266016 On ch=2 n=g5 v=108
266016 On ch=2 n=d#6 v=108
266058 On ch=2 n=g5 v=0
266058 On ch=2 n=d#6 v=0
266078 On ch=1 n=g6 v=0
266080 On ch=1 n=c6 v=108
266142 On ch=1 n=c6 v=0
266144 On ch=1 n=g6 v=108
266144 On ch=2 n=g5 v=108
266144 On ch=2 n=d#6 v=108
266186 On ch=2 n=g5 v=0
266186 On ch=2 n=d#6 v=0
266206 On ch=1 n=g6 v=0
266208 On ch=1 n=c6 v=108
266208 On ch=2 n=g5 v=108
266208 On ch=2 n=d#6 v=108
266256 On ch=2 n=g5 v=0
266256 On ch=2 n=d#6 v=0
266270 On ch=1 n=c6 v=0
266272 On ch=1 n=g6 v=108
266334 On ch=1 n=g6 v=0
266336 On ch=1 n=a#5 v=108
266398 On ch=1 n=a#5 v=0
266400 On ch=1 n=g5 v=108
266400 On ch=2 n=g4 v=108
266400 On ch=2 n=d#5 v=108
266442 On ch=2 n=g4 v=0
266442 On ch=2 n=d#5 v=0
266462 On ch=1 n=g5 v=0
266464 On ch=1 n=c5 v=108
266526 On ch=1 n=c5 v=0
266528 On ch=1 n=g5 v=108
266528 On ch=2 n=g4 v=108
266590 On ch=1 n=g5 v=0
266590 On ch=2 n=g4 v=0
266592 On ch=1 n=g#4 v=108
266592 On ch=1 n=c5 v=108
266592 On ch=1 n=d#5 v=108
266592 On ch=2 n=g#3 v=108
266592 On ch=2 n=d#4 v=108
266654 On ch=1 n=g#4 v=0
266654 On ch=1 n=c5 v=0
266654 On ch=1 n=d#5 v=0
266654 On ch=2 n=g#3 v=0
266654 On ch=2 n=d#4 v=0
266720 On ch=1 n=a#4 v=108
266720 On ch=1 n=c#5 v=108
266720 On ch=1 n=g5 v=108
266720 On ch=2 n=d#3 v=108
266720 On ch=2 n=d#4 v=108
266782 On ch=1 n=a#4 v=0
266782 On ch=1 n=c#5 v=0
266782 On ch=1 n=g5 v=0
266782 On ch=2 n=d#3 v=0
266782 On ch=2 n=d#4 v=0
266784 On ch=1 n=c5 v=108
266784 On ch=1 n=d#5 v=108
266784 On ch=1 n=g#5 v=108
266784 On ch=2 n=g#3 v=108
266784 On ch=2 n=d#4 v=108
267120 On ch=1 n=c5 v=0
267120 On ch=1 n=d#5 v=0
267120 On ch=1 n=g#5 v=0
267120 On ch=2 n=g#3 v=0
267120 On ch=2 n=d#4 v=0
267168 On ch=1 n=a#4 v=108
267168 On ch=1 n=c#5 v=108
267168 On ch=1 n=d#5 v=108
267168 On ch=2 n=d#4 v=108
267168 On ch=2 n=g4 v=108
267216 On ch=2 n=d#4 v=0
267216 On ch=2 n=g4 v=0
267328 On ch=1 n=a#4 v=0
267328 On ch=1 n=c#5 v=0
267328 On ch=1 n=d#5 v=0
267360 On ch=1 n=c5 v=108
267360 On ch=1 n=d#5 v=108
267360 On ch=2 n=g#3 v=108
267360 On ch=2 n=d#4 v=108
267360 On ch=2 n=g#4 v=108
267520 On ch=1 n=c5 v=0
267520 On ch=1 n=d#5 v=0
267520 On ch=2 n=g#3 v=0
267520 On ch=2 n=d#4 v=0
267520 On ch=2 n=g#4 v=0
267552 On ch=2 n=g#3 v=108
267552 On ch=2 n=f4 v=108
267614 On ch=2 n=g#3 v=0
267614 On ch=2 n=f4 v=0
267680 On ch=2 n=g#3 v=108
267680 On ch=2 n=f4 v=108
267742 On ch=2 n=g#3 v=0
267742 On ch=2 n=f4 v=0
267744 On ch=2 n=c4 v=108
267744 On ch=2 n=g4 v=108
267904 On ch=2 n=c4 v=0
267904 On ch=2 n=g4 v=0
267936 On ch=1 n=g4 v=108
267936 On ch=1 n=c#5 v=108
267936 On ch=1 n=d#5 v=108
267936 On ch=2 n=d#3 v=108
267998 On ch=1 n=g4 v=0
268000 On ch=1 n=g#4 v=108
268062 On ch=1 n=g#4 v=0
268064 On ch=1 n=a#4 v=108
268096 On ch=1 n=c#5 v=0
268096 On ch=1 n=d#5 v=0
268096 On ch=2 n=d#3 v=0
268126 On ch=1 n=a#4 v=0
268128 On ch=1 n=c5 v=108
268128 On ch=1 n=d#5 v=108
268128 On ch=2 n=g#3 v=108
268288 On ch=1 n=c5 v=0
268288 On ch=1 n=d#5 v=0
268288 On ch=2 n=g#3 v=0
268320 On ch=2 n=g#4 v=108
268320 On ch=2 n=f5 v=108
268382 On ch=2 n=g#4 v=0
268382 On ch=2 n=f5 v=0
268448 On ch=2 n=g#4 v=108
268448 On ch=2 n=f5 v=108
268510 On ch=2 n=g#4 v=0
268510 On ch=2 n=f5 v=0
268512 On ch=2 n=c5 v=108
268512 On ch=2 n=g5 v=108
268672 On ch=2 n=c5 v=0
268672 On ch=2 n=g5 v=0
268704 On ch=1 n=g5 v=108
268704 On ch=1 n=c#6 v=108
268704 On ch=1 n=d#6 v=108
268704 On ch=2 n=d#5 v=108
268766 On ch=1 n=g5 v=0
268766 On ch=2 n=d#5 v=0
268768 On ch=1 n=g#5 v=108
268768 On ch=2 n=f5 v=108
268830 On ch=1 n=g#5 v=0
268830 On ch=2 n=f5 v=0
268832 On ch=1 n=a#5 v=108
268832 On ch=2 n=g5 v=108
268864 On ch=1 n=c#6 v=0
268864 On ch=1 n=d#6 v=0
268894 On ch=1 n=a#5 v=0
268894 On ch=2 n=g5 v=0
268896 On ch=1 n=c6 v=108
268896 On ch=1 n=d#6 v=108
268896 On ch=2 n=g#4 v=108
268896 On ch=2 n=d#5 v=108
268944 On ch=1 n=c6 v=0
268944 On ch=1 n=d#6 v=0
269056 On ch=2 n=g#4 v=0
269056 On ch=2 n=d#5 v=0
269088 On ch=1 n=g6 v=108
269088 On ch=2 n=g5 v=108
269088 On ch=2 n=d#6 v=108
269130 On ch=2 n=g5 v=0
269130 On ch=2 n=d#6 v=0
269150 On ch=1 n=g6 v=0
269152 On ch=1 n=c6 v=107
269214 On ch=1 n=c6 v=0
269216 On ch=1 n=g6 v=106
269216 On ch=2 n=g5 v=106
269216 On ch=2 n=d#6 v=106
269258 On ch=2 n=g5 v=0
269258 On ch=2 n=d#6 v=0
269278 On ch=1 n=g6 v=0
269280 On ch=1 n=c6 v=105
269280 On ch=2 n=g5 v=105
269280 On ch=2 n=d#6 v=105
269328 On ch=2 n=g5 v=0
269328 On ch=2 n=d#6 v=0
269342 On ch=1 n=c6 v=0
269344 On ch=1 n=g6 v=104
269406 On ch=1 n=g6 v=0
269408 On ch=1 n=a#5 v=103
269470 On ch=1 n=a#5 v=0
269472 On ch=1 n=g5 v=102
269472 On ch=2 n=g4 v=101
269472 On ch=2 n=d#5 v=101
269514 On ch=2 n=g4 v=0
269514 On ch=2 n=d#5 v=0
269534 On ch=1 n=g5 v=0
269536 On ch=1 n=c5 v=101
269598 On ch=1 n=c5 v=0
269600 On ch=1 n=g5 v=100
269600 On ch=2 n=g4 v=99
269600 On ch=2 n=d#5 v=99
269642 On ch=2 n=g4 v=0
269642 On ch=2 n=d#5 v=0
269662 On ch=1 n=g5 v=0
269664 On ch=1 n=c5 v=99
269664 On ch=2 n=g4 v=98
269664 On ch=2 n=e5 v=98
269712 On ch=2 n=g4 v=0
269712 On ch=2 n=e5 v=0
269726 On ch=1 n=c5 v=0
269728 On ch=1 n=g5 v=98
269790 On ch=1 n=g5 v=0
269792 On ch=1 n=c5 v=97
269854 On ch=1 n=c5 v=0
269856 On ch=1 n=d#5 v=96
269856 On ch=1 n=g5 v=96
269856 On ch=2 n=c4 v=94
269856 On ch=2 n=g4 v=94
269904 On ch=2 n=c4 v=0
269904 On ch=2 n=g4 v=0
269918 On ch=1 n=d#5 v=0
269918 On ch=1 n=g5 v=0
269920 On ch=1 n=f5 v=95
269982 On ch=1 n=f5 v=0
269984 On ch=1 n=d#5 v=94
270046 On ch=1 n=d#5 v=0
270048 On ch=1 n=g#4 v=93
270048 On ch=1 n=d#5 v=93
270048 On ch=2 n=f3 v=90
270048 On ch=2 n=c4 v=90
270096 On ch=1 n=g#4 v=0
270096 On ch=1 n=d#5 v=0
270096 On ch=2 n=f3 v=0
270096 On ch=2 n=c4 v=0
270240 On ch=1 n=b4 v=88
270240 On ch=1 n=d5 v=88
270240 On ch=2 n=g3 v=85
270240 On ch=2 n=f4 v=85
270400 On ch=1 n=b4 v=0
270400 On ch=1 n=d5 v=0
270400 On ch=2 n=g3 v=0
270400 On ch=2 n=f4 v=0
270432 On ch=1 n=g4 v=83
270432 On ch=1 n=c5 v=83
270432 On ch=1 n=d#5 v=83
270432 On ch=2 n=c3 v=80
270432 On ch=2 n=c4 v=80
270592 On ch=1 n=g4 v=0
270592 On ch=1 n=c5 v=0
270592 On ch=1 n=d#5 v=0
270592 On ch=2 n=c3 v=0
270592 On ch=2 n=c4 v=0
270624 On ch=1 n=g#4 v=78
270624 On ch=1 n=c5 v=78
270624 On ch=2 n=f3 v=75
270624 On ch=2 n=c4 v=75
270784 On ch=1 n=g#4 v=0
270784 On ch=2 n=f3 v=0
270816 On ch=1 n=g4 v=72
270816 On ch=2 n=d#3 v=70
270960 On ch=1 n=c5 v=0
270960 On ch=2 n=c4 v=0
270976 On ch=1 n=g4 v=0
270976 On ch=2 n=d#3 v=0
271008 On ch=2 n=g#3 v=65
271008 On ch=2 n=f4 v=65
271070 On ch=2 n=g#3 v=0
271070 On ch=2 n=f4 v=0
271136 On ch=2 n=g#3 v=62
271136 On ch=2 n=f4 v=62
271198 On ch=2 n=g#3 v=0
271198 On ch=2 n=f4 v=0
271200 On ch=2 n=c4 v=60
271200 On ch=2 n=g4 v=60
271360 On ch=2 n=c4 v=0
271360 On ch=2 n=g4 v=0
271392 On ch=1 n=f4 v=60
271392 On ch=1 n=c5 v=60
271392 On ch=2 n=d3 v=60
271392 On ch=2 n=c4 v=60
271552 On ch=1 n=f4 v=0
271552 On ch=2 n=d3 v=0
271584 On ch=1 n=d#4 v=60
271584 On ch=2 n=c3 v=60
271728 On ch=1 n=c5 v=0
271728 On ch=2 n=c4 v=0
271744 On ch=1 n=d#4 v=0
271744 On ch=2 n=c3 v=0
271776 On ch=2 n=a3 v=60
271776 On ch=2 n=c4 v=60
271838 On ch=2 n=a3 v=0
271838 On ch=2 n=c4 v=0
271904 On ch=2 n=a3 v=60
271904 On ch=2 n=c4 v=60
271966 On ch=2 n=a3 v=0
271966 On ch=2 n=c4 v=0
271968 TimeSig 3/2 24 8
271968 On ch=2 n=d3 v=60
271968 On ch=2 n=d4 v=60
272016 On ch=2 n=d4 v=0
272160 On ch=1 n=f#4 v=63
272160 On ch=1 n=d5 v=63
272160 On ch=1 n=f#5 v=63
272160 On ch=2 n=c4 v=63
272254 On ch=2 n=c4 v=0
272304 On ch=2 n=c4 v=64
272350 On ch=2 n=c4 v=0
272352 On ch=2 n=d4 v=64
272496 On ch=1 n=f#4 v=0
272496 On ch=1 n=d5 v=0
272496 On ch=1 n=f#5 v=0
272512 On ch=2 n=d4 v=0
272544 On ch=1 n=g4 v=70
272544 On ch=1 n=d5 v=70
272544 On ch=1 n=e5 v=70
272544 On ch=1 n=g5 v=70
272544 On ch=2 n=a#3 v=67
272638 On ch=2 n=a#3 v=0
272688 On ch=2 n=a#3 v=69
272734 On ch=2 n=a#3 v=0
272736 On ch=2 n=c4 v=70
272880 On ch=1 n=g4 v=0
272880 On ch=1 n=d5 v=0
272880 On ch=1 n=e5 v=0
272880 On ch=1 n=g5 v=0
272896 On ch=2 n=c4 v=0
272928 On ch=1 n=a4 v=77
272928 On ch=1 n=d5 v=77
272928 On ch=1 n=f#5 v=77
272928 On ch=1 n=a5 v=77
272928 On ch=2 n=a3 v=74
273022 On ch=2 n=a3 v=0
273072 On ch=2 n=a3 v=77
273118 On ch=2 n=a3 v=0
273120 On ch=2 n=d4 v=78
273280 On ch=1 n=a4 v=0
273280 On ch=1 n=d5 v=0
273280 On ch=1 n=f5 v=0
273280 On ch=1 n=a5 v=0
273280 On ch=2 n=d4 v=0
273312 On ch=2 n=g3 v=82
273312 On ch=1 n=a#5 v=83
273312 On ch=1 n=e5 v=83
273312 On ch=1 n=d5 v=83
273312 On ch=1 n=a#4 v=83
273406 On ch=2 n=g3 v=0
273456 On ch=2 n=g3 v=85
273502 On ch=2 n=g3 v=0
273504 On ch=2 n=a3 v=86
273648 On ch=1 n=a#5 v=0
273648 On ch=1 n=e5 v=0
273648 On ch=1 n=d5 v=0
273648 On ch=1 n=a#4 v=0
273664 On ch=2 n=a3 v=0
273696 On ch=1 n=c6 v=91
273696 On ch=1 n=a5 v=91
273696 On ch=2 n=f#3 v=90
273696 On ch=1 n=d5 v=91
273696 On ch=1 n=c5 v=91
273790 On ch=2 n=f#3 v=0
273840 On ch=2 n=f#3 v=93
273886 On ch=2 n=f#3 v=0
273888 On ch=2 n=d4 v=94
274032 On ch=1 n=a5 v=0
274032 On ch=1 n=c6 v=0
274032 On ch=1 n=d5 v=0
274032 On ch=1 n=c5 v=0
274048 On ch=2 n=d4 v=0
274080 On ch=1 n=c#5 v=99
274080 On ch=1 n=g5 v=99
274080 On ch=1 n=a5 v=99
274080 On ch=1 n=c#6 v=99
274080 On ch=2 n=e3 v=98
274174 On ch=2 n=e3 v=0
274224 On ch=2 n=d3 v=0
274224 On ch=2 n=e3 v=101
274240 On ch=1 n=c#5 v=0
274240 On ch=1 n=g5 v=0
274240 On ch=1 n=a5 v=0
274240 On ch=1 n=c#6 v=0
274270 On ch=2 n=e3 v=0
274272 On ch=1 n=d5 v=103
274272 On ch=1 n=f#5 v=103
274272 On ch=1 n=a5 v=103
274272 On ch=1 n=d6 v=103
274272 On ch=2 n=d3 v=127
274272 On ch=2 n=d4 v=127
274432 On ch=1 n=d5 v=0
274432 On ch=1 n=f#5 v=0
274432 On ch=1 n=a5 v=0
274432 On ch=1 n=d6 v=0
274432 On ch=2 n=d3 v=0
274432 On ch=2 n=d4 v=0
274464 On ch=1 n=e5 v=107
274464 On ch=1 n=d6 v=107
274464 On ch=1 n=e6 v=107
274464 On ch=2 n=c3 v=106
274464 On ch=2 n=c4 v=106
274526 On ch=2 n=c3 v=0
274526 On ch=2 n=c4 v=0
274592 On ch=2 n=c3 v=108
274592 On ch=2 n=c4 v=108
274624 On ch=1 n=e5 v=0
274624 On ch=1 n=d6 v=0
274624 On ch=1 n=e6 v=0
274654 On ch=2 n=c3 v=0
274654 On ch=2 n=c4 v=0
274656 On ch=1 n=f#5 v=111
274656 On ch=1 n=d6 v=111
274656 On ch=1 n=f#6 v=111
274656 On ch=2 n=d3 v=127
274656 On ch=2 n=d4 v=127
274816 On ch=1 n=f#5 v=0
274816 On ch=1 n=d6 v=0
274816 On ch=1 n=f#6 v=0
274816 On ch=2 n=d3 v=0
274816 On ch=2 n=d4 v=0
274848 On ch=1 n=g5 v=115
274848 On ch=1 n=d6 v=115
274848 On ch=1 n=e6 v=115
274848 On ch=1 n=g6 v=115
274848 On ch=2 n=a#2 v=113
274848 On ch=2 n=a#3 v=113
274910 On ch=2 n=a#2 v=0
274910 On ch=2 n=a#3 v=0
274976 On ch=2 n=a#2 v=115
274976 On ch=2 n=a#3 v=115
275038 On ch=2 n=a#2 v=0
275038 On ch=2 n=a#3 v=0
275040 On ch=2 n=c3 v=127
275040 On ch=2 n=c4 v=127
275184 On ch=1 n=g5 v=0
275184 On ch=1 n=d6 v=0
275184 On ch=1 n=e6 v=0
275184 On ch=1 n=g6 v=0
275200 On ch=2 n=c3 v=0
275200 On ch=2 n=c4 v=0
275232 On ch=1 n=a5 v=123
275232 On ch=1 n=d6 v=123
275232 On ch=1 n=f#6 v=123
275232 On ch=1 n=a6 v=123
275232 On ch=2 n=a2 v=121
275232 On ch=2 n=a3 v=121
275294 On ch=2 n=a2 v=0
275294 On ch=2 n=a3 v=0
275360 On ch=2 n=a3 v=125
275392 On ch=1 n=a5 v=0
275392 On ch=1 n=d6 v=0
275392 On ch=1 n=f#6 v=0
275392 On ch=1 n=a6 v=0
275422 On ch=2 n=a3 v=0
275424 On ch=1 n=a#5 v=127
275424 On ch=1 n=d6 v=127
275424 On ch=1 n=g6 v=127
275424 On ch=1 n=a#6 v=127
275424 On ch=2 n=d3 v=127
275424 On ch=2 n=d4 v=127
275584 On ch=1 n=a#5 v=0
275584 On ch=1 n=d6 v=0
275584 On ch=1 n=g6 v=0
275584 On ch=1 n=a#6 v=0
275584 On ch=2 n=d3 v=0
275584 On ch=2 n=d4 v=0
275616 On ch=1 n=c6 v=127
275616 On ch=1 n=d6 v=127
275616 On ch=1 n=a6 v=127
275616 On ch=1 n=c7 v=127
275616 On ch=2 n=g2 v=127
275616 On ch=2 n=g3 v=127
275678 On ch=2 n=g2 v=0
275678 On ch=2 n=g3 v=0
275744 On ch=2 n=g2 v=127
275744 On ch=2 n=g3 v=127
275806 On ch=2 n=g2 v=0
275806 On ch=2 n=g3 v=0
275808 On ch=2 n=a2 v=127
275808 On ch=2 n=a3 v=127
275952 On ch=1 n=c6 v=0
275952 On ch=1 n=d6 v=0
275952 On ch=1 n=a6 v=0
275952 On ch=1 n=c7 v=0
275968 On ch=2 n=a2 v=0
275968 On ch=2 n=a3 v=0
276000 On ch=1 n=c#6 v=127
276000 On ch=1 n=g6 v=127
276000 On ch=1 n=a6 v=127
276000 On ch=1 n=c#7 v=127
276000 On ch=2 n=e2 v=127
276000 On ch=2 n=e3 v=127
276062 On ch=2 n=e2 v=0
276062 On ch=2 n=e3 v=0
276128 On ch=2 n=e3 v=127
276160 On ch=1 n=c#6 v=0
276160 On ch=1 n=g6 v=0
276160 On ch=1 n=a6 v=0
276160 On ch=1 n=c#7 v=0
276190 On ch=2 n=e3 v=0
276192 On ch=1 n=d6 v=127
276192 On ch=1 n=f#6 v=127
276192 On ch=1 n=a6 v=127
276192 On ch=1 n=d7 v=127
276192 On ch=2 n=d3 v=127
276192 On ch=2 n=d4 v=127
276352 On ch=1 n=d6 v=0
276352 On ch=1 n=f#6 v=0
276352 On ch=1 n=a6 v=0
276352 On ch=1 n=d7 v=0
276352 On ch=2 n=d3 v=0
276352 On ch=2 n=d4 v=0
276384 On ch=1 n=d5 v=127
276384 On ch=2 n=d3 v=127
276446 On ch=1 n=d5 v=0
276446 On ch=2 n=d3 v=0
276448 On ch=1 n=g4 v=127
276448 On ch=2 n=g2 v=127
276510 On ch=1 n=g4 v=0
276510 On ch=2 n=g2 v=0
276512 On ch=1 n=d5 v=127
276512 On ch=2 n=d3 v=127
276574 On ch=1 n=d5 v=0
276574 On ch=2 n=d3 v=0
276576 On ch=1 n=g4 v=127
276576 On ch=2 n=g2 v=127
276576 On ch=2 n=g3 v=127
276704 On ch=1 n=g5 v=127
276704 On ch=1 n=b5 v=127
276704 On ch=1 n=e6 v=127
276704 On ch=2 n=e4 v=127
276704 On ch=2 n=g4 v=127
276704 On ch=2 n=b4 v=127
276704 On ch=2 n=e5 v=127
276736 On ch=1 n=g4 v=0
276736 On ch=2 n=g2 v=0
276736 On ch=2 n=g3 v=0
276766 On ch=1 n=g5 v=0
276766 On ch=1 n=b5 v=0
276766 On ch=1 n=e6 v=0
276766 On ch=2 n=e4 v=0
276766 On ch=2 n=g4 v=0
276766 On ch=2 n=b4 v=0
276766 On ch=2 n=e5 v=0
276768 On ch=1 n=g5 v=127
276768 On ch=1 n=b5 v=127
276768 On ch=1 n=d6 v=127
276768 On ch=2 n=d4 v=127
276768 On ch=2 n=g4 v=127
276768 On ch=2 n=b4 v=127
276768 On ch=2 n=d5 v=127
277086 On ch=1 n=g5 v=0
277086 On ch=1 n=b5 v=0
277086 On ch=1 n=d6 v=0
277086 On ch=2 n=d4 v=0
277086 On ch=2 n=g4 v=0
277086 On ch=2 n=b4 v=0
277086 On ch=2 n=d5 v=0
277088 On ch=1 n=c5 v=127
277088 On ch=1 n=g5 v=127
277088 On ch=1 n=a5 v=127
277088 On ch=2 n=e4 v=127
277088 On ch=2 n=g4 v=127
277150 On ch=1 n=c5 v=0
277150 On ch=1 n=g5 v=0
277150 On ch=1 n=a5 v=0
277150 On ch=2 n=e4 v=0
277150 On ch=2 n=g4 v=0
277152 On ch=1 n=b4 v=127
277152 On ch=1 n=g5 v=127
277152 On ch=1 n=b5 v=127
277152 On ch=2 n=d4 v=127
277152 On ch=2 n=g4 v=127
277278 On ch=1 n=b4 v=0
277278 On ch=1 n=g5 v=0
277278 On ch=1 n=b5 v=0
277278 On ch=2 n=d4 v=0
277278 On ch=2 n=g4 v=0
277280 On ch=1 n=a4 v=127
277280 On ch=1 n=c5 v=127
277280 On ch=1 n=f#5 v=127
277280 On ch=2 n=d3 v=127
277280 On ch=2 n=d4 v=127
277342 On ch=1 n=a4 v=0
277342 On ch=1 n=c5 v=0
277342 On ch=1 n=f#5 v=0
277342 On ch=2 n=d3 v=0
277342 On ch=2 n=d4 v=0
277344 On ch=1 n=b4 v=92
277344 On ch=1 n=d5 v=92
277344 On ch=1 n=g5 v=92
277344 On ch=2 n=g3 v=92
277344 On ch=2 n=d4 v=92
277470 On ch=1 n=b4 v=0
277470 On ch=1 n=d5 v=0
277470 On ch=1 n=g5 v=0
277470 On ch=2 n=g3 v=0
277470 On ch=2 n=d4 v=0
277472 On ch=1 n=g5 v=92
277472 On ch=1 n=g5 v=92
277472 On ch=2 n=g4 v=92
277472 On ch=2 n=g4 v=92
277534 On ch=1 n=g5 v=0
277534 On ch=2 n=g4 v=0
277536 On ch=1 n=f#5 v=92
277536 On ch=1 n=f#5 v=92
277536 On ch=2 n=f#4 v=92
277536 On ch=2 n=f#4 v=92
277566 On ch=1 n=g5 v=0
277566 On ch=2 n=g4 v=0
277598 On ch=1 n=f#5 v=0
277598 On ch=2 n=f#4 v=0
277600 On ch=1 n=b4 v=92
277600 On ch=2 n=g3 v=92
277662 On ch=1 n=b4 v=0
277662 On ch=2 n=g3 v=0
277664 On ch=1 n=b5 v=92
277664 On ch=2 n=g4 v=92
277696 On ch=1 n=f#5 v=0
277696 On ch=2 n=f#4 v=0
277726 On ch=1 n=b5 v=0
277726 On ch=2 n=g4 v=0
277728 On ch=1 n=f5 v=92
277728 On ch=1 n=f5 v=92
277728 On ch=2 n=f4 v=92
277728 On ch=2 n=f4 v=92
277790 On ch=1 n=f5 v=0
277790 On ch=2 n=f4 v=0
277792 On ch=1 n=b4 v=92
277792 On ch=2 n=g3 v=92
277854 On ch=1 n=b4 v=0
277854 On ch=2 n=g3 v=0
277856 On ch=1 n=g5 v=92
277856 On ch=2 n=g4 v=92
277888 On ch=1 n=f5 v=0
277888 On ch=2 n=f4 v=0
277918 On ch=1 n=g5 v=0
277918 On ch=2 n=g4 v=0
277920 On ch=1 n=e5 v=92
277920 On ch=1 n=e5 v=92
277920 On ch=2 n=e4 v=92
277920 On ch=2 n=e4 v=92
277982 On ch=1 n=e5 v=0
277982 On ch=2 n=e4 v=0
277984 On ch=1 n=b4 v=92
277984 On ch=2 n=g3 v=92
278014 On ch=1 n=e5 v=0
278014 On ch=2 n=e4 v=0
278046 On ch=1 n=b4 v=0
278046 On ch=2 n=g3 v=0
278048 On ch=1 n=b4 v=127
278048 On ch=1 n=d#5 v=127
278048 On ch=1 n=g5 v=127
278048 On ch=1 n=b5 v=127
278048 On ch=2 n=d#4 v=127
278048 On ch=2 n=g4 v=127
278110 On ch=1 n=b4 v=0
278110 On ch=1 n=d#5 v=0
278110 On ch=1 n=g5 v=0
278110 On ch=1 n=b5 v=0
278110 On ch=2 n=d#4 v=0
278110 On ch=2 n=g4 v=0
278112 On ch=1 n=b4 v=127
278112 On ch=1 n=d5 v=127
278112 On ch=1 n=g5 v=127
278112 On ch=2 n=d4 v=92
278112 On ch=2 n=g4 v=92
278174 On ch=2 n=d4 v=0
278174 On ch=2 n=g4 v=0
278176 On ch=2 n=g3 v=92
278238 On ch=1 n=b4 v=0
278238 On ch=1 n=d5 v=0
278238 On ch=1 n=g5 v=0
278238 On ch=2 n=g3 v=0
278240 On ch=1 n=g5 v=92
278240 On ch=1 n=g5 v=92
278240 On ch=2 n=g4 v=92
278302 On ch=1 n=g5 v=0
278302 On ch=2 n=g4 v=0
278304 On ch=1 n=f#5 v=92
278304 On ch=1 n=f#5 v=92
278304 On ch=2 n=f#4 v=92
278304 On ch=2 n=f#4 v=92
278334 On ch=1 n=g5 v=0
278366 On ch=1 n=f#5 v=0
278366 On ch=2 n=f#4 v=0
278368 On ch=1 n=b4 v=92
278368 On ch=2 n=g3 v=92
278430 On ch=1 n=b4 v=0
278430 On ch=2 n=g3 v=0
278432 On ch=1 n=b5 v=92
278432 On ch=2 n=g4 v=92
278464 On ch=1 n=f#5 v=0
278464 On ch=2 n=f#4 v=0
278494 On ch=1 n=b5 v=0
278494 On ch=2 n=g4 v=0
278496 On ch=1 n=f5 v=92
278496 On ch=1 n=f5 v=92
278496 On ch=2 n=f4 v=92
278496 On ch=2 n=f4 v=92
278558 On ch=1 n=f5 v=0
278558 On ch=2 n=f4 v=0
278560 On ch=1 n=b4 v=92
278560 On ch=2 n=g3 v=92
278622 On ch=1 n=b4 v=0
278622 On ch=2 n=g3 v=0
278624 On ch=1 n=g5 v=92
278624 On ch=2 n=g4 v=92
278656 On ch=1 n=f5 v=0
278656 On ch=2 n=f4 v=0
278686 On ch=1 n=g5 v=0
278686 On ch=2 n=g4 v=0
278688 On ch=1 n=e5 v=92
278688 On ch=1 n=e5 v=92
278688 On ch=2 n=e4 v=92
278688 On ch=2 n=e4 v=92
278750 On ch=1 n=e5 v=0
278750 On ch=2 n=e4 v=0
278752 On ch=1 n=b4 v=92
278752 On ch=2 n=g3 v=92
278782 On ch=1 n=e5 v=0
278782 On ch=2 n=e4 v=0
278814 On ch=1 n=b4 v=0
278814 On ch=2 n=g3 v=0
278816 On ch=1 n=b4 v=127
278816 On ch=1 n=d#5 v=127
278816 On ch=1 n=g5 v=127
278816 On ch=1 n=b5 v=127
278816 On ch=2 n=d#4 v=127
278816 On ch=2 n=g4 v=127
278878 On ch=1 n=b4 v=0
278878 On ch=1 n=d#5 v=0
278878 On ch=1 n=g5 v=0
278878 On ch=1 n=b5 v=0
278878 On ch=2 n=d#4 v=0
278878 On ch=2 n=g4 v=0
278880 On ch=1 n=b4 v=127
278880 On ch=1 n=d5 v=127
278880 On ch=1 n=g5 v=127
278880 On ch=2 n=d4 v=127
278880 On ch=2 n=g4 v=127
278942 On ch=2 n=d4 v=0
278942 On ch=2 n=g4 v=0
279006 On ch=1 n=b4 v=0
279006 On ch=1 n=d5 v=0
279006 On ch=1 n=g5 v=0
279008 On ch=1 n=c6 v=92
279008 On ch=2 n=g3 v=92
279070 On ch=1 n=c6 v=0
279070 On ch=2 n=g3 v=0
279072 On ch=1 n=e5 v=92
279072 On ch=1 n=b5 v=92
279072 On ch=2 n=g#4 v=92
279072 On ch=2 n=g#4 v=92
279134 On ch=1 n=b5 v=0
279134 On ch=2 n=g#4 v=0
279136 On ch=1 n=c5 v=92
279136 On ch=2 n=e4 v=92
279198 On ch=1 n=c5 v=0
279198 On ch=2 n=e4 v=0
279200 On ch=1 n=c6 v=92
279200 On ch=2 n=g3 v=92
279232 On ch=1 n=e5 v=0
279232 On ch=2 n=g#4 v=0
279262 On ch=1 n=c6 v=0
279262 On ch=2 n=g3 v=0
279264 On ch=1 n=d#5 v=92
279264 On ch=1 n=b5 v=92
279264 On ch=2 n=g4 v=92
279264 On ch=2 n=g4 v=92
279326 On ch=1 n=b5 v=0
279326 On ch=2 n=g4 v=0
279328 On ch=1 n=c5 v=92
279328 On ch=2 n=d#4 v=92
279390 On ch=1 n=c5 v=0
279390 On ch=2 n=d#4 v=0
279392 On ch=1 n=c6 v=92
279392 On ch=2 n=g3 v=92
279424 On ch=1 n=d#5 v=0
279424 On ch=2 n=g4 v=0
279454 On ch=1 n=c6 v=0
279454 On ch=2 n=g3 v=0
279456 On ch=1 n=d5 v=92
279456 On ch=1 n=b5 v=92
279456 On ch=2 n=f#4 v=92
279456 On ch=2 n=f#4 v=92
279518 On ch=1 n=b5 v=0
279518 On ch=2 n=f#4 v=0
279520 On ch=1 n=c5 v=92
279520 On ch=2 n=d4 v=92
279582 On ch=1 n=c5 v=0
279582 On ch=2 n=d4 v=0
279584 On ch=1 n=d#5 v=127
279584 On ch=1 n=f#5 v=127
279584 On ch=1 n=a#5 v=127
279584 On ch=1 n=d#6 v=127
279584 On ch=2 n=f#4 v=127
279584 On ch=2 n=a#4 v=127
279616 On ch=1 n=d5 v=0
279616 On ch=2 n=f#4 v=0
279646 On ch=1 n=d#5 v=0
279646 On ch=1 n=f#5 v=0
279646 On ch=1 n=a#5 v=0
279646 On ch=1 n=d#6 v=0
279646 On ch=2 n=f#4 v=0
279646 On ch=2 n=a#4 v=0
279648 On ch=1 n=d5 v=127
279648 On ch=1 n=g5 v=127
279648 On ch=1 n=b5 v=127
279648 On ch=2 n=g4 v=92
279648 On ch=2 n=b4 v=92
279710 On ch=2 n=b4 v=0
279712 On ch=2 n=d4 v=92
279774 On ch=1 n=d5 v=0
279774 On ch=1 n=g5 v=0
279774 On ch=1 n=b5 v=0
279774 On ch=2 n=d4 v=0
279776 On ch=1 n=c6 v=92
279776 On ch=2 n=g3 v=92
279808 On ch=2 n=g4 v=0
279838 On ch=1 n=c6 v=0
279838 On ch=2 n=g3 v=0
279840 On ch=1 n=e5 v=92
279840 On ch=1 n=b5 v=92
279840 On ch=2 n=g#4 v=92
279840 On ch=2 n=g#4 v=92
279902 On ch=1 n=b5 v=0
279902 On ch=2 n=g#4 v=0
279904 On ch=1 n=c5 v=92
279904 On ch=2 n=e4 v=92
279966 On ch=1 n=c5 v=0
279966 On ch=2 n=e4 v=0
279968 On ch=1 n=c6 v=92
279968 On ch=2 n=g3 v=92
280000 On ch=1 n=e5 v=0
280000 On ch=2 n=g#4 v=0
280030 On ch=1 n=c6 v=0
280030 On ch=2 n=g3 v=0
280032 On ch=1 n=d#5 v=92
280032 On ch=1 n=b5 v=92
280032 On ch=2 n=g4 v=92
280032 On ch=2 n=g4 v=92
280094 On ch=1 n=b5 v=0
280094 On ch=2 n=g4 v=0
280096 On ch=1 n=c5 v=92
280096 On ch=2 n=d#4 v=92
280158 On ch=1 n=c5 v=0
280158 On ch=2 n=d#4 v=0
280160 On ch=1 n=c6 v=92
280160 On ch=2 n=g3 v=92
280192 On ch=1 n=d#5 v=0
280192 On ch=2 n=g4 v=0
280222 On ch=1 n=c6 v=0
280222 On ch=2 n=g3 v=0
280224 On ch=1 n=d5 v=92
280224 On ch=1 n=b5 v=92
280224 On ch=2 n=f#4 v=92
280224 On ch=2 n=f#4 v=92
280286 On ch=1 n=b5 v=0
280286 On ch=2 n=f#4 v=0
280288 On ch=1 n=c5 v=92
280288 On ch=2 n=d4 v=92
280350 On ch=1 n=c5 v=0
280350 On ch=2 n=d4 v=0
280352 On ch=1 n=d#5 v=127
280352 On ch=1 n=f#5 v=127
280352 On ch=1 n=a#5 v=127
280352 On ch=1 n=d#6 v=127
280352 On ch=2 n=f#4 v=127
280352 On ch=2 n=a#4 v=127
280384 On ch=1 n=d5 v=0
280384 On ch=2 n=f#4 v=0
280414 On ch=1 n=d#5 v=0
280414 On ch=1 n=f#5 v=0
280414 On ch=1 n=a#5 v=0
280414 On ch=1 n=d#6 v=0
280414 On ch=2 n=f#4 v=0
280414 On ch=2 n=a#4 v=0
280416 On ch=1 n=d5 v=127
280416 On ch=1 n=g5 v=127
280416 On ch=1 n=b5 v=127
280416 On ch=2 n=g4 v=127
280416 On ch=2 n=b4 v=127
280542 On ch=2 n=g4 v=0
280542 On ch=2 n=b4 v=0
280544 On ch=2 n=d4 v=92
280576 On ch=1 n=d5 v=0
280576 On ch=1 n=g5 v=0
280576 On ch=1 n=b5 v=0
280606 On ch=2 n=d4 v=0
280608 On ch=1 n=a#5 v=92
280608 On ch=1 n=a#5 v=92
280608 On ch=2 n=a#4 v=127
280608 On ch=2 n=d#5 v=127
280654 On ch=1 n=a#5 v=0
280656 On ch=1 n=f5 v=93
280702 On ch=1 n=f5 v=0
280704 On ch=1 n=f#5 v=94
280750 On ch=1 n=f#5 v=0
280752 On ch=1 n=d#6 v=95
280768 On ch=1 n=a#5 v=0
280768 On ch=2 n=a#4 v=0
280768 On ch=2 n=d#5 v=0
280798 On ch=1 n=d#6 v=0
280800 On ch=1 n=g5 v=96
280800 On ch=1 n=b5 v=96
280800 On ch=2 n=b4 v=99
280800 On ch=2 n=d5 v=99
280926 On ch=2 n=b4 v=0
280926 On ch=2 n=d5 v=0
280928 On ch=2 n=g4 v=103
280960 On ch=1 n=g5 v=0
280960 On ch=1 n=b5 v=0
280990 On ch=2 n=g4 v=0
280992 On ch=1 n=c#6 v=102
280992 On ch=1 n=c#6 v=102
280992 On ch=2 n=c#5 v=127
280992 On ch=2 n=g5 v=127
281038 On ch=1 n=c#6 v=0
281040 On ch=1 n=a5 v=103
281086 On ch=1 n=a5 v=0
281088 On ch=1 n=a#5 v=104
281134 On ch=1 n=a#5 v=0
281136 On ch=1 n=g6 v=105
281152 On ch=1 n=c#6 v=0
281152 On ch=2 n=c#5 v=0
281152 On ch=2 n=g5 v=0
281182 On ch=1 n=g6 v=0
281184 On ch=1 n=b5 v=106
281184 On ch=1 n=d6 v=106
281184 On ch=2 n=d5 v=111
281184 On ch=2 n=g5 v=111
281310 On ch=2 n=d5 v=0
281310 On ch=2 n=g5 v=0
281312 On ch=2 n=b4 v=115
281344 On ch=1 n=b5 v=0
281344 On ch=1 n=d6 v=0
281376 On ch=1 n=f#6 v=113
281376 On ch=1 n=f#6 v=113
281376 On ch=2 n=d5 v=117
281376 On ch=2 n=f#5 v=117
281422 On ch=1 n=f#6 v=0
281424 On ch=1 n=b5 v=115
281470 On ch=1 n=b5 v=0
281472 On ch=1 n=d6 v=117
281518 On ch=1 n=d6 v=0
281520 On ch=1 n=b6 v=119
281536 On ch=1 n=f#6 v=0
281536 On ch=2 n=f#5 v=0
281566 On ch=1 n=b6 v=0
281568 On ch=1 n=d6 v=121
281568 On ch=1 n=g6 v=121
281568 On ch=2 n=g5 v=123
281694 On ch=1 n=d6 v=0
281694 On ch=1 n=g6 v=0
281694 On ch=2 n=b4 v=0
281694 On ch=2 n=d5 v=0
281694 On ch=2 n=g5 v=0
281696 On ch=1 n=b5 v=127
281696 On ch=1 n=d6 v=127
281696 On ch=1 n=g6 v=127
281696 On ch=1 n=b6 v=127
281696 On ch=2 n=b4 v=127
281696 On ch=2 n=d5 v=127
281696 On ch=2 n=g5 v=127
281696 On ch=2 n=b5 v=127
281758 On ch=1 n=b5 v=0
281758 On ch=1 n=d6 v=0
281758 On ch=1 n=g6 v=0
281758 On ch=1 n=b6 v=0
281758 On ch=2 n=b4 v=0
281758 On ch=2 n=d5 v=0
281758 On ch=2 n=g5 v=0
281758 On ch=2 n=b5 v=0
281760 On ch=1 n=b5 v=127
281760 On ch=1 n=d6 v=127
281760 On ch=1 n=f#6 v=127
281760 On ch=1 n=a6 v=127
281760 On ch=2 n=b4 v=127
281760 On ch=2 n=d5 v=127
281760 On ch=2 n=f#5 v=127
281760 On ch=2 n=a5 v=127
281886 On ch=1 n=b5 v=0
281886 On ch=1 n=d6 v=0
281886 On ch=1 n=f#6 v=0
281886 On ch=1 n=a6 v=0
281886 On ch=2 n=b4 v=0
281886 On ch=2 n=d5 v=0
281886 On ch=2 n=f#5 v=0
281886 On ch=2 n=a5 v=0
281888 On ch=1 n=b4 v=127
281888 On ch=1 n=d5 v=127
281888 On ch=1 n=f#5 v=127
281888 On ch=1 n=a5 v=127
281888 On ch=2 n=f#4 v=127
281888 On ch=2 n=a4 v=127
281950 On ch=1 n=b4 v=0
281950 On ch=1 n=d5 v=0
281950 On ch=1 n=f#5 v=0
281950 On ch=1 n=a5 v=0
281950 On ch=2 n=f#4 v=0
281950 On ch=2 n=a4 v=0
281952 On ch=1 n=b4 v=127
281952 On ch=1 n=e5 v=127
281952 On ch=1 n=g5 v=127
281952 On ch=1 n=b5 v=127
281952 On ch=2 n=g3 v=127
281952 On ch=2 n=e4 v=127
281952 On ch=2 n=g4 v=127
282080 On ch=1 n=e6 v=127
282080 On ch=1 n=g6 v=127
282080 On ch=1 n=b6 v=127
282080 On ch=2 n=e5 v=127
282080 On ch=2 n=g5 v=127
282080 On ch=2 n=b5 v=127
282142 On ch=1 n=e6 v=0
282142 On ch=1 n=g6 v=0
282142 On ch=1 n=b6 v=0
282142 On ch=2 n=e5 v=0
282142 On ch=2 n=g5 v=0
282142 On ch=2 n=b5 v=0
282144 On ch=1 n=e6 v=127
282144 On ch=1 n=g6 v=127
282144 On ch=1 n=b6 v=127
282144 On ch=1 n=e7 v=127
282144 On ch=2 n=b4 v=127
282144 On ch=2 n=e5 v=127
282144 On ch=2 n=g5 v=127
282144 On ch=2 n=b5 v=127
282288 On ch=1 n=b4 v=0
282288 On ch=1 n=e5 v=0
282288 On ch=1 n=g5 v=0
282288 On ch=1 n=b5 v=0
282288 On ch=2 n=g3 v=0
282288 On ch=2 n=e4 v=0
282288 On ch=2 n=g4 v=0
282462 On ch=1 n=e6 v=0
282462 On ch=1 n=g6 v=0
282462 On ch=1 n=b6 v=0
282462 On ch=1 n=e7 v=0
282462 On ch=2 n=b4 v=0
282462 On ch=2 n=e5 v=0
282462 On ch=2 n=g5 v=0
282462 On ch=2 n=b5 v=0
282464 On ch=1 n=b5 v=127
282464 On ch=1 n=e6 v=127
282464 On ch=1 n=g6 v=127
282464 On ch=2 n=b4 v=127
282464 On ch=2 n=e5 v=127
282464 On ch=2 n=g5 v=127
282526 On ch=1 n=b5 v=0
282526 On ch=1 n=e6 v=0
282526 On ch=1 n=g6 v=0
282526 On ch=2 n=b4 v=0
282526 On ch=2 n=e5 v=0
282526 On ch=2 n=g5 v=0
282528 On ch=1 n=b5 v=127
282528 On ch=1 n=d6 v=127
282528 On ch=1 n=f#6 v=127
282528 On ch=2 n=a4 v=127
282528 On ch=2 n=d5 v=127
282528 On ch=2 n=f#5 v=127
282654 On ch=1 n=b5 v=0
282654 On ch=1 n=d6 v=0
282654 On ch=1 n=f#6 v=0
282654 On ch=2 n=a4 v=0
282654 On ch=2 n=d5 v=0
282654 On ch=2 n=f#5 v=0
282656 On ch=1 n=b4 v=127
282656 On ch=1 n=d5 v=127
282656 On ch=1 n=f#5 v=127
282656 On ch=2 n=f#4 v=127
282656 On ch=2 n=a4 v=127
282718 On ch=1 n=b4 v=0
282718 On ch=1 n=d5 v=0
282718 On ch=1 n=f#5 v=0
282718 On ch=2 n=f#4 v=0
282718 On ch=2 n=a4 v=0
282720 On ch=1 n=b4 v=127
282720 On ch=1 n=e5 v=127
282720 On ch=1 n=g5 v=127
282720 On ch=2 n=g3 v=127
282720 On ch=2 n=e4 v=127
282720 On ch=2 n=g4 v=127
282848 On ch=1 n=b5 v=127
282848 On ch=1 n=e6 v=127
282848 On ch=1 n=g6 v=127
282848 On ch=2 n=e5 v=127
282848 On ch=2 n=g5 v=127
282848 On ch=2 n=b5 v=127
282910 On ch=1 n=b5 v=0
282910 On ch=1 n=e6 v=0
282910 On ch=1 n=g6 v=0
282910 On ch=2 n=e5 v=0
282910 On ch=2 n=g5 v=0
282910 On ch=2 n=b5 v=0
282912 On ch=1 n=b5 v=127
282912 On ch=1 n=e6 v=127
282912 On ch=1 n=g6 v=127
282912 On ch=1 n=b6 v=127
282912 On ch=2 n=b4 v=127
282912 On ch=2 n=e5 v=127
282912 On ch=2 n=g5 v=127
282912 On ch=2 n=b5 v=127
283056 On ch=1 n=b4 v=0
283056 On ch=1 n=e5 v=0
283056 On ch=1 n=g5 v=0
283056 On ch=2 n=g3 v=0
283056 On ch=2 n=e4 v=0
283056 On ch=2 n=g4 v=0
283230 On ch=1 n=b5 v=0
283230 On ch=1 n=e6 v=0
283230 On ch=1 n=g6 v=0
283230 On ch=1 n=b6 v=0
283230 On ch=2 n=b4 v=0
283230 On ch=2 n=e5 v=0
283230 On ch=2 n=g5 v=0
283230 On ch=2 n=b5 v=0
283232 On ch=1 n=g5 v=127
283232 On ch=1 n=b5 v=127
283232 On ch=1 n=e6 v=127
283232 On ch=2 n=g4 v=127
283232 On ch=2 n=b4 v=127
283232 On ch=2 n=e5 v=127
283294 On ch=1 n=g5 v=0
283294 On ch=1 n=b5 v=0
283294 On ch=1 n=e6 v=0
283294 On ch=2 n=g4 v=0
283294 On ch=2 n=b4 v=0
283294 On ch=2 n=e5 v=0
283296 On ch=1 n=g5 v=127
283296 On ch=1 n=b5 v=127
283296 On ch=1 n=d6 v=127
283296 On ch=2 n=f#4 v=127
283296 On ch=2 n=b4 v=127
283296 On ch=2 n=d5 v=127
283422 On ch=1 n=g5 v=0
283422 On ch=1 n=b5 v=0
283422 On ch=1 n=d6 v=0
283422 On ch=2 n=f#4 v=0
283422 On ch=2 n=b4 v=0
283422 On ch=2 n=d5 v=0
283424 On ch=1 n=g4 v=127
283424 On ch=1 n=b4 v=127
283424 On ch=1 n=d5 v=127
283424 On ch=2 n=d4 v=127
283424 On ch=2 n=f#4 v=127
283486 On ch=1 n=g4 v=0
283486 On ch=1 n=b4 v=0
283486 On ch=1 n=d5 v=0
283486 On ch=2 n=d4 v=0
283486 On ch=2 n=f#4 v=0
283488 On ch=1 n=g4 v=127
283488 On ch=1 n=b4 v=127
283488 On ch=1 n=e5 v=127
283488 On ch=2 n=g3 v=127
283488 On ch=2 n=b3 v=127
283488 On ch=2 n=e4 v=127
283614 On ch=1 n=g4 v=0
283614 On ch=1 n=b4 v=0
283614 On ch=1 n=e5 v=0
283614 On ch=2 n=g3 v=0
283614 On ch=2 n=b3 v=0
283614 On ch=2 n=e4 v=0
283616 On ch=1 n=g5 v=127
283616 On ch=1 n=b5 v=127
283616 On ch=1 n=e6 v=127
283616 On ch=2 n=g4 v=127
283616 On ch=2 n=b4 v=127
283616 On ch=2 n=e5 v=127
283678 On ch=1 n=g5 v=0
283678 On ch=1 n=b5 v=0
283678 On ch=1 n=e6 v=0
283678 On ch=2 n=g4 v=0
283678 On ch=2 n=b4 v=0
283678 On ch=2 n=e5 v=0
283680 On ch=1 n=g5 v=127
283680 On ch=1 n=b5 v=127
283680 On ch=1 n=d6 v=127
283680 On ch=1 n=g6 v=127
283680 On ch=2 n=d4 v=127
283680 On ch=2 n=g4 v=127
283680 On ch=2 n=b4 v=127
283680 On ch=2 n=d5 v=127
283728 On ch=1 n=g5 v=0
283728 On ch=1 n=b5 v=0
283728 On ch=1 n=d6 v=0
283728 On ch=1 n=g6 v=0
283728 On ch=2 n=d4 v=0
283728 On ch=2 n=g4 v=0
283728 On ch=2 n=b4 v=0
283728 On ch=2 n=d5 v=0
283872 On ch=1 n=g5 v=127
283872 On ch=1 n=c6 v=127
283872 On ch=1 n=e6 v=127
283872 On ch=1 n=g6 v=127
283872 On ch=2 n=c4 v=127
283872 On ch=2 n=e4 v=127
283872 On ch=2 n=g4 v=127
283872 On ch=2 n=c5 v=127
283920 On ch=1 n=g5 v=0
283920 On ch=1 n=c6 v=0
283920 On ch=1 n=e6 v=0
283920 On ch=1 n=g6 v=0
283920 On ch=2 n=c4 v=0
283920 On ch=2 n=e4 v=0
283920 On ch=2 n=g4 v=0
283920 On ch=2 n=c5 v=0
284064 On ch=1 n=g5 v=127
284064 On ch=1 n=d6 v=127
284064 On ch=1 n=g6 v=127
284064 On ch=2 n=b3 v=127
284064 On ch=2 n=d4 v=127
284064 On ch=2 n=g4 v=127
284064 On ch=2 n=b4 v=127
284112 On ch=1 n=g5 v=0
284112 On ch=1 n=d6 v=0
284112 On ch=1 n=g6 v=0
284112 On ch=2 n=b3 v=0
284112 On ch=2 n=d4 v=0
284112 On ch=2 n=g4 v=0
284112 On ch=2 n=b4 v=0
284256 On ch=1 n=g4 v=127
284256 On ch=2 n=g2 v=127
284256 On ch=2 n=g3 v=127
284384 On ch=1 n=c6 v=127
284384 On ch=1 n=e6 v=127
284384 On ch=1 n=f#6 v=127
284384 On ch=2 n=a4 v=127
284384 On ch=2 n=c5 v=127
284384 On ch=2 n=e5 v=127
284384 On ch=2 n=a5 v=127
284446 On ch=1 n=c6 v=0
284446 On ch=1 n=e6 v=0
284446 On ch=1 n=f#6 v=0
284446 On ch=2 n=a4 v=0
284446 On ch=2 n=c5 v=0
284446 On ch=2 n=e5 v=0
284446 On ch=2 n=a5 v=0
284448 On ch=1 n=c6 v=127
284448 On ch=1 n=e6 v=127
284448 On ch=1 n=g6 v=127
284448 On ch=2 n=g4 v=127
284448 On ch=2 n=c5 v=127
284448 On ch=2 n=e5 v=127
284448 On ch=2 n=g5 v=127
284766 On ch=1 n=c6 v=0
284766 On ch=1 n=e6 v=0
284766 On ch=1 n=g6 v=0
284766 On ch=2 n=g4 v=0
284766 On ch=2 n=c5 v=0
284766 On ch=2 n=e5 v=0
284766 On ch=2 n=g5 v=0
284768 On ch=1 n=f5 v=127
284768 On ch=1 n=c6 v=127
284768 On ch=1 n=d6 v=127
284768 On ch=2 n=a4 v=127
284768 On ch=2 n=c5 v=127
284830 On ch=1 n=f5 v=0
284830 On ch=1 n=c6 v=0
284830 On ch=1 n=d6 v=0
284830 On ch=2 n=a4 v=0
284830 On ch=2 n=c5 v=0
284832 On ch=1 n=e5 v=127
284832 On ch=1 n=c6 v=127
284832 On ch=1 n=e6 v=127
284832 On ch=2 n=g4 v=127
284832 On ch=2 n=c5 v=127
284958 On ch=1 n=e5 v=0
284958 On ch=1 n=c6 v=0
284958 On ch=1 n=e6 v=0
284958 On ch=2 n=g4 v=0
284958 On ch=2 n=c5 v=0
284960 On ch=1 n=d5 v=127
284960 On ch=1 n=f5 v=127
284960 On ch=1 n=b5 v=127
284960 On ch=2 n=g3 v=127
284960 On ch=2 n=g4 v=127
284976 On ch=1 n=g4 v=0
284976 On ch=2 n=g2 v=0
284976 On ch=2 n=g3 v=0
285022 On ch=1 n=d5 v=0
285022 On ch=1 n=f5 v=0
285022 On ch=1 n=b5 v=0
285022 On ch=2 n=g3 v=0
285022 On ch=2 n=g4 v=0
285024 On ch=1 n=e5 v=127
285024 On ch=1 n=g5 v=127
285024 On ch=1 n=c6 v=127
285024 On ch=2 n=c4 v=127
285024 On ch=2 n=g4 v=127
285150 On ch=1 n=e5 v=0
285150 On ch=1 n=g5 v=0
285150 On ch=1 n=c6 v=0
285152 On ch=1 n=c6 v=127
285184 On ch=2 n=c4 v=0
285184 On ch=2 n=g4 v=0
285214 On ch=1 n=c6 v=0
285216 On ch=1 n=e5 v=92
285216 On ch=1 n=b5 v=92
285216 On ch=2 n=b4 v=92
285216 On ch=2 n=b4 v=92
285278 On ch=1 n=e5 v=0
285278 On ch=1 n=b5 v=0
285278 On ch=2 n=b4 v=0
285280 On ch=1 n=c5 v=92
285280 On ch=2 n=e4 v=92
285342 On ch=1 n=c5 v=0
285342 On ch=2 n=e4 v=0
285344 On ch=1 n=c6 v=92
285344 On ch=2 n=g3 v=92
285376 On ch=2 n=b4 v=0
285406 On ch=1 n=c6 v=0
285406 On ch=2 n=g3 v=0
285408 On ch=1 n=e5 v=92
285408 On ch=1 n=a#5 v=92
285408 On ch=2 n=a#4 v=92
285408 On ch=2 n=a#4 v=92
285470 On ch=1 n=e5 v=0
285470 On ch=1 n=a#5 v=0
285470 On ch=2 n=a#4 v=0
285472 On ch=1 n=c5 v=92
285472 On ch=2 n=e4 v=92
285534 On ch=1 n=c5 v=0
285534 On ch=2 n=e4 v=0
285536 On ch=1 n=c6 v=92
285536 On ch=2 n=g3 v=92
285568 On ch=2 n=a#4 v=0
285598 On ch=1 n=c6 v=0
285598 On ch=2 n=g3 v=0
285600 On ch=1 n=e5 v=92
285600 On ch=1 n=a5 v=92
285600 On ch=2 n=a4 v=92
285600 On ch=2 n=a4 v=92
285662 On ch=1 n=e5 v=0
285662 On ch=1 n=a5 v=0
285662 On ch=2 n=a4 v=0
285664 On ch=1 n=c5 v=92
285664 On ch=2 n=e4 v=92
285726 On ch=1 n=c5 v=0
285726 On ch=2 n=e4 v=0
285728 On ch=1 n=e5 v=127
285728 On ch=1 n=g#5 v=127
285728 On ch=1 n=c6 v=127
285728 On ch=1 n=e6 v=127
285728 On ch=2 n=g3 v=127
285728 On ch=2 n=g#4 v=127
285760 On ch=2 n=a4 v=0
285790 On ch=1 n=e5 v=0
285790 On ch=1 n=g#5 v=0
285790 On ch=1 n=c6 v=0
285790 On ch=1 n=e6 v=0
285790 On ch=2 n=g#4 v=0
285792 On ch=1 n=e5 v=127
285792 On ch=1 n=g5 v=127
285792 On ch=1 n=c6 v=127
285792 On ch=2 n=g4 v=92
285854 On ch=2 n=g3 v=0
285854 On ch=2 n=g4 v=0
285856 On ch=2 n=e4 v=92
285918 On ch=1 n=e5 v=0
285918 On ch=1 n=g5 v=0
285918 On ch=1 n=c6 v=0
285918 On ch=2 n=e4 v=0
285920 On ch=1 n=c6 v=92
285920 On ch=2 n=g3 v=92
285982 On ch=2 n=g3 v=0
285982 On ch=1 n=c6 v=0
285984 On ch=2 n=b4 v=92
285984 On ch=2 n=b4 v=92
285984 On ch=1 n=b5 v=92
285984 On ch=1 n=e5 v=92
286046 On ch=2 n=b4 v=0
286046 On ch=1 n=b5 v=0
286046 On ch=1 n=e5 v=0
286048 On ch=2 n=e4 v=92
286048 On ch=1 n=c5 v=92
286110 On ch=2 n=e4 v=0
286110 On ch=1 n=c5 v=0
286112 On ch=2 n=g3 v=92
286112 On ch=1 n=c6 v=92
286144 On ch=2 n=b4 v=0
286174 On ch=2 n=g3 v=0
286174 On ch=1 n=c6 v=0
286176 On ch=1 n=a#5 v=92
286176 On ch=1 n=e5 v=92
286176 On ch=2 n=a#4 v=92
286176 On ch=2 n=a#4 v=92
286238 On ch=1 n=e5 v=0
286238 On ch=1 n=a#5 v=0
286238 On ch=2 n=a#4 v=0
286240 On ch=1 n=c5 v=92
286240 On ch=2 n=e4 v=92
286302 On ch=1 n=c5 v=0
286302 On ch=2 n=e4 v=0
286304 On ch=1 n=c6 v=92
286304 On ch=2 n=g3 v=92
286336 On ch=2 n=a#4 v=0
286366 On ch=1 n=c6 v=0
286366 On ch=2 n=g3 v=0
286368 On ch=1 n=e5 v=92
286368 On ch=1 n=a5 v=92
286368 On ch=2 n=a4 v=92
286368 On ch=2 n=a4 v=92
286430 On ch=1 n=e5 v=0
286430 On ch=1 n=a5 v=0
286430 On ch=2 n=a4 v=0
286432 On ch=1 n=c5 v=92
286432 On ch=2 n=e4 v=92
286494 On ch=1 n=c5 v=0
286494 On ch=2 n=e4 v=0
286496 On ch=1 n=e5 v=127
286496 On ch=1 n=g#5 v=127
286496 On ch=1 n=c6 v=127
286496 On ch=1 n=e6 v=127
286496 On ch=2 n=g3 v=127
286496 On ch=2 n=g#4 v=127
286528 On ch=2 n=a4 v=0
286558 On ch=1 n=e5 v=0
286558 On ch=1 n=g#5 v=0
286558 On ch=1 n=c6 v=0
286558 On ch=1 n=e6 v=0
286558 On ch=2 n=g#4 v=0
286560 On ch=1 n=e5 v=127
286560 On ch=1 n=g5 v=127
286560 On ch=1 n=c6 v=127
286560 On ch=2 n=g4 v=92
286622 On ch=2 n=g3 v=0
286622 On ch=2 n=g4 v=0
286624 On ch=2 n=e4 v=92
286686 On ch=1 n=e5 v=0
286686 On ch=1 n=g5 v=0
286686 On ch=1 n=c6 v=0
286686 On ch=2 n=e4 v=0
286688 On ch=1 n=f6 v=92
286688 On ch=2 n=g3 v=92
286750 On ch=1 n=f6 v=0
286750 On ch=2 n=g3 v=0
286752 On ch=1 n=a5 v=92
286752 On ch=1 n=e6 v=92
286752 On ch=2 n=c#5 v=92
286752 On ch=2 n=c#5 v=92
286814 On ch=1 n=e6 v=0
286814 On ch=2 n=c#5 v=0
286816 On ch=1 n=f5 v=92
286816 On ch=2 n=f4 v=92
286878 On ch=1 n=f5 v=0
286878 On ch=2 n=f4 v=0
286880 On ch=1 n=f6 v=92
286880 On ch=2 n=g3 v=92
286912 On ch=1 n=a5 v=0
286912 On ch=2 n=c#5 v=0
286942 On ch=1 n=f6 v=0
286942 On ch=2 n=g3 v=0
286944 On ch=1 n=g#5 v=92
286944 On ch=1 n=e6 v=92
286944 On ch=2 n=c5 v=92
286944 On ch=2 n=c5 v=92
287006 On ch=1 n=e6 v=0
287006 On ch=2 n=c5 v=0
287008 On ch=1 n=f5 v=92
287008 On ch=2 n=f4 v=92
287070 On ch=1 n=f5 v=0
287070 On ch=2 n=f4 v=0
287072 On ch=1 n=f6 v=92
287072 On ch=2 n=g3 v=92
287104 On ch=1 n=g#5 v=0
287104 On ch=2 n=c5 v=0
287134 On ch=1 n=f6 v=0
287134 On ch=2 n=g3 v=0
287136 On ch=1 n=g5 v=92
287136 On ch=1 n=e6 v=92
287136 On ch=2 n=b4 v=92
287136 On ch=2 n=b4 v=92
287198 On ch=1 n=e6 v=0
287198 On ch=2 n=b4 v=0
287200 On ch=1 n=f5 v=92
287200 On ch=2 n=g3 v=92
287262 On ch=1 n=f5 v=0
287262 On ch=2 n=g3 v=0
287264 On ch=1 n=g#5 v=127
287264 On ch=1 n=b5 v=127
287264 On ch=1 n=d#6 v=127
287264 On ch=1 n=g#6 v=127
287264 On ch=2 n=f4 v=127
287264 On ch=2 n=b4 v=127
287296 On ch=1 n=g5 v=0
287296 On ch=2 n=b4 v=0
287326 On ch=1 n=g#5 v=0
287326 On ch=1 n=b5 v=0
287326 On ch=1 n=d#6 v=0
287326 On ch=1 n=g#6 v=0
287326 On ch=2 n=f4 v=0
287326 On ch=2 n=b4 v=0
287328 On ch=1 n=g5 v=127
287328 On ch=1 n=c6 v=127
287328 On ch=1 n=e6 v=127
287328 On ch=2 n=e4 v=127
287328 On ch=2 n=c5 v=127
287390 On ch=2 n=e4 v=0
287390 On ch=2 n=c5 v=0
287392 On ch=2 n=g3 v=92
287454 On ch=1 n=g5 v=0
287454 On ch=1 n=c6 v=0
287454 On ch=1 n=e6 v=0
287454 On ch=2 n=g3 v=0
287456 On ch=1 n=f6 v=92
287518 On ch=1 n=f6 v=0
287520 On ch=1 n=a5 v=92
287520 On ch=1 n=e6 v=92
287520 On ch=2 n=c#5 v=92
287520 On ch=2 n=c#5 v=92
287582 On ch=1 n=e6 v=0
287582 On ch=2 n=c#5 v=0
287584 On ch=1 n=f5 v=92
287584 On ch=2 n=f4 v=92
287646 On ch=1 n=f5 v=0
287646 On ch=2 n=f4 v=0
287648 On ch=1 n=f6 v=92
287648 On ch=2 n=g3 v=92
287680 On ch=1 n=a5 v=0
287680 On ch=2 n=c#5 v=0
287710 On ch=1 n=f6 v=0
287710 On ch=2 n=g3 v=0
287712 On ch=1 n=g#5 v=92
287712 On ch=1 n=e6 v=92
287712 On ch=2 n=c5 v=92
287712 On ch=2 n=c5 v=92
287774 On ch=1 n=e6 v=0
287774 On ch=2 n=c5 v=0
287776 On ch=1 n=f5 v=92
287776 On ch=2 n=f4 v=92
287838 On ch=1 n=f5 v=0
287838 On ch=2 n=f4 v=0
287840 On ch=1 n=f6 v=92
287840 On ch=2 n=g3 v=92
287872 On ch=1 n=g#5 v=0
287872 On ch=2 n=c5 v=0
287902 On ch=1 n=f6 v=0
287902 On ch=2 n=g3 v=0
287904 On ch=1 n=g5 v=92
287904 On ch=1 n=e6 v=92
287904 On ch=2 n=b4 v=92
287904 On ch=2 n=b4 v=92
287966 On ch=1 n=e6 v=0
287966 On ch=2 n=b4 v=0
287968 On ch=1 n=f5 v=92
287968 On ch=2 n=g3 v=92
288030 On ch=1 n=f5 v=0
288030 On ch=2 n=g3 v=0
288032 On ch=1 n=g#5 v=127
288032 On ch=1 n=b5 v=127
288032 On ch=1 n=d#6 v=127
288032 On ch=1 n=g#6 v=127
288032 On ch=2 n=f4 v=127
288032 On ch=2 n=b4 v=127
288064 On ch=1 n=g5 v=0
288064 On ch=2 n=b4 v=0
288094 On ch=1 n=g#5 v=0
288094 On ch=1 n=b5 v=0
288094 On ch=1 n=d#6 v=0
288094 On ch=1 n=g#6 v=0
288094 On ch=2 n=f4 v=0
288094 On ch=2 n=b4 v=0
288096 On ch=1 n=g5 v=127
288096 On ch=1 n=c6 v=127
288096 On ch=1 n=e6 v=127
288096 On ch=2 n=e4 v=127
288096 On ch=2 n=c5 v=127
288222 On ch=2 n=e4 v=0
288222 On ch=2 n=c5 v=0
288224 On ch=2 n=g4 v=92
288256 On ch=1 n=g5 v=0
288256 On ch=1 n=c6 v=0
288256 On ch=1 n=e6 v=0
288286 On ch=2 n=g4 v=0
288288 On ch=1 n=d#6 v=92
288288 On ch=1 n=d#6 v=92
288288 On ch=2 n=d#5 v=127
288288 On ch=2 n=g#5 v=127
288334 On ch=1 n=d#6 v=0
288336 On ch=1 n=a#5 v=93
288382 On ch=1 n=a#5 v=0
288384 On ch=1 n=b5 v=94
288430 On ch=1 n=b5 v=0
288432 On ch=1 n=g#6 v=95
288448 On ch=1 n=d#6 v=0
288448 On ch=2 n=d#5 v=0
288448 On ch=2 n=g#5 v=0
288478 On ch=1 n=g#6 v=0
288480 On ch=1 n=c6 v=127
288480 On ch=1 n=e6 v=127
288480 On ch=2 n=e5 v=99
288480 On ch=2 n=g5 v=99
288606 On ch=2 n=e5 v=0
288606 On ch=2 n=g5 v=0
288608 On ch=2 n=c5 v=103
288640 On ch=1 n=c6 v=0
288640 On ch=1 n=e6 v=0
288670 On ch=2 n=c5 v=0
288672 On ch=1 n=f#6 v=102
288672 On ch=1 n=f#6 v=102
288672 On ch=2 n=f#5 v=105
288672 On ch=2 n=c6 v=105
288718 On ch=1 n=f#6 v=0
288720 On ch=1 n=d6 v=103
288766 On ch=1 n=d6 v=0
288768 On ch=1 n=d#6 v=104
288814 On ch=1 n=d#6 v=0
288816 On ch=1 n=c7 v=105
288832 On ch=1 n=f#6 v=0
288832 On ch=2 n=f#5 v=0
288862 On ch=1 n=c7 v=0
288864 On ch=1 n=e6 v=127
288864 On ch=1 n=g6 v=127
288864 On ch=2 n=g5 v=111
288990 On ch=2 n=g5 v=0
288990 On ch=2 n=c6 v=0
288992 On ch=2 n=e5 v=115
289024 On ch=1 n=e6 v=0
289024 On ch=1 n=g6 v=0
289054 On ch=2 n=e5 v=0
289056 On ch=1 n=b6 v=113
289056 On ch=1 n=b6 v=113
289056 On ch=2 n=e5 v=127
289056 On ch=2 n=g5 v=127
289056 On ch=2 n=b5 v=127
289102 On ch=1 n=b6 v=0
289104 On ch=1 n=e6 v=115
289150 On ch=1 n=e6 v=0
289152 On ch=1 n=g6 v=117
289198 On ch=1 n=g6 v=0
289200 On ch=1 n=e7 v=119
289216 On ch=1 n=b6 v=0
289216 On ch=2 n=b5 v=0
289246 On ch=1 n=e7 v=0
289248 On ch=1 n=g6 v=121
289248 On ch=1 n=c7 v=121
289248 On ch=2 n=c6 v=123
289374 On ch=1 n=g6 v=0
289374 On ch=1 n=c7 v=0
289374 On ch=2 n=e5 v=0
289374 On ch=2 n=g5 v=0
289374 On ch=2 n=c6 v=0
289376 On ch=1 n=e6 v=127
289376 On ch=1 n=g6 v=127
289376 On ch=1 n=c7 v=127
289376 On ch=1 n=e7 v=127
289376 On ch=2 n=e4 v=127
289376 On ch=2 n=g4 v=127
289376 On ch=2 n=c5 v=127
289376 On ch=2 n=e5 v=127
289438 On ch=1 n=e6 v=0
289438 On ch=1 n=g6 v=0
289438 On ch=1 n=c7 v=0
289438 On ch=1 n=e7 v=0
289438 On ch=2 n=e4 v=0
289438 On ch=2 n=g4 v=0
289438 On ch=2 n=c5 v=0
289438 On ch=2 n=e5 v=0
289440 On ch=1 n=d6 v=127
289440 On ch=1 n=g6 v=127
289440 On ch=1 n=b6 v=127
289440 On ch=1 n=d7 v=127
289440 On ch=2 n=e4 v=127
289440 On ch=2 n=g4 v=127
289440 On ch=2 n=b4 v=127
289440 On ch=2 n=d5 v=127
289566 On ch=1 n=d6 v=0
289566 On ch=1 n=g6 v=0
289566 On ch=1 n=b6 v=0
289566 On ch=1 n=d7 v=0
289566 On ch=2 n=e4 v=0
289566 On ch=2 n=g4 v=0
289566 On ch=2 n=b4 v=0
289566 On ch=2 n=d5 v=0
289568 On ch=1 n=e5 v=127
289568 On ch=1 n=g5 v=127
289568 On ch=1 n=b5 v=127
289568 On ch=1 n=d6 v=127
289568 On ch=2 n=g2 v=127
289568 On ch=2 n=g3 v=127
289630 On ch=1 n=e5 v=0
289630 On ch=1 n=g5 v=0
289630 On ch=1 n=b5 v=0
289630 On ch=1 n=d6 v=0
289630 On ch=2 n=g2 v=0
289630 On ch=2 n=g3 v=0
289632 On ch=1 n=e5 v=127
289632 On ch=1 n=a5 v=127
289632 On ch=1 n=c6 v=127
289632 On ch=1 n=e6 v=127
289632 On ch=2 n=e4 v=127
289632 On ch=2 n=a4 v=127
289632 On ch=2 n=c5 v=127
289760 On ch=1 n=a6 v=127
289760 On ch=1 n=c7 v=127
289760 On ch=1 n=e7 v=127
289760 On ch=2 n=e5 v=127
289760 On ch=2 n=a5 v=127
289760 On ch=2 n=c6 v=127
289822 On ch=1 n=a6 v=0
289822 On ch=1 n=c7 v=0
289822 On ch=1 n=e7 v=0
289822 On ch=2 n=e5 v=0
289822 On ch=2 n=a5 v=0
289822 On ch=2 n=c6 v=0
289824 On ch=1 n=a6 v=127
289824 On ch=1 n=c7 v=127
289824 On ch=1 n=e7 v=127
289824 On ch=1 n=a7 v=127
289824 On ch=2 n=c5 v=127
289824 On ch=2 n=e5 v=127
289824 On ch=2 n=a5 v=127
289824 On ch=2 n=c6 v=127
289968 On ch=1 n=e5 v=0
289968 On ch=1 n=a5 v=0
289968 On ch=1 n=c6 v=0
289968 On ch=1 n=e6 v=0
289968 On ch=2 n=e4 v=0
289968 On ch=2 n=a4 v=0
289968 On ch=2 n=c5 v=0
290142 On ch=1 n=a6 v=0
290142 On ch=1 n=c7 v=0
290142 On ch=1 n=e7 v=0
290142 On ch=1 n=a7 v=0
290142 On ch=2 n=c5 v=0
290142 On ch=2 n=e5 v=0
290142 On ch=2 n=a5 v=0
290142 On ch=2 n=c6 v=0
290144 On ch=1 n=c6 v=127
290144 On ch=1 n=e6 v=127
290144 On ch=1 n=a6 v=127
290144 On ch=1 n=c7 v=127
290144 On ch=2 n=e4 v=127
290144 On ch=2 n=a4 v=127
290144 On ch=2 n=c5 v=127
290206 On ch=1 n=c6 v=0
290206 On ch=1 n=e6 v=0
290206 On ch=1 n=a6 v=0
290206 On ch=1 n=c7 v=0
290206 On ch=2 n=e4 v=0
290206 On ch=2 n=a4 v=0
290206 On ch=2 n=c5 v=0
290208 On ch=1 n=b5 v=127
290208 On ch=1 n=e6 v=127
290208 On ch=1 n=g6 v=127
290208 On ch=1 n=b6 v=127
290208 On ch=2 n=e4 v=127
290208 On ch=2 n=g4 v=127
290208 On ch=2 n=b4 v=127
290334 On ch=1 n=b5 v=0
290334 On ch=1 n=e6 v=0
290334 On ch=1 n=g6 v=0
290334 On ch=1 n=b6 v=0
290334 On ch=2 n=e4 v=0
290334 On ch=2 n=g4 v=0
290334 On ch=2 n=b4 v=0
290336 On ch=1 n=c5 v=127
290336 On ch=1 n=e5 v=127
290336 On ch=1 n=g5 v=127
290336 On ch=1 n=b5 v=127
290336 On ch=2 n=g2 v=127
290336 On ch=2 n=g3 v=127
290398 On ch=1 n=c5 v=0
290398 On ch=1 n=e5 v=0
290398 On ch=1 n=g5 v=0
290398 On ch=1 n=b5 v=0
290398 On ch=2 n=g2 v=0
290398 On ch=2 n=g3 v=0
290400 On ch=1 n=c5 v=127
290400 On ch=1 n=e5 v=127
290400 On ch=1 n=a5 v=127
290400 On ch=1 n=c6 v=127
290400 On ch=2 n=e4 v=127
290400 On ch=2 n=a4 v=127
290528 On ch=1 n=e6 v=127
290528 On ch=1 n=a6 v=127
290528 On ch=1 n=c7 v=127
290528 On ch=2 n=c5 v=127
290528 On ch=2 n=e5 v=127
290528 On ch=2 n=a5 v=127
290590 On ch=1 n=e6 v=0
290590 On ch=1 n=a6 v=0
290590 On ch=1 n=c7 v=0
290590 On ch=2 n=c5 v=0
290590 On ch=2 n=e5 v=0
290590 On ch=2 n=a5 v=0
290592 On ch=1 n=e6 v=127
290592 On ch=1 n=a6 v=127
290592 On ch=1 n=c7 v=127
290592 On ch=1 n=e7 v=127
290592 On ch=2 n=a4 v=127
290592 On ch=2 n=c5 v=127
290592 On ch=2 n=e5 v=127
290592 On ch=2 n=a5 v=127
290736 On ch=1 n=c5 v=0
290736 On ch=1 n=e5 v=0
290736 On ch=1 n=a5 v=0
290736 On ch=1 n=c6 v=0
290736 On ch=2 n=e4 v=0
290736 On ch=2 n=a4 v=0
290910 On ch=1 n=e6 v=0
290910 On ch=1 n=a6 v=0
290910 On ch=1 n=c7 v=0
290910 On ch=1 n=e7 v=0
290910 On ch=2 n=a4 v=0
290910 On ch=2 n=c5 v=0
290910 On ch=2 n=e5 v=0
290910 On ch=2 n=a5 v=0
290912 On ch=1 n=c6 v=127
290912 On ch=1 n=e6 v=127
290912 On ch=1 n=a6 v=127
290912 On ch=2 n=c5 v=127
290912 On ch=2 n=e5 v=127
290912 On ch=2 n=a5 v=127
290974 On ch=1 n=c6 v=0
290974 On ch=1 n=e6 v=0
290974 On ch=1 n=a6 v=0
290974 On ch=2 n=c5 v=0
290974 On ch=2 n=e5 v=0
290974 On ch=2 n=a5 v=0
290976 On ch=1 n=c6 v=127
290976 On ch=1 n=e6 v=127
290976 On ch=1 n=g6 v=127
290976 On ch=2 n=b4 v=127
290976 On ch=2 n=e5 v=127
290976 On ch=2 n=g5 v=127
291102 On ch=1 n=c6 v=0
291102 On ch=1 n=e6 v=0
291102 On ch=1 n=g6 v=0
291102 On ch=2 n=b4 v=0
291102 On ch=2 n=e5 v=0
291102 On ch=2 n=g5 v=0
291104 On ch=1 n=c5 v=127
291104 On ch=1 n=e5 v=127
291104 On ch=1 n=g5 v=127
291104 On ch=2 n=e4 v=127
291104 On ch=2 n=g4 v=127
291166 On ch=1 n=c5 v=0
291166 On ch=1 n=e5 v=0
291166 On ch=1 n=g5 v=0
291166 On ch=2 n=e4 v=0
291166 On ch=2 n=g4 v=0
291168 On ch=1 n=a4 v=127
291168 On ch=1 n=c5 v=127
291168 On ch=1 n=e5 v=127
291168 On ch=1 n=a5 v=127
291168 On ch=2 n=g3 v=127
291168 On ch=2 n=c4 v=127
291168 On ch=2 n=e4 v=127
291176 Tempo 240963
291176 Tempo 240963
291184 Tempo 241935
291184 Tempo 241935
291192 Tempo 242914
291192 Tempo 242914
291200 Tempo 243902
291200 Tempo 243902
291209 Tempo 244897
291209 Tempo 244897
291217 Tempo 245901
291217 Tempo 245901
291225 Tempo 246913
291225 Tempo 246913
291233 Tempo 247933
291233 Tempo 247933
291242 Tempo 248962
291242 Tempo 248962
291250 Tempo 250000
291250 Tempo 250000
291258 Tempo 251046
291258 Tempo 251046
291266 Tempo 252100
291266 Tempo 252100
291274 Tempo 253164
291274 Tempo 253164
291283 Tempo 254237
291283 Tempo 254237
291291 Tempo 255319
291291 Tempo 255319
291294 On ch=1 n=a4 v=0
291294 On ch=1 n=c5 v=0
291294 On ch=1 n=e5 v=0
291294 On ch=1 n=a5 v=0
291294 On ch=2 n=g3 v=0
291294 On ch=2 n=c4 v=0
291294 On ch=2 n=e4 v=0
291296 On ch=1 n=c6 v=127
291296 On ch=1 n=e6 v=127
291296 On ch=1 n=a6 v=127
291296 On ch=2 n=c5 v=127
291296 On ch=2 n=e5 v=127
291296 On ch=2 n=a5 v=127
291299 Tempo 256410
291299 Tempo 256410
291307 Tempo 257510
291307 Tempo 257510
291316 Tempo 258620
291316 Tempo 258620
291324 Tempo 259740
291324 Tempo 259740
291332 Tempo 260869
291332 Tempo 260869
291340 Tempo 262008
291340 Tempo 262008
291349 Tempo 263157
291349 Tempo 263157
291357 Tempo 264317
291357 Tempo 264317
291358 On ch=1 n=c6 v=0
291358 On ch=1 n=e6 v=0
291358 On ch=1 n=a6 v=0
291358 On ch=2 n=c5 v=0
291358 On ch=2 n=e5 v=0
291358 On ch=2 n=a5 v=0
291360 On ch=1 n=c6 v=127
291360 On ch=1 n=e6 v=127
291360 On ch=1 n=g6 v=127
291360 On ch=1 n=c7 v=127
291360 On ch=2 n=g4 v=127
291360 On ch=2 n=c5 v=127
291360 On ch=2 n=e5 v=127
291360 On ch=2 n=g5 v=127
291365 Tempo 265486
291365 Tempo 265486
291373 Tempo 266666
291373 Tempo 266666
291381 Tempo 267857
291381 Tempo 267857
291390 Tempo 269058
291390 Tempo 269058
291398 Tempo 270270
291398 Tempo 270270
291406 Tempo 271493
291406 Tempo 271493
291408 On ch=1 n=c6 v=0
291408 On ch=1 n=e6 v=0
291408 On ch=1 n=g6 v=0
291408 On ch=1 n=c7 v=0
291408 On ch=2 n=g4 v=0
291408 On ch=2 n=c5 v=0
291408 On ch=2 n=e5 v=0
291408 On ch=2 n=g5 v=0
291414 Tempo 272727
291414 Tempo 272727
291423 Tempo 273972
291423 Tempo 273972
291431 Tempo 275229
291431 Tempo 275229
291439 Tempo 276497
291439 Tempo 276497
291447 Tempo 277777
291447 Tempo 277777
291456 Tempo 279069
291456 Tempo 279069
291464 Tempo 280373
291464 Tempo 280373
291472 Tempo 281690
291472 Tempo 281690
291480 Tempo 283018
291480 Tempo 283018
291488 Tempo 284360
291488 Tempo 284360
291497 Tempo 285714
291497 Tempo 285714
291505 Tempo 287081
291505 Tempo 287081
291513 Tempo 288461
291513 Tempo 288461
291521 Tempo 289855
291521 Tempo 289855
291530 Tempo 291262
291530 Tempo 291262
291538 Tempo 292682
291538 Tempo 292682
291546 Tempo 294117
291546 Tempo 294117
291552 On ch=1 n=c6 v=127
291552 On ch=1 n=d6 v=127
291552 On ch=1 n=a6 v=127
291552 On ch=1 n=c7 v=127
291552 On ch=2 n=f#4 v=127
291552 On ch=2 n=a4 v=127
291552 On ch=2 n=d5 v=127
291552 On ch=2 n=f#5 v=127
291554 Tempo 295566
291554 Tempo 295566
291562 Tempo 297029
291562 Tempo 297029
291571 Tempo 298507
291571 Tempo 298507
291579 Tempo 300000
291579 Tempo 300000
291587 Tempo 301507
291587 Tempo 301507
291595 Tempo 303030
291595 Tempo 303030
291600 On ch=1 n=c6 v=0
291600 On ch=1 n=d6 v=0
291600 On ch=1 n=a6 v=0
291600 On ch=1 n=c7 v=0
291600 On ch=2 n=f#4 v=0
291600 On ch=2 n=a4 v=0
291600 On ch=2 n=d5 v=0
291600 On ch=2 n=f#5 v=0
291604 Tempo 304568
291604 Tempo 304568
291612 Tempo 306122
291612 Tempo 306122
291620 Tempo 307692
291620 Tempo 307692
291628 Tempo 309278
291628 Tempo 309278
291637 Tempo 310880
291637 Tempo 310880
291645 Tempo 312500
291645 Tempo 312500
291653 Tempo 314136
291653 Tempo 314136
291661 Tempo 315789
291661 Tempo 315789
291669 Tempo 317460
291669 Tempo 317460
291678 Tempo 319148
291678 Tempo 319148
291686 Tempo 320855
291686 Tempo 320855
291694 Tempo 322580
291694 Tempo 322580
291702 Tempo 324324
291702 Tempo 324324
291711 Tempo 326086
291711 Tempo 326086
291719 Tempo 327868
291719 Tempo 327868
291727 Tempo 329670
291727 Tempo 329670
291735 Tempo 331491
291735 Tempo 331491
291744 Tempo 333333
291744 Tempo 333333
291744 On ch=1 n=c6 v=127
291744 On ch=1 n=g6 v=127
291744 On ch=1 n=c7 v=127
291744 On ch=2 n=e4 v=127
291744 On ch=2 n=g4 v=127
291744 On ch=2 n=c5 v=127
291744 On ch=2 n=e5 v=127
291792 On ch=1 n=c6 v=0
291792 On ch=1 n=g6 v=0
291792 On ch=1 n=c7 v=0
291792 On ch=2 n=e4 v=0
291792 On ch=2 n=g4 v=0
291792 On ch=2 n=c5 v=0
291792 On ch=2 n=e5 v=0
291936 Tempo 272727
291936 Tempo 272727
291936 Par ch=2 c=64 v=127
291936 On ch=1 n=f#4 v=127
291936 On ch=1 n=c5 v=127
291936 On ch=1 n=d5 v=127
291936 On ch=2 n=d3 v=127
291936 On ch=2 n=a3 v=127
292096 On ch=1 n=f#4 v=0
292096 On ch=1 n=c5 v=0
292096 On ch=1 n=d5 v=0
292096 On ch=2 n=d3 v=0
292096 On ch=2 n=a3 v=0
292128 On ch=1 n=c6 v=92
292128 On ch=1 n=d6 v=92
292128 On ch=1 n=f#6 v=92
292128 On ch=1 n=c7 v=92
292256 On ch=2 n=f#4 v=127
292320 On ch=2 n=d5 v=92
292382 On ch=2 n=d5 v=0
292384 On ch=2 n=c5 v=92
292414 On ch=1 n=c6 v=0
292414 On ch=1 n=c7 v=0
292416 On ch=1 n=b5 v=92
292416 On ch=1 n=b6 v=92
292446 On ch=2 n=c5 v=0
292448 On ch=2 n=d4 v=92
292480 On ch=2 n=f#4 v=0
292510 On ch=1 n=b5 v=0
292510 On ch=1 n=d6 v=0
292510 On ch=1 n=f#6 v=0
292510 On ch=1 n=b6 v=0
292510 On ch=2 n=d4 v=0
292512 On ch=1 n=a5 v=92
292512 On ch=1 n=c6 v=92
292512 On ch=1 n=e6 v=92
292512 On ch=1 n=a6 v=92
292576 On ch=2 n=g4 v=92
292576 On ch=2 n=g4 v=92
292638 On ch=2 n=g4 v=0
292640 On ch=2 n=c5 v=92
292702 On ch=2 n=c5 v=0
292704 Par ch=2 c=64 v=0
292704 Par ch=2 c=64 v=127
292704 On ch=2 n=e5 v=92
292766 On ch=2 n=e5 v=0
292768 On ch=2 n=c5 v=92
292798 On ch=1 n=a5 v=0
292798 On ch=1 n=a6 v=0
292800 On ch=1 n=g5 v=92
292800 On ch=1 n=g6 v=92
292830 On ch=2 n=c5 v=0
292832 On ch=2 n=d4 v=92
292864 On ch=2 n=g4 v=0
292894 On ch=1 n=g5 v=0
292894 On ch=1 n=c6 v=0
292894 On ch=1 n=e6 v=0
292894 On ch=1 n=g6 v=0
292894 On ch=2 n=d4 v=0
292896 On ch=1 n=f#5 v=92
292896 On ch=1 n=c6 v=92
292896 On ch=1 n=f#6 v=92
292960 On ch=2 n=a4 v=92
292960 On ch=2 n=a4 v=92
293022 On ch=2 n=a4 v=0
293024 On ch=2 n=c5 v=90
293086 On ch=2 n=c5 v=0
293088 On ch=2 n=f#5 v=87
293150 On ch=2 n=f#5 v=0
293152 On ch=2 n=c5 v=84
293214 On ch=2 n=c5 v=0
293216 On ch=2 n=d4 v=81
293232 On ch=1 n=f#5 v=0
293232 On ch=1 n=c6 v=0
293232 On ch=1 n=f#6 v=0
293248 On ch=2 n=a4 v=0
293278 On ch=2 n=d4 v=0
293280 On ch=1 n=c6 v=92
293280 On ch=1 n=e6 v=92
293280 On ch=2 n=g5 v=78
293280 On ch=2 n=g5 v=78
293342 On ch=2 n=g5 v=0
293344 On ch=2 n=c5 v=75
293374 On ch=1 n=e6 v=0
293376 On ch=1 n=g6 v=84
293406 On ch=2 n=c5 v=0
293408 On ch=2 n=b4 v=72
293440 On ch=2 n=g5 v=0
293470 On ch=1 n=g6 v=0
293470 On ch=2 n=b4 v=0
293472 Par ch=2 c=64 v=0
293472 Par ch=2 c=64 v=127
293472 On ch=1 n=f#6 v=76
293472 On ch=2 n=f#5 v=69
293472 On ch=2 n=f#5 v=69
293534 On ch=2 n=f#5 v=0
293536 On ch=2 n=c5 v=66
293566 On ch=1 n=f#6 v=0
293568 On ch=1 n=e6 v=68
293598 On ch=2 n=c5 v=0
293600 On ch=2 n=a4 v=63
293632 On ch=1 n=c6 v=0
293632 On ch=2 n=f#5 v=0
293662 On ch=1 n=e6 v=0
293664 On ch=1 n=f#5 v=60
293664 On ch=1 n=c6 v=60
293664 On ch=1 n=f#6 v=60
293726 On ch=2 n=a4 v=0
293728 On ch=2 n=b4 v=60
293790 On ch=2 n=b4 v=0
293792 On ch=2 n=a4 v=60
293854 On ch=2 n=a4 v=0
293856 On ch=2 n=c5 v=60
293918 On ch=2 n=c5 v=0
293920 On ch=2 n=a4 v=63
293982 On ch=2 n=a4 v=0
293984 On ch=2 n=d4 v=66
294000 On ch=1 n=f#5 v=0
294000 On ch=1 n=c6 v=0
294000 On ch=1 n=f#6 v=0
294046 On ch=2 n=d4 v=0
294048 On ch=1 n=e5 v=60
294048 On ch=1 n=c6 v=60
294048 On ch=1 n=e6 v=60
294048 On ch=2 n=g4 v=69
294048 On ch=2 n=g4 v=69
294110 On ch=2 n=g4 v=0
294112 On ch=2 n=a3 v=72
294142 On ch=1 n=e6 v=0
294144 On ch=1 n=f#6 v=68
294174 On ch=2 n=a3 v=0
294176 On ch=2 n=d3 v=76
294208 On ch=1 n=e5 v=0
294208 On ch=1 n=c6 v=0
294208 On ch=2 n=g4 v=0
294238 On ch=1 n=f#6 v=0
294238 On ch=2 n=d3 v=0
294240 Par ch=2 c=64 v=0
294240 Par ch=2 c=64 v=127
294240 On ch=1 n=d5 v=76
294240 On ch=1 n=c6 v=76
294240 On ch=1 n=d6 v=76
294240 On ch=2 n=f#4 v=80
294240 On ch=2 n=f#4 v=80
294302 On ch=2 n=f#4 v=0
294304 On ch=2 n=a3 v=84
294366 On ch=2 n=a3 v=0
294368 On ch=2 n=d3 v=88
294400 On ch=1 n=d5 v=0
294400 On ch=1 n=c6 v=0
294400 On ch=1 n=d6 v=0
294400 On ch=2 n=f#4 v=0
294430 On ch=2 n=d3 v=0
294432 On ch=1 n=c6 v=92
294432 On ch=1 n=d6 v=92
294432 On ch=1 n=f#6 v=92
294432 On ch=1 n=c7 v=92
294496 On ch=2 n=f#4 v=92
294496 On ch=2 n=f#4 v=92
294558 On ch=2 n=f#4 v=0
294560 On ch=2 n=c5 v=92
294622 On ch=2 n=c5 v=0
294624 On ch=2 n=d5 v=92
294686 On ch=2 n=d5 v=0
294688 On ch=2 n=c5 v=92
294718 On ch=1 n=c6 v=0
294718 On ch=1 n=c7 v=0
294720 On ch=1 n=b5 v=92
294720 On ch=1 n=b6 v=92
294750 On ch=2 n=c5 v=0
294752 On ch=2 n=d4 v=92
294784 On ch=2 n=f#4 v=0
294814 On ch=1 n=b5 v=0
294814 On ch=1 n=d6 v=0
294814 On ch=1 n=f#6 v=0
294814 On ch=1 n=b6 v=0
294814 On ch=2 n=d4 v=0
294816 On ch=1 n=a5 v=92
294816 On ch=1 n=c6 v=92
294816 On ch=1 n=e6 v=92
294816 On ch=1 n=a6 v=92
294880 On ch=2 n=g4 v=92
294880 On ch=2 n=g4 v=92
294942 On ch=2 n=g4 v=0
294944 On ch=2 n=c5 v=92
295006 On ch=2 n=c5 v=0
295008 Par ch=2 c=64 v=0
295008 Par ch=2 c=64 v=127
295008 On ch=2 n=e5 v=92
295070 On ch=2 n=e5 v=0
295072 On ch=2 n=c5 v=92
295102 On ch=1 n=a5 v=0
295102 On ch=1 n=a6 v=0
295104 On ch=1 n=g5 v=92
295104 On ch=1 n=g6 v=92
295134 On ch=2 n=c5 v=0
295136 On ch=2 n=d4 v=92
295168 On ch=2 n=g4 v=0
295198 On ch=1 n=g5 v=0
295198 On ch=1 n=c6 v=0
295198 On ch=1 n=e6 v=0
295198 On ch=1 n=g6 v=0
295198 On ch=2 n=d4 v=0
295200 On ch=1 n=f#5 v=92
295200 On ch=1 n=c6 v=92
295200 On ch=1 n=f#6 v=92
295264 On ch=2 n=a4 v=92
295264 On ch=2 n=a4 v=92
295326 On ch=2 n=a4 v=0
295328 On ch=2 n=c5 v=92
295390 On ch=2 n=c5 v=0
295392 On ch=2 n=f#5 v=92
295454 On ch=2 n=f#5 v=0
295456 On ch=2 n=c5 v=92
295486 On ch=1 n=f#6 v=0
295486 On ch=2 n=a4 v=0
295488 On ch=1 n=a6 v=92
295518 On ch=2 n=c5 v=0
295520 On ch=2 n=d4 v=92
295536 On ch=1 n=f#5 v=0
295536 On ch=1 n=c6 v=0
295582 On ch=1 n=a6 v=0
295582 On ch=2 n=d4 v=0
295584 On ch=1 n=c6 v=92
295584 On ch=1 n=e6 v=92
295584 On ch=2 n=b5 v=92
295584 On ch=2 n=b5 v=92
295646 On ch=2 n=b5 v=0
295648 On ch=2 n=e5 v=92
295678 On ch=1 n=e6 v=0
295678 On ch=2 n=b5 v=0
295680 On ch=1 n=g6 v=92
295710 On ch=2 n=e5 v=0
295712 On ch=2 n=c5 v=92
295774 On ch=1 n=g6 v=0
295774 On ch=2 n=c5 v=0
295776 Par ch=2 c=64 v=0
295776 Par ch=2 c=64 v=127
295776 On ch=1 n=f#6 v=92
295776 On ch=2 n=a5 v=92
295776 On ch=2 n=a5 v=92
295838 On ch=2 n=a5 v=0
295840 On ch=2 n=d5 v=92
295870 On ch=1 n=f#6 v=0
295870 On ch=2 n=a5 v=0
295872 On ch=1 n=e6 v=92
295902 On ch=2 n=d5 v=0
295904 On ch=2 n=c5 v=92
295936 On ch=1 n=c6 v=0
295966 On ch=1 n=e6 v=0
295968 On ch=1 n=f#5 v=92
295968 On ch=1 n=c6 v=92
295968 On ch=1 n=f#6 v=92
296030 On ch=2 n=c5 v=0
296032 On ch=2 n=b4 v=91
296094 On ch=2 n=b4 v=0
296096 On ch=2 n=a4 v=89
296158 On ch=2 n=a4 v=0
296160 On ch=2 n=c5 v=87
296222 On ch=2 n=c5 v=0
296224 On ch=2 n=a4 v=85
296286 On ch=2 n=a4 v=0
296288 On ch=2 n=d4 v=83
296304 On ch=1 n=f#5 v=0
296304 On ch=1 n=c6 v=0
296304 On ch=1 n=f#6 v=0
296350 On ch=2 n=d4 v=0
296352 On ch=1 n=e5 v=81
296352 On ch=1 n=c6 v=81
296352 On ch=1 n=e6 v=81
296352 On ch=2 n=g4 v=81
296352 On ch=2 n=g4 v=81
296414 On ch=2 n=g4 v=0
296416 On ch=2 n=a3 v=79
296446 On ch=1 n=e6 v=0
296446 On ch=2 n=g4 v=0
296448 On ch=1 n=f#6 v=78
296478 On ch=2 n=a3 v=0
296480 On ch=2 n=d3 v=77
296512 On ch=1 n=e5 v=0
296512 On ch=1 n=c6 v=0
296542 On ch=1 n=f#6 v=0
296542 On ch=2 n=d3 v=0
296544 Par ch=2 c=64 v=0
296544 Par ch=2 c=64 v=127
296544 On ch=1 n=d5 v=75
296544 On ch=1 n=c6 v=75
296544 On ch=1 n=d6 v=75
296544 On ch=2 n=f#4 v=75
296544 On ch=2 n=f#4 v=75
296606 On ch=2 n=f#4 v=0
296608 On ch=2 n=a3 v=75
296638 On ch=1 n=d6 v=0
296638 On ch=2 n=f#4 v=0
296640 On ch=1 n=e6 v=75
296670 On ch=2 n=a3 v=0
296672 On ch=2 n=d3 v=75
296704 On ch=1 n=d5 v=0
296704 On ch=1 n=c6 v=0
296734 On ch=1 n=e6 v=0
296734 On ch=2 n=d3 v=0
296736 On ch=1 n=f#5 v=75
296736 On ch=1 n=c6 v=75
296736 On ch=1 n=d6 v=75
296736 On ch=1 n=f#6 v=75
296800 On ch=2 n=f#4 v=75
296862 On ch=2 n=f#4 v=0
296864 On ch=2 n=c5 v=75
296926 On ch=2 n=c5 v=0
296928 On ch=2 n=d5 v=75
296990 On ch=2 n=d5 v=0
296992 On ch=2 n=d4 v=75
297022 On ch=1 n=f#5 v=0
297022 On ch=1 n=f#6 v=0
297024 On ch=1 n=g5 v=75
297024 On ch=1 n=g6 v=75
297054 On ch=2 n=d4 v=0
297056 On ch=2 n=f#4 v=75
297118 On ch=1 n=g5 v=0
297118 On ch=1 n=c6 v=0
297118 On ch=1 n=d6 v=0
297118 On ch=1 n=g6 v=0
297118 On ch=2 n=f#4 v=0
297120 On ch=1 n=a5 v=75
297120 On ch=1 n=c6 v=75
297120 On ch=1 n=d6 v=75
297120 On ch=1 n=a6 v=75
297120 On ch=2 n=c5 v=75
297182 On ch=2 n=c5 v=0
297184 On ch=2 n=d5 v=75
297246 On ch=2 n=d5 v=0
297248 On ch=2 n=e5 v=75
297280 On ch=1 n=c6 v=0
297280 On ch=1 n=d6 v=0
297310 On ch=2 n=e5 v=0
297312 Par ch=2 c=64 v=0
297312 Par ch=2 c=64 v=127
297312 On ch=2 n=f5 v=75
297312 On ch=2 n=d5 v=75
297312 On ch=1 n=f6 v=75
297312 On ch=1 n=d6 v=75
297406 On ch=1 n=a6 v=0
297406 On ch=1 n=a5 v=0
297408 On ch=2 n=d4 v=77
297408 On ch=2 n=g3 v=77
297408 On ch=1 n=b6 v=77
297408 On ch=1 n=b5 v=77
297502 On ch=2 n=g3 v=0
297502 On ch=2 n=d4 v=0
297502 On ch=1 n=b6 v=0
297502 On ch=1 n=f6 v=0
297502 On ch=1 n=d6 v=0
297502 On ch=1 n=b5 v=0
297504 On ch=1 n=c7 v=79
297504 On ch=1 n=a6 v=79
297504 On ch=1 n=f6 v=79
297504 On ch=1 n=c6 v=79
297504 On ch=2 n=f4 v=79
297566 On ch=2 n=f4 v=0
297568 On ch=2 n=a4 v=80
297630 On ch=2 n=a4 v=0
297632 On ch=2 n=c5 v=81
297696 On ch=2 n=e5 v=82
297758 On ch=2 n=e5 v=0
297760 On ch=2 n=f5 v=83
297790 On ch=1 n=c6 v=0
297790 On ch=1 n=c7 v=0
297792 On ch=1 n=e6 v=85
297792 On ch=1 n=e7 v=85
297822 On ch=2 n=f5 v=0
297824 On ch=2 n=a5 v=84
297856 On ch=2 n=c5 v=0
297886 On ch=1 n=e6 v=0
297886 On ch=1 n=f6 v=0
297886 On ch=1 n=a6 v=0
297886 On ch=1 n=e7 v=0
297886 On ch=2 n=a5 v=0
297888 On ch=1 n=b5 v=87
297888 On ch=1 n=f6 v=87
297888 On ch=1 n=g6 v=87
297888 On ch=1 n=b6 v=87
297888 On ch=2 n=b4 v=86
297888 On ch=2 n=f5 v=86
297950 On ch=2 n=f5 v=0
297952 On ch=2 n=g5 v=88
297982 On ch=1 n=b5 v=0
297982 On ch=1 n=b6 v=0
297984 On ch=1 n=d6 v=89
297984 On ch=1 n=d7 v=89
298014 On ch=2 n=g5 v=0
298016 On ch=2 n=g4 v=90
298032 On ch=2 n=d5 v=0
298032 On ch=2 n=f5 v=0
298048 On ch=2 n=b4 v=0
298078 On ch=1 n=d6 v=0
298078 On ch=1 n=f6 v=0
298078 On ch=1 n=g6 v=0
298078 On ch=1 n=d7 v=0
298078 On ch=2 n=g4 v=0
298080 Par ch=2 c=64 v=0
298080 Par ch=2 c=64 v=127
298080 On ch=1 n=b5 v=92
298080 On ch=1 n=e6 v=92
298080 On ch=1 n=b6 v=92
298144 On ch=2 n=c3 v=92
298144 On ch=2 n=g3 v=92
298174 On ch=1 n=b5 v=0
298174 On ch=1 n=b6 v=0
298176 On ch=1 n=d6 v=92
298176 On ch=1 n=d7 v=92
298206 On ch=2 n=c3 v=0
298206 On ch=2 n=g3 v=0
298208 On ch=2 n=e4 v=92
298270 On ch=1 n=d6 v=0
298270 On ch=1 n=e6 v=0
298270 On ch=1 n=d7 v=0
298270 On ch=2 n=e4 v=0
298272 On ch=1 n=a5 v=92
298272 On ch=1 n=c6 v=92
298272 On ch=1 n=e6 v=92
298272 On ch=1 n=a6 v=92
298272 On ch=2 n=g4 v=92
298334 On ch=2 n=g4 v=0
298336 On ch=2 n=c5 v=92
298398 On ch=2 n=c5 v=0
298400 On ch=2 n=e5 v=92
298462 On ch=2 n=e5 v=0
298464 On ch=2 n=f#5 v=92
298526 On ch=2 n=f#5 v=0
298528 On ch=2 n=g5 v=92
298558 On ch=1 n=a5 v=0
298558 On ch=1 n=a6 v=0
298560 On ch=1 n=c7 v=92
298590 On ch=2 n=g5 v=0
298592 On ch=2 n=e5 v=92
298654 On ch=1 n=c6 v=0
298654 On ch=1 n=e6 v=0
298654 On ch=1 n=c7 v=0
298654 On ch=2 n=e5 v=0
298656 On ch=1 n=a5 v=92
298656 On ch=1 n=d#6 v=92
298656 On ch=1 n=a6 v=92
298656 On ch=2 n=b4 v=92
298718 On ch=2 n=b4 v=0
298720 On ch=2 n=c5 v=92
298750 On ch=1 n=a5 v=0
298750 On ch=1 n=a6 v=0
298752 On ch=1 n=b5 v=92
298752 On ch=1 n=b6 v=92
298782 On ch=2 n=c5 v=0
298784 On ch=2 n=a4 v=92
298846 On ch=1 n=b5 v=0
298846 On ch=1 n=d#6 v=0
298846 On ch=1 n=b6 v=0
298846 On ch=2 n=a4 v=0
298848 Par ch=2 c=64 v=0
298848 Par ch=2 c=64 v=127
298848 On ch=1 n=a5 v=92
298848 On ch=1 n=d#6 v=92
298848 On ch=1 n=a6 v=92
298848 On ch=2 n=c4 v=92
298848 On ch=2 n=f#4 v=92
298910 On ch=2 n=f#4 v=0
298912 On ch=2 n=g4 v=92
298942 On ch=1 n=a5 v=0
298942 On ch=1 n=a6 v=0
298944 On ch=1 n=b5 v=92
298944 On ch=1 n=b6 v=92
298974 On ch=2 n=g4 v=0
298976 On ch=2 n=a4 v=92
299038 On ch=1 n=b5 v=0
299038 On ch=1 n=d#6 v=0
299038 On ch=1 n=b6 v=0
299038 On ch=2 n=a4 v=0
299040 On ch=1 n=g5 v=92
299040 On ch=1 n=e6 v=92
299040 On ch=1 n=g6 v=92
299040 On ch=2 n=g4 v=92
299102 On ch=2 n=g4 v=0
299104 On ch=2 n=c5 v=92
299166 On ch=2 n=c5 v=0
299168 On ch=2 n=e5 v=92
299230 On ch=2 n=e5 v=0
299232 On ch=2 n=g5 v=92
299326 On ch=1 n=g5 v=0
299326 On ch=1 n=g6 v=0
299328 On ch=1 n=b5 v=88
299328 On ch=1 n=b6 v=88
299358 On ch=2 n=g5 v=0
299360 On ch=2 n=c4 v=87
299392 On ch=2 n=c4 v=0
299422 On ch=1 n=b5 v=0
299422 On ch=1 n=e6 v=0
299422 On ch=1 n=b6 v=0
299422 On ch=2 n=c4 v=0
299424 On ch=1 n=a5 v=84
299424 On ch=1 n=d6 v=84
299424 On ch=1 n=a6 v=84
299424 On ch=2 n=b3 v=84
299424 On ch=2 n=b3 v=84
299486 On ch=2 n=b3 v=0
299488 On ch=2 n=g4 v=81
299518 On ch=1 n=a5 v=0
299518 On ch=1 n=a6 v=0
299520 On ch=1 n=b5 v=80
299520 On ch=1 n=b6 v=80
299550 On ch=2 n=g4 v=0
299552 On ch=2 n=d5 v=78
299584 On ch=2 n=b3 v=0
299614 On ch=1 n=b5 v=0
299614 On ch=1 n=d6 v=0
299614 On ch=1 n=b6 v=0
299614 On ch=2 n=d5 v=0
299616 Par ch=2 c=64 v=0
299616 Par ch=2 c=64 v=127
299616 On ch=1 n=g5 v=75
299616 On ch=1 n=c#6 v=75
299616 On ch=1 n=g6 v=75
299616 On ch=2 n=a3 v=75
299616 On ch=2 n=e4 v=75
299616 On ch=2 n=c#5 v=75
299776 On ch=1 n=g5 v=0
299776 On ch=1 n=c#6 v=0
299776 On ch=1 n=g6 v=0
299776 On ch=2 n=a3 v=0
299776 On ch=2 n=e4 v=0
299776 On ch=2 n=c#5 v=0
299808 On ch=1 n=g6 v=92
299808 On ch=1 n=c#7 v=92
299808 On ch=1 n=g7 v=92
299872 On ch=2 n=a4 v=92
299872 On ch=2 n=a4 v=92
299934 On ch=2 n=a4 v=0
299936 On ch=2 n=c#5 v=92
299998 On ch=2 n=c#5 v=0
300000 On ch=2 n=g5 v=92
300062 On ch=2 n=g5 v=0
300064 On ch=2 n=c#5 v=92
300094 On ch=1 n=g6 v=0
300094 On ch=1 n=c#7 v=0
300094 On ch=1 n=g7 v=0
300096 On ch=1 n=f#6 v=92
300096 On ch=1 n=f#7 v=92
300126 On ch=2 n=c#5 v=0
300128 On ch=2 n=e4 v=92
300160 On ch=2 n=a4 v=0
300190 On ch=1 n=f#6 v=0
300190 On ch=1 n=f#7 v=0
300190 On ch=2 n=e4 v=0
300192 On ch=1 n=e6 v=92
300192 On ch=1 n=g6 v=92
300192 On ch=1 n=b6 v=92
300192 On ch=1 n=e7 v=92
300256 On ch=2 n=b4 v=92
300256 On ch=2 n=b4 v=92
300318 On ch=2 n=b4 v=0
300320 On ch=2 n=d5 v=92
300382 On ch=2 n=d5 v=0
300384 Par ch=2 c=64 v=0
300384 Par ch=2 c=64 v=127
300384 On ch=2 n=g5 v=92
300446 On ch=2 n=g5 v=0
300448 On ch=2 n=d5 v=92
300478 On ch=1 n=e6 v=0
300478 On ch=1 n=g6 v=0
300478 On ch=1 n=a#6 v=0
300478 On ch=1 n=e7 v=0
300480 On ch=1 n=d6 v=92
300480 On ch=1 n=d7 v=92
300510 On ch=2 n=d5 v=0
300512 On ch=2 n=e4 v=92
300544 On ch=2 n=a#4 v=0
300574 On ch=1 n=d6 v=0
300574 On ch=1 n=d7 v=0
300574 On ch=2 n=e4 v=0
300576 On ch=1 n=c#6 v=92
300576 On ch=1 n=g6 v=92
300576 On ch=1 n=c#7 v=92
300640 On ch=2 n=c#5 v=92
300640 On ch=2 n=c#5 v=92
300702 On ch=2 n=c#5 v=0
300704 On ch=2 n=e5 v=92
300766 On ch=2 n=e5 v=0
300768 On ch=2 n=g5 v=92
300830 On ch=2 n=g5 v=0
300832 On ch=2 n=e5 v=92
300894 On ch=2 n=e5 v=0
300896 On ch=2 n=a4 v=92
300928 On ch=2 n=c#5 v=0
300958 On ch=2 n=a4 v=0
300960 On ch=1 n=c#6 v=0
300960 On ch=1 n=g6 v=0
300960 On ch=1 n=c#7 v=0
300960 On ch=1 n=b5 v=92
300960 On ch=1 n=g6 v=92
300960 On ch=1 n=b6 v=92
300960 On ch=2 n=f#5 v=92
300960 On ch=2 n=f#5 v=92
301022 On ch=2 n=f#5 v=0
301024 On ch=2 n=g5 v=92
301054 On ch=1 n=b5 v=0
301054 On ch=1 n=g6 v=0
301054 On ch=1 n=b6 v=0
301056 On ch=1 n=d6 v=93
301056 On ch=1 n=d7 v=93
301086 On ch=2 n=g5 v=0
301088 On ch=2 n=d5 v=92
301120 On ch=2 n=f#5 v=0
301150 On ch=1 n=d6 v=0
301150 On ch=1 n=d7 v=0
301150 On ch=2 n=d5 v=0
301152 Par ch=2 c=64 v=0
301152 Par ch=2 c=64 v=127
301152 On ch=1 n=c#6 v=94
301152 On ch=1 n=g6 v=94
301152 On ch=1 n=c#7 v=94
301152 On ch=2 n=e5 v=93
301152 On ch=2 n=e5 v=93
301214 On ch=2 n=e5 v=0
301216 On ch=2 n=g5 v=94
301246 On ch=1 n=c#6 v=0
301246 On ch=1 n=c#7 v=0
301248 On ch=1 n=b5 v=95
301248 On ch=1 n=b6 v=95
301278 On ch=2 n=g5 v=0
301280 On ch=2 n=d5 v=95
301312 On ch=2 n=e5 v=0
301342 On ch=1 n=b5 v=0
301342 On ch=1 n=b6 v=0
301342 On ch=2 n=d5 v=0
301344 On ch=1 n=c#6 v=96
301344 On ch=1 n=c#7 v=96
301344 On ch=2 n=c#5 v=96
301344 On ch=2 n=c#5 v=96
301406 On ch=2 n=c#5 v=0
301408 On ch=2 n=g4 v=97
301470 On ch=2 n=g4 v=0
301472 On ch=2 n=f#4 v=98
301534 On ch=2 n=f#4 v=0
301536 On ch=2 n=g4 v=99
301598 On ch=2 n=g4 v=0
301600 On ch=2 n=e4 v=100
301662 On ch=2 n=e4 v=0
301664 On ch=2 n=a3 v=101
301680 On ch=1 n=c#6 v=0
301680 On ch=1 n=g6 v=0
301680 On ch=1 n=c#7 v=0
301680 On ch=2 n=c#5 v=0
301726 On ch=2 n=a3 v=0
301728 On ch=1 n=b5 v=102
301728 On ch=1 n=g6 v=102
301728 On ch=1 n=b6 v=102
301728 On ch=2 n=b4 v=102
301728 On ch=2 n=b4 v=102
301790 On ch=2 n=b4 v=0
301792 On ch=2 n=f#4 v=103
301822 On ch=1 n=b5 v=0
301822 On ch=1 n=b6 v=0
301824 On ch=1 n=c#6 v=103
301824 On ch=1 n=c#7 v=103
301854 On ch=2 n=f#4 v=0
301856 On ch=2 n=e4 v=104
301888 On ch=2 n=b4 v=0
301918 On ch=1 n=c#6 v=0
301918 On ch=1 n=g6 v=0
301918 On ch=1 n=c#7 v=0
301918 On ch=2 n=e4 v=0
301920 Par ch=2 c=64 v=0
301920 Par ch=2 c=64 v=127
301920 On ch=1 n=a5 v=104
301920 On ch=1 n=c#6 v=104
301920 On ch=1 n=g6 v=104
301920 On ch=1 n=a6 v=104
301920 On ch=2 n=c#5 v=105
301920 On ch=2 n=c#5 v=105
301982 On ch=2 n=c#5 v=0
301984 On ch=2 n=e4 v=106
302046 On ch=2 n=e4 v=0
302048 On ch=2 n=a3 v=107
302080 On ch=1 n=a5 v=0
302080 On ch=1 n=c#6 v=0
302080 On ch=1 n=g6 v=0
302080 On ch=1 n=a6 v=0
302080 On ch=2 n=c#5 v=0
302110 On ch=2 n=a3 v=0
302112 On ch=1 n=g6 v=108
302112 On ch=1 n=a6 v=108
302112 On ch=1 n=c#7 v=108
302112 On ch=1 n=g7 v=108
302112 On ch=2 n=a2 v=108
302238 On ch=2 n=a2 v=0
302240 On ch=2 n=a4 v=108
302240 On ch=2 n=a4 v=108
302302 On ch=2 n=a4 v=0
302304 On ch=2 n=g5 v=108
302366 On ch=2 n=g5 v=0
302368 On ch=2 n=c#5 v=108
302398 On ch=1 n=g6 v=0
302398 On ch=1 n=a6 v=0
302398 On ch=1 n=c#7 v=0
302398 On ch=1 n=g7 v=0
302400 On ch=1 n=f#6 v=108
302400 On ch=1 n=f#7 v=108
302430 On ch=2 n=c#5 v=0
302432 On ch=2 n=e4 v=108
302464 On ch=2 n=a4 v=0
302494 On ch=1 n=f#6 v=0
302494 On ch=1 n=f#7 v=0
302494 On ch=2 n=e4 v=0
302496 On ch=1 n=e6 v=108
302496 On ch=1 n=g6 v=108
302496 On ch=1 n=b6 v=108
302496 On ch=1 n=e7 v=108
302560 On ch=2 n=b4 v=108
302560 On ch=2 n=b4 v=108
302622 On ch=2 n=b4 v=0
302624 On ch=2 n=d5 v=108
302686 On ch=2 n=d5 v=0
302688 Par ch=2 c=64 v=0
302688 Par ch=2 c=64 v=127
302688 On ch=2 n=a#4 v=108
302688 On ch=2 n=g5 v=108
302720 On ch=2 n=b4 v=0
302750 On ch=2 n=g5 v=0
302752 On ch=2 n=d5 v=108
302782 On ch=1 n=e6 v=0
302782 On ch=1 n=g6 v=0
302782 On ch=1 n=a#6 v=0
302782 On ch=1 n=e7 v=0
302784 On ch=1 n=d6 v=108
302784 On ch=1 n=d7 v=108
302814 On ch=2 n=d5 v=0
302816 On ch=2 n=e4 v=108
302848 On ch=2 n=a#4 v=0
302878 On ch=1 n=d6 v=0
302878 On ch=1 n=d7 v=0
302878 On ch=2 n=e4 v=0
302880 On ch=1 n=c#6 v=108
302880 On ch=1 n=g6 v=108
302880 On ch=1 n=c#7 v=108
302944 On ch=2 n=c#5 v=108
302944 On ch=2 n=c#5 v=108
303006 On ch=2 n=c#5 v=0
303008 On ch=2 n=e5 v=108
303070 On ch=2 n=e5 v=0
303072 On ch=2 n=g5 v=108
303134 On ch=2 n=g5 v=0
303136 On ch=2 n=e5 v=108
303166 On ch=1 n=c#6 v=0
303166 On ch=1 n=g6 v=0
303166 On ch=1 n=c#7 v=0
303168 On ch=1 n=e6 v=108
303168 On ch=1 n=e7 v=108
303198 On ch=2 n=e5 v=0
303200 On ch=2 n=a4 v=108
303232 On ch=2 n=c#5 v=0
303262 On ch=1 n=e6 v=0
303262 On ch=1 n=e7 v=0
303262 On ch=2 n=a4 v=0
303264 On ch=1 n=b5 v=108
303264 On ch=1 n=g6 v=108
303264 On ch=1 n=b6 v=108
303264 On ch=2 n=f#5 v=108
303264 On ch=2 n=f#5 v=108
303326 On ch=2 n=f#5 v=0
303328 On ch=2 n=g5 v=108
303358 On ch=1 n=b5 v=0
303358 On ch=1 n=g6 v=0
303358 On ch=1 n=b6 v=0
303360 On ch=1 n=d6 v=108
303360 On ch=1 n=d7 v=108
303390 On ch=2 n=g5 v=0
303392 On ch=2 n=d5 v=108
303424 On ch=2 n=f#5 v=0
303454 On ch=1 n=d6 v=0
303454 On ch=1 n=d7 v=0
303454 On ch=2 n=d5 v=0
303456 Par ch=2 c=64 v=0
303456 Par ch=2 c=64 v=127
303456 On ch=1 n=c#6 v=108
303456 On ch=1 n=g6 v=108
303456 On ch=1 n=c#7 v=108
303456 On ch=2 n=e5 v=108
303456 On ch=2 n=e5 v=108
303518 On ch=2 n=e5 v=0
303520 On ch=2 n=g5 v=108
303550 On ch=1 n=c#6 v=0
303550 On ch=1 n=c#7 v=0
303552 On ch=1 n=b5 v=108
303552 On ch=1 n=b6 v=108
303582 On ch=2 n=g5 v=0
303584 On ch=2 n=a4 v=108
303646 On ch=1 n=b5 v=0
303646 On ch=1 n=b6 v=0
303648 On ch=1 n=c#6 v=108
303648 On ch=1 n=c#7 v=108
303774 On ch=2 n=a4 v=0
303776 On ch=2 n=e4 v=108
303838 On ch=2 n=e4 v=0
303840 On ch=2 n=a3 v=108
303902 On ch=2 n=a3 v=0
303904 On ch=2 n=e4 v=108
303966 On ch=2 n=e4 v=0
303968 On ch=2 n=g4 v=108
303984 On ch=1 n=c#6 v=0
303984 On ch=1 n=g6 v=0
303984 On ch=1 n=c#7 v=0
303984 On ch=2 n=e5 v=0
304030 On ch=2 n=g4 v=0
304032 On ch=1 n=b5 v=108
304032 On ch=1 n=g6 v=108
304032 On ch=1 n=b6 v=108
304032 On ch=2 n=d5 v=108
304032 On ch=2 n=d5 v=108
304094 On ch=2 n=d5 v=0
304096 On ch=2 n=g5 v=108
304126 On ch=1 n=b5 v=0
304126 On ch=1 n=b6 v=0
304128 On ch=1 n=c#6 v=108
304128 On ch=1 n=c#7 v=108
304158 On ch=2 n=g5 v=0
304160 On ch=2 n=a4 v=108
304192 On ch=2 n=d5 v=0
304222 On ch=1 n=c#6 v=0
304222 On ch=1 n=g6 v=0
304222 On ch=1 n=c#7 v=0
304222 On ch=2 n=a4 v=0
304224 Par ch=2 c=64 v=0
304224 Par ch=2 c=64 v=127
304224 On ch=1 n=a5 v=108
304224 On ch=1 n=g6 v=108
304224 On ch=1 n=a6 v=108
304224 On ch=2 n=c#5 v=108
304224 On ch=2 n=c#5 v=108
304286 On ch=2 n=c#5 v=0
304288 On ch=2 n=g5 v=108
304318 On ch=1 n=a5 v=0
304318 On ch=1 n=a6 v=0
304320 On ch=1 n=b5 v=108
304320 On ch=1 n=b6 v=108
304350 On ch=2 n=g5 v=0
304352 On ch=2 n=a4 v=108
304384 On ch=2 n=c#5 v=0
304414 On ch=1 n=b5 v=0
304414 On ch=1 n=g6 v=0
304414 On ch=1 n=b6 v=0
304414 On ch=2 n=a4 v=0
304416 On ch=1 n=c6 v=108
304416 On ch=1 n=d#6 v=108
304416 On ch=1 n=c7 v=108
304416 On ch=2 n=c5 v=108
304416 On ch=2 n=c5 v=108
304478 On ch=2 n=c5 v=0
304480 On ch=2 n=g5 v=108
304542 On ch=2 n=g5 v=0
304544 On ch=2 n=a4 v=108
304576 On ch=2 n=c5 v=0
304606 On ch=2 n=a4 v=0
304608 On ch=2 n=b5 v=108
304608 On ch=2 n=b5 v=108
304670 On ch=2 n=b5 v=0
304672 On ch=2 n=d#5 v=108
304702 On ch=1 n=c6 v=0
304702 On ch=1 n=c7 v=0
304704 On ch=1 n=b5 v=108
304704 On ch=1 n=b6 v=108
304734 On ch=2 n=d#5 v=0
304736 On ch=2 n=c5 v=108
304768 On ch=2 n=b5 v=0
304798 On ch=1 n=b5 v=0
304798 On ch=1 n=d#6 v=0
304798 On ch=1 n=b6 v=0
304798 On ch=2 n=c5 v=0
304800 On ch=1 n=c6 v=108
304800 On ch=1 n=d#6 v=108
304800 On ch=1 n=c7 v=108
304800 On ch=2 n=a5 v=108
304800 On ch=2 n=a5 v=108
304862 On ch=2 n=a5 v=0
304864 On ch=2 n=c5 v=108
304926 On ch=2 n=c5 v=0
304928 On ch=2 n=d4 v=108
304960 On ch=1 n=d#6 v=0
304960 On ch=2 n=a5 v=0
304990 On ch=2 n=d4 v=0
304992 Par ch=2 c=64 v=0
304992 Par ch=2 c=64 v=127
304992 On ch=1 n=d6 v=108
304992 On ch=2 n=g5 v=108
304992 On ch=2 n=g5 v=108
305054 On ch=2 n=g5 v=0
305056 On ch=2 n=d5 v=108
305086 On ch=1 n=c6 v=0
305086 On ch=1 n=d6 v=0
305086 On ch=1 n=c7 v=0
305088 On ch=1 n=b5 v=108
305088 On ch=1 n=d6 v=108
305088 On ch=1 n=b6 v=108
305118 On ch=2 n=d5 v=0
305120 On ch=2 n=c5 v=108
305152 On ch=2 n=g5 v=0
305182 On ch=1 n=b5 v=0
305182 On ch=1 n=d6 v=0
305182 On ch=1 n=b6 v=0
305182 On ch=2 n=c5 v=0
305184 On ch=1 n=c6 v=108
305184 On ch=1 n=d#6 v=108
305184 On ch=1 n=c7 v=108
305184 On ch=2 n=f#5 v=108
305184 On ch=2 n=f#5 v=108
305246 On ch=2 n=f#5 v=0
305248 On ch=2 n=c5 v=108
305310 On ch=2 n=c5 v=0
305312 On ch=2 n=a4 v=108
305344 On ch=1 n=d#6 v=0
305344 On ch=2 n=f#5 v=0
305374 On ch=2 n=a4 v=0
305376 On ch=1 n=e6 v=108
305376 On ch=2 n=e5 v=108
305376 On ch=2 n=e5 v=108
305438 On ch=2 n=e5 v=0
305440 On ch=2 n=c5 v=108
305470 On ch=1 n=c6 v=0
305470 On ch=1 n=e6 v=0
305470 On ch=1 n=c7 v=0
305472 On ch=1 n=b5 v=108
305472 On ch=1 n=b6 v=108
305502 On ch=2 n=c5 v=0
305504 On ch=2 n=g4 v=108
305536 On ch=2 n=e5 v=0
305566 On ch=1 n=b5 v=0
305566 On ch=1 n=b6 v=0
305566 On ch=2 n=g4 v=0
305568 On ch=1 n=c6 v=108
305568 On ch=1 n=f#6 v=108
305568 On ch=1 n=c7 v=108
305568 On ch=2 n=d5 v=108
305568 On ch=2 n=d5 v=108
305630 On ch=2 n=d5 v=0
305632 On ch=2 n=f#4 v=108
305662 On ch=1 n=c6 v=0
305662 On ch=1 n=c7 v=0
305664 On ch=1 n=d6 v=108
305664 On ch=1 n=d7 v=108
305694 On ch=2 n=f#4 v=0
305696 On ch=2 n=d4 v=108
305728 On ch=2 n=d5 v=0
305758 On ch=1 n=d6 v=0
305758 On ch=1 n=f#6 v=0
305758 On ch=1 n=d7 v=0
305758 On ch=2 n=d4 v=0
305760 Par ch=2 c=64 v=0
305760 Par ch=2 c=64 v=127
305760 On ch=1 n=b5 v=108
305760 On ch=1 n=g6 v=108
305760 On ch=1 n=b6 v=108
305760 On ch=2 n=g3 v=108
305822 On ch=2 n=g3 v=0
305824 On ch=2 n=d4 v=108
305854 On ch=1 n=b5 v=0
305854 On ch=1 n=b6 v=0
305856 On ch=1 n=c6 v=108
305886 On ch=2 n=d4 v=0
305888 On ch=2 n=c5 v=108
305950 On ch=1 n=c6 v=0
305950 On ch=1 n=g6 v=0
305950 On ch=2 n=c5 v=0
305952 On ch=1 n=b5 v=108
305952 On ch=1 n=d6 v=108
305952 On ch=2 n=b4 v=108
305952 On ch=2 n=d5 v=108
306014 On ch=1 n=b5 v=0
306016 On ch=1 n=d5 v=108
306078 On ch=1 n=d5 v=0
306080 On ch=1 n=b5 v=108
306112 On ch=2 n=b4 v=0
306112 On ch=2 n=d5 v=0
306142 On ch=1 n=b5 v=0
306144 On ch=1 n=a#5 v=108
306144 On ch=2 n=a#4 v=108
306144 On ch=2 n=c#5 v=108
306206 On ch=1 n=a#5 v=0
306208 On ch=1 n=d5 v=108
306270 On ch=1 n=d5 v=0
306272 On ch=1 n=c#6 v=108
306272 On ch=1 n=c#6 v=108
306304 On ch=1 n=d6 v=0
306304 On ch=2 n=a#4 v=0
306304 On ch=2 n=c#5 v=0
306334 On ch=1 n=c#6 v=0
306336 On ch=1 n=a5 v=108
306336 On ch=1 n=d6 v=108
306336 On ch=2 n=a4 v=108
306336 On ch=2 n=c5 v=108
306366 On ch=1 n=c#6 v=0
306398 On ch=1 n=a5 v=0
306400 On ch=1 n=d5 v=108
306462 On ch=1 n=d5 v=0
306464 On ch=1 n=g#5 v=108
306496 On ch=2 n=a4 v=0
306496 On ch=2 n=c5 v=0
306526 On ch=1 n=g#5 v=0
306528 Par ch=2 c=64 v=0
306528 Par ch=2 c=64 v=127
306528 On ch=1 n=a5 v=108
306528 On ch=2 n=g3 v=108
306590 On ch=1 n=a5 v=0
306590 On ch=2 n=g3 v=0
306592 On ch=1 n=d5 v=108
306592 On ch=2 n=d4 v=108
306654 On ch=1 n=d5 v=0
306654 On ch=2 n=d4 v=0
306656 On ch=1 n=c#6 v=108
306656 On ch=1 n=c#6 v=108
306656 On ch=2 n=c#5 v=108
306688 On ch=1 n=d6 v=0
306718 On ch=1 n=c#6 v=0
306718 On ch=2 n=c#5 v=0
306720 On ch=1 n=g#5 v=108
306720 On ch=1 n=d6 v=108
306720 On ch=2 n=g#4 v=108
306720 On ch=2 n=c5 v=108
306750 On ch=1 n=c#6 v=0
306782 On ch=1 n=g#5 v=0
306784 On ch=1 n=d5 v=108
306846 On ch=1 n=d5 v=0
306848 On ch=1 n=g#5 v=108
306880 On ch=2 n=g#4 v=0
306880 On ch=2 n=c5 v=0
306910 On ch=1 n=g#5 v=0
306912 On ch=1 n=g5 v=108
306912 On ch=2 n=g4 v=108
306912 On ch=2 n=b4 v=108
306974 On ch=1 n=g5 v=0
306976 On ch=1 n=d5 v=108
307038 On ch=1 n=d5 v=0
307040 On ch=1 n=c#6 v=108
307040 On ch=1 n=c#6 v=108
307072 On ch=1 n=d6 v=0
307072 On ch=2 n=g4 v=0
307072 On ch=2 n=b4 v=0
307102 On ch=1 n=c#6 v=0
307104 On ch=1 n=d5 v=108
307104 On ch=1 n=f5 v=108
307104 On ch=1 n=d6 v=108
307104 On ch=2 n=f4 v=108
307104 On ch=2 n=a4 v=108
307134 On ch=1 n=c#6 v=0
307166 On ch=2 n=a4 v=0
307168 On ch=2 n=g#4 v=108
307198 On ch=1 n=d5 v=0
307198 On ch=1 n=f5 v=0
307198 On ch=1 n=d6 v=0
307200 On ch=1 n=e5 v=108
307200 On ch=1 n=e6 v=108
307230 On ch=2 n=g#4 v=0
307232 On ch=2 n=g4 v=108
307264 On ch=2 n=f4 v=0
307294 On ch=1 n=e5 v=0
307294 On ch=1 n=e6 v=0
307294 On ch=2 n=g4 v=0
307296 Par ch=2 c=64 v=0
307296 Par ch=2 c=64 v=127
307296 On ch=1 n=c5 v=108
307296 On ch=1 n=e5 v=108
307296 On ch=1 n=c6 v=108
307296 On ch=2 n=g3 v=108
307296 On ch=2 n=e4 v=108
307358 On ch=2 n=g3 v=0
307358 On ch=2 n=e4 v=0
307360 On ch=2 n=g4 v=108
307390 On ch=1 n=c5 v=0
307390 On ch=1 n=c6 v=0
307392 On ch=1 n=d6 v=108
307422 On ch=2 n=g4 v=0
307424 On ch=2 n=d5 v=108
307486 On ch=1 n=e5 v=0
307486 On ch=1 n=d6 v=0
307486 On ch=2 n=d5 v=0
307488 On ch=1 n=c6 v=108
307488 On ch=1 n=e6 v=108
307488 On ch=2 n=c5 v=108
307488 On ch=2 n=e5 v=108
307550 On ch=1 n=c6 v=0
307552 On ch=1 n=e5 v=108
307614 On ch=1 n=e5 v=0
307616 On ch=1 n=c6 v=108
307648 On ch=2 n=c5 v=0
307648 On ch=2 n=e5 v=0
307678 On ch=1 n=c6 v=0
307680 On ch=1 n=b5 v=108
307680 On ch=2 n=b4 v=108
307680 On ch=2 n=d#5 v=108
307742 On ch=1 n=b5 v=0
307744 On ch=1 n=e5 v=108
307806 On ch=1 n=e5 v=0
307808 On ch=1 n=d#6 v=108
307808 On ch=1 n=d#6 v=108
307840 On ch=1 n=e6 v=0
307840 On ch=2 n=b4 v=0
307840 On ch=2 n=d#5 v=0
307870 On ch=1 n=d#6 v=0
307872 On ch=1 n=a#5 v=108
307872 On ch=1 n=e6 v=108
307872 On ch=2 n=a#4 v=108
307872 On ch=2 n=d5 v=108
307902 On ch=1 n=d#6 v=0
307934 On ch=1 n=a#5 v=0
307936 On ch=1 n=e5 v=108
307998 On ch=1 n=e5 v=0
308000 On ch=1 n=a5 v=108
308032 On ch=2 n=a#4 v=0
308032 On ch=2 n=d5 v=0
308062 On ch=1 n=a5 v=0
308064 Par ch=2 c=64 v=0
308064 Par ch=2 c=64 v=127
308064 On ch=1 n=a#5 v=108
308064 On ch=2 n=g3 v=108
308126 On ch=1 n=a#5 v=0
308126 On ch=2 n=g3 v=0
308128 On ch=1 n=e5 v=108
308128 On ch=2 n=e4 v=108
308190 On ch=1 n=e5 v=0
308190 On ch=2 n=e4 v=0
308192 On ch=1 n=d#6 v=108
308192 On ch=1 n=d#6 v=108
308192 On ch=2 n=d5 v=108
308224 On ch=1 n=e6 v=0
308254 On ch=1 n=d#6 v=0
308254 On ch=2 n=d5 v=0
308256 On ch=1 n=a5 v=108
308256 On ch=1 n=e6 v=108
308256 On ch=2 n=a4 v=108
308256 On ch=2 n=c#5 v=108
308286 On ch=1 n=d#6 v=0
308318 On ch=1 n=a5 v=0
308320 On ch=1 n=e5 v=108
308382 On ch=1 n=e5 v=0
308384 On ch=1 n=a5 v=108
308416 On ch=2 n=a4 v=0
308416 On ch=2 n=c#5 v=0
308446 On ch=1 n=a5 v=0
308448 On ch=1 n=g#5 v=108
308448 On ch=2 n=g#4 v=108
308448 On ch=2 n=c5 v=108
308510 On ch=1 n=g#5 v=0
308512 On ch=1 n=e5 v=108
308576 On ch=1 n=d6 v=108
308576 On ch=1 n=d6 v=108
308608 On ch=1 n=e6 v=0
308608 On ch=2 n=g#4 v=0
308608 On ch=2 n=c5 v=0
308638 On ch=1 n=d6 v=0
308640 On ch=1 n=g5 v=108
308640 On ch=1 n=e6 v=108
308640 On ch=2 n=g4 v=108
308640 On ch=2 n=b4 v=108
308670 On ch=1 n=d6 v=0
308702 On ch=2 n=b4 v=0
308704 On ch=2 n=a#4 v=108
308734 On ch=1 n=e5 v=0
308734 On ch=1 n=g5 v=0
308734 On ch=1 n=e6 v=0
308736 On ch=1 n=f#5 v=108
308736 On ch=1 n=f#6 v=108
308766 On ch=2 n=a#4 v=0
308768 On ch=2 n=a4 v=108
308800 On ch=2 n=g4 v=0
308830 On ch=1 n=f#5 v=0
308830 On ch=1 n=f#6 v=0
308830 On ch=2 n=a4 v=0
308832 Par ch=2 c=64 v=0
308832 Par ch=2 c=64 v=127
308832 On ch=1 n=d5 v=108
308832 On ch=1 n=f#5 v=108
308832 On ch=1 n=c6 v=108
308832 On ch=1 n=d6 v=108
308832 On ch=2 n=g3 v=108
308832 On ch=2 n=d4 v=108
308894 On ch=2 n=g3 v=0
308894 On ch=2 n=d4 v=0
308896 On ch=2 n=f#4 v=108
308926 On ch=1 n=d5 v=0
308926 On ch=1 n=d6 v=0
308928 On ch=1 n=e6 v=108
308958 On ch=2 n=f#4 v=0
308960 On ch=2 n=c5 v=108
309022 On ch=1 n=f#5 v=0
309022 On ch=1 n=c6 v=0
309022 On ch=1 n=e6 v=0
309022 On ch=2 n=c5 v=0
309024 On ch=1 n=d6 v=108
309024 On ch=1 n=f#6 v=108
309024 On ch=2 n=d5 v=108
309024 On ch=2 n=f#5 v=108
309086 On ch=1 n=d6 v=0
309088 On ch=1 n=e5 v=108
309150 On ch=1 n=e5 v=0
309152 On ch=1 n=d6 v=108
309184 On ch=2 n=d5 v=0
309184 On ch=2 n=f#5 v=0
309214 On ch=1 n=d6 v=0
309216 On ch=1 n=c#6 v=108
309216 On ch=2 n=c#5 v=108
309216 On ch=2 n=f5 v=108
309278 On ch=1 n=c#6 v=0
309280 On ch=1 n=e5 v=108
309342 On ch=1 n=e5 v=0
309344 On ch=1 n=f6 v=108
309344 On ch=1 n=f6 v=108
309376 On ch=1 n=f#6 v=0
309376 On ch=2 n=c#5 v=0
309376 On ch=2 n=f5 v=0
309406 On ch=1 n=f6 v=0
309408 On ch=1 n=c6 v=108
309408 On ch=1 n=f#6 v=108
309408 On ch=2 n=f#4 v=108
309408 On ch=2 n=c5 v=108
309408 On ch=2 n=e5 v=108
309438 On ch=1 n=f6 v=0
309470 On ch=1 n=c6 v=0
309472 On ch=1 n=e5 v=108
309534 On ch=1 n=e5 v=0
309536 On ch=1 n=b5 v=108
309568 On ch=2 n=c5 v=0
309568 On ch=2 n=e5 v=0
309598 On ch=1 n=b5 v=0
309600 On ch=1 n=c6 v=108
309600 On ch=2 n=c5 v=108
309600 On ch=2 n=d#5 v=108
309662 On ch=1 n=c6 v=0
309664 On ch=1 n=e5 v=108
309726 On ch=1 n=e5 v=0
309728 On ch=1 n=f6 v=108
309728 On ch=1 n=f6 v=108
309760 On ch=1 n=f#6 v=0
309760 On ch=2 n=c5 v=0
309790 On ch=1 n=f6 v=0
309792 On ch=1 n=b5 v=108
309792 On ch=1 n=f#6 v=108
309792 On ch=2 n=b4 v=108
309822 On ch=1 n=f6 v=0
309854 On ch=1 n=b5 v=0
309856 On ch=1 n=e5 v=108
309918 On ch=1 n=e5 v=0
309920 On ch=1 n=b5 v=108
309936 On ch=2 n=f#4 v=0
309936 On ch=2 n=d#5 v=0
309952 On ch=1 n=f#6 v=0
309952 On ch=2 n=b4 v=0
309982 On ch=1 n=b5 v=0
309984 Par ch=2 c=64 v=0
309984 Par ch=2 c=64 v=127
309984 On ch=1 n=f5 v=108
309984 On ch=1 n=f6 v=108
309984 On ch=2 n=g3 v=108
309984 On ch=2 n=f4 v=108
310046 On ch=1 n=f5 v=0
310046 On ch=2 n=g3 v=0
310046 On ch=2 n=f4 v=0
310048 On ch=1 n=b5 v=108
310048 On ch=2 n=b4 v=108
310110 On ch=1 n=b5 v=0
310110 On ch=2 n=b4 v=0
310112 On ch=1 n=f#6 v=108
310112 On ch=1 n=f#6 v=108
310112 On ch=2 n=f#5 v=108
310144 On ch=1 n=f6 v=0
310174 On ch=1 n=f#6 v=0
310174 On ch=2 n=f#5 v=0
310176 On ch=1 n=f6 v=108
310176 On ch=1 n=g6 v=108
310176 On ch=2 n=f5 v=108
310176 On ch=2 n=a5 v=108
310206 On ch=1 n=f#6 v=0
310238 On ch=1 n=f6 v=0
310240 On ch=1 n=g5 v=108
310302 On ch=1 n=g5 v=0
310304 On ch=1 n=f6 v=108
310336 On ch=2 n=f5 v=0
310336 On ch=2 n=a5 v=0
310366 On ch=1 n=f6 v=0
310368 On ch=1 n=e6 v=108
310368 On ch=2 n=e5 v=108
310368 On ch=2 n=g5 v=108
310430 On ch=1 n=e6 v=0
310432 On ch=1 n=g5 v=108
310494 On ch=1 n=g5 v=0
310496 On ch=1 n=f#6 v=108
310496 On ch=1 n=f#6 v=108
310528 On ch=1 n=g6 v=0
310528 On ch=2 n=e5 v=0
310528 On ch=2 n=g5 v=0
310558 On ch=1 n=f#6 v=0
310560 On ch=1 n=d#6 v=108
310560 On ch=1 n=g6 v=108
310560 On ch=2 n=b4 v=108
310560 On ch=2 n=d#5 v=108
310560 On ch=2 n=f#5 v=108
310590 On ch=1 n=f#6 v=0
310622 On ch=1 n=d#6 v=0
310624 On ch=1 n=g5 v=108
310686 On ch=1 n=g5 v=0
310688 On ch=1 n=d6 v=108
310720 On ch=2 n=d#5 v=0
310720 On ch=2 n=f#5 v=0
310750 On ch=1 n=d6 v=0
310752 On ch=1 n=d#6 v=108
310752 On ch=2 n=d#5 v=108
310752 On ch=2 n=f5 v=108
310814 On ch=1 n=d#6 v=0
310816 On ch=1 n=g5 v=108
310878 On ch=1 n=g5 v=0
310880 On ch=1 n=f#6 v=108
310880 On ch=1 n=f#6 v=108
310912 On ch=1 n=g6 v=0
310912 On ch=2 n=d#5 v=0
310942 On ch=1 n=f#6 v=0
310944 On ch=1 n=d6 v=108
310944 On ch=1 n=g6 v=108
310944 On ch=2 n=d5 v=108
310974 On ch=1 n=f#6 v=0
311006 On ch=1 n=d6 v=0
311008 On ch=1 n=g5 v=108
311070 On ch=1 n=g5 v=0
311072 On ch=1 n=d6 v=108
311088 On ch=2 n=b4 v=0
311088 On ch=2 n=f5 v=0
311104 On ch=1 n=g6 v=0
311104 On ch=2 n=d5 v=0
311134 On ch=1 n=d6 v=0
311136 Par ch=2 c=64 v=0
311136 TimeSig 2/2 24 8
311136 Par ch=2 c=64 v=127
311136 On ch=1 n=d6 v=60
311136 On ch=2 n=d5 v=60
311136 On ch=2 n=d5 v=60
311198 On ch=2 n=d5 v=0
311200 On ch=2 n=g4 v=60
311262 On ch=2 n=g4 v=0
311264 On ch=2 n=c4 v=60
311326 On ch=2 n=c4 v=0
311328 On ch=1 n=f#6 v=61
311328 On ch=1 n=f#6 v=61
311390 On ch=1 n=f#6 v=0
311392 On ch=1 n=f#5 v=61
311454 On ch=1 n=f#5 v=0
311456 On ch=1 n=d6 v=61
311472 On ch=1 n=d6 v=0
311472 On ch=2 n=d5 v=0
311488 On ch=1 n=f#6 v=0
311518 On ch=1 n=d6 v=0
311520 On ch=1 n=d#6 v=61
311520 On ch=2 n=e5 v=61
311520 On ch=2 n=d#5 v=61
311582 On ch=2 n=e5 v=0
311584 On ch=2 n=g4 v=61
311646 On ch=2 n=g4 v=0
311648 On ch=2 n=c5 v=61
311710 On ch=2 n=c5 v=0
311712 On ch=1 n=g6 v=62
311712 On ch=1 n=g6 v=62
311774 On ch=1 n=g6 v=0
311776 On ch=1 n=g5 v=62
311838 On ch=1 n=g5 v=0
311840 On ch=1 n=c6 v=62
311856 On ch=2 n=d#5 v=0
311856 On ch=1 n=d#6 v=0
311872 On ch=1 n=g6 v=0
311902 On ch=1 n=c6 v=0
311904 Par ch=2 c=64 v=0
311904 Tempo 271493
311904 Tempo 271493
311904 Par ch=2 c=64 v=127
311904 On ch=2 n=e5 v=62
311904 On ch=2 n=e5 v=62
311904 On ch=1 n=e6 v=62
311966 On ch=2 n=e5 v=0
311968 On ch=2 n=g#4 v=62
312030 On ch=2 n=g#4 v=0
312032 On ch=2 n=c5 v=62
312094 On ch=2 n=c5 v=0
312096 On ch=1 n=g#6 v=63
312096 On ch=1 n=g#6 v=63
312158 On ch=1 n=g#6 v=0
312160 On ch=1 n=g#5 v=63
312222 On ch=1 n=g#5 v=0
312224 On ch=1 n=c6 v=63
312240 On ch=1 n=e6 v=0
312240 On ch=2 n=e5 v=0
312256 On ch=1 n=g#6 v=0
312286 On ch=1 n=c6 v=0
312288 On ch=1 n=f6 v=63
312288 On ch=2 n=f5 v=63
312288 On ch=2 n=f5 v=63
312350 On ch=2 n=f5 v=0
312352 On ch=2 n=a4 v=63
312414 On ch=2 n=a4 v=0
312416 On ch=2 n=c5 v=63
312478 On ch=2 n=c5 v=0
312480 On ch=1 n=a6 v=64
312480 On ch=1 n=a6 v=64
312542 On ch=1 n=a6 v=0
312544 On ch=1 n=a5 v=64
312606 On ch=1 n=a5 v=0
312608 On ch=1 n=c6 v=64
312624 On ch=1 n=f6 v=0
312624 On ch=2 n=f5 v=0
312640 On ch=1 n=a6 v=0
312670 On ch=1 n=c6 v=0
312672 Par ch=2 c=64 v=0
312672 Tempo 270270
312672 Tempo 270270
312672 Par ch=2 c=64 v=127
312672 On ch=1 n=f#6 v=64
312672 On ch=2 n=g#3 v=64
312672 On ch=2 n=d#4 v=64
312694 On ch=2 n=g#3 v=0
312694 On ch=2 n=d#4 v=0
312696 On ch=2 n=f#5 v=64
312696 On ch=2 n=f#5 v=64
312734 On ch=2 n=f#5 v=0
312736 On ch=2 n=a#4 v=64
312798 On ch=2 n=a#4 v=0
312800 On ch=2 n=c5 v=64
312862 On ch=2 n=c5 v=0
312864 On ch=1 n=a#6 v=65
312864 On ch=1 n=a#6 v=65
312926 On ch=1 n=a#6 v=0
312928 On ch=1 n=a#5 v=65
312990 On ch=1 n=a#5 v=0
312992 On ch=1 n=c6 v=65
313008 On ch=1 n=f#6 v=0
313024 On ch=1 n=a#6 v=0
313024 On ch=2 n=f#5 v=0
313054 On ch=1 n=c6 v=0
313056 On ch=1 n=f6 v=65
313056 On ch=2 n=f5 v=66
313056 On ch=2 n=f5 v=66
313118 On ch=2 n=f5 v=0
313120 On ch=2 n=g#4 v=66
313182 On ch=2 n=g#4 v=0
313184 On ch=2 n=c5 v=66
313246 On ch=2 n=c5 v=0
313248 On ch=1 n=a6 v=67
313248 On ch=1 n=a6 v=67
313310 On ch=1 n=a6 v=0
313312 On ch=1 n=a5 v=67
313374 On ch=1 n=a5 v=0
313376 On ch=1 n=c6 v=67
313392 On ch=1 n=f6 v=0
313392 On ch=2 n=f5 v=0
313408 On ch=1 n=a6 v=0
313438 On ch=1 n=c6 v=0
313440 Par ch=2 c=64 v=0
313440 Tempo 269058
313440 Tempo 269058
313440 Par ch=2 c=64 v=127
313440 On ch=1 n=f#6 v=67
313440 On ch=2 n=f#5 v=68
313440 On ch=2 n=f#5 v=68
313502 On ch=2 n=f#5 v=0
313504 On ch=2 n=a#4 v=68
313566 On ch=2 n=a#4 v=0
313568 On ch=2 n=c5 v=68
313630 On ch=2 n=c5 v=0
313632 On ch=1 n=a#6 v=69
313632 On ch=1 n=a#6 v=69
313694 On ch=1 n=a#6 v=0
313696 On ch=1 n=a#5 v=69
313758 On ch=1 n=a#5 v=0
313760 On ch=1 n=c6 v=69
313776 On ch=1 n=f#6 v=0
313776 On ch=2 n=f#5 v=0
313792 On ch=1 n=a#6 v=0
313822 On ch=1 n=c6 v=0
313824 On ch=1 n=g6 v=69
313824 On ch=2 n=g5 v=70
313824 On ch=2 n=g5 v=70
313886 On ch=2 n=g5 v=0
313888 On ch=2 n=b4 v=70
313950 On ch=2 n=b4 v=0
313952 On ch=2 n=d#5 v=70
314014 On ch=2 n=d#5 v=0
314016 On ch=1 n=b6 v=71
314016 On ch=1 n=b6 v=71
314078 On ch=1 n=b6 v=0
314080 On ch=1 n=b5 v=71
314142 On ch=1 n=b5 v=0
314144 On ch=1 n=d#6 v=71
314160 On ch=1 n=g6 v=0
314160 On ch=2 n=g5 v=0
314176 On ch=1 n=b6 v=0
314206 On ch=1 n=d#6 v=0
314208 Par ch=2 c=64 v=0
314208 Tempo 267857
314208 Tempo 267857
314208 Par ch=2 c=64 v=127
314208 On ch=1 n=g#6 v=71
314208 On ch=2 n=c4 v=72
314208 On ch=2 n=g#4 v=72
314230 On ch=2 n=c4 v=0
314230 On ch=2 n=g#4 v=0
314232 On ch=2 n=g#5 v=72
314232 On ch=2 n=g#5 v=72
314270 On ch=2 n=g#5 v=0
314272 On ch=2 n=c5 v=72
314334 On ch=2 n=c5 v=0
314336 On ch=2 n=d#5 v=72
314398 On ch=2 n=d#5 v=0
314400 On ch=1 n=c7 v=73
314400 On ch=1 n=c7 v=73
314462 On ch=1 n=c7 v=0
314464 On ch=1 n=c6 v=73
314526 On ch=1 n=c6 v=0
314528 On ch=1 n=d#6 v=73
314544 On ch=1 n=g#6 v=0
314560 On ch=1 n=c7 v=0
314560 On ch=2 n=g#5 v=0
314590 On ch=1 n=d#6 v=0
314592 On ch=1 n=g6 v=73
314592 On ch=2 n=g5 v=74
314592 On ch=2 n=g5 v=74
314654 On ch=2 n=g5 v=0
314656 On ch=2 n=b4 v=74
314718 On ch=2 n=b4 v=0
314720 On ch=2 n=d#5 v=74
314782 On ch=2 n=d#5 v=0
314784 On ch=1 n=b6 v=75
314784 On ch=1 n=b6 v=75
314846 On ch=1 n=b6 v=0
314848 On ch=1 n=b5 v=75
314910 On ch=1 n=b5 v=0
314912 On ch=1 n=d#6 v=75
314928 On ch=1 n=g6 v=0
314928 On ch=2 n=g5 v=0
314944 On ch=1 n=b6 v=0
314974 On ch=1 n=d#6 v=0
314976 Par ch=2 c=64 v=0
314976 Tempo 266666
314976 Tempo 266666
314976 Par ch=2 c=64 v=127
314976 On ch=1 n=g#6 v=75
314976 On ch=2 n=g#5 v=76
314976 On ch=2 n=g#5 v=76
315038 On ch=2 n=g#5 v=0
315040 On ch=2 n=c5 v=76
315102 On ch=2 n=c5 v=0
315104 On ch=2 n=d#5 v=76
315166 On ch=2 n=d#5 v=0
315168 On ch=1 n=c7 v=77
315168 On ch=1 n=c7 v=77
315230 On ch=1 n=c7 v=0
315232 On ch=1 n=c6 v=77
315294 On ch=1 n=c6 v=0
315296 On ch=1 n=d#6 v=77
315312 On ch=1 n=g#6 v=0
315312 On ch=2 n=g#5 v=0
315328 On ch=1 n=c7 v=0
315358 On ch=1 n=d#6 v=0
315360 On ch=1 n=a6 v=77
315360 On ch=2 n=a5 v=78
315360 On ch=2 n=a5 v=78
315422 On ch=2 n=a5 v=0
315424 On ch=2 n=c#5 v=78
315486 On ch=2 n=c#5 v=0
315488 On ch=2 n=g5 v=78
315550 On ch=2 n=g5 v=0
315552 On ch=1 n=c#7 v=79
315552 On ch=1 n=c#7 v=79
315614 On ch=1 n=c#7 v=0
315616 On ch=1 n=c#6 v=79
315678 On ch=1 n=c#6 v=0
315680 On ch=1 n=g6 v=79
315696 On ch=1 n=a6 v=0
315696 On ch=2 n=a5 v=0
315712 On ch=1 n=c#7 v=0
315742 On ch=1 n=g6 v=0
315744 Par ch=2 c=64 v=0
315744 Tempo 265486
315744 Tempo 265486
315744 Par ch=2 c=64 v=127
315744 On ch=1 n=a#6 v=79
315744 On ch=2 n=d#4 v=80
315744 On ch=2 n=a#4 v=80
315766 On ch=2 n=d#4 v=0
315766 On ch=2 n=a#4 v=0
315768 On ch=2 n=a#5 v=80
315768 On ch=2 n=a#5 v=80
315806 On ch=2 n=a#5 v=0
315808 On ch=2 n=d5 v=80
315870 On ch=2 n=d5 v=0
315872 On ch=2 n=g5 v=80
315934 On ch=2 n=g5 v=0
315936 On ch=1 n=d7 v=82
315936 On ch=1 n=d7 v=82
315998 On ch=1 n=d7 v=0
316000 On ch=1 n=d6 v=83
316062 On ch=1 n=d6 v=0
316064 On ch=1 n=g6 v=84
316080 On ch=1 n=a#6 v=0
316096 On ch=1 n=d7 v=0
316096 On ch=2 n=a#5 v=0
316126 On ch=1 n=g6 v=0
316128 On ch=1 n=b6 v=84
316128 On ch=2 n=b5 v=84
316128 On ch=2 n=b5 v=84
316190 On ch=2 n=b5 v=0
316192 On ch=2 n=d#5 v=85
316254 On ch=2 n=d#5 v=0
316256 On ch=2 n=g5 v=86
316318 On ch=2 n=g5 v=0
316320 On ch=1 n=d#7 v=87
316320 On ch=1 n=d#7 v=87
316382 On ch=1 n=d#7 v=0
316384 On ch=1 n=d#6 v=88
316446 On ch=1 n=d#6 v=0
316448 On ch=1 n=g6 v=89
316464 On ch=1 n=b6 v=0
316464 On ch=2 n=b5 v=0
316480 On ch=1 n=d#7 v=0
316510 On ch=1 n=g6 v=0
316512 Par ch=2 c=64 v=0
316512 Tempo 264317
316512 Tempo 264317
316512 Par ch=2 c=64 v=127
316512 On ch=1 n=c7 v=90
316512 On ch=2 n=c6 v=90
316512 On ch=2 n=c6 v=90
316574 On ch=2 n=c6 v=0
316576 On ch=2 n=d5 v=91
316638 On ch=2 n=d5 v=0
316640 On ch=2 n=g5 v=92
316702 On ch=2 n=g5 v=0
316704 On ch=1 n=d#7 v=93
316704 On ch=1 n=d#7 v=93
316766 On ch=1 n=d#7 v=0
316768 On ch=1 n=d#6 v=94
316830 On ch=1 n=d#6 v=0
316832 On ch=1 n=g6 v=95
316848 On ch=1 n=c7 v=0
316848 On ch=2 n=c6 v=0
316864 On ch=1 n=d#7 v=0
316894 On ch=1 n=g6 v=0
316896 On ch=1 n=c#7 v=96
316896 On ch=2 n=c#6 v=96
316896 On ch=2 n=c#6 v=96
316958 On ch=2 n=c#6 v=0
316960 On ch=2 n=c#5 v=97
317022 On ch=2 n=c#5 v=0
317024 On ch=2 n=g5 v=98
317086 On ch=2 n=g5 v=0
317088 On ch=1 n=d#7 v=99
317088 On ch=1 n=d#7 v=99
317150 On ch=1 n=d#7 v=0
317152 On ch=1 n=d#6 v=100
317214 On ch=1 n=d#6 v=0
317216 On ch=1 n=g6 v=101
317232 On ch=1 n=c#7 v=0
317232 On ch=2 n=c#6 v=0
317248 On ch=1 n=d#7 v=0
317278 On ch=1 n=g6 v=0
317280 Par ch=2 c=64 v=0
317280 Tempo 263157
317280 Tempo 263157
317280 Par ch=2 c=64 v=127
317280 On ch=2 n=d4 v=127
317280 On ch=2 n=g4 v=127
317280 On ch=2 n=b4 v=127
317280 On ch=2 n=d5 v=127
317440 On ch=2 n=d4 v=0
317440 On ch=2 n=g4 v=0
317440 On ch=2 n=b4 v=0
317440 On ch=2 n=d5 v=0
317472 On ch=1 n=g5 v=105
317472 On ch=2 n=e5 v=105
317472 On ch=2 n=b5 v=105
317534 On ch=1 n=g5 v=0
317536 On ch=1 n=d6 v=106
317598 On ch=1 n=d6 v=0
317600 On ch=1 n=g5 v=107
317662 On ch=1 n=g5 v=0
317664 On ch=1 n=g6 v=108
317726 On ch=1 n=g6 v=0
317728 On ch=1 n=d6 v=109
317790 On ch=1 n=d6 v=0
317790 On ch=2 n=e5 v=0
317790 On ch=2 n=b5 v=0
317792 On ch=1 n=g6 v=110
317792 On ch=2 n=c5 v=110
317792 On ch=2 n=a5 v=110
317854 On ch=1 n=g6 v=0
317854 On ch=2 n=c5 v=0
317854 On ch=2 n=a5 v=0
317856 On ch=1 n=d6 v=111
317856 On ch=2 n=b4 v=111
317856 On ch=2 n=d5 v=111
317856 On ch=2 n=g5 v=111
317918 On ch=1 n=d6 v=0
317920 On ch=1 n=g6 v=112
317982 On ch=1 n=g6 v=0
317984 On ch=1 n=d6 v=113
318046 On ch=1 n=d6 v=0
318048 Par ch=2 c=64 v=0
318048 Tempo 262008
318048 Tempo 262008
318048 Par ch=2 c=64 v=127
318048 On ch=1 n=d7 v=114
318110 On ch=1 n=d7 v=0
318112 On ch=1 n=g6 v=115
318174 On ch=1 n=g6 v=0
318174 On ch=2 n=a#4 v=0
318174 On ch=2 n=d5 v=0
318174 On ch=2 n=g5 v=0
318176 On ch=1 n=d7 v=116
318176 On ch=2 n=a4 v=116
318176 On ch=2 n=f#5 v=116
318238 On ch=1 n=d7 v=0
318238 On ch=2 n=a4 v=0
318238 On ch=2 n=f#5 v=0
318240 On ch=1 n=b5 v=117
318240 On ch=2 n=g4 v=117
318240 On ch=2 n=b4 v=117
318240 On ch=2 n=e5 v=117
318302 On ch=1 n=b5 v=0
318304 On ch=1 n=e6 v=118
318366 On ch=1 n=e6 v=0
318368 On ch=1 n=b5 v=119
318430 On ch=1 n=b5 v=0
318432 On ch=1 n=b6 v=120
318494 On ch=1 n=b6 v=0
318496 On ch=1 n=e6 v=121
318558 On ch=1 n=e6 v=0
318558 On ch=2 n=g4 v=0
318558 On ch=2 n=b4 v=0
318558 On ch=2 n=e5 v=0
318560 On ch=1 n=b6 v=122
318560 On ch=2 n=f#4 v=122
318560 On ch=2 n=d5 v=122
318622 On ch=1 n=b6 v=0
318622 On ch=2 n=f#4 v=0
318622 On ch=2 n=d5 v=0
318624 On ch=1 n=g6 v=123
318624 On ch=2 n=e4 v=123
318624 On ch=2 n=g4 v=123
318624 On ch=2 n=c5 v=123
318686 On ch=1 n=g6 v=0
318688 On ch=1 n=c7 v=124
318750 On ch=1 n=c7 v=0
318752 On ch=1 n=g6 v=125
318814 On ch=1 n=g6 v=0
318816 Par ch=2 c=64 v=0
318816 Tempo 260869
318816 Tempo 260869
318816 Par ch=2 c=64 v=127
318816 On ch=1 n=g7 v=127
318878 On ch=1 n=g7 v=0
318880 On ch=1 n=c7 v=127
318942 On ch=1 n=c7 v=0
318942 On ch=2 n=e4 v=0
318942 On ch=2 n=g4 v=0
318942 On ch=2 n=c5 v=0
318944 On ch=1 n=g7 v=127
318944 On ch=2 n=d4 v=127
318944 On ch=2 n=b4 v=127
319006 On ch=1 n=g7 v=0
319006 On ch=2 n=d4 v=0
319006 On ch=2 n=b4 v=0
319008 On ch=1 n=e6 v=127
319008 On ch=2 n=c4 v=127
319008 On ch=2 n=e4 v=127
319008 On ch=2 n=a4 v=127
319070 On ch=1 n=e6 v=0
319072 On ch=1 n=a6 v=127
319134 On ch=1 n=a6 v=0
319136 On ch=1 n=e6 v=127
319198 On ch=1 n=e6 v=0
319200 On ch=1 n=e7 v=127
319262 On ch=1 n=e7 v=0
319264 On ch=1 n=a6 v=127
319326 On ch=1 n=a6 v=0
319326 On ch=2 n=c4 v=0
319326 On ch=2 n=e4 v=0
319326 On ch=2 n=a4 v=0
319328 On ch=1 n=e7 v=127
319328 On ch=2 n=b3 v=127
319328 On ch=2 n=g4 v=127
319390 On ch=1 n=e7 v=0
319390 On ch=2 n=b3 v=0
319390 On ch=2 n=g4 v=0
319392 On ch=1 n=b6 v=127
319392 On ch=2 n=a3 v=127
319392 On ch=2 n=f#4 v=127
319454 On ch=1 n=b6 v=0
319456 On ch=1 n=d7 v=127
319518 On ch=1 n=d7 v=0
319518 On ch=2 n=a3 v=0
319518 On ch=2 n=f#4 v=0
319520 On ch=1 n=b6 v=127
319520 On ch=2 n=g3 v=127
319520 On ch=2 n=e4 v=127
319582 On ch=1 n=b6 v=0
319582 On ch=2 n=g3 v=0
319582 On ch=2 n=e4 v=0
319584 Par ch=2 c=64 v=0
319584 Par ch=2 c=64 v=127
319584 On ch=1 n=b7 v=127
319584 On ch=2 n=f#3 v=127
319584 On ch=2 n=d4 v=127
319646 On ch=1 n=b7 v=0
319648 On ch=1 n=d7 v=127
319710 On ch=1 n=d7 v=0
319712 On ch=1 n=b7 v=127
319744 On ch=2 n=f#3 v=0
319744 On ch=2 n=d4 v=0
319774 On ch=1 n=b7 v=0
319776 On ch=1 n=d7 v=127
319776 On ch=2 n=e3 v=127
319776 On ch=2 n=c4 v=127
319824 On ch=2 n=e3 v=0
319824 On ch=2 n=c4 v=0
319838 On ch=1 n=d7 v=0
319840 On ch=1 n=g7 v=127
319902 On ch=1 n=g7 v=0
319904 On ch=1 n=d7 v=127
319966 On ch=1 n=d7 v=0
319968 On ch=1 n=d8 v=127
319968 On ch=2 n=d3 v=127
319968 On ch=2 n=b3 v=127
320016 On ch=2 n=d3 v=0
320016 On ch=2 n=b3 v=0
320030 On ch=1 n=d8 v=0
320032 On ch=1 n=g7 v=127
320094 On ch=1 n=g7 v=0
320096 On ch=1 n=d8 v=127
320158 On ch=1 n=d8 v=0
320160 On ch=1 n=d7 v=127
320160 On ch=2 n=c3 v=127
320160 On ch=2 n=a3 v=127
320208 On ch=2 n=c3 v=0
320208 On ch=2 n=a3 v=0
320222 On ch=1 n=d7 v=0
320224 On ch=1 n=d8 v=127
320286 On ch=1 n=d8 v=0
320288 On ch=1 n=d7 v=127
320350 On ch=1 n=d7 v=0
320352 Par ch=2 c=64 v=0
320352 Par ch=2 c=64 v=127
320352 On ch=2 n=g2 v=127
320352 On ch=2 n=g3 v=127
320480 On ch=1 n=c#7 v=127
320480 On ch=1 n=g7 v=127
320480 On ch=1 n=b7 v=127
320480 On ch=1 n=c#8 v=127
320480 On ch=2 n=e5 v=127
320480 On ch=2 n=g5 v=127
320480 On ch=2 n=b5 v=127
320480 On ch=2 n=e6 v=127
320542 On ch=1 n=c#7 v=0
320542 On ch=1 n=g7 v=0
320542 On ch=1 n=b7 v=0
320542 On ch=1 n=c#8 v=0
320542 On ch=2 n=e5 v=0
320542 On ch=2 n=g5 v=0
320542 On ch=2 n=b5 v=0
320542 On ch=2 n=e6 v=0
320544 On ch=1 n=d7 v=127
320544 On ch=1 n=g7 v=127
320544 On ch=1 n=b7 v=127
320544 On ch=1 n=d8 v=127
320544 On ch=2 n=d5 v=127
320544 On ch=2 n=f5 v=127
320544 On ch=2 n=b5 v=127
320544 On ch=2 n=d6 v=127
320862 On ch=1 n=d7 v=0
320862 On ch=1 n=g7 v=0
320862 On ch=1 n=b7 v=0
320862 On ch=1 n=d8 v=0
320862 On ch=2 n=d5 v=0
320862 On ch=2 n=f5 v=0
320862 On ch=2 n=b5 v=0
320862 On ch=2 n=d6 v=0
320864 On ch=1 n=a6 v=127
320864 On ch=1 n=e7 v=127
320864 On ch=1 n=g7 v=127
320864 On ch=1 n=a7 v=127
320864 On ch=2 n=c5 v=127
320864 On ch=2 n=e5 v=127
320864 On ch=2 n=g5 v=127
320864 On ch=2 n=c6 v=127
320926 On ch=1 n=a6 v=0
320926 On ch=1 n=e7 v=0
320926 On ch=1 n=g7 v=0
320926 On ch=1 n=a7 v=0
320926 On ch=2 n=c5 v=0
320926 On ch=2 n=e5 v=0
320926 On ch=2 n=g5 v=0
320926 On ch=2 n=c6 v=0
320928 On ch=1 n=b6 v=127
320928 On ch=1 n=d7 v=127
320928 On ch=1 n=g7 v=127
320928 On ch=1 n=b7 v=127
320928 On ch=2 n=b4 v=127
320928 On ch=2 n=d5 v=127
320928 On ch=2 n=g5 v=127
320928 On ch=2 n=b5 v=127
321054 On ch=1 n=b6 v=0
321054 On ch=1 n=d7 v=0
321054 On ch=1 n=g7 v=0
321054 On ch=1 n=b7 v=0
321054 On ch=2 n=b4 v=0
321054 On ch=2 n=d5 v=0
321054 On ch=2 n=g5 v=0
321054 On ch=2 n=b5 v=0
321056 On ch=1 n=f#6 v=127
321056 On ch=1 n=d7 v=127
321056 On ch=1 n=f#7 v=127
321056 On ch=2 n=a4 v=127
321056 On ch=2 n=c5 v=127
321056 On ch=2 n=d5 v=127
321056 On ch=2 n=a5 v=127
321072 On ch=2 n=g2 v=0
321072 On ch=2 n=g3 v=0
321118 On ch=1 n=f#6 v=0
321118 On ch=1 n=d7 v=0
321118 On ch=1 n=f#7 v=0
321118 On ch=2 n=a4 v=0
321118 On ch=2 n=c5 v=0
321118 On ch=2 n=d5 v=0
321118 On ch=2 n=a5 v=0
321120 Par ch=2 c=64 v=0
321120 Par ch=2 c=64 v=127
321120 On ch=1 n=g6 v=127
321120 On ch=1 n=d7 v=127
321120 On ch=1 n=g7 v=127
321120 On ch=2 n=g4 v=127
321120 On ch=2 n=b4 v=127
321120 On ch=2 n=d5 v=127
321120 On ch=2 n=g5 v=127
321246 On ch=1 n=g6 v=0
321246 On ch=1 n=d7 v=0
321246 On ch=1 n=g7 v=0
321246 On ch=2 n=g4 v=0
321246 On ch=2 n=b4 v=0
321246 On ch=2 n=d5 v=0
321246 On ch=2 n=g5 v=0
321248 On ch=1 n=c#6 v=127
321248 On ch=1 n=g6 v=127
321248 On ch=1 n=b6 v=127
321248 On ch=1 n=c#7 v=127
321248 On ch=2 n=g4 v=127
321248 On ch=2 n=b4 v=127
321248 On ch=2 n=e5 v=127
321310 On ch=1 n=c#6 v=0
321310 On ch=1 n=g6 v=0
321310 On ch=1 n=b6 v=0
321310 On ch=1 n=c#7 v=0
321310 On ch=2 n=g4 v=0
321310 On ch=2 n=b4 v=0
321310 On ch=2 n=e5 v=0
321312 On ch=1 n=d6 v=127
321312 On ch=1 n=g6 v=127
321312 On ch=1 n=b6 v=127
321312 On ch=1 n=d7 v=127
321312 On ch=2 n=f#4 v=127
321312 On ch=2 n=g4 v=127
321312 On ch=2 n=b4 v=127
321312 On ch=2 n=d5 v=127
321630 On ch=1 n=d6 v=0
321630 On ch=1 n=g6 v=0
321630 On ch=1 n=b6 v=0
321630 On ch=1 n=d7 v=0
321630 On ch=2 n=f#4 v=0
321630 On ch=2 n=g4 v=0
321630 On ch=2 n=b4 v=0
321630 On ch=2 n=d5 v=0
321632 On ch=1 n=a5 v=127
321632 On ch=1 n=e6 v=127
321632 On ch=1 n=g6 v=127
321632 On ch=1 n=a6 v=127
321632 On ch=2 n=e4 v=127
321632 On ch=2 n=g4 v=127
321632 On ch=2 n=c5 v=127
321694 On ch=1 n=a5 v=0
321694 On ch=1 n=e6 v=0
321694 On ch=1 n=g6 v=0
321694 On ch=1 n=a6 v=0
321694 On ch=2 n=e4 v=0
321694 On ch=2 n=g4 v=0
321694 On ch=2 n=c5 v=0
321696 On ch=1 n=b5 v=127
321696 On ch=1 n=d6 v=127
321696 On ch=1 n=g6 v=127
321696 On ch=1 n=b6 v=127
321696 On ch=2 n=d4 v=127
321696 On ch=2 n=g4 v=127
321696 On ch=2 n=b4 v=127
321822 On ch=1 n=b5 v=0
321822 On ch=1 n=d6 v=0
321822 On ch=1 n=g6 v=0
321822 On ch=1 n=b6 v=0
321822 On ch=2 n=d4 v=0
321822 On ch=2 n=g4 v=0
321822 On ch=2 n=b4 v=0
321824 On ch=1 n=f#5 v=127
321824 On ch=1 n=d6 v=127
321824 On ch=1 n=f#6 v=127
321824 On ch=2 n=c4 v=127
321824 On ch=2 n=d4 v=127
321824 On ch=2 n=a4 v=127
321886 On ch=1 n=f#5 v=0
321886 On ch=1 n=d6 v=0
321886 On ch=1 n=f#6 v=0
321886 On ch=2 n=c4 v=0
321886 On ch=2 n=d4 v=0
321886 On ch=2 n=a4 v=0
321888 Par ch=2 c=64 v=0
321888 Par ch=2 c=64 v=127
321888 On ch=1 n=g5 v=127
321888 On ch=1 n=d6 v=127
321888 On ch=1 n=g6 v=127
321888 On ch=2 n=b3 v=127
321888 On ch=2 n=d4 v=127
321888 On ch=2 n=g4 v=127
321982 On ch=2 n=b3 v=0
321982 On ch=2 n=d4 v=0
321982 On ch=2 n=g4 v=0
321984 On ch=2 n=g2 v=127
321984 On ch=2 n=g3 v=127
322014 On ch=1 n=g5 v=0
322014 On ch=1 n=d6 v=0
322014 On ch=1 n=g6 v=0
322016 On ch=1 n=c#5 v=127
322016 On ch=1 n=g5 v=127
322016 On ch=1 n=b5 v=127
322016 On ch=1 n=c#6 v=127
322078 On ch=1 n=c#5 v=0
322078 On ch=1 n=g5 v=0
322078 On ch=1 n=b5 v=0
322078 On ch=1 n=c#6 v=0
322078 On ch=2 n=g2 v=0
322078 On ch=2 n=g3 v=0
322080 On ch=1 n=d5 v=127
322080 On ch=1 n=g5 v=127
322080 On ch=1 n=b5 v=127
322080 On ch=1 n=d6 v=127
322080 On ch=2 n=d4 v=127
322080 On ch=2 n=g4 v=127
322080 On ch=2 n=b4 v=127
322398 On ch=1 n=d5 v=0
322398 On ch=1 n=g5 v=0
322398 On ch=1 n=b5 v=0
322398 On ch=1 n=d6 v=0
322398 On ch=2 n=d4 v=0
322398 On ch=2 n=g4 v=0
322398 On ch=2 n=b4 v=0
322400 On ch=1 n=e5 v=127
322400 On ch=1 n=g5 v=127
322400 On ch=1 n=a5 v=127
322400 On ch=2 n=c4 v=127
322400 On ch=2 n=a4 v=127
322462 On ch=1 n=e5 v=0
322462 On ch=1 n=g5 v=0
322462 On ch=1 n=a5 v=0
322462 On ch=2 n=c4 v=0
322462 On ch=2 n=a4 v=0
322464 On ch=1 n=d5 v=127
322464 On ch=1 n=g5 v=127
322464 On ch=1 n=b5 v=127
322464 On ch=2 n=b3 v=127
322464 On ch=2 n=g4 v=127
322590 On ch=1 n=d5 v=0
322590 On ch=1 n=g5 v=0
322590 On ch=1 n=b5 v=0
322590 On ch=2 n=b3 v=0
322590 On ch=2 n=g4 v=0
322592 On ch=1 n=c#5 v=127
322592 On ch=1 n=f#5 v=127
322592 On ch=2 n=a3 v=127
322592 On ch=2 n=d4 v=127
322654 On ch=1 n=c#5 v=0
322654 On ch=1 n=f#5 v=0
322654 On ch=2 n=a3 v=0
322654 On ch=2 n=d4 v=0
322656 Par ch=2 c=64 v=0
322656 Par ch=2 c=64 v=127
322656 On ch=1 n=b4 v=127
322656 On ch=1 n=g5 v=127
322656 On ch=2 n=g3 v=127
322656 On ch=2 n=d4 v=127
322664 Tempo 262008
322664 Tempo 262008
322673 Tempo 263157
322673 Tempo 263157
322682 Tempo 264317
322682 Tempo 264317
322691 Tempo 265486
322691 Tempo 265486
322700 Tempo 266666
322700 Tempo 266666
322708 Tempo 267857
322708 Tempo 267857
322717 Tempo 269058
322717 Tempo 269058
322726 Tempo 270270
322726 Tempo 270270
322735 Tempo 271493
322735 Tempo 271493
322744 Tempo 272727
322744 Tempo 272727
322752 Tempo 273972
322752 Tempo 273972
322761 Tempo 275229
322761 Tempo 275229
322770 Tempo 276497
322770 Tempo 276497
322779 Tempo 277777
322779 Tempo 277777
322782 On ch=1 n=b4 v=0
322782 On ch=1 n=g5 v=0
322782 On ch=2 n=g3 v=0
322782 On ch=2 n=d4 v=0
322784 On ch=1 n=a4 v=119
322784 On ch=1 n=d5 v=119
322784 On ch=2 n=f#3 v=119
322784 On ch=2 n=b3 v=119
322788 Tempo 279069
322788 Tempo 279069
322796 Tempo 280373
322796 Tempo 280373
322805 Tempo 281690
322805 Tempo 281690
322814 Tempo 283018
322814 Tempo 283018
322823 Tempo 284360
322823 Tempo 284360
322832 Tempo 285714
322832 Tempo 285714
322840 Tempo 287081
322840 Tempo 287081
322846 On ch=1 n=a4 v=0
322846 On ch=1 n=d5 v=0
322846 On ch=2 n=f#3 v=0
322846 On ch=2 n=b3 v=0
322848 On ch=1 n=g4 v=115
322848 On ch=1 n=e5 v=115
322848 On ch=2 n=e3 v=115
322848 On ch=2 n=b3 v=115
322849 Tempo 288461
322849 Tempo 288461
322858 Tempo 289855
322858 Tempo 289855
322867 Tempo 291262
322867 Tempo 291262
322876 Tempo 292682
322876 Tempo 292682
322884 Tempo 294117
322884 Tempo 294117
322893 Tempo 295566
322893 Tempo 295566
322902 Tempo 297029
322902 Tempo 297029
322911 Tempo 298507
322911 Tempo 298507
322920 Tempo 300000
322920 Tempo 300000
322928 Tempo 301507
322928 Tempo 301507
322937 Tempo 303030
322937 Tempo 303030
322946 Tempo 304568
322946 Tempo 304568
322955 Tempo 306122
322955 Tempo 306122
322964 Tempo 307692
322964 Tempo 307692
322972 Tempo 309278
322972 Tempo 309278
322974 On ch=1 n=g4 v=0
322974 On ch=1 n=e5 v=0
322974 On ch=2 n=e3 v=0
322974 On ch=2 n=b3 v=0
322976 On ch=1 n=c#5 v=107
322976 On ch=2 n=c#3 v=107
322976 On ch=2 n=c#4 v=107
322981 Tempo 310880
322981 Tempo 310880
322990 Tempo 312500
322990 Tempo 312500
322999 Tempo 314136
322999 Tempo 314136
323008 Tempo 315789
323008 Tempo 315789
323016 Tempo 317460
323016 Tempo 317460
323025 Tempo 319148
323025 Tempo 319148
323034 Tempo 320855
323034 Tempo 320855
323038 On ch=1 n=c#5 v=0
323038 On ch=2 n=c#3 v=0
323038 On ch=2 n=c#4 v=0
323040 On ch=1 n=d5 v=103
323040 On ch=2 n=d3 v=103
323040 On ch=2 n=d4 v=103
323043 Tempo 322580
323043 Tempo 322580
323052 Tempo 324324
323052 Tempo 324324
323060 Tempo 326086
323060 Tempo 326086
323069 Tempo 327868
323069 Tempo 327868
323078 Tempo 329670
323078 Tempo 329670
323087 Tempo 331491
323087 Tempo 331491
323096 Tempo 333333
323096 Tempo 333333
323104 Tempo 335195
323104 Tempo 335195
323113 Tempo 337078
323113 Tempo 337078
323122 Tempo 338983
323122 Tempo 338983
323131 Tempo 340909
323131 Tempo 340909
323140 Tempo 342857
323140 Tempo 342857
323148 Tempo 344827
323148 Tempo 344827
323157 Tempo 346820
323157 Tempo 346820
323166 On ch=1 n=d5 v=0
323166 On ch=2 n=d3 v=0
323166 On ch=2 n=d4 v=0
323166 Tempo 348837
323166 Tempo 348837
323168 On ch=1 n=a4 v=94
323168 On ch=2 n=a2 v=94
323168 On ch=2 n=a3 v=94
323175 Tempo 350877
323175 Tempo 350877
323184 Tempo 352941
323184 Tempo 352941
323192 Tempo 355029
323192 Tempo 355029
323201 Tempo 357142
323201 Tempo 357142
323210 Tempo 359281
323210 Tempo 359281
323219 Tempo 361445
323219 Tempo 361445
323228 Tempo 363636
323228 Tempo 363636
323230 On ch=1 n=a4 v=0
323230 On ch=2 n=a2 v=0
323230 On ch=2 n=a3 v=0
323232 On ch=1 n=b4 v=90
323232 On ch=2 n=b2 v=90
323232 On ch=2 n=b3 v=90
323236 Tempo 365853
323236 Tempo 365853
323245 Tempo 368098
323245 Tempo 368098
323254 Tempo 370370
323254 Tempo 370370
323263 Tempo 372670
323263 Tempo 372670
323272 Tempo 375000
323272 Tempo 375000
323280 Tempo 377358
323280 Tempo 377358
323289 Tempo 379746
323289 Tempo 379746
323298 Tempo 382165
323298 Tempo 382165
323307 Tempo 384615
323307 Tempo 384615
323316 Tempo 387096
323316 Tempo 387096
323324 Tempo 389610
323324 Tempo 389610
323333 Tempo 392156
323333 Tempo 392156
323342 Tempo 394736
323342 Tempo 394736
323351 Tempo 397350
323351 Tempo 397350
323358 On ch=1 n=b4 v=0
323358 On ch=2 n=b2 v=0
323358 On ch=2 n=b3 v=0
323360 Tempo 400000
323360 Tempo 400000
323360 On ch=2 n=f#2 v=80
323360 On ch=2 n=f#3 v=80
323422 On ch=2 n=f#2 v=0
323422 On ch=2 n=f#3 v=0
323424 Par ch=2 c=64 v=0
323424 Tempo 352941
323424 Tempo 352941
323424 Par ch=2 c=64 v=127
323424 On ch=1 n=c5 v=105
323424 On ch=1 n=d#5 v=105
323424 On ch=1 n=g5 v=105
323424 On ch=1 n=c6 v=105
323424 On ch=2 n=g2 v=75
323424 On ch=2 n=g3 v=75
323446 On ch=2 n=g2 v=0
323446 On ch=2 n=g3 v=0
323448 On ch=2 n=g2 v=75
323448 On ch=2 n=g3 v=75
323448 On ch=2 n=d#4 v=75
323448 On ch=2 n=g4 v=75
323566 On ch=2 n=g2 v=0
323566 On ch=2 n=g3 v=0
323568 On ch=2 n=c5 v=75
323614 On ch=2 n=c5 v=0
323616 On ch=2 n=g3 v=75
323950 On ch=2 n=g3 v=0
323952 On ch=2 n=g4 v=75
323998 On ch=2 n=g4 v=0
324000 On ch=2 n=g3 v=75
324142 On ch=2 n=g3 v=0
324144 On ch=2 n=d#4 v=0
324144 On ch=2 n=g4 v=0
324144 On ch=2 n=d#4 v=75
324190 On ch=2 n=d#4 v=0
324192 Par ch=2 c=64 v=0
324192 Par ch=2 c=64 v=127
324192 On ch=2 n=g3 v=75
324334 On ch=2 n=g3 v=0
324336 On ch=2 n=g4 v=75
324382 On ch=2 n=g4 v=0
324384 On ch=2 n=g3 v=75
324718 On ch=2 n=g3 v=0
324720 On ch=2 n=d#4 v=75
324766 On ch=2 n=d#4 v=0
324768 On ch=2 n=g3 v=75
324910 On ch=2 n=g3 v=0
324912 On ch=2 n=c4 v=75
324958 On ch=2 n=c4 v=0
324960 Par ch=2 c=64 v=0
324960 Par ch=2 c=64 v=127
324960 On ch=2 n=g3 v=75
325102 On ch=2 n=g3 v=0
325104 On ch=2 n=d#4 v=75
325150 On ch=2 n=d#4 v=0
325152 On ch=2 n=g3 v=75
325486 On ch=2 n=g3 v=0
325488 On ch=2 n=c4 v=75
325534 On ch=2 n=c4 v=0
325536 On ch=2 n=g3 v=75
325678 On ch=2 n=g3 v=0
325680 On ch=1 n=c5 v=0
325680 On ch=1 n=e5 v=0
325680 On ch=1 n=g5 v=0
325680 On ch=1 n=c6 v=0
325680 On ch=2 n=a#3 v=75
325726 On ch=2 n=a#3 v=0
325728 Par ch=2 c=64 v=0
325728 Par ch=2 c=64 v=127
325728 On ch=1 n=a#4 v=75
325728 On ch=1 n=c#5 v=75
325728 On ch=1 n=g5 v=75
325728 On ch=1 n=c6 v=75
325728 On ch=2 n=g3 v=75
325728 On ch=2 n=d#4 v=75
325870 On ch=2 n=g3 v=0
325872 On ch=2 n=d#4 v=75
325918 On ch=2 n=d#4 v=0
325920 On ch=2 n=g3 v=75
326254 On ch=2 n=g3 v=0
326256 On ch=2 n=a#3 v=75
326302 On ch=2 n=a#3 v=0
326304 On ch=2 n=g3 v=75
326352 On ch=1 n=c6 v=0
326446 On ch=2 n=g3 v=0
326448 On ch=1 n=a#4 v=0
326448 On ch=1 n=c#5 v=0
326448 On ch=1 n=g5 v=0
326448 On ch=2 n=d#4 v=0
326448 On ch=2 n=a3 v=75
326448 On ch=1 n=d6 v=75
326494 On ch=2 n=a3 v=0
326494 On ch=1 n=d6 v=0
326496 Par ch=2 c=64 v=0
326496 Par ch=2 c=64 v=127
326496 On ch=2 n=d4 v=75
326496 On ch=2 n=g3 v=75
326496 On ch=1 n=a#4 v=105
326518 On ch=1 n=a#4 v=0
326520 On ch=1 n=d5 v=105
326542 On ch=1 n=d5 v=0
326544 On ch=1 n=g5 v=105
326566 On ch=1 n=g5 v=0
326568 On ch=1 n=d6 v=75
326568 On ch=1 n=g5 v=75
326568 On ch=1 n=d5 v=75
326568 On ch=1 n=a#4 v=75
326638 On ch=2 n=g3 v=0
326640 On ch=2 n=a3 v=75
326686 On ch=2 n=a3 v=0
326688 On ch=2 n=g3 v=75
327022 On ch=2 n=g3 v=0
327024 On ch=2 n=d4 v=75
327070 On ch=2 n=d4 v=0
327072 On ch=2 n=g3 v=75
327214 On ch=2 n=g3 v=0
327216 On ch=2 n=d4 v=0
327216 On ch=2 n=a#4 v=75
327262 On ch=2 n=a#4 v=0
327264 Par ch=2 c=64 v=0
327264 Par ch=2 c=64 v=127
327264 On ch=2 n=g3 v=75
327406 On ch=2 n=g3 v=0
327408 On ch=2 n=d#4 v=75
327454 On ch=2 n=d#4 v=0
327456 On ch=2 n=d4 v=75
327790 On ch=2 n=d4 v=0
327792 On ch=2 n=a#4 v=75
327838 On ch=2 n=a#4 v=0
327840 On ch=2 n=d4 v=75
327982 On ch=2 n=d4 v=0
327984 On ch=2 n=g5 v=75
328030 On ch=2 n=g5 v=0
328032 Par ch=2 c=64 v=0
328032 Par ch=2 c=64 v=127
328032 On ch=2 n=d4 v=75
328045 Tempo 355029
328047 Tempo 355029
328058 Tempo 357142
328062 Tempo 357142
328072 Tempo 359281
328078 Tempo 359281
328085 Tempo 361445
328093 Tempo 361445
328099 Tempo 363636
328108 Tempo 363636
328112 Tempo 365853
328124 Tempo 365853
328126 Tempo 368098
328139 Tempo 368098
328139 Tempo 370370
328152 Tempo 372670
328154 Tempo 370370
328166 Tempo 375000
328170 Tempo 372670
328174 On ch=2 n=d4 v=0
328176 On ch=2 n=a4 v=72
328179 Tempo 377358
328185 Tempo 375000
328193 Tempo 379746
328200 Tempo 377358
328206 Tempo 382165
328216 Tempo 379746
328220 Tempo 384615
328222 On ch=2 n=a4 v=0
328224 On ch=2 n=g4 v=71
328231 Tempo 382165
328233 Tempo 387096
328247 Tempo 384615
328247 Tempo 389610
328260 Tempo 392156
328262 Tempo 387096
328273 Tempo 394736
328277 Tempo 389610
328287 Tempo 397350
328293 Tempo 392156
328300 Tempo 400000
328308 Tempo 394736
328314 Tempo 402684
328323 Tempo 397350
328327 Tempo 405405
328339 Tempo 400000
328341 Tempo 408163
328354 Tempo 402684
328354 Tempo 410958
328367 Tempo 413793
328369 Tempo 405405
328381 Tempo 416666
328385 Tempo 408163
328394 Tempo 419580
328400 Tempo 410958
328408 Tempo 422535
328415 Tempo 413793
328421 Tempo 425531
328431 Tempo 416666
328435 Tempo 428571
328446 Tempo 419580
328448 Tempo 431654
328462 Tempo 422535
328462 Tempo 434782
328475 Tempo 437956
328477 Tempo 425531
328488 Tempo 441176
328492 Tempo 428571
328502 Tempo 444444
328508 Tempo 431654
328515 Tempo 447761
328523 Tempo 434782
328529 Tempo 451127
328538 Tempo 437956
328542 Tempo 454545
328554 Tempo 441176
328556 Tempo 458015
328558 On ch=2 n=g4 v=0
328560 On ch=2 n=d5 v=64
328569 Tempo 444444
328569 Tempo 461538
328583 Tempo 465116
328584 Tempo 447761
328596 Tempo 468750
328600 Tempo 451127
328606 On ch=2 n=d5 v=0
328608 On ch=2 n=g4 v=63
328609 Tempo 472440
328615 Tempo 454545
328623 Tempo 476190
328631 Tempo 458015
328636 Tempo 480000
328646 Tempo 461538
328650 Tempo 483870
328661 Tempo 465116
328663 Tempo 487804
328677 Tempo 468750
328677 Tempo 491803
328690 Tempo 495867
328692 Tempo 472440
328703 Tempo 500000
328707 Tempo 476190
328717 Tempo 504201
328723 Tempo 480000
328730 Tempo 508474
328738 Tempo 483870
328744 Tempo 512820
328750 On ch=2 n=g4 v=0
328752 On ch=2 n=a#5 v=60
328753 Tempo 487804
328757 Tempo 517241
328769 Tempo 491803
328771 Tempo 521739
328784 Tempo 495867
328784 Tempo 526315
328798 On ch=2 n=a#5 v=0
328798 Tempo 530973
328799 Tempo 500000
328800 Par ch=2 c=64 v=0
328800 On ch=2 n=g4 v=59
328811 Tempo 535714
328815 Tempo 504201
328824 Tempo 540540
328830 Tempo 508474
328838 Tempo 545454
328846 Tempo 512820
328851 Tempo 550458
328861 Tempo 517241
328865 Tempo 555555
328876 Tempo 521739
328878 Tempo 560747
328892 Tempo 526315
328892 Tempo 566037
328905 Tempo 571428
328907 Tempo 530973
328919 Tempo 576923
328922 Tempo 535714
328932 Tempo 582524
328938 Tempo 540540
328942 On ch=2 n=g4 v=0
328944 Par ch=2 c=64 v=127
328944 On ch=2 n=a#5 v=56
328945 Tempo 588235
328953 Tempo 545454
328959 Tempo 594059
328968 Tempo 550458
328972 Tempo 600000
328984 Tempo 555555
328986 Tempo 606060
328990 On ch=2 n=a#5 v=0
328992 On ch=2 n=d5 v=55
328999 Tempo 560747
328999 Tempo 612244
329013 Tempo 618556
329015 Tempo 566037
329026 Tempo 625000
329030 Tempo 571428
329039 Tempo 631578
329045 Tempo 576923
329053 Tempo 638297
329061 Tempo 582524
329066 Tempo 645161
329076 Tempo 588235
329080 Tempo 652173
329091 Tempo 594059
329093 Tempo 659340
329107 Tempo 600000
329107 Tempo 666666
329120 Tempo 674157
329122 Tempo 606060
329134 Tempo 681818
329137 Tempo 612244
329147 Tempo 689655
329153 Tempo 618556
329160 Tempo 697674
329168 Tempo 625000
329174 Tempo 705882
329183 Tempo 631578
329187 Tempo 714285
329199 Tempo 638297
329201 Tempo 722891
329214 Tempo 645161
329214 Tempo 731707
329228 Tempo 740740
329230 Tempo 652173
329241 Tempo 750000
329245 Tempo 659340
329255 Tempo 759493
329260 Tempo 666666
329268 Tempo 769230
329276 Tempo 674157
329281 Tempo 779220
329291 Tempo 681818
329295 Tempo 789473
329306 Tempo 689655
329308 Tempo 800000
329322 Tempo 697674
329322 Tempo 810810
329326 On ch=2 n=d5 v=0
329328 On ch=2 n=d6 v=47
329335 Tempo 821917
329337 Tempo 705882
329349 Tempo 833333
329352 Tempo 714285
329362 Tempo 845070
329368 Tempo 722891
329374 On ch=2 n=d6 v=0
329376 Tempo 857142
329376 On ch=2 n=g5 v=45
329383 Tempo 731707
329399 Tempo 740740
329414 Tempo 750000
329429 Tempo 759493
329445 Tempo 769230
329460 Tempo 779220
329475 Tempo 789473
329491 Tempo 800000
329506 Tempo 810810
329520 On ch=1 n=a#4 v=0
329520 On ch=1 n=d5 v=0
329520 On ch=1 n=g5 v=0
329520 On ch=1 n=d6 v=0
329521 Tempo 821917
329536 On ch=2 n=g5 v=0
329537 Tempo 833333
329552 Tempo 845070
329568 Par ch=2 c=64 v=0
329568 Tempo 857142
329568 Tempo 666666
329568 Tempo 666666
329760 Par ch=2 c=64 v=127
329760 On ch=1 n=a#5 v=75
329760 On ch=1 n=d6 v=75
329760 On ch=1 n=g6 v=75
329760 On ch=2 n=a#4 v=75
329760 On ch=2 n=d5 v=75
329760 On ch=2 n=g5 v=75
329952 On ch=1 n=a#5 v=0
329952 On ch=1 n=d6 v=0
329952 On ch=1 n=g6 v=0
329952 On ch=2 n=a#4 v=0
329952 On ch=2 n=d5 v=0
329952 On ch=2 n=g5 v=0
329952 On ch=1 n=a#5 v=80
329952 On ch=1 n=d6 v=80
329952 On ch=1 n=f6 v=80
329952 On ch=2 n=a4 v=80
329952 On ch=2 n=a#4 v=80
329952 On ch=2 n=d5 v=80
329952 On ch=2 n=f5 v=80
330336 On ch=1 n=a#5 v=0
330336 On ch=1 n=d6 v=0
330336 On ch=1 n=f6 v=0
330336 On ch=2 n=a4 v=0
330336 On ch=2 n=a#4 v=0
330336 On ch=2 n=d5 v=0
330336 On ch=2 n=f5 v=0
330336 Par ch=2 c=64 v=0
330336 Par ch=2 c=64 v=127
330336 On ch=1 n=a#5 v=92
330336 On ch=1 n=d#6 v=92
330336 On ch=1 n=g6 v=92
330336 On ch=2 n=g4 v=92
330336 On ch=2 n=a#4 v=92
330336 On ch=2 n=d#5 v=92
330336 On ch=2 n=g5 v=92
330528 On ch=1 n=a#6 v=92
330528 On ch=2 n=g2 v=92
331104 On ch=2 n=g2 v=0
331104 Par ch=2 c=64 v=0
331200 On ch=1 n=a#5 v=0
331200 On ch=1 n=d#6 v=0
331200 On ch=1 n=g6 v=0
331200 On ch=1 n=a#6 v=0
331200 On ch=2 n=g4 v=0
331200 On ch=2 n=a#4 v=0
331200 On ch=2 n=d#5 v=0
331200 On ch=2 n=g5 v=0
331296 Par ch=2 c=64 v=127
331296 On ch=1 n=g5 v=92
331296 On ch=1 n=a#5 v=92
331296 On ch=1 n=d6 v=92
331296 On ch=2 n=f4 v=92
331296 On ch=2 n=g4 v=92
331296 On ch=2 n=a#4 v=92
331296 On ch=2 n=d5 v=92
331488 On ch=1 n=g5 v=0
331488 On ch=1 n=a#5 v=0
331488 On ch=1 n=d6 v=0
331488 On ch=2 n=f4 v=0
331488 On ch=2 n=g4 v=0
331488 On ch=2 n=a#4 v=0
331488 On ch=2 n=d5 v=0
331488 On ch=1 n=g5 v=82
331488 On ch=1 n=a5 v=82
331488 On ch=1 n=c6 v=82
331488 On ch=2 n=d#4 v=82
331488 On ch=2 n=g4 v=82
331488 On ch=2 n=a4 v=82
331488 On ch=2 n=c5 v=82
331872 On ch=1 n=g5 v=0
331872 On ch=1 n=a5 v=0
331872 On ch=1 n=c6 v=0
331872 On ch=2 n=d#4 v=0
331872 On ch=2 n=g4 v=0
331872 On ch=2 n=a4 v=0
331872 On ch=2 n=c5 v=0
331872 Par ch=2 c=64 v=0
331872 Par ch=2 c=64 v=127
331872 On ch=1 n=g5 v=60
331872 On ch=1 n=a#5 v=60
331872 On ch=1 n=d6 v=60
331872 On ch=1 n=d6 v=60
331872 On ch=2 n=d4 v=60
331872 On ch=2 n=g4 v=60
331872 On ch=2 n=a#4 v=60
331872 On ch=2 n=d5 v=60
332064 On ch=1 n=d6 v=0
332064 On ch=1 n=g6 v=60
332064 On ch=2 n=g2 v=60
332640 On ch=2 n=g2 v=0
332640 Par ch=2 c=64 v=0
332734 On ch=1 n=g5 v=0
332734 On ch=1 n=a#5 v=0
332734 On ch=1 n=d6 v=0
332734 On ch=1 n=g6 v=0
332734 On ch=2 n=d4 v=0
332734 On ch=2 n=g4 v=0
332734 On ch=2 n=a#4 v=0
332734 On ch=2 n=d5 v=0
332832 Par ch=2 c=64 v=127
332832 On ch=1 n=d5 v=92
332832 On ch=1 n=g5 v=92
332832 On ch=1 n=a#5 v=92
332832 On ch=2 n=d4 v=92
332832 On ch=2 n=g4 v=92
332832 On ch=2 n=a#4 v=92
332992 On ch=1 n=d5 v=0
332992 On ch=1 n=g5 v=0
332992 On ch=1 n=a#5 v=0
332992 On ch=2 n=d4 v=0
332992 On ch=2 n=g4 v=0
332992 On ch=2 n=a#4 v=0
333024 On ch=1 n=c#5 v=92
333024 On ch=1 n=g5 v=92
333024 On ch=1 n=a5 v=92
333024 On ch=2 n=e4 v=92
333024 On ch=2 n=a4 v=92
333280 On ch=1 n=c#5 v=0
333312 On ch=1 n=c5 v=92
333360 On ch=1 n=g5 v=0
333360 On ch=1 n=a5 v=0
333360 On ch=2 n=e4 v=0
333360 On ch=2 n=a4 v=0
333406 On ch=1 n=c5 v=0
333408 Par ch=2 c=64 v=0
333408 Par ch=2 c=64 v=127
333408 On ch=1 n=c5 v=92
333408 On ch=1 n=d#5 v=92
333408 On ch=1 n=g#5 v=92
333408 On ch=2 n=g#3 v=92
333408 On ch=2 n=d#4 v=92
333408 On ch=2 n=g#4 v=92
334078 On ch=1 n=c5 v=0
334078 On ch=1 n=d#5 v=0
334078 On ch=1 n=g#5 v=0
334078 On ch=2 n=g#3 v=0
334078 On ch=2 n=d#4 v=0
334078 On ch=2 n=g#4 v=0
334080 On ch=1 n=c#5 v=92
334080 On ch=1 n=g5 v=92
334080 On ch=1 n=d#6 v=92
334080 On ch=2 n=d#3 v=92
334080 On ch=2 n=d#4 v=92
334174 On ch=1 n=c#5 v=0
334174 On ch=1 n=g5 v=0
334174 On ch=1 n=d#6 v=0
334174 On ch=2 n=d#3 v=0
334174 On ch=2 n=d#4 v=0
334176 Par ch=2 c=64 v=0
334176 Par ch=2 c=64 v=127
334176 On ch=1 n=c5 v=92
334176 On ch=1 n=g#5 v=92
334176 On ch=1 n=c6 v=92
334176 On ch=2 n=g#3 v=92
334176 On ch=2 n=d#4 v=92
335280 On ch=1 n=g#5 v=0
335328 On ch=1 n=g5 v=92
335664 On ch=1 n=c5 v=0
335712 On ch=1 n=c5 v=92
336048 On ch=2 n=a3 v=0
336096 Par ch=2 c=64 v=0
336096 Par ch=2 c=64 v=127
336096 On ch=2 n=a3 v=60
336432 On ch=1 n=g5 v=0
336432 On ch=2 n=e4 v=0
336432 On ch=2 n=a3 v=0
336480 Par ch=2 c=64 v=0
336480 Tempo 300000
336480 Tempo 300000
336480 Par ch=2 c=64 v=127
336480 On ch=1 n=f#5 v=45
336480 On ch=2 n=d3 v=45
336480 On ch=2 n=d4 v=45
336608 Par ch=1 c=64 v=127
336608 On ch=1 n=f#5 v=45
336670 On ch=1 n=f#5 v=0
336672 On ch=1 n=c6 v=45
336734 On ch=1 n=c6 v=0
336736 On ch=1 n=a5 v=45
336798 On ch=1 n=a5 v=0
336800 On ch=1 n=f#5 v=45
336816 On ch=2 n=d3 v=0
336816 On ch=2 n=d4 v=0
336862 On ch=1 n=f#5 v=0
336864 Par ch=1 c=64 v=0
336864 On ch=2 n=d4 v=45
336928 Par ch=1 c=64 v=127
336928 On ch=1 n=f#5 v=45
336990 On ch=1 n=f#5 v=0
336992 On ch=1 n=a5 v=45
337054 On ch=1 n=a5 v=0
337056 On ch=1 n=d6 v=45
337118 On ch=1 n=d6 v=0
337120 On ch=1 n=a5 v=45
337182 On ch=1 n=a5 v=0
337184 On ch=1 n=f#5 v=45
337200 On ch=1 n=c5 v=0
337200 On ch=1 n=f#5 v=0
337200 On ch=1 n=c6 v=0
337200 On ch=2 n=d4 v=0
337246 On ch=1 n=f#5 v=0
337248 Par ch=1 c=64 v=0
337248 Par ch=2 c=64 v=0
337248 Par ch=2 c=64 v=127
337248 On ch=2 n=c5 v=45
337312 Par ch=1 c=64 v=127
337312 On ch=1 n=f#5 v=45
337374 On ch=1 n=f#5 v=0
337376 On ch=1 n=a5 v=45
337438 On ch=1 n=a5 v=0
337440 On ch=1 n=c6 v=45
337502 On ch=1 n=c6 v=0
337504 On ch=1 n=a5 v=45
337566 On ch=1 n=a5 v=0
337568 On ch=1 n=f#5 v=45
337630 On ch=1 n=f#5 v=0
337632 Par ch=1 c=64 v=0
337632 On ch=2 n=d4 v=45
337696 Par ch=1 c=64 v=127
337696 On ch=1 n=f#5 v=45
337758 On ch=1 n=f#5 v=0
337760 On ch=1 n=a5 v=45
337822 On ch=1 n=a5 v=0
337824 On ch=1 n=d6 v=45
337886 On ch=1 n=d6 v=0
337888 On ch=1 n=a5 v=45
337950 On ch=1 n=a5 v=0
337952 On ch=1 n=f#5 v=45
337968 On ch=2 n=c5 v=0
337968 On ch=2 n=d4 v=0
338014 On ch=1 n=f#5 v=0
338016 Par ch=1 c=64 v=0
338016 Par ch=2 c=64 v=0
338016 Par ch=2 c=64 v=127
338016 On ch=2 n=c5 v=45
338080 Par ch=1 c=64 v=127
338080 On ch=1 n=f#5 v=45
338142 On ch=1 n=f#5 v=0
338144 On ch=1 n=a5 v=45
338206 On ch=1 n=a5 v=0
338208 On ch=1 n=c6 v=45
338270 On ch=1 n=c6 v=0
338272 On ch=1 n=a5 v=45
338334 On ch=1 n=a5 v=0
338336 On ch=1 n=f#5 v=45
338398 On ch=1 n=f#5 v=0
338400 Par ch=1 c=64 v=0
338400 On ch=2 n=d4 v=45
338464 Par ch=1 c=64 v=127
338464 On ch=1 n=f#5 v=45
338526 On ch=1 n=f#5 v=0
338528 On ch=1 n=a5 v=45
338590 On ch=1 n=a5 v=0
338592 On ch=1 n=d6 v=45
338654 On ch=1 n=d6 v=0
338656 On ch=1 n=a5 v=45
338718 On ch=1 n=a5 v=0
338720 On ch=1 n=f#5 v=45
338736 On ch=2 n=c5 v=0
338736 On ch=2 n=d4 v=0
338782 On ch=1 n=f#5 v=0
338784 Par ch=1 c=64 v=0
338784 Par ch=2 c=64 v=0
338784 Par ch=2 c=64 v=127
338784 On ch=1 n=a6 v=60
338784 On ch=2 n=c5 v=45
338848 On ch=2 n=f#5 v=45
338910 On ch=2 n=f#5 v=0
338912 On ch=2 n=a5 v=45
338974 On ch=2 n=a5 v=0
338976 On ch=2 n=c6 v=45
339038 On ch=2 n=c6 v=0
339040 On ch=2 n=a5 v=45
339102 On ch=2 n=a5 v=0
339104 On ch=2 n=f#5 v=45
339166 On ch=2 n=f#5 v=0
339168 On ch=2 n=d4 v=45
339232 On ch=2 n=f#5 v=45
339294 On ch=2 n=f#5 v=0
339296 On ch=2 n=a5 v=45
339358 On ch=2 n=a5 v=0
339360 On ch=2 n=d6 v=45
339422 On ch=2 n=d6 v=0
339424 On ch=2 n=a5 v=45
339454 On ch=1 n=a6 v=0
339456 On ch=1 n=a#6 v=60
339486 On ch=2 n=a5 v=0
339488 On ch=2 n=e5 v=45
339504 On ch=2 n=c5 v=0
339504 On ch=2 n=d4 v=0
339550 On ch=1 n=a#6 v=0
339550 On ch=2 n=e5 v=0
339552 Par ch=2 c=64 v=0
339552 Par ch=2 c=64 v=127
339552 On ch=1 n=a#6 v=60
339552 On ch=2 n=a#4 v=45
339616 On ch=2 n=d5 v=45
339678 On ch=2 n=d5 v=0
339680 On ch=2 n=f5 v=45
339742 On ch=2 n=f5 v=0
339744 On ch=2 n=c6 v=45
339806 On ch=2 n=c6 v=0
339808 On ch=2 n=f5 v=45
339870 On ch=2 n=f5 v=0
339872 On ch=2 n=d5 v=45
339934 On ch=2 n=d5 v=0
339936 On ch=2 n=d4 v=45
340000 On ch=2 n=d5 v=45
340062 On ch=2 n=d5 v=0
340064 On ch=2 n=f5 v=45
340126 On ch=2 n=f5 v=0
340128 On ch=2 n=d6 v=45
340190 On ch=2 n=d6 v=0
340192 On ch=2 n=f5 v=45
340254 On ch=2 n=f5 v=0
340256 On ch=2 n=d5 v=45
340272 On ch=1 n=a#6 v=0
340272 On ch=2 n=a#4 v=0
340272 On ch=2 n=d4 v=0
340318 On ch=2 n=d5 v=0
340320 Par ch=2 c=64 v=0
340320 Par ch=2 c=64 v=127
340320 On ch=1 n=d7 v=60
340320 On ch=2 n=a#4 v=45
340384 On ch=2 n=d5 v=45
340446 On ch=2 n=d5 v=0
340448 On ch=2 n=f5 v=45
340510 On ch=2 n=f5 v=0
340512 On ch=2 n=c6 v=45
340574 On ch=2 n=c6 v=0
340576 On ch=2 n=f5 v=45
340638 On ch=2 n=f5 v=0
340640 On ch=2 n=d5 v=45
340702 On ch=2 n=d5 v=0
340704 On ch=2 n=d4 v=45
340768 On ch=2 n=d5 v=45
340830 On ch=2 n=d5 v=0
340832 On ch=2 n=f5 v=45
340894 On ch=2 n=f5 v=0
340896 On ch=2 n=d6 v=45
340958 On ch=2 n=d6 v=0
340960 On ch=2 n=f5 v=45
341022 On ch=2 n=f5 v=0
341024 On ch=2 n=d5 v=45
341040 On ch=1 n=d7 v=0
341040 On ch=2 n=a#4 v=0
341040 On ch=2 n=d4 v=0
341086 On ch=2 n=d5 v=0
341088 Par ch=2 c=64 v=0
341088 Par ch=2 c=64 v=127
341088 On ch=2 n=a#4 v=45
341152 On ch=2 n=d#5 v=45
341214 On ch=2 n=d#5 v=0
341216 On ch=2 n=g5 v=45
341278 On ch=2 n=g5 v=0
341280 On ch=2 n=c6 v=45
341342 On ch=2 n=c6 v=0
341344 On ch=2 n=g5 v=45
341406 On ch=2 n=g5 v=0
341408 On ch=2 n=d#5 v=45
341470 On ch=2 n=d#5 v=0
341472 On ch=2 n=d4 v=45
341536 On ch=2 n=d#5 v=45
341598 On ch=2 n=d#5 v=0
341600 On ch=2 n=g5 v=45
341662 On ch=2 n=g5 v=0
341664 On ch=2 n=d6 v=45
341726 On ch=2 n=d6 v=0
341728 On ch=2 n=g5 v=45
341790 On ch=2 n=g5 v=0
341792 On ch=2 n=d#5 v=45
341808 On ch=2 n=a#4 v=0
341808 On ch=2 n=d4 v=0
341854 On ch=2 n=d#5 v=0
341856 Par ch=2 c=64 v=0
341856 Par ch=2 c=64 v=127
341856 On ch=1 n=g6 v=60
341856 On ch=2 n=a#4 v=45
341920 On ch=2 n=e5 v=45
341982 On ch=2 n=e5 v=0
341984 On ch=2 n=g5 v=45
342046 On ch=2 n=g5 v=0
342048 On ch=2 n=c6 v=45
342110 On ch=2 n=c6 v=0
342112 On ch=2 n=g5 v=45
342174 On ch=2 n=g5 v=0
342176 On ch=2 n=e5 v=45
342238 On ch=2 n=e5 v=0
342240 On ch=2 n=d4 v=45
342304 On ch=2 n=e5 v=45
342366 On ch=2 n=e5 v=0
342368 On ch=2 n=g5 v=45
342430 On ch=2 n=g5 v=0
342432 On ch=2 n=d6 v=45
342494 On ch=2 n=d6 v=0
342496 On ch=2 n=g5 v=45
342526 On ch=1 n=g6 v=0
342528 On ch=1 n=a6 v=60
342558 On ch=2 n=g5 v=0
342560 On ch=2 n=e5 v=45
342576 On ch=2 n=a#4 v=0
342576 On ch=2 n=d4 v=0
342622 On ch=1 n=a6 v=0
342622 On ch=2 n=e5 v=0
342624 Par ch=2 c=64 v=0
342624 Par ch=2 c=64 v=127
342624 On ch=1 n=a6 v=60
342624 On ch=2 n=a4 v=45
342688 On ch=2 n=f5 v=45
342750 On ch=2 n=f5 v=0
342752 On ch=2 n=a5 v=45
342814 On ch=2 n=a5 v=0
342816 On ch=2 n=c6 v=45
342878 On ch=2 n=c6 v=0
342880 On ch=2 n=a5 v=45
342942 On ch=2 n=a5 v=0
342944 On ch=2 n=f5 v=45
343006 On ch=2 n=f5 v=0
343008 On ch=2 n=d4 v=45
343072 On ch=2 n=f5 v=45
343134 On ch=2 n=f5 v=0
343136 On ch=2 n=a5 v=45
343198 On ch=2 n=a5 v=0
343200 On ch=2 n=d6 v=45
343262 On ch=2 n=d6 v=0
343264 On ch=2 n=a5 v=45
343326 On ch=2 n=a5 v=0
343328 On ch=2 n=f5 v=45
343344 On ch=1 n=a6 v=0
343344 On ch=2 n=a4 v=0
343344 On ch=2 n=d4 v=0
343390 On ch=2 n=f5 v=0
343392 Par ch=2 c=64 v=0
343392 Par ch=2 c=64 v=127
343392 On ch=1 n=d7 v=60
343392 On ch=2 n=a4 v=45
343456 On ch=2 n=f5 v=45
343518 On ch=2 n=f5 v=0
343520 On ch=2 n=a5 v=45
343582 On ch=2 n=a5 v=0
343584 On ch=2 n=c6 v=45
343646 On ch=2 n=c6 v=0
343648 On ch=2 n=a5 v=45
343710 On ch=2 n=a5 v=0
343712 On ch=2 n=f5 v=45
343774 On ch=2 n=f5 v=0
343776 On ch=2 n=d4 v=45
343840 On ch=2 n=f5 v=45
343902 On ch=2 n=f5 v=0
343904 On ch=2 n=a5 v=45
343966 On ch=2 n=a5 v=0
343968 On ch=2 n=d6 v=45
344030 On ch=2 n=d6 v=0
344032 On ch=2 n=a5 v=45
344094 On ch=2 n=a5 v=0
344096 On ch=2 n=f5 v=45
344112 On ch=1 n=d7 v=0
344112 On ch=2 n=a4 v=0
344112 On ch=2 n=d4 v=0
344158 On ch=2 n=f5 v=0
344160 Par ch=2 c=64 v=0
344160 Par ch=2 c=64 v=127
344160 On ch=2 n=g#4 v=45
344224 On ch=2 n=d5 v=45
344286 On ch=2 n=d5 v=0
344288 On ch=2 n=f5 v=45
344350 On ch=2 n=f5 v=0
344352 On ch=1 n=d7 v=60
344352 On ch=2 n=c6 v=45
344414 On ch=2 n=c6 v=0
344416 On ch=2 n=f5 v=45
344478 On ch=2 n=f5 v=0
344480 On ch=2 n=d5 v=45
344542 On ch=2 n=d5 v=0
344544 On ch=2 n=d4 v=45
344608 On ch=2 n=d5 v=45
344670 On ch=2 n=d5 v=0
344672 On ch=2 n=f5 v=45
344688 On ch=1 n=d7 v=0
344734 On ch=2 n=f5 v=0
344736 On ch=1 n=c7 v=60
344736 On ch=2 n=d6 v=45
344798 On ch=2 n=d6 v=0
344800 On ch=2 n=f5 v=45
344862 On ch=2 n=f5 v=0
344864 On ch=2 n=d5 v=45
344880 On ch=2 n=g#4 v=0
344880 On ch=2 n=d4 v=0
344896 On ch=1 n=c7 v=0
344926 On ch=2 n=d5 v=0
344928 Par ch=2 c=64 v=0
344928 Par ch=2 c=64 v=127
344928 On ch=1 n=d7 v=60
344928 On ch=2 n=g#4 v=45
344992 On ch=2 n=d5 v=45
345054 On ch=2 n=d5 v=0
345056 On ch=2 n=f5 v=45
345118 On ch=2 n=f5 v=0
345120 On ch=2 n=c6 v=45
345182 On ch=2 n=c6 v=0
345184 On ch=2 n=f5 v=45
345246 On ch=2 n=f5 v=0
345248 On ch=2 n=d5 v=45
345310 On ch=2 n=d5 v=0
345312 On ch=2 n=d4 v=45
345376 On ch=2 n=d5 v=45
345438 On ch=2 n=d5 v=0
345440 On ch=2 n=f5 v=45
345456 On ch=1 n=d7 v=0
345502 On ch=2 n=f5 v=0
345504 On ch=1 n=f7 v=60
345504 On ch=2 n=d6 v=45
345566 On ch=2 n=d6 v=0
345568 On ch=2 n=f5 v=45
345630 On ch=2 n=f5 v=0
345632 On ch=2 n=d5 v=45
345648 On ch=2 n=g#4 v=0
345648 On ch=2 n=d4 v=0
345664 On ch=1 n=f7 v=0
345694 On ch=2 n=d5 v=0
345696 Par ch=2 c=64 v=0
345696 Par ch=2 c=64 v=127
345696 On ch=1 n=d8 v=60
345696 On ch=2 n=g4 v=45
345760 On ch=2 n=d5 v=45
345822 On ch=2 n=d5 v=0
345824 On ch=2 n=f5 v=45
345886 On ch=2 n=f5 v=0
345888 On ch=2 n=b5 v=45
345950 On ch=2 n=b5 v=0
345952 On ch=2 n=f5 v=45
346014 On ch=2 n=f5 v=0
346016 On ch=2 n=d5 v=45
346078 On ch=2 n=d5 v=0
346080 On ch=2 n=d4 v=45
346144 On ch=2 n=d5 v=45
346206 On ch=2 n=d5 v=0
346208 On ch=2 n=f5 v=45
346270 On ch=2 n=f5 v=0
346272 On ch=2 n=d6 v=45
346334 On ch=2 n=d6 v=0
346336 On ch=2 n=f5 v=45
346398 On ch=2 n=f5 v=0
346400 On ch=2 n=d5 v=45
346416 On ch=1 n=d8 v=0
346416 On ch=2 n=g4 v=0
346416 On ch=2 n=d4 v=0
346462 On ch=2 n=d5 v=0
346464 Par ch=2 c=64 v=0
346464 Par ch=2 c=64 v=127
346464 On ch=1 n=g7 v=60
346464 On ch=2 n=g4 v=45
346528 On ch=2 n=d5 v=45
346590 On ch=2 n=d5 v=0
346592 On ch=2 n=f5 v=45
346654 On ch=2 n=f5 v=0
346656 On ch=2 n=b5 v=45
346718 On ch=2 n=b5 v=0
346720 On ch=2 n=f5 v=45
346782 On ch=2 n=f5 v=0
346784 On ch=2 n=d5 v=45
346846 On ch=2 n=d5 v=0
346848 On ch=2 n=d4 v=45
346912 On ch=2 n=d5 v=45
346974 On ch=2 n=d5 v=0
346976 On ch=2 n=f5 v=45
347038 On ch=2 n=f5 v=0
347040 On ch=2 n=d6 v=45
347102 On ch=2 n=d6 v=0
347104 On ch=2 n=f5 v=45
347166 On ch=2 n=f5 v=0
347168 On ch=2 n=d5 v=45
347184 On ch=1 n=g7 v=0
347184 On ch=2 n=g4 v=0
347184 On ch=2 n=d4 v=0
347230 On ch=2 n=d5 v=0
347232 Par ch=2 c=64 v=0
347232 Par ch=2 c=64 v=127
347232 On ch=2 n=g4 v=45
347296 On ch=2 n=d5 v=45
347358 On ch=2 n=d5 v=0
347360 On ch=2 n=f5 v=45
347422 On ch=2 n=f5 v=0
347424 On ch=2 n=a#5 v=45
347486 On ch=2 n=a#5 v=0
347488 On ch=2 n=f5 v=45
347550 On ch=2 n=f5 v=0
347552 On ch=2 n=d5 v=45
347614 On ch=2 n=d5 v=0
347616 On ch=2 n=d4 v=45
347680 On ch=2 n=d5 v=45
347742 On ch=2 n=d5 v=0
347744 On ch=2 n=f5 v=45
347806 On ch=2 n=f5 v=0
347808 On ch=2 n=d6 v=45
347870 On ch=2 n=d6 v=0
347872 On ch=2 n=f5 v=45
347934 On ch=2 n=f5 v=0
347936 On ch=2 n=d5 v=45
347952 On ch=2 n=g4 v=0
347952 On ch=2 n=d4 v=0
347998 On ch=2 n=d5 v=0
348000 Par ch=2 c=64 v=0
348000 Par ch=2 c=64 v=127
348000 On ch=1 n=d7 v=60
348000 On ch=2 n=g#4 v=45
348064 On ch=2 n=d5 v=45
348126 On ch=2 n=d5 v=0
348128 On ch=2 n=e5 v=45
348190 On ch=2 n=e5 v=0
348192 On ch=2 n=a#5 v=45
348254 On ch=2 n=a#5 v=0
348256 On ch=2 n=e5 v=45
348318 On ch=2 n=e5 v=0
348320 On ch=2 n=d5 v=45
348382 On ch=2 n=d5 v=0
348384 On ch=2 n=d4 v=45
348448 On ch=2 n=d5 v=45
348510 On ch=2 n=d5 v=0
348512 On ch=2 n=e5 v=45
348528 On ch=1 n=d7 v=0
348574 On ch=2 n=e5 v=0
348576 On ch=1 n=d7 v=60
348576 On ch=2 n=d6 v=45
348638 On ch=2 n=d6 v=0
348640 On ch=2 n=e5 v=45
348702 On ch=2 n=e5 v=0
348704 On ch=2 n=d5 v=45
348720 On ch=2 n=g#4 v=0
348720 On ch=2 n=d4 v=0
348736 On ch=1 n=d7 v=0
348766 On ch=2 n=d5 v=0
348768 Par ch=2 c=64 v=0
348768 Par ch=2 c=64 v=127
348768 On ch=1 n=d7 v=60
348768 On ch=2 n=a4 v=45
348832 On ch=2 n=f5 v=45
348894 On ch=2 n=f5 v=0
348896 On ch=2 n=a5 v=45
348958 On ch=2 n=a5 v=0
348960 On ch=2 n=c6 v=45
349022 On ch=2 n=c6 v=0
349024 On ch=2 n=a5 v=45
349086 On ch=2 n=a5 v=0
349088 On ch=2 n=f5 v=45
349150 On ch=2 n=f5 v=0
349152 On ch=2 n=d4 v=45
349216 On ch=2 n=f5 v=45
349278 On ch=2 n=f5 v=0
349280 On ch=2 n=a5 v=45
349342 On ch=2 n=a5 v=0
349344 On ch=2 n=d6 v=45
349406 On ch=2 n=d6 v=0
349408 On ch=2 n=a5 v=45
349470 On ch=2 n=a5 v=0
349472 On ch=2 n=f5 v=45
349488 On ch=1 n=d7 v=0
349488 On ch=2 n=a4 v=0
349488 On ch=2 n=d4 v=0
349534 On ch=2 n=f5 v=0
349536 Par ch=2 c=64 v=0
349536 Par ch=2 c=64 v=127
349536 On ch=2 n=f4 v=45
349600 Par ch=1 c=64 v=127
349600 On ch=1 n=d5 v=60
349662 On ch=1 n=d5 v=0
349664 On ch=1 n=f5 v=60
349726 On ch=1 n=f5 v=0
349728 On ch=1 n=g5 v=60
349790 On ch=1 n=g5 v=0
349792 On ch=1 n=f5 v=60
349854 On ch=1 n=f5 v=0
349856 On ch=1 n=d5 v=60
349918 On ch=1 n=d5 v=0
349920 Par ch=1 c=64 v=0
349920 On ch=2 n=a3 v=45
349984 Par ch=1 c=64 v=127
349984 On ch=1 n=d5 v=60
350046 On ch=1 n=d5 v=0
350048 On ch=1 n=f5 v=60
350110 On ch=1 n=f5 v=0
350112 On ch=1 n=a5 v=60
350174 On ch=1 n=a5 v=0
350176 On ch=1 n=f5 v=60
350238 On ch=1 n=f5 v=0
350240 On ch=1 n=d5 v=60
350256 On ch=2 n=f4 v=0
350256 On ch=2 n=a3 v=0
350302 On ch=1 n=d5 v=0
350304 Par ch=1 c=64 v=0
350304 Par ch=2 c=64 v=0
350304 Par ch=2 c=64 v=127
350304 On ch=2 n=d4 v=45
350368 Par ch=1 c=64 v=127
350368 On ch=1 n=a4 v=60
350430 On ch=1 n=a4 v=0
350432 On ch=1 n=d5 v=60
350494 On ch=1 n=d5 v=0
350496 On ch=1 n=e5 v=60
350558 On ch=1 n=e5 v=0
350560 On ch=1 n=d5 v=60
350622 On ch=1 n=d5 v=0
350624 On ch=1 n=a4 v=60
350686 On ch=1 n=a4 v=0
350688 Par ch=1 c=64 v=0
350688 On ch=2 n=f3 v=45
350752 Par ch=1 c=64 v=127
350752 On ch=1 n=a4 v=60
350814 On ch=1 n=a4 v=0
350816 On ch=1 n=d5 v=60
350878 On ch=1 n=d5 v=0
350880 On ch=1 n=f5 v=60
350942 On ch=1 n=f5 v=0
350944 On ch=1 n=d5 v=60
351006 On ch=1 n=d5 v=0
351008 On ch=1 n=a4 v=60
351024 On ch=2 n=d4 v=0
351024 On ch=2 n=f3 v=0
351070 On ch=1 n=a4 v=0
351072 Par ch=1 c=64 v=0
351072 Par ch=2 c=64 v=0
351072 Par ch=2 c=64 v=127
351072 On ch=1 n=a5 v=75
351072 On ch=2 n=c4 v=45
351136 On ch=2 n=f4 v=45
351198 On ch=2 n=f4 v=0
351200 On ch=2 n=a4 v=45
351262 On ch=2 n=a4 v=0
351264 On ch=2 n=c5 v=45
351326 On ch=2 n=c5 v=0
351328 On ch=2 n=a4 v=45
351390 On ch=2 n=a4 v=0
351392 On ch=2 n=f4 v=45
351454 On ch=2 n=f4 v=0
351456 On ch=2 n=d3 v=45
351520 On ch=2 n=f4 v=46
351582 On ch=2 n=f4 v=0
351584 On ch=2 n=a4 v=46
351600 On ch=1 n=a5 v=0
351646 On ch=2 n=a4 v=0
351648 On ch=1 n=a#5 v=75
351648 On ch=2 n=d5 v=47
351710 On ch=2 n=d5 v=0
351712 On ch=2 n=a4 v=48
351774 On ch=2 n=a4 v=0
351776 On ch=2 n=f4 v=49
351792 On ch=2 n=d3 v=0
351792 On ch=2 n=c4 v=0
351808 On ch=1 n=a#5 v=0
351838 On ch=2 n=f4 v=0
351840 Par ch=2 c=64 v=0
351840 Par ch=2 c=64 v=127
351840 On ch=2 n=a#3 v=50
351840 On ch=1 n=a#5 v=75
351904 On ch=2 n=f4 v=51
351966 On ch=2 n=f4 v=0
351968 On ch=2 n=a#4 v=52
352030 On ch=2 n=a#4 v=0
352032 On ch=2 n=c5 v=53
352094 On ch=2 n=c5 v=0
352096 On ch=2 n=a#4 v=54
352158 On ch=2 n=a#4 v=0
352160 On ch=2 n=f4 v=55
352222 On ch=2 n=f4 v=0
352224 On ch=2 n=d3 v=56
352288 On ch=2 n=f4 v=57
352350 On ch=2 n=f4 v=0
352352 On ch=2 n=a#4 v=58
352414 On ch=2 n=a#4 v=0
352416 On ch=2 n=d5 v=59
352478 On ch=2 n=d5 v=0
352480 On ch=2 n=a#4 v=60
352542 On ch=2 n=a#4 v=0
352544 On ch=2 n=f4 v=61
352560 On ch=2 n=a#3 v=0
352560 On ch=1 n=a#5 v=0
352560 On ch=2 n=d3 v=0
352606 On ch=2 n=f4 v=0
352608 Par ch=2 c=64 v=0
352608 On ch=1 n=d6 v=75
352608 On ch=2 n=a#3 v=62
352672 On ch=2 n=e4 v=63
352734 On ch=2 n=e4 v=0
352736 On ch=2 n=g4 v=64
352798 On ch=2 n=g4 v=0
352800 On ch=2 n=c5 v=65
352862 On ch=2 n=c5 v=0
352864 On ch=2 n=g4 v=66
352926 On ch=2 n=g4 v=0
352928 On ch=2 n=e4 v=67
352990 On ch=2 n=e4 v=0
352992 On ch=2 n=d3 v=68
353056 On ch=2 n=e4 v=69
353086 On ch=1 n=d6 v=0
353118 On ch=2 n=e4 v=0
353120 On ch=2 n=g4 v=70
353182 On ch=2 n=g4 v=0
353184 On ch=1 n=g5 v=75
353184 On ch=2 n=d5 v=71
353246 On ch=2 n=d5 v=0
353248 On ch=2 n=g4 v=72
353310 On ch=2 n=g4 v=0
353312 On ch=2 n=e4 v=73
353328 On ch=2 n=a#3 v=0
353328 On ch=2 n=d3 v=0
353344 On ch=1 n=g5 v=0
353374 On ch=2 n=e4 v=0
353376 Par ch=2 c=64 v=0
353376 Par ch=2 c=64 v=127
353376 On ch=1 n=a5 v=75
353376 On ch=2 n=a3 v=75
353440 On ch=2 n=d4 v=75
353502 On ch=2 n=d4 v=0
353504 On ch=2 n=f4 v=75
353566 On ch=2 n=f4 v=0
353568 On ch=2 n=c5 v=75
353630 On ch=2 n=c5 v=0
353632 On ch=2 n=f4 v=75
353694 On ch=2 n=f4 v=0
353696 On ch=2 n=d4 v=75
353758 On ch=2 n=d4 v=0
353760 On ch=2 n=d3 v=75
353824 On ch=2 n=d4 v=75
353886 On ch=2 n=d4 v=0
353888 On ch=2 n=f4 v=75
353950 On ch=2 n=f4 v=0
353952 On ch=2 n=d5 v=75
354014 On ch=2 n=d5 v=0
354016 On ch=2 n=f4 v=75
354078 On ch=2 n=f4 v=0
354080 On ch=2 n=d4 v=75
354096 On ch=1 n=a5 v=0
354096 On ch=2 n=a3 v=0
354096 On ch=2 n=d3 v=0
354142 On ch=2 n=d4 v=0
354144 Par ch=2 c=64 v=0
354144 Par ch=2 c=64 v=127
354144 On ch=1 n=d6 v=75
354144 On ch=2 n=g#3 v=75
354208 On ch=2 n=d4 v=75
354270 On ch=2 n=d4 v=0
354272 On ch=2 n=f4 v=75
354334 On ch=2 n=f4 v=0
354336 On ch=2 n=c5 v=75
354398 On ch=2 n=c5 v=0
354400 On ch=2 n=f4 v=75
354462 On ch=2 n=f4 v=0
354464 On ch=2 n=d4 v=75
354526 On ch=2 n=d4 v=0
354528 On ch=2 n=d3 v=75
354592 On ch=2 n=d4 v=75
354622 On ch=1 n=d6 v=0
354654 On ch=2 n=d4 v=0
354656 On ch=2 n=f4 v=75
354718 On ch=2 n=f4 v=0
354720 On ch=1 n=f5 v=75
354720 On ch=2 n=d5 v=75
354782 On ch=2 n=d5 v=0
354784 On ch=2 n=f4 v=75
354846 On ch=2 n=f4 v=0
354848 On ch=2 n=d4 v=75
354864 On ch=2 n=g#3 v=0
354864 On ch=2 n=d3 v=0
354880 On ch=1 n=f5 v=0
354910 On ch=2 n=d4 v=0
354912 Par ch=2 c=64 v=0
354912 Par ch=2 c=64 v=127
354912 On ch=1 n=g5 v=75
354912 On ch=2 n=g3 v=75
354937 Tempo 301507
354937 Tempo 301507
354963 Tempo 303030
354963 Tempo 303030
354976 On ch=2 n=d4 v=75
354988 Tempo 304568
354988 Tempo 304568
355014 Tempo 306122
355014 Tempo 306122
355038 On ch=2 n=d4 v=0
355040 Tempo 307692
355040 Tempo 307692
355040 On ch=2 n=f4 v=75
355065 Tempo 309278
355065 Tempo 309278
355091 Tempo 310880
355091 Tempo 310880
355102 On ch=2 n=f4 v=0
355104 On ch=2 n=b4 v=75
355116 Tempo 312500
355116 Tempo 312500
355142 Tempo 314136
355142 Tempo 314136
355166 On ch=2 n=b4 v=0
355168 Tempo 315789
355168 Tempo 315789
355168 On ch=2 n=f4 v=75
355193 Tempo 317460
355193 Tempo 317460
355219 Tempo 319148
355219 Tempo 319148
355230 On ch=2 n=f4 v=0
355232 On ch=2 n=d4 v=75
355244 Tempo 320855
355244 Tempo 320855
355270 Tempo 322580
355270 Tempo 322580
355294 On ch=2 n=d4 v=0
355296 Tempo 324324
355296 Tempo 324324
355296 On ch=2 n=d3 v=75
355321 Tempo 326086
355321 Tempo 326086
355347 Tempo 327868
355347 Tempo 327868
355360 On ch=2 n=d4 v=75
355372 Tempo 329670
355372 Tempo 329670
355398 Tempo 331491
355398 Tempo 331491
355422 On ch=2 n=d4 v=0
355424 Tempo 333333
355424 Tempo 333333
355424 On ch=2 n=f4 v=75
355449 Tempo 335195
355449 Tempo 335195
355475 Tempo 337078
355475 Tempo 337078
355486 On ch=2 n=f4 v=0
355488 On ch=2 n=d5 v=75
355500 Tempo 338983
355500 Tempo 338983
355526 Tempo 340909
355526 Tempo 340909
355550 On ch=2 n=d5 v=0
355552 Tempo 342857
355552 Tempo 342857
355552 On ch=2 n=f4 v=74
355577 Tempo 344827
355577 Tempo 344827
355603 Tempo 346820
355603 Tempo 346820
355614 On ch=2 n=f4 v=0
355616 On ch=2 n=d4 v=73
355628 Tempo 348837
355628 Tempo 348837
355632 On ch=1 n=g5 v=0
355632 On ch=2 n=g3 v=0
355632 On ch=2 n=d3 v=0
355654 Tempo 350877
355654 Tempo 350877
355678 On ch=2 n=d4 v=0
355680 Par ch=2 c=64 v=0
355680 Tempo 352941
355680 Tempo 352941
355680 Par ch=2 c=64 v=127
355680 On ch=1 n=d6 v=75
355680 On ch=2 n=g#3 v=72
355705 Tempo 355029
355705 Tempo 355029
355731 Tempo 357142
355731 Tempo 357142
355744 On ch=2 n=d4 v=71
355756 Tempo 359281
355756 Tempo 359281
355782 Tempo 361445
355782 Tempo 361445
355806 On ch=2 n=d4 v=0
355808 Tempo 363636
355808 Tempo 363636
355808 On ch=2 n=e4 v=70
355833 Tempo 365853
355833 Tempo 365853
355859 Tempo 368098
355859 Tempo 368098
355870 On ch=2 n=e4 v=0
355872 On ch=2 n=c#5 v=69
355884 Tempo 370370
355884 Tempo 370370
355910 Tempo 372670
355910 Tempo 372670
355934 On ch=2 n=c#5 v=0
355936 Tempo 375000
355936 Tempo 375000
355936 On ch=2 n=e4 v=68
355961 Tempo 377358
355961 Tempo 377358
355987 Tempo 379746
355987 Tempo 379746
355998 On ch=2 n=e4 v=0
356000 On ch=2 n=c#4 v=67
356012 Tempo 382165
356012 Tempo 382165
356038 Tempo 384615
356038 Tempo 384615
356062 On ch=2 n=c#4 v=0
356064 Tempo 387096
356064 Tempo 387096
356064 On ch=2 n=c#3 v=66
356089 Tempo 389610
356089 Tempo 389610
356115 Tempo 392156
356115 Tempo 392156
356128 On ch=2 n=c#4 v=65
356140 Tempo 394736
356140 Tempo 394736
356166 Tempo 397350
356166 Tempo 397350
356190 On ch=2 n=c#4 v=0
356192 Tempo 400000
356192 Tempo 400000
356192 On ch=2 n=e4 v=64
356208 On ch=1 n=d6 v=0
356217 Tempo 402684
356217 Tempo 402684
356243 Tempo 405405
356243 Tempo 405405
356254 On ch=2 n=e4 v=0
356256 On ch=1 n=d6 v=75
356256 On ch=2 n=c#5 v=63
356268 Tempo 408163
356268 Tempo 408163
356294 Tempo 410958
356294 Tempo 410958
356318 On ch=2 n=c#5 v=0
356320 Tempo 413793
356320 Tempo 413793
356320 On ch=2 n=e4 v=62
356345 Tempo 416666
356345 Tempo 416666
356371 Tempo 419580
356371 Tempo 419580
356382 On ch=2 n=e4 v=0
356384 On ch=2 n=c#4 v=61
356396 Tempo 422535
356396 Tempo 422535
356400 On ch=2 n=g#3 v=0
356400 On ch=2 n=c#3 v=0
356416 On ch=1 n=d6 v=0
356422 Tempo 425531
356422 Tempo 425531
356446 On ch=2 n=c#4 v=0
356448 Par ch=2 c=64 v=0
356448 Tempo 428571
356448 Tempo 428571
356448 Par ch=2 c=64 v=127
356448 On ch=2 n=a3 v=60
356510 On ch=2 n=a3 v=0
356512 On ch=2 n=f4 v=60
356513 Tempo 425531
356513 Tempo 425531
356574 On ch=2 n=f4 v=0
356576 On ch=2 n=a3 v=60
356579 Tempo 422535
356579 Tempo 422535
356638 On ch=2 n=a3 v=0
356640 On ch=1 n=f4 v=61
356640 On ch=1 n=a4 v=61
356640 On ch=1 n=c5 v=61
356640 On ch=2 n=d3 v=60
356645 Tempo 419580
356645 Tempo 419580
356711 Tempo 416666
356711 Tempo 416666
356734 On ch=1 n=f4 v=0
356734 On ch=1 n=a4 v=0
356734 On ch=1 n=c5 v=0
356736 On ch=1 n=d4 v=61
356777 Tempo 413793
356777 Tempo 413793
356800 On ch=2 n=d3 v=0
356830 On ch=1 n=d4 v=0
356832 On ch=2 n=a2 v=61
356832 On ch=2 n=d3 v=61
356842 Tempo 410958
356842 Tempo 410958
356894 On ch=2 n=a2 v=0
356894 On ch=2 n=d3 v=0
356896 On ch=2 n=a3 v=61
356908 Tempo 408163
356908 Tempo 408163
356928 On ch=1 n=d4 v=61
356958 On ch=2 n=a3 v=0
356960 On ch=2 n=d3 v=61
356974 Tempo 405405
356974 Tempo 405405
357022 On ch=1 n=d4 v=0
357022 On ch=2 n=d3 v=0
357024 On ch=1 n=f4 v=61
357024 On ch=1 n=a4 v=61
357024 On ch=1 n=d5 v=61
357024 On ch=2 n=a2 v=61
357040 Tempo 402684
357040 Tempo 402684
357106 Tempo 400000
357106 Tempo 400000
357118 On ch=1 n=f4 v=0
357118 On ch=1 n=a4 v=0
357118 On ch=1 n=d5 v=0
357120 On ch=1 n=d4 v=61
357172 Tempo 397350
357172 Tempo 397350
357184 On ch=2 n=a2 v=0
357214 On ch=1 n=d4 v=0
357216 Par ch=2 c=64 v=0
357216 Par ch=2 c=64 v=127
357216 On ch=2 n=a3 v=62
357216 On ch=2 n=d4 v=62
357237 Tempo 394736
357237 Tempo 394736
357278 On ch=2 n=a3 v=0
357278 On ch=2 n=d4 v=0
357280 On ch=2 n=a4 v=62
357303 Tempo 392156
357303 Tempo 392156
357312 On ch=1 n=f4 v=61
357342 On ch=2 n=a4 v=0
357344 On ch=2 n=d4 v=62
357369 Tempo 389610
357369 Tempo 389610
357406 On ch=1 n=f4 v=0
357406 On ch=2 n=d4 v=0
357408 On ch=1 n=a4 v=61
357408 On ch=1 n=c5 v=61
357408 On ch=1 n=f5 v=61
357408 On ch=2 n=a3 v=62
357435 Tempo 387096
357435 Tempo 387096
357501 Tempo 384615
357501 Tempo 384615
357502 On ch=1 n=a4 v=0
357502 On ch=1 n=c5 v=0
357502 On ch=1 n=f5 v=0
357504 On ch=1 n=f4 v=61
357567 Tempo 382165
357567 Tempo 382165
357568 On ch=2 n=a3 v=0
357598 On ch=1 n=f4 v=0
357600 On ch=2 n=d3 v=63
357600 On ch=2 n=a3 v=63
357632 Tempo 379746
357632 Tempo 379746
357662 On ch=2 n=d3 v=0
357662 On ch=2 n=a3 v=0
357664 On ch=2 n=d4 v=63
357696 On ch=1 n=a4 v=61
357698 Tempo 377358
357698 Tempo 377358
357726 On ch=2 n=d4 v=0
357728 On ch=2 n=a3 v=63
357764 Tempo 375000
357764 Tempo 375000
357790 On ch=1 n=a4 v=0
357790 On ch=2 n=a3 v=0
357792 On ch=1 n=d5 v=61
357792 On ch=1 n=f5 v=61
357792 On ch=1 n=a5 v=61
357792 On ch=2 n=d3 v=63
357830 Tempo 372670
357830 Tempo 372670
357886 On ch=1 n=d5 v=0
357886 On ch=1 n=f5 v=0
357886 On ch=1 n=a5 v=0
357888 On ch=1 n=a4 v=61
357896 Tempo 370370
357896 Tempo 370370
357952 On ch=2 n=d3 v=0
357962 Tempo 368098
357962 Tempo 368098
357982 On ch=1 n=a4 v=0
357984 Par ch=2 c=64 v=0
357984 Par ch=2 c=64 v=127
357984 On ch=2 n=f4 v=64
357984 On ch=2 n=a4 v=64
357984 On ch=2 n=d5 v=64
358027 Tempo 365853
358027 Tempo 365853
358048 On ch=1 n=a5 v=61
358093 Tempo 363636
358093 Tempo 363636
358110 On ch=1 n=a5 v=0
358112 On ch=1 n=f5 v=61
358144 On ch=2 n=d5 v=0
358159 Tempo 361445
358159 Tempo 361445
358174 On ch=1 n=f5 v=0
358176 On ch=1 n=c6 v=61
358176 On ch=1 n=c6 v=61
358176 On ch=2 n=c5 v=65
358225 Tempo 359281
358225 Tempo 359281
358238 On ch=1 n=c6 v=0
358238 On ch=2 n=c5 v=0
358240 On ch=1 n=a5 v=61
358291 Tempo 357142
358291 Tempo 357142
358302 On ch=1 n=a5 v=0
358304 On ch=1 n=f5 v=61
358304 On ch=2 n=c5 v=65
358320 On ch=2 n=f4 v=0
358320 On ch=2 n=a4 v=0
358336 On ch=1 n=c6 v=0
358357 Tempo 355029
358357 Tempo 355029
358366 On ch=1 n=f5 v=0
358366 On ch=2 n=c5 v=0
358368 On ch=1 n=d5 v=61
358368 On ch=2 n=a3 v=91
358368 On ch=2 n=f4 v=91
358422 Tempo 352941
358422 Tempo 352941
358432 On ch=1 n=a5 v=61
358488 Tempo 350877
358488 Tempo 350877
358494 On ch=1 n=a5 v=0
358496 On ch=1 n=f5 v=61
358528 On ch=1 n=d5 v=0
358528 On ch=2 n=a3 v=0
358528 On ch=2 n=f4 v=0
358554 Tempo 348837
358554 Tempo 348837
358558 On ch=1 n=f5 v=0
358560 On ch=1 n=d6 v=61
358560 On ch=1 n=d6 v=61
358560 On ch=2 n=a4 v=66
358620 Tempo 346820
358620 Tempo 346820
358622 On ch=1 n=d6 v=0
358622 On ch=2 n=a4 v=0
358624 On ch=1 n=f5 v=61
358686 On ch=1 n=f5 v=0
358686 Tempo 344827
358686 Tempo 344827
358688 On ch=1 n=d5 v=61
358688 On ch=2 n=a3 v=66
358720 On ch=1 n=d6 v=0
358750 On ch=1 n=d5 v=0
358752 Par ch=2 c=64 v=0
358752 Tempo 342857
358752 Tempo 342857
358752 Par ch=2 c=64 v=127
358752 On ch=2 n=d3 v=66
358814 On ch=2 n=d3 v=0
358814 On ch=2 n=a3 v=0
358816 On ch=2 n=d4 v=66
358817 Tempo 340909
358817 Tempo 340909
358878 On ch=2 n=d4 v=0
358880 On ch=2 n=a3 v=66
358883 Tempo 338983
358883 Tempo 338983
358942 On ch=2 n=a3 v=0
358944 On ch=1 n=f#4 v=62
358944 On ch=1 n=a4 v=62
358944 On ch=1 n=c5 v=62
358944 On ch=2 n=d3 v=66
358949 Tempo 337078
358949 Tempo 337078
359015 Tempo 335195
359015 Tempo 335195
359038 On ch=1 n=f#4 v=0
359038 On ch=1 n=a4 v=0
359038 On ch=1 n=c5 v=0
359040 On ch=1 n=d4 v=62
359081 Tempo 333333
359081 Tempo 333333
359104 On ch=2 n=d3 v=0
359134 On ch=1 n=d4 v=0
359136 On ch=2 n=g2 v=67
359136 On ch=2 n=d3 v=67
359146 Tempo 331491
359146 Tempo 331491
359198 On ch=2 n=g2 v=0
359198 On ch=2 n=d3 v=0
359200 On ch=2 n=g3 v=67
359212 Tempo 329670
359212 Tempo 329670
359232 On ch=1 n=d4 v=62
359262 On ch=2 n=g3 v=0
359264 On ch=2 n=d3 v=67
359278 Tempo 327868
359278 Tempo 327868
359326 On ch=1 n=d4 v=0
359326 On ch=2 n=d3 v=0
359328 On ch=1 n=f#4 v=62
359328 On ch=1 n=a4 v=62
359328 On ch=1 n=d5 v=62
359328 On ch=2 n=g2 v=67
359344 Tempo 326086
359344 Tempo 326086
359410 Tempo 324324
359410 Tempo 324324
359422 On ch=1 n=f#4 v=0
359422 On ch=1 n=a4 v=0
359422 On ch=1 n=d5 v=0
359424 On ch=1 n=d4 v=62
359476 Tempo 322580
359476 Tempo 322580
359488 On ch=2 n=g2 v=0
359518 On ch=1 n=d4 v=0
359520 Par ch=2 c=64 v=0
359520 Par ch=2 c=64 v=127
359520 On ch=2 n=a3 v=68
359520 On ch=2 n=d4 v=68
359541 Tempo 320855
359541 Tempo 320855
359582 On ch=2 n=a3 v=0
359582 On ch=2 n=d4 v=0
359584 On ch=2 n=a4 v=68
359607 Tempo 319148
359607 Tempo 319148
359616 On ch=1 n=f#4 v=62
359646 On ch=2 n=a4 v=0
359648 On ch=2 n=d4 v=68
359673 Tempo 317460
359673 Tempo 317460
359710 On ch=1 n=f#4 v=0
359710 On ch=2 n=d4 v=0
359712 On ch=1 n=a4 v=62
359712 On ch=1 n=c5 v=62
359712 On ch=1 n=f#5 v=62
359712 On ch=2 n=a3 v=68
359739 Tempo 315789
359739 Tempo 315789
359805 Tempo 314136
359805 Tempo 314136
359806 On ch=1 n=a4 v=0
359806 On ch=1 n=c5 v=0
359806 On ch=1 n=f#5 v=0
359808 On ch=1 n=f#4 v=62
359871 Tempo 312500
359871 Tempo 312500
359872 On ch=2 n=a3 v=0
359902 On ch=1 n=f#4 v=0
359904 On ch=2 n=d3 v=69
359904 On ch=2 n=a3 v=69
359936 Tempo 310880
359936 Tempo 310880
359966 On ch=2 n=d3 v=0
359966 On ch=2 n=a3 v=0
359968 On ch=2 n=d4 v=69
360000 On ch=1 n=a4 v=62
360002 Tempo 309278
360002 Tempo 309278
360030 On ch=2 n=d4 v=0
360032 On ch=2 n=a3 v=69
360068 Tempo 307692
360068 Tempo 307692
360094 On ch=1 n=a4 v=0
360094 On ch=2 n=a3 v=0
360096 On ch=1 n=c5 v=62
360096 On ch=1 n=f#5 v=62
360096 On ch=1 n=a5 v=62
360096 On ch=2 n=d3 v=69
360134 Tempo 306122
360134 Tempo 306122
360190 On ch=1 n=c5 v=0
360190 On ch=1 n=f#5 v=0
360190 On ch=1 n=a5 v=0
360192 On ch=1 n=a4 v=62
360200 Tempo 304568
360200 Tempo 304568
360256 On ch=2 n=d3 v=0
360266 Tempo 303030
360266 Tempo 303030
360286 On ch=1 n=a4 v=0
360288 Par ch=2 c=64 v=0
360288 Par ch=2 c=64 v=127
360288 On ch=2 n=f#4 v=70
360288 On ch=2 n=a4 v=70
360288 On ch=2 n=d5 v=70
360331 Tempo 301507
360331 Tempo 301507
360352 On ch=1 n=a5 v=62
360397 Tempo 300000
360397 Tempo 300000
360414 On ch=1 n=a5 v=0
360416 On ch=1 n=f#5 v=62
360448 On ch=2 n=d5 v=0
360463 Tempo 298507
360463 Tempo 298507
360478 On ch=1 n=f#5 v=0
360480 On ch=1 n=c6 v=62
360480 On ch=1 n=c6 v=62
360480 On ch=2 n=c5 v=71
360529 Tempo 297029
360529 Tempo 297029
360542 On ch=1 n=c6 v=0
360542 On ch=2 n=c5 v=0
360544 On ch=1 n=a5 v=62
360595 Tempo 295566
360595 Tempo 295566
360606 On ch=1 n=a5 v=0
360608 On ch=1 n=f#5 v=62
360608 On ch=2 n=c5 v=71
360624 On ch=2 n=f#4 v=0
360624 On ch=2 n=a4 v=0
360640 On ch=1 n=c6 v=0
360661 Tempo 294117
360661 Tempo 294117
360670 On ch=1 n=f#5 v=0
360670 On ch=2 n=c5 v=0
360672 On ch=1 n=d5 v=86
360672 On ch=2 n=a3 v=99
360672 On ch=2 n=f#4 v=99
360726 Tempo 292682
360726 Tempo 292682
360736 On ch=1 n=a5 v=62
360792 Tempo 291262
360792 Tempo 291262
360798 On ch=1 n=a5 v=0
360800 On ch=1 n=f#5 v=62
360832 On ch=1 n=d5 v=0
360832 On ch=2 n=a3 v=0
360832 On ch=2 n=f#4 v=0
360858 Tempo 289855
360858 Tempo 289855
360862 On ch=1 n=f#5 v=0
360864 On ch=1 n=d6 v=62
360864 On ch=1 n=d6 v=62
360864 On ch=2 n=a4 v=72
360924 Tempo 288461
360924 Tempo 288461
360926 On ch=1 n=d6 v=0
360926 On ch=2 n=a4 v=0
360928 On ch=1 n=f#5 v=62
360990 On ch=1 n=f#5 v=0
360990 Tempo 287081
360990 Tempo 287081
360992 On ch=1 n=d5 v=62
360992 On ch=2 n=a3 v=72
361024 On ch=1 n=d6 v=0
361054 On ch=1 n=d5 v=0
361054 On ch=2 n=a3 v=0
361056 Par ch=2 c=64 v=0
361056 Tempo 285714
361056 Tempo 285714
361056 Par ch=2 c=64 v=127
361056 On ch=2 n=d3 v=72
361056 On ch=2 n=g3 v=72
361118 On ch=2 n=d3 v=0
361118 On ch=2 n=g3 v=0
361120 On ch=2 n=d4 v=72
361121 Tempo 284360
361121 Tempo 284360
361152 On ch=1 n=f4 v=63
361182 On ch=2 n=d4 v=0
361184 On ch=2 n=g3 v=72
361187 Tempo 283018
361187 Tempo 283018
361246 On ch=1 n=f4 v=0
361246 On ch=2 n=g3 v=0
361248 On ch=1 n=g4 v=64
361248 On ch=1 n=b4 v=64
361248 On ch=2 n=d3 v=72
361253 Tempo 281690
361253 Tempo 281690
361319 Tempo 280373
361319 Tempo 280373
361342 On ch=1 n=g4 v=0
361342 On ch=1 n=b4 v=0
361344 On ch=1 n=f4 v=65
361385 Tempo 279069
361385 Tempo 279069
361408 On ch=2 n=d3 v=0
361438 On ch=1 n=f4 v=0
361440 On ch=2 n=g2 v=73
361440 On ch=2 n=d3 v=73
361450 Tempo 277777
361450 Tempo 277777
361502 On ch=2 n=g2 v=0
361502 On ch=2 n=d3 v=0
361504 On ch=2 n=g3 v=73
361516 Tempo 276497
361516 Tempo 276497
361536 On ch=1 n=d4 v=67
361566 On ch=2 n=g3 v=0
361568 On ch=2 n=d3 v=73
361582 Tempo 275229
361582 Tempo 275229
361630 On ch=1 n=d4 v=0
361630 On ch=2 n=d3 v=0
361632 On ch=1 n=f4 v=68
361632 On ch=1 n=g4 v=68
361632 On ch=1 n=d5 v=68
361632 On ch=2 n=g2 v=73
361648 Tempo 273972
361648 Tempo 273972
361714 Tempo 272727
361714 Tempo 272727
361726 On ch=1 n=f4 v=0
361726 On ch=1 n=g4 v=0
361726 On ch=1 n=d5 v=0
361728 On ch=1 n=d4 v=69
361780 Tempo 271493
361780 Tempo 271493
361792 On ch=2 n=g2 v=0
361822 On ch=1 n=d4 v=0
361824 Par ch=2 c=64 v=0
361824 Par ch=2 c=64 v=127
361824 On ch=2 n=g3 v=75
361824 On ch=2 n=d4 v=75
361845 Tempo 270270
361845 Tempo 270270
361886 On ch=2 n=g3 v=0
361886 On ch=2 n=d4 v=0
361888 On ch=2 n=g4 v=75
361911 Tempo 269058
361911 Tempo 269058
361920 On ch=1 n=f4 v=71
361950 On ch=2 n=g4 v=0
361952 On ch=2 n=d4 v=75
361977 Tempo 267857
361977 Tempo 267857
362014 On ch=1 n=f4 v=0
362014 On ch=2 n=d4 v=0
362016 On ch=1 n=b4 v=72
362016 On ch=1 n=f5 v=72
362016 On ch=2 n=g3 v=75
362043 Tempo 266666
362043 Tempo 266666
362109 Tempo 265486
362109 Tempo 265486
362110 On ch=1 n=b4 v=0
362110 On ch=1 n=f5 v=0
362112 On ch=1 n=f4 v=73
362175 Tempo 264317
362175 Tempo 264317
362176 On ch=2 n=g3 v=0
362206 On ch=1 n=f4 v=0
362208 On ch=2 n=d3 v=77
362208 On ch=2 n=g3 v=77
362240 Tempo 263157
362240 Tempo 263157
362270 On ch=2 n=d3 v=0
362270 On ch=2 n=g3 v=0
362272 On ch=2 n=d4 v=77
362304 On ch=1 n=g4 v=75
362306 Tempo 262008
362306 Tempo 262008
362334 On ch=2 n=d4 v=0
362336 On ch=2 n=g3 v=77
362372 Tempo 260869
362372 Tempo 260869
362398 On ch=1 n=g4 v=0
362398 On ch=2 n=g3 v=0
362400 On ch=1 n=b4 v=76
362400 On ch=1 n=f5 v=76
362400 On ch=1 n=g5 v=76
362400 On ch=2 n=d3 v=77
362438 Tempo 259740
362438 Tempo 259740
362494 On ch=1 n=b4 v=0
362494 On ch=1 n=f5 v=0
362494 On ch=1 n=g5 v=0
362496 On ch=1 n=g4 v=77
362504 Tempo 258620
362504 Tempo 258620
362560 On ch=2 n=d3 v=0
362570 Tempo 257510
362570 Tempo 257510
362590 On ch=1 n=g4 v=0
362592 Par ch=2 c=64 v=0
362592 Par ch=2 c=64 v=127
362592 On ch=2 n=f4 v=79
362592 On ch=2 n=b4 v=79
362592 On ch=2 n=d5 v=79
362635 Tempo 256410
362635 Tempo 256410
362656 On ch=1 n=g5 v=78
362701 Tempo 255319
362701 Tempo 255319
362718 On ch=1 n=g5 v=0
362720 On ch=1 n=f5 v=78
362752 On ch=2 n=d5 v=0
362767 Tempo 254237
362767 Tempo 254237
362782 On ch=1 n=f5 v=0
362784 On ch=1 n=b5 v=78
362784 On ch=1 n=b5 v=78
362784 On ch=2 n=b4 v=81
362833 Tempo 253164
362833 Tempo 253164
362846 On ch=1 n=b5 v=0
362846 On ch=2 n=b4 v=0
362848 On ch=1 n=g5 v=78
362899 Tempo 252100
362899 Tempo 252100
362910 On ch=1 n=g5 v=0
362912 On ch=1 n=e5 v=78
362912 On ch=2 n=b4 v=81
362928 On ch=2 n=f4 v=0
362928 On ch=2 n=b4 v=0
362944 On ch=1 n=b5 v=0
362965 Tempo 251046
362965 Tempo 251046
362974 On ch=1 n=e5 v=0
362974 On ch=2 n=b4 v=0
362976 On ch=2 n=b3 v=113
362976 On ch=2 n=g4 v=113
363030 Tempo 250000
363030 Tempo 250000
363040 On ch=1 n=a5 v=79
363096 Tempo 248962
363096 Tempo 248962
363102 On ch=1 n=a5 v=0
363104 On ch=1 n=g5 v=79
363136 On ch=2 n=b3 v=0
363136 On ch=2 n=g4 v=0
363162 Tempo 247933
363162 Tempo 247933
363166 On ch=1 n=g5 v=0
363168 On ch=1 n=d6 v=80
363168 On ch=1 n=d6 v=80
363168 On ch=2 n=g4 v=83
363228 Tempo 246913
363228 Tempo 246913
363230 On ch=1 n=d6 v=0
363230 On ch=2 n=g4 v=0
363232 On ch=1 n=g5 v=81
363294 On ch=1 n=g5 v=0
363294 Tempo 245901
363294 Tempo 245901
363296 On ch=1 n=e5 v=82
363296 On ch=2 n=g3 v=83
363328 On ch=1 n=d6 v=0
363358 On ch=1 n=e5 v=0
363360 Par ch=2 c=64 v=0
363360 Tempo 244897
363360 Tempo 244897
363360 Par ch=2 c=64 v=127
363360 On ch=2 n=d3 v=83
363422 On ch=2 n=d3 v=0
363422 On ch=2 n=g3 v=0
363424 On ch=2 n=d4 v=84
363425 Tempo 243902
363425 Tempo 243902
363456 On ch=1 n=f4 v=84
363486 On ch=2 n=d4 v=0
363488 On ch=2 n=g3 v=85
363491 Tempo 242914
363491 Tempo 242914
363550 On ch=1 n=f4 v=0
363550 On ch=2 n=g3 v=0
363552 On ch=1 n=g4 v=85
363552 On ch=1 n=a#4 v=85
363552 On ch=2 n=d3 v=86
363557 Tempo 241935
363557 Tempo 241935
363623 Tempo 240963
363623 Tempo 240963
363646 On ch=1 n=g4 v=0
363646 On ch=1 n=a#4 v=0
363648 On ch=1 n=f4 v=86
363689 Tempo 240000
363689 Tempo 240000
363712 On ch=2 n=d3 v=0
363742 On ch=1 n=f4 v=0
363744 On ch=2 n=a#2 v=89
363744 On ch=2 n=d3 v=89
363754 Tempo 239043
363754 Tempo 239043
363806 On ch=2 n=a#2 v=0
363806 On ch=2 n=d3 v=0
363808 On ch=2 n=g3 v=90
363820 Tempo 238095
363820 Tempo 238095
363840 On ch=1 n=d4 v=88
363870 On ch=2 n=g3 v=0
363872 On ch=2 n=d3 v=91
363886 Tempo 237154
363886 Tempo 237154
363934 On ch=1 n=d4 v=0
363934 On ch=2 n=d3 v=0
363936 On ch=1 n=g4 v=89
363936 On ch=1 n=d5 v=89
363936 On ch=2 n=a#2 v=92
363952 Tempo 236220
363952 Tempo 236220
364018 Tempo 235294
364018 Tempo 235294
364030 On ch=1 n=g4 v=0
364030 On ch=1 n=d5 v=0
364032 On ch=1 n=d4 v=90
364084 Tempo 234375
364084 Tempo 234375
364096 On ch=2 n=a#2 v=0
364126 On ch=1 n=d4 v=0
364128 Par ch=2 c=64 v=0
364128 Par ch=2 c=64 v=127
364128 On ch=1 n=d5 v=92
364128 On ch=2 n=g3 v=95
364128 On ch=2 n=d4 v=95
364149 Tempo 233463
364149 Tempo 233463
364190 On ch=2 n=g3 v=0
364190 On ch=2 n=d4 v=0
364192 On ch=2 n=g4 v=96
364215 Tempo 232558
364215 Tempo 232558
364254 On ch=2 n=g4 v=0
364256 On ch=1 n=a#4 v=94
364256 On ch=2 n=d4 v=97
364281 Tempo 231660
364281 Tempo 231660
364288 On ch=1 n=d5 v=0
364318 On ch=1 n=a#4 v=0
364318 On ch=2 n=d4 v=0
364320 On ch=1 n=c#5 v=95
364320 On ch=1 n=e5 v=95
364320 On ch=2 n=g3 v=98
364347 Tempo 230769
364347 Tempo 230769
364382 On ch=1 n=e5 v=0
364384 On ch=1 n=a#4 v=96
364413 Tempo 229885
364413 Tempo 229885
364446 On ch=1 n=a#4 v=0
364448 On ch=1 n=e4 v=97
364479 Tempo 229007
364479 Tempo 229007
364480 On ch=1 n=c#5 v=0
364480 On ch=2 n=g3 v=0
364510 On ch=1 n=e4 v=0
364512 On ch=1 n=d5 v=98
364512 On ch=2 n=d3 v=101
364512 On ch=2 n=g3 v=101
364544 Tempo 228136
364544 Tempo 228136
364574 On ch=2 n=d3 v=0
364574 On ch=2 n=g3 v=0
364576 On ch=2 n=d4 v=102
364610 Tempo 227272
364610 Tempo 227272
364638 On ch=2 n=d4 v=0
364640 On ch=1 n=g4 v=100
364640 On ch=2 n=g3 v=103
364672 On ch=1 n=d5 v=0
364676 Tempo 226415
364676 Tempo 226415
364702 On ch=1 n=g4 v=0
364702 On ch=2 n=g3 v=0
364704 On ch=1 n=a#4 v=102
364704 On ch=1 n=g5 v=102
364704 On ch=2 n=d3 v=104
364742 Tempo 225563
364742 Tempo 225563
364766 On ch=1 n=g5 v=0
364768 On ch=1 n=d5 v=104
364808 Tempo 224719
364808 Tempo 224719
364830 On ch=1 n=d5 v=0
364832 On ch=1 n=g4 v=106
364864 On ch=1 n=a#4 v=0
364864 On ch=2 n=d3 v=0
364874 Tempo 223880
364874 Tempo 223880
364894 On ch=1 n=g4 v=0
364896 Par ch=2 c=64 v=0
364896 Par ch=2 c=64 v=127
364896 On ch=2 n=g4 v=108
364896 On ch=2 n=a#4 v=108
364896 On ch=2 n=d5 v=127
364939 Tempo 223048
364939 Tempo 223048
364960 On ch=1 n=g5 v=108
365005 Tempo 222222
365005 Tempo 222222
365022 On ch=1 n=g5 v=0
365024 On ch=1 n=e5 v=108
365056 On ch=2 n=d5 v=0
365071 Tempo 221402
365071 Tempo 221402
365086 On ch=1 n=e5 v=0
365088 On ch=2 n=c#5 v=108
365088 On ch=1 n=a#5 v=108
365088 On ch=1 n=a#5 v=108
365137 Tempo 220588
365137 Tempo 220588
365150 On ch=2 n=c#5 v=0
365150 On ch=1 n=a#5 v=0
365152 On ch=1 n=g5 v=108
365203 Tempo 219780
365203 Tempo 219780
365214 On ch=1 n=g5 v=0
365216 On ch=2 n=c#5 v=108
365216 On ch=1 n=e5 v=108
365232 On ch=2 n=a#4 v=0
365232 On ch=2 n=g4 v=0
365248 On ch=1 n=a#5 v=0
365269 Tempo 218978
365269 Tempo 218978
365278 On ch=1 n=e5 v=0
365278 On ch=2 n=c#5 v=0
365280 On ch=1 n=d5 v=108
365280 On ch=2 n=a#3 v=127
365280 On ch=2 n=e4 v=127
365280 On ch=2 n=g4 v=127
365334 Tempo 218181
365334 Tempo 218181
365344 On ch=1 n=g5 v=108
365400 Tempo 217391
365400 Tempo 217391
365406 On ch=1 n=g5 v=0
365408 On ch=1 n=e5 v=108
365440 On ch=1 n=d5 v=0
365440 On ch=2 n=a#3 v=0
365440 On ch=2 n=e4 v=0
365440 On ch=2 n=g4 v=0
365466 Tempo 216606
365466 Tempo 216606
365470 On ch=1 n=e5 v=0
365472 On ch=1 n=d6 v=108
365472 On ch=1 n=d6 v=108
365472 On ch=2 n=e4 v=108
365532 Tempo 215827
365532 Tempo 215827
365534 On ch=1 n=d6 v=0
365534 On ch=2 n=e4 v=0
365536 On ch=1 n=d6 v=108
365598 On ch=1 n=d6 v=0
365598 Tempo 215053
365598 Tempo 215053
365600 On ch=1 n=g6 v=108
365600 On ch=2 n=e4 v=108
365632 On ch=1 n=d6 v=0
365662 On ch=1 n=g6 v=0
365662 On ch=2 n=e4 v=0
365664 Par ch=2 c=64 v=0
365664 Tempo 214285
365664 Tempo 214285
365664 Par ch=2 c=64 v=127
365664 On ch=1 n=d6 v=108
365664 On ch=1 n=a6 v=108
365664 On ch=1 n=d7 v=108
365664 On ch=2 n=d3 v=127
365664 On ch=2 n=a3 v=127
365792 On ch=2 n=f4 v=108
365824 On ch=1 n=d6 v=0
365824 On ch=1 n=a6 v=0
365824 On ch=1 n=d7 v=0
365854 On ch=2 n=f4 v=0
365856 On ch=1 n=c6 v=108
365856 On ch=1 n=f6 v=108
365856 On ch=1 n=c7 v=108
365856 On ch=2 n=c5 v=108
365856 On ch=2 n=c5 v=108
365918 On ch=1 n=c6 v=0
365918 On ch=1 n=f6 v=0
365918 On ch=1 n=c7 v=0
365918 On ch=2 n=c5 v=0
365920 On ch=2 n=a4 v=108
365982 On ch=2 n=a4 v=0
365984 On ch=1 n=c7 v=108
365984 On ch=2 n=f4 v=108
366016 On ch=2 n=c5 v=0
366046 On ch=1 n=c7 v=0
366046 On ch=2 n=f4 v=0
366048 On ch=1 n=d6 v=108
366048 On ch=1 n=a6 v=108
366048 On ch=1 n=d7 v=108
366048 On ch=2 n=a3 v=108
366110 On ch=2 n=a3 v=0
366112 On ch=2 n=f4 v=108
366174 On ch=2 n=f4 v=0
366176 On ch=2 n=a4 v=108
366208 On ch=1 n=d6 v=0
366208 On ch=1 n=a6 v=0
366208 On ch=1 n=d7 v=0
366238 On ch=2 n=a4 v=0
366240 On ch=1 n=a5 v=108
366240 On ch=1 n=d6 v=108
366240 On ch=1 n=a6 v=108
366240 On ch=2 n=d5 v=108
366240 On ch=2 n=d5 v=108
366302 On ch=1 n=a5 v=0
366302 On ch=1 n=d6 v=0
366302 On ch=1 n=a6 v=0
366302 On ch=2 n=d5 v=0
366304 On ch=2 n=a4 v=108
366366 On ch=2 n=a4 v=0
366368 On ch=1 n=a6 v=108
366368 On ch=2 n=f4 v=108
366384 On ch=2 n=d3 v=0
366384 On ch=2 n=a3 v=0
366400 On ch=2 n=d5 v=0
366430 On ch=1 n=a6 v=0
366430 On ch=2 n=f4 v=0
366432 Par ch=2 c=64 v=0
366432 Par ch=2 c=64 v=127
366432 On ch=1 n=c6 v=108
366432 On ch=1 n=f6 v=108
366432 On ch=1 n=c7 v=108
366432 On ch=2 n=d4 v=108
366494 On ch=2 n=d4 v=0
366496 On ch=2 n=a4 v=108
366558 On ch=2 n=a4 v=0
366560 On ch=2 n=c5 v=108
366592 On ch=1 n=c6 v=0
366592 On ch=1 n=f6 v=0
366592 On ch=1 n=c7 v=0
366622 On ch=2 n=c5 v=0
366624 On ch=1 n=c6 v=108
366624 On ch=1 n=f6 v=108
366624 On ch=2 n=f5 v=108
366624 On ch=2 n=f5 v=108
366686 On ch=1 n=c6 v=0
366686 On ch=1 n=f6 v=0
366686 On ch=2 n=f5 v=0
366688 On ch=2 n=c5 v=108
366750 On ch=2 n=c5 v=0
366752 On ch=1 n=f6 v=108
366752 On ch=2 n=a4 v=108
366784 On ch=2 n=f5 v=0
366814 On ch=1 n=f6 v=0
366814 On ch=2 n=a4 v=0
366816 On ch=1 n=a5 v=108
366816 On ch=1 n=d6 v=108
366816 On ch=1 n=a6 v=108
366816 On ch=2 n=f4 v=108
366878 On ch=2 n=f4 v=0
366880 On ch=2 n=a4 v=108
366942 On ch=2 n=a4 v=0
366944 On ch=2 n=d5 v=108
366976 On ch=1 n=a5 v=0
366976 On ch=1 n=d6 v=0
366976 On ch=1 n=a6 v=0
367006 On ch=2 n=d5 v=0
367008 On ch=1 n=d6 v=108
367008 On ch=2 n=a5 v=108
367008 On ch=2 n=a5 v=108
367070 On ch=1 n=d6 v=0
367070 On ch=2 n=a5 v=0
367072 On ch=2 n=f5 v=108
367134 On ch=2 n=f5 v=0
367136 On ch=1 n=d6 v=108
367136 On ch=2 n=d5 v=108
367168 On ch=2 n=a5 v=0
367198 On ch=1 n=d6 v=0
367198 On ch=2 n=d5 v=0
367200 Par ch=2 c=64 v=0
367200 On ch=1 n=f6 v=108
367200 On ch=2 n=a4 v=108
367200 On ch=2 n=d5 v=127
367262 On ch=1 n=f6 v=0
367264 On ch=1 n=a5 v=108
367326 On ch=1 n=a5 v=0
367328 On ch=1 n=f5 v=108
367360 On ch=2 n=a4 v=0
367360 On ch=2 n=d5 v=0
367390 On ch=1 n=f5 v=0
367392 On ch=1 n=c6 v=108
367392 On ch=1 n=c6 v=108
367392 On ch=2 n=c5 v=108
367454 On ch=1 n=c6 v=0
367454 On ch=2 n=c5 v=0
367456 On ch=1 n=a5 v=108
367518 On ch=1 n=a5 v=0
367520 On ch=1 n=f5 v=108
367520 On ch=2 n=c5 v=108
367552 On ch=1 n=c6 v=0
367582 On ch=1 n=f5 v=0
367582 On ch=2 n=c5 v=0
367584 On ch=1 n=d5 v=108
367584 On ch=2 n=a3 v=127
367584 On ch=2 n=f4 v=127
367648 On ch=1 n=a5 v=108
367710 On ch=1 n=a5 v=0
367712 On ch=1 n=f5 v=108
367744 On ch=1 n=d5 v=0
367744 On ch=2 n=a3 v=0
367744 On ch=2 n=f4 v=0
367774 On ch=1 n=f5 v=0
367776 On ch=1 n=d6 v=108
367776 On ch=1 n=d6 v=108
367776 On ch=2 n=a4 v=108
367838 On ch=1 n=d6 v=0
367838 On ch=2 n=a4 v=0
367840 On ch=1 n=d6 v=108
367902 On ch=1 n=d6 v=0
367904 On ch=1 n=a6 v=108
367904 On ch=2 n=a3 v=108
367936 On ch=1 n=d6 v=0
367966 On ch=1 n=a6 v=0
367968 Par ch=2 c=64 v=127
367968 On ch=1 n=d6 v=108
367968 On ch=1 n=f#6 v=108
367968 On ch=1 n=d7 v=108
367968 On ch=2 n=d3 v=127
368096 On ch=2 n=f#4 v=108
368128 On ch=1 n=d6 v=0
368128 On ch=1 n=f#6 v=0
368128 On ch=1 n=d7 v=0
368158 On ch=2 n=f#4 v=0
368160 On ch=1 n=c6 v=108
368160 On ch=1 n=f#6 v=108
368160 On ch=1 n=c7 v=108
368160 On ch=2 n=c5 v=108
368160 On ch=2 n=c5 v=108
368222 On ch=1 n=c6 v=0
368222 On ch=1 n=f#6 v=0
368222 On ch=1 n=c7 v=0
368222 On ch=2 n=c5 v=0
368224 On ch=2 n=a4 v=108
368286 On ch=2 n=a4 v=0
368288 On ch=1 n=c7 v=108
368288 On ch=2 n=f#4 v=108
368320 On ch=2 n=c5 v=0
368350 On ch=1 n=c7 v=0
368350 On ch=2 n=f#4 v=0
368352 On ch=1 n=d6 v=108
368352 On ch=1 n=a6 v=108
368352 On ch=1 n=d7 v=108
368352 On ch=2 n=a3 v=108
368414 On ch=2 n=a3 v=0
368416 On ch=2 n=f#4 v=108
368478 On ch=2 n=f#4 v=0
368480 On ch=2 n=a4 v=108
368512 On ch=1 n=d6 v=0
368512 On ch=1 n=a6 v=0
368512 On ch=1 n=d7 v=0
368542 On ch=2 n=a4 v=0
368544 On ch=1 n=a5 v=108
368544 On ch=1 n=d6 v=108
368544 On ch=1 n=a6 v=108
368544 On ch=2 n=d5 v=108
368544 On ch=2 n=d5 v=108
368606 On ch=1 n=a5 v=0
368606 On ch=1 n=d6 v=0
368606 On ch=1 n=a6 v=0
368606 On ch=2 n=d5 v=0
368608 On ch=2 n=a4 v=108
368670 On ch=2 n=a4 v=0
368672 On ch=1 n=a6 v=108
368672 On ch=2 n=f#4 v=108
368688 On ch=2 n=d3 v=0
368688 On ch=2 n=a3 v=0
368704 On ch=2 n=d5 v=0
368734 On ch=1 n=a6 v=0
368734 On ch=2 n=f#4 v=0
368736 Par ch=2 c=64 v=0
368736 Par ch=2 c=64 v=127
368736 On ch=1 n=c6 v=108
368736 On ch=1 n=f#6 v=108
368736 On ch=1 n=c7 v=108
368736 On ch=2 n=d4 v=108
368798 On ch=2 n=d4 v=0
368800 On ch=2 n=a4 v=108
368862 On ch=2 n=a4 v=0
368864 On ch=2 n=c5 v=108
368896 On ch=1 n=c6 v=0
368896 On ch=1 n=f#6 v=0
368896 On ch=1 n=c7 v=0
368926 On ch=2 n=c5 v=0
368928 On ch=1 n=c6 v=108
368928 On ch=1 n=f#6 v=108
368928 On ch=2 n=f#5 v=108
368928 On ch=2 n=f#5 v=108
368990 On ch=1 n=c6 v=0
368990 On ch=1 n=f#6 v=0
368990 On ch=2 n=f#5 v=0
368992 On ch=2 n=c5 v=108
369054 On ch=2 n=c5 v=0
369056 On ch=1 n=f#6 v=108
369056 On ch=2 n=a4 v=108
369088 On ch=2 n=f#5 v=0
369118 On ch=1 n=f#6 v=0
369118 On ch=2 n=a4 v=0
369120 On ch=1 n=a5 v=108
369120 On ch=1 n=d6 v=108
369120 On ch=1 n=a6 v=108
369120 On ch=2 n=f#4 v=108
369182 On ch=2 n=f#4 v=0
369184 On ch=2 n=a4 v=108
369246 On ch=2 n=a4 v=0
369248 On ch=2 n=d5 v=108
369280 On ch=1 n=a5 v=0
369280 On ch=1 n=d6 v=0
369280 On ch=1 n=a6 v=0
369310 On ch=2 n=d5 v=0
369312 On ch=1 n=d6 v=108
369312 On ch=2 n=a5 v=108
369312 On ch=2 n=a5 v=108
369374 On ch=1 n=d6 v=0
369374 On ch=2 n=a5 v=0
369376 On ch=2 n=f#5 v=108
369438 On ch=2 n=f#5 v=0
369440 On ch=1 n=d6 v=108
369440 On ch=2 n=d5 v=108
369472 On ch=2 n=a5 v=0
369502 On ch=1 n=d6 v=0
369502 On ch=2 n=d5 v=0
369504 Par ch=2 c=64 v=0
369504 Par ch=2 c=64 v=127
369504 On ch=1 n=f#6 v=108
369504 On ch=2 n=a4 v=108
369504 On ch=2 n=d5 v=127
369566 On ch=1 n=f#6 v=0
369568 On ch=1 n=a5 v=108
369630 On ch=1 n=a5 v=0
369632 On ch=1 n=f#5 v=108
369664 On ch=2 n=a4 v=0
369664 On ch=2 n=d5 v=0
369694 On ch=1 n=f#5 v=0
369696 On ch=1 n=c6 v=108
369696 On ch=1 n=c6 v=108
369696 On ch=2 n=c5 v=108
369758 On ch=1 n=c6 v=0
369758 On ch=2 n=c5 v=0
369760 On ch=1 n=a5 v=108
369822 On ch=1 n=a5 v=0
369824 On ch=1 n=f#5 v=108
369824 On ch=2 n=c5 v=108
369856 On ch=1 n=c6 v=0
369886 On ch=1 n=f#5 v=0
369886 On ch=2 n=c5 v=0
369888 On ch=1 n=d5 v=108
369888 On ch=2 n=a3 v=127
369888 On ch=2 n=f#4 v=127
369952 On ch=1 n=a5 v=108
370014 On ch=1 n=a5 v=0
370016 On ch=1 n=f#5 v=108
370048 On ch=1 n=d5 v=0
370048 On ch=2 n=a3 v=0
370048 On ch=2 n=f#4 v=0
370078 On ch=1 n=f#5 v=0
370080 On ch=1 n=d6 v=108
370080 On ch=1 n=d6 v=108
370080 On ch=2 n=a4 v=108
370142 On ch=1 n=d6 v=0
370142 On ch=2 n=a4 v=0
370144 On ch=1 n=d6 v=108
370206 On ch=1 n=d6 v=0
370208 On ch=1 n=a6 v=108
370208 On ch=2 n=a3 v=108
370240 On ch=1 n=d6 v=0
370270 On ch=1 n=a6 v=0
370270 On ch=2 n=a3 v=0
370272 Par ch=2 c=64 v=0
370272 Par ch=2 c=64 v=127
370272 On ch=1 n=d6 v=108
370272 On ch=1 n=g6 v=108
370272 On ch=1 n=d7 v=108
370272 On ch=2 n=d3 v=127
370272 On ch=2 n=g3 v=127
370400 On ch=2 n=f4 v=108
370432 On ch=1 n=d6 v=0
370432 On ch=1 n=g6 v=0
370432 On ch=1 n=d7 v=0
370462 On ch=2 n=f4 v=0
370464 On ch=1 n=c6 v=108
370464 On ch=1 n=g6 v=108
370464 On ch=1 n=c7 v=108
370464 On ch=2 n=g4 v=108
370464 On ch=2 n=g4 v=108
370526 On ch=1 n=c6 v=0
370526 On ch=1 n=g6 v=0
370526 On ch=1 n=c7 v=0
370526 On ch=2 n=g4 v=0
370528 On ch=2 n=f4 v=108
370590 On ch=2 n=f4 v=0
370592 On ch=1 n=c7 v=108
370592 On ch=2 n=d4 v=108
370624 On ch=2 n=g4 v=0
370654 On ch=1 n=c7 v=0
370654 On ch=2 n=d4 v=0
370656 On ch=1 n=d6 v=108
370656 On ch=1 n=b6 v=108
370656 On ch=1 n=d7 v=108
370656 On ch=2 n=g3 v=108
370718 On ch=2 n=g3 v=0
370720 On ch=2 n=d4 v=108
370782 On ch=2 n=d4 v=0
370784 On ch=2 n=f4 v=108
370816 On ch=1 n=d6 v=0
370816 On ch=1 n=b6 v=0
370816 On ch=1 n=d7 v=0
370846 On ch=2 n=f4 v=0
370848 On ch=1 n=g5 v=108
370848 On ch=1 n=d6 v=108
370848 On ch=1 n=g6 v=108
370848 On ch=2 n=b4 v=108
370848 On ch=2 n=b4 v=108
370910 On ch=1 n=g5 v=0
370910 On ch=1 n=d6 v=0
370910 On ch=1 n=g6 v=0
370910 On ch=2 n=b4 v=0
370912 On ch=2 n=g4 v=108
370974 On ch=2 n=g4 v=0
370976 On ch=1 n=g6 v=108
370976 On ch=2 n=f4 v=108
370992 On ch=2 n=d3 v=0
370992 On ch=2 n=g3 v=0
371008 On ch=2 n=b4 v=0
371038 On ch=1 n=g6 v=0
371038 On ch=2 n=f4 v=0
371040 Par ch=2 c=64 v=0
371040 Par ch=2 c=64 v=127
371040 On ch=1 n=b5 v=108
371040 On ch=1 n=f6 v=108
371040 On ch=1 n=b6 v=108
371040 On ch=2 n=d4 v=108
371102 On ch=2 n=d4 v=0
371104 On ch=2 n=g4 v=108
371166 On ch=2 n=g4 v=0
371168 On ch=2 n=b4 v=108
371200 On ch=1 n=b5 v=0
371200 On ch=1 n=f6 v=0
371200 On ch=1 n=b6 v=0
371230 On ch=2 n=b4 v=0
371232 On ch=1 n=g5 v=108
371232 On ch=1 n=d6 v=108
371232 On ch=2 n=f5 v=108
371232 On ch=2 n=f5 v=108
371294 On ch=1 n=g5 v=0
371294 On ch=1 n=d6 v=0
371294 On ch=2 n=f5 v=0
371296 On ch=2 n=b4 v=108
371358 On ch=2 n=b4 v=0
371360 On ch=1 n=d6 v=108
371360 On ch=2 n=g4 v=108
371392 On ch=2 n=f5 v=0
371422 On ch=1 n=d6 v=0
371422 On ch=2 n=g4 v=0
371424 On ch=1 n=g5 v=108
371424 On ch=1 n=d6 v=108
371424 On ch=1 n=g6 v=108
371424 On ch=2 n=f4 v=108
371486 On ch=2 n=f4 v=0
371488 On ch=2 n=b4 v=108
371550 On ch=2 n=b4 v=0
371552 On ch=2 n=d5 v=108
371584 On ch=1 n=g5 v=0
371584 On ch=1 n=d6 v=0
371584 On ch=1 n=g6 v=0
371614 On ch=2 n=d5 v=0
371616 On ch=1 n=d6 v=108
371616 On ch=1 n=g6 v=108
371616 On ch=2 n=g5 v=108
371616 On ch=2 n=g5 v=108
371678 On ch=1 n=d6 v=0
371678 On ch=1 n=g6 v=0
371678 On ch=2 n=g5 v=0
371680 On ch=2 n=d5 v=108
371742 On ch=2 n=d5 v=0
371744 On ch=1 n=g6 v=108
371744 On ch=2 n=b4 v=108
371776 On ch=2 n=g5 v=0
371806 On ch=1 n=g6 v=0
371806 On ch=2 n=b4 v=0
371808 Par ch=2 c=64 v=0
371808 Par ch=2 c=64 v=127
371808 On ch=1 n=a#5 v=108
371808 On ch=1 n=d6 v=108
371808 On ch=1 n=a#6 v=108
371808 On ch=2 n=g4 v=108
371808 On ch=2 n=g4 v=108
371870 On ch=2 n=g4 v=0
371872 On ch=2 n=d5 v=108
371934 On ch=2 n=d5 v=0
371936 On ch=2 n=e5 v=108
371968 On ch=1 n=a#5 v=0
371968 On ch=1 n=d6 v=0
371968 On ch=1 n=a#6 v=0
371968 On ch=2 n=g4 v=0
371998 On ch=2 n=e5 v=0
372000 On ch=1 n=d6 v=108
372000 On ch=1 n=e6 v=108
372000 On ch=2 n=c6 v=108
372062 On ch=1 n=d6 v=0
372062 On ch=1 n=e6 v=0
372062 On ch=2 n=c6 v=0
372064 On ch=2 n=e5 v=108
372126 On ch=2 n=e5 v=0
372128 On ch=1 n=e6 v=108
372128 On ch=2 n=d5 v=108
372190 On ch=1 n=e6 v=0
372190 On ch=2 n=d5 v=0
372192 On ch=1 n=g5 v=108
372192 On ch=1 n=d6 v=108
372192 On ch=1 n=g6 v=108
372192 On ch=2 n=c5 v=108
372192 On ch=2 n=c5 v=108
372254 On ch=2 n=c5 v=0
372256 On ch=2 n=e5 v=108
372318 On ch=2 n=e5 v=0
372320 On ch=2 n=g5 v=108
372352 On ch=1 n=g5 v=0
372352 On ch=1 n=d6 v=0
372352 On ch=1 n=g6 v=0
372352 On ch=2 n=c5 v=0
372382 On ch=2 n=g5 v=0
372384 On ch=1 n=a#5 v=108
372384 On ch=2 n=d6 v=108
372446 On ch=1 n=a#5 v=0
372446 On ch=2 n=d6 v=0
372448 On ch=2 n=g5 v=108
372510 On ch=2 n=g5 v=0
372512 On ch=1 n=a#5 v=108
372512 On ch=2 n=e5 v=108
372574 On ch=1 n=a#5 v=0
372574 On ch=2 n=e5 v=0
372576 Par ch=2 c=64 v=127
372576 Par ch=2 c=64 v=127
372576 On ch=1 n=d6 v=108
372576 On ch=2 n=d5 v=108
372576 On ch=2 n=d5 v=108
372638 On ch=2 n=d5 v=0
372640 On ch=2 n=e5 v=108
372702 On ch=2 n=e5 v=0
372704 On ch=2 n=g5 v=108
372736 On ch=1 n=d6 v=0
372736 On ch=2 n=d5 v=0
372766 On ch=2 n=g5 v=0
372768 On ch=1 n=c#6 v=108
372768 On ch=2 n=a#5 v=108
372830 On ch=1 n=c#6 v=0
372830 On ch=2 n=a#5 v=0
372832 On ch=2 n=g5 v=108
372894 On ch=2 n=g5 v=0
372896 On ch=1 n=c#6 v=108
372896 On ch=2 n=f5 v=108
372958 On ch=1 n=c#6 v=0
372958 On ch=2 n=f5 v=0
372960 On ch=1 n=d6 v=108
372960 On ch=1 n=d6 v=108
372960 On ch=2 n=e5 v=127
373022 On ch=1 n=d6 v=0
373024 On ch=1 n=g5 v=108
373086 On ch=1 n=g5 v=0
373088 On ch=1 n=d6 v=108
373120 On ch=1 n=d6 v=0
373120 On ch=2 n=e5 v=0
373150 On ch=1 n=d6 v=0
373152 On ch=1 n=g6 v=108
373152 On ch=2 n=a#5 v=127
373214 On ch=1 n=g6 v=0
373216 On ch=1 n=d6 v=108
373278 On ch=1 n=d6 v=0
373280 On ch=1 n=g6 v=108
373312 On ch=2 n=a#5 v=0
373342 On ch=1 n=g6 v=0
373344 Par ch=2 c=64 v=0
373344 TimeSig 3/2 24 8
373344 On ch=1 n=d6 v=60
373344 On ch=1 n=a#6 v=60
373344 On ch=1 n=d7 v=60
373344 On ch=2 n=g5 v=60
373344 On ch=2 n=a#5 v=60
373406 On ch=2 n=g5 v=0
373406 On ch=2 n=a#5 v=0
373472 On ch=2 n=f5 v=60
373504 On ch=1 n=d6 v=0
373504 On ch=1 n=a#6 v=0
373504 On ch=1 n=d7 v=0
373534 On ch=2 n=f5 v=0
373536 On ch=1 n=c6 v=60
373536 On ch=1 n=g6 v=60
373536 On ch=1 n=c7 v=60
373536 On ch=2 n=d#5 v=60
373536 On ch=2 n=g5 v=60
373598 On ch=1 n=c6 v=0
373598 On ch=1 n=g6 v=0
373598 On ch=1 n=c7 v=0
373664 On ch=1 n=c7 v=60
373696 On ch=2 n=d#5 v=0
373696 On ch=2 n=g5 v=0
373726 On ch=1 n=c7 v=0
373728 On ch=1 n=d6 v=60
373728 On ch=1 n=a6 v=60
373728 On ch=1 n=d7 v=60
373728 On ch=2 n=f5 v=60
373728 On ch=2 n=a5 v=60
373790 On ch=2 n=f5 v=0
373790 On ch=2 n=a5 v=0
373856 On ch=2 n=d#5 v=60
373888 On ch=1 n=d6 v=0
373888 On ch=1 n=a6 v=0
373888 On ch=1 n=d7 v=0
373918 On ch=2 n=d#5 v=0
373920 On ch=1 n=a#5 v=60
373920 On ch=1 n=f6 v=60
373920 On ch=1 n=a#6 v=60
373920 On ch=2 n=d5 v=60
373920 On ch=2 n=f5 v=60
373982 On ch=1 n=a#5 v=0
373982 On ch=1 n=f6 v=0
373982 On ch=1 n=a#6 v=0
374048 On ch=1 n=a#6 v=60
374080 On ch=2 n=d5 v=0
374080 On ch=2 n=f5 v=0
374110 On ch=1 n=a#6 v=0
374112 On ch=1 n=c6 v=60
374112 On ch=1 n=g6 v=60
374112 On ch=1 n=c7 v=60
374112 On ch=2 n=d#5 v=60
374112 On ch=2 n=g5 v=60
374174 On ch=2 n=d#5 v=0
374174 On ch=2 n=g5 v=0
374240 On ch=2 n=c5 v=60
374272 On ch=1 n=c6 v=0
374272 On ch=1 n=g6 v=0
374272 On ch=1 n=c7 v=0
374302 On ch=2 n=c5 v=0
374304 On ch=1 n=g5 v=60
374304 On ch=1 n=d6 v=60
374304 On ch=1 n=g6 v=60
374304 On ch=2 n=g4 v=60
374304 On ch=2 n=d5 v=60
374366 On ch=1 n=g5 v=0
374366 On ch=1 n=d6 v=0
374366 On ch=1 n=g6 v=0
374432 On ch=1 n=a6 v=60
374464 On ch=2 n=g4 v=0
374464 On ch=2 n=d5 v=0
374494 On ch=1 n=a6 v=0
374496 On ch=1 n=a#5 v=60
374496 On ch=1 n=f#6 v=60
374496 On ch=1 n=a#6 v=60
374496 On ch=2 n=d#5 v=60
374496 On ch=2 n=f#5 v=60
374558 On ch=2 n=d#5 v=0
374558 On ch=2 n=f#5 v=0
374624 On ch=2 n=c#5 v=60
374656 On ch=1 n=a#5 v=0
374656 On ch=1 n=f#6 v=0
374656 On ch=1 n=a#6 v=0
374686 On ch=2 n=c#5 v=0
374688 On ch=1 n=g#5 v=62
374688 On ch=1 n=d#6 v=62
374688 On ch=1 n=g#6 v=62
374688 On ch=2 n=b4 v=60
374688 On ch=2 n=d#5 v=60
374750 On ch=1 n=g#5 v=0
374750 On ch=1 n=d#6 v=0
374750 On ch=1 n=g#6 v=0
374816 On ch=1 n=g#6 v=62
374848 On ch=2 n=b4 v=0
374848 On ch=2 n=d#5 v=0
374878 On ch=1 n=g#6 v=0
374880 On ch=1 n=a#5 v=62
374880 On ch=1 n=f6 v=62
374880 On ch=1 n=a#6 v=62
374880 On ch=2 n=c#5 v=62
374880 On ch=2 n=f5 v=62
374942 On ch=2 n=c#5 v=0
374942 On ch=2 n=f5 v=0
375008 On ch=2 n=b4 v=62
375040 On ch=1 n=a#5 v=0
375040 On ch=1 n=f6 v=0
375040 On ch=1 n=a#6 v=0
375070 On ch=2 n=b4 v=0
375072 On ch=1 n=f#5 v=64
375072 On ch=1 n=c#6 v=64
375072 On ch=1 n=f#6 v=64
375072 On ch=2 n=a#4 v=62
375072 On ch=2 n=c#5 v=62
375134 On ch=1 n=f#5 v=0
375134 On ch=1 n=c#6 v=0
375134 On ch=1 n=f#6 v=0
375200 On ch=1 n=f#6 v=64
375232 On ch=2 n=a#4 v=0
375232 On ch=2 n=c#5 v=0
375262 On ch=1 n=f#6 v=0
375264 On ch=1 n=g#5 v=64
375264 On ch=1 n=d#6 v=64
375264 On ch=1 n=g#6 v=64
375264 On ch=2 n=b4 v=64
375264 On ch=2 n=d#5 v=64
375326 On ch=2 n=b4 v=0
375326 On ch=2 n=d#5 v=0
375392 On ch=2 n=b4 v=64
375424 On ch=1 n=g#5 v=0
375424 On ch=1 n=d#6 v=0
375424 On ch=1 n=g#6 v=0
375454 On ch=2 n=b4 v=0
375456 On ch=1 n=d#5 v=66
375456 On ch=1 n=a#5 v=66
375456 On ch=1 n=d#6 v=66
375456 On ch=2 n=d#4 v=64
375456 On ch=2 n=a#4 v=64
375518 On ch=1 n=d#5 v=0
375518 On ch=1 n=a#5 v=0
375518 On ch=1 n=d#6 v=0
375584 On ch=1 n=f6 v=66
375616 On ch=2 n=d#4 v=0
375616 On ch=2 n=a#4 v=0
375646 On ch=1 n=f6 v=0
375648 TimeSig 2/2 24 8
375648 On ch=1 n=f#5 v=66
375648 On ch=1 n=d6 v=66
375648 On ch=1 n=f#6 v=66
375648 On ch=2 n=b4 v=66
375648 On ch=2 n=d5 v=66
375710 On ch=2 n=b4 v=0
375710 On ch=2 n=d5 v=0
375776 On ch=2 n=g4 v=66
375808 On ch=1 n=f#5 v=0
375808 On ch=1 n=d6 v=0
375808 On ch=1 n=f#6 v=0
375838 On ch=2 n=g4 v=0
375840 On ch=1 n=e5 v=68
375840 On ch=1 n=c#6 v=68
375840 On ch=1 n=e6 v=68
375840 On ch=2 n=f#4 v=66
375840 On ch=2 n=c#5 v=66
375902 On ch=1 n=e5 v=0
375902 On ch=1 n=c#6 v=0
375902 On ch=1 n=e6 v=0
375968 On ch=1 n=e6 v=68
376000 On ch=2 n=f#4 v=0
376000 On ch=2 n=c#5 v=0
376030 On ch=1 n=e6 v=0
376032 On ch=1 n=f#5 v=68
376032 On ch=1 n=d6 v=68
376032 On ch=1 n=f#6 v=68
376032 On ch=2 n=a#4 v=68
376032 On ch=2 n=d5 v=68
376094 On ch=2 n=a#4 v=0
376094 On ch=2 n=d5 v=0
376160 On ch=2 n=f#4 v=68
376192 On ch=1 n=f#5 v=0
376192 On ch=1 n=d6 v=0
376192 On ch=1 n=f#6 v=0
376222 On ch=2 n=f#4 v=0
376224 On ch=1 n=c6 v=70
376224 On ch=1 n=d6 v=70
376224 On ch=1 n=c7 v=70
376224 On ch=2 n=f4 v=69
376224 On ch=2 n=d5 v=69
376286 On ch=1 n=c6 v=0
376286 On ch=1 n=d6 v=0
376286 On ch=1 n=c7 v=0
376352 On ch=1 n=f6 v=71
376384 On ch=2 n=f4 v=0
376384 On ch=2 n=d5 v=0
376414 On ch=1 n=f6 v=0
376416 On ch=1 n=f#5 v=72
376416 On ch=1 n=d6 v=72
376416 On ch=1 n=f#6 v=72
376416 On ch=2 n=b4 v=72
376416 On ch=2 n=d5 v=72
376478 On ch=2 n=b4 v=0
376478 On ch=2 n=d5 v=0
376544 On ch=2 n=g4 v=74
376576 On ch=1 n=f#5 v=0
376576 On ch=1 n=d6 v=0
376576 On ch=1 n=f#6 v=0
376606 On ch=2 n=g4 v=0
376608 On ch=1 n=e5 v=75
376608 On ch=1 n=c#6 v=75
376608 On ch=1 n=e6 v=75
376608 On ch=2 n=f#4 v=75
376608 On ch=2 n=c#5 v=75
376670 On ch=1 n=e5 v=0
376670 On ch=1 n=c#6 v=0
376670 On ch=1 n=e6 v=0
376736 On ch=1 n=e6 v=77
376768 On ch=2 n=f#4 v=0
376768 On ch=2 n=c#5 v=0
376798 On ch=1 n=e6 v=0
376800 On ch=1 n=f#5 v=77
376800 On ch=1 n=d6 v=77
376800 On ch=1 n=f#6 v=77
376800 On ch=2 n=a#4 v=78
376800 On ch=2 n=d5 v=78
376862 On ch=2 n=a#4 v=0
376862 On ch=2 n=d5 v=0
376928 On ch=2 n=f#4 v=79
376960 On ch=1 n=f#5 v=0
376960 On ch=1 n=d6 v=0
376960 On ch=1 n=f#6 v=0
376990 On ch=2 n=f#4 v=0
376992 On ch=1 n=a#5 v=80
376992 On ch=1 n=d6 v=80
376992 On ch=1 n=a#6 v=80
376992 On ch=2 n=f4 v=80
376992 On ch=2 n=d5 v=80
377054 On ch=1 n=a#5 v=0
377054 On ch=1 n=d6 v=0
377054 On ch=1 n=a#6 v=0
377120 On ch=1 n=e6 v=82
377152 On ch=2 n=f4 v=0
377152 On ch=2 n=d5 v=0
377182 On ch=1 n=e6 v=0
377184 On ch=1 n=f5 v=83
377184 On ch=1 n=c#6 v=83
377184 On ch=1 n=f6 v=83
377184 On ch=2 n=a#4 v=83
377184 On ch=2 n=c#5 v=83
377246 On ch=2 n=a#4 v=0
377246 On ch=2 n=c#5 v=0
377312 On ch=2 n=f#4 v=85
377344 On ch=1 n=f5 v=0
377344 On ch=1 n=c#6 v=0
377344 On ch=1 n=f6 v=0
377374 On ch=2 n=f#4 v=0
377376 On ch=1 n=a5 v=86
377376 On ch=1 n=d6 v=86
377376 On ch=1 n=a6 v=86
377376 On ch=2 n=f4 v=86
377376 On ch=2 n=d5 v=86
377438 On ch=1 n=a5 v=0
377438 On ch=1 n=d6 v=0
377438 On ch=1 n=a6 v=0
377504 On ch=1 n=c#6 v=88
377536 On ch=2 n=f4 v=0
377536 On ch=2 n=d5 v=0
377566 On ch=1 n=c#6 v=0
377568 On ch=1 n=d5 v=89
377568 On ch=1 n=a#5 v=89
377568 On ch=1 n=d6 v=89
377568 On ch=2 n=g4 v=89
377568 On ch=2 n=a#4 v=89
377630 On ch=2 n=g4 v=0
377630 On ch=2 n=a#4 v=0
377696 On ch=2 n=d#4 v=91
377728 On ch=1 n=d5 v=0
377728 On ch=1 n=a#5 v=0
377728 On ch=1 n=d6 v=0
377758 On ch=2 n=d#4 v=0
377760 On ch=1 n=f5 v=92
377760 On ch=1 n=a#5 v=92
377760 On ch=1 n=f6 v=92
377760 On ch=2 n=d4 v=92
377760 On ch=2 n=a#4 v=92
377822 On ch=1 n=f5 v=0
377822 On ch=1 n=a#5 v=0
377822 On ch=1 n=f6 v=0
377888 On ch=1 n=a5 v=94
377920 On ch=2 n=d4 v=0
377920 On ch=2 n=a#4 v=0
377950 On ch=1 n=a5 v=0
377952 On ch=1 n=a#4 v=95
377952 On ch=1 n=f#5 v=95
377952 On ch=1 n=a#5 v=95
377952 On ch=2 n=d#4 v=95
377952 On ch=2 n=f#4 v=95
378014 On ch=2 n=d#4 v=0
378014 On ch=2 n=f#4 v=0
378080 On ch=2 n=c4 v=97
378112 On ch=1 n=a#4 v=0
378112 On ch=1 n=f#5 v=0
378112 On ch=1 n=a#5 v=0
378142 On ch=2 n=c4 v=0
378144 On ch=1 n=d5 v=98
378144 On ch=1 n=g5 v=98
378144 On ch=1 n=d6 v=98
378144 On ch=2 n=a#3 v=98
378144 On ch=2 n=g4 v=98
378206 On ch=1 n=d5 v=0
378206 On ch=1 n=g5 v=0
378206 On ch=1 n=d6 v=0
378272 On ch=1 n=f#5 v=100
378304 On ch=2 n=a#3 v=0
378304 On ch=2 n=g4 v=0
378334 On ch=1 n=f#5 v=0
378336 On ch=1 n=g4 v=101
378336 On ch=1 n=d5 v=101
378336 On ch=1 n=g5 v=101
378336 On ch=2 n=d4 v=101
378336 On ch=2 n=f4 v=101
378398 On ch=2 n=d4 v=0
378398 On ch=2 n=f4 v=0
378464 On ch=2 n=a#3 v=103
378496 On ch=1 n=g4 v=0
378496 On ch=1 n=d5 v=0
378496 On ch=1 n=g5 v=0
378526 On ch=2 n=a#3 v=0
378528 On ch=1 n=a#4 v=104
378528 On ch=1 n=d5 v=104
378528 On ch=1 n=a#5 v=104
378528 On ch=2 n=g3 v=104
378528 On ch=2 n=e4 v=104
378590 On ch=1 n=a#4 v=0
378590 On ch=1 n=d5 v=0
378590 On ch=1 n=a#5 v=0
378656 On ch=1 n=e5 v=106
378688 On ch=2 n=g3 v=0
378688 On ch=2 n=e4 v=0
378718 On ch=1 n=e5 v=0
378720 Par ch=2 c=64 v=127
378720 On ch=1 n=c#5 v=108
378720 On ch=1 n=e5 v=108
378720 On ch=1 n=a5 v=108
378720 On ch=2 n=a3 v=108
378720 On ch=2 n=a3 v=108
378782 On ch=2 n=a3 v=0
378784 On ch=2 n=a4 v=108
378846 On ch=2 n=a4 v=0
378848 On ch=2 n=e4 v=108
378880 On ch=1 n=c#5 v=0
378880 On ch=1 n=e5 v=0
378880 On ch=1 n=a5 v=0
378880 On ch=2 n=a3 v=0
378910 On ch=2 n=e4 v=0
378912 On ch=1 n=c#5 v=108
378912 On ch=1 n=e5 v=108
378912 On ch=1 n=g5 v=108
378912 On ch=2 n=a#3 v=108
378912 On ch=2 n=a#3 v=108
378974 On ch=1 n=g5 v=0
378974 On ch=2 n=a#3 v=0
378976 On ch=2 n=g4 v=108
379038 On ch=2 n=g4 v=0
379040 On ch=1 n=g5 v=108
379040 On ch=2 n=e4 v=108
379072 On ch=1 n=c#5 v=0
379072 On ch=1 n=e5 v=0
379072 On ch=2 n=a#3 v=0
379102 On ch=1 n=g5 v=0
379102 On ch=2 n=e4 v=0
379104 Par ch=2 c=64 v=0
379104 Par ch=2 c=64 v=127
379104 On ch=1 n=c#5 v=108
379104 On ch=1 n=e5 v=108
379104 On ch=1 n=a5 v=108
379104 On ch=2 n=a3 v=108
379104 On ch=2 n=a3 v=108
379166 On ch=2 n=a3 v=0
379168 On ch=2 n=a4 v=108
379230 On ch=2 n=a4 v=0
379232 On ch=2 n=e4 v=108
379264 On ch=1 n=c#5 v=0
379264 On ch=1 n=e5 v=0
379264 On ch=1 n=a5 v=0
379264 On ch=2 n=a3 v=0
379294 On ch=2 n=e4 v=0
379296 On ch=1 n=c#5 v=108
379296 On ch=1 n=e5 v=108
379296 On ch=1 n=a#5 v=108
379296 On ch=2 n=g3 v=108
379296 On ch=2 n=g3 v=108
379358 On ch=1 n=a#5 v=0
379358 On ch=2 n=g3 v=0
379360 On ch=2 n=a#4 v=108
379422 On ch=2 n=a#4 v=0
379424 On ch=1 n=a#5 v=108
379424 On ch=2 n=e4 v=108
379456 On ch=1 n=c#5 v=0
379456 On ch=1 n=e5 v=0
379456 On ch=2 n=g3 v=0
379486 On ch=1 n=a#5 v=0
379486 On ch=2 n=e4 v=0
379488 Par ch=2 c=64 v=0
379488 On ch=1 n=c5 v=108
379488 On ch=1 n=e5 v=108
379488 On ch=1 n=c6 v=108
379488 On ch=2 n=a2 v=127
379488 On ch=2 n=a3 v=127
379614 On ch=2 n=a2 v=0
379614 On ch=2 n=a3 v=0
379616 Par ch=2 c=64 v=127
379616 On ch=2 n=e4 v=108
379648 On ch=1 n=c5 v=0
379648 On ch=1 n=e5 v=0
379648 On ch=1 n=c6 v=0
379678 On ch=2 n=e4 v=0
379680 On ch=1 n=d5 v=127
379680 On ch=1 n=f5 v=127
379680 On ch=1 n=g#5 v=127
379680 On ch=1 n=b5 v=127
379680 On ch=1 n=d6 v=127
379680 On ch=2 n=f4 v=127
379726 On ch=2 n=f4 v=0
379728 On ch=2 n=g#4 v=127
379774 On ch=2 n=g#4 v=0
379776 On ch=2 n=b4 v=127
379822 On ch=2 n=b4 v=0
379824 On ch=2 n=d5 v=127
379840 On ch=1 n=d5 v=0
379840 On ch=1 n=f5 v=0
379840 On ch=1 n=g#5 v=0
379840 On ch=1 n=b5 v=0
379840 On ch=1 n=d6 v=0
379870 On ch=2 n=d5 v=0
379872 On ch=1 n=f5 v=127
379918 On ch=1 n=f5 v=0
379920 On ch=1 n=g#5 v=127
379966 On ch=1 n=g#5 v=0
379968 On ch=1 n=a#5 v=127
380014 On ch=1 n=a#5 v=0
380016 On ch=1 n=b5 v=127
380062 On ch=1 n=b5 v=0
380064 On ch=1 n=c#6 v=108
380064 On ch=1 n=e6 v=108
380064 On ch=2 n=e4 v=108
380064 On ch=2 n=a#4 v=108
380064 On ch=2 n=c5 v=108
380064 On ch=2 n=e5 v=108
380126 On ch=1 n=c#6 v=0
380128 On ch=1 n=a5 v=108
380190 On ch=1 n=a5 v=0
380192 On ch=1 n=e5 v=108
380224 On ch=1 n=e6 v=0
380224 On ch=2 n=e5 v=0
380224 On ch=2 n=c5 v=0
380224 On ch=2 n=a#4 v=0
380224 On ch=2 n=e4 v=0
380254 On ch=1 n=e5 v=0
380256 Par ch=2 c=64 v=0
380256 Par ch=2 c=64 v=127
380256 On ch=2 n=d4 v=108
380256 On ch=2 n=d4 v=108
380256 On ch=1 n=d6 v=108
380256 On ch=1 n=a5 v=108
380256 On ch=1 n=f5 v=108
380318 On ch=2 n=d4 v=0
380320 On ch=2 n=d5 v=108
380382 On ch=2 n=d5 v=0
380384 On ch=2 n=a4 v=108
380416 On ch=2 n=d4 v=0
380416 On ch=1 n=d6 v=0
380416 On ch=1 n=a5 v=0
380416 On ch=1 n=f5 v=0
380446 On ch=2 n=a4 v=0
380448 On ch=1 n=c6 v=108
380448 On ch=1 n=a5 v=108
380448 On ch=1 n=f5 v=108
380448 On ch=2 n=e4 v=108
380448 On ch=2 n=e4 v=108
380510 On ch=1 n=c6 v=0
380510 On ch=2 n=e4 v=0
380512 On ch=2 n=c5 v=108
380574 On ch=2 n=c5 v=0
380576 On ch=1 n=c6 v=108
380576 On ch=2 n=a4 v=108
380608 On ch=1 n=a5 v=0
380608 On ch=1 n=f5 v=0
380608 On ch=2 n=e4 v=0
380638 On ch=1 n=c6 v=0
380638 On ch=2 n=a4 v=0
380640 Par ch=2 c=64 v=0
380640 Par ch=2 c=64 v=127
380640 On ch=1 n=f5 v=108
380640 On ch=1 n=a5 v=108
380640 On ch=1 n=d6 v=108
380640 On ch=2 n=d4 v=108
380640 On ch=2 n=d4 v=108
380702 On ch=2 n=d4 v=0
380704 On ch=2 n=d5 v=108
380766 On ch=2 n=d5 v=0
380768 On ch=2 n=a4 v=108
380800 On ch=1 n=f5 v=0
380800 On ch=1 n=a5 v=0
380800 On ch=1 n=d6 v=0
380800 On ch=2 n=d4 v=0
380830 On ch=2 n=a4 v=0
380832 On ch=1 n=e5 v=108
380832 On ch=1 n=a5 v=108
380832 On ch=1 n=e6 v=108
380832 On ch=2 n=c4 v=108
380832 On ch=2 n=c4 v=108
380894 On ch=1 n=e6 v=0
380894 On ch=2 n=c4 v=0
380896 On ch=2 n=c5 v=108
380958 On ch=2 n=c5 v=0
380960 On ch=1 n=e6 v=108
380960 On ch=2 n=a4 v=108
380992 On ch=1 n=e5 v=0
380992 On ch=1 n=a5 v=0
380992 On ch=2 n=c4 v=0
381022 On ch=1 n=e6 v=0
381022 On ch=2 n=a4 v=0
381024 Par ch=2 c=64 v=0
381024 Par ch=2 c=64 v=127
381024 On ch=1 n=f5 v=108
381024 On ch=1 n=c6 v=108
381024 On ch=1 n=f6 v=108
381024 On ch=2 n=a2 v=127
381024 On ch=2 n=a3 v=127
381150 On ch=2 n=a2 v=0
381150 On ch=2 n=a3 v=0
381152 On ch=2 n=f4 v=108
381184 On ch=1 n=f5 v=0
381184 On ch=1 n=c6 v=0
381184 On ch=1 n=f6 v=0
381214 On ch=2 n=f4 v=0
381216 On ch=1 n=g5 v=127
381216 On ch=1 n=c6 v=127
381216 On ch=1 n=d#6 v=127
381216 On ch=1 n=e6 v=127
381216 On ch=1 n=g6 v=127
381216 On ch=2 n=g4 v=127
381262 On ch=2 n=g4 v=0
381264 On ch=2 n=a#4 v=127
381310 On ch=2 n=a#4 v=0
381312 On ch=2 n=c#5 v=127
381358 On ch=2 n=c#5 v=0
381360 On ch=2 n=e5 v=127
381376 On ch=1 n=g5 v=0
381376 On ch=1 n=c6 v=0
381376 On ch=1 n=d#6 v=0
381376 On ch=1 n=e6 v=0
381376 On ch=1 n=g6 v=0
381406 On ch=2 n=e5 v=0
381408 On ch=1 n=g5 v=127
381454 On ch=1 n=g5 v=0
381456 On ch=1 n=a#5 v=127
381502 On ch=1 n=a#5 v=0
381504 On ch=1 n=c6 v=127
381534 On ch=1 n=c6 v=0
381536 On ch=1 n=d#6 v=127
381566 On ch=1 n=d#6 v=0
381568 On ch=1 n=e6 v=127
381598 On ch=1 n=e6 v=0
381600 On ch=1 n=f6 v=108
381600 On ch=1 n=a6 v=108
381600 On ch=2 n=f4 v=108
381600 On ch=2 n=a4 v=108
381600 On ch=2 n=c5 v=108
381600 On ch=2 n=f5 v=108
381662 On ch=1 n=f6 v=0
381664 On ch=1 n=c6 v=108
381726 On ch=1 n=c6 v=0
381728 On ch=1 n=a5 v=108
381760 On ch=1 n=a6 v=0
381760 On ch=2 n=f4 v=0
381760 On ch=2 n=a4 v=0
381760 On ch=2 n=c5 v=0
381760 On ch=2 n=f5 v=0
381790 On ch=1 n=a5 v=0
381792 Par ch=2 c=64 v=0
381792 Par ch=2 c=64 v=127
381792 On ch=1 n=a#5 v=108
381792 On ch=1 n=d6 v=108
381792 On ch=1 n=g6 v=108
381792 On ch=2 n=g4 v=108
381792 On ch=2 n=g4 v=108
381854 On ch=2 n=g4 v=0
381856 On ch=2 n=g5 v=108
381918 On ch=2 n=g5 v=0
381920 On ch=2 n=d5 v=108
381952 On ch=1 n=a#5 v=0
381952 On ch=1 n=d6 v=0
381952 On ch=1 n=g6 v=0
381952 On ch=2 n=g4 v=0
381982 On ch=2 n=d5 v=0
381984 On ch=1 n=a#5 v=108
381984 On ch=1 n=d6 v=108
381984 On ch=1 n=f6 v=108
381984 On ch=2 n=a4 v=108
381984 On ch=2 n=a4 v=108
382046 On ch=1 n=f6 v=0
382046 On ch=2 n=a4 v=0
382048 On ch=2 n=f5 v=108
382110 On ch=2 n=f5 v=0
382112 On ch=1 n=f6 v=108
382112 On ch=2 n=d5 v=108
382144 On ch=1 n=a#5 v=0
382144 On ch=1 n=d6 v=0
382144 On ch=2 n=a4 v=0
382174 On ch=1 n=f6 v=0
382174 On ch=2 n=d5 v=0
382176 Par ch=2 c=64 v=0
382176 Par ch=2 c=64 v=127
382176 On ch=1 n=a#5 v=108
382176 On ch=1 n=d6 v=108
382176 On ch=1 n=g6 v=108
382176 On ch=2 n=g4 v=108
382176 On ch=2 n=g4 v=108
382238 On ch=2 n=g4 v=0
382240 On ch=2 n=g5 v=108
382302 On ch=2 n=g5 v=0
382304 On ch=2 n=d5 v=108
382336 On ch=1 n=a#5 v=0
382336 On ch=1 n=d6 v=0
382336 On ch=1 n=g6 v=0
382336 On ch=2 n=g4 v=0
382366 On ch=2 n=d5 v=0
382368 On ch=1 n=a5 v=108
382368 On ch=1 n=d6 v=108
382368 On ch=1 n=a6 v=108
382368 On ch=2 n=f4 v=108
382368 On ch=2 n=f4 v=108
382430 On ch=1 n=a6 v=0
382430 On ch=2 n=f4 v=0
382432 On ch=2 n=f5 v=108
382494 On ch=2 n=f5 v=0
382496 On ch=1 n=a6 v=108
382496 On ch=2 n=d5 v=108
382528 On ch=1 n=a5 v=0
382528 On ch=1 n=d6 v=0
382528 On ch=2 n=f4 v=0
382558 On ch=1 n=a6 v=0
382558 On ch=2 n=d5 v=0
382560 Par ch=2 c=64 v=0
382560 Par ch=2 c=64 v=127
382560 On ch=1 n=a#5 v=108
382560 On ch=1 n=d6 v=108
382560 On ch=1 n=f6 v=108
382560 On ch=1 n=a#6 v=108
382560 On ch=2 n=a2 v=127
382560 On ch=2 n=a3 v=127
382686 On ch=2 n=a2 v=0
382686 On ch=2 n=a3 v=0
382688 On ch=2 n=f4 v=108
382720 On ch=1 n=a#5 v=0
382720 On ch=1 n=d6 v=0
382720 On ch=1 n=f6 v=0
382720 On ch=1 n=a#6 v=0
382750 On ch=2 n=f4 v=0
382752 On ch=1 n=b5 v=127
382752 On ch=1 n=d6 v=127
382752 On ch=1 n=f6 v=127
382752 On ch=1 n=g#6 v=127
382752 On ch=1 n=b6 v=127
382752 On ch=2 n=g#4 v=127
382800 On ch=2 n=g#4 v=0
382800 On ch=2 n=b4 v=127
382848 On ch=2 n=b4 v=0
382848 On ch=2 n=d5 v=127
382896 On ch=2 n=d5 v=0
382896 On ch=2 n=f5 v=127
382912 On ch=1 n=b5 v=0
382912 On ch=1 n=d6 v=0
382912 On ch=1 n=f6 v=0
382912 On ch=1 n=g#6 v=0
382912 On ch=1 n=b6 v=0
382944 On ch=2 n=f5 v=0
382944 On ch=1 n=g#5 v=127
382990 On ch=1 n=g#5 v=0
382992 On ch=1 n=d6 v=127
383038 On ch=1 n=d6 v=0
383040 On ch=1 n=f6 v=127
383086 On ch=1 n=f6 v=0
383088 On ch=1 n=g#6 v=127
383134 On ch=1 n=g#6 v=0
383136 On ch=1 n=a6 v=108
383136 On ch=1 n=c#7 v=108
383136 On ch=2 n=a4 v=108
383136 On ch=2 n=c#5 v=108
383136 On ch=2 n=e5 v=108
383136 On ch=2 n=a5 v=108
383198 On ch=1 n=a6 v=0
383200 On ch=1 n=e6 v=108
383262 On ch=1 n=e6 v=0
383264 On ch=1 n=c#6 v=108
383296 On ch=2 n=a4 v=0
383296 On ch=2 n=c#5 v=0
383296 On ch=2 n=e5 v=0
383296 On ch=2 n=a5 v=0
383328 Par ch=2 c=64 v=0
383328 Par ch=2 c=64 v=127
383392 On ch=2 n=a4 v=108
383454 On ch=2 n=a4 v=0
383456 On ch=2 n=e5 v=108
383488 On ch=1 n=c6 v=0
383488 On ch=1 n=c7 v=0
383518 On ch=2 n=e5 v=0
383520 On ch=1 n=d6 v=127
383520 On ch=1 n=g6 v=127
383520 On ch=1 n=a#6 v=127
383520 On ch=1 n=d7 v=127
383520 On ch=2 n=g5 v=108
383582 On ch=2 n=g5 v=0
383584 On ch=2 n=a5 v=108
383646 On ch=2 n=a5 v=0
383648 On ch=2 n=a#5 v=108
383680 On ch=1 n=d6 v=0
383680 On ch=1 n=g6 v=0
383680 On ch=1 n=a#6 v=0
383680 On ch=1 n=d7 v=0
383710 On ch=2 n=a#5 v=0
383712 On ch=1 n=e6 v=127
383712 On ch=1 n=g6 v=127
383712 On ch=1 n=a#6 v=127
383712 On ch=1 n=c#7 v=127
383712 On ch=1 n=e7 v=127
383712 On ch=2 n=a5 v=108
383774 On ch=2 n=a5 v=0
383776 On ch=2 n=g5 v=108
383838 On ch=2 n=g5 v=0
383840 On ch=2 n=e5 v=108
383902 On ch=2 n=e5 v=0
383904 On ch=2 n=d5 v=108
383966 On ch=2 n=d5 v=0
383968 On ch=1 n=e6 v=0
383968 On ch=1 n=g6 v=0
383968 On ch=1 n=a#6 v=0
383968 On ch=1 n=c#7 v=0
383968 On ch=1 n=e7 v=0
383968 On ch=2 n=c#5 v=108
384000 On ch=1 n=f6 v=127
384000 On ch=1 n=a#6 v=127
384000 On ch=1 n=d7 v=127
384000 On ch=1 n=f7 v=127
384030 On ch=2 n=c#5 v=0
384032 On ch=2 n=a#4 v=108
384094 On ch=2 n=a#4 v=0
384096 Par ch=2 c=64 v=0
384096 Par ch=2 c=64 v=127
384096 On ch=2 n=a4 v=108
384158 On ch=2 n=a4 v=0
384160 On ch=2 n=g4 v=108
384222 On ch=2 n=g4 v=0
384224 On ch=2 n=e4 v=108
384256 On ch=1 n=f6 v=0
384256 On ch=1 n=a#6 v=0
384256 On ch=1 n=d7 v=0
384256 On ch=1 n=f7 v=0
384286 On ch=2 n=e4 v=0
384288 On ch=1 n=g6 v=127
384288 On ch=1 n=a#6 v=127
384288 On ch=1 n=c#7 v=127
384288 On ch=1 n=e7 v=127
384288 On ch=1 n=g7 v=127
384288 On ch=2 n=d4 v=108
384350 On ch=2 n=d4 v=0
384352 On ch=2 n=c#4 v=108
384414 On ch=2 n=c#4 v=0
384416 On ch=2 n=a#3 v=108
384478 On ch=2 n=a#3 v=0
384480 On ch=2 n=a3 v=108
384542 On ch=2 n=a3 v=0
384544 On ch=2 n=g3 v=108
384606 On ch=2 n=g3 v=0
384608 On ch=2 n=e3 v=108
384624 On ch=1 n=g6 v=0
384624 On ch=1 n=a#6 v=0
384624 On ch=1 n=c#7 v=0
384624 On ch=1 n=e7 v=0
384624 On ch=1 n=g7 v=0
384670 On ch=2 n=e3 v=0
384672 On ch=1 n=g#6 v=127
384672 On ch=1 n=a#6 v=127
384672 On ch=1 n=c#7 v=127
384672 On ch=1 n=e7 v=127
384672 On ch=1 n=g#7 v=127
384672 On ch=2 n=d3 v=108
384718 On ch=2 n=d3 v=0
384720 On ch=2 n=c#3 v=108
384766 On ch=2 n=c#3 v=0
384768 On ch=2 n=a#2 v=108
384814 On ch=2 n=a#2 v=0
384816 On ch=2 n=a2 v=108
384832 On ch=1 n=g#6 v=0
384832 On ch=1 n=a#6 v=0
384832 On ch=1 n=c#7 v=0
384832 On ch=1 n=e7 v=0
384832 On ch=1 n=g#7 v=0
384862 On ch=2 n=a2 v=0
384864 Par ch=2 c=64 v=0
384864 Par ch=2 c=64 v=127
384864 On ch=1 n=a7 v=108
384864 On ch=2 n=d2 v=127
384864 On ch=2 n=d3 v=127
384926 On ch=1 n=a7 v=0
384928 On ch=1 n=e7 v=108
384990 On ch=1 n=e7 v=0
384992 On ch=1 n=a7 v=108
385054 On ch=1 n=a7 v=0
385056 On ch=1 n=a6 v=108
385118 On ch=1 n=a6 v=0
385120 On ch=1 n=a6 v=108
385152 On ch=2 n=f4 v=127
385152 On ch=2 n=a4 v=127
385152 On ch=2 n=b4 v=127
385152 On ch=2 n=d5 v=127
385182 On ch=1 n=a6 v=0
385184 On ch=1 n=d6 v=108
385200 On ch=2 n=d2 v=0
385200 On ch=2 n=d3 v=0
385246 On ch=1 n=d6 v=0
385246 On ch=2 n=f4 v=0
385246 On ch=2 n=a4 v=0
385246 On ch=2 n=b4 v=0
385246 On ch=2 n=d5 v=0
385248 On ch=1 n=a6 v=108
385248 On ch=2 n=e4 v=127
385248 On ch=2 n=g4 v=127
385248 On ch=2 n=a4 v=127
385248 On ch=2 n=c#5 v=127
385248 On ch=2 n=e5 v=127
385310 On ch=1 n=a6 v=0
385312 On ch=1 n=a5 v=108
385374 On ch=1 n=a5 v=0
385376 On ch=1 n=a6 v=108
385438 On ch=1 n=a6 v=0
385440 On ch=1 n=e6 v=108
385502 On ch=1 n=e6 v=0
385504 On ch=1 n=a6 v=108
385536 On ch=2 n=a2 v=108
385566 On ch=1 n=a6 v=0
385568 On ch=1 n=a6 v=108
385584 On ch=2 n=e4 v=0
385584 On ch=2 n=g4 v=0
385584 On ch=2 n=a4 v=0
385584 On ch=2 n=c#5 v=0
385584 On ch=2 n=e5 v=0
385630 On ch=1 n=a6 v=0
385630 On ch=2 n=a2 v=0
385632 Par ch=2 c=64 v=0
385632 Par ch=2 c=64 v=127
385632 On ch=1 n=a7 v=108
385632 On ch=2 n=d2 v=127
385632 On ch=2 n=d3 v=127
385694 On ch=1 n=a7 v=0
385696 On ch=1 n=e7 v=108
385758 On ch=1 n=e7 v=0
385760 On ch=1 n=a7 v=108
385822 On ch=1 n=a7 v=0
385824 On ch=1 n=a6 v=108
385886 On ch=1 n=a6 v=0
385888 On ch=1 n=a6 v=108
385920 On ch=2 n=f4 v=127
385920 On ch=2 n=a4 v=127
385920 On ch=2 n=b4 v=127
385920 On ch=2 n=d5 v=127
385950 On ch=1 n=a6 v=0
385952 On ch=1 n=d6 v=108
385968 On ch=2 n=d2 v=0
385968 On ch=2 n=d3 v=0
386014 On ch=1 n=d6 v=0
386014 On ch=2 n=f4 v=0
386014 On ch=2 n=a4 v=0
386014 On ch=2 n=b4 v=0
386014 On ch=2 n=d5 v=0
386016 On ch=1 n=a6 v=108
386016 On ch=2 n=e4 v=127
386016 On ch=2 n=g4 v=127
386016 On ch=2 n=a4 v=127
386016 On ch=2 n=c#5 v=127
386016 On ch=2 n=e5 v=127
386078 On ch=1 n=a6 v=0
386080 On ch=1 n=a5 v=108
386142 On ch=1 n=a5 v=0
386144 On ch=1 n=a6 v=108
386206 On ch=1 n=a6 v=0
386208 On ch=1 n=e6 v=108
386270 On ch=1 n=e6 v=0
386272 On ch=1 n=a6 v=108
386304 On ch=2 n=a2 v=108
386334 On ch=1 n=a6 v=0
386336 On ch=1 n=a6 v=108
386352 On ch=2 n=e4 v=0
386352 On ch=2 n=g4 v=0
386352 On ch=2 n=a4 v=0
386352 On ch=2 n=c#5 v=0
386352 On ch=2 n=e5 v=0
386398 On ch=1 n=a6 v=0
386398 On ch=2 n=a2 v=0
386400 Par ch=2 c=64 v=0
386400 Par ch=2 c=64 v=127
386400 On ch=1 n=a7 v=108
386400 On ch=2 n=d2 v=127
386400 On ch=2 n=d3 v=127
386462 On ch=1 n=a7 v=0
386464 On ch=1 n=e7 v=108
386526 On ch=1 n=e7 v=0
386528 On ch=1 n=a7 v=108
386590 On ch=1 n=a7 v=0
386592 On ch=1 n=a6 v=108
386654 On ch=1 n=a6 v=0
386656 On ch=1 n=a6 v=108
386688 On ch=2 n=f4 v=127
386688 On ch=2 n=a4 v=127
386688 On ch=2 n=b4 v=127
386688 On ch=2 n=d5 v=127
386718 On ch=1 n=a6 v=0
386720 On ch=1 n=d6 v=108
386782 On ch=1 n=d6 v=0
386782 On ch=2 n=f4 v=0
386782 On ch=2 n=a4 v=0
386782 On ch=2 n=b4 v=0
386782 On ch=2 n=d5 v=0
386784 On ch=1 n=a6 v=108
386784 On ch=2 n=e4 v=127
386784 On ch=2 n=g4 v=127
386784 On ch=2 n=a4 v=127
386784 On ch=2 n=c#5 v=127
386784 On ch=2 n=e5 v=127
386846 On ch=1 n=a6 v=0
386848 On ch=1 n=a5 v=108
386910 On ch=1 n=a5 v=0
386912 On ch=1 n=a6 v=108
386974 On ch=1 n=a6 v=0
386976 On ch=1 n=e6 v=108
387038 On ch=1 n=e6 v=0
387040 On ch=2 n=e4 v=0
387040 On ch=2 n=g4 v=0
387040 On ch=2 n=a4 v=0
387040 On ch=2 n=c#5 v=0
387040 On ch=2 n=e5 v=0
387040 On ch=1 n=a6 v=108
387072 On ch=2 n=f4 v=127
387072 On ch=2 n=a4 v=127
387072 On ch=2 n=b4 v=127
387072 On ch=2 n=d5 v=127
387102 On ch=1 n=a6 v=0
387104 On ch=1 n=a6 v=108
387120 On ch=2 n=d2 v=0
387120 On ch=2 n=d3 v=0
387166 On ch=1 n=a6 v=0
387166 On ch=2 n=f4 v=0
387166 On ch=2 n=a4 v=0
387166 On ch=2 n=b4 v=0
387166 On ch=2 n=d5 v=0
387168 Par ch=2 c=64 v=0
387168 Par ch=2 c=64 v=127
387168 On ch=1 n=a7 v=108
387168 On ch=2 n=e4 v=127
387168 On ch=2 n=g4 v=127
387168 On ch=2 n=a4 v=127
387168 On ch=2 n=c#5 v=127
387168 On ch=2 n=e5 v=127
387230 On ch=1 n=a7 v=0
387232 On ch=1 n=e7 v=108
387294 On ch=1 n=e7 v=0
387296 On ch=1 n=a7 v=108
387358 On ch=1 n=a7 v=0
387360 On ch=1 n=a6 v=108
387422 On ch=1 n=a6 v=0
387424 On ch=1 n=a7 v=108
387456 On ch=2 n=a2 v=108
387486 On ch=1 n=a7 v=0
387488 On ch=1 n=d7 v=108
387550 On ch=1 n=d7 v=0
387550 On ch=2 n=a2 v=0
387552 On ch=1 n=a7 v=108
387552 On ch=2 n=d2 v=127
387552 On ch=2 n=d3 v=127
387614 On ch=1 n=a7 v=0
387616 On ch=1 n=e7 v=108
387678 On ch=1 n=e7 v=0
387680 On ch=1 n=a7 v=108
387696 On ch=2 n=e4 v=0
387696 On ch=2 n=g4 v=0
387696 On ch=2 n=a4 v=0
387696 On ch=2 n=c#5 v=0
387696 On ch=2 n=e5 v=0
387712 On ch=2 n=d2 v=0
387712 On ch=2 n=d3 v=0
387742 On ch=1 n=a7 v=0
387744 On ch=1 n=a6 v=108
387806 On ch=1 n=a6 v=0
387808 On ch=1 n=a7 v=108
387840 On ch=2 n=g4 v=108
387840 On ch=2 n=a4 v=108
387840 On ch=2 n=c#5 v=108
387840 On ch=2 n=e5 v=108
387870 On ch=1 n=a7 v=0
387872 On ch=1 n=d7 v=108
387934 On ch=1 n=d7 v=0
387934 On ch=2 n=g4 v=0
387934 On ch=2 n=a4 v=0
387934 On ch=2 n=c#5 v=0
387934 On ch=2 n=e5 v=0
387936 Par ch=2 c=64 v=0
387936 On ch=1 n=d7 v=127
387936 On ch=1 n=d8 v=127
387936 On ch=2 n=a4 v=127
387936 On ch=2 n=d5 v=127
387936 On ch=2 n=f5 v=127
387998 On ch=1 n=d7 v=0
387998 On ch=1 n=d8 v=0
388000 On ch=1 n=a7 v=108
388062 On ch=1 n=a7 v=0
388064 On ch=1 n=d7 v=108
388096 On ch=2 n=a4 v=0
388096 On ch=2 n=d5 v=0
388096 On ch=2 n=f5 v=0
388126 On ch=1 n=d7 v=0
388128 On ch=2 n=d#6 v=108
388128 On ch=2 n=c7 v=108
388174 On ch=2 n=d#6 v=0
388174 On ch=2 n=c7 v=0
388176 On ch=1 n=d#7 v=108
388176 On ch=1 n=c8 v=108
388222 On ch=1 n=d#7 v=0
388222 On ch=1 n=c8 v=0
388224 On ch=2 n=e6 v=108
388224 On ch=2 n=c#7 v=108
388270 On ch=2 n=e6 v=0
388270 On ch=2 n=c#7 v=0
388272 On ch=1 n=e7 v=108
388272 On ch=1 n=c#8 v=108
388272 On ch=2 n=f6 v=127
388272 On ch=2 n=d7 v=127
388318 On ch=1 n=e7 v=0
388318 On ch=1 n=c#8 v=0
388318 On ch=2 n=f6 v=0
388318 On ch=2 n=d7 v=0
388368 On ch=1 n=f7 v=127
388368 On ch=1 n=d8 v=127
388414 On ch=1 n=f7 v=0
388414 On ch=1 n=d8 v=0
388416 On ch=1 n=a7 v=108
388462 On ch=1 n=a7 v=0
388464 On ch=1 n=d7 v=108
388510 On ch=1 n=d7 v=0
388512 On ch=2 n=g5 v=108
388512 On ch=2 n=e6 v=108
388512 On ch=2 n=g6 v=108
388558 On ch=2 n=g5 v=0
388558 On ch=2 n=e6 v=0
388558 On ch=2 n=g6 v=0
388560 On ch=1 n=e7 v=108
388560 On ch=1 n=g7 v=108
388606 On ch=1 n=e7 v=0
388606 On ch=1 n=g7 v=0
388608 On ch=2 n=g#5 v=108
388608 On ch=2 n=e6 v=108
388608 On ch=2 n=g#6 v=108
388654 On ch=2 n=g#5 v=0
388654 On ch=2 n=e6 v=0
388654 On ch=2 n=g#6 v=0
388656 On ch=1 n=e7 v=108
388656 On ch=1 n=g#7 v=108
388702 On ch=1 n=e7 v=0
388702 On ch=1 n=g#7 v=0
388704 On ch=2 n=a5 v=108
388704 On ch=2 n=f6 v=108
388704 On ch=2 n=a6 v=108
388750 On ch=2 n=a5 v=0
388750 On ch=2 n=f6 v=0
388750 On ch=2 n=a6 v=0
388752 On ch=1 n=d7 v=127
388752 On ch=1 n=a7 v=127
388798 On ch=1 n=d7 v=0
388798 On ch=1 n=a7 v=0
388800 On ch=1 n=f7 v=108
388846 On ch=1 n=f7 v=0
388848 On ch=1 n=a6 v=108
388894 On ch=1 n=a6 v=0
388896 On ch=2 n=d#5 v=108
388896 On ch=2 n=c6 v=108
388942 On ch=2 n=d#5 v=0
388942 On ch=2 n=c6 v=0
388944 On ch=1 n=d#6 v=108
388944 On ch=1 n=c7 v=108
388990 On ch=1 n=d#6 v=0
388990 On ch=1 n=c7 v=0
388992 On ch=2 n=e5 v=108
388992 On ch=2 n=c#6 v=108
389038 On ch=2 n=e5 v=0
389038 On ch=2 n=c#6 v=0
389040 On ch=1 n=e6 v=108
389040 On ch=1 n=c#7 v=108
389086 On ch=1 n=e6 v=0
389086 On ch=1 n=c#7 v=0
389088 On ch=2 n=f5 v=108
389088 On ch=2 n=d6 v=108
389134 On ch=2 n=f5 v=0
389134 On ch=2 n=d6 v=0
389136 On ch=1 n=f6 v=127
389136 On ch=1 n=d7 v=127
389182 On ch=1 n=f6 v=0
389182 On ch=1 n=d7 v=0
389184 On ch=1 n=a6 v=108
389230 On ch=1 n=a6 v=0
389232 On ch=1 n=d6 v=108
389278 On ch=1 n=d6 v=0
389280 On ch=2 n=g4 v=108
389280 On ch=2 n=d#5 v=108
389280 On ch=2 n=g5 v=108
389326 On ch=2 n=g4 v=0
389326 On ch=2 n=d#5 v=0
389326 On ch=2 n=g5 v=0
389328 On ch=1 n=e6 v=108
389328 On ch=1 n=g6 v=108
389374 On ch=1 n=e6 v=0
389374 On ch=1 n=g6 v=0
389376 On ch=2 n=g#4 v=108
389376 On ch=2 n=e5 v=108
389376 On ch=2 n=g#5 v=108
389422 On ch=2 n=g#4 v=0
389422 On ch=2 n=e5 v=0
389422 On ch=2 n=g#5 v=0
389424 On ch=1 n=e6 v=108
389424 On ch=1 n=g#6 v=108
389470 On ch=1 n=e6 v=0
389470 On ch=1 n=g#6 v=0
389472 On ch=2 n=a4 v=108
389472 On ch=2 n=f5 v=108
389472 On ch=2 n=a5 v=108
389518 On ch=2 n=a4 v=0
389518 On ch=2 n=f5 v=0
389518 On ch=2 n=a5 v=0
389520 On ch=1 n=d6 v=127
389520 On ch=1 n=a6 v=127
389566 On ch=1 n=d6 v=0
389566 On ch=1 n=a6 v=0
389568 On ch=1 n=f6 v=108
389614 On ch=1 n=f6 v=0
389616 On ch=1 n=a5 v=108
389662 On ch=1 n=a5 v=0
389664 On ch=2 n=d#4 v=108
389664 On ch=2 n=c5 v=108
389710 On ch=2 n=d#4 v=0
389710 On ch=2 n=c5 v=0
389712 On ch=1 n=d#5 v=108
389712 On ch=1 n=c6 v=108
389758 On ch=1 n=d#5 v=0
389758 On ch=1 n=c6 v=0
389760 On ch=2 n=e4 v=108
389760 On ch=2 n=c#5 v=108
389806 On ch=2 n=e4 v=0
389806 On ch=2 n=c#5 v=0
389808 On ch=1 n=e5 v=108
389808 On ch=1 n=c#6 v=108
389854 On ch=1 n=e5 v=0
389854 On ch=1 n=c#6 v=0
389856 On ch=2 n=f4 v=108
389856 On ch=2 n=d5 v=108
389902 On ch=2 n=f4 v=0
389902 On ch=2 n=d5 v=0
389904 On ch=1 n=f5 v=108
389904 On ch=1 n=d6 v=108
389950 On ch=1 n=f5 v=0
389950 On ch=1 n=d6 v=0
389952 On ch=1 n=a5 v=108
389998 On ch=1 n=a5 v=0
390000 On ch=1 n=d5 v=108
390046 On ch=1 n=d5 v=0
390048 On ch=2 n=g3 v=108
390048 On ch=2 n=d#4 v=108
390048 On ch=2 n=g4 v=108
390094 On ch=2 n=g3 v=0
390094 On ch=2 n=d#4 v=0
390094 On ch=2 n=g4 v=0
390096 On ch=1 n=d#5 v=108
390096 On ch=1 n=g5 v=108
390142 On ch=1 n=d#5 v=0
390142 On ch=1 n=g5 v=0
390144 On ch=2 n=g#3 v=108
390144 On ch=2 n=e4 v=108
390144 On ch=2 n=g#4 v=108
390190 On ch=2 n=g#3 v=0
390190 On ch=2 n=e4 v=0
390190 On ch=2 n=g#4 v=0
390192 On ch=1 n=e5 v=108
390192 On ch=1 n=g#5 v=108
390238 On ch=1 n=e5 v=0
390238 On ch=1 n=g#5 v=0
390240 On ch=2 n=a3 v=127
390240 On ch=2 n=f4 v=127
390240 On ch=2 n=a4 v=127
390286 On ch=2 n=a3 v=0
390286 On ch=2 n=f4 v=0
390286 On ch=2 n=a4 v=0
390288 On ch=1 n=d5 v=127
390288 On ch=1 n=a5 v=127
390334 On ch=1 n=d5 v=0
390334 On ch=1 n=a5 v=0
390336 On ch=1 n=f5 v=108
390382 On ch=1 n=f5 v=0
390384 On ch=1 n=a4 v=108
390430 On ch=1 n=a4 v=0
390432 On ch=2 n=d#3 v=108
390432 On ch=2 n=c4 v=108
390478 On ch=2 n=d#3 v=0
390478 On ch=2 n=c4 v=0
390480 On ch=1 n=d#4 v=108
390480 On ch=1 n=c5 v=108
390526 On ch=1 n=d#4 v=0
390526 On ch=1 n=c5 v=0
390528 On ch=2 n=e3 v=108
390528 On ch=2 n=c#4 v=108
390574 On ch=2 n=e3 v=0
390574 On ch=2 n=c#4 v=0
390576 On ch=1 n=e4 v=108
390576 On ch=1 n=c#5 v=108
390622 On ch=1 n=e4 v=0
390622 On ch=1 n=c#5 v=0
390624 On ch=2 n=f3 v=108
390624 On ch=2 n=d4 v=108
390670 On ch=2 n=f3 v=0
390670 On ch=2 n=d4 v=0
390672 On ch=1 n=f4 v=108
390672 On ch=1 n=d5 v=108
390718 On ch=1 n=f4 v=0
390718 On ch=1 n=d5 v=0
390720 On ch=1 n=a4 v=108
390766 On ch=1 n=a4 v=0
390768 On ch=1 n=d4 v=108
390814 On ch=1 n=d4 v=0
390816 On ch=2 n=c3 v=108
390862 On ch=2 n=c3 v=0
390864 On ch=1 n=c4 v=108
390910 On ch=1 n=c4 v=0
390912 On ch=2 n=c#3 v=108
390958 On ch=2 n=c#3 v=0
390960 On ch=1 n=d#4 v=108
391006 On ch=1 n=d#4 v=0
391008 Par ch=2 c=64 v=127
391008 On ch=2 n=d2 v=127
391008 On ch=2 n=d3 v=127
391136 On ch=1 n=a3 v=108
391198 On ch=1 n=a3 v=0
391200 On ch=1 n=d4 v=108
391262 On ch=1 n=d4 v=0
391264 On ch=1 n=f4 v=108
391326 On ch=1 n=f4 v=0
391328 On ch=1 n=a4 v=108
391344 On ch=2 n=d2 v=0
391344 On ch=2 n=d3 v=0
391390 On ch=1 n=a4 v=0
391392 On ch=1 n=d5 v=127
391392 On ch=1 n=f5 v=127
391392 On ch=1 n=a5 v=127
391392 On ch=2 n=a4 v=110
391454 On ch=1 n=d5 v=0
391454 On ch=1 n=f5 v=0
391454 On ch=1 n=a5 v=0
391454 On ch=2 n=a4 v=0
391456 On ch=1 n=d5 v=108
391456 On ch=1 n=f5 v=108
391456 On ch=1 n=a5 v=108
391456 On ch=2 n=f4 v=110
391518 On ch=1 n=d5 v=0
391518 On ch=1 n=f5 v=0
391518 On ch=1 n=a5 v=0
391518 On ch=2 n=f4 v=0
391520 On ch=1 n=d5 v=108
391520 On ch=1 n=f5 v=108
391520 On ch=1 n=a5 v=108
391520 On ch=2 n=d4 v=110
391582 On ch=1 n=d5 v=0
391582 On ch=1 n=f5 v=0
391582 On ch=1 n=a5 v=0
391582 On ch=2 n=d4 v=0
391584 On ch=1 n=d5 v=108
391584 On ch=1 n=f5 v=108
391584 On ch=1 n=a5 v=108
391584 On ch=2 n=f4 v=110
391646 On ch=2 n=f4 v=0
391648 On ch=2 n=d4 v=110
391710 On ch=2 n=d4 v=0
391712 On ch=2 n=a3 v=110
391744 On ch=1 n=d5 v=0
391744 On ch=1 n=f5 v=0
391744 On ch=1 n=a5 v=0
391774 On ch=2 n=a3 v=0
391776 Par ch=2 c=64 v=0
391776 Par ch=2 c=64 v=127
391776 On ch=2 n=d2 v=127
391776 On ch=2 n=d3 v=127
391904 On ch=1 n=a3 v=109
391966 On ch=1 n=a3 v=0
391968 On ch=1 n=d4 v=109
392030 On ch=1 n=d4 v=0
392032 On ch=1 n=f4 v=109
392094 On ch=1 n=f4 v=0
392096 On ch=1 n=a4 v=109
392112 On ch=2 n=d2 v=0
392112 On ch=2 n=d3 v=0
392158 On ch=1 n=a4 v=0
392160 On ch=1 n=d5 v=127
392160 On ch=1 n=f5 v=127
392160 On ch=1 n=a5 v=127
392160 On ch=2 n=a4 v=112
392222 On ch=1 n=d5 v=0
392222 On ch=1 n=f5 v=0
392222 On ch=1 n=a5 v=0
392222 On ch=2 n=a4 v=0
392224 On ch=1 n=d5 v=109
392224 On ch=1 n=f5 v=109
392224 On ch=1 n=a5 v=109
392224 On ch=2 n=f4 v=112
392286 On ch=1 n=d5 v=0
392286 On ch=1 n=f5 v=0
392286 On ch=1 n=a5 v=0
392286 On ch=2 n=f4 v=0
392288 On ch=1 n=d5 v=109
392288 On ch=1 n=f5 v=109
392288 On ch=1 n=a5 v=109
392288 On ch=2 n=d4 v=112
392350 On ch=1 n=d5 v=0
392350 On ch=1 n=f5 v=0
392350 On ch=1 n=a5 v=0
392350 On ch=2 n=d4 v=0
392352 On ch=1 n=d5 v=109
392352 On ch=1 n=f5 v=109
392352 On ch=1 n=a5 v=109
392352 On ch=2 n=f4 v=112
392414 On ch=2 n=f4 v=0
392416 On ch=2 n=d4 v=112
392478 On ch=2 n=d4 v=0
392480 On ch=2 n=a3 v=112
392512 On ch=1 n=d5 v=0
392512 On ch=1 n=f5 v=0
392512 On ch=1 n=a5 v=0
392542 On ch=2 n=a3 v=0
392544 Par ch=2 c=64 v=0
392544 Par ch=2 c=64 v=127
392544 On ch=2 n=d2 v=127
392544 On ch=2 n=d3 v=127
392672 On ch=1 n=a3 v=111
392734 On ch=1 n=a3 v=0
392736 On ch=1 n=d4 v=111
392798 On ch=1 n=d4 v=0
392800 On ch=1 n=f4 v=111
392862 On ch=1 n=f4 v=0
392864 On ch=1 n=a4 v=111
392880 On ch=2 n=d2 v=0
392880 On ch=2 n=d3 v=0
392926 On ch=1 n=a4 v=0
392928 On ch=1 n=d5 v=127
392928 On ch=1 n=f5 v=127
392928 On ch=1 n=a5 v=127
392928 On ch=2 n=a4 v=115
392990 On ch=1 n=d5 v=0
392990 On ch=1 n=f5 v=0
392990 On ch=1 n=a5 v=0
392990 On ch=2 n=a4 v=0
392992 On ch=1 n=d5 v=111
392992 On ch=1 n=f5 v=111
392992 On ch=1 n=a5 v=111
392992 On ch=2 n=f4 v=115
393054 On ch=1 n=d5 v=0
393054 On ch=1 n=f5 v=0
393054 On ch=1 n=a5 v=0
393054 On ch=2 n=f4 v=0
393056 On ch=1 n=d5 v=111
393056 On ch=1 n=f5 v=111
393056 On ch=1 n=a5 v=111
393056 On ch=2 n=d4 v=115
393118 On ch=1 n=d5 v=0
393118 On ch=1 n=f5 v=0
393118 On ch=1 n=a5 v=0
393118 On ch=2 n=d4 v=0
393120 On ch=1 n=d5 v=112
393120 On ch=1 n=f5 v=112
393120 On ch=1 n=a5 v=112
393120 On ch=2 n=f4 v=115
393182 On ch=2 n=f4 v=0
393184 On ch=2 n=d4 v=115
393246 On ch=2 n=d4 v=0
393248 On ch=2 n=a3 v=115
393280 On ch=1 n=d5 v=0
393280 On ch=1 n=f5 v=0
393280 On ch=1 n=a5 v=0
393310 On ch=2 n=a3 v=0
393312 Par ch=2 c=64 v=0
393312 Par ch=2 c=64 v=127
393312 On ch=1 n=d5 v=127
393312 On ch=1 n=f5 v=127
393312 On ch=1 n=a5 v=127
393312 On ch=2 n=a4 v=115
393374 On ch=1 n=d5 v=0
393374 On ch=1 n=f5 v=0
393374 On ch=1 n=a5 v=0
393374 On ch=2 n=a4 v=0
393376 On ch=1 n=d5 v=116
393376 On ch=1 n=f5 v=116
393376 On ch=1 n=a5 v=116
393376 On ch=2 n=f4 v=116
393438 On ch=1 n=d5 v=0
393438 On ch=1 n=f5 v=0
393438 On ch=1 n=a5 v=0
393438 On ch=2 n=f4 v=0
393440 On ch=1 n=d5 v=117
393440 On ch=1 n=f5 v=117
393440 On ch=1 n=a5 v=117
393440 On ch=2 n=d4 v=117
393502 On ch=1 n=d5 v=0
393502 On ch=1 n=f5 v=0
393502 On ch=1 n=a5 v=0
393502 On ch=2 n=d4 v=0
393504 On ch=1 n=d5 v=118
393504 On ch=1 n=f5 v=118
393504 On ch=1 n=a5 v=118
393504 On ch=2 n=f4 v=118
393566 On ch=2 n=f4 v=0
393568 On ch=2 n=d4 v=119
393630 On ch=2 n=d4 v=0
393632 On ch=2 n=a3 v=120
393664 On ch=1 n=d5 v=0
393664 On ch=1 n=f5 v=0
393664 On ch=1 n=a5 v=0
393694 On ch=2 n=a3 v=0
393696 On ch=1 n=d5 v=127
393696 On ch=1 n=f5 v=127
393696 On ch=1 n=a5 v=127
393696 On ch=2 n=a4 v=121
393758 On ch=1 n=d5 v=0
393758 On ch=1 n=f5 v=0
393758 On ch=1 n=a5 v=0
393758 On ch=2 n=a4 v=0
393760 On ch=1 n=d5 v=122
393760 On ch=1 n=f5 v=122
393760 On ch=1 n=a5 v=122
393760 On ch=2 n=f4 v=122
393822 On ch=1 n=d5 v=0
393822 On ch=1 n=f5 v=0
393822 On ch=1 n=a5 v=0
393822 On ch=2 n=f4 v=0
393824 On ch=1 n=d5 v=123
393824 On ch=1 n=f5 v=123
393824 On ch=1 n=a5 v=123
393824 On ch=2 n=d4 v=123
393886 On ch=1 n=d5 v=0
393886 On ch=1 n=f5 v=0
393886 On ch=1 n=a5 v=0
393886 On ch=2 n=d4 v=0
393888 On ch=1 n=d5 v=124
393888 On ch=1 n=f5 v=124
393888 On ch=1 n=a5 v=124
393888 On ch=2 n=f4 v=124
393950 On ch=2 n=f4 v=0
393952 On ch=2 n=d4 v=125
394014 On ch=2 n=d4 v=0
394016 On ch=2 n=a3 v=126
394048 On ch=1 n=d5 v=0
394048 On ch=1 n=f5 v=0
394048 On ch=1 n=a5 v=0
394078 On ch=2 n=a3 v=0
394080 Par ch=2 c=64 v=0
394080 Par ch=2 c=64 v=127
394080 On ch=1 n=a#4 v=127
394080 On ch=1 n=d5 v=127
394080 On ch=1 n=f5 v=127
394080 On ch=1 n=a#5 v=127
394080 On ch=2 n=a#1 v=127
394080 On ch=2 n=a#2 v=127
394102 On ch=2 n=a#1 v=0
394102 On ch=2 n=a#2 v=0
394104 On ch=2 n=f3 v=127
394104 On ch=2 n=f4 v=127
394104 On ch=2 n=d4 v=127
394104 On ch=2 n=a#3 v=127
394416 On ch=1 n=a#5 v=0
394416 On ch=1 n=f5 v=0
394416 On ch=1 n=d5 v=0
394416 On ch=1 n=a#4 v=0
394432 On ch=2 n=f4 v=0
394432 On ch=2 n=d4 v=0
394432 On ch=2 n=a#3 v=0
394432 On ch=2 n=f3 v=0
394464 On ch=2 n=a#2 v=127
394464 On ch=2 n=a#1 v=127
394464 On ch=1 n=a#5 v=127
394464 On ch=1 n=f5 v=127
394464 On ch=1 n=d5 v=127
394464 On ch=1 n=a#4 v=127
394486 On ch=2 n=a#2 v=0
394486 On ch=2 n=a#1 v=0
394488 On ch=2 n=a#3 v=127
394488 On ch=2 n=d4 v=127
394488 On ch=2 n=f4 v=127
394488 On ch=2 n=f3 v=127
394800 On ch=1 n=a#5 v=0
394800 On ch=1 n=f5 v=0
394800 On ch=1 n=d5 v=0
394800 On ch=1 n=a#4 v=0
394816 On ch=2 n=f3 v=0
394816 On ch=2 n=a#3 v=0
394816 On ch=2 n=d4 v=0
394816 On ch=2 n=f4 v=0
394848 Par ch=2 c=64 v=0
394848 Par ch=2 c=64 v=127
394848 On ch=1 n=a#4 v=127
394848 On ch=1 n=d5 v=127
394848 On ch=1 n=f5 v=127
394848 On ch=1 n=a#5 v=127
394848 On ch=2 n=a#1 v=127
394848 On ch=2 n=a#2 v=127
394870 On ch=2 n=a#1 v=0
394870 On ch=2 n=a#2 v=0
394872 On ch=2 n=f3 v=127
394872 On ch=2 n=a#3 v=127
394872 On ch=2 n=d4 v=127
394872 On ch=2 n=f4 v=127
395184 On ch=1 n=a#4 v=0
395184 On ch=1 n=d5 v=0
395184 On ch=1 n=f5 v=0
395184 On ch=1 n=a#5 v=0
395200 On ch=2 n=f3 v=0
395200 On ch=2 n=a#3 v=0
395200 On ch=2 n=d4 v=0
395200 On ch=2 n=f4 v=0
395232 On ch=1 n=a#4 v=127
395232 On ch=1 n=d5 v=127
395232 On ch=1 n=f5 v=127
395232 On ch=1 n=a#5 v=127
395232 On ch=2 n=a#1 v=127
395232 On ch=2 n=a#2 v=127
395254 On ch=2 n=a#1 v=0
395254 On ch=2 n=a#2 v=0
395256 On ch=2 n=f3 v=127
395256 On ch=2 n=a#3 v=127
395256 On ch=2 n=d4 v=127
395256 On ch=2 n=f4 v=127
395568 On ch=1 n=a#4 v=0
395568 On ch=1 n=d5 v=0
395568 On ch=1 n=f5 v=0
395568 On ch=1 n=a#5 v=0
395584 On ch=2 n=f3 v=0
395584 On ch=2 n=a#3 v=0
395584 On ch=2 n=d4 v=0
395584 On ch=2 n=f4 v=0
395616 Par ch=2 c=64 v=0
395616 Par ch=2 c=64 v=127
395616 On ch=1 n=a#4 v=127
395616 On ch=1 n=d5 v=127
395616 On ch=1 n=f5 v=127
395616 On ch=1 n=a#5 v=127
395616 On ch=2 n=a#1 v=127
395616 On ch=2 n=a#2 v=127
395638 On ch=2 n=a#1 v=0
395638 On ch=2 n=a#2 v=0
395640 On ch=2 n=f3 v=127
395640 On ch=2 n=a#3 v=127
395640 On ch=2 n=d4 v=127
395640 On ch=2 n=f4 v=127
395776 On ch=1 n=a#4 v=0
395776 On ch=1 n=d5 v=0
395776 On ch=1 n=f5 v=0
395776 On ch=1 n=a#5 v=0
395806 On ch=2 n=f3 v=0
395806 On ch=2 n=a#3 v=0
395806 On ch=2 n=d4 v=0
395806 On ch=2 n=f4 v=0
395808 On ch=1 n=a4 v=127
395808 On ch=1 n=d5 v=127
395808 On ch=1 n=f5 v=127
395808 On ch=1 n=a5 v=127
395808 On ch=2 n=f3 v=127
395808 On ch=2 n=a3 v=127
395808 On ch=2 n=d4 v=127
395808 On ch=2 n=f4 v=127
395968 On ch=1 n=a4 v=0
395968 On ch=1 n=d5 v=0
395968 On ch=1 n=f5 v=0
395968 On ch=1 n=a5 v=0
395968 On ch=2 n=f3 v=0
395968 On ch=2 n=a3 v=0
395968 On ch=2 n=d4 v=0
395968 On ch=2 n=f4 v=0
396000 On ch=1 n=a#4 v=127
396000 On ch=1 n=d5 v=127
396000 On ch=1 n=f5 v=127
396000 On ch=1 n=a#5 v=127
396000 On ch=2 n=f3 v=127
396000 On ch=2 n=a#3 v=127
396000 On ch=2 n=d4 v=127
396000 On ch=2 n=f4 v=127
396384 Par ch=2 c=64 v=0
396544 On ch=1 n=a#4 v=0
396544 On ch=1 n=d5 v=0
396544 On ch=1 n=f5 v=0
396544 On ch=1 n=a#5 v=0
396544 On ch=2 n=f3 v=0
396544 On ch=2 n=a#3 v=0
396544 On ch=2 n=d4 v=0
396544 On ch=2 n=f4 v=0
396576 Par ch=2 c=64 v=127
396576 On ch=1 n=c5 v=127
396576 On ch=1 n=d5 v=127
396576 On ch=1 n=f5 v=127
396576 On ch=1 n=c6 v=127
396576 On ch=2 n=g2 v=127
396576 On ch=2 n=g3 v=127
396598 On ch=2 n=g2 v=0
396598 On ch=2 n=g3 v=0
396600 On ch=2 n=g3 v=127
396600 On ch=2 n=c4 v=127
396600 On ch=2 n=g4 v=127
396912 On ch=1 n=c5 v=0
396912 On ch=1 n=d5 v=0
396912 On ch=1 n=f5 v=0
396912 On ch=1 n=c6 v=0
396928 On ch=2 n=g3 v=0
396928 On ch=2 n=c4 v=0
396928 On ch=2 n=g4 v=0
396960 On ch=1 n=d5 v=127
396960 On ch=1 n=d6 v=127
396960 On ch=2 n=d4 v=127
397120 On ch=1 n=d5 v=0
397120 On ch=1 n=d6 v=0
397120 On ch=2 n=d4 v=0
397152 Par ch=2 c=64 v=0
397152 Par ch=2 c=64 v=127
397152 On ch=1 n=c5 v=127
397152 On ch=1 n=e5 v=127
397152 On ch=1 n=g5 v=127
397152 On ch=1 n=c6 v=127
397152 On ch=2 n=c2 v=127
397152 On ch=2 n=c3 v=127
397174 On ch=2 n=c2 v=0
397174 On ch=2 n=c3 v=0
397176 On ch=2 n=g3 v=127
397176 On ch=2 n=c4 v=127
397176 On ch=2 n=e4 v=127
397488 On ch=1 n=c5 v=0
397488 On ch=1 n=e5 v=0
397488 On ch=1 n=g5 v=0
397488 On ch=1 n=c6 v=0
397504 On ch=2 n=g3 v=0
397504 On ch=2 n=c4 v=0
397504 On ch=2 n=e4 v=0
397536 On ch=1 n=c#5 v=127
397536 On ch=1 n=e5 v=127
397536 On ch=1 n=g5 v=127
397536 On ch=1 n=a#5 v=127
397536 On ch=1 n=c#6 v=127
397536 On ch=2 n=g2 v=127
397536 On ch=2 n=g3 v=127
397558 On ch=2 n=g2 v=0
397558 On ch=2 n=g3 v=0
397560 On ch=2 n=c#4 v=127
397560 On ch=2 n=e4 v=127
397560 On ch=2 n=g4 v=127
397560 On ch=2 n=a#4 v=127
397872 On ch=1 n=e5 v=0
397872 On ch=1 n=g5 v=0
397872 On ch=1 n=a#5 v=0
397888 On ch=2 n=c#4 v=0
397888 On ch=2 n=e4 v=0
397888 On ch=2 n=g4 v=0
397888 On ch=2 n=a#4 v=0
397920 Par ch=2 c=64 v=0
397920 Par ch=2 c=64 v=127
397920 On ch=1 n=f5 v=127
397920 On ch=1 n=a5 v=127
397920 On ch=2 n=f4 v=127
397920 On ch=2 n=a4 v=127
398256 On ch=1 n=c#5 v=0
398256 On ch=1 n=f5 v=0
398256 On ch=1 n=a5 v=0
398256 On ch=1 n=c#6 v=0
398256 On ch=2 n=f4 v=0
398256 On ch=2 n=a4 v=0
398304 On ch=1 n=c#5 v=127
398304 On ch=1 n=e5 v=127
398304 On ch=1 n=g5 v=127
398304 On ch=2 n=a2 v=127
398304 On ch=2 n=a3 v=127
398326 On ch=2 n=a2 v=0
398326 On ch=2 n=a3 v=0
398328 On ch=2 n=e4 v=127
398328 On ch=2 n=g4 v=127
398464 On ch=1 n=c#5 v=0
398464 On ch=1 n=e5 v=0
398464 On ch=1 n=g5 v=0
398494 On ch=2 n=e4 v=0
398494 On ch=2 n=g4 v=0
398496 On ch=1 n=d5 v=127
398496 On ch=1 n=d6 v=127
398496 On ch=2 n=d4 v=127
398656 On ch=1 n=d5 v=0
398656 On ch=1 n=d6 v=0
398656 On ch=2 n=d4 v=0
398688 Par ch=2 c=64 v=0
398688 Par ch=2 c=64 v=127
398688 On ch=1 n=d5 v=127
398688 On ch=1 n=f5 v=127
398688 On ch=1 n=a5 v=127
398688 On ch=1 n=d6 v=127
398688 On ch=2 n=d2 v=127
398688 On ch=2 n=d3 v=127
398710 On ch=2 n=d2 v=0
398710 On ch=2 n=d3 v=0
398712 On ch=2 n=a3 v=127
398712 On ch=2 n=d4 v=127
398712 On ch=2 n=f4 v=127
398880 On ch=1 n=d4 v=127
398880 On ch=2 n=d3 v=127
398942 On ch=1 n=d4 v=0
398942 On ch=2 n=d3 v=0
398944 On ch=1 n=a4 v=127
398944 On ch=2 n=a3 v=127
399006 On ch=1 n=a4 v=0
399006 On ch=2 n=a3 v=0
399008 On ch=1 n=d4 v=127
399008 On ch=2 n=d3 v=127
399070 On ch=1 n=d4 v=0
399070 On ch=2 n=d3 v=0
399072 On ch=1 n=a4 v=127
399072 On ch=2 n=a3 v=127
399134 On ch=1 n=a4 v=0
399134 On ch=2 n=a3 v=0
399136 On ch=1 n=d5 v=127
399136 On ch=2 n=d4 v=127
399198 On ch=1 n=d5 v=0
399198 On ch=2 n=d4 v=0
399200 On ch=1 n=a4 v=127
399200 On ch=2 n=a3 v=127
399262 On ch=1 n=a4 v=0
399262 On ch=2 n=a3 v=0
399264 On ch=1 n=d5 v=127
399264 On ch=2 n=d4 v=127
399326 On ch=1 n=d5 v=0
399328 On ch=1 n=a5 v=127
399390 On ch=1 n=a5 v=0
399390 On ch=2 n=d4 v=0
399392 On ch=1 n=d5 v=127
399392 On ch=2 n=d2 v=127
399392 On ch=2 n=d3 v=127
399408 On ch=1 n=d5 v=0
399408 On ch=1 n=f5 v=0
399408 On ch=1 n=a5 v=0
399408 On ch=1 n=d6 v=0
399408 On ch=2 n=a3 v=0
399408 On ch=2 n=d4 v=0
399408 On ch=2 n=f4 v=0
399454 On ch=1 n=d5 v=0
399454 On ch=2 n=d2 v=0
399454 On ch=2 n=d3 v=0
399456 Par ch=2 c=64 v=0
399456 Par ch=2 c=64 v=127
399456 On ch=1 n=d5 v=127
399456 On ch=1 n=f5 v=127
399456 On ch=1 n=a5 v=127
399456 On ch=1 n=d6 v=127
399456 On ch=2 n=a3 v=127
399456 On ch=2 n=d4 v=127
399456 On ch=2 n=f4 v=127
399648 On ch=1 n=d4 v=127
399648 On ch=2 n=d3 v=127
399710 On ch=1 n=d4 v=0
399710 On ch=2 n=d3 v=0
399712 On ch=1 n=a4 v=127
399712 On ch=2 n=a3 v=127
399774 On ch=1 n=a4 v=0
399774 On ch=2 n=a3 v=0
399776 On ch=1 n=d4 v=127
399776 On ch=2 n=d3 v=127
399838 On ch=1 n=d4 v=0
399838 On ch=2 n=d3 v=0
399840 On ch=1 n=a4 v=127
399840 On ch=2 n=a3 v=127
399902 On ch=1 n=a4 v=0
399902 On ch=2 n=a3 v=0
399904 On ch=1 n=d5 v=127
399904 On ch=2 n=d4 v=127
399966 On ch=1 n=d5 v=0
399966 On ch=2 n=d4 v=0
399968 On ch=1 n=a4 v=127
399968 On ch=2 n=a3 v=127
400030 On ch=1 n=a4 v=0
400030 On ch=2 n=a3 v=0
400032 On ch=1 n=d5 v=127
400032 On ch=2 n=d4 v=127
400094 On ch=1 n=d5 v=0
400096 On ch=1 n=a5 v=127
400158 On ch=1 n=a5 v=0
400158 On ch=2 n=d4 v=0
400160 On ch=1 n=d5 v=127
400160 On ch=2 n=d2 v=127
400160 On ch=2 n=d3 v=127
400176 On ch=1 n=d5 v=0
400176 On ch=1 n=f5 v=0
400176 On ch=1 n=a5 v=0
400176 On ch=1 n=d6 v=0
400176 On ch=2 n=a3 v=0
400176 On ch=2 n=d4 v=0
400176 On ch=2 n=f4 v=0
400222 On ch=1 n=d5 v=0
400222 On ch=2 n=d2 v=0
400222 On ch=2 n=d3 v=0
400224 Par ch=2 c=64 v=0
400224 Par ch=2 c=64 v=127
400224 On ch=1 n=d5 v=127
400224 On ch=1 n=f5 v=127
400224 On ch=1 n=a5 v=127
400224 On ch=1 n=d6 v=127
400224 On ch=2 n=a3 v=127
400224 On ch=2 n=d4 v=127
400224 On ch=2 n=f4 v=127
400416 On ch=1 n=d4 v=127
400416 On ch=2 n=d3 v=127
400478 On ch=1 n=d4 v=0
400478 On ch=2 n=d3 v=0
400480 On ch=1 n=a4 v=127
400480 On ch=2 n=a3 v=127
400542 On ch=1 n=a4 v=0
400542 On ch=2 n=a3 v=0
400544 On ch=1 n=d4 v=127
400544 On ch=2 n=d3 v=127
400606 On ch=1 n=d4 v=0
400606 On ch=2 n=d3 v=0
400608 On ch=1 n=a4 v=127
400608 On ch=2 n=a3 v=127
400670 On ch=1 n=a4 v=0
400670 On ch=2 n=a3 v=0
400672 On ch=1 n=d5 v=127
400672 On ch=2 n=d4 v=127
400734 On ch=1 n=d5 v=0
400734 On ch=2 n=d4 v=0
400736 On ch=1 n=a4 v=127
400736 On ch=2 n=a3 v=127
400798 On ch=1 n=a4 v=0
400798 On ch=2 n=a3 v=0
400800 On ch=1 n=d5 v=127
400800 On ch=2 n=d4 v=127
400862 On ch=1 n=d5 v=0
400864 On ch=1 n=a5 v=127
400926 On ch=1 n=a5 v=0
400926 On ch=2 n=d4 v=0
400928 On ch=1 n=d5 v=127
400928 On ch=2 n=d2 v=127
400928 On ch=2 n=d3 v=127
400944 On ch=1 n=d5 v=0
400944 On ch=1 n=f5 v=0
400944 On ch=1 n=a5 v=0
400944 On ch=1 n=d6 v=0
400944 On ch=2 n=a3 v=0
400944 On ch=2 n=d4 v=0
400944 On ch=2 n=f4 v=0
400990 On ch=1 n=d5 v=0
400990 On ch=2 n=d2 v=0
400990 On ch=2 n=d3 v=0
400992 Par ch=2 c=64 v=0
400992 Par ch=2 c=64 v=127
400992 On ch=1 n=d5 v=127
400992 On ch=1 n=f5 v=127
400992 On ch=1 n=a5 v=127
400992 On ch=1 n=d6 v=127
400992 On ch=2 n=a3 v=127
400992 On ch=2 n=d4 v=127
400992 On ch=2 n=f4 v=127
401120 On ch=1 n=a5 v=127
401120 On ch=2 n=a3 v=127
401182 On ch=1 n=a5 v=0
401182 On ch=2 n=a3 v=0
401184 On ch=1 n=d6 v=127
401184 On ch=2 n=d4 v=127
401246 On ch=1 n=d6 v=0
401246 On ch=2 n=d4 v=0
401248 On ch=1 n=a6 v=127
401248 On ch=2 n=a4 v=127
401310 On ch=1 n=a6 v=0
401310 On ch=2 n=a4 v=0
401312 On ch=1 n=d6 v=127
401312 On ch=2 n=d4 v=127
401374 On ch=1 n=d6 v=0
401374 On ch=2 n=d4 v=0
401376 On ch=1 n=a6 v=127
401376 On ch=2 n=a4 v=127
401438 On ch=1 n=a6 v=0
401438 On ch=2 n=a4 v=0
401440 On ch=1 n=d7 v=127
401440 On ch=2 n=d5 v=127
401502 On ch=1 n=d7 v=0
401502 On ch=2 n=d5 v=0
401504 On ch=1 n=a6 v=127
401504 On ch=2 n=a4 v=127
401566 On ch=1 n=a6 v=0
401566 On ch=2 n=a4 v=0
401568 On ch=1 n=d7 v=127
401568 On ch=2 n=d5 v=127
401630 On ch=1 n=d7 v=0
401630 On ch=2 n=d5 v=0
401632 On ch=1 n=a7 v=127
401632 On ch=2 n=a5 v=127
401694 On ch=1 n=a7 v=0
401694 On ch=2 n=a5 v=0
401696 On ch=1 n=d7 v=127
401696 On ch=2 n=d5 v=127
401712 On ch=1 n=d5 v=0
401712 On ch=1 n=f5 v=0
401712 On ch=1 n=a5 v=0
401712 On ch=1 n=d6 v=0
401712 On ch=2 n=a3 v=0
401712 On ch=2 n=d4 v=0
401712 On ch=2 n=f4 v=0
401758 On ch=1 n=d7 v=0
401758 On ch=2 n=d5 v=0
401760 Par ch=2 c=64 v=0
401760 Par ch=2 c=64 v=127
401760 On ch=1 n=d7 v=127
401760 On ch=1 n=d8 v=127
401760 On ch=2 n=d5 v=127
401760 On ch=2 n=d6 v=127
402096 On ch=1 n=d7 v=0
402096 On ch=1 n=d8 v=0
402096 On ch=2 n=d5 v=0
402096 On ch=2 n=d6 v=0
402144 On ch=1 n=e6 v=127
402144 On ch=1 n=e7 v=127
402144 On ch=2 n=e4 v=127
402144 On ch=2 n=e5 v=127
402480 On ch=1 n=e6 v=0
402480 On ch=1 n=e7 v=0
402480 On ch=2 n=e4 v=0
402480 On ch=2 n=e5 v=0
402528 Par ch=2 c=64 v=0
402528 Par ch=2 c=64 v=127
402528 On ch=1 n=g5 v=127
402528 On ch=1 n=g6 v=127
402528 On ch=2 n=g3 v=127
402528 On ch=2 n=g4 v=127
402688 On ch=1 n=g5 v=0
402688 On ch=1 n=g6 v=0
402688 On ch=2 n=g3 v=0
402688 On ch=2 n=g4 v=0
402720 On ch=1 n=a4 v=127
402720 On ch=1 n=a5 v=127
402720 On ch=2 n=a2 v=127
402720 On ch=2 n=a3 v=127
403056 On ch=1 n=a4 v=0
403056 On ch=1 n=a5 v=0
403056 On ch=2 n=a2 v=0
403056 On ch=2 n=a3 v=0
403104 On ch=1 n=a5 v=127
403104 On ch=1 n=a6 v=127
403104 On ch=2 n=a3 v=127
403104 On ch=2 n=a4 v=127
403264 On ch=1 n=a5 v=0
403264 On ch=1 n=a6 v=0
403264 On ch=2 n=a3 v=0
403264 On ch=2 n=a4 v=0
403296 Par ch=2 c=64 v=0
403296 Par ch=1 c=64 v=127
403296 Par ch=2 c=64 v=127
403296 On ch=1 n=d4 v=127
403296 On ch=1 n=d5 v=127
403296 On ch=2 n=d2 v=127
403296 On ch=2 n=d3 v=127
403584 On ch=1 n=d6 v=127
403584 On ch=1 n=f6 v=127
403584 On ch=1 n=a6 v=127
403584 On ch=1 n=d7 v=127
403584 On ch=2 n=f4 v=127
403584 On ch=2 n=a4 v=127
403584 On ch=2 n=d5 v=127
403584 On ch=2 n=f5 v=127
403678 On ch=1 n=d6 v=0
403678 On ch=1 n=f6 v=0
403678 On ch=1 n=a6 v=0
403678 On ch=1 n=d7 v=0
403678 On ch=2 n=f4 v=0
403678 On ch=2 n=a4 v=0
403678 On ch=2 n=d5 v=0
403678 On ch=2 n=f5 v=0
403680 On ch=1 n=d6 v=127
403680 On ch=1 n=f6 v=127
403680 On ch=1 n=a6 v=127
403680 On ch=1 n=d7 v=127
403680 On ch=2 n=f4 v=127
403680 On ch=2 n=a4 v=127
403680 On ch=2 n=d5 v=127
403680 On ch=2 n=f5 v=127
404016 On ch=1 n=d4 v=0
404016 On ch=1 n=d5 v=0
404016 On ch=2 n=d2 v=0
404016 On ch=2 n=d3 v=0
404016 On ch=1 n=d6 v=0
404016 On ch=1 n=f6 v=0
404016 On ch=1 n=a6 v=0
404016 On ch=1 n=d7 v=0
404016 On ch=2 n=f4 v=0
404016 On ch=2 n=a4 v=0
404016 On ch=2 n=d5 v=0
404016 On ch=2 n=f5 v=0
404832 Par ch=1 c=64 v=0
404832 Par ch=2 c=64 v=0
404832 Meta TrkEnd
TrkEnd
