MFile 1 9 480
MTrk
0 SMPTE 96 0 0 0 0
0 Tempo 582524
0 TimeSig 4/4 24 8
9600 Tempo 600000
11520 Tempo 300000
15360 Tempo 576923
80640 Tempo 300000
88320 Tempo 576923
105600 Tempo 705882
107520 Tempo 576923
210304 Tempo 689655
211200 Tempo 292682
215040 Tempo 576923
270720 Tempo 315789
278400 Tempo 576923
297600 Tempo 292682
299520 Tempo 576923
303362 Tempo 652173
326386 Tempo 1304347
404162 Tempo 1500000
405602 Tempo 1875000
407042 Tempo 2000000
408484 Tempo 239043
509284 Tempo 300000
511204 Tempo 400000
513604 Tempo 239043
544324 Tempo 300000
547204 Tempo 239043
607268 Tempo 300000
609124 Tempo 400000
611524 Tempo 239043
642244 Tempo 300000
645124 Tempo 239043
675364 Tempo 392156
675364 Meta TrkEnd
TrkEnd
MTrk
0 SeqSpec 43 00 01 00
0 Meta TrkName "Piano Sonata No.23 in C (The"
0 Meta 0x21 00
0 PrCh ch=1 p=0
0 PrCh ch=1 p=0
0 Par ch=1 c=7 v=127
2 On ch=1 n=c6 v=36
120 On ch=1 n=c6 v=0
482 On ch=1 n=g5 v=36
598 On ch=1 n=g5 v=0
962 On ch=1 n=e5 v=36
1078 On ch=1 n=e5 v=0
1682 On ch=1 n=a5 v=36
1798 On ch=1 n=a5 v=0
1922 On ch=1 n=d5 v=36
2038 On ch=1 n=d5 v=0
2642 On ch=1 n=g5 v=36
2758 On ch=1 n=g5 v=0
2882 On ch=1 n=c5 v=36
2998 On ch=1 n=c5 v=0
3602 On ch=1 n=e6 v=36
3838 On ch=1 n=e6 v=0
3840 On ch=1 n=f5 v=36
3958 On ch=1 n=f5 v=0
4562 On ch=1 n=d6 v=36
4798 On ch=1 n=d6 v=0
4800 On ch=1 n=e5 v=36
4918 On ch=1 n=e5 v=0
5522 On ch=1 n=c6 v=29
5758 On ch=1 n=c6 v=0
5760 On ch=1 n=d5 v=29
5998 On ch=1 n=d5 v=0
6000 On ch=1 n=a5 v=29
6238 On ch=1 n=a5 v=0
6240 On ch=1 n=a4 v=29
6478 On ch=1 n=a4 v=0
6480 On ch=1 n=b4 v=29
6718 On ch=1 n=b4 v=0
6720 On ch=1 n=d5 v=29
6958 On ch=1 n=d5 v=0
6960 On ch=1 n=c5 v=29
7198 On ch=1 n=c5 v=0
7442 On ch=1 n=d5 v=36
7558 On ch=1 n=d5 v=0
7682 On ch=1 n=f5 v=36
7918 On ch=1 n=f5 v=0
7920 On ch=1 n=e5 v=36
8158 On ch=1 n=e5 v=0
8402 On ch=1 n=f5 v=47
8518 On ch=1 n=f5 v=0
8642 On ch=1 n=a5 v=47
8878 On ch=1 n=a5 v=0
8880 On ch=1 n=g5 v=47
9118 On ch=1 n=g5 v=0
9362 On ch=1 n=b5 v=63
9478 On ch=1 n=b5 v=0
9602 On ch=1 n=d6 v=63
9838 On ch=1 n=d6 v=0
9840 On ch=1 n=c6 v=63
10078 On ch=1 n=c6 v=0
10322 On ch=1 n=d6 v=63
10438 On ch=1 n=d6 v=0
10562 On ch=1 n=f6 v=81
11038 On ch=1 n=f6 v=0
11040 On ch=1 n=e6 v=39
11278 On ch=1 n=e6 v=0
11802 On ch=1 n=c7 v=81
11998 On ch=1 n=c7 v=0
12722 On ch=1 n=g6 v=81
12958 On ch=1 n=g6 v=0
13682 On ch=1 n=e6 v=81
13918 On ch=1 n=e6 v=0
14882 On ch=1 n=b6 v=81
14998 On ch=1 n=b6 v=0
15000 On ch=1 n=a6 v=81
15118 On ch=1 n=a6 v=0
15120 On ch=1 n=g#6 v=81
15238 On ch=1 n=g#6 v=0
15240 On ch=1 n=a6 v=81
15358 On ch=1 n=a6 v=0
15360 On ch=1 n=d6 v=81
15478 On ch=1 n=d6 v=0
16082 On ch=1 n=a6 v=81
16138 On ch=1 n=a6 v=0
16140 On ch=1 n=g6 v=81
16198 On ch=1 n=g6 v=0
16200 On ch=1 n=f#6 v=81
16258 On ch=1 n=f#6 v=0
16260 On ch=1 n=g6 v=81
16318 On ch=1 n=g6 v=0
16320 On ch=1 n=c6 v=81
16438 On ch=1 n=c6 v=0
17042 On ch=1 n=e7 v=63
17278 On ch=1 n=e7 v=0
17280 On ch=1 n=f6 v=63
17398 On ch=1 n=f6 v=0
18002 On ch=1 n=d7 v=63
18238 On ch=1 n=d7 v=0
18240 On ch=1 n=e6 v=63
18358 On ch=1 n=e6 v=0
18962 On ch=1 n=c7 v=81
19198 On ch=1 n=c7 v=0
19200 On ch=1 n=d6 v=81
19438 On ch=1 n=d6 v=0
19440 On ch=1 n=a6 v=63
19678 On ch=1 n=a6 v=0
19680 On ch=1 n=g6 v=63
19918 On ch=1 n=g6 v=0
19920 On ch=1 n=b5 v=63
20158 On ch=1 n=b5 v=0
20160 On ch=1 n=c6 v=47
20278 On ch=1 n=c6 v=0
20402 On ch=1 n=c6 v=47
20518 On ch=1 n=c6 v=0
20882 On ch=1 n=a6 v=63
20938 On ch=1 n=a6 v=0
20940 On ch=1 n=g6 v=63
20998 On ch=1 n=g6 v=0
21000 On ch=1 n=f#6 v=63
21058 On ch=1 n=f#6 v=0
21060 On ch=1 n=g6 v=63
21118 On ch=1 n=g6 v=0
21120 On ch=1 n=b5 v=63
21238 On ch=1 n=b5 v=0
21362 On ch=1 n=b5 v=63
21478 On ch=1 n=b5 v=0
21842 On ch=1 n=a6 v=39
21898 On ch=1 n=a6 v=0
21900 On ch=1 n=g6 v=39
21958 On ch=1 n=g6 v=0
21960 On ch=1 n=f#6 v=39
22018 On ch=1 n=f#6 v=0
22020 On ch=1 n=g6 v=39
22078 On ch=1 n=g6 v=0
22080 On ch=1 n=c7 v=39
22318 On ch=1 n=c7 v=0
22320 On ch=1 n=e7 v=39
22558 On ch=1 n=e7 v=0
22682 On ch=1 n=g6 v=63
22738 On ch=1 n=g6 v=0
22802 On ch=1 n=a6 v=63
22858 On ch=1 n=a6 v=0
22860 On ch=1 n=g6 v=63
22918 On ch=1 n=g6 v=0
22920 On ch=1 n=f#6 v=63
22978 On ch=1 n=f#6 v=0
22980 On ch=1 n=g6 v=63
23038 On ch=1 n=g6 v=0
23040 On ch=1 n=b5 v=63
23158 On ch=1 n=b5 v=0
23282 On ch=1 n=b5 v=63
23398 On ch=1 n=b5 v=0
23642 On ch=1 n=g6 v=39
23698 On ch=1 n=g6 v=0
23762 On ch=1 n=a6 v=39
23818 On ch=1 n=a6 v=0
23820 On ch=1 n=g6 v=39
23878 On ch=1 n=g6 v=0
23880 On ch=1 n=f#6 v=39
23938 On ch=1 n=f#6 v=0
23940 On ch=1 n=g6 v=39
23998 On ch=1 n=g6 v=0
24000 On ch=1 n=c7 v=39
24238 On ch=1 n=c7 v=0
24240 On ch=1 n=e7 v=39
24478 On ch=1 n=e7 v=0
24602 On ch=1 n=g6 v=39
24658 On ch=1 n=g6 v=0
24722 On ch=1 n=a6 v=39
24778 On ch=1 n=a6 v=0
24780 On ch=1 n=g6 v=39
24838 On ch=1 n=g6 v=0
24840 On ch=1 n=f#6 v=39
24898 On ch=1 n=f#6 v=0
24900 On ch=1 n=g6 v=39
24958 On ch=1 n=g6 v=0
24960 On ch=1 n=b5 v=39
25078 On ch=1 n=b5 v=0
25202 On ch=1 n=b5 v=39
25318 On ch=1 n=b5 v=0
25682 On ch=1 n=a6 v=47
25738 On ch=1 n=a6 v=0
25740 On ch=1 n=g6 v=47
25798 On ch=1 n=g6 v=0
25800 On ch=1 n=f#6 v=47
25858 On ch=1 n=f#6 v=0
25860 On ch=1 n=g6 v=47
25918 On ch=1 n=g6 v=0
25920 On ch=1 n=c6 v=47
26038 On ch=1 n=c6 v=0
26162 On ch=1 n=a6 v=47
26218 On ch=1 n=a6 v=0
26220 On ch=1 n=g6 v=47
26278 On ch=1 n=g6 v=0
26280 On ch=1 n=f#6 v=47
26338 On ch=1 n=f#6 v=0
26340 On ch=1 n=g6 v=47
26398 On ch=1 n=g6 v=0
26400 On ch=1 n=d6 v=47
26518 On ch=1 n=d6 v=0
26642 On ch=1 n=a6 v=47
26698 On ch=1 n=a6 v=0
26700 On ch=1 n=g6 v=47
26758 On ch=1 n=g6 v=0
26760 On ch=1 n=f#6 v=47
26818 On ch=1 n=f#6 v=0
26820 On ch=1 n=g6 v=47
26878 On ch=1 n=g6 v=0
26880 On ch=1 n=e6 v=47
26998 On ch=1 n=e6 v=0
27122 On ch=1 n=a6 v=63
27178 On ch=1 n=a6 v=0
27180 On ch=1 n=g6 v=63
27238 On ch=1 n=g6 v=0
27240 On ch=1 n=f#6 v=63
27298 On ch=1 n=f#6 v=0
27300 On ch=1 n=g6 v=63
27358 On ch=1 n=g6 v=0
27360 On ch=1 n=b5 v=63
27478 On ch=1 n=b5 v=0
27602 On ch=1 n=a6 v=63
27658 On ch=1 n=a6 v=0
27660 On ch=1 n=g6 v=63
27718 On ch=1 n=g6 v=0
27720 On ch=1 n=f#6 v=63
27778 On ch=1 n=f#6 v=0
27780 On ch=1 n=g6 v=63
27838 On ch=1 n=g6 v=0
27840 On ch=1 n=c6 v=63
27958 On ch=1 n=c6 v=0
28082 On ch=1 n=a6 v=63
28138 On ch=1 n=a6 v=0
28140 On ch=1 n=g6 v=63
28198 On ch=1 n=g6 v=0
28200 On ch=1 n=f#6 v=63
28258 On ch=1 n=f#6 v=0
28260 On ch=1 n=g6 v=63
28318 On ch=1 n=g6 v=0
28320 On ch=1 n=d6 v=63
28438 On ch=1 n=d6 v=0
28562 On ch=1 n=a6 v=63
28618 On ch=1 n=a6 v=0
28620 On ch=1 n=g6 v=63
28678 On ch=1 n=g6 v=0
28680 On ch=1 n=f#6 v=63
28738 On ch=1 n=f#6 v=0
28740 On ch=1 n=g6 v=63
28798 On ch=1 n=g6 v=0
28800 On ch=1 n=e6 v=81
29038 On ch=1 n=e6 v=0
29402 On ch=1 n=e6 v=81
29518 On ch=1 n=e6 v=0
29520 On ch=1 n=g6 v=81
29638 On ch=1 n=g6 v=0
29640 On ch=1 n=c7 v=81
29758 On ch=1 n=c7 v=0
29760 On ch=1 n=e7 v=81
30118 On ch=1 n=e7 v=0
30120 On ch=1 n=d7 v=81
30238 On ch=1 n=d7 v=0
30240 On ch=1 n=c7 v=81
30358 On ch=1 n=c7 v=0
30360 On ch=1 n=b6 v=81
30478 On ch=1 n=b6 v=0
30480 On ch=1 n=a6 v=81
30598 On ch=1 n=a6 v=0
30600 On ch=1 n=g6 v=81
30718 On ch=1 n=g6 v=0
30720 On ch=1 n=f6 v=81
31438 On ch=1 n=f6 v=0
31440 On ch=1 n=e6 v=63
31678 On ch=1 n=e6 v=0
31680 On ch=1 n=d6 v=63
31918 On ch=1 n=d6 v=0
32042 On ch=1 n=g6 v=37
32158 On ch=1 n=g6 v=0
32160 On ch=1 n=f#6 v=37
32278 On ch=1 n=f#6 v=0
32280 On ch=1 n=g6 v=37
32398 On ch=1 n=g6 v=0
32400 On ch=1 n=a6 v=37
32518 On ch=1 n=a6 v=0
32520 On ch=1 n=g6 v=37
32638 On ch=1 n=g6 v=0
32640 On ch=1 n=f6 v=47
32758 On ch=1 n=f6 v=0
33002 On ch=1 n=g6 v=47
33118 On ch=1 n=g6 v=0
33120 On ch=1 n=e6 v=47
33358 On ch=1 n=e6 v=0
33482 On ch=1 n=f6 v=47
33598 On ch=1 n=f6 v=0
33600 On ch=1 n=d6 v=47
33838 On ch=1 n=d6 v=0
33962 On ch=1 n=g6 v=36
34078 On ch=1 n=g6 v=0
34080 On ch=1 n=f#6 v=36
34198 On ch=1 n=f#6 v=0
34200 On ch=1 n=g6 v=36
34318 On ch=1 n=g6 v=0
34320 On ch=1 n=a6 v=36
34438 On ch=1 n=a6 v=0
34440 On ch=1 n=g6 v=36
34558 On ch=1 n=g6 v=0
34560 On ch=1 n=f6 v=36
34798 On ch=1 n=f6 v=0
34922 On ch=1 n=b6 v=36
35038 On ch=1 n=b6 v=0
35040 On ch=1 n=c7 v=36
35278 On ch=1 n=c7 v=0
35402 On ch=1 n=e6 v=36
35518 On ch=1 n=e6 v=0
35520 On ch=1 n=d6 v=36
35758 On ch=1 n=d6 v=0
35882 On ch=1 n=e6 v=36
35998 On ch=1 n=e6 v=0
36000 On ch=1 n=d6 v=36
36118 On ch=1 n=d6 v=0
36120 On ch=1 n=e6 v=36
36238 On ch=1 n=e6 v=0
36240 On ch=1 n=d6 v=36
36358 On ch=1 n=d6 v=0
36360 On ch=1 n=e6 v=36
36478 On ch=1 n=e6 v=0
36480 On ch=1 n=d6 v=36
36718 On ch=1 n=d6 v=0
38522 On ch=1 n=d6 v=95
38638 On ch=1 n=d6 v=0
38640 On ch=1 n=e6 v=95
38758 On ch=1 n=e6 v=0
38760 On ch=1 n=f#6 v=95
38878 On ch=1 n=f#6 v=0
38880 On ch=1 n=g6 v=95
38998 On ch=1 n=g6 v=0
39000 On ch=1 n=a6 v=95
39118 On ch=1 n=a6 v=0
39120 On ch=1 n=b6 v=95
39238 On ch=1 n=b6 v=0
39240 On ch=1 n=c7 v=95
39358 On ch=1 n=c7 v=0
39360 On ch=1 n=d7 v=95
39478 On ch=1 n=d7 v=0
39480 On ch=1 n=c7 v=95
39598 On ch=1 n=c7 v=0
39600 On ch=1 n=b6 v=95
39718 On ch=1 n=b6 v=0
39720 On ch=1 n=a6 v=95
39838 On ch=1 n=a6 v=0
39840 On ch=1 n=g6 v=95
39958 On ch=1 n=g6 v=0
39960 On ch=1 n=a6 v=95
40078 On ch=1 n=a6 v=0
40080 On ch=1 n=b6 v=95
40198 On ch=1 n=b6 v=0
40200 On ch=1 n=g6 v=95
40318 On ch=1 n=g6 v=0
40320 On ch=1 n=c7 v=95
40438 On ch=1 n=c7 v=0
40440 On ch=1 n=b6 v=95
40558 On ch=1 n=b6 v=0
40560 On ch=1 n=a6 v=95
40678 On ch=1 n=a6 v=0
40680 On ch=1 n=g6 v=95
40798 On ch=1 n=g6 v=0
40800 On ch=1 n=f#6 v=95
40918 On ch=1 n=f#6 v=0
40920 On ch=1 n=g6 v=95
41038 On ch=1 n=g6 v=0
41040 On ch=1 n=a6 v=95
41158 On ch=1 n=a6 v=0
41160 On ch=1 n=f#6 v=95
41278 On ch=1 n=f#6 v=0
41280 On ch=1 n=b6 v=95
41398 On ch=1 n=b6 v=0
41400 On ch=1 n=a6 v=95
41518 On ch=1 n=a6 v=0
41520 On ch=1 n=g6 v=95
41638 On ch=1 n=g6 v=0
41640 On ch=1 n=f#6 v=95
41758 On ch=1 n=f#6 v=0
41760 On ch=1 n=e6 v=74
41878 On ch=1 n=e6 v=0
41880 On ch=1 n=d6 v=74
41998 On ch=1 n=d6 v=0
42000 On ch=1 n=c6 v=74
42118 On ch=1 n=c6 v=0
42120 On ch=1 n=b5 v=74
42238 On ch=1 n=b5 v=0
42240 On ch=1 n=a5 v=74
42358 On ch=1 n=a5 v=0
42360 On ch=1 n=g6 v=74
42478 On ch=1 n=g6 v=0
42480 On ch=1 n=f#6 v=74
42598 On ch=1 n=f#6 v=0
42600 On ch=1 n=e6 v=74
42718 On ch=1 n=e6 v=0
42720 On ch=1 n=d6 v=74
42838 On ch=1 n=d6 v=0
42840 On ch=1 n=c6 v=74
42958 On ch=1 n=c6 v=0
42960 On ch=1 n=b5 v=74
43078 On ch=1 n=b5 v=0
43080 On ch=1 n=a5 v=74
43198 On ch=1 n=a5 v=0
43200 On ch=1 n=g5 v=74
43318 On ch=1 n=g5 v=0
43320 On ch=1 n=f#6 v=74
43438 On ch=1 n=f#6 v=0
43440 On ch=1 n=e6 v=74
43558 On ch=1 n=e6 v=0
43560 On ch=1 n=d6 v=74
43678 On ch=1 n=d6 v=0
43680 On ch=1 n=c6 v=74
43798 On ch=1 n=c6 v=0
43800 On ch=1 n=b5 v=74
43918 On ch=1 n=b5 v=0
43920 On ch=1 n=a5 v=74
44038 On ch=1 n=a5 v=0
44040 On ch=1 n=g5 v=74
44158 On ch=1 n=g5 v=0
44160 On ch=1 n=f#5 v=74
44218 On ch=1 n=f#5 v=0
44282 On ch=1 n=b5 v=74
44398 On ch=1 n=b5 v=0
44400 On ch=1 n=a5 v=74
44518 On ch=1 n=a5 v=0
44520 On ch=1 n=f#5 v=74
44638 On ch=1 n=f#5 v=0
44640 On ch=1 n=d5 v=74
44758 On ch=1 n=d5 v=0
44760 On ch=1 n=c6 v=95
44878 On ch=1 n=c6 v=0
44880 On ch=1 n=b5 v=95
44998 On ch=1 n=b5 v=0
45000 On ch=1 n=g5 v=95
45118 On ch=1 n=g5 v=0
45120 On ch=1 n=d5 v=95
45238 On ch=1 n=d5 v=0
45240 On ch=1 n=d6 v=95
45358 On ch=1 n=d6 v=0
45360 On ch=1 n=c6 v=95
45478 On ch=1 n=c6 v=0
45480 On ch=1 n=a5 v=95
45598 On ch=1 n=a5 v=0
45600 On ch=1 n=d5 v=95
45718 On ch=1 n=d5 v=0
45720 On ch=1 n=e6 v=95
45838 On ch=1 n=e6 v=0
45840 On ch=1 n=d6 v=95
45958 On ch=1 n=d6 v=0
45960 On ch=1 n=b5 v=95
46078 On ch=1 n=b5 v=0
46080 On ch=1 n=g5 v=95
46198 On ch=1 n=g5 v=0
46200 On ch=1 n=a6 v=95
46318 On ch=1 n=a6 v=0
46320 On ch=1 n=g6 v=95
46438 On ch=1 n=g6 v=0
46440 On ch=1 n=f#6 v=95
46558 On ch=1 n=f#6 v=0
46560 On ch=1 n=e6 v=95
46678 On ch=1 n=e6 v=0
46680 On ch=1 n=d6 v=95
46798 On ch=1 n=d6 v=0
46800 On ch=1 n=c#6 v=95
46918 On ch=1 n=c#6 v=0
46920 On ch=1 n=b5 v=95
47038 On ch=1 n=b5 v=0
47040 On ch=1 n=a5 v=95
47158 On ch=1 n=a5 v=0
47160 On ch=1 n=g5 v=95
47278 On ch=1 n=g5 v=0
47280 On ch=1 n=f#5 v=95
47398 On ch=1 n=f#5 v=0
47400 On ch=1 n=e5 v=95
47518 On ch=1 n=e5 v=0
51002 On ch=1 n=c6 v=74
51118 On ch=1 n=c6 v=0
51120 On ch=1 n=a5 v=74
51238 On ch=1 n=a5 v=0
51240 On ch=1 n=f#5 v=74
51358 On ch=1 n=f#5 v=0
51360 On ch=1 n=d5 v=74
51478 On ch=1 n=d5 v=0
51480 On ch=1 n=f#6 v=74
51598 On ch=1 n=f#6 v=0
51600 On ch=1 n=d6 v=74
51718 On ch=1 n=d6 v=0
51720 On ch=1 n=c6 v=74
51838 On ch=1 n=c6 v=0
51840 On ch=1 n=a5 v=74
51958 On ch=1 n=a5 v=0
51960 On ch=1 n=c7 v=74
52078 On ch=1 n=c7 v=0
52080 On ch=1 n=a6 v=74
52198 On ch=1 n=a6 v=0
52200 On ch=1 n=f#6 v=74
52318 On ch=1 n=f#6 v=0
52320 On ch=1 n=d6 v=74
52438 On ch=1 n=d6 v=0
52440 On ch=1 n=e7 v=55
52558 On ch=1 n=e7 v=0
52560 On ch=1 n=d7 v=55
52678 On ch=1 n=d7 v=0
52680 On ch=1 n=c7 v=55
52798 On ch=1 n=c7 v=0
52800 On ch=1 n=b6 v=55
52918 On ch=1 n=b6 v=0
52920 On ch=1 n=a6 v=55
53038 On ch=1 n=a6 v=0
53040 On ch=1 n=g6 v=55
53158 On ch=1 n=g6 v=0
53160 On ch=1 n=f#6 v=55
53278 On ch=1 n=f#6 v=0
53280 On ch=1 n=e6 v=55
53398 On ch=1 n=e6 v=0
53400 On ch=1 n=d6 v=55
53518 On ch=1 n=d6 v=0
53520 On ch=1 n=c#6 v=36
53638 On ch=1 n=c#6 v=0
53640 On ch=1 n=c6 v=36
53758 On ch=1 n=c6 v=0
53760 On ch=1 n=a6 v=36
53998 On ch=1 n=a6 v=0
55682 On ch=1 n=c7 v=36
56638 On ch=1 n=c7 v=0
56640 On ch=1 n=a#6 v=36
57598 On ch=1 n=a#6 v=0
57600 On ch=1 n=b6 v=36
57718 On ch=1 n=b6 v=0
58082 On ch=1 n=g6 v=36
58198 On ch=1 n=g6 v=0
58562 On ch=1 n=d6 v=36
58678 On ch=1 n=d6 v=0
59282 On ch=1 n=e6 v=36
59518 On ch=1 n=e6 v=0
59520 On ch=1 n=a5 v=36
59638 On ch=1 n=a5 v=0
60242 On ch=1 n=d6 v=36
60478 On ch=1 n=d6 v=0
60480 On ch=1 n=g5 v=36
60598 On ch=1 n=g5 v=0
61202 On ch=1 n=e7 v=36
61438 On ch=1 n=e7 v=0
61440 On ch=1 n=a6 v=36
61678 On ch=1 n=a6 v=0
61680 On ch=1 n=a5 v=36
61798 On ch=1 n=a5 v=0
61922 On ch=1 n=d6 v=36
62038 On ch=1 n=d6 v=0
62162 On ch=1 n=d7 v=36
62398 On ch=1 n=d7 v=0
62400 On ch=1 n=g6 v=36
62638 On ch=1 n=g6 v=0
63122 On ch=1 n=c7 v=36
63238 On ch=1 n=c7 v=0
63362 On ch=1 n=d6 v=36
63478 On ch=1 n=d6 v=0
63480 On ch=1 n=c7 v=47
63598 On ch=1 n=c7 v=0
63600 On ch=1 n=b6 v=47
63718 On ch=1 n=b6 v=0
63720 On ch=1 n=a#6 v=47
63838 On ch=1 n=a#6 v=0
63840 On ch=1 n=b6 v=47
63958 On ch=1 n=b6 v=0
63960 On ch=1 n=f#6 v=47
64078 On ch=1 n=f#6 v=0
64080 On ch=1 n=g6 v=47
64198 On ch=1 n=g6 v=0
64200 On ch=1 n=d6 v=47
64318 On ch=1 n=d6 v=0
64320 On ch=1 n=d#6 v=47
64438 On ch=1 n=d#6 v=0
64440 On ch=1 n=e6 v=47
64558 On ch=1 n=e6 v=0
64560 On ch=1 n=g#6 v=47
64678 On ch=1 n=g#6 v=0
64680 On ch=1 n=a6 v=47
64798 On ch=1 n=a6 v=0
64800 On ch=1 n=g6 v=36
65038 On ch=1 n=g6 v=0
65040 On ch=1 n=f#6 v=36
65278 On ch=1 n=f#6 v=0
65402 On ch=1 n=b6 v=47
65518 On ch=1 n=b6 v=0
65520 On ch=1 n=a6 v=47
65578 On ch=1 n=a6 v=0
65642 On ch=1 n=c7 v=63
65758 On ch=1 n=c7 v=0
65760 On ch=1 n=b6 v=63
65818 On ch=1 n=b6 v=0
65882 On ch=1 n=d7 v=63
65998 On ch=1 n=d7 v=0
66000 On ch=1 n=c7 v=63
66058 On ch=1 n=c7 v=0
66122 On ch=1 n=e7 v=63
66238 On ch=1 n=e7 v=0
66240 On ch=1 n=d7 v=63
66358 On ch=1 n=d7 v=0
66602 On ch=1 n=c7 v=47
66718 On ch=1 n=c7 v=0
66720 On ch=1 n=b6 v=47
66838 On ch=1 n=b6 v=0
67082 On ch=1 n=a6 v=47
67198 On ch=1 n=a6 v=0
67200 On ch=1 n=g6 v=36
67258 On ch=1 n=g6 v=0
67322 On ch=1 n=b6 v=38
67438 On ch=1 n=b6 v=0
67440 On ch=1 n=a6 v=36
67498 On ch=1 n=a6 v=0
67562 On ch=1 n=c7 v=47
67678 On ch=1 n=c7 v=0
67680 On ch=1 n=b6 v=47
67738 On ch=1 n=b6 v=0
67802 On ch=1 n=d7 v=47
67918 On ch=1 n=d7 v=0
67920 On ch=1 n=c7 v=47
67978 On ch=1 n=c7 v=0
68042 On ch=1 n=e7 v=47
68158 On ch=1 n=e7 v=0
68160 On ch=1 n=d7 v=47
68278 On ch=1 n=d7 v=0
68522 On ch=1 n=c7 v=36
68638 On ch=1 n=c7 v=0
68640 On ch=1 n=b6 v=36
68758 On ch=1 n=b6 v=0
69002 On ch=1 n=a6 v=36
69118 On ch=1 n=a6 v=0
69120 On ch=1 n=g6 v=47
69178 On ch=1 n=g6 v=0
69242 On ch=1 n=b6 v=47
69358 On ch=1 n=b6 v=0
69360 On ch=1 n=a6 v=47
69418 On ch=1 n=a6 v=0
69482 On ch=1 n=c7 v=47
69598 On ch=1 n=c7 v=0
69600 On ch=1 n=b6 v=47
69658 On ch=1 n=b6 v=0
69722 On ch=1 n=d7 v=47
69838 On ch=1 n=d7 v=0
69840 On ch=1 n=c7 v=47
69898 On ch=1 n=c7 v=0
69962 On ch=1 n=e7 v=47
70078 On ch=1 n=e7 v=0
70080 On ch=1 n=d7 v=47
70198 On ch=1 n=d7 v=0
70442 On ch=1 n=c7 v=47
70558 On ch=1 n=c7 v=0
70560 On ch=1 n=b6 v=47
70678 On ch=1 n=b6 v=0
70922 On ch=1 n=a6 v=47
71038 On ch=1 n=a6 v=0
71040 On ch=1 n=g6 v=47
71998 On ch=1 n=g6 v=0
72000 On ch=1 n=g#6 v=63
73438 On ch=1 n=g#6 v=0
73440 On ch=1 n=g6 v=47
73918 On ch=1 n=g6 v=0
73920 On ch=1 n=f#6 v=63
74878 On ch=1 n=f#6 v=0
74880 On ch=1 n=f6 v=47
75838 On ch=1 n=f6 v=0
75840 On ch=1 n=e6 v=63
77758 On ch=1 n=e6 v=0
77760 On ch=1 n=e6 v=81
78718 On ch=1 n=e6 v=0
78720 On ch=1 n=d6 v=81
81118 On ch=1 n=d6 v=0
81322 On ch=1 n=b6 v=81
81358 On ch=1 n=b6 v=0
81802 On ch=1 n=c7 v=95
81838 On ch=1 n=c7 v=0
82282 On ch=1 n=b6 v=95
82318 On ch=1 n=b6 v=0
82562 On ch=1 n=e7 v=95
82798 On ch=1 n=e7 v=0
83522 On ch=1 n=a5 v=36
83878 On ch=1 n=a5 v=0
83880 On ch=1 n=b5 v=36
83998 On ch=1 n=b5 v=0
84000 On ch=1 n=c6 v=36
84358 On ch=1 n=c6 v=0
84360 On ch=1 n=d6 v=36
84478 On ch=1 n=d6 v=0
84480 On ch=1 n=b5 v=36
84958 On ch=1 n=b5 v=0
85162 On ch=1 n=b6 v=81
85198 On ch=1 n=b6 v=0
85642 On ch=1 n=c7 v=81
85678 On ch=1 n=c7 v=0
86122 On ch=1 n=b6 v=81
86158 On ch=1 n=b6 v=0
86402 On ch=1 n=e7 v=81
86638 On ch=1 n=e7 v=0
87362 On ch=1 n=f#5 v=47
87518 On ch=1 n=f#5 v=0
87520 On ch=1 n=a5 v=47
87678 On ch=1 n=a5 v=0
87680 On ch=1 n=c6 v=47
87838 On ch=1 n=c6 v=0
87840 On ch=1 n=e6 v=47
87998 On ch=1 n=e6 v=0
88000 On ch=1 n=d6 v=47
88158 On ch=1 n=d6 v=0
88160 On ch=1 n=c6 v=47
88318 On ch=1 n=c6 v=0
88320 On ch=1 n=b5 v=47
88438 On ch=1 n=b5 v=0
88562 On ch=1 n=d6 v=81
88638 On ch=1 n=d6 v=0
88640 On ch=1 n=g6 v=81
88718 On ch=1 n=g6 v=0
88720 On ch=1 n=b6 v=81
88798 On ch=1 n=b6 v=0
88800 On ch=1 n=d6 v=81
88878 On ch=1 n=d6 v=0
88880 On ch=1 n=a6 v=81
88958 On ch=1 n=a6 v=0
88960 On ch=1 n=c7 v=81
89038 On ch=1 n=c7 v=0
89040 On ch=1 n=d6 v=81
89118 On ch=1 n=d6 v=0
89120 On ch=1 n=g6 v=81
89198 On ch=1 n=g6 v=0
89200 On ch=1 n=b6 v=81
89278 On ch=1 n=b6 v=0
89280 On ch=1 n=e6 v=81
89358 On ch=1 n=e6 v=0
89360 On ch=1 n=e7 v=81
89438 On ch=1 n=e7 v=0
89440 On ch=1 n=d7 v=81
89518 On ch=1 n=d7 v=0
89520 On ch=1 n=c7 v=81
89598 On ch=1 n=c7 v=0
89600 On ch=1 n=b6 v=81
89678 On ch=1 n=b6 v=0
89680 On ch=1 n=a6 v=81
89758 On ch=1 n=a6 v=0
89760 On ch=1 n=g#6 v=81
89838 On ch=1 n=g#6 v=0
89840 On ch=1 n=a6 v=81
89918 On ch=1 n=a6 v=0
89920 On ch=1 n=e7 v=81
89998 On ch=1 n=e7 v=0
90000 On ch=1 n=d7 v=81
90078 On ch=1 n=d7 v=0
90080 On ch=1 n=c7 v=81
90158 On ch=1 n=c7 v=0
90160 On ch=1 n=b6 v=81
90238 On ch=1 n=b6 v=0
90240 On ch=1 n=a6 v=81
90318 On ch=1 n=a6 v=0
90320 On ch=1 n=g#6 v=81
90398 On ch=1 n=g#6 v=0
90400 On ch=1 n=e7 v=81
90478 On ch=1 n=e7 v=0
90480 On ch=1 n=d7 v=81
90558 On ch=1 n=d7 v=0
90560 On ch=1 n=c7 v=81
90638 On ch=1 n=c7 v=0
90640 On ch=1 n=b6 v=81
90718 On ch=1 n=b6 v=0
90720 On ch=1 n=a6 v=81
90798 On ch=1 n=a6 v=0
90800 On ch=1 n=g6 v=81
90878 On ch=1 n=g6 v=0
90880 On ch=1 n=e7 v=81
90958 On ch=1 n=e7 v=0
90960 On ch=1 n=d7 v=81
91038 On ch=1 n=d7 v=0
91040 On ch=1 n=c7 v=81
91118 On ch=1 n=c7 v=0
91120 On ch=1 n=b6 v=81
91198 On ch=1 n=b6 v=0
91200 On ch=1 n=a6 v=81
91278 On ch=1 n=a6 v=0
91280 On ch=1 n=g6 v=81
91358 On ch=1 n=g6 v=0
91360 On ch=1 n=e7 v=81
91438 On ch=1 n=e7 v=0
91440 On ch=1 n=d7 v=81
91518 On ch=1 n=d7 v=0
91520 On ch=1 n=c7 v=81
91598 On ch=1 n=c7 v=0
91600 On ch=1 n=b6 v=81
91678 On ch=1 n=b6 v=0
91680 On ch=1 n=a6 v=81
91758 On ch=1 n=a6 v=0
91760 On ch=1 n=e7 v=81
91838 On ch=1 n=e7 v=0
91840 On ch=1 n=d7 v=81
91918 On ch=1 n=d7 v=0
91920 On ch=1 n=c7 v=81
91998 On ch=1 n=c7 v=0
92000 On ch=1 n=b6 v=81
92078 On ch=1 n=b6 v=0
92080 On ch=1 n=a6 v=81
92158 On ch=1 n=a6 v=0
92160 On ch=1 n=b6 v=105
92238 On ch=1 n=b6 v=0
92240 On ch=1 n=d7 v=105
92318 On ch=1 n=d7 v=0
92320 On ch=1 n=c7 v=105
92398 On ch=1 n=c7 v=0
92400 On ch=1 n=b6 v=105
92478 On ch=1 n=b6 v=0
92480 On ch=1 n=a6 v=105
92558 On ch=1 n=a6 v=0
92560 On ch=1 n=g6 v=105
92638 On ch=1 n=g6 v=0
92640 On ch=1 n=f#6 v=105
92718 On ch=1 n=f#6 v=0
92720 On ch=1 n=e6 v=105
92798 On ch=1 n=e6 v=0
92800 On ch=1 n=d6 v=105
92878 On ch=1 n=d6 v=0
92880 On ch=1 n=d7 v=105
92958 On ch=1 n=d7 v=0
92960 On ch=1 n=b6 v=105
93038 On ch=1 n=b6 v=0
93040 On ch=1 n=g6 v=105
93118 On ch=1 n=g6 v=0
93120 On ch=1 n=b6 v=105
93158 On ch=1 n=b6 v=0
93160 On ch=1 n=a6 v=105
93198 On ch=1 n=a6 v=0
93200 On ch=1 n=b6 v=105
93238 On ch=1 n=b6 v=0
93240 On ch=1 n=a6 v=105
93278 On ch=1 n=a6 v=0
93280 On ch=1 n=b6 v=105
93318 On ch=1 n=b6 v=0
93320 On ch=1 n=a6 v=105
93358 On ch=1 n=a6 v=0
93360 On ch=1 n=b6 v=105
93398 On ch=1 n=b6 v=0
93400 On ch=1 n=a6 v=105
93438 On ch=1 n=a6 v=0
93440 On ch=1 n=b6 v=105
93478 On ch=1 n=b6 v=0
93480 On ch=1 n=a6 v=105
93518 On ch=1 n=a6 v=0
93520 On ch=1 n=b6 v=105
93558 On ch=1 n=b6 v=0
93560 On ch=1 n=a6 v=105
93598 On ch=1 n=a6 v=0
93600 On ch=1 n=b6 v=105
93638 On ch=1 n=b6 v=0
93640 On ch=1 n=a6 v=105
93678 On ch=1 n=a6 v=0
93680 On ch=1 n=b6 v=105
93718 On ch=1 n=b6 v=0
93720 On ch=1 n=a6 v=105
93758 On ch=1 n=a6 v=0
93760 On ch=1 n=b6 v=105
93798 On ch=1 n=b6 v=0
93800 On ch=1 n=a6 v=105
93838 On ch=1 n=a6 v=0
93840 On ch=1 n=a6 v=105
93958 On ch=1 n=a6 v=0
93960 On ch=1 n=b6 v=105
94078 On ch=1 n=b6 v=0
94080 On ch=1 n=g6 v=63
94198 On ch=1 n=g6 v=0
94322 On ch=1 n=b6 v=63
94438 On ch=1 n=b6 v=0
94802 On ch=1 n=g6 v=63
94918 On ch=1 n=g6 v=0
95282 On ch=1 n=e6 v=63
95358 On ch=1 n=e6 v=0
95360 On ch=1 n=d6 v=63
95438 On ch=1 n=d6 v=0
95522 On ch=1 n=c6 v=63
95598 On ch=1 n=c6 v=0
95600 On ch=1 n=b5 v=63
95678 On ch=1 n=b5 v=0
95762 On ch=1 n=a5 v=63
95838 On ch=1 n=a5 v=0
95840 On ch=1 n=g5 v=63
95918 On ch=1 n=g5 v=0
96002 On ch=1 n=f#5 v=63
96598 On ch=1 n=f#5 v=0
96600 On ch=1 n=g5 v=63
96658 On ch=1 n=g5 v=0
96722 On ch=1 n=a5 v=63
96778 On ch=1 n=a5 v=0
96842 On ch=1 n=b5 v=63
96898 On ch=1 n=b5 v=0
96962 On ch=1 n=c6 v=63
97018 On ch=1 n=c6 v=0
97082 On ch=1 n=d6 v=63
97138 On ch=1 n=d6 v=0
97202 On ch=1 n=e6 v=63
97258 On ch=1 n=e6 v=0
97322 On ch=1 n=f#6 v=63
97378 On ch=1 n=f#6 v=0
97442 On ch=1 n=g6 v=63
97498 On ch=1 n=g6 v=0
97562 On ch=1 n=a6 v=63
97618 On ch=1 n=a6 v=0
97682 On ch=1 n=b6 v=63
97738 On ch=1 n=b6 v=0
97802 On ch=1 n=c7 v=63
97858 On ch=1 n=c7 v=0
97922 On ch=1 n=d7 v=63
98038 On ch=1 n=d7 v=0
98162 On ch=1 n=b6 v=63
98278 On ch=1 n=b6 v=0
98642 On ch=1 n=g6 v=63
98758 On ch=1 n=g6 v=0
99122 On ch=1 n=e6 v=63
99198 On ch=1 n=e6 v=0
99200 On ch=1 n=d6 v=63
99278 On ch=1 n=d6 v=0
99362 On ch=1 n=c6 v=63
99438 On ch=1 n=c6 v=0
99440 On ch=1 n=b5 v=63
99518 On ch=1 n=b5 v=0
99602 On ch=1 n=a5 v=63
99678 On ch=1 n=a5 v=0
99680 On ch=1 n=g5 v=63
99758 On ch=1 n=g5 v=0
99842 On ch=1 n=f#5 v=63
100438 On ch=1 n=f#5 v=0
100440 On ch=1 n=b6 v=63
100558 On ch=1 n=b6 v=0
100560 On ch=1 n=a6 v=63
100678 On ch=1 n=a6 v=0
100680 On ch=1 n=g6 v=63
100798 On ch=1 n=g6 v=0
100800 On ch=1 n=f#6 v=63
100918 On ch=1 n=f#6 v=0
100920 On ch=1 n=e6 v=63
101038 On ch=1 n=e6 v=0
101040 On ch=1 n=d6 v=63
101158 On ch=1 n=d6 v=0
101160 On ch=1 n=c6 v=63
101278 On ch=1 n=c6 v=0
101280 On ch=1 n=b5 v=63
101398 On ch=1 n=b5 v=0
101400 On ch=1 n=a5 v=63
101518 On ch=1 n=a5 v=0
101520 On ch=1 n=g5 v=63
101638 On ch=1 n=g5 v=0
101640 On ch=1 n=f#5 v=63
101758 On ch=1 n=f#5 v=0
101760 On ch=1 n=g5 v=63
101878 On ch=1 n=g5 v=0
102002 On ch=1 n=a5 v=36
102238 On ch=1 n=a5 v=0
102240 On ch=1 n=b5 v=36
102478 On ch=1 n=b5 v=0
102480 On ch=1 n=c6 v=36
102718 On ch=1 n=c6 v=0
102720 On ch=1 n=d6 v=36
102958 On ch=1 n=d6 v=0
102960 On ch=1 n=a5 v=63
103078 On ch=1 n=a5 v=0
103202 On ch=1 n=g5 v=63
103318 On ch=1 n=g5 v=0
103442 On ch=1 n=f#5 v=63
103558 On ch=1 n=f#5 v=0
103682 On ch=1 n=g5 v=63
103798 On ch=1 n=g5 v=0
103922 On ch=1 n=a5 v=47
104158 On ch=1 n=a5 v=0
104160 On ch=1 n=b5 v=47
104398 On ch=1 n=b5 v=0
104400 On ch=1 n=c6 v=47
104638 On ch=1 n=c6 v=0
104640 On ch=1 n=d6 v=47
104878 On ch=1 n=d6 v=0
104880 On ch=1 n=a5 v=81
104998 On ch=1 n=a5 v=0
105122 On ch=1 n=g5 v=81
105238 On ch=1 n=g5 v=0
105362 On ch=1 n=f#5 v=81
105478 On ch=1 n=f#5 v=0
105602 On ch=1 n=g5 v=81
105718 On ch=1 n=g5 v=0
106082 On ch=1 n=f#6 v=105
106318 On ch=1 n=f#6 v=0
106562 On ch=1 n=g6 v=105
106798 On ch=1 n=g6 v=0
107642 On ch=1 n=d6 v=36
107758 On ch=1 n=d6 v=0
107760 On ch=1 n=e6 v=36
107878 On ch=1 n=e6 v=0
107880 On ch=1 n=f#6 v=36
107998 On ch=1 n=f#6 v=0
108000 On ch=1 n=g6 v=36
108118 On ch=1 n=g6 v=0
108120 On ch=1 n=a6 v=36
108238 On ch=1 n=a6 v=0
108240 On ch=1 n=a#6 v=36
108358 On ch=1 n=a#6 v=0
108360 On ch=1 n=c7 v=36
108478 On ch=1 n=c7 v=0
108480 On ch=1 n=d7 v=36
108598 On ch=1 n=d7 v=0
108600 On ch=1 n=c7 v=36
108718 On ch=1 n=c7 v=0
108720 On ch=1 n=a#6 v=36
108838 On ch=1 n=a#6 v=0
108840 On ch=1 n=a6 v=36
108958 On ch=1 n=a6 v=0
108960 On ch=1 n=g6 v=36
109078 On ch=1 n=g6 v=0
109080 On ch=1 n=a6 v=36
109198 On ch=1 n=a6 v=0
109200 On ch=1 n=a#6 v=36
109318 On ch=1 n=a#6 v=0
109320 On ch=1 n=g6 v=36
109438 On ch=1 n=g6 v=0
109440 On ch=1 n=c7 v=36
109558 On ch=1 n=c7 v=0
109560 On ch=1 n=a#6 v=36
109678 On ch=1 n=a#6 v=0
109680 On ch=1 n=a6 v=36
109798 On ch=1 n=a6 v=0
109800 On ch=1 n=g6 v=36
109918 On ch=1 n=g6 v=0
109920 On ch=1 n=f#6 v=36
110038 On ch=1 n=f#6 v=0
110040 On ch=1 n=g6 v=36
110158 On ch=1 n=g6 v=0
110160 On ch=1 n=a6 v=36
110278 On ch=1 n=a6 v=0
110280 On ch=1 n=f#6 v=36
110398 On ch=1 n=f#6 v=0
110400 On ch=1 n=a#6 v=36
110518 On ch=1 n=a#6 v=0
110520 On ch=1 n=c7 v=36
110638 On ch=1 n=c7 v=0
110640 On ch=1 n=a#6 v=36
110758 On ch=1 n=a#6 v=0
110760 On ch=1 n=a6 v=36
110878 On ch=1 n=a6 v=0
110880 On ch=1 n=g6 v=47
110998 On ch=1 n=g6 v=0
111000 On ch=1 n=f6 v=47
111118 On ch=1 n=f6 v=0
111120 On ch=1 n=e6 v=47
111238 On ch=1 n=e6 v=0
111240 On ch=1 n=d6 v=47
111358 On ch=1 n=d6 v=0
111360 On ch=1 n=a6 v=63
111478 On ch=1 n=a6 v=0
111842 On ch=1 n=e6 v=63
111958 On ch=1 n=e6 v=0
112322 On ch=1 n=c#6 v=63
112798 On ch=1 n=c#6 v=0
113042 On ch=1 n=a5 v=63
113158 On ch=1 n=a5 v=0
113282 On ch=1 n=a6 v=63
113398 On ch=1 n=a6 v=0
113400 On ch=1 n=g#6 v=63
113518 On ch=1 n=g#6 v=0
113520 On ch=1 n=a6 v=63
113638 On ch=1 n=a6 v=0
113640 On ch=1 n=a#6 v=63
113758 On ch=1 n=a#6 v=0
113760 On ch=1 n=a6 v=63
113878 On ch=1 n=a6 v=0
113880 On ch=1 n=g6 v=63
113998 On ch=1 n=g6 v=0
114000 On ch=1 n=f6 v=63
114118 On ch=1 n=f6 v=0
114120 On ch=1 n=e6 v=63
114238 On ch=1 n=e6 v=0
114240 On ch=1 n=f6 v=63
114358 On ch=1 n=f6 v=0
114360 On ch=1 n=e6 v=63
114478 On ch=1 n=e6 v=0
114480 On ch=1 n=f6 v=63
114598 On ch=1 n=f6 v=0
114600 On ch=1 n=g6 v=63
114718 On ch=1 n=g6 v=0
114720 On ch=1 n=f6 v=63
114838 On ch=1 n=f6 v=0
114840 On ch=1 n=e6 v=63
114958 On ch=1 n=e6 v=0
114960 On ch=1 n=d6 v=63
115078 On ch=1 n=d6 v=0
115080 On ch=1 n=c#6 v=63
115198 On ch=1 n=c#6 v=0
115200 On ch=1 n=d6 v=47
115678 On ch=1 n=d6 v=0
117122 On ch=1 n=d6 v=47
117238 On ch=1 n=d6 v=0
117240 On ch=1 n=c#6 v=47
117358 On ch=1 n=c#6 v=0
117360 On ch=1 n=d6 v=47
117478 On ch=1 n=d6 v=0
117480 On ch=1 n=a#5 v=47
117598 On ch=1 n=a#5 v=0
117600 On ch=1 n=c6 v=47
117718 On ch=1 n=c6 v=0
117720 On ch=1 n=b5 v=47
117838 On ch=1 n=b5 v=0
117840 On ch=1 n=c6 v=47
117958 On ch=1 n=c6 v=0
117960 On ch=1 n=a5 v=47
118078 On ch=1 n=a5 v=0
118080 On ch=1 n=a#5 v=47
118198 On ch=1 n=a#5 v=0
118200 On ch=1 n=d5 v=47
118318 On ch=1 n=d5 v=0
118320 On ch=1 n=e5 v=47
118438 On ch=1 n=e5 v=0
118440 On ch=1 n=f#5 v=47
118558 On ch=1 n=f#5 v=0
118560 On ch=1 n=g5 v=63
118678 On ch=1 n=g5 v=0
118680 On ch=1 n=a5 v=63
118798 On ch=1 n=a5 v=0
118800 On ch=1 n=a#5 v=63
118918 On ch=1 n=a#5 v=0
118920 On ch=1 n=c6 v=63
119038 On ch=1 n=c6 v=0
119040 On ch=1 n=d6 v=63
119158 On ch=1 n=d6 v=0
119160 On ch=1 n=c6 v=63
119278 On ch=1 n=c6 v=0
119280 On ch=1 n=g6 v=81
119398 On ch=1 n=g6 v=0
119400 On ch=1 n=f6 v=81
119518 On ch=1 n=f6 v=0
119520 On ch=1 n=e6 v=81
119638 On ch=1 n=e6 v=0
119640 On ch=1 n=d6 v=81
119758 On ch=1 n=d6 v=0
119760 On ch=1 n=c6 v=81
119878 On ch=1 n=c6 v=0
119880 On ch=1 n=a#5 v=81
119998 On ch=1 n=a#5 v=0
120000 On ch=1 n=a5 v=81
120118 On ch=1 n=a5 v=0
120120 On ch=1 n=f5 v=63
120178 On ch=1 n=f5 v=0
120242 On ch=1 n=g5 v=63
120298 On ch=1 n=g5 v=0
120300 On ch=1 n=f5 v=63
120358 On ch=1 n=f5 v=0
120360 On ch=1 n=e5 v=63
120418 On ch=1 n=e5 v=0
120420 On ch=1 n=f5 v=63
120478 On ch=1 n=f5 v=0
120602 On ch=1 n=a5 v=63
120658 On ch=1 n=a5 v=0
120722 On ch=1 n=a#5 v=63
120778 On ch=1 n=a#5 v=0
120780 On ch=1 n=a5 v=63
120838 On ch=1 n=a5 v=0
120840 On ch=1 n=g5 v=63
120898 On ch=1 n=g5 v=0
120900 On ch=1 n=a5 v=63
120958 On ch=1 n=a5 v=0
121082 On ch=1 n=c6 v=63
121138 On ch=1 n=c6 v=0
121202 On ch=1 n=d6 v=63
121258 On ch=1 n=d6 v=0
121260 On ch=1 n=c6 v=63
121318 On ch=1 n=c6 v=0
121320 On ch=1 n=a#5 v=63
121378 On ch=1 n=a#5 v=0
121380 On ch=1 n=c6 v=63
121438 On ch=1 n=c6 v=0
121440 On ch=1 n=f6 v=63
122158 On ch=1 n=f6 v=0
122160 On ch=1 n=e6 v=81
122218 On ch=1 n=e6 v=0
122220 On ch=1 n=f6 v=81
122278 On ch=1 n=f6 v=0
122280 On ch=1 n=g6 v=81
122338 On ch=1 n=g6 v=0
122340 On ch=1 n=a6 v=81
122398 On ch=1 n=a6 v=0
122400 On ch=1 n=a#6 v=81
123118 On ch=1 n=a#6 v=0
123120 On ch=1 n=a6 v=63
123178 On ch=1 n=a6 v=0
123180 On ch=1 n=g6 v=63
123238 On ch=1 n=g6 v=0
123240 On ch=1 n=a6 v=81
123298 On ch=1 n=a6 v=0
123300 On ch=1 n=a#6 v=81
123358 On ch=1 n=a#6 v=0
123360 On ch=1 n=c7 v=81
123958 On ch=1 n=c7 v=0
123960 On ch=1 n=c#7 v=81
124078 On ch=1 n=c#7 v=0
124080 On ch=1 n=d7 v=81
124198 On ch=1 n=d7 v=0
124200 On ch=1 n=f#6 v=81
124318 On ch=1 n=f#6 v=0
124320 On ch=1 n=g6 v=81
124438 On ch=1 n=g6 v=0
124440 On ch=1 n=a6 v=81
124558 On ch=1 n=a6 v=0
124560 On ch=1 n=a#6 v=81
124918 On ch=1 n=a#6 v=0
124920 On ch=1 n=b6 v=81
125038 On ch=1 n=b6 v=0
125040 On ch=1 n=c7 v=81
125158 On ch=1 n=c7 v=0
125160 On ch=1 n=e6 v=81
125278 On ch=1 n=e6 v=0
125280 On ch=1 n=f6 v=81
125398 On ch=1 n=f6 v=0
125400 On ch=1 n=g6 v=81
125518 On ch=1 n=g6 v=0
125520 On ch=1 n=a6 v=81
125878 On ch=1 n=a6 v=0
125880 On ch=1 n=c7 v=81
125998 On ch=1 n=c7 v=0
126000 On ch=1 n=a#6 v=81
126118 On ch=1 n=a#6 v=0
126120 On ch=1 n=g6 v=81
126238 On ch=1 n=g6 v=0
126240 On ch=1 n=e6 v=81
126358 On ch=1 n=e6 v=0
126360 On ch=1 n=c6 v=81
126478 On ch=1 n=c6 v=0
126480 On ch=1 n=a#5 v=81
126598 On ch=1 n=a#5 v=0
126600 On ch=1 n=g5 v=81
126718 On ch=1 n=g5 v=0
126720 On ch=1 n=a5 v=81
126838 On ch=1 n=a5 v=0
126962 On ch=1 n=a5 v=81
127078 On ch=1 n=a5 v=0
127322 On ch=1 n=c6 v=36
127378 On ch=1 n=c6 v=0
127442 On ch=1 n=d6 v=36
127478 On ch=1 n=d6 v=0
127480 On ch=1 n=c6 v=36
127518 On ch=1 n=c6 v=0
127520 On ch=1 n=d6 v=36
127558 On ch=1 n=d6 v=0
127560 On ch=1 n=c6 v=36
127598 On ch=1 n=c6 v=0
127600 On ch=1 n=d6 v=36
127638 On ch=1 n=d6 v=0
127640 On ch=1 n=c6 v=36
127678 On ch=1 n=c6 v=0
127680 On ch=1 n=e5 v=36
127798 On ch=1 n=e5 v=0
127922 On ch=1 n=e5 v=36
128038 On ch=1 n=e5 v=0
128282 On ch=1 n=c6 v=36
128338 On ch=1 n=c6 v=0
128402 On ch=1 n=d6 v=36
128438 On ch=1 n=d6 v=0
128440 On ch=1 n=c6 v=36
128478 On ch=1 n=c6 v=0
128480 On ch=1 n=d6 v=36
128518 On ch=1 n=d6 v=0
128520 On ch=1 n=c6 v=36
128558 On ch=1 n=c6 v=0
128560 On ch=1 n=a#5 v=36
128598 On ch=1 n=a#5 v=0
128600 On ch=1 n=c6 v=36
128638 On ch=1 n=c6 v=0
128640 On ch=1 n=f6 v=36
128878 On ch=1 n=f6 v=0
128880 On ch=1 n=a6 v=36
129118 On ch=1 n=a6 v=0
129240 On ch=1 n=c7 v=63
129296 On ch=1 n=c7 v=0
129362 On ch=1 n=d7 v=63
129398 On ch=1 n=d7 v=0
129400 On ch=1 n=c7 v=63
129438 On ch=1 n=c7 v=0
129440 On ch=1 n=d7 v=63
129478 On ch=1 n=d7 v=0
129480 On ch=1 n=c7 v=63
129518 On ch=1 n=c7 v=0
129520 On ch=1 n=d7 v=63
129558 On ch=1 n=d7 v=0
129560 On ch=1 n=c7 v=63
129598 On ch=1 n=c7 v=0
129600 On ch=1 n=e6 v=63
129718 On ch=1 n=e6 v=0
129842 On ch=1 n=e6 v=63
129958 On ch=1 n=e6 v=0
130202 On ch=1 n=c7 v=63
130258 On ch=1 n=c7 v=0
130322 On ch=1 n=d7 v=63
130358 On ch=1 n=d7 v=0
130360 On ch=1 n=c7 v=63
130398 On ch=1 n=c7 v=0
130400 On ch=1 n=d7 v=63
130438 On ch=1 n=d7 v=0
130440 On ch=1 n=c7 v=63
130478 On ch=1 n=c7 v=0
130480 On ch=1 n=a#6 v=63
130518 On ch=1 n=a#6 v=0
130520 On ch=1 n=c7 v=63
130558 On ch=1 n=c7 v=0
130560 On ch=1 n=g#6 v=81
131518 On ch=1 n=g#6 v=0
131520 On ch=1 n=f7 v=81
132478 On ch=1 n=f7 v=0
132480 On ch=1 n=g6 v=105
132718 On ch=1 n=g6 v=0
132720 On ch=1 n=f7 v=105
132958 On ch=1 n=f7 v=0
132960 On ch=1 n=d#7 v=105
133198 On ch=1 n=d#7 v=0
133200 On ch=1 n=g#6 v=105
133438 On ch=1 n=g#6 v=0
133440 On ch=1 n=g6 v=105
133678 On ch=1 n=g6 v=0
133680 On ch=1 n=c#7 v=105
133918 On ch=1 n=c#7 v=0
133920 On ch=1 n=c7 v=105
134158 On ch=1 n=c7 v=0
134160 On ch=1 n=g#6 v=105
134398 On ch=1 n=g#6 v=0
134400 On ch=1 n=g6 v=105
134638 On ch=1 n=g6 v=0
134640 On ch=1 n=f7 v=105
134878 On ch=1 n=f7 v=0
134880 On ch=1 n=d#7 v=105
135118 On ch=1 n=d#7 v=0
135120 On ch=1 n=g#6 v=105
135358 On ch=1 n=g#6 v=0
135360 On ch=1 n=g6 v=105
135598 On ch=1 n=g6 v=0
135600 On ch=1 n=c#7 v=105
135838 On ch=1 n=c#7 v=0
135840 On ch=1 n=c7 v=105
136078 On ch=1 n=c7 v=0
136080 On ch=1 n=g#6 v=105
136318 On ch=1 n=g#6 v=0
136320 On ch=1 n=d6 v=81
136558 On ch=1 n=d6 v=0
136560 On ch=1 n=b6 v=81
136798 On ch=1 n=b6 v=0
136800 On ch=1 n=g#6 v=81
137038 On ch=1 n=g#6 v=0
137040 On ch=1 n=d6 v=81
137278 On ch=1 n=d6 v=0
137280 On ch=1 n=d#6 v=81
137518 On ch=1 n=d#6 v=0
137520 On ch=1 n=a#6 v=81
137758 On ch=1 n=a#6 v=0
137760 On ch=1 n=g6 v=81
137998 On ch=1 n=g6 v=0
138000 On ch=1 n=d#6 v=81
138238 On ch=1 n=d#6 v=0
138240 On ch=1 n=d6 v=63
138478 On ch=1 n=d6 v=0
138480 On ch=1 n=b5 v=63
138718 On ch=1 n=b5 v=0
138720 On ch=1 n=g#5 v=63
138958 On ch=1 n=g#5 v=0
138960 On ch=1 n=d5 v=63
139198 On ch=1 n=d5 v=0
139200 On ch=1 n=d#5 v=47
139438 On ch=1 n=d#5 v=0
139440 On ch=1 n=a#5 v=47
139678 On ch=1 n=a#5 v=0
139680 On ch=1 n=g5 v=47
139918 On ch=1 n=g5 v=0
139920 On ch=1 n=d#5 v=47
140158 On ch=1 n=d#5 v=0
140160 On ch=1 n=d5 v=36
140398 On ch=1 n=d5 v=0
140400 On ch=1 n=b4 v=36
140638 On ch=1 n=b4 v=0
140640 On ch=1 n=a#4 v=36
140878 On ch=1 n=a#4 v=0
140880 On ch=1 n=d5 v=36
141118 On ch=1 n=d5 v=0
141120 On ch=1 n=f5 v=36
141358 On ch=1 n=f5 v=0
141360 On ch=1 n=g#5 v=36
141598 On ch=1 n=g#5 v=0
141600 On ch=1 n=b5 v=36
141838 On ch=1 n=b5 v=0
141840 On ch=1 n=d5 v=36
142078 On ch=1 n=d5 v=0
142080 On ch=1 n=d#5 v=36
142438 On ch=1 n=d#5 v=0
142440 On ch=1 n=d5 v=36
142558 On ch=1 n=d5 v=0
142560 On ch=1 n=d#5 v=36
142678 On ch=1 n=d#5 v=0
142680 On ch=1 n=d5 v=36
142798 On ch=1 n=d5 v=0
142800 On ch=1 n=d#5 v=36
142918 On ch=1 n=d#5 v=0
142920 On ch=1 n=d5 v=36
143038 On ch=1 n=d5 v=0
143040 On ch=1 n=d#5 v=36
143518 On ch=1 n=d#5 v=0
147602 On ch=1 n=c6 v=36
147838 On ch=1 n=c6 v=0
147840 On ch=1 n=c#5 v=36
148318 On ch=1 n=c#5 v=0
148562 On ch=1 n=a#5 v=47
148798 On ch=1 n=a#5 v=0
148800 On ch=1 n=c5 v=47
149278 On ch=1 n=c5 v=0
149522 On ch=1 n=g#5 v=47
149758 On ch=1 n=g#5 v=0
150002 On ch=1 n=g#5 v=81
150238 On ch=1 n=g#5 v=0
150482 On ch=1 n=g#5 v=81
150718 On ch=1 n=g#5 v=0
150962 On ch=1 n=g#5 v=81
151198 On ch=1 n=g#5 v=0
151442 On ch=1 n=g#5 v=81
151678 On ch=1 n=g#5 v=0
151680 On ch=1 n=b4 v=55
151798 On ch=1 n=b4 v=0
151800 On ch=1 n=g#5 v=55
151918 On ch=1 n=g#5 v=0
151920 On ch=1 n=b4 v=71
152038 On ch=1 n=b4 v=0
152040 On ch=1 n=g#5 v=55
152158 On ch=1 n=g#5 v=0
152160 On ch=1 n=c5 v=55
152278 On ch=1 n=c5 v=0
152280 On ch=1 n=g#5 v=55
152398 On ch=1 n=g#5 v=0
152400 On ch=1 n=c5 v=71
152518 On ch=1 n=c5 v=0
152520 On ch=1 n=g#5 v=55
152638 On ch=1 n=g#5 v=0
152640 On ch=1 n=d5 v=55
152758 On ch=1 n=d5 v=0
152760 On ch=1 n=g#5 v=55
152878 On ch=1 n=g#5 v=0
152880 On ch=1 n=d5 v=71
152998 On ch=1 n=d5 v=0
153000 On ch=1 n=g#5 v=55
153118 On ch=1 n=g#5 v=0
153120 On ch=1 n=b4 v=55
153238 On ch=1 n=b4 v=0
153240 On ch=1 n=g#5 v=55
153358 On ch=1 n=g#5 v=0
153360 On ch=1 n=b4 v=71
153478 On ch=1 n=b4 v=0
153480 On ch=1 n=g#5 v=55
153598 On ch=1 n=g#5 v=0
153600 On ch=1 n=c5 v=55
153718 On ch=1 n=c5 v=0
153720 On ch=1 n=c6 v=55
153838 On ch=1 n=c6 v=0
153840 On ch=1 n=c5 v=63
153958 On ch=1 n=c5 v=0
153960 On ch=1 n=c6 v=63
154078 On ch=1 n=c6 v=0
154080 On ch=1 n=b4 v=63
154198 On ch=1 n=b4 v=0
154200 On ch=1 n=b5 v=63
154318 On ch=1 n=b5 v=0
154320 On ch=1 n=b4 v=63
154438 On ch=1 n=b4 v=0
154440 On ch=1 n=b5 v=63
154558 On ch=1 n=b5 v=0
154560 On ch=1 n=c5 v=63
154678 On ch=1 n=c5 v=0
154680 On ch=1 n=c6 v=63
154798 On ch=1 n=c6 v=0
154800 On ch=1 n=c5 v=63
154918 On ch=1 n=c5 v=0
154920 On ch=1 n=c6 v=63
155038 On ch=1 n=c6 v=0
155040 On ch=1 n=c#5 v=63
155158 On ch=1 n=c#5 v=0
155160 On ch=1 n=c#6 v=63
155278 On ch=1 n=c#6 v=0
155280 On ch=1 n=c#5 v=63
155398 On ch=1 n=c#5 v=0
155400 On ch=1 n=d6 v=63
155518 On ch=1 n=d6 v=0
155520 On ch=1 n=d5 v=63
155638 On ch=1 n=d5 v=0
155640 On ch=1 n=d6 v=63
155758 On ch=1 n=d6 v=0
155760 On ch=1 n=d5 v=81
155878 On ch=1 n=d5 v=0
155880 On ch=1 n=d6 v=81
155998 On ch=1 n=d6 v=0
156000 On ch=1 n=c#5 v=81
156118 On ch=1 n=c#5 v=0
156120 On ch=1 n=c#6 v=81
156238 On ch=1 n=c#6 v=0
156240 On ch=1 n=c#5 v=81
156358 On ch=1 n=c#5 v=0
156360 On ch=1 n=c#6 v=81
156478 On ch=1 n=c#6 v=0
156480 On ch=1 n=d5 v=81
156598 On ch=1 n=d5 v=0
156600 On ch=1 n=d6 v=81
156718 On ch=1 n=d6 v=0
156720 On ch=1 n=d5 v=81
156838 On ch=1 n=d5 v=0
156840 On ch=1 n=d6 v=81
156958 On ch=1 n=d6 v=0
156960 On ch=1 n=d#5 v=81
157078 On ch=1 n=d#5 v=0
157080 On ch=1 n=d#6 v=81
157198 On ch=1 n=d#6 v=0
157200 On ch=1 n=e5 v=81
157318 On ch=1 n=e5 v=0
157320 On ch=1 n=d#6 v=81
157438 On ch=1 n=d#6 v=0
157440 On ch=1 n=e5 v=81
157558 On ch=1 n=e5 v=0
157560 On ch=1 n=e6 v=81
157678 On ch=1 n=e6 v=0
157680 On ch=1 n=e5 v=81
157798 On ch=1 n=e5 v=0
157800 On ch=1 n=e6 v=81
157918 On ch=1 n=e6 v=0
157920 On ch=1 n=e5 v=81
158038 On ch=1 n=e5 v=0
158040 On ch=1 n=e6 v=81
158158 On ch=1 n=e6 v=0
158160 On ch=1 n=e5 v=81
158278 On ch=1 n=e5 v=0
158280 On ch=1 n=e6 v=81
158398 On ch=1 n=e6 v=0
158400 On ch=1 n=e5 v=81
158518 On ch=1 n=e5 v=0
158520 On ch=1 n=e6 v=81
158638 On ch=1 n=e6 v=0
158640 On ch=1 n=e5 v=81
158758 On ch=1 n=e5 v=0
158760 On ch=1 n=e6 v=81
158878 On ch=1 n=e6 v=0
158880 On ch=1 n=e5 v=81
158998 On ch=1 n=e5 v=0
159000 On ch=1 n=e6 v=81
159118 On ch=1 n=e6 v=0
159120 On ch=1 n=e5 v=81
159238 On ch=1 n=e5 v=0
159240 On ch=1 n=e6 v=81
159358 On ch=1 n=e6 v=0
159360 On ch=1 n=e5 v=81
159478 On ch=1 n=e5 v=0
159480 On ch=1 n=e6 v=81
159598 On ch=1 n=e6 v=0
159600 On ch=1 n=e5 v=81
159718 On ch=1 n=e5 v=0
159720 On ch=1 n=e6 v=81
159838 On ch=1 n=e6 v=0
159840 On ch=1 n=e5 v=81
159958 On ch=1 n=e5 v=0
159960 On ch=1 n=e6 v=81
160078 On ch=1 n=e6 v=0
160080 On ch=1 n=e5 v=81
160198 On ch=1 n=e5 v=0
160200 On ch=1 n=e6 v=81
160318 On ch=1 n=e6 v=0
160320 On ch=1 n=e5 v=81
160438 On ch=1 n=e5 v=0
160440 On ch=1 n=e6 v=81
160558 On ch=1 n=e6 v=0
160560 On ch=1 n=e5 v=81
160678 On ch=1 n=e5 v=0
160680 On ch=1 n=e6 v=81
160798 On ch=1 n=e6 v=0
160800 On ch=1 n=e5 v=81
160918 On ch=1 n=e5 v=0
160920 On ch=1 n=e6 v=81
161038 On ch=1 n=e6 v=0
161040 On ch=1 n=e5 v=81
161158 On ch=1 n=e5 v=0
161160 On ch=1 n=e6 v=81
161278 On ch=1 n=e6 v=0
161280 On ch=1 n=e5 v=81
161398 On ch=1 n=e5 v=0
161400 On ch=1 n=e6 v=81
161518 On ch=1 n=e6 v=0
161520 On ch=1 n=e5 v=81
161638 On ch=1 n=e5 v=0
161640 On ch=1 n=e6 v=81
161758 On ch=1 n=e6 v=0
161760 On ch=1 n=e5 v=81
161878 On ch=1 n=e5 v=0
161880 On ch=1 n=e6 v=81
161998 On ch=1 n=e6 v=0
162000 On ch=1 n=e5 v=81
162118 On ch=1 n=e5 v=0
162120 On ch=1 n=e6 v=81
162238 On ch=1 n=e6 v=0
162240 On ch=1 n=g5 v=81
162358 On ch=1 n=g5 v=0
162360 On ch=1 n=e6 v=81
162478 On ch=1 n=e6 v=0
162480 On ch=1 n=g5 v=81
162598 On ch=1 n=g5 v=0
162600 On ch=1 n=e6 v=81
162718 On ch=1 n=e6 v=0
162720 On ch=1 n=g5 v=81
162838 On ch=1 n=g5 v=0
162840 On ch=1 n=e6 v=81
162958 On ch=1 n=e6 v=0
162960 On ch=1 n=g5 v=81
163078 On ch=1 n=g5 v=0
163080 On ch=1 n=e6 v=81
163198 On ch=1 n=e6 v=0
163200 On ch=1 n=d#6 v=81
164158 On ch=1 n=d#6 v=0
164160 On ch=1 n=f#6 v=47
165118 On ch=1 n=f#6 v=0
165120 On ch=1 n=f#6 v=63
166078 On ch=1 n=f#6 v=0
166080 On ch=1 n=f6 v=47
166558 On ch=1 n=f6 v=0
166560 On ch=1 n=e6 v=36
167038 On ch=1 n=e6 v=0
167040 On ch=1 n=e6 v=36
168958 On ch=1 n=e6 v=0
168960 On ch=1 n=d6 v=103
170398 On ch=1 n=d6 v=0
170400 On ch=1 n=c6 v=105
170878 On ch=1 n=c6 v=0
170880 On ch=1 n=c6 v=105
171838 On ch=1 n=c6 v=0
171840 On ch=1 n=b5 v=105
172798 On ch=1 n=b5 v=0
172800 On ch=1 n=b5 v=105
173758 On ch=1 n=b5 v=0
173760 On ch=1 n=a5 v=89
174718 On ch=1 n=a5 v=0
174720 On ch=1 n=g#5 v=105
174958 On ch=1 n=g#5 v=0
175082 On ch=1 n=e6 v=35
175198 On ch=1 n=e6 v=0
175200 On ch=1 n=d6 v=35
175318 On ch=1 n=d6 v=0
175320 On ch=1 n=e6 v=47
175438 On ch=1 n=e6 v=0
175440 On ch=1 n=f6 v=47
175558 On ch=1 n=f6 v=0
175560 On ch=1 n=e6 v=47
175678 On ch=1 n=e6 v=0
175680 On ch=1 n=d6 v=47
175918 On ch=1 n=d6 v=0
176042 On ch=1 n=e6 v=47
176158 On ch=1 n=e6 v=0
176160 On ch=1 n=c6 v=35
176398 On ch=1 n=c6 v=0
176522 On ch=1 n=d6 v=35
176638 On ch=1 n=d6 v=0
176640 On ch=1 n=b5 v=35
176878 On ch=1 n=b5 v=0
177002 On ch=1 n=e6 v=35
177118 On ch=1 n=e6 v=0
177120 On ch=1 n=d6 v=35
177238 On ch=1 n=d6 v=0
177240 On ch=1 n=e6 v=47
177358 On ch=1 n=e6 v=0
177360 On ch=1 n=f6 v=47
177478 On ch=1 n=f6 v=0
177480 On ch=1 n=e6 v=47
177598 On ch=1 n=e6 v=0
177600 On ch=1 n=d6 v=47
177838 On ch=1 n=d6 v=0
177962 On ch=1 n=g#6 v=63
178078 On ch=1 n=g#6 v=0
178080 On ch=1 n=a6 v=63
178318 On ch=1 n=a6 v=0
178442 On ch=1 n=c6 v=63
178558 On ch=1 n=c6 v=0
178560 On ch=1 n=b5 v=63
178798 On ch=1 n=b5 v=0
178922 On ch=1 n=c6 v=47
179038 On ch=1 n=c6 v=0
179040 On ch=1 n=b5 v=47
179158 On ch=1 n=b5 v=0
179160 On ch=1 n=c6 v=47
179278 On ch=1 n=c6 v=0
179280 On ch=1 n=b5 v=47
179398 On ch=1 n=b5 v=0
179400 On ch=1 n=c6 v=47
179518 On ch=1 n=c6 v=0
179520 On ch=1 n=b5 v=36
179758 On ch=1 n=b5 v=0
180842 On ch=1 n=d#6 v=36
180958 On ch=1 n=d#6 v=0
180960 On ch=1 n=e6 v=36
181078 On ch=1 n=e6 v=0
181080 On ch=1 n=d#6 v=36
181198 On ch=1 n=d#6 v=0
181200 On ch=1 n=e6 v=36
181318 On ch=1 n=e6 v=0
181320 On ch=1 n=d#6 v=36
181438 On ch=1 n=d#6 v=0
181440 On ch=1 n=e6 v=36
181678 On ch=1 n=e6 v=0
182762 On ch=1 n=d#6 v=36
182878 On ch=1 n=d#6 v=0
182880 On ch=1 n=e6 v=36
182998 On ch=1 n=e6 v=0
183000 On ch=1 n=d#6 v=36
183118 On ch=1 n=d#6 v=0
183120 On ch=1 n=e6 v=36
183238 On ch=1 n=e6 v=0
183240 On ch=1 n=d#6 v=36
183358 On ch=1 n=d#6 v=0
183360 On ch=1 n=e6 v=36
183598 On ch=1 n=e6 v=0
183722 On ch=1 n=d#6 v=28
183838 On ch=1 n=d#6 v=0
183840 On ch=1 n=e6 v=28
183958 On ch=1 n=e6 v=0
183960 On ch=1 n=d#6 v=28
184078 On ch=1 n=d#6 v=0
184080 On ch=1 n=e6 v=28
184198 On ch=1 n=e6 v=0
184200 On ch=1 n=d#6 v=28
184318 On ch=1 n=d#6 v=0
184320 On ch=1 n=e6 v=28
184558 On ch=1 n=e6 v=0
184682 On ch=1 n=d#6 v=28
184798 On ch=1 n=d#6 v=0
184800 On ch=1 n=e6 v=36
184918 On ch=1 n=e6 v=0
184920 On ch=1 n=d#6 v=36
185038 On ch=1 n=d#6 v=0
185040 On ch=1 n=e6 v=36
185158 On ch=1 n=e6 v=0
185160 On ch=1 n=f6 v=36
185278 On ch=1 n=f6 v=0
185280 On ch=1 n=g6 v=36
185518 On ch=1 n=g6 v=0
185642 On ch=1 n=f#6 v=36
185758 On ch=1 n=f#6 v=0
185760 On ch=1 n=g6 v=47
185878 On ch=1 n=g6 v=0
185880 On ch=1 n=f#6 v=47
185998 On ch=1 n=f#6 v=0
186000 On ch=1 n=g6 v=47
186118 On ch=1 n=g6 v=0
186120 On ch=1 n=a6 v=47
186238 On ch=1 n=a6 v=0
186240 On ch=1 n=a#6 v=63
186958 On ch=1 n=a#6 v=0
186960 On ch=1 n=a6 v=47
187018 On ch=1 n=a6 v=0
187020 On ch=1 n=g6 v=47
187078 On ch=1 n=g6 v=0
187080 On ch=1 n=f6 v=47
187138 On ch=1 n=f6 v=0
187140 On ch=1 n=e6 v=47
187198 On ch=1 n=e6 v=0
187200 On ch=1 n=d6 v=47
187278 On ch=1 n=d6 v=0
187280 On ch=1 n=a6 v=63
187358 On ch=1 n=a6 v=0
187360 On ch=1 n=g6 v=63
187438 On ch=1 n=g6 v=0
187440 On ch=1 n=f6 v=63
187518 On ch=1 n=f6 v=0
187520 On ch=1 n=e6 v=63
187598 On ch=1 n=e6 v=0
187600 On ch=1 n=d6 v=63
187678 On ch=1 n=d6 v=0
187680 On ch=1 n=c#6 v=63
187758 On ch=1 n=c#6 v=0
187760 On ch=1 n=g6 v=47
187838 On ch=1 n=g6 v=0
187840 On ch=1 n=f6 v=47
187918 On ch=1 n=f6 v=0
187920 On ch=1 n=e6 v=47
187998 On ch=1 n=e6 v=0
188000 On ch=1 n=d6 v=47
188078 On ch=1 n=d6 v=0
188080 On ch=1 n=c#6 v=47
188158 On ch=1 n=c#6 v=0
188160 On ch=1 n=d6 v=63
188238 On ch=1 n=d6 v=0
188240 On ch=1 n=a6 v=63
188318 On ch=1 n=a6 v=0
188320 On ch=1 n=g6 v=63
188398 On ch=1 n=g6 v=0
188400 On ch=1 n=f6 v=63
188478 On ch=1 n=f6 v=0
188480 On ch=1 n=e6 v=63
188558 On ch=1 n=e6 v=0
188560 On ch=1 n=d6 v=63
188638 On ch=1 n=d6 v=0
188640 On ch=1 n=c#6 v=63
188718 On ch=1 n=c#6 v=0
188720 On ch=1 n=g6 v=47
188798 On ch=1 n=g6 v=0
188800 On ch=1 n=f6 v=47
188878 On ch=1 n=f6 v=0
188880 On ch=1 n=e6 v=47
188958 On ch=1 n=e6 v=0
188960 On ch=1 n=d6 v=47
189038 On ch=1 n=d6 v=0
189040 On ch=1 n=c#6 v=47
189118 On ch=1 n=c#6 v=0
189120 On ch=1 n=b5 v=36
189358 On ch=1 n=b5 v=0
189722 On ch=1 n=f6 v=36
189838 On ch=1 n=f6 v=0
189840 On ch=1 n=a6 v=36
189958 On ch=1 n=a6 v=0
189960 On ch=1 n=d7 v=36
190078 On ch=1 n=d7 v=0
190080 On ch=1 n=d7 v=36
190318 On ch=1 n=d7 v=0
191402 On ch=1 n=c#6 v=63
191518 On ch=1 n=c#6 v=0
191520 On ch=1 n=d6 v=63
191638 On ch=1 n=d6 v=0
191640 On ch=1 n=c#6 v=47
191758 On ch=1 n=c#6 v=0
191760 On ch=1 n=d6 v=47
191878 On ch=1 n=d6 v=0
191880 On ch=1 n=e6 v=36
191998 On ch=1 n=e6 v=0
192000 On ch=1 n=f6 v=36
192238 On ch=1 n=f6 v=0
192362 On ch=1 n=e6 v=36
192478 On ch=1 n=e6 v=0
192480 On ch=1 n=f6 v=36
192598 On ch=1 n=f6 v=0
192600 On ch=1 n=e6 v=36
192718 On ch=1 n=e6 v=0
192720 On ch=1 n=f6 v=36
192838 On ch=1 n=f6 v=0
192840 On ch=1 n=g6 v=36
192958 On ch=1 n=g6 v=0
192960 On ch=1 n=g#6 v=36
193198 On ch=1 n=g#6 v=0
194282 On ch=1 n=e5 v=63
194398 On ch=1 n=e5 v=0
194400 On ch=1 n=f5 v=63
194518 On ch=1 n=f5 v=0
194520 On ch=1 n=e5 v=63
194638 On ch=1 n=e5 v=0
194640 On ch=1 n=f5 v=63
194758 On ch=1 n=f5 v=0
194760 On ch=1 n=e5 v=63
194878 On ch=1 n=e5 v=0
194880 On ch=1 n=f5 v=63
195118 On ch=1 n=f5 v=0
195362 On ch=1 n=f6 v=81
195598 On ch=1 n=f6 v=0
195600 On ch=1 n=e6 v=81
195838 On ch=1 n=e6 v=0
195840 On ch=1 n=d6 v=81
196078 On ch=1 n=d6 v=0
196322 On ch=1 n=d7 v=81
196438 On ch=1 n=d7 v=0
196562 On ch=1 n=c7 v=81
196678 On ch=1 n=c7 v=0
196802 On ch=1 n=b6 v=81
196918 On ch=1 n=b6 v=0
197282 On ch=1 n=d7 v=105
197398 On ch=1 n=d7 v=0
197522 On ch=1 n=d7 v=105
197638 On ch=1 n=d7 v=0
197762 On ch=1 n=d7 v=105
198238 On ch=1 n=d7 v=0
199682 On ch=1 n=c6 v=36
199798 On ch=1 n=c6 v=0
200162 On ch=1 n=g5 v=36
200278 On ch=1 n=g5 v=0
200642 On ch=1 n=e5 v=36
200758 On ch=1 n=e5 v=0
201362 On ch=1 n=a5 v=36
201478 On ch=1 n=a5 v=0
201602 On ch=1 n=d5 v=36
201718 On ch=1 n=d5 v=0
202322 On ch=1 n=g5 v=36
202438 On ch=1 n=g5 v=0
202562 On ch=1 n=c5 v=36
202678 On ch=1 n=c5 v=0
203282 On ch=1 n=e6 v=36
203518 On ch=1 n=e6 v=0
203520 On ch=1 n=f5 v=36
203638 On ch=1 n=f5 v=0
204120 On ch=1 n=d6 v=36
204236 On ch=1 n=d6 v=0
204240 On ch=1 n=f5 v=36
204358 On ch=1 n=f5 v=0
204360 On ch=1 n=d6 v=36
204478 On ch=1 n=d6 v=0
204480 On ch=1 n=e5 v=36
204598 On ch=1 n=e5 v=0
205082 On ch=1 n=c6 v=31
205198 On ch=1 n=c6 v=0
205200 On ch=1 n=e5 v=31
205318 On ch=1 n=e5 v=0
205320 On ch=1 n=c6 v=28
205438 On ch=1 n=c6 v=0
205440 On ch=1 n=d5 v=31
205678 On ch=1 n=d5 v=0
205680 On ch=1 n=a5 v=31
205918 On ch=1 n=a5 v=0
205920 On ch=1 n=a4 v=31
206158 On ch=1 n=a4 v=0
206160 On ch=1 n=b4 v=31
206398 On ch=1 n=b4 v=0
206400 On ch=1 n=d5 v=31
206638 On ch=1 n=d5 v=0
206640 On ch=1 n=c5 v=31
206878 On ch=1 n=c5 v=0
207122 On ch=1 n=d5 v=36
207238 On ch=1 n=d5 v=0
207362 On ch=1 n=f5 v=36
207598 On ch=1 n=f5 v=0
207600 On ch=1 n=e5 v=36
207838 On ch=1 n=e5 v=0
208082 On ch=1 n=f5 v=47
208198 On ch=1 n=f5 v=0
208322 On ch=1 n=a5 v=47
208558 On ch=1 n=a5 v=0
208560 On ch=1 n=g5 v=47
208798 On ch=1 n=g5 v=0
208922 On ch=1 n=b5 v=63
209038 On ch=1 n=b5 v=0
209040 On ch=1 n=d5 v=63
209158 On ch=1 n=d5 v=0
209160 On ch=1 n=b5 v=63
209278 On ch=1 n=b5 v=0
209280 On ch=1 n=d6 v=63
209518 On ch=1 n=d6 v=0
209520 On ch=1 n=c6 v=63
209758 On ch=1 n=c6 v=0
209882 On ch=1 n=d6 v=63
209998 On ch=1 n=d6 v=0
210000 On ch=1 n=b5 v=81
210118 On ch=1 n=b5 v=0
210120 On ch=1 n=d6 v=81
210238 On ch=1 n=d6 v=0
210240 On ch=1 n=f6 v=81
210718 On ch=1 n=f6 v=0
210720 On ch=1 n=e6 v=61
210958 On ch=1 n=e6 v=0
211482 On ch=1 n=c7 v=81
211678 On ch=1 n=c7 v=0
212402 On ch=1 n=g6 v=81
212638 On ch=1 n=g6 v=0
213362 On ch=1 n=e6 v=81
213598 On ch=1 n=e6 v=0
214562 On ch=1 n=b6 v=81
214678 On ch=1 n=b6 v=0
214680 On ch=1 n=a6 v=81
214798 On ch=1 n=a6 v=0
214800 On ch=1 n=g#6 v=81
214918 On ch=1 n=g#6 v=0
214920 On ch=1 n=a6 v=81
215038 On ch=1 n=a6 v=0
215040 On ch=1 n=d6 v=81
215158 On ch=1 n=d6 v=0
215762 On ch=1 n=a6 v=81
215818 On ch=1 n=a6 v=0
215820 On ch=1 n=g6 v=81
215878 On ch=1 n=g6 v=0
215880 On ch=1 n=f#6 v=81
215938 On ch=1 n=f#6 v=0
215940 On ch=1 n=g6 v=81
215998 On ch=1 n=g6 v=0
216000 On ch=1 n=c6 v=81
216118 On ch=1 n=c6 v=0
216722 On ch=1 n=e7 v=63
216958 On ch=1 n=e7 v=0
216960 On ch=1 n=f6 v=63
217078 On ch=1 n=f6 v=0
217682 On ch=1 n=d7 v=63
217918 On ch=1 n=d7 v=0
217920 On ch=1 n=e6 v=63
218038 On ch=1 n=e6 v=0
218642 On ch=1 n=c7 v=81
218878 On ch=1 n=c7 v=0
218880 On ch=1 n=d6 v=81
219118 On ch=1 n=d6 v=0
219120 On ch=1 n=a6 v=63
219358 On ch=1 n=a6 v=0
219360 On ch=1 n=g6 v=63
219598 On ch=1 n=g6 v=0
219600 On ch=1 n=b5 v=63
219838 On ch=1 n=b5 v=0
219840 On ch=1 n=c6 v=47
219958 On ch=1 n=c6 v=0
220082 On ch=1 n=c6 v=47
220198 On ch=1 n=c6 v=0
220562 On ch=1 n=a6 v=63
220618 On ch=1 n=a6 v=0
220620 On ch=1 n=g6 v=63
220678 On ch=1 n=g6 v=0
220680 On ch=1 n=f#6 v=63
220738 On ch=1 n=f#6 v=0
220740 On ch=1 n=g6 v=63
220798 On ch=1 n=g6 v=0
220800 On ch=1 n=b5 v=63
220918 On ch=1 n=b5 v=0
221042 On ch=1 n=b5 v=63
221158 On ch=1 n=b5 v=0
221522 On ch=1 n=a6 v=46
221578 On ch=1 n=a6 v=0
221580 On ch=1 n=g6 v=46
221638 On ch=1 n=g6 v=0
221640 On ch=1 n=f#6 v=39
221698 On ch=1 n=f#6 v=0
221700 On ch=1 n=g6 v=39
221758 On ch=1 n=g6 v=0
221760 On ch=1 n=c7 v=39
221998 On ch=1 n=c7 v=0
222000 On ch=1 n=e7 v=39
222238 On ch=1 n=e7 v=0
222362 On ch=1 n=g6 v=63
222418 On ch=1 n=g6 v=0
222482 On ch=1 n=a6 v=63
222538 On ch=1 n=a6 v=0
222540 On ch=1 n=g6 v=63
222598 On ch=1 n=g6 v=0
222600 On ch=1 n=f#6 v=63
222658 On ch=1 n=f#6 v=0
222660 On ch=1 n=g6 v=63
222718 On ch=1 n=g6 v=0
222720 On ch=1 n=b5 v=63
222838 On ch=1 n=b5 v=0
222962 On ch=1 n=b5 v=63
223078 On ch=1 n=b5 v=0
223322 On ch=1 n=g6 v=39
223378 On ch=1 n=g6 v=0
223442 On ch=1 n=a6 v=39
223498 On ch=1 n=a6 v=0
223500 On ch=1 n=g6 v=39
223558 On ch=1 n=g6 v=0
223560 On ch=1 n=f#6 v=39
223618 On ch=1 n=f#6 v=0
223620 On ch=1 n=g6 v=39
223678 On ch=1 n=g6 v=0
223680 On ch=1 n=c7 v=39
223918 On ch=1 n=c7 v=0
223920 On ch=1 n=e7 v=39
224158 On ch=1 n=e7 v=0
224282 On ch=1 n=g6 v=39
224338 On ch=1 n=g6 v=0
224402 On ch=1 n=a6 v=39
224458 On ch=1 n=a6 v=0
224460 On ch=1 n=g6 v=39
224518 On ch=1 n=g6 v=0
224520 On ch=1 n=f#6 v=39
224578 On ch=1 n=f#6 v=0
224580 On ch=1 n=g6 v=39
224638 On ch=1 n=g6 v=0
224640 On ch=1 n=b5 v=39
224758 On ch=1 n=b5 v=0
224882 On ch=1 n=b5 v=39
224998 On ch=1 n=b5 v=0
225362 On ch=1 n=a6 v=47
225418 On ch=1 n=a6 v=0
225420 On ch=1 n=g6 v=47
225478 On ch=1 n=g6 v=0
225480 On ch=1 n=f#6 v=47
225538 On ch=1 n=f#6 v=0
225540 On ch=1 n=g6 v=47
225598 On ch=1 n=g6 v=0
225600 On ch=1 n=c6 v=47
225718 On ch=1 n=c6 v=0
225842 On ch=1 n=a6 v=47
225898 On ch=1 n=a6 v=0
225900 On ch=1 n=g6 v=47
225958 On ch=1 n=g6 v=0
225960 On ch=1 n=f#6 v=47
226018 On ch=1 n=f#6 v=0
226020 On ch=1 n=g6 v=47
226078 On ch=1 n=g6 v=0
226080 On ch=1 n=d6 v=47
226198 On ch=1 n=d6 v=0
226322 On ch=1 n=a6 v=47
226378 On ch=1 n=a6 v=0
226380 On ch=1 n=g6 v=47
226438 On ch=1 n=g6 v=0
226440 On ch=1 n=f#6 v=47
226498 On ch=1 n=f#6 v=0
226500 On ch=1 n=g6 v=47
226558 On ch=1 n=g6 v=0
226560 On ch=1 n=e6 v=47
226678 On ch=1 n=e6 v=0
226802 On ch=1 n=a6 v=63
226858 On ch=1 n=a6 v=0
226860 On ch=1 n=g6 v=63
226918 On ch=1 n=g6 v=0
226920 On ch=1 n=f#6 v=63
226978 On ch=1 n=f#6 v=0
226980 On ch=1 n=g6 v=63
227038 On ch=1 n=g6 v=0
227040 On ch=1 n=b5 v=63
227158 On ch=1 n=b5 v=0
227282 On ch=1 n=g#6 v=63
227338 On ch=1 n=g#6 v=0
227340 On ch=1 n=g6 v=63
227398 On ch=1 n=g6 v=0
227400 On ch=1 n=f#6 v=63
227458 On ch=1 n=f#6 v=0
227460 On ch=1 n=g6 v=63
227518 On ch=1 n=g6 v=0
227520 On ch=1 n=c6 v=63
227638 On ch=1 n=c6 v=0
227762 On ch=1 n=g#6 v=63
227818 On ch=1 n=g#6 v=0
227820 On ch=1 n=g6 v=63
227878 On ch=1 n=g6 v=0
227880 On ch=1 n=f#6 v=63
227938 On ch=1 n=f#6 v=0
227940 On ch=1 n=g6 v=63
227998 On ch=1 n=g6 v=0
228000 On ch=1 n=d6 v=63
228118 On ch=1 n=d6 v=0
228242 On ch=1 n=g#6 v=63
228298 On ch=1 n=g#6 v=0
228300 On ch=1 n=g6 v=63
228358 On ch=1 n=g6 v=0
228360 On ch=1 n=f#6 v=63
228418 On ch=1 n=f#6 v=0
228420 On ch=1 n=g6 v=63
228478 On ch=1 n=g6 v=0
228480 On ch=1 n=d#6 v=63
228598 On ch=1 n=d#6 v=0
228722 On ch=1 n=d7 v=63
228778 On ch=1 n=d7 v=0
228780 On ch=1 n=c7 v=63
228838 On ch=1 n=c7 v=0
228840 On ch=1 n=b6 v=63
228898 On ch=1 n=b6 v=0
228900 On ch=1 n=c7 v=63
228958 On ch=1 n=c7 v=0
228960 On ch=1 n=g6 v=63
229078 On ch=1 n=g6 v=0
229202 On ch=1 n=f7 v=63
229258 On ch=1 n=f7 v=0
229260 On ch=1 n=d#7 v=63
229318 On ch=1 n=d#7 v=0
229320 On ch=1 n=d7 v=63
229378 On ch=1 n=d7 v=0
229380 On ch=1 n=d#7 v=63
229438 On ch=1 n=d#7 v=0
229562 On ch=1 n=b6 v=81
229678 On ch=1 n=b6 v=0
229680 On ch=1 n=d7 v=81
229798 On ch=1 n=d7 v=0
229800 On ch=1 n=c7 v=81
229918 On ch=1 n=c7 v=0
229920 On ch=1 n=a#6 v=81
230038 On ch=1 n=a#6 v=0
230040 On ch=1 n=g#6 v=81
230158 On ch=1 n=g#6 v=0
230160 On ch=1 n=g6 v=81
230278 On ch=1 n=g6 v=0
230280 On ch=1 n=f#6 v=81
230398 On ch=1 n=f#6 v=0
230400 On ch=1 n=g6 v=81
230518 On ch=1 n=g6 v=0
230520 On ch=1 n=f#6 v=81
230638 On ch=1 n=f#6 v=0
230640 On ch=1 n=g6 v=81
230758 On ch=1 n=g6 v=0
230760 On ch=1 n=d6 v=81
230878 On ch=1 n=d6 v=0
230880 On ch=1 n=d#6 v=81
230998 On ch=1 n=d#6 v=0
231000 On ch=1 n=d6 v=81
231118 On ch=1 n=d6 v=0
231120 On ch=1 n=d#6 v=81
231238 On ch=1 n=d#6 v=0
231240 On ch=1 n=b5 v=81
231358 On ch=1 n=b5 v=0
231360 On ch=1 n=c6 v=81
231478 On ch=1 n=c6 v=0
231480 On ch=1 n=b5 v=81
231598 On ch=1 n=b5 v=0
231600 On ch=1 n=c6 v=81
231718 On ch=1 n=c6 v=0
231720 On ch=1 n=g5 v=81
231838 On ch=1 n=g5 v=0
231840 On ch=1 n=g#5 v=81
231958 On ch=1 n=g#5 v=0
231960 On ch=1 n=g5 v=81
232078 On ch=1 n=g5 v=0
232080 On ch=1 n=g#5 v=81
232198 On ch=1 n=g#5 v=0
232200 On ch=1 n=f#5 v=81
232318 On ch=1 n=f#5 v=0
232320 On ch=1 n=g5 v=81
232438 On ch=1 n=g5 v=0
232440 On ch=1 n=f#5 v=81
232558 On ch=1 n=f#5 v=0
232560 On ch=1 n=g5 v=81
232678 On ch=1 n=g5 v=0
232680 On ch=1 n=d5 v=81
232798 On ch=1 n=d5 v=0
232800 On ch=1 n=d#5 v=81
232918 On ch=1 n=d#5 v=0
232920 On ch=1 n=d5 v=81
233038 On ch=1 n=d5 v=0
233040 On ch=1 n=d#5 v=81
233158 On ch=1 n=d#5 v=0
233160 On ch=1 n=b4 v=81
233278 On ch=1 n=b4 v=0
236402 On ch=1 n=e6 v=36
236878 On ch=1 n=e6 v=0
236880 On ch=1 n=g6 v=36
237358 On ch=1 n=g6 v=0
237360 On ch=1 n=c7 v=36
237838 On ch=1 n=c7 v=0
237840 On ch=1 n=c#7 v=36
238318 On ch=1 n=c#7 v=0
238320 On ch=1 n=d7 v=36
238798 On ch=1 n=d7 v=0
238800 On ch=1 n=b6 v=36
239278 On ch=1 n=b6 v=0
239280 On ch=1 n=c7 v=36
239758 On ch=1 n=c7 v=0
239760 On ch=1 n=g#6 v=36
240238 On ch=1 n=g#6 v=0
240240 On ch=1 n=a6 v=36
240718 On ch=1 n=a6 v=0
240720 On ch=1 n=f7 v=36
241198 On ch=1 n=f7 v=0
241200 On ch=1 n=g#6 v=36
241678 On ch=1 n=g#6 v=0
241680 On ch=1 n=e7 v=36
242158 On ch=1 n=e7 v=0
242160 On ch=1 n=f6 v=36
242638 On ch=1 n=f6 v=0
242640 On ch=1 n=d7 v=36
243118 On ch=1 n=d7 v=0
243120 On ch=1 n=d6 v=36
243598 On ch=1 n=d6 v=0
243600 On ch=1 n=c7 v=36
244078 On ch=1 n=c7 v=0
244080 On ch=1 n=d6 v=36
244558 On ch=1 n=d6 v=0
244560 On ch=1 n=c6 v=36
244798 On ch=1 n=c6 v=0
244800 On ch=1 n=b5 v=47
244918 On ch=1 n=b5 v=0
244920 On ch=1 n=g6 v=47
245038 On ch=1 n=g6 v=0
245040 On ch=1 n=f6 v=47
245158 On ch=1 n=f6 v=0
245160 On ch=1 n=d6 v=47
245278 On ch=1 n=d6 v=0
245280 On ch=1 n=b5 v=47
245518 On ch=1 n=b5 v=0
245882 On ch=1 n=g6 v=47
245998 On ch=1 n=g6 v=0
246000 On ch=1 n=e6 v=47
246118 On ch=1 n=e6 v=0
246120 On ch=1 n=c6 v=47
246238 On ch=1 n=c6 v=0
246240 On ch=1 n=g5 v=47
246478 On ch=1 n=g5 v=0
246842 On ch=1 n=g6 v=47
246958 On ch=1 n=g6 v=0
246960 On ch=1 n=f6 v=47
247078 On ch=1 n=f6 v=0
247080 On ch=1 n=d6 v=47
247198 On ch=1 n=d6 v=0
247200 On ch=1 n=b5 v=47
247438 On ch=1 n=b5 v=0
247802 On ch=1 n=e6 v=63
247918 On ch=1 n=e6 v=0
247920 On ch=1 n=c6 v=63
248038 On ch=1 n=c6 v=0
248040 On ch=1 n=g5 v=63
248158 On ch=1 n=g5 v=0
248160 On ch=1 n=e5 v=63
248278 On ch=1 n=e5 v=0
248280 On ch=1 n=g6 v=63
248398 On ch=1 n=g6 v=0
248400 On ch=1 n=e6 v=63
248518 On ch=1 n=e6 v=0
248520 On ch=1 n=c6 v=63
248638 On ch=1 n=c6 v=0
248640 On ch=1 n=g5 v=63
248758 On ch=1 n=g5 v=0
248760 On ch=1 n=c7 v=81
248878 On ch=1 n=c7 v=0
248880 On ch=1 n=g6 v=81
248998 On ch=1 n=g6 v=0
249000 On ch=1 n=e6 v=81
249118 On ch=1 n=e6 v=0
249120 On ch=1 n=c6 v=81
249238 On ch=1 n=c6 v=0
249240 On ch=1 n=e7 v=81
249358 On ch=1 n=e7 v=0
249360 On ch=1 n=c7 v=81
249478 On ch=1 n=c7 v=0
249480 On ch=1 n=g#6 v=81
249598 On ch=1 n=g#6 v=0
249600 On ch=1 n=a6 v=81
249718 On ch=1 n=a6 v=0
249720 On ch=1 n=b6 v=81
249838 On ch=1 n=b6 v=0
249840 On ch=1 n=c7 v=81
249958 On ch=1 n=c7 v=0
249960 On ch=1 n=e6 v=81
250078 On ch=1 n=e6 v=0
250080 On ch=1 n=f6 v=63
250198 On ch=1 n=f6 v=0
250200 On ch=1 n=g#6 v=63
250318 On ch=1 n=g#6 v=0
250320 On ch=1 n=a6 v=63
250438 On ch=1 n=a6 v=0
250440 On ch=1 n=c#6 v=63
250558 On ch=1 n=c#6 v=0
250560 On ch=1 n=d6 v=47
250678 On ch=1 n=d6 v=0
250680 On ch=1 n=e6 v=47
250798 On ch=1 n=e6 v=0
250800 On ch=1 n=f6 v=47
250918 On ch=1 n=f6 v=0
250920 On ch=1 n=e5 v=47
251038 On ch=1 n=e5 v=0
251040 On ch=1 n=f5 v=47
251158 On ch=1 n=f5 v=0
251160 On ch=1 n=c#6 v=47
251278 On ch=1 n=c#6 v=0
251280 On ch=1 n=d6 v=47
251398 On ch=1 n=d6 v=0
251642 On ch=1 n=g5 v=47
251758 On ch=1 n=g5 v=0
251760 On ch=1 n=g#5 v=47
251878 On ch=1 n=g#5 v=0
251880 On ch=1 n=a5 v=47
251998 On ch=1 n=a5 v=0
252000 On ch=1 n=a#5 v=47
252118 On ch=1 n=a#5 v=0
252120 On ch=1 n=b5 v=47
252238 On ch=1 n=b5 v=0
252240 On ch=1 n=c6 v=47
252358 On ch=1 n=c6 v=0
252360 On ch=1 n=c#6 v=47
252478 On ch=1 n=c#6 v=0
252480 On ch=1 n=d6 v=63
252598 On ch=1 n=d6 v=0
252600 On ch=1 n=d#6 v=63
252718 On ch=1 n=d#6 v=0
252720 On ch=1 n=e6 v=63
252838 On ch=1 n=e6 v=0
252840 On ch=1 n=f6 v=63
252958 On ch=1 n=f6 v=0
252960 On ch=1 n=f#6 v=63
253078 On ch=1 n=f#6 v=0
253080 On ch=1 n=g6 v=63
253198 On ch=1 n=g6 v=0
253200 On ch=1 n=e6 v=63
253318 On ch=1 n=e6 v=0
253320 On ch=1 n=c6 v=63
253438 On ch=1 n=c6 v=0
253440 On ch=1 n=e6 v=63
253498 On ch=1 n=e6 v=0
253500 On ch=1 n=d6 v=63
253558 On ch=1 n=d6 v=0
253560 On ch=1 n=e6 v=63
253618 On ch=1 n=e6 v=0
253620 On ch=1 n=d6 v=63
253678 On ch=1 n=d6 v=0
253680 On ch=1 n=e6 v=63
253738 On ch=1 n=e6 v=0
253740 On ch=1 n=d6 v=63
253798 On ch=1 n=d6 v=0
253800 On ch=1 n=e6 v=63
253858 On ch=1 n=e6 v=0
253860 On ch=1 n=d6 v=63
253918 On ch=1 n=d6 v=0
253920 On ch=1 n=e6 v=63
253978 On ch=1 n=e6 v=0
253980 On ch=1 n=d6 v=63
254038 On ch=1 n=d6 v=0
254040 On ch=1 n=e6 v=63
254098 On ch=1 n=e6 v=0
254100 On ch=1 n=d6 v=63
254158 On ch=1 n=d6 v=0
254160 On ch=1 n=e6 v=63
254218 On ch=1 n=e6 v=0
254220 On ch=1 n=d6 v=63
254278 On ch=1 n=d6 v=0
254280 On ch=1 n=e6 v=63
254338 On ch=1 n=e6 v=0
254340 On ch=1 n=d6 v=63
254398 On ch=1 n=d6 v=0
254400 On ch=1 n=e6 v=63
254458 On ch=1 n=e6 v=0
254460 On ch=1 n=d6 v=63
254518 On ch=1 n=d6 v=0
254520 On ch=1 n=e6 v=63
254578 On ch=1 n=e6 v=0
254580 On ch=1 n=d6 v=63
254638 On ch=1 n=d6 v=0
254640 On ch=1 n=e6 v=63
254698 On ch=1 n=e6 v=0
254700 On ch=1 n=d6 v=63
254758 On ch=1 n=d6 v=0
254760 On ch=1 n=e6 v=63
254818 On ch=1 n=e6 v=0
254820 On ch=1 n=d6 v=63
254878 On ch=1 n=d6 v=0
254880 On ch=1 n=e6 v=63
254938 On ch=1 n=e6 v=0
254940 On ch=1 n=d6 v=63
254998 On ch=1 n=d6 v=0
255000 On ch=1 n=e6 v=63
255058 On ch=1 n=e6 v=0
255060 On ch=1 n=d6 v=63
255118 On ch=1 n=d6 v=0
255120 On ch=1 n=c6 v=63
255238 On ch=1 n=c6 v=0
255240 On ch=1 n=d6 v=63
255358 On ch=1 n=d6 v=0
255482 On ch=1 n=e6 v=47
255598 On ch=1 n=e6 v=0
255600 On ch=1 n=d6 v=47
255658 On ch=1 n=d6 v=0
255722 On ch=1 n=f6 v=47
255838 On ch=1 n=f6 v=0
255840 On ch=1 n=e6 v=47
255898 On ch=1 n=e6 v=0
255962 On ch=1 n=g6 v=63
256078 On ch=1 n=g6 v=0
256080 On ch=1 n=f6 v=63
256138 On ch=1 n=f6 v=0
256202 On ch=1 n=a6 v=63
256318 On ch=1 n=a6 v=0
256320 On ch=1 n=g6 v=63
256438 On ch=1 n=g6 v=0
256682 On ch=1 n=f6 v=47
256798 On ch=1 n=f6 v=0
256800 On ch=1 n=e6 v=47
256918 On ch=1 n=e6 v=0
257162 On ch=1 n=d6 v=47
257278 On ch=1 n=d6 v=0
257280 On ch=1 n=c6 v=36
257338 On ch=1 n=c6 v=0
257402 On ch=1 n=e6 v=36
257518 On ch=1 n=e6 v=0
257520 On ch=1 n=d6 v=36
257578 On ch=1 n=d6 v=0
257642 On ch=1 n=f6 v=36
257758 On ch=1 n=f6 v=0
257760 On ch=1 n=e6 v=36
257818 On ch=1 n=e6 v=0
257882 On ch=1 n=g6 v=47
257998 On ch=1 n=g6 v=0
258000 On ch=1 n=f6 v=47
258058 On ch=1 n=f6 v=0
258122 On ch=1 n=a6 v=47
258238 On ch=1 n=a6 v=0
258240 On ch=1 n=g6 v=47
258358 On ch=1 n=g6 v=0
258602 On ch=1 n=f6 v=36
258718 On ch=1 n=f6 v=0
258720 On ch=1 n=e6 v=36
258838 On ch=1 n=e6 v=0
259082 On ch=1 n=d6 v=36
259198 On ch=1 n=d6 v=0
259200 On ch=1 n=c6 v=36
259258 On ch=1 n=c6 v=0
259322 On ch=1 n=e6 v=36
259438 On ch=1 n=e6 v=0
259440 On ch=1 n=d6 v=36
259498 On ch=1 n=d6 v=0
259562 On ch=1 n=f6 v=47
259678 On ch=1 n=f6 v=0
259680 On ch=1 n=e6 v=47
259738 On ch=1 n=e6 v=0
259802 On ch=1 n=g6 v=47
259918 On ch=1 n=g6 v=0
259920 On ch=1 n=f6 v=47
259978 On ch=1 n=f6 v=0
260042 On ch=1 n=a6 v=47
260158 On ch=1 n=a6 v=0
260160 On ch=1 n=g6 v=47
260278 On ch=1 n=g6 v=0
260522 On ch=1 n=f6 v=47
260638 On ch=1 n=f6 v=0
260640 On ch=1 n=e6 v=47
260758 On ch=1 n=e6 v=0
261002 On ch=1 n=d6 v=47
261118 On ch=1 n=d6 v=0
261120 On ch=1 n=c6 v=47
262078 On ch=1 n=c6 v=0
262080 On ch=1 n=c#6 v=63
263518 On ch=1 n=c#6 v=0
263520 On ch=1 n=c6 v=47
263998 On ch=1 n=c6 v=0
264000 On ch=1 n=b5 v=63
264958 On ch=1 n=b5 v=0
264960 On ch=1 n=a#5 v=47
265918 On ch=1 n=a#5 v=0
265920 On ch=1 n=a5 v=63
267838 On ch=1 n=a5 v=0
267840 On ch=1 n=a5 v=81
268798 On ch=1 n=a5 v=0
268800 On ch=1 n=g5 v=73
271198 On ch=1 n=g5 v=0
271402 On ch=1 n=e6 v=81
271678 On ch=1 n=e6 v=0
271882 On ch=1 n=f6 v=81
272158 On ch=1 n=f6 v=0
272362 On ch=1 n=e6 v=81
272638 On ch=1 n=e6 v=0
272640 On ch=1 n=a6 v=81
272878 On ch=1 n=a6 v=0
273602 On ch=1 n=d5 v=31
273958 On ch=1 n=d5 v=0
273960 On ch=1 n=e5 v=31
274078 On ch=1 n=e5 v=0
274080 On ch=1 n=f5 v=31
274438 On ch=1 n=f5 v=0
274440 On ch=1 n=g5 v=31
274558 On ch=1 n=g5 v=0
274560 On ch=1 n=e5 v=31
275038 On ch=1 n=e5 v=0
275242 On ch=1 n=e6 v=81
275518 On ch=1 n=e6 v=0
275722 On ch=1 n=f6 v=81
275998 On ch=1 n=f6 v=0
276202 On ch=1 n=e6 v=81
276478 On ch=1 n=e6 v=0
276480 On ch=1 n=a6 v=81
276718 On ch=1 n=a6 v=0
277442 On ch=1 n=b4 v=47
277598 On ch=1 n=b4 v=0
277600 On ch=1 n=d5 v=47
277758 On ch=1 n=d5 v=0
277760 On ch=1 n=f5 v=47
277918 On ch=1 n=f5 v=0
277920 On ch=1 n=a5 v=47
278078 On ch=1 n=a5 v=0
278080 On ch=1 n=g5 v=47
278238 On ch=1 n=g5 v=0
278240 On ch=1 n=f5 v=47
278398 On ch=1 n=f5 v=0
278400 On ch=1 n=e5 v=47
278638 On ch=1 n=e5 v=0
278640 On ch=1 n=g5 v=81
278718 On ch=1 n=g5 v=0
278720 On ch=1 n=c6 v=81
278798 On ch=1 n=c6 v=0
278800 On ch=1 n=e6 v=81
278878 On ch=1 n=e6 v=0
278880 On ch=1 n=g5 v=81
278958 On ch=1 n=g5 v=0
278960 On ch=1 n=d6 v=81
279038 On ch=1 n=d6 v=0
279040 On ch=1 n=f6 v=81
279118 On ch=1 n=f6 v=0
279120 On ch=1 n=g5 v=81
279198 On ch=1 n=g5 v=0
279200 On ch=1 n=c6 v=81
279278 On ch=1 n=c6 v=0
279280 On ch=1 n=e6 v=81
279358 On ch=1 n=e6 v=0
279360 On ch=1 n=a5 v=81
279438 On ch=1 n=a5 v=0
279440 On ch=1 n=a6 v=81
279518 On ch=1 n=a6 v=0
279520 On ch=1 n=g6 v=81
279598 On ch=1 n=g6 v=0
279600 On ch=1 n=f6 v=81
279678 On ch=1 n=f6 v=0
279680 On ch=1 n=e6 v=81
279758 On ch=1 n=e6 v=0
279760 On ch=1 n=d6 v=81
279838 On ch=1 n=d6 v=0
279840 On ch=1 n=c#6 v=81
279918 On ch=1 n=c#6 v=0
279920 On ch=1 n=d6 v=81
279998 On ch=1 n=d6 v=0
280000 On ch=1 n=a6 v=81
280078 On ch=1 n=a6 v=0
280080 On ch=1 n=g6 v=81
280158 On ch=1 n=g6 v=0
280160 On ch=1 n=f6 v=81
280238 On ch=1 n=f6 v=0
280240 On ch=1 n=e6 v=81
280318 On ch=1 n=e6 v=0
280320 On ch=1 n=d6 v=81
280398 On ch=1 n=d6 v=0
280400 On ch=1 n=c#6 v=81
280478 On ch=1 n=c#6 v=0
280480 On ch=1 n=a6 v=81
280558 On ch=1 n=a6 v=0
280560 On ch=1 n=g6 v=81
280638 On ch=1 n=g6 v=0
280640 On ch=1 n=f6 v=81
280718 On ch=1 n=f6 v=0
280720 On ch=1 n=e6 v=81
280798 On ch=1 n=e6 v=0
280800 On ch=1 n=d6 v=81
280878 On ch=1 n=d6 v=0
280880 On ch=1 n=c#6 v=81
280958 On ch=1 n=c#6 v=0
280960 On ch=1 n=a6 v=81
281038 On ch=1 n=a6 v=0
281040 On ch=1 n=g6 v=81
281118 On ch=1 n=g6 v=0
281120 On ch=1 n=f6 v=81
281198 On ch=1 n=f6 v=0
281200 On ch=1 n=e6 v=81
281278 On ch=1 n=e6 v=0
281280 On ch=1 n=d6 v=81
281358 On ch=1 n=d6 v=0
281360 On ch=1 n=c#6 v=81
281438 On ch=1 n=c#6 v=0
281440 On ch=1 n=a6 v=81
281518 On ch=1 n=a6 v=0
281520 On ch=1 n=g6 v=81
281598 On ch=1 n=g6 v=0
281600 On ch=1 n=f6 v=81
281678 On ch=1 n=f6 v=0
281680 On ch=1 n=e6 v=81
281758 On ch=1 n=e6 v=0
281760 On ch=1 n=d6 v=81
281838 On ch=1 n=d6 v=0
281840 On ch=1 n=a6 v=81
281918 On ch=1 n=a6 v=0
281920 On ch=1 n=g6 v=81
281998 On ch=1 n=g6 v=0
282000 On ch=1 n=f6 v=81
282078 On ch=1 n=f6 v=0
282080 On ch=1 n=e6 v=81
282158 On ch=1 n=e6 v=0
282160 On ch=1 n=d6 v=81
282238 On ch=1 n=d6 v=0
282240 On ch=1 n=e6 v=105
282318 On ch=1 n=e6 v=0
282320 On ch=1 n=g6 v=105
282398 On ch=1 n=g6 v=0
282400 On ch=1 n=f6 v=105
282478 On ch=1 n=f6 v=0
282480 On ch=1 n=e6 v=105
282558 On ch=1 n=e6 v=0
282560 On ch=1 n=d6 v=105
282638 On ch=1 n=d6 v=0
282640 On ch=1 n=c6 v=105
282718 On ch=1 n=c6 v=0
282720 On ch=1 n=b5 v=105
282798 On ch=1 n=b5 v=0
282800 On ch=1 n=a5 v=105
282878 On ch=1 n=a5 v=0
282880 On ch=1 n=g5 v=105
282958 On ch=1 n=g5 v=0
282960 On ch=1 n=g6 v=105
283038 On ch=1 n=g6 v=0
283040 On ch=1 n=e6 v=105
283118 On ch=1 n=e6 v=0
283120 On ch=1 n=c6 v=105
283198 On ch=1 n=c6 v=0
283200 On ch=1 n=e6 v=105
283258 On ch=1 n=e6 v=0
283260 On ch=1 n=d6 v=105
283318 On ch=1 n=d6 v=0
283320 On ch=1 n=e6 v=105
283378 On ch=1 n=e6 v=0
283380 On ch=1 n=d6 v=105
283438 On ch=1 n=d6 v=0
283440 On ch=1 n=e6 v=105
283498 On ch=1 n=e6 v=0
283500 On ch=1 n=d6 v=81
283558 On ch=1 n=d6 v=0
283560 On ch=1 n=e6 v=81
283618 On ch=1 n=e6 v=0
283620 On ch=1 n=d6 v=81
283678 On ch=1 n=d6 v=0
283680 On ch=1 n=e6 v=81
283738 On ch=1 n=e6 v=0
283740 On ch=1 n=d6 v=81
283798 On ch=1 n=d6 v=0
283800 On ch=1 n=e6 v=81
283858 On ch=1 n=e6 v=0
283860 On ch=1 n=d6 v=81
283918 On ch=1 n=d6 v=0
283920 On ch=1 n=c6 v=63
284038 On ch=1 n=c6 v=0
284040 On ch=1 n=d6 v=63
284158 On ch=1 n=d6 v=0
284160 On ch=1 n=c6 v=63
284278 On ch=1 n=c6 v=0
284402 On ch=1 n=g6 v=63
284518 On ch=1 n=g6 v=0
284882 On ch=1 n=c7 v=63
284998 On ch=1 n=c7 v=0
285362 On ch=1 n=g6 v=63
285478 On ch=1 n=g6 v=0
285480 On ch=1 n=e7 v=63
285598 On ch=1 n=e7 v=0
285600 On ch=1 n=d7 v=63
285718 On ch=1 n=d7 v=0
285720 On ch=1 n=c7 v=63
285838 On ch=1 n=c7 v=0
285840 On ch=1 n=b6 v=63
285958 On ch=1 n=b6 v=0
285960 On ch=1 n=a6 v=63
286078 On ch=1 n=a6 v=0
286080 On ch=1 n=g6 v=63
286678 On ch=1 n=g6 v=0
286680 On ch=1 n=g#6 v=63
286798 On ch=1 n=g#6 v=0
286800 On ch=1 n=a6 v=63
286918 On ch=1 n=a6 v=0
286920 On ch=1 n=a#6 v=81
287038 On ch=1 n=a#6 v=0
287040 On ch=1 n=b6 v=81
287158 On ch=1 n=b6 v=0
287160 On ch=1 n=c7 v=81
287278 On ch=1 n=c7 v=0
287280 On ch=1 n=c#7 v=81
287398 On ch=1 n=c#7 v=0
287400 On ch=1 n=d7 v=81
287518 On ch=1 n=d7 v=0
287520 On ch=1 n=e7 v=63
287638 On ch=1 n=e7 v=0
287640 On ch=1 n=d7 v=47
287758 On ch=1 n=d7 v=0
287760 On ch=1 n=b6 v=47
287878 On ch=1 n=b6 v=0
287880 On ch=1 n=f6 v=47
287998 On ch=1 n=f6 v=0
288000 On ch=1 n=e6 v=36
288118 On ch=1 n=e6 v=0
288242 On ch=1 n=g6 v=36
288358 On ch=1 n=g6 v=0
288722 On ch=1 n=d7 v=36
288778 On ch=1 n=d7 v=0
288780 On ch=1 n=c7 v=36
288838 On ch=1 n=c7 v=0
288840 On ch=1 n=b6 v=36
288898 On ch=1 n=b6 v=0
288900 On ch=1 n=c7 v=36
288958 On ch=1 n=c7 v=0
289202 On ch=1 n=g6 v=63
289318 On ch=1 n=g6 v=0
289320 On ch=1 n=e7 v=63
289438 On ch=1 n=e7 v=0
289440 On ch=1 n=d7 v=63
289558 On ch=1 n=d7 v=0
289560 On ch=1 n=c7 v=63
289678 On ch=1 n=c7 v=0
289680 On ch=1 n=b6 v=63
289798 On ch=1 n=b6 v=0
289800 On ch=1 n=a6 v=63
289918 On ch=1 n=a6 v=0
289920 On ch=1 n=g6 v=63
290518 On ch=1 n=g6 v=0
290520 On ch=1 n=g#6 v=63
290638 On ch=1 n=g#6 v=0
290640 On ch=1 n=a6 v=81
290758 On ch=1 n=a6 v=0
290760 On ch=1 n=a#6 v=81
290878 On ch=1 n=a#6 v=0
290880 On ch=1 n=b6 v=81
290998 On ch=1 n=b6 v=0
291000 On ch=1 n=c7 v=81
291118 On ch=1 n=c7 v=0
291120 On ch=1 n=c#7 v=81
291238 On ch=1 n=c#7 v=0
291240 On ch=1 n=d7 v=81
291358 On ch=1 n=d7 v=0
291360 On ch=1 n=e7 v=81
291478 On ch=1 n=e7 v=0
291480 On ch=1 n=d7 v=81
291598 On ch=1 n=d7 v=0
291600 On ch=1 n=b6 v=81
291718 On ch=1 n=b6 v=0
291720 On ch=1 n=f6 v=81
291838 On ch=1 n=f6 v=0
291840 On ch=1 n=e6 v=81
291958 On ch=1 n=e6 v=0
291960 On ch=1 n=f6 v=81
292078 On ch=1 n=f6 v=0
292080 On ch=1 n=f#6 v=81
292198 On ch=1 n=f#6 v=0
292200 On ch=1 n=g6 v=81
292318 On ch=1 n=g6 v=0
292320 On ch=1 n=a6 v=81
292438 On ch=1 n=a6 v=0
292440 On ch=1 n=g6 v=81
292558 On ch=1 n=g6 v=0
292560 On ch=1 n=e6 v=81
292678 On ch=1 n=e6 v=0
292680 On ch=1 n=c6 v=81
292798 On ch=1 n=c6 v=0
292800 On ch=1 n=b5 v=81
292918 On ch=1 n=b5 v=0
292920 On ch=1 n=c6 v=81
293038 On ch=1 n=c6 v=0
293040 On ch=1 n=c#6 v=81
293158 On ch=1 n=c#6 v=0
293160 On ch=1 n=d6 v=81
293278 On ch=1 n=d6 v=0
293280 On ch=1 n=e6 v=81
293398 On ch=1 n=e6 v=0
293400 On ch=1 n=d6 v=81
293518 On ch=1 n=d6 v=0
293520 On ch=1 n=b5 v=81
293638 On ch=1 n=b5 v=0
293640 On ch=1 n=g5 v=81
293758 On ch=1 n=g5 v=0
293760 On ch=1 n=c6 v=81
293878 On ch=1 n=c6 v=0
294002 On ch=1 n=d6 v=47
294238 On ch=1 n=d6 v=0
294240 On ch=1 n=e6 v=47
294478 On ch=1 n=e6 v=0
294480 On ch=1 n=f6 v=47
294718 On ch=1 n=f6 v=0
294720 On ch=1 n=g6 v=47
294958 On ch=1 n=g6 v=0
294960 On ch=1 n=d6 v=81
295078 On ch=1 n=d6 v=0
295202 On ch=1 n=c6 v=81
295318 On ch=1 n=c6 v=0
295442 On ch=1 n=b5 v=81
295558 On ch=1 n=b5 v=0
295682 On ch=1 n=c6 v=81
295798 On ch=1 n=c6 v=0
295922 On ch=1 n=d6 v=47
296158 On ch=1 n=d6 v=0
296160 On ch=1 n=e6 v=47
296398 On ch=1 n=e6 v=0
296400 On ch=1 n=f6 v=47
296638 On ch=1 n=f6 v=0
296640 On ch=1 n=g6 v=47
296758 On ch=1 n=g6 v=0
296882 On ch=1 n=d6 v=81
296998 On ch=1 n=d6 v=0
297122 On ch=1 n=c6 v=81
297238 On ch=1 n=c6 v=0
297362 On ch=1 n=b5 v=81
297478 On ch=1 n=b5 v=0
297602 On ch=1 n=c6 v=81
297838 On ch=1 n=c6 v=0
298802 On ch=1 n=b6 v=105
299038 On ch=1 n=b6 v=0
299520 Par ch=1 c=64 v=127
299802 On ch=1 n=c7 v=105
299998 On ch=1 n=c7 v=0
300958 Par ch=1 c=64 v=0
303362 On ch=1 n=a4 v=63
303480 On ch=1 n=a4 v=0
303482 On ch=1 n=c5 v=63
303600 On ch=1 n=c5 v=0
303602 On ch=1 n=f5 v=63
304440 On ch=1 n=f5 v=0
304442 On ch=1 n=c5 v=63
304560 On ch=1 n=c5 v=0
304562 On ch=1 n=f5 v=63
304680 On ch=1 n=f5 v=0
304682 On ch=1 n=a5 v=63
304800 On ch=1 n=a5 v=0
304802 On ch=1 n=c6 v=63
305160 On ch=1 n=c6 v=0
305162 On ch=1 n=a5 v=63
305280 On ch=1 n=a5 v=0
305282 On ch=1 n=c6 v=63
305520 On ch=1 n=c6 v=0
305522 On ch=1 n=a#5 v=47
305760 On ch=1 n=a#5 v=0
305762 On ch=1 n=g5 v=47
306000 On ch=1 n=g5 v=0
306002 On ch=1 n=e5 v=47
306240 On ch=1 n=e5 v=0
306242 On ch=1 n=f5 v=47
306540 On ch=1 n=f5 v=0
306542 On ch=1 n=g5 v=47
306600 On ch=1 n=g5 v=0
306602 On ch=1 n=f5 v=47
306660 On ch=1 n=f5 v=0
306662 On ch=1 n=e5 v=47
306720 On ch=1 n=e5 v=0
306722 On ch=1 n=f5 v=47
307080 On ch=1 n=f5 v=0
307082 On ch=1 n=a5 v=47
307200 On ch=1 n=a5 v=0
307202 On ch=1 n=c5 v=47
307680 On ch=1 n=c5 v=0
308644 On ch=1 n=a5 v=63
308760 On ch=1 n=a5 v=0
308762 On ch=1 n=c6 v=63
308880 On ch=1 n=c6 v=0
308882 On ch=1 n=e6 v=63
309000 On ch=1 n=e6 v=0
309002 On ch=1 n=f6 v=63
309120 On ch=1 n=f6 v=0
309122 On ch=1 n=f6 v=81
310320 On ch=1 n=f6 v=0
310322 On ch=1 n=e6 v=81
310560 On ch=1 n=e6 v=0
310562 On ch=1 n=g6 v=63
310800 On ch=1 n=g6 v=0
310802 On ch=1 n=f6 v=63
311040 On ch=1 n=f6 v=0
311042 On ch=1 n=e6 v=63
311280 On ch=1 n=e6 v=0
311282 On ch=1 n=d6 v=47
311520 On ch=1 n=d6 v=0
311522 On ch=1 n=c6 v=47
311760 On ch=1 n=c6 v=0
311762 On ch=1 n=a#5 v=47
312000 On ch=1 n=a#5 v=0
312002 On ch=1 n=a5 v=47
312240 On ch=1 n=a5 v=0
312242 On ch=1 n=a#5 v=47
312480 On ch=1 n=a#5 v=0
312482 On ch=1 n=b5 v=47
312540 On ch=1 n=b5 v=0
312542 On ch=1 n=c6 v=47
312600 On ch=1 n=c6 v=0
312602 On ch=1 n=b5 v=47
312660 On ch=1 n=b5 v=0
312662 On ch=1 n=a5 v=47
312720 On ch=1 n=a5 v=0
312722 On ch=1 n=b5 v=47
312840 On ch=1 n=b5 v=0
312842 On ch=1 n=c6 v=47
312960 On ch=1 n=c6 v=0
312962 On ch=1 n=d6 v=47
313080 On ch=1 n=d6 v=0
313082 On ch=1 n=c6 v=47
313200 On ch=1 n=c6 v=0
313202 On ch=1 n=a#5 v=47
313320 On ch=1 n=a#5 v=0
313322 On ch=1 n=a5 v=47
313440 On ch=1 n=a5 v=0
313442 On ch=1 n=g5 v=35
313800 On ch=1 n=g5 v=0
313802 On ch=1 n=a#5 v=35
313860 On ch=1 n=a#5 v=0
313862 On ch=1 n=a5 v=35
313920 On ch=1 n=a5 v=0
313922 On ch=1 n=g5 v=35
314400 On ch=1 n=g5 v=0
314884 On ch=1 n=a4 v=63
315000 On ch=1 n=a4 v=0
315002 On ch=1 n=c5 v=63
315120 On ch=1 n=c5 v=0
315122 On ch=1 n=f5 v=63
315960 On ch=1 n=f5 v=0
315962 On ch=1 n=c5 v=63
316080 On ch=1 n=c5 v=0
316082 On ch=1 n=f5 v=63
316200 On ch=1 n=f5 v=0
316202 On ch=1 n=a5 v=63
316320 On ch=1 n=a5 v=0
316322 On ch=1 n=c6 v=63
316440 On ch=1 n=c6 v=0
316442 On ch=1 n=a5 v=63
316560 On ch=1 n=a5 v=0
316562 On ch=1 n=f6 v=63
316680 On ch=1 n=f6 v=0
316682 On ch=1 n=a5 v=63
316800 On ch=1 n=a5 v=0
316802 On ch=1 n=c6 v=63
316920 On ch=1 n=c6 v=0
316922 On ch=1 n=b5 v=63
317040 On ch=1 n=b5 v=0
317042 On ch=1 n=d6 v=63
317160 On ch=1 n=d6 v=0
317162 On ch=1 n=c6 v=63
317280 On ch=1 n=c6 v=0
317282 On ch=1 n=a#5 v=63
317400 On ch=1 n=a#5 v=0
317402 On ch=1 n=a5 v=63
317520 On ch=1 n=a5 v=0
317522 On ch=1 n=a#5 v=63
317640 On ch=1 n=a#5 v=0
317642 On ch=1 n=g5 v=63
317760 On ch=1 n=g5 v=0
317762 On ch=1 n=f5 v=63
317880 On ch=1 n=f5 v=0
317882 On ch=1 n=g5 v=63
318000 On ch=1 n=g5 v=0
318002 On ch=1 n=f5 v=63
318120 On ch=1 n=f5 v=0
318122 On ch=1 n=e5 v=63
318240 On ch=1 n=e5 v=0
318242 On ch=1 n=f5 v=63
318600 On ch=1 n=f5 v=0
318602 On ch=1 n=a5 v=63
318720 On ch=1 n=a5 v=0
318722 On ch=1 n=c#5 v=63
320640 On ch=1 n=c#5 v=0
320642 On ch=1 n=d5 v=63
321120 On ch=1 n=d5 v=0
321122 On ch=1 n=e5 v=63
321160 On ch=1 n=e5 v=0
321162 On ch=1 n=f#5 v=63
321200 On ch=1 n=f#5 v=0
321202 On ch=1 n=g5 v=63
321240 On ch=1 n=g5 v=0
321242 On ch=1 n=a5 v=63
321280 On ch=1 n=a5 v=0
321282 On ch=1 n=a#5 v=63
321320 On ch=1 n=a#5 v=0
321322 On ch=1 n=c6 v=63
321360 On ch=1 n=c6 v=0
321362 On ch=1 n=d6 v=63
321400 On ch=1 n=d6 v=0
321402 On ch=1 n=e6 v=63
321440 On ch=1 n=e6 v=0
321442 On ch=1 n=f#6 v=63
321480 On ch=1 n=f#6 v=0
321482 On ch=1 n=g6 v=63
321520 On ch=1 n=g6 v=0
321522 On ch=1 n=a6 v=63
321560 On ch=1 n=a6 v=0
321562 On ch=1 n=a#6 v=63
321600 On ch=1 n=a#6 v=0
321602 On ch=1 n=c7 v=63
321640 On ch=1 n=c7 v=0
321642 On ch=1 n=d7 v=63
321880 On ch=1 n=d7 v=0
322804 On ch=1 n=c6 v=36
322920 On ch=1 n=c6 v=0
322922 On ch=1 n=a#5 v=36
322972 On ch=1 n=a#5 v=0
323042 On ch=1 n=a5 v=36
323160 On ch=1 n=a5 v=0
323162 On ch=1 n=g5 v=36
323212 On ch=1 n=g5 v=0
323282 On ch=1 n=f5 v=36
323400 On ch=1 n=f5 v=0
323402 On ch=1 n=e5 v=36
323452 On ch=1 n=e5 v=0
323522 On ch=1 n=g5 v=36
324480 On ch=1 n=g5 v=0
324482 On ch=1 n=f5 v=27
324960 On ch=1 n=f5 v=0
325204 On ch=1 n=c6 v=36
325320 On ch=1 n=c6 v=0
325444 On ch=1 n=d6 v=36
325560 On ch=1 n=d6 v=0
325684 On ch=1 n=e6 v=36
325800 On ch=1 n=e6 v=0
325924 On ch=1 n=f6 v=36
326040 On ch=1 n=f6 v=0
326164 On ch=1 n=g6 v=36
326280 On ch=1 n=g6 v=0
326404 On ch=1 n=a6 v=36
327000 On ch=1 n=a6 v=0
327002 On ch=1 n=g#6 v=47
327120 On ch=1 n=g#6 v=0
327122 On ch=1 n=a6 v=47
327240 On ch=1 n=a6 v=0
327242 On ch=1 n=a#6 v=47
327360 On ch=1 n=a#6 v=0
327362 On ch=1 n=a6 v=47
327480 On ch=1 n=a6 v=0
327482 On ch=1 n=c7 v=47
327600 On ch=1 n=c7 v=0
327602 On ch=1 n=b6 v=36
327720 On ch=1 n=b6 v=0
327722 On ch=1 n=a6 v=36
327840 On ch=1 n=a6 v=0
327842 On ch=1 n=g6 v=36
328440 On ch=1 n=g6 v=0
328442 On ch=1 n=f#6 v=36
328560 On ch=1 n=f#6 v=0
328562 On ch=1 n=g6 v=36
328680 On ch=1 n=g6 v=0
328682 On ch=1 n=a6 v=36
328800 On ch=1 n=a6 v=0
328802 On ch=1 n=g6 v=47
328860 On ch=1 n=g6 v=0
328862 On ch=1 n=b6 v=47
328920 On ch=1 n=b6 v=0
328922 On ch=1 n=c7 v=47
328980 On ch=1 n=c7 v=0
328982 On ch=1 n=e7 v=47
329040 On ch=1 n=e7 v=0
329042 On ch=1 n=d7 v=35
329100 On ch=1 n=d7 v=0
329102 On ch=1 n=c7 v=35
329160 On ch=1 n=c7 v=0
329162 On ch=1 n=b6 v=35
329220 On ch=1 n=b6 v=0
329222 On ch=1 n=a6 v=35
329280 On ch=1 n=a6 v=0
329282 On ch=1 n=g6 v=47
329760 On ch=1 n=g6 v=0
329762 On ch=1 n=f#6 v=47
330240 On ch=1 n=f#6 v=0
330242 On ch=1 n=f6 v=47
330600 On ch=1 n=f6 v=0
330602 On ch=1 n=e6 v=47
330840 On ch=1 n=e6 v=0
330842 On ch=1 n=c#6 v=47
330960 On ch=1 n=c#6 v=0
330962 On ch=1 n=d6 v=47
331080 On ch=1 n=d6 v=0
331082 On ch=1 n=e6 v=47
331200 On ch=1 n=e6 v=0
331202 On ch=1 n=d6 v=47
331440 On ch=1 n=d6 v=0
331924 On ch=1 n=b4 v=36
332040 On ch=1 n=b4 v=0
332042 On ch=1 n=d5 v=36
332160 On ch=1 n=d5 v=0
332162 On ch=1 n=f5 v=36
332700 On ch=1 n=f5 v=0
332702 On ch=1 n=g4 v=36
332760 On ch=1 n=g4 v=0
332762 On ch=1 n=b4 v=36
332820 On ch=1 n=b4 v=0
332822 On ch=1 n=d5 v=36
332880 On ch=1 n=d5 v=0
332882 On ch=1 n=f5 v=36
332940 On ch=1 n=f5 v=0
332942 On ch=1 n=b4 v=36
333000 On ch=1 n=b4 v=0
333002 On ch=1 n=d5 v=36
333060 On ch=1 n=d5 v=0
333062 On ch=1 n=f5 v=36
333120 On ch=1 n=f5 v=0
333122 On ch=1 n=a5 v=36
333240 On ch=1 n=a5 v=0
333242 On ch=1 n=f5 v=36
333360 On ch=1 n=f5 v=0
333362 On ch=1 n=e5 v=36
333480 On ch=1 n=e5 v=0
333482 On ch=1 n=d5 v=36
333600 On ch=1 n=d5 v=0
333602 On ch=1 n=a5 v=35
333660 On ch=1 n=a5 v=0
333662 On ch=1 n=g5 v=35
333720 On ch=1 n=g5 v=0
333722 On ch=1 n=b5 v=39
333780 On ch=1 n=b5 v=0
333782 On ch=1 n=a5 v=39
333840 On ch=1 n=a5 v=0
333842 On ch=1 n=c6 v=43
333900 On ch=1 n=c6 v=0
333902 On ch=1 n=b5 v=43
333960 On ch=1 n=b5 v=0
333962 On ch=1 n=d6 v=39
334020 On ch=1 n=d6 v=0
334022 On ch=1 n=c6 v=35
334080 On ch=1 n=c6 v=0
334082 On ch=1 n=g5 v=31
334320 On ch=1 n=g5 v=0
335104 On ch=1 n=g5 v=47
335160 On ch=1 n=g5 v=0
335162 On ch=1 n=b5 v=47
335220 On ch=1 n=b5 v=0
335222 On ch=1 n=d6 v=47
335280 On ch=1 n=d6 v=0
335282 On ch=1 n=f6 v=47
335580 On ch=1 n=f6 v=0
335582 On ch=1 n=g5 v=47
335640 On ch=1 n=g5 v=0
335642 On ch=1 n=b5 v=47
335700 On ch=1 n=b5 v=0
335702 On ch=1 n=d6 v=47
335760 On ch=1 n=d6 v=0
335762 On ch=1 n=f6 v=47
335820 On ch=1 n=f6 v=0
335822 On ch=1 n=b5 v=47
335880 On ch=1 n=b5 v=0
335882 On ch=1 n=d6 v=47
335940 On ch=1 n=d6 v=0
335942 On ch=1 n=f6 v=47
336000 On ch=1 n=f6 v=0
336002 On ch=1 n=a6 v=47
336060 On ch=1 n=a6 v=0
336062 On ch=1 n=g#6 v=47
336120 On ch=1 n=g#6 v=0
336122 On ch=1 n=b6 v=47
336180 On ch=1 n=b6 v=0
336182 On ch=1 n=a6 v=47
336240 On ch=1 n=a6 v=0
336242 On ch=1 n=g6 v=47
336300 On ch=1 n=g6 v=0
336302 On ch=1 n=f6 v=47
336360 On ch=1 n=f6 v=0
336362 On ch=1 n=e6 v=47
336420 On ch=1 n=e6 v=0
336422 On ch=1 n=d6 v=47
336480 On ch=1 n=d6 v=0
336482 On ch=1 n=a6 v=47
336540 On ch=1 n=a6 v=0
336542 On ch=1 n=g6 v=47
336600 On ch=1 n=g6 v=0
336602 On ch=1 n=b6 v=47
336660 On ch=1 n=b6 v=0
336662 On ch=1 n=a6 v=47
336720 On ch=1 n=a6 v=0
336722 On ch=1 n=c7 v=35
336780 On ch=1 n=c7 v=0
336782 On ch=1 n=b6 v=35
336840 On ch=1 n=b6 v=0
336842 On ch=1 n=d7 v=35
336900 On ch=1 n=d7 v=0
336902 On ch=1 n=c7 v=35
336960 On ch=1 n=c7 v=0
336962 On ch=1 n=g6 v=35
337200 On ch=1 n=g6 v=0
337324 On ch=1 n=g6 v=47
337440 On ch=1 n=g6 v=0
337442 On ch=1 n=c7 v=47
337500 On ch=1 n=c7 v=0
337502 On ch=1 n=b6 v=47
337560 On ch=1 n=b6 v=0
337562 On ch=1 n=d7 v=47
337620 On ch=1 n=d7 v=0
337622 On ch=1 n=c7 v=47
337680 On ch=1 n=c7 v=0
337682 On ch=1 n=e7 v=47
337740 On ch=1 n=e7 v=0
337742 On ch=1 n=c7 v=47
337800 On ch=1 n=c7 v=0
337802 On ch=1 n=g6 v=47
337860 On ch=1 n=g6 v=0
337862 On ch=1 n=e7 v=47
337920 On ch=1 n=e7 v=0
337922 On ch=1 n=c7 v=47
337980 On ch=1 n=c7 v=0
337982 On ch=1 n=a6 v=47
338040 On ch=1 n=a6 v=0
338042 On ch=1 n=f7 v=47
338400 On ch=1 n=f7 v=0
338402 On ch=1 n=c6 v=47
338440 On ch=1 n=c6 v=0
338442 On ch=1 n=d6 v=47
338480 On ch=1 n=d6 v=0
338482 On ch=1 n=e6 v=47
338520 On ch=1 n=e6 v=0
338522 On ch=1 n=d6 v=36
338560 On ch=1 n=d6 v=0
338562 On ch=1 n=e6 v=36
338600 On ch=1 n=e6 v=0
338602 On ch=1 n=d6 v=36
338640 On ch=1 n=d6 v=0
338642 On ch=1 n=e6 v=36
338680 On ch=1 n=e6 v=0
338682 On ch=1 n=d6 v=36
338720 On ch=1 n=d6 v=0
338722 On ch=1 n=e6 v=36
338760 On ch=1 n=e6 v=0
338762 On ch=1 n=d6 v=36
338800 On ch=1 n=d6 v=0
338802 On ch=1 n=e6 v=36
338840 On ch=1 n=e6 v=0
338842 On ch=1 n=d6 v=36
338880 On ch=1 n=d6 v=0
338882 On ch=1 n=e6 v=36
338920 On ch=1 n=e6 v=0
338922 On ch=1 n=d6 v=36
338960 On ch=1 n=d6 v=0
338962 On ch=1 n=e6 v=36
339000 On ch=1 n=e6 v=0
339002 On ch=1 n=d6 v=36
339040 On ch=1 n=d6 v=0
339042 On ch=1 n=e6 v=36
339080 On ch=1 n=e6 v=0
339082 On ch=1 n=d6 v=36
339120 On ch=1 n=d6 v=0
339122 On ch=1 n=e6 v=36
339160 On ch=1 n=e6 v=0
339162 On ch=1 n=d6 v=36
339200 On ch=1 n=d6 v=0
339202 On ch=1 n=e6 v=36
339240 On ch=1 n=e6 v=0
339242 On ch=1 n=d6 v=36
339300 On ch=1 n=d6 v=0
339302 On ch=1 n=g6 v=36
339360 On ch=1 n=g6 v=0
339362 On ch=1 n=c6 v=36
339840 On ch=1 n=c6 v=0
339904 On ch=1 n=e7 v=36
339928 On ch=1 n=e7 v=0
339962 On ch=1 n=d7 v=36
339988 On ch=1 n=d7 v=0
340022 On ch=1 n=c7 v=36
340048 On ch=1 n=c7 v=0
340082 On ch=1 n=b6 v=36
340108 On ch=1 n=b6 v=0
340142 On ch=1 n=a6 v=36
340168 On ch=1 n=a6 v=0
340202 On ch=1 n=g6 v=36
340228 On ch=1 n=g6 v=0
340262 On ch=1 n=f6 v=36
340288 On ch=1 n=f6 v=0
340322 On ch=1 n=e6 v=47
340380 On ch=1 n=e6 v=0
340444 On ch=1 n=d6 v=47
340500 On ch=1 n=d6 v=0
340564 On ch=1 n=e6 v=47
340620 On ch=1 n=e6 v=0
340684 On ch=1 n=f6 v=47
340740 On ch=1 n=f6 v=0
340804 On ch=1 n=f#6 v=47
340920 On ch=1 n=f#6 v=0
340922 On ch=1 n=g6 v=47
341280 On ch=1 n=g6 v=0
341344 On ch=1 n=f7 v=36
341368 On ch=1 n=f7 v=0
341402 On ch=1 n=e7 v=36
341428 On ch=1 n=e7 v=0
341462 On ch=1 n=d7 v=36
341488 On ch=1 n=d7 v=0
341522 On ch=1 n=c7 v=36
341548 On ch=1 n=c7 v=0
341582 On ch=1 n=b6 v=36
341608 On ch=1 n=b6 v=0
341642 On ch=1 n=a6 v=36
341668 On ch=1 n=a6 v=0
341702 On ch=1 n=g6 v=36
341728 On ch=1 n=g6 v=0
341762 On ch=1 n=f#6 v=47
341820 On ch=1 n=f#6 v=0
341884 On ch=1 n=g6 v=47
341940 On ch=1 n=g6 v=0
342004 On ch=1 n=a6 v=47
342060 On ch=1 n=a6 v=0
342124 On ch=1 n=f6 v=47
342180 On ch=1 n=f6 v=0
342244 On ch=1 n=d#6 v=47
342360 On ch=1 n=d#6 v=0
342362 On ch=1 n=e6 v=36
342720 On ch=1 n=e6 v=0
342784 On ch=1 n=e7 v=36
342808 On ch=1 n=e7 v=0
342842 On ch=1 n=d7 v=36
342868 On ch=1 n=d7 v=0
342902 On ch=1 n=c7 v=36
342928 On ch=1 n=c7 v=0
342962 On ch=1 n=b6 v=36
342988 On ch=1 n=b6 v=0
343022 On ch=1 n=a6 v=36
343048 On ch=1 n=a6 v=0
343082 On ch=1 n=g6 v=36
343108 On ch=1 n=g6 v=0
343142 On ch=1 n=f6 v=36
343168 On ch=1 n=f6 v=0
343202 On ch=1 n=e6 v=47
343260 On ch=1 n=e6 v=0
343324 On ch=1 n=d6 v=47
343380 On ch=1 n=d6 v=0
343444 On ch=1 n=e6 v=47
343500 On ch=1 n=e6 v=0
343564 On ch=1 n=f6 v=47
343620 On ch=1 n=f6 v=0
343684 On ch=1 n=f6 v=47
343800 On ch=1 n=f6 v=0
343802 On ch=1 n=g6 v=47
344160 On ch=1 n=g6 v=0
344224 On ch=1 n=f7 v=63
344248 On ch=1 n=f7 v=0
344282 On ch=1 n=e7 v=63
344308 On ch=1 n=e7 v=0
344342 On ch=1 n=d7 v=63
344368 On ch=1 n=d7 v=0
344402 On ch=1 n=c7 v=63
344428 On ch=1 n=c7 v=0
344462 On ch=1 n=b6 v=63
344488 On ch=1 n=b6 v=0
344522 On ch=1 n=a6 v=63
344548 On ch=1 n=a6 v=0
344582 On ch=1 n=g6 v=63
344608 On ch=1 n=g6 v=0
344642 On ch=1 n=f#6 v=63
344700 On ch=1 n=f#6 v=0
344764 On ch=1 n=g6 v=63
344820 On ch=1 n=g6 v=0
344884 On ch=1 n=a6 v=63
344940 On ch=1 n=a6 v=0
345004 On ch=1 n=f6 v=63
345060 On ch=1 n=f6 v=0
345124 On ch=1 n=e6 v=63
345240 On ch=1 n=e6 v=0
345364 On ch=1 n=c7 v=63
345600 On ch=1 n=c7 v=0
345602 On ch=1 n=a4 v=63
345660 On ch=1 n=a4 v=0
345662 On ch=1 n=c5 v=63
345720 On ch=1 n=c5 v=0
345722 On ch=1 n=d#5 v=63
345780 On ch=1 n=d#5 v=0
345782 On ch=1 n=f#5 v=63
345840 On ch=1 n=f#5 v=0
345842 On ch=1 n=a5 v=63
345900 On ch=1 n=a5 v=0
345902 On ch=1 n=c6 v=63
345960 On ch=1 n=c6 v=0
345962 On ch=1 n=d#6 v=63
346020 On ch=1 n=d#6 v=0
346022 On ch=1 n=f#6 v=63
346080 On ch=1 n=f#6 v=0
346082 On ch=1 n=a6 v=63
346140 On ch=1 n=a6 v=0
346324 On ch=1 n=b5 v=47
346500 On ch=1 n=b5 v=0
346502 On ch=1 n=b5 v=47
346560 On ch=1 n=b5 v=0
346562 On ch=1 n=d6 v=36
347040 On ch=1 n=d6 v=0
347042 On ch=1 n=c6 v=26
347280 On ch=1 n=c6 v=0
348124 On ch=1 n=g5 v=47
348240 On ch=1 n=g5 v=0
348242 On ch=1 n=a5 v=47
348360 On ch=1 n=a5 v=0
348362 On ch=1 n=b5 v=47
348480 On ch=1 n=b5 v=0
348482 On ch=1 n=c6 v=63
348600 On ch=1 n=c6 v=0
348602 On ch=1 n=d6 v=63
348720 On ch=1 n=d6 v=0
348722 On ch=1 n=d#6 v=63
348840 On ch=1 n=d#6 v=0
348842 On ch=1 n=b5 v=63
348960 On ch=1 n=b5 v=0
348962 On ch=1 n=c6 v=47
349080 On ch=1 n=c6 v=0
349082 On ch=1 n=g5 v=47
349200 On ch=1 n=g5 v=0
349202 On ch=1 n=c7 v=47
349320 On ch=1 n=c7 v=0
349322 On ch=1 n=a6 v=47
349440 On ch=1 n=a6 v=0
349442 On ch=1 n=g6 v=47
349920 On ch=1 n=g6 v=0
349922 On ch=1 n=f#6 v=47
350400 On ch=1 n=f#6 v=0
350402 On ch=1 n=g6 v=47
350520 On ch=1 n=g6 v=0
350522 On ch=1 n=f#6 v=47
350640 On ch=1 n=f#6 v=0
350642 On ch=1 n=g6 v=47
350760 On ch=1 n=g6 v=0
350762 On ch=1 n=e6 v=47
350880 On ch=1 n=e6 v=0
350882 On ch=1 n=d6 v=47
351360 On ch=1 n=d6 v=0
351362 On ch=1 n=c#6 v=47
352200 On ch=1 n=c#6 v=0
352202 On ch=1 n=e6 v=47
352320 On ch=1 n=e6 v=0
352322 On ch=1 n=e6 v=47
352440 On ch=1 n=e6 v=0
352442 On ch=1 n=d6 v=47
352560 On ch=1 n=d6 v=0
352562 On ch=1 n=e6 v=63
352680 On ch=1 n=e6 v=0
352682 On ch=1 n=f6 v=63
352800 On ch=1 n=f6 v=0
352802 On ch=1 n=e6 v=63
352920 On ch=1 n=e6 v=0
352922 On ch=1 n=d6 v=63
353040 On ch=1 n=d6 v=0
353042 On ch=1 n=e6 v=47
353160 On ch=1 n=e6 v=0
353162 On ch=1 n=f6 v=47
353280 On ch=1 n=f6 v=0
353282 On ch=1 n=e6 v=47
353400 On ch=1 n=e6 v=0
353402 On ch=1 n=d6 v=47
353520 On ch=1 n=d6 v=0
353522 On ch=1 n=e6 v=47
353640 On ch=1 n=e6 v=0
353642 On ch=1 n=c6 v=47
353760 On ch=1 n=c6 v=0
353762 On ch=1 n=c6 v=47
354240 On ch=1 n=c6 v=0
354242 On ch=1 n=b5 v=47
355200 On ch=1 n=b5 v=0
355202 On ch=1 n=a#5 v=63
355320 On ch=1 n=a#5 v=0
355322 On ch=1 n=a5 v=63
355440 On ch=1 n=a5 v=0
355442 On ch=1 n=a#5 v=81
355560 On ch=1 n=a#5 v=0
355562 On ch=1 n=c6 v=81
355680 On ch=1 n=c6 v=0
355682 On ch=1 n=a#5 v=81
355800 On ch=1 n=a#5 v=0
355802 On ch=1 n=a5 v=81
355920 On ch=1 n=a5 v=0
355922 On ch=1 n=a#5 v=81
356040 On ch=1 n=a#5 v=0
356042 On ch=1 n=c6 v=81
356160 On ch=1 n=c6 v=0
356162 On ch=1 n=a#5 v=63
356280 On ch=1 n=a#5 v=0
356282 On ch=1 n=a5 v=63
356400 On ch=1 n=a5 v=0
356402 On ch=1 n=a#5 v=47
356520 On ch=1 n=a#5 v=0
356522 On ch=1 n=c6 v=47
356640 On ch=1 n=c6 v=0
356642 On ch=1 n=a#5 v=35
356760 On ch=1 n=a#5 v=0
356762 On ch=1 n=a5 v=35
356880 On ch=1 n=a5 v=0
356882 On ch=1 n=a#5 v=47
357000 On ch=1 n=a#5 v=0
357002 On ch=1 n=c6 v=47
357120 On ch=1 n=c6 v=0
357122 On ch=1 n=a#5 v=47
357240 On ch=1 n=a#5 v=0
357242 On ch=1 n=a5 v=47
357360 On ch=1 n=a5 v=0
357362 On ch=1 n=a#5 v=47
357480 On ch=1 n=a#5 v=0
357482 On ch=1 n=c6 v=47
357600 On ch=1 n=c6 v=0
357602 On ch=1 n=a#5 v=47
357720 On ch=1 n=a#5 v=0
357722 On ch=1 n=a5 v=47
357840 On ch=1 n=a5 v=0
357842 On ch=1 n=a#5 v=36
357960 On ch=1 n=a#5 v=0
357962 On ch=1 n=c6 v=36
358080 On ch=1 n=c6 v=0
358082 On ch=1 n=a#5 v=36
358140 On ch=1 n=a#5 v=0
358142 On ch=1 n=a5 v=36
358200 On ch=1 n=a5 v=0
358202 On ch=1 n=a#5 v=36
358260 On ch=1 n=a#5 v=0
358262 On ch=1 n=c6 v=36
358320 On ch=1 n=c6 v=0
358322 On ch=1 n=a#5 v=47
358380 On ch=1 n=a#5 v=0
358382 On ch=1 n=a5 v=47
358440 On ch=1 n=a5 v=0
358442 On ch=1 n=a#5 v=47
358500 On ch=1 n=a#5 v=0
358502 On ch=1 n=c6 v=47
358560 On ch=1 n=c6 v=0
358562 On ch=1 n=a#5 v=47
358620 On ch=1 n=a#5 v=0
358622 On ch=1 n=d6 v=47
358680 On ch=1 n=d6 v=0
358682 On ch=1 n=c6 v=47
358740 On ch=1 n=c6 v=0
358742 On ch=1 n=f6 v=47
358800 On ch=1 n=f6 v=0
358802 On ch=1 n=e6 v=47
358860 On ch=1 n=e6 v=0
358862 On ch=1 n=g6 v=47
358920 On ch=1 n=g6 v=0
358922 On ch=1 n=f6 v=47
358980 On ch=1 n=f6 v=0
358982 On ch=1 n=a6 v=47
359040 On ch=1 n=a6 v=0
359042 On ch=1 n=g6 v=63
359100 On ch=1 n=g6 v=0
359102 On ch=1 n=a#6 v=63
359160 On ch=1 n=a#6 v=0
359162 On ch=1 n=d7 v=63
359220 On ch=1 n=d7 v=0
359222 On ch=1 n=c7 v=63
359280 On ch=1 n=c7 v=0
359282 On ch=1 n=a#6 v=63
359340 On ch=1 n=a#6 v=0
359342 On ch=1 n=a6 v=63
359400 On ch=1 n=a6 v=0
359402 On ch=1 n=g6 v=63
359460 On ch=1 n=g6 v=0
359462 On ch=1 n=f6 v=63
359520 On ch=1 n=f6 v=0
359522 On ch=1 n=e6 v=63
359580 On ch=1 n=e6 v=0
359582 On ch=1 n=c7 v=63
359640 On ch=1 n=c7 v=0
359642 On ch=1 n=a#6 v=63
359700 On ch=1 n=a#6 v=0
359702 On ch=1 n=g6 v=63
359760 On ch=1 n=g6 v=0
359762 On ch=1 n=e6 v=63
359820 On ch=1 n=e6 v=0
359822 On ch=1 n=c6 v=63
359880 On ch=1 n=c6 v=0
359882 On ch=1 n=a#5 v=63
359940 On ch=1 n=a#5 v=0
359942 On ch=1 n=g5 v=63
360000 On ch=1 n=g5 v=0
360002 On ch=1 n=e5 v=63
360060 On ch=1 n=e5 v=0
360062 On ch=1 n=c5 v=63
360120 On ch=1 n=c5 v=0
360564 On ch=1 n=c5 v=36
360600 On ch=1 n=c5 v=0
360602 On ch=1 n=c#5 v=36
360640 On ch=1 n=c#5 v=0
360642 On ch=1 n=d5 v=36
360680 On ch=1 n=d5 v=0
360682 On ch=1 n=d#5 v=36
360720 On ch=1 n=d#5 v=0
360722 On ch=1 n=e5 v=36
360760 On ch=1 n=e5 v=0
360762 On ch=1 n=f5 v=36
360800 On ch=1 n=f5 v=0
360802 On ch=1 n=f#5 v=36
360840 On ch=1 n=f#5 v=0
360842 On ch=1 n=g5 v=36
360880 On ch=1 n=g5 v=0
360882 On ch=1 n=g#5 v=36
360920 On ch=1 n=g#5 v=0
360922 On ch=1 n=a5 v=36
360960 On ch=1 n=a5 v=0
360962 On ch=1 n=a#5 v=27
361080 On ch=1 n=a#5 v=0
361204 On ch=1 n=g5 v=26
361320 On ch=1 n=g5 v=0
361444 On ch=1 n=e5 v=26
362400 On ch=1 n=e5 v=0
362402 On ch=1 n=a4 v=63
362520 On ch=1 n=a4 v=0
362522 On ch=1 n=c5 v=63
362640 On ch=1 n=c5 v=0
362642 On ch=1 n=f5 v=63
363480 On ch=1 n=f5 v=0
363482 On ch=1 n=c5 v=63
363600 On ch=1 n=c5 v=0
363602 On ch=1 n=f5 v=63
363720 On ch=1 n=f5 v=0
363722 On ch=1 n=a5 v=63
363840 On ch=1 n=a5 v=0
363842 On ch=1 n=c6 v=63
364200 On ch=1 n=c6 v=0
364202 On ch=1 n=a5 v=63
364320 On ch=1 n=a5 v=0
364322 On ch=1 n=c6 v=63
364560 On ch=1 n=c6 v=0
364562 On ch=1 n=a#5 v=47
364800 On ch=1 n=a#5 v=0
364802 On ch=1 n=g5 v=47
365040 On ch=1 n=g5 v=0
365042 On ch=1 n=e5 v=47
365280 On ch=1 n=e5 v=0
365282 On ch=1 n=f5 v=47
365580 On ch=1 n=f5 v=0
365582 On ch=1 n=g5 v=47
365640 On ch=1 n=g5 v=0
365642 On ch=1 n=f5 v=47
365700 On ch=1 n=f5 v=0
365702 On ch=1 n=e5 v=47
365760 On ch=1 n=e5 v=0
365762 On ch=1 n=f5 v=47
366120 On ch=1 n=f5 v=0
366122 On ch=1 n=a5 v=47
366240 On ch=1 n=a5 v=0
366242 On ch=1 n=c5 v=36
366720 On ch=1 n=c5 v=0
367324 On ch=1 n=c5 v=47
367380 On ch=1 n=c5 v=0
367382 On ch=1 n=d5 v=47
367440 On ch=1 n=d5 v=0
367442 On ch=1 n=e5 v=47
367500 On ch=1 n=e5 v=0
367502 On ch=1 n=f5 v=47
367560 On ch=1 n=f5 v=0
367562 On ch=1 n=g5 v=47
367620 On ch=1 n=g5 v=0
367622 On ch=1 n=a5 v=47
367680 On ch=1 n=a5 v=0
367682 On ch=1 n=a#5 v=47
367740 On ch=1 n=a#5 v=0
367742 On ch=1 n=c6 v=63
367800 On ch=1 n=c6 v=0
367802 On ch=1 n=d6 v=63
367860 On ch=1 n=d6 v=0
367862 On ch=1 n=e6 v=63
367920 On ch=1 n=e6 v=0
367922 On ch=1 n=f6 v=63
367980 On ch=1 n=f6 v=0
367982 On ch=1 n=e6 v=63
368040 On ch=1 n=e6 v=0
368042 On ch=1 n=f6 v=63
368100 On ch=1 n=f6 v=0
368102 On ch=1 n=g6 v=63
368160 On ch=1 n=g6 v=0
368162 On ch=1 n=f6 v=81
368700 On ch=1 n=f6 v=0
368702 On ch=1 n=e6 v=81
368760 On ch=1 n=e6 v=0
368762 On ch=1 n=g6 v=81
368820 On ch=1 n=g6 v=0
368822 On ch=1 n=f6 v=81
368880 On ch=1 n=f6 v=0
368882 On ch=1 n=e6 v=81
368940 On ch=1 n=e6 v=0
368942 On ch=1 n=d6 v=81
369000 On ch=1 n=d6 v=0
369002 On ch=1 n=g6 v=81
369060 On ch=1 n=g6 v=0
369062 On ch=1 n=f6 v=81
369120 On ch=1 n=f6 v=0
369122 On ch=1 n=e6 v=81
369180 On ch=1 n=e6 v=0
369182 On ch=1 n=d6 v=81
369240 On ch=1 n=d6 v=0
369242 On ch=1 n=g6 v=81
369300 On ch=1 n=g6 v=0
369302 On ch=1 n=f6 v=81
369360 On ch=1 n=f6 v=0
369362 On ch=1 n=e6 v=81
369420 On ch=1 n=e6 v=0
369422 On ch=1 n=d6 v=81
369480 On ch=1 n=d6 v=0
369482 On ch=1 n=c6 v=81
369540 On ch=1 n=c6 v=0
369542 On ch=1 n=a#5 v=81
369600 On ch=1 n=a#5 v=0
369602 On ch=1 n=a5 v=63
369660 On ch=1 n=a5 v=0
369662 On ch=1 n=a6 v=75
369720 On ch=1 n=a6 v=0
369722 On ch=1 n=a#5 v=63
369780 On ch=1 n=a#5 v=0
369782 On ch=1 n=a#6 v=75
369840 On ch=1 n=a#6 v=0
369842 On ch=1 n=b5 v=47
369900 On ch=1 n=b5 v=0
369902 On ch=1 n=b6 v=59
369960 On ch=1 n=b6 v=0
369962 On ch=1 n=c6 v=47
370020 On ch=1 n=c6 v=0
370022 On ch=1 n=c7 v=59
370080 On ch=1 n=c7 v=0
370082 On ch=1 n=g5 v=36
370320 On ch=1 n=g5 v=0
371044 On ch=1 n=a4 v=81
371100 On ch=1 n=a4 v=0
371102 On ch=1 n=c5 v=81
371160 On ch=1 n=c5 v=0
371162 On ch=1 n=f5 v=81
371580 On ch=1 n=f5 v=0
371582 On ch=1 n=c5 v=81
371640 On ch=1 n=c5 v=0
371642 On ch=1 n=f5 v=81
371700 On ch=1 n=f5 v=0
371702 On ch=1 n=a5 v=81
371760 On ch=1 n=a5 v=0
371762 On ch=1 n=c6 v=81
371820 On ch=1 n=c6 v=0
371822 On ch=1 n=a5 v=81
371880 On ch=1 n=a5 v=0
371882 On ch=1 n=f6 v=81
371940 On ch=1 n=f6 v=0
371942 On ch=1 n=a5 v=81
372000 On ch=1 n=a5 v=0
372002 On ch=1 n=c6 v=81
372060 On ch=1 n=c6 v=0
372062 On ch=1 n=b5 v=81
372120 On ch=1 n=b5 v=0
372122 On ch=1 n=d6 v=81
372180 On ch=1 n=d6 v=0
372182 On ch=1 n=c6 v=81
372240 On ch=1 n=c6 v=0
372242 On ch=1 n=a#5 v=81
372300 On ch=1 n=a#5 v=0
372302 On ch=1 n=a5 v=81
372360 On ch=1 n=a5 v=0
372362 On ch=1 n=a#5 v=81
372420 On ch=1 n=a#5 v=0
372422 On ch=1 n=g5 v=81
372480 On ch=1 n=g5 v=0
372482 On ch=1 n=f5 v=81
372660 On ch=1 n=f5 v=0
372662 On ch=1 n=g5 v=81
372720 On ch=1 n=g5 v=0
372722 On ch=1 n=f5 v=81
372780 On ch=1 n=f5 v=0
372782 On ch=1 n=e5 v=81
372840 On ch=1 n=e5 v=0
372842 On ch=1 n=f5 v=81
373020 On ch=1 n=f5 v=0
373022 On ch=1 n=a5 v=81
373080 On ch=1 n=a5 v=0
373082 On ch=1 n=c5 v=81
373380 On ch=1 n=c5 v=0
373382 On ch=1 n=c5 v=47
373424 On ch=1 n=c5 v=0
373442 On ch=1 n=c5 v=47
373484 On ch=1 n=c5 v=0
373502 On ch=1 n=c5 v=47
373604 On ch=1 n=c5 v=0
373622 On ch=1 n=c5 v=47
373664 On ch=1 n=c5 v=0
373682 On ch=1 n=c5 v=47
373724 On ch=1 n=c5 v=0
373804 On ch=1 n=c5 v=47
373844 On ch=1 n=c5 v=0
373964 On ch=1 n=e5 v=47
374000 On ch=1 n=e5 v=0
374002 On ch=1 n=f#5 v=47
374040 On ch=1 n=f#5 v=0
374042 On ch=1 n=g5 v=47
374080 On ch=1 n=g5 v=0
374082 On ch=1 n=a5 v=47
374120 On ch=1 n=a5 v=0
374122 On ch=1 n=a#5 v=47
374160 On ch=1 n=a#5 v=0
374162 On ch=1 n=c6 v=63
374200 On ch=1 n=c6 v=0
374202 On ch=1 n=d6 v=63
374240 On ch=1 n=d6 v=0
374242 On ch=1 n=e6 v=63
374280 On ch=1 n=e6 v=0
374282 On ch=1 n=f#6 v=63
374320 On ch=1 n=f#6 v=0
374322 On ch=1 n=g6 v=63
374360 On ch=1 n=g6 v=0
374362 On ch=1 n=a6 v=63
374400 On ch=1 n=a6 v=0
374402 On ch=1 n=a#6 v=63
374440 On ch=1 n=a#6 v=0
374442 On ch=1 n=b6 v=63
374480 On ch=1 n=b6 v=0
374482 On ch=1 n=c7 v=63
374520 On ch=1 n=c7 v=0
374522 On ch=1 n=c#7 v=63
374560 On ch=1 n=c#7 v=0
374562 On ch=1 n=d7 v=81
374640 On ch=1 n=d7 v=0
375004 On ch=1 n=c6 v=47
375060 On ch=1 n=c6 v=0
375062 On ch=1 n=a#5 v=47
375088 On ch=1 n=a#5 v=0
375122 On ch=1 n=a5 v=47
375180 On ch=1 n=a5 v=0
375182 On ch=1 n=g5 v=47
375208 On ch=1 n=g5 v=0
375242 On ch=1 n=f5 v=47
375300 On ch=1 n=f5 v=0
375302 On ch=1 n=e5 v=47
375328 On ch=1 n=e5 v=0
375362 On ch=1 n=g5 v=47
375840 On ch=1 n=g5 v=0
375842 On ch=1 n=f5 v=36
376080 On ch=1 n=f5 v=0
376204 On ch=1 n=c5 v=36
376260 On ch=1 n=c5 v=0
376324 On ch=1 n=d5 v=36
376380 On ch=1 n=d5 v=0
376444 On ch=1 n=e5 v=36
376500 On ch=1 n=e5 v=0
376564 On ch=1 n=f5 v=47
376620 On ch=1 n=f5 v=0
376684 On ch=1 n=g5 v=47
376740 On ch=1 n=g5 v=0
376804 On ch=1 n=g#5 v=63
377280 On ch=1 n=g#5 v=0
377282 On ch=1 n=g5 v=63
377520 On ch=1 n=g5 v=0
377522 On ch=1 n=f5 v=63
377760 On ch=1 n=f5 v=0
377762 On ch=1 n=e5 v=63
378000 On ch=1 n=e5 v=0
378002 On ch=1 n=g5 v=63
378240 On ch=1 n=g5 v=0
378242 On ch=1 n=c6 v=63
378720 On ch=1 n=c6 v=0
378722 On ch=1 n=a#5 v=63
378960 On ch=1 n=a#5 v=0
378962 On ch=1 n=g#5 v=63
379200 On ch=1 n=g#5 v=0
379202 On ch=1 n=g5 v=63
379440 On ch=1 n=g5 v=0
379442 On ch=1 n=e6 v=63
379680 On ch=1 n=e6 v=0
379682 On ch=1 n=f6 v=81
379800 On ch=1 n=f6 v=0
379802 On ch=1 n=c7 v=81
379920 On ch=1 n=c7 v=0
379922 On ch=1 n=a#6 v=81
380040 On ch=1 n=a#6 v=0
380042 On ch=1 n=g#6 v=81
380160 On ch=1 n=g#6 v=0
380162 On ch=1 n=g6 v=79
380280 On ch=1 n=g6 v=0
380282 On ch=1 n=c#7 v=79
380400 On ch=1 n=c#7 v=0
380402 On ch=1 n=c7 v=79
380520 On ch=1 n=c7 v=0
380522 On ch=1 n=a#6 v=79
380640 On ch=1 n=a#6 v=0
380642 On ch=1 n=g#6 v=79
380760 On ch=1 n=g#6 v=0
380762 On ch=1 n=g6 v=79
380880 On ch=1 n=g6 v=0
380882 On ch=1 n=g#6 v=79
381000 On ch=1 n=g#6 v=0
381002 On ch=1 n=f6 v=79
381120 On ch=1 n=f6 v=0
381122 On ch=1 n=f6 v=79
381600 On ch=1 n=f6 v=0
381602 On ch=1 n=e6 v=61
382080 On ch=1 n=e6 v=0
382082 On ch=1 n=f6 v=38
382200 On ch=1 n=f6 v=0
382202 On ch=1 n=c6 v=38
382320 On ch=1 n=c6 v=0
382322 On ch=1 n=a#5 v=38
382440 On ch=1 n=a#5 v=0
382442 On ch=1 n=g#5 v=38
382560 On ch=1 n=g#5 v=0
382562 On ch=1 n=g#5 v=46
383040 On ch=1 n=g#5 v=0
383042 On ch=1 n=g5 v=46
383520 On ch=1 n=g5 v=0
385084 On ch=1 n=c5 v=27
385200 On ch=1 n=c5 v=0
385202 On ch=1 n=e5 v=35
385320 On ch=1 n=e5 v=0
385322 On ch=1 n=g5 v=46
385440 On ch=1 n=g5 v=0
385442 On ch=1 n=a#5 v=79
385980 On ch=1 n=a#5 v=0
385982 On ch=1 n=c5 v=79
386040 On ch=1 n=c5 v=0
386042 On ch=1 n=e5 v=79
386100 On ch=1 n=e5 v=0
386102 On ch=1 n=g5 v=79
386160 On ch=1 n=g5 v=0
386162 On ch=1 n=a#5 v=79
386220 On ch=1 n=a#5 v=0
386222 On ch=1 n=e5 v=79
386280 On ch=1 n=e5 v=0
386282 On ch=1 n=g5 v=79
386340 On ch=1 n=g5 v=0
386342 On ch=1 n=a#5 v=79
386400 On ch=1 n=a#5 v=0
386402 On ch=1 n=d6 v=79
386520 On ch=1 n=d6 v=0
386522 On ch=1 n=a#5 v=79
386640 On ch=1 n=a#5 v=0
386642 On ch=1 n=a5 v=79
386760 On ch=1 n=a5 v=0
386762 On ch=1 n=g5 v=79
386880 On ch=1 n=g5 v=0
386882 On ch=1 n=d6 v=79
386940 On ch=1 n=d6 v=0
386942 On ch=1 n=c6 v=79
387000 On ch=1 n=c6 v=0
387002 On ch=1 n=e6 v=79
387060 On ch=1 n=e6 v=0
387062 On ch=1 n=d6 v=79
387120 On ch=1 n=d6 v=0
387122 On ch=1 n=f6 v=79
387180 On ch=1 n=f6 v=0
387182 On ch=1 n=e6 v=79
387240 On ch=1 n=e6 v=0
387242 On ch=1 n=g6 v=79
387300 On ch=1 n=g6 v=0
387302 On ch=1 n=f6 v=79
387360 On ch=1 n=f6 v=0
387362 On ch=1 n=c6 v=79
387600 On ch=1 n=c6 v=0
388384 On ch=1 n=c7 v=79
388440 On ch=1 n=c7 v=0
388442 On ch=1 n=a#6 v=79
388500 On ch=1 n=a#6 v=0
388502 On ch=1 n=g6 v=79
388560 On ch=1 n=g6 v=0
388562 On ch=1 n=e6 v=79
388620 On ch=1 n=e6 v=0
388622 On ch=1 n=c6 v=79
388680 On ch=1 n=c6 v=0
388682 On ch=1 n=a#5 v=79
388740 On ch=1 n=a#5 v=0
388742 On ch=1 n=g5 v=79
388800 On ch=1 n=g5 v=0
388802 On ch=1 n=e5 v=79
388860 On ch=1 n=e5 v=0
389764 On ch=1 n=d5 v=79
389820 On ch=1 n=d5 v=0
389822 On ch=1 n=c5 v=79
389880 On ch=1 n=c5 v=0
389882 On ch=1 n=e5 v=61
389940 On ch=1 n=e5 v=0
389942 On ch=1 n=d5 v=61
390000 On ch=1 n=d5 v=0
390002 On ch=1 n=f5 v=61
390060 On ch=1 n=f5 v=0
390062 On ch=1 n=e5 v=61
390120 On ch=1 n=e5 v=0
390122 On ch=1 n=g5 v=61
390180 On ch=1 n=g5 v=0
390182 On ch=1 n=f5 v=46
390240 On ch=1 n=f5 v=0
390242 On ch=1 n=c5 v=46
390480 On ch=1 n=c5 v=0
390604 On ch=1 n=c5 v=35
390720 On ch=1 n=c5 v=0
390722 On ch=1 n=f5 v=35
390780 On ch=1 n=f5 v=0
390782 On ch=1 n=e5 v=35
390840 On ch=1 n=e5 v=0
390842 On ch=1 n=g5 v=35
390900 On ch=1 n=g5 v=0
390902 On ch=1 n=f5 v=35
390960 On ch=1 n=f5 v=0
390962 On ch=1 n=a5 v=35
391020 On ch=1 n=a5 v=0
391022 On ch=1 n=f5 v=35
391080 On ch=1 n=f5 v=0
391082 On ch=1 n=c5 v=35
391140 On ch=1 n=c5 v=0
391142 On ch=1 n=a5 v=35
391200 On ch=1 n=a5 v=0
391202 On ch=1 n=f5 v=35
391260 On ch=1 n=f5 v=0
391262 On ch=1 n=d5 v=35
391320 On ch=1 n=d5 v=0
391322 On ch=1 n=f7 v=35
391680 On ch=1 n=f7 v=0
391682 On ch=1 n=f5 v=27
391720 On ch=1 n=f5 v=0
391722 On ch=1 n=g5 v=27
391760 On ch=1 n=g5 v=0
391762 On ch=1 n=f5 v=27
391800 On ch=1 n=f5 v=0
391802 On ch=1 n=g5 v=27
391840 On ch=1 n=g5 v=0
391842 On ch=1 n=f5 v=27
391880 On ch=1 n=f5 v=0
391882 On ch=1 n=g5 v=27
391920 On ch=1 n=g5 v=0
391922 On ch=1 n=f5 v=27
391960 On ch=1 n=f5 v=0
391962 On ch=1 n=g5 v=27
392000 On ch=1 n=g5 v=0
392002 On ch=1 n=f5 v=27
392040 On ch=1 n=f5 v=0
392042 On ch=1 n=g5 v=27
392080 On ch=1 n=g5 v=0
392082 On ch=1 n=f5 v=27
392120 On ch=1 n=f5 v=0
392122 On ch=1 n=g5 v=27
392160 On ch=1 n=g5 v=0
392162 On ch=1 n=f5 v=27
392200 On ch=1 n=f5 v=0
392202 On ch=1 n=g5 v=27
392240 On ch=1 n=g5 v=0
392242 On ch=1 n=f5 v=27
392280 On ch=1 n=f5 v=0
392282 On ch=1 n=g5 v=27
392320 On ch=1 n=g5 v=0
392322 On ch=1 n=f5 v=27
392360 On ch=1 n=f5 v=0
392362 On ch=1 n=g5 v=27
392400 On ch=1 n=g5 v=0
392402 On ch=1 n=f5 v=27
392440 On ch=1 n=f5 v=0
392442 On ch=1 n=g5 v=27
392480 On ch=1 n=g5 v=0
392482 On ch=1 n=f5 v=27
392520 On ch=1 n=f5 v=0
392522 On ch=1 n=g5 v=27
392560 On ch=1 n=g5 v=0
392562 On ch=1 n=c6 v=27
392640 On ch=1 n=c6 v=0
392642 On ch=1 n=f5 v=35
393120 On ch=1 n=f5 v=0
393184 On ch=1 n=a6 v=35
393208 On ch=1 n=a6 v=0
393242 On ch=1 n=g6 v=35
393268 On ch=1 n=g6 v=0
393302 On ch=1 n=f6 v=35
393328 On ch=1 n=f6 v=0
393362 On ch=1 n=e6 v=35
393388 On ch=1 n=e6 v=0
393422 On ch=1 n=d6 v=35
393448 On ch=1 n=d6 v=0
393482 On ch=1 n=c6 v=35
393508 On ch=1 n=c6 v=0
393542 On ch=1 n=a#5 v=35
393568 On ch=1 n=a#5 v=0
393602 On ch=1 n=a5 v=46
393660 On ch=1 n=a5 v=0
393724 On ch=1 n=g5 v=46
393780 On ch=1 n=g5 v=0
393844 On ch=1 n=a5 v=46
393900 On ch=1 n=a5 v=0
393964 On ch=1 n=a#5 v=46
394020 On ch=1 n=a#5 v=0
394084 On ch=1 n=b5 v=46
394200 On ch=1 n=b5 v=0
394202 On ch=1 n=c6 v=46
394560 On ch=1 n=c6 v=0
394624 On ch=1 n=a#6 v=35
394648 On ch=1 n=a#6 v=0
394682 On ch=1 n=a6 v=35
394708 On ch=1 n=a6 v=0
394742 On ch=1 n=g6 v=35
394768 On ch=1 n=g6 v=0
394802 On ch=1 n=f6 v=35
394828 On ch=1 n=f6 v=0
394862 On ch=1 n=e6 v=35
394888 On ch=1 n=e6 v=0
394922 On ch=1 n=d6 v=35
394948 On ch=1 n=d6 v=0
394982 On ch=1 n=c6 v=35
395008 On ch=1 n=c6 v=0
395042 On ch=1 n=b5 v=46
395100 On ch=1 n=b5 v=0
395164 On ch=1 n=c6 v=46
395220 On ch=1 n=c6 v=0
395284 On ch=1 n=d6 v=46
395340 On ch=1 n=d6 v=0
395404 On ch=1 n=a#5 v=46
395460 On ch=1 n=a#5 v=0
395524 On ch=1 n=g#5 v=46
395640 On ch=1 n=g#5 v=0
395642 On ch=1 n=a5 v=46
396000 On ch=1 n=a5 v=0
396064 On ch=1 n=c6 v=35
396088 On ch=1 n=c6 v=0
396122 On ch=1 n=d6 v=35
396148 On ch=1 n=d6 v=0
396182 On ch=1 n=e6 v=35
396208 On ch=1 n=e6 v=0
396242 On ch=1 n=f6 v=35
396268 On ch=1 n=f6 v=0
396302 On ch=1 n=g6 v=35
396328 On ch=1 n=g6 v=0
396362 On ch=1 n=a6 v=35
396388 On ch=1 n=a6 v=0
396422 On ch=1 n=a#6 v=35
396448 On ch=1 n=a#6 v=0
396482 On ch=1 n=c7 v=35
396540 On ch=1 n=c7 v=0
396604 On ch=1 n=d7 v=35
396660 On ch=1 n=d7 v=0
396724 On ch=1 n=e7 v=35
396780 On ch=1 n=e7 v=0
396844 On ch=1 n=f7 v=35
396900 On ch=1 n=f7 v=0
396964 On ch=1 n=f7 v=46
397320 On ch=1 n=f7 v=0
397322 On ch=1 n=e7 v=46
397560 On ch=1 n=e7 v=0
397562 On ch=1 n=d7 v=46
397800 On ch=1 n=d7 v=0
397802 On ch=1 n=c7 v=46
398040 On ch=1 n=c7 v=0
398042 On ch=1 n=a#6 v=46
398280 On ch=1 n=a#6 v=0
398282 On ch=1 n=a6 v=46
398520 On ch=1 n=a6 v=0
398522 On ch=1 n=g6 v=46
398760 On ch=1 n=g6 v=0
398762 On ch=1 n=f#6 v=46
399000 On ch=1 n=f#6 v=0
399002 On ch=1 n=g6 v=46
399240 On ch=1 n=g6 v=0
399242 On ch=1 n=f6 v=46
399480 On ch=1 n=f6 v=0
399482 On ch=1 n=e6 v=46
399720 On ch=1 n=e6 v=0
399722 On ch=1 n=a#6 v=35
399960 On ch=1 n=a#6 v=0
399962 On ch=1 n=a6 v=35
400200 On ch=1 n=a6 v=0
400202 On ch=1 n=c#7 v=35
400440 On ch=1 n=c#7 v=0
400442 On ch=1 n=d7 v=35
400560 On ch=1 n=d7 v=0
401044 On ch=1 n=f7 v=35
401280 On ch=1 n=f7 v=0
401644 On ch=1 n=c6 v=35
401680 On ch=1 n=c6 v=0
401682 On ch=1 n=f6 v=35
401720 On ch=1 n=f6 v=0
401722 On ch=1 n=a6 v=35
401760 On ch=1 n=a6 v=0
401762 On ch=1 n=c7 v=35
401880 On ch=1 n=c7 v=0
402484 On ch=1 n=e5 v=35
402720 On ch=1 n=e5 v=0
402722 On ch=1 n=g5 v=35
403200 On ch=1 n=g5 v=0
403202 On ch=1 n=f5 v=35
403320 On ch=1 n=f5 v=0
403322 On ch=1 n=c5 v=35
403440 On ch=1 n=c5 v=0
403442 On ch=1 n=a5 v=35
403560 On ch=1 n=a5 v=0
403562 On ch=1 n=f5 v=35
403680 On ch=1 n=f5 v=0
403682 On ch=1 n=c6 v=35
404040 On ch=1 n=c6 v=0
404042 On ch=1 n=e5 v=35
404160 On ch=1 n=e5 v=0
404162 On ch=1 n=g5 v=35
404640 On ch=1 n=g5 v=0
404642 On ch=1 n=f5 v=35
404760 On ch=1 n=f5 v=0
404762 On ch=1 n=c5 v=35
404880 On ch=1 n=c5 v=0
404882 On ch=1 n=a5 v=35
405000 On ch=1 n=a5 v=0
405002 On ch=1 n=f5 v=35
405120 On ch=1 n=f5 v=0
405122 On ch=1 n=d6 v=35
405240 On ch=1 n=d6 v=0
405242 On ch=1 n=c6 v=35
405360 On ch=1 n=c6 v=0
405484 On ch=1 n=e5 v=35
405600 On ch=1 n=e5 v=0
405602 On ch=1 n=g5 v=35
406080 On ch=1 n=g5 v=0
406082 On ch=1 n=f5 v=35
406320 On ch=1 n=f5 v=0
406564 On ch=1 n=c5 v=35
406600 On ch=1 n=c5 v=0
406602 On ch=1 n=a5 v=35
406658 Par ch=1 c=66 v=127
406658 Par ch=1 c=64 v=127
407040 On ch=1 n=a5 v=0
410400 Par ch=1 c=66 v=0
410400 Par ch=1 c=64 v=0
411366 On ch=1 n=g5 v=46
411842 On ch=1 n=g5 v=0
411844 On ch=1 n=c6 v=46
412082 On ch=1 n=c6 v=0
412326 On ch=1 n=c6 v=46
412562 On ch=1 n=c6 v=0
412806 On ch=1 n=c6 v=46
413042 On ch=1 n=c6 v=0
413286 On ch=1 n=e6 v=46
413402 On ch=1 n=e6 v=0
413404 On ch=1 n=d6 v=46
413522 On ch=1 n=d6 v=0
413766 On ch=1 n=d6 v=46
414002 On ch=1 n=d6 v=0
414004 On ch=1 n=c#6 v=46
414242 On ch=1 n=c#6 v=0
414244 On ch=1 n=d6 v=46
414722 On ch=1 n=d6 v=0
414724 On ch=1 n=c6 v=46
414842 On ch=1 n=c6 v=0
414844 On ch=1 n=b5 v=46
414962 On ch=1 n=b5 v=0
415206 On ch=1 n=b5 v=46
415442 On ch=1 n=b5 v=0
415444 On ch=1 n=a5 v=46
415682 On ch=1 n=a5 v=0
415684 On ch=1 n=b5 v=46
416162 On ch=1 n=b5 v=0
416164 On ch=1 n=c6 v=46
416402 On ch=1 n=c6 v=0
416646 On ch=1 n=d6 v=61
416882 On ch=1 n=d6 v=0
417126 On ch=1 n=e6 v=61
417362 On ch=1 n=e6 v=0
417606 On ch=1 n=f6 v=79
417842 On ch=1 n=f6 v=0
419040 Par ch=1 c=66 v=0
419040 Par ch=1 c=64 v=0
419046 On ch=1 n=d6 v=35
419282 On ch=1 n=d6 v=0
419526 On ch=1 n=e6 v=35
419762 On ch=1 n=e6 v=0
420006 On ch=1 n=f6 v=35
420242 On ch=1 n=f6 v=0
420486 On ch=1 n=g6 v=35
420722 On ch=1 n=g6 v=0
421446 On ch=1 n=g6 v=46
421922 On ch=1 n=g6 v=0
421924 On ch=1 n=c7 v=46
422162 On ch=1 n=c7 v=0
422406 On ch=1 n=c7 v=46
422642 On ch=1 n=c7 v=0
422886 On ch=1 n=c7 v=46
423122 On ch=1 n=c7 v=0
423366 On ch=1 n=e7 v=46
423482 On ch=1 n=e7 v=0
423484 On ch=1 n=d7 v=61
423602 On ch=1 n=d7 v=0
423846 On ch=1 n=d7 v=61
424082 On ch=1 n=d7 v=0
424084 On ch=1 n=c#7 v=61
424322 On ch=1 n=c#7 v=0
424324 On ch=1 n=d7 v=61
424802 On ch=1 n=d7 v=0
424804 On ch=1 n=c7 v=79
424922 On ch=1 n=c7 v=0
424924 On ch=1 n=b6 v=79
425042 On ch=1 n=b6 v=0
425286 On ch=1 n=b6 v=79
425522 On ch=1 n=b6 v=0
425524 On ch=1 n=a#6 v=79
425762 On ch=1 n=a#6 v=0
425764 On ch=1 n=b6 v=79
426242 On ch=1 n=b6 v=0
427206 On ch=1 n=g6 v=46
427682 On ch=1 n=g6 v=0
427684 On ch=1 n=c7 v=46
427922 On ch=1 n=c7 v=0
428166 On ch=1 n=c7 v=46
428402 On ch=1 n=c7 v=0
428646 On ch=1 n=c7 v=46
428882 On ch=1 n=c7 v=0
429126 On ch=1 n=e7 v=46
429242 On ch=1 n=e7 v=0
429244 On ch=1 n=d7 v=46
429362 On ch=1 n=d7 v=0
429606 On ch=1 n=d7 v=46
429842 On ch=1 n=d7 v=0
429844 On ch=1 n=c7 v=46
430082 On ch=1 n=c7 v=0
430084 On ch=1 n=d7 v=46
430562 On ch=1 n=d7 v=0
430564 On ch=1 n=c7 v=61
430682 On ch=1 n=c7 v=0
430684 On ch=1 n=b6 v=61
430802 On ch=1 n=b6 v=0
431046 On ch=1 n=b6 v=61
431282 On ch=1 n=b6 v=0
431284 On ch=1 n=a6 v=61
431522 On ch=1 n=a6 v=0
431524 On ch=1 n=b6 v=61
432002 On ch=1 n=b6 v=0
432004 On ch=1 n=d7 v=61
432122 On ch=1 n=d7 v=0
432124 On ch=1 n=c7 v=61
432242 On ch=1 n=c7 v=0
432486 On ch=1 n=c7 v=61
432722 On ch=1 n=c7 v=0
432724 On ch=1 n=b6 v=61
432962 On ch=1 n=b6 v=0
432964 On ch=1 n=c7 v=61
433442 On ch=1 n=c7 v=0
433444 On ch=1 n=g6 v=61
433562 On ch=1 n=g6 v=0
433564 On ch=1 n=f#6 v=61
433682 On ch=1 n=f#6 v=0
433926 On ch=1 n=f#6 v=46
434162 On ch=1 n=f#6 v=0
434164 On ch=1 n=e6 v=46
434402 On ch=1 n=e6 v=0
434404 On ch=1 n=f#6 v=46
434882 On ch=1 n=f#6 v=0
434884 On ch=1 n=g6 v=35
435122 On ch=1 n=g6 v=0
435124 On ch=1 n=f#6 v=35
435362 On ch=1 n=f#6 v=0
435364 On ch=1 n=g6 v=35
435602 On ch=1 n=g6 v=0
435604 On ch=1 n=d6 v=35
435842 On ch=1 n=d6 v=0
435844 On ch=1 n=c7 v=35
436082 On ch=1 n=c7 v=0
436084 On ch=1 n=f#6 v=35
436322 On ch=1 n=f#6 v=0
436324 On ch=1 n=g6 v=35
436562 On ch=1 n=g6 v=0
436564 On ch=1 n=f#6 v=35
436802 On ch=1 n=f#6 v=0
436804 On ch=1 n=g6 v=35
437042 On ch=1 n=g6 v=0
437044 On ch=1 n=d6 v=35
437282 On ch=1 n=d6 v=0
437284 On ch=1 n=c7 v=35
437522 On ch=1 n=c7 v=0
437524 On ch=1 n=f#6 v=35
437762 On ch=1 n=f#6 v=0
437764 On ch=1 n=g6 v=35
438002 On ch=1 n=g6 v=0
438004 On ch=1 n=f#6 v=35
438242 On ch=1 n=f#6 v=0
438244 On ch=1 n=g6 v=35
438482 On ch=1 n=g6 v=0
438484 On ch=1 n=d6 v=35
438722 On ch=1 n=d6 v=0
438724 On ch=1 n=c7 v=35
438962 On ch=1 n=c7 v=0
438964 On ch=1 n=f#6 v=35
439202 On ch=1 n=f#6 v=0
439204 On ch=1 n=g6 v=35
439442 On ch=1 n=g6 v=0
439444 On ch=1 n=f#6 v=35
439682 On ch=1 n=f#6 v=0
439684 On ch=1 n=g6 v=46
439922 On ch=1 n=g6 v=0
439924 On ch=1 n=f#6 v=46
440162 On ch=1 n=f#6 v=0
440164 On ch=1 n=g6 v=46
440402 On ch=1 n=g6 v=0
440404 On ch=1 n=f#6 v=46
440642 On ch=1 n=f#6 v=0
440644 On ch=1 n=g6 v=46
440882 On ch=1 n=g6 v=0
440884 On ch=1 n=f#6 v=46
441122 On ch=1 n=f#6 v=0
441124 On ch=1 n=g6 v=46
441362 On ch=1 n=g6 v=0
441364 On ch=1 n=f#6 v=46
441602 On ch=1 n=f#6 v=0
441604 On ch=1 n=g6 v=46
441842 On ch=1 n=g6 v=0
441844 On ch=1 n=f#6 v=46
442082 On ch=1 n=f#6 v=0
442084 On ch=1 n=g6 v=61
442322 On ch=1 n=g6 v=0
442324 On ch=1 n=f#6 v=61
442562 On ch=1 n=f#6 v=0
442564 On ch=1 n=g6 v=61
442802 On ch=1 n=g6 v=0
442804 On ch=1 n=f#6 v=61
443042 On ch=1 n=f#6 v=0
443044 On ch=1 n=g6 v=61
443282 On ch=1 n=g6 v=0
443284 On ch=1 n=f#6 v=61
443522 On ch=1 n=f#6 v=0
443524 On ch=1 n=g6 v=79
443762 On ch=1 n=g6 v=0
443764 On ch=1 n=b6 v=79
444002 On ch=1 n=b6 v=0
444004 On ch=1 n=d6 v=79
444242 On ch=1 n=d6 v=0
444244 On ch=1 n=g6 v=79
444482 On ch=1 n=g6 v=0
444484 On ch=1 n=b5 v=79
444722 On ch=1 n=b5 v=0
444724 On ch=1 n=d6 v=79
444962 On ch=1 n=d6 v=0
444964 On ch=1 n=g5 v=79
445442 On ch=1 n=g5 v=0
445926 On ch=1 n=g5 v=46
446402 On ch=1 n=g5 v=0
446404 On ch=1 n=c6 v=46
446642 On ch=1 n=c6 v=0
446886 On ch=1 n=c6 v=46
447122 On ch=1 n=c6 v=0
447366 On ch=1 n=c6 v=46
447602 On ch=1 n=c6 v=0
447846 On ch=1 n=e6 v=46
447962 On ch=1 n=e6 v=0
447964 On ch=1 n=d6 v=46
448082 On ch=1 n=d6 v=0
448326 On ch=1 n=d6 v=46
448562 On ch=1 n=d6 v=0
448564 On ch=1 n=c#6 v=46
448802 On ch=1 n=c#6 v=0
448804 On ch=1 n=d6 v=46
449282 On ch=1 n=d6 v=0
449284 On ch=1 n=c6 v=46
449402 On ch=1 n=c6 v=0
449404 On ch=1 n=b5 v=46
449522 On ch=1 n=b5 v=0
449766 On ch=1 n=b5 v=46
450002 On ch=1 n=b5 v=0
450004 On ch=1 n=a5 v=46
450242 On ch=1 n=a5 v=0
450244 On ch=1 n=b5 v=46
450722 On ch=1 n=b5 v=0
450724 On ch=1 n=c6 v=46
450962 On ch=1 n=c6 v=0
451206 On ch=1 n=d6 v=61
451442 On ch=1 n=d6 v=0
451686 On ch=1 n=e6 v=61
451922 On ch=1 n=e6 v=0
452166 On ch=1 n=f6 v=79
452402 On ch=1 n=f6 v=0
453606 On ch=1 n=d6 v=34
453842 On ch=1 n=d6 v=0
454086 On ch=1 n=e6 v=34
454322 On ch=1 n=e6 v=0
454566 On ch=1 n=f6 v=34
454802 On ch=1 n=f6 v=0
455046 On ch=1 n=g6 v=34
455282 On ch=1 n=g6 v=0
456006 On ch=1 n=g6 v=46
456482 On ch=1 n=g6 v=0
456484 On ch=1 n=c7 v=46
456722 On ch=1 n=c7 v=0
456966 On ch=1 n=c7 v=46
457202 On ch=1 n=c7 v=0
457446 On ch=1 n=c7 v=46
457682 On ch=1 n=c7 v=0
457926 On ch=1 n=e7 v=46
458042 On ch=1 n=e7 v=0
458044 On ch=1 n=d7 v=61
458162 On ch=1 n=d7 v=0
458406 On ch=1 n=d7 v=61
458642 On ch=1 n=d7 v=0
458644 On ch=1 n=c#7 v=61
458882 On ch=1 n=c#7 v=0
458884 On ch=1 n=d7 v=61
459362 On ch=1 n=d7 v=0
459364 On ch=1 n=c7 v=79
459482 On ch=1 n=c7 v=0
459484 On ch=1 n=b6 v=79
459602 On ch=1 n=b6 v=0
459846 On ch=1 n=b6 v=79
460082 On ch=1 n=b6 v=0
460084 On ch=1 n=a#6 v=79
460322 On ch=1 n=a#6 v=0
460324 On ch=1 n=b6 v=79
460802 On ch=1 n=b6 v=0
461766 On ch=1 n=g6 v=46
462242 On ch=1 n=g6 v=0
462244 On ch=1 n=c7 v=46
462482 On ch=1 n=c7 v=0
462726 On ch=1 n=c7 v=46
462962 On ch=1 n=c7 v=0
463206 On ch=1 n=c7 v=46
463442 On ch=1 n=c7 v=0
463686 On ch=1 n=e7 v=46
463802 On ch=1 n=e7 v=0
463804 On ch=1 n=d7 v=46
463922 On ch=1 n=d7 v=0
464166 On ch=1 n=d7 v=46
464402 On ch=1 n=d7 v=0
464404 On ch=1 n=c7 v=46
464642 On ch=1 n=c7 v=0
464644 On ch=1 n=d7 v=46
465122 On ch=1 n=d7 v=0
465124 On ch=1 n=c7 v=61
465242 On ch=1 n=c7 v=0
465244 On ch=1 n=b6 v=61
465362 On ch=1 n=b6 v=0
465606 On ch=1 n=b6 v=61
465842 On ch=1 n=b6 v=0
465844 On ch=1 n=a6 v=61
466082 On ch=1 n=a6 v=0
466084 On ch=1 n=b6 v=61
466562 On ch=1 n=b6 v=0
466564 On ch=1 n=d7 v=61
466682 On ch=1 n=d7 v=0
466684 On ch=1 n=c7 v=61
466802 On ch=1 n=c7 v=0
467046 On ch=1 n=c7 v=61
467282 On ch=1 n=c7 v=0
467284 On ch=1 n=b6 v=61
467522 On ch=1 n=b6 v=0
467524 On ch=1 n=c7 v=61
468002 On ch=1 n=c7 v=0
468004 On ch=1 n=g6 v=61
468122 On ch=1 n=g6 v=0
468124 On ch=1 n=f#6 v=61
468242 On ch=1 n=f#6 v=0
468486 On ch=1 n=f#6 v=46
468722 On ch=1 n=f#6 v=0
468724 On ch=1 n=e6 v=46
468962 On ch=1 n=e6 v=0
468964 On ch=1 n=f#6 v=46
469442 On ch=1 n=f#6 v=0
469444 On ch=1 n=g6 v=35
469682 On ch=1 n=g6 v=0
469684 On ch=1 n=f#6 v=35
469922 On ch=1 n=f#6 v=0
469924 On ch=1 n=g6 v=35
470162 On ch=1 n=g6 v=0
470164 On ch=1 n=d6 v=35
470402 On ch=1 n=d6 v=0
470404 On ch=1 n=c7 v=35
470642 On ch=1 n=c7 v=0
470644 On ch=1 n=f#6 v=35
470882 On ch=1 n=f#6 v=0
470884 On ch=1 n=g6 v=35
471122 On ch=1 n=g6 v=0
471124 On ch=1 n=f#6 v=35
471362 On ch=1 n=f#6 v=0
471364 On ch=1 n=g6 v=35
471602 On ch=1 n=g6 v=0
471604 On ch=1 n=d6 v=35
471842 On ch=1 n=d6 v=0
471844 On ch=1 n=c7 v=35
472082 On ch=1 n=c7 v=0
472084 On ch=1 n=f#6 v=35
472322 On ch=1 n=f#6 v=0
472324 On ch=1 n=g6 v=35
472562 On ch=1 n=g6 v=0
472564 On ch=1 n=f#6 v=35
472802 On ch=1 n=f#6 v=0
472804 On ch=1 n=g6 v=35
473042 On ch=1 n=g6 v=0
473044 On ch=1 n=d6 v=35
473282 On ch=1 n=d6 v=0
473284 On ch=1 n=c7 v=35
473522 On ch=1 n=c7 v=0
473524 On ch=1 n=f#6 v=35
473762 On ch=1 n=f#6 v=0
473764 On ch=1 n=g6 v=35
474002 On ch=1 n=g6 v=0
474004 On ch=1 n=f#6 v=35
474242 On ch=1 n=f#6 v=0
474244 On ch=1 n=g6 v=46
474482 On ch=1 n=g6 v=0
474484 On ch=1 n=f#6 v=46
474722 On ch=1 n=f#6 v=0
474724 On ch=1 n=g6 v=46
474962 On ch=1 n=g6 v=0
474964 On ch=1 n=f#6 v=46
475202 On ch=1 n=f#6 v=0
475204 On ch=1 n=g6 v=46
475442 On ch=1 n=g6 v=0
475444 On ch=1 n=f#6 v=46
475682 On ch=1 n=f#6 v=0
475684 On ch=1 n=g6 v=46
475922 On ch=1 n=g6 v=0
475924 On ch=1 n=f#6 v=46
476162 On ch=1 n=f#6 v=0
476164 On ch=1 n=g6 v=46
476402 On ch=1 n=g6 v=0
476404 On ch=1 n=f#6 v=46
476642 On ch=1 n=f#6 v=0
476644 On ch=1 n=g6 v=61
476882 On ch=1 n=g6 v=0
476884 On ch=1 n=f#6 v=61
477122 On ch=1 n=f#6 v=0
477124 On ch=1 n=g6 v=61
477362 On ch=1 n=g6 v=0
477364 On ch=1 n=f#6 v=61
477602 On ch=1 n=f#6 v=0
477604 On ch=1 n=g6 v=61
477842 On ch=1 n=g6 v=0
477844 On ch=1 n=f#6 v=61
478082 On ch=1 n=f#6 v=0
478084 On ch=1 n=g6 v=79
478322 On ch=1 n=g6 v=0
478324 On ch=1 n=b6 v=79
478562 On ch=1 n=b6 v=0
478564 On ch=1 n=d6 v=79
478802 On ch=1 n=d6 v=0
478804 On ch=1 n=g6 v=79
479042 On ch=1 n=g6 v=0
479044 On ch=1 n=b5 v=79
479282 On ch=1 n=b5 v=0
479284 On ch=1 n=d6 v=79
479522 On ch=1 n=d6 v=0
479524 On ch=1 n=g5 v=79
480002 On ch=1 n=g5 v=0
480486 On ch=1 n=g6 v=46
480722 On ch=1 n=g6 v=0
480966 On ch=1 n=f#6 v=46
481202 On ch=1 n=f#6 v=0
481446 On ch=1 n=f6 v=46
481682 On ch=1 n=f6 v=0
481926 On ch=1 n=e6 v=46
482162 On ch=1 n=e6 v=0
482406 On ch=1 n=f6 v=46
482642 On ch=1 n=f6 v=0
482886 On ch=1 n=f6 v=46
483122 On ch=1 n=f6 v=0
483124 On ch=1 n=e6 v=46
483362 On ch=1 n=e6 v=0
483364 On ch=1 n=f6 v=46
483842 On ch=1 n=f6 v=0
483844 On ch=1 n=d6 v=46
484322 On ch=1 n=d6 v=0
484806 On ch=1 n=g7 v=35
485042 On ch=1 n=g7 v=0
485286 On ch=1 n=f#7 v=35
485522 On ch=1 n=f#7 v=0
485766 On ch=1 n=f7 v=35
486002 On ch=1 n=f7 v=0
486246 On ch=1 n=e7 v=35
486482 On ch=1 n=e7 v=0
486726 On ch=1 n=f7 v=35
486962 On ch=1 n=f7 v=0
487206 On ch=1 n=f7 v=35
487442 On ch=1 n=f7 v=0
487444 On ch=1 n=e7 v=35
487682 On ch=1 n=e7 v=0
487684 On ch=1 n=f7 v=35
488162 On ch=1 n=f7 v=0
488164 On ch=1 n=f7 v=35
488402 On ch=1 n=f7 v=0
488646 On ch=1 n=f7 v=46
488882 On ch=1 n=f7 v=0
488884 On ch=1 n=e7 v=46
489122 On ch=1 n=e7 v=0
489124 On ch=1 n=f7 v=46
489602 On ch=1 n=f7 v=0
489604 On ch=1 n=f7 v=46
489842 On ch=1 n=f7 v=0
490086 On ch=1 n=f7 v=61
490322 On ch=1 n=f7 v=0
490324 On ch=1 n=e7 v=61
490562 On ch=1 n=e7 v=0
490564 On ch=1 n=f7 v=61
491042 On ch=1 n=f7 v=0
491044 On ch=1 n=f7 v=61
491282 On ch=1 n=f7 v=0
491526 On ch=1 n=f7 v=79
491762 On ch=1 n=f7 v=0
491764 On ch=1 n=e7 v=79
492002 On ch=1 n=e7 v=0
492004 On ch=1 n=f7 v=79
492482 On ch=1 n=f7 v=0
492484 On ch=1 n=e7 v=79
492962 On ch=1 n=e7 v=0
492964 On ch=1 n=a6 v=46
493202 On ch=1 n=a6 v=0
493204 On ch=1 n=g#6 v=46
493442 On ch=1 n=g#6 v=0
493444 On ch=1 n=a6 v=46
493682 On ch=1 n=a6 v=0
493684 On ch=1 n=g#6 v=46
493922 On ch=1 n=g#6 v=0
493924 On ch=1 n=a6 v=46
494162 On ch=1 n=a6 v=0
494164 On ch=1 n=g#6 v=46
494402 On ch=1 n=g#6 v=0
494404 On ch=1 n=a6 v=46
494642 On ch=1 n=a6 v=0
494644 On ch=1 n=g#6 v=46
494882 On ch=1 n=g#6 v=0
494884 On ch=1 n=a6 v=46
495122 On ch=1 n=a6 v=0
495124 On ch=1 n=g#6 v=46
495362 On ch=1 n=g#6 v=0
495364 On ch=1 n=a6 v=46
495602 On ch=1 n=a6 v=0
495604 On ch=1 n=g#6 v=46
495842 On ch=1 n=g#6 v=0
495844 On ch=1 n=a6 v=61
496082 On ch=1 n=a6 v=0
496084 On ch=1 n=g#6 v=61
496322 On ch=1 n=g#6 v=0
496324 On ch=1 n=a6 v=61
496562 On ch=1 n=a6 v=0
496564 On ch=1 n=g#6 v=61
496802 On ch=1 n=g#6 v=0
496804 On ch=1 n=a6 v=61
497042 On ch=1 n=a6 v=0
497044 On ch=1 n=g6 v=61
497282 On ch=1 n=g6 v=0
497284 On ch=1 n=a#6 v=61
497522 On ch=1 n=a#6 v=0
497524 On ch=1 n=a6 v=61
497762 On ch=1 n=a6 v=0
497764 On ch=1 n=g6 v=61
498002 On ch=1 n=g6 v=0
498004 On ch=1 n=f6 v=61
498242 On ch=1 n=f6 v=0
498244 On ch=1 n=e6 v=61
498482 On ch=1 n=e6 v=0
498484 On ch=1 n=d6 v=61
498722 On ch=1 n=d6 v=0
498724 On ch=1 n=c#6 v=61
498962 On ch=1 n=c#6 v=0
498964 On ch=1 n=b5 v=61
499202 On ch=1 n=b5 v=0
499204 On ch=1 n=a5 v=61
499442 On ch=1 n=a5 v=0
499444 On ch=1 n=g5 v=61
499682 On ch=1 n=g5 v=0
499684 On ch=1 n=f5 v=79
499922 On ch=1 n=f5 v=0
499924 On ch=1 n=e5 v=79
500162 On ch=1 n=e5 v=0
500164 On ch=1 n=d5 v=79
500402 On ch=1 n=d5 v=0
500404 On ch=1 n=c#5 v=79
500642 On ch=1 n=c#5 v=0
500644 On ch=1 n=d5 v=79
500882 On ch=1 n=d5 v=0
500884 On ch=1 n=c#5 v=79
501122 On ch=1 n=c#5 v=0
501124 On ch=1 n=d5 v=79
501362 On ch=1 n=d5 v=0
501364 On ch=1 n=c#5 v=79
501602 On ch=1 n=c#5 v=0
501604 On ch=1 n=d5 v=79
501842 On ch=1 n=d5 v=0
501844 On ch=1 n=c#5 v=79
502082 On ch=1 n=c#5 v=0
502084 On ch=1 n=d5 v=79
502322 On ch=1 n=d5 v=0
502324 On ch=1 n=c#5 v=79
502562 On ch=1 n=c#5 v=0
502564 On ch=1 n=d5 v=79
502802 On ch=1 n=d5 v=0
502804 On ch=1 n=d#5 v=79
503042 On ch=1 n=d#5 v=0
503044 On ch=1 n=d5 v=79
503282 On ch=1 n=d5 v=0
503284 On ch=1 n=d#5 v=79
503522 On ch=1 n=d#5 v=0
503524 On ch=1 n=d5 v=79
503762 On ch=1 n=d5 v=0
503764 On ch=1 n=d#5 v=79
504002 On ch=1 n=d#5 v=0
504004 On ch=1 n=d5 v=61
504242 On ch=1 n=d5 v=0
504244 On ch=1 n=d#5 v=61
504482 On ch=1 n=d#5 v=0
504484 On ch=1 n=d5 v=61
504722 On ch=1 n=d5 v=0
504724 On ch=1 n=d#5 v=61
504962 On ch=1 n=d#5 v=0
504964 On ch=1 n=d5 v=61
505202 On ch=1 n=d5 v=0
505204 On ch=1 n=d#5 v=61
505442 On ch=1 n=d#5 v=0
505444 On ch=1 n=d5 v=46
505682 On ch=1 n=d5 v=0
505684 On ch=1 n=d#5 v=46
505922 On ch=1 n=d#5 v=0
505924 On ch=1 n=d5 v=46
506162 On ch=1 n=d5 v=0
506164 On ch=1 n=d#5 v=46
506402 On ch=1 n=d#5 v=0
506404 On ch=1 n=d5 v=46
506642 On ch=1 n=d5 v=0
506644 On ch=1 n=d#5 v=46
506882 On ch=1 n=d#5 v=0
506884 On ch=1 n=d5 v=35
507122 On ch=1 n=d5 v=0
507124 On ch=1 n=d#5 v=35
507362 On ch=1 n=d#5 v=0
507364 On ch=1 n=d5 v=35
507602 On ch=1 n=d5 v=0
507604 On ch=1 n=d#5 v=35
507842 On ch=1 n=d#5 v=0
507844 On ch=1 n=d5 v=35
508082 On ch=1 n=d5 v=0
508084 On ch=1 n=d#5 v=35
508322 On ch=1 n=d#5 v=0
508324 On ch=1 n=d5 v=27
509282 On ch=1 n=d5 v=0
509284 On ch=1 n=d5 v=46
509762 On ch=1 n=d5 v=0
509764 On ch=1 n=g5 v=46
510242 On ch=1 n=g5 v=0
510244 On ch=1 n=g5 v=46
510722 On ch=1 n=g5 v=0
510724 On ch=1 n=g5 v=46
511202 On ch=1 n=g5 v=0
511204 On ch=1 n=a#5 v=35
511442 On ch=1 n=a#5 v=0
511444 On ch=1 n=a5 v=35
511682 On ch=1 n=a5 v=0
511684 On ch=1 n=a5 v=35
511922 On ch=1 n=a5 v=0
511924 On ch=1 n=g5 v=35
512162 On ch=1 n=g5 v=0
512164 On ch=1 n=a5 v=27
512642 On ch=1 n=a5 v=0
512644 On ch=1 n=b5 v=27
513122 On ch=1 n=b5 v=0
513606 On ch=1 n=g5 v=35
514082 On ch=1 n=g5 v=0
514084 On ch=1 n=c6 v=35
514562 On ch=1 n=c6 v=0
514564 On ch=1 n=c6 v=35
515042 On ch=1 n=c6 v=0
515044 On ch=1 n=c6 v=46
515522 On ch=1 n=c6 v=0
515524 On ch=1 n=e6 v=46
515642 On ch=1 n=e6 v=0
515644 On ch=1 n=d6 v=46
515762 On ch=1 n=d6 v=0
516006 On ch=1 n=d6 v=46
516242 On ch=1 n=d6 v=0
516244 On ch=1 n=c6 v=46
516482 On ch=1 n=c6 v=0
516484 On ch=1 n=d6 v=61
516962 On ch=1 n=d6 v=0
516964 On ch=1 n=c6 v=61
517082 On ch=1 n=c6 v=0
517084 On ch=1 n=b5 v=61
517202 On ch=1 n=b5 v=0
517446 On ch=1 n=b5 v=61
517682 On ch=1 n=b5 v=0
517684 On ch=1 n=a5 v=61
517922 On ch=1 n=a5 v=0
517924 On ch=1 n=b5 v=61
518402 On ch=1 n=b5 v=0
518526 On ch=1 n=g6 v=79
519362 On ch=1 n=g6 v=0
519364 On ch=1 n=e6 v=79
519602 On ch=1 n=e6 v=0
519604 On ch=1 n=c6 v=79
519842 On ch=1 n=c6 v=0
519844 On ch=1 n=c6 v=79
519962 On ch=1 n=c6 v=0
519964 On ch=1 n=b5 v=79
520082 On ch=1 n=b5 v=0
520326 On ch=1 n=b5 v=79
520562 On ch=1 n=b5 v=0
520564 On ch=1 n=a5 v=79
520802 On ch=1 n=a5 v=0
520804 On ch=1 n=b5 v=79
521042 On ch=1 n=b5 v=0
521406 On ch=1 n=g6 v=79
522242 On ch=1 n=g6 v=0
522244 On ch=1 n=e6 v=79
522482 On ch=1 n=e6 v=0
522484 On ch=1 n=c6 v=79
522722 On ch=1 n=c6 v=0
522724 On ch=1 n=c6 v=79
522842 On ch=1 n=c6 v=0
522844 On ch=1 n=b5 v=79
522962 On ch=1 n=b5 v=0
523206 On ch=1 n=b5 v=79
523442 On ch=1 n=b5 v=0
523444 On ch=1 n=a5 v=79
523682 On ch=1 n=a5 v=0
523684 On ch=1 n=b5 v=79
523922 On ch=1 n=b5 v=0
524286 On ch=1 n=g6 v=79
525122 On ch=1 n=g6 v=0
525124 On ch=1 n=e6 v=79
525362 On ch=1 n=e6 v=0
525364 On ch=1 n=c6 v=79
525602 On ch=1 n=c6 v=0
525726 On ch=1 n=a6 v=79
526562 On ch=1 n=a6 v=0
526564 On ch=1 n=f6 v=79
526802 On ch=1 n=f6 v=0
526804 On ch=1 n=d6 v=79
527042 On ch=1 n=d6 v=0
527044 On ch=1 n=c6 v=79
528002 On ch=1 n=c6 v=0
528004 On ch=1 n=e6 v=79
528242 On ch=1 n=e6 v=0
528244 On ch=1 n=d6 v=79
528482 On ch=1 n=d6 v=0
528484 On ch=1 n=c6 v=79
528962 On ch=1 n=c6 v=0
528964 On ch=1 n=c6 v=79
529082 On ch=1 n=c6 v=0
529084 On ch=1 n=c7 v=79
529442 On ch=1 n=c7 v=0
529444 On ch=1 n=b5 v=79
529562 On ch=1 n=b5 v=0
529564 On ch=1 n=b6 v=79
529922 On ch=1 n=b6 v=0
529924 On ch=1 n=a#5 v=79
530042 On ch=1 n=a#5 v=0
530044 On ch=1 n=a#6 v=79
530402 On ch=1 n=a#6 v=0
530404 On ch=1 n=a5 v=79
530522 On ch=1 n=a5 v=0
530524 On ch=1 n=a6 v=79
530882 On ch=1 n=a6 v=0
530884 On ch=1 n=g5 v=79
531002 On ch=1 n=g5 v=0
531004 On ch=1 n=g6 v=79
531362 On ch=1 n=g6 v=0
531364 On ch=1 n=f#6 v=79
532802 On ch=1 n=f#6 v=0
532804 On ch=1 n=g6 v=61
534242 On ch=1 n=g6 v=0
534244 On ch=1 n=d6 v=61
534482 On ch=1 n=d6 v=0
534484 On ch=1 n=c6 v=61
534722 On ch=1 n=c6 v=0
534724 On ch=1 n=c6 v=61
534962 On ch=1 n=c6 v=0
534964 On ch=1 n=b5 v=61
535202 On ch=1 n=b5 v=0
535204 On ch=1 n=c6 v=61
535682 On ch=1 n=c6 v=0
535684 On ch=1 n=b5 v=46
536162 On ch=1 n=b5 v=0
536646 On ch=1 n=g5 v=35
537122 On ch=1 n=g5 v=0
537124 On ch=1 n=c6 v=35
537362 On ch=1 n=c6 v=0
537606 On ch=1 n=c6 v=35
537842 On ch=1 n=c6 v=0
538086 On ch=1 n=c6 v=35
538322 On ch=1 n=c6 v=0
538566 On ch=1 n=d#6 v=35
538682 On ch=1 n=d#6 v=0
538684 On ch=1 n=c#6 v=35
538802 On ch=1 n=c#6 v=0
539046 On ch=1 n=c#6 v=35
539282 On ch=1 n=c#6 v=0
539284 On ch=1 n=c6 v=35
539522 On ch=1 n=c6 v=0
539524 On ch=1 n=c#6 v=35
540002 On ch=1 n=c#6 v=0
540966 On ch=1 n=g5 v=35
541442 On ch=1 n=g5 v=0
541444 On ch=1 n=c6 v=79
541922 On ch=1 n=c6 v=0
541924 On ch=1 n=c6 v=79
542402 On ch=1 n=c6 v=0
542404 On ch=1 n=c6 v=79
542882 On ch=1 n=c6 v=0
542884 On ch=1 n=e6 v=79
543122 On ch=1 n=e6 v=0
543124 On ch=1 n=d6 v=79
543362 On ch=1 n=d6 v=0
543364 On ch=1 n=d6 v=79
543602 On ch=1 n=d6 v=0
543604 On ch=1 n=c#6 v=79
543842 On ch=1 n=c#6 v=0
543844 On ch=1 n=d6 v=79
544322 On ch=1 n=d6 v=0
544324 On ch=1 n=c6 v=79
544562 On ch=1 n=c6 v=0
544564 On ch=1 n=b5 v=79
544802 On ch=1 n=b5 v=0
544804 On ch=1 n=b5 v=79
545042 On ch=1 n=b5 v=0
545044 On ch=1 n=a#5 v=79
545282 On ch=1 n=a#5 v=0
545284 On ch=1 n=b5 v=79
545762 On ch=1 n=b5 v=0
546726 On ch=1 n=g6 v=79
547202 On ch=1 n=g6 v=0
547204 On ch=1 n=c7 v=79
547442 On ch=1 n=c7 v=0
547686 On ch=1 n=c7 v=79
547922 On ch=1 n=c7 v=0
548166 On ch=1 n=c7 v=79
548402 On ch=1 n=c7 v=0
548646 On ch=1 n=d7 v=79
548882 On ch=1 n=d7 v=0
549126 On ch=1 n=d7 v=79
549362 On ch=1 n=d7 v=0
549364 On ch=1 n=c#7 v=79
549602 On ch=1 n=c#7 v=0
549604 On ch=1 n=d7 v=79
550082 On ch=1 n=d7 v=0
550084 On ch=1 n=b6 v=79
550322 On ch=1 n=b6 v=0
550566 On ch=1 n=b6 v=79
551522 On ch=1 n=b6 v=0
551646 On ch=1 n=g7 v=102
552482 On ch=1 n=g7 v=0
552484 On ch=1 n=e7 v=102
552722 On ch=1 n=e7 v=0
552724 On ch=1 n=c7 v=102
552962 On ch=1 n=c7 v=0
552964 On ch=1 n=c7 v=102
553082 On ch=1 n=c7 v=0
553084 On ch=1 n=b6 v=102
553202 On ch=1 n=b6 v=0
553446 On ch=1 n=b6 v=102
553682 On ch=1 n=b6 v=0
553684 On ch=1 n=a6 v=102
553922 On ch=1 n=a6 v=0
553924 On ch=1 n=b6 v=102
554162 On ch=1 n=b6 v=0
554526 On ch=1 n=g7 v=102
555362 On ch=1 n=g7 v=0
555364 On ch=1 n=e7 v=102
555602 On ch=1 n=e7 v=0
555604 On ch=1 n=c7 v=102
555842 On ch=1 n=c7 v=0
555844 On ch=1 n=c7 v=102
555962 On ch=1 n=c7 v=0
555964 On ch=1 n=b6 v=102
556082 On ch=1 n=b6 v=0
556326 On ch=1 n=b6 v=102
556562 On ch=1 n=b6 v=0
556564 On ch=1 n=a6 v=102
556802 On ch=1 n=a6 v=0
556804 On ch=1 n=b6 v=102
557042 On ch=1 n=b6 v=0
557406 On ch=1 n=g7 v=102
558242 On ch=1 n=g7 v=0
558244 On ch=1 n=e7 v=102
558482 On ch=1 n=e7 v=0
558484 On ch=1 n=c7 v=102
558722 On ch=1 n=c7 v=0
558724 On ch=1 n=a7 v=102
559682 On ch=1 n=a7 v=0
559684 On ch=1 n=f7 v=102
559922 On ch=1 n=f7 v=0
559924 On ch=1 n=d7 v=102
560162 On ch=1 n=d7 v=0
560164 On ch=1 n=c7 v=79
561122 On ch=1 n=c7 v=0
561124 On ch=1 n=e7 v=79
561362 On ch=1 n=e7 v=0
561364 On ch=1 n=d7 v=79
561602 On ch=1 n=d7 v=0
561726 On ch=1 n=g6 v=79
562562 On ch=1 n=g6 v=0
562564 On ch=1 n=e6 v=79
562802 On ch=1 n=e6 v=0
562804 On ch=1 n=c6 v=79
563042 On ch=1 n=c6 v=0
563044 On ch=1 n=c6 v=79
563162 On ch=1 n=c6 v=0
563164 On ch=1 n=b5 v=79
563282 On ch=1 n=b5 v=0
563526 On ch=1 n=b5 v=79
563762 On ch=1 n=b5 v=0
563764 On ch=1 n=a5 v=79
564002 On ch=1 n=a5 v=0
564004 On ch=1 n=b5 v=79
564482 On ch=1 n=b5 v=0
564606 On ch=1 n=g6 v=79
565442 On ch=1 n=g6 v=0
565444 On ch=1 n=e6 v=79
565682 On ch=1 n=e6 v=0
565684 On ch=1 n=c6 v=79
565922 On ch=1 n=c6 v=0
565924 On ch=1 n=c6 v=79
566042 On ch=1 n=c6 v=0
566044 On ch=1 n=b5 v=79
566162 On ch=1 n=b5 v=0
566406 On ch=1 n=b5 v=79
566642 On ch=1 n=b5 v=0
566644 On ch=1 n=a5 v=79
566882 On ch=1 n=a5 v=0
566884 On ch=1 n=b5 v=79
567362 On ch=1 n=b5 v=0
567486 On ch=1 n=g6 v=79
568322 On ch=1 n=g6 v=0
568324 On ch=1 n=e6 v=79
568562 On ch=1 n=e6 v=0
568564 On ch=1 n=c6 v=79
568802 On ch=1 n=c6 v=0
568804 On ch=1 n=a6 v=79
569762 On ch=1 n=a6 v=0
569764 On ch=1 n=f6 v=79
570002 On ch=1 n=f6 v=0
570004 On ch=1 n=d6 v=79
570242 On ch=1 n=d6 v=0
570244 On ch=1 n=c6 v=79
571202 On ch=1 n=c6 v=0
571204 On ch=1 n=e6 v=61
571442 On ch=1 n=e6 v=0
571444 On ch=1 n=d6 v=61
571682 On ch=1 n=d6 v=0
571684 On ch=1 n=c6 v=61
572162 On ch=1 n=c6 v=0
572164 On ch=1 n=c7 v=36
572402 On ch=1 n=c7 v=0
572404 On ch=1 n=b6 v=36
572642 On ch=1 n=b6 v=0
572644 On ch=1 n=c7 v=36
572882 On ch=1 n=c7 v=0
572884 On ch=1 n=b6 v=36
573122 On ch=1 n=b6 v=0
573124 On ch=1 n=c7 v=36
573362 On ch=1 n=c7 v=0
573364 On ch=1 n=b6 v=36
573602 On ch=1 n=b6 v=0
573604 On ch=1 n=c7 v=47
573842 On ch=1 n=c7 v=0
573844 On ch=1 n=b6 v=47
574082 On ch=1 n=b6 v=0
574084 On ch=1 n=c7 v=47
574322 On ch=1 n=c7 v=0
574324 On ch=1 n=b6 v=47
574562 On ch=1 n=b6 v=0
574564 On ch=1 n=c7 v=47
574802 On ch=1 n=c7 v=0
574804 On ch=1 n=b6 v=47
575042 On ch=1 n=b6 v=0
575044 On ch=1 n=c7 v=63
575282 On ch=1 n=c7 v=0
575284 On ch=1 n=b6 v=63
575522 On ch=1 n=b6 v=0
575524 On ch=1 n=c7 v=63
575762 On ch=1 n=c7 v=0
575764 On ch=1 n=b6 v=63
576002 On ch=1 n=b6 v=0
576004 On ch=1 n=c7 v=63
576482 On ch=1 n=c7 v=0
576484 On ch=1 n=c7 v=105
576722 On ch=1 n=c7 v=0
576966 On ch=1 n=c7 v=105
577202 On ch=1 n=c7 v=0
577446 On ch=1 n=c7 v=105
577922 On ch=1 n=c7 v=0
578406 On ch=1 n=g6 v=47
578642 On ch=1 n=g6 v=0
578886 On ch=1 n=f#6 v=47
579122 On ch=1 n=f#6 v=0
579366 On ch=1 n=f6 v=47
579602 On ch=1 n=f6 v=0
579846 On ch=1 n=e6 v=47
580082 On ch=1 n=e6 v=0
580326 On ch=1 n=f6 v=47
580562 On ch=1 n=f6 v=0
580806 On ch=1 n=f6 v=47
581042 On ch=1 n=f6 v=0
581044 On ch=1 n=e6 v=47
581282 On ch=1 n=e6 v=0
581284 On ch=1 n=f6 v=47
581762 On ch=1 n=f6 v=0
581764 On ch=1 n=d6 v=47
582242 On ch=1 n=d6 v=0
582726 On ch=1 n=g7 v=36
582962 On ch=1 n=g7 v=0
583206 On ch=1 n=f#7 v=36
583442 On ch=1 n=f#7 v=0
583686 On ch=1 n=f7 v=36
583922 On ch=1 n=f7 v=0
584166 On ch=1 n=e7 v=36
584402 On ch=1 n=e7 v=0
584646 On ch=1 n=f7 v=36
584882 On ch=1 n=f7 v=0
585126 On ch=1 n=f7 v=36
585362 On ch=1 n=f7 v=0
585364 On ch=1 n=e7 v=36
585602 On ch=1 n=e7 v=0
585604 On ch=1 n=f7 v=36
586082 On ch=1 n=f7 v=0
586084 On ch=1 n=f7 v=36
586322 On ch=1 n=f7 v=0
586566 On ch=1 n=f7 v=47
586802 On ch=1 n=f7 v=0
586804 On ch=1 n=e7 v=47
587042 On ch=1 n=e7 v=0
587044 On ch=1 n=f7 v=47
587522 On ch=1 n=f7 v=0
587524 On ch=1 n=f7 v=47
587762 On ch=1 n=f7 v=0
588006 On ch=1 n=f7 v=63
588242 On ch=1 n=f7 v=0
588244 On ch=1 n=e7 v=63
588482 On ch=1 n=e7 v=0
588484 On ch=1 n=f7 v=63
588962 On ch=1 n=f7 v=0
588964 On ch=1 n=f7 v=63
589202 On ch=1 n=f7 v=0
589446 On ch=1 n=f7 v=81
589682 On ch=1 n=f7 v=0
589684 On ch=1 n=e7 v=81
589922 On ch=1 n=e7 v=0
589924 On ch=1 n=f7 v=81
590402 On ch=1 n=f7 v=0
590404 On ch=1 n=e7 v=81
590882 On ch=1 n=e7 v=0
590884 On ch=1 n=a6 v=47
591122 On ch=1 n=a6 v=0
591124 On ch=1 n=g#6 v=47
591362 On ch=1 n=g#6 v=0
591364 On ch=1 n=a6 v=47
591602 On ch=1 n=a6 v=0
591604 On ch=1 n=g#6 v=47
591842 On ch=1 n=g#6 v=0
591844 On ch=1 n=a6 v=47
592082 On ch=1 n=a6 v=0
592084 On ch=1 n=g#6 v=47
592322 On ch=1 n=g#6 v=0
592324 On ch=1 n=a6 v=47
592562 On ch=1 n=a6 v=0
592564 On ch=1 n=g#6 v=47
592802 On ch=1 n=g#6 v=0
592804 On ch=1 n=a6 v=47
593042 On ch=1 n=a6 v=0
593044 On ch=1 n=g#6 v=47
593282 On ch=1 n=g#6 v=0
593284 On ch=1 n=a6 v=47
593522 On ch=1 n=a6 v=0
593524 On ch=1 n=g#6 v=47
593762 On ch=1 n=g#6 v=0
593764 On ch=1 n=a6 v=63
594002 On ch=1 n=a6 v=0
594004 On ch=1 n=g#6 v=63
594242 On ch=1 n=g#6 v=0
594244 On ch=1 n=a6 v=63
594482 On ch=1 n=a6 v=0
594484 On ch=1 n=g#6 v=63
594722 On ch=1 n=g#6 v=0
594724 On ch=1 n=a6 v=63
594962 On ch=1 n=a6 v=0
594964 On ch=1 n=g6 v=63
595202 On ch=1 n=g6 v=0
595204 On ch=1 n=a#6 v=63
595442 On ch=1 n=a#6 v=0
595444 On ch=1 n=a6 v=63
595682 On ch=1 n=a6 v=0
595684 On ch=1 n=g6 v=63
595922 On ch=1 n=g6 v=0
595924 On ch=1 n=f6 v=63
596162 On ch=1 n=f6 v=0
596164 On ch=1 n=e6 v=63
596402 On ch=1 n=e6 v=0
596404 On ch=1 n=d6 v=63
596642 On ch=1 n=d6 v=0
596644 On ch=1 n=c#6 v=63
596882 On ch=1 n=c#6 v=0
596884 On ch=1 n=b5 v=63
597122 On ch=1 n=b5 v=0
597124 On ch=1 n=a5 v=63
597362 On ch=1 n=a5 v=0
597364 On ch=1 n=g5 v=63
597602 On ch=1 n=g5 v=0
597604 On ch=1 n=f5 v=81
597842 On ch=1 n=f5 v=0
597844 On ch=1 n=e5 v=81
598082 On ch=1 n=e5 v=0
598084 On ch=1 n=d5 v=81
598322 On ch=1 n=d5 v=0
598324 On ch=1 n=c#5 v=81
598562 On ch=1 n=c#5 v=0
598564 On ch=1 n=d5 v=81
598802 On ch=1 n=d5 v=0
598804 On ch=1 n=c#5 v=81
599042 On ch=1 n=c#5 v=0
599044 On ch=1 n=d5 v=81
599282 On ch=1 n=d5 v=0
599284 On ch=1 n=c#5 v=81
599522 On ch=1 n=c#5 v=0
599524 On ch=1 n=d5 v=81
599762 On ch=1 n=d5 v=0
599764 On ch=1 n=c#5 v=81
600002 On ch=1 n=c#5 v=0
600004 On ch=1 n=d5 v=81
600242 On ch=1 n=d5 v=0
600244 On ch=1 n=c#5 v=81
600482 On ch=1 n=c#5 v=0
600484 On ch=1 n=d5 v=81
600722 On ch=1 n=d5 v=0
600724 On ch=1 n=d#5 v=81
600962 On ch=1 n=d#5 v=0
600964 On ch=1 n=d5 v=81
601202 On ch=1 n=d5 v=0
601204 On ch=1 n=d#5 v=81
601442 On ch=1 n=d#5 v=0
601444 On ch=1 n=d5 v=81
601682 On ch=1 n=d5 v=0
601684 On ch=1 n=d#5 v=81
601922 On ch=1 n=d#5 v=0
601924 On ch=1 n=d5 v=63
602162 On ch=1 n=d5 v=0
602164 On ch=1 n=d#5 v=63
602402 On ch=1 n=d#5 v=0
602404 On ch=1 n=d5 v=63
602642 On ch=1 n=d5 v=0
602644 On ch=1 n=d#5 v=63
602882 On ch=1 n=d#5 v=0
602884 On ch=1 n=d5 v=63
603122 On ch=1 n=d5 v=0
603124 On ch=1 n=d#5 v=63
603362 On ch=1 n=d#5 v=0
603364 On ch=1 n=d5 v=47
603602 On ch=1 n=d5 v=0
603604 On ch=1 n=d#5 v=47
603842 On ch=1 n=d#5 v=0
603844 On ch=1 n=d5 v=47
604082 On ch=1 n=d5 v=0
604084 On ch=1 n=d#5 v=47
604322 On ch=1 n=d#5 v=0
604324 On ch=1 n=d5 v=47
604562 On ch=1 n=d5 v=0
604564 On ch=1 n=d#5 v=47
604802 On ch=1 n=d#5 v=0
604804 On ch=1 n=d5 v=36
605042 On ch=1 n=d5 v=0
605044 On ch=1 n=d#5 v=36
605282 On ch=1 n=d#5 v=0
605284 On ch=1 n=d5 v=36
605522 On ch=1 n=d5 v=0
605524 On ch=1 n=d#5 v=36
605762 On ch=1 n=d#5 v=0
605764 On ch=1 n=d5 v=36
606002 On ch=1 n=d5 v=0
606004 On ch=1 n=d#5 v=36
606242 On ch=1 n=d#5 v=0
606244 On ch=1 n=d5 v=28
607202 On ch=1 n=d5 v=0
607204 On ch=1 n=d5 v=47
607682 On ch=1 n=d5 v=0
607684 On ch=1 n=g5 v=47
608162 On ch=1 n=g5 v=0
608164 On ch=1 n=g5 v=47
608642 On ch=1 n=g5 v=0
608644 On ch=1 n=g5 v=47
609122 On ch=1 n=g5 v=0
609124 On ch=1 n=a#5 v=36
609362 On ch=1 n=a#5 v=0
609364 On ch=1 n=a5 v=36
609602 On ch=1 n=a5 v=0
609604 On ch=1 n=a5 v=36
609842 On ch=1 n=a5 v=0
609844 On ch=1 n=g5 v=36
610082 On ch=1 n=g5 v=0
610084 On ch=1 n=a5 v=28
610562 On ch=1 n=a5 v=0
610564 On ch=1 n=b5 v=28
611042 On ch=1 n=b5 v=0
611526 On ch=1 n=g5 v=41
612002 On ch=1 n=g5 v=0
612004 On ch=1 n=c6 v=41
612482 On ch=1 n=c6 v=0
612484 On ch=1 n=c6 v=36
612962 On ch=1 n=c6 v=0
612964 On ch=1 n=c6 v=47
613442 On ch=1 n=c6 v=0
613444 On ch=1 n=e6 v=47
613562 On ch=1 n=e6 v=0
613564 On ch=1 n=d6 v=47
613682 On ch=1 n=d6 v=0
613926 On ch=1 n=d6 v=47
614162 On ch=1 n=d6 v=0
614164 On ch=1 n=c6 v=47
614402 On ch=1 n=c6 v=0
614404 On ch=1 n=d6 v=63
614882 On ch=1 n=d6 v=0
614884 On ch=1 n=c6 v=63
615002 On ch=1 n=c6 v=0
615004 On ch=1 n=b5 v=63
615122 On ch=1 n=b5 v=0
615366 On ch=1 n=b5 v=63
615602 On ch=1 n=b5 v=0
615604 On ch=1 n=a5 v=63
615842 On ch=1 n=a5 v=0
615844 On ch=1 n=b5 v=63
616322 On ch=1 n=b5 v=0
616446 On ch=1 n=g6 v=81
617282 On ch=1 n=g6 v=0
617284 On ch=1 n=e6 v=81
617522 On ch=1 n=e6 v=0
617524 On ch=1 n=c6 v=81
617762 On ch=1 n=c6 v=0
617764 On ch=1 n=c6 v=81
617882 On ch=1 n=c6 v=0
617884 On ch=1 n=b5 v=81
618002 On ch=1 n=b5 v=0
618246 On ch=1 n=b5 v=81
618482 On ch=1 n=b5 v=0
618484 On ch=1 n=a5 v=81
618722 On ch=1 n=a5 v=0
618724 On ch=1 n=b5 v=81
618962 On ch=1 n=b5 v=0
619326 On ch=1 n=g6 v=81
620162 On ch=1 n=g6 v=0
620164 On ch=1 n=e6 v=81
620402 On ch=1 n=e6 v=0
620404 On ch=1 n=c6 v=81
620642 On ch=1 n=c6 v=0
620644 On ch=1 n=c6 v=81
620762 On ch=1 n=c6 v=0
620764 On ch=1 n=b5 v=81
620882 On ch=1 n=b5 v=0
621126 On ch=1 n=b5 v=81
621362 On ch=1 n=b5 v=0
621364 On ch=1 n=a5 v=81
621602 On ch=1 n=a5 v=0
621604 On ch=1 n=b5 v=81
621842 On ch=1 n=b5 v=0
622206 On ch=1 n=g6 v=81
623042 On ch=1 n=g6 v=0
623044 On ch=1 n=e6 v=81
623282 On ch=1 n=e6 v=0
623284 On ch=1 n=c6 v=81
623522 On ch=1 n=c6 v=0
623646 On ch=1 n=a6 v=81
624482 On ch=1 n=a6 v=0
624484 On ch=1 n=f6 v=81
624722 On ch=1 n=f6 v=0
624724 On ch=1 n=d6 v=81
624962 On ch=1 n=d6 v=0
624964 On ch=1 n=c6 v=81
625922 On ch=1 n=c6 v=0
625924 On ch=1 n=e6 v=81
626162 On ch=1 n=e6 v=0
626164 On ch=1 n=d6 v=81
626402 On ch=1 n=d6 v=0
626404 On ch=1 n=c6 v=81
626882 On ch=1 n=c6 v=0
626884 On ch=1 n=c6 v=81
627002 On ch=1 n=c6 v=0
627004 On ch=1 n=c7 v=81
627362 On ch=1 n=c7 v=0
627364 On ch=1 n=b5 v=81
627482 On ch=1 n=b5 v=0
627484 On ch=1 n=b6 v=81
627842 On ch=1 n=b6 v=0
627844 On ch=1 n=a#5 v=81
627962 On ch=1 n=a#5 v=0
627964 On ch=1 n=a#6 v=81
628322 On ch=1 n=a#6 v=0
628324 On ch=1 n=a5 v=81
628442 On ch=1 n=a5 v=0
628444 On ch=1 n=a6 v=81
628802 On ch=1 n=a6 v=0
628804 On ch=1 n=g5 v=81
628922 On ch=1 n=g5 v=0
628924 On ch=1 n=g6 v=81
629282 On ch=1 n=g6 v=0
629284 On ch=1 n=f#6 v=81
630722 On ch=1 n=f#6 v=0
630724 On ch=1 n=g6 v=63
632162 On ch=1 n=g6 v=0
632164 On ch=1 n=d6 v=63
632402 On ch=1 n=d6 v=0
632404 On ch=1 n=c6 v=63
632642 On ch=1 n=c6 v=0
632644 On ch=1 n=c6 v=63
632882 On ch=1 n=c6 v=0
632884 On ch=1 n=b5 v=63
633122 On ch=1 n=b5 v=0
633124 On ch=1 n=c6 v=63
633602 On ch=1 n=c6 v=0
633604 On ch=1 n=b5 v=47
634082 On ch=1 n=b5 v=0
634566 On ch=1 n=g5 v=36
635042 On ch=1 n=g5 v=0
635044 On ch=1 n=c6 v=36
635282 On ch=1 n=c6 v=0
635526 On ch=1 n=c6 v=36
635762 On ch=1 n=c6 v=0
636006 On ch=1 n=c6 v=36
636242 On ch=1 n=c6 v=0
636486 On ch=1 n=d#6 v=36
636602 On ch=1 n=d#6 v=0
636604 On ch=1 n=c#6 v=36
636722 On ch=1 n=c#6 v=0
636966 On ch=1 n=c#6 v=36
637202 On ch=1 n=c#6 v=0
637204 On ch=1 n=c6 v=36
637442 On ch=1 n=c6 v=0
637444 On ch=1 n=c#6 v=36
637922 On ch=1 n=c#6 v=0
638886 On ch=1 n=g5 v=36
639362 On ch=1 n=g5 v=0
639364 On ch=1 n=c6 v=81
639842 On ch=1 n=c6 v=0
639844 On ch=1 n=c6 v=81
640322 On ch=1 n=c6 v=0
640324 On ch=1 n=c6 v=81
640802 On ch=1 n=c6 v=0
640804 On ch=1 n=e6 v=81
641042 On ch=1 n=e6 v=0
641044 On ch=1 n=d6 v=81
641282 On ch=1 n=d6 v=0
641284 On ch=1 n=d6 v=81
641522 On ch=1 n=d6 v=0
641524 On ch=1 n=c#6 v=81
641762 On ch=1 n=c#6 v=0
641764 On ch=1 n=d6 v=81
642242 On ch=1 n=d6 v=0
642244 On ch=1 n=c6 v=81
642482 On ch=1 n=c6 v=0
642484 On ch=1 n=b5 v=81
642722 On ch=1 n=b5 v=0
642724 On ch=1 n=b5 v=81
642962 On ch=1 n=b5 v=0
642964 On ch=1 n=a#5 v=81
643202 On ch=1 n=a#5 v=0
643204 On ch=1 n=b5 v=81
643682 On ch=1 n=b5 v=0
644646 On ch=1 n=g6 v=81
645122 On ch=1 n=g6 v=0
645124 On ch=1 n=c7 v=81
645362 On ch=1 n=c7 v=0
645606 On ch=1 n=c7 v=81
645842 On ch=1 n=c7 v=0
646086 On ch=1 n=c7 v=81
646322 On ch=1 n=c7 v=0
646566 On ch=1 n=d7 v=81
646802 On ch=1 n=d7 v=0
647046 On ch=1 n=d7 v=81
647282 On ch=1 n=d7 v=0
647284 On ch=1 n=c#7 v=81
647522 On ch=1 n=c#7 v=0
647524 On ch=1 n=d7 v=81
648002 On ch=1 n=d7 v=0
648004 On ch=1 n=b6 v=81
648242 On ch=1 n=b6 v=0
648486 On ch=1 n=b6 v=81
649442 On ch=1 n=b6 v=0
649566 On ch=1 n=g7 v=105
650402 On ch=1 n=g7 v=0
650404 On ch=1 n=e7 v=105
650642 On ch=1 n=e7 v=0
650644 On ch=1 n=c7 v=105
650882 On ch=1 n=c7 v=0
650884 On ch=1 n=c7 v=105
651002 On ch=1 n=c7 v=0
651004 On ch=1 n=b6 v=105
651122 On ch=1 n=b6 v=0
651366 On ch=1 n=b6 v=105
651602 On ch=1 n=b6 v=0
651604 On ch=1 n=a6 v=105
651842 On ch=1 n=a6 v=0
651844 On ch=1 n=b6 v=105
652082 On ch=1 n=b6 v=0
652446 On ch=1 n=g7 v=105
653282 On ch=1 n=g7 v=0
653284 On ch=1 n=e7 v=105
653522 On ch=1 n=e7 v=0
653524 On ch=1 n=c7 v=105
653762 On ch=1 n=c7 v=0
653764 On ch=1 n=c7 v=105
653882 On ch=1 n=c7 v=0
653884 On ch=1 n=b6 v=105
654002 On ch=1 n=b6 v=0
654246 On ch=1 n=b6 v=105
654482 On ch=1 n=b6 v=0
654484 On ch=1 n=a6 v=105
654722 On ch=1 n=a6 v=0
654724 On ch=1 n=b6 v=105
654962 On ch=1 n=b6 v=0
655326 On ch=1 n=g7 v=105
656162 On ch=1 n=g7 v=0
656164 On ch=1 n=e7 v=105
656402 On ch=1 n=e7 v=0
656404 On ch=1 n=c7 v=105
656642 On ch=1 n=c7 v=0
656644 On ch=1 n=a7 v=105
657602 On ch=1 n=a7 v=0
657604 On ch=1 n=f7 v=105
657842 On ch=1 n=f7 v=0
657844 On ch=1 n=d7 v=105
658082 On ch=1 n=d7 v=0
658084 On ch=1 n=c7 v=81
659042 On ch=1 n=c7 v=0
659044 On ch=1 n=e7 v=81
659282 On ch=1 n=e7 v=0
659284 On ch=1 n=d7 v=81
659522 On ch=1 n=d7 v=0
659646 On ch=1 n=g6 v=81
660482 On ch=1 n=g6 v=0
660484 On ch=1 n=e6 v=81
660722 On ch=1 n=e6 v=0
660724 On ch=1 n=c6 v=81
660962 On ch=1 n=c6 v=0
660964 On ch=1 n=c6 v=81
661082 On ch=1 n=c6 v=0
661084 On ch=1 n=b5 v=81
661202 On ch=1 n=b5 v=0
661446 On ch=1 n=b5 v=81
661682 On ch=1 n=b5 v=0
661684 On ch=1 n=a5 v=81
661922 On ch=1 n=a5 v=0
661924 On ch=1 n=b5 v=81
662402 On ch=1 n=b5 v=0
662526 On ch=1 n=g6 v=81
663362 On ch=1 n=g6 v=0
663364 On ch=1 n=e6 v=81
663602 On ch=1 n=e6 v=0
663604 On ch=1 n=c6 v=81
663842 On ch=1 n=c6 v=0
663844 On ch=1 n=c6 v=81
663962 On ch=1 n=c6 v=0
663964 On ch=1 n=b5 v=81
664082 On ch=1 n=b5 v=0
664326 On ch=1 n=b5 v=81
664562 On ch=1 n=b5 v=0
664564 On ch=1 n=a5 v=81
664802 On ch=1 n=a5 v=0
664804 On ch=1 n=b5 v=81
665282 On ch=1 n=b5 v=0
665406 On ch=1 n=g6 v=81
666242 On ch=1 n=g6 v=0
666244 On ch=1 n=e6 v=81
666482 On ch=1 n=e6 v=0
666484 On ch=1 n=c6 v=81
666722 On ch=1 n=c6 v=0
666724 On ch=1 n=a6 v=81
667682 On ch=1 n=a6 v=0
667684 On ch=1 n=f6 v=81
667922 On ch=1 n=f6 v=0
667924 On ch=1 n=d6 v=81
668162 On ch=1 n=d6 v=0
668164 On ch=1 n=c6 v=81
669122 On ch=1 n=c6 v=0
669124 On ch=1 n=e6 v=63
669362 On ch=1 n=e6 v=0
669364 On ch=1 n=d6 v=63
669602 On ch=1 n=d6 v=0
669604 On ch=1 n=c6 v=63
670082 On ch=1 n=c6 v=0
670084 On ch=1 n=c7 v=36
670322 On ch=1 n=c7 v=0
670324 On ch=1 n=b6 v=36
670562 On ch=1 n=b6 v=0
670564 On ch=1 n=c7 v=36
670802 On ch=1 n=c7 v=0
670804 On ch=1 n=b6 v=36
671042 On ch=1 n=b6 v=0
671044 On ch=1 n=c7 v=36
671282 On ch=1 n=c7 v=0
671284 On ch=1 n=b6 v=36
671522 On ch=1 n=b6 v=0
671524 On ch=1 n=c7 v=47
671762 On ch=1 n=c7 v=0
671764 On ch=1 n=b6 v=47
672002 On ch=1 n=b6 v=0
672004 On ch=1 n=c7 v=47
672242 On ch=1 n=c7 v=0
672244 On ch=1 n=b6 v=47
672482 On ch=1 n=b6 v=0
672484 On ch=1 n=c7 v=47
672722 On ch=1 n=c7 v=0
672724 On ch=1 n=b6 v=47
672962 On ch=1 n=b6 v=0
672964 On ch=1 n=c7 v=63
673202 On ch=1 n=c7 v=0
673204 On ch=1 n=b6 v=63
673442 On ch=1 n=b6 v=0
673444 On ch=1 n=c7 v=63
673682 On ch=1 n=c7 v=0
673684 On ch=1 n=b6 v=63
673922 On ch=1 n=b6 v=0
673924 On ch=1 n=c7 v=63
674402 On ch=1 n=c7 v=0
674404 On ch=1 n=c7 v=105
674642 On ch=1 n=c7 v=0
674886 On ch=1 n=c7 v=105
675122 On ch=1 n=c7 v=0
675366 On ch=1 n=c7 v=105
675842 On ch=1 n=c7 v=0
675842 Meta TrkEnd
TrkEnd
MTrk
0 SeqSpec 43 00 01 00
0 Meta TrkName "English Sonata) by Joseph"
0 Meta 0x21 00
0 PrCh ch=2 p=0
0 Par ch=2 c=7 v=127
7442 On ch=2 n=b4 v=35
7558 On ch=2 n=b4 v=0
7682 On ch=2 n=d5 v=35
7918 On ch=2 n=d5 v=0
7920 On ch=2 n=c5 v=35
8158 On ch=2 n=c5 v=0
8402 On ch=2 n=d5 v=47
8518 On ch=2 n=d5 v=0
8642 On ch=2 n=f5 v=47
8878 On ch=2 n=f5 v=0
8880 On ch=2 n=e5 v=47
9118 On ch=2 n=e5 v=0
9362 On ch=2 n=d5 v=63
9478 On ch=2 n=d5 v=0
9602 On ch=2 n=f5 v=63
9838 On ch=2 n=f5 v=0
9840 On ch=2 n=e5 v=63
10078 On ch=2 n=e5 v=0
10322 On ch=2 n=b5 v=63
10438 On ch=2 n=b5 v=0
10562 On ch=2 n=d6 v=81
11038 On ch=2 n=d6 v=0
11040 On ch=2 n=c6 v=39
11278 On ch=2 n=c6 v=0
11762 On ch=2 n=g6 v=81
11998 On ch=2 n=g6 v=0
12682 On ch=2 n=d6 v=81
12958 On ch=2 n=d6 v=0
13642 On ch=2 n=c6 v=81
13918 On ch=2 n=c6 v=0
15602 On ch=2 n=b5 v=50
15718 On ch=2 n=b5 v=0
15842 On ch=2 n=b5 v=50
15958 On ch=2 n=b5 v=0
16562 On ch=2 n=g5 v=50
16678 On ch=2 n=g5 v=0
16802 On ch=2 n=g5 v=50
16918 On ch=2 n=g5 v=0
19442 On ch=2 n=f6 v=47
19678 On ch=2 n=f6 v=0
19680 On ch=2 n=e6 v=47
19918 On ch=2 n=e6 v=0
20162 On ch=2 n=e5 v=31
20278 On ch=2 n=e5 v=0
20280 On ch=2 n=g5 v=31
20398 On ch=2 n=g5 v=0
20400 On ch=2 n=e5 v=31
20518 On ch=2 n=e5 v=0
20520 On ch=2 n=g5 v=36
20638 On ch=2 n=g5 v=0
20640 On ch=2 n=e5 v=36
20758 On ch=2 n=e5 v=0
20760 On ch=2 n=g5 v=36
20878 On ch=2 n=g5 v=0
20880 On ch=2 n=e5 v=36
20998 On ch=2 n=e5 v=0
21000 On ch=2 n=g5 v=44
21118 On ch=2 n=g5 v=0
21120 On ch=2 n=f5 v=53
21238 On ch=2 n=f5 v=0
21240 On ch=2 n=g5 v=53
21358 On ch=2 n=g5 v=0
21360 On ch=2 n=f5 v=53
21478 On ch=2 n=f5 v=0
21480 On ch=2 n=g5 v=53
21598 On ch=2 n=g5 v=0
21600 On ch=2 n=f5 v=53
21718 On ch=2 n=f5 v=0
21720 On ch=2 n=g5 v=53
21838 On ch=2 n=g5 v=0
21840 On ch=2 n=f5 v=35
21958 On ch=2 n=f5 v=0
21960 On ch=2 n=g5 v=35
22078 On ch=2 n=g5 v=0
22080 On ch=2 n=e5 v=35
22198 On ch=2 n=e5 v=0
22200 On ch=2 n=g5 v=31
22318 On ch=2 n=g5 v=0
22320 On ch=2 n=e5 v=36
22438 On ch=2 n=e5 v=0
22440 On ch=2 n=g5 v=36
22558 On ch=2 n=g5 v=0
22560 On ch=2 n=e5 v=36
22678 On ch=2 n=e5 v=0
22680 On ch=2 n=g5 v=36
22798 On ch=2 n=g5 v=0
22800 On ch=2 n=e5 v=53
22918 On ch=2 n=e5 v=0
22920 On ch=2 n=g5 v=53
23038 On ch=2 n=g5 v=0
23040 On ch=2 n=f5 v=53
23158 On ch=2 n=f5 v=0
23160 On ch=2 n=g5 v=53
23278 On ch=2 n=g5 v=0
23280 On ch=2 n=f5 v=53
23398 On ch=2 n=f5 v=0
23400 On ch=2 n=g5 v=53
23518 On ch=2 n=g5 v=0
23520 On ch=2 n=f5 v=53
23638 On ch=2 n=f5 v=0
23640 On ch=2 n=g5 v=35
23758 On ch=2 n=g5 v=0
23760 On ch=2 n=f5 v=35
23878 On ch=2 n=f5 v=0
23880 On ch=2 n=g5 v=35
23998 On ch=2 n=g5 v=0
24000 On ch=2 n=e5 v=35
24118 On ch=2 n=e5 v=0
24120 On ch=2 n=g5 v=35
24238 On ch=2 n=g5 v=0
24240 On ch=2 n=e5 v=35
24358 On ch=2 n=e5 v=0
24360 On ch=2 n=g5 v=35
24478 On ch=2 n=g5 v=0
24480 On ch=2 n=e5 v=35
24598 On ch=2 n=e5 v=0
24600 On ch=2 n=g5 v=35
24718 On ch=2 n=g5 v=0
24720 On ch=2 n=e5 v=35
24838 On ch=2 n=e5 v=0
24840 On ch=2 n=g5 v=35
24958 On ch=2 n=g5 v=0
24960 On ch=2 n=f5 v=35
25078 On ch=2 n=f5 v=0
25080 On ch=2 n=g5 v=35
25198 On ch=2 n=g5 v=0
25200 On ch=2 n=f5 v=35
25318 On ch=2 n=f5 v=0
25320 On ch=2 n=g5 v=31
25438 On ch=2 n=g5 v=0
25440 On ch=2 n=f5 v=31
25558 On ch=2 n=f5 v=0
25560 On ch=2 n=g5 v=31
25678 On ch=2 n=g5 v=0
25680 On ch=2 n=f5 v=31
25798 On ch=2 n=f5 v=0
25800 On ch=2 n=g5 v=31
25918 On ch=2 n=g5 v=0
25920 On ch=2 n=e5 v=31
26038 On ch=2 n=e5 v=0
26040 On ch=2 n=g5 v=31
26158 On ch=2 n=g5 v=0
26160 On ch=2 n=e5 v=31
26278 On ch=2 n=e5 v=0
26280 On ch=2 n=g5 v=31
26398 On ch=2 n=g5 v=0
26400 On ch=2 n=d5 v=31
26518 On ch=2 n=d5 v=0
26520 On ch=2 n=g5 v=31
26638 On ch=2 n=g5 v=0
26640 On ch=2 n=d5 v=31
26758 On ch=2 n=d5 v=0
26760 On ch=2 n=g5 v=31
26878 On ch=2 n=g5 v=0
26880 On ch=2 n=f5 v=31
26998 On ch=2 n=f5 v=0
27000 On ch=2 n=g5 v=31
27118 On ch=2 n=g5 v=0
27120 On ch=2 n=f5 v=31
27238 On ch=2 n=f5 v=0
27240 On ch=2 n=g5 v=31
27358 On ch=2 n=g5 v=0
27360 On ch=2 n=f5 v=31
27478 On ch=2 n=f5 v=0
27480 On ch=2 n=g5 v=31
27598 On ch=2 n=g5 v=0
27600 On ch=2 n=f5 v=31
27718 On ch=2 n=f5 v=0
27720 On ch=2 n=g5 v=31
27838 On ch=2 n=g5 v=0
27840 On ch=2 n=e5 v=31
27958 On ch=2 n=e5 v=0
27960 On ch=2 n=g5 v=31
28078 On ch=2 n=g5 v=0
28080 On ch=2 n=e5 v=31
28198 On ch=2 n=e5 v=0
28200 On ch=2 n=g5 v=31
28318 On ch=2 n=g5 v=0
28320 On ch=2 n=d5 v=31
28438 On ch=2 n=d5 v=0
28440 On ch=2 n=g5 v=31
28558 On ch=2 n=g5 v=0
28560 On ch=2 n=d5 v=31
28678 On ch=2 n=d5 v=0
28680 On ch=2 n=g5 v=31
28798 On ch=2 n=g5 v=0
28922 On ch=2 n=c5 v=63
29038 On ch=2 n=c5 v=0
29040 On ch=2 n=e5 v=63
29158 On ch=2 n=e5 v=0
29160 On ch=2 n=g5 v=63
29278 On ch=2 n=g5 v=0
29280 On ch=2 n=c6 v=63
29398 On ch=2 n=c6 v=0
30122 On ch=2 n=b6 v=63
30238 On ch=2 n=b6 v=0
30240 On ch=2 n=a6 v=63
30358 On ch=2 n=a6 v=0
30360 On ch=2 n=g6 v=63
30478 On ch=2 n=g6 v=0
30480 On ch=2 n=f6 v=63
30598 On ch=2 n=f6 v=0
30600 On ch=2 n=e6 v=63
30718 On ch=2 n=e6 v=0
30720 On ch=2 n=d6 v=63
31438 On ch=2 n=d6 v=0
31440 On ch=2 n=c6 v=63
31678 On ch=2 n=c6 v=0
31680 On ch=2 n=b5 v=47
31918 On ch=2 n=b5 v=0
32042 On ch=2 n=e6 v=31
32158 On ch=2 n=e6 v=0
32160 On ch=2 n=d#6 v=31
32278 On ch=2 n=d#6 v=0
32280 On ch=2 n=e6 v=31
32398 On ch=2 n=e6 v=0
32400 On ch=2 n=f6 v=31
32518 On ch=2 n=f6 v=0
32520 On ch=2 n=e6 v=31
32638 On ch=2 n=e6 v=0
32640 On ch=2 n=d6 v=47
32758 On ch=2 n=d6 v=0
33002 On ch=2 n=e6 v=47
33118 On ch=2 n=e6 v=0
33120 On ch=2 n=c6 v=47
33358 On ch=2 n=c6 v=0
33482 On ch=2 n=d6 v=47
33598 On ch=2 n=d6 v=0
33600 On ch=2 n=b5 v=47
33838 On ch=2 n=b5 v=0
33962 On ch=2 n=e6 v=31
34078 On ch=2 n=e6 v=0
34080 On ch=2 n=d#6 v=31
34198 On ch=2 n=d#6 v=0
34200 On ch=2 n=e6 v=31
34318 On ch=2 n=e6 v=0
34320 On ch=2 n=f6 v=31
34438 On ch=2 n=f6 v=0
34440 On ch=2 n=e6 v=31
34558 On ch=2 n=e6 v=0
34560 On ch=2 n=d6 v=31
34798 On ch=2 n=d6 v=0
34922 On ch=2 n=f6 v=31
35038 On ch=2 n=f6 v=0
35040 On ch=2 n=e6 v=31
35278 On ch=2 n=e6 v=0
35402 On ch=2 n=c6 v=31
35518 On ch=2 n=c6 v=0
35520 On ch=2 n=b5 v=31
35758 On ch=2 n=b5 v=0
36482 On ch=2 n=b5 v=31
36718 On ch=2 n=b5 v=0
53882 On ch=2 n=d5 v=31
53998 On ch=2 n=d5 v=0
54000 On ch=2 n=f#5 v=31
54118 On ch=2 n=f#5 v=0
54120 On ch=2 n=a5 v=31
54238 On ch=2 n=a5 v=0
54240 On ch=2 n=c6 v=31
54358 On ch=2 n=c6 v=0
54360 On ch=2 n=d6 v=31
54478 On ch=2 n=d6 v=0
54480 On ch=2 n=f#6 v=31
54598 On ch=2 n=f#6 v=0
54600 On ch=2 n=a6 v=31
54718 On ch=2 n=a6 v=0
54720 On ch=2 n=c7 v=31
54838 On ch=2 n=c7 v=0
54840 On ch=2 n=d6 v=31
54958 On ch=2 n=d6 v=0
54960 On ch=2 n=f#6 v=31
55078 On ch=2 n=f#6 v=0
55080 On ch=2 n=a6 v=31
55198 On ch=2 n=a6 v=0
55200 On ch=2 n=c7 v=31
55318 On ch=2 n=c7 v=0
55320 On ch=2 n=d6 v=31
55438 On ch=2 n=d6 v=0
55440 On ch=2 n=f#6 v=31
55558 On ch=2 n=f#6 v=0
55560 On ch=2 n=a6 v=31
55678 On ch=2 n=a6 v=0
55680 On ch=2 n=a6 v=31
56638 On ch=2 n=a6 v=0
56640 On ch=2 n=f#6 v=31
57598 On ch=2 n=f#6 v=0
57600 On ch=2 n=g6 v=31
57718 On ch=2 n=g6 v=0
58082 On ch=2 n=d6 v=31
58198 On ch=2 n=d6 v=0
58562 On ch=2 n=b5 v=31
58678 On ch=2 n=b5 v=0
59642 On ch=2 n=g5 v=31
59758 On ch=2 n=g5 v=0
59760 On ch=2 n=f#5 v=31
59878 On ch=2 n=f#5 v=0
59880 On ch=2 n=e5 v=31
59998 On ch=2 n=e5 v=0
60000 On ch=2 n=f#5 v=31
60118 On ch=2 n=f#5 v=0
60602 On ch=2 n=f#5 v=31
60718 On ch=2 n=f#5 v=0
60720 On ch=2 n=e5 v=31
60838 On ch=2 n=e5 v=0
60840 On ch=2 n=d#5 v=31
60958 On ch=2 n=d#5 v=0
60960 On ch=2 n=e5 v=31
61078 On ch=2 n=e5 v=0
61202 On ch=2 n=c7 v=31
61438 On ch=2 n=c7 v=0
61440 On ch=2 n=f#6 v=31
61678 On ch=2 n=f#6 v=0
61680 On ch=2 n=f#5 v=31
61798 On ch=2 n=f#5 v=0
61922 On ch=2 n=b5 v=31
62038 On ch=2 n=b5 v=0
62162 On ch=2 n=b6 v=31
62398 On ch=2 n=b6 v=0
62400 On ch=2 n=e6 v=31
62518 On ch=2 n=e6 v=0
62520 On ch=2 n=g5 v=31
62638 On ch=2 n=g5 v=0
62640 On ch=2 n=a5 v=31
62758 On ch=2 n=a5 v=0
62760 On ch=2 n=b5 v=31
62878 On ch=2 n=b5 v=0
62880 On ch=2 n=c6 v=31
63118 On ch=2 n=c6 v=0
63602 On ch=2 n=f#5 v=47
63838 On ch=2 n=f#5 v=0
63840 On ch=2 n=g5 v=47
64558 On ch=2 n=g5 v=0
64560 On ch=2 n=c6 v=47
64798 On ch=2 n=c6 v=0
64800 On ch=2 n=b5 v=31
65038 On ch=2 n=b5 v=0
65040 On ch=2 n=a5 v=31
65278 On ch=2 n=a5 v=0
65402 On ch=2 n=g6 v=47
65518 On ch=2 n=g6 v=0
65520 On ch=2 n=f#6 v=47
65578 On ch=2 n=f#6 v=0
65642 On ch=2 n=a6 v=63
65758 On ch=2 n=a6 v=0
65760 On ch=2 n=g6 v=63
65818 On ch=2 n=g6 v=0
65882 On ch=2 n=b6 v=63
65998 On ch=2 n=b6 v=0
66000 On ch=2 n=a6 v=63
66058 On ch=2 n=a6 v=0
66122 On ch=2 n=c7 v=63
66238 On ch=2 n=c7 v=0
66240 On ch=2 n=b6 v=63
66358 On ch=2 n=b6 v=0
66602 On ch=2 n=a6 v=47
66718 On ch=2 n=a6 v=0
66720 On ch=2 n=g6 v=47
66838 On ch=2 n=g6 v=0
67082 On ch=2 n=c6 v=47
67198 On ch=2 n=c6 v=0
67200 On ch=2 n=e6 v=31
67258 On ch=2 n=e6 v=0
67322 On ch=2 n=g6 v=31
67438 On ch=2 n=g6 v=0
67440 On ch=2 n=f#6 v=31
67498 On ch=2 n=f#6 v=0
67562 On ch=2 n=a6 v=47
67678 On ch=2 n=a6 v=0
67680 On ch=2 n=g6 v=47
67738 On ch=2 n=g6 v=0
67802 On ch=2 n=b6 v=47
67918 On ch=2 n=b6 v=0
67920 On ch=2 n=a6 v=47
67978 On ch=2 n=a6 v=0
68042 On ch=2 n=c7 v=47
68158 On ch=2 n=c7 v=0
68160 On ch=2 n=b6 v=47
68278 On ch=2 n=b6 v=0
68522 On ch=2 n=a6 v=31
68638 On ch=2 n=a6 v=0
68640 On ch=2 n=g6 v=31
68758 On ch=2 n=g6 v=0
69002 On ch=2 n=c6 v=31
69118 On ch=2 n=c6 v=0
69120 On ch=2 n=e6 v=47
69178 On ch=2 n=e6 v=0
69242 On ch=2 n=g6 v=47
69358 On ch=2 n=g6 v=0
69360 On ch=2 n=f#6 v=47
69418 On ch=2 n=f#6 v=0
69482 On ch=2 n=a6 v=47
69598 On ch=2 n=a6 v=0
69600 On ch=2 n=g6 v=47
69658 On ch=2 n=g6 v=0
69722 On ch=2 n=b6 v=47
69838 On ch=2 n=b6 v=0
69840 On ch=2 n=a6 v=47
69898 On ch=2 n=a6 v=0
69962 On ch=2 n=c7 v=47
70078 On ch=2 n=c7 v=0
70080 On ch=2 n=b6 v=47
70198 On ch=2 n=b6 v=0
70442 On ch=2 n=a6 v=47
70558 On ch=2 n=a6 v=0
70560 On ch=2 n=g6 v=47
70678 On ch=2 n=g6 v=0
70922 On ch=2 n=c6 v=47
71038 On ch=2 n=c6 v=0
71040 On ch=2 n=b5 v=47
71998 On ch=2 n=b5 v=0
72000 On ch=2 n=b5 v=63
72958 On ch=2 n=b5 v=0
72960 On ch=2 n=c6 v=47
73918 On ch=2 n=c6 v=0
73920 On ch=2 n=c6 v=63
74878 On ch=2 n=c6 v=0
74880 On ch=2 n=g5 v=47
75358 On ch=2 n=g5 v=0
75360 On ch=2 n=d6 v=47
76318 On ch=2 n=d6 v=0
76320 On ch=2 n=b5 v=63
76798 On ch=2 n=b5 v=0
76800 On ch=2 n=c6 v=63
77758 On ch=2 n=c6 v=0
77760 On ch=2 n=a#5 v=73
79198 On ch=2 n=a#5 v=0
79200 On ch=2 n=a5 v=63
79678 On ch=2 n=a5 v=0
79680 On ch=2 n=b5 v=47
80158 On ch=2 n=b5 v=0
80160 On ch=2 n=c6 v=47
80638 On ch=2 n=c6 v=0
80640 On ch=2 n=b5 v=31
81118 On ch=2 n=b5 v=0
81282 On ch=2 n=g6 v=31
81358 On ch=2 n=g6 v=0
81762 On ch=2 n=a6 v=31
81838 On ch=2 n=a6 v=0
82242 On ch=2 n=g6 v=31
82318 On ch=2 n=g6 v=0
82562 On ch=2 n=c7 v=31
82798 On ch=2 n=c7 v=0
83522 On ch=2 n=f#5 v=19
83998 On ch=2 n=f#5 v=0
84000 On ch=2 n=d5 v=19
84478 On ch=2 n=d5 v=0
84480 On ch=2 n=g5 v=19
84958 On ch=2 n=g5 v=0
85122 On ch=2 n=g6 v=81
85198 On ch=2 n=g6 v=0
85602 On ch=2 n=a6 v=81
85678 On ch=2 n=a6 v=0
86082 On ch=2 n=g6 v=81
86158 On ch=2 n=g6 v=0
86402 On ch=2 n=c7 v=81
86638 On ch=2 n=c7 v=0
93362 On ch=2 n=d5 v=105
93438 On ch=2 n=d5 v=0
93440 On ch=2 n=f#5 v=105
93518 On ch=2 n=f#5 v=0
93520 On ch=2 n=a5 v=105
93598 On ch=2 n=a5 v=0
93600 On ch=2 n=c6 v=105
93718 On ch=2 n=c6 v=0
102002 On ch=2 n=f#5 v=29
102118 On ch=2 n=f#5 v=0
102120 On ch=2 n=d5 v=29
102238 On ch=2 n=d5 v=0
102240 On ch=2 n=g5 v=29
102358 On ch=2 n=g5 v=0
102360 On ch=2 n=d5 v=29
102478 On ch=2 n=d5 v=0
102480 On ch=2 n=a5 v=29
102598 On ch=2 n=a5 v=0
102600 On ch=2 n=d5 v=29
102718 On ch=2 n=d5 v=0
102720 On ch=2 n=b5 v=29
102958 On ch=2 n=b5 v=0
102960 On ch=2 n=e5 v=47
103078 On ch=2 n=e5 v=0
103080 On ch=2 n=c5 v=47
103198 On ch=2 n=c5 v=0
103200 On ch=2 n=d5 v=47
103318 On ch=2 n=d5 v=0
103320 On ch=2 n=b4 v=47
103438 On ch=2 n=b4 v=0
103440 On ch=2 n=c5 v=47
103558 On ch=2 n=c5 v=0
103560 On ch=2 n=a4 v=47
103678 On ch=2 n=a4 v=0
103680 On ch=2 n=b4 v=47
103918 On ch=2 n=b4 v=0
103920 On ch=2 n=f#5 v=31
104038 On ch=2 n=f#5 v=0
104040 On ch=2 n=d5 v=31
104158 On ch=2 n=d5 v=0
104160 On ch=2 n=g5 v=31
104278 On ch=2 n=g5 v=0
104280 On ch=2 n=d5 v=31
104398 On ch=2 n=d5 v=0
104400 On ch=2 n=a5 v=31
104518 On ch=2 n=a5 v=0
104520 On ch=2 n=d5 v=31
104638 On ch=2 n=d5 v=0
104640 On ch=2 n=b5 v=31
104878 On ch=2 n=b5 v=0
104880 On ch=2 n=e5 v=63
104998 On ch=2 n=e5 v=0
105000 On ch=2 n=c5 v=63
105118 On ch=2 n=c5 v=0
105120 On ch=2 n=d5 v=63
105238 On ch=2 n=d5 v=0
105240 On ch=2 n=b4 v=63
105358 On ch=2 n=b4 v=0
105360 On ch=2 n=c5 v=63
105478 On ch=2 n=c5 v=0
105480 On ch=2 n=a4 v=63
105598 On ch=2 n=a4 v=0
105600 On ch=2 n=b4 v=63
105838 On ch=2 n=b4 v=0
106082 On ch=2 n=c6 v=105
106318 On ch=2 n=c6 v=0
106562 On ch=2 n=d6 v=105
106798 On ch=2 n=d6 v=0
111362 On ch=2 n=c#6 v=63
111478 On ch=2 n=c#6 v=0
111842 On ch=2 n=c#6 v=63
111958 On ch=2 n=c#6 v=0
112322 On ch=2 n=e5 v=63
112798 On ch=2 n=e5 v=0
114242 On ch=2 n=a5 v=63
114358 On ch=2 n=a5 v=0
114360 On ch=2 n=g#5 v=63
114478 On ch=2 n=g#5 v=0
114480 On ch=2 n=a5 v=63
114598 On ch=2 n=a5 v=0
114600 On ch=2 n=a#5 v=63
114718 On ch=2 n=a#5 v=0
114720 On ch=2 n=a5 v=63
114838 On ch=2 n=a5 v=0
114840 On ch=2 n=g5 v=63
114958 On ch=2 n=g5 v=0
114960 On ch=2 n=f5 v=63
115078 On ch=2 n=f5 v=0
115080 On ch=2 n=e5 v=63
115198 On ch=2 n=e5 v=0
115200 On ch=2 n=f5 v=43
115678 On ch=2 n=f5 v=0
117122 On ch=2 n=g5 v=43
117598 On ch=2 n=g5 v=0
117600 On ch=2 n=d5 v=43
118078 On ch=2 n=d5 v=0
123602 On ch=2 n=a5 v=63
123838 On ch=2 n=a5 v=0
124562 On ch=2 n=g5 v=63
124798 On ch=2 n=g5 v=0
125522 On ch=2 n=f5 v=63
125758 On ch=2 n=f5 v=0
126242 On ch=2 n=c5 v=63
126718 On ch=2 n=c5 v=0
149762 On ch=2 n=b4 v=45
149998 On ch=2 n=b4 v=0
150242 On ch=2 n=c5 v=31
150478 On ch=2 n=c5 v=0
150722 On ch=2 n=d5 v=31
150958 On ch=2 n=d5 v=0
151202 On ch=2 n=c5 v=31
151438 On ch=2 n=c5 v=0
158162 On ch=2 n=d5 v=81
158278 On ch=2 n=d5 v=0
158402 On ch=2 n=g#5 v=81
158878 On ch=2 n=g#5 v=0
159122 On ch=2 n=c5 v=81
159238 On ch=2 n=c5 v=0
159362 On ch=2 n=a5 v=81
159838 On ch=2 n=a5 v=0
163202 On ch=2 n=f#5 v=81
164158 On ch=2 n=f#5 v=0
164160 On ch=2 n=a5 v=47
165118 On ch=2 n=a5 v=0
165120 On ch=2 n=g#5 v=55
167038 On ch=2 n=g#5 v=0
167040 On ch=2 n=g5 v=55
168958 On ch=2 n=g5 v=0
168960 On ch=2 n=b5 v=105
169918 On ch=2 n=b5 v=0
169920 On ch=2 n=f#5 v=105
170878 On ch=2 n=f#5 v=0
170880 On ch=2 n=f5 v=93
172318 On ch=2 n=f5 v=0
172320 On ch=2 n=e5 v=93
172798 On ch=2 n=e5 v=0
172800 On ch=2 n=e5 v=93
173758 On ch=2 n=e5 v=0
173760 On ch=2 n=d#5 v=93
174718 On ch=2 n=d#5 v=0
174720 On ch=2 n=e5 v=105
174958 On ch=2 n=e5 v=0
175082 On ch=2 n=c6 v=31
175198 On ch=2 n=c6 v=0
175200 On ch=2 n=b5 v=31
175318 On ch=2 n=b5 v=0
175320 On ch=2 n=c6 v=47
175438 On ch=2 n=c6 v=0
175440 On ch=2 n=d6 v=47
175558 On ch=2 n=d6 v=0
175560 On ch=2 n=c6 v=47
175678 On ch=2 n=c6 v=0
175680 On ch=2 n=b5 v=47
175918 On ch=2 n=b5 v=0
176042 On ch=2 n=c6 v=47
176158 On ch=2 n=c6 v=0
176160 On ch=2 n=a5 v=31
176398 On ch=2 n=a5 v=0
176522 On ch=2 n=b5 v=31
176638 On ch=2 n=b5 v=0
176640 On ch=2 n=g#5 v=31
176878 On ch=2 n=g#5 v=0
177002 On ch=2 n=c6 v=31
177118 On ch=2 n=c6 v=0
177120 On ch=2 n=b5 v=31
177238 On ch=2 n=b5 v=0
177240 On ch=2 n=c6 v=47
177358 On ch=2 n=c6 v=0
177360 On ch=2 n=d6 v=47
177478 On ch=2 n=d6 v=0
177480 On ch=2 n=c6 v=47
177598 On ch=2 n=c6 v=0
177600 On ch=2 n=b5 v=47
177838 On ch=2 n=b5 v=0
177962 On ch=2 n=d6 v=63
178078 On ch=2 n=d6 v=0
178080 On ch=2 n=c6 v=63
178318 On ch=2 n=c6 v=0
178442 On ch=2 n=a5 v=63
178558 On ch=2 n=a5 v=0
178560 On ch=2 n=g#5 v=63
178798 On ch=2 n=g#5 v=0
178922 On ch=2 n=a5 v=47
179038 On ch=2 n=a5 v=0
179040 On ch=2 n=g#5 v=47
179158 On ch=2 n=g#5 v=0
179160 On ch=2 n=a5 v=47
179278 On ch=2 n=a5 v=0
179280 On ch=2 n=g#5 v=47
179398 On ch=2 n=g#5 v=0
179400 On ch=2 n=a5 v=47
179518 On ch=2 n=a5 v=0
179520 On ch=2 n=g#5 v=31
179758 On ch=2 n=g#5 v=0
184802 On ch=2 n=a#5 v=26
185038 On ch=2 n=a#5 v=0
185040 On ch=2 n=a5 v=28
185278 On ch=2 n=a5 v=0
185280 On ch=2 n=g5 v=29
185518 On ch=2 n=g5 v=0
185762 On ch=2 n=g5 v=39
185998 On ch=2 n=g5 v=0
186000 On ch=2 n=f5 v=39
186238 On ch=2 n=f5 v=0
186240 On ch=2 n=e5 v=47
187198 On ch=2 n=e5 v=0
187200 On ch=2 n=f5 v=39
187678 On ch=2 n=f5 v=0
187680 On ch=2 n=g5 v=50
188158 On ch=2 n=g5 v=0
188160 On ch=2 n=f5 v=50
188638 On ch=2 n=f5 v=0
188640 On ch=2 n=g5 v=50
189118 On ch=2 n=g5 v=0
189242 On ch=2 n=d5 v=31
189358 On ch=2 n=d5 v=0
189360 On ch=2 n=f5 v=31
189478 On ch=2 n=f5 v=0
189480 On ch=2 n=a5 v=31
189598 On ch=2 n=a5 v=0
189600 On ch=2 n=d6 v=31
189718 On ch=2 n=d6 v=0
191522 On ch=2 n=a5 v=31
191758 On ch=2 n=a5 v=0
191760 On ch=2 n=g5 v=31
191998 On ch=2 n=g5 v=0
192000 On ch=2 n=f5 v=31
192238 On ch=2 n=f5 v=0
192482 On ch=2 n=f5 v=31
192718 On ch=2 n=f5 v=0
192720 On ch=2 n=e5 v=31
192958 On ch=2 n=e5 v=0
192960 On ch=2 n=d5 v=31
193198 On ch=2 n=d5 v=0
195362 On ch=2 n=d6 v=63
195598 On ch=2 n=d6 v=0
195600 On ch=2 n=c6 v=63
195838 On ch=2 n=c6 v=0
195840 On ch=2 n=b5 v=63
196078 On ch=2 n=b5 v=0
196322 On ch=2 n=f6 v=63
196438 On ch=2 n=f6 v=0
196562 On ch=2 n=e6 v=63
196678 On ch=2 n=e6 v=0
196802 On ch=2 n=d6 v=63
196918 On ch=2 n=d6 v=0
197282 On ch=2 n=d7 v=105
197398 On ch=2 n=d7 v=0
197522 On ch=2 n=d7 v=105
197638 On ch=2 n=d7 v=0
197762 On ch=2 n=d7 v=105
198238 On ch=2 n=d7 v=0
207122 On ch=2 n=b4 v=31
207238 On ch=2 n=b4 v=0
207362 On ch=2 n=d5 v=31
207598 On ch=2 n=d5 v=0
207600 On ch=2 n=c5 v=31
207838 On ch=2 n=c5 v=0
208082 On ch=2 n=d5 v=47
208198 On ch=2 n=d5 v=0
208322 On ch=2 n=f5 v=47
208558 On ch=2 n=f5 v=0
208560 On ch=2 n=e5 v=47
208798 On ch=2 n=e5 v=0
209042 On ch=2 n=d5 v=63
209158 On ch=2 n=d5 v=0
209282 On ch=2 n=f5 v=63
209518 On ch=2 n=f5 v=0
209520 On ch=2 n=e5 v=63
209758 On ch=2 n=e5 v=0
210242 On ch=2 n=d6 v=81
210718 On ch=2 n=d6 v=0
210720 On ch=2 n=c6 v=47
210958 On ch=2 n=c6 v=0
211442 On ch=2 n=g6 v=81
211678 On ch=2 n=g6 v=0
212362 On ch=2 n=d6 v=81
212638 On ch=2 n=d6 v=0
213322 On ch=2 n=c6 v=81
213598 On ch=2 n=c6 v=0
215282 On ch=2 n=g5 v=81
215338 On ch=2 n=g5 v=0
215340 On ch=2 n=f5 v=81
215398 On ch=2 n=f5 v=0
215400 On ch=2 n=e5 v=81
215458 On ch=2 n=e5 v=0
215460 On ch=2 n=f5 v=81
215518 On ch=2 n=f5 v=0
215520 On ch=2 n=b5 v=81
215638 On ch=2 n=b5 v=0
216242 On ch=2 n=f5 v=81
216298 On ch=2 n=f5 v=0
216300 On ch=2 n=e5 v=81
216358 On ch=2 n=e5 v=0
216360 On ch=2 n=d5 v=81
216418 On ch=2 n=d5 v=0
216420 On ch=2 n=e5 v=81
216478 On ch=2 n=e5 v=0
216480 On ch=2 n=c6 v=81
216598 On ch=2 n=c6 v=0
219122 On ch=2 n=f6 v=47
219358 On ch=2 n=f6 v=0
219360 On ch=2 n=e6 v=47
219598 On ch=2 n=e6 v=0
219842 On ch=2 n=e5 v=31
219958 On ch=2 n=e5 v=0
219960 On ch=2 n=g5 v=31
220078 On ch=2 n=g5 v=0
220080 On ch=2 n=e5 v=31
220198 On ch=2 n=e5 v=0
220200 On ch=2 n=g5 v=31
220318 On ch=2 n=g5 v=0
220320 On ch=2 n=e5 v=31
220438 On ch=2 n=e5 v=0
220440 On ch=2 n=g5 v=31
220558 On ch=2 n=g5 v=0
220560 On ch=2 n=e5 v=31
220678 On ch=2 n=e5 v=0
220680 On ch=2 n=g5 v=31
220798 On ch=2 n=g5 v=0
220800 On ch=2 n=f5 v=31
220918 On ch=2 n=f5 v=0
220920 On ch=2 n=g5 v=31
221038 On ch=2 n=g5 v=0
221040 On ch=2 n=f5 v=31
221158 On ch=2 n=f5 v=0
221160 On ch=2 n=g5 v=31
221278 On ch=2 n=g5 v=0
221280 On ch=2 n=f5 v=31
221398 On ch=2 n=f5 v=0
221400 On ch=2 n=g5 v=31
221518 On ch=2 n=g5 v=0
221520 On ch=2 n=f5 v=31
221638 On ch=2 n=f5 v=0
221640 On ch=2 n=g5 v=31
221758 On ch=2 n=g5 v=0
221760 On ch=2 n=e5 v=31
221878 On ch=2 n=e5 v=0
221880 On ch=2 n=g5 v=31
221998 On ch=2 n=g5 v=0
222000 On ch=2 n=e5 v=31
222118 On ch=2 n=e5 v=0
222120 On ch=2 n=g5 v=31
222238 On ch=2 n=g5 v=0
222240 On ch=2 n=e5 v=31
222358 On ch=2 n=e5 v=0
222360 On ch=2 n=g5 v=31
222478 On ch=2 n=g5 v=0
222480 On ch=2 n=e5 v=31
222598 On ch=2 n=e5 v=0
222600 On ch=2 n=g5 v=31
222718 On ch=2 n=g5 v=0
222720 On ch=2 n=f5 v=31
222838 On ch=2 n=f5 v=0
222840 On ch=2 n=g5 v=31
222958 On ch=2 n=g5 v=0
222960 On ch=2 n=f5 v=31
223078 On ch=2 n=f5 v=0
223080 On ch=2 n=g5 v=31
223198 On ch=2 n=g5 v=0
223200 On ch=2 n=f5 v=31
223318 On ch=2 n=f5 v=0
223320 On ch=2 n=g5 v=31
223438 On ch=2 n=g5 v=0
223440 On ch=2 n=f5 v=31
223558 On ch=2 n=f5 v=0
223560 On ch=2 n=g5 v=31
223678 On ch=2 n=g5 v=0
223680 On ch=2 n=e5 v=31
223798 On ch=2 n=e5 v=0
223800 On ch=2 n=g5 v=31
223918 On ch=2 n=g5 v=0
223920 On ch=2 n=e5 v=31
224038 On ch=2 n=e5 v=0
224040 On ch=2 n=g5 v=31
224158 On ch=2 n=g5 v=0
224160 On ch=2 n=e5 v=31
224278 On ch=2 n=e5 v=0
224280 On ch=2 n=g5 v=31
224398 On ch=2 n=g5 v=0
224400 On ch=2 n=e5 v=31
224518 On ch=2 n=e5 v=0
224520 On ch=2 n=g5 v=31
224638 On ch=2 n=g5 v=0
224640 On ch=2 n=f5 v=31
224758 On ch=2 n=f5 v=0
224760 On ch=2 n=g5 v=31
224878 On ch=2 n=g5 v=0
224880 On ch=2 n=f5 v=31
224998 On ch=2 n=f5 v=0
225000 On ch=2 n=g5 v=31
225118 On ch=2 n=g5 v=0
225120 On ch=2 n=f5 v=31
225238 On ch=2 n=f5 v=0
225240 On ch=2 n=g5 v=31
225358 On ch=2 n=g5 v=0
225360 On ch=2 n=f5 v=31
225478 On ch=2 n=f5 v=0
225480 On ch=2 n=g5 v=31
225598 On ch=2 n=g5 v=0
225600 On ch=2 n=e5 v=31
225718 On ch=2 n=e5 v=0
225720 On ch=2 n=g5 v=31
225838 On ch=2 n=g5 v=0
225840 On ch=2 n=e5 v=31
225958 On ch=2 n=e5 v=0
225960 On ch=2 n=g5 v=31
226078 On ch=2 n=g5 v=0
226080 On ch=2 n=d5 v=31
226198 On ch=2 n=d5 v=0
226200 On ch=2 n=g5 v=31
226318 On ch=2 n=g5 v=0
226320 On ch=2 n=d5 v=31
226438 On ch=2 n=d5 v=0
226440 On ch=2 n=g5 v=31
226558 On ch=2 n=g5 v=0
226560 On ch=2 n=e5 v=31
226678 On ch=2 n=e5 v=0
226680 On ch=2 n=g5 v=31
226798 On ch=2 n=g5 v=0
226800 On ch=2 n=e5 v=31
226918 On ch=2 n=e5 v=0
226920 On ch=2 n=g5 v=31
227038 On ch=2 n=g5 v=0
227040 On ch=2 n=f5 v=31
227158 On ch=2 n=f5 v=0
227160 On ch=2 n=g5 v=31
227278 On ch=2 n=g5 v=0
227280 On ch=2 n=f5 v=31
227398 On ch=2 n=f5 v=0
227400 On ch=2 n=g5 v=31
227518 On ch=2 n=g5 v=0
227520 On ch=2 n=d#5 v=31
227638 On ch=2 n=d#5 v=0
227640 On ch=2 n=g5 v=31
227758 On ch=2 n=g5 v=0
227760 On ch=2 n=d#5 v=31
227878 On ch=2 n=d#5 v=0
227880 On ch=2 n=g5 v=31
227998 On ch=2 n=g5 v=0
228000 On ch=2 n=d5 v=31
228118 On ch=2 n=d5 v=0
228120 On ch=2 n=g5 v=31
228238 On ch=2 n=g5 v=0
228240 On ch=2 n=d5 v=31
228358 On ch=2 n=d5 v=0
228360 On ch=2 n=g5 v=31
228478 On ch=2 n=g5 v=0
228480 On ch=2 n=d#5 v=31
228958 On ch=2 n=d#5 v=0
237842 On ch=2 n=g6 v=32
238318 On ch=2 n=g6 v=0
238320 On ch=2 n=f6 v=32
238798 On ch=2 n=f6 v=0
238800 On ch=2 n=f6 v=32
239278 On ch=2 n=f6 v=0
239280 On ch=2 n=e6 v=32
239758 On ch=2 n=e6 v=0
240002 On ch=2 n=f5 v=32
240958 On ch=2 n=f5 v=0
240960 On ch=2 n=e5 v=29
241918 On ch=2 n=e5 v=0
241920 On ch=2 n=d5 v=32
242878 On ch=2 n=d5 v=0
242880 On ch=2 n=c5 v=32
243358 On ch=2 n=c5 v=0
243360 On ch=2 n=e5 v=32
243838 On ch=2 n=e5 v=0
243840 On ch=2 n=f5 v=32
244318 On ch=2 n=f5 v=0
244320 On ch=2 n=f#5 v=32
244798 On ch=2 n=f#5 v=0
245402 On ch=2 n=g5 v=47
245518 On ch=2 n=g5 v=0
245520 On ch=2 n=f5 v=47
245638 On ch=2 n=f5 v=0
245640 On ch=2 n=d5 v=47
245758 On ch=2 n=d5 v=0
245760 On ch=2 n=e5 v=47
245998 On ch=2 n=e5 v=0
246362 On ch=2 n=e5 v=47
246478 On ch=2 n=e5 v=0
246480 On ch=2 n=d5 v=47
246598 On ch=2 n=d5 v=0
246600 On ch=2 n=c5 v=47
246718 On ch=2 n=c5 v=0
246720 On ch=2 n=b4 v=47
246958 On ch=2 n=b4 v=0
247322 On ch=2 n=g5 v=47
247438 On ch=2 n=g5 v=0
247440 On ch=2 n=f5 v=47
247558 On ch=2 n=f5 v=0
247560 On ch=2 n=d5 v=47
247678 On ch=2 n=d5 v=0
247680 On ch=2 n=c5 v=47
247918 On ch=2 n=c5 v=0
254342 On ch=2 n=a6 v=63
254398 On ch=2 n=a6 v=0
254400 On ch=2 n=b6 v=63
254458 On ch=2 n=b6 v=0
254460 On ch=2 n=c7 v=63
254518 On ch=2 n=c7 v=0
254520 On ch=2 n=b6 v=63
254578 On ch=2 n=b6 v=0
254580 On ch=2 n=c7 v=63
254638 On ch=2 n=c7 v=0
254640 On ch=2 n=b6 v=63
254698 On ch=2 n=b6 v=0
254700 On ch=2 n=c7 v=63
254758 On ch=2 n=c7 v=0
254760 On ch=2 n=b6 v=63
254818 On ch=2 n=b6 v=0
254820 On ch=2 n=c7 v=63
254878 On ch=2 n=c7 v=0
254880 On ch=2 n=b6 v=63
254938 On ch=2 n=b6 v=0
254940 On ch=2 n=c7 v=63
254998 On ch=2 n=c7 v=0
255000 On ch=2 n=b6 v=63
255058 On ch=2 n=b6 v=0
255060 On ch=2 n=c7 v=63
255118 On ch=2 n=c7 v=0
255120 On ch=2 n=a6 v=63
255238 On ch=2 n=a6 v=0
255240 On ch=2 n=b6 v=63
255358 On ch=2 n=b6 v=0
255482 On ch=2 n=c6 v=31
255598 On ch=2 n=c6 v=0
255600 On ch=2 n=b5 v=31
255658 On ch=2 n=b5 v=0
255722 On ch=2 n=d6 v=31
255838 On ch=2 n=d6 v=0
255840 On ch=2 n=c6 v=31
255898 On ch=2 n=c6 v=0
255962 On ch=2 n=e6 v=47
256078 On ch=2 n=e6 v=0
256080 On ch=2 n=d6 v=47
256138 On ch=2 n=d6 v=0
256202 On ch=2 n=f6 v=47
256318 On ch=2 n=f6 v=0
256320 On ch=2 n=e6 v=47
256438 On ch=2 n=e6 v=0
256682 On ch=2 n=d6 v=31
256798 On ch=2 n=d6 v=0
256800 On ch=2 n=c6 v=31
256918 On ch=2 n=c6 v=0
257162 On ch=2 n=f5 v=31
257278 On ch=2 n=f5 v=0
257280 On ch=2 n=e5 v=29
257338 On ch=2 n=e5 v=0
257402 On ch=2 n=c6 v=29
257518 On ch=2 n=c6 v=0
257520 On ch=2 n=b5 v=29
257578 On ch=2 n=b5 v=0
257642 On ch=2 n=d6 v=29
257758 On ch=2 n=d6 v=0
257760 On ch=2 n=c6 v=29
257818 On ch=2 n=c6 v=0
257882 On ch=2 n=e6 v=31
257998 On ch=2 n=e6 v=0
258000 On ch=2 n=d6 v=31
258058 On ch=2 n=d6 v=0
258122 On ch=2 n=f6 v=31
258238 On ch=2 n=f6 v=0
258240 On ch=2 n=d6 v=31
258358 On ch=2 n=d6 v=0
258602 On ch=2 n=d6 v=29
258718 On ch=2 n=d6 v=0
258720 On ch=2 n=c6 v=29
258838 On ch=2 n=c6 v=0
259082 On ch=2 n=f5 v=29
259198 On ch=2 n=f5 v=0
259200 On ch=2 n=e5 v=29
259258 On ch=2 n=e5 v=0
259322 On ch=2 n=c6 v=29
259438 On ch=2 n=c6 v=0
259440 On ch=2 n=b5 v=29
259498 On ch=2 n=b5 v=0
259562 On ch=2 n=d6 v=31
259678 On ch=2 n=d6 v=0
259680 On ch=2 n=c6 v=31
259738 On ch=2 n=c6 v=0
259802 On ch=2 n=e6 v=31
259918 On ch=2 n=e6 v=0
259920 On ch=2 n=d6 v=31
259978 On ch=2 n=d6 v=0
260042 On ch=2 n=f6 v=31
260158 On ch=2 n=f6 v=0
260160 On ch=2 n=d6 v=31
260278 On ch=2 n=d6 v=0
260522 On ch=2 n=d6 v=31
260638 On ch=2 n=d6 v=0
260640 On ch=2 n=c6 v=31
260758 On ch=2 n=c6 v=0
261002 On ch=2 n=f5 v=31
261118 On ch=2 n=f5 v=0
261120 On ch=2 n=e5 v=31
262078 On ch=2 n=e5 v=0
262080 On ch=2 n=e5 v=47
263038 On ch=2 n=e5 v=0
263040 On ch=2 n=f5 v=31
263998 On ch=2 n=f5 v=0
264000 On ch=2 n=f5 v=63
264958 On ch=2 n=f5 v=0
264960 On ch=2 n=c5 v=31
265438 On ch=2 n=c5 v=0
265440 On ch=2 n=g5 v=31
266398 On ch=2 n=g5 v=0
266400 On ch=2 n=e5 v=47
266878 On ch=2 n=e5 v=0
266880 On ch=2 n=f5 v=47
267838 On ch=2 n=f5 v=0
267840 On ch=2 n=d#5 v=63
269278 On ch=2 n=d#5 v=0
269280 On ch=2 n=d5 v=47
269758 On ch=2 n=d5 v=0
269760 On ch=2 n=e5 v=47
270238 On ch=2 n=e5 v=0
270240 On ch=2 n=f5 v=31
270718 On ch=2 n=f5 v=0
270720 On ch=2 n=e5 v=31
271198 On ch=2 n=e5 v=0
271362 On ch=2 n=c6 v=81
271678 On ch=2 n=c6 v=0
271842 On ch=2 n=d6 v=81
272158 On ch=2 n=d6 v=0
272322 On ch=2 n=c6 v=81
272638 On ch=2 n=c6 v=0
272640 On ch=2 n=f6 v=81
272878 On ch=2 n=f6 v=0
275202 On ch=2 n=c6 v=81
275518 On ch=2 n=c6 v=0
275682 On ch=2 n=d6 v=81
275998 On ch=2 n=d6 v=0
276162 On ch=2 n=c6 v=81
276478 On ch=2 n=c6 v=0
276480 On ch=2 n=f6 v=81
276718 On ch=2 n=f6 v=0
284162 On ch=2 n=e5 v=31
284278 On ch=2 n=e5 v=0
284280 On ch=2 n=g5 v=31
284398 On ch=2 n=g5 v=0
284400 On ch=2 n=e5 v=31
284518 On ch=2 n=e5 v=0
284520 On ch=2 n=g5 v=31
284638 On ch=2 n=g5 v=0
284640 On ch=2 n=e5 v=31
284758 On ch=2 n=e5 v=0
284760 On ch=2 n=g5 v=31
284878 On ch=2 n=g5 v=0
284880 On ch=2 n=e5 v=31
284998 On ch=2 n=e5 v=0
285000 On ch=2 n=g5 v=31
285118 On ch=2 n=g5 v=0
285120 On ch=2 n=e5 v=31
285238 On ch=2 n=e5 v=0
285240 On ch=2 n=g5 v=31
285358 On ch=2 n=g5 v=0
285360 On ch=2 n=e5 v=31
285478 On ch=2 n=e5 v=0
285480 On ch=2 n=g5 v=31
285598 On ch=2 n=g5 v=0
285600 On ch=2 n=e5 v=31
285718 On ch=2 n=e5 v=0
285720 On ch=2 n=g5 v=31
285838 On ch=2 n=g5 v=0
285840 On ch=2 n=e5 v=31
285958 On ch=2 n=e5 v=0
285960 On ch=2 n=g5 v=31
286078 On ch=2 n=g5 v=0
286080 On ch=2 n=f5 v=31
286198 On ch=2 n=f5 v=0
286200 On ch=2 n=g5 v=31
286318 On ch=2 n=g5 v=0
286320 On ch=2 n=f5 v=31
286438 On ch=2 n=f5 v=0
286440 On ch=2 n=g5 v=31
286558 On ch=2 n=g5 v=0
286560 On ch=2 n=f5 v=31
286678 On ch=2 n=f5 v=0
286680 On ch=2 n=g5 v=31
286798 On ch=2 n=g5 v=0
286800 On ch=2 n=f5 v=31
286918 On ch=2 n=f5 v=0
286920 On ch=2 n=g5 v=31
287038 On ch=2 n=g5 v=0
287040 On ch=2 n=f5 v=31
287158 On ch=2 n=f5 v=0
287160 On ch=2 n=g5 v=31
287278 On ch=2 n=g5 v=0
287280 On ch=2 n=f5 v=31
287398 On ch=2 n=f5 v=0
287400 On ch=2 n=g5 v=31
287518 On ch=2 n=g5 v=0
287520 On ch=2 n=f5 v=31
287638 On ch=2 n=f5 v=0
287640 On ch=2 n=g5 v=31
287758 On ch=2 n=g5 v=0
287760 On ch=2 n=f5 v=31
287878 On ch=2 n=f5 v=0
287880 On ch=2 n=g5 v=31
287998 On ch=2 n=g5 v=0
288000 On ch=2 n=e5 v=19
288118 On ch=2 n=e5 v=0
288120 On ch=2 n=g5 v=19
288238 On ch=2 n=g5 v=0
288240 On ch=2 n=e5 v=19
288358 On ch=2 n=e5 v=0
288360 On ch=2 n=g5 v=19
288478 On ch=2 n=g5 v=0
288480 On ch=2 n=e5 v=19
288598 On ch=2 n=e5 v=0
288600 On ch=2 n=g5 v=19
288718 On ch=2 n=g5 v=0
288720 On ch=2 n=e5 v=19
288838 On ch=2 n=e5 v=0
288840 On ch=2 n=g5 v=19
288958 On ch=2 n=g5 v=0
288960 On ch=2 n=e5 v=19
289078 On ch=2 n=e5 v=0
289080 On ch=2 n=g5 v=19
289198 On ch=2 n=g5 v=0
289200 On ch=2 n=e5 v=19
289318 On ch=2 n=e5 v=0
289320 On ch=2 n=g5 v=19
289438 On ch=2 n=g5 v=0
289440 On ch=2 n=e5 v=19
289558 On ch=2 n=e5 v=0
289560 On ch=2 n=g5 v=19
289678 On ch=2 n=g5 v=0
289680 On ch=2 n=e5 v=19
289798 On ch=2 n=e5 v=0
289800 On ch=2 n=g5 v=19
289918 On ch=2 n=g5 v=0
289920 On ch=2 n=f5 v=19
290038 On ch=2 n=f5 v=0
290040 On ch=2 n=g5 v=19
290158 On ch=2 n=g5 v=0
290160 On ch=2 n=f5 v=19
290278 On ch=2 n=f5 v=0
290280 On ch=2 n=g5 v=19
290398 On ch=2 n=g5 v=0
290400 On ch=2 n=f5 v=19
290518 On ch=2 n=f5 v=0
290520 On ch=2 n=g5 v=19
290638 On ch=2 n=g5 v=0
290640 On ch=2 n=f5 v=19
290758 On ch=2 n=f5 v=0
290760 On ch=2 n=g5 v=19
290878 On ch=2 n=g5 v=0
290880 On ch=2 n=f5 v=19
290998 On ch=2 n=f5 v=0
291000 On ch=2 n=g5 v=19
291118 On ch=2 n=g5 v=0
291120 On ch=2 n=f5 v=19
291238 On ch=2 n=f5 v=0
291240 On ch=2 n=g5 v=19
291358 On ch=2 n=g5 v=0
291360 On ch=2 n=f5 v=19
291478 On ch=2 n=f5 v=0
291480 On ch=2 n=g5 v=19
291598 On ch=2 n=g5 v=0
291600 On ch=2 n=f5 v=19
291718 On ch=2 n=f5 v=0
291720 On ch=2 n=g5 v=19
291838 On ch=2 n=g5 v=0
291840 On ch=2 n=e5 v=47
292318 On ch=2 n=e5 v=0
292802 On ch=2 n=f5 v=47
293278 On ch=2 n=f5 v=0
293762 On ch=2 n=e5 v=47
293878 On ch=2 n=e5 v=0
294002 On ch=2 n=b5 v=31
294118 On ch=2 n=b5 v=0
294120 On ch=2 n=g5 v=31
294238 On ch=2 n=g5 v=0
294240 On ch=2 n=c6 v=31
294358 On ch=2 n=c6 v=0
294360 On ch=2 n=g5 v=31
294478 On ch=2 n=g5 v=0
294480 On ch=2 n=d6 v=31
294598 On ch=2 n=d6 v=0
294600 On ch=2 n=g5 v=31
294718 On ch=2 n=g5 v=0
294720 On ch=2 n=e6 v=31
294958 On ch=2 n=e6 v=0
294960 On ch=2 n=a5 v=63
295078 On ch=2 n=a5 v=0
295080 On ch=2 n=f5 v=63
295198 On ch=2 n=f5 v=0
295200 On ch=2 n=g5 v=63
295318 On ch=2 n=g5 v=0
295320 On ch=2 n=e5 v=63
295438 On ch=2 n=e5 v=0
295440 On ch=2 n=f5 v=63
295558 On ch=2 n=f5 v=0
295560 On ch=2 n=d5 v=63
295678 On ch=2 n=d5 v=0
295680 On ch=2 n=e5 v=63
295798 On ch=2 n=e5 v=0
295922 On ch=2 n=b5 v=31
296038 On ch=2 n=b5 v=0
296040 On ch=2 n=g5 v=31
296158 On ch=2 n=g5 v=0
296160 On ch=2 n=c6 v=31
296278 On ch=2 n=c6 v=0
296280 On ch=2 n=g5 v=31
296398 On ch=2 n=g5 v=0
296400 On ch=2 n=d6 v=31
296518 On ch=2 n=d6 v=0
296520 On ch=2 n=g5 v=31
296638 On ch=2 n=g5 v=0
296640 On ch=2 n=e6 v=31
296758 On ch=2 n=e6 v=0
296882 On ch=2 n=a5 v=63
296998 On ch=2 n=a5 v=0
297000 On ch=2 n=f5 v=63
297118 On ch=2 n=f5 v=0
297120 On ch=2 n=g5 v=63
297238 On ch=2 n=g5 v=0
297240 On ch=2 n=e5 v=63
297358 On ch=2 n=e5 v=0
297360 On ch=2 n=f5 v=63
297478 On ch=2 n=f5 v=0
297480 On ch=2 n=d5 v=63
297598 On ch=2 n=d5 v=0
297600 On ch=2 n=e5 v=63
297838 On ch=2 n=e5 v=0
298762 On ch=2 n=f6 v=105
299038 On ch=2 n=f6 v=0
299520 Par ch=2 c=64 v=127
299762 On ch=2 n=g6 v=105
299998 On ch=2 n=g6 v=0
300958 Par ch=2 c=64 v=0
310084 On ch=2 n=d6 v=63
310560 On ch=2 n=d6 v=0
312004 On ch=2 n=f5 v=31
312960 On ch=2 n=f5 v=0
312962 On ch=2 n=e5 v=31
313920 On ch=2 n=e5 v=0
326524 On ch=2 n=b5 v=31
326640 On ch=2 n=b5 v=0
326642 On ch=2 n=c6 v=31
326760 On ch=2 n=c6 v=0
326762 On ch=2 n=d6 v=31
326880 On ch=2 n=d6 v=0
326882 On ch=2 n=c6 v=31
327960 On ch=2 n=c6 v=0
327962 On ch=2 n=b5 v=31
328080 On ch=2 n=b5 v=0
328082 On ch=2 n=c6 v=31
328200 On ch=2 n=c6 v=0
328202 On ch=2 n=d6 v=31
328320 On ch=2 n=d6 v=0
328322 On ch=2 n=c6 v=31
329280 On ch=2 n=c6 v=0
329282 On ch=2 n=c6 v=47
329400 On ch=2 n=c6 v=0
329402 On ch=2 n=b5 v=47
329520 On ch=2 n=b5 v=0
329522 On ch=2 n=c6 v=47
329640 On ch=2 n=c6 v=0
329642 On ch=2 n=d6 v=47
329760 On ch=2 n=d6 v=0
329762 On ch=2 n=c6 v=47
330240 On ch=2 n=c6 v=0
330242 On ch=2 n=d6 v=47
330600 On ch=2 n=d6 v=0
330602 On ch=2 n=c6 v=47
330840 On ch=2 n=c6 v=0
330842 On ch=2 n=a#5 v=47
330960 On ch=2 n=a#5 v=0
330962 On ch=2 n=b5 v=47
331080 On ch=2 n=b5 v=0
331082 On ch=2 n=c6 v=47
331200 On ch=2 n=c6 v=0
331202 On ch=2 n=b5 v=47
331440 On ch=2 n=b5 v=0
336244 On ch=2 n=b5 v=31
336480 On ch=2 n=b5 v=0
336482 On ch=2 n=c6 v=31
336960 On ch=2 n=c6 v=0
339364 On ch=2 n=e5 v=19
339480 On ch=2 n=e5 v=0
339482 On ch=2 n=g5 v=19
339600 On ch=2 n=g5 v=0
339602 On ch=2 n=e5 v=19
339720 On ch=2 n=e5 v=0
339722 On ch=2 n=g5 v=19
339840 On ch=2 n=g5 v=0
339842 On ch=2 n=e5 v=19
339960 On ch=2 n=e5 v=0
339962 On ch=2 n=g5 v=19
340080 On ch=2 n=g5 v=0
340082 On ch=2 n=e5 v=19
340200 On ch=2 n=e5 v=0
340202 On ch=2 n=g5 v=19
340320 On ch=2 n=g5 v=0
340322 On ch=2 n=e5 v=19
340440 On ch=2 n=e5 v=0
340442 On ch=2 n=g5 v=19
340560 On ch=2 n=g5 v=0
340562 On ch=2 n=e5 v=19
340680 On ch=2 n=e5 v=0
340682 On ch=2 n=g5 v=19
340800 On ch=2 n=g5 v=0
340802 On ch=2 n=f5 v=19
340920 On ch=2 n=f5 v=0
340922 On ch=2 n=g5 v=19
341040 On ch=2 n=g5 v=0
341042 On ch=2 n=f5 v=19
341160 On ch=2 n=f5 v=0
341162 On ch=2 n=g5 v=19
341280 On ch=2 n=g5 v=0
341282 On ch=2 n=f5 v=19
341400 On ch=2 n=f5 v=0
341402 On ch=2 n=g5 v=19
341520 On ch=2 n=g5 v=0
341522 On ch=2 n=f5 v=19
341640 On ch=2 n=f5 v=0
341642 On ch=2 n=g5 v=19
341760 On ch=2 n=g5 v=0
341762 On ch=2 n=f5 v=19
341880 On ch=2 n=f5 v=0
341882 On ch=2 n=g5 v=19
342000 On ch=2 n=g5 v=0
342002 On ch=2 n=f5 v=19
342120 On ch=2 n=f5 v=0
342122 On ch=2 n=g5 v=19
342240 On ch=2 n=g5 v=0
342242 On ch=2 n=e5 v=19
342360 On ch=2 n=e5 v=0
342362 On ch=2 n=g5 v=19
342480 On ch=2 n=g5 v=0
342482 On ch=2 n=e5 v=19
342600 On ch=2 n=e5 v=0
342602 On ch=2 n=g5 v=19
342720 On ch=2 n=g5 v=0
342784 On ch=2 n=e6 v=19
342808 On ch=2 n=e6 v=0
342842 On ch=2 n=d6 v=19
342868 On ch=2 n=d6 v=0
342902 On ch=2 n=c6 v=19
342928 On ch=2 n=c6 v=0
342962 On ch=2 n=b5 v=19
342988 On ch=2 n=b5 v=0
343022 On ch=2 n=a5 v=19
343048 On ch=2 n=a5 v=0
343082 On ch=2 n=g5 v=19
343108 On ch=2 n=g5 v=0
343142 On ch=2 n=f5 v=19
343168 On ch=2 n=f5 v=0
343202 On ch=2 n=e5 v=47
343260 On ch=2 n=e5 v=0
343324 On ch=2 n=d5 v=47
343380 On ch=2 n=d5 v=0
343444 On ch=2 n=e5 v=47
343500 On ch=2 n=e5 v=0
343564 On ch=2 n=f5 v=47
343620 On ch=2 n=f5 v=0
343684 On ch=2 n=f5 v=47
343800 On ch=2 n=f5 v=0
343802 On ch=2 n=g5 v=47
344160 On ch=2 n=g5 v=0
344224 On ch=2 n=f6 v=47
344248 On ch=2 n=f6 v=0
344282 On ch=2 n=e6 v=47
344308 On ch=2 n=e6 v=0
344342 On ch=2 n=d6 v=47
344368 On ch=2 n=d6 v=0
344402 On ch=2 n=c6 v=47
344428 On ch=2 n=c6 v=0
344462 On ch=2 n=b5 v=47
344488 On ch=2 n=b5 v=0
344522 On ch=2 n=a5 v=47
344548 On ch=2 n=a5 v=0
344582 On ch=2 n=g5 v=47
344608 On ch=2 n=g5 v=0
344642 On ch=2 n=f#5 v=47
344700 On ch=2 n=f#5 v=0
344764 On ch=2 n=g5 v=47
344820 On ch=2 n=g5 v=0
344884 On ch=2 n=a5 v=47
344940 On ch=2 n=a5 v=0
345004 On ch=2 n=f5 v=47
345060 On ch=2 n=f5 v=0
345124 On ch=2 n=e5 v=47
345240 On ch=2 n=e5 v=0
345364 On ch=2 n=e6 v=47
345600 On ch=2 n=e6 v=0
346324 On ch=2 n=f5 v=31
346560 On ch=2 n=f5 v=0
346562 On ch=2 n=f5 v=19
347040 On ch=2 n=f5 v=0
347042 On ch=2 n=e5 v=10
347280 On ch=2 n=e5 v=0
349564 On ch=2 n=c6 v=47
349680 On ch=2 n=c6 v=0
349682 On ch=2 n=d6 v=63
349800 On ch=2 n=d6 v=0
349802 On ch=2 n=d#6 v=63
349920 On ch=2 n=d#6 v=0
349922 On ch=2 n=d6 v=63
350040 On ch=2 n=d6 v=0
350042 On ch=2 n=c6 v=63
350160 On ch=2 n=c6 v=0
350162 On ch=2 n=a#5 v=47
350280 On ch=2 n=a#5 v=0
350282 On ch=2 n=a5 v=47
350400 On ch=2 n=a5 v=0
350402 On ch=2 n=g5 v=47
350880 On ch=2 n=g5 v=0
351004 On ch=2 n=g5 v=47
351120 On ch=2 n=g5 v=0
351122 On ch=2 n=a5 v=47
351240 On ch=2 n=a5 v=0
351242 On ch=2 n=a#5 v=47
351360 On ch=2 n=a#5 v=0
351362 On ch=2 n=a5 v=47
351480 On ch=2 n=a5 v=0
351482 On ch=2 n=g5 v=47
351600 On ch=2 n=g5 v=0
351602 On ch=2 n=a5 v=47
351720 On ch=2 n=a5 v=0
351722 On ch=2 n=a#5 v=47
351840 On ch=2 n=a#5 v=0
351842 On ch=2 n=a5 v=47
351960 On ch=2 n=a5 v=0
351962 On ch=2 n=g5 v=47
352080 On ch=2 n=g5 v=0
352082 On ch=2 n=a5 v=47
352200 On ch=2 n=a5 v=0
352202 On ch=2 n=a#5 v=47
352320 On ch=2 n=a#5 v=0
352322 On ch=2 n=a5 v=47
353760 On ch=2 n=a5 v=0
353762 On ch=2 n=f5 v=47
353880 On ch=2 n=f5 v=0
353882 On ch=2 n=e5 v=47
354000 On ch=2 n=e5 v=0
354002 On ch=2 n=f5 v=63
354120 On ch=2 n=f5 v=0
354122 On ch=2 n=g5 v=63
354240 On ch=2 n=g5 v=0
354242 On ch=2 n=f5 v=63
354360 On ch=2 n=f5 v=0
354362 On ch=2 n=e5 v=63
354480 On ch=2 n=e5 v=0
354482 On ch=2 n=f5 v=47
354600 On ch=2 n=f5 v=0
354602 On ch=2 n=g5 v=47
354720 On ch=2 n=g5 v=0
354722 On ch=2 n=f5 v=47
354840 On ch=2 n=f5 v=0
354842 On ch=2 n=a5 v=47
354960 On ch=2 n=a5 v=0
354962 On ch=2 n=g5 v=47
355080 On ch=2 n=g5 v=0
355082 On ch=2 n=f5 v=47
355200 On ch=2 n=f5 v=0
355202 On ch=2 n=e5 v=47
355680 On ch=2 n=e5 v=0
355682 On ch=2 n=f5 v=47
356640 On ch=2 n=f5 v=0
356642 On ch=2 n=f5 v=19
357120 On ch=2 n=f5 v=0
357122 On ch=2 n=f#5 v=19
358080 On ch=2 n=f#5 v=0
358082 On ch=2 n=g5 v=19
359520 On ch=2 n=g5 v=0
368644 On ch=2 n=d6 v=63
368880 On ch=2 n=d6 v=0
369604 On ch=2 n=f5 v=47
370080 On ch=2 n=f5 v=0
370082 On ch=2 n=e5 v=31
370320 On ch=2 n=e5 v=0
372004 On ch=2 n=e5 v=47
372480 On ch=2 n=e5 v=0
373924 On ch=2 n=d5 v=47
374400 On ch=2 n=d5 v=0
378244 On ch=2 n=g#5 v=47
378720 On ch=2 n=g#5 v=0
378722 On ch=2 n=g5 v=47
378960 On ch=2 n=g5 v=0
378962 On ch=2 n=f5 v=47
379200 On ch=2 n=f5 v=0
379202 On ch=2 n=e5 v=47
379440 On ch=2 n=e5 v=0
379442 On ch=2 n=g5 v=47
379680 On ch=2 n=g5 v=0
379682 On ch=2 n=c5 v=47
380160 On ch=2 n=c5 v=0
380162 On ch=2 n=d5 v=47
380880 On ch=2 n=d5 v=0
380882 On ch=2 n=d5 v=47
381120 On ch=2 n=d5 v=0
381244 On ch=2 n=c#6 v=55
381360 On ch=2 n=c#6 v=0
381362 On ch=2 n=c6 v=55
381480 On ch=2 n=c6 v=0
381482 On ch=2 n=b5 v=55
381600 On ch=2 n=b5 v=0
381602 On ch=2 n=c6 v=55
381720 On ch=2 n=c6 v=0
381722 On ch=2 n=a#5 v=55
381840 On ch=2 n=a#5 v=0
381842 On ch=2 n=g#5 v=55
381960 On ch=2 n=g#5 v=0
381962 On ch=2 n=g5 v=55
382080 On ch=2 n=g5 v=0
382082 On ch=2 n=g#5 v=47
382200 On ch=2 n=g#5 v=0
382202 On ch=2 n=g#5 v=47
382320 On ch=2 n=g#5 v=0
382322 On ch=2 n=g5 v=47
382440 On ch=2 n=g5 v=0
382442 On ch=2 n=f5 v=47
382560 On ch=2 n=f5 v=0
382562 On ch=2 n=f5 v=47
383040 On ch=2 n=f5 v=0
383042 On ch=2 n=e5 v=47
383520 On ch=2 n=e5 v=0
396064 On ch=2 n=c5 v=31
396088 On ch=2 n=c5 v=0
396122 On ch=2 n=d5 v=31
396148 On ch=2 n=d5 v=0
396182 On ch=2 n=e5 v=31
396208 On ch=2 n=e5 v=0
396242 On ch=2 n=f5 v=31
396268 On ch=2 n=f5 v=0
396302 On ch=2 n=g5 v=31
396328 On ch=2 n=g5 v=0
396362 On ch=2 n=a5 v=31
396388 On ch=2 n=a5 v=0
396422 On ch=2 n=a#5 v=31
396448 On ch=2 n=a#5 v=0
396482 On ch=2 n=c6 v=31
396540 On ch=2 n=c6 v=0
396604 On ch=2 n=d6 v=31
396660 On ch=2 n=d6 v=0
396724 On ch=2 n=e6 v=31
396780 On ch=2 n=e6 v=0
396844 On ch=2 n=f6 v=31
396900 On ch=2 n=f6 v=0
396964 On ch=2 n=f6 v=47
397320 On ch=2 n=f6 v=0
397322 On ch=2 n=e6 v=47
397560 On ch=2 n=e6 v=0
397562 On ch=2 n=d6 v=47
397800 On ch=2 n=d6 v=0
397802 On ch=2 n=c6 v=47
398040 On ch=2 n=c6 v=0
398042 On ch=2 n=a#5 v=47
398280 On ch=2 n=a#5 v=0
398282 On ch=2 n=a5 v=47
398520 On ch=2 n=a5 v=0
398522 On ch=2 n=g5 v=47
398760 On ch=2 n=g5 v=0
398762 On ch=2 n=f#5 v=47
399000 On ch=2 n=f#5 v=0
399002 On ch=2 n=g5 v=47
399240 On ch=2 n=g5 v=0
399242 On ch=2 n=f5 v=47
399480 On ch=2 n=f5 v=0
399482 On ch=2 n=e5 v=47
399720 On ch=2 n=e5 v=0
399722 On ch=2 n=a#5 v=31
399960 On ch=2 n=a#5 v=0
399962 On ch=2 n=a5 v=31
400200 On ch=2 n=a5 v=0
400202 On ch=2 n=c#6 v=31
400440 On ch=2 n=c#6 v=0
400442 On ch=2 n=d6 v=31
400560 On ch=2 n=d6 v=0
401044 On ch=2 n=g#6 v=31
401280 On ch=2 n=g#6 v=0
401282 On ch=2 n=c5 v=31
401560 On ch=2 n=c5 v=0
401562 On ch=2 n=f5 v=31
401600 On ch=2 n=f5 v=0
401602 On ch=2 n=a5 v=31
401640 On ch=2 n=a5 v=0
411846 On ch=2 n=e5 v=31
412082 On ch=2 n=e5 v=0
412326 On ch=2 n=f5 v=31
412562 On ch=2 n=f5 v=0
412806 On ch=2 n=g5 v=31
413042 On ch=2 n=g5 v=0
413286 On ch=2 n=a5 v=31
414722 On ch=2 n=a5 v=0
414724 On ch=2 n=f5 v=31
416162 On ch=2 n=f5 v=0
416646 On ch=2 n=b5 v=47
416882 On ch=2 n=b5 v=0
417126 On ch=2 n=c6 v=47
417362 On ch=2 n=c6 v=0
417606 On ch=2 n=d6 v=63
417842 On ch=2 n=d6 v=0
419046 On ch=2 n=b5 v=19
419282 On ch=2 n=b5 v=0
419526 On ch=2 n=c6 v=19
419762 On ch=2 n=c6 v=0
420006 On ch=2 n=d6 v=19
420242 On ch=2 n=d6 v=0
420486 On ch=2 n=e6 v=19
420722 On ch=2 n=e6 v=0
421926 On ch=2 n=e6 v=31
422162 On ch=2 n=e6 v=0
422406 On ch=2 n=f6 v=31
422642 On ch=2 n=f6 v=0
422886 On ch=2 n=g6 v=31
423122 On ch=2 n=g6 v=0
423366 On ch=2 n=a6 v=31
424802 On ch=2 n=a6 v=0
424804 On ch=2 n=f#6 v=63
426242 On ch=2 n=f#6 v=0
427686 On ch=2 n=e5 v=31
427922 On ch=2 n=e5 v=0
428166 On ch=2 n=f5 v=31
428402 On ch=2 n=f5 v=0
428646 On ch=2 n=g5 v=31
428882 On ch=2 n=g5 v=0
429126 On ch=2 n=a5 v=31
430562 On ch=2 n=a5 v=0
430564 On ch=2 n=f5 v=47
430802 On ch=2 n=f5 v=0
431046 On ch=2 n=f5 v=47
431282 On ch=2 n=f5 v=0
431526 On ch=2 n=f5 v=47
431762 On ch=2 n=f5 v=0
432006 On ch=2 n=e5 v=47
432242 On ch=2 n=e5 v=0
432486 On ch=2 n=e5 v=47
432722 On ch=2 n=e5 v=0
432966 On ch=2 n=e5 v=47
433202 On ch=2 n=e5 v=0
433446 On ch=2 n=a5 v=47
434882 On ch=2 n=a5 v=0
434884 On ch=2 n=b5 v=19
435122 On ch=2 n=b5 v=0
439686 On ch=2 n=d6 v=31
440162 On ch=2 n=d6 v=0
440164 On ch=2 n=c6 v=31
440642 On ch=2 n=c6 v=0
440644 On ch=2 n=b5 v=31
441122 On ch=2 n=b5 v=0
446406 On ch=2 n=e5 v=31
446642 On ch=2 n=e5 v=0
446886 On ch=2 n=f5 v=31
447122 On ch=2 n=f5 v=0
447366 On ch=2 n=g5 v=31
447602 On ch=2 n=g5 v=0
447846 On ch=2 n=a5 v=31
449282 On ch=2 n=a5 v=0
449284 On ch=2 n=f5 v=31
450722 On ch=2 n=f5 v=0
451206 On ch=2 n=b5 v=47
451442 On ch=2 n=b5 v=0
451686 On ch=2 n=c6 v=47
451922 On ch=2 n=c6 v=0
452166 On ch=2 n=d6 v=63
452402 On ch=2 n=d6 v=0
453606 On ch=2 n=b5 v=19
453842 On ch=2 n=b5 v=0
454086 On ch=2 n=c6 v=19
454322 On ch=2 n=c6 v=0
454566 On ch=2 n=d6 v=19
454802 On ch=2 n=d6 v=0
455046 On ch=2 n=e6 v=19
455282 On ch=2 n=e6 v=0
456486 On ch=2 n=e6 v=31
456722 On ch=2 n=e6 v=0
456966 On ch=2 n=f6 v=31
457202 On ch=2 n=f6 v=0
457446 On ch=2 n=g6 v=31
457682 On ch=2 n=g6 v=0
457926 On ch=2 n=a6 v=31
459362 On ch=2 n=a6 v=0
459364 On ch=2 n=f#6 v=63
460802 On ch=2 n=f#6 v=0
462246 On ch=2 n=e5 v=31
462482 On ch=2 n=e5 v=0
462726 On ch=2 n=f5 v=31
462962 On ch=2 n=f5 v=0
463206 On ch=2 n=g5 v=31
463442 On ch=2 n=g5 v=0
463686 On ch=2 n=a5 v=31
465122 On ch=2 n=a5 v=0
465124 On ch=2 n=f5 v=47
465362 On ch=2 n=f5 v=0
465606 On ch=2 n=f5 v=47
465842 On ch=2 n=f5 v=0
466086 On ch=2 n=f5 v=47
466322 On ch=2 n=f5 v=0
466566 On ch=2 n=e5 v=47
466802 On ch=2 n=e5 v=0
467046 On ch=2 n=e5 v=47
467282 On ch=2 n=e5 v=0
467526 On ch=2 n=e5 v=47
467762 On ch=2 n=e5 v=0
468006 On ch=2 n=a5 v=47
469442 On ch=2 n=a5 v=0
469444 On ch=2 n=b5 v=19
469682 On ch=2 n=b5 v=0
474246 On ch=2 n=d6 v=31
474722 On ch=2 n=d6 v=0
474724 On ch=2 n=c6 v=31
475202 On ch=2 n=c6 v=0
475204 On ch=2 n=b5 v=31
475682 On ch=2 n=b5 v=0
480486 On ch=2 n=g5 v=31
480722 On ch=2 n=g5 v=0
480966 On ch=2 n=g5 v=31
481202 On ch=2 n=g5 v=0
481446 On ch=2 n=g5 v=31
481682 On ch=2 n=g5 v=0
481926 On ch=2 n=g5 v=31
482162 On ch=2 n=g5 v=0
482406 On ch=2 n=g5 v=31
482642 On ch=2 n=g5 v=0
482886 On ch=2 n=g5 v=31
483842 On ch=2 n=g5 v=0
483844 On ch=2 n=g5 v=31
484322 On ch=2 n=g5 v=0
484806 On ch=2 n=g6 v=19
485042 On ch=2 n=g6 v=0
485286 On ch=2 n=g6 v=19
485522 On ch=2 n=g6 v=0
485766 On ch=2 n=g6 v=19
486002 On ch=2 n=g6 v=0
486246 On ch=2 n=g6 v=19
486482 On ch=2 n=g6 v=0
486726 On ch=2 n=g6 v=19
486962 On ch=2 n=g6 v=0
487206 On ch=2 n=g6 v=19
488162 On ch=2 n=g6 v=0
488164 On ch=2 n=g6 v=19
488402 On ch=2 n=g6 v=0
488646 On ch=2 n=g6 v=31
489602 On ch=2 n=g6 v=0
489604 On ch=2 n=g#6 v=31
489842 On ch=2 n=g#6 v=0
490086 On ch=2 n=g#6 v=47
491042 On ch=2 n=g#6 v=0
491044 On ch=2 n=g#6 v=47
491282 On ch=2 n=g#6 v=0
491526 On ch=2 n=g#6 v=47
492482 On ch=2 n=g#6 v=0
492484 On ch=2 n=a6 v=47
492962 On ch=2 n=a6 v=0
492964 On ch=2 n=e6 v=31
493442 On ch=2 n=e6 v=0
493444 On ch=2 n=d6 v=31
493922 On ch=2 n=d6 v=0
493924 On ch=2 n=c#6 v=31
494402 On ch=2 n=c#6 v=0
494404 On ch=2 n=e5 v=31
494882 On ch=2 n=e5 v=0
494884 On ch=2 n=d5 v=31
495362 On ch=2 n=d5 v=0
518486 On ch=2 n=e6 v=81
519362 On ch=2 n=e6 v=0
521366 On ch=2 n=e6 v=81
522242 On ch=2 n=e6 v=0
524246 On ch=2 n=e6 v=81
525122 On ch=2 n=e6 v=0
525686 On ch=2 n=f6 v=81
526562 On ch=2 n=f6 v=0
527046 On ch=2 n=g5 v=81
528002 On ch=2 n=g5 v=0
528004 On ch=2 n=b5 v=81
528482 On ch=2 n=b5 v=0
531366 On ch=2 n=f#5 v=81
532802 On ch=2 n=f#5 v=0
532804 On ch=2 n=g5 v=63
534242 On ch=2 n=g5 v=0
534244 On ch=2 n=f#5 v=63
535682 On ch=2 n=f#5 v=0
535684 On ch=2 n=g5 v=47
536162 On ch=2 n=g5 v=0
537126 On ch=2 n=d#5 v=19
537362 On ch=2 n=d#5 v=0
537606 On ch=2 n=f5 v=19
537842 On ch=2 n=f5 v=0
538086 On ch=2 n=g5 v=19
538322 On ch=2 n=g5 v=0
538566 On ch=2 n=g#5 v=19
540002 On ch=2 n=g#5 v=0
541446 On ch=2 n=e5 v=63
541922 On ch=2 n=e5 v=0
541924 On ch=2 n=f5 v=63
542402 On ch=2 n=f5 v=0
542404 On ch=2 n=g5 v=63
542882 On ch=2 n=g5 v=0
542884 On ch=2 n=a5 v=63
544322 On ch=2 n=a5 v=0
544324 On ch=2 n=f#5 v=63
545762 On ch=2 n=f#5 v=0
547206 On ch=2 n=e6 v=63
547442 On ch=2 n=e6 v=0
547686 On ch=2 n=f6 v=63
547922 On ch=2 n=f6 v=0
548166 On ch=2 n=g6 v=63
548402 On ch=2 n=g6 v=0
548646 On ch=2 n=a6 v=63
548882 On ch=2 n=a6 v=0
550086 On ch=2 n=f6 v=63
550322 On ch=2 n=f6 v=0
550566 On ch=2 n=f6 v=63
550802 On ch=2 n=f6 v=0
550804 On ch=2 n=e6 v=63
551042 On ch=2 n=e6 v=0
551044 On ch=2 n=f6 v=63
551522 On ch=2 n=f6 v=0
551606 On ch=2 n=e6 v=105
552482 On ch=2 n=e6 v=0
554486 On ch=2 n=e7 v=105
555362 On ch=2 n=e7 v=0
557366 On ch=2 n=e7 v=105
558242 On ch=2 n=e7 v=0
558726 On ch=2 n=f7 v=105
559682 On ch=2 n=f7 v=0
560166 On ch=2 n=g6 v=81
561122 On ch=2 n=g6 v=0
561124 On ch=2 n=b6 v=81
561602 On ch=2 n=b6 v=0
561686 On ch=2 n=e6 v=81
562562 On ch=2 n=e6 v=0
564566 On ch=2 n=e6 v=81
565442 On ch=2 n=e6 v=0
567446 On ch=2 n=e6 v=81
568322 On ch=2 n=e6 v=0
568806 On ch=2 n=f6 v=81
569762 On ch=2 n=f6 v=0
570246 On ch=2 n=g5 v=81
571202 On ch=2 n=g5 v=0
571204 On ch=2 n=b5 v=63
571682 On ch=2 n=b5 v=0
572166 On ch=2 n=g5 v=19
572642 On ch=2 n=g5 v=0
572644 On ch=2 n=f5 v=19
573122 On ch=2 n=f5 v=0
573124 On ch=2 n=e5 v=19
573602 On ch=2 n=e5 v=0
576486 On ch=2 n=g6 v=105
576722 On ch=2 n=g6 v=0
576966 On ch=2 n=g6 v=105
577202 On ch=2 n=g6 v=0
577446 On ch=2 n=g6 v=105
577922 On ch=2 n=g6 v=0
578406 On ch=2 n=g5 v=31
578642 On ch=2 n=g5 v=0
578886 On ch=2 n=g5 v=31
579122 On ch=2 n=g5 v=0
579366 On ch=2 n=g5 v=31
579602 On ch=2 n=g5 v=0
579846 On ch=2 n=g5 v=31
580082 On ch=2 n=g5 v=0
580326 On ch=2 n=g5 v=31
580562 On ch=2 n=g5 v=0
580806 On ch=2 n=g5 v=31
581762 On ch=2 n=g5 v=0
581764 On ch=2 n=g5 v=31
582242 On ch=2 n=g5 v=0
582726 On ch=2 n=g6 v=19
582962 On ch=2 n=g6 v=0
583206 On ch=2 n=g6 v=19
583442 On ch=2 n=g6 v=0
583686 On ch=2 n=g6 v=19
583922 On ch=2 n=g6 v=0
584166 On ch=2 n=g6 v=19
584402 On ch=2 n=g6 v=0
584646 On ch=2 n=g6 v=19
584882 On ch=2 n=g6 v=0
585126 On ch=2 n=g6 v=19
586082 On ch=2 n=g6 v=0
586084 On ch=2 n=g6 v=19
586322 On ch=2 n=g6 v=0
586566 On ch=2 n=g6 v=31
587522 On ch=2 n=g6 v=0
587524 On ch=2 n=g#6 v=31
587762 On ch=2 n=g#6 v=0
588006 On ch=2 n=g#6 v=47
588962 On ch=2 n=g#6 v=0
588964 On ch=2 n=g#6 v=47
589202 On ch=2 n=g#6 v=0
589446 On ch=2 n=g#6 v=47
590402 On ch=2 n=g#6 v=0
590404 On ch=2 n=a6 v=47
590882 On ch=2 n=a6 v=0
590884 On ch=2 n=e6 v=31
591362 On ch=2 n=e6 v=0
591364 On ch=2 n=d6 v=31
591842 On ch=2 n=d6 v=0
591844 On ch=2 n=c#6 v=31
592322 On ch=2 n=c#6 v=0
592324 On ch=2 n=e5 v=31
592802 On ch=2 n=e5 v=0
592804 On ch=2 n=d5 v=31
593282 On ch=2 n=d5 v=0
616406 On ch=2 n=e6 v=81
617282 On ch=2 n=e6 v=0
619286 On ch=2 n=e6 v=81
620162 On ch=2 n=e6 v=0
622166 On ch=2 n=e6 v=81
623042 On ch=2 n=e6 v=0
623606 On ch=2 n=f6 v=81
624482 On ch=2 n=f6 v=0
624966 On ch=2 n=g5 v=81
625922 On ch=2 n=g5 v=0
625924 On ch=2 n=b5 v=81
626402 On ch=2 n=b5 v=0
629286 On ch=2 n=f#5 v=81
630722 On ch=2 n=f#5 v=0
630724 On ch=2 n=g5 v=63
632162 On ch=2 n=g5 v=0
632164 On ch=2 n=f#5 v=63
633602 On ch=2 n=f#5 v=0
633604 On ch=2 n=g5 v=47
634082 On ch=2 n=g5 v=0
635046 On ch=2 n=d#5 v=19
635282 On ch=2 n=d#5 v=0
635526 On ch=2 n=f5 v=19
635762 On ch=2 n=f5 v=0
636006 On ch=2 n=g5 v=19
636242 On ch=2 n=g5 v=0
636486 On ch=2 n=g#5 v=19
637922 On ch=2 n=g#5 v=0
639366 On ch=2 n=e5 v=63
639842 On ch=2 n=e5 v=0
639844 On ch=2 n=f5 v=63
640322 On ch=2 n=f5 v=0
640324 On ch=2 n=g5 v=63
640802 On ch=2 n=g5 v=0
640804 On ch=2 n=a5 v=63
642242 On ch=2 n=a5 v=0
642244 On ch=2 n=f#5 v=63
643682 On ch=2 n=f#5 v=0
645126 On ch=2 n=e6 v=63
645362 On ch=2 n=e6 v=0
645606 On ch=2 n=f6 v=63
645842 On ch=2 n=f6 v=0
646086 On ch=2 n=g6 v=63
646322 On ch=2 n=g6 v=0
646566 On ch=2 n=a6 v=63
646802 On ch=2 n=a6 v=0
648006 On ch=2 n=f6 v=63
648242 On ch=2 n=f6 v=0
648486 On ch=2 n=f6 v=63
648722 On ch=2 n=f6 v=0
648724 On ch=2 n=e6 v=63
648962 On ch=2 n=e6 v=0
648964 On ch=2 n=f6 v=63
649442 On ch=2 n=f6 v=0
649526 On ch=2 n=e6 v=105
650402 On ch=2 n=e6 v=0
652406 On ch=2 n=e7 v=105
653282 On ch=2 n=e7 v=0
655286 On ch=2 n=e7 v=105
656162 On ch=2 n=e7 v=0
656646 On ch=2 n=f7 v=105
657602 On ch=2 n=f7 v=0
658086 On ch=2 n=g6 v=81
659042 On ch=2 n=g6 v=0
659044 On ch=2 n=b6 v=81
659522 On ch=2 n=b6 v=0
659606 On ch=2 n=e6 v=81
660482 On ch=2 n=e6 v=0
662486 On ch=2 n=e6 v=81
663362 On ch=2 n=e6 v=0
665366 On ch=2 n=e6 v=81
666242 On ch=2 n=e6 v=0
666726 On ch=2 n=f6 v=81
667682 On ch=2 n=f6 v=0
668166 On ch=2 n=g5 v=81
669122 On ch=2 n=g5 v=0
669124 On ch=2 n=b5 v=63
669602 On ch=2 n=b5 v=0
670086 On ch=2 n=g5 v=19
670562 On ch=2 n=g5 v=0
670564 On ch=2 n=f5 v=19
671042 On ch=2 n=f5 v=0
671044 On ch=2 n=e5 v=19
671522 On ch=2 n=e5 v=0
674406 On ch=2 n=g6 v=105
674642 On ch=2 n=g6 v=0
674886 On ch=2 n=g6 v=105
675122 On ch=2 n=g6 v=0
675366 On ch=2 n=g6 v=105
675842 On ch=2 n=g6 v=0
675842 Meta TrkEnd
TrkEnd
MTrk
0 SeqSpec 43 00 01 00
0 Meta TrkName "Haydn. (Augener Edition)"
0 Meta 0x21 00
0 PrCh ch=3 p=0
0 Par ch=3 c=7 v=127
0 PrCh ch=3 p=0
11722 On ch=3 n=e6 v=81
11998 On ch=3 n=e6 v=0
12642 On ch=3 n=b5 v=81
12958 On ch=3 n=b5 v=0
13602 On ch=3 n=g5 v=81
13918 On ch=3 n=g5 v=0
15602 On ch=3 n=f5 v=81
15718 On ch=3 n=f5 v=0
15842 On ch=3 n=f5 v=81
15958 On ch=3 n=f5 v=0
16562 On ch=3 n=e5 v=81
16678 On ch=3 n=e5 v=0
16802 On ch=3 n=e5 v=81
16918 On ch=3 n=e5 v=0
21122 On ch=3 n=d5 v=31
21358 On ch=3 n=d5 v=0
21360 On ch=3 n=d5 v=31
21598 On ch=3 n=d5 v=0
21600 On ch=3 n=d5 v=31
21838 On ch=3 n=d5 v=0
21840 On ch=3 n=d5 v=31
22078 On ch=3 n=d5 v=0
23042 On ch=3 n=d5 v=31
23278 On ch=3 n=d5 v=0
23280 On ch=3 n=d5 v=31
23518 On ch=3 n=d5 v=0
23520 On ch=3 n=d5 v=31
23758 On ch=3 n=d5 v=0
23760 On ch=3 n=d5 v=31
23998 On ch=3 n=d5 v=0
24962 On ch=3 n=d5 v=31
25198 On ch=3 n=d5 v=0
25200 On ch=3 n=d5 v=31
25438 On ch=3 n=d5 v=0
25440 On ch=3 n=d5 v=31
25678 On ch=3 n=d5 v=0
25680 On ch=3 n=d5 v=31
25918 On ch=3 n=d5 v=0
26882 On ch=3 n=d5 v=31
27118 On ch=3 n=d5 v=0
27120 On ch=3 n=d5 v=31
27358 On ch=3 n=d5 v=0
27360 On ch=3 n=d5 v=31
27598 On ch=3 n=d5 v=0
27600 On ch=3 n=d5 v=31
27838 On ch=3 n=d5 v=0
30842 On ch=3 n=c#5 v=47
30958 On ch=3 n=c#5 v=0
30960 On ch=3 n=d5 v=47
31078 On ch=3 n=d5 v=0
31080 On ch=3 n=e5 v=47
31198 On ch=3 n=e5 v=0
31200 On ch=3 n=f5 v=47
31318 On ch=3 n=f5 v=0
31320 On ch=3 n=e5 v=47
31438 On ch=3 n=e5 v=0
31440 On ch=3 n=f5 v=31
31558 On ch=3 n=f5 v=0
31560 On ch=3 n=f#5 v=31
31678 On ch=3 n=f#5 v=0
31680 On ch=3 n=g5 v=31
31798 On ch=3 n=g5 v=0
31800 On ch=3 n=g4 v=31
31918 On ch=3 n=g4 v=0
31920 On ch=3 n=a5 v=31
32038 On ch=3 n=a5 v=0
32762 On ch=3 n=g5 v=40
32878 On ch=3 n=g5 v=0
33242 On ch=3 n=g5 v=40
33358 On ch=3 n=g5 v=0
33722 On ch=3 n=g5 v=40
33838 On ch=3 n=g5 v=0
34682 On ch=3 n=g5 v=40
34798 On ch=3 n=g5 v=0
35162 On ch=3 n=g5 v=40
35278 On ch=3 n=g5 v=0
35642 On ch=3 n=g5 v=40
35758 On ch=3 n=g5 v=0
62522 On ch=3 n=e5 v=31
62638 On ch=3 n=e5 v=0
62640 On ch=3 n=f5 v=31
62758 On ch=3 n=f5 v=0
62760 On ch=3 n=g5 v=31
62878 On ch=3 n=g5 v=0
62880 On ch=3 n=a5 v=31
63118 On ch=3 n=a5 v=0
64082 On ch=3 n=b4 v=47
64318 On ch=3 n=b4 v=0
64320 On ch=3 n=c5 v=47
64798 On ch=3 n=c5 v=0
64800 On ch=3 n=d5 v=31
65278 On ch=3 n=d5 v=0
76802 On ch=3 n=c5 v=31
76918 On ch=3 n=c5 v=0
76920 On ch=3 n=a5 v=31
77038 On ch=3 n=a5 v=0
77040 On ch=3 n=c5 v=31
77158 On ch=3 n=c5 v=0
77160 On ch=3 n=a5 v=31
77278 On ch=3 n=a5 v=0
77280 On ch=3 n=c5 v=31
77398 On ch=3 n=c5 v=0
77400 On ch=3 n=a5 v=31
77518 On ch=3 n=a5 v=0
77520 On ch=3 n=c5 v=63
77638 On ch=3 n=c5 v=0
77640 On ch=3 n=a5 v=63
77758 On ch=3 n=a5 v=0
77760 On ch=3 n=c#5 v=63
77878 On ch=3 n=c#5 v=0
77880 On ch=3 n=g5 v=63
77998 On ch=3 n=g5 v=0
78000 On ch=3 n=c#5 v=63
78118 On ch=3 n=c#5 v=0
78120 On ch=3 n=g5 v=63
78238 On ch=3 n=g5 v=0
78240 On ch=3 n=c#5 v=63
78358 On ch=3 n=c#5 v=0
78360 On ch=3 n=g5 v=63
78478 On ch=3 n=g5 v=0
78480 On ch=3 n=c#5 v=63
78598 On ch=3 n=c#5 v=0
78600 On ch=3 n=g5 v=63
78718 On ch=3 n=g5 v=0
78720 On ch=3 n=d5 v=63
78838 On ch=3 n=d5 v=0
78840 On ch=3 n=g5 v=63
78958 On ch=3 n=g5 v=0
78960 On ch=3 n=d5 v=63
79078 On ch=3 n=d5 v=0
79080 On ch=3 n=g5 v=63
79198 On ch=3 n=g5 v=0
79200 On ch=3 n=d5 v=47
79318 On ch=3 n=d5 v=0
79320 On ch=3 n=g5 v=47
79438 On ch=3 n=g5 v=0
79440 On ch=3 n=d5 v=47
79558 On ch=3 n=d5 v=0
79560 On ch=3 n=g5 v=47
79678 On ch=3 n=g5 v=0
79680 On ch=3 n=d5 v=31
79798 On ch=3 n=d5 v=0
79800 On ch=3 n=f#5 v=31
79918 On ch=3 n=f#5 v=0
79920 On ch=3 n=d5 v=31
80038 On ch=3 n=d5 v=0
80040 On ch=3 n=f#5 v=31
80158 On ch=3 n=f#5 v=0
80160 On ch=3 n=d5 v=31
80278 On ch=3 n=d5 v=0
80280 On ch=3 n=f#5 v=31
80398 On ch=3 n=f#5 v=0
80400 On ch=3 n=d5 v=31
80518 On ch=3 n=d5 v=0
80520 On ch=3 n=f#5 v=31
80638 On ch=3 n=f#5 v=0
80640 On ch=3 n=g5 v=29
81118 On ch=3 n=g5 v=0
81242 On ch=3 n=b5 v=63
81358 On ch=3 n=b5 v=0
81722 On ch=3 n=b5 v=63
81838 On ch=3 n=b5 v=0
82202 On ch=3 n=b5 v=63
82318 On ch=3 n=b5 v=0
82562 On ch=3 n=e6 v=63
82798 On ch=3 n=e6 v=0
85082 On ch=3 n=b5 v=81
85198 On ch=3 n=b5 v=0
85562 On ch=3 n=b5 v=81
85678 On ch=3 n=b5 v=0
86042 On ch=3 n=b5 v=81
86158 On ch=3 n=b5 v=0
86402 On ch=3 n=e6 v=81
86638 On ch=3 n=e6 v=0
106082 On ch=3 n=a5 v=105
106318 On ch=3 n=a5 v=0
106562 On ch=3 n=b5 v=105
106798 On ch=3 n=b5 v=0
115202 On ch=3 n=a5 v=31
115318 On ch=3 n=a5 v=0
115320 On ch=3 n=g#5 v=31
115438 On ch=3 n=g#5 v=0
115440 On ch=3 n=a5 v=31
115558 On ch=3 n=a5 v=0
115560 On ch=3 n=a#5 v=31
115678 On ch=3 n=a#5 v=0
115680 On ch=3 n=a5 v=31
115798 On ch=3 n=a5 v=0
115800 On ch=3 n=g5 v=31
115918 On ch=3 n=g5 v=0
115920 On ch=3 n=f5 v=31
116038 On ch=3 n=f5 v=0
116040 On ch=3 n=e5 v=31
116158 On ch=3 n=e5 v=0
116160 On ch=3 n=f5 v=31
116638 On ch=3 n=f5 v=0
116640 On ch=3 n=f#5 v=31
117118 On ch=3 n=f#5 v=0
168962 On ch=3 n=g5 v=105
169918 On ch=3 n=g5 v=0
169920 On ch=3 n=d5 v=105
170878 On ch=3 n=d5 v=0
170880 On ch=3 n=d5 v=93
172318 On ch=3 n=d5 v=0
172320 On ch=3 n=d5 v=93
172798 On ch=3 n=d5 v=0
172800 On ch=3 n=c5 v=93
173758 On ch=3 n=c5 v=0
173760 On ch=3 n=c5 v=77
174238 On ch=3 n=c5 v=0
174240 On ch=3 n=b4 v=77
174478 On ch=3 n=b4 v=0
174480 On ch=3 n=a4 v=77
174718 On ch=3 n=a4 v=0
174720 On ch=3 n=b4 v=89
174958 On ch=3 n=b4 v=0
184802 On ch=3 n=g5 v=29
185038 On ch=3 n=g5 v=0
185040 On ch=3 n=f5 v=29
185278 On ch=3 n=f5 v=0
185280 On ch=3 n=e5 v=29
185518 On ch=3 n=e5 v=0
185762 On ch=3 n=e5 v=31
185998 On ch=3 n=e5 v=0
186000 On ch=3 n=d5 v=31
186238 On ch=3 n=d5 v=0
186240 On ch=3 n=c#5 v=47
187198 On ch=3 n=c#5 v=0
187200 On ch=3 n=d5 v=31
187678 On ch=3 n=d5 v=0
187680 On ch=3 n=e5 v=31
188158 On ch=3 n=e5 v=0
188160 On ch=3 n=d5 v=31
188638 On ch=3 n=d5 v=0
188640 On ch=3 n=e5 v=31
189118 On ch=3 n=e5 v=0
191522 On ch=3 n=f5 v=31
191758 On ch=3 n=f5 v=0
191760 On ch=3 n=e5 v=31
191998 On ch=3 n=e5 v=0
192000 On ch=3 n=d5 v=31
192238 On ch=3 n=d5 v=0
192482 On ch=3 n=d5 v=31
192718 On ch=3 n=d5 v=0
192720 On ch=3 n=c5 v=31
192958 On ch=3 n=c5 v=0
192960 On ch=3 n=b4 v=31
193198 On ch=3 n=b4 v=0
194522 On ch=3 n=f#5 v=31
194638 On ch=3 n=f#5 v=0
194640 On ch=3 n=g5 v=31
194758 On ch=3 n=g5 v=0
194760 On ch=3 n=f#5 v=31
194878 On ch=3 n=f#5 v=0
194880 On ch=3 n=g5 v=31
194998 On ch=3 n=g5 v=0
195000 On ch=3 n=f#5 v=31
195118 On ch=3 n=f#5 v=0
195842 On ch=3 n=g5 v=31
196078 On ch=3 n=g5 v=0
196202 On ch=3 n=f#5 v=31
196318 On ch=3 n=f#5 v=0
196320 On ch=3 n=g5 v=31
196438 On ch=3 n=g5 v=0
196440 On ch=3 n=f#5 v=31
196558 On ch=3 n=f#5 v=0
196560 On ch=3 n=g5 v=31
196678 On ch=3 n=g5 v=0
196680 On ch=3 n=f#5 v=31
196798 On ch=3 n=f#5 v=0
196800 On ch=3 n=g5 v=31
197038 On ch=3 n=g5 v=0
197282 On ch=3 n=b6 v=105
197398 On ch=3 n=b6 v=0
197522 On ch=3 n=b6 v=105
197638 On ch=3 n=b6 v=0
197762 On ch=3 n=b6 v=105
198238 On ch=3 n=b6 v=0
211402 On ch=3 n=e6 v=81
211678 On ch=3 n=e6 v=0
212322 On ch=3 n=b5 v=81
212638 On ch=3 n=b5 v=0
213282 On ch=3 n=g5 v=81
213598 On ch=3 n=g5 v=0
220802 On ch=3 n=d5 v=31
221038 On ch=3 n=d5 v=0
221040 On ch=3 n=d5 v=31
221278 On ch=3 n=d5 v=0
221280 On ch=3 n=d5 v=31
221518 On ch=3 n=d5 v=0
221520 On ch=3 n=d5 v=31
221758 On ch=3 n=d5 v=0
222722 On ch=3 n=d5 v=31
222958 On ch=3 n=d5 v=0
222960 On ch=3 n=d5 v=31
223198 On ch=3 n=d5 v=0
223200 On ch=3 n=d5 v=31
223438 On ch=3 n=d5 v=0
223440 On ch=3 n=d5 v=31
223678 On ch=3 n=d5 v=0
224642 On ch=3 n=d5 v=31
224878 On ch=3 n=d5 v=0
224880 On ch=3 n=d5 v=31
225118 On ch=3 n=d5 v=0
225120 On ch=3 n=d5 v=31
225358 On ch=3 n=d5 v=0
225360 On ch=3 n=d5 v=31
225598 On ch=3 n=d5 v=0
226562 On ch=3 n=c5 v=31
226798 On ch=3 n=c5 v=0
226800 On ch=3 n=c5 v=31
227038 On ch=3 n=c5 v=0
227040 On ch=3 n=d5 v=31
227278 On ch=3 n=d5 v=0
227280 On ch=3 n=d5 v=31
227518 On ch=3 n=d5 v=0
227520 On ch=3 n=d#5 v=31
227758 On ch=3 n=d#5 v=0
227760 On ch=3 n=d#5 v=31
227998 On ch=3 n=d#5 v=0
228000 On ch=3 n=b4 v=31
228238 On ch=3 n=b4 v=0
228240 On ch=3 n=b4 v=31
228478 On ch=3 n=b4 v=0
228480 On ch=3 n=c5 v=31
228958 On ch=3 n=c5 v=0
236162 On ch=3 n=c6 v=31
236638 On ch=3 n=c6 v=0
236640 On ch=3 n=g5 v=31
237118 On ch=3 n=g5 v=0
237120 On ch=3 n=e5 v=31
237598 On ch=3 n=e5 v=0
237600 On ch=3 n=a5 v=31
238078 On ch=3 n=a5 v=0
238080 On ch=3 n=d5 v=31
238558 On ch=3 n=d5 v=0
238560 On ch=3 n=g5 v=31
239038 On ch=3 n=g5 v=0
239040 On ch=3 n=c5 v=31
239518 On ch=3 n=c5 v=0
239520 On ch=3 n=e6 v=31
240478 On ch=3 n=e6 v=0
240480 On ch=3 n=d6 v=31
241438 On ch=3 n=d6 v=0
241440 On ch=3 n=c6 v=31
242398 On ch=3 n=c6 v=0
242400 On ch=3 n=b5 v=31
242878 On ch=3 n=b5 v=0
242880 On ch=3 n=c6 v=31
243358 On ch=3 n=c6 v=0
243360 On ch=3 n=g5 v=31
243838 On ch=3 n=g5 v=0
243840 On ch=3 n=a5 v=31
244318 On ch=3 n=a5 v=0
244320 On ch=3 n=a5 v=31
244798 On ch=3 n=a5 v=0
244800 On ch=3 n=g5 v=31
245278 On ch=3 n=g5 v=0
253442 On ch=3 n=f5 v=81
254398 On ch=3 n=f5 v=0
271322 On ch=3 n=g5 v=81
271678 On ch=3 n=g5 v=0
271802 On ch=3 n=g5 v=81
272158 On ch=3 n=g5 v=0
272282 On ch=3 n=g5 v=81
272638 On ch=3 n=g5 v=0
272640 On ch=3 n=a5 v=81
272878 On ch=3 n=a5 v=0
275162 On ch=3 n=g5 v=81
275518 On ch=3 n=g5 v=0
275642 On ch=3 n=g5 v=81
275998 On ch=3 n=g5 v=0
276122 On ch=3 n=g5 v=81
276478 On ch=3 n=g5 v=0
276480 On ch=3 n=a5 v=81
276718 On ch=3 n=a5 v=0
283322 On ch=3 n=f5 v=105
284158 On ch=3 n=f5 v=0
284160 On ch=3 n=c5 v=31
284398 On ch=3 n=c5 v=0
284400 On ch=3 n=c5 v=31
284638 On ch=3 n=c5 v=0
284640 On ch=3 n=c5 v=31
284878 On ch=3 n=c5 v=0
284880 On ch=3 n=c5 v=31
285118 On ch=3 n=c5 v=0
285120 On ch=3 n=c5 v=31
285358 On ch=3 n=c5 v=0
285360 On ch=3 n=c5 v=31
285598 On ch=3 n=c5 v=0
285600 On ch=3 n=c5 v=31
285838 On ch=3 n=c5 v=0
285840 On ch=3 n=c5 v=31
286078 On ch=3 n=c5 v=0
286080 On ch=3 n=d5 v=31
286318 On ch=3 n=d5 v=0
286320 On ch=3 n=d5 v=31
286558 On ch=3 n=d5 v=0
286560 On ch=3 n=d5 v=31
286798 On ch=3 n=d5 v=0
286800 On ch=3 n=d5 v=31
287038 On ch=3 n=d5 v=0
287040 On ch=3 n=d5 v=31
287278 On ch=3 n=d5 v=0
287280 On ch=3 n=d5 v=31
287518 On ch=3 n=d5 v=0
287520 On ch=3 n=d5 v=31
287758 On ch=3 n=d5 v=0
287760 On ch=3 n=d5 v=31
287998 On ch=3 n=d5 v=0
288000 On ch=3 n=c5 v=19
288238 On ch=3 n=c5 v=0
288240 On ch=3 n=c5 v=19
288478 On ch=3 n=c5 v=0
288480 On ch=3 n=c5 v=19
288718 On ch=3 n=c5 v=0
288720 On ch=3 n=c5 v=19
288958 On ch=3 n=c5 v=0
288960 On ch=3 n=c5 v=19
289198 On ch=3 n=c5 v=0
289200 On ch=3 n=c5 v=19
289438 On ch=3 n=c5 v=0
289440 On ch=3 n=c5 v=19
289678 On ch=3 n=c5 v=0
289680 On ch=3 n=c5 v=19
289918 On ch=3 n=c5 v=0
289920 On ch=3 n=d5 v=19
290158 On ch=3 n=d5 v=0
290160 On ch=3 n=d5 v=19
290398 On ch=3 n=d5 v=0
290400 On ch=3 n=d5 v=19
290638 On ch=3 n=d5 v=0
290640 On ch=3 n=d5 v=19
290878 On ch=3 n=d5 v=0
290880 On ch=3 n=d5 v=19
291118 On ch=3 n=d5 v=0
291120 On ch=3 n=d5 v=19
291358 On ch=3 n=d5 v=0
291360 On ch=3 n=d5 v=19
291598 On ch=3 n=d5 v=0
291600 On ch=3 n=d5 v=19
291838 On ch=3 n=d5 v=0
291840 On ch=3 n=c5 v=19
292318 On ch=3 n=c5 v=0
292802 On ch=3 n=d5 v=19
293278 On ch=3 n=d5 v=0
293762 On ch=3 n=c5 v=19
293878 On ch=3 n=c5 v=0
298722 On ch=3 n=d6 v=105
299038 On ch=3 n=d6 v=0
299520 Par ch=3 c=64 v=127
299722 On ch=3 n=e6 v=105
299998 On ch=3 n=e6 v=0
300958 Par ch=3 c=64 v=0
310084 On ch=3 n=a#5 v=63
310560 On ch=3 n=a#5 v=0
312004 On ch=3 n=c5 v=31
313440 On ch=3 n=c5 v=0
326404 On ch=3 n=f5 v=19
327840 On ch=3 n=f5 v=0
327842 On ch=3 n=e5 v=19
329280 On ch=3 n=e5 v=0
329282 On ch=3 n=a5 v=31
329400 On ch=3 n=a5 v=0
329402 On ch=3 n=g#5 v=31
329520 On ch=3 n=g#5 v=0
329522 On ch=3 n=a5 v=31
329640 On ch=3 n=a5 v=0
329642 On ch=3 n=b5 v=31
329760 On ch=3 n=b5 v=0
329762 On ch=3 n=a5 v=31
330240 On ch=3 n=a5 v=0
330242 On ch=3 n=g5 v=31
330600 On ch=3 n=g5 v=0
336244 On ch=3 n=f5 v=31
336480 On ch=3 n=f5 v=0
336482 On ch=3 n=e5 v=31
336960 On ch=3 n=e5 v=0
339364 On ch=3 n=c5 v=19
339600 On ch=3 n=c5 v=0
339602 On ch=3 n=c5 v=19
339840 On ch=3 n=c5 v=0
339842 On ch=3 n=c5 v=19
340080 On ch=3 n=c5 v=0
340082 On ch=3 n=c5 v=19
340320 On ch=3 n=c5 v=0
340322 On ch=3 n=c5 v=19
340560 On ch=3 n=c5 v=0
340562 On ch=3 n=c5 v=19
340800 On ch=3 n=c5 v=0
340802 On ch=3 n=d5 v=19
341040 On ch=3 n=d5 v=0
341042 On ch=3 n=d5 v=19
341280 On ch=3 n=d5 v=0
341282 On ch=3 n=d5 v=19
341520 On ch=3 n=d5 v=0
341522 On ch=3 n=d5 v=19
341760 On ch=3 n=d5 v=0
341762 On ch=3 n=d5 v=19
342000 On ch=3 n=d5 v=0
342002 On ch=3 n=d5 v=19
342240 On ch=3 n=d5 v=0
342242 On ch=3 n=c5 v=19
342480 On ch=3 n=c5 v=0
342482 On ch=3 n=c5 v=19
342720 On ch=3 n=c5 v=0
353764 On ch=3 n=d5 v=19
353880 On ch=3 n=d5 v=0
353882 On ch=3 n=c#5 v=19
354000 On ch=3 n=c#5 v=0
354002 On ch=3 n=d5 v=63
354120 On ch=3 n=d5 v=0
354122 On ch=3 n=e5 v=63
354240 On ch=3 n=e5 v=0
354242 On ch=3 n=e5 v=63
354360 On ch=3 n=e5 v=0
354362 On ch=3 n=c#5 v=63
354480 On ch=3 n=c#5 v=0
354482 On ch=3 n=d5 v=47
354600 On ch=3 n=d5 v=0
354602 On ch=3 n=e5 v=47
354720 On ch=3 n=e5 v=0
354722 On ch=3 n=d5 v=47
354840 On ch=3 n=d5 v=0
354842 On ch=3 n=f5 v=47
354960 On ch=3 n=f5 v=0
354962 On ch=3 n=e5 v=47
355080 On ch=3 n=e5 v=0
355082 On ch=3 n=d5 v=47
355200 On ch=3 n=d5 v=0
355202 On ch=3 n=c5 v=47
355680 On ch=3 n=c5 v=0
355682 On ch=3 n=c#5 v=47
356640 On ch=3 n=c#5 v=0
356642 On ch=3 n=d5 v=19
357120 On ch=3 n=d5 v=0
357122 On ch=3 n=d#5 v=19
358080 On ch=3 n=d#5 v=0
358082 On ch=3 n=e5 v=19
359520 On ch=3 n=e5 v=0
368644 On ch=3 n=a#5 v=63
368880 On ch=3 n=a#5 v=0
369604 On ch=3 n=c5 v=47
370320 On ch=3 n=c5 v=0
379684 On ch=3 n=g#4 v=47
380160 On ch=3 n=g#4 v=0
380162 On ch=3 n=a#4 v=47
380880 On ch=3 n=a#4 v=0
380882 On ch=3 n=b4 v=47
381120 On ch=3 n=b4 v=0
400804 On ch=3 n=d6 v=31
401040 On ch=3 n=d6 v=0
411846 On ch=3 n=c5 v=31
412082 On ch=3 n=c5 v=0
412326 On ch=3 n=d5 v=31
412562 On ch=3 n=d5 v=0
412806 On ch=3 n=e5 v=31
413042 On ch=3 n=e5 v=0
413286 On ch=3 n=f5 v=31
414722 On ch=3 n=f5 v=0
414724 On ch=3 n=d5 v=31
416162 On ch=3 n=d5 v=0
416164 On ch=3 n=g5 v=31
416402 On ch=3 n=g5 v=0
416646 On ch=3 n=g5 v=47
416882 On ch=3 n=g5 v=0
417126 On ch=3 n=g5 v=47
417362 On ch=3 n=g5 v=0
417606 On ch=3 n=g5 v=63
417842 On ch=3 n=g5 v=0
419046 On ch=3 n=g5 v=19
419282 On ch=3 n=g5 v=0
419526 On ch=3 n=g5 v=19
419762 On ch=3 n=g5 v=0
420006 On ch=3 n=g5 v=19
420242 On ch=3 n=g5 v=0
420486 On ch=3 n=g5 v=19
420722 On ch=3 n=g5 v=0
421926 On ch=3 n=c6 v=31
422162 On ch=3 n=c6 v=0
422406 On ch=3 n=d6 v=31
422642 On ch=3 n=d6 v=0
422886 On ch=3 n=e6 v=31
423122 On ch=3 n=e6 v=0
423366 On ch=3 n=f6 v=31
424802 On ch=3 n=f6 v=0
424804 On ch=3 n=d#6 v=63
426242 On ch=3 n=d#6 v=0
427686 On ch=3 n=c5 v=31
427922 On ch=3 n=c5 v=0
428166 On ch=3 n=d5 v=31
428402 On ch=3 n=d5 v=0
428646 On ch=3 n=e5 v=31
428882 On ch=3 n=e5 v=0
429126 On ch=3 n=f5 v=31
430562 On ch=3 n=f5 v=0
430564 On ch=3 n=d5 v=47
430802 On ch=3 n=d5 v=0
431046 On ch=3 n=d5 v=47
431282 On ch=3 n=d5 v=0
431526 On ch=3 n=d5 v=47
431762 On ch=3 n=d5 v=0
432006 On ch=3 n=c5 v=47
432242 On ch=3 n=c5 v=0
432486 On ch=3 n=c5 v=47
432722 On ch=3 n=c5 v=0
432966 On ch=3 n=c5 v=47
433202 On ch=3 n=c5 v=0
433446 On ch=3 n=c5 v=47
433682 On ch=3 n=c5 v=0
433926 On ch=3 n=c5 v=47
434162 On ch=3 n=c5 v=0
434406 On ch=3 n=c5 v=47
434882 On ch=3 n=c5 v=0
434884 On ch=3 n=b4 v=47
435122 On ch=3 n=b4 v=0
439686 On ch=3 n=b5 v=31
440162 On ch=3 n=b5 v=0
440164 On ch=3 n=a5 v=31
440642 On ch=3 n=a5 v=0
440644 On ch=3 n=g5 v=31
441122 On ch=3 n=g5 v=0
446406 On ch=3 n=c5 v=31
446642 On ch=3 n=c5 v=0
446886 On ch=3 n=d5 v=31
447122 On ch=3 n=d5 v=0
447366 On ch=3 n=e5 v=31
447602 On ch=3 n=e5 v=0
447846 On ch=3 n=f5 v=31
449282 On ch=3 n=f5 v=0
449284 On ch=3 n=d5 v=31
450722 On ch=3 n=d5 v=0
450724 On ch=3 n=g5 v=31
450962 On ch=3 n=g5 v=0
451206 On ch=3 n=g5 v=47
451442 On ch=3 n=g5 v=0
451686 On ch=3 n=g5 v=47
451922 On ch=3 n=g5 v=0
452166 On ch=3 n=g5 v=63
452402 On ch=3 n=g5 v=0
453606 On ch=3 n=g5 v=19
453842 On ch=3 n=g5 v=0
454086 On ch=3 n=g5 v=19
454322 On ch=3 n=g5 v=0
454566 On ch=3 n=g5 v=19
454802 On ch=3 n=g5 v=0
455046 On ch=3 n=g5 v=19
455282 On ch=3 n=g5 v=0
456486 On ch=3 n=c6 v=31
456722 On ch=3 n=c6 v=0
456966 On ch=3 n=d6 v=31
457202 On ch=3 n=d6 v=0
457446 On ch=3 n=e6 v=31
457682 On ch=3 n=e6 v=0
457926 On ch=3 n=f6 v=31
459362 On ch=3 n=f6 v=0
459364 On ch=3 n=d#6 v=63
460802 On ch=3 n=d#6 v=0
462246 On ch=3 n=c5 v=31
462482 On ch=3 n=c5 v=0
462726 On ch=3 n=d5 v=31
462962 On ch=3 n=d5 v=0
463206 On ch=3 n=e5 v=31
463442 On ch=3 n=e5 v=0
463686 On ch=3 n=f5 v=31
465122 On ch=3 n=f5 v=0
465124 On ch=3 n=d5 v=47
465362 On ch=3 n=d5 v=0
465606 On ch=3 n=d5 v=47
465842 On ch=3 n=d5 v=0
466086 On ch=3 n=d5 v=47
466322 On ch=3 n=d5 v=0
466566 On ch=3 n=c5 v=47
466802 On ch=3 n=c5 v=0
467046 On ch=3 n=c5 v=47
467282 On ch=3 n=c5 v=0
467526 On ch=3 n=c5 v=47
467762 On ch=3 n=c5 v=0
468006 On ch=3 n=c5 v=47
468242 On ch=3 n=c5 v=0
468486 On ch=3 n=c5 v=47
468722 On ch=3 n=c5 v=0
468966 On ch=3 n=c5 v=47
469442 On ch=3 n=c5 v=0
469444 On ch=3 n=b4 v=47
469682 On ch=3 n=b4 v=0
474246 On ch=3 n=b5 v=31
474722 On ch=3 n=b5 v=0
474724 On ch=3 n=a5 v=31
475202 On ch=3 n=a5 v=0
475204 On ch=3 n=g5 v=31
475682 On ch=3 n=g5 v=0
484806 On ch=3 n=g5 v=19
485042 On ch=3 n=g5 v=0
485286 On ch=3 n=a5 v=19
485522 On ch=3 n=a5 v=0
485766 On ch=3 n=b5 v=19
486002 On ch=3 n=b5 v=0
486246 On ch=3 n=c#6 v=19
486482 On ch=3 n=c#6 v=0
486726 On ch=3 n=d6 v=19
486962 On ch=3 n=d6 v=0
487206 On ch=3 n=d6 v=19
487442 On ch=3 n=d6 v=0
487444 On ch=3 n=c#6 v=19
487682 On ch=3 n=c#6 v=0
487684 On ch=3 n=d6 v=19
488162 On ch=3 n=d6 v=0
488164 On ch=3 n=d6 v=19
488402 On ch=3 n=d6 v=0
488646 On ch=3 n=d6 v=31
488882 On ch=3 n=d6 v=0
488884 On ch=3 n=c#6 v=31
489122 On ch=3 n=c#6 v=0
489124 On ch=3 n=d6 v=31
489602 On ch=3 n=d6 v=0
489604 On ch=3 n=d6 v=31
489842 On ch=3 n=d6 v=0
490086 On ch=3 n=d6 v=47
490322 On ch=3 n=d6 v=0
490324 On ch=3 n=c#6 v=47
490562 On ch=3 n=c#6 v=0
490564 On ch=3 n=d6 v=47
491042 On ch=3 n=d6 v=0
491044 On ch=3 n=d6 v=47
491282 On ch=3 n=d6 v=0
491526 On ch=3 n=d6 v=47
491762 On ch=3 n=d6 v=0
491764 On ch=3 n=c#6 v=47
492002 On ch=3 n=c#6 v=0
492004 On ch=3 n=d6 v=47
492482 On ch=3 n=d6 v=0
492484 On ch=3 n=c#6 v=47
492962 On ch=3 n=c#6 v=0
492964 On ch=3 n=c#6 v=31
493442 On ch=3 n=c#6 v=0
493444 On ch=3 n=b5 v=31
493922 On ch=3 n=b5 v=0
493924 On ch=3 n=a5 v=31
494402 On ch=3 n=a5 v=0
518446 On ch=3 n=c6 v=81
519362 On ch=3 n=c6 v=0
521326 On ch=3 n=c6 v=81
522242 On ch=3 n=c6 v=0
524206 On ch=3 n=c6 v=81
525122 On ch=3 n=c6 v=0
525646 On ch=3 n=d6 v=81
526562 On ch=3 n=d6 v=0
537126 On ch=3 n=c5 v=19
537362 On ch=3 n=c5 v=0
537606 On ch=3 n=d5 v=19
537842 On ch=3 n=d5 v=0
538086 On ch=3 n=d#5 v=19
538322 On ch=3 n=d#5 v=0
538566 On ch=3 n=f5 v=19
540002 On ch=3 n=f5 v=0
541446 On ch=3 n=c5 v=63
541922 On ch=3 n=c5 v=0
541924 On ch=3 n=d5 v=63
542402 On ch=3 n=d5 v=0
542404 On ch=3 n=e5 v=63
542882 On ch=3 n=e5 v=0
542884 On ch=3 n=f5 v=63
544322 On ch=3 n=f5 v=0
544324 On ch=3 n=d#5 v=63
545762 On ch=3 n=d#5 v=0
548646 On ch=3 n=d6 v=63
548882 On ch=3 n=d6 v=0
550086 On ch=3 n=d6 v=63
550322 On ch=3 n=d6 v=0
550566 On ch=3 n=d6 v=63
550802 On ch=3 n=d6 v=0
550804 On ch=3 n=c#6 v=63
551042 On ch=3 n=c#6 v=0
551044 On ch=3 n=d6 v=63
551522 On ch=3 n=d6 v=0
551566 On ch=3 n=c6 v=63
552482 On ch=3 n=c6 v=0
554446 On ch=3 n=c7 v=105
555362 On ch=3 n=c7 v=0
557326 On ch=3 n=c7 v=105
558242 On ch=3 n=c7 v=0
558726 On ch=3 n=d7 v=105
559682 On ch=3 n=d7 v=0
560166 On ch=3 n=e7 v=81
561122 On ch=3 n=e7 v=0
561124 On ch=3 n=f6 v=81
561602 On ch=3 n=f6 v=0
561646 On ch=3 n=c6 v=81
562562 On ch=3 n=c6 v=0
564526 On ch=3 n=c6 v=81
565442 On ch=3 n=c6 v=0
567406 On ch=3 n=c6 v=81
568322 On ch=3 n=c6 v=0
568806 On ch=3 n=d6 v=81
569762 On ch=3 n=d6 v=0
572166 On ch=3 n=e5 v=19
572642 On ch=3 n=e5 v=0
572644 On ch=3 n=d5 v=19
573122 On ch=3 n=d5 v=0
573124 On ch=3 n=c5 v=19
573602 On ch=3 n=c5 v=0
576486 On ch=3 n=e6 v=105
576722 On ch=3 n=e6 v=0
576966 On ch=3 n=e6 v=105
577202 On ch=3 n=e6 v=0
577446 On ch=3 n=e6 v=105
577922 On ch=3 n=e6 v=0
582726 On ch=3 n=g5 v=19
582962 On ch=3 n=g5 v=0
583206 On ch=3 n=a5 v=19
583442 On ch=3 n=a5 v=0
583686 On ch=3 n=b5 v=19
583922 On ch=3 n=b5 v=0
584166 On ch=3 n=c#6 v=19
584402 On ch=3 n=c#6 v=0
584646 On ch=3 n=d6 v=19
584882 On ch=3 n=d6 v=0
585126 On ch=3 n=d6 v=19
585362 On ch=3 n=d6 v=0
585364 On ch=3 n=c#6 v=19
585602 On ch=3 n=c#6 v=0
585604 On ch=3 n=d6 v=19
586082 On ch=3 n=d6 v=0
586084 On ch=3 n=d6 v=19
586322 On ch=3 n=d6 v=0
586566 On ch=3 n=d6 v=31
586802 On ch=3 n=d6 v=0
586804 On ch=3 n=c#6 v=31
587042 On ch=3 n=c#6 v=0
587044 On ch=3 n=d6 v=31
587522 On ch=3 n=d6 v=0
587524 On ch=3 n=d6 v=31
587762 On ch=3 n=d6 v=0
588006 On ch=3 n=d6 v=47
588242 On ch=3 n=d6 v=0
588244 On ch=3 n=c#6 v=47
588482 On ch=3 n=c#6 v=0
588484 On ch=3 n=d6 v=47
588962 On ch=3 n=d6 v=0
588964 On ch=3 n=d6 v=47
589202 On ch=3 n=d6 v=0
589446 On ch=3 n=d6 v=47
589682 On ch=3 n=d6 v=0
589684 On ch=3 n=c#6 v=47
589922 On ch=3 n=c#6 v=0
589924 On ch=3 n=d6 v=47
590402 On ch=3 n=d6 v=0
590404 On ch=3 n=c#6 v=47
590882 On ch=3 n=c#6 v=0
590884 On ch=3 n=c#6 v=31
591362 On ch=3 n=c#6 v=0
591364 On ch=3 n=b5 v=31
591842 On ch=3 n=b5 v=0
591844 On ch=3 n=a5 v=31
592322 On ch=3 n=a5 v=0
616366 On ch=3 n=c6 v=81
617282 On ch=3 n=c6 v=0
619246 On ch=3 n=c6 v=81
620162 On ch=3 n=c6 v=0
622126 On ch=3 n=c6 v=81
623042 On ch=3 n=c6 v=0
623566 On ch=3 n=d6 v=81
624482 On ch=3 n=d6 v=0
635046 On ch=3 n=c5 v=19
635282 On ch=3 n=c5 v=0
635526 On ch=3 n=d5 v=19
635762 On ch=3 n=d5 v=0
636006 On ch=3 n=d#5 v=19
636242 On ch=3 n=d#5 v=0
636486 On ch=3 n=f5 v=19
637922 On ch=3 n=f5 v=0
639366 On ch=3 n=c5 v=63
639842 On ch=3 n=c5 v=0
639844 On ch=3 n=d5 v=63
640322 On ch=3 n=d5 v=0
640324 On ch=3 n=e5 v=63
640802 On ch=3 n=e5 v=0
640804 On ch=3 n=f5 v=63
642242 On ch=3 n=f5 v=0
642244 On ch=3 n=d#5 v=63
643682 On ch=3 n=d#5 v=0
646566 On ch=3 n=d6 v=63
646802 On ch=3 n=d6 v=0
648006 On ch=3 n=d6 v=63
648242 On ch=3 n=d6 v=0
648486 On ch=3 n=d6 v=63
648722 On ch=3 n=d6 v=0
648724 On ch=3 n=c#6 v=63
648962 On ch=3 n=c#6 v=0
648964 On ch=3 n=d6 v=63
649442 On ch=3 n=d6 v=0
649486 On ch=3 n=c6 v=63
650402 On ch=3 n=c6 v=0
652366 On ch=3 n=c7 v=105
653282 On ch=3 n=c7 v=0
655246 On ch=3 n=c7 v=105
656162 On ch=3 n=c7 v=0
656646 On ch=3 n=d7 v=105
657602 On ch=3 n=d7 v=0
658086 On ch=3 n=e7 v=81
659042 On ch=3 n=e7 v=0
659044 On ch=3 n=f6 v=81
659522 On ch=3 n=f6 v=0
659566 On ch=3 n=c6 v=81
660482 On ch=3 n=c6 v=0
662446 On ch=3 n=c6 v=81
663362 On ch=3 n=c6 v=0
665326 On ch=3 n=c6 v=81
666242 On ch=3 n=c6 v=0
666726 On ch=3 n=d6 v=81
667682 On ch=3 n=d6 v=0
670086 On ch=3 n=e5 v=19
670562 On ch=3 n=e5 v=0
670564 On ch=3 n=d5 v=19
671042 On ch=3 n=d5 v=0
671044 On ch=3 n=c5 v=19
671522 On ch=3 n=c5 v=0
674406 On ch=3 n=e6 v=105
674642 On ch=3 n=e6 v=0
674886 On ch=3 n=e6 v=105
675122 On ch=3 n=e6 v=0
675366 On ch=3 n=e6 v=105
675842 On ch=3 n=e6 v=0
675842 Meta TrkEnd
TrkEnd
MTrk
0 SeqSpec 43 00 01 00
0 Meta TrkName "Step recorded by Don Stones "
0 Meta 0x21 00
0 PrCh ch=4 p=0
0 PrCh ch=4 p=0
0 Par ch=4 c=7 v=127
1202 On ch=4 n=c4 v=35
1318 On ch=4 n=c4 v=0
1442 On ch=4 n=c3 v=35
1558 On ch=4 n=c3 v=0
2162 On ch=4 n=c4 v=35
2278 On ch=4 n=c4 v=0
2402 On ch=4 n=c3 v=35
2518 On ch=4 n=c3 v=0
3122 On ch=4 n=c4 v=35
3238 On ch=4 n=c4 v=0
3362 On ch=4 n=c3 v=35
3478 On ch=4 n=c3 v=0
4082 On ch=4 n=b3 v=35
4318 On ch=4 n=b3 v=0
4320 On ch=4 n=c3 v=35
4438 On ch=4 n=c3 v=0
5042 On ch=4 n=c4 v=35
5278 On ch=4 n=c4 v=0
5280 On ch=4 n=c3 v=35
5398 On ch=4 n=c3 v=0
6002 On ch=4 n=c4 v=35
6238 On ch=4 n=c4 v=0
6240 On ch=4 n=c3 v=35
6358 On ch=4 n=c3 v=0
6962 On ch=4 n=c4 v=35
7198 On ch=4 n=c4 v=0
7200 On ch=4 n=c3 v=35
7318 On ch=4 n=c3 v=0
7922 On ch=4 n=c4 v=31
8158 On ch=4 n=c4 v=0
8160 On ch=4 n=c3 v=31
8398 On ch=4 n=c3 v=0
8882 On ch=4 n=c4 v=31
9118 On ch=4 n=c4 v=0
9120 On ch=4 n=c3 v=31
9358 On ch=4 n=c3 v=0
9842 On ch=4 n=c4 v=31
10078 On ch=4 n=c4 v=0
10080 On ch=4 n=c3 v=31
10318 On ch=4 n=c3 v=0
11682 On ch=4 n=c6 v=81
11998 On ch=4 n=c6 v=0
12602 On ch=4 n=g4 v=81
12958 On ch=4 n=g4 v=0
13562 On ch=4 n=c5 v=81
13918 On ch=4 n=c5 v=0
18362 On ch=4 n=c5 v=63
18478 On ch=4 n=c5 v=0
18480 On ch=4 n=d5 v=63
18598 On ch=4 n=d5 v=0
18600 On ch=4 n=e5 v=63
18718 On ch=4 n=e5 v=0
18720 On ch=4 n=f5 v=63
18838 On ch=4 n=f5 v=0
18840 On ch=4 n=g5 v=63
18958 On ch=4 n=g5 v=0
18960 On ch=4 n=g#5 v=63
19078 On ch=4 n=g#5 v=0
19080 On ch=4 n=a5 v=63
19198 On ch=4 n=a5 v=0
19200 On ch=4 n=f5 v=63
19678 On ch=4 n=f5 v=0
19922 On ch=4 n=g5 v=31
20038 On ch=4 n=g5 v=0
20162 On ch=4 n=c5 v=31
20398 On ch=4 n=c5 v=0
20400 On ch=4 n=c5 v=31
20638 On ch=4 n=c5 v=0
20640 On ch=4 n=c5 v=31
20878 On ch=4 n=c5 v=0
20880 On ch=4 n=c5 v=31
21118 On ch=4 n=c5 v=0
21120 On ch=4 n=c5 v=31
21358 On ch=4 n=c5 v=0
21360 On ch=4 n=c5 v=31
21598 On ch=4 n=c5 v=0
21600 On ch=4 n=c5 v=31
21838 On ch=4 n=c5 v=0
21840 On ch=4 n=c5 v=31
22078 On ch=4 n=c5 v=0
22080 On ch=4 n=c5 v=31
22318 On ch=4 n=c5 v=0
22320 On ch=4 n=c5 v=31
22558 On ch=4 n=c5 v=0
22560 On ch=4 n=c5 v=31
22798 On ch=4 n=c5 v=0
22800 On ch=4 n=c5 v=31
23038 On ch=4 n=c5 v=0
23040 On ch=4 n=c5 v=31
23278 On ch=4 n=c5 v=0
23280 On ch=4 n=c5 v=31
23518 On ch=4 n=c5 v=0
23520 On ch=4 n=c5 v=31
23758 On ch=4 n=c5 v=0
23760 On ch=4 n=c5 v=31
23998 On ch=4 n=c5 v=0
24000 On ch=4 n=c5 v=31
24238 On ch=4 n=c5 v=0
24240 On ch=4 n=c5 v=31
24478 On ch=4 n=c5 v=0
24480 On ch=4 n=c5 v=31
24718 On ch=4 n=c5 v=0
24720 On ch=4 n=c5 v=31
24958 On ch=4 n=c5 v=0
24960 On ch=4 n=c5 v=31
25198 On ch=4 n=c5 v=0
25200 On ch=4 n=c5 v=31
25438 On ch=4 n=c5 v=0
25440 On ch=4 n=c5 v=31
25678 On ch=4 n=c5 v=0
25680 On ch=4 n=c5 v=31
25918 On ch=4 n=c5 v=0
25920 On ch=4 n=c5 v=31
26158 On ch=4 n=c5 v=0
26160 On ch=4 n=c5 v=31
26398 On ch=4 n=c5 v=0
26400 On ch=4 n=b4 v=31
26638 On ch=4 n=b4 v=0
26640 On ch=4 n=b4 v=31
26878 On ch=4 n=b4 v=0
26880 On ch=4 n=c5 v=31
27118 On ch=4 n=c5 v=0
27120 On ch=4 n=c5 v=31
27358 On ch=4 n=c5 v=0
27360 On ch=4 n=c5 v=31
27598 On ch=4 n=c5 v=0
27600 On ch=4 n=c5 v=31
27838 On ch=4 n=c5 v=0
27840 On ch=4 n=c5 v=31
28078 On ch=4 n=c5 v=0
28080 On ch=4 n=c5 v=31
28318 On ch=4 n=c5 v=0
28320 On ch=4 n=b4 v=31
28558 On ch=4 n=b4 v=0
28560 On ch=4 n=b4 v=31
28798 On ch=4 n=b4 v=0
46082 On ch=4 n=c#5 v=81
47038 On ch=4 n=c#5 v=0
168962 On ch=4 n=d5 v=105
169918 On ch=4 n=d5 v=0
187682 On ch=4 n=d5 v=31
188158 On ch=4 n=d5 v=0
188642 On ch=4 n=d5 v=31
189118 On ch=4 n=d5 v=0
197282 On ch=4 n=g6 v=105
197398 On ch=4 n=g6 v=0
197522 On ch=4 n=g6 v=105
197638 On ch=4 n=g6 v=0
197762 On ch=4 n=g6 v=105
198238 On ch=4 n=g6 v=0
211362 On ch=4 n=c6 v=81
211678 On ch=4 n=c6 v=0
212282 On ch=4 n=g4 v=81
212638 On ch=4 n=g4 v=0
213242 On ch=4 n=c5 v=81
213598 On ch=4 n=c5 v=0
218042 On ch=4 n=c5 v=63
218158 On ch=4 n=c5 v=0
218160 On ch=4 n=d5 v=63
218278 On ch=4 n=d5 v=0
218280 On ch=4 n=e5 v=63
218398 On ch=4 n=e5 v=0
218400 On ch=4 n=f5 v=63
218518 On ch=4 n=f5 v=0
218520 On ch=4 n=g5 v=63
218638 On ch=4 n=g5 v=0
218640 On ch=4 n=g#5 v=63
218758 On ch=4 n=g#5 v=0
218760 On ch=4 n=a5 v=63
218878 On ch=4 n=a5 v=0
218880 On ch=4 n=f5 v=63
219358 On ch=4 n=f5 v=0
219602 On ch=4 n=g5 v=31
219718 On ch=4 n=g5 v=0
219842 On ch=4 n=c5 v=31
220078 On ch=4 n=c5 v=0
220080 On ch=4 n=c5 v=31
220318 On ch=4 n=c5 v=0
220320 On ch=4 n=c5 v=31
220558 On ch=4 n=c5 v=0
220560 On ch=4 n=c5 v=31
220798 On ch=4 n=c5 v=0
220800 On ch=4 n=c5 v=31
221038 On ch=4 n=c5 v=0
221040 On ch=4 n=c5 v=31
221278 On ch=4 n=c5 v=0
221280 On ch=4 n=c5 v=31
221518 On ch=4 n=c5 v=0
221520 On ch=4 n=c5 v=31
221758 On ch=4 n=c5 v=0
221760 On ch=4 n=c5 v=31
221998 On ch=4 n=c5 v=0
222000 On ch=4 n=c5 v=31
222238 On ch=4 n=c5 v=0
222240 On ch=4 n=c5 v=31
222478 On ch=4 n=c5 v=0
222480 On ch=4 n=c5 v=31
222718 On ch=4 n=c5 v=0
222720 On ch=4 n=c5 v=31
222958 On ch=4 n=c5 v=0
222960 On ch=4 n=c5 v=31
223198 On ch=4 n=c5 v=0
223200 On ch=4 n=c5 v=31
223438 On ch=4 n=c5 v=0
223440 On ch=4 n=c5 v=31
223678 On ch=4 n=c5 v=0
223680 On ch=4 n=c5 v=31
223918 On ch=4 n=c5 v=0
223920 On ch=4 n=c5 v=31
224158 On ch=4 n=c5 v=0
224160 On ch=4 n=c5 v=31
224398 On ch=4 n=c5 v=0
224400 On ch=4 n=c5 v=31
224638 On ch=4 n=c5 v=0
224640 On ch=4 n=c5 v=31
224878 On ch=4 n=c5 v=0
224880 On ch=4 n=c5 v=31
225118 On ch=4 n=c5 v=0
225120 On ch=4 n=c5 v=31
225358 On ch=4 n=c5 v=0
225360 On ch=4 n=c5 v=31
225598 On ch=4 n=c5 v=0
225600 On ch=4 n=c5 v=31
225838 On ch=4 n=c5 v=0
225840 On ch=4 n=c5 v=31
226078 On ch=4 n=c5 v=0
226080 On ch=4 n=b4 v=31
226318 On ch=4 n=b4 v=0
226320 On ch=4 n=b4 v=31
226558 On ch=4 n=b4 v=0
253442 On ch=4 n=d5 v=81
254398 On ch=4 n=d5 v=0
283282 On ch=4 n=d5 v=105
284158 On ch=4 n=d5 v=0
286082 On ch=4 n=b4 v=19
286318 On ch=4 n=b4 v=0
286320 On ch=4 n=b4 v=19
286558 On ch=4 n=b4 v=0
286560 On ch=4 n=b4 v=19
286798 On ch=4 n=b4 v=0
286800 On ch=4 n=b4 v=19
287038 On ch=4 n=b4 v=0
287040 On ch=4 n=b4 v=19
287278 On ch=4 n=b4 v=0
287280 On ch=4 n=b4 v=19
287518 On ch=4 n=b4 v=0
287520 On ch=4 n=b4 v=19
287758 On ch=4 n=b4 v=0
287760 On ch=4 n=b4 v=19
287998 On ch=4 n=b4 v=0
289922 On ch=4 n=b4 v=19
290158 On ch=4 n=b4 v=0
290160 On ch=4 n=b4 v=19
290398 On ch=4 n=b4 v=0
290400 On ch=4 n=b4 v=19
290638 On ch=4 n=b4 v=0
290640 On ch=4 n=b4 v=19
290878 On ch=4 n=b4 v=0
290880 On ch=4 n=b4 v=19
291118 On ch=4 n=b4 v=0
291120 On ch=4 n=b4 v=19
291358 On ch=4 n=b4 v=0
291360 On ch=4 n=b4 v=19
291598 On ch=4 n=b4 v=0
291600 On ch=4 n=b4 v=19
291838 On ch=4 n=b4 v=0
299520 Par ch=4 c=64 v=127
299998 On ch=4 n=c6 v=105
300314 On ch=4 n=c6 v=0
300958 Par ch=4 c=64 v=100
316804 On ch=4 n=e5 v=47
317760 On ch=4 n=e5 v=0
329284 On ch=4 n=d5 v=31
329880 On ch=4 n=d5 v=0
329882 On ch=4 n=d#5 v=31
330000 On ch=4 n=d#5 v=0
330002 On ch=4 n=d5 v=31
330120 On ch=4 n=d5 v=0
330122 On ch=4 n=c5 v=31
330240 On ch=4 n=c5 v=0
340804 On ch=4 n=b4 v=19
341040 On ch=4 n=b4 v=0
341042 On ch=4 n=b4 v=19
341280 On ch=4 n=b4 v=0
341282 On ch=4 n=b4 v=19
341520 On ch=4 n=b4 v=0
341522 On ch=4 n=b4 v=19
341760 On ch=4 n=b4 v=0
341762 On ch=4 n=b4 v=19
342000 On ch=4 n=b4 v=0
342002 On ch=4 n=b4 v=19
342240 On ch=4 n=b4 v=0
400804 On ch=4 n=b5 v=31
401040 On ch=4 n=b5 v=0
416166 On ch=4 n=e5 v=31
416402 On ch=4 n=e5 v=0
416646 On ch=4 n=d5 v=47
416882 On ch=4 n=d5 v=0
417126 On ch=4 n=c5 v=47
417362 On ch=4 n=c5 v=0
417606 On ch=4 n=b4 v=63
417842 On ch=4 n=b4 v=0
419046 On ch=4 n=f5 v=19
419282 On ch=4 n=f5 v=0
419526 On ch=4 n=e5 v=19
419762 On ch=4 n=e5 v=0
420006 On ch=4 n=d5 v=19
420242 On ch=4 n=d5 v=0
420486 On ch=4 n=c5 v=19
420722 On ch=4 n=c5 v=0
450726 On ch=4 n=e5 v=31
450962 On ch=4 n=e5 v=0
451206 On ch=4 n=d5 v=47
451442 On ch=4 n=d5 v=0
451686 On ch=4 n=c5 v=47
451922 On ch=4 n=c5 v=0
452166 On ch=4 n=b4 v=63
452402 On ch=4 n=b4 v=0
453606 On ch=4 n=f5 v=19
453842 On ch=4 n=f5 v=0
454086 On ch=4 n=e5 v=19
454322 On ch=4 n=e5 v=0
454566 On ch=4 n=d5 v=19
454802 On ch=4 n=d5 v=0
455046 On ch=4 n=c5 v=19
455282 On ch=4 n=c5 v=0
518406 On ch=4 n=g5 v=81
519362 On ch=4 n=g5 v=0
521286 On ch=4 n=g5 v=81
522242 On ch=4 n=g5 v=0
524166 On ch=4 n=g5 v=81
525122 On ch=4 n=g5 v=0
525606 On ch=4 n=a5 v=81
526562 On ch=4 n=a5 v=0
547206 On ch=4 n=c5 v=63
547442 On ch=4 n=c5 v=0
547686 On ch=4 n=d5 v=63
547922 On ch=4 n=d5 v=0
548166 On ch=4 n=e5 v=63
548402 On ch=4 n=e5 v=0
548646 On ch=4 n=f5 v=63
548882 On ch=4 n=f5 v=0
549126 On ch=4 n=f5 v=63
549362 On ch=4 n=f5 v=0
549364 On ch=4 n=e5 v=63
549602 On ch=4 n=e5 v=0
549604 On ch=4 n=f5 v=63
550082 On ch=4 n=f5 v=0
550084 On ch=4 n=g5 v=63
550322 On ch=4 n=g5 v=0
550566 On ch=4 n=g5 v=63
551522 On ch=4 n=g5 v=0
551524 On ch=4 n=g5 v=105
552482 On ch=4 n=g5 v=0
554406 On ch=4 n=g6 v=105
555362 On ch=4 n=g6 v=0
557286 On ch=4 n=g6 v=105
558242 On ch=4 n=g6 v=0
558726 On ch=4 n=a6 v=105
559682 On ch=4 n=a6 v=0
560166 On ch=4 n=g6 v=81
561602 On ch=4 n=g6 v=0
561604 On ch=4 n=g5 v=81
562562 On ch=4 n=g5 v=0
564486 On ch=4 n=g5 v=81
565442 On ch=4 n=g5 v=0
567366 On ch=4 n=g5 v=81
568322 On ch=4 n=g5 v=0
568806 On ch=4 n=a5 v=81
569762 On ch=4 n=a5 v=0
570246 On ch=4 n=e5 v=81
571202 On ch=4 n=e5 v=0
571204 On ch=4 n=f5 v=47
571442 On ch=4 n=f5 v=0
571444 On ch=4 n=e5 v=47
571682 On ch=4 n=e5 v=0
616326 On ch=4 n=g5 v=81
617282 On ch=4 n=g5 v=0
619206 On ch=4 n=g5 v=81
620162 On ch=4 n=g5 v=0
622086 On ch=4 n=g5 v=81
623042 On ch=4 n=g5 v=0
623526 On ch=4 n=a5 v=81
624482 On ch=4 n=a5 v=0
645126 On ch=4 n=c5 v=63
645362 On ch=4 n=c5 v=0
645606 On ch=4 n=d5 v=63
645842 On ch=4 n=d5 v=0
646086 On ch=4 n=e5 v=63
646322 On ch=4 n=e5 v=0
646566 On ch=4 n=f5 v=63
646802 On ch=4 n=f5 v=0
647046 On ch=4 n=f5 v=63
647282 On ch=4 n=f5 v=0
647284 On ch=4 n=e5 v=63
647522 On ch=4 n=e5 v=0
647524 On ch=4 n=f5 v=63
648002 On ch=4 n=f5 v=0
648004 On ch=4 n=g5 v=63
648242 On ch=4 n=g5 v=0
648486 On ch=4 n=g5 v=63
649442 On ch=4 n=g5 v=0
649444 On ch=4 n=g5 v=105
650402 On ch=4 n=g5 v=0
652326 On ch=4 n=g6 v=105
653282 On ch=4 n=g6 v=0
655206 On ch=4 n=g6 v=105
656162 On ch=4 n=g6 v=0
656646 On ch=4 n=a6 v=105
657602 On ch=4 n=a6 v=0
658086 On ch=4 n=g6 v=81
659522 On ch=4 n=g6 v=0
659524 On ch=4 n=g5 v=81
660482 On ch=4 n=g5 v=0
662406 On ch=4 n=g5 v=81
663362 On ch=4 n=g5 v=0
665286 On ch=4 n=g5 v=81
666242 On ch=4 n=g5 v=0
666726 On ch=4 n=a5 v=81
667682 On ch=4 n=a5 v=0
668166 On ch=4 n=e5 v=81
669122 On ch=4 n=e5 v=0
669124 On ch=4 n=f5 v=47
669362 On ch=4 n=f5 v=0
669364 On ch=4 n=e5 v=47
669602 On ch=4 n=e5 v=0
669602 Meta TrkEnd
TrkEnd
MTrk
0 SeqSpec 43 00 01 00
0 Meta TrkName "1.Allegro 2.Adagio (Bar158)"
0 Meta 0x21 00
0 PrCh ch=5 p=0
0 PrCh ch=5 p=0
0 Par ch=5 c=7 v=127
11642 On ch=5 n=c4 v=63
11998 On ch=5 n=c4 v=0
12562 On ch=5 n=d4 v=63
12958 On ch=5 n=d4 v=0
13522 On ch=5 n=g4 v=63
13918 On ch=5 n=g4 v=0
17402 On ch=5 n=d5 v=47
17518 On ch=5 n=d5 v=0
17520 On ch=5 n=c#5 v=47
17638 On ch=5 n=c#5 v=0
17640 On ch=5 n=d5 v=47
17758 On ch=5 n=d5 v=0
17760 On ch=5 n=c5 v=47
17878 On ch=5 n=c5 v=0
17880 On ch=5 n=b4 v=47
17998 On ch=5 n=b4 v=0
18000 On ch=5 n=a4 v=47
18118 On ch=5 n=a4 v=0
32882 On ch=5 n=g4 v=47
33118 On ch=5 n=g4 v=0
33362 On ch=5 n=g4 v=47
33598 On ch=5 n=g4 v=0
33842 On ch=5 n=g4 v=47
34078 On ch=5 n=g4 v=0
34802 On ch=5 n=g4 v=47
35038 On ch=5 n=g4 v=0
35282 On ch=5 n=g4 v=47
35518 On ch=5 n=g4 v=0
35762 On ch=5 n=g4 v=47
35998 On ch=5 n=g4 v=0
36842 On ch=5 n=f#4 v=31
36958 On ch=5 n=f#4 v=0
36960 On ch=5 n=g4 v=31
37078 On ch=5 n=g4 v=0
37080 On ch=5 n=f#4 v=31
37198 On ch=5 n=f#4 v=0
37200 On ch=5 n=g4 v=31
37318 On ch=5 n=g4 v=0
37320 On ch=5 n=f#4 v=31
37438 On ch=5 n=f#4 v=0
37440 On ch=5 n=g4 v=31
37678 On ch=5 n=g4 v=0
38402 On ch=5 n=g4 v=63
38518 On ch=5 n=g4 v=0
38882 On ch=5 n=d4 v=63
38998 On ch=5 n=d4 v=0
39362 On ch=5 n=b3 v=63
39478 On ch=5 n=b3 v=0
40082 On ch=5 n=e4 v=63
40198 On ch=5 n=e4 v=0
40322 On ch=5 n=a3 v=63
40438 On ch=5 n=a3 v=0
41042 On ch=5 n=d4 v=63
41158 On ch=5 n=d4 v=0
41282 On ch=5 n=g3 v=63
41758 On ch=5 n=g3 v=0
42002 On ch=5 n=e5 v=63
42238 On ch=5 n=e5 v=0
42240 On ch=5 n=f#4 v=63
42478 On ch=5 n=f#4 v=0
42962 On ch=5 n=d5 v=47
43198 On ch=5 n=d5 v=0
43200 On ch=5 n=e4 v=47
43438 On ch=5 n=e4 v=0
43922 On ch=5 n=c5 v=47
44638 On ch=5 n=c5 v=0
44640 On ch=5 n=b4 v=47
45118 On ch=5 n=b4 v=0
45120 On ch=5 n=f#4 v=47
45598 On ch=5 n=f#4 v=0
45600 On ch=5 n=g4 v=47
46078 On ch=5 n=g4 v=0
46080 On ch=5 n=g4 v=81
47038 On ch=5 n=g4 v=0
47522 On ch=5 n=d5 v=81
47638 On ch=5 n=d5 v=0
47640 On ch=5 n=c#5 v=81
47758 On ch=5 n=c#5 v=0
47760 On ch=5 n=b4 v=81
47878 On ch=5 n=b4 v=0
47880 On ch=5 n=a4 v=81
47998 On ch=5 n=a4 v=0
48000 On ch=5 n=g4 v=81
48958 On ch=5 n=g4 v=0
48960 On ch=5 n=f#4 v=81
49078 On ch=5 n=f#4 v=0
49080 On ch=5 n=g4 v=47
49198 On ch=5 n=g4 v=0
49200 On ch=5 n=a4 v=47
49318 On ch=5 n=a4 v=0
49320 On ch=5 n=g4 v=47
49438 On ch=5 n=g4 v=0
49440 On ch=5 n=b4 v=47
49558 On ch=5 n=b4 v=0
49560 On ch=5 n=a4 v=47
49678 On ch=5 n=a4 v=0
49680 On ch=5 n=c5 v=47
49798 On ch=5 n=c5 v=0
49800 On ch=5 n=b4 v=47
49918 On ch=5 n=b4 v=0
49920 On ch=5 n=d5 v=31
50038 On ch=5 n=d5 v=0
50040 On ch=5 n=c5 v=31
50158 On ch=5 n=c5 v=0
50160 On ch=5 n=a4 v=31
50278 On ch=5 n=a4 v=0
50280 On ch=5 n=f#4 v=31
50398 On ch=5 n=f#4 v=0
50400 On ch=5 n=d4 v=47
50518 On ch=5 n=d4 v=0
50520 On ch=5 n=f#5 v=47
50638 On ch=5 n=f#5 v=0
50640 On ch=5 n=e5 v=47
50758 On ch=5 n=e5 v=0
50760 On ch=5 n=c5 v=47
50878 On ch=5 n=c5 v=0
50880 On ch=5 n=a4 v=63
50998 On ch=5 n=a4 v=0
57722 On ch=5 n=g3 v=30
57838 On ch=5 n=g3 v=0
57840 On ch=5 n=a3 v=30
57958 On ch=5 n=a3 v=0
57960 On ch=5 n=b3 v=30
58078 On ch=5 n=b3 v=0
58080 On ch=5 n=c4 v=30
58198 On ch=5 n=c4 v=0
58200 On ch=5 n=d4 v=30
58318 On ch=5 n=d4 v=0
58320 On ch=5 n=e4 v=30
58438 On ch=5 n=e4 v=0
58440 On ch=5 n=f#4 v=30
58558 On ch=5 n=f#4 v=0
58560 On ch=5 n=g4 v=30
58678 On ch=5 n=g4 v=0
58680 On ch=5 n=f#4 v=30
58798 On ch=5 n=f#4 v=0
58800 On ch=5 n=g4 v=30
58918 On ch=5 n=g4 v=0
58920 On ch=5 n=a4 v=30
59038 On ch=5 n=a4 v=0
59040 On ch=5 n=b4 v=30
59278 On ch=5 n=b4 v=0
65282 On ch=5 n=g4 v=19
65398 On ch=5 n=g4 v=0
65400 On ch=5 n=g5 v=26
65518 On ch=5 n=g5 v=0
65520 On ch=5 n=g4 v=26
65638 On ch=5 n=g4 v=0
65640 On ch=5 n=g5 v=26
65758 On ch=5 n=g5 v=0
65760 On ch=5 n=g4 v=26
65878 On ch=5 n=g4 v=0
65880 On ch=5 n=g5 v=26
65998 On ch=5 n=g5 v=0
66000 On ch=5 n=g4 v=26
66118 On ch=5 n=g4 v=0
66120 On ch=5 n=g5 v=26
66238 On ch=5 n=g5 v=0
66240 On ch=5 n=g4 v=26
66358 On ch=5 n=g4 v=0
66360 On ch=5 n=g5 v=26
66478 On ch=5 n=g5 v=0
66480 On ch=5 n=g4 v=26
66598 On ch=5 n=g4 v=0
66600 On ch=5 n=g5 v=26
66718 On ch=5 n=g5 v=0
66720 On ch=5 n=g4 v=26
66838 On ch=5 n=g4 v=0
66840 On ch=5 n=g5 v=26
66958 On ch=5 n=g5 v=0
66960 On ch=5 n=g4 v=26
67078 On ch=5 n=g4 v=0
67080 On ch=5 n=g5 v=26
67198 On ch=5 n=g5 v=0
67200 On ch=5 n=g4 v=26
67318 On ch=5 n=g4 v=0
67320 On ch=5 n=g5 v=26
67438 On ch=5 n=g5 v=0
67440 On ch=5 n=g4 v=26
67558 On ch=5 n=g4 v=0
67560 On ch=5 n=g5 v=26
67678 On ch=5 n=g5 v=0
67680 On ch=5 n=g4 v=26
67798 On ch=5 n=g4 v=0
67800 On ch=5 n=g5 v=26
67918 On ch=5 n=g5 v=0
67920 On ch=5 n=g4 v=26
68038 On ch=5 n=g4 v=0
68040 On ch=5 n=g5 v=26
68158 On ch=5 n=g5 v=0
68160 On ch=5 n=g4 v=26
68278 On ch=5 n=g4 v=0
68280 On ch=5 n=g5 v=26
68398 On ch=5 n=g5 v=0
68400 On ch=5 n=g4 v=26
68518 On ch=5 n=g4 v=0
68520 On ch=5 n=g5 v=26
68638 On ch=5 n=g5 v=0
68640 On ch=5 n=g4 v=26
68758 On ch=5 n=g4 v=0
68760 On ch=5 n=g5 v=26
68878 On ch=5 n=g5 v=0
68880 On ch=5 n=g4 v=26
68998 On ch=5 n=g4 v=0
69000 On ch=5 n=g5 v=26
69118 On ch=5 n=g5 v=0
69120 On ch=5 n=g4 v=26
69238 On ch=5 n=g4 v=0
69240 On ch=5 n=g5 v=26
69358 On ch=5 n=g5 v=0
69360 On ch=5 n=g4 v=26
69478 On ch=5 n=g4 v=0
69480 On ch=5 n=g5 v=26
69598 On ch=5 n=g5 v=0
69600 On ch=5 n=g4 v=26
69718 On ch=5 n=g4 v=0
69720 On ch=5 n=g5 v=26
69838 On ch=5 n=g5 v=0
69840 On ch=5 n=g4 v=26
69958 On ch=5 n=g4 v=0
69960 On ch=5 n=g5 v=26
70078 On ch=5 n=g5 v=0
70080 On ch=5 n=g4 v=26
70198 On ch=5 n=g4 v=0
70200 On ch=5 n=g5 v=26
70318 On ch=5 n=g5 v=0
70320 On ch=5 n=g4 v=26
70438 On ch=5 n=g4 v=0
70440 On ch=5 n=g5 v=26
70558 On ch=5 n=g5 v=0
70560 On ch=5 n=g4 v=26
70678 On ch=5 n=g4 v=0
70680 On ch=5 n=g5 v=26
70798 On ch=5 n=g5 v=0
70800 On ch=5 n=g4 v=26
70918 On ch=5 n=g4 v=0
70920 On ch=5 n=g5 v=26
71038 On ch=5 n=g5 v=0
71040 On ch=5 n=g4 v=26
71158 On ch=5 n=g4 v=0
71160 On ch=5 n=g5 v=26
71278 On ch=5 n=g5 v=0
71280 On ch=5 n=g4 v=26
71398 On ch=5 n=g4 v=0
71400 On ch=5 n=g5 v=26
71518 On ch=5 n=g5 v=0
71520 On ch=5 n=g4 v=26
71638 On ch=5 n=g4 v=0
71640 On ch=5 n=g5 v=26
71758 On ch=5 n=g5 v=0
71760 On ch=5 n=g4 v=26
71878 On ch=5 n=g4 v=0
71880 On ch=5 n=g5 v=26
71998 On ch=5 n=g5 v=0
72000 On ch=5 n=g4 v=26
72118 On ch=5 n=g4 v=0
72120 On ch=5 n=f5 v=26
72238 On ch=5 n=f5 v=0
72240 On ch=5 n=g4 v=26
72358 On ch=5 n=g4 v=0
72360 On ch=5 n=f5 v=26
72478 On ch=5 n=f5 v=0
72480 On ch=5 n=g4 v=26
72598 On ch=5 n=g4 v=0
72600 On ch=5 n=f5 v=26
72718 On ch=5 n=f5 v=0
72720 On ch=5 n=g4 v=26
72838 On ch=5 n=g4 v=0
72840 On ch=5 n=f5 v=26
72958 On ch=5 n=f5 v=0
72960 On ch=5 n=g4 v=31
73078 On ch=5 n=g4 v=0
73080 On ch=5 n=d#5 v=31
73198 On ch=5 n=d#5 v=0
73200 On ch=5 n=g4 v=31
73318 On ch=5 n=g4 v=0
73320 On ch=5 n=d#5 v=31
73438 On ch=5 n=d#5 v=0
73440 On ch=5 n=g4 v=31
73558 On ch=5 n=g4 v=0
73560 On ch=5 n=d#5 v=31
73678 On ch=5 n=d#5 v=0
73680 On ch=5 n=g4 v=31
73798 On ch=5 n=g4 v=0
73800 On ch=5 n=d#5 v=31
73918 On ch=5 n=d#5 v=0
73920 On ch=5 n=a4 v=31
74038 On ch=5 n=a4 v=0
74040 On ch=5 n=d#5 v=31
74158 On ch=5 n=d#5 v=0
74160 On ch=5 n=a4 v=31
74278 On ch=5 n=a4 v=0
74280 On ch=5 n=d#5 v=31
74398 On ch=5 n=d#5 v=0
74400 On ch=5 n=a4 v=31
74518 On ch=5 n=a4 v=0
74520 On ch=5 n=d#5 v=31
74638 On ch=5 n=d#5 v=0
74640 On ch=5 n=a4 v=31
74758 On ch=5 n=a4 v=0
74760 On ch=5 n=d#5 v=31
74878 On ch=5 n=d#5 v=0
74880 On ch=5 n=b4 v=31
74998 On ch=5 n=b4 v=0
75000 On ch=5 n=d5 v=31
75118 On ch=5 n=d5 v=0
75120 On ch=5 n=b4 v=31
75238 On ch=5 n=b4 v=0
75240 On ch=5 n=d5 v=31
75358 On ch=5 n=d5 v=0
75360 On ch=5 n=b4 v=31
75478 On ch=5 n=b4 v=0
75480 On ch=5 n=g5 v=31
75598 On ch=5 n=g5 v=0
75600 On ch=5 n=b4 v=31
75718 On ch=5 n=b4 v=0
75720 On ch=5 n=g5 v=31
75838 On ch=5 n=g5 v=0
75840 On ch=5 n=c5 v=47
75958 On ch=5 n=c5 v=0
75960 On ch=5 n=g5 v=47
76078 On ch=5 n=g5 v=0
76080 On ch=5 n=c5 v=47
76198 On ch=5 n=c5 v=0
76200 On ch=5 n=g5 v=47
76318 On ch=5 n=g5 v=0
76320 On ch=5 n=c5 v=47
76438 On ch=5 n=c5 v=0
76440 On ch=5 n=g#5 v=47
76558 On ch=5 n=g#5 v=0
76560 On ch=5 n=c5 v=47
76678 On ch=5 n=c5 v=0
76680 On ch=5 n=g#5 v=47
76798 On ch=5 n=g#5 v=0
81202 On ch=5 n=b4 v=63
81358 On ch=5 n=b4 v=0
81682 On ch=5 n=a4 v=63
81838 On ch=5 n=a4 v=0
82162 On ch=5 n=b4 v=63
82318 On ch=5 n=b4 v=0
82562 On ch=5 n=c5 v=63
82798 On ch=5 n=c5 v=0
85042 On ch=5 n=b4 v=81
85198 On ch=5 n=b4 v=0
85522 On ch=5 n=a4 v=81
85678 On ch=5 n=a4 v=0
86002 On ch=5 n=b4 v=81
86158 On ch=5 n=b4 v=0
86402 On ch=5 n=c5 v=81
86638 On ch=5 n=c5 v=0
87842 On ch=5 n=a4 v=81
88318 On ch=5 n=a4 v=0
88320 On ch=5 n=g4 v=81
88438 On ch=5 n=g4 v=0
88562 On ch=5 n=g4 v=63
88638 On ch=5 n=g4 v=0
88640 On ch=5 n=b4 v=63
88718 On ch=5 n=b4 v=0
88720 On ch=5 n=d5 v=63
88798 On ch=5 n=d5 v=0
88800 On ch=5 n=f#4 v=63
88878 On ch=5 n=f#4 v=0
88880 On ch=5 n=a4 v=63
88958 On ch=5 n=a4 v=0
88960 On ch=5 n=d5 v=63
89038 On ch=5 n=d5 v=0
89040 On ch=5 n=g4 v=63
89118 On ch=5 n=g4 v=0
89120 On ch=5 n=b4 v=63
89198 On ch=5 n=b4 v=0
89200 On ch=5 n=d5 v=47
89278 On ch=5 n=d5 v=0
89280 On ch=5 n=c4 v=47
89518 On ch=5 n=c4 v=0
89762 On ch=5 n=e5 v=47
89878 On ch=5 n=e5 v=0
90242 On ch=5 n=e5 v=47
90358 On ch=5 n=e5 v=0
90722 On ch=5 n=e5 v=47
90838 On ch=5 n=e5 v=0
91202 On ch=5 n=e5 v=47
91318 On ch=5 n=e5 v=0
91682 On ch=5 n=e5 v=47
91798 On ch=5 n=e5 v=0
92162 On ch=5 n=b4 v=81
92638 On ch=5 n=b4 v=0
93122 On ch=5 n=d4 v=81
93198 On ch=5 n=d4 v=0
93200 On ch=5 n=f#4 v=81
93278 On ch=5 n=f#4 v=0
93280 On ch=5 n=a4 v=81
93358 On ch=5 n=a4 v=0
94082 On ch=5 n=b4 v=31
94198 On ch=5 n=b4 v=0
94200 On ch=5 n=d5 v=31
94318 On ch=5 n=d5 v=0
94320 On ch=5 n=b4 v=31
94438 On ch=5 n=b4 v=0
94440 On ch=5 n=d5 v=31
94558 On ch=5 n=d5 v=0
94560 On ch=5 n=b4 v=31
94678 On ch=5 n=b4 v=0
94680 On ch=5 n=d5 v=31
94798 On ch=5 n=d5 v=0
94800 On ch=5 n=b4 v=31
94918 On ch=5 n=b4 v=0
94920 On ch=5 n=d5 v=31
95038 On ch=5 n=d5 v=0
95040 On ch=5 n=b4 v=31
95158 On ch=5 n=b4 v=0
95160 On ch=5 n=d5 v=31
95278 On ch=5 n=d5 v=0
95280 On ch=5 n=b4 v=31
95398 On ch=5 n=b4 v=0
95400 On ch=5 n=d5 v=31
95518 On ch=5 n=d5 v=0
95520 On ch=5 n=b4 v=31
95638 On ch=5 n=b4 v=0
95640 On ch=5 n=d5 v=31
95758 On ch=5 n=d5 v=0
95760 On ch=5 n=b4 v=31
95878 On ch=5 n=b4 v=0
95880 On ch=5 n=d5 v=31
95998 On ch=5 n=d5 v=0
96000 On ch=5 n=c5 v=31
96118 On ch=5 n=c5 v=0
96120 On ch=5 n=d5 v=31
96238 On ch=5 n=d5 v=0
96240 On ch=5 n=c5 v=31
96358 On ch=5 n=c5 v=0
96360 On ch=5 n=d5 v=31
96478 On ch=5 n=d5 v=0
96480 On ch=5 n=c5 v=31
96598 On ch=5 n=c5 v=0
96600 On ch=5 n=d5 v=31
96718 On ch=5 n=d5 v=0
96720 On ch=5 n=c5 v=31
96838 On ch=5 n=c5 v=0
96840 On ch=5 n=d5 v=31
96958 On ch=5 n=d5 v=0
96960 On ch=5 n=c5 v=31
97078 On ch=5 n=c5 v=0
97080 On ch=5 n=d5 v=31
97198 On ch=5 n=d5 v=0
97200 On ch=5 n=c5 v=31
97318 On ch=5 n=c5 v=0
97320 On ch=5 n=d5 v=31
97438 On ch=5 n=d5 v=0
97440 On ch=5 n=c5 v=31
97558 On ch=5 n=c5 v=0
97560 On ch=5 n=d5 v=31
97678 On ch=5 n=d5 v=0
97680 On ch=5 n=c5 v=31
97798 On ch=5 n=c5 v=0
97800 On ch=5 n=d5 v=31
97918 On ch=5 n=d5 v=0
97920 On ch=5 n=b4 v=31
98038 On ch=5 n=b4 v=0
98040 On ch=5 n=d5 v=31
98158 On ch=5 n=d5 v=0
98160 On ch=5 n=b4 v=31
98278 On ch=5 n=b4 v=0
98280 On ch=5 n=d5 v=31
98398 On ch=5 n=d5 v=0
98400 On ch=5 n=b4 v=31
98518 On ch=5 n=b4 v=0
98520 On ch=5 n=d5 v=31
98638 On ch=5 n=d5 v=0
98640 On ch=5 n=b4 v=31
98758 On ch=5 n=b4 v=0
98760 On ch=5 n=d5 v=31
98878 On ch=5 n=d5 v=0
98880 On ch=5 n=b4 v=31
98998 On ch=5 n=b4 v=0
99000 On ch=5 n=d5 v=31
99118 On ch=5 n=d5 v=0
99120 On ch=5 n=b4 v=31
99238 On ch=5 n=b4 v=0
99240 On ch=5 n=d5 v=31
99358 On ch=5 n=d5 v=0
99360 On ch=5 n=b4 v=47
99478 On ch=5 n=b4 v=0
99480 On ch=5 n=d5 v=47
99598 On ch=5 n=d5 v=0
99600 On ch=5 n=b4 v=47
99718 On ch=5 n=b4 v=0
99720 On ch=5 n=d5 v=47
99838 On ch=5 n=d5 v=0
99840 On ch=5 n=c5 v=47
99958 On ch=5 n=c5 v=0
99960 On ch=5 n=d5 v=47
100078 On ch=5 n=d5 v=0
100080 On ch=5 n=c5 v=47
100198 On ch=5 n=c5 v=0
100200 On ch=5 n=d5 v=47
100318 On ch=5 n=d5 v=0
100320 On ch=5 n=c5 v=47
100438 On ch=5 n=c5 v=0
100440 On ch=5 n=d5 v=47
100558 On ch=5 n=d5 v=0
100560 On ch=5 n=c5 v=47
100678 On ch=5 n=c5 v=0
100680 On ch=5 n=d5 v=47
100798 On ch=5 n=d5 v=0
100800 On ch=5 n=c5 v=47
100918 On ch=5 n=c5 v=0
100920 On ch=5 n=d5 v=47
101038 On ch=5 n=d5 v=0
101040 On ch=5 n=c5 v=47
101158 On ch=5 n=c5 v=0
101160 On ch=5 n=d5 v=47
101278 On ch=5 n=d5 v=0
101280 On ch=5 n=c5 v=47
101398 On ch=5 n=c5 v=0
101400 On ch=5 n=d5 v=47
101518 On ch=5 n=d5 v=0
101520 On ch=5 n=c5 v=47
101638 On ch=5 n=c5 v=0
101640 On ch=5 n=d5 v=47
101758 On ch=5 n=d5 v=0
101760 On ch=5 n=b4 v=47
101878 On ch=5 n=b4 v=0
102962 On ch=5 n=c4 v=63
103078 On ch=5 n=c4 v=0
103080 On ch=5 n=a3 v=63
103198 On ch=5 n=a3 v=0
103200 On ch=5 n=d4 v=63
103318 On ch=5 n=d4 v=0
103442 On ch=5 n=d4 v=63
103558 On ch=5 n=d4 v=0
103682 On ch=5 n=g3 v=63
103798 On ch=5 n=g3 v=0
104882 On ch=5 n=c4 v=63
104998 On ch=5 n=c4 v=0
105000 On ch=5 n=a3 v=63
105118 On ch=5 n=a3 v=0
105120 On ch=5 n=d4 v=63
105238 On ch=5 n=d4 v=0
105362 On ch=5 n=d4 v=63
105478 On ch=5 n=d4 v=0
105602 On ch=5 n=g3 v=63
105718 On ch=5 n=g3 v=0
106082 On ch=5 n=d4 v=63
106318 On ch=5 n=d4 v=0
106562 On ch=5 n=g3 v=63
106798 On ch=5 n=g3 v=0
107522 On ch=5 n=g5 v=36
107638 On ch=5 n=g5 v=0
108002 On ch=5 n=d5 v=36
108118 On ch=5 n=d5 v=0
108482 On ch=5 n=a#4 v=36
108958 On ch=5 n=a#4 v=0
109202 On ch=5 n=d#5 v=36
109438 On ch=5 n=d#5 v=0
109440 On ch=5 n=a4 v=36
109918 On ch=5 n=a4 v=0
110162 On ch=5 n=d5 v=36
110398 On ch=5 n=d5 v=0
110400 On ch=5 n=g4 v=36
110878 On ch=5 n=g4 v=0
110880 On ch=5 n=a#4 v=36
111358 On ch=5 n=a#4 v=0
111482 On ch=5 n=a3 v=47
111598 On ch=5 n=a3 v=0
111600 On ch=5 n=b3 v=47
111718 On ch=5 n=b3 v=0
111720 On ch=5 n=c#4 v=47
111838 On ch=5 n=c#4 v=0
111840 On ch=5 n=d4 v=47
111958 On ch=5 n=d4 v=0
111960 On ch=5 n=e4 v=47
112078 On ch=5 n=e4 v=0
112080 On ch=5 n=f#4 v=47
112198 On ch=5 n=f#4 v=0
112200 On ch=5 n=g#4 v=47
112318 On ch=5 n=g#4 v=0
112320 On ch=5 n=a4 v=63
112438 On ch=5 n=a4 v=0
112440 On ch=5 n=g#4 v=63
112558 On ch=5 n=g#4 v=0
112560 On ch=5 n=a4 v=63
112678 On ch=5 n=a4 v=0
112680 On ch=5 n=a#4 v=63
112798 On ch=5 n=a#4 v=0
112800 On ch=5 n=a4 v=63
112918 On ch=5 n=a4 v=0
112920 On ch=5 n=g4 v=63
113038 On ch=5 n=g4 v=0
113040 On ch=5 n=f4 v=63
113158 On ch=5 n=f4 v=0
113160 On ch=5 n=e4 v=63
113278 On ch=5 n=e4 v=0
113280 On ch=5 n=f4 v=63
113758 On ch=5 n=f4 v=0
114002 On ch=5 n=a4 v=31
114118 On ch=5 n=a4 v=0
115922 On ch=5 n=c#5 v=36
116158 On ch=5 n=c#5 v=0
116160 On ch=5 n=d5 v=36
116278 On ch=5 n=d5 v=0
116280 On ch=5 n=c#5 v=36
116398 On ch=5 n=c#5 v=0
116400 On ch=5 n=d5 v=36
116518 On ch=5 n=d5 v=0
116520 On ch=5 n=a4 v=36
116638 On ch=5 n=a4 v=0
116640 On ch=5 n=c5 v=36
116758 On ch=5 n=c5 v=0
116760 On ch=5 n=b4 v=36
116878 On ch=5 n=b4 v=0
116880 On ch=5 n=c5 v=36
116998 On ch=5 n=c5 v=0
117000 On ch=5 n=a4 v=36
117118 On ch=5 n=a4 v=0
117120 On ch=5 n=a#4 v=36
117358 On ch=5 n=a#4 v=0
117360 On ch=5 n=g4 v=36
117598 On ch=5 n=g4 v=0
117600 On ch=5 n=a4 v=36
117838 On ch=5 n=a4 v=0
117840 On ch=5 n=f#4 v=36
118078 On ch=5 n=f#4 v=0
118080 On ch=5 n=a#4 v=36
118558 On ch=5 n=a#4 v=0
118560 On ch=5 n=a4 v=49
119038 On ch=5 n=a4 v=0
119040 On ch=5 n=g4 v=49
119998 On ch=5 n=g4 v=0
120000 On ch=5 n=f4 v=63
120478 On ch=5 n=f4 v=0
120480 On ch=5 n=c4 v=63
120958 On ch=5 n=c4 v=0
120960 On ch=5 n=a3 v=63
121438 On ch=5 n=a3 v=0
121682 On ch=5 n=d4 v=63
121798 On ch=5 n=d4 v=0
121922 On ch=5 n=g3 v=63
122398 On ch=5 n=g3 v=0
122642 On ch=5 n=c4 v=63
122758 On ch=5 n=c4 v=0
140162 On ch=5 n=g#4 v=28
142078 On ch=5 n=g#4 v=0
142080 On ch=5 n=g4 v=28
142558 On ch=5 n=g4 v=0
142560 On ch=5 n=g4 v=28
142798 On ch=5 n=g4 v=0
142800 On ch=5 n=g4 v=28
143038 On ch=5 n=g4 v=0
143040 On ch=5 n=g4 v=28
143518 On ch=5 n=g4 v=0
144002 On ch=5 n=g#4 v=36
144478 On ch=5 n=g#4 v=0
144480 On ch=5 n=d#4 v=36
144958 On ch=5 n=d#4 v=0
144960 On ch=5 n=c4 v=36
145438 On ch=5 n=c4 v=0
145682 On ch=5 n=f4 v=36
145918 On ch=5 n=f4 v=0
145920 On ch=5 n=a#3 v=36
146398 On ch=5 n=a#3 v=0
146642 On ch=5 n=d#4 v=36
146878 On ch=5 n=d#4 v=0
146880 On ch=5 n=g#3 v=36
147358 On ch=5 n=g#3 v=0
148082 On ch=5 n=g#4 v=31
148318 On ch=5 n=g#4 v=0
148320 On ch=5 n=a#4 v=31
148558 On ch=5 n=a#4 v=0
149042 On ch=5 n=g4 v=31
149278 On ch=5 n=g4 v=0
149280 On ch=5 n=a4 v=31
149518 On ch=5 n=a4 v=0
150002 On ch=5 n=f4 v=63
150238 On ch=5 n=f4 v=0
150482 On ch=5 n=d#4 v=63
150718 On ch=5 n=d#4 v=0
150962 On ch=5 n=d4 v=63
151198 On ch=5 n=d4 v=0
151442 On ch=5 n=d#4 v=63
151678 On ch=5 n=d#4 v=0
151922 On ch=5 n=f4 v=63
152158 On ch=5 n=f4 v=0
152402 On ch=5 n=d#4 v=63
152638 On ch=5 n=d#4 v=0
152882 On ch=5 n=d4 v=63
153118 On ch=5 n=d4 v=0
153362 On ch=5 n=f4 v=63
153598 On ch=5 n=f4 v=0
153842 On ch=5 n=g4 v=47
154078 On ch=5 n=g4 v=0
154322 On ch=5 n=f4 v=47
154558 On ch=5 n=f4 v=0
154802 On ch=5 n=g4 v=47
155038 On ch=5 n=g4 v=0
155282 On ch=5 n=g4 v=47
155518 On ch=5 n=g4 v=0
155762 On ch=5 n=a4 v=63
155998 On ch=5 n=a4 v=0
156242 On ch=5 n=g4 v=63
156478 On ch=5 n=g4 v=0
156722 On ch=5 n=a4 v=63
156958 On ch=5 n=a4 v=0
157202 On ch=5 n=a4 v=63
157438 On ch=5 n=a4 v=0
157440 On ch=5 n=b4 v=63
157918 On ch=5 n=b4 v=0
160082 On ch=5 n=b3 v=63
160198 On ch=5 n=b3 v=0
160322 On ch=5 n=d5 v=63
160798 On ch=5 n=d5 v=0
161042 On ch=5 n=c4 v=63
161158 On ch=5 n=c4 v=0
161282 On ch=5 n=c5 v=63
161758 On ch=5 n=c5 v=0
162002 On ch=5 n=c4 v=63
162118 On ch=5 n=c4 v=0
162242 On ch=5 n=a#4 v=63
163198 On ch=5 n=a#4 v=0
163200 On ch=5 n=b3 v=63
163318 On ch=5 n=b3 v=0
163320 On ch=5 n=b4 v=63
163438 On ch=5 n=b4 v=0
163440 On ch=5 n=b3 v=47
163558 On ch=5 n=b3 v=0
163560 On ch=5 n=b4 v=47
163678 On ch=5 n=b4 v=0
163680 On ch=5 n=b3 v=47
163798 On ch=5 n=b3 v=0
163800 On ch=5 n=b4 v=47
163918 On ch=5 n=b4 v=0
163920 On ch=5 n=b3 v=36
164038 On ch=5 n=b3 v=0
164040 On ch=5 n=b4 v=36
164158 On ch=5 n=b4 v=0
164160 On ch=5 n=b3 v=41
164278 On ch=5 n=b3 v=0
164280 On ch=5 n=b4 v=41
164398 On ch=5 n=b4 v=0
164400 On ch=5 n=b3 v=41
164518 On ch=5 n=b3 v=0
164520 On ch=5 n=b4 v=41
164638 On ch=5 n=b4 v=0
164640 On ch=5 n=b3 v=33
164758 On ch=5 n=b3 v=0
164760 On ch=5 n=b4 v=33
164878 On ch=5 n=b4 v=0
164880 On ch=5 n=b3 v=33
164998 On ch=5 n=b3 v=0
165000 On ch=5 n=b4 v=33
165118 On ch=5 n=b4 v=0
165120 On ch=5 n=b3 v=57
165238 On ch=5 n=b3 v=0
165240 On ch=5 n=b4 v=57
165358 On ch=5 n=b4 v=0
165360 On ch=5 n=b3 v=57
165478 On ch=5 n=b3 v=0
165480 On ch=5 n=b4 v=57
165598 On ch=5 n=b4 v=0
165600 On ch=5 n=b3 v=57
165718 On ch=5 n=b3 v=0
165720 On ch=5 n=b4 v=57
165838 On ch=5 n=b4 v=0
165840 On ch=5 n=b3 v=57
165958 On ch=5 n=b3 v=0
165960 On ch=5 n=b4 v=57
166078 On ch=5 n=b4 v=0
166080 On ch=5 n=b3 v=41
166198 On ch=5 n=b3 v=0
166200 On ch=5 n=b4 v=41
166318 On ch=5 n=b4 v=0
166320 On ch=5 n=b3 v=41
166438 On ch=5 n=b3 v=0
166440 On ch=5 n=b4 v=41
166558 On ch=5 n=b4 v=0
166560 On ch=5 n=b3 v=33
166678 On ch=5 n=b3 v=0
166680 On ch=5 n=b4 v=33
166798 On ch=5 n=b4 v=0
166800 On ch=5 n=b3 v=33
166918 On ch=5 n=b3 v=0
166920 On ch=5 n=b4 v=33
167038 On ch=5 n=b4 v=0
167040 On ch=5 n=c4 v=34
167158 On ch=5 n=c4 v=0
167160 On ch=5 n=a4 v=34
167278 On ch=5 n=a4 v=0
167280 On ch=5 n=c4 v=34
167398 On ch=5 n=c4 v=0
167400 On ch=5 n=a4 v=34
167518 On ch=5 n=a4 v=0
167520 On ch=5 n=c4 v=34
167638 On ch=5 n=c4 v=0
167640 On ch=5 n=a4 v=34
167758 On ch=5 n=a4 v=0
167760 On ch=5 n=c4 v=34
167878 On ch=5 n=c4 v=0
167880 On ch=5 n=a4 v=34
167998 On ch=5 n=a4 v=0
168000 On ch=5 n=c#4 v=34
168118 On ch=5 n=c#4 v=0
168120 On ch=5 n=a#4 v=34
168238 On ch=5 n=a#4 v=0
168240 On ch=5 n=c#4 v=34
168358 On ch=5 n=c#4 v=0
168360 On ch=5 n=a#4 v=34
168478 On ch=5 n=a#4 v=0
168480 On ch=5 n=c#4 v=34
168598 On ch=5 n=c#4 v=0
168600 On ch=5 n=a#4 v=34
168718 On ch=5 n=a#4 v=0
168720 On ch=5 n=c#4 v=34
168838 On ch=5 n=c#4 v=0
168840 On ch=5 n=a#4 v=19
168958 On ch=5 n=a#4 v=0
168960 On ch=5 n=d4 v=85
169078 On ch=5 n=d4 v=0
169080 On ch=5 n=b4 v=85
169198 On ch=5 n=b4 v=0
169200 On ch=5 n=d4 v=85
169318 On ch=5 n=d4 v=0
169320 On ch=5 n=b4 v=85
169438 On ch=5 n=b4 v=0
169440 On ch=5 n=d4 v=85
169558 On ch=5 n=d4 v=0
169560 On ch=5 n=b4 v=85
169678 On ch=5 n=b4 v=0
169680 On ch=5 n=d4 v=85
169798 On ch=5 n=d4 v=0
169800 On ch=5 n=b4 v=85
169918 On ch=5 n=b4 v=0
169920 On ch=5 n=d4 v=85
170038 On ch=5 n=d4 v=0
170040 On ch=5 n=a4 v=85
170158 On ch=5 n=a4 v=0
170160 On ch=5 n=d4 v=85
170278 On ch=5 n=d4 v=0
170280 On ch=5 n=a4 v=85
170398 On ch=5 n=a4 v=0
170400 On ch=5 n=d4 v=85
170518 On ch=5 n=d4 v=0
170520 On ch=5 n=a4 v=85
170638 On ch=5 n=a4 v=0
170640 On ch=5 n=d4 v=85
170758 On ch=5 n=d4 v=0
170760 On ch=5 n=a4 v=85
170878 On ch=5 n=a4 v=0
170880 On ch=5 n=g3 v=85
170998 On ch=5 n=g3 v=0
171000 On ch=5 n=g4 v=85
171118 On ch=5 n=g4 v=0
171120 On ch=5 n=g3 v=85
171238 On ch=5 n=g3 v=0
171240 On ch=5 n=g4 v=85
171358 On ch=5 n=g4 v=0
171360 On ch=5 n=g3 v=85
171478 On ch=5 n=g3 v=0
171480 On ch=5 n=g4 v=85
171598 On ch=5 n=g4 v=0
171600 On ch=5 n=g3 v=85
171718 On ch=5 n=g3 v=0
171720 On ch=5 n=g4 v=85
171838 On ch=5 n=g4 v=0
171840 On ch=5 n=g3 v=85
171958 On ch=5 n=g3 v=0
171960 On ch=5 n=g4 v=85
172078 On ch=5 n=g4 v=0
172080 On ch=5 n=g3 v=85
172198 On ch=5 n=g3 v=0
172200 On ch=5 n=g4 v=85
172318 On ch=5 n=g4 v=0
172320 On ch=5 n=g#3 v=85
172438 On ch=5 n=g#3 v=0
172440 On ch=5 n=g#4 v=85
172558 On ch=5 n=g#4 v=0
172560 On ch=5 n=g#3 v=85
172678 On ch=5 n=g#3 v=0
172680 On ch=5 n=g#4 v=85
172798 On ch=5 n=g#4 v=0
172800 On ch=5 n=a3 v=85
172918 On ch=5 n=a3 v=0
172920 On ch=5 n=a4 v=85
173038 On ch=5 n=a4 v=0
173040 On ch=5 n=a3 v=85
173158 On ch=5 n=a3 v=0
173160 On ch=5 n=a4 v=85
173278 On ch=5 n=a4 v=0
173280 On ch=5 n=a3 v=85
173398 On ch=5 n=a3 v=0
173400 On ch=5 n=a4 v=85
173518 On ch=5 n=a4 v=0
173520 On ch=5 n=a3 v=85
173638 On ch=5 n=a3 v=0
173640 On ch=5 n=a4 v=85
173758 On ch=5 n=a4 v=0
173760 On ch=5 n=f3 v=71
173878 On ch=5 n=f3 v=0
173880 On ch=5 n=f4 v=71
173998 On ch=5 n=f4 v=0
174000 On ch=5 n=f3 v=71
174118 On ch=5 n=f3 v=0
174120 On ch=5 n=f4 v=71
174238 On ch=5 n=f4 v=0
174240 On ch=5 n=f3 v=71
174358 On ch=5 n=f3 v=0
174360 On ch=5 n=f4 v=71
174478 On ch=5 n=f4 v=0
174480 On ch=5 n=f3 v=71
174598 On ch=5 n=f3 v=0
174600 On ch=5 n=f4 v=71
174718 On ch=5 n=f4 v=0
174720 On ch=5 n=e3 v=83
174838 On ch=5 n=e3 v=0
174840 On ch=5 n=e4 v=83
174958 On ch=5 n=e4 v=0
174960 On ch=5 n=e3 v=55
175078 On ch=5 n=e3 v=0
175802 On ch=5 n=e4 v=38
175918 On ch=5 n=e4 v=0
175920 On ch=5 n=e3 v=38
176158 On ch=5 n=e3 v=0
176282 On ch=5 n=e4 v=33
176398 On ch=5 n=e4 v=0
176400 On ch=5 n=e3 v=33
176638 On ch=5 n=e3 v=0
176762 On ch=5 n=e4 v=33
176878 On ch=5 n=e4 v=0
176880 On ch=5 n=e3 v=33
177118 On ch=5 n=e3 v=0
177722 On ch=5 n=e4 v=38
177838 On ch=5 n=e4 v=0
177840 On ch=5 n=e3 v=38
178078 On ch=5 n=e3 v=0
178202 On ch=5 n=e4 v=50
178318 On ch=5 n=e4 v=0
178320 On ch=5 n=e3 v=50
178558 On ch=5 n=e3 v=0
178682 On ch=5 n=e4 v=50
178798 On ch=5 n=e4 v=0
178800 On ch=5 n=e3 v=50
179038 On ch=5 n=e3 v=0
179882 On ch=5 n=d#4 v=31
179998 On ch=5 n=d#4 v=0
180000 On ch=5 n=e4 v=31
180118 On ch=5 n=e4 v=0
180120 On ch=5 n=d#4 v=31
180238 On ch=5 n=d#4 v=0
180240 On ch=5 n=e4 v=31
180358 On ch=5 n=e4 v=0
180360 On ch=5 n=d#4 v=31
180478 On ch=5 n=d#4 v=0
180480 On ch=5 n=e4 v=31
180718 On ch=5 n=e4 v=0
181802 On ch=5 n=d#5 v=31
181918 On ch=5 n=d#5 v=0
181920 On ch=5 n=e5 v=31
182038 On ch=5 n=e5 v=0
182040 On ch=5 n=d#5 v=31
182158 On ch=5 n=d#5 v=0
182160 On ch=5 n=e5 v=31
182278 On ch=5 n=e5 v=0
182280 On ch=5 n=d#5 v=31
182398 On ch=5 n=d#5 v=0
182400 On ch=5 n=e5 v=31
182638 On ch=5 n=e5 v=0
190442 On ch=5 n=c#4 v=35
190558 On ch=5 n=c#4 v=0
190560 On ch=5 n=d4 v=55
190678 On ch=5 n=d4 v=0
190680 On ch=5 n=c#4 v=55
190798 On ch=5 n=c#4 v=0
190800 On ch=5 n=d4 v=55
190918 On ch=5 n=d4 v=0
190920 On ch=5 n=c#4 v=55
191038 On ch=5 n=c#4 v=0
191040 On ch=5 n=d4 v=55
191278 On ch=5 n=d4 v=0
193322 On ch=5 n=g#4 v=33
193438 On ch=5 n=g#4 v=0
193440 On ch=5 n=g4 v=33
193558 On ch=5 n=g4 v=0
193560 On ch=5 n=g#4 v=33
193678 On ch=5 n=g#4 v=0
193680 On ch=5 n=g4 v=55
193798 On ch=5 n=g4 v=0
193800 On ch=5 n=g#4 v=55
193918 On ch=5 n=g#4 v=0
193920 On ch=5 n=g4 v=55
194158 On ch=5 n=g4 v=0
194402 On ch=5 n=d5 v=63
194638 On ch=5 n=d5 v=0
194640 On ch=5 n=c5 v=63
194878 On ch=5 n=c5 v=0
194880 On ch=5 n=b4 v=63
195118 On ch=5 n=b4 v=0
197282 On ch=5 n=f5 v=105
197398 On ch=5 n=f5 v=0
197522 On ch=5 n=f5 v=105
197638 On ch=5 n=f5 v=0
197762 On ch=5 n=f5 v=105
198238 On ch=5 n=f5 v=0
211322 On ch=5 n=c4 v=63
211678 On ch=5 n=c4 v=0
212242 On ch=5 n=d4 v=63
212638 On ch=5 n=d4 v=0
213202 On ch=5 n=g4 v=63
213598 On ch=5 n=g4 v=0
217082 On ch=5 n=d5 v=47
217198 On ch=5 n=d5 v=0
217200 On ch=5 n=c#5 v=47
217318 On ch=5 n=c#5 v=0
217320 On ch=5 n=d5 v=47
217438 On ch=5 n=d5 v=0
217440 On ch=5 n=c5 v=47
217558 On ch=5 n=c5 v=0
217560 On ch=5 n=b4 v=47
217678 On ch=5 n=b4 v=0
217680 On ch=5 n=a4 v=47
217798 On ch=5 n=a4 v=0
229442 On ch=5 n=c5 v=53
230398 On ch=5 n=c5 v=0
230400 On ch=5 n=b4 v=66
230878 On ch=5 n=b4 v=0
233282 On ch=5 n=c5 v=81
233398 On ch=5 n=c5 v=0
233400 On ch=5 n=b4 v=81
233518 On ch=5 n=b4 v=0
233520 On ch=5 n=c5 v=81
233638 On ch=5 n=c5 v=0
233640 On ch=5 n=g4 v=81
233758 On ch=5 n=g4 v=0
233760 On ch=5 n=g#4 v=81
233878 On ch=5 n=g#4 v=0
233880 On ch=5 n=g4 v=81
233998 On ch=5 n=g4 v=0
234000 On ch=5 n=g#4 v=81
234118 On ch=5 n=g#4 v=0
234120 On ch=5 n=f#4 v=81
234238 On ch=5 n=f#4 v=0
234240 On ch=5 n=g4 v=81
234718 On ch=5 n=g4 v=0
234720 On ch=5 n=g4 v=81
235198 On ch=5 n=g4 v=0
235200 On ch=5 n=g4 v=81
235678 On ch=5 n=g4 v=0
251402 On ch=5 n=f#4 v=31
251518 On ch=5 n=f#4 v=0
251520 On ch=5 n=g4 v=31
251998 On ch=5 n=g4 v=0
253442 On ch=5 n=b4 v=55
254398 On ch=5 n=b4 v=0
255362 On ch=5 n=c4 v=50
255478 On ch=5 n=c4 v=0
255480 On ch=5 n=c5 v=37
255598 On ch=5 n=c5 v=0
255600 On ch=5 n=c4 v=37
255718 On ch=5 n=c4 v=0
255720 On ch=5 n=c5 v=37
255838 On ch=5 n=c5 v=0
255840 On ch=5 n=c4 v=37
255958 On ch=5 n=c4 v=0
255960 On ch=5 n=c5 v=37
256078 On ch=5 n=c5 v=0
256080 On ch=5 n=c4 v=37
256198 On ch=5 n=c4 v=0
256200 On ch=5 n=c5 v=37
256318 On ch=5 n=c5 v=0
256320 On ch=5 n=c4 v=37
256438 On ch=5 n=c4 v=0
256440 On ch=5 n=c5 v=37
256558 On ch=5 n=c5 v=0
256560 On ch=5 n=c4 v=37
256678 On ch=5 n=c4 v=0
256680 On ch=5 n=c5 v=37
256798 On ch=5 n=c5 v=0
256800 On ch=5 n=c4 v=37
256918 On ch=5 n=c4 v=0
256920 On ch=5 n=c5 v=37
257038 On ch=5 n=c5 v=0
257040 On ch=5 n=c4 v=37
257158 On ch=5 n=c4 v=0
257160 On ch=5 n=c5 v=37
257278 On ch=5 n=c5 v=0
257280 On ch=5 n=c4 v=37
257398 On ch=5 n=c4 v=0
257400 On ch=5 n=c5 v=37
257518 On ch=5 n=c5 v=0
257520 On ch=5 n=c4 v=37
257638 On ch=5 n=c4 v=0
257640 On ch=5 n=c5 v=37
257758 On ch=5 n=c5 v=0
257760 On ch=5 n=c4 v=37
257878 On ch=5 n=c4 v=0
257880 On ch=5 n=c5 v=37
257998 On ch=5 n=c5 v=0
258000 On ch=5 n=c4 v=37
258118 On ch=5 n=c4 v=0
258120 On ch=5 n=c5 v=37
258238 On ch=5 n=c5 v=0
258240 On ch=5 n=c4 v=37
258358 On ch=5 n=c4 v=0
258360 On ch=5 n=c5 v=37
258478 On ch=5 n=c5 v=0
258480 On ch=5 n=c4 v=37
258598 On ch=5 n=c4 v=0
258600 On ch=5 n=c5 v=37
258718 On ch=5 n=c5 v=0
258720 On ch=5 n=c4 v=37
258838 On ch=5 n=c4 v=0
258840 On ch=5 n=c5 v=37
258958 On ch=5 n=c5 v=0
258960 On ch=5 n=c4 v=37
259078 On ch=5 n=c4 v=0
259080 On ch=5 n=c5 v=37
259198 On ch=5 n=c5 v=0
259200 On ch=5 n=c4 v=37
259318 On ch=5 n=c4 v=0
259320 On ch=5 n=c5 v=37
259438 On ch=5 n=c5 v=0
259440 On ch=5 n=c4 v=37
259558 On ch=5 n=c4 v=0
259560 On ch=5 n=c5 v=37
259678 On ch=5 n=c5 v=0
259680 On ch=5 n=c4 v=37
259798 On ch=5 n=c4 v=0
259800 On ch=5 n=c5 v=37
259918 On ch=5 n=c5 v=0
259920 On ch=5 n=c4 v=37
260038 On ch=5 n=c4 v=0
260040 On ch=5 n=c5 v=37
260158 On ch=5 n=c5 v=0
260160 On ch=5 n=c4 v=37
260278 On ch=5 n=c4 v=0
260280 On ch=5 n=c5 v=37
260398 On ch=5 n=c5 v=0
260400 On ch=5 n=c4 v=37
260518 On ch=5 n=c4 v=0
260520 On ch=5 n=c5 v=37
260638 On ch=5 n=c5 v=0
260640 On ch=5 n=c4 v=37
260758 On ch=5 n=c4 v=0
260760 On ch=5 n=c5 v=37
260878 On ch=5 n=c5 v=0
260880 On ch=5 n=c4 v=37
260998 On ch=5 n=c4 v=0
261000 On ch=5 n=c5 v=37
261118 On ch=5 n=c5 v=0
261120 On ch=5 n=c4 v=37
261238 On ch=5 n=c4 v=0
261240 On ch=5 n=c5 v=37
261358 On ch=5 n=c5 v=0
261360 On ch=5 n=c4 v=37
261478 On ch=5 n=c4 v=0
261480 On ch=5 n=c5 v=37
261598 On ch=5 n=c5 v=0
261600 On ch=5 n=c4 v=37
261718 On ch=5 n=c4 v=0
261720 On ch=5 n=c5 v=37
261838 On ch=5 n=c5 v=0
261840 On ch=5 n=c4 v=37
261958 On ch=5 n=c4 v=0
261960 On ch=5 n=c5 v=37
262078 On ch=5 n=c5 v=0
262080 On ch=5 n=c4 v=37
262198 On ch=5 n=c4 v=0
262200 On ch=5 n=a#4 v=37
262318 On ch=5 n=a#4 v=0
262320 On ch=5 n=c4 v=37
262438 On ch=5 n=c4 v=0
262440 On ch=5 n=a#4 v=37
262558 On ch=5 n=a#4 v=0
262560 On ch=5 n=c4 v=37
262678 On ch=5 n=c4 v=0
262680 On ch=5 n=a#4 v=37
262798 On ch=5 n=a#4 v=0
262800 On ch=5 n=c4 v=37
262918 On ch=5 n=c4 v=0
262920 On ch=5 n=a#4 v=37
263038 On ch=5 n=a#4 v=0
263040 On ch=5 n=c4 v=37
263158 On ch=5 n=c4 v=0
263160 On ch=5 n=g#4 v=37
263278 On ch=5 n=g#4 v=0
263280 On ch=5 n=c4 v=37
263398 On ch=5 n=c4 v=0
263400 On ch=5 n=g#4 v=37
263518 On ch=5 n=g#4 v=0
263520 On ch=5 n=c4 v=37
263638 On ch=5 n=c4 v=0
263640 On ch=5 n=g#4 v=37
263758 On ch=5 n=g#4 v=0
263760 On ch=5 n=c4 v=37
263878 On ch=5 n=c4 v=0
263880 On ch=5 n=g#4 v=37
263998 On ch=5 n=g#4 v=0
264000 On ch=5 n=d4 v=37
264118 On ch=5 n=d4 v=0
264120 On ch=5 n=g#4 v=37
264238 On ch=5 n=g#4 v=0
264240 On ch=5 n=d4 v=37
264358 On ch=5 n=d4 v=0
264360 On ch=5 n=g#4 v=37
264478 On ch=5 n=g#4 v=0
264480 On ch=5 n=d4 v=37
264598 On ch=5 n=d4 v=0
264600 On ch=5 n=g#4 v=37
264718 On ch=5 n=g#4 v=0
264720 On ch=5 n=d4 v=37
264838 On ch=5 n=d4 v=0
264840 On ch=5 n=g#4 v=37
264958 On ch=5 n=g#4 v=0
264960 On ch=5 n=e4 v=37
265078 On ch=5 n=e4 v=0
265080 On ch=5 n=g4 v=37
265198 On ch=5 n=g4 v=0
265200 On ch=5 n=e4 v=37
265318 On ch=5 n=e4 v=0
265320 On ch=5 n=g4 v=37
265438 On ch=5 n=g4 v=0
265440 On ch=5 n=e4 v=37
265558 On ch=5 n=e4 v=0
265560 On ch=5 n=c5 v=37
265678 On ch=5 n=c5 v=0
265680 On ch=5 n=e4 v=37
265798 On ch=5 n=e4 v=0
265800 On ch=5 n=c5 v=37
265918 On ch=5 n=c5 v=0
265920 On ch=5 n=f4 v=37
266038 On ch=5 n=f4 v=0
266040 On ch=5 n=c5 v=37
266158 On ch=5 n=c5 v=0
266160 On ch=5 n=f4 v=37
266278 On ch=5 n=f4 v=0
266280 On ch=5 n=c5 v=37
266398 On ch=5 n=c5 v=0
266400 On ch=5 n=f4 v=37
266518 On ch=5 n=f4 v=0
266520 On ch=5 n=c#5 v=37
266638 On ch=5 n=c#5 v=0
266640 On ch=5 n=f4 v=37
266758 On ch=5 n=f4 v=0
266760 On ch=5 n=c#5 v=37
266878 On ch=5 n=c#5 v=0
266880 On ch=5 n=f4 v=37
266998 On ch=5 n=f4 v=0
267000 On ch=5 n=d5 v=37
267118 On ch=5 n=d5 v=0
267120 On ch=5 n=f4 v=37
267238 On ch=5 n=f4 v=0
267240 On ch=5 n=d5 v=37
267358 On ch=5 n=d5 v=0
267360 On ch=5 n=f4 v=37
267478 On ch=5 n=f4 v=0
267480 On ch=5 n=d5 v=37
267598 On ch=5 n=d5 v=0
267600 On ch=5 n=f4 v=37
267718 On ch=5 n=f4 v=0
267720 On ch=5 n=d5 v=37
267838 On ch=5 n=d5 v=0
267840 On ch=5 n=f#4 v=37
267958 On ch=5 n=f#4 v=0
267960 On ch=5 n=c5 v=37
268078 On ch=5 n=c5 v=0
268080 On ch=5 n=f#4 v=37
268198 On ch=5 n=f#4 v=0
268200 On ch=5 n=c5 v=37
268318 On ch=5 n=c5 v=0
268320 On ch=5 n=f#4 v=37
268438 On ch=5 n=f#4 v=0
268440 On ch=5 n=c5 v=37
268558 On ch=5 n=c5 v=0
268560 On ch=5 n=f#4 v=37
268678 On ch=5 n=f#4 v=0
268680 On ch=5 n=c5 v=37
268798 On ch=5 n=c5 v=0
268800 On ch=5 n=g4 v=37
268918 On ch=5 n=g4 v=0
268920 On ch=5 n=c5 v=37
269038 On ch=5 n=c5 v=0
269040 On ch=5 n=g4 v=37
269158 On ch=5 n=g4 v=0
269160 On ch=5 n=c5 v=37
269278 On ch=5 n=c5 v=0
269280 On ch=5 n=g4 v=37
269398 On ch=5 n=g4 v=0
269400 On ch=5 n=c5 v=37
269518 On ch=5 n=c5 v=0
269520 On ch=5 n=g4 v=37
269638 On ch=5 n=g4 v=0
269640 On ch=5 n=c5 v=37
269758 On ch=5 n=c5 v=0
269760 On ch=5 n=g4 v=37
269878 On ch=5 n=g4 v=0
269880 On ch=5 n=b4 v=37
269998 On ch=5 n=b4 v=0
270000 On ch=5 n=g4 v=37
270118 On ch=5 n=g4 v=0
270120 On ch=5 n=b4 v=37
270238 On ch=5 n=b4 v=0
270240 On ch=5 n=g4 v=37
270358 On ch=5 n=g4 v=0
270360 On ch=5 n=b4 v=37
270478 On ch=5 n=b4 v=0
270480 On ch=5 n=g4 v=37
270598 On ch=5 n=g4 v=0
270600 On ch=5 n=b4 v=37
270718 On ch=5 n=b4 v=0
270720 On ch=5 n=c5 v=37
271198 On ch=5 n=c5 v=0
271282 On ch=5 n=g4 v=63
271678 On ch=5 n=g4 v=0
271762 On ch=5 n=g4 v=63
272158 On ch=5 n=g4 v=0
272242 On ch=5 n=g4 v=63
272638 On ch=5 n=g4 v=0
272640 On ch=5 n=f4 v=63
272878 On ch=5 n=f4 v=0
273602 On ch=5 n=b4 v=60
274078 On ch=5 n=b4 v=0
274080 On ch=5 n=g4 v=60
274558 On ch=5 n=g4 v=0
274560 On ch=5 n=c5 v=60
275038 On ch=5 n=c5 v=0
275122 On ch=5 n=g4 v=63
275518 On ch=5 n=g4 v=0
275602 On ch=5 n=g4 v=63
275998 On ch=5 n=g4 v=0
276082 On ch=5 n=g4 v=63
276478 On ch=5 n=g4 v=0
276480 On ch=5 n=f4 v=63
276718 On ch=5 n=f4 v=0
277922 On ch=5 n=g4 v=31
278398 On ch=5 n=g4 v=0
278400 On ch=5 n=c4 v=31
278638 On ch=5 n=c4 v=0
278640 On ch=5 n=c4 v=47
278718 On ch=5 n=c4 v=0
278720 On ch=5 n=e4 v=47
278798 On ch=5 n=e4 v=0
278800 On ch=5 n=g4 v=47
278878 On ch=5 n=g4 v=0
278880 On ch=5 n=b3 v=47
278958 On ch=5 n=b3 v=0
278960 On ch=5 n=d4 v=47
279038 On ch=5 n=d4 v=0
279040 On ch=5 n=g4 v=47
279118 On ch=5 n=g4 v=0
279120 On ch=5 n=c4 v=47
279198 On ch=5 n=c4 v=0
279200 On ch=5 n=e4 v=47
279278 On ch=5 n=e4 v=0
279280 On ch=5 n=g4 v=47
279358 On ch=5 n=g4 v=0
279360 On ch=5 n=f3 v=47
279598 On ch=5 n=f3 v=0
279842 On ch=5 n=a4 v=47
279958 On ch=5 n=a4 v=0
280322 On ch=5 n=a4 v=63
280438 On ch=5 n=a4 v=0
280802 On ch=5 n=a4 v=63
280918 On ch=5 n=a4 v=0
281282 On ch=5 n=a4 v=63
281398 On ch=5 n=a4 v=0
281762 On ch=5 n=a4 v=63
281878 On ch=5 n=a4 v=0
282242 On ch=5 n=e5 v=105
282718 On ch=5 n=e5 v=0
283242 On ch=5 n=b4 v=105
284158 On ch=5 n=b4 v=0
292802 On ch=5 n=g4 v=47
293278 On ch=5 n=g4 v=0
294962 On ch=5 n=f4 v=63
295078 On ch=5 n=f4 v=0
295080 On ch=5 n=d4 v=63
295198 On ch=5 n=d4 v=0
295200 On ch=5 n=g4 v=63
295318 On ch=5 n=g4 v=0
295442 On ch=5 n=g4 v=63
295558 On ch=5 n=g4 v=0
295682 On ch=5 n=c4 v=63
295798 On ch=5 n=c4 v=0
296882 On ch=5 n=f4 v=63
296998 On ch=5 n=f4 v=0
297000 On ch=5 n=d4 v=63
297118 On ch=5 n=d4 v=0
297120 On ch=5 n=g4 v=63
297238 On ch=5 n=g4 v=0
297362 On ch=5 n=g4 v=63
297478 On ch=5 n=g4 v=0
298682 On ch=5 n=g4 v=63
299038 On ch=5 n=g4 v=0
299520 Par ch=5 c=64 v=127
299642 On ch=5 n=c4 v=105
299998 On ch=5 n=c4 v=0
300958 Par ch=5 c=64 v=0
303484 On ch=5 n=f4 v=47
304320 On ch=5 n=f4 v=0
304322 On ch=5 n=a4 v=47
305280 On ch=5 n=a4 v=0
305282 On ch=5 n=a#4 v=31
306240 On ch=5 n=a#4 v=0
306242 On ch=5 n=a4 v=31
307200 On ch=5 n=a4 v=0
308164 On ch=5 n=a4 v=31
308280 On ch=5 n=a4 v=0
308282 On ch=5 n=c5 v=31
308400 On ch=5 n=c5 v=0
308402 On ch=5 n=e5 v=47
308520 On ch=5 n=e5 v=0
308522 On ch=5 n=f5 v=47
308640 On ch=5 n=f5 v=0
309124 On ch=5 n=d5 v=63
309600 On ch=5 n=d5 v=0
315004 On ch=5 n=f4 v=47
315840 On ch=5 n=f4 v=0
315842 On ch=5 n=a4 v=47
316800 On ch=5 n=a4 v=0
316802 On ch=5 n=a#4 v=47
317760 On ch=5 n=a#4 v=0
317762 On ch=5 n=a4 v=47
318720 On ch=5 n=a4 v=0
320644 On ch=5 n=a#3 v=47
321600 On ch=5 n=a#3 v=0
322564 On ch=5 n=a#4 v=36
323520 On ch=5 n=a#4 v=0
323522 On ch=5 n=a#4 v=36
324480 On ch=5 n=a#4 v=0
324482 On ch=5 n=a4 v=31
324960 On ch=5 n=a4 v=0
330244 On ch=5 n=b4 v=31
330360 On ch=5 n=b4 v=0
330362 On ch=5 n=g4 v=31
330480 On ch=5 n=g4 v=0
330482 On ch=5 n=c5 v=31
330600 On ch=5 n=c5 v=0
330602 On ch=5 n=f#4 v=31
330720 On ch=5 n=f#4 v=0
331804 On ch=5 n=g4 v=31
331920 On ch=5 n=g4 v=0
333364 On ch=5 n=b4 v=30
333600 On ch=5 n=b4 v=0
333602 On ch=5 n=c5 v=30
334080 On ch=5 n=c5 v=0
334444 On ch=5 n=g4 v=31
334560 On ch=5 n=g4 v=0
334562 On ch=5 n=f#4 v=31
334620 On ch=5 n=f#4 v=0
334622 On ch=5 n=g4 v=31
334680 On ch=5 n=g4 v=0
334682 On ch=5 n=a4 v=31
334740 On ch=5 n=a4 v=0
334742 On ch=5 n=g4 v=31
334800 On ch=5 n=g4 v=0
334802 On ch=5 n=f4 v=31
334860 On ch=5 n=f4 v=0
334862 On ch=5 n=e4 v=31
334920 On ch=5 n=e4 v=0
334922 On ch=5 n=d4 v=31
334980 On ch=5 n=d4 v=0
334982 On ch=5 n=c4 v=31
335040 On ch=5 n=c4 v=0
335042 On ch=5 n=b3 v=31
335280 On ch=5 n=b3 v=0
335344 On ch=5 n=g4 v=31
335400 On ch=5 n=g4 v=0
335402 On ch=5 n=b4 v=31
335460 On ch=5 n=b4 v=0
335462 On ch=5 n=d5 v=31
335520 On ch=5 n=d5 v=0
335522 On ch=5 n=f5 v=31
336000 On ch=5 n=f5 v=0
337444 On ch=5 n=c5 v=31
337920 On ch=5 n=c5 v=0
337922 On ch=5 n=c5 v=31
338400 On ch=5 n=c5 v=0
338884 On ch=5 n=f5 v=30
339360 On ch=5 n=f5 v=0
342724 On ch=5 n=e4 v=30
342840 On ch=5 n=e4 v=0
342842 On ch=5 n=g4 v=30
342960 On ch=5 n=g4 v=0
342962 On ch=5 n=e4 v=30
343080 On ch=5 n=e4 v=0
343082 On ch=5 n=g4 v=30
343200 On ch=5 n=g4 v=0
343202 On ch=5 n=e4 v=30
343320 On ch=5 n=e4 v=0
343322 On ch=5 n=g4 v=30
343440 On ch=5 n=g4 v=0
343442 On ch=5 n=e4 v=30
343560 On ch=5 n=e4 v=0
343562 On ch=5 n=g4 v=30
343680 On ch=5 n=g4 v=0
343682 On ch=5 n=f4 v=30
343800 On ch=5 n=f4 v=0
343802 On ch=5 n=g4 v=30
343920 On ch=5 n=g4 v=0
343922 On ch=5 n=f4 v=30
344040 On ch=5 n=f4 v=0
344042 On ch=5 n=g4 v=30
344160 On ch=5 n=g4 v=0
344162 On ch=5 n=f4 v=30
344280 On ch=5 n=f4 v=0
344282 On ch=5 n=g4 v=30
344400 On ch=5 n=g4 v=0
344402 On ch=5 n=f4 v=30
344520 On ch=5 n=f4 v=0
344522 On ch=5 n=g4 v=30
344640 On ch=5 n=g4 v=0
344642 On ch=5 n=f4 v=30
344760 On ch=5 n=f4 v=0
344762 On ch=5 n=g4 v=30
344880 On ch=5 n=g4 v=0
344882 On ch=5 n=f4 v=30
345000 On ch=5 n=f4 v=0
345002 On ch=5 n=g4 v=30
345120 On ch=5 n=g4 v=0
345122 On ch=5 n=e4 v=30
345600 On ch=5 n=e4 v=0
346084 On ch=5 n=g3 v=30
346320 On ch=5 n=g3 v=0
346564 On ch=5 n=c4 v=30
347280 On ch=5 n=c4 v=0
348004 On ch=5 n=d#3 v=31
348960 On ch=5 n=d#3 v=0
348962 On ch=5 n=d#4 v=31
349440 On ch=5 n=d#4 v=0
350044 On ch=5 n=f#4 v=31
350160 On ch=5 n=f#4 v=0
350162 On ch=5 n=g4 v=31
350280 On ch=5 n=g4 v=0
350282 On ch=5 n=a4 v=31
350400 On ch=5 n=a4 v=0
350402 On ch=5 n=a#4 v=31
350880 On ch=5 n=a#4 v=0
351004 On ch=5 n=a#4 v=31
351120 On ch=5 n=a#4 v=0
351122 On ch=5 n=a4 v=31
351240 On ch=5 n=a4 v=0
351242 On ch=5 n=g4 v=31
351360 On ch=5 n=g4 v=0
351362 On ch=5 n=a4 v=31
351480 On ch=5 n=a4 v=0
351482 On ch=5 n=a#4 v=31
351600 On ch=5 n=a#4 v=0
351602 On ch=5 n=a4 v=31
351720 On ch=5 n=a4 v=0
351722 On ch=5 n=g4 v=31
351840 On ch=5 n=g4 v=0
351842 On ch=5 n=a4 v=31
351960 On ch=5 n=a4 v=0
351962 On ch=5 n=a#4 v=31
352080 On ch=5 n=a#4 v=0
352082 On ch=5 n=a4 v=31
352200 On ch=5 n=a4 v=0
352202 On ch=5 n=g4 v=31
352320 On ch=5 n=g4 v=0
352322 On ch=5 n=a4 v=31
352800 On ch=5 n=a4 v=0
352802 On ch=5 n=d5 v=31
353760 On ch=5 n=d5 v=0
360124 On ch=5 n=a#4 v=47
360180 On ch=5 n=a#4 v=0
360182 On ch=5 n=g4 v=47
360240 On ch=5 n=g4 v=0
360242 On ch=5 n=e4 v=47
360300 On ch=5 n=e4 v=0
360302 On ch=5 n=c4 v=47
360360 On ch=5 n=c4 v=0
360362 On ch=5 n=e4 v=31
360420 On ch=5 n=e4 v=0
360422 On ch=5 n=g4 v=31
360480 On ch=5 n=g4 v=0
360482 On ch=5 n=a#4 v=31
360540 On ch=5 n=a#4 v=0
361444 On ch=5 n=c5 v=30
362400 On ch=5 n=c5 v=0
362524 On ch=5 n=f4 v=47
363360 On ch=5 n=f4 v=0
363362 On ch=5 n=a4 v=47
363840 On ch=5 n=a4 v=0
363842 On ch=5 n=a4 v=47
364320 On ch=5 n=a4 v=0
364322 On ch=5 n=a#4 v=31
365280 On ch=5 n=a#4 v=0
365282 On ch=5 n=a4 v=31
366240 On ch=5 n=a4 v=0
367084 On ch=5 n=f4 v=31
367140 On ch=5 n=f4 v=0
367142 On ch=5 n=g4 v=31
367200 On ch=5 n=g4 v=0
367202 On ch=5 n=a4 v=31
367260 On ch=5 n=a4 v=0
367262 On ch=5 n=a#4 v=31
367320 On ch=5 n=a#4 v=0
368164 On ch=5 n=d5 v=63
368640 On ch=5 n=d5 v=0
370444 On ch=5 n=c4 v=31
370500 On ch=5 n=c4 v=0
370564 On ch=5 n=b3 v=31
370620 On ch=5 n=b3 v=0
370684 On ch=5 n=a#3 v=31
370740 On ch=5 n=a#3 v=0
370804 On ch=5 n=a3 v=31
370860 On ch=5 n=a3 v=0
370924 On ch=5 n=g3 v=31
370980 On ch=5 n=g3 v=0
371044 On ch=5 n=f3 v=47
371520 On ch=5 n=f3 v=0
371522 On ch=5 n=a4 v=47
372000 On ch=5 n=a4 v=0
372002 On ch=5 n=a#4 v=47
372480 On ch=5 n=a#4 v=0
372482 On ch=5 n=a4 v=47
372960 On ch=5 n=a4 v=0
372962 On ch=5 n=a3 v=47
373920 On ch=5 n=a3 v=0
373922 On ch=5 n=a#3 v=47
374400 On ch=5 n=a#3 v=0
374884 On ch=5 n=a#4 v=36
375360 On ch=5 n=a#4 v=0
375362 On ch=5 n=a#4 v=31
375840 On ch=5 n=a#4 v=0
375842 On ch=5 n=a4 v=31
376080 On ch=5 n=a4 v=0
376924 On ch=5 n=f3 v=47
377040 On ch=5 n=f3 v=0
377042 On ch=5 n=g3 v=47
377160 On ch=5 n=g3 v=0
377162 On ch=5 n=g#3 v=47
377280 On ch=5 n=g#3 v=0
377282 On ch=5 n=a#3 v=47
377400 On ch=5 n=a#3 v=0
377402 On ch=5 n=c4 v=47
377520 On ch=5 n=c4 v=0
377522 On ch=5 n=c#4 v=47
377640 On ch=5 n=c#4 v=0
377642 On ch=5 n=b3 v=47
377760 On ch=5 n=b3 v=0
377762 On ch=5 n=c4 v=47
377880 On ch=5 n=c4 v=0
377882 On ch=5 n=c#5 v=47
378000 On ch=5 n=c#5 v=0
378002 On ch=5 n=c5 v=47
378120 On ch=5 n=c5 v=0
378122 On ch=5 n=a#4 v=47
378240 On ch=5 n=a#4 v=0
378364 On ch=5 n=f3 v=47
378480 On ch=5 n=f3 v=0
378482 On ch=5 n=g3 v=47
378600 On ch=5 n=g3 v=0
378602 On ch=5 n=g#3 v=47
378720 On ch=5 n=g#3 v=0
378722 On ch=5 n=a#3 v=47
378840 On ch=5 n=a#3 v=0
378842 On ch=5 n=c4 v=47
378960 On ch=5 n=c4 v=0
378962 On ch=5 n=c#4 v=47
379080 On ch=5 n=c#4 v=0
379082 On ch=5 n=b3 v=47
379200 On ch=5 n=b3 v=0
379202 On ch=5 n=c4 v=47
379320 On ch=5 n=c4 v=0
379322 On ch=5 n=c#5 v=47
379440 On ch=5 n=c#5 v=0
379442 On ch=5 n=c5 v=47
379560 On ch=5 n=c5 v=0
379562 On ch=5 n=a#4 v=47
379680 On ch=5 n=a#4 v=0
381124 On ch=5 n=c5 v=31
382680 On ch=5 n=c5 v=0
382682 On ch=5 n=c#5 v=31
382800 On ch=5 n=c#5 v=0
382802 On ch=5 n=c5 v=31
382920 On ch=5 n=c5 v=0
382922 On ch=5 n=b4 v=31
383040 On ch=5 n=b4 v=0
383042 On ch=5 n=c5 v=31
383160 On ch=5 n=c5 v=0
383162 On ch=5 n=c#5 v=31
383280 On ch=5 n=c#5 v=0
383282 On ch=5 n=c5 v=31
383400 On ch=5 n=c5 v=0
383402 On ch=5 n=b4 v=31
383520 On ch=5 n=b4 v=0
383522 On ch=5 n=c5 v=31
383640 On ch=5 n=c5 v=0
383642 On ch=5 n=c#5 v=31
383760 On ch=5 n=c#5 v=0
383762 On ch=5 n=c5 v=31
383880 On ch=5 n=c5 v=0
383882 On ch=5 n=b4 v=31
384000 On ch=5 n=b4 v=0
384002 On ch=5 n=c5 v=47
384120 On ch=5 n=c5 v=0
384122 On ch=5 n=c#5 v=47
384240 On ch=5 n=c#5 v=0
384242 On ch=5 n=c5 v=47
384360 On ch=5 n=c5 v=0
384362 On ch=5 n=b4 v=47
384480 On ch=5 n=b4 v=0
384482 On ch=5 n=c5 v=31
384600 On ch=5 n=c5 v=0
384602 On ch=5 n=c#5 v=31
384720 On ch=5 n=c#5 v=0
384722 On ch=5 n=c5 v=31
384840 On ch=5 n=c5 v=0
384842 On ch=5 n=b4 v=31
384960 On ch=5 n=b4 v=0
384962 On ch=5 n=c5 v=31
385080 On ch=5 n=c5 v=0
388864 On ch=5 n=c5 v=55
388920 On ch=5 n=c5 v=0
388922 On ch=5 n=a#4 v=55
388980 On ch=5 n=a#4 v=0
388982 On ch=5 n=g4 v=55
389040 On ch=5 n=g4 v=0
389042 On ch=5 n=e4 v=55
389100 On ch=5 n=e4 v=0
389102 On ch=5 n=c4 v=55
389160 On ch=5 n=c4 v=0
389162 On ch=5 n=a#3 v=63
389220 On ch=5 n=a#3 v=0
389222 On ch=5 n=g3 v=63
389280 On ch=5 n=g3 v=0
389282 On ch=5 n=e3 v=63
389340 On ch=5 n=e3 v=0
389342 On ch=5 n=g3 v=63
389400 On ch=5 n=g3 v=0
389402 On ch=5 n=e3 v=63
389460 On ch=5 n=e3 v=0
389462 On ch=5 n=c3 v=63
389520 On ch=5 n=c3 v=0
389584 On ch=5 n=e4 v=63
389640 On ch=5 n=e4 v=0
389642 On ch=5 n=g4 v=63
389700 On ch=5 n=g4 v=0
389702 On ch=5 n=a#4 v=63
389760 On ch=5 n=a#4 v=0
391204 On ch=5 n=f4 v=30
391680 On ch=5 n=f4 v=0
392164 On ch=5 n=a#4 v=30
392640 On ch=5 n=a#4 v=0
392642 On ch=5 n=a4 v=30
392760 On ch=5 n=a4 v=0
392762 On ch=5 n=c5 v=30
392880 On ch=5 n=c5 v=0
392882 On ch=5 n=a4 v=30
393000 On ch=5 n=a4 v=0
393002 On ch=5 n=c5 v=30
393120 On ch=5 n=c5 v=0
393122 On ch=5 n=a4 v=30
393240 On ch=5 n=a4 v=0
393242 On ch=5 n=c5 v=30
393360 On ch=5 n=c5 v=0
393362 On ch=5 n=a4 v=30
393480 On ch=5 n=a4 v=0
393482 On ch=5 n=c5 v=30
393600 On ch=5 n=c5 v=0
393602 On ch=5 n=a4 v=30
393720 On ch=5 n=a4 v=0
393722 On ch=5 n=c5 v=30
393840 On ch=5 n=c5 v=0
393842 On ch=5 n=a4 v=30
393960 On ch=5 n=a4 v=0
393962 On ch=5 n=c5 v=30
394080 On ch=5 n=c5 v=0
394082 On ch=5 n=a#4 v=30
394200 On ch=5 n=a#4 v=0
394202 On ch=5 n=c5 v=30
394320 On ch=5 n=c5 v=0
394322 On ch=5 n=a#4 v=30
394440 On ch=5 n=a#4 v=0
394442 On ch=5 n=c5 v=30
394560 On ch=5 n=c5 v=0
394562 On ch=5 n=a#4 v=30
394680 On ch=5 n=a#4 v=0
394682 On ch=5 n=c5 v=30
394800 On ch=5 n=c5 v=0
394802 On ch=5 n=a#4 v=30
394920 On ch=5 n=a#4 v=0
394922 On ch=5 n=c5 v=30
395040 On ch=5 n=c5 v=0
395042 On ch=5 n=a#4 v=30
395160 On ch=5 n=a#4 v=0
395162 On ch=5 n=c5 v=30
395280 On ch=5 n=c5 v=0
395282 On ch=5 n=a#4 v=30
395400 On ch=5 n=a#4 v=0
395402 On ch=5 n=c5 v=30
395520 On ch=5 n=c5 v=0
395522 On ch=5 n=a4 v=30
395640 On ch=5 n=a4 v=0
395642 On ch=5 n=c5 v=30
395760 On ch=5 n=c5 v=0
395762 On ch=5 n=a4 v=30
395880 On ch=5 n=a4 v=0
395882 On ch=5 n=c5 v=30
396000 On ch=5 n=c5 v=0
396002 On ch=5 n=a3 v=30
396120 On ch=5 n=a3 v=0
396122 On ch=5 n=c4 v=30
396240 On ch=5 n=c4 v=0
396242 On ch=5 n=a3 v=30
396360 On ch=5 n=a3 v=0
396362 On ch=5 n=c4 v=30
396480 On ch=5 n=c4 v=0
396482 On ch=5 n=a3 v=30
396600 On ch=5 n=a3 v=0
396602 On ch=5 n=c4 v=30
396720 On ch=5 n=c4 v=0
396722 On ch=5 n=a3 v=30
396840 On ch=5 n=a3 v=0
396842 On ch=5 n=c4 v=30
396960 On ch=5 n=c4 v=0
396962 On ch=5 n=a#3 v=30
397080 On ch=5 n=a#3 v=0
397082 On ch=5 n=c4 v=30
397200 On ch=5 n=c4 v=0
397202 On ch=5 n=a#3 v=30
397320 On ch=5 n=a#3 v=0
397322 On ch=5 n=c4 v=30
397440 On ch=5 n=c4 v=0
397442 On ch=5 n=a#3 v=30
397560 On ch=5 n=a#3 v=0
397562 On ch=5 n=e4 v=30
397680 On ch=5 n=e4 v=0
397682 On ch=5 n=a#3 v=30
397800 On ch=5 n=a#3 v=0
397802 On ch=5 n=e4 v=30
397920 On ch=5 n=e4 v=0
397922 On ch=5 n=a#3 v=30
398040 On ch=5 n=a#3 v=0
398042 On ch=5 n=e4 v=30
398160 On ch=5 n=e4 v=0
398162 On ch=5 n=a#3 v=30
398280 On ch=5 n=a#3 v=0
398282 On ch=5 n=f4 v=30
398400 On ch=5 n=f4 v=0
398402 On ch=5 n=d4 v=30
398520 On ch=5 n=d4 v=0
398522 On ch=5 n=g4 v=30
398640 On ch=5 n=g4 v=0
398642 On ch=5 n=d#4 v=30
398760 On ch=5 n=d#4 v=0
398762 On ch=5 n=a4 v=30
398880 On ch=5 n=a4 v=0
398882 On ch=5 n=d4 v=30
399000 On ch=5 n=d4 v=0
399002 On ch=5 n=g4 v=30
399120 On ch=5 n=g4 v=0
399122 On ch=5 n=d4 v=30
399240 On ch=5 n=d4 v=0
399242 On ch=5 n=g#4 v=30
399360 On ch=5 n=g#4 v=0
399362 On ch=5 n=e4 v=30
399480 On ch=5 n=e4 v=0
399482 On ch=5 n=g4 v=30
399600 On ch=5 n=g4 v=0
399602 On ch=5 n=g4 v=30
399720 On ch=5 n=g4 v=0
399722 On ch=5 n=c5 v=30
399840 On ch=5 n=c5 v=0
399842 On ch=5 n=a4 v=30
399960 On ch=5 n=a4 v=0
399962 On ch=5 n=c5 v=30
400080 On ch=5 n=c5 v=0
400082 On ch=5 n=a4 v=30
400200 On ch=5 n=a4 v=0
400202 On ch=5 n=f5 v=30
400320 On ch=5 n=f5 v=0
400322 On ch=5 n=a#4 v=30
400440 On ch=5 n=a#4 v=0
400442 On ch=5 n=f5 v=30
400560 On ch=5 n=f5 v=0
402724 On ch=5 n=a#4 v=31
403200 On ch=5 n=a#4 v=0
403202 On ch=5 n=a4 v=31
403320 On ch=5 n=a4 v=0
404044 On ch=5 n=a#4 v=31
404160 On ch=5 n=a#4 v=0
404162 On ch=5 n=a#4 v=31
404640 On ch=5 n=a#4 v=0
404642 On ch=5 n=a4 v=31
404760 On ch=5 n=a4 v=0
405604 On ch=5 n=a#4 v=48
406080 On ch=5 n=a#4 v=0
406082 On ch=5 n=a4 v=30
406320 On ch=5 n=a4 v=0
407044 On ch=5 n=a3 v=30
407080 On ch=5 n=a3 v=0
407082 On ch=5 n=f4 v=30
408480 On ch=5 n=f4 v=0
414726 On ch=5 n=g4 v=31
416162 On ch=5 n=g4 v=0
430566 On ch=5 n=g#4 v=47
430802 On ch=5 n=g#4 v=0
431046 On ch=5 n=g#4 v=47
431282 On ch=5 n=g#4 v=0
431526 On ch=5 n=g#4 v=47
431762 On ch=5 n=g#4 v=0
432006 On ch=5 n=a4 v=47
432242 On ch=5 n=a4 v=0
432486 On ch=5 n=a4 v=47
432722 On ch=5 n=a4 v=0
432966 On ch=5 n=a4 v=47
433202 On ch=5 n=a4 v=0
433446 On ch=5 n=d4 v=47
433682 On ch=5 n=d4 v=0
433926 On ch=5 n=d4 v=47
434162 On ch=5 n=d4 v=0
434406 On ch=5 n=d4 v=47
434882 On ch=5 n=d4 v=0
434884 On ch=5 n=g4 v=47
435122 On ch=5 n=g4 v=0
435846 On ch=5 n=a4 v=30
436322 On ch=5 n=a4 v=0
436324 On ch=5 n=b4 v=30
436562 On ch=5 n=b4 v=0
437286 On ch=5 n=a4 v=30
437762 On ch=5 n=a4 v=0
437764 On ch=5 n=b4 v=30
438002 On ch=5 n=b4 v=0
438726 On ch=5 n=a4 v=30
439202 On ch=5 n=a4 v=0
439204 On ch=5 n=b4 v=30
439442 On ch=5 n=b4 v=0
441126 On ch=5 n=d5 v=30
441602 On ch=5 n=d5 v=0
441604 On ch=5 n=c5 v=30
442082 On ch=5 n=c5 v=0
442084 On ch=5 n=b4 v=47
442562 On ch=5 n=b4 v=0
442564 On ch=5 n=d4 v=47
443042 On ch=5 n=d4 v=0
443044 On ch=5 n=c4 v=47
443522 On ch=5 n=c4 v=0
443524 On ch=5 n=b3 v=63
444002 On ch=5 n=b3 v=0
449286 On ch=5 n=g4 v=31
450722 On ch=5 n=g4 v=0
465126 On ch=5 n=g#4 v=47
465362 On ch=5 n=g#4 v=0
465606 On ch=5 n=g#4 v=47
465842 On ch=5 n=g#4 v=0
466086 On ch=5 n=g#4 v=47
466322 On ch=5 n=g#4 v=0
466566 On ch=5 n=a4 v=47
466802 On ch=5 n=a4 v=0
467046 On ch=5 n=a4 v=47
467282 On ch=5 n=a4 v=0
467526 On ch=5 n=a4 v=47
467762 On ch=5 n=a4 v=0
468006 On ch=5 n=d4 v=47
468242 On ch=5 n=d4 v=0
468486 On ch=5 n=d4 v=47
468722 On ch=5 n=d4 v=0
468966 On ch=5 n=d4 v=47
469442 On ch=5 n=d4 v=0
469444 On ch=5 n=g4 v=47
469682 On ch=5 n=g4 v=0
470406 On ch=5 n=a4 v=30
470882 On ch=5 n=a4 v=0
470884 On ch=5 n=b4 v=30
471122 On ch=5 n=b4 v=0
471846 On ch=5 n=a4 v=30
472322 On ch=5 n=a4 v=0
472324 On ch=5 n=b4 v=30
472562 On ch=5 n=b4 v=0
473286 On ch=5 n=a4 v=30
473762 On ch=5 n=a4 v=0
473764 On ch=5 n=b4 v=30
474002 On ch=5 n=b4 v=0
475686 On ch=5 n=d5 v=30
476162 On ch=5 n=d5 v=0
476164 On ch=5 n=c5 v=30
476642 On ch=5 n=c5 v=0
476644 On ch=5 n=b4 v=47
477122 On ch=5 n=b4 v=0
477124 On ch=5 n=d4 v=47
477602 On ch=5 n=d4 v=0
477604 On ch=5 n=c4 v=47
478082 On ch=5 n=c4 v=0
478084 On ch=5 n=b3 v=63
478562 On ch=5 n=b3 v=0
480486 On ch=5 n=g4 v=31
480722 On ch=5 n=g4 v=0
480966 On ch=5 n=a4 v=31
481202 On ch=5 n=a4 v=0
481446 On ch=5 n=b4 v=31
481682 On ch=5 n=b4 v=0
481926 On ch=5 n=c#5 v=31
482162 On ch=5 n=c#5 v=0
482406 On ch=5 n=d5 v=31
482642 On ch=5 n=d5 v=0
482886 On ch=5 n=d5 v=31
483122 On ch=5 n=d5 v=0
483124 On ch=5 n=c#5 v=31
483362 On ch=5 n=c#5 v=0
483364 On ch=5 n=d5 v=31
483842 On ch=5 n=d5 v=0
483844 On ch=5 n=b4 v=31
484322 On ch=5 n=b4 v=0
494406 On ch=5 n=c#5 v=31
494882 On ch=5 n=c#5 v=0
494884 On ch=5 n=b4 v=31
495362 On ch=5 n=b4 v=0
495364 On ch=5 n=c#5 v=31
495842 On ch=5 n=c#5 v=0
495844 On ch=5 n=e4 v=47
496322 On ch=5 n=e4 v=0
496324 On ch=5 n=d4 v=47
496802 On ch=5 n=d4 v=0
496804 On ch=5 n=c4 v=47
497282 On ch=5 n=c4 v=0
499806 On ch=5 n=d4 v=63
500162 On ch=5 n=d4 v=0
500164 On ch=5 n=a4 v=63
500642 On ch=5 n=a4 v=0
500644 On ch=5 n=g4 v=63
501122 On ch=5 n=g4 v=0
501124 On ch=5 n=f4 v=63
501602 On ch=5 n=f4 v=0
501604 On ch=5 n=a4 v=63
502082 On ch=5 n=a4 v=0
502084 On ch=5 n=g4 v=63
502562 On ch=5 n=g4 v=0
502564 On ch=5 n=f4 v=63
503042 On ch=5 n=f4 v=0
503044 On ch=5 n=a4 v=63
503522 On ch=5 n=a4 v=0
503524 On ch=5 n=a#4 v=63
504002 On ch=5 n=a#4 v=0
504004 On ch=5 n=c5 v=47
504482 On ch=5 n=c5 v=0
504484 On ch=5 n=a4 v=47
504962 On ch=5 n=a4 v=0
504964 On ch=5 n=a#4 v=47
505442 On ch=5 n=a#4 v=0
505444 On ch=5 n=c5 v=31
509762 On ch=5 n=c5 v=0
509764 On ch=5 n=a#4 v=31
510242 On ch=5 n=a#4 v=0
510244 On ch=5 n=c5 v=31
510722 On ch=5 n=c5 v=0
510724 On ch=5 n=d5 v=31
511202 On ch=5 n=d5 v=0
511204 On ch=5 n=d#5 v=30
512642 On ch=5 n=d#5 v=0
512644 On ch=5 n=f5 v=30
513122 On ch=5 n=f5 v=0
514086 On ch=5 n=e4 v=30
514562 On ch=5 n=e4 v=0
514564 On ch=5 n=f4 v=30
515042 On ch=5 n=f4 v=0
515044 On ch=5 n=g4 v=31
515522 On ch=5 n=g4 v=0
515524 On ch=5 n=a4 v=31
516002 On ch=5 n=a4 v=0
516966 On ch=5 n=f5 v=47
517442 On ch=5 n=f5 v=0
518406 On ch=5 n=g4 v=63
518642 On ch=5 n=g4 v=0
518644 On ch=5 n=c5 v=63
518882 On ch=5 n=c5 v=0
518884 On ch=5 n=g4 v=63
519122 On ch=5 n=g4 v=0
519124 On ch=5 n=c5 v=63
519362 On ch=5 n=c5 v=0
519364 On ch=5 n=g4 v=63
519602 On ch=5 n=g4 v=0
519604 On ch=5 n=c5 v=63
519842 On ch=5 n=c5 v=0
519844 On ch=5 n=b4 v=63
520082 On ch=5 n=b4 v=0
520084 On ch=5 n=d5 v=63
520322 On ch=5 n=d5 v=0
520324 On ch=5 n=b4 v=63
520562 On ch=5 n=b4 v=0
520564 On ch=5 n=d5 v=63
520802 On ch=5 n=d5 v=0
520804 On ch=5 n=b4 v=63
521042 On ch=5 n=b4 v=0
521044 On ch=5 n=d5 v=63
521282 On ch=5 n=d5 v=0
521284 On ch=5 n=g4 v=63
521522 On ch=5 n=g4 v=0
521524 On ch=5 n=c5 v=63
521762 On ch=5 n=c5 v=0
521764 On ch=5 n=g4 v=63
522002 On ch=5 n=g4 v=0
522004 On ch=5 n=c5 v=63
522242 On ch=5 n=c5 v=0
522244 On ch=5 n=g4 v=63
522482 On ch=5 n=g4 v=0
522484 On ch=5 n=c5 v=63
522722 On ch=5 n=c5 v=0
522724 On ch=5 n=b4 v=63
522962 On ch=5 n=b4 v=0
522964 On ch=5 n=d5 v=63
523202 On ch=5 n=d5 v=0
523204 On ch=5 n=b4 v=63
523442 On ch=5 n=b4 v=0
523444 On ch=5 n=d5 v=63
523682 On ch=5 n=d5 v=0
523684 On ch=5 n=b4 v=63
523922 On ch=5 n=b4 v=0
523924 On ch=5 n=d5 v=63
524162 On ch=5 n=d5 v=0
524164 On ch=5 n=g4 v=63
524402 On ch=5 n=g4 v=0
524404 On ch=5 n=c5 v=63
524642 On ch=5 n=c5 v=0
524644 On ch=5 n=g4 v=63
524882 On ch=5 n=g4 v=0
524884 On ch=5 n=c5 v=63
525122 On ch=5 n=c5 v=0
525124 On ch=5 n=g4 v=63
525362 On ch=5 n=g4 v=0
525364 On ch=5 n=c5 v=63
525602 On ch=5 n=c5 v=0
525604 On ch=5 n=a4 v=63
525842 On ch=5 n=a4 v=0
525844 On ch=5 n=d5 v=63
526082 On ch=5 n=d5 v=0
526084 On ch=5 n=a4 v=63
526322 On ch=5 n=a4 v=0
526324 On ch=5 n=d5 v=63
526562 On ch=5 n=d5 v=0
526564 On ch=5 n=a4 v=63
526802 On ch=5 n=a4 v=0
526804 On ch=5 n=d5 v=63
527042 On ch=5 n=d5 v=0
527044 On ch=5 n=e5 v=63
528002 On ch=5 n=e5 v=0
528004 On ch=5 n=f5 v=63
528482 On ch=5 n=f5 v=0
528484 On ch=5 n=e5 v=63
528962 On ch=5 n=e5 v=0
531366 On ch=5 n=d#5 v=63
531602 On ch=5 n=d#5 v=0
531846 On ch=5 n=d#5 v=47
532082 On ch=5 n=d#5 v=0
532084 On ch=5 n=d5 v=47
532322 On ch=5 n=d5 v=0
532324 On ch=5 n=d#5 v=47
532802 On ch=5 n=d#5 v=0
532804 On ch=5 n=d5 v=47
533042 On ch=5 n=d5 v=0
533286 On ch=5 n=d5 v=47
533522 On ch=5 n=d5 v=0
533524 On ch=5 n=c#5 v=47
533762 On ch=5 n=c#5 v=0
533764 On ch=5 n=d5 v=47
534242 On ch=5 n=d5 v=0
534244 On ch=5 n=d5 v=47
534482 On ch=5 n=d5 v=0
534726 On ch=5 n=d5 v=47
534962 On ch=5 n=d5 v=0
535206 On ch=5 n=d5 v=47
535442 On ch=5 n=d5 v=0
535686 On ch=5 n=d5 v=47
536162 On ch=5 n=d5 v=0
547206 On ch=5 n=e4 v=63
547442 On ch=5 n=e4 v=0
547686 On ch=5 n=f4 v=63
547922 On ch=5 n=f4 v=0
548166 On ch=5 n=g4 v=63
548402 On ch=5 n=g4 v=0
548646 On ch=5 n=a4 v=63
548882 On ch=5 n=a4 v=0
551526 On ch=5 n=g5 v=63
551762 On ch=5 n=g5 v=0
551764 On ch=5 n=c6 v=63
552002 On ch=5 n=c6 v=0
552004 On ch=5 n=g5 v=63
552242 On ch=5 n=g5 v=0
552244 On ch=5 n=c6 v=63
552482 On ch=5 n=c6 v=0
552484 On ch=5 n=g5 v=63
552722 On ch=5 n=g5 v=0
552724 On ch=5 n=c6 v=63
552962 On ch=5 n=c6 v=0
552964 On ch=5 n=b5 v=63
553202 On ch=5 n=b5 v=0
553204 On ch=5 n=d6 v=63
553442 On ch=5 n=d6 v=0
553444 On ch=5 n=b5 v=63
553682 On ch=5 n=b5 v=0
553684 On ch=5 n=d6 v=63
553922 On ch=5 n=d6 v=0
553924 On ch=5 n=b5 v=63
554162 On ch=5 n=b5 v=0
554164 On ch=5 n=d6 v=63
554402 On ch=5 n=d6 v=0
554404 On ch=5 n=g5 v=63
554642 On ch=5 n=g5 v=0
554644 On ch=5 n=c6 v=63
554882 On ch=5 n=c6 v=0
554884 On ch=5 n=g5 v=63
555122 On ch=5 n=g5 v=0
555124 On ch=5 n=c6 v=63
555362 On ch=5 n=c6 v=0
555364 On ch=5 n=g5 v=63
555602 On ch=5 n=g5 v=0
555604 On ch=5 n=c6 v=63
555842 On ch=5 n=c6 v=0
555844 On ch=5 n=b5 v=63
556082 On ch=5 n=b5 v=0
556084 On ch=5 n=d6 v=63
556322 On ch=5 n=d6 v=0
556324 On ch=5 n=b5 v=63
556562 On ch=5 n=b5 v=0
556564 On ch=5 n=d6 v=63
556802 On ch=5 n=d6 v=0
556804 On ch=5 n=b5 v=63
557042 On ch=5 n=b5 v=0
557044 On ch=5 n=d6 v=63
557282 On ch=5 n=d6 v=0
557284 On ch=5 n=g5 v=63
557522 On ch=5 n=g5 v=0
557524 On ch=5 n=c6 v=63
557762 On ch=5 n=c6 v=0
557764 On ch=5 n=g5 v=63
558002 On ch=5 n=g5 v=0
558004 On ch=5 n=c6 v=63
558242 On ch=5 n=c6 v=0
558244 On ch=5 n=g5 v=63
558482 On ch=5 n=g5 v=0
558484 On ch=5 n=c6 v=63
558722 On ch=5 n=c6 v=0
558724 On ch=5 n=a5 v=63
558962 On ch=5 n=a5 v=0
558964 On ch=5 n=d6 v=63
559202 On ch=5 n=d6 v=0
559204 On ch=5 n=a5 v=63
559442 On ch=5 n=a5 v=0
559444 On ch=5 n=d6 v=63
559682 On ch=5 n=d6 v=0
559684 On ch=5 n=a5 v=63
559922 On ch=5 n=a5 v=0
559924 On ch=5 n=d6 v=63
560162 On ch=5 n=d6 v=0
577446 On ch=5 n=g4 v=31
577682 On ch=5 n=g4 v=0
578886 On ch=5 n=a4 v=31
579122 On ch=5 n=a4 v=0
579366 On ch=5 n=b4 v=31
579602 On ch=5 n=b4 v=0
579846 On ch=5 n=c#5 v=31
580082 On ch=5 n=c#5 v=0
580326 On ch=5 n=d5 v=31
580562 On ch=5 n=d5 v=0
580806 On ch=5 n=d5 v=31
581042 On ch=5 n=d5 v=0
581044 On ch=5 n=c#5 v=31
581282 On ch=5 n=c#5 v=0
581284 On ch=5 n=d5 v=31
581762 On ch=5 n=d5 v=0
581764 On ch=5 n=b4 v=31
582242 On ch=5 n=b4 v=0
592326 On ch=5 n=c#5 v=31
592802 On ch=5 n=c#5 v=0
592804 On ch=5 n=b4 v=31
593282 On ch=5 n=b4 v=0
593284 On ch=5 n=c#5 v=31
593762 On ch=5 n=c#5 v=0
593764 On ch=5 n=e4 v=47
594242 On ch=5 n=e4 v=0
594244 On ch=5 n=d4 v=47
594722 On ch=5 n=d4 v=0
594724 On ch=5 n=c4 v=47
595202 On ch=5 n=c4 v=0
597726 On ch=5 n=d4 v=63
598082 On ch=5 n=d4 v=0
598084 On ch=5 n=a4 v=63
598562 On ch=5 n=a4 v=0
598564 On ch=5 n=g4 v=63
599042 On ch=5 n=g4 v=0
599044 On ch=5 n=f4 v=63
599522 On ch=5 n=f4 v=0
599524 On ch=5 n=a4 v=63
600002 On ch=5 n=a4 v=0
600004 On ch=5 n=g4 v=63
600482 On ch=5 n=g4 v=0
600484 On ch=5 n=f4 v=63
600962 On ch=5 n=f4 v=0
600964 On ch=5 n=a4 v=63
601442 On ch=5 n=a4 v=0
601444 On ch=5 n=a#4 v=63
601922 On ch=5 n=a#4 v=0
601924 On ch=5 n=c5 v=47
602402 On ch=5 n=c5 v=0
602404 On ch=5 n=a4 v=47
602882 On ch=5 n=a4 v=0
602884 On ch=5 n=a#4 v=47
603362 On ch=5 n=a#4 v=0
603364 On ch=5 n=c5 v=31
604802 On ch=5 n=c5 v=0
604804 On ch=5 n=c5 v=31
607682 On ch=5 n=c5 v=0
607684 On ch=5 n=a#4 v=31
608162 On ch=5 n=a#4 v=0
608164 On ch=5 n=c5 v=31
608642 On ch=5 n=c5 v=0
608644 On ch=5 n=d5 v=31
609122 On ch=5 n=d5 v=0
609124 On ch=5 n=d#5 v=19
610562 On ch=5 n=d#5 v=0
610564 On ch=5 n=f5 v=19
611042 On ch=5 n=f5 v=0
612006 On ch=5 n=e4 v=19
612482 On ch=5 n=e4 v=0
612484 On ch=5 n=f4 v=19
612962 On ch=5 n=f4 v=0
612964 On ch=5 n=g4 v=31
613442 On ch=5 n=g4 v=0
613444 On ch=5 n=a4 v=31
613922 On ch=5 n=a4 v=0
614886 On ch=5 n=f5 v=47
615362 On ch=5 n=f5 v=0
616326 On ch=5 n=g4 v=63
616562 On ch=5 n=g4 v=0
616564 On ch=5 n=c5 v=63
616802 On ch=5 n=c5 v=0
616804 On ch=5 n=g4 v=63
617042 On ch=5 n=g4 v=0
617044 On ch=5 n=c5 v=63
617282 On ch=5 n=c5 v=0
617284 On ch=5 n=g4 v=63
617522 On ch=5 n=g4 v=0
617524 On ch=5 n=c5 v=63
617762 On ch=5 n=c5 v=0
617764 On ch=5 n=b4 v=63
618002 On ch=5 n=b4 v=0
618004 On ch=5 n=d5 v=63
618242 On ch=5 n=d5 v=0
618244 On ch=5 n=b4 v=63
618482 On ch=5 n=b4 v=0
618484 On ch=5 n=d5 v=63
618722 On ch=5 n=d5 v=0
618724 On ch=5 n=b4 v=63
618962 On ch=5 n=b4 v=0
618964 On ch=5 n=d5 v=63
619202 On ch=5 n=d5 v=0
619204 On ch=5 n=g4 v=63
619442 On ch=5 n=g4 v=0
619444 On ch=5 n=c5 v=63
619682 On ch=5 n=c5 v=0
619684 On ch=5 n=g4 v=63
619922 On ch=5 n=g4 v=0
619924 On ch=5 n=c5 v=63
620162 On ch=5 n=c5 v=0
620164 On ch=5 n=g4 v=63
620402 On ch=5 n=g4 v=0
620404 On ch=5 n=c5 v=63
620642 On ch=5 n=c5 v=0
620644 On ch=5 n=b4 v=63
620882 On ch=5 n=b4 v=0
620884 On ch=5 n=d5 v=63
621122 On ch=5 n=d5 v=0
621124 On ch=5 n=b4 v=63
621362 On ch=5 n=b4 v=0
621364 On ch=5 n=d5 v=63
621602 On ch=5 n=d5 v=0
621604 On ch=5 n=b4 v=63
621842 On ch=5 n=b4 v=0
621844 On ch=5 n=d5 v=63
622082 On ch=5 n=d5 v=0
622084 On ch=5 n=g4 v=63
622322 On ch=5 n=g4 v=0
622324 On ch=5 n=c5 v=63
622562 On ch=5 n=c5 v=0
622564 On ch=5 n=g4 v=63
622802 On ch=5 n=g4 v=0
622804 On ch=5 n=c5 v=63
623042 On ch=5 n=c5 v=0
623044 On ch=5 n=g4 v=63
623282 On ch=5 n=g4 v=0
623284 On ch=5 n=c5 v=63
623522 On ch=5 n=c5 v=0
623524 On ch=5 n=a4 v=63
623762 On ch=5 n=a4 v=0
623764 On ch=5 n=d5 v=63
624002 On ch=5 n=d5 v=0
624004 On ch=5 n=a4 v=63
624242 On ch=5 n=a4 v=0
624244 On ch=5 n=d5 v=63
624482 On ch=5 n=d5 v=0
624484 On ch=5 n=a4 v=63
624722 On ch=5 n=a4 v=0
624724 On ch=5 n=d5 v=63
624962 On ch=5 n=d5 v=0
624964 On ch=5 n=e5 v=63
625922 On ch=5 n=e5 v=0
625924 On ch=5 n=f5 v=63
626402 On ch=5 n=f5 v=0
626404 On ch=5 n=e5 v=63
626882 On ch=5 n=e5 v=0
629286 On ch=5 n=d#5 v=63
629522 On ch=5 n=d#5 v=0
629766 On ch=5 n=d#5 v=47
630002 On ch=5 n=d#5 v=0
630004 On ch=5 n=d5 v=47
630242 On ch=5 n=d5 v=0
630244 On ch=5 n=d#5 v=47
630722 On ch=5 n=d#5 v=0
630724 On ch=5 n=d5 v=47
630962 On ch=5 n=d5 v=0
631206 On ch=5 n=d5 v=47
631442 On ch=5 n=d5 v=0
631444 On ch=5 n=c#5 v=47
631682 On ch=5 n=c#5 v=0
631684 On ch=5 n=d5 v=47
632162 On ch=5 n=d5 v=0
632164 On ch=5 n=d5 v=47
632402 On ch=5 n=d5 v=0
632646 On ch=5 n=d5 v=47
632882 On ch=5 n=d5 v=0
633126 On ch=5 n=d5 v=47
633362 On ch=5 n=d5 v=0
633606 On ch=5 n=d5 v=47
634082 On ch=5 n=d5 v=0
645126 On ch=5 n=e4 v=63
645362 On ch=5 n=e4 v=0
645606 On ch=5 n=f4 v=63
645842 On ch=5 n=f4 v=0
646086 On ch=5 n=g4 v=63
646322 On ch=5 n=g4 v=0
646566 On ch=5 n=a4 v=63
646802 On ch=5 n=a4 v=0
649446 On ch=5 n=g4 v=63
649682 On ch=5 n=g4 v=0
649684 On ch=5 n=c5 v=63
649922 On ch=5 n=c5 v=0
649924 On ch=5 n=g4 v=63
650162 On ch=5 n=g4 v=0
650164 On ch=5 n=c5 v=63
650402 On ch=5 n=c5 v=0
650404 On ch=5 n=g4 v=63
650642 On ch=5 n=g4 v=0
650644 On ch=5 n=c5 v=63
650882 On ch=5 n=c5 v=0
650884 On ch=5 n=b4 v=63
651122 On ch=5 n=b4 v=0
651124 On ch=5 n=d5 v=63
651362 On ch=5 n=d5 v=0
651364 On ch=5 n=b4 v=63
651602 On ch=5 n=b4 v=0
651604 On ch=5 n=d5 v=63
651842 On ch=5 n=d5 v=0
651844 On ch=5 n=b4 v=63
652082 On ch=5 n=b4 v=0
652084 On ch=5 n=d5 v=63
652322 On ch=5 n=d5 v=0
652324 On ch=5 n=g4 v=63
652562 On ch=5 n=g4 v=0
652564 On ch=5 n=c5 v=63
652802 On ch=5 n=c5 v=0
652804 On ch=5 n=g4 v=63
653042 On ch=5 n=g4 v=0
653044 On ch=5 n=c5 v=63
653282 On ch=5 n=c5 v=0
653284 On ch=5 n=g4 v=63
653522 On ch=5 n=g4 v=0
653524 On ch=5 n=c5 v=63
653762 On ch=5 n=c5 v=0
653764 On ch=5 n=b4 v=63
654002 On ch=5 n=b4 v=0
654004 On ch=5 n=d5 v=63
654242 On ch=5 n=d5 v=0
654244 On ch=5 n=b4 v=63
654482 On ch=5 n=b4 v=0
654484 On ch=5 n=d5 v=63
654722 On ch=5 n=d5 v=0
654724 On ch=5 n=b4 v=63
654962 On ch=5 n=b4 v=0
654964 On ch=5 n=d5 v=63
655202 On ch=5 n=d5 v=0
655204 On ch=5 n=g4 v=63
655442 On ch=5 n=g4 v=0
655444 On ch=5 n=c5 v=63
655682 On ch=5 n=c5 v=0
655684 On ch=5 n=g4 v=63
655922 On ch=5 n=g4 v=0
655924 On ch=5 n=c5 v=63
656162 On ch=5 n=c5 v=0
656164 On ch=5 n=g4 v=63
656402 On ch=5 n=g4 v=0
656404 On ch=5 n=c5 v=63
656642 On ch=5 n=c5 v=0
656644 On ch=5 n=a4 v=63
656882 On ch=5 n=a4 v=0
656884 On ch=5 n=d5 v=63
657122 On ch=5 n=d5 v=0
657124 On ch=5 n=a4 v=63
657362 On ch=5 n=a4 v=0
657364 On ch=5 n=d5 v=63
657602 On ch=5 n=d5 v=0
657604 On ch=5 n=a4 v=63
657842 On ch=5 n=a4 v=0
657844 On ch=5 n=d5 v=63
658082 On ch=5 n=d5 v=0
658082 Meta TrkEnd
TrkEnd
MTrk
0 SeqSpec 43 00 01 00
0 Meta TrkName "3.Allegro molto (Bar214)"
0 Meta 0x21 00
0 PrCh ch=6 p=0
0 PrCh ch=6 p=0
0 Par ch=6 c=7 v=127
11602 On ch=6 n=g3 v=63
11998 On ch=6 n=g3 v=0
12522 On ch=6 n=b3 v=63
12958 On ch=6 n=b3 v=0
13482 On ch=6 n=e4 v=63
13918 On ch=6 n=e4 v=0
36842 On ch=6 n=f#3 v=31
36958 On ch=6 n=f#3 v=0
36960 On ch=6 n=g3 v=31
37078 On ch=6 n=g3 v=0
37080 On ch=6 n=f#3 v=31
37198 On ch=6 n=f#3 v=0
37200 On ch=6 n=g3 v=31
37318 On ch=6 n=g3 v=0
37320 On ch=6 n=f#3 v=31
37438 On ch=6 n=f#3 v=0
37440 On ch=6 n=g3 v=31
37678 On ch=6 n=g3 v=0
44162 On ch=6 n=d4 v=47
46078 On ch=6 n=d4 v=0
46080 On ch=6 n=e4 v=63
47038 On ch=6 n=e4 v=0
48122 On ch=6 n=d3 v=63
48238 On ch=6 n=d3 v=0
48240 On ch=6 n=a3 v=63
48358 On ch=6 n=a3 v=0
48360 On ch=6 n=c#4 v=63
48478 On ch=6 n=c#4 v=0
48480 On ch=6 n=d4 v=63
48598 On ch=6 n=d4 v=0
48600 On ch=6 n=c#4 v=63
48718 On ch=6 n=c#4 v=0
48720 On ch=6 n=d4 v=63
48838 On ch=6 n=d4 v=0
48840 On ch=6 n=c#4 v=63
48958 On ch=6 n=c#4 v=0
48960 On ch=6 n=d4 v=63
49438 On ch=6 n=d4 v=0
81162 On ch=6 n=b4 v=63
81358 On ch=6 n=b4 v=0
81642 On ch=6 n=a4 v=63
81838 On ch=6 n=a4 v=0
82122 On ch=6 n=b4 v=63
82318 On ch=6 n=b4 v=0
82562 On ch=6 n=c4 v=63
82798 On ch=6 n=c4 v=0
85002 On ch=6 n=b4 v=63
85198 On ch=6 n=b4 v=0
85482 On ch=6 n=a4 v=81
85678 On ch=6 n=a4 v=0
85962 On ch=6 n=b4 v=81
86158 On ch=6 n=b4 v=0
86402 On ch=6 n=c4 v=81
86638 On ch=6 n=c4 v=0
87842 On ch=6 n=d4 v=81
88318 On ch=6 n=d4 v=0
89762 On ch=6 n=c5 v=47
89878 On ch=6 n=c5 v=0
90242 On ch=6 n=c5 v=47
90358 On ch=6 n=c5 v=0
90722 On ch=6 n=c5 v=47
90838 On ch=6 n=c5 v=0
91202 On ch=6 n=c5 v=47
91318 On ch=6 n=c5 v=0
91682 On ch=6 n=c5 v=47
91798 On ch=6 n=c5 v=0
92162 On ch=6 n=g4 v=81
92638 On ch=6 n=g4 v=0
94082 On ch=6 n=g4 v=31
94318 On ch=6 n=g4 v=0
94320 On ch=6 n=g4 v=31
94558 On ch=6 n=g4 v=0
94560 On ch=6 n=g4 v=31
94798 On ch=6 n=g4 v=0
94800 On ch=6 n=g4 v=31
95038 On ch=6 n=g4 v=0
95040 On ch=6 n=g4 v=31
95278 On ch=6 n=g4 v=0
95280 On ch=6 n=g4 v=31
95518 On ch=6 n=g4 v=0
95520 On ch=6 n=g4 v=31
95758 On ch=6 n=g4 v=0
95760 On ch=6 n=g4 v=31
95998 On ch=6 n=g4 v=0
96000 On ch=6 n=g4 v=31
96238 On ch=6 n=g4 v=0
96240 On ch=6 n=g4 v=31
96478 On ch=6 n=g4 v=0
96480 On ch=6 n=g4 v=31
96718 On ch=6 n=g4 v=0
96720 On ch=6 n=g4 v=31
96958 On ch=6 n=g4 v=0
96960 On ch=6 n=g4 v=31
97198 On ch=6 n=g4 v=0
97200 On ch=6 n=g4 v=31
97438 On ch=6 n=g4 v=0
97440 On ch=6 n=g4 v=31
97678 On ch=6 n=g4 v=0
97680 On ch=6 n=g4 v=31
97918 On ch=6 n=g4 v=0
97920 On ch=6 n=g4 v=31
98158 On ch=6 n=g4 v=0
98160 On ch=6 n=g4 v=31
98398 On ch=6 n=g4 v=0
98400 On ch=6 n=g4 v=31
98638 On ch=6 n=g4 v=0
98640 On ch=6 n=g4 v=31
98878 On ch=6 n=g4 v=0
98880 On ch=6 n=g4 v=31
99118 On ch=6 n=g4 v=0
99120 On ch=6 n=g4 v=31
99358 On ch=6 n=g4 v=0
99360 On ch=6 n=g4 v=31
99598 On ch=6 n=g4 v=0
99600 On ch=6 n=g4 v=31
99838 On ch=6 n=g4 v=0
99840 On ch=6 n=g4 v=31
100078 On ch=6 n=g4 v=0
100080 On ch=6 n=g4 v=31
100318 On ch=6 n=g4 v=0
100320 On ch=6 n=g4 v=31
100558 On ch=6 n=g4 v=0
100560 On ch=6 n=g4 v=31
100798 On ch=6 n=g4 v=0
100800 On ch=6 n=g4 v=31
101038 On ch=6 n=g4 v=0
101040 On ch=6 n=g4 v=31
101278 On ch=6 n=g4 v=0
101280 On ch=6 n=g4 v=31
101518 On ch=6 n=g4 v=0
101520 On ch=6 n=g4 v=31
101758 On ch=6 n=g4 v=0
101760 On ch=6 n=g4 v=31
101878 On ch=6 n=g4 v=0
103442 On ch=6 n=d3 v=31
103558 On ch=6 n=d3 v=0
105362 On ch=6 n=d3 v=31
105478 On ch=6 n=d3 v=0
118082 On ch=6 n=g4 v=36
118558 On ch=6 n=g4 v=0
118560 On ch=6 n=f4 v=49
119038 On ch=6 n=f4 v=0
119040 On ch=6 n=e4 v=49
119998 On ch=6 n=e4 v=0
120000 On ch=6 n=f3 v=63
120478 On ch=6 n=f3 v=0
120480 On ch=6 n=c3 v=63
120958 On ch=6 n=c3 v=0
122882 On ch=6 n=f3 v=63
123118 On ch=6 n=f3 v=0
123842 On ch=6 n=a#4 v=63
124318 On ch=6 n=a#4 v=0
124802 On ch=6 n=a4 v=63
125278 On ch=6 n=a4 v=0
125762 On ch=6 n=g4 v=63
126238 On ch=6 n=g4 v=0
126722 On ch=6 n=a4 v=63
126838 On ch=6 n=a4 v=0
126840 On ch=6 n=c5 v=63
126958 On ch=6 n=c5 v=0
126960 On ch=6 n=a4 v=63
127078 On ch=6 n=a4 v=0
127080 On ch=6 n=c5 v=63
127198 On ch=6 n=c5 v=0
127200 On ch=6 n=a4 v=31
127318 On ch=6 n=a4 v=0
127320 On ch=6 n=c5 v=31
127438 On ch=6 n=c5 v=0
127440 On ch=6 n=a4 v=31
127558 On ch=6 n=a4 v=0
127560 On ch=6 n=c5 v=31
127678 On ch=6 n=c5 v=0
127680 On ch=6 n=a#4 v=31
127798 On ch=6 n=a#4 v=0
127800 On ch=6 n=c5 v=31
127918 On ch=6 n=c5 v=0
127920 On ch=6 n=a#4 v=31
128038 On ch=6 n=a#4 v=0
128040 On ch=6 n=c5 v=31
128158 On ch=6 n=c5 v=0
128160 On ch=6 n=a#4 v=31
128278 On ch=6 n=a#4 v=0
128280 On ch=6 n=c5 v=31
128398 On ch=6 n=c5 v=0
128400 On ch=6 n=a#4 v=31
128518 On ch=6 n=a#4 v=0
128520 On ch=6 n=c5 v=31
128638 On ch=6 n=c5 v=0
128640 On ch=6 n=a4 v=31
128758 On ch=6 n=a4 v=0
128760 On ch=6 n=c5 v=31
128878 On ch=6 n=c5 v=0
128880 On ch=6 n=a4 v=31
128998 On ch=6 n=a4 v=0
129000 On ch=6 n=c5 v=31
129118 On ch=6 n=c5 v=0
129120 On ch=6 n=a4 v=31
129238 On ch=6 n=a4 v=0
129240 On ch=6 n=c5 v=53
129358 On ch=6 n=c5 v=0
129360 On ch=6 n=a4 v=53
129478 On ch=6 n=a4 v=0
129480 On ch=6 n=c5 v=53
129598 On ch=6 n=c5 v=0
129600 On ch=6 n=a#4 v=53
129718 On ch=6 n=a#4 v=0
129720 On ch=6 n=c5 v=53
129838 On ch=6 n=c5 v=0
129840 On ch=6 n=a#4 v=53
129958 On ch=6 n=a#4 v=0
129960 On ch=6 n=c5 v=53
130078 On ch=6 n=c5 v=0
130080 On ch=6 n=a#4 v=53
130198 On ch=6 n=a#4 v=0
130200 On ch=6 n=c5 v=53
130318 On ch=6 n=c5 v=0
130320 On ch=6 n=a#4 v=53
130438 On ch=6 n=a#4 v=0
130440 On ch=6 n=c5 v=53
130558 On ch=6 n=c5 v=0
130560 On ch=6 n=f4 v=62
130678 On ch=6 n=f4 v=0
130680 On ch=6 n=c5 v=62
130798 On ch=6 n=c5 v=0
130800 On ch=6 n=f4 v=62
130918 On ch=6 n=f4 v=0
130920 On ch=6 n=c5 v=62
131038 On ch=6 n=c5 v=0
131040 On ch=6 n=f4 v=62
131158 On ch=6 n=f4 v=0
131160 On ch=6 n=c5 v=62
131278 On ch=6 n=c5 v=0
131280 On ch=6 n=f4 v=62
131398 On ch=6 n=f4 v=0
131400 On ch=6 n=c5 v=62
131518 On ch=6 n=c5 v=0
131520 On ch=6 n=f4 v=62
131638 On ch=6 n=f4 v=0
131640 On ch=6 n=c#5 v=62
131758 On ch=6 n=c#5 v=0
131760 On ch=6 n=f4 v=62
131878 On ch=6 n=f4 v=0
131880 On ch=6 n=c#5 v=62
131998 On ch=6 n=c#5 v=0
132000 On ch=6 n=f4 v=62
132118 On ch=6 n=f4 v=0
132120 On ch=6 n=c#5 v=62
132238 On ch=6 n=c#5 v=0
132240 On ch=6 n=f4 v=62
132358 On ch=6 n=f4 v=0
132360 On ch=6 n=c#5 v=62
132478 On ch=6 n=c#5 v=0
132480 On ch=6 n=d#4 v=80
132598 On ch=6 n=d#4 v=0
132600 On ch=6 n=c#5 v=80
132718 On ch=6 n=c#5 v=0
132720 On ch=6 n=d#4 v=80
132838 On ch=6 n=d#4 v=0
132840 On ch=6 n=c#5 v=80
132958 On ch=6 n=c#5 v=0
132960 On ch=6 n=d#4 v=80
133078 On ch=6 n=d#4 v=0
133080 On ch=6 n=c5 v=80
133198 On ch=6 n=c5 v=0
133200 On ch=6 n=d#4 v=80
133318 On ch=6 n=d#4 v=0
133320 On ch=6 n=c5 v=80
133438 On ch=6 n=c5 v=0
133440 On ch=6 n=d#4 v=80
133558 On ch=6 n=d#4 v=0
133560 On ch=6 n=a#4 v=80
133678 On ch=6 n=a#4 v=0
133680 On ch=6 n=d#4 v=80
133798 On ch=6 n=d#4 v=0
133800 On ch=6 n=a#4 v=80
133918 On ch=6 n=a#4 v=0
133920 On ch=6 n=d#4 v=80
134038 On ch=6 n=d#4 v=0
134040 On ch=6 n=g#4 v=31
134158 On ch=6 n=g#4 v=0
134160 On ch=6 n=d#4 v=80
134278 On ch=6 n=d#4 v=0
134280 On ch=6 n=g#4 v=80
134398 On ch=6 n=g#4 v=0
134400 On ch=6 n=d#4 v=80
134518 On ch=6 n=d#4 v=0
134520 On ch=6 n=c#5 v=80
134638 On ch=6 n=c#5 v=0
134640 On ch=6 n=d#4 v=80
134758 On ch=6 n=d#4 v=0
134760 On ch=6 n=c#5 v=80
134878 On ch=6 n=c#5 v=0
134880 On ch=6 n=d#4 v=80
134998 On ch=6 n=d#4 v=0
135000 On ch=6 n=c5 v=80
135118 On ch=6 n=c5 v=0
135120 On ch=6 n=d#4 v=80
135238 On ch=6 n=d#4 v=0
135240 On ch=6 n=c5 v=80
135358 On ch=6 n=c5 v=0
135360 On ch=6 n=d#4 v=80
135478 On ch=6 n=d#4 v=0
135480 On ch=6 n=a#4 v=80
135598 On ch=6 n=a#4 v=0
135600 On ch=6 n=d#4 v=80
135718 On ch=6 n=d#4 v=0
135720 On ch=6 n=a#4 v=80
135838 On ch=6 n=a#4 v=0
135840 On ch=6 n=d#4 v=80
135958 On ch=6 n=d#4 v=0
135960 On ch=6 n=g#4 v=80
136078 On ch=6 n=g#4 v=0
136080 On ch=6 n=d#4 v=80
136198 On ch=6 n=d#4 v=0
136200 On ch=6 n=g#4 v=63
136318 On ch=6 n=g#4 v=0
136320 On ch=6 n=d#4 v=63
136438 On ch=6 n=d#4 v=0
136440 On ch=6 n=g#4 v=63
136558 On ch=6 n=g#4 v=0
136560 On ch=6 n=d#4 v=63
136678 On ch=6 n=d#4 v=0
136680 On ch=6 n=g#4 v=63
136798 On ch=6 n=g#4 v=0
136800 On ch=6 n=d#4 v=63
136918 On ch=6 n=d#4 v=0
136920 On ch=6 n=g#4 v=63
137038 On ch=6 n=g#4 v=0
137040 On ch=6 n=d#4 v=63
137158 On ch=6 n=d#4 v=0
137160 On ch=6 n=g#4 v=63
137278 On ch=6 n=g#4 v=0
137280 On ch=6 n=d#4 v=63
137398 On ch=6 n=d#4 v=0
137400 On ch=6 n=g4 v=63
137518 On ch=6 n=g4 v=0
137520 On ch=6 n=d#4 v=63
137638 On ch=6 n=d#4 v=0
137640 On ch=6 n=g4 v=63
137758 On ch=6 n=g4 v=0
137760 On ch=6 n=d#4 v=63
137878 On ch=6 n=d#4 v=0
137880 On ch=6 n=g4 v=63
137998 On ch=6 n=g4 v=0
138000 On ch=6 n=d#4 v=63
138118 On ch=6 n=d#4 v=0
138120 On ch=6 n=g4 v=63
138238 On ch=6 n=g4 v=0
138240 On ch=6 n=d#4 v=63
138358 On ch=6 n=d#4 v=0
138360 On ch=6 n=g#4 v=49
138478 On ch=6 n=g#4 v=0
138480 On ch=6 n=d#4 v=49
138598 On ch=6 n=d#4 v=0
138600 On ch=6 n=g#4 v=49
138718 On ch=6 n=g#4 v=0
138720 On ch=6 n=d#4 v=49
138838 On ch=6 n=d#4 v=0
138840 On ch=6 n=g#4 v=49
138958 On ch=6 n=g#4 v=0
138960 On ch=6 n=d#4 v=49
139078 On ch=6 n=d#4 v=0
139080 On ch=6 n=g#4 v=49
139198 On ch=6 n=g#4 v=0
139200 On ch=6 n=d#4 v=49
139318 On ch=6 n=d#4 v=0
139320 On ch=6 n=g4 v=49
139438 On ch=6 n=g4 v=0
139440 On ch=6 n=d#4 v=49
139558 On ch=6 n=d#4 v=0
139560 On ch=6 n=g4 v=49
139678 On ch=6 n=g4 v=0
139680 On ch=6 n=d#4 v=35
139798 On ch=6 n=d#4 v=0
139800 On ch=6 n=g4 v=35
139918 On ch=6 n=g4 v=0
139920 On ch=6 n=d#4 v=35
140038 On ch=6 n=d#4 v=0
140040 On ch=6 n=g4 v=35
140158 On ch=6 n=g4 v=0
140160 On ch=6 n=d#4 v=28
142558 On ch=6 n=d#4 v=0
142560 On ch=6 n=d#4 v=28
142798 On ch=6 n=d#4 v=0
142800 On ch=6 n=d#4 v=28
143038 On ch=6 n=d#4 v=0
143040 On ch=6 n=d#4 v=28
143518 On ch=6 n=d#4 v=0
148082 On ch=6 n=f4 v=31
148318 On ch=6 n=f4 v=0
148320 On ch=6 n=g4 v=31
148558 On ch=6 n=g4 v=0
148802 On ch=6 n=e4 v=31
149038 On ch=6 n=e4 v=0
149040 On ch=6 n=f4 v=31
149278 On ch=6 n=f4 v=0
150002 On ch=6 n=d4 v=63
150238 On ch=6 n=d4 v=0
150482 On ch=6 n=c4 v=63
150718 On ch=6 n=c4 v=0
150962 On ch=6 n=b3 v=63
151198 On ch=6 n=b3 v=0
151442 On ch=6 n=c4 v=63
151678 On ch=6 n=c4 v=0
151922 On ch=6 n=d4 v=63
152158 On ch=6 n=d4 v=0
152402 On ch=6 n=c4 v=63
152638 On ch=6 n=c4 v=0
152882 On ch=6 n=b3 v=63
153118 On ch=6 n=b3 v=0
153362 On ch=6 n=d4 v=63
153598 On ch=6 n=d4 v=0
153842 On ch=6 n=d#4 v=47
154078 On ch=6 n=d#4 v=0
154322 On ch=6 n=d4 v=47
154558 On ch=6 n=d4 v=0
154802 On ch=6 n=d#4 v=47
155038 On ch=6 n=d#4 v=0
155282 On ch=6 n=e4 v=47
155518 On ch=6 n=e4 v=0
155762 On ch=6 n=f4 v=63
155998 On ch=6 n=f4 v=0
156242 On ch=6 n=e4 v=63
156478 On ch=6 n=e4 v=0
156722 On ch=6 n=f4 v=63
156958 On ch=6 n=f4 v=0
157202 On ch=6 n=f4 v=63
157438 On ch=6 n=f4 v=0
157440 On ch=6 n=g#4 v=63
157918 On ch=6 n=g#4 v=0
160082 On ch=6 n=g#3 v=63
160198 On ch=6 n=g#3 v=0
160322 On ch=6 n=b4 v=63
160798 On ch=6 n=b4 v=0
161042 On ch=6 n=a3 v=63
161158 On ch=6 n=a3 v=0
161282 On ch=6 n=a4 v=63
161758 On ch=6 n=a4 v=0
162242 On ch=6 n=a#3 v=63
163198 On ch=6 n=a#3 v=0
179882 On ch=6 n=d#3 v=31
179998 On ch=6 n=d#3 v=0
180000 On ch=6 n=e3 v=31
180118 On ch=6 n=e3 v=0
180120 On ch=6 n=d#3 v=31
180238 On ch=6 n=d#3 v=0
180240 On ch=6 n=e3 v=31
180358 On ch=6 n=e3 v=0
180360 On ch=6 n=d#3 v=31
180478 On ch=6 n=d#3 v=0
180480 On ch=6 n=e3 v=19
180718 On ch=6 n=e3 v=0
193322 On ch=6 n=g#3 v=33
193438 On ch=6 n=g#3 v=0
193440 On ch=6 n=g3 v=33
193558 On ch=6 n=g3 v=0
193560 On ch=6 n=g#3 v=39
193678 On ch=6 n=g#3 v=0
193680 On ch=6 n=g3 v=39
193798 On ch=6 n=g3 v=0
193800 On ch=6 n=g#3 v=39
193918 On ch=6 n=g#3 v=0
193920 On ch=6 n=g3 v=39
194158 On ch=6 n=g3 v=0
194402 On ch=6 n=b4 v=47
194638 On ch=6 n=b4 v=0
194640 On ch=6 n=a4 v=47
194878 On ch=6 n=a4 v=0
194880 On ch=6 n=g4 v=47
195118 On ch=6 n=g4 v=0
197282 On ch=6 n=d5 v=47
197398 On ch=6 n=d5 v=0
197522 On ch=6 n=d5 v=47
197638 On ch=6 n=d5 v=0
197762 On ch=6 n=d5 v=47
198238 On ch=6 n=d5 v=0
211282 On ch=6 n=g3 v=63
211678 On ch=6 n=g3 v=0
212202 On ch=6 n=b3 v=63
212638 On ch=6 n=b3 v=0
213162 On ch=6 n=e4 v=63
213598 On ch=6 n=e4 v=0
229442 On ch=6 n=g#4 v=53
230398 On ch=6 n=g#4 v=0
230400 On ch=6 n=g4 v=66
230878 On ch=6 n=g4 v=0
232322 On ch=6 n=g4 v=63
232438 On ch=6 n=g4 v=0
232440 On ch=6 n=f#4 v=63
232558 On ch=6 n=f#4 v=0
232560 On ch=6 n=g4 v=63
232678 On ch=6 n=g4 v=0
232680 On ch=6 n=d4 v=63
232798 On ch=6 n=d4 v=0
232800 On ch=6 n=d#4 v=63
232918 On ch=6 n=d#4 v=0
232920 On ch=6 n=d4 v=63
233038 On ch=6 n=d4 v=0
233040 On ch=6 n=d#4 v=63
233158 On ch=6 n=d#4 v=0
233160 On ch=6 n=b3 v=63
233278 On ch=6 n=b3 v=0
233280 On ch=6 n=c4 v=63
233398 On ch=6 n=c4 v=0
233400 On ch=6 n=b3 v=63
233518 On ch=6 n=b3 v=0
233520 On ch=6 n=c4 v=63
233638 On ch=6 n=c4 v=0
233640 On ch=6 n=g3 v=63
233758 On ch=6 n=g3 v=0
233760 On ch=6 n=g#3 v=63
233878 On ch=6 n=g#3 v=0
233880 On ch=6 n=g3 v=63
233998 On ch=6 n=g3 v=0
234000 On ch=6 n=g#3 v=63
234118 On ch=6 n=g#3 v=0
234120 On ch=6 n=f#3 v=63
234238 On ch=6 n=f#3 v=0
234722 On ch=6 n=d4 v=63
235198 On ch=6 n=d4 v=0
235200 On ch=6 n=d4 v=63
235678 On ch=6 n=d4 v=0
253442 On ch=6 n=g4 v=55
254398 On ch=6 n=g4 v=0
271242 On ch=6 n=e4 v=63
271678 On ch=6 n=e4 v=0
271722 On ch=6 n=d4 v=63
272158 On ch=6 n=d4 v=0
272202 On ch=6 n=e4 v=63
272638 On ch=6 n=e4 v=0
272640 On ch=6 n=f3 v=63
272878 On ch=6 n=f3 v=0
275082 On ch=6 n=e4 v=63
275518 On ch=6 n=e4 v=0
275562 On ch=6 n=d4 v=63
275998 On ch=6 n=d4 v=0
276042 On ch=6 n=e4 v=63
276478 On ch=6 n=e4 v=0
276480 On ch=6 n=f3 v=63
276718 On ch=6 n=f3 v=0
277922 On ch=6 n=b3 v=31
278398 On ch=6 n=b3 v=0
279842 On ch=6 n=f4 v=31
279958 On ch=6 n=f4 v=0
280322 On ch=6 n=f4 v=63
280438 On ch=6 n=f4 v=0
280802 On ch=6 n=f4 v=63
280918 On ch=6 n=f4 v=0
281282 On ch=6 n=f4 v=63
281398 On ch=6 n=f4 v=0
281762 On ch=6 n=f4 v=63
281878 On ch=6 n=f4 v=0
282242 On ch=6 n=c5 v=105
282718 On ch=6 n=c5 v=0
283202 On ch=6 n=g4 v=105
284158 On ch=6 n=g4 v=0
295442 On ch=6 n=g3 v=63
295558 On ch=6 n=g3 v=0
297362 On ch=6 n=g3 v=63
297478 On ch=6 n=g3 v=0
298642 On ch=6 n=d4 v=63
299038 On ch=6 n=d4 v=0
299520 Par ch=6 c=64 v=127
299602 On ch=6 n=g3 v=105
299998 On ch=6 n=g3 v=0
300956 Par ch=6 c=64 v=0
303444 On ch=6 n=c4 v=47
304320 On ch=6 n=c4 v=0
304322 On ch=6 n=f4 v=47
305280 On ch=6 n=f4 v=0
305282 On ch=6 n=f4 v=31
306240 On ch=6 n=f4 v=0
306242 On ch=6 n=f4 v=31
307200 On ch=6 n=f4 v=0
309124 On ch=6 n=a#4 v=63
309600 On ch=6 n=a#4 v=0
314964 On ch=6 n=c4 v=47
315840 On ch=6 n=c4 v=0
315842 On ch=6 n=f4 v=47
316800 On ch=6 n=f4 v=0
316802 On ch=6 n=f4 v=47
317760 On ch=6 n=f4 v=0
317762 On ch=6 n=f4 v=47
318720 On ch=6 n=f4 v=0
318722 On ch=6 n=a3 v=47
320640 On ch=6 n=a3 v=0
322564 On ch=6 n=c4 v=31
323520 On ch=6 n=c4 v=0
323522 On ch=6 n=f4 v=35
324960 On ch=6 n=f4 v=0
330724 On ch=6 n=g4 v=19
331200 On ch=6 n=g4 v=0
331324 On ch=6 n=f#3 v=31
331440 On ch=6 n=f#3 v=0
331442 On ch=6 n=g3 v=31
331560 On ch=6 n=g3 v=0
331562 On ch=6 n=a3 v=31
331680 On ch=6 n=a3 v=0
331682 On ch=6 n=g3 v=31
331920 On ch=6 n=g3 v=0
333364 On ch=6 n=f4 v=30
333600 On ch=6 n=f4 v=0
333602 On ch=6 n=e4 v=30
334080 On ch=6 n=e4 v=0
337444 On ch=6 n=g4 v=31
337920 On ch=6 n=g4 v=0
337922 On ch=6 n=a4 v=31
338400 On ch=6 n=a4 v=0
338884 On ch=6 n=b4 v=30
339360 On ch=6 n=b4 v=0
342724 On ch=6 n=c4 v=30
342960 On ch=6 n=c4 v=0
342962 On ch=6 n=c4 v=30
343200 On ch=6 n=c4 v=0
343202 On ch=6 n=c4 v=30
343440 On ch=6 n=c4 v=0
343442 On ch=6 n=c4 v=30
343680 On ch=6 n=c4 v=0
343682 On ch=6 n=d4 v=30
343920 On ch=6 n=d4 v=0
343922 On ch=6 n=d4 v=30
344160 On ch=6 n=d4 v=0
344162 On ch=6 n=d4 v=30
344400 On ch=6 n=d4 v=0
344402 On ch=6 n=d4 v=30
344640 On ch=6 n=d4 v=0
344642 On ch=6 n=d4 v=30
344880 On ch=6 n=d4 v=0
344882 On ch=6 n=d4 v=30
345120 On ch=6 n=d4 v=0
345122 On ch=6 n=c4 v=30
345600 On ch=6 n=c4 v=0
349444 On ch=6 n=d4 v=31
350880 On ch=6 n=d4 v=0
350882 On ch=6 n=e4 v=31
352320 On ch=6 n=e4 v=0
352322 On ch=6 n=f4 v=31
353280 On ch=6 n=f4 v=0
353282 On ch=6 n=f#4 v=31
353760 On ch=6 n=f#4 v=0
361444 On ch=6 n=a#4 v=30
362400 On ch=6 n=a#4 v=0
362484 On ch=6 n=c4 v=47
363360 On ch=6 n=c4 v=0
363362 On ch=6 n=f4 v=47
363840 On ch=6 n=f4 v=0
363842 On ch=6 n=f4 v=47
364320 On ch=6 n=f4 v=0
364322 On ch=6 n=f4 v=31
365280 On ch=6 n=f4 v=0
365282 On ch=6 n=f4 v=31
366240 On ch=6 n=f4 v=0
368164 On ch=6 n=a#4 v=63
368640 On ch=6 n=a#4 v=0
371524 On ch=6 n=f4 v=47
372000 On ch=6 n=f4 v=0
372002 On ch=6 n=f4 v=47
372480 On ch=6 n=f4 v=0
372482 On ch=6 n=f4 v=47
372960 On ch=6 n=f4 v=0
374884 On ch=6 n=c4 v=31
375360 On ch=6 n=c4 v=0
375362 On ch=6 n=f4 v=36
376080 On ch=6 n=f4 v=0
383764 On ch=6 n=g#4 v=31
384000 On ch=6 n=g#4 v=0
384002 On ch=6 n=g#4 v=31
384480 On ch=6 n=g#4 v=0
384482 On ch=6 n=g4 v=35
384960 On ch=6 n=g4 v=0
386644 On ch=6 n=e5 v=47
386880 On ch=6 n=e5 v=0
386882 On ch=6 n=f5 v=31
387360 On ch=6 n=f5 v=0
391204 On ch=6 n=d4 v=30
391680 On ch=6 n=d4 v=0
392164 On ch=6 n=e4 v=30
392640 On ch=6 n=e4 v=0
392642 On ch=6 n=f4 v=30
392880 On ch=6 n=f4 v=0
392882 On ch=6 n=f4 v=30
393120 On ch=6 n=f4 v=0
393122 On ch=6 n=f4 v=30
393360 On ch=6 n=f4 v=0
393362 On ch=6 n=f4 v=30
393600 On ch=6 n=f4 v=0
393602 On ch=6 n=f4 v=30
393840 On ch=6 n=f4 v=0
393842 On ch=6 n=f4 v=30
394080 On ch=6 n=f4 v=0
394082 On ch=6 n=g4 v=30
394320 On ch=6 n=g4 v=0
394322 On ch=6 n=g4 v=30
394560 On ch=6 n=g4 v=0
394562 On ch=6 n=g4 v=30
394800 On ch=6 n=g4 v=0
394802 On ch=6 n=g4 v=30
395040 On ch=6 n=g4 v=0
395042 On ch=6 n=g4 v=30
395280 On ch=6 n=g4 v=0
395282 On ch=6 n=g4 v=30
395520 On ch=6 n=g4 v=0
395522 On ch=6 n=f4 v=30
395760 On ch=6 n=f4 v=0
395762 On ch=6 n=f4 v=30
396000 On ch=6 n=f4 v=0
396002 On ch=6 n=f3 v=30
396240 On ch=6 n=f3 v=0
396242 On ch=6 n=f3 v=30
396480 On ch=6 n=f3 v=0
396482 On ch=6 n=f3 v=30
396720 On ch=6 n=f3 v=0
396722 On ch=6 n=f3 v=30
396960 On ch=6 n=f3 v=0
396962 On ch=6 n=g3 v=30
397200 On ch=6 n=g3 v=0
397202 On ch=6 n=g3 v=30
397440 On ch=6 n=g3 v=0
397442 On ch=6 n=g3 v=30
397680 On ch=6 n=g3 v=0
397682 On ch=6 n=g3 v=30
397920 On ch=6 n=g3 v=0
397922 On ch=6 n=g3 v=30
398160 On ch=6 n=g3 v=0
398162 On ch=6 n=a3 v=30
398400 On ch=6 n=a3 v=0
398402 On ch=6 n=a#3 v=30
398640 On ch=6 n=a#3 v=0
398642 On ch=6 n=c4 v=30
398880 On ch=6 n=c4 v=0
398882 On ch=6 n=a#3 v=30
399120 On ch=6 n=a#3 v=0
399122 On ch=6 n=b3 v=30
399360 On ch=6 n=b3 v=0
399362 On ch=6 n=c4 v=30
399600 On ch=6 n=c4 v=0
399602 On ch=6 n=e4 v=30
399840 On ch=6 n=e4 v=0
399842 On ch=6 n=f4 v=30
400080 On ch=6 n=f4 v=0
400082 On ch=6 n=a4 v=30
400320 On ch=6 n=a4 v=0
400322 On ch=6 n=a#4 v=30
400560 On ch=6 n=a#4 v=0
402844 On ch=6 n=c#4 v=31
402960 On ch=6 n=c#4 v=0
402962 On ch=6 n=c4 v=31
403080 On ch=6 n=c4 v=0
403082 On ch=6 n=e4 v=31
403200 On ch=6 n=e4 v=0
403202 On ch=6 n=f4 v=31
403680 On ch=6 n=f4 v=0
404284 On ch=6 n=c#4 v=31
404400 On ch=6 n=c#4 v=0
404402 On ch=6 n=c4 v=31
404520 On ch=6 n=c4 v=0
404522 On ch=6 n=e4 v=31
404640 On ch=6 n=e4 v=0
404642 On ch=6 n=f4 v=31
405120 On ch=6 n=f4 v=0
405724 On ch=6 n=c#4 v=30
405840 On ch=6 n=c#4 v=0
405842 On ch=6 n=c4 v=30
405960 On ch=6 n=c4 v=0
405962 On ch=6 n=e4 v=30
406080 On ch=6 n=e4 v=0
406082 On ch=6 n=f4 v=30
407040 On ch=6 n=f4 v=0
435846 On ch=6 n=d4 v=30
436322 On ch=6 n=d4 v=0
436324 On ch=6 n=g4 v=30
436562 On ch=6 n=g4 v=0
437286 On ch=6 n=d4 v=30
437762 On ch=6 n=d4 v=0
437764 On ch=6 n=g4 v=30
438002 On ch=6 n=g4 v=0
438726 On ch=6 n=d4 v=30
439202 On ch=6 n=d4 v=0
439204 On ch=6 n=g4 v=30
439442 On ch=6 n=g4 v=0
441126 On ch=6 n=b4 v=30
441602 On ch=6 n=b4 v=0
441604 On ch=6 n=a4 v=30
442082 On ch=6 n=a4 v=0
442084 On ch=6 n=g4 v=47
442562 On ch=6 n=g4 v=0
442564 On ch=6 n=b3 v=47
443042 On ch=6 n=b3 v=0
443044 On ch=6 n=a3 v=47
443522 On ch=6 n=a3 v=0
443524 On ch=6 n=g3 v=63
444002 On ch=6 n=g3 v=0
470406 On ch=6 n=d4 v=30
470882 On ch=6 n=d4 v=0
470884 On ch=6 n=g4 v=30
471122 On ch=6 n=g4 v=0
471846 On ch=6 n=d4 v=30
472322 On ch=6 n=d4 v=0
472324 On ch=6 n=g4 v=30
472562 On ch=6 n=g4 v=0
473286 On ch=6 n=d4 v=30
473762 On ch=6 n=d4 v=0
473764 On ch=6 n=g4 v=30
474002 On ch=6 n=g4 v=0
475686 On ch=6 n=b4 v=30
476162 On ch=6 n=b4 v=0
476164 On ch=6 n=a4 v=30
476642 On ch=6 n=a4 v=0
476644 On ch=6 n=g4 v=47
477122 On ch=6 n=g4 v=0
477124 On ch=6 n=b3 v=47
477602 On ch=6 n=b3 v=0
477604 On ch=6 n=a3 v=47
478082 On ch=6 n=a3 v=0
478084 On ch=6 n=g3 v=63
478562 On ch=6 n=g3 v=0
495366 On ch=6 n=a4 v=63
495842 On ch=6 n=a4 v=0
495844 On ch=6 n=c#4 v=47
496322 On ch=6 n=c#4 v=0
496324 On ch=6 n=b3 v=47
496802 On ch=6 n=b3 v=0
496804 On ch=6 n=a3 v=47
497282 On ch=6 n=a3 v=0
499766 On ch=6 n=a3 v=63
500162 On ch=6 n=a3 v=0
500164 On ch=6 n=f4 v=63
500642 On ch=6 n=f4 v=0
500644 On ch=6 n=e4 v=63
501122 On ch=6 n=e4 v=0
501124 On ch=6 n=d4 v=63
501602 On ch=6 n=d4 v=0
501604 On ch=6 n=f4 v=63
502082 On ch=6 n=f4 v=0
502084 On ch=6 n=e4 v=63
502562 On ch=6 n=e4 v=0
502564 On ch=6 n=d4 v=63
503042 On ch=6 n=d4 v=0
503044 On ch=6 n=f#4 v=63
503522 On ch=6 n=f#4 v=0
503524 On ch=6 n=g4 v=63
504002 On ch=6 n=g4 v=0
504004 On ch=6 n=a4 v=47
504482 On ch=6 n=a4 v=0
504484 On ch=6 n=f#4 v=47
504962 On ch=6 n=f#4 v=0
504964 On ch=6 n=g4 v=47
505442 On ch=6 n=g4 v=0
505444 On ch=6 n=a4 v=31
509762 On ch=6 n=a4 v=0
509764 On ch=6 n=g4 v=31
510242 On ch=6 n=g4 v=0
510244 On ch=6 n=a4 v=31
510722 On ch=6 n=a4 v=0
510724 On ch=6 n=a#4 v=31
511202 On ch=6 n=a#4 v=0
511204 On ch=6 n=c5 v=30
512642 On ch=6 n=c5 v=0
512644 On ch=6 n=d5 v=30
513122 On ch=6 n=d5 v=0
514086 On ch=6 n=c4 v=30
514562 On ch=6 n=c4 v=0
514564 On ch=6 n=d4 v=30
515042 On ch=6 n=d4 v=0
515044 On ch=6 n=e4 v=31
515522 On ch=6 n=e4 v=0
515524 On ch=6 n=f4 v=31
516002 On ch=6 n=f4 v=0
516966 On ch=6 n=d5 v=31
517442 On ch=6 n=d5 v=0
518406 On ch=6 n=e4 v=63
518642 On ch=6 n=e4 v=0
518886 On ch=6 n=e4 v=63
519122 On ch=6 n=e4 v=0
519366 On ch=6 n=e4 v=63
519602 On ch=6 n=e4 v=0
519846 On ch=6 n=g4 v=63
520082 On ch=6 n=g4 v=0
520326 On ch=6 n=g4 v=63
520562 On ch=6 n=g4 v=0
520806 On ch=6 n=g4 v=63
521042 On ch=6 n=g4 v=0
521286 On ch=6 n=e4 v=63
521522 On ch=6 n=e4 v=0
521766 On ch=6 n=e4 v=63
522002 On ch=6 n=e4 v=0
522246 On ch=6 n=e4 v=63
522482 On ch=6 n=e4 v=0
522726 On ch=6 n=g4 v=63
522962 On ch=6 n=g4 v=0
523206 On ch=6 n=g4 v=63
523442 On ch=6 n=g4 v=0
523686 On ch=6 n=g4 v=63
523922 On ch=6 n=g4 v=0
524166 On ch=6 n=e4 v=63
524402 On ch=6 n=e4 v=0
524646 On ch=6 n=e4 v=63
524882 On ch=6 n=e4 v=0
525126 On ch=6 n=e4 v=63
525362 On ch=6 n=e4 v=0
525606 On ch=6 n=f4 v=63
525842 On ch=6 n=f4 v=0
526086 On ch=6 n=f4 v=63
526322 On ch=6 n=f4 v=0
526566 On ch=6 n=f4 v=63
526802 On ch=6 n=f4 v=0
527046 On ch=6 n=g4 v=63
528482 On ch=6 n=g4 v=0
528484 On ch=6 n=c5 v=63
528962 On ch=6 n=c5 v=0
531366 On ch=6 n=c5 v=63
531602 On ch=6 n=c5 v=0
531846 On ch=6 n=c5 v=47
532082 On ch=6 n=c5 v=0
532084 On ch=6 n=b4 v=47
532322 On ch=6 n=b4 v=0
532324 On ch=6 n=c5 v=47
532802 On ch=6 n=c5 v=0
532804 On ch=6 n=b4 v=47
533042 On ch=6 n=b4 v=0
533286 On ch=6 n=b4 v=47
533522 On ch=6 n=b4 v=0
533524 On ch=6 n=a#4 v=47
533762 On ch=6 n=a#4 v=0
533764 On ch=6 n=b4 v=47
534242 On ch=6 n=b4 v=0
534244 On ch=6 n=a4 v=47
534482 On ch=6 n=a4 v=0
534726 On ch=6 n=a4 v=47
534962 On ch=6 n=a4 v=0
535206 On ch=6 n=a4 v=47
535442 On ch=6 n=a4 v=0
535686 On ch=6 n=g4 v=47
536162 On ch=6 n=g4 v=0
547206 On ch=6 n=c4 v=47
547442 On ch=6 n=c4 v=0
547686 On ch=6 n=d4 v=47
547922 On ch=6 n=d4 v=0
548166 On ch=6 n=e4 v=47
548402 On ch=6 n=e4 v=0
548646 On ch=6 n=f4 v=47
548882 On ch=6 n=f4 v=0
551526 On ch=6 n=e5 v=47
552002 On ch=6 n=e5 v=0
552004 On ch=6 n=g5 v=47
552482 On ch=6 n=g5 v=0
552484 On ch=6 n=g5 v=47
552962 On ch=6 n=g5 v=0
552964 On ch=6 n=g5 v=47
553442 On ch=6 n=g5 v=0
553444 On ch=6 n=g5 v=47
553922 On ch=6 n=g5 v=0
553924 On ch=6 n=g5 v=47
554402 On ch=6 n=g5 v=0
554404 On ch=6 n=e5 v=47
554882 On ch=6 n=e5 v=0
554884 On ch=6 n=e5 v=47
555362 On ch=6 n=e5 v=0
555364 On ch=6 n=e5 v=47
555842 On ch=6 n=e5 v=0
555844 On ch=6 n=g5 v=47
556322 On ch=6 n=g5 v=0
556324 On ch=6 n=g5 v=47
556802 On ch=6 n=g5 v=0
556804 On ch=6 n=g5 v=47
557282 On ch=6 n=g5 v=0
557284 On ch=6 n=e5 v=47
557762 On ch=6 n=e5 v=0
557764 On ch=6 n=e5 v=47
558242 On ch=6 n=e5 v=0
558244 On ch=6 n=e5 v=47
558722 On ch=6 n=e5 v=0
558724 On ch=6 n=f5 v=47
559202 On ch=6 n=f5 v=0
559204 On ch=6 n=f5 v=47
559682 On ch=6 n=f5 v=0
559684 On ch=6 n=f5 v=47
560162 On ch=6 n=f5 v=0
561606 On ch=6 n=e4 v=47
561842 On ch=6 n=e4 v=0
561844 On ch=6 n=g4 v=47
562082 On ch=6 n=g4 v=0
562084 On ch=6 n=e4 v=47
562322 On ch=6 n=e4 v=0
562324 On ch=6 n=g4 v=47
562562 On ch=6 n=g4 v=0
562564 On ch=6 n=e4 v=47
562802 On ch=6 n=e4 v=0
562804 On ch=6 n=g4 v=47
563042 On ch=6 n=g4 v=0
563044 On ch=6 n=f4 v=47
563282 On ch=6 n=f4 v=0
563284 On ch=6 n=g4 v=47
563522 On ch=6 n=g4 v=0
563524 On ch=6 n=f4 v=47
563762 On ch=6 n=f4 v=0
563764 On ch=6 n=g4 v=47
564002 On ch=6 n=g4 v=0
564004 On ch=6 n=f4 v=47
564242 On ch=6 n=f4 v=0
564244 On ch=6 n=g4 v=47
564482 On ch=6 n=g4 v=0
564484 On ch=6 n=e4 v=47
564722 On ch=6 n=e4 v=0
564724 On ch=6 n=g4 v=47
564962 On ch=6 n=g4 v=0
564964 On ch=6 n=e4 v=47
565202 On ch=6 n=e4 v=0
565204 On ch=6 n=g4 v=47
565442 On ch=6 n=g4 v=0
565444 On ch=6 n=e4 v=47
565682 On ch=6 n=e4 v=0
565684 On ch=6 n=g4 v=47
565922 On ch=6 n=g4 v=0
565924 On ch=6 n=f4 v=47
566162 On ch=6 n=f4 v=0
566164 On ch=6 n=g4 v=47
566402 On ch=6 n=g4 v=0
566404 On ch=6 n=f4 v=47
566642 On ch=6 n=f4 v=0
566644 On ch=6 n=g4 v=47
566882 On ch=6 n=g4 v=0
566884 On ch=6 n=f4 v=47
567122 On ch=6 n=f4 v=0
567124 On ch=6 n=g4 v=47
567362 On ch=6 n=g4 v=0
567364 On ch=6 n=e4 v=47
567602 On ch=6 n=e4 v=0
567604 On ch=6 n=g4 v=47
567842 On ch=6 n=g4 v=0
567844 On ch=6 n=e4 v=47
568082 On ch=6 n=e4 v=0
568084 On ch=6 n=g4 v=47
568322 On ch=6 n=g4 v=0
568324 On ch=6 n=e4 v=47
568562 On ch=6 n=e4 v=0
568564 On ch=6 n=g4 v=47
568802 On ch=6 n=g4 v=0
568804 On ch=6 n=a4 v=47
569042 On ch=6 n=a4 v=0
569044 On ch=6 n=d5 v=47
569282 On ch=6 n=d5 v=0
569284 On ch=6 n=a4 v=47
569522 On ch=6 n=a4 v=0
569524 On ch=6 n=d5 v=47
569762 On ch=6 n=d5 v=0
569764 On ch=6 n=a4 v=47
570002 On ch=6 n=a4 v=0
570004 On ch=6 n=d5 v=47
570242 On ch=6 n=d5 v=0
570244 On ch=6 n=g4 v=47
571682 On ch=6 n=g4 v=0
571684 On ch=6 n=c5 v=47
572162 On ch=6 n=c5 v=0
573606 On ch=6 n=g4 v=31
574082 On ch=6 n=g4 v=0
574084 On ch=6 n=f4 v=31
574562 On ch=6 n=f4 v=0
574564 On ch=6 n=e4 v=31
575042 On ch=6 n=e4 v=0
575044 On ch=6 n=g3 v=47
575522 On ch=6 n=g3 v=0
575524 On ch=6 n=f3 v=47
576002 On ch=6 n=f3 v=0
576004 On ch=6 n=e3 v=47
576482 On ch=6 n=e3 v=0
576484 On ch=6 n=c4 v=63
576722 On ch=6 n=c4 v=0
576966 On ch=6 n=c4 v=63
577202 On ch=6 n=c4 v=0
577446 On ch=6 n=c4 v=63
577922 On ch=6 n=c4 v=0
593286 On ch=6 n=a4 v=63
593762 On ch=6 n=a4 v=0
593764 On ch=6 n=c#4 v=47
594242 On ch=6 n=c#4 v=0
594244 On ch=6 n=b3 v=47
594722 On ch=6 n=b3 v=0
594724 On ch=6 n=a3 v=47
595202 On ch=6 n=a3 v=0
597686 On ch=6 n=a3 v=63
598082 On ch=6 n=a3 v=0
598084 On ch=6 n=f4 v=63
598562 On ch=6 n=f4 v=0
598564 On ch=6 n=e4 v=63
599042 On ch=6 n=e4 v=0
599044 On ch=6 n=d4 v=63
599522 On ch=6 n=d4 v=0
599524 On ch=6 n=f4 v=63
600002 On ch=6 n=f4 v=0
600004 On ch=6 n=e4 v=63
600482 On ch=6 n=e4 v=0
600484 On ch=6 n=d4 v=63
600962 On ch=6 n=d4 v=0
600964 On ch=6 n=f#4 v=63
601442 On ch=6 n=f#4 v=0
601444 On ch=6 n=g4 v=63
601922 On ch=6 n=g4 v=0
601924 On ch=6 n=a4 v=47
602402 On ch=6 n=a4 v=0
602404 On ch=6 n=f#4 v=47
602882 On ch=6 n=f#4 v=0
602884 On ch=6 n=g4 v=47
603362 On ch=6 n=g4 v=0
603364 On ch=6 n=a4 v=31
604802 On ch=6 n=a4 v=0
604804 On ch=6 n=a4 v=31
607682 On ch=6 n=a4 v=0
607684 On ch=6 n=g4 v=31
608162 On ch=6 n=g4 v=0
608164 On ch=6 n=a4 v=31
608642 On ch=6 n=a4 v=0
608644 On ch=6 n=a#4 v=31
609122 On ch=6 n=a#4 v=0
609124 On ch=6 n=c5 v=19
610562 On ch=6 n=c5 v=0
610564 On ch=6 n=d5 v=19
611042 On ch=6 n=d5 v=0
612006 On ch=6 n=c4 v=19
612482 On ch=6 n=c4 v=0
612484 On ch=6 n=d4 v=19
612962 On ch=6 n=d4 v=0
612964 On ch=6 n=e4 v=31
613442 On ch=6 n=e4 v=0
613444 On ch=6 n=f4 v=31
613922 On ch=6 n=f4 v=0
614886 On ch=6 n=d5 v=31
615362 On ch=6 n=d5 v=0
616326 On ch=6 n=e4 v=63
616562 On ch=6 n=e4 v=0
616806 On ch=6 n=e4 v=63
617042 On ch=6 n=e4 v=0
617286 On ch=6 n=e4 v=63
617522 On ch=6 n=e4 v=0
617766 On ch=6 n=g4 v=63
618002 On ch=6 n=g4 v=0
618246 On ch=6 n=g4 v=63
618482 On ch=6 n=g4 v=0
618726 On ch=6 n=g4 v=63
618962 On ch=6 n=g4 v=0
619206 On ch=6 n=e4 v=63
619442 On ch=6 n=e4 v=0
619686 On ch=6 n=e4 v=63
619922 On ch=6 n=e4 v=0
620166 On ch=6 n=e4 v=63
620402 On ch=6 n=e4 v=0
620646 On ch=6 n=g4 v=63
620882 On ch=6 n=g4 v=0
621126 On ch=6 n=g4 v=63
621362 On ch=6 n=g4 v=0
621606 On ch=6 n=g4 v=63
621842 On ch=6 n=g4 v=0
622086 On ch=6 n=e4 v=63
622322 On ch=6 n=e4 v=0
622566 On ch=6 n=e4 v=63
622802 On ch=6 n=e4 v=0
623046 On ch=6 n=e4 v=63
623282 On ch=6 n=e4 v=0
623526 On ch=6 n=f4 v=63
623762 On ch=6 n=f4 v=0
624006 On ch=6 n=f4 v=63
624242 On ch=6 n=f4 v=0
624486 On ch=6 n=f4 v=63
624722 On ch=6 n=f4 v=0
624966 On ch=6 n=g4 v=63
626402 On ch=6 n=g4 v=0
626404 On ch=6 n=c5 v=63
626882 On ch=6 n=c5 v=0
629286 On ch=6 n=c5 v=63
629522 On ch=6 n=c5 v=0
629766 On ch=6 n=c5 v=47
630002 On ch=6 n=c5 v=0
630004 On ch=6 n=b4 v=47
630242 On ch=6 n=b4 v=0
630244 On ch=6 n=c5 v=47
630722 On ch=6 n=c5 v=0
630724 On ch=6 n=b4 v=47
630962 On ch=6 n=b4 v=0
631206 On ch=6 n=b4 v=47
631442 On ch=6 n=b4 v=0
631444 On ch=6 n=a#4 v=47
631682 On ch=6 n=a#4 v=0
631684 On ch=6 n=b4 v=47
632162 On ch=6 n=b4 v=0
632164 On ch=6 n=a4 v=47
632402 On ch=6 n=a4 v=0
632646 On ch=6 n=a4 v=47
632882 On ch=6 n=a4 v=0
633126 On ch=6 n=a4 v=47
633362 On ch=6 n=a4 v=0
633606 On ch=6 n=g4 v=47
634082 On ch=6 n=g4 v=0
645126 On ch=6 n=c4 v=47
645362 On ch=6 n=c4 v=0
645606 On ch=6 n=d4 v=47
645842 On ch=6 n=d4 v=0
646086 On ch=6 n=e4 v=47
646322 On ch=6 n=e4 v=0
646566 On ch=6 n=f4 v=47
646802 On ch=6 n=f4 v=0
649446 On ch=6 n=e5 v=47
649922 On ch=6 n=e5 v=0
649924 On ch=6 n=g5 v=47
650402 On ch=6 n=g5 v=0
650404 On ch=6 n=g5 v=47
650882 On ch=6 n=g5 v=0
650884 On ch=6 n=g5 v=47
651362 On ch=6 n=g5 v=0
651364 On ch=6 n=g5 v=47
651842 On ch=6 n=g5 v=0
651844 On ch=6 n=g5 v=47
652322 On ch=6 n=g5 v=0
652324 On ch=6 n=e5 v=47
652802 On ch=6 n=e5 v=0
652804 On ch=6 n=e5 v=47
653282 On ch=6 n=e5 v=0
653284 On ch=6 n=e5 v=47
653762 On ch=6 n=e5 v=0
653764 On ch=6 n=g5 v=47
654242 On ch=6 n=g5 v=0
654244 On ch=6 n=g5 v=47
654722 On ch=6 n=g5 v=0
654724 On ch=6 n=g5 v=47
655202 On ch=6 n=g5 v=0
655204 On ch=6 n=e5 v=47
655682 On ch=6 n=e5 v=0
655684 On ch=6 n=e5 v=47
656162 On ch=6 n=e5 v=0
656164 On ch=6 n=e5 v=47
656642 On ch=6 n=e5 v=0
656644 On ch=6 n=f5 v=47
657122 On ch=6 n=f5 v=0
657124 On ch=6 n=f5 v=47
657602 On ch=6 n=f5 v=0
657604 On ch=6 n=f5 v=47
658082 On ch=6 n=f5 v=0
659526 On ch=6 n=e4 v=47
659762 On ch=6 n=e4 v=0
659764 On ch=6 n=g4 v=47
660002 On ch=6 n=g4 v=0
660004 On ch=6 n=e4 v=47
660242 On ch=6 n=e4 v=0
660244 On ch=6 n=g4 v=47
660482 On ch=6 n=g4 v=0
660484 On ch=6 n=e4 v=47
660722 On ch=6 n=e4 v=0
660724 On ch=6 n=g4 v=47
660962 On ch=6 n=g4 v=0
660964 On ch=6 n=f4 v=47
661202 On ch=6 n=f4 v=0
661204 On ch=6 n=g4 v=47
661442 On ch=6 n=g4 v=0
661444 On ch=6 n=f4 v=47
661682 On ch=6 n=f4 v=0
661684 On ch=6 n=g4 v=47
661922 On ch=6 n=g4 v=0
661924 On ch=6 n=f4 v=47
662162 On ch=6 n=f4 v=0
662164 On ch=6 n=g4 v=47
662402 On ch=6 n=g4 v=0
662404 On ch=6 n=e4 v=47
662642 On ch=6 n=e4 v=0
662644 On ch=6 n=g4 v=47
662882 On ch=6 n=g4 v=0
662884 On ch=6 n=e4 v=47
663122 On ch=6 n=e4 v=0
663124 On ch=6 n=g4 v=47
663362 On ch=6 n=g4 v=0
663364 On ch=6 n=e4 v=47
663602 On ch=6 n=e4 v=0
663604 On ch=6 n=g4 v=47
663842 On ch=6 n=g4 v=0
663844 On ch=6 n=f4 v=47
664082 On ch=6 n=f4 v=0
664084 On ch=6 n=g4 v=47
664322 On ch=6 n=g4 v=0
664324 On ch=6 n=f4 v=47
664562 On ch=6 n=f4 v=0
664564 On ch=6 n=g4 v=47
664802 On ch=6 n=g4 v=0
664804 On ch=6 n=f4 v=47
665042 On ch=6 n=f4 v=0
665044 On ch=6 n=g4 v=47
665282 On ch=6 n=g4 v=0
665284 On ch=6 n=e4 v=47
665522 On ch=6 n=e4 v=0
665524 On ch=6 n=g4 v=47
665762 On ch=6 n=g4 v=0
665764 On ch=6 n=e4 v=47
666002 On ch=6 n=e4 v=0
666004 On ch=6 n=g4 v=47
666242 On ch=6 n=g4 v=0
666244 On ch=6 n=e4 v=47
666482 On ch=6 n=e4 v=0
666484 On ch=6 n=g4 v=47
666722 On ch=6 n=g4 v=0
666724 On ch=6 n=a4 v=47
666962 On ch=6 n=a4 v=0
666964 On ch=6 n=d5 v=47
667202 On ch=6 n=d5 v=0
667204 On ch=6 n=a4 v=47
667442 On ch=6 n=a4 v=0
667444 On ch=6 n=d5 v=47
667682 On ch=6 n=d5 v=0
667684 On ch=6 n=a4 v=47
667922 On ch=6 n=a4 v=0
667924 On ch=6 n=d5 v=47
668162 On ch=6 n=d5 v=0
668164 On ch=6 n=g4 v=47
669602 On ch=6 n=g4 v=0
669604 On ch=6 n=c5 v=47
670082 On ch=6 n=c5 v=0
671526 On ch=6 n=g4 v=31
672002 On ch=6 n=g4 v=0
672004 On ch=6 n=f4 v=31
672482 On ch=6 n=f4 v=0
672484 On ch=6 n=e4 v=31
672962 On ch=6 n=e4 v=0
672964 On ch=6 n=g3 v=47
673442 On ch=6 n=g3 v=0
673444 On ch=6 n=f3 v=47
673922 On ch=6 n=f3 v=0
673924 On ch=6 n=e3 v=47
674402 On ch=6 n=e3 v=0
674404 On ch=6 n=c4 v=63
674642 On ch=6 n=c4 v=0
674886 On ch=6 n=c4 v=63
675122 On ch=6 n=c4 v=0
675366 On ch=6 n=c4 v=63
675842 On ch=6 n=c4 v=0
675842 Meta TrkEnd
TrkEnd
MTrk
0 SeqSpec 43 00 01 00
0 Meta TrkName "P.T. 12'25\""
0 Meta 0x21 00
0 PrCh ch=7 p=0
0 PrCh ch=7 p=0
0 Par ch=7 c=7 v=127
11562 On ch=7 n=e3 v=47
11998 On ch=7 n=e3 v=0
12482 On ch=7 n=g3 v=47
12958 On ch=7 n=g3 v=0
13442 On ch=7 n=c4 v=47
13918 On ch=7 n=c4 v=0
46082 On ch=7 n=d4 v=63
47038 On ch=7 n=d4 v=0
81122 On ch=7 n=g4 v=63
81358 On ch=7 n=g4 v=0
81602 On ch=7 n=f#4 v=63
81838 On ch=7 n=f#4 v=0
82082 On ch=7 n=g4 v=63
82318 On ch=7 n=g4 v=0
84962 On ch=7 n=g4 v=81
85198 On ch=7 n=g4 v=0
85442 On ch=7 n=f#4 v=81
85678 On ch=7 n=f#4 v=0
85922 On ch=7 n=g4 v=81
86158 On ch=7 n=g4 v=0
92162 On ch=7 n=d4 v=81
92638 On ch=7 n=d4 v=0
126722 On ch=7 n=f4 v=63
126958 On ch=7 n=f4 v=0
126960 On ch=7 n=f4 v=63
127198 On ch=7 n=f4 v=0
127200 On ch=7 n=f4 v=31
127438 On ch=7 n=f4 v=0
127440 On ch=7 n=f4 v=31
127678 On ch=7 n=f4 v=0
127680 On ch=7 n=g4 v=31
127918 On ch=7 n=g4 v=0
127920 On ch=7 n=g4 v=31
128158 On ch=7 n=g4 v=0
128160 On ch=7 n=g4 v=31
128398 On ch=7 n=g4 v=0
128400 On ch=7 n=g4 v=31
128638 On ch=7 n=g4 v=0
128640 On ch=7 n=f4 v=31
128878 On ch=7 n=f4 v=0
128880 On ch=7 n=f4 v=31
129118 On ch=7 n=f4 v=0
129120 On ch=7 n=f4 v=31
129358 On ch=7 n=f4 v=0
129360 On ch=7 n=f4 v=53
129598 On ch=7 n=f4 v=0
129600 On ch=7 n=g4 v=53
129838 On ch=7 n=g4 v=0
129840 On ch=7 n=g4 v=53
130078 On ch=7 n=g4 v=0
130080 On ch=7 n=g4 v=53
130318 On ch=7 n=g4 v=0
130320 On ch=7 n=g4 v=53
130558 On ch=7 n=g4 v=0
157442 On ch=7 n=e4 v=63
157918 On ch=7 n=e4 v=0
197282 On ch=7 n=b4 v=105
197398 On ch=7 n=b4 v=0
197522 On ch=7 n=b4 v=105
197638 On ch=7 n=b4 v=0
197762 On ch=7 n=b4 v=105
198238 On ch=7 n=b4 v=0
211242 On ch=7 n=e3 v=61
211678 On ch=7 n=e3 v=0
212162 On ch=7 n=g3 v=63
212638 On ch=7 n=g3 v=0
213122 On ch=7 n=c4 v=63
213598 On ch=7 n=c4 v=0
234722 On ch=7 n=b3 v=63
235198 On ch=7 n=b3 v=0
235200 On ch=7 n=b3 v=63
235678 On ch=7 n=b3 v=0
271202 On ch=7 n=c4 v=63
271678 On ch=7 n=c4 v=0
271680 On ch=7 n=b3 v=63
272158 On ch=7 n=b3 v=0
272160 On ch=7 n=c4 v=63
272638 On ch=7 n=c4 v=0
282242 On ch=7 n=g4 v=105
282718 On ch=7 n=g4 v=0
298602 On ch=7 n=b3 v=105
299038 On ch=7 n=b3 v=0
299520 Par ch=7 c=64 v=127
299562 On ch=7 n=e3 v=105
299998 On ch=7 n=e3 v=0
300958 Par ch=7 c=64 v=0
303404 On ch=7 n=a3 v=47
304320 On ch=7 n=a3 v=0
314924 On ch=7 n=a3 v=47
315840 On ch=7 n=a3 v=0
337444 On ch=7 n=e4 v=47
337920 On ch=7 n=e4 v=0
337922 On ch=7 n=f4 v=47
338400 On ch=7 n=f4 v=0
338402 On ch=7 n=g4 v=30
339360 On ch=7 n=g4 v=0
343684 On ch=7 n=b3 v=30
343920 On ch=7 n=b3 v=0
343922 On ch=7 n=b3 v=30
344160 On ch=7 n=b3 v=0
344162 On ch=7 n=b3 v=30
344400 On ch=7 n=b3 v=0
344402 On ch=7 n=b3 v=30
344640 On ch=7 n=b3 v=0
344642 On ch=7 n=b3 v=30
344880 On ch=7 n=b3 v=0
344882 On ch=7 n=b3 v=30
345120 On ch=7 n=b3 v=0
361444 On ch=7 n=g4 v=30
362400 On ch=7 n=g4 v=0
362444 On ch=7 n=a3 v=47
363360 On ch=7 n=a3 v=0
383764 On ch=7 n=f4 v=31
384000 On ch=7 n=f4 v=0
384002 On ch=7 n=f4 v=31
384480 On ch=7 n=f4 v=0
384482 On ch=7 n=e4 v=35
384960 On ch=7 n=e4 v=0
385564 On ch=7 n=c4 v=63
385680 On ch=7 n=c4 v=0
385682 On ch=7 n=g3 v=63
385800 On ch=7 n=g3 v=0
385802 On ch=7 n=e3 v=63
385920 On ch=7 n=e3 v=0
385922 On ch=7 n=c3 v=63
386160 On ch=7 n=c3 v=0
386644 On ch=7 n=a#4 v=47
386880 On ch=7 n=a#4 v=0
386882 On ch=7 n=a4 v=31
387360 On ch=7 n=a4 v=0
387724 On ch=7 n=c5 v=31
387840 On ch=7 n=c5 v=0
387842 On ch=7 n=b4 v=31
387900 On ch=7 n=b4 v=0
387902 On ch=7 n=c5 v=31
387960 On ch=7 n=c5 v=0
387962 On ch=7 n=d5 v=31
388020 On ch=7 n=d5 v=0
388022 On ch=7 n=c5 v=31
388080 On ch=7 n=c5 v=0
388082 On ch=7 n=a#4 v=47
388140 On ch=7 n=a#4 v=0
388142 On ch=7 n=a4 v=47
388200 On ch=7 n=a4 v=0
388202 On ch=7 n=g4 v=47
388260 On ch=7 n=g4 v=0
388262 On ch=7 n=f4 v=47
388320 On ch=7 n=f4 v=0
388322 On ch=7 n=e4 v=47
388380 On ch=7 n=e4 v=0
391204 On ch=7 n=a#3 v=30
391680 On ch=7 n=a#3 v=0
391682 On ch=7 n=c4 v=30
392640 On ch=7 n=c4 v=0
394084 On ch=7 n=e4 v=30
394320 On ch=7 n=e4 v=0
394322 On ch=7 n=e4 v=30
394560 On ch=7 n=e4 v=0
394562 On ch=7 n=e4 v=30
394800 On ch=7 n=e4 v=0
394802 On ch=7 n=e4 v=30
395040 On ch=7 n=e4 v=0
395042 On ch=7 n=e4 v=30
395280 On ch=7 n=e4 v=0
395282 On ch=7 n=e4 v=30
395520 On ch=7 n=e4 v=0
404164 On ch=7 n=f3 v=35
405120 On ch=7 n=f3 v=0
405604 On ch=7 n=f3 v=30
407040 On ch=7 n=f3 v=0
499726 On ch=7 n=f3 v=63
500162 On ch=7 n=f3 v=0
516966 On ch=7 n=g4 v=47
517442 On ch=7 n=g4 v=0
519846 On ch=7 n=f4 v=63
520082 On ch=7 n=f4 v=0
520326 On ch=7 n=f4 v=63
520562 On ch=7 n=f4 v=0
520806 On ch=7 n=f4 v=63
521042 On ch=7 n=f4 v=0
522726 On ch=7 n=f4 v=63
522962 On ch=7 n=f4 v=0
523206 On ch=7 n=f4 v=63
523442 On ch=7 n=f4 v=0
523686 On ch=7 n=f4 v=63
523922 On ch=7 n=f4 v=0
552966 On ch=7 n=f5 v=63
553442 On ch=7 n=f5 v=0
553444 On ch=7 n=f5 v=63
553922 On ch=7 n=f5 v=0
553924 On ch=7 n=f5 v=63
554402 On ch=7 n=f5 v=0
555846 On ch=7 n=f5 v=63
556322 On ch=7 n=f5 v=0
556324 On ch=7 n=f5 v=63
556802 On ch=7 n=f5 v=0
556804 On ch=7 n=f5 v=63
557282 On ch=7 n=f5 v=0
561606 On ch=7 n=c4 v=63
562082 On ch=7 n=c4 v=0
562084 On ch=7 n=c4 v=63
562562 On ch=7 n=c4 v=0
562564 On ch=7 n=c4 v=63
563042 On ch=7 n=c4 v=0
563044 On ch=7 n=d4 v=63
563522 On ch=7 n=d4 v=0
563524 On ch=7 n=d4 v=63
564002 On ch=7 n=d4 v=0
564004 On ch=7 n=d4 v=63
564482 On ch=7 n=d4 v=0
564484 On ch=7 n=c4 v=63
564962 On ch=7 n=c4 v=0
564964 On ch=7 n=c4 v=63
565442 On ch=7 n=c4 v=0
565444 On ch=7 n=c4 v=63
565922 On ch=7 n=c4 v=0
565924 On ch=7 n=d4 v=63
566402 On ch=7 n=d4 v=0
566404 On ch=7 n=d4 v=63
566882 On ch=7 n=d4 v=0
566884 On ch=7 n=d4 v=63
567362 On ch=7 n=d4 v=0
567364 On ch=7 n=c4 v=63
567842 On ch=7 n=c4 v=0
567844 On ch=7 n=c4 v=63
568322 On ch=7 n=c4 v=0
568324 On ch=7 n=c4 v=63
568802 On ch=7 n=c4 v=0
568804 On ch=7 n=f4 v=63
569282 On ch=7 n=f4 v=0
569284 On ch=7 n=f4 v=63
569762 On ch=7 n=f4 v=0
569764 On ch=7 n=f4 v=63
570242 On ch=7 n=f4 v=0
573606 On ch=7 n=e4 v=31
574082 On ch=7 n=e4 v=0
574084 On ch=7 n=d4 v=31
574562 On ch=7 n=d4 v=0
574564 On ch=7 n=c4 v=31
575042 On ch=7 n=c4 v=0
575044 On ch=7 n=e3 v=47
575522 On ch=7 n=e3 v=0
575524 On ch=7 n=d3 v=47
576002 On ch=7 n=d3 v=0
576004 On ch=7 n=c3 v=47
576482 On ch=7 n=c3 v=0
576484 On ch=7 n=c3 v=63
576722 On ch=7 n=c3 v=0
576966 On ch=7 n=c3 v=63
577202 On ch=7 n=c3 v=0
577446 On ch=7 n=c3 v=63
577922 On ch=7 n=c3 v=0
597646 On ch=7 n=f3 v=63
598082 On ch=7 n=f3 v=0
614886 On ch=7 n=g4 v=47
615362 On ch=7 n=g4 v=0
617766 On ch=7 n=f4 v=63
618002 On ch=7 n=f4 v=0
618246 On ch=7 n=f4 v=63
618482 On ch=7 n=f4 v=0
618726 On ch=7 n=f4 v=63
618962 On ch=7 n=f4 v=0
620646 On ch=7 n=f4 v=63
620882 On ch=7 n=f4 v=0
621126 On ch=7 n=f4 v=63
621362 On ch=7 n=f4 v=0
621606 On ch=7 n=f4 v=63
621842 On ch=7 n=f4 v=0
650886 On ch=7 n=f5 v=63
651362 On ch=7 n=f5 v=0
651364 On ch=7 n=f5 v=63
651842 On ch=7 n=f5 v=0
651844 On ch=7 n=f5 v=63
652322 On ch=7 n=f5 v=0
653766 On ch=7 n=f5 v=63
654242 On ch=7 n=f5 v=0
654244 On ch=7 n=f5 v=63
654722 On ch=7 n=f5 v=0
654724 On ch=7 n=f5 v=63
655202 On ch=7 n=f5 v=0
659526 On ch=7 n=c4 v=63
660002 On ch=7 n=c4 v=0
660004 On ch=7 n=c4 v=63
660482 On ch=7 n=c4 v=0
660484 On ch=7 n=c4 v=63
660962 On ch=7 n=c4 v=0
660964 On ch=7 n=d4 v=63
661442 On ch=7 n=d4 v=0
661444 On ch=7 n=d4 v=63
661922 On ch=7 n=d4 v=0
661924 On ch=7 n=d4 v=63
662402 On ch=7 n=d4 v=0
662404 On ch=7 n=c4 v=63
662882 On ch=7 n=c4 v=0
662884 On ch=7 n=c4 v=63
663362 On ch=7 n=c4 v=0
663364 On ch=7 n=c4 v=63
663842 On ch=7 n=c4 v=0
663844 On ch=7 n=d4 v=63
664322 On ch=7 n=d4 v=0
664324 On ch=7 n=d4 v=63
664802 On ch=7 n=d4 v=0
664804 On ch=7 n=d4 v=63
665282 On ch=7 n=d4 v=0
665284 On ch=7 n=c4 v=63
665762 On ch=7 n=c4 v=0
665764 On ch=7 n=c4 v=63
666242 On ch=7 n=c4 v=0
666244 On ch=7 n=c4 v=63
666722 On ch=7 n=c4 v=0
666724 On ch=7 n=f4 v=63
667202 On ch=7 n=f4 v=0
667204 On ch=7 n=f4 v=63
667682 On ch=7 n=f4 v=0
667684 On ch=7 n=f4 v=63
668162 On ch=7 n=f4 v=0
671526 On ch=7 n=e4 v=31
672002 On ch=7 n=e4 v=0
672004 On ch=7 n=d4 v=31
672482 On ch=7 n=d4 v=0
672484 On ch=7 n=c4 v=31
672962 On ch=7 n=c4 v=0
672964 On ch=7 n=e3 v=47
673442 On ch=7 n=e3 v=0
673444 On ch=7 n=d3 v=47
673922 On ch=7 n=d3 v=0
673924 On ch=7 n=c3 v=47
674402 On ch=7 n=c3 v=0
674404 On ch=7 n=c3 v=63
674642 On ch=7 n=c3 v=0
674886 On ch=7 n=c3 v=63
675122 On ch=7 n=c3 v=0
675366 On ch=7 n=c3 v=63
675842 On ch=7 n=c3 v=0
675842 Meta TrkEnd
TrkEnd
MTrk
0 SeqSpec 43 00 01 00
0 Meta TrkName "42Kb "
0 Meta 0x21 00
0 PrCh ch=8 p=0
0 PrCh ch=8 p=0
0 Par ch=8 c=7 v=127
11522 On ch=8 n=c3 v=47
11998 On ch=8 n=c3 v=0
38402 On ch=8 n=g3 v=47
38518 On ch=8 n=g3 v=0
38882 On ch=8 n=d3 v=47
38998 On ch=8 n=d3 v=0
39362 On ch=8 n=b2 v=47
39478 On ch=8 n=b2 v=0
40082 On ch=8 n=e3 v=47
40198 On ch=8 n=e3 v=0
40322 On ch=8 n=a2 v=47
40438 On ch=8 n=a2 v=0
41042 On ch=8 n=d3 v=47
41158 On ch=8 n=d3 v=0
41282 On ch=8 n=g2 v=47
41758 On ch=8 n=g2 v=0
103682 On ch=8 n=g2 v=47
103798 On ch=8 n=g2 v=0
105602 On ch=8 n=g2 v=47
105718 On ch=8 n=g2 v=0
106082 On ch=8 n=d3 v=63
106318 On ch=8 n=d3 v=0
106562 On ch=8 n=g2 v=63
106798 On ch=8 n=g2 v=0
120962 On ch=8 n=a2 v=47
121438 On ch=8 n=a2 v=0
121682 On ch=8 n=d3 v=47
121798 On ch=8 n=d3 v=0
121922 On ch=8 n=g2 v=47
122398 On ch=8 n=g2 v=0
122642 On ch=8 n=c3 v=47
122758 On ch=8 n=c3 v=0
122882 On ch=8 n=f2 v=47
123118 On ch=8 n=f2 v=0
144002 On ch=8 n=g#3 v=27
144478 On ch=8 n=g#3 v=0
144480 On ch=8 n=d#3 v=27
144958 On ch=8 n=d#3 v=0
144960 On ch=8 n=c3 v=27
145438 On ch=8 n=c3 v=0
145682 On ch=8 n=f3 v=27
145918 On ch=8 n=f3 v=0
145920 On ch=8 n=a#2 v=27
146398 On ch=8 n=a#2 v=0
146642 On ch=8 n=d#3 v=27
146878 On ch=8 n=d#3 v=0
146880 On ch=8 n=g#2 v=27
147358 On ch=8 n=g#2 v=0
162002 On ch=8 n=c3 v=50
162118 On ch=8 n=c3 v=0
190442 On ch=8 n=c#3 v=35
190558 On ch=8 n=c#3 v=0
190560 On ch=8 n=d3 v=50
190678 On ch=8 n=d3 v=0
190680 On ch=8 n=c#3 v=50
190798 On ch=8 n=c#3 v=0
190800 On ch=8 n=d3 v=50
190918 On ch=8 n=d3 v=0
190920 On ch=8 n=c#3 v=50
191038 On ch=8 n=c#3 v=0
191040 On ch=8 n=d3 v=50
191278 On ch=8 n=d3 v=0
197282 On ch=8 n=g4 v=105
197398 On ch=8 n=g4 v=0
197522 On ch=8 n=g4 v=105
197638 On ch=8 n=g4 v=0
197762 On ch=8 n=g4 v=105
198238 On ch=8 n=g4 v=0
200882 On ch=8 n=c4 v=27
200998 On ch=8 n=c4 v=0
201122 On ch=8 n=c3 v=27
201238 On ch=8 n=c3 v=0
201842 On ch=8 n=c4 v=32
201958 On ch=8 n=c4 v=0
202082 On ch=8 n=c3 v=31
202198 On ch=8 n=c3 v=0
202802 On ch=8 n=c4 v=31
202918 On ch=8 n=c4 v=0
203042 On ch=8 n=c3 v=31
203158 On ch=8 n=c3 v=0
203642 On ch=8 n=c4 v=32
203758 On ch=8 n=c4 v=0
203760 On ch=8 n=c3 v=32
203878 On ch=8 n=c3 v=0
203880 On ch=8 n=c4 v=32
203998 On ch=8 n=c4 v=0
204000 On ch=8 n=c3 v=32
204118 On ch=8 n=c3 v=0
204542 On ch=8 n=c4 v=27
204658 On ch=8 n=c4 v=0
204720 On ch=8 n=c3 v=27
204838 On ch=8 n=c3 v=0
204840 On ch=8 n=c4 v=27
204958 On ch=8 n=c4 v=0
204960 On ch=8 n=c3 v=27
205078 On ch=8 n=c3 v=0
206522 On ch=8 n=c4 v=27
206638 On ch=8 n=c4 v=0
206640 On ch=8 n=c3 v=27
206758 On ch=8 n=c3 v=0
206760 On ch=8 n=c4 v=27
206878 On ch=8 n=c4 v=0
206880 On ch=8 n=c3 v=27
206998 On ch=8 n=c3 v=0
207482 On ch=8 n=c4 v=27
207598 On ch=8 n=c4 v=0
207600 On ch=8 n=c3 v=27
207718 On ch=8 n=c3 v=0
207720 On ch=8 n=c4 v=27
207838 On ch=8 n=c4 v=0
207840 On ch=8 n=c3 v=27
207958 On ch=8 n=c3 v=0
208442 On ch=8 n=c4 v=35
208558 On ch=8 n=c4 v=0
208560 On ch=8 n=c3 v=35
208678 On ch=8 n=c3 v=0
208680 On ch=8 n=c4 v=35
208798 On ch=8 n=c4 v=0
208800 On ch=8 n=c3 v=35
208918 On ch=8 n=c3 v=0
209402 On ch=8 n=c4 v=50
209518 On ch=8 n=c4 v=0
209520 On ch=8 n=c3 v=50
209638 On ch=8 n=c3 v=0
209640 On ch=8 n=c4 v=50
209758 On ch=8 n=c4 v=0
209760 On ch=8 n=c3 v=50
209878 On ch=8 n=c3 v=0
211202 On ch=8 n=c3 v=61
211678 On ch=8 n=c3 v=0
234242 On ch=8 n=g3 v=63
234358 On ch=8 n=g3 v=0
234360 On ch=8 n=g2 v=63
234478 On ch=8 n=g2 v=0
234480 On ch=8 n=b2 v=63
234598 On ch=8 n=b2 v=0
234600 On ch=8 n=d3 v=63
234718 On ch=8 n=d3 v=0
234720 On ch=8 n=g3 v=63
234838 On ch=8 n=g3 v=0
234840 On ch=8 n=g2 v=63
234958 On ch=8 n=g2 v=0
234960 On ch=8 n=b2 v=63
235078 On ch=8 n=b2 v=0
235080 On ch=8 n=d3 v=63
235198 On ch=8 n=d3 v=0
235200 On ch=8 n=g3 v=79
235678 On ch=8 n=g3 v=0
295682 On ch=8 n=c3 v=47
295798 On ch=8 n=c3 v=0
297602 On ch=8 n=c3 v=47
297838 On ch=8 n=c3 v=0
298562 On ch=8 n=g3 v=81
299038 On ch=8 n=g3 v=0
299520 Par ch=8 c=64 v=127
299522 On ch=8 n=c3 v=81
299998 On ch=8 n=c3 v=0
300958 Par ch=8 c=64 v=0
303362 On ch=8 n=f3 v=47
304320 On ch=8 n=f3 v=0
314884 On ch=8 n=f3 v=47
315840 On ch=8 n=f3 v=0
332284 On ch=8 n=g3 v=28
332400 On ch=8 n=g3 v=0
332402 On ch=8 n=d3 v=28
332520 On ch=8 n=d3 v=0
332522 On ch=8 n=b2 v=28
332640 On ch=8 n=b2 v=0
332642 On ch=8 n=g2 v=28
332880 On ch=8 n=g2 v=0
362404 On ch=8 n=f3 v=47
363360 On ch=8 n=f3 v=0
370504 On ch=8 n=c3 v=28
370560 On ch=8 n=c3 v=0
370624 On ch=8 n=b2 v=28
370680 On ch=8 n=b2 v=0
370744 On ch=8 n=a#2 v=28
370800 On ch=8 n=a#2 v=0
370864 On ch=8 n=a2 v=28
370920 On ch=8 n=a2 v=0
370984 On ch=8 n=g2 v=28
371040 On ch=8 n=g2 v=0
371042 PrCh ch=8 p=0
371042 On ch=8 n=f2 v=47
371520 On ch=8 n=f2 v=0
372964 On ch=8 n=a2 v=47
373920 On ch=8 n=a2 v=0
373922 On ch=8 n=a#2 v=47
374400 On ch=8 n=a#2 v=0
389524 On ch=8 n=a#2 v=47
389760 On ch=8 n=a#2 v=0
389762 On ch=8 n=a2 v=47
390240 On ch=8 n=a2 v=0
402244 On ch=8 n=c3 v=47
402720 On ch=8 n=c3 v=0
403924 On ch=8 n=c3 v=45
404040 On ch=8 n=c3 v=0
405364 On ch=8 n=c3 v=47
405480 On ch=8 n=c3 v=0
407044 On ch=8 n=f2 v=28
408480 On ch=8 n=f2 v=0
499686 On ch=8 n=f3 v=63
500162 On ch=8 n=f3 v=0
500162 Meta TrkEnd
TrkEnd
