MFile 1 5 480
MTrk
0 TimeSig 4/4 24 8
0 Tempo 428571
0 Meta TrkEnd
TrkEnd
MTrk
0 SeqSpec 43 00 01 00
0 Meta TrkName "Piano Sonata No. 17 in B Flat"
0 Meta 0x21 00
0 PrCh ch=1 p=0
0 Par ch=1 c=7 v=127
0 Par ch=1 c=10 v=72
1440 On ch=1 n=a#5 v=80
1560 On ch=1 n=a#5 v=0
1560 On ch=1 n=c6 v=80
1596 On ch=1 n=c6 v=0
1680 On ch=1 n=d6 v=80
1716 On ch=1 n=d6 v=0
1800 On ch=1 n=d#6 v=80
1836 On ch=1 n=d#6 v=0
1920 On ch=1 n=f6 v=88
2160 On ch=1 n=f6 v=0
2400 On ch=1 n=f6 v=80
3360 On ch=1 n=f6 v=0
3360 On ch=1 n=a#6 v=80
3600 On ch=1 n=a#6 v=0
3600 On ch=1 n=g6 v=80
3840 On ch=1 n=g6 v=0
3840 On ch=1 n=f6 v=88
4032 On ch=1 n=f6 v=0
4320 On ch=1 n=f6 v=80
5280 On ch=1 n=f6 v=0
5280 On ch=1 n=a#6 v=80
5520 On ch=1 n=a#6 v=0
5520 On ch=1 n=g6 v=80
5760 On ch=1 n=g6 v=0
5760 On ch=1 n=f6 v=88
6000 On ch=1 n=f6 v=0
6180 On ch=1 n=d#6 v=61
6240 On ch=1 n=d#6 v=0
6240 On ch=1 n=d6 v=63
6300 On ch=1 n=d6 v=0
6300 On ch=1 n=d#6 v=64
6360 On ch=1 n=d#6 v=0
6360 On ch=1 n=d6 v=65
6420 On ch=1 n=d6 v=0
6420 On ch=1 n=d#6 v=67
6480 On ch=1 n=d#6 v=0
6480 On ch=1 n=d6 v=68
6520 On ch=1 n=d6 v=0
6520 On ch=1 n=d#6 v=69
6560 On ch=1 n=d#6 v=0
6560 On ch=1 n=d6 v=70
6600 On ch=1 n=d6 v=0
6600 On ch=1 n=c6 v=71
6660 On ch=1 n=c6 v=0
6660 On ch=1 n=d6 v=72
6720 On ch=1 n=d6 v=0
6720 On ch=1 n=d#6 v=73
6960 On ch=1 n=d#6 v=0
7140 On ch=1 n=d6 v=62
7200 On ch=1 n=d6 v=0
7200 On ch=1 n=c6 v=63
7260 On ch=1 n=c6 v=0
7260 On ch=1 n=d6 v=64
7320 On ch=1 n=d6 v=0
7320 On ch=1 n=c6 v=66
7380 On ch=1 n=c6 v=0
7380 On ch=1 n=d6 v=67
7440 On ch=1 n=d6 v=0
7440 On ch=1 n=c6 v=68
7480 On ch=1 n=c6 v=0
7480 On ch=1 n=d6 v=69
7520 On ch=1 n=d6 v=0
7520 On ch=1 n=c6 v=70
7560 On ch=1 n=c6 v=0
7560 On ch=1 n=a#5 v=71
7620 On ch=1 n=a#5 v=0
7620 On ch=1 n=c6 v=72
7680 On ch=1 n=c6 v=0
7680 On ch=1 n=d6 v=80
7840 On ch=1 n=d6 v=0
7840 On ch=1 n=c6 v=80
7888 On ch=1 n=c6 v=0
8000 On ch=1 n=a#5 v=80
8048 On ch=1 n=a#5 v=0
8160 On ch=1 n=f6 v=80
9120 On ch=1 n=f6 v=0
9120 On ch=1 n=a#6 v=80
9360 On ch=1 n=a#6 v=0
9360 On ch=1 n=g6 v=80
9600 On ch=1 n=g6 v=0
9600 On ch=1 n=f6 v=88
9840 On ch=1 n=f6 v=0
10020 On ch=1 n=d#6 v=60
10080 On ch=1 n=d#6 v=0
10080 On ch=1 n=d6 v=61
10140 On ch=1 n=d6 v=0
10140 On ch=1 n=d#6 v=62
10200 On ch=1 n=d#6 v=0
10200 On ch=1 n=d6 v=63
10260 On ch=1 n=d6 v=0
10260 On ch=1 n=d#6 v=64
10320 On ch=1 n=d#6 v=0
10320 On ch=1 n=d6 v=65
10360 On ch=1 n=d6 v=0
10360 On ch=1 n=d#6 v=66
10400 On ch=1 n=d#6 v=0
10400 On ch=1 n=d6 v=67
10440 On ch=1 n=d6 v=0
10440 On ch=1 n=c6 v=67
10500 On ch=1 n=c6 v=0
10500 On ch=1 n=d6 v=69
10560 On ch=1 n=d6 v=0
10560 On ch=1 n=d#6 v=70
10800 On ch=1 n=d#6 v=0
10980 On ch=1 n=d6 v=59
11040 On ch=1 n=d6 v=0
11040 On ch=1 n=c6 v=61
11100 On ch=1 n=c6 v=0
11100 On ch=1 n=d6 v=62
11160 On ch=1 n=d6 v=0
11160 On ch=1 n=c6 v=64
11220 On ch=1 n=c6 v=0
11220 On ch=1 n=d6 v=65
11280 On ch=1 n=d6 v=0
11280 On ch=1 n=c6 v=67
11320 On ch=1 n=c6 v=0
11320 On ch=1 n=d6 v=68
11360 On ch=1 n=d6 v=0
11360 On ch=1 n=c6 v=69
11400 On ch=1 n=c6 v=0
11400 On ch=1 n=a#5 v=70
11460 On ch=1 n=a#5 v=0
11460 On ch=1 n=c6 v=71
11520 On ch=1 n=c6 v=0
11520 On ch=1 n=d6 v=80
11760 On ch=1 n=d6 v=0
11760 On ch=1 n=a#5 v=80
11832 On ch=1 n=a#5 v=0
12000 On ch=1 n=f5 v=80
12072 On ch=1 n=f5 v=0
12240 On ch=1 n=d5 v=80
12312 On ch=1 n=d5 v=0
12480 On ch=1 n=a#4 v=80
12960 On ch=1 n=a#4 v=0
12960 On ch=1 n=a#5 v=50
13080 On ch=1 n=a#5 v=0
13080 On ch=1 n=c6 v=50
13200 On ch=1 n=c6 v=0
13200 On ch=1 n=d6 v=51
13320 On ch=1 n=d6 v=0
13320 On ch=1 n=d#6 v=52
13440 On ch=1 n=d#6 v=0
13440 On ch=1 n=f6 v=53
13560 On ch=1 n=f6 v=0
13560 On ch=1 n=d#6 v=54
13680 On ch=1 n=d#6 v=0
13680 On ch=1 n=d6 v=55
13800 On ch=1 n=d6 v=0
13800 On ch=1 n=c6 v=56
13920 On ch=1 n=c6 v=0
13920 On ch=1 n=a#5 v=56
14040 On ch=1 n=a#5 v=0
14040 On ch=1 n=a5 v=57
14076 On ch=1 n=a5 v=0
14160 On ch=1 n=g5 v=58
14196 On ch=1 n=g5 v=0
14280 On ch=1 n=f5 v=59
14316 On ch=1 n=f5 v=0
14400 On ch=1 n=a#5 v=60
14520 On ch=1 n=a#5 v=0
14520 On ch=1 n=a5 v=61
14640 On ch=1 n=a5 v=0
14640 On ch=1 n=g5 v=61
14760 On ch=1 n=g5 v=0
14760 On ch=1 n=f#5 v=62
14880 On ch=1 n=f#5 v=0
14880 On ch=1 n=g5 v=63
15000 On ch=1 n=g5 v=0
15000 On ch=1 n=a5 v=64
15036 On ch=1 n=a5 v=0
15120 On ch=1 n=a#5 v=65
15156 On ch=1 n=a#5 v=0
15240 On ch=1 n=c6 v=66
15276 On ch=1 n=c6 v=0
15360 On ch=1 n=d6 v=67
15480 On ch=1 n=d6 v=0
15480 On ch=1 n=c6 v=67
15600 On ch=1 n=c6 v=0
15600 On ch=1 n=a#5 v=68
15720 On ch=1 n=a#5 v=0
15720 On ch=1 n=a5 v=69
15840 On ch=1 n=a5 v=0
15840 On ch=1 n=g5 v=70
15960 On ch=1 n=g5 v=0
15960 On ch=1 n=f5 v=71
16080 On ch=1 n=f5 v=0
16080 On ch=1 n=d#5 v=72
16200 On ch=1 n=d#5 v=0
16200 On ch=1 n=d5 v=72
16320 On ch=1 n=d5 v=0
16320 On ch=1 n=g5 v=73
16440 On ch=1 n=g5 v=0
16440 On ch=1 n=f5 v=74
16560 On ch=1 n=f5 v=0
16560 On ch=1 n=d#5 v=75
16680 On ch=1 n=d#5 v=0
16680 On ch=1 n=d5 v=76
16800 On ch=1 n=d5 v=0
16800 On ch=1 n=d#5 v=77
16920 On ch=1 n=d#5 v=0
16920 On ch=1 n=f5 v=78
17040 On ch=1 n=f5 v=0
17040 On ch=1 n=g5 v=78
17160 On ch=1 n=g5 v=0
17160 On ch=1 n=a5 v=79
17280 On ch=1 n=a5 v=0
17280 On ch=1 n=a#5 v=80
17520 On ch=1 n=a#5 v=0
17520 On ch=1 n=f5 v=80
17592 On ch=1 n=f5 v=0
17760 On ch=1 n=a#5 v=80
17832 On ch=1 n=a#5 v=0
18000 On ch=1 n=f6 v=80
18180 On ch=1 n=f6 v=0
18180 On ch=1 n=f6 v=80
18240 On ch=1 n=f6 v=0
18240 On ch=1 n=d#6 v=80
18960 On ch=1 n=d#6 v=0
18960 On ch=1 n=d6 v=80
19200 On ch=1 n=d6 v=0
19200 On ch=1 n=d6 v=80
19260 On ch=1 n=d6 v=0
19260 On ch=1 n=d#6 v=80
19320 On ch=1 n=d#6 v=0
19320 On ch=1 n=d6 v=80
19380 On ch=1 n=d6 v=0
19380 On ch=1 n=d#6 v=80
19440 On ch=1 n=d#6 v=0
19440 On ch=1 n=d6 v=80
19480 On ch=1 n=d6 v=0
19480 On ch=1 n=d#6 v=80
19520 On ch=1 n=d#6 v=0
19520 On ch=1 n=d6 v=80
19560 On ch=1 n=d6 v=0
19560 On ch=1 n=c6 v=80
19620 On ch=1 n=c6 v=0
19620 On ch=1 n=d6 v=80
19680 On ch=1 n=d6 v=0
19680 On ch=1 n=c6 v=80
20160 On ch=1 n=c6 v=0
20400 On ch=1 n=d6 v=80
20472 On ch=1 n=d6 v=0
20640 On ch=1 n=a#6 v=80
20800 On ch=1 n=a#6 v=0
20800 On ch=1 n=a6 v=80
20848 On ch=1 n=a6 v=0
20960 On ch=1 n=g6 v=80
21008 On ch=1 n=g6 v=0
21120 On ch=1 n=g6 v=80
21360 On ch=1 n=g6 v=0
21360 On ch=1 n=e6 v=80
21432 On ch=1 n=e6 v=0
21600 On ch=1 n=e6 v=80
21840 On ch=1 n=e6 v=0
21840 On ch=1 n=f6 v=80
22080 On ch=1 n=f6 v=0
22320 On ch=1 n=d#6 v=80
22392 On ch=1 n=d#6 v=0
22560 On ch=1 n=g6 v=80
22720 On ch=1 n=g6 v=0
22720 On ch=1 n=f6 v=80
22768 On ch=1 n=f6 v=0
22880 On ch=1 n=d#6 v=80
22928 On ch=1 n=d#6 v=0
23040 On ch=1 n=d#6 v=80
23280 On ch=1 n=d#6 v=0
23280 On ch=1 n=c#6 v=80
23352 On ch=1 n=c#6 v=0
23520 On ch=1 n=c#6 v=80
23760 On ch=1 n=c#6 v=0
23760 On ch=1 n=d6 v=80
24000 On ch=1 n=d6 v=0
24240 On ch=1 n=c6 v=80
24312 On ch=1 n=c6 v=0
24480 On ch=1 n=d#6 v=80
24640 On ch=1 n=d#6 v=0
24640 On ch=1 n=d6 v=80
24688 On ch=1 n=d6 v=0
24800 On ch=1 n=c6 v=80
24848 On ch=1 n=c6 v=0
24960 On ch=1 n=c6 v=80
25200 On ch=1 n=c6 v=0
25200 On ch=1 n=a5 v=80
25440 On ch=1 n=a5 v=0
25440 On ch=1 n=a5 v=80
25680 On ch=1 n=a5 v=0
25680 On ch=1 n=a#5 v=80
25920 On ch=1 n=a#5 v=0
25920 On ch=1 n=f6 v=80
25920 On ch=1 n=c6 v=80
26160 On ch=1 n=f6 v=0
26160 On ch=1 n=d#6 v=80
26400 On ch=1 n=d#6 v=0
26400 On ch=1 n=c6 v=0
26640 On ch=1 n=d6 v=80
26640 On ch=1 n=a#5 v=80
26880 On ch=1 n=a#5 v=0
26880 On ch=1 n=d6 v=0
26880 On ch=1 n=d6 v=80
26880 On ch=1 n=a#5 v=80
27360 On ch=1 n=a#5 v=0
27360 On ch=1 n=d6 v=0
27360 On ch=1 n=c6 v=80
27360 On ch=1 n=a5 v=80
27600 On ch=1 n=a5 v=0
27600 On ch=1 n=c6 v=0
28320 On ch=1 n=f5 v=80
28440 On ch=1 n=f5 v=0
28440 On ch=1 n=g5 v=80
28500 On ch=1 n=g5 v=0
28560 On ch=1 n=a5 v=80
28620 On ch=1 n=a5 v=0
28680 On ch=1 n=a#5 v=80
28740 On ch=1 n=a#5 v=0
28800 On ch=1 n=c6 v=80
29280 On ch=1 n=c6 v=0
29280 On ch=1 n=c6 v=80
30240 On ch=1 n=c6 v=0
30240 On ch=1 n=f6 v=80
30600 On ch=1 n=f6 v=0
30600 On ch=1 n=c6 v=80
30720 On ch=1 n=c6 v=0
30720 On ch=1 n=c6 v=80
31080 On ch=1 n=c6 v=0
31080 On ch=1 n=a#5 v=80
31200 On ch=1 n=a#5 v=0
31200 On ch=1 n=a#5 v=80
32160 On ch=1 n=a#5 v=0
32160 On ch=1 n=a#5 v=63
32220 On ch=1 n=a#5 v=0
32220 On ch=1 n=c6 v=64
32280 On ch=1 n=c6 v=0
32280 On ch=1 n=a#5 v=65
32340 On ch=1 n=a#5 v=0
32340 On ch=1 n=c6 v=66
32400 On ch=1 n=c6 v=0
32400 On ch=1 n=a#5 v=67
32440 On ch=1 n=a#5 v=0
32440 On ch=1 n=c6 v=68
32480 On ch=1 n=c6 v=0
32480 On ch=1 n=a#5 v=69
32520 On ch=1 n=a#5 v=0
32520 On ch=1 n=a5 v=70
32580 On ch=1 n=a5 v=0
32580 On ch=1 n=a#5 v=71
32640 On ch=1 n=a#5 v=0
32640 On ch=1 n=c5 v=80
33120 On ch=1 n=c5 v=0
33120 On ch=1 n=a#5 v=61
33180 On ch=1 n=a#5 v=0
33180 On ch=1 n=c6 v=62
33240 On ch=1 n=c6 v=0
33240 On ch=1 n=a#5 v=64
33300 On ch=1 n=a#5 v=0
33300 On ch=1 n=c6 v=65
33360 On ch=1 n=c6 v=0
33360 On ch=1 n=a#5 v=67
33400 On ch=1 n=a#5 v=0
33400 On ch=1 n=c6 v=68
33440 On ch=1 n=c6 v=0
33440 On ch=1 n=a#5 v=69
33480 On ch=1 n=a#5 v=0
33480 On ch=1 n=a5 v=70
33540 On ch=1 n=a5 v=0
33540 On ch=1 n=a#5 v=72
33600 On ch=1 n=a#5 v=0
33600 On ch=1 n=g6 v=80
34080 On ch=1 n=g6 v=0
34080 On ch=1 n=a#5 v=80
34440 On ch=1 n=a#5 v=0
34440 On ch=1 n=c6 v=80
34560 On ch=1 n=c6 v=0
34560 On ch=1 n=a#5 v=56
34620 On ch=1 n=a#5 v=0
34620 On ch=1 n=c6 v=58
34680 On ch=1 n=c6 v=0
34680 On ch=1 n=a#5 v=60
34740 On ch=1 n=a#5 v=0
34740 On ch=1 n=c6 v=63
34800 On ch=1 n=c6 v=0
34800 On ch=1 n=a#5 v=65
34840 On ch=1 n=a#5 v=0
34840 On ch=1 n=c6 v=66
34880 On ch=1 n=c6 v=0
34880 On ch=1 n=a#5 v=68
34920 On ch=1 n=a#5 v=0
34920 On ch=1 n=a5 v=69
34980 On ch=1 n=a5 v=0
34980 On ch=1 n=a#5 v=72
35040 On ch=1 n=a#5 v=0
35040 On ch=1 n=a5 v=80
36000 On ch=1 n=a5 v=0
36000 On ch=1 n=c6 v=80
36120 On ch=1 n=c6 v=0
36120 On ch=1 n=a5 v=80
36480 On ch=1 n=a5 v=0
36480 On ch=1 n=a5 v=80
36600 On ch=1 n=a5 v=0
36600 On ch=1 n=g5 v=80
36960 On ch=1 n=g5 v=0
36960 On ch=1 n=g#5 v=80
37680 On ch=1 n=g#5 v=0
37680 On ch=1 n=g5 v=80
37800 On ch=1 n=g5 v=0
37800 On ch=1 n=g#5 v=80
37920 On ch=1 n=g#5 v=0
37920 On ch=1 n=a#5 v=80
38160 On ch=1 n=a#5 v=0
38160 On ch=1 n=g#5 v=80
38400 On ch=1 n=g#5 v=0
38400 On ch=1 n=g#5 v=80
38520 On ch=1 n=g#5 v=0
38520 On ch=1 n=g5 v=80
38880 On ch=1 n=g5 v=0
38880 On ch=1 n=g5 v=80
39840 On ch=1 n=g5 v=0
39840 On ch=1 n=c6 v=64
39960 On ch=1 n=c6 v=0
39960 On ch=1 n=a5 v=64
40320 On ch=1 n=a5 v=0
40320 On ch=1 n=a5 v=64
40440 On ch=1 n=a5 v=0
40440 On ch=1 n=g5 v=64
40800 On ch=1 n=g5 v=0
40800 On ch=1 n=g#5 v=64
41520 On ch=1 n=g#5 v=0
41520 On ch=1 n=g5 v=64
41640 On ch=1 n=g5 v=0
41640 On ch=1 n=g#5 v=64
41760 On ch=1 n=g#5 v=0
41760 On ch=1 n=a#5 v=64
42000 On ch=1 n=a#5 v=0
42000 On ch=1 n=g#5 v=64
42240 On ch=1 n=g#5 v=0
42240 On ch=1 n=g#5 v=64
42360 On ch=1 n=g#5 v=0
42360 On ch=1 n=g5 v=64
42720 On ch=1 n=g5 v=0
42720 On ch=1 n=g5 v=64
43200 On ch=1 n=g5 v=0
43200 On ch=1 n=c6 v=62
43260 On ch=1 n=c6 v=0
43260 On ch=1 n=d6 v=63
43320 On ch=1 n=d6 v=0
43320 On ch=1 n=c6 v=65
43360 On ch=1 n=c6 v=0
43360 On ch=1 n=d6 v=66
43400 On ch=1 n=d6 v=0
43400 On ch=1 n=c6 v=67
43440 On ch=1 n=c6 v=0
43440 On ch=1 n=b5 v=68
43560 On ch=1 n=b5 v=0
43560 On ch=1 n=c6 v=71
43680 On ch=1 n=c6 v=0
43680 On ch=1 n=d6 v=80
43920 On ch=1 n=d6 v=0
43920 On ch=1 n=c6 v=80
44160 On ch=1 n=c6 v=0
44160 On ch=1 n=c6 v=80
44640 On ch=1 n=c6 v=0
44640 On ch=1 n=b5 v=80
44928 On ch=1 n=b5 v=0
45120 On ch=1 n=a#5 v=62
45180 On ch=1 n=a#5 v=0
45180 On ch=1 n=c6 v=64
45240 On ch=1 n=c6 v=0
45240 On ch=1 n=a#5 v=65
45280 On ch=1 n=a#5 v=0
45280 On ch=1 n=c6 v=66
45320 On ch=1 n=c6 v=0
45320 On ch=1 n=a#5 v=67
45360 On ch=1 n=a#5 v=0
45360 On ch=1 n=a5 v=68
45480 On ch=1 n=a5 v=0
45480 On ch=1 n=a#5 v=72
45600 On ch=1 n=a#5 v=0
45600 On ch=1 n=c6 v=80
45840 On ch=1 n=c6 v=0
45840 On ch=1 n=a#5 v=80
46080 On ch=1 n=a#5 v=0
46080 On ch=1 n=a#5 v=80
46560 On ch=1 n=a#5 v=0
46560 On ch=1 n=a5 v=80
47040 On ch=1 n=a5 v=0
47040 On ch=1 n=a5 v=62
47100 On ch=1 n=a5 v=0
47100 On ch=1 n=a#5 v=63
47160 On ch=1 n=a#5 v=0
47160 On ch=1 n=a5 v=65
47200 On ch=1 n=a5 v=0
47200 On ch=1 n=a#5 v=66
47240 On ch=1 n=a#5 v=0
47240 On ch=1 n=a5 v=67
47280 On ch=1 n=a5 v=0
47280 On ch=1 n=g5 v=68
47400 On ch=1 n=g5 v=0
47400 On ch=1 n=a5 v=71
47520 On ch=1 n=a5 v=0
47520 On ch=1 n=a#5 v=80
47760 On ch=1 n=a#5 v=0
47760 On ch=1 n=a5 v=80
48000 On ch=1 n=a5 v=0
48000 On ch=1 n=a5 v=80
48240 On ch=1 n=a5 v=0
48240 On ch=1 n=g5 v=80
48480 On ch=1 n=g5 v=0
48480 On ch=1 n=f5 v=80
49440 On ch=1 n=f5 v=0
49440 On ch=1 n=g5 v=80
49560 On ch=1 n=g5 v=0
49560 On ch=1 n=e5 v=80
49920 On ch=1 n=e5 v=0
49920 On ch=1 n=e5 v=80
50400 On ch=1 n=e5 v=0
50400 On ch=1 n=f5 v=80
50880 On ch=1 n=f5 v=0
50880 On ch=1 n=c6 v=61
50940 On ch=1 n=c6 v=0
50940 On ch=1 n=d6 v=62
51000 On ch=1 n=d6 v=0
51000 On ch=1 n=c6 v=64
51040 On ch=1 n=c6 v=0
51040 On ch=1 n=d6 v=65
51080 On ch=1 n=d6 v=0
51080 On ch=1 n=c6 v=66
51120 On ch=1 n=c6 v=0
51120 On ch=1 n=b5 v=67
51240 On ch=1 n=b5 v=0
51240 On ch=1 n=c6 v=71
51360 On ch=1 n=c6 v=0
51360 On ch=1 n=d6 v=80
51600 On ch=1 n=d6 v=0
51600 On ch=1 n=c6 v=80
51840 On ch=1 n=c6 v=0
51840 On ch=1 n=c6 v=80
52080 On ch=1 n=c6 v=0
52080 On ch=1 n=a#5 v=80
52152 On ch=1 n=a#5 v=0
52320 On ch=1 n=a#5 v=80
52392 On ch=1 n=a#5 v=0
52560 On ch=1 n=a#5 v=80
52632 On ch=1 n=a#5 v=0
52800 On ch=1 n=a#5 v=80
52860 On ch=1 n=a#5 v=0
52860 On ch=1 n=c6 v=80
52920 On ch=1 n=c6 v=0
52920 On ch=1 n=a#5 v=80
52960 On ch=1 n=a#5 v=0
52960 On ch=1 n=c6 v=80
53000 On ch=1 n=c6 v=0
53000 On ch=1 n=a#5 v=80
53040 On ch=1 n=a#5 v=0
53040 On ch=1 n=a5 v=80
53160 On ch=1 n=a5 v=0
53160 On ch=1 n=a#5 v=80
53280 On ch=1 n=a#5 v=0
53280 On ch=1 n=c6 v=80
53520 On ch=1 n=c6 v=0
53520 On ch=1 n=a#5 v=80
53760 On ch=1 n=a#5 v=0
53760 On ch=1 n=a#5 v=80
54000 On ch=1 n=a#5 v=0
54000 On ch=1 n=a5 v=80
54072 On ch=1 n=a5 v=0
54240 On ch=1 n=a5 v=80
54312 On ch=1 n=a5 v=0
54480 On ch=1 n=a5 v=80
54552 On ch=1 n=a5 v=0
54720 On ch=1 n=a5 v=80
54780 On ch=1 n=a5 v=0
54780 On ch=1 n=a#5 v=80
54840 On ch=1 n=a#5 v=0
54840 On ch=1 n=a5 v=80
54900 On ch=1 n=a5 v=0
54900 On ch=1 n=a#5 v=80
54960 On ch=1 n=a#5 v=0
54960 On ch=1 n=a5 v=80
55000 On ch=1 n=a5 v=0
55000 On ch=1 n=a#5 v=80
55040 On ch=1 n=a#5 v=0
55040 On ch=1 n=a5 v=80
55080 On ch=1 n=a5 v=0
55080 On ch=1 n=g5 v=80
55140 On ch=1 n=g5 v=0
55140 On ch=1 n=a5 v=80
55200 On ch=1 n=a5 v=0
55200 On ch=1 n=a#5 v=80
55440 On ch=1 n=a#5 v=0
55440 On ch=1 n=a5 v=80
55680 On ch=1 n=a5 v=0
55680 On ch=1 n=a5 v=80
55920 On ch=1 n=a5 v=0
55920 On ch=1 n=g5 v=80
56160 On ch=1 n=g5 v=0
56160 On ch=1 n=f5 v=80
57120 On ch=1 n=f5 v=0
57120 On ch=1 n=g5 v=80
57240 On ch=1 n=g5 v=0
57240 On ch=1 n=e5 v=80
57600 On ch=1 n=e5 v=0
57600 On ch=1 n=f5 v=80
57840 On ch=1 n=f5 v=0
58080 On ch=1 n=a5 v=80
58080 On ch=1 n=f6 v=80
58224 On ch=1 n=f6 v=0
58224 On ch=1 n=a5 v=0
58560 On ch=1 n=a5 v=80
58560 On ch=1 n=f6 v=80
58800 On ch=1 n=f6 v=0
58800 On ch=1 n=a5 v=0
59040 On ch=1 n=a5 v=80
59040 On ch=1 n=f6 v=80
59376 On ch=1 n=f6 v=0
59376 On ch=1 n=a5 v=0
59520 On ch=1 n=a5 v=80
59520 On ch=1 n=f6 v=80
59760 On ch=1 n=f6 v=0
59760 On ch=1 n=g6 v=80
59880 On ch=1 n=g6 v=0
59880 On ch=1 n=a6 v=80
60000 On ch=1 n=a6 v=0
60000 On ch=1 n=a5 v=0
60000 On ch=1 n=a5 v=80
60000 On ch=1 n=f6 v=80
60144 On ch=1 n=f6 v=0
60144 On ch=1 n=a5 v=0
60480 On ch=1 n=a5 v=80
60480 On ch=1 n=f6 v=80
60720 On ch=1 n=f6 v=0
60720 On ch=1 n=a5 v=0
60960 On ch=1 n=a5 v=80
60960 On ch=1 n=f6 v=80
61440 On ch=1 n=f6 v=0
61440 On ch=1 n=a5 v=0
61440 On ch=1 n=a5 v=80
61440 On ch=1 n=f6 v=80
61620 On ch=1 n=f6 v=0
61620 On ch=1 n=a5 v=0
61800 On ch=1 n=f6 v=80
61920 On ch=1 n=f6 v=0
61920 On ch=1 n=g5 v=80
62100 On ch=1 n=g5 v=0
62280 On ch=1 n=a#5 v=80
62280 On ch=1 n=d6 v=80
62340 On ch=1 n=d6 v=0
62340 On ch=1 n=a#5 v=0
62370 On ch=1 n=d6 v=80
62370 On ch=1 n=a#5 v=80
62400 On ch=1 n=a5 v=80
62400 On ch=1 n=c6 v=80
62430 On ch=1 n=a#5 v=0
62430 On ch=1 n=d6 v=0
62580 On ch=1 n=c6 v=0
62580 On ch=1 n=a5 v=0
62760 On ch=1 n=g5 v=80
62760 On ch=1 n=a#5 v=80
62820 On ch=1 n=a#5 v=0
62820 On ch=1 n=g5 v=0
62850 On ch=1 n=g5 v=80
62850 On ch=1 n=a#5 v=80
62880 On ch=1 n=f5 v=80
62880 On ch=1 n=a5 v=80
62910 On ch=1 n=a#5 v=0
62910 On ch=1 n=g5 v=0
63240 On ch=1 n=a5 v=0
63240 On ch=1 n=f5 v=0
63240 On ch=1 n=e5 v=80
63240 On ch=1 n=g5 v=80
63360 On ch=1 n=g5 v=0
63360 On ch=1 n=e5 v=0
63360 On ch=1 n=f5 v=48
63600 On ch=1 n=f5 v=0
63840 On ch=1 n=f6 v=48
63840 On ch=1 n=a5 v=48
63984 On ch=1 n=a5 v=0
63984 On ch=1 n=f6 v=0
64320 On ch=1 n=f6 v=48
64320 On ch=1 n=a5 v=48
64464 On ch=1 n=a5 v=0
64464 On ch=1 n=f6 v=0
64800 On ch=1 n=f6 v=48
64800 On ch=1 n=a5 v=48
65280 On ch=1 n=a5 v=0
65280 On ch=1 n=f6 v=0
65280 On ch=1 n=f6 v=48
65280 On ch=1 n=a5 v=48
65520 On ch=1 n=f6 v=0
65520 On ch=1 n=g6 v=48
65640 On ch=1 n=g6 v=0
65640 On ch=1 n=a6 v=48
65760 On ch=1 n=a6 v=0
65760 On ch=1 n=a5 v=0
65760 On ch=1 n=f6 v=48
65760 On ch=1 n=a5 v=48
65904 On ch=1 n=a5 v=0
65904 On ch=1 n=f6 v=0
66240 On ch=1 n=f6 v=48
66240 On ch=1 n=a5 v=48
66384 On ch=1 n=a5 v=0
66384 On ch=1 n=f6 v=0
66720 On ch=1 n=f6 v=48
66720 On ch=1 n=a5 v=48
67200 On ch=1 n=a5 v=0
67200 On ch=1 n=f6 v=0
67200 On ch=1 n=f6 v=48
67200 On ch=1 n=a5 v=48
67560 On ch=1 n=a5 v=0
67560 On ch=1 n=f6 v=0
67560 On ch=1 n=f6 v=48
67680 On ch=1 n=f6 v=0
67680 On ch=1 n=g5 v=48
67860 On ch=1 n=g5 v=0
68040 On ch=1 n=d6 v=48
68040 On ch=1 n=a#5 v=48
68100 On ch=1 n=a#5 v=0
68100 On ch=1 n=d6 v=0
68130 On ch=1 n=a#5 v=48
68130 On ch=1 n=d6 v=48
68160 On ch=1 n=c6 v=48
68160 On ch=1 n=a5 v=48
68190 On ch=1 n=d6 v=0
68190 On ch=1 n=a#5 v=0
68340 On ch=1 n=a5 v=0
68340 On ch=1 n=c6 v=0
68520 On ch=1 n=a#5 v=48
68520 On ch=1 n=g5 v=48
68580 On ch=1 n=g5 v=0
68580 On ch=1 n=a#5 v=0
68610 On ch=1 n=a#5 v=48
68610 On ch=1 n=g5 v=48
68640 On ch=1 n=a5 v=48
68640 On ch=1 n=f5 v=48
68670 On ch=1 n=g5 v=0
68670 On ch=1 n=a#5 v=0
68820 On ch=1 n=f5 v=0
68820 On ch=1 n=a5 v=0
69000 On ch=1 n=g5 v=48
69000 On ch=1 n=e5 v=48
69120 On ch=1 n=e5 v=0
69120 On ch=1 n=g5 v=0
69120 On ch=1 n=f5 v=80
69480 On ch=1 n=f5 v=0
69480 On ch=1 n=f6 v=80
69600 On ch=1 n=f6 v=0
69600 On ch=1 n=g5 v=80
69816 On ch=1 n=g5 v=0
69960 On ch=1 n=a#5 v=80
69960 On ch=1 n=d6 v=80
70020 On ch=1 n=d6 v=0
70020 On ch=1 n=a#5 v=0
70050 On ch=1 n=d6 v=80
70050 On ch=1 n=a#5 v=80
70080 On ch=1 n=a5 v=80
70080 On ch=1 n=c6 v=80
70110 On ch=1 n=a#5 v=0
70110 On ch=1 n=d6 v=0
70296 On ch=1 n=c6 v=0
70296 On ch=1 n=a5 v=0
70440 On ch=1 n=g5 v=80
70440 On ch=1 n=a#5 v=80
70500 On ch=1 n=a#5 v=0
70500 On ch=1 n=g5 v=0
70530 On ch=1 n=g5 v=80
70530 On ch=1 n=a#5 v=80
70560 On ch=1 n=f5 v=80
70560 On ch=1 n=a5 v=80
70590 On ch=1 n=a#5 v=0
70590 On ch=1 n=g5 v=0
70920 On ch=1 n=a5 v=0
70920 On ch=1 n=f5 v=0
70920 On ch=1 n=e5 v=80
70920 On ch=1 n=g5 v=80
71040 On ch=1 n=g5 v=0
71040 On ch=1 n=e5 v=0
71040 On ch=1 n=f5 v=80
71200 On ch=1 n=f5 v=0
71200 On ch=1 n=c5 v=80
71248 On ch=1 n=c5 v=0
71360 On ch=1 n=a#4 v=80
71408 On ch=1 n=a#4 v=0
71520 On ch=1 n=a4 v=80
71680 On ch=1 n=a4 v=0
71680 On ch=1 n=a#4 v=80
71728 On ch=1 n=a#4 v=0
71840 On ch=1 n=c5 v=80
71888 On ch=1 n=c5 v=0
72000 On ch=1 n=f4 v=80
72336 On ch=1 n=f4 v=0
72480 On ch=1 n=f5 v=80
72600 On ch=1 n=f5 v=0
72600 On ch=1 n=g5 v=80
72648 On ch=1 n=g5 v=0
72720 On ch=1 n=a5 v=80
72768 On ch=1 n=a5 v=0
72840 On ch=1 n=a#5 v=80
72888 On ch=1 n=a#5 v=0
72960 On ch=1 n=c6 v=80
73152 On ch=1 n=c6 v=0
73440 On ch=1 n=c6 v=80
74400 On ch=1 n=c6 v=0
74400 On ch=1 n=f6 v=80
74640 On ch=1 n=f6 v=0
74640 On ch=1 n=d6 v=80
74880 On ch=1 n=d6 v=0
74880 On ch=1 n=c6 v=80
75072 On ch=1 n=c6 v=0
75360 On ch=1 n=c6 v=80
76320 On ch=1 n=c6 v=0
76320 On ch=1 n=f6 v=80
76560 On ch=1 n=f6 v=0
76560 On ch=1 n=d6 v=80
76800 On ch=1 n=d6 v=0
76800 On ch=1 n=c6 v=80
77040 On ch=1 n=c6 v=0
77220 On ch=1 n=a#5 v=67
77280 On ch=1 n=a#5 v=0
77280 On ch=1 n=a5 v=68
77340 On ch=1 n=a5 v=0
77340 On ch=1 n=a#5 v=70
77400 On ch=1 n=a#5 v=0
77400 On ch=1 n=a5 v=72
77460 On ch=1 n=a5 v=0
77460 On ch=1 n=a#5 v=73
77520 On ch=1 n=a#5 v=0
77520 On ch=1 n=a5 v=75
77560 On ch=1 n=a5 v=0
77560 On ch=1 n=a#5 v=76
77600 On ch=1 n=a#5 v=0
77600 On ch=1 n=a5 v=77
77640 On ch=1 n=a5 v=0
77640 On ch=1 n=g5 v=78
77700 On ch=1 n=g5 v=0
77700 On ch=1 n=a5 v=79
77760 On ch=1 n=a5 v=0
77760 On ch=1 n=a#5 v=80
78000 On ch=1 n=a#5 v=0
78180 On ch=1 n=a5 v=67
78240 On ch=1 n=a5 v=0
78240 On ch=1 n=g5 v=69
78300 On ch=1 n=g5 v=0
78300 On ch=1 n=a5 v=70
78360 On ch=1 n=a5 v=0
78360 On ch=1 n=g5 v=72
78420 On ch=1 n=g5 v=0
78420 On ch=1 n=a5 v=73
78480 On ch=1 n=a5 v=0
78480 On ch=1 n=g5 v=74
78520 On ch=1 n=g5 v=0
78520 On ch=1 n=a5 v=75
78560 On ch=1 n=a5 v=0
78560 On ch=1 n=g5 v=76
78600 On ch=1 n=g5 v=0
78600 On ch=1 n=f5 v=77
78660 On ch=1 n=f5 v=0
78660 On ch=1 n=g5 v=79
78720 On ch=1 n=g5 v=0
78720 On ch=1 n=a5 v=80
78880 On ch=1 n=a5 v=0
78880 On ch=1 n=g5 v=80
78960 On ch=1 n=g5 v=0
79040 On ch=1 n=f5 v=80
79120 On ch=1 n=f5 v=0
79200 On ch=1 n=c6 v=80
80160 On ch=1 n=c6 v=0
80160 On ch=1 n=f6 v=80
80400 On ch=1 n=f6 v=0
80400 On ch=1 n=d6 v=80
80640 On ch=1 n=d6 v=0
80640 On ch=1 n=c6 v=80
80880 On ch=1 n=c6 v=0
81060 On ch=1 n=a#5 v=67
81120 On ch=1 n=a#5 v=0
81120 On ch=1 n=a5 v=69
81180 On ch=1 n=a5 v=0
81180 On ch=1 n=a#5 v=70
81240 On ch=1 n=a#5 v=0
81240 On ch=1 n=a5 v=72
81300 On ch=1 n=a5 v=0
81300 On ch=1 n=a#5 v=73
81360 On ch=1 n=a#5 v=0
81360 On ch=1 n=a5 v=74
81400 On ch=1 n=a5 v=0
81400 On ch=1 n=a#5 v=75
81440 On ch=1 n=a#5 v=0
81440 On ch=1 n=a5 v=76
81480 On ch=1 n=a5 v=0
81480 On ch=1 n=g5 v=77
81540 On ch=1 n=g5 v=0
81540 On ch=1 n=a5 v=79
81600 On ch=1 n=a5 v=0
81600 On ch=1 n=a#5 v=80
81840 On ch=1 n=a#5 v=0
82020 On ch=1 n=a5 v=68
82080 On ch=1 n=a5 v=0
82080 On ch=1 n=g5 v=69
82140 On ch=1 n=g5 v=0
82140 On ch=1 n=a5 v=71
82200 On ch=1 n=a5 v=0
82200 On ch=1 n=g5 v=72
82260 On ch=1 n=g5 v=0
82260 On ch=1 n=a5 v=73
82320 On ch=1 n=a5 v=0
82320 On ch=1 n=g5 v=75
82360 On ch=1 n=g5 v=0
82360 On ch=1 n=a5 v=76
82400 On ch=1 n=a5 v=0
82400 On ch=1 n=g5 v=77
82440 On ch=1 n=g5 v=0
82440 On ch=1 n=f5 v=77
82500 On ch=1 n=f5 v=0
82500 On ch=1 n=g5 v=79
82560 On ch=1 n=g5 v=0
82560 On ch=1 n=a5 v=80
82720 On ch=1 n=a5 v=0
82720 On ch=1 n=g5 v=80
82784 On ch=1 n=g5 v=0
82880 On ch=1 n=f5 v=80
82944 On ch=1 n=f5 v=0
83040 On ch=1 n=f5 v=80
83520 On ch=1 n=f5 v=0
84000 On ch=1 n=f5 v=80
84120 On ch=1 n=f5 v=0
84120 On ch=1 n=g5 v=80
84240 On ch=1 n=g5 v=0
84240 On ch=1 n=a5 v=80
84360 On ch=1 n=a5 v=0
84360 On ch=1 n=a#5 v=80
84480 On ch=1 n=a#5 v=0
84480 On ch=1 n=c6 v=80
84720 On ch=1 n=c6 v=0
84960 On ch=1 n=c6 v=80
85920 On ch=1 n=c6 v=0
85920 On ch=1 n=a5 v=80
86080 On ch=1 n=a5 v=0
86080 On ch=1 n=a#5 v=80
86240 On ch=1 n=a#5 v=0
86240 On ch=1 n=c6 v=80
86400 On ch=1 n=c6 v=0
86400 On ch=1 n=g5 v=80
86880 On ch=1 n=g5 v=0
86880 On ch=1 n=f#5 v=80
87840 On ch=1 n=f#5 v=0
87840 On ch=1 n=d#6 v=80
88320 On ch=1 n=d#6 v=0
88320 On ch=1 n=d6 v=80
88560 On ch=1 n=d6 v=0
88800 On ch=1 n=d#6 v=80
88920 On ch=1 n=d#6 v=0
88920 On ch=1 n=d6 v=80
88980 On ch=1 n=d6 v=0
89040 On ch=1 n=c6 v=80
89100 On ch=1 n=c6 v=0
89160 On ch=1 n=a#5 v=80
89220 On ch=1 n=a#5 v=0
89280 On ch=1 n=c6 v=80
89520 On ch=1 n=c6 v=0
89760 On ch=1 n=d6 v=80
89880 On ch=1 n=d6 v=0
89880 On ch=1 n=c6 v=80
90000 On ch=1 n=c6 v=0
90000 On ch=1 n=a#5 v=80
90120 On ch=1 n=a#5 v=0
90120 On ch=1 n=a5 v=80
90240 On ch=1 n=a5 v=0
90240 On ch=1 n=a#5 v=80
90480 On ch=1 n=a#5 v=0
90480 On ch=1 n=g5 v=80
90600 On ch=1 n=g5 v=0
90720 On ch=1 n=d5 v=80
90840 On ch=1 n=d5 v=0
90960 On ch=1 n=a#4 v=80
91080 On ch=1 n=a#4 v=0
91200 On ch=1 n=g4 v=80
91440 On ch=1 n=g4 v=0
91440 On ch=1 n=a#4 v=80
91680 On ch=1 n=a#4 v=0
91680 On ch=1 n=d5 v=80
91920 On ch=1 n=d5 v=0
91920 On ch=1 n=g5 v=80
92160 On ch=1 n=g5 v=0
92160 On ch=1 n=a#5 v=80
92400 On ch=1 n=a#5 v=0
92400 On ch=1 n=d6 v=80
92640 On ch=1 n=d6 v=0
92640 On ch=1 n=g6 v=80
92760 On ch=1 n=g6 v=0
92880 On ch=1 n=a6 v=80
93000 On ch=1 n=a6 v=0
93120 On ch=1 n=a#6 v=80
93360 On ch=1 n=a#6 v=0
93360 On ch=1 n=g6 v=80
93600 On ch=1 n=g6 v=0
93600 On ch=1 n=d#6 v=80
93840 On ch=1 n=d#6 v=0
93840 On ch=1 n=d6 v=80
94080 On ch=1 n=d6 v=0
94080 On ch=1 n=d6 v=80
95040 On ch=1 n=d6 v=0
95040 On ch=1 n=c#6 v=67
95100 On ch=1 n=c#6 v=0
95100 On ch=1 n=d6 v=68
95160 On ch=1 n=d6 v=0
95160 On ch=1 n=c#6 v=68
95220 On ch=1 n=c#6 v=0
95220 On ch=1 n=d6 v=69
95280 On ch=1 n=d6 v=0
95280 On ch=1 n=c#6 v=70
95340 On ch=1 n=c#6 v=0
95340 On ch=1 n=d6 v=71
95400 On ch=1 n=d6 v=0
95400 On ch=1 n=c#6 v=72
95460 On ch=1 n=c#6 v=0
95460 On ch=1 n=d6 v=73
95520 On ch=1 n=d6 v=0
95520 On ch=1 n=c#6 v=73
95580 On ch=1 n=c#6 v=0
95580 On ch=1 n=d6 v=74
95640 On ch=1 n=d6 v=0
95640 On ch=1 n=c#6 v=75
95700 On ch=1 n=c#6 v=0
95700 On ch=1 n=d6 v=76
95760 On ch=1 n=d6 v=0
95760 On ch=1 n=c#6 v=77
95800 On ch=1 n=c#6 v=0
95800 On ch=1 n=d6 v=77
95840 On ch=1 n=d6 v=0
95840 On ch=1 n=c#6 v=78
95880 On ch=1 n=c#6 v=0
95880 On ch=1 n=b5 v=78
95940 On ch=1 n=b5 v=0
95940 On ch=1 n=c#6 v=79
96000 On ch=1 n=c#6 v=0
96000 On ch=1 n=d6 v=80
96240 On ch=1 n=d6 v=0
96240 On ch=1 n=d#6 v=80
96360 On ch=1 n=d#6 v=0
96480 On ch=1 n=f6 v=80
96600 On ch=1 n=f6 v=0
96720 On ch=1 n=g6 v=80
96840 On ch=1 n=g6 v=0
96960 On ch=1 n=g#6 v=80
97200 On ch=1 n=g#6 v=0
97200 On ch=1 n=f6 v=80
97440 On ch=1 n=f6 v=0
97440 On ch=1 n=d6 v=80
97680 On ch=1 n=d6 v=0
97680 On ch=1 n=c6 v=80
97920 On ch=1 n=c6 v=0
97920 On ch=1 n=c6 v=80
98880 On ch=1 n=c6 v=0
98880 On ch=1 n=b5 v=67
98940 On ch=1 n=b5 v=0
98940 On ch=1 n=c6 v=68
99000 On ch=1 n=c6 v=0
99000 On ch=1 n=b5 v=69
99060 On ch=1 n=b5 v=0
99060 On ch=1 n=c6 v=69
99120 On ch=1 n=c6 v=0
99120 On ch=1 n=b5 v=70
99180 On ch=1 n=b5 v=0
99180 On ch=1 n=c6 v=71
99240 On ch=1 n=c6 v=0
99240 On ch=1 n=b5 v=72
99300 On ch=1 n=b5 v=0
99300 On ch=1 n=c6 v=73
99360 On ch=1 n=c6 v=0
99360 On ch=1 n=b5 v=74
99420 On ch=1 n=b5 v=0
99420 On ch=1 n=c6 v=74
99480 On ch=1 n=c6 v=0
99480 On ch=1 n=b5 v=75
99540 On ch=1 n=b5 v=0
99540 On ch=1 n=c6 v=76
99600 On ch=1 n=c6 v=0
99600 On ch=1 n=b5 v=77
99640 On ch=1 n=b5 v=0
99640 On ch=1 n=c6 v=77
99680 On ch=1 n=c6 v=0
99680 On ch=1 n=b5 v=78
99720 On ch=1 n=b5 v=0
99720 On ch=1 n=a5 v=78
99780 On ch=1 n=a5 v=0
99780 On ch=1 n=b5 v=79
99840 On ch=1 n=b5 v=0
99840 On ch=1 n=c6 v=64
99920 On ch=1 n=c6 v=0
99920 On ch=1 n=d6 v=65
100000 On ch=1 n=d6 v=0
100000 On ch=1 n=c6 v=65
100080 On ch=1 n=c6 v=0
100080 On ch=1 n=d6 v=66
100160 On ch=1 n=d6 v=0
100160 On ch=1 n=c6 v=67
100240 On ch=1 n=c6 v=0
100240 On ch=1 n=d6 v=67
100320 On ch=1 n=d6 v=0
100320 On ch=1 n=c6 v=68
100400 On ch=1 n=c6 v=0
100400 On ch=1 n=d6 v=69
100480 On ch=1 n=d6 v=0
100480 On ch=1 n=c6 v=69
100560 On ch=1 n=c6 v=0
100560 On ch=1 n=d6 v=70
100640 On ch=1 n=d6 v=0
100640 On ch=1 n=c6 v=71
100720 On ch=1 n=c6 v=0
100720 On ch=1 n=d6 v=71
100800 On ch=1 n=d6 v=0
100800 On ch=1 n=c#6 v=72
100880 On ch=1 n=c#6 v=0
100880 On ch=1 n=d6 v=73
100960 On ch=1 n=d6 v=0
100960 On ch=1 n=c#6 v=73
101040 On ch=1 n=c#6 v=0
101040 On ch=1 n=d6 v=74
101120 On ch=1 n=d6 v=0
101120 On ch=1 n=c#6 v=75
101200 On ch=1 n=c#6 v=0
101200 On ch=1 n=d6 v=75
101280 On ch=1 n=d6 v=0
101280 On ch=1 n=c#6 v=76
101360 On ch=1 n=c#6 v=0
101360 On ch=1 n=d6 v=77
101440 On ch=1 n=d6 v=0
101440 On ch=1 n=c#6 v=77
101520 On ch=1 n=c#6 v=0
101520 On ch=1 n=d6 v=78
101600 On ch=1 n=d6 v=0
101600 On ch=1 n=c#6 v=79
101680 On ch=1 n=c#6 v=0
101680 On ch=1 n=d6 v=79
101760 On ch=1 n=d6 v=0
101760 On ch=1 n=d6 v=80
101840 On ch=1 n=d6 v=0
101840 On ch=1 n=e6 v=79
101920 On ch=1 n=e6 v=0
101920 On ch=1 n=d6 v=79
102000 On ch=1 n=d6 v=0
102000 On ch=1 n=e6 v=78
102080 On ch=1 n=e6 v=0
102080 On ch=1 n=d6 v=77
102160 On ch=1 n=d6 v=0
102160 On ch=1 n=e6 v=77
102240 On ch=1 n=e6 v=0
102240 On ch=1 n=d6 v=76
102320 On ch=1 n=d6 v=0
102320 On ch=1 n=e6 v=75
102400 On ch=1 n=e6 v=0
102400 On ch=1 n=d6 v=75
102480 On ch=1 n=d6 v=0
102480 On ch=1 n=e6 v=74
102540 On ch=1 n=e6 v=0
102540 On ch=1 n=d6 v=73
102600 On ch=1 n=d6 v=0
102600 On ch=1 n=e6 v=73
102660 On ch=1 n=e6 v=0
102660 On ch=1 n=d6 v=72
102720 On ch=1 n=d6 v=0
102720 On ch=1 n=e6 v=72
102800 On ch=1 n=e6 v=0
102800 On ch=1 n=f6 v=71
102880 On ch=1 n=f6 v=0
102880 On ch=1 n=e6 v=71
102960 On ch=1 n=e6 v=0
102960 On ch=1 n=f6 v=70
103040 On ch=1 n=f6 v=0
103040 On ch=1 n=e6 v=69
103120 On ch=1 n=e6 v=0
103120 On ch=1 n=f6 v=69
103200 On ch=1 n=f6 v=0
103200 On ch=1 n=e6 v=68
103280 On ch=1 n=e6 v=0
103280 On ch=1 n=f6 v=67
103360 On ch=1 n=f6 v=0
103360 On ch=1 n=e6 v=67
103440 On ch=1 n=e6 v=0
103440 On ch=1 n=f6 v=66
103500 On ch=1 n=f6 v=0
103500 On ch=1 n=e6 v=65
103560 On ch=1 n=e6 v=0
103560 On ch=1 n=f6 v=65
103620 On ch=1 n=f6 v=0
103620 On ch=1 n=e6 v=64
103680 On ch=1 n=e6 v=0
103680 On ch=1 n=f6 v=64
103760 On ch=1 n=f6 v=0
103760 On ch=1 n=g6 v=65
103840 On ch=1 n=g6 v=0
103840 On ch=1 n=f6 v=67
103920 On ch=1 n=f6 v=0
103920 On ch=1 n=g6 v=68
104000 On ch=1 n=g6 v=0
104000 On ch=1 n=f6 v=69
104080 On ch=1 n=f6 v=0
104080 On ch=1 n=g6 v=71
104160 On ch=1 n=g6 v=0
104160 On ch=1 n=f6 v=72
104240 On ch=1 n=f6 v=0
104240 On ch=1 n=g6 v=73
104320 On ch=1 n=g6 v=0
104320 On ch=1 n=f6 v=75
104400 On ch=1 n=f6 v=0
104400 On ch=1 n=e6 v=76
104520 On ch=1 n=e6 v=0
104520 On ch=1 n=f6 v=78
104640 On ch=1 n=f6 v=0
104640 On ch=1 n=g6 v=80
104880 On ch=1 n=g6 v=0
104880 On ch=1 n=f6 v=84
105000 On ch=1 n=f6 v=0
105120 On ch=1 n=e6 v=88
105240 On ch=1 n=e6 v=0
105360 On ch=1 n=d6 v=92
105480 On ch=1 n=d6 v=0
105600 On ch=1 n=d6 v=96
106080 On ch=1 n=d6 v=0
106080 On ch=1 n=c#6 v=80
106320 On ch=1 n=c#6 v=0
106560 On ch=1 n=a6 v=80
106800 On ch=1 n=a6 v=0
106800 On ch=1 n=g6 v=80
106920 On ch=1 n=g6 v=0
106920 On ch=1 n=a6 v=80
107040 On ch=1 n=a6 v=0
107040 On ch=1 n=a#6 v=80
107280 On ch=1 n=a#6 v=0
107280 On ch=1 n=a6 v=80
107520 On ch=1 n=a6 v=0
107520 On ch=1 n=a6 v=80
107760 On ch=1 n=a6 v=0
107760 On ch=1 n=g#6 v=80
107856 On ch=1 n=g#6 v=0
108000 On ch=1 n=g#6 v=80
108096 On ch=1 n=g#6 v=0
108240 On ch=1 n=g6 v=80
108336 On ch=1 n=g6 v=0
108480 On ch=1 n=g6 v=80
108720 On ch=1 n=g6 v=0
108720 On ch=1 n=f#6 v=80
108840 On ch=1 n=f#6 v=0
108840 On ch=1 n=g6 v=80
108960 On ch=1 n=g6 v=0
108960 On ch=1 n=a6 v=80
109200 On ch=1 n=a6 v=0
109200 On ch=1 n=g6 v=80
109440 On ch=1 n=g6 v=0
109440 On ch=1 n=g6 v=80
109680 On ch=1 n=g6 v=0
109680 On ch=1 n=f#6 v=80
109776 On ch=1 n=f#6 v=0
109920 On ch=1 n=f#6 v=80
110016 On ch=1 n=f#6 v=0
110160 On ch=1 n=f6 v=80
110256 On ch=1 n=f6 v=0
110400 On ch=1 n=g6 v=80
110520 On ch=1 n=g6 v=0
110520 On ch=1 n=f6 v=80
110640 On ch=1 n=f6 v=0
110640 On ch=1 n=e6 v=80
110760 On ch=1 n=e6 v=0
110760 On ch=1 n=f6 v=80
110880 On ch=1 n=f6 v=0
110880 On ch=1 n=g6 v=80
111120 On ch=1 n=g6 v=0
111120 On ch=1 n=f6 v=80
111240 On ch=1 n=f6 v=0
111360 On ch=1 n=f6 v=80
111600 On ch=1 n=f6 v=0
111600 On ch=1 n=e6 v=80
111840 On ch=1 n=e6 v=0
111840 On ch=1 n=d6 v=80
112800 On ch=1 n=d6 v=0
112800 On ch=1 n=e6 v=80
112920 On ch=1 n=e6 v=0
112920 On ch=1 n=c#6 v=80
113280 On ch=1 n=c#6 v=0
113280 On ch=1 n=d6 v=80
113400 On ch=1 n=d6 v=0
113760 On ch=1 n=f6 v=67
113820 On ch=1 n=f6 v=0
113820 On ch=1 n=g6 v=69
113880 On ch=1 n=g6 v=0
113880 On ch=1 n=f6 v=70
113940 On ch=1 n=f6 v=0
113940 On ch=1 n=g6 v=72
114000 On ch=1 n=g6 v=0
114000 On ch=1 n=f6 v=74
114040 On ch=1 n=f6 v=0
114040 On ch=1 n=g6 v=75
114080 On ch=1 n=g6 v=0
114080 On ch=1 n=f6 v=76
114120 On ch=1 n=f6 v=0
114120 On ch=1 n=e6 v=77
114180 On ch=1 n=e6 v=0
114180 On ch=1 n=f6 v=79
114240 On ch=1 n=f6 v=0
114240 On ch=1 n=g6 v=80
114480 On ch=1 n=g6 v=0
114720 On ch=1 n=e6 v=67
114780 On ch=1 n=e6 v=0
114780 On ch=1 n=f6 v=69
114840 On ch=1 n=f6 v=0
114840 On ch=1 n=e6 v=70
114900 On ch=1 n=e6 v=0
114900 On ch=1 n=f6 v=72
114960 On ch=1 n=f6 v=0
114960 On ch=1 n=e6 v=74
115000 On ch=1 n=e6 v=0
115000 On ch=1 n=f6 v=75
115040 On ch=1 n=f6 v=0
115040 On ch=1 n=e6 v=76
115080 On ch=1 n=e6 v=0
115080 On ch=1 n=d6 v=77
115140 On ch=1 n=d6 v=0
115140 On ch=1 n=e6 v=79
115200 On ch=1 n=e6 v=0
115200 On ch=1 n=a6 v=80
115440 On ch=1 n=a6 v=0
115680 On ch=1 n=f6 v=69
115740 On ch=1 n=f6 v=0
115740 On ch=1 n=g6 v=71
115800 On ch=1 n=g6 v=0
115800 On ch=1 n=f6 v=72
115860 On ch=1 n=f6 v=0
115860 On ch=1 n=g6 v=74
115920 On ch=1 n=g6 v=0
115920 On ch=1 n=f6 v=76
115960 On ch=1 n=f6 v=0
115960 On ch=1 n=g6 v=77
116000 On ch=1 n=g6 v=0
116000 On ch=1 n=f6 v=78
116040 On ch=1 n=f6 v=0
116040 On ch=1 n=e6 v=79
116100 On ch=1 n=e6 v=0
116100 On ch=1 n=f6 v=80
116160 On ch=1 n=f6 v=0
116160 On ch=1 n=g6 v=80
116400 On ch=1 n=g6 v=0
116640 On ch=1 n=e6 v=67
116700 On ch=1 n=e6 v=0
116700 On ch=1 n=f6 v=69
116760 On ch=1 n=f6 v=0
116760 On ch=1 n=e6 v=70
116820 On ch=1 n=e6 v=0
116820 On ch=1 n=f6 v=72
116880 On ch=1 n=f6 v=0
116880 On ch=1 n=e6 v=74
116920 On ch=1 n=e6 v=0
116920 On ch=1 n=f6 v=75
116960 On ch=1 n=f6 v=0
116960 On ch=1 n=e6 v=76
117000 On ch=1 n=e6 v=0
117000 On ch=1 n=d6 v=77
117060 On ch=1 n=d6 v=0
117060 On ch=1 n=e6 v=79
117120 On ch=1 n=e6 v=0
117120 On ch=1 n=d6 v=80
118080 On ch=1 n=d6 v=0
118560 On ch=1 n=f6 v=80
118680 On ch=1 n=f6 v=0
118680 On ch=1 n=c6 v=80
119040 On ch=1 n=c6 v=0
119040 On ch=1 n=c6 v=80
119280 On ch=1 n=c6 v=0
119280 On ch=1 n=b5 v=80
119520 On ch=1 n=b5 v=0
119520 On ch=1 n=b5 v=80
120480 On ch=1 n=b5 v=0
120480 On ch=1 n=f6 v=48
120600 On ch=1 n=f6 v=0
120600 On ch=1 n=c6 v=48
120960 On ch=1 n=c6 v=0
120960 On ch=1 n=c6 v=48
121200 On ch=1 n=c6 v=0
121200 On ch=1 n=b5 v=48
121440 On ch=1 n=b5 v=0
121440 On ch=1 n=b5 v=48
122400 On ch=1 n=b5 v=0
122400 On ch=1 n=g#6 v=80
122880 On ch=1 n=g#6 v=0
122880 On ch=1 n=g6 v=80
123120 On ch=1 n=g6 v=0
123360 On ch=1 n=g#6 v=80
123480 On ch=1 n=g#6 v=0
123480 On ch=1 n=g6 v=80
123528 On ch=1 n=g6 v=0
123600 On ch=1 n=f6 v=80
123648 On ch=1 n=f6 v=0
123720 On ch=1 n=d#6 v=80
123768 On ch=1 n=d#6 v=0
123840 On ch=1 n=f6 v=80
124080 On ch=1 n=f6 v=0
124320 On ch=1 n=g6 v=80
124440 On ch=1 n=g6 v=0
124440 On ch=1 n=f6 v=80
124560 On ch=1 n=f6 v=0
124560 On ch=1 n=d#6 v=80
124680 On ch=1 n=d#6 v=0
124680 On ch=1 n=d6 v=80
124800 On ch=1 n=d6 v=0
124800 On ch=1 n=d#6 v=80
125040 On ch=1 n=d#6 v=0
125040 On ch=1 n=c6 v=84
125160 On ch=1 n=c6 v=0
125280 On ch=1 n=g5 v=88
125400 On ch=1 n=g5 v=0
125520 On ch=1 n=d#5 v=92
125640 On ch=1 n=d#5 v=0
125760 On ch=1 n=c5 v=96
126000 On ch=1 n=c5 v=0
126240 On ch=1 n=d#6 v=80
126360 On ch=1 n=d#6 v=0
126360 On ch=1 n=a#5 v=80
126720 On ch=1 n=a#5 v=0
126720 On ch=1 n=a#5 v=80
126960 On ch=1 n=a#5 v=0
126960 On ch=1 n=a5 v=80
127056 On ch=1 n=a5 v=0
127200 On ch=1 n=a5 v=80
128160 On ch=1 n=a5 v=0
128160 On ch=1 n=d#6 v=48
128280 On ch=1 n=d#6 v=0
128280 On ch=1 n=a#5 v=48
128640 On ch=1 n=a#5 v=0
128640 On ch=1 n=a#5 v=48
128880 On ch=1 n=a#5 v=0
128880 On ch=1 n=a5 v=48
129024 On ch=1 n=a5 v=0
129120 On ch=1 n=a5 v=48
130080 On ch=1 n=a5 v=0
130080 On ch=1 n=g6 v=80
130560 On ch=1 n=g6 v=0
130560 On ch=1 n=f6 v=80
130800 On ch=1 n=f6 v=0
131040 On ch=1 n=g6 v=80
131160 On ch=1 n=g6 v=0
131160 On ch=1 n=f6 v=80
131280 On ch=1 n=f6 v=0
131280 On ch=1 n=d#6 v=80
131400 On ch=1 n=d#6 v=0
131400 On ch=1 n=d6 v=80
131520 On ch=1 n=d6 v=0
131520 On ch=1 n=d#6 v=80
131760 On ch=1 n=d#6 v=0
132000 On ch=1 n=f6 v=80
132120 On ch=1 n=f6 v=0
132120 On ch=1 n=d#6 v=80
132168 On ch=1 n=d#6 v=0
132240 On ch=1 n=d6 v=80
132288 On ch=1 n=d6 v=0
132360 On ch=1 n=c6 v=80
132408 On ch=1 n=c6 v=0
132480 On ch=1 n=d6 v=80
132720 On ch=1 n=d6 v=0
132720 On ch=1 n=a#5 v=84
132840 On ch=1 n=a#5 v=0
132960 On ch=1 n=f5 v=88
133080 On ch=1 n=f5 v=0
133200 On ch=1 n=d5 v=92
133320 On ch=1 n=d5 v=0
133440 On ch=1 n=a#4 v=96
133680 On ch=1 n=a#4 v=0
133680 On ch=1 n=f6 v=80
133920 On ch=1 n=f6 v=0
133920 On ch=1 n=a#5 v=80
134160 On ch=1 n=a#5 v=0
134160 On ch=1 n=f6 v=80
134400 On ch=1 n=f6 v=0
134400 On ch=1 n=g6 v=80
134760 On ch=1 n=g6 v=0
134760 On ch=1 n=a#6 v=80
134880 On ch=1 n=a#6 v=0
134880 On ch=1 n=a#6 v=80
134940 On ch=1 n=a#6 v=0
134940 On ch=1 n=c7 v=80
135000 On ch=1 n=c7 v=0
135000 On ch=1 n=a#6 v=80
135060 On ch=1 n=a#6 v=0
135060 On ch=1 n=c7 v=80
135120 On ch=1 n=c7 v=0
135120 On ch=1 n=a#6 v=80
135160 On ch=1 n=a#6 v=0
135160 On ch=1 n=c7 v=80
135200 On ch=1 n=c7 v=0
135200 On ch=1 n=a#6 v=80
135240 On ch=1 n=a#6 v=0
135240 On ch=1 n=a6 v=80
135300 On ch=1 n=a6 v=0
135300 On ch=1 n=a#6 v=80
135360 On ch=1 n=a#6 v=0
135360 On ch=1 n=c7 v=80
135600 On ch=1 n=c7 v=0
135600 On ch=1 n=c6 v=80
135696 On ch=1 n=c6 v=0
135840 On ch=1 n=d#6 v=80
135936 On ch=1 n=d#6 v=0
136080 On ch=1 n=g6 v=80
136176 On ch=1 n=g6 v=0
136320 On ch=1 n=f6 v=80
136680 On ch=1 n=f6 v=0
136680 On ch=1 n=a6 v=80
136800 On ch=1 n=a6 v=0
136800 On ch=1 n=a6 v=80
136860 On ch=1 n=a6 v=0
136860 On ch=1 n=a#6 v=80
136920 On ch=1 n=a#6 v=0
136920 On ch=1 n=a6 v=80
136980 On ch=1 n=a6 v=0
136980 On ch=1 n=a#6 v=80
137040 On ch=1 n=a#6 v=0
137040 On ch=1 n=a6 v=80
137080 On ch=1 n=a6 v=0
137080 On ch=1 n=a#6 v=80
137120 On ch=1 n=a#6 v=0
137120 On ch=1 n=a6 v=80
137160 On ch=1 n=a6 v=0
137160 On ch=1 n=g6 v=80
137220 On ch=1 n=g6 v=0
137220 On ch=1 n=a6 v=80
137280 On ch=1 n=a6 v=0
137280 On ch=1 n=a#6 v=80
137520 On ch=1 n=a#6 v=0
137520 On ch=1 n=a#5 v=80
137760 On ch=1 n=a#5 v=0
137760 On ch=1 n=d6 v=80
138000 On ch=1 n=d6 v=0
138000 On ch=1 n=f6 v=80
138240 On ch=1 n=f6 v=0
138240 On ch=1 n=d#6 v=80
138360 On ch=1 n=d#6 v=0
138360 On ch=1 n=d6 v=80
138480 On ch=1 n=d6 v=0
138480 On ch=1 n=c6 v=80
138600 On ch=1 n=c6 v=0
138600 On ch=1 n=d6 v=80
138720 On ch=1 n=d6 v=0
138720 On ch=1 n=d#6 v=80
139200 On ch=1 n=d#6 v=0
139200 On ch=1 n=d#6 v=80
139320 On ch=1 n=d#6 v=0
139320 On ch=1 n=a6 v=80
139368 On ch=1 n=a6 v=0
139440 On ch=1 n=c7 v=80
139488 On ch=1 n=c7 v=0
139560 On ch=1 n=a#6 v=80
139608 On ch=1 n=a#6 v=0
139680 On ch=1 n=a6 v=80
139800 On ch=1 n=a6 v=0
139800 On ch=1 n=g6 v=80
139920 On ch=1 n=g6 v=0
139920 On ch=1 n=f6 v=80
140040 On ch=1 n=f6 v=0
140040 On ch=1 n=d#6 v=80
140160 On ch=1 n=d#6 v=0
140160 On ch=1 n=d6 v=80
140280 On ch=1 n=d6 v=0
140280 On ch=1 n=c6 v=80
140328 On ch=1 n=c6 v=0
140400 On ch=1 n=a#5 v=80
140448 On ch=1 n=a#5 v=0
140520 On ch=1 n=a5 v=80
140568 On ch=1 n=a5 v=0
140640 On ch=1 n=a#5 v=80
140760 On ch=1 n=a#5 v=0
140760 On ch=1 n=c6 v=80
140880 On ch=1 n=c6 v=0
140880 On ch=1 n=d6 v=80
141000 On ch=1 n=d6 v=0
141000 On ch=1 n=d#6 v=80
141120 On ch=1 n=d#6 v=0
141120 On ch=1 n=f6 v=80
141360 On ch=1 n=f6 v=0
141600 On ch=1 n=g6 v=80
141720 On ch=1 n=g6 v=0
141720 On ch=1 n=f6 v=80
141768 On ch=1 n=f6 v=0
141840 On ch=1 n=d#6 v=80
141888 On ch=1 n=d#6 v=0
141960 On ch=1 n=d6 v=80
142008 On ch=1 n=d6 v=0
142080 On ch=1 n=d6 v=80
142200 On ch=1 n=d6 v=0
142200 On ch=1 n=c6 v=80
142560 On ch=1 n=c6 v=0
142560 On ch=1 n=c#6 v=80
143280 On ch=1 n=c#6 v=0
143280 On ch=1 n=c6 v=80
143400 On ch=1 n=c6 v=0
143400 On ch=1 n=c#6 v=80
143520 On ch=1 n=c#6 v=0
143520 On ch=1 n=d#6 v=80
143760 On ch=1 n=d#6 v=0
143760 On ch=1 n=c#6 v=80
144000 On ch=1 n=c#6 v=0
144000 On ch=1 n=c#6 v=80
144120 On ch=1 n=c#6 v=0
144120 On ch=1 n=c6 v=80
144480 On ch=1 n=c6 v=0
144480 On ch=1 n=c6 v=80
145440 On ch=1 n=c6 v=0
145440 On ch=1 n=f6 v=48
145560 On ch=1 n=f6 v=0
145560 On ch=1 n=d6 v=48
145920 On ch=1 n=d6 v=0
145920 On ch=1 n=d6 v=48
146040 On ch=1 n=d6 v=0
146040 On ch=1 n=c6 v=48
146400 On ch=1 n=c6 v=0
146400 On ch=1 n=c#6 v=48
147120 On ch=1 n=c#6 v=0
147120 On ch=1 n=c6 v=48
147240 On ch=1 n=c6 v=0
147240 On ch=1 n=c#6 v=48
147360 On ch=1 n=c#6 v=0
147360 On ch=1 n=d#6 v=48
147600 On ch=1 n=d#6 v=0
147600 On ch=1 n=c#6 v=48
147840 On ch=1 n=c#6 v=0
147840 On ch=1 n=c#6 v=48
147960 On ch=1 n=c#6 v=0
147960 On ch=1 n=c6 v=48
148320 On ch=1 n=c6 v=0
148320 On ch=1 n=c6 v=48
148800 On ch=1 n=c6 v=0
148800 On ch=1 n=f6 v=80
148860 On ch=1 n=f6 v=0
148860 On ch=1 n=g6 v=80
148920 On ch=1 n=g6 v=0
148920 On ch=1 n=f6 v=80
148960 On ch=1 n=f6 v=0
148960 On ch=1 n=g6 v=80
149000 On ch=1 n=g6 v=0
149000 On ch=1 n=f6 v=80
149040 On ch=1 n=f6 v=0
149040 On ch=1 n=e6 v=80
149160 On ch=1 n=e6 v=0
149160 On ch=1 n=f6 v=80
149280 On ch=1 n=f6 v=0
149280 On ch=1 n=g6 v=80
149520 On ch=1 n=g6 v=0
149520 On ch=1 n=f6 v=80
149760 On ch=1 n=f6 v=0
149760 On ch=1 n=f6 v=80
150240 On ch=1 n=f6 v=0
150240 On ch=1 n=e6 v=80
150720 On ch=1 n=e6 v=0
150720 On ch=1 n=d#6 v=80
150780 On ch=1 n=d#6 v=0
150780 On ch=1 n=f6 v=80
150840 On ch=1 n=f6 v=0
150840 On ch=1 n=d#6 v=80
150880 On ch=1 n=d#6 v=0
150880 On ch=1 n=f6 v=80
150920 On ch=1 n=f6 v=0
150920 On ch=1 n=d#6 v=80
150960 On ch=1 n=d#6 v=0
150960 On ch=1 n=d6 v=80
151080 On ch=1 n=d6 v=0
151080 On ch=1 n=d#6 v=80
151200 On ch=1 n=d#6 v=0
151200 On ch=1 n=f6 v=80
151440 On ch=1 n=f6 v=0
151440 On ch=1 n=d#6 v=80
151680 On ch=1 n=d#6 v=0
151680 On ch=1 n=d#6 v=80
152160 On ch=1 n=d#6 v=0
152160 On ch=1 n=d6 v=80
152520 On ch=1 n=d6 v=0
152520 On ch=1 n=d#6 v=80
152640 On ch=1 n=d#6 v=0
152640 On ch=1 n=d6 v=80
152700 On ch=1 n=d6 v=0
152700 On ch=1 n=d#6 v=80
152760 On ch=1 n=d#6 v=0
152760 On ch=1 n=d6 v=80
152800 On ch=1 n=d6 v=0
152800 On ch=1 n=d#6 v=80
152840 On ch=1 n=d#6 v=0
152840 On ch=1 n=d6 v=80
152880 On ch=1 n=d6 v=0
152880 On ch=1 n=c6 v=80
153000 On ch=1 n=c6 v=0
153000 On ch=1 n=d6 v=80
153120 On ch=1 n=d6 v=0
153120 On ch=1 n=d#6 v=80
153360 On ch=1 n=d#6 v=0
153360 On ch=1 n=d6 v=80
153600 On ch=1 n=d6 v=0
153600 On ch=1 n=d6 v=80
153840 On ch=1 n=d6 v=0
153840 On ch=1 n=c6 v=80
154080 On ch=1 n=c6 v=0
154080 On ch=1 n=a#5 v=80
155040 On ch=1 n=a#5 v=0
155040 On ch=1 n=c6 v=80
155160 On ch=1 n=c6 v=0
155160 On ch=1 n=a5 v=80
155520 On ch=1 n=a5 v=0
155520 On ch=1 n=a5 v=80
156000 On ch=1 n=a5 v=0
156000 On ch=1 n=a#5 v=80
156240 On ch=1 n=a#5 v=0
156480 On ch=1 n=g6 v=80
156600 On ch=1 n=g6 v=0
156600 On ch=1 n=f6 v=80
156648 On ch=1 n=f6 v=0
156720 On ch=1 n=e6 v=80
156768 On ch=1 n=e6 v=0
156840 On ch=1 n=f6 v=80
156888 On ch=1 n=f6 v=0
156960 On ch=1 n=g6 v=80
157200 On ch=1 n=g6 v=0
157200 On ch=1 n=f6 v=80
157440 On ch=1 n=f6 v=0
157440 On ch=1 n=f6 v=80
157680 On ch=1 n=f6 v=0
157680 On ch=1 n=e6 v=80
157776 On ch=1 n=e6 v=0
157920 On ch=1 n=e6 v=80
158016 On ch=1 n=e6 v=0
158160 On ch=1 n=e6 v=80
158256 On ch=1 n=e6 v=0
158400 On ch=1 n=f6 v=80
158520 On ch=1 n=f6 v=0
158520 On ch=1 n=d#6 v=80
158568 On ch=1 n=d#6 v=0
158640 On ch=1 n=d6 v=80
158688 On ch=1 n=d6 v=0
158760 On ch=1 n=d#6 v=80
158808 On ch=1 n=d#6 v=0
158880 On ch=1 n=f6 v=80
159120 On ch=1 n=f6 v=0
159120 On ch=1 n=d#6 v=80
159360 On ch=1 n=d#6 v=0
159360 On ch=1 n=d#6 v=80
159600 On ch=1 n=d#6 v=0
159600 On ch=1 n=d6 v=80
159696 On ch=1 n=d6 v=0
159840 On ch=1 n=d6 v=80
159936 On ch=1 n=d6 v=0
160080 On ch=1 n=d6 v=80
160176 On ch=1 n=d6 v=0
160320 On ch=1 n=d6 v=80
160380 On ch=1 n=d6 v=0
160380 On ch=1 n=d#6 v=80
160440 On ch=1 n=d#6 v=0
160440 On ch=1 n=d6 v=80
160480 On ch=1 n=d6 v=0
160480 On ch=1 n=d#6 v=80
160520 On ch=1 n=d#6 v=0
160520 On ch=1 n=d6 v=80
160560 On ch=1 n=d6 v=0
160560 On ch=1 n=c6 v=80
160680 On ch=1 n=c6 v=0
160680 On ch=1 n=d6 v=80
160800 On ch=1 n=d6 v=0
160800 On ch=1 n=d#6 v=80
161040 On ch=1 n=d#6 v=0
161040 On ch=1 n=d6 v=80
161280 On ch=1 n=d6 v=0
161280 On ch=1 n=d6 v=80
161520 On ch=1 n=d6 v=0
161520 On ch=1 n=c6 v=80
161760 On ch=1 n=c6 v=0
161760 On ch=1 n=a#5 v=80
162720 On ch=1 n=a#5 v=0
162720 On ch=1 n=c6 v=80
162840 On ch=1 n=c6 v=0
162840 On ch=1 n=a5 v=80
163200 On ch=1 n=a5 v=0
163200 On ch=1 n=a#5 v=80
163320 On ch=1 n=a#5 v=0
163680 On ch=1 n=d6 v=80
163680 On ch=1 n=a#6 v=80
163848 On ch=1 n=a#6 v=0
163848 On ch=1 n=d6 v=0
164160 On ch=1 n=d6 v=80
164160 On ch=1 n=a#6 v=80
164328 On ch=1 n=a#6 v=0
164328 On ch=1 n=d6 v=0
164640 On ch=1 n=d6 v=80
164640 On ch=1 n=a#6 v=80
165120 On ch=1 n=a#6 v=0
165120 On ch=1 n=d6 v=0
165120 On ch=1 n=d6 v=80
165120 On ch=1 n=a#6 v=80
165360 On ch=1 n=a#6 v=0
165360 On ch=1 n=c7 v=80
165480 On ch=1 n=c7 v=0
165480 On ch=1 n=d7 v=80
165600 On ch=1 n=d7 v=0
165600 On ch=1 n=d6 v=0
165600 On ch=1 n=d6 v=80
165600 On ch=1 n=a#6 v=80
165768 On ch=1 n=a#6 v=0
165768 On ch=1 n=d6 v=0
166080 On ch=1 n=d6 v=80
166080 On ch=1 n=a#6 v=80
166248 On ch=1 n=a#6 v=0
166248 On ch=1 n=d6 v=0
166560 On ch=1 n=d6 v=80
166560 On ch=1 n=a#6 v=80
167040 On ch=1 n=a#6 v=0
167040 On ch=1 n=d6 v=0
167040 On ch=1 n=d6 v=80
167040 On ch=1 n=a#6 v=80
167400 On ch=1 n=a#6 v=0
167400 On ch=1 n=d6 v=0
167400 On ch=1 n=a#6 v=80
167520 On ch=1 n=a#6 v=0
167520 On ch=1 n=c6 v=80
167700 On ch=1 n=c6 v=0
167880 On ch=1 n=d#6 v=80
167880 On ch=1 n=g6 v=80
167940 On ch=1 n=g6 v=0
167940 On ch=1 n=d#6 v=0
167970 On ch=1 n=g6 v=80
167970 On ch=1 n=d#6 v=80
168000 On ch=1 n=d6 v=80
168000 On ch=1 n=f6 v=80
168030 On ch=1 n=d#6 v=0
168030 On ch=1 n=g6 v=0
168180 On ch=1 n=f6 v=0
168180 On ch=1 n=d6 v=0
168360 On ch=1 n=c6 v=80
168360 On ch=1 n=d#6 v=80
168420 On ch=1 n=d#6 v=0
168420 On ch=1 n=c6 v=0
168450 On ch=1 n=c6 v=80
168450 On ch=1 n=d#6 v=80
168480 On ch=1 n=a#5 v=80
168480 On ch=1 n=d6 v=80
168510 On ch=1 n=d#6 v=0
168510 On ch=1 n=c6 v=0
168840 On ch=1 n=d6 v=0
168840 On ch=1 n=a#5 v=0
168840 On ch=1 n=a5 v=80
168840 On ch=1 n=c6 v=80
168960 On ch=1 n=c6 v=0
168960 On ch=1 n=a5 v=0
168960 On ch=1 n=a#5 v=80
169200 On ch=1 n=a#5 v=0
169440 On ch=1 n=a#6 v=48
169440 On ch=1 n=d6 v=48
169560 On ch=1 n=d6 v=0
169560 On ch=1 n=a#6 v=0
169920 On ch=1 n=a#6 v=48
169920 On ch=1 n=d6 v=48
170040 On ch=1 n=d6 v=0
170040 On ch=1 n=a#6 v=0
170400 On ch=1 n=a#6 v=48
170400 On ch=1 n=d6 v=48
170880 On ch=1 n=d6 v=0
170880 On ch=1 n=a#6 v=0
170880 On ch=1 n=a#6 v=48
170880 On ch=1 n=d6 v=48
171120 On ch=1 n=a#6 v=0
171120 On ch=1 n=c7 v=48
171240 On ch=1 n=c7 v=0
171240 On ch=1 n=d7 v=48
171360 On ch=1 n=d7 v=0
171360 On ch=1 n=d6 v=0
171360 On ch=1 n=a#6 v=48
171360 On ch=1 n=d6 v=48
171480 On ch=1 n=d6 v=0
171480 On ch=1 n=a#6 v=0
171840 On ch=1 n=a#6 v=48
171840 On ch=1 n=d6 v=48
171960 On ch=1 n=d6 v=0
171960 On ch=1 n=a#6 v=0
172320 On ch=1 n=a#6 v=48
172320 On ch=1 n=d6 v=48
172800 On ch=1 n=d6 v=0
172800 On ch=1 n=a#6 v=0
172800 On ch=1 n=a#6 v=48
172800 On ch=1 n=d6 v=48
173160 On ch=1 n=d6 v=0
173160 On ch=1 n=a#6 v=0
173160 On ch=1 n=a#6 v=54
173280 On ch=1 n=a#6 v=0
173280 On ch=1 n=c6 v=56
173424 On ch=1 n=c6 v=0
173640 On ch=1 n=g6 v=62
173640 On ch=1 n=d#6 v=62
173700 On ch=1 n=d#6 v=0
173700 On ch=1 n=g6 v=0
173730 On ch=1 n=d#6 v=64
173730 On ch=1 n=g6 v=64
173760 On ch=1 n=f6 v=64
173760 On ch=1 n=d6 v=64
173790 On ch=1 n=g6 v=0
173790 On ch=1 n=d#6 v=0
173940 On ch=1 n=d6 v=0
173940 On ch=1 n=f6 v=0
174120 On ch=1 n=d#6 v=70
174120 On ch=1 n=c6 v=70
174180 On ch=1 n=c6 v=0
174180 On ch=1 n=d#6 v=0
174210 On ch=1 n=d#6 v=72
174210 On ch=1 n=c6 v=72
174240 On ch=1 n=d6 v=72
174240 On ch=1 n=a#5 v=72
174270 On ch=1 n=c6 v=0
174270 On ch=1 n=d#6 v=0
174600 On ch=1 n=a#5 v=0
174600 On ch=1 n=d6 v=0
174600 On ch=1 n=c6 v=78
174600 On ch=1 n=a5 v=78
174720 On ch=1 n=a5 v=0
174720 On ch=1 n=c6 v=0
174720 On ch=1 n=a#5 v=80
175080 On ch=1 n=a#5 v=0
175080 On ch=1 n=a#6 v=80
175200 On ch=1 n=a#6 v=0
175200 On ch=1 n=c6 v=80
175380 On ch=1 n=c6 v=0
175560 On ch=1 n=g6 v=80
175560 On ch=1 n=d#6 v=80
175620 On ch=1 n=d#6 v=0
175620 On ch=1 n=g6 v=0
175650 On ch=1 n=d#6 v=80
175650 On ch=1 n=g6 v=80
175680 On ch=1 n=f6 v=80
175680 On ch=1 n=d6 v=80
175710 On ch=1 n=g6 v=0
175710 On ch=1 n=d#6 v=0
175896 On ch=1 n=d6 v=0
175896 On ch=1 n=f6 v=0
176040 On ch=1 n=d#6 v=80
176040 On ch=1 n=c6 v=80
176100 On ch=1 n=c6 v=0
176100 On ch=1 n=d#6 v=0
176130 On ch=1 n=d#6 v=80
176130 On ch=1 n=c6 v=80
176160 On ch=1 n=d6 v=80
176160 On ch=1 n=a#5 v=80
176190 On ch=1 n=c6 v=0
176190 On ch=1 n=d#6 v=0
176520 On ch=1 n=a#5 v=0
176520 On ch=1 n=d6 v=0
176520 On ch=1 n=c6 v=80
176520 On ch=1 n=a5 v=80
176640 On ch=1 n=a5 v=0
176640 On ch=1 n=c6 v=0
176640 On ch=1 n=a#5 v=80
176800 On ch=1 n=a#5 v=0
176800 On ch=1 n=f5 v=82
176864 On ch=1 n=f5 v=0
176960 On ch=1 n=d#5 v=85
177024 On ch=1 n=d#5 v=0
177120 On ch=1 n=d5 v=87
177280 On ch=1 n=d5 v=0
177280 On ch=1 n=d#5 v=89
177440 On ch=1 n=d#5 v=0
177440 On ch=1 n=f5 v=92
177600 On ch=1 n=f5 v=0
177600 On ch=1 n=a#4 v=94
178080 On ch=1 n=a#4 v=0
178080 Meta TrkEnd
TrkEnd
MTrk
0 SeqSpec 43 00 01 00
0 Meta TrkName "by FJ Haydn  (1st mvmt - Allegro)"
0 Meta 0x21 00
0 PrCh ch=2 p=0
0 Par ch=2 c=7 v=127
0 Par ch=2 c=10 v=56
1920 On ch=2 n=a#4 v=56
2160 On ch=2 n=a#4 v=0
2160 On ch=2 n=d5 v=56
2232 On ch=2 n=d5 v=0
2400 On ch=2 n=a#4 v=56
2472 On ch=2 n=a#4 v=0
2640 On ch=2 n=d5 v=56
2712 On ch=2 n=d5 v=0
2880 On ch=2 n=a#4 v=56
3120 On ch=2 n=a#4 v=0
3120 On ch=2 n=d5 v=56
3360 On ch=2 n=d5 v=0
3360 On ch=2 n=a#4 v=56
3600 On ch=2 n=a#4 v=0
3600 On ch=2 n=d#5 v=56
3840 On ch=2 n=d#5 v=0
3840 On ch=2 n=a#4 v=56
4080 On ch=2 n=a#4 v=0
4080 On ch=2 n=d5 v=56
4152 On ch=2 n=d5 v=0
4320 On ch=2 n=a#4 v=56
4392 On ch=2 n=a#4 v=0
4560 On ch=2 n=d5 v=56
4632 On ch=2 n=d5 v=0
4800 On ch=2 n=a#4 v=56
5040 On ch=2 n=a#4 v=0
5040 On ch=2 n=d5 v=56
5280 On ch=2 n=d5 v=0
5280 On ch=2 n=a#4 v=56
5520 On ch=2 n=a#4 v=0
5520 On ch=2 n=d#5 v=56
5760 On ch=2 n=d#5 v=0
5760 On ch=2 n=a#4 v=56
6000 On ch=2 n=a#4 v=0
6000 On ch=2 n=d5 v=56
6072 On ch=2 n=d5 v=0
6240 On ch=2 n=g4 v=56
6312 On ch=2 n=g4 v=0
6480 On ch=2 n=a#4 v=56
6552 On ch=2 n=a#4 v=0
6720 On ch=2 n=d#4 v=56
6960 On ch=2 n=d#4 v=0
6960 On ch=2 n=c5 v=56
7200 On ch=2 n=c5 v=0
7200 On ch=2 n=f4 v=56
7440 On ch=2 n=f4 v=0
7440 On ch=2 n=a4 v=56
7680 On ch=2 n=a4 v=0
7680 On ch=2 n=a#4 v=56
7920 On ch=2 n=a#4 v=0
7920 On ch=2 n=d5 v=56
7992 On ch=2 n=d5 v=0
8160 On ch=2 n=a#4 v=56
8232 On ch=2 n=a#4 v=0
8400 On ch=2 n=d5 v=56
8472 On ch=2 n=d5 v=0
8640 On ch=2 n=a#4 v=56
8880 On ch=2 n=a#4 v=0
8880 On ch=2 n=d5 v=56
9120 On ch=2 n=d5 v=0
9120 On ch=2 n=a#4 v=56
9360 On ch=2 n=a#4 v=0
9360 On ch=2 n=d#5 v=56
9600 On ch=2 n=d#5 v=0
9600 On ch=2 n=a#4 v=56
9840 On ch=2 n=a#4 v=0
9840 On ch=2 n=d5 v=56
9912 On ch=2 n=d5 v=0
10080 On ch=2 n=g4 v=56
10152 On ch=2 n=g4 v=0
10320 On ch=2 n=a#4 v=56
10392 On ch=2 n=a#4 v=0
10560 On ch=2 n=d#4 v=56
10800 On ch=2 n=d#4 v=0
10800 On ch=2 n=c5 v=56
11040 On ch=2 n=c5 v=0
11040 On ch=2 n=f4 v=56
11280 On ch=2 n=f4 v=0
11280 On ch=2 n=a4 v=56
11520 On ch=2 n=a4 v=0
11520 On ch=2 n=a#3 v=72
11520 On ch=2 n=a#4 v=72
12480 On ch=2 n=a#4 v=0
12480 On ch=2 n=a#3 v=0
12960 On ch=2 n=a#4 v=49
12960 On ch=2 n=d5 v=49
13104 On ch=2 n=d5 v=0
13104 On ch=2 n=a#4 v=0
13440 On ch=2 n=a4 v=53
13440 On ch=2 n=c5 v=53
13584 On ch=2 n=c5 v=0
13584 On ch=2 n=a4 v=0
14400 On ch=2 n=g4 v=60
14400 On ch=2 n=a#4 v=60
14640 On ch=2 n=a#4 v=0
14640 On ch=2 n=g4 v=0
15360 On ch=2 n=f4 v=67
15360 On ch=2 n=a4 v=67
15696 On ch=2 n=a4 v=0
15696 On ch=2 n=f4 v=0
16320 On ch=2 n=d#4 v=73
16320 On ch=2 n=g4 v=73
16800 On ch=2 n=g4 v=0
16800 On ch=2 n=d#4 v=0
17280 On ch=2 n=f4 v=80
17280 On ch=2 n=d4 v=80
17424 On ch=2 n=d4 v=0
17424 On ch=2 n=f4 v=0
17760 On ch=2 n=f4 v=80
17760 On ch=2 n=d4 v=80
18240 On ch=2 n=d4 v=0
18240 On ch=2 n=f4 v=0
18240 On ch=2 n=a4 v=80
18240 On ch=2 n=c4 v=80
18384 On ch=2 n=c4 v=0
18384 On ch=2 n=a4 v=0
18720 On ch=2 n=a#4 v=80
18720 On ch=2 n=a#3 v=80
18864 On ch=2 n=a#3 v=0
18864 On ch=2 n=a#4 v=0
19200 On ch=2 n=a#4 v=80
19200 On ch=2 n=f4 v=80
19680 On ch=2 n=a#4 v=0
19680 On ch=2 n=a4 v=80
20160 On ch=2 n=a4 v=0
20160 On ch=2 n=f4 v=0
20160 On ch=2 n=a#4 v=80
20640 On ch=2 n=d5 v=80
21120 On ch=2 n=d5 v=0
21120 On ch=2 n=a#4 v=0
21120 On ch=2 n=c5 v=80
21120 On ch=2 n=a4 v=80
21600 On ch=2 n=a4 v=0
21600 On ch=2 n=c5 v=0
21600 On ch=2 n=c6 v=80
21600 On ch=2 n=a5 v=80
22080 On ch=2 n=a5 v=0
22080 On ch=2 n=c6 v=0
22080 On ch=2 n=a#5 v=80
22080 On ch=2 n=g5 v=80
22560 On ch=2 n=g5 v=0
22560 On ch=2 n=a#5 v=0
22560 On ch=2 n=a#4 v=80
22560 On ch=2 n=g4 v=80
23040 On ch=2 n=g4 v=0
23040 On ch=2 n=a#4 v=0
23040 On ch=2 n=a4 v=80
23040 On ch=2 n=f4 v=80
23520 On ch=2 n=f4 v=0
23520 On ch=2 n=a4 v=0
23520 On ch=2 n=f5 v=80
23520 On ch=2 n=a5 v=80
24000 On ch=2 n=a5 v=0
24000 On ch=2 n=f5 v=0
24000 On ch=2 n=d#5 v=80
24000 On ch=2 n=g5 v=80
24480 On ch=2 n=g5 v=0
24480 On ch=2 n=d#5 v=0
24480 On ch=2 n=d#4 v=80
24480 On ch=2 n=g4 v=80
24960 On ch=2 n=g4 v=0
24960 On ch=2 n=d#4 v=0
24960 On ch=2 n=d4 v=80
24960 On ch=2 n=f4 v=80
25440 On ch=2 n=f4 v=0
25440 On ch=2 n=d4 v=0
25440 On ch=2 n=f5 v=80
25440 On ch=2 n=d5 v=80
25920 On ch=2 n=d5 v=0
25920 On ch=2 n=f5 v=0
25920 On ch=2 n=a4 v=80
25920 On ch=2 n=f5 v=80
26400 On ch=2 n=f5 v=0
26400 On ch=2 n=a4 v=0
26400 On ch=2 n=a#4 v=80
26400 On ch=2 n=f5 v=80
26880 On ch=2 n=f5 v=0
26880 On ch=2 n=a#4 v=0
27120 On ch=2 n=f4 v=82
27360 On ch=2 n=f4 v=0
27360 On ch=2 n=c4 v=84
27456 On ch=2 n=c4 v=0
27600 On ch=2 n=a3 v=86
27696 On ch=2 n=a3 v=0
27840 On ch=2 n=f3 v=88
28320 On ch=2 n=f3 v=0
28800 On ch=2 n=f4 v=56
29040 On ch=2 n=f4 v=0
29040 On ch=2 n=a4 v=56
29112 On ch=2 n=a4 v=0
29280 On ch=2 n=f4 v=56
29352 On ch=2 n=f4 v=0
29520 On ch=2 n=a4 v=56
29592 On ch=2 n=a4 v=0
29760 On ch=2 n=f4 v=56
30000 On ch=2 n=f4 v=0
30000 On ch=2 n=a4 v=56
30240 On ch=2 n=a4 v=0
30240 On ch=2 n=f4 v=56
30480 On ch=2 n=f4 v=0
30480 On ch=2 n=a4 v=56
30720 On ch=2 n=a4 v=0
30720 On ch=2 n=f4 v=56
30960 On ch=2 n=f4 v=0
30960 On ch=2 n=g4 v=56
31032 On ch=2 n=g4 v=0
31200 On ch=2 n=f4 v=56
31272 On ch=2 n=f4 v=0
31440 On ch=2 n=g4 v=56
31512 On ch=2 n=g4 v=0
31680 On ch=2 n=f4 v=56
31920 On ch=2 n=f4 v=0
31920 On ch=2 n=g4 v=56
32160 On ch=2 n=g4 v=0
32160 On ch=2 n=f4 v=56
32400 On ch=2 n=f4 v=0
32400 On ch=2 n=g4 v=56
32640 On ch=2 n=g4 v=0
32640 On ch=2 n=e4 v=56
32880 On ch=2 n=e4 v=0
32880 On ch=2 n=g4 v=56
32952 On ch=2 n=g4 v=0
33120 On ch=2 n=e4 v=56
33192 On ch=2 n=e4 v=0
33360 On ch=2 n=g4 v=56
33432 On ch=2 n=g4 v=0
33600 On ch=2 n=e4 v=56
33840 On ch=2 n=e4 v=0
33840 On ch=2 n=g4 v=56
33960 On ch=2 n=g4 v=0
34080 On ch=2 n=e4 v=56
34200 On ch=2 n=e4 v=0
34320 On ch=2 n=g4 v=56
34440 On ch=2 n=g4 v=0
34560 On ch=2 n=f3 v=56
34800 On ch=2 n=f3 v=0
34800 On ch=2 n=f4 v=56
34920 On ch=2 n=f4 v=0
35040 On ch=2 n=f3 v=56
35160 On ch=2 n=f3 v=0
35280 On ch=2 n=f4 v=56
35400 On ch=2 n=f4 v=0
35520 On ch=2 n=a3 v=56
35760 On ch=2 n=a3 v=0
35760 On ch=2 n=f4 v=56
36000 On ch=2 n=f4 v=0
36000 On ch=2 n=a3 v=56
36240 On ch=2 n=a3 v=0
36240 On ch=2 n=f4 v=56
36480 On ch=2 n=f4 v=0
36480 On ch=2 n=a#3 v=56
36720 On ch=2 n=a#3 v=0
36720 On ch=2 n=f4 v=56
36960 On ch=2 n=f4 v=0
36960 On ch=2 n=b3 v=56
37200 On ch=2 n=b3 v=0
37200 On ch=2 n=f4 v=56
37440 On ch=2 n=f4 v=0
37440 On ch=2 n=b3 v=56
37680 On ch=2 n=b3 v=0
37680 On ch=2 n=f4 v=56
37920 On ch=2 n=f4 v=0
37920 On ch=2 n=b3 v=56
38160 On ch=2 n=b3 v=0
38160 On ch=2 n=f4 v=56
38400 On ch=2 n=f4 v=0
38400 On ch=2 n=c4 v=56
38640 On ch=2 n=c4 v=0
38640 On ch=2 n=e4 v=56
38880 On ch=2 n=e4 v=0
38880 On ch=2 n=c4 v=56
39120 On ch=2 n=c4 v=0
39120 On ch=2 n=e4 v=56
39360 On ch=2 n=e4 v=0
39360 On ch=2 n=c4 v=56
39600 On ch=2 n=c4 v=0
39600 On ch=2 n=e4 v=56
39840 On ch=2 n=e4 v=0
39840 On ch=2 n=a3 v=48
40080 On ch=2 n=a3 v=0
40080 On ch=2 n=f4 v=48
40320 On ch=2 n=f4 v=0
40320 On ch=2 n=a#3 v=48
40560 On ch=2 n=a#3 v=0
40560 On ch=2 n=f4 v=48
40656 On ch=2 n=f4 v=0
40800 On ch=2 n=b3 v=48
40896 On ch=2 n=b3 v=0
41040 On ch=2 n=f4 v=48
41136 On ch=2 n=f4 v=0
41280 On ch=2 n=b3 v=48
41376 On ch=2 n=b3 v=0
41520 On ch=2 n=f4 v=48
41616 On ch=2 n=f4 v=0
41760 On ch=2 n=b3 v=48
41856 On ch=2 n=b3 v=0
42000 On ch=2 n=f4 v=48
42096 On ch=2 n=f4 v=0
42240 On ch=2 n=c4 v=48
42480 On ch=2 n=c4 v=0
42480 On ch=2 n=e4 v=48
42720 On ch=2 n=e4 v=0
42720 On ch=2 n=c4 v=48
42960 On ch=2 n=c4 v=0
42960 On ch=2 n=e4 v=48
43200 On ch=2 n=e4 v=0
43200 On ch=2 n=a3 v=56
43440 On ch=2 n=a3 v=0
43440 On ch=2 n=f4 v=56
43680 On ch=2 n=f4 v=0
43680 On ch=2 n=a3 v=56
43920 On ch=2 n=a3 v=0
43920 On ch=2 n=f4 v=56
44160 On ch=2 n=f4 v=0
44160 On ch=2 n=g3 v=56
44400 On ch=2 n=g3 v=0
44400 On ch=2 n=f4 v=56
44640 On ch=2 n=f4 v=0
44640 On ch=2 n=g3 v=56
44880 On ch=2 n=g3 v=0
44880 On ch=2 n=f4 v=56
45120 On ch=2 n=f4 v=0
45120 On ch=2 n=c4 v=56
45360 On ch=2 n=c4 v=0
45360 On ch=2 n=e4 v=56
45600 On ch=2 n=e4 v=0
45600 On ch=2 n=c4 v=56
45840 On ch=2 n=c4 v=0
45840 On ch=2 n=e4 v=56
46080 On ch=2 n=e4 v=0
46080 On ch=2 n=f3 v=56
46320 On ch=2 n=f3 v=0
46320 On ch=2 n=f4 v=56
46560 On ch=2 n=f4 v=0
46560 On ch=2 n=f3 v=56
46800 On ch=2 n=f3 v=0
46800 On ch=2 n=f4 v=56
47040 On ch=2 n=f4 v=0
47040 On ch=2 n=d4 v=56
47280 On ch=2 n=d4 v=0
47280 On ch=2 n=f4 v=56
47520 On ch=2 n=f4 v=0
47520 On ch=2 n=d4 v=56
47760 On ch=2 n=d4 v=0
47760 On ch=2 n=f4 v=56
48000 On ch=2 n=f4 v=0
48000 On ch=2 n=a#3 v=80
48000 On ch=2 n=a#4 v=80
48480 On ch=2 n=a#4 v=0
48480 On ch=2 n=a4 v=80
48960 On ch=2 n=a#3 v=0
48960 On ch=2 n=c4 v=80
49440 On ch=2 n=a4 v=0
49440 On ch=2 n=a#4 v=80
49560 On ch=2 n=a#4 v=0
49560 On ch=2 n=g4 v=80
49920 On ch=2 n=g4 v=0
49920 On ch=2 n=c4 v=0
49920 On ch=2 n=f3 v=80
50160 On ch=2 n=f3 v=0
50160 On ch=2 n=f4 v=80
50256 On ch=2 n=f4 v=0
50400 On ch=2 n=e4 v=80
50496 On ch=2 n=e4 v=0
50640 On ch=2 n=f4 v=80
50736 On ch=2 n=f4 v=0
50880 On ch=2 n=a3 v=80
51120 On ch=2 n=a3 v=0
51120 On ch=2 n=f4 v=80
51360 On ch=2 n=f4 v=0
51360 On ch=2 n=a3 v=80
51600 On ch=2 n=a3 v=0
51600 On ch=2 n=f4 v=80
51840 On ch=2 n=f4 v=0
51840 On ch=2 n=g3 v=56
52080 On ch=2 n=g3 v=0
52080 On ch=2 n=f4 v=56
52152 On ch=2 n=f4 v=0
52320 On ch=2 n=g3 v=56
52392 On ch=2 n=g3 v=0
52560 On ch=2 n=f4 v=56
52632 On ch=2 n=f4 v=0
52800 On ch=2 n=c4 v=56
53040 On ch=2 n=c4 v=0
53040 On ch=2 n=e4 v=56
53280 On ch=2 n=e4 v=0
53280 On ch=2 n=c4 v=56
53520 On ch=2 n=c4 v=0
53520 On ch=2 n=e4 v=56
53760 On ch=2 n=e4 v=0
53760 On ch=2 n=d4 v=56
54000 On ch=2 n=d4 v=0
54000 On ch=2 n=f4 v=56
54072 On ch=2 n=f4 v=0
54240 On ch=2 n=d4 v=56
54312 On ch=2 n=d4 v=0
54480 On ch=2 n=f4 v=56
54552 On ch=2 n=f4 v=0
54720 On ch=2 n=d4 v=56
54960 On ch=2 n=d4 v=0
54960 On ch=2 n=f4 v=56
55200 On ch=2 n=f4 v=0
55200 On ch=2 n=d4 v=56
55440 On ch=2 n=d4 v=0
55440 On ch=2 n=f4 v=56
55680 On ch=2 n=f4 v=0
55680 On ch=2 n=a#4 v=80
55680 On ch=2 n=a#3 v=80
56160 On ch=2 n=a#4 v=0
56160 On ch=2 n=a4 v=80
56640 On ch=2 n=a#3 v=0
56640 On ch=2 n=c4 v=80
57120 On ch=2 n=a4 v=0
57120 On ch=2 n=a#4 v=80
57240 On ch=2 n=a#4 v=0
57240 On ch=2 n=g4 v=80
57600 On ch=2 n=g4 v=0
57600 On ch=2 n=c4 v=0
57840 On ch=2 n=f5 v=64
57960 On ch=2 n=f5 v=0
58080 On ch=2 n=a4 v=64
58152 On ch=2 n=a4 v=0
58320 On ch=2 n=f5 v=64
58392 On ch=2 n=f5 v=0
58560 On ch=2 n=a#4 v=64
58680 On ch=2 n=a#4 v=0
58800 On ch=2 n=f5 v=64
58920 On ch=2 n=f5 v=0
59040 On ch=2 n=c5 v=64
59280 On ch=2 n=c5 v=0
59280 On ch=2 n=f5 v=64
59400 On ch=2 n=f5 v=0
59520 On ch=2 n=d5 v=64
59760 On ch=2 n=d5 v=0
59760 On ch=2 n=f5 v=64
59880 On ch=2 n=f5 v=0
60000 On ch=2 n=a4 v=64
60240 On ch=2 n=a4 v=0
60240 On ch=2 n=f5 v=64
60360 On ch=2 n=f5 v=0
60480 On ch=2 n=a#4 v=64
60720 On ch=2 n=a#4 v=0
60720 On ch=2 n=f5 v=64
60840 On ch=2 n=f5 v=0
60960 On ch=2 n=c5 v=64
61200 On ch=2 n=c5 v=0
61200 On ch=2 n=f5 v=64
61320 On ch=2 n=f5 v=0
61440 On ch=2 n=d5 v=80
61920 On ch=2 n=d5 v=0
61920 On ch=2 n=a#4 v=80
62160 On ch=2 n=a#4 v=0
62400 On ch=2 n=c5 v=80
62640 On ch=2 n=c5 v=0
62880 On ch=2 n=c4 v=80
63360 On ch=2 n=c4 v=0
63600 On ch=2 n=f5 v=40
63720 On ch=2 n=f5 v=0
63840 On ch=2 n=a4 v=40
63960 On ch=2 n=a4 v=0
64080 On ch=2 n=f5 v=40
64200 On ch=2 n=f5 v=0
64320 On ch=2 n=a#4 v=40
64440 On ch=2 n=a#4 v=0
64560 On ch=2 n=f5 v=40
64680 On ch=2 n=f5 v=0
64800 On ch=2 n=c5 v=40
64920 On ch=2 n=c5 v=0
65040 On ch=2 n=f5 v=40
65160 On ch=2 n=f5 v=0
65280 On ch=2 n=d5 v=40
65400 On ch=2 n=d5 v=0
65520 On ch=2 n=f5 v=40
65640 On ch=2 n=f5 v=0
65760 On ch=2 n=a4 v=40
65880 On ch=2 n=a4 v=0
66000 On ch=2 n=f5 v=40
66120 On ch=2 n=f5 v=0
66240 On ch=2 n=a#4 v=40
66360 On ch=2 n=a#4 v=0
66480 On ch=2 n=f5 v=40
66600 On ch=2 n=f5 v=0
66720 On ch=2 n=c5 v=40
66840 On ch=2 n=c5 v=0
66960 On ch=2 n=f5 v=40
67080 On ch=2 n=f5 v=0
67200 On ch=2 n=d5 v=48
67680 On ch=2 n=d5 v=0
67680 On ch=2 n=a#4 v=48
67920 On ch=2 n=a#4 v=0
68160 On ch=2 n=c5 v=48
68400 On ch=2 n=c5 v=0
68640 On ch=2 n=c4 v=48
69120 On ch=2 n=c4 v=0
69120 On ch=2 n=d4 v=80
69600 On ch=2 n=d4 v=0
69600 On ch=2 n=a#3 v=80
69840 On ch=2 n=a#3 v=0
70080 On ch=2 n=c4 v=80
70320 On ch=2 n=c4 v=0
70560 On ch=2 n=c3 v=80
71040 On ch=2 n=c3 v=0
71040 On ch=2 n=f3 v=80
72480 On ch=2 n=f3 v=0
72960 On ch=2 n=f4 v=56
73200 On ch=2 n=f4 v=0
73200 On ch=2 n=a4 v=56
73296 On ch=2 n=a4 v=0
73440 On ch=2 n=f4 v=56
73536 On ch=2 n=f4 v=0
73680 On ch=2 n=a4 v=56
73776 On ch=2 n=a4 v=0
73920 On ch=2 n=f4 v=56
74160 On ch=2 n=f4 v=0
74160 On ch=2 n=a4 v=56
74400 On ch=2 n=a4 v=0
74400 On ch=2 n=f4 v=56
74640 On ch=2 n=f4 v=0
74640 On ch=2 n=a#4 v=56
74880 On ch=2 n=a#4 v=0
74880 On ch=2 n=f4 v=56
75120 On ch=2 n=f4 v=0
75120 On ch=2 n=a4 v=56
75216 On ch=2 n=a4 v=0
75360 On ch=2 n=f4 v=56
75456 On ch=2 n=f4 v=0
75600 On ch=2 n=a4 v=56
75696 On ch=2 n=a4 v=0
75840 On ch=2 n=f4 v=56
76080 On ch=2 n=f4 v=0
76080 On ch=2 n=a4 v=56
76320 On ch=2 n=a4 v=0
76320 On ch=2 n=f4 v=56
76560 On ch=2 n=f4 v=0
76560 On ch=2 n=a#4 v=56
76800 On ch=2 n=a#4 v=0
76800 On ch=2 n=f4 v=56
77040 On ch=2 n=f4 v=0
77040 On ch=2 n=a4 v=56
77160 On ch=2 n=a4 v=0
77280 On ch=2 n=d4 v=56
77400 On ch=2 n=d4 v=0
77520 On ch=2 n=f4 v=56
77640 On ch=2 n=f4 v=0
77760 On ch=2 n=a#3 v=56
78000 On ch=2 n=a#3 v=0
78000 On ch=2 n=g4 v=56
78240 On ch=2 n=g4 v=0
78240 On ch=2 n=c4 v=56
78480 On ch=2 n=c4 v=0
78480 On ch=2 n=e4 v=56
78720 On ch=2 n=e4 v=0
78720 On ch=2 n=f4 v=56
78960 On ch=2 n=f4 v=0
78960 On ch=2 n=a4 v=56
79080 On ch=2 n=a4 v=0
79200 On ch=2 n=f4 v=56
79320 On ch=2 n=f4 v=0
79440 On ch=2 n=a4 v=56
79560 On ch=2 n=a4 v=0
79680 On ch=2 n=f4 v=56
79920 On ch=2 n=f4 v=0
79920 On ch=2 n=a4 v=56
80160 On ch=2 n=a4 v=0
80160 On ch=2 n=f4 v=56
80400 On ch=2 n=f4 v=0
80400 On ch=2 n=a#4 v=56
80640 On ch=2 n=a#4 v=0
80640 On ch=2 n=f4 v=56
80880 On ch=2 n=f4 v=0
80880 On ch=2 n=a4 v=56
80976 On ch=2 n=a4 v=0
81120 On ch=2 n=d4 v=56
81216 On ch=2 n=d4 v=0
81360 On ch=2 n=f4 v=56
81456 On ch=2 n=f4 v=0
81600 On ch=2 n=a#3 v=56
81840 On ch=2 n=a#3 v=0
81840 On ch=2 n=g4 v=56
82080 On ch=2 n=g4 v=0
82080 On ch=2 n=c4 v=56
82320 On ch=2 n=c4 v=0
82320 On ch=2 n=e4 v=56
82560 On ch=2 n=e4 v=0
82560 On ch=2 n=f4 v=56
82800 On ch=2 n=f4 v=0
82800 On ch=2 n=f3 v=56
82896 On ch=2 n=f3 v=0
83040 On ch=2 n=a3 v=56
83136 On ch=2 n=a3 v=0
83280 On ch=2 n=c4 v=56
83376 On ch=2 n=c4 v=0
83520 On ch=2 n=f4 v=56
84000 On ch=2 n=f4 v=0
84480 On ch=2 n=f4 v=56
84720 On ch=2 n=f4 v=0
84720 On ch=2 n=a4 v=56
84816 On ch=2 n=a4 v=0
84960 On ch=2 n=f4 v=56
85056 On ch=2 n=f4 v=0
85200 On ch=2 n=a4 v=56
85296 On ch=2 n=a4 v=0
85440 On ch=2 n=d#4 v=56
85680 On ch=2 n=d#4 v=0
85680 On ch=2 n=a4 v=56
85920 On ch=2 n=a4 v=0
85920 On ch=2 n=d#4 v=56
86160 On ch=2 n=d#4 v=0
86160 On ch=2 n=a4 v=56
86400 On ch=2 n=a4 v=0
86400 On ch=2 n=d4 v=56
86640 On ch=2 n=d4 v=0
86640 On ch=2 n=a4 v=56
86736 On ch=2 n=a4 v=0
86880 On ch=2 n=d4 v=56
86976 On ch=2 n=d4 v=0
87120 On ch=2 n=a4 v=56
87216 On ch=2 n=a4 v=0
87360 On ch=2 n=d4 v=56
87600 On ch=2 n=d4 v=0
87600 On ch=2 n=a4 v=56
87840 On ch=2 n=a4 v=0
87840 On ch=2 n=c4 v=56
88080 On ch=2 n=c4 v=0
88080 On ch=2 n=a4 v=56
88320 On ch=2 n=a4 v=0
88320 On ch=2 n=a#3 v=56
88560 On ch=2 n=a#3 v=0
88560 On ch=2 n=a4 v=56
88680 On ch=2 n=a4 v=0
88800 On ch=2 n=d#4 v=56
88920 On ch=2 n=d#4 v=0
89040 On ch=2 n=g4 v=56
89160 On ch=2 n=g4 v=0
89280 On ch=2 n=a3 v=56
89520 On ch=2 n=a3 v=0
89520 On ch=2 n=g4 v=56
89760 On ch=2 n=g4 v=0
89760 On ch=2 n=d4 v=56
90000 On ch=2 n=d4 v=0
90000 On ch=2 n=f#4 v=56
90240 On ch=2 n=f#4 v=0
90240 On ch=2 n=g3 v=80
90240 On ch=2 n=g4 v=80
91200 On ch=2 n=g4 v=0
91200 On ch=2 n=g3 v=0
92640 On ch=2 n=g5 v=80
92640 On ch=2 n=a#5 v=80
92928 On ch=2 n=a#5 v=0
92928 On ch=2 n=g5 v=0
93120 On ch=2 n=g5 v=80
93120 On ch=2 n=a#5 v=80
93408 On ch=2 n=a#5 v=0
93408 On ch=2 n=g5 v=0
93600 On ch=2 n=g5 v=80
93600 On ch=2 n=a#5 v=80
94080 On ch=2 n=a#5 v=0
94080 On ch=2 n=g5 v=0
94080 On ch=2 n=g5 v=80
94080 On ch=2 n=a5 v=80
94560 On ch=2 n=a5 v=0
94560 On ch=2 n=g5 v=0
94560 On ch=2 n=g5 v=80
94560 On ch=2 n=a5 v=80
94848 On ch=2 n=a5 v=0
94848 On ch=2 n=g5 v=0
95040 On ch=2 n=g5 v=80
95040 On ch=2 n=a5 v=80
95328 On ch=2 n=a5 v=0
95328 On ch=2 n=g5 v=0
95520 On ch=2 n=g5 v=80
95520 On ch=2 n=a5 v=80
96000 On ch=2 n=a5 v=0
96000 On ch=2 n=g5 v=0
96000 On ch=2 n=f5 v=80
96000 On ch=2 n=a5 v=80
96480 On ch=2 n=a5 v=0
96480 On ch=2 n=f5 v=0
96480 On ch=2 n=f5 v=80
96480 On ch=2 n=g#5 v=80
96768 On ch=2 n=g#5 v=0
96768 On ch=2 n=f5 v=0
96960 On ch=2 n=f5 v=80
96960 On ch=2 n=g#5 v=80
97248 On ch=2 n=g#5 v=0
97248 On ch=2 n=f5 v=0
97440 On ch=2 n=f5 v=80
97440 On ch=2 n=g#5 v=80
97920 On ch=2 n=g#5 v=0
97920 On ch=2 n=f5 v=0
97920 On ch=2 n=f5 v=80
97920 On ch=2 n=g5 v=80
98400 On ch=2 n=g5 v=0
98400 On ch=2 n=f5 v=0
98400 On ch=2 n=f5 v=80
98400 On ch=2 n=g5 v=80
98688 On ch=2 n=g5 v=0
98688 On ch=2 n=f5 v=0
98880 On ch=2 n=f5 v=80
98880 On ch=2 n=g5 v=80
99168 On ch=2 n=g5 v=0
99168 On ch=2 n=f5 v=0
99360 On ch=2 n=f5 v=80
99360 On ch=2 n=g5 v=80
99840 On ch=2 n=g5 v=0
99840 On ch=2 n=f5 v=0
99840 On ch=2 n=d#5 v=64
99840 On ch=2 n=g5 v=64
100128 On ch=2 n=g5 v=0
100128 On ch=2 n=d#5 v=0
100320 On ch=2 n=d#5 v=68
100320 On ch=2 n=g5 v=68
100800 On ch=2 n=g5 v=0
100800 On ch=2 n=d#5 v=0
100800 On ch=2 n=e5 v=72
100800 On ch=2 n=g5 v=72
101088 On ch=2 n=g5 v=0
101088 On ch=2 n=e5 v=0
101280 On ch=2 n=e5 v=76
101280 On ch=2 n=g5 v=76
101760 On ch=2 n=g5 v=0
101760 On ch=2 n=e5 v=0
101760 On ch=2 n=f5 v=80
101760 On ch=2 n=a5 v=80
102000 On ch=2 n=a5 v=0
102000 On ch=2 n=f5 v=0
102240 On ch=2 n=f5 v=76
102240 On ch=2 n=a5 v=76
102720 On ch=2 n=a5 v=0
102720 On ch=2 n=f5 v=0
102720 On ch=2 n=c#5 v=72
102720 On ch=2 n=a5 v=72
102960 On ch=2 n=a5 v=0
102960 On ch=2 n=c#5 v=0
103200 On ch=2 n=c#5 v=68
103200 On ch=2 n=a5 v=68
103680 On ch=2 n=a5 v=0
103680 On ch=2 n=c#5 v=0
103680 On ch=2 n=d5 v=64
103680 On ch=2 n=a5 v=64
103920 On ch=2 n=a5 v=0
103920 On ch=2 n=d5 v=0
104160 On ch=2 n=d5 v=72
104160 On ch=2 n=a5 v=72
104640 On ch=2 n=a5 v=0
104640 On ch=2 n=d5 v=0
104640 On ch=2 n=g5 v=80
104640 On ch=2 n=a#5 v=80
104880 On ch=2 n=a#5 v=0
104880 On ch=2 n=g5 v=0
105120 On ch=2 n=a#4 v=88
105120 On ch=2 n=d5 v=88
105360 On ch=2 n=d5 v=0
105360 On ch=2 n=a#4 v=0
105600 On ch=2 n=a4 v=96
105600 On ch=2 n=e5 v=96
106560 On ch=2 n=e5 v=0
106560 On ch=2 n=a4 v=0
106560 On ch=2 n=f5 v=80
107040 On ch=2 n=d5 v=80
107520 On ch=2 n=d5 v=0
107520 On ch=2 n=f5 v=0
107520 On ch=2 n=b4 v=80
108000 On ch=2 n=d5 v=80
108480 On ch=2 n=d5 v=0
108480 On ch=2 n=b4 v=0
108480 On ch=2 n=c#5 v=80
108960 On ch=2 n=e5 v=80
109440 On ch=2 n=e5 v=0
109440 On ch=2 n=c#5 v=0
109440 On ch=2 n=d5 v=80
109920 On ch=2 n=d4 v=80
110400 On ch=2 n=d4 v=0
110400 On ch=2 n=d5 v=0
110400 On ch=2 n=a#4 v=80
110880 On ch=2 n=d5 v=80
111360 On ch=2 n=d5 v=0
111360 On ch=2 n=a#4 v=0
111360 On ch=2 n=g4 v=80
111360 On ch=2 n=g5 v=80
111840 On ch=2 n=g5 v=0
111840 On ch=2 n=f5 v=80
112320 On ch=2 n=g4 v=0
112320 On ch=2 n=a4 v=80
112800 On ch=2 n=f5 v=0
112800 On ch=2 n=g5 v=80
112920 On ch=2 n=g5 v=0
112920 On ch=2 n=e5 v=80
113280 On ch=2 n=e5 v=0
113280 On ch=2 n=a4 v=0
113520 On ch=2 n=d5 v=64
113616 On ch=2 n=d5 v=0
113760 On ch=2 n=a#4 v=64
113856 On ch=2 n=a#4 v=0
114000 On ch=2 n=d5 v=64
114096 On ch=2 n=d5 v=0
114240 On ch=2 n=g4 v=64
114480 On ch=2 n=g4 v=0
114480 On ch=2 n=e5 v=64
114720 On ch=2 n=e5 v=0
114720 On ch=2 n=a4 v=64
114960 On ch=2 n=a4 v=0
114960 On ch=2 n=c#5 v=64
115200 On ch=2 n=c#5 v=0
115200 On ch=2 n=f4 v=64
115440 On ch=2 n=f4 v=0
115440 On ch=2 n=f5 v=64
115536 On ch=2 n=f5 v=0
115680 On ch=2 n=a#4 v=64
115776 On ch=2 n=a#4 v=0
115920 On ch=2 n=d5 v=64
116016 On ch=2 n=d5 v=0
116160 On ch=2 n=g4 v=64
116400 On ch=2 n=g4 v=0
116400 On ch=2 n=e5 v=64
116640 On ch=2 n=e5 v=0
116640 On ch=2 n=a4 v=64
116880 On ch=2 n=a4 v=0
116880 On ch=2 n=c#5 v=64
117120 On ch=2 n=c#5 v=0
117120 On ch=2 n=d4 v=64
117360 On ch=2 n=d4 v=0
117360 On ch=2 n=d5 v=64
117456 On ch=2 n=d5 v=0
117600 On ch=2 n=f4 v=64
117696 On ch=2 n=f4 v=0
117840 On ch=2 n=d5 v=64
117936 On ch=2 n=d5 v=0
118080 On ch=2 n=a4 v=64
118320 On ch=2 n=a4 v=0
118320 On ch=2 n=d5 v=64
118560 On ch=2 n=d5 v=0
118560 On ch=2 n=g#4 v=64
118800 On ch=2 n=g#4 v=0
118800 On ch=2 n=c5 v=64
119040 On ch=2 n=c5 v=0
119040 On ch=2 n=g4 v=64
119280 On ch=2 n=g4 v=0
119280 On ch=2 n=d5 v=64
119376 On ch=2 n=d5 v=0
119520 On ch=2 n=g4 v=64
119616 On ch=2 n=g4 v=0
119760 On ch=2 n=d5 v=64
119856 On ch=2 n=d5 v=0
120000 On ch=2 n=g4 v=64
120240 On ch=2 n=g4 v=0
120240 On ch=2 n=d5 v=64
120480 On ch=2 n=d5 v=0
120480 On ch=2 n=g#4 v=40
120720 On ch=2 n=g#4 v=0
120720 On ch=2 n=c5 v=40
120960 On ch=2 n=c5 v=0
120960 On ch=2 n=g4 v=40
121200 On ch=2 n=g4 v=0
121200 On ch=2 n=d5 v=40
121296 On ch=2 n=d5 v=0
121440 On ch=2 n=g4 v=40
121536 On ch=2 n=g4 v=0
121680 On ch=2 n=d5 v=40
121776 On ch=2 n=d5 v=0
121920 On ch=2 n=g4 v=40
122160 On ch=2 n=g4 v=0
122160 On ch=2 n=d5 v=40
122400 On ch=2 n=d5 v=0
122400 On ch=2 n=f4 v=64
122640 On ch=2 n=f4 v=0
122640 On ch=2 n=d5 v=64
122880 On ch=2 n=d5 v=0
122880 On ch=2 n=d#4 v=64
123120 On ch=2 n=d#4 v=0
123120 On ch=2 n=d5 v=64
123216 On ch=2 n=d5 v=0
123360 On ch=2 n=g#4 v=64
123456 On ch=2 n=g#4 v=0
123600 On ch=2 n=c5 v=64
123696 On ch=2 n=c5 v=0
123840 On ch=2 n=d4 v=64
124080 On ch=2 n=d4 v=0
124080 On ch=2 n=c5 v=64
124176 On ch=2 n=c5 v=0
124320 On ch=2 n=g4 v=64
124416 On ch=2 n=g4 v=0
124560 On ch=2 n=b4 v=64
124800 On ch=2 n=b4 v=0
124800 On ch=2 n=c4 v=80
124800 On ch=2 n=c5 v=80
125760 On ch=2 n=c5 v=0
125760 On ch=2 n=c4 v=0
126000 On ch=2 n=c5 v=64
126096 On ch=2 n=c5 v=0
126240 On ch=2 n=g4 v=64
126336 On ch=2 n=g4 v=0
126480 On ch=2 n=a#4 v=64
126576 On ch=2 n=a#4 v=0
126720 On ch=2 n=f4 v=64
126960 On ch=2 n=f4 v=0
126960 On ch=2 n=c5 v=64
127056 On ch=2 n=c5 v=0
127200 On ch=2 n=f4 v=64
127296 On ch=2 n=f4 v=0
127440 On ch=2 n=c5 v=64
127536 On ch=2 n=c5 v=0
127680 On ch=2 n=f4 v=64
127920 On ch=2 n=f4 v=0
127920 On ch=2 n=c5 v=64
128160 On ch=2 n=c5 v=0
128160 On ch=2 n=g4 v=40
128400 On ch=2 n=g4 v=0
128400 On ch=2 n=a#4 v=40
128640 On ch=2 n=a#4 v=0
128640 On ch=2 n=f4 v=40
128880 On ch=2 n=f4 v=0
128880 On ch=2 n=c5 v=40
128976 On ch=2 n=c5 v=0
129120 On ch=2 n=f4 v=40
129216 On ch=2 n=f4 v=0
129360 On ch=2 n=c5 v=40
129456 On ch=2 n=c5 v=0
129600 On ch=2 n=f4 v=40
129840 On ch=2 n=f4 v=0
129840 On ch=2 n=c5 v=40
130080 On ch=2 n=c5 v=0
130080 On ch=2 n=d#4 v=64
130320 On ch=2 n=d#4 v=0
130320 On ch=2 n=c5 v=64
130560 On ch=2 n=c5 v=0
130560 On ch=2 n=d4 v=64
130800 On ch=2 n=d4 v=0
130800 On ch=2 n=c5 v=66
130896 On ch=2 n=c5 v=0
131040 On ch=2 n=g4 v=68
131136 On ch=2 n=g4 v=0
131280 On ch=2 n=a#4 v=70
131376 On ch=2 n=a#4 v=0
131520 On ch=2 n=c4 v=72
131760 On ch=2 n=c4 v=0
131760 On ch=2 n=a#4 v=74
131856 On ch=2 n=a#4 v=0
132000 On ch=2 n=f4 v=76
132096 On ch=2 n=f4 v=0
132240 On ch=2 n=a4 v=78
132480 On ch=2 n=a4 v=0
132480 On ch=2 n=a#3 v=80
132480 On ch=2 n=a#4 v=80
133440 On ch=2 n=a#4 v=0
133440 On ch=2 n=a#3 v=0
133920 On ch=2 n=d5 v=80
134400 On ch=2 n=d5 v=0
134400 On ch=2 n=d#5 v=80
134880 On ch=2 n=g5 v=80
135360 On ch=2 n=g5 v=0
135360 On ch=2 n=d#5 v=0
135360 On ch=2 n=d#5 v=80
135840 On ch=2 n=c6 v=80
136320 On ch=2 n=d#5 v=0
136320 On ch=2 n=d5 v=80
136800 On ch=2 n=c6 v=0
136800 On ch=2 n=f5 v=80
137280 On ch=2 n=d5 v=0
137280 On ch=2 n=d5 v=80
137760 On ch=2 n=f5 v=0
137760 On ch=2 n=a#5 v=80
138240 On ch=2 n=d5 v=0
138240 On ch=2 n=c5 v=80
138720 On ch=2 n=c5 v=0
138720 On ch=2 n=a#5 v=0
138720 On ch=2 n=c5 v=80
138720 On ch=2 n=a#5 v=80
139200 On ch=2 n=a#5 v=0
139200 On ch=2 n=c5 v=0
139200 On ch=2 n=f5 v=80
139200 On ch=2 n=a5 v=80
139680 On ch=2 n=a5 v=0
139680 On ch=2 n=f5 v=0
139680 On ch=2 n=f5 v=80
139680 On ch=2 n=a5 v=80
140160 On ch=2 n=a5 v=0
140160 On ch=2 n=f5 v=0
140160 On ch=2 n=a#4 v=80
140160 On ch=2 n=a#5 v=80
140640 On ch=2 n=a#5 v=0
140640 On ch=2 n=a#4 v=0
141360 On ch=2 n=a#4 v=64
141456 On ch=2 n=a#4 v=0
141600 On ch=2 n=a#3 v=64
141696 On ch=2 n=a#3 v=0
141840 On ch=2 n=a#4 v=64
141936 On ch=2 n=a#4 v=0
142080 On ch=2 n=d#4 v=64
142320 On ch=2 n=d#4 v=0
142320 On ch=2 n=a#4 v=64
142416 On ch=2 n=a#4 v=0
142560 On ch=2 n=e4 v=64
142656 On ch=2 n=e4 v=0
142800 On ch=2 n=a#4 v=64
142896 On ch=2 n=a#4 v=0
143040 On ch=2 n=e4 v=64
143280 On ch=2 n=e4 v=0
143280 On ch=2 n=a#4 v=64
143520 On ch=2 n=a#4 v=0
143520 On ch=2 n=e4 v=64
143760 On ch=2 n=e4 v=0
143760 On ch=2 n=a#4 v=64
144000 On ch=2 n=a#4 v=0
144000 On ch=2 n=f4 v=64
144240 On ch=2 n=f4 v=0
144240 On ch=2 n=a4 v=64
144336 On ch=2 n=a4 v=0
144480 On ch=2 n=f4 v=64
144576 On ch=2 n=f4 v=0
144720 On ch=2 n=a4 v=64
144816 On ch=2 n=a4 v=0
144960 On ch=2 n=f4 v=64
145200 On ch=2 n=f4 v=0
145200 On ch=2 n=a4 v=64
145440 On ch=2 n=a4 v=0
145440 On ch=2 n=d4 v=40
145680 On ch=2 n=d4 v=0
145680 On ch=2 n=a#4 v=40
145920 On ch=2 n=a#4 v=0
145920 On ch=2 n=d#4 v=40
146160 On ch=2 n=d#4 v=0
146160 On ch=2 n=a#4 v=40
146256 On ch=2 n=a#4 v=0
146400 On ch=2 n=e4 v=40
146496 On ch=2 n=e4 v=0
146640 On ch=2 n=a#4 v=40
146736 On ch=2 n=a#4 v=0
146880 On ch=2 n=e4 v=40
147120 On ch=2 n=e4 v=0
147120 On ch=2 n=a#4 v=40
147360 On ch=2 n=a#4 v=0
147360 On ch=2 n=e4 v=40
147600 On ch=2 n=e4 v=0
147600 On ch=2 n=a#4 v=40
147840 On ch=2 n=a#4 v=0
147840 On ch=2 n=f4 v=40
148080 On ch=2 n=f4 v=0
148080 On ch=2 n=a4 v=40
148176 On ch=2 n=a4 v=0
148320 On ch=2 n=f4 v=40
148416 On ch=2 n=f4 v=0
148560 On ch=2 n=a4 v=40
148656 On ch=2 n=a4 v=0
148800 On ch=2 n=d4 v=64
149040 On ch=2 n=d4 v=0
149040 On ch=2 n=a#4 v=64
149280 On ch=2 n=a#4 v=0
149280 On ch=2 n=d4 v=64
149520 On ch=2 n=d4 v=0
149520 On ch=2 n=a#4 v=64
149760 On ch=2 n=a#4 v=0
149760 On ch=2 n=c4 v=64
150000 On ch=2 n=c4 v=0
150000 On ch=2 n=a#4 v=64
150096 On ch=2 n=a#4 v=0
150240 On ch=2 n=c4 v=64
150336 On ch=2 n=c4 v=0
150480 On ch=2 n=a#4 v=64
150576 On ch=2 n=a#4 v=0
150720 On ch=2 n=f4 v=64
150960 On ch=2 n=f4 v=0
150960 On ch=2 n=a4 v=64
151200 On ch=2 n=a4 v=0
151200 On ch=2 n=f4 v=64
151440 On ch=2 n=f4 v=0
151440 On ch=2 n=a4 v=64
151680 On ch=2 n=a4 v=0
151680 On ch=2 n=a#3 v=64
151920 On ch=2 n=a#3 v=0
151920 On ch=2 n=a#4 v=66
152016 On ch=2 n=a#4 v=0
152160 On ch=2 n=a#3 v=68
152256 On ch=2 n=a#3 v=0
152400 On ch=2 n=a#4 v=70
152496 On ch=2 n=a#4 v=0
152640 On ch=2 n=g4 v=72
152880 On ch=2 n=g4 v=0
152880 On ch=2 n=a#4 v=74
153120 On ch=2 n=a#4 v=0
153120 On ch=2 n=g4 v=76
153360 On ch=2 n=g4 v=0
153360 On ch=2 n=a#4 v=78
153600 On ch=2 n=a#4 v=0
153600 On ch=2 n=d#4 v=80
153600 On ch=2 n=d#5 v=80
154080 On ch=2 n=d#5 v=0
154080 On ch=2 n=d5 v=80
154560 On ch=2 n=d#4 v=0
154560 On ch=2 n=f4 v=80
155040 On ch=2 n=d5 v=0
155040 On ch=2 n=d#5 v=80
155160 On ch=2 n=d#5 v=0
155160 On ch=2 n=c5 v=80
155520 On ch=2 n=c5 v=0
155520 On ch=2 n=f4 v=0
155520 On ch=2 n=a#3 v=64
155760 On ch=2 n=a#3 v=0
155760 On ch=2 n=a#4 v=64
155856 On ch=2 n=a#4 v=0
156000 On ch=2 n=a4 v=64
156096 On ch=2 n=a4 v=0
156240 On ch=2 n=a#4 v=64
156336 On ch=2 n=a#4 v=0
156480 On ch=2 n=d4 v=64
156720 On ch=2 n=d4 v=0
156720 On ch=2 n=a#4 v=64
156960 On ch=2 n=a#4 v=0
156960 On ch=2 n=d4 v=64
157200 On ch=2 n=d4 v=0
157200 On ch=2 n=a#4 v=64
157440 On ch=2 n=a#4 v=0
157440 On ch=2 n=c4 v=64
157680 On ch=2 n=c4 v=0
157680 On ch=2 n=a#4 v=64
157776 On ch=2 n=a#4 v=0
157920 On ch=2 n=c4 v=64
158016 On ch=2 n=c4 v=0
158160 On ch=2 n=a#4 v=64
158256 On ch=2 n=a#4 v=0
158400 On ch=2 n=f4 v=64
158640 On ch=2 n=f4 v=0
158640 On ch=2 n=a4 v=64
158880 On ch=2 n=a4 v=0
158880 On ch=2 n=f4 v=64
159120 On ch=2 n=f4 v=0
159120 On ch=2 n=a4 v=64
159360 On ch=2 n=a4 v=0
159360 On ch=2 n=a#3 v=64
159600 On ch=2 n=a#3 v=0
159600 On ch=2 n=a#4 v=66
159696 On ch=2 n=a#4 v=0
159840 On ch=2 n=a#3 v=68
159936 On ch=2 n=a#3 v=0
160080 On ch=2 n=a#4 v=70
160176 On ch=2 n=a#4 v=0
160320 On ch=2 n=g4 v=72
160560 On ch=2 n=g4 v=0
160560 On ch=2 n=a#4 v=74
160800 On ch=2 n=a#4 v=0
160800 On ch=2 n=g4 v=76
161040 On ch=2 n=g4 v=0
161040 On ch=2 n=a#4 v=78
161280 On ch=2 n=a#4 v=0
161280 On ch=2 n=d#5 v=80
161280 On ch=2 n=d#4 v=80
161760 On ch=2 n=d#5 v=0
161760 On ch=2 n=d5 v=80
162240 On ch=2 n=d#4 v=0
162240 On ch=2 n=f4 v=80
162720 On ch=2 n=d5 v=0
162720 On ch=2 n=d#5 v=80
162840 On ch=2 n=d#5 v=0
162840 On ch=2 n=c5 v=80
163200 On ch=2 n=c5 v=0
163200 On ch=2 n=f4 v=0
163440 On ch=2 n=a#5 v=64
163680 On ch=2 n=a#5 v=0
163680 On ch=2 n=d5 v=64
163764 On ch=2 n=d5 v=0
163920 On ch=2 n=a#5 v=64
164004 On ch=2 n=a#5 v=0
164160 On ch=2 n=d#5 v=64
164244 On ch=2 n=d#5 v=0
164400 On ch=2 n=a#5 v=64
164484 On ch=2 n=a#5 v=0
164640 On ch=2 n=f5 v=64
164880 On ch=2 n=f5 v=0
164880 On ch=2 n=a#5 v=64
165120 On ch=2 n=a#5 v=0
165120 On ch=2 n=g5 v=64
165360 On ch=2 n=g5 v=0
165360 On ch=2 n=a#5 v=66
165600 On ch=2 n=a#5 v=0
165600 On ch=2 n=d5 v=68
165684 On ch=2 n=d5 v=0
165840 On ch=2 n=a#5 v=70
165924 On ch=2 n=a#5 v=0
166080 On ch=2 n=d#5 v=72
166164 On ch=2 n=d#5 v=0
166320 On ch=2 n=a#5 v=74
166404 On ch=2 n=a#5 v=0
166560 On ch=2 n=f5 v=76
166800 On ch=2 n=f5 v=0
166800 On ch=2 n=a#5 v=78
167040 On ch=2 n=a#5 v=0
167040 On ch=2 n=g5 v=80
167520 On ch=2 n=g5 v=0
167520 On ch=2 n=d#5 v=80
167760 On ch=2 n=d#5 v=0
168000 On ch=2 n=f5 v=80
168240 On ch=2 n=f5 v=0
168480 On ch=2 n=f4 v=80
168960 On ch=2 n=f4 v=0
169200 On ch=2 n=a#5 v=40
169440 On ch=2 n=a#5 v=0
169440 On ch=2 n=d5 v=40
169500 On ch=2 n=d5 v=0
169680 On ch=2 n=a#5 v=40
169740 On ch=2 n=a#5 v=0
169920 On ch=2 n=d#5 v=40
169980 On ch=2 n=d#5 v=0
170160 On ch=2 n=a#5 v=40
170220 On ch=2 n=a#5 v=0
170400 On ch=2 n=f5 v=40
170640 On ch=2 n=f5 v=0
170640 On ch=2 n=a#5 v=40
170880 On ch=2 n=a#5 v=0
170880 On ch=2 n=g5 v=40
171120 On ch=2 n=g5 v=0
171120 On ch=2 n=a#5 v=40
171360 On ch=2 n=a#5 v=0
171360 On ch=2 n=d5 v=40
171420 On ch=2 n=d5 v=0
171600 On ch=2 n=a#5 v=40
171660 On ch=2 n=a#5 v=0
171840 On ch=2 n=d#5 v=40
171900 On ch=2 n=d#5 v=0
172080 On ch=2 n=a#5 v=40
172140 On ch=2 n=a#5 v=0
172320 On ch=2 n=f5 v=40
172560 On ch=2 n=f5 v=0
172560 On ch=2 n=a#5 v=40
172800 On ch=2 n=a#5 v=0
172800 On ch=2 n=g5 v=40
173280 On ch=2 n=g5 v=0
173280 On ch=2 n=d#5 v=48
173472 On ch=2 n=d#5 v=0
173760 On ch=2 n=f5 v=56
173952 On ch=2 n=f5 v=0
174240 On ch=2 n=f4 v=64
174720 On ch=2 n=f4 v=0
174720 On ch=2 n=g4 v=80
175200 On ch=2 n=g4 v=0
175200 On ch=2 n=d#4 v=80
175440 On ch=2 n=d#4 v=0
175680 On ch=2 n=f4 v=80
175968 On ch=2 n=f4 v=0
176160 On ch=2 n=f3 v=80
176640 On ch=2 n=f3 v=0
176640 On ch=2 n=a#3 v=80
177600 On ch=2 n=a#3 v=0
177600 Meta TrkEnd
TrkEnd
MTrk
0 SeqSpec 43 00 01 00
0 Meta TrkName "MIDI by Marty Weimer  4/25/97"
0 Meta 0x21 00
0 Meta TrkEnd
TrkEnd
MTrk
0 SeqSpec 43 00 01 00
0 Meta TrkName "weimermt@libby.org  Eureka, MT  USA"
0 Meta 0x21 00
0 Meta TrkEnd
TrkEnd
