MFile 1 9 480
MTrk
0 SMPTE 96 0 0 0 0
0 Tempo 712482
0 TimeSig 3/4 24 8
152642 Tempo 480000
154080 TimeSig 2/4 24 8
203522 Tempo 714285
204242 Tempo 480000
215986 Tempo 500000
216482 Tempo 526315
217440 Tempo 600000
218400 Tempo 1000000
219360 Tempo 480000
219360 Meta TrkEnd
TrkEnd
MTrk
0 SeqSpec 43 00 01 00
0 Meta TrkName "Piano Sonata No.20 in D"
0 Meta 0x21 00
0 PrCh ch=1 p=0
0 PrCh ch=1 p=0
0 Par ch=1 c=7 v=127
1322 On ch=1 n=a5 v=35
1438 On ch=1 n=a5 v=0
1440 On ch=1 n=d6 v=35
1798 On ch=1 n=d6 v=0
1800 On ch=1 n=d6 v=35
1918 On ch=1 n=d6 v=0
1920 On ch=1 n=d6 v=35
2158 On ch=1 n=d6 v=0
2762 On ch=1 n=a5 v=47
2798 On ch=1 n=a5 v=0
2800 On ch=1 n=d6 v=47
2838 On ch=1 n=d6 v=0
2840 On ch=1 n=f#6 v=47
2878 On ch=1 n=f#6 v=0
2880 On ch=1 n=e6 v=47
3238 On ch=1 n=e6 v=0
3240 On ch=1 n=c#6 v=35
3358 On ch=1 n=c#6 v=0
3360 On ch=1 n=d6 v=35
3478 On ch=1 n=d6 v=0
4082 On ch=1 n=a5 v=47
4138 On ch=1 n=a5 v=0
4140 On ch=1 n=d6 v=47
4198 On ch=1 n=d6 v=0
4200 On ch=1 n=f#6 v=47
4258 On ch=1 n=f#6 v=0
4260 On ch=1 n=a6 v=47
4318 On ch=1 n=a6 v=0
4320 On ch=1 n=a6 v=47
4558 On ch=1 n=a6 v=0
4560 On ch=1 n=g6 v=47
4618 On ch=1 n=g6 v=0
4742 On ch=1 n=f#6 v=47
4798 On ch=1 n=f#6 v=0
4800 On ch=1 n=f#6 v=47
5038 On ch=1 n=f#6 v=0
5040 On ch=1 n=e6 v=47
5098 On ch=1 n=e6 v=0
5222 On ch=1 n=d6 v=35
5278 On ch=1 n=d6 v=0
5280 On ch=1 n=d6 v=35
5518 On ch=1 n=d6 v=0
5520 On ch=1 n=c#6 v=35
5578 On ch=1 n=c#6 v=0
5702 On ch=1 n=d6 v=35
5758 On ch=1 n=d6 v=0
5760 On ch=1 n=f#6 v=35
6238 On ch=1 n=f#6 v=0
6240 On ch=1 n=e6 v=28
6478 On ch=1 n=e6 v=0
7082 On ch=1 n=d6 v=63
7118 On ch=1 n=d6 v=0
7120 On ch=1 n=f#6 v=63
7158 On ch=1 n=f#6 v=0
7160 On ch=1 n=a6 v=63
7198 On ch=1 n=a6 v=0
7200 On ch=1 n=d7 v=81
7318 On ch=1 n=d7 v=0
7320 On ch=1 n=e7 v=81
7358 On ch=1 n=e7 v=0
7360 On ch=1 n=d7 v=81
7398 On ch=1 n=d7 v=0
7400 On ch=1 n=c#7 v=81
7438 On ch=1 n=c#7 v=0
7440 On ch=1 n=d7 v=81
7618 On ch=1 n=d7 v=0
7620 On ch=1 n=e7 v=81
7678 On ch=1 n=e7 v=0
7680 On ch=1 n=c#7 v=81
7798 On ch=1 n=c#7 v=0
8162 On ch=1 n=a6 v=81
8278 On ch=1 n=a6 v=0
8280 On ch=1 n=b6 v=81
8318 On ch=1 n=b6 v=0
8320 On ch=1 n=a6 v=81
8358 On ch=1 n=a6 v=0
8360 On ch=1 n=g#6 v=81
8398 On ch=1 n=g#6 v=0
8400 On ch=1 n=a6 v=81
8578 On ch=1 n=a6 v=0
8580 On ch=1 n=b6 v=81
8638 On ch=1 n=b6 v=0
8640 On ch=1 n=d7 v=81
8758 On ch=1 n=d7 v=0
8760 On ch=1 n=c7 v=81
8878 On ch=1 n=c7 v=0
8880 On ch=1 n=c7 v=81
9058 On ch=1 n=c7 v=0
9060 On ch=1 n=b6 v=81
9118 On ch=1 n=b6 v=0
9120 On ch=1 n=b6 v=81
9718 On ch=1 n=b6 v=0
9720 On ch=1 n=a6 v=35
9838 On ch=1 n=a6 v=0
9840 On ch=1 n=c7 v=35
9958 On ch=1 n=c7 v=0
9960 On ch=1 n=a6 v=35
10078 On ch=1 n=a6 v=0
10080 On ch=1 n=a6 v=35
10198 On ch=1 n=a6 v=0
10200 On ch=1 n=g6 v=35
10318 On ch=1 n=g6 v=0
10320 On ch=1 n=b6 v=35
10438 On ch=1 n=b6 v=0
10440 On ch=1 n=g6 v=35
10558 On ch=1 n=g6 v=0
10560 On ch=1 n=g6 v=35
10678 On ch=1 n=g6 v=0
10680 On ch=1 n=f#6 v=35
10798 On ch=1 n=f#6 v=0
10800 On ch=1 n=a6 v=35
10918 On ch=1 n=a6 v=0
10920 On ch=1 n=f#6 v=35
11038 On ch=1 n=f#6 v=0
11040 On ch=1 n=f#6 v=47
11158 On ch=1 n=f#6 v=0
11160 On ch=1 n=e6 v=47
11278 On ch=1 n=e6 v=0
11280 On ch=1 n=f6 v=47
11398 On ch=1 n=f6 v=0
11400 On ch=1 n=d6 v=47
11518 On ch=1 n=d6 v=0
11520 On ch=1 n=d6 v=35
11998 On ch=1 n=d6 v=0
12000 On ch=1 n=c#6 v=28
12238 On ch=1 n=c#6 v=0
13682 On ch=1 n=c7 v=35
13798 On ch=1 n=c7 v=0
13800 On ch=1 n=a6 v=35
13918 On ch=1 n=a6 v=0
13920 On ch=1 n=b6 v=35
14038 On ch=1 n=b6 v=0
14040 On ch=1 n=g6 v=35
14158 On ch=1 n=g6 v=0
14160 On ch=1 n=a6 v=35
14278 On ch=1 n=a6 v=0
14280 On ch=1 n=f#6 v=35
14398 On ch=1 n=f#6 v=0
14400 On ch=1 n=g6 v=35
14638 On ch=1 n=g6 v=0
15122 On ch=1 n=b6 v=28
15238 On ch=1 n=b6 v=0
15240 On ch=1 n=g6 v=28
15358 On ch=1 n=g6 v=0
15360 On ch=1 n=a6 v=19
15478 On ch=1 n=a6 v=0
15480 On ch=1 n=f#6 v=19
15598 On ch=1 n=f#6 v=0
15600 On ch=1 n=g6 v=19
15718 On ch=1 n=g6 v=0
15720 On ch=1 n=e6 v=19
15838 On ch=1 n=e6 v=0
15840 On ch=1 n=f#6 v=19
16078 On ch=1 n=f#6 v=0
16442 On ch=1 n=a6 v=47
16558 On ch=1 n=a6 v=0
16560 On ch=1 n=d6 v=47
16678 On ch=1 n=d6 v=0
16680 On ch=1 n=d7 v=63
16798 On ch=1 n=d7 v=0
16800 On ch=1 n=c#7 v=63
16918 On ch=1 n=c#7 v=0
16920 On ch=1 n=b6 v=63
17038 On ch=1 n=b6 v=0
17040 On ch=1 n=a6 v=63
17158 On ch=1 n=a6 v=0
17160 On ch=1 n=g6 v=63
17278 On ch=1 n=g6 v=0
17280 On ch=1 n=f#6 v=47
17758 On ch=1 n=f#6 v=0
17760 On ch=1 n=e6 v=19
17998 On ch=1 n=e6 v=0
18602 On ch=1 n=a5 v=31
18718 On ch=1 n=a5 v=0
18720 On ch=1 n=d6 v=31
19078 On ch=1 n=d6 v=0
19080 On ch=1 n=d6 v=31
19198 On ch=1 n=d6 v=0
19200 On ch=1 n=d6 v=31
19438 On ch=1 n=d6 v=0
20042 On ch=1 n=a5 v=31
20078 On ch=1 n=a5 v=0
20080 On ch=1 n=d6 v=31
20118 On ch=1 n=d6 v=0
20120 On ch=1 n=f#6 v=31
20158 On ch=1 n=f#6 v=0
20160 On ch=1 n=f#6 v=31
20278 On ch=1 n=f#6 v=0
20280 On ch=1 n=e6 v=31
20398 On ch=1 n=e6 v=0
20400 On ch=1 n=g6 v=31
20518 On ch=1 n=g6 v=0
20520 On ch=1 n=c#6 v=31
20638 On ch=1 n=c#6 v=0
20640 On ch=1 n=e6 v=31
20878 On ch=1 n=e6 v=0
20880 On ch=1 n=d6 v=31
21118 On ch=1 n=d6 v=0
21362 On ch=1 n=d6 v=31
21438 On ch=1 n=d6 v=0
21440 On ch=1 n=f#6 v=31
21518 On ch=1 n=f#6 v=0
21520 On ch=1 n=a6 v=31
21598 On ch=1 n=a6 v=0
21600 On ch=1 n=a6 v=47
21838 On ch=1 n=a6 v=0
21840 On ch=1 n=g6 v=47
21898 On ch=1 n=g6 v=0
22022 On ch=1 n=f#6 v=47
22078 On ch=1 n=f#6 v=0
22080 On ch=1 n=f#6 v=47
22318 On ch=1 n=f#6 v=0
22320 On ch=1 n=e6 v=47
22378 On ch=1 n=e6 v=0
22502 On ch=1 n=d6 v=47
22558 On ch=1 n=d6 v=0
22560 On ch=1 n=d6 v=47
22798 On ch=1 n=d6 v=0
22800 On ch=1 n=c#6 v=47
22858 On ch=1 n=c#6 v=0
22982 On ch=1 n=d6 v=47
23038 On ch=1 n=d6 v=0
23040 On ch=1 n=f#6 v=47
23218 On ch=1 n=f#6 v=0
23220 On ch=1 n=g6 v=47
23278 On ch=1 n=g6 v=0
23280 On ch=1 n=g#6 v=47
23458 On ch=1 n=g#6 v=0
23460 On ch=1 n=a6 v=19
23518 On ch=1 n=a6 v=0
23520 On ch=1 n=e6 v=19
23638 On ch=1 n=e6 v=0
24362 On ch=1 n=d6 v=47
24398 On ch=1 n=d6 v=0
24400 On ch=1 n=f#6 v=47
24438 On ch=1 n=f#6 v=0
24440 On ch=1 n=a6 v=47
24478 On ch=1 n=a6 v=0
24480 On ch=1 n=d7 v=81
24598 On ch=1 n=d7 v=0
24600 On ch=1 n=e7 v=81
24638 On ch=1 n=e7 v=0
24640 On ch=1 n=d7 v=81
24678 On ch=1 n=d7 v=0
24680 On ch=1 n=c#7 v=81
24718 On ch=1 n=c#7 v=0
24720 On ch=1 n=d7 v=81
24898 On ch=1 n=d7 v=0
24900 On ch=1 n=e7 v=81
24958 On ch=1 n=e7 v=0
24960 On ch=1 n=c#7 v=81
25078 On ch=1 n=c#7 v=0
25442 On ch=1 n=a5 v=81
25498 On ch=1 n=a5 v=0
25500 On ch=1 n=b5 v=81
25558 On ch=1 n=b5 v=0
25560 On ch=1 n=c#6 v=81
25618 On ch=1 n=c#6 v=0
25620 On ch=1 n=d6 v=81
25678 On ch=1 n=d6 v=0
25680 On ch=1 n=e6 v=81
25738 On ch=1 n=e6 v=0
25740 On ch=1 n=f#6 v=81
25798 On ch=1 n=f#6 v=0
25800 On ch=1 n=g6 v=81
25858 On ch=1 n=g6 v=0
25860 On ch=1 n=a6 v=81
25886 On ch=1 n=a6 v=0
25890 On ch=1 n=b6 v=81
25916 On ch=1 n=b6 v=0
25920 On ch=1 n=c#7 v=105
26038 On ch=1 n=c#7 v=0
26040 On ch=1 n=d7 v=105
26078 On ch=1 n=d7 v=0
26080 On ch=1 n=c#7 v=105
26118 On ch=1 n=c#7 v=0
26120 On ch=1 n=b6 v=105
26158 On ch=1 n=b6 v=0
26160 On ch=1 n=c#7 v=105
26338 On ch=1 n=c#7 v=0
26340 On ch=1 n=d7 v=105
26398 On ch=1 n=d7 v=0
26400 On ch=1 n=c7 v=105
26518 On ch=1 n=c7 v=0
26520 On ch=1 n=d7 v=105
26558 On ch=1 n=d7 v=0
26560 On ch=1 n=c7 v=105
26598 On ch=1 n=c7 v=0
26600 On ch=1 n=b6 v=105
26638 On ch=1 n=b6 v=0
26640 On ch=1 n=c7 v=105
26818 On ch=1 n=c7 v=0
26820 On ch=1 n=d7 v=105
26878 On ch=1 n=d7 v=0
26880 On ch=1 n=b6 v=105
27118 On ch=1 n=b6 v=0
27120 On ch=1 n=a6 v=105
27178 On ch=1 n=a6 v=0
27180 On ch=1 n=g6 v=105
27238 On ch=1 n=g6 v=0
27240 On ch=1 n=f#6 v=105
27298 On ch=1 n=f#6 v=0
27300 On ch=1 n=e6 v=105
27358 On ch=1 n=e6 v=0
27360 On ch=1 n=a6 v=105
28078 On ch=1 n=a6 v=0
28080 On ch=1 n=g6 v=81
28138 On ch=1 n=g6 v=0
28140 On ch=1 n=f#6 v=81
28198 On ch=1 n=f#6 v=0
28200 On ch=1 n=e6 v=63
28258 On ch=1 n=e6 v=0
28260 On ch=1 n=d6 v=63
28318 On ch=1 n=d6 v=0
28320 On ch=1 n=c#6 v=47
28558 On ch=1 n=c#6 v=0
28560 On ch=1 n=e6 v=31
28798 On ch=1 n=e6 v=0
28800 On ch=1 n=d6 v=19
29038 On ch=1 n=d6 v=0
30242 On ch=1 n=d5 v=31
30598 On ch=1 n=d5 v=0
30600 On ch=1 n=d5 v=31
30718 On ch=1 n=d5 v=0
30720 On ch=1 n=d5 v=31
30958 On ch=1 n=d5 v=0
31122 On ch=1 n=c#5 v=47
31198 On ch=1 n=c#5 v=0
31200 On ch=1 n=d5 v=47
31278 On ch=1 n=d5 v=0
31280 On ch=1 n=f#5 v=47
31358 On ch=1 n=f#5 v=0
31360 On ch=1 n=d6 v=47
31438 On ch=1 n=d6 v=0
31440 On ch=1 n=a5 v=47
31518 On ch=1 n=a5 v=0
31520 On ch=1 n=f#5 v=47
31678 On ch=1 n=f#5 v=0
31680 On ch=1 n=e5 v=47
32038 On ch=1 n=e5 v=0
32040 On ch=1 n=c#5 v=31
32158 On ch=1 n=c#5 v=0
32160 On ch=1 n=d5 v=31
32238 On ch=1 n=d5 v=0
32240 On ch=1 n=a5 v=31
32318 On ch=1 n=a5 v=0
32320 On ch=1 n=f#5 v=31
32398 On ch=1 n=f#5 v=0
32400 On ch=1 n=d6 v=31
32478 On ch=1 n=d6 v=0
32480 On ch=1 n=a5 v=31
32558 On ch=1 n=a5 v=0
32560 On ch=1 n=f#6 v=31
32638 On ch=1 n=f#6 v=0
32640 On ch=1 n=d6 v=47
32718 On ch=1 n=d6 v=0
32720 On ch=1 n=a6 v=47
32798 On ch=1 n=a6 v=0
32800 On ch=1 n=f#6 v=47
32878 On ch=1 n=f#6 v=0
32880 On ch=1 n=d7 v=63
32958 On ch=1 n=d7 v=0
32960 On ch=1 n=c#7 v=63
33038 On ch=1 n=c#7 v=0
33040 On ch=1 n=b6 v=63
33118 On ch=1 n=b6 v=0
33120 On ch=1 n=a6 v=81
33198 On ch=1 n=a6 v=0
33200 On ch=1 n=g6 v=63
33278 On ch=1 n=g6 v=0
33280 On ch=1 n=a6 v=63
33358 On ch=1 n=a6 v=0
33360 On ch=1 n=g6 v=63
33438 On ch=1 n=g6 v=0
33440 On ch=1 n=f#6 v=63
33518 On ch=1 n=f#6 v=0
33520 On ch=1 n=g6 v=63
33598 On ch=1 n=g6 v=0
33600 On ch=1 n=f#6 v=81
33678 On ch=1 n=f#6 v=0
33680 On ch=1 n=e6 v=63
33758 On ch=1 n=e6 v=0
33760 On ch=1 n=f#6 v=63
33838 On ch=1 n=f#6 v=0
33840 On ch=1 n=e6 v=63
33918 On ch=1 n=e6 v=0
33920 On ch=1 n=d6 v=63
33998 On ch=1 n=d6 v=0
34000 On ch=1 n=e6 v=63
34078 On ch=1 n=e6 v=0
34080 On ch=1 n=d6 v=81
34158 On ch=1 n=d6 v=0
34160 On ch=1 n=c#6 v=63
34238 On ch=1 n=c#6 v=0
34240 On ch=1 n=a6 v=63
34318 On ch=1 n=a6 v=0
34320 On ch=1 n=g6 v=63
34398 On ch=1 n=g6 v=0
34400 On ch=1 n=f#6 v=63
34478 On ch=1 n=f#6 v=0
34480 On ch=1 n=d7 v=63
34558 On ch=1 n=d7 v=0
34560 On ch=1 n=g6 v=47
34598 On ch=1 n=g6 v=0
34600 On ch=1 n=f#6 v=47
34638 On ch=1 n=f#6 v=0
34640 On ch=1 n=g6 v=47
34678 On ch=1 n=g6 v=0
34680 On ch=1 n=f#6 v=47
34718 On ch=1 n=f#6 v=0
34720 On ch=1 n=g6 v=47
34758 On ch=1 n=g6 v=0
34760 On ch=1 n=f#6 v=47
34798 On ch=1 n=f#6 v=0
34800 On ch=1 n=g6 v=47
34838 On ch=1 n=g6 v=0
34840 On ch=1 n=f#6 v=47
34878 On ch=1 n=f#6 v=0
34880 On ch=1 n=g6 v=47
34918 On ch=1 n=g6 v=0
34920 On ch=1 n=f#6 v=47
34958 On ch=1 n=f#6 v=0
34960 On ch=1 n=e6 v=47
34998 On ch=1 n=e6 v=0
35000 On ch=1 n=f#6 v=47
35038 On ch=1 n=f#6 v=0
35040 On ch=1 n=e6 v=31
35278 On ch=1 n=e6 v=0
35882 On ch=1 n=d6 v=63
35918 On ch=1 n=d6 v=0
35920 On ch=1 n=f#6 v=63
35958 On ch=1 n=f#6 v=0
35960 On ch=1 n=a6 v=63
35998 On ch=1 n=a6 v=0
36000 On ch=1 n=d7 v=81
36118 On ch=1 n=d7 v=0
36120 On ch=1 n=e7 v=81
36158 On ch=1 n=e7 v=0
36160 On ch=1 n=d7 v=81
36198 On ch=1 n=d7 v=0
36200 On ch=1 n=c#7 v=81
36238 On ch=1 n=c#7 v=0
36240 On ch=1 n=d7 v=81
36418 On ch=1 n=d7 v=0
36420 On ch=1 n=e7 v=81
36478 On ch=1 n=e7 v=0
36480 On ch=1 n=c#7 v=81
36598 On ch=1 n=c#7 v=0
36962 On ch=1 n=a6 v=31
37038 On ch=1 n=a6 v=0
37040 On ch=1 n=g#6 v=31
37118 On ch=1 n=g#6 v=0
37120 On ch=1 n=b6 v=31
37198 On ch=1 n=b6 v=0
37200 On ch=1 n=a6 v=31
37278 On ch=1 n=a6 v=0
37280 On ch=1 n=c7 v=31
37358 On ch=1 n=c7 v=0
37360 On ch=1 n=b6 v=31
37438 On ch=1 n=b6 v=0
37440 On ch=1 n=d7 v=31
37678 On ch=1 n=d7 v=0
37680 On ch=1 n=c7 v=31
38158 On ch=1 n=c7 v=0
38160 On ch=1 n=b6 v=31
38518 On ch=1 n=b6 v=0
38520 On ch=1 n=a6 v=31
38578 On ch=1 n=a6 v=0
38580 On ch=1 n=b6 v=31
38638 On ch=1 n=b6 v=0
38640 On ch=1 n=d7 v=31
38698 On ch=1 n=d7 v=0
38700 On ch=1 n=c7 v=31
38758 On ch=1 n=c7 v=0
38760 On ch=1 n=b6 v=31
38818 On ch=1 n=b6 v=0
38820 On ch=1 n=a6 v=31
38878 On ch=1 n=a6 v=0
38880 On ch=1 n=a6 v=47
39238 On ch=1 n=a6 v=0
39240 On ch=1 n=g6 v=47
39538 On ch=1 n=g6 v=0
39540 On ch=1 n=f#6 v=47
39598 On ch=1 n=f#6 v=0
39600 On ch=1 n=g6 v=31
39638 On ch=1 n=g6 v=0
39640 On ch=1 n=f#6 v=31
39678 On ch=1 n=f#6 v=0
39680 On ch=1 n=e6 v=31
39718 On ch=1 n=e6 v=0
39720 On ch=1 n=f#6 v=31
39838 On ch=1 n=f#6 v=0
39840 On ch=1 n=e6 v=31
39918 On ch=1 n=e6 v=0
39920 On ch=1 n=a#6 v=31
39998 On ch=1 n=a#6 v=0
40000 On ch=1 n=b6 v=31
40078 On ch=1 n=b6 v=0
40080 On ch=1 n=f#6 v=31
40158 On ch=1 n=f#6 v=0
40160 On ch=1 n=g6 v=31
40238 On ch=1 n=g6 v=0
40240 On ch=1 n=e6 v=31
40318 On ch=1 n=e6 v=0
40320 On ch=1 n=d6 v=31
40798 On ch=1 n=d6 v=0
40800 On ch=1 n=c#6 v=19
41038 On ch=1 n=c#6 v=0
41642 On ch=1 n=b4 v=81
41678 On ch=1 n=b4 v=0
41680 On ch=1 n=d#5 v=81
41718 On ch=1 n=d#5 v=0
41720 On ch=1 n=f#5 v=81
41758 On ch=1 n=f#5 v=0
41760 On ch=1 n=b5 v=81
42118 On ch=1 n=b5 v=0
42120 On ch=1 n=b5 v=81
42238 On ch=1 n=b5 v=0
42240 On ch=1 n=b5 v=81
42478 On ch=1 n=b5 v=0
43082 On ch=1 n=d#6 v=31
43138 On ch=1 n=d#6 v=0
43202 On ch=1 n=e6 v=31
43318 On ch=1 n=e6 v=0
43320 On ch=1 n=g6 v=31
43438 On ch=1 n=g6 v=0
43440 On ch=1 n=f#6 v=31
43558 On ch=1 n=f#6 v=0
43560 On ch=1 n=a6 v=31
43678 On ch=1 n=a6 v=0
43680 On ch=1 n=g6 v=19
43918 On ch=1 n=g6 v=0
44522 On ch=1 n=c#6 v=31
44578 On ch=1 n=c#6 v=0
44642 On ch=1 n=d6 v=31
44758 On ch=1 n=d6 v=0
44760 On ch=1 n=f#6 v=31
44878 On ch=1 n=f#6 v=0
44880 On ch=1 n=e6 v=47
44998 On ch=1 n=e6 v=0
45000 On ch=1 n=g6 v=47
45118 On ch=1 n=g6 v=0
45120 On ch=1 n=f#6 v=47
45238 On ch=1 n=f#6 v=0
45240 On ch=1 n=a6 v=47
45358 On ch=1 n=a6 v=0
45360 On ch=1 n=d6 v=47
45478 On ch=1 n=d6 v=0
45480 On ch=1 n=d7 v=63
45598 On ch=1 n=d7 v=0
45600 On ch=1 n=a#6 v=63
45718 On ch=1 n=a#6 v=0
45720 On ch=1 n=b6 v=63
45838 On ch=1 n=b6 v=0
45840 On ch=1 n=b5 v=63
45958 On ch=1 n=b5 v=0
45960 On ch=1 n=e6 v=63
46078 On ch=1 n=e6 v=0
46080 On ch=1 n=d6 v=63
46598 On ch=1 n=d6 v=0
46600 On ch=1 n=c#6 v=31
46638 On ch=1 n=c#6 v=0
46640 On ch=1 n=d6 v=31
46678 On ch=1 n=d6 v=0
46680 On ch=1 n=c#6 v=31
46738 On ch=1 n=c#6 v=0
47402 On ch=1 n=a5 v=63
47458 On ch=1 n=a5 v=0
47522 On ch=1 n=d6 v=63
47878 On ch=1 n=d6 v=0
47880 On ch=1 n=d6 v=63
47998 On ch=1 n=d6 v=0
48000 On ch=1 n=d6 v=63
48058 On ch=1 n=d6 v=0
48122 On ch=1 n=e6 v=63
48178 On ch=1 n=e6 v=0
48242 On ch=1 n=f#6 v=63
48298 On ch=1 n=f#6 v=0
48362 On ch=1 n=g6 v=63
48418 On ch=1 n=g6 v=0
48482 On ch=1 n=a6 v=63
48538 On ch=1 n=a6 v=0
48602 On ch=1 n=b6 v=63
48658 On ch=1 n=b6 v=0
48722 On ch=1 n=c#7 v=63
48778 On ch=1 n=c#7 v=0
48842 On ch=1 n=d7 v=63
48898 On ch=1 n=d7 v=0
48962 On ch=1 n=e6 v=63
49318 On ch=1 n=e6 v=0
49320 On ch=1 n=c#6 v=47
49438 On ch=1 n=c#6 v=0
49440 On ch=1 n=d6 v=47
49678 On ch=1 n=d6 v=0
49922 On ch=1 n=d5 v=31
49958 On ch=1 n=d5 v=0
49960 On ch=1 n=e5 v=31
49998 On ch=1 n=e5 v=0
50000 On ch=1 n=f#5 v=31
50038 On ch=1 n=f#5 v=0
50040 On ch=1 n=g5 v=31
50078 On ch=1 n=g5 v=0
50080 On ch=1 n=a5 v=31
50118 On ch=1 n=a5 v=0
50120 On ch=1 n=b5 v=31
50158 On ch=1 n=b5 v=0
50160 On ch=1 n=c#6 v=31
50198 On ch=1 n=c#6 v=0
50200 On ch=1 n=d6 v=31
50238 On ch=1 n=d6 v=0
50240 On ch=1 n=e6 v=31
50278 On ch=1 n=e6 v=0
50280 On ch=1 n=f#6 v=47
50318 On ch=1 n=f#6 v=0
50320 On ch=1 n=g6 v=47
50358 On ch=1 n=g6 v=0
50360 On ch=1 n=a6 v=47
50398 On ch=1 n=a6 v=0
50400 On ch=1 n=a6 v=63
50638 On ch=1 n=a6 v=0
50640 On ch=1 n=g6 v=63
50698 On ch=1 n=g6 v=0
50822 On ch=1 n=f#6 v=63
50878 On ch=1 n=f#6 v=0
50880 On ch=1 n=f#6 v=63
51118 On ch=1 n=f#6 v=0
51120 On ch=1 n=e6 v=63
51178 On ch=1 n=e6 v=0
51302 On ch=1 n=d6 v=63
51358 On ch=1 n=d6 v=0
51360 On ch=1 n=d6 v=63
51598 On ch=1 n=d6 v=0
51600 On ch=1 n=c#6 v=63
51658 On ch=1 n=c#6 v=0
51782 On ch=1 n=d6 v=63
51838 On ch=1 n=d6 v=0
51840 On ch=1 n=f#6 v=31
52018 On ch=1 n=f#6 v=0
52020 On ch=1 n=g6 v=31
52078 On ch=1 n=g6 v=0
52080 On ch=1 n=g#6 v=31
52258 On ch=1 n=g#6 v=0
52260 On ch=1 n=a6 v=31
52318 On ch=1 n=a6 v=0
52320 On ch=1 n=e6 v=31
52438 On ch=1 n=e6 v=0
53162 On ch=1 n=d6 v=63
53198 On ch=1 n=d6 v=0
53200 On ch=1 n=f#6 v=63
53238 On ch=1 n=f#6 v=0
53240 On ch=1 n=a6 v=63
53278 On ch=1 n=a6 v=0
53280 On ch=1 n=d7 v=81
53398 On ch=1 n=d7 v=0
53400 On ch=1 n=e7 v=81
53438 On ch=1 n=e7 v=0
53440 On ch=1 n=d7 v=81
53478 On ch=1 n=d7 v=0
53480 On ch=1 n=c#7 v=81
53518 On ch=1 n=c#7 v=0
53520 On ch=1 n=d7 v=81
53698 On ch=1 n=d7 v=0
53700 On ch=1 n=e7 v=81
53758 On ch=1 n=e7 v=0
53760 On ch=1 n=c#7 v=81
53878 On ch=1 n=c#7 v=0
54242 On ch=1 n=a5 v=81
54298 On ch=1 n=a5 v=0
54300 On ch=1 n=c#6 v=81
54358 On ch=1 n=c#6 v=0
54360 On ch=1 n=b5 v=81
54418 On ch=1 n=b5 v=0
54420 On ch=1 n=d6 v=81
54478 On ch=1 n=d6 v=0
54480 On ch=1 n=c#6 v=81
54538 On ch=1 n=c#6 v=0
54540 On ch=1 n=e6 v=81
54598 On ch=1 n=e6 v=0
54600 On ch=1 n=d6 v=81
54658 On ch=1 n=d6 v=0
54660 On ch=1 n=f#6 v=81
54718 On ch=1 n=f#6 v=0
54720 On ch=1 n=e6 v=105
54778 On ch=1 n=e6 v=0
54780 On ch=1 n=g6 v=105
54838 On ch=1 n=g6 v=0
54840 On ch=1 n=f#6 v=105
54898 On ch=1 n=f#6 v=0
54900 On ch=1 n=a6 v=105
54958 On ch=1 n=a6 v=0
54960 On ch=1 n=g6 v=105
55018 On ch=1 n=g6 v=0
55020 On ch=1 n=b6 v=105
55078 On ch=1 n=b6 v=0
55080 On ch=1 n=a6 v=105
55138 On ch=1 n=a6 v=0
55140 On ch=1 n=g6 v=105
55198 On ch=1 n=g6 v=0
55200 On ch=1 n=f#6 v=105
55258 On ch=1 n=f#6 v=0
55260 On ch=1 n=a6 v=105
55318 On ch=1 n=a6 v=0
55320 On ch=1 n=g6 v=105
55378 On ch=1 n=g6 v=0
55380 On ch=1 n=b6 v=105
55438 On ch=1 n=b6 v=0
55440 On ch=1 n=a6 v=105
55498 On ch=1 n=a6 v=0
55500 On ch=1 n=c7 v=105
55558 On ch=1 n=c7 v=0
55560 On ch=1 n=b6 v=105
55618 On ch=1 n=b6 v=0
55620 On ch=1 n=a6 v=105
55678 On ch=1 n=a6 v=0
55680 On ch=1 n=g6 v=105
55738 On ch=1 n=g6 v=0
55740 On ch=1 n=b6 v=105
55798 On ch=1 n=b6 v=0
55800 On ch=1 n=a6 v=105
55858 On ch=1 n=a6 v=0
55860 On ch=1 n=g6 v=105
55918 On ch=1 n=g6 v=0
55920 On ch=1 n=f#6 v=81
55978 On ch=1 n=f#6 v=0
55980 On ch=1 n=e6 v=81
56038 On ch=1 n=e6 v=0
56040 On ch=1 n=d#6 v=81
56098 On ch=1 n=d#6 v=0
56100 On ch=1 n=e6 v=81
56158 On ch=1 n=e6 v=0
56222 On ch=1 n=a5 v=63
56278 On ch=1 n=a5 v=0
56280 On ch=1 n=b5 v=63
56338 On ch=1 n=b5 v=0
56340 On ch=1 n=c#6 v=63
56398 On ch=1 n=c#6 v=0
56400 On ch=1 n=d6 v=63
56458 On ch=1 n=d6 v=0
56460 On ch=1 n=d#6 v=63
56518 On ch=1 n=d#6 v=0
56520 On ch=1 n=e6 v=63
56578 On ch=1 n=e6 v=0
56580 On ch=1 n=f6 v=81
56638 On ch=1 n=f6 v=0
56640 On ch=1 n=f#6 v=81
56698 On ch=1 n=f#6 v=0
56700 On ch=1 n=g6 v=81
56758 On ch=1 n=g6 v=0
56760 On ch=1 n=g#6 v=81
56818 On ch=1 n=g#6 v=0
56820 On ch=1 n=a6 v=81
56878 On ch=1 n=a6 v=0
56880 On ch=1 n=g6 v=81
56938 On ch=1 n=g6 v=0
56940 On ch=1 n=f#6 v=81
56998 On ch=1 n=f#6 v=0
57000 On ch=1 n=e6 v=63
57058 On ch=1 n=e6 v=0
57060 On ch=1 n=d6 v=63
57118 On ch=1 n=d6 v=0
57120 On ch=1 n=c#6 v=47
57238 On ch=1 n=c#6 v=0
57362 On ch=1 n=e6 v=31
57478 On ch=1 n=e6 v=0
57602 On ch=1 n=e6 v=31
58078 On ch=1 n=e6 v=0
58080 On ch=1 n=d6 v=19
58318 On ch=1 n=d6 v=0
58922 On ch=1 n=a5 v=81
59038 On ch=1 n=a5 v=0
59040 On ch=1 n=d6 v=81
59398 On ch=1 n=d6 v=0
59400 On ch=1 n=d6 v=81
59518 On ch=1 n=d6 v=0
59520 On ch=1 n=d6 v=81
59758 On ch=1 n=d6 v=0
60362 On ch=1 n=d6 v=81
60478 On ch=1 n=d6 v=0
60480 On ch=1 n=e6 v=81
60838 On ch=1 n=e6 v=0
60840 On ch=1 n=e6 v=81
60958 On ch=1 n=e6 v=0
60960 On ch=1 n=e6 v=81
61438 On ch=1 n=e6 v=0
61440 On ch=1 n=e6 v=81
61558 On ch=1 n=e6 v=0
61682 On ch=1 n=g6 v=81
61798 On ch=1 n=g6 v=0
61922 On ch=1 n=f6 v=81
62398 On ch=1 n=f6 v=0
62400 On ch=1 n=a#6 v=81
62878 On ch=1 n=a#6 v=0
62880 On ch=1 n=a#6 v=81
63358 On ch=1 n=a#6 v=0
63360 On ch=1 n=a6 v=81
63438 On ch=1 n=a6 v=0
63440 On ch=1 n=c7 v=81
63518 On ch=1 n=c7 v=0
63520 On ch=1 n=a#6 v=81
63598 On ch=1 n=a#6 v=0
63600 On ch=1 n=a6 v=81
63678 On ch=1 n=a6 v=0
63680 On ch=1 n=g6 v=81
63758 On ch=1 n=g6 v=0
63760 On ch=1 n=f6 v=81
63838 On ch=1 n=f6 v=0
63840 On ch=1 n=e6 v=81
63918 On ch=1 n=e6 v=0
63920 On ch=1 n=a#6 v=81
63998 On ch=1 n=a#6 v=0
64000 On ch=1 n=a6 v=81
64078 On ch=1 n=a6 v=0
64080 On ch=1 n=g6 v=81
64158 On ch=1 n=g6 v=0
64160 On ch=1 n=f6 v=81
64238 On ch=1 n=f6 v=0
64240 On ch=1 n=e6 v=81
64318 On ch=1 n=e6 v=0
64320 On ch=1 n=f6 v=81
64398 On ch=1 n=f6 v=0
64400 On ch=1 n=g6 v=81
64478 On ch=1 n=g6 v=0
64480 On ch=1 n=f6 v=81
64558 On ch=1 n=f6 v=0
64560 On ch=1 n=d#6 v=81
64638 On ch=1 n=d#6 v=0
64640 On ch=1 n=d6 v=81
64718 On ch=1 n=d6 v=0
64720 On ch=1 n=c#6 v=81
64798 On ch=1 n=c#6 v=0
64800 On ch=1 n=d6 v=81
64878 On ch=1 n=d6 v=0
64880 On ch=1 n=c#7 v=81
64958 On ch=1 n=c#7 v=0
64960 On ch=1 n=d7 v=81
65038 On ch=1 n=d7 v=0
65040 On ch=1 n=a6 v=81
65118 On ch=1 n=a6 v=0
65120 On ch=1 n=a#6 v=81
65198 On ch=1 n=a#6 v=0
65200 On ch=1 n=g6 v=81
65278 On ch=1 n=g6 v=0
65280 On ch=1 n=f6 v=81
65358 On ch=1 n=f6 v=0
65360 On ch=1 n=c7 v=81
65438 On ch=1 n=c7 v=0
65440 On ch=1 n=c7 v=81
65478 On ch=1 n=c7 v=0
65522 On ch=1 n=c7 v=81
65598 On ch=1 n=c7 v=0
65600 On ch=1 n=a6 v=81
65678 On ch=1 n=a6 v=0
65680 On ch=1 n=f6 v=81
65758 On ch=1 n=f6 v=0
65760 On ch=1 n=a6 v=81
65798 On ch=1 n=a6 v=0
65800 On ch=1 n=g6 v=81
65838 On ch=1 n=g6 v=0
65840 On ch=1 n=a6 v=81
65878 On ch=1 n=a6 v=0
65880 On ch=1 n=g6 v=81
65918 On ch=1 n=g6 v=0
65920 On ch=1 n=a6 v=81
65958 On ch=1 n=a6 v=0
65960 On ch=1 n=g6 v=81
65998 On ch=1 n=g6 v=0
66000 On ch=1 n=f6 v=81
66118 On ch=1 n=f6 v=0
66120 On ch=1 n=g6 v=81
66238 On ch=1 n=g6 v=0
66240 On ch=1 n=f7 v=81
66318 On ch=1 n=f7 v=0
66320 On ch=1 n=a6 v=81
66398 On ch=1 n=a6 v=0
66400 On ch=1 n=a#6 v=81
66478 On ch=1 n=a#6 v=0
66480 On ch=1 n=e7 v=81
66558 On ch=1 n=e7 v=0
66560 On ch=1 n=g#6 v=81
66638 On ch=1 n=g#6 v=0
66640 On ch=1 n=a6 v=81
66718 On ch=1 n=a6 v=0
66720 On ch=1 n=d7 v=81
66798 On ch=1 n=d7 v=0
66800 On ch=1 n=f#6 v=81
66878 On ch=1 n=f#6 v=0
66880 On ch=1 n=g6 v=81
66958 On ch=1 n=g6 v=0
66960 On ch=1 n=c7 v=81
67038 On ch=1 n=c7 v=0
67040 On ch=1 n=e6 v=81
67118 On ch=1 n=e6 v=0
67120 On ch=1 n=f6 v=81
67198 On ch=1 n=f6 v=0
67200 On ch=1 n=a#6 v=63
67278 On ch=1 n=a#6 v=0
67280 On ch=1 n=g6 v=63
67358 On ch=1 n=g6 v=0
67360 On ch=1 n=e6 v=63
67438 On ch=1 n=e6 v=0
67440 On ch=1 n=c6 v=63
67518 On ch=1 n=c6 v=0
67520 On ch=1 n=d6 v=63
67598 On ch=1 n=d6 v=0
67600 On ch=1 n=a#5 v=63
67678 On ch=1 n=a#5 v=0
67680 On ch=1 n=a5 v=47
67758 On ch=1 n=a5 v=0
67760 On ch=1 n=f6 v=47
67838 On ch=1 n=f6 v=0
67840 On ch=1 n=c#6 v=47
67918 On ch=1 n=c#6 v=0
67920 On ch=1 n=d6 v=47
67998 On ch=1 n=d6 v=0
68000 On ch=1 n=a#5 v=47
68078 On ch=1 n=a#5 v=0
68080 On ch=1 n=g5 v=47
68158 On ch=1 n=g5 v=0
68160 On ch=1 n=f5 v=47
68238 On ch=1 n=f5 v=0
68240 On ch=1 n=c6 v=47
68318 On ch=1 n=c6 v=0
68320 On ch=1 n=c6 v=47
68358 On ch=1 n=c6 v=0
68402 On ch=1 n=c6 v=47
68478 On ch=1 n=c6 v=0
68480 On ch=1 n=a5 v=47
68558 On ch=1 n=a5 v=0
68560 On ch=1 n=f5 v=47
68638 On ch=1 n=f5 v=0
68640 On ch=1 n=a5 v=47
68678 On ch=1 n=a5 v=0
68680 On ch=1 n=g5 v=47
68718 On ch=1 n=g5 v=0
68720 On ch=1 n=a5 v=47
68758 On ch=1 n=a5 v=0
68760 On ch=1 n=g5 v=47
68798 On ch=1 n=g5 v=0
68800 On ch=1 n=a5 v=47
68838 On ch=1 n=a5 v=0
68840 On ch=1 n=g5 v=47
68878 On ch=1 n=g5 v=0
68880 On ch=1 n=f5 v=47
68998 On ch=1 n=f5 v=0
69000 On ch=1 n=g5 v=47
69118 On ch=1 n=g5 v=0
69120 On ch=1 n=f5 v=34
69598 On ch=1 n=f5 v=0
70922 On ch=1 n=f5 v=81
71038 On ch=1 n=f5 v=0
71040 On ch=1 n=a6 v=81
71398 On ch=1 n=a6 v=0
71400 On ch=1 n=a6 v=81
71518 On ch=1 n=a6 v=0
71520 On ch=1 n=a6 v=81
71998 On ch=1 n=a6 v=0
72362 On ch=1 n=c6 v=81
72478 On ch=1 n=c6 v=0
72480 On ch=1 n=d#7 v=81
72838 On ch=1 n=d#7 v=0
72840 On ch=1 n=d#7 v=81
72958 On ch=1 n=d#7 v=0
72960 On ch=1 n=d#7 v=81
73318 On ch=1 n=d#7 v=0
73320 On ch=1 n=d7 v=31
73378 On ch=1 n=d7 v=0
73380 On ch=1 n=c7 v=31
73438 On ch=1 n=c7 v=0
73440 On ch=1 n=a#6 v=31
73518 On ch=1 n=a#6 v=0
73520 On ch=1 n=c7 v=31
73598 On ch=1 n=c7 v=0
73600 On ch=1 n=a#6 v=31
73678 On ch=1 n=a#6 v=0
73680 On ch=1 n=a6 v=31
73758 On ch=1 n=a6 v=0
73760 On ch=1 n=a#6 v=31
73838 On ch=1 n=a#6 v=0
73840 On ch=1 n=a6 v=31
73918 On ch=1 n=a6 v=0
73920 On ch=1 n=g6 v=31
73998 On ch=1 n=g6 v=0
74000 On ch=1 n=a6 v=31
74078 On ch=1 n=a6 v=0
74080 On ch=1 n=g6 v=31
74158 On ch=1 n=g6 v=0
74160 On ch=1 n=f6 v=31
74238 On ch=1 n=f6 v=0
74240 On ch=1 n=g6 v=31
74318 On ch=1 n=g6 v=0
74320 On ch=1 n=f6 v=31
74398 On ch=1 n=f6 v=0
74400 On ch=1 n=e6 v=31
74478 On ch=1 n=e6 v=0
74480 On ch=1 n=f6 v=31
74558 On ch=1 n=f6 v=0
74560 On ch=1 n=e6 v=31
74638 On ch=1 n=e6 v=0
74640 On ch=1 n=f6 v=31
74718 On ch=1 n=f6 v=0
74720 On ch=1 n=e6 v=31
74798 On ch=1 n=e6 v=0
74800 On ch=1 n=d6 v=31
74878 On ch=1 n=d6 v=0
74880 On ch=1 n=d6 v=47
75358 On ch=1 n=d6 v=0
75360 On ch=1 n=c#6 v=47
75438 On ch=1 n=c#6 v=0
75440 On ch=1 n=d6 v=47
75518 On ch=1 n=d6 v=0
75520 On ch=1 n=e6 v=47
75598 On ch=1 n=e6 v=0
75600 On ch=1 n=d6 v=47
75678 On ch=1 n=d6 v=0
75680 On ch=1 n=c#6 v=47
75758 On ch=1 n=c#6 v=0
75760 On ch=1 n=a#5 v=47
75838 On ch=1 n=a#5 v=0
75840 On ch=1 n=a5 v=63
75918 On ch=1 n=a5 v=0
75920 On ch=1 n=a#5 v=63
75998 On ch=1 n=a#5 v=0
76000 On ch=1 n=a5 v=63
76078 On ch=1 n=a5 v=0
76080 On ch=1 n=g5 v=63
76158 On ch=1 n=g5 v=0
76160 On ch=1 n=f5 v=63
76238 On ch=1 n=f5 v=0
76240 On ch=1 n=e5 v=63
76318 On ch=1 n=e5 v=0
76402 On ch=1 n=a6 v=81
76438 On ch=1 n=a6 v=0
76482 On ch=1 n=a6 v=81
76518 On ch=1 n=a6 v=0
76562 On ch=1 n=a6 v=81
76638 On ch=1 n=a6 v=0
76640 On ch=1 n=g6 v=81
76718 On ch=1 n=g6 v=0
76720 On ch=1 n=f6 v=81
76798 On ch=1 n=f6 v=0
76882 On ch=1 n=c#7 v=81
76918 On ch=1 n=c#7 v=0
76962 On ch=1 n=c#7 v=81
76998 On ch=1 n=c#7 v=0
77042 On ch=1 n=c#7 v=81
77118 On ch=1 n=c#7 v=0
77120 On ch=1 n=d7 v=81
77198 On ch=1 n=d7 v=0
77200 On ch=1 n=e7 v=81
77278 On ch=1 n=e7 v=0
77362 On ch=1 n=d7 v=81
77398 On ch=1 n=d7 v=0
77442 On ch=1 n=d7 v=81
77478 On ch=1 n=d7 v=0
77602 On ch=1 n=c7 v=81
77638 On ch=1 n=c7 v=0
77682 On ch=1 n=c7 v=81
77718 On ch=1 n=c7 v=0
77842 On ch=1 n=a#6 v=81
77878 On ch=1 n=a#6 v=0
77922 On ch=1 n=a#6 v=81
77958 On ch=1 n=a#6 v=0
78082 On ch=1 n=g6 v=81
78118 On ch=1 n=g6 v=0
78162 On ch=1 n=g6 v=81
78198 On ch=1 n=g6 v=0
78482 On ch=1 n=a5 v=81
78518 On ch=1 n=a5 v=0
78562 On ch=1 n=d6 v=81
78598 On ch=1 n=d6 v=0
78642 On ch=1 n=f6 v=81
78678 On ch=1 n=f6 v=0
78722 On ch=1 n=a6 v=81
78958 On ch=1 n=a6 v=0
79442 On ch=1 n=g5 v=31
79518 On ch=1 n=g5 v=0
79520 On ch=1 n=c#6 v=31
79598 On ch=1 n=c#6 v=0
79600 On ch=1 n=e6 v=31
79678 On ch=1 n=e6 v=0
79680 On ch=1 n=g6 v=31
80158 On ch=1 n=g6 v=0
80722 On ch=1 n=e7 v=31
80798 On ch=1 n=e7 v=0
80800 On ch=1 n=f7 v=105
80878 On ch=1 n=f7 v=0
80880 On ch=1 n=c#7 v=105
80958 On ch=1 n=c#7 v=0
80960 On ch=1 n=d7 v=105
81038 On ch=1 n=d7 v=0
81040 On ch=1 n=a6 v=105
81118 On ch=1 n=a6 v=0
81120 On ch=1 n=a#6 v=105
81198 On ch=1 n=a#6 v=0
81200 On ch=1 n=g#6 v=105
81278 On ch=1 n=g#6 v=0
81280 On ch=1 n=a6 v=105
81358 On ch=1 n=a6 v=0
81360 On ch=1 n=e6 v=105
81438 On ch=1 n=e6 v=0
81440 On ch=1 n=f6 v=105
81518 On ch=1 n=f6 v=0
81520 On ch=1 n=c#6 v=105
81598 On ch=1 n=c#6 v=0
81600 On ch=1 n=d6 v=105
81678 On ch=1 n=d6 v=0
81680 On ch=1 n=f6 v=105
81758 On ch=1 n=f6 v=0
81760 On ch=1 n=a5 v=105
81838 On ch=1 n=a5 v=0
81840 On ch=1 n=a#5 v=105
81918 On ch=1 n=a#5 v=0
81920 On ch=1 n=d6 v=105
81998 On ch=1 n=d6 v=0
82000 On ch=1 n=g#5 v=105
82078 On ch=1 n=g#5 v=0
82080 On ch=1 n=a5 v=105
82158 On ch=1 n=a5 v=0
82160 On ch=1 n=a#5 v=105
82238 On ch=1 n=a#5 v=0
82240 On ch=1 n=b5 v=105
82318 On ch=1 n=b5 v=0
82320 On ch=1 n=c6 v=81
82398 On ch=1 n=c6 v=0
82400 On ch=1 n=c#6 v=81
82478 On ch=1 n=c#6 v=0
82480 On ch=1 n=d6 v=81
82558 On ch=1 n=d6 v=0
82560 On ch=1 n=d#6 v=63
82638 On ch=1 n=d#6 v=0
82640 On ch=1 n=e6 v=63
82718 On ch=1 n=e6 v=0
82720 On ch=1 n=f6 v=63
82798 On ch=1 n=f6 v=0
82800 On ch=1 n=f#6 v=47
82878 On ch=1 n=f#6 v=0
82880 On ch=1 n=g6 v=47
82958 On ch=1 n=g6 v=0
82960 On ch=1 n=g#6 v=47
83038 On ch=1 n=g#6 v=0
83040 On ch=1 n=a6 v=47
83158 On ch=1 n=a6 v=0
83282 On ch=1 n=c#6 v=31
83398 On ch=1 n=c#6 v=0
83522 On ch=1 n=c#6 v=31
83998 On ch=1 n=c#6 v=0
84000 On ch=1 n=d6 v=19
84238 On ch=1 n=d6 v=0
84842 On ch=1 n=d5 v=81
84958 On ch=1 n=d5 v=0
84960 On ch=1 n=f5 v=81
85318 On ch=1 n=f5 v=0
85320 On ch=1 n=f5 v=81
85438 On ch=1 n=f5 v=0
85440 On ch=1 n=f5 v=81
85918 On ch=1 n=f5 v=0
86282 On ch=1 n=f5 v=81
86398 On ch=1 n=f5 v=0
86400 On ch=1 n=g#5 v=81
86758 On ch=1 n=g#5 v=0
86760 On ch=1 n=g#5 v=81
86878 On ch=1 n=g#5 v=0
86880 On ch=1 n=g#5 v=81
87358 On ch=1 n=g#5 v=0
87722 On ch=1 n=g#5 v=81
87838 On ch=1 n=g#5 v=0
87840 On ch=1 n=a5 v=81
88198 On ch=1 n=a5 v=0
88200 On ch=1 n=a5 v=63
88318 On ch=1 n=a5 v=0
88320 On ch=1 n=b5 v=63
88678 On ch=1 n=b5 v=0
88680 On ch=1 n=b5 v=47
88798 On ch=1 n=b5 v=0
88800 On ch=1 n=c#6 v=47
89158 On ch=1 n=c#6 v=0
89160 On ch=1 n=a5 v=31
89278 On ch=1 n=a5 v=0
89280 On ch=1 n=d6 v=31
89638 On ch=1 n=d6 v=0
89640 On ch=1 n=d6 v=31
89758 On ch=1 n=d6 v=0
89760 On ch=1 n=d6 v=31
89998 On ch=1 n=d6 v=0
90602 On ch=1 n=a5 v=31
90638 On ch=1 n=a5 v=0
90640 On ch=1 n=d6 v=31
90678 On ch=1 n=d6 v=0
90680 On ch=1 n=f#6 v=31
90718 On ch=1 n=f#6 v=0
90720 On ch=1 n=e6 v=31
91078 On ch=1 n=e6 v=0
91080 On ch=1 n=c#6 v=31
91198 On ch=1 n=c#6 v=0
91200 On ch=1 n=d6 v=31
91318 On ch=1 n=d6 v=0
91922 On ch=1 n=a5 v=47
91978 On ch=1 n=a5 v=0
91980 On ch=1 n=d6 v=47
92038 On ch=1 n=d6 v=0
92040 On ch=1 n=f#6 v=47
92098 On ch=1 n=f#6 v=0
92100 On ch=1 n=a6 v=47
92158 On ch=1 n=a6 v=0
92160 On ch=1 n=a6 v=47
92398 On ch=1 n=a6 v=0
92400 On ch=1 n=g6 v=47
92458 On ch=1 n=g6 v=0
92582 On ch=1 n=f#6 v=47
92638 On ch=1 n=f#6 v=0
92640 On ch=1 n=f#6 v=47
92878 On ch=1 n=f#6 v=0
92880 On ch=1 n=e6 v=47
92938 On ch=1 n=e6 v=0
93062 On ch=1 n=d6 v=31
93118 On ch=1 n=d6 v=0
93120 On ch=1 n=d6 v=31
93358 On ch=1 n=d6 v=0
93360 On ch=1 n=c#6 v=31
93418 On ch=1 n=c#6 v=0
93542 On ch=1 n=d6 v=31
93598 On ch=1 n=d6 v=0
93600 On ch=1 n=f#6 v=31
94078 On ch=1 n=f#6 v=0
94080 On ch=1 n=e6 v=19
94318 On ch=1 n=e6 v=0
94922 On ch=1 n=d6 v=63
94958 On ch=1 n=d6 v=0
94960 On ch=1 n=f#6 v=63
94998 On ch=1 n=f#6 v=0
95000 On ch=1 n=a6 v=63
95038 On ch=1 n=a6 v=0
95040 On ch=1 n=d7 v=81
95158 On ch=1 n=d7 v=0
95160 On ch=1 n=e7 v=81
95198 On ch=1 n=e7 v=0
95200 On ch=1 n=d7 v=81
95238 On ch=1 n=d7 v=0
95240 On ch=1 n=c#7 v=81
95278 On ch=1 n=c#7 v=0
95280 On ch=1 n=d7 v=81
95458 On ch=1 n=d7 v=0
95460 On ch=1 n=e7 v=81
95518 On ch=1 n=e7 v=0
95520 On ch=1 n=c#7 v=81
95638 On ch=1 n=c#7 v=0
96002 On ch=1 n=a6 v=81
96118 On ch=1 n=a6 v=0
96120 On ch=1 n=b6 v=81
96158 On ch=1 n=b6 v=0
96160 On ch=1 n=a6 v=81
96198 On ch=1 n=a6 v=0
96200 On ch=1 n=g#6 v=81
96238 On ch=1 n=g#6 v=0
96240 On ch=1 n=a6 v=81
96418 On ch=1 n=a6 v=0
96420 On ch=1 n=b6 v=81
96478 On ch=1 n=b6 v=0
96480 On ch=1 n=d7 v=81
96598 On ch=1 n=d7 v=0
96600 On ch=1 n=c7 v=81
96718 On ch=1 n=c7 v=0
96720 On ch=1 n=c7 v=81
96898 On ch=1 n=c7 v=0
96900 On ch=1 n=b6 v=81
96958 On ch=1 n=b6 v=0
96960 On ch=1 n=b6 v=81
97558 On ch=1 n=b6 v=0
97560 On ch=1 n=a6 v=31
97678 On ch=1 n=a6 v=0
97680 On ch=1 n=c7 v=31
97798 On ch=1 n=c7 v=0
97800 On ch=1 n=a6 v=31
97918 On ch=1 n=a6 v=0
97920 On ch=1 n=a6 v=31
98038 On ch=1 n=a6 v=0
98040 On ch=1 n=g6 v=31
98158 On ch=1 n=g6 v=0
98160 On ch=1 n=b6 v=31
98278 On ch=1 n=b6 v=0
98280 On ch=1 n=g6 v=31
98398 On ch=1 n=g6 v=0
98400 On ch=1 n=g6 v=31
98518 On ch=1 n=g6 v=0
98520 On ch=1 n=f#6 v=31
98638 On ch=1 n=f#6 v=0
98640 On ch=1 n=a6 v=31
98758 On ch=1 n=a6 v=0
98760 On ch=1 n=f#6 v=31
98878 On ch=1 n=f#6 v=0
98880 On ch=1 n=f#6 v=47
98998 On ch=1 n=f#6 v=0
99000 On ch=1 n=e6 v=47
99118 On ch=1 n=e6 v=0
99120 On ch=1 n=f6 v=47
99238 On ch=1 n=f6 v=0
99240 On ch=1 n=d6 v=47
99358 On ch=1 n=d6 v=0
99360 On ch=1 n=d6 v=31
99838 On ch=1 n=d6 v=0
99840 On ch=1 n=c#6 v=19
100078 On ch=1 n=c#6 v=0
100682 On ch=1 n=a5 v=81
100798 On ch=1 n=a5 v=0
100800 On ch=1 n=d6 v=81
101038 On ch=1 n=d6 v=0
101040 On ch=1 n=d6 v=81
101098 On ch=1 n=d6 v=0
101100 On ch=1 n=c#6 v=81
101130 On ch=1 n=c#6 v=0
101130 On ch=1 n=b5 v=81
101160 On ch=1 n=b5 v=0
101160 On ch=1 n=a5 v=81
101190 On ch=1 n=a5 v=0
101190 On ch=1 n=g5 v=81
101220 On ch=1 n=g5 v=0
101220 On ch=1 n=f#5 v=81
101250 On ch=1 n=f#5 v=0
101250 On ch=1 n=e5 v=81
101280 On ch=1 n=e5 v=0
101280 On ch=1 n=d5 v=81
101518 On ch=1 n=d5 v=0
101642 On ch=1 n=a6 v=81
101678 On ch=1 n=a6 v=0
101680 On ch=1 n=b6 v=81
101718 On ch=1 n=b6 v=0
101720 On ch=1 n=a6 v=81
101758 On ch=1 n=a6 v=0
101760 On ch=1 n=d7 v=81
102058 On ch=1 n=d7 v=0
102060 On ch=1 n=c#7 v=81
102118 On ch=1 n=c#7 v=0
102122 On ch=1 n=b6 v=81
102150 On ch=1 n=a6 v=81
102152 On ch=1 n=b6 v=0
102180 On ch=1 n=a6 v=0
102180 On ch=1 n=g6 v=81
102210 On ch=1 n=g6 v=0
102210 On ch=1 n=f#6 v=81
102240 On ch=1 n=f#6 v=0
102240 On ch=1 n=e6 v=81
102538 On ch=1 n=e6 v=0
102540 On ch=1 n=d6 v=81
102598 On ch=1 n=d6 v=0
102600 On ch=1 n=c#6 v=81
102658 On ch=1 n=c#6 v=0
102660 On ch=1 n=b5 v=81
102690 On ch=1 n=b5 v=0
102690 On ch=1 n=a5 v=81
102718 On ch=1 n=a5 v=0
102720 On ch=1 n=d6 v=63
102958 On ch=1 n=d6 v=0
103142 On ch=1 n=c#6 v=31
103198 On ch=1 n=c#6 v=0
103200 On ch=1 n=d6 v=31
103258 On ch=1 n=d6 v=0
103260 On ch=1 n=f#6 v=31
103318 On ch=1 n=f#6 v=0
103320 On ch=1 n=e6 v=31
103378 On ch=1 n=e6 v=0
103380 On ch=1 n=g6 v=31
103438 On ch=1 n=g6 v=0
103440 On ch=1 n=f#6 v=31
103498 On ch=1 n=f#6 v=0
103500 On ch=1 n=a6 v=31
103558 On ch=1 n=a6 v=0
103560 On ch=1 n=g6 v=31
103618 On ch=1 n=g6 v=0
103620 On ch=1 n=b6 v=31
103678 On ch=1 n=b6 v=0
103680 On ch=1 n=a6 v=31
103798 On ch=1 n=a6 v=0
103800 On ch=1 n=g6 v=31
103918 On ch=1 n=g6 v=0
104042 On ch=1 n=f#6 v=31
104158 On ch=1 n=f#6 v=0
104282 On ch=1 n=e6 v=31
104398 On ch=1 n=e6 v=0
104522 On ch=1 n=d6 v=31
104638 On ch=1 n=d6 v=0
104762 On ch=1 n=c#6 v=31
104878 On ch=1 n=c#6 v=0
105002 On ch=1 n=d6 v=31
105118 On ch=1 n=d6 v=0
105120 On ch=1 n=f#6 v=31
105158 On ch=1 n=f#6 v=0
105160 On ch=1 n=g6 v=31
105198 On ch=1 n=g6 v=0
105200 On ch=1 n=f#6 v=31
105238 On ch=1 n=f#6 v=0
105240 On ch=1 n=e6 v=31
105278 On ch=1 n=e6 v=0
105280 On ch=1 n=f#6 v=31
105318 On ch=1 n=f#6 v=0
105320 On ch=1 n=g6 v=31
105358 On ch=1 n=g6 v=0
105360 On ch=1 n=g#6 v=31
105538 On ch=1 n=g#6 v=0
105540 On ch=1 n=a6 v=31
105598 On ch=1 n=a6 v=0
105600 On ch=1 n=g6 v=19
105628 On ch=1 n=g6 v=0
105632 On ch=1 n=f#6 v=21
105662 On ch=1 n=f#6 v=0
105664 On ch=1 n=e6 v=21
105690 On ch=1 n=f#6 v=19
105694 On ch=1 n=e6 v=0
105718 On ch=1 n=f#6 v=0
105720 On ch=1 n=e6 v=19
105778 On ch=1 n=e6 v=0
106442 On ch=1 n=d6 v=47
106478 On ch=1 n=d6 v=0
106480 On ch=1 n=f#6 v=47
106518 On ch=1 n=f#6 v=0
106520 On ch=1 n=a6 v=47
106558 On ch=1 n=a6 v=0
106560 On ch=1 n=d7 v=81
106678 On ch=1 n=d7 v=0
106680 On ch=1 n=e7 v=81
106718 On ch=1 n=e7 v=0
106720 On ch=1 n=d7 v=81
106758 On ch=1 n=d7 v=0
106760 On ch=1 n=c#7 v=81
106798 On ch=1 n=c#7 v=0
106800 On ch=1 n=d7 v=81
106978 On ch=1 n=d7 v=0
106980 On ch=1 n=e7 v=81
107038 On ch=1 n=e7 v=0
107040 On ch=1 n=c#7 v=81
107158 On ch=1 n=c#7 v=0
108002 On ch=1 n=d5 v=81
108238 On ch=1 n=d5 v=0
108240 On ch=1 n=c5 v=81
108478 On ch=1 n=c5 v=0
108480 On ch=1 n=c5 v=81
108658 On ch=1 n=c5 v=0
108660 On ch=1 n=b4 v=81
108718 On ch=1 n=b4 v=0
108720 On ch=1 n=c#6 v=31
109078 On ch=1 n=c#6 v=0
109080 On ch=1 n=b5 v=31
109198 On ch=1 n=b5 v=0
109200 On ch=1 n=a#5 v=31
109318 On ch=1 n=a#5 v=0
109320 On ch=1 n=a5 v=31
109438 On ch=1 n=a5 v=0
109440 On ch=1 n=a5 v=31
109558 On ch=1 n=a5 v=0
109560 On ch=1 n=g5 v=31
109798 On ch=1 n=g5 v=0
109800 On ch=1 n=b5 v=31
109858 On ch=1 n=b5 v=0
109860 On ch=1 n=a5 v=31
109918 On ch=1 n=a5 v=0
109920 On ch=1 n=g5 v=31
110038 On ch=1 n=g5 v=0
110040 On ch=1 n=f#5 v=31
110278 On ch=1 n=f#5 v=0
110280 On ch=1 n=a6 v=31
110518 On ch=1 n=a6 v=0
110520 On ch=1 n=a#6 v=31
110758 On ch=1 n=a#6 v=0
110760 On ch=1 n=b6 v=31
110878 On ch=1 n=b6 v=0
110880 On ch=1 n=f#6 v=31
111358 On ch=1 n=f#6 v=0
111360 On ch=1 n=e6 v=31
111838 On ch=1 n=e6 v=0
113042 On ch=1 n=c7 v=31
113158 On ch=1 n=c7 v=0
113160 On ch=1 n=a6 v=31
113278 On ch=1 n=a6 v=0
113280 On ch=1 n=b6 v=31
113398 On ch=1 n=b6 v=0
113400 On ch=1 n=g6 v=31
113518 On ch=1 n=g6 v=0
113520 On ch=1 n=a6 v=31
113638 On ch=1 n=a6 v=0
113640 On ch=1 n=f#6 v=31
113758 On ch=1 n=f#6 v=0
113760 On ch=1 n=g6 v=31
113998 On ch=1 n=g6 v=0
114482 On ch=1 n=c7 v=31
114558 On ch=1 n=c7 v=0
114560 On ch=1 n=b6 v=31
114638 On ch=1 n=b6 v=0
114640 On ch=1 n=g6 v=31
114718 On ch=1 n=g6 v=0
114720 On ch=1 n=b6 v=31
114798 On ch=1 n=b6 v=0
114800 On ch=1 n=a6 v=31
114878 On ch=1 n=a6 v=0
114880 On ch=1 n=f#6 v=31
114958 On ch=1 n=f#6 v=0
114960 On ch=1 n=a6 v=31
115038 On ch=1 n=a6 v=0
115040 On ch=1 n=g6 v=31
115118 On ch=1 n=g6 v=0
115120 On ch=1 n=e6 v=31
115198 On ch=1 n=e6 v=0
115200 On ch=1 n=f#6 v=31
115438 On ch=1 n=f#6 v=0
115762 On ch=1 n=d7 v=31
115838 On ch=1 n=d7 v=0
115840 On ch=1 n=c#7 v=31
115918 On ch=1 n=c#7 v=0
115920 On ch=1 n=c7 v=47
115998 On ch=1 n=c7 v=0
116000 On ch=1 n=b6 v=47
116078 On ch=1 n=b6 v=0
116080 On ch=1 n=a#6 v=47
116158 On ch=1 n=a#6 v=0
116160 On ch=1 n=a6 v=47
116238 On ch=1 n=a6 v=0
116240 On ch=1 n=g#6 v=47
116318 On ch=1 n=g#6 v=0
116320 On ch=1 n=g6 v=47
116398 On ch=1 n=g6 v=0
116400 On ch=1 n=f#6 v=63
116478 On ch=1 n=f#6 v=0
116480 On ch=1 n=f6 v=63
116558 On ch=1 n=f6 v=0
116560 On ch=1 n=e6 v=63
116638 On ch=1 n=e6 v=0
116640 On ch=1 n=d6 v=63
117118 On ch=1 n=d6 v=0
117120 On ch=1 n=c#6 v=31
117358 On ch=1 n=c#6 v=0
117962 On ch=1 n=a5 v=31
118078 On ch=1 n=a5 v=0
118080 On ch=1 n=d6 v=31
118438 On ch=1 n=d6 v=0
118440 On ch=1 n=d6 v=31
118558 On ch=1 n=d6 v=0
118560 On ch=1 n=d6 v=31
118798 On ch=1 n=d6 v=0
119282 On ch=1 n=a5 v=31
119358 On ch=1 n=a5 v=0
119360 On ch=1 n=d6 v=31
119438 On ch=1 n=d6 v=0
119440 On ch=1 n=f#6 v=31
119518 On ch=1 n=f#6 v=0
119520 On ch=1 n=f#6 v=31
119638 On ch=1 n=f#6 v=0
119640 On ch=1 n=e6 v=31
119758 On ch=1 n=e6 v=0
119760 On ch=1 n=b6 v=31
119878 On ch=1 n=b6 v=0
119880 On ch=1 n=c#6 v=31
119998 On ch=1 n=c#6 v=0
120000 On ch=1 n=e6 v=31
120118 On ch=1 n=e6 v=0
120120 On ch=1 n=d6 v=31
120238 On ch=1 n=d6 v=0
120240 On ch=1 n=d7 v=31
120598 On ch=1 n=d7 v=0
120600 On ch=1 n=c#7 v=31
120658 On ch=1 n=c#7 v=0
120660 On ch=1 n=d7 v=31
120718 On ch=1 n=d7 v=0
120720 On ch=1 n=e7 v=31
120778 On ch=1 n=e7 v=0
120780 On ch=1 n=d7 v=31
120838 On ch=1 n=d7 v=0
120840 On ch=1 n=c#7 v=31
120898 On ch=1 n=c#7 v=0
120900 On ch=1 n=b6 v=31
120958 On ch=1 n=b6 v=0
120960 On ch=1 n=a6 v=31
121078 On ch=1 n=a6 v=0
121080 On ch=1 n=g6 v=31
121138 On ch=1 n=g6 v=0
121140 On ch=1 n=a6 v=31
121198 On ch=1 n=a6 v=0
121200 On ch=1 n=b6 v=31
121258 On ch=1 n=b6 v=0
121260 On ch=1 n=a6 v=31
121318 On ch=1 n=a6 v=0
121320 On ch=1 n=g6 v=31
121378 On ch=1 n=g6 v=0
121380 On ch=1 n=f#6 v=31
121438 On ch=1 n=f#6 v=0
121440 On ch=1 n=e6 v=31
121558 On ch=1 n=e6 v=0
121560 On ch=1 n=e6 v=31
121618 On ch=1 n=e6 v=0
121620 On ch=1 n=f#6 v=31
121678 On ch=1 n=f#6 v=0
121680 On ch=1 n=g6 v=31
121738 On ch=1 n=g6 v=0
121740 On ch=1 n=f#6 v=31
121798 On ch=1 n=f#6 v=0
121800 On ch=1 n=e6 v=31
121858 On ch=1 n=e6 v=0
121860 On ch=1 n=d6 v=31
121918 On ch=1 n=d6 v=0
121920 On ch=1 n=c#6 v=31
121978 On ch=1 n=c#6 v=0
122162 On ch=1 n=d6 v=31
122218 On ch=1 n=d6 v=0
122402 On ch=1 n=f#6 v=31
122878 On ch=1 n=f#6 v=0
122880 On ch=1 n=e6 v=31
123118 On ch=1 n=e6 v=0
123722 On ch=1 n=d6 v=47
123758 On ch=1 n=d6 v=0
123760 On ch=1 n=f#6 v=47
123798 On ch=1 n=f#6 v=0
123800 On ch=1 n=a6 v=47
123838 On ch=1 n=a6 v=0
123840 On ch=1 n=d7 v=81
123958 On ch=1 n=d7 v=0
123960 On ch=1 n=e7 v=81
123998 On ch=1 n=e7 v=0
124000 On ch=1 n=d7 v=81
124038 On ch=1 n=d7 v=0
124040 On ch=1 n=c#7 v=81
124078 On ch=1 n=c#7 v=0
124080 On ch=1 n=d7 v=81
124258 On ch=1 n=d7 v=0
124260 On ch=1 n=e7 v=81
124318 On ch=1 n=e7 v=0
124320 On ch=1 n=c#7 v=81
124438 On ch=1 n=c#7 v=0
124802 On ch=1 n=a5 v=81
124858 On ch=1 n=a5 v=0
124860 On ch=1 n=b5 v=81
124918 On ch=1 n=b5 v=0
124920 On ch=1 n=c#6 v=81
124978 On ch=1 n=c#6 v=0
124980 On ch=1 n=d6 v=81
125038 On ch=1 n=d6 v=0
125040 On ch=1 n=e6 v=81
125098 On ch=1 n=e6 v=0
125100 On ch=1 n=f#6 v=81
125158 On ch=1 n=f#6 v=0
125160 On ch=1 n=g6 v=81
125218 On ch=1 n=g6 v=0
125220 On ch=1 n=b6 v=81
125278 On ch=1 n=b6 v=0
125280 On ch=1 n=c#7 v=105
125398 On ch=1 n=c#7 v=0
125400 On ch=1 n=d7 v=105
125438 On ch=1 n=d7 v=0
125440 On ch=1 n=c#7 v=105
125478 On ch=1 n=c#7 v=0
125480 On ch=1 n=b6 v=105
125518 On ch=1 n=b6 v=0
125520 On ch=1 n=c#7 v=105
125698 On ch=1 n=c#7 v=0
125700 On ch=1 n=d7 v=105
125758 On ch=1 n=d7 v=0
125760 On ch=1 n=c7 v=105
125878 On ch=1 n=c7 v=0
125880 On ch=1 n=d7 v=105
125918 On ch=1 n=d7 v=0
125920 On ch=1 n=c7 v=105
125958 On ch=1 n=c7 v=0
125960 On ch=1 n=b6 v=105
125998 On ch=1 n=b6 v=0
126000 On ch=1 n=c7 v=105
126178 On ch=1 n=c7 v=0
126180 On ch=1 n=d7 v=105
126238 On ch=1 n=d7 v=0
126240 On ch=1 n=b6 v=105
126478 On ch=1 n=b6 v=0
126480 On ch=1 n=a6 v=105
126538 On ch=1 n=a6 v=0
126540 On ch=1 n=g6 v=105
126598 On ch=1 n=g6 v=0
126600 On ch=1 n=f#6 v=105
126658 On ch=1 n=f#6 v=0
126660 On ch=1 n=e6 v=105
126718 On ch=1 n=e6 v=0
126720 On ch=1 n=a6 v=105
127438 On ch=1 n=a6 v=0
127440 On ch=1 n=g6 v=81
127498 On ch=1 n=g6 v=0
127500 On ch=1 n=f#6 v=81
127558 On ch=1 n=f#6 v=0
127560 On ch=1 n=e6 v=63
127618 On ch=1 n=e6 v=0
127620 On ch=1 n=d6 v=63
127678 On ch=1 n=d6 v=0
127680 On ch=1 n=c#6 v=47
127918 On ch=1 n=c#6 v=0
127920 On ch=1 n=e6 v=31
128158 On ch=1 n=e6 v=0
128160 On ch=1 n=d6 v=19
128398 On ch=1 n=d6 v=0
129662 On ch=1 n=b5 v=81
129718 On ch=1 n=b5 v=0
129720 On ch=1 n=d#6 v=81
129778 On ch=1 n=d#6 v=0
129780 On ch=1 n=f#6 v=81
129838 On ch=1 n=f#6 v=0
129840 On ch=1 n=b6 v=81
129898 On ch=1 n=b6 v=0
129900 On ch=1 n=b4 v=81
129958 On ch=1 n=b4 v=0
129960 On ch=1 n=d#5 v=81
130018 On ch=1 n=d#5 v=0
130020 On ch=1 n=f#5 v=81
130078 On ch=1 n=f#5 v=0
130080 On ch=1 n=a5 v=81
130138 On ch=1 n=a5 v=0
130140 On ch=1 n=b5 v=81
130198 On ch=1 n=b5 v=0
130200 On ch=1 n=d#6 v=81
130258 On ch=1 n=d#6 v=0
130260 On ch=1 n=f#6 v=81
130318 On ch=1 n=f#6 v=0
130320 On ch=1 n=a6 v=81
130378 On ch=1 n=a6 v=0
130380 On ch=1 n=d#5 v=81
130438 On ch=1 n=d#5 v=0
130440 On ch=1 n=f#5 v=81
130498 On ch=1 n=f#5 v=0
130500 On ch=1 n=a5 v=81
130558 On ch=1 n=a5 v=0
130560 On ch=1 n=c6 v=81
130618 On ch=1 n=c6 v=0
130620 On ch=1 n=d#6 v=81
130678 On ch=1 n=d#6 v=0
130680 On ch=1 n=f#6 v=81
130738 On ch=1 n=f#6 v=0
130740 On ch=1 n=a6 v=81
130798 On ch=1 n=a6 v=0
130800 On ch=1 n=c7 v=63
130858 On ch=1 n=c7 v=0
130860 On ch=1 n=a6 v=63
130918 On ch=1 n=a6 v=0
130920 On ch=1 n=g6 v=63
130978 On ch=1 n=g6 v=0
130980 On ch=1 n=f#6 v=47
131038 On ch=1 n=f#6 v=0
131040 On ch=1 n=g6 v=47
131098 On ch=1 n=g6 v=0
131100 On ch=1 n=e5 v=31
131158 On ch=1 n=e5 v=0
131160 On ch=1 n=g5 v=31
131218 On ch=1 n=g5 v=0
131220 On ch=1 n=b5 v=31
131278 On ch=1 n=b5 v=0
131280 On ch=1 n=e6 v=31
131338 On ch=1 n=e6 v=0
131340 On ch=1 n=g6 v=31
131398 On ch=1 n=g6 v=0
131400 On ch=1 n=b6 v=31
131458 On ch=1 n=b6 v=0
131460 On ch=1 n=d#7 v=31
131518 On ch=1 n=d#7 v=0
131520 On ch=1 n=e7 v=31
131578 On ch=1 n=e7 v=0
131580 On ch=1 n=b6 v=31
131638 On ch=1 n=b6 v=0
131640 On ch=1 n=c7 v=31
131698 On ch=1 n=c7 v=0
131700 On ch=1 n=a6 v=31
131758 On ch=1 n=a6 v=0
131760 On ch=1 n=b6 v=31
131818 On ch=1 n=b6 v=0
131820 On ch=1 n=g6 v=31
131878 On ch=1 n=g6 v=0
131880 On ch=1 n=a6 v=31
131938 On ch=1 n=a6 v=0
131940 On ch=1 n=f#6 v=31
131998 On ch=1 n=f#6 v=0
132000 On ch=1 n=g6 v=47
132058 On ch=1 n=g6 v=0
132060 On ch=1 n=a6 v=47
132118 On ch=1 n=a6 v=0
132120 On ch=1 n=b6 v=47
132178 On ch=1 n=b6 v=0
132180 On ch=1 n=a6 v=47
132238 On ch=1 n=a6 v=0
132240 On ch=1 n=g6 v=63
132298 On ch=1 n=g6 v=0
132300 On ch=1 n=f#6 v=63
132358 On ch=1 n=f#6 v=0
132360 On ch=1 n=e6 v=63
132418 On ch=1 n=e6 v=0
132420 On ch=1 n=d6 v=63
132478 On ch=1 n=d6 v=0
132480 On ch=1 n=c#6 v=81
132538 On ch=1 n=c#6 v=0
132662 On ch=1 n=e5 v=81
132718 On ch=1 n=e5 v=0
132720 On ch=1 n=g5 v=81
132778 On ch=1 n=g5 v=0
132780 On ch=1 n=a5 v=81
132838 On ch=1 n=a5 v=0
132840 On ch=1 n=c#6 v=81
132898 On ch=1 n=c#6 v=0
132900 On ch=1 n=e6 v=81
132958 On ch=1 n=e6 v=0
132960 On ch=1 n=g6 v=81
133018 On ch=1 n=g6 v=0
133142 On ch=1 n=d5 v=81
133198 On ch=1 n=d5 v=0
133200 On ch=1 n=f#5 v=81
133258 On ch=1 n=f#5 v=0
133260 On ch=1 n=a5 v=81
133318 On ch=1 n=a5 v=0
133320 On ch=1 n=d6 v=81
133378 On ch=1 n=d6 v=0
133380 On ch=1 n=f#6 v=81
133438 On ch=1 n=f#6 v=0
133440 On ch=1 n=a6 v=81
133498 On ch=1 n=a6 v=0
133500 On ch=1 n=d6 v=81
133558 On ch=1 n=d6 v=0
133560 On ch=1 n=f#6 v=81
133618 On ch=1 n=f#6 v=0
133620 On ch=1 n=a6 v=81
133678 On ch=1 n=a6 v=0
133680 On ch=1 n=d7 v=81
133858 On ch=1 n=d7 v=0
133860 On ch=1 n=f#6 v=81
133918 On ch=1 n=f#6 v=0
133920 On ch=1 n=g6 v=63
133958 On ch=1 n=g6 v=0
133960 On ch=1 n=f#6 v=63
133998 On ch=1 n=f#6 v=0
134000 On ch=1 n=g6 v=63
134038 On ch=1 n=g6 v=0
134040 On ch=1 n=f#6 v=63
134078 On ch=1 n=f#6 v=0
134080 On ch=1 n=g6 v=63
134118 On ch=1 n=g6 v=0
134120 On ch=1 n=f#6 v=63
134158 On ch=1 n=f#6 v=0
134160 On ch=1 n=e6 v=47
134278 On ch=1 n=e6 v=0
134280 On ch=1 n=f#6 v=47
134398 On ch=1 n=f#6 v=0
134400 On ch=1 n=e6 v=31
134878 On ch=1 n=e6 v=0
135242 On ch=1 n=a5 v=47
135358 On ch=1 n=a5 v=0
135360 On ch=1 n=d6 v=47
135718 On ch=1 n=d6 v=0
135720 On ch=1 n=d6 v=47
135838 On ch=1 n=d6 v=0
135840 On ch=1 n=d6 v=47
135898 On ch=1 n=d6 v=0
135900 On ch=1 n=f#6 v=47
135958 On ch=1 n=f#6 v=0
135960 On ch=1 n=e6 v=47
136018 On ch=1 n=e6 v=0
136020 On ch=1 n=g6 v=47
136078 On ch=1 n=g6 v=0
136080 On ch=1 n=f#6 v=47
136138 On ch=1 n=f#6 v=0
136140 On ch=1 n=a6 v=47
136198 On ch=1 n=a6 v=0
136200 On ch=1 n=g6 v=47
136258 On ch=1 n=g6 v=0
136260 On ch=1 n=b6 v=47
136318 On ch=1 n=b6 v=0
136320 On ch=1 n=a6 v=63
136378 On ch=1 n=a6 v=0
136442 On ch=1 n=b6 v=63
136498 On ch=1 n=b6 v=0
136562 On ch=1 n=c#7 v=63
136618 On ch=1 n=c#7 v=0
136682 On ch=1 n=d7 v=63
136738 On ch=1 n=d7 v=0
136802 On ch=1 n=e7 v=81
136858 On ch=1 n=e7 v=0
136922 On ch=1 n=e6 v=81
137098 On ch=1 n=e6 v=0
137100 On ch=1 n=g6 v=47
137158 On ch=1 n=g6 v=0
137160 On ch=1 n=e6 v=47
137218 On ch=1 n=e6 v=0
137220 On ch=1 n=c#6 v=47
137278 On ch=1 n=c#6 v=0
137280 On ch=1 n=d6 v=47
137518 On ch=1 n=d6 v=0
137762 On ch=1 n=d5 v=47
137798 On ch=1 n=d5 v=0
137800 On ch=1 n=e5 v=47
137838 On ch=1 n=e5 v=0
137840 On ch=1 n=f#5 v=47
137878 On ch=1 n=f#5 v=0
137880 On ch=1 n=g5 v=47
137918 On ch=1 n=g5 v=0
137920 On ch=1 n=a5 v=47
137958 On ch=1 n=a5 v=0
137960 On ch=1 n=b5 v=47
137998 On ch=1 n=b5 v=0
138000 On ch=1 n=c#6 v=47
138038 On ch=1 n=c#6 v=0
138040 On ch=1 n=d6 v=47
138078 On ch=1 n=d6 v=0
138080 On ch=1 n=e6 v=63
138118 On ch=1 n=e6 v=0
138120 On ch=1 n=f#6 v=63
138158 On ch=1 n=f#6 v=0
138160 On ch=1 n=g6 v=63
138198 On ch=1 n=g6 v=0
138200 On ch=1 n=a6 v=63
138238 On ch=1 n=a6 v=0
138240 On ch=1 n=g6 v=81
138358 On ch=1 n=g6 v=0
138360 On ch=1 n=g6 v=81
138418 On ch=1 n=g6 v=0
138420 On ch=1 n=b6 v=81
138478 On ch=1 n=b6 v=0
138480 On ch=1 n=d7 v=63
138538 On ch=1 n=d7 v=0
138540 On ch=1 n=b6 v=63
138598 On ch=1 n=b6 v=0
138600 On ch=1 n=g6 v=63
138658 On ch=1 n=g6 v=0
138660 On ch=1 n=f#6 v=63
138718 On ch=1 n=f#6 v=0
138720 On ch=1 n=e6 v=47
138838 On ch=1 n=e6 v=0
138840 On ch=1 n=e6 v=47
138898 On ch=1 n=e6 v=0
138900 On ch=1 n=g6 v=47
138958 On ch=1 n=g6 v=0
138960 On ch=1 n=b6 v=63
139018 On ch=1 n=b6 v=0
139020 On ch=1 n=g6 v=63
139078 On ch=1 n=g6 v=0
139080 On ch=1 n=e6 v=63
139138 On ch=1 n=e6 v=0
139140 On ch=1 n=d6 v=47
139198 On ch=1 n=d6 v=0
139200 On ch=1 n=c6 v=47
139258 On ch=1 n=c6 v=0
139442 On ch=1 n=d6 v=63
139498 On ch=1 n=d6 v=0
139682 On ch=1 n=f#6 v=63
140638 On ch=1 n=f#6 v=0
140640 On ch=1 n=e6 v=47
140878 On ch=1 n=e6 v=0
141002 On ch=1 n=d6 v=47
141038 On ch=1 n=d6 v=0
141040 On ch=1 n=f#6 v=47
141078 On ch=1 n=f#6 v=0
141080 On ch=1 n=a6 v=47
141118 On ch=1 n=a6 v=0
141120 On ch=1 n=d7 v=81
141238 On ch=1 n=d7 v=0
141240 On ch=1 n=e7 v=81
141278 On ch=1 n=e7 v=0
141280 On ch=1 n=d7 v=81
141318 On ch=1 n=d7 v=0
141320 On ch=1 n=c#7 v=81
141358 On ch=1 n=c#7 v=0
141360 On ch=1 n=d7 v=81
141538 On ch=1 n=d7 v=0
141540 On ch=1 n=e7 v=81
141598 On ch=1 n=e7 v=0
141600 On ch=1 n=c#7 v=81
141718 On ch=1 n=c#7 v=0
142082 On ch=1 n=a5 v=63
142138 On ch=1 n=a5 v=0
142140 On ch=1 n=g#5 v=63
142198 On ch=1 n=g#5 v=0
142200 On ch=1 n=b5 v=63
142258 On ch=1 n=b5 v=0
142260 On ch=1 n=a5 v=63
142318 On ch=1 n=a5 v=0
142320 On ch=1 n=c#6 v=63
142378 On ch=1 n=c#6 v=0
142380 On ch=1 n=b5 v=63
142438 On ch=1 n=b5 v=0
142440 On ch=1 n=d6 v=63
142498 On ch=1 n=d6 v=0
142500 On ch=1 n=c#6 v=63
142558 On ch=1 n=c#6 v=0
142560 On ch=1 n=e6 v=63
142618 On ch=1 n=e6 v=0
142620 On ch=1 n=d6 v=63
142678 On ch=1 n=d6 v=0
142680 On ch=1 n=f#6 v=63
142738 On ch=1 n=f#6 v=0
142740 On ch=1 n=e6 v=63
142798 On ch=1 n=e6 v=0
142800 On ch=1 n=g6 v=81
142858 On ch=1 n=g6 v=0
142860 On ch=1 n=f#6 v=81
142918 On ch=1 n=f#6 v=0
142920 On ch=1 n=a6 v=81
142978 On ch=1 n=a6 v=0
142980 On ch=1 n=g6 v=81
143038 On ch=1 n=g6 v=0
143040 On ch=1 n=b6 v=81
143098 On ch=1 n=b6 v=0
143100 On ch=1 n=a6 v=81
143158 On ch=1 n=a6 v=0
143160 On ch=1 n=c7 v=81
143218 On ch=1 n=c7 v=0
143220 On ch=1 n=b6 v=81
143278 On ch=1 n=b6 v=0
143280 On ch=1 n=d7 v=81
143338 On ch=1 n=d7 v=0
143340 On ch=1 n=c7 v=81
143398 On ch=1 n=c7 v=0
143400 On ch=1 n=b6 v=81
143458 On ch=1 n=b6 v=0
143460 On ch=1 n=a6 v=81
143518 On ch=1 n=a6 v=0
143520 On ch=1 n=a6 v=81
143578 On ch=1 n=a6 v=0
143580 On ch=1 n=g6 v=81
143638 On ch=1 n=g6 v=0
143640 On ch=1 n=b6 v=81
143698 On ch=1 n=b6 v=0
143700 On ch=1 n=a6 v=63
143758 On ch=1 n=a6 v=0
143760 On ch=1 n=c#7 v=63
143818 On ch=1 n=c#7 v=0
143820 On ch=1 n=b6 v=63
143878 On ch=1 n=b6 v=0
143880 On ch=1 n=a6 v=63
143938 On ch=1 n=a6 v=0
143940 On ch=1 n=g6 v=63
143998 On ch=1 n=g6 v=0
144000 On ch=1 n=f#6 v=47
144118 On ch=1 n=f#6 v=0
144242 On ch=1 n=a6 v=31
144358 On ch=1 n=a6 v=0
144722 On ch=1 n=g6 v=31
144778 On ch=1 n=g6 v=0
144780 On ch=1 n=f#6 v=31
144838 On ch=1 n=f#6 v=0
144840 On ch=1 n=e6 v=31
144898 On ch=1 n=e6 v=0
144900 On ch=1 n=d6 v=31
144958 On ch=1 n=d6 v=0
144960 On ch=1 n=c#6 v=31
145078 On ch=1 n=c#6 v=0
145202 On ch=1 n=e6 v=31
145318 On ch=1 n=e6 v=0
145922 On ch=1 n=d6 v=31
146398 On ch=1 n=d6 v=0
146762 On ch=1 n=d6 v=31
146798 On ch=1 n=d6 v=0
146800 On ch=1 n=f#6 v=31
146838 On ch=1 n=f#6 v=0
146840 On ch=1 n=a6 v=31
146878 On ch=1 n=a6 v=0
146880 On ch=1 n=d7 v=81
146998 On ch=1 n=d7 v=0
147000 On ch=1 n=e7 v=81
147038 On ch=1 n=e7 v=0
147040 On ch=1 n=d7 v=81
147078 On ch=1 n=d7 v=0
147080 On ch=1 n=c#7 v=81
147118 On ch=1 n=c#7 v=0
147120 On ch=1 n=d7 v=81
147298 On ch=1 n=d7 v=0
147300 On ch=1 n=e7 v=81
147358 On ch=1 n=e7 v=0
147360 On ch=1 n=c#7 v=81
147478 On ch=1 n=c#7 v=0
148202 On ch=1 n=a5 v=81
148238 On ch=1 n=a5 v=0
148240 On ch=1 n=c#6 v=81
148278 On ch=1 n=c#6 v=0
148280 On ch=1 n=e6 v=81
148318 On ch=1 n=e6 v=0
148320 On ch=1 n=g6 v=47
148558 On ch=1 n=g6 v=0
148560 On ch=1 n=e6 v=47
148618 On ch=1 n=e6 v=0
148620 On ch=1 n=c#6 v=47
148678 On ch=1 n=c#6 v=0
148802 On ch=1 n=a6 v=63
149038 On ch=1 n=a6 v=0
149040 On ch=1 n=f#6 v=63
149098 On ch=1 n=f#6 v=0
149100 On ch=1 n=d#6 v=63
149158 On ch=1 n=d#6 v=0
149282 On ch=1 n=b6 v=81
149518 On ch=1 n=b6 v=0
149520 On ch=1 n=g6 v=81
149578 On ch=1 n=g6 v=0
149580 On ch=1 n=e6 v=81
149638 On ch=1 n=e6 v=0
149762 On ch=1 n=a6 v=81
150318 On ch=1 n=a6 v=0
150320 On ch=1 n=g#6 v=63
150398 On ch=1 n=g#6 v=0
150400 On ch=1 n=g6 v=63
150478 On ch=1 n=g6 v=0
150480 On ch=1 n=f#6 v=63
150558 On ch=1 n=f#6 v=0
150560 On ch=1 n=f6 v=63
150638 On ch=1 n=f6 v=0
150640 On ch=1 n=e6 v=63
150718 On ch=1 n=e6 v=0
150720 On ch=1 n=d6 v=47
150838 On ch=1 n=d6 v=0
150962 On ch=1 n=c#6 v=47
151078 On ch=1 n=c#6 v=0
151202 On ch=1 n=e6 v=31
151678 On ch=1 n=e6 v=0
151680 On ch=1 n=d6 v=19
151918 On ch=1 n=d6 v=0
152642 PrCh ch=1 p=0
153844 On ch=1 n=f#6 v=31
154080 On ch=1 n=f#6 v=0
154082 On ch=1 n=g6 v=31
154320 On ch=1 n=g6 v=0
154322 On ch=1 n=e6 v=31
154560 On ch=1 n=e6 v=0
154562 On ch=1 n=f#6 v=31
154800 On ch=1 n=f#6 v=0
154802 On ch=1 n=d#6 v=31
155040 On ch=1 n=d#6 v=0
155042 On ch=1 n=e6 v=31
155280 On ch=1 n=e6 v=0
155282 On ch=1 n=c#6 v=31
155520 On ch=1 n=c#6 v=0
155522 On ch=1 n=d6 v=31
155640 On ch=1 n=d6 v=0
155764 On ch=1 n=b5 v=31
155880 On ch=1 n=b5 v=0
156004 On ch=1 n=a5 v=31
156120 On ch=1 n=a5 v=0
156122 On ch=1 n=g#5 v=31
156240 On ch=1 n=g#5 v=0
156242 On ch=1 n=f#5 v=31
156360 On ch=1 n=f#5 v=0
156362 On ch=1 n=e5 v=31
156480 On ch=1 n=e5 v=0
156482 On ch=1 n=d#5 v=31
156600 On ch=1 n=d#5 v=0
156602 On ch=1 n=e5 v=31
156720 On ch=1 n=e5 v=0
156722 On ch=1 n=f#5 v=31
156840 On ch=1 n=f#5 v=0
156842 On ch=1 n=g#5 v=31
156960 On ch=1 n=g#5 v=0
156962 On ch=1 n=a5 v=31
157440 On ch=1 n=a5 v=0
157684 On ch=1 n=c#6 v=31
157800 On ch=1 n=c#6 v=0
157802 On ch=1 n=b5 v=31
157920 On ch=1 n=b5 v=0
157922 On ch=1 n=a5 v=31
158040 On ch=1 n=a5 v=0
158042 On ch=1 n=g#5 v=31
158160 On ch=1 n=g#5 v=0
158162 On ch=1 n=f#5 v=31
158280 On ch=1 n=f#5 v=0
158282 On ch=1 n=e5 v=31
158400 On ch=1 n=e5 v=0
158402 On ch=1 n=d#5 v=31
158520 On ch=1 n=d#5 v=0
158522 On ch=1 n=e5 v=31
158640 On ch=1 n=e5 v=0
158642 On ch=1 n=f#5 v=31
158760 On ch=1 n=f#5 v=0
158762 On ch=1 n=g#5 v=31
158880 On ch=1 n=g#5 v=0
158882 On ch=1 n=a5 v=47
159000 On ch=1 n=a5 v=0
159002 On ch=1 n=b5 v=47
159120 On ch=1 n=b5 v=0
159122 On ch=1 n=c#6 v=47
159240 On ch=1 n=c#6 v=0
159242 On ch=1 n=d6 v=47
159360 On ch=1 n=d6 v=0
159362 On ch=1 n=e6 v=63
159480 On ch=1 n=e6 v=0
159482 On ch=1 n=f#6 v=63
159600 On ch=1 n=f#6 v=0
159602 On ch=1 n=g#6 v=63
159720 On ch=1 n=g#6 v=0
159722 On ch=1 n=a6 v=63
159840 On ch=1 n=a6 v=0
159842 On ch=1 n=b5 v=63
159960 On ch=1 n=b5 v=0
160084 On ch=1 n=f#6 v=47
160320 On ch=1 n=f#6 v=0
160322 On ch=1 n=e6 v=47
160560 On ch=1 n=e6 v=0
160562 On ch=1 n=g#5 v=31
160800 On ch=1 n=g#5 v=0
160802 On ch=1 n=a5 v=31
161040 On ch=1 n=a5 v=0
161524 On ch=1 n=f#6 v=31
161760 On ch=1 n=f#6 v=0
161762 On ch=1 n=g6 v=31
162000 On ch=1 n=g6 v=0
162002 On ch=1 n=e6 v=31
162240 On ch=1 n=e6 v=0
162242 On ch=1 n=f#6 v=31
162480 On ch=1 n=f#6 v=0
162482 On ch=1 n=d#6 v=31
162720 On ch=1 n=d#6 v=0
162722 On ch=1 n=e6 v=31
162960 On ch=1 n=e6 v=0
162962 On ch=1 n=c#6 v=31
163200 On ch=1 n=c#6 v=0
163202 On ch=1 n=d6 v=31
163320 On ch=1 n=d6 v=0
163444 On ch=1 n=b5 v=31
163560 On ch=1 n=b5 v=0
163684 On ch=1 n=a5 v=31
163800 On ch=1 n=a5 v=0
163802 On ch=1 n=g#5 v=31
163920 On ch=1 n=g#5 v=0
163922 On ch=1 n=f#5 v=31
164040 On ch=1 n=f#5 v=0
164042 On ch=1 n=e5 v=31
164160 On ch=1 n=e5 v=0
164162 On ch=1 n=d#5 v=31
164280 On ch=1 n=d#5 v=0
164282 On ch=1 n=e5 v=31
164400 On ch=1 n=e5 v=0
164402 On ch=1 n=f#5 v=31
164520 On ch=1 n=f#5 v=0
164522 On ch=1 n=g#5 v=31
164640 On ch=1 n=g#5 v=0
164642 On ch=1 n=a5 v=31
165120 On ch=1 n=a5 v=0
165364 On ch=1 n=c#6 v=31
165480 On ch=1 n=c#6 v=0
165482 On ch=1 n=b5 v=31
165600 On ch=1 n=b5 v=0
165602 On ch=1 n=a5 v=31
165720 On ch=1 n=a5 v=0
165722 On ch=1 n=g#5 v=31
165840 On ch=1 n=g#5 v=0
165842 On ch=1 n=f#5 v=31
165960 On ch=1 n=f#5 v=0
165962 On ch=1 n=e5 v=31
166080 On ch=1 n=e5 v=0
166082 On ch=1 n=d#5 v=31
166200 On ch=1 n=d#5 v=0
166202 On ch=1 n=e5 v=31
166320 On ch=1 n=e5 v=0
166322 On ch=1 n=f#5 v=31
166440 On ch=1 n=f#5 v=0
166442 On ch=1 n=g#5 v=31
166560 On ch=1 n=g#5 v=0
166562 On ch=1 n=a5 v=47
166680 On ch=1 n=a5 v=0
166682 On ch=1 n=b5 v=47
166800 On ch=1 n=b5 v=0
166802 On ch=1 n=c#6 v=47
166920 On ch=1 n=c#6 v=0
166922 On ch=1 n=d6 v=47
167040 On ch=1 n=d6 v=0
167042 On ch=1 n=e6 v=63
167160 On ch=1 n=e6 v=0
167162 On ch=1 n=f#6 v=63
167280 On ch=1 n=f#6 v=0
167282 On ch=1 n=g#6 v=63
167400 On ch=1 n=g#6 v=0
167402 On ch=1 n=a6 v=63
167520 On ch=1 n=a6 v=0
167522 On ch=1 n=b5 v=63
167640 On ch=1 n=b5 v=0
167764 On ch=1 n=f#6 v=47
168000 On ch=1 n=f#6 v=0
168002 On ch=1 n=e6 v=47
168240 On ch=1 n=e6 v=0
168242 On ch=1 n=g#5 v=31
168480 On ch=1 n=g#5 v=0
168482 On ch=1 n=a5 v=31
168720 On ch=1 n=a5 v=0
169204 On ch=1 n=a6 v=31
169440 On ch=1 n=a6 v=0
169442 On ch=1 n=b6 v=31
169680 On ch=1 n=b6 v=0
169682 On ch=1 n=g#6 v=31
169920 On ch=1 n=g#6 v=0
169922 On ch=1 n=a6 v=31
170160 On ch=1 n=a6 v=0
170162 On ch=1 n=f#6 v=31
170400 On ch=1 n=f#6 v=0
170402 On ch=1 n=g6 v=31
170640 On ch=1 n=g6 v=0
170642 On ch=1 n=e6 v=31
170880 On ch=1 n=e6 v=0
170882 On ch=1 n=f#6 v=31
171120 On ch=1 n=f#6 v=0
171122 On ch=1 n=e6 v=31
171360 On ch=1 n=e6 v=0
171362 On ch=1 n=d6 v=31
171600 On ch=1 n=d6 v=0
171602 On ch=1 n=g6 v=31
171840 On ch=1 n=g6 v=0
171842 On ch=1 n=c#6 v=31
172080 On ch=1 n=c#6 v=0
172082 On ch=1 n=f#6 v=31
172320 On ch=1 n=f#6 v=0
172322 On ch=1 n=b5 v=31
172560 On ch=1 n=b5 v=0
172562 On ch=1 n=e6 v=31
172800 On ch=1 n=e6 v=0
172802 On ch=1 n=a5 v=31
172920 On ch=1 n=a5 v=0
173044 On ch=1 n=d6 v=31
173160 On ch=1 n=d6 v=0
173284 On ch=1 n=d6 v=31
173760 On ch=1 n=d6 v=0
174004 On ch=1 n=d6 v=31
174120 On ch=1 n=d6 v=0
174244 On ch=1 n=d6 v=31
174360 On ch=1 n=d6 v=0
174362 On ch=1 n=c#6 v=31
174480 On ch=1 n=c#6 v=0
174482 On ch=1 n=b5 v=31
174600 On ch=1 n=b5 v=0
174602 On ch=1 n=a5 v=31
174720 On ch=1 n=a5 v=0
174722 On ch=1 n=g#5 v=31
174840 On ch=1 n=g#5 v=0
174842 On ch=1 n=a5 v=31
174960 On ch=1 n=a5 v=0
174962 On ch=1 n=b5 v=31
175080 On ch=1 n=b5 v=0
175082 On ch=1 n=c#6 v=31
175200 On ch=1 n=c#6 v=0
175202 On ch=1 n=d6 v=47
175680 On ch=1 n=d6 v=0
175924 On ch=1 n=d6 v=47
176040 On ch=1 n=d6 v=0
176164 On ch=1 n=d6 v=47
176280 On ch=1 n=d6 v=0
176282 On ch=1 n=c#6 v=47
176400 On ch=1 n=c#6 v=0
176402 On ch=1 n=b5 v=47
176520 On ch=1 n=b5 v=0
176522 On ch=1 n=a5 v=47
176640 On ch=1 n=a5 v=0
176642 On ch=1 n=g#5 v=47
176760 On ch=1 n=g#5 v=0
176762 On ch=1 n=a5 v=47
176880 On ch=1 n=a5 v=0
176882 On ch=1 n=b5 v=47
177000 On ch=1 n=b5 v=0
177002 On ch=1 n=c#6 v=47
177120 On ch=1 n=c#6 v=0
177122 On ch=1 n=d6 v=31
177600 On ch=1 n=d6 v=0
177844 On ch=1 n=a6 v=31
177960 On ch=1 n=a6 v=0
178084 On ch=1 n=a6 v=31
178200 On ch=1 n=a6 v=0
178202 On ch=1 n=b5 v=31
178320 On ch=1 n=b5 v=0
178322 On ch=1 n=c#6 v=31
178440 On ch=1 n=c#6 v=0
178442 On ch=1 n=b5 v=31
178560 On ch=1 n=b5 v=0
178562 On ch=1 n=g6 v=47
178680 On ch=1 n=g6 v=0
178682 On ch=1 n=f#6 v=47
178800 On ch=1 n=f#6 v=0
178802 On ch=1 n=e6 v=47
178920 On ch=1 n=e6 v=0
178922 On ch=1 n=d6 v=47
179040 On ch=1 n=d6 v=0
179042 On ch=1 n=c#6 v=47
179520 On ch=1 n=c#6 v=0
179522 On ch=1 n=a6 v=47
179640 On ch=1 n=a6 v=0
179642 On ch=1 n=g6 v=47
179760 On ch=1 n=g6 v=0
179762 On ch=1 n=f#6 v=47
179880 On ch=1 n=f#6 v=0
179882 On ch=1 n=e6 v=47
180000 On ch=1 n=e6 v=0
180002 On ch=1 n=d6 v=47
180480 On ch=1 n=d6 v=0
180482 On ch=1 n=b6 v=47
180600 On ch=1 n=b6 v=0
180602 On ch=1 n=a6 v=47
180720 On ch=1 n=a6 v=0
180722 On ch=1 n=g6 v=47
180840 On ch=1 n=g6 v=0
180842 On ch=1 n=f#6 v=47
180960 On ch=1 n=f#6 v=0
180962 On ch=1 n=e6 v=47
181080 On ch=1 n=e6 v=0
181204 On ch=1 n=f#6 v=47
181320 On ch=1 n=f#6 v=0
181444 On ch=1 n=g6 v=47
181560 On ch=1 n=g6 v=0
181684 On ch=1 n=f#6 v=47
181800 On ch=1 n=f#6 v=0
181924 On ch=1 n=e6 v=47
182040 On ch=1 n=e6 v=0
182164 On ch=1 n=b6 v=81
182220 On ch=1 n=b6 v=0
182222 On ch=1 n=a6 v=81
182280 On ch=1 n=a6 v=0
182282 On ch=1 n=g#6 v=81
182340 On ch=1 n=g#6 v=0
182342 On ch=1 n=a6 v=81
182400 On ch=1 n=a6 v=0
182402 On ch=1 n=b6 v=81
182640 On ch=1 n=b6 v=0
182642 On ch=1 n=g#6 v=81
182880 On ch=1 n=g#6 v=0
182882 On ch=1 n=a6 v=81
183000 On ch=1 n=a6 v=0
183124 On ch=1 n=d7 v=81
183180 On ch=1 n=d7 v=0
183182 On ch=1 n=c#7 v=81
183240 On ch=1 n=c#7 v=0
183242 On ch=1 n=b6 v=81
183300 On ch=1 n=b6 v=0
183302 On ch=1 n=c#7 v=81
183360 On ch=1 n=c#7 v=0
183362 On ch=1 n=d7 v=81
183600 On ch=1 n=d7 v=0
183602 On ch=1 n=b6 v=81
183840 On ch=1 n=b6 v=0
183842 On ch=1 n=a6 v=81
183960 On ch=1 n=a6 v=0
184324 On ch=1 n=a6 v=81
184440 On ch=1 n=a6 v=0
184804 On ch=1 n=a6 v=81
185280 On ch=1 n=a6 v=0
186484 On ch=1 n=b5 v=47
186720 On ch=1 n=b5 v=0
186722 On ch=1 n=c6 v=47
186960 On ch=1 n=c6 v=0
186962 On ch=1 n=a#5 v=47
187200 On ch=1 n=a#5 v=0
187202 On ch=1 n=b5 v=47
187440 On ch=1 n=b5 v=0
187442 On ch=1 n=a5 v=47
187560 On ch=1 n=a5 v=0
187684 On ch=1 n=a5 v=47
187800 On ch=1 n=a5 v=0
187802 On ch=1 n=g5 v=47
187920 On ch=1 n=g5 v=0
187922 On ch=1 n=f#5 v=47
188040 On ch=1 n=f#5 v=0
188042 On ch=1 n=e5 v=47
188160 On ch=1 n=e5 v=0
188162 On ch=1 n=d#5 v=63
188280 On ch=1 n=d#5 v=0
188282 On ch=1 n=e5 v=63
188400 On ch=1 n=e5 v=0
188402 On ch=1 n=f#5 v=63
188520 On ch=1 n=f#5 v=0
188522 On ch=1 n=g5 v=63
188640 On ch=1 n=g5 v=0
188642 On ch=1 n=a5 v=81
189120 On ch=1 n=a5 v=0
189364 On ch=1 n=g5 v=63
189480 On ch=1 n=g5 v=0
189604 On ch=1 n=g5 v=63
189720 On ch=1 n=g5 v=0
189722 On ch=1 n=f#5 v=63
189840 On ch=1 n=f#5 v=0
189842 On ch=1 n=e5 v=63
189960 On ch=1 n=e5 v=0
189962 On ch=1 n=d5 v=63
190080 On ch=1 n=d5 v=0
190082 On ch=1 n=c#5 v=63
190200 On ch=1 n=c#5 v=0
190202 On ch=1 n=d5 v=63
190320 On ch=1 n=d5 v=0
190322 On ch=1 n=e5 v=63
190440 On ch=1 n=e5 v=0
190442 On ch=1 n=f#5 v=63
190560 On ch=1 n=f#5 v=0
190562 On ch=1 n=g5 v=63
191040 On ch=1 n=g5 v=0
191284 On ch=1 n=g6 v=31
191400 On ch=1 n=g6 v=0
191524 On ch=1 n=g6 v=31
191640 On ch=1 n=g6 v=0
191642 On ch=1 n=f#6 v=31
191760 On ch=1 n=f#6 v=0
191762 On ch=1 n=e6 v=31
191880 On ch=1 n=e6 v=0
191882 On ch=1 n=d6 v=31
192000 On ch=1 n=d6 v=0
192002 On ch=1 n=c#6 v=31
192120 On ch=1 n=c#6 v=0
192122 On ch=1 n=d6 v=31
192240 On ch=1 n=d6 v=0
192242 On ch=1 n=e6 v=31
192360 On ch=1 n=e6 v=0
192362 On ch=1 n=f#6 v=31
192480 On ch=1 n=f#6 v=0
192482 On ch=1 n=g6 v=31
192600 On ch=1 n=g6 v=0
192602 On ch=1 n=d6 v=31
192720 On ch=1 n=d6 v=0
192722 On ch=1 n=a6 v=31
192840 On ch=1 n=a6 v=0
192842 On ch=1 n=d6 v=31
192960 On ch=1 n=d6 v=0
192962 On ch=1 n=b6 v=31
193080 On ch=1 n=b6 v=0
193082 On ch=1 n=d6 v=31
193200 On ch=1 n=d6 v=0
193202 On ch=1 n=a6 v=31
193320 On ch=1 n=a6 v=0
193322 On ch=1 n=d6 v=31
193440 On ch=1 n=d6 v=0
193442 On ch=1 n=a6 v=31
193560 On ch=1 n=a6 v=0
193562 On ch=1 n=g#6 v=31
193680 On ch=1 n=g#6 v=0
193682 On ch=1 n=f#6 v=31
193800 On ch=1 n=f#6 v=0
193802 On ch=1 n=e6 v=31
193920 On ch=1 n=e6 v=0
193922 On ch=1 n=d#6 v=47
194040 On ch=1 n=d#6 v=0
194042 On ch=1 n=e6 v=47
194160 On ch=1 n=e6 v=0
194162 On ch=1 n=f#6 v=47
194280 On ch=1 n=f#6 v=0
194282 On ch=1 n=g6 v=47
194400 On ch=1 n=g6 v=0
194402 On ch=1 n=a6 v=47
194520 On ch=1 n=a6 v=0
194522 On ch=1 n=e6 v=47
194640 On ch=1 n=e6 v=0
194642 On ch=1 n=b6 v=47
194760 On ch=1 n=b6 v=0
194762 On ch=1 n=e6 v=47
194880 On ch=1 n=e6 v=0
194882 On ch=1 n=c7 v=47
195000 On ch=1 n=c7 v=0
195002 On ch=1 n=e6 v=47
195120 On ch=1 n=e6 v=0
195122 On ch=1 n=b6 v=47
195240 On ch=1 n=b6 v=0
195242 On ch=1 n=e6 v=47
195360 On ch=1 n=e6 v=0
195362 On ch=1 n=b6 v=47
195480 On ch=1 n=b6 v=0
195482 On ch=1 n=a#6 v=47
195600 On ch=1 n=a#6 v=0
195602 On ch=1 n=g#6 v=47
195720 On ch=1 n=g#6 v=0
195722 On ch=1 n=f#6 v=47
195840 On ch=1 n=f#6 v=0
195842 On ch=1 n=f6 v=63
195960 On ch=1 n=f6 v=0
195962 On ch=1 n=g6 v=63
196080 On ch=1 n=g6 v=0
196082 On ch=1 n=g#6 v=63
196200 On ch=1 n=g#6 v=0
196202 On ch=1 n=a6 v=63
196320 On ch=1 n=a6 v=0
196322 On ch=1 n=b6 v=63
196800 On ch=1 n=b6 v=0
197044 On ch=1 n=a6 v=63
197160 On ch=1 n=a6 v=0
197284 On ch=1 n=a6 v=63
197400 On ch=1 n=a6 v=0
197402 On ch=1 n=g#6 v=63
197520 On ch=1 n=g#6 v=0
197522 On ch=1 n=f#6 v=63
197640 On ch=1 n=f#6 v=0
197642 On ch=1 n=e6 v=63
197760 On ch=1 n=e6 v=0
197762 On ch=1 n=d#6 v=63
197880 On ch=1 n=d#6 v=0
197882 On ch=1 n=e6 v=63
198000 On ch=1 n=e6 v=0
198002 On ch=1 n=f#6 v=63
198120 On ch=1 n=f#6 v=0
198122 On ch=1 n=g#6 v=63
198240 On ch=1 n=g#6 v=0
198242 On ch=1 n=a6 v=63
198720 On ch=1 n=a6 v=0
198964 On ch=1 n=g6 v=63
199080 On ch=1 n=g6 v=0
199204 On ch=1 n=g6 v=81
199320 On ch=1 n=g6 v=0
199322 On ch=1 n=f#6 v=81
199440 On ch=1 n=f#6 v=0
199442 On ch=1 n=e6 v=81
199560 On ch=1 n=e6 v=0
199562 On ch=1 n=d6 v=81
199680 On ch=1 n=d6 v=0
199682 On ch=1 n=f#6 v=81
199800 On ch=1 n=f#6 v=0
199802 On ch=1 n=e6 v=81
199920 On ch=1 n=e6 v=0
199922 On ch=1 n=d6 v=81
200040 On ch=1 n=d6 v=0
200042 On ch=1 n=c#6 v=81
200160 On ch=1 n=c#6 v=0
200162 On ch=1 n=e6 v=81
200280 On ch=1 n=e6 v=0
200282 On ch=1 n=d6 v=81
200400 On ch=1 n=d6 v=0
200402 On ch=1 n=c#6 v=81
200520 On ch=1 n=c#6 v=0
200522 On ch=1 n=b5 v=81
200640 On ch=1 n=b5 v=0
200642 On ch=1 n=d6 v=81
200760 On ch=1 n=d6 v=0
200762 On ch=1 n=c#6 v=81
200880 On ch=1 n=c#6 v=0
200882 On ch=1 n=b5 v=63
201000 On ch=1 n=b5 v=0
201002 On ch=1 n=a5 v=63
201120 On ch=1 n=a5 v=0
201122 On ch=1 n=b5 v=47
201240 On ch=1 n=b5 v=0
201364 On ch=1 n=e6 v=47
201480 On ch=1 n=e6 v=0
201604 On ch=1 n=a5 v=47
201720 On ch=1 n=a5 v=0
201844 On ch=1 n=d6 v=47
201960 On ch=1 n=d6 v=0
202084 On ch=1 n=g5 v=31
202200 On ch=1 n=g5 v=0
202202 On ch=1 n=b5 v=31
202320 On ch=1 n=b5 v=0
202322 On ch=1 n=a5 v=31
202440 On ch=1 n=a5 v=0
202442 On ch=1 n=g5 v=31
202560 On ch=1 n=g5 v=0
202562 On ch=1 n=f#5 v=31
202680 On ch=1 n=f#5 v=0
202682 On ch=1 n=a5 v=31
202800 On ch=1 n=a5 v=0
202802 On ch=1 n=g5 v=31
202920 On ch=1 n=g5 v=0
202922 On ch=1 n=f#5 v=31
203040 On ch=1 n=f#5 v=0
203042 On ch=1 n=e5 v=31
203160 On ch=1 n=e5 v=0
203284 On ch=1 n=b5 v=47
203520 On ch=1 n=b5 v=0
203522 On ch=1 n=a5 v=47
203760 On ch=1 n=a5 v=0
203762 On ch=1 n=c#5 v=63
203880 On ch=1 n=c#5 v=0
204004 On ch=1 n=d5 v=63
204480 On ch=1 n=d5 v=0
204724 On ch=1 n=f#6 v=31
204960 On ch=1 n=f#6 v=0
204962 On ch=1 n=g6 v=31
205200 On ch=1 n=g6 v=0
205202 On ch=1 n=e6 v=31
205440 On ch=1 n=e6 v=0
205442 On ch=1 n=f#6 v=31
205680 On ch=1 n=f#6 v=0
205682 On ch=1 n=d#6 v=31
205920 On ch=1 n=d#6 v=0
205922 On ch=1 n=e6 v=31
206160 On ch=1 n=e6 v=0
206162 On ch=1 n=c#6 v=31
206400 On ch=1 n=c#6 v=0
206402 On ch=1 n=d6 v=31
206640 On ch=1 n=d6 v=0
206642 On ch=1 n=a6 v=31
206880 On ch=1 n=a6 v=0
206882 On ch=1 n=g#6 v=19
207120 On ch=1 n=g#6 v=0
207122 On ch=1 n=b6 v=19
207360 On ch=1 n=b6 v=0
207362 On ch=1 n=a6 v=19
207600 On ch=1 n=a6 v=0
207602 On ch=1 n=c#7 v=19
207840 On ch=1 n=c#7 v=0
207842 On ch=1 n=b6 v=19
208080 On ch=1 n=b6 v=0
208082 On ch=1 n=d7 v=19
208320 On ch=1 n=d7 v=0
208322 On ch=1 n=c#7 v=19
208560 On ch=1 n=c#7 v=0
208562 On ch=1 n=e7 v=19
209040 On ch=1 n=e7 v=0
209042 On ch=1 n=d7 v=31
209520 On ch=1 n=d7 v=0
209522 On ch=1 n=c#7 v=47
210000 On ch=1 n=c#7 v=0
210002 On ch=1 n=b6 v=63
210480 On ch=1 n=b6 v=0
210482 On ch=1 n=a6 v=81
210720 On ch=1 n=a6 v=0
210722 On ch=1 n=b6 v=81
210840 On ch=1 n=b6 v=0
210842 On ch=1 n=c#7 v=81
210960 On ch=1 n=c#7 v=0
210962 On ch=1 n=d7 v=81
211080 On ch=1 n=d7 v=0
211082 On ch=1 n=e7 v=81
211200 On ch=1 n=e7 v=0
211202 On ch=1 n=a6 v=81
211320 On ch=1 n=a6 v=0
211322 On ch=1 n=c7 v=81
211440 On ch=1 n=c7 v=0
211442 On ch=1 n=b6 v=81
211560 On ch=1 n=b6 v=0
211562 On ch=1 n=a6 v=81
211680 On ch=1 n=a6 v=0
211682 On ch=1 n=g6 v=81
211800 On ch=1 n=g6 v=0
211802 On ch=1 n=b6 v=81
211920 On ch=1 n=b6 v=0
211922 On ch=1 n=a6 v=63
212040 On ch=1 n=a6 v=0
212042 On ch=1 n=g6 v=63
212160 On ch=1 n=g6 v=0
212162 On ch=1 n=f#6 v=63
212280 On ch=1 n=f#6 v=0
212282 On ch=1 n=a6 v=63
212400 On ch=1 n=a6 v=0
212402 On ch=1 n=g6 v=63
212520 On ch=1 n=g6 v=0
212522 On ch=1 n=f#6 v=63
212640 On ch=1 n=f#6 v=0
212642 On ch=1 n=e6 v=63
212760 On ch=1 n=e6 v=0
212762 On ch=1 n=d#6 v=63
212880 On ch=1 n=d#6 v=0
212882 On ch=1 n=e6 v=81
213000 On ch=1 n=e6 v=0
213002 On ch=1 n=d#6 v=81
213120 On ch=1 n=d#6 v=0
213122 On ch=1 n=e6 v=81
213240 On ch=1 n=e6 v=0
213242 On ch=1 n=f#6 v=81
213360 On ch=1 n=f#6 v=0
213362 On ch=1 n=e6 v=81
213480 On ch=1 n=e6 v=0
213482 On ch=1 n=d6 v=81
213600 On ch=1 n=d6 v=0
213602 On ch=1 n=c#6 v=81
213720 On ch=1 n=c#6 v=0
213722 On ch=1 n=d6 v=81
213840 On ch=1 n=d6 v=0
213842 On ch=1 n=e6 v=63
213960 On ch=1 n=e6 v=0
213962 On ch=1 n=d6 v=63
214080 On ch=1 n=d6 v=0
214082 On ch=1 n=c#6 v=63
214200 On ch=1 n=c#6 v=0
214202 On ch=1 n=b5 v=47
214320 On ch=1 n=b5 v=0
214322 On ch=1 n=a5 v=47
214440 On ch=1 n=a5 v=0
214442 On ch=1 n=g5 v=47
214560 On ch=1 n=g5 v=0
214562 On ch=1 n=f#5 v=31
215040 On ch=1 n=f#5 v=0
215284 On ch=1 n=d5 v=31
215520 On ch=1 n=d5 v=0
215522 On ch=1 n=e5 v=31
215760 On ch=1 n=e5 v=0
215762 On ch=1 n=c#5 v=31
216000 On ch=1 n=c#5 v=0
216002 On ch=1 n=d5 v=31
216240 On ch=1 n=d5 v=0
216242 On ch=1 n=b5 v=31
216480 On ch=1 n=b5 v=0
216482 On ch=1 n=c6 v=47
216720 On ch=1 n=c6 v=0
216722 On ch=1 n=a#5 v=47
216960 On ch=1 n=a#5 v=0
216962 On ch=1 n=b5 v=47
217200 On ch=1 n=b5 v=0
217202 On ch=1 n=g#5 v=47
217440 On ch=1 n=g#5 v=0
217442 On ch=1 n=a5 v=63
217680 On ch=1 n=a5 v=0
217682 On ch=1 n=f#5 v=63
217920 On ch=1 n=f#5 v=0
217922 On ch=1 n=g5 v=63
218160 On ch=1 n=g5 v=0
218162 On ch=1 n=b5 v=63
218280 On ch=1 n=b5 v=0
218404 On ch=1 n=d5 v=81
218880 On ch=1 n=d5 v=0
218882 On ch=1 n=c#5 v=54
219120 On ch=1 n=c#5 v=0
219122 On ch=1 n=d6 v=81
219240 On ch=1 n=d6 v=0
219364 On ch=1 n=d6 v=81
219480 On ch=1 n=d6 v=0
219482 On ch=1 n=c#6 v=81
219600 On ch=1 n=c#6 v=0
219602 On ch=1 n=b5 v=81
219720 On ch=1 n=b5 v=0
219722 On ch=1 n=a5 v=81
219840 On ch=1 n=a5 v=0
219842 On ch=1 n=g#5 v=81
219960 On ch=1 n=g#5 v=0
219962 On ch=1 n=a5 v=81
220080 On ch=1 n=a5 v=0
220082 On ch=1 n=b5 v=81
220200 On ch=1 n=b5 v=0
220202 On ch=1 n=c#6 v=81
220320 On ch=1 n=c#6 v=0
220322 On ch=1 n=d6 v=81
220800 On ch=1 n=d6 v=0
221044 On ch=1 n=a6 v=81
221160 On ch=1 n=a6 v=0
221284 On ch=1 n=a6 v=81
221400 On ch=1 n=a6 v=0
221402 On ch=1 n=g6 v=81
221520 On ch=1 n=g6 v=0
221522 On ch=1 n=f#6 v=81
221640 On ch=1 n=f#6 v=0
221642 On ch=1 n=e6 v=81
221760 On ch=1 n=e6 v=0
221762 On ch=1 n=d#6 v=81
221880 On ch=1 n=d#6 v=0
221882 On ch=1 n=e6 v=81
222000 On ch=1 n=e6 v=0
222002 On ch=1 n=f#6 v=81
222120 On ch=1 n=f#6 v=0
222122 On ch=1 n=g6 v=81
222240 On ch=1 n=g6 v=0
222242 On ch=1 n=a6 v=81
222720 On ch=1 n=a6 v=0
222964 On ch=1 n=d7 v=81
223080 On ch=1 n=d7 v=0
223204 On ch=1 n=d7 v=81
223320 On ch=1 n=d7 v=0
223322 On ch=1 n=c#7 v=81
223440 On ch=1 n=c#7 v=0
223442 On ch=1 n=b6 v=81
223560 On ch=1 n=b6 v=0
223562 On ch=1 n=a6 v=81
223680 On ch=1 n=a6 v=0
223682 On ch=1 n=g#6 v=81
223800 On ch=1 n=g#6 v=0
223802 On ch=1 n=a6 v=81
223920 On ch=1 n=a6 v=0
223922 On ch=1 n=b6 v=81
224040 On ch=1 n=b6 v=0
224042 On ch=1 n=c#7 v=81
224160 On ch=1 n=c#7 v=0
224162 On ch=1 n=d7 v=81
224280 On ch=1 n=d7 v=0
224282 On ch=1 n=a6 v=81
224400 On ch=1 n=a6 v=0
224402 On ch=1 n=c#7 v=81
224520 On ch=1 n=c#7 v=0
224522 On ch=1 n=g6 v=81
224640 On ch=1 n=g6 v=0
224642 On ch=1 n=b6 v=63
224760 On ch=1 n=b6 v=0
224762 On ch=1 n=f#6 v=63
224880 On ch=1 n=f#6 v=0
224882 On ch=1 n=a6 v=63
225000 On ch=1 n=a6 v=0
225002 On ch=1 n=e6 v=63
225120 On ch=1 n=e6 v=0
225122 On ch=1 n=f#6 v=63
225240 On ch=1 n=f#6 v=0
225242 On ch=1 n=d6 v=63
225360 On ch=1 n=d6 v=0
225362 On ch=1 n=f#6 v=63
225480 On ch=1 n=f#6 v=0
225482 On ch=1 n=c#6 v=63
225600 On ch=1 n=c#6 v=0
225602 On ch=1 n=e6 v=47
225720 On ch=1 n=e6 v=0
225722 On ch=1 n=b5 v=47
225840 On ch=1 n=b5 v=0
225842 On ch=1 n=d#6 v=47
225960 On ch=1 n=d#6 v=0
225962 On ch=1 n=b5 v=47
226080 On ch=1 n=b5 v=0
226082 On ch=1 n=e6 v=31
226200 On ch=1 n=e6 v=0
226202 On ch=1 n=b5 v=31
226320 On ch=1 n=b5 v=0
226322 On ch=1 n=d#6 v=31
226440 On ch=1 n=d#6 v=0
226442 On ch=1 n=b5 v=31
226560 On ch=1 n=b5 v=0
226562 On ch=1 n=e6 v=47
226680 On ch=1 n=e6 v=0
226682 On ch=1 n=b5 v=47
226800 On ch=1 n=b5 v=0
226802 On ch=1 n=f#6 v=47
226920 On ch=1 n=f#6 v=0
226922 On ch=1 n=b5 v=47
227040 On ch=1 n=b5 v=0
227042 On ch=1 n=g6 v=63
227160 On ch=1 n=g6 v=0
227162 On ch=1 n=b5 v=63
227280 On ch=1 n=b5 v=0
227282 On ch=1 n=f#6 v=63
227400 On ch=1 n=f#6 v=0
227402 On ch=1 n=b5 v=63
227520 On ch=1 n=b5 v=0
227522 On ch=1 n=g6 v=47
227640 On ch=1 n=g6 v=0
227642 On ch=1 n=b5 v=47
227760 On ch=1 n=b5 v=0
227762 On ch=1 n=c#6 v=47
227880 On ch=1 n=c#6 v=0
227882 On ch=1 n=a5 v=47
228000 On ch=1 n=a5 v=0
228002 On ch=1 n=d6 v=31
228120 On ch=1 n=d6 v=0
228122 On ch=1 n=a5 v=31
228240 On ch=1 n=a5 v=0
228242 On ch=1 n=c#6 v=31
228360 On ch=1 n=c#6 v=0
228362 On ch=1 n=a5 v=31
228480 On ch=1 n=a5 v=0
228482 On ch=1 n=d6 v=47
228600 On ch=1 n=d6 v=0
228602 On ch=1 n=a5 v=47
228720 On ch=1 n=a5 v=0
228722 On ch=1 n=e6 v=47
228840 On ch=1 n=e6 v=0
228842 On ch=1 n=a5 v=47
228960 On ch=1 n=a5 v=0
228962 On ch=1 n=f#6 v=63
229080 On ch=1 n=f#6 v=0
229082 On ch=1 n=a5 v=63
229200 On ch=1 n=a5 v=0
229202 On ch=1 n=e6 v=63
229320 On ch=1 n=e6 v=0
229322 On ch=1 n=a5 v=63
229440 On ch=1 n=a5 v=0
229442 On ch=1 n=f#6 v=63
229560 On ch=1 n=f#6 v=0
229562 On ch=1 n=a5 v=63
229680 On ch=1 n=a5 v=0
229682 On ch=1 n=e6 v=63
229800 On ch=1 n=e6 v=0
229802 On ch=1 n=a5 v=63
229920 On ch=1 n=a5 v=0
229922 On ch=1 n=e6 v=63
230040 On ch=1 n=e6 v=0
230042 On ch=1 n=d#6 v=63
230160 On ch=1 n=d#6 v=0
230162 On ch=1 n=c#6 v=63
230280 On ch=1 n=c#6 v=0
230282 On ch=1 n=b5 v=63
230400 On ch=1 n=b5 v=0
230402 On ch=1 n=a#5 v=63
230520 On ch=1 n=a#5 v=0
230522 On ch=1 n=b5 v=63
230640 On ch=1 n=b5 v=0
230642 On ch=1 n=c#6 v=63
230760 On ch=1 n=c#6 v=0
230762 On ch=1 n=d#6 v=63
230880 On ch=1 n=d#6 v=0
230882 On ch=1 n=e6 v=63
231360 On ch=1 n=e6 v=0
231604 On ch=1 n=d6 v=63
231720 On ch=1 n=d6 v=0
231844 On ch=1 n=d6 v=63
231960 On ch=1 n=d6 v=0
231962 On ch=1 n=c#6 v=63
232080 On ch=1 n=c#6 v=0
232082 On ch=1 n=b5 v=63
232200 On ch=1 n=b5 v=0
232202 On ch=1 n=a5 v=63
232320 On ch=1 n=a5 v=0
232322 On ch=1 n=g#5 v=81
232440 On ch=1 n=g#5 v=0
232442 On ch=1 n=a5 v=81
232560 On ch=1 n=a5 v=0
232562 On ch=1 n=b5 v=81
232680 On ch=1 n=b5 v=0
232682 On ch=1 n=c#6 v=81
232800 On ch=1 n=c#6 v=0
232802 On ch=1 n=d6 v=81
233280 On ch=1 n=d6 v=0
233524 On ch=1 n=a6 v=81
233640 On ch=1 n=a6 v=0
233764 On ch=1 n=a6 v=81
233880 On ch=1 n=a6 v=0
233882 On ch=1 n=b5 v=81
234000 On ch=1 n=b5 v=0
234002 On ch=1 n=c#6 v=81
234120 On ch=1 n=c#6 v=0
234122 On ch=1 n=b5 v=81
234240 On ch=1 n=b5 v=0
234242 On ch=1 n=g6 v=81
234360 On ch=1 n=g6 v=0
234362 On ch=1 n=f#6 v=81
234480 On ch=1 n=f#6 v=0
234482 On ch=1 n=e6 v=81
234600 On ch=1 n=e6 v=0
234602 On ch=1 n=d6 v=81
234720 On ch=1 n=d6 v=0
234722 On ch=1 n=c#6 v=81
235200 On ch=1 n=c#6 v=0
235202 On ch=1 n=a6 v=81
235320 On ch=1 n=a6 v=0
235322 On ch=1 n=g6 v=81
235440 On ch=1 n=g6 v=0
235442 On ch=1 n=f#6 v=81
235560 On ch=1 n=f#6 v=0
235562 On ch=1 n=e6 v=81
235680 On ch=1 n=e6 v=0
235682 On ch=1 n=d6 v=81
236160 On ch=1 n=d6 v=0
236162 On ch=1 n=b6 v=81
236280 On ch=1 n=b6 v=0
236282 On ch=1 n=a6 v=81
236400 On ch=1 n=a6 v=0
236402 On ch=1 n=g6 v=81
236520 On ch=1 n=g6 v=0
236522 On ch=1 n=f#6 v=81
236640 On ch=1 n=f#6 v=0
236642 On ch=1 n=e6 v=81
236760 On ch=1 n=e6 v=0
236884 On ch=1 n=f#6 v=81
237000 On ch=1 n=f#6 v=0
237124 On ch=1 n=g6 v=81
237240 On ch=1 n=g6 v=0
237364 On ch=1 n=f#6 v=81
237480 On ch=1 n=f#6 v=0
237604 On ch=1 n=e6 v=81
237720 On ch=1 n=e6 v=0
237844 On ch=1 n=a6 v=81
237960 On ch=1 n=a6 v=0
237962 On ch=1 n=g#6 v=81
238080 On ch=1 n=g#6 v=0
238082 On ch=1 n=a6 v=81
238200 On ch=1 n=a6 v=0
238202 On ch=1 n=g#6 v=81
238320 On ch=1 n=g#6 v=0
238322 On ch=1 n=a6 v=81
238440 On ch=1 n=a6 v=0
238442 On ch=1 n=g#6 v=81
238560 On ch=1 n=g#6 v=0
238562 On ch=1 n=a6 v=81
238680 On ch=1 n=a6 v=0
238682 On ch=1 n=g#6 v=81
238800 On ch=1 n=g#6 v=0
238802 On ch=1 n=a6 v=81
238920 On ch=1 n=a6 v=0
238922 On ch=1 n=g#6 v=81
239040 On ch=1 n=g#6 v=0
239042 On ch=1 n=a6 v=81
239160 On ch=1 n=a6 v=0
239162 On ch=1 n=g#6 v=81
239280 On ch=1 n=g#6 v=0
239282 On ch=1 n=a6 v=81
239400 On ch=1 n=a6 v=0
239402 On ch=1 n=g#6 v=81
239520 On ch=1 n=g#6 v=0
239522 On ch=1 n=a6 v=81
240240 On ch=1 n=a6 v=0
240242 On ch=1 n=a#6 v=31
240480 On ch=1 n=a#6 v=0
240482 On ch=1 n=b6 v=31
240720 On ch=1 n=b6 v=0
240722 On ch=1 n=g#6 v=31
240960 On ch=1 n=g#6 v=0
240962 On ch=1 n=a6 v=31
241200 On ch=1 n=a6 v=0
241202 On ch=1 n=f#6 v=31
241440 On ch=1 n=f#6 v=0
241442 On ch=1 n=g6 v=31
241680 On ch=1 n=g6 v=0
241682 On ch=1 n=f6 v=31
241920 On ch=1 n=f6 v=0
241922 On ch=1 n=f#6 v=31
242160 On ch=1 n=f#6 v=0
242162 On ch=1 n=d#6 v=31
242400 On ch=1 n=d#6 v=0
242402 On ch=1 n=e6 v=31
242640 On ch=1 n=e6 v=0
242642 On ch=1 n=c#6 v=31
242880 On ch=1 n=c#6 v=0
242882 On ch=1 n=d6 v=31
243120 On ch=1 n=d6 v=0
243122 On ch=1 n=g6 v=81
243240 On ch=1 n=g6 v=0
243364 On ch=1 n=f#6 v=81
243600 On ch=1 n=f#6 v=0
243602 On ch=1 n=a6 v=81
243840 On ch=1 n=a6 v=0
243842 On ch=1 n=c#6 v=81
244080 On ch=1 n=c#6 v=0
244082 On ch=1 n=e6 v=81
244320 On ch=1 n=e6 v=0
244322 On ch=1 n=d6 v=81
244800 On ch=1 n=d6 v=0
245044 On ch=1 n=d7 v=31
245160 On ch=1 n=d7 v=0
245284 On ch=1 n=d7 v=31
245400 On ch=1 n=d7 v=0
245402 On ch=1 n=c#7 v=31
245520 On ch=1 n=c#7 v=0
245522 On ch=1 n=b6 v=31
245640 On ch=1 n=b6 v=0
245642 On ch=1 n=a6 v=31
245760 On ch=1 n=a6 v=0
245762 On ch=1 n=g#6 v=31
245880 On ch=1 n=g#6 v=0
245882 On ch=1 n=a6 v=31
246000 On ch=1 n=a6 v=0
246002 On ch=1 n=b6 v=31
246120 On ch=1 n=b6 v=0
246122 On ch=1 n=c#7 v=31
246240 On ch=1 n=c#7 v=0
246242 On ch=1 n=d7 v=31
246360 On ch=1 n=d7 v=0
246362 On ch=1 n=c#7 v=31
246480 On ch=1 n=c#7 v=0
246482 On ch=1 n=b6 v=31
246600 On ch=1 n=b6 v=0
246602 On ch=1 n=a6 v=31
246720 On ch=1 n=a6 v=0
246722 On ch=1 n=g6 v=31
246840 On ch=1 n=g6 v=0
246842 On ch=1 n=f#6 v=31
246960 On ch=1 n=f#6 v=0
246962 On ch=1 n=e6 v=31
247080 On ch=1 n=e6 v=0
247082 On ch=1 n=d6 v=31
247200 On ch=1 n=d6 v=0
247202 On ch=1 n=d6 v=31
247320 On ch=1 n=d6 v=0
247322 On ch=1 n=c#6 v=31
247440 On ch=1 n=c#6 v=0
247442 On ch=1 n=b5 v=31
247560 On ch=1 n=b5 v=0
247562 On ch=1 n=a5 v=31
247680 On ch=1 n=a5 v=0
247682 On ch=1 n=g#5 v=31
247800 On ch=1 n=g#5 v=0
247802 On ch=1 n=a5 v=31
247920 On ch=1 n=a5 v=0
247922 On ch=1 n=b5 v=31
248040 On ch=1 n=b5 v=0
248042 On ch=1 n=c#6 v=31
248160 On ch=1 n=c#6 v=0
248162 On ch=1 n=d6 v=31
248400 On ch=1 n=d6 v=0
248402 On ch=1 n=f#6 v=31
248520 On ch=1 n=f#6 v=0
248644 On ch=1 n=a6 v=31
248760 On ch=1 n=a6 v=0
249124 On ch=1 n=g6 v=63
249600 On ch=1 n=g6 v=0
250084 On ch=1 n=f#6 v=63
250560 On ch=1 n=f#6 v=0
251044 On ch=1 n=g6 v=63
251520 On ch=1 n=g6 v=0
252004 On ch=1 n=f#6 v=63
252240 On ch=1 n=f#6 v=0
252484 On ch=1 n=d7 v=81
252720 On ch=1 n=d7 v=0
252964 On ch=1 n=b6 v=81
253200 On ch=1 n=b6 v=0
253444 On ch=1 n=c#6 v=81
253680 On ch=1 n=c#6 v=0
253924 On ch=1 n=d6 v=81
254400 On ch=1 n=d6 v=0
254644 On ch=1 n=d6 v=63
254760 On ch=1 n=d6 v=0
254884 On ch=1 n=d6 v=63
255000 On ch=1 n=d6 v=0
255002 On ch=1 n=c#6 v=63
255120 On ch=1 n=c#6 v=0
255122 On ch=1 n=b5 v=63
255240 On ch=1 n=b5 v=0
255242 On ch=1 n=a5 v=63
255360 On ch=1 n=a5 v=0
255362 On ch=1 n=g#5 v=63
255480 On ch=1 n=g#5 v=0
255482 On ch=1 n=a5 v=63
255600 On ch=1 n=a5 v=0
255602 On ch=1 n=b5 v=63
255720 On ch=1 n=b5 v=0
255722 On ch=1 n=c#6 v=63
255840 On ch=1 n=c#6 v=0
255842 On ch=1 n=d6 v=63
256320 On ch=1 n=d6 v=0
256564 On ch=1 n=d5 v=31
256680 On ch=1 n=d5 v=0
256804 On ch=1 n=c#5 v=31
256920 On ch=1 n=c#5 v=0
256922 On ch=1 n=d5 v=31
257040 On ch=1 n=d5 v=0
257042 On ch=1 n=e5 v=31
257160 On ch=1 n=e5 v=0
257162 On ch=1 n=f#5 v=31
257280 On ch=1 n=f#5 v=0
257282 On ch=1 n=a5 v=31
257400 On ch=1 n=a5 v=0
257402 On ch=1 n=g5 v=31
257520 On ch=1 n=g5 v=0
257522 On ch=1 n=f#5 v=31
257640 On ch=1 n=f#5 v=0
257642 On ch=1 n=e5 v=31
257760 On ch=1 n=e5 v=0
257762 On ch=1 n=d5 v=31
258240 On ch=1 n=d5 v=0
258240 Meta TrkEnd
TrkEnd
MTrk
0 SeqSpec 43 00 01 00
0 Meta TrkName "(Augener Edition) by Joseph"
0 Meta 0x21 00
0 PrCh ch=2 p=0
0 PrCh ch=2 p=0
0 Par ch=2 c=7 v=127
1442 On ch=2 n=f#5 v=25
1678 On ch=2 n=f#5 v=0
1922 On ch=2 n=f#5 v=25
2158 On ch=2 n=f#5 v=0
2882 On ch=2 n=g5 v=25
3358 On ch=2 n=g5 v=0
3360 On ch=2 n=f#5 v=25
3598 On ch=2 n=f#5 v=0
4322 On ch=2 n=b5 v=31
4558 On ch=2 n=b5 v=0
4742 On ch=2 n=a5 v=31
4798 On ch=2 n=a5 v=0
4800 On ch=2 n=g5 v=31
5038 On ch=2 n=g5 v=0
5222 On ch=2 n=f#5 v=25
5278 On ch=2 n=f#5 v=0
5280 On ch=2 n=e5 v=25
5518 On ch=2 n=e5 v=0
5702 On ch=2 n=d5 v=25
5758 On ch=2 n=d5 v=0
7682 On ch=2 n=c#5 v=63
8158 On ch=2 n=c#5 v=0
8642 On ch=2 n=g6 v=63
9118 On ch=2 n=g6 v=0
9120 On ch=2 n=f#6 v=63
9838 On ch=2 n=f#6 v=0
9840 On ch=2 n=d#6 v=25
10078 On ch=2 n=d#6 v=0
10080 On ch=2 n=e6 v=25
10318 On ch=2 n=e6 v=0
10320 On ch=2 n=c#6 v=25
10558 On ch=2 n=c#6 v=0
10560 On ch=2 n=d6 v=25
10798 On ch=2 n=d6 v=0
10800 On ch=2 n=f#5 v=25
11038 On ch=2 n=f#5 v=0
11040 On ch=2 n=g5 v=31
11278 On ch=2 n=g5 v=0
11280 On ch=2 n=g#5 v=31
11518 On ch=2 n=g#5 v=0
11520 On ch=2 n=a5 v=25
11998 On ch=2 n=a5 v=0
14282 On ch=2 n=d#5 v=31
14338 On ch=2 n=d#5 v=0
14402 On ch=2 n=e5 v=41
14518 On ch=2 n=e5 v=0
14520 On ch=2 n=g5 v=41
14638 On ch=2 n=g5 v=0
14640 On ch=2 n=f#5 v=41
14758 On ch=2 n=f#5 v=0
14760 On ch=2 n=a5 v=25
14878 On ch=2 n=a5 v=0
14880 On ch=2 n=g5 v=25
15118 On ch=2 n=g5 v=0
15722 On ch=2 n=c#5 v=25
15778 On ch=2 n=c#5 v=0
16802 On ch=2 n=a6 v=62
16918 On ch=2 n=a6 v=0
16920 On ch=2 n=g6 v=62
17038 On ch=2 n=g6 v=0
17040 On ch=2 n=f#6 v=62
17158 On ch=2 n=f#6 v=0
17160 On ch=2 n=e6 v=62
17278 On ch=2 n=e6 v=0
17280 On ch=2 n=d6 v=41
17758 On ch=2 n=d6 v=0
17760 On ch=2 n=c#6 v=10
17998 On ch=2 n=c#6 v=0
18722 On ch=2 n=f#5 v=25
18958 On ch=2 n=f#5 v=0
19202 On ch=2 n=f#5 v=25
19438 On ch=2 n=f#5 v=0
20162 On ch=2 n=g5 v=25
20638 On ch=2 n=g5 v=0
20640 On ch=2 n=f#5 v=25
20878 On ch=2 n=f#5 v=0
21122 On ch=2 n=d5 v=25
21198 On ch=2 n=d5 v=0
21200 On ch=2 n=f#5 v=25
21278 On ch=2 n=f#5 v=0
21280 On ch=2 n=a5 v=25
21358 On ch=2 n=a5 v=0
21602 On ch=2 n=d6 v=41
21838 On ch=2 n=d6 v=0
22022 On ch=2 n=c#6 v=41
22078 On ch=2 n=c#6 v=0
22080 On ch=2 n=b5 v=41
22318 On ch=2 n=b5 v=0
22502 On ch=2 n=a5 v=41
22558 On ch=2 n=a5 v=0
22560 On ch=2 n=g5 v=41
22798 On ch=2 n=g5 v=0
22982 On ch=2 n=f#5 v=41
23038 On ch=2 n=f#5 v=0
23040 On ch=2 n=d5 v=41
23518 On ch=2 n=d5 v=0
23520 On ch=2 n=c#5 v=25
23638 On ch=2 n=c#5 v=0
24962 On ch=2 n=c#5 v=84
25438 On ch=2 n=c#5 v=0
25922 On ch=2 n=c#5 v=107
26398 On ch=2 n=c#5 v=0
26400 On ch=2 n=d#5 v=107
26878 On ch=2 n=d#5 v=0
26880 On ch=2 n=e5 v=107
27358 On ch=2 n=e5 v=0
27360 On ch=2 n=f#5 v=107
28318 On ch=2 n=f#5 v=0
28320 On ch=2 n=g5 v=41
28558 On ch=2 n=g5 v=0
28560 On ch=2 n=g5 v=25
28798 On ch=2 n=g5 v=0
28800 On ch=2 n=f#5 v=25
29038 On ch=2 n=f#5 v=0
33122 On ch=2 n=b5 v=107
33358 On ch=2 n=b5 v=0
33360 On ch=2 n=a5 v=62
33598 On ch=2 n=a5 v=0
33600 On ch=2 n=g5 v=107
33838 On ch=2 n=g5 v=0
33840 On ch=2 n=f#5 v=62
34078 On ch=2 n=f#5 v=0
34080 On ch=2 n=e5 v=107
34318 On ch=2 n=e5 v=0
34320 On ch=2 n=d5 v=62
34558 On ch=2 n=d5 v=0
37442 On ch=2 n=g5 v=25
37918 On ch=2 n=g5 v=0
37920 On ch=2 n=f#5 v=25
38398 On ch=2 n=f#5 v=0
38400 On ch=2 n=c6 v=25
38878 On ch=2 n=c6 v=0
38880 On ch=2 n=b5 v=41
39118 On ch=2 n=b5 v=0
39120 On ch=2 n=c#6 v=41
39358 On ch=2 n=c#6 v=0
39360 On ch=2 n=d6 v=41
39598 On ch=2 n=d6 v=0
39600 On ch=2 n=a5 v=25
39838 On ch=2 n=a5 v=0
39840 On ch=2 n=b5 v=25
40318 On ch=2 n=b5 v=0
47042 On ch=2 n=a5 v=41
47158 On ch=2 n=a5 v=0
47160 On ch=2 n=f#5 v=41
47278 On ch=2 n=f#5 v=0
47280 On ch=2 n=g5 v=41
47398 On ch=2 n=g5 v=0
47400 On ch=2 n=e5 v=41
47518 On ch=2 n=e5 v=0
47520 On ch=2 n=f#5 v=62
47758 On ch=2 n=f#5 v=0
48002 On ch=2 n=f#5 v=62
48238 On ch=2 n=f#5 v=0
48962 On ch=2 n=g5 v=62
49438 On ch=2 n=g5 v=0
49440 On ch=2 n=f#5 v=41
49678 On ch=2 n=f#5 v=0
50402 On ch=2 n=d6 v=62
50638 On ch=2 n=d6 v=0
50822 On ch=2 n=c#6 v=62
50878 On ch=2 n=c#6 v=0
50880 On ch=2 n=b5 v=62
51118 On ch=2 n=b5 v=0
51302 On ch=2 n=a5 v=62
51358 On ch=2 n=a5 v=0
51360 On ch=2 n=g5 v=62
51598 On ch=2 n=g5 v=0
51782 On ch=2 n=f#5 v=62
51838 On ch=2 n=f#5 v=0
53762 On ch=2 n=c#5 v=84
54238 On ch=2 n=c#5 v=0
54722 On ch=2 n=c#5 v=107
55198 On ch=2 n=c#5 v=0
55200 On ch=2 n=d#5 v=107
55678 On ch=2 n=d#5 v=0
55680 On ch=2 n=e5 v=107
56158 On ch=2 n=e5 v=0
57362 On ch=2 n=g5 v=25
57478 On ch=2 n=g5 v=0
57602 On ch=2 n=g5 v=25
58078 On ch=2 n=g5 v=0
58080 On ch=2 n=f#5 v=10
58318 On ch=2 n=f#5 v=0
59042 On ch=2 n=f5 v=84
59398 On ch=2 n=f5 v=0
59400 On ch=2 n=f5 v=84
59518 On ch=2 n=f5 v=0
59520 On ch=2 n=f5 v=84
59758 On ch=2 n=f5 v=0
60482 On ch=2 n=d6 v=84
60838 On ch=2 n=d6 v=0
60840 On ch=2 n=d6 v=84
60958 On ch=2 n=d6 v=0
60960 On ch=2 n=d6 v=84
61438 On ch=2 n=d6 v=0
61440 On ch=2 n=c#6 v=84
61558 On ch=2 n=c#6 v=0
61682 On ch=2 n=e6 v=84
61798 On ch=2 n=e6 v=0
61922 On ch=2 n=e6 v=84
62158 On ch=2 n=e6 v=0
62160 On ch=2 n=d6 v=84
62398 On ch=2 n=d6 v=0
62400 On ch=2 n=d6 v=84
62878 On ch=2 n=d6 v=0
62880 On ch=2 n=g6 v=84
63358 On ch=2 n=g6 v=0
63360 On ch=2 n=f5 v=84
63838 On ch=2 n=f5 v=0
63840 On ch=2 n=g5 v=84
64318 On ch=2 n=g5 v=0
64320 On ch=2 n=a5 v=84
64798 On ch=2 n=a5 v=0
64800 On ch=2 n=a#5 v=84
65278 On ch=2 n=a#5 v=0
65280 On ch=2 n=a5 v=84
65758 On ch=2 n=a5 v=0
65760 On ch=2 n=a#5 v=84
66238 On ch=2 n=a#5 v=0
66240 On ch=2 n=d6 v=84
66478 On ch=2 n=d6 v=0
66480 On ch=2 n=c6 v=84
66718 On ch=2 n=c6 v=0
66720 On ch=2 n=a#5 v=84
66958 On ch=2 n=a#5 v=0
66960 On ch=2 n=a5 v=84
67198 On ch=2 n=a5 v=0
67200 On ch=2 n=g5 v=62
67438 On ch=2 n=g5 v=0
67440 On ch=2 n=e5 v=62
67678 On ch=2 n=e5 v=0
71042 On ch=2 n=c6 v=84
71398 On ch=2 n=c6 v=0
71400 On ch=2 n=c6 v=84
71518 On ch=2 n=c6 v=0
71520 On ch=2 n=c6 v=84
71998 On ch=2 n=c6 v=0
72482 On ch=2 n=c7 v=84
72838 On ch=2 n=c7 v=0
72840 On ch=2 n=c7 v=84
72958 On ch=2 n=c7 v=0
72960 On ch=2 n=c7 v=84
73318 On ch=2 n=c7 v=0
76402 On ch=2 n=f6 v=84
76438 On ch=2 n=f6 v=0
76482 On ch=2 n=f6 v=84
76518 On ch=2 n=f6 v=0
76562 On ch=2 n=f6 v=84
76638 On ch=2 n=f6 v=0
76640 On ch=2 n=e6 v=84
76718 On ch=2 n=e6 v=0
76720 On ch=2 n=d6 v=84
76798 On ch=2 n=d6 v=0
76882 On ch=2 n=a#6 v=84
76918 On ch=2 n=a#6 v=0
76962 On ch=2 n=a#6 v=84
76998 On ch=2 n=a#6 v=0
77042 On ch=2 n=a#6 v=84
77118 On ch=2 n=a#6 v=0
77120 On ch=2 n=a6 v=84
77198 On ch=2 n=a6 v=0
77200 On ch=2 n=g6 v=84
77278 On ch=2 n=g6 v=0
77362 On ch=2 n=d6 v=84
77398 On ch=2 n=d6 v=0
77442 On ch=2 n=d6 v=84
77478 On ch=2 n=d6 v=0
77602 On ch=2 n=c6 v=84
77638 On ch=2 n=c6 v=0
77682 On ch=2 n=c6 v=84
77718 On ch=2 n=c6 v=0
77842 On ch=2 n=a#5 v=84
77878 On ch=2 n=a#5 v=0
77922 On ch=2 n=a#5 v=84
77958 On ch=2 n=a#5 v=0
78082 On ch=2 n=g5 v=84
78118 On ch=2 n=g5 v=0
78162 On ch=2 n=g5 v=84
78198 On ch=2 n=g5 v=0
83282 On ch=2 n=g5 v=25
83398 On ch=2 n=g5 v=0
83522 On ch=2 n=g5 v=25
83998 On ch=2 n=g5 v=0
84000 On ch=2 n=f5 v=10
84238 On ch=2 n=f5 v=0
84842 On ch=2 n=a#4 v=84
84958 On ch=2 n=a#4 v=0
84960 On ch=2 n=d5 v=84
85318 On ch=2 n=d5 v=0
85320 On ch=2 n=d5 v=84
85438 On ch=2 n=d5 v=0
85440 On ch=2 n=d5 v=84
85918 On ch=2 n=d5 v=0
86282 On ch=2 n=d5 v=84
86398 On ch=2 n=d5 v=0
86400 On ch=2 n=f5 v=84
86758 On ch=2 n=f5 v=0
86760 On ch=2 n=f5 v=84
86878 On ch=2 n=f5 v=0
86880 On ch=2 n=f5 v=84
87358 On ch=2 n=f5 v=0
88802 On ch=2 n=g5 v=41
89158 On ch=2 n=g5 v=0
89282 On ch=2 n=f#5 v=25
89518 On ch=2 n=f#5 v=0
89762 On ch=2 n=f#5 v=25
89998 On ch=2 n=f#5 v=0
90722 On ch=2 n=g5 v=25
91198 On ch=2 n=g5 v=0
91200 On ch=2 n=f#5 v=10
91438 On ch=2 n=f#5 v=0
92162 On ch=2 n=b5 v=41
92398 On ch=2 n=b5 v=0
92582 On ch=2 n=a5 v=41
92638 On ch=2 n=a5 v=0
92640 On ch=2 n=g5 v=41
92878 On ch=2 n=g5 v=0
93062 On ch=2 n=f#5 v=25
93118 On ch=2 n=f#5 v=0
93120 On ch=2 n=e5 v=25
93358 On ch=2 n=e5 v=0
93542 On ch=2 n=d5 v=25
93598 On ch=2 n=d5 v=0
95522 On ch=2 n=c#5 v=84
95998 On ch=2 n=c#5 v=0
96482 On ch=2 n=g6 v=84
96958 On ch=2 n=g6 v=0
96960 On ch=2 n=f#6 v=84
97678 On ch=2 n=f#6 v=0
97680 On ch=2 n=d#6 v=25
97918 On ch=2 n=d#6 v=0
97920 On ch=2 n=e6 v=25
98158 On ch=2 n=e6 v=0
98160 On ch=2 n=c#6 v=25
98398 On ch=2 n=c#6 v=0
98400 On ch=2 n=d6 v=25
98638 On ch=2 n=d6 v=0
98640 On ch=2 n=f#5 v=25
98878 On ch=2 n=f#5 v=0
98880 On ch=2 n=g5 v=41
99118 On ch=2 n=g5 v=0
99120 On ch=2 n=g#5 v=41
99358 On ch=2 n=g#5 v=0
99360 On ch=2 n=a5 v=25
99838 On ch=2 n=a5 v=0
102242 On ch=2 n=g5 v=84
102718 On ch=2 n=g5 v=0
102720 On ch=2 n=f#5 v=62
102958 On ch=2 n=f#5 v=0
103682 On ch=2 n=b5 v=25
103918 On ch=2 n=b5 v=0
103920 On ch=2 n=a5 v=25
104158 On ch=2 n=a5 v=0
104160 On ch=2 n=g5 v=25
104398 On ch=2 n=g5 v=0
104400 On ch=2 n=f#5 v=25
104638 On ch=2 n=f#5 v=0
104640 On ch=2 n=e5 v=25
104878 On ch=2 n=e5 v=0
104880 On ch=2 n=d5 v=25
105118 On ch=2 n=d5 v=0
107042 On ch=2 n=c#5 v=84
107518 On ch=2 n=c#5 v=0
110282 On ch=2 n=a5 v=25
110518 On ch=2 n=a5 v=0
110520 On ch=2 n=a#5 v=25
110758 On ch=2 n=a#5 v=0
110760 On ch=2 n=b5 v=25
110878 On ch=2 n=b5 v=0
110880 On ch=2 n=d6 v=25
111358 On ch=2 n=d6 v=0
111360 On ch=2 n=c#6 v=25
111838 On ch=2 n=c#6 v=0
113642 On ch=2 n=d#5 v=41
113698 On ch=2 n=d#5 v=0
113762 On ch=2 n=e5 v=41
113878 On ch=2 n=e5 v=0
113880 On ch=2 n=g5 v=41
113998 On ch=2 n=g5 v=0
114000 On ch=2 n=f#5 v=41
114118 On ch=2 n=f#5 v=0
114120 On ch=2 n=a5 v=41
114238 On ch=2 n=a5 v=0
114240 On ch=2 n=g5 v=41
114478 On ch=2 n=g5 v=0
115082 On ch=2 n=c#5 v=41
115138 On ch=2 n=c#5 v=0
115202 On ch=2 n=c#5 v=41
115278 On ch=2 n=c#5 v=0
115280 On ch=2 n=d5 v=41
115358 On ch=2 n=d5 v=0
115360 On ch=2 n=f#5 v=41
115438 On ch=2 n=f#5 v=0
115440 On ch=2 n=d#5 v=41
115518 On ch=2 n=d#5 v=0
115520 On ch=2 n=e5 v=41
115598 On ch=2 n=e5 v=0
115600 On ch=2 n=g5 v=41
115678 On ch=2 n=g5 v=0
115680 On ch=2 n=f#5 v=41
115918 On ch=2 n=f#5 v=0
116642 On ch=2 n=f#5 v=62
117118 On ch=2 n=f#5 v=0
117120 On ch=2 n=e5 v=25
117358 On ch=2 n=e5 v=0
117360 On ch=2 n=b5 v=25
117598 On ch=2 n=b5 v=0
117600 On ch=2 n=a5 v=25
117838 On ch=2 n=a5 v=0
117840 On ch=2 n=g5 v=25
118078 On ch=2 n=g5 v=0
118080 On ch=2 n=f#5 v=25
118318 On ch=2 n=f#5 v=0
118562 On ch=2 n=f#5 v=25
118798 On ch=2 n=f#5 v=0
119522 On ch=2 n=g5 v=25
119998 On ch=2 n=g5 v=0
120000 On ch=2 n=f#5 v=25
120238 On ch=2 n=f#5 v=0
120962 On ch=2 n=d6 v=25
121198 On ch=2 n=d6 v=0
121322 On ch=2 n=c#6 v=25
121378 On ch=2 n=c#6 v=0
121442 On ch=2 n=b5 v=25
121558 On ch=2 n=b5 v=0
121682 On ch=2 n=a5 v=25
121738 On ch=2 n=a5 v=0
121922 On ch=2 n=g5 v=25
121978 On ch=2 n=g5 v=0
122162 On ch=2 n=f#5 v=25
122218 On ch=2 n=f#5 v=0
124322 On ch=2 n=c#5 v=84
124798 On ch=2 n=c#5 v=0
125282 On ch=2 n=c#5 v=107
125758 On ch=2 n=c#5 v=0
125760 On ch=2 n=d#5 v=107
126238 On ch=2 n=d#5 v=0
126240 On ch=2 n=e5 v=107
126718 On ch=2 n=e5 v=0
126720 On ch=2 n=f#5 v=107
127678 On ch=2 n=f#5 v=0
127680 On ch=2 n=g5 v=41
127918 On ch=2 n=g5 v=0
127920 On ch=2 n=g5 v=25
128158 On ch=2 n=g5 v=0
128160 On ch=2 n=f#5 v=25
128398 On ch=2 n=f#5 v=0
136802 On ch=2 n=g5 v=84
137278 On ch=2 n=g5 v=0
137280 On ch=2 n=f#5 v=41
137518 On ch=2 n=f#5 v=0
138242 On ch=2 n=d6 v=62
138478 On ch=2 n=d6 v=0
138602 On ch=2 n=c#6 v=62
138658 On ch=2 n=c#6 v=0
138722 On ch=2 n=b5 v=62
138958 On ch=2 n=b5 v=0
139082 On ch=2 n=a5 v=62
139138 On ch=2 n=a5 v=0
139202 On ch=2 n=g5 v=62
139258 On ch=2 n=g5 v=0
139442 On ch=2 n=f#5 v=62
139498 On ch=2 n=f#5 v=0
139682 On ch=2 n=d6 v=62
140638 On ch=2 n=d6 v=0
140640 On ch=2 n=c#6 v=41
140878 On ch=2 n=c#6 v=0
141602 On ch=2 n=c#5 v=84
142078 On ch=2 n=c#5 v=0
145922 On ch=2 n=f#5 v=31
146398 On ch=2 n=f#5 v=0
146882 On ch=2 n=f#5 v=84
147358 On ch=2 n=f#5 v=0
147360 On ch=2 n=g5 v=84
147838 On ch=2 n=g5 v=0
149762 On ch=2 n=f#5 v=84
150478 On ch=2 n=f#5 v=0
150962 On ch=2 n=g5 v=41
151078 On ch=2 n=g5 v=0
151202 On ch=2 n=g5 v=25
151678 On ch=2 n=g5 v=0
151680 On ch=2 n=f#5 v=25
151918 On ch=2 n=f#5 v=0
152642 PrCh ch=2 p=0
160084 On ch=2 n=d6 v=41
160320 On ch=2 n=d6 v=0
160322 On ch=2 n=c#6 v=41
160560 On ch=2 n=c#6 v=0
167764 On ch=2 n=d6 v=41
168000 On ch=2 n=d6 v=0
168002 On ch=2 n=c#6 v=41
168240 On ch=2 n=c#6 v=0
170164 On ch=2 n=d6 v=25
170400 On ch=2 n=d6 v=0
170402 On ch=2 n=e6 v=25
170640 On ch=2 n=e6 v=0
170642 On ch=2 n=c#6 v=25
170880 On ch=2 n=c#6 v=0
170882 On ch=2 n=d6 v=25
171120 On ch=2 n=d6 v=0
171122 On ch=2 n=c#6 v=25
171600 On ch=2 n=c#6 v=0
171602 On ch=2 n=b5 v=25
172080 On ch=2 n=b5 v=0
172082 On ch=2 n=a5 v=25
172560 On ch=2 n=a5 v=0
172562 On ch=2 n=g5 v=25
173040 On ch=2 n=g5 v=0
173042 On ch=2 n=f#5 v=25
173280 On ch=2 n=f#5 v=0
173282 On ch=2 n=e5 v=25
173760 On ch=2 n=e5 v=0
176884 On ch=2 n=g5 v=41
177000 On ch=2 n=g5 v=0
177124 On ch=2 n=g5 v=41
177240 On ch=2 n=g5 v=0
177242 On ch=2 n=f#5 v=41
177360 On ch=2 n=f#5 v=0
177362 On ch=2 n=e5 v=41
177480 On ch=2 n=e5 v=0
177482 On ch=2 n=d5 v=41
177600 On ch=2 n=d5 v=0
177602 On ch=2 n=c#5 v=41
177720 On ch=2 n=c#5 v=0
177722 On ch=2 n=d5 v=41
177840 On ch=2 n=d5 v=0
177842 On ch=2 n=e5 v=41
177960 On ch=2 n=e5 v=0
177962 On ch=2 n=f#5 v=41
178080 On ch=2 n=f#5 v=0
178082 On ch=2 n=g5 v=41
178560 On ch=2 n=g5 v=0
178562 On ch=2 n=e5 v=41
179040 On ch=2 n=e5 v=0
179524 On ch=2 n=f#6 v=62
179640 On ch=2 n=f#6 v=0
179642 On ch=2 n=e6 v=62
179760 On ch=2 n=e6 v=0
179762 On ch=2 n=d6 v=62
179880 On ch=2 n=d6 v=0
179882 On ch=2 n=c#6 v=62
180000 On ch=2 n=c#6 v=0
180484 On ch=2 n=g6 v=62
180600 On ch=2 n=g6 v=0
180602 On ch=2 n=f#6 v=62
180720 On ch=2 n=f#6 v=0
180722 On ch=2 n=e6 v=62
180840 On ch=2 n=e6 v=0
180842 On ch=2 n=d6 v=62
180960 On ch=2 n=d6 v=0
180962 On ch=2 n=c#6 v=62
181080 On ch=2 n=c#6 v=0
181204 On ch=2 n=d6 v=62
181320 On ch=2 n=d6 v=0
181444 On ch=2 n=e6 v=62
181560 On ch=2 n=e6 v=0
181684 On ch=2 n=d6 v=62
181800 On ch=2 n=d6 v=0
181924 On ch=2 n=c#6 v=62
182040 On ch=2 n=c#6 v=0
182164 On ch=2 n=c#6 v=62
182400 On ch=2 n=c#6 v=0
182402 On ch=2 n=d6 v=62
182640 On ch=2 n=d6 v=0
182642 On ch=2 n=c#6 v=62
182880 On ch=2 n=c#6 v=0
182882 On ch=2 n=c#6 v=62
183120 On ch=2 n=c#6 v=0
183122 On ch=2 n=e6 v=62
183360 On ch=2 n=e6 v=0
183362 On ch=2 n=f#6 v=62
183600 On ch=2 n=f#6 v=0
183602 On ch=2 n=d6 v=62
183840 On ch=2 n=d6 v=0
183842 On ch=2 n=c#6 v=62
183960 On ch=2 n=c#6 v=0
184324 On ch=2 n=c#6 v=62
184440 On ch=2 n=c#6 v=0
184804 On ch=2 n=c#6 v=62
185280 On ch=2 n=c#6 v=0
192244 On ch=2 n=c6 v=41
192360 On ch=2 n=c6 v=0
192484 On ch=2 n=b5 v=41
192600 On ch=2 n=b5 v=0
192724 On ch=2 n=a5 v=41
192840 On ch=2 n=a5 v=0
192964 On ch=2 n=g5 v=41
193080 On ch=2 n=g5 v=0
193204 On ch=2 n=f#5 v=41
193320 On ch=2 n=f#5 v=0
193444 On ch=2 n=e5 v=41
193920 On ch=2 n=e5 v=0
194164 On ch=2 n=d6 v=62
194280 On ch=2 n=d6 v=0
194404 On ch=2 n=c6 v=62
194520 On ch=2 n=c6 v=0
194644 On ch=2 n=b5 v=62
194760 On ch=2 n=b5 v=0
194884 On ch=2 n=a5 v=62
195000 On ch=2 n=a5 v=0
195124 On ch=2 n=g5 v=62
195240 On ch=2 n=g5 v=0
195364 On ch=2 n=f#5 v=62
195840 On ch=2 n=f#5 v=0
199204 On ch=2 n=d5 v=84
199320 On ch=2 n=d5 v=0
199444 On ch=2 n=b5 v=84
199560 On ch=2 n=b5 v=0
199684 On ch=2 n=c#5 v=84
199800 On ch=2 n=c#5 v=0
199924 On ch=2 n=a5 v=84
200040 On ch=2 n=a5 v=0
201124 On ch=2 n=a5 v=41
201240 On ch=2 n=a5 v=0
201242 On ch=2 n=g5 v=41
201360 On ch=2 n=g5 v=0
201362 On ch=2 n=f#5 v=41
201480 On ch=2 n=f#5 v=0
201482 On ch=2 n=e5 v=41
201600 On ch=2 n=e5 v=0
201602 On ch=2 n=g5 v=41
201720 On ch=2 n=g5 v=0
201722 On ch=2 n=f#5 v=41
201840 On ch=2 n=f#5 v=0
201842 On ch=2 n=e5 v=41
201960 On ch=2 n=e5 v=0
201962 On ch=2 n=d5 v=41
202080 On ch=2 n=d5 v=0
203284 On ch=2 n=g5 v=62
203520 On ch=2 n=g5 v=0
203522 On ch=2 n=f#5 v=62
203760 On ch=2 n=f#5 v=0
204724 On ch=2 n=d5 v=41
204960 On ch=2 n=d5 v=0
204962 On ch=2 n=c#5 v=41
205200 On ch=2 n=c#5 v=0
205202 On ch=2 n=e5 v=41
205440 On ch=2 n=e5 v=0
205442 On ch=2 n=d#5 v=41
205680 On ch=2 n=d#5 v=0
205682 On ch=2 n=f#5 v=41
205920 On ch=2 n=f#5 v=0
205922 On ch=2 n=e5 v=41
206160 On ch=2 n=e5 v=0
206162 On ch=2 n=g5 v=41
206400 On ch=2 n=g5 v=0
206402 On ch=2 n=f#5 v=41
206640 On ch=2 n=f#5 v=0
206642 On ch=2 n=e6 v=41
206880 On ch=2 n=e6 v=0
206882 On ch=2 n=f6 v=25
207120 On ch=2 n=f6 v=0
207122 On ch=2 n=d6 v=25
207360 On ch=2 n=d6 v=0
207362 On ch=2 n=e6 v=25
207600 On ch=2 n=e6 v=0
207602 On ch=2 n=c#6 v=25
207840 On ch=2 n=c#6 v=0
207842 On ch=2 n=d6 v=25
208080 On ch=2 n=d6 v=0
208082 On ch=2 n=b5 v=25
208320 On ch=2 n=b5 v=0
208322 On ch=2 n=c#6 v=25
208560 On ch=2 n=c#6 v=0
208562 On ch=2 n=e6 v=25
208800 On ch=2 n=e6 v=0
208802 On ch=2 n=f#6 v=25
209280 On ch=2 n=f#6 v=0
209282 On ch=2 n=e6 v=41
209760 On ch=2 n=e6 v=0
209762 On ch=2 n=d6 v=41
210240 On ch=2 n=d6 v=0
210242 On ch=2 n=c#6 v=62
210480 On ch=2 n=c#6 v=0
210482 On ch=2 n=f#5 v=84
210720 On ch=2 n=f#5 v=0
210722 On ch=2 n=g5 v=84
210960 On ch=2 n=g5 v=0
210962 On ch=2 n=e5 v=84
211200 On ch=2 n=e5 v=0
211202 On ch=2 n=f#5 v=84
211440 On ch=2 n=f#5 v=0
211442 On ch=2 n=d#5 v=84
211680 On ch=2 n=d#5 v=0
211682 On ch=2 n=e5 v=84
211920 On ch=2 n=e5 v=0
211922 On ch=2 n=c#5 v=62
212160 On ch=2 n=c#5 v=0
212162 On ch=2 n=d5 v=62
212400 On ch=2 n=d5 v=0
212402 On ch=2 n=f#5 v=62
212640 On ch=2 n=f#5 v=0
212642 On ch=2 n=g5 v=62
212880 On ch=2 n=g5 v=0
212882 On ch=2 n=f#5 v=84
213120 On ch=2 n=f#5 v=0
213122 On ch=2 n=g5 v=84
213360 On ch=2 n=g5 v=0
213362 On ch=2 n=g#5 v=84
213600 On ch=2 n=g#5 v=0
213602 On ch=2 n=a5 v=84
214080 On ch=2 n=a5 v=0
216244 On ch=2 n=f#5 v=41
216480 On ch=2 n=f#5 v=0
216482 On ch=2 n=g5 v=62
216720 On ch=2 n=g5 v=0
216722 On ch=2 n=e5 v=62
216960 On ch=2 n=e5 v=0
216962 On ch=2 n=f#5 v=62
217200 On ch=2 n=f#5 v=0
217202 On ch=2 n=d5 v=62
217440 On ch=2 n=d5 v=0
217442 On ch=2 n=e5 v=84
217680 On ch=2 n=e5 v=0
217682 On ch=2 n=c5 v=84
217920 On ch=2 n=c5 v=0
217922 On ch=2 n=d5 v=84
218160 On ch=2 n=d5 v=0
220084 On ch=2 n=g5 v=84
220200 On ch=2 n=g5 v=0
220324 On ch=2 n=g5 v=84
220440 On ch=2 n=g5 v=0
220442 On ch=2 n=f#5 v=84
220560 On ch=2 n=f#5 v=0
220562 On ch=2 n=e5 v=84
220680 On ch=2 n=e5 v=0
220682 On ch=2 n=d5 v=84
220800 On ch=2 n=d5 v=0
220802 On ch=2 n=c#5 v=84
220920 On ch=2 n=c#5 v=0
220922 On ch=2 n=d5 v=84
221040 On ch=2 n=d5 v=0
221042 On ch=2 n=e5 v=84
221160 On ch=2 n=e5 v=0
221162 On ch=2 n=f#5 v=84
221280 On ch=2 n=f#5 v=0
221282 On ch=2 n=g5 v=84
221760 On ch=2 n=g5 v=0
222004 On ch=2 n=g5 v=84
222120 On ch=2 n=g5 v=0
222244 On ch=2 n=g5 v=84
222360 On ch=2 n=g5 v=0
222362 On ch=2 n=f#5 v=84
222480 On ch=2 n=f#5 v=0
222482 On ch=2 n=e5 v=84
222600 On ch=2 n=e5 v=0
222602 On ch=2 n=d5 v=84
222720 On ch=2 n=d5 v=0
222722 On ch=2 n=c#5 v=84
222840 On ch=2 n=c#5 v=0
222842 On ch=2 n=d5 v=84
222960 On ch=2 n=d5 v=0
222962 On ch=2 n=e5 v=84
223080 On ch=2 n=e5 v=0
223082 On ch=2 n=f#5 v=84
223200 On ch=2 n=f#5 v=0
223202 On ch=2 n=g5 v=84
223680 On ch=2 n=g5 v=0
223924 On ch=2 n=g6 v=84
224040 On ch=2 n=g6 v=0
224164 On ch=2 n=f#6 v=84
224280 On ch=2 n=f#6 v=0
224404 On ch=2 n=e6 v=84
224520 On ch=2 n=e6 v=0
224644 On ch=2 n=d6 v=62
224760 On ch=2 n=d6 v=0
224884 On ch=2 n=c#6 v=62
225000 On ch=2 n=c#6 v=0
225124 On ch=2 n=b5 v=62
225240 On ch=2 n=b5 v=0
225364 On ch=2 n=a5 v=62
225480 On ch=2 n=a5 v=0
225604 On ch=2 n=g5 v=41
225720 On ch=2 n=g5 v=0
225844 On ch=2 n=f#5 v=41
225960 On ch=2 n=f#5 v=0
226084 On ch=2 n=g5 v=25
226200 On ch=2 n=g5 v=0
226324 On ch=2 n=f#5 v=25
226440 On ch=2 n=f#5 v=0
226564 On ch=2 n=g5 v=41
226680 On ch=2 n=g5 v=0
226804 On ch=2 n=d#5 v=41
226920 On ch=2 n=d#5 v=0
227044 On ch=2 n=e5 v=62
227160 On ch=2 n=e5 v=0
227284 On ch=2 n=d#5 v=62
227400 On ch=2 n=d#5 v=0
227524 On ch=2 n=e5 v=41
227640 On ch=2 n=e5 v=0
227764 On ch=2 n=f#5 v=41
227880 On ch=2 n=f#5 v=0
228004 On ch=2 n=f#5 v=25
228120 On ch=2 n=f#5 v=0
228244 On ch=2 n=g5 v=25
228360 On ch=2 n=g5 v=0
228484 On ch=2 n=f#5 v=41
228600 On ch=2 n=f#5 v=0
228724 On ch=2 n=c#5 v=41
228840 On ch=2 n=c#5 v=0
228964 On ch=2 n=d5 v=62
229080 On ch=2 n=d5 v=0
229204 On ch=2 n=c#5 v=62
229320 On ch=2 n=c#5 v=0
229444 On ch=2 n=d5 v=62
229560 On ch=2 n=d5 v=0
229684 On ch=2 n=c5 v=62
229800 On ch=2 n=c5 v=0
232564 On ch=2 n=g5 v=84
232680 On ch=2 n=g5 v=0
232804 On ch=2 n=g5 v=84
232920 On ch=2 n=g5 v=0
232922 On ch=2 n=f#5 v=84
233040 On ch=2 n=f#5 v=0
233042 On ch=2 n=e5 v=84
233160 On ch=2 n=e5 v=0
233162 On ch=2 n=d5 v=84
233280 On ch=2 n=d5 v=0
233282 On ch=2 n=c#5 v=84
233400 On ch=2 n=c#5 v=0
233402 On ch=2 n=d5 v=84
233520 On ch=2 n=d5 v=0
233522 On ch=2 n=e5 v=84
233640 On ch=2 n=e5 v=0
233642 On ch=2 n=f#5 v=84
233760 On ch=2 n=f#5 v=0
233762 On ch=2 n=g5 v=84
234240 On ch=2 n=g5 v=0
234242 On ch=2 n=e5 v=84
234720 On ch=2 n=e5 v=0
235204 On ch=2 n=f#6 v=84
235320 On ch=2 n=f#6 v=0
235322 On ch=2 n=e6 v=84
235440 On ch=2 n=e6 v=0
235442 On ch=2 n=d6 v=84
235560 On ch=2 n=d6 v=0
235562 On ch=2 n=c#6 v=84
235680 On ch=2 n=c#6 v=0
236164 On ch=2 n=g6 v=84
236280 On ch=2 n=g6 v=0
236282 On ch=2 n=f#6 v=84
236400 On ch=2 n=f#6 v=0
236402 On ch=2 n=e6 v=84
236520 On ch=2 n=e6 v=0
236522 On ch=2 n=d6 v=84
236640 On ch=2 n=d6 v=0
236642 On ch=2 n=c#6 v=84
236760 On ch=2 n=c#6 v=0
236884 On ch=2 n=d6 v=84
237000 On ch=2 n=d6 v=0
237124 On ch=2 n=e6 v=84
237240 On ch=2 n=e6 v=0
237364 On ch=2 n=d6 v=84
237480 On ch=2 n=d6 v=0
237604 On ch=2 n=c#6 v=84
237720 On ch=2 n=c#6 v=0
238324 On ch=2 n=f#5 v=84
238440 On ch=2 n=f#5 v=0
238564 On ch=2 n=e5 v=84
238680 On ch=2 n=e5 v=0
238804 On ch=2 n=f#5 v=84
238920 On ch=2 n=f#5 v=0
239044 On ch=2 n=g5 v=84
239160 On ch=2 n=g5 v=0
239284 On ch=2 n=f#5 v=84
239400 On ch=2 n=f#5 v=0
239524 On ch=2 n=e5 v=84
240000 On ch=2 n=e5 v=0
241204 On ch=2 n=a#5 v=41
241440 On ch=2 n=a#5 v=0
241442 On ch=2 n=b5 v=41
241680 On ch=2 n=b5 v=0
241682 On ch=2 n=g#5 v=41
241920 On ch=2 n=g#5 v=0
241922 On ch=2 n=a5 v=41
242160 On ch=2 n=a5 v=0
242404 On ch=2 n=b5 v=84
242640 On ch=2 n=b5 v=0
242642 On ch=2 n=g5 v=84
242880 On ch=2 n=g5 v=0
242882 On ch=2 n=a5 v=84
243120 On ch=2 n=a5 v=0
243122 On ch=2 n=e6 v=84
243240 On ch=2 n=e6 v=0
243364 On ch=2 n=d6 v=84
243840 On ch=2 n=d6 v=0
248404 On ch=2 n=d6 v=84
248520 On ch=2 n=d6 v=0
248644 On ch=2 n=f#6 v=84
248760 On ch=2 n=f#6 v=0
249124 On ch=2 n=e6 v=84
249600 On ch=2 n=e6 v=0
250084 On ch=2 n=d6 v=84
250560 On ch=2 n=d6 v=0
251044 On ch=2 n=e6 v=84
251520 On ch=2 n=e6 v=0
252004 On ch=2 n=d6 v=84
252240 On ch=2 n=d6 v=0
252484 On ch=2 n=f#6 v=107
252720 On ch=2 n=f#6 v=0
252964 On ch=2 n=g6 v=107
253200 On ch=2 n=g6 v=0
253444 On ch=2 n=g5 v=107
253680 On ch=2 n=g5 v=0
253924 On ch=2 n=a5 v=107
254400 On ch=2 n=a5 v=0
254400 Meta TrkEnd
TrkEnd
MTrk
0 SeqSpec 43 00 01 00
0 Meta TrkName "Haydn. 1.Andante 2.Vivace"
0 Meta 0x21 00
0 PrCh ch=3 p=0
0 PrCh ch=3 p=0
0 Par ch=3 c=7 v=127
1442 On ch=3 n=d5 v=25
1678 On ch=3 n=d5 v=0
1922 On ch=3 n=d5 v=25
2158 On ch=3 n=d5 v=0
2882 On ch=3 n=d5 v=25
3598 On ch=3 n=d5 v=0
8642 On ch=3 n=e6 v=63
9118 On ch=3 n=e6 v=0
9120 On ch=3 n=d#6 v=63
9838 On ch=3 n=d#6 v=0
15842 On ch=3 n=d5 v=41
15958 On ch=3 n=d5 v=0
15960 On ch=3 n=f#5 v=41
16078 On ch=3 n=f#5 v=0
16080 On ch=3 n=e5 v=41
16198 On ch=3 n=e5 v=0
16200 On ch=3 n=g5 v=41
16318 On ch=3 n=g5 v=0
16320 On ch=3 n=f#5 v=62
16798 On ch=3 n=f#5 v=0
16800 On ch=3 n=g5 v=62
17158 On ch=3 n=g5 v=0
17160 On ch=3 n=g#5 v=62
17278 On ch=3 n=g#5 v=0
17280 On ch=3 n=a5 v=25
17878 On ch=3 n=a5 v=0
17880 On ch=3 n=g#5 v=25
17998 On ch=3 n=g#5 v=0
18000 On ch=3 n=a5 v=25
18118 On ch=3 n=a5 v=0
18120 On ch=3 n=a#5 v=25
18238 On ch=3 n=a#5 v=0
18240 On ch=3 n=b5 v=25
18358 On ch=3 n=b5 v=0
18360 On ch=3 n=g5 v=25
18478 On ch=3 n=g5 v=0
18480 On ch=3 n=f#5 v=25
18598 On ch=3 n=f#5 v=0
18600 On ch=3 n=e5 v=25
18718 On ch=3 n=e5 v=0
18720 On ch=3 n=d5 v=25
18958 On ch=3 n=d5 v=0
19202 On ch=3 n=d5 v=25
19438 On ch=3 n=d5 v=0
20162 On ch=3 n=d5 v=25
20878 On ch=3 n=d5 v=0
21602 On ch=3 n=b5 v=41
21838 On ch=3 n=b5 v=0
22022 On ch=3 n=a5 v=41
22078 On ch=3 n=a5 v=0
22080 On ch=3 n=g5 v=41
22318 On ch=3 n=g5 v=0
22502 On ch=3 n=f#5 v=41
22558 On ch=3 n=f#5 v=0
22560 On ch=3 n=e5 v=41
22798 On ch=3 n=e5 v=0
22982 On ch=3 n=d5 v=41
23038 On ch=3 n=d5 v=0
36482 On ch=3 n=c#5 v=84
36958 On ch=3 n=c#5 v=0
37442 On ch=3 n=e5 v=25
37918 On ch=3 n=e5 v=0
37920 On ch=3 n=d#5 v=25
38878 On ch=3 n=d#5 v=0
38880 On ch=3 n=e5 v=25
39358 On ch=3 n=e5 v=0
39360 On ch=3 n=d5 v=25
39838 On ch=3 n=d5 v=0
39840 On ch=3 n=g5 v=25
40318 On ch=3 n=g5 v=0
47522 On ch=3 n=d5 v=62
47758 On ch=3 n=d5 v=0
48002 On ch=3 n=d5 v=62
48238 On ch=3 n=d5 v=0
48962 On ch=3 n=d5 v=62
49678 On ch=3 n=d5 v=0
50402 On ch=3 n=b5 v=62
50638 On ch=3 n=b5 v=0
50822 On ch=3 n=a5 v=62
50878 On ch=3 n=a5 v=0
50880 On ch=3 n=g5 v=62
51118 On ch=3 n=g5 v=0
51302 On ch=3 n=f#5 v=62
51358 On ch=3 n=f#5 v=0
51360 On ch=3 n=e5 v=62
51598 On ch=3 n=e5 v=0
51782 On ch=3 n=d5 v=62
51838 On ch=3 n=d5 v=0
56162 On ch=3 n=f#5 v=62
57118 On ch=3 n=f#5 v=0
57120 On ch=3 n=g5 v=25
57238 On ch=3 n=g5 v=0
62882 On ch=3 n=e6 v=25
63358 On ch=3 n=e6 v=0
65282 On ch=3 n=c5 v=84
66238 On ch=3 n=c5 v=0
72002 On ch=3 n=a5 v=84
72358 On ch=3 n=a5 v=0
72360 On ch=3 n=a5 v=84
72478 On ch=3 n=a5 v=0
72480 On ch=3 n=a5 v=84
73198 On ch=3 n=a5 v=0
73200 On ch=3 n=a5 v=25
73438 On ch=3 n=a5 v=0
73440 On ch=3 n=a#5 v=25
73678 On ch=3 n=a#5 v=0
73680 On ch=3 n=c6 v=25
73918 On ch=3 n=c6 v=0
73920 On ch=3 n=d6 v=25
74158 On ch=3 n=d6 v=0
74160 On ch=3 n=c6 v=25
74398 On ch=3 n=c6 v=0
74400 On ch=3 n=a#5 v=25
74638 On ch=3 n=a#5 v=0
74640 On ch=3 n=b5 v=25
74878 On ch=3 n=b5 v=0
74880 On ch=3 n=a5 v=41
75358 On ch=3 n=a5 v=0
89282 On ch=3 n=d5 v=25
89518 On ch=3 n=d5 v=0
89762 On ch=3 n=d5 v=25
89998 On ch=3 n=d5 v=0
90722 On ch=3 n=d5 v=25
91438 On ch=3 n=d5 v=0
96482 On ch=3 n=e6 v=84
96958 On ch=3 n=e6 v=0
96960 On ch=3 n=d#6 v=84
97678 On ch=3 n=d#6 v=0
102242 On ch=3 n=d5 v=84
102958 On ch=3 n=d5 v=0
110882 On ch=3 n=f#5 v=25
111238 On ch=3 n=f#5 v=0
111240 On ch=3 n=g#5 v=25
111358 On ch=3 n=g#5 v=0
111360 On ch=3 n=a5 v=25
111838 On ch=3 n=a5 v=0
118082 On ch=3 n=d5 v=25
118318 On ch=3 n=d5 v=0
118562 On ch=3 n=d5 v=25
118798 On ch=3 n=d5 v=0
119522 On ch=3 n=d5 v=25
120238 On ch=3 n=d5 v=0
138242 On ch=3 n=b5 v=62
138478 On ch=3 n=b5 v=0
138602 On ch=3 n=a5 v=62
138658 On ch=3 n=a5 v=0
138722 On ch=3 n=g5 v=62
138958 On ch=3 n=g5 v=0
139082 On ch=3 n=f#5 v=62
139138 On ch=3 n=f#5 v=0
139202 On ch=3 n=e5 v=62
139258 On ch=3 n=e5 v=0
139442 On ch=3 n=d5 v=62
139498 On ch=3 n=d5 v=0
139802 On ch=3 n=c#5 v=84
139858 On ch=3 n=c#5 v=0
139860 On ch=3 n=d5 v=84
139918 On ch=3 n=d5 v=0
139920 On ch=3 n=e5 v=84
139978 On ch=3 n=e5 v=0
139980 On ch=3 n=f#5 v=84
140038 On ch=3 n=f#5 v=0
140040 On ch=3 n=g#5 v=84
140098 On ch=3 n=g#5 v=0
140100 On ch=3 n=a5 v=84
140158 On ch=3 n=a5 v=0
140160 On ch=3 n=g#5 v=62
140218 On ch=3 n=g#5 v=0
140220 On ch=3 n=a5 v=62
140278 On ch=3 n=a5 v=0
140280 On ch=3 n=g#5 v=62
140338 On ch=3 n=g#5 v=0
140340 On ch=3 n=a5 v=62
140398 On ch=3 n=a5 v=0
140400 On ch=3 n=g#5 v=62
140458 On ch=3 n=g#5 v=0
140460 On ch=3 n=a5 v=62
140518 On ch=3 n=a5 v=0
140520 On ch=3 n=g#5 v=41
140578 On ch=3 n=g#5 v=0
140580 On ch=3 n=a5 v=41
140638 On ch=3 n=a5 v=0
152642 PrCh ch=3 p=0
179044 On ch=3 n=a5 v=62
179160 On ch=3 n=a5 v=0
179162 On ch=3 n=g5 v=62
179280 On ch=3 n=g5 v=0
179282 On ch=3 n=f#5 v=62
179400 On ch=3 n=f#5 v=0
179402 On ch=3 n=e5 v=62
179520 On ch=3 n=e5 v=0
179522 On ch=3 n=d5 v=62
180000 On ch=3 n=d5 v=0
180002 On ch=3 n=b5 v=62
180120 On ch=3 n=b5 v=0
180122 On ch=3 n=a5 v=62
180240 On ch=3 n=a5 v=0
180242 On ch=3 n=g5 v=62
180360 On ch=3 n=g5 v=0
180362 On ch=3 n=f#5 v=62
180480 On ch=3 n=f#5 v=0
180482 On ch=3 n=d5 v=62
180960 On ch=3 n=d5 v=0
180962 On ch=3 n=a5 v=62
181080 On ch=3 n=a5 v=0
181204 On ch=3 n=a5 v=62
181320 On ch=3 n=a5 v=0
181444 On ch=3 n=a5 v=62
181560 On ch=3 n=a5 v=0
181684 On ch=3 n=a5 v=62
181800 On ch=3 n=a5 v=0
181924 On ch=3 n=a5 v=62
182040 On ch=3 n=a5 v=0
182164 On ch=3 n=a5 v=62
182880 On ch=3 n=a5 v=0
182882 On ch=3 n=a5 v=62
183120 On ch=3 n=a5 v=0
183122 On ch=3 n=a5 v=62
183840 On ch=3 n=a5 v=0
183842 On ch=3 n=a5 v=62
183960 On ch=3 n=a5 v=0
184324 On ch=3 n=a5 v=62
184440 On ch=3 n=a5 v=0
184804 On ch=3 n=a5 v=62
185280 On ch=3 n=a5 v=0
206644 On ch=3 n=c#6 v=62
206880 On ch=3 n=c#6 v=0
206882 On ch=3 n=d6 v=25
207120 On ch=3 n=d6 v=0
207122 On ch=3 n=b5 v=25
207360 On ch=3 n=b5 v=0
207362 On ch=3 n=c#6 v=25
207600 On ch=3 n=c#6 v=0
207602 On ch=3 n=a5 v=25
207840 On ch=3 n=a5 v=0
207842 On ch=3 n=b5 v=25
208080 On ch=3 n=b5 v=0
208082 On ch=3 n=g#5 v=25
208320 On ch=3 n=g#5 v=0
208322 On ch=3 n=a5 v=25
208560 On ch=3 n=a5 v=0
234724 On ch=3 n=a5 v=84
234840 On ch=3 n=a5 v=0
234842 On ch=3 n=g5 v=84
234960 On ch=3 n=g5 v=0
234962 On ch=3 n=f#5 v=84
235080 On ch=3 n=f#5 v=0
235082 On ch=3 n=e5 v=84
235200 On ch=3 n=e5 v=0
235202 On ch=3 n=d5 v=84
235680 On ch=3 n=d5 v=0
235682 On ch=3 n=b5 v=84
235800 On ch=3 n=b5 v=0
235802 On ch=3 n=a5 v=84
235920 On ch=3 n=a5 v=0
235922 On ch=3 n=g5 v=84
236040 On ch=3 n=g5 v=0
236042 On ch=3 n=f#5 v=84
236160 On ch=3 n=f#5 v=0
236162 On ch=3 n=e5 v=84
236640 On ch=3 n=e5 v=0
236642 On ch=3 n=a5 v=84
236760 On ch=3 n=a5 v=0
236762 On ch=3 n=g#5 v=84
236880 On ch=3 n=g#5 v=0
236882 On ch=3 n=a5 v=84
237000 On ch=3 n=a5 v=0
237002 On ch=3 n=g#5 v=84
237120 On ch=3 n=g#5 v=0
237122 On ch=3 n=a5 v=84
237240 On ch=3 n=a5 v=0
237242 On ch=3 n=g#5 v=84
237360 On ch=3 n=g#5 v=0
237362 On ch=3 n=a5 v=84
237480 On ch=3 n=a5 v=0
237482 On ch=3 n=g#5 v=84
237600 On ch=3 n=g#5 v=0
237602 On ch=3 n=a5 v=84
238080 On ch=3 n=a5 v=0
238324 On ch=3 n=d5 v=84
238440 On ch=3 n=d5 v=0
238564 On ch=3 n=c#5 v=84
238680 On ch=3 n=c#5 v=0
238804 On ch=3 n=d5 v=84
238920 On ch=3 n=d5 v=0
239044 On ch=3 n=e5 v=84
239160 On ch=3 n=e5 v=0
239284 On ch=3 n=d5 v=84
239400 On ch=3 n=d5 v=0
239524 On ch=3 n=c#5 v=84
240000 On ch=3 n=c#5 v=0
241204 On ch=3 n=a#5 v=41
241440 On ch=3 n=a#5 v=0
241442 On ch=3 n=b5 v=41
241680 On ch=3 n=b5 v=0
241682 On ch=3 n=g#5 v=41
241920 On ch=3 n=g#5 v=0
241922 On ch=3 n=a5 v=41
242160 On ch=3 n=a5 v=0
242162 On ch=3 n=f#5 v=41
242400 On ch=3 n=f#5 v=0
242402 On ch=3 n=g5 v=41
242640 On ch=3 n=g5 v=0
242642 On ch=3 n=e5 v=41
242880 On ch=3 n=e5 v=0
242882 On ch=3 n=f#5 v=41
243120 On ch=3 n=f#5 v=0
243122 On ch=3 n=c#6 v=84
243240 On ch=3 n=c#6 v=0
243364 On ch=3 n=a5 v=84
243840 On ch=3 n=a5 v=0
243842 On ch=3 n=g5 v=84
244320 On ch=3 n=g5 v=0
244322 On ch=3 n=f#5 v=84
244800 On ch=3 n=f#5 v=0
249124 On ch=3 n=a5 v=84
249600 On ch=3 n=a5 v=0
250084 On ch=3 n=a5 v=84
250560 On ch=3 n=a5 v=0
251044 On ch=3 n=a5 v=84
251520 On ch=3 n=a5 v=0
252004 On ch=3 n=a5 v=84
252240 On ch=3 n=a5 v=0
252484 On ch=3 n=d6 v=107
252720 On ch=3 n=d6 v=0
252964 On ch=3 n=d6 v=107
253200 On ch=3 n=d6 v=0
253444 On ch=3 n=e5 v=107
253680 On ch=3 n=e5 v=0
253924 On ch=3 n=f#5 v=107
254400 On ch=3 n=f#5 v=0
254400 Meta TrkEnd
TrkEnd
MTrk
0 SeqSpec 43 00 01 00
0 Meta TrkName "Sequenced by Don Stones"
0 Meta 0x21 00
0 PrCh ch=4 p=0
0 PrCh ch=4 p=0
0 Par ch=4 c=7 v=127
72002 On ch=4 n=f#5 v=84
72358 On ch=4 n=f#5 v=0
72360 On ch=4 n=f#5 v=84
72478 On ch=4 n=f#5 v=0
72480 On ch=4 n=f#5 v=84
73198 On ch=4 n=f#5 v=0
73200 On ch=4 n=f#5 v=25
73438 On ch=4 n=f#5 v=0
73440 On ch=4 n=g5 v=25
73678 On ch=4 n=g5 v=0
73680 On ch=4 n=a5 v=25
73918 On ch=4 n=a5 v=0
73920 On ch=4 n=a#5 v=25
74158 On ch=4 n=a#5 v=0
74160 On ch=4 n=a5 v=25
74398 On ch=4 n=a5 v=0
74400 On ch=4 n=g5 v=25
74638 On ch=4 n=g5 v=0
74640 On ch=4 n=g#5 v=25
74878 On ch=4 n=g#5 v=0
152642 PrCh ch=4 p=0
253924 On ch=4 n=d5 v=127
254400 On ch=4 n=d5 v=0
254884 On ch=4 n=g5 v=62
255360 On ch=4 n=g5 v=0
255844 On ch=4 n=f#5 v=62
256320 On ch=4 n=f#5 v=0
256320 Meta TrkEnd
TrkEnd
MTrk
0 SeqSpec 43 00 01 00
0 Meta TrkName "P.T. 6'35\""
0 Meta 0x21 00
0 PrCh ch=5 p=0
0 PrCh ch=5 p=0
0 Par ch=5 c=7 v=127
5762 On ch=5 n=d5 v=25
6238 On ch=5 n=d5 v=0
6240 On ch=5 n=c#5 v=25
6478 On ch=5 n=c#5 v=0
7202 On ch=5 n=a4 v=63
7678 On ch=5 n=a4 v=0
7680 On ch=5 n=a4 v=63
8158 On ch=5 n=a4 v=0
12000 On ch=5 n=a4 v=19
12236 On ch=5 n=a4 v=0
12842 On ch=5 n=b3 v=50
12878 On ch=5 n=b3 v=0
12880 On ch=5 n=d#4 v=63
12918 On ch=5 n=d#4 v=0
12920 On ch=5 n=f#4 v=63
12958 On ch=5 n=f#4 v=0
12960 On ch=5 n=b4 v=63
13318 On ch=5 n=b4 v=0
13320 On ch=5 n=b4 v=63
13438 On ch=5 n=b4 v=0
13440 On ch=5 n=b4 v=63
13678 On ch=5 n=b4 v=0
23042 On ch=5 n=a4 v=23
23758 On ch=5 n=a4 v=0
24482 On ch=5 n=a4 v=76
24958 On ch=5 n=a4 v=0
24960 On ch=5 n=a4 v=76
25438 On ch=5 n=a4 v=0
25922 On ch=5 n=g4 v=76
26398 On ch=5 n=g4 v=0
26400 On ch=5 n=c5 v=76
26878 On ch=5 n=c5 v=0
26880 On ch=5 n=b4 v=76
27358 On ch=5 n=b4 v=0
27360 On ch=5 n=d5 v=76
28318 On ch=5 n=d5 v=0
28320 On ch=5 n=e5 v=23
28558 On ch=5 n=e5 v=0
28802 On ch=5 n=d4 v=23
29038 On ch=5 n=d4 v=0
29282 On ch=5 n=d5 v=23
29518 On ch=5 n=d5 v=0
30122 On ch=5 n=a4 v=37
30238 On ch=5 n=a4 v=0
30240 On ch=5 n=d4 v=37
30718 On ch=5 n=d4 v=0
30802 On ch=5 n=c#4 v=37
30878 On ch=5 n=c#4 v=0
30880 On ch=5 n=d4 v=37
30958 On ch=5 n=d4 v=0
30960 On ch=5 n=f#4 v=37
31038 On ch=5 n=f#4 v=0
31040 On ch=5 n=a4 v=37
31118 On ch=5 n=a4 v=0
31682 On ch=5 n=g4 v=37
32158 On ch=5 n=g4 v=0
32160 On ch=5 n=f#4 v=37
32398 On ch=5 n=f#4 v=0
34562 On ch=5 n=d5 v=37
35038 On ch=5 n=d5 v=0
35040 On ch=5 n=c#5 v=37
35278 On ch=5 n=c#5 v=0
36002 On ch=5 n=a4 v=37
36478 On ch=5 n=a4 v=0
36480 On ch=5 n=a4 v=37
36958 On ch=5 n=a4 v=0
40322 On ch=5 n=f#5 v=23
40798 On ch=5 n=f#5 v=0
40800 On ch=5 n=e5 v=12
41038 On ch=5 n=e5 v=0
42482 On ch=5 n=c5 v=37
42598 On ch=5 n=c5 v=0
42600 On ch=5 n=a4 v=37
42718 On ch=5 n=a4 v=0
42720 On ch=5 n=b4 v=37
42838 On ch=5 n=b4 v=0
42840 On ch=5 n=g4 v=37
42958 On ch=5 n=g4 v=0
42960 On ch=5 n=a4 v=37
43078 On ch=5 n=a4 v=0
43080 On ch=5 n=f#4 v=37
43198 On ch=5 n=f#4 v=0
43200 On ch=5 n=g4 v=37
43438 On ch=5 n=g4 v=0
43922 On ch=5 n=b4 v=23
44038 On ch=5 n=b4 v=0
44040 On ch=5 n=g4 v=23
44158 On ch=5 n=g4 v=0
44160 On ch=5 n=a4 v=23
44278 On ch=5 n=a4 v=0
44280 On ch=5 n=f#4 v=23
44398 On ch=5 n=f#4 v=0
44400 On ch=5 n=g4 v=23
44518 On ch=5 n=g4 v=0
44520 On ch=5 n=e4 v=23
44638 On ch=5 n=e4 v=0
44640 On ch=5 n=f#4 v=23
44878 On ch=5 n=f#4 v=0
45242 On ch=5 n=f#4 v=23
45358 On ch=5 n=f#4 v=0
45360 On ch=5 n=f#3 v=23
45478 On ch=5 n=f#3 v=0
45480 On ch=5 n=f#4 v=23
45598 On ch=5 n=f#4 v=0
45600 On ch=5 n=g3 v=23
45718 On ch=5 n=g3 v=0
45720 On ch=5 n=g4 v=23
45838 On ch=5 n=g4 v=0
45840 On ch=5 n=g#3 v=23
45958 On ch=5 n=g#3 v=0
45960 On ch=5 n=g#4 v=23
46078 On ch=5 n=g#4 v=0
46202 On ch=5 n=a3 v=23
46318 On ch=5 n=a3 v=0
46320 On ch=5 n=a4 v=23
46438 On ch=5 n=a4 v=0
46440 On ch=5 n=g#4 v=23
46558 On ch=5 n=g#4 v=0
46560 On ch=5 n=a4 v=23
46678 On ch=5 n=a4 v=0
46680 On ch=5 n=a4 v=23
46798 On ch=5 n=a4 v=0
46800 On ch=5 n=c#5 v=23
46918 On ch=5 n=c#5 v=0
46920 On ch=5 n=e5 v=23
47038 On ch=5 n=e5 v=0
51842 On ch=5 n=d5 v=56
52318 On ch=5 n=d5 v=0
52320 On ch=5 n=c#5 v=23
52438 On ch=5 n=c#5 v=0
53282 On ch=5 n=a4 v=76
53758 On ch=5 n=a4 v=0
53760 On ch=5 n=a4 v=76
54238 On ch=5 n=a4 v=0
54722 On ch=5 n=g4 v=97
55198 On ch=5 n=g4 v=0
55200 On ch=5 n=c5 v=97
55678 On ch=5 n=c5 v=0
55680 On ch=5 n=b4 v=56
56158 On ch=5 n=b4 v=0
56160 On ch=5 n=d5 v=56
57118 On ch=5 n=d5 v=0
57120 On ch=5 n=e5 v=23
57238 On ch=5 n=e5 v=0
57602 On ch=5 n=d4 v=23
58078 On ch=5 n=d4 v=0
58080 On ch=5 n=d5 v=12
58318 On ch=5 n=d5 v=0
59042 On ch=5 n=d5 v=76
59518 On ch=5 n=d5 v=0
59602 On ch=5 n=d5 v=76
59678 On ch=5 n=d5 v=0
59680 On ch=5 n=c5 v=76
59758 On ch=5 n=c5 v=0
59760 On ch=5 n=a#4 v=76
59838 On ch=5 n=a#4 v=0
59840 On ch=5 n=a4 v=76
59918 On ch=5 n=a4 v=0
59920 On ch=5 n=g4 v=76
59998 On ch=5 n=g4 v=0
60000 On ch=5 n=f4 v=76
60078 On ch=5 n=f4 v=0
60080 On ch=5 n=e4 v=76
60158 On ch=5 n=e4 v=0
60160 On ch=5 n=d4 v=76
60238 On ch=5 n=d4 v=0
60240 On ch=5 n=c4 v=76
60318 On ch=5 n=c4 v=0
60320 On ch=5 n=a#3 v=76
60398 On ch=5 n=a#3 v=0
60400 On ch=5 n=a3 v=76
60478 On ch=5 n=a3 v=0
60480 On ch=5 n=g3 v=76
60958 On ch=5 n=g3 v=0
61042 On ch=5 n=g4 v=76
61118 On ch=5 n=g4 v=0
61120 On ch=5 n=a4 v=76
61198 On ch=5 n=a4 v=0
61200 On ch=5 n=a#4 v=76
61278 On ch=5 n=a#4 v=0
61280 On ch=5 n=c5 v=76
61358 On ch=5 n=c5 v=0
61360 On ch=5 n=d5 v=76
61438 On ch=5 n=d5 v=0
61440 On ch=5 n=e5 v=76
61518 On ch=5 n=e5 v=0
61520 On ch=5 n=f5 v=76
61598 On ch=5 n=f5 v=0
61600 On ch=5 n=g5 v=76
61678 On ch=5 n=g5 v=0
61680 On ch=5 n=a4 v=76
61758 On ch=5 n=a4 v=0
61760 On ch=5 n=b4 v=76
61838 On ch=5 n=b4 v=0
61840 On ch=5 n=c#5 v=76
61918 On ch=5 n=c#5 v=0
61920 On ch=5 n=d5 v=76
61998 On ch=5 n=d5 v=0
62000 On ch=5 n=e5 v=76
62078 On ch=5 n=e5 v=0
62080 On ch=5 n=f5 v=76
62158 On ch=5 n=f5 v=0
62160 On ch=5 n=a#4 v=76
62238 On ch=5 n=a#4 v=0
62240 On ch=5 n=c5 v=76
62318 On ch=5 n=c5 v=0
62320 On ch=5 n=d5 v=76
62398 On ch=5 n=d5 v=0
62400 On ch=5 n=g4 v=76
62478 On ch=5 n=g4 v=0
62480 On ch=5 n=a4 v=76
62558 On ch=5 n=a4 v=0
62560 On ch=5 n=a#4 v=76
62638 On ch=5 n=a#4 v=0
62640 On ch=5 n=e4 v=76
62718 On ch=5 n=e4 v=0
62720 On ch=5 n=f4 v=76
62798 On ch=5 n=f4 v=0
62800 On ch=5 n=g4 v=76
62878 On ch=5 n=g4 v=0
62880 On ch=5 n=c4 v=76
62958 On ch=5 n=c4 v=0
62960 On ch=5 n=e4 v=76
63038 On ch=5 n=e4 v=0
63040 On ch=5 n=g4 v=76
63118 On ch=5 n=g4 v=0
63120 On ch=5 n=c5 v=76
63198 On ch=5 n=c5 v=0
63200 On ch=5 n=e5 v=76
63278 On ch=5 n=e5 v=0
63280 On ch=5 n=c5 v=76
63358 On ch=5 n=c5 v=0
67682 On ch=5 n=f5 v=37
67918 On ch=5 n=f5 v=0
67920 On ch=5 n=a#4 v=37
68158 On ch=5 n=a#4 v=0
68160 On ch=5 n=a4 v=37
68638 On ch=5 n=a4 v=0
68640 On ch=5 n=a#4 v=37
69118 On ch=5 n=a#4 v=0
69120 On ch=5 n=f3 v=25
69198 On ch=5 n=f3 v=0
69200 On ch=5 n=a3 v=25
69278 On ch=5 n=a3 v=0
69280 On ch=5 n=c4 v=25
69358 On ch=5 n=c4 v=0
69360 On ch=5 n=f4 v=25
69438 On ch=5 n=f4 v=0
69440 On ch=5 n=a4 v=25
69518 On ch=5 n=a4 v=0
69520 On ch=5 n=f4 v=25
69598 On ch=5 n=f4 v=0
69600 On ch=5 n=c4 v=25
69678 On ch=5 n=c4 v=0
69680 On ch=5 n=f4 v=25
69758 On ch=5 n=f4 v=0
69760 On ch=5 n=c4 v=25
69838 On ch=5 n=c4 v=0
69840 On ch=5 n=a3 v=25
69918 On ch=5 n=a3 v=0
69920 On ch=5 n=c4 v=25
69998 On ch=5 n=c4 v=0
70000 On ch=5 n=a3 v=25
70078 On ch=5 n=a3 v=0
70080 On ch=5 n=f3 v=25
70318 On ch=5 n=f3 v=0
70442 On ch=5 n=f4 v=84
70558 On ch=5 n=f4 v=0
70560 On ch=5 n=d#5 v=76
70918 On ch=5 n=d#5 v=0
70920 On ch=5 n=d#5 v=76
71038 On ch=5 n=d#5 v=0
71040 On ch=5 n=d#5 v=76
71518 On ch=5 n=d#5 v=0
71882 On ch=5 n=d4 v=76
71998 On ch=5 n=d4 v=0
75362 On ch=5 n=a4 v=37
75838 On ch=5 n=a4 v=0
76202 On ch=5 n=a3 v=76
76258 On ch=5 n=a3 v=0
76322 On ch=5 n=d4 v=76
76678 On ch=5 n=d4 v=0
76680 On ch=5 n=d4 v=76
76798 On ch=5 n=d4 v=0
76800 On ch=5 n=e4 v=76
77158 On ch=5 n=e4 v=0
77160 On ch=5 n=e4 v=76
77278 On ch=5 n=e4 v=0
77280 On ch=5 n=f4 v=76
77398 On ch=5 n=f4 v=0
77522 On ch=5 n=f#4 v=76
77638 On ch=5 n=f#4 v=0
77762 On ch=5 n=g4 v=76
77878 On ch=5 n=g4 v=0
78002 On ch=5 n=a#4 v=76
78118 On ch=5 n=a#4 v=0
78242 On ch=5 n=a4 v=76
78278 On ch=5 n=a4 v=0
78322 On ch=5 n=d5 v=76
78358 On ch=5 n=d5 v=0
78402 On ch=5 n=f5 v=76
78438 On ch=5 n=f5 v=0
79202 On ch=5 n=a4 v=37
79238 On ch=5 n=a4 v=0
79282 On ch=5 n=c#5 v=37
79318 On ch=5 n=c#5 v=0
79362 On ch=5 n=e5 v=37
79398 On ch=5 n=e5 v=0
80642 On ch=5 n=a#3 v=56
82078 On ch=5 n=a#3 v=0
82080 On ch=5 n=a3 v=56
83038 On ch=5 n=a3 v=0
83282 On ch=5 n=a4 v=23
83398 On ch=5 n=a4 v=0
83522 On ch=5 n=a#4 v=23
84238 On ch=5 n=a#4 v=0
85322 On ch=5 n=a#3 v=76
85438 On ch=5 n=a#3 v=0
85440 On ch=5 n=a#4 v=76
85798 On ch=5 n=a#4 v=0
85800 On ch=5 n=a#4 v=76
85918 On ch=5 n=a#4 v=0
85920 On ch=5 n=a#4 v=76
86158 On ch=5 n=a#4 v=0
86762 On ch=5 n=a#3 v=76
86878 On ch=5 n=a#3 v=0
86880 On ch=5 n=d5 v=76
87238 On ch=5 n=d5 v=0
87240 On ch=5 n=d5 v=76
87358 On ch=5 n=d5 v=0
87360 On ch=5 n=d5 v=76
87718 On ch=5 n=d5 v=0
87720 On ch=5 n=d5 v=76
87838 On ch=5 n=d5 v=0
87840 On ch=5 n=c#5 v=76
88198 On ch=5 n=c#5 v=0
88200 On ch=5 n=c#5 v=56
88318 On ch=5 n=c#5 v=0
88320 On ch=5 n=d5 v=56
88678 On ch=5 n=d5 v=0
88680 On ch=5 n=d5 v=37
88798 On ch=5 n=d5 v=0
88800 On ch=5 n=e5 v=37
89158 On ch=5 n=e5 v=0
93602 On ch=5 n=d5 v=23
94078 On ch=5 n=d5 v=0
94080 On ch=5 n=c#5 v=12
94318 On ch=5 n=c#5 v=0
95042 On ch=5 n=a4 v=76
95518 On ch=5 n=a4 v=0
95520 On ch=5 n=a4 v=76
95998 On ch=5 n=a4 v=0
99842 On ch=5 n=a4 v=12
100078 On ch=5 n=a4 v=0
100802 On ch=5 n=d4 v=76
101278 On ch=5 n=d4 v=0
105122 On ch=5 n=d5 v=23
105598 On ch=5 n=d5 v=0
105600 On ch=5 n=c#5 v=12
105838 On ch=5 n=c#5 v=0
106562 On ch=5 n=a4 v=76
107038 On ch=5 n=a4 v=0
107040 On ch=5 n=a4 v=76
107518 On ch=5 n=a4 v=0
107520 On ch=5 n=a4 v=76
107638 On ch=5 n=a4 v=0
107640 On ch=5 n=b4 v=76
107678 On ch=5 n=b4 v=0
107680 On ch=5 n=a4 v=76
107718 On ch=5 n=a4 v=0
107720 On ch=5 n=g#4 v=76
107758 On ch=5 n=g#4 v=0
107760 On ch=5 n=a4 v=76
107938 On ch=5 n=a4 v=0
107940 On ch=5 n=b4 v=76
107998 On ch=5 n=b4 v=0
108000 On ch=5 n=g4 v=76
108478 On ch=5 n=g4 v=0
108480 On ch=5 n=f#4 v=76
108958 On ch=5 n=f#4 v=0
108960 On ch=5 n=f#5 v=23
109438 On ch=5 n=f#5 v=0
109440 On ch=5 n=e5 v=23
109678 On ch=5 n=e5 v=0
109680 On ch=5 n=c#5 v=23
109918 On ch=5 n=c#5 v=0
109920 On ch=5 n=d5 v=23
110158 On ch=5 n=d5 v=0
110160 On ch=5 n=f#4 v=23
110398 On ch=5 n=f#4 v=0
110400 On ch=5 n=g4 v=23
110638 On ch=5 n=g4 v=0
110640 On ch=5 n=g#4 v=23
110878 On ch=5 n=g#4 v=0
110880 On ch=5 n=a4 v=23
111838 On ch=5 n=a4 v=0
112202 On ch=5 n=b3 v=76
112238 On ch=5 n=b3 v=0
112240 On ch=5 n=d#4 v=76
112278 On ch=5 n=d#4 v=0
112280 On ch=5 n=f#4 v=76
112318 On ch=5 n=f#4 v=0
112320 On ch=5 n=b4 v=76
112678 On ch=5 n=b4 v=0
112680 On ch=5 n=b4 v=76
112798 On ch=5 n=b4 v=0
112800 On ch=5 n=b4 v=76
113278 On ch=5 n=b4 v=0
122402 On ch=5 n=d5 v=23
122878 On ch=5 n=d5 v=0
122880 On ch=5 n=c#5 v=23
123118 On ch=5 n=c#5 v=0
123842 On ch=5 n=a4 v=76
124318 On ch=5 n=a4 v=0
124320 On ch=5 n=a4 v=76
124798 On ch=5 n=a4 v=0
125282 On ch=5 n=g4 v=76
125758 On ch=5 n=g4 v=0
125760 On ch=5 n=c5 v=76
126238 On ch=5 n=c5 v=0
126240 On ch=5 n=b4 v=76
126718 On ch=5 n=b4 v=0
126720 On ch=5 n=d5 v=76
127678 On ch=5 n=d5 v=0
127680 On ch=5 n=e5 v=23
127918 On ch=5 n=e5 v=0
128162 On ch=5 n=d4 v=23
128398 On ch=5 n=d4 v=0
128642 On ch=5 n=d5 v=23
128878 On ch=5 n=d5 v=0
129422 On ch=5 n=b3 v=56
129458 On ch=5 n=b3 v=0
129460 On ch=5 n=d#4 v=56
129498 On ch=5 n=d#4 v=0
129500 On ch=5 n=f#4 v=56
129538 On ch=5 n=f#4 v=0
129602 On ch=5 n=b4 v=56
129658 On ch=5 n=b4 v=0
132542 On ch=5 n=a4 v=76
132598 On ch=5 n=a4 v=0
132600 On ch=5 n=c#5 v=76
132658 On ch=5 n=c#5 v=0
133022 On ch=5 n=a4 v=76
133078 On ch=5 n=a4 v=0
133080 On ch=5 n=c#5 v=76
133138 On ch=5 n=c#5 v=0
133922 On ch=5 n=d5 v=56
134398 On ch=5 n=d5 v=0
134400 On ch=5 n=c#5 v=23
134878 On ch=5 n=c#5 v=0
135362 On ch=5 n=f#5 v=23
135598 On ch=5 n=f#5 v=0
135842 On ch=5 n=f#5 v=23
136078 On ch=5 n=f#5 v=0
136802 On ch=5 n=d5 v=56
137518 On ch=5 n=d5 v=0
139682 On ch=5 n=a4 v=56
139738 On ch=5 n=a4 v=0
139740 On ch=5 n=b4 v=56
139798 On ch=5 n=b4 v=0
140642 On ch=5 n=a4 v=23
140878 On ch=5 n=a4 v=0
141122 On ch=5 n=a4 v=76
141598 On ch=5 n=a4 v=0
141600 On ch=5 n=a4 v=76
142078 On ch=5 n=a4 v=0
142562 On ch=5 n=c#5 v=56
143038 On ch=5 n=c#5 v=0
143040 On ch=5 n=d#5 v=56
143518 On ch=5 n=d#5 v=0
143520 On ch=5 n=e5 v=56
143998 On ch=5 n=e5 v=0
144000 On ch=5 n=f#5 v=23
144478 On ch=5 n=f#5 v=0
144962 On ch=5 n=e5 v=23
145438 On ch=5 n=e5 v=0
145440 On ch=5 n=d4 v=23
145918 On ch=5 n=d4 v=0
145920 On ch=5 n=d5 v=23
146398 On ch=5 n=d5 v=0
146882 On ch=5 n=d5 v=23
147358 On ch=5 n=d5 v=0
147360 On ch=5 n=e5 v=23
147838 On ch=5 n=e5 v=0
148322 On ch=5 n=c#5 v=56
148558 On ch=5 n=c#5 v=0
148802 On ch=5 n=c5 v=56
149038 On ch=5 n=c5 v=0
149282 On ch=5 n=b4 v=56
149518 On ch=5 n=b4 v=0
149762 On ch=5 n=d5 v=56
150478 On ch=5 n=d5 v=0
150962 On ch=5 n=a4 v=37
151078 On ch=5 n=a4 v=0
151202 On ch=5 n=d4 v=23
151678 On ch=5 n=d4 v=0
151680 On ch=5 n=d5 v=12
151918 On ch=5 n=d5 v=0
152642 PrCh ch=5 p=1
156004 On ch=5 n=d5 v=23
156240 On ch=5 n=d5 v=0
156242 On ch=5 n=d5 v=23
156480 On ch=5 n=d5 v=0
156482 On ch=5 n=d5 v=23
156720 On ch=5 n=d5 v=0
156722 On ch=5 n=d5 v=23
156960 On ch=5 n=d5 v=0
156962 On ch=5 n=c#5 v=23
157200 On ch=5 n=c#5 v=0
157202 On ch=5 n=c#5 v=23
157440 On ch=5 n=c#5 v=0
157442 On ch=5 n=c#5 v=23
157680 On ch=5 n=c#5 v=0
157682 On ch=5 n=c#5 v=23
157920 On ch=5 n=c#5 v=0
157922 On ch=5 n=d5 v=23
158160 On ch=5 n=d5 v=0
158162 On ch=5 n=d5 v=23
158400 On ch=5 n=d5 v=0
158402 On ch=5 n=d5 v=23
158640 On ch=5 n=d5 v=0
158642 On ch=5 n=d5 v=23
158880 On ch=5 n=d5 v=0
158882 On ch=5 n=c#5 v=37
159120 On ch=5 n=c#5 v=0
159122 On ch=5 n=c#5 v=37
159360 On ch=5 n=c#5 v=0
159362 On ch=5 n=c#5 v=56
159600 On ch=5 n=c#5 v=0
159602 On ch=5 n=c#5 v=56
159840 On ch=5 n=c#5 v=0
159842 On ch=5 n=d5 v=56
160320 On ch=5 n=d5 v=0
160322 On ch=5 n=e5 v=37
160800 On ch=5 n=e5 v=0
160802 On ch=5 n=a4 v=23
161040 On ch=5 n=a4 v=0
163684 On ch=5 n=d5 v=23
163920 On ch=5 n=d5 v=0
163922 On ch=5 n=d5 v=23
164160 On ch=5 n=d5 v=0
164162 On ch=5 n=d5 v=23
164400 On ch=5 n=d5 v=0
164402 On ch=5 n=d5 v=23
164640 On ch=5 n=d5 v=0
164642 On ch=5 n=c#5 v=23
164880 On ch=5 n=c#5 v=0
164882 On ch=5 n=c#5 v=23
165120 On ch=5 n=c#5 v=0
165122 On ch=5 n=c#5 v=23
165360 On ch=5 n=c#5 v=0
165362 On ch=5 n=c#5 v=23
165600 On ch=5 n=c#5 v=0
165602 On ch=5 n=d5 v=23
165840 On ch=5 n=d5 v=0
165842 On ch=5 n=d5 v=23
166080 On ch=5 n=d5 v=0
166082 On ch=5 n=d5 v=23
166320 On ch=5 n=d5 v=0
166322 On ch=5 n=d5 v=23
166560 On ch=5 n=d5 v=0
166562 On ch=5 n=c#5 v=37
166800 On ch=5 n=c#5 v=0
166802 On ch=5 n=c#5 v=37
167040 On ch=5 n=c#5 v=0
167042 On ch=5 n=c#5 v=56
167280 On ch=5 n=c#5 v=0
167282 On ch=5 n=c#5 v=56
167520 On ch=5 n=c#5 v=0
167522 On ch=5 n=d5 v=56
168000 On ch=5 n=d5 v=0
168002 On ch=5 n=e5 v=37
168480 On ch=5 n=e5 v=0
168482 On ch=5 n=a4 v=23
168720 On ch=5 n=a4 v=0
171124 On ch=5 n=f#5 v=23
171360 On ch=5 n=f#5 v=0
171362 On ch=5 n=g5 v=23
171600 On ch=5 n=g5 v=0
171602 On ch=5 n=e5 v=23
171840 On ch=5 n=e5 v=0
171842 On ch=5 n=f#5 v=23
172080 On ch=5 n=f#5 v=0
172082 On ch=5 n=d#5 v=23
172320 On ch=5 n=d#5 v=0
172322 On ch=5 n=e5 v=23
172560 On ch=5 n=e5 v=0
172562 On ch=5 n=c#5 v=23
172800 On ch=5 n=c#5 v=0
172802 On ch=5 n=d5 v=23
172920 On ch=5 n=d5 v=0
173044 On ch=5 n=b4 v=23
173160 On ch=5 n=b4 v=0
173284 On ch=5 n=a4 v=23
173400 On ch=5 n=a4 v=0
173402 On ch=5 n=g#4 v=23
173520 On ch=5 n=g#4 v=0
173522 On ch=5 n=f#4 v=23
173640 On ch=5 n=f#4 v=0
173642 On ch=5 n=e4 v=23
173760 On ch=5 n=e4 v=0
173762 On ch=5 n=d#4 v=23
173880 On ch=5 n=d#4 v=0
173882 On ch=5 n=e4 v=23
174000 On ch=5 n=e4 v=0
174002 On ch=5 n=f#4 v=23
174120 On ch=5 n=f#4 v=0
174122 On ch=5 n=g#4 v=23
174240 On ch=5 n=g#4 v=0
174242 On ch=5 n=a4 v=23
174720 On ch=5 n=a4 v=0
174964 On ch=5 n=a4 v=23
175080 On ch=5 n=a4 v=0
175204 On ch=5 n=a4 v=37
175320 On ch=5 n=a4 v=0
175322 On ch=5 n=g#4 v=37
175440 On ch=5 n=g#4 v=0
175442 On ch=5 n=f#4 v=37
175560 On ch=5 n=f#4 v=0
175562 On ch=5 n=e4 v=37
175680 On ch=5 n=e4 v=0
175682 On ch=5 n=d#4 v=37
175800 On ch=5 n=d#4 v=0
175802 On ch=5 n=e4 v=37
175920 On ch=5 n=e4 v=0
175922 On ch=5 n=f#4 v=37
176040 On ch=5 n=f#4 v=0
176042 On ch=5 n=g#4 v=37
176160 On ch=5 n=g#4 v=0
176162 On ch=5 n=a4 v=37
176640 On ch=5 n=a4 v=0
185524 On ch=5 n=a4 v=37
185760 On ch=5 n=a4 v=0
185762 On ch=5 n=b4 v=37
186000 On ch=5 n=b4 v=0
186002 On ch=5 n=g4 v=37
186240 On ch=5 n=g4 v=0
186242 On ch=5 n=a4 v=37
186480 On ch=5 n=a4 v=0
186482 On ch=5 n=f#4 v=37
186720 On ch=5 n=f#4 v=0
186722 On ch=5 n=g4 v=37
186960 On ch=5 n=g4 v=0
186962 On ch=5 n=e4 v=37
187200 On ch=5 n=e4 v=0
187202 On ch=5 n=f#4 v=37
187440 On ch=5 n=f#4 v=0
187442 On ch=5 n=b4 v=37
187680 On ch=5 n=b4 v=0
187682 On ch=5 n=b4 v=37
188160 On ch=5 n=b4 v=0
188404 On ch=5 n=d4 v=56
188520 On ch=5 n=d4 v=0
188644 On ch=5 n=d4 v=56
188760 On ch=5 n=d4 v=0
188762 On ch=5 n=c#4 v=56
188880 On ch=5 n=c#4 v=0
188882 On ch=5 n=b3 v=56
189000 On ch=5 n=b3 v=0
189002 On ch=5 n=a3 v=56
189120 On ch=5 n=a3 v=0
189122 On ch=5 n=g#3 v=56
189240 On ch=5 n=g#3 v=0
189242 On ch=5 n=a3 v=56
189360 On ch=5 n=a3 v=0
189362 On ch=5 n=b3 v=56
189480 On ch=5 n=b3 v=0
189482 On ch=5 n=c#4 v=56
189600 On ch=5 n=c#4 v=0
189602 On ch=5 n=d4 v=37
190080 On ch=5 n=d4 v=0
190324 On ch=5 n=c5 v=37
190440 On ch=5 n=c5 v=0
190564 On ch=5 n=c5 v=37
190680 On ch=5 n=c5 v=0
190682 On ch=5 n=b4 v=37
190800 On ch=5 n=b4 v=0
190802 On ch=5 n=a4 v=37
190920 On ch=5 n=a4 v=0
190922 On ch=5 n=g4 v=37
191040 On ch=5 n=g4 v=0
191042 On ch=5 n=f#4 v=37
191160 On ch=5 n=f#4 v=0
191162 On ch=5 n=g4 v=37
191280 On ch=5 n=g4 v=0
191282 On ch=5 n=a4 v=23
191400 On ch=5 n=a4 v=0
191402 On ch=5 n=b4 v=23
191520 On ch=5 n=b4 v=0
191522 On ch=5 n=c5 v=23
192000 On ch=5 n=c5 v=0
196084 On ch=5 n=e5 v=56
196200 On ch=5 n=e5 v=0
196324 On ch=5 n=e5 v=56
196440 On ch=5 n=e5 v=0
196442 On ch=5 n=d#5 v=56
196560 On ch=5 n=d#5 v=0
196562 On ch=5 n=c#5 v=56
196680 On ch=5 n=c#5 v=0
196682 On ch=5 n=b4 v=56
196800 On ch=5 n=b4 v=0
196802 On ch=5 n=a#4 v=56
196920 On ch=5 n=a#4 v=0
196922 On ch=5 n=b4 v=56
197040 On ch=5 n=b4 v=0
197042 On ch=5 n=c#5 v=56
197160 On ch=5 n=c#5 v=0
197162 On ch=5 n=d#5 v=56
197280 On ch=5 n=d#5 v=0
197282 On ch=5 n=e5 v=56
197760 On ch=5 n=e5 v=0
198004 On ch=5 n=d5 v=56
198120 On ch=5 n=d5 v=0
198244 On ch=5 n=d5 v=56
198360 On ch=5 n=d5 v=0
198362 On ch=5 n=c#5 v=56
198480 On ch=5 n=c#5 v=0
198482 On ch=5 n=b4 v=56
198600 On ch=5 n=b4 v=0
198602 On ch=5 n=a4 v=56
198720 On ch=5 n=a4 v=0
198722 On ch=5 n=g#4 v=56
198840 On ch=5 n=g#4 v=0
198842 On ch=5 n=a4 v=56
198960 On ch=5 n=a4 v=0
198962 On ch=5 n=b4 v=56
199080 On ch=5 n=b4 v=0
199082 On ch=5 n=c#5 v=56
199200 On ch=5 n=c#5 v=0
200164 On ch=5 n=b4 v=76
200280 On ch=5 n=b4 v=0
200404 On ch=5 n=g#5 v=76
200520 On ch=5 n=g#5 v=0
200644 On ch=5 n=a4 v=76
200760 On ch=5 n=a4 v=0
200884 On ch=5 n=f#5 v=76
201000 On ch=5 n=f#5 v=0
202084 On ch=5 n=e5 v=23
202200 On ch=5 n=e5 v=0
202324 On ch=5 n=c#5 v=23
202440 On ch=5 n=c#5 v=0
202564 On ch=5 n=d5 v=23
202680 On ch=5 n=d5 v=0
202804 On ch=5 n=f#4 v=23
202920 On ch=5 n=f#4 v=0
203044 On ch=5 n=g4 v=23
203520 On ch=5 n=g4 v=0
203764 On ch=5 n=g4 v=37
203880 On ch=5 n=g4 v=0
204004 On ch=5 n=f#4 v=37
204480 On ch=5 n=f#4 v=0
208564 On ch=5 n=c#5 v=23
208800 On ch=5 n=c#5 v=0
208802 On ch=5 n=d5 v=23
209040 On ch=5 n=d5 v=0
209042 On ch=5 n=b4 v=23
209280 On ch=5 n=b4 v=0
209282 On ch=5 n=c#5 v=23
209520 On ch=5 n=c#5 v=0
209522 On ch=5 n=a#4 v=23
209760 On ch=5 n=a#4 v=0
209762 On ch=5 n=b4 v=37
210000 On ch=5 n=b4 v=0
210002 On ch=5 n=g#4 v=37
210240 On ch=5 n=g#4 v=0
210242 On ch=5 n=a4 v=56
210720 On ch=5 n=a4 v=0
210722 On ch=5 n=a4 v=56
214080 On ch=5 n=a4 v=0
214324 On ch=5 n=a4 v=23
214560 On ch=5 n=a4 v=0
214562 On ch=5 n=b4 v=23
214800 On ch=5 n=b4 v=0
214802 On ch=5 n=g#4 v=23
215040 On ch=5 n=g#4 v=0
215042 On ch=5 n=a4 v=23
215280 On ch=5 n=a4 v=0
215282 On ch=5 n=f#4 v=23
215520 On ch=5 n=f#4 v=0
215522 On ch=5 n=g4 v=37
215760 On ch=5 n=g4 v=0
215762 On ch=5 n=e4 v=37
216000 On ch=5 n=e4 v=0
216002 On ch=5 n=f#4 v=37
216240 On ch=5 n=f#4 v=0
216242 On ch=5 n=d#4 v=37
216480 On ch=5 n=d#4 v=0
216482 On ch=5 n=e4 v=56
216720 On ch=5 n=e4 v=0
216722 On ch=5 n=c#4 v=56
216960 On ch=5 n=c#4 v=0
216962 On ch=5 n=d4 v=56
217200 On ch=5 n=d4 v=0
217202 On ch=5 n=b3 v=56
217440 On ch=5 n=b3 v=0
217442 On ch=5 n=c4 v=56
217680 On ch=5 n=c4 v=0
217682 On ch=5 n=a3 v=56
217920 On ch=5 n=a3 v=0
217922 On ch=5 n=b3 v=56
218160 On ch=5 n=b3 v=0
218162 On ch=5 n=g3 v=56
218280 On ch=5 n=g3 v=0
218404 On ch=5 n=g4 v=76
219120 On ch=5 n=g4 v=0
229924 On ch=5 n=b4 v=56
230400 On ch=5 n=b4 v=0
230644 On ch=5 n=a4 v=56
230760 On ch=5 n=a4 v=0
230884 On ch=5 n=a4 v=56
231000 On ch=5 n=a4 v=0
231002 On ch=5 n=g4 v=56
231120 On ch=5 n=g4 v=0
231122 On ch=5 n=f#4 v=56
231240 On ch=5 n=f#4 v=0
231242 On ch=5 n=e4 v=56
231360 On ch=5 n=e4 v=0
231362 On ch=5 n=d#4 v=56
231480 On ch=5 n=d#4 v=0
231482 On ch=5 n=e4 v=56
231600 On ch=5 n=e4 v=0
231602 On ch=5 n=f#4 v=56
231720 On ch=5 n=f#4 v=0
231722 On ch=5 n=g4 v=56
231840 On ch=5 n=g4 v=0
231842 On ch=5 n=a4 v=56
232320 On ch=5 n=a4 v=0
243124 On ch=5 n=g4 v=76
243240 On ch=5 n=g4 v=0
243844 On ch=5 n=e5 v=76
244080 On ch=5 n=e5 v=0
244082 On ch=5 n=c#5 v=76
244320 On ch=5 n=c#5 v=0
244322 On ch=5 n=d5 v=76
244800 On ch=5 n=d5 v=0
245284 On ch=5 n=g5 v=23
245760 On ch=5 n=g5 v=0
246244 On ch=5 n=f#5 v=23
246720 On ch=5 n=f#5 v=0
247204 On ch=5 n=g5 v=23
247680 On ch=5 n=g5 v=0
248164 On ch=5 n=f#5 v=23
248640 On ch=5 n=f#5 v=0
248884 On ch=5 n=d5 v=56
249000 On ch=5 n=d5 v=0
249124 On ch=5 n=d5 v=56
249240 On ch=5 n=d5 v=0
249242 On ch=5 n=c#5 v=56
249360 On ch=5 n=c#5 v=0
249362 On ch=5 n=b4 v=56
249480 On ch=5 n=b4 v=0
249482 On ch=5 n=a4 v=56
249600 On ch=5 n=a4 v=0
249602 On ch=5 n=g#4 v=56
249720 On ch=5 n=g#4 v=0
249722 On ch=5 n=a4 v=56
249840 On ch=5 n=a4 v=0
249842 On ch=5 n=b4 v=56
249960 On ch=5 n=b4 v=0
249962 On ch=5 n=c#5 v=56
250080 On ch=5 n=c#5 v=0
250082 On ch=5 n=d5 v=76
250200 On ch=5 n=d5 v=0
250202 On ch=5 n=c#5 v=76
250320 On ch=5 n=c#5 v=0
250322 On ch=5 n=b4 v=76
250440 On ch=5 n=b4 v=0
250442 On ch=5 n=a4 v=76
250560 On ch=5 n=a4 v=0
250562 On ch=5 n=g4 v=76
250680 On ch=5 n=g4 v=0
250682 On ch=5 n=f#4 v=76
250800 On ch=5 n=f#4 v=0
250802 On ch=5 n=e4 v=76
250920 On ch=5 n=e4 v=0
250922 On ch=5 n=d4 v=76
251040 On ch=5 n=d4 v=0
251042 On ch=5 n=d4 v=76
251160 On ch=5 n=d4 v=0
251162 On ch=5 n=c#4 v=76
251280 On ch=5 n=c#4 v=0
251282 On ch=5 n=b3 v=76
251400 On ch=5 n=b3 v=0
251402 On ch=5 n=a3 v=76
251520 On ch=5 n=a3 v=0
251522 On ch=5 n=g#3 v=76
251640 On ch=5 n=g#3 v=0
251642 On ch=5 n=a3 v=76
251760 On ch=5 n=a3 v=0
251762 On ch=5 n=b3 v=76
251880 On ch=5 n=b3 v=0
251882 On ch=5 n=c#4 v=76
252000 On ch=5 n=c#4 v=0
252002 On ch=5 n=d4 v=76
252240 On ch=5 n=d4 v=0
252484 On ch=5 n=b3 v=76
252720 On ch=5 n=b3 v=0
252964 On ch=5 n=g3 v=76
253200 On ch=5 n=g3 v=0
253444 On ch=5 n=g3 v=76
253680 On ch=5 n=g3 v=0
253924 On ch=5 n=d4 v=76
254400 On ch=5 n=d4 v=0
254884 On ch=5 n=e5 v=56
255360 On ch=5 n=e5 v=0
255844 On ch=5 n=f#5 v=56
256320 On ch=5 n=f#5 v=0
256804 On ch=5 n=g4 v=23
257280 On ch=5 n=g4 v=0
257764 On ch=5 n=f#4 v=23
258240 On ch=5 n=f#4 v=0
258240 Meta TrkEnd
TrkEnd
MTrk
0 SeqSpec 43 00 01 00
0 Meta TrkName "        "
0 Meta 0x21 00
0 PrCh ch=6 p=0
0 PrCh ch=6 p=0
0 Par ch=6 c=7 v=127
5762 On ch=6 n=a4 v=25
6478 On ch=6 n=a4 v=0
7202 On ch=6 n=f#4 v=63
7678 On ch=6 n=f#4 v=0
7680 On ch=6 n=g4 v=63
8158 On ch=6 n=g4 v=0
24482 On ch=6 n=f#4 v=76
24958 On ch=6 n=f#4 v=0
24960 On ch=6 n=g4 v=76
25438 On ch=6 n=g4 v=0
25922 On ch=6 n=e4 v=76
26398 On ch=6 n=e4 v=0
26400 On ch=6 n=a4 v=76
26878 On ch=6 n=a4 v=0
26880 On ch=6 n=b4 v=76
27358 On ch=6 n=b4 v=0
27360 On ch=6 n=a4 v=76
28318 On ch=6 n=a4 v=0
28320 On ch=6 n=a4 v=23
28558 On ch=6 n=a4 v=0
30242 On ch=6 n=a3 v=23
30718 On ch=6 n=a3 v=0
31682 On ch=6 n=d4 v=23
32398 On ch=6 n=d4 v=0
34562 On ch=6 n=a4 v=23
35278 On ch=6 n=a4 v=0
36002 On ch=6 n=f#4 v=23
36478 On ch=6 n=f#4 v=0
36480 On ch=6 n=g4 v=23
36958 On ch=6 n=g4 v=0
40322 On ch=6 n=a4 v=23
41038 On ch=6 n=a4 v=0
51842 On ch=6 n=a4 v=37
52558 On ch=6 n=a4 v=0
53282 On ch=6 n=f#4 v=56
53758 On ch=6 n=f#4 v=0
53760 On ch=6 n=g4 v=56
54238 On ch=6 n=g4 v=0
54722 On ch=6 n=e4 v=76
55198 On ch=6 n=e4 v=0
55200 On ch=6 n=a4 v=76
55678 On ch=6 n=a4 v=0
55680 On ch=6 n=b4 v=56
56158 On ch=6 n=b4 v=0
56160 On ch=6 n=a4 v=56
57118 On ch=6 n=a4 v=0
57120 On ch=6 n=a4 v=56
57238 On ch=6 n=a4 v=0
59042 On ch=6 n=a4 v=76
59518 On ch=6 n=a4 v=0
68162 On ch=6 n=c4 v=37
69118 On ch=6 n=c4 v=0
76202 On ch=6 n=a2 v=56
76258 On ch=6 n=a2 v=0
76322 On ch=6 n=d3 v=56
76678 On ch=6 n=d3 v=0
76680 On ch=6 n=d3 v=56
76798 On ch=6 n=d3 v=0
76800 On ch=6 n=e3 v=56
77158 On ch=6 n=e3 v=0
77160 On ch=6 n=e3 v=56
77278 On ch=6 n=e3 v=0
77280 On ch=6 n=f3 v=56
77398 On ch=6 n=f3 v=0
77522 On ch=6 n=f#3 v=56
77638 On ch=6 n=f#3 v=0
77762 On ch=6 n=g3 v=56
77878 On ch=6 n=g3 v=0
78002 On ch=6 n=a#3 v=56
78118 On ch=6 n=a#3 v=0
80642 On ch=6 n=a#2 v=56
82078 On ch=6 n=a#2 v=0
82080 On ch=6 n=a2 v=56
83038 On ch=6 n=a2 v=0
86762 On ch=6 n=a#2 v=56
86878 On ch=6 n=a#2 v=0
86880 On ch=6 n=a#4 v=56
87238 On ch=6 n=a#4 v=0
87240 On ch=6 n=a#4 v=56
87358 On ch=6 n=a#4 v=0
87360 On ch=6 n=a#4 v=56
87718 On ch=6 n=a#4 v=0
87720 On ch=6 n=a#4 v=56
87838 On ch=6 n=a#4 v=0
87840 On ch=6 n=a4 v=56
88198 On ch=6 n=a4 v=0
88200 On ch=6 n=a4 v=56
88318 On ch=6 n=a4 v=0
88320 On ch=6 n=a4 v=56
88678 On ch=6 n=a4 v=0
88680 On ch=6 n=a4 v=37
88798 On ch=6 n=a4 v=0
88800 On ch=6 n=a4 v=37
89158 On ch=6 n=a4 v=0
93602 On ch=6 n=a4 v=23
94318 On ch=6 n=a4 v=0
95042 On ch=6 n=f#4 v=76
95518 On ch=6 n=f#4 v=0
95520 On ch=6 n=g4 v=76
95998 On ch=6 n=g4 v=0
100802 On ch=6 n=a3 v=56
101278 On ch=6 n=a3 v=0
105122 On ch=6 n=a4 v=23
105838 On ch=6 n=a4 v=0
106562 On ch=6 n=f#4 v=76
107038 On ch=6 n=f#4 v=0
107040 On ch=6 n=g4 v=76
107518 On ch=6 n=g4 v=0
108002 On ch=6 n=e4 v=76
108478 On ch=6 n=e4 v=0
108480 On ch=6 n=d#4 v=76
108958 On ch=6 n=d#4 v=0
108960 On ch=6 n=d#5 v=23
109438 On ch=6 n=d#5 v=0
122402 On ch=6 n=a4 v=37
123118 On ch=6 n=a4 v=0
123842 On ch=6 n=f#4 v=76
124318 On ch=6 n=f#4 v=0
124320 On ch=6 n=g4 v=76
124798 On ch=6 n=g4 v=0
125282 On ch=6 n=e4 v=76
125758 On ch=6 n=e4 v=0
125760 On ch=6 n=a4 v=76
126238 On ch=6 n=a4 v=0
126240 On ch=6 n=b4 v=76
126718 On ch=6 n=b4 v=0
126720 On ch=6 n=a4 v=76
127678 On ch=6 n=a4 v=0
127680 On ch=6 n=a4 v=23
127918 On ch=6 n=a4 v=0
133922 On ch=6 n=a4 v=37
134878 On ch=6 n=a4 v=0
135362 On ch=6 n=d5 v=37
135598 On ch=6 n=d5 v=0
135842 On ch=6 n=d5 v=37
136078 On ch=6 n=d5 v=0
141122 On ch=6 n=f#4 v=76
141598 On ch=6 n=f#4 v=0
141600 On ch=6 n=g4 v=76
142078 On ch=6 n=g4 v=0
142562 On ch=6 n=g4 v=56
143038 On ch=6 n=g4 v=0
143040 On ch=6 n=c5 v=56
143518 On ch=6 n=c5 v=0
143520 On ch=6 n=b4 v=56
143998 On ch=6 n=b4 v=0
144000 On ch=6 n=d5 v=23
144478 On ch=6 n=d5 v=0
144962 On ch=6 n=a4 v=23
145438 On ch=6 n=a4 v=0
148322 On ch=6 n=e4 v=56
148558 On ch=6 n=e4 v=0
148802 On ch=6 n=f#4 v=56
149038 On ch=6 n=f#4 v=0
149282 On ch=6 n=g4 v=56
149518 On ch=6 n=g4 v=0
149762 On ch=6 n=a4 v=56
150478 On ch=6 n=a4 v=0
152642 PrCh ch=6 p=1
185524 On ch=6 n=f#4 v=37
185760 On ch=6 n=f#4 v=0
185762 On ch=6 n=g4 v=37
186000 On ch=6 n=g4 v=0
186002 On ch=6 n=e4 v=37
186240 On ch=6 n=e4 v=0
186242 On ch=6 n=f#4 v=37
186480 On ch=6 n=f#4 v=0
186482 On ch=6 n=d#4 v=37
186720 On ch=6 n=d#4 v=0
186722 On ch=6 n=e4 v=37
186960 On ch=6 n=e4 v=0
186962 On ch=6 n=c#4 v=37
187200 On ch=6 n=c#4 v=0
187202 On ch=6 n=d#4 v=37
187680 On ch=6 n=d#4 v=0
187682 On ch=6 n=e4 v=37
188160 On ch=6 n=e4 v=0
203764 On ch=6 n=a3 v=37
203880 On ch=6 n=a3 v=0
204004 On ch=6 n=b3 v=37
204480 On ch=6 n=b3 v=0
218404 On ch=6 n=e4 v=66
219120 On ch=6 n=e4 v=0
243364 On ch=6 n=a4 v=76
243840 On ch=6 n=a4 v=0
243842 On ch=6 n=a4 v=76
244320 On ch=6 n=a4 v=0
244322 On ch=6 n=d4 v=76
244800 On ch=6 n=d4 v=0
245284 On ch=6 n=e5 v=23
245760 On ch=6 n=e5 v=0
246244 On ch=6 n=d5 v=23
246720 On ch=6 n=d5 v=0
247204 On ch=6 n=e5 v=23
247680 On ch=6 n=e5 v=0
248164 On ch=6 n=d5 v=23
248640 On ch=6 n=d5 v=0
252484 On ch=6 n=b2 v=23
252720 On ch=6 n=b2 v=0
252964 On ch=6 n=g2 v=23
253200 On ch=6 n=g2 v=0
253444 On ch=6 n=g2 v=23
253680 On ch=6 n=g2 v=0
253924 On ch=6 n=d3 v=23
254400 On ch=6 n=d3 v=0
254884 On ch=6 n=a4 v=56
255360 On ch=6 n=a4 v=0
255844 On ch=6 n=d5 v=56
256320 On ch=6 n=d5 v=0
256804 On ch=6 n=e4 v=23
257280 On ch=6 n=e4 v=0
257764 On ch=6 n=d4 v=23
258240 On ch=6 n=d4 v=0
258240 Meta TrkEnd
TrkEnd
MTrk
0 SeqSpec 43 00 01 00
0 Meta TrkName "        "
0 Meta 0x21 00
0 PrCh ch=7 p=0
0 PrCh ch=7 p=0
0 Par ch=7 c=7 v=127
7202 On ch=7 n=d4 v=63
7678 On ch=7 n=d4 v=0
7680 On ch=7 n=e4 v=63
8158 On ch=7 n=e4 v=0
24482 On ch=7 n=d4 v=76
24958 On ch=7 n=d4 v=0
24960 On ch=7 n=e4 v=76
25438 On ch=7 n=e4 v=0
26402 On ch=7 n=f#4 v=76
26878 On ch=7 n=f#4 v=0
26880 On ch=7 n=g4 v=76
27358 On ch=7 n=g4 v=0
30242 On ch=7 n=d3 v=23
30718 On ch=7 n=d3 v=0
36002 On ch=7 n=d4 v=23
36478 On ch=7 n=d4 v=0
36480 On ch=7 n=e4 v=23
36958 On ch=7 n=e4 v=0
53282 On ch=7 n=d4 v=56
53758 On ch=7 n=d4 v=0
53760 On ch=7 n=e4 v=56
54238 On ch=7 n=e4 v=0
55202 On ch=7 n=f#4 v=76
55678 On ch=7 n=f#4 v=0
55680 On ch=7 n=g4 v=56
56158 On ch=7 n=g4 v=0
59042 On ch=7 n=f4 v=76
59518 On ch=7 n=f4 v=0
95042 On ch=7 n=d4 v=76
95518 On ch=7 n=d4 v=0
95520 On ch=7 n=e4 v=76
95998 On ch=7 n=e4 v=0
100802 On ch=7 n=f#3 v=56
101278 On ch=7 n=f#3 v=0
106562 On ch=7 n=d4 v=76
107038 On ch=7 n=d4 v=0
107040 On ch=7 n=e4 v=76
107518 On ch=7 n=e4 v=0
123842 On ch=7 n=d4 v=76
124318 On ch=7 n=d4 v=0
124320 On ch=7 n=e4 v=76
124798 On ch=7 n=e4 v=0
141122 On ch=7 n=d4 v=76
141598 On ch=7 n=d4 v=0
141600 On ch=7 n=e4 v=76
142078 On ch=7 n=e4 v=0
142562 On ch=7 n=e4 v=56
143038 On ch=7 n=e4 v=0
143040 On ch=7 n=a4 v=56
143518 On ch=7 n=a4 v=0
143520 On ch=7 n=g4 v=56
143998 On ch=7 n=g4 v=0
144000 On ch=7 n=a4 v=23
144478 On ch=7 n=a4 v=0
152642 PrCh ch=7 p=1
203764 On ch=7 n=a2 v=37
203880 On ch=7 n=a2 v=0
204004 On ch=7 n=b2 v=37
204480 On ch=7 n=b2 v=0
218404 On ch=7 n=a3 v=66
219120 On ch=7 n=a3 v=0
245284 On ch=7 n=a4 v=23
245760 On ch=7 n=a4 v=0
247204 On ch=7 n=a4 v=23
247680 On ch=7 n=a4 v=0
256804 On ch=7 n=a3 v=23
257280 On ch=7 n=a3 v=0
257280 Meta TrkEnd
TrkEnd
MTrk
0 SeqSpec 43 00 01 00
0 Meta TrkName "        "
0 Meta 0x21 00
0 PrCh ch=8 p=0
0 PrCh ch=8 p=0
0 Par ch=8 c=7 v=127
59042 On ch=8 n=d4 v=76
59518 On ch=8 n=d4 v=0
100802 On ch=8 n=d3 v=56
101278 On ch=8 n=d3 v=0
143042 On ch=8 n=f#4 v=56
143518 On ch=8 n=f#4 v=0
143518 Meta TrkEnd
TrkEnd
