MFile 1 5 480
MTrk
0 TimeSig 3/4 24 8
0 Tempo 1132075
17760 Tempo 1153846
18240 Tempo 1200000
18720 Tempo 1224490
20160 Tempo 1132075
72480 Tempo 1153846
72960 Tempo 1200000
73440 Tempo 1224490
73440 Meta TrkEnd
TrkEnd
MTrk
0 SeqSpec 43 00 01 00
0 Meta TrkName "Piano Sonata No.17 in B Flat"
0 Meta 0x21 00
0 PrCh ch=1 p=0
0 Par ch=1 c=7 v=127
0 Par ch=1 c=10 v=72
240 On ch=1 n=d6 v=64
360 On ch=1 n=d6 v=0
480 On ch=1 n=d#6 v=64
720 On ch=1 n=d#6 v=0
720 On ch=1 n=d6 v=64
888 On ch=1 n=d6 v=0
960 On ch=1 n=g6 v=64
1200 On ch=1 n=g6 v=0
1200 On ch=1 n=d6 v=64
1440 On ch=1 n=d6 v=0
1680 On ch=1 n=d6 v=64
1800 On ch=1 n=d6 v=0
1920 On ch=1 n=d#6 v=64
2160 On ch=1 n=d#6 v=0
2160 On ch=1 n=d6 v=64
2328 On ch=1 n=d6 v=0
2400 On ch=1 n=a6 v=64
2640 On ch=1 n=a6 v=0
2640 On ch=1 n=d6 v=64
2880 On ch=1 n=d6 v=0
3120 On ch=1 n=d6 v=64
3240 On ch=1 n=d6 v=0
3360 On ch=1 n=d#6 v=64
3600 On ch=1 n=d#6 v=0
3600 On ch=1 n=d6 v=64
3840 On ch=1 n=d6 v=0
3840 On ch=1 n=a#6 v=64
3960 On ch=1 n=a#6 v=0
4080 On ch=1 n=g6 v=64
4080 On ch=1 n=a#6 v=64
4248 On ch=1 n=a#6 v=0
4248 On ch=1 n=g6 v=0
4320 On ch=1 n=g6 v=64
4320 On ch=1 n=a#6 v=64
4560 On ch=1 n=a#6 v=0
4560 On ch=1 n=c7 v=64
4620 On ch=1 n=c7 v=0
4620 On ch=1 n=a#6 v=64
4680 On ch=1 n=a#6 v=0
4680 On ch=1 n=a6 v=64
4740 On ch=1 n=a6 v=0
4740 On ch=1 n=a#6 v=64
4800 On ch=1 n=a#6 v=0
4800 On ch=1 n=g6 v=0
4800 On ch=1 n=a6 v=64
5280 On ch=1 n=a6 v=0
6000 On ch=1 n=g6 v=64
6120 On ch=1 n=g6 v=0
6240 On ch=1 n=a6 v=64
6480 On ch=1 n=a6 v=0
6480 On ch=1 n=g6 v=64
6648 On ch=1 n=g6 v=0
6720 On ch=1 n=d7 v=64
6960 On ch=1 n=d7 v=0
6960 On ch=1 n=f6 v=64
7200 On ch=1 n=f6 v=0
7200 On ch=1 n=g5 v=64
7200 On ch=1 n=f6 v=64
7680 On ch=1 n=f6 v=0
7680 On ch=1 n=d#6 v=64
8160 On ch=1 n=d#6 v=0
8160 On ch=1 n=g5 v=0
8160 On ch=1 n=f#5 v=64
8160 On ch=1 n=d6 v=64
8640 On ch=1 n=d6 v=0
8640 On ch=1 n=f#5 v=0
8640 On ch=1 n=g5 v=64
8640 On ch=1 n=d6 v=64
8880 On ch=1 n=d6 v=0
8880 On ch=1 n=c#6 v=64
9120 On ch=1 n=c#6 v=0
9120 On ch=1 n=g5 v=0
9120 On ch=1 n=g6 v=64
9372 On ch=1 n=g6 v=0
9480 On ch=1 n=a#5 v=64
9600 On ch=1 n=a#5 v=0
9600 On ch=1 n=a5 v=64
9852 On ch=1 n=a5 v=0
9960 On ch=1 n=g5 v=64
10080 On ch=1 n=g5 v=0
10080 On ch=1 n=f#5 v=64
10480 On ch=1 n=c#7 v=40
10500 On ch=1 n=f#5 v=0
10558 On ch=1 n=c#7 v=0
10560 On ch=1 n=d7 v=40
11010 On ch=1 n=d7 v=0
11760 On ch=1 n=a#5 v=64
11880 On ch=1 n=a#5 v=0
12000 On ch=1 n=a5 v=64
12240 On ch=1 n=a5 v=0
12240 On ch=1 n=a#5 v=64
12408 On ch=1 n=a#5 v=0
12480 On ch=1 n=f6 v=64
12720 On ch=1 n=f6 v=0
12720 On ch=1 n=d6 v=64
12960 On ch=1 n=d6 v=0
12960 On ch=1 n=b5 v=64
13200 On ch=1 n=b5 v=0
13200 On ch=1 n=c6 v=64
13440 On ch=1 n=c6 v=0
13440 On ch=1 n=c5 v=64
13920 On ch=1 n=c5 v=0
14880 On ch=1 n=a#6 v=64
14880 On ch=1 n=d7 v=64
15000 On ch=1 n=d7 v=0
15000 On ch=1 n=a#6 v=0
15000 On ch=1 n=a6 v=64
15000 On ch=1 n=c7 v=64
15048 On ch=1 n=c7 v=0
15048 On ch=1 n=a6 v=0
15120 On ch=1 n=g6 v=64
15120 On ch=1 n=a#6 v=64
15168 On ch=1 n=a#6 v=0
15168 On ch=1 n=g6 v=0
15240 On ch=1 n=f6 v=64
15240 On ch=1 n=a6 v=64
15288 On ch=1 n=a6 v=0
15288 On ch=1 n=f6 v=0
15360 On ch=1 n=d#6 v=64
15360 On ch=1 n=g6 v=64
15480 On ch=1 n=g6 v=0
15480 On ch=1 n=d#6 v=0
15480 On ch=1 n=d6 v=64
15480 On ch=1 n=f6 v=64
15540 On ch=1 n=f6 v=0
15540 On ch=1 n=d6 v=0
15600 On ch=1 n=c6 v=64
15600 On ch=1 n=d#6 v=64
15720 On ch=1 n=d#6 v=0
15720 On ch=1 n=c6 v=0
15720 On ch=1 n=a#5 v=64
15720 On ch=1 n=d6 v=64
15840 On ch=1 n=d6 v=0
15840 On ch=1 n=a#5 v=0
15840 On ch=1 n=c6 v=64
15840 On ch=1 n=d#6 v=64
16320 On ch=1 n=d#6 v=0
16320 On ch=1 n=c6 v=0
16320 On ch=1 n=a#5 v=64
16320 On ch=1 n=d6 v=64
16800 On ch=1 n=d6 v=0
16800 On ch=1 n=a#5 v=0
17280 On ch=1 n=a#5 v=64
17400 On ch=1 n=a#5 v=0
17400 On ch=1 n=c6 v=64
17460 On ch=1 n=c6 v=0
17460 On ch=1 n=a#5 v=64
17520 On ch=1 n=a#5 v=0
17520 On ch=1 n=a5 v=64
17580 On ch=1 n=a5 v=0
17580 On ch=1 n=a#5 v=64
17640 On ch=1 n=a#5 v=0
17640 On ch=1 n=c6 v=64
17700 On ch=1 n=c6 v=0
17700 On ch=1 n=d6 v=64
17760 On ch=1 n=d6 v=0
17760 On ch=1 n=d#6 v=64
18000 On ch=1 n=d#6 v=0
18000 On ch=1 n=d6 v=64
18120 On ch=1 n=d6 v=0
18240 On ch=1 n=a#6 v=64
18600 On ch=1 n=a#6 v=0
18600 On ch=1 n=a#5 v=48
18600 On ch=1 n=e6 v=48
18720 On ch=1 n=e6 v=0
18720 On ch=1 n=a#5 v=0
18720 On ch=1 n=a#5 v=48
18720 On ch=1 n=g6 v=48
19200 On ch=1 n=g6 v=0
19200 On ch=1 n=a#5 v=0
19200 On ch=1 n=a5 v=48
19200 On ch=1 n=f6 v=48
19680 On ch=1 n=f6 v=0
19680 On ch=1 n=a5 v=0
20160 On ch=1 n=d#6 v=64
20220 On ch=1 n=d#6 v=0
20220 On ch=1 n=f6 v=64
20280 On ch=1 n=f6 v=0
20280 On ch=1 n=d#6 v=64
20340 On ch=1 n=d#6 v=0
20340 On ch=1 n=f6 v=64
20400 On ch=1 n=f6 v=0
20400 On ch=1 n=d#6 v=64
20440 On ch=1 n=d#6 v=0
20440 On ch=1 n=f6 v=64
20480 On ch=1 n=f6 v=0
20480 On ch=1 n=d#6 v=64
20520 On ch=1 n=d#6 v=0
20520 On ch=1 n=d6 v=64
20580 On ch=1 n=d6 v=0
20580 On ch=1 n=c6 v=64
20640 On ch=1 n=c6 v=0
20640 On ch=1 n=c6 v=64
21120 On ch=1 n=c6 v=0
21120 On ch=1 n=d6 v=64
21600 On ch=1 n=d6 v=0
21600 On ch=1 n=c6 v=64
21660 On ch=1 n=c6 v=0
21660 On ch=1 n=d6 v=64
21720 On ch=1 n=d6 v=0
21720 On ch=1 n=c6 v=64
21780 On ch=1 n=c6 v=0
21780 On ch=1 n=d6 v=64
21840 On ch=1 n=d6 v=0
21840 On ch=1 n=c6 v=64
21880 On ch=1 n=c6 v=0
21880 On ch=1 n=d6 v=64
21920 On ch=1 n=d6 v=0
21920 On ch=1 n=c6 v=64
21960 On ch=1 n=c6 v=0
21960 On ch=1 n=a#5 v=64
22020 On ch=1 n=a#5 v=0
22020 On ch=1 n=a5 v=64
22080 On ch=1 n=a5 v=0
22080 On ch=1 n=a5 v=64
22560 On ch=1 n=a5 v=0
22560 On ch=1 n=a#5 v=64
23040 On ch=1 n=a#5 v=0
23040 On ch=1 n=g6 v=64
23160 On ch=1 n=g6 v=0
23160 On ch=1 n=a#6 v=64
23220 On ch=1 n=a#6 v=0
23280 On ch=1 n=d#6 v=64
23400 On ch=1 n=d#6 v=0
23400 On ch=1 n=g6 v=64
23460 On ch=1 n=g6 v=0
23520 On ch=1 n=d6 v=64
23640 On ch=1 n=d6 v=0
23640 On ch=1 n=f6 v=64
23700 On ch=1 n=f6 v=0
23760 On ch=1 n=a#5 v=64
23880 On ch=1 n=a#5 v=0
23880 On ch=1 n=d6 v=64
24000 On ch=1 n=d6 v=0
24000 On ch=1 n=a5 v=64
24120 On ch=1 n=a5 v=0
24120 On ch=1 n=c6 v=64
24240 On ch=1 n=c6 v=0
24240 On ch=1 n=c5 v=64
24360 On ch=1 n=c5 v=0
24360 On ch=1 n=d#5 v=64
24420 On ch=1 n=d#5 v=0
24420 On ch=1 n=d5 v=64
24450 On ch=1 n=d5 v=0
24450 On ch=1 n=f5 v=64
24480 On ch=1 n=f5 v=0
24480 On ch=1 n=d#5 v=64
24960 On ch=1 n=d#5 v=0
24960 On ch=1 n=d5 v=64
25440 On ch=1 n=d5 v=0
25920 On ch=1 n=d#6 v=64
25980 On ch=1 n=d#6 v=0
25980 On ch=1 n=f6 v=64
26040 On ch=1 n=f6 v=0
26040 On ch=1 n=d#6 v=64
26100 On ch=1 n=d#6 v=0
26100 On ch=1 n=f6 v=64
26160 On ch=1 n=f6 v=0
26160 On ch=1 n=d#6 v=64
26200 On ch=1 n=d#6 v=0
26200 On ch=1 n=f6 v=64
26240 On ch=1 n=f6 v=0
26240 On ch=1 n=d#6 v=64
26280 On ch=1 n=d#6 v=0
26280 On ch=1 n=d6 v=64
26340 On ch=1 n=d6 v=0
26340 On ch=1 n=c6 v=64
26400 On ch=1 n=c6 v=0
26400 On ch=1 n=c6 v=64
26880 On ch=1 n=c6 v=0
26880 On ch=1 n=d6 v=64
27360 On ch=1 n=d6 v=0
27360 On ch=1 n=c6 v=64
27420 On ch=1 n=c6 v=0
27420 On ch=1 n=d6 v=64
27480 On ch=1 n=d6 v=0
27480 On ch=1 n=c6 v=64
27540 On ch=1 n=c6 v=0
27540 On ch=1 n=d6 v=64
27600 On ch=1 n=d6 v=0
27600 On ch=1 n=c6 v=64
27640 On ch=1 n=c6 v=0
27640 On ch=1 n=d6 v=64
27680 On ch=1 n=d6 v=0
27680 On ch=1 n=c6 v=64
27720 On ch=1 n=c6 v=0
27720 On ch=1 n=a#5 v=64
27780 On ch=1 n=a#5 v=0
27780 On ch=1 n=a5 v=64
27840 On ch=1 n=a5 v=0
27840 On ch=1 n=a5 v=64
28320 On ch=1 n=a5 v=0
28320 On ch=1 n=a#5 v=64
28800 On ch=1 n=a#5 v=0
28800 On ch=1 n=g6 v=64
28920 On ch=1 n=g6 v=0
28920 On ch=1 n=d#6 v=64
28992 On ch=1 n=d#6 v=0
29040 On ch=1 n=c6 v=64
29112 On ch=1 n=c6 v=0
29160 On ch=1 n=g5 v=64
29280 On ch=1 n=g5 v=0
29280 On ch=1 n=a#5 v=64
29760 On ch=1 n=a#5 v=0
29760 On ch=1 n=a5 v=64
29820 On ch=1 n=a5 v=0
29820 On ch=1 n=a#5 v=64
29880 On ch=1 n=a#5 v=0
29880 On ch=1 n=a5 v=64
29940 On ch=1 n=a5 v=0
29940 On ch=1 n=a#5 v=64
30000 On ch=1 n=a#5 v=0
30000 On ch=1 n=a5 v=64
30040 On ch=1 n=a5 v=0
30040 On ch=1 n=a#5 v=64
30080 On ch=1 n=a#5 v=0
30080 On ch=1 n=a5 v=64
30120 On ch=1 n=a5 v=0
30120 On ch=1 n=g5 v=64
30180 On ch=1 n=g5 v=0
30180 On ch=1 n=a5 v=64
30240 On ch=1 n=a5 v=0
30240 On ch=1 n=a#6 v=80
30312 On ch=1 n=a#6 v=0
30360 On ch=1 n=a6 v=80
30432 On ch=1 n=a6 v=0
30480 On ch=1 n=c7 v=80
30600 On ch=1 n=c7 v=0
30600 On ch=1 n=a#6 v=80
30720 On ch=1 n=a#6 v=0
30720 On ch=1 n=g#6 v=80
30792 On ch=1 n=g#6 v=0
30840 On ch=1 n=g6 v=80
30912 On ch=1 n=g6 v=0
30960 On ch=1 n=a#6 v=80
31080 On ch=1 n=a#6 v=0
31080 On ch=1 n=g#6 v=80
31200 On ch=1 n=g#6 v=0
31200 On ch=1 n=g6 v=80
31272 On ch=1 n=g6 v=0
31320 On ch=1 n=f#6 v=80
31392 On ch=1 n=f#6 v=0
31440 On ch=1 n=a6 v=80
31560 On ch=1 n=a6 v=0
31560 On ch=1 n=g6 v=80
31680 On ch=1 n=g6 v=0
31680 On ch=1 n=a#6 v=80
31800 On ch=1 n=a#6 v=0
31800 On ch=1 n=d#6 v=79
31800 On ch=1 n=g6 v=79
31872 On ch=1 n=g6 v=0
31872 On ch=1 n=d#6 v=0
31920 On ch=1 n=d6 v=77
31920 On ch=1 n=f6 v=77
31992 On ch=1 n=f6 v=0
31992 On ch=1 n=d6 v=0
32040 On ch=1 n=c6 v=76
32040 On ch=1 n=d#6 v=76
32160 On ch=1 n=d#6 v=0
32160 On ch=1 n=c6 v=0
32160 On ch=1 n=a#5 v=75
32160 On ch=1 n=d6 v=75
32640 On ch=1 n=d6 v=0
32640 On ch=1 n=a#5 v=0
32640 On ch=1 n=a5 v=69
32640 On ch=1 n=c6 v=69
32760 On ch=1 n=c6 v=0
32760 On ch=1 n=d6 v=68
32820 On ch=1 n=d6 v=0
32820 On ch=1 n=c6 v=67
32880 On ch=1 n=c6 v=0
32880 On ch=1 n=a#5 v=67
33000 On ch=1 n=a#5 v=0
33000 On ch=1 n=c6 v=65
33120 On ch=1 n=c6 v=0
33120 On ch=1 n=a5 v=0
33120 On ch=1 n=a#5 v=64
33360 On ch=1 n=a#5 v=0
33360 On ch=1 n=f5 v=64
33420 On ch=1 n=f5 v=0
33480 On ch=1 n=d5 v=64
33564 On ch=1 n=d5 v=0
33600 On ch=1 n=c5 v=64
34080 On ch=1 n=c5 v=0
34080 On ch=1 n=a#4 v=48
34416 On ch=1 n=a#4 v=0
34800 On ch=1 n=f6 v=64
34920 On ch=1 n=f6 v=0
35040 On ch=1 n=g6 v=64
35280 On ch=1 n=g6 v=0
35280 On ch=1 n=f6 v=64
35448 On ch=1 n=f6 v=0
35520 On ch=1 n=a#6 v=64
35760 On ch=1 n=a#6 v=0
35760 On ch=1 n=f6 v=64
36000 On ch=1 n=f6 v=0
36240 On ch=1 n=f6 v=64
36360 On ch=1 n=f6 v=0
36480 On ch=1 n=g6 v=64
36720 On ch=1 n=g6 v=0
36720 On ch=1 n=f6 v=64
36888 On ch=1 n=f6 v=0
36960 On ch=1 n=c7 v=64
37200 On ch=1 n=c7 v=0
37200 On ch=1 n=d#6 v=64
37440 On ch=1 n=d#6 v=0
37440 On ch=1 n=c6 v=64
37440 On ch=1 n=d#6 v=64
37920 On ch=1 n=d#6 v=0
37920 On ch=1 n=c6 v=0
38160 On ch=1 n=c6 v=64
38160 On ch=1 n=d#6 v=64
38328 On ch=1 n=d#6 v=0
38328 On ch=1 n=c6 v=0
38400 On ch=1 n=a#5 v=64
38400 On ch=1 n=d6 v=64
38640 On ch=1 n=d6 v=0
38640 On ch=1 n=a#5 v=0
38640 On ch=1 n=a#6 v=64
38640 On ch=1 n=d6 v=64
38880 On ch=1 n=d6 v=0
38880 On ch=1 n=a#6 v=0
39120 On ch=1 n=a#5 v=64
39120 On ch=1 n=d6 v=64
39360 On ch=1 n=d6 v=0
39360 On ch=1 n=a#5 v=0
39360 On ch=1 n=a5 v=64
39360 On ch=1 n=c6 v=64
39600 On ch=1 n=c6 v=0
39600 On ch=1 n=a5 v=0
40080 On ch=1 n=c6 v=64
40080 On ch=1 n=a6 v=64
40248 On ch=1 n=a6 v=0
40248 On ch=1 n=c6 v=0
40320 On ch=1 n=a5 v=64
40320 On ch=1 n=c6 v=64
40800 On ch=1 n=c6 v=0
40800 On ch=1 n=a5 v=0
41040 On ch=1 n=a5 v=64
41040 On ch=1 n=c6 v=64
41208 On ch=1 n=c6 v=0
41208 On ch=1 n=a5 v=0
41280 On ch=1 n=g5 v=64
41280 On ch=1 n=a#5 v=64
41520 On ch=1 n=a#5 v=0
41520 On ch=1 n=g5 v=0
41520 On ch=1 n=g6 v=64
41520 On ch=1 n=a#5 v=64
41760 On ch=1 n=a#5 v=0
41760 On ch=1 n=g6 v=0
42000 On ch=1 n=g5 v=64
42000 On ch=1 n=a#5 v=64
42240 On ch=1 n=a#5 v=0
42240 On ch=1 n=g5 v=0
42240 On ch=1 n=f#5 v=64
42240 On ch=1 n=a5 v=64
42480 On ch=1 n=a5 v=0
42480 On ch=1 n=f#5 v=0
42960 On ch=1 n=d#6 v=64
42960 On ch=1 n=f#5 v=64
43128 On ch=1 n=f#5 v=0
43128 On ch=1 n=d#6 v=0
43200 On ch=1 n=g5 v=64
43200 On ch=1 n=d6 v=64
43680 On ch=1 n=d6 v=0
43680 On ch=1 n=g5 v=0
44040 On ch=1 n=g5 v=64
44160 On ch=1 n=g5 v=0
44160 On ch=1 n=c6 v=64
44220 On ch=1 n=c6 v=0
44220 On ch=1 n=d6 v=64
44280 On ch=1 n=d6 v=0
44280 On ch=1 n=c6 v=64
44340 On ch=1 n=c6 v=0
44340 On ch=1 n=d6 v=64
44400 On ch=1 n=d6 v=0
44400 On ch=1 n=c6 v=64
44440 On ch=1 n=c6 v=0
44440 On ch=1 n=d6 v=64
44480 On ch=1 n=d6 v=0
44480 On ch=1 n=c6 v=64
44520 On ch=1 n=c6 v=0
44520 On ch=1 n=a#5 v=64
44580 On ch=1 n=a#5 v=0
44580 On ch=1 n=a5 v=64
44640 On ch=1 n=a5 v=0
44640 On ch=1 n=a#5 v=64
44760 On ch=1 n=a#5 v=0
44760 On ch=1 n=g5 v=64
44832 On ch=1 n=g5 v=0
44880 On ch=1 n=f#5 v=64
44952 On ch=1 n=f#5 v=0
45000 On ch=1 n=g5 v=64
45120 On ch=1 n=g5 v=0
45120 On ch=1 n=g4 v=64
45600 On ch=1 n=g4 v=0
45840 On ch=1 n=g#6 v=64
45840 On ch=1 n=b5 v=64
46008 On ch=1 n=b5 v=0
46008 On ch=1 n=g#6 v=0
46080 On ch=1 n=c6 v=64
46080 On ch=1 n=g6 v=64
46560 On ch=1 n=g6 v=0
46560 On ch=1 n=c6 v=0
46920 On ch=1 n=c6 v=64
47040 On ch=1 n=c6 v=0
47040 On ch=1 n=f6 v=64
47100 On ch=1 n=f6 v=0
47100 On ch=1 n=g6 v=64
47160 On ch=1 n=g6 v=0
47160 On ch=1 n=f6 v=64
47220 On ch=1 n=f6 v=0
47220 On ch=1 n=g6 v=64
47280 On ch=1 n=g6 v=0
47280 On ch=1 n=f6 v=64
47320 On ch=1 n=f6 v=0
47320 On ch=1 n=g6 v=64
47360 On ch=1 n=g6 v=0
47360 On ch=1 n=f6 v=64
47400 On ch=1 n=f6 v=0
47400 On ch=1 n=d#6 v=64
47460 On ch=1 n=d#6 v=0
47460 On ch=1 n=d6 v=64
47520 On ch=1 n=d6 v=0
47520 On ch=1 n=d6 v=64
47580 On ch=1 n=d6 v=0
47580 On ch=1 n=f6 v=64
47640 On ch=1 n=f6 v=0
47640 On ch=1 n=d#6 v=64
47928 On ch=1 n=d#6 v=0
48000 On ch=1 n=d6 v=64
48480 On ch=1 n=d6 v=0
48960 On ch=1 n=d5 v=64
48960 On ch=1 n=c6 v=64
49440 On ch=1 n=c6 v=0
49440 On ch=1 n=d5 v=0
49440 On ch=1 n=b5 v=64
50040 On ch=1 n=b5 v=0
50040 On ch=1 n=g5 v=64
50160 On ch=1 n=g5 v=0
50160 On ch=1 n=b5 v=64
50232 On ch=1 n=b5 v=0
50280 On ch=1 n=d6 v=64
50352 On ch=1 n=d6 v=0
50400 On ch=1 n=c6 v=48
50400 On ch=1 n=d5 v=48
50880 On ch=1 n=d5 v=0
50880 On ch=1 n=c6 v=0
50880 On ch=1 n=b5 v=53
51480 On ch=1 n=b5 v=0
51480 On ch=1 n=g5 v=60
51600 On ch=1 n=g5 v=0
51600 On ch=1 n=b5 v=61
51672 On ch=1 n=b5 v=0
51720 On ch=1 n=d6 v=63
51792 On ch=1 n=d6 v=0
51840 On ch=1 n=c6 v=64
51960 On ch=1 n=c6 v=0
51960 On ch=1 n=g5 v=65
52080 On ch=1 n=g5 v=0
52080 On ch=1 n=c6 v=67
52200 On ch=1 n=c6 v=0
52200 On ch=1 n=d#6 v=68
52320 On ch=1 n=d#6 v=0
52320 On ch=1 n=d6 v=69
52440 On ch=1 n=d6 v=0
52440 On ch=1 n=g5 v=71
52560 On ch=1 n=g5 v=0
52560 On ch=1 n=d6 v=72
52680 On ch=1 n=d6 v=0
52680 On ch=1 n=f6 v=73
52800 On ch=1 n=f6 v=0
52800 On ch=1 n=d#6 v=75
52920 On ch=1 n=d#6 v=0
52920 On ch=1 n=c6 v=76
53040 On ch=1 n=c6 v=0
53040 On ch=1 n=g6 v=77
53160 On ch=1 n=g6 v=0
53160 On ch=1 n=d#6 v=79
53280 On ch=1 n=d#6 v=0
53280 On ch=1 n=a#6 v=80
53400 On ch=1 n=a#6 v=0
53400 On ch=1 n=g#6 v=80
53460 On ch=1 n=g#6 v=0
53520 On ch=1 n=g6 v=80
53580 On ch=1 n=g6 v=0
53640 On ch=1 n=f6 v=80
53700 On ch=1 n=f6 v=0
53760 On ch=1 n=d#6 v=80
53904 On ch=1 n=d#6 v=0
54000 On ch=1 n=g5 v=72
54000 On ch=1 n=d#6 v=72
54480 On ch=1 n=d#6 v=0
54480 On ch=1 n=g5 v=0
54480 On ch=1 n=f5 v=64
54480 On ch=1 n=d6 v=64
54720 On ch=1 n=d6 v=0
54720 On ch=1 n=f5 v=0
54720 On ch=1 n=c#6 v=56
54840 On ch=1 n=c#6 v=0
54840 On ch=1 n=a5 v=57
54960 On ch=1 n=a5 v=0
54960 On ch=1 n=c#6 v=57
55080 On ch=1 n=c#6 v=0
55080 On ch=1 n=e6 v=58
55200 On ch=1 n=e6 v=0
55200 On ch=1 n=d6 v=59
55320 On ch=1 n=d6 v=0
55320 On ch=1 n=a5 v=59
55440 On ch=1 n=a5 v=0
55440 On ch=1 n=d6 v=60
55560 On ch=1 n=d6 v=0
55560 On ch=1 n=f6 v=61
55680 On ch=1 n=f6 v=0
55680 On ch=1 n=e6 v=61
55800 On ch=1 n=e6 v=0
55800 On ch=1 n=c#6 v=62
55920 On ch=1 n=c#6 v=0
55920 On ch=1 n=a5 v=63
56040 On ch=1 n=a5 v=0
56040 On ch=1 n=g5 v=63
56160 On ch=1 n=g5 v=0
56160 On ch=1 n=f5 v=64
56280 On ch=1 n=f5 v=0
56280 On ch=1 n=d5 v=65
56400 On ch=1 n=d5 v=0
56400 On ch=1 n=e5 v=65
56520 On ch=1 n=e5 v=0
56520 On ch=1 n=d5 v=66
56640 On ch=1 n=d5 v=0
56640 On ch=1 n=f5 v=67
56760 On ch=1 n=f5 v=0
56760 On ch=1 n=d5 v=67
56880 On ch=1 n=d5 v=0
56880 On ch=1 n=f#5 v=68
57000 On ch=1 n=f#5 v=0
57000 On ch=1 n=d5 v=69
57120 On ch=1 n=d5 v=0
57120 On ch=1 n=g5 v=69
57240 On ch=1 n=g5 v=0
57240 On ch=1 n=d5 v=70
57360 On ch=1 n=d5 v=0
57360 On ch=1 n=a5 v=71
57480 On ch=1 n=a5 v=0
57480 On ch=1 n=d5 v=71
57600 On ch=1 n=d5 v=0
57600 On ch=1 n=a#5 v=72
57720 On ch=1 n=a#5 v=0
57720 On ch=1 n=g5 v=73
57840 On ch=1 n=g5 v=0
57840 On ch=1 n=a5 v=73
57960 On ch=1 n=a5 v=0
57960 On ch=1 n=g5 v=74
58080 On ch=1 n=g5 v=0
58080 On ch=1 n=a#5 v=75
58200 On ch=1 n=a#5 v=0
58200 On ch=1 n=g5 v=75
58320 On ch=1 n=g5 v=0
58320 On ch=1 n=a5 v=76
58440 On ch=1 n=a5 v=0
58440 On ch=1 n=g5 v=77
58560 On ch=1 n=g5 v=0
58560 On ch=1 n=g6 v=77
58776 On ch=1 n=g6 v=0
58920 On ch=1 n=g5 v=56
58920 On ch=1 n=c#6 v=56
59040 On ch=1 n=c#6 v=0
59040 On ch=1 n=g5 v=0
59040 On ch=1 n=g5 v=56
59040 On ch=1 n=c#6 v=56
59520 On ch=1 n=c#6 v=0
59520 On ch=1 n=g5 v=0
59520 On ch=1 n=f#5 v=40
59520 On ch=1 n=d6 v=40
60000 On ch=1 n=d6 v=0
60000 On ch=1 n=f#5 v=0
60480 On ch=1 n=c6 v=64
60540 On ch=1 n=c6 v=0
60540 On ch=1 n=d6 v=64
60600 On ch=1 n=d6 v=0
60600 On ch=1 n=c6 v=64
60660 On ch=1 n=c6 v=0
60660 On ch=1 n=d6 v=64
60720 On ch=1 n=d6 v=0
60720 On ch=1 n=c6 v=64
60760 On ch=1 n=c6 v=0
60760 On ch=1 n=d6 v=64
60800 On ch=1 n=d6 v=0
60800 On ch=1 n=c6 v=64
60840 On ch=1 n=c6 v=0
60840 On ch=1 n=a#5 v=64
60900 On ch=1 n=a#5 v=0
60900 On ch=1 n=a5 v=64
60960 On ch=1 n=a5 v=0
60960 On ch=1 n=a5 v=64
61440 On ch=1 n=a5 v=0
61440 On ch=1 n=a#5 v=64
61920 On ch=1 n=a#5 v=0
61920 On ch=1 n=a5 v=64
61980 On ch=1 n=a5 v=0
61980 On ch=1 n=a#5 v=64
62040 On ch=1 n=a#5 v=0
62040 On ch=1 n=a5 v=64
62100 On ch=1 n=a5 v=0
62100 On ch=1 n=a#5 v=64
62160 On ch=1 n=a#5 v=0
62160 On ch=1 n=a5 v=64
62200 On ch=1 n=a5 v=0
62200 On ch=1 n=a#5 v=64
62240 On ch=1 n=a#5 v=0
62240 On ch=1 n=a5 v=64
62280 On ch=1 n=a5 v=0
62280 On ch=1 n=g5 v=64
62340 On ch=1 n=g5 v=0
62340 On ch=1 n=f#5 v=64
62400 On ch=1 n=f#5 v=0
62400 On ch=1 n=f#5 v=64
62880 On ch=1 n=f#5 v=0
62880 On ch=1 n=g5 v=64
63360 On ch=1 n=g5 v=0
63360 On ch=1 n=d#6 v=64
63480 On ch=1 n=d#6 v=0
63480 On ch=1 n=g6 v=64
63528 On ch=1 n=g6 v=0
63600 On ch=1 n=c6 v=64
63648 On ch=1 n=c6 v=0
63720 On ch=1 n=d#6 v=64
63768 On ch=1 n=d#6 v=0
63840 On ch=1 n=a#5 v=64
63960 On ch=1 n=a#5 v=0
63960 On ch=1 n=d6 v=64
64032 On ch=1 n=d6 v=0
64080 On ch=1 n=g5 v=64
64152 On ch=1 n=g5 v=0
64200 On ch=1 n=a#5 v=64
64272 On ch=1 n=a#5 v=0
64320 On ch=1 n=f#5 v=64
64440 On ch=1 n=f#5 v=0
64440 On ch=1 n=a5 v=64
64560 On ch=1 n=a5 v=0
64560 On ch=1 n=a4 v=64
64680 On ch=1 n=a4 v=0
64680 On ch=1 n=c5 v=64
64740 On ch=1 n=c5 v=0
64740 On ch=1 n=a#4 v=64
64770 On ch=1 n=a#4 v=0
64770 On ch=1 n=d5 v=64
64800 On ch=1 n=d5 v=0
64800 On ch=1 n=c5 v=64
65280 On ch=1 n=c5 v=0
65280 On ch=1 n=a#4 v=64
65760 On ch=1 n=a#4 v=0
66240 On ch=1 n=c6 v=64
66300 On ch=1 n=c6 v=0
66300 On ch=1 n=d6 v=64
66360 On ch=1 n=d6 v=0
66360 On ch=1 n=c6 v=64
66420 On ch=1 n=c6 v=0
66420 On ch=1 n=d6 v=64
66480 On ch=1 n=d6 v=0
66480 On ch=1 n=c6 v=64
66520 On ch=1 n=c6 v=0
66520 On ch=1 n=d6 v=64
66560 On ch=1 n=d6 v=0
66560 On ch=1 n=c6 v=64
66600 On ch=1 n=c6 v=0
66600 On ch=1 n=a#5 v=64
66660 On ch=1 n=a#5 v=0
66660 On ch=1 n=a5 v=64
66720 On ch=1 n=a5 v=0
66720 On ch=1 n=a5 v=64
67200 On ch=1 n=a5 v=0
67200 On ch=1 n=a#5 v=64
67680 On ch=1 n=a#5 v=0
67680 On ch=1 n=a5 v=48
67740 On ch=1 n=a5 v=0
67740 On ch=1 n=a#5 v=49
67800 On ch=1 n=a#5 v=0
67800 On ch=1 n=a5 v=49
67860 On ch=1 n=a5 v=0
67860 On ch=1 n=a#5 v=50
67920 On ch=1 n=a#5 v=0
67920 On ch=1 n=a5 v=51
67960 On ch=1 n=a5 v=0
67960 On ch=1 n=a#5 v=51
68000 On ch=1 n=a#5 v=0
68000 On ch=1 n=a5 v=52
68040 On ch=1 n=a5 v=0
68040 On ch=1 n=g5 v=52
68100 On ch=1 n=g5 v=0
68100 On ch=1 n=f#5 v=53
68160 On ch=1 n=f#5 v=0
68160 On ch=1 n=f#5 v=53
68640 On ch=1 n=f#5 v=0
68640 On ch=1 n=g5 v=59
69120 On ch=1 n=g5 v=0
69120 On ch=1 n=d#6 v=64
69240 On ch=1 n=d#6 v=0
69240 On ch=1 n=c6 v=65
69312 On ch=1 n=c6 v=0
69360 On ch=1 n=a#5 v=67
69432 On ch=1 n=a#5 v=0
69480 On ch=1 n=a5 v=68
69600 On ch=1 n=a5 v=0
69600 On ch=1 n=g5 v=69
70080 On ch=1 n=g5 v=0
70080 On ch=1 n=f#5 v=75
70560 On ch=1 n=f#5 v=0
70560 On ch=1 n=g6 v=80
70680 On ch=1 n=g6 v=0
70680 On ch=1 n=g5 v=80
70752 On ch=1 n=g5 v=0
70800 On ch=1 n=d6 v=80
70872 On ch=1 n=d6 v=0
70920 On ch=1 n=g5 v=80
70992 On ch=1 n=g5 v=0
71040 On ch=1 n=g6 v=80
71160 On ch=1 n=g6 v=0
71160 On ch=1 n=g5 v=80
71244 On ch=1 n=g5 v=0
71280 On ch=1 n=d6 v=80
71364 On ch=1 n=d6 v=0
71400 On ch=1 n=g5 v=80
71484 On ch=1 n=g5 v=0
71520 On ch=1 n=d#6 v=80
71640 On ch=1 n=d#6 v=0
71640 On ch=1 n=g5 v=80
71760 On ch=1 n=g5 v=0
71760 On ch=1 n=c6 v=80
71880 On ch=1 n=c6 v=0
71880 On ch=1 n=g5 v=80
72000 On ch=1 n=g5 v=0
72000 On ch=1 n=a#5 v=80
72120 On ch=1 n=a#5 v=0
72120 On ch=1 n=g5 v=80
72240 On ch=1 n=g5 v=0
72240 On ch=1 n=f#5 v=80
72360 On ch=1 n=f#5 v=0
72360 On ch=1 n=g5 v=80
72480 On ch=1 n=g5 v=0
72480 On ch=1 n=d5 v=80
72600 On ch=1 n=d5 v=0
72600 On ch=1 n=g5 v=80
72720 On ch=1 n=g5 v=0
72720 On ch=1 n=a#4 v=80
72840 On ch=1 n=a#4 v=0
72840 On ch=1 n=d5 v=80
72960 On ch=1 n=d5 v=0
72960 On ch=1 n=a4 v=80
73080 On ch=1 n=a4 v=0
73080 On ch=1 n=d5 v=80
73200 On ch=1 n=d5 v=0
73200 On ch=1 n=g5 v=80
73272 On ch=1 n=g5 v=0
73320 On ch=1 n=f#5 v=80
73392 On ch=1 n=f#5 v=0
73440 On ch=1 n=g5 v=80
73680 On ch=1 n=g5 v=0
73680 On ch=1 n=d5 v=80
73740 On ch=1 n=d5 v=0
73800 On ch=1 n=a#4 v=80
73884 On ch=1 n=a#4 v=0
73920 On ch=1 n=a4 v=80
74400 On ch=1 n=a4 v=0
74400 On ch=1 n=g4 v=80
74880 On ch=1 n=g4 v=0
74880 Meta TrkEnd
TrkEnd
MTrk
0 SeqSpec 43 00 01 00
0 Meta TrkName "by FJ Haydn (2nd mvmt. - Andante)"
0 Meta 0x21 00
0 PrCh ch=2 p=0
0 Par ch=2 c=7 v=127
0 Par ch=2 c=10 v=56
0 On ch=2 n=a#4 v=64
0 On ch=2 n=g4 v=64
480 On ch=2 n=g4 v=0
480 On ch=2 n=a#4 v=0
1440 On ch=2 n=a4 v=64
1440 On ch=2 n=f#4 v=64
1920 On ch=2 n=f#4 v=0
1920 On ch=2 n=a4 v=0
2880 On ch=2 n=a#4 v=64
2880 On ch=2 n=g4 v=64
3360 On ch=2 n=g4 v=0
3360 On ch=2 n=a#4 v=0
4560 On ch=2 n=d4 v=64
4680 On ch=2 n=d4 v=0
4800 On ch=2 n=d#4 v=64
5040 On ch=2 n=d#4 v=0
5040 On ch=2 n=d4 v=64
5208 On ch=2 n=d4 v=0
5280 On ch=2 n=a4 v=64
5520 On ch=2 n=a4 v=0
5520 On ch=2 n=c4 v=64
5760 On ch=2 n=c4 v=0
5760 On ch=2 n=a#3 v=64
6240 On ch=2 n=a#3 v=0
6240 On ch=2 n=b3 v=64
7200 On ch=2 n=b3 v=0
7440 On ch=2 n=c4 v=64
7560 On ch=2 n=c4 v=0
7680 On ch=2 n=c3 v=64
7920 On ch=2 n=c3 v=0
7920 On ch=2 n=c4 v=64
8088 On ch=2 n=c4 v=0
8160 On ch=2 n=d4 v=64
8400 On ch=2 n=d4 v=0
8400 On ch=2 n=d3 v=64
8640 On ch=2 n=d3 v=0
8640 On ch=2 n=d#4 v=64
8880 On ch=2 n=d#4 v=0
8880 On ch=2 n=d#3 v=64
9120 On ch=2 n=d#3 v=0
9120 On ch=2 n=d#4 v=64
9600 On ch=2 n=c#5 v=64
9600 On ch=2 n=g4 v=64
10080 On ch=2 n=g4 v=0
10080 On ch=2 n=c#5 v=0
10080 On ch=2 n=d#4 v=0
10080 On ch=2 n=d4 v=64
10080 On ch=2 n=a4 v=64
10080 On ch=2 n=d5 v=64
10560 On ch=2 n=d5 v=0
10560 On ch=2 n=a4 v=0
10560 On ch=2 n=d4 v=0
11520 On ch=2 n=d4 v=64
11520 On ch=2 n=f4 v=64
12000 On ch=2 n=f4 v=0
12000 On ch=2 n=d4 v=0
13200 On ch=2 n=d#4 v=64
13320 On ch=2 n=d#4 v=0
13440 On ch=2 n=d4 v=64
13680 On ch=2 n=d4 v=0
13680 On ch=2 n=d#4 v=64
13848 On ch=2 n=d#4 v=0
13920 On ch=2 n=c5 v=64
14160 On ch=2 n=c5 v=0
14160 On ch=2 n=g4 v=64
14400 On ch=2 n=g4 v=0
14400 On ch=2 n=e4 v=64
14640 On ch=2 n=e4 v=0
14640 On ch=2 n=f4 v=64
14880 On ch=2 n=f4 v=0
14880 On ch=2 n=f3 v=64
15360 On ch=2 n=f3 v=0
16200 On ch=2 n=f4 v=64
16240 On ch=2 n=f4 v=0
16240 On ch=2 n=g4 v=64
16280 On ch=2 n=g4 v=0
16280 On ch=2 n=a4 v=64
16320 On ch=2 n=a4 v=0
16320 On ch=2 n=a#4 v=64
16560 On ch=2 n=a#4 v=0
16560 On ch=2 n=g4 v=64
16704 On ch=2 n=g4 v=0
16800 On ch=2 n=f4 v=64
16944 On ch=2 n=f4 v=0
17040 On ch=2 n=d#4 v=64
17280 On ch=2 n=d#4 v=0
17280 On ch=2 n=d4 v=64
17640 On ch=2 n=d4 v=0
17640 On ch=2 n=c4 v=64
17700 On ch=2 n=c4 v=0
17700 On ch=2 n=a#3 v=64
17760 On ch=2 n=a#3 v=0
17760 On ch=2 n=a3 v=64
18000 On ch=2 n=a3 v=0
18000 On ch=2 n=a#3 v=64
18120 On ch=2 n=a#3 v=0
18240 On ch=2 n=g3 v=64
18240 On ch=2 n=c4 v=64
18720 On ch=2 n=c4 v=0
18720 On ch=2 n=g3 v=0
18720 On ch=2 n=f3 v=48
18720 On ch=2 n=c4 v=48
19680 On ch=2 n=c4 v=0
19680 On ch=2 n=f3 v=0
20160 On ch=2 n=f5 v=64
20160 On ch=2 n=a4 v=64
20640 On ch=2 n=a4 v=0
20640 On ch=2 n=f5 v=0
21120 On ch=2 n=f5 v=64
21120 On ch=2 n=a#4 v=64
21600 On ch=2 n=a#4 v=0
21600 On ch=2 n=f5 v=0
21600 On ch=2 n=f4 v=64
21600 On ch=2 n=d#5 v=64
22080 On ch=2 n=d#5 v=0
22080 On ch=2 n=f4 v=0
22560 On ch=2 n=d5 v=64
22560 On ch=2 n=g4 v=64
23040 On ch=2 n=g4 v=0
23040 On ch=2 n=d5 v=0
23040 On ch=2 n=d#5 v=64
23040 On ch=2 n=d#4 v=64
23520 On ch=2 n=d#4 v=0
23520 On ch=2 n=d#5 v=0
23520 On ch=2 n=f5 v=64
23520 On ch=2 n=f4 v=64
24000 On ch=2 n=f4 v=0
24000 On ch=2 n=f5 v=0
24000 On ch=2 n=f4 v=64
24000 On ch=2 n=f3 v=64
24480 On ch=2 n=f3 v=0
24480 On ch=2 n=f4 v=0
24840 On ch=2 n=f4 v=64
24880 On ch=2 n=f4 v=0
24880 On ch=2 n=g4 v=64
24920 On ch=2 n=g4 v=0
24920 On ch=2 n=a4 v=64
24960 On ch=2 n=a4 v=0
24960 On ch=2 n=a#4 v=64
25200 On ch=2 n=a#4 v=0
25200 On ch=2 n=f4 v=64
25320 On ch=2 n=f4 v=0
25440 On ch=2 n=d4 v=64
25560 On ch=2 n=d4 v=0
25680 On ch=2 n=a#3 v=64
25800 On ch=2 n=a#3 v=0
25920 On ch=2 n=a4 v=64
25920 On ch=2 n=f5 v=64
26400 On ch=2 n=f5 v=0
26400 On ch=2 n=a4 v=0
26880 On ch=2 n=a#4 v=64
26880 On ch=2 n=f5 v=64
27360 On ch=2 n=f5 v=0
27360 On ch=2 n=a#4 v=0
27360 On ch=2 n=d#5 v=64
27360 On ch=2 n=f4 v=64
27840 On ch=2 n=f4 v=0
27840 On ch=2 n=d#5 v=0
28320 On ch=2 n=g4 v=64
28320 On ch=2 n=d5 v=64
28800 On ch=2 n=d5 v=0
28800 On ch=2 n=g4 v=0
28800 On ch=2 n=d#4 v=64
28800 On ch=2 n=d#5 v=64
29280 On ch=2 n=d#5 v=0
29280 On ch=2 n=d#4 v=0
29280 On ch=2 n=d5 v=64
29280 On ch=2 n=f4 v=64
29760 On ch=2 n=d5 v=0
29760 On ch=2 n=c5 v=64
30240 On ch=2 n=c5 v=0
30240 On ch=2 n=f4 v=0
30720 On ch=2 n=a#4 v=80
30720 On ch=2 n=d4 v=80
31200 On ch=2 n=d4 v=0
31200 On ch=2 n=d#4 v=80
31680 On ch=2 n=d#4 v=0
31680 On ch=2 n=a#4 v=0
32160 On ch=2 n=f4 v=75
32640 On ch=2 n=f4 v=0
32640 On ch=2 n=f3 v=69
33120 On ch=2 n=f3 v=0
33120 On ch=2 n=a#3 v=64
34080 On ch=2 n=a#3 v=0
34560 On ch=2 n=d5 v=64
34560 On ch=2 n=a#4 v=64
35040 On ch=2 n=a#4 v=0
35040 On ch=2 n=d5 v=0
36000 On ch=2 n=c5 v=64
36000 On ch=2 n=a4 v=64
36480 On ch=2 n=a4 v=0
36480 On ch=2 n=c5 v=0
37680 On ch=2 n=a4 v=64
37800 On ch=2 n=a4 v=0
37920 On ch=2 n=a#4 v=64
38160 On ch=2 n=a#4 v=0
38160 On ch=2 n=a4 v=64
38328 On ch=2 n=a4 v=0
38400 On ch=2 n=a#4 v=64
38640 On ch=2 n=a#4 v=0
38640 On ch=2 n=e4 v=64
38880 On ch=2 n=e4 v=0
38880 On ch=2 n=f4 v=64
39120 On ch=2 n=f4 v=0
39120 On ch=2 n=f3 v=64
39360 On ch=2 n=f3 v=0
39600 On ch=2 n=f3 v=64
39720 On ch=2 n=f3 v=0
39840 On ch=2 n=f4 v=64
40080 On ch=2 n=f4 v=0
40080 On ch=2 n=f#4 v=64
40248 On ch=2 n=f#4 v=0
40560 On ch=2 n=f#4 v=64
40680 On ch=2 n=f#4 v=0
40800 On ch=2 n=g4 v=64
41040 On ch=2 n=g4 v=0
41040 On ch=2 n=f#4 v=64
41208 On ch=2 n=f#4 v=0
41280 On ch=2 n=g4 v=64
41520 On ch=2 n=g4 v=0
41520 On ch=2 n=c#4 v=64
41760 On ch=2 n=c#4 v=0
41760 On ch=2 n=d4 v=64
42000 On ch=2 n=d4 v=0
42000 On ch=2 n=d3 v=64
42240 On ch=2 n=d3 v=0
42480 On ch=2 n=d3 v=64
42600 On ch=2 n=d3 v=0
42720 On ch=2 n=d4 v=64
42960 On ch=2 n=d4 v=0
42960 On ch=2 n=c4 v=64
43128 On ch=2 n=c4 v=0
43200 On ch=2 n=a#3 v=64
43440 On ch=2 n=d4 v=64
43680 On ch=2 n=d4 v=0
43680 On ch=2 n=g4 v=64
43920 On ch=2 n=a#3 v=0
43920 On ch=2 n=a#3 v=64
44160 On ch=2 n=a#3 v=0
44160 On ch=2 n=a3 v=64
44400 On ch=2 n=a3 v=0
44400 On ch=2 n=g4 v=0
44400 On ch=2 n=f#4 v=64
44400 On ch=2 n=d4 v=64
44640 On ch=2 n=d4 v=0
44640 On ch=2 n=f#4 v=0
44640 On ch=2 n=g3 v=64
44640 On ch=2 n=g4 v=64
45120 On ch=2 n=g4 v=0
45120 On ch=2 n=g3 v=0
45360 On ch=2 n=g3 v=64
45480 On ch=2 n=g3 v=0
45600 On ch=2 n=g4 v=64
45840 On ch=2 n=g4 v=0
45840 On ch=2 n=f4 v=64
46008 On ch=2 n=f4 v=0
46080 On ch=2 n=d#4 v=64
46320 On ch=2 n=g4 v=64
46560 On ch=2 n=g4 v=0
46560 On ch=2 n=c5 v=64
46800 On ch=2 n=d#4 v=0
46800 On ch=2 n=d#4 v=64
47040 On ch=2 n=d#4 v=0
47040 On ch=2 n=d4 v=64
47280 On ch=2 n=d4 v=0
47280 On ch=2 n=c5 v=0
47280 On ch=2 n=b4 v=64
47280 On ch=2 n=g4 v=64
47520 On ch=2 n=g4 v=0
47520 On ch=2 n=b4 v=0
47520 On ch=2 n=c4 v=64
47520 On ch=2 n=c5 v=64
47928 On ch=2 n=c5 v=0
47928 On ch=2 n=c4 v=0
48000 On ch=2 n=g4 v=64
48000 On ch=2 n=a#4 v=64
48480 On ch=2 n=a#4 v=0
48480 On ch=2 n=g4 v=0
49200 On ch=2 n=g4 v=64
49320 On ch=2 n=g4 v=0
49440 On ch=2 n=g#4 v=64
49680 On ch=2 n=g#4 v=0
49680 On ch=2 n=g4 v=64
49848 On ch=2 n=g4 v=0
49920 On ch=2 n=d5 v=64
50160 On ch=2 n=d5 v=0
50160 On ch=2 n=g4 v=64
50400 On ch=2 n=g4 v=0
50640 On ch=2 n=f4 v=51
50760 On ch=2 n=f4 v=0
50880 On ch=2 n=g4 v=53
51120 On ch=2 n=g4 v=0
51120 On ch=2 n=f4 v=56
51288 On ch=2 n=f4 v=0
51360 On ch=2 n=d5 v=59
51600 On ch=2 n=d5 v=0
51600 On ch=2 n=f4 v=61
51840 On ch=2 n=f4 v=0
51840 On ch=2 n=d#4 v=64
51840 On ch=2 n=g4 v=64
52320 On ch=2 n=d#4 v=0
52320 On ch=2 n=b3 v=69
52800 On ch=2 n=b3 v=0
52800 On ch=2 n=c4 v=75
52968 On ch=2 n=c4 v=0
52968 On ch=2 n=g4 v=0
53040 On ch=2 n=d#4 v=77
53040 On ch=2 n=g4 v=77
53208 On ch=2 n=g4 v=0
53208 On ch=2 n=d#4 v=0
53280 On ch=2 n=f4 v=80
53760 On ch=2 n=f4 v=0
53760 On ch=2 n=g4 v=64
53904 On ch=2 n=g4 v=0
54000 On ch=2 n=g3 v=64
54240 On ch=2 n=g3 v=0
54240 On ch=2 n=g4 v=64
54720 On ch=2 n=g4 v=0
54720 On ch=2 n=a4 v=56
54720 On ch=2 n=g4 v=56
55200 On ch=2 n=g4 v=0
55200 On ch=2 n=f4 v=59
55680 On ch=2 n=f4 v=0
55680 On ch=2 n=c#4 v=61
56160 On ch=2 n=c#4 v=0
56160 On ch=2 n=d4 v=64
56880 On ch=2 n=d4 v=0
56880 On ch=2 n=a4 v=0
56880 On ch=2 n=c4 v=68
56880 On ch=2 n=d4 v=68
57000 On ch=2 n=d4 v=0
57000 On ch=2 n=c4 v=0
57120 On ch=2 n=a#3 v=69
57120 On ch=2 n=d4 v=69
57360 On ch=2 n=d4 v=0
57360 On ch=2 n=a#3 v=0
57360 On ch=2 n=f#3 v=71
57360 On ch=2 n=d4 v=71
57528 On ch=2 n=d4 v=0
57528 On ch=2 n=f#3 v=0
57600 On ch=2 n=g3 v=72
57600 On ch=2 n=d4 v=72
58080 On ch=2 n=d4 v=0
58080 On ch=2 n=g3 v=0
58080 On ch=2 n=g4 v=75
58560 On ch=2 n=d#4 v=64
58848 On ch=2 n=d#4 v=0
58848 On ch=2 n=g4 v=0
59040 On ch=2 n=d4 v=32
59040 On ch=2 n=a4 v=32
60004 On ch=2 n=a4 v=0
60004 On ch=2 n=d4 v=0
60480 On ch=2 n=d5 v=64
60480 On ch=2 n=f#4 v=64
60960 On ch=2 n=f#4 v=0
60960 On ch=2 n=d5 v=0
61440 On ch=2 n=d5 v=64
61440 On ch=2 n=g4 v=64
61920 On ch=2 n=g4 v=0
61920 On ch=2 n=d5 v=0
61920 On ch=2 n=d4 v=64
61920 On ch=2 n=c5 v=64
62400 On ch=2 n=c5 v=0
62400 On ch=2 n=d4 v=0
62880 On ch=2 n=d#4 v=64
62880 On ch=2 n=a#4 v=64
63360 On ch=2 n=a#4 v=0
63360 On ch=2 n=d#4 v=0
63360 On ch=2 n=c5 v=64
63360 On ch=2 n=c4 v=64
63840 On ch=2 n=c4 v=0
63840 On ch=2 n=c5 v=0
63840 On ch=2 n=d5 v=64
63840 On ch=2 n=d4 v=64
64320 On ch=2 n=d4 v=0
64320 On ch=2 n=d5 v=0
64320 On ch=2 n=d3 v=64
64320 On ch=2 n=d4 v=64
64800 On ch=2 n=d4 v=0
64800 On ch=2 n=d3 v=0
65160 On ch=2 n=d4 v=64
65200 On ch=2 n=d4 v=0
65200 On ch=2 n=e4 v=64
65240 On ch=2 n=e4 v=0
65240 On ch=2 n=f#4 v=64
65280 On ch=2 n=f#4 v=0
65280 On ch=2 n=g4 v=64
65520 On ch=2 n=g4 v=0
65520 On ch=2 n=d4 v=64
65640 On ch=2 n=d4 v=0
65760 On ch=2 n=a#3 v=64
65928 On ch=2 n=a#3 v=0
66000 On ch=2 n=g3 v=64
66240 On ch=2 n=g3 v=0
66240 On ch=2 n=f#4 v=64
66240 On ch=2 n=d5 v=64
66720 On ch=2 n=d5 v=0
66720 On ch=2 n=f#4 v=0
67200 On ch=2 n=g4 v=64
67200 On ch=2 n=d5 v=64
67680 On ch=2 n=d5 v=0
67680 On ch=2 n=g4 v=0
67680 On ch=2 n=c5 v=48
67680 On ch=2 n=d4 v=48
68160 On ch=2 n=d4 v=0
68160 On ch=2 n=c5 v=0
68640 On ch=2 n=a#4 v=59
68640 On ch=2 n=d#4 v=59
69120 On ch=2 n=d#4 v=0
69120 On ch=2 n=a#4 v=0
69120 On ch=2 n=c4 v=64
69120 On ch=2 n=c5 v=64
69600 On ch=2 n=c5 v=0
69600 On ch=2 n=c4 v=0
69600 On ch=2 n=d4 v=69
69600 On ch=2 n=a#4 v=69
70080 On ch=2 n=a#4 v=0
70080 On ch=2 n=a4 v=75
70224 On ch=2 n=d4 v=0
70320 On ch=2 n=c4 v=77
70560 On ch=2 n=c4 v=0
70560 On ch=2 n=a4 v=0
70560 On ch=2 n=d4 v=80
70560 On ch=2 n=g4 v=80
70560 On ch=2 n=a#3 v=80
71040 On ch=2 n=a#3 v=0
71040 On ch=2 n=b3 v=80
71520 On ch=2 n=b3 v=0
71520 On ch=2 n=c4 v=80
71760 On ch=2 n=c4 v=0
71760 On ch=2 n=d#4 v=80
72000 On ch=2 n=d#4 v=0
72000 On ch=2 n=g4 v=0
72000 On ch=2 n=d4 v=0
72000 On ch=2 n=d4 v=80
72960 On ch=2 n=d4 v=0
72960 On ch=2 n=d3 v=80
72960 On ch=2 n=a3 v=80
72960 On ch=2 n=d4 v=80
73440 On ch=2 n=d4 v=0
73440 On ch=2 n=a3 v=0
73440 On ch=2 n=d3 v=0
73440 On ch=2 n=g3 v=80
74880 On ch=2 n=g3 v=0
74880 Meta TrkEnd
TrkEnd
MTrk
0 SeqSpec 43 00 01 00
0 Meta TrkName "MIDI by Marty Weimer 4/26/97"
0 Meta 0x21 00
0 Meta TrkEnd
TrkEnd
MTrk
0 SeqSpec 43 00 01 00
0 Meta TrkName "weimermt@libby.org  Eureka, MT  USA"
0 Meta 0x21 00
0 Meta TrkEnd
TrkEnd
