MFile 1 9 480
MTrk
0 SMPTE 96 0 0 0 0
0 Tempo 666666
0 TimeSig 3/4 24 8
21600 Tempo 740740
24480 Tempo 666666
24496 Tempo 652173
74880 Tempo 740740
76384 Tempo 666666
139664 Tempo 666666
148322 Tempo 434782
236640 Tempo 500000
237120 Tempo 545454
238080 Tempo 434782
238080 Meta TrkEnd
TrkEnd
MTrk
0 SeqSpec 43 00 01 00
0 Meta TrkName "Piano Sonata No.16 in G by"
0 Meta 0x21 00
0 PrCh ch=1 p=0
0 PrCh ch=1 p=0
0 Par ch=1 c=7 v=127
1202 On ch=1 n=g5 v=63
1438 On ch=1 n=g5 v=0
1440 On ch=1 n=g5 v=63
1918 On ch=1 n=g5 v=0
1920 On ch=1 n=b5 v=63
2038 On ch=1 n=b5 v=0
2040 On ch=1 n=a5 v=63
2158 On ch=1 n=a5 v=0
2160 On ch=1 n=d5 v=63
2398 On ch=1 n=d5 v=0
2400 On ch=1 n=e5 v=63
2638 On ch=1 n=e5 v=0
2640 On ch=1 n=f#5 v=63
2686 On ch=1 n=f#5 v=0
2688 On ch=1 n=g5 v=63
2734 On ch=1 n=g5 v=0
2736 On ch=1 n=f#5 v=63
2782 On ch=1 n=f#5 v=0
2784 On ch=1 n=e5 v=63
2830 On ch=1 n=e5 v=0
2832 On ch=1 n=f#5 v=63
2878 On ch=1 n=f#5 v=0
2880 On ch=1 n=g5 v=63
2998 On ch=1 n=g5 v=0
3122 On ch=1 n=g5 v=63
3238 On ch=1 n=g5 v=0
3362 On ch=1 n=g5 v=63
3478 On ch=1 n=g5 v=0
3602 On ch=1 n=g5 v=63
4078 On ch=1 n=g5 v=0
4080 On ch=1 n=a5 v=63
4318 On ch=1 n=a5 v=0
4320 On ch=1 n=c6 v=63
4378 On ch=1 n=c6 v=0
4380 On ch=1 n=b5 v=63
4558 On ch=1 n=b5 v=0
4560 On ch=1 n=a5 v=81
4798 On ch=1 n=a5 v=0
4800 On ch=1 n=b5 v=81
5038 On ch=1 n=b5 v=0
5040 On ch=1 n=d6 v=81
5278 On ch=1 n=d6 v=0
5280 On ch=1 n=c6 v=81
5518 On ch=1 n=c6 v=0
5520 On ch=1 n=b5 v=81
5758 On ch=1 n=b5 v=0
5760 On ch=1 n=b5 v=63
5998 On ch=1 n=b5 v=0
6000 On ch=1 n=a5 v=63
6238 On ch=1 n=a5 v=0
6240 On ch=1 n=a5 v=63
6358 On ch=1 n=a5 v=0
6482 On ch=1 n=a5 v=63
6958 On ch=1 n=a5 v=0
6960 On ch=1 n=b5 v=63
7198 On ch=1 n=b5 v=0
7200 On ch=1 n=c6 v=81
7438 On ch=1 n=c6 v=0
7440 On ch=1 n=d6 v=81
7678 On ch=1 n=d6 v=0
7680 On ch=1 n=e6 v=81
7918 On ch=1 n=e6 v=0
7920 On ch=1 n=e6 v=81
8398 On ch=1 n=e6 v=0
8400 On ch=1 n=d6 v=63
8438 On ch=1 n=d6 v=0
8440 On ch=1 n=c6 v=63
8478 On ch=1 n=c6 v=0
8480 On ch=1 n=b5 v=63
8518 On ch=1 n=b5 v=0
8520 On ch=1 n=c6 v=63
8638 On ch=1 n=c6 v=0
8640 On ch=1 n=b5 v=81
8878 On ch=1 n=b5 v=0
8880 On ch=1 n=c6 v=81
9118 On ch=1 n=c6 v=0
9120 On ch=1 n=d6 v=81
9358 On ch=1 n=d6 v=0
9360 On ch=1 n=c6 v=81
9598 On ch=1 n=c6 v=0
9600 On ch=1 n=d6 v=81
9838 On ch=1 n=d6 v=0
9840 On ch=1 n=e6 v=81
10078 On ch=1 n=e6 v=0
10080 On ch=1 n=d6 v=81
10318 On ch=1 n=d6 v=0
10320 On ch=1 n=g6 v=81
10558 On ch=1 n=g6 v=0
10560 On ch=1 n=g6 v=105
10798 On ch=1 n=g6 v=0
10800 On ch=1 n=a6 v=105
10918 On ch=1 n=a6 v=0
10920 On ch=1 n=g6 v=105
11038 On ch=1 n=g6 v=0
11040 On ch=1 n=f#6 v=105
11158 On ch=1 n=f#6 v=0
11160 On ch=1 n=e6 v=105
11278 On ch=1 n=e6 v=0
11280 On ch=1 n=d6 v=105
11398 On ch=1 n=d6 v=0
11400 On ch=1 n=c#6 v=105
11518 On ch=1 n=c#6 v=0
11520 On ch=1 n=e6 v=63
11758 On ch=1 n=e6 v=0
11760 On ch=1 n=d6 v=47
11998 On ch=1 n=d6 v=0
12000 On ch=1 n=d6 v=47
12118 On ch=1 n=d6 v=0
12242 On ch=1 n=d6 v=47
12718 On ch=1 n=d6 v=0
12720 On ch=1 n=g6 v=81
12958 On ch=1 n=g6 v=0
12960 On ch=1 n=g6 v=81
13438 On ch=1 n=g6 v=0
13440 On ch=1 n=b6 v=81
13558 On ch=1 n=b6 v=0
13560 On ch=1 n=a6 v=81
13678 On ch=1 n=a6 v=0
13680 On ch=1 n=g6 v=81
13918 On ch=1 n=g6 v=0
13920 On ch=1 n=f#6 v=81
14158 On ch=1 n=f#6 v=0
14160 On ch=1 n=e6 v=81
14398 On ch=1 n=e6 v=0
14400 On ch=1 n=d6 v=81
14518 On ch=1 n=d6 v=0
14642 On ch=1 n=d6 v=81
14758 On ch=1 n=d6 v=0
14882 On ch=1 n=d6 v=81
14998 On ch=1 n=d6 v=0
15122 On ch=1 n=d6 v=81
15598 On ch=1 n=d6 v=0
15600 On ch=1 n=d#6 v=81
15838 On ch=1 n=d#6 v=0
15840 On ch=1 n=e6 v=81
16078 On ch=1 n=e6 v=0
16080 On ch=1 n=f#6 v=81
16118 On ch=1 n=f#6 v=0
16120 On ch=1 n=g6 v=81
16158 On ch=1 n=g6 v=0
16160 On ch=1 n=f#6 v=81
16198 On ch=1 n=f#6 v=0
16200 On ch=1 n=e6 v=81
16258 On ch=1 n=e6 v=0
16260 On ch=1 n=f#6 v=81
16318 On ch=1 n=f#6 v=0
16320 On ch=1 n=g6 v=81
16558 On ch=1 n=g6 v=0
16560 On ch=1 n=a5 v=81
16798 On ch=1 n=a5 v=0
16800 On ch=1 n=b5 v=81
17038 On ch=1 n=b5 v=0
17040 On ch=1 n=c#6 v=81
17078 On ch=1 n=c#6 v=0
17080 On ch=1 n=d6 v=81
17118 On ch=1 n=d6 v=0
17120 On ch=1 n=c#6 v=81
17158 On ch=1 n=c#6 v=0
17160 On ch=1 n=b5 v=81
17218 On ch=1 n=b5 v=0
17220 On ch=1 n=c#6 v=81
17278 On ch=1 n=c#6 v=0
17280 On ch=1 n=d6 v=81
17518 On ch=1 n=d6 v=0
17762 On ch=1 n=d6 v=47
17998 On ch=1 n=d6 v=0
18000 On ch=1 n=d6 v=47
18238 On ch=1 n=d6 v=0
18482 On ch=1 n=d6 v=47
18718 On ch=1 n=d6 v=0
18720 On ch=1 n=d6 v=47
18958 On ch=1 n=d6 v=0
19202 On ch=1 n=d6 v=47
19438 On ch=1 n=d6 v=0
19440 On ch=1 n=d6 v=47
19678 On ch=1 n=d6 v=0
19922 On ch=1 n=d6 v=47
20158 On ch=1 n=d6 v=0
20160 On ch=1 n=d6 v=47
20398 On ch=1 n=d6 v=0
20400 On ch=1 n=f#6 v=36
20638 On ch=1 n=f#6 v=0
20640 On ch=1 n=g6 v=31
20878 On ch=1 n=g6 v=0
21122 On ch=1 n=a6 v=36
21358 On ch=1 n=a6 v=0
21360 On ch=1 n=b6 v=36
21598 On ch=1 n=b6 v=0
21842 On ch=1 n=c7 v=36
22078 On ch=1 n=c7 v=0
22080 On ch=1 n=b6 v=36
22318 On ch=1 n=b6 v=0
22562 On ch=1 n=a6 v=36
22798 On ch=1 n=a6 v=0
22800 On ch=1 n=g6 v=36
23038 On ch=1 n=g6 v=0
23040 On ch=1 n=f#6 v=36
23758 On ch=1 n=f#6 v=0
23760 On ch=1 n=b5 v=31
23878 On ch=1 n=b5 v=0
23880 On ch=1 n=c6 v=31
23998 On ch=1 n=c6 v=0
24000 On ch=1 n=d6 v=31
24118 On ch=1 n=d6 v=0
24120 On ch=1 n=c6 v=31
24238 On ch=1 n=c6 v=0
24240 On ch=1 n=b5 v=31
24358 On ch=1 n=b5 v=0
24360 On ch=1 n=a5 v=31
24478 On ch=1 n=a5 v=0
24480 On ch=1 n=g5 v=31
24958 On ch=1 n=g5 v=0
24960 On ch=1 n=b5 v=47
25078 On ch=1 n=b5 v=0
25080 On ch=1 n=a5 v=47
25198 On ch=1 n=a5 v=0
25200 On ch=1 n=d5 v=47
25438 On ch=1 n=d5 v=0
25440 On ch=1 n=e5 v=47
25678 On ch=1 n=e5 v=0
25680 On ch=1 n=f#5 v=47
25718 On ch=1 n=f#5 v=0
25720 On ch=1 n=g5 v=47
25758 On ch=1 n=g5 v=0
25760 On ch=1 n=f#5 v=47
25798 On ch=1 n=f#5 v=0
25800 On ch=1 n=e5 v=47
25858 On ch=1 n=e5 v=0
25860 On ch=1 n=f#5 v=47
25918 On ch=1 n=f#5 v=0
25920 On ch=1 n=g5 v=47
26038 On ch=1 n=g5 v=0
26162 On ch=1 n=g5 v=47
26278 On ch=1 n=g5 v=0
26402 On ch=1 n=g5 v=47
26518 On ch=1 n=g5 v=0
26642 On ch=1 n=g5 v=47
27118 On ch=1 n=g5 v=0
27120 On ch=1 n=a5 v=47
27358 On ch=1 n=a5 v=0
27360 On ch=1 n=c6 v=47
27418 On ch=1 n=c6 v=0
27420 On ch=1 n=b5 v=63
27598 On ch=1 n=b5 v=0
27600 On ch=1 n=a5 v=63
27838 On ch=1 n=a5 v=0
27840 On ch=1 n=b5 v=63
28078 On ch=1 n=b5 v=0
28080 On ch=1 n=d6 v=63
28318 On ch=1 n=d6 v=0
28320 On ch=1 n=c6 v=63
28558 On ch=1 n=c6 v=0
28560 On ch=1 n=b5 v=63
28798 On ch=1 n=b5 v=0
28800 On ch=1 n=b5 v=63
29038 On ch=1 n=b5 v=0
29040 On ch=1 n=a5 v=47
29278 On ch=1 n=a5 v=0
29280 On ch=1 n=a5 v=47
29398 On ch=1 n=a5 v=0
29522 On ch=1 n=a5 v=47
29998 On ch=1 n=a5 v=0
30000 On ch=1 n=b5 v=47
30238 On ch=1 n=b5 v=0
30240 On ch=1 n=c6 v=63
30478 On ch=1 n=c6 v=0
30480 On ch=1 n=d6 v=63
30718 On ch=1 n=d6 v=0
30720 On ch=1 n=e6 v=63
30958 On ch=1 n=e6 v=0
30960 On ch=1 n=e6 v=63
31438 On ch=1 n=e6 v=0
31440 On ch=1 n=d6 v=63
31498 On ch=1 n=d6 v=0
31500 On ch=1 n=c6 v=63
31558 On ch=1 n=c6 v=0
31560 On ch=1 n=b5 v=63
31618 On ch=1 n=b5 v=0
31620 On ch=1 n=c6 v=63
31678 On ch=1 n=c6 v=0
31680 On ch=1 n=b5 v=63
31918 On ch=1 n=b5 v=0
31920 On ch=1 n=c6 v=63
32158 On ch=1 n=c6 v=0
32160 On ch=1 n=d6 v=63
32398 On ch=1 n=d6 v=0
32400 On ch=1 n=c#6 v=63
32438 On ch=1 n=c#6 v=0
32440 On ch=1 n=d6 v=63
32478 On ch=1 n=d6 v=0
32480 On ch=1 n=e6 v=63
32518 On ch=1 n=e6 v=0
32520 On ch=1 n=d6 v=63
32878 On ch=1 n=d6 v=0
32880 On ch=1 n=g5 v=63
32918 On ch=1 n=g5 v=0
32920 On ch=1 n=a5 v=63
32958 On ch=1 n=a5 v=0
32960 On ch=1 n=g5 v=63
32998 On ch=1 n=g5 v=0
33000 On ch=1 n=f#5 v=63
33058 On ch=1 n=f#5 v=0
33060 On ch=1 n=g5 v=63
33118 On ch=1 n=g5 v=0
33120 On ch=1 n=a5 v=63
33358 On ch=1 n=a5 v=0
33360 On ch=1 n=c6 v=63
33598 On ch=1 n=c6 v=0
33600 On ch=1 n=b5 v=63
33838 On ch=1 n=b5 v=0
33840 On ch=1 n=a5 v=63
34078 On ch=1 n=a5 v=0
34080 On ch=1 n=g5 v=63
34318 On ch=1 n=g5 v=0
34320 On ch=1 n=f#5 v=63
34358 On ch=1 n=f#5 v=0
34360 On ch=1 n=g5 v=63
34398 On ch=1 n=g5 v=0
34400 On ch=1 n=f#5 v=63
34438 On ch=1 n=f#5 v=0
34440 On ch=1 n=e5 v=63
34498 On ch=1 n=e5 v=0
34500 On ch=1 n=f#5 v=63
34558 On ch=1 n=f#5 v=0
34560 On ch=1 n=a5 v=63
34798 On ch=1 n=a5 v=0
34800 On ch=1 n=g5 v=63
35038 On ch=1 n=g5 v=0
35040 On ch=1 n=g5 v=63
35158 On ch=1 n=g5 v=0
35282 On ch=1 n=g5 v=63
35758 On ch=1 n=g5 v=0
35760 On ch=1 n=d6 v=47
35878 On ch=1 n=d6 v=0
36002 On ch=1 n=d6 v=47
36118 On ch=1 n=d6 v=0
36482 On ch=1 n=d#6 v=47
36598 On ch=1 n=d#6 v=0
36722 On ch=1 n=d#6 v=47
36838 On ch=1 n=d#6 v=0
37202 On ch=1 n=f#6 v=47
37318 On ch=1 n=f#6 v=0
37442 On ch=1 n=f#6 v=47
37558 On ch=1 n=f#6 v=0
37922 On ch=1 n=g6 v=47
38038 On ch=1 n=g6 v=0
38162 On ch=1 n=g6 v=47
38278 On ch=1 n=g6 v=0
38642 On ch=1 n=a#6 v=81
39118 On ch=1 n=a#6 v=0
39120 On ch=1 n=a6 v=81
39358 On ch=1 n=a6 v=0
39360 On ch=1 n=a#6 v=81
39838 On ch=1 n=a#6 v=0
39840 On ch=1 n=a6 v=81
40078 On ch=1 n=a6 v=0
40080 On ch=1 n=g#6 v=81
40126 On ch=1 n=g#6 v=0
40128 On ch=1 n=a6 v=81
40174 On ch=1 n=a6 v=0
40176 On ch=1 n=g#6 v=81
40222 On ch=1 n=g#6 v=0
40224 On ch=1 n=a6 v=81
40270 On ch=1 n=a6 v=0
40272 On ch=1 n=g#6 v=81
40558 On ch=1 n=g#6 v=0
40560 On ch=1 n=a6 v=81
40678 On ch=1 n=a6 v=0
40802 On ch=1 n=a6 v=81
40918 On ch=1 n=a6 v=0
41282 On ch=1 n=b6 v=81
41398 On ch=1 n=b6 v=0
41522 On ch=1 n=b6 v=81
41638 On ch=1 n=b6 v=0
42002 On ch=1 n=a5 v=47
42118 On ch=1 n=a5 v=0
42242 On ch=1 n=a5 v=47
42358 On ch=1 n=a5 v=0
42482 On ch=1 n=a5 v=47
42718 On ch=1 n=a5 v=0
42720 On ch=1 n=b5 v=47
42958 On ch=1 n=b5 v=0
42960 On ch=1 n=c#6 v=47
43198 On ch=1 n=c#6 v=0
43200 On ch=1 n=c#6 v=47
43918 On ch=1 n=c#6 v=0
43920 On ch=1 n=d6 v=47
44158 On ch=1 n=d6 v=0
44402 On ch=1 n=d6 v=47
44518 On ch=1 n=d6 v=0
44642 On ch=1 n=d6 v=47
44758 On ch=1 n=d6 v=0
45122 On ch=1 n=g5 v=47
45358 On ch=1 n=g5 v=0
45360 On ch=1 n=c6 v=47
45598 On ch=1 n=c6 v=0
45842 On ch=1 n=f#5 v=47
46078 On ch=1 n=f#5 v=0
46080 On ch=1 n=a#5 v=47
46318 On ch=1 n=a#5 v=0
46562 On ch=1 n=c#5 v=47
46798 On ch=1 n=c#5 v=0
46800 On ch=1 n=d5 v=47
47038 On ch=1 n=d5 v=0
47282 On ch=1 n=g6 v=81
47758 On ch=1 n=g6 v=0
47760 On ch=1 n=f#6 v=81
47998 On ch=1 n=f#6 v=0
48000 On ch=1 n=g6 v=81
48478 On ch=1 n=g6 v=0
48480 On ch=1 n=f#6 v=81
48718 On ch=1 n=f#6 v=0
48720 On ch=1 n=g6 v=81
48838 On ch=1 n=g6 v=0
48960 On ch=1 n=c7 v=105
49916 On ch=1 n=c7 v=0
49920 On ch=1 n=a#6 v=81
50158 On ch=1 n=a#6 v=0
50160 On ch=1 n=a#6 v=81
50638 On ch=1 n=a#6 v=0
50640 On ch=1 n=a6 v=63
50878 On ch=1 n=a6 v=0
50880 On ch=1 n=a6 v=63
51358 On ch=1 n=a6 v=0
51360 On ch=1 n=g6 v=47
51598 On ch=1 n=g6 v=0
51600 On ch=1 n=f#6 v=47
51838 On ch=1 n=f#6 v=0
51840 On ch=1 n=f#6 v=47
52558 On ch=1 n=f#6 v=0
52560 On ch=1 n=g6 v=36
52798 On ch=1 n=g6 v=0
53042 On ch=1 n=g5 v=63
53278 On ch=1 n=g5 v=0
53280 On ch=1 n=g5 v=63
53758 On ch=1 n=g5 v=0
53760 On ch=1 n=b5 v=81
53878 On ch=1 n=b5 v=0
53880 On ch=1 n=a5 v=81
53998 On ch=1 n=a5 v=0
54000 On ch=1 n=d5 v=63
54118 On ch=1 n=d5 v=0
54242 On ch=1 n=d#5 v=63
54358 On ch=1 n=d#5 v=0
54360 On ch=1 n=e5 v=63
54478 On ch=1 n=e5 v=0
54480 On ch=1 n=f5 v=63
54598 On ch=1 n=f5 v=0
54600 On ch=1 n=f#5 v=63
54718 On ch=1 n=f#5 v=0
54720 On ch=1 n=g5 v=63
54838 On ch=1 n=g5 v=0
54962 On ch=1 n=g5 v=63
55078 On ch=1 n=g5 v=0
55202 On ch=1 n=g5 v=63
55318 On ch=1 n=g5 v=0
55442 On ch=1 n=g5 v=63
55918 On ch=1 n=g5 v=0
55920 On ch=1 n=a5 v=63
56158 On ch=1 n=a5 v=0
56160 On ch=1 n=c6 v=63
56218 On ch=1 n=c6 v=0
56220 On ch=1 n=b5 v=63
56278 On ch=1 n=b5 v=0
56280 On ch=1 n=a#5 v=81
56398 On ch=1 n=a#5 v=0
56400 On ch=1 n=b5 v=81
56518 On ch=1 n=b5 v=0
56520 On ch=1 n=a#5 v=81
56638 On ch=1 n=a#5 v=0
56640 On ch=1 n=b5 v=81
56758 On ch=1 n=b5 v=0
56760 On ch=1 n=d6 v=81
56878 On ch=1 n=d6 v=0
56880 On ch=1 n=d6 v=81
57118 On ch=1 n=d6 v=0
57120 On ch=1 n=c6 v=81
57358 On ch=1 n=c6 v=0
57360 On ch=1 n=b5 v=81
57598 On ch=1 n=b5 v=0
57600 On ch=1 n=b5 v=63
57838 On ch=1 n=b5 v=0
57840 On ch=1 n=a5 v=63
58078 On ch=1 n=a5 v=0
58080 On ch=1 n=a5 v=47
58198 On ch=1 n=a5 v=0
58322 On ch=1 n=a5 v=36
58798 On ch=1 n=a5 v=0
58800 On ch=1 n=b5 v=36
59038 On ch=1 n=b5 v=0
59040 On ch=1 n=c6 v=36
59278 On ch=1 n=c6 v=0
59280 On ch=1 n=d6 v=47
59518 On ch=1 n=d6 v=0
59520 On ch=1 n=e6 v=47
59758 On ch=1 n=e6 v=0
59760 On ch=1 n=e6 v=63
60238 On ch=1 n=e6 v=0
60240 On ch=1 n=d6 v=47
60358 On ch=1 n=d6 v=0
60360 On ch=1 n=c6 v=47
60478 On ch=1 n=c6 v=0
60480 On ch=1 n=b5 v=47
60598 On ch=1 n=b5 v=0
60600 On ch=1 n=c6 v=47
60718 On ch=1 n=c6 v=0
60720 On ch=1 n=b5 v=47
60838 On ch=1 n=b5 v=0
60840 On ch=1 n=c6 v=47
60958 On ch=1 n=c6 v=0
60960 On ch=1 n=b5 v=47
61078 On ch=1 n=b5 v=0
61080 On ch=1 n=d6 v=47
61198 On ch=1 n=d6 v=0
61200 On ch=1 n=c6 v=47
61438 On ch=1 n=c6 v=0
61440 On ch=1 n=d6 v=47
61678 On ch=1 n=d6 v=0
61680 On ch=1 n=e6 v=47
61918 On ch=1 n=e6 v=0
61920 On ch=1 n=d6 v=47
62158 On ch=1 n=d6 v=0
62160 On ch=1 n=g6 v=47
62398 On ch=1 n=g6 v=0
62400 On ch=1 n=g6 v=63
62518 On ch=1 n=g6 v=0
62642 On ch=1 n=a6 v=63
62758 On ch=1 n=a6 v=0
62760 On ch=1 n=g6 v=63
62878 On ch=1 n=g6 v=0
62880 On ch=1 n=f#6 v=63
62998 On ch=1 n=f#6 v=0
63000 On ch=1 n=e6 v=63
63118 On ch=1 n=e6 v=0
63120 On ch=1 n=d6 v=63
63238 On ch=1 n=d6 v=0
63240 On ch=1 n=c#6 v=63
63358 On ch=1 n=c#6 v=0
63360 On ch=1 n=e6 v=55
63598 On ch=1 n=e6 v=0
63600 On ch=1 n=d6 v=47
63838 On ch=1 n=d6 v=0
63840 On ch=1 n=d6 v=47
63958 On ch=1 n=d6 v=0
64078 On ch=1 n=d6 v=36
64314 On ch=1 n=d6 v=0
64560 On ch=1 n=g6 v=81
64796 On ch=1 n=g6 v=0
64800 On ch=1 n=g6 v=81
65278 On ch=1 n=g6 v=0
65280 On ch=1 n=b6 v=81
65398 On ch=1 n=b6 v=0
65400 On ch=1 n=a6 v=81
65518 On ch=1 n=a6 v=0
65520 On ch=1 n=g6 v=81
65758 On ch=1 n=g6 v=0
65760 On ch=1 n=f#6 v=81
65998 On ch=1 n=f#6 v=0
66000 On ch=1 n=e6 v=81
66238 On ch=1 n=e6 v=0
66240 On ch=1 n=d6 v=81
66358 On ch=1 n=d6 v=0
66482 On ch=1 n=d6 v=81
66598 On ch=1 n=d6 v=0
66722 On ch=1 n=d6 v=81
66838 On ch=1 n=d6 v=0
66962 On ch=1 n=d6 v=81
67438 On ch=1 n=d6 v=0
67440 On ch=1 n=d#6 v=81
67678 On ch=1 n=d#6 v=0
67680 On ch=1 n=e6 v=81
67798 On ch=1 n=e6 v=0
67800 On ch=1 n=d#6 v=63
67918 On ch=1 n=d#6 v=0
67920 On ch=1 n=f#6 v=63
68038 On ch=1 n=f#6 v=0
68040 On ch=1 n=e6 v=63
68158 On ch=1 n=e6 v=0
68160 On ch=1 n=g6 v=63
68278 On ch=1 n=g6 v=0
68280 On ch=1 n=f#6 v=63
68398 On ch=1 n=f#6 v=0
68400 On ch=1 n=a6 v=47
68518 On ch=1 n=a6 v=0
68520 On ch=1 n=g6 v=47
68638 On ch=1 n=g6 v=0
68640 On ch=1 n=f#6 v=47
68758 On ch=1 n=f#6 v=0
68760 On ch=1 n=e6 v=47
68878 On ch=1 n=e6 v=0
68880 On ch=1 n=d6 v=47
68998 On ch=1 n=d6 v=0
69000 On ch=1 n=c#6 v=47
69118 On ch=1 n=c#6 v=0
69120 On ch=1 n=d6 v=36
69358 On ch=1 n=d6 v=0
69602 On ch=1 n=d6 v=36
69838 On ch=1 n=d6 v=0
69840 On ch=1 n=d6 v=36
70078 On ch=1 n=d6 v=0
70322 On ch=1 n=d6 v=47
70558 On ch=1 n=d6 v=0
70560 On ch=1 n=d6 v=47
70798 On ch=1 n=d6 v=0
71042 On ch=1 n=d6 v=36
71278 On ch=1 n=d6 v=0
71280 On ch=1 n=d6 v=36
71518 On ch=1 n=d6 v=0
71762 On ch=1 n=d6 v=36
71998 On ch=1 n=d6 v=0
72122 On ch=1 n=d6 v=36
72238 On ch=1 n=d6 v=0
72240 On ch=1 n=f#6 v=36
72358 On ch=1 n=f#6 v=0
72360 On ch=1 n=d6 v=36
72478 On ch=1 n=d6 v=0
72480 On ch=1 n=e6 v=47
72598 On ch=1 n=e6 v=0
72600 On ch=1 n=g6 v=47
72718 On ch=1 n=g6 v=0
72842 On ch=1 n=f#6 v=63
72958 On ch=1 n=f#6 v=0
72960 On ch=1 n=a6 v=63
73078 On ch=1 n=a6 v=0
73080 On ch=1 n=f#6 v=63
73198 On ch=1 n=f#6 v=0
73200 On ch=1 n=g6 v=63
73318 On ch=1 n=g6 v=0
73320 On ch=1 n=b6 v=63
73438 On ch=1 n=b6 v=0
73562 On ch=1 n=a6 v=81
73678 On ch=1 n=a6 v=0
73680 On ch=1 n=c7 v=81
73798 On ch=1 n=c7 v=0
73800 On ch=1 n=f#6 v=81
73918 On ch=1 n=f#6 v=0
73920 On ch=1 n=a6 v=81
74038 On ch=1 n=a6 v=0
74040 On ch=1 n=c6 v=81
74158 On ch=1 n=c6 v=0
74160 On ch=1 n=f#6 v=81
74278 On ch=1 n=f#6 v=0
74280 On ch=1 n=a5 v=81
74398 On ch=1 n=a5 v=0
74400 On ch=1 n=c6 v=81
74518 On ch=1 n=c6 v=0
74520 On ch=1 n=f#5 v=81
74638 On ch=1 n=f#5 v=0
74640 On ch=1 n=a5 v=81
74758 On ch=1 n=a5 v=0
74760 On ch=1 n=c5 v=81
74878 On ch=1 n=c5 v=0
74880 On ch=1 n=e6 v=81
76078 On ch=1 n=e6 v=0
76080 On ch=1 n=d6 v=63
76138 On ch=1 n=d6 v=0
76140 On ch=1 n=c6 v=63
76198 On ch=1 n=c6 v=0
76200 On ch=1 n=b5 v=47
76258 On ch=1 n=b5 v=0
76260 On ch=1 n=a5 v=47
76318 On ch=1 n=a5 v=0
76320 On ch=1 n=g5 v=36
76798 On ch=1 n=g5 v=0
76800 On ch=1 n=b5 v=47
76918 On ch=1 n=b5 v=0
76920 On ch=1 n=a5 v=47
77038 On ch=1 n=a5 v=0
77040 On ch=1 n=d5 v=47
77158 On ch=1 n=d5 v=0
77282 On ch=1 n=d#5 v=36
77398 On ch=1 n=d#5 v=0
77400 On ch=1 n=e5 v=36
77518 On ch=1 n=e5 v=0
77520 On ch=1 n=f5 v=36
77638 On ch=1 n=f5 v=0
77640 On ch=1 n=f#5 v=36
77758 On ch=1 n=f#5 v=0
77760 On ch=1 n=g5 v=36
77878 On ch=1 n=g5 v=0
78002 On ch=1 n=g5 v=36
78118 On ch=1 n=g5 v=0
78242 On ch=1 n=g5 v=36
78358 On ch=1 n=g5 v=0
78482 On ch=1 n=g5 v=36
78958 On ch=1 n=g5 v=0
78960 On ch=1 n=a5 v=36
79198 On ch=1 n=a5 v=0
79200 On ch=1 n=c6 v=36
79258 On ch=1 n=c6 v=0
79260 On ch=1 n=b5 v=36
79318 On ch=1 n=b5 v=0
79320 On ch=1 n=a#5 v=36
79438 On ch=1 n=a#5 v=0
79440 On ch=1 n=b5 v=47
79558 On ch=1 n=b5 v=0
79560 On ch=1 n=a#5 v=47
79678 On ch=1 n=a#5 v=0
79680 On ch=1 n=b5 v=47
79798 On ch=1 n=b5 v=0
79800 On ch=1 n=d6 v=47
79918 On ch=1 n=d6 v=0
79920 On ch=1 n=d6 v=63
80158 On ch=1 n=d6 v=0
80160 On ch=1 n=c6 v=63
80398 On ch=1 n=c6 v=0
80400 On ch=1 n=b5 v=63
80638 On ch=1 n=b5 v=0
80640 On ch=1 n=b5 v=47
80878 On ch=1 n=b5 v=0
80880 On ch=1 n=a5 v=47
81118 On ch=1 n=a5 v=0
81120 On ch=1 n=a5 v=47
81238 On ch=1 n=a5 v=0
81362 On ch=1 n=a5 v=47
81838 On ch=1 n=a5 v=0
81840 On ch=1 n=b5 v=47
82078 On ch=1 n=b5 v=0
82080 On ch=1 n=c6 v=47
82318 On ch=1 n=c6 v=0
82320 On ch=1 n=d6 v=47
82558 On ch=1 n=d6 v=0
82560 On ch=1 n=e6 v=63
82798 On ch=1 n=e6 v=0
82800 On ch=1 n=e6 v=63
83278 On ch=1 n=e6 v=0
83280 On ch=1 n=d6 v=63
83398 On ch=1 n=d6 v=0
83400 On ch=1 n=c6 v=63
83518 On ch=1 n=c6 v=0
83520 On ch=1 n=b5 v=81
83758 On ch=1 n=b5 v=0
83760 On ch=1 n=c6 v=81
83998 On ch=1 n=c6 v=0
84000 On ch=1 n=d6 v=81
84238 On ch=1 n=d6 v=0
84240 On ch=1 n=g5 v=81
84478 On ch=1 n=g5 v=0
84480 On ch=1 n=a5 v=81
84718 On ch=1 n=a5 v=0
84720 On ch=1 n=b5 v=81
84958 On ch=1 n=b5 v=0
84960 On ch=1 n=a5 v=81
85198 On ch=1 n=a5 v=0
85200 On ch=1 n=b5 v=81
85438 On ch=1 n=b5 v=0
85440 On ch=1 n=c6 v=81
85678 On ch=1 n=c6 v=0
85680 On ch=1 n=c6 v=81
85918 On ch=1 n=c6 v=0
85920 On ch=1 n=a5 v=81
86158 On ch=1 n=a5 v=0
86160 On ch=1 n=f#5 v=81
86398 On ch=1 n=f#5 v=0
86400 On ch=1 n=a5 v=81
87118 On ch=1 n=a5 v=0
87120 On ch=1 n=g5 v=47
87358 On ch=1 n=g5 v=0
87602 On ch=1 n=d6 v=36
87838 On ch=1 n=d6 v=0
87840 On ch=1 n=d6 v=36
87958 On ch=1 n=d6 v=0
88322 On ch=1 n=d6 v=36
88438 On ch=1 n=d6 v=0
88440 On ch=1 n=d#6 v=36
88558 On ch=1 n=d#6 v=0
88560 On ch=1 n=d#6 v=36
88678 On ch=1 n=d#6 v=0
89042 On ch=1 n=g6 v=36
89158 On ch=1 n=g6 v=0
89160 On ch=1 n=f#6 v=36
89278 On ch=1 n=f#6 v=0
89280 On ch=1 n=f#6 v=36
89398 On ch=1 n=f#6 v=0
89762 On ch=1 n=c7 v=36
89878 On ch=1 n=c7 v=0
89880 On ch=1 n=f#6 v=36
89998 On ch=1 n=f#6 v=0
90000 On ch=1 n=g6 v=36
90118 On ch=1 n=g6 v=0
90482 On ch=1 n=a#6 v=81
90598 On ch=1 n=a#6 v=0
90600 On ch=1 n=a6 v=81
90718 On ch=1 n=a6 v=0
90720 On ch=1 n=c7 v=81
91078 On ch=1 n=c7 v=0
91080 On ch=1 n=a#6 v=81
91198 On ch=1 n=a#6 v=0
91200 On ch=1 n=a6 v=81
91258 On ch=1 n=a6 v=0
91260 On ch=1 n=g6 v=81
91318 On ch=1 n=g6 v=0
91320 On ch=1 n=f6 v=81
91378 On ch=1 n=f6 v=0
91380 On ch=1 n=e6 v=81
91410 On ch=1 n=e6 v=0
91410 On ch=1 n=d6 v=81
91440 On ch=1 n=d6 v=0
91682 On ch=1 n=e7 v=81
92158 On ch=1 n=e7 v=0
92222 On ch=1 n=f6 v=81
92278 On ch=1 n=f6 v=0
92280 On ch=1 n=a6 v=81
92338 On ch=1 n=a6 v=0
92340 On ch=1 n=c#7 v=81
92398 On ch=1 n=c#7 v=0
92400 On ch=1 n=d7 v=81
92458 On ch=1 n=d7 v=0
92460 On ch=1 n=a6 v=81
92518 On ch=1 n=a6 v=0
92520 On ch=1 n=c#7 v=81
92578 On ch=1 n=c#7 v=0
92580 On ch=1 n=d7 v=81
92638 On ch=1 n=d7 v=0
92640 On ch=1 n=e7 v=81
92698 On ch=1 n=e7 v=0
92700 On ch=1 n=a6 v=81
92758 On ch=1 n=a6 v=0
92760 On ch=1 n=d7 v=81
92818 On ch=1 n=d7 v=0
92820 On ch=1 n=e7 v=81
92878 On ch=1 n=e7 v=0
92880 On ch=1 n=f7 v=81
93118 On ch=1 n=f7 v=0
93120 On ch=1 n=b6 v=81
93598 On ch=1 n=b6 v=0
93842 On ch=1 n=a6 v=81
94078 On ch=1 n=a6 v=0
94080 On ch=1 n=f6 v=81
94198 On ch=1 n=f6 v=0
94200 On ch=1 n=d6 v=81
94318 On ch=1 n=d6 v=0
94562 On ch=1 n=g6 v=63
94798 On ch=1 n=g6 v=0
94800 On ch=1 n=e6 v=47
94918 On ch=1 n=e6 v=0
94920 On ch=1 n=c#6 v=47
95038 On ch=1 n=c#6 v=0
95040 On ch=1 n=c#6 v=47
95518 On ch=1 n=c#6 v=0
95520 On ch=1 n=d6 v=36
95758 On ch=1 n=d6 v=0
95760 On ch=1 n=d6 v=36
95878 On ch=1 n=d6 v=0
96242 On ch=1 n=d6 v=36
96358 On ch=1 n=d6 v=0
96482 On ch=1 n=d6 v=36
96598 On ch=1 n=d6 v=0
96962 On ch=1 n=g5 v=36
97198 On ch=1 n=g5 v=0
97200 On ch=1 n=c6 v=36
97438 On ch=1 n=c6 v=0
97682 On ch=1 n=f#5 v=36
97918 On ch=1 n=f#5 v=0
97920 On ch=1 n=a#5 v=36
98158 On ch=1 n=a#5 v=0
98402 On ch=1 n=c#5 v=36
98638 On ch=1 n=c#5 v=0
98640 On ch=1 n=d5 v=36
98878 On ch=1 n=d5 v=0
99122 On ch=1 n=g5 v=81
99238 On ch=1 n=g5 v=0
99240 On ch=1 n=g6 v=81
99358 On ch=1 n=g6 v=0
99360 On ch=1 n=a5 v=81
99478 On ch=1 n=a5 v=0
99480 On ch=1 n=g6 v=81
99598 On ch=1 n=g6 v=0
99600 On ch=1 n=f#6 v=81
99718 On ch=1 n=f#6 v=0
99720 On ch=1 n=a5 v=81
99838 On ch=1 n=a5 v=0
99840 On ch=1 n=g5 v=81
99958 On ch=1 n=g5 v=0
99960 On ch=1 n=g6 v=81
100078 On ch=1 n=g6 v=0
100080 On ch=1 n=a5 v=81
100198 On ch=1 n=a5 v=0
100200 On ch=1 n=g6 v=81
100318 On ch=1 n=g6 v=0
100320 On ch=1 n=f#6 v=81
100438 On ch=1 n=f#6 v=0
100440 On ch=1 n=a5 v=81
100558 On ch=1 n=a5 v=0
100560 On ch=1 n=g5 v=81
100678 On ch=1 n=g5 v=0
100680 On ch=1 n=g6 v=81
100798 On ch=1 n=g6 v=0
100800 On ch=1 n=d#6 v=81
100918 On ch=1 n=d#6 v=0
100920 On ch=1 n=d#7 v=81
101038 On ch=1 n=d#7 v=0
101040 On ch=1 n=d6 v=81
101158 On ch=1 n=d6 v=0
101160 On ch=1 n=d7 v=81
101278 On ch=1 n=d7 v=0
101280 On ch=1 n=c6 v=81
101398 On ch=1 n=c6 v=0
101400 On ch=1 n=c7 v=81
101638 On ch=1 n=c7 v=0
101640 On ch=1 n=a#6 v=81
101758 On ch=1 n=a#6 v=0
101760 On ch=1 n=a6 v=81
101878 On ch=1 n=a6 v=0
101880 On ch=1 n=g6 v=81
101998 On ch=1 n=g6 v=0
102000 On ch=1 n=f#6 v=81
102118 On ch=1 n=f#6 v=0
102120 On ch=1 n=g6 v=81
102238 On ch=1 n=g6 v=0
102240 On ch=1 n=f6 v=81
102358 On ch=1 n=f6 v=0
102360 On ch=1 n=d#6 v=81
102478 On ch=1 n=d#6 v=0
102480 On ch=1 n=d6 v=63
102598 On ch=1 n=d6 v=0
102600 On ch=1 n=c6 v=63
102718 On ch=1 n=c6 v=0
102720 On ch=1 n=a#5 v=63
102838 On ch=1 n=a#5 v=0
102840 On ch=1 n=a5 v=47
102958 On ch=1 n=a5 v=0
102960 On ch=1 n=g5 v=47
103318 On ch=1 n=g5 v=0
103320 On ch=1 n=a5 v=40
103438 On ch=1 n=a5 v=0
103440 On ch=1 n=f#5 v=38
103678 On ch=1 n=f#5 v=0
104162 On ch=1 n=g5 v=36
104278 On ch=1 n=g5 v=0
104402 On ch=1 n=g5 v=36
104518 On ch=1 n=g5 v=0
104882 On ch=1 n=g5 v=63
105118 On ch=1 n=g5 v=0
105120 On ch=1 n=g5 v=63
105598 On ch=1 n=g5 v=0
105600 On ch=1 n=b5 v=63
105718 On ch=1 n=b5 v=0
105720 On ch=1 n=a5 v=63
105838 On ch=1 n=a5 v=0
105840 On ch=1 n=d5 v=63
105958 On ch=1 n=d5 v=0
106082 On ch=1 n=f#5 v=63
106198 On ch=1 n=f#5 v=0
106200 On ch=1 n=e5 v=63
106318 On ch=1 n=e5 v=0
106320 On ch=1 n=g5 v=63
106438 On ch=1 n=g5 v=0
106440 On ch=1 n=f#5 v=63
106558 On ch=1 n=f#5 v=0
106560 On ch=1 n=a5 v=63
106678 On ch=1 n=a5 v=0
106680 On ch=1 n=g5 v=63
106798 On ch=1 n=g5 v=0
106800 On ch=1 n=c6 v=63
106918 On ch=1 n=c6 v=0
106920 On ch=1 n=b5 v=63
107038 On ch=1 n=b5 v=0
107040 On ch=1 n=d6 v=63
107158 On ch=1 n=d6 v=0
107160 On ch=1 n=b5 v=63
107278 On ch=1 n=b5 v=0
107280 On ch=1 n=g5 v=63
107758 On ch=1 n=g5 v=0
107760 On ch=1 n=a5 v=63
107998 On ch=1 n=a5 v=0
108000 On ch=1 n=a#5 v=81
108118 On ch=1 n=a#5 v=0
108120 On ch=1 n=b5 v=81
108238 On ch=1 n=b5 v=0
108240 On ch=1 n=c6 v=81
108358 On ch=1 n=c6 v=0
108360 On ch=1 n=c#6 v=81
108478 On ch=1 n=c#6 v=0
108480 On ch=1 n=d6 v=81
108718 On ch=1 n=d6 v=0
108720 On ch=1 n=d6 v=81
108958 On ch=1 n=d6 v=0
108960 On ch=1 n=c6 v=81
109198 On ch=1 n=c6 v=0
109200 On ch=1 n=b5 v=81
109438 On ch=1 n=b5 v=0
109440 On ch=1 n=b5 v=63
109678 On ch=1 n=b5 v=0
109680 On ch=1 n=a5 v=63
109918 On ch=1 n=a5 v=0
109920 On ch=1 n=a5 v=63
110038 On ch=1 n=a5 v=0
110162 On ch=1 n=a5 v=47
110638 On ch=1 n=a5 v=0
110640 On ch=1 n=b5 v=63
110878 On ch=1 n=b5 v=0
110880 On ch=1 n=c6 v=63
110938 On ch=1 n=c6 v=0
110940 On ch=1 n=a5 v=63
110998 On ch=1 n=a5 v=0
111000 On ch=1 n=b5 v=63
111058 On ch=1 n=b5 v=0
111060 On ch=1 n=c6 v=63
111118 On ch=1 n=c6 v=0
111120 On ch=1 n=d6 v=63
111178 On ch=1 n=d6 v=0
111180 On ch=1 n=e6 v=81
111238 On ch=1 n=e6 v=0
111240 On ch=1 n=f#6 v=81
111298 On ch=1 n=f#6 v=0
111300 On ch=1 n=g#6 v=81
111358 On ch=1 n=g#6 v=0
111360 On ch=1 n=a6 v=81
111418 On ch=1 n=a6 v=0
111420 On ch=1 n=b6 v=81
111478 On ch=1 n=b6 v=0
111480 On ch=1 n=c7 v=81
111538 On ch=1 n=c7 v=0
111540 On ch=1 n=d7 v=81
111598 On ch=1 n=d7 v=0
111600 On ch=1 n=e7 v=86
111838 On ch=1 n=e7 v=0
111840 On ch=1 n=d7 v=86
112078 On ch=1 n=d7 v=0
112080 On ch=1 n=d7 v=86
112118 On ch=1 n=d7 v=0
112120 On ch=1 n=c7 v=86
112158 On ch=1 n=c7 v=0
112160 On ch=1 n=b6 v=86
112198 On ch=1 n=b6 v=0
112200 On ch=1 n=c7 v=86
112558 On ch=1 n=c7 v=0
112560 On ch=1 n=b6 v=86
112798 On ch=1 n=b6 v=0
112800 On ch=1 n=d7 v=86
113038 On ch=1 n=d7 v=0
113040 On ch=1 n=e7 v=86
113098 On ch=1 n=e7 v=0
113100 On ch=1 n=d7 v=86
113158 On ch=1 n=d7 v=0
113160 On ch=1 n=c7 v=86
113278 On ch=1 n=c7 v=0
113280 On ch=1 n=d7 v=86
113338 On ch=1 n=d7 v=0
113340 On ch=1 n=c7 v=86
113398 On ch=1 n=c7 v=0
113400 On ch=1 n=b6 v=86
113518 On ch=1 n=b6 v=0
113520 On ch=1 n=c7 v=86
113578 On ch=1 n=c7 v=0
113580 On ch=1 n=b6 v=86
113638 On ch=1 n=b6 v=0
113640 On ch=1 n=a6 v=86
113758 On ch=1 n=a6 v=0
113760 On ch=1 n=b6 v=86
113818 On ch=1 n=b6 v=0
113820 On ch=1 n=a6 v=86
113878 On ch=1 n=a6 v=0
113880 On ch=1 n=g6 v=86
113998 On ch=1 n=g6 v=0
114000 On ch=1 n=a6 v=86
114058 On ch=1 n=a6 v=0
114060 On ch=1 n=g6 v=86
114118 On ch=1 n=g6 v=0
114120 On ch=1 n=f#6 v=86
114358 On ch=1 n=f#6 v=0
114360 On ch=1 n=a6 v=86
114598 On ch=1 n=a6 v=0
114600 On ch=1 n=g6 v=86
114838 On ch=1 n=g6 v=0
114840 On ch=1 n=e6 v=86
115078 On ch=1 n=e6 v=0
115080 On ch=1 n=c#6 v=86
115198 On ch=1 n=c#6 v=0
115200 On ch=1 n=c#6 v=82
115318 On ch=1 n=c#6 v=0
115320 On ch=1 n=d6 v=78
115438 On ch=1 n=d6 v=0
115440 On ch=1 n=e6 v=74
115558 On ch=1 n=e6 v=0
115560 On ch=1 n=d6 v=70
115678 On ch=1 n=d6 v=0
115680 On ch=1 n=e6 v=66
115798 On ch=1 n=e6 v=0
115800 On ch=1 n=d6 v=60
115918 On ch=1 n=d6 v=0
115920 On ch=1 n=d6 v=56
116158 On ch=1 n=d6 v=0
116402 On ch=1 n=g6 v=36
116638 On ch=1 n=g6 v=0
116640 On ch=1 n=f#6 v=36
116758 On ch=1 n=f#6 v=0
116760 On ch=1 n=g6 v=36
116878 On ch=1 n=g6 v=0
116880 On ch=1 n=a6 v=36
116998 On ch=1 n=a6 v=0
117000 On ch=1 n=g6 v=36
117118 On ch=1 n=g6 v=0
117120 On ch=1 n=g6 v=36
117238 On ch=1 n=g6 v=0
117240 On ch=1 n=a6 v=36
117358 On ch=1 n=a6 v=0
117360 On ch=1 n=a6 v=36
117478 On ch=1 n=a6 v=0
117480 On ch=1 n=g6 v=36
117598 On ch=1 n=g6 v=0
117600 On ch=1 n=g6 v=36
117718 On ch=1 n=g6 v=0
117720 On ch=1 n=f#6 v=36
117838 On ch=1 n=f#6 v=0
117840 On ch=1 n=f#6 v=36
117958 On ch=1 n=f#6 v=0
117960 On ch=1 n=e6 v=36
118078 On ch=1 n=e6 v=0
118080 On ch=1 n=e6 v=36
118198 On ch=1 n=e6 v=0
118200 On ch=1 n=d6 v=47
118318 On ch=1 n=d6 v=0
118320 On ch=1 n=d6 v=47
118378 On ch=1 n=d6 v=0
118442 On ch=1 n=d6 v=47
118498 On ch=1 n=d6 v=0
118562 On ch=1 n=d6 v=47
118618 On ch=1 n=d6 v=0
118682 On ch=1 n=d6 v=47
118738 On ch=1 n=d6 v=0
118802 On ch=1 n=e6 v=63
118918 On ch=1 n=e6 v=0
118920 On ch=1 n=d#6 v=63
119038 On ch=1 n=d#6 v=0
119040 On ch=1 n=d#6 v=63
119098 On ch=1 n=d#6 v=0
119162 On ch=1 n=d#6 v=63
119218 On ch=1 n=d#6 v=0
119282 On ch=1 n=d#6 v=63
119338 On ch=1 n=d#6 v=0
119402 On ch=1 n=d#6 v=63
119458 On ch=1 n=d#6 v=0
119522 On ch=1 n=d#6 v=81
119638 On ch=1 n=d#6 v=0
119640 On ch=1 n=e6 v=81
119758 On ch=1 n=e6 v=0
119760 On ch=1 n=f#6 v=81
119878 On ch=1 n=f#6 v=0
119880 On ch=1 n=e6 v=81
119998 On ch=1 n=e6 v=0
120000 On ch=1 n=g6 v=81
120118 On ch=1 n=g6 v=0
120120 On ch=1 n=f#6 v=81
120238 On ch=1 n=f#6 v=0
120240 On ch=1 n=a6 v=81
120358 On ch=1 n=a6 v=0
120360 On ch=1 n=g6 v=81
120478 On ch=1 n=g6 v=0
120480 On ch=1 n=f#6 v=81
120598 On ch=1 n=f#6 v=0
120600 On ch=1 n=e6 v=81
120718 On ch=1 n=e6 v=0
120720 On ch=1 n=d6 v=81
120838 On ch=1 n=d6 v=0
120840 On ch=1 n=c#6 v=81
120958 On ch=1 n=c#6 v=0
120960 On ch=1 n=d6 v=105
121078 On ch=1 n=d6 v=0
121080 On ch=1 n=d7 v=105
121198 On ch=1 n=d7 v=0
121200 On ch=1 n=d6 v=105
121258 On ch=1 n=d6 v=0
121322 On ch=1 n=d6 v=105
121378 On ch=1 n=d6 v=0
121442 On ch=1 n=d6 v=105
121498 On ch=1 n=d6 v=0
121562 On ch=1 n=d6 v=105
121618 On ch=1 n=d6 v=0
121682 On ch=1 n=d6 v=105
121798 On ch=1 n=d6 v=0
121800 On ch=1 n=d7 v=105
121918 On ch=1 n=d7 v=0
121920 On ch=1 n=d6 v=105
121978 On ch=1 n=d6 v=0
122042 On ch=1 n=d6 v=105
122098 On ch=1 n=d6 v=0
122162 On ch=1 n=d6 v=105
122218 On ch=1 n=d6 v=0
122282 On ch=1 n=d6 v=105
122338 On ch=1 n=d6 v=0
122402 On ch=1 n=d6 v=105
122458 On ch=1 n=d6 v=0
122460 On ch=1 n=f#6 v=105
122518 On ch=1 n=f#6 v=0
122520 On ch=1 n=a6 v=105
122578 On ch=1 n=a6 v=0
122580 On ch=1 n=d7 v=105
122638 On ch=1 n=d7 v=0
122640 On ch=1 n=d6 v=105
122698 On ch=1 n=d6 v=0
122762 On ch=1 n=d6 v=105
122818 On ch=1 n=d6 v=0
122882 On ch=1 n=d6 v=105
122938 On ch=1 n=d6 v=0
123002 On ch=1 n=d6 v=105
123058 On ch=1 n=d6 v=0
123122 On ch=1 n=d6 v=105
123178 On ch=1 n=d6 v=0
123180 On ch=1 n=f#6 v=105
123238 On ch=1 n=f#6 v=0
123240 On ch=1 n=a6 v=105
123298 On ch=1 n=a6 v=0
123300 On ch=1 n=d7 v=105
123358 On ch=1 n=d7 v=0
123360 On ch=1 n=d6 v=81
123418 On ch=1 n=d6 v=0
123482 On ch=1 n=d6 v=81
123538 On ch=1 n=d6 v=0
123602 On ch=1 n=d6 v=81
123658 On ch=1 n=d6 v=0
123722 On ch=1 n=d6 v=81
123778 On ch=1 n=d6 v=0
123842 On ch=1 n=d6 v=63
123958 On ch=1 n=d6 v=0
123960 On ch=1 n=d7 v=63
124078 On ch=1 n=d7 v=0
124080 On ch=1 n=d7 v=36
124138 On ch=1 n=d7 v=0
124202 On ch=1 n=d7 v=36
124258 On ch=1 n=d7 v=0
124322 On ch=1 n=d7 v=36
124378 On ch=1 n=d7 v=0
124442 On ch=1 n=d7 v=36
124498 On ch=1 n=d7 v=0
124562 On ch=1 n=c#7 v=47
124678 On ch=1 n=c#7 v=0
124680 On ch=1 n=d7 v=47
124798 On ch=1 n=d7 v=0
124800 On ch=1 n=d7 v=47
124858 On ch=1 n=d7 v=0
124922 On ch=1 n=d7 v=47
124978 On ch=1 n=d7 v=0
125042 On ch=1 n=d7 v=47
125098 On ch=1 n=d7 v=0
125162 On ch=1 n=d7 v=47
125218 On ch=1 n=d7 v=0
125282 On ch=1 n=d#7 v=47
125398 On ch=1 n=d#7 v=0
125400 On ch=1 n=d7 v=47
125518 On ch=1 n=d7 v=0
125520 On ch=1 n=d7 v=36
125578 On ch=1 n=d7 v=0
125642 On ch=1 n=d7 v=36
125698 On ch=1 n=d7 v=0
125762 On ch=1 n=d7 v=36
125818 On ch=1 n=d7 v=0
125882 On ch=1 n=d7 v=36
125938 On ch=1 n=d7 v=0
126002 On ch=1 n=c#7 v=36
126118 On ch=1 n=c#7 v=0
126120 On ch=1 n=d7 v=36
126238 On ch=1 n=d7 v=0
126240 On ch=1 n=d7 v=36
126298 On ch=1 n=d7 v=0
126362 On ch=1 n=d7 v=36
126418 On ch=1 n=d7 v=0
126482 On ch=1 n=d7 v=36
126538 On ch=1 n=d7 v=0
126602 On ch=1 n=d7 v=36
126658 On ch=1 n=d7 v=0
126722 On ch=1 n=d7 v=31
126778 On ch=1 n=d7 v=0
126842 On ch=1 n=d7 v=31
126898 On ch=1 n=d7 v=0
126962 On ch=1 n=d7 v=31
127018 On ch=1 n=d7 v=0
127082 On ch=1 n=d7 v=31
127138 On ch=1 n=d7 v=0
127202 On ch=1 n=d7 v=31
127258 On ch=1 n=d7 v=0
127322 On ch=1 n=d7 v=31
127378 On ch=1 n=d7 v=0
127442 On ch=1 n=d7 v=30
127558 On ch=1 n=d7 v=0
127682 On ch=1 n=d7 v=30
127798 On ch=1 n=d7 v=0
127922 On ch=1 n=d7 v=30
128038 On ch=1 n=d7 v=0
128160 On ch=1 n=d7 v=30
128276 On ch=1 n=d7 v=0
128402 On ch=1 n=d7 v=30
128518 On ch=1 n=d7 v=0
128642 On ch=1 n=d7 v=30
128758 On ch=1 n=d7 v=0
128882 On ch=1 n=d7 v=30
128998 On ch=1 n=d7 v=0
129122 On ch=1 n=d7 v=30
129238 On ch=1 n=d7 v=0
129362 On ch=1 n=d7 v=30
129478 On ch=1 n=d7 v=0
129600 On ch=1 n=d7 v=30
129716 On ch=1 n=d7 v=0
129842 On ch=1 n=d7 v=30
129958 On ch=1 n=d7 v=0
130082 On ch=1 n=d7 v=30
130198 On ch=1 n=d7 v=0
130322 On ch=1 n=d7 v=30
131038 On ch=1 n=d7 v=0
131520 On ch=1 n=d6 v=30
131636 On ch=1 n=d6 v=0
131762 On ch=1 n=d6 v=30
132238 On ch=1 n=d6 v=0
132240 On ch=1 n=g5 v=63
132478 On ch=1 n=g5 v=0
132480 On ch=1 n=g5 v=63
132958 On ch=1 n=g5 v=0
132960 On ch=1 n=b5 v=63
133078 On ch=1 n=b5 v=0
133080 On ch=1 n=a5 v=63
133198 On ch=1 n=a5 v=0
133200 On ch=1 n=d5 v=63
133438 On ch=1 n=d5 v=0
133440 On ch=1 n=e5 v=63
133678 On ch=1 n=e5 v=0
133680 On ch=1 n=f#5 v=63
133758 On ch=1 n=f#5 v=0
133760 On ch=1 n=e5 v=63
133838 On ch=1 n=e5 v=0
133840 On ch=1 n=f#5 v=63
133918 On ch=1 n=f#5 v=0
133920 On ch=1 n=g5 v=63
134038 On ch=1 n=g5 v=0
134162 On ch=1 n=g5 v=63
134278 On ch=1 n=g5 v=0
134402 On ch=1 n=g5 v=63
134518 On ch=1 n=g5 v=0
134642 On ch=1 n=g5 v=63
135118 On ch=1 n=g5 v=0
135120 On ch=1 n=a5 v=81
135358 On ch=1 n=a5 v=0
135360 On ch=1 n=b5 v=81
135598 On ch=1 n=b5 v=0
135842 On ch=1 n=d6 v=81
136078 On ch=1 n=d6 v=0
136080 On ch=1 n=c6 v=81
136558 On ch=1 n=c6 v=0
136560 On ch=1 n=b5 v=81
136798 On ch=1 n=b5 v=0
136800 On ch=1 n=d5 v=81
136918 On ch=1 n=d5 v=0
136920 On ch=1 n=e5 v=81
137038 On ch=1 n=e5 v=0
137040 On ch=1 n=f#5 v=81
137158 On ch=1 n=f#5 v=0
137160 On ch=1 n=g5 v=81
137278 On ch=1 n=g5 v=0
137280 On ch=1 n=a5 v=81
137398 On ch=1 n=a5 v=0
137400 On ch=1 n=b5 v=81
137518 On ch=1 n=b5 v=0
137520 On ch=1 n=c#6 v=81
137638 On ch=1 n=c#6 v=0
137640 On ch=1 n=d6 v=81
137758 On ch=1 n=d6 v=0
137760 On ch=1 n=e6 v=81
137878 On ch=1 n=e6 v=0
137880 On ch=1 n=f#6 v=81
137998 On ch=1 n=f#6 v=0
138000 On ch=1 n=g6 v=105
138058 On ch=1 n=g6 v=0
138060 On ch=1 n=a6 v=105
138118 On ch=1 n=a6 v=0
138120 On ch=1 n=b6 v=105
138178 On ch=1 n=b6 v=0
138180 On ch=1 n=c#7 v=105
138238 On ch=1 n=c#7 v=0
138240 On ch=1 n=d7 v=105
139198 On ch=1 n=d7 v=0
139200 On ch=1 n=b5 v=81
139678 On ch=1 n=b5 v=0
139680 On ch=1 n=c6 v=63
139918 On ch=1 n=c6 v=0
139920 On ch=1 n=d6 v=63
140158 On ch=1 n=d6 v=0
140160 On ch=1 n=e6 v=47
140278 On ch=1 n=e6 v=0
140402 On ch=1 n=e6 v=47
140638 On ch=1 n=e6 v=0
140882 On ch=1 n=a5 v=81
141118 On ch=1 n=a5 v=0
141120 On ch=1 n=b5 v=63
141358 On ch=1 n=b5 v=0
141360 On ch=1 n=c6 v=63
141598 On ch=1 n=c6 v=0
141600 On ch=1 n=d6 v=47
141718 On ch=1 n=d6 v=0
141842 On ch=1 n=d6 v=47
142078 On ch=1 n=d6 v=0
142322 On ch=1 n=g5 v=36
142558 On ch=1 n=g5 v=0
142560 On ch=1 n=a5 v=36
142678 On ch=1 n=a5 v=0
142802 On ch=1 n=b5 v=36
142918 On ch=1 n=b5 v=0
143042 On ch=1 n=c6 v=36
143158 On ch=1 n=c6 v=0
143282 On ch=1 n=d5 v=32
143398 On ch=1 n=d5 v=0
143522 On ch=1 n=e5 v=30
143638 On ch=1 n=e5 v=0
143762 On ch=1 n=f#5 v=30
143878 On ch=1 n=f#5 v=0
144722 On ch=1 n=g5 v=81
144958 On ch=1 n=g5 v=0
148322 On ch=1 n=g5 v=81
148680 On ch=1 n=g5 v=0
148682 On ch=1 n=b5 v=81
148740 On ch=1 n=b5 v=0
148742 On ch=1 n=a5 v=81
148800 On ch=1 n=a5 v=0
148802 On ch=1 n=g5 v=81
149040 On ch=1 n=g5 v=0
149524 On ch=1 n=d5 v=81
149640 On ch=1 n=d5 v=0
149764 On ch=1 n=g5 v=81
149880 On ch=1 n=g5 v=0
150004 On ch=1 n=b5 v=81
150120 On ch=1 n=b5 v=0
150244 On ch=1 n=b5 v=81
150360 On ch=1 n=b5 v=0
150362 On ch=1 n=a5 v=81
150480 On ch=1 n=a5 v=0
150482 On ch=1 n=g5 v=81
150600 On ch=1 n=g5 v=0
150602 On ch=1 n=a5 v=63
150720 On ch=1 n=a5 v=0
150722 On ch=1 n=g5 v=63
150960 On ch=1 n=g5 v=0
150962 On ch=1 n=d6 v=47
151080 On ch=1 n=d6 v=0
151204 On ch=1 n=d6 v=47
151320 On ch=1 n=d6 v=0
151444 On ch=1 n=d6 v=47
151560 On ch=1 n=d6 v=0
151684 On ch=1 n=d6 v=47
151800 On ch=1 n=d6 v=0
151924 On ch=1 n=d6 v=47
152040 On ch=1 n=d6 v=0
152164 On ch=1 n=d6 v=47
152520 On ch=1 n=d6 v=0
152522 On ch=1 n=e6 v=47
152580 On ch=1 n=e6 v=0
152582 On ch=1 n=d6 v=47
152640 On ch=1 n=d6 v=0
152642 On ch=1 n=c6 v=47
152880 On ch=1 n=c6 v=0
152882 On ch=1 n=b5 v=47
153000 On ch=1 n=b5 v=0
153124 On ch=1 n=a5 v=47
153240 On ch=1 n=a5 v=0
153364 On ch=1 n=a6 v=47
153840 On ch=1 n=a6 v=0
153842 On ch=1 n=g6 v=47
154080 On ch=1 n=g6 v=0
154082 On ch=1 n=g6 v=47
154200 On ch=1 n=g6 v=0
154202 On ch=1 n=f#6 v=47
154320 On ch=1 n=f#6 v=0
154322 On ch=1 n=e6 v=47
154440 On ch=1 n=e6 v=0
154442 On ch=1 n=d6 v=47
154560 On ch=1 n=d6 v=0
154562 On ch=1 n=d6 v=47
154680 On ch=1 n=d6 v=0
154804 On ch=1 n=d6 v=47
154920 On ch=1 n=d6 v=0
155044 On ch=1 n=d6 v=47
155160 On ch=1 n=d6 v=0
155162 On ch=1 n=e6 v=47
155280 On ch=1 n=e6 v=0
155282 On ch=1 n=c6 v=47
155400 On ch=1 n=c6 v=0
155402 On ch=1 n=d6 v=47
155520 On ch=1 n=d6 v=0
155522 On ch=1 n=b5 v=47
155640 On ch=1 n=b5 v=0
155642 On ch=1 n=c6 v=47
155760 On ch=1 n=c6 v=0
155762 On ch=1 n=a5 v=47
155880 On ch=1 n=a5 v=0
155882 On ch=1 n=b5 v=47
156000 On ch=1 n=b5 v=0
156002 On ch=1 n=g5 v=81
156360 On ch=1 n=g5 v=0
156362 On ch=1 n=b5 v=81
156420 On ch=1 n=b5 v=0
156422 On ch=1 n=a5 v=81
156480 On ch=1 n=a5 v=0
156482 On ch=1 n=g5 v=81
156720 On ch=1 n=g5 v=0
157204 On ch=1 n=d5 v=81
157320 On ch=1 n=d5 v=0
157444 On ch=1 n=g5 v=81
157560 On ch=1 n=g5 v=0
157684 On ch=1 n=b5 v=81
157800 On ch=1 n=b5 v=0
157924 On ch=1 n=b5 v=81
158040 On ch=1 n=b5 v=0
158042 On ch=1 n=a5 v=81
158160 On ch=1 n=a5 v=0
158162 On ch=1 n=g5 v=81
158280 On ch=1 n=g5 v=0
158282 On ch=1 n=a5 v=63
158400 On ch=1 n=a5 v=0
158402 On ch=1 n=g5 v=63
158640 On ch=1 n=g5 v=0
158642 On ch=1 n=e6 v=47
158760 On ch=1 n=e6 v=0
158884 On ch=1 n=e6 v=47
159000 On ch=1 n=e6 v=0
159124 On ch=1 n=e6 v=47
159240 On ch=1 n=e6 v=0
159364 On ch=1 n=e6 v=63
159480 On ch=1 n=e6 v=0
159604 On ch=1 n=e6 v=63
159720 On ch=1 n=e6 v=0
159844 On ch=1 n=e6 v=63
160200 On ch=1 n=e6 v=0
160202 On ch=1 n=g6 v=63
160260 On ch=1 n=g6 v=0
160262 On ch=1 n=a6 v=63
160320 On ch=1 n=a6 v=0
160322 On ch=1 n=b6 v=81
160680 On ch=1 n=b6 v=0
160682 On ch=1 n=g6 v=81
160740 On ch=1 n=g6 v=0
160742 On ch=1 n=e6 v=81
160800 On ch=1 n=e6 v=0
160802 On ch=1 n=d6 v=81
161280 On ch=1 n=d6 v=0
161282 On ch=1 n=c#6 v=81
161376 On ch=1 n=c#6 v=0
161378 On ch=1 n=d6 v=81
161472 On ch=1 n=d6 v=0
161474 On ch=1 n=c#6 v=81
161568 On ch=1 n=c#6 v=0
161570 On ch=1 n=b5 v=81
161664 On ch=1 n=b5 v=0
161666 On ch=1 n=c#6 v=81
161760 On ch=1 n=c#6 v=0
161762 On ch=1 n=d6 v=63
161880 On ch=1 n=d6 v=0
161882 On ch=1 n=e6 v=63
162000 On ch=1 n=e6 v=0
162002 On ch=1 n=f#6 v=63
162120 On ch=1 n=f#6 v=0
162122 On ch=1 n=g6 v=63
162240 On ch=1 n=g6 v=0
162242 On ch=1 n=a6 v=63
162360 On ch=1 n=a6 v=0
162362 On ch=1 n=f#6 v=63
162480 On ch=1 n=f#6 v=0
162482 On ch=1 n=e6 v=63
162600 On ch=1 n=e6 v=0
162602 On ch=1 n=d6 v=63
162720 On ch=1 n=d6 v=0
162722 On ch=1 n=c#6 v=63
162840 On ch=1 n=c#6 v=0
162842 On ch=1 n=d6 v=63
162960 On ch=1 n=d6 v=0
162962 On ch=1 n=e6 v=63
163080 On ch=1 n=e6 v=0
163082 On ch=1 n=f#6 v=63
163200 On ch=1 n=f#6 v=0
163202 On ch=1 n=g6 v=63
163320 On ch=1 n=g6 v=0
163322 On ch=1 n=e6 v=63
163440 On ch=1 n=e6 v=0
163442 On ch=1 n=d6 v=63
163560 On ch=1 n=d6 v=0
163562 On ch=1 n=c#6 v=63
163680 On ch=1 n=c#6 v=0
163682 On ch=1 n=d6 v=63
163800 On ch=1 n=d6 v=0
163802 On ch=1 n=e6 v=63
163920 On ch=1 n=e6 v=0
163922 On ch=1 n=f#6 v=63
164040 On ch=1 n=f#6 v=0
164042 On ch=1 n=g6 v=63
164160 On ch=1 n=g6 v=0
164162 On ch=1 n=a6 v=63
164280 On ch=1 n=a6 v=0
164282 On ch=1 n=f#6 v=63
164400 On ch=1 n=f#6 v=0
164402 On ch=1 n=e6 v=63
164520 On ch=1 n=e6 v=0
164522 On ch=1 n=d6 v=63
164640 On ch=1 n=d6 v=0
164642 On ch=1 n=c#6 v=63
164760 On ch=1 n=c#6 v=0
164762 On ch=1 n=d6 v=63
164880 On ch=1 n=d6 v=0
164882 On ch=1 n=e6 v=63
165000 On ch=1 n=e6 v=0
165002 On ch=1 n=f#6 v=63
165120 On ch=1 n=f#6 v=0
165122 On ch=1 n=g6 v=81
165240 On ch=1 n=g6 v=0
165242 On ch=1 n=e6 v=81
165360 On ch=1 n=e6 v=0
165362 On ch=1 n=d6 v=81
165480 On ch=1 n=d6 v=0
165482 On ch=1 n=c#6 v=81
165600 On ch=1 n=c#6 v=0
165602 On ch=1 n=d6 v=81
166080 On ch=1 n=d6 v=0
166082 On ch=1 n=c#7 v=81
166140 On ch=1 n=c#7 v=0
166142 On ch=1 n=d7 v=81
166560 On ch=1 n=d7 v=0
167524 On ch=1 n=f6 v=81
167880 On ch=1 n=f6 v=0
167882 On ch=1 n=d6 v=81
167940 On ch=1 n=d6 v=0
167942 On ch=1 n=d#6 v=81
168000 On ch=1 n=d#6 v=0
168002 On ch=1 n=f6 v=81
168240 On ch=1 n=f6 v=0
168724 On ch=1 n=a5 v=81
168840 On ch=1 n=a5 v=0
168964 On ch=1 n=a5 v=81
169080 On ch=1 n=a5 v=0
169204 On ch=1 n=a5 v=81
169320 On ch=1 n=a5 v=0
169444 On ch=1 n=a#5 v=81
169800 On ch=1 n=a#5 v=0
169802 On ch=1 n=a#5 v=81
169860 On ch=1 n=a#5 v=0
169862 On ch=1 n=c6 v=81
169920 On ch=1 n=c6 v=0
169922 On ch=1 n=d6 v=81
170160 On ch=1 n=d6 v=0
170644 On ch=1 n=f#5 v=81
170760 On ch=1 n=f#5 v=0
170884 On ch=1 n=f#5 v=81
171000 On ch=1 n=f#5 v=0
171124 On ch=1 n=f#5 v=81
171240 On ch=1 n=f#5 v=0
171364 On ch=1 n=g5 v=81
171720 On ch=1 n=g5 v=0
171722 On ch=1 n=g5 v=81
171780 On ch=1 n=g5 v=0
171782 On ch=1 n=a5 v=81
171840 On ch=1 n=a5 v=0
171842 On ch=1 n=a#5 v=81
172080 On ch=1 n=a#5 v=0
172564 On ch=1 n=c#5 v=81
172680 On ch=1 n=c#5 v=0
172804 On ch=1 n=c#5 v=81
172920 On ch=1 n=c#5 v=0
173044 On ch=1 n=c#5 v=81
173160 On ch=1 n=c#5 v=0
173284 On ch=1 n=d5 v=81
173640 On ch=1 n=d5 v=0
175204 On ch=1 n=g5 v=63
175560 On ch=1 n=g5 v=0
175562 On ch=1 n=b5 v=63
175620 On ch=1 n=b5 v=0
175622 On ch=1 n=a5 v=63
175680 On ch=1 n=a5 v=0
175682 On ch=1 n=g5 v=63
175920 On ch=1 n=g5 v=0
176404 On ch=1 n=d5 v=63
176520 On ch=1 n=d5 v=0
176644 On ch=1 n=g5 v=63
176760 On ch=1 n=g5 v=0
176884 On ch=1 n=b5 v=63
177000 On ch=1 n=b5 v=0
177124 On ch=1 n=b5 v=63
177240 On ch=1 n=b5 v=0
177242 On ch=1 n=a5 v=63
177360 On ch=1 n=a5 v=0
177362 On ch=1 n=g5 v=47
177480 On ch=1 n=g5 v=0
177482 On ch=1 n=a5 v=47
177600 On ch=1 n=a5 v=0
177602 On ch=1 n=g5 v=47
177840 On ch=1 n=g5 v=0
177842 On ch=1 n=e6 v=31
177960 On ch=1 n=e6 v=0
178084 On ch=1 n=e6 v=31
178200 On ch=1 n=e6 v=0
178324 On ch=1 n=e6 v=31
178440 On ch=1 n=e6 v=0
178564 On ch=1 n=e6 v=31
178680 On ch=1 n=e6 v=0
178804 On ch=1 n=e6 v=31
178920 On ch=1 n=e6 v=0
179044 On ch=1 n=e6 v=31
179400 On ch=1 n=e6 v=0
179402 On ch=1 n=a6 v=31
179460 On ch=1 n=a6 v=0
179462 On ch=1 n=b6 v=31
179520 On ch=1 n=b6 v=0
179522 On ch=1 n=c7 v=31
179640 On ch=1 n=c7 v=0
179764 On ch=1 n=d6 v=31
179880 On ch=1 n=d6 v=0
180004 On ch=1 n=d6 v=31
180120 On ch=1 n=d6 v=0
180244 On ch=1 n=d6 v=31
180360 On ch=1 n=d6 v=0
180484 On ch=1 n=d6 v=31
180600 On ch=1 n=d6 v=0
180724 On ch=1 n=d6 v=19
180840 On ch=1 n=d6 v=0
180964 On ch=1 n=d6 v=19
181320 On ch=1 n=d6 v=0
181322 On ch=1 n=g6 v=19
181380 On ch=1 n=g6 v=0
181382 On ch=1 n=a6 v=19
181440 On ch=1 n=a6 v=0
181442 On ch=1 n=b6 v=19
181560 On ch=1 n=b6 v=0
183724 On ch=1 n=b6 v=31
183780 On ch=1 n=b6 v=0
183782 On ch=1 n=a6 v=31
183840 On ch=1 n=a6 v=0
183842 On ch=1 n=g6 v=31
184080 On ch=1 n=g6 v=0
184204 On ch=1 n=g6 v=31
184260 On ch=1 n=g6 v=0
184262 On ch=1 n=f#6 v=31
184320 On ch=1 n=f#6 v=0
184322 On ch=1 n=e6 v=31
184560 On ch=1 n=e6 v=0
184684 On ch=1 n=e6 v=31
184740 On ch=1 n=e6 v=0
184742 On ch=1 n=d6 v=31
184800 On ch=1 n=d6 v=0
184802 On ch=1 n=c6 v=31
185280 On ch=1 n=c6 v=0
185644 On ch=1 n=d#6 v=31
185700 On ch=1 n=d#6 v=0
185702 On ch=1 n=d6 v=31
185760 On ch=1 n=d6 v=0
185762 On ch=1 n=c6 v=31
186000 On ch=1 n=c6 v=0
186002 On ch=1 n=c6 v=31
186120 On ch=1 n=c6 v=0
186244 On ch=1 n=c6 v=31
186360 On ch=1 n=c6 v=0
186484 On ch=1 n=c6 v=31
186600 On ch=1 n=c6 v=0
186724 On ch=1 n=c6 v=47
187080 On ch=1 n=c6 v=0
187082 On ch=1 n=d6 v=31
187140 On ch=1 n=d6 v=0
187142 On ch=1 n=c6 v=31
187200 On ch=1 n=c6 v=0
187202 On ch=1 n=b5 v=31
187440 On ch=1 n=b5 v=0
187442 On ch=1 n=b5 v=31
187560 On ch=1 n=b5 v=0
187684 On ch=1 n=a5 v=31
187920 On ch=1 n=a5 v=0
187922 On ch=1 n=e6 v=31
188160 On ch=1 n=e6 v=0
188162 On ch=1 n=d6 v=31
188400 On ch=1 n=d6 v=0
188402 On ch=1 n=f#5 v=31
188520 On ch=1 n=f#5 v=0
188644 On ch=1 n=g5 v=81
188760 On ch=1 n=g5 v=0
188762 On ch=1 n=a5 v=81
188880 On ch=1 n=a5 v=0
188882 On ch=1 n=b5 v=81
189000 On ch=1 n=b5 v=0
189002 On ch=1 n=c6 v=81
189120 On ch=1 n=c6 v=0
189122 On ch=1 n=d6 v=81
189240 On ch=1 n=d6 v=0
189242 On ch=1 n=b5 v=81
189360 On ch=1 n=b5 v=0
189362 On ch=1 n=a5 v=81
189480 On ch=1 n=a5 v=0
189482 On ch=1 n=g5 v=81
189600 On ch=1 n=g5 v=0
189602 On ch=1 n=f#5 v=81
189720 On ch=1 n=f#5 v=0
189722 On ch=1 n=g5 v=81
189840 On ch=1 n=g5 v=0
189842 On ch=1 n=a5 v=81
189960 On ch=1 n=a5 v=0
189962 On ch=1 n=b5 v=81
190080 On ch=1 n=b5 v=0
190082 On ch=1 n=c6 v=81
190200 On ch=1 n=c6 v=0
190202 On ch=1 n=a5 v=81
190320 On ch=1 n=a5 v=0
190322 On ch=1 n=g5 v=81
190440 On ch=1 n=g5 v=0
190442 On ch=1 n=f#5 v=81
190560 On ch=1 n=f#5 v=0
190562 On ch=1 n=g5 v=63
190680 On ch=1 n=g5 v=0
190682 On ch=1 n=a5 v=63
190800 On ch=1 n=a5 v=0
190802 On ch=1 n=b5 v=63
190920 On ch=1 n=b5 v=0
190922 On ch=1 n=c6 v=63
191040 On ch=1 n=c6 v=0
191042 On ch=1 n=d6 v=63
191160 On ch=1 n=d6 v=0
191162 On ch=1 n=b5 v=63
191280 On ch=1 n=b5 v=0
191282 On ch=1 n=a5 v=63
191400 On ch=1 n=a5 v=0
191402 On ch=1 n=g5 v=63
191520 On ch=1 n=g5 v=0
191522 On ch=1 n=f#5 v=63
191640 On ch=1 n=f#5 v=0
191642 On ch=1 n=g5 v=63
191760 On ch=1 n=g5 v=0
191762 On ch=1 n=a5 v=63
191880 On ch=1 n=a5 v=0
191882 On ch=1 n=b5 v=63
192000 On ch=1 n=b5 v=0
192002 On ch=1 n=c6 v=63
192120 On ch=1 n=c6 v=0
192122 On ch=1 n=a5 v=63
192240 On ch=1 n=a5 v=0
192242 On ch=1 n=g5 v=63
192360 On ch=1 n=g5 v=0
192362 On ch=1 n=f#5 v=63
192480 On ch=1 n=f#5 v=0
192482 On ch=1 n=g5 v=63
192960 On ch=1 n=g5 v=0
192962 On ch=1 n=f#6 v=81
193020 On ch=1 n=f#6 v=0
193022 On ch=1 n=g6 v=81
193200 On ch=1 n=g6 v=0
194644 On ch=1 n=e5 v=81
194760 On ch=1 n=e5 v=0
194884 On ch=1 n=e6 v=81
195600 On ch=1 n=e6 v=0
195602 On ch=1 n=d#6 v=81
195840 On ch=1 n=d#6 v=0
195842 On ch=1 n=f#6 v=81
196560 On ch=1 n=f#6 v=0
196562 On ch=1 n=e6 v=81
196800 On ch=1 n=e6 v=0
196802 On ch=1 n=g6 v=81
197520 On ch=1 n=g6 v=0
197522 On ch=1 n=f#6 v=81
197760 On ch=1 n=f#6 v=0
197762 On ch=1 n=b6 v=81
198480 On ch=1 n=b6 v=0
198482 On ch=1 n=a#6 v=81
198720 On ch=1 n=a#6 v=0
198722 On ch=1 n=e7 v=81
199200 On ch=1 n=e7 v=0
199202 On ch=1 n=d7 v=81
199920 On ch=1 n=d7 v=0
199922 On ch=1 n=c#7 v=63
200400 On ch=1 n=c#7 v=0
200402 On ch=1 n=b6 v=47
200880 On ch=1 n=b6 v=0
200882 On ch=1 n=a#6 v=47
201120 On ch=1 n=a#6 v=0
201364 On ch=1 n=b5 v=36
201600 On ch=1 n=b5 v=0
201602 On ch=1 n=b6 v=36
201840 On ch=1 n=b6 v=0
202324 On ch=1 n=e5 v=81
202440 On ch=1 n=e5 v=0
202564 On ch=1 n=e6 v=81
203280 On ch=1 n=e6 v=0
203282 On ch=1 n=d#6 v=81
203520 On ch=1 n=d#6 v=0
203522 On ch=1 n=f#6 v=81
204240 On ch=1 n=f#6 v=0
204242 On ch=1 n=e6 v=81
204480 On ch=1 n=e6 v=0
204482 On ch=1 n=g6 v=81
205200 On ch=1 n=g6 v=0
205202 On ch=1 n=f#6 v=81
205440 On ch=1 n=f#6 v=0
205442 On ch=1 n=b6 v=81
206160 On ch=1 n=b6 v=0
206162 On ch=1 n=a#6 v=81
206400 On ch=1 n=a#6 v=0
206402 On ch=1 n=e7 v=81
206880 On ch=1 n=e7 v=0
206882 On ch=1 n=d7 v=81
207600 On ch=1 n=d7 v=0
207602 On ch=1 n=c#7 v=63
208080 On ch=1 n=c#7 v=0
208082 On ch=1 n=b6 v=63
208560 On ch=1 n=b6 v=0
208562 On ch=1 n=a#6 v=47
208800 On ch=1 n=a#6 v=0
209044 On ch=1 n=b5 v=36
209280 On ch=1 n=b5 v=0
209282 On ch=1 n=b6 v=36
209520 On ch=1 n=b6 v=0
210004 On ch=1 n=a5 v=81
210240 On ch=1 n=a5 v=0
210242 On ch=1 n=a6 v=81
210960 On ch=1 n=a6 v=0
210962 On ch=1 n=g#6 v=81
211200 On ch=1 n=g#6 v=0
211202 On ch=1 n=d7 v=81
211920 On ch=1 n=d7 v=0
211922 On ch=1 n=c7 v=63
212400 On ch=1 n=c7 v=0
212402 On ch=1 n=b6 v=47
212880 On ch=1 n=b6 v=0
212882 On ch=1 n=a6 v=36
213120 On ch=1 n=a6 v=0
213364 On ch=1 n=f#6 v=36
213600 On ch=1 n=f#6 v=0
213602 On ch=1 n=g6 v=36
214320 On ch=1 n=g6 v=0
214322 On ch=1 n=f#6 v=36
214560 On ch=1 n=f#6 v=0
214562 On ch=1 n=c7 v=36
215280 On ch=1 n=c7 v=0
215282 On ch=1 n=b6 v=36
215760 On ch=1 n=b6 v=0
215762 On ch=1 n=a6 v=31
216240 On ch=1 n=a6 v=0
216242 On ch=1 n=g6 v=31
216720 On ch=1 n=g6 v=0
216722 On ch=1 n=f#6 v=30
216960 On ch=1 n=f#6 v=0
216962 On ch=1 n=b6 v=81
217080 On ch=1 n=b6 v=0
217082 On ch=1 n=a6 v=81
217200 On ch=1 n=a6 v=0
217202 On ch=1 n=g6 v=81
217320 On ch=1 n=g6 v=0
217322 On ch=1 n=f#6 v=81
217440 On ch=1 n=f#6 v=0
217442 On ch=1 n=e6 v=81
217920 On ch=1 n=e6 v=0
218164 On ch=1 n=e6 v=81
218400 On ch=1 n=e6 v=0
218402 On ch=1 n=f#6 v=81
219120 On ch=1 n=f#6 v=0
219122 On ch=1 n=f#6 v=81
219360 On ch=1 n=f#6 v=0
219362 On ch=1 n=g6 v=81
220080 On ch=1 n=g6 v=0
220082 On ch=1 n=g6 v=81
220320 On ch=1 n=g6 v=0
220322 On ch=1 n=a6 v=81
221040 On ch=1 n=a6 v=0
221042 On ch=1 n=f#6 v=81
221280 On ch=1 n=f#6 v=0
221282 On ch=1 n=d6 v=81
222000 On ch=1 n=d6 v=0
222002 On ch=1 n=c6 v=81
222240 On ch=1 n=c6 v=0
222242 On ch=1 n=a5 v=81
222960 On ch=1 n=a5 v=0
222962 On ch=1 n=f#5 v=81
223200 On ch=1 n=f#5 v=0
223202 On ch=1 n=d5 v=81
223920 On ch=1 n=d5 v=0
223922 On ch=1 n=d#5 v=81
224040 On ch=1 n=d#5 v=0
224042 On ch=1 n=c5 v=81
224160 On ch=1 n=c5 v=0
225844 On ch=1 n=c7 v=36
225960 On ch=1 n=c7 v=0
225962 On ch=1 n=a6 v=36
226080 On ch=1 n=a6 v=0
226082 On ch=1 n=f#6 v=36
226200 On ch=1 n=f#6 v=0
226324 On ch=1 n=a6 v=36
226440 On ch=1 n=a6 v=0
226442 On ch=1 n=f#6 v=36
226560 On ch=1 n=f#6 v=0
226562 On ch=1 n=d#6 v=36
226680 On ch=1 n=d#6 v=0
226804 On ch=1 n=f#6 v=36
226920 On ch=1 n=f#6 v=0
226922 On ch=1 n=d#6 v=36
227040 On ch=1 n=d#6 v=0
227042 On ch=1 n=c6 v=36
227520 On ch=1 n=c6 v=0
228244 On ch=1 n=c5 v=81
228480 On ch=1 n=c5 v=0
228482 On ch=1 n=b4 v=81
228720 On ch=1 n=b4 v=0
228722 On ch=1 n=a5 v=81
228960 On ch=1 n=a5 v=0
229204 On ch=1 n=g5 v=81
229440 On ch=1 n=g5 v=0
229684 On ch=1 n=f#5 v=81
229920 On ch=1 n=f#5 v=0
230164 On ch=1 n=e5 v=81
230400 On ch=1 n=e5 v=0
230644 On ch=1 n=d#5 v=81
230880 On ch=1 n=d#5 v=0
230882 On ch=1 n=e5 v=81
231360 On ch=1 n=e5 v=0
231604 On ch=1 n=d#7 v=47
231840 On ch=1 n=d#7 v=0
231842 On ch=1 n=e7 v=47
232320 On ch=1 n=e7 v=0
232564 On ch=1 n=e5 v=47
232800 On ch=1 n=e5 v=0
232802 On ch=1 n=f5 v=47
233280 On ch=1 n=f5 v=0
233524 On ch=1 n=f5 v=47
233760 On ch=1 n=f5 v=0
233762 On ch=1 n=g5 v=47
234240 On ch=1 n=g5 v=0
234484 On ch=1 n=g5 v=63
234720 On ch=1 n=g5 v=0
234722 On ch=1 n=a5 v=63
235200 On ch=1 n=a5 v=0
235444 On ch=1 n=a5 v=47
235680 On ch=1 n=a5 v=0
235682 On ch=1 n=g5 v=47
236160 On ch=1 n=g5 v=0
236404 On ch=1 n=g5 v=47
236640 On ch=1 n=g5 v=0
236642 On ch=1 n=f#5 v=47
237120 On ch=1 n=f#5 v=0
237364 On ch=1 n=c#7 v=31
237600 On ch=1 n=c#7 v=0
237602 On ch=1 n=d7 v=31
238080 On ch=1 n=d7 v=0
238324 On ch=1 n=d5 v=31
238560 On ch=1 n=d5 v=0
238562 On ch=1 n=e5 v=31
239040 On ch=1 n=e5 v=0
239284 On ch=1 n=e5 v=31
239520 On ch=1 n=e5 v=0
239522 On ch=1 n=f#5 v=31
240000 On ch=1 n=f#5 v=0
240244 On ch=1 n=d5 v=81
240360 On ch=1 n=d5 v=0
240484 On ch=1 n=g5 v=81
240840 On ch=1 n=g5 v=0
240842 On ch=1 n=b5 v=81
240900 On ch=1 n=b5 v=0
240902 On ch=1 n=a5 v=81
240960 On ch=1 n=a5 v=0
240962 On ch=1 n=g5 v=81
241200 On ch=1 n=g5 v=0
241684 On ch=1 n=d5 v=81
241800 On ch=1 n=d5 v=0
241924 On ch=1 n=g5 v=81
242040 On ch=1 n=g5 v=0
242164 On ch=1 n=b5 v=81
242280 On ch=1 n=b5 v=0
242404 On ch=1 n=b5 v=81
242520 On ch=1 n=b5 v=0
242522 On ch=1 n=a5 v=81
242640 On ch=1 n=a5 v=0
242642 On ch=1 n=g5 v=81
242760 On ch=1 n=g5 v=0
242762 On ch=1 n=a5 v=81
242880 On ch=1 n=a5 v=0
242882 On ch=1 n=g5 v=81
243120 On ch=1 n=g5 v=0
243122 On ch=1 n=d6 v=36
243240 On ch=1 n=d6 v=0
243364 On ch=1 n=d6 v=36
243480 On ch=1 n=d6 v=0
243604 On ch=1 n=d6 v=36
243720 On ch=1 n=d6 v=0
243844 On ch=1 n=d6 v=36
243960 On ch=1 n=d6 v=0
244084 On ch=1 n=d6 v=36
244200 On ch=1 n=d6 v=0
244324 On ch=1 n=d6 v=36
244680 On ch=1 n=d6 v=0
244682 On ch=1 n=e6 v=36
244740 On ch=1 n=e6 v=0
244742 On ch=1 n=d6 v=36
244800 On ch=1 n=d6 v=0
244802 On ch=1 n=c6 v=36
245040 On ch=1 n=c6 v=0
245042 On ch=1 n=b5 v=36
245160 On ch=1 n=b5 v=0
245284 On ch=1 n=a5 v=47
245400 On ch=1 n=a5 v=0
245524 On ch=1 n=a6 v=47
246000 On ch=1 n=a6 v=0
246002 On ch=1 n=g6 v=63
246240 On ch=1 n=g6 v=0
246242 On ch=1 n=g6 v=47
246360 On ch=1 n=g6 v=0
246362 On ch=1 n=f#6 v=47
246480 On ch=1 n=f#6 v=0
246482 On ch=1 n=e6 v=47
246600 On ch=1 n=e6 v=0
246602 On ch=1 n=d6 v=47
246720 On ch=1 n=d6 v=0
246722 On ch=1 n=d6 v=47
246840 On ch=1 n=d6 v=0
246964 On ch=1 n=d6 v=39
247080 On ch=1 n=d6 v=0
247204 On ch=1 n=d6 v=36
247320 On ch=1 n=d6 v=0
247322 On ch=1 n=e6 v=36
247440 On ch=1 n=e6 v=0
247442 On ch=1 n=c6 v=36
247560 On ch=1 n=c6 v=0
247562 On ch=1 n=d6 v=35
247680 On ch=1 n=d6 v=0
247682 On ch=1 n=b5 v=35
247800 On ch=1 n=b5 v=0
247802 On ch=1 n=c6 v=35
247920 On ch=1 n=c6 v=0
247922 On ch=1 n=a5 v=35
248040 On ch=1 n=a5 v=0
248042 On ch=1 n=b5 v=35
248160 On ch=1 n=b5 v=0
248162 On ch=1 n=g5 v=63
248520 On ch=1 n=g5 v=0
248522 On ch=1 n=b5 v=63
248580 On ch=1 n=b5 v=0
248582 On ch=1 n=a5 v=63
248640 On ch=1 n=a5 v=0
248642 On ch=1 n=g5 v=63
248760 On ch=1 n=g5 v=0
248762 On ch=1 n=d5 v=63
248880 On ch=1 n=d5 v=0
248882 On ch=1 n=b5 v=63
249000 On ch=1 n=b5 v=0
249002 On ch=1 n=a5 v=63
249120 On ch=1 n=a5 v=0
249122 On ch=1 n=g5 v=63
249240 On ch=1 n=g5 v=0
249242 On ch=1 n=d5 v=63
249360 On ch=1 n=d5 v=0
249362 On ch=1 n=g5 v=63
249480 On ch=1 n=g5 v=0
249482 On ch=1 n=b5 v=63
249600 On ch=1 n=b5 v=0
249602 On ch=1 n=d6 v=63
249720 On ch=1 n=d6 v=0
249722 On ch=1 n=b5 v=63
249840 On ch=1 n=b5 v=0
249842 On ch=1 n=a5 v=63
249960 On ch=1 n=a5 v=0
249962 On ch=1 n=g5 v=63
250080 On ch=1 n=g5 v=0
250082 On ch=1 n=b5 v=63
250200 On ch=1 n=b5 v=0
250202 On ch=1 n=a5 v=63
250320 On ch=1 n=a5 v=0
250322 On ch=1 n=g5 v=63
250440 On ch=1 n=g5 v=0
250442 On ch=1 n=a5 v=63
250560 On ch=1 n=a5 v=0
250562 On ch=1 n=g5 v=63
250800 On ch=1 n=g5 v=0
250802 On ch=1 n=e6 v=47
250920 On ch=1 n=e6 v=0
251044 On ch=1 n=d#6 v=47
251160 On ch=1 n=d#6 v=0
251162 On ch=1 n=e6 v=47
251280 On ch=1 n=e6 v=0
251282 On ch=1 n=f6 v=47
251400 On ch=1 n=f6 v=0
251402 On ch=1 n=f#6 v=47
251520 On ch=1 n=f#6 v=0
251522 On ch=1 n=g6 v=63
251640 On ch=1 n=g6 v=0
251642 On ch=1 n=g#6 v=63
251760 On ch=1 n=g#6 v=0
251762 On ch=1 n=a6 v=63
251880 On ch=1 n=a6 v=0
251882 On ch=1 n=a#6 v=63
252000 On ch=1 n=a#6 v=0
252002 On ch=1 n=b6 v=81
252480 On ch=1 n=b6 v=0
252482 On ch=1 n=a6 v=63
252600 On ch=1 n=a6 v=0
252602 On ch=1 n=g6 v=63
252720 On ch=1 n=g6 v=0
252722 On ch=1 n=f#6 v=63
252840 On ch=1 n=f#6 v=0
252842 On ch=1 n=e6 v=63
252960 On ch=1 n=e6 v=0
252962 On ch=1 n=d6 v=47
253440 On ch=1 n=d6 v=0
253442 On ch=1 n=c#6 v=47
253536 On ch=1 n=c#6 v=0
253538 On ch=1 n=d6 v=47
253632 On ch=1 n=d6 v=0
253634 On ch=1 n=c#6 v=47
253728 On ch=1 n=c#6 v=0
253730 On ch=1 n=b5 v=47
253824 On ch=1 n=b5 v=0
253826 On ch=1 n=c#6 v=55
253920 On ch=1 n=c#6 v=0
253922 On ch=1 n=d6 v=81
254040 On ch=1 n=d6 v=0
254042 On ch=1 n=e6 v=81
254160 On ch=1 n=e6 v=0
254162 On ch=1 n=f#6 v=81
254280 On ch=1 n=f#6 v=0
254282 On ch=1 n=g6 v=81
254400 On ch=1 n=g6 v=0
254402 On ch=1 n=a6 v=81
254520 On ch=1 n=a6 v=0
254522 On ch=1 n=b6 v=81
254640 On ch=1 n=b6 v=0
254642 On ch=1 n=c#7 v=81
254760 On ch=1 n=c#7 v=0
254762 On ch=1 n=d7 v=81
254880 On ch=1 n=d7 v=0
254882 On ch=1 n=c#7 v=81
255000 On ch=1 n=c#7 v=0
255002 On ch=1 n=e7 v=81
255120 On ch=1 n=e7 v=0
255122 On ch=1 n=c#7 v=81
255240 On ch=1 n=c#7 v=0
255242 On ch=1 n=a6 v=81
255360 On ch=1 n=a6 v=0
255362 On ch=1 n=g6 v=81
255480 On ch=1 n=g6 v=0
255482 On ch=1 n=b6 v=81
255600 On ch=1 n=b6 v=0
255602 On ch=1 n=g6 v=81
255720 On ch=1 n=g6 v=0
255722 On ch=1 n=e6 v=81
255840 On ch=1 n=e6 v=0
255842 On ch=1 n=f#6 v=81
255960 On ch=1 n=f#6 v=0
255962 On ch=1 n=a6 v=81
256080 On ch=1 n=a6 v=0
256082 On ch=1 n=g6 v=81
256200 On ch=1 n=g6 v=0
256202 On ch=1 n=f#6 v=81
256320 On ch=1 n=f#6 v=0
256322 On ch=1 n=e6 v=63
256440 On ch=1 n=e6 v=0
256442 On ch=1 n=d6 v=63
256560 On ch=1 n=d6 v=0
256562 On ch=1 n=c#6 v=63
256680 On ch=1 n=c#6 v=0
256682 On ch=1 n=b5 v=47
256800 On ch=1 n=b5 v=0
256802 On ch=1 n=a5 v=47
256920 On ch=1 n=a5 v=0
256922 On ch=1 n=b5 v=47
257040 On ch=1 n=b5 v=0
257042 On ch=1 n=c#6 v=47
257160 On ch=1 n=c#6 v=0
257162 On ch=1 n=d6 v=63
257280 On ch=1 n=d6 v=0
257282 On ch=1 n=e6 v=63
257400 On ch=1 n=e6 v=0
257402 On ch=1 n=f#6 v=63
257520 On ch=1 n=f#6 v=0
257522 On ch=1 n=g6 v=63
257640 On ch=1 n=g6 v=0
257642 On ch=1 n=e6 v=63
257760 On ch=1 n=e6 v=0
257762 On ch=1 n=d6 v=63
257880 On ch=1 n=d6 v=0
257882 On ch=1 n=e6 v=63
258000 On ch=1 n=e6 v=0
258002 On ch=1 n=f#6 v=63
258120 On ch=1 n=f#6 v=0
258122 On ch=1 n=g6 v=63
258240 On ch=1 n=g6 v=0
258242 On ch=1 n=a6 v=47
258360 On ch=1 n=a6 v=0
258362 On ch=1 n=b6 v=47
258480 On ch=1 n=b6 v=0
258482 On ch=1 n=c#7 v=47
258600 On ch=1 n=c#7 v=0
258602 On ch=1 n=d7 v=47
258720 On ch=1 n=d7 v=0
258722 On ch=1 n=d6 v=47
258960 On ch=1 n=d6 v=0
259684 On ch=1 n=g5 v=81
260040 On ch=1 n=g5 v=0
260042 On ch=1 n=b5 v=81
260100 On ch=1 n=b5 v=0
260102 On ch=1 n=a5 v=81
260160 On ch=1 n=a5 v=0
260162 On ch=1 n=g5 v=81
260280 On ch=1 n=g5 v=0
260282 On ch=1 n=d5 v=81
260400 On ch=1 n=d5 v=0
260402 On ch=1 n=b5 v=81
260520 On ch=1 n=b5 v=0
260522 On ch=1 n=a5 v=81
260640 On ch=1 n=a5 v=0
260642 On ch=1 n=g5 v=81
260760 On ch=1 n=g5 v=0
260762 On ch=1 n=d5 v=81
260880 On ch=1 n=d5 v=0
260882 On ch=1 n=g5 v=81
261000 On ch=1 n=g5 v=0
261002 On ch=1 n=b5 v=81
261120 On ch=1 n=b5 v=0
261122 On ch=1 n=d6 v=81
261240 On ch=1 n=d6 v=0
261242 On ch=1 n=b5 v=81
261360 On ch=1 n=b5 v=0
261362 On ch=1 n=a5 v=81
261480 On ch=1 n=a5 v=0
261482 On ch=1 n=g5 v=81
261600 On ch=1 n=g5 v=0
261602 On ch=1 n=b5 v=81
261720 On ch=1 n=b5 v=0
261722 On ch=1 n=a5 v=81
261840 On ch=1 n=a5 v=0
261842 On ch=1 n=g5 v=81
261960 On ch=1 n=g5 v=0
261962 On ch=1 n=a5 v=81
262080 On ch=1 n=a5 v=0
262082 On ch=1 n=g5 v=81
262320 On ch=1 n=g5 v=0
262322 On ch=1 n=d6 v=81
262440 On ch=1 n=d6 v=0
262564 On ch=1 n=d6 v=81
262680 On ch=1 n=d6 v=0
262804 On ch=1 n=d6 v=81
262920 On ch=1 n=d6 v=0
263044 On ch=1 n=d6 v=81
263160 On ch=1 n=d6 v=0
263284 On ch=1 n=d6 v=81
263400 On ch=1 n=d6 v=0
263524 On ch=1 n=e6 v=81
263640 On ch=1 n=e6 v=0
263642 On ch=1 n=g6 v=81
263760 On ch=1 n=g6 v=0
263762 On ch=1 n=e6 v=81
263880 On ch=1 n=e6 v=0
263882 On ch=1 n=d6 v=81
264000 On ch=1 n=d6 v=0
264002 On ch=1 n=c6 v=81
264120 On ch=1 n=c6 v=0
264122 On ch=1 n=e6 v=81
264240 On ch=1 n=e6 v=0
264242 On ch=1 n=c6 v=81
264360 On ch=1 n=c6 v=0
264362 On ch=1 n=b5 v=81
264480 On ch=1 n=b5 v=0
264482 On ch=1 n=a5 v=81
264600 On ch=1 n=a5 v=0
264602 On ch=1 n=e7 v=81
264720 On ch=1 n=e7 v=0
264722 On ch=1 n=c7 v=81
264840 On ch=1 n=c7 v=0
264842 On ch=1 n=b6 v=81
264960 On ch=1 n=b6 v=0
264962 On ch=1 n=a6 v=81
265080 On ch=1 n=a6 v=0
265082 On ch=1 n=c7 v=81
265200 On ch=1 n=c7 v=0
265202 On ch=1 n=a6 v=81
265320 On ch=1 n=a6 v=0
265322 On ch=1 n=g6 v=81
265440 On ch=1 n=g6 v=0
265442 On ch=1 n=f#6 v=81
265560 On ch=1 n=f#6 v=0
265562 On ch=1 n=g6 v=81
265680 On ch=1 n=g6 v=0
265682 On ch=1 n=a6 v=81
265800 On ch=1 n=a6 v=0
265802 On ch=1 n=g6 v=81
265920 On ch=1 n=g6 v=0
265922 On ch=1 n=f#6 v=81
266040 On ch=1 n=f#6 v=0
266042 On ch=1 n=e6 v=81
266160 On ch=1 n=e6 v=0
266162 On ch=1 n=d6 v=81
266280 On ch=1 n=d6 v=0
266282 On ch=1 n=c#6 v=81
266400 On ch=1 n=c#6 v=0
266402 On ch=1 n=d6 v=81
266520 On ch=1 n=d6 v=0
266522 On ch=1 n=d7 v=81
266640 On ch=1 n=d7 v=0
266642 On ch=1 n=c6 v=81
266760 On ch=1 n=c6 v=0
266762 On ch=1 n=c7 v=81
266880 On ch=1 n=c7 v=0
266882 On ch=1 n=b5 v=81
267000 On ch=1 n=b5 v=0
267002 On ch=1 n=b6 v=81
267120 On ch=1 n=b6 v=0
267122 On ch=1 n=a5 v=81
267240 On ch=1 n=a5 v=0
267242 On ch=1 n=a6 v=81
267360 On ch=1 n=a6 v=0
267362 On ch=1 n=g5 v=63
267720 On ch=1 n=g5 v=0
267722 On ch=1 n=b5 v=63
267780 On ch=1 n=b5 v=0
267782 On ch=1 n=a5 v=63
267840 On ch=1 n=a5 v=0
267842 On ch=1 n=g5 v=63
267960 On ch=1 n=g5 v=0
267962 On ch=1 n=d5 v=63
268080 On ch=1 n=d5 v=0
268082 On ch=1 n=b5 v=63
268200 On ch=1 n=b5 v=0
268202 On ch=1 n=a5 v=63
268320 On ch=1 n=a5 v=0
268322 On ch=1 n=g5 v=63
268440 On ch=1 n=g5 v=0
268442 On ch=1 n=d5 v=63
268560 On ch=1 n=d5 v=0
268562 On ch=1 n=g5 v=63
268680 On ch=1 n=g5 v=0
268682 On ch=1 n=b5 v=63
268800 On ch=1 n=b5 v=0
268802 On ch=1 n=d6 v=63
268920 On ch=1 n=d6 v=0
268922 On ch=1 n=b5 v=63
269040 On ch=1 n=b5 v=0
269042 On ch=1 n=a5 v=63
269160 On ch=1 n=a5 v=0
269162 On ch=1 n=g5 v=63
269280 On ch=1 n=g5 v=0
269282 On ch=1 n=b5 v=63
269400 On ch=1 n=b5 v=0
269402 On ch=1 n=a5 v=63
269520 On ch=1 n=a5 v=0
269522 On ch=1 n=g5 v=63
269640 On ch=1 n=g5 v=0
269642 On ch=1 n=a5 v=63
269760 On ch=1 n=a5 v=0
269762 On ch=1 n=g5 v=63
270000 On ch=1 n=g5 v=0
270002 On ch=1 n=e6 v=47
270120 On ch=1 n=e6 v=0
270244 On ch=1 n=d#6 v=36
270360 On ch=1 n=d#6 v=0
270362 On ch=1 n=e6 v=36
270480 On ch=1 n=e6 v=0
270482 On ch=1 n=f6 v=36
270600 On ch=1 n=f6 v=0
270602 On ch=1 n=f#6 v=36
270720 On ch=1 n=f#6 v=0
270722 On ch=1 n=g6 v=47
270840 On ch=1 n=g6 v=0
270842 On ch=1 n=g#6 v=47
270960 On ch=1 n=g#6 v=0
270962 On ch=1 n=a6 v=47
271080 On ch=1 n=a6 v=0
271082 On ch=1 n=a#6 v=47
271200 On ch=1 n=a#6 v=0
271202 On ch=1 n=b6 v=63
271680 On ch=1 n=b6 v=0
271682 On ch=1 n=a6 v=47
271800 On ch=1 n=a6 v=0
271802 On ch=1 n=g6 v=47
271920 On ch=1 n=g6 v=0
271922 On ch=1 n=f#6 v=47
272040 On ch=1 n=f#6 v=0
272042 On ch=1 n=e6 v=47
272160 On ch=1 n=e6 v=0
272162 On ch=1 n=d6 v=36
272640 On ch=1 n=d6 v=0
272642 On ch=1 n=c#6 v=34
272736 On ch=1 n=c#6 v=0
272738 On ch=1 n=d6 v=31
272832 On ch=1 n=d6 v=0
272834 On ch=1 n=c#6 v=31
272928 On ch=1 n=c#6 v=0
272930 On ch=1 n=b5 v=31
273024 On ch=1 n=b5 v=0
273026 On ch=1 n=c#6 v=31
273120 On ch=1 n=c#6 v=0
273122 On ch=1 n=d6 v=81
273240 On ch=1 n=d6 v=0
273242 On ch=1 n=e6 v=81
273360 On ch=1 n=e6 v=0
273362 On ch=1 n=f#6 v=81
273480 On ch=1 n=f#6 v=0
273482 On ch=1 n=g6 v=81
273600 On ch=1 n=g6 v=0
273602 On ch=1 n=a6 v=81
273720 On ch=1 n=a6 v=0
273722 On ch=1 n=b6 v=81
273840 On ch=1 n=b6 v=0
273842 On ch=1 n=c#7 v=81
273960 On ch=1 n=c#7 v=0
273962 On ch=1 n=d7 v=81
274080 On ch=1 n=d7 v=0
274082 On ch=1 n=c#7 v=81
274200 On ch=1 n=c#7 v=0
274202 On ch=1 n=e7 v=81
274320 On ch=1 n=e7 v=0
274322 On ch=1 n=c#7 v=81
274440 On ch=1 n=c#7 v=0
274442 On ch=1 n=a6 v=81
274560 On ch=1 n=a6 v=0
274562 On ch=1 n=g6 v=81
274680 On ch=1 n=g6 v=0
274682 On ch=1 n=b6 v=81
274800 On ch=1 n=b6 v=0
274802 On ch=1 n=g6 v=81
274920 On ch=1 n=g6 v=0
274922 On ch=1 n=e6 v=81
275040 On ch=1 n=e6 v=0
275042 On ch=1 n=f#6 v=81
275160 On ch=1 n=f#6 v=0
275162 On ch=1 n=a6 v=81
275280 On ch=1 n=a6 v=0
275282 On ch=1 n=g6 v=63
275400 On ch=1 n=g6 v=0
275402 On ch=1 n=f#6 v=63
275520 On ch=1 n=f#6 v=0
275522 On ch=1 n=e6 v=63
275640 On ch=1 n=e6 v=0
275642 On ch=1 n=d6 v=47
275760 On ch=1 n=d6 v=0
275762 On ch=1 n=c#6 v=47
275880 On ch=1 n=c#6 v=0
275882 On ch=1 n=b5 v=47
276000 On ch=1 n=b5 v=0
276002 On ch=1 n=a5 v=36
276120 On ch=1 n=a5 v=0
276122 On ch=1 n=b5 v=31
276240 On ch=1 n=b5 v=0
276242 On ch=1 n=c#6 v=35
276360 On ch=1 n=c#6 v=0
276362 On ch=1 n=d6 v=34
276480 On ch=1 n=d6 v=0
276482 On ch=1 n=e6 v=47
276600 On ch=1 n=e6 v=0
276602 On ch=1 n=f#6 v=47
276720 On ch=1 n=f#6 v=0
276722 On ch=1 n=g6 v=63
276840 On ch=1 n=g6 v=0
276842 On ch=1 n=e6 v=63
276960 On ch=1 n=e6 v=0
276962 On ch=1 n=d6 v=63
277080 On ch=1 n=d6 v=0
277082 On ch=1 n=e6 v=63
277200 On ch=1 n=e6 v=0
277202 On ch=1 n=f#6 v=47
277320 On ch=1 n=f#6 v=0
277322 On ch=1 n=g6 v=47
277440 On ch=1 n=g6 v=0
277442 On ch=1 n=a6 v=47
277560 On ch=1 n=a6 v=0
277562 On ch=1 n=b6 v=47
277680 On ch=1 n=b6 v=0
277682 On ch=1 n=c#7 v=36
277800 On ch=1 n=c#7 v=0
277802 On ch=1 n=d7 v=36
277920 On ch=1 n=d7 v=0
277922 On ch=1 n=d6 v=34
278160 On ch=1 n=d6 v=0
278884 On ch=1 n=f6 v=81
279240 On ch=1 n=f6 v=0
279242 On ch=1 n=d6 v=81
279300 On ch=1 n=d6 v=0
279302 On ch=1 n=d#6 v=81
279360 On ch=1 n=d#6 v=0
279362 On ch=1 n=f6 v=81
279600 On ch=1 n=f6 v=0
279602 On ch=1 n=f7 v=81
280080 On ch=1 n=f7 v=0
280082 On ch=1 n=a5 v=81
280200 On ch=1 n=a5 v=0
280324 On ch=1 n=a5 v=81
280440 On ch=1 n=a5 v=0
280564 On ch=1 n=a5 v=81
280680 On ch=1 n=a5 v=0
280804 On ch=1 n=c6 v=81
280880 On ch=1 n=c6 v=0
280882 On ch=1 n=a#5 v=81
280960 On ch=1 n=a#5 v=0
280962 On ch=1 n=c6 v=81
281040 On ch=1 n=c6 v=0
281042 On ch=1 n=a#5 v=81
281120 On ch=1 n=a#5 v=0
281122 On ch=1 n=a5 v=81
281200 On ch=1 n=a5 v=0
281202 On ch=1 n=a#5 v=81
281280 On ch=1 n=a#5 v=0
281282 On ch=1 n=d6 v=81
281520 On ch=1 n=d6 v=0
281522 On ch=1 n=d7 v=81
282000 On ch=1 n=d7 v=0
282002 On ch=1 n=f#5 v=81
282120 On ch=1 n=f#5 v=0
282244 On ch=1 n=f#5 v=81
282360 On ch=1 n=f#5 v=0
282484 On ch=1 n=f#5 v=81
282600 On ch=1 n=f#5 v=0
282724 On ch=1 n=c6 v=81
282800 On ch=1 n=c6 v=0
282802 On ch=1 n=a#5 v=81
282880 On ch=1 n=a#5 v=0
282882 On ch=1 n=c6 v=81
282960 On ch=1 n=c6 v=0
282962 On ch=1 n=a#5 v=81
283040 On ch=1 n=a#5 v=0
283042 On ch=1 n=a5 v=81
283120 On ch=1 n=a5 v=0
283122 On ch=1 n=a#5 v=81
283200 On ch=1 n=a#5 v=0
283202 On ch=1 n=d6 v=81
283440 On ch=1 n=d6 v=0
283442 On ch=1 n=a#6 v=81
283920 On ch=1 n=a#6 v=0
283922 On ch=1 n=c#5 v=63
284040 On ch=1 n=c#5 v=0
284164 On ch=1 n=c#5 v=63
284280 On ch=1 n=c#5 v=0
284404 On ch=1 n=c#5 v=63
284520 On ch=1 n=c#5 v=0
284644 On ch=1 n=d5 v=63
284760 On ch=1 n=d5 v=0
284762 On ch=1 n=e5 v=63
284880 On ch=1 n=e5 v=0
284882 On ch=1 n=f#5 v=63
285000 On ch=1 n=f#5 v=0
285002 On ch=1 n=g5 v=63
285120 On ch=1 n=g5 v=0
285122 On ch=1 n=a5 v=63
285240 On ch=1 n=a5 v=0
285242 On ch=1 n=f#5 v=63
285360 On ch=1 n=f#5 v=0
285362 On ch=1 n=g5 v=63
285480 On ch=1 n=g5 v=0
285482 On ch=1 n=e5 v=63
285600 On ch=1 n=e5 v=0
285602 On ch=1 n=d5 v=63
286080 On ch=1 n=d5 v=0
286564 On ch=1 n=g5 v=63
286920 On ch=1 n=g5 v=0
286922 On ch=1 n=b5 v=63
286980 On ch=1 n=b5 v=0
286982 On ch=1 n=a5 v=63
287040 On ch=1 n=a5 v=0
287042 On ch=1 n=g5 v=63
287160 On ch=1 n=g5 v=0
287162 On ch=1 n=d5 v=63
287280 On ch=1 n=d5 v=0
287282 On ch=1 n=b5 v=63
287400 On ch=1 n=b5 v=0
287402 On ch=1 n=a5 v=63
287520 On ch=1 n=a5 v=0
287522 On ch=1 n=g5 v=63
287640 On ch=1 n=g5 v=0
287642 On ch=1 n=d5 v=63
287760 On ch=1 n=d5 v=0
287762 On ch=1 n=g5 v=63
287880 On ch=1 n=g5 v=0
287882 On ch=1 n=b5 v=63
288000 On ch=1 n=b5 v=0
288002 On ch=1 n=d6 v=63
288120 On ch=1 n=d6 v=0
288122 On ch=1 n=b5 v=63
288240 On ch=1 n=b5 v=0
288242 On ch=1 n=a5 v=63
288360 On ch=1 n=a5 v=0
288362 On ch=1 n=g5 v=63
288480 On ch=1 n=g5 v=0
288482 On ch=1 n=b5 v=63
288600 On ch=1 n=b5 v=0
288602 On ch=1 n=a5 v=63
288720 On ch=1 n=a5 v=0
288722 On ch=1 n=g5 v=63
288840 On ch=1 n=g5 v=0
288842 On ch=1 n=a5 v=63
288960 On ch=1 n=a5 v=0
288962 On ch=1 n=g5 v=63
289200 On ch=1 n=g5 v=0
289202 On ch=1 n=e7 v=81
289320 On ch=1 n=e7 v=0
289322 On ch=1 n=e6 v=81
289440 On ch=1 n=e6 v=0
289442 On ch=1 n=e7 v=81
289560 On ch=1 n=e7 v=0
289562 On ch=1 n=e6 v=81
289680 On ch=1 n=e6 v=0
289682 On ch=1 n=e7 v=81
289800 On ch=1 n=e7 v=0
289802 On ch=1 n=e6 v=81
289920 On ch=1 n=e6 v=0
289922 On ch=1 n=e7 v=81
290040 On ch=1 n=e7 v=0
290042 On ch=1 n=e6 v=81
290160 On ch=1 n=e6 v=0
290162 On ch=1 n=e7 v=81
290280 On ch=1 n=e7 v=0
290282 On ch=1 n=e6 v=81
290400 On ch=1 n=e6 v=0
290402 On ch=1 n=e7 v=81
290700 On ch=1 n=e7 v=0
290702 On ch=1 n=d7 v=81
290760 On ch=1 n=d7 v=0
290762 On ch=1 n=c7 v=81
290820 On ch=1 n=c7 v=0
290822 On ch=1 n=b6 v=81
290880 On ch=1 n=b6 v=0
290882 On ch=1 n=a6 v=81
291000 On ch=1 n=a6 v=0
291124 On ch=1 n=d7 v=63
291240 On ch=1 n=d7 v=0
291242 On ch=1 n=d6 v=36
291360 On ch=1 n=d6 v=0
291362 On ch=1 n=d7 v=36
291480 On ch=1 n=d7 v=0
291482 On ch=1 n=d6 v=34
291600 On ch=1 n=d6 v=0
291602 On ch=1 n=d7 v=31
291720 On ch=1 n=d7 v=0
291722 On ch=1 n=d6 v=31
291840 On ch=1 n=d6 v=0
291842 On ch=1 n=d7 v=31
291960 On ch=1 n=d7 v=0
291962 On ch=1 n=d6 v=31
292080 On ch=1 n=d6 v=0
292082 On ch=1 n=d7 v=31
292200 On ch=1 n=d7 v=0
292202 On ch=1 n=d6 v=31
292320 On ch=1 n=d6 v=0
292322 On ch=1 n=d7 v=31
292620 On ch=1 n=d7 v=0
292622 On ch=1 n=c7 v=31
292680 On ch=1 n=c7 v=0
292682 On ch=1 n=b6 v=31
292740 On ch=1 n=b6 v=0
292742 On ch=1 n=a6 v=31
292800 On ch=1 n=a6 v=0
292802 On ch=1 n=g6 v=31
292920 On ch=1 n=g6 v=0
294964 On ch=1 n=d7 v=63
295020 On ch=1 n=d7 v=0
295022 On ch=1 n=c7 v=63
295080 On ch=1 n=c7 v=0
295082 On ch=1 n=b6 v=63
295140 On ch=1 n=b6 v=0
295142 On ch=1 n=a6 v=63
295200 On ch=1 n=a6 v=0
295202 On ch=1 n=g6 v=63
295320 On ch=1 n=g6 v=0
295444 On ch=1 n=b6 v=63
295500 On ch=1 n=b6 v=0
295502 On ch=1 n=a6 v=63
295560 On ch=1 n=a6 v=0
295562 On ch=1 n=g6 v=63
295620 On ch=1 n=g6 v=0
295622 On ch=1 n=f#6 v=63
295680 On ch=1 n=f#6 v=0
295682 On ch=1 n=e6 v=63
295800 On ch=1 n=e6 v=0
295924 On ch=1 n=g6 v=63
295980 On ch=1 n=g6 v=0
295982 On ch=1 n=f#6 v=63
296040 On ch=1 n=f#6 v=0
296042 On ch=1 n=e6 v=63
296100 On ch=1 n=e6 v=0
296102 On ch=1 n=d6 v=63
296160 On ch=1 n=d6 v=0
296162 On ch=1 n=c6 v=63
296640 On ch=1 n=c6 v=0
296884 On ch=1 n=g6 v=63
296940 On ch=1 n=g6 v=0
296942 On ch=1 n=f6 v=63
297000 On ch=1 n=f6 v=0
297002 On ch=1 n=d#6 v=63
297060 On ch=1 n=d#6 v=0
297062 On ch=1 n=d6 v=63
297120 On ch=1 n=d6 v=0
297122 On ch=1 n=c6 v=63
297240 On ch=1 n=c6 v=0
297364 On ch=1 n=b6 v=63
297600 On ch=1 n=b6 v=0
297602 On ch=1 n=c7 v=63
297840 On ch=1 n=c7 v=0
297842 On ch=1 n=c7 v=63
297960 On ch=1 n=c7 v=0
298084 On ch=1 n=c7 v=81
298200 On ch=1 n=c7 v=0
298202 On ch=1 n=b6 v=81
298320 On ch=1 n=b6 v=0
298322 On ch=1 n=c7 v=81
298440 On ch=1 n=c7 v=0
298442 On ch=1 n=a6 v=81
298560 On ch=1 n=a6 v=0
298562 On ch=1 n=b6 v=81
298680 On ch=1 n=b6 v=0
298682 On ch=1 n=a6 v=81
298800 On ch=1 n=a6 v=0
298802 On ch=1 n=b6 v=81
298920 On ch=1 n=b6 v=0
298922 On ch=1 n=g6 v=81
299040 On ch=1 n=g6 v=0
299042 On ch=1 n=a6 v=81
299160 On ch=1 n=a6 v=0
299162 On ch=1 n=g#6 v=81
299280 On ch=1 n=g#6 v=0
299282 On ch=1 n=a6 v=81
299400 On ch=1 n=a6 v=0
299402 On ch=1 n=e6 v=81
299520 On ch=1 n=e6 v=0
299522 On ch=1 n=g6 v=81
299640 On ch=1 n=g6 v=0
299642 On ch=1 n=f#6 v=81
299760 On ch=1 n=f#6 v=0
299762 On ch=1 n=e6 v=81
299880 On ch=1 n=e6 v=0
299882 On ch=1 n=d6 v=81
300000 On ch=1 n=d6 v=0
300002 On ch=1 n=g6 v=81
300120 On ch=1 n=g6 v=0
300122 On ch=1 n=d6 v=81
300240 On ch=1 n=d6 v=0
300242 On ch=1 n=g6 v=81
300360 On ch=1 n=g6 v=0
300362 On ch=1 n=b6 v=81
300480 On ch=1 n=b6 v=0
300482 On ch=1 n=d7 v=81
300600 On ch=1 n=d7 v=0
300602 On ch=1 n=b6 v=81
300720 On ch=1 n=b6 v=0
300722 On ch=1 n=a6 v=81
300840 On ch=1 n=a6 v=0
300842 On ch=1 n=g6 v=81
300960 On ch=1 n=g6 v=0
300962 On ch=1 n=f#6 v=81
301080 On ch=1 n=f#6 v=0
301082 On ch=1 n=d6 v=81
301200 On ch=1 n=d6 v=0
301202 On ch=1 n=f#6 v=81
301320 On ch=1 n=f#6 v=0
301322 On ch=1 n=a6 v=81
301440 On ch=1 n=a6 v=0
301442 On ch=1 n=c7 v=81
301560 On ch=1 n=c7 v=0
301562 On ch=1 n=a6 v=81
301680 On ch=1 n=a6 v=0
301682 On ch=1 n=g6 v=81
301800 On ch=1 n=g6 v=0
301802 On ch=1 n=f#6 v=81
301920 On ch=1 n=f#6 v=0
301922 On ch=1 n=g6 v=81
302040 On ch=1 n=g6 v=0
302042 On ch=1 n=d6 v=81
302160 On ch=1 n=d6 v=0
302162 On ch=1 n=g6 v=81
302280 On ch=1 n=g6 v=0
302282 On ch=1 n=b6 v=81
302400 On ch=1 n=b6 v=0
302402 On ch=1 n=d7 v=81
302520 On ch=1 n=d7 v=0
302522 On ch=1 n=b6 v=81
302640 On ch=1 n=b6 v=0
302642 On ch=1 n=a6 v=81
302760 On ch=1 n=a6 v=0
302762 On ch=1 n=g6 v=81
302880 On ch=1 n=g6 v=0
302882 On ch=1 n=f#6 v=81
303000 On ch=1 n=f#6 v=0
303002 On ch=1 n=d6 v=81
303120 On ch=1 n=d6 v=0
303122 On ch=1 n=f#6 v=81
303240 On ch=1 n=f#6 v=0
303242 On ch=1 n=a6 v=81
303360 On ch=1 n=a6 v=0
303362 On ch=1 n=c7 v=81
303480 On ch=1 n=c7 v=0
303482 On ch=1 n=a6 v=81
303600 On ch=1 n=a6 v=0
303602 On ch=1 n=g6 v=81
303720 On ch=1 n=g6 v=0
303722 On ch=1 n=f#6 v=81
303840 On ch=1 n=f#6 v=0
303842 On ch=1 n=g6 v=81
303960 On ch=1 n=g6 v=0
303962 On ch=1 n=b6 v=81
304080 On ch=1 n=b6 v=0
304082 On ch=1 n=g6 v=81
304200 On ch=1 n=g6 v=0
304202 On ch=1 n=d6 v=81
304320 On ch=1 n=d6 v=0
304322 On ch=1 n=b5 v=81
304440 On ch=1 n=b5 v=0
304442 On ch=1 n=g5 v=81
304560 On ch=1 n=g5 v=0
304562 On ch=1 n=d5 v=81
304680 On ch=1 n=d5 v=0
304680 Meta TrkEnd
TrkEnd
MTrk
0 SeqSpec 43 00 01 00
0 Meta TrkName "Franz Joseph Haydn"
0 Meta 0x21 00
0 PrCh ch=2 p=0
0 Par ch=2 c=7 v=127
0 PrCh ch=2 p=0
5042 On ch=2 n=f#5 v=63
5518 On ch=2 n=f#5 v=0
5520 On ch=2 n=g5 v=63
5758 On ch=2 n=g5 v=0
5760 On ch=2 n=g5 v=47
5998 On ch=2 n=g5 v=0
6000 On ch=2 n=f#5 v=47
6238 On ch=2 n=f#5 v=0
6240 On ch=2 n=f#5 v=47
6358 On ch=2 n=f#5 v=0
6482 On ch=2 n=f#5 v=47
6958 On ch=2 n=f#5 v=0
6960 On ch=2 n=g#5 v=47
7198 On ch=2 n=g#5 v=0
7200 On ch=2 n=a5 v=63
7438 On ch=2 n=a5 v=0
7440 On ch=2 n=b5 v=63
7678 On ch=2 n=b5 v=0
7680 On ch=2 n=c6 v=63
7918 On ch=2 n=c6 v=0
7920 On ch=2 n=c6 v=63
8398 On ch=2 n=c6 v=0
8400 On ch=2 n=a5 v=47
8638 On ch=2 n=a5 v=0
8640 On ch=2 n=g5 v=63
8878 On ch=2 n=g5 v=0
8880 On ch=2 n=a5 v=63
9118 On ch=2 n=a5 v=0
9120 On ch=2 n=b5 v=63
9358 On ch=2 n=b5 v=0
9360 On ch=2 n=g5 v=63
10318 On ch=2 n=g5 v=0
11522 On ch=2 n=g5 v=47
11758 On ch=2 n=g5 v=0
11760 On ch=2 n=f#5 v=36
11998 On ch=2 n=f#5 v=0
12000 On ch=2 n=f#5 v=36
12118 On ch=2 n=f#5 v=0
12242 On ch=2 n=f#5 v=36
12718 On ch=2 n=f#5 v=0
20402 On ch=2 n=d6 v=29
20638 On ch=2 n=d6 v=0
20640 On ch=2 n=e6 v=29
20878 On ch=2 n=e6 v=0
21122 On ch=2 n=f#6 v=29
21358 On ch=2 n=f#6 v=0
21360 On ch=2 n=g6 v=29
21598 On ch=2 n=g6 v=0
21842 On ch=2 n=a6 v=29
22078 On ch=2 n=a6 v=0
22080 On ch=2 n=g6 v=29
22318 On ch=2 n=g6 v=0
22562 On ch=2 n=c6 v=29
22798 On ch=2 n=c6 v=0
22800 On ch=2 n=b5 v=29
23038 On ch=2 n=b5 v=0
23040 On ch=2 n=c6 v=29
24478 On ch=2 n=c6 v=0
28082 On ch=2 n=f#5 v=47
28558 On ch=2 n=f#5 v=0
28560 On ch=2 n=g5 v=47
28798 On ch=2 n=g5 v=0
28800 On ch=2 n=g5 v=31
29038 On ch=2 n=g5 v=0
29040 On ch=2 n=f#5 v=31
29278 On ch=2 n=f#5 v=0
29280 On ch=2 n=f#5 v=31
29398 On ch=2 n=f#5 v=0
29522 On ch=2 n=f#5 v=31
29998 On ch=2 n=f#5 v=0
30000 On ch=2 n=g#5 v=31
30238 On ch=2 n=g#5 v=0
30240 On ch=2 n=a5 v=47
30478 On ch=2 n=a5 v=0
30480 On ch=2 n=b5 v=47
30718 On ch=2 n=b5 v=0
30720 On ch=2 n=c6 v=47
30958 On ch=2 n=c6 v=0
30960 On ch=2 n=c6 v=47
31438 On ch=2 n=c6 v=0
31440 On ch=2 n=a5 v=47
31678 On ch=2 n=a5 v=0
31680 On ch=2 n=g5 v=47
31918 On ch=2 n=g5 v=0
31920 On ch=2 n=a5 v=47
32158 On ch=2 n=a5 v=0
32160 On ch=2 n=b5 v=47
32398 On ch=2 n=b5 v=0
32400 On ch=2 n=b5 v=47
32878 On ch=2 n=b5 v=0
32880 On ch=2 n=b4 v=47
33118 On ch=2 n=b4 v=0
33120 On ch=2 n=c5 v=47
33358 On ch=2 n=c5 v=0
33360 On ch=2 n=e5 v=47
33598 On ch=2 n=e5 v=0
33600 On ch=2 n=d5 v=47
33838 On ch=2 n=d5 v=0
33840 On ch=2 n=c5 v=47
34078 On ch=2 n=c5 v=0
34562 On ch=2 n=c5 v=47
34798 On ch=2 n=c5 v=0
34800 On ch=2 n=b4 v=47
35038 On ch=2 n=b4 v=0
35040 On ch=2 n=b4 v=47
35158 On ch=2 n=b4 v=0
35282 On ch=2 n=b4 v=47
35758 On ch=2 n=b4 v=0
38642 On ch=2 n=c#6 v=63
38878 On ch=2 n=c#6 v=0
38880 On ch=2 n=d6 v=63
39358 On ch=2 n=d6 v=0
39360 On ch=2 n=c#6 v=63
39598 On ch=2 n=c#6 v=0
39600 On ch=2 n=d6 v=63
40078 On ch=2 n=d6 v=0
40080 On ch=2 n=f5 v=63
40318 On ch=2 n=f5 v=0
40320 On ch=2 n=f5 v=63
41038 On ch=2 n=f5 v=0
41040 On ch=2 n=f5 v=63
41758 On ch=2 n=f5 v=0
41760 On ch=2 n=f5 v=36
42478 On ch=2 n=f5 v=0
42480 On ch=2 n=g5 v=36
42718 On ch=2 n=g5 v=0
42720 On ch=2 n=g5 v=36
42958 On ch=2 n=g5 v=0
42960 On ch=2 n=g5 v=36
43198 On ch=2 n=g5 v=0
43200 On ch=2 n=g5 v=36
43438 On ch=2 n=g5 v=0
43440 On ch=2 n=f5 v=36
43678 On ch=2 n=f5 v=0
43680 On ch=2 n=e5 v=36
43918 On ch=2 n=e5 v=0
43920 On ch=2 n=f5 v=36
44158 On ch=2 n=f5 v=0
47282 On ch=2 n=g5 v=63
47518 On ch=2 n=g5 v=0
47520 On ch=2 n=a5 v=63
47998 On ch=2 n=a5 v=0
48000 On ch=2 n=g5 v=63
48238 On ch=2 n=g5 v=0
48240 On ch=2 n=a5 v=63
48718 On ch=2 n=a5 v=0
48720 On ch=2 n=g5 v=63
48958 On ch=2 n=g5 v=0
48960 On ch=2 n=f#6 v=81
49678 On ch=2 n=f#6 v=0
50402 On ch=2 n=d#6 v=63
50878 On ch=2 n=d#6 v=0
50880 On ch=2 n=d#6 v=47
51358 On ch=2 n=d#6 v=0
51360 On ch=2 n=d6 v=36
51598 On ch=2 n=d6 v=0
51600 On ch=2 n=c6 v=36
51838 On ch=2 n=c6 v=0
51840 On ch=2 n=c6 v=36
52558 On ch=2 n=c6 v=0
52560 On ch=2 n=a#5 v=29
52798 On ch=2 n=a#5 v=0
56882 On ch=2 n=f#5 v=47
57358 On ch=2 n=f#5 v=0
57360 On ch=2 n=g5 v=47
57598 On ch=2 n=g5 v=0
57600 On ch=2 n=g5 v=47
57838 On ch=2 n=g5 v=0
57840 On ch=2 n=f#5 v=47
58078 On ch=2 n=f#5 v=0
58080 On ch=2 n=f#5 v=36
58198 On ch=2 n=f#5 v=0
58322 On ch=2 n=f#5 v=29
58798 On ch=2 n=f#5 v=0
58800 On ch=2 n=g#5 v=31
59038 On ch=2 n=g#5 v=0
59040 On ch=2 n=a5 v=31
59278 On ch=2 n=a5 v=0
59280 On ch=2 n=b5 v=36
59518 On ch=2 n=b5 v=0
59520 On ch=2 n=c6 v=36
59758 On ch=2 n=c6 v=0
59760 On ch=2 n=c6 v=47
60238 On ch=2 n=c6 v=0
60240 On ch=2 n=b5 v=36
60358 On ch=2 n=b5 v=0
60360 On ch=2 n=a5 v=36
60478 On ch=2 n=a5 v=0
63362 On ch=2 n=g5 v=31
63598 On ch=2 n=g5 v=0
63600 On ch=2 n=f#5 v=36
63838 On ch=2 n=f#5 v=0
63840 On ch=2 n=f#5 v=36
63958 On ch=2 n=f#5 v=0
64082 On ch=2 n=f#5 v=29
64318 On ch=2 n=f#5 v=0
64562 On ch=2 n=g5 v=63
64678 On ch=2 n=g5 v=0
64680 On ch=2 n=b5 v=63
64798 On ch=2 n=b5 v=0
64800 On ch=2 n=b5 v=63
64918 On ch=2 n=b5 v=0
64920 On ch=2 n=d6 v=63
65038 On ch=2 n=d6 v=0
65040 On ch=2 n=b5 v=63
65158 On ch=2 n=b5 v=0
65160 On ch=2 n=d6 v=63
65278 On ch=2 n=d6 v=0
65280 On ch=2 n=c6 v=63
65398 On ch=2 n=c6 v=0
65400 On ch=2 n=e6 v=63
65518 On ch=2 n=e6 v=0
65520 On ch=2 n=b5 v=63
65638 On ch=2 n=b5 v=0
65640 On ch=2 n=d6 v=63
65758 On ch=2 n=d6 v=0
65760 On ch=2 n=a5 v=63
65878 On ch=2 n=a5 v=0
65880 On ch=2 n=c6 v=63
65998 On ch=2 n=c6 v=0
66000 On ch=2 n=g5 v=63
66118 On ch=2 n=g5 v=0
66120 On ch=2 n=b5 v=63
66238 On ch=2 n=b5 v=0
66240 On ch=2 n=f#5 v=63
66358 On ch=2 n=f#5 v=0
66360 On ch=2 n=a5 v=63
66478 On ch=2 n=a5 v=0
66480 On ch=2 n=f#5 v=63
66598 On ch=2 n=f#5 v=0
66600 On ch=2 n=a5 v=63
66718 On ch=2 n=a5 v=0
66720 On ch=2 n=f#5 v=63
66838 On ch=2 n=f#5 v=0
66840 On ch=2 n=a5 v=63
66958 On ch=2 n=a5 v=0
66960 On ch=2 n=f#5 v=63
67078 On ch=2 n=f#5 v=0
67080 On ch=2 n=a5 v=63
67198 On ch=2 n=a5 v=0
67200 On ch=2 n=f#5 v=63
67318 On ch=2 n=f#5 v=0
67320 On ch=2 n=a5 v=63
67438 On ch=2 n=a5 v=0
67440 On ch=2 n=f#5 v=63
67558 On ch=2 n=f#5 v=0
67560 On ch=2 n=a5 v=63
67678 On ch=2 n=a5 v=0
67680 On ch=2 n=g5 v=47
68158 On ch=2 n=g5 v=0
68402 On ch=2 n=g5 v=31
68878 On ch=2 n=g5 v=0
79922 On ch=2 n=f#5 v=47
80398 On ch=2 n=f#5 v=0
80400 On ch=2 n=g5 v=47
80638 On ch=2 n=g5 v=0
80640 On ch=2 n=g5 v=36
80878 On ch=2 n=g5 v=0
80880 On ch=2 n=f#5 v=36
81118 On ch=2 n=f#5 v=0
81120 On ch=2 n=f#5 v=31
81238 On ch=2 n=f#5 v=0
81362 On ch=2 n=f#5 v=36
81838 On ch=2 n=f#5 v=0
81840 On ch=2 n=g#5 v=36
82078 On ch=2 n=g#5 v=0
82080 On ch=2 n=a5 v=36
82318 On ch=2 n=a5 v=0
82320 On ch=2 n=b5 v=36
82558 On ch=2 n=b5 v=0
82560 On ch=2 n=c6 v=47
82798 On ch=2 n=c6 v=0
82800 On ch=2 n=c6 v=47
83278 On ch=2 n=c6 v=0
83280 On ch=2 n=b5 v=47
83398 On ch=2 n=b5 v=0
83400 On ch=2 n=a5 v=47
83518 On ch=2 n=a5 v=0
83520 On ch=2 n=g5 v=63
83758 On ch=2 n=g5 v=0
83760 On ch=2 n=a5 v=63
83998 On ch=2 n=a5 v=0
84000 On ch=2 n=b5 v=63
84238 On ch=2 n=b5 v=0
84240 On ch=2 n=b4 v=63
84478 On ch=2 n=b4 v=0
84480 On ch=2 n=c5 v=63
84718 On ch=2 n=c5 v=0
84720 On ch=2 n=d5 v=63
84958 On ch=2 n=d5 v=0
85082 On ch=2 n=e5 v=81
85318 On ch=2 n=e5 v=0
85320 On ch=2 n=d5 v=81
85558 On ch=2 n=d5 v=0
85560 On ch=2 n=c5 v=81
85798 On ch=2 n=c5 v=0
85800 On ch=2 n=c5 v=81
86038 On ch=2 n=c5 v=0
86040 On ch=2 n=c5 v=81
86278 On ch=2 n=c5 v=0
86280 On ch=2 n=c5 v=81
86398 On ch=2 n=c5 v=0
86400 On ch=2 n=c5 v=81
87118 On ch=2 n=c5 v=0
87120 On ch=2 n=b4 v=36
87358 On ch=2 n=b4 v=0
91682 On ch=2 n=c#7 v=81
92158 On ch=2 n=c#7 v=0
92160 On ch=2 n=a5 v=81
92638 On ch=2 n=a5 v=0
92640 On ch=2 n=g5 v=81
92878 On ch=2 n=g5 v=0
92880 On ch=2 n=f5 v=81
93118 On ch=2 n=f5 v=0
93120 On ch=2 n=f6 v=81
93598 On ch=2 n=f6 v=0
93600 On ch=2 n=f5 v=81
94318 On ch=2 n=f5 v=0
94320 On ch=2 n=g5 v=63
95038 On ch=2 n=g5 v=0
108722 On ch=2 n=f#5 v=63
109198 On ch=2 n=f#5 v=0
109200 On ch=2 n=g5 v=63
109438 On ch=2 n=g5 v=0
109440 On ch=2 n=g5 v=47
109678 On ch=2 n=g5 v=0
109680 On ch=2 n=f#5 v=47
109918 On ch=2 n=f#5 v=0
109920 On ch=2 n=f#5 v=47
110038 On ch=2 n=f#5 v=0
110162 On ch=2 n=f#5 v=36
110638 On ch=2 n=f#5 v=0
110640 On ch=2 n=g#5 v=47
110878 On ch=2 n=g#5 v=0
111602 On ch=2 n=c7 v=63
111838 On ch=2 n=c7 v=0
111840 On ch=2 n=b6 v=63
112078 On ch=2 n=b6 v=0
112080 On ch=2 n=a6 v=63
112558 On ch=2 n=a6 v=0
112560 On ch=2 n=g6 v=63
112798 On ch=2 n=g6 v=0
116402 On ch=2 n=d6 v=31
116638 On ch=2 n=d6 v=0
116640 On ch=2 n=d6 v=31
117118 On ch=2 n=d6 v=0
117120 On ch=2 n=e6 v=31
117358 On ch=2 n=e6 v=0
117360 On ch=2 n=d6 v=31
117598 On ch=2 n=d6 v=0
117600 On ch=2 n=c6 v=31
117838 On ch=2 n=c6 v=0
117840 On ch=2 n=b5 v=31
118078 On ch=2 n=b5 v=0
118080 On ch=2 n=a5 v=31
118558 On ch=2 n=a5 v=0
118560 On ch=2 n=a5 v=40
118798 On ch=2 n=a5 v=0
118800 On ch=2 n=a5 v=47
119278 On ch=2 n=a5 v=0
119280 On ch=2 n=a5 v=47
119518 On ch=2 n=a5 v=0
119520 On ch=2 n=b5 v=63
120238 On ch=2 n=b5 v=0
120240 On ch=2 n=g5 v=63
120958 On ch=2 n=g5 v=0
124082 On ch=2 n=f#5 v=29
124318 On ch=2 n=f#5 v=0
124320 On ch=2 n=g5 v=29
124558 On ch=2 n=g5 v=0
124802 On ch=2 n=a5 v=39
125038 On ch=2 n=a5 v=0
125040 On ch=2 n=a#5 v=39
125278 On ch=2 n=a#5 v=0
125522 On ch=2 n=c6 v=31
125758 On ch=2 n=c6 v=0
125760 On ch=2 n=a#5 v=31
125998 On ch=2 n=a#5 v=0
126242 On ch=2 n=a5 v=31
126478 On ch=2 n=a5 v=0
126480 On ch=2 n=g5 v=31
126718 On ch=2 n=g5 v=0
126720 On ch=2 n=f#5 v=33
127198 On ch=2 n=f#5 v=0
128162 On ch=2 n=c7 v=30
128278 On ch=2 n=c7 v=0
128402 On ch=2 n=c7 v=30
128518 On ch=2 n=c7 v=0
128642 On ch=2 n=c7 v=30
128758 On ch=2 n=c7 v=0
128882 On ch=2 n=c7 v=30
128998 On ch=2 n=c7 v=0
129122 On ch=2 n=c7 v=30
129238 On ch=2 n=c7 v=0
129362 On ch=2 n=c7 v=30
129478 On ch=2 n=c7 v=0
129602 On ch=2 n=c7 v=30
129718 On ch=2 n=c7 v=0
129842 On ch=2 n=c7 v=30
129958 On ch=2 n=c7 v=0
130082 On ch=2 n=c7 v=30
130198 On ch=2 n=c7 v=0
130322 On ch=2 n=c7 v=30
131038 On ch=2 n=c7 v=0
131522 On ch=2 n=c6 v=30
131638 On ch=2 n=c6 v=0
131762 On ch=2 n=c6 v=30
132238 On ch=2 n=c6 v=0
135122 On ch=2 n=f#5 v=63
135358 On ch=2 n=f#5 v=0
135360 On ch=2 n=g5 v=63
135598 On ch=2 n=g5 v=0
135842 On ch=2 n=g5 v=63
136078 On ch=2 n=g5 v=0
136080 On ch=2 n=a5 v=63
136558 On ch=2 n=a5 v=0
136560 On ch=2 n=g5 v=63
136798 On ch=2 n=g5 v=0
139202 On ch=2 n=g#5 v=63
139678 On ch=2 n=g#5 v=0
139680 On ch=2 n=a5 v=47
139918 On ch=2 n=a5 v=0
139920 On ch=2 n=b5 v=47
140158 On ch=2 n=b5 v=0
140160 On ch=2 n=c6 v=37
140278 On ch=2 n=c6 v=0
140402 On ch=2 n=c6 v=37
140638 On ch=2 n=c6 v=0
140882 On ch=2 n=f#5 v=63
141118 On ch=2 n=f#5 v=0
141120 On ch=2 n=g5 v=47
141358 On ch=2 n=g5 v=0
141360 On ch=2 n=a5 v=47
141598 On ch=2 n=a5 v=0
141600 On ch=2 n=b5 v=37
141718 On ch=2 n=b5 v=0
144722 On ch=2 n=d5 v=81
144958 On ch=2 n=d5 v=0
151204 On ch=2 n=g5 v=31
151320 On ch=2 n=g5 v=0
151444 On ch=2 n=g5 v=31
151560 On ch=2 n=g5 v=0
151684 On ch=2 n=g5 v=31
151800 On ch=2 n=g5 v=0
151924 On ch=2 n=g5 v=31
152040 On ch=2 n=g5 v=0
152164 On ch=2 n=g5 v=31
152880 On ch=2 n=g5 v=0
152882 On ch=2 n=f5 v=31
153120 On ch=2 n=f5 v=0
153122 On ch=2 n=e5 v=31
153600 On ch=2 n=e5 v=0
153602 On ch=2 n=e5 v=31
154080 On ch=2 n=e5 v=0
154082 On ch=2 n=d5 v=31
154560 On ch=2 n=d5 v=0
158884 On ch=2 n=b5 v=31
159000 On ch=2 n=b5 v=0
159124 On ch=2 n=b5 v=31
159240 On ch=2 n=b5 v=0
159364 On ch=2 n=b5 v=47
159480 On ch=2 n=b5 v=0
159604 On ch=2 n=b5 v=47
159720 On ch=2 n=b5 v=0
159844 On ch=2 n=b5 v=47
159960 On ch=2 n=b5 v=0
160084 On ch=2 n=b5 v=47
160200 On ch=2 n=b5 v=0
160324 On ch=2 n=b5 v=63
160440 On ch=2 n=b5 v=0
160564 On ch=2 n=b5 v=63
160680 On ch=2 n=b5 v=0
160804 On ch=2 n=f#5 v=63
160920 On ch=2 n=f#5 v=0
161044 On ch=2 n=f#5 v=63
161160 On ch=2 n=f#5 v=0
161284 On ch=2 n=e5 v=63
161400 On ch=2 n=e5 v=0
161524 On ch=2 n=e5 v=63
161640 On ch=2 n=e5 v=0
161764 On ch=2 n=f#5 v=63
161880 On ch=2 n=f#5 v=0
162004 On ch=2 n=f#5 v=63
162120 On ch=2 n=f#5 v=0
162244 On ch=2 n=f#5 v=63
162360 On ch=2 n=f#5 v=0
162484 On ch=2 n=f#5 v=63
162600 On ch=2 n=f#5 v=0
162724 On ch=2 n=g5 v=63
162840 On ch=2 n=g5 v=0
162964 On ch=2 n=g5 v=63
163080 On ch=2 n=g5 v=0
163204 On ch=2 n=g5 v=63
163320 On ch=2 n=g5 v=0
163444 On ch=2 n=g5 v=63
163560 On ch=2 n=g5 v=0
163684 On ch=2 n=f#5 v=63
163800 On ch=2 n=f#5 v=0
163924 On ch=2 n=f#5 v=63
164040 On ch=2 n=f#5 v=0
164164 On ch=2 n=f#5 v=63
164280 On ch=2 n=f#5 v=0
164404 On ch=2 n=f#5 v=63
164520 On ch=2 n=f#5 v=0
164644 On ch=2 n=g5 v=63
164760 On ch=2 n=g5 v=0
164884 On ch=2 n=g5 v=63
165000 On ch=2 n=g5 v=0
165124 On ch=2 n=g5 v=63
165240 On ch=2 n=g5 v=0
165364 On ch=2 n=g5 v=63
165480 On ch=2 n=g5 v=0
165604 On ch=2 n=f#5 v=81
166080 On ch=2 n=f#5 v=0
178084 On ch=2 n=d6 v=31
178200 On ch=2 n=d6 v=0
178324 On ch=2 n=d6 v=31
178440 On ch=2 n=d6 v=0
178564 On ch=2 n=d6 v=31
178680 On ch=2 n=d6 v=0
178804 On ch=2 n=d6 v=31
178920 On ch=2 n=d6 v=0
179044 On ch=2 n=c6 v=31
179520 On ch=2 n=c6 v=0
180004 On ch=2 n=c6 v=31
180120 On ch=2 n=c6 v=0
180244 On ch=2 n=c6 v=31
180360 On ch=2 n=c6 v=0
180484 On ch=2 n=c6 v=31
180600 On ch=2 n=c6 v=0
180724 On ch=2 n=c6 v=19
180840 On ch=2 n=c6 v=0
180964 On ch=2 n=b5 v=19
181440 On ch=2 n=b5 v=0
184804 On ch=2 n=g5 v=31
185280 On ch=2 n=g5 v=0
185644 On ch=2 n=g5 v=29
185700 On ch=2 n=g5 v=0
185702 On ch=2 n=f5 v=29
185760 On ch=2 n=f5 v=0
185762 On ch=2 n=d#5 v=29
186240 On ch=2 n=d#5 v=0
186604 On ch=2 n=a5 v=47
186660 On ch=2 n=a5 v=0
186662 On ch=2 n=g5 v=47
186720 On ch=2 n=g5 v=0
186722 On ch=2 n=f#5 v=47
187200 On ch=2 n=f#5 v=0
187202 On ch=2 n=g5 v=31
187680 On ch=2 n=g5 v=0
187682 On ch=2 n=e5 v=31
188160 On ch=2 n=e5 v=0
188162 On ch=2 n=d5 v=31
188640 On ch=2 n=d5 v=0
195124 On ch=2 n=b5 v=63
195360 On ch=2 n=b5 v=0
195362 On ch=2 n=a5 v=63
196080 On ch=2 n=a5 v=0
196082 On ch=2 n=c6 v=63
196320 On ch=2 n=c6 v=0
196322 On ch=2 n=b5 v=63
197040 On ch=2 n=b5 v=0
197042 On ch=2 n=a#5 v=63
197280 On ch=2 n=a#5 v=0
197282 On ch=2 n=b5 v=63
198000 On ch=2 n=b5 v=0
198002 On ch=2 n=f#5 v=63
198240 On ch=2 n=f#5 v=0
198724 On ch=2 n=c#7 v=63
199200 On ch=2 n=c#7 v=0
199202 On ch=2 n=b6 v=63
199920 On ch=2 n=b6 v=0
199922 On ch=2 n=e6 v=50
200400 On ch=2 n=e6 v=0
200402 On ch=2 n=d6 v=31
200880 On ch=2 n=d6 v=0
200882 On ch=2 n=c#6 v=36
201120 On ch=2 n=c#6 v=0
202804 On ch=2 n=b5 v=63
203040 On ch=2 n=b5 v=0
203042 On ch=2 n=a5 v=63
203760 On ch=2 n=a5 v=0
203762 On ch=2 n=c6 v=63
204000 On ch=2 n=c6 v=0
204002 On ch=2 n=b5 v=63
204720 On ch=2 n=b5 v=0
204722 On ch=2 n=a#5 v=63
204960 On ch=2 n=a#5 v=0
204962 On ch=2 n=b5 v=63
205680 On ch=2 n=b5 v=0
205682 On ch=2 n=f#5 v=63
205920 On ch=2 n=f#5 v=0
206404 On ch=2 n=c#7 v=63
206880 On ch=2 n=c#7 v=0
206882 On ch=2 n=b6 v=63
207600 On ch=2 n=b6 v=0
207602 On ch=2 n=e6 v=47
208080 On ch=2 n=e6 v=0
208082 On ch=2 n=d6 v=47
208560 On ch=2 n=d6 v=0
208562 On ch=2 n=c#6 v=39
208800 On ch=2 n=c#6 v=0
214564 On ch=2 n=a6 v=31
215280 On ch=2 n=a6 v=0
215282 On ch=2 n=g6 v=31
215760 On ch=2 n=g6 v=0
215762 On ch=2 n=f#6 v=27
216240 On ch=2 n=f#6 v=0
216242 On ch=2 n=e6 v=27
216720 On ch=2 n=e6 v=0
216722 On ch=2 n=d#6 v=26
216960 On ch=2 n=d#6 v=0
218164 On ch=2 n=g5 v=63
218400 On ch=2 n=g5 v=0
218402 On ch=2 n=a5 v=63
219120 On ch=2 n=a5 v=0
219122 On ch=2 n=a5 v=63
219360 On ch=2 n=a5 v=0
219362 On ch=2 n=b5 v=63
220080 On ch=2 n=b5 v=0
220082 On ch=2 n=b5 v=63
220320 On ch=2 n=b5 v=0
220322 On ch=2 n=c6 v=63
221040 On ch=2 n=c6 v=0
232804 On ch=2 n=d5 v=39
233280 On ch=2 n=d5 v=0
233524 On ch=2 n=d5 v=39
233760 On ch=2 n=d5 v=0
233762 On ch=2 n=b4 v=39
234240 On ch=2 n=b4 v=0
234484 On ch=2 n=b4 v=47
234720 On ch=2 n=b4 v=0
234722 On ch=2 n=c5 v=47
235200 On ch=2 n=c5 v=0
235444 On ch=2 n=c5 v=36
235680 On ch=2 n=c5 v=0
235682 On ch=2 n=c#5 v=36
236160 On ch=2 n=c#5 v=0
236404 On ch=2 n=c#5 v=36
236640 On ch=2 n=c#5 v=0
236642 On ch=2 n=d5 v=36
237120 On ch=2 n=d5 v=0
238564 On ch=2 n=c#5 v=31
239040 On ch=2 n=c#5 v=0
239284 On ch=2 n=c#5 v=31
239520 On ch=2 n=c#5 v=0
239522 On ch=2 n=c5 v=31
240000 On ch=2 n=c5 v=0
243364 On ch=2 n=g5 v=31
243480 On ch=2 n=g5 v=0
243604 On ch=2 n=g5 v=31
243720 On ch=2 n=g5 v=0
243844 On ch=2 n=g5 v=31
243960 On ch=2 n=g5 v=0
244084 On ch=2 n=g5 v=31
244200 On ch=2 n=g5 v=0
244324 On ch=2 n=g5 v=31
245040 On ch=2 n=g5 v=0
245042 On ch=2 n=f5 v=31
245280 On ch=2 n=f5 v=0
245282 On ch=2 n=e5 v=31
245760 On ch=2 n=e5 v=0
245762 On ch=2 n=e5 v=47
246240 On ch=2 n=e5 v=0
246242 On ch=2 n=d5 v=39
246720 On ch=2 n=d5 v=0
250084 On ch=2 n=b5 v=50
250200 On ch=2 n=b5 v=0
250324 On ch=2 n=b5 v=50
250440 On ch=2 n=b5 v=0
250564 On ch=2 n=b5 v=55
250680 On ch=2 n=b5 v=0
250804 On ch=2 n=b5 v=39
250920 On ch=2 n=b5 v=0
251044 On ch=2 n=b5 v=39
251160 On ch=2 n=b5 v=0
251284 On ch=2 n=b5 v=39
251400 On ch=2 n=b5 v=0
251524 On ch=2 n=b5 v=50
251640 On ch=2 n=b5 v=0
251764 On ch=2 n=b5 v=50
251880 On ch=2 n=b5 v=0
252004 On ch=2 n=b5 v=63
252120 On ch=2 n=b5 v=0
252244 On ch=2 n=b5 v=63
252360 On ch=2 n=b5 v=0
252484 On ch=2 n=b5 v=50
252600 On ch=2 n=b5 v=0
252724 On ch=2 n=b5 v=50
252840 On ch=2 n=b5 v=0
252964 On ch=2 n=f#5 v=47
253080 On ch=2 n=f#5 v=0
253204 On ch=2 n=f#5 v=47
253320 On ch=2 n=f#5 v=0
253444 On ch=2 n=e5 v=39
253560 On ch=2 n=e5 v=0
253684 On ch=2 n=e5 v=39
253800 On ch=2 n=e5 v=0
253924 On ch=2 n=f#5 v=63
254040 On ch=2 n=f#5 v=0
254164 On ch=2 n=f#5 v=63
254280 On ch=2 n=f#5 v=0
254404 On ch=2 n=f#5 v=63
254520 On ch=2 n=f#5 v=0
254644 On ch=2 n=f#5 v=63
254760 On ch=2 n=f#5 v=0
254884 On ch=2 n=g5 v=63
255000 On ch=2 n=g5 v=0
255124 On ch=2 n=g5 v=63
255240 On ch=2 n=g5 v=0
255364 On ch=2 n=g5 v=63
255480 On ch=2 n=g5 v=0
255604 On ch=2 n=g5 v=63
255720 On ch=2 n=g5 v=0
255844 On ch=2 n=f#5 v=63
255960 On ch=2 n=f#5 v=0
256084 On ch=2 n=f#5 v=63
256200 On ch=2 n=f#5 v=0
256324 On ch=2 n=f#5 v=50
256440 On ch=2 n=f#5 v=0
256564 On ch=2 n=f#5 v=50
256680 On ch=2 n=f#5 v=0
256804 On ch=2 n=g5 v=39
256920 On ch=2 n=g5 v=0
257044 On ch=2 n=g5 v=39
257160 On ch=2 n=g5 v=0
257284 On ch=2 n=g5 v=50
257400 On ch=2 n=g5 v=0
257524 On ch=2 n=g5 v=50
257640 On ch=2 n=g5 v=0
257764 On ch=2 n=f#5 v=50
257880 On ch=2 n=f#5 v=0
258004 On ch=2 n=f#5 v=50
258120 On ch=2 n=f#5 v=0
258244 On ch=2 n=f#5 v=39
258360 On ch=2 n=f#5 v=0
258484 On ch=2 n=f#5 v=39
258600 On ch=2 n=f#5 v=0
258724 On ch=2 n=f#5 v=39
258960 On ch=2 n=f#5 v=0
262564 On ch=2 n=f5 v=63
262680 On ch=2 n=f5 v=0
262682 On ch=2 n=g5 v=63
262800 On ch=2 n=g5 v=0
262802 On ch=2 n=f5 v=63
262920 On ch=2 n=f5 v=0
262922 On ch=2 n=g5 v=63
263040 On ch=2 n=g5 v=0
263042 On ch=2 n=f5 v=63
263160 On ch=2 n=f5 v=0
263162 On ch=2 n=g5 v=63
263280 On ch=2 n=g5 v=0
263282 On ch=2 n=f5 v=63
263400 On ch=2 n=f5 v=0
263402 On ch=2 n=g5 v=63
263520 On ch=2 n=g5 v=0
263522 On ch=2 n=e5 v=63
264000 On ch=2 n=e5 v=0
264244 On ch=2 n=e5 v=63
264360 On ch=2 n=e5 v=0
264362 On ch=2 n=d5 v=63
264480 On ch=2 n=d5 v=0
264482 On ch=2 n=c5 v=63
264960 On ch=2 n=c5 v=0
270244 On ch=2 n=b5 v=31
270360 On ch=2 n=b5 v=0
270484 On ch=2 n=b5 v=31
270600 On ch=2 n=b5 v=0
270724 On ch=2 n=b5 v=39
270840 On ch=2 n=b5 v=0
270964 On ch=2 n=b5 v=39
271080 On ch=2 n=b5 v=0
271204 On ch=2 n=b5 v=50
271320 On ch=2 n=b5 v=0
271444 On ch=2 n=b5 v=45
271560 On ch=2 n=b5 v=0
271684 On ch=2 n=b5 v=39
271800 On ch=2 n=b5 v=0
271924 On ch=2 n=b5 v=39
272040 On ch=2 n=b5 v=0
272164 On ch=2 n=f#5 v=31
272280 On ch=2 n=f#5 v=0
272404 On ch=2 n=f#5 v=31
272520 On ch=2 n=f#5 v=0
272644 On ch=2 n=e5 v=29
272760 On ch=2 n=e5 v=0
272884 On ch=2 n=e5 v=29
273000 On ch=2 n=e5 v=0
273124 On ch=2 n=f#5 v=63
273240 On ch=2 n=f#5 v=0
273364 On ch=2 n=f#5 v=63
273480 On ch=2 n=f#5 v=0
273604 On ch=2 n=f#5 v=63
273720 On ch=2 n=f#5 v=0
273844 On ch=2 n=f#5 v=63
273960 On ch=2 n=f#5 v=0
274084 On ch=2 n=g5 v=63
274200 On ch=2 n=g5 v=0
274324 On ch=2 n=g5 v=63
274440 On ch=2 n=g5 v=0
274564 On ch=2 n=g5 v=63
274680 On ch=2 n=g5 v=0
274804 On ch=2 n=g5 v=63
274920 On ch=2 n=g5 v=0
275044 On ch=2 n=f#5 v=63
275160 On ch=2 n=f#5 v=0
275284 On ch=2 n=f#5 v=63
275400 On ch=2 n=f#5 v=0
275524 On ch=2 n=f#5 v=50
275640 On ch=2 n=f#5 v=0
275764 On ch=2 n=f#5 v=38
275880 On ch=2 n=f#5 v=0
276004 On ch=2 n=g5 v=31
276120 On ch=2 n=g5 v=0
276244 On ch=2 n=g5 v=31
276360 On ch=2 n=g5 v=0
276484 On ch=2 n=g5 v=38
276600 On ch=2 n=g5 v=0
276724 On ch=2 n=g5 v=50
276840 On ch=2 n=g5 v=0
276964 On ch=2 n=f#5 v=50
277080 On ch=2 n=f#5 v=0
277204 On ch=2 n=f#5 v=39
277320 On ch=2 n=f#5 v=0
277444 On ch=2 n=f#5 v=39
277560 On ch=2 n=f#5 v=0
277684 On ch=2 n=f#5 v=31
277800 On ch=2 n=f#5 v=0
277924 On ch=2 n=f#5 v=29
278160 On ch=2 n=f#5 v=0
289444 On ch=2 n=d6 v=63
289560 On ch=2 n=d6 v=0
289684 On ch=2 n=d6 v=63
289800 On ch=2 n=d6 v=0
289924 On ch=2 n=d6 v=63
290040 On ch=2 n=d6 v=0
290164 On ch=2 n=d6 v=63
290280 On ch=2 n=d6 v=0
290404 On ch=2 n=c6 v=63
290880 On ch=2 n=c6 v=0
291124 On ch=2 n=c6 v=36
291240 On ch=2 n=c6 v=0
291364 On ch=2 n=c6 v=31
291480 On ch=2 n=c6 v=0
291604 On ch=2 n=c6 v=28
291720 On ch=2 n=c6 v=0
291844 On ch=2 n=c6 v=28
291960 On ch=2 n=c6 v=0
292084 On ch=2 n=c6 v=28
292200 On ch=2 n=c6 v=0
292324 On ch=2 n=b5 v=28
292800 On ch=2 n=b5 v=0
296164 On ch=2 n=g5 v=47
296640 On ch=2 n=g5 v=0
297124 On ch=2 n=d#5 v=47
297240 On ch=2 n=d#5 v=0
297242 On ch=2 n=g5 v=47
297360 On ch=2 n=g5 v=0
297362 On ch=2 n=d#5 v=47
297480 On ch=2 n=d#5 v=0
297482 On ch=2 n=g5 v=47
297600 On ch=2 n=g5 v=0
297602 On ch=2 n=d#5 v=47
297720 On ch=2 n=d#5 v=0
297722 On ch=2 n=g5 v=47
297840 On ch=2 n=g5 v=0
297842 On ch=2 n=d#5 v=47
297960 On ch=2 n=d#5 v=0
297962 On ch=2 n=g5 v=63
298080 On ch=2 n=g5 v=0
298082 On ch=2 n=f#5 v=63
298560 On ch=2 n=f#5 v=0
298562 On ch=2 n=g5 v=63
299040 On ch=2 n=g5 v=0
299042 On ch=2 n=c6 v=63
299520 On ch=2 n=c6 v=0
299522 On ch=2 n=c6 v=63
300000 On ch=2 n=c6 v=0
300002 On ch=2 n=b5 v=63
300240 On ch=2 n=b5 v=0
300242 On ch=2 n=b5 v=63
300480 On ch=2 n=b5 v=0
300482 On ch=2 n=b5 v=63
300720 On ch=2 n=b5 v=0
300722 On ch=2 n=b5 v=63
300960 On ch=2 n=b5 v=0
300962 On ch=2 n=c6 v=63
301200 On ch=2 n=c6 v=0
301202 On ch=2 n=c6 v=63
301440 On ch=2 n=c6 v=0
301442 On ch=2 n=c6 v=63
301680 On ch=2 n=c6 v=0
301682 On ch=2 n=c6 v=63
301920 On ch=2 n=c6 v=0
301922 On ch=2 n=b5 v=63
302160 On ch=2 n=b5 v=0
302162 On ch=2 n=b5 v=63
302400 On ch=2 n=b5 v=0
302402 On ch=2 n=b5 v=63
302640 On ch=2 n=b5 v=0
302642 On ch=2 n=b5 v=63
302880 On ch=2 n=b5 v=0
302882 On ch=2 n=c6 v=63
303120 On ch=2 n=c6 v=0
303122 On ch=2 n=c6 v=63
303360 On ch=2 n=c6 v=0
303362 On ch=2 n=c6 v=63
303600 On ch=2 n=c6 v=0
303602 On ch=2 n=c6 v=63
303840 On ch=2 n=c6 v=0
303842 On ch=2 n=b5 v=63
304320 On ch=2 n=b5 v=0
304320 Meta TrkEnd
TrkEnd
MTrk
0 SeqSpec 43 00 01 00
0 Meta TrkName "(Augener Edition)"
0 Meta 0x21 00
0 PrCh ch=3 p=0
0 Par ch=3 c=7 v=127
0 PrCh ch=3 p=0
23042 On ch=3 n=a5 v=29
24478 On ch=3 n=a5 v=0
48962 On ch=3 n=d#6 v=81
49918 On ch=3 n=d#6 v=0
49920 On ch=3 n=d6 v=63
50158 On ch=3 n=d6 v=0
50160 On ch=3 n=d6 v=63
50398 On ch=3 n=d6 v=0
50642 On ch=3 n=c6 v=47
50878 On ch=3 n=c6 v=0
50880 On ch=3 n=c6 v=47
51358 On ch=3 n=c6 v=0
51360 On ch=3 n=a#5 v=36
51598 On ch=3 n=a#5 v=0
51600 On ch=3 n=a5 v=36
51838 On ch=3 n=a5 v=0
51840 On ch=3 n=a5 v=36
52558 On ch=3 n=a5 v=0
52560 On ch=3 n=g5 v=29
52798 On ch=3 n=g5 v=0
68402 On ch=3 n=e5 v=19
68878 On ch=3 n=e5 v=0
91682 On ch=3 n=a#6 v=81
92158 On ch=3 n=a#6 v=0
92160 On ch=3 n=f5 v=81
92638 On ch=3 n=f5 v=0
92640 On ch=3 n=e5 v=81
92878 On ch=3 n=e5 v=0
92880 On ch=3 n=d5 v=81
93118 On ch=3 n=d5 v=0
93120 On ch=3 n=b5 v=81
93598 On ch=3 n=b5 v=0
93600 On ch=3 n=d5 v=81
94318 On ch=3 n=d5 v=0
94320 On ch=3 n=e5 v=47
95038 On ch=3 n=e5 v=0
116402 On ch=3 n=b5 v=31
116638 On ch=3 n=b5 v=0
116640 On ch=3 n=b5 v=31
117118 On ch=3 n=b5 v=0
117120 On ch=3 n=c6 v=31
117358 On ch=3 n=c6 v=0
117360 On ch=3 n=b5 v=31
117598 On ch=3 n=b5 v=0
117600 On ch=3 n=a5 v=31
117838 On ch=3 n=a5 v=0
117840 On ch=3 n=g5 v=31
118078 On ch=3 n=g5 v=0
118080 On ch=3 n=f#5 v=31
118558 On ch=3 n=f#5 v=0
118560 On ch=3 n=f#5 v=40
118798 On ch=3 n=f#5 v=0
118800 On ch=3 n=f#5 v=47
119278 On ch=3 n=f#5 v=0
119280 On ch=3 n=f#5 v=47
119518 On ch=3 n=f#5 v=0
119520 On ch=3 n=g5 v=63
120238 On ch=3 n=g5 v=0
120240 On ch=3 n=e5 v=63
120958 On ch=3 n=e5 v=0
124082 On ch=3 n=d5 v=29
124318 On ch=3 n=d5 v=0
124320 On ch=3 n=e5 v=29
124558 On ch=3 n=e5 v=0
124802 On ch=3 n=f#5 v=39
125038 On ch=3 n=f#5 v=0
125040 On ch=3 n=g5 v=39
125278 On ch=3 n=g5 v=0
125522 On ch=3 n=a5 v=31
125758 On ch=3 n=a5 v=0
125760 On ch=3 n=g5 v=31
125998 On ch=3 n=g5 v=0
126242 On ch=3 n=f#5 v=31
126478 On ch=3 n=f#5 v=0
126480 On ch=3 n=e5 v=31
126718 On ch=3 n=e5 v=0
126720 On ch=3 n=d5 v=31
127198 On ch=3 n=d5 v=0
128162 On ch=3 n=a6 v=30
128278 On ch=3 n=a6 v=0
128402 On ch=3 n=a6 v=30
128518 On ch=3 n=a6 v=0
128642 On ch=3 n=a6 v=30
128758 On ch=3 n=a6 v=0
128882 On ch=3 n=a6 v=30
128998 On ch=3 n=a6 v=0
129122 On ch=3 n=a6 v=30
129238 On ch=3 n=a6 v=0
129362 On ch=3 n=a6 v=30
129478 On ch=3 n=a6 v=0
129602 On ch=3 n=a6 v=30
129718 On ch=3 n=a6 v=0
129842 On ch=3 n=a6 v=30
129958 On ch=3 n=a6 v=0
130082 On ch=3 n=a6 v=30
130198 On ch=3 n=a6 v=0
130322 On ch=3 n=a6 v=30
131038 On ch=3 n=a6 v=0
131522 On ch=3 n=a5 v=30
131638 On ch=3 n=a5 v=0
131762 On ch=3 n=a5 v=30
132238 On ch=3 n=a5 v=0
135122 On ch=3 n=d5 v=63
135358 On ch=3 n=d5 v=0
135360 On ch=3 n=d5 v=63
135598 On ch=3 n=d5 v=0
135842 On ch=3 n=d5 v=63
136078 On ch=3 n=d5 v=0
136080 On ch=3 n=d5 v=63
136558 On ch=3 n=d5 v=0
136560 On ch=3 n=d5 v=63
136798 On ch=3 n=d5 v=0
144722 On ch=3 n=b4 v=81
144958 On ch=3 n=b4 v=0
151204 On ch=3 n=f5 v=31
151320 On ch=3 n=f5 v=0
151444 On ch=3 n=f5 v=31
151560 On ch=3 n=f5 v=0
151684 On ch=3 n=f5 v=31
151800 On ch=3 n=f5 v=0
151924 On ch=3 n=f5 v=31
152040 On ch=3 n=f5 v=0
152164 On ch=3 n=e5 v=31
152880 On ch=3 n=e5 v=0
152882 On ch=3 n=d5 v=31
153120 On ch=3 n=d5 v=0
153122 On ch=3 n=c5 v=31
153600 On ch=3 n=c5 v=0
153602 On ch=3 n=c#5 v=31
154080 On ch=3 n=c#5 v=0
158884 On ch=3 n=g5 v=31
159000 On ch=3 n=g5 v=0
159124 On ch=3 n=g5 v=31
159240 On ch=3 n=g5 v=0
159364 On ch=3 n=g5 v=47
159480 On ch=3 n=g5 v=0
159604 On ch=3 n=g5 v=47
159720 On ch=3 n=g5 v=0
159844 On ch=3 n=g5 v=47
159960 On ch=3 n=g5 v=0
160084 On ch=3 n=g5 v=47
160200 On ch=3 n=g5 v=0
160324 On ch=3 n=g5 v=63
160440 On ch=3 n=g5 v=0
160564 On ch=3 n=g5 v=63
160680 On ch=3 n=g5 v=0
178084 On ch=3 n=g#5 v=31
178200 On ch=3 n=g#5 v=0
178324 On ch=3 n=g#5 v=31
178440 On ch=3 n=g#5 v=0
178564 On ch=3 n=g#5 v=31
178680 On ch=3 n=g#5 v=0
178804 On ch=3 n=g#5 v=31
178920 On ch=3 n=g#5 v=0
179044 On ch=3 n=a5 v=31
179520 On ch=3 n=a5 v=0
180004 On ch=3 n=f#5 v=31
180120 On ch=3 n=f#5 v=0
180244 On ch=3 n=f#5 v=31
180360 On ch=3 n=f#5 v=0
180484 On ch=3 n=f#5 v=31
180600 On ch=3 n=f#5 v=0
180724 On ch=3 n=f#5 v=19
180840 On ch=3 n=f#5 v=0
180964 On ch=3 n=g5 v=19
181440 On ch=3 n=g5 v=0
184804 On ch=3 n=e5 v=29
185280 On ch=3 n=e5 v=0
186724 On ch=3 n=d5 v=47
187200 On ch=3 n=d5 v=0
187202 On ch=3 n=e5 v=31
187680 On ch=3 n=e5 v=0
187682 On ch=3 n=c5 v=31
188160 On ch=3 n=c5 v=0
195124 On ch=3 n=g5 v=63
195360 On ch=3 n=g5 v=0
195362 On ch=3 n=f#5 v=63
196080 On ch=3 n=f#5 v=0
196082 On ch=3 n=a5 v=63
196320 On ch=3 n=a5 v=0
196322 On ch=3 n=g5 v=63
197040 On ch=3 n=g5 v=0
197042 On ch=3 n=e5 v=63
197280 On ch=3 n=e5 v=0
197282 On ch=3 n=d5 v=63
198000 On ch=3 n=d5 v=0
198002 On ch=3 n=d5 v=63
198240 On ch=3 n=d5 v=0
198242 On ch=3 n=e5 v=63
198960 On ch=3 n=e5 v=0
198962 On ch=3 n=a#4 v=63
199200 On ch=3 n=a#4 v=0
199202 On ch=3 n=b4 v=63
199680 On ch=3 n=b4 v=0
199682 On ch=3 n=e5 v=63
200160 On ch=3 n=e5 v=0
200162 On ch=3 n=f#5 v=50
200640 On ch=3 n=f#5 v=0
200642 On ch=3 n=f#5 v=63
201120 On ch=3 n=f#5 v=0
201122 On ch=3 n=b4 v=63
201600 On ch=3 n=b4 v=0
202804 On ch=3 n=g5 v=63
203040 On ch=3 n=g5 v=0
203042 On ch=3 n=f#5 v=63
203760 On ch=3 n=f#5 v=0
203762 On ch=3 n=a5 v=63
204000 On ch=3 n=a5 v=0
204002 On ch=3 n=g5 v=63
204720 On ch=3 n=g5 v=0
204722 On ch=3 n=e5 v=63
204960 On ch=3 n=e5 v=0
204962 On ch=3 n=d5 v=63
205680 On ch=3 n=d5 v=0
205682 On ch=3 n=d5 v=63
205920 On ch=3 n=d5 v=0
205922 On ch=3 n=e5 v=63
206640 On ch=3 n=e5 v=0
207844 On ch=3 n=f#5 v=47
208320 On ch=3 n=f#5 v=0
208322 On ch=3 n=f#5 v=47
208800 On ch=3 n=f#5 v=0
208802 On ch=3 n=b4 v=39
209280 On ch=3 n=b4 v=0
213844 On ch=3 n=d6 v=31
214080 On ch=3 n=d6 v=0
214082 On ch=3 n=c6 v=31
214560 On ch=3 n=c6 v=0
214804 On ch=3 n=f#5 v=31
215040 On ch=3 n=f#5 v=0
215042 On ch=3 n=g5 v=31
215520 On ch=3 n=g5 v=0
215522 On ch=3 n=d#5 v=31
216000 On ch=3 n=d#5 v=0
216002 On ch=3 n=e5 v=27
216480 On ch=3 n=e5 v=0
216482 On ch=3 n=b4 v=27
216960 On ch=3 n=b4 v=0
219844 On ch=3 n=g5 v=63
220560 On ch=3 n=g5 v=0
220562 On ch=3 n=f#5 v=63
220800 On ch=3 n=f#5 v=0
220802 On ch=3 n=a5 v=63
221520 On ch=3 n=a5 v=0
221522 On ch=3 n=f#5 v=63
221760 On ch=3 n=f#5 v=0
221762 On ch=3 n=d#5 v=63
222480 On ch=3 n=d#5 v=0
243364 On ch=3 n=f5 v=31
243480 On ch=3 n=f5 v=0
243604 On ch=3 n=f5 v=31
243720 On ch=3 n=f5 v=0
243844 On ch=3 n=f5 v=31
243960 On ch=3 n=f5 v=0
244084 On ch=3 n=f5 v=31
244200 On ch=3 n=f5 v=0
244324 On ch=3 n=e5 v=31
245040 On ch=3 n=e5 v=0
245042 On ch=3 n=d5 v=31
245280 On ch=3 n=d5 v=0
245282 On ch=3 n=c5 v=31
245760 On ch=3 n=c5 v=0
245762 On ch=3 n=c#5 v=39
246240 On ch=3 n=c#5 v=0
250084 On ch=3 n=g5 v=50
250200 On ch=3 n=g5 v=0
250324 On ch=3 n=g5 v=50
250440 On ch=3 n=g5 v=0
250564 On ch=3 n=g5 v=55
250680 On ch=3 n=g5 v=0
250804 On ch=3 n=g5 v=39
250920 On ch=3 n=g5 v=0
251044 On ch=3 n=g5 v=39
251160 On ch=3 n=g5 v=0
251284 On ch=3 n=g5 v=39
251400 On ch=3 n=g5 v=0
251524 On ch=3 n=g5 v=50
251640 On ch=3 n=g5 v=0
251764 On ch=3 n=g5 v=50
251880 On ch=3 n=g5 v=0
252004 On ch=3 n=g5 v=63
252120 On ch=3 n=g5 v=0
252244 On ch=3 n=g5 v=63
252360 On ch=3 n=g5 v=0
252484 On ch=3 n=g5 v=50
252600 On ch=3 n=g5 v=0
252724 On ch=3 n=g5 v=50
252840 On ch=3 n=g5 v=0
252964 On ch=3 n=a4 v=47
253080 On ch=3 n=a4 v=0
253204 On ch=3 n=a4 v=47
253320 On ch=3 n=a4 v=0
253444 On ch=3 n=a4 v=39
253560 On ch=3 n=a4 v=0
253684 On ch=3 n=a4 v=39
253800 On ch=3 n=a4 v=0
253924 On ch=3 n=d5 v=63
254040 On ch=3 n=d5 v=0
254164 On ch=3 n=d5 v=63
254280 On ch=3 n=d5 v=0
254404 On ch=3 n=d5 v=63
254520 On ch=3 n=d5 v=0
254644 On ch=3 n=d5 v=63
254760 On ch=3 n=d5 v=0
254884 On ch=3 n=d5 v=63
255000 On ch=3 n=d5 v=0
255124 On ch=3 n=d5 v=63
255240 On ch=3 n=d5 v=0
255364 On ch=3 n=d5 v=63
255480 On ch=3 n=d5 v=0
255604 On ch=3 n=d5 v=63
255720 On ch=3 n=d5 v=0
255844 On ch=3 n=d5 v=63
255960 On ch=3 n=d5 v=0
256084 On ch=3 n=d5 v=63
256200 On ch=3 n=d5 v=0
256324 On ch=3 n=d5 v=50
256440 On ch=3 n=d5 v=0
256564 On ch=3 n=d5 v=50
256680 On ch=3 n=d5 v=0
256804 On ch=3 n=d5 v=39
256920 On ch=3 n=d5 v=0
257044 On ch=3 n=d5 v=39
257160 On ch=3 n=d5 v=0
257284 On ch=3 n=d5 v=50
257400 On ch=3 n=d5 v=0
257524 On ch=3 n=d5 v=50
257640 On ch=3 n=d5 v=0
257764 On ch=3 n=d5 v=50
257880 On ch=3 n=d5 v=0
258004 On ch=3 n=d5 v=50
258120 On ch=3 n=d5 v=0
258244 On ch=3 n=d5 v=39
258360 On ch=3 n=d5 v=0
258484 On ch=3 n=d5 v=39
258600 On ch=3 n=d5 v=0
258724 On ch=3 n=d5 v=39
258960 On ch=3 n=d5 v=0
270244 On ch=3 n=g5 v=31
270360 On ch=3 n=g5 v=0
270484 On ch=3 n=g5 v=31
270600 On ch=3 n=g5 v=0
270724 On ch=3 n=g5 v=39
270840 On ch=3 n=g5 v=0
270964 On ch=3 n=g5 v=39
271080 On ch=3 n=g5 v=0
271204 On ch=3 n=g5 v=50
271320 On ch=3 n=g5 v=0
271444 On ch=3 n=g5 v=45
271560 On ch=3 n=g5 v=0
271684 On ch=3 n=g5 v=39
271800 On ch=3 n=g5 v=0
271924 On ch=3 n=g5 v=39
272040 On ch=3 n=g5 v=0
273124 On ch=3 n=d5 v=63
273240 On ch=3 n=d5 v=0
273364 On ch=3 n=d5 v=63
273480 On ch=3 n=d5 v=0
273604 On ch=3 n=d5 v=63
273720 On ch=3 n=d5 v=0
273844 On ch=3 n=d5 v=63
273960 On ch=3 n=d5 v=0
274084 On ch=3 n=d5 v=63
274200 On ch=3 n=d5 v=0
274324 On ch=3 n=d5 v=63
274440 On ch=3 n=d5 v=0
274564 On ch=3 n=d5 v=63
274680 On ch=3 n=d5 v=0
274804 On ch=3 n=d5 v=63
274920 On ch=3 n=d5 v=0
275044 On ch=3 n=d5 v=63
275160 On ch=3 n=d5 v=0
275284 On ch=3 n=d5 v=63
275400 On ch=3 n=d5 v=0
275524 On ch=3 n=d5 v=50
275640 On ch=3 n=d5 v=0
275764 On ch=3 n=d5 v=38
275880 On ch=3 n=d5 v=0
276004 On ch=3 n=d5 v=31
276120 On ch=3 n=d5 v=0
276244 On ch=3 n=d5 v=31
276360 On ch=3 n=d5 v=0
276484 On ch=3 n=d5 v=38
276600 On ch=3 n=d5 v=0
276724 On ch=3 n=d5 v=50
276840 On ch=3 n=d5 v=0
276964 On ch=3 n=d5 v=50
277080 On ch=3 n=d5 v=0
277204 On ch=3 n=d5 v=39
277320 On ch=3 n=d5 v=0
277444 On ch=3 n=d5 v=39
277560 On ch=3 n=d5 v=0
277684 On ch=3 n=d5 v=31
277800 On ch=3 n=d5 v=0
277924 On ch=3 n=d5 v=29
278160 On ch=3 n=d5 v=0
289444 On ch=3 n=b5 v=63
289560 On ch=3 n=b5 v=0
289684 On ch=3 n=b5 v=63
289800 On ch=3 n=b5 v=0
289924 On ch=3 n=b5 v=63
290040 On ch=3 n=b5 v=0
290164 On ch=3 n=b5 v=63
290280 On ch=3 n=b5 v=0
290404 On ch=3 n=a5 v=63
290880 On ch=3 n=a5 v=0
291124 On ch=3 n=f#5 v=31
291240 On ch=3 n=f#5 v=0
291364 On ch=3 n=f#5 v=31
291480 On ch=3 n=f#5 v=0
291604 On ch=3 n=f#5 v=28
291720 On ch=3 n=f#5 v=0
291844 On ch=3 n=f#5 v=28
291960 On ch=3 n=f#5 v=0
292084 On ch=3 n=f#5 v=28
292200 On ch=3 n=f#5 v=0
292324 On ch=3 n=g5 v=28
292800 On ch=3 n=g5 v=0
296164 On ch=3 n=e5 v=47
296640 On ch=3 n=e5 v=0
298084 On ch=3 n=d5 v=63
298560 On ch=3 n=d5 v=0
299044 On ch=3 n=c5 v=63
299520 On ch=3 n=c5 v=0
299522 On ch=3 n=d5 v=63
300000 On ch=3 n=d5 v=0
300002 On ch=3 n=g5 v=63
300240 On ch=3 n=g5 v=0
300242 On ch=3 n=g5 v=63
300480 On ch=3 n=g5 v=0
300482 On ch=3 n=g5 v=63
300720 On ch=3 n=g5 v=0
300722 On ch=3 n=g5 v=63
300960 On ch=3 n=g5 v=0
300962 On ch=3 n=g5 v=63
301200 On ch=3 n=g5 v=0
301202 On ch=3 n=g5 v=63
301440 On ch=3 n=g5 v=0
301442 On ch=3 n=g5 v=63
301680 On ch=3 n=g5 v=0
301682 On ch=3 n=g5 v=63
301920 On ch=3 n=g5 v=0
301922 On ch=3 n=g5 v=63
302160 On ch=3 n=g5 v=0
302162 On ch=3 n=g5 v=63
302400 On ch=3 n=g5 v=0
302402 On ch=3 n=g5 v=63
302640 On ch=3 n=g5 v=0
302642 On ch=3 n=g5 v=63
302880 On ch=3 n=g5 v=0
302882 On ch=3 n=g5 v=63
303120 On ch=3 n=g5 v=0
303122 On ch=3 n=g5 v=63
303360 On ch=3 n=g5 v=0
303362 On ch=3 n=g5 v=63
303600 On ch=3 n=g5 v=0
303602 On ch=3 n=g5 v=63
303840 On ch=3 n=g5 v=0
303842 On ch=3 n=g5 v=63
304320 On ch=3 n=g5 v=0
304320 Meta TrkEnd
TrkEnd
MTrk
0 SeqSpec 43 00 01 00
0 Meta TrkName "Step recorded by Don Stones"
0 Meta 0x21 00
0 PrCh ch=4 p=0
0 PrCh ch=4 p=0
0 Par ch=4 c=7 v=127
1202 On ch=4 n=b4 v=47
1438 On ch=4 n=b4 v=0
1440 On ch=4 n=b4 v=47
1918 On ch=4 n=b4 v=0
1920 On ch=4 n=c5 v=47
2158 On ch=4 n=c5 v=0
2160 On ch=4 n=c5 v=47
2638 On ch=4 n=c5 v=0
2640 On ch=4 n=c5 v=47
2878 On ch=4 n=c5 v=0
2880 On ch=4 n=b4 v=47
2998 On ch=4 n=b4 v=0
3122 On ch=4 n=b4 v=47
3238 On ch=4 n=b4 v=0
3362 On ch=4 n=b4 v=47
3478 On ch=4 n=b4 v=0
3602 On ch=4 n=b4 v=47
4078 On ch=4 n=b4 v=0
4080 On ch=4 n=d5 v=47
4318 On ch=4 n=d5 v=0
4320 On ch=4 n=d5 v=47
5038 On ch=4 n=d5 v=0
5040 On ch=4 n=d5 v=47
5758 On ch=4 n=d5 v=0
5760 On ch=4 n=d4 v=47
5998 On ch=4 n=d4 v=0
6000 On ch=4 n=d5 v=47
6238 On ch=4 n=d5 v=0
6240 On ch=4 n=d5 v=47
6358 On ch=4 n=d5 v=0
6482 On ch=4 n=d5 v=47
6718 On ch=4 n=d5 v=0
6720 On ch=4 n=c5 v=47
6958 On ch=4 n=c5 v=0
6960 On ch=4 n=b4 v=47
7198 On ch=4 n=b4 v=0
7200 On ch=4 n=a4 v=47
7678 On ch=4 n=a4 v=0
7680 On ch=4 n=g4 v=47
7918 On ch=4 n=g4 v=0
7920 On ch=4 n=f#4 v=47
8158 On ch=4 n=f#4 v=0
8160 On ch=4 n=a4 v=47
8398 On ch=4 n=a4 v=0
8400 On ch=4 n=d5 v=47
8638 On ch=4 n=d5 v=0
9122 On ch=4 n=f5 v=63
9358 On ch=4 n=f5 v=0
9360 On ch=4 n=e5 v=63
9598 On ch=4 n=e5 v=0
9600 On ch=4 n=d5 v=63
9838 On ch=4 n=d5 v=0
9840 On ch=4 n=c5 v=63
10078 On ch=4 n=c5 v=0
10080 On ch=4 n=b4 v=63
10318 On ch=4 n=b4 v=0
10320 On ch=4 n=b4 v=63
10558 On ch=4 n=b4 v=0
10560 On ch=4 n=a4 v=63
10798 On ch=4 n=a4 v=0
10800 On ch=4 n=g4 v=63
11038 On ch=4 n=g4 v=0
11040 On ch=4 n=b4 v=63
11278 On ch=4 n=b4 v=0
11280 On ch=4 n=g5 v=63
11518 On ch=4 n=g5 v=0
11520 On ch=4 n=d5 v=47
12718 On ch=4 n=d5 v=0
12720 On ch=4 n=d5 v=63
12958 On ch=4 n=d5 v=0
12960 On ch=4 n=d5 v=63
13438 On ch=4 n=d5 v=0
13440 On ch=4 n=e5 v=63
13678 On ch=4 n=e5 v=0
13680 On ch=4 n=d5 v=63
13918 On ch=4 n=d5 v=0
13920 On ch=4 n=c5 v=63
14158 On ch=4 n=c5 v=0
14160 On ch=4 n=b4 v=63
14398 On ch=4 n=b4 v=0
14400 On ch=4 n=a4 v=63
14518 On ch=4 n=a4 v=0
14642 On ch=4 n=a4 v=63
14758 On ch=4 n=a4 v=0
14882 On ch=4 n=a4 v=63
14998 On ch=4 n=a4 v=0
15122 On ch=4 n=a4 v=63
15358 On ch=4 n=a4 v=0
15360 On ch=4 n=b4 v=63
15598 On ch=4 n=b4 v=0
15600 On ch=4 n=c5 v=63
15838 On ch=4 n=c5 v=0
15840 On ch=4 n=b4 v=63
16078 On ch=4 n=b4 v=0
16080 On ch=4 n=a4 v=63
16318 On ch=4 n=a4 v=0
16320 On ch=4 n=g4 v=63
16558 On ch=4 n=g4 v=0
16560 On ch=4 n=g5 v=63
16798 On ch=4 n=g5 v=0
16800 On ch=4 n=f#5 v=63
17038 On ch=4 n=f#5 v=0
17040 On ch=4 n=e5 v=63
17278 On ch=4 n=e5 v=0
17522 On ch=4 n=f#4 v=31
17758 On ch=4 n=f#4 v=0
17760 On ch=4 n=g4 v=31
17998 On ch=4 n=g4 v=0
18242 On ch=4 n=a4 v=36
18478 On ch=4 n=a4 v=0
18480 On ch=4 n=b4 v=36
18718 On ch=4 n=b4 v=0
18962 On ch=4 n=c5 v=36
19198 On ch=4 n=c5 v=0
19200 On ch=4 n=b4 v=36
19438 On ch=4 n=b4 v=0
19682 On ch=4 n=a4 v=36
19918 On ch=4 n=a4 v=0
19920 On ch=4 n=g4 v=36
20158 On ch=4 n=g4 v=0
20160 On ch=4 n=f#4 v=36
20398 On ch=4 n=f#4 v=0
20642 On ch=4 n=d5 v=29
20878 On ch=4 n=d5 v=0
20880 On ch=4 n=d5 v=29
21118 On ch=4 n=d5 v=0
21362 On ch=4 n=d5 v=29
21598 On ch=4 n=d5 v=0
21600 On ch=4 n=d5 v=29
21838 On ch=4 n=d5 v=0
22082 On ch=4 n=d5 v=29
22318 On ch=4 n=d5 v=0
22320 On ch=4 n=d5 v=29
22558 On ch=4 n=d5 v=0
22560 On ch=4 n=f#5 v=29
22798 On ch=4 n=f#5 v=0
22800 On ch=4 n=g5 v=29
23038 On ch=4 n=g5 v=0
23040 On ch=4 n=d5 v=29
24478 On ch=4 n=d5 v=0
24480 On ch=4 n=b4 v=26
24958 On ch=4 n=b4 v=0
24960 On ch=4 n=c5 v=31
25198 On ch=4 n=c5 v=0
25200 On ch=4 n=c5 v=31
25678 On ch=4 n=c5 v=0
25680 On ch=4 n=c5 v=31
25918 On ch=4 n=c5 v=0
25920 On ch=4 n=b4 v=31
26038 On ch=4 n=b4 v=0
26162 On ch=4 n=b4 v=31
26278 On ch=4 n=b4 v=0
26402 On ch=4 n=b4 v=31
26518 On ch=4 n=b4 v=0
26642 On ch=4 n=b4 v=31
27118 On ch=4 n=b4 v=0
27120 On ch=4 n=d5 v=31
27358 On ch=4 n=d5 v=0
27360 On ch=4 n=d5 v=31
28078 On ch=4 n=d5 v=0
28080 On ch=4 n=d5 v=47
28798 On ch=4 n=d5 v=0
28800 On ch=4 n=d4 v=47
29038 On ch=4 n=d4 v=0
29040 On ch=4 n=d5 v=31
29278 On ch=4 n=d5 v=0
29280 On ch=4 n=d5 v=31
29398 On ch=4 n=d5 v=0
29522 On ch=4 n=d5 v=31
29758 On ch=4 n=d5 v=0
29760 On ch=4 n=c5 v=31
29998 On ch=4 n=c5 v=0
30000 On ch=4 n=b4 v=31
30238 On ch=4 n=b4 v=0
30240 On ch=4 n=a4 v=47
30718 On ch=4 n=a4 v=0
30720 On ch=4 n=g4 v=47
30958 On ch=4 n=g4 v=0
30960 On ch=4 n=f#4 v=47
31198 On ch=4 n=f#4 v=0
31200 On ch=4 n=a4 v=47
31438 On ch=4 n=a4 v=0
31440 On ch=4 n=d5 v=47
31678 On ch=4 n=d5 v=0
31680 On ch=4 n=g4 v=47
32398 On ch=4 n=g4 v=0
32400 On ch=4 n=g3 v=47
32638 On ch=4 n=g3 v=0
32640 On ch=4 n=b3 v=47
32878 On ch=4 n=b3 v=0
32880 On ch=4 n=d4 v=47
33118 On ch=4 n=d4 v=0
34082 On ch=4 n=b4 v=47
34318 On ch=4 n=b4 v=0
34320 On ch=4 n=a4 v=47
34558 On ch=4 n=a4 v=0
34560 On ch=4 n=g3 v=47
34798 On ch=4 n=g3 v=0
34800 On ch=4 n=b3 v=47
35038 On ch=4 n=b3 v=0
35040 On ch=4 n=d4 v=47
35278 On ch=4 n=d4 v=0
35280 On ch=4 n=g4 v=47
35758 On ch=4 n=g4 v=0
36242 On ch=4 n=a#4 v=47
36358 On ch=4 n=a#4 v=0
36962 On ch=4 n=c5 v=47
37078 On ch=4 n=c5 v=0
37682 On ch=4 n=c5 v=47
37798 On ch=4 n=c5 v=0
38402 On ch=4 n=a#4 v=47
38518 On ch=4 n=a#4 v=0
38642 On ch=4 n=g5 v=63
38878 On ch=4 n=g5 v=0
38880 On ch=4 n=f5 v=63
39358 On ch=4 n=f5 v=0
39360 On ch=4 n=g5 v=63
39598 On ch=4 n=g5 v=0
39600 On ch=4 n=f5 v=63
40078 On ch=4 n=f5 v=0
40080 On ch=4 n=d5 v=63
40318 On ch=4 n=d5 v=0
40320 On ch=4 n=d5 v=63
41038 On ch=4 n=d5 v=0
41040 On ch=4 n=d5 v=63
41758 On ch=4 n=d5 v=0
41760 On ch=4 n=d5 v=36
42478 On ch=4 n=d5 v=0
42480 On ch=4 n=e5 v=36
43198 On ch=4 n=e5 v=0
43200 On ch=4 n=d5 v=36
44158 On ch=4 n=d5 v=0
44882 On ch=4 n=d5 v=36
44998 On ch=4 n=d5 v=0
45602 On ch=4 n=d#5 v=36
45718 On ch=4 n=d#5 v=0
46322 On ch=4 n=a#4 v=36
46438 On ch=4 n=a#4 v=0
47042 On ch=4 n=d4 v=36
47158 On ch=4 n=d4 v=0
47282 On ch=4 n=d5 v=63
47518 On ch=4 n=d5 v=0
47520 On ch=4 n=d#5 v=63
47998 On ch=4 n=d#5 v=0
48000 On ch=4 n=d5 v=63
48238 On ch=4 n=d5 v=0
48240 On ch=4 n=d#5 v=63
48718 On ch=4 n=d#5 v=0
48720 On ch=4 n=d5 v=63
48838 On ch=4 n=d5 v=0
48962 On ch=4 n=c6 v=81
49678 On ch=4 n=c6 v=0
68402 On ch=4 n=c#5 v=81
68878 On ch=4 n=c#5 v=0
91682 On ch=4 n=g6 v=81
92158 On ch=4 n=g6 v=0
93122 On ch=4 n=g#5 v=81
93598 On ch=4 n=g#5 v=0
93600 On ch=4 n=a4 v=81
94318 On ch=4 n=a4 v=0
94320 On ch=4 n=a4 v=47
95038 On ch=4 n=a4 v=0
95522 On ch=4 n=d5 v=29
95638 On ch=4 n=d5 v=0
95762 On ch=4 n=d5 v=29
95878 On ch=4 n=d5 v=0
96722 On ch=4 n=d5 v=29
96838 On ch=4 n=d5 v=0
97442 On ch=4 n=d#5 v=29
97558 On ch=4 n=d#5 v=0
98162 On ch=4 n=a#4 v=29
98278 On ch=4 n=a#4 v=0
98882 On ch=4 n=d4 v=29
98998 On ch=4 n=d4 v=0
99122 On ch=4 n=d5 v=63
99358 On ch=4 n=d5 v=0
99360 On ch=4 n=d#5 v=63
99838 On ch=4 n=d#5 v=0
99840 On ch=4 n=d5 v=63
100078 On ch=4 n=d5 v=0
100080 On ch=4 n=d#5 v=63
100558 On ch=4 n=d#5 v=0
100560 On ch=4 n=d5 v=63
100798 On ch=4 n=d5 v=0
100800 On ch=4 n=c5 v=63
101038 On ch=4 n=c5 v=0
101040 On ch=4 n=d5 v=63
101278 On ch=4 n=d5 v=0
101280 On ch=4 n=d#5 v=63
101518 On ch=4 n=d#5 v=0
101520 On ch=4 n=d5 v=63
102238 On ch=4 n=d5 v=0
102240 On ch=4 n=d#5 v=63
102958 On ch=4 n=d#5 v=0
102960 On ch=4 n=a#4 v=47
103438 On ch=4 n=a#4 v=0
103440 On ch=4 n=a4 v=34
103678 On ch=4 n=a4 v=0
104162 On ch=4 n=g4 v=28
104278 On ch=4 n=g4 v=0
104402 On ch=4 n=g4 v=27
104518 On ch=4 n=g4 v=0
104882 On ch=4 n=b4 v=47
105118 On ch=4 n=b4 v=0
105120 On ch=4 n=b4 v=47
105598 On ch=4 n=b4 v=0
105600 On ch=4 n=c5 v=47
105838 On ch=4 n=c5 v=0
105840 On ch=4 n=c5 v=47
106318 On ch=4 n=c5 v=0
106320 On ch=4 n=c5 v=47
106558 On ch=4 n=c5 v=0
106560 On ch=4 n=b4 v=47
107038 On ch=4 n=b4 v=0
107040 On ch=4 n=b4 v=47
107278 On ch=4 n=b4 v=0
107280 On ch=4 n=b4 v=47
107758 On ch=4 n=b4 v=0
107760 On ch=4 n=d5 v=47
107998 On ch=4 n=d5 v=0
108000 On ch=4 n=d5 v=63
108718 On ch=4 n=d5 v=0
108720 On ch=4 n=d5 v=63
109438 On ch=4 n=d5 v=0
112082 On ch=4 n=d5 v=63
112798 On ch=4 n=d5 v=0
112800 On ch=4 n=f5 v=63
113038 On ch=4 n=f5 v=0
113040 On ch=4 n=e5 v=63
113278 On ch=4 n=e5 v=0
113280 On ch=4 n=d5 v=63
113518 On ch=4 n=d5 v=0
113520 On ch=4 n=c5 v=63
113758 On ch=4 n=c5 v=0
113760 On ch=4 n=b4 v=63
113998 On ch=4 n=b4 v=0
114000 On ch=4 n=a4 v=63
114238 On ch=4 n=a4 v=0
114240 On ch=4 n=c5 v=63
114478 On ch=4 n=c5 v=0
114480 On ch=4 n=b4 v=63
114718 On ch=4 n=b4 v=0
114720 On ch=4 n=g5 v=63
115198 On ch=4 n=g5 v=0
115200 On ch=4 n=g5 v=63
115438 On ch=4 n=g5 v=0
115440 On ch=4 n=f#5 v=63
115678 On ch=4 n=f#5 v=0
115680 On ch=4 n=f#5 v=63
115798 On ch=4 n=f#5 v=0
115922 On ch=4 n=f#5 v=63
116158 On ch=4 n=f#5 v=0
121202 On ch=4 n=f#4 v=80
121438 On ch=4 n=f#4 v=0
121440 On ch=4 n=g4 v=80
121678 On ch=4 n=g4 v=0
121922 On ch=4 n=a4 v=80
122158 On ch=4 n=a4 v=0
122160 On ch=4 n=b4 v=80
122398 On ch=4 n=b4 v=0
122642 On ch=4 n=c5 v=80
122878 On ch=4 n=c5 v=0
122880 On ch=4 n=b4 v=63
123118 On ch=4 n=b4 v=0
123362 On ch=4 n=a4 v=47
123598 On ch=4 n=a4 v=0
123600 On ch=4 n=g4 v=64
123838 On ch=4 n=g4 v=0
123840 On ch=4 n=f#4 v=64
124078 On ch=4 n=f#4 v=0
129602 On ch=4 n=f#6 v=30
129718 On ch=4 n=f#6 v=0
129842 On ch=4 n=f#6 v=30
129958 On ch=4 n=f#6 v=0
130082 On ch=4 n=f#6 v=30
130198 On ch=4 n=f#6 v=0
130322 On ch=4 n=f#6 v=30
131038 On ch=4 n=f#6 v=0
131522 On ch=4 n=f#5 v=30
131638 On ch=4 n=f#5 v=0
131762 On ch=4 n=f#5 v=30
132238 On ch=4 n=f#5 v=0
148322 On ch=4 n=b4 v=47
148440 On ch=4 n=b4 v=0
148564 On ch=4 n=b4 v=47
148680 On ch=4 n=b4 v=0
148804 On ch=4 n=b4 v=47
148920 On ch=4 n=b4 v=0
149044 On ch=4 n=b4 v=47
149160 On ch=4 n=b4 v=0
149284 On ch=4 n=b4 v=47
149400 On ch=4 n=b4 v=0
149524 On ch=4 n=b4 v=47
149640 On ch=4 n=b4 v=0
149764 On ch=4 n=b4 v=47
149880 On ch=4 n=b4 v=0
150004 On ch=4 n=b4 v=47
150120 On ch=4 n=b4 v=0
150244 On ch=4 n=c5 v=47
150720 On ch=4 n=c5 v=0
150722 On ch=4 n=b4 v=31
150960 On ch=4 n=b4 v=0
156004 On ch=4 n=b4 v=51
156120 On ch=4 n=b4 v=0
156244 On ch=4 n=b4 v=51
156360 On ch=4 n=b4 v=0
156484 On ch=4 n=b4 v=51
156600 On ch=4 n=b4 v=0
156724 On ch=4 n=b4 v=51
156840 On ch=4 n=b4 v=0
156964 On ch=4 n=b4 v=51
157080 On ch=4 n=b4 v=0
157204 On ch=4 n=b4 v=51
157320 On ch=4 n=b4 v=0
157444 On ch=4 n=b4 v=51
157560 On ch=4 n=b4 v=0
157684 On ch=4 n=b4 v=51
157800 On ch=4 n=b4 v=0
157924 On ch=4 n=c5 v=51
158400 On ch=4 n=c5 v=0
158402 On ch=4 n=b4 v=47
158640 On ch=4 n=b4 v=0
160804 On ch=4 n=a4 v=39
160920 On ch=4 n=a4 v=0
161044 On ch=4 n=a4 v=39
161160 On ch=4 n=a4 v=0
161284 On ch=4 n=a4 v=39
161400 On ch=4 n=a4 v=0
161524 On ch=4 n=a4 v=39
161640 On ch=4 n=a4 v=0
161764 On ch=4 n=d5 v=39
161880 On ch=4 n=d5 v=0
162004 On ch=4 n=d5 v=39
162120 On ch=4 n=d5 v=0
162244 On ch=4 n=d5 v=39
162360 On ch=4 n=d5 v=0
162484 On ch=4 n=d5 v=39
162600 On ch=4 n=d5 v=0
162724 On ch=4 n=d5 v=39
162840 On ch=4 n=d5 v=0
162964 On ch=4 n=d5 v=39
163080 On ch=4 n=d5 v=0
163204 On ch=4 n=d5 v=39
163320 On ch=4 n=d5 v=0
163444 On ch=4 n=d5 v=39
163560 On ch=4 n=d5 v=0
163684 On ch=4 n=d5 v=39
163800 On ch=4 n=d5 v=0
163924 On ch=4 n=d5 v=39
164040 On ch=4 n=d5 v=0
164164 On ch=4 n=d5 v=39
164280 On ch=4 n=d5 v=0
164404 On ch=4 n=d5 v=39
164520 On ch=4 n=d5 v=0
164644 On ch=4 n=d5 v=39
164760 On ch=4 n=d5 v=0
164884 On ch=4 n=d5 v=39
165000 On ch=4 n=d5 v=0
165124 On ch=4 n=d5 v=39
165240 On ch=4 n=d5 v=0
165364 On ch=4 n=d5 v=39
165480 On ch=4 n=d5 v=0
165604 On ch=4 n=d5 v=81
166080 On ch=4 n=d5 v=0
166564 On ch=4 n=d4 v=63
166800 On ch=4 n=d4 v=0
167524 On ch=4 n=d5 v=63
168000 On ch=4 n=d5 v=0
168244 On ch=4 n=d5 v=63
168480 On ch=4 n=d5 v=0
168482 On ch=4 n=d#5 v=63
168960 On ch=4 n=d#5 v=0
169204 On ch=4 n=d#5 v=63
169440 On ch=4 n=d#5 v=0
169442 On ch=4 n=f5 v=63
169920 On ch=4 n=f5 v=0
170164 On ch=4 n=d5 v=63
170400 On ch=4 n=d5 v=0
170402 On ch=4 n=c5 v=63
170880 On ch=4 n=c5 v=0
171124 On ch=4 n=c5 v=63
171360 On ch=4 n=c5 v=0
171362 On ch=4 n=d5 v=63
171840 On ch=4 n=d5 v=0
172084 On ch=4 n=a#4 v=63
172320 On ch=4 n=a#4 v=0
172322 On ch=4 n=g4 v=63
172800 On ch=4 n=g4 v=0
173044 On ch=4 n=g4 v=63
173280 On ch=4 n=g4 v=0
173282 On ch=4 n=f#4 v=63
173640 On ch=4 n=f#4 v=0
173642 On ch=4 n=f#4 v=63
173700 On ch=4 n=f#4 v=0
173702 On ch=4 n=g4 v=63
173760 On ch=4 n=g4 v=0
173762 On ch=4 n=a4 v=63
173880 On ch=4 n=a4 v=0
174004 On ch=4 n=f#4 v=63
174120 On ch=4 n=f#4 v=0
174244 On ch=4 n=d4 v=63
174720 On ch=4 n=d4 v=0
175204 On ch=4 n=b4 v=47
175320 On ch=4 n=b4 v=0
175444 On ch=4 n=b4 v=47
175560 On ch=4 n=b4 v=0
175684 On ch=4 n=b4 v=47
175800 On ch=4 n=b4 v=0
175924 On ch=4 n=b4 v=47
176040 On ch=4 n=b4 v=0
176164 On ch=4 n=b4 v=47
176280 On ch=4 n=b4 v=0
176404 On ch=4 n=b4 v=47
176520 On ch=4 n=b4 v=0
176644 On ch=4 n=b4 v=47
176760 On ch=4 n=b4 v=0
176884 On ch=4 n=b4 v=47
177000 On ch=4 n=b4 v=0
177124 On ch=4 n=c5 v=47
177600 On ch=4 n=c5 v=0
177602 On ch=4 n=b4 v=31
177840 On ch=4 n=b4 v=0
188644 On ch=4 n=b4 v=51
188760 On ch=4 n=b4 v=0
188884 On ch=4 n=b4 v=51
189000 On ch=4 n=b4 v=0
189124 On ch=4 n=b4 v=51
189240 On ch=4 n=b4 v=0
189364 On ch=4 n=b4 v=51
189480 On ch=4 n=b4 v=0
189604 On ch=4 n=c5 v=51
189720 On ch=4 n=c5 v=0
189844 On ch=4 n=c5 v=51
189960 On ch=4 n=c5 v=0
190084 On ch=4 n=c5 v=51
190200 On ch=4 n=c5 v=0
190324 On ch=4 n=c5 v=51
190440 On ch=4 n=c5 v=0
190564 On ch=4 n=b4 v=35
190680 On ch=4 n=b4 v=0
190804 On ch=4 n=b4 v=35
190920 On ch=4 n=b4 v=0
191044 On ch=4 n=b4 v=50
191160 On ch=4 n=b4 v=0
191284 On ch=4 n=b4 v=48
191400 On ch=4 n=b4 v=0
191524 On ch=4 n=c5 v=35
191640 On ch=4 n=c5 v=0
191764 On ch=4 n=c5 v=35
191880 On ch=4 n=c5 v=0
192004 On ch=4 n=c5 v=50
192120 On ch=4 n=c5 v=0
192244 On ch=4 n=c5 v=50
192360 On ch=4 n=c5 v=0
192484 On ch=4 n=b4 v=50
192960 On ch=4 n=b4 v=0
193444 On ch=4 n=g3 v=63
193680 On ch=4 n=g3 v=0
194404 On ch=4 n=e4 v=63
194880 On ch=4 n=e4 v=0
198244 On ch=4 n=c#5 v=63
198960 On ch=4 n=c#5 v=0
201844 On ch=4 n=d#4 v=31
202080 On ch=4 n=d#4 v=0
202082 On ch=4 n=e4 v=31
202560 On ch=4 n=e4 v=0
205924 On ch=4 n=c#5 v=63
206640 On ch=4 n=c#5 v=0
206642 On ch=4 n=a#4 v=63
206880 On ch=4 n=a#4 v=0
206882 On ch=4 n=b4 v=63
207360 On ch=4 n=b4 v=0
207362 On ch=4 n=e5 v=47
207840 On ch=4 n=e5 v=0
209524 On ch=4 n=b3 v=31
209640 On ch=4 n=b3 v=0
209764 On ch=4 n=c4 v=63
210240 On ch=4 n=c4 v=0
210484 On ch=4 n=e5 v=63
210720 On ch=4 n=e5 v=0
210722 On ch=4 n=d5 v=63
211440 On ch=4 n=d5 v=0
211442 On ch=4 n=b4 v=63
211680 On ch=4 n=b4 v=0
211682 On ch=4 n=c5 v=63
212160 On ch=4 n=c5 v=0
212162 On ch=4 n=d5 v=47
212640 On ch=4 n=d5 v=0
212642 On ch=4 n=e5 v=36
213120 On ch=4 n=e5 v=0
213844 On ch=4 n=b5 v=31
214080 On ch=4 n=b5 v=0
214082 On ch=4 n=a5 v=31
214560 On ch=4 n=a5 v=0
217684 On ch=4 n=e4 v=63
217800 On ch=4 n=e4 v=0
217924 On ch=4 n=e5 v=63
218640 On ch=4 n=e5 v=0
218642 On ch=4 n=d#5 v=63
218880 On ch=4 n=d#5 v=0
218882 On ch=4 n=f#5 v=63
219600 On ch=4 n=f#5 v=0
219602 On ch=4 n=e5 v=63
219840 On ch=4 n=e5 v=0
222484 On ch=4 n=c5 v=63
222720 On ch=4 n=c5 v=0
222722 On ch=4 n=a4 v=63
223440 On ch=4 n=a4 v=0
223442 On ch=4 n=f#4 v=63
223680 On ch=4 n=f#4 v=0
223682 On ch=4 n=d#4 v=63
223920 On ch=4 n=d#4 v=0
223922 On ch=4 n=d#5 v=63
224040 On ch=4 n=d#5 v=0
224042 On ch=4 n=c5 v=63
224160 On ch=4 n=c5 v=0
224162 On ch=4 n=a4 v=63
224280 On ch=4 n=a4 v=0
224404 On ch=4 n=c5 v=63
224520 On ch=4 n=c5 v=0
224522 On ch=4 n=a4 v=63
224640 On ch=4 n=a4 v=0
224642 On ch=4 n=f#4 v=63
224760 On ch=4 n=f#4 v=0
224884 On ch=4 n=a4 v=63
225000 On ch=4 n=a4 v=0
225002 On ch=4 n=f#4 v=63
225120 On ch=4 n=f#4 v=0
225122 On ch=4 n=d#4 v=63
225600 On ch=4 n=d#4 v=0
228484 On ch=4 n=d#4 v=63
228960 On ch=4 n=d#4 v=0
229204 On ch=4 n=b4 v=63
229440 On ch=4 n=b4 v=0
229684 On ch=4 n=a4 v=63
229920 On ch=4 n=a4 v=0
230164 On ch=4 n=g4 v=63
230400 On ch=4 n=g4 v=0
230644 On ch=4 n=f#4 v=63
230880 On ch=4 n=f#4 v=0
230882 On ch=4 n=g4 v=63
231360 On ch=4 n=g4 v=0
240484 On ch=4 n=b4 v=63
240600 On ch=4 n=b4 v=0
240724 On ch=4 n=b4 v=63
240840 On ch=4 n=b4 v=0
240964 On ch=4 n=b4 v=63
241080 On ch=4 n=b4 v=0
241204 On ch=4 n=b4 v=63
241320 On ch=4 n=b4 v=0
241444 On ch=4 n=b4 v=63
241560 On ch=4 n=b4 v=0
241684 On ch=4 n=b4 v=63
241800 On ch=4 n=b4 v=0
241924 On ch=4 n=b4 v=63
242040 On ch=4 n=b4 v=0
242164 On ch=4 n=b4 v=63
242280 On ch=4 n=b4 v=0
242404 On ch=4 n=c5 v=63
242880 On ch=4 n=c5 v=0
242882 On ch=4 n=b4 v=63
243120 On ch=4 n=b4 v=0
248164 On ch=4 n=b4 v=50
248280 On ch=4 n=b4 v=0
248404 On ch=4 n=b4 v=50
248520 On ch=4 n=b4 v=0
248644 On ch=4 n=b4 v=50
248760 On ch=4 n=b4 v=0
248884 On ch=4 n=b4 v=50
249000 On ch=4 n=b4 v=0
249124 On ch=4 n=b4 v=50
249240 On ch=4 n=b4 v=0
249364 On ch=4 n=b4 v=50
249480 On ch=4 n=b4 v=0
249604 On ch=4 n=b4 v=50
249720 On ch=4 n=b4 v=0
249844 On ch=4 n=b4 v=50
249960 On ch=4 n=b4 v=0
250084 On ch=4 n=c5 v=50
250560 On ch=4 n=c5 v=0
250562 On ch=4 n=b4 v=50
250800 On ch=4 n=b4 v=0
259684 On ch=4 n=b4 v=63
259800 On ch=4 n=b4 v=0
259924 On ch=4 n=b4 v=63
260040 On ch=4 n=b4 v=0
260164 On ch=4 n=b4 v=63
260280 On ch=4 n=b4 v=0
260404 On ch=4 n=b4 v=63
260520 On ch=4 n=b4 v=0
260644 On ch=4 n=b4 v=63
260760 On ch=4 n=b4 v=0
260884 On ch=4 n=b4 v=63
261000 On ch=4 n=b4 v=0
261124 On ch=4 n=b4 v=63
261240 On ch=4 n=b4 v=0
261364 On ch=4 n=b4 v=63
261480 On ch=4 n=b4 v=0
261604 On ch=4 n=c5 v=63
262080 On ch=4 n=c5 v=0
262082 On ch=4 n=b4 v=63
262320 On ch=4 n=b4 v=0
265204 On ch=4 n=c#5 v=63
265440 On ch=4 n=c#5 v=0
265442 On ch=4 n=d5 v=63
266400 On ch=4 n=d5 v=0
266402 On ch=4 n=d4 v=63
266880 On ch=4 n=d4 v=0
267364 On ch=4 n=b4 v=50
267480 On ch=4 n=b4 v=0
267604 On ch=4 n=b4 v=50
267720 On ch=4 n=b4 v=0
267844 On ch=4 n=b4 v=50
267960 On ch=4 n=b4 v=0
268084 On ch=4 n=b4 v=50
268200 On ch=4 n=b4 v=0
268324 On ch=4 n=b4 v=50
268440 On ch=4 n=b4 v=0
268564 On ch=4 n=b4 v=50
268680 On ch=4 n=b4 v=0
268804 On ch=4 n=b4 v=50
268920 On ch=4 n=b4 v=0
269044 On ch=4 n=b4 v=50
269160 On ch=4 n=b4 v=0
269284 On ch=4 n=c5 v=50
269760 On ch=4 n=c5 v=0
269762 On ch=4 n=b4 v=47
270000 On ch=4 n=b4 v=0
272164 On ch=4 n=a4 v=31
272280 On ch=4 n=a4 v=0
272404 On ch=4 n=a4 v=31
272520 On ch=4 n=a4 v=0
272644 On ch=4 n=a4 v=29
272760 On ch=4 n=a4 v=0
272884 On ch=4 n=a4 v=29
273000 On ch=4 n=a4 v=0
278884 On ch=4 n=a#4 v=63
279000 On ch=4 n=a#4 v=0
279002 On ch=4 n=f5 v=63
279120 On ch=4 n=f5 v=0
279122 On ch=4 n=d5 v=63
279240 On ch=4 n=d5 v=0
279242 On ch=4 n=f5 v=63
279360 On ch=4 n=f5 v=0
279362 On ch=4 n=a#4 v=63
279480 On ch=4 n=a#4 v=0
279482 On ch=4 n=f5 v=63
279600 On ch=4 n=f5 v=0
279602 On ch=4 n=d5 v=63
279720 On ch=4 n=d5 v=0
279722 On ch=4 n=f5 v=63
279840 On ch=4 n=f5 v=0
279842 On ch=4 n=c5 v=63
279960 On ch=4 n=c5 v=0
279962 On ch=4 n=f5 v=63
280080 On ch=4 n=f5 v=0
280082 On ch=4 n=d#5 v=63
280200 On ch=4 n=d#5 v=0
280202 On ch=4 n=f5 v=63
280320 On ch=4 n=f5 v=0
280322 On ch=4 n=c5 v=63
280440 On ch=4 n=c5 v=0
280442 On ch=4 n=f5 v=63
280560 On ch=4 n=f5 v=0
280562 On ch=4 n=d#5 v=63
280680 On ch=4 n=d#5 v=0
280682 On ch=4 n=f5 v=63
280800 On ch=4 n=f5 v=0
280802 On ch=4 n=a#4 v=63
280920 On ch=4 n=a#4 v=0
280922 On ch=4 n=f5 v=63
281040 On ch=4 n=f5 v=0
281042 On ch=4 n=d5 v=63
281160 On ch=4 n=d5 v=0
281162 On ch=4 n=f5 v=63
281280 On ch=4 n=f5 v=0
281282 On ch=4 n=a#4 v=63
281400 On ch=4 n=a#4 v=0
281402 On ch=4 n=f5 v=63
281520 On ch=4 n=f5 v=0
281522 On ch=4 n=d5 v=63
281640 On ch=4 n=d5 v=0
281642 On ch=4 n=f5 v=63
281760 On ch=4 n=f5 v=0
281762 On ch=4 n=a4 v=63
281880 On ch=4 n=a4 v=0
281882 On ch=4 n=d5 v=63
282000 On ch=4 n=d5 v=0
282002 On ch=4 n=c5 v=63
282120 On ch=4 n=c5 v=0
282122 On ch=4 n=d5 v=63
282240 On ch=4 n=d5 v=0
282242 On ch=4 n=a4 v=63
282360 On ch=4 n=a4 v=0
282362 On ch=4 n=d5 v=63
282480 On ch=4 n=d5 v=0
282482 On ch=4 n=c5 v=63
282600 On ch=4 n=c5 v=0
282602 On ch=4 n=d5 v=63
282720 On ch=4 n=d5 v=0
282722 On ch=4 n=g4 v=63
282840 On ch=4 n=g4 v=0
282842 On ch=4 n=d5 v=63
282960 On ch=4 n=d5 v=0
282962 On ch=4 n=a#4 v=63
283080 On ch=4 n=a#4 v=0
283082 On ch=4 n=d5 v=63
283200 On ch=4 n=d5 v=0
283202 On ch=4 n=g4 v=63
283320 On ch=4 n=g4 v=0
283322 On ch=4 n=d5 v=63
283440 On ch=4 n=d5 v=0
283442 On ch=4 n=a#4 v=63
283560 On ch=4 n=a#4 v=0
283562 On ch=4 n=d5 v=63
283680 On ch=4 n=d5 v=0
283682 On ch=4 n=d#4 v=63
283800 On ch=4 n=d#4 v=0
283802 On ch=4 n=g4 v=63
283920 On ch=4 n=g4 v=0
283922 On ch=4 n=f#4 v=50
284040 On ch=4 n=f#4 v=0
284042 On ch=4 n=g4 v=50
284160 On ch=4 n=g4 v=0
284162 On ch=4 n=d#4 v=50
284280 On ch=4 n=d#4 v=0
284282 On ch=4 n=g4 v=50
284400 On ch=4 n=g4 v=0
284402 On ch=4 n=f#4 v=31
284520 On ch=4 n=f#4 v=0
284522 On ch=4 n=g4 v=31
284640 On ch=4 n=g4 v=0
284642 On ch=4 n=d4 v=31
285120 On ch=4 n=d4 v=0
285604 On ch=4 n=d3 v=31
285720 On ch=4 n=d3 v=0
285722 On ch=4 n=d4 v=31
285840 On ch=4 n=d4 v=0
285842 On ch=4 n=c3 v=31
285960 On ch=4 n=c3 v=0
285962 On ch=4 n=c4 v=31
286080 On ch=4 n=c4 v=0
286082 On ch=4 n=b2 v=47
286200 On ch=4 n=b2 v=0
286202 On ch=4 n=b3 v=47
286320 On ch=4 n=b3 v=0
286322 On ch=4 n=a2 v=47
286440 On ch=4 n=a2 v=0
286442 On ch=4 n=a3 v=47
286560 On ch=4 n=a3 v=0
286562 On ch=4 n=g2 v=47
287040 On ch=4 n=g2 v=0
287042 On ch=4 n=b4 v=47
287160 On ch=4 n=b4 v=0
287284 On ch=4 n=b4 v=50
287400 On ch=4 n=b4 v=0
287524 On ch=4 n=b4 v=50
287640 On ch=4 n=b4 v=0
287764 On ch=4 n=b4 v=50
287880 On ch=4 n=b4 v=0
288004 On ch=4 n=b4 v=50
288120 On ch=4 n=b4 v=0
288244 On ch=4 n=b4 v=50
288360 On ch=4 n=b4 v=0
288484 On ch=4 n=c5 v=50
288960 On ch=4 n=c5 v=0
288962 On ch=4 n=b4 v=50
289200 On ch=4 n=b4 v=0
304684 On ch=4 n=b4 v=63
304800 On ch=4 n=b4 v=0
304802 On ch=4 n=g4 v=63
304920 On ch=4 n=g4 v=0
304920 Meta TrkEnd
TrkEnd
MTrk
0 SeqSpec 43 00 01 00
0 Meta TrkName "1.Allegretto innocente"
0 Meta 0x21 00
0 PrCh ch=5 p=0
0 Par ch=5 c=7 v=127
0 PrCh ch=5 p=0
1202 On ch=5 n=g4 v=47
1438 On ch=5 n=g4 v=0
1440 On ch=5 n=g4 v=47
1918 On ch=5 n=g4 v=0
1920 On ch=5 n=g4 v=47
2158 On ch=5 n=g4 v=0
2160 On ch=5 n=g4 v=47
2638 On ch=5 n=g4 v=0
2640 On ch=5 n=g4 v=47
2878 On ch=5 n=g4 v=0
2880 On ch=5 n=g4 v=47
2998 On ch=5 n=g4 v=0
3122 On ch=5 n=g4 v=47
3238 On ch=5 n=g4 v=0
3362 On ch=5 n=g4 v=47
3478 On ch=5 n=g4 v=0
3602 On ch=5 n=g4 v=47
4078 On ch=5 n=g4 v=0
4080 On ch=5 n=f#4 v=47
4318 On ch=5 n=f#4 v=0
4320 On ch=5 n=a4 v=47
4378 On ch=5 n=a4 v=0
4380 On ch=5 n=g4 v=47
4558 On ch=5 n=g4 v=0
4560 On ch=5 n=f#4 v=63
4798 On ch=5 n=f#4 v=0
4800 On ch=5 n=g4 v=63
5038 On ch=5 n=g4 v=0
5040 On ch=5 n=a4 v=63
5518 On ch=5 n=a4 v=0
5520 On ch=5 n=g4 v=63
5758 On ch=5 n=g4 v=0
8642 On ch=5 n=g4 v=63
10078 On ch=5 n=g4 v=0
10322 On ch=5 n=g4 v=63
10558 On ch=5 n=g4 v=0
10560 On ch=5 n=f#4 v=63
10798 On ch=5 n=f#4 v=0
10800 On ch=5 n=e4 v=63
11278 On ch=5 n=e4 v=0
11280 On ch=5 n=a4 v=63
11518 On ch=5 n=a4 v=0
12722 On ch=5 n=b4 v=63
12958 On ch=5 n=b4 v=0
12960 On ch=5 n=b4 v=63
13438 On ch=5 n=b4 v=0
13440 On ch=5 n=c5 v=63
13678 On ch=5 n=c5 v=0
13680 On ch=5 n=b4 v=63
13918 On ch=5 n=b4 v=0
13920 On ch=5 n=a4 v=63
14158 On ch=5 n=a4 v=0
14160 On ch=5 n=g4 v=63
14398 On ch=5 n=g4 v=0
14400 On ch=5 n=f#4 v=63
14518 On ch=5 n=f#4 v=0
14642 On ch=5 n=f#4 v=63
14758 On ch=5 n=f#4 v=0
14882 On ch=5 n=f#4 v=63
14998 On ch=5 n=f#4 v=0
15122 On ch=5 n=f#4 v=63
15838 On ch=5 n=f#4 v=0
15840 On ch=5 n=g4 v=63
16078 On ch=5 n=g4 v=0
16080 On ch=5 n=f#4 v=63
16318 On ch=5 n=f#4 v=0
16320 On ch=5 n=e4 v=63
16558 On ch=5 n=e4 v=0
16560 On ch=5 n=a4 v=63
17278 On ch=5 n=a4 v=0
17522 On ch=5 n=d4 v=31
17758 On ch=5 n=d4 v=0
17760 On ch=5 n=e4 v=31
17998 On ch=5 n=e4 v=0
18242 On ch=5 n=f#4 v=31
18478 On ch=5 n=f#4 v=0
18480 On ch=5 n=g4 v=31
18718 On ch=5 n=g4 v=0
18962 On ch=5 n=a4 v=31
19198 On ch=5 n=a4 v=0
19200 On ch=5 n=g4 v=31
19438 On ch=5 n=g4 v=0
19682 On ch=5 n=f#4 v=31
19918 On ch=5 n=f#4 v=0
19920 On ch=5 n=e4 v=31
20158 On ch=5 n=e4 v=0
20160 On ch=5 n=d4 v=31
20398 On ch=5 n=d4 v=0
24482 On ch=5 n=g4 v=31
24958 On ch=5 n=g4 v=0
24960 On ch=5 n=g4 v=31
25198 On ch=5 n=g4 v=0
25200 On ch=5 n=g4 v=31
25678 On ch=5 n=g4 v=0
25680 On ch=5 n=g4 v=31
25918 On ch=5 n=g4 v=0
25920 On ch=5 n=g4 v=31
26038 On ch=5 n=g4 v=0
26162 On ch=5 n=g4 v=31
26278 On ch=5 n=g4 v=0
26402 On ch=5 n=g4 v=31
26518 On ch=5 n=g4 v=0
26642 On ch=5 n=g4 v=31
27118 On ch=5 n=g4 v=0
27120 On ch=5 n=f#4 v=31
27358 On ch=5 n=f#4 v=0
27360 On ch=5 n=a4 v=31
27418 On ch=5 n=a4 v=0
27420 On ch=5 n=g4 v=47
27598 On ch=5 n=g4 v=0
27600 On ch=5 n=f#4 v=47
27838 On ch=5 n=f#4 v=0
27840 On ch=5 n=g4 v=47
28078 On ch=5 n=g4 v=0
28080 On ch=5 n=a4 v=47
28558 On ch=5 n=a4 v=0
28560 On ch=5 n=g4 v=47
28798 On ch=5 n=g4 v=0
33122 On ch=5 n=c4 v=47
33838 On ch=5 n=c4 v=0
33840 On ch=5 n=d4 v=47
34558 On ch=5 n=d4 v=0
36242 On ch=5 n=g4 v=47
36358 On ch=5 n=g4 v=0
36962 On ch=5 n=g4 v=47
37078 On ch=5 n=g4 v=0
37682 On ch=5 n=g4 v=47
37798 On ch=5 n=g4 v=0
38402 On ch=5 n=g4 v=47
38518 On ch=5 n=g4 v=0
40082 On ch=5 n=a#4 v=63
40318 On ch=5 n=a#4 v=0
40320 On ch=5 n=a4 v=63
41038 On ch=5 n=a4 v=0
41040 On ch=5 n=g#4 v=63
41758 On ch=5 n=g#4 v=0
41760 On ch=5 n=a4 v=31
42478 On ch=5 n=a4 v=0
42480 On ch=5 n=a4 v=31
43198 On ch=5 n=a4 v=0
44882 On ch=5 n=a#4 v=31
44998 On ch=5 n=a#4 v=0
45602 On ch=5 n=a4 v=31
45718 On ch=5 n=a4 v=0
46322 On ch=5 n=g4 v=31
46438 On ch=5 n=g4 v=0
47282 On ch=5 n=a#4 v=63
47518 On ch=5 n=a#4 v=0
47520 On ch=5 n=c5 v=63
47998 On ch=5 n=c5 v=0
48000 On ch=5 n=a#4 v=63
48238 On ch=5 n=a#4 v=0
48240 On ch=5 n=c5 v=63
48718 On ch=5 n=c5 v=0
48720 On ch=5 n=a#4 v=63
48838 On ch=5 n=a#4 v=0
48962 On ch=5 n=d#5 v=81
49678 On ch=5 n=d#5 v=0
49680 On ch=5 n=g4 v=63
50398 On ch=5 n=g4 v=0
50400 On ch=5 n=c5 v=47
51118 On ch=5 n=c5 v=0
51120 On ch=5 n=d5 v=31
51838 On ch=5 n=d5 v=0
51840 On ch=5 n=g4 v=31
52798 On ch=5 n=g4 v=0
53042 On ch=5 n=b4 v=47
53278 On ch=5 n=b4 v=0
53280 On ch=5 n=g4 v=47
53758 On ch=5 n=g4 v=0
53760 On ch=5 n=c5 v=47
53998 On ch=5 n=c5 v=0
54000 On ch=5 n=c5 v=47
54478 On ch=5 n=c5 v=0
54480 On ch=5 n=c5 v=47
54718 On ch=5 n=c5 v=0
54720 On ch=5 n=b4 v=47
54838 On ch=5 n=b4 v=0
54840 On ch=5 n=a#4 v=47
54958 On ch=5 n=a#4 v=0
54960 On ch=5 n=b4 v=47
55078 On ch=5 n=b4 v=0
55080 On ch=5 n=a#4 v=47
55198 On ch=5 n=a#4 v=0
55200 On ch=5 n=b4 v=47
55318 On ch=5 n=b4 v=0
55320 On ch=5 n=a#4 v=47
55438 On ch=5 n=a#4 v=0
55440 On ch=5 n=b4 v=47
55918 On ch=5 n=b4 v=0
55920 On ch=5 n=d5 v=47
56158 On ch=5 n=d5 v=0
56160 On ch=5 n=d5 v=47
56878 On ch=5 n=d5 v=0
56880 On ch=5 n=d5 v=47
57598 On ch=5 n=d5 v=0
68402 On ch=5 n=a4 v=42
68878 On ch=5 n=a4 v=0
69242 On ch=5 n=d4 v=31
69358 On ch=5 n=d4 v=0
69360 On ch=5 n=f#4 v=31
69478 On ch=5 n=f#4 v=0
69480 On ch=5 n=d4 v=31
69598 On ch=5 n=d4 v=0
69600 On ch=5 n=e4 v=31
69718 On ch=5 n=e4 v=0
69720 On ch=5 n=g4 v=31
69838 On ch=5 n=g4 v=0
69962 On ch=5 n=f#4 v=31
70078 On ch=5 n=f#4 v=0
70080 On ch=5 n=a4 v=31
70198 On ch=5 n=a4 v=0
70200 On ch=5 n=f#4 v=31
70318 On ch=5 n=f#4 v=0
70320 On ch=5 n=g4 v=31
70438 On ch=5 n=g4 v=0
70440 On ch=5 n=b4 v=31
70558 On ch=5 n=b4 v=0
70682 On ch=5 n=a4 v=31
70798 On ch=5 n=a4 v=0
70800 On ch=5 n=c5 v=31
70918 On ch=5 n=c5 v=0
70920 On ch=5 n=a4 v=31
71038 On ch=5 n=a4 v=0
71040 On ch=5 n=b4 v=31
71158 On ch=5 n=b4 v=0
71160 On ch=5 n=g4 v=31
71278 On ch=5 n=g4 v=0
71402 On ch=5 n=f#4 v=31
71518 On ch=5 n=f#4 v=0
71520 On ch=5 n=a4 v=31
71638 On ch=5 n=a4 v=0
71640 On ch=5 n=f#4 v=31
71758 On ch=5 n=f#4 v=0
71760 On ch=5 n=g4 v=31
71878 On ch=5 n=g4 v=0
71880 On ch=5 n=e4 v=31
71998 On ch=5 n=e4 v=0
72000 On ch=5 n=d4 v=31
72238 On ch=5 n=d4 v=0
72482 On ch=5 n=d4 v=38
72718 On ch=5 n=d4 v=0
72720 On ch=5 n=d4 v=38
72958 On ch=5 n=d4 v=0
73202 On ch=5 n=d3 v=63
73438 On ch=5 n=d3 v=0
73440 On ch=5 n=d3 v=63
74878 On ch=5 n=d3 v=0
75002 On ch=5 n=c4 v=63
75118 On ch=5 n=c4 v=0
75120 On ch=5 n=a4 v=63
75238 On ch=5 n=a4 v=0
75240 On ch=5 n=f#4 v=63
75358 On ch=5 n=f#4 v=0
75360 On ch=5 n=c5 v=63
75478 On ch=5 n=c5 v=0
75480 On ch=5 n=a4 v=63
75598 On ch=5 n=a4 v=0
75600 On ch=5 n=f#5 v=63
76318 On ch=5 n=f#5 v=0
76320 On ch=5 n=b4 v=31
76798 On ch=5 n=b4 v=0
76800 On ch=5 n=c5 v=37
77038 On ch=5 n=c5 v=0
77040 On ch=5 n=c5 v=37
77518 On ch=5 n=c5 v=0
77520 On ch=5 n=c5 v=31
77758 On ch=5 n=c5 v=0
77760 On ch=5 n=b4 v=31
77878 On ch=5 n=b4 v=0
77880 On ch=5 n=a#4 v=31
77998 On ch=5 n=a#4 v=0
78000 On ch=5 n=b4 v=31
78118 On ch=5 n=b4 v=0
78120 On ch=5 n=a#4 v=31
78238 On ch=5 n=a#4 v=0
78240 On ch=5 n=b4 v=31
78358 On ch=5 n=b4 v=0
78360 On ch=5 n=a#4 v=31
78478 On ch=5 n=a#4 v=0
78480 On ch=5 n=b4 v=31
78958 On ch=5 n=b4 v=0
78960 On ch=5 n=d5 v=31
79198 On ch=5 n=d5 v=0
79200 On ch=5 n=d5 v=31
79918 On ch=5 n=d5 v=0
79920 On ch=5 n=d5 v=47
80638 On ch=5 n=d5 v=0
88082 On ch=5 n=a#4 v=31
88198 On ch=5 n=a#4 v=0
88802 On ch=5 n=c5 v=31
88918 On ch=5 n=c5 v=0
89522 On ch=5 n=c5 v=31
89638 On ch=5 n=c5 v=0
90242 On ch=5 n=a#4 v=31
90358 On ch=5 n=a#4 v=0
91442 On ch=5 n=c#6 v=71
92158 On ch=5 n=c#6 v=0
95522 On ch=5 n=d4 v=31
95638 On ch=5 n=d4 v=0
95762 On ch=5 n=d4 v=31
95878 On ch=5 n=d4 v=0
96722 On ch=5 n=a#4 v=31
96838 On ch=5 n=a#4 v=0
97442 On ch=5 n=a4 v=31
97558 On ch=5 n=a4 v=0
98162 On ch=5 n=g4 v=31
98278 On ch=5 n=g4 v=0
98882 On ch=5 n=d4 v=31
98998 On ch=5 n=d4 v=0
99122 On ch=5 n=a#4 v=63
99358 On ch=5 n=a#4 v=0
99360 On ch=5 n=c5 v=63
99838 On ch=5 n=c5 v=0
99840 On ch=5 n=a#4 v=63
100078 On ch=5 n=a#4 v=0
100080 On ch=5 n=c5 v=63
100558 On ch=5 n=c5 v=0
100560 On ch=5 n=a#4 v=63
100798 On ch=5 n=a#4 v=0
100800 On ch=5 n=f#4 v=63
101518 On ch=5 n=f#4 v=0
101520 On ch=5 n=g4 v=63
101758 On ch=5 n=g4 v=0
101760 On ch=5 n=a4 v=63
101998 On ch=5 n=a4 v=0
102000 On ch=5 n=a#4 v=63
102238 On ch=5 n=a#4 v=0
102240 On ch=5 n=c5 v=63
102958 On ch=5 n=c5 v=0
102960 On ch=5 n=d4 v=40
103678 On ch=5 n=d4 v=0
104162 On ch=5 n=g3 v=29
104278 On ch=5 n=g3 v=0
104402 On ch=5 n=g3 v=29
104518 On ch=5 n=g3 v=0
104882 On ch=5 n=g4 v=47
105118 On ch=5 n=g4 v=0
105120 On ch=5 n=g4 v=47
105598 On ch=5 n=g4 v=0
105600 On ch=5 n=g4 v=47
105838 On ch=5 n=g4 v=0
105840 On ch=5 n=g4 v=47
106318 On ch=5 n=g4 v=0
106320 On ch=5 n=g4 v=47
106558 On ch=5 n=g4 v=0
106560 On ch=5 n=g4 v=47
107038 On ch=5 n=g4 v=0
107040 On ch=5 n=g4 v=47
107278 On ch=5 n=g4 v=0
107280 On ch=5 n=g4 v=47
107758 On ch=5 n=g4 v=0
107760 On ch=5 n=f#4 v=47
107998 On ch=5 n=f#4 v=0
108000 On ch=5 n=g4 v=63
108118 On ch=5 n=g4 v=0
108120 On ch=5 n=g#4 v=63
108238 On ch=5 n=g#4 v=0
108240 On ch=5 n=a4 v=63
108358 On ch=5 n=a4 v=0
108360 On ch=5 n=a#4 v=63
108478 On ch=5 n=a#4 v=0
108480 On ch=5 n=b4 v=63
108718 On ch=5 n=b4 v=0
108720 On ch=5 n=a4 v=63
109198 On ch=5 n=a4 v=0
109200 On ch=5 n=g4 v=63
109438 On ch=5 n=g4 v=0
109440 On ch=5 n=d4 v=63
109798 On ch=5 n=d4 v=0
109800 On ch=5 n=e4 v=58
109858 On ch=5 n=e4 v=0
109860 On ch=5 n=f#4 v=53
109918 On ch=5 n=f#4 v=0
109920 On ch=5 n=g4 v=49
109978 On ch=5 n=g4 v=0
109980 On ch=5 n=a4 v=45
110038 On ch=5 n=a4 v=0
110040 On ch=5 n=b4 v=41
110098 On ch=5 n=b4 v=0
110100 On ch=5 n=c#5 v=37
110158 On ch=5 n=c#5 v=0
110160 On ch=5 n=d5 v=36
110398 On ch=5 n=d5 v=0
110400 On ch=5 n=c5 v=41
110638 On ch=5 n=c5 v=0
110640 On ch=5 n=b4 v=47
110878 On ch=5 n=b4 v=0
110880 On ch=5 n=a4 v=50
111358 On ch=5 n=a4 v=0
111360 On ch=5 n=g4 v=63
111598 On ch=5 n=g4 v=0
111600 On ch=5 n=f#4 v=83
112318 On ch=5 n=f#4 v=0
112320 On ch=5 n=g4 v=83
114958 On ch=5 n=g4 v=0
114960 On ch=5 n=a4 v=83
115198 On ch=5 n=a4 v=0
115200 On ch=5 n=d5 v=63
116158 On ch=5 n=d5 v=0
121202 On ch=5 n=d4 v=83
121438 On ch=5 n=d4 v=0
121440 On ch=5 n=e4 v=83
121678 On ch=5 n=e4 v=0
121922 On ch=5 n=f#4 v=83
122158 On ch=5 n=f#4 v=0
122160 On ch=5 n=g4 v=83
122398 On ch=5 n=g4 v=0
122642 On ch=5 n=a4 v=83
122878 On ch=5 n=a4 v=0
122880 On ch=5 n=g4 v=83
123118 On ch=5 n=g4 v=0
123362 On ch=5 n=f#4 v=61
123598 On ch=5 n=f#4 v=0
123600 On ch=5 n=e4 v=61
123838 On ch=5 n=e4 v=0
123840 On ch=5 n=d4 v=50
124078 On ch=5 n=d4 v=0
132242 On ch=5 n=b4 v=47
132478 On ch=5 n=b4 v=0
132480 On ch=5 n=b4 v=47
132958 On ch=5 n=b4 v=0
132960 On ch=5 n=c5 v=47
133198 On ch=5 n=c5 v=0
133200 On ch=5 n=c5 v=47
133678 On ch=5 n=c5 v=0
133680 On ch=5 n=c5 v=47
133918 On ch=5 n=c5 v=0
133920 On ch=5 n=b4 v=47
134038 On ch=5 n=b4 v=0
134162 On ch=5 n=b4 v=47
134278 On ch=5 n=b4 v=0
134402 On ch=5 n=b4 v=47
134518 On ch=5 n=b4 v=0
134642 On ch=5 n=b4 v=47
135118 On ch=5 n=b4 v=0
135120 On ch=5 n=d4 v=63
135358 On ch=5 n=d4 v=0
135360 On ch=5 n=g4 v=63
135598 On ch=5 n=g4 v=0
135842 On ch=5 n=g4 v=63
136078 On ch=5 n=g4 v=0
136080 On ch=5 n=a4 v=63
136558 On ch=5 n=a4 v=0
136560 On ch=5 n=g4 v=63
136798 On ch=5 n=g4 v=0
138242 On ch=5 n=d4 v=63
139198 On ch=5 n=d4 v=0
139200 On ch=5 n=e5 v=63
139678 On ch=5 n=e5 v=0
139680 On ch=5 n=c5 v=47
139918 On ch=5 n=c5 v=0
139920 On ch=5 n=b4 v=47
140158 On ch=5 n=b4 v=0
140160 On ch=5 n=a4 v=36
140278 On ch=5 n=a4 v=0
140402 On ch=5 n=a4 v=36
140638 On ch=5 n=a4 v=0
140882 On ch=5 n=d5 v=63
141118 On ch=5 n=d5 v=0
141120 On ch=5 n=b4 v=47
141358 On ch=5 n=b4 v=0
141360 On ch=5 n=a4 v=47
141598 On ch=5 n=a4 v=0
141600 On ch=5 n=g4 v=31
141718 On ch=5 n=g4 v=0
141842 On ch=5 n=g4 v=31
142078 On ch=5 n=g4 v=0
142322 On ch=5 n=e4 v=31
142558 On ch=5 n=e4 v=0
142560 On ch=5 n=c4 v=31
142798 On ch=5 n=c4 v=0
143282 On ch=5 n=d4 v=28
143518 On ch=5 n=d4 v=0
144002 On ch=5 n=g4 v=28
144118 On ch=5 n=g4 v=0
144242 On ch=5 n=d4 v=28
144358 On ch=5 n=d4 v=0
144482 On ch=5 n=b3 v=28
144598 On ch=5 n=b3 v=0
144722 On ch=5 n=g4 v=63
144958 On ch=5 n=g4 v=0
148322 On ch=5 n=g4 v=55
148440 On ch=5 n=g4 v=0
148564 On ch=5 n=g4 v=55
148680 On ch=5 n=g4 v=0
148804 On ch=5 n=g4 v=55
148920 On ch=5 n=g4 v=0
149044 On ch=5 n=g4 v=55
149160 On ch=5 n=g4 v=0
149284 On ch=5 n=g4 v=55
149400 On ch=5 n=g4 v=0
149524 On ch=5 n=g4 v=55
149640 On ch=5 n=g4 v=0
149764 On ch=5 n=g4 v=55
149880 On ch=5 n=g4 v=0
150004 On ch=5 n=g4 v=55
150120 On ch=5 n=g4 v=0
150244 On ch=5 n=g4 v=55
150720 On ch=5 n=g4 v=0
150722 On ch=5 n=g4 v=39
150960 On ch=5 n=g4 v=0
156004 On ch=5 n=g4 v=55
156120 On ch=5 n=g4 v=0
156244 On ch=5 n=g4 v=55
156360 On ch=5 n=g4 v=0
156484 On ch=5 n=g4 v=55
156600 On ch=5 n=g4 v=0
156724 On ch=5 n=g4 v=55
156840 On ch=5 n=g4 v=0
156964 On ch=5 n=g4 v=55
157080 On ch=5 n=g4 v=0
157204 On ch=5 n=g4 v=55
157320 On ch=5 n=g4 v=0
157444 On ch=5 n=g4 v=55
157560 On ch=5 n=g4 v=0
157684 On ch=5 n=g4 v=55
157800 On ch=5 n=g4 v=0
157924 On ch=5 n=g4 v=55
158400 On ch=5 n=g4 v=0
158402 On ch=5 n=g4 v=39
158640 On ch=5 n=g4 v=0
166564 On ch=5 n=d3 v=63
166800 On ch=5 n=d3 v=0
167524 On ch=5 n=b4 v=63
168000 On ch=5 n=b4 v=0
168244 On ch=5 n=b4 v=63
168480 On ch=5 n=b4 v=0
168482 On ch=5 n=c5 v=63
168960 On ch=5 n=c5 v=0
169204 On ch=5 n=c5 v=63
169440 On ch=5 n=c5 v=0
169442 On ch=5 n=d5 v=63
169920 On ch=5 n=d5 v=0
170164 On ch=5 n=a#4 v=63
170400 On ch=5 n=a#4 v=0
170402 On ch=5 n=a4 v=63
170880 On ch=5 n=a4 v=0
171124 On ch=5 n=a4 v=63
171360 On ch=5 n=a4 v=0
171362 On ch=5 n=a#4 v=63
171840 On ch=5 n=a#4 v=0
172084 On ch=5 n=g4 v=63
172320 On ch=5 n=g4 v=0
172322 On ch=5 n=d#4 v=63
172800 On ch=5 n=d#4 v=0
173044 On ch=5 n=d#4 v=63
173280 On ch=5 n=d#4 v=0
173282 On ch=5 n=d4 v=63
173640 On ch=5 n=d4 v=0
173642 On ch=5 n=f#3 v=63
173700 On ch=5 n=f#3 v=0
173702 On ch=5 n=g3 v=63
173760 On ch=5 n=g3 v=0
173762 On ch=5 n=a3 v=63
173880 On ch=5 n=a3 v=0
174004 On ch=5 n=f#3 v=63
174120 On ch=5 n=f#3 v=0
174244 On ch=5 n=d3 v=63
174720 On ch=5 n=d3 v=0
175204 On ch=5 n=g4 v=47
175320 On ch=5 n=g4 v=0
175444 On ch=5 n=g4 v=47
175560 On ch=5 n=g4 v=0
175684 On ch=5 n=g4 v=47
175800 On ch=5 n=g4 v=0
175924 On ch=5 n=g4 v=47
176040 On ch=5 n=g4 v=0
176164 On ch=5 n=g4 v=47
176280 On ch=5 n=g4 v=0
176404 On ch=5 n=g4 v=47
176520 On ch=5 n=g4 v=0
176644 On ch=5 n=g4 v=47
176760 On ch=5 n=g4 v=0
176884 On ch=5 n=g4 v=47
177000 On ch=5 n=g4 v=0
177124 On ch=5 n=g4 v=47
177600 On ch=5 n=g4 v=0
177602 On ch=5 n=g4 v=31
177840 On ch=5 n=g4 v=0
188644 On ch=5 n=g4 v=51
188760 On ch=5 n=g4 v=0
188884 On ch=5 n=g4 v=51
189000 On ch=5 n=g4 v=0
189124 On ch=5 n=g4 v=51
189240 On ch=5 n=g4 v=0
189364 On ch=5 n=g4 v=51
189480 On ch=5 n=g4 v=0
189604 On ch=5 n=g4 v=51
189720 On ch=5 n=g4 v=0
189844 On ch=5 n=g4 v=51
189960 On ch=5 n=g4 v=0
190084 On ch=5 n=g4 v=51
190200 On ch=5 n=g4 v=0
190324 On ch=5 n=g4 v=51
190440 On ch=5 n=g4 v=0
190564 On ch=5 n=g4 v=39
190680 On ch=5 n=g4 v=0
190804 On ch=5 n=g4 v=39
190920 On ch=5 n=g4 v=0
191044 On ch=5 n=g4 v=50
191160 On ch=5 n=g4 v=0
191284 On ch=5 n=g4 v=48
191400 On ch=5 n=g4 v=0
191524 On ch=5 n=g4 v=39
191640 On ch=5 n=g4 v=0
191764 On ch=5 n=g4 v=39
191880 On ch=5 n=g4 v=0
192004 On ch=5 n=g4 v=50
192120 On ch=5 n=g4 v=0
192244 On ch=5 n=g4 v=50
192360 On ch=5 n=g4 v=0
192484 On ch=5 n=b3 v=50
192960 On ch=5 n=b3 v=0
193444 On ch=5 n=g2 v=63
193680 On ch=5 n=g2 v=0
194404 On ch=5 n=e3 v=63
194880 On ch=5 n=e3 v=0
201844 On ch=5 n=d#3 v=31
TrkEnd
