MFile 1 2 480
MTrk
0 Tempo 500000
0 TimeSig 3/4 24 8
0 Meta TrkEnd
TrkEnd
MTrk
0 SeqSpec 43 00 01 00
0 Meta TrkName "<Master Volume>"
0 Meta 0x21 00
0 SysEx f0 41 10 42 12 40 00 7f 00 41 f7
0 SysEx f0 41 10 42 12 40 00 04 64 58 f7
192 Meta Text "<Master Reverve>"
192 SysEx f0 41 10 42 12 40 01 30 03 0c f7
192 SysEx f0 41 10 42 12 40 01 33 50 3c f7
192 SysEx f0 41 10 42 12 40 01 34 3c 4f f7
576 Par ch=1 c=0 v=0
580 Par ch=1 c=32 v=1
584 PrCh ch=1 p=0
780 Par ch=1 c=7 v=100
972 Par ch=1 c=11 v=80
1164 Par ch=1 c=10 v=64
1356 Par ch=1 c=1 v=0
1356 Meta Text "<part reverve>"
1356 Par ch=1 c=91 v=90
1452 Par ch=1 c=99 v=1
1456 Par ch=1 c=98 v=32
1460 Par ch=1 c=6 v=62
1464 Par ch=1 c=99 v=1
1468 Par ch=1 c=98 v=33
1472 Par ch=1 c=6 v=54
1476 Par ch=1 c=99 v=1
1480 Par ch=1 c=98 v=99
1484 Par ch=1 c=6 v=62
1488 Par ch=1 c=99 v=1
1492 Par ch=1 c=98 v=100
1496 Par ch=1 c=6 v=60
1500 Par ch=1 c=99 v=1
1504 Par ch=1 c=98 v=102
1508 Par ch=1 c=6 v=70
2506 On ch=1 n=f#6 v=97
2512 On ch=1 n=b5 v=89
2516 On ch=1 n=f6 v=97
2516 On ch=1 n=d6 v=91
2562 Par ch=1 c=64 v=63
2566 Par ch=1 c=64 v=127
2606 On ch=1 n=b5 v=0
2622 On ch=1 n=d6 v=0
2676 On ch=1 n=f6 v=0
2934 On ch=1 n=c#6 v=96
2938 On ch=1 n=a5 v=74
2960 Par ch=1 c=64 v=63
2966 Par ch=1 c=64 v=0
3000 On ch=1 n=f#6 v=0
3002 On ch=1 n=a5 v=0
3016 On ch=1 n=c#6 v=0
3342 On ch=1 n=f#6 v=96
3346 On ch=1 n=g#5 v=96
3356 On ch=1 n=b5 v=86
3356 On ch=1 n=d6 v=81
3382 Par ch=1 c=64 v=63
3384 Par ch=1 c=64 v=127
3508 On ch=1 n=b5 v=0
3610 On ch=1 n=g#5 v=0
3736 On ch=1 n=d6 v=0
3758 On ch=1 n=c#6 v=88
3768 On ch=1 n=a5 v=81
3768 On ch=1 n=f#5 v=116
3784 Par ch=1 c=64 v=63
3798 Par ch=1 c=64 v=0
3854 On ch=1 n=f#6 v=0
3940 On ch=1 n=c#6 v=0
4062 On ch=1 n=a5 v=0
4204 On ch=1 n=a6 v=108
4206 Par ch=1 c=64 v=127
4502 On ch=1 n=a6 v=0
4574 On ch=1 n=f#5 v=0
4612 On ch=1 n=a5 v=81
4612 On ch=1 n=b4 v=84
4620 On ch=1 n=d6 v=90
4766 On ch=1 n=a5 v=0
4796 On ch=1 n=g#6 v=99
4900 On ch=1 n=d6 v=0
4966 On ch=1 n=g#6 v=0
4982 Par ch=1 c=64 v=63
4986 On ch=1 n=d6 v=82
4988 On ch=1 n=f#6 v=87
4992 Par ch=1 c=64 v=0
4996 On ch=1 n=e5 v=72
5000 On ch=1 n=g#5 v=88
5002 On ch=1 n=b4 v=0
5072 Par ch=1 c=64 v=63
5098 Par ch=1 c=64 v=127
5144 On ch=1 n=d6 v=0
5146 On ch=1 n=e6 v=91
5232 On ch=1 n=f#6 v=0
5254 On ch=1 n=g#5 v=0
5304 Par ch=1 c=64 v=63
5314 Par ch=1 c=64 v=0
5364 On ch=1 n=f#6 v=93
5370 On ch=1 n=f#4 v=91
5376 On ch=1 n=a5 v=67
5380 On ch=1 n=c#6 v=84
5406 Par ch=1 c=64 v=63
5424 On ch=1 n=e6 v=0
5426 Par ch=1 c=64 v=127
5442 On ch=1 n=f#4 v=0
5450 On ch=1 n=e5 v=0
5502 On ch=1 n=a5 v=0
5532 On ch=1 n=g#6 v=100
5568 On ch=1 n=f#6 v=0
5580 On ch=1 n=c#6 v=0
5632 Par ch=1 c=64 v=63
5658 On ch=1 n=g#6 v=0
5672 Par ch=1 c=64 v=127
5738 On ch=1 n=a6 v=103
5744 On ch=1 n=b4 v=72
5752 On ch=1 n=f#5 v=94
5752 On ch=1 n=f5 v=78
5754 On ch=1 n=d5 v=66
5830 On ch=1 n=a6 v=0
5856 On ch=1 n=f5 v=0
5860 On ch=1 n=d5 v=0
5884 On ch=1 n=b4 v=0
5906 On ch=1 n=b6 v=72
5956 On ch=1 n=f#5 v=0
5994 On ch=1 n=b6 v=0
6116 On ch=1 n=f#5 v=96
6126 On ch=1 n=c#5 v=93
6128 On ch=1 n=c#7 v=105
6128 On ch=1 n=a4 v=76
6162 Par ch=1 c=64 v=63
6174 Par ch=1 c=64 v=0
6206 On ch=1 n=c#7 v=0
6248 On ch=1 n=c#5 v=0
6272 On ch=1 n=a4 v=0
6286 On ch=1 n=f#5 v=0
6544 On ch=1 n=c#7 v=106
6544 On ch=1 n=f#5 v=97
6550 On ch=1 n=b4 v=77
6552 On ch=1 n=g#4 v=87
6556 On ch=1 n=d5 v=85
6560 Par ch=1 c=64 v=63
6564 Par ch=1 c=64 v=127
6696 On ch=1 n=d5 v=0
6716 On ch=1 n=b4 v=0
6746 On ch=1 n=g#4 v=0
6978 On ch=1 n=f#4 v=86
6984 On ch=1 n=a4 v=68
6984 On ch=1 n=c#5 v=88
6996 Par ch=1 c=64 v=63
7008 Par ch=1 c=64 v=0
7070 Par ch=1 c=64 v=63
7098 Par ch=1 c=64 v=127
7128 On ch=1 n=a4 v=0
7138 On ch=1 n=f#4 v=0
7150 On ch=1 n=c#5 v=0
7154 On ch=1 n=a6 v=84
7174 On ch=1 n=c#7 v=0
7180 On ch=1 n=f#5 v=0
7366 On ch=1 n=f#6 v=90
7372 On ch=1 n=a5 v=85
7372 Par ch=1 c=64 v=63
7384 Par ch=1 c=64 v=0
7394 On ch=1 n=a6 v=0
7470 Par ch=1 c=64 v=63
7490 Par ch=1 c=64 v=127
7540 On ch=1 n=c#6 v=95
7610 On ch=1 n=f#6 v=0
7718 On ch=1 n=c#6 v=0
7782 On ch=1 n=d5 v=60
7784 On ch=1 n=b4 v=57
7786 On ch=1 n=d6 v=87
7880 On ch=1 n=a5 v=0
7882 Par ch=1 c=64 v=63
7890 Par ch=1 c=64 v=0
7926 Par ch=1 c=64 v=63
7950 Par ch=1 c=64 v=127
8018 On ch=1 n=d5 v=0
8028 On ch=1 n=g#5 v=68
8218 On ch=1 n=f#5 v=83
8260 On ch=1 n=g#5 v=0
8360 On ch=1 n=f#5 v=0
8370 On ch=1 n=e5 v=65
8566 On ch=1 n=f#5 v=96
8590 On ch=1 n=e5 v=0
8678 Par ch=1 c=64 v=63
8690 On ch=1 n=f#5 v=0
8702 Par ch=1 c=64 v=0
8766 On ch=1 n=e6 v=77
8788 On ch=1 n=d6 v=0
8892 On ch=1 n=b4 v=0
8960 On ch=1 n=g#5 v=93
8966 On ch=1 n=f#6 v=89
8974 On ch=1 n=e6 v=0
8978 Par ch=1 c=64 v=63
8980 Par ch=1 c=64 v=127
9080 On ch=1 n=g#5 v=0
9166 On ch=1 n=g#6 v=72
9218 On ch=1 n=f#6 v=0
9356 On ch=1 n=g#6 v=0
9366 On ch=1 n=d5 v=76
9368 On ch=1 n=e4 v=68
9370 On ch=1 n=b6 v=76
9418 On ch=1 n=e4 v=0
9420 On ch=1 n=d5 v=0
9530 On ch=1 n=b6 v=0
9532 On ch=1 n=g#6 v=79
9754 On ch=1 n=e6 v=76
9754 On ch=1 n=g#5 v=91
9756 On ch=1 n=g#6 v=0
9890 On ch=1 n=e6 v=0
9898 On ch=1 n=b5 v=80
10122 On ch=1 n=a4 v=47
10130 On ch=1 n=c#6 v=89
10140 Par ch=1 c=64 v=63
10142 On ch=1 n=c#5 v=67
10146 On ch=1 n=b5 v=0
10150 Par ch=1 c=64 v=0
10240 On ch=1 n=g#5 v=0
10244 Par ch=1 c=64 v=63
10264 Par ch=1 c=64 v=127
10356 On ch=1 n=f#5 v=82
10418 On ch=1 n=c#5 v=0
10542 On ch=1 n=e5 v=73
10546 On ch=1 n=f#5 v=0
10696 On ch=1 n=d5 v=77
10698 On ch=1 n=e5 v=0
10902 On ch=1 n=d5 v=0
10904 On ch=1 n=e5 v=82
10944 Par ch=1 c=64 v=63
10956 Par ch=1 c=64 v=0
11002 On ch=1 n=e5 v=0
11020 On ch=1 n=c#6 v=0
11056 On ch=1 n=d6 v=81
11260 On ch=1 n=a4 v=0
11266 On ch=1 n=f#5 v=93
11274 On ch=1 n=e6 v=88
11280 On ch=1 n=d6 v=0
11282 Par ch=1 c=64 v=63
11286 Par ch=1 c=64 v=127
11354 On ch=1 n=f#5 v=0
11454 On ch=1 n=f#6 v=84
11456 On ch=1 n=e6 v=0
11634 On ch=1 n=d4 v=72
11644 On ch=1 n=a6 v=74
11654 On ch=1 n=c#5 v=71
11664 On ch=1 n=f#6 v=0
11706 On ch=1 n=c#5 v=0
11714 On ch=1 n=d4 v=0
11816 On ch=1 n=a6 v=0
11834 On ch=1 n=f#6 v=78
12020 On ch=1 n=f#5 v=90
12034 On ch=1 n=d6 v=80
12060 On ch=1 n=f#6 v=0
12104 Par ch=1 c=64 v=63
12128 Par ch=1 c=64 v=0
12206 On ch=1 n=a5 v=80
12222 On ch=1 n=d6 v=0
12396 On ch=1 n=g#4 v=58
12408 On ch=1 n=b4 v=67
12414 On ch=1 n=b5 v=79
12422 On ch=1 n=a5 v=0
12470 Par ch=1 c=64 v=63
12478 Par ch=1 c=64 v=127
12482 On ch=1 n=f#5 v=0
12590 On ch=1 n=e5 v=76
12602 On ch=1 n=b4 v=0
12784 On ch=1 n=d5 v=66
12786 On ch=1 n=e5 v=0
12902 Par ch=1 c=64 v=63
12920 Par ch=1 c=64 v=0
12954 On ch=1 n=c#5 v=83
12968 On ch=1 n=d5 v=0
13020 Par ch=1 c=64 v=63
13022 On ch=1 n=b5 v=0
13044 Par ch=1 c=64 v=127
13152 On ch=1 n=c#5 v=0
13168 On ch=1 n=d5 v=84
13176 On ch=1 n=g#4 v=0
13246 On ch=1 n=d5 v=0
13350 On ch=1 n=g#5 v=100
13354 Par ch=1 c=64 v=63
13364 Par ch=1 c=64 v=0
13488 On ch=1 n=g#5 v=0
13524 Par ch=1 c=64 v=63
13536 Par ch=1 c=64 v=127
13540 On ch=1 n=d5 v=89
13554 On ch=1 n=d4 v=76
13554 On ch=1 n=a5 v=87
13562 On ch=1 n=c#5 v=92
13568 On ch=1 n=f#5 v=85
13580 On ch=1 n=d5 v=0
13608 On ch=1 n=d4 v=0
13646 On ch=1 n=c#5 v=0
13670 On ch=1 n=a5 v=0
13680 On ch=1 n=f#5 v=0
13720 On ch=1 n=b5 v=103
13820 Par ch=1 c=64 v=63
13824 On ch=1 n=b5 v=0
13828 Par ch=1 c=64 v=0
13908 On ch=1 n=e3 v=80
13916 On ch=1 n=e4 v=79
13930 On ch=1 n=c#6 v=110
13936 On ch=1 n=c#5 v=100
13944 Par ch=1 c=64 v=63
13946 On ch=1 n=e3 v=0
13946 On ch=1 n=g#5 v=88
13954 Par ch=1 c=64 v=127
13962 On ch=1 n=e4 v=0
13968 On ch=1 n=c#5 v=0
13996 On ch=1 n=g#5 v=0
14048 On ch=1 n=c#6 v=0
14146 On ch=1 n=b5 v=90
14304 Par ch=1 c=64 v=63
14318 Par ch=1 c=64 v=0
14324 On ch=1 n=c#6 v=94
14372 On ch=1 n=b5 v=0
14500 On ch=1 n=c#6 v=0
14508 On ch=1 n=d6 v=76
14650 On ch=1 n=d6 v=0
14690 On ch=1 n=e6 v=92
14756 Par ch=1 c=64 v=63
14762 Par ch=1 c=64 v=127
14802 On ch=1 n=e6 v=0
14868 On ch=1 n=d6 v=104
14890 On ch=1 n=c#6 v=86
14902 On ch=1 n=a5 v=69
14974 On ch=1 n=c#6 v=0
14986 On ch=1 n=a5 v=0
15010 On ch=1 n=d6 v=0
15062 On ch=1 n=e6 v=103
15072 On ch=1 n=b5 v=89
15082 On ch=1 n=g#5 v=88
15112 Par ch=1 c=64 v=63
15120 Par ch=1 c=64 v=0
15160 On ch=1 n=e6 v=0
15182 On ch=1 n=b5 v=0
15196 On ch=1 n=g#5 v=0
15236 On ch=1 n=f#6 v=107
15238 On ch=1 n=a5 v=84
15242 On ch=1 n=f#5 v=86
15246 On ch=1 n=c#6 v=99
15348 On ch=1 n=c#6 v=0
15370 On ch=1 n=f#6 v=0
15392 On ch=1 n=f#5 v=0
15420 Par ch=1 c=64 v=63
15422 Par ch=1 c=64 v=127
15430 On ch=1 n=a5 v=0
15430 On ch=1 n=g#5 v=95
15432 On ch=1 n=g#6 v=108
15454 On ch=1 n=e5 v=71
15514 On ch=1 n=g#5 v=0
15518 On ch=1 n=e5 v=0
15530 On ch=1 n=g#6 v=0
15598 Par ch=1 c=64 v=63
15608 Par ch=1 c=64 v=0
15612 On ch=1 n=g#6 v=107
15744 On ch=1 n=g#6 v=0
15798 Par ch=1 c=64 v=63
15802 Par ch=1 c=64 v=127
15806 On ch=1 n=d5 v=100
15808 On ch=1 n=d6 v=94
15810 On ch=1 n=a6 v=113
15824 On ch=1 n=c#6 v=104
15826 On ch=1 n=f#6 v=100
15844 On ch=1 n=d6 v=0
15862 On ch=1 n=d5 v=0
15870 On ch=1 n=c#6 v=0
15886 On ch=1 n=a6 v=0
15894 On ch=1 n=f#6 v=0
15990 On ch=1 n=b6 v=92
16088 On ch=1 n=b6 v=0
16126 Par ch=1 c=64 v=63
16134 Par ch=1 c=64 v=0
16178 On ch=1 n=e4 v=99
16184 On ch=1 n=e5 v=92
16200 Par ch=1 c=64 v=63
16206 On ch=1 n=c#7 v=112
16208 On ch=1 n=g#6 v=109
16214 Par ch=1 c=64 v=127
16214 On ch=1 n=c#6 v=91
16224 On ch=1 n=e5 v=0
16224 On ch=1 n=e4 v=0
16246 On ch=1 n=c#6 v=0
16286 On ch=1 n=g#6 v=0
16312 On ch=1 n=c#7 v=0
16408 On ch=1 n=b6 v=101
16558 On ch=1 n=b6 v=0
16598 On ch=1 n=c#7 v=110
16626 Par ch=1 c=64 v=63
16642 Par ch=1 c=64 v=0
16754 On ch=1 n=c#7 v=0
16782 On ch=1 n=d7 v=97
16976 On ch=1 n=e7 v=103
17002 On ch=1 n=d7 v=0
17088 On ch=1 n=e7 v=0
17150 On ch=1 n=d7 v=109
17158 On ch=1 n=c#7 v=107
17162 Par ch=1 c=64 v=63
17166 Par ch=1 c=64 v=127
17172 On ch=1 n=a6 v=85
17278 On ch=1 n=c#7 v=0
17280 On ch=1 n=a6 v=0
17300 On ch=1 n=d7 v=0
17334 On ch=1 n=e7 v=103
17354 On ch=1 n=b6 v=89
17364 On ch=1 n=g#6 v=88
17394 Par ch=1 c=64 v=63
17404 Par ch=1 c=64 v=0
17438 On ch=1 n=e7 v=0
17454 On ch=1 n=b6 v=0
17474 On ch=1 n=g#6 v=0
17508 On ch=1 n=f#7 v=109
17508 On ch=1 n=a6 v=96
17512 On ch=1 n=f#6 v=91
17532 On ch=1 n=c#7 v=92
17656 On ch=1 n=c#7 v=0
17662 On ch=1 n=f#7 v=0
17664 On ch=1 n=f#6 v=0
17682 On ch=1 n=a6 v=0
17682 Par ch=1 c=64 v=63
17682 Par ch=1 c=64 v=127
17708 On ch=1 n=g#7 v=118
17714 On ch=1 n=g#6 v=103
17718 On ch=1 n=e6 v=91
17752 On ch=1 n=g#6 v=0
17778 On ch=1 n=g#7 v=0
17782 On ch=1 n=e6 v=0
17936 Par ch=1 c=64 v=63
17984 Par ch=1 c=64 v=0
18136 On ch=1 n=c#6 v=112
18138 On ch=1 n=f#4 v=119
18144 On ch=1 n=a5 v=94
18146 On ch=1 n=d#5 v=114
18158 Par ch=1 c=64 v=63
18170 Par ch=1 c=64 v=127
18202 On ch=1 n=f#4 v=0
18208 On ch=1 n=d#5 v=0
18226 On ch=1 n=a5 v=0
18250 On ch=1 n=c#6 v=0
18272 Par ch=1 c=64 v=63
18284 Par ch=1 c=64 v=0
18630 On ch=1 n=g#4 v=115
18632 On ch=1 n=c#6 v=115
18634 Par ch=1 c=64 v=63
18636 On ch=1 n=d#5 v=123
18638 On ch=1 n=g#5 v=114
18638 Par ch=1 c=64 v=127
19078 On ch=1 n=d#4 v=106
19080 On ch=1 n=g#3 v=107
19110 On ch=1 n=d#5 v=0
19112 On ch=1 n=c#6 v=0
19126 On ch=1 n=g#5 v=0
19220 On ch=1 n=g#4 v=0
19252 On ch=1 n=d#4 v=0
19270 On ch=1 n=g#3 v=0
19334 Par ch=1 c=64 v=63
19352 Par ch=1 c=64 v=0
19488 On ch=1 n=b5 v=111
19490 On ch=1 n=g#5 v=108
19492 On ch=1 n=d#5 v=114
19498 On ch=1 n=g#4 v=114
19576 Par ch=1 c=64 v=63
19586 Par ch=1 c=64 v=127
19912 On ch=1 n=d#4 v=106
19918 On ch=1 n=g#3 v=101
19960 On ch=1 n=d#5 v=0
19970 On ch=1 n=b5 v=0
19976 On ch=1 n=g#4 v=0
19980 On ch=1 n=g#5 v=0
20032 On ch=1 n=d#4 v=0
20070 On ch=1 n=g#3 v=0
20292 Par ch=1 c=64 v=63
20304 Par ch=1 c=64 v=0
20342 On ch=1 n=c#6 v=119
20350 On ch=1 n=f5 v=112
20358 On ch=1 n=g#5 v=109
20774 On ch=1 n=g#3 v=110
20780 On ch=1 n=c#3 v=110
20806 Par ch=1 c=64 v=63
20808 Par ch=1 c=64 v=127
20826 On ch=1 n=g#3 v=0
20832 On ch=1 n=c#3 v=0
21256 On ch=1 n=g#4 v=105
21270 On ch=1 n=c#4 v=95
21306 On ch=1 n=c#4 v=0
21306 On ch=1 n=f5 v=0
21320 On ch=1 n=g#4 v=0
21320 On ch=1 n=g#5 v=0
21336 On ch=1 n=c#6 v=0
21738 Par ch=1 c=64 v=63
21744 Par ch=1 c=64 v=0
21852 On ch=1 n=f#6 v=107
21862 On ch=1 n=b5 v=96
21864 On ch=1 n=d6 v=91
21866 On ch=1 n=f6 v=100
21948 Par ch=1 c=64 v=63
21952 Par ch=1 c=64 v=127
22100 On ch=1 n=d6 v=0
22132 On ch=1 n=b5 v=0
22280 On ch=1 n=f6 v=0
22304 On ch=1 n=a5 v=91
22306 On ch=1 n=c#6 v=99
22310 Par ch=1 c=64 v=63
22316 Par ch=1 c=64 v=0
22368 On ch=1 n=f#6 v=0
22378 On ch=1 n=a5 v=0
22398 On ch=1 n=c#6 v=0
22716 On ch=1 n=f#6 v=96
22720 On ch=1 n=g#5 v=97
22728 On ch=1 n=d6 v=84
22728 On ch=1 n=b5 v=83
22734 Par ch=1 c=64 v=63
22740 Par ch=1 c=64 v=127
22866 On ch=1 n=b5 v=0
23044 On ch=1 n=g#5 v=0
23140 Par ch=1 c=64 v=63
23146 On ch=1 n=c#6 v=80
23150 On ch=1 n=f#5 v=110
23156 Par ch=1 c=64 v=0
23158 On ch=1 n=a5 v=76
23164 On ch=1 n=d6 v=0
23220 On ch=1 n=f#6 v=0
23282 On ch=1 n=c#6 v=0
23320 On ch=1 n=a5 v=0
23590 Par ch=1 c=64 v=63
23592 Par ch=1 c=64 v=127
23592 On ch=1 n=a6 v=113
23862 On ch=1 n=f#5 v=0
23926 On ch=1 n=a6 v=0
23998 On ch=1 n=b4 v=87
24010 On ch=1 n=a5 v=81
24014 On ch=1 n=d6 v=90
24134 On ch=1 n=a5 v=0
24186 On ch=1 n=g#6 v=101
24278 On ch=1 n=d6 v=0
24332 Par ch=1 c=64 v=63
24346 On ch=1 n=g#6 v=0
24346 Par ch=1 c=64 v=0
24376 On ch=1 n=d6 v=90
24378 On ch=1 n=b4 v=0
24378 On ch=1 n=f#6 v=91
24382 On ch=1 n=e5 v=88
24388 On ch=1 n=g#5 v=93
24442 Par ch=1 c=64 v=63
24470 Par ch=1 c=64 v=127
24512 On ch=1 n=d6 v=0
24546 On ch=1 n=e6 v=90
24608 On ch=1 n=g#5 v=0
24618 On ch=1 n=f#6 v=0
24648 Par ch=1 c=64 v=63
24666 Par ch=1 c=64 v=0
24740 Par ch=1 c=64 v=63
24740 On ch=1 n=f#4 v=106
24752 On ch=1 n=f#6 v=97
24762 On ch=1 n=a5 v=71
24772 On ch=1 n=e5 v=0
24772 Par ch=1 c=64 v=127
24774 On ch=1 n=c#6 v=79
24806 On ch=1 n=f#4 v=0
24808 Par ch=1 c=64 v=63
24816 On ch=1 n=e6 v=0
24846 Par ch=1 c=64 v=0
24880 On ch=1 n=a5 v=0
24920 On ch=1 n=g#6 v=98
24966 On ch=1 n=c#6 v=0
24968 On ch=1 n=f#6 v=0
25012 Par ch=1 c=64 v=63
25032 Par ch=1 c=64 v=127
25050 On ch=1 n=g#6 v=0
25120 On ch=1 n=d5 v=75
25120 On ch=1 n=b4 v=66
25120 On ch=1 n=a6 v=102
25128 On ch=1 n=f5 v=79
25132 On ch=1 n=f#5 v=79
25192 On ch=1 n=f5 v=0
25212 On ch=1 n=a6 v=0
25212 On ch=1 n=d5 v=0
25224 On ch=1 n=b4 v=0
25238 On ch=1 n=f#5 v=0
25292 On ch=1 n=b6 v=90
25376 On ch=1 n=b6 v=0
25490 On ch=1 n=a4 v=69
25490 On ch=1 n=f#5 v=100
25492 On ch=1 n=c#7 v=110
25492 On ch=1 n=c#5 v=97
25520 Par ch=1 c=64 v=63
25532 Par ch=1 c=64 v=0
25560 On ch=1 n=c#5 v=0
25564 On ch=1 n=c#7 v=0
25570 On ch=1 n=f#5 v=0
25576 On ch=1 n=a4 v=0
25910 On ch=1 n=f#5 v=100
25912 On ch=1 n=b4 v=83
25918 On ch=1 n=c#7 v=107
25922 On ch=1 n=g#4 v=79
25934 On ch=1 n=d5 v=79
25944 Par ch=1 c=64 v=63
25948 Par ch=1 c=64 v=127
26094 On ch=1 n=d5 v=0
26140 On ch=1 n=b4 v=0
26144 On ch=1 n=g#4 v=0
26354 On ch=1 n=f#4 v=80
26360 On ch=1 n=c#5 v=76
26362 On ch=1 n=a4 v=44
26368 Par ch=1 c=64 v=63
26380 Par ch=1 c=64 v=0
26486 Par ch=1 c=64 v=63
26502 On ch=1 n=a4 v=0
26504 On ch=1 n=f#4 v=0
26510 Par ch=1 c=64 v=127
26518 On ch=1 n=c#5 v=0
26540 On ch=1 n=f#5 v=0
26548 On ch=1 n=a6 v=77
26588 On ch=1 n=c#7 v=0
26742 Par ch=1 c=64 v=63
26756 On ch=1 n=f#6 v=88
26760 On ch=1 n=a5 v=86
26792 On ch=1 n=a6 v=0
26836 Par ch=1 c=64 v=127
26942 On ch=1 n=c#6 v=82
26992 On ch=1 n=f#6 v=0
27122 On ch=1 n=c#6 v=0
27164 On ch=1 n=d5 v=55
27166 On ch=1 n=d6 v=71
27180 On ch=1 n=b4 v=48
27200 Par ch=1 c=64 v=63
27222 Par ch=1 c=64 v=0
27240 On ch=1 n=a5 v=0
27302 Par ch=1 c=64 v=63
27332 Par ch=1 c=64 v=127
27368 On ch=1 n=d5 v=0
27388 On ch=1 n=g#5 v=87
27578 On ch=1 n=f#5 v=79
27620 On ch=1 n=g#5 v=0
27714 On ch=1 n=f#5 v=0
27724 On ch=1 n=e5 v=75
27946 On ch=1 n=f#5 v=93
27974 Par ch=1 c=64 v=63
27980 On ch=1 n=e5 v=0
27992 Par ch=1 c=64 v=0
28046 On ch=1 n=b4 v=0
28054 On ch=1 n=f#5 v=0
28108 On ch=1 n=e6 v=80
28132 On ch=1 n=d6 v=0
28318 On ch=1 n=g#5 v=75
28324 On ch=1 n=f#6 v=82
28328 Par ch=1 c=64 v=63
28332 Par ch=1 c=64 v=127
28334 On ch=1 n=e6 v=0
28398 On ch=1 n=g#5 v=0
28502 On ch=1 n=g#6 v=91
28558 On ch=1 n=f#6 v=0
28698 On ch=1 n=b6 v=71
28704 On ch=1 n=g#6 v=0
28704 On ch=1 n=e4 v=78
28712 On ch=1 n=d5 v=68
28764 On ch=1 n=e4 v=0
28778 On ch=1 n=d5 v=0
28864 On ch=1 n=b6 v=0
28874 On ch=1 n=g#6 v=72
29088 On ch=1 n=e6 v=79
29092 On ch=1 n=g#6 v=0
29100 On ch=1 n=g#5 v=66
29232 On ch=1 n=e6 v=0
29250 On ch=1 n=b5 v=83
29452 On ch=1 n=a4 v=48
29462 On ch=1 n=c#6 v=88
29464 On ch=1 n=c#5 v=76
29470 On ch=1 n=b5 v=0
29524 Par ch=1 c=64 v=63
29536 Par ch=1 c=64 v=0
29556 On ch=1 n=g#5 v=0
29650 Par ch=1 c=64 v=63
29670 On ch=1 n=f#5 v=79
29676 Par ch=1 c=64 v=127
29736 On ch=1 n=c#5 v=0
29874 On ch=1 n=f#5 v=0
29874 On ch=1 n=e5 v=70
30042 On ch=1 n=e5 v=0
30048 On ch=1 n=d5 v=71
30260 On ch=1 n=e5 v=64
30270 On ch=1 n=d5 v=0
30300 Par ch=1 c=64 v=63
30316 Par ch=1 c=64 v=0
30336 On ch=1 n=c#6 v=0
30342 On ch=1 n=e5 v=0
30396 On ch=1 n=d6 v=81
30424 On ch=1 n=a4 v=0
30602 Par ch=1 c=64 v=63
30606 On ch=1 n=f#5 v=94
30608 On ch=1 n=d6 v=0
30610 Par ch=1 c=64 v=127
30614 On ch=1 n=e6 v=83
30672 On ch=1 n=f#5 v=0
30776 On ch=1 n=f#6 v=84
30792 On ch=1 n=e6 v=0
30970 On ch=1 n=d4 v=75
30972 On ch=1 n=a6 v=68
30974 On ch=1 n=f#6 v=0
30990 On ch=1 n=c#5 v=54
31032 On ch=1 n=c#5 v=0
31032 On ch=1 n=d4 v=0
31122 On ch=1 n=a6 v=0
31136 On ch=1 n=f#6 v=79
31338 On ch=1 n=f#5 v=101
31354 On ch=1 n=d6 v=72
31372 On ch=1 n=f#6 v=0
31428 Par ch=1 c=64 v=63
31460 Par ch=1 c=64 v=0
31516 On ch=1 n=a5 v=71
31520 On ch=1 n=d6 v=0
31724 On ch=1 n=b5 v=83
31726 On ch=1 n=g#4 v=38
31732 On ch=1 n=a5 v=0
31732 On ch=1 n=b4 v=63
31780 Par ch=1 c=64 v=63
31788 Par ch=1 c=64 v=127
31806 On ch=1 n=f#5 v=0
31916 On ch=1 n=e5 v=76
31922 On ch=1 n=b4 v=0
32106 On ch=1 n=d5 v=70
32118 On ch=1 n=e5 v=0
32214 On ch=1 n=b5 v=0
32264 On ch=1 n=c#5 v=85
32282 On ch=1 n=d5 v=0
32452 On ch=1 n=c#5 v=0
32486 On ch=1 n=g#4 v=0
32486 On ch=1 n=d5 v=92
32494 Par ch=1 c=64 v=63
32508 Par ch=1 c=64 v=0
32570 On ch=1 n=d5 v=0
32654 On ch=1 n=g#5 v=96
32786 On ch=1 n=g#5 v=0
32832 Par ch=1 c=64 v=63
32834 On ch=1 n=d5 v=98
32838 Par ch=1 c=64 v=127
32848 On ch=1 n=d4 v=81
32858 On ch=1 n=a5 v=83
32858 On ch=1 n=c#5 v=93
32864 On ch=1 n=f#5 v=84
32880 On ch=1 n=d5 v=0
32904 On ch=1 n=d4 v=0
32938 On ch=1 n=c#5 v=0
32968 On ch=1 n=a5 v=0
33012 On ch=1 n=b5 v=100
33058 On ch=1 n=f#5 v=0
33120 On ch=1 n=b5 v=0
33144 Par ch=1 c=64 v=63
33156 Par ch=1 c=64 v=0
33202 On ch=1 n=e3 v=88
33216 On ch=1 n=e4 v=66
33222 On ch=1 n=c#5 v=110
33224 On ch=1 n=c#6 v=112
33232 On ch=1 n=g#5 v=94
33234 Par ch=1 c=64 v=63
33242 On ch=1 n=e3 v=0
33250 Par ch=1 c=64 v=127
33252 On ch=1 n=c#5 v=0
33256 On ch=1 n=e4 v=0
33284 On ch=1 n=g#5 v=0
33338 On ch=1 n=c#6 v=0
33438 On ch=1 n=b5 v=92
33558 Par ch=1 c=64 v=63
33576 Par ch=1 c=64 v=0
33616 On ch=1 n=c#6 v=96
33668 On ch=1 n=b5 v=0
33782 On ch=1 n=c#6 v=0
33790 On ch=1 n=d6 v=86
33974 On ch=1 n=d6 v=0
33980 On ch=1 n=e6 v=100
34044 Par ch=1 c=64 v=63
34048 Par ch=1 c=64 v=127
34106 On ch=1 n=e6 v=0
34160 On ch=1 n=d6 v=91
34176 On ch=1 n=c#6 v=105
34188 On ch=1 n=a5 v=85
34272 Par ch=1 c=64 v=63
34282 On ch=1 n=c#6 v=0
34282 Par ch=1 c=64 v=0
34312 On ch=1 n=d6 v=0
34314 On ch=1 n=a5 v=0
34366 On ch=1 n=e6 v=107
34378 On ch=1 n=b5 v=90
34380 On ch=1 n=g#5 v=95
34470 On ch=1 n=e6 v=0
34488 On ch=1 n=b5 v=0
34520 On ch=1 n=f#6 v=108
34528 On ch=1 n=g#5 v=0
34534 On ch=1 n=a5 v=91
34536 On ch=1 n=f#5 v=97
34634 On ch=1 n=f#6 v=0
34690 On ch=1 n=f#5 v=0
34716 On ch=1 n=g#5 v=95
34720 On ch=1 n=g#6 v=110
34722 On ch=1 n=a5 v=0
34726 Par ch=1 c=64 v=63
34728 On ch=1 n=e5 v=73
34728 Par ch=1 c=64 v=127
34740 On ch=1 n=c#6 v=92
34756 On ch=1 n=f#5 v=33
34778 On ch=1 n=c#6 v=0
34792 On ch=1 n=f#5 v=0
34802 On ch=1 n=g#5 v=0
34826 On ch=1 n=g#6 v=0
34828 On ch=1 n=e5 v=0
34900 On ch=1 n=g#6 v=100
34920 Par ch=1 c=64 v=63
34936 Par ch=1 c=64 v=0
35024 On ch=1 n=g#6 v=0
35104 On ch=1 n=d6 v=99
35106 On ch=1 n=d5 v=90
35106 On ch=1 n=a6 v=104
35128 On ch=1 n=c#6 v=92
35138 On ch=1 n=d6 v=0
35142 On ch=1 n=f#6 v=76
35158 On ch=1 n=c#6 v=0
35174 On ch=1 n=d5 v=0
35180 On ch=1 n=f#6 v=0
35184 On ch=1 n=a6 v=0
35282 On ch=1 n=b6 v=77
35286 On ch=1 n=a6 v=77
35356 On ch=1 n=a6 v=0
35368 On ch=1 n=b6 v=0
35458 On ch=1 n=e4 v=93
35478 On ch=1 n=e5 v=49
35484 On ch=1 n=g#6 v=112
35484 On ch=1 n=c#7 v=115
35486 On ch=1 n=c#6 v=114
35490 Par ch=1 c=64 v=127
35498 On ch=1 n=e4 v=0
35518 On ch=1 n=c#6 v=0
35528 On ch=1 n=e5 v=0
35558 On ch=1 n=g#6 v=0
35590 On ch=1 n=c#7 v=0
35700 On ch=1 n=b6 v=89
35842 On ch=1 n=b6 v=0
35882 On ch=1 n=c#7 v=107
35968 Par ch=1 c=64 v=63
35986 Par ch=1 c=64 v=0
36012 On ch=1 n=c#7 v=0
36060 On ch=1 n=d7 v=101
36184 On ch=1 n=d7 v=0
36254 On ch=1 n=e7 v=109
36278 Par ch=1 c=64 v=63
36280 Par ch=1 c=64 v=127
36344 On ch=1 n=e7 v=0
36428 On ch=1 n=d7 v=113
36430 On ch=1 n=c#7 v=106
36438 On ch=1 n=a6 v=90
36536 On ch=1 n=c#7 v=0
36542 On ch=1 n=a6 v=0
36564 On ch=1 n=d7 v=0
36608 On ch=1 n=e7 v=103
36614 On ch=1 n=b6 v=89
36622 On ch=1 n=g#6 v=93
36636 Par ch=1 c=64 v=63
36644 Par ch=1 c=64 v=0
36696 On ch=1 n=e7 v=0
36718 On ch=1 n=b6 v=0
36732 On ch=1 n=g#6 v=0
36784 On ch=1 n=a6 v=88
36784 On ch=1 n=f#6 v=92
36786 On ch=1 n=f#7 v=113
36798 On ch=1 n=c#7 v=95
36846 On ch=1 n=c#7 v=0
36916 On ch=1 n=f#7 v=0
36918 On ch=1 n=a6 v=0
36938 On ch=1 n=f#6 v=0
36992 Par ch=1 c=64 v=63
36994 Par ch=1 c=64 v=127
36996 On ch=1 n=e6 v=94
36998 On ch=1 n=g#6 v=101
37000 On ch=1 n=g#7 v=116
37038 On ch=1 n=g#6 v=0
37058 On ch=1 n=g#7 v=0
37062 On ch=1 n=e6 v=0
37208 Par ch=1 c=64 v=63
37226 Par ch=1 c=64 v=0
37438 On ch=1 n=c#6 v=115
37442 On ch=1 n=f#4 v=116
37446 On ch=1 n=a5 v=100
37450 On ch=1 n=d#5 v=116
37506 On ch=1 n=f#4 v=0
37508 On ch=1 n=d#5 v=0
37534 On ch=1 n=a5 v=0
37552 On ch=1 n=c#6 v=0
37894 On ch=1 n=g#4 v=115
37896 On ch=1 n=c#6 v=115
37900 On ch=1 n=g#5 v=116
37900 On ch=1 n=d#5 v=124
37932 Par ch=1 c=64 v=63
37934 Par ch=1 c=64 v=127
38314 On ch=1 n=c#6 v=0
38326 On ch=1 n=d#5 v=0
38336 On ch=1 n=g#5 v=0
38352 On ch=1 n=d#4 v=110
38358 On ch=1 n=g#4 v=0
38362 On ch=1 n=g#3 v=109
38416 On ch=1 n=d#4 v=0
38454 On ch=1 n=g#3 v=0
38520 Par ch=1 c=64 v=63
38540 Par ch=1 c=64 v=0
38764 On ch=1 n=b5 v=114
38768 On ch=1 n=d#5 v=119
38768 On ch=1 n=g#4 v=116
38770 On ch=1 n=g#5 v=108
38792 Par ch=1 c=64 v=63
38800 Par ch=1 c=64 v=127
39086 On ch=1 n=g#4 v=0
39190 On ch=1 n=d#4 v=103
39190 On ch=1 n=g#3 v=108
39206 On ch=1 n=d#5 v=0
39218 On ch=1 n=d#4 v=0
39218 On ch=1 n=b5 v=0
39224 On ch=1 n=g#5 v=0
39250 On ch=1 n=g#3 v=0
39350 Par ch=1 c=64 v=63
39372 Par ch=1 c=64 v=0
39598 On ch=1 n=c#6 v=119
39604 On ch=1 n=f5 v=114
39606 On ch=1 n=g#5 v=112
40022 On ch=1 n=g#3 v=108
40028 On ch=1 n=c#3 v=112
40060 Par ch=1 c=64 v=63
40062 Par ch=1 c=64 v=127
40076 On ch=1 n=g#3 v=0
40084 On ch=1 n=c#3 v=0
40478 On ch=1 n=g#4 v=107
40488 On ch=1 n=c#4 v=98
40526 On ch=1 n=c#4 v=0
40534 On ch=1 n=g#4 v=0
40690 On ch=1 n=g#5 v=0
40690 On ch=1 n=f5 v=0
40692 On ch=1 n=c#6 v=0
40982 Par ch=1 c=64 v=63
40992 Par ch=1 c=64 v=0
41022 On ch=1 n=c#4 v=109
41028 On ch=1 n=f#3 v=96
41032 On ch=1 n=c4 v=97
41036 On ch=1 n=a3 v=85
41206 On ch=1 n=c4 v=0
41254 On ch=1 n=a3 v=0
41308 On ch=1 n=f#3 v=0
41442 On ch=1 n=g#3 v=94
41446 On ch=1 n=e3 v=85
41516 On ch=1 n=e3 v=0
41520 On ch=1 n=g#3 v=0
41524 On ch=1 n=c#4 v=0
41880 On ch=1 n=c#4 v=110
41888 On ch=1 n=f#3 v=88
41892 On ch=1 n=d#3 v=99
41892 On ch=1 n=a3 v=90
42116 On ch=1 n=a3 v=0
42180 On ch=1 n=d#3 v=0
42212 On ch=1 n=f#3 v=0
42320 On ch=1 n=g#3 v=92
42322 On ch=1 n=e3 v=85
42338 On ch=1 n=c#3 v=101
42478 On ch=1 n=e3 v=0
42484 On ch=1 n=g#3 v=0
42490 On ch=1 n=c#3 v=0
42550 On ch=1 n=c#4 v=0
42748 On ch=1 n=e4 v=101
43168 On ch=1 n=f#3 v=82
43178 On ch=1 n=a3 v=77
43354 On ch=1 n=d#4 v=94
43398 On ch=1 n=e4 v=0
43536 On ch=1 n=a3 v=0
43560 On ch=1 n=d#4 v=0
43564 On ch=1 n=e4 v=89
43574 On ch=1 n=c#4 v=70
43664 On ch=1 n=c#4 v=0
43736 On ch=1 n=f#4 v=90
43742 On ch=1 n=b3 v=78
43750 On ch=1 n=d#4 v=87
43778 On ch=1 n=e4 v=0
43884 On ch=1 n=b3 v=0
43934 On ch=1 n=d#4 v=0
43940 On ch=1 n=f#3 v=0
43954 On ch=1 n=b3 v=73
43960 On ch=1 n=g#4 v=92
43964 On ch=1 n=e4 v=89
43976 On ch=1 n=e3 v=64
43980 On ch=1 n=f#4 v=0
44108 On ch=1 n=g#4 v=0
44128 On ch=1 n=f#4 v=97
44156 On ch=1 n=d#4 v=85
44178 On ch=1 n=e4 v=0
44346 On ch=1 n=g#4 v=100
44348 On ch=1 n=e4 v=98
44402 On ch=1 n=d#4 v=0
44406 On ch=1 n=f#4 v=0
44466 On ch=1 n=g#4 v=0
44510 On ch=1 n=a4 v=102
44534 On ch=1 n=f#4 v=101
44568 On ch=1 n=e4 v=0
44636 On ch=1 n=a4 v=0
44640 On ch=1 n=f#4 v=0
44724 On ch=1 n=b4 v=98
44734 On ch=1 n=e4 v=84
44738 On ch=1 n=g#3 v=88
44750 On ch=1 n=e3 v=0
44750 On ch=1 n=b3 v=0
44802 On ch=1 n=b4 v=0
44810 On ch=1 n=e4 v=0
44838 On ch=1 n=g#3 v=0
45154 On ch=1 n=a3 v=79
45156 On ch=1 n=f#3 v=94
45158 On ch=1 n=e4 v=87
45172 On ch=1 n=c#4 v=74
45210 On ch=1 n=c#4 v=0
45224 On ch=1 n=f#3 v=0
45226 On ch=1 n=a3 v=0
45236 On ch=1 n=e4 v=0
45572 On ch=1 n=b3 v=78
45582 On ch=1 n=e4 v=82
45590 On ch=1 n=f#3 v=70
45974 On ch=1 n=e4 v=0
45988 On ch=1 n=d#4 v=82
46252 On ch=1 n=f#3 v=0
46356 On ch=1 n=d#4 v=0
46424 On ch=1 n=b3 v=0
46446 On ch=1 n=b2 v=84
46660 On ch=1 n=d#4 v=96
46688 Par ch=1 c=64 v=63
46796 Par ch=1 c=64 v=127
46868 On ch=1 n=b3 v=76
46878 On ch=1 n=g#4 v=86
47044 On ch=1 n=b4 v=94
47106 On ch=1 n=g#4 v=0
47132 On ch=1 n=d#4 v=0
47254 On ch=1 n=d#5 v=99
47258 On ch=1 n=c#3 v=86
47266 On ch=1 n=e4 v=71
47306 On ch=1 n=b2 v=0
47310 On ch=1 n=b4 v=0
47344 Par ch=1 c=64 v=63
47362 Par ch=1 c=64 v=0
47426 On ch=1 n=c#5 v=104
47482 On ch=1 n=d#5 v=0
47536 Par ch=1 c=64 v=63
47552 Par ch=1 c=64 v=127
47624 On ch=1 n=b4 v=87
47670 On ch=1 n=e4 v=0
47696 On ch=1 n=c#5 v=0
47742 On ch=1 n=b3 v=0
47776 On ch=1 n=c#3 v=0
47800 On ch=1 n=a#4 v=105
47862 On ch=1 n=b4 v=0
47934 On ch=1 n=a#4 v=0
48006 On ch=1 n=c#4 v=96
48022 On ch=1 n=a#4 v=93
48022 On ch=1 n=e3 v=78
48024 On ch=1 n=g#4 v=95
48056 Par ch=1 c=64 v=63
48068 Par ch=1 c=64 v=0
48202 Par ch=1 c=64 v=63
48214 Par ch=1 c=64 v=127
48354 On ch=1 n=e3 v=0
48458 On ch=1 n=b4 v=83
48604 On ch=1 n=c#5 v=99
48666 On ch=1 n=g#4 v=0
48688 On ch=1 n=b4 v=0
48692 On ch=1 n=a#4 v=0
48780 Par ch=1 c=64 v=63
48788 Par ch=1 c=64 v=0
48798 On ch=1 n=c#5 v=0
48802 On ch=1 n=c#4 v=0
48840 On ch=1 n=a#3 v=70
48842 On ch=1 n=d#5 v=90
48850 On ch=1 n=d#3 v=62
48854 On ch=1 n=f#4 v=71
48892 Par ch=1 c=64 v=63
48902 Par ch=1 c=64 v=127
48974 On ch=1 n=d#3 v=0
49004 On ch=1 n=a#3 v=0
49068 On ch=1 n=f#4 v=0
49196 On ch=1 n=d#5 v=0
49298 On ch=1 n=a#4 v=53
49302 On ch=1 n=d#4 v=60
49374 Par ch=1 c=67 v=127
49376 Par ch=1 c=64 v=63
49380 Par ch=1 c=64 v=0
49496 On ch=1 n=d#4 v=0
49518 Par ch=1 c=64 v=63
49524 Par ch=1 c=64 v=127
49614 On ch=1 n=a#4 v=0
49774 On ch=1 n=f#5 v=51
49976 On ch=1 n=f#5 v=0
50152 On ch=1 n=d#7 v=90
50164 On ch=1 n=c#5 v=67
50168 On ch=1 n=g#6 v=70
50168 On ch=1 n=e6 v=47
50204 On ch=1 n=b5 v=20
50228 On ch=1 n=d#7 v=0
50244 On ch=1 n=c#5 v=0
50248 On ch=1 n=g#6 v=0
50290 On ch=1 n=b5 v=0
50302 On ch=1 n=e6 v=0
50556 Par ch=1 c=64 v=63
50568 Par ch=1 c=64 v=0
50570 On ch=1 n=f#5 v=50
50572 On ch=1 n=a#5 v=61
50578 On ch=1 n=d#6 v=76
50588 On ch=1 n=c#6 v=68
50606 On ch=1 n=d#5 v=49
50628 Par ch=1 c=64 v=63
50658 Par ch=1 c=64 v=127
50680 On ch=1 n=a#5 v=0
50712 On ch=1 n=f#5 v=0
50724 On ch=1 n=d#5 v=0
50884 On ch=1 n=c#6 v=0
50914 On ch=1 n=d#6 v=0
50990 Par ch=1 c=64 v=63
51006 On ch=1 n=a#4 v=54
51010 On ch=1 n=d#4 v=63
51032 Par ch=1 c=64 v=127
51104 On ch=1 n=d#4 v=0
51110 On ch=1 n=a#4 v=0
51404 On ch=1 n=f#5 v=80
51496 On ch=1 n=f#5 v=0
51796 On ch=1 n=d#7 v=91
51802 On ch=1 n=c#5 v=76
51820 On ch=1 n=g#6 v=65
51822 On ch=1 n=b5 v=38
51826 On ch=1 n=e6 v=47
51844 Par ch=1 c=67 v=127
51906 On ch=1 n=d#7 v=0
51926 On ch=1 n=c#5 v=0
51934 On ch=1 n=g#6 v=0
52220 On ch=1 n=e6 v=0
52246 On ch=1 n=c#6 v=65
52248 On ch=1 n=d#6 v=59
52264 On ch=1 n=a#5 v=50
52270 On ch=1 n=f#5 v=53
52282 On ch=1 n=d#5 v=35
52292 Par ch=1 c=64 v=63
52298 On ch=1 n=b5 v=0
52310 Par ch=1 c=64 v=0
52342 Par ch=1 c=64 v=63
52374 On ch=1 n=a#5 v=0
52378 Par ch=1 c=64 v=127
52436 On ch=1 n=f#5 v=0
52444 On ch=1 n=d#5 v=0
52572 On ch=1 n=c#6 v=0
52588 On ch=1 n=d#6 v=0
52616 Par ch=1 c=64 v=63
52662 Par ch=1 c=64 v=127
52676 On ch=1 n=a#4 v=58
52678 On ch=1 n=d#4 v=64
52772 On ch=1 n=d#4 v=0
52780 On ch=1 n=a#4 v=0
53098 On ch=1 n=f#5 v=62
53152 On ch=1 n=f#5 v=0
53474 Par ch=1 c=64 v=63
53496 Par ch=1 c=64 v=0
53506 On ch=1 n=d#7 v=95
53506 On ch=1 n=c#5 v=64
53516 Par ch=1 c=64 v=63
53520 On ch=1 n=g#6 v=68
53524 On ch=1 n=e6 v=44
53532 On ch=1 n=b5 v=49
53556 Par ch=1 c=64 v=127
53586 On ch=1 n=d#7 v=0
53606 On ch=1 n=g#6 v=0
53612 On ch=1 n=c#5 v=0
53672 On ch=1 n=e6 v=0
53794 On ch=1 n=b5 v=0
53906 Par ch=1 c=64 v=63
53928 On ch=1 n=d#6 v=73
53934 On ch=1 n=a#5 v=57
53936 On ch=1 n=c#6 v=72
53940 On ch=1 n=d#5 v=70
53942 On ch=1 n=f#5 v=59
53962 Par ch=1 c=64 v=127
53980 On ch=1 n=a#5 v=0
54010 On ch=1 n=f#5 v=0
54030 On ch=1 n=d#5 v=0
54376 On ch=1 n=c#6 v=0
54376 On ch=1 n=d#6 v=0
54430 On ch=1 n=a#3 v=76
54448 On ch=1 n=d#3 v=71
54556 Par ch=1 c=67 v=0
54570 Par ch=1 c=64 v=63
54670 Par ch=1 c=64 v=0
54772 Par ch=1 c=64 v=63
54810 Par ch=1 c=64 v=127
54982 On ch=1 n=d#3 v=0
54994 On ch=1 n=a#3 v=0
55300 On ch=1 n=a#3 v=65
55310 On ch=1 n=d#3 v=58
55364 On ch=1 n=d#3 v=0
55372 On ch=1 n=a#3 v=0
56064 Par ch=1 c=64 v=63
56122 Par ch=1 c=64 v=0
56150 On ch=1 n=d#4 v=105
56154 On ch=1 n=b3 v=91
56158 On ch=1 n=d4 v=92
56160 On ch=1 n=g#3 v=89
56232 Par ch=1 c=67 v=0
56564 On ch=1 n=f#3 v=96
56568 On ch=1 n=a#3 v=98
56582 On ch=1 n=d4 v=0
56606 On ch=1 n=b3 v=0
56616 On ch=1 n=g#3 v=0
56620 On ch=1 n=d#4 v=0
56642 On ch=1 n=f#3 v=0
56646 On ch=1 n=a#3 v=0
56994 On ch=1 n=g#3 v=79
56996 On ch=1 n=d#4 v=108
56998 On ch=1 n=b3 v=79
57008 On ch=1 n=f3 v=66
57182 On ch=1 n=f3 v=0
57242 On ch=1 n=g#3 v=0
57402 On ch=1 n=a#3 v=90
57418 On ch=1 n=f#3 v=82
57418 On ch=1 n=d#3 v=91
57452 On ch=1 n=d#4 v=0
57466 On ch=1 n=b3 v=0
57544 On ch=1 n=a#3 v=0
57562 On ch=1 n=d#3 v=0
57572 On ch=1 n=f#3 v=0
57830 On ch=1 n=f#4 v=99
58212 On ch=1 n=b3 v=76
58218 On ch=1 n=g#3 v=74
58378 On ch=1 n=f#4 v=0
58406 On ch=1 n=f4 v=73
58590 On ch=1 n=b3 v=0
58610 On ch=1 n=f#4 v=91
58618 On ch=1 n=d#4 v=72
58648 On ch=1 n=f4 v=0
58800 On ch=1 n=g#4 v=90
58804 On ch=1 n=c#4 v=88
58810 On ch=1 n=d#4 v=0
58812 On ch=1 n=f4 v=76
58848 On ch=1 n=f#4 v=0
58922 On ch=1 n=c#4 v=0
58936 On ch=1 n=f4 v=0
58980 On ch=1 n=g#4 v=0
58990 On ch=1 n=a#4 v=88
58994 On ch=1 n=c#4 v=57
58996 On ch=1 n=f#4 v=92
59016 On ch=1 n=f#3 v=77
59046 On ch=1 n=g#3 v=0
59168 On ch=1 n=a#4 v=0
59168 On ch=1 n=g#4 v=99
59186 On ch=1 n=f4 v=77
59228 On ch=1 n=f#4 v=0
59356 On ch=1 n=a#4 v=97
59360 Par ch=1 c=64 v=63
59380 On ch=1 n=f#4 v=88
59394 Par ch=1 c=64 v=127
59410 On ch=1 n=g#4 v=0
59428 On ch=1 n=f4 v=0
59476 On ch=1 n=f#4 v=0
59492 On ch=1 n=a#4 v=0
59546 On ch=1 n=c#4 v=0
59550 On ch=1 n=b4 v=99
59560 On ch=1 n=g#4 v=95
59642 On ch=1 n=b4 v=0
59664 On ch=1 n=g#4 v=0
59708 On ch=1 n=f#3 v=0
59722 Par ch=1 c=64 v=63
59766 On ch=1 n=a#3 v=87
59770 On ch=1 n=f#4 v=105
59772 On ch=1 n=c#5 v=96
59776 Par ch=1 c=64 v=0
59834 On ch=1 n=f#4 v=0
59850 On ch=1 n=c#5 v=0
59868 On ch=1 n=a#3 v=0
60172 On ch=1 n=f#4 v=92
60176 On ch=1 n=g#3 v=94
60186 On ch=1 n=b3 v=84
60192 On ch=1 n=d#4 v=88
60234 On ch=1 n=g#3 v=0
60250 On ch=1 n=d#4 v=0
60258 On ch=1 n=f#4 v=0
60276 On ch=1 n=b3 v=0
60582 On ch=1 n=c#4 v=88
60588 On ch=1 n=f#4 v=72
60592 On ch=1 n=g#3 v=61
60994 On ch=1 n=f#4 v=0
61010 Par ch=1 c=64 v=63
61022 On ch=1 n=f4 v=78
61032 Par ch=1 c=64 v=127
61082 On ch=1 n=g#3 v=0
61132 On ch=1 n=c#4 v=0
61210 On ch=1 n=f4 v=0
61446 On ch=1 n=c#3 v=69
61464 Par ch=1 c=64 v=63
61508 Par ch=1 c=64 v=0
61628 On ch=1 n=f4 v=75
61636 Par ch=1 c=64 v=63
61676 Par ch=1 c=64 v=127
61806 On ch=1 n=c#4 v=62
61818 On ch=1 n=a#4 v=91
61924 On ch=1 n=f4 v=0
61994 On ch=1 n=c#5 v=91
62060 On ch=1 n=a#4 v=0
62190 On ch=1 n=c#5 v=0
62196 On ch=1 n=d#3 v=74
62212 On ch=1 n=f#4 v=89
62218 On ch=1 n=f5 v=86
62234 On ch=1 n=c#3 v=0
62294 Par ch=1 c=64 v=63
62326 Par ch=1 c=64 v=0
62384 On ch=1 n=d#5 v=97
62454 On ch=1 n=f5 v=0
62480 Par ch=1 c=64 v=63
62508 Par ch=1 c=64 v=127
62590 On ch=1 n=c#5 v=106
62664 On ch=1 n=d#5 v=0
62666 On ch=1 n=f#4 v=0
62760 On ch=1 n=c5 v=104
62770 On ch=1 n=c#4 v=0
62822 On ch=1 n=c#5 v=0
62906 On ch=1 n=c5 v=0
62992 On ch=1 n=c5 v=102
62994 On ch=1 n=a#4 v=88
62996 On ch=1 n=d#4 v=78
63000 On ch=1 n=f#3 v=73
63028 On ch=1 n=d#3 v=0
63066 Par ch=1 c=64 v=63
63084 Par ch=1 c=64 v=0
63210 Par ch=1 c=64 v=63
63228 Par ch=1 c=64 v=127
63434 On ch=1 n=c#5 v=98
63502 On ch=1 n=c5 v=0
63532 On ch=1 n=d#4 v=0
63558 On ch=1 n=f#3 v=0
63566 On ch=1 n=a#4 v=0
63606 On ch=1 n=d#5 v=88
63652 On ch=1 n=c#5 v=0
63696 Par ch=1 c=64 v=63
63704 Par ch=1 c=64 v=0
63758 On ch=1 n=d#5 v=0
63828 Par ch=1 c=64 v=63
63830 On ch=1 n=c4 v=67
63830 On ch=1 n=f3 v=70
63836 Par ch=1 c=64 v=127
63840 On ch=1 n=g#4 v=74
63848 On ch=1 n=f5 v=62
63906 On ch=1 n=f3 v=0
63934 On ch=1 n=c4 v=0
64002 On ch=1 n=g#4 v=0
64076 On ch=1 n=f5 v=0
64274 Par ch=1 c=64 v=63
64280 Par ch=1 c=64 v=0
64284 On ch=1 n=c5 v=59
64290 Par ch=1 c=67 v=127
64292 On ch=1 n=f4 v=24
64518 Par ch=1 c=64 v=63
64520 Par ch=1 c=64 v=127
64566 On ch=1 n=f4 v=0
64620 On ch=1 n=c5 v=0
64682 On ch=1 n=g#5 v=85
64762 On ch=1 n=g#5 v=0
65098 On ch=1 n=f7 v=68
65102 On ch=1 n=f#6 v=56
65102 On ch=1 n=c#6 v=68
65106 On ch=1 n=a#6 v=76
65122 On ch=1 n=d#5 v=55
65172 On ch=1 n=f7 v=0
65188 On ch=1 n=a#6 v=0
65212 On ch=1 n=c#6 v=0
65228 On ch=1 n=f#6 v=0
65306 On ch=1 n=d#5 v=0
65526 Par ch=1 c=64 v=63
65528 On ch=1 n=g#5 v=59
65534 On ch=1 n=f6 v=76
65538 Par ch=1 c=64 v=0
65548 On ch=1 n=d#6 v=70
65556 On ch=1 n=c6 v=41
65560 On ch=1 n=f5 v=37
65582 Par ch=1 c=64 v=63
65606 Par ch=1 c=64 v=127
65618 On ch=1 n=c6 v=0
65640 On ch=1 n=g#5 v=0
65652 On ch=1 n=f5 v=0
65776 On ch=1 n=f6 v=0
65812 On ch=1 n=d#6 v=0
65906 Par ch=1 c=64 v=63
65922 Par ch=1 c=64 v=0
65940 Par ch=1 c=64 v=63
65964 Par ch=1 c=64 v=127
65976 On ch=1 n=f4 v=70
66014 On ch=1 n=c5 v=41
66042 On ch=1 n=f4 v=0
66058 On ch=1 n=c5 v=0
66364 On ch=1 n=g#5 v=89
66428 On ch=1 n=g#5 v=0
66778 On ch=1 n=f7 v=73
66780 On ch=1 n=c#6 v=64
66784 On ch=1 n=f#6 v=50
66786 On ch=1 n=a#6 v=72
66814 On ch=1 n=d#5 v=49
66816 Par ch=1 c=64 v=63
66828 Par ch=1 c=64 v=0
66868 Par ch=1 c=64 v=63
66896 Par ch=1 c=64 v=127
66904 On ch=1 n=f7 v=0
66944 On ch=1 n=a#6 v=0
66978 On ch=1 n=c#6 v=0
66998 On ch=1 n=f#6 v=0
67094 On ch=1 n=d#5 v=0
67222 On ch=1 n=g#5 v=58
67236 On ch=1 n=d#6 v=70
67242 On ch=1 n=c6 v=52
67244 Par ch=1 c=64 v=63
67248 On ch=1 n=f5 v=44
67248 On ch=1 n=f6 v=78
67272 Par ch=1 c=64 v=127
67304 On ch=1 n=c6 v=0
67328 On ch=1 n=g#5 v=0
67332 On ch=1 n=d#6 v=0
67338 On ch=1 n=f5 v=0
67346 On ch=1 n=f6 v=0
67584 Par ch=1 c=64 v=63
67632 Par ch=1 c=64 v=127
67636 On ch=1 n=c5 v=78
67642 On ch=1 n=f4 v=68
67682 On ch=1 n=c5 v=0
67702 On ch=1 n=f4 v=0
68024 On ch=1 n=g#5 v=76
68090 On ch=1 n=g#5 v=0
68426 On ch=1 n=f7 v=83
68428 On ch=1 n=f#6 v=77
68430 On ch=1 n=c#6 v=73
68440 On ch=1 n=a#6 v=74
68450 On ch=1 n=d#5 v=48
68486 On ch=1 n=a#6 v=0
68490 On ch=1 n=c#6 v=0
68496 On ch=1 n=f7 v=0
68510 On ch=1 n=d#5 v=0
68518 On ch=1 n=f#6 v=0
68822 Par ch=1 c=64 v=63
68832 Par ch=1 c=64 v=0
68858 On ch=1 n=g#5 v=59
68870 On ch=1 n=f6 v=66
68872 On ch=1 n=c6 v=51
68874 On ch=1 n=d#6 v=67
68890 On ch=1 n=f5 v=47
68920 On ch=1 n=c6 v=0
68922 Par ch=1 c=64 v=63
68940 Par ch=1 c=64 v=127
68948 On ch=1 n=g#5 v=0
68962 On ch=1 n=f5 v=0
68992 On ch=1 n=d#6 v=0
69082 On ch=1 n=f6 v=0
69324 On ch=1 n=c4 v=67
69344 On ch=1 n=f3 v=46
69364 On ch=1 n=c4 v=0
69388 On ch=1 n=f3 v=0
70186 On ch=1 n=c4 v=54
70200 On ch=1 n=f3 v=39
70274 On ch=1 n=f3 v=0
70274 On ch=1 n=c4 v=0
71068 Par ch=1 c=67 v=0
71068 On ch=1 n=f4 v=99
71074 On ch=1 n=e4 v=94
71076 On ch=1 n=c#4 v=88
71078 On ch=1 n=a#3 v=87
71200 Par ch=1 c=64 v=63
71200 Par ch=1 c=64 v=127
71254 On ch=1 n=e4 v=0
71296 On ch=1 n=c#4 v=0
71300 On ch=1 n=a#3 v=0
71462 Par ch=1 c=64 v=63
71468 Par ch=1 c=64 v=0
71490 On ch=1 n=c4 v=100
71496 On ch=1 n=g#3 v=104
71554 On ch=1 n=c4 v=0
71554 On ch=1 n=f4 v=0
71570 On ch=1 n=g#3 v=0
71884 Par ch=1 c=64 v=127
71896 On ch=1 n=f4 v=107
71902 On ch=1 n=c#4 v=93
71906 On ch=1 n=a#3 v=89
71906 On ch=1 n=f#3 v=94
72110 On ch=1 n=c#4 v=0
72112 On ch=1 n=a#3 v=0
72176 On ch=1 n=f#3 v=0
72294 Par ch=1 c=64 v=63
72298 On ch=1 n=g#3 v=88
72302 Par ch=1 c=64 v=0
72308 On ch=1 n=c4 v=84
72316 On ch=1 n=f3 v=80
72608 On ch=1 n=f3 v=0
72652 On ch=1 n=g#3 v=0
72660 On ch=1 n=c4 v=0
72714 On ch=1 n=f4 v=0
72718 On ch=1 n=g#4 v=114
73124 On ch=1 n=a#3 v=93
73126 On ch=1 n=c#4 v=95
73236 On ch=1 n=g#4 v=0
73304 On ch=1 n=f#4 v=98
73416 On ch=1 n=f#4 v=0
73464 On ch=1 n=c#4 v=0
73518 On ch=1 n=g#4 v=106
73524 On ch=1 n=f4 v=75
73634 On ch=1 n=g#4 v=0
73652 On ch=1 n=f4 v=0
73668 On ch=1 n=d#4 v=93
73676 On ch=1 n=a#4 v=103
73824 On ch=1 n=a#4 v=0
73828 On ch=1 n=d#4 v=0
73872 On ch=1 n=c#4 v=91
73876 On ch=1 n=b4 v=108
73882 On ch=1 n=g#3 v=85
73890 On ch=1 n=a#3 v=0
73892 On ch=1 n=f4 v=93
74062 On ch=1 n=a#4 v=93
74104 On ch=1 n=b4 v=0
74246 On ch=1 n=b4 v=94
74282 On ch=1 n=a#4 v=0
74404 On ch=1 n=c#5 v=108
74438 On ch=1 n=b4 v=0
74514 On ch=1 n=c#5 v=0
74624 On ch=1 n=d#5 v=103
74712 On ch=1 n=d#5 v=0
74988 On ch=1 n=g#3 v=0
74996 On ch=1 n=a3 v=84
75006 On ch=1 n=b4 v=107
75136 On ch=1 n=b4 v=0
75210 On ch=1 n=c#4 v=0
75262 On ch=1 n=a3 v=0
75376 On ch=1 n=a#3 v=92
75378 On ch=1 n=b4 v=104
75382 On ch=1 n=d4 v=93
75426 Par ch=1 c=64 v=63
75440 Par ch=1 c=64 v=127
75544 On ch=1 n=a#4 v=105
75556 On ch=1 n=g#3 v=81
75570 On ch=1 n=f4 v=0
75576 On ch=1 n=b4 v=0
75588 On ch=1 n=a#3 v=0
75622 On ch=1 n=a#4 v=0
75732 On ch=1 n=f#3 v=95
75736 Par ch=1 c=64 v=63
75746 Par ch=1 c=64 v=0
75758 On ch=1 n=d#5 v=109
75774 On ch=1 n=a#4 v=75
75786 On ch=1 n=g#3 v=0
75810 On ch=1 n=a#4 v=0
75874 On ch=1 n=f#3 v=0
75908 On ch=1 n=d#5 v=0
75908 On ch=1 n=d4 v=0
75910 On ch=1 n=f5 v=94
75922 On ch=1 n=f3 v=91
76028 On ch=1 n=f3 v=0
76120 On ch=1 n=f#5 v=112
76122 On ch=1 n=d#4 v=113
76128 On ch=1 n=d#3 v=103
76130 On ch=1 n=a#4 v=99
76138 Par ch=1 c=64 v=63
76140 Par ch=1 c=64 v=127
76158 On ch=1 n=f5 v=0
76292 On ch=1 n=a#4 v=0
76294 Par ch=1 c=64 v=63
76296 On ch=1 n=f5 v=86
76300 Par ch=1 c=64 v=0
76318 On ch=1 n=f#5 v=0
76402 On ch=1 n=f5 v=0
76500 Par ch=1 c=64 v=63
76504 Par ch=1 c=64 v=127
76518 On ch=1 n=f#5 v=118
76528 On ch=1 n=a#4 v=110
76560 On ch=1 n=d#4 v=0
76688 On ch=1 n=g#5 v=113
76708 On ch=1 n=c#4 v=112
76712 On ch=1 n=c#3 v=108
76742 On ch=1 n=f#5 v=0
76764 On ch=1 n=d#3 v=0
76830 On ch=1 n=c#4 v=0
76832 On ch=1 n=g#5 v=0
76840 On ch=1 n=c#3 v=0
76892 On ch=1 n=a#5 v=113
76906 On ch=1 n=c4 v=97
76914 On ch=1 n=c3 v=84
76928 Par ch=1 c=64 v=63
76936 Par ch=1 c=64 v=0
76980 On ch=1 n=a#4 v=0
76984 On ch=1 n=a#5 v=0
77290 On ch=1 n=f#5 v=116
77292 Par ch=1 c=64 v=127
77294 On ch=1 n=a#4 v=115
77298 On ch=1 n=d#5 v=113
77500 On ch=1 n=c3 v=0
77548 On ch=1 n=c4 v=0
77558 On ch=1 n=d#5 v=0
77578 On ch=1 n=a#4 v=0
77582 On ch=1 n=f#5 v=0
77658 Par ch=1 c=64 v=63
77664 Par ch=1 c=64 v=0
77670 On ch=1 n=c#4 v=114
77680 On ch=1 n=c#3 v=107
77680 On ch=1 n=f#5 v=113
77686 On ch=1 n=g#4 v=119
77690 On ch=1 n=c#5 v=116
77736 Par ch=1 c=64 v=63
77746 On ch=1 n=g#4 v=0
77746 Par ch=1 c=64 v=127
77762 On ch=1 n=c#5 v=0
77792 On ch=1 n=f#5 v=0
78084 Par ch=1 c=64 v=63
78086 On ch=1 n=c#6 v=121
78088 Par ch=1 c=64 v=0
78090 On ch=1 n=f5 v=117
78250 On ch=1 n=d#6 v=113
78320 On ch=1 n=c#6 v=0
78416 On ch=1 n=d#6 v=0
78464 On ch=1 n=f5 v=0
78484 On ch=1 n=f6 v=112
78502 Par ch=1 c=64 v=127
78678 On ch=1 n=d#6 v=112
78728 On ch=1 n=f6 v=0
78806 On ch=1 n=c#3 v=0
78850 On ch=1 n=c#4 v=0
78850 On ch=1 n=f6 v=102
78872 On ch=1 n=d#6 v=0
79002 On ch=1 n=d#4 v=113
79006 On ch=1 n=d#3 v=105
79012 On ch=1 n=f#6 v=115
79064 On ch=1 n=f6 v=0
79080 On ch=1 n=d#3 v=0
79084 On ch=1 n=d#4 v=0
79138 On ch=1 n=f#6 v=0
79210 On ch=1 n=g#6 v=118
79210 On ch=1 n=g#5 v=116
79214 On ch=1 n=c#6 v=112
79218 On ch=1 n=f4 v=103
79220 On ch=1 n=f3 v=97
79286 On ch=1 n=g#5 v=0
79292 On ch=1 n=c#6 v=0
79300 On ch=1 n=g#6 v=0
79314 Par ch=1 c=64 v=63
79328 Par ch=1 c=64 v=0
79664 On ch=1 n=b5 v=112
79678 On ch=1 n=c#5 v=109
79680 On ch=1 n=g5 v=93
79700 Par ch=1 c=64 v=63
79700 Par ch=1 c=64 v=127
79904 On ch=1 n=f4 v=0
80086 On ch=1 n=e4 v=93
80094 On ch=1 n=f3 v=0
80176 Par ch=1 c=64 v=63
80190 Par ch=1 c=64 v=0
80292 On ch=1 n=b5 v=0
80354 Par ch=1 c=64 v=63
80388 Par ch=1 c=64 v=127
80444 On ch=1 n=g5 v=0
80480 On ch=1 n=a#5 v=89
80496 On ch=1 n=f#5 v=72
80520 On ch=1 n=e4 v=0
80588 On ch=1 n=c#5 v=0
80648 On ch=1 n=a#5 v=0
80664 On ch=1 n=f#5 v=0
80902 Par ch=1 c=64 v=63
80906 On ch=1 n=a3 v=85
80908 Par ch=1 c=64 v=0
80914 On ch=1 n=a2 v=84
80994 Par ch=1 c=64 v=63
81004 On ch=1 n=a2 v=0
81006 Par ch=1 c=64 v=127
81018 On ch=1 n=a3 v=0
81104 On ch=1 n=c#4 v=76
81336 On ch=1 n=c#4 v=0
81342 On ch=1 n=f#4 v=84
81356 On ch=1 n=a5 v=84
81430 On ch=1 n=a5 v=0
81552 On ch=1 n=f#4 v=0
81556 On ch=1 n=a4 v=58
81724 On ch=1 n=a4 v=0
81762 On ch=1 n=c#5 v=93
81772 On ch=1 n=d4 v=69
81772 On ch=1 n=b2 v=84
81778 On ch=1 n=b3 v=75
81796 On ch=1 n=a4 v=17
81850 Par ch=1 c=64 v=63
81864 Par ch=1 c=64 v=0
81938 On ch=1 n=b4 v=89
81980 Par ch=1 c=64 v=63
82002 Par ch=1 c=64 v=127
82018 On ch=1 n=a4 v=0
82034 On ch=1 n=c#5 v=0
82156 On ch=1 n=a4 v=90
82178 On ch=1 n=d4 v=0
82202 On ch=1 n=b2 v=0
82242 On ch=1 n=b4 v=0
82272 On ch=1 n=b3 v=0
82320 On ch=1 n=g#4 v=104
82398 On ch=1 n=a4 v=0
82480 On ch=1 n=g#4 v=0
82540 On ch=1 n=g#4 v=91
82550 On ch=1 n=d4 v=68
82560 On ch=1 n=d3 v=47
82564 On ch=1 n=f#4 v=81
82638 Par ch=1 c=64 v=63
82652 Par ch=1 c=64 v=0
82802 Par ch=1 c=64 v=63
82816 Par ch=1 c=64 v=127
83016 On ch=1 n=a4 v=58
83022 On ch=1 n=d4 v=0
83044 On ch=1 n=d3 v=0
83112 On ch=1 n=f#4 v=0
83172 On ch=1 n=b4 v=81
83200 On ch=1 n=g#4 v=0
83238 On ch=1 n=a4 v=0
83324 Par ch=1 c=64 v=63
83354 Par ch=1 c=64 v=0
83404 On ch=1 n=b4 v=0
83456 On ch=1 n=c#4 v=81
83466 On ch=1 n=c#5 v=65
83470 On ch=1 n=e4 v=54
83472 On ch=1 n=c#3 v=72
83642 Par ch=1 c=64 v=63
83658 Par ch=1 c=64 v=127
83686 On ch=1 n=e4 v=0
83724 On ch=1 n=c#5 v=0
84160 On ch=1 n=d7 v=103
84170 On ch=1 n=c#7 v=100
84172 On ch=1 n=a6 v=102
84196 Par ch=1 c=64 v=63
84206 Par ch=1 c=64 v=0
84294 Par ch=1 c=64 v=63
84318 Par ch=1 c=64 v=127
84616 On ch=1 n=g#6 v=82
84628 On ch=1 n=b6 v=79
84652 On ch=1 n=a6 v=0
84666 On ch=1 n=c#7 v=0
84672 On ch=1 n=d7 v=0
84706 On ch=1 n=g#6 v=0
84716 On ch=1 n=b6 v=0
84974 Par ch=1 c=64 v=63
84976 Par ch=1 c=64 v=0
85028 On ch=1 n=d7 v=114
85034 On ch=1 n=f#6 v=104
85036 On ch=1 n=a6 v=96
85106 Par ch=1 c=64 v=63
85112 Par ch=1 c=64 v=127
85196 On ch=1 n=a6 v=0
85242 On ch=1 n=c#3 v=0
85254 On ch=1 n=f#6 v=0
85288 On ch=1 n=c#4 v=0
85440 On ch=1 n=g#6 v=100
85450 On ch=1 n=e6 v=94
85456 On ch=1 n=d7 v=0
85570 On ch=1 n=e6 v=0
85590 On ch=1 n=a4 v=84
85608 On ch=1 n=d7 v=106
85650 On ch=1 n=g#6 v=0
85652 On ch=1 n=d5 v=75
85708 On ch=1 n=a4 v=0
85714 On ch=1 n=d7 v=0
85770 On ch=1 n=f#5 v=62
85824 On ch=1 n=a5 v=92
85828 On ch=1 n=f#6 v=100
85830 On ch=1 n=c#7 v=103
85836 On ch=1 n=d6 v=86
85854 On ch=1 n=d5 v=0
85872 On ch=1 n=a5 v=0
85872 On ch=1 n=f#5 v=0
85934 On ch=1 n=d6 v=0
86004 On ch=1 n=b6 v=89
86006 On ch=1 n=c#7 v=0
86098 On ch=1 n=c#3 v=88
86114 Par ch=1 c=64 v=63
86124 Par ch=1 c=64 v=0
86160 On ch=1 n=c#4 v=75
86162 Par ch=1 c=64 v=63
86182 Par ch=1 c=64 v=127
86186 On ch=1 n=c#3 v=0
86224 On ch=1 n=c#4 v=0
86366 On ch=1 n=c#7 v=98
86376 On ch=1 n=e6 v=84
86378 On ch=1 n=g#5 v=105
86390 On ch=1 n=f#6 v=0
86400 On ch=1 n=b6 v=0
86436 On ch=1 n=g#5 v=0
86554 On ch=1 n=c#7 v=0
86564 On ch=1 n=e6 v=0
86830 On ch=1 n=c#7 v=103
86836 On ch=1 n=b6 v=100
86838 On ch=1 n=g#6 v=98
87248 On ch=1 n=f#6 v=78
87250 On ch=1 n=a6 v=80
87252 On ch=1 n=b6 v=0
87264 On ch=1 n=g#6 v=0
87312 On ch=1 n=c#7 v=0
87348 On ch=1 n=f#6 v=0
87354 On ch=1 n=a6 v=0
87642 On ch=1 n=c#7 v=115
87656 On ch=1 n=g#6 v=103
87662 On ch=1 n=e6 v=90
87722 On ch=1 n=e6 v=0
87836 On ch=1 n=g#6 v=0
88084 On ch=1 n=f#6 v=96
88096 On ch=1 n=d6 v=85
88098 On ch=1 n=c#7 v=0
88178 Par ch=1 c=64 v=63
88186 Par ch=1 c=64 v=0
88214 On ch=1 n=d6 v=0
88226 On ch=1 n=g#4 v=81
88232 On ch=1 n=c#7 v=112
88250 Par ch=1 c=64 v=63
88268 Par ch=1 c=64 v=127
88290 On ch=1 n=c#5 v=76
88304 On ch=1 n=f#6 v=0
88358 On ch=1 n=g#4 v=0
88366 On ch=1 n=c#7 v=0
88430 On ch=1 n=g#5 v=88
88460 On ch=1 n=c#6 v=97
88462 On ch=1 n=g#5 v=0
88464 On ch=1 n=b6 v=83
88464 On ch=1 n=e6 v=91
88472 On ch=1 n=c#5 v=0
88548 On ch=1 n=c#6 v=0
88632 On ch=1 n=a6 v=96
88646 On ch=1 n=e6 v=0
88692 On ch=1 n=b6 v=0
88694 On ch=1 n=c#3 v=80
88768 On ch=1 n=c#4 v=77
88782 On ch=1 n=c#3 v=0
88824 On ch=1 n=c#4 v=0
88946 On ch=1 n=b6 v=91
88962 On ch=1 n=d6 v=71
88978 On ch=1 n=f#5 v=107
88984 On ch=1 n=a6 v=0
89038 On ch=1 n=f#5 v=0
89160 On ch=1 n=b6 v=0
89188 On ch=1 n=d6 v=0
89506 On ch=1 n=b6 v=97
89516 On ch=1 n=a6 v=89
89522 On ch=1 n=f#6 v=94
89904 On ch=1 n=f#6 v=0
89914 On ch=1 n=g#6 v=73
89916 On ch=1 n=e6 v=70
89962 On ch=1 n=a6 v=0
89988 On ch=1 n=e6 v=0
89990 On ch=1 n=b6 v=0
90002 On ch=1 n=g#6 v=0
90318 On ch=1 n=b6 v=109
90332 On ch=1 n=f#6 v=96
90340 On ch=1 n=d6 v=88
90464 On ch=1 n=d6 v=0
90472 On ch=1 n=f#6 v=0
90754 On ch=1 n=c#6 v=98
90758 On ch=1 n=e6 v=86
90802 On ch=1 n=b6 v=0
90842 On ch=1 n=c#6 v=0
90892 On ch=1 n=b6 v=101
90920 On ch=1 n=f#4 v=89
90928 On ch=1 n=e6 v=0
90986 On ch=1 n=b4 v=68
90988 On ch=1 n=b6 v=0
90998 Par ch=1 c=64 v=63
91012 Par ch=1 c=64 v=0
91042 Par ch=1 c=64 v=63
91048 On ch=1 n=d5 v=27
91060 On ch=1 n=f#4 v=0
91064 Par ch=1 c=64 v=127
91078 On ch=1 n=f#5 v=104
91112 On ch=1 n=d6 v=106
91116 On ch=1 n=a6 v=106
91124 On ch=1 n=b5 v=86
91128 On ch=1 n=d5 v=0
91132 On ch=1 n=f#5 v=0
91146 On ch=1 n=b4 v=0
91164 On ch=1 n=b5 v=0
91202 On ch=1 n=d6 v=0
91248 On ch=1 n=a6 v=0
91294 On ch=1 n=g#6 v=98
91344 On ch=1 n=c#3 v=60
91412 On ch=1 n=c#4 v=76
91434 On ch=1 n=c#3 v=0
91460 On ch=1 n=c#4 v=0
91538 On ch=1 n=g#6 v=0
91582 On ch=1 n=a6 v=98
91592 On ch=1 n=c#6 v=86
91594 On ch=1 n=e5 v=92
91656 On ch=1 n=e5 v=0
91830 On ch=1 n=g#6 v=96
91848 On ch=1 n=a6 v=0
91928 On ch=1 n=c#6 v=0
91946 On ch=1 n=g#6 v=0
92128 On ch=1 n=f#6 v=87
92138 On ch=1 n=d5 v=103
92142 On ch=1 n=c#6 v=82
92340 On ch=1 n=e6 v=88
92370 On ch=1 n=f#6 v=0
92542 On ch=1 n=f#6 v=101
92558 Par ch=1 c=64 v=63
92604 On ch=1 n=e6 v=0
92608 Par ch=1 c=64 v=127
92722 On ch=1 n=e6 v=98
92778 On ch=1 n=f#6 v=0
92946 On ch=1 n=d6 v=102
92948 On ch=1 n=c#6 v=0
92952 On ch=1 n=b5 v=87
92992 On ch=1 n=e6 v=0
93062 On ch=1 n=b5 v=0
93118 On ch=1 n=d6 v=0
93154 On ch=1 n=c#6 v=105
93162 On ch=1 n=a5 v=77
93202 On ch=1 n=a5 v=0
93246 On ch=1 n=c#6 v=0
93372 On ch=1 n=f#5 v=71
93388 On ch=1 n=g#5 v=79
93390 On ch=1 n=b5 v=85
93464 On ch=1 n=c#6 v=73
93470 On ch=1 n=b5 v=0
93540 On ch=1 n=b5 v=71
93544 On ch=1 n=c#6 v=0
93792 On ch=1 n=g#5 v=0
93820 Par ch=1 c=64 v=63
93830 On ch=1 n=a5 v=81
93856 Par ch=1 c=64 v=127
93872 On ch=1 n=b5 v=0
93908 On ch=1 n=f#5 v=0
93946 On ch=1 n=d5 v=0
94024 On ch=1 n=b5 v=85
94042 On ch=1 n=a5 v=0
94116 On ch=1 n=b5 v=0
94332 Par ch=1 c=64 v=63
94340 On ch=1 n=c#3 v=56
94344 On ch=1 n=c#4 v=34
94346 Par ch=1 c=64 v=0
94352 On ch=1 n=c#6 v=81
94372 On ch=1 n=e5 v=50
94436 Par ch=1 c=64 v=63
94464 Par ch=1 c=64 v=127
94512 On ch=1 n=c#3 v=0
94544 On ch=1 n=e5 v=0
94552 On ch=1 n=c#4 v=0
94612 On ch=1 n=c#6 v=0
95056 On ch=1 n=c#7 v=57
95064 On ch=1 n=g#6 v=67
95080 On ch=1 n=d7 v=83
95222 On ch=1 n=c#7 v=0
95248 On ch=1 n=d7 v=0
95276 On ch=1 n=a6 v=79
95388 On ch=1 n=g#6 v=0
95462 On ch=1 n=a6 v=0
95466 On ch=1 n=d6 v=80
95478 On ch=1 n=b6 v=69
95496 On ch=1 n=f#6 v=77
95518 On ch=1 n=b6 v=0
95562 On ch=1 n=f#6 v=0
95624 On ch=1 n=d6 v=0
95630 On ch=1 n=a5 v=76
95722 On ch=1 n=a5 v=0
95818 On ch=1 n=a5 v=85
95842 On ch=1 n=c#6 v=85
95842 On ch=1 n=g#5 v=87
95946 On ch=1 n=c#6 v=0
95958 On ch=1 n=d6 v=98
95976 On ch=1 n=a5 v=0
96138 On ch=1 n=d6 v=0
96142 On ch=1 n=g#5 v=0
96164 On ch=1 n=f#5 v=75
96176 On ch=1 n=a6 v=84
96196 On ch=1 n=f#5 v=0
96260 On ch=1 n=a6 v=0
96332 On ch=1 n=d7 v=97
96430 On ch=1 n=d7 v=0
96432 On ch=1 n=a4 v=73
96454 Par ch=1 c=64 v=63
96494 On ch=1 n=d5 v=69
96508 Par ch=1 c=64 v=127
96534 On ch=1 n=a4 v=0
96582 On ch=1 n=f#5 v=74
96600 On ch=1 n=a5 v=76
96626 On ch=1 n=f#6 v=73
96632 On ch=1 n=d6 v=54
96634 On ch=1 n=c#7 v=72
96644 On ch=1 n=a5 v=0
96644 On ch=1 n=d5 v=0
96650 On ch=1 n=f#5 v=0
96726 On ch=1 n=d6 v=0
96788 On ch=1 n=c#7 v=0
96816 On ch=1 n=b6 v=77
96820 Par ch=1 c=64 v=63
96840 Par ch=1 c=64 v=63
96844 Par ch=1 c=64 v=127
96878 Par ch=1 c=64 v=127
96882 On ch=1 n=f#6 v=0
96902 On ch=1 n=c#3 v=78
96970 On ch=1 n=c#4 v=74
96988 On ch=1 n=c#3 v=0
97020 On ch=1 n=c#4 v=0
97080 On ch=1 n=b6 v=0
97182 On ch=1 n=g#5 v=83
97204 On ch=1 n=e6 v=78
97212 On ch=1 n=c#7 v=90
97250 On ch=1 n=g#5 v=0
97284 On ch=1 n=e6 v=0
97314 On ch=1 n=c#7 v=0
97746 On ch=1 n=f#6 v=67
97754 On ch=1 n=b6 v=62
97788 On ch=1 n=c#7 v=76
97856 Par ch=1 c=64 v=127
97866 Par ch=1 c=64 v=127
97954 On ch=1 n=c#7 v=0
97984 On ch=1 n=b6 v=0
98006 On ch=1 n=g#6 v=80
98068 On ch=1 n=f#6 v=0
98154 On ch=1 n=g#6 v=0
98182 On ch=1 n=c#6 v=98
98206 On ch=1 n=e6 v=80
98208 On ch=1 n=a6 v=75
98244 On ch=1 n=a6 v=0
98290 On ch=1 n=e6 v=0
98300 On ch=1 n=c#6 v=0
98344 On ch=1 n=g#5 v=90
98466 On ch=1 n=g#5 v=0
98554 On ch=1 n=b5 v=91
98556 On ch=1 n=f#5 v=92
98566 On ch=1 n=g#5 v=99
98716 On ch=1 n=c#6 v=107
98736 On ch=1 n=b5 v=0
98738 On ch=1 n=g#5 v=0
98870 On ch=1 n=c#6 v=0
98888 On ch=1 n=f#5 v=0
98890 On ch=1 n=a5 v=84
98898 On ch=1 n=e5 v=76
98910 On ch=1 n=g#6 v=103
98940 On ch=1 n=e5 v=0
98940 On ch=1 n=a5 v=0
99004 On ch=1 n=g#6 v=0
99060 On ch=1 n=c#7 v=100
99140 On ch=1 n=g#4 v=66
99152 On ch=1 n=c#7 v=0
99160 Par ch=1 c=64 v=63
99172 Par ch=1 c=64 v=0
99210 On ch=1 n=c#5 v=75
99240 On ch=1 n=e5 v=68
99240 Par ch=1 c=64 v=63
99260 On ch=1 n=g#5 v=94
99260 Par ch=1 c=64 v=127
99298 On ch=1 n=g#5 v=0
99300 On ch=1 n=e5 v=0
99330 On ch=1 n=c#5 v=0
99332 On ch=1 n=b6 v=79
99352 On ch=1 n=g#4 v=0
99358 On ch=1 n=c#6 v=66
99358 On ch=1 n=e6 v=71
99452 On ch=1 n=c#6 v=0
99504 On ch=1 n=a6 v=93
99528 On ch=1 n=e6 v=0
99528 On ch=1 n=b6 v=0
99550 On ch=1 n=c#3 v=67
99634 On ch=1 n=c#4 v=85
99650 On ch=1 n=c#3 v=0
99688 On ch=1 n=c#4 v=0
99836 On ch=1 n=f#5 v=98
99838 On ch=1 n=a6 v=0
99856 On ch=1 n=b6 v=87
99866 On ch=1 n=d6 v=85
99902 On ch=1 n=f#5 v=0
99946 On ch=1 n=d6 v=0
99976 On ch=1 n=b6 v=0
100378 On ch=1 n=e6 v=68
100384 On ch=1 n=a6 v=65
100386 On ch=1 n=b6 v=81
100528 On ch=1 n=b6 v=0
100554 On ch=1 n=e6 v=0
100574 On ch=1 n=a6 v=0
100650 On ch=1 n=f#6 v=91
100750 On ch=1 n=f#6 v=0
100834 On ch=1 n=b5 v=74
100850 On ch=1 n=g#6 v=88
100866 On ch=1 n=d6 v=71
100902 On ch=1 n=g#6 v=0
100942 On ch=1 n=d6 v=0
100994 On ch=1 n=f#5 v=90
101002 On ch=1 n=b5 v=0
101114 On ch=1 n=f#5 v=0
101188 On ch=1 n=a5 v=82
101188 On ch=1 n=f#5 v=93
101276 On ch=1 n=a5 v=0
101326 On ch=1 n=f#5 v=0
101342 On ch=1 n=b5 v=99
101534 On ch=1 n=d5 v=91
101550 On ch=1 n=b5 v=0
101556 On ch=1 n=f#6 v=97
101608 On ch=1 n=d5 v=0
101648 On ch=1 n=f#6 v=0
101706 On ch=1 n=b6 v=100
101812 On ch=1 n=b6 v=0
101842 On ch=1 n=f#4 v=73
101888 On ch=1 n=b4 v=61
101914 Par ch=1 c=64 v=63
101918 On ch=1 n=d5 v=82
101932 On ch=1 n=f#5 v=94
101934 On ch=1 n=a6 v=91
101938 On ch=1 n=d6 v=79
101944 On ch=1 n=b5 v=71
101972 Par ch=1 c=64 v=127
101988 On ch=1 n=f#5 v=0
101998 On ch=1 n=d5 v=0
102022 On ch=1 n=b4 v=0
102044 On ch=1 n=f#4 v=0
102052 On ch=1 n=a6 v=0
102082 On ch=1 n=d6 v=0
102092 On ch=1 n=b5 v=0
102126 On ch=1 n=g#6 v=99
102312 On ch=1 n=c#3 v=86
102396 Par ch=1 c=64 v=63
102408 On ch=1 n=c#4 v=88
102418 On ch=1 n=g#6 v=0
102428 Par ch=1 c=64 v=127
102434 On ch=1 n=c#3 v=0
102472 On ch=1 n=c#4 v=0
102594 On ch=1 n=a6 v=90
102602 On ch=1 n=c#6 v=80
102616 On ch=1 n=e5 v=87
102682 On ch=1 n=e5 v=0
102920 On ch=1 n=g#6 v=99
102948 On ch=1 n=a6 v=0
103012 On ch=1 n=c#6 v=0
103038 On ch=1 n=g#6 v=0
103158 On ch=1 n=d5 v=89
103172 On ch=1 n=f#6 v=96
103180 On ch=1 n=c#6 v=88
103332 On ch=1 n=c#6 v=0
103360 On ch=1 n=e6 v=99
103436 On ch=1 n=f#6 v=0
103554 On ch=1 n=f#6 v=105
103596 On ch=1 n=e6 v=0
103706 On ch=1 n=f#6 v=0
103734 On ch=1 n=e6 v=106
103848 On ch=1 n=e6 v=0
103922 On ch=1 n=f#5 v=71
103938 On ch=1 n=d6 v=99
103954 On ch=1 n=b5 v=76
104002 On ch=1 n=b5 v=0
104036 On ch=1 n=d6 v=0
104102 On ch=1 n=a5 v=85
104110 On ch=1 n=c#6 v=99
104178 On ch=1 n=a5 v=0
104260 On ch=1 n=c#6 v=0
104330 Par ch=1 c=64 v=63
104372 On ch=1 n=g#5 v=97
104374 Par ch=1 c=64 v=127
104380 On ch=1 n=b5 v=90
104454 On ch=1 n=c#6 v=91
104474 On ch=1 n=b5 v=0
104536 On ch=1 n=b5 v=54
104546 On ch=1 n=c#6 v=0
104720 On ch=1 n=g#5 v=0
104830 On ch=1 n=a5 v=86
104868 On ch=1 n=b5 v=0
104954 On ch=1 n=f#5 v=0
104982 On ch=1 n=b5 v=81
104998 On ch=1 n=a5 v=0
105016 On ch=1 n=d5 v=0
105148 On ch=1 n=b5 v=0
105288 On ch=1 n=c#5 v=58
105296 On ch=1 n=c#6 v=84
105302 On ch=1 n=g#5 v=71
105306 On ch=1 n=e5 v=30
105310 Par ch=1 c=64 v=63
105388 Par ch=1 c=64 v=127
105406 On ch=1 n=c#6 v=0
105408 On ch=1 n=g#5 v=0
105434 On ch=1 n=e5 v=0
105438 On ch=1 n=c#5 v=0
105708 Par ch=1 c=64 v=63
105742 Par ch=1 c=64 v=0
105948 On ch=1 n=c#5 v=88
105968 On ch=1 n=f#4 v=63
105976 On ch=1 n=a4 v=57
105978 On ch=1 n=a3 v=48
106052 Par ch=1 c=64 v=63
106052 Par ch=1 c=64 v=127
106194 On ch=1 n=f#4 v=0
106394 On ch=1 n=a4 v=0
106396 On ch=1 n=d4 v=76
106412 On ch=1 n=g4 v=75
106416 On ch=1 n=e4 v=73
106424 Par ch=1 c=64 v=63
106436 Par ch=1 c=64 v=0
106448 On ch=1 n=a3 v=0
106470 On ch=1 n=c#5 v=0
106472 On ch=1 n=d4 v=0
106504 On ch=1 n=e4 v=0
106522 On ch=1 n=g4 v=0
106580 On ch=1 n=a4 v=82
106704 Par ch=1 c=64 v=63
106708 On ch=1 n=a4 v=0
106708 Par ch=1 c=64 v=127
106776 On ch=1 n=b4 v=92
106778 On ch=1 n=a3 v=79
106788 On ch=1 n=g4 v=71
106796 On ch=1 n=e4 v=62
106842 On ch=1 n=a3 v=0
106848 On ch=1 n=e4 v=0
106852 On ch=1 n=g4 v=0
106902 On ch=1 n=b4 v=0
106942 On ch=1 n=c#5 v=94
106946 On ch=1 n=e4 v=42
106954 Par ch=1 c=64 v=63
106964 Par ch=1 c=64 v=0
106994 On ch=1 n=e4 v=0
107046 On ch=1 n=c#5 v=0
107106 Par ch=1 c=64 v=63
107114 Par ch=1 c=64 v=127
107148 On ch=1 n=c#5 v=104
107150 On ch=1 n=c#3 v=80
107156 On ch=1 n=g#3 v=78
107162 On ch=1 n=e4 v=81
107166 On ch=1 n=g#4 v=85
107198 On ch=1 n=g#3 v=0
107198 On ch=1 n=c#3 v=0
107204 On ch=1 n=e4 v=0
107228 On ch=1 n=g#4 v=0
107248 On ch=1 n=c#5 v=0
107336 Par ch=1 c=64 v=63
107350 Par ch=1 c=64 v=0
107656 On ch=1 n=b5 v=116
107662 On ch=1 n=d4 v=114
107662 On ch=1 n=a5 v=103
107664 Par ch=1 c=64 v=127
107664 On ch=1 n=d5 v=113
107668 On ch=1 n=f#5 v=108
107722 On ch=1 n=d5 v=0
107780 On ch=1 n=f#5 v=0
107838 On ch=1 n=a5 v=0
108084 On ch=1 n=d4 v=0
108094 On ch=1 n=g5 v=89
108094 On ch=1 n=g4 v=102
108104 On ch=1 n=c5 v=89
108110 Par ch=1 c=64 v=63
108112 On ch=1 n=e5 v=84
108118 Par ch=1 c=64 v=0
108154 On ch=1 n=b5 v=0
108162 On ch=1 n=c5 v=0
108172 On ch=1 n=g4 v=0
108174 On ch=1 n=e5 v=0
108204 On ch=1 n=g5 v=0
108302 On ch=1 n=g5 v=108
108400 On ch=1 n=g5 v=0
108522 On ch=1 n=a5 v=111
108524 On ch=1 n=f#5 v=112
108528 On ch=1 n=d4 v=112
108534 On ch=1 n=e5 v=99
108540 On ch=1 n=c5 v=84
108572 On ch=1 n=c5 v=0
108590 On ch=1 n=e5 v=0
108618 On ch=1 n=d4 v=0
108634 On ch=1 n=a5 v=0
108636 On ch=1 n=f#5 v=0
108728 On ch=1 n=b5 v=108
108860 On ch=1 n=b5 v=0
108936 On ch=1 n=b5 v=107
108938 On ch=1 n=f#4 v=118
108940 On ch=1 n=f#5 v=110
108942 On ch=1 n=b3 v=97
108944 On ch=1 n=d5 v=106
108946 Par ch=1 c=64 v=63
108948 Par ch=1 c=64 v=127
108980 On ch=1 n=d5 v=0
108998 On ch=1 n=f#4 v=0
109004 On ch=1 n=f#5 v=0
109006 On ch=1 n=b5 v=0
109018 On ch=1 n=b3 v=0
109072 Par ch=1 c=64 v=63
109092 Par ch=1 c=64 v=0
109434 On ch=1 n=c#5 v=96
109436 Par ch=1 c=64 v=63
109438 On ch=1 n=a3 v=35
109442 Par ch=1 c=64 v=127
109460 On ch=1 n=a4 v=60
109470 On ch=1 n=f#4 v=70
109642 On ch=1 n=f#4 v=0
109844 On ch=1 n=a4 v=0
109850 On ch=1 n=d4 v=68
109872 On ch=1 n=e4 v=65
109878 On ch=1 n=g4 v=59
109900 On ch=1 n=a3 v=0
109914 On ch=1 n=d4 v=0
109932 Par ch=1 c=64 v=63
109934 On ch=1 n=c#5 v=0
109950 Par ch=1 c=64 v=0
109952 On ch=1 n=e4 v=0
109986 On ch=1 n=g4 v=0
110024 On ch=1 n=a4 v=78
110182 On ch=1 n=a4 v=0
110186 Par ch=1 c=64 v=63
110202 Par ch=1 c=64 v=127
110226 On ch=1 n=b4 v=94
110230 On ch=1 n=a3 v=82
110244 On ch=1 n=g4 v=63
110250 On ch=1 n=e4 v=60
110286 On ch=1 n=a3 v=0
110304 On ch=1 n=e4 v=0
110308 On ch=1 n=g4 v=0
110388 On ch=1 n=c#5 v=96
110402 On ch=1 n=b4 v=0
110404 Par ch=1 c=64 v=63
110418 Par ch=1 c=64 v=0
110502 On ch=1 n=c#5 v=0
110554 Par ch=1 c=64 v=63
110568 Par ch=1 c=64 v=127
110586 On ch=1 n=c#3 v=85
110586 On ch=1 n=c#5 v=104
110586 On ch=1 n=g#3 v=90
110594 On ch=1 n=g#4 v=96
110594 On ch=1 n=e4 v=87
110634 On ch=1 n=c#3 v=0
110640 On ch=1 n=e4 v=0
110640 On ch=1 n=g#3 v=0
110672 On ch=1 n=g#4 v=0
110688 On ch=1 n=c#5 v=0
110712 Par ch=1 c=64 v=63
110726 Par ch=1 c=64 v=0
110998 Par ch=1 c=64 v=63
111002 Par ch=1 c=64 v=127
111010 On ch=1 n=b5 v=114
111012 On ch=1 n=d4 v=120
111012 On ch=1 n=a5 v=106
111016 On ch=1 n=d5 v=116
111018 On ch=1 n=f#5 v=115
111072 On ch=1 n=d5 v=0
111108 On ch=1 n=f#5 v=0
111174 On ch=1 n=a5 v=0
111414 On ch=1 n=g4 v=108
111418 On ch=1 n=g5 v=88
111422 On ch=1 n=c5 v=94
111424 Par ch=1 c=64 v=63
111424 On ch=1 n=e5 v=92
111428 On ch=1 n=d4 v=0
111434 Par ch=1 c=64 v=0
111478 On ch=1 n=b5 v=0
111486 On ch=1 n=c5 v=0
111496 On ch=1 n=g4 v=0
111502 On ch=1 n=e5 v=0
111526 On ch=1 n=g5 v=0
111604 On ch=1 n=g5 v=107
111714 On ch=1 n=g5 v=0
111810 On ch=1 n=a5 v=113
111818 On ch=1 n=f#5 v=108
111820 On ch=1 n=d4 v=120
111822 Par ch=1 c=64 v=63
111824 Par ch=1 c=64 v=127
111824 On ch=1 n=e5 v=101
111826 On ch=1 n=c5 v=97
111870 On ch=1 n=c5 v=0
111898 On ch=1 n=e5 v=0
111918 On ch=1 n=d4 v=0
111918 On ch=1 n=a5 v=0
111926 On ch=1 n=f#5 v=0
111998 On ch=1 n=b5 v=104
112016 Par ch=1 c=64 v=63
112028 Par ch=1 c=64 v=0
112122 On ch=1 n=b5 v=0
112204 Par ch=1 c=64 v=63
112212 Par ch=1 c=64 v=127
112218 On ch=1 n=f#4 v=118
112218 On ch=1 n=b3 v=106
112220 On ch=1 n=b5 v=109
112222 On ch=1 n=f#5 v=109
112224 On ch=1 n=d5 v=111
112266 On ch=1 n=f#4 v=0
112280 On ch=1 n=d5 v=0
112292 On ch=1 n=b3 v=0
112296 On ch=1 n=f#5 v=0
112296 On ch=1 n=b5 v=0
112612 Par ch=1 c=64 v=63
112628 Par ch=1 c=64 v=0
112770 Par ch=1 c=64 v=63
112780 On ch=1 n=b1 v=84
112788 Par ch=1 c=64 v=127
112792 On ch=1 n=b2 v=72
112792 On ch=1 n=f#5 v=91
112804 On ch=1 n=d5 v=82
112808 On ch=1 n=b4 v=69
112872 On ch=1 n=b1 v=0
112874 On ch=1 n=b2 v=0
113078 On ch=1 n=c#3 v=78
113086 On ch=1 n=c#2 v=76
113126 On ch=1 n=b4 v=0
113170 On ch=1 n=c#3 v=0
113180 On ch=1 n=c#2 v=0
113316 On ch=1 n=c#5 v=104
113322 On ch=1 n=a4 v=86
113322 On ch=1 n=d3 v=87
113322 On ch=1 n=d2 v=80
113330 Par ch=1 c=64 v=63
113344 Par ch=1 c=64 v=0
113368 On ch=1 n=a4 v=0
113368 On ch=1 n=d5 v=0
113386 On ch=1 n=d2 v=0
113388 On ch=1 n=d3 v=0
113396 On ch=1 n=c#5 v=0
113402 On ch=1 n=f#5 v=0
113498 On ch=1 n=e3 v=102
113500 On ch=1 n=e2 v=102
113556 On ch=1 n=e2 v=0
113564 On ch=1 n=e3 v=0
113690 Par ch=1 c=64 v=63
113694 Par ch=1 c=64 v=127
113724 On ch=1 n=a5 v=112
113726 On ch=1 n=f#3 v=103
113730 On ch=1 n=f#5 v=107
113732 On ch=1 n=f#2 v=97
113732 On ch=1 n=d5 v=109
113796 On ch=1 n=f#3 v=0
113806 On ch=1 n=f#2 v=0
113828 On ch=1 n=d5 v=0
113876 On ch=1 n=f#5 v=0
113914 On ch=1 n=g3 v=89
113916 On ch=1 n=g2 v=86
113970 On ch=1 n=g2 v=0
113986 On ch=1 n=g3 v=0
114086 Par ch=1 c=64 v=63
114116 Par ch=1 c=64 v=0
114126 On ch=1 n=c#5 v=88
114128 On ch=1 n=e5 v=86
114130 On ch=1 n=a3 v=101
114136 On ch=1 n=a2 v=106
114178 On ch=1 n=a2 v=0
114182 On ch=1 n=c#5 v=0
114182 On ch=1 n=a5 v=0
114186 On ch=1 n=a3 v=0
114206 On ch=1 n=e5 v=0
114290 On ch=1 n=b3 v=109
114292 On ch=1 n=b2 v=114
114316 On ch=1 n=a3 v=59
114346 On ch=1 n=b2 v=0
114350 On ch=1 n=b3 v=0
114366 On ch=1 n=a3 v=0
114504 On ch=1 n=c#4 v=118
114506 On ch=1 n=c#3 v=115
114508 On ch=1 n=c#6 v=115
114518 On ch=1 n=f#5 v=110
114518 Par ch=1 c=64 v=63
114520 Par ch=1 c=64 v=127
114520 On ch=1 n=a5 v=98
114578 On ch=1 n=c#3 v=0
114578 On ch=1 n=c#4 v=0
114674 On ch=1 n=d4 v=106
114676 On ch=1 n=d3 v=102
114678 On ch=1 n=f#5 v=0
114734 On ch=1 n=d3 v=0
114742 On ch=1 n=d4 v=0
114756 Par ch=1 c=64 v=63
114778 Par ch=1 c=64 v=0
114800 Par ch=1 c=64 v=63
114830 Par ch=1 c=64 v=127
114852 On ch=1 n=a5 v=0
114876 On ch=1 n=e4 v=111
114880 On ch=1 n=e3 v=109
114890 On ch=1 n=g5 v=87
114898 On ch=1 n=e5 v=77
114934 On ch=1 n=e5 v=0
114938 On ch=1 n=e4 v=0
114940 On ch=1 n=e3 v=0
114950 On ch=1 n=g5 v=0
114954 On ch=1 n=c#6 v=0
115064 On ch=1 n=f#4 v=114
115070 On ch=1 n=f#3 v=113
115120 On ch=1 n=f#3 v=0
115124 On ch=1 n=f#4 v=0
115206 Par ch=1 c=64 v=63
115216 Par ch=1 c=64 v=0
115260 On ch=1 n=f#6 v=114
115268 On ch=1 n=d6 v=103
115270 On ch=1 n=b5 v=102
115272 On ch=1 n=g4 v=109
115274 On ch=1 n=g3 v=111
115296 Par ch=1 c=64 v=63
115316 Par ch=1 c=64 v=127
115334 On ch=1 n=g3 v=0
115334 On ch=1 n=g4 v=0
115426 On ch=1 n=b5 v=0
115442 On ch=1 n=a4 v=111
115444 On ch=1 n=a3 v=109
115504 On ch=1 n=a3 v=0
115510 On ch=1 n=a4 v=0
115546 Par ch=1 c=64 v=63
115564 Par ch=1 c=64 v=0
115600 Par ch=1 c=64 v=63
115632 Par ch=1 c=64 v=127
115650 On ch=1 n=b4 v=113
115652 On ch=1 n=b3 v=109
115654 On ch=1 n=c#6 v=105
115658 On ch=1 n=a5 v=101
115684 On ch=1 n=d6 v=0
115714 On ch=1 n=b3 v=0
115714 On ch=1 n=b4 v=0
115780 On ch=1 n=c#6 v=0
115784 On ch=1 n=a5 v=0
115840 On ch=1 n=c#5 v=118
115846 On ch=1 n=c#4 v=114
115904 On ch=1 n=c#4 v=0
115916 On ch=1 n=c#5 v=0
115966 Par ch=1 c=64 v=63
115986 Par ch=1 c=64 v=0
115990 On ch=1 n=f#6 v=0
116052 On ch=1 n=f#6 v=84
116054 On ch=1 n=b5 v=102
116056 On ch=1 n=d5 v=114
116060 On ch=1 n=d4 v=112
116072 Par ch=1 c=64 v=63
116090 Par ch=1 c=64 v=127
116114 On ch=1 n=d4 v=0
116120 On ch=1 n=d5 v=0
116184 On ch=1 n=b5 v=0
116250 On ch=1 n=e5 v=116
116252 On ch=1 n=e4 v=116
116308 On ch=1 n=e4 v=0
116318 On ch=1 n=e5 v=0
116524 On ch=1 n=a5 v=114
116526 On ch=1 n=f#5 v=116
116532 On ch=1 n=f#4 v=106
116562 Par ch=1 c=64 v=63
116570 Par ch=1 c=64 v=0
116654 Par ch=1 c=64 v=63
116664 On ch=1 n=f#6 v=0
116672 Par ch=1 c=64 v=127
116722 On ch=1 n=a5 v=0
116918 Par ch=1 c=64 v=63
116948 Par ch=1 c=64 v=0
117068 Par ch=1 c=64 v=63
117072 On ch=1 n=a6 v=127
117080 Par ch=1 c=64 v=127
117116 On ch=1 n=f#5 v=0
117184 On ch=1 n=f#4 v=0
117576 On ch=1 n=b4 v=113
117580 On ch=1 n=d6 v=100
117580 On ch=1 n=a5 v=89
117580 On ch=1 n=b3 v=109
117608 On ch=1 n=b5 v=57
117658 On ch=1 n=a6 v=0
117766 On ch=1 n=b5 v=0
117770 On ch=1 n=a5 v=0
117782 On ch=1 n=b3 v=0
117816 On ch=1 n=g6 v=110
117836 On ch=1 n=b4 v=0
117870 On ch=1 n=d6 v=0
118014 On ch=1 n=g6 v=0
118056 On ch=1 n=f#6 v=104
118056 Par ch=1 c=64 v=63
118058 On ch=1 n=e5 v=112
118058 On ch=1 n=e4 v=103
118066 On ch=1 n=d6 v=102
118068 On ch=1 n=g5 v=109
118078 Par ch=1 c=64 v=0
118096 Par ch=1 c=64 v=63
118124 Par ch=1 c=64 v=127
118134 On ch=1 n=e5 v=0
118168 On ch=1 n=e4 v=0
118202 On ch=1 n=g5 v=0
118208 On ch=1 n=d6 v=0
118240 On ch=1 n=e6 v=97
118270 On ch=1 n=f#6 v=0
118440 Par ch=1 c=64 v=63
118454 Par ch=1 c=64 v=0
118456 On ch=1 n=f#6 v=108
118458 On ch=1 n=f#3 v=104
118460 On ch=1 n=f#4 v=116
118470 On ch=1 n=a5 v=84
118472 On ch=1 n=c#6 v=93
118490 Par ch=1 c=64 v=63
118518 Par ch=1 c=64 v=127
118560 On ch=1 n=e6 v=0
118564 On ch=1 n=f#3 v=0
118604 On ch=1 n=f#4 v=0
118612 On ch=1 n=a5 v=0
118662 On ch=1 n=f#6 v=0
118680 On ch=1 n=g6 v=109
118714 On ch=1 n=c#6 v=0
118836 On ch=1 n=g6 v=0
118934 On ch=1 n=b4 v=77
118934 Par ch=1 c=64 v=63
118948 On ch=1 n=a6 v=114
118952 On ch=1 n=d5 v=83
118958 On ch=1 n=f5 v=96
118970 On ch=1 n=f#5 v=106
118984 Par ch=1 c=64 v=127
119048 On ch=1 n=a6 v=0
119112 On ch=1 n=d5 v=0
119146 On ch=1 n=b4 v=0
119152 On ch=1 n=f5 v=0
119160 On ch=1 n=b6 v=112
119252 On ch=1 n=b6 v=0
119378 On ch=1 n=a4 v=90
119386 On ch=1 n=c#5 v=90
119388 On ch=1 n=c#7 v=119
119452 On ch=1 n=c#7 v=0
119474 On ch=1 n=c#5 v=0
119496 On ch=1 n=a4 v=0
119502 Par ch=1 c=64 v=63
119518 Par ch=1 c=64 v=0
119522 On ch=1 n=f#5 v=0
119798 On ch=1 n=g4 v=67
119804 On ch=1 n=f#5 v=112
119810 On ch=1 n=d5 v=102
119812 On ch=1 n=c#7 v=123
119816 On ch=1 n=b4 v=80
119824 Par ch=1 c=64 v=63
119826 Par ch=1 c=64 v=127
120000 On ch=1 n=d5 v=0
120002 On ch=1 n=g4 v=0
120016 On ch=1 n=b4 v=0
120238 On ch=1 n=f#4 v=83
120242 On ch=1 n=c#5 v=89
120242 On ch=1 n=a4 v=68
120312 Par ch=1 c=64 v=63
120322 Par ch=1 c=64 v=0
120400 Par ch=1 c=64 v=63
120420 Par ch=1 c=64 v=127
120476 On ch=1 n=a6 v=103
120478 On ch=1 n=f#4 v=0
120488 On ch=1 n=a4 v=0
120492 On ch=1 n=c#7 v=0
120520 On ch=1 n=f#5 v=0
120528 On ch=1 n=c#5 v=0
120752 On ch=1 n=a5 v=98
120758 On ch=1 n=f#6 v=106
120800 On ch=1 n=a6 v=0
120982 On ch=1 n=c#6 v=107
121056 On ch=1 n=f#6 v=0
121180 On ch=1 n=b4 v=63
121184 On ch=1 n=d5 v=78
121188 On ch=1 n=c#6 v=0
121216 On ch=1 n=d6 v=96
121300 On ch=1 n=a5 v=0
121340 Par ch=1 c=64 v=63
121352 Par ch=1 c=64 v=0
121420 Par ch=1 c=64 v=63
121426 On ch=1 n=d5 v=0
121428 On ch=1 n=g#5 v=95
121458 Par ch=1 c=64 v=127
121620 On ch=1 n=f#5 v=103
121698 On ch=1 n=g#5 v=0
121780 On ch=1 n=e5 v=101
121808 On ch=1 n=f#5 v=0
121982 On ch=1 n=f#5 v=112
121984 Par ch=1 c=64 v=63
121994 Par ch=1 c=64 v=0
122040 On ch=1 n=e5 v=0
122118 On ch=1 n=d6 v=0
122148 On ch=1 n=f#5 v=0
122160 On ch=1 n=e6 v=113
122170 On ch=1 n=b4 v=0
122370 On ch=1 n=g#5 v=98
122396 On ch=1 n=f#6 v=108
122416 Par ch=1 c=64 v=63
122418 Par ch=1 c=64 v=127
122430 On ch=1 n=e6 v=0
122516 On ch=1 n=g#5 v=0
122584 On ch=1 n=g#6 v=106
122662 On ch=1 n=f#6 v=0
122794 On ch=1 n=e4 v=87
122804 On ch=1 n=b6 v=81
122810 On ch=1 n=d5 v=76
122830 On ch=1 n=g#6 v=0
122876 On ch=1 n=e4 v=0
122884 On ch=1 n=d5 v=0
122986 On ch=1 n=g#6 v=94
122992 On ch=1 n=b6 v=0
123178 On ch=1 n=g#5 v=93
123198 On ch=1 n=e6 v=90
123244 On ch=1 n=g#6 v=0
123360 On ch=1 n=b5 v=88
123378 On ch=1 n=e6 v=0
123534 On ch=1 n=a4 v=50
123542 On ch=1 n=c#5 v=70
123606 Par ch=1 c=64 v=63
123614 Par ch=1 c=64 v=0
123616 On ch=1 n=c#6 v=86
123664 On ch=1 n=b5 v=0
123718 Par ch=1 c=64 v=63
123730 Par ch=1 c=64 v=127
123740 On ch=1 n=g#5 v=0
123864 On ch=1 n=f#5 v=83
123982 On ch=1 n=c#5 v=0
124042 On ch=1 n=e5 v=92
124068 On ch=1 n=f#5 v=0
124206 On ch=1 n=d5 v=100
124240 On ch=1 n=e5 v=0
124410 On ch=1 n=e5 v=104
124458 On ch=1 n=d5 v=0
124476 Par ch=1 c=64 v=63
124486 Par ch=1 c=64 v=0
124516 On ch=1 n=c#6 v=0
124564 On ch=1 n=e5 v=0
124568 On ch=1 n=d6 v=103
124722 Par ch=1 c=64 v=63
124732 Par ch=1 c=64 v=127
124768 On ch=1 n=a4 v=0
124770 On ch=1 n=f#5 v=105
124784 On ch=1 n=e6 v=108
124810 On ch=1 n=d6 v=0
124862 On ch=1 n=f#5 v=0
124940 On ch=1 n=f#6 v=107
124998 On ch=1 n=e6 v=0
125128 On ch=1 n=d4 v=80
125138 On ch=1 n=a6 v=97
125142 On ch=1 n=c#5 v=86
125180 On ch=1 n=f#6 v=0
125206 On ch=1 n=d4 v=0
125230 On ch=1 n=c#5 v=0
125308 On ch=1 n=f#6 v=96
125322 On ch=1 n=a6 v=0
125490 On ch=1 n=f#5 v=104
125512 On ch=1 n=d6 v=85
125556 On ch=1 n=f#6 v=0
125672 On ch=1 n=a5 v=92
125684 On ch=1 n=d6 v=0
125886 Par ch=1 c=64 v=63
125896 On ch=1 n=g#4 v=61
125896 Par ch=1 c=64 v=0
125898 On ch=1 n=b4 v=68
125910 On ch=1 n=b5 v=90
125950 On ch=1 n=a5 v=0
126012 Par ch=1 c=64 v=63
126032 On ch=1 n=f#5 v=0
126036 Par ch=1 c=64 v=127
126124 On ch=1 n=e5 v=84
126176 On ch=1 n=b4 v=0
126308 On ch=1 n=d5 v=87
126364 On ch=1 n=e5 v=0
126472 On ch=1 n=c#5 v=103
126524 On ch=1 n=d5 v=0
126530 Par ch=1 c=64 v=63
126548 Par ch=1 c=64 v=0
126586 Par ch=1 c=64 v=63
126624 On ch=1 n=b5 v=0
126632 Par ch=1 c=64 v=127
126700 On ch=1 n=d5 v=109
126738 On ch=1 n=c#5 v=0
126784 On ch=1 n=g#4 v=0
126808 On ch=1 n=d5 v=0
126860 On ch=1 n=c#6 v=108
127054 On ch=1 n=c#6 v=0
127092 On ch=1 n=g#5 v=106
127104 On ch=1 n=g#4 v=97
127104 On ch=1 n=b5 v=91
127106 On ch=1 n=d6 v=92
127110 On ch=1 n=f#5 v=98
127112 Par ch=1 c=64 v=63
127114 Par ch=1 c=64 v=127
127158 On ch=1 n=g#5 v=0
127180 On ch=1 n=f#5 v=0
127180 On ch=1 n=g#4 v=0
127204 On ch=1 n=b5 v=0
127234 On ch=1 n=d6 v=0
127282 On ch=1 n=e6 v=106
127298 On ch=1 n=f#5 v=63
127338 On ch=1 n=f#5 v=0
127392 On ch=1 n=e6 v=0
127490 Par ch=1 c=64 v=63
127496 Par ch=1 c=64 v=0
127538 On ch=1 n=a4 v=101
127538 On ch=1 n=a3 v=102
127542 On ch=1 n=f#5 v=99
127546 On ch=1 n=c#6 v=105
127550 On ch=1 n=f#6 v=99
127570 Par ch=1 c=64 v=63
127582 Par ch=1 c=64 v=127
127586 On ch=1 n=f#5 v=0
127608 On ch=1 n=a4 v=0
127632 On ch=1 n=c#6 v=0
127666 On ch=1 n=f#6 v=0
127672 On ch=1 n=a3 v=0
127818 On ch=1 n=e6 v=99
128004 On ch=1 n=f#6 v=110
128062 On ch=1 n=e6 v=0
128080 Par ch=1 c=64 v=63
128096 Par ch=1 c=64 v=0
128184 On ch=1 n=g#6 v=107
128232 On ch=1 n=f#6 v=0
128330 On ch=1 n=g#6 v=0
128376 On ch=1 n=a6 v=112
128404 Par ch=1 c=64 v=63
128412 Par ch=1 c=64 v=127
128506 On ch=1 n=a6 v=0
128524 Par ch=1 c=64 v=63
128550 Par ch=1 c=64 v=0
128562 On ch=1 n=f#6 v=100
128564 Par ch=1 c=64 v=63
128570 On ch=1 n=g#6 v=115
128572 On ch=1 n=d6 v=90
128592 Par ch=1 c=64 v=127
128686 On ch=1 n=f#6 v=0
128710 On ch=1 n=d6 v=0
128724 On ch=1 n=g#6 v=0
128756 On ch=1 n=c#6 v=90
128764 On ch=1 n=e6 v=91
128768 On ch=1 n=a6 v=109
128860 Par ch=1 c=64 v=63
128872 Par ch=1 c=64 v=0
128886 On ch=1 n=e6 v=0
128888 On ch=1 n=c#6 v=0
128928 On ch=1 n=b5 v=90
128930 On ch=1 n=d6 v=87
128942 On ch=1 n=a6 v=0
128946 On ch=1 n=b6 v=99
128946 On ch=1 n=f#6 v=109
128968 Par ch=1 c=64 v=63
128984 Par ch=1 c=64 v=127
129044 On ch=1 n=b6 v=0
129072 On ch=1 n=f#6 v=0
129096 On ch=1 n=b5 v=0
129122 On ch=1 n=a5 v=84
129122 On ch=1 n=c#6 v=94
129124 On ch=1 n=c#7 v=113
129156 On ch=1 n=d6 v=0
129222 On ch=1 n=c#7 v=0
129222 On ch=1 n=c#6 v=0
129232 On ch=1 n=a5 v=0
129312 On ch=1 n=c#7 v=115
129324 Par ch=1 c=64 v=63
129346 Par ch=1 c=64 v=0
129456 On ch=1 n=c#7 v=0
129468 Par ch=1 c=64 v=63
129490 Par ch=1 c=64 v=127
129518 On ch=1 n=g#6 v=112
129520 On ch=1 n=b6 v=92
129522 On ch=1 n=d7 v=94
129526 On ch=1 n=g#5 v=106
129530 On ch=1 n=f#6 v=104
129570 On ch=1 n=g#6 v=0
129586 On ch=1 n=g#5 v=0
129604 On ch=1 n=f#6 v=0
129610 On ch=1 n=b6 v=0
129632 On ch=1 n=d7 v=0
129692 On ch=1 n=e7 v=109
129782 On ch=1 n=e7 v=0
129856 Par ch=1 c=64 v=63
129868 Par ch=1 c=64 v=0
129904 On ch=1 n=a4 v=86
129910 On ch=1 n=a5 v=96
129914 On ch=1 n=f#7 v=113
129918 On ch=1 n=c#7 v=110
129920 On ch=1 n=f#6 v=101
129942 Par ch=1 c=64 v=63
129950 On ch=1 n=f#6 v=0
129966 Par ch=1 c=64 v=127
130000 On ch=1 n=c#7 v=0
130036 On ch=1 n=a5 v=0
130040 On ch=1 n=a4 v=0
130046 On ch=1 n=f#7 v=0
130204 On ch=1 n=e7 v=96
130384 On ch=1 n=f#7 v=112
130434 On ch=1 n=e7 v=0
130548 On ch=1 n=f#7 v=0
130568 On ch=1 n=g#7 v=112
130692 On ch=1 n=g#7 v=0
130776 On ch=1 n=a7 v=117
130776 Par ch=1 c=64 v=63
130790 Par ch=1 c=64 v=0
130928 Par ch=1 c=64 v=63
130944 On ch=1 n=a7 v=0
130950 Par ch=1 c=64 v=127
130976 On ch=1 n=f#7 v=100
130976 On ch=1 n=d7 v=90
130980 On ch=1 n=g#7 v=115
131114 On ch=1 n=f#7 v=0
131144 On ch=1 n=d7 v=0
131156 On ch=1 n=g#7 v=0
131200 On ch=1 n=c#7 v=92
131202 On ch=1 n=e7 v=98
131208 On ch=1 n=a7 v=104
131326 On ch=1 n=a7 v=0
131330 On ch=1 n=e7 v=0
131330 On ch=1 n=c#7 v=0
131402 On ch=1 n=d7 v=106
131404 On ch=1 n=b6 v=93
131428 On ch=1 n=b7 v=101
131432 On ch=1 n=f#7 v=97
131470 Par ch=1 c=64 v=63
131522 Par ch=1 c=64 v=0
131618 Par ch=1 c=64 v=63
131642 On ch=1 n=b6 v=0
131650 Par ch=1 c=64 v=127
131662 On ch=1 n=f#7 v=0
131680 On ch=1 n=a6 v=102
131682 On ch=1 n=c#7 v=110
131684 On ch=1 n=c#8 v=116
131716 On ch=1 n=d7 v=0
131726 On ch=1 n=b7 v=0
131746 On ch=1 n=c#7 v=0
131758 On ch=1 n=a6 v=0
131776 On ch=1 n=c#8 v=0
132024 Par ch=1 c=64 v=63
132054 Par ch=1 c=64 v=0
132340 Par ch=1 c=64 v=63
132350 On ch=1 n=f#6 v=116
132352 On ch=1 n=f#5 v=116
132354 Par ch=1 c=64 v=127
132354 On ch=1 n=g#5 v=112
132354 On ch=1 n=b4 v=117
132356 On ch=1 n=b3 v=112
132356 On ch=1 n=d6 v=102
132450 On ch=1 n=b3 v=0
132450 On ch=1 n=b4 v=0
132500 On ch=1 n=g#5 v=0
132502 On ch=1 n=d6 v=0
132508 On ch=1 n=f#5 v=0
132544 On ch=1 n=f#6 v=0
132698 Par ch=1 c=64 v=63
132720 Par ch=1 c=64 v=0
132916 On ch=1 n=f#6 v=116
132918 On ch=1 n=g#5 v=104
132920 On ch=1 n=f#5 v=116
132920 On ch=1 n=c#5 v=116
132924 On ch=1 n=c#4 v=100
132926 On ch=1 n=c#6 v=106
132926 On ch=1 n=g#4 v=103
132942 Par ch=1 c=64 v=63
132944 Par ch=1 c=64 v=127
132982 On ch=1 n=g#4 v=0
132984 On ch=1 n=c#5 v=0
133024 On ch=1 n=c#4 v=0
133484 On ch=1 n=g#3 v=115
133486 On ch=1 n=c#3 v=108
133518 On ch=1 n=c#6 v=0
133520 On ch=1 n=g#5 v=0
133536 On ch=1 n=f#6 v=0
133542 On ch=1 n=c#3 v=0
133546 On ch=1 n=g#3 v=0
133548 On ch=1 n=f#5 v=0
134056 On ch=1 n=g#5 v=99
134058 On ch=1 n=e5 v=108
134060 On ch=1 n=e6 v=107
134064 On ch=1 n=c#6 v=103
134084 On ch=1 n=c#5 v=115
134094 On ch=1 n=c#4 v=104
134104 On ch=1 n=g#4 v=95
134162 Par ch=1 c=64 v=63
134168 Par ch=1 c=64 v=0
134262 Par ch=1 c=64 v=63
134274 Par ch=1 c=64 v=127
134358 On ch=1 n=c#5 v=0
134386 On ch=1 n=g#4 v=0
134438 On ch=1 n=c#4 v=0
134774 On ch=1 n=g#3 v=113
134778 On ch=1 n=c#3 v=104
135016 On ch=1 n=e5 v=0
135042 On ch=1 n=c#3 v=0
135060 On ch=1 n=e6 v=0
135070 On ch=1 n=g#5 v=0
135074 On ch=1 n=g#3 v=0
135110 On ch=1 n=c#6 v=0
135652 On ch=1 n=f#6 v=118
135656 On ch=1 n=f#5 v=120
135656 On ch=1 n=c#5 v=127
135656 On ch=1 n=a#5 v=115
135660 On ch=1 n=c#6 v=108
135666 On ch=1 n=c#4 v=116
135668 On ch=1 n=f#4 v=114
136052 Par ch=1 c=64 v=63
136052 Par ch=1 c=64 v=127
136214 On ch=1 n=f#6 v=0
136250 On ch=1 n=c#6 v=0
136250 On ch=1 n=a#5 v=0
136256 On ch=1 n=f#5 v=0
136694 On ch=1 n=f#2 v=109
136698 On ch=1 n=c#3 v=108
136774 On ch=1 n=f#4 v=0
137132 On ch=1 n=f#2 v=0
137220 On ch=1 n=c#3 v=0
137230 On ch=1 n=c#4 v=0
137822 On ch=1 n=c#4 v=105
137830 On ch=1 n=f#3 v=95
138120 On ch=1 n=f#3 v=0
138196 On ch=1 n=c#4 v=0
139768 Par ch=1 c=64 v=63
141468 Par ch=1 c=64 v=0
141724 Par ch=1 c=64 v=63
141802 Par ch=1 c=64 v=127
142284 On ch=1 n=a#5 v=41
142286 On ch=1 n=f#4 v=18
142290 On ch=1 n=f#5 v=12
142778 On ch=1 n=f#5 v=0
142992 On ch=1 n=f#5 v=23
143302 On ch=1 n=a#5 v=0
143306 On ch=1 n=g#4 v=37
143310 On ch=1 n=b5 v=41
143316 On ch=1 n=f#4 v=0
143480 On ch=1 n=f#5 v=0
143646 On ch=1 n=f#5 v=48
143666 On ch=1 n=g#4 v=0
143666 On ch=1 n=a#4 v=35
143670 On ch=1 n=c#6 v=52
143674 On ch=1 n=b5 v=0
143782 Par ch=1 c=64 v=63
143836 Par ch=1 c=64 v=127
143856 On ch=1 n=c#5 v=0
144072 On ch=1 n=f#5 v=0
144190 On ch=1 n=f#5 v=46
144434 On ch=1 n=f#5 v=0
144646 On ch=1 n=b4 v=33
144658 On ch=1 n=d#6 v=82
144676 On ch=1 n=f#5 v=47
144698 On ch=1 n=c#6 v=0
144742 On ch=1 n=a#4 v=0
144984 On ch=1 n=f#5 v=0
145118 On ch=1 n=f#6 v=89
145140 On ch=1 n=f#5 v=47
145148 On ch=1 n=a#4 v=40
145186 On ch=1 n=d#6 v=0
145258 On ch=1 n=b4 v=0
145262 On ch=1 n=f#6 v=0
145426 On ch=1 n=f#5 v=0
145584 On ch=1 n=b5 v=75
145610 On ch=1 n=f5 v=50
145616 On ch=1 n=g#4 v=43
145652 On ch=1 n=a#4 v=0
145698 Par ch=1 c=64 v=63
145756 Par ch=1 c=64 v=127
146102 On ch=1 n=c#5 v=58
146138 On ch=1 n=b5 v=0
146156 On ch=1 n=f5 v=0
146300 On ch=1 n=a#5 v=86
146318 On ch=1 n=f#4 v=48
146354 On ch=1 n=c#5 v=0
146364 On ch=1 n=g#4 v=0
146522 On ch=1 n=f#4 v=0
146556 On ch=1 n=g#5 v=84
146562 On ch=1 n=a#5 v=0
146564 On ch=1 n=c#5 v=63
146594 On ch=1 n=f4 v=26
146668 Par ch=1 c=64 v=63
146764 Par ch=1 c=64 v=127
146880 On ch=1 n=c#5 v=0
147028 On ch=1 n=c#5 v=65
147172 On ch=1 n=c#5 v=0
147274 On ch=1 n=f4 v=0
147506 On ch=1 n=f#4 v=49
147510 On ch=1 n=c#5 v=45
147522 On ch=1 n=a#5 v=62
147596 On ch=1 n=g#5 v=0
147638 Par ch=1 c=64 v=63
147690 Par ch=1 c=64 v=127
147866 On ch=1 n=c#5 v=0
148038 On ch=1 n=c#5 v=51
148076 On ch=1 n=f4 v=22
148380 On ch=1 n=c#5 v=0
148520 On ch=1 n=a#5 v=0
148652 On ch=1 n=f4 v=0
148652 On ch=1 n=f#5 v=65
148690 On ch=1 n=g#4 v=25
148694 On ch=1 n=c5 v=44
148706 On ch=1 n=d#4 v=40
148778 Par ch=1 c=64 v=63
148798 On ch=1 n=f#4 v=0
148868 Par ch=1 c=64 v=127
149178 On ch=1 n=c5 v=0
149190 On ch=1 n=g#4 v=0
149264 On ch=1 n=f5 v=74
149282 On ch=1 n=g#4 v=44
149340 On ch=1 n=f#5 v=0
149466 On ch=1 n=f#5 v=92
149522 On ch=1 n=f5 v=0
149550 On ch=1 n=g#4 v=0
149716 On ch=1 n=c#4 v=48
149718 On ch=1 n=g#5 v=88
149730 On ch=1 n=c#5 v=63
149734 On ch=1 n=d#4 v=0
149734 On ch=1 n=f4 v=20
149752 On ch=1 n=f#5 v=0
149814 Par ch=1 c=64 v=63
149916 Par ch=1 c=64 v=127
150066 On ch=1 n=f4 v=0
150088 On ch=1 n=c#5 v=0
150172 On ch=1 n=f4 v=63
150360 On ch=1 n=c#5 v=88
150488 On ch=1 n=f4 v=0
150490 On ch=1 n=c#4 v=0
150514 On ch=1 n=g#5 v=0
150560 On ch=1 n=c#5 v=0
150602 On ch=1 n=f4 v=47
150608 On ch=1 n=c#5 v=65
150614 On ch=1 n=c#4 v=50
150614 On ch=1 n=g#5 v=90
150742 Par ch=1 c=64 v=63
150794 Par ch=1 c=64 v=127
150962 On ch=1 n=f4 v=0
150990 On ch=1 n=c#5 v=0
151070 On ch=1 n=f4 v=76
151178 On ch=1 n=c#4 v=0
151264 On ch=1 n=c#5 v=85
151444 On ch=1 n=c#5 v=0
151476 On ch=1 n=f4 v=0
151520 On ch=1 n=g#5 v=0
151534 On ch=1 n=f#3 v=55
151538 On ch=1 n=d#4 v=58
151588 On ch=1 n=a#5 v=81
151620 On ch=1 n=b4 v=30
151678 Par ch=1 c=64 v=63
151756 Par ch=1 c=64 v=127
151962 On ch=1 n=f#4 v=40
151980 On ch=1 n=f#5 v=83
151990 On ch=1 n=f#3 v=0
152032 On ch=1 n=a#5 v=0
152068 On ch=1 n=b4 v=0
152108 On ch=1 n=f#4 v=0
152302 On ch=1 n=d#4 v=0
152312 On ch=1 n=d#5 v=73
152322 On ch=1 n=a#4 v=53
152378 On ch=1 n=f#5 v=0
152474 On ch=1 n=d#5 v=0
152674 On ch=1 n=a#4 v=0
152710 On ch=1 n=g#5 v=70
152718 On ch=1 n=c#4 v=33
152730 On ch=1 n=c#5 v=34
152738 On ch=1 n=f4 v=44
152840 Par ch=1 c=64 v=63
152864 Par ch=1 c=64 v=0
152894 Par ch=1 c=64 v=63
152942 Par ch=1 c=64 v=127
153070 On ch=1 n=f4 v=0
153142 On ch=1 n=c#5 v=0
153238 On ch=1 n=f4 v=48
153434 On ch=1 n=c#4 v=0
153440 On ch=1 n=f4 v=0
153488 On ch=1 n=c#5 v=57
153490 On ch=1 n=g#5 v=0
153580 On ch=1 n=c#5 v=0
153814 On ch=1 n=g#5 v=62
153828 On ch=1 n=g#3 v=41
153832 On ch=1 n=c#5 v=29
153852 On ch=1 n=c#3 v=15
154076 Par ch=1 c=64 v=63
154226 Par ch=1 c=64 v=127
154482 On ch=1 n=c#5 v=0
154496 On ch=1 n=c#4 v=54
154514 On ch=1 n=c#3 v=0
154580 On ch=1 n=g#3 v=0
155028 On ch=1 n=f4 v=76
155048 On ch=1 n=c#4 v=0
155452 On ch=1 n=g#5 v=0
155510 On ch=1 n=f#4 v=93
155576 On ch=1 n=f4 v=0
156146 On ch=1 n=g#4 v=46
156174 On ch=1 n=g#5 v=61
156182 On ch=1 n=c#4 v=34
156202 On ch=1 n=c#5 v=20
156212 On ch=1 n=e5 v=58
156256 On ch=1 n=f#4 v=0
156300 Par ch=1 c=64 v=63
156320 Par ch=1 c=64 v=0
156484 Par ch=1 c=64 v=63
156496 Par ch=1 c=64 v=127
156690 On ch=1 n=g#4 v=0
156796 On ch=1 n=g#4 v=58
156808 On ch=1 n=c#5 v=0
157024 On ch=1 n=c#5 v=76
157058 On ch=1 n=g#4 v=0
157068 On ch=1 n=g#5 v=0
157270 On ch=1 n=g#4 v=52
157272 On ch=1 n=g#5 v=87
157342 Par ch=1 c=64 v=63
157362 Par ch=1 c=64 v=0
157392 Par ch=1 c=64 v=63
157404 On ch=1 n=e5 v=0
157432 Par ch=1 c=64 v=127
157554 On ch=1 n=c#5 v=0
157606 On ch=1 n=g#4 v=0
157712 On ch=1 n=g#4 v=85
157896 On ch=1 n=c#5 v=90
158048 On ch=1 n=g#5 v=0
158162 On ch=1 n=a#5 v=93
158176 On ch=1 n=f#4 v=72
158192 On ch=1 n=g#4 v=0
158200 Par ch=1 c=64 v=63
158294 Par ch=1 c=64 v=127
158314 On ch=1 n=c#5 v=0
158438 On ch=1 n=f#4 v=0
158480 On ch=1 n=f#5 v=92
158548 On ch=1 n=a#5 v=0
158624 On ch=1 n=f#4 v=85
158768 On ch=1 n=c#5 v=105
158796 On ch=1 n=f#5 v=0
158824 On ch=1 n=f#4 v=0
158960 On ch=1 n=c#5 v=0
159016 On ch=1 n=c#4 v=0
159066 On ch=1 n=f#4 v=66
159078 On ch=1 n=b5 v=89
159082 On ch=1 n=d#5 v=84
159090 On ch=1 n=b3 v=55
159172 Par ch=1 c=64 v=63
159190 Par ch=1 c=64 v=0
159316 Par ch=1 c=64 v=63
159336 Par ch=1 c=64 v=127
159464 On ch=1 n=f#4 v=0
159574 On ch=1 n=f#4 v=79
159856 On ch=1 n=f#4 v=0
160002 On ch=1 n=f#4 v=72
160012 On ch=1 n=c#4 v=64
160028 Par ch=1 c=64 v=63
160040 On ch=1 n=b3 v=0
160120 Par ch=1 c=64 v=127
160372 On ch=1 n=f#4 v=0
160536 On ch=1 n=a#5 v=85
160544 On ch=1 n=f#4 v=48
160578 On ch=1 n=b5 v=0
160806 On ch=1 n=f#4 v=0
160884 On ch=1 n=c#4 v=0
161056 On ch=1 n=a#4 v=45
161068 On ch=1 n=f#5 v=80
161092 On ch=1 n=d#4 v=67
161112 On ch=1 n=a#5 v=0
161142 Par ch=1 c=64 v=63
161218 Par ch=1 c=64 v=127
161362 On ch=1 n=d#5 v=0
161550 On ch=1 n=a#5 v=87
161550 On ch=1 n=c#5 v=78
161598 On ch=1 n=f#5 v=0
161682 On ch=1 n=c#5 v=0
161920 On ch=1 n=d#4 v=0
161982 On ch=1 n=g#3 v=50
161994 On ch=1 n=b4 v=63
162030 Par ch=1 c=64 v=63
162082 Par ch=1 c=64 v=127
162228 On ch=1 n=a#5 v=0
162274 On ch=1 n=g#3 v=0
162348 On ch=1 n=b4 v=0
162404 On ch=1 n=a#4 v=0
162462 On ch=1 n=g#5 v=80
162490 On ch=1 n=b4 v=47
162492 On ch=1 n=f#5 v=60
162574 On ch=1 n=f#5 v=0
162646 On ch=1 n=g#5 v=0
163028 On ch=1 n=c#4 v=38
163036 On ch=1 n=g#4 v=35
163046 On ch=1 n=f5 v=65
163066 On ch=1 n=b4 v=0
163072 On ch=1 n=d#5 v=45
163208 Par ch=1 c=64 v=63
163292 Par ch=1 c=64 v=127
163628 On ch=1 n=c#5 v=66
163674 On ch=1 n=d#5 v=0
163768 On ch=1 n=g#4 v=0
163794 On ch=1 n=c#4 v=0
163856 On ch=1 n=c#5 v=0
163856 On ch=1 n=b4 v=63
164154 On ch=1 n=a#4 v=58
164156 On ch=1 n=c#4 v=43
164174 On ch=1 n=f#3 v=29
164214 On ch=1 n=b4 v=0
164294 Par ch=1 c=64 v=63
164374 Par ch=1 c=64 v=127
164600 On ch=1 n=a#4 v=0
164722 On ch=1 n=a#4 v=53
164948 On ch=1 n=a#4 v=0
165002 On ch=1 n=f5 v=0
165426 On ch=1 n=a#4 v=27
165436 On ch=1 n=f#5 v=52
165572 Par ch=1 c=64 v=63
165672 Par ch=1 c=64 v=127
165956 On ch=1 n=c#4 v=0
166134 On ch=1 n=f#3 v=0
166206 On ch=1 n=a#4 v=0
166224 On ch=1 n=c#4 v=59
166354 On ch=1 n=f#5 v=0
166796 On ch=1 n=f4 v=65
166858 On ch=1 n=c#4 v=0
166924 Par ch=1 c=64 v=63
167036 Par ch=1 c=64 v=0
167444 On ch=1 n=f#4 v=55
167536 On ch=1 n=f4 v=0
168076 Par ch=1 c=64 v=63
168088 Par ch=1 c=64 v=127
168252 On ch=1 n=f#4 v=0
168376 On ch=1 n=a#5 v=71
168384 On ch=1 n=f#5 v=34
168398 On ch=1 n=c#5 v=25
168412 On ch=1 n=f#4 v=24
168886 On ch=1 n=f#5 v=0
169066 On ch=1 n=f#5 v=59
169200 On ch=1 n=f#5 v=0
169316 On ch=1 n=b5 v=88
169316 On ch=1 n=g#4 v=53
169354 On ch=1 n=f#4 v=0
169364 On ch=1 n=a#5 v=0
169604 On ch=1 n=c#6 v=95
169610 On ch=1 n=f#5 v=62
169620 On ch=1 n=a#4 v=53
169666 On ch=1 n=g#4 v=0
169674 On ch=1 n=b5 v=0
169744 Par ch=1 c=64 v=63
169778 Par ch=1 c=64 v=0
169814 Par ch=1 c=64 v=63
169850 Par ch=1 c=64 v=127
169986 On ch=1 n=f#5 v=0
170100 On ch=1 n=f#5 v=89
170228 On ch=1 n=c#5 v=0
170334 On ch=1 n=f#5 v=0
170552 On ch=1 n=b4 v=68
170558 On ch=1 n=d#6 v=101
170568 On ch=1 n=f#5 v=87
170624 On ch=1 n=c#6 v=0
170628 Par ch=1 c=64 v=63
170650 On ch=1 n=a#4 v=0
170670 Par ch=1 c=64 v=127
170900 On ch=1 n=f#5 v=0
171006 On ch=1 n=f#6 v=100
171010 On ch=1 n=a#4 v=55
171022 On ch=1 n=f#5 v=72
171082 On ch=1 n=d#6 v=0
171132 On ch=1 n=f#6 v=0
171162 On ch=1 n=b4 v=0
171202 On ch=1 n=f#5 v=0
171448 On ch=1 n=b5 v=88
171456 On ch=1 n=g#4 v=60
171490 On ch=1 n=f5 v=42
171546 On ch=1 n=a#4 v=0
171616 Par ch=1 c=64 v=63
171724 Par ch=1 c=64 v=127
171950 On ch=1 n=c#5 v=75
172000 On ch=1 n=b5 v=0
172070 On ch=1 n=f5 v=0
172146 On ch=1 n=a#5 v=88
172152 On ch=1 n=f#4 v=49
172200 On ch=1 n=c#5 v=0
172350 On ch=1 n=g#4 v=0
172380 On ch=1 n=a#5 v=0
172380 On ch=1 n=g#5 v=82
172384 On ch=1 n=f#4 v=0
172392 On ch=1 n=c#5 v=55
172394 On ch=1 n=f4 v=34
172462 Par ch=1 c=64 v=63
172582 Par ch=1 c=64 v=127
172702 On ch=1 n=c#5 v=0
172864 On ch=1 n=c#5 v=65
173088 On ch=1 n=c#5 v=0
173322 On ch=1 n=a#5 v=78
173330 On ch=1 n=c#5 v=51
173332 On ch=1 n=f#4 v=39
173386 On ch=1 n=g#5 v=0
173400 On ch=1 n=f4 v=0
173446 Par ch=1 c=64 v=63
173522 Par ch=1 c=64 v=127
173666 On ch=1 n=c#5 v=0
173828 On ch=1 n=c#5 v=48
173860 On ch=1 n=f4 v=40
174262 On ch=1 n=c#5 v=0
174384 On ch=1 n=a#5 v=0
174402 On ch=1 n=f#5 v=70
174430 On ch=1 n=g#4 v=17
174430 On ch=1 n=c5 v=48
174434 On ch=1 n=d#4 v=46
174482 On ch=1 n=f4 v=0
174530 Par ch=1 c=64 v=63
174634 Par ch=1 c=64 v=127
174656 On ch=1 n=f#4 v=0
174888 On ch=1 n=g#4 v=0
174954 On ch=1 n=f5 v=75
174976 On ch=1 n=g#4 v=56
175012 On ch=1 n=f#5 v=0
175082 On ch=1 n=c5 v=0
175170 On ch=1 n=f#5 v=90
175208 On ch=1 n=g#4 v=0
175234 On ch=1 n=f5 v=0
175436 On ch=1 n=g#5 v=83
175440 On ch=1 n=f4 v=41
175440 On ch=1 n=c#4 v=57
175454 On ch=1 n=c#5 v=61
175464 On ch=1 n=f#5 v=0
175522 Par ch=1 c=64 v=63
175548 On ch=1 n=d#4 v=0
175548 Par ch=1 c=64 v=0
175612 Par ch=1 c=64 v=63
175648 Par ch=1 c=64 v=127
175786 On ch=1 n=c#5 v=0
175786 On ch=1 n=f4 v=0
175880 On ch=1 n=f4 v=63
176074 On ch=1 n=c#5 v=98
176208 On ch=1 n=f4 v=0
176212 On ch=1 n=c#4 v=0
176240 On ch=1 n=g#5 v=0
176310 On ch=1 n=f4 v=50
176320 On ch=1 n=g#5 v=86
176330 On ch=1 n=c#4 v=47
176472 Par ch=1 c=64 v=63
176508 On ch=1 n=c#5 v=0
176586 Par ch=1 c=64 v=127
176648 On ch=1 n=f4 v=0
176774 On ch=1 n=f4 v=81
176898 On ch=1 n=c#4 v=0
176974 On ch=1 n=c#5 v=99
177058 On ch=1 n=g#5 v=0
177152 On ch=1 n=c#5 v=0
177242 On ch=1 n=f4 v=0
177274 On ch=1 n=d#4 v=63
177280 On ch=1 n=f#3 v=57
177320 On ch=1 n=a#5 v=93
177326 On ch=1 n=b4 v=79
177386 Par ch=1 c=64 v=63
177400 Par ch=1 c=64 v=0
177506 Par ch=1 c=64 v=63
177522 Par ch=1 c=64 v=127
177698 On ch=1 n=f#4 v=56
177698 On ch=1 n=f#5 v=103
177702 On ch=1 n=f#3 v=0
177758 On ch=1 n=a#5 v=0
177836 On ch=1 n=f#4 v=0
177844 On ch=1 n=b4 v=0
177896 On ch=1 n=d#4 v=0
178024 On ch=1 n=d#5 v=97
178026 On ch=1 n=a#4 v=63
178100 On ch=1 n=f#5 v=0
178232 On ch=1 n=d#5 v=0
178394 On ch=1 n=a#4 v=0
178408 On ch=1 n=c#4 v=41
178424 On ch=1 n=g#5 v=79
178428 On ch=1 n=f4 v=46
178430 On ch=1 n=c#5 v=58
178562 Par ch=1 c=64 v=63
178578 Par ch=1 c=64 v=0
178646 Par ch=1 c=64 v=63
178678 Par ch=1 c=64 v=127
178776 On ch=1 n=f4 v=0
178928 On ch=1 n=c#5 v=0
178972 On ch=1 n=f4 v=33
179068 On ch=1 n=c#4 v=0
179078 On ch=1 n=f4 v=0
179152 On ch=1 n=c#5 v=77
179284 On ch=1 n=g#5 v=0
179412 On ch=1 n=g#3 v=48
179452 On ch=1 n=g#5 v=71
179462 On ch=1 n=c#3 v=31
179504 On ch=1 n=c#5 v=0
179572 Par ch=1 c=64 v=63
179594 Par ch=1 c=64 v=0
179612 Par ch=1 c=64 v=63
179654 Par ch=1 c=64 v=127
180054 On ch=1 n=c#4 v=60
180060 On ch=1 n=c#3 v=0
180122 On ch=1 n=g#3 v=0
180578 On ch=1 n=f4 v=79
180596 On ch=1 n=c#4 v=0
180962 On ch=1 n=g#5 v=0
181098 On ch=1 n=f#4 v=97
181164 On ch=1 n=f4 v=0
181750 On ch=1 n=g#4 v=48
181758 On ch=1 n=g#5 v=76
181774 On ch=1 n=c#5 v=59
181776 On ch=1 n=c#4 v=36
181776 On ch=1 n=e5 v=74
181868 On ch=1 n=f#4 v=0
181894 Par ch=1 c=64 v=63
181910 Par ch=1 c=64 v=0
182054 Par ch=1 c=64 v=63
182070 Par ch=1 c=64 v=127
182272 On ch=1 n=g#4 v=0
182324 On ch=1 n=c#5 v=0
182378 On ch=1 n=g#4 v=71
182616 On ch=1 n=c#5 v=95
182650 On ch=1 n=g#4 v=0
182706 On ch=1 n=g#5 v=0
182864 On ch=1 n=g#4 v=52
182864 On ch=1 n=g#5 v=97
182930 On ch=1 n=e5 v=0
182962 On ch=1 n=c#5 v=0
183104 On ch=1 n=g#4 v=0
183302 On ch=1 n=g#4 v=87
183482 On ch=1 n=c#5 v=101
183616 On ch=1 n=g#5 v=0
183734 On ch=1 n=a#5 v=99
183736 On ch=1 n=f#4 v=77
183740 Par ch=1 c=64 v=63
183762 Par ch=1 c=64 v=0
183780 On ch=1 n=g#4 v=0
183840 On ch=1 n=c#5 v=0
183842 Par ch=1 c=64 v=63
183874 Par ch=1 c=64 v=127
184040 On ch=1 n=f#4 v=0
184052 On ch=1 n=f#5 v=100
184104 On ch=1 n=a#5 v=0
184180 On ch=1 n=f#4 v=79
184336 On ch=1 n=c#5 v=105
184366 On ch=1 n=f#5 v=0
184392 On ch=1 n=c#4 v=0
184440 On ch=1 n=f#4 v=0
184516 On ch=1 n=c#5 v=0
184652 On ch=1 n=f#4 v=61
184674 On ch=1 n=b3 v=50
184680 On ch=1 n=b5 v=92
184704 On ch=1 n=d#5 v=83
184806 Par ch=1 c=64 v=63
184820 Par ch=1 c=64 v=0
184948 Par ch=1 c=64 v=63
184964 Par ch=1 c=64 v=127
185116 On ch=1 n=f#4 v=0
185246 On ch=1 n=f#4 v=52
185558 On ch=1 n=f#4 v=0
185686 On ch=1 n=c#4 v=76
185686 On ch=1 n=f#4 v=69
185718 On ch=1 n=b3 v=0
185774 Par ch=1 c=64 v=63
185834 Par ch=1 c=64 v=127
186062 On ch=1 n=f#4 v=0
186084 On ch=1 n=b5 v=0
186128 On ch=1 n=a#5 v=104
186148 On ch=1 n=f#4 v=71
186388 On ch=1 n=f#4 v=0
186574 On ch=1 n=a#4 v=65
186578 On ch=1 n=f#5 v=103
186604 On ch=1 n=d#4 v=67
186620 On ch=1 n=c#4 v=0
186652 On ch=1 n=a#5 v=0
186670 Par ch=1 c=64 v=63
186748 Par ch=1 c=64 v=127
186870 On ch=1 n=d#5 v=0
187078 On ch=1 n=a#5 v=87
187090 On ch=1 n=c#5 v=74
187128 On ch=1 n=f#5 v=0
187370 On ch=1 n=c#5 v=0
187592 On ch=1 n=g#3 v=53
187598 On ch=1 n=b4 v=72
187600 On ch=1 n=d#4 v=0
187654 Par ch=1 c=64 v=63
187672 Par ch=1 c=64 v=0
187702 Par ch=1 c=64 v=63
187742 Par ch=1 c=64 v=127
187984 On ch=1 n=b4 v=0
188024 On ch=1 n=g#3 v=0
188160 On ch=1 n=a#4 v=0
188174 On ch=1 n=a#5 v=0
188194 On ch=1 n=g#5 v=66
188228 On ch=1 n=f#5 v=61
188238 On ch=1 n=b4 v=49
188426 On ch=1 n=f#5 v=0
188446 On ch=1 n=g#5 v=0
188808 On ch=1 n=c#4 v=33
188830 On ch=1 n=g#4 v=42
188836 On ch=1 n=f5 v=68
188840 On ch=1 n=d#5 v=63
188850 On ch=1 n=b4 v=0
189008 Par ch=1 c=64 v=63
189114 Par ch=1 c=64 v=127
189402 On ch=1 n=c#5 v=80
189422 On ch=1 n=d#5 v=0
189488 On ch=1 n=c#4 v=0
189594 On ch=1 n=g#4 v=0
189610 On ch=1 n=b4 v=66
189622 On ch=1 n=c#5 v=0
189860 On ch=1 n=a#4 v=54
189862 On ch=1 n=f#3 v=45
189868 On ch=1 n=c#4 v=44
189948 Par ch=1 c=64 v=63
189954 On ch=1 n=b4 v=0
190040 Par ch=1 c=64 v=127
190226 On ch=1 n=a#4 v=0
190366 On ch=1 n=a#4 v=45
190508 On ch=1 n=f5 v=0
190512 On ch=1 n=a#4 v=0
190936 On ch=1 n=f#5 v=45
190940 On ch=1 n=a#4 v=35
190990 Par ch=1 c=64 v=63
191056 Par ch=1 c=64 v=127
191192 On ch=1 n=f#3 v=0
191228 On ch=1 n=c#4 v=0
191270 On ch=1 n=a#4 v=0
191384 On ch=1 n=f#5 v=0
191650 On ch=1 n=c#5 v=42
192264 On ch=1 n=c#5 v=0
192264 On ch=1 n=f5 v=45
192496 Par ch=1 c=67 v=127
192908 On ch=1 n=f#5 v=39
192928 Par ch=1 c=67 v=127
193090 On ch=1 n=f5 v=0
193418 On ch=1 n=f#5 v=0
193720 On ch=1 n=g#5 v=18
193732 On ch=1 n=b5 v=39
193742 On ch=1 n=c#7 v=47
193746 On ch=1 n=f6 v=42
193756 On ch=1 n=f5 v=30
193770 On ch=1 n=c#6 v=20
193836 Par ch=1 c=64 v=63
193862 Par ch=1 c=64 v=127
194132 On ch=1 n=f6 v=0
194134 On ch=1 n=c#6 v=0
194138 On ch=1 n=b5 v=0
194148 On ch=1 n=g#5 v=0
194150 On ch=1 n=f5 v=0
194378 On ch=1 n=f6 v=29
194380 On ch=1 n=c#6 v=44
194382 On ch=1 n=g#5 v=30
194384 On ch=1 n=f5 v=34
194384 On ch=1 n=b5 v=50
194506 On ch=1 n=f6 v=0
194514 On ch=1 n=c#6 v=0
194520 On ch=1 n=f5 v=0
194528 On ch=1 n=g#5 v=0
194532 On ch=1 n=b5 v=0
194632 On ch=1 n=g#6 v=77
194654 On ch=1 n=c#7 v=0
194894 On ch=1 n=c#7 v=86
194910 On ch=1 n=g#5 v=36
194914 On ch=1 n=d#6 v=37
194928 On ch=1 n=b5 v=32
194936 On ch=1 n=c#6 v=44
194938 On ch=1 n=d#5 v=23
194956 On ch=1 n=g#6 v=0
195026 On ch=1 n=d#5 v=0
195074 On ch=1 n=g#5 v=0
195078 On ch=1 n=b5 v=0
195108 On ch=1 n=d#6 v=0
195174 On ch=1 n=c#6 v=0
195394 On ch=1 n=d#5 v=52
195398 On ch=1 n=g#5 v=50
195406 On ch=1 n=c#6 v=71
195410 On ch=1 n=d#6 v=54
195428 On ch=1 n=b5 v=44
195470 On ch=1 n=d#5 v=0
195502 On ch=1 n=d#6 v=0
195528 On ch=1 n=g#5 v=0
195530 On ch=1 n=b5 v=0
195630 On ch=1 n=g#6 v=92
195646 On ch=1 n=c#6 v=0
195682 On ch=1 n=c#7 v=0
195920 On ch=1 n=f5 v=5
195950 On ch=1 n=g#5 v=57
195968 On ch=1 n=b5 v=37
195984 On ch=1 n=c#6 v=54
195990 On ch=1 n=f6 v=50
195996 On ch=1 n=d#7 v=89
196042 On ch=1 n=g#6 v=0
196068 Par ch=1 c=64 v=63
196088 Par ch=1 c=64 v=127
196324 On ch=1 n=f5 v=0
196326 On ch=1 n=b5 v=0
196328 On ch=1 n=b6 v=87
196332 On ch=1 n=c#6 v=0
196334 On ch=1 n=f6 v=0
196348 On ch=1 n=d#7 v=0
196368 On ch=1 n=g#5 v=0
196488 On ch=1 n=g#5 v=46
196488 On ch=1 n=c#6 v=71
196492 On ch=1 n=f6 v=51
196518 On ch=1 n=b5 v=51
196582 On ch=1 n=f6 v=0
196592 On ch=1 n=b5 v=0
196614 On ch=1 n=c#6 v=0
196642 On ch=1 n=g#6 v=96
196644 On ch=1 n=g#5 v=0
196690 On ch=1 n=b6 v=0
196922 On ch=1 n=g#6 v=0
196958 On ch=1 n=c#7 v=84
196968 On ch=1 n=g#5 v=51
196968 On ch=1 n=d#6 v=47
196976 On ch=1 n=d#5 v=39
196984 On ch=1 n=c#6 v=65
196994 On ch=1 n=b5 v=55
197054 Par ch=1 c=64 v=63
197098 Par ch=1 c=64 v=127
197228 On ch=1 n=c#6 v=0
197228 On ch=1 n=d#5 v=0
197246 On ch=1 n=g#5 v=0
197248 On ch=1 n=d#6 v=0
197260 On ch=1 n=b5 v=0
197456 On ch=1 n=g#5 v=55
197456 On ch=1 n=d#5 v=44
197468 On ch=1 n=d#6 v=48
197470 On ch=1 n=c#6 v=61
197480 On ch=1 n=b5 v=53
197562 On ch=1 n=d#5 v=0
197570 On ch=1 n=d#6 v=0
197612 On ch=1 n=g#5 v=0
197628 On ch=1 n=b5 v=0
197670 On ch=1 n=g#6 v=83
197712 On ch=1 n=c#6 v=0
197724 On ch=1 n=c#7 v=0
197896 On ch=1 n=g#5 v=43
197910 On ch=1 n=c#7 v=66
197910 On ch=1 n=f6 v=57
197912 On ch=1 n=b5 v=54
197922 On ch=1 n=f5 v=44
197934 On ch=1 n=c#6 v=40
197962 Par ch=1 c=64 v=63
197974 On ch=1 n=g#6 v=0
198038 Par ch=1 c=64 v=127
198158 On ch=1 n=f5 v=0
198166 On ch=1 n=g#5 v=0
198182 On ch=1 n=b5 v=0
198182 On ch=1 n=f6 v=0
198232 On ch=1 n=c#6 v=0
198420 On ch=1 n=c#6 v=59
198422 On ch=1 n=g#5 v=37
198430 On ch=1 n=b5 v=49
198432 On ch=1 n=f5 v=28
198436 On ch=1 n=f6 v=38
198540 On ch=1 n=c#6 v=0
198558 On ch=1 n=f6 v=0
198566 On ch=1 n=f5 v=0
198572 On ch=1 n=g#5 v=0
198606 On ch=1 n=b5 v=0
198890 On ch=1 n=c#6 v=49
198896 On ch=1 n=g#5 v=39
198918 On ch=1 n=d#5 v=34
198920 On ch=1 n=d#6 v=33
198926 On ch=1 n=b5 v=34
199000 On ch=1 n=c#6 v=0
199010 On ch=1 n=d#6 v=0
199022 On ch=1 n=b5 v=0
199026 On ch=1 n=d#5 v=0
199032 On ch=1 n=g#5 v=0
199358 On ch=1 n=g#5 v=30
199372 On ch=1 n=d#6 v=32
199384 On ch=1 n=b5 v=37
199386 On ch=1 n=c#6 v=51
199424 On ch=1 n=d#5 v=6
199438 On ch=1 n=d#6 v=0
199454 On ch=1 n=c#7 v=0
199466 On ch=1 n=b5 v=0
199496 On ch=1 n=c#6 v=0
199498 On ch=1 n=g#5 v=0
199512 On ch=1 n=d#5 v=0
199976 On ch=1 n=f6 v=41
199992 On ch=1 n=c#6 v=30
200000 On ch=1 n=f5 v=17
200004 On ch=1 n=b5 v=34
200082 Par ch=1 c=64 v=63
200110 Par ch=1 c=64 v=127
200402 On ch=1 n=f5 v=0
200408 On ch=1 n=b5 v=0
200414 On ch=1 n=f6 v=0
200456 On ch=1 n=c#6 v=0
200558 On ch=1 n=f6 v=66
200566 On ch=1 n=c#6 v=63
200584 On ch=1 n=g#3 v=46
200590 On ch=1 n=f5 v=20
200598 On ch=1 n=c#3 v=52
200602 On ch=1 n=b5 v=43
200694 On ch=1 n=f5 v=0
200696 On ch=1 n=f6 v=0
200758 On ch=1 n=b5 v=0
200790 On ch=1 n=c#6 v=0
200962 On ch=1 n=c#3 v=0
200988 On ch=1 n=g#3 v=0
201082 On ch=1 n=d#6 v=84
201092 On ch=1 n=b5 v=56
201092 On ch=1 n=d#5 v=55
201094 On ch=1 n=c#6 v=72
201236 On ch=1 n=d#5 v=0
201278 On ch=1 n=b5 v=0
201320 On ch=1 n=c#6 v=0
201362 On ch=1 n=d#6 v=0
201504 On ch=1 n=d#6 v=84
201520 On ch=1 n=d#5 v=60
201534 On ch=1 n=g#4 v=74
201538 On ch=1 n=b5 v=55
201542 On ch=1 n=c#6 v=60
201552 On ch=1 n=c#4 v=65
201586 On ch=1 n=d#5 v=0
201606 On ch=1 n=b5 v=0
201670 On ch=1 n=d#6 v=0
201678 On ch=1 n=c#6 v=0
201702 On ch=1 n=c#4 v=0
201738 On ch=1 n=g#4 v=0
202002 On ch=1 n=f6 v=81
202008 On ch=1 n=c#6 v=67
202026 On ch=1 n=g#5 v=55
202030 On ch=1 n=f5 v=50
202034 On ch=1 n=b5 v=59
202038 On ch=1 n=c#5 v=60
202218 On ch=1 n=f5 v=0
202236 On ch=1 n=b5 v=0
202266 On ch=1 n=f6 v=0
202274 On ch=1 n=c#6 v=0
202422 On ch=1 n=g#5 v=0
202456 On ch=1 n=f6 v=80
202466 On ch=1 n=c#6 v=78
202486 On ch=1 n=b5 v=66
202578 On ch=1 n=f6 v=0
202634 On ch=1 n=b5 v=0
202644 On ch=1 n=c#6 v=0
202906 On ch=1 n=d#6 v=70
202924 On ch=1 n=d#5 v=55
202926 On ch=1 n=c#6 v=69
202926 On ch=1 n=b5 v=63
203012 On ch=1 n=d#5 v=0
203060 On ch=1 n=b5 v=0
203074 On ch=1 n=d#6 v=0
203076 On ch=1 n=c#6 v=0
203328 On ch=1 n=d#6 v=47
203348 On ch=1 n=d#5 v=39
203354 On ch=1 n=b5 v=48
203368 On ch=1 n=c#6 v=49
203410 On ch=1 n=d#5 v=0
203448 On ch=1 n=d#6 v=0
203458 On ch=1 n=b5 v=0
203486 On ch=1 n=c#6 v=0
203812 On ch=1 n=f6 v=53
203814 On ch=1 n=c#6 v=61
203834 On ch=1 n=b5 v=46
203840 On ch=1 n=f5 v=10
203954 On ch=1 n=b5 v=0
203960 On ch=1 n=c#6 v=0
203974 On ch=1 n=f5 v=0
203994 On ch=1 n=f6 v=0
204230 On ch=1 n=c#5 v=0
204272 On ch=1 n=c#6 v=52
204276 On ch=1 n=f6 v=38
204310 On ch=1 n=f5 v=14
204326 On ch=1 n=b5 v=22
204410 On ch=1 n=b5 v=0
204414 On ch=1 n=f5 v=0
204446 On ch=1 n=c#6 v=0
204448 On ch=1 n=f6 v=0
204738 On ch=1 n=d#6 v=50
204744 On ch=1 n=d#5 v=42
204772 On ch=1 n=b5 v=29
204800 On ch=1 n=c#6 v=17
204858 On ch=1 n=d#5 v=0
204878 On ch=1 n=c#6 v=0
204896 On ch=1 n=d#6 v=0
204928 On ch=1 n=b5 v=0
205252 On ch=1 n=d#5 v=33
205266 On ch=1 n=d#6 v=39
205268 On ch=1 n=c#6 v=35
205286 On ch=1 n=b5 v=28
205392 On ch=1 n=b5 v=0
205406 On ch=1 n=d#5 v=0
205450 On ch=1 n=c#6 v=0
205474 On ch=1 n=d#6 v=0
205936 On ch=1 n=c#7 v=66
205942 On ch=1 n=g#5 v=14
205954 On ch=1 n=b5 v=29
205960 On ch=1 n=e6 v=32
205964 On ch=1 n=c#6 v=33
205974 On ch=1 n=e5 v=36
206012 Par ch=1 c=64 v=63
206106 Par ch=1 c=64 v=127
206272 On ch=1 n=e5 v=0
206272 On ch=1 n=c#6 v=0
206278 On ch=1 n=e6 v=0
206284 On ch=1 n=b5 v=0
206284 On ch=1 n=g#5 v=0
206494 On ch=1 n=c#6 v=50
206518 On ch=1 n=g#5 v=39
206528 On ch=1 n=e6 v=34
206530 On ch=1 n=e5 v=36
206538 On ch=1 n=b5 v=48
206610 On ch=1 n=c#6 v=0
206634 On ch=1 n=e5 v=0
206634 On ch=1 n=e6 v=0
206654 On ch=1 n=b5 v=0
206658 On ch=1 n=g#5 v=0
206722 On ch=1 n=g#6 v=69
206724 On ch=1 n=c#7 v=0
206968 On ch=1 n=c#7 v=79
206974 On ch=1 n=d#6 v=54
206980 On ch=1 n=g#5 v=43
206990 On ch=1 n=g#6 v=0
206994 On ch=1 n=b5 v=51
206998 On ch=1 n=c#6 v=63
206998 On ch=1 n=d#5 v=38
207076 On ch=1 n=d#5 v=0
207116 On ch=1 n=g#5 v=0
207130 On ch=1 n=b5 v=0
207138 On ch=1 n=d#6 v=0
207154 On ch=1 n=c#6 v=0
207430 On ch=1 n=d#5 v=41
207432 On ch=1 n=g#5 v=52
207446 On ch=1 n=d#6 v=40
207448 On ch=1 n=c#6 v=71
207468 On ch=1 n=b5 v=36
207520 On ch=1 n=d#6 v=0
207528 On ch=1 n=d#5 v=0
207558 On ch=1 n=b5 v=0
207584 On ch=1 n=g#5 v=0
207630 On ch=1 n=g#6 v=88
207694 On ch=1 n=c#6 v=0
207732 On ch=1 n=c#7 v=0
207874 On ch=1 n=c#6 v=55
207902 On ch=1 n=g#5 v=40
207910 On ch=1 n=e5 v=50
207918 On ch=1 n=b5 v=51
207932 On ch=1 n=e6 v=54
207934 On ch=1 n=d#7 v=80
208036 On ch=1 n=g#6 v=0
208224 On ch=1 n=e5 v=0
208226 On ch=1 n=b5 v=0
208230 On ch=1 n=e6 v=0
208238 On ch=1 n=g#5 v=0
208296 On ch=1 n=b6 v=86
208306 On ch=1 n=d#7 v=0
208336 On ch=1 n=c#6 v=0
208396 On ch=1 n=c#6 v=12
208440 On ch=1 n=e5 v=52
208442 On ch=1 n=g#5 v=60
208456 On ch=1 n=e6 v=56
208460 On ch=1 n=b5 v=66
208574 On ch=1 n=g#6 v=95
208596 On ch=1 n=e6 v=0
208596 On ch=1 n=e5 v=0
208634 On ch=1 n=g#5 v=0
208640 On ch=1 n=b6 v=0
208648 On ch=1 n=b5 v=0
208786 On ch=1 n=c#6 v=0
208882 On ch=1 n=g#5 v=51
208894 On ch=1 n=c#7 v=82
208898 On ch=1 n=d#6 v=52
208904 On ch=1 n=b5 v=50
208906 On ch=1 n=c#6 v=33
208912 On ch=1 n=d#5 v=60
208964 On ch=1 n=g#6 v=0
208992 Par ch=1 c=64 v=63
209024 Par ch=1 c=64 v=127
209190 On ch=1 n=d#5 v=0
209198 On ch=1 n=g#5 v=0
209206 On ch=1 n=b5 v=0
209208 On ch=1 n=d#6 v=0
209394 On ch=1 n=d#5 v=59
209396 On ch=1 n=g#5 v=58
209404 On ch=1 n=d#6 v=25
209410 On ch=1 n=b5 v=60
209496 On ch=1 n=d#6 v=0
209504 On ch=1 n=d#5 v=0
209544 On ch=1 n=b5 v=0
209558 On ch=1 n=g#5 v=0
209618 On ch=1 n=g#6 v=84
209678 On ch=1 n=c#7 v=0
209850 On ch=1 n=c#6 v=0
209876 On ch=1 n=c#7 v=62
209878 On ch=1 n=g#5 v=14
209888 On ch=1 n=b5 v=41
209888 On ch=1 n=c#6 v=52
209890 On ch=1 n=e6 v=37
209892 On ch=1 n=e5 v=38
209990 On ch=1 n=g#6 v=0
210230 On ch=1 n=e5 v=0
210230 On ch=1 n=e6 v=0
210232 On ch=1 n=b5 v=0
210242 On ch=1 n=g#5 v=0
210248 On ch=1 n=c#6 v=0
210422 On ch=1 n=g#5 v=44
210426 On ch=1 n=c#6 v=39
210436 On ch=1 n=e5 v=21
210446 On ch=1 n=b5 v=47
210448 On ch=1 n=e6 v=18
210542 On ch=1 n=c#6 v=0
210578 On ch=1 n=e6 v=0
210590 On ch=1 n=e5 v=0
210622 On ch=1 n=b5 v=0
210624 On ch=1 n=g#5 v=0
210910 On ch=1 n=g#5 v=43
210914 On ch=1 n=d#6 v=38
210916 On ch=1 n=d#5 v=51
210918 On ch=1 n=c#6 v=47
210930 On ch=1 n=b5 v=40
211010 On ch=1 n=c#6 v=0
211020 On ch=1 n=d#6 v=0
211038 On ch=1 n=d#5 v=0
211040 On ch=1 n=b5 v=0
211050 On ch=1 n=g#5 v=0
211380 On ch=1 n=g#5 v=39
211382 On ch=1 n=c#6 v=49
211392 On ch=1 n=b5 v=39
211402 On ch=1 n=d#6 v=22
211444 On ch=1 n=c#7 v=0
211452 On ch=1 n=d#6 v=0
211474 On ch=1 n=d#5 v=5
211520 On ch=1 n=b5 v=0
211528 On ch=1 n=c#6 v=0
211550 On ch=1 n=g#5 v=0
211602 On ch=1 n=d#5 v=0
212062 On ch=1 n=b5 v=36
212066 On ch=1 n=e6 v=39
212080 On ch=1 n=e5 v=27
212106 On ch=1 n=c#6 v=48
212166 Par ch=1 c=64 v=63
212190 Par ch=1 c=64 v=127
212472 On ch=1 n=e5 v=0
212500 On ch=1 n=e6 v=0
212500 On ch=1 n=b5 v=0
212516 On ch=1 n=c#6 v=0
212660 On ch=1 n=g#3 v=41
212668 On ch=1 n=e6 v=41
212668 On ch=1 n=c#3 v=42
212676 On ch=1 n=c#6 v=62
212688 On ch=1 n=b5 v=40
212786 On ch=1 n=e6 v=0
212834 On ch=1 n=b5 v=0
212834 On ch=1 n=c#6 v=0
212950 On ch=1 n=c#3 v=0
212974 On ch=1 n=g#3 v=0
213170 On ch=1 n=d#5 v=50
213176 On ch=1 n=d#6 v=67
213178 On ch=1 n=c#6 v=53
213178 On ch=1 n=b5 v=62
213332 On ch=1 n=d#5 v=0
213386 On ch=1 n=b5 v=0
213420 On ch=1 n=c#6 v=0
213428 On ch=1 n=d#6 v=0
213534 Par ch=1 c=67 v=0
213602 On ch=1 n=d#6 v=72
213610 On ch=1 n=d#5 v=56
213620 On ch=1 n=c#4 v=61
213620 On ch=1 n=b5 v=60
213622 On ch=1 n=c#6 v=72
213628 On ch=1 n=g#4 v=58
213688 On ch=1 n=c#4 v=0
213706 On ch=1 n=g#4 v=0
213746 On ch=1 n=d#5 v=0
213782 On ch=1 n=b5 v=0
213804 On ch=1 n=d#6 v=0
213844 On ch=1 n=c#6 v=0
214172 On ch=1 n=g#5 v=83
214194 On ch=1 n=e6 v=54
214200 On ch=1 n=c#6 v=50
214202 On ch=1 n=e5 v=31
214202 On ch=1 n=c#5 v=57
214204 On ch=1 n=b5 v=41
214504 On ch=1 n=b5 v=0
214508 On ch=1 n=e5 v=0
214520 On ch=1 n=e6 v=0
214524 On ch=1 n=c#6 v=0
214778 On ch=1 n=e6 v=53
214790 On ch=1 n=e5 v=31
214792 On ch=1 n=c#6 v=66
214794 On ch=1 n=b5 v=63
214878 On ch=1 n=e5 v=0
214926 On ch=1 n=b5 v=0
214928 On ch=1 n=e6 v=0
214928 On ch=1 n=c#5 v=0
214952 On ch=1 n=c#6 v=0
215274 On ch=1 n=d#6 v=67
215282 On ch=1 n=d#5 v=55
215286 On ch=1 n=c#6 v=60
215294 On ch=1 n=b5 v=61
215386 On ch=1 n=d#5 v=0
215428 On ch=1 n=b5 v=0
215448 On ch=1 n=d#6 v=0
215456 On ch=1 n=c#6 v=0
215724 On ch=1 n=d#6 v=43
215732 On ch=1 n=b5 v=54
215736 On ch=1 n=d#5 v=44
215748 On ch=1 n=c#6 v=62
215832 On ch=1 n=b5 v=0
215848 On ch=1 n=d#5 v=0
215860 On ch=1 n=c#6 v=0
215864 On ch=1 n=d#6 v=0
216244 On ch=1 n=d#6 v=50
216248 On ch=1 n=d#5 v=33
216268 On ch=1 n=b5 v=49
216284 On ch=1 n=a5 v=41
216342 Par ch=1 c=67 v=127
216508 On ch=1 n=d#5 v=0
216516 On ch=1 n=b5 v=0
216528 On ch=1 n=a5 v=0
216554 On ch=1 n=d#6 v=0
216868 On ch=1 n=d#6 v=30
216876 On ch=1 n=f#5 v=84
216910 On ch=1 n=b5 v=33
216926 On ch=1 n=a5 v=21
216936 On ch=1 n=g#5 v=0
217038 On ch=1 n=d#6 v=0
217060 On ch=1 n=b5 v=0
217088 On ch=1 n=a5 v=0
217540 On ch=1 n=c#6 v=25
217596 On ch=1 n=g5 v=24
217606 On ch=1 n=c#5 v=5
217624 On ch=1 n=a5 v=9
217918 On ch=1 n=c#5 v=0
217928 On ch=1 n=g5 v=0
217944 On ch=1 n=c#6 v=0
217948 On ch=1 n=a5 v=0
217948 On ch=1 n=f#5 v=0
218306 On ch=1 n=e5 v=48
218310 On ch=1 n=c#6 v=17
218398 On ch=1 n=a5 v=7
218400 On ch=1 n=g5 v=9
218412 On ch=1 n=c#5 v=5
218434 On ch=1 n=e5 v=0
218572 On ch=1 n=c#5 v=0
218574 On ch=1 n=c#6 v=0
218584 On ch=1 n=a5 v=0
218596 On ch=1 n=g5 v=0
219244 On ch=1 n=a#4 v=40
219246 On ch=1 n=f#3 v=30
219252 On ch=1 n=g#5 v=51
219254 On ch=1 n=c#4 v=47
219266 On ch=1 n=f#5 v=65
219380 Par ch=1 c=64 v=63
219414 Par ch=1 c=64 v=127
219626 On ch=1 n=a#4 v=0
220008 On ch=1 n=a#4 v=60
220264 On ch=1 n=c#5 v=88
220284 On ch=1 n=g#5 v=0
220292 On ch=1 n=a#4 v=0
220334 On ch=1 n=f#5 v=0
220336 On ch=1 n=c#4 v=0
220380 On ch=1 n=f#3 v=0
220502 On ch=1 n=c#5 v=0
220540 On ch=1 n=a#5 v=93
220542 On ch=1 n=f#5 v=52
220544 On ch=1 n=c#4 v=43
220552 On ch=1 n=f#3 v=21
220552 On ch=1 n=a#4 v=55
220826 On ch=1 n=a#4 v=0
221080 On ch=1 n=a#4 v=58
221110 On ch=1 n=a#5 v=0
221170 On ch=1 n=c#4 v=0
221178 On ch=1 n=f#3 v=0
221302 On ch=1 n=c#5 v=89
221350 On ch=1 n=a#4 v=0
221360 On ch=1 n=f#5 v=0
221522 On ch=1 n=c#5 v=0
221524 On ch=1 n=d#3 v=63
221546 On ch=1 n=a#3 v=54
221618 Par ch=1 c=64 v=63
221632 Par ch=1 c=64 v=0
221636 On ch=1 n=f#5 v=76
221640 On ch=1 n=a#4 v=65
221654 On ch=1 n=f5 v=73
221682 Par ch=1 c=64 v=63
221708 Par ch=1 c=64 v=127
221788 On ch=1 n=a#4 v=0
221792 On ch=1 n=d#3 v=0
221836 On ch=1 n=a#3 v=0
222080 On ch=1 n=d#5 v=71
222086 On ch=1 n=f5 v=0
222126 On ch=1 n=f#5 v=0
222192 On ch=1 n=a#4 v=75
222264 On ch=1 n=a#4 v=0
222402 On ch=1 n=a#4 v=80
222410 On ch=1 n=d#5 v=0
222576 On ch=1 n=a#4 v=0
222646 On ch=1 n=c#4 v=45
222656 On ch=1 n=f#3 v=25
222716 On ch=1 n=g#5 v=73
222726 On ch=1 n=a#4 v=57
222744 On ch=1 n=f#5 v=74
222772 Par ch=1 c=64 v=63
222792 Par ch=1 c=64 v=0
222822 Par ch=1 c=64 v=63
222870 Par ch=1 c=64 v=127
223014 On ch=1 n=a#4 v=0
223224 On ch=1 n=a#4 v=72
223418 On ch=1 n=c#5 v=99
223440 On ch=1 n=g#5 v=0
223468 On ch=1 n=a#4 v=0
223490 On ch=1 n=f#5 v=0
223658 On ch=1 n=c#5 v=0
223726 On ch=1 n=f#5 v=92
223726 On ch=1 n=a#5 v=100
223734 On ch=1 n=a#4 v=74
224090 On ch=1 n=a#4 v=0
224354 On ch=1 n=a#4 v=51
224418 On ch=1 n=a#5 v=0
224442 On ch=1 n=c#4 v=0
224486 On ch=1 n=f#3 v=0
224596 On ch=1 n=c#5 v=83
224628 On ch=1 n=f#5 v=0
224676 On ch=1 n=a#4 v=0
224822 On ch=1 n=c#5 v=0
224858 On ch=1 n=d#3 v=39
224870 On ch=1 n=a#3 v=43
224932 On ch=1 n=f#5 v=68
224938 On ch=1 n=a#4 v=52
224952 On ch=1 n=f5 v=68
224974 Par ch=1 c=64 v=63
224984 Par ch=1 c=64 v=0
225070 Par ch=1 c=64 v=63
225092 Par ch=1 c=64 v=127
225188 On ch=1 n=d#3 v=0
225202 On ch=1 n=a#4 v=0
225230 On ch=1 n=a#3 v=0
225350 On ch=1 n=d#5 v=62
225480 On ch=1 n=f5 v=0
225496 On ch=1 n=f#5 v=0
225534 On ch=1 n=a#4 v=55
225616 On ch=1 n=a#4 v=0
225618 On ch=1 n=f#5 v=5
225710 On ch=1 n=f#5 v=0
225772 On ch=1 n=a#4 v=61
225826 On ch=1 n=d#5 v=0
226002 On ch=1 n=a#4 v=0
226294 On ch=1 n=g#5 v=51
226310 On ch=1 n=f#5 v=60
226322 On ch=1 n=f#3 v=37
226324 On ch=1 n=b4 v=50
226326 On ch=1 n=d#5 v=50
226344 On ch=1 n=b2 v=34
226402 Par ch=1 c=67 v=127
226504 Par ch=1 c=64 v=63
226522 Par ch=1 c=64 v=0
226630 Par ch=1 c=64 v=63
226648 Par ch=1 c=64 v=127
226800 On ch=1 n=b4 v=0
226810 On ch=1 n=g#5 v=0
226826 On ch=1 n=d#5 v=0
226834 On ch=1 n=f#5 v=0
226960 On ch=1 n=d#5 v=50
226960 On ch=1 n=f#5 v=64
226966 On ch=1 n=b4 v=46
226966 On ch=1 n=g#5 v=60
227144 On ch=1 n=b2 v=0
227166 On ch=1 n=d#5 v=0
227168 On ch=1 n=b4 v=0
227188 On ch=1 n=g#5 v=0
227190 On ch=1 n=f#5 v=0
227192 On ch=1 n=f#3 v=0
227424 On ch=1 n=g#5 v=67
227430 On ch=1 n=b4 v=57
227430 On ch=1 n=f#5 v=77
227442 On ch=1 n=d#5 v=68
227572 On ch=1 n=d#5 v=0
227594 On ch=1 n=b4 v=0
227610 On ch=1 n=f#5 v=0
227624 On ch=1 n=g#5 v=0
227848 On ch=1 n=f#4 v=76
227848 On ch=1 n=b4 v=55
227852 On ch=1 n=g#5 v=68
227852 On ch=1 n=f#5 v=79
227854 On ch=1 n=d#5 v=63
227876 On ch=1 n=b3 v=58
228092 On ch=1 n=g#5 v=0
228106 On ch=1 n=b4 v=0
228114 On ch=1 n=d#5 v=0
228122 On ch=1 n=f#5 v=0
228312 On ch=1 n=f#4 v=0
228318 On ch=1 n=g#5 v=80
228318 On ch=1 n=b4 v=81
228322 On ch=1 n=f#5 v=84
228328 On ch=1 n=a#4 v=85
228332 On ch=1 n=d#5 v=73
228508 On ch=1 n=b4 v=0
228518 On ch=1 n=d#5 v=0
228522 On ch=1 n=g#5 v=0
228544 On ch=1 n=f#5 v=0
228568 On ch=1 n=b3 v=0
228650 On ch=1 n=a#4 v=0
228744 On ch=1 n=g#5 v=87
228746 On ch=1 n=b4 v=88
228746 On ch=1 n=f#4 v=95
228748 On ch=1 n=f#5 v=89
228756 On ch=1 n=d#5 v=81
228768 On ch=1 n=b3 v=57
228934 On ch=1 n=b4 v=0
228956 On ch=1 n=d#5 v=0
228962 On ch=1 n=g#5 v=0
228998 On ch=1 n=f#5 v=0
229200 On ch=1 n=g#5 v=86
229206 On ch=1 n=b4 v=88
229208 On ch=1 n=f#5 v=90
229212 On ch=1 n=g#4 v=98
229212 On ch=1 n=d#5 v=84
229220 Par ch=1 c=64 v=63
229230 Par ch=1 c=64 v=0
229268 On ch=1 n=f#4 v=0
229286 On ch=1 n=b3 v=0
229294 Par ch=1 c=64 v=63
229316 Par ch=1 c=64 v=127
229338 On ch=1 n=b4 v=0
229380 On ch=1 n=f#5 v=0
229382 On ch=1 n=d#5 v=0
229402 On ch=1 n=g#5 v=0
229606 Par ch=1 c=67 v=0
229740 On ch=1 n=b5 v=83
229760 On ch=1 n=d#5 v=67
229770 On ch=1 n=f#5 v=76
229778 On ch=1 n=g#5 v=57
229850 Par ch=1 c=67 v=127
229856 On ch=1 n=d#5 v=0
229880 On ch=1 n=f#5 v=0
229880 On ch=1 n=b5 v=0
229882 On ch=1 n=g#5 v=0
229892 Par ch=1 c=67 v=0
230042 On ch=1 n=g#4 v=0
230212 On ch=1 n=d#6 v=87
230216 On ch=1 n=f#5 v=76
230224 On ch=1 n=g#5 v=70
230224 On ch=1 n=b5 v=66
230306 On ch=1 n=f#5 v=0
230310 On ch=1 n=g#5 v=0
230324 On ch=1 n=b5 v=0
230338 On ch=1 n=d#6 v=0
230416 On ch=1 n=b4 v=90
230612 On ch=1 n=d#6 v=89
230614 On ch=1 n=g#5 v=87
230614 On ch=1 n=f#6 v=89
230632 On ch=1 n=b5 v=68
230634 On ch=1 n=d#5 v=100
230664 On ch=1 n=b4 v=0
230700 On ch=1 n=b5 v=0
230710 On ch=1 n=g#5 v=0
230740 On ch=1 n=f#6 v=0
230750 On ch=1 n=d#6 v=0
230820 On ch=1 n=f#5 v=108
230898 On ch=1 n=d#5 v=0
231038 On ch=1 n=g#6 v=95
231040 On ch=1 n=f#6 v=93
231042 On ch=1 n=b5 v=90
231044 On ch=1 n=d#6 v=95
231056 On ch=1 n=g#5 v=104
231114 On ch=1 n=f#5 v=0
231332 On ch=1 n=b5 v=0
231356 On ch=1 n=g#6 v=0
231364 On ch=1 n=d#6 v=0
231370 On ch=1 n=f#6 v=0
231508 On ch=1 n=a#6 v=113
231514 On ch=1 n=b5 v=101
231520 On ch=1 n=d#6 v=93
231524 On ch=1 n=f#6 v=84
231526 On ch=1 n=g#5 v=0
231532 On ch=1 n=b4 v=90
231748 On ch=1 n=a#5 v=113
231854 On ch=1 n=d#6 v=0
231854 On ch=1 n=b5 v=0
231862 On ch=1 n=f#6 v=0
231900 On ch=1 n=a#6 v=0
231994 On ch=1 n=a#5 v=0
232060 On ch=1 n=b4 v=0
232080 On ch=1 n=b6 v=96
232080 On ch=1 n=g#5 v=114
232082 On ch=1 n=f#6 v=98
232092 On ch=1 n=d#6 v=100
232096 On ch=1 n=b5 v=85
232120 On ch=1 n=g#6 v=45
232160 On ch=1 n=g#6 v=0
232174 Par ch=1 c=64 v=63
232184 Par ch=1 c=64 v=0
232266 Par ch=1 c=64 v=63
232284 Par ch=1 c=64 v=127
232370 On ch=1 n=b6 v=0
232472 On ch=1 n=f#6 v=0
232480 On ch=1 n=d#6 v=0
232484 On ch=1 n=b5 v=0
232602 On ch=1 n=b6 v=103
232604 On ch=1 n=f#6 v=104
232608 On ch=1 n=b5 v=103
232610 On ch=1 n=d#6 v=106
232858 On ch=1 n=b5 v=0
232934 On ch=1 n=b6 v=0
232952 On ch=1 n=d#6 v=0
232960 On ch=1 n=f#6 v=0
233056 On ch=1 n=b6 v=108
233060 On ch=1 n=f#6 v=112
233062 On ch=1 n=b5 v=112
233064 On ch=1 n=d#6 v=108
233356 On ch=1 n=b5 v=0
233374 On ch=1 n=b6 v=0
233378 On ch=1 n=d#6 v=0
233400 On ch=1 n=f#6 v=0
233512 On ch=1 n=b6 v=113
233512 On ch=1 n=f#6 v=112
233516 On ch=1 n=b5 v=116
233518 On ch=1 n=d#6 v=112
233602 On ch=1 n=b5 v=0
233664 On ch=1 n=d#6 v=0
233694 On ch=1 n=f#6 v=0
233696 On ch=1 n=b6 v=0
234076 On ch=1 n=c#7 v=113
234082 On ch=1 n=b6 v=97
234084 On ch=1 n=f#5 v=115
234084 On ch=1 n=d#6 v=108
234090 On ch=1 n=f#6 v=93
234122 On ch=1 n=g#5 v=0
234412 On ch=1 n=c#7 v=0
234442 On ch=1 n=d#6 v=0
234482 On ch=1 n=f#6 v=0
234500 On ch=1 n=b6 v=0
234708 On ch=1 n=f#5 v=0
234762 On ch=1 n=d#6 v=80
234764 On ch=1 n=d#7 v=103
234774 On ch=1 n=f#6 v=76
234774 On ch=1 n=b6 v=70
234868 On ch=1 n=d#6 v=0
234912 On ch=1 n=f#6 v=0
235052 On ch=1 n=d#7 v=0
235068 On ch=1 n=b6 v=0
235620 Par ch=1 c=64 v=63
235732 Par ch=1 c=64 v=0
235960 On ch=1 n=b3 v=54
236556 Par ch=1 c=64 v=63
236576 Par ch=1 c=64 v=127
236672 On ch=1 n=d#6 v=80
236818 On ch=1 n=d#6 v=0
236884 On ch=1 n=b3 v=0
237350 On ch=1 n=f#5 v=71
237360 On ch=1 n=g#4 v=37
237370 On ch=1 n=d#4 v=43
237386 On ch=1 n=b4 v=50
237486 Par ch=1 c=64 v=63
237574 Par ch=1 c=64 v=127
237798 On ch=1 n=g#4 v=0
237812 On ch=1 n=b4 v=0
237916 On ch=1 n=g#4 v=67
237930 On ch=1 n=b4 v=70
238044 On ch=1 n=b4 v=0
238044 On ch=1 n=g#4 v=0
238112 On ch=1 n=f#5 v=0
238144 On ch=1 n=d#4 v=0
238360 On ch=1 n=f5 v=88
238368 On ch=1 n=c#4 v=64
238376 On ch=1 n=g#4 v=58
238392 On ch=1 n=c#5 v=80
238462 Par ch=1 c=64 v=63
238546 Par ch=1 c=64 v=127
238692 On ch=1 n=c#5 v=0
238708 On ch=1 n=g#4 v=0
238792 On ch=1 n=b3 v=87
238794 On ch=1 n=g#4 v=81
238806 On ch=1 n=c#5 v=95
238852 On ch=1 n=c#4 v=0
238950 On ch=1 n=f5 v=0
239062 On ch=1 n=c#5 v=0
239136 On ch=1 n=g#4 v=0
239210 On ch=1 n=a#3 v=67
239248 On ch=1 n=g#5 v=92
239270 On ch=1 n=g#4 v=53
239276 On ch=1 n=c#5 v=81
239344 On ch=1 n=b3 v=0
239366 Par ch=1 c=64 v=63
239390 Par ch=1 c=64 v=0
239462 Par ch=1 c=64 v=63
239498 Par ch=1 c=64 v=127
239630 On ch=1 n=c#5 v=0
239638 On ch=1 n=g#4 v=0
239770 On ch=1 n=c#5 v=64
239774 On ch=1 n=g#4 v=36
239930 On ch=1 n=c#5 v=0
239940 On ch=1 n=a#3 v=0
239950 On ch=1 n=g#4 v=0
240204 On ch=1 n=a#4 v=49
240210 On ch=1 n=c#5 v=60
240216 On ch=1 n=g#4 v=31
240352 On ch=1 n=c#5 v=0
240354 On ch=1 n=g#4 v=0
240406 On ch=1 n=a#4 v=0
240552 On ch=1 n=g#5 v=0
240692 On ch=1 n=c#5 v=73
240692 On ch=1 n=f#5 v=76
240720 On ch=1 n=f#4 v=53
240800 On ch=1 n=c#5 v=0
240844 On ch=1 n=f#5 v=0
240970 On ch=1 n=f#4 v=0
241334 On ch=1 n=d#4 v=62
241350 On ch=1 n=c#5 v=51
241356 On ch=1 n=f#5 v=65
241360 On ch=1 n=b5 v=66
241406 Par ch=1 c=64 v=63
241412 Par ch=1 c=64 v=127
241538 Par ch=1 c=64 v=63
241552 Par ch=1 c=64 v=0
241586 Par ch=1 c=64 v=63
241604 Par ch=1 c=64 v=127
241818 On ch=1 n=b5 v=0
241866 On ch=1 n=c#5 v=0
241940 On ch=1 n=d#4 v=0
241952 On ch=1 n=f4 v=49
241956 On ch=1 n=f#5 v=0
241990 On ch=1 n=g#5 v=75
241998 On ch=1 n=c#6 v=76
242018 On ch=1 n=c#5 v=36
242074 Par ch=1 c=64 v=63
242104 Par ch=1 c=64 v=127
242398 On ch=1 n=c#5 v=0
242412 On ch=1 n=c#6 v=0
242488 On ch=1 n=a#5 v=98
242496 On ch=1 n=c#5 v=61
242498 On ch=1 n=f#4 v=69
242550 On ch=1 n=g#5 v=0
242564 On ch=1 n=f4 v=0
242600 Par ch=1 c=64 v=63
242626 Par ch=1 c=64 v=127
242850 On ch=1 n=c#5 v=0
242948 On ch=1 n=d#4 v=60
242956 On ch=1 n=f#5 v=101
242968 On ch=1 n=c#5 v=62
243028 On ch=1 n=a#5 v=0
243362 On ch=1 n=c#5 v=0
243388 On ch=1 n=f#5 v=0
243430 On ch=1 n=c#4 v=29
243486 On ch=1 n=g#4 v=38
243494 On ch=1 n=f#5 v=55
243498 On ch=1 n=c#6 v=80
243502 On ch=1 n=c#5 v=56
243574 On ch=1 n=d#4 v=0
243584 On ch=1 n=f#4 v=0
243638 Par ch=1 c=64 v=63
243730 Par ch=1 c=64 v=127
243894 On ch=1 n=c#5 v=0
244058 On ch=1 n=c#5 v=51
244260 On ch=1 n=f#5 v=0
244288 On ch=1 n=c#5 v=0
244698 On ch=1 n=f5 v=47
244720 On ch=1 n=c#5 v=10
244744 Par ch=1 c=64 v=63
244842 Par ch=1 c=64 v=127
245014 On ch=1 n=c#4 v=0
245030 On ch=1 n=c#5 v=0
245034 On ch=1 n=g#4 v=0
245084 On ch=1 n=f5 v=0
245150 On ch=1 n=c#6 v=0
245434 On ch=1 n=f#5 v=68
245452 On ch=1 n=d#5 v=52
245472 On ch=1 n=f5 v=40
245480 On ch=1 n=b4 v=42
245538 Par ch=1 c=64 v=63
245628 Par ch=1 c=64 v=127
245692 On ch=1 n=f5 v=0
245850 On ch=1 n=f#5 v=0
246044 On ch=1 n=b4 v=0
246052 On ch=1 n=c#5 v=66
246054 On ch=1 n=a#5 v=74
246060 On ch=1 n=a#4 v=40
246170 Par ch=1 c=64 v=63
246192 Par ch=1 c=64 v=0
246248 On ch=1 n=d#5 v=0
246282 On ch=1 n=c#5 v=0
246284 On ch=1 n=a#4 v=0
246554 Par ch=1 c=64 v=63
246560 On ch=1 n=f#5 v=92
246560 Par ch=1 c=64 v=127
246562 On ch=1 n=d#5 v=71
246578 On ch=1 n=b4 v=56
246590 On ch=1 n=g#4 v=63
246666 On ch=1 n=a#5 v=0
246734 On ch=1 n=b5 v=87
246758 On ch=1 n=b4 v=0
246770 On ch=1 n=d#5 v=0
246792 On ch=1 n=g#4 v=0
246978 On ch=1 n=c#6 v=80
246992 On ch=1 n=b5 v=0
247002 On ch=1 n=a#4 v=42
247006 On ch=1 n=f#4 v=60
247020 Par ch=1 c=64 v=63
247022 On ch=1 n=c#5 v=43
247030 Par ch=1 c=64 v=0
247140 Par ch=1 c=64 v=63
247158 Par ch=1 c=64 v=127
247162 On ch=1 n=f#4 v=0
247190 On ch=1 n=a#4 v=0
247196 On ch=1 n=c#5 v=0
247208 On ch=1 n=f#5 v=0
247472 On ch=1 n=a#5 v=88
247476 Par ch=1 c=64 v=63
247486 Par ch=1 c=64 v=0
247994 On ch=1 n=d#5 v=60
248006 On ch=1 n=b4 v=46
248024 On ch=1 n=d#6 v=80
248072 On ch=1 n=c#6 v=0
248072 Par ch=1 c=64 v=63
248076 Par ch=1 c=64 v=127
248190 On ch=1 n=a#5 v=0
248306 On ch=1 n=g#5 v=88
248392 On ch=1 n=d#5 v=0
248520 On ch=1 n=f#6 v=96
248528 On ch=1 n=f#5 v=88
248546 On ch=1 n=g#5 v=0
248574 On ch=1 n=b4 v=0
248594 On ch=1 n=d#6 v=0
248692 On ch=1 n=f5 v=90
248710 On ch=1 n=f#5 v=0
248904 On ch=1 n=f#6 v=0
248908 On ch=1 n=d#5 v=80
248914 On ch=1 n=b5 v=86
248918 On ch=1 n=g#4 v=72
248960 On ch=1 n=f5 v=0
248964 Par ch=1 c=64 v=63
248972 Par ch=1 c=64 v=0
249116 Par ch=1 c=64 v=63
249130 Par ch=1 c=64 v=127
249318 On ch=1 n=f5 v=85
249320 On ch=1 n=d#5 v=0
249330 On ch=1 n=g#4 v=0
249406 On ch=1 n=f5 v=0
249444 On ch=1 n=b5 v=0
249490 On ch=1 n=a#5 v=98
249536 On ch=1 n=f#5 v=89
249542 On ch=1 n=f#4 v=80
249598 On ch=1 n=f#5 v=0
249610 On ch=1 n=f#4 v=0
249736 On ch=1 n=g#5 v=96
249742 On ch=1 n=f4 v=74
249752 Par ch=1 c=64 v=63
249760 Par ch=1 c=64 v=0
249806 On ch=1 n=a#5 v=0
249884 Par ch=1 c=64 v=63
249898 Par ch=1 c=64 v=127
250024 On ch=1 n=f4 v=0
250116 On ch=1 n=g#5 v=0
250228 On ch=1 n=g#5 v=96
250714 On ch=1 n=f#4 v=51
250754 On ch=1 n=c#5 v=58
250760 On ch=1 n=a#5 v=89
250840 Par ch=1 c=64 v=63
250886 Par ch=1 c=64 v=127
251026 On ch=1 n=g#5 v=0
251128 On ch=1 n=f#5 v=85
251246 On ch=1 n=c#5 v=0
251306 On ch=1 n=f#5 v=0
251334 On ch=1 n=f5 v=85
251362 On ch=1 n=f#4 v=0
251432 On ch=1 n=a#5 v=0
251500 On ch=1 n=d#5 v=100
251524 On ch=1 n=f5 v=0
251578 On ch=1 n=d#5 v=0
251724 On ch=1 n=c#5 v=76
251732 On ch=1 n=f#5 v=94
251750 On ch=1 n=g#4 v=55
251758 On ch=1 n=d#4 v=26
251784 On ch=1 n=g#5 v=79
251808 On ch=1 n=f#5 v=0
251864 On ch=1 n=f#5 v=67
251872 On ch=1 n=g#5 v=0
251894 Par ch=1 c=64 v=63
251912 Par ch=1 c=64 v=0
251974 Par ch=1 c=64 v=63
252018 Par ch=1 c=64 v=127
252114 On ch=1 n=c#5 v=0
252142 On ch=1 n=c5 v=76
252152 On ch=1 n=f5 v=88
252204 On ch=1 n=f#5 v=0
252306 On ch=1 n=d#4 v=0
252312 On ch=1 n=f#5 v=106
252354 On ch=1 n=f5 v=0
252522 On ch=1 n=c5 v=0
252528 On ch=1 n=g#4 v=0
252528 On ch=1 n=f4 v=47
252534 On ch=1 n=f#5 v=0
252548 On ch=1 n=c#5 v=74
252548 On ch=1 n=g#5 v=86
252568 On ch=1 n=c#4 v=55
252650 Par ch=1 c=64 v=63
252664 Par ch=1 c=64 v=0
252778 Par ch=1 c=64 v=63
252798 Par ch=1 c=64 v=127
252880 On ch=1 n=f4 v=0
252906 On ch=1 n=c#5 v=0
253010 On ch=1 n=f4 v=62
253190 On ch=1 n=c#5 v=85
253252 On ch=1 n=f4 v=0
253288 On ch=1 n=g#5 v=0
253354 On ch=1 n=c#5 v=0
253446 On ch=1 n=f4 v=51
253446 On ch=1 n=c#5 v=52
253448 On ch=1 n=g#5 v=85
253500 Par ch=1 c=64 v=63
253518 Par ch=1 c=64 v=0
253574 Par ch=1 c=64 v=63
253620 Par ch=1 c=64 v=127
253736 On ch=1 n=f4 v=0
253738 On ch=1 n=c#5 v=0
253892 On ch=1 n=f4 v=66
253944 On ch=1 n=c#4 v=0
254046 On ch=1 n=c#5 v=65
254078 On ch=1 n=f4 v=0
254196 On ch=1 n=c#5 v=0
254322 On ch=1 n=b3 v=59
254336 On ch=1 n=g#5 v=0
254344 On ch=1 n=f#3 v=29
254408 On ch=1 n=a#5 v=72
254426 On ch=1 n=b4 v=65
254448 Par ch=1 c=64 v=63
254462 Par ch=1 c=64 v=0
254546 Par ch=1 c=64 v=63
254580 Par ch=1 c=64 v=127
254640 On ch=1 n=d#4 v=76
254698 On ch=1 n=f#3 v=0
254752 On ch=1 n=b3 v=0
254756 On ch=1 n=f#5 v=94
254766 On ch=1 n=b4 v=0
254816 On ch=1 n=a#5 v=0
254898 On ch=1 n=f#4 v=78
254968 On ch=1 n=d#4 v=0
255008 On ch=1 n=f#4 v=0
255056 On ch=1 n=d#5 v=92
255110 On ch=1 n=f#5 v=0
255176 On ch=1 n=a#4 v=75
255182 On ch=1 n=d#5 v=0
255446 On ch=1 n=a#4 v=0
255456 On ch=1 n=g#5 v=80
255460 On ch=1 n=c#4 v=48
255464 On ch=1 n=c#5 v=58
255486 On ch=1 n=f4 v=48
255598 Par ch=1 c=64 v=63
255614 Par ch=1 c=64 v=0
255728 Par ch=1 c=64 v=63
255748 Par ch=1 c=64 v=127
255794 On ch=1 n=f4 v=0
255904 On ch=1 n=c#5 v=0
255976 On ch=1 n=f4 v=63
256078 On ch=1 n=f4 v=0
256084 On ch=1 n=c#4 v=0
256182 On ch=1 n=c#5 v=62
256266 On ch=1 n=g#5 v=0
256488 On ch=1 n=g#3 v=49
256492 On ch=1 n=c#3 v=46
256540 On ch=1 n=g#5 v=62
256576 Par ch=1 c=64 v=63
256590 Par ch=1 c=64 v=0
256658 Par ch=1 c=64 v=63
256686 Par ch=1 c=64 v=127
256794 On ch=1 n=c#3 v=0
256802 On ch=1 n=c#5 v=0
256842 On ch=1 n=g#3 v=0
256934 On ch=1 n=g#5 v=0
257168 On ch=1 n=c#4 v=65
257680 On ch=1 n=f4 v=68
258138 On ch=1 n=f#4 v=91
258174 On ch=1 n=f4 v=0
258316 On ch=1 n=c#4 v=0
258486 On ch=1 n=f#4 v=0
258694 On ch=1 n=g#5 v=70
258702 On ch=1 n=c#4 v=52
258710 On ch=1 n=g#4 v=55
258722 On ch=1 n=c#5 v=31
258730 On ch=1 n=e5 v=47
258808 Par ch=1 c=64 v=63
258820 Par ch=1 c=64 v=0
258930 Par ch=1 c=64 v=63
258946 Par ch=1 c=64 v=127
259112 On ch=1 n=g#4 v=0
259272 On ch=1 n=c#5 v=0
259302 On ch=1 n=g#4 v=85
259500 On ch=1 n=g#5 v=0
259514 On ch=1 n=c#5 v=103
259678 On ch=1 n=c#5 v=0
259692 On ch=1 n=e5 v=0
259790 On ch=1 n=c#5 v=87
259800 On ch=1 n=g#5 v=99
259820 On ch=1 n=e5 v=72
260064 On ch=1 n=c#5 v=0
260136 On ch=1 n=e5 v=0
260230 On ch=1 n=b4 v=97
260302 On ch=1 n=g#4 v=0
260336 On ch=1 n=c#4 v=0
260360 On ch=1 n=b4 v=0
260394 On ch=1 n=g#5 v=0
260436 On ch=1 n=c#5 v=104
260512 On ch=1 n=g#5 v=12
260592 On ch=1 n=g#5 v=0
260608 On ch=1 n=c#5 v=0
260692 On ch=1 n=f#3 v=74
260748 On ch=1 n=a#5 v=93
260750 On ch=1 n=a#4 v=76
260850 Par ch=1 c=64 v=63
260858 Par ch=1 c=64 v=0
260928 Par ch=1 c=64 v=63
260952 Par ch=1 c=64 v=127
261090 On ch=1 n=f#3 v=0
261108 On ch=1 n=f#5 v=104
261168 On ch=1 n=a#5 v=0
261236 On ch=1 n=g#4 v=84
261288 On ch=1 n=a#4 v=0
261386 On ch=1 n=c#5 v=104
261452 On ch=1 n=f#5 v=0
261556 On ch=1 n=c#5 v=0
261674 On ch=1 n=f#4 v=65
261688 On ch=1 n=b3 v=48
261698 On ch=1 n=g#4 v=0
261776 On ch=1 n=d#5 v=88
261782 On ch=1 n=b5 v=82
261970 Par ch=1 c=64 v=63
261982 Par ch=1 c=64 v=0
262092 Par ch=1 c=64 v=63
262112 Par ch=1 c=64 v=127
262198 On ch=1 n=f#4 v=0
262354 On ch=1 n=f#4 v=95
262722 On ch=1 n=b5 v=0
262788 On ch=1 n=b4 v=98
262838 On ch=1 n=f#4 v=0
262958 On ch=1 n=b4 v=0
262998 On ch=1 n=d#5 v=0
263214 On ch=1 n=a#4 v=88
263226 On ch=1 n=a#5 v=104
263286 On ch=1 n=b3 v=0
263694 On ch=1 n=g#3 v=61
263714 On ch=1 n=f#5 v=94
263722 On ch=1 n=b4 v=59
263722 On ch=1 n=d#5 v=80
263726 On ch=1 n=a#5 v=0
263784 Par ch=1 c=64 v=63
263800 Par ch=1 c=64 v=0
263946 Par ch=1 c=64 v=63
263960 Par ch=1 c=64 v=127
264064 On ch=1 n=a#4 v=0
264208 On ch=1 n=g#3 v=0
264218 On ch=1 n=a#5 v=93
264224 On ch=1 n=g#4 v=67
264350 On ch=1 n=f#5 v=0
264368 On ch=1 n=d#5 v=0
264414 On ch=1 n=b4 v=0
264474 On ch=1 n=f#4 v=72
264510 On ch=1 n=g#4 v=0
264734 On ch=1 n=b4 v=68
264742 On ch=1 n=c#4 v=60
264750 On ch=1 n=f#4 v=0
264754 On ch=1 n=e4 v=66
264848 Par ch=1 c=64 v=63
264866 Par ch=1 c=64 v=0
264954 Par ch=1 c=64 v=63
264984 Par ch=1 c=64 v=127
265210 On ch=1 n=g#5 v=84
265218 On ch=1 n=f4 v=51
265242 On ch=1 n=e4 v=0
265270 On ch=1 n=a#5 v=0
265322 On ch=1 n=c#4 v=0
265364 On ch=1 n=g#5 v=0
265390 On ch=1 n=f4 v=0
265546 On ch=1 n=b4 v=0
265726 On ch=1 n=c#3 v=47
265732 On ch=1 n=f5 v=60
265742 On ch=1 n=d#5 v=61
265746 On ch=1 n=b4 v=41
265838 Par ch=1 c=64 v=63
265912 Par ch=1 c=64 v=127
266062 On ch=1 n=d#5 v=0
266278 On ch=1 n=b4 v=0
266318 On ch=1 n=a#4 v=36
266320 On ch=1 n=c#5 v=67
266438 On ch=1 n=a#4 v=0
266490 On ch=1 n=c#5 v=0
266490 On ch=1 n=c#3 v=0
266566 On ch=1 n=g#4 v=60
266574 On ch=1 n=b4 v=57
266702 On ch=1 n=g#4 v=0
266724 On ch=1 n=b4 v=0
266890 On ch=1 n=a#4 v=57
266890 On ch=1 n=f#3 v=38
266902 On ch=1 n=c#4 v=30
266932 On ch=1 n=f#4 v=20
267012 Par ch=1 c=64 v=63
267028 Par ch=1 c=64 v=0
267146 Par ch=1 c=64 v=63
267166 Par ch=1 c=64 v=127
267202 On ch=1 n=c#4 v=0
267406 On ch=1 n=c#4 v=48
267518 On ch=1 n=f5 v=0
267526 On ch=1 n=f#4 v=0
267552 On ch=1 n=a#4 v=0
267566 On ch=1 n=c#4 v=0
268046 On ch=1 n=a#4 v=43
268046 On ch=1 n=c#4 v=31
268050 On ch=1 n=f#5 v=39
268074 On ch=1 n=f#4 v=14
268098 Par ch=1 c=64 v=63
268126 Par ch=1 c=64 v=0
268176 Par ch=1 c=64 v=63
268218 Par ch=1 c=64 v=127
268310 On ch=1 n=f#3 v=0
268338 On ch=1 n=c#4 v=0
268380 On ch=1 n=f#4 v=0
268484 On ch=1 n=a#4 v=0
268558 On ch=1 n=f#5 v=0
268820 On ch=1 n=c#5 v=48
269394 On ch=1 n=f5 v=46
269418 On ch=1 n=c#5 v=0
269490 Par ch=1 c=64 v=63
269534 Par ch=1 c=64 v=0
270028 Par ch=1 c=64 v=63
270044 Par ch=1 c=64 v=127
270152 On ch=1 n=f#5 v=60
270174 On ch=1 n=f5 v=0
270338 Par ch=1 c=67 v=127
270480 On ch=1 n=f#5 v=0
271072 On ch=1 n=c#7 v=53
271078 On ch=1 n=c#6 v=40
271082 On ch=1 n=g#5 v=19
271090 On ch=1 n=f5 v=24
271102 On ch=1 n=b5 v=38
271112 On ch=1 n=f6 v=20
271176 Par ch=1 c=64 v=63
271254 Par ch=1 c=64 v=127
271414 On ch=1 n=c#6 v=0
271440 On ch=1 n=f5 v=0
271464 On ch=1 n=g#5 v=0
271474 On ch=1 n=b5 v=0
271486 On ch=1 n=f6 v=0
271664 On ch=1 n=c#6 v=39
271678 On ch=1 n=f5 v=36
271690 On ch=1 n=f6 v=35
271690 On ch=1 n=g#5 v=46
271706 On ch=1 n=b5 v=45
271776 On ch=1 n=c#6 v=0
271782 On ch=1 n=f6 v=0
271800 On ch=1 n=f5 v=0
271830 On ch=1 n=b5 v=0
271832 On ch=1 n=g#5 v=0
271878 On ch=1 n=g#6 v=68
271902 On ch=1 n=c#7 v=0
272104 On ch=1 n=d#6 v=58
272106 On ch=1 n=c#7 v=76
272116 On ch=1 n=g#5 v=51
272116 On ch=1 n=d#5 v=58
272128 On ch=1 n=b5 v=45
272130 On ch=1 n=g#6 v=0
272138 Par ch=1 c=64 v=63
272146 On ch=1 n=c#6 v=30
272166 Par ch=1 c=64 v=127
272248 On ch=1 n=d#5 v=0
272282 On ch=1 n=g#5 v=0
272296 On ch=1 n=b5 v=0
272318 On ch=1 n=d#6 v=0
272330 On ch=1 n=c#6 v=0
272534 On ch=1 n=d#5 v=41
272544 On ch=1 n=g#5 v=48
272552 On ch=1 n=c#6 v=68
272554 On ch=1 n=d#6 v=48
272592 On ch=1 n=b5 v=30
272606 On ch=1 n=d#5 v=0
272634 On ch=1 n=d#6 v=0
272674 On ch=1 n=g#5 v=0
272682 On ch=1 n=b5 v=0
272726 On ch=1 n=c#6 v=0
272770 On ch=1 n=g#6 v=72
272806 On ch=1 n=c#7 v=0
273086 On ch=1 n=g#5 v=26
273090 On ch=1 n=b5 v=32
273094 On ch=1 n=c#6 v=33
273112 On ch=1 n=f6 v=32
273116 On ch=1 n=f5 v=7
273126 On ch=1 n=d#7 v=81
273142 On ch=1 n=g#6 v=0
273148 Par ch=1 c=64 v=63
273200 Par ch=1 c=64 v=127
273442 On ch=1 n=f6 v=0
273444 On ch=1 n=c#6 v=0
273444 On ch=1 n=b5 v=0
273446 On ch=1 n=f5 v=0
273450 On ch=1 n=d#7 v=0
273452 On ch=1 n=b6 v=69
273472 On ch=1 n=g#5 v=0
273600 On ch=1 n=c#6 v=54
273612 On ch=1 n=g#5 v=35
273620 On ch=1 n=b5 v=42
273700 On ch=1 n=b5 v=0
273724 On ch=1 n=c#6 v=0
273730 On ch=1 n=g#5 v=0
273742 On ch=1 n=g#6 v=87
273802 On ch=1 n=b6 v=0
274038 On ch=1 n=g#5 v=47
274046 On ch=1 n=c#7 v=72
274052 On ch=1 n=d#6 v=28
274054 On ch=1 n=d#5 v=40
274058 On ch=1 n=c#6 v=55
274072 On ch=1 n=b5 v=44
274098 On ch=1 n=g#6 v=0
274112 Par ch=1 c=64 v=63
274144 Par ch=1 c=64 v=127
274284 On ch=1 n=g#5 v=0
274302 On ch=1 n=b5 v=0
274306 On ch=1 n=d#5 v=0
274312 On ch=1 n=c#6 v=0
274316 On ch=1 n=d#6 v=0
274482 On ch=1 n=d#5 v=59
274496 On ch=1 n=g#5 v=61
274510 On ch=1 n=d#6 v=40
274512 On ch=1 n=c#6 v=54
274526 On ch=1 n=b5 v=46
274570 On ch=1 n=d#5 v=0
274586 On ch=1 n=d#6 v=0
274616 On ch=1 n=b5 v=0
274644 On ch=1 n=g#5 v=0
274682 On ch=1 n=g#6 v=74
274702 On ch=1 n=c#7 v=0
274714 On ch=1 n=c#6 v=0
274914 On ch=1 n=c#7 v=61
274924 On ch=1 n=g#5 v=32
274932 On ch=1 n=c#6 v=36
274936 On ch=1 n=b5 v=42
274938 On ch=1 n=f5 v=42
274944 On ch=1 n=f6 v=30
274992 On ch=1 n=g#6 v=0
275000 Par ch=1 c=64 v=63
275038 Par ch=1 c=64 v=127
275214 On ch=1 n=f5 v=0
275228 On ch=1 n=g#5 v=0
275230 On ch=1 n=c#6 v=0
275234 On ch=1 n=f6 v=0
275234 On ch=1 n=b5 v=0
275382 On ch=1 n=g#5 v=52
275384 On ch=1 n=f5 v=29
275390 On ch=1 n=b5 v=52
275392 On ch=1 n=c#6 v=42
275398 On ch=1 n=f6 v=24
275504 On ch=1 n=f6 v=0
275528 On ch=1 n=f5 v=0
275548 On ch=1 n=g#5 v=0
275558 On ch=1 n=c#6 v=0
275574 On ch=1 n=b5 v=0
275830 On ch=1 n=g#5 v=43
275838 On ch=1 n=d#6 v=31
275840 On ch=1 n=d#5 v=53
275842 On ch=1 n=c#6 v=55
275846 On ch=1 n=b5 v=46
275954 On ch=1 n=c#6 v=0
275954 On ch=1 n=d#5 v=0
275956 On ch=1 n=d#6 v=0
275960 On ch=1 n=b5 v=0
275964 On ch=1 n=g#5 v=0
276318 On ch=1 n=g#5 v=33
276322 On ch=1 n=d#6 v=36
276324 On ch=1 n=c#6 v=53
276348 On ch=1 n=d#5 v=15
276350 On ch=1 n=b5 v=34
276390 On ch=1 n=d#6 v=0
276392 On ch=1 n=c#7 v=0
276432 On ch=1 n=b5 v=0
276442 On ch=1 n=c#6 v=0
276466 On ch=1 n=g#5 v=0
276540 On ch=1 n=d#5 v=0
276880 On ch=1 n=f5 v=55
276882 On ch=1 n=f6 v=47
276882 On ch=1 n=c#6 v=40
276910 On ch=1 n=b5 v=36
276926 Par ch=1 c=64 v=63
276928 Par ch=1 c=64 v=127
277080 On ch=1 n=f5 v=0
277140 On ch=1 n=b5 v=0
277188 On ch=1 n=c#6 v=0
277198 On ch=1 n=f6 v=0
277522 On ch=1 n=f6 v=57
277524 On ch=1 n=c#6 v=55
277536 On ch=1 n=f5 v=27
277546 On ch=1 n=c#3 v=59
277548 On ch=1 n=b5 v=49
277558 On ch=1 n=g#3 v=40
277588 On ch=1 n=c#3 v=0
277600 On ch=1 n=g#3 v=0
277618 On ch=1 n=f5 v=0
277632 On ch=1 n=f6 v=0
277636 On ch=1 n=b5 v=0
277666 On ch=1 n=c#6 v=0
278052 On ch=1 n=d#6 v=67
278066 On ch=1 n=b5 v=60
278068 On ch=1 n=c#6 v=67
278074 On ch=1 n=d#5 v=47
278200 On ch=1 n=d#5 v=0
278278 On ch=1 n=b5 v=0
278336 On ch=1 n=c#6 v=0
278350 On ch=1 n=d#6 v=0
278498 On ch=1 n=d#6 v=77
278502 On ch=1 n=g#4 v=70
278504 On ch=1 n=c#4 v=78
278518 On ch=1 n=d#5 v=37
278522 On ch=1 n=b5 v=55
278524 On ch=1 n=c#6 v=72
278546 On ch=1 n=c#4 v=0
278550 On ch=1 n=g#4 v=0
278590 On ch=1 n=d#5 v=0
278608 On ch=1 n=b5 v=0
278618 On ch=1 n=d#6 v=0
278656 On ch=1 n=c#6 v=0
278960 On ch=1 n=g#5 v=67
278974 On ch=1 n=c#6 v=55
278976 On ch=1 n=f6 v=70
278992 On ch=1 n=f5 v=29
278996 On ch=1 n=c#5 v=58
279012 On ch=1 n=b5 v=43
279096 On ch=1 n=b5 v=0
279120 On ch=1 n=c#6 v=0
279122 On ch=1 n=f5 v=0
279158 On ch=1 n=f6 v=0
279236 On ch=1 n=c#5 v=0
279238 On ch=1 n=g#5 v=0
279430 On ch=1 n=f6 v=64
279432 On ch=1 n=c#6 v=63
279444 On ch=1 n=f5 v=37
279472 On ch=1 n=b5 v=41
279534 On ch=1 n=f5 v=0
279540 On ch=1 n=b5 v=0
279578 On ch=1 n=c#6 v=0
279580 On ch=1 n=f6 v=0
279848 On ch=1 n=d#6 v=56
279852 On ch=1 n=d#5 v=54
279878 On ch=1 n=b5 v=38
279882 On ch=1 n=c#6 v=49
279958 On ch=1 n=d#5 v=0
279974 On ch=1 n=c#6 v=0
280004 On ch=1 n=b5 v=0
280012 On ch=1 n=d#6 v=0
280292 On ch=1 n=d#5 v=46
280294 On ch=1 n=d#6 v=53
280310 On ch=1 n=b5 v=50
280314 On ch=1 n=c#6 v=44
280412 On ch=1 n=c#6 v=0
280428 On ch=1 n=d#5 v=0
280432 On ch=1 n=b5 v=0
280486 On ch=1 n=d#6 v=0
280728 On ch=1 n=c#6 v=53
280736 On ch=1 n=f5 v=28
280740 On ch=1 n=f6 v=41
280762 On ch=1 n=b5 v=27
280868 On ch=1 n=c#6 v=0
280872 On ch=1 n=b5 v=0
280880 On ch=1 n=f5 v=0
280920 On ch=1 n=f6 v=0
281184 On ch=1 n=f6 v=30
281190 On ch=1 n=c#6 v=47
281198 On ch=1 n=b5 v=40
281200 On ch=1 n=f5 v=34
281318 On ch=1 n=c#6 v=0
281320 On ch=1 n=b5 v=0
281336 On ch=1 n=f5 v=0
281346 On ch=1 n=f6 v=0
281662 On ch=1 n=c#6 v=41
281668 On ch=1 n=d#5 v=34
281670 On ch=1 n=d#6 v=40
281678 On ch=1 n=b5 v=30
281802 On ch=1 n=d#5 v=0
281804 On ch=1 n=b5 v=0
281806 On ch=1 n=c#6 v=0
281812 On ch=1 n=d#6 v=0
282196 On ch=1 n=d#5 v=34
282198 On ch=1 n=c#6 v=29
282200 On ch=1 n=d#6 v=34
282218 On ch=1 n=b5 v=19
282306 On ch=1 n=b5 v=0
282318 On ch=1 n=d#5 v=0
282328 On ch=1 n=c#6 v=0
282350 On ch=1 n=d#6 v=0
282886 On ch=1 n=c#7 v=56
282888 On ch=1 n=g#5 v=24
282910 On ch=1 n=c#6 v=29
282914 On ch=1 n=b5 v=33
282930 On ch=1 n=e6 v=19
282940 On ch=1 n=e5 v=21
282964 Par ch=1 c=64 v=63
283048 Par ch=1 c=64 v=127
283200 On ch=1 n=c#6 v=0
283238 On ch=1 n=e5 v=0
283250 On ch=1 n=b5 v=0
283256 On ch=1 n=g#5 v=0
283270 On ch=1 n=e6 v=0
283442 On ch=1 n=c#6 v=44
283464 On ch=1 n=g#5 v=28
283474 On ch=1 n=e6 v=14
283480 On ch=1 n=b5 v=31
283490 On ch=1 n=e5 v=15
283548 On ch=1 n=c#6 v=0
283564 On ch=1 n=e5 v=0
283582 On ch=1 n=e6 v=0
283584 On ch=1 n=g#5 v=0
283600 On ch=1 n=b5 v=0
283664 On ch=1 n=g#6 v=65
283678 On ch=1 n=c#7 v=0
283912 On ch=1 n=c#7 v=74
283918 On ch=1 n=g#6 v=0
283918 On ch=1 n=g#5 v=30
283928 On ch=1 n=d#6 v=39
283932 On ch=1 n=d#5 v=43
283942 On ch=1 n=b5 v=38
283944 On ch=1 n=c#6 v=43
284068 On ch=1 n=c#6 v=0
284070 On ch=1 n=d#5 v=0
284084 On ch=1 n=b5 v=0
284094 On ch=1 n=d#6 v=0
284096 On ch=1 n=g#5 v=0
284352 On ch=1 n=d#5 v=30
284354 On ch=1 n=g#5 v=40
284364 On ch=1 n=d#6 v=43
284368 On ch=1 n=c#6 v=56
284400 On ch=1 n=b5 v=18
284414 On ch=1 n=d#6 v=0
284422 On ch=1 n=d#5 v=0
284462 On ch=1 n=b5 v=0
284484 On ch=1 n=g#5 v=0
284520 On ch=1 n=c#6 v=0
284566 On ch=1 n=g#6 v=80
284622 On ch=1 n=c#7 v=0
284820 On ch=1 n=g#5 v=39
284826 On ch=1 n=b5 v=49
284836 On ch=1 n=d#7 v=82
284836 On ch=1 n=e6 v=46
284844 On ch=1 n=e5 v=35
284976 On ch=1 n=g#6 v=0
285108 On ch=1 n=e5 v=0
285124 On ch=1 n=b5 v=0
285130 On ch=1 n=e6 v=0
285136 On ch=1 n=g#5 v=0
285200 On ch=1 n=b6 v=78
285206 On ch=1 n=d#7 v=0
285338 On ch=1 n=e5 v=49
285342 On ch=1 n=g#5 v=49
285344 On ch=1 n=e6 v=51
285354 On ch=1 n=b5 v=57
285444 On ch=1 n=e6 v=0
285458 On ch=1 n=e5 v=0
285474 On ch=1 n=g#6 v=94
285486 On ch=1 n=g#5 v=0
285492 On ch=1 n=b5 v=0
285522 On ch=1 n=b6 v=0
285760 On ch=1 n=c#7 v=67
285780 On ch=1 n=g#5 v=38
285784 On ch=1 n=c#6 v=47
285786 On ch=1 n=d#5 v=55
285788 On ch=1 n=d#6 v=27
285800 On ch=1 n=b5 v=27
285814 On ch=1 n=g#6 v=0
285848 Par ch=1 c=64 v=63
285884 Par ch=1 c=64 v=127
286002 On ch=1 n=c#6 v=0
286064 On ch=1 n=d#5 v=0
286066 On ch=1 n=d#6 v=0
286084 On ch=1 n=g#5 v=0
286086 On ch=1 n=b5 v=0
286228 On ch=1 n=d#5 v=53
286236 On ch=1 n=d#6 v=45
286244 On ch=1 n=g#5 v=43
286258 On ch=1 n=c#6 v=39
286302 On ch=1 n=b5 v=9
286324 On ch=1 n=d#6 v=0
286326 On ch=1 n=d#5 v=0
286350 On ch=1 n=c#6 v=0
286376 On ch=1 n=g#5 v=0
286392 On ch=1 n=b5 v=0
286444 On ch=1 n=g#6 v=80
286506 On ch=1 n=c#7 v=0
286708 On ch=1 n=c#7 v=55
286714 On ch=1 n=g#6 v=0
286718 On ch=1 n=g#5 v=44
286718 On ch=1 n=e5 v=34
286722 On ch=1 n=b5 v=49
286728 On ch=1 n=e6 v=40
286730 On ch=1 n=c#6 v=41
286810 Par ch=1 c=64 v=63
286818 Par ch=1 c=64 v=127
286988 On ch=1 n=c#6 v=0
287008 On ch=1 n=e5 v=0
287036 On ch=1 n=g#5 v=0
287040 On ch=1 n=b5 v=0
287042 On ch=1 n=e6 v=0
287208 On ch=1 n=c#6 v=46
287214 On ch=1 n=g#5 v=27
287216 On ch=1 n=e6 v=42
287222 On ch=1 n=e5 v=46
287230 On ch=1 n=b5 v=47
287312 On ch=1 n=c#6 v=0
287332 On ch=1 n=e6 v=0
287334 On ch=1 n=e5 v=0
287364 On ch=1 n=g#5 v=0
287370 On ch=1 n=b5 v=0
287652 On ch=1 n=g#5 v=34
287654 On ch=1 n=c#6 v=43
287668 On ch=1 n=d#6 v=30
287670 On ch=1 n=d#5 v=50
287672 On ch=1 n=b5 v=36
287766 On ch=1 n=c#6 v=0
287798 On ch=1 n=d#6 v=0
287808 On ch=1 n=d#5 v=0
287832 On ch=1 n=b5 v=0
287840 On ch=1 n=g#5 v=0
288124 On ch=1 n=g#5 v=32
288132 On ch=1 n=c#6 v=43
288138 On ch=1 n=b5 v=46
288140 On ch=1 n=d#6 v=33
288150 On ch=1 n=d#5 v=21
288164 On ch=1 n=c#7 v=0
288210 On ch=1 n=d#6 v=0
288252 On ch=1 n=b5 v=0
288262 On ch=1 n=c#6 v=0
288274 On ch=1 n=g#5 v=0
288286 On ch=1 n=d#5 v=0
288698 On ch=1 n=b5 v=53
288700 On ch=1 n=e6 v=59
288708 On ch=1 n=c#6 v=60
288722 On ch=1 n=e5 v=44
288734 Par ch=1 c=64 v=63
288766 Par ch=1 c=64 v=127
288870 On ch=1 n=e5 v=0
288964 On ch=1 n=b5 v=0
288974 On ch=1 n=e6 v=0
288996 On ch=1 n=c#6 v=0
289332 On ch=1 n=g#3 v=64
289342 On ch=1 n=c#3 v=49
289346 On ch=1 n=e6 v=57
289356 On ch=1 n=c#6 v=48
289372 On ch=1 n=b5 v=35
289382 On ch=1 n=e5 v=8
289426 On ch=1 n=g#3 v=0
289448 On ch=1 n=c#3 v=0
289472 On ch=1 n=e5 v=0
289504 On ch=1 n=e6 v=0
289524 On ch=1 n=b5 v=0
289542 On ch=1 n=c#6 v=0
289874 On ch=1 n=d#6 v=72
289876 On ch=1 n=b5 v=51
289876 On ch=1 n=c#6 v=60
289892 On ch=1 n=d#5 v=29
290018 On ch=1 n=d#5 v=0
290050 On ch=1 n=b5 v=0
290088 On ch=1 n=c#6 v=0
290118 On ch=1 n=d#6 v=0
290322 On ch=1 n=d#6 v=60
290324 On ch=1 n=d#5 v=55
290338 On ch=1 n=b5 v=59
290340 On ch=1 n=c#4 v=77
290344 On ch=1 n=g#4 v=76
290352 On ch=1 n=c#6 v=65
290388 On ch=1 n=c#4 v=0
290416 On ch=1 n=g#4 v=0
290422 On ch=1 n=b5 v=0
290424 On ch=1 n=d#5 v=0
290476 On ch=1 n=c#6 v=0
290500 On ch=1 n=d#6 v=0
290896 On ch=1 n=g#5 v=80
290912 On ch=1 n=e6 v=56
290922 On ch=1 n=c#6 v=42
290934 On ch=1 n=c#5 v=53
290942 On ch=1 n=b5 v=36
290944 On ch=1 n=e5 v=29
291066 On ch=1 n=b5 v=0
291072 On ch=1 n=c#6 v=0
291100 On ch=1 n=e5 v=0
291108 On ch=1 n=e6 v=0
291422 On ch=1 n=e6 v=73
291436 On ch=1 n=c#6 v=70
291444 On ch=1 n=b5 v=63
291468 On ch=1 n=e5 v=10
291518 On ch=1 n=e5 v=0
291560 On ch=1 n=e6 v=0
291566 On ch=1 n=b5 v=0
291572 On ch=1 n=c#6 v=0
291602 On ch=1 n=c#5 v=0
291856 On ch=1 n=d#6 v=80
291872 On ch=1 n=d#5 v=64
291878 On ch=1 n=b5 v=68
291882 On ch=1 n=c#6 v=66
291968 On ch=1 n=d#5 v=0
291996 On ch=1 n=b5 v=0
292022 On ch=1 n=c#6 v=0
292022 On ch=1 n=d#6 v=0
292290 On ch=1 n=d#6 v=76
292292 On ch=1 n=d#5 v=68
292296 On ch=1 n=b5 v=66
292318 On ch=1 n=c#6 v=75
292388 On ch=1 n=b5 v=0
292390 On ch=1 n=c#6 v=0
292408 On ch=1 n=d#5 v=0
292432 On ch=1 n=d#6 v=0
292764 On ch=1 n=d#6 v=62
292786 On ch=1 n=b5 v=52
292790 On ch=1 n=d#5 v=23
292798 On ch=1 n=a5 v=47
292846 Par ch=1 c=64 v=63
292906 Par ch=1 c=64 v=127
293090 On ch=1 n=d#6 v=0
293104 On ch=1 n=b5 v=0
293118 On ch=1 n=d#5 v=0
293124 On ch=1 n=a5 v=0
293238 On ch=1 n=g#5 v=0
293324 On ch=1 n=d#6 v=48
293330 On ch=1 n=f#5 v=76
293376 On ch=1 n=a5 v=21
293446 On ch=1 n=a5 v=0
293446 On ch=1 n=d#6 v=0
293854 On ch=1 n=f#5 v=0
293894 On ch=1 n=c#6 v=43
293900 On ch=1 n=c#5 v=26
293926 On ch=1 n=g5 v=46
293936 On ch=1 n=a5 v=28
294092 On ch=1 n=c#5 v=0
294134 On ch=1 n=g5 v=0
294142 On ch=1 n=a5 v=0
294148 On ch=1 n=c#6 v=0
294610 On ch=1 n=e5 v=41
294636 On ch=1 n=c#6 v=7
294672 On ch=1 n=a5 v=15
294676 On ch=1 n=g5 v=10
294728 On ch=1 n=e5 v=0
294844 On ch=1 n=c#6 v=0
294862 On ch=1 n=a5 v=0
294894 On ch=1 n=g5 v=0
295460 On ch=1 n=g#5 v=37
295504 On ch=1 n=f#3 v=38
295504 On ch=1 n=c#4 v=36
295510 On ch=1 n=a#4 v=21
295522 On ch=1 n=f#5 v=43
295606 Par ch=1 c=64 v=63
295688 Par ch=1 c=64 v=127
295816 On ch=1 n=a#4 v=0
296124 On ch=1 n=a#4 v=60
296304 On ch=1 n=a#4 v=0
296372 On ch=1 n=c#5 v=81
296398 On ch=1 n=g#5 v=0
296406 On ch=1 n=f#5 v=0
296436 On ch=1 n=c#4 v=0
296496 On ch=1 n=f#3 v=0
296658 On ch=1 n=a#5 v=84
296660 On ch=1 n=f#3 v=29
296662 On ch=1 n=c#4 v=48
296672 On ch=1 n=f#5 v=65
296676 On ch=1 n=a#4 v=41
296682 On ch=1 n=c#5 v=0
296912 On ch=1 n=a#4 v=0
297160 On ch=1 n=a#4 v=82
297176 On ch=1 n=a#5 v=0
297206 On ch=1 n=c#4 v=0
297224 On ch=1 n=f#3 v=0
297320 On ch=1 n=f#5 v=0
297336 On ch=1 n=c#5 v=96
297400 On ch=1 n=a#4 v=0
297514 On ch=1 n=d#3 v=65
297538 On ch=1 n=c#5 v=0
297538 On ch=1 n=a#3 v=55
297594 On ch=1 n=f#5 v=82
297600 On ch=1 n=a#4 v=63
297608 On ch=1 n=f5 v=77
297642 Par ch=1 c=64 v=63
297656 Par ch=1 c=64 v=0
297700 Par ch=1 c=64 v=63
297728 Par ch=1 c=64 v=127
297812 On ch=1 n=d#3 v=0
297850 On ch=1 n=a#3 v=0
297852 On ch=1 n=a#4 v=0
297956 On ch=1 n=d#5 v=83
298022 On ch=1 n=f5 v=0
298052 On ch=1 n=f#5 v=0
298104 On ch=1 n=a#4 v=61
298188 On ch=1 n=a#4 v=0
298284 On ch=1 n=a#4 v=65
298308 On ch=1 n=d#5 v=0
298434 On ch=1 n=a#4 v=0
298620 On ch=1 n=f#3 v=37
298624 On ch=1 n=c#4 v=43
298680 On ch=1 n=g#5 v=65
298688 On ch=1 n=a#4 v=48
298704 On ch=1 n=f#5 v=71
298802 Par ch=1 c=64 v=63
298858 Par ch=1 c=64 v=127
298988 On ch=1 n=a#4 v=0
299154 On ch=1 n=a#4 v=71
299304 On ch=1 n=c#4 v=0
299324 On ch=1 n=c#5 v=98
299334 On ch=1 n=g#5 v=0
299372 On ch=1 n=a#4 v=0
299494 On ch=1 n=f#5 v=0
299560 On ch=1 n=a#5 v=99
299570 On ch=1 n=c#4 v=45
299574 On ch=1 n=f#5 v=43
299582 On ch=1 n=a#4 v=76
299618 On ch=1 n=c#5 v=0
299868 On ch=1 n=a#4 v=0
299888 On ch=1 n=c#4 v=0
300032 On ch=1 n=c#4 v=58
300142 On ch=1 n=a#5 v=0
300190 On ch=1 n=c#4 v=0
300192 On ch=1 n=f#3 v=0
300302 On ch=1 n=a#4 v=37
300306 On ch=1 n=c#5 v=77
300390 On ch=1 n=f#5 v=0
300486 On ch=1 n=a#4 v=0
300628 On ch=1 n=a#3 v=39
300628 On ch=1 n=f#5 v=73
300634 On ch=1 n=c#5 v=0
300636 On ch=1 n=a#4 v=20
300648 On ch=1 n=d#3 v=42
300666 On ch=1 n=f5 v=57
300792 Par ch=1 c=64 v=63
300870 Par ch=1 c=64 v=127
301050 On ch=1 n=a#3 v=0
301060 On ch=1 n=d#5 v=72
301166 On ch=1 n=a#4 v=0
301228 On ch=1 n=a#3 v=46
301354 On ch=1 n=d#3 v=0
301364 On ch=1 n=a#3 v=0
301404 On ch=1 n=a#4 v=62
301482 On ch=1 n=f#5 v=0
301596 On ch=1 n=f5 v=0
301638 On ch=1 n=d#5 v=0
301762 On ch=1 n=a#4 v=0
301836 On ch=1 n=f#3 v=33
301860 On ch=1 n=b2 v=38
301888 On ch=1 n=b4 v=28
301898 On ch=1 n=g#5 v=45
301904 On ch=1 n=d#5 v=54
301916 On ch=1 n=f#5 v=67
301998 Par ch=1 c=64 v=63
302016 Par ch=1 c=64 v=0
302062 Par ch=1 c=64 v=63
302102 Par ch=1 c=64 v=127
302442 On ch=1 n=g#5 v=0
302448 On ch=1 n=b4 v=0
302458 On ch=1 n=d#5 v=0
302486 On ch=1 n=f#5 v=0
302548 On ch=1 n=b4 v=41
302556 On ch=1 n=d#5 v=65
302558 On ch=1 n=f#5 v=73
302558 On ch=1 n=g#5 v=40
302822 On ch=1 n=b2 v=0
302838 On ch=1 n=b4 v=0
302846 On ch=1 n=g#5 v=0
302864 On ch=1 n=f#5 v=0
302864 On ch=1 n=d#5 v=0
302916 On ch=1 n=f#3 v=0
303026 On ch=1 n=d#5 v=57
303032 On ch=1 n=f#5 v=71
303032 On ch=1 n=g#5 v=69
303034 On ch=1 n=b4 v=49
303238 On ch=1 n=d#5 v=0
303268 On ch=1 n=b4 v=0
303282 On ch=1 n=g#5 v=0
303298 On ch=1 n=f#5 v=0
303426 On ch=1 n=f#4 v=67
303430 On ch=1 n=g#5 v=71
303432 On ch=1 n=b3 v=56
303438 On ch=1 n=f#5 v=70
303442 On ch=1 n=d#5 v=61
303442 On ch=1 n=b4 v=35
303656 On ch=1 n=b4 v=0
303672 On ch=1 n=d#5 v=0
303680 On ch=1 n=g#5 v=0
303704 On ch=1 n=f#5 v=0
303864 On ch=1 n=g#5 v=70
303866 On ch=1 n=f#4 v=0
303870 On ch=1 n=b4 v=54
303872 On ch=1 n=f#5 v=70
303882 On ch=1 n=a#4 v=80
303882 On ch=1 n=d#5 v=62
304040 On ch=1 n=b4 v=0
304054 On ch=1 n=a#4 v=0
304060 On ch=1 n=d#5 v=0
304094 On ch=1 n=g#5 v=0
304108 On ch=1 n=f#5 v=0
304246 On ch=1 n=b3 v=0
304302 On ch=1 n=g#5 v=80
304306 On ch=1 n=f#5 v=83
304306 On ch=1 n=f#4 v=96
304318 On ch=1 n=b4 v=49
304322 On ch=1 n=d#5 v=67
304332 On ch=1 n=b3 v=59
304588 On ch=1 n=b4 v=0
304590 On ch=1 n=g#5 v=0
304630 On ch=1 n=d#5 v=0
304636 On ch=1 n=f#5 v=0
304746 On ch=1 n=g#4 v=101
304746 On ch=1 n=g#5 v=81
304758 On ch=1 n=d#5 v=68
304758 On ch=1 n=b4 v=60
304760 On ch=1 n=f#5 v=78
304786 Par ch=1 c=64 v=63
304796 On ch=1 n=f#4 v=0
304826 Par ch=1 c=64 v=127
304874 On ch=1 n=b4 v=0
304882 On ch=1 n=b3 v=0
304920 On ch=1 n=d#5 v=0
304924 On ch=1 n=f#5 v=0
304934 On ch=1 n=g#5 v=0
305244 On ch=1 n=b5 v=72
305256 On ch=1 n=d#5 v=61
305260 On ch=1 n=g#5 v=61
305270 On ch=1 n=f#5 v=68
305348 Par ch=1 c=67 v=0
305368 On ch=1 n=d#5 v=0
305386 On ch=1 n=f#5 v=0
305388 On ch=1 n=g#5 v=0
305394 On ch=1 n=b5 v=0
305694 On ch=1 n=d#6 v=73
305708 On ch=1 n=f#5 v=46
305714 On ch=1 n=g#5 v=49
305720 On ch=1 n=b5 v=59
305786 On ch=1 n=g#5 v=0
305790 On ch=1 n=f#5 v=0
305802 On ch=1 n=b5 v=0
305806 On ch=1 n=d#6 v=0
305850 On ch=1 n=g#4 v=0
305888 On ch=1 n=b4 v=82
306086 On ch=1 n=g#5 v=71
306088 On ch=1 n=b4 v=0
306090 On ch=1 n=f#6 v=76
306094 On ch=1 n=d#5 v=92
306094 On ch=1 n=d#6 v=76
306102 On ch=1 n=b5 v=60
306188 On ch=1 n=b5 v=0
306188 On ch=1 n=g#5 v=0
306216 On ch=1 n=f#6 v=0
306222 On ch=1 n=d#6 v=0
306290 On ch=1 n=f#5 v=88
306304 On ch=1 n=d#5 v=0
306474 On ch=1 n=f#5 v=0
306486 On ch=1 n=g#6 v=80
306488 On ch=1 n=b5 v=72
306488 On ch=1 n=d#6 v=78
306488 On ch=1 n=f#6 v=81
306508 On ch=1 n=g#5 v=94
306788 On ch=1 n=g#6 v=0
306808 On ch=1 n=b5 v=0
306836 On ch=1 n=d#6 v=0
306848 On ch=1 n=f#6 v=0
306900 On ch=1 n=b4 v=84
306910 On ch=1 n=f#6 v=77
306918 On ch=1 n=a#6 v=96
306922 On ch=1 n=g#5 v=0
306928 On ch=1 n=d#6 v=74
306930 On ch=1 n=b5 v=73
307070 On ch=1 n=b5 v=0
307070 On ch=1 n=d#6 v=0
307078 On ch=1 n=f#6 v=0
307110 On ch=1 n=a#5 v=99
307114 On ch=1 n=a#6 v=0
307252 On ch=1 n=a#5 v=0
307386 On ch=1 n=b6 v=78
307392 On ch=1 n=f#6 v=89
307394 On ch=1 n=g#5 v=107
307394 On ch=1 n=d#6 v=90
307400 On ch=1 n=b5 v=84
307434 On ch=1 n=b4 v=0
307480 Par ch=1 c=64 v=63
307498 Par ch=1 c=64 v=0
307564 Par ch=1 c=64 v=63
307584 Par ch=1 c=64 v=127
307722 On ch=1 n=b6 v=0
307736 On ch=1 n=b5 v=0
307758 On ch=1 n=d#6 v=0
307770 On ch=1 n=f#6 v=0
307834 On ch=1 n=f#6 v=87
307836 On ch=1 n=b6 v=102
307842 On ch=1 n=d#6 v=88
307844 On ch=1 n=b5 v=93
308114 On ch=1 n=b6 v=0
308118 On ch=1 n=b5 v=0
308148 On ch=1 n=d#6 v=0
308158 On ch=1 n=f#6 v=0
308250 On ch=1 n=b6 v=107
308254 On ch=1 n=b5 v=107
308256 On ch=1 n=f#6 v=107
308262 On ch=1 n=d#6 v=101
308564 On ch=1 n=b5 v=0
308578 On ch=1 n=b6 v=0
308602 On ch=1 n=d#6 v=0
308624 On ch=1 n=f#6 v=0
308694 On ch=1 n=b6 v=109
308696 On ch=1 n=f#6 v=99
308698 On ch=1 n=b5 v=112
308702 On ch=1 n=d#6 v=108
308826 On ch=1 n=b5 v=0
308882 On ch=1 n=d#6 v=0
308898 On ch=1 n=b6 v=0
308910 On ch=1 n=f#6 v=0
309196 On ch=1 n=b6 v=92
309198 On ch=1 n=f#5 v=104
309202 On ch=1 n=c#7 v=108
309206 On ch=1 n=d#6 v=88
309210 On ch=1 n=f#6 v=84
309284 On ch=1 n=g#5 v=0
309546 On ch=1 n=c#7 v=0
309594 On ch=1 n=d#6 v=0
309622 On ch=1 n=f#6 v=0
309658 On ch=1 n=b6 v=0
309878 On ch=1 n=d#7 v=101
309884 On ch=1 n=f#6 v=71
309902 On ch=1 n=b6 v=65
309910 On ch=1 n=d#6 v=60
309926 On ch=1 n=f#5 v=0
309968 On ch=1 n=d#6 v=0
309994 On ch=1 n=f#6 v=0
310134 On ch=1 n=d#7 v=0
310180 On ch=1 n=b6 v=0
310566 Par ch=1 c=64 v=63
310684 Par ch=1 c=64 v=0
310938 On ch=1 n=b3 v=58
311598 Par ch=1 c=64 v=63
311602 Par ch=1 c=64 v=127
311614 On ch=1 n=d#6 v=81
311758 On ch=1 n=d#6 v=0
312218 On ch=1 n=d#4 v=64
312220 On ch=1 n=f#5 v=70
312240 On ch=1 n=g#4 v=27
312244 On ch=1 n=b4 v=55
312278 On ch=1 n=b3 v=0
312332 Par ch=1 c=64 v=63
312414 Par ch=1 c=64 v=127
312618 On ch=1 n=g#4 v=0
312620 On ch=1 n=b4 v=0
312706 On ch=1 n=g#4 v=58
312716 On ch=1 n=b4 v=55
312874 On ch=1 n=b4 v=0
312930 On ch=1 n=g#4 v=0
312944 On ch=1 n=f#5 v=0
313118 On ch=1 n=f5 v=81
313130 On ch=1 n=c#4 v=66
313136 On ch=1 n=d#4 v=0
313138 On ch=1 n=g#4 v=51
313142 On ch=1 n=c#5 v=77
313236 Par ch=1 c=64 v=63
313334 Par ch=1 c=64 v=127
313456 On ch=1 n=g#4 v=0
313470 On ch=1 n=c#5 v=0
313536 On ch=1 n=b3 v=74
313546 On ch=1 n=g#4 v=75
313550 On ch=1 n=c#5 v=63
313604 On ch=1 n=c#4 v=0
313726 On ch=1 n=f5 v=0
313806 On ch=1 n=c#5 v=0
313826 On ch=1 n=g#4 v=0
314036 On ch=1 n=a#3 v=61
314046 On ch=1 n=g#5 v=96
314062 On ch=1 n=c#5 v=76
314074 On ch=1 n=g#4 v=38
314146 On ch=1 n=b3 v=0
314154 Par ch=1 c=64 v=63
314190 Par ch=1 c=64 v=0
314236 Par ch=1 c=64 v=63
314276 Par ch=1 c=64 v=127
314398 On ch=1 n=c#5 v=0
314436 On ch=1 n=g#4 v=0
314620 On ch=1 n=c#5 v=69
314632 On ch=1 n=g#4 v=45
314822 On ch=1 n=c#5 v=0
314852 On ch=1 n=g#4 v=0
315012 On ch=1 n=a#3 v=0
315044 On ch=1 n=a#4 v=48
315054 On ch=1 n=c#5 v=65
315064 On ch=1 n=g#4 v=18
315102 On ch=1 n=g#5 v=0
315220 On ch=1 n=g#4 v=0
315222 On ch=1 n=c#5 v=0
315586 On ch=1 n=f#5 v=61
315612 On ch=1 n=c#5 v=61
315614 On ch=1 n=f#4 v=48
315752 On ch=1 n=f#4 v=0
315822 On ch=1 n=c#5 v=0
315852 On ch=1 n=f#5 v=0
315866 On ch=1 n=a#4 v=0
316252 On ch=1 n=d#4 v=56
316258 On ch=1 n=b5 v=65
316260 On ch=1 n=f#5 v=55
316284 On ch=1 n=c#5 v=28
316598 On ch=1 n=b5 v=0
316644 On ch=1 n=c#5 v=0
316710 On ch=1 n=f#5 v=0
316746 On ch=1 n=d#4 v=0
316778 On ch=1 n=f4 v=66
316794 On ch=1 n=c#6 v=85
316798 On ch=1 n=g#5 v=71
316812 On ch=1 n=c#5 v=50
317124 On ch=1 n=c#5 v=0
317124 On ch=1 n=c#6 v=0
317240 On ch=1 n=g#5 v=0
317260 On ch=1 n=f#4 v=65
317262 On ch=1 n=a#5 v=90
317272 On ch=1 n=c#5 v=65
317288 On ch=1 n=f4 v=0
317398 Par ch=1 c=64 v=63
317480 Par ch=1 c=64 v=127
317658 On ch=1 n=c#5 v=0
317748 On ch=1 n=a#5 v=0
317808 On ch=1 n=d#4 v=48
317810 On ch=1 n=f#5 v=80
317822 On ch=1 n=c#5 v=46
317896 Par ch=1 c=64 v=63
317978 Par ch=1 c=64 v=127
318082 On ch=1 n=f#4 v=0
318214 On ch=1 n=c#5 v=0
318218 On ch=1 n=f#5 v=0
318478 On ch=1 n=c#4 v=35
318490 On ch=1 n=f#5 v=53
318492 On ch=1 n=c#6 v=48
318502 On ch=1 n=d#4 v=0
318508 On ch=1 n=g#4 v=26
318516 On ch=1 n=c#5 v=16
318638 Par ch=1 c=64 v=63
318764 Par ch=1 c=64 v=127
318924 On ch=1 n=c#5 v=0
319092 On ch=1 n=c#5 v=35
319296 On ch=1 n=f#5 v=0
319298 On ch=1 n=c#5 v=0
319732 On ch=1 n=f5 v=36
319734 On ch=1 n=c#5 v=18
319806 Par ch=1 c=64 v=63
319878 Par ch=1 c=64 v=127
320054 On ch=1 n=c#4 v=0
320078 On ch=1 n=c#5 v=0
320090 On ch=1 n=g#4 v=0
320148 On ch=1 n=f5 v=0
320248 On ch=1 n=c#6 v=0
320630 On ch=1 n=f#5 v=53
320672 On ch=1 n=d#5 v=49
320674 On ch=1 n=f5 v=32
320676 On ch=1 n=b4 v=41
320716 Par ch=1 c=64 v=63
320810 Par ch=1 c=64 v=127
320930 On ch=1 n=f5 v=0
321014 On ch=1 n=f#5 v=0
321122 On ch=1 n=b4 v=0
321280 On ch=1 n=c#5 v=52
321282 On ch=1 n=f#5 v=53
321288 On ch=1 n=a#4 v=26
321304 On ch=1 n=a#5 v=82
321326 On ch=1 n=d#5 v=0
321478 On ch=1 n=a#4 v=0
321514 On ch=1 n=c#5 v=0
321526 On ch=1 n=f#5 v=0
321784 On ch=1 n=f#5 v=92
321798 On ch=1 n=d#5 v=70
321812 On ch=1 n=b4 v=57
321814 On ch=1 n=g#4 v=59
321836 Par ch=1 c=64 v=63
321846 Par ch=1 c=64 v=0
321940 On ch=1 n=a#5 v=0
321972 On ch=1 n=b5 v=92
322026 On ch=1 n=b4 v=0
322032 Par ch=1 c=64 v=63
322040 Par ch=1 c=64 v=127
322046 On ch=1 n=d#5 v=0
322056 On ch=1 n=g#4 v=0
322226 Par ch=1 c=64 v=63
322234 Par ch=1 c=64 v=0
322240 On ch=1 n=c#6 v=90
322252 On ch=1 n=b5 v=0
322254 On ch=1 n=f#4 v=61
322270 On ch=1 n=a#4 v=50
322272 On ch=1 n=c#5 v=51
322306 Par ch=1 c=64 v=63
322320 Par ch=1 c=64 v=127
322402 On ch=1 n=f#4 v=0
322418 On ch=1 n=a#4 v=0
322430 On ch=1 n=c#5 v=0
322446 On ch=1 n=f#5 v=0
322674 On ch=1 n=a#5 v=94
323054 On ch=1 n=d#5 v=55
323056 On ch=1 n=b4 v=47
323092 On ch=1 n=d#6 v=91
323126 Par ch=1 c=64 v=63
323144 Par ch=1 c=64 v=0
323162 On ch=1 n=c#6 v=0
323236 On ch=1 n=a#5 v=0
323240 Par ch=1 c=64 v=63
323256 Par ch=1 c=64 v=127
323342 On ch=1 n=g#5 v=90
323448 On ch=1 n=d#5 v=0
323550 On ch=1 n=f#6 v=95
323578 On ch=1 n=f#5 v=84
323580 On ch=1 n=g#5 v=0
323598 On ch=1 n=b4 v=0
323612 On ch=1 n=d#6 v=0
323734 On ch=1 n=f5 v=89
323740 On ch=1 n=f#5 v=0
323764 On ch=1 n=f#6 v=0
323980 On ch=1 n=d#5 v=70
323980 On ch=1 n=b5 v=90
323992 On ch=1 n=g#4 v=60
324034 Par ch=1 c=64 v=63
324050 Par ch=1 c=64 v=0
324090 On ch=1 n=f5 v=0
324102 Par ch=1 c=64 v=63
324138 Par ch=1 c=64 v=127
324406 On ch=1 n=f5 v=79
324410 On ch=1 n=g#4 v=0
324436 On ch=1 n=d#5 v=0
324494 On ch=1 n=f5 v=0
324600 On ch=1 n=a#5 v=87
324616 On ch=1 n=f#5 v=83
324626 On ch=1 n=b5 v=0
324630 On ch=1 n=f#4 v=65
324732 On ch=1 n=f#5 v=0
324750 On ch=1 n=f#4 v=0
324794 On ch=1 n=a#5 v=0
324872 On ch=1 n=g#5 v=78
324892 On ch=1 n=f4 v=63
324910 Par ch=1 c=64 v=63
324922 Par ch=1 c=64 v=0
324998 Par ch=1 c=64 v=63
325026 Par ch=1 c=64 v=127
325148 On ch=1 n=f4 v=0
325212 On ch=1 n=g#5 v=0
325428 On ch=1 n=g#5 v=89
325986 On ch=1 n=c#5 v=56
325994 On ch=1 n=f#4 v=38
326002 On ch=1 n=a#5 v=75
326032 Par ch=1 c=64 v=63
326108 Par ch=1 c=64 v=127
326258 On ch=1 n=g#5 v=0
326386 On ch=1 n=f#5 v=79
326392 On ch=1 n=c#5 v=0
326484 On ch=1 n=f#5 v=0
326484 On ch=1 n=f#4 v=0
326640 On ch=1 n=f5 v=78
326730 On ch=1 n=a#5 v=0
326854 On ch=1 n=d#5 v=94
326874 On ch=1 n=f5 v=0
326926 On ch=1 n=d#5 v=0
327102 On ch=1 n=c#5 v=61
327108 On ch=1 n=f#5 v=90
327134 On ch=1 n=d#4 v=39
327134 On ch=1 n=g#4 v=40
327162 On ch=1 n=g#5 v=76
327182 On ch=1 n=f#5 v=0
327254 On ch=1 n=f#5 v=67
327270 Par ch=1 c=64 v=63
327292 On ch=1 n=g#5 v=0
327338 Par ch=1 c=64 v=127
327526 On ch=1 n=c#5 v=0
327564 On ch=1 n=c5 v=74
327574 On ch=1 n=f5 v=86
327638 On ch=1 n=f#5 v=0
327728 On ch=1 n=d#4 v=0
327740 On ch=1 n=f#5 v=106
327784 On ch=1 n=f5 v=0
327864 On ch=1 n=g#4 v=0
327872 On ch=1 n=c5 v=0
327948 On ch=1 n=f#5 v=0
327976 On ch=1 n=g#5 v=88
327984 On ch=1 n=f4 v=55
327994 On ch=1 n=c#5 v=62
328028 On ch=1 n=c#4 v=42
328096 Par ch=1 c=64 v=63
328120 Par ch=1 c=64 v=0
328146 Par ch=1 c=64 v=63
328190 Par ch=1 c=64 v=127
328292 On ch=1 n=f4 v=0
328326 On ch=1 n=c#5 v=0
328414 On ch=1 n=f4 v=71
328598 On ch=1 n=f4 v=0
328612 On ch=1 n=c#5 v=91
328678 On ch=1 n=g#5 v=0
328792 On ch=1 n=c#5 v=0
328836 On ch=1 n=c#5 v=48
328858 On ch=1 n=g#5 v=94
328858 On ch=1 n=f4 v=48
328940 Par ch=1 c=64 v=63
329040 Par ch=1 c=64 v=127
329176 On ch=1 n=f4 v=0
329214 On ch=1 n=c#5 v=0
329344 On ch=1 n=f4 v=66
329408 On ch=1 n=c#4 v=0
329538 On ch=1 n=c#5 v=69
329570 On ch=1 n=f4 v=0
329640 On ch=1 n=g#5 v=0
329684 On ch=1 n=c#5 v=0
329816 On ch=1 n=f#3 v=40
329820 On ch=1 n=b3 v=49
329890 On ch=1 n=b4 v=59
329892 On ch=1 n=a#5 v=73
329962 Par ch=1 c=64 v=63
329986 Par ch=1 c=64 v=0
330056 Par ch=1 c=64 v=63
330088 Par ch=1 c=64 v=127
330178 On ch=1 n=d#4 v=63
330212 On ch=1 n=f#3 v=0
330274 On ch=1 n=f#5 v=84
330306 On ch=1 n=b3 v=0
330310 On ch=1 n=b4 v=0
330328 On ch=1 n=a#5 v=0
330446 On ch=1 n=f#4 v=54
330492 On ch=1 n=d#4 v=0
330546 On ch=1 n=f#4 v=0
330612 On ch=1 n=d#5 v=80
330694 On ch=1 n=f#5 v=0
330748 On ch=1 n=a#4 v=51
330804 On ch=1 n=d#5 v=0
331030 On ch=1 n=a#4 v=0
331060 On ch=1 n=c#4 v=28
331064 On ch=1 n=c#5 v=57
331070 On ch=1 n=g#5 v=68
331076 On ch=1 n=f4 v=47
331196 Par ch=1 c=64 v=63
331230 Par ch=1 c=64 v=0
331262 Par ch=1 c=64 v=63
331316 Par ch=1 c=64 v=127
331374 On ch=1 n=f4 v=0
331470 On ch=1 n=c#5 v=0
331558 On ch=1 n=f4 v=59
331638 On ch=1 n=f4 v=0
331656 On ch=1 n=c#4 v=0
331746 On ch=1 n=g#5 v=0
331752 On ch=1 n=c#5 v=65
332016 Par ch=1 c=64 v=63
332034 On ch=1 n=c#3 v=48
332048 On ch=1 n=g#3 v=52
332058 On ch=1 n=g#5 v=70
332118 Par ch=1 c=64 v=127
332178 On ch=1 n=c#5 v=0
332288 On ch=1 n=c#3 v=0
332326 On ch=1 n=g#3 v=0
332388 On ch=1 n=g#5 v=0
332724 On ch=1 n=c#4 v=46
333256 On ch=1 n=f4 v=55
333376 On ch=1 n=c#4 v=0
333750 On ch=1 n=f#4 v=70
334022 On ch=1 n=f4 v=0
334258 On ch=1 n=c#4 v=25
334272 On ch=1 n=g#4 v=52
334278 On ch=1 n=g#5 v=65
334296 On ch=1 n=c#5 v=42
334312 On ch=1 n=e5 v=55
334412 On ch=1 n=f#4 v=0
334506 Par ch=1 c=64 v=63
334518 Par ch=1 c=64 v=127
334652 On ch=1 n=g#4 v=0
334828 On ch=1 n=c#5 v=0
334916 On ch=1 n=g#4 v=78
335004 On ch=1 n=g#5 v=0
335132 On ch=1 n=c#5 v=89
335222 On ch=1 n=e5 v=0
335288 On ch=1 n=c#5 v=0
335410 On ch=1 n=c#5 v=78
335428 On ch=1 n=g#5 v=96
335448 On ch=1 n=e5 v=67
335480 Par ch=1 c=64 v=63
335496 Par ch=1 c=64 v=0
335520 Par ch=1 c=64 v=63
335558 Par ch=1 c=64 v=127
335754 On ch=1 n=c#5 v=0
335848 On ch=1 n=g#4 v=0
335862 On ch=1 n=e5 v=0
335862 On ch=1 n=b4 v=91
335958 On ch=1 n=c#4 v=0
335962 On ch=1 n=b4 v=0
336060 On ch=1 n=c#5 v=100
336064 On ch=1 n=g#5 v=0
336232 On ch=1 n=c#5 v=0
336310 On ch=1 n=f#3 v=79
336368 On ch=1 n=a#5 v=91
336370 On ch=1 n=a#4 v=77
336424 Par ch=1 c=64 v=63
336434 Par ch=1 c=64 v=0
336498 Par ch=1 c=64 v=63
336524 Par ch=1 c=64 v=127
336712 On ch=1 n=f#3 v=0
336750 On ch=1 n=f#5 v=101
336842 On ch=1 n=a#4 v=0
336882 On ch=1 n=g#4 v=89
336988 On ch=1 n=a#5 v=0
337048 On ch=1 n=c#5 v=105
337058 On ch=1 n=f#5 v=0
337136 On ch=1 n=g#4 v=0
337260 On ch=1 n=c#5 v=0
337346 On ch=1 n=b3 v=79
337348 On ch=1 n=f#4 v=82
337374 On ch=1 n=b5 v=93
337388 On ch=1 n=d#5 v=88
337534 Par ch=1 c=64 v=63
337544 Par ch=1 c=64 v=0
337656 Par ch=1 c=64 v=63
337672 Par ch=1 c=64 v=127
337734 On ch=1 n=f#4 v=0
337844 On ch=1 n=f#4 v=100
338198 On ch=1 n=f#4 v=0
338252 On ch=1 n=b5 v=0
338272 On ch=1 n=b4 v=100
338430 On ch=1 n=b4 v=0
338504 On ch=1 n=d#5 v=0
338814 On ch=1 n=a#4 v=85
338818 On ch=1 n=a#5 v=100
338938 On ch=1 n=b3 v=0
339396 On ch=1 n=a#5 v=0
339408 On ch=1 n=g#3 v=90
339430 On ch=1 n=f#5 v=95
339440 On ch=1 n=d#5 v=76
339458 On ch=1 n=b4 v=35
339548 Par ch=1 c=64 v=63
339556 Par ch=1 c=64 v=0
339640 Par ch=1 c=64 v=63
339658 Par ch=1 c=64 v=127
339888 On ch=1 n=a#4 v=0
340076 On ch=1 n=g#4 v=72
340078 On ch=1 n=a#5 v=97
340132 On ch=1 n=g#3 v=0
340196 On ch=1 n=f#5 v=0
340350 On ch=1 n=f#4 v=89
340414 On ch=1 n=g#4 v=0
340430 On ch=1 n=d#5 v=0
340462 On ch=1 n=b4 v=0
340584 On ch=1 n=b4 v=78
340604 On ch=1 n=e4 v=76
340610 On ch=1 n=c#4 v=67
340616 On ch=1 n=f#4 v=0
340686 Par ch=1 c=64 v=63
340702 Par ch=1 c=64 v=0
340778 Par ch=1 c=64 v=63
340806 Par ch=1 c=64 v=127
341062 On ch=1 n=g#5 v=97
341074 On ch=1 n=f4 v=57
341082 On ch=1 n=e4 v=0
341114 On ch=1 n=a#5 v=0
341158 On ch=1 n=c#4 v=0
341198 On ch=1 n=g#5 v=0
341236 On ch=1 n=f4 v=0
341308 On ch=1 n=b4 v=0
341596 On ch=1 n=f5 v=84
341602 On ch=1 n=c#3 v=61
341612 On ch=1 n=b4 v=60
341614 On ch=1 n=d#5 v=70
341730 Par ch=1 c=64 v=63
341744 Par ch=1 c=64 v=0
341790 Par ch=1 c=64 v=63
341824 Par ch=1 c=64 v=127
341906 On ch=1 n=d#5 v=0
342182 On ch=1 n=c#5 v=73
342188 On ch=1 n=b4 v=0
342192 On ch=1 n=a#4 v=53
342308 On ch=1 n=a#4 v=0
342374 On ch=1 n=c#5 v=0
342460 On ch=1 n=g#4 v=65
342468 On ch=1 n=b4 v=63
342628 On ch=1 n=g#4 v=0
342666 On ch=1 n=b4 v=0
342832 On ch=1 n=c#4 v=43
342838 On ch=1 n=a#4 v=63
342844 On ch=1 n=f#3 v=53
342850 On ch=1 n=f#4 v=44
342854 On ch=1 n=c#3 v=0
342942 Par ch=1 c=64 v=63
342956 Par ch=1 c=64 v=0
343062 Par ch=1 c=64 v=63
343086 Par ch=1 c=64 v=127
343238 On ch=1 n=c#4 v=0
343378 On ch=1 n=c#4 v=61
343538 On ch=1 n=f5 v=0
343540 On ch=1 n=f#4 v=0
343560 On ch=1 n=c#4 v=0
343586 On ch=1 n=a#4 v=0
344006 On ch=1 n=c#4 v=31
344012 On ch=1 n=f#5 v=56
344012 On ch=1 n=a#4 v=51
344022 On ch=1 n=f#4 v=29
344168 Par ch=1 c=64 v=63
344208 Par ch=1 c=64 v=0
344246 Par ch=1 c=64 v=63
344298 Par ch=1 c=64 v=127
344438 On ch=1 n=c#4 v=0
344738 On ch=1 n=c#4 v=36
344988 On ch=1 n=c#4 v=0
345324 On ch=1 n=f#4 v=0
345478 On ch=1 n=a#4 v=0
345572 On ch=1 n=c#4 v=12
345616 On ch=1 n=f#5 v=0
346018 On ch=1 n=f#3 v=0
346106 On ch=1 n=c#4 v=0
346708 On ch=1 n=f#6 v=108
346710 On ch=1 n=b5 v=103
346720 On ch=1 n=f6 v=93
346732 On ch=1 n=d6 v=91
346742 Par ch=1 c=64 v=63
346750 Par ch=1 c=64 v=0
346946 On ch=1 n=f6 v=0
347190 On ch=1 n=c#6 v=87
347192 On ch=1 n=a5 v=75
347202 Par ch=1 c=64 v=63
347208 Par ch=1 c=64 v=127
347226 On ch=1 n=d6 v=0
347238 On ch=1 n=f#6 v=0
347240 On ch=1 n=b5 v=0
347246 Par ch=1 c=64 v=63
347258 On ch=1 n=a5 v=0
347264 On ch=1 n=c#6 v=0
347266 Par ch=1 c=64 v=0
347606 On ch=1 n=f#6 v=106
347610 On ch=1 n=g#5 v=105
347614 On ch=1 n=d6 v=91
347622 On ch=1 n=b5 v=86
347628 Par ch=1 c=64 v=63
347634 Par ch=1 c=64 v=127
347784 On ch=1 n=b5 v=0
347954 Par ch=1 c=64 v=63
347966 Par ch=1 c=64 v=0
347998 On ch=1 n=d6 v=0
348046 On ch=1 n=c#6 v=84
348050 On ch=1 n=f#5 v=99
348052 On ch=1 n=a5 v=78
348086 On ch=1 n=g#5 v=0
348166 On ch=1 n=f#6 v=0
348214 Par ch=1 c=64 v=63
348224 Par ch=1 c=64 v=127
348346 Par ch=1 c=64 v=63
348352 Par ch=1 c=64 v=0
348366 On ch=1 n=a5 v=0
348420 On ch=1 n=c#6 v=0
348460 Par ch=1 c=64 v=63
348466 Par ch=1 c=64 v=127
348478 On ch=1 n=a6 v=113
348614 On ch=1 n=f#5 v=0
348812 On ch=1 n=a6 v=0
348880 On ch=1 n=b4 v=94
348900 On ch=1 n=d6 v=76
348906 On ch=1 n=a5 v=57
349060 On ch=1 n=a5 v=0
349078 On ch=1 n=g#6 v=105
349152 On ch=1 n=d6 v=0
349234 Par ch=1 c=64 v=63
349240 Par ch=1 c=64 v=0
349250 On ch=1 n=g#6 v=0
349272 On ch=1 n=f#6 v=91
349280 On ch=1 n=e5 v=84
349288 On ch=1 n=d6 v=86
349288 On ch=1 n=g#5 v=88
349296 On ch=1 n=b4 v=0
349304 Par ch=1 c=64 v=63
349334 Par ch=1 c=64 v=127
349438 On ch=1 n=e6 v=96
349442 On ch=1 n=d6 v=0
349530 Par ch=1 c=64 v=63
349540 Par ch=1 c=64 v=0
349548 On ch=1 n=g#5 v=0
349552 On ch=1 n=f#6 v=0
349638 Par ch=1 c=64 v=63
349650 On ch=1 n=f#4 v=98
349658 On ch=1 n=f#6 v=98
349660 Par ch=1 c=64 v=127
349666 On ch=1 n=a5 v=76
349670 On ch=1 n=c#6 v=84
349674 On ch=1 n=e5 v=0
349714 On ch=1 n=f#4 v=0
349716 On ch=1 n=e6 v=0
349802 On ch=1 n=a5 v=0
349842 On ch=1 n=g#6 v=100
349884 On ch=1 n=c#6 v=0
349922 On ch=1 n=f#6 v=0
349932 Par ch=1 c=64 v=63
349948 Par ch=1 c=64 v=0
349980 On ch=1 n=g#6 v=0
349994 Par ch=1 c=64 v=63
350028 Par ch=1 c=64 v=127
350040 On ch=1 n=b4 v=72
350052 On ch=1 n=f5 v=84
350052 On ch=1 n=a6 v=102
350056 On ch=1 n=d5 v=76
350058 On ch=1 n=f#5 v=100
350138 On ch=1 n=a6 v=0
350154 On ch=1 n=f5 v=0
350162 On ch=1 n=d5 v=0
350176 On ch=1 n=b4 v=0
350202 On ch=1 n=f#5 v=0
350228 On ch=1 n=b6 v=98
350314 On ch=1 n=b6 v=0
350432 On ch=1 n=c#7 v=110
350436 On ch=1 n=a4 v=67
350436 On ch=1 n=c#5 v=94
350438 On ch=1 n=f#5 v=93
350466 Par ch=1 c=64 v=63
350476 Par ch=1 c=64 v=0
350506 On ch=1 n=c#5 v=0
350508 On ch=1 n=c#7 v=0
350518 On ch=1 n=f#5 v=0
350528 On ch=1 n=a4 v=0
350824 On ch=1 n=f#5 v=104
350828 On ch=1 n=g#4 v=84
350828 On ch=1 n=b4 v=82
350830 On ch=1 n=c#7 v=113
350832 On ch=1 n=d5 v=96
350842 Par ch=1 c=64 v=63
350846 Par ch=1 c=64 v=127
351048 On ch=1 n=d5 v=0
351066 On ch=1 n=b4 v=0
351078 On ch=1 n=g#4 v=0
351248 On ch=1 n=f#4 v=92
351252 On ch=1 n=c#5 v=89
351252 On ch=1 n=a4 v=62
351270 Par ch=1 c=64 v=63
351288 Par ch=1 c=64 v=0
351316 Par ch=1 c=64 v=63
351346 Par ch=1 c=64 v=127
351410 On ch=1 n=f#4 v=0
351412 On ch=1 n=a4 v=0
351426 On ch=1 n=a6 v=93
351432 On ch=1 n=c#5 v=0
351444 On ch=1 n=c#7 v=0
351458 On ch=1 n=f#5 v=0
351624 On ch=1 n=a5 v=97
351636 On ch=1 n=f#6 v=107
351650 Par ch=1 c=64 v=63
351672 On ch=1 n=a6 v=0
351680 Par ch=1 c=64 v=0
351806 Par ch=1 c=64 v=63
351806 On ch=1 n=c#6 v=108
351826 Par ch=1 c=64 v=127
351868 On ch=1 n=f#6 v=0
352016 On ch=1 n=d5 v=52
352022 On ch=1 n=c#6 v=0
352028 On ch=1 n=b4 v=51
352034 On ch=1 n=d6 v=82
352056 Par ch=1 c=64 v=63
352078 Par ch=1 c=64 v=0
352134 Par ch=1 c=64 v=63
352178 Par ch=1 c=64 v=127
352190 On ch=1 n=a5 v=0
352346 On ch=1 n=g#5 v=75
352374 On ch=1 n=d5 v=0
352570 On ch=1 n=f#5 v=90
352644 On ch=1 n=g#5 v=0
352734 On ch=1 n=e5 v=94
352756 On ch=1 n=f#5 v=0
352930 On ch=1 n=f#5 v=108
352958 Par ch=1 c=64 v=63
352972 Par ch=1 c=64 v=0
352998 On ch=1 n=e5 v=0
353032 On ch=1 n=d6 v=0
353064 On ch=1 n=b4 v=0
353104 On ch=1 n=e6 v=111
353162 On ch=1 n=f#5 v=0
353302 On ch=1 n=g#5 v=97
353332 On ch=1 n=f#6 v=108
353332 Par ch=1 c=64 v=63
353334 Par ch=1 c=64 v=127
353380 On ch=1 n=e6 v=0
353394 On ch=1 n=g#5 v=0
353498 On ch=1 n=g#6 v=107
353626 On ch=1 n=f#6 v=0
353696 On ch=1 n=d5 v=81
353700 On ch=1 n=e4 v=70
353712 On ch=1 n=b6 v=83
353720 On ch=1 n=g#6 v=0
353748 On ch=1 n=e4 v=0
353756 On ch=1 n=d5 v=0
353856 On ch=1 n=b6 v=0
353888 On ch=1 n=g#6 v=87
354066 On ch=1 n=g#5 v=101
354088 On ch=1 n=e6 v=88
354110 On ch=1 n=g#6 v=0
354234 On ch=1 n=b5 v=88
354240 On ch=1 n=e6 v=0
354442 On ch=1 n=a4 v=44
354444 On ch=1 n=c#5 v=69
354468 On ch=1 n=c#6 v=88
354494 Par ch=1 c=64 v=63
354504 Par ch=1 c=64 v=0
354518 On ch=1 n=b5 v=0
354584 On ch=1 n=g#5 v=0
354600 Par ch=1 c=64 v=63
354622 Par ch=1 c=64 v=127
354678 On ch=1 n=f#5 v=84
354814 On ch=1 n=c#5 v=0
354870 On ch=1 n=e5 v=84
354884 On ch=1 n=f#5 v=0
355036 On ch=1 n=d5 v=97
355060 On ch=1 n=e5 v=0
355164 On ch=1 n=c#6 v=0
355212 On ch=1 n=e5 v=101
355292 On ch=1 n=d5 v=0
355322 Par ch=1 c=64 v=63
355338 On ch=1 n=a4 v=0
355342 Par ch=1 c=64 v=0
355380 On ch=1 n=d6 v=98
355430 On ch=1 n=e5 v=0
355574 On ch=1 n=f#5 v=101
355592 On ch=1 n=e6 v=109
355596 Par ch=1 c=64 v=63
355602 Par ch=1 c=64 v=127
355636 On ch=1 n=d6 v=0
355676 On ch=1 n=f#5 v=0
355756 On ch=1 n=f#6 v=104
355808 On ch=1 n=e6 v=0
355962 On ch=1 n=d4 v=71
355976 On ch=1 n=a6 v=89
355976 On ch=1 n=c#5 v=87
356024 On ch=1 n=f#6 v=0
356054 On ch=1 n=c#5 v=0
356054 On ch=1 n=d4 v=0
356164 On ch=1 n=a6 v=0
356168 On ch=1 n=f#6 v=82
356354 On ch=1 n=f#5 v=80
356368 On ch=1 n=d6 v=81
356414 On ch=1 n=f#6 v=0
356532 On ch=1 n=a5 v=90
356568 On ch=1 n=d6 v=0
356740 On ch=1 n=g#4 v=51
356746 On ch=1 n=b5 v=84
356762 On ch=1 n=b4 v=52
356770 Par ch=1 c=64 v=63
356786 On ch=1 n=a5 v=0
356788 Par ch=1 c=64 v=0
356828 On ch=1 n=f#5 v=0
356866 Par ch=1 c=64 v=63
356900 Par ch=1 c=64 v=127
356948 On ch=1 n=e5 v=77
356984 On ch=1 n=b4 v=0
357144 On ch=1 n=d5 v=78
357180 On ch=1 n=e5 v=0
357264 On ch=1 n=b5 v=0
357294 On ch=1 n=c#5 v=92
357338 On ch=1 n=d5 v=0
357502 On ch=1 n=c#5 v=0
357502 On ch=1 n=d5 v=92
357520 On ch=1 n=g#4 v=0
357598 On ch=1 n=d5 v=0
357618 Par ch=1 c=64 v=63
357638 Par ch=1 c=64 v=0
357662 On ch=1 n=g#5 v=97
357818 On ch=1 n=g#5 v=0
357822 Par ch=1 c=64 v=63
357838 Par ch=1 c=64 v=127
357858 On ch=1 n=a5 v=92
357866 On ch=1 n=c#5 v=101
357868 On ch=1 n=f#5 v=95
357870 On ch=1 n=d4 v=85
357938 On ch=1 n=d4 v=0
357960 On ch=1 n=c#5 v=0
358024 On ch=1 n=b5 v=97
358028 On ch=1 n=a5 v=0
358052 On ch=1 n=f#5 v=0
358128 On ch=1 n=b5 v=0
358160 Par ch=1 c=64 v=63
358174 Par ch=1 c=64 v=0
358212 On ch=1 n=e3 v=91
358214 On ch=1 n=e4 v=96
358226 On ch=1 n=c#5 v=104
358228 On ch=1 n=c#6 v=108
358234 On ch=1 n=g#5 v=97
358238 Par ch=1 c=64 v=63
358258 Par ch=1 c=64 v=127
358266 On ch=1 n=c#5 v=0
358276 On ch=1 n=e4 v=0
358276 On ch=1 n=e3 v=0
358320 On ch=1 n=g#5 v=0
358350 On ch=1 n=c#6 v=0
358448 On ch=1 n=b5 v=90
358580 Par ch=1 c=64 v=63
358598 Par ch=1 c=64 v=0
358628 On ch=1 n=c#6 v=110
358700 On ch=1 n=b5 v=0
358814 On ch=1 n=c#6 v=0
358814 On ch=1 n=d6 v=98
358986 On ch=1 n=d6 v=0
359006 On ch=1 n=e6 v=104
359104 On ch=1 n=e6 v=0
359184 On ch=1 n=d6 v=116
359188 On ch=1 n=c#6 v=105
359194 Par ch=1 c=64 v=63
359196 On ch=1 n=a5 v=84
359204 Par ch=1 c=64 v=127
359290 On ch=1 n=c#6 v=0
359332 On ch=1 n=a5 v=0
359364 On ch=1 n=e6 v=106
359368 On ch=1 n=d6 v=0
359370 On ch=1 n=b5 v=96
359384 On ch=1 n=g#5 v=85
359414 Par ch=1 c=64 v=63
359420 Par ch=1 c=64 v=0
359470 On ch=1 n=e6 v=0
359494 On ch=1 n=g#5 v=0
359494 On ch=1 n=b5 v=0
359538 On ch=1 n=f#6 v=114
359538 On ch=1 n=a5 v=86
359544 On ch=1 n=f#5 v=93
359546 Par ch=1 c=64 v=63
359548 On ch=1 n=c#6 v=106
359558 Par ch=1 c=64 v=127
359682 On ch=1 n=c#6 v=0
359706 On ch=1 n=f#5 v=0
359720 On ch=1 n=g#5 v=97
359722 On ch=1 n=g#6 v=106
359726 On ch=1 n=a5 v=0
359728 On ch=1 n=e5 v=81
359732 Par ch=1 c=64 v=63
359738 Par ch=1 c=64 v=0
359750 On ch=1 n=f#6 v=0
359804 On ch=1 n=g#5 v=0
359826 On ch=1 n=g#6 v=0
359838 On ch=1 n=e5 v=0
359904 On ch=1 n=g#6 v=106
360030 On ch=1 n=g#6 v=0
360094 On ch=1 n=d6 v=89
360094 On ch=1 n=a6 v=113
360096 On ch=1 n=d5 v=92
360098 Par ch=1 c=64 v=63
360100 Par ch=1 c=64 v=127
360104 On ch=1 n=f#6 v=105
360104 On ch=1 n=c#6 v=106
360146 On ch=1 n=d6 v=0
360160 On ch=1 n=c#6 v=0
360164 On ch=1 n=d5 v=0
360172 On ch=1 n=f#6 v=0
360180 On ch=1 n=a6 v=0
360252 On ch=1 n=b6 v=92
360352 On ch=1 n=b6 v=0
360402 Par ch=1 c=64 v=63
360412 Par ch=1 c=64 v=0
360452 On ch=1 n=e4 v=90
360462 On ch=1 n=e5 v=93
360466 Par ch=1 c=64 v=63
360466 On ch=1 n=c#7 v=115
360468 On ch=1 n=g#6 v=109
360468 On ch=1 n=c#6 v=106
360480 Par ch=1 c=64 v=127
360498 On ch=1 n=c#6 v=0
360516 On ch=1 n=e5 v=0
360522 On ch=1 n=e4 v=0
360542 On ch=1 n=g#6 v=0
360576 On ch=1 n=c#7 v=0
360670 On ch=1 n=b6 v=98
360826 On ch=1 n=b6 v=0
360852 On ch=1 n=c#7 v=119
360878 On ch=1 n=b6 v=30
360908 Par ch=1 c=64 v=63
360924 On ch=1 n=b6 v=0
360926 Par ch=1 c=64 v=0
360990 On ch=1 n=c#7 v=0
361008 On ch=1 n=d7 v=104
361160 On ch=1 n=d7 v=0
361208 On ch=1 n=e7 v=116
361312 On ch=1 n=e7 v=0
361392 On ch=1 n=c#7 v=113
361394 On ch=1 n=d7 v=117
361400 On ch=1 n=a6 v=99
361410 Par ch=1 c=64 v=63
361414 Par ch=1 c=64 v=127
361518 On ch=1 n=c#7 v=0
361530 On ch=1 n=a6 v=0
361558 On ch=1 n=d7 v=0
361582 On ch=1 n=e7 v=109
361590 On ch=1 n=b6 v=94
361594 On ch=1 n=g#6 v=92
361624 Par ch=1 c=64 v=63
361634 Par ch=1 c=64 v=0
361690 On ch=1 n=e7 v=0
361694 On ch=1 n=b6 v=0
361700 On ch=1 n=g#6 v=0
361760 On ch=1 n=a6 v=106
361762 On ch=1 n=f#6 v=105
361768 On ch=1 n=f#7 v=115
361772 Par ch=1 c=64 v=63
361776 On ch=1 n=c#7 v=107
361782 Par ch=1 c=64 v=127
361906 On ch=1 n=c#7 v=0
361930 On ch=1 n=f#6 v=0
361950 On ch=1 n=f#7 v=0
361962 On ch=1 n=a6 v=0
361972 On ch=1 n=g#6 v=104
361976 On ch=1 n=e6 v=91
361976 On ch=1 n=g#7 v=112
362008 On ch=1 n=f#6 v=42
362024 On ch=1 n=g#6 v=0
362042 On ch=1 n=e6 v=0
362046 On ch=1 n=g#7 v=0
362048 On ch=1 n=f#6 v=0
362100 Par ch=1 c=64 v=63
362112 Par ch=1 c=64 v=0
362414 On ch=1 n=c#6 v=115
362420 On ch=1 n=a5 v=103
362422 On ch=1 n=f#4 v=124
362422 On ch=1 n=d#5 v=116
362448 Par ch=1 c=64 v=63
362452 Par ch=1 c=64 v=127
362496 On ch=1 n=f#4 v=0
362520 On ch=1 n=d#5 v=0
362538 On ch=1 n=a5 v=0
362554 On ch=1 n=c#6 v=0
362586 Par ch=1 c=64 v=63
362598 Par ch=1 c=64 v=0
362854 On ch=1 n=c#6 v=118
362854 On ch=1 n=g#4 v=113
362858 Par ch=1 c=64 v=63
362860 On ch=1 n=d#5 v=118
362862 On ch=1 n=g#5 v=114
362864 Par ch=1 c=64 v=127
363272 On ch=1 n=d#4 v=110
363278 On ch=1 n=g#3 v=107
363312 On ch=1 n=c#6 v=0
363314 On ch=1 n=d#5 v=0
363326 On ch=1 n=g#4 v=0
363330 On ch=1 n=g#5 v=0
363372 On ch=1 n=d#4 v=0
363396 On ch=1 n=g#3 v=0
363546 Par ch=1 c=64 v=63
363562 Par ch=1 c=64 v=0
363670 On ch=1 n=b5 v=117
363672 On ch=1 n=g#5 v=115
363676 On ch=1 n=d#5 v=118
363678 On ch=1 n=g#4 v=120
363768 Par ch=1 c=64 v=63
363782 Par ch=1 c=64 v=127
364090 On ch=1 n=d#5 v=0
364090 On ch=1 n=d#4 v=113
364098 On ch=1 n=g#3 v=110
364100 On ch=1 n=g#4 v=0
364112 On ch=1 n=g#5 v=0
364118 On ch=1 n=b5 v=0
364154 On ch=1 n=d#4 v=0
364166 On ch=1 n=g#3 v=0
364456 Par ch=1 c=64 v=63
364470 Par ch=1 c=64 v=0
364506 On ch=1 n=c#6 v=123
364514 On ch=1 n=f5 v=120
364514 On ch=1 n=g#5 v=115
364948 On ch=1 n=g#3 v=116
364952 On ch=1 n=c#3 v=123
364990 Par ch=1 c=64 v=127
365004 On ch=1 n=g#3 v=0
365014 On ch=1 n=c#3 v=0
365440 On ch=1 n=g#4 v=116
365446 On ch=1 n=c#4 v=109
365504 On ch=1 n=g#4 v=0
365526 On ch=1 n=c#4 v=0
365724 On ch=1 n=f5 v=0
365756 On ch=1 n=g#5 v=0
365796 On ch=1 n=c#6 v=0
365884 Par ch=1 c=64 v=63
365904 Par ch=1 c=64 v=0
366026 On ch=1 n=c#4 v=116
366036 On ch=1 n=c4 v=101
366038 On ch=1 n=f#3 v=93
366044 On ch=1 n=a3 v=86
366192 On ch=1 n=a3 v=0
366230 On ch=1 n=c4 v=0
366264 On ch=1 n=f#3 v=0
366474 On ch=1 n=g#3 v=87
366484 On ch=1 n=e3 v=84
366564 On ch=1 n=e3 v=0
366578 On ch=1 n=g#3 v=0
366584 On ch=1 n=c#4 v=0
366888 On ch=1 n=c#4 v=109
366904 On ch=1 n=f#3 v=80
366912 On ch=1 n=d#3 v=81
366914 On ch=1 n=a3 v=76
366914 Par ch=1 c=64 v=63
366924 Par ch=1 c=64 v=127
367016 On ch=1 n=a3 v=0
367064 On ch=1 n=d#3 v=0
367070 On ch=1 n=f#3 v=0
367304 On ch=1 n=g#3 v=81
367310 On ch=1 n=e3 v=78
367312 On ch=1 n=c#3 v=92
367328 Par ch=1 c=64 v=63
367340 Par ch=1 c=64 v=0
367574 On ch=1 n=c#3 v=0
367618 On ch=1 n=e3 v=0
367628 On ch=1 n=g#3 v=0
367700 On ch=1 n=c#4 v=0
367740 On ch=1 n=e4 v=102
368134 On ch=1 n=a3 v=84
368146 On ch=1 n=f#3 v=80
368204 Par ch=1 c=64 v=63
368210 Par ch=1 c=64 v=127
368268 On ch=1 n=e4 v=0
368318 On ch=1 n=d#4 v=96
368462 Par ch=1 c=64 v=63
368478 Par ch=1 c=64 v=0
368526 On ch=1 n=e4 v=91
368540 On ch=1 n=a3 v=0
368542 Par ch=1 c=64 v=63
368552 On ch=1 n=d#4 v=0
368552 On ch=1 n=c#4 v=72
368570 Par ch=1 c=64 v=127
368680 On ch=1 n=c#4 v=0
368706 On ch=1 n=f#4 v=99
368716 On ch=1 n=d#4 v=96
368740 On ch=1 n=b3 v=75
368752 On ch=1 n=e4 v=0
368878 Par ch=1 c=64 v=63
368882 On ch=1 n=d#4 v=0
368892 Par ch=1 c=64 v=0
368918 On ch=1 n=e3 v=67
368920 On ch=1 n=g#4 v=99
368928 On ch=1 n=e4 v=87
368956 On ch=1 n=f#4 v=0
368964 On ch=1 n=f#3 v=0
369000 Par ch=1 c=64 v=63
369026 Par ch=1 c=64 v=127
369084 On ch=1 n=f#4 v=92
369100 On ch=1 n=d#4 v=89
369106 On ch=1 n=g#4 v=0
369138 On ch=1 n=e4 v=0
369216 Par ch=1 c=64 v=63
369230 Par ch=1 c=64 v=0
369302 On ch=1 n=d#4 v=0
369304 On ch=1 n=g#4 v=91
369316 On ch=1 n=f#4 v=0
369318 On ch=1 n=e4 v=79
369408 Par ch=1 c=64 v=63
369428 On ch=1 n=g#4 v=0
369446 On ch=1 n=e4 v=0
369452 Par ch=1 c=64 v=127
369472 On ch=1 n=a4 v=88
369506 On ch=1 n=f#4 v=85
369598 On ch=1 n=a4 v=0
369602 Par ch=1 c=64 v=63
369620 On ch=1 n=f#4 v=0
369626 Par ch=1 c=64 v=0
369698 On ch=1 n=b4 v=98
369704 On ch=1 n=e4 v=89
369710 On ch=1 n=b3 v=0
369714 On ch=1 n=e3 v=0
369722 On ch=1 n=g#3 v=77
369758 Par ch=1 c=64 v=63
369770 On ch=1 n=b4 v=0
369778 On ch=1 n=e4 v=0
369800 Par ch=1 c=64 v=127
369838 On ch=1 n=g#3 v=0
369882 Par ch=1 c=64 v=63
369946 Par ch=1 c=64 v=0
370108 On ch=1 n=a3 v=78
370120 On ch=1 n=c#4 v=82
370124 On ch=1 n=f#3 v=76
370134 On ch=1 n=e4 v=54
370184 On ch=1 n=f#3 v=0
370188 On ch=1 n=c#4 v=0
370202 On ch=1 n=a3 v=0
370206 On ch=1 n=e4 v=0
370452 Par ch=1 c=64 v=63
370510 Par ch=1 c=64 v=127
370514 On ch=1 n=b3 v=59
370530 On ch=1 n=e4 v=82
370538 On ch=1 n=f#3 v=62
370832 Par ch=1 c=64 v=63
370872 Par ch=1 c=64 v=0
370938 On ch=1 n=d#4 v=76
370940 On ch=1 n=e4 v=0
370994 Par ch=1 c=64 v=63
371032 Par ch=1 c=64 v=127
371102 On ch=1 n=f#3 v=0
371254 On ch=1 n=d#4 v=0
371356 On ch=1 n=b3 v=0
371392 Par ch=1 c=64 v=63
371408 On ch=1 n=b2 v=82
371460 Par ch=1 c=64 v=0
371566 Par ch=1 c=64 v=63
371606 On ch=1 n=d#4 v=92
371626 Par ch=1 c=64 v=127
371790 On ch=1 n=b3 v=66
371796 On ch=1 n=g#4 v=90
371842 On ch=1 n=b2 v=0
371948 On ch=1 n=b4 v=92
371980 On ch=1 n=d#4 v=0
372028 On ch=1 n=g#4 v=0
372138 On ch=1 n=c#3 v=96
372160 On ch=1 n=d#5 v=99
372176 On ch=1 n=e4 v=69
372180 Par ch=1 c=64 v=63
372214 Par ch=1 c=64 v=0
372216 On ch=1 n=b4 v=0
372326 On ch=1 n=c#5 v=105
372404 On ch=1 n=d#5 v=0
372518 On ch=1 n=b4 v=91
372584 On ch=1 n=e4 v=0
372596 Par ch=1 c=64 v=63
372602 On ch=1 n=c#5 v=0
372614 Par ch=1 c=64 v=127
372662 On ch=1 n=b3 v=0
372676 On ch=1 n=a#4 v=107
372756 On ch=1 n=b4 v=0
372856 On ch=1 n=a#4 v=0
372912 On ch=1 n=a#4 v=91
372918 On ch=1 n=c#4 v=88
372926 On ch=1 n=g#4 v=95
372944 On ch=1 n=e3 v=67
372948 On ch=1 n=c#3 v=0
373038 Par ch=1 c=64 v=63
373064 Par ch=1 c=64 v=0
373190 Par ch=1 c=64 v=63
373210 Par ch=1 c=64 v=127
373338 On ch=1 n=b4 v=91
373372 On ch=1 n=e3 v=0
373498 On ch=1 n=c#5 v=99
373540 Par ch=1 c=64 v=63
373558 Par ch=1 c=64 v=0
373562 On ch=1 n=g#4 v=0
373578 On ch=1 n=b4 v=0
373592 On ch=1 n=a#4 v=0
373674 On ch=1 n=c#5 v=0
373700 Par ch=1 c=64 v=63
373710 Par ch=1 c=64 v=127
373724 On ch=1 n=d#5 v=88
373726 On ch=1 n=a#3 v=67
373732 On ch=1 n=c#4 v=0
373732 On ch=1 n=d#3 v=69
373736 On ch=1 n=f#4 v=67
373864 On ch=1 n=d#3 v=0
373892 On ch=1 n=a#3 v=0
373934 On ch=1 n=f#4 v=0
373976 Par ch=1 c=67 v=127
374046 On ch=1 n=d#5 v=0
374184 On ch=1 n=a#4 v=52
374192 On ch=1 n=d#4 v=62
374202 Par ch=1 c=64 v=63
374210 Par ch=1 c=64 v=0
374312 Par ch=1 c=64 v=63
374322 Par ch=1 c=64 v=127
374374 On ch=1 n=d#4 v=0
374378 On ch=1 n=a#4 v=0
374614 On ch=1 n=f#5 v=65
375010 On ch=1 n=d#7 v=80
375022 On ch=1 n=e6 v=56
375022 On ch=1 n=b5 v=50
375028 On ch=1 n=g#6 v=61
375030 On ch=1 n=c#5 v=52
375136 On ch=1 n=f#5 v=0
375148 On ch=1 n=g#6 v=0
375152 On ch=1 n=d#7 v=0
375184 On ch=1 n=c#5 v=0
375406 On ch=1 n=e6 v=0
375420 On ch=1 n=a#5 v=60
375438 On ch=1 n=d#6 v=56
375444 On ch=1 n=d#5 v=58
375448 On ch=1 n=c#6 v=44
375448 On ch=1 n=f#5 v=49
375464 On ch=1 n=b5 v=0
375510 On ch=1 n=a#5 v=0
375516 On ch=1 n=f#5 v=0
375552 On ch=1 n=d#5 v=0
375810 On ch=1 n=c#6 v=0
375850 On ch=1 n=a#4 v=61
375852 On ch=1 n=d#4 v=71
375852 Par ch=1 c=64 v=63
375860 On ch=1 n=d#6 v=0
375868 Par ch=1 c=64 v=0
375898 Par ch=1 c=64 v=63
375924 Par ch=1 c=64 v=127
375984 On ch=1 n=d#4 v=0
375990 On ch=1 n=a#4 v=0
376248 On ch=1 n=f#5 v=58
376378 On ch=1 n=f#5 v=0
376630 On ch=1 n=d#7 v=75
376636 On ch=1 n=b5 v=48
376648 On ch=1 n=g#6 v=61
376648 On ch=1 n=e6 v=46
376658 On ch=1 n=c#5 v=31
376724 On ch=1 n=d#7 v=0
376726 On ch=1 n=c#5 v=0
376738 On ch=1 n=g#6 v=0
376998 On ch=1 n=e6 v=0
377052 Par ch=1 c=64 v=63
377068 On ch=1 n=c#6 v=50
377070 On ch=1 n=a#5 v=52
377080 On ch=1 n=d#6 v=62
377086 On ch=1 n=b5 v=0
377086 On ch=1 n=d#5 v=56
377088 On ch=1 n=f#5 v=49
377120 Par ch=1 c=64 v=127
377142 On ch=1 n=a#5 v=0
377158 On ch=1 n=f#5 v=0
377190 On ch=1 n=d#5 v=0
377330 On ch=1 n=c#6 v=0
377374 On ch=1 n=d#6 v=0
377490 On ch=1 n=a#4 v=68
377492 On ch=1 n=d#4 v=74
377552 On ch=1 n=d#4 v=0
377568 On ch=1 n=a#4 v=0
377904 On ch=1 n=f#5 v=71
377968 On ch=1 n=f#5 v=0
378224 Par ch=1 c=64 v=63
378292 On ch=1 n=d#7 v=87
378302 On ch=1 n=c#5 v=64
378304 On ch=1 n=b5 v=52
378316 Par ch=1 c=64 v=127
378324 On ch=1 n=e6 v=35
378330 On ch=1 n=g#6 v=49
378378 On ch=1 n=d#7 v=0
378382 On ch=1 n=g#6 v=0
378390 On ch=1 n=c#5 v=0
378500 On ch=1 n=e6 v=0
378694 On ch=1 n=b5 v=0
378720 On ch=1 n=d#6 v=63
378724 On ch=1 n=c#6 v=61
378726 Par ch=1 c=64 v=63
378726 On ch=1 n=a#5 v=51
378750 On ch=1 n=d#5 v=48
378752 On ch=1 n=f#5 v=48
378776 On ch=1 n=a#5 v=0
378784 Par ch=1 c=64 v=127
378806 On ch=1 n=f#5 v=0
378836 On ch=1 n=d#5 v=0
379082 On ch=1 n=c#6 v=0
379108 On ch=1 n=d#6 v=0
379192 On ch=1 n=d#3 v=63
379194 On ch=1 n=a#3 v=49
379228 On ch=1 n=d#3 v=0
379236 On ch=1 n=a#3 v=0
380050 On ch=1 n=a#3 v=67
380080 On ch=1 n=d#3 v=53
380328 On ch=1 n=d#3 v=0
380368 On ch=1 n=a#3 v=0
380986 On ch=1 n=d#4 v=96
380988 Par ch=1 c=64 v=63
381004 On ch=1 n=g#3 v=86
381034 On ch=1 n=d4 v=63
381058 Par ch=1 c=64 v=127
381150 On ch=1 n=g#3 v=0
381214 On ch=1 n=d4 v=0
381404 On ch=1 n=f#3 v=87
381412 On ch=1 n=a#3 v=82
381446 Par ch=1 c=64 v=63
381450 On ch=1 n=a#3 v=0
381460 Par ch=1 c=64 v=0
381466 On ch=1 n=f#3 v=0
381510 On ch=1 n=d#4 v=0
381816 Par ch=1 c=64 v=63
381820 On ch=1 n=d#4 v=100
381822 Par ch=1 c=64 v=127
381834 On ch=1 n=f3 v=76
381838 On ch=1 n=b3 v=76
381838 On ch=1 n=g#3 v=71
381874 Par ch=1 c=67 v=0
381894 On ch=1 n=g#3 v=0
381966 On ch=1 n=b3 v=0
381972 On ch=1 n=f3 v=0
382246 On ch=1 n=a#3 v=46
382264 On ch=1 n=d#3 v=50
382274 Par ch=1 c=64 v=63
382278 On ch=1 n=f#3 v=48
382288 Par ch=1 c=64 v=0
382344 On ch=1 n=f#3 v=0
382592 Par ch=1 c=64 v=63
382598 On ch=1 n=d#3 v=0
382600 Par ch=1 c=64 v=127
382612 On ch=1 n=a#3 v=0
382662 On ch=1 n=f#4 v=87
382672 On ch=1 n=d#4 v=0
383082 On ch=1 n=b3 v=59
383084 On ch=1 n=g#3 v=55
383150 Par ch=1 c=64 v=63
383172 Par ch=1 c=64 v=0
383262 On ch=1 n=f4 v=65
383276 On ch=1 n=f#4 v=0
383300 Par ch=1 c=64 v=63
383314 Par ch=1 c=64 v=127
383442 On ch=1 n=f#4 v=90
383446 On ch=1 n=f4 v=0
383616 On ch=1 n=g#4 v=95
383618 On ch=1 n=f4 v=77
383650 On ch=1 n=b3 v=0
383652 On ch=1 n=f#4 v=0
383778 On ch=1 n=f4 v=0
383824 On ch=1 n=a#4 v=92
383826 On ch=1 n=f#4 v=88
383830 On ch=1 n=c#4 v=68
383850 On ch=1 n=f#3 v=58
383854 Par ch=1 c=64 v=63
383868 Par ch=1 c=64 v=0
383878 On ch=1 n=g#4 v=0
383910 On ch=1 n=g#3 v=0
383960 Par ch=1 c=64 v=63
383984 Par ch=1 c=64 v=127
383990 On ch=1 n=g#4 v=101
384008 On ch=1 n=f4 v=72
384024 On ch=1 n=f#4 v=0
384074 On ch=1 n=a#4 v=0
384178 On ch=1 n=f4 v=0
384194 On ch=1 n=a#4 v=93
384198 On ch=1 n=f#4 v=94
384246 On ch=1 n=g#4 v=0
384332 On ch=1 n=a#4 v=0
384340 On ch=1 n=b4 v=87
384384 On ch=1 n=g#4 v=92
384402 On ch=1 n=f#4 v=0
384464 On ch=1 n=b4 v=0
384506 On ch=1 n=g#4 v=0
384524 On ch=1 n=c#4 v=0
384560 On ch=1 n=c#5 v=112
384564 On ch=1 n=f#4 v=106
384570 On ch=1 n=a#3 v=88
384584 On ch=1 n=f#3 v=0
384594 Par ch=1 c=64 v=63
384610 Par ch=1 c=64 v=0
384656 On ch=1 n=c#5 v=0
384660 On ch=1 n=f#4 v=0
384838 On ch=1 n=a#3 v=0
384950 On ch=1 n=f#4 v=104
384954 On ch=1 n=g#3 v=103
384958 On ch=1 n=b3 v=96
384970 On ch=1 n=d#4 v=93
385024 On ch=1 n=g#3 v=0
385058 On ch=1 n=d#4 v=0
385060 On ch=1 n=f#4 v=0
385070 On ch=1 n=b3 v=0
385356 On ch=1 n=c#4 v=88
385366 On ch=1 n=f#4 v=86
385382 On ch=1 n=g#3 v=74
385402 Par ch=1 c=64 v=63
385404 Par ch=1 c=64 v=127
385604 Par ch=1 c=64 v=63
385618 Par ch=1 c=64 v=0
385676 Par ch=1 c=64 v=63
385698 Par ch=1 c=64 v=127
385728 On ch=1 n=f#4 v=0
385808 On ch=1 n=f4 v=72
385836 On ch=1 n=g#3 v=0
385880 On ch=1 n=c#4 v=0
385966 On ch=1 n=f4 v=0
386194 Par ch=1 c=64 v=63
386200 On ch=1 n=c#3 v=73
386206 Par ch=1 c=64 v=0
386396 On ch=1 n=f4 v=79
386480 Par ch=1 c=64 v=63
386498 Par ch=1 c=64 v=127
386562 On ch=1 n=c#4 v=71
386582 On ch=1 n=a#4 v=94
386686 On ch=1 n=f4 v=0
386738 On ch=1 n=c#5 v=100
386794 On ch=1 n=a#4 v=0
386884 Par ch=1 c=64 v=63
386906 On ch=1 n=d#3 v=77
386908 Par ch=1 c=64 v=0
386916 On ch=1 n=c#3 v=0
386956 On ch=1 n=f#4 v=89
386960 On ch=1 n=f5 v=87
386986 On ch=1 n=c#5 v=0
387146 On ch=1 n=d#5 v=100
387220 On ch=1 n=f5 v=0
387340 On ch=1 n=c#5 v=108
387416 On ch=1 n=f#4 v=0
387428 On ch=1 n=d#5 v=0
387452 Par ch=1 c=64 v=63
387456 Par ch=1 c=64 v=127
387520 On ch=1 n=c5 v=103
387586 On ch=1 n=c#4 v=0
387598 On ch=1 n=c#5 v=0
387678 On ch=1 n=c5 v=0
387734 On ch=1 n=d#4 v=107
387736 On ch=1 n=c5 v=101
387738 On ch=1 n=d#3 v=0
387744 On ch=1 n=f#3 v=92
387746 On ch=1 n=a#4 v=97
387780 Par ch=1 c=64 v=63
387794 Par ch=1 c=64 v=0
387932 Par ch=1 c=64 v=63
387948 Par ch=1 c=64 v=127
388138 On ch=1 n=c#5 v=104
388186 On ch=1 n=f#3 v=0
388194 On ch=1 n=d#4 v=0
388198 On ch=1 n=c5 v=0
388292 On ch=1 n=d#5 v=105
388366 On ch=1 n=a#4 v=0
388402 On ch=1 n=c#5 v=0
388418 Par ch=1 c=64 v=63
388424 Par ch=1 c=64 v=0
388490 On ch=1 n=d#5 v=0
388494 On ch=1 n=f3 v=84
388508 On ch=1 n=c4 v=75
388520 On ch=1 n=f5 v=93
388520 On ch=1 n=g#4 v=97
388542 Par ch=1 c=64 v=63
388552 Par ch=1 c=64 v=127
388616 On ch=1 n=f3 v=0
388640 On ch=1 n=c4 v=0
388680 On ch=1 n=g#4 v=0
388754 On ch=1 n=f5 v=0
388992 On ch=1 n=f4 v=49
389004 Par ch=1 c=67 v=127
389006 On ch=1 n=c5 v=34
389032 Par ch=1 c=64 v=63
389038 Par ch=1 c=64 v=0
389166 Par ch=1 c=64 v=63
389176 Par ch=1 c=64 v=127
389248 On ch=1 n=f4 v=0
389390 On ch=1 n=c5 v=0
389412 On ch=1 n=g#5 v=69
389528 On ch=1 n=g#5 v=0
389810 On ch=1 n=f7 v=77
389820 On ch=1 n=f#6 v=65
389828 On ch=1 n=c#6 v=68
389832 On ch=1 n=a#6 v=76
389860 On ch=1 n=d#5 v=40
389882 On ch=1 n=a#6 v=0
389888 On ch=1 n=f7 v=0
389922 On ch=1 n=f#6 v=0
389942 On ch=1 n=d#5 v=0
389950 On ch=1 n=c#6 v=0
390256 Par ch=1 c=64 v=63
390264 On ch=1 n=d#6 v=43
390264 On ch=1 n=f6 v=64
390266 On ch=1 n=g#5 v=56
390270 On ch=1 n=c6 v=51
390274 On ch=1 n=f5 v=42
390318 Par ch=1 c=64 v=127
390350 On ch=1 n=c6 v=0
390368 On ch=1 n=g#5 v=0
390382 On ch=1 n=f5 v=0
390450 On ch=1 n=d#6 v=0
390510 On ch=1 n=f6 v=0
390654 Par ch=1 c=64 v=63
390672 Par ch=1 c=64 v=0
390688 Par ch=1 c=64 v=63
390698 On ch=1 n=c5 v=69
390700 On ch=1 n=f4 v=56
390720 Par ch=1 c=64 v=127
390836 On ch=1 n=f4 v=0
390852 On ch=1 n=c5 v=0
391072 On ch=1 n=g#5 v=68
391162 On ch=1 n=g#5 v=0
391414 Par ch=1 c=64 v=63
391464 Par ch=1 c=64 v=127
391466 On ch=1 n=c#6 v=61
391470 On ch=1 n=f7 v=66
391474 On ch=1 n=f#6 v=56
391476 On ch=1 n=a#6 v=70
391478 On ch=1 n=d#5 v=52
391526 On ch=1 n=f7 v=0
391564 On ch=1 n=a#6 v=0
391596 On ch=1 n=c#6 v=0
391612 On ch=1 n=f#6 v=0
391710 On ch=1 n=d#5 v=0
391872 On ch=1 n=d#6 v=72
391876 On ch=1 n=f6 v=76
391880 On ch=1 n=c6 v=58
391882 On ch=1 n=g#5 v=59
391884 Par ch=1 c=64 v=63
391892 On ch=1 n=f5 v=36
391932 Par ch=1 c=64 v=127
391936 On ch=1 n=c6 v=0
391954 On ch=1 n=g#5 v=0
391968 On ch=1 n=f5 v=0
391994 On ch=1 n=d#6 v=0
392046 On ch=1 n=f6 v=0
392242 Par ch=1 c=64 v=63
392284 On ch=1 n=f4 v=70
392288 Par ch=1 c=64 v=127
392292 On ch=1 n=c5 v=73
392362 On ch=1 n=c5 v=0
392366 On ch=1 n=f4 v=0
392700 On ch=1 n=g#5 v=62
392782 On ch=1 n=g#5 v=0
393116 On ch=1 n=f#6 v=60
393124 On ch=1 n=a#6 v=71
393126 On ch=1 n=f7 v=38
393130 On ch=1 n=c#6 v=43
393148 On ch=1 n=d#5 v=39
393174 On ch=1 n=c#6 v=0
393178 On ch=1 n=f7 v=0
393186 On ch=1 n=a#6 v=0
393218 On ch=1 n=f#6 v=0
393334 On ch=1 n=d#5 v=0
393546 Par ch=1 c=64 v=63
393570 On ch=1 n=g#5 v=58
393574 On ch=1 n=f6 v=67
393578 On ch=1 n=d#6 v=53
393578 On ch=1 n=c6 v=62
393594 On ch=1 n=f5 v=40
393598 Par ch=1 c=64 v=127
393630 On ch=1 n=c6 v=0
393650 On ch=1 n=g#5 v=0
393654 On ch=1 n=d#6 v=0
393662 On ch=1 n=f6 v=0
393666 On ch=1 n=f5 v=0
394052 On ch=1 n=c4 v=50
394126 On ch=1 n=f3 v=53
394640 On ch=1 n=f3 v=0
394702 On ch=1 n=c4 v=0
394892 On ch=1 n=c4 v=74
394902 On ch=1 n=f3 v=67
394944 On ch=1 n=f3 v=0
394956 On ch=1 n=c4 v=0
395748 Par ch=1 c=67 v=0
395766 Par ch=1 c=64 v=63
395772 On ch=1 n=e4 v=72
395774 On ch=1 n=a#3 v=67
395774 On ch=1 n=c#4 v=70
395774 On ch=1 n=f4 v=68
395826 Par ch=1 c=64 v=127
395940 On ch=1 n=c#4 v=0
395962 On ch=1 n=e4 v=0
395970 On ch=1 n=a#3 v=0
396190 On ch=1 n=c4 v=81
396202 On ch=1 n=g#3 v=74
396214 Par ch=1 c=64 v=63
396220 Par ch=1 c=64 v=0
396262 On ch=1 n=f4 v=0
396266 On ch=1 n=g#3 v=0
396274 On ch=1 n=c4 v=0
396620 On ch=1 n=f4 v=91
396628 On ch=1 n=f#3 v=79
396630 On ch=1 n=c#4 v=79
396630 Par ch=1 c=64 v=63
396632 On ch=1 n=a#3 v=74
396634 Par ch=1 c=64 v=127
396774 On ch=1 n=a#3 v=0
396780 On ch=1 n=c#4 v=0
396780 On ch=1 n=f#3 v=0
397062 On ch=1 n=f3 v=80
397062 On ch=1 n=g#3 v=82
397064 On ch=1 n=c4 v=77
397066 Par ch=1 c=64 v=63
397074 Par ch=1 c=64 v=0
397398 On ch=1 n=f3 v=0
397450 On ch=1 n=c4 v=0
397452 On ch=1 n=g#3 v=0
397470 Par ch=1 c=64 v=63
397472 On ch=1 n=f4 v=0
397472 Par ch=1 c=64 v=127
397490 On ch=1 n=g#4 v=108
397782 Par ch=1 c=64 v=63
397798 Par ch=1 c=64 v=0
397878 On ch=1 n=c#4 v=86
397880 On ch=1 n=a#3 v=83
397918 Par ch=1 c=64 v=63
397942 Par ch=1 c=64 v=127
397996 On ch=1 n=g#4 v=0
398058 On ch=1 n=f#4 v=91
398106 Par ch=1 c=64 v=63
398134 Par ch=1 c=64 v=0
398168 On ch=1 n=f#4 v=0
398214 On ch=1 n=c#4 v=0
398270 On ch=1 n=f4 v=81
398276 On ch=1 n=g#4 v=100
398402 On ch=1 n=f4 v=0
398404 On ch=1 n=g#4 v=0
398422 On ch=1 n=d#4 v=89
398430 On ch=1 n=a#4 v=99
398594 On ch=1 n=d#4 v=0
398596 On ch=1 n=a#4 v=0
398618 On ch=1 n=a#3 v=0
398632 On ch=1 n=c#4 v=82
398638 On ch=1 n=g#3 v=69
398644 On ch=1 n=b4 v=101
398656 On ch=1 n=f4 v=87
398822 On ch=1 n=a#4 v=106
398886 On ch=1 n=b4 v=0
399002 On ch=1 n=b4 v=93
399050 On ch=1 n=a#4 v=0
399176 On ch=1 n=c#5 v=113
399226 On ch=1 n=b4 v=0
399304 On ch=1 n=c#5 v=0
399382 On ch=1 n=d#5 v=114
399410 Par ch=1 c=64 v=63
399422 Par ch=1 c=64 v=127
399524 On ch=1 n=d#5 v=0
399546 Par ch=1 c=64 v=63
399586 Par ch=1 c=64 v=0
399724 On ch=1 n=g#3 v=0
399772 On ch=1 n=b4 v=109
399778 On ch=1 n=a3 v=88
399956 On ch=1 n=b4 v=0
399992 On ch=1 n=c#4 v=0
400018 On ch=1 n=f4 v=0
400096 On ch=1 n=a3 v=0
400168 On ch=1 n=a#3 v=93
400174 On ch=1 n=b4 v=111
400174 On ch=1 n=d4 v=98
400182 On ch=1 n=f4 v=102
400210 Par ch=1 c=64 v=63
400222 Par ch=1 c=64 v=127
400346 On ch=1 n=g#3 v=85
400354 On ch=1 n=a#4 v=100
400380 On ch=1 n=b4 v=0
400388 On ch=1 n=f4 v=0
400390 On ch=1 n=a#3 v=0
400428 On ch=1 n=a#4 v=0
400454 Par ch=1 c=64 v=63
400466 Par ch=1 c=64 v=0
400564 On ch=1 n=f#3 v=94
400568 On ch=1 n=a#4 v=112
400578 On ch=1 n=d#5 v=114
400640 On ch=1 n=g#3 v=0
400710 On ch=1 n=f#3 v=0
400740 On ch=1 n=f5 v=97
400744 On ch=1 n=f3 v=96
400766 On ch=1 n=d#5 v=0
400822 Par ch=1 c=64 v=63
400830 Par ch=1 c=64 v=127
400856 On ch=1 n=f3 v=0
400944 On ch=1 n=f#5 v=114
400946 On ch=1 n=d#3 v=114
401006 On ch=1 n=f5 v=0
401034 Par ch=1 c=64 v=63
401046 Par ch=1 c=64 v=0
401108 On ch=1 n=f#5 v=0
401122 On ch=1 n=f5 v=92
401138 On ch=1 n=d4 v=0
401144 On ch=1 n=a#4 v=0
401272 On ch=1 n=f5 v=0
401326 On ch=1 n=f#5 v=118
401328 Par ch=1 c=64 v=63
401330 Par ch=1 c=64 v=127
401336 On ch=1 n=a#4 v=105
401340 On ch=1 n=d#5 v=100
401412 On ch=1 n=d#3 v=0
401484 On ch=1 n=c#3 v=112
401492 On ch=1 n=g#5 v=110
401544 On ch=1 n=f#5 v=0
401600 On ch=1 n=c#3 v=0
401606 On ch=1 n=a#4 v=0
401614 On ch=1 n=g#5 v=0
401626 On ch=1 n=d#5 v=0
401690 On ch=1 n=c3 v=114
401694 On ch=1 n=a#5 v=113
401694 On ch=1 n=d#5 v=100
401696 On ch=1 n=a#4 v=108
401748 Par ch=1 c=64 v=63
401758 Par ch=1 c=64 v=0
401786 On ch=1 n=c4 v=57
401796 On ch=1 n=a#5 v=0
401810 On ch=1 n=d#5 v=0
401838 On ch=1 n=a#4 v=0
402112 On ch=1 n=f#5 v=118
402120 On ch=1 n=a#4 v=114
402126 On ch=1 n=d#5 v=105
402150 Par ch=1 c=64 v=127
402240 On ch=1 n=c4 v=0
402324 On ch=1 n=d#5 v=0
402350 On ch=1 n=a#4 v=0
402362 On ch=1 n=f#5 v=0
402390 On ch=1 n=c3 v=0
402510 Par ch=1 c=64 v=63
402518 On ch=1 n=c#3 v=110
402520 On ch=1 n=c#4 v=119
402520 On ch=1 n=f#5 v=116
402522 On ch=1 n=g#4 v=116
402526 On ch=1 n=c#5 v=110
402530 Par ch=1 c=64 v=0
402588 Par ch=1 c=64 v=63
402598 On ch=1 n=g#4 v=0
402604 Par ch=1 c=64 v=127
402630 On ch=1 n=c#5 v=0
402662 On ch=1 n=f#5 v=0
402932 On ch=1 n=c#6 v=123
402934 On ch=1 n=f5 v=113
402954 Par ch=1 c=64 v=63
402960 Par ch=1 c=64 v=0
403094 Par ch=1 c=64 v=63
403102 Par ch=1 c=64 v=127
403116 On ch=1 n=d#6 v=113
403216 On ch=1 n=c#6 v=0
403288 On ch=1 n=d#6 v=0
403304 Par ch=1 c=64 v=63
403314 Par ch=1 c=64 v=0
403338 On ch=1 n=f6 v=112
403352 Par ch=1 c=64 v=63
403366 Par ch=1 c=64 v=127
403476 On ch=1 n=f6 v=0
403482 On ch=1 n=f5 v=0
403532 On ch=1 n=d#6 v=108
403610 On ch=1 n=c#3 v=0
403662 On ch=1 n=c#4 v=0
403700 On ch=1 n=d#6 v=0
403704 On ch=1 n=f6 v=109
403852 On ch=1 n=d#4 v=120
403858 On ch=1 n=d#3 v=112
403892 On ch=1 n=f#6 v=114
403942 On ch=1 n=f6 v=0
403946 On ch=1 n=d#3 v=0
403984 On ch=1 n=d#4 v=0
404022 On ch=1 n=f#6 v=0
404104 On ch=1 n=f4 v=112
404106 On ch=1 n=f3 v=108
404116 On ch=1 n=g#6 v=108
404118 On ch=1 n=g#5 v=108
404188 On ch=1 n=g#6 v=0
404198 On ch=1 n=g#5 v=0
404198 Par ch=1 c=64 v=63
404214 Par ch=1 c=64 v=0
404594 On ch=1 n=b5 v=104
404602 On ch=1 n=c#5 v=105
404608 On ch=1 n=g5 v=88
404744 Par ch=1 c=64 v=63
404746 Par ch=1 c=64 v=127
404874 On ch=1 n=f4 v=0
404908 On ch=1 n=f3 v=0
405030 On ch=1 n=e4 v=78
405048 On ch=1 n=e3 v=60
405192 Par ch=1 c=64 v=63
405204 Par ch=1 c=64 v=0
405286 On ch=1 n=b5 v=0
405368 Par ch=1 c=64 v=63
405380 Par ch=1 c=64 v=127
405410 On ch=1 n=g5 v=0
405428 On ch=1 n=a#5 v=82
405432 On ch=1 n=f#5 v=69
405484 On ch=1 n=e4 v=0
405514 On ch=1 n=c#5 v=0
405520 On ch=1 n=e3 v=0
405538 On ch=1 n=a#5 v=0
405546 On ch=1 n=f#5 v=0
405844 On ch=1 n=a2 v=69
405850 Par ch=1 c=64 v=63
405850 On ch=1 n=a3 v=60
405856 Par ch=1 c=64 v=0
405946 Par ch=1 c=64 v=63
405952 On ch=1 n=a2 v=0
405958 Par ch=1 c=64 v=127
405992 On ch=1 n=a3 v=0
406036 On ch=1 n=c#4 v=91
406252 On ch=1 n=c#4 v=0
406252 On ch=1 n=f#4 v=92
406278 On ch=1 n=a5 v=94
406352 On ch=1 n=a5 v=0
406462 On ch=1 n=a4 v=76
406506 On ch=1 n=f#4 v=0
406716 On ch=1 n=b3 v=71
406720 On ch=1 n=c#5 v=88
406726 On ch=1 n=b2 v=68
406730 On ch=1 n=d4 v=72
406808 Par ch=1 c=64 v=63
406824 Par ch=1 c=64 v=0
406908 Par ch=1 c=64 v=63
406932 On ch=1 n=b4 v=87
406936 Par ch=1 c=64 v=127
406988 On ch=1 n=a4 v=0
407016 On ch=1 n=c#5 v=0
407048 On ch=1 n=d4 v=0
407096 On ch=1 n=b2 v=0
407120 On ch=1 n=a4 v=87
407188 On ch=1 n=b3 v=0
407200 On ch=1 n=b4 v=0
407270 On ch=1 n=g#4 v=106
407342 On ch=1 n=a4 v=0
407418 On ch=1 n=g#4 v=0
407478 On ch=1 n=g#4 v=86
407488 On ch=1 n=d4 v=80
407510 On ch=1 n=d3 v=38
407514 On ch=1 n=f#4 v=70
407524 Par ch=1 c=64 v=63
407536 Par ch=1 c=64 v=0
407704 Par ch=1 c=64 v=63
407716 Par ch=1 c=64 v=127
407896 On ch=1 n=a4 v=70
407976 On ch=1 n=d4 v=0
407982 On ch=1 n=d3 v=0
408110 On ch=1 n=b4 v=71
408158 On ch=1 n=f#4 v=0
408164 On ch=1 n=a4 v=0
408176 On ch=1 n=g#4 v=0
408372 On ch=1 n=b4 v=0
408388 Par ch=1 c=64 v=63
408404 Par ch=1 c=64 v=0
408428 On ch=1 n=c#4 v=101
408434 On ch=1 n=c#3 v=100
408456 On ch=1 n=c#5 v=80
408468 Par ch=1 c=64 v=63
408470 On ch=1 n=e4 v=63
408498 Par ch=1 c=64 v=127
408632 On ch=1 n=e4 v=0
408688 On ch=1 n=c#5 v=0
409058 On ch=1 n=d7 v=108
409062 On ch=1 n=c#7 v=98
409068 On ch=1 n=a6 v=100
409078 Par ch=1 c=64 v=63
409086 Par ch=1 c=64 v=0
409460 On ch=1 n=c#7 v=0
409486 Par ch=1 c=64 v=63
409486 Par ch=1 c=64 v=127
409486 On ch=1 n=g#6 v=81
409488 On ch=1 n=b6 v=84
409518 On ch=1 n=a6 v=0
409536 On ch=1 n=d7 v=0
409566 On ch=1 n=g#6 v=0
409602 On ch=1 n=b6 v=0
409794 Par ch=1 c=64 v=63
409802 Par ch=1 c=64 v=0
409866 On ch=1 n=d7 v=112
409874 On ch=1 n=a6 v=94
409878 On ch=1 n=f#6 v=95
409894 Par ch=1 c=64 v=63
409906 Par ch=1 c=64 v=127
409984 On ch=1 n=a6 v=0
410010 On ch=1 n=f#6 v=0
410062 On ch=1 n=c#3 v=0
410128 On ch=1 n=c#4 v=0
410254 On ch=1 n=g#6 v=96
410262 On ch=1 n=e6 v=88
410302 On ch=1 n=d7 v=0
410404 On ch=1 n=e6 v=0
410424 On ch=1 n=d7 v=99
410450 On ch=1 n=a4 v=80
410462 On ch=1 n=g#6 v=0
410528 On ch=1 n=d5 v=38
410532 On ch=1 n=d7 v=0
410590 On ch=1 n=a4 v=0
410660 On ch=1 n=f#5 v=75
410674 On ch=1 n=c#7 v=106
410678 On ch=1 n=f#6 v=94
410680 On ch=1 n=a5 v=92
410684 On ch=1 n=d6 v=85
410716 On ch=1 n=d5 v=0
410722 On ch=1 n=a5 v=0
410730 On ch=1 n=f#5 v=0
410784 On ch=1 n=d6 v=0
410834 On ch=1 n=c#7 v=0
410854 On ch=1 n=b6 v=76
410938 Par ch=1 c=64 v=63
410948 Par ch=1 c=64 v=0
410960 On ch=1 n=c#3 v=86
411020 Par ch=1 c=64 v=63
411020 On ch=1 n=c#4 v=65
411038 Par ch=1 c=64 v=127
411050 On ch=1 n=c#3 v=0
411090 On ch=1 n=c#4 v=0
411228 On ch=1 n=c#7 v=100
411230 On ch=1 n=f#6 v=0
411230 On ch=1 n=g#5 v=101
411238 On ch=1 n=e6 v=90
411246 On ch=1 n=b6 v=0
411276 On ch=1 n=g#5 v=0
411392 On ch=1 n=e6 v=0
411392 On ch=1 n=c#7 v=0
411658 On ch=1 n=c#7 v=98
411670 On ch=1 n=g#6 v=93
411672 On ch=1 n=b6 v=91
412022 On ch=1 n=g#6 v=0
412026 On ch=1 n=b6 v=0
412046 On ch=1 n=f#6 v=92
412050 On ch=1 n=a6 v=87
412100 On ch=1 n=c#7 v=0
412130 On ch=1 n=a6 v=0
412136 On ch=1 n=f#6 v=0
412432 On ch=1 n=c#7 v=116
412448 On ch=1 n=g#6 v=100
412450 On ch=1 n=e6 v=91
412604 On ch=1 n=e6 v=0
412640 On ch=1 n=g#6 v=0
412848 On ch=1 n=f#6 v=105
412854 On ch=1 n=d6 v=96
412892 On ch=1 n=c#7 v=0
412956 On ch=1 n=d6 v=0
412994 On ch=1 n=c#7 v=106
413034 On ch=1 n=f#6 v=0
413034 On ch=1 n=g#4 v=80
413092 Par ch=1 c=64 v=63
413096 On ch=1 n=c#7 v=0
413100 On ch=1 n=c#5 v=73
413106 Par ch=1 c=64 v=0
413148 Par ch=1 c=64 v=63
413178 Par ch=1 c=64 v=127
413194 On ch=1 n=g#4 v=0
413206 On ch=1 n=c#6 v=104
413206 On ch=1 n=g#5 v=92
413210 On ch=1 n=b6 v=84
413218 On ch=1 n=e6 v=84
413236 On ch=1 n=g#5 v=0
413248 On ch=1 n=c#5 v=0
413286 On ch=1 n=c#6 v=0
413334 Par ch=1 c=64 v=63
413340 On ch=1 n=e6 v=0
413372 Par ch=1 c=64 v=127
413382 On ch=1 n=a6 v=96
413430 On ch=1 n=b6 v=0
413454 On ch=1 n=c#3 v=81
413552 On ch=1 n=c#3 v=0
413724 On ch=1 n=f#5 v=115
413728 On ch=1 n=b6 v=97
413738 On ch=1 n=a6 v=0
413738 On ch=1 n=d6 v=93
413776 On ch=1 n=f#5 v=0
413926 On ch=1 n=d6 v=0
413928 On ch=1 n=b6 v=0
414192 On ch=1 n=b6 v=97
414194 On ch=1 n=a6 v=93
414206 On ch=1 n=f#6 v=98
414578 On ch=1 n=f#6 v=0
414582 On ch=1 n=g#6 v=87
414588 On ch=1 n=e6 v=76
414634 On ch=1 n=a6 v=0
414654 On ch=1 n=e6 v=0
414666 On ch=1 n=b6 v=0
414688 On ch=1 n=g#6 v=0
414952 On ch=1 n=b6 v=112
414970 On ch=1 n=f#6 v=99
414972 On ch=1 n=d6 v=90
415034 On ch=1 n=d6 v=0
415082 On ch=1 n=f#6 v=0
415372 On ch=1 n=e6 v=99
415376 On ch=1 n=c#6 v=104
415442 On ch=1 n=b6 v=0
415490 On ch=1 n=c#6 v=0
415514 On ch=1 n=b6 v=91
415546 On ch=1 n=e6 v=0
415552 On ch=1 n=f#4 v=87
415608 Par ch=1 c=64 v=63
415610 On ch=1 n=b4 v=61
415614 On ch=1 n=b6 v=0
415620 Par ch=1 c=64 v=0
415654 Par ch=1 c=64 v=63
415662 On ch=1 n=d5 v=44
415684 Par ch=1 c=64 v=127
415686 On ch=1 n=f#4 v=0
415692 On ch=1 n=f#5 v=112
415736 On ch=1 n=d6 v=100
415736 On ch=1 n=a6 v=102
415738 On ch=1 n=b5 v=94
415742 On ch=1 n=d5 v=0
415752 On ch=1 n=f#5 v=0
415758 On ch=1 n=b4 v=0
415830 On ch=1 n=b5 v=0
415844 On ch=1 n=d6 v=0
415900 On ch=1 n=a6 v=0
415914 On ch=1 n=g#6 v=93
415960 Par ch=1 c=64 v=63
415972 On ch=1 n=c#3 v=81
416000 Par ch=1 c=64 v=127
416024 On ch=1 n=c#4 v=88
416060 On ch=1 n=c#3 v=0
416090 On ch=1 n=c#4 v=0
416196 On ch=1 n=g#6 v=0
416228 On ch=1 n=e5 v=82
416236 On ch=1 n=a6 v=100
416246 On ch=1 n=c#6 v=92
416268 On ch=1 n=e5 v=0
416470 On ch=1 n=a6 v=0
416486 On ch=1 n=g#6 v=84
416578 On ch=1 n=c#6 v=0
416622 On ch=1 n=g#6 v=0
416732 On ch=1 n=d5 v=109
416742 On ch=1 n=f#6 v=99
416946 On ch=1 n=e6 v=89
416990 On ch=1 n=f#6 v=0
417144 On ch=1 n=f#6 v=106
417230 On ch=1 n=e6 v=0
417308 On ch=1 n=e6 v=99
417382 On ch=1 n=f#6 v=0
417436 On ch=1 n=e6 v=0
417518 On ch=1 n=d6 v=101
417532 On ch=1 n=b5 v=78
417678 On ch=1 n=c#6 v=101
417682 On ch=1 n=b5 v=0
417732 On ch=1 n=d6 v=0
417842 On ch=1 n=c#6 v=0
417906 On ch=1 n=f#5 v=72
417908 Par ch=1 c=64 v=63
417910 On ch=1 n=g#5 v=95
417920 On ch=1 n=b5 v=86
417944 Par ch=1 c=64 v=127
417996 On ch=1 n=c#6 v=92
418028 On ch=1 n=b5 v=0
418094 On ch=1 n=b5 v=77
418110 On ch=1 n=c#6 v=0
418166 On ch=1 n=g#5 v=0
418214 On ch=1 n=f#5 v=0
418254 On ch=1 n=d5 v=0
418316 On ch=1 n=a5 v=78
418344 On ch=1 n=b5 v=0
418454 On ch=1 n=b5 v=76
418460 On ch=1 n=a5 v=0
418542 Par ch=1 c=67 v=127
418550 On ch=1 n=b5 v=0
418646 On ch=1 n=c#3 v=63
418656 Par ch=1 c=64 v=63
418662 Par ch=1 c=64 v=0
418726 On ch=1 n=c#4 v=63
418756 On ch=1 n=c#6 v=85
418762 On ch=1 n=e5 v=61
418766 Par ch=1 c=64 v=63
418778 On ch=1 n=c#3 v=0
418780 Par ch=1 c=64 v=127
418812 On ch=1 n=c#4 v=0
418838 On ch=1 n=e5 v=0
418888 On ch=1 n=c#6 v=0
419312 On ch=1 n=c#7 v=62
419330 On ch=1 n=g#6 v=55
419344 On ch=1 n=d7 v=78
419512 On ch=1 n=d7 v=0
419536 On ch=1 n=c#7 v=0
419550 On ch=1 n=a6 v=81
419754 On ch=1 n=f#6 v=71
419760 On ch=1 n=d6 v=71
419780 On ch=1 n=g#6 v=0
419798 On ch=1 n=a6 v=0
419818 On ch=1 n=f#6 v=0
419904 On ch=1 n=d6 v=0
419908 On ch=1 n=a5 v=72
420014 On ch=1 n=a5 v=0
420116 On ch=1 n=a5 v=76
420122 On ch=1 n=c#6 v=88
420132 On ch=1 n=g#5 v=77
420286 On ch=1 n=d6 v=85
420298 On ch=1 n=a5 v=0
420334 On ch=1 n=c#6 v=0
420438 On ch=1 n=d6 v=0
420500 On ch=1 n=b5 v=76
420504 On ch=1 n=f#5 v=82
420520 On ch=1 n=g#5 v=0
420520 On ch=1 n=a6 v=77
420568 On ch=1 n=b5 v=0
420574 On ch=1 n=f#5 v=0
420630 On ch=1 n=a6 v=0
420704 On ch=1 n=d7 v=83
420802 On ch=1 n=a4 v=62
420808 On ch=1 n=d7 v=0
420880 On ch=1 n=d5 v=65
420918 Par ch=1 c=64 v=63
420926 Par ch=1 c=64 v=127
420942 On ch=1 n=a4 v=0
420978 On ch=1 n=f#5 v=72
421028 On ch=1 n=a5 v=61
421046 On ch=1 n=f#6 v=62
421048 On ch=1 n=d6 v=50
421050 On ch=1 n=c#7 v=72
421070 On ch=1 n=f#5 v=0
421078 On ch=1 n=a5 v=0
421078 On ch=1 n=d5 v=0
421150 On ch=1 n=d6 v=0
421200 On ch=1 n=c#7 v=0
421250 On ch=1 n=b6 v=82
421332 On ch=1 n=f#6 v=0
421348 On ch=1 n=c#3 v=38
421366 Par ch=1 c=64 v=63
421374 Par ch=1 c=64 v=0
421432 On ch=1 n=c#4 v=88
421456 Par ch=1 c=64 v=63
421460 On ch=1 n=c#3 v=0
421470 Par ch=1 c=64 v=127
421488 On ch=1 n=c#4 v=0
421656 On ch=1 n=b6 v=0
421668 On ch=1 n=c#7 v=88
421678 On ch=1 n=e6 v=75
421694 On ch=1 n=g#5 v=86
421754 On ch=1 n=e6 v=0
421768 On ch=1 n=g#5 v=0
421786 On ch=1 n=c#7 v=0
422258 On ch=1 n=c#7 v=80
422268 On ch=1 n=f#6 v=67
422270 On ch=1 n=b6 v=65
422374 On ch=1 n=b6 v=0
422412 On ch=1 n=f#6 v=0
422422 On ch=1 n=c#7 v=0
422460 On ch=1 n=g#6 v=79
422642 On ch=1 n=a6 v=76
422644 On ch=1 n=g#6 v=0
422644 On ch=1 n=c#6 v=99
422656 On ch=1 n=e6 v=68
422686 On ch=1 n=a6 v=0
422712 On ch=1 n=e6 v=0
422770 On ch=1 n=c#6 v=0
422800 On ch=1 n=g#5 v=90
422914 On ch=1 n=g#5 v=0
423008 Par ch=1 c=64 v=63
423010 On ch=1 n=f#5 v=86
423012 On ch=1 n=b5 v=81
423022 On ch=1 n=g#5 v=88
423026 Par ch=1 c=64 v=0
423092 Par ch=1 c=64 v=63
423132 Par ch=1 c=64 v=127
423172 On ch=1 n=c#6 v=96
423178 On ch=1 n=g#5 v=0
423198 On ch=1 n=b5 v=0
423328 On ch=1 n=f#5 v=0
423336 On ch=1 n=c#6 v=0
423376 On ch=1 n=a5 v=70
423380 On ch=1 n=g#6 v=80
423400 On ch=1 n=e5 v=42
423430 On ch=1 n=a5 v=0
423450 On ch=1 n=e5 v=0
423478 On ch=1 n=g#6 v=0
423550 On ch=1 n=c#7 v=80
423646 On ch=1 n=c#7 v=0
423650 On ch=1 n=g#4 v=74
423676 Par ch=1 c=64 v=63
423690 Par ch=1 c=64 v=0
423696 On ch=1 n=c#5 v=73
423736 Par ch=1 c=64 v=63
423770 Par ch=1 c=64 v=127
423772 On ch=1 n=e5 v=38
423772 On ch=1 n=g#5 v=87
423812 On ch=1 n=g#5 v=0
423824 On ch=1 n=e5 v=0
423826 On ch=1 n=b6 v=75
423842 On ch=1 n=c#6 v=61
423844 On ch=1 n=c#5 v=0
423856 On ch=1 n=e6 v=64
423868 On ch=1 n=g#4 v=0
423930 On ch=1 n=c#6 v=0
424024 On ch=1 n=a6 v=83
424030 On ch=1 n=b6 v=0
424056 On ch=1 n=e6 v=0
424062 Par ch=1 c=64 v=63
424070 Par ch=1 c=64 v=0
424084 On ch=1 n=c#3 v=58
424138 Par ch=1 c=64 v=63
424160 On ch=1 n=c#4 v=81
424160 Par ch=1 c=64 v=127
424182 On ch=1 n=c#3 v=0
424216 On ch=1 n=c#4 v=0
424374 On ch=1 n=a6 v=0
424414 On ch=1 n=b6 v=75
424418 On ch=1 n=f#5 v=74
424428 On ch=1 n=d6 v=55
424486 On ch=1 n=d6 v=0
424498 On ch=1 n=f#5 v=0
424512 On ch=1 n=b6 v=0
425068 On ch=1 n=e6 v=59
425074 On ch=1 n=a6 v=44
425074 On ch=1 n=b6 v=68
425172 On ch=1 n=a6 v=0
425178 On ch=1 n=e6 v=0
425190 On ch=1 n=b6 v=0
425334 On ch=1 n=f#6 v=89
425442 On ch=1 n=f#6 v=0
425524 On ch=1 n=g#6 v=80
425540 On ch=1 n=b5 v=65
425552 On ch=1 n=d6 v=60
425584 On ch=1 n=g#6 v=0
425652 On ch=1 n=d6 v=0
425658 On ch=1 n=b5 v=0
425700 On ch=1 n=f#5 v=97
425798 On ch=1 n=f#5 v=0
425904 On ch=1 n=a5 v=67
425908 On ch=1 n=f#5 v=93
426060 On ch=1 n=f#5 v=0
426070 On ch=1 n=b5 v=92
426234 On ch=1 n=b5 v=0
426254 On ch=1 n=g#5 v=84
426280 On ch=1 n=d5 v=64
426282 On ch=1 n=f#6 v=92
426286 On ch=1 n=a5 v=0
426336 On ch=1 n=d5 v=0
426338 On ch=1 n=g#5 v=0
426388 On ch=1 n=f#6 v=0
426458 On ch=1 n=b6 v=84
426546 On ch=1 n=b6 v=0
426578 On ch=1 n=f#4 v=66
426636 Par ch=1 c=64 v=63
426642 On ch=1 n=b4 v=33
426648 Par ch=1 c=64 v=0
426664 On ch=1 n=d5 v=55
426696 On ch=1 n=f#5 v=87
426706 Par ch=1 c=64 v=63
426718 On ch=1 n=d6 v=64
426722 On ch=1 n=a6 v=84
426732 On ch=1 n=b5 v=55
426740 Par ch=1 c=64 v=127
426766 On ch=1 n=f#5 v=0
426774 On ch=1 n=d5 v=0
426790 On ch=1 n=b4 v=0
426832 On ch=1 n=f#4 v=0
426858 On ch=1 n=b5 v=0
426876 On ch=1 n=a6 v=0
426898 On ch=1 n=d6 v=0
426932 On ch=1 n=g#6 v=91
427054 On ch=1 n=c#3 v=73
427080 Par ch=1 c=64 v=63
427090 Par ch=1 c=64 v=0
427126 Par ch=1 c=64 v=63
427148 Par ch=1 c=64 v=127
427160 On ch=1 n=c#4 v=73
427170 On ch=1 n=g#6 v=0
427172 On ch=1 n=c#3 v=0
427208 On ch=1 n=c#4 v=0
427362 On ch=1 n=a6 v=78
427380 On ch=1 n=c#6 v=63
427390 On ch=1 n=e5 v=68
427638 On ch=1 n=g#6 v=94
427658 On ch=1 n=a6 v=0
427728 On ch=1 n=c#6 v=0
427768 On ch=1 n=g#6 v=0
427858 On ch=1 n=d5 v=76
427886 On ch=1 n=f#6 v=92
427914 On ch=1 n=e5 v=0
427918 On ch=1 n=c#6 v=64
428082 On ch=1 n=e6 v=91
428096 On ch=1 n=f#6 v=0
428268 On ch=1 n=f#6 v=96
428318 On ch=1 n=e6 v=0
428346 On ch=1 n=c#6 v=0
428436 On ch=1 n=e6 v=97
428442 On ch=1 n=f#6 v=0
428546 On ch=1 n=e6 v=0
428626 On ch=1 n=d6 v=91
428648 On ch=1 n=b5 v=76
428790 On ch=1 n=c#6 v=108
428838 On ch=1 n=d6 v=0
428852 On ch=1 n=b5 v=0
428998 On ch=1 n=c#6 v=0
429064 On ch=1 n=f#5 v=61
429066 On ch=1 n=g#5 v=76
429072 Par ch=1 c=64 v=63
429076 On ch=1 n=b5 v=72
429096 Par ch=1 c=64 v=0
429112 Par ch=1 c=64 v=63
429148 On ch=1 n=c#6 v=98
429158 Par ch=1 c=64 v=127
429168 On ch=1 n=b5 v=0
429238 On ch=1 n=b5 v=73
429248 On ch=1 n=c#6 v=0
429408 On ch=1 n=g#5 v=0
429522 On ch=1 n=a5 v=75
429552 On ch=1 n=b5 v=0
429690 On ch=1 n=b5 v=60
429706 On ch=1 n=a5 v=0
429968 Par ch=1 c=64 v=63
429978 On ch=1 n=c#6 v=67
429986 On ch=1 n=b5 v=0
429986 On ch=1 n=c#5 v=46
429988 Par ch=1 c=64 v=0
429994 On ch=1 n=e5 v=41
430002 On ch=1 n=g#5 v=47
430072 Par ch=1 c=64 v=63
430084 On ch=1 n=f#5 v=0
430096 On ch=1 n=d5 v=0
430098 Par ch=1 c=64 v=127
430158 On ch=1 n=c#6 v=0
430162 On ch=1 n=g#5 v=0
430164 On ch=1 n=e5 v=0
430174 On ch=1 n=c#5 v=0
430560 Par ch=1 c=67 v=0
430638 Par ch=1 c=64 v=63
430650 Par ch=1 c=64 v=0
430686 On ch=1 n=c#5 v=78
430700 On ch=1 n=a3 v=55
430708 On ch=1 n=f#4 v=51
430724 On ch=1 n=a4 v=46
430744 Par ch=1 c=64 v=63
430762 Par ch=1 c=64 v=127
430872 On ch=1 n=f#4 v=0
431056 On ch=1 n=a4 v=0
431074 Par ch=1 c=64 v=63
431092 Par ch=1 c=64 v=0
431130 On ch=1 n=d4 v=50
431142 On ch=1 n=e4 v=49
431144 On ch=1 n=g4 v=54
431152 Par ch=1 c=64 v=63
431182 Par ch=1 c=64 v=127
431194 On ch=1 n=a3 v=0
431230 On ch=1 n=e4 v=0
431236 On ch=1 n=d4 v=0
431238 On ch=1 n=c#5 v=0
431266 On ch=1 n=g4 v=0
431318 On ch=1 n=a4 v=50
431344 Par ch=1 c=64 v=63
431360 Par ch=1 c=64 v=0
431468 Par ch=1 c=64 v=63
431484 Par ch=1 c=64 v=127
431496 On ch=1 n=a4 v=0
431514 On ch=1 n=a3 v=72
431534 On ch=1 n=b4 v=68
431546 On ch=1 n=e4 v=24
431552 On ch=1 n=g4 v=32
431578 On ch=1 n=a3 v=0
431626 On ch=1 n=e4 v=0
431634 On ch=1 n=g4 v=0
431690 On ch=1 n=c#5 v=92
431710 Par ch=1 c=64 v=63
431722 Par ch=1 c=64 v=0
431726 On ch=1 n=b4 v=0
431808 On ch=1 n=c#5 v=0
431846 Par ch=1 c=64 v=63
431858 Par ch=1 c=64 v=127
431884 On ch=1 n=c#3 v=75
431886 On ch=1 n=g#3 v=79
431900 On ch=1 n=c#5 v=85
431902 On ch=1 n=g#4 v=84
431912 On ch=1 n=e4 v=55
431936 On ch=1 n=c#3 v=0
431954 On ch=1 n=e4 v=0
431954 On ch=1 n=g#3 v=0
431984 On ch=1 n=g#4 v=0
431984 On ch=1 n=c#5 v=0
432018 Par ch=1 c=64 v=63
432032 Par ch=1 c=64 v=0
432360 On ch=1 n=d4 v=72
432362 On ch=1 n=b5 v=103
432366 Par ch=1 c=64 v=127
432372 On ch=1 n=a5 v=90
432382 On ch=1 n=d5 v=82
432384 On ch=1 n=f#5 v=94
432424 On ch=1 n=f#5 v=0
432432 On ch=1 n=d5 v=0
432464 On ch=1 n=a5 v=0
432768 On ch=1 n=g5 v=87
432770 Par ch=1 c=64 v=63
432772 On ch=1 n=g4 v=78
432774 On ch=1 n=c5 v=84
432774 On ch=1 n=e5 v=79
432782 Par ch=1 c=64 v=0
432788 On ch=1 n=d4 v=0
432806 On ch=1 n=b5 v=0
432818 On ch=1 n=c5 v=0
432830 On ch=1 n=g4 v=0
432842 On ch=1 n=e5 v=0
432862 On ch=1 n=g5 v=0
432934 On ch=1 n=g5 v=60
433010 On ch=1 n=g5 v=0
433142 On ch=1 n=a5 v=102
433142 On ch=1 n=d4 v=88
433148 Par ch=1 c=64 v=63
433150 Par ch=1 c=64 v=127
433160 On ch=1 n=f#5 v=80
433162 On ch=1 n=c5 v=65
433164 On ch=1 n=e5 v=66
433202 On ch=1 n=c5 v=0
433210 On ch=1 n=e5 v=0
433214 On ch=1 n=d4 v=0
433226 On ch=1 n=f#5 v=0
433242 On ch=1 n=a5 v=0
433322 On ch=1 n=b5 v=102
433370 Par ch=1 c=64 v=63
433378 Par ch=1 c=64 v=0
433442 On ch=1 n=b5 v=0
433492 Par ch=1 c=64 v=63
433502 Par ch=1 c=64 v=127
433514 On ch=1 n=b3 v=71
433518 On ch=1 n=f#4 v=92
433526 On ch=1 n=b4 v=84
433528 On ch=1 n=b5 v=107
433534 On ch=1 n=d5 v=100
433536 On ch=1 n=f#5 v=101
433562 On ch=1 n=b4 v=0
433564 On ch=1 n=f#4 v=0
433576 On ch=1 n=d5 v=0
433580 On ch=1 n=f#5 v=0
433592 On ch=1 n=b5 v=0
433606 On ch=1 n=b3 v=0
433664 Par ch=1 c=64 v=63
433674 Par ch=1 c=64 v=0
433970 On ch=1 n=c#5 v=90
433974 On ch=1 n=a3 v=72
433974 Par ch=1 c=64 v=63
433984 Par ch=1 c=64 v=127
433992 On ch=1 n=f#4 v=55
434006 On ch=1 n=a4 v=52
434112 On ch=1 n=f#4 v=0
434322 On ch=1 n=a4 v=0
434346 On ch=1 n=d4 v=87
434352 Par ch=1 c=64 v=63
434356 On ch=1 n=g4 v=77
434360 Par ch=1 c=64 v=0
434360 On ch=1 n=e4 v=79
434406 On ch=1 n=a3 v=0
434414 On ch=1 n=d4 v=0
434426 On ch=1 n=e4 v=0
434434 On ch=1 n=c#5 v=0
434456 On ch=1 n=g4 v=0
434506 On ch=1 n=a4 v=89
434616 On ch=1 n=a4 v=0
434694 On ch=1 n=b4 v=106
434708 On ch=1 n=g4 v=96
434716 On ch=1 n=a3 v=87
434718 On ch=1 n=e4 v=84
434758 On ch=1 n=e4 v=0
434772 On ch=1 n=a3 v=0
434788 On ch=1 n=g4 v=0
434812 On ch=1 n=b4 v=0
434868 On ch=1 n=c#5 v=92
434976 On ch=1 n=c#5 v=0
435086 On ch=1 n=c#5 v=94
435088 On ch=1 n=c#3 v=72
435090 On ch=1 n=g#3 v=74
435094 On ch=1 n=g#4 v=85
435098 On ch=1 n=e4 v=65
435102 Par ch=1 c=64 v=63
435106 Par ch=1 c=64 v=127
435132 On ch=1 n=c#3 v=0
435136 On ch=1 n=g#3 v=0
435140 On ch=1 n=e4 v=0
435166 On ch=1 n=g#4 v=0
435182 On ch=1 n=c#5 v=0
435280 Par ch=1 c=64 v=63
435294 Par ch=1 c=64 v=0
435502 Par ch=1 c=64 v=63
435508 On ch=1 n=b5 v=112
435510 Par ch=1 c=64 v=127
435516 On ch=1 n=d4 v=109
435516 On ch=1 n=a5 v=99
435520 On ch=1 n=f#5 v=112
435522 On ch=1 n=d5 v=108
435576 On ch=1 n=d5 v=0
435594 On ch=1 n=f#5 v=0
435640 On ch=1 n=a5 v=0
435876 Par ch=1 c=64 v=63
435884 Par ch=1 c=64 v=0
435890 On ch=1 n=g5 v=91
435898 On ch=1 n=g4 v=90
435900 On ch=1 n=c5 v=90
435910 On ch=1 n=e5 v=82
435914 On ch=1 n=d4 v=0
435932 On ch=1 n=b5 v=0
435960 On ch=1 n=c5 v=0
435968 On ch=1 n=g4 v=0
435970 On ch=1 n=e5 v=0
435992 On ch=1 n=g5 v=0
436066 On ch=1 n=g5 v=103
436146 On ch=1 n=g5 v=0
436284 On ch=1 n=d4 v=108
436288 On ch=1 n=a5 v=109
436292 On ch=1 n=e5 v=104
436296 On ch=1 n=c5 v=101
436324 On ch=1 n=g5 v=53
436348 On ch=1 n=c5 v=0
436374 On ch=1 n=e5 v=0
436374 On ch=1 n=d4 v=0
436380 On ch=1 n=g5 v=0
436388 On ch=1 n=a5 v=0
436488 On ch=1 n=b5 v=113
436598 On ch=1 n=b5 v=0
436684 On ch=1 n=b3 v=71
436708 On ch=1 n=f#4 v=107
436712 On ch=1 n=b5 v=113
436714 On ch=1 n=f#5 v=113
436718 On ch=1 n=b4 v=101
436720 On ch=1 n=d5 v=111
436746 Par ch=1 c=64 v=63
436748 Par ch=1 c=64 v=127
436750 On ch=1 n=b4 v=0
436766 On ch=1 n=f#4 v=0
436770 On ch=1 n=f#5 v=0
436772 On ch=1 n=d5 v=0
436784 On ch=1 n=b5 v=0
436790 On ch=1 n=b3 v=0
436856 Par ch=1 c=64 v=63
436924 Par ch=1 c=64 v=0
437218 Par ch=1 c=64 v=63
437220 On ch=1 n=b1 v=100
437222 On ch=1 n=f#5 v=106
437226 On ch=1 n=b2 v=80
437232 On ch=1 n=d5 v=92
437240 On ch=1 n=b4 v=79
437240 Par ch=1 c=64 v=127
437286 On ch=1 n=b2 v=0
437286 On ch=1 n=b1 v=0
437442 On ch=1 n=b4 v=0
437476 Par ch=1 c=64 v=63
437500 Par ch=1 c=64 v=0
437532 On ch=1 n=c#3 v=95
437536 On ch=1 n=c#2 v=89
437610 On ch=1 n=c#3 v=0
437654 On ch=1 n=c#2 v=0
437722 Par ch=1 c=64 v=63
437760 Par ch=1 c=64 v=127
437762 On ch=1 n=c#5 v=96
437764 On ch=1 n=a4 v=83
437768 On ch=1 n=d3 v=76
437782 On ch=1 n=d2 v=48
437790 On ch=1 n=d5 v=0
437790 Par ch=1 c=64 v=63
437808 On ch=1 n=a4 v=0
437824 On ch=1 n=d2 v=0
437824 On ch=1 n=f#5 v=0
437824 Par ch=1 c=64 v=0
437826 On ch=1 n=d3 v=0
437836 On ch=1 n=c#5 v=0
437962 On ch=1 n=e3 v=103
437964 On ch=1 n=e2 v=107
438016 On ch=1 n=e2 v=0
438024 On ch=1 n=e3 v=0
438140 Par ch=1 c=64 v=63
438164 On ch=1 n=f#2 v=97
438164 On ch=1 n=a5 v=109
438166 On ch=1 n=f#3 v=101
438168 On ch=1 n=f#5 v=107
438168 Par ch=1 c=64 v=127
438170 On ch=1 n=d5 v=107
438230 On ch=1 n=f#3 v=0
438242 On ch=1 n=f#2 v=0
438254 On ch=1 n=d5 v=0
438312 On ch=1 n=f#5 v=0
438324 Par ch=1 c=64 v=63
438344 Par ch=1 c=64 v=0
438348 On ch=1 n=g3 v=93
438354 On ch=1 n=g2 v=89
438406 On ch=1 n=g2 v=0
438418 On ch=1 n=g3 v=0
438486 Par ch=1 c=64 v=63
438524 Par ch=1 c=64 v=127
438544 On ch=1 n=e5 v=81
438546 On ch=1 n=c#5 v=76
438550 On ch=1 n=a3 v=103
438554 On ch=1 n=a2 v=107
438570 On ch=1 n=a5 v=0
438594 On ch=1 n=c#5 v=0
438604 On ch=1 n=a2 v=0
438612 On ch=1 n=a3 v=0
438620 On ch=1 n=e5 v=0
438716 On ch=1 n=b3 v=92
438720 On ch=1 n=b2 v=99
438748 Par ch=1 c=64 v=63
438754 On ch=1 n=b2 v=0
438780 On ch=1 n=b3 v=0
438798 Par ch=1 c=64 v=0
438920 On ch=1 n=c#3 v=109
438920 On ch=1 n=c#4 v=116
438922 On ch=1 n=c#6 v=114
438928 On ch=1 n=f#5 v=109
438930 On ch=1 n=a5 v=97
438936 Par ch=1 c=64 v=63
438958 Par ch=1 c=64 v=127
438994 On ch=1 n=c#3 v=0
438996 On ch=1 n=c#4 v=0
439066 On ch=1 n=f#5 v=0
439088 On ch=1 n=d4 v=100
439090 On ch=1 n=d3 v=97
439110 Par ch=1 c=64 v=63
439152 On ch=1 n=d3 v=0
439158 On ch=1 n=d4 v=0
439192 Par ch=1 c=64 v=127
439246 On ch=1 n=a5 v=0
439286 On ch=1 n=g5 v=83
439292 On ch=1 n=e4 v=102
439292 On ch=1 n=e3 v=102
439294 On ch=1 n=e5 v=73
439334 On ch=1 n=e5 v=0
439346 On ch=1 n=e3 v=0
439346 On ch=1 n=c#6 v=0
439348 On ch=1 n=g5 v=0
439350 On ch=1 n=e4 v=0
439474 On ch=1 n=f#4 v=119
439480 On ch=1 n=f#3 v=112
439532 On ch=1 n=f#3 v=0
439542 On ch=1 n=f#4 v=0
439542 Par ch=1 c=64 v=63
439554 Par ch=1 c=64 v=0
439660 On ch=1 n=f#6 v=110
439666 On ch=1 n=d6 v=100
439668 On ch=1 n=b5 v=99
439672 Par ch=1 c=64 v=63
439678 On ch=1 n=g4 v=107
439680 On ch=1 n=g3 v=103
439688 Par ch=1 c=64 v=127
439744 On ch=1 n=g3 v=0
439746 On ch=1 n=g4 v=0
439800 On ch=1 n=b5 v=0
439846 On ch=1 n=a4 v=103
439850 On ch=1 n=a3 v=103
439914 On ch=1 n=a3 v=0
439918 On ch=1 n=a4 v=0
440000 Par ch=1 c=64 v=63
440024 On ch=1 n=d6 v=0
440042 On ch=1 n=c#6 v=104
440050 On ch=1 n=a5 v=97
440050 On ch=1 n=b4 v=108
440052 On ch=1 n=b3 v=109
440066 Par ch=1 c=64 v=127
440114 On ch=1 n=b3 v=0
440116 On ch=1 n=b4 v=0
440164 On ch=1 n=a5 v=0
440180 On ch=1 n=c#6 v=0
440246 On ch=1 n=c#5 v=116
440250 On ch=1 n=c#4 v=115
440282 On ch=1 n=f#6 v=0
440312 On ch=1 n=c#4 v=0
440318 On ch=1 n=c#5 v=0
440408 Par ch=1 c=64 v=63
440418 Par ch=1 c=64 v=0
440436 On ch=1 n=f#6 v=106
440438 On ch=1 n=b5 v=102
440442 On ch=1 n=d6 v=94
440446 On ch=1 n=g5 v=102
440462 On ch=1 n=d5 v=107
440464 On ch=1 n=d4 v=111
440492 Par ch=1 c=64 v=63
440514 Par ch=1 c=64 v=127
440524 On ch=1 n=d5 v=0
440528 On ch=1 n=d4 v=0
440632 On ch=1 n=g5 v=0
440654 On ch=1 n=d6 v=0
440658 On ch=1 n=e5 v=112
440660 On ch=1 n=b5 v=0
440660 On ch=1 n=e4 v=108
440724 On ch=1 n=e4 v=0
440738 On ch=1 n=e5 v=0
440934 Par ch=1 c=64 v=63
440942 Par ch=1 c=64 v=0
440950 On ch=1 n=c#6 v=118
440952 On ch=1 n=a5 v=109
440958 On ch=1 n=f#5 v=120
440960 On ch=1 n=f#4 v=114
441040 Par ch=1 c=64 v=63
441050 Par ch=1 c=64 v=127
441146 On ch=1 n=a5 v=0
441158 On ch=1 n=c#6 v=0
441164 On ch=1 n=f#6 v=0
441386 Par ch=1 c=64 v=63
441392 Par ch=1 c=64 v=0
441528 On ch=1 n=a6 v=124
441570 Par ch=1 c=64 v=127
441620 On ch=1 n=f#5 v=0
441654 On ch=1 n=f#4 v=0
441996 On ch=1 n=a6 v=0
441998 On ch=1 n=b4 v=118
442002 On ch=1 n=b3 v=112
442004 On ch=1 n=d6 v=102
442008 On ch=1 n=a5 v=90
442136 On ch=1 n=b3 v=0
442162 On ch=1 n=a5 v=0
442188 On ch=1 n=b4 v=0
442232 On ch=1 n=g6 v=114
442298 On ch=1 n=d6 v=0
442422 On ch=1 n=g6 v=0
442510 On ch=1 n=g5 v=114
442510 On ch=1 n=f#6 v=113
442516 On ch=1 n=e5 v=112
442520 On ch=1 n=e4 v=103
442532 On ch=1 n=d6 v=92
442550 Par ch=1 c=64 v=63
442558 Par ch=1 c=64 v=0
442568 On ch=1 n=g5 v=0
442598 Par ch=1 c=64 v=63
442624 Par ch=1 c=64 v=127
442664 On ch=1 n=e5 v=0
442714 On ch=1 n=d6 v=0
442718 On ch=1 n=e4 v=0
442728 On ch=1 n=f#6 v=0
442740 On ch=1 n=e6 v=94
442924 Par ch=1 c=64 v=63
442930 Par ch=1 c=64 v=0
442978 On ch=1 n=f#6 v=113
442980 On ch=1 n=f#3 v=99
442986 On ch=1 n=a5 v=100
442988 On ch=1 n=f#4 v=109
442994 On ch=1 n=c#6 v=93
442996 Par ch=1 c=64 v=63
443018 Par ch=1 c=64 v=127
443038 On ch=1 n=e6 v=0
443046 On ch=1 n=f#3 v=0
443078 On ch=1 n=f#4 v=0
443124 On ch=1 n=a5 v=0
443186 On ch=1 n=g6 v=110
443234 On ch=1 n=c#6 v=0
443242 On ch=1 n=f#6 v=0
443338 On ch=1 n=g6 v=0
443374 On ch=1 n=b4 v=84
443390 On ch=1 n=d5 v=79
443394 On ch=1 n=f5 v=96
443400 On ch=1 n=f#5 v=112
443404 On ch=1 n=a6 v=107
443482 On ch=1 n=f5 v=0
443484 On ch=1 n=a6 v=0
443496 On ch=1 n=d5 v=0
443514 On ch=1 n=b4 v=0
443566 On ch=1 n=b6 v=111
443588 On ch=1 n=f#5 v=0
443652 On ch=1 n=b6 v=0
443754 On ch=1 n=a4 v=79
443768 On ch=1 n=c#5 v=105
443768 On ch=1 n=f#5 v=109
443770 On ch=1 n=c#7 v=120
443826 Par ch=1 c=64 v=63
443834 On ch=1 n=c#5 v=0
443836 Par ch=1 c=64 v=0
443838 On ch=1 n=a4 v=0
443850 On ch=1 n=f#5 v=0
443856 On ch=1 n=c#7 v=0
444168 On ch=1 n=c#7 v=121
444170 On ch=1 n=f#5 v=115
444188 On ch=1 n=b4 v=76
444196 On ch=1 n=g4 v=29
444196 Par ch=1 c=64 v=63
444198 Par ch=1 c=64 v=127
444202 On ch=1 n=d5 v=86
444468 On ch=1 n=b4 v=0
444488 On ch=1 n=g4 v=0
444500 On ch=1 n=d5 v=0
444556 On ch=1 n=f#5 v=0
444630 On ch=1 n=f#5 v=101
444640 On ch=1 n=a4 v=78
444644 On ch=1 n=c#5 v=103
444644 On ch=1 n=f#4 v=96
444734 Par ch=1 c=64 v=63
444744 Par ch=1 c=64 v=0
444830 Par ch=1 c=64 v=63
444832 On ch=1 n=c#7 v=0
444850 Par ch=1 c=64 v=127
444874 On ch=1 n=a6 v=91
444914 On ch=1 n=f#4 v=0
444920 On ch=1 n=a4 v=0
444956 On ch=1 n=c#5 v=0
444972 On ch=1 n=f#5 v=0
445118 On ch=1 n=f#6 v=108
445128 On ch=1 n=a5 v=89
445162 On ch=1 n=a6 v=0
445304 On ch=1 n=c#6 v=109
445366 On ch=1 n=f#6 v=0
445484 On ch=1 n=b4 v=72
445486 On ch=1 n=c#6 v=0
445488 On ch=1 n=d5 v=82
445506 On ch=1 n=d6 v=92
445582 On ch=1 n=a5 v=0
445596 Par ch=1 c=64 v=63
445606 Par ch=1 c=64 v=0
445694 Par ch=1 c=64 v=63
445706 On ch=1 n=g#5 v=88
445722 Par ch=1 c=64 v=127
445724 On ch=1 n=d5 v=0
445890 On ch=1 n=f#5 v=99
445976 On ch=1 n=g#5 v=0
446046 On ch=1 n=e5 v=100
446090 On ch=1 n=f#5 v=0
446252 On ch=1 n=f#5 v=115
446282 Par ch=1 c=64 v=63
446296 Par ch=1 c=64 v=0
446322 On ch=1 n=e5 v=0
446378 On ch=1 n=d6 v=0
446420 On ch=1 n=e6 v=114
446430 On ch=1 n=f#5 v=0
446618 On ch=1 n=e6 v=0
446628 On ch=1 n=g#5 v=106
446636 On ch=1 n=f#6 v=112
446650 Par ch=1 c=64 v=63
446652 On ch=1 n=b4 v=0
446652 Par ch=1 c=64 v=127
446708 On ch=1 n=g#5 v=0
446794 On ch=1 n=g#6 v=113
446862 On ch=1 n=f#6 v=0
447044 On ch=1 n=e4 v=92
447050 On ch=1 n=d5 v=92
447056 On ch=1 n=b6 v=89
447058 On ch=1 n=g#6 v=0
447126 On ch=1 n=d5 v=0
447128 On ch=1 n=e4 v=0
447258 On ch=1 n=b6 v=0
447258 On ch=1 n=g#6 v=94
447478 On ch=1 n=g#5 v=88
447486 On ch=1 n=e6 v=88
447502 On ch=1 n=g#6 v=0
447648 On ch=1 n=b5 v=94
447664 On ch=1 n=e6 v=0
447828 On ch=1 n=c#5 v=71
447834 On ch=1 n=a4 v=54
447878 On ch=1 n=c#6 v=101
447924 On ch=1 n=b5 v=0
447938 Par ch=1 c=64 v=63
447948 Par ch=1 c=64 v=0
447978 On ch=1 n=g#5 v=0
448034 Par ch=1 c=64 v=63
448062 Par ch=1 c=64 v=127
448098 On ch=1 n=f#5 v=92
448262 On ch=1 n=c#5 v=0
448272 On ch=1 n=e5 v=91
448288 On ch=1 n=f#5 v=0
448368 On ch=1 n=a4 v=0
448426 On ch=1 n=a4 v=17
448434 On ch=1 n=d5 v=101
448482 On ch=1 n=e5 v=0
448616 On ch=1 n=e5 v=109
448678 On ch=1 n=d5 v=0
448724 On ch=1 n=c#6 v=0
448734 Par ch=1 c=64 v=63
448748 Par ch=1 c=64 v=0
448760 On ch=1 n=a4 v=0
448786 On ch=1 n=d6 v=101
448794 On ch=1 n=e5 v=0
448930 Par ch=1 c=64 v=63
448942 Par ch=1 c=64 v=127
448990 On ch=1 n=f#5 v=105
449002 On ch=1 n=e6 v=108
449014 On ch=1 n=d6 v=0
449078 On ch=1 n=f#5 v=0
449158 On ch=1 n=f#6 v=107
449212 On ch=1 n=e6 v=0
449360 On ch=1 n=d4 v=82
449370 On ch=1 n=a6 v=94
449372 On ch=1 n=c#5 v=89
449414 On ch=1 n=f#6 v=0
449432 On ch=1 n=d4 v=0
449458 On ch=1 n=c#5 v=0
449538 On ch=1 n=f#6 v=97
449550 On ch=1 n=a6 v=0
449742 On ch=1 n=f#5 v=100
449744 On ch=1 n=d6 v=90
449776 On ch=1 n=f#6 v=0
449908 On ch=1 n=a5 v=89
449910 On ch=1 n=d6 v=0
450128 On ch=1 n=b5 v=91
450140 On ch=1 n=g#4 v=56
450144 On ch=1 n=b4 v=63
450164 On ch=1 n=a5 v=0
450170 Par ch=1 c=64 v=63
450182 Par ch=1 c=64 v=0
450258 On ch=1 n=f#5 v=0
450282 Par ch=1 c=64 v=63
450316 Par ch=1 c=64 v=127
450382 On ch=1 n=e5 v=84
450404 On ch=1 n=b4 v=0
450584 On ch=1 n=d5 v=91
450630 On ch=1 n=e5 v=0
450732 On ch=1 n=c#5 v=106
450754 On ch=1 n=b5 v=0
450778 On ch=1 n=d5 v=0
450930 Par ch=1 c=64 v=63
450944 Par ch=1 c=64 v=0
450952 On ch=1 n=d5 v=107
450988 On ch=1 n=c#5 v=0
450988 Par ch=1 c=64 v=63
451026 Par ch=1 c=64 v=127
451036 On ch=1 n=g#4 v=0
451068 On ch=1 n=d5 v=0
451152 On ch=1 n=c#6 v=110
451264 Par ch=1 c=64 v=63
451292 Par ch=1 c=64 v=0
451360 Par ch=1 c=64 v=63
451400 Par ch=1 c=64 v=127
451404 On ch=1 n=g#5 v=108
451414 On ch=1 n=b5 v=94
451414 On ch=1 n=d6 v=92
451418 On ch=1 n=g#4 v=88
451422 On ch=1 n=f#5 v=103
451464 On ch=1 n=g#5 v=0
451482 On ch=1 n=g#4 v=0
451544 On ch=1 n=f#5 v=0
451554 On ch=1 n=b5 v=0
451566 On ch=1 n=c#6 v=0
451594 On ch=1 n=d6 v=0
451620 On ch=1 n=e6 v=107
451748 On ch=1 n=e6 v=0
451870 Par ch=1 c=64 v=63
451880 On ch=1 n=a4 v=103
451880 Par ch=1 c=64 v=0
451882 On ch=1 n=a3 v=102
451892 On ch=1 n=f#6 v=112
451894 On ch=1 n=f#5 v=113
451900 On ch=1 n=c#6 v=99
451948 Par ch=1 c=64 v=63
451968 On ch=1 n=f#5 v=0
451968 Par ch=1 c=64 v=127
452026 On ch=1 n=a3 v=0
452040 On ch=1 n=c#6 v=0
452044 On ch=1 n=a4 v=0
452092 On ch=1 n=f#6 v=0
452190 On ch=1 n=e6 v=92
452386 On ch=1 n=f#6 v=113
452438 On ch=1 n=e6 v=0
452560 On ch=1 n=g#6 v=107
452606 On ch=1 n=f#6 v=0
452686 Par ch=1 c=64 v=63
452688 On ch=1 n=g#6 v=0
452700 Par ch=1 c=64 v=0
452740 On ch=1 n=a6 v=112
452912 Par ch=1 c=64 v=63
452918 On ch=1 n=f#6 v=107
452922 On ch=1 n=g#6 v=115
452930 On ch=1 n=d6 v=84
452934 Par ch=1 c=64 v=127
452976 On ch=1 n=a6 v=0
453042 On ch=1 n=f#6 v=0
453094 On ch=1 n=d6 v=0
453096 On ch=1 n=g#6 v=0
453122 On ch=1 n=a6 v=111
453134 On ch=1 n=c#6 v=97
453142 On ch=1 n=e6 v=97
453238 On ch=1 n=a6 v=0
453260 On ch=1 n=e6 v=0
453274 On ch=1 n=c#6 v=0
453284 Par ch=1 c=64 v=63
453300 Par ch=1 c=64 v=0
453304 On ch=1 n=d6 v=96
453308 On ch=1 n=b5 v=91
453318 On ch=1 n=b6 v=97
453332 On ch=1 n=f#6 v=103
453434 Par ch=1 c=64 v=63
453448 On ch=1 n=f#6 v=0
453462 Par ch=1 c=64 v=127
453468 On ch=1 n=b6 v=0
453472 On ch=1 n=b5 v=0
453500 On ch=1 n=a5 v=89
453502 On ch=1 n=c#6 v=105
453508 On ch=1 n=c#7 v=114
453520 On ch=1 n=d6 v=0
453588 On ch=1 n=a5 v=0
453590 On ch=1 n=c#6 v=0
453624 On ch=1 n=c#7 v=0
453688 On ch=1 n=c#7 v=97
453844 Par ch=1 c=64 v=63
453856 On ch=1 n=c#7 v=0
453900 On ch=1 n=g#6 v=116
453902 On ch=1 n=g#5 v=105
453904 Par ch=1 c=64 v=127
453906 On ch=1 n=d7 v=108
453906 On ch=1 n=b6 v=99
453914 On ch=1 n=f#6 v=100
453952 On ch=1 n=f#6 v=0
453956 On ch=1 n=g#6 v=0
453966 On ch=1 n=g#5 v=0
453972 On ch=1 n=b6 v=0
453992 On ch=1 n=d7 v=0
454084 On ch=1 n=e7 v=108
454176 On ch=1 n=e7 v=0
454254 Par ch=1 c=64 v=63
454268 Par ch=1 c=64 v=0
454276 On ch=1 n=a5 v=112
454278 On ch=1 n=a4 v=103
454294 On ch=1 n=f#7 v=118
454294 Par ch=1 c=64 v=63
454298 On ch=1 n=c#7 v=113
454300 On ch=1 n=f#6 v=110
454316 Par ch=1 c=64 v=127
454334 On ch=1 n=f#6 v=0
454350 On ch=1 n=a4 v=0
454350 On ch=1 n=a5 v=0
454378 On ch=1 n=c#7 v=0
454432 On ch=1 n=f#7 v=0
454524 On ch=1 n=e7 v=88
454642 On ch=1 n=e7 v=0
454694 On ch=1 n=f#7 v=116
454850 On ch=1 n=f#7 v=0
454850 On ch=1 n=g#7 v=110
454962 On ch=1 n=g#7 v=0
455048 On ch=1 n=a7 v=117
455076 Par ch=1 c=64 v=63
455090 Par ch=1 c=64 v=0
455246 Par ch=1 c=64 v=63
455248 On ch=1 n=g#7 v=118
455250 On ch=1 n=f#7 v=115
455254 Par ch=1 c=64 v=127
455260 On ch=1 n=d7 v=96
455286 On ch=1 n=a7 v=0
455382 On ch=1 n=f#7 v=0
455408 On ch=1 n=d7 v=0
455418 On ch=1 n=g#7 v=0
455448 On ch=1 n=a7 v=104
455466 On ch=1 n=c#7 v=101
455470 On ch=1 n=e7 v=102
455556 On ch=1 n=a7 v=0
455594 On ch=1 n=e7 v=0
455600 On ch=1 n=c#7 v=0
455660 On ch=1 n=d7 v=108
455662 On ch=1 n=b7 v=112
455664 On ch=1 n=f#7 v=119
455666 On ch=1 n=b6 v=96
455804 On ch=1 n=b7 v=0
455856 Par ch=1 c=64 v=63
455862 Par ch=1 c=64 v=0
455892 On ch=1 n=b6 v=0
455916 On ch=1 n=f#7 v=0
455928 On ch=1 n=c#7 v=112
455930 On ch=1 n=d7 v=0
455932 On ch=1 n=a6 v=102
455940 On ch=1 n=c#8 v=120
455948 Par ch=1 c=64 v=63
455958 Par ch=1 c=64 v=127
456010 On ch=1 n=c#7 v=0
456018 On ch=1 n=a6 v=0
456026 On ch=1 n=c#8 v=0
456582 Par ch=1 c=64 v=63
456588 Par ch=1 c=64 v=0
456602 On ch=1 n=f#6 v=116
456606 On ch=1 n=g#5 v=110
456612 On ch=1 n=b3 v=108
456612 On ch=1 n=b4 v=118
456614 On ch=1 n=d6 v=103
456614 On ch=1 n=f#5 v=121
456832 Par ch=1 c=64 v=63
456836 Par ch=1 c=64 v=127
456906 On ch=1 n=b3 v=0
456972 On ch=1 n=b4 v=0
456998 On ch=1 n=f#5 v=0
457000 On ch=1 n=f#6 v=0
457004 On ch=1 n=g#5 v=0
457018 On ch=1 n=d6 v=0
457280 Par ch=1 c=64 v=63
457288 Par ch=1 c=64 v=0
457300 On ch=1 n=f#6 v=119
457302 On ch=1 n=c#5 v=121
457304 On ch=1 n=c#4 v=103
457304 On ch=1 n=f#5 v=120
457306 On ch=1 n=g#5 v=112
457308 On ch=1 n=g#4 v=108
457308 On ch=1 n=c#6 v=109
457424 Par ch=1 c=64 v=63
457432 Par ch=1 c=64 v=127
457498 On ch=1 n=c#5 v=0
457516 On ch=1 n=g#4 v=0
457552 On ch=1 n=c#4 v=0
457884 On ch=1 n=c#3 v=114
457886 On ch=1 n=g#3 v=116
457954 On ch=1 n=g#3 v=0
457964 On ch=1 n=c#3 v=0
458040 On ch=1 n=f#6 v=0
458048 On ch=1 n=g#5 v=0
458054 On ch=1 n=c#6 v=0
458056 On ch=1 n=f#5 v=0
458448 On ch=1 n=g#5 v=103
458454 On ch=1 n=e6 v=107
458456 On ch=1 n=c#4 v=80
458456 On ch=1 n=e5 v=111
458458 On ch=1 n=c#6 v=105
458458 On ch=1 n=g#4 v=110
458460 On ch=1 n=c#5 v=121
458482 On ch=1 n=d6 v=61
458520 Par ch=1 c=64 v=63
458526 On ch=1 n=d6 v=0
458530 Par ch=1 c=64 v=0
458648 Par ch=1 c=64 v=63
458664 Par ch=1 c=64 v=127
458756 On ch=1 n=c#5 v=0
458784 On ch=1 n=g#4 v=0
458834 On ch=1 n=c#4 v=0
459182 On ch=1 n=g#3 v=120
459182 On ch=1 n=c#3 v=114
459274 On ch=1 n=g#3 v=0
459288 On ch=1 n=c#3 v=0
459442 On ch=1 n=e5 v=0
459600 On ch=1 n=e6 v=0
459606 On ch=1 n=g#5 v=0
459648 On ch=1 n=c#6 v=0
460070 On ch=1 n=f#6 v=118
460072 On ch=1 n=f#5 v=125
460074 On ch=1 n=a#5 v=116
460076 On ch=1 n=c#5 v=125
460076 On ch=1 n=c#6 v=109
460080 On ch=1 n=f#4 v=115
460080 On ch=1 n=c#4 v=103
460126 Par ch=1 c=64 v=63
460138 Par ch=1 c=64 v=0
460336 Par ch=1 c=64 v=63
460354 Par ch=1 c=64 v=127
460600 On ch=1 n=c#5 v=0
460640 On ch=1 n=f#4 v=0
460680 On ch=1 n=c#4 v=0
461032 On ch=1 n=c#3 v=120
461038 On ch=1 n=f#2 v=114
461650 On ch=1 n=f#2 v=0
461682 On ch=1 n=c#3 v=0
462058 On ch=1 n=c#4 v=119
462068 On ch=1 n=f#3 v=108
462148 On ch=1 n=c#4 v=0
462166 On ch=1 n=f#3 v=0
464228 On ch=1 n=f#6 v=0
464252 Par ch=1 c=64 v=63
464254 On ch=1 n=a#5 v=0
464256 On ch=1 n=c#6 v=0
464256 On ch=1 n=f#5 v=0
464272 Par ch=1 c=64 v=0
464272 Meta TrkEnd
TrkEnd
