MFile 1 2 480
MTrk
0 Tempo 500000
0 TimeSig 4/4 24 8
0 Meta TrkEnd
TrkEnd
MTrk
0 SeqSpec 43 00 01 00
0 Meta TrkName "<Master Volume>"
0 Meta 0x21 00
0 SysEx f0 41 10 42 12 40 00 7f 00 41 f7
0 SysEx f0 41 10 42 12 40 00 04 64 58 f7
192 Meta Text "<Master Reverve>"
192 SysEx f0 41 10 42 12 40 01 30 03 0c f7
192 SysEx f0 41 10 42 12 40 01 33 50 3c f7
192 SysEx f0 41 10 42 12 40 01 34 3c 4f f7
576 Par ch=1 c=0 v=0
580 Par ch=1 c=32 v=1
584 PrCh ch=1 p=0
780 Par ch=1 c=7 v=100
972 Par ch=1 c=11 v=80
1164 Par ch=1 c=10 v=64
1356 Par ch=1 c=1 v=0
1356 Meta Text "<part reverve>"
1356 Par ch=1 c=91 v=90
1452 Par ch=1 c=99 v=1
1456 Par ch=1 c=98 v=32
1460 Par ch=1 c=6 v=62
1464 Par ch=1 c=99 v=1
1468 Par ch=1 c=98 v=33
1472 Par ch=1 c=6 v=54
1476 Par ch=1 c=99 v=1
1480 Par ch=1 c=98 v=99
1484 Par ch=1 c=6 v=62
1488 Par ch=1 c=99 v=1
1492 Par ch=1 c=98 v=100
1496 Par ch=1 c=6 v=60
1500 Par ch=1 c=99 v=1
1504 Par ch=1 c=98 v=102
1508 Par ch=1 c=6 v=70
1584 Par ch=1 c=67 v=127
3982 Par ch=1 c=64 v=63
4082 Par ch=1 c=64 v=127
4104 On ch=1 n=b4 v=37
4108 On ch=1 n=g5 v=42
4554 On ch=1 n=b4 v=0
4782 On ch=1 n=d5 v=32
4972 On ch=1 n=d5 v=0
5310 On ch=1 n=b4 v=40
5320 On ch=1 n=g3 v=42
5468 On ch=1 n=g3 v=0
5822 On ch=1 n=d5 v=52
6026 On ch=1 n=b4 v=0
6300 On ch=1 n=b4 v=59
6304 On ch=1 n=c3 v=50
6370 On ch=1 n=d5 v=0
6550 On ch=1 n=g5 v=0
6662 On ch=1 n=c3 v=0
6802 On ch=1 n=a5 v=59
6838 On ch=1 n=e5 v=64
6904 On ch=1 n=b4 v=0
6996 On ch=1 n=e5 v=0
7254 On ch=1 n=a5 v=0
7302 On ch=1 n=f#5 v=88
7304 On ch=1 n=e4 v=51
7330 On ch=1 n=b4 v=36
7396 On ch=1 n=e4 v=0
7458 On ch=1 n=f#5 v=0
7618 On ch=1 n=b4 v=0
7808 On ch=1 n=e5 v=77
8128 On ch=1 n=e5 v=0
8304 On ch=1 n=f#4 v=57
8306 On ch=1 n=d5 v=76
8318 On ch=1 n=d3 v=46
8460 Par ch=1 c=64 v=63
8552 Par ch=1 c=64 v=127
8798 On ch=1 n=b4 v=59
8870 On ch=1 n=d3 v=0
8990 On ch=1 n=f#4 v=0
9228 On ch=1 n=e5 v=83
9244 On ch=1 n=b3 v=36
9248 On ch=1 n=f#4 v=53
9290 On ch=1 n=d5 v=0
9298 On ch=1 n=b4 v=0
9384 On ch=1 n=b3 v=0
9496 On ch=1 n=e5 v=0
9674 On ch=1 n=f#4 v=0
9742 On ch=1 n=f#5 v=95
9778 On ch=1 n=b4 v=62
10042 On ch=1 n=b4 v=0
10084 On ch=1 n=f#5 v=0
10230 On ch=1 n=e3 v=51
10236 On ch=1 n=f#5 v=94
10260 On ch=1 n=g4 v=44
10318 Par ch=1 c=64 v=63
10344 Par ch=1 c=64 v=0
10434 Par ch=1 c=64 v=63
10454 Par ch=1 c=64 v=127
10644 On ch=1 n=g4 v=0
10710 On ch=1 n=f#5 v=0
10710 On ch=1 n=e3 v=0
10742 On ch=1 n=e5 v=74
10756 On ch=1 n=b4 v=48
10966 On ch=1 n=e5 v=0
11052 On ch=1 n=b4 v=0
11250 On ch=1 n=e5 v=58
11268 On ch=1 n=g4 v=23
11278 On ch=1 n=d4 v=35
11348 Par ch=1 c=64 v=63
11446 Par ch=1 c=64 v=127
11652 On ch=1 n=d4 v=0
11744 On ch=1 n=g4 v=0
11760 On ch=1 n=b4 v=35
11936 On ch=1 n=b4 v=0
12000 On ch=1 n=e5 v=0
12448 On ch=1 n=b5 v=71
12482 On ch=1 n=c5 v=41
12542 Par ch=1 c=64 v=63
12590 Par ch=1 c=64 v=0
12660 Par ch=1 c=64 v=63
12710 Par ch=1 c=64 v=127
13044 On ch=1 n=e5 v=32
13230 On ch=1 n=c5 v=0
13492 On ch=1 n=g4 v=35
13516 On ch=1 n=c5 v=46
13574 On ch=1 n=e5 v=0
13858 On ch=1 n=g4 v=0
13986 On ch=1 n=e5 v=46
14138 On ch=1 n=c5 v=0
14452 On ch=1 n=a3 v=50
14458 On ch=1 n=c5 v=63
14486 Par ch=1 c=64 v=63
14538 On ch=1 n=e5 v=0
14568 Par ch=1 c=64 v=127
14686 On ch=1 n=b5 v=0
14816 On ch=1 n=c5 v=0
14922 On ch=1 n=c6 v=88
14924 On ch=1 n=a3 v=0
14952 On ch=1 n=e5 v=48
15058 On ch=1 n=c6 v=0
15340 On ch=1 n=e5 v=0
15386 On ch=1 n=a5 v=77
15386 On ch=1 n=g4 v=49
15406 On ch=1 n=c5 v=79
15510 On ch=1 n=g4 v=0
15594 On ch=1 n=c5 v=0
15830 On ch=1 n=a5 v=0
15874 On ch=1 n=g5 v=84
15888 On ch=1 n=e5 v=63
15990 On ch=1 n=e5 v=0
16018 On ch=1 n=g5 v=0
16350 On ch=1 n=d4 v=57
16366 On ch=1 n=f#5 v=83
16384 On ch=1 n=c5 v=57
16470 Par ch=1 c=64 v=63
16578 Par ch=1 c=64 v=127
16836 On ch=1 n=c5 v=0
16864 On ch=1 n=d5 v=61
16884 On ch=1 n=d4 v=0
17190 On ch=1 n=d5 v=0
17306 On ch=1 n=g5 v=66
17310 On ch=1 n=f#5 v=0
17324 On ch=1 n=c5 v=51
17500 On ch=1 n=c5 v=0
17568 On ch=1 n=g5 v=0
17782 On ch=1 n=a5 v=63
17796 On ch=1 n=d5 v=51
17948 On ch=1 n=d5 v=0
18306 On ch=1 n=g3 v=40
18318 On ch=1 n=b4 v=54
18338 Par ch=1 c=64 v=63
18408 Par ch=1 c=64 v=127
18562 On ch=1 n=a5 v=0
18708 On ch=1 n=b4 v=0
18722 On ch=1 n=g3 v=0
18864 On ch=1 n=b5 v=76
18886 On ch=1 n=d5 v=53
19000 On ch=1 n=b5 v=0
19014 On ch=1 n=d5 v=0
19346 On ch=1 n=f#4 v=66
19346 On ch=1 n=g5 v=84
19362 On ch=1 n=b4 v=60
19462 On ch=1 n=f#4 v=0
19632 On ch=1 n=b4 v=0
19742 On ch=1 n=g5 v=0
19796 On ch=1 n=f#5 v=96
19808 On ch=1 n=d5 v=80
19908 On ch=1 n=d5 v=0
19960 On ch=1 n=f#5 v=0
20242 On ch=1 n=c4 v=36
20266 On ch=1 n=e5 v=87
20284 On ch=1 n=b4 v=68
20366 Par ch=1 c=64 v=63
20422 Par ch=1 c=64 v=0
20468 Par ch=1 c=64 v=63
20504 Par ch=1 c=64 v=127
20736 On ch=1 n=c5 v=60
20752 On ch=1 n=b4 v=0
20838 On ch=1 n=c4 v=0
20938 On ch=1 n=c5 v=0
21162 On ch=1 n=b4 v=52
21172 On ch=1 n=f#5 v=90
21218 On ch=1 n=e5 v=0
21306 On ch=1 n=b4 v=0
21450 On ch=1 n=f#5 v=0
21664 On ch=1 n=g5 v=81
21704 On ch=1 n=c5 v=60
21860 On ch=1 n=c5 v=0
22112 On ch=1 n=f#3 v=55
22134 On ch=1 n=a4 v=58
22138 Par ch=1 c=64 v=63
22190 Par ch=1 c=64 v=127
22332 On ch=1 n=g5 v=0
22454 On ch=1 n=a4 v=0
22570 On ch=1 n=f#3 v=0
22600 On ch=1 n=a5 v=73
22618 On ch=1 n=c5 v=55
22792 On ch=1 n=c5 v=0
22798 On ch=1 n=a5 v=0
23076 On ch=1 n=f#5 v=82
23086 On ch=1 n=e4 v=38
23098 On ch=1 n=a4 v=46
23478 On ch=1 n=e4 v=0
23482 On ch=1 n=a4 v=0
23544 On ch=1 n=f#5 v=0
23582 On ch=1 n=e5 v=65
23596 On ch=1 n=c5 v=42
23740 On ch=1 n=c5 v=0
23938 On ch=1 n=e5 v=0
24118 On ch=1 n=f#5 v=70
24124 On ch=1 n=f#4 v=45
24144 On ch=1 n=b3 v=39
24286 Par ch=1 c=64 v=63
24400 Par ch=1 c=64 v=127
24700 On ch=1 n=b4 v=52
24786 On ch=1 n=b3 v=0
24950 On ch=1 n=f#4 v=0
25022 On ch=1 n=b4 v=0
25170 On ch=1 n=d5 v=57
25638 On ch=1 n=b4 v=40
25640 On ch=1 n=d5 v=0
26148 On ch=1 n=b4 v=0
26160 On ch=1 n=f#3 v=41
26192 On ch=1 n=f#5 v=0
26588 Par ch=1 c=64 v=63
26720 Par ch=1 c=64 v=127
26818 On ch=1 n=a5 v=51
26822 On ch=1 n=c5 v=47
26850 On ch=1 n=e5 v=39
27114 On ch=1 n=e5 v=0
27128 On ch=1 n=f#3 v=0
27168 On ch=1 n=c5 v=0
27210 On ch=1 n=a5 v=0
27386 On ch=1 n=f#5 v=73
27398 On ch=1 n=d5 v=48
27402 On ch=1 n=b4 v=36
27402 On ch=1 n=g3 v=31
27608 On ch=1 n=d5 v=0
27702 On ch=1 n=f#5 v=0
27856 On ch=1 n=b4 v=0
27884 On ch=1 n=g3 v=0
27956 On ch=1 n=c5 v=54
27962 On ch=1 n=e5 v=60
27970 On ch=1 n=f#4 v=28
27990 On ch=1 n=a3 v=39
28256 On ch=1 n=f#4 v=0
28262 On ch=1 n=c5 v=0
28286 On ch=1 n=e5 v=0
28520 On ch=1 n=a3 v=0
28632 On ch=1 n=d4 v=43
28636 On ch=1 n=f#5 v=51
28650 On ch=1 n=b4 v=42
28804 Par ch=1 c=64 v=63
28840 Par ch=1 c=64 v=0
28968 Par ch=1 c=64 v=63
28994 Par ch=1 c=64 v=127
29218 On ch=1 n=d5 v=43
29570 On ch=1 n=b4 v=0
29980 On ch=1 n=d5 v=0
29988 On ch=1 n=b5 v=78
30046 On ch=1 n=f#5 v=0
30130 On ch=1 n=d4 v=0
31236 On ch=1 n=b2 v=55
31338 On ch=1 n=b2 v=0
31994 On ch=1 n=b5 v=0
32674 On ch=1 n=b5 v=84
33344 On ch=1 n=b4 v=45
33382 On ch=1 n=c5 v=38
33484 On ch=1 n=b5 v=0
33532 On ch=1 n=e5 v=54
33576 On ch=1 n=c5 v=0
33592 On ch=1 n=b4 v=0
33650 On ch=1 n=g5 v=43
33712 On ch=1 n=e5 v=0
33760 On ch=1 n=b5 v=52
33882 On ch=1 n=e6 v=57
33958 On ch=1 n=g5 v=0
34090 On ch=1 n=a2 v=57
34130 On ch=1 n=e6 v=0
34380 On ch=1 n=a2 v=0
34630 On ch=1 n=e5 v=35
35124 On ch=1 n=g5 v=53
35136 On ch=1 n=b4 v=84
35326 On ch=1 n=e5 v=0
35776 On ch=1 n=e5 v=50
35820 On ch=1 n=g5 v=0
36020 On ch=1 n=e5 v=0
36262 On ch=1 n=c5 v=63
36524 On ch=1 n=c5 v=0
36570 On ch=1 n=b4 v=0
36866 On ch=1 n=a5 v=77
36884 On ch=1 n=a4 v=59
36914 On ch=1 n=b5 v=0
36932 On ch=1 n=e5 v=19
37198 On ch=1 n=e5 v=0
37438 On ch=1 n=a5 v=0
37438 On ch=1 n=d6 v=84
37448 On ch=1 n=d5 v=67
37474 On ch=1 n=g5 v=23
37498 On ch=1 n=a4 v=0
37528 On ch=1 n=g5 v=0
37588 On ch=1 n=d6 v=0
37874 On ch=1 n=d5 v=0
37910 On ch=1 n=b5 v=92
37922 On ch=1 n=b4 v=76
37934 On ch=1 n=e5 v=67
38084 On ch=1 n=e5 v=0
38170 On ch=1 n=b5 v=0
38196 On ch=1 n=b4 v=0
38416 Par ch=1 c=64 v=63
38416 On ch=1 n=b5 v=96
38432 Par ch=1 c=64 v=0
38434 On ch=1 n=b4 v=72
38440 Par ch=1 c=64 v=63
38450 On ch=1 n=c5 v=57
38468 Par ch=1 c=64 v=127
38592 On ch=1 n=b4 v=0
38624 On ch=1 n=b5 v=0
38666 On ch=1 n=c5 v=0
39058 On ch=1 n=d3 v=61
39062 On ch=1 n=a3 v=56
39080 On ch=1 n=e5 v=49
39094 On ch=1 n=f#4 v=10
39112 On ch=1 n=a3 v=0
39118 On ch=1 n=d3 v=0
39296 On ch=1 n=f#4 v=0
39694 On ch=1 n=e5 v=0
39736 On ch=1 n=a5 v=63
39754 On ch=1 n=f#4 v=84
40306 On ch=1 n=e5 v=73
40494 On ch=1 n=e5 v=0
40746 On ch=1 n=b4 v=67
40772 On ch=1 n=g5 v=98
40790 On ch=1 n=c5 v=65
40820 On ch=1 n=a5 v=0
40852 On ch=1 n=f#4 v=0
41240 On ch=1 n=e5 v=70
41318 On ch=1 n=c5 v=0
41668 On ch=1 n=a5 v=87
41668 On ch=1 n=a4 v=72
41706 On ch=1 n=b4 v=0
41754 On ch=1 n=g5 v=0
41808 On ch=1 n=e5 v=0
42148 On ch=1 n=e5 v=50
42446 On ch=1 n=e5 v=0
42492 On ch=1 n=a4 v=0
42736 On ch=1 n=a5 v=0
42736 On ch=1 n=e5 v=65
42740 On ch=1 n=g4 v=50
42950 Par ch=1 c=64 v=63
43094 Par ch=1 c=64 v=127
43466 On ch=1 n=b4 v=28
43756 On ch=1 n=e5 v=0
44002 On ch=1 n=e5 v=37
44202 On ch=1 n=b4 v=0
44448 On ch=1 n=g4 v=0
44482 On ch=1 n=b5 v=48
44998 On ch=1 n=b5 v=0
45094 On ch=1 n=e4 v=30
45100 On ch=1 n=e3 v=38
45306 On ch=1 n=e5 v=0
45392 On ch=1 n=e4 v=0
45468 On ch=1 n=e3 v=0
45862 On ch=1 n=d5 v=50
45870 On ch=1 n=d6 v=40
45880 On ch=1 n=d4 v=36
45882 On ch=1 n=c6 v=54
45912 On ch=1 n=d3 v=22
45962 Par ch=1 c=64 v=63
46028 Par ch=1 c=64 v=127
46158 On ch=1 n=d3 v=0
46212 On ch=1 n=d4 v=0
46400 On ch=1 n=d5 v=0
46446 On ch=1 n=g5 v=79
46476 On ch=1 n=g4 v=44
46484 On ch=1 n=g3 v=45
46560 On ch=1 n=d6 v=0
46578 On ch=1 n=c6 v=0
46614 On ch=1 n=g4 v=0
46654 On ch=1 n=g3 v=0
46868 On ch=1 n=g5 v=0
47030 On ch=1 n=f#5 v=85
47034 On ch=1 n=f#4 v=50
47036 On ch=1 n=f#3 v=39
47046 On ch=1 n=d6 v=66
47086 On ch=1 n=c6 v=50
47250 On ch=1 n=f#4 v=0
47348 On ch=1 n=d6 v=0
47360 On ch=1 n=f#5 v=0
47368 On ch=1 n=f#3 v=0
47442 On ch=1 n=c6 v=0
47862 On ch=1 n=e5 v=40
47876 On ch=1 n=b5 v=43
47878 On ch=1 n=e3 v=31
47878 On ch=1 n=e6 v=38
47882 On ch=1 n=e4 v=24
47934 Par ch=1 c=64 v=63
47970 Par ch=1 c=64 v=0
48042 Par ch=1 c=64 v=63
48064 Par ch=1 c=64 v=127
48388 On ch=1 n=e3 v=0
48440 On ch=1 n=e5 v=0
48544 On ch=1 n=e4 v=0
48574 Par ch=1 c=67 v=0
48702 On ch=1 n=e6 v=0
48748 On ch=1 n=b5 v=0
48810 On ch=1 n=b4 v=90
48894 On ch=1 n=b4 v=0
49444 On ch=1 n=b5 v=94
49454 On ch=1 n=d5 v=93
49520 Par ch=1 c=64 v=63
49556 Par ch=1 c=64 v=127
49876 On ch=1 n=d5 v=0
50010 On ch=1 n=b5 v=0
50016 On ch=1 n=e5 v=113
50130 On ch=1 n=e5 v=0
50768 On ch=1 n=f#5 v=112
50782 On ch=1 n=b3 v=93
50784 On ch=1 n=d5 v=94
50786 On ch=1 n=g#4 v=97
50792 On ch=1 n=e3 v=76
50942 Par ch=1 c=64 v=63
50956 Par ch=1 c=64 v=0
51504 Par ch=1 c=64 v=63
51504 Par ch=1 c=64 v=127
51678 On ch=1 n=g#4 v=0
51726 On ch=1 n=f#5 v=0
51744 On ch=1 n=d5 v=0
51812 On ch=1 n=b3 v=0
51862 On ch=1 n=e3 v=0
52390 On ch=1 n=e5 v=100
52394 On ch=1 n=f#4 v=93
52400 On ch=1 n=c5 v=98
52408 On ch=1 n=d3 v=78
52410 On ch=1 n=a3 v=84
52450 Par ch=1 c=64 v=63
52458 Par ch=1 c=64 v=0
52550 Par ch=1 c=64 v=63
52562 Par ch=1 c=64 v=127
52858 On ch=1 n=f#4 v=0
52910 On ch=1 n=b4 v=93
52936 On ch=1 n=c5 v=0
53182 On ch=1 n=d3 v=0
53186 On ch=1 n=a3 v=0
53270 On ch=1 n=b4 v=0
53456 On ch=1 n=a4 v=93
53692 On ch=1 n=b2 v=97
53694 Par ch=1 c=64 v=63
53702 Par ch=1 c=64 v=0
53734 Par ch=1 c=64 v=63
53748 Par ch=1 c=64 v=127
53770 On ch=1 n=e5 v=0
53828 On ch=1 n=a4 v=0
53828 On ch=1 n=f#3 v=89
53880 On ch=1 n=b2 v=0
53984 On ch=1 n=f#3 v=0
54056 On ch=1 n=f#5 v=109
54056 On ch=1 n=f#3 v=46
54058 On ch=1 n=b4 v=93
54062 On ch=1 n=f#4 v=103
54064 On ch=1 n=d4 v=84
55018 On ch=1 n=f#3 v=0
55026 On ch=1 n=d4 v=0
55592 On ch=1 n=f#4 v=0
55736 On ch=1 n=b4 v=0
55794 On ch=1 n=f#5 v=0
56608 On ch=1 n=f#4 v=43
56608 On ch=1 n=b4 v=49
56718 On ch=1 n=f#4 v=0
56728 On ch=1 n=b4 v=0
57156 On ch=1 n=b4 v=42
57162 On ch=1 n=d5 v=59
57242 On ch=1 n=b4 v=0
57262 On ch=1 n=d5 v=0
57602 On ch=1 n=f#5 v=80
57630 On ch=1 n=d5 v=32
57690 On ch=1 n=f#5 v=0
57698 On ch=1 n=d5 v=0
58038 On ch=1 n=f#5 v=67
58052 On ch=1 n=b5 v=63
58138 On ch=1 n=f#5 v=0
58174 On ch=1 n=b5 v=0
58628 On ch=1 n=b2 v=44
58682 On ch=1 n=f#6 v=66
58700 On ch=1 n=a5 v=32
58700 On ch=1 n=b5 v=33
58702 On ch=1 n=d6 v=58
58754 Par ch=1 c=64 v=63
58802 Par ch=1 c=64 v=0
58830 Par ch=1 c=64 v=63
58864 Par ch=1 c=64 v=127
59010 On ch=1 n=b2 v=0
59092 On ch=1 n=a5 v=0
59094 On ch=1 n=b5 v=0
59108 On ch=1 n=d6 v=0
59298 On ch=1 n=d6 v=33
59306 On ch=1 n=a5 v=21
59310 On ch=1 n=b5 v=19
59506 On ch=1 n=d6 v=0
59556 On ch=1 n=a5 v=0
59568 On ch=1 n=b5 v=0
59750 On ch=1 n=f#6 v=0
59788 On ch=1 n=g6 v=73
59812 On ch=1 n=g5 v=38
59820 On ch=1 n=b5 v=42
59838 On ch=1 n=d6 v=41
60000 On ch=1 n=b5 v=0
60024 On ch=1 n=d6 v=0
60092 On ch=1 n=g5 v=0
60276 On ch=1 n=g5 v=42
60282 On ch=1 n=b5 v=42
60282 On ch=1 n=d6 v=44
60334 On ch=1 n=g5 v=0
60390 On ch=1 n=d6 v=0
60398 On ch=1 n=b5 v=0
60784 On ch=1 n=b3 v=41
60794 On ch=1 n=b2 v=46
60796 On ch=1 n=g5 v=31
60798 On ch=1 n=d6 v=51
60800 On ch=1 n=b5 v=49
60850 On ch=1 n=b3 v=0
60864 On ch=1 n=b2 v=0
60932 On ch=1 n=b5 v=0
60940 On ch=1 n=g5 v=0
60980 On ch=1 n=d6 v=0
61260 On ch=1 n=g6 v=0
61408 On ch=1 n=f#6 v=76
61432 On ch=1 n=d6 v=54
61438 On ch=1 n=b5 v=38
61440 On ch=1 n=a5 v=40
61618 On ch=1 n=a5 v=0
61638 On ch=1 n=b5 v=0
61646 On ch=1 n=d6 v=0
61828 On ch=1 n=f#6 v=0
61870 On ch=1 n=g6 v=98
61894 On ch=1 n=g5 v=49
61896 On ch=1 n=d6 v=62
61904 On ch=1 n=b5 v=33
62034 On ch=1 n=g6 v=0
62070 On ch=1 n=g5 v=0
62078 On ch=1 n=d6 v=0
62138 On ch=1 n=b5 v=0
62310 On ch=1 n=a6 v=91
62320 On ch=1 n=f#5 v=80
62332 On ch=1 n=d6 v=63
62342 On ch=1 n=b5 v=33
62384 On ch=1 n=f#5 v=0
62414 On ch=1 n=d6 v=0
62414 On ch=1 n=a6 v=0
62438 On ch=1 n=b5 v=0
62796 On ch=1 n=d6 v=76
62806 On ch=1 n=e5 v=53
62806 On ch=1 n=b2 v=47
62814 On ch=1 n=b3 v=50
62824 On ch=1 n=b5 v=57
62824 On ch=1 n=g5 v=42
62960 Par ch=1 c=64 v=63
62980 Par ch=1 c=64 v=0
63002 Par ch=1 c=64 v=63
63034 Par ch=1 c=64 v=127
63144 On ch=1 n=e5 v=0
63148 On ch=1 n=g5 v=0
63206 On ch=1 n=b5 v=0
63244 On ch=1 n=b5 v=27
63270 On ch=1 n=e5 v=49
63280 On ch=1 n=g5 v=46
63372 On ch=1 n=d6 v=0
63408 On ch=1 n=g5 v=0
63422 On ch=1 n=b5 v=0
63478 On ch=1 n=e5 v=0
63678 On ch=1 n=c#6 v=87
63730 On ch=1 n=b5 v=38
63778 On ch=1 n=e5 v=5
64002 On ch=1 n=e5 v=0
64034 On ch=1 n=b5 v=0
64152 On ch=1 n=b5 v=48
64170 On ch=1 n=e5 v=27
64186 On ch=1 n=g5 v=32
64378 On ch=1 n=g5 v=0
64406 On ch=1 n=e5 v=0
64454 On ch=1 n=b5 v=0
64484 On ch=1 n=b2 v=0
64556 On ch=1 n=b3 v=0
64596 On ch=1 n=b5 v=45
64616 On ch=1 n=e5 v=25
64640 On ch=1 n=g5 v=29
64818 On ch=1 n=e5 v=0
64868 On ch=1 n=g5 v=0
64870 On ch=1 n=b5 v=0
65128 On ch=1 n=b5 v=43
65132 On ch=1 n=e5 v=57
65176 On ch=1 n=g5 v=20
65384 On ch=1 n=g5 v=0
65406 On ch=1 n=b5 v=0
65480 On ch=1 n=e5 v=0
65560 On ch=1 n=b4 v=81
65574 On ch=1 n=b5 v=53
65592 On ch=1 n=g5 v=29
65736 On ch=1 n=g5 v=0
65764 On ch=1 n=b5 v=0
65924 On ch=1 n=b4 v=0
65980 On ch=1 n=e5 v=88
66002 On ch=1 n=g5 v=57
66008 On ch=1 n=b5 v=59
66070 On ch=1 n=e5 v=0
66216 On ch=1 n=b5 v=0
66224 On ch=1 n=g5 v=0
66256 On ch=1 n=c#6 v=0
66508 On ch=1 n=b3 v=48
66510 On ch=1 n=d6 v=89
66520 On ch=1 n=b2 v=44
66532 On ch=1 n=f#5 v=52
66542 On ch=1 n=g5 v=52
66562 On ch=1 n=b5 v=48
66664 Par ch=1 c=64 v=63
66688 Par ch=1 c=64 v=0
66712 Par ch=1 c=64 v=63
66748 Par ch=1 c=64 v=127
66920 On ch=1 n=f#5 v=0
66936 On ch=1 n=b2 v=0
66942 On ch=1 n=b5 v=0
66944 On ch=1 n=g5 v=0
67052 On ch=1 n=b3 v=0
67058 On ch=1 n=f#5 v=63
67076 On ch=1 n=b5 v=55
67076 On ch=1 n=g5 v=50
67176 On ch=1 n=g5 v=0
67208 On ch=1 n=d6 v=0
67222 On ch=1 n=f#5 v=0
67246 On ch=1 n=b5 v=0
67524 On ch=1 n=e6 v=91
67542 On ch=1 n=e5 v=55
67544 On ch=1 n=g5 v=55
67546 On ch=1 n=b5 v=65
67696 On ch=1 n=b5 v=0
67756 On ch=1 n=g5 v=0
67794 On ch=1 n=e5 v=0
67976 On ch=1 n=g5 v=39
67978 On ch=1 n=b5 v=46
67996 On ch=1 n=e5 v=35
68048 On ch=1 n=e5 v=0
68096 On ch=1 n=g5 v=0
68110 On ch=1 n=b5 v=0
68438 On ch=1 n=b2 v=57
68446 On ch=1 n=b5 v=50
68450 On ch=1 n=b3 v=58
68456 On ch=1 n=g5 v=41
68460 On ch=1 n=e5 v=38
68542 On ch=1 n=b3 v=0
68544 On ch=1 n=b2 v=0
68644 On ch=1 n=e5 v=0
68696 On ch=1 n=g5 v=0
68734 On ch=1 n=b5 v=0
68738 On ch=1 n=e6 v=0
69036 On ch=1 n=d6 v=77
69040 On ch=1 n=f#5 v=66
69044 On ch=1 n=g5 v=52
69054 On ch=1 n=b5 v=58
69170 On ch=1 n=b5 v=0
69204 On ch=1 n=d6 v=0
69284 On ch=1 n=g5 v=0
69348 On ch=1 n=f#5 v=0
69478 On ch=1 n=e5 v=62
69478 On ch=1 n=e6 v=98
69488 On ch=1 n=b5 v=82
69506 On ch=1 n=g5 v=58
69620 On ch=1 n=b5 v=0
69626 On ch=1 n=e6 v=0
69694 On ch=1 n=g5 v=0
69744 On ch=1 n=e5 v=0
69888 On ch=1 n=f#6 v=93
69918 On ch=1 n=d5 v=63
69924 On ch=1 n=b5 v=58
69930 On ch=1 n=g5 v=34
69974 On ch=1 n=d5 v=0
69980 On ch=1 n=b5 v=0
70002 On ch=1 n=f#6 v=0
70008 On ch=1 n=g5 v=0
70358 On ch=1 n=b5 v=76
70374 On ch=1 n=c#5 v=67
70390 On ch=1 n=b2 v=38
70392 On ch=1 n=b3 v=44
70402 On ch=1 n=g5 v=51
70412 On ch=1 n=e5 v=48
70502 Par ch=1 c=64 v=63
70522 Par ch=1 c=64 v=0
70618 Par ch=1 c=64 v=63
70632 Par ch=1 c=64 v=127
70698 On ch=1 n=c#5 v=0
70726 On ch=1 n=e5 v=0
70736 On ch=1 n=g5 v=0
70832 On ch=1 n=c#5 v=43
70850 On ch=1 n=g5 v=28
70854 On ch=1 n=e5 v=49
71048 On ch=1 n=e5 v=0
71056 On ch=1 n=c#5 v=0
71058 On ch=1 n=g5 v=0
71222 On ch=1 n=b5 v=0
71272 On ch=1 n=c#5 v=40
71274 On ch=1 n=a5 v=67
71300 On ch=1 n=e5 v=43
71314 On ch=1 n=g5 v=40
71520 On ch=1 n=c#5 v=0
71556 On ch=1 n=e5 v=0
71586 On ch=1 n=g5 v=0
71728 On ch=1 n=g5 v=36
71730 On ch=1 n=c#5 v=23
71760 On ch=1 n=e5 v=31
71846 On ch=1 n=a5 v=0
71866 On ch=1 n=g5 v=0
71878 On ch=1 n=e5 v=0
71962 On ch=1 n=c#5 v=0
72248 On ch=1 n=f#5 v=71
72280 On ch=1 n=c#5 v=27
72282 On ch=1 n=d5 v=52
72582 On ch=1 n=d5 v=0
72590 On ch=1 n=c#5 v=0
72602 On ch=1 n=f#5 v=0
72800 On ch=1 n=f#5 v=54
72826 On ch=1 n=d5 v=46
72832 On ch=1 n=c#5 v=10
72976 On ch=1 n=d5 v=0
72978 On ch=1 n=c#5 v=0
72984 On ch=1 n=f#5 v=0
73284 On ch=1 n=f#5 v=50
73298 On ch=1 n=d5 v=40
73298 On ch=1 n=c#5 v=17
73444 On ch=1 n=d5 v=0
73460 On ch=1 n=f#5 v=0
73470 On ch=1 n=c#5 v=0
73824 On ch=1 n=f#5 v=39
73842 On ch=1 n=c#5 v=15
73850 On ch=1 n=d5 v=28
74010 On ch=1 n=b3 v=0
74046 On ch=1 n=d5 v=0
74058 On ch=1 n=c#5 v=0
74098 On ch=1 n=f#5 v=0
74118 On ch=1 n=b2 v=0
74532 On ch=1 n=a2 v=41
74538 On ch=1 n=a5 v=71
74556 On ch=1 n=c#5 v=23
74566 On ch=1 n=f#5 v=65
74568 On ch=1 n=d5 v=49
74704 Par ch=1 c=64 v=63
74770 Par ch=1 c=64 v=127
74944 On ch=1 n=d5 v=0
74944 On ch=1 n=c#5 v=0
74966 On ch=1 n=f#5 v=0
75120 On ch=1 n=f#5 v=39
75160 On ch=1 n=c#5 v=19
75166 On ch=1 n=a5 v=0
75222 On ch=1 n=c#5 v=0
75274 On ch=1 n=f#5 v=0
75656 On ch=1 n=b5 v=87
75670 On ch=1 n=b4 v=48
75686 On ch=1 n=d5 v=64
75686 On ch=1 n=f#5 v=82
75978 On ch=1 n=d5 v=0
75994 On ch=1 n=f#5 v=0
75994 On ch=1 n=b4 v=0
76142 On ch=1 n=a2 v=0
76148 On ch=1 n=b4 v=55
76162 On ch=1 n=f#5 v=54
76168 On ch=1 n=d5 v=55
76310 On ch=1 n=d5 v=0
76344 On ch=1 n=f#5 v=0
76362 On ch=1 n=b4 v=0
76564 Par ch=1 c=64 v=63
76576 On ch=1 n=b4 v=66
76576 Par ch=1 c=64 v=0
76582 On ch=1 n=a2 v=84
76584 On ch=1 n=f#5 v=65
76584 On ch=1 n=d5 v=72
76614 Par ch=1 c=64 v=63
76634 Par ch=1 c=64 v=127
76738 On ch=1 n=b4 v=0
76740 On ch=1 n=a2 v=0
76754 On ch=1 n=d5 v=0
76800 On ch=1 n=f#5 v=0
76984 On ch=1 n=b5 v=0
77062 On ch=1 n=a5 v=98
77082 On ch=1 n=c#5 v=72
77084 On ch=1 n=f#5 v=85
77096 On ch=1 n=d5 v=57
77234 On ch=1 n=c#5 v=0
77278 On ch=1 n=f#5 v=0
77318 On ch=1 n=d5 v=0
77454 On ch=1 n=a5 v=0
77502 On ch=1 n=b5 v=104
77504 On ch=1 n=b4 v=76
77528 On ch=1 n=f#5 v=91
77534 On ch=1 n=d5 v=82
77592 On ch=1 n=d5 v=0
77684 On ch=1 n=b5 v=0
77694 On ch=1 n=b4 v=0
77700 On ch=1 n=f#5 v=0
78030 On ch=1 n=c#6 v=109
78038 On ch=1 n=a4 v=65
78050 On ch=1 n=f#5 v=90
78052 On ch=1 n=d5 v=78
78124 On ch=1 n=d5 v=0
78126 On ch=1 n=a4 v=0
78146 On ch=1 n=f#5 v=0
78194 On ch=1 n=c#6 v=0
78718 On ch=1 n=f#5 v=105
78736 On ch=1 n=g4 v=78
78740 On ch=1 n=b3 v=75
78746 On ch=1 n=d5 v=86
78746 On ch=1 n=e3 v=73
78906 Par ch=1 c=64 v=63
78920 Par ch=1 c=64 v=0
79250 Par ch=1 c=64 v=63
79252 Par ch=1 c=64 v=127
79480 On ch=1 n=d5 v=0
79486 On ch=1 n=f#5 v=0
79542 On ch=1 n=g4 v=0
79590 On ch=1 n=e3 v=0
79800 On ch=1 n=e5 v=99
79810 On ch=1 n=g4 v=77
79810 On ch=1 n=e4 v=80
79812 On ch=1 n=b4 v=83
79814 On ch=1 n=b3 v=0
79816 On ch=1 n=a3 v=68
80012 Par ch=1 c=64 v=63
80026 Par ch=1 c=64 v=0
80238 Par ch=1 c=64 v=63
80244 Par ch=1 c=64 v=127
80812 On ch=1 n=g4 v=0
80822 On ch=1 n=e5 v=0
80858 On ch=1 n=b4 v=0
80916 On ch=1 n=e4 v=0
81128 On ch=1 n=a3 v=0
81318 On ch=1 n=a4 v=79
81330 On ch=1 n=d5 v=103
81340 On ch=1 n=d4 v=73
81344 On ch=1 n=f#4 v=86
81360 Par ch=1 c=64 v=63
81412 Par ch=1 c=64 v=127
81592 On ch=1 n=a4 v=0
81596 On ch=1 n=d5 v=0
81618 On ch=1 n=f#4 v=0
81906 On ch=1 n=e5 v=106
81910 On ch=1 n=d4 v=0
81916 On ch=1 n=b4 v=94
81918 On ch=1 n=g4 v=90
81924 On ch=1 n=e4 v=90
81926 On ch=1 n=a3 v=78
81960 Par ch=1 c=64 v=63
82022 Par ch=1 c=64 v=127
82150 On ch=1 n=e5 v=0
82170 On ch=1 n=a3 v=0
82204 On ch=1 n=b4 v=0
82300 On ch=1 n=g4 v=0
82388 On ch=1 n=e4 v=0
82388 On ch=1 n=f#5 v=109
82394 On ch=1 n=e3 v=82
82396 On ch=1 n=g4 v=92
82402 On ch=1 n=d5 v=94
82408 On ch=1 n=b3 v=78
82468 Par ch=1 c=64 v=63
82496 Par ch=1 c=64 v=0
82558 Par ch=1 c=64 v=63
82582 Par ch=1 c=64 v=127
82742 On ch=1 n=f#5 v=0
82758 On ch=1 n=d5 v=0
82802 On ch=1 n=g4 v=0
82944 On ch=1 n=e5 v=94
82958 On ch=1 n=g4 v=68
82958 On ch=1 n=a3 v=59
82958 On ch=1 n=b4 v=84
82962 On ch=1 n=e4 v=54
82976 On ch=1 n=e3 v=0
83068 Par ch=1 c=64 v=63
83070 On ch=1 n=b3 v=0
83086 Par ch=1 c=64 v=0
83212 Par ch=1 c=64 v=63
83232 Par ch=1 c=64 v=127
83560 On ch=1 n=g4 v=0
83632 On ch=1 n=b4 v=0
83632 On ch=1 n=e5 v=0
83720 On ch=1 n=e4 v=0
84296 On ch=1 n=a3 v=0
84314 On ch=1 n=f#4 v=38
84324 On ch=1 n=d5 v=57
84334 On ch=1 n=a4 v=24
84348 On ch=1 n=d4 v=31
84396 Par ch=1 c=64 v=63
84422 Par ch=1 c=64 v=0
84498 Par ch=1 c=64 v=63
84522 Par ch=1 c=64 v=127
84906 On ch=1 n=f#4 v=0
84948 On ch=1 n=a4 v=0
84978 On ch=1 n=d5 v=0
85046 On ch=1 n=d4 v=0
85748 Par ch=1 c=67 v=127
86126 Par ch=1 c=64 v=63
86190 On ch=1 n=b2 v=38
86194 On ch=1 n=b3 v=30
86208 On ch=1 n=f#6 v=50
86220 Par ch=1 c=64 v=0
86236 On ch=1 n=d6 v=50
86240 On ch=1 n=a5 v=22
86242 On ch=1 n=b5 v=22
86450 Par ch=1 c=64 v=63
86458 Par ch=1 c=64 v=127
86688 On ch=1 n=b2 v=0
86724 On ch=1 n=d6 v=0
86734 On ch=1 n=b5 v=0
86734 On ch=1 n=a5 v=0
86804 On ch=1 n=b3 v=0
86972 On ch=1 n=d6 v=46
86976 On ch=1 n=a5 v=38
86978 On ch=1 n=b5 v=37
87200 On ch=1 n=d6 v=0
87244 On ch=1 n=a5 v=0
87258 On ch=1 n=b5 v=0
87486 On ch=1 n=f#6 v=0
87520 On ch=1 n=g6 v=85
87532 On ch=1 n=g5 v=40
87544 On ch=1 n=b5 v=48
87552 On ch=1 n=d6 v=50
87808 On ch=1 n=d6 v=0
87850 On ch=1 n=g5 v=0
87874 On ch=1 n=b5 v=0
88014 On ch=1 n=b5 v=50
88026 On ch=1 n=d6 v=57
88034 On ch=1 n=g5 v=32
88200 On ch=1 n=g5 v=0
88214 On ch=1 n=d6 v=0
88216 On ch=1 n=b5 v=0
88474 On ch=1 n=b5 v=40
88482 On ch=1 n=g5 v=35
88482 On ch=1 n=d6 v=48
88664 On ch=1 n=b5 v=0
88684 On ch=1 n=d6 v=0
88920 On ch=1 n=f#6 v=76
88932 On ch=1 n=a5 v=37
88938 On ch=1 n=d6 v=57
88944 On ch=1 n=b5 v=44
88974 On ch=1 n=g6 v=0
88996 On ch=1 n=g5 v=0
89242 On ch=1 n=d6 v=0
89362 On ch=1 n=b5 v=0
89446 On ch=1 n=g6 v=91
89476 On ch=1 n=f#6 v=0
89484 On ch=1 n=b5 v=33
89484 On ch=1 n=g5 v=41
89498 On ch=1 n=d6 v=43
89510 On ch=1 n=a5 v=0
89676 On ch=1 n=g6 v=0
89754 On ch=1 n=d6 v=0
89788 On ch=1 n=b5 v=0
89790 On ch=1 n=g5 v=0
89942 On ch=1 n=f#5 v=65
89944 On ch=1 n=a6 v=83
89952 On ch=1 n=b5 v=51
89972 On ch=1 n=d6 v=60
90032 On ch=1 n=f#5 v=0
90064 On ch=1 n=b5 v=0
90082 On ch=1 n=d6 v=0
90088 On ch=1 n=a6 v=0
90564 On ch=1 n=e3 v=43
90564 On ch=1 n=d6 v=73
90568 On ch=1 n=e4 v=41
90576 On ch=1 n=e5 v=38
90586 On ch=1 n=b5 v=45
90604 On ch=1 n=g5 v=35
90696 Par ch=1 c=64 v=63
90712 Par ch=1 c=64 v=0
90834 Par ch=1 c=64 v=63
90850 Par ch=1 c=64 v=127
90920 On ch=1 n=g5 v=0
90944 On ch=1 n=b5 v=0
90948 On ch=1 n=e5 v=0
91088 On ch=1 n=b5 v=51
91104 On ch=1 n=g5 v=39
91108 On ch=1 n=e5 v=38
91202 On ch=1 n=d6 v=0
91252 On ch=1 n=g5 v=0
91262 On ch=1 n=b5 v=0
91288 On ch=1 n=e5 v=0
91542 On ch=1 n=c#6 v=80
91570 On ch=1 n=e5 v=35
91844 On ch=1 n=e5 v=0
92006 On ch=1 n=b5 v=50
92032 On ch=1 n=e5 v=24
92036 On ch=1 n=g5 v=31
92122 On ch=1 n=e4 v=0
92174 On ch=1 n=e3 v=0
92276 On ch=1 n=e5 v=0
92280 On ch=1 n=g5 v=0
92320 On ch=1 n=b5 v=0
92430 On ch=1 n=b5 v=38
92456 On ch=1 n=e5 v=33
92464 On ch=1 n=g5 v=37
92690 On ch=1 n=e5 v=0
92710 On ch=1 n=g5 v=0
92722 On ch=1 n=b5 v=0
92926 On ch=1 n=e5 v=72
92932 On ch=1 n=b5 v=55
92936 On ch=1 n=g5 v=40
93186 On ch=1 n=g5 v=0
93222 On ch=1 n=b5 v=0
93378 On ch=1 n=b4 v=80
93382 On ch=1 n=b5 v=65
93388 On ch=1 n=g5 v=48
93408 On ch=1 n=e5 v=0
93548 On ch=1 n=g5 v=0
93578 On ch=1 n=b5 v=0
93768 On ch=1 n=b4 v=0
93836 On ch=1 n=e5 v=90
93852 On ch=1 n=b5 v=69
93862 On ch=1 n=g5 v=44
93872 On ch=1 n=c#6 v=0
94010 On ch=1 n=e5 v=0
94052 On ch=1 n=g5 v=0
94084 On ch=1 n=b5 v=0
94438 On ch=1 n=d6 v=91
94452 On ch=1 n=a3 v=46
94454 On ch=1 n=a4 v=39
94470 On ch=1 n=f#5 v=44
94474 On ch=1 n=g5 v=51
94490 On ch=1 n=b5 v=47
94574 Par ch=1 c=64 v=63
94588 Par ch=1 c=64 v=0
94684 Par ch=1 c=64 v=63
94698 Par ch=1 c=64 v=127
94818 On ch=1 n=f#5 v=0
94838 On ch=1 n=g5 v=0
94874 On ch=1 n=b5 v=0
95018 On ch=1 n=a3 v=0
95044 On ch=1 n=b5 v=55
95048 On ch=1 n=f#5 v=42
95054 On ch=1 n=g5 v=49
95154 On ch=1 n=a4 v=0
95174 On ch=1 n=g5 v=0
95208 On ch=1 n=f#5 v=0
95238 On ch=1 n=b5 v=0
95246 On ch=1 n=d6 v=0
95570 On ch=1 n=e6 v=94
95592 On ch=1 n=b5 v=49
95594 On ch=1 n=g5 v=42
95598 On ch=1 n=e5 v=39
95892 On ch=1 n=b5 v=0
95912 On ch=1 n=e5 v=0
95932 On ch=1 n=g5 v=0
96066 On ch=1 n=g5 v=45
96078 On ch=1 n=b5 v=51
96144 On ch=1 n=e5 v=7
96246 On ch=1 n=g5 v=0
96252 On ch=1 n=b5 v=0
96274 On ch=1 n=e5 v=0
96498 On ch=1 n=b5 v=49
96504 On ch=1 n=g5 v=34
96536 On ch=1 n=e5 v=36
96712 On ch=1 n=b5 v=0
96714 On ch=1 n=e5 v=0
96722 On ch=1 n=g5 v=0
97034 On ch=1 n=d6 v=77
97046 On ch=1 n=b5 v=51
97058 On ch=1 n=g5 v=33
97064 On ch=1 n=f#5 v=65
97066 On ch=1 n=e6 v=0
97362 On ch=1 n=b5 v=0
97388 On ch=1 n=g5 v=0
97516 On ch=1 n=e6 v=96
97522 On ch=1 n=e5 v=54
97538 On ch=1 n=b5 v=63
97544 On ch=1 n=g5 v=47
97556 On ch=1 n=f#5 v=0
97566 On ch=1 n=d6 v=0
97670 On ch=1 n=e6 v=0
97756 On ch=1 n=g5 v=0
97758 On ch=1 n=b5 v=0
97938 On ch=1 n=f#6 v=90
97954 On ch=1 n=e5 v=0
97960 On ch=1 n=g5 v=45
97972 On ch=1 n=d5 v=69
97974 On ch=1 n=b5 v=61
98032 On ch=1 n=b5 v=0
98040 On ch=1 n=f#6 v=0
98046 On ch=1 n=g5 v=0
98334 On ch=1 n=d5 v=0
98400 On ch=1 n=b5 v=87
98426 On ch=1 n=c#5 v=55
98432 On ch=1 n=g5 v=57
98442 On ch=1 n=e5 v=60
98682 On ch=1 n=c#5 v=0
98718 On ch=1 n=e5 v=0
98750 On ch=1 n=g5 v=0
98864 On ch=1 n=g5 v=45
98878 On ch=1 n=c#5 v=29
98880 On ch=1 n=e5 v=57
99074 On ch=1 n=c#5 v=0
99086 On ch=1 n=e5 v=0
99094 On ch=1 n=g5 v=0
99310 On ch=1 n=c#5 v=55
99320 On ch=1 n=a5 v=71
99322 On ch=1 n=a3 v=41
99326 Par ch=1 c=64 v=63
99328 On ch=1 n=b5 v=0
99328 On ch=1 n=a2 v=51
99330 On ch=1 n=e5 v=62
99336 On ch=1 n=g5 v=46
99376 Par ch=1 c=64 v=0
99434 Par ch=1 c=64 v=63
99466 Par ch=1 c=64 v=127
99594 On ch=1 n=c#5 v=0
99640 On ch=1 n=e5 v=0
99668 On ch=1 n=g5 v=0
99746 On ch=1 n=a2 v=0
99780 On ch=1 n=c#5 v=29
99792 On ch=1 n=g5 v=40
99798 On ch=1 n=e5 v=39
99846 On ch=1 n=a3 v=0
99976 On ch=1 n=e5 v=0
99976 On ch=1 n=a5 v=0
99990 On ch=1 n=g5 v=0
100062 On ch=1 n=c#5 v=0
100318 On ch=1 n=f#5 v=72
100324 On ch=1 n=d4 v=39
100340 On ch=1 n=c#5 v=31
100342 On ch=1 n=d5 v=48
100352 On ch=1 n=d3 v=30
100406 Par ch=1 c=64 v=63
100468 Par ch=1 c=64 v=127
100724 On ch=1 n=c#5 v=0
100738 On ch=1 n=d5 v=0
100752 On ch=1 n=f#5 v=0
100880 On ch=1 n=f#5 v=50
100896 On ch=1 n=c#5 v=29
100902 On ch=1 n=d5 v=44
101114 On ch=1 n=c#5 v=0
101122 On ch=1 n=d5 v=0
101138 On ch=1 n=f#5 v=0
101362 On ch=1 n=f#5 v=53
101384 On ch=1 n=d5 v=43
101396 On ch=1 n=c#5 v=10
101466 On ch=1 n=d4 v=0
101582 On ch=1 n=d3 v=0
101590 On ch=1 n=c#5 v=0
101594 On ch=1 n=d5 v=0
101606 On ch=1 n=f#5 v=0
101920 On ch=1 n=f#5 v=50
101932 On ch=1 n=d5 v=41
101938 On ch=1 n=c#5 v=17
102230 On ch=1 n=d5 v=0
102236 On ch=1 n=f#5 v=0
102264 On ch=1 n=c#5 v=0
102648 On ch=1 n=a5 v=76
102660 On ch=1 n=g3 v=37
102668 On ch=1 n=f#5 v=63
102676 On ch=1 n=c#5 v=23
102710 On ch=1 n=g2 v=8
102774 Par ch=1 c=64 v=63
102788 Par ch=1 c=64 v=0
102882 Par ch=1 c=64 v=63
102894 Par ch=1 c=64 v=127
103084 On ch=1 n=c#5 v=0
103104 On ch=1 n=f#5 v=0
103124 On ch=1 n=g2 v=0
103240 On ch=1 n=g3 v=0
103250 On ch=1 n=f#5 v=54
103254 On ch=1 n=c#5 v=42
103284 On ch=1 n=d5 v=48
103446 On ch=1 n=d5 v=0
103474 On ch=1 n=c#5 v=0
103498 On ch=1 n=f#5 v=0
103518 On ch=1 n=a5 v=0
103744 On ch=1 n=b5 v=94
103750 On ch=1 n=b4 v=70
103778 On ch=1 n=f#5 v=69
103780 On ch=1 n=d5 v=53
104008 On ch=1 n=f#5 v=0
104012 On ch=1 n=d5 v=0
104012 On ch=1 n=b4 v=0
104210 On ch=1 n=d5 v=71
104220 On ch=1 n=f#5 v=69
104222 On ch=1 n=b4 v=52
104350 On ch=1 n=b4 v=0
104350 On ch=1 n=d5 v=0
104380 On ch=1 n=f#5 v=0
104642 On ch=1 n=d5 v=78
104642 On ch=1 n=f#5 v=85
104662 On ch=1 n=b4 v=87
104742 On ch=1 n=d5 v=0
104744 On ch=1 n=b5 v=0
104762 On ch=1 n=f#5 v=0
104770 On ch=1 n=b4 v=0
105102 On ch=1 n=a5 v=102
105122 On ch=1 n=c#5 v=96
105130 On ch=1 n=f#5 v=76
105130 On ch=1 n=d5 v=82
105184 On ch=1 n=d5 v=0
105194 On ch=1 n=c#5 v=0
105242 On ch=1 n=a5 v=0
105244 On ch=1 n=f#5 v=0
105600 On ch=1 n=b5 v=102
105608 On ch=1 n=f#5 v=95
105608 On ch=1 n=b4 v=93
105610 On ch=1 n=d5 v=92
105616 On ch=1 n=b2 v=98
105616 On ch=1 n=b3 v=94
105634 Par ch=1 c=64 v=63
105640 Par ch=1 c=64 v=0
105724 Par ch=1 c=64 v=63
105738 Par ch=1 c=64 v=127
105786 On ch=1 n=b2 v=0
105796 On ch=1 n=b4 v=0
105828 On ch=1 n=d5 v=0
105846 On ch=1 n=b3 v=0
105850 On ch=1 n=b5 v=0
105896 On ch=1 n=f#5 v=0
106162 On ch=1 n=c#6 v=112
106172 On ch=1 n=f#5 v=101
106176 On ch=1 n=a4 v=97
106178 On ch=1 n=d5 v=74
106224 On ch=1 n=d5 v=0
106248 On ch=1 n=f#5 v=0
106260 On ch=1 n=a4 v=0
106296 On ch=1 n=c#6 v=0
106856 On ch=1 n=f#5 v=108
106870 On ch=1 n=g#4 v=92
106872 On ch=1 n=b3 v=92
106880 On ch=1 n=e3 v=87
106882 On ch=1 n=d5 v=88
106888 On ch=1 n=c#5 v=88
106978 Par ch=1 c=64 v=63
106990 Par ch=1 c=64 v=0
107106 Par ch=1 c=64 v=63
107116 Par ch=1 c=64 v=127
107558 On ch=1 n=g#4 v=0
107566 On ch=1 n=c#5 v=0
107596 On ch=1 n=d5 v=0
107600 On ch=1 n=f#5 v=0
107682 On ch=1 n=e3 v=0
108044 On ch=1 n=b3 v=0
108190 On ch=1 n=e5 v=104
108190 On ch=1 n=c#5 v=95
108194 On ch=1 n=b4 v=92
108198 On ch=1 n=g4 v=85
108204 On ch=1 n=a3 v=87
108212 On ch=1 n=e4 v=87
108440 Par ch=1 c=64 v=63
108458 Par ch=1 c=64 v=0
108612 Par ch=1 c=64 v=63
108624 Par ch=1 c=64 v=127
109010 On ch=1 n=g4 v=0
109032 On ch=1 n=e5 v=0
109092 On ch=1 n=b4 v=0
109136 On ch=1 n=c#5 v=0
109238 On ch=1 n=e4 v=0
109454 On ch=1 n=a3 v=0
109672 On ch=1 n=d5 v=113
109678 On ch=1 n=a4 v=88
109678 On ch=1 n=f#4 v=108
109688 On ch=1 n=d4 v=86
109712 Par ch=1 c=64 v=63
109724 Par ch=1 c=64 v=0
109806 Par ch=1 c=64 v=63
109826 Par ch=1 c=64 v=127
109924 On ch=1 n=a4 v=0
109944 On ch=1 n=f#4 v=0
110116 On ch=1 n=d5 v=0
110150 On ch=1 n=e5 v=108
110152 On ch=1 n=d4 v=0
110154 On ch=1 n=e4 v=107
110160 On ch=1 n=g4 v=98
110160 On ch=1 n=a3 v=97
110164 On ch=1 n=c#5 v=106
110164 On ch=1 n=b4 v=101
110188 Par ch=1 c=64 v=63
110196 Par ch=1 c=64 v=0
110268 Par ch=1 c=64 v=63
110280 Par ch=1 c=64 v=127
110368 On ch=1 n=e5 v=0
110384 On ch=1 n=b4 v=0
110384 On ch=1 n=g4 v=0
110410 On ch=1 n=a3 v=0
110412 On ch=1 n=c#5 v=0
110602 On ch=1 n=e4 v=0
110614 On ch=1 n=f#5 v=112
110624 On ch=1 n=e3 v=104
110626 On ch=1 n=g#4 v=103
110626 On ch=1 n=b3 v=107
110628 On ch=1 n=d5 v=100
110632 On ch=1 n=c#5 v=97
110664 Par ch=1 c=64 v=63
110670 Par ch=1 c=64 v=0
110770 Par ch=1 c=64 v=63
110778 Par ch=1 c=64 v=127
110934 On ch=1 n=d5 v=0
110948 On ch=1 n=c#5 v=0
110952 On ch=1 n=f#5 v=0
111008 On ch=1 n=g#4 v=0
111168 On ch=1 n=e5 v=103
111174 On ch=1 n=c#5 v=97
111174 On ch=1 n=e4 v=96
111178 On ch=1 n=a3 v=85
111178 On ch=1 n=g4 v=86
111182 On ch=1 n=b4 v=90
111204 On ch=1 n=e3 v=0
111250 On ch=1 n=b3 v=0
111280 Par ch=1 c=64 v=63
111290 Par ch=1 c=64 v=0
111468 Par ch=1 c=64 v=63
111478 Par ch=1 c=64 v=127
111790 On ch=1 n=g4 v=0
111860 On ch=1 n=e5 v=0
111872 On ch=1 n=b4 v=0
111984 On ch=1 n=c#5 v=0
111998 On ch=1 n=e4 v=0
112416 On ch=1 n=a3 v=0
112422 On ch=1 n=f#4 v=59
112430 On ch=1 n=d5 v=76
112434 On ch=1 n=a4 v=36
112448 On ch=1 n=d4 v=44
112550 Par ch=1 c=64 v=63
112564 Par ch=1 c=64 v=0
112696 Par ch=1 c=64 v=63
112708 Par ch=1 c=64 v=127
113022 On ch=1 n=f#4 v=0
113080 On ch=1 n=a4 v=0
113080 On ch=1 n=d5 v=0
113184 On ch=1 n=d4 v=0
113270 Par ch=1 c=67 v=0
113512 Par ch=1 c=64 v=63
113538 Par ch=1 c=64 v=0
113724 Par ch=1 c=64 v=63
113734 Par ch=1 c=64 v=127
113818 On ch=1 n=f#5 v=110
113828 On ch=1 n=b3 v=101
113828 On ch=1 n=g#4 v=101
113832 On ch=1 n=e3 v=89
113834 On ch=1 n=d5 v=101
113892 On ch=1 n=b3 v=0
113910 On ch=1 n=e3 v=0
114502 On ch=1 n=f#5 v=0
114526 On ch=1 n=g#4 v=0
114544 On ch=1 n=d5 v=0
114980 On ch=1 n=e5 v=106
114986 On ch=1 n=f#4 v=107
114992 On ch=1 n=c5 v=108
114994 On ch=1 n=d3 v=102
114996 On ch=1 n=a3 v=109
115102 Par ch=1 c=64 v=63
115116 Par ch=1 c=64 v=0
116192 Par ch=1 c=64 v=63
116194 Par ch=1 c=64 v=127
116312 On ch=1 n=e5 v=0
116332 On ch=1 n=c5 v=0
116378 On ch=1 n=d3 v=0
116392 On ch=1 n=f#4 v=0
116612 On ch=1 n=a3 v=0
116714 On ch=1 n=d5 v=107
116724 On ch=1 n=g3 v=106
116724 On ch=1 n=c3 v=102
116726 On ch=1 n=a#4 v=109
116726 On ch=1 n=e4 v=104
116760 Par ch=1 c=64 v=63
116770 Par ch=1 c=64 v=0
116828 Par ch=1 c=64 v=63
116846 Par ch=1 c=64 v=127
116950 On ch=1 n=d5 v=0
116976 On ch=1 n=e4 v=0
117048 On ch=1 n=a#4 v=0
117188 On ch=1 n=g3 v=0
117298 On ch=1 n=e5 v=107
117302 On ch=1 n=c3 v=0
117308 On ch=1 n=f#4 v=110
117312 On ch=1 n=c5 v=104
117314 On ch=1 n=a3 v=108
117324 On ch=1 n=d3 v=102
117370 Par ch=1 c=64 v=63
117380 Par ch=1 c=64 v=0
117468 Par ch=1 c=64 v=63
117482 Par ch=1 c=64 v=127
117554 On ch=1 n=c5 v=0
117554 On ch=1 n=e5 v=0
117594 On ch=1 n=f#4 v=0
117632 On ch=1 n=a3 v=0
117796 On ch=1 n=f#5 v=113
117806 On ch=1 n=d3 v=0
117808 On ch=1 n=g#4 v=106
117810 On ch=1 n=e3 v=100
117810 On ch=1 n=d5 v=98
117812 On ch=1 n=b3 v=101
117870 Par ch=1 c=64 v=63
117880 Par ch=1 c=64 v=0
117942 Par ch=1 c=64 v=63
117960 Par ch=1 c=64 v=127
118142 On ch=1 n=f#5 v=0
118160 On ch=1 n=g#4 v=0
118162 On ch=1 n=b3 v=0
118190 On ch=1 n=d5 v=0
118420 On ch=1 n=e5 v=111
118430 On ch=1 n=b4 v=100
118434 On ch=1 n=d4 v=98
118434 On ch=1 n=g4 v=89
118436 On ch=1 n=f4 v=98
118438 On ch=1 n=g3 v=92
118456 On ch=1 n=e3 v=0
118522 Par ch=1 c=64 v=63
118532 Par ch=1 c=64 v=0
118658 Par ch=1 c=64 v=63
118668 Par ch=1 c=64 v=127
118882 On ch=1 n=g3 v=0
119206 On ch=1 n=d4 v=0
119208 On ch=1 n=f4 v=0
119220 On ch=1 n=g4 v=0
119238 On ch=1 n=g#4 v=85
119246 On ch=1 n=f#4 v=75
119426 On ch=1 n=g#4 v=0
119492 On ch=1 n=f#4 v=0
119592 On ch=1 n=b4 v=0
120054 On ch=1 n=e5 v=0
120342 On ch=1 n=f#4 v=40
120356 On ch=1 n=d5 v=62
120376 On ch=1 n=a3 v=36
120382 On ch=1 n=d3 v=41
120386 On ch=1 n=a4 v=40
120388 On ch=1 n=c5 v=54
120672 Par ch=1 c=64 v=63
120734 Par ch=1 c=64 v=0
121362 Par ch=1 c=64 v=63
121378 Par ch=1 c=64 v=127
121616 On ch=1 n=f#4 v=0
121664 On ch=1 n=d3 v=0
121666 On ch=1 n=a4 v=0
121690 On ch=1 n=c5 v=0
121704 On ch=1 n=a3 v=0
121740 On ch=1 n=d5 v=0
122130 On ch=1 n=g3 v=46
122248 Par ch=1 c=64 v=63
122250 Par ch=1 c=64 v=127
122338 On ch=1 n=d4 v=44
122470 On ch=1 n=g3 v=0
122520 On ch=1 n=d5 v=52
122640 On ch=1 n=d5 v=0
122656 On ch=1 n=b5 v=37
122688 On ch=1 n=b4 v=7
122804 On ch=1 n=b5 v=0
122884 On ch=1 n=d4 v=0
122940 On ch=1 n=g6 v=63
122976 On ch=1 n=b4 v=0
123014 On ch=1 n=g6 v=0
123696 On ch=1 n=d6 v=47
123826 On ch=1 n=d6 v=0
124192 On ch=1 n=g5 v=47
124194 On ch=1 n=b5 v=54
124206 On ch=1 n=d5 v=25
124230 On ch=1 n=b4 v=24
124268 On ch=1 n=g5 v=0
124326 On ch=1 n=b4 v=0
124390 On ch=1 n=d5 v=0
124454 On ch=1 n=b5 v=0
124680 On ch=1 n=d6 v=42
124914 On ch=1 n=c3 v=57
125030 On ch=1 n=g3 v=49
125060 On ch=1 n=d6 v=0
125074 On ch=1 n=c3 v=0
125092 Par ch=1 c=64 v=63
125142 On ch=1 n=b5 v=52
125144 On ch=1 n=e5 v=51
125154 Par ch=1 c=64 v=127
125176 On ch=1 n=e4 v=54
125342 On ch=1 n=e5 v=0
125344 On ch=1 n=b5 v=0
125390 On ch=1 n=g3 v=0
125498 On ch=1 n=e4 v=0
125774 On ch=1 n=a6 v=85
125888 On ch=1 n=a6 v=0
126258 On ch=1 n=g5 v=40
126262 On ch=1 n=f#6 v=82
126270 On ch=1 n=b4 v=30
126274 On ch=1 n=e5 v=41
126294 On ch=1 n=b5 v=41
126356 On ch=1 n=b5 v=0
126368 On ch=1 n=g5 v=0
126404 On ch=1 n=e5 v=0
126466 On ch=1 n=b4 v=0
126488 On ch=1 n=f#6 v=0
126730 On ch=1 n=e6 v=80
126804 On ch=1 n=e6 v=0
126906 On ch=1 n=d3 v=71
127016 On ch=1 n=d3 v=0
127066 On ch=1 n=b3 v=32
127114 On ch=1 n=b4 v=48
127142 On ch=1 n=f#5 v=68
127188 On ch=1 n=b4 v=0
127220 On ch=1 n=f#5 v=0
127290 On ch=1 n=b3 v=0
127294 On ch=1 n=d6 v=84
127308 On ch=1 n=f#4 v=52
127360 On ch=1 n=f#4 v=0
127390 On ch=1 n=d6 v=0
127802 On ch=1 n=b5 v=68
127906 On ch=1 n=b5 v=0
128204 On ch=1 n=f#5 v=72
128214 On ch=1 n=e6 v=96
128226 On ch=1 n=b4 v=54
128260 On ch=1 n=f#5 v=0
128294 On ch=1 n=e6 v=0
128312 On ch=1 n=b4 v=0
128682 On ch=1 n=f#6 v=91
128702 On ch=1 n=b5 v=65
128726 Par ch=1 c=64 v=63
128778 Par ch=1 c=64 v=127
128832 On ch=1 n=e3 v=70
128854 On ch=1 n=b5 v=0
128896 On ch=1 n=f#6 v=0
128914 On ch=1 n=b3 v=50
128988 On ch=1 n=e3 v=0
129080 On ch=1 n=e5 v=31
129100 On ch=1 n=b5 v=67
129130 On ch=1 n=e5 v=0
129146 On ch=1 n=b3 v=0
129146 On ch=1 n=g4 v=41
129162 On ch=1 n=b5 v=0
129206 On ch=1 n=f#6 v=98
129282 On ch=1 n=g4 v=0
129296 On ch=1 n=f#6 v=0
129722 On ch=1 n=e6 v=56
129732 On ch=1 n=b5 v=62
129800 On ch=1 n=b5 v=0
129862 On ch=1 n=e6 v=0
130210 On ch=1 n=e6 v=71
130222 On ch=1 n=g5 v=29
130234 On ch=1 n=e5 v=29
130246 On ch=1 n=b4 v=26
130396 On ch=1 n=g5 v=0
130458 On ch=1 n=e5 v=0
130530 On ch=1 n=b4 v=0
130736 On ch=1 n=b5 v=50
130826 On ch=1 n=b5 v=0
130876 On ch=1 n=e6 v=0
131082 On ch=1 n=c4 v=54
131126 Par ch=1 c=64 v=63
131136 Par ch=1 c=64 v=0
131178 Par ch=1 c=64 v=63
131192 On ch=1 n=g4 v=52
131202 Par ch=1 c=64 v=127
131268 On ch=1 n=c4 v=0
131384 On ch=1 n=b6 v=97
131388 On ch=1 n=e5 v=45
131416 On ch=1 n=c6 v=40
131418 On ch=1 n=b5 v=34
131524 On ch=1 n=g4 v=0
131536 On ch=1 n=b5 v=0
131544 On ch=1 n=c6 v=0
131646 On ch=1 n=e5 v=0
132014 On ch=1 n=e6 v=57
132166 On ch=1 n=e6 v=0
132478 On ch=1 n=c6 v=71
132480 On ch=1 n=b5 v=71
132522 On ch=1 n=e5 v=41
132620 On ch=1 n=e5 v=0
132622 On ch=1 n=b5 v=0
132626 On ch=1 n=c6 v=0
132956 On ch=1 n=e6 v=76
133156 On ch=1 n=a3 v=71
133254 On ch=1 n=e4 v=72
133266 Par ch=1 c=64 v=63
133326 Par ch=1 c=64 v=127
133354 On ch=1 n=a3 v=0
133386 On ch=1 n=b6 v=0
133428 On ch=1 n=c5 v=84
133430 On ch=1 n=b5 v=80
133432 On ch=1 n=c6 v=83
133522 On ch=1 n=e6 v=0
133624 On ch=1 n=b5 v=0
133630 On ch=1 n=e4 v=0
133666 On ch=1 n=c6 v=0
133720 On ch=1 n=c5 v=0
133878 On ch=1 n=c7 v=101
133894 On ch=1 n=e6 v=65
133966 On ch=1 n=e6 v=0
134040 On ch=1 n=c7 v=0
134348 On ch=1 n=g5 v=42
134348 On ch=1 n=a6 v=98
134350 On ch=1 n=c6 v=75
134354 On ch=1 n=a5 v=65
134370 On ch=1 n=e5 v=57
134462 On ch=1 n=a6 v=0
134520 On ch=1 n=c6 v=0
134540 On ch=1 n=a5 v=0
134572 On ch=1 n=g5 v=0
134642 On ch=1 n=e5 v=0
134834 On ch=1 n=g6 v=99
134842 On ch=1 n=g5 v=77
134866 On ch=1 n=e6 v=69
134950 On ch=1 n=g5 v=0
135016 On ch=1 n=e6 v=0
135024 On ch=1 n=g6 v=0
135104 On ch=1 n=b3 v=73
135220 On ch=1 n=f#4 v=73
135238 Par ch=1 c=64 v=63
135270 Par ch=1 c=64 v=127
135294 On ch=1 n=b3 v=0
135368 On ch=1 n=f#6 v=103
135380 On ch=1 n=f#5 v=79
135422 On ch=1 n=d5 v=72
135906 On ch=1 n=b5 v=57
135922 On ch=1 n=d6 v=60
135942 On ch=1 n=f#4 v=0
135972 On ch=1 n=f#5 v=0
136000 On ch=1 n=d5 v=0
136038 On ch=1 n=f#6 v=0
136132 On ch=1 n=b5 v=0
136230 On ch=1 n=d6 v=0
136402 On ch=1 n=f#5 v=59
136408 On ch=1 n=b5 v=53
136408 On ch=1 n=g6 v=92
136414 On ch=1 n=g5 v=74
136424 On ch=1 n=d5 v=51
136568 On ch=1 n=g5 v=0
136610 On ch=1 n=g6 v=0
136634 On ch=1 n=b5 v=0
136712 On ch=1 n=f#5 v=0
136736 On ch=1 n=d5 v=0
136862 On ch=1 n=a6 v=103
136880 On ch=1 n=a5 v=70
136898 On ch=1 n=d6 v=72
137026 Par ch=1 c=64 v=63
137034 Par ch=1 c=64 v=0
137068 Par ch=1 c=64 v=63
137082 Par ch=1 c=64 v=127
137090 On ch=1 n=g3 v=85
137210 On ch=1 n=a6 v=0
137226 On ch=1 n=d6 v=0
137278 On ch=1 n=a5 v=0
137328 On ch=1 n=g3 v=0
137354 On ch=1 n=d4 v=57
137450 On ch=1 n=f#5 v=91
137456 On ch=1 n=b4 v=51
137484 On ch=1 n=b5 v=53
137552 On ch=1 n=f#5 v=0
137600 On ch=1 n=b5 v=0
137608 On ch=1 n=d4 v=0
137722 On ch=1 n=b4 v=0
137998 On ch=1 n=b6 v=96
138016 On ch=1 n=d6 v=60
138068 On ch=1 n=d6 v=0
138100 On ch=1 n=b6 v=0
138448 On ch=1 n=g6 v=99
138464 On ch=1 n=g5 v=62
138468 On ch=1 n=b5 v=60
138480 On ch=1 n=f#5 v=49
138484 On ch=1 n=d5 v=41
138534 On ch=1 n=f#5 v=0
138538 On ch=1 n=g5 v=0
138550 On ch=1 n=g6 v=0
138552 On ch=1 n=b5 v=0
138624 On ch=1 n=d5 v=0
138888 On ch=1 n=f#6 v=94
138902 On ch=1 n=d6 v=79
138952 On ch=1 n=d6 v=0
138992 On ch=1 n=f#6 v=0
139128 On ch=1 n=a3 v=61
139218 On ch=1 n=e4 v=50
139276 On ch=1 n=a3 v=0
139346 On ch=1 n=e6 v=96
139360 On ch=1 n=e5 v=56
139362 On ch=1 n=b5 v=73
139396 On ch=1 n=c5 v=36
139518 Par ch=1 c=64 v=63
139528 Par ch=1 c=64 v=0
139572 Par ch=1 c=64 v=63
139590 Par ch=1 c=64 v=127
139742 On ch=1 n=e4 v=0
139762 On ch=1 n=e5 v=0
139814 On ch=1 n=c6 v=72
139828 On ch=1 n=c5 v=0
139886 On ch=1 n=b5 v=0
139916 On ch=1 n=e6 v=0
139948 On ch=1 n=c6 v=0
140240 On ch=1 n=f#6 v=105
140250 On ch=1 n=f#5 v=98
140252 On ch=1 n=a5 v=40
140266 On ch=1 n=c5 v=38
140284 On ch=1 n=e5 v=16
140340 On ch=1 n=a5 v=0
140356 On ch=1 n=e5 v=0
140376 On ch=1 n=f#5 v=0
140422 On ch=1 n=c5 v=0
140482 On ch=1 n=f#6 v=0
140736 On ch=1 n=g6 v=100
140754 On ch=1 n=g5 v=66
140762 On ch=1 n=c6 v=76
140810 Par ch=1 c=64 v=63
140820 Par ch=1 c=64 v=0
140858 Par ch=1 c=64 v=63
140874 Par ch=1 c=64 v=127
140906 On ch=1 n=f#3 v=77
140960 On ch=1 n=g6 v=0
140984 On ch=1 n=c6 v=0
141014 On ch=1 n=g5 v=0
141082 On ch=1 n=f#3 v=0
141094 On ch=1 n=c4 v=73
141234 On ch=1 n=a5 v=65
141236 On ch=1 n=e5 v=72
141260 On ch=1 n=a4 v=63
141320 On ch=1 n=e5 v=0
141358 On ch=1 n=a5 v=0
141568 On ch=1 n=c4 v=0
141690 On ch=1 n=a4 v=0
141776 On ch=1 n=a6 v=93
141794 On ch=1 n=c6 v=72
141858 On ch=1 n=c6 v=0
141896 On ch=1 n=a6 v=0
142286 On ch=1 n=f#6 v=93
142304 On ch=1 n=f#5 v=72
142310 On ch=1 n=a5 v=42
142314 On ch=1 n=e5 v=41
142318 On ch=1 n=c5 v=45
142420 On ch=1 n=f#5 v=0
142438 On ch=1 n=f#6 v=0
142458 On ch=1 n=a5 v=0
142506 On ch=1 n=e5 v=0
142558 On ch=1 n=c5 v=0
142778 On ch=1 n=e6 v=76
142800 On ch=1 n=c6 v=57
142856 On ch=1 n=c6 v=0
142888 On ch=1 n=e6 v=0
143060 On ch=1 n=b3 v=58
143154 Par ch=1 c=64 v=63
143166 Par ch=1 c=64 v=0
143180 On ch=1 n=f#4 v=72
143188 Par ch=1 c=64 v=63
143208 Par ch=1 c=64 v=127
143234 On ch=1 n=b3 v=0
143344 On ch=1 n=f#6 v=86
143364 On ch=1 n=f#5 v=43
143368 On ch=1 n=b5 v=63
143374 On ch=1 n=d5 v=54
143516 On ch=1 n=f#5 v=0
143700 On ch=1 n=f#4 v=0
143796 On ch=1 n=d5 v=0
143820 On ch=1 n=b5 v=0
143928 On ch=1 n=d6 v=55
144064 On ch=1 n=f#6 v=0
144068 On ch=1 n=d6 v=0
144416 On ch=1 n=f#5 v=55
144420 On ch=1 n=b5 v=63
144426 On ch=1 n=b4 v=46
144434 On ch=1 n=d5 v=54
144504 On ch=1 n=f#5 v=0
144590 On ch=1 n=b4 v=0
144596 On ch=1 n=d5 v=0
144888 On ch=1 n=d6 v=48
144960 On ch=1 n=b5 v=0
145042 On ch=1 n=d6 v=0
145518 On ch=1 n=c6 v=57
145520 On ch=1 n=f#3 v=53
145560 On ch=1 n=e5 v=11
145564 On ch=1 n=a5 v=25
145628 Par ch=1 c=64 v=63
145636 Par ch=1 c=64 v=0
145672 Par ch=1 c=64 v=63
145692 Par ch=1 c=64 v=127
145862 On ch=1 n=c6 v=0
145882 On ch=1 n=a5 v=0
145910 On ch=1 n=e5 v=0
146240 On ch=1 n=a5 v=75
146270 On ch=1 n=c5 v=41
146280 On ch=1 n=e5 v=49
146484 On ch=1 n=e5 v=0
146520 On ch=1 n=a5 v=0
146542 On ch=1 n=c5 v=0
146676 On ch=1 n=f#3 v=0
146790 On ch=1 n=f#5 v=91
146794 On ch=1 n=b3 v=65
146796 On ch=1 n=d5 v=71
146802 On ch=1 n=b4 v=60
146844 Par ch=1 c=64 v=63
146878 Par ch=1 c=64 v=127
146992 On ch=1 n=d5 v=0
147004 On ch=1 n=f#5 v=0
147050 On ch=1 n=b4 v=0
147302 On ch=1 n=e5 v=97
147320 On ch=1 n=f#4 v=88
147326 On ch=1 n=c5 v=83
147330 On ch=1 n=d4 v=75
147380 Par ch=1 c=64 v=63
147390 Par ch=1 c=64 v=0
147404 On ch=1 n=b3 v=0
147434 Par ch=1 c=64 v=63
147452 Par ch=1 c=64 v=127
147576 On ch=1 n=c5 v=0
147606 On ch=1 n=f#4 v=0
147636 On ch=1 n=e5 v=0
147896 On ch=1 n=f#5 v=107
147898 On ch=1 n=b3 v=63
147904 On ch=1 n=d4 v=0
147916 On ch=1 n=b4 v=77
147918 On ch=1 n=d5 v=80
148146 Par ch=1 c=64 v=63
148160 Par ch=1 c=64 v=0
148396 Par ch=1 c=64 v=63
148396 Par ch=1 c=64 v=127
148584 On ch=1 n=b4 v=0
148650 On ch=1 n=d5 v=0
148708 On ch=1 n=f#5 v=0
149166 On ch=1 n=b6 v=92
149176 On ch=1 n=b5 v=66
150338 On ch=1 n=b2 v=64
151214 On ch=1 n=b5 v=0
151230 On ch=1 n=b6 v=0
151240 On ch=1 n=b2 v=0
151372 On ch=1 n=b3 v=0
151750 On ch=1 n=b6 v=99
151760 On ch=1 n=b5 v=90
152244 On ch=1 n=b5 v=0
152362 On ch=1 n=b6 v=0
152442 On ch=1 n=b4 v=71
152616 On ch=1 n=c5 v=74
152682 On ch=1 n=e5 v=68
152776 On ch=1 n=b5 v=83
152860 On ch=1 n=b5 v=0
152860 On ch=1 n=e5 v=0
152862 On ch=1 n=c6 v=72
152888 On ch=1 n=c5 v=0
152902 On ch=1 n=b4 v=0
152998 On ch=1 n=e6 v=57
153108 On ch=1 n=b6 v=67
153230 On ch=1 n=a3 v=67
153302 On ch=1 n=c6 v=0
153318 On ch=1 n=e4 v=80
153422 On ch=1 n=a3 v=0
153546 On ch=1 n=b5 v=91
153554 On ch=1 n=b4 v=26
153642 On ch=1 n=e6 v=0
153698 Par ch=1 c=64 v=63
153718 Par ch=1 c=64 v=0
153730 Par ch=1 c=64 v=63
153758 Par ch=1 c=64 v=127
154058 On ch=1 n=e4 v=0
154206 On ch=1 n=e6 v=44
154246 On ch=1 n=c6 v=24
154322 On ch=1 n=b4 v=0
154344 On ch=1 n=b5 v=0
154668 On ch=1 n=e5 v=79
154670 On ch=1 n=c5 v=84
154918 On ch=1 n=c6 v=0
154950 On ch=1 n=e6 v=0
155088 On ch=1 n=e6 v=86
155106 On ch=1 n=c6 v=97
155526 On ch=1 n=b4 v=101
155592 On ch=1 n=b6 v=0
155614 On ch=1 n=c6 v=0
155692 On ch=1 n=e6 v=0
155844 On ch=1 n=b4 v=0
155858 On ch=1 n=e5 v=0
155938 On ch=1 n=c5 v=0
155988 On ch=1 n=a6 v=104
155992 On ch=1 n=a5 v=101
155998 On ch=1 n=g6 v=97
156000 On ch=1 n=e6 v=92
156004 On ch=1 n=a4 v=87
156006 On ch=1 n=e5 v=86
156006 On ch=1 n=g5 v=87
156082 On ch=1 n=e6 v=0
156114 On ch=1 n=a5 v=0
156196 On ch=1 n=g6 v=0
156204 On ch=1 n=a6 v=0
156492 On ch=1 n=d5 v=99
156494 On ch=1 n=d7 v=112
156500 On ch=1 n=d6 v=94
156530 On ch=1 n=a4 v=0
156578 On ch=1 n=e5 v=0
156588 On ch=1 n=d6 v=0
156602 On ch=1 n=d7 v=0
156718 On ch=1 n=g5 v=0
156952 On ch=1 n=d5 v=0
157014 On ch=1 n=b6 v=106
157024 On ch=1 n=b4 v=77
157026 On ch=1 n=g5 v=72
157026 On ch=1 n=e6 v=94
157030 On ch=1 n=b5 v=84
157032 On ch=1 n=c6 v=90
157034 On ch=1 n=c5 v=81
157034 On ch=1 n=e5 v=73
157322 On ch=1 n=c6 v=0
157322 On ch=1 n=b5 v=0
157346 On ch=1 n=b6 v=0
157416 On ch=1 n=b4 v=0
157434 On ch=1 n=e5 v=0
157452 On ch=1 n=e6 v=0
157458 On ch=1 n=c5 v=0
157484 On ch=1 n=g5 v=0
157564 Par ch=1 c=64 v=63
157572 On ch=1 n=b6 v=106
157580 Par ch=1 c=64 v=0
157582 On ch=1 n=b5 v=100
157594 On ch=1 n=b4 v=96
157620 Par ch=1 c=64 v=63
157634 Par ch=1 c=64 v=127
157732 On ch=1 n=b6 v=0
157748 On ch=1 n=b4 v=0
157772 On ch=1 n=b5 v=0
158174 On ch=1 n=f#4 v=85
158176 On ch=1 n=e5 v=86
158182 On ch=1 n=d3 v=57
158198 On ch=1 n=a3 v=58
158200 On ch=1 n=c5 v=77
158302 On ch=1 n=f#4 v=0
158326 On ch=1 n=d3 v=0
158344 On ch=1 n=a3 v=0
158352 On ch=1 n=c5 v=0
158394 On ch=1 n=e5 v=0
158852 On ch=1 n=f#4 v=98
158860 On ch=1 n=a6 v=104
158872 On ch=1 n=a5 v=80
159462 On ch=1 n=c6 v=68
159464 On ch=1 n=e6 v=62
159506 On ch=1 n=c5 v=38
159512 On ch=1 n=e5 v=31
159688 On ch=1 n=a5 v=0
159708 On ch=1 n=a6 v=0
159916 On ch=1 n=f#4 v=0
159948 On ch=1 n=g6 v=106
159958 On ch=1 n=g5 v=86
159964 On ch=1 n=b4 v=87
160000 On ch=1 n=c5 v=0
160004 On ch=1 n=e5 v=0
160012 On ch=1 n=c6 v=0
160036 On ch=1 n=e6 v=0
160216 Par ch=1 c=64 v=63
160216 Par ch=1 c=64 v=127
160412 On ch=1 n=e6 v=75
160418 On ch=1 n=c6 v=74
160434 On ch=1 n=e5 v=80
160442 On ch=1 n=c5 v=69
160622 On ch=1 n=g6 v=0
160656 On ch=1 n=g5 v=0
160852 On ch=1 n=a6 v=96
160862 On ch=1 n=a5 v=77
160864 On ch=1 n=e5 v=0
160864 On ch=1 n=a4 v=69
160900 On ch=1 n=c5 v=0
160928 On ch=1 n=b4 v=0
160934 On ch=1 n=e6 v=0
160940 On ch=1 n=c6 v=0
161352 On ch=1 n=c5 v=57
161356 On ch=1 n=e6 v=59
161358 On ch=1 n=e5 v=50
161360 On ch=1 n=c6 v=54
161532 On ch=1 n=a6 v=0
161624 On ch=1 n=a5 v=0
161726 On ch=1 n=e5 v=0
161740 On ch=1 n=e6 v=0
161798 On ch=1 n=c6 v=0
161904 On ch=1 n=c5 v=0
162022 On ch=1 n=e6 v=93
162026 On ch=1 n=e5 v=71
162028 On ch=1 n=a4 v=0
162046 On ch=1 n=g4 v=48
162160 Par ch=1 c=64 v=63
162200 Par ch=1 c=64 v=127
162590 On ch=1 n=e5 v=0
162598 On ch=1 n=e6 v=0
162688 On ch=1 n=e6 v=19
162704 On ch=1 n=b5 v=61
162724 On ch=1 n=e5 v=32
162724 On ch=1 n=b4 v=30
163498 On ch=1 n=b5 v=0
163538 On ch=1 n=b4 v=0
163574 On ch=1 n=e5 v=0
163614 On ch=1 n=e6 v=0
163840 On ch=1 n=b4 v=39
163854 On ch=1 n=e6 v=40
163860 On ch=1 n=b5 v=21
163870 On ch=1 n=e5 v=25
163962 On ch=1 n=e5 v=0
163978 On ch=1 n=b4 v=0
164014 On ch=1 n=g4 v=0
164446 On ch=1 n=e4 v=36
164446 On ch=1 n=e3 v=48
164610 On ch=1 n=e6 v=0
164668 On ch=1 n=b5 v=0
164720 On ch=1 n=e4 v=0
164988 On ch=1 n=d6 v=73
165002 On ch=1 n=d3 v=67
165002 On ch=1 n=d5 v=58
165010 On ch=1 n=c6 v=76
165028 On ch=1 n=d4 v=27
165040 On ch=1 n=c4 v=30
165058 On ch=1 n=e3 v=0
165066 Par ch=1 c=64 v=63
165082 Par ch=1 c=64 v=127
165218 On ch=1 n=d3 v=0
165228 On ch=1 n=d5 v=0
165276 On ch=1 n=c6 v=0
165286 On ch=1 n=d6 v=0
165294 On ch=1 n=c4 v=0
165300 On ch=1 n=d4 v=0
165558 On ch=1 n=g6 v=92
165564 On ch=1 n=g3 v=62
165566 On ch=1 n=g4 v=47
165578 On ch=1 n=g5 v=46
165816 On ch=1 n=g6 v=0
165852 On ch=1 n=g3 v=0
165862 On ch=1 n=g4 v=0
165894 On ch=1 n=g5 v=0
166218 On ch=1 n=f#6 v=80
166230 On ch=1 n=f#4 v=31
166238 On ch=1 n=f#5 v=43
166238 On ch=1 n=c4 v=54
166242 On ch=1 n=d6 v=57
166258 On ch=1 n=d4 v=44
166264 On ch=1 n=f#3 v=28
166268 On ch=1 n=c6 v=44
166276 Par ch=1 c=64 v=63
166284 Par ch=1 c=64 v=127
166444 On ch=1 n=f#4 v=0
166474 On ch=1 n=c6 v=0
166476 On ch=1 n=c4 v=0
166478 On ch=1 n=d4 v=0
166498 On ch=1 n=f#6 v=0
166514 On ch=1 n=d6 v=0
166522 On ch=1 n=f#5 v=0
166566 On ch=1 n=f#3 v=0
167038 On ch=1 n=e6 v=55
167048 On ch=1 n=b5 v=48
167052 On ch=1 n=e4 v=35
167054 On ch=1 n=b3 v=38
167054 On ch=1 n=e5 v=37
167056 On ch=1 n=e3 v=35
167120 Par ch=1 c=64 v=63
167130 Par ch=1 c=64 v=0
167206 Par ch=1 c=64 v=63
167226 Par ch=1 c=64 v=127
167404 On ch=1 n=e3 v=0
167448 On ch=1 n=b3 v=0
167470 On ch=1 n=e4 v=0
167506 On ch=1 n=e5 v=0
167558 On ch=1 n=b5 v=0
167572 On ch=1 n=e6 v=0
167988 On ch=1 n=b4 v=108
168100 Par ch=1 c=64 v=63
168108 Par ch=1 c=64 v=0
168328 Par ch=1 c=64 v=127
168568 On ch=1 n=b4 v=0
168620 On ch=1 n=b5 v=113
168628 On ch=1 n=d5 v=109
168998 On ch=1 n=d5 v=0
169282 On ch=1 n=e5 v=117
169518 Par ch=1 c=64 v=63
169522 Par ch=1 c=64 v=0
169544 On ch=1 n=e3 v=106
169550 On ch=1 n=b3 v=109
169578 Par ch=1 c=64 v=63
169592 Par ch=1 c=64 v=127
169650 On ch=1 n=b5 v=0
169732 On ch=1 n=e5 v=0
169744 On ch=1 n=e3 v=0
170112 On ch=1 n=d6 v=109
170120 On ch=1 n=d5 v=108
170128 On ch=1 n=g#4 v=115
170942 On ch=1 n=d5 v=0
170962 On ch=1 n=d6 v=0
171000 On ch=1 n=g#4 v=0
171100 On ch=1 n=b3 v=0
171482 On ch=1 n=d3 v=101
171510 Par ch=1 c=64 v=63
171518 Par ch=1 c=64 v=0
171518 On ch=1 n=a3 v=101
171564 Par ch=1 c=64 v=63
171576 Par ch=1 c=64 v=127
171630 On ch=1 n=d3 v=0
171652 On ch=1 n=a3 v=0
171710 On ch=1 n=f#4 v=72
171800 On ch=1 n=c5 v=75
171922 On ch=1 n=e5 v=106
171946 On ch=1 n=c6 v=112
172420 On ch=1 n=f#4 v=0
172468 On ch=1 n=c6 v=0
172530 On ch=1 n=b5 v=107
172726 On ch=1 n=e5 v=0
172744 On ch=1 n=b5 v=0
172748 On ch=1 n=c5 v=0
173070 On ch=1 n=a5 v=108
173144 On ch=1 n=a5 v=0
173464 On ch=1 n=g2 v=104
173544 Par ch=1 c=64 v=63
173552 Par ch=1 c=64 v=0
173570 Par ch=1 c=64 v=63
173588 Par ch=1 c=64 v=127
173620 On ch=1 n=g3 v=109
173684 On ch=1 n=g2 v=0
173740 On ch=1 n=g3 v=0
173930 On ch=1 n=b5 v=111
173936 On ch=1 n=b4 v=103
173938 On ch=1 n=f#5 v=113
173956 On ch=1 n=b3 v=88
173956 On ch=1 n=f#4 v=109
173960 On ch=1 n=f#3 v=103
175730 On ch=1 n=f#4 v=0
176552 On ch=1 n=f#3 v=0
176694 On ch=1 n=e3 v=64
176708 On ch=1 n=e4 v=64
176710 On ch=1 n=e5 v=90
176786 On ch=1 n=f#5 v=0
177622 On ch=1 n=e4 v=0
177738 On ch=1 n=e3 v=0
178208 On ch=1 n=e5 v=0
178230 On ch=1 n=d3 v=58
178252 On ch=1 n=d5 v=55
178282 On ch=1 n=d4 v=45
178384 Par ch=1 c=64 v=63
178462 Par ch=1 c=64 v=127
178670 Par ch=1 c=64 v=63
178702 Par ch=1 c=64 v=127
178934 On ch=1 n=b4 v=0
179016 On ch=1 n=d3 v=0
179024 On ch=1 n=d5 v=0
179126 On ch=1 n=b5 v=0
179294 On ch=1 n=b3 v=0
179350 On ch=1 n=d4 v=0
179364 On ch=1 n=g6 v=53
179944 On ch=1 n=a#6 v=71
180220 On ch=1 n=g6 v=0
180244 On ch=1 n=a#6 v=0
180366 On ch=1 n=c7 v=83
180372 On ch=1 n=a#6 v=67
180396 On ch=1 n=g6 v=46
180766 On ch=1 n=d7 v=101
180918 On ch=1 n=c7 v=0
180986 On ch=1 n=a#6 v=0
181022 On ch=1 n=g6 v=0
181192 On ch=1 n=f7 v=103
181208 On ch=1 n=a#6 v=81
181220 On ch=1 n=g6 v=59
181244 On ch=1 n=d7 v=0
181716 On ch=1 n=d6 v=82
181864 Par ch=1 c=64 v=63
181908 Par ch=1 c=64 v=127
182104 On ch=1 n=a#6 v=0
182110 On ch=1 n=g6 v=0
182280 On ch=1 n=a#6 v=47
182306 On ch=1 n=g6 v=34
182410 On ch=1 n=f7 v=0
182540 On ch=1 n=d6 v=0
182642 On ch=1 n=d6 v=86
182656 On ch=1 n=e7 v=77
182858 On ch=1 n=g6 v=0
182880 On ch=1 n=a#6 v=0
183008 On ch=1 n=a#6 v=62
183016 On ch=1 n=d7 v=84
183026 On ch=1 n=g6 v=54
183062 On ch=1 n=e7 v=0
183424 On ch=1 n=d6 v=0
183430 On ch=1 n=c6 v=65
183458 Par ch=1 c=64 v=63
183468 On ch=1 n=e7 v=74
183472 Par ch=1 c=64 v=0
183506 On ch=1 n=d7 v=0
183518 Par ch=1 c=64 v=63
183548 Par ch=1 c=64 v=127
183640 On ch=1 n=a#6 v=0
183714 On ch=1 n=g6 v=0
183748 On ch=1 n=g5 v=56
183870 On ch=1 n=c6 v=0
183872 On ch=1 n=a#6 v=65
183874 On ch=1 n=c7 v=72
183884 On ch=1 n=g6 v=49
183930 On ch=1 n=e7 v=0
184038 On ch=1 n=g5 v=0
184038 On ch=1 n=c6 v=68
184040 On ch=1 n=g6 v=0
184080 On ch=1 n=a#6 v=0
184104 On ch=1 n=c6 v=0
184368 On ch=1 n=c7 v=0
184422 On ch=1 n=d5 v=49
184454 On ch=1 n=f6 v=57
184468 On ch=1 n=d7 v=70
184476 On ch=1 n=a6 v=46
184526 Par ch=1 c=64 v=63
184538 Par ch=1 c=64 v=0
184570 Par ch=1 c=64 v=63
184592 Par ch=1 c=64 v=127
184800 On ch=1 n=f6 v=0
184828 On ch=1 n=d7 v=0
184856 On ch=1 n=a6 v=0
184964 On ch=1 n=d5 v=0
185048 On ch=1 n=g4 v=58
185088 On ch=1 n=d5 v=23
185280 On ch=1 n=d5 v=0
185594 On ch=1 n=f5 v=76
185620 On ch=1 n=c5 v=34
185736 On ch=1 n=c5 v=0
185782 On ch=1 n=f5 v=0
185874 On ch=1 n=g4 v=0
186064 On ch=1 n=g4 v=22
186070 On ch=1 n=a5 v=77
186086 On ch=1 n=d5 v=54
186094 On ch=1 n=f5 v=63
186096 On ch=1 n=c5 v=38
186208 On ch=1 n=f5 v=0
186210 On ch=1 n=a5 v=0
186224 On ch=1 n=d5 v=0
186250 On ch=1 n=c5 v=0
186446 On ch=1 n=f5 v=87
186450 On ch=1 n=g4 v=0
186464 On ch=1 n=a4 v=52
186472 On ch=1 n=c5 v=48
186528 On ch=1 n=c5 v=0
186530 On ch=1 n=a4 v=0
186550 On ch=1 n=f5 v=0
186842 On ch=1 n=d5 v=99
186848 On ch=1 n=g4 v=64
186858 On ch=1 n=a4 v=72
186872 On ch=1 n=f4 v=39
186936 On ch=1 n=f4 v=0
186954 On ch=1 n=a4 v=0
187066 On ch=1 n=d5 v=0
187100 On ch=1 n=g4 v=0
187272 On ch=1 n=f5 v=99
187280 On ch=1 n=a4 v=74
187286 On ch=1 n=c5 v=80
187326 On ch=1 n=c5 v=0
187342 On ch=1 n=a4 v=0
187366 On ch=1 n=f5 v=0
187586 On ch=1 n=a5 v=102
187594 On ch=1 n=c5 v=98
187600 On ch=1 n=f5 v=84
187650 On ch=1 n=f5 v=0
187652 On ch=1 n=c5 v=0
187696 On ch=1 n=a5 v=0
187748 On ch=1 n=c5 v=109
187752 On ch=1 n=g4 v=89
187894 On ch=1 n=c5 v=0
187906 On ch=1 n=d6 v=98
187916 On ch=1 n=a5 v=86
187922 On ch=1 n=g4 v=0
187940 On ch=1 n=f5 v=54
187990 On ch=1 n=f5 v=0
188016 On ch=1 n=a5 v=0
188020 On ch=1 n=d6 v=0
188266 On ch=1 n=b4 v=88
188272 On ch=1 n=d4 v=84
188276 On ch=1 n=e6 v=107
188290 On ch=1 n=a5 v=85
188294 On ch=1 n=f5 v=85
188356 Par ch=1 c=64 v=63
188366 Par ch=1 c=64 v=0
188464 Par ch=1 c=64 v=63
188470 Par ch=1 c=64 v=127
188548 On ch=1 n=d4 v=0
188570 On ch=1 n=b4 v=0
188870 On ch=1 n=g3 v=106
188934 On ch=1 n=g3 v=0
189342 On ch=1 n=a5 v=0
189344 On ch=1 n=e6 v=0
189348 On ch=1 n=f5 v=0
189956 On ch=1 n=f5 v=107
189968 On ch=1 n=c5 v=101
189970 On ch=1 n=a4 v=86
190012 On ch=1 n=a4 v=0
190018 On ch=1 n=c5 v=0
190066 On ch=1 n=f5 v=0
190364 On ch=1 n=a5 v=108
190374 Par ch=1 c=64 v=63
190376 On ch=1 n=c5 v=104
190378 On ch=1 n=d5 v=97
190380 On ch=1 n=f5 v=96
190388 On ch=1 n=g4 v=78
190420 Par ch=1 c=64 v=127
190466 On ch=1 n=c5 v=0
190498 On ch=1 n=f5 v=0
190530 On ch=1 n=a5 v=0
190618 On ch=1 n=d5 v=0
190660 On ch=1 n=g4 v=0
190766 On ch=1 n=c5 v=108
190770 On ch=1 n=d6 v=117
190774 On ch=1 n=g4 v=91
190784 On ch=1 n=f5 v=103
190784 On ch=1 n=a5 v=99
190880 On ch=1 n=g4 v=0
190924 On ch=1 n=c5 v=0
190934 On ch=1 n=f5 v=0
190944 On ch=1 n=d6 v=0
190950 On ch=1 n=a5 v=0
191216 On ch=1 n=e6 v=112
191216 On ch=1 n=b4 v=103
191224 On ch=1 n=d4 v=99
191228 On ch=1 n=a5 v=103
191232 On ch=1 n=f5 v=103
191260 Par ch=1 c=64 v=63
191266 Par ch=1 c=64 v=0
191370 Par ch=1 c=64 v=63
191376 Par ch=1 c=64 v=127
191414 On ch=1 n=d4 v=0
191500 On ch=1 n=b4 v=0
191774 On ch=1 n=g3 v=108
191864 On ch=1 n=g3 v=0
192340 On ch=1 n=f5 v=0
192358 On ch=1 n=a5 v=0
192368 On ch=1 n=e6 v=0
192730 On ch=1 n=e6 v=111
192732 On ch=1 n=b4 v=89
192734 On ch=1 n=g4 v=80
192750 On ch=1 n=f5 v=100
192754 On ch=1 n=a5 v=92
192926 On ch=1 n=a5 v=0
192948 On ch=1 n=e6 v=0
193002 On ch=1 n=g4 v=0
193020 On ch=1 n=f5 v=0
193282 On ch=1 n=g4 v=61
193296 On ch=1 n=c4 v=60
193332 On ch=1 n=c6 v=108
193352 On ch=1 n=b4 v=0
193424 Par ch=1 c=64 v=63
193432 Par ch=1 c=64 v=0
193512 Par ch=1 c=64 v=63
193524 Par ch=1 c=64 v=127
193880 On ch=1 n=g5 v=67
193882 On ch=1 n=f5 v=63
193914 On ch=1 n=c4 v=0
193942 On ch=1 n=g4 v=0
194188 On ch=1 n=f5 v=0
194294 On ch=1 n=g5 v=0
194418 On ch=1 n=f6 v=47
194420 On ch=1 n=g6 v=48
194436 On ch=1 n=c6 v=0
195032 On ch=1 n=c6 v=45
195052 On ch=1 n=g5 v=47
195054 On ch=1 n=e5 v=30
195190 Par ch=1 c=64 v=63
195192 Par ch=1 c=64 v=127
195236 On ch=1 n=g6 v=0
195282 On ch=1 n=f6 v=0
195476 On ch=1 n=e5 v=0
195530 On ch=1 n=g5 v=0
195638 On ch=1 n=c6 v=0
195758 On ch=1 n=d#5 v=52
195802 On ch=1 n=d#6 v=67
196154 On ch=1 n=d#6 v=0
196384 On ch=1 n=f6 v=81
196400 On ch=1 n=d6 v=45
196418 On ch=1 n=d#6 v=55
196658 On ch=1 n=d6 v=0
196836 On ch=1 n=c6 v=63
196840 On ch=1 n=g6 v=90
196884 On ch=1 n=f6 v=0
196938 On ch=1 n=d#6 v=0
197054 On ch=1 n=g6 v=0
197164 On ch=1 n=c6 v=0
197270 On ch=1 n=a#5 v=61
197294 On ch=1 n=a#6 v=90
197300 On ch=1 n=d#6 v=70
197322 On ch=1 n=c6 v=41
197422 Par ch=1 c=64 v=63
197458 Par ch=1 c=64 v=127
197586 On ch=1 n=d#5 v=0
197700 On ch=1 n=g5 v=81
197738 On ch=1 n=a#5 v=0
197928 On ch=1 n=c6 v=0
197956 On ch=1 n=d#6 v=0
198132 On ch=1 n=d#6 v=68
198138 On ch=1 n=a#5 v=72
198152 On ch=1 n=c6 v=48
198384 On ch=1 n=g5 v=0
198462 On ch=1 n=a#6 v=0
198588 On ch=1 n=a5 v=44
198600 On ch=1 n=a6 v=84
198654 On ch=1 n=a#5 v=0
198704 Par ch=1 c=64 v=63
198776 Par ch=1 c=64 v=127
198958 On ch=1 n=d#6 v=0
198982 On ch=1 n=c6 v=0
199110 On ch=1 n=d#6 v=62
199112 On ch=1 n=g6 v=77
199132 On ch=1 n=c6 v=50
199146 On ch=1 n=g5 v=53
199162 On ch=1 n=a5 v=0
199206 On ch=1 n=a6 v=0
199596 On ch=1 n=f5 v=56
199600 On ch=1 n=a6 v=79
199604 On ch=1 n=g5 v=0
199628 Par ch=1 c=64 v=63
199654 On ch=1 n=g6 v=0
199710 Par ch=1 c=64 v=127
199934 On ch=1 n=d#6 v=0
199962 On ch=1 n=c5 v=59
199964 On ch=1 n=c6 v=0
199980 On ch=1 n=f5 v=0
200094 On ch=1 n=f6 v=83
200096 On ch=1 n=d#6 v=62
200104 On ch=1 n=c6 v=57
200142 On ch=1 n=a6 v=0
200274 On ch=1 n=f5 v=75
200282 On ch=1 n=c6 v=0
200282 On ch=1 n=c5 v=0
200318 On ch=1 n=d#6 v=0
200410 On ch=1 n=f5 v=0
200614 On ch=1 n=f6 v=0
200628 On ch=1 n=a#5 v=58
200630 On ch=1 n=g4 v=53
200640 On ch=1 n=g6 v=60
200656 On ch=1 n=d6 v=38
200668 Par ch=1 c=64 v=63
200686 Par ch=1 c=64 v=0
200754 Par ch=1 c=64 v=63
200776 Par ch=1 c=64 v=127
200868 On ch=1 n=g4 v=0
201336 On ch=1 n=c3 v=64
201340 On ch=1 n=g3 v=50
201378 On ch=1 n=c3 v=0
201390 On ch=1 n=g3 v=0
201444 On ch=1 n=g6 v=0
201484 On ch=1 n=d6 v=0
201514 On ch=1 n=a#5 v=0
202100 On ch=1 n=a#5 v=79
202116 On ch=1 n=d5 v=57
202118 On ch=1 n=a#4 v=70
202124 On ch=1 n=f5 v=43
202262 On ch=1 n=d5 v=0
202266 On ch=1 n=f5 v=0
202346 On ch=1 n=a#5 v=0
202624 On ch=1 n=a#4 v=0
202646 On ch=1 n=d6 v=86
202648 On ch=1 n=d5 v=91
202652 On ch=1 n=a5 v=74
202658 On ch=1 n=f5 v=64
202738 On ch=1 n=a5 v=0
202754 On ch=1 n=f5 v=0
202760 On ch=1 n=d6 v=0
202816 On ch=1 n=d5 v=0
203102 On ch=1 n=a#5 v=92
203112 On ch=1 n=d5 v=74
203122 On ch=1 n=f5 v=75
203124 On ch=1 n=a#4 v=90
203166 On ch=1 n=f5 v=0
203176 On ch=1 n=a#4 v=0
203188 On ch=1 n=a#5 v=0
203190 On ch=1 n=d5 v=0
203578 On ch=1 n=g5 v=86
203586 On ch=1 n=a#4 v=87
203588 On ch=1 n=g4 v=52
203588 On ch=1 n=c3 v=75
203590 On ch=1 n=g3 v=85
203590 On ch=1 n=d5 v=83
203636 Par ch=1 c=64 v=63
203644 Par ch=1 c=64 v=0
203710 Par ch=1 c=64 v=63
203722 Par ch=1 c=64 v=127
203798 On ch=1 n=c3 v=0
203808 On ch=1 n=g4 v=0
203814 On ch=1 n=g3 v=0
203836 On ch=1 n=a#4 v=0
203852 On ch=1 n=d5 v=0
203878 On ch=1 n=g5 v=0
204150 On ch=1 n=a#4 v=104
204158 On ch=1 n=a#5 v=103
204160 On ch=1 n=f5 v=91
204164 On ch=1 n=d5 v=86
204218 On ch=1 n=d5 v=0
204228 On ch=1 n=f5 v=0
204268 On ch=1 n=a#5 v=0
204532 On ch=1 n=d5 v=109
204534 On ch=1 n=d6 v=108
204540 On ch=1 n=a5 v=97
204542 On ch=1 n=f5 v=91
204556 On ch=1 n=a#4 v=0
204600 On ch=1 n=f5 v=0
204606 On ch=1 n=a5 v=0
204624 On ch=1 n=d6 v=0
204834 On ch=1 n=d5 v=0
204862 On ch=1 n=f6 v=114
204864 On ch=1 n=f5 v=114
204866 On ch=1 n=a#4 v=110
204868 On ch=1 n=d6 v=108
204870 On ch=1 n=a5 v=108
204934 On ch=1 n=a5 v=0
204938 On ch=1 n=d6 v=0
204962 On ch=1 n=f6 v=0
205126 On ch=1 n=f5 v=0
205242 On ch=1 n=a6 v=114
205246 On ch=1 n=a#4 v=0
205246 On ch=1 n=e5 v=107
205246 On ch=1 n=g4 v=94
205248 On ch=1 n=d6 v=113
205254 On ch=1 n=a#5 v=109
205382 Par ch=1 c=64 v=63
205394 Par ch=1 c=64 v=0
205466 Par ch=1 c=64 v=63
205478 Par ch=1 c=64 v=127
205588 On ch=1 n=e5 v=0
205640 On ch=1 n=g4 v=0
205920 On ch=1 n=g3 v=116
205926 On ch=1 n=c3 v=113
206310 On ch=1 n=c3 v=0
206312 On ch=1 n=g3 v=0
206438 On ch=1 n=a6 v=0
206458 On ch=1 n=d6 v=0
206502 On ch=1 n=a#5 v=0
207024 Par ch=1 c=64 v=63
207032 On ch=1 n=a#4 v=119
207034 On ch=1 n=a#5 v=120
207036 Par ch=1 c=64 v=0
207036 On ch=1 n=f5 v=113
207038 On ch=1 n=d5 v=113
207040 On ch=1 n=d4 v=106
207042 On ch=1 n=g4 v=96
207106 Par ch=1 c=64 v=63
207118 Par ch=1 c=64 v=127
207148 On ch=1 n=d4 v=0
207150 On ch=1 n=f5 v=0
207162 On ch=1 n=d5 v=0
207164 On ch=1 n=g4 v=0
207194 On ch=1 n=a#4 v=0
207210 On ch=1 n=a#5 v=0
207484 On ch=1 n=d6 v=121
207486 On ch=1 n=a5 v=121
207486 On ch=1 n=d5 v=125
207488 Par ch=1 c=64 v=63
207488 On ch=1 n=f5 v=121
207490 On ch=1 n=a#4 v=120
207490 On ch=1 n=f4 v=117
207500 Par ch=1 c=64 v=0
207512 Par ch=1 c=64 v=63
207536 Par ch=1 c=64 v=127
207608 On ch=1 n=f5 v=0
207622 On ch=1 n=a5 v=0
207638 On ch=1 n=d6 v=0
207642 On ch=1 n=f4 v=0
207650 On ch=1 n=a#4 v=0
207668 On ch=1 n=d5 v=0
207946 On ch=1 n=f6 v=122
207946 On ch=1 n=f5 v=124
207950 On ch=1 n=a4 v=111
207952 On ch=1 n=d5 v=116
207952 On ch=1 n=a5 v=120
207954 On ch=1 n=d6 v=116
207958 Par ch=1 c=64 v=63
207960 On ch=1 n=a#4 v=101
207964 Par ch=1 c=64 v=0
208012 Par ch=1 c=64 v=63
208024 Par ch=1 c=64 v=127
208114 On ch=1 n=a5 v=0
208130 On ch=1 n=f6 v=0
208148 On ch=1 n=d6 v=0
208160 On ch=1 n=a4 v=0
208198 On ch=1 n=a#4 v=0
208200 On ch=1 n=f5 v=0
208202 On ch=1 n=d5 v=0
208328 On ch=1 n=g4 v=84
208400 Par ch=1 c=64 v=63
208408 Par ch=1 c=64 v=0
208450 On ch=1 n=a#4 v=70
208458 Par ch=1 c=64 v=63
208474 Par ch=1 c=64 v=127
208504 On ch=1 n=g4 v=0
208518 On ch=1 n=e5 v=65
208552 On ch=1 n=a6 v=112
208558 On ch=1 n=d6 v=113
208560 On ch=1 n=a#5 v=118
208576 On ch=1 n=a5 v=113
208622 On ch=1 n=a#4 v=0
208670 On ch=1 n=e5 v=0
208680 On ch=1 n=a5 v=0
209212 On ch=1 n=g3 v=122
209214 On ch=1 n=c3 v=121
209740 On ch=1 n=c3 v=0
209774 On ch=1 n=g3 v=0
210044 On ch=1 n=a6 v=0
210066 On ch=1 n=a#5 v=0
210068 On ch=1 n=d6 v=0
210468 On ch=1 n=a6 v=108
210476 On ch=1 n=a5 v=103
210478 On ch=1 n=e5 v=120
210480 On ch=1 n=a#4 v=109
210480 On ch=1 n=e6 v=104
210480 On ch=1 n=c6 v=103
210482 On ch=1 n=c5 v=113
210506 Par ch=1 c=64 v=63
210508 Par ch=1 c=64 v=0
210630 Par ch=1 c=64 v=63
210634 Par ch=1 c=64 v=127
210712 On ch=1 n=a6 v=0
210744 On ch=1 n=e6 v=0
210762 On ch=1 n=c6 v=0
210774 On ch=1 n=a5 v=0
210814 On ch=1 n=e5 v=0
210846 On ch=1 n=c5 v=0
210874 On ch=1 n=a#4 v=0
211142 On ch=1 n=f6 v=111
211144 On ch=1 n=c6 v=106
211144 On ch=1 n=a#5 v=109
211146 On ch=1 n=f5 v=108
211152 On ch=1 n=a#4 v=108
211154 On ch=1 n=c5 v=112
211164 On ch=1 n=f4 v=94
211228 Par ch=1 c=64 v=63
211242 Par ch=1 c=64 v=0
211336 Par ch=1 c=64 v=63
211350 Par ch=1 c=64 v=127
211520 On ch=1 n=a#5 v=0
211678 On ch=1 n=a#4 v=0
211744 On ch=1 n=a5 v=96
211756 On ch=1 n=a4 v=68
211874 On ch=1 n=f6 v=0
211986 On ch=1 n=c6 v=0
212032 On ch=1 n=a5 v=0
212176 On ch=1 n=g#4 v=95
212178 On ch=1 n=g#5 v=107
212234 On ch=1 n=f5 v=0
212258 On ch=1 n=c5 v=0
212296 On ch=1 n=a4 v=0
212382 On ch=1 n=g#5 v=0
212382 On ch=1 n=f4 v=0
212438 On ch=1 n=g#4 v=0
212594 On ch=1 n=d#6 v=112
212598 On ch=1 n=d#5 v=103
212604 On ch=1 n=g5 v=90
212606 On ch=1 n=g4 v=90
212608 On ch=1 n=b4 v=97
212612 On ch=1 n=b5 v=86
212614 On ch=1 n=f4 v=85
212622 Par ch=1 c=64 v=63
212638 Par ch=1 c=64 v=0
212660 Par ch=1 c=64 v=63
212688 Par ch=1 c=64 v=127
212744 On ch=1 n=b5 v=0
212750 On ch=1 n=g5 v=0
212754 On ch=1 n=d#6 v=0
212784 On ch=1 n=b4 v=0
212788 On ch=1 n=g4 v=0
212806 On ch=1 n=d#5 v=0
212808 On ch=1 n=f4 v=0
213048 On ch=1 n=c6 v=94
213050 On ch=1 n=f4 v=93
213052 On ch=1 n=c4 v=93
213052 On ch=1 n=c5 v=92
213054 On ch=1 n=g4 v=84
213056 On ch=1 n=g5 v=84
213060 On ch=1 n=f5 v=88
213158 Par ch=1 c=64 v=63
213162 Par ch=1 c=64 v=0
213294 Par ch=1 c=64 v=63
213300 Par ch=1 c=64 v=127
213404 On ch=1 n=f5 v=0
213562 On ch=1 n=e5 v=82
213588 On ch=1 n=e4 v=72
213642 On ch=1 n=f4 v=0
213748 On ch=1 n=e5 v=0
213978 On ch=1 n=c6 v=0
213984 On ch=1 n=d#5 v=89
214000 On ch=1 n=d#4 v=83
214072 On ch=1 n=c5 v=0
214080 On ch=1 n=g5 v=0
214090 On ch=1 n=e4 v=0
214092 On ch=1 n=g4 v=0
214142 On ch=1 n=c4 v=0
214150 On ch=1 n=d#5 v=0
214156 On ch=1 n=d#4 v=0
214522 On ch=1 n=f#4 v=71
214524 On ch=1 n=a#5 v=93
214540 On ch=1 n=d5 v=76
214542 On ch=1 n=f#5 v=80
214544 On ch=1 n=a#4 v=64
214556 On ch=1 n=c4 v=53
214556 On ch=1 n=d4 v=73
214564 Par ch=1 c=64 v=63
214614 Par ch=1 c=64 v=127
214760 On ch=1 n=f#4 v=0
214766 On ch=1 n=d4 v=0
214792 On ch=1 n=d5 v=0
214794 On ch=1 n=a#5 v=0
214804 On ch=1 n=f#5 v=0
214820 On ch=1 n=c4 v=0
214830 On ch=1 n=a#4 v=0
215164 On ch=1 n=g5 v=92
215166 On ch=1 n=d5 v=82
215172 On ch=1 n=d3 v=62
215174 On ch=1 n=g4 v=65
215176 On ch=1 n=c5 v=76
215178 On ch=1 n=d4 v=56
215332 Par ch=1 c=64 v=63
215354 Par ch=1 c=64 v=0
215472 Par ch=1 c=64 v=63
215488 Par ch=1 c=64 v=127
215896 On ch=1 n=d4 v=0
216280 On ch=1 n=g5 v=0
216294 On ch=1 n=e5 v=67
216304 On ch=1 n=e4 v=55
216688 On ch=1 n=g4 v=0
216928 On ch=1 n=c5 v=0
216944 On ch=1 n=d5 v=0
216974 On ch=1 n=e4 v=0
217006 On ch=1 n=e5 v=0
217046 On ch=1 n=d3 v=0
217554 On ch=1 n=f#5 v=54
217562 On ch=1 n=f#4 v=39
217570 On ch=1 n=d5 v=55
217576 On ch=1 n=d3 v=44
217580 On ch=1 n=d4 v=36
217588 On ch=1 n=c5 v=53
217710 Par ch=1 c=64 v=63
217814 Par ch=1 c=64 v=127
218002 On ch=1 n=c5 v=0
218012 On ch=1 n=d4 v=0
218024 On ch=1 n=f#4 v=0
218056 On ch=1 n=d5 v=0
218136 On ch=1 n=d3 v=0
218158 On ch=1 n=f#5 v=0
219220 On ch=1 n=g5 v=55
219236 On ch=1 n=a#4 v=46
219252 On ch=1 n=d5 v=55
219264 On ch=1 n=g2 v=39
219272 On ch=1 n=g3 v=21
219320 Par ch=1 c=64 v=63
219346 Par ch=1 c=64 v=0
219416 Par ch=1 c=64 v=63
219428 On ch=1 n=g4 v=5
219440 Par ch=1 c=64 v=127
219568 On ch=1 n=g4 v=0
219618 On ch=1 n=g3 v=0
219620 On ch=1 n=a#4 v=0
219660 On ch=1 n=d5 v=0
219712 On ch=1 n=g2 v=0
219752 On ch=1 n=g5 v=0
220270 On ch=1 n=g6 v=24
220906 On ch=1 n=a#6 v=57
221378 On ch=1 n=g6 v=0
221410 On ch=1 n=a#6 v=0
221468 On ch=1 n=a#6 v=45
221478 On ch=1 n=c7 v=68
221480 On ch=1 n=g6 v=33
221942 On ch=1 n=d7 v=87
222092 Par ch=1 c=64 v=63
222098 Par ch=1 c=64 v=127
222282 On ch=1 n=g6 v=0
222288 On ch=1 n=a#6 v=0
222412 On ch=1 n=f7 v=92
222426 On ch=1 n=a#6 v=71
222440 On ch=1 n=g6 v=35
222494 On ch=1 n=d7 v=0
222526 On ch=1 n=c7 v=0
222934 On ch=1 n=f7 v=0
222944 On ch=1 n=d6 v=76
222992 On ch=1 n=d6 v=0
223044 On ch=1 n=g6 v=0
223046 On ch=1 n=a#6 v=0
223202 On ch=1 n=g6 v=43
223272 On ch=1 n=a#6 v=59
223412 On ch=1 n=f7 v=70
223526 On ch=1 n=g7 v=60
223602 On ch=1 n=g7 v=0
223820 On ch=1 n=f7 v=0
224152 On ch=1 n=d6 v=60
224160 On ch=1 n=e7 v=73
224240 On ch=1 n=a#6 v=0
224334 On ch=1 n=g6 v=0
224362 On ch=1 n=d6 v=0
224686 On ch=1 n=d7 v=79
224688 On ch=1 n=a#6 v=55
224704 On ch=1 n=g7 v=68
224706 On ch=1 n=f7 v=64
224706 On ch=1 n=g6 v=38
224710 On ch=1 n=e7 v=0
224782 On ch=1 n=g7 v=0
224798 On ch=1 n=f7 v=0
225136 On ch=1 n=e7 v=85
225166 On ch=1 n=c6 v=84
225196 On ch=1 n=d7 v=0
225504 On ch=1 n=g5 v=69
225516 On ch=1 n=g6 v=0
225516 On ch=1 n=a#6 v=0
225634 On ch=1 n=c6 v=0
225634 On ch=1 n=c7 v=97
225640 On ch=1 n=e7 v=0
225664 On ch=1 n=a#6 v=71
225666 On ch=1 n=g6 v=62
225834 On ch=1 n=c6 v=97
225838 On ch=1 n=g5 v=0
226048 On ch=1 n=c6 v=0
226062 On ch=1 n=g6 v=0
226110 On ch=1 n=d5 v=81
226134 On ch=1 n=d7 v=92
226138 On ch=1 n=a#6 v=0
226182 On ch=1 n=c7 v=0
226194 Par ch=1 c=64 v=63
226212 Par ch=1 c=64 v=0
226294 Par ch=1 c=64 v=63
226304 Par ch=1 c=64 v=127
226334 On ch=1 n=a5 v=52
226420 On ch=1 n=d5 v=0
226434 On ch=1 n=d6 v=59
226452 On ch=1 n=d7 v=0
226488 On ch=1 n=a5 v=0
226490 On ch=1 n=d6 v=0
226508 On ch=1 n=f6 v=63
226598 On ch=1 n=a6 v=56
226602 On ch=1 n=f6 v=0
226684 On ch=1 n=a6 v=0
226688 On ch=1 n=d7 v=68
226760 On ch=1 n=d7 v=0
226846 On ch=1 n=a7 v=69
226876 On ch=1 n=g4 v=54
226886 On ch=1 n=d5 v=60
226924 On ch=1 n=a7 v=0
226978 On ch=1 n=d5 v=0
227012 On ch=1 n=g4 v=0
227590 On ch=1 n=f5 v=75
227608 On ch=1 n=a4 v=51
227618 On ch=1 n=c5 v=68
227716 On ch=1 n=c5 v=0
227722 On ch=1 n=a4 v=0
227760 On ch=1 n=f5 v=0
228100 On ch=1 n=a5 v=75
228118 On ch=1 n=c5 v=60
228124 On ch=1 n=f5 v=64
228136 On ch=1 n=d5 v=68
228152 On ch=1 n=g4 v=49
228218 On ch=1 n=f5 v=0
228232 On ch=1 n=c5 v=0
228238 On ch=1 n=a5 v=0
228304 On ch=1 n=d5 v=0
228462 On ch=1 n=g4 v=0
228550 On ch=1 n=f5 v=91
228564 On ch=1 n=a4 v=60
228566 On ch=1 n=c5 v=79
228648 On ch=1 n=c5 v=0
228658 On ch=1 n=a4 v=0
228660 On ch=1 n=f5 v=0
228966 On ch=1 n=d5 v=98
228988 On ch=1 n=f4 v=67
228988 On ch=1 n=a4 v=70
228994 On ch=1 n=g4 v=60
229056 On ch=1 n=f4 v=0
229070 On ch=1 n=a4 v=0
229108 On ch=1 n=d5 v=0
229188 On ch=1 n=g4 v=0
229420 On ch=1 n=f5 v=102
229432 On ch=1 n=a4 v=72
229440 On ch=1 n=c5 v=73
229476 On ch=1 n=c5 v=0
229480 On ch=1 n=a4 v=0
229522 On ch=1 n=f5 v=0
229772 On ch=1 n=a5 v=104
229788 On ch=1 n=f5 v=88
229788 On ch=1 n=c5 v=86
229824 On ch=1 n=c5 v=0
229842 On ch=1 n=f5 v=0
229884 On ch=1 n=a5 v=0
229942 On ch=1 n=c5 v=96
229960 On ch=1 n=g4 v=52
230074 On ch=1 n=d6 v=109
230078 On ch=1 n=c5 v=0
230088 On ch=1 n=a5 v=96
230090 On ch=1 n=f5 v=87
230144 On ch=1 n=f5 v=0
230150 On ch=1 n=g4 v=0
230166 On ch=1 n=a5 v=0
230192 On ch=1 n=d6 v=0
230458 On ch=1 n=b4 v=82
230462 On ch=1 n=e6 v=106
230474 On ch=1 n=d4 v=72
230478 On ch=1 n=a5 v=85
230480 On ch=1 n=f5 v=88
230576 Par ch=1 c=64 v=63
230586 Par ch=1 c=64 v=0
230704 Par ch=1 c=64 v=63
230710 Par ch=1 c=64 v=127
230868 On ch=1 n=d4 v=0
230870 On ch=1 n=b4 v=0
231118 On ch=1 n=g3 v=92
231192 On ch=1 n=g3 v=0
231584 On ch=1 n=e6 v=0
231590 On ch=1 n=f5 v=0
231596 On ch=1 n=a5 v=0
232258 On ch=1 n=f5 v=112
232272 On ch=1 n=a4 v=90
232276 On ch=1 n=c5 v=93
232320 On ch=1 n=c5 v=0
232322 On ch=1 n=a4 v=0
232380 On ch=1 n=f5 v=0
232712 On ch=1 n=a5 v=112
232722 On ch=1 n=c5 v=107
232724 On ch=1 n=f5 v=103
232726 On ch=1 n=d5 v=102
232728 Par ch=1 c=64 v=63
232732 On ch=1 n=g4 v=90
232742 Par ch=1 c=64 v=0
232772 Par ch=1 c=64 v=63
232802 Par ch=1 c=64 v=127
232854 On ch=1 n=c5 v=0
232888 On ch=1 n=f5 v=0
232908 On ch=1 n=a5 v=0
233012 On ch=1 n=d5 v=0
233074 On ch=1 n=g4 v=0
233152 On ch=1 n=d6 v=117
233158 On ch=1 n=c5 v=113
233160 On ch=1 n=g4 v=101
233164 On ch=1 n=f5 v=109
233164 On ch=1 n=a5 v=104
233384 On ch=1 n=g4 v=0
233408 On ch=1 n=d6 v=0
233434 On ch=1 n=f5 v=0
233444 On ch=1 n=a5 v=0
233460 On ch=1 n=c5 v=0
233690 On ch=1 n=e6 v=106
233696 On ch=1 n=b4 v=102
233698 On ch=1 n=d4 v=104
233704 On ch=1 n=a5 v=99
233708 On ch=1 n=f5 v=100
233800 Par ch=1 c=64 v=63
233806 Par ch=1 c=64 v=0
233920 Par ch=1 c=64 v=63
233926 Par ch=1 c=64 v=127
234070 On ch=1 n=d4 v=0
234118 On ch=1 n=b4 v=0
234356 On ch=1 n=g3 v=107
235068 On ch=1 n=g3 v=0
235118 On ch=1 n=f5 v=0
235156 On ch=1 n=a5 v=0
235192 On ch=1 n=e6 v=0
235462 On ch=1 n=b4 v=84
235464 On ch=1 n=e6 v=111
235466 On ch=1 n=g4 v=72
235480 On ch=1 n=f5 v=97
235484 On ch=1 n=a5 v=93
235686 On ch=1 n=e6 v=0
235698 On ch=1 n=a5 v=0
235716 On ch=1 n=g4 v=0
236110 On ch=1 n=g4 v=55
236124 On ch=1 n=c4 v=51
236152 On ch=1 n=c6 v=101
236234 On ch=1 n=b4 v=0
236302 Par ch=1 c=64 v=63
236310 Par ch=1 c=64 v=0
236412 Par ch=1 c=64 v=63
236424 Par ch=1 c=64 v=127
236486 On ch=1 n=f5 v=0
236624 On ch=1 n=c4 v=0
236660 On ch=1 n=g4 v=0
236796 On ch=1 n=f5 v=62
236800 On ch=1 n=g5 v=62
237290 On ch=1 n=g6 v=58
237294 On ch=1 n=f6 v=55
237388 On ch=1 n=f5 v=0
237408 On ch=1 n=g5 v=0
237444 On ch=1 n=c6 v=0
237780 On ch=1 n=g6 v=0
237804 On ch=1 n=f6 v=0
237926 On ch=1 n=c6 v=79
237950 On ch=1 n=e5 v=49
237980 On ch=1 n=g5 v=33
238298 On ch=1 n=e5 v=0
238376 On ch=1 n=g5 v=0
238530 On ch=1 n=c6 v=0
238688 On ch=1 n=d#5 v=54
238706 On ch=1 n=d#6 v=74
239018 On ch=1 n=d#6 v=0
239280 On ch=1 n=f6 v=89
239292 On ch=1 n=d6 v=50
239312 On ch=1 n=d#6 v=59
239564 On ch=1 n=d6 v=0
239720 On ch=1 n=c6 v=71
239728 On ch=1 n=g6 v=92
239782 On ch=1 n=f6 v=0
239792 Par ch=1 c=64 v=63
239822 Par ch=1 c=64 v=127
239928 On ch=1 n=d#6 v=0
240024 On ch=1 n=c6 v=0
240124 On ch=1 n=g6 v=0
240194 On ch=1 n=a#5 v=64
240204 On ch=1 n=a#6 v=93
240224 On ch=1 n=d#6 v=71
240238 On ch=1 n=c6 v=47
240472 On ch=1 n=d#5 v=0
240766 On ch=1 n=a#5 v=0
240774 On ch=1 n=g5 v=83
240800 Par ch=1 c=64 v=63
240854 Par ch=1 c=64 v=127
240920 On ch=1 n=d#6 v=0
240930 On ch=1 n=c6 v=0
240974 On ch=1 n=a#5 v=66
241068 On ch=1 n=g5 v=0
241074 On ch=1 n=a#6 v=0
241086 On ch=1 n=a#5 v=0
241122 On ch=1 n=c6 v=50
241178 On ch=1 n=d#6 v=53
241274 On ch=1 n=a#6 v=74
241438 On ch=1 n=c7 v=86
241526 On ch=1 n=c7 v=0
241836 On ch=1 n=d#6 v=0
241922 On ch=1 n=a#6 v=0
242030 On ch=1 n=g5 v=99
242060 On ch=1 n=a6 v=78
242096 On ch=1 n=g5 v=0
242280 On ch=1 n=c6 v=0
242520 On ch=1 n=g6 v=79
242522 On ch=1 n=a#6 v=75
242522 On ch=1 n=d#6 v=67
242530 On ch=1 n=c7 v=62
242534 On ch=1 n=c6 v=54
242566 On ch=1 n=a6 v=0
242578 On ch=1 n=c7 v=0
242640 On ch=1 n=a#6 v=0
243026 On ch=1 n=f5 v=76
243084 On ch=1 n=a6 v=93
243102 On ch=1 n=g6 v=0
243422 On ch=1 n=c6 v=0
243424 On ch=1 n=c5 v=76
243440 On ch=1 n=d#6 v=0
243448 On ch=1 n=f5 v=0
243570 On ch=1 n=f6 v=96
243582 On ch=1 n=a6 v=0
243588 On ch=1 n=d#6 v=63
243598 On ch=1 n=c6 v=60
243730 On ch=1 n=c6 v=0
243730 On ch=1 n=f5 v=86
243740 On ch=1 n=d#6 v=0
243804 On ch=1 n=c5 v=0
244060 On ch=1 n=g4 v=56
244070 On ch=1 n=f5 v=0
244118 On ch=1 n=g6 v=91
244150 On ch=1 n=f6 v=0
244152 Par ch=1 c=64 v=63
244164 Par ch=1 c=64 v=0
244210 Par ch=1 c=64 v=63
244228 Par ch=1 c=64 v=127
244302 On ch=1 n=d5 v=66
244368 On ch=1 n=g6 v=0
244414 On ch=1 n=g5 v=48
244460 On ch=1 n=d5 v=0
244464 On ch=1 n=g5 v=0
244472 On ch=1 n=a#5 v=68
244488 On ch=1 n=g4 v=0
244548 On ch=1 n=a#5 v=0
244570 On ch=1 n=d6 v=47
244684 On ch=1 n=g6 v=63
244686 On ch=1 n=d6 v=0
244784 On ch=1 n=g6 v=0
244928 On ch=1 n=g3 v=67
244930 On ch=1 n=d7 v=62
244944 On ch=1 n=c3 v=43
244994 On ch=1 n=d7 v=0
245030 On ch=1 n=g3 v=0
245038 On ch=1 n=c3 v=0
245672 On ch=1 n=a#4 v=65
245674 On ch=1 n=d5 v=59
245674 On ch=1 n=a#5 v=80
245686 On ch=1 n=f5 v=50
245798 On ch=1 n=d5 v=0
245844 On ch=1 n=f5 v=0
245902 On ch=1 n=a#5 v=0
246162 On ch=1 n=a#4 v=0
246194 On ch=1 n=d6 v=96
246204 On ch=1 n=d5 v=97
246208 On ch=1 n=a5 v=77
246208 On ch=1 n=f5 v=71
246270 On ch=1 n=a5 v=0
246280 On ch=1 n=f5 v=0
246300 On ch=1 n=d6 v=0
246314 On ch=1 n=d5 v=0
246618 On ch=1 n=a#5 v=97
246628 On ch=1 n=f5 v=80
246632 On ch=1 n=d5 v=72
246636 On ch=1 n=a#4 v=105
246690 On ch=1 n=d5 v=0
246692 On ch=1 n=f5 v=0
246696 On ch=1 n=a#4 v=0
246708 On ch=1 n=a#5 v=0
247060 On ch=1 n=g4 v=74
247062 On ch=1 n=g5 v=80
247062 On ch=1 n=a#4 v=91
247070 On ch=1 n=c3 v=97
247070 On ch=1 n=g3 v=103
247074 On ch=1 n=d5 v=93
247132 Par ch=1 c=64 v=63
247140 Par ch=1 c=64 v=0
247182 Par ch=1 c=64 v=63
247196 Par ch=1 c=64 v=127
247230 On ch=1 n=g4 v=0
247262 On ch=1 n=c3 v=0
247280 On ch=1 n=g3 v=0
247282 On ch=1 n=a#4 v=0
247300 On ch=1 n=d5 v=0
247338 On ch=1 n=g5 v=0
247580 On ch=1 n=a#4 v=96
247596 On ch=1 n=a#5 v=100
247608 On ch=1 n=f5 v=84
247610 On ch=1 n=d5 v=79
247696 Par ch=1 c=64 v=63
247698 Par ch=1 c=64 v=127
247776 On ch=1 n=f5 v=0
247808 On ch=1 n=d5 v=0
247876 On ch=1 n=a#5 v=0
247988 On ch=1 n=d5 v=108
247990 On ch=1 n=d6 v=111
247994 On ch=1 n=f5 v=101
247998 On ch=1 n=a5 v=97
248060 On ch=1 n=f5 v=0
248068 On ch=1 n=a#4 v=0
248072 On ch=1 n=a5 v=0
248112 On ch=1 n=d6 v=0
248276 On ch=1 n=d5 v=0
248308 On ch=1 n=a#4 v=109
248308 On ch=1 n=f6 v=113
248310 On ch=1 n=f5 v=117
248316 On ch=1 n=a5 v=104
248318 On ch=1 n=d6 v=101
248380 On ch=1 n=a5 v=0
248382 On ch=1 n=d6 v=0
248408 On ch=1 n=f6 v=0
248564 On ch=1 n=f5 v=0
248686 On ch=1 n=a#4 v=0
248700 On ch=1 n=a6 v=113
248700 On ch=1 n=e5 v=111
248704 On ch=1 n=d6 v=108
248704 On ch=1 n=g4 v=98
248710 On ch=1 n=a#5 v=106
248744 Par ch=1 c=64 v=63
248752 Par ch=1 c=64 v=0
248844 Par ch=1 c=64 v=63
248852 Par ch=1 c=64 v=127
249002 On ch=1 n=e5 v=0
249058 On ch=1 n=g4 v=0
249340 On ch=1 n=g3 v=113
249344 On ch=1 n=c3 v=113
249424 On ch=1 n=g3 v=0
249444 On ch=1 n=c3 v=0
249776 On ch=1 n=a6 v=0
249824 On ch=1 n=d6 v=0
249864 On ch=1 n=a#5 v=0
250622 On ch=1 n=a#4 v=113
250624 On ch=1 n=a#5 v=118
250624 On ch=1 n=f5 v=114
250626 On ch=1 n=g4 v=97
250628 On ch=1 n=d5 v=112
250632 Par ch=1 c=64 v=63
250634 On ch=1 n=d4 v=94
250646 Par ch=1 c=64 v=0
250748 Par ch=1 c=64 v=63
250750 Par ch=1 c=64 v=127
250852 On ch=1 n=f5 v=0
250864 On ch=1 n=d5 v=0
250866 On ch=1 n=d4 v=0
250870 On ch=1 n=g4 v=0
250910 On ch=1 n=a#4 v=0
250914 On ch=1 n=a#5 v=0
251304 On ch=1 n=d5 v=124
251304 On ch=1 n=f4 v=116
251308 On ch=1 n=d6 v=121
251308 On ch=1 n=a5 v=120
251310 On ch=1 n=a#4 v=113
251312 On ch=1 n=f5 v=118
251364 Par ch=1 c=64 v=63
251414 Par ch=1 c=64 v=127
251528 On ch=1 n=f5 v=0
251550 On ch=1 n=a5 v=0
251558 On ch=1 n=f4 v=0
251562 On ch=1 n=d6 v=0
251566 On ch=1 n=a#4 v=0
251604 On ch=1 n=d5 v=0
251824 On ch=1 n=f6 v=122
251824 On ch=1 n=f5 v=121
251828 On ch=1 n=d5 v=113
251828 On ch=1 n=a4 v=104
251830 On ch=1 n=a5 v=121
251832 On ch=1 n=d6 v=113
251834 On ch=1 n=a#4 v=97
251996 On ch=1 n=a5 v=0
252040 On ch=1 n=a4 v=0
252042 On ch=1 n=d6 v=0
252044 On ch=1 n=f6 v=0
252060 On ch=1 n=a#4 v=0
252098 On ch=1 n=d5 v=0
252142 On ch=1 n=g4 v=96
252186 On ch=1 n=f5 v=0
252194 Par ch=1 c=64 v=63
252204 Par ch=1 c=64 v=0
252254 Par ch=1 c=64 v=63
252270 Par ch=1 c=64 v=127
252318 On ch=1 n=a#4 v=57
252406 On ch=1 n=g4 v=0
252422 On ch=1 n=e5 v=60
252432 On ch=1 n=a6 v=117
252436 On ch=1 n=d6 v=116
252438 On ch=1 n=a#5 v=118
252456 On ch=1 n=a5 v=121
252740 On ch=1 n=a5 v=0
252774 On ch=1 n=e5 v=0
252816 On ch=1 n=a#4 v=0
253134 On ch=1 n=g3 v=121
253140 On ch=1 n=c3 v=122
253606 On ch=1 n=c3 v=0
253632 On ch=1 n=g3 v=0
253774 On ch=1 n=d6 v=0
253800 On ch=1 n=a6 v=0
253806 On ch=1 n=a#5 v=0
254210 On ch=1 n=a6 v=108
254214 On ch=1 n=e6 v=103
254216 On ch=1 n=a#4 v=106
254216 On ch=1 n=a5 v=106
254216 On ch=1 n=c5 v=112
254218 On ch=1 n=c6 v=107
254218 On ch=1 n=e5 v=117
254260 Par ch=1 c=64 v=63
254266 Par ch=1 c=64 v=0
254340 Par ch=1 c=64 v=63
254352 Par ch=1 c=64 v=127
254438 On ch=1 n=a6 v=0
254468 On ch=1 n=e6 v=0
254484 On ch=1 n=c6 v=0
254496 On ch=1 n=a5 v=0
254534 On ch=1 n=e5 v=0
254554 On ch=1 n=c5 v=0
254574 On ch=1 n=a#4 v=0
254914 On ch=1 n=f6 v=111
254914 On ch=1 n=a#5 v=105
254916 On ch=1 n=f5 v=104
254916 On ch=1 n=c6 v=103
254918 On ch=1 n=c5 v=113
254920 On ch=1 n=a#4 v=107
254922 On ch=1 n=f4 v=99
255014 Par ch=1 c=64 v=63
255020 Par ch=1 c=64 v=0
255094 Par ch=1 c=64 v=63
255108 Par ch=1 c=64 v=127
255298 On ch=1 n=a#5 v=0
255442 On ch=1 n=a#4 v=0
255484 On ch=1 n=a5 v=96
255504 On ch=1 n=a4 v=80
255592 On ch=1 n=f6 v=0
255700 On ch=1 n=a5 v=0
255740 On ch=1 n=c6 v=0
255906 On ch=1 n=g#4 v=99
255908 On ch=1 n=g#5 v=105
255972 On ch=1 n=f5 v=0
255982 On ch=1 n=c5 v=0
256036 On ch=1 n=a4 v=0
256080 On ch=1 n=g#5 v=0
256164 On ch=1 n=f4 v=0
256216 On ch=1 n=g#4 v=0
256346 On ch=1 n=d#6 v=113
256352 On ch=1 n=d#5 v=106
256354 On ch=1 n=g4 v=93
256354 On ch=1 n=b4 v=101
256354 On ch=1 n=g5 v=97
256358 On ch=1 n=b5 v=92
256362 On ch=1 n=f4 v=84
256372 Par ch=1 c=64 v=63
256384 Par ch=1 c=64 v=0
256430 Par ch=1 c=64 v=63
256446 Par ch=1 c=64 v=127
256510 On ch=1 n=g5 v=0
256514 On ch=1 n=b5 v=0
256534 On ch=1 n=d#6 v=0
256540 On ch=1 n=b4 v=0
256550 On ch=1 n=g4 v=0
256552 On ch=1 n=d#5 v=0
256568 On ch=1 n=f4 v=0
256886 On ch=1 n=f4 v=97
256888 On ch=1 n=g4 v=91
256888 On ch=1 n=g5 v=96
256890 On ch=1 n=c6 v=108
256892 On ch=1 n=c4 v=97
256894 On ch=1 n=f5 v=96
256896 On ch=1 n=c5 v=93
257026 Par ch=1 c=64 v=63
257032 Par ch=1 c=64 v=0
257154 Par ch=1 c=64 v=63
257160 Par ch=1 c=64 v=127
257298 On ch=1 n=f5 v=0
257430 On ch=1 n=e5 v=90
257448 On ch=1 n=e4 v=85
257484 On ch=1 n=f4 v=0
257554 On ch=1 n=c6 v=0
257604 On ch=1 n=e5 v=0
257828 On ch=1 n=d#5 v=96
257850 On ch=1 n=d#4 v=93
257890 On ch=1 n=g5 v=0
257930 On ch=1 n=c5 v=0
257932 On ch=1 n=e4 v=0
257934 On ch=1 n=g4 v=0
257976 On ch=1 n=d#5 v=0
258000 On ch=1 n=c4 v=0
258026 On ch=1 n=d#4 v=0
258342 On ch=1 n=a#5 v=108
258344 On ch=1 n=f#4 v=97
258356 On ch=1 n=a#4 v=90
258358 On ch=1 n=f#5 v=93
258360 On ch=1 n=d5 v=82
258360 Par ch=1 c=64 v=63
258376 Par ch=1 c=64 v=0
258376 On ch=1 n=c4 v=65
258378 On ch=1 n=d4 v=76
258402 Par ch=1 c=64 v=63
258424 Par ch=1 c=64 v=127
258508 On ch=1 n=f#4 v=0
258540 On ch=1 n=d4 v=0
258568 On ch=1 n=a#5 v=0
258570 On ch=1 n=f#5 v=0
258576 On ch=1 n=d5 v=0
258586 On ch=1 n=c4 v=0
258642 On ch=1 n=a#4 v=0
258990 On ch=1 n=g5 v=98
258998 On ch=1 n=d5 v=85
259000 On ch=1 n=g4 v=78
259002 On ch=1 n=d4 v=96
259006 On ch=1 n=c5 v=88
259006 On ch=1 n=d3 v=93
259266 Par ch=1 c=64 v=63
259282 Par ch=1 c=64 v=0
259606 Par ch=1 c=64 v=63
259610 Par ch=1 c=64 v=127
260032 On ch=1 n=d4 v=0
260204 On ch=1 n=g5 v=0
260310 On ch=1 n=e5 v=84
260324 On ch=1 n=e4 v=68
260650 Par ch=1 c=64 v=63
260684 Par ch=1 c=64 v=0
260740 Par ch=1 c=64 v=63
260766 Par ch=1 c=64 v=127
260810 On ch=1 n=d5 v=0
261020 On ch=1 n=g4 v=0
261196 On ch=1 n=e5 v=0
261204 On ch=1 n=c5 v=0
261830 On ch=1 n=e4 v=0
261830 On ch=1 n=f#4 v=56
261838 On ch=1 n=f#5 v=65
261850 On ch=1 n=c5 v=60
261856 On ch=1 n=d5 v=55
262070 Par ch=1 c=64 v=63
262132 Par ch=1 c=64 v=0
262194 Par ch=1 c=64 v=63
262246 Par ch=1 c=64 v=127
262598 On ch=1 n=f#4 v=0
262608 On ch=1 n=c5 v=0
262664 On ch=1 n=d5 v=0
262760 On ch=1 n=f#5 v=0
263292 On ch=1 n=d3 v=0
264298 On ch=1 n=g5 v=44
264318 On ch=1 n=a#4 v=26
264318 On ch=1 n=d5 v=49
264338 On ch=1 n=g4 v=17
264354 On ch=1 n=g3 v=21
264356 On ch=1 n=g2 v=26
264504 Par ch=1 c=64 v=63
264574 Par ch=1 c=64 v=0
265890 Par ch=1 c=64 v=63
265906 Par ch=1 c=64 v=127
266086 On ch=1 n=g2 v=0
266134 On ch=1 n=g4 v=0
266194 On ch=1 n=g3 v=0
266232 On ch=1 n=a#4 v=0
266324 On ch=1 n=d5 v=0
266394 On ch=1 n=g5 v=0
267064 On ch=1 n=g3 v=34
267100 Par ch=1 c=64 v=63
267114 Par ch=1 c=64 v=0
267190 Par ch=1 c=64 v=63
267206 Par ch=1 c=64 v=127
267262 On ch=1 n=d4 v=46
267332 On ch=1 n=g3 v=0
267416 On ch=1 n=d5 v=44
267500 On ch=1 n=d5 v=0
267616 On ch=1 n=b4 v=35
267760 On ch=1 n=d4 v=0
267786 On ch=1 n=g6 v=86
267854 On ch=1 n=g6 v=0
267856 On ch=1 n=b4 v=0
268262 On ch=1 n=b5 v=28
268544 On ch=1 n=d6 v=46
268562 On ch=1 n=b5 v=0
268840 On ch=1 n=d6 v=0
268842 On ch=1 n=b5 v=22
269050 On ch=1 n=g5 v=33
269064 On ch=1 n=b4 v=15
269100 On ch=1 n=d5 v=38
269114 On ch=1 n=b5 v=0
269146 On ch=1 n=g5 v=0
269260 On ch=1 n=b4 v=0
269292 On ch=1 n=d5 v=0
269320 On ch=1 n=b5 v=54
269512 On ch=1 n=d6 v=68
269544 On ch=1 n=b5 v=0
269716 On ch=1 n=c3 v=68
269724 On ch=1 n=b5 v=54
269732 On ch=1 n=d6 v=0
269804 On ch=1 n=g3 v=63
269862 On ch=1 n=c3 v=0
269940 On ch=1 n=b5 v=0
269960 Par ch=1 c=64 v=63
269972 On ch=1 n=e5 v=71
269974 On ch=1 n=e4 v=52
269996 Par ch=1 c=64 v=127
270124 On ch=1 n=g3 v=0
270158 On ch=1 n=e5 v=0
270174 On ch=1 n=b5 v=78
270214 On ch=1 n=e4 v=0
270254 On ch=1 n=b5 v=0
270524 On ch=1 n=a6 v=100
270546 On ch=1 n=e6 v=76
270622 On ch=1 n=e6 v=0
270768 On ch=1 n=a6 v=0
270840 On ch=1 n=b5 v=71
270932 On ch=1 n=b5 v=0
271096 On ch=1 n=e5 v=63
271098 On ch=1 n=g5 v=71
271114 On ch=1 n=b4 v=39
271122 On ch=1 n=f#6 v=94
271280 On ch=1 n=g5 v=0
271306 On ch=1 n=e5 v=0
271310 On ch=1 n=f#6 v=0
271336 On ch=1 n=b5 v=55
271390 On ch=1 n=b4 v=0
271500 On ch=1 n=b5 v=0
271564 On ch=1 n=e6 v=97
271792 On ch=1 n=b5 v=63
271804 On ch=1 n=e6 v=0
271822 On ch=1 n=d3 v=55
271850 Par ch=1 c=64 v=63
271902 Par ch=1 c=64 v=127
271964 On ch=1 n=b3 v=72
271972 On ch=1 n=d3 v=0
272034 On ch=1 n=b5 v=0
272054 On ch=1 n=b4 v=76
272124 On ch=1 n=b4 v=0
272140 On ch=1 n=b3 v=0
272176 On ch=1 n=f#4 v=66
272182 On ch=1 n=d6 v=101
272238 On ch=1 n=f#4 v=0
272462 On ch=1 n=f#5 v=64
272546 On ch=1 n=f#5 v=0
272700 On ch=1 n=b5 v=71
272898 On ch=1 n=f#5 v=83
272980 On ch=1 n=f#5 v=0
273004 On ch=1 n=b5 v=0
273008 On ch=1 n=d6 v=0
273116 On ch=1 n=f#5 v=86
273120 On ch=1 n=e6 v=99
273142 On ch=1 n=b4 v=49
273182 On ch=1 n=f#5 v=0
273204 On ch=1 n=b4 v=0
273302 On ch=1 n=e6 v=0
273326 On ch=1 n=f#5 v=85
273478 On ch=1 n=f#5 v=0
273562 On ch=1 n=f#6 v=106
273604 On ch=1 n=b5 v=55
273770 Par ch=1 c=64 v=63
273782 Par ch=1 c=64 v=0
273814 On ch=1 n=f#5 v=80
273814 Par ch=1 c=64 v=63
273820 On ch=1 n=e3 v=74
273834 Par ch=1 c=64 v=127
273868 On ch=1 n=b5 v=0
273892 On ch=1 n=b3 v=59
273938 On ch=1 n=f#5 v=0
273950 On ch=1 n=f#6 v=0
273970 On ch=1 n=e3 v=0
274052 On ch=1 n=e5 v=76
274076 On ch=1 n=g4 v=57
274096 On ch=1 n=e5 v=0
274098 On ch=1 n=b3 v=0
274178 On ch=1 n=f#6 v=95
274214 On ch=1 n=g4 v=0
274374 On ch=1 n=f#6 v=0
274444 On ch=1 n=b5 v=51
274652 On ch=1 n=e6 v=89
274664 On ch=1 n=b5 v=0
274860 On ch=1 n=b5 v=58
274922 On ch=1 n=b5 v=0
274984 On ch=1 n=e6 v=0
275124 On ch=1 n=e6 v=80
275138 On ch=1 n=b4 v=47
275142 On ch=1 n=e5 v=28
275150 On ch=1 n=g5 v=28
275292 On ch=1 n=e5 v=0
275294 On ch=1 n=g5 v=0
275366 On ch=1 n=b5 v=56
275372 On ch=1 n=e6 v=0
275452 On ch=1 n=b4 v=0
275640 On ch=1 n=e6 v=50
275648 On ch=1 n=b5 v=0
275972 On ch=1 n=b5 v=50
276064 Par ch=1 c=64 v=63
276124 Par ch=1 c=64 v=127
276160 On ch=1 n=e6 v=0
276164 On ch=1 n=c4 v=53
276288 On ch=1 n=g4 v=59
276354 On ch=1 n=c4 v=0
276406 On ch=1 n=b5 v=0
276512 On ch=1 n=e5 v=57
276520 On ch=1 n=b5 v=86
276520 On ch=1 n=b6 v=97
276676 On ch=1 n=b5 v=0
276826 On ch=1 n=g4 v=0
276850 On ch=1 n=c6 v=76
276892 On ch=1 n=e5 v=0
277116 On ch=1 n=c6 v=0
277128 On ch=1 n=e6 v=81
277342 On ch=1 n=c6 v=75
277384 On ch=1 n=e6 v=0
277432 On ch=1 n=c6 v=0
277564 On ch=1 n=c6 v=87
277572 On ch=1 n=e5 v=75
277590 On ch=1 n=b5 v=46
277608 On ch=1 n=c6 v=0
277658 On ch=1 n=e5 v=0
277680 On ch=1 n=b5 v=0
277760 On ch=1 n=c6 v=75
277896 On ch=1 n=c6 v=0
277978 On ch=1 n=e6 v=92
278174 On ch=1 n=c6 v=91
278174 On ch=1 n=a3 v=67
278242 On ch=1 n=e6 v=0
278244 On ch=1 n=e4 v=67
278288 Par ch=1 c=64 v=63
278298 Par ch=1 c=64 v=0
278332 Par ch=1 c=64 v=63
278354 Par ch=1 c=64 v=127
278358 On ch=1 n=a3 v=0
278416 On ch=1 n=c5 v=94
278418 On ch=1 n=b5 v=88
278472 On ch=1 n=c6 v=0
278568 On ch=1 n=b6 v=0
278584 On ch=1 n=e4 v=0
278600 On ch=1 n=b5 v=0
278614 On ch=1 n=c6 v=82
278652 On ch=1 n=c6 v=0
278668 On ch=1 n=c5 v=0
278900 On ch=1 n=c7 v=108
278906 On ch=1 n=e6 v=84
278948 On ch=1 n=e6 v=0
279092 On ch=1 n=c7 v=0
279134 On ch=1 n=c6 v=63
279236 On ch=1 n=c6 v=0
279354 On ch=1 n=c6 v=84
279360 On ch=1 n=a6 v=103
279364 On ch=1 n=g5 v=61
279366 On ch=1 n=a5 v=61
279376 On ch=1 n=e5 v=59
279448 On ch=1 n=c6 v=0
279470 On ch=1 n=a5 v=0
279484 On ch=1 n=g5 v=0
279534 On ch=1 n=e5 v=0
279554 On ch=1 n=c6 v=55
279614 On ch=1 n=a6 v=0
279678 On ch=1 n=c6 v=0
279770 On ch=1 n=g6 v=103
279786 On ch=1 n=e6 v=83
279830 On ch=1 n=e6 v=0
279960 On ch=1 n=c6 v=73
279978 On ch=1 n=g6 v=0
280012 On ch=1 n=c6 v=0
280020 On ch=1 n=b3 v=70
280100 On ch=1 n=f#4 v=72
280120 On ch=1 n=b3 v=0
280234 On ch=1 n=f#6 v=100
280252 On ch=1 n=f#5 v=76
280270 On ch=1 n=d5 v=56
280370 Par ch=1 c=64 v=63
280384 Par ch=1 c=64 v=0
280404 Par ch=1 c=64 v=63
280430 Par ch=1 c=64 v=127
280522 On ch=1 n=b5 v=56
280624 On ch=1 n=f#5 v=0
280636 On ch=1 n=f#4 v=0
280696 On ch=1 n=d5 v=0
280722 On ch=1 n=d6 v=85
280772 On ch=1 n=b5 v=0
280784 On ch=1 n=f#6 v=0
280922 On ch=1 n=b5 v=78
281078 On ch=1 n=d6 v=0
281106 On ch=1 n=g6 v=101
281112 On ch=1 n=f#5 v=85
281118 On ch=1 n=d5 v=72
281124 On ch=1 n=g5 v=65
281198 On ch=1 n=g5 v=0
281198 On ch=1 n=b5 v=0
281230 On ch=1 n=f#5 v=0
281264 On ch=1 n=d5 v=0
281320 On ch=1 n=b5 v=84
281350 On ch=1 n=g6 v=0
281398 On ch=1 n=b5 v=0
281568 On ch=1 n=a6 v=97
281580 On ch=1 n=d6 v=92
281656 Par ch=1 c=64 v=63
281696 Par ch=1 c=64 v=127
281814 On ch=1 n=b5 v=55
281864 On ch=1 n=g3 v=62
281922 On ch=1 n=d6 v=0
281970 On ch=1 n=b5 v=0
281984 On ch=1 n=d4 v=66
282000 On ch=1 n=a6 v=0
282028 On ch=1 n=g3 v=0
282130 On ch=1 n=d4 v=0
282140 On ch=1 n=f#5 v=94
282146 On ch=1 n=b4 v=59
282234 On ch=1 n=b4 v=0
282278 On ch=1 n=f#5 v=0
282392 On ch=1 n=b5 v=68
282440 On ch=1 n=b5 v=0
282680 On ch=1 n=b6 v=99
282688 On ch=1 n=d6 v=80
282748 On ch=1 n=d6 v=0
282794 On ch=1 n=b6 v=0
282932 On ch=1 n=b5 v=40
282982 On ch=1 n=b5 v=0
283144 On ch=1 n=g6 v=97
283148 On ch=1 n=g5 v=90
283150 On ch=1 n=f#5 v=67
283156 On ch=1 n=b5 v=55
283168 On ch=1 n=d5 v=41
283210 On ch=1 n=g5 v=0
283226 On ch=1 n=b5 v=0
283230 On ch=1 n=f#5 v=0
283238 On ch=1 n=g6 v=0
283278 On ch=1 n=d5 v=0
283382 On ch=1 n=b5 v=48
283512 On ch=1 n=b5 v=0
283578 On ch=1 n=f#6 v=105
283592 On ch=1 n=d6 v=78
283772 On ch=1 n=f#6 v=0
283772 On ch=1 n=b5 v=75
283788 On ch=1 n=d6 v=0
283852 On ch=1 n=b5 v=0
283856 On ch=1 n=a3 v=52
283912 On ch=1 n=e4 v=66
283964 On ch=1 n=a3 v=0
284020 On ch=1 n=e6 v=99
284042 On ch=1 n=e5 v=63
284060 On ch=1 n=c5 v=39
284102 Par ch=1 c=64 v=63
284114 Par ch=1 c=64 v=0
284152 Par ch=1 c=64 v=63
284172 Par ch=1 c=64 v=127
284260 On ch=1 n=b5 v=67
284368 On ch=1 n=e4 v=0
284430 On ch=1 n=e6 v=0
284438 On ch=1 n=e5 v=0
284460 On ch=1 n=c5 v=0
284464 On ch=1 n=c6 v=83
284530 On ch=1 n=b5 v=0
284660 On ch=1 n=b5 v=93
284720 On ch=1 n=c6 v=0
284740 On ch=1 n=b5 v=0
284862 On ch=1 n=e5 v=56
284874 On ch=1 n=a5 v=68
284880 On ch=1 n=c5 v=66
284888 On ch=1 n=f#6 v=106
284900 On ch=1 n=f#5 v=97
284986 On ch=1 n=f#5 v=0
285050 On ch=1 n=a5 v=0
285092 On ch=1 n=b5 v=75
285110 On ch=1 n=f#6 v=0
285116 On ch=1 n=e5 v=0
285176 On ch=1 n=c5 v=0
285198 On ch=1 n=b5 v=0
285320 On ch=1 n=g5 v=75
285320 On ch=1 n=g6 v=97
285332 On ch=1 n=c6 v=78
285392 On ch=1 n=c6 v=0
285482 On ch=1 n=g6 v=0
285536 On ch=1 n=b5 v=84
285612 On ch=1 n=b5 v=0
285662 On ch=1 n=f#3 v=76
285760 On ch=1 n=f#3 v=0
285764 On ch=1 n=c4 v=77
285800 On ch=1 n=g5 v=0
285800 On ch=1 n=e5 v=80
285838 On ch=1 n=a4 v=86
285886 Par ch=1 c=64 v=63
285906 Par ch=1 c=64 v=127
286020 On ch=1 n=a5 v=91
286052 On ch=1 n=e5 v=0
286098 On ch=1 n=c4 v=0
286100 On ch=1 n=a5 v=0
286170 On ch=1 n=a4 v=0
286242 On ch=1 n=a6 v=96
286264 On ch=1 n=c6 v=84
286328 On ch=1 n=a6 v=0
286332 On ch=1 n=c6 v=0
286446 On ch=1 n=a5 v=71
286506 On ch=1 n=a5 v=0
286696 On ch=1 n=c5 v=47
286700 On ch=1 n=f#6 v=104
286710 On ch=1 n=a5 v=44
286710 On ch=1 n=f#5 v=95
286784 On ch=1 n=a5 v=0
286798 On ch=1 n=f#6 v=0
286828 On ch=1 n=f#5 v=0
286860 On ch=1 n=a5 v=55
286906 On ch=1 n=c5 v=0
287082 On ch=1 n=a5 v=0
287136 On ch=1 n=e6 v=90
287140 On ch=1 n=c6 v=88
287366 On ch=1 n=a5 v=51
287376 On ch=1 n=e6 v=0
287418 On ch=1 n=c6 v=0
287420 On ch=1 n=a5 v=0
287422 On ch=1 n=b3 v=48
287508 On ch=1 n=f#4 v=77
287524 On ch=1 n=b3 v=0
287664 On ch=1 n=f#6 v=83
287668 On ch=1 n=d5 v=63
287684 On ch=1 n=f#5 v=73
287882 Par ch=1 c=64 v=63
287934 Par ch=1 c=64 v=127
287972 On ch=1 n=b5 v=59
288214 On ch=1 n=d6 v=64
288218 On ch=1 n=f#4 v=0
288228 On ch=1 n=b5 v=0
288270 On ch=1 n=f#5 v=0
288270 On ch=1 n=d5 v=0
288344 On ch=1 n=f#6 v=0
288404 On ch=1 n=d6 v=0
288418 On ch=1 n=b5 v=68
288466 On ch=1 n=b5 v=0
288620 On ch=1 n=f#5 v=66
288624 On ch=1 n=d5 v=73
288630 On ch=1 n=b4 v=59
288772 On ch=1 n=f#5 v=0
288824 On ch=1 n=b5 v=78
288836 On ch=1 n=d5 v=0
288854 On ch=1 n=b4 v=0
289024 On ch=1 n=d6 v=83
289116 On ch=1 n=b5 v=0
289204 On ch=1 n=b5 v=71
289370 On ch=1 n=d6 v=0
289422 On ch=1 n=f#3 v=63
289480 On ch=1 n=b5 v=0
289504 On ch=1 n=c6 v=69
289514 On ch=1 n=a5 v=44
289584 Par ch=1 c=64 v=63
289584 Par ch=1 c=64 v=127
289788 On ch=1 n=c6 v=0
289796 On ch=1 n=a5 v=0
289800 On ch=1 n=e5 v=54
289886 On ch=1 n=e5 v=0
290038 On ch=1 n=a5 v=86
290060 On ch=1 n=e5 v=65
290248 On ch=1 n=e5 v=0
290254 On ch=1 n=c5 v=71
290288 On ch=1 n=f#3 v=0
290400 On ch=1 n=c5 v=0
290438 On ch=1 n=b3 v=63
290472 On ch=1 n=f#5 v=100
290476 On ch=1 n=d5 v=82
290504 On ch=1 n=a5 v=0
290684 On ch=1 n=b4 v=86
290720 On ch=1 n=d5 v=0
290742 On ch=1 n=f#5 v=0
290918 On ch=1 n=b4 v=0
290952 On ch=1 n=e5 v=102
290952 On ch=1 n=d4 v=65
290956 On ch=1 n=c5 v=99
291110 On ch=1 n=c5 v=0
291218 On ch=1 n=f#4 v=88
291282 On ch=1 n=e5 v=0
291342 On ch=1 n=f#4 v=0
291376 On ch=1 n=b3 v=0
291542 On ch=1 n=d4 v=0
291620 On ch=1 n=b3 v=56
291622 On ch=1 n=f#5 v=96
291644 On ch=1 n=d5 v=72
291646 On ch=1 n=b4 v=74
291820 Par ch=1 c=64 v=63
291842 Par ch=1 c=64 v=0
291932 Par ch=1 c=64 v=63
291950 Par ch=1 c=64 v=127
292272 On ch=1 n=b4 v=0
292330 On ch=1 n=d5 v=0
292384 On ch=1 n=f#5 v=0
292904 On ch=1 n=b6 v=98
292922 On ch=1 n=b5 v=68
294084 On ch=1 n=b2 v=64
294742 On ch=1 n=b2 v=0
294820 On ch=1 n=b3 v=0
294828 On ch=1 n=b5 v=0
294844 On ch=1 n=b6 v=0
295688 On ch=1 n=b6 v=59
295702 On ch=1 n=b5 v=46
296244 On ch=1 n=b5 v=0
296294 On ch=1 n=b4 v=63
296478 On ch=1 n=c5 v=69
296534 On ch=1 n=b6 v=0
296552 On ch=1 n=e5 v=64
296658 On ch=1 n=b5 v=79
296746 On ch=1 n=b5 v=0
296754 On ch=1 n=e5 v=0
296766 On ch=1 n=c6 v=67
296786 On ch=1 n=c5 v=0
296804 On ch=1 n=b4 v=0
296892 On ch=1 n=e6 v=51
297072 On ch=1 n=b6 v=63
297210 On ch=1 n=a3 v=60
297288 On ch=1 n=c6 v=0
297348 On ch=1 n=e4 v=68
297508 On ch=1 n=b4 v=63
297538 On ch=1 n=b5 v=60
297640 On ch=1 n=e6 v=0
297670 Par ch=1 c=64 v=63
297690 Par ch=1 c=64 v=0
297758 Par ch=1 c=64 v=63
297778 Par ch=1 c=64 v=127
298010 On ch=1 n=a3 v=0
298100 On ch=1 n=e4 v=0
298296 On ch=1 n=b4 v=0
298342 On ch=1 n=c6 v=56
298346 On ch=1 n=e6 v=48
298424 On ch=1 n=b5 v=0
298868 On ch=1 n=c5 v=66
298872 On ch=1 n=e5 v=67
299144 On ch=1 n=c6 v=0
299182 On ch=1 n=e6 v=0
299330 On ch=1 n=c6 v=50
299330 On ch=1 n=e6 v=46
299740 On ch=1 n=b4 v=88
299834 On ch=1 n=b6 v=0
299856 On ch=1 n=c6 v=0
299902 On ch=1 n=e6 v=0
300066 On ch=1 n=e5 v=0
300112 On ch=1 n=b4 v=0
300142 On ch=1 n=c5 v=0
300348 On ch=1 n=a6 v=97
300348 On ch=1 n=a4 v=77
300350 On ch=1 n=a5 v=88
300364 On ch=1 n=g6 v=87
300368 On ch=1 n=e6 v=80
300370 On ch=1 n=e5 v=72
300372 On ch=1 n=g5 v=60
300414 Par ch=1 c=64 v=63
300438 Par ch=1 c=64 v=127
300612 On ch=1 n=a5 v=0
300614 On ch=1 n=e6 v=0
300656 On ch=1 n=g6 v=0
300658 On ch=1 n=a6 v=0
300940 On ch=1 n=a4 v=0
300944 On ch=1 n=d5 v=72
300954 On ch=1 n=d7 v=102
300966 On ch=1 n=d6 v=78
301152 On ch=1 n=e5 v=0
301158 On ch=1 n=d7 v=0
301210 On ch=1 n=g5 v=0
301230 On ch=1 n=d6 v=0
301322 On ch=1 n=d5 v=0
301640 On ch=1 n=b6 v=80
301652 On ch=1 n=e5 v=48
301654 On ch=1 n=g5 v=41
301654 On ch=1 n=c5 v=49
301656 On ch=1 n=b4 v=49
301658 On ch=1 n=e6 v=66
301662 On ch=1 n=b5 v=50
301664 On ch=1 n=c6 v=54
301714 Par ch=1 c=64 v=63
301778 Par ch=1 c=64 v=127
302020 On ch=1 n=c6 v=0
302032 On ch=1 n=b5 v=0
302044 On ch=1 n=b4 v=0
302050 On ch=1 n=b6 v=0
302082 On ch=1 n=e5 v=0
302086 On ch=1 n=c5 v=0
302128 On ch=1 n=g5 v=0
302210 On ch=1 n=b6 v=84
302218 On ch=1 n=e6 v=0
302218 On ch=1 n=b4 v=67
302226 On ch=1 n=b5 v=60
302228 Par ch=1 c=64 v=63
302266 Par ch=1 c=64 v=127
302404 On ch=1 n=b4 v=0
302434 On ch=1 n=b6 v=0
302474 On ch=1 n=b5 v=0
303000 On ch=1 n=d3 v=33
303004 On ch=1 n=f#4 v=65
303020 On ch=1 n=a3 v=43
303030 On ch=1 n=e5 v=48
303030 On ch=1 n=c5 v=55
303234 On ch=1 n=a3 v=0
303266 On ch=1 n=d3 v=0
303270 On ch=1 n=f#4 v=0
303350 On ch=1 n=c5 v=0
303424 On ch=1 n=e5 v=0
303878 On ch=1 n=f#4 v=67
303878 On ch=1 n=a6 v=81
303900 On ch=1 n=a5 v=36
304508 On ch=1 n=e6 v=47
304514 On ch=1 n=c6 v=56
304548 On ch=1 n=c5 v=27
304550 On ch=1 n=e5 v=29
304726 On ch=1 n=a6 v=0
304744 On ch=1 n=a5 v=0
304940 On ch=1 n=f#4 v=0
304972 On ch=1 n=g6 v=90
304986 On ch=1 n=g5 v=61
304992 On ch=1 n=b4 v=71
305024 On ch=1 n=c6 v=0
305038 On ch=1 n=c5 v=0
305052 On ch=1 n=e5 v=0
305054 On ch=1 n=e6 v=0
305196 Par ch=1 c=64 v=63
305258 Par ch=1 c=64 v=127
305460 On ch=1 n=e6 v=49
305466 On ch=1 n=c6 v=54
305482 On ch=1 n=c5 v=58
305508 On ch=1 n=e5 v=42
305714 On ch=1 n=g5 v=0
305716 On ch=1 n=g6 v=0
305916 On ch=1 n=e5 v=0
305936 On ch=1 n=a6 v=76
305942 On ch=1 n=c6 v=0
305950 On ch=1 n=a4 v=54
305960 On ch=1 n=a5 v=46
305964 On ch=1 n=e6 v=0
305990 On ch=1 n=c5 v=0
306016 On ch=1 n=b4 v=0
306104 Par ch=1 c=64 v=63
306166 Par ch=1 c=64 v=127
306530 On ch=1 n=c5 v=41
306532 On ch=1 n=c6 v=36
306536 On ch=1 n=e6 v=37
306556 On ch=1 n=e5 v=19
306752 On ch=1 n=a6 v=0
306898 On ch=1 n=a5 v=0
306934 On ch=1 n=e6 v=0
306940 On ch=1 n=e5 v=0
306994 On ch=1 n=c6 v=0
307076 On ch=1 n=c5 v=0
307290 On ch=1 n=e6 v=80
307306 On ch=1 n=e5 v=40
307308 On ch=1 n=g4 v=41
307356 On ch=1 n=a4 v=0
307458 Par ch=1 c=64 v=63
307522 Par ch=1 c=64 v=127
307968 On ch=1 n=e5 v=0
308126 On ch=1 n=b4 v=25
308128 On ch=1 n=b5 v=59
308142 On ch=1 n=e5 v=23
308826 On ch=1 n=b5 v=0
308942 On ch=1 n=b4 v=0
308982 On ch=1 n=e5 v=0
309062 On ch=1 n=e6 v=0
309322 On ch=1 n=b4 v=20
309338 On ch=1 n=b5 v=27
309340 On ch=1 n=e6 v=15
309374 On ch=1 n=e5 v=10
309494 On ch=1 n=e5 v=0
309546 On ch=1 n=b4 v=0
309596 On ch=1 n=g4 v=0
309876 On ch=1 n=b5 v=0
309898 On ch=1 n=e6 v=0
310000 On ch=1 n=e4 v=48
310012 On ch=1 n=e3 v=47
310320 On ch=1 n=e4 v=0
310634 On ch=1 n=d6 v=81
310638 On ch=1 n=d3 v=67
310654 On ch=1 n=d5 v=59
310658 On ch=1 n=c6 v=78
310686 Par ch=1 c=64 v=63
310688 On ch=1 n=d4 v=45
310690 On ch=1 n=c4 v=42
310720 Par ch=1 c=64 v=127
310722 On ch=1 n=e3 v=0
310866 On ch=1 n=d3 v=0
310886 On ch=1 n=d5 v=0
310942 On ch=1 n=c6 v=0
310946 On ch=1 n=d6 v=0
310988 On ch=1 n=c4 v=0
310996 On ch=1 n=d4 v=0
311198 On ch=1 n=g6 v=98
311210 On ch=1 n=g5 v=68
311214 On ch=1 n=g4 v=55
311216 On ch=1 n=g3 v=59
311434 On ch=1 n=g6 v=0
311474 On ch=1 n=g3 v=0
311474 On ch=1 n=g4 v=0
311508 On ch=1 n=g5 v=0
311894 On ch=1 n=f#6 v=72
311906 On ch=1 n=c4 v=40
311916 On ch=1 n=f#5 v=30
311916 On ch=1 n=d6 v=51
311916 On ch=1 n=f#4 v=30
311928 On ch=1 n=d4 v=49
311936 On ch=1 n=c6 v=54
311944 On ch=1 n=f#3 v=25
311968 Par ch=1 c=64 v=63
311982 Par ch=1 c=64 v=0
312006 Par ch=1 c=64 v=63
312032 Par ch=1 c=64 v=127
312232 On ch=1 n=f#4 v=0
312240 On ch=1 n=d4 v=0
312248 On ch=1 n=c6 v=0
312262 On ch=1 n=c4 v=0
312290 On ch=1 n=f#6 v=0
312308 On ch=1 n=d6 v=0
312314 On ch=1 n=f#5 v=0
312366 On ch=1 n=f#3 v=0
312832 On ch=1 n=e6 v=41
312836 On ch=1 n=b5 v=37
312844 On ch=1 n=e3 v=35
312848 On ch=1 n=e4 v=26
312850 On ch=1 n=b3 v=34
312858 On ch=1 n=e5 v=31
312976 Par ch=1 c=64 v=63
312998 Par ch=1 c=64 v=0
313040 Par ch=1 c=64 v=63
313074 Par ch=1 c=64 v=127
313364 On ch=1 n=e3 v=0
313416 On ch=1 n=b3 v=0
313436 On ch=1 n=e4 v=0
313546 On ch=1 n=e5 v=0
313586 On ch=1 n=b5 v=0
313588 On ch=1 n=e6 v=0
313874 On ch=1 n=b4 v=126
313876 On ch=1 n=b3 v=124
314340 Par ch=1 c=64 v=127
314590 On ch=1 n=b4 v=0
314680 On ch=1 n=b3 v=0
314722 On ch=1 n=b5 v=117
314722 On ch=1 n=d4 v=125
314726 On ch=1 n=d5 v=121
314860 Par ch=1 c=64 v=63
314868 Par ch=1 c=64 v=0
314948 Par ch=1 c=64 v=63
314956 Par ch=1 c=64 v=127
315264 On ch=1 n=d4 v=0
315282 On ch=1 n=d5 v=0
315420 On ch=1 n=e5 v=120
315424 On ch=1 n=b5 v=0
315428 On ch=1 n=e4 v=121
315552 On ch=1 n=e4 v=0
315586 On ch=1 n=e5 v=0
316044 On ch=1 n=e3 v=127
316106 Par ch=1 c=64 v=63
316112 Par ch=1 c=64 v=0
316162 Par ch=1 c=64 v=63
316176 Par ch=1 c=64 v=127
316242 On ch=1 n=b3 v=120
316308 On ch=1 n=e3 v=0
316340 On ch=1 n=b3 v=0
316382 On ch=1 n=g#4 v=106
316496 On ch=1 n=d5 v=98
316524 On ch=1 n=g#4 v=0
316630 On ch=1 n=f#5 v=105
316782 On ch=1 n=d6 v=96
316798 On ch=1 n=b6 v=116
316894 On ch=1 n=d6 v=0
316896 On ch=1 n=b6 v=0
317332 On ch=1 n=d5 v=0
317432 On ch=1 n=f#5 v=0
318148 On ch=1 n=d3 v=124
318152 Par ch=1 c=64 v=63
318154 Par ch=1 c=64 v=0
318188 On ch=1 n=a3 v=114
318220 Par ch=1 c=64 v=63
318230 Par ch=1 c=64 v=127
318304 On ch=1 n=d3 v=0
318334 On ch=1 n=a3 v=0
318644 On ch=1 n=c6 v=104
318648 On ch=1 n=d7 v=106
318650 On ch=1 n=a6 v=102
318652 On ch=1 n=f#4 v=112
318654 On ch=1 n=e6 v=103
318654 On ch=1 n=e5 v=117
318654 On ch=1 n=c5 v=112
318696 On ch=1 n=g6 v=30
318730 On ch=1 n=g6 v=0
318986 On ch=1 n=d7 v=0
319020 On ch=1 n=c6 v=0
319086 On ch=1 n=f#4 v=0
319134 On ch=1 n=c5 v=0
319230 On ch=1 n=a6 v=0
319236 On ch=1 n=e6 v=0
319258 On ch=1 n=e5 v=0
319310 On ch=1 n=b5 v=107
319312 On ch=1 n=b4 v=125
319386 On ch=1 n=b5 v=0
319494 On ch=1 n=b4 v=0
319836 On ch=1 n=a4 v=118
319844 On ch=1 n=a5 v=114
319928 On ch=1 n=a5 v=0
319942 On ch=1 n=a4 v=0
320522 On ch=1 n=g3 v=125
320524 On ch=1 n=g2 v=118
320572 Par ch=1 c=64 v=63
320574 Par ch=1 c=64 v=0
320662 Par ch=1 c=64 v=63
320670 Par ch=1 c=64 v=127
320776 On ch=1 n=g2 v=0
320826 On ch=1 n=g3 v=0
321056 On ch=1 n=f#4 v=93
321242 On ch=1 n=b4 v=93
321350 On ch=1 n=f#5 v=116
321370 On ch=1 n=f#4 v=0
321388 On ch=1 n=b4 v=0
321416 On ch=1 n=f#5 v=0
321444 On ch=1 n=b5 v=92
321566 On ch=1 n=f#6 v=110
321612 On ch=1 n=b5 v=0
321668 On ch=1 n=b6 v=107
321704 On ch=1 n=d7 v=126
321760 On ch=1 n=d7 v=0
323208 On ch=1 n=b6 v=0
323240 On ch=1 n=f#6 v=0
324086 On ch=1 n=e4 v=121
324090 On ch=1 n=e5 v=126
324090 On ch=1 n=e3 v=117
324168 On ch=1 n=e5 v=0
325382 On ch=1 n=e4 v=0
325736 On ch=1 n=d4 v=122
325736 On ch=1 n=d3 v=113
325738 On ch=1 n=d5 v=127
325804 On ch=1 n=e3 v=0
325892 On ch=1 n=d5 v=0
326594 On ch=1 n=d4 v=0
326742 On ch=1 n=d3 v=0
327808 On ch=1 n=g3 v=127
327810 On ch=1 n=g2 v=120
327836 Par ch=1 c=64 v=63
327838 Par ch=1 c=64 v=0
327930 Par ch=1 c=64 v=63
327934 Par ch=1 c=64 v=127
328068 On ch=1 n=g2 v=0
328118 On ch=1 n=g3 v=0
328474 On ch=1 n=d4 v=97
328480 On ch=1 n=d7 v=111
328482 On ch=1 n=g6 v=107
328482 On ch=1 n=d5 v=121
328484 On ch=1 n=g4 v=108
328486 On ch=1 n=d6 v=112
329128 On ch=1 n=d5 v=0
329140 On ch=1 n=d4 v=0
329162 On ch=1 n=g4 v=0
334346 On ch=1 n=d7 v=0
334404 On ch=1 n=g6 v=0
334418 On ch=1 n=d6 v=0
334430 Par ch=1 c=64 v=63
334440 Par ch=1 c=64 v=0
334440 Meta TrkEnd
TrkEnd
