MFile 1 2 480
MTrk
0 Tempo 500000
0 TimeSig 4/4 24 8
0 Meta TrkEnd
TrkEnd
MTrk
0 SeqSpec 43 00 01 00
0 Meta TrkName "<Master Volume>"
0 Meta 0x21 00
0 SysEx f0 41 10 42 12 40 00 7f 00 41 f7
0 SysEx f0 41 10 42 12 40 00 04 64 58 f7
192 Meta Text "<Master Reverve>"
192 SysEx f0 41 10 42 12 40 01 30 03 0c f7
192 SysEx f0 41 10 42 12 40 01 33 50 3c f7
192 SysEx f0 41 10 42 12 40 01 34 3c 4f f7
576 Par ch=1 c=0 v=0
580 Par ch=1 c=32 v=1
584 PrCh ch=1 p=0
780 Par ch=1 c=7 v=100
972 Par ch=1 c=11 v=80
1164 Par ch=1 c=10 v=64
1356 Par ch=1 c=1 v=0
1356 Meta Text "<part reverve>"
1356 Par ch=1 c=91 v=90
1452 Par ch=1 c=99 v=1
1456 Par ch=1 c=98 v=32
1460 Par ch=1 c=6 v=62
1464 Par ch=1 c=99 v=1
1468 Par ch=1 c=98 v=33
1472 Par ch=1 c=6 v=54
1476 Par ch=1 c=99 v=1
1480 Par ch=1 c=98 v=99
1484 Par ch=1 c=6 v=62
1488 Par ch=1 c=99 v=1
1492 Par ch=1 c=98 v=100
1496 Par ch=1 c=6 v=60
1500 Par ch=1 c=99 v=1
1504 Par ch=1 c=98 v=102
1508 Par ch=1 c=6 v=70
1638 Par ch=1 c=67 v=127
2074 On ch=1 n=e5 v=42
2096 On ch=1 n=b5 v=40
2100 On ch=1 n=d#6 v=57
2186 Par ch=1 c=64 v=63
2206 Par ch=1 c=64 v=127
2336 On ch=1 n=g#6 v=68
2348 On ch=1 n=d#6 v=0
2514 On ch=1 n=g#6 v=0
2546 On ch=1 n=d#7 v=83
2550 On ch=1 n=e5 v=0
2550 On ch=1 n=g#5 v=72
2552 On ch=1 n=e6 v=50
2636 On ch=1 n=b5 v=0
2662 On ch=1 n=g#5 v=0
2724 On ch=1 n=e6 v=0
2752 On ch=1 n=f#7 v=84
2774 On ch=1 n=d#7 v=0
2982 On ch=1 n=f#7 v=0
2988 On ch=1 n=d#7 v=83
3006 On ch=1 n=e6 v=56
3010 On ch=1 n=b6 v=52
3136 On ch=1 n=b6 v=0
3170 On ch=1 n=e6 v=0
3178 On ch=1 n=d#7 v=0
3206 On ch=1 n=g#6 v=80
3404 On ch=1 n=g#6 v=0
3412 On ch=1 n=c#6 v=83
3420 On ch=1 n=e6 v=72
3440 On ch=1 n=a5 v=29
3500 On ch=1 n=e6 v=0
3522 On ch=1 n=c#6 v=0
3526 On ch=1 n=g#6 v=65
3530 On ch=1 n=a5 v=0
3596 On ch=1 n=c#7 v=81
3628 On ch=1 n=g#6 v=0
3690 On ch=1 n=e7 v=71
3722 On ch=1 n=c#7 v=0
3812 On ch=1 n=e7 v=0
3852 On ch=1 n=e5 v=52
3856 On ch=1 n=b5 v=61
3860 On ch=1 n=d#6 v=88
3878 Par ch=1 c=64 v=63
3910 Par ch=1 c=64 v=0
3972 Par ch=1 c=64 v=63
4014 Par ch=1 c=64 v=127
4094 On ch=1 n=g#6 v=79
4100 On ch=1 n=d#6 v=0
4268 On ch=1 n=e5 v=0
4282 On ch=1 n=g#6 v=0
4298 On ch=1 n=e6 v=67
4300 On ch=1 n=g#5 v=61
4314 On ch=1 n=d#7 v=82
4328 On ch=1 n=b5 v=0
4400 On ch=1 n=g#5 v=0
4426 On ch=1 n=e6 v=0
4518 On ch=1 n=f#7 v=76
4544 On ch=1 n=d#7 v=0
4732 On ch=1 n=b6 v=65
4736 On ch=1 n=f#7 v=0
4750 On ch=1 n=d#7 v=80
4768 On ch=1 n=e6 v=44
4902 On ch=1 n=b6 v=0
4910 On ch=1 n=d#7 v=0
4912 On ch=1 n=e6 v=0
4960 On ch=1 n=g#6 v=71
5168 On ch=1 n=g#6 v=0
5178 On ch=1 n=c#6 v=70
5202 On ch=1 n=a5 v=46
5204 On ch=1 n=e6 v=56
5210 Par ch=1 c=64 v=63
5276 Par ch=1 c=64 v=127
5302 On ch=1 n=c#6 v=0
5306 On ch=1 n=g#6 v=64
5336 On ch=1 n=e6 v=0
5378 On ch=1 n=a5 v=0
5382 On ch=1 n=c#7 v=80
5404 On ch=1 n=g#6 v=0
5496 On ch=1 n=e7 v=69
5510 On ch=1 n=c#7 v=0
5604 On ch=1 n=e7 v=0
5654 On ch=1 n=e5 v=52
5662 Par ch=1 c=64 v=63
5664 On ch=1 n=b5 v=55
5672 On ch=1 n=d#6 v=87
5740 Par ch=1 c=64 v=127
5904 On ch=1 n=d#6 v=0
5908 On ch=1 n=g#6 v=78
6062 On ch=1 n=g#6 v=0
6100 On ch=1 n=g#5 v=66
6104 On ch=1 n=e6 v=54
6114 On ch=1 n=e5 v=0
6122 On ch=1 n=d#7 v=85
6130 On ch=1 n=b5 v=0
6208 On ch=1 n=g#5 v=0
6260 On ch=1 n=e6 v=0
6312 On ch=1 n=d#7 v=0
6316 On ch=1 n=f#7 v=68
6548 On ch=1 n=f#7 v=0
6556 On ch=1 n=g#6 v=62
6562 On ch=1 n=e6 v=42
6568 On ch=1 n=b5 v=35
6746 On ch=1 n=e6 v=0
6780 On ch=1 n=g#6 v=0
6782 On ch=1 n=d#7 v=74
6842 On ch=1 n=b5 v=0
7044 On ch=1 n=b6 v=38
7050 On ch=1 n=g#7 v=70
7064 On ch=1 n=d#7 v=0
7066 On ch=1 n=e6 v=36
7194 On ch=1 n=e6 v=0
7228 On ch=1 n=b6 v=0
7336 On ch=1 n=g#7 v=0
7336 On ch=1 n=b7 v=46
7466 On ch=1 n=b7 v=0
7676 On ch=1 n=e6 v=48
7686 On ch=1 n=g#6 v=65
7716 Par ch=1 c=64 v=63
7734 Par ch=1 c=64 v=0
7744 On ch=1 n=a5 v=50
7782 Par ch=1 c=64 v=63
7824 Par ch=1 c=64 v=127
7946 On ch=1 n=g#6 v=0
7946 On ch=1 n=c#7 v=74
8120 On ch=1 n=c#7 v=0
8156 On ch=1 n=c#6 v=77
8164 On ch=1 n=a5 v=0
8166 On ch=1 n=g#7 v=75
8178 On ch=1 n=a6 v=34
8226 On ch=1 n=e6 v=0
8254 On ch=1 n=c#6 v=0
8292 On ch=1 n=a6 v=0
8312 Par ch=1 c=67 v=127
8358 On ch=1 n=c#8 v=91
8378 On ch=1 n=g#7 v=0
8546 On ch=1 n=c#8 v=0
8570 On ch=1 n=e7 v=74
8572 On ch=1 n=a6 v=71
8574 On ch=1 n=g#7 v=88
8630 On ch=1 n=e7 v=0
8666 On ch=1 n=a6 v=0
8752 On ch=1 n=g#7 v=0
8776 On ch=1 n=c#7 v=90
8950 On ch=1 n=c#7 v=0
8954 Par ch=1 c=64 v=63
8956 On ch=1 n=d5 v=49
8960 On ch=1 n=f#5 v=73
8996 On ch=1 n=f#6 v=86
9034 On ch=1 n=c6 v=68
9040 On ch=1 n=d5 v=0
9052 Par ch=1 c=64 v=127
9078 On ch=1 n=f#5 v=0
9100 On ch=1 n=f#6 v=0
9106 On ch=1 n=c7 v=67
9148 On ch=1 n=c6 v=0
9168 On ch=1 n=e7 v=75
9194 On ch=1 n=c7 v=0
9262 On ch=1 n=g#7 v=92
9308 On ch=1 n=e7 v=0
9344 Par ch=1 c=64 v=63
9370 Par ch=1 c=64 v=0
9384 On ch=1 n=a5 v=48
9390 On ch=1 n=e6 v=65
9414 On ch=1 n=g#7 v=0
9426 On ch=1 n=g#6 v=96
9448 Par ch=1 c=64 v=63
9472 Par ch=1 c=64 v=127
9634 On ch=1 n=c#7 v=88
9636 On ch=1 n=g#6 v=0
9714 On ch=1 n=a5 v=0
9750 On ch=1 n=e6 v=0
9802 On ch=1 n=c#7 v=0
9824 On ch=1 n=c#6 v=73
9840 On ch=1 n=g#7 v=94
9846 On ch=1 n=a6 v=55
9894 On ch=1 n=c#6 v=0
9932 On ch=1 n=a6 v=0
10002 On ch=1 n=g#7 v=0
10034 On ch=1 n=c#8 v=88
10224 On ch=1 n=e7 v=76
10232 On ch=1 n=a6 v=71
10236 On ch=1 n=c#8 v=0
10266 On ch=1 n=g#7 v=88
10296 On ch=1 n=e7 v=0
10326 On ch=1 n=a6 v=0
10438 On ch=1 n=g#7 v=0
10458 On ch=1 n=c#7 v=88
10628 Par ch=1 c=64 v=63
10636 On ch=1 n=c#7 v=0
10638 On ch=1 n=d5 v=61
10646 On ch=1 n=f#5 v=75
10674 On ch=1 n=f#6 v=88
10722 On ch=1 n=d5 v=0
10726 On ch=1 n=c6 v=68
10732 Par ch=1 c=64 v=127
10752 On ch=1 n=f#5 v=0
10786 On ch=1 n=c7 v=74
10788 On ch=1 n=f#6 v=0
10846 On ch=1 n=c6 v=0
10868 On ch=1 n=e7 v=76
10888 On ch=1 n=c7 v=0
10964 On ch=1 n=g#7 v=87
10998 On ch=1 n=e7 v=0
11054 Par ch=1 c=64 v=63
11074 On ch=1 n=a5 v=54
11078 On ch=1 n=e6 v=65
11082 Par ch=1 c=64 v=0
11104 On ch=1 n=g#7 v=0
11118 On ch=1 n=g#6 v=88
11176 Par ch=1 c=64 v=63
11200 Par ch=1 c=64 v=127
11336 On ch=1 n=c#7 v=89
11338 On ch=1 n=g#6 v=0
11488 On ch=1 n=c#7 v=0
11490 On ch=1 n=a5 v=0
11538 On ch=1 n=a6 v=54
11544 On ch=1 n=g#7 v=94
11546 On ch=1 n=c#6 v=72
11582 On ch=1 n=e6 v=0
11600 On ch=1 n=a6 v=0
11656 On ch=1 n=c#6 v=0
11688 On ch=1 n=g#7 v=0
11744 On ch=1 n=c#8 v=95
11852 On ch=1 n=c#8 v=0
11974 On ch=1 n=f#5 v=63
11978 Par ch=1 c=64 v=63
11984 On ch=1 n=c6 v=47
11986 On ch=1 n=f#6 v=84
12006 Par ch=1 c=64 v=0
12082 Par ch=1 c=64 v=63
12108 Par ch=1 c=64 v=127
12172 On ch=1 n=c6 v=0
12184 On ch=1 n=f#6 v=0
12210 On ch=1 n=c7 v=70
12410 On ch=1 n=a5 v=50
12414 On ch=1 n=d5 v=48
12416 On ch=1 n=f#5 v=0
12426 On ch=1 n=e7 v=78
12430 On ch=1 n=c7 v=0
12564 On ch=1 n=a5 v=0
12626 On ch=1 n=d5 v=0
12636 On ch=1 n=e7 v=0
12644 On ch=1 n=g#7 v=71
12758 On ch=1 n=g#7 v=0
12816 Par ch=1 c=64 v=63
12826 Par ch=1 c=64 v=0
12826 On ch=1 n=a#4 v=56
12854 Par ch=1 c=67 v=0
12890 On ch=1 n=g#5 v=60
12892 Par ch=1 c=64 v=63
12894 Par ch=1 c=64 v=127
12908 On ch=1 n=d6 v=65
12998 On ch=1 n=g#6 v=81
13024 On ch=1 n=d6 v=0
13030 On ch=1 n=g#5 v=0
13032 On ch=1 n=a#4 v=0
13130 On ch=1 n=g#6 v=0
13130 On ch=1 n=c7 v=48
13218 On ch=1 n=c7 v=0
13224 On ch=1 n=e7 v=68
13272 On ch=1 n=g4 v=62
13322 Par ch=1 c=64 v=63
13334 On ch=1 n=c#7 v=84
13336 On ch=1 n=e7 v=0
13362 Par ch=1 c=64 v=127
13376 On ch=1 n=f5 v=42
13388 On ch=1 n=g4 v=0
13436 On ch=1 n=a6 v=71
13452 On ch=1 n=c#7 v=0
13486 On ch=1 n=f5 v=0
13536 On ch=1 n=a6 v=0
13540 On ch=1 n=f6 v=76
13616 On ch=1 n=f6 v=0
13650 On ch=1 n=b5 v=65
13748 On ch=1 n=b5 v=0
13750 Par ch=1 c=64 v=63
13756 On ch=1 n=g#5 v=68
13766 Par ch=1 c=64 v=0
13768 On ch=1 n=d5 v=38
13772 On ch=1 n=e4 v=29
13778 Par ch=1 c=64 v=63
13796 Par ch=1 c=64 v=127
13902 On ch=1 n=g#5 v=0
13904 On ch=1 n=d6 v=67
13920 On ch=1 n=d5 v=0
13978 On ch=1 n=e4 v=0
13994 Par ch=1 c=67 v=0
14016 On ch=1 n=f#6 v=75
14030 On ch=1 n=d6 v=0
14128 On ch=1 n=a#6 v=82
14140 On ch=1 n=f#6 v=0
14192 On ch=1 n=c#4 v=70
14218 Par ch=1 c=64 v=63
14230 On ch=1 n=a#6 v=0
14244 On ch=1 n=g6 v=82
14260 On ch=1 n=b4 v=55
14268 Par ch=1 c=64 v=127
14284 On ch=1 n=c#4 v=0
14342 On ch=1 n=b4 v=0
14346 On ch=1 n=d6 v=84
14362 On ch=1 n=g6 v=0
14446 On ch=1 n=d6 v=0
14446 On ch=1 n=b5 v=75
14526 On ch=1 n=b5 v=0
14562 On ch=1 n=f5 v=78
14628 On ch=1 n=f5 v=0
14772 On ch=1 n=g#4 v=47
14776 On ch=1 n=d5 v=67
14788 On ch=1 n=a#3 v=67
14804 Par ch=1 c=64 v=63
14834 Par ch=1 c=64 v=0
15008 Par ch=1 c=67 v=0
15042 On ch=1 n=g#5 v=76
15070 Par ch=1 c=64 v=63
15084 Par ch=1 c=64 v=127
15152 On ch=1 n=a#3 v=0
15158 On ch=1 n=d5 v=0
15176 On ch=1 n=g#4 v=0
15258 On ch=1 n=c6 v=78
15268 On ch=1 n=g#5 v=0
15304 On ch=1 n=a#4 v=76
15312 On ch=1 n=g#5 v=77
15362 On ch=1 n=g#5 v=0
15364 On ch=1 n=a#4 v=0
15472 On ch=1 n=e6 v=71
15500 On ch=1 n=c6 v=0
15694 On ch=1 n=e6 v=0
15702 On ch=1 n=c6 v=67
15906 On ch=1 n=g#5 v=71
15954 On ch=1 n=c6 v=0
16064 On ch=1 n=c#4 v=45
16096 On ch=1 n=g#5 v=0
16100 Par ch=1 c=64 v=63
16124 Par ch=1 c=64 v=0
16140 On ch=1 n=g5 v=60
16140 Par ch=1 c=64 v=63
16142 On ch=1 n=f5 v=67
16146 Par ch=1 c=67 v=127
16166 Par ch=1 c=64 v=127
16174 On ch=1 n=b4 v=46
16256 On ch=1 n=b5 v=71
16280 On ch=1 n=f5 v=0
16286 On ch=1 n=g5 v=0
16296 On ch=1 n=b4 v=0
16352 On ch=1 n=d6 v=82
16366 On ch=1 n=b5 v=0
16408 On ch=1 n=c#4 v=0
16428 On ch=1 n=d6 v=0
16444 On ch=1 n=g6 v=85
16512 On ch=1 n=g6 v=0
16570 Par ch=1 c=64 v=63
16578 Par ch=1 c=64 v=0
16580 On ch=1 n=a#3 v=56
16622 On ch=1 n=g#4 v=58
16630 On ch=1 n=d5 v=63
16664 Par ch=1 c=64 v=63
16676 Par ch=1 c=64 v=127
16738 On ch=1 n=a#3 v=0
16772 On ch=1 n=g#4 v=0
16828 On ch=1 n=d5 v=0
16830 On ch=1 n=g#5 v=88
17046 On ch=1 n=c6 v=86
17056 On ch=1 n=a#4 v=65
17170 On ch=1 n=g#5 v=0
17176 On ch=1 n=a#4 v=0
17272 On ch=1 n=e6 v=76
17290 On ch=1 n=c6 v=0
17478 On ch=1 n=c6 v=75
17480 On ch=1 n=e6 v=0
17678 On ch=1 n=g#5 v=72
17710 On ch=1 n=c6 v=0
17802 On ch=1 n=c#4 v=57
17868 On ch=1 n=g#5 v=0
17874 Par ch=1 c=64 v=63
17892 On ch=1 n=g5 v=59
17894 On ch=1 n=b4 v=50
17896 On ch=1 n=f5 v=68
17936 Par ch=1 c=64 v=127
18002 On ch=1 n=b5 v=80
18020 On ch=1 n=f5 v=0
18028 On ch=1 n=g5 v=0
18048 On ch=1 n=b4 v=0
18092 On ch=1 n=d6 v=81
18102 On ch=1 n=b5 v=0
18124 On ch=1 n=c#4 v=0
18184 On ch=1 n=g6 v=80
18188 On ch=1 n=d6 v=0
18254 On ch=1 n=g6 v=0
18344 On ch=1 n=a#3 v=67
18354 On ch=1 n=g#4 v=61
18356 On ch=1 n=d5 v=76
18376 Par ch=1 c=64 v=63
18388 Par ch=1 c=64 v=0
18438 Par ch=1 c=64 v=63
18458 Par ch=1 c=64 v=127
18534 On ch=1 n=a#3 v=0
18580 On ch=1 n=g#4 v=0
18616 On ch=1 n=d5 v=0
18616 On ch=1 n=g#5 v=80
18812 On ch=1 n=g#5 v=0
18850 On ch=1 n=g#5 v=63
18854 On ch=1 n=c6 v=80
18862 On ch=1 n=a#4 v=60
19062 On ch=1 n=c6 v=0
19078 On ch=1 n=e6 v=60
19080 On ch=1 n=g#5 v=0
19280 On ch=1 n=e6 v=0
19290 On ch=1 n=c6 v=67
19402 On ch=1 n=a#4 v=0
19488 On ch=1 n=g#5 v=70
19490 On ch=1 n=c6 v=0
19720 On ch=1 n=a#4 v=44
19722 On ch=1 n=d5 v=65
19736 Par ch=1 c=64 v=63
19810 Par ch=1 c=64 v=127
19894 On ch=1 n=g#5 v=0
19960 On ch=1 n=e5 v=59
19970 On ch=1 n=d5 v=0
20198 On ch=1 n=e5 v=0
20220 On ch=1 n=d5 v=66
20302 On ch=1 n=a#4 v=0
20324 On ch=1 n=d5 v=0
20340 On ch=1 n=c5 v=63
20420 On ch=1 n=c5 v=0
20448 On ch=1 n=d5 v=72
20548 On ch=1 n=e5 v=81
20556 On ch=1 n=d5 v=0
20594 On ch=1 n=g#4 v=71
20624 Par ch=1 c=64 v=63
20630 On ch=1 n=e5 v=0
20636 Par ch=1 c=64 v=0
20668 Par ch=1 c=64 v=63
20668 On ch=1 n=c5 v=51
20698 Par ch=1 c=64 v=127
20706 On ch=1 n=f#5 v=72
20844 On ch=1 n=g#5 v=85
20906 On ch=1 n=f#5 v=0
20954 On ch=1 n=g#5 v=0
20956 On ch=1 n=a#5 v=88
20976 On ch=1 n=g#4 v=0
21072 On ch=1 n=c6 v=88
21080 On ch=1 n=a#5 v=0
21152 On ch=1 n=a#4 v=63
21160 On ch=1 n=c6 v=0
21172 On ch=1 n=f#4 v=73
21182 On ch=1 n=c5 v=0
21190 On ch=1 n=e5 v=71
21198 On ch=1 n=d6 v=91
21226 Par ch=1 c=64 v=63
21296 Par ch=1 c=64 v=127
21318 On ch=1 n=e6 v=99
21336 On ch=1 n=d6 v=0
21470 On ch=1 n=e5 v=0
21470 On ch=1 n=f#4 v=0
21470 On ch=1 n=f#6 v=91
21482 On ch=1 n=a#4 v=0
21496 On ch=1 n=e6 v=0
21612 On ch=1 n=g#6 v=97
21668 On ch=1 n=f#6 v=0
21706 On ch=1 n=f4 v=56
21724 On ch=1 n=g#6 v=0
21770 On ch=1 n=a4 v=50
21818 On ch=1 n=d#5 v=69
21822 Par ch=1 c=64 v=63
21836 On ch=1 n=b6 v=71
21838 On ch=1 n=g6 v=75
21876 Par ch=1 c=64 v=127
21912 On ch=1 n=b6 v=0
21958 On ch=1 n=b5 v=78
21966 Par ch=1 c=67 v=127
21968 On ch=1 n=g6 v=0
21990 On ch=1 n=d#5 v=0
22024 On ch=1 n=a4 v=0
22064 On ch=1 n=f4 v=0
22078 On ch=1 n=b5 v=0
22112 On ch=1 n=c#6 v=86
22192 On ch=1 n=d#6 v=86
22194 On ch=1 n=c#6 v=0
22274 On ch=1 n=f6 v=91
22296 On ch=1 n=d#6 v=0
22346 On ch=1 n=f6 v=0
22386 On ch=1 n=g6 v=79
22480 On ch=1 n=g6 v=0
22484 On ch=1 n=a6 v=73
22578 On ch=1 n=a6 v=0
22588 On ch=1 n=b6 v=68
22702 On ch=1 n=c#7 v=80
22706 On ch=1 n=b6 v=0
22808 On ch=1 n=e3 v=71
22834 On ch=1 n=c#7 v=0
22908 Par ch=1 c=64 v=63
22918 Par ch=1 c=64 v=127
22950 On ch=1 n=e3 v=0
22952 On ch=1 n=b3 v=59
23090 On ch=1 n=g#6 v=65
23092 On ch=1 n=d#7 v=76
23094 Par ch=1 c=64 v=63
23108 Par ch=1 c=64 v=0
23126 Par ch=1 c=64 v=63
23148 Par ch=1 c=64 v=127
23158 On ch=1 n=g#4 v=68
23174 On ch=1 n=b3 v=0
23258 On ch=1 n=d#6 v=75
23302 On ch=1 n=g#6 v=0
23332 On ch=1 n=g#4 v=0
23398 On ch=1 n=d#7 v=0
23532 On ch=1 n=g#6 v=85
23566 On ch=1 n=d#6 v=0
23712 On ch=1 n=g#6 v=0
23770 On ch=1 n=d#7 v=97
23770 On ch=1 n=b5 v=71
23800 On ch=1 n=e5 v=47
23884 On ch=1 n=e5 v=0
23902 On ch=1 n=b5 v=0
23994 On ch=1 n=f#7 v=94
24006 On ch=1 n=d#7 v=0
24194 On ch=1 n=f#7 v=0
24216 On ch=1 n=d#7 v=94
24220 On ch=1 n=g#5 v=73
24234 On ch=1 n=d#5 v=59
24238 On ch=1 n=d#6 v=54
24280 On ch=1 n=d#6 v=0
24308 On ch=1 n=g#5 v=0
24352 On ch=1 n=d#5 v=0
24384 On ch=1 n=d#7 v=0
24438 On ch=1 n=g#6 v=80
24664 On ch=1 n=g#6 v=0
24678 On ch=1 n=a4 v=49
24682 On ch=1 n=c#6 v=75
24692 On ch=1 n=e5 v=52
24786 On ch=1 n=g#6 v=76
24794 On ch=1 n=c#6 v=0
24808 On ch=1 n=e5 v=0
24832 On ch=1 n=a4 v=0
24882 On ch=1 n=c#7 v=85
24920 On ch=1 n=g#6 v=0
25014 On ch=1 n=e7 v=77
25022 On ch=1 n=e4 v=74
25024 On ch=1 n=c#7 v=0
25028 Par ch=1 c=64 v=63
25042 Par ch=1 c=64 v=0
25090 Par ch=1 c=64 v=63
25110 Par ch=1 c=64 v=127
25148 On ch=1 n=e4 v=0
25152 On ch=1 n=b4 v=65
25218 On ch=1 n=e7 v=0
25282 On ch=1 n=d#6 v=81
25292 On ch=1 n=g#5 v=74
25298 On ch=1 n=b4 v=0
25402 On ch=1 n=g#5 v=0
25530 On ch=1 n=d#6 v=0
25534 On ch=1 n=g#6 v=93
25706 On ch=1 n=g#6 v=0
25748 On ch=1 n=b5 v=78
25764 On ch=1 n=d#7 v=103
25782 On ch=1 n=e5 v=41
25834 On ch=1 n=b5 v=0
25848 On ch=1 n=e5 v=0
25972 On ch=1 n=f#7 v=96
25990 On ch=1 n=d#7 v=0
26154 On ch=1 n=d#6 v=91
26156 On ch=1 n=f#7 v=0
26158 On ch=1 n=g#5 v=76
26172 On ch=1 n=d#5 v=61
26180 On ch=1 n=d#7 v=94
26226 On ch=1 n=g#5 v=0
26228 On ch=1 n=d#6 v=0
26260 On ch=1 n=d#5 v=0
26308 On ch=1 n=d#7 v=0
26360 On ch=1 n=g#6 v=90
26554 On ch=1 n=g#6 v=0
26558 Par ch=1 c=64 v=63
26586 On ch=1 n=a4 v=56
26590 On ch=1 n=e5 v=66
26592 On ch=1 n=c#6 v=81
26596 Par ch=1 c=64 v=127
26646 On ch=1 n=e5 v=0
26670 On ch=1 n=a4 v=0
26682 On ch=1 n=g#6 v=77
26690 On ch=1 n=c#6 v=0
26772 On ch=1 n=c#7 v=86
26810 On ch=1 n=g#6 v=0
26820 Par ch=1 c=64 v=63
26828 Par ch=1 c=64 v=0
26842 On ch=1 n=e4 v=74
26870 Par ch=1 c=64 v=63
26880 On ch=1 n=e7 v=81
26888 Par ch=1 c=64 v=127
26912 On ch=1 n=c#7 v=0
26948 On ch=1 n=b4 v=58
26952 On ch=1 n=e4 v=0
27016 On ch=1 n=e7 v=0
27056 On ch=1 n=b4 v=0
27072 On ch=1 n=g#5 v=83
27094 On ch=1 n=d#6 v=84
27156 On ch=1 n=g#5 v=0
27294 On ch=1 n=d#6 v=0
27314 On ch=1 n=g#6 v=88
27430 On ch=1 n=g#6 v=0
27516 On ch=1 n=b5 v=72
27526 On ch=1 n=e5 v=63
27532 On ch=1 n=d#7 v=88
27596 On ch=1 n=b5 v=0
27604 On ch=1 n=e5 v=0
27676 On ch=1 n=d#7 v=0
27750 On ch=1 n=f#7 v=67
27948 On ch=1 n=d#5 v=61
27956 On ch=1 n=g#5 v=63
27960 On ch=1 n=f#7 v=0
27962 On ch=1 n=d#6 v=53
27970 On ch=1 n=g#6 v=79
28034 On ch=1 n=d#5 v=0
28050 On ch=1 n=g#5 v=0
28060 On ch=1 n=d#6 v=0
28164 On ch=1 n=g#6 v=0
28206 On ch=1 n=d#7 v=76
28388 On ch=1 n=b5 v=33
28426 On ch=1 n=e6 v=61
28466 On ch=1 n=b6 v=52
28498 On ch=1 n=g#7 v=78
28518 On ch=1 n=b5 v=0
28528 On ch=1 n=b6 v=0
28534 On ch=1 n=e6 v=0
28538 On ch=1 n=d#7 v=0
28544 Par ch=1 c=67 v=127
28826 On ch=1 n=b7 v=60
28836 On ch=1 n=g#7 v=0
28968 On ch=1 n=b7 v=0
29144 On ch=1 n=g#6 v=58
29148 On ch=1 n=e7 v=78
29172 On ch=1 n=c#6 v=53
29260 Par ch=1 c=64 v=63
29262 Par ch=1 c=64 v=127
29442 On ch=1 n=e7 v=0
29458 On ch=1 n=b6 v=82
29488 On ch=1 n=g#6 v=0
29520 On ch=1 n=c#6 v=0
29674 On ch=1 n=b6 v=0
29718 On ch=1 n=e6 v=61
29720 On ch=1 n=c#7 v=78
29736 On ch=1 n=g#6 v=67
29800 On ch=1 n=c#7 v=0
29846 On ch=1 n=g#6 v=0
29930 On ch=1 n=e6 v=0
29932 On ch=1 n=b5 v=71
30156 On ch=1 n=c#6 v=80
30158 On ch=1 n=b5 v=0
30170 Par ch=1 c=64 v=63
30174 On ch=1 n=f#5 v=67
30180 Par ch=1 c=64 v=0
30184 On ch=1 n=a6 v=88
30244 Par ch=1 c=64 v=63
30270 Par ch=1 c=64 v=127
30350 On ch=1 n=a6 v=0
30358 On ch=1 n=f#5 v=0
30384 On ch=1 n=e6 v=91
30390 On ch=1 n=c#6 v=0
30532 On ch=1 n=e6 v=0
30590 On ch=1 n=a5 v=78
30610 On ch=1 n=f#6 v=72
30626 On ch=1 n=c#6 v=63
30676 On ch=1 n=c#6 v=0
30704 On ch=1 n=f#6 v=0
30708 On ch=1 n=e5 v=75
30712 On ch=1 n=a5 v=0
30808 On ch=1 n=a5 v=87
30818 On ch=1 n=e5 v=0
30896 On ch=1 n=e6 v=88
30914 On ch=1 n=a5 v=0
30984 On ch=1 n=e6 v=0
31096 On ch=1 n=g#6 v=71
31116 On ch=1 n=c#6 v=71
31142 On ch=1 n=e7 v=87
31174 Par ch=1 c=64 v=63
31190 Par ch=1 c=64 v=0
31222 Par ch=1 c=64 v=63
31262 Par ch=1 c=64 v=127
31382 On ch=1 n=e7 v=0
31394 On ch=1 n=b6 v=85
31408 On ch=1 n=c#6 v=0
31430 On ch=1 n=g#6 v=0
31584 On ch=1 n=b6 v=0
31598 On ch=1 n=c#7 v=90
31610 On ch=1 n=g#6 v=74
31618 On ch=1 n=e6 v=83
31668 On ch=1 n=c#7 v=0
31710 On ch=1 n=g#6 v=0
31792 On ch=1 n=e6 v=0
31800 On ch=1 n=b5 v=84
31970 On ch=1 n=b5 v=0
32026 On ch=1 n=c#6 v=78
32028 On ch=1 n=a6 v=90
32032 Par ch=1 c=64 v=63
32034 On ch=1 n=f#5 v=70
32046 Par ch=1 c=64 v=0
32084 Par ch=1 c=64 v=63
32112 Par ch=1 c=64 v=127
32192 On ch=1 n=a6 v=0
32206 On ch=1 n=f#5 v=0
32230 On ch=1 n=c#6 v=0
32238 On ch=1 n=e6 v=84
32408 On ch=1 n=e6 v=0
32446 On ch=1 n=a5 v=71
32462 On ch=1 n=f#6 v=67
32476 On ch=1 n=c#6 v=61
32532 On ch=1 n=c#6 v=0
32552 On ch=1 n=f#6 v=0
32558 On ch=1 n=a5 v=0
32566 On ch=1 n=e5 v=74
32654 On ch=1 n=a5 v=73
32660 On ch=1 n=e5 v=0
32730 On ch=1 n=e6 v=85
32742 On ch=1 n=a5 v=0
32808 On ch=1 n=e6 v=0
32912 On ch=1 n=g#6 v=72
32926 On ch=1 n=c#6 v=64
32942 Par ch=1 c=64 v=63
32942 On ch=1 n=e7 v=90
32956 Par ch=1 c=64 v=0
33002 Par ch=1 c=64 v=63
33038 Par ch=1 c=64 v=127
33170 On ch=1 n=e7 v=0
33174 On ch=1 n=c#6 v=0
33174 On ch=1 n=b6 v=87
33194 On ch=1 n=g#6 v=0
33370 On ch=1 n=b6 v=0
33378 On ch=1 n=c#7 v=77
33388 On ch=1 n=g#6 v=70
33394 On ch=1 n=e6 v=83
33436 On ch=1 n=c#7 v=0
33480 On ch=1 n=g#6 v=0
33560 On ch=1 n=e6 v=0
33574 On ch=1 n=b5 v=77
33746 On ch=1 n=b5 v=0
33800 On ch=1 n=c#6 v=69
33806 On ch=1 n=f#5 v=60
33812 Par ch=1 c=64 v=63
33820 On ch=1 n=a6 v=85
33826 Par ch=1 c=64 v=0
33856 Par ch=1 c=64 v=63
33890 Par ch=1 c=64 v=127
33998 On ch=1 n=c#6 v=0
34000 On ch=1 n=f#5 v=0
34016 On ch=1 n=a6 v=0
34054 On ch=1 n=e6 v=69
34252 On ch=1 n=e6 v=0
34278 On ch=1 n=f#6 v=67
34278 On ch=1 n=a5 v=71
34304 On ch=1 n=c#6 v=64
34342 On ch=1 n=f#6 v=0
34386 On ch=1 n=c#6 v=0
34478 On ch=1 n=a5 v=0
34494 On ch=1 n=e5 v=67
34816 On ch=1 n=d#5 v=73
34834 On ch=1 n=f#5 v=79
34842 On ch=1 n=e5 v=0
34848 On ch=1 n=a4 v=52
34864 Par ch=1 c=64 v=63
34874 Par ch=1 c=64 v=0
34982 Par ch=1 c=64 v=63
34996 Par ch=1 c=64 v=127
35092 On ch=1 n=g#5 v=96
35116 On ch=1 n=d#5 v=0
35124 On ch=1 n=f#5 v=0
35246 On ch=1 n=g#5 v=0
35272 On ch=1 n=a4 v=0
35320 On ch=1 n=d#5 v=72
35324 On ch=1 n=c#6 v=95
35326 On ch=1 n=a5 v=65
35544 On ch=1 n=c#6 v=0
35544 On ch=1 n=f#6 v=91
35568 On ch=1 n=d#5 v=0
35668 On ch=1 n=a5 v=0
35714 Par ch=1 c=67 v=0
35774 On ch=1 n=g#5 v=73
35780 On ch=1 n=f#6 v=0
36028 On ch=1 n=c#6 v=90
36056 On ch=1 n=g#5 v=0
36166 On ch=1 n=c#6 v=0
36278 On ch=1 n=f#5 v=61
36304 On ch=1 n=f#6 v=90
36308 On ch=1 n=d#5 v=46
36322 On ch=1 n=d#6 v=67
36442 On ch=1 n=d#6 v=0
36502 On ch=1 n=f#5 v=0
36538 On ch=1 n=d#5 v=0
36638 On ch=1 n=c#7 v=79
36642 On ch=1 n=f#6 v=0
36810 On ch=1 n=c#7 v=0
36940 On ch=1 n=c#4 v=72
36942 On ch=1 n=g#4 v=83
36970 Par ch=1 c=64 v=63
36980 Par ch=1 c=64 v=0
37056 Par ch=1 c=64 v=63
37068 Par ch=1 c=64 v=127
37116 On ch=1 n=c#4 v=0
37152 On ch=1 n=g#4 v=0
37218 On ch=1 n=c#6 v=84
37220 On ch=1 n=g#6 v=88
37268 On ch=1 n=c#6 v=0
37296 On ch=1 n=g#6 v=0
37536 On ch=1 n=g#5 v=84
37558 On ch=1 n=g#7 v=96
37564 On ch=1 n=c#5 v=65
37578 On ch=1 n=c#7 v=87
37608 On ch=1 n=c#5 v=0
37624 On ch=1 n=g#5 v=0
37632 On ch=1 n=g#7 v=0
37642 On ch=1 n=c#7 v=0
37810 On ch=1 n=c#6 v=104
37822 On ch=1 n=g#6 v=79
37860 On ch=1 n=c#6 v=0
37862 On ch=1 n=g#6 v=0
38082 On ch=1 n=g#5 v=104
38086 On ch=1 n=c#5 v=101
38140 Par ch=1 c=64 v=63
38142 Par ch=1 c=64 v=127
38208 On ch=1 n=c#5 v=0
38226 On ch=1 n=c#7 v=92
38228 On ch=1 n=g#5 v=0
38332 On ch=1 n=c#7 v=0
38348 On ch=1 n=g#7 v=98
38444 On ch=1 n=g#7 v=0
38452 On ch=1 n=c#8 v=106
38536 On ch=1 n=c#8 v=0
38576 On ch=1 n=g#6 v=112
38578 On ch=1 n=g#8 v=107
38580 On ch=1 n=c#6 v=103
38660 On ch=1 n=g#8 v=0
38708 On ch=1 n=c#8 v=94
38730 On ch=1 n=g#6 v=0
38754 On ch=1 n=c#6 v=0
38788 On ch=1 n=c#8 v=0
38822 On ch=1 n=g#7 v=106
38906 On ch=1 n=g#7 v=0
38924 On ch=1 n=c#7 v=104
38982 On ch=1 n=c#7 v=0
39044 On ch=1 n=d6 v=106
39052 On ch=1 n=a5 v=96
39096 Par ch=1 c=64 v=63
39110 Par ch=1 c=64 v=0
39196 Par ch=1 c=64 v=63
39206 On ch=1 n=f#6 v=103
39210 Par ch=1 c=64 v=127
39320 On ch=1 n=d6 v=0
39346 On ch=1 n=f#6 v=0
39366 On ch=1 n=g#6 v=95
39488 On ch=1 n=g#6 v=0
39512 On ch=1 n=c#7 v=98
39518 On ch=1 n=d6 v=84
39520 On ch=1 n=a6 v=88
39626 On ch=1 n=a5 v=0
39648 On ch=1 n=d6 v=0
39666 On ch=1 n=f#7 v=92
39694 On ch=1 n=c#7 v=0
39714 On ch=1 n=a6 v=0
39796 On ch=1 n=c#7 v=99
39818 On ch=1 n=f#7 v=0
39912 Par ch=1 c=64 v=63
39922 On ch=1 n=a6 v=101
39926 On ch=1 n=d6 v=88
39932 On ch=1 n=g#6 v=99
39940 On ch=1 n=c#7 v=0
39948 Par ch=1 c=64 v=127
40040 On ch=1 n=g#6 v=0
40044 On ch=1 n=c#7 v=100
40066 On ch=1 n=a6 v=0
40138 On ch=1 n=g#6 v=98
40144 On ch=1 n=c#7 v=0
40226 On ch=1 n=g#6 v=0
40236 On ch=1 n=c#7 v=95
40272 On ch=1 n=c#7 v=0
40286 On ch=1 n=d6 v=0
40354 On ch=1 n=d7 v=84
40364 On ch=1 n=f#6 v=79
40374 On ch=1 n=f#7 v=105
40446 On ch=1 n=d7 v=0
40468 On ch=1 n=f#7 v=0
40480 On ch=1 n=f#6 v=0
40480 On ch=1 n=c#8 v=92
40572 On ch=1 n=f#7 v=99
40582 On ch=1 n=c#8 v=0
40658 On ch=1 n=f#7 v=0
40672 On ch=1 n=c#8 v=109
40734 On ch=1 n=c#8 v=0
40804 Par ch=1 c=64 v=63
40812 Par ch=1 c=64 v=0
40838 On ch=1 n=c#5 v=97
40844 On ch=1 n=g#5 v=100
40908 Par ch=1 c=64 v=63
40918 Par ch=1 c=64 v=127
41008 On ch=1 n=g#5 v=0
41024 On ch=1 n=c#5 v=0
41080 On ch=1 n=c#6 v=109
41080 On ch=1 n=g#6 v=110
41124 On ch=1 n=c#6 v=0
41148 On ch=1 n=g#6 v=0
41346 On ch=1 n=c#6 v=101
41346 On ch=1 n=g#6 v=100
41352 On ch=1 n=g#7 v=107
41362 On ch=1 n=c#7 v=110
41382 On ch=1 n=g#6 v=0
41406 On ch=1 n=c#6 v=0
41410 On ch=1 n=g#7 v=0
41420 On ch=1 n=c#7 v=0
41602 On ch=1 n=g#6 v=113
41604 On ch=1 n=c#6 v=110
41646 On ch=1 n=c#6 v=0
41662 On ch=1 n=g#6 v=0
41876 On ch=1 n=c#6 v=93
41878 On ch=1 n=g#6 v=103
41880 Par ch=1 c=64 v=63
41902 Par ch=1 c=64 v=0
41920 Par ch=1 c=64 v=63
41952 Par ch=1 c=64 v=127
42008 On ch=1 n=d6 v=74
42086 On ch=1 n=g#6 v=0
42104 On ch=1 n=d6 v=0
42130 On ch=1 n=a6 v=79
42204 On ch=1 n=a6 v=0
42220 On ch=1 n=d7 v=102
42272 On ch=1 n=c#6 v=0
42292 On ch=1 n=d7 v=0
42340 On ch=1 n=f#6 v=110
42344 On ch=1 n=a7 v=101
42348 On ch=1 n=b5 v=94
42396 On ch=1 n=f#6 v=0
42424 On ch=1 n=a7 v=0
42436 On ch=1 n=b5 v=0
42446 On ch=1 n=d7 v=70
42518 On ch=1 n=d7 v=0
42530 On ch=1 n=a6 v=106
42608 On ch=1 n=a6 v=0
42624 On ch=1 n=d6 v=94
42696 On ch=1 n=d6 v=0
42718 Par ch=1 c=64 v=63
42726 Par ch=1 c=64 v=0
42754 On ch=1 n=g#5 v=114
42758 On ch=1 n=c#5 v=110
42820 Par ch=1 c=64 v=63
42826 Par ch=1 c=64 v=127
42870 On ch=1 n=c#5 v=0
42884 On ch=1 n=g#5 v=0
42962 On ch=1 n=g#6 v=106
42966 On ch=1 n=c#7 v=112
42998 On ch=1 n=g#6 v=0
43030 On ch=1 n=c#7 v=0
43190 On ch=1 n=c#7 v=107
43194 On ch=1 n=g#6 v=101
43212 On ch=1 n=c#8 v=108
43218 On ch=1 n=g#7 v=110
43234 On ch=1 n=c#7 v=0
43246 On ch=1 n=g#6 v=0
43270 On ch=1 n=g#7 v=0
43272 On ch=1 n=c#8 v=0
43414 On ch=1 n=g#6 v=110
43418 On ch=1 n=c#7 v=107
43462 On ch=1 n=g#6 v=0
43464 On ch=1 n=c#7 v=0
43628 On ch=1 n=g#6 v=97
43636 On ch=1 n=c#7 v=110
43744 On ch=1 n=a6 v=89
43768 On ch=1 n=c#7 v=0
43836 On ch=1 n=a6 v=0
43838 On ch=1 n=d7 v=100
43862 On ch=1 n=g#6 v=0
43904 On ch=1 n=d7 v=0
43934 On ch=1 n=a7 v=94
44006 On ch=1 n=a7 v=0
44044 On ch=1 n=b6 v=107
44052 On ch=1 n=f#6 v=103
44064 On ch=1 n=d8 v=100
44100 On ch=1 n=b6 v=0
44128 On ch=1 n=f#6 v=0
44130 On ch=1 n=d8 v=0
44152 On ch=1 n=a7 v=89
44242 On ch=1 n=a7 v=0
44254 On ch=1 n=d7 v=75
44320 On ch=1 n=a6 v=101
44360 On ch=1 n=d7 v=0
44390 On ch=1 n=a6 v=0
44416 Par ch=1 c=64 v=63
44428 Par ch=1 c=64 v=0
44450 On ch=1 n=g#6 v=121
44454 On ch=1 n=c#6 v=110
44506 Par ch=1 c=64 v=63
44510 Par ch=1 c=64 v=127
44572 On ch=1 n=c#6 v=0
44578 On ch=1 n=g#6 v=0
44664 On ch=1 n=c#7 v=109
44666 On ch=1 n=g#7 v=118
44704 On ch=1 n=c#7 v=0
44732 On ch=1 n=g#7 v=0
44930 On ch=1 n=g#7 v=114
44936 On ch=1 n=c#7 v=106
44958 On ch=1 n=g#8 v=110
44968 On ch=1 n=c#8 v=99
44978 On ch=1 n=g#7 v=0
44996 On ch=1 n=c#7 v=0
45020 On ch=1 n=g#8 v=0
45046 On ch=1 n=c#8 v=0
45244 On ch=1 n=c#7 v=113
45248 On ch=1 n=g#7 v=113
45290 On ch=1 n=c#7 v=0
45304 On ch=1 n=g#7 v=0
45564 On ch=1 n=g#7 v=116
45566 On ch=1 n=c#7 v=112
45734 On ch=1 n=g#7 v=0
45766 On ch=1 n=d7 v=103
45790 On ch=1 n=c#7 v=0
45866 On ch=1 n=d7 v=0
45894 On ch=1 n=a7 v=98
46008 On ch=1 n=a7 v=0
46008 On ch=1 n=d8 v=103
46110 On ch=1 n=d8 v=0
46136 On ch=1 n=f#7 v=116
46140 On ch=1 n=a8 v=106
46142 On ch=1 n=b6 v=104
46236 On ch=1 n=a8 v=0
46246 On ch=1 n=f#7 v=0
46256 On ch=1 n=d8 v=77
46276 On ch=1 n=b6 v=0
46332 On ch=1 n=d8 v=0
46360 On ch=1 n=a7 v=98
46432 On ch=1 n=a7 v=0
46464 On ch=1 n=d7 v=92
46524 On ch=1 n=d7 v=0
46594 On ch=1 n=g#6 v=110
46594 On ch=1 n=c#7 v=118
46732 On ch=1 n=a6 v=72
46738 On ch=1 n=c#7 v=0
46810 On ch=1 n=a6 v=0
46824 On ch=1 n=d7 v=97
46886 On ch=1 n=g#6 v=0
46890 On ch=1 n=d7 v=0
46928 On ch=1 n=a7 v=65
47000 On ch=1 n=a7 v=0
47028 On ch=1 n=b6 v=113
47036 On ch=1 n=d8 v=99
47038 On ch=1 n=f#6 v=107
47094 On ch=1 n=b6 v=0
47128 On ch=1 n=d8 v=0
47132 On ch=1 n=f#6 v=0
47136 On ch=1 n=a7 v=93
47238 On ch=1 n=a7 v=0
47244 On ch=1 n=d7 v=101
47338 On ch=1 n=a6 v=84
47342 On ch=1 n=d7 v=0
47388 On ch=1 n=a6 v=0
47442 On ch=1 n=g#6 v=120
47446 On ch=1 n=c#6 v=104
47528 On ch=1 n=g#6 v=0
47566 On ch=1 n=d6 v=79
47576 On ch=1 n=c#6 v=0
47638 On ch=1 n=a6 v=102
47660 On ch=1 n=d6 v=0
47744 On ch=1 n=a6 v=0
47744 On ch=1 n=d7 v=104
47826 On ch=1 n=d7 v=0
47850 On ch=1 n=f#6 v=119
47856 On ch=1 n=b5 v=100
47870 On ch=1 n=a7 v=92
47930 On ch=1 n=f#6 v=0
47944 On ch=1 n=a7 v=0
47958 On ch=1 n=b5 v=0
47996 On ch=1 n=d7 v=73
48064 On ch=1 n=a6 v=102
48080 On ch=1 n=d7 v=0
48146 On ch=1 n=a6 v=0
48152 On ch=1 n=d6 v=94
48216 On ch=1 n=d6 v=0
48246 On ch=1 n=c#6 v=124
48248 On ch=1 n=g#5 v=115
48352 On ch=1 n=c#6 v=0
48368 On ch=1 n=a5 v=91
48386 On ch=1 n=g#5 v=0
48458 On ch=1 n=d6 v=97
48460 On ch=1 n=a5 v=0
48534 On ch=1 n=d6 v=0
48560 On ch=1 n=a6 v=87
48646 On ch=1 n=a6 v=0
48678 On ch=1 n=d7 v=97
48680 On ch=1 n=b5 v=116
48684 On ch=1 n=f#5 v=123
48740 On ch=1 n=b5 v=0
48768 On ch=1 n=d7 v=0
48778 On ch=1 n=f#5 v=0
48790 On ch=1 n=a6 v=93
48890 On ch=1 n=a6 v=0
48898 On ch=1 n=d6 v=78
48988 On ch=1 n=d6 v=0
48998 On ch=1 n=a5 v=90
49070 On ch=1 n=a5 v=0
49200 On ch=1 n=g#3 v=121
49202 On ch=1 n=c#3 v=124
49206 Par ch=1 c=64 v=63
49220 Par ch=1 c=64 v=0
49310 Par ch=1 c=64 v=63
49314 Par ch=1 c=64 v=127
49440 On ch=1 n=g#3 v=0
49444 On ch=1 n=c#3 v=0
49474 On ch=1 n=c#6 v=114
49474 On ch=1 n=g#5 v=114
49576 On ch=1 n=g#5 v=0
49616 On ch=1 n=c#6 v=0
49652 On ch=1 n=g#6 v=114
49746 On ch=1 n=g#6 v=0
49794 On ch=1 n=b5 v=117
50020 On ch=1 n=g#5 v=106
50024 On ch=1 n=c#6 v=101
50074 On ch=1 n=g#5 v=0
50088 On ch=1 n=b5 v=0
50114 On ch=1 n=c#6 v=0
50156 On ch=1 n=g#6 v=110
50238 On ch=1 n=g#6 v=0
50292 On ch=1 n=g#5 v=118
50370 On ch=1 n=g#5 v=0
50462 On ch=1 n=g#5 v=99
50468 On ch=1 n=c#6 v=94
50528 On ch=1 n=g#5 v=0
50580 On ch=1 n=g#6 v=110
50612 On ch=1 n=c#6 v=0
50692 On ch=1 n=g#6 v=0
50712 On ch=1 n=f#5 v=124
50798 On ch=1 n=f#5 v=0
50856 On ch=1 n=g#5 v=108
50860 On ch=1 n=c#6 v=105
50924 On ch=1 n=g#5 v=0
50974 On ch=1 n=g#6 v=108
50998 On ch=1 n=c#6 v=0
51088 On ch=1 n=g#6 v=0
51102 On ch=1 n=g#5 v=120
51182 On ch=1 n=g#5 v=0
51248 On ch=1 n=g#5 v=98
51250 On ch=1 n=c#6 v=101
51324 On ch=1 n=g#5 v=0
51362 On ch=1 n=g#6 v=112
51390 On ch=1 n=c#6 v=0
51476 On ch=1 n=g#6 v=0
51480 On ch=1 n=b5 v=117
51614 On ch=1 n=b5 v=0
51628 On ch=1 n=g#5 v=104
51638 On ch=1 n=c#6 v=90
51690 On ch=1 n=g#5 v=0
51734 On ch=1 n=g#6 v=101
51756 On ch=1 n=c#6 v=0
51874 On ch=1 n=g#5 v=113
51916 On ch=1 n=g#6 v=0
51958 On ch=1 n=g#5 v=0
52038 On ch=1 n=c#6 v=91
52038 On ch=1 n=g#5 v=87
52116 On ch=1 n=g#5 v=0
52136 On ch=1 n=g#6 v=95
52174 On ch=1 n=c#6 v=0
52294 On ch=1 n=f#5 v=110
52306 On ch=1 n=g#6 v=0
52358 On ch=1 n=f#5 v=0
52420 On ch=1 n=g#5 v=82
52426 On ch=1 n=c#6 v=76
52510 On ch=1 n=g#5 v=0
52532 On ch=1 n=g#6 v=80
52564 On ch=1 n=c#6 v=0
52658 On ch=1 n=g#6 v=0
52746 On ch=1 n=c#5 v=86
52772 Par ch=1 c=64 v=63
52774 Par ch=1 c=64 v=127
52872 On ch=1 n=c#5 v=0
52938 On ch=1 n=c#5 v=72
53054 On ch=1 n=c#5 v=0
53058 On ch=1 n=g#5 v=90
53158 On ch=1 n=g#5 v=0
53164 On ch=1 n=c#6 v=88
53242 On ch=1 n=c#6 v=0
53280 On ch=1 n=b4 v=75
53284 On ch=1 n=e5 v=73
53286 On ch=1 n=g#6 v=84
53358 On ch=1 n=g#6 v=0
53418 On ch=1 n=c#6 v=78
53432 On ch=1 n=e5 v=0
53456 On ch=1 n=b4 v=0
53512 On ch=1 n=g#5 v=93
53514 On ch=1 n=c#6 v=0
53604 On ch=1 n=c#5 v=91
53608 On ch=1 n=g#5 v=0
53676 On ch=1 n=c#5 v=0
53694 On ch=1 n=g#4 v=100
53702 On ch=1 n=e5 v=81
53768 Par ch=1 c=64 v=63
53786 Par ch=1 c=64 v=127
53822 On ch=1 n=c#5 v=87
53890 On ch=1 n=g#5 v=87
53894 On ch=1 n=c#5 v=0
53906 On ch=1 n=e5 v=0
53948 On ch=1 n=g#4 v=0
54002 On ch=1 n=g#5 v=0
54004 On ch=1 n=c#6 v=95
54080 On ch=1 n=c#6 v=0
54118 On ch=1 n=f#4 v=99
54126 On ch=1 n=e5 v=75
54132 On ch=1 n=g#6 v=96
54220 On ch=1 n=g#6 v=0
54274 On ch=1 n=c#6 v=80
54284 On ch=1 n=e5 v=0
54292 On ch=1 n=f#4 v=0
54368 On ch=1 n=g#5 v=92
54378 On ch=1 n=c#6 v=0
54452 On ch=1 n=c#5 v=81
54458 On ch=1 n=g#5 v=0
54520 On ch=1 n=c#5 v=0
54544 On ch=1 n=g#4 v=95
54552 On ch=1 n=e5 v=80
54562 Par ch=1 c=64 v=63
54632 Par ch=1 c=64 v=127
54644 On ch=1 n=c#5 v=80
54722 On ch=1 n=g#5 v=88
54724 On ch=1 n=c#5 v=0
54748 On ch=1 n=e5 v=0
54770 On ch=1 n=g#4 v=0
54826 On ch=1 n=g#5 v=0
54834 On ch=1 n=c#6 v=98
54902 On ch=1 n=c#6 v=0
54948 On ch=1 n=e5 v=79
54948 On ch=1 n=b4 v=82
54972 On ch=1 n=g#6 v=86
55054 On ch=1 n=g#6 v=0
55070 On ch=1 n=b4 v=0
55082 On ch=1 n=e5 v=0
55108 On ch=1 n=c#6 v=76
55204 On ch=1 n=c#6 v=0
55204 On ch=1 n=g#5 v=83
55294 On ch=1 n=g#5 v=0
55300 On ch=1 n=c#5 v=33
55358 On ch=1 n=c#5 v=0
55382 On ch=1 n=g#4 v=80
55390 On ch=1 n=e5 v=71
55410 Par ch=1 c=64 v=63
55426 Par ch=1 c=64 v=0
55452 Par ch=1 c=64 v=63
55488 Par ch=1 c=64 v=127
55500 On ch=1 n=c#5 v=86
55562 On ch=1 n=g#4 v=0
55568 On ch=1 n=e5 v=0
55598 On ch=1 n=c#5 v=0
55600 On ch=1 n=g#5 v=82
55686 On ch=1 n=g#5 v=0
55702 On ch=1 n=c#6 v=85
55774 On ch=1 n=c#6 v=0
55824 On ch=1 n=f#4 v=70
55826 On ch=1 n=g#6 v=88
55842 On ch=1 n=e5 v=44
55918 On ch=1 n=g#6 v=0
55934 On ch=1 n=e5 v=0
55972 On ch=1 n=c#6 v=67
55974 On ch=1 n=f#4 v=0
56066 On ch=1 n=g#5 v=87
56078 On ch=1 n=c#6 v=0
56156 On ch=1 n=g#5 v=0
56170 On ch=1 n=c#5 v=72
56224 On ch=1 n=c#5 v=0
56306 Par ch=1 c=64 v=63
56308 On ch=1 n=c#4 v=93
56316 Par ch=1 c=64 v=0
56348 Par ch=1 c=64 v=63
56366 Par ch=1 c=64 v=127
56410 On ch=1 n=c#4 v=0
56494 On ch=1 n=c#4 v=90
56572 On ch=1 n=c#4 v=0
56600 On ch=1 n=g#4 v=83
56698 On ch=1 n=c#5 v=86
56704 On ch=1 n=g#4 v=0
56762 On ch=1 n=c#5 v=0
56794 On ch=1 n=g#4 v=103
56838 On ch=1 n=g#4 v=0
56922 On ch=1 n=g#4 v=87
57014 On ch=1 n=c#5 v=99
57018 On ch=1 n=g#4 v=0
57096 On ch=1 n=c#5 v=0
57136 On ch=1 n=g#5 v=90
57196 On ch=1 n=g#5 v=0
57222 On ch=1 n=c#5 v=109
57274 On ch=1 n=c#5 v=0
57330 On ch=1 n=c#5 v=89
57424 On ch=1 n=c#5 v=0
57426 On ch=1 n=g#5 v=96
57530 On ch=1 n=c#6 v=95
57534 On ch=1 n=g#5 v=0
57596 On ch=1 n=c#6 v=0
57630 On ch=1 n=g#5 v=112
57682 On ch=1 n=g#5 v=0
57722 On ch=1 n=g#5 v=95
57810 On ch=1 n=g#5 v=0
57814 On ch=1 n=c#6 v=101
57910 On ch=1 n=c#6 v=0
57930 On ch=1 n=g#6 v=105
57992 On ch=1 n=g#6 v=0
58026 On ch=1 n=c#6 v=113
58084 On ch=1 n=c#6 v=0
58130 On ch=1 n=c#6 v=94
58218 On ch=1 n=c#6 v=0
58220 On ch=1 n=g#6 v=103
58312 On ch=1 n=c#7 v=107
58328 On ch=1 n=g#6 v=0
58396 On ch=1 n=c#7 v=0
58422 On ch=1 n=c#6 v=113
58480 On ch=1 n=c#6 v=0
58530 On ch=1 n=c#6 v=94
58610 On ch=1 n=g#6 v=100
58622 On ch=1 n=c#6 v=0
58710 On ch=1 n=c#7 v=98
58724 On ch=1 n=g#6 v=0
58794 On ch=1 n=c#7 v=0
58824 On ch=1 n=c#6 v=104
58882 On ch=1 n=c#6 v=0
58922 On ch=1 n=c#6 v=88
59016 On ch=1 n=g#6 v=88
59030 On ch=1 n=c#6 v=0
59122 On ch=1 n=c#7 v=72
59140 On ch=1 n=g#6 v=0
59210 On ch=1 n=c#7 v=0
59246 On ch=1 n=c#6 v=78
59288 On ch=1 n=c#6 v=0
59346 On ch=1 n=c#6 v=74
59436 On ch=1 n=g#6 v=78
59456 On ch=1 n=c#6 v=0
59548 On ch=1 n=c#7 v=57
59562 On ch=1 n=g#6 v=0
59622 On ch=1 n=c#7 v=0
59652 On ch=1 n=c#6 v=72
59700 On ch=1 n=c#6 v=0
59756 On ch=1 n=c#6 v=72
59842 On ch=1 n=g#6 v=70
59864 On ch=1 n=c#6 v=0
59958 On ch=1 n=c#7 v=40
59978 On ch=1 n=g#6 v=0
60052 On ch=1 n=c#7 v=0
60056 On ch=1 n=c#6 v=61
60102 On ch=1 n=c#6 v=0
60172 On ch=1 n=c#6 v=62
60258 On ch=1 n=g#6 v=61
60284 On ch=1 n=c#6 v=0
60356 On ch=1 n=c#7 v=54
60400 On ch=1 n=g#6 v=0
60458 On ch=1 n=c#7 v=0
60480 On ch=1 n=c#6 v=38
60538 On ch=1 n=c#6 v=0
60606 On ch=1 n=c#6 v=62
60698 On ch=1 n=g#6 v=51
60746 On ch=1 n=c#6 v=0
60816 On ch=1 n=c#7 v=41
60834 Par ch=1 c=67 v=127
60856 On ch=1 n=g#6 v=0
60904 On ch=1 n=c#7 v=0
60950 On ch=1 n=c#6 v=65
60994 On ch=1 n=c#6 v=0
61094 On ch=1 n=c#6 v=67
61208 On ch=1 n=g#6 v=43
61370 On ch=1 n=c#7 v=54
61378 On ch=1 n=c#6 v=0
61412 On ch=1 n=g#6 v=0
61480 On ch=1 n=c#7 v=0
61596 On ch=1 n=b4 v=47
61654 Par ch=1 c=64 v=63
61666 Par ch=1 c=64 v=0
61684 On ch=1 n=c#5 v=64
61692 Par ch=1 c=64 v=63
61720 Par ch=1 c=64 v=127
61782 On ch=1 n=e5 v=40
61816 On ch=1 n=b4 v=0
61828 On ch=1 n=f#5 v=68
61858 On ch=1 n=e5 v=0
61860 On ch=1 n=c#5 v=0
61896 On ch=1 n=f#5 v=0
61906 On ch=1 n=a5 v=48
61908 On ch=1 n=b5 v=46
62012 On ch=1 n=e6 v=61
62042 On ch=1 n=a5 v=0
62048 On ch=1 n=b5 v=0
62074 On ch=1 n=f#6 v=73
62278 On ch=1 n=e6 v=0
62278 On ch=1 n=c#6 v=80
62280 On ch=1 n=c#7 v=72
62292 On ch=1 n=b6 v=70
62296 On ch=1 n=a6 v=64
62316 On ch=1 n=f#6 v=0
62376 On ch=1 n=c#7 v=0
62384 On ch=1 n=c#6 v=0
62496 On ch=1 n=f#6 v=67
62510 On ch=1 n=e6 v=76
62586 On ch=1 n=b6 v=0
62600 On ch=1 n=a6 v=0
62700 On ch=1 n=b5 v=59
62700 On ch=1 n=a5 v=60
62712 On ch=1 n=f#6 v=0
62734 On ch=1 n=e6 v=0
62798 On ch=1 n=a5 v=0
62800 On ch=1 n=b5 v=0
62862 On ch=1 n=d#7 v=88
62872 On ch=1 n=d#6 v=79
62922 On ch=1 n=a5 v=50
62922 On ch=1 n=b5 v=50
62990 On ch=1 n=d#7 v=0
63006 On ch=1 n=d#6 v=0
63060 On ch=1 n=a5 v=0
63060 On ch=1 n=e6 v=72
63080 On ch=1 n=b5 v=0
63080 On ch=1 n=f#6 v=75
63206 On ch=1 n=e6 v=0
63244 On ch=1 n=b6 v=65
63312 On ch=1 n=f#6 v=0
63340 On ch=1 n=b6 v=0
63400 On ch=1 n=c#7 v=77
63404 On ch=1 n=c#6 v=77
63420 On ch=1 n=b6 v=72
63420 On ch=1 n=a6 v=81
63464 On ch=1 n=c#6 v=0
63488 On ch=1 n=c#7 v=0
63560 On ch=1 n=f#6 v=81
63562 On ch=1 n=e6 v=84
63634 On ch=1 n=b6 v=0
63638 On ch=1 n=a6 v=0
63738 On ch=1 n=b5 v=68
63738 On ch=1 n=a5 v=67
63762 On ch=1 n=e6 v=0
63764 On ch=1 n=f#6 v=0
63820 On ch=1 n=a5 v=0
63824 On ch=1 n=b5 v=0
63884 On ch=1 n=f#7 v=91
63884 On ch=1 n=f#6 v=80
63916 On ch=1 n=b5 v=71
63916 On ch=1 n=a5 v=71
63962 On ch=1 n=f#7 v=0
63990 On ch=1 n=f#6 v=0
64034 On ch=1 n=a5 v=0
64036 On ch=1 n=b5 v=0
64084 On ch=1 n=e6 v=76
64088 On ch=1 n=f#6 v=82
64192 On ch=1 n=e6 v=0
64210 On ch=1 n=d#7 v=88
64236 On ch=1 n=d#6 v=50
64240 On ch=1 n=f#6 v=0
64272 On ch=1 n=d#7 v=0
64288 On ch=1 n=b6 v=79
64308 On ch=1 n=d#6 v=0
64406 On ch=1 n=b6 v=0
64434 On ch=1 n=c#7 v=97
64448 On ch=1 n=c#6 v=76
64510 On ch=1 n=c#7 v=0
64522 On ch=1 n=c#6 v=0
64524 On ch=1 n=b6 v=62
64528 On ch=1 n=a6 v=76
64676 On ch=1 n=f#6 v=61
64692 On ch=1 n=e6 v=72
64762 On ch=1 n=b6 v=0
64766 On ch=1 n=a6 v=0
64860 On ch=1 n=b5 v=59
64862 On ch=1 n=a5 v=60
64886 On ch=1 n=e6 v=0
64894 On ch=1 n=f#6 v=0
64934 On ch=1 n=a5 v=0
64938 On ch=1 n=b5 v=0
65006 On ch=1 n=g#5 v=80
65008 On ch=1 n=g#6 v=72
65074 On ch=1 n=a5 v=55
65076 On ch=1 n=b5 v=54
65098 On ch=1 n=g#6 v=0
65104 On ch=1 n=g#5 v=0
65190 On ch=1 n=a5 v=0
65194 On ch=1 n=b5 v=0
65220 On ch=1 n=f#6 v=72
65232 On ch=1 n=e6 v=60
65340 On ch=1 n=e6 v=0
65402 On ch=1 n=b6 v=52
65404 On ch=1 n=a6 v=50
65426 On ch=1 n=f#6 v=0
65464 On ch=1 n=a6 v=0
65464 On ch=1 n=b6 v=0
65534 On ch=1 n=g#5 v=63
65534 On ch=1 n=g#6 v=69
65572 On ch=1 n=b6 v=56
65572 On ch=1 n=a6 v=57
65624 On ch=1 n=g#6 v=0
65640 On ch=1 n=g#5 v=0
65722 On ch=1 n=f#6 v=64
65728 On ch=1 n=e6 v=58
65762 On ch=1 n=b6 v=0
65774 On ch=1 n=a6 v=0
65906 On ch=1 n=b5 v=38
65908 On ch=1 n=a5 v=39
65920 On ch=1 n=e6 v=0
65946 On ch=1 n=f#6 v=0
66008 On ch=1 n=a5 v=0
66010 On ch=1 n=b5 v=0
66050 On ch=1 n=f#6 v=64
66072 On ch=1 n=f#5 v=55
66118 On ch=1 n=a5 v=45
66118 On ch=1 n=b5 v=43
66140 On ch=1 n=f#6 v=0
66168 On ch=1 n=f#5 v=0
66266 On ch=1 n=a5 v=0
66280 On ch=1 n=b5 v=0
66280 On ch=1 n=f#6 v=58
66284 On ch=1 n=e6 v=51
66480 Par ch=1 c=64 v=63
66490 Par ch=1 c=64 v=0
66510 Par ch=1 c=64 v=63
66516 On ch=1 n=a6 v=44
66518 On ch=1 n=b6 v=47
66522 On ch=1 n=b4 v=76
66526 On ch=1 n=e6 v=0
66530 Par ch=1 c=64 v=127
66572 On ch=1 n=f#6 v=0
66620 On ch=1 n=b4 v=0
66680 On ch=1 n=b6 v=0
66684 On ch=1 n=a6 v=0
66736 On ch=1 n=c#5 v=70
66742 On ch=1 n=c#6 v=72
66794 On ch=1 n=a6 v=41
66796 On ch=1 n=b6 v=45
66818 On ch=1 n=c#6 v=0
66820 On ch=1 n=c#5 v=0
66958 On ch=1 n=f#6 v=67
66966 On ch=1 n=e6 v=72
67036 On ch=1 n=b6 v=0
67054 On ch=1 n=a6 v=0
67112 On ch=1 n=f#6 v=0
67124 On ch=1 n=b5 v=61
67126 On ch=1 n=a5 v=60
67170 On ch=1 n=e6 v=0
67220 On ch=1 n=a5 v=0
67222 On ch=1 n=b5 v=0
67278 On ch=1 n=d#6 v=89
67284 On ch=1 n=d#5 v=84
67320 On ch=1 n=b5 v=60
67320 On ch=1 n=a5 v=62
67464 On ch=1 n=a5 v=0
67464 On ch=1 n=f#6 v=80
67468 On ch=1 n=e6 v=76
67508 On ch=1 n=b5 v=0
67534 On ch=1 n=d#6 v=0
67572 On ch=1 n=d#5 v=0
67648 On ch=1 n=a6 v=79
67650 On ch=1 n=e6 v=0
67650 On ch=1 n=b6 v=76
67734 On ch=1 n=f#6 v=0
67762 On ch=1 n=b6 v=0
67762 On ch=1 n=a6 v=0
67814 On ch=1 n=c#6 v=103
67816 On ch=1 n=c#5 v=101
67824 On ch=1 n=a6 v=70
67824 On ch=1 n=b6 v=63
67898 On ch=1 n=c#5 v=0
67936 On ch=1 n=c#6 v=0
67978 On ch=1 n=f#6 v=72
67980 On ch=1 n=e6 v=76
68094 On ch=1 n=b6 v=0
68148 On ch=1 n=a5 v=63
68148 On ch=1 n=b5 v=63
68216 On ch=1 n=e6 v=0
68218 On ch=1 n=f#6 v=0
68248 On ch=1 n=a6 v=0
68254 On ch=1 n=b5 v=0
68256 On ch=1 n=a5 v=0
68304 On ch=1 n=f#6 v=97
68314 On ch=1 n=f#5 v=85
68360 On ch=1 n=a5 v=63
68360 On ch=1 n=b5 v=65
68412 On ch=1 n=f#6 v=0
68422 On ch=1 n=f#5 v=0
68488 On ch=1 n=f#6 v=57
68504 On ch=1 n=e6 v=65
68512 On ch=1 n=a5 v=0
68532 On ch=1 n=b5 v=0
68576 On ch=1 n=d#6 v=98
68582 On ch=1 n=d#5 v=93
68654 On ch=1 n=d#6 v=0
68682 On ch=1 n=d#5 v=0
68710 On ch=1 n=b6 v=66
68710 On ch=1 n=a6 v=68
68746 On ch=1 n=e6 v=0
68786 On ch=1 n=f#6 v=0
68802 On ch=1 n=a6 v=0
68804 On ch=1 n=b6 v=0
68840 On ch=1 n=c#6 v=93
68844 On ch=1 n=c#5 v=93
68896 On ch=1 n=b6 v=63
68896 On ch=1 n=a6 v=63
68914 Par ch=1 c=64 v=63
68940 Par ch=1 c=64 v=127
69034 On ch=1 n=e6 v=72
69036 On ch=1 n=f#6 v=69
69064 On ch=1 n=c#6 v=0
69082 On ch=1 n=c#5 v=0
69142 On ch=1 n=b6 v=0
69152 On ch=1 n=a6 v=0
69216 On ch=1 n=b5 v=50
69216 On ch=1 n=a5 v=51
69290 On ch=1 n=e6 v=0
69302 On ch=1 n=f#6 v=0
69316 On ch=1 n=a5 v=0
69316 On ch=1 n=b5 v=0
69354 On ch=1 n=g#5 v=87
69362 On ch=1 n=g#4 v=80
69422 On ch=1 n=b5 v=55
69422 On ch=1 n=a5 v=56
69554 Par ch=1 c=67 v=127
69570 On ch=1 n=e6 v=68
69572 On ch=1 n=f#6 v=73
69602 On ch=1 n=g#4 v=0
69606 On ch=1 n=a5 v=0
69610 On ch=1 n=g#5 v=0
69626 On ch=1 n=b5 v=0
69764 On ch=1 n=b6 v=49
69766 On ch=1 n=a6 v=46
69770 On ch=1 n=e6 v=0
69828 On ch=1 n=a6 v=0
69828 On ch=1 n=f#6 v=0
69830 On ch=1 n=b6 v=0
69894 On ch=1 n=g#5 v=79
69896 On ch=1 n=g#4 v=76
69926 On ch=1 n=a6 v=63
69928 On ch=1 n=b6 v=63
69936 Par ch=1 c=64 v=63
69988 Par ch=1 c=64 v=127
70094 On ch=1 n=f#6 v=67
70102 On ch=1 n=e6 v=63
70142 On ch=1 n=g#5 v=0
70158 On ch=1 n=g#4 v=0
70178 On ch=1 n=b6 v=0
70188 On ch=1 n=a6 v=0
70280 On ch=1 n=a5 v=49
70282 On ch=1 n=b5 v=46
70310 On ch=1 n=f#6 v=0
70324 On ch=1 n=e6 v=0
70392 On ch=1 n=b5 v=0
70392 On ch=1 n=a5 v=0
70454 On ch=1 n=f#5 v=76
70462 On ch=1 n=f#4 v=67
70518 On ch=1 n=a5 v=43
70520 On ch=1 n=b5 v=42
70576 On ch=1 n=f#5 v=0
70606 On ch=1 n=f#4 v=0
70668 On ch=1 n=a5 v=0
70678 On ch=1 n=b5 v=0
70682 On ch=1 n=f#6 v=50
70696 On ch=1 n=e6 v=36
70822 On ch=1 n=e6 v=0
70854 On ch=1 n=f#6 v=0
70918 On ch=1 n=a6 v=46
70920 On ch=1 n=b6 v=46
71030 On ch=1 n=a6 v=0
71038 On ch=1 n=b6 v=0
71218 On ch=1 n=b3 v=65
71294 On ch=1 n=c#7 v=75
71306 Par ch=1 c=64 v=63
71308 On ch=1 n=f#6 v=63
71314 On ch=1 n=c#6 v=44
71318 Par ch=1 c=64 v=127
71394 Par ch=1 c=67 v=0
71480 On ch=1 n=c#4 v=65
71602 On ch=1 n=c#6 v=0
71618 On ch=1 n=f#6 v=0
71622 On ch=1 n=b3 v=0
71626 On ch=1 n=e4 v=62
71628 On ch=1 n=c#7 v=0
71676 On ch=1 n=c#4 v=0
71726 On ch=1 n=e4 v=0
71732 On ch=1 n=a4 v=49
71794 On ch=1 n=a4 v=0
71882 On ch=1 n=d#7 v=84
71892 On ch=1 n=d#6 v=60
71894 On ch=1 n=g#6 v=68
71902 On ch=1 n=b4 v=43
72010 On ch=1 n=c#5 v=73
72082 On ch=1 n=d#7 v=0
72106 On ch=1 n=g#6 v=0
72122 On ch=1 n=e5 v=65
72128 On ch=1 n=d#6 v=0
72178 On ch=1 n=b4 v=0
72224 On ch=1 n=a5 v=71
72244 On ch=1 n=c#5 v=0
72280 On ch=1 n=e5 v=0
72344 On ch=1 n=c#7 v=91
72352 On ch=1 n=c#6 v=79
72358 On ch=1 n=f#6 v=75
72360 On ch=1 n=a5 v=0
72366 On ch=1 n=b4 v=67
72444 On ch=1 n=c#6 v=0
72480 On ch=1 n=c#5 v=76
72482 On ch=1 n=f#6 v=0
72500 On ch=1 n=c#7 v=0
72538 On ch=1 n=b4 v=0
72608 On ch=1 n=e5 v=82
72646 On ch=1 n=c#5 v=0
72694 On ch=1 n=e5 v=0
72702 On ch=1 n=a5 v=85
72782 On ch=1 n=a5 v=0
72858 On ch=1 n=f#7 v=95
72860 On ch=1 n=e6 v=68
72866 On ch=1 n=f#6 v=75
72878 On ch=1 n=b6 v=71
72922 On ch=1 n=b6 v=0
72926 On ch=1 n=e6 v=0
72936 On ch=1 n=f#6 v=0
72938 On ch=1 n=f#7 v=0
73000 On ch=1 n=a5 v=71
73140 On ch=1 n=d#7 v=103
73146 On ch=1 n=e5 v=83
73154 On ch=1 n=d#6 v=76
73158 On ch=1 n=g#6 v=85
73160 On ch=1 n=a5 v=0
73232 On ch=1 n=d#7 v=0
73244 On ch=1 n=d#6 v=0
73248 On ch=1 n=c#5 v=88
73254 On ch=1 n=g#6 v=0
73270 On ch=1 n=e5 v=0
73380 On ch=1 n=c#7 v=101
73382 On ch=1 n=b4 v=74
73390 On ch=1 n=f#6 v=87
73394 On ch=1 n=c#6 v=76
73398 On ch=1 n=c#5 v=0
73446 Par ch=1 c=64 v=63
73464 Par ch=1 c=64 v=127
73500 On ch=1 n=c#5 v=83
73538 On ch=1 n=c#7 v=0
73560 On ch=1 n=f#6 v=0
73572 On ch=1 n=c#6 v=0
73600 On ch=1 n=e5 v=76
73688 On ch=1 n=a5 v=89
73690 On ch=1 n=b4 v=0
73740 On ch=1 n=c#5 v=0
73796 On ch=1 n=e5 v=0
73808 On ch=1 n=g#6 v=105
73816 On ch=1 n=g#5 v=90
73820 On ch=1 n=c#6 v=94
73826 On ch=1 n=b4 v=85
73852 On ch=1 n=a5 v=0
73944 On ch=1 n=c#5 v=78
74016 On ch=1 n=e5 v=82
74028 On ch=1 n=b4 v=0
74072 On ch=1 n=g#5 v=0
74078 On ch=1 n=g#6 v=0
74116 On ch=1 n=a5 v=79
74118 On ch=1 n=c#5 v=0
74124 On ch=1 n=c#6 v=0
74178 On ch=1 n=e5 v=0
74226 On ch=1 n=g#6 v=114
74238 On ch=1 n=g#5 v=101
74242 On ch=1 n=c#6 v=99
74248 On ch=1 n=b4 v=85
74268 On ch=1 n=a5 v=0
74370 On ch=1 n=c#5 v=79
74384 On ch=1 n=g#6 v=0
74408 On ch=1 n=c#6 v=0
74422 On ch=1 n=g#5 v=0
74446 On ch=1 n=e5 v=83
74464 On ch=1 n=b4 v=0
74538 On ch=1 n=a5 v=83
74544 On ch=1 n=c#5 v=0
74598 On ch=1 n=e5 v=0
74668 On ch=1 n=f#6 v=105
74672 On ch=1 n=b4 v=84
74674 On ch=1 n=f#5 v=97
74688 On ch=1 n=b5 v=78
74708 On ch=1 n=a5 v=0
74790 On ch=1 n=c#5 v=70
74810 On ch=1 n=f#6 v=0
74814 On ch=1 n=b5 v=0
74848 On ch=1 n=f#5 v=0
74868 On ch=1 n=b4 v=0
74878 On ch=1 n=e5 v=75
74974 On ch=1 n=a5 v=62
74982 On ch=1 n=c#5 v=0
74994 On ch=1 n=e5 v=0
75054 On ch=1 n=a5 v=0
75164 On ch=1 n=e6 v=94
75172 On ch=1 n=g#4 v=79
75178 On ch=1 n=a5 v=68
75184 On ch=1 n=e5 v=50
75220 Par ch=1 c=64 v=63
75276 Par ch=1 c=64 v=127
75334 On ch=1 n=a4 v=68
75370 On ch=1 n=g#4 v=0
75380 On ch=1 n=e5 v=0
75380 On ch=1 n=e6 v=0
75414 On ch=1 n=a5 v=0
75444 On ch=1 n=c#5 v=76
75522 On ch=1 n=a4 v=0
75542 On ch=1 n=e5 v=60
75582 On ch=1 n=c#5 v=0
75622 On ch=1 n=f#6 v=97
75632 On ch=1 n=f#5 v=92
75652 On ch=1 n=f#4 v=76
75654 On ch=1 n=c#6 v=72
75664 On ch=1 n=e5 v=0
75716 On ch=1 n=f#6 v=0
75738 On ch=1 n=f#5 v=0
75760 On ch=1 n=a4 v=66
75764 On ch=1 n=f#4 v=0
75800 On ch=1 n=c#6 v=0
75836 On ch=1 n=e6 v=101
75840 On ch=1 n=a5 v=90
75852 On ch=1 n=e5 v=63
75876 On ch=1 n=c#5 v=80
75894 On ch=1 n=e5 v=0
75902 On ch=1 n=e6 v=0
75906 On ch=1 n=a4 v=0
75924 On ch=1 n=a5 v=0
75944 On ch=1 n=e5 v=60
75966 On ch=1 n=c#5 v=0
76032 On ch=1 n=e5 v=0
76072 On ch=1 n=c#6 v=78
76088 On ch=1 n=e4 v=67
76096 On ch=1 n=f#5 v=67
76106 On ch=1 n=c#5 v=19
76124 Par ch=1 c=64 v=63
76136 Par ch=1 c=64 v=0
76174 On ch=1 n=f#4 v=76
76182 Par ch=1 c=64 v=63
76206 Par ch=1 c=64 v=127
76276 On ch=1 n=a4 v=52
76310 On ch=1 n=c#5 v=0
76330 On ch=1 n=f#4 v=0
76392 On ch=1 n=e4 v=0
76394 On ch=1 n=c#5 v=55
76434 On ch=1 n=a4 v=0
76500 On ch=1 n=c#5 v=0
76536 On ch=1 n=e5 v=53
76606 On ch=1 n=c#5 v=77
76620 On ch=1 n=f#5 v=0
76670 On ch=1 n=c#6 v=0
76730 On ch=1 n=a4 v=69
76734 On ch=1 n=c#5 v=0
76792 On ch=1 n=f#4 v=94
76806 On ch=1 n=e5 v=0
76818 On ch=1 n=a4 v=0
76904 On ch=1 n=c#4 v=95
76910 On ch=1 n=e6 v=104
76914 On ch=1 n=e5 v=92
76916 On ch=1 n=a5 v=89
76928 On ch=1 n=f#4 v=0
76950 Par ch=1 c=64 v=63
76964 Par ch=1 c=64 v=0
77000 Par ch=1 c=64 v=63
77028 Par ch=1 c=64 v=127
77054 On ch=1 n=e4 v=83
77106 On ch=1 n=c#4 v=0
77136 On ch=1 n=e6 v=0
77150 On ch=1 n=e5 v=0
77154 On ch=1 n=f#4 v=94
77188 On ch=1 n=e4 v=0
77196 On ch=1 n=a5 v=0
77238 On ch=1 n=f#4 v=0
77260 On ch=1 n=a4 v=59
77354 On ch=1 n=f#6 v=106
77362 On ch=1 n=f#5 v=100
77368 On ch=1 n=c#5 v=96
77370 On ch=1 n=c#6 v=93
77392 On ch=1 n=a4 v=0
77434 On ch=1 n=c#5 v=0
77436 On ch=1 n=f#5 v=0
77446 On ch=1 n=f#6 v=0
77454 On ch=1 n=c#6 v=0
77476 On ch=1 n=a4 v=75
77578 On ch=1 n=e6 v=101
77582 On ch=1 n=a5 v=97
77588 On ch=1 n=f#4 v=89
77592 On ch=1 n=e5 v=71
77598 On ch=1 n=a4 v=0
77634 On ch=1 n=e6 v=0
77646 On ch=1 n=a5 v=0
77656 On ch=1 n=e5 v=0
77678 On ch=1 n=e4 v=82
77680 On ch=1 n=f#4 v=0
77794 On ch=1 n=c#6 v=107
77800 On ch=1 n=b3 v=89
77802 On ch=1 n=c#5 v=95
77808 On ch=1 n=f#5 v=92
77812 On ch=1 n=e4 v=0
77818 Par ch=1 c=64 v=63
77830 Par ch=1 c=64 v=0
77858 Par ch=1 c=64 v=63
77880 Par ch=1 c=64 v=127
77910 On ch=1 n=c#6 v=0
77912 On ch=1 n=c#5 v=0
77914 On ch=1 n=f#5 v=0
77952 On ch=1 n=c#4 v=84
77996 On ch=1 n=b3 v=0
78000 On ch=1 n=b5 v=99
78008 On ch=1 n=b4 v=83
78012 On ch=1 n=e5 v=88
78028 On ch=1 n=e4 v=82
78048 On ch=1 n=b4 v=0
78064 On ch=1 n=b5 v=0
78070 On ch=1 n=c#4 v=0
78078 On ch=1 n=e5 v=0
78166 On ch=1 n=f#4 v=99
78184 On ch=1 n=e4 v=0
78218 On ch=1 n=c#5 v=114
78218 On ch=1 n=c#6 v=115
78226 On ch=1 n=f#5 v=107
78254 On ch=1 n=f#4 v=0
78264 On ch=1 n=a4 v=76
78270 On ch=1 n=c#5 v=0
78298 On ch=1 n=f#5 v=0
78322 On ch=1 n=c#6 v=0
78346 On ch=1 n=f#4 v=94
78368 On ch=1 n=a4 v=0
78442 On ch=1 n=e4 v=68
78462 On ch=1 n=f#4 v=0
78504 On ch=1 n=c#4 v=98
78552 On ch=1 n=e4 v=0
78640 On ch=1 n=a3 v=108
78648 On ch=1 n=e6 v=107
78652 On ch=1 n=a5 v=97
78652 On ch=1 n=e5 v=99
78654 Par ch=1 c=64 v=63
78658 On ch=1 n=c#4 v=0
78662 Par ch=1 c=64 v=0
78730 Par ch=1 c=64 v=63
78740 Par ch=1 c=64 v=127
78788 On ch=1 n=c#4 v=101
78832 On ch=1 n=a3 v=0
78834 On ch=1 n=e5 v=0
78840 On ch=1 n=e6 v=0
78874 On ch=1 n=a5 v=0
78884 On ch=1 n=c#4 v=0
78898 On ch=1 n=e4 v=84
78996 On ch=1 n=e4 v=0
78998 On ch=1 n=f#4 v=91
79038 On ch=1 n=f#4 v=0
79098 On ch=1 n=f#6 v=107
79102 On ch=1 n=f#5 v=107
79108 On ch=1 n=a4 v=85
79114 On ch=1 n=c#6 v=90
79206 On ch=1 n=f#5 v=0
79216 On ch=1 n=f#6 v=0
79226 On ch=1 n=a4 v=0
79238 On ch=1 n=f#4 v=94
79246 On ch=1 n=c#6 v=0
79298 On ch=1 n=f#4 v=0
79370 On ch=1 n=e4 v=76
79450 On ch=1 n=c#4 v=92
79462 On ch=1 n=e4 v=0
79530 On ch=1 n=c#4 v=0
79568 On ch=1 n=g#3 v=115
79588 On ch=1 n=e6 v=101
79596 Par ch=1 c=64 v=63
79596 On ch=1 n=a5 v=83
79600 On ch=1 n=e5 v=79
79606 Par ch=1 c=64 v=0
79678 Par ch=1 c=64 v=63
79686 Par ch=1 c=64 v=127
79736 On ch=1 n=c#4 v=87
79788 On ch=1 n=e6 v=0
79792 On ch=1 n=g#3 v=0
79800 On ch=1 n=e5 v=0
79822 On ch=1 n=c#4 v=0
79826 On ch=1 n=a5 v=0
79826 On ch=1 n=e4 v=83
79914 On ch=1 n=f#4 v=107
79938 On ch=1 n=e4 v=0
79994 On ch=1 n=f#4 v=0
80024 On ch=1 n=c#6 v=106
80026 On ch=1 n=c#5 v=101
80032 On ch=1 n=a4 v=78
80036 On ch=1 n=f#5 v=90
80098 On ch=1 n=c#5 v=0
80120 On ch=1 n=f#5 v=0
80142 On ch=1 n=a4 v=0
80152 On ch=1 n=c#6 v=0
80152 On ch=1 n=f#4 v=90
80216 On ch=1 n=f#4 v=0
80268 On ch=1 n=e4 v=67
80356 On ch=1 n=e4 v=0
80362 On ch=1 n=c#4 v=94
80458 On ch=1 n=c#4 v=0
80470 On ch=1 n=f#3 v=108
80484 On ch=1 n=b5 v=107
80490 On ch=1 n=e5 v=96
80490 On ch=1 n=b4 v=94
80548 Par ch=1 c=64 v=63
80556 Par ch=1 c=64 v=0
80610 On ch=1 n=a3 v=77
80610 Par ch=1 c=64 v=63
80622 On ch=1 n=f#3 v=0
80626 Par ch=1 c=64 v=127
80720 On ch=1 n=c#4 v=92
80742 On ch=1 n=a3 v=0
80804 On ch=1 n=c#4 v=0
80816 On ch=1 n=e4 v=81
80932 On ch=1 n=f#4 v=87
80936 On ch=1 n=b4 v=0
80958 On ch=1 n=e4 v=0
81006 On ch=1 n=f#4 v=0
81032 On ch=1 n=e4 v=90
81080 On ch=1 n=e5 v=0
81098 On ch=1 n=b5 v=0
81158 On ch=1 n=c#4 v=105
81180 On ch=1 n=e4 v=0
81270 On ch=1 n=a3 v=84
81272 On ch=1 n=c#4 v=0
81284 On ch=1 n=b3 v=62
81324 On ch=1 n=b3 v=0
81390 On ch=1 n=c#6 v=113
81392 On ch=1 n=e3 v=109
81396 On ch=1 n=c#5 v=109
81398 On ch=1 n=f#5 v=105
81438 On ch=1 n=a3 v=0
81474 Par ch=1 c=64 v=63
81482 Par ch=1 c=64 v=0
81516 On ch=1 n=a3 v=97
81544 Par ch=1 c=64 v=63
81560 Par ch=1 c=64 v=127
81562 On ch=1 n=e3 v=0
81638 On ch=1 n=c#4 v=109
81662 On ch=1 n=c#6 v=0
81690 On ch=1 n=f#5 v=0
81702 On ch=1 n=c#5 v=0
81704 On ch=1 n=a3 v=0
81758 On ch=1 n=e4 v=97
81840 On ch=1 n=c#4 v=0
81886 On ch=1 n=e4 v=0
81890 On ch=1 n=f#4 v=110
81954 On ch=1 n=f#4 v=0
82006 On ch=1 n=e4 v=89
82128 On ch=1 n=c#4 v=96
82176 On ch=1 n=e4 v=0
82264 On ch=1 n=a3 v=86
82266 On ch=1 n=c#4 v=0
82342 On ch=1 n=a3 v=0
82540 On ch=1 n=c#6 v=76
82546 On ch=1 n=a#3 v=50
82548 On ch=1 n=c#5 v=49
82550 On ch=1 n=d#3 v=65
82568 On ch=1 n=g5 v=54
82578 Par ch=1 c=64 v=63
82584 Par ch=1 c=64 v=0
82652 Par ch=1 c=64 v=63
82664 Par ch=1 c=64 v=127
82694 On ch=1 n=d#3 v=0
82738 On ch=1 n=a#3 v=0
82752 On ch=1 n=d#4 v=61
82838 On ch=1 n=d#4 v=0
82854 On ch=1 n=c#5 v=0
82874 On ch=1 n=c#6 v=0
82910 On ch=1 n=f4 v=55
82930 On ch=1 n=g5 v=0
83032 On ch=1 n=g4 v=63
83054 On ch=1 n=f4 v=0
83126 Par ch=1 c=67 v=127
83180 On ch=1 n=g4 v=0
83198 On ch=1 n=d#6 v=87
83202 On ch=1 n=d#5 v=75
83202 On ch=1 n=c#5 v=80
83214 On ch=1 n=a#5 v=75
83314 On ch=1 n=c#5 v=0
83324 On ch=1 n=d#5 v=0
83330 On ch=1 n=g4 v=60
83332 On ch=1 n=a#5 v=0
83380 On ch=1 n=d#6 v=0
83422 On ch=1 n=f4 v=64
83480 On ch=1 n=g4 v=0
83510 On ch=1 n=d#4 v=95
83560 On ch=1 n=f4 v=0
83606 On ch=1 n=d#4 v=0
83674 On ch=1 n=b5 v=84
83676 On ch=1 n=e6 v=97
83676 Par ch=1 c=64 v=63
83678 On ch=1 n=e5 v=86
83682 Par ch=1 c=64 v=0
83682 On ch=1 n=g3 v=90
83712 On ch=1 n=d4 v=87
83726 Par ch=1 c=64 v=63
83738 Par ch=1 c=64 v=127
83774 On ch=1 n=g3 v=0
83780 On ch=1 n=e5 v=0
83810 On ch=1 n=d4 v=0
83820 On ch=1 n=f4 v=83
83822 On ch=1 n=b5 v=0
83840 On ch=1 n=e6 v=0
83886 On ch=1 n=f4 v=0
83924 On ch=1 n=a4 v=97
84010 On ch=1 n=b4 v=97
84026 On ch=1 n=a4 v=0
84094 On ch=1 n=b4 v=0
84110 On ch=1 n=f5 v=85
84140 On ch=1 n=a6 v=102
84146 On ch=1 n=a5 v=84
84152 On ch=1 n=d6 v=90
84204 On ch=1 n=f5 v=0
84226 On ch=1 n=b4 v=88
84242 On ch=1 n=a5 v=0
84248 On ch=1 n=a6 v=0
84258 On ch=1 n=d6 v=0
84314 On ch=1 n=a4 v=58
84394 On ch=1 n=b4 v=0
84402 On ch=1 n=g4 v=75
84438 On ch=1 n=a4 v=0
84468 On ch=1 n=g4 v=0
84628 On ch=1 n=c#6 v=99
84632 On ch=1 n=a#3 v=76
84634 On ch=1 n=c#5 v=88
84636 On ch=1 n=g5 v=77
84646 Par ch=1 c=64 v=63
84656 On ch=1 n=d#3 v=75
84656 Par ch=1 c=64 v=0
84704 Par ch=1 c=64 v=63
84722 Par ch=1 c=64 v=127
84766 On ch=1 n=d#3 v=0
84774 On ch=1 n=c#5 v=0
84776 On ch=1 n=d#4 v=90
84796 On ch=1 n=a#3 v=0
84796 On ch=1 n=c#6 v=0
84856 On ch=1 n=d#4 v=0
84880 On ch=1 n=d#6 v=101
84884 On ch=1 n=d#5 v=91
84890 On ch=1 n=a#5 v=96
84920 On ch=1 n=g5 v=0
84922 On ch=1 n=f4 v=59
84990 On ch=1 n=d#6 v=0
85004 On ch=1 n=d#5 v=0
85012 On ch=1 n=g4 v=74
85036 On ch=1 n=f4 v=0
85062 On ch=1 n=a#5 v=0
85094 On ch=1 n=c#6 v=107
85106 On ch=1 n=g5 v=84
85118 On ch=1 n=g4 v=0
85126 On ch=1 n=c#5 v=105
85192 On ch=1 n=c#6 v=0
85214 On ch=1 n=g5 v=0
85240 On ch=1 n=g4 v=64
85244 On ch=1 n=c#5 v=0
85284 On ch=1 n=d#6 v=105
85288 On ch=1 n=a#5 v=94
85314 On ch=1 n=f4 v=87
85356 On ch=1 n=g4 v=0
85362 On ch=1 n=a#5 v=0
85370 On ch=1 n=d#4 v=99
85390 On ch=1 n=d#6 v=0
85422 On ch=1 n=f4 v=0
85458 On ch=1 n=d#4 v=0
85480 Par ch=1 c=64 v=63
85488 Par ch=1 c=64 v=0
85500 On ch=1 n=b5 v=104
85506 On ch=1 n=e6 v=107
85508 On ch=1 n=e5 v=98
85520 On ch=1 n=g3 v=107
85530 On ch=1 n=c#6 v=61
85536 On ch=1 n=d4 v=101
85540 Par ch=1 c=64 v=63
85552 Par ch=1 c=64 v=127
85566 On ch=1 n=c#6 v=0
85578 Par ch=1 c=67 v=0
85596 On ch=1 n=g3 v=0
85604 On ch=1 n=e5 v=0
85610 On ch=1 n=b5 v=0
85616 On ch=1 n=d4 v=0
85630 On ch=1 n=f4 v=87
85636 On ch=1 n=e6 v=0
85684 On ch=1 n=f4 v=0
85730 On ch=1 n=a4 v=90
85812 On ch=1 n=b4 v=91
85834 On ch=1 n=a4 v=0
85900 On ch=1 n=b4 v=0
85904 On ch=1 n=f5 v=92
85930 On ch=1 n=a6 v=103
85936 On ch=1 n=a5 v=81
85944 On ch=1 n=d6 v=84
85996 On ch=1 n=f5 v=0
86014 On ch=1 n=b4 v=84
86026 On ch=1 n=a5 v=0
86080 On ch=1 n=d6 v=0
86102 On ch=1 n=a4 v=57
86112 On ch=1 n=a6 v=0
86168 On ch=1 n=b4 v=0
86186 On ch=1 n=g4 v=78
86224 On ch=1 n=a4 v=0
86254 On ch=1 n=g4 v=0
86354 Par ch=1 c=64 v=63
86364 Par ch=1 c=64 v=0
86374 On ch=1 n=c#7 v=110
86378 On ch=1 n=c#6 v=107
86380 On ch=1 n=g6 v=98
86386 On ch=1 n=a#4 v=85
86396 On ch=1 n=d#4 v=80
86406 Par ch=1 c=64 v=63
86422 Par ch=1 c=64 v=127
86478 On ch=1 n=d#4 v=0
86494 On ch=1 n=d#5 v=99
86502 On ch=1 n=a#4 v=0
86502 On ch=1 n=c#6 v=0
86526 On ch=1 n=g6 v=0
86532 On ch=1 n=c#7 v=0
86554 On ch=1 n=d#5 v=0
86596 On ch=1 n=f5 v=88
86692 On ch=1 n=g5 v=93
86710 On ch=1 n=f5 v=0
86778 On ch=1 n=d#7 v=115
86782 On ch=1 n=g5 v=0
86784 On ch=1 n=d#6 v=120
86790 On ch=1 n=a#6 v=106
86800 On ch=1 n=c#6 v=103
86828 On ch=1 n=d#6 v=0
86846 On ch=1 n=a#6 v=0
86878 On ch=1 n=d#7 v=0
86900 On ch=1 n=c#6 v=0
86908 On ch=1 n=g5 v=87
86974 On ch=1 n=f5 v=68
87026 On ch=1 n=g5 v=0
87062 On ch=1 n=d#5 v=97
87100 On ch=1 n=f5 v=0
87136 On ch=1 n=d#5 v=0
87176 Par ch=1 c=64 v=63
87186 Par ch=1 c=64 v=0
87204 On ch=1 n=b6 v=103
87204 On ch=1 n=e6 v=109
87204 On ch=1 n=e7 v=107
87208 On ch=1 n=g4 v=97
87222 On ch=1 n=d5 v=111
87238 Par ch=1 c=64 v=63
87250 Par ch=1 c=64 v=127
87266 On ch=1 n=e6 v=0
87284 On ch=1 n=g4 v=0
87288 On ch=1 n=b6 v=0
87306 On ch=1 n=d5 v=0
87310 On ch=1 n=e7 v=0
87320 On ch=1 n=f5 v=96
87382 On ch=1 n=f5 v=0
87426 On ch=1 n=a5 v=99
87506 On ch=1 n=b5 v=99
87528 On ch=1 n=a5 v=0
87586 On ch=1 n=b5 v=0
87608 On ch=1 n=f6 v=97
87618 On ch=1 n=a7 v=116
87620 On ch=1 n=a6 v=116
87622 On ch=1 n=d7 v=114
87674 On ch=1 n=a6 v=0
87696 On ch=1 n=d7 v=0
87710 On ch=1 n=f6 v=0
87710 On ch=1 n=b5 v=96
87736 On ch=1 n=a7 v=0
87812 On ch=1 n=a5 v=71
87854 On ch=1 n=b5 v=0
87882 On ch=1 n=g5 v=88
87914 On ch=1 n=a5 v=0
87958 On ch=1 n=g5 v=0
88002 Par ch=1 c=64 v=63
88012 Par ch=1 c=64 v=0
88034 On ch=1 n=a#5 v=110
88034 On ch=1 n=d#5 v=114
88042 On ch=1 n=c#8 v=116
88044 On ch=1 n=g7 v=107
88044 On ch=1 n=c#7 v=120
88054 Par ch=1 c=64 v=63
88054 Par ch=1 c=64 v=127
88152 On ch=1 n=c#7 v=0
88164 On ch=1 n=d#5 v=0
88174 On ch=1 n=c#8 v=0
88184 On ch=1 n=d#6 v=88
88192 On ch=1 n=a#5 v=0
88268 On ch=1 n=d#6 v=0
88276 On ch=1 n=g7 v=0
88290 On ch=1 n=d#8 v=110
88302 On ch=1 n=d#7 v=97
88304 On ch=1 n=a#7 v=97
88306 On ch=1 n=f6 v=84
88312 On ch=1 n=g7 v=31
88362 On ch=1 n=g7 v=0
88398 On ch=1 n=d#7 v=0
88400 On ch=1 n=d#8 v=0
88412 On ch=1 n=g6 v=97
88440 On ch=1 n=f6 v=0
88476 On ch=1 n=a#7 v=0
88504 On ch=1 n=c#8 v=105
88510 On ch=1 n=g7 v=98
88516 On ch=1 n=g6 v=0
88528 On ch=1 n=c#7 v=116
88594 On ch=1 n=c#8 v=0
88626 On ch=1 n=g6 v=81
88630 On ch=1 n=c#7 v=0
88638 On ch=1 n=g7 v=0
88692 On ch=1 n=a#7 v=107
88696 On ch=1 n=d#8 v=108
88700 On ch=1 n=f6 v=84
88740 On ch=1 n=g6 v=0
88754 On ch=1 n=a#7 v=0
88778 On ch=1 n=d#6 v=108
88780 On ch=1 n=d#8 v=0
88824 On ch=1 n=f6 v=0
88856 On ch=1 n=d#6 v=0
88906 Par ch=1 c=64 v=63
88916 Par ch=1 c=64 v=0
88930 On ch=1 n=b7 v=107
88934 On ch=1 n=e8 v=106
88934 On ch=1 n=g5 v=106
88938 On ch=1 n=d6 v=111
88940 On ch=1 n=e7 v=97
88958 Par ch=1 c=64 v=63
88960 On ch=1 n=c#8 v=61
88970 Par ch=1 c=64 v=127
88978 On ch=1 n=e7 v=0
88990 On ch=1 n=c#8 v=0
88990 On ch=1 n=b7 v=0
88996 On ch=1 n=g5 v=0
89010 On ch=1 n=e8 v=0
89024 On ch=1 n=d6 v=0
89044 On ch=1 n=f6 v=91
89108 On ch=1 n=f6 v=0
89164 On ch=1 n=a6 v=81
89170 On ch=1 n=g6 v=76
89206 On ch=1 n=g6 v=0
89254 On ch=1 n=b6 v=100
89264 On ch=1 n=a6 v=0
89326 On ch=1 n=b6 v=0
89360 On ch=1 n=a8 v=116
89362 On ch=1 n=d8 v=112
89362 On ch=1 n=a7 v=107
89374 On ch=1 n=f7 v=101
89424 On ch=1 n=a7 v=0
89434 On ch=1 n=d8 v=0
89436 On ch=1 n=a8 v=0
89480 On ch=1 n=f7 v=0
89480 On ch=1 n=b6 v=107
89604 On ch=1 n=a6 v=112
89640 On ch=1 n=b6 v=0
89740 On ch=1 n=f6 v=117
89764 On ch=1 n=a6 v=0
89808 On ch=1 n=f6 v=0
89966 On ch=1 n=a#5 v=121
89968 On ch=1 n=d7 v=116
89968 On ch=1 n=g6 v=112
89972 On ch=1 n=d#5 v=118
89976 Par ch=1 c=64 v=63
89988 Par ch=1 c=64 v=0
90050 Par ch=1 c=64 v=63
90060 Par ch=1 c=64 v=127
90170 On ch=1 n=d#7 v=114
90178 On ch=1 n=g7 v=104
90194 On ch=1 n=a#5 v=0
90196 On ch=1 n=d#5 v=0
90224 On ch=1 n=g6 v=0
90228 On ch=1 n=d7 v=0
90300 On ch=1 n=g7 v=0
90306 On ch=1 n=d7 v=109
90314 On ch=1 n=g6 v=99
90348 On ch=1 n=d#7 v=0
90408 On ch=1 n=g7 v=97
90410 On ch=1 n=d#7 v=103
90430 On ch=1 n=g6 v=0
90474 On ch=1 n=d7 v=0
90526 On ch=1 n=a#7 v=119
90532 On ch=1 n=d7 v=104
90534 On ch=1 n=g7 v=0
90538 On ch=1 n=g6 v=102
90582 On ch=1 n=d#7 v=0
90590 On ch=1 n=a#7 v=0
90632 On ch=1 n=g6 v=0
90636 On ch=1 n=g7 v=97
90642 On ch=1 n=d#7 v=103
90690 On ch=1 n=d7 v=0
90738 On ch=1 n=d7 v=92
90742 On ch=1 n=g7 v=0
90746 On ch=1 n=g6 v=98
90792 On ch=1 n=d#7 v=0
90816 On ch=1 n=g6 v=0
90828 On ch=1 n=g7 v=89
90846 On ch=1 n=d#7 v=96
90890 On ch=1 n=d7 v=0
90920 On ch=1 n=g7 v=0
90940 On ch=1 n=g6 v=81
90940 On ch=1 n=d7 v=81
90988 On ch=1 n=d#7 v=0
91008 On ch=1 n=g6 v=0
91022 On ch=1 n=g7 v=92
91040 On ch=1 n=d#7 v=87
91114 On ch=1 n=g7 v=0
91132 On ch=1 n=g6 v=84
91180 On ch=1 n=d#7 v=0
91200 On ch=1 n=g6 v=0
91202 On ch=1 n=g7 v=90
91238 On ch=1 n=d#7 v=53
91276 On ch=1 n=d7 v=0
91322 On ch=1 n=g7 v=0
91336 On ch=1 n=g6 v=85
91338 On ch=1 n=d7 v=75
91382 On ch=1 n=d#7 v=0
91400 On ch=1 n=g6 v=0
91418 On ch=1 n=g7 v=94
91438 On ch=1 n=d#7 v=92
91472 On ch=1 n=d7 v=0
91526 On ch=1 n=g7 v=0
91526 On ch=1 n=d7 v=86
91534 On ch=1 n=g6 v=93
91574 On ch=1 n=d#7 v=0
91614 On ch=1 n=d#7 v=97
91620 On ch=1 n=g7 v=98
91622 On ch=1 n=g6 v=0
91668 On ch=1 n=d7 v=0
91714 On ch=1 n=a#6 v=124
91722 On ch=1 n=d#6 v=112
91722 On ch=1 n=d7 v=93
91724 On ch=1 n=g7 v=0
91734 On ch=1 n=g6 v=99
91766 On ch=1 n=d#7 v=0
91772 On ch=1 n=a#6 v=0
91774 On ch=1 n=d#6 v=0
91818 On ch=1 n=g7 v=99
91820 On ch=1 n=d#7 v=98
91822 On ch=1 n=g6 v=0
91876 On ch=1 n=d7 v=0
91918 On ch=1 n=g7 v=0
91930 On ch=1 n=d7 v=96
91932 On ch=1 n=g6 v=97
91984 On ch=1 n=d#7 v=0
92010 On ch=1 n=g7 v=89
92020 On ch=1 n=g6 v=0
92036 On ch=1 n=d#7 v=72
92100 On ch=1 n=a#7 v=124
92120 On ch=1 n=g7 v=0
92134 On ch=1 n=g6 v=92
92148 On ch=1 n=a#7 v=0
92182 On ch=1 n=d#7 v=0
92204 On ch=1 n=g7 v=86
92220 On ch=1 n=d#7 v=106
92222 On ch=1 n=g6 v=0
92316 On ch=1 n=g6 v=92
92324 On ch=1 n=g7 v=0
92358 On ch=1 n=d#7 v=0
92388 On ch=1 n=g6 v=0
92390 On ch=1 n=g7 v=87
92408 On ch=1 n=d#7 v=86
92492 On ch=1 n=g6 v=88
92512 On ch=1 n=g7 v=0
92536 On ch=1 n=d#7 v=0
92582 On ch=1 n=g7 v=90
92584 On ch=1 n=g6 v=0
92594 On ch=1 n=d#7 v=91
92674 On ch=1 n=g6 v=85
92680 On ch=1 n=g7 v=0
92708 On ch=1 n=d#7 v=0
92760 On ch=1 n=g7 v=87
92766 On ch=1 n=d#7 v=84
92770 On ch=1 n=g6 v=0
92844 On ch=1 n=g6 v=87
92854 On ch=1 n=g7 v=0
92888 On ch=1 n=d#7 v=0
92938 On ch=1 n=g7 v=84
92948 On ch=1 n=d#7 v=91
92952 On ch=1 n=g6 v=0
93026 On ch=1 n=g6 v=81
93046 On ch=1 n=g7 v=0
93068 On ch=1 n=d#7 v=0
93118 On ch=1 n=g7 v=90
93154 On ch=1 n=g6 v=0
93234 On ch=1 n=d7 v=0
93244 On ch=1 n=a#6 v=110
93246 On ch=1 n=g7 v=0
93250 On ch=1 n=d#6 v=100
93400 On ch=1 n=d#6 v=0
93420 On ch=1 n=a#6 v=0
93430 On ch=1 n=g6 v=86
93546 On ch=1 n=d7 v=107
93594 On ch=1 n=g6 v=0
93636 On ch=1 n=g7 v=98
93712 On ch=1 n=d7 v=0
93726 On ch=1 n=a#7 v=108
93736 On ch=1 n=d#7 v=101
93750 On ch=1 n=g7 v=0
93778 On ch=1 n=a#7 v=0
93806 On ch=1 n=d#7 v=0
93818 On ch=1 n=g7 v=94
93920 On ch=1 n=d7 v=92
93962 On ch=1 n=g7 v=0
93994 On ch=1 n=g6 v=88
94010 On ch=1 n=d7 v=0
94066 On ch=1 n=g6 v=0
94088 On ch=1 n=a#6 v=108
94102 On ch=1 n=d#6 v=95
94138 On ch=1 n=a#6 v=0
94168 On ch=1 n=d#6 v=0
94188 On ch=1 n=g6 v=71
94304 On ch=1 n=d6 v=92
94336 On ch=1 n=g6 v=0
94388 On ch=1 n=d6 v=0
94390 On ch=1 n=g5 v=84
94450 On ch=1 n=g5 v=0
94478 On ch=1 n=a#5 v=105
94490 On ch=1 n=d#5 v=94
94526 On ch=1 n=a#5 v=0
94556 On ch=1 n=d#5 v=0
94584 On ch=1 n=g5 v=85
94686 On ch=1 n=d5 v=99
94720 On ch=1 n=g5 v=0
94768 On ch=1 n=g4 v=87
94774 On ch=1 n=d5 v=0
94852 On ch=1 n=g4 v=0
94872 On ch=1 n=a#4 v=101
94878 On ch=1 n=d#4 v=85
94918 On ch=1 n=d#4 v=0
94928 On ch=1 n=a#4 v=0
94968 On ch=1 n=g4 v=71
95062 On ch=1 n=d5 v=88
95088 On ch=1 n=g4 v=0
95148 On ch=1 n=g5 v=87
95170 On ch=1 n=d5 v=0
95216 On ch=1 n=g5 v=0
95234 On ch=1 n=a#5 v=98
95244 On ch=1 n=d#5 v=87
95296 On ch=1 n=a#5 v=0
95308 On ch=1 n=d#5 v=0
95346 On ch=1 n=g5 v=71
95446 On ch=1 n=d6 v=89
95466 On ch=1 n=g5 v=0
95538 On ch=1 n=g6 v=92
95560 On ch=1 n=d6 v=0
95616 On ch=1 n=g6 v=0
95628 On ch=1 n=a#6 v=99
95636 On ch=1 n=d#6 v=85
95696 On ch=1 n=d#6 v=0
95696 On ch=1 n=a#6 v=0
95740 On ch=1 n=g6 v=79
95834 On ch=1 n=d7 v=98
95848 On ch=1 n=g6 v=0
95922 On ch=1 n=g7 v=93
95952 On ch=1 n=d7 v=0
96022 On ch=1 n=a#7 v=98
96024 On ch=1 n=g7 v=0
96034 On ch=1 n=d#7 v=90
96088 On ch=1 n=a#7 v=0
96106 On ch=1 n=d#7 v=0
96130 On ch=1 n=g7 v=78
96220 On ch=1 n=d7 v=88
96268 On ch=1 n=g7 v=0
96322 On ch=1 n=g6 v=42
96330 On ch=1 n=d7 v=0
96420 On ch=1 n=g6 v=0
96420 On ch=1 n=a#6 v=90
96432 On ch=1 n=d#6 v=72
96484 On ch=1 n=d#6 v=0
96490 On ch=1 n=a#6 v=0
96524 On ch=1 n=g6 v=71
96628 On ch=1 n=d7 v=73
96676 On ch=1 n=g6 v=0
96708 On ch=1 n=g7 v=84
96766 On ch=1 n=d7 v=0
96828 On ch=1 n=g7 v=0
96836 On ch=1 n=a#7 v=76
96848 On ch=1 n=d#7 v=71
96902 On ch=1 n=a#7 v=0
96930 On ch=1 n=d#7 v=0
96948 On ch=1 n=g7 v=70
97036 On ch=1 n=d7 v=76
97088 On ch=1 n=g7 v=0
97128 On ch=1 n=g6 v=49
97166 On ch=1 n=d7 v=0
97248 On ch=1 n=a#6 v=81
97252 On ch=1 n=g6 v=0
97258 On ch=1 n=d#6 v=65
97302 On ch=1 n=d#6 v=0
97320 On ch=1 n=a#6 v=0
97368 On ch=1 n=g6 v=64
97474 On ch=1 n=d7 v=68
97526 On ch=1 n=g6 v=0
97574 On ch=1 n=g7 v=71
97640 On ch=1 n=d7 v=0
97704 On ch=1 n=g7 v=0
97704 On ch=1 n=a#7 v=71
97724 On ch=1 n=d#7 v=58
97772 On ch=1 n=a#7 v=0
97776 On ch=1 n=d#7 v=0
97822 On ch=1 n=g7 v=63
97920 On ch=1 n=d7 v=64
97962 On ch=1 n=g7 v=0
98030 On ch=1 n=g6 v=43
98084 On ch=1 n=d7 v=0
98166 On ch=1 n=g6 v=0
98182 On ch=1 n=a#6 v=65
98184 On ch=1 n=d#6 v=61
98256 On ch=1 n=a#6 v=0
98268 On ch=1 n=d#6 v=0
98306 On ch=1 n=g6 v=63
98442 On ch=1 n=d7 v=63
98482 On ch=1 n=g6 v=0
98576 On ch=1 n=g7 v=59
98654 On ch=1 n=d7 v=0
98712 On ch=1 n=g7 v=0
98734 On ch=1 n=a#7 v=59
98748 On ch=1 n=d#7 v=54
98802 On ch=1 n=a#7 v=0
98816 On ch=1 n=d#7 v=0
99024 On ch=1 n=d7 v=68
99130 On ch=1 n=d7 v=0
99340 On ch=1 n=a#6 v=44
99350 On ch=1 n=d6 v=47
99428 On ch=1 n=d6 v=0
99446 On ch=1 n=a#6 v=0
99700 On ch=1 n=d7 v=46
99710 On ch=1 n=g6 v=35
99994 Par ch=1 c=67 v=127
100108 On ch=1 n=g6 v=0
100146 On ch=1 n=a#7 v=59
100150 On ch=1 n=g7 v=55
100174 On ch=1 n=d7 v=0
100296 On ch=1 n=a#7 v=0
100672 On ch=1 n=d7 v=32
100688 Par ch=1 c=64 v=63
100694 On ch=1 n=g6 v=25
100746 Par ch=1 c=64 v=127
100758 On ch=1 n=g7 v=0
100858 On ch=1 n=g6 v=0
100950 On ch=1 n=d7 v=0
101322 On ch=1 n=g#6 v=52
101326 On ch=1 n=d#7 v=54
101344 On ch=1 n=c#6 v=35
101344 On ch=1 n=b6 v=50
101404 Par ch=1 c=64 v=63
101418 Par ch=1 c=64 v=127
101684 On ch=1 n=g#6 v=0
101732 On ch=1 n=a#6 v=61
101752 On ch=1 n=b6 v=0
101758 On ch=1 n=f6 v=51
101768 On ch=1 n=c#6 v=0
101780 On ch=1 n=d#7 v=0
101900 On ch=1 n=a#6 v=0
101904 On ch=1 n=f6 v=0
102026 On ch=1 n=a#6 v=76
102036 On ch=1 n=f7 v=68
102044 On ch=1 n=f6 v=59
102046 On ch=1 n=c#7 v=60
102250 On ch=1 n=c#7 v=0
102264 On ch=1 n=f7 v=0
102302 On ch=1 n=g#6 v=86
102304 On ch=1 n=a#6 v=0
102316 On ch=1 n=f6 v=0
102316 On ch=1 n=c#6 v=76
102402 On ch=1 n=g#6 v=0
102408 On ch=1 n=c#6 v=0
102560 On ch=1 n=f#6 v=86
102562 On ch=1 n=a6 v=71
102562 On ch=1 n=b5 v=76
102568 On ch=1 n=c#7 v=68
102608 Par ch=1 c=64 v=63
102620 Par ch=1 c=64 v=127
102768 On ch=1 n=a6 v=0
102808 On ch=1 n=f#6 v=0
102808 On ch=1 n=g#6 v=76
102818 On ch=1 n=c#7 v=0
102820 On ch=1 n=d#6 v=72
102828 On ch=1 n=b5 v=0
102942 On ch=1 n=g#6 v=0
102944 On ch=1 n=d#6 v=0
103084 On ch=1 n=d#6 v=76
103086 On ch=1 n=g#7 v=80
103086 On ch=1 n=g#6 v=74
103092 On ch=1 n=d#7 v=74
103188 On ch=1 n=g#7 v=0
103226 On ch=1 n=d#7 v=0
103322 On ch=1 n=g#6 v=0
103340 On ch=1 n=d#6 v=0
103370 On ch=1 n=c#7 v=70
103374 On ch=1 n=f#6 v=63
103378 On ch=1 n=b5 v=54
103386 On ch=1 n=a6 v=44
103450 On ch=1 n=b5 v=0
103478 On ch=1 n=f#6 v=0
103484 On ch=1 n=a6 v=0
103518 On ch=1 n=c#7 v=0
103700 On ch=1 n=d#7 v=82
103704 On ch=1 n=b6 v=77
103704 On ch=1 n=g#6 v=71
103718 On ch=1 n=c#6 v=55
103760 Par ch=1 c=64 v=63
103812 Par ch=1 c=64 v=127
103936 On ch=1 n=g#6 v=0
103960 On ch=1 n=a#6 v=79
103972 On ch=1 n=b6 v=0
103976 On ch=1 n=f6 v=72
103986 On ch=1 n=c#6 v=0
104004 On ch=1 n=d#7 v=0
104112 On ch=1 n=f6 v=0
104114 On ch=1 n=a#6 v=0
104222 On ch=1 n=f7 v=92
104226 On ch=1 n=a#6 v=83
104238 On ch=1 n=c#7 v=72
104238 On ch=1 n=f6 v=65
104328 On ch=1 n=c#7 v=0
104372 On ch=1 n=f7 v=0
104402 On ch=1 n=f6 v=0
104420 On ch=1 n=a#6 v=0
104476 On ch=1 n=g#6 v=76
104486 On ch=1 n=c#6 v=70
104556 On ch=1 n=g#6 v=0
104570 On ch=1 n=c#6 v=0
104738 On ch=1 n=f#6 v=84
104746 On ch=1 n=c#7 v=69
104746 On ch=1 n=a6 v=56
104750 Par ch=1 c=64 v=63
104750 On ch=1 n=b5 v=65
104806 Par ch=1 c=64 v=127
104920 On ch=1 n=a6 v=0
104962 On ch=1 n=b5 v=0
104970 On ch=1 n=f#6 v=0
104980 On ch=1 n=c#7 v=0
105002 On ch=1 n=g#6 v=65
105020 On ch=1 n=d#6 v=67
105138 On ch=1 n=g#6 v=0
105156 On ch=1 n=d#6 v=0
105258 On ch=1 n=g#7 v=61
105262 On ch=1 n=g#6 v=70
105262 On ch=1 n=d#7 v=67
105268 On ch=1 n=d#6 v=63
105338 On ch=1 n=g#7 v=0
105408 On ch=1 n=d#7 v=0
105442 On ch=1 n=d#6 v=0
105492 On ch=1 n=g#6 v=0
105516 On ch=1 n=f#6 v=67
105516 On ch=1 n=b5 v=59
105518 On ch=1 n=c#7 v=65
105534 On ch=1 n=a6 v=39
105584 On ch=1 n=b5 v=0
105602 On ch=1 n=a6 v=0
105606 On ch=1 n=f#6 v=0
105638 On ch=1 n=c#7 v=0
105814 On ch=1 n=d#7 v=63
105826 On ch=1 n=b6 v=71
105830 Par ch=1 c=64 v=63
105832 On ch=1 n=c#6 v=64
105834 On ch=1 n=g#6 v=65
105848 Par ch=1 c=64 v=0
105892 Par ch=1 c=64 v=63
105920 Par ch=1 c=64 v=127
106076 On ch=1 n=g#6 v=0
106086 On ch=1 n=b6 v=0
106090 On ch=1 n=a#6 v=77
106092 On ch=1 n=d#7 v=0
106094 On ch=1 n=c#6 v=0
106128 On ch=1 n=f6 v=44
106222 On ch=1 n=a#6 v=0
106224 On ch=1 n=f6 v=0
106338 On ch=1 n=a#6 v=77
106344 On ch=1 n=f7 v=86
106356 On ch=1 n=f6 v=63
106374 On ch=1 n=c#7 v=61
106422 On ch=1 n=c#7 v=0
106442 On ch=1 n=f7 v=0
106538 On ch=1 n=a#6 v=0
106562 On ch=1 n=f6 v=0
106590 On ch=1 n=g#6 v=72
106608 On ch=1 n=c#6 v=59
106672 On ch=1 n=g#6 v=0
106702 On ch=1 n=c#6 v=0
106846 On ch=1 n=c#7 v=87
106856 On ch=1 n=f#6 v=81
106868 On ch=1 n=b5 v=63
106872 Par ch=1 c=64 v=63
106910 On ch=1 n=a6 v=32
106924 Par ch=1 c=64 v=127
107068 On ch=1 n=f#6 v=0
107092 On ch=1 n=a6 v=0
107094 On ch=1 n=g#6 v=74
107102 On ch=1 n=d#6 v=72
107128 On ch=1 n=b5 v=0
107148 On ch=1 n=c#7 v=0
107214 On ch=1 n=d#6 v=0
107218 On ch=1 n=g#6 v=0
107354 On ch=1 n=g#6 v=71
107354 On ch=1 n=d#7 v=70
107354 On ch=1 n=d#6 v=75
107374 On ch=1 n=b6 v=54
107482 On ch=1 n=d#7 v=0
107490 On ch=1 n=b6 v=0
107558 On ch=1 n=g#6 v=0
107584 On ch=1 n=d#6 v=0
107606 On ch=1 n=f#6 v=70
107622 On ch=1 n=b5 v=52
107706 On ch=1 n=f#6 v=0
107720 On ch=1 n=b5 v=0
107856 On ch=1 n=b6 v=62
107860 Par ch=1 c=64 v=63
107874 On ch=1 n=e6 v=82
107878 On ch=1 n=a5 v=50
107890 On ch=1 n=g6 v=56
107932 Par ch=1 c=64 v=127
108116 On ch=1 n=g6 v=0
108142 On ch=1 n=f#6 v=66
108148 On ch=1 n=e6 v=0
108154 On ch=1 n=b6 v=0
108158 On ch=1 n=c#6 v=59
108174 On ch=1 n=a5 v=0
108258 On ch=1 n=f#6 v=0
108264 On ch=1 n=c#6 v=0
108402 On ch=1 n=f#6 v=67
108410 On ch=1 n=c#7 v=54
108412 On ch=1 n=c#6 v=63
108430 On ch=1 n=a6 v=55
108530 On ch=1 n=c#7 v=0
108538 On ch=1 n=a6 v=0
108592 On ch=1 n=f#6 v=0
108596 On ch=1 n=c#6 v=0
108668 On ch=1 n=e6 v=60
108690 On ch=1 n=a5 v=35
108768 On ch=1 n=e6 v=0
108780 On ch=1 n=a5 v=0
108966 On ch=1 n=a#6 v=67
108976 On ch=1 n=g#5 v=44
108978 On ch=1 n=d#6 v=63
108982 On ch=1 n=f#6 v=66
108988 Par ch=1 c=64 v=63
109048 Par ch=1 c=64 v=127
109202 On ch=1 n=d#6 v=0
109228 On ch=1 n=f#6 v=0
109270 On ch=1 n=a#6 v=0
109276 On ch=1 n=f6 v=43
109298 On ch=1 n=g#5 v=0
109308 On ch=1 n=c6 v=40
109434 On ch=1 n=f6 v=0
109458 On ch=1 n=c6 v=0
109620 On ch=1 n=f6 v=44
109636 On ch=1 n=g#6 v=48
109646 On ch=1 n=c7 v=44
109648 On ch=1 n=c6 v=26
109722 On ch=1 n=g#6 v=0
109738 On ch=1 n=c7 v=0
110046 On ch=1 n=f6 v=0
110048 On ch=1 n=g#5 v=42
110052 On ch=1 n=d#6 v=46
110130 On ch=1 n=c6 v=0
110222 On ch=1 n=g#5 v=0
110272 On ch=1 n=d#6 v=0
110710 On ch=1 n=a#6 v=76
110710 On ch=1 n=g#4 v=63
110710 On ch=1 n=f#5 v=65
110724 On ch=1 n=d#5 v=54
110742 Par ch=1 c=64 v=63
110758 On ch=1 n=f#6 v=55
110762 Par ch=1 c=64 v=0
110782 Par ch=1 c=64 v=63
110796 On ch=1 n=c6 v=55
110820 Par ch=1 c=64 v=127
110944 On ch=1 n=g#4 v=0
110946 On ch=1 n=c6 v=0
110946 On ch=1 n=f#5 v=0
110952 On ch=1 n=d#5 v=0
111136 On ch=1 n=a#6 v=0
111156 On ch=1 n=a#5 v=68
111272 On ch=1 n=f#6 v=0
111366 On ch=1 n=a#5 v=0
111520 On ch=1 n=c7 v=73
111528 On ch=1 n=f#6 v=76
111536 On ch=1 n=g#6 v=73
111556 On ch=1 n=a#5 v=33
111558 On ch=1 n=c6 v=46
111620 On ch=1 n=c7 v=0
111628 On ch=1 n=a#5 v=0
111660 On ch=1 n=g#6 v=0
111846 On ch=1 n=g#5 v=73
111936 On ch=1 n=c6 v=0
111938 On ch=1 n=f#6 v=0
111982 On ch=1 n=g#5 v=0
112126 On ch=1 n=c#5 v=70
112134 On ch=1 n=f#4 v=58
112136 On ch=1 n=g#6 v=98
112140 Par ch=1 c=64 v=63
112152 On ch=1 n=g#5 v=43
112164 On ch=1 n=e6 v=61
112184 Par ch=1 c=64 v=127
112270 On ch=1 n=f#4 v=0
112282 On ch=1 n=c#5 v=0
112322 On ch=1 n=g#5 v=0
112414 On ch=1 n=g#5 v=78
112432 On ch=1 n=g#6 v=0
112584 On ch=1 n=e6 v=0
112586 On ch=1 n=g#5 v=0
112686 On ch=1 n=d#7 v=73
112694 On ch=1 n=g#6 v=84
112702 On ch=1 n=g#5 v=49
112712 On ch=1 n=e6 v=69
112718 On ch=1 n=a#6 v=63
112764 On ch=1 n=d#7 v=0
112784 On ch=1 n=a#6 v=0
112870 On ch=1 n=g#5 v=0
112886 On ch=1 n=g#6 v=0
112892 On ch=1 n=e6 v=0
112998 On ch=1 n=f#6 v=64
113006 On ch=1 n=f#5 v=64
113096 On ch=1 n=f#5 v=0
113136 On ch=1 n=f#6 v=0
113338 On ch=1 n=g#4 v=50
113354 On ch=1 n=d#5 v=61
113358 Par ch=1 c=64 v=63
113360 On ch=1 n=a#6 v=86
113370 Par ch=1 c=64 v=0
113372 On ch=1 n=f#5 v=51
113378 On ch=1 n=c6 v=63
113398 Par ch=1 c=64 v=63
113406 On ch=1 n=f#6 v=59
113420 Par ch=1 c=64 v=127
113500 On ch=1 n=c6 v=0
113536 On ch=1 n=g#4 v=0
113554 On ch=1 n=f#5 v=0
113554 On ch=1 n=d#5 v=0
113616 On ch=1 n=a#6 v=0
113674 On ch=1 n=f#6 v=0
113700 On ch=1 n=a#5 v=66
113760 On ch=1 n=a#5 v=0
113972 On ch=1 n=f#6 v=86
113974 On ch=1 n=c7 v=77
113986 On ch=1 n=g#6 v=80
113988 On ch=1 n=a#5 v=58
114016 On ch=1 n=c6 v=44
114056 On ch=1 n=c7 v=0
114078 On ch=1 n=a#5 v=0
114088 On ch=1 n=g#6 v=0
114254 On ch=1 n=g#5 v=70
114364 On ch=1 n=c6 v=0
114378 On ch=1 n=f#6 v=0
114384 On ch=1 n=g#5 v=0
114524 Par ch=1 c=67 v=127
114558 On ch=1 n=f#4 v=58
114558 On ch=1 n=c#5 v=65
114570 On ch=1 n=g#6 v=78
114578 On ch=1 n=a#5 v=54
114584 Par ch=1 c=64 v=63
114598 Par ch=1 c=64 v=0
114602 On ch=1 n=e6 v=48
114612 Par ch=1 c=64 v=63
114640 Par ch=1 c=64 v=127
114738 On ch=1 n=f#4 v=0
114748 On ch=1 n=c#5 v=0
114752 On ch=1 n=a#5 v=0
114892 On ch=1 n=g#5 v=26
114962 On ch=1 n=g#6 v=0
114982 On ch=1 n=e6 v=0
115026 On ch=1 n=g#5 v=0
115180 On ch=1 n=d#7 v=57
115186 On ch=1 n=g#6 v=72
115192 On ch=1 n=a#6 v=71
115204 On ch=1 n=e6 v=49
115210 On ch=1 n=g#5 v=20
115292 On ch=1 n=d#7 v=0
115300 On ch=1 n=a#6 v=0
115374 On ch=1 n=g#5 v=0
115394 On ch=1 n=g#6 v=0
115408 On ch=1 n=e6 v=0
115538 On ch=1 n=f#6 v=67
115546 On ch=1 n=f#5 v=61
115650 On ch=1 n=f#5 v=0
115692 On ch=1 n=f#6 v=0
115890 On ch=1 n=d#5 v=61
115892 On ch=1 n=g#4 v=52
115934 On ch=1 n=f#5 v=42
115938 On ch=1 n=a#6 v=76
115954 On ch=1 n=c6 v=53
115958 On ch=1 n=f#6 v=58
115984 Par ch=1 c=64 v=63
115988 Par ch=1 c=64 v=127
116112 On ch=1 n=g#4 v=0
116114 On ch=1 n=c6 v=0
116130 On ch=1 n=d#5 v=0
116150 On ch=1 n=f#5 v=0
116262 On ch=1 n=a#6 v=0
116318 On ch=1 n=f#6 v=0
116348 On ch=1 n=a#5 v=70
116426 On ch=1 n=a#5 v=0
116664 On ch=1 n=c7 v=77
116670 On ch=1 n=f#6 v=71
116682 On ch=1 n=a#5 v=50
116684 On ch=1 n=g#6 v=72
116718 On ch=1 n=c6 v=36
116742 On ch=1 n=c7 v=0
116766 On ch=1 n=g#6 v=0
116804 On ch=1 n=a#5 v=0
116962 On ch=1 n=g#5 v=60
117034 On ch=1 n=c6 v=0
117040 On ch=1 n=f#6 v=0
117046 On ch=1 n=g#5 v=0
117202 Par ch=1 c=64 v=63
117210 Par ch=1 c=64 v=0
117210 On ch=1 n=c#5 v=67
117220 On ch=1 n=f#4 v=61
117222 On ch=1 n=g#6 v=76
117222 On ch=1 n=a#5 v=63
117244 On ch=1 n=e6 v=59
117246 Par ch=1 c=64 v=63
117262 Par ch=1 c=64 v=127
117330 On ch=1 n=f#4 v=0
117340 On ch=1 n=c#5 v=0
117364 On ch=1 n=a#5 v=0
117436 On ch=1 n=g#6 v=0
117474 On ch=1 n=e6 v=0
117504 On ch=1 n=g#5 v=81
117586 On ch=1 n=g#5 v=0
117758 On ch=1 n=a#6 v=79
117774 On ch=1 n=e6 v=65
117778 On ch=1 n=f#6 v=71
117778 On ch=1 n=a#5 v=63
117782 On ch=1 n=g#5 v=45
117830 On ch=1 n=a#6 v=0
117870 On ch=1 n=f#6 v=0
117926 On ch=1 n=g#5 v=0
117958 On ch=1 n=e6 v=0
118086 On ch=1 n=f#5 v=81
118132 On ch=1 n=a#5 v=0
118158 On ch=1 n=f#5 v=0
118406 On ch=1 n=b4 v=49
118408 On ch=1 n=f#6 v=79
118408 On ch=1 n=g#5 v=68
118410 On ch=1 n=e4 v=46
118414 On ch=1 n=d5 v=52
118432 On ch=1 n=d6 v=51
118446 Par ch=1 c=64 v=63
118452 Par ch=1 c=64 v=0
118496 Par ch=1 c=64 v=63
118512 Par ch=1 c=64 v=127
118610 On ch=1 n=g#5 v=0
118612 On ch=1 n=e4 v=0
118628 On ch=1 n=b4 v=0
118640 On ch=1 n=d5 v=0
118686 On ch=1 n=f#6 v=0
118734 On ch=1 n=d6 v=0
118734 On ch=1 n=f#5 v=65
118790 On ch=1 n=f#5 v=0
119002 On ch=1 n=g#6 v=72
119006 On ch=1 n=g#5 v=73
119006 On ch=1 n=d6 v=74
119030 On ch=1 n=e6 v=74
119138 On ch=1 n=g#6 v=0
119142 On ch=1 n=e6 v=0
119306 On ch=1 n=d6 v=0
119350 On ch=1 n=g#5 v=0
119354 On ch=1 n=e5 v=49
119488 On ch=1 n=e5 v=0
119674 On ch=1 n=a#3 v=39
119712 On ch=1 n=a#4 v=42
119712 On ch=1 n=f4 v=39
119722 On ch=1 n=d6 v=44
119724 On ch=1 n=f6 v=65
119732 On ch=1 n=a#5 v=40
119798 Par ch=1 c=64 v=63
119844 Par ch=1 c=64 v=127
120006 On ch=1 n=f6 v=0
120064 On ch=1 n=f5 v=66
120102 On ch=1 n=d6 v=0
120108 On ch=1 n=a#5 v=0
120144 On ch=1 n=f5 v=0
120322 On ch=1 n=a#5 v=86
120336 On ch=1 n=d5 v=65
120478 On ch=1 n=a#3 v=0
120494 On ch=1 n=f4 v=0
120538 On ch=1 n=a#4 v=0
120592 On ch=1 n=f5 v=65
120620 On ch=1 n=d5 v=0
120638 On ch=1 n=f5 v=0
120654 On ch=1 n=a#5 v=0
120754 On ch=1 n=e4 v=74
120798 On ch=1 n=b4 v=60
120860 On ch=1 n=d5 v=61
120862 Par ch=1 c=64 v=63
120868 Par ch=1 c=64 v=0
120896 On ch=1 n=f#6 v=91
120912 On ch=1 n=d6 v=68
120918 Par ch=1 c=64 v=63
120920 On ch=1 n=g#5 v=61
120936 Par ch=1 c=64 v=127
121008 On ch=1 n=e4 v=0
121032 On ch=1 n=b4 v=0
121050 On ch=1 n=d5 v=0
121054 On ch=1 n=g#5 v=0
121144 On ch=1 n=f#6 v=0
121168 On ch=1 n=d6 v=0
121172 On ch=1 n=f#5 v=90
121236 On ch=1 n=f#5 v=0
121420 On ch=1 n=g#6 v=94
121440 On ch=1 n=d6 v=76
121442 On ch=1 n=e6 v=83
121446 On ch=1 n=g#5 v=76
121462 On ch=1 n=f#5 v=51
121520 On ch=1 n=g#6 v=0
121548 On ch=1 n=e6 v=0
121758 On ch=1 n=e5 v=51
121818 On ch=1 n=g#5 v=0
121822 On ch=1 n=f#5 v=0
121838 On ch=1 n=d6 v=0
121892 On ch=1 n=e5 v=0
122062 On ch=1 n=a#3 v=29
122082 On ch=1 n=a#4 v=40
122086 On ch=1 n=f6 v=75
122090 On ch=1 n=d6 v=53
122092 On ch=1 n=f4 v=46
122104 On ch=1 n=a#5 v=54
122172 Par ch=1 c=64 v=63
122186 Par ch=1 c=64 v=0
122216 Par ch=1 c=64 v=63
122242 Par ch=1 c=64 v=127
122398 On ch=1 n=f6 v=0
122422 On ch=1 n=f5 v=45
122442 On ch=1 n=d6 v=0
122462 On ch=1 n=a#5 v=0
122498 On ch=1 n=f5 v=0
122636 On ch=1 n=a#5 v=80
122650 On ch=1 n=f4 v=0
122650 On ch=1 n=a#3 v=0
122652 On ch=1 n=d5 v=54
122722 On ch=1 n=a#4 v=0
122898 On ch=1 n=f5 v=64
122930 On ch=1 n=d5 v=0
122962 On ch=1 n=f5 v=0
122982 On ch=1 n=a#5 v=0
123046 On ch=1 n=e4 v=84
123080 On ch=1 n=b4 v=66
123150 On ch=1 n=d5 v=74
123168 Par ch=1 c=64 v=63
123176 On ch=1 n=f#6 v=92
123178 Par ch=1 c=64 v=0
123188 On ch=1 n=d6 v=72
123188 On ch=1 n=g#5 v=75
123210 Par ch=1 c=64 v=63
123230 Par ch=1 c=64 v=127
123300 On ch=1 n=e4 v=0
123322 On ch=1 n=g#5 v=0
123324 On ch=1 n=b4 v=0
123340 On ch=1 n=d5 v=0
123426 On ch=1 n=f#5 v=100
123430 On ch=1 n=f#6 v=0
123436 On ch=1 n=d6 v=0
123496 On ch=1 n=f#5 v=0
123664 On ch=1 n=g#6 v=104
123672 On ch=1 n=d6 v=85
123676 On ch=1 n=e6 v=87
123680 On ch=1 n=g#5 v=81
123686 On ch=1 n=f#5 v=82
123726 Par ch=1 c=67 v=127
123746 On ch=1 n=g#6 v=0
123776 On ch=1 n=e6 v=0
123910 On ch=1 n=d6 v=0
123934 On ch=1 n=e5 v=84
123984 On ch=1 n=g#5 v=0
123988 On ch=1 n=f#5 v=0
124026 On ch=1 n=e5 v=0
124174 On ch=1 n=a#4 v=74
124178 On ch=1 n=a#3 v=75
124180 On ch=1 n=d6 v=86
124180 On ch=1 n=f6 v=98
124184 On ch=1 n=f4 v=71
124184 On ch=1 n=a#5 v=89
124222 Par ch=1 c=64 v=63
124232 Par ch=1 c=64 v=0
124294 Par ch=1 c=64 v=63
124312 Par ch=1 c=64 v=127
124418 On ch=1 n=f6 v=0
124452 On ch=1 n=f5 v=67
124464 On ch=1 n=d6 v=0
124478 On ch=1 n=a#5 v=0
124534 On ch=1 n=f5 v=0
124704 On ch=1 n=a#5 v=82
124710 On ch=1 n=d5 v=71
124806 On ch=1 n=f4 v=0
124860 On ch=1 n=a#4 v=0
124888 On ch=1 n=a#3 v=0
125038 On ch=1 n=f5 v=41
125148 On ch=1 n=d5 v=0
125154 On ch=1 n=a#5 v=0
125182 On ch=1 n=f5 v=0
125222 On ch=1 n=b3 v=49
125266 On ch=1 n=e4 v=46
125324 On ch=1 n=b4 v=51
125382 On ch=1 n=f#5 v=79
125396 On ch=1 n=g#4 v=48
125416 On ch=1 n=d5 v=53
125422 Par ch=1 c=64 v=63
125434 Par ch=1 c=64 v=127
125600 On ch=1 n=g#4 v=0
125620 On ch=1 n=b3 v=0
125634 Par ch=1 c=67 v=0
125646 On ch=1 n=e4 v=0
125692 On ch=1 n=d5 v=0
125704 On ch=1 n=g#5 v=84
125710 On ch=1 n=e5 v=70
125760 On ch=1 n=f#5 v=0
125810 On ch=1 n=e5 v=0
125854 On ch=1 n=g#5 v=0
125938 On ch=1 n=b4 v=0
125940 On ch=1 n=c#5 v=60
125960 On ch=1 n=b5 v=83
125972 On ch=1 n=f#5 v=85
126074 On ch=1 n=b5 v=0
126074 On ch=1 n=d5 v=76
126088 On ch=1 n=f#5 v=0
126140 On ch=1 n=d5 v=0
126152 On ch=1 n=c#5 v=0
126194 On ch=1 n=d6 v=100
126200 On ch=1 n=g#5 v=98
126254 On ch=1 n=g#5 v=0
126262 On ch=1 n=d6 v=0
126270 On ch=1 n=b4 v=76
126336 On ch=1 n=e5 v=63
126444 On ch=1 n=b5 v=80
126454 Par ch=1 c=64 v=63
126456 On ch=1 n=f#6 v=95
126460 On ch=1 n=g#5 v=94
126464 On ch=1 n=d6 v=81
126466 Par ch=1 c=64 v=0
126502 Par ch=1 c=64 v=63
126530 Par ch=1 c=64 v=127
126616 On ch=1 n=b4 v=0
126648 On ch=1 n=e5 v=0
126662 On ch=1 n=g#5 v=0
126666 On ch=1 n=g#6 v=108
126678 On ch=1 n=e6 v=89
126704 On ch=1 n=d6 v=0
126710 On ch=1 n=f#6 v=0
126730 On ch=1 n=e6 v=0
126770 On ch=1 n=g#6 v=0
126882 On ch=1 n=c#6 v=96
126886 On ch=1 n=b6 v=99
126888 On ch=1 n=f#6 v=108
126912 On ch=1 n=b5 v=0
126988 On ch=1 n=d6 v=83
126996 On ch=1 n=b6 v=0
127000 On ch=1 n=f#6 v=0
127052 On ch=1 n=d6 v=0
127096 On ch=1 n=c#6 v=0
127110 On ch=1 n=d7 v=114
127116 On ch=1 n=g#6 v=107
127166 On ch=1 n=g#6 v=0
127174 On ch=1 n=d7 v=0
127210 On ch=1 n=b5 v=78
127270 On ch=1 n=e6 v=71
127338 Par ch=1 c=64 v=63
127346 Par ch=1 c=64 v=0
127356 On ch=1 n=d7 v=102
127356 On ch=1 n=b6 v=103
127358 On ch=1 n=f#7 v=107
127358 On ch=1 n=g#6 v=110
127388 Par ch=1 c=64 v=63
127406 Par ch=1 c=64 v=127
127548 On ch=1 n=b5 v=0
127570 On ch=1 n=g#6 v=0
127578 On ch=1 n=g#7 v=108
127582 On ch=1 n=e7 v=92
127584 On ch=1 n=e6 v=0
127614 On ch=1 n=d7 v=0
127632 On ch=1 n=f#7 v=0
127638 On ch=1 n=e7 v=0
127668 On ch=1 n=g#7 v=0
127800 On ch=1 n=b6 v=0
127830 On ch=1 n=c#7 v=116
127836 On ch=1 n=b7 v=106
127842 On ch=1 n=f#7 v=106
127938 On ch=1 n=d7 v=84
127948 On ch=1 n=f#7 v=0
127976 On ch=1 n=b7 v=0
128014 On ch=1 n=d7 v=0
128098 On ch=1 n=b6 v=108
128098 On ch=1 n=d8 v=113
128100 On ch=1 n=g#7 v=119
128114 On ch=1 n=c#7 v=0
128156 On ch=1 n=g#7 v=0
128168 On ch=1 n=d8 v=0
128188 On ch=1 n=b6 v=0
128332 Par ch=1 c=64 v=63
128342 Par ch=1 c=64 v=0
128374 Par ch=1 c=64 v=63
128378 On ch=1 n=a#5 v=114
128392 On ch=1 n=f8 v=102
128392 Par ch=1 c=64 v=127
128452 On ch=1 n=a#5 v=0
128490 On ch=1 n=d8 v=97
128504 On ch=1 n=f8 v=0
128614 On ch=1 n=a#7 v=98
128646 On ch=1 n=d8 v=0
128676 On ch=1 n=d7 v=84
128676 On ch=1 n=f6 v=71
128678 On ch=1 n=a#6 v=80
128692 On ch=1 n=a#7 v=0
128700 On ch=1 n=f7 v=83
128714 On ch=1 n=d7 v=0
128716 On ch=1 n=a#6 v=0
128740 On ch=1 n=f7 v=0
128758 On ch=1 n=f6 v=0
128802 On ch=1 n=d7 v=106
128876 On ch=1 n=a#6 v=88
128882 On ch=1 n=d7 v=0
128910 On ch=1 n=a#6 v=0
128920 On ch=1 n=f6 v=83
128990 On ch=1 n=a#6 v=107
129000 On ch=1 n=f6 v=0
129044 On ch=1 n=d7 v=96
129052 On ch=1 n=a#6 v=0
129072 On ch=1 n=d7 v=0
129152 On ch=1 n=f7 v=99
129152 On ch=1 n=f6 v=65
129152 On ch=1 n=a#6 v=91
129154 On ch=1 n=d7 v=97
129180 On ch=1 n=d7 v=0
129188 On ch=1 n=a#6 v=0
129206 On ch=1 n=f7 v=0
129208 On ch=1 n=f6 v=0
129220 On ch=1 n=a#7 v=106
129284 On ch=1 n=d8 v=98
129298 On ch=1 n=a#7 v=0
129346 On ch=1 n=d8 v=0
129352 Par ch=1 c=64 v=63
129360 Par ch=1 c=64 v=0
129412 On ch=1 n=g#5 v=110
129414 Par ch=1 c=64 v=63
129422 On ch=1 n=f#8 v=114
129424 Par ch=1 c=64 v=127
129526 On ch=1 n=g#5 v=0
129610 On ch=1 n=d8 v=90
129750 On ch=1 n=b7 v=78
129758 On ch=1 n=f#6 v=100
129760 On ch=1 n=b6 v=100
129760 On ch=1 n=d6 v=88
129814 On ch=1 n=f#8 v=0
129870 On ch=1 n=f#7 v=83
129948 On ch=1 n=f#7 v=0
129956 On ch=1 n=d8 v=0
129994 On ch=1 n=b7 v=0
130006 On ch=1 n=f#6 v=0
130012 On ch=1 n=g#8 v=113
130018 On ch=1 n=b6 v=0
130022 On ch=1 n=d6 v=0
130108 On ch=1 n=d8 v=88
130142 On ch=1 n=g#8 v=0
130234 On ch=1 n=b7 v=76
130244 On ch=1 n=f#6 v=92
130244 On ch=1 n=b6 v=85
130250 On ch=1 n=d6 v=73
130274 On ch=1 n=b6 v=0
130274 On ch=1 n=d8 v=0
130288 On ch=1 n=f#6 v=0
130308 On ch=1 n=d6 v=0
130338 On ch=1 n=g#7 v=82
130350 On ch=1 n=b7 v=0
130418 On ch=1 n=g#7 v=0
130462 Par ch=1 c=64 v=63
130470 Par ch=1 c=64 v=0
130500 On ch=1 n=a#4 v=114
130504 On ch=1 n=f8 v=99
130522 Par ch=1 c=64 v=63
130534 Par ch=1 c=64 v=127
130586 On ch=1 n=a#4 v=0
130610 On ch=1 n=d8 v=90
130620 On ch=1 n=f8 v=0
130760 On ch=1 n=a#7 v=87
130782 On ch=1 n=d8 v=0
130796 On ch=1 n=d6 v=85
130796 On ch=1 n=a#5 v=87
130800 On ch=1 n=f5 v=82
130840 On ch=1 n=a#7 v=0
130854 On ch=1 n=f7 v=68
130900 On ch=1 n=f7 v=0
130946 On ch=1 n=d6 v=0
130968 On ch=1 n=a#5 v=0
130970 On ch=1 n=d7 v=87
131008 On ch=1 n=f5 v=0
131050 On ch=1 n=d7 v=0
131058 On ch=1 n=a#6 v=106
131116 On ch=1 n=a#6 v=0
131142 On ch=1 n=f6 v=57
131184 On ch=1 n=f6 v=0
131218 On ch=1 n=d6 v=97
131292 On ch=1 n=a#5 v=100
131322 On ch=1 n=d6 v=0
131340 On ch=1 n=a#4 v=100
131352 On ch=1 n=a#5 v=0
131358 On ch=1 n=f5 v=73
131424 On ch=1 n=a#5 v=87
131436 On ch=1 n=f5 v=0
131472 On ch=1 n=a#4 v=0
131490 On ch=1 n=d6 v=100
131508 On ch=1 n=a#5 v=0
131554 On ch=1 n=d6 v=0
131584 On ch=1 n=g#4 v=115
131654 On ch=1 n=f#6 v=106
131686 Par ch=1 c=64 v=63
131700 Par ch=1 c=64 v=0
131792 Par ch=1 c=64 v=63
131802 Par ch=1 c=64 v=127
131830 On ch=1 n=d6 v=82
131972 On ch=1 n=c#5 v=92
131974 On ch=1 n=d5 v=86
131990 On ch=1 n=b5 v=79
132062 On ch=1 n=f#6 v=0
132084 On ch=1 n=f#5 v=105
132160 On ch=1 n=f#5 v=0
132172 On ch=1 n=d6 v=0
132200 On ch=1 n=b5 v=0
132206 On ch=1 n=g#6 v=112
132248 On ch=1 n=c#5 v=0
132298 On ch=1 n=g#4 v=0
132328 On ch=1 n=d6 v=76
132382 On ch=1 n=g#6 v=0
132456 On ch=1 n=b4 v=76
132470 On ch=1 n=b5 v=76
132490 On ch=1 n=d5 v=0
132494 On ch=1 n=b4 v=0
132530 On ch=1 n=d6 v=0
132570 On ch=1 n=g#5 v=89
132616 On ch=1 n=b5 v=0
132656 On ch=1 n=g#5 v=0
132706 Par ch=1 c=64 v=63
132716 Par ch=1 c=64 v=0
132722 On ch=1 n=f6 v=99
132722 On ch=1 n=a#3 v=103
132754 Par ch=1 c=64 v=63
132778 Par ch=1 c=64 v=127
132802 On ch=1 n=a#3 v=0
132832 On ch=1 n=d6 v=88
132838 On ch=1 n=f6 v=0
132986 On ch=1 n=a#5 v=93
132992 On ch=1 n=d6 v=0
132998 On ch=1 n=a#4 v=70
132998 On ch=1 n=d5 v=74
133002 On ch=1 n=f4 v=70
133062 On ch=1 n=d5 v=0
133086 On ch=1 n=a#5 v=0
133088 On ch=1 n=a#4 v=0
133102 On ch=1 n=f5 v=77
133124 On ch=1 n=f4 v=0
133162 On ch=1 n=f5 v=0
133258 On ch=1 n=d5 v=87
133356 On ch=1 n=d5 v=0
133384 On ch=1 n=a#4 v=86
133446 On ch=1 n=a#4 v=0
133530 On ch=1 n=f4 v=64
133676 On ch=1 n=f4 v=0
133680 On ch=1 n=a#3 v=80
133790 On ch=1 n=a#3 v=0
133988 Par ch=1 c=64 v=63
133994 On ch=1 n=b4 v=62
133998 Par ch=1 c=64 v=0
134010 On ch=1 n=g#3 v=65
134012 On ch=1 n=d4 v=67
134016 On ch=1 n=f#4 v=76
134108 Par ch=1 c=64 v=63
134120 Par ch=1 c=64 v=127
134260 On ch=1 n=g#3 v=0
134296 On ch=1 n=d4 v=0
134314 On ch=1 n=c#5 v=94
134344 On ch=1 n=f#4 v=0
134356 On ch=1 n=b4 v=0
134396 On ch=1 n=c#5 v=0
134560 On ch=1 n=a#4 v=81
134562 On ch=1 n=d5 v=93
134576 On ch=1 n=b4 v=68
134620 On ch=1 n=a#4 v=0
134622 On ch=1 n=b4 v=0
134646 On ch=1 n=d5 v=0
134702 On ch=1 n=f#4 v=88
134770 On ch=1 n=f#4 v=0
134802 On ch=1 n=f#5 v=106
134858 On ch=1 n=f#5 v=0
135038 On ch=1 n=b5 v=96
135044 On ch=1 n=g#4 v=106
135044 On ch=1 n=f#5 v=103
135070 On ch=1 n=d5 v=64
135072 Par ch=1 c=64 v=63
135080 Par ch=1 c=64 v=0
135134 Par ch=1 c=64 v=63
135150 Par ch=1 c=64 v=127
135196 On ch=1 n=b5 v=0
135244 On ch=1 n=g#4 v=0
135248 On ch=1 n=d5 v=0
135282 On ch=1 n=c#6 v=113
135286 On ch=1 n=f#5 v=0
135356 On ch=1 n=c#6 v=0
135494 On ch=1 n=d6 v=103
135502 On ch=1 n=a#5 v=112
135502 On ch=1 n=b5 v=93
135552 On ch=1 n=a#5 v=0
135570 On ch=1 n=b5 v=0
135584 On ch=1 n=d6 v=0
135606 On ch=1 n=f#5 v=104
135680 On ch=1 n=f#5 v=0
135720 On ch=1 n=f#6 v=113
135778 On ch=1 n=f#6 v=0
135958 On ch=1 n=g#5 v=116
135958 On ch=1 n=b6 v=100
135966 On ch=1 n=d6 v=96
135966 On ch=1 n=f#6 v=96
135968 Par ch=1 c=64 v=63
135968 Par ch=1 c=64 v=0
136030 Par ch=1 c=64 v=63
136046 Par ch=1 c=64 v=127
136076 On ch=1 n=d6 v=0
136086 On ch=1 n=b6 v=0
136110 On ch=1 n=f#6 v=0
136142 On ch=1 n=g#5 v=0
136190 On ch=1 n=c#7 v=114
136260 On ch=1 n=c#7 v=0
136432 On ch=1 n=d7 v=107
136436 On ch=1 n=b6 v=96
136442 On ch=1 n=a#6 v=93
136448 On ch=1 n=a#5 v=89
136468 On ch=1 n=a#6 v=0
136474 On ch=1 n=a#5 v=0
136506 On ch=1 n=b6 v=0
136516 On ch=1 n=d7 v=0
136562 On ch=1 n=f#6 v=87
136658 On ch=1 n=f#6 v=0
136692 On ch=1 n=g#5 v=99
136694 On ch=1 n=f#7 v=113
136758 On ch=1 n=f#7 v=0
136766 On ch=1 n=g#5 v=0
136970 Par ch=1 c=64 v=63
136978 Par ch=1 c=64 v=0
136994 On ch=1 n=g5 v=112
137004 On ch=1 n=d8 v=109
137026 Par ch=1 c=64 v=63
137042 Par ch=1 c=64 v=127
137092 On ch=1 n=g5 v=0
137130 On ch=1 n=b7 v=98
137144 On ch=1 n=d8 v=0
137236 On ch=1 n=g7 v=92
137246 On ch=1 n=b7 v=0
137306 On ch=1 n=g7 v=0
137308 On ch=1 n=b6 v=84
137314 On ch=1 n=d7 v=80
137322 On ch=1 n=g6 v=69
137322 On ch=1 n=d6 v=66
137346 On ch=1 n=b6 v=0
137358 On ch=1 n=g6 v=0
137360 On ch=1 n=d7 v=0
137400 On ch=1 n=d6 v=0
137428 On ch=1 n=b6 v=82
137482 On ch=1 n=g6 v=91
137500 On ch=1 n=b6 v=0
137542 On ch=1 n=g6 v=0
137550 On ch=1 n=d6 v=83
137616 On ch=1 n=d6 v=0
137618 On ch=1 n=g6 v=97
137670 On ch=1 n=b6 v=85
137682 On ch=1 n=g6 v=0
137700 On ch=1 n=b6 v=0
137764 On ch=1 n=b6 v=96
137766 On ch=1 n=g6 v=91
137768 On ch=1 n=d6 v=78
137778 On ch=1 n=d7 v=98
137804 On ch=1 n=g6 v=0
137808 On ch=1 n=b6 v=0
137832 On ch=1 n=d6 v=0
137834 On ch=1 n=d7 v=0
137842 On ch=1 n=g7 v=104
137914 On ch=1 n=b7 v=98
137934 On ch=1 n=g7 v=0
137992 On ch=1 n=b7 v=0
138066 On ch=1 n=c5 v=113
138086 On ch=1 n=d#8 v=101
138088 Par ch=1 c=64 v=63
138096 Par ch=1 c=64 v=0
138148 Par ch=1 c=64 v=63
138162 Par ch=1 c=64 v=127
138202 On ch=1 n=c5 v=0
138266 On ch=1 n=a#7 v=93
138314 On ch=1 n=d#8 v=0
138412 On ch=1 n=f#7 v=94
138428 On ch=1 n=f#5 v=79
138428 On ch=1 n=d#6 v=96
138434 On ch=1 n=a#5 v=74
138452 On ch=1 n=a#7 v=0
138518 On ch=1 n=f#7 v=0
138522 On ch=1 n=d#7 v=83
138574 On ch=1 n=d#6 v=0
138574 On ch=1 n=f#5 v=0
138578 On ch=1 n=a#5 v=0
138586 On ch=1 n=d#7 v=0
138640 On ch=1 n=f8 v=100
138722 On ch=1 n=f8 v=0
138740 On ch=1 n=a#7 v=89
138850 On ch=1 n=d#6 v=88
138852 On ch=1 n=a#7 v=0
138858 On ch=1 n=f#5 v=76
138880 On ch=1 n=f#7 v=62
138882 On ch=1 n=d#6 v=0
138902 On ch=1 n=f#5 v=0
138980 On ch=1 n=f#7 v=0
138984 On ch=1 n=f7 v=77
139114 On ch=1 n=f7 v=0
139138 On ch=1 n=g4 v=101
139186 On ch=1 n=d8 v=100
139206 Par ch=1 c=64 v=127
139302 On ch=1 n=g4 v=0
139340 On ch=1 n=b7 v=93
139352 On ch=1 n=d8 v=0
139452 On ch=1 n=g7 v=84
139462 On ch=1 n=b7 v=0
139516 On ch=1 n=g7 v=0
139524 On ch=1 n=d7 v=78
139528 On ch=1 n=b5 v=80
139534 On ch=1 n=g5 v=71
139536 On ch=1 n=d5 v=72
139584 On ch=1 n=d7 v=0
139630 On ch=1 n=b6 v=84
139642 On ch=1 n=b5 v=0
139704 On ch=1 n=b6 v=0
139706 On ch=1 n=g5 v=0
139706 On ch=1 n=g6 v=87
139754 On ch=1 n=g6 v=0
139762 On ch=1 n=d6 v=87
139808 On ch=1 n=d6 v=0
139820 On ch=1 n=d5 v=0
139866 On ch=1 n=b5 v=89
139910 On ch=1 n=g5 v=98
139930 On ch=1 n=b5 v=0
139974 On ch=1 n=g5 v=0
139984 On ch=1 n=d5 v=78
140052 On ch=1 n=g5 v=97
140056 On ch=1 n=d5 v=0
140122 On ch=1 n=b5 v=97
140144 On ch=1 n=g5 v=0
140184 On ch=1 n=b5 v=0
140226 On ch=1 n=c4 v=104
140254 On ch=1 n=d#6 v=91
140272 Par ch=1 c=64 v=63
140282 Par ch=1 c=64 v=0
140342 Par ch=1 c=64 v=63
140352 Par ch=1 c=64 v=127
140424 On ch=1 n=a#5 v=92
140474 On ch=1 n=d#6 v=0
140492 Par ch=1 c=67 v=127
140566 On ch=1 n=f#4 v=85
140570 On ch=1 n=a#4 v=89
140576 On ch=1 n=f4 v=91
140576 On ch=1 n=f#5 v=87
140604 On ch=1 n=c4 v=0
140620 On ch=1 n=a#5 v=0
140684 On ch=1 n=f#5 v=0
140684 On ch=1 n=d#5 v=89
140744 On ch=1 n=d#5 v=0
140810 On ch=1 n=f6 v=103
140902 On ch=1 n=f6 v=0
140908 On ch=1 n=a#5 v=99
141048 On ch=1 n=f#5 v=83
141054 On ch=1 n=a#5 v=0
141054 On ch=1 n=d#4 v=84
141062 On ch=1 n=a#4 v=0
141082 On ch=1 n=f#4 v=0
141086 On ch=1 n=f4 v=0
141114 On ch=1 n=d#4 v=0
141140 On ch=1 n=f#5 v=0
141150 On ch=1 n=f5 v=77
141320 On ch=1 n=f5 v=0
141332 Par ch=1 c=64 v=63
141334 On ch=1 n=g3 v=91
141342 Par ch=1 c=64 v=0
141344 On ch=1 n=d6 v=94
141390 Par ch=1 c=64 v=63
141406 Par ch=1 c=64 v=127
141448 On ch=1 n=g3 v=0
141484 On ch=1 n=d6 v=0
141486 On ch=1 n=b5 v=85
141608 On ch=1 n=b5 v=0
141612 On ch=1 n=g5 v=65
141658 On ch=1 n=b4 v=67
141660 On ch=1 n=g4 v=63
141666 On ch=1 n=d4 v=64
141674 On ch=1 n=g5 v=0
141684 On ch=1 n=d5 v=86
141704 On ch=1 n=b4 v=0
141712 On ch=1 n=g4 v=0
141736 On ch=1 n=d5 v=0
141754 On ch=1 n=d4 v=0
141804 On ch=1 n=b4 v=86
141880 On ch=1 n=b4 v=0
141884 On ch=1 n=g4 v=68
141960 On ch=1 n=g4 v=0
141976 On ch=1 n=d4 v=68
142036 On ch=1 n=d4 v=0
142042 On ch=1 n=g4 v=71
142138 On ch=1 n=b4 v=73
142154 On ch=1 n=g4 v=0
142256 On ch=1 n=d5 v=71
142290 On ch=1 n=b4 v=0
142340 On ch=1 n=d5 v=0
142426 On ch=1 n=a#4 v=63
142442 Par ch=1 c=64 v=63
142474 Par ch=1 c=64 v=127
142534 On ch=1 n=b4 v=73
142544 On ch=1 n=a#4 v=0
142594 On ch=1 n=b4 v=0
142602 On ch=1 n=c#5 v=80
142678 On ch=1 n=d5 v=81
142682 On ch=1 n=c#5 v=0
142742 On ch=1 n=d5 v=0
142784 On ch=1 n=f#5 v=89
142858 On ch=1 n=f#5 v=0
142870 On ch=1 n=g5 v=71
142922 On ch=1 n=g5 v=0
142932 On ch=1 n=a#5 v=86
143000 On ch=1 n=b5 v=69
143002 On ch=1 n=a#5 v=0
143042 On ch=1 n=b5 v=0
143064 On ch=1 n=c#6 v=89
143138 On ch=1 n=c#6 v=0
143144 On ch=1 n=d6 v=74
143204 On ch=1 n=d6 v=0
143240 On ch=1 n=f#6 v=83
143316 On ch=1 n=f#6 v=0
143316 On ch=1 n=g6 v=73
143380 On ch=1 n=g6 v=0
143400 On ch=1 n=a#6 v=73
143500 On ch=1 n=a#6 v=0
143518 On ch=1 n=b6 v=62
143600 On ch=1 n=b6 v=0
143692 On ch=1 n=c#7 v=60
143732 Par ch=1 c=64 v=63
143782 On ch=1 n=c#7 v=0
143802 On ch=1 n=d7 v=38
143914 Par ch=1 c=64 v=0
144080 On ch=1 n=d7 v=0
144172 On ch=1 n=c#5 v=65
144192 Par ch=1 c=64 v=63
144204 Par ch=1 c=64 v=127
144272 On ch=1 n=d7 v=78
144502 On ch=1 n=d7 v=0
144536 On ch=1 n=g6 v=59
144606 On ch=1 n=f5 v=39
144642 On ch=1 n=f6 v=48
144684 On ch=1 n=g6 v=0
144722 On ch=1 n=d6 v=67
144734 On ch=1 n=f6 v=0
144770 On ch=1 n=d6 v=0
144822 On ch=1 n=c#7 v=95
144948 On ch=1 n=g6 v=22
144968 On ch=1 n=c#7 v=0
144996 On ch=1 n=b5 v=78
145002 On ch=1 n=f6 v=67
145040 On ch=1 n=f5 v=0
145050 On ch=1 n=c#5 v=0
145062 On ch=1 n=g6 v=0
145100 On ch=1 n=d6 v=68
145114 On ch=1 n=f6 v=0
145192 On ch=1 n=d6 v=0
145232 On ch=1 n=g6 v=98
145236 On ch=1 n=b5 v=0
145248 On ch=1 n=c#6 v=85
145280 On ch=1 n=c#6 v=0
145334 On ch=1 n=f6 v=84
145366 On ch=1 n=g6 v=0
145430 On ch=1 n=b5 v=92
145432 On ch=1 n=f6 v=0
145514 On ch=1 n=g5 v=81
145520 On ch=1 n=b5 v=0
145578 On ch=1 n=g5 v=0
145628 On ch=1 n=f5 v=101
145636 On ch=1 n=g#6 v=105
145692 On ch=1 n=f5 v=0
145706 On ch=1 n=f6 v=75
145770 On ch=1 n=g#6 v=0
145812 On ch=1 n=b5 v=79
145844 On ch=1 n=f6 v=0
145890 On ch=1 n=g#5 v=93
145914 On ch=1 n=b5 v=0
145952 On ch=1 n=g#5 v=0
146006 On ch=1 n=c#5 v=96
146044 On ch=1 n=b6 v=92
146070 Par ch=1 c=64 v=63
146080 Par ch=1 c=64 v=0
146120 Par ch=1 c=64 v=63
146138 Par ch=1 c=64 v=127
146156 On ch=1 n=g6 v=84
146168 On ch=1 n=b6 v=0
146250 On ch=1 n=e6 v=57
146252 On ch=1 n=g6 v=0
146282 On ch=1 n=c#5 v=0
146288 On ch=1 n=e5 v=71
146298 On ch=1 n=e6 v=0
146312 On ch=1 n=b5 v=76
146390 On ch=1 n=b5 v=0
146404 On ch=1 n=d#6 v=92
146470 On ch=1 n=d#6 v=0
146484 On ch=1 n=g5 v=75
146500 On ch=1 n=e6 v=91
146522 On ch=1 n=e5 v=0
146588 On ch=1 n=f6 v=99
146600 On ch=1 n=e6 v=0
146600 On ch=1 n=g5 v=0
146602 On ch=1 n=b5 v=87
146654 On ch=1 n=f#6 v=106
146672 On ch=1 n=f6 v=0
146676 On ch=1 n=b5 v=0
146744 On ch=1 n=g6 v=94
146754 On ch=1 n=f#6 v=0
146768 On ch=1 n=e6 v=107
146844 On ch=1 n=g6 v=0
146844 On ch=1 n=g#6 v=107
146882 On ch=1 n=e6 v=0
146914 On ch=1 n=g#6 v=0
146938 On ch=1 n=a6 v=93
147018 On ch=1 n=a#6 v=107
147024 On ch=1 n=a6 v=0
147092 On ch=1 n=a#6 v=0
147120 On ch=1 n=b6 v=89
147122 On ch=1 n=b5 v=76
147166 On ch=1 n=b5 v=0
147190 On ch=1 n=b6 v=0
147204 On ch=1 n=e7 v=68
147290 On ch=1 n=d#7 v=89
147336 On ch=1 n=e7 v=0
147356 On ch=1 n=d7 v=85
147412 On ch=1 n=d#7 v=0
147426 On ch=1 n=d7 v=0
147486 On ch=1 n=c#5 v=72
147558 On ch=1 n=d7 v=108
147584 Par ch=1 c=64 v=63
147638 Par ch=1 c=64 v=127
147708 On ch=1 n=d7 v=0
147730 On ch=1 n=g6 v=63
147810 On ch=1 n=f6 v=72
147816 On ch=1 n=g6 v=0
147850 On ch=1 n=f5 v=53
147884 On ch=1 n=d6 v=51
147890 On ch=1 n=f6 v=0
147948 On ch=1 n=d6 v=0
147974 On ch=1 n=c#7 v=105
148076 On ch=1 n=g6 v=47
148114 On ch=1 n=c#5 v=0
148116 On ch=1 n=c#7 v=0
148138 On ch=1 n=f6 v=68
148148 On ch=1 n=f5 v=0
148154 On ch=1 n=b5 v=71
148180 On ch=1 n=g6 v=0
148208 On ch=1 n=d6 v=74
148230 On ch=1 n=f6 v=0
148288 On ch=1 n=d6 v=0
148314 On ch=1 n=b5 v=0
148338 On ch=1 n=c#6 v=93
148344 On ch=1 n=g6 v=107
148382 On ch=1 n=c#6 v=0
148458 On ch=1 n=f6 v=68
148476 On ch=1 n=g6 v=0
148524 On ch=1 n=b5 v=96
148546 On ch=1 n=f6 v=0
148608 On ch=1 n=g5 v=87
148644 On ch=1 n=b5 v=0
148672 On ch=1 n=g5 v=0
148694 On ch=1 n=f5 v=84
148722 On ch=1 n=g#6 v=104
148736 Par ch=1 c=67 v=127
148760 On ch=1 n=f5 v=0
148804 On ch=1 n=f6 v=74
148858 On ch=1 n=g#6 v=0
148900 On ch=1 n=b5 v=71
148944 On ch=1 n=f6 v=0
148972 On ch=1 n=g#5 v=88
148994 On ch=1 n=b5 v=0
149044 On ch=1 n=g#5 v=0
149094 On ch=1 n=c#5 v=88
149114 Par ch=1 c=64 v=63
149124 Par ch=1 c=64 v=0
149126 On ch=1 n=b6 v=85
149176 Par ch=1 c=64 v=63
149198 Par ch=1 c=64 v=127
149226 On ch=1 n=g6 v=84
149236 On ch=1 n=b6 v=0
149306 On ch=1 n=e6 v=73
149322 On ch=1 n=g6 v=0
149326 On ch=1 n=c#5 v=0
149358 On ch=1 n=e6 v=0
149364 On ch=1 n=b5 v=68
149370 On ch=1 n=e5 v=70
149444 On ch=1 n=b5 v=0
149460 On ch=1 n=d#6 v=92
149518 On ch=1 n=g5 v=77
149536 On ch=1 n=d#6 v=0
149562 On ch=1 n=e6 v=85
149580 On ch=1 n=e5 v=0
149648 On ch=1 n=b5 v=96
149654 On ch=1 n=g5 v=0
149654 On ch=1 n=f6 v=99
149672 On ch=1 n=e6 v=0
149722 On ch=1 n=f#6 v=108
149728 On ch=1 n=b5 v=0
149742 On ch=1 n=f6 v=0
149818 On ch=1 n=f#6 v=0
149822 On ch=1 n=g6 v=101
149830 On ch=1 n=e6 v=106
149920 On ch=1 n=g#6 v=107
149922 On ch=1 n=g6 v=0
149938 On ch=1 n=e6 v=0
149992 On ch=1 n=g#6 v=0
150016 On ch=1 n=a6 v=87
150092 On ch=1 n=a#6 v=109
150100 On ch=1 n=a6 v=0
150166 On ch=1 n=a#6 v=0
150202 On ch=1 n=b6 v=101
150214 On ch=1 n=b5 v=100
150278 On ch=1 n=b5 v=0
150280 On ch=1 n=e7 v=93
150296 On ch=1 n=b6 v=0
150388 On ch=1 n=d#7 v=95
150436 On ch=1 n=e7 v=0
150452 On ch=1 n=d7 v=98
150544 On ch=1 n=d7 v=0
150558 On ch=1 n=d#7 v=0
150664 On ch=1 n=c#4 v=94
150706 On ch=1 n=d7 v=111
150740 Par ch=1 c=64 v=63
150742 Par ch=1 c=64 v=127
150854 On ch=1 n=d7 v=0
150862 On ch=1 n=b6 v=73
150958 On ch=1 n=c#4 v=0
150976 On ch=1 n=b6 v=0
150986 On ch=1 n=f6 v=63
151054 On ch=1 n=f6 v=0
151074 On ch=1 n=d6 v=84
151164 On ch=1 n=d6 v=0
151200 On ch=1 n=c#7 v=106
151302 On ch=1 n=b6 v=74
151340 On ch=1 n=c#7 v=0
151414 On ch=1 n=c#5 v=81
151414 On ch=1 n=b5 v=71
151420 On ch=1 n=f5 v=72
151440 On ch=1 n=f6 v=71
151480 On ch=1 n=b6 v=0
151518 On ch=1 n=c#6 v=89
151526 On ch=1 n=b5 v=0
151536 On ch=1 n=f6 v=0
151562 On ch=1 n=c#6 v=0
151572 On ch=1 n=f5 v=0
151592 On ch=1 n=c#5 v=0
151626 On ch=1 n=b5 v=74
151634 On ch=1 n=e7 v=109
151636 On ch=1 n=e5 v=71
151642 On ch=1 n=f5 v=59
151730 On ch=1 n=e7 v=0
151730 On ch=1 n=b5 v=0
151736 On ch=1 n=f5 v=0
151742 On ch=1 n=e5 v=0
151756 On ch=1 n=b6 v=62
151758 On ch=1 n=c7 v=29
151798 On ch=1 n=c7 v=0
151820 On ch=1 n=b6 v=0
151830 On ch=1 n=f6 v=92
151892 On ch=1 n=f6 v=0
151908 On ch=1 n=e6 v=87
151988 On ch=1 n=e6 v=0
152030 On ch=1 n=d7 v=116
152036 On ch=1 n=b5 v=82
152044 On ch=1 n=f5 v=72
152058 On ch=1 n=d5 v=71
152084 On ch=1 n=b5 v=0
152090 On ch=1 n=f5 v=0
152122 On ch=1 n=b6 v=87
152126 On ch=1 n=d5 v=0
152136 On ch=1 n=d7 v=0
152224 On ch=1 n=f6 v=88
152234 On ch=1 n=b6 v=0
152298 On ch=1 n=d6 v=70
152300 On ch=1 n=f6 v=0
152362 On ch=1 n=d6 v=0
152414 On ch=1 n=c#4 v=107
152414 Par ch=1 c=64 v=63
152422 On ch=1 n=d7 v=121
152428 Par ch=1 c=64 v=0
152466 Par ch=1 c=64 v=63
152484 Par ch=1 c=64 v=127
152506 On ch=1 n=c#4 v=0
152518 On ch=1 n=b6 v=91
152550 On ch=1 n=d7 v=0
152614 On ch=1 n=f6 v=71
152622 On ch=1 n=b6 v=0
152672 On ch=1 n=d6 v=85
152676 On ch=1 n=f6 v=0
152766 On ch=1 n=d6 v=0
152784 On ch=1 n=c#5 v=95
152786 On ch=1 n=b5 v=93
152794 On ch=1 n=c#7 v=113
152796 On ch=1 n=f5 v=90
152868 On ch=1 n=b6 v=74
152942 On ch=1 n=b5 v=0
152944 On ch=1 n=f5 v=0
152952 On ch=1 n=c#7 v=0
152978 On ch=1 n=c#5 v=0
152990 On ch=1 n=f6 v=79
153060 On ch=1 n=c#6 v=91
153072 On ch=1 n=b6 v=0
153102 On ch=1 n=f6 v=0
153114 On ch=1 n=c#6 v=0
153148 On ch=1 n=d5 v=101
153154 On ch=1 n=f5 v=104
153154 On ch=1 n=b5 v=108
153156 On ch=1 n=d7 v=108
153166 Par ch=1 c=64 v=63
153174 Par ch=1 c=64 v=0
153210 Par ch=1 c=64 v=63
153226 Par ch=1 c=64 v=127
153252 On ch=1 n=b6 v=93
153282 On ch=1 n=d7 v=0
153338 On ch=1 n=b5 v=0
153344 On ch=1 n=f5 v=0
153346 On ch=1 n=f6 v=94
153382 On ch=1 n=d5 v=0
153386 On ch=1 n=b6 v=0
153408 On ch=1 n=d6 v=85
153430 On ch=1 n=f6 v=0
153488 On ch=1 n=d6 v=0
153520 Par ch=1 c=67 v=127
153550 On ch=1 n=e7 v=114
153554 On ch=1 n=e5 v=101
153554 On ch=1 n=f5 v=101
153560 On ch=1 n=b5 v=106
153630 Par ch=1 c=67 v=127
153646 On ch=1 n=e7 v=0
153654 On ch=1 n=b5 v=0
153672 On ch=1 n=f5 v=0
153684 On ch=1 n=e5 v=0
153684 On ch=1 n=b6 v=66
153686 On ch=1 n=c7 v=60
153732 On ch=1 n=c7 v=0
153758 On ch=1 n=b6 v=0
153790 On ch=1 n=f6 v=97
153864 On ch=1 n=f6 v=0
153890 On ch=1 n=e6 v=91
153966 On ch=1 n=e6 v=0
154066 On ch=1 n=f#4 v=99
154122 On ch=1 n=g7 v=111
154170 Par ch=1 c=64 v=63
154170 Par ch=1 c=64 v=127
154300 On ch=1 n=g7 v=0
154326 On ch=1 n=c7 v=67
154410 On ch=1 n=c#5 v=64
154426 On ch=1 n=a#6 v=89
154450 On ch=1 n=c7 v=0
154522 On ch=1 n=g6 v=85
154542 On ch=1 n=f#4 v=0
154554 On ch=1 n=a#6 v=0
154626 On ch=1 n=g6 v=0
154626 On ch=1 n=f#7 v=98
154634 On ch=1 n=c#5 v=0
154638 On ch=1 n=e5 v=84
154730 On ch=1 n=c7 v=77
154746 On ch=1 n=e5 v=0
154770 On ch=1 n=f#7 v=0
154806 On ch=1 n=a#5 v=105
154830 On ch=1 n=a#6 v=95
154868 On ch=1 n=c7 v=0
154892 On ch=1 n=g6 v=82
154918 On ch=1 n=a#6 v=0
154962 On ch=1 n=g6 v=0
154964 On ch=1 n=a#5 v=0
154996 On ch=1 n=e6 v=101
155006 On ch=1 n=c7 v=106
155080 On ch=1 n=a#6 v=104
155092 On ch=1 n=e6 v=0
155114 On ch=1 n=c7 v=0
155184 On ch=1 n=e6 v=91
155234 On ch=1 n=a#6 v=0
155260 On ch=1 n=c6 v=99
155314 On ch=1 n=e6 v=0
155328 On ch=1 n=c6 v=0
155368 On ch=1 n=a#5 v=116
155376 On ch=1 n=c#7 v=112
155426 On ch=1 n=a#5 v=0
155450 On ch=1 n=a#6 v=91
155512 On ch=1 n=c#7 v=0
155562 On ch=1 n=e6 v=82
155624 On ch=1 n=a#6 v=0
155636 On ch=1 n=c#6 v=97
155656 On ch=1 n=e6 v=0
155704 On ch=1 n=c#6 v=0
155750 Par ch=1 c=64 v=63
155762 Par ch=1 c=64 v=0
155814 Par ch=1 c=64 v=63
155830 Par ch=1 c=64 v=127
155836 On ch=1 n=f#4 v=93
155856 On ch=1 n=e7 v=97
156034 On ch=1 n=e7 v=0
156034 On ch=1 n=c7 v=85
156068 On ch=1 n=f#4 v=0
156108 On ch=1 n=c5 v=67
156158 On ch=1 n=a6 v=83
156162 On ch=1 n=c7 v=0
156232 On ch=1 n=a6 v=0
156242 On ch=1 n=e6 v=81
156328 On ch=1 n=e5 v=63
156336 On ch=1 n=e6 v=0
156350 On ch=1 n=c5 v=0
156366 On ch=1 n=g#6 v=90
156432 On ch=1 n=g#6 v=0
156454 On ch=1 n=e5 v=0
156464 On ch=1 n=a6 v=83
156496 On ch=1 n=a5 v=62
156560 On ch=1 n=a6 v=0
156562 On ch=1 n=a#6 v=96
156588 On ch=1 n=a5 v=0
156632 On ch=1 n=a#6 v=0
156648 On ch=1 n=b6 v=90
156654 On ch=1 n=c6 v=73
156738 On ch=1 n=c7 v=102
156750 On ch=1 n=e6 v=85
156756 On ch=1 n=b6 v=0
156760 On ch=1 n=c6 v=0
156818 On ch=1 n=c#7 v=109
156834 On ch=1 n=c7 v=0
156864 On ch=1 n=e6 v=0
156876 On ch=1 n=a6 v=91
156908 On ch=1 n=d7 v=106
156920 On ch=1 n=c#7 v=0
157006 On ch=1 n=e6 v=104
157014 On ch=1 n=d#7 v=113
157018 On ch=1 n=d7 v=0
157024 On ch=1 n=a6 v=0
157094 On ch=1 n=d#7 v=0
157110 On ch=1 n=e7 v=108
157120 Par ch=1 c=67 v=0
157170 On ch=1 n=c6 v=99
157196 On ch=1 n=e7 v=0
157206 On ch=1 n=e6 v=0
157226 On ch=1 n=a7 v=92
157244 On ch=1 n=c6 v=0
157322 On ch=1 n=g#7 v=95
157336 On ch=1 n=a5 v=66
157370 On ch=1 n=a7 v=0
157414 On ch=1 n=g7 v=104
157468 On ch=1 n=e5 v=89
157472 On ch=1 n=g#7 v=0
157486 On ch=1 n=a5 v=0
157526 On ch=1 n=g7 v=0
157544 On ch=1 n=e5 v=0
157628 Par ch=1 c=64 v=63
157628 Par ch=1 c=64 v=0
157642 On ch=1 n=g7 v=116
157660 On ch=1 n=f#4 v=103
157676 Par ch=1 c=64 v=63
157686 Par ch=1 c=64 v=127
157764 On ch=1 n=e7 v=97
157766 On ch=1 n=f#4 v=0
157780 On ch=1 n=g7 v=0
157872 On ch=1 n=a#6 v=106
157886 On ch=1 n=e7 v=0
157952 On ch=1 n=g6 v=85
157980 On ch=1 n=a#6 v=0
158028 On ch=1 n=g6 v=0
158072 On ch=1 n=f#7 v=105
158146 On ch=1 n=e7 v=84
158198 On ch=1 n=f#7 v=0
158254 On ch=1 n=f#5 v=94
158254 On ch=1 n=a#5 v=85
158258 On ch=1 n=e6 v=80
158258 On ch=1 n=a#6 v=101
158304 On ch=1 n=e7 v=0
158338 On ch=1 n=f#6 v=95
158378 On ch=1 n=a#6 v=0
158380 On ch=1 n=e6 v=0
158396 On ch=1 n=a#5 v=0
158402 On ch=1 n=f#6 v=0
158424 On ch=1 n=f#5 v=0
158482 On ch=1 n=a5 v=87
158484 On ch=1 n=a#5 v=88
158486 On ch=1 n=e6 v=90
158490 On ch=1 n=a7 v=94
158600 On ch=1 n=e7 v=72
158622 On ch=1 n=e6 v=0
158624 On ch=1 n=a#5 v=0
158626 On ch=1 n=a5 v=0
158640 On ch=1 n=a7 v=0
158702 On ch=1 n=a#6 v=98
158734 On ch=1 n=e7 v=0
158796 On ch=1 n=a#6 v=0
158806 On ch=1 n=a6 v=75
158892 On ch=1 n=e6 v=100
158896 On ch=1 n=a#5 v=95
158898 On ch=1 n=g5 v=86
158900 On ch=1 n=a6 v=0
158906 On ch=1 n=g7 v=109
158948 On ch=1 n=e6 v=0
158962 On ch=1 n=a#5 v=0
158982 On ch=1 n=g5 v=0
158996 On ch=1 n=e7 v=101
159026 On ch=1 n=g7 v=0
159092 On ch=1 n=a#6 v=101
159146 On ch=1 n=e7 v=0
159158 On ch=1 n=g6 v=92
159208 Par ch=1 c=64 v=63
159216 On ch=1 n=a#6 v=0
159218 Par ch=1 c=64 v=0
159236 On ch=1 n=g6 v=0
159264 On ch=1 n=f#4 v=124
159272 On ch=1 n=g7 v=116
159278 Par ch=1 c=64 v=63
159290 Par ch=1 c=64 v=127
159340 On ch=1 n=f#4 v=0
159358 On ch=1 n=e7 v=94
159394 On ch=1 n=g7 v=0
159460 On ch=1 n=a#6 v=99
159492 On ch=1 n=e7 v=0
159534 On ch=1 n=g6 v=83
159560 On ch=1 n=a#6 v=0
159610 On ch=1 n=g6 v=0
159650 On ch=1 n=f#7 v=109
159654 On ch=1 n=f#5 v=110
159654 On ch=1 n=e6 v=109
159654 On ch=1 n=a#5 v=112
159736 On ch=1 n=e7 v=77
159784 On ch=1 n=f#7 v=0
159808 On ch=1 n=e6 v=0
159810 On ch=1 n=a#5 v=0
159836 On ch=1 n=a#6 v=93
159848 On ch=1 n=f#5 v=0
159896 On ch=1 n=f#6 v=97
159924 On ch=1 n=e7 v=0
159958 On ch=1 n=a#6 v=0
159968 On ch=1 n=f#6 v=0
160010 On ch=1 n=g7 v=107
160016 On ch=1 n=g5 v=104
160018 On ch=1 n=a#5 v=115
160020 On ch=1 n=e6 v=117
160092 On ch=1 n=e7 v=94
160116 On ch=1 n=g7 v=0
160182 On ch=1 n=a#6 v=99
160196 On ch=1 n=e6 v=0
160210 On ch=1 n=a#5 v=0
160242 On ch=1 n=g5 v=0
160254 On ch=1 n=e7 v=0
160254 On ch=1 n=g6 v=89
160292 On ch=1 n=a#6 v=0
160324 On ch=1 n=g6 v=0
160372 On ch=1 n=a5 v=34
160402 On ch=1 n=a#5 v=101
160406 On ch=1 n=a7 v=113
160408 On ch=1 n=e6 v=114
160504 On ch=1 n=e7 v=74
160506 On ch=1 n=e6 v=0
160546 On ch=1 n=a#5 v=0
160552 On ch=1 n=a5 v=0
160570 On ch=1 n=a7 v=0
160614 On ch=1 n=a#6 v=97
160690 On ch=1 n=e7 v=0
160720 On ch=1 n=a#6 v=0
160730 On ch=1 n=a6 v=88
160810 On ch=1 n=a6 v=0
160872 On ch=1 n=g4 v=116
160890 On ch=1 n=c8 v=106
160952 Par ch=1 c=64 v=127
160992 Par ch=1 c=64 v=63
161002 Par ch=1 c=64 v=0
161098 Par ch=1 c=64 v=63
161112 On ch=1 n=f7 v=84
161124 Par ch=1 c=64 v=127
161126 On ch=1 n=c#5 v=93
161178 On ch=1 n=c8 v=0
161248 On ch=1 n=c#7 v=90
161308 On ch=1 n=f7 v=0
161360 On ch=1 n=c#7 v=0
161360 On ch=1 n=c7 v=92
161398 On ch=1 n=g4 v=0
161456 On ch=1 n=f5 v=90
161464 On ch=1 n=c#5 v=0
161464 On ch=1 n=a#7 v=108
161482 On ch=1 n=c7 v=0
161582 On ch=1 n=f7 v=86
161618 On ch=1 n=a#7 v=0
161676 On ch=1 n=a#5 v=106
161698 On ch=1 n=c#7 v=95
161700 On ch=1 n=f5 v=0
161716 On ch=1 n=f7 v=0
161728 On ch=1 n=a#5 v=0
161758 On ch=1 n=c#7 v=0
161778 On ch=1 n=a#6 v=91
161834 On ch=1 n=a#6 v=0
161882 Par ch=1 c=64 v=63
161890 Par ch=1 c=64 v=0
161900 On ch=1 n=d#7 v=95
161902 On ch=1 n=a#4 v=81
161936 Par ch=1 c=64 v=63
161946 Par ch=1 c=64 v=127
162010 On ch=1 n=d#7 v=0
162010 On ch=1 n=c#7 v=91
162028 On ch=1 n=a#4 v=0
162112 On ch=1 n=g#6 v=85
162122 On ch=1 n=c#7 v=0
162194 On ch=1 n=g#6 v=0
162194 On ch=1 n=d#6 v=88
162248 On ch=1 n=d#6 v=0
162276 On ch=1 n=c#6 v=104
162278 On ch=1 n=g#5 v=91
162280 On ch=1 n=e5 v=77
162280 On ch=1 n=e7 v=111
162338 On ch=1 n=g#5 v=0
162342 On ch=1 n=c#6 v=0
162354 On ch=1 n=e5 v=0
162372 On ch=1 n=c#7 v=103
162384 On ch=1 n=e7 v=0
162460 On ch=1 n=g#6 v=88
162502 On ch=1 n=c#7 v=0
162530 On ch=1 n=e6 v=92
162554 On ch=1 n=g#6 v=0
162584 Par ch=1 c=64 v=63
162592 Par ch=1 c=64 v=0
162596 On ch=1 n=e6 v=0
162628 Par ch=1 c=64 v=63
162640 On ch=1 n=c#5 v=108
162646 Par ch=1 c=64 v=127
162652 On ch=1 n=g7 v=112
162732 On ch=1 n=c#5 v=0
162740 On ch=1 n=g7 v=0
162750 On ch=1 n=e7 v=74
162834 On ch=1 n=e7 v=0
162838 On ch=1 n=c7 v=84
162860 On ch=1 n=g5 v=70
162914 On ch=1 n=c7 v=0
162946 On ch=1 n=g6 v=71
163000 On ch=1 n=b5 v=83
163032 On ch=1 n=g5 v=0
163056 On ch=1 n=g6 v=0
163058 On ch=1 n=g#6 v=100
163136 On ch=1 n=g#6 v=0
163150 On ch=1 n=a6 v=97
163188 On ch=1 n=b5 v=0
163194 On ch=1 n=e6 v=92
163244 On ch=1 n=a#6 v=101
163252 On ch=1 n=a6 v=0
163256 On ch=1 n=e6 v=0
163322 On ch=1 n=a#6 v=0
163338 On ch=1 n=b6 v=90
163396 On ch=1 n=g5 v=102
163402 On ch=1 n=b5 v=90
163410 On ch=1 n=c#5 v=88
163422 On ch=1 n=c7 v=106
163438 On ch=1 n=b5 v=0
163446 On ch=1 n=b6 v=0
163452 On ch=1 n=g5 v=0
163478 On ch=1 n=c#5 v=0
163504 On ch=1 n=c#7 v=105
163506 On ch=1 n=c7 v=0
163586 On ch=1 n=d7 v=94
163604 On ch=1 n=c#7 v=0
163680 On ch=1 n=d#7 v=110
163682 On ch=1 n=d7 v=0
163762 On ch=1 n=d#7 v=0
163780 On ch=1 n=g#5 v=110
163784 On ch=1 n=e7 v=102
163784 On ch=1 n=e5 v=97
163786 On ch=1 n=a#4 v=98
163846 On ch=1 n=e5 v=0
163848 On ch=1 n=g#5 v=0
163872 On ch=1 n=f7 v=106
163884 On ch=1 n=a#4 v=0
163888 On ch=1 n=e7 v=0
163952 On ch=1 n=f#7 v=112
163976 On ch=1 n=f7 v=0
164036 On ch=1 n=g7 v=111
164042 On ch=1 n=f#7 v=0
164152 On ch=1 n=g4 v=121
164166 On ch=1 n=c8 v=107
164188 Par ch=1 c=64 v=63
164190 On ch=1 n=g7 v=0
164196 On ch=1 n=b7 v=34
164202 Par ch=1 c=64 v=0
164202 Par ch=1 c=64 v=63
164202 Par ch=1 c=64 v=127
164312 On ch=1 n=f7 v=72
164324 On ch=1 n=b7 v=0
164324 On ch=1 n=c8 v=0
164330 On ch=1 n=c#5 v=91
164446 On ch=1 n=c#7 v=101
164448 On ch=1 n=g4 v=0
164456 On ch=1 n=f7 v=0
164494 On ch=1 n=f5 v=98
164496 On ch=1 n=c#5 v=0
164540 On ch=1 n=c7 v=6
164546 On ch=1 n=c#7 v=0
164562 On ch=1 n=f5 v=0
164638 On ch=1 n=g5 v=104
164648 On ch=1 n=a#7 v=110
164692 On ch=1 n=c7 v=0
164756 On ch=1 n=f7 v=82
164782 On ch=1 n=c#6 v=98
164816 On ch=1 n=a#7 v=0
164844 On ch=1 n=c#7 v=105
164852 On ch=1 n=g5 v=0
164896 On ch=1 n=f7 v=0
164904 On ch=1 n=f6 v=96
164914 On ch=1 n=c#6 v=0
164916 On ch=1 n=a#6 v=105
164954 On ch=1 n=c#7 v=0
164978 On ch=1 n=a#6 v=0
164988 On ch=1 n=f6 v=0
165018 On ch=1 n=a#5 v=113
165032 On ch=1 n=c#8 v=116
165144 On ch=1 n=g#7 v=99
165162 On ch=1 n=c#8 v=0
165188 On ch=1 n=e6 v=90
165220 On ch=1 n=e7 v=81
165292 On ch=1 n=g#7 v=0
165304 On ch=1 n=c#7 v=104
165348 On ch=1 n=e7 v=0
165364 On ch=1 n=g#6 v=108
165370 On ch=1 n=c#7 v=0
165394 On ch=1 n=c8 v=104
165408 On ch=1 n=e6 v=0
165430 On ch=1 n=a#5 v=0
165462 On ch=1 n=g#6 v=0
165488 On ch=1 n=g#7 v=104
165512 On ch=1 n=c8 v=0
165570 On ch=1 n=d#7 v=76
165590 On ch=1 n=e7 v=63
165600 On ch=1 n=d#7 v=0
165650 On ch=1 n=c7 v=91
165698 On ch=1 n=e7 v=0
165720 On ch=1 n=c7 v=0
165726 On ch=1 n=g#7 v=0
165742 On ch=1 n=g5 v=108
165754 On ch=1 n=c8 v=111
165758 Par ch=1 c=64 v=63
165794 Par ch=1 c=64 v=127
165838 On ch=1 n=f7 v=79
165876 On ch=1 n=c8 v=0
165910 On ch=1 n=c#6 v=89
165924 On ch=1 n=c#7 v=88
165962 On ch=1 n=f7 v=0
165998 On ch=1 n=c7 v=101
166014 On ch=1 n=c#7 v=0
166076 On ch=1 n=a#7 v=105
166104 On ch=1 n=c7 v=0
166170 On ch=1 n=f7 v=88
166188 On ch=1 n=g5 v=0
166200 On ch=1 n=f6 v=93
166232 On ch=1 n=a#7 v=0
166240 On ch=1 n=c#6 v=0
166252 On ch=1 n=c#7 v=109
166318 On ch=1 n=f7 v=0
166320 On ch=1 n=f6 v=0
166328 On ch=1 n=a#6 v=108
166370 On ch=1 n=c#7 v=0
166390 On ch=1 n=a#6 v=0
166436 On ch=1 n=a#5 v=112
166442 On ch=1 n=c8 v=107
166452 Par ch=1 c=64 v=63
166494 Par ch=1 c=64 v=127
166524 On ch=1 n=f#7 v=9
166554 On ch=1 n=f7 v=80
166584 On ch=1 n=c8 v=0
166596 On ch=1 n=f#7 v=0
166608 On ch=1 n=e6 v=86
166638 On ch=1 n=c#7 v=92
166672 On ch=1 n=f7 v=0
166700 On ch=1 n=c7 v=65
166714 On ch=1 n=c#7 v=0
166768 On ch=1 n=g#6 v=91
166792 On ch=1 n=c7 v=0
166824 On ch=1 n=c#8 v=116
166832 On ch=1 n=e6 v=0
166866 On ch=1 n=a#5 v=0
166906 On ch=1 n=g#6 v=0
166922 On ch=1 n=g#7 v=101
166986 On ch=1 n=c#8 v=0
167020 On ch=1 n=a#6 v=115
167030 On ch=1 n=e7 v=89
167076 On ch=1 n=a#6 v=0
167146 On ch=1 n=g#7 v=0
167154 On ch=1 n=c#7 v=107
167192 On ch=1 n=e7 v=0
167236 On ch=1 n=d8 v=111
167236 On ch=1 n=a5 v=118
167242 On ch=1 n=c#7 v=0
167266 Par ch=1 c=64 v=127
167344 On ch=1 n=d8 v=0
167376 On ch=1 n=g7 v=99
167478 On ch=1 n=g7 v=0
167480 On ch=1 n=d#7 v=108
167546 On ch=1 n=d#6 v=86
167570 On ch=1 n=d7 v=102
167598 On ch=1 n=d#7 v=0
167640 On ch=1 n=d7 v=0
167660 On ch=1 n=c8 v=113
167742 On ch=1 n=g7 v=106
167748 On ch=1 n=c8 v=0
167832 On ch=1 n=d#7 v=114
167836 On ch=1 n=a5 v=0
167864 On ch=1 n=g7 v=0
167866 On ch=1 n=g6 v=99
167890 On ch=1 n=d#6 v=0
167930 On ch=1 n=c7 v=101
167958 On ch=1 n=d#7 v=0
167986 On ch=1 n=g6 v=0
167992 On ch=1 n=c7 v=0
168058 On ch=1 n=c6 v=111
168062 On ch=1 n=d#8 v=113
168074 Par ch=1 c=64 v=63
168084 Par ch=1 c=64 v=0
168108 Par ch=1 c=64 v=63
168128 Par ch=1 c=64 v=127
168170 On ch=1 n=a#7 v=103
168184 On ch=1 n=d#8 v=0
168272 On ch=1 n=f#7 v=105
168282 On ch=1 n=f#6 v=91
168286 On ch=1 n=a#7 v=0
168302 On ch=1 n=c6 v=0
168350 On ch=1 n=d#7 v=104
168356 On ch=1 n=f#7 v=0
168406 On ch=1 n=d#7 v=0
168454 On ch=1 n=d8 v=108
168454 On ch=1 n=a#6 v=94
168488 On ch=1 n=f#6 v=0
168526 On ch=1 n=a#7 v=105
168548 On ch=1 n=a#6 v=0
168548 On ch=1 n=d8 v=0
168624 On ch=1 n=f#7 v=106
168630 On ch=1 n=d#7 v=97
168662 On ch=1 n=a#7 v=0
168676 On ch=1 n=d#7 v=0
168710 On ch=1 n=d7 v=98
168716 On ch=1 n=f#7 v=0
168774 On ch=1 n=d7 v=0
168802 Par ch=1 c=64 v=63
168808 Par ch=1 c=64 v=0
168824 On ch=1 n=a5 v=98
168834 On ch=1 n=d8 v=113
168846 Par ch=1 c=64 v=63
168858 Par ch=1 c=64 v=127
168928 On ch=1 n=d8 v=0
168964 On ch=1 n=g7 v=68
168970 On ch=1 n=a7 v=59
169000 On ch=1 n=a7 v=0
169072 On ch=1 n=g7 v=0
169080 On ch=1 n=d#7 v=110
169088 On ch=1 n=d#6 v=88
169168 On ch=1 n=d7 v=103
169196 On ch=1 n=d#7 v=0
169230 On ch=1 n=d7 v=0
169254 On ch=1 n=c8 v=112
169336 On ch=1 n=g7 v=103
169340 On ch=1 n=c8 v=0
169352 On ch=1 n=d#6 v=0
169422 On ch=1 n=a5 v=0
169428 On ch=1 n=d#7 v=114
169438 On ch=1 n=g6 v=75
169466 On ch=1 n=g7 v=0
169504 On ch=1 n=g6 v=0
169516 On ch=1 n=c7 v=103
169546 On ch=1 n=d#7 v=0
169576 On ch=1 n=c7 v=0
169616 On ch=1 n=c6 v=98
169616 On ch=1 n=d8 v=117
169620 Par ch=1 c=64 v=63
169626 Par ch=1 c=64 v=0
169660 Par ch=1 c=64 v=63
169672 Par ch=1 c=64 v=127
169714 On ch=1 n=a#7 v=109
169740 On ch=1 n=d8 v=0
169810 On ch=1 n=f#7 v=110
169820 On ch=1 n=f#6 v=88
169826 On ch=1 n=a#7 v=0
169844 On ch=1 n=c6 v=0
169886 On ch=1 n=d7 v=100
169916 On ch=1 n=f#7 v=0
169944 On ch=1 n=d7 v=0
170002 On ch=1 n=a#6 v=101
170004 On ch=1 n=d#8 v=115
170100 On ch=1 n=a#7 v=108
170126 On ch=1 n=d#8 v=0
170224 On ch=1 n=f#7 v=103
170234 On ch=1 n=c7 v=109
170272 On ch=1 n=a#7 v=0
170292 On ch=1 n=a#6 v=0
170306 On ch=1 n=c7 v=0
170306 On ch=1 n=f#6 v=0
170332 On ch=1 n=d#7 v=98
170338 On ch=1 n=f#7 v=0
170390 On ch=1 n=d#7 v=0
170468 Par ch=1 c=64 v=63
170478 Par ch=1 c=64 v=0
170490 On ch=1 n=c6 v=113
170494 On ch=1 n=f8 v=101
170498 Par ch=1 c=64 v=63
170522 Par ch=1 c=64 v=127
170586 On ch=1 n=f8 v=0
170614 On ch=1 n=a#7 v=103
170680 On ch=1 n=a#7 v=0
170720 On ch=1 n=f#6 v=91
170724 On ch=1 n=c6 v=0
170742 On ch=1 n=f#7 v=99
170798 On ch=1 n=f#7 v=0
170798 On ch=1 n=f#6 v=0
170840 On ch=1 n=f7 v=100
170844 On ch=1 n=a#6 v=98
170920 On ch=1 n=f7 v=0
170922 On ch=1 n=a#6 v=0
170946 On ch=1 n=c#6 v=109
170954 On ch=1 n=d#8 v=109
171056 On ch=1 n=b7 v=88
171094 On ch=1 n=g6 v=68
171098 On ch=1 n=d#8 v=0
171146 On ch=1 n=g7 v=100
171212 On ch=1 n=b7 v=0
171232 On ch=1 n=b6 v=84
171234 On ch=1 n=d#7 v=104
171258 On ch=1 n=g7 v=0
171258 On ch=1 n=c#6 v=0
171288 On ch=1 n=d#7 v=0
171296 On ch=1 n=g6 v=0
171340 On ch=1 n=f#8 v=112
171340 On ch=1 n=d6 v=109
171354 On ch=1 n=b6 v=0
171446 On ch=1 n=c8 v=84
171470 On ch=1 n=f#8 v=0
171474 On ch=1 n=g#6 v=90
171532 On ch=1 n=d6 v=0
171564 On ch=1 n=a7 v=89
171586 On ch=1 n=c8 v=0
171614 On ch=1 n=c7 v=83
171638 On ch=1 n=f7 v=97
171642 On ch=1 n=a7 v=0
171654 On ch=1 n=g#6 v=0
171702 On ch=1 n=f7 v=0
171718 On ch=1 n=c7 v=0
171724 On ch=1 n=d#6 v=112
171742 On ch=1 n=f8 v=99
171826 On ch=1 n=c#8 v=105
171844 On ch=1 n=a6 v=80
171854 On ch=1 n=f8 v=0
171906 On ch=1 n=d#6 v=0
171920 On ch=1 n=a7 v=73
171958 On ch=1 n=a6 v=0
171964 On ch=1 n=c#7 v=90
171972 On ch=1 n=c#8 v=0
171990 On ch=1 n=f7 v=89
172006 On ch=1 n=c#7 v=0
172028 On ch=1 n=a7 v=0
172048 On ch=1 n=f7 v=0
172050 Par ch=1 c=64 v=63
172072 On ch=1 n=c6 v=92
172078 On ch=1 n=f8 v=112
172102 Par ch=1 c=64 v=127
172164 On ch=1 n=a#7 v=109
172182 On ch=1 n=f8 v=0
172194 On ch=1 n=f#6 v=80
172206 On ch=1 n=c6 v=0
172256 On ch=1 n=f#7 v=88
172278 On ch=1 n=a#7 v=0
172308 On ch=1 n=f#7 v=0
172328 On ch=1 n=f#6 v=0
172328 On ch=1 n=f7 v=88
172346 On ch=1 n=a#6 v=92
172436 On ch=1 n=a#6 v=0
172436 On ch=1 n=d#8 v=114
172438 On ch=1 n=f7 v=0
172456 On ch=1 n=c#6 v=107
172524 On ch=1 n=b7 v=83
172586 On ch=1 n=g6 v=67
172590 On ch=1 n=d#8 v=0
172616 On ch=1 n=g7 v=89
172666 On ch=1 n=c#6 v=0
172672 On ch=1 n=b7 v=0
172686 On ch=1 n=b6 v=77
172704 On ch=1 n=d#7 v=99
172724 On ch=1 n=g7 v=0
172728 On ch=1 n=g6 v=0
172750 On ch=1 n=d#7 v=0
172788 Par ch=1 c=64 v=63
172788 On ch=1 n=d6 v=103
172790 On ch=1 n=b6 v=0
172798 On ch=1 n=f#8 v=110
172834 Par ch=1 c=64 v=127
172890 On ch=1 n=c8 v=78
172906 On ch=1 n=f#8 v=0
172914 On ch=1 n=g#6 v=78
172962 On ch=1 n=d6 v=0
172986 On ch=1 n=g#7 v=108
173016 On ch=1 n=c8 v=0
173060 On ch=1 n=g#6 v=0
173060 On ch=1 n=c7 v=45
173064 On ch=1 n=f#7 v=106
173074 On ch=1 n=g#7 v=0
173126 On ch=1 n=f#7 v=0
173130 On ch=1 n=c7 v=0
173156 On ch=1 n=d#6 v=110
173164 On ch=1 n=f8 v=111
173256 On ch=1 n=c#8 v=105
173276 On ch=1 n=a6 v=71
173280 On ch=1 n=f8 v=0
173342 On ch=1 n=a7 v=87
173392 On ch=1 n=d#6 v=0
173400 On ch=1 n=c#7 v=87
173402 On ch=1 n=a6 v=0
173414 On ch=1 n=f7 v=90
173442 On ch=1 n=c#7 v=0
173446 On ch=1 n=a7 v=0
173470 On ch=1 n=c#8 v=0
173476 On ch=1 n=f7 v=0
173478 Par ch=1 c=64 v=63
173492 Par ch=1 c=64 v=0
173506 On ch=1 n=c6 v=106
173514 On ch=1 n=f8 v=112
173516 Par ch=1 c=64 v=63
173536 Par ch=1 c=64 v=127
173592 On ch=1 n=a#7 v=110
173610 On ch=1 n=f8 v=0
173636 On ch=1 n=f#6 v=85
173668 On ch=1 n=c6 v=0
173686 On ch=1 n=f#7 v=92
173704 On ch=1 n=a#7 v=0
173748 On ch=1 n=f#7 v=0
173764 On ch=1 n=f#6 v=0
173768 On ch=1 n=f7 v=98
173774 On ch=1 n=a#6 v=90
173872 On ch=1 n=d#8 v=113
173874 On ch=1 n=a#6 v=0
173882 On ch=1 n=f7 v=0
173886 On ch=1 n=c#6 v=107
173888 Par ch=1 c=64 v=63
173892 On ch=1 n=b6 v=45
173924 Par ch=1 c=64 v=127
173928 On ch=1 n=b6 v=0
173962 On ch=1 n=b7 v=86
174010 On ch=1 n=g6 v=72
174032 On ch=1 n=d#8 v=0
174038 On ch=1 n=g7 v=90
174098 On ch=1 n=b7 v=0
174122 On ch=1 n=d#7 v=99
174124 On ch=1 n=b6 v=76
174126 On ch=1 n=c#6 v=0
174148 On ch=1 n=g7 v=0
174158 On ch=1 n=g6 v=0
174166 On ch=1 n=d#7 v=0
174206 Par ch=1 c=64 v=63
174212 On ch=1 n=b6 v=0
174218 On ch=1 n=d6 v=107
174222 On ch=1 n=f#8 v=110
174236 Par ch=1 c=64 v=127
174302 On ch=1 n=c8 v=81
174328 On ch=1 n=f#8 v=0
174350 On ch=1 n=g#6 v=75
174388 On ch=1 n=g#7 v=107
174390 On ch=1 n=d6 v=0
174424 On ch=1 n=c8 v=0
174466 On ch=1 n=f#7 v=99
174476 On ch=1 n=c7 v=78
174494 On ch=1 n=g#7 v=0
174496 On ch=1 n=g#6 v=0
174526 On ch=1 n=f#7 v=0
174540 On ch=1 n=c7 v=0
174550 Par ch=1 c=64 v=63
174554 On ch=1 n=d#6 v=112
174556 On ch=1 n=f8 v=107
174564 Par ch=1 c=64 v=0
174584 Par ch=1 c=64 v=63
174604 Par ch=1 c=64 v=127
174650 On ch=1 n=c#8 v=104
174666 On ch=1 n=a6 v=76
174678 On ch=1 n=f8 v=0
174728 On ch=1 n=a7 v=94
174792 On ch=1 n=c#7 v=88
174800 On ch=1 n=a6 v=0
174812 On ch=1 n=f7 v=94
174816 On ch=1 n=d#6 v=0
174844 On ch=1 n=c#7 v=0
174846 On ch=1 n=a7 v=0
174860 On ch=1 n=c#8 v=0
174874 On ch=1 n=f7 v=0
174892 Par ch=1 c=64 v=63
174910 On ch=1 n=c6 v=111
174910 On ch=1 n=f8 v=116
174938 Par ch=1 c=64 v=127
175004 On ch=1 n=a#7 v=112
175022 On ch=1 n=f8 v=0
175036 On ch=1 n=f#6 v=85
175082 On ch=1 n=c6 v=0
175092 On ch=1 n=f#7 v=94
175132 On ch=1 n=a#7 v=0
175174 On ch=1 n=f#7 v=0
175178 On ch=1 n=f7 v=93
175178 On ch=1 n=a#6 v=97
175194 On ch=1 n=f#6 v=0
175270 On ch=1 n=a#6 v=0
175276 On ch=1 n=d#8 v=115
175278 Par ch=1 c=64 v=63
175280 On ch=1 n=c#6 v=113
175300 On ch=1 n=f7 v=0
175326 Par ch=1 c=64 v=127
175362 On ch=1 n=b7 v=84
175384 On ch=1 n=g6 v=77
175422 On ch=1 n=d#8 v=0
175444 On ch=1 n=g7 v=82
175484 On ch=1 n=b6 v=83
175502 On ch=1 n=c#6 v=0
175514 On ch=1 n=b7 v=0
175514 On ch=1 n=d#7 v=95
175532 On ch=1 n=g6 v=0
175536 On ch=1 n=d#7 v=0
175540 On ch=1 n=g7 v=0
175570 On ch=1 n=b6 v=0
175594 On ch=1 n=d6 v=112
175598 Par ch=1 c=64 v=63
175600 On ch=1 n=f8 v=108
175630 Par ch=1 c=64 v=127
175684 On ch=1 n=c8 v=100
175692 On ch=1 n=f8 v=0
175712 On ch=1 n=g#6 v=76
175778 On ch=1 n=g#7 v=107
175786 On ch=1 n=d6 v=0
175796 On ch=1 n=c8 v=0
175850 On ch=1 n=c7 v=72
175856 On ch=1 n=g#7 v=0
175868 On ch=1 n=f7 v=92
175896 On ch=1 n=g#6 v=0
175928 On ch=1 n=f7 v=0
175946 On ch=1 n=c7 v=0
175960 Par ch=1 c=64 v=63
175970 Par ch=1 c=64 v=0
175970 On ch=1 n=d#6 v=114
175980 On ch=1 n=f#8 v=114
176010 Par ch=1 c=64 v=63
176024 Par ch=1 c=64 v=127
176088 On ch=1 n=c#8 v=101
176102 On ch=1 n=a6 v=84
176124 On ch=1 n=f#8 v=0
176204 On ch=1 n=a7 v=91
176322 On ch=1 n=f#7 v=110
176334 On ch=1 n=c#7 v=108
176358 On ch=1 n=a6 v=0
176360 On ch=1 n=a7 v=0
176372 On ch=1 n=c#7 v=0
176372 On ch=1 n=c#8 v=0
176380 On ch=1 n=f#7 v=0
176384 On ch=1 n=d#6 v=0
176512 Par ch=1 c=64 v=63
176516 Par ch=1 c=64 v=0
176582 On ch=1 n=g#4 v=115
176588 On ch=1 n=a#8 v=118
176590 On ch=1 n=a#7 v=124
176592 On ch=1 n=d#8 v=115
176598 Par ch=1 c=64 v=63
176600 Par ch=1 c=64 v=127
176740 On ch=1 n=a#8 v=0
176776 On ch=1 n=d#8 v=0
176780 On ch=1 n=a#7 v=0
176820 On ch=1 n=a#4 v=100
176858 On ch=1 n=g#4 v=0
176922 On ch=1 n=c#5 v=107
176966 On ch=1 n=a#4 v=0
177010 On ch=1 n=d#5 v=107
177056 On ch=1 n=c#5 v=0
177096 On ch=1 n=f#5 v=112
177122 On ch=1 n=d#5 v=0
177152 On ch=1 n=f#5 v=0
177156 On ch=1 n=g#5 v=110
177236 On ch=1 n=a#5 v=104
177260 On ch=1 n=g#5 v=0
177316 On ch=1 n=c#6 v=104
177352 On ch=1 n=a#5 v=0
177396 On ch=1 n=d#6 v=95
177452 On ch=1 n=c#6 v=0
177480 On ch=1 n=f#6 v=100
177520 On ch=1 n=d#6 v=0
177538 On ch=1 n=g#5 v=86
177548 On ch=1 n=f#6 v=0
177622 On ch=1 n=a#5 v=88
177664 On ch=1 n=g#5 v=0
177678 On ch=1 n=c#6 v=100
177726 On ch=1 n=a#5 v=0
177740 On ch=1 n=d#6 v=100
177782 On ch=1 n=c#6 v=0
177810 On ch=1 n=f#6 v=95
177834 On ch=1 n=d#6 v=0
177856 On ch=1 n=g#6 v=101
177858 On ch=1 n=f#6 v=0
177930 On ch=1 n=a#6 v=99
177958 On ch=1 n=g#6 v=0
178002 On ch=1 n=c#7 v=103
178038 On ch=1 n=a#6 v=0
178076 On ch=1 n=d#7 v=98
178130 On ch=1 n=c#7 v=0
178134 On ch=1 n=f#7 v=106
178176 On ch=1 n=d#7 v=0
178212 On ch=1 n=f#7 v=0
178406 On ch=1 n=a#6 v=123
178408 On ch=1 n=c#7 v=120
178416 On ch=1 n=g#6 v=100
178682 On ch=1 n=a#7 v=112
178684 On ch=1 n=d#7 v=123
178692 On ch=1 n=f#7 v=98
178698 On ch=1 n=g#7 v=80
178820 On ch=1 n=g#6 v=0
178822 On ch=1 n=a#6 v=0
178824 On ch=1 n=c#7 v=0
178888 On ch=1 n=c#7 v=116
178890 On ch=1 n=a#6 v=113
178906 On ch=1 n=g#6 v=84
178928 On ch=1 n=d#7 v=0
178940 On ch=1 n=g#7 v=0
178940 On ch=1 n=a#7 v=0
178944 On ch=1 n=f#7 v=0
179066 On ch=1 n=a#6 v=0
179068 On ch=1 n=g#6 v=0
179070 On ch=1 n=a#7 v=113
179072 On ch=1 n=d#7 v=125
179080 On ch=1 n=g#7 v=97
179080 On ch=1 n=f#7 v=100
179086 On ch=1 n=c#7 v=0
179196 On ch=1 n=d#7 v=0
179208 On ch=1 n=c#7 v=120
179210 On ch=1 n=a#6 v=116
179220 On ch=1 n=f#7 v=0
179222 On ch=1 n=g#6 v=93
179226 On ch=1 n=a#7 v=0
179228 On ch=1 n=g#7 v=0
179326 On ch=1 n=a#6 v=0
179330 On ch=1 n=c#7 v=0
179334 On ch=1 n=g#6 v=0
179342 On ch=1 n=a#7 v=109
179344 On ch=1 n=d#7 v=121
179350 On ch=1 n=f#7 v=101
179350 On ch=1 n=g#7 v=97
179440 On ch=1 n=d#7 v=0
179460 On ch=1 n=c#7 v=124
179462 On ch=1 n=f#7 v=0
179464 On ch=1 n=a#7 v=0
179464 On ch=1 n=a#6 v=113
179470 On ch=1 n=g#7 v=0
179474 On ch=1 n=g#6 v=96
179560 On ch=1 n=a#6 v=0
179568 On ch=1 n=c#7 v=0
179574 On ch=1 n=g#6 v=0
179574 On ch=1 n=d#7 v=119
179576 On ch=1 n=a#7 v=106
179582 On ch=1 n=f#7 v=100
179586 On ch=1 n=g#7 v=88
179666 On ch=1 n=d#7 v=0
179676 On ch=1 n=c#7 v=118
179678 On ch=1 n=a#7 v=0
179680 On ch=1 n=g#7 v=0
179680 On ch=1 n=a#6 v=110
179684 On ch=1 n=f#7 v=0
179688 On ch=1 n=g#6 v=92
179764 On ch=1 n=c#7 v=0
179766 On ch=1 n=a#6 v=0
179778 On ch=1 n=a#7 v=108
179778 On ch=1 n=d#7 v=119
179782 On ch=1 n=g#6 v=0
179784 On ch=1 n=f#7 v=97
179786 On ch=1 n=g#7 v=96
179848 On ch=1 n=d#7 v=0
179864 On ch=1 n=g#7 v=0
179864 On ch=1 n=c#7 v=124
179866 On ch=1 n=f#7 v=0
179868 On ch=1 n=a#7 v=0
179868 On ch=1 n=a#6 v=113
179878 On ch=1 n=g#6 v=95
179946 On ch=1 n=g#6 v=0
179946 On ch=1 n=a#6 v=0
179948 On ch=1 n=d#7 v=120
179950 On ch=1 n=c#7 v=0
179950 On ch=1 n=a#7 v=104
179956 On ch=1 n=f#7 v=98
179960 On ch=1 n=g#7 v=97
180020 On ch=1 n=d#7 v=0
180032 On ch=1 n=f#7 v=0
180034 On ch=1 n=a#7 v=0
180034 On ch=1 n=c#7 v=119
180036 On ch=1 n=g#7 v=0
180038 On ch=1 n=a#6 v=109
180042 On ch=1 n=g#6 v=99
180104 On ch=1 n=d#7 v=115
180106 On ch=1 n=a#7 v=101
180108 On ch=1 n=f#7 v=97
180110 On ch=1 n=c#7 v=0
180112 On ch=1 n=a#6 v=0
180112 On ch=1 n=g#7 v=92
180122 On ch=1 n=g#6 v=0
180176 On ch=1 n=d#7 v=0
180180 On ch=1 n=c#7 v=115
180182 On ch=1 n=g#7 v=0
180182 On ch=1 n=a#6 v=109
180184 On ch=1 n=f#7 v=0
180188 On ch=1 n=g#6 v=91
180194 On ch=1 n=a#7 v=0
180252 On ch=1 n=c#7 v=0
180256 On ch=1 n=a#6 v=0
180256 On ch=1 n=d#7 v=114
180260 On ch=1 n=a#7 v=97
180262 On ch=1 n=f#7 v=99
180264 On ch=1 n=g#6 v=0
180270 On ch=1 n=g#7 v=96
180322 On ch=1 n=a#6 v=110
180324 On ch=1 n=d#7 v=0
180324 On ch=1 n=c#7 v=118
180328 On ch=1 n=f#7 v=0
180328 On ch=1 n=g#6 v=100
180332 On ch=1 n=g#7 v=0
180338 On ch=1 n=a#7 v=0
180398 On ch=1 n=c#7 v=0
180404 On ch=1 n=a#6 v=0
180404 On ch=1 n=d#7 v=115
180404 On ch=1 n=a#7 v=104
180406 On ch=1 n=g#6 v=0
180408 On ch=1 n=f#7 v=100
180412 On ch=1 n=g#7 v=104
180470 On ch=1 n=d#7 v=0
180476 On ch=1 n=c#7 v=119
180478 On ch=1 n=a#6 v=110
180480 On ch=1 n=f#7 v=0
180484 On ch=1 n=g#6 v=106
180490 On ch=1 n=g#7 v=0
180500 On ch=1 n=a#7 v=0
180554 On ch=1 n=a#7 v=109
180554 On ch=1 n=d#7 v=115
180556 On ch=1 n=a#6 v=0
180556 On ch=1 n=f#7 v=108
180558 On ch=1 n=c#7 v=0
180560 On ch=1 n=g#7 v=97
180564 On ch=1 n=g#6 v=0
180618 On ch=1 n=d#7 v=0
180624 On ch=1 n=a#6 v=113
180624 On ch=1 n=c#7 v=119
180626 On ch=1 n=g#6 v=107
180632 On ch=1 n=f#7 v=0
180640 On ch=1 n=g#7 v=0
180648 On ch=1 n=a#7 v=0
180698 On ch=1 n=a#7 v=110
180698 On ch=1 n=d#7 v=115
180702 On ch=1 n=g#7 v=101
180702 On ch=1 n=f#7 v=99
180706 On ch=1 n=a#6 v=0
180710 On ch=1 n=c#7 v=0
180716 On ch=1 n=g#6 v=0
180760 On ch=1 n=d#7 v=0
180768 On ch=1 n=a#6 v=113
180770 On ch=1 n=c#7 v=115
180772 On ch=1 n=f#7 v=0
180774 On ch=1 n=g#6 v=100
180788 On ch=1 n=g#7 v=0
180796 On ch=1 n=a#7 v=0
180840 On ch=1 n=d#7 v=119
180842 On ch=1 n=a#7 v=110
180852 On ch=1 n=f#7 v=100
180854 On ch=1 n=c#7 v=0
180854 On ch=1 n=g#7 v=88
180856 On ch=1 n=g#6 v=0
180858 On ch=1 n=a#6 v=0
180908 On ch=1 n=a#6 v=118
180910 On ch=1 n=c#7 v=119
180910 On ch=1 n=g#6 v=112
180944 On ch=1 n=d#7 v=0
180972 On ch=1 n=f#7 v=0
180988 On ch=1 n=g#7 v=0
180994 On ch=1 n=a#7 v=0
181074 On ch=1 n=c#7 v=0
181078 On ch=1 n=a#6 v=0
181092 On ch=1 n=g#6 v=0
181156 On ch=1 n=a#8 v=104
181188 On ch=1 n=b8 v=50
181236 On ch=1 n=b8 v=0
181312 On ch=1 n=g#8 v=105
181354 On ch=1 n=f#8 v=113
181356 On ch=1 n=a#8 v=0
181388 On ch=1 n=g#8 v=0
181406 On ch=1 n=d#8 v=103
181424 On ch=1 n=f#8 v=0
181450 On ch=1 n=c#8 v=108
181490 On ch=1 n=d#8 v=0
181494 On ch=1 n=a#7 v=105
181506 On ch=1 n=c#8 v=0
181530 On ch=1 n=g#7 v=107
181556 On ch=1 n=a#7 v=0
181572 On ch=1 n=f#7 v=103
181592 On ch=1 n=g#7 v=0
181634 On ch=1 n=f#7 v=0
181634 On ch=1 n=d#7 v=91
181680 On ch=1 n=d#7 v=0
181680 On ch=1 n=c#7 v=94
181730 On ch=1 n=a#6 v=86
181732 On ch=1 n=c#7 v=0
181778 On ch=1 n=g#6 v=55
181806 On ch=1 n=a#6 v=0
181814 On ch=1 n=f#6 v=65
181850 On ch=1 n=g#6 v=0
181866 On ch=1 n=d#6 v=99
181892 On ch=1 n=f#6 v=0
181910 On ch=1 n=c#6 v=61
181948 On ch=1 n=d#6 v=0
181956 On ch=1 n=g#5 v=69
181964 On ch=1 n=a#5 v=6
182004 On ch=1 n=c#6 v=0
182056 On ch=1 n=f#5 v=76
182060 On ch=1 n=a#5 v=0
182096 On ch=1 n=g#5 v=0
182106 On ch=1 n=d#5 v=93
182132 On ch=1 n=f#5 v=0
182150 On ch=1 n=c#5 v=69
182184 On ch=1 n=d#5 v=0
182194 On ch=1 n=a#4 v=93
182224 On ch=1 n=c#5 v=0
182232 On ch=1 n=g#4 v=68
182274 On ch=1 n=f#4 v=73
182280 On ch=1 n=a#4 v=0
182320 On ch=1 n=d#4 v=93
182322 On ch=1 n=g#4 v=0
182350 On ch=1 n=f#4 v=0
182358 On ch=1 n=c#4 v=76
182400 On ch=1 n=a#3 v=86
182402 On ch=1 n=d#4 v=0
182426 On ch=1 n=c#4 v=0
182442 On ch=1 n=g#3 v=80
182472 On ch=1 n=a#3 v=0
182480 On ch=1 n=d#3 v=67
182484 On ch=1 n=f#3 v=71
182494 On ch=1 n=g#3 v=0
182522 On ch=1 n=f#3 v=0
182562 On ch=1 n=d#3 v=0
182656 On ch=1 n=g#3 v=119
182950 On ch=1 n=c#4 v=96
183090 On ch=1 n=d#4 v=108
183094 On ch=1 n=g#3 v=0
183128 On ch=1 n=c#4 v=0
183194 On ch=1 n=f#4 v=104
183244 On ch=1 n=d#4 v=0
183306 On ch=1 n=g#2 v=123
183316 On ch=1 n=a#4 v=104
183362 On ch=1 n=f#4 v=0
183416 On ch=1 n=g#2 v=0
183440 On ch=1 n=f#4 v=88
183516 On ch=1 n=d#4 v=103
183618 On ch=1 n=f#4 v=0
183624 On ch=1 n=c#4 v=112
183700 On ch=1 n=d#4 v=0
183728 On ch=1 n=a1 v=125
183772 On ch=1 n=c#4 v=0
183912 On ch=1 n=c#4 v=96
184002 On ch=1 n=a#4 v=0
184024 On ch=1 n=d#4 v=88
184042 On ch=1 n=c#4 v=0
184106 On ch=1 n=f#4 v=88
184158 On ch=1 n=d#4 v=0
184196 On ch=1 n=a#4 v=91
184210 On ch=1 n=a1 v=0
184222 On ch=1 n=f#4 v=0
184284 On ch=1 n=f#4 v=74
184386 On ch=1 n=d#4 v=77
184466 On ch=1 n=c#4 v=90
184470 On ch=1 n=f#4 v=0
184538 On ch=1 n=d#4 v=0
184574 On ch=1 n=g#3 v=98
184594 On ch=1 n=c#4 v=0
184714 On ch=1 n=c#4 v=78
184726 On ch=1 n=a#4 v=0
184824 On ch=1 n=d#4 v=72
184844 On ch=1 n=c#4 v=0
184914 On ch=1 n=f#4 v=80
184942 On ch=1 n=d#4 v=0
185002 On ch=1 n=a#4 v=78
185028 On ch=1 n=f#4 v=0
185104 On ch=1 n=f#4 v=57
185160 On ch=1 n=g#3 v=0
185186 On ch=1 n=a#4 v=0
185206 On ch=1 n=d#4 v=78
185280 On ch=1 n=f#4 v=0
185322 On ch=1 n=c#4 v=79
185368 On ch=1 n=d#4 v=0
185422 On ch=1 n=g#3 v=79
185436 On ch=1 n=c#4 v=0
185556 On ch=1 n=c#4 v=73
185674 On ch=1 n=d#4 v=62
185690 On ch=1 n=c#4 v=0
185768 On ch=1 n=f#4 v=72
185780 On ch=1 n=d#4 v=0
185876 On ch=1 n=a#4 v=65
185882 On ch=1 n=f#4 v=0
185912 On ch=1 n=g#3 v=0
185968 On ch=1 n=f#4 v=50
186018 On ch=1 n=a#4 v=0
186086 On ch=1 n=d#4 v=64
186134 On ch=1 n=f#4 v=0
186192 On ch=1 n=c#4 v=63
186214 On ch=1 n=d#4 v=0
186290 On ch=1 n=c#4 v=0
186308 On ch=1 n=g#3 v=60
186402 Par ch=1 c=67 v=127
186430 On ch=1 n=c#4 v=56
186542 On ch=1 n=d#4 v=53
186560 On ch=1 n=c#4 v=0
186658 On ch=1 n=d#4 v=0
186662 On ch=1 n=f#4 v=56
186766 On ch=1 n=g#3 v=0
186782 On ch=1 n=a#4 v=67
186790 On ch=1 n=f#4 v=0
186890 On ch=1 n=f#4 v=42
186928 On ch=1 n=a#4 v=0
187036 On ch=1 n=d#4 v=57
187098 On ch=1 n=f#4 v=0
187142 On ch=1 n=c#4 v=61
187148 On ch=1 n=d#4 v=0
187244 On ch=1 n=c#4 v=0
187274 On ch=1 n=g#3 v=52
187402 On ch=1 n=c#4 v=53
187532 On ch=1 n=d#4 v=52
187548 On ch=1 n=c#4 v=0
187650 On ch=1 n=d#4 v=0
187658 On ch=1 n=f#4 v=55
187812 On ch=1 n=f#4 v=0
187824 On ch=1 n=a#4 v=60
187878 On ch=1 n=g#3 v=0
187954 On ch=1 n=f#4 v=48
187964 On ch=1 n=a#4 v=0
188098 On ch=1 n=d#4 v=66
188118 On ch=1 n=f#4 v=0
188238 On ch=1 n=c#4 v=36
188240 On ch=1 n=d#4 v=0
188378 On ch=1 n=c#4 v=0
188504 On ch=1 n=g#3 v=52
188566 On ch=1 n=a#4 v=57
188566 On ch=1 n=d#5 v=84
188662 Par ch=1 c=64 v=63
188678 Par ch=1 c=64 v=127
188816 On ch=1 n=c#4 v=63
188822 On ch=1 n=g#3 v=0
188842 On ch=1 n=a#4 v=0
188974 On ch=1 n=f#4 v=65
189046 On ch=1 n=d#5 v=0
189056 On ch=1 n=c#4 v=0
189088 On ch=1 n=a#4 v=63
189108 On ch=1 n=f#4 v=0
189234 On ch=1 n=f5 v=99
189240 On ch=1 n=a#4 v=0
189256 On ch=1 n=c5 v=80
189392 On ch=1 n=a4 v=70
189496 On ch=1 n=f#4 v=76
189504 On ch=1 n=c5 v=0
189506 On ch=1 n=a4 v=0
189568 On ch=1 n=f5 v=0
189596 On ch=1 n=d4 v=84
189604 On ch=1 n=f#4 v=0
189732 On ch=1 n=g#3 v=76
189738 On ch=1 n=d5 v=99
189740 On ch=1 n=a4 v=84
189742 On ch=1 n=d4 v=0
189780 Par ch=1 c=64 v=63
189840 Par ch=1 c=64 v=127
189866 On ch=1 n=g#3 v=0
189868 On ch=1 n=d4 v=64
189896 On ch=1 n=a4 v=0
189960 On ch=1 n=f#4 v=75
190036 On ch=1 n=d4 v=0
190062 On ch=1 n=a4 v=79
190080 On ch=1 n=d5 v=0
190090 On ch=1 n=f#4 v=0
190136 On ch=1 n=a4 v=0
190222 On ch=1 n=c5 v=71
190232 On ch=1 n=a5 v=86
190234 On ch=1 n=f#5 v=91
190350 On ch=1 n=c5 v=0
190360 On ch=1 n=a4 v=65
190406 On ch=1 n=a5 v=0
190446 On ch=1 n=a4 v=0
190460 On ch=1 n=f#5 v=0
190480 On ch=1 n=f#4 v=63
190496 On ch=1 n=d5 v=87
190508 On ch=1 n=a4 v=71
190552 On ch=1 n=d4 v=59
190564 On ch=1 n=d5 v=0
190586 On ch=1 n=f#4 v=0
190590 On ch=1 n=a4 v=0
190614 On ch=1 n=d4 v=0
190750 On ch=1 n=g#3 v=74
190764 On ch=1 n=a#4 v=80
190768 On ch=1 n=d#5 v=85
190800 Par ch=1 c=64 v=63
190808 Par ch=1 c=64 v=0
190848 Par ch=1 c=64 v=63
190862 On ch=1 n=c#4 v=78
190872 Par ch=1 c=64 v=127
190886 On ch=1 n=g#3 v=0
190946 On ch=1 n=a#4 v=0
191012 On ch=1 n=f#4 v=70
191082 On ch=1 n=c#4 v=0
191110 On ch=1 n=a#4 v=72
191118 On ch=1 n=d#5 v=0
191148 On ch=1 n=f#4 v=0
191234 On ch=1 n=f5 v=103
191236 On ch=1 n=a#4 v=0
191244 On ch=1 n=c5 v=86
191356 On ch=1 n=a4 v=67
191430 On ch=1 n=c5 v=0
191450 On ch=1 n=f#4 v=86
191466 On ch=1 n=a4 v=0
191522 On ch=1 n=f5 v=0
191554 On ch=1 n=d4 v=69
191556 On ch=1 n=f#4 v=0
191692 On ch=1 n=g#3 v=71
191704 On ch=1 n=d4 v=0
191712 On ch=1 n=d5 v=90
191722 On ch=1 n=a4 v=59
191740 Par ch=1 c=64 v=63
191746 Par ch=1 c=64 v=0
191836 On ch=1 n=d4 v=54
191838 On ch=1 n=g#3 v=0
191852 Par ch=1 c=64 v=63
191860 Par ch=1 c=64 v=127
191936 On ch=1 n=f#4 v=74
191970 On ch=1 n=a4 v=0
192002 On ch=1 n=d4 v=0
192038 On ch=1 n=a4 v=57
192058 On ch=1 n=f#4 v=0
192170 On ch=1 n=a4 v=0
192180 On ch=1 n=c5 v=63
192198 On ch=1 n=d5 v=0
192254 On ch=1 n=c5 v=0
192290 On ch=1 n=a4 v=50
192410 On ch=1 n=f#4 v=48
192428 On ch=1 n=a4 v=0
192468 On ch=1 n=d4 v=68
192478 On ch=1 n=f#4 v=0
192558 On ch=1 n=d4 v=0
192680 On ch=1 n=g#3 v=30
192746 Par ch=1 c=64 v=63
192748 On ch=1 n=d#6 v=68
192752 On ch=1 n=d#5 v=45
192754 On ch=1 n=a#5 v=65
192756 Par ch=1 c=64 v=0
192808 Par ch=1 c=64 v=63
192826 Par ch=1 c=64 v=127
192862 On ch=1 n=c#4 v=63
192886 On ch=1 n=g#3 v=0
192950 On ch=1 n=d#5 v=0
192972 On ch=1 n=a#5 v=0
193012 On ch=1 n=f#4 v=74
193014 On ch=1 n=d#6 v=0
193056 On ch=1 n=c#4 v=0
193106 On ch=1 n=a#4 v=80
193140 On ch=1 n=f#4 v=0
193194 On ch=1 n=a#4 v=0
193226 On ch=1 n=f6 v=107
193234 On ch=1 n=c6 v=88
193236 On ch=1 n=f5 v=82
193248 On ch=1 n=c5 v=76
193368 On ch=1 n=a4 v=69
193378 On ch=1 n=c5 v=0
193410 On ch=1 n=f6 v=0
193418 On ch=1 n=f5 v=0
193420 On ch=1 n=c6 v=0
193458 On ch=1 n=f#4 v=72
193508 On ch=1 n=a4 v=0
193516 On ch=1 n=d4 v=91
193564 On ch=1 n=f#4 v=0
193586 On ch=1 n=d4 v=0
193696 On ch=1 n=d6 v=108
193700 On ch=1 n=d5 v=96
193700 On ch=1 n=a5 v=90
193718 On ch=1 n=g#3 v=66
193724 Par ch=1 c=64 v=63
193734 Par ch=1 c=64 v=0
193772 Par ch=1 c=64 v=63
193792 Par ch=1 c=64 v=127
193838 On ch=1 n=d4 v=80
193850 On ch=1 n=d5 v=0
193864 On ch=1 n=g#3 v=0
193896 On ch=1 n=a5 v=0
193900 On ch=1 n=d6 v=0
193942 On ch=1 n=f#4 v=97
193980 On ch=1 n=d4 v=0
194022 On ch=1 n=a4 v=88
194046 On ch=1 n=f#4 v=0
194150 On ch=1 n=f#6 v=106
194152 On ch=1 n=a6 v=100
194154 On ch=1 n=c5 v=96
194192 On ch=1 n=a4 v=0
194224 On ch=1 n=c5 v=0
194264 On ch=1 n=a6 v=0
194274 On ch=1 n=a4 v=63
194354 On ch=1 n=d6 v=101
194360 On ch=1 n=a5 v=86
194378 On ch=1 n=f#6 v=0
194380 On ch=1 n=f#4 v=88
194388 On ch=1 n=a4 v=0
194416 On ch=1 n=d6 v=0
194424 On ch=1 n=a5 v=0
194474 On ch=1 n=f#4 v=0
194482 On ch=1 n=d4 v=80
194582 On ch=1 n=d4 v=0
194638 Par ch=1 c=64 v=63
194638 On ch=1 n=d#6 v=99
194644 On ch=1 n=a#5 v=88
194646 On ch=1 n=g#3 v=64
194646 On ch=1 n=d#5 v=81
194656 Par ch=1 c=64 v=0
194708 Par ch=1 c=64 v=63
194722 Par ch=1 c=64 v=127
194762 On ch=1 n=c#4 v=80
194784 On ch=1 n=g#3 v=0
194840 On ch=1 n=d#5 v=0
194842 On ch=1 n=a#5 v=0
194856 On ch=1 n=d#6 v=0
194884 On ch=1 n=f#4 v=80
194898 On ch=1 n=c#4 v=0
194958 On ch=1 n=a#4 v=90
194974 On ch=1 n=f#4 v=0
195024 On ch=1 n=a#4 v=0
195078 On ch=1 n=c5 v=79
195088 On ch=1 n=c6 v=84
195090 On ch=1 n=f6 v=99
195092 On ch=1 n=f5 v=73
195186 On ch=1 n=f5 v=0
195194 On ch=1 n=f6 v=0
195196 On ch=1 n=c6 v=0
195202 On ch=1 n=a4 v=68
195210 On ch=1 n=c5 v=0
195308 On ch=1 n=f#4 v=70
195356 On ch=1 n=a4 v=0
195376 On ch=1 n=d4 v=76
195436 On ch=1 n=f#4 v=0
195452 On ch=1 n=d4 v=0
195572 On ch=1 n=d6 v=80
195578 On ch=1 n=a5 v=63
195586 On ch=1 n=g#3 v=60
195588 On ch=1 n=d5 v=34
195620 Par ch=1 c=64 v=63
195628 Par ch=1 c=64 v=0
195686 Par ch=1 c=64 v=63
195704 Par ch=1 c=64 v=127
195752 On ch=1 n=d4 v=69
195770 On ch=1 n=g#3 v=0
195804 On ch=1 n=d6 v=0
195842 On ch=1 n=f#4 v=87
195868 On ch=1 n=d5 v=0
195880 On ch=1 n=d4 v=0
195892 On ch=1 n=a5 v=0
195936 On ch=1 n=a4 v=59
195944 On ch=1 n=f#4 v=0
196068 On ch=1 n=c5 v=80
196086 On ch=1 n=a5 v=77
196090 On ch=1 n=a4 v=0
196090 On ch=1 n=d5 v=71
196140 On ch=1 n=c5 v=0
196206 On ch=1 n=d5 v=0
196226 On ch=1 n=a4 v=30
196310 On ch=1 n=f#4 v=72
196322 On ch=1 n=a4 v=0
196324 On ch=1 n=a5 v=0
196414 On ch=1 n=f#4 v=0
196446 On ch=1 n=d4 v=46
196514 Par ch=1 c=67 v=127
196548 On ch=1 n=d4 v=0
196576 On ch=1 n=g#3 v=42
196682 On ch=1 n=g#3 v=0
196708 On ch=1 n=d4 v=37
196814 On ch=1 n=f#4 v=67
196852 On ch=1 n=d4 v=0
196896 On ch=1 n=a4 v=48
196904 On ch=1 n=f#4 v=0
196984 On ch=1 n=a4 v=0
197032 On ch=1 n=c5 v=51
197106 On ch=1 n=c5 v=0
197176 On ch=1 n=a4 v=38
197298 On ch=1 n=f#4 v=40
197314 On ch=1 n=a4 v=0
197390 On ch=1 n=f#4 v=0
197400 On ch=1 n=d4 v=63
197604 On ch=1 n=d4 v=0
197644 On ch=1 n=c4 v=91
197646 On ch=1 n=g#3 v=55
197798 On ch=1 n=g#3 v=0
197838 On ch=1 n=d4 v=29
197900 On ch=1 n=c4 v=0
197962 On ch=1 n=f#4 v=66
197992 On ch=1 n=d4 v=0
198098 On ch=1 n=f#4 v=0
198106 On ch=1 n=a4 v=52
198276 On ch=1 n=a3 v=97
198294 On ch=1 n=c5 v=76
198336 On ch=1 n=a4 v=0
198376 On ch=1 n=c5 v=0
198432 On ch=1 n=a3 v=0
198450 On ch=1 n=a4 v=38
198546 On ch=1 n=f#4 v=80
198558 On ch=1 n=a4 v=0
198642 On ch=1 n=f#4 v=0
198668 On ch=1 n=d4 v=66
198790 On ch=1 n=d4 v=0
198796 On ch=1 n=g#3 v=86
198908 On ch=1 n=g#3 v=0
198916 On ch=1 n=d4 v=60
199008 On ch=1 n=f#4 v=89
199032 On ch=1 n=d4 v=0
199100 On ch=1 n=f#4 v=0
199118 On ch=1 n=a4 v=73
199224 On ch=1 n=c5 v=76
199242 On ch=1 n=a4 v=0
199302 On ch=1 n=c5 v=0
199364 On ch=1 n=a4 v=47
199476 On ch=1 n=a4 v=0
199480 On ch=1 n=f#4 v=70
199580 On ch=1 n=f#4 v=0
199630 On ch=1 n=d4 v=63
199808 On ch=1 n=g#3 v=59
199890 On ch=1 n=d4 v=0
199900 On ch=1 n=c5 v=97
200148 On ch=1 n=d4 v=55
200176 Par ch=1 c=64 v=63
200184 Par ch=1 c=64 v=127
200244 On ch=1 n=g#3 v=0
200316 On ch=1 n=f#4 v=83
200356 On ch=1 n=c5 v=0
200466 On ch=1 n=a4 v=88
200482 On ch=1 n=d4 v=0
200516 On ch=1 n=f#4 v=0
200590 On ch=1 n=a4 v=0
200652 On ch=1 n=d5 v=75
200652 On ch=1 n=c5 v=74
200782 On ch=1 n=c5 v=0
200790 On ch=1 n=d5 v=0
200792 On ch=1 n=f#5 v=88
200914 On ch=1 n=a5 v=75
200928 On ch=1 n=f#5 v=0
201032 On ch=1 n=d6 v=76
201042 On ch=1 n=a5 v=0
201090 On ch=1 n=d6 v=0
201194 On ch=1 n=c6 v=78
201204 On ch=1 n=c5 v=67
201226 On ch=1 n=g#5 v=75
201332 On ch=1 n=c5 v=0
201334 Par ch=1 c=67 v=0
201352 On ch=1 n=c6 v=0
201374 On ch=1 n=d#6 v=85
201380 On ch=1 n=g#5 v=0
201518 On ch=1 n=f#6 v=82
201532 On ch=1 n=d#6 v=0
201600 On ch=1 n=g#6 v=77
201624 On ch=1 n=f#6 v=0
201686 On ch=1 n=g#6 v=0
201698 On ch=1 n=a4 v=76
201710 On ch=1 n=a5 v=68
201740 On ch=1 n=c6 v=63
201744 On ch=1 n=d6 v=62
201782 On ch=1 n=a4 v=0
201810 On ch=1 n=f#6 v=95
201816 On ch=1 n=a5 v=0
201828 On ch=1 n=c6 v=0
201832 On ch=1 n=d6 v=0
201898 On ch=1 n=f#6 v=0
201914 On ch=1 n=a6 v=93
201996 On ch=1 n=a6 v=0
201996 On ch=1 n=d7 v=98
202054 On ch=1 n=d7 v=0
202094 On ch=1 n=c6 v=63
202110 On ch=1 n=c7 v=101
202132 On ch=1 n=g#6 v=106
202172 On ch=1 n=c7 v=0
202192 On ch=1 n=c6 v=0
202230 On ch=1 n=g#6 v=0
202248 On ch=1 n=d#7 v=103
202366 On ch=1 n=f#7 v=100
202380 On ch=1 n=d#7 v=0
202448 On ch=1 n=g#7 v=94
202470 On ch=1 n=f#7 v=0
202510 On ch=1 n=a5 v=90
202516 On ch=1 n=a6 v=111
202532 On ch=1 n=g#7 v=0
202550 On ch=1 n=c7 v=67
202562 On ch=1 n=b6 v=65
202574 On ch=1 n=d7 v=59
202582 On ch=1 n=a6 v=0
202588 On ch=1 n=a5 v=0
202602 On ch=1 n=b6 v=0
202628 On ch=1 n=f#7 v=108
202634 On ch=1 n=d7 v=0
202640 On ch=1 n=c7 v=0
202720 On ch=1 n=f#7 v=0
202728 On ch=1 n=a7 v=97
202812 On ch=1 n=d8 v=100
202850 On ch=1 n=a7 v=0
202882 On ch=1 n=d8 v=0
202926 Par ch=1 c=64 v=63
202928 On ch=1 n=c#7 v=114
202932 On ch=1 n=f#6 v=105
202950 Par ch=1 c=64 v=127
202990 On ch=1 n=c#7 v=0
203030 On ch=1 n=f#6 v=0
203062 On ch=1 n=a7 v=98
203074 On ch=1 n=c7 v=84
203076 On ch=1 n=d7 v=88
203138 On ch=1 n=a7 v=0
203164 On ch=1 n=a6 v=96
203184 On ch=1 n=d7 v=0
203186 On ch=1 n=c7 v=0
203234 On ch=1 n=a6 v=0
203256 On ch=1 n=c7 v=77
203258 On ch=1 n=d7 v=85
203262 On ch=1 n=a7 v=74
203274 On ch=1 n=g7 v=54
203316 On ch=1 n=a7 v=0
203318 On ch=1 n=g7 v=0
203324 On ch=1 n=c7 v=0
203326 On ch=1 n=d7 v=0
203372 On ch=1 n=c#6 v=105
203372 On ch=1 n=f#5 v=104
203416 On ch=1 n=c#6 v=0
203436 On ch=1 n=f#5 v=0
203486 On ch=1 n=a6 v=85
203492 On ch=1 n=c6 v=85
203494 On ch=1 n=d6 v=78
203550 On ch=1 n=a6 v=0
203592 On ch=1 n=d6 v=0
203594 On ch=1 n=a5 v=85
203624 On ch=1 n=c6 v=0
203666 On ch=1 n=a5 v=0
203698 On ch=1 n=a6 v=63
203732 On ch=1 n=d6 v=34
203738 On ch=1 n=c6 v=9
203744 On ch=1 n=a6 v=0
203778 On ch=1 n=d6 v=0
203780 On ch=1 n=c6 v=0
203868 On ch=1 n=g#4 v=99
203926 On ch=1 n=g#4 v=0
204012 On ch=1 n=f#5 v=87
204014 On ch=1 n=d5 v=82
204022 On ch=1 n=a5 v=45
204070 On ch=1 n=a5 v=0
204134 On ch=1 n=f#5 v=0
204138 On ch=1 n=d5 v=0
204142 On ch=1 n=c#5 v=91
204236 On ch=1 n=c#5 v=0
204238 On ch=1 n=c5 v=76
204316 On ch=1 n=c5 v=0
204322 On ch=1 n=b4 v=80
204364 On ch=1 n=g#3 v=81
204426 On ch=1 n=b4 v=0
204430 On ch=1 n=g#3 v=0
204430 On ch=1 n=a#4 v=82
204512 On ch=1 n=a#4 v=0
204512 On ch=1 n=a4 v=68
204618 On ch=1 n=g#4 v=92
204636 On ch=1 n=a4 v=0
204694 On ch=1 n=g#4 v=0
204728 On ch=1 n=g#2 v=80
204818 On ch=1 n=g#2 v=0
204852 On ch=1 n=d4 v=83
204860 On ch=1 n=a4 v=45
204868 On ch=1 n=f#4 v=79
204910 On ch=1 n=a4 v=0
204964 On ch=1 n=d4 v=0
204986 On ch=1 n=c#4 v=74
205010 On ch=1 n=f#4 v=0
205084 On ch=1 n=c4 v=73
205086 On ch=1 n=c#4 v=0
205212 On ch=1 n=c4 v=0
205230 On ch=1 n=b3 v=68
205240 On ch=1 n=a1 v=70
205366 On ch=1 n=a#3 v=67
205374 On ch=1 n=b3 v=0
205380 Par ch=1 c=64 v=63
205446 Par ch=1 c=64 v=127
205522 On ch=1 n=a#3 v=0
205544 On ch=1 n=a3 v=48
205560 On ch=1 n=a1 v=0
205728 On ch=1 n=g#3 v=57
205730 On ch=1 n=a3 v=0
205856 On ch=1 n=g#3 v=0
206098 Par ch=1 c=67 v=127
206142 On ch=1 n=g#3 v=63
206248 On ch=1 n=f5 v=72
206252 On ch=1 n=c5 v=59
206278 Par ch=1 c=64 v=63
206282 Par ch=1 c=64 v=0
206398 Par ch=1 c=64 v=63
206402 Par ch=1 c=64 v=127
206500 On ch=1 n=g#3 v=0
206578 On ch=1 n=f4 v=47
206624 On ch=1 n=c5 v=0
206750 On ch=1 n=g#4 v=75
206758 On ch=1 n=f5 v=0
206828 On ch=1 n=f4 v=0
206890 On ch=1 n=c5 v=73
206926 On ch=1 n=g#4 v=0
206970 On ch=1 n=c5 v=0
207034 On ch=1 n=g5 v=90
207048 On ch=1 n=d5 v=71
207204 On ch=1 n=b4 v=55
207278 On ch=1 n=d5 v=0
207298 On ch=1 n=g#4 v=77
207324 On ch=1 n=b4 v=0
207346 On ch=1 n=g5 v=0
207402 On ch=1 n=g#4 v=0
207416 On ch=1 n=e4 v=66
207526 On ch=1 n=e4 v=0
207554 On ch=1 n=e5 v=91
207560 On ch=1 n=b4 v=76
207568 Par ch=1 c=64 v=63
207570 On ch=1 n=g#3 v=81
207580 Par ch=1 c=64 v=0
207610 Par ch=1 c=64 v=63
207638 Par ch=1 c=64 v=127
207678 On ch=1 n=g#3 v=0
207688 On ch=1 n=e4 v=65
207724 On ch=1 n=b4 v=0
207790 On ch=1 n=e5 v=0
207812 On ch=1 n=g#4 v=97
207842 On ch=1 n=e4 v=0
207886 On ch=1 n=b4 v=76
207898 On ch=1 n=g#4 v=0
207978 On ch=1 n=b4 v=0
208012 On ch=1 n=g#5 v=81
208018 On ch=1 n=b5 v=89
208020 On ch=1 n=d5 v=79
208094 On ch=1 n=d5 v=0
208130 On ch=1 n=b5 v=0
208166 On ch=1 n=b4 v=71
208192 On ch=1 n=g#5 v=0
208242 On ch=1 n=e5 v=84
208278 On ch=1 n=g#4 v=76
208292 On ch=1 n=e5 v=0
208330 On ch=1 n=b4 v=0
208366 On ch=1 n=g#4 v=0
208372 On ch=1 n=e4 v=71
208458 On ch=1 n=e4 v=0
208516 Par ch=1 c=64 v=63
208548 On ch=1 n=c6 v=84
208550 On ch=1 n=f5 v=75
208552 On ch=1 n=f6 v=82
208552 On ch=1 n=g#3 v=88
208570 Par ch=1 c=64 v=127
208656 On ch=1 n=g#3 v=0
208700 On ch=1 n=f4 v=73
208718 On ch=1 n=f5 v=0
208748 On ch=1 n=f6 v=0
208832 On ch=1 n=g#4 v=83
208838 On ch=1 n=c6 v=0
208844 On ch=1 n=f4 v=0
208888 On ch=1 n=g#4 v=0
208910 On ch=1 n=c5 v=82
208976 On ch=1 n=c5 v=0
209018 On ch=1 n=g6 v=98
209026 On ch=1 n=d6 v=96
209028 On ch=1 n=g5 v=80
209036 On ch=1 n=d5 v=87
209100 On ch=1 n=g5 v=0
209122 On ch=1 n=d6 v=0
209126 On ch=1 n=g6 v=0
209144 On ch=1 n=b4 v=78
209156 On ch=1 n=d5 v=0
209240 On ch=1 n=g#4 v=70
209280 On ch=1 n=b4 v=0
209332 On ch=1 n=e4 v=82
209376 On ch=1 n=g#4 v=0
209400 On ch=1 n=e4 v=0
209486 On ch=1 n=e6 v=97
209492 On ch=1 n=b5 v=84
209500 On ch=1 n=e5 v=67
209506 Par ch=1 c=64 v=63
209518 On ch=1 n=g#3 v=58
209550 Par ch=1 c=64 v=127
209552 On ch=1 n=g#3 v=0
209624 On ch=1 n=e4 v=80
209660 On ch=1 n=e6 v=0
209684 On ch=1 n=b5 v=0
209708 On ch=1 n=e5 v=0
209766 On ch=1 n=g#4 v=85
209768 On ch=1 n=e4 v=0
209846 On ch=1 n=g#4 v=0
209878 On ch=1 n=b4 v=61
209952 On ch=1 n=b4 v=0
210026 On ch=1 n=b5 v=68
210030 On ch=1 n=e5 v=62
210052 On ch=1 n=d5 v=37
210166 Par ch=1 c=67 v=127
210194 On ch=1 n=b4 v=51
210276 On ch=1 n=g#4 v=70
210292 On ch=1 n=b4 v=0
210364 On ch=1 n=g#4 v=0
210406 On ch=1 n=e4 v=39
210456 On ch=1 n=e4 v=0
210518 On ch=1 n=g#3 v=80
210630 On ch=1 n=g#3 v=0
210644 On ch=1 n=e4 v=76
210752 On ch=1 n=d5 v=0
210772 On ch=1 n=g#4 v=90
210800 On ch=1 n=e4 v=0
210850 On ch=1 n=g#4 v=0
210864 On ch=1 n=b4 v=67
210950 On ch=1 n=b4 v=0
210982 On ch=1 n=d5 v=70
211108 On ch=1 n=b5 v=0
211120 On ch=1 n=b4 v=51
211148 On ch=1 n=d5 v=0
211156 On ch=1 n=e5 v=0
211226 On ch=1 n=g#4 v=57
211232 On ch=1 n=b4 v=0
211318 On ch=1 n=g#4 v=0
211362 On ch=1 n=e4 v=51
211488 On ch=1 n=g#3 v=57
211550 Par ch=1 c=64 v=63
211552 Par ch=1 c=64 v=127
211554 On ch=1 n=d4 v=87
211576 On ch=1 n=e4 v=0
211612 On ch=1 n=d4 v=0
211708 On ch=1 n=g#3 v=0
211778 On ch=1 n=e4 v=72
211922 On ch=1 n=g#4 v=72
211966 On ch=1 n=e4 v=0
212050 On ch=1 n=b4 v=75
212082 On ch=1 n=g#4 v=0
212112 On ch=1 n=b4 v=0
212252 On ch=1 n=b3 v=104
212294 On ch=1 n=d5 v=44
212294 Par ch=1 c=64 v=63
212298 On ch=1 n=e5 v=39
212318 Par ch=1 c=64 v=127
212410 On ch=1 n=g#5 v=73
212468 On ch=1 n=d5 v=0
212468 On ch=1 n=b3 v=0
212480 On ch=1 n=e5 v=0
212552 On ch=1 n=b5 v=76
212576 On ch=1 n=g#5 v=0
212656 On ch=1 n=e6 v=88
212662 On ch=1 n=b5 v=0
212722 On ch=1 n=e6 v=0
212846 On ch=1 n=d6 v=86
212854 On ch=1 n=d5 v=75
212864 On ch=1 n=g#5 v=96
212982 On ch=1 n=d6 v=0
212984 On ch=1 n=d5 v=0
212986 On ch=1 n=g#5 v=0
212994 On ch=1 n=d#6 v=99
213112 On ch=1 n=g#6 v=96
213130 On ch=1 n=d#6 v=0
213190 On ch=1 n=b6 v=95
213228 On ch=1 n=g#6 v=0
213278 On ch=1 n=b6 v=0
213288 On ch=1 n=b4 v=92
213296 On ch=1 n=b5 v=103
213332 On ch=1 n=d6 v=73
213334 On ch=1 n=e6 v=88
213366 On ch=1 n=b4 v=0
213386 On ch=1 n=b5 v=0
213412 On ch=1 n=g#6 v=100
213424 On ch=1 n=d6 v=0
213430 On ch=1 n=e6 v=0
213504 On ch=1 n=b6 v=91
213510 On ch=1 n=g#6 v=0
213534 Par ch=1 c=67 v=0
213578 On ch=1 n=e7 v=100
213596 On ch=1 n=b6 v=0
213628 On ch=1 n=e7 v=0
213680 On ch=1 n=d6 v=63
213682 On ch=1 n=d7 v=103
213702 On ch=1 n=g#6 v=104
213738 On ch=1 n=d7 v=0
213770 On ch=1 n=d6 v=0
213774 On ch=1 n=g#6 v=0
213818 On ch=1 n=d#7 v=107
213920 On ch=1 n=g#7 v=101
213936 On ch=1 n=d#7 v=0
213970 On ch=1 n=g7 v=63
213986 On ch=1 n=b7 v=95
213992 On ch=1 n=g#7 v=0
214004 On ch=1 n=g7 v=0
214046 On ch=1 n=b7 v=0
214054 On ch=1 n=b5 v=84
214066 On ch=1 n=b6 v=107
214104 On ch=1 n=d7 v=75
214108 On ch=1 n=e7 v=86
214130 On ch=1 n=b6 v=0
214136 On ch=1 n=b5 v=0
214178 On ch=1 n=g#7 v=109
214200 On ch=1 n=d7 v=0
214204 On ch=1 n=e7 v=0
214230 On ch=1 n=a7 v=57
214262 On ch=1 n=g#7 v=0
214266 On ch=1 n=b7 v=85
214296 On ch=1 n=a7 v=0
214352 On ch=1 n=e8 v=94
214370 On ch=1 n=b7 v=0
214414 On ch=1 n=e8 v=0
214438 On ch=1 n=d#7 v=118
214442 On ch=1 n=g#6 v=105
214498 On ch=1 n=d#7 v=0
214532 On ch=1 n=g#6 v=0
214574 On ch=1 n=b7 v=104
214594 On ch=1 n=e7 v=79
214596 On ch=1 n=d7 v=82
214644 On ch=1 n=b7 v=0
214670 On ch=1 n=b6 v=89
214680 On ch=1 n=e7 v=0
214688 On ch=1 n=d7 v=0
214738 On ch=1 n=b6 v=0
214748 On ch=1 n=d7 v=84
214752 On ch=1 n=e7 v=101
214758 On ch=1 n=b7 v=87
214766 On ch=1 n=a7 v=81
214798 On ch=1 n=a7 v=0
214812 On ch=1 n=b7 v=0
214826 On ch=1 n=e7 v=0
214838 On ch=1 n=d7 v=0
214868 On ch=1 n=g#5 v=116
214930 On ch=1 n=g#5 v=0
214980 On ch=1 n=b6 v=100
214994 On ch=1 n=d6 v=84
214996 On ch=1 n=e6 v=76
215042 On ch=1 n=b6 v=0
215082 On ch=1 n=e6 v=0
215084 On ch=1 n=b5 v=81
215108 On ch=1 n=d6 v=0
215142 On ch=1 n=b5 v=0
215164 On ch=1 n=d6 v=64
215168 On ch=1 n=b6 v=82
215176 On ch=1 n=e6 v=66
215224 On ch=1 n=b6 v=0
215232 On ch=1 n=d6 v=0
215236 On ch=1 n=e6 v=0
215300 On ch=1 n=g#4 v=115
215360 On ch=1 n=g#4 v=0
215394 On ch=1 n=b5 v=88
215398 On ch=1 n=e5 v=90
215400 On ch=1 n=g#5 v=93
215444 On ch=1 n=b5 v=0
215478 On ch=1 n=e5 v=0
215522 On ch=1 n=d#5 v=97
215558 On ch=1 n=g#5 v=0
215614 On ch=1 n=d5 v=90
215626 On ch=1 n=d#5 v=0
215702 On ch=1 n=d5 v=0
215722 On ch=1 n=g#3 v=100
215738 On ch=1 n=c#5 v=85
215786 On ch=1 n=g#3 v=0
215828 On ch=1 n=c5 v=86
215832 On ch=1 n=c#5 v=0
215906 On ch=1 n=c5 v=0
215936 On ch=1 n=b4 v=81
216048 On ch=1 n=a#4 v=98
216068 On ch=1 n=b4 v=0
216112 On ch=1 n=a#4 v=0
216162 On ch=1 n=g#2 v=101
216266 Par ch=1 c=64 v=63
216282 Par ch=1 c=64 v=0
216300 On ch=1 n=e4 v=84
216306 On ch=1 n=b4 v=61
216312 On ch=1 n=g#4 v=83
216348 Par ch=1 c=64 v=63
216368 Par ch=1 c=64 v=127
216404 On ch=1 n=b4 v=0
216444 On ch=1 n=e4 v=0
216454 On ch=1 n=d#4 v=83
216460 On ch=1 n=g#2 v=0
216516 On ch=1 n=g#4 v=0
216574 On ch=1 n=d#4 v=0
216576 On ch=1 n=d4 v=66
216700 On ch=1 n=d4 v=0
216748 On ch=1 n=a1 v=73
216752 On ch=1 n=c#4 v=65
216900 On ch=1 n=c#4 v=0
216904 On ch=1 n=c4 v=61
216906 On ch=1 n=a1 v=0
217070 On ch=1 n=c4 v=0
217078 On ch=1 n=b3 v=55
217278 On ch=1 n=b3 v=0
217304 On ch=1 n=a#3 v=47
217376 Par ch=1 c=67 v=127
217418 On ch=1 n=a#3 v=0
217644 On ch=1 n=g#3 v=65
217678 On ch=1 n=f#5 v=86
217684 On ch=1 n=c#5 v=44
217736 Par ch=1 c=67 v=0
217758 Par ch=1 c=64 v=63
217762 Par ch=1 c=64 v=127
217954 On ch=1 n=c#4 v=68
217976 On ch=1 n=g#3 v=0
218124 On ch=1 n=f#4 v=67
218246 On ch=1 n=a#4 v=74
218254 On ch=1 n=f#5 v=0
218282 On ch=1 n=f#4 v=0
218330 On ch=1 n=c#4 v=0
218374 On ch=1 n=c#5 v=0
218386 On ch=1 n=a#4 v=0
218404 On ch=1 n=g#5 v=86
218414 On ch=1 n=d#5 v=70
218542 On ch=1 n=c5 v=74
218682 On ch=1 n=g#4 v=86
218686 On ch=1 n=c5 v=0
218688 On ch=1 n=d#5 v=0
218738 On ch=1 n=g#5 v=0
218764 On ch=1 n=d#4 v=87
218776 On ch=1 n=g#4 v=0
218864 On ch=1 n=d#4 v=0
218900 Par ch=1 c=64 v=63
218902 On ch=1 n=g#3 v=101
218910 Par ch=1 c=64 v=0
218914 On ch=1 n=f5 v=97
218920 On ch=1 n=c5 v=82
218950 Par ch=1 c=64 v=63
218962 Par ch=1 c=64 v=127
218970 On ch=1 n=g#3 v=0
219038 On ch=1 n=c5 v=0
219068 On ch=1 n=f4 v=78
219168 On ch=1 n=f5 v=0
219198 On ch=1 n=a#4 v=91
219224 On ch=1 n=f4 v=0
219308 On ch=1 n=a#4 v=0
219310 On ch=1 n=d5 v=93
219390 On ch=1 n=d5 v=0
219434 On ch=1 n=c6 v=101
219438 Par ch=1 c=64 v=63
219440 On ch=1 n=f5 v=91
219446 On ch=1 n=g#4 v=86
219458 On ch=1 n=d#4 v=69
219486 Par ch=1 c=64 v=127
219558 On ch=1 n=c6 v=0
219568 On ch=1 n=g#4 v=0
219572 On ch=1 n=f5 v=0
219578 On ch=1 n=c5 v=71
219588 On ch=1 n=d#4 v=0
219624 On ch=1 n=c5 v=0
219706 On ch=1 n=c5 v=84
219712 On ch=1 n=f5 v=84
219728 On ch=1 n=a#4 v=77
219730 On ch=1 n=f4 v=63
219746 On ch=1 n=c5 v=0
219776 On ch=1 n=f5 v=0
219840 On ch=1 n=d5 v=76
219854 On ch=1 n=a#4 v=0
219906 On ch=1 n=d5 v=0
219980 On ch=1 n=g4 v=63
219992 On ch=1 n=f4 v=0
219992 On ch=1 n=c5 v=76
220002 Par ch=1 c=64 v=63
220008 Par ch=1 c=64 v=0
220084 On ch=1 n=e5 v=83
220092 Par ch=1 c=64 v=63
220100 Par ch=1 c=64 v=127
220100 On ch=1 n=c7 v=111
220162 On ch=1 n=e5 v=0
220166 On ch=1 n=c5 v=0
220214 On ch=1 n=g4 v=0
220358 On ch=1 n=g6 v=80
220448 On ch=1 n=c7 v=0
220514 On ch=1 n=g#2 v=88
220544 On ch=1 n=g#3 v=76
220546 On ch=1 n=e6 v=50
220596 On ch=1 n=g#2 v=0
220606 On ch=1 n=g#3 v=0
220628 On ch=1 n=g6 v=0
220668 On ch=1 n=c6 v=81
220676 On ch=1 n=e6 v=0
220770 On ch=1 n=c6 v=0
220818 On ch=1 n=d7 v=108
220950 On ch=1 n=a6 v=98
220988 On ch=1 n=d7 v=0
221076 On ch=1 n=f#5 v=88
221080 On ch=1 n=f#6 v=96
221092 On ch=1 n=d5 v=75
221098 On ch=1 n=a4 v=62
221120 On ch=1 n=a6 v=0
221182 On ch=1 n=f#6 v=0
221192 On ch=1 n=d6 v=79
221276 On ch=1 n=d6 v=0
221316 On ch=1 n=b6 v=98
221328 On ch=1 n=a4 v=0
221342 On ch=1 n=d5 v=0
221386 On ch=1 n=f#5 v=0
221458 On ch=1 n=f#6 v=88
221498 On ch=1 n=b6 v=0
221596 On ch=1 n=g#5 v=80
221602 On ch=1 n=d6 v=83
221604 On ch=1 n=e5 v=66
221622 On ch=1 n=b4 v=60
221650 On ch=1 n=f#6 v=0
221704 On ch=1 n=d6 v=0
221706 On ch=1 n=e5 v=0
221708 On ch=1 n=b5 v=76
221730 On ch=1 n=g#5 v=0
221800 On ch=1 n=b4 v=0
221854 On ch=1 n=f#5 v=74
221868 On ch=1 n=d5 v=67
221870 On ch=1 n=f#6 v=88
221880 On ch=1 n=a4 v=42
221890 On ch=1 n=b5 v=0
221908 Par ch=1 c=64 v=63
221956 Par ch=1 c=64 v=127
222006 On ch=1 n=d5 v=0
222024 On ch=1 n=d6 v=64
222052 On ch=1 n=f#5 v=0
222080 On ch=1 n=a4 v=0
222178 On ch=1 n=e5 v=63
222182 On ch=1 n=c#6 v=84
222192 On ch=1 n=g#5 v=61
222200 On ch=1 n=b4 v=35
222232 On ch=1 n=d6 v=0
222282 On ch=1 n=e5 v=0
222310 On ch=1 n=g#5 v=0
222322 On ch=1 n=c#6 v=0
222322 On ch=1 n=f#6 v=0
222326 On ch=1 n=b4 v=0
222328 On ch=1 n=b5 v=83
222384 On ch=1 n=b5 v=0
222490 On ch=1 n=g#4 v=76
222592 On ch=1 n=c#7 v=113
222594 Par ch=1 c=64 v=63
222604 Par ch=1 c=64 v=0
222610 On ch=1 n=f#6 v=85
222648 Par ch=1 c=64 v=63
222666 Par ch=1 c=64 v=127
222764 On ch=1 n=c#5 v=87
222786 On ch=1 n=g#4 v=0
222884 On ch=1 n=f#5 v=82
222914 On ch=1 n=f#6 v=0
222940 On ch=1 n=c#7 v=0
223004 On ch=1 n=a#5 v=101
223054 On ch=1 n=f#5 v=0
223074 On ch=1 n=c#5 v=0
223124 On ch=1 n=a#5 v=0
223142 On ch=1 n=d#7 v=109
223156 On ch=1 n=g#6 v=100
223288 On ch=1 n=c6 v=97
223372 On ch=1 n=d#7 v=0
223396 On ch=1 n=g#6 v=0
223416 On ch=1 n=g#5 v=94
223448 On ch=1 n=c6 v=0
223504 On ch=1 n=d#5 v=101
223534 On ch=1 n=g#5 v=0
223664 On ch=1 n=g#4 v=82
223678 On ch=1 n=c7 v=111
223692 On ch=1 n=g#6 v=85
223694 On ch=1 n=g6 v=91
223706 Par ch=1 c=64 v=63
223712 On ch=1 n=d#5 v=0
223714 Par ch=1 c=64 v=0
223748 Par ch=1 c=64 v=63
223762 On ch=1 n=g#4 v=0
223764 Par ch=1 c=64 v=127
223868 On ch=1 n=f5 v=80
224004 On ch=1 n=a#5 v=79
224018 On ch=1 n=g6 v=0
224040 On ch=1 n=f5 v=0
224118 On ch=1 n=a#5 v=0
224122 On ch=1 n=d6 v=70
224198 On ch=1 n=d6 v=0
224250 On ch=1 n=f6 v=87
224260 On ch=1 n=d#5 v=65
224264 Par ch=1 c=64 v=63
224266 On ch=1 n=g#5 v=63
224290 On ch=1 n=g#6 v=0
224294 Par ch=1 c=64 v=127
224340 On ch=1 n=c7 v=0
224400 On ch=1 n=c6 v=79
224408 On ch=1 n=d#5 v=0
224462 On ch=1 n=g#5 v=0
224472 On ch=1 n=c6 v=0
224504 On ch=1 n=f6 v=0
224560 On ch=1 n=c6 v=84
224566 On ch=1 n=f5 v=73
224574 On ch=1 n=a#5 v=79
224608 On ch=1 n=c6 v=0
224708 On ch=1 n=a#5 v=0
224716 On ch=1 n=f5 v=0
224716 On ch=1 n=d6 v=71
224766 On ch=1 n=d6 v=0
224924 On ch=1 n=f#7 v=97
224928 On ch=1 n=f#5 v=72
224930 On ch=1 n=a#5 v=74
224946 Par ch=1 c=64 v=63
224954 Par ch=1 c=64 v=0
224956 On ch=1 n=c#5 v=70
224980 Par ch=1 c=64 v=63
225002 Par ch=1 c=64 v=127
225098 On ch=1 n=a#5 v=0
225108 On ch=1 n=f#5 v=0
225140 On ch=1 n=c#5 v=0
225170 On ch=1 n=c#7 v=68
225374 On ch=1 n=g#3 v=75
225378 On ch=1 n=g#2 v=77
225388 On ch=1 n=a#6 v=80
225468 On ch=1 n=c#7 v=0
225482 On ch=1 n=g#2 v=0
225486 On ch=1 n=g#3 v=0
225486 On ch=1 n=f#7 v=0
225586 On ch=1 n=f#6 v=57
225614 On ch=1 n=a#6 v=0
225708 On ch=1 n=f#6 v=0
225794 On ch=1 n=g#7 v=88
225998 On ch=1 n=d#7 v=63
226170 On ch=1 n=g#5 v=60
226190 On ch=1 n=c7 v=69
226198 On ch=1 n=d#5 v=48
226202 On ch=1 n=c6 v=41
226284 On ch=1 n=g#7 v=0
226320 On ch=1 n=d#7 v=0
226350 On ch=1 n=g#6 v=67
226372 On ch=1 n=c7 v=0
226448 On ch=1 n=g#6 v=0
226564 On ch=1 n=a7 v=82
226652 On ch=1 n=d#5 v=0
226658 On ch=1 n=g#5 v=0
226676 On ch=1 n=c6 v=0
226786 On ch=1 n=e7 v=59
227026 On ch=1 n=c#7 v=53
227028 On ch=1 n=c#6 v=37
227038 On ch=1 n=a5 v=35
227062 On ch=1 n=e5 v=32
227192 On ch=1 n=a7 v=0
227294 On ch=1 n=a6 v=43
227302 On ch=1 n=e7 v=0
227348 On ch=1 n=c#7 v=0
227462 On ch=1 n=a6 v=0
227586 On ch=1 n=b7 v=73
227600 On ch=1 n=f#7 v=65
227670 On ch=1 n=e5 v=0
227680 On ch=1 n=a5 v=0
227686 On ch=1 n=c#6 v=0
228318 On ch=1 n=d#6 v=22
228328 On ch=1 n=b6 v=46
228330 On ch=1 n=f#5 v=45
228332 On ch=1 n=a6 v=22
228342 On ch=1 n=b5 v=42
228422 Par ch=1 c=64 v=63
228458 Par ch=1 c=64 v=127
228644 On ch=1 n=d#6 v=0
228660 On ch=1 n=b5 v=0
228668 On ch=1 n=b7 v=0
228698 On ch=1 n=a6 v=0
228710 On ch=1 n=b6 v=0
228738 On ch=1 n=f#5 v=0
228836 On ch=1 n=f#7 v=0
229476 On ch=1 n=g#3 v=59
229482 On ch=1 n=d#6 v=48
229520 Par ch=1 c=64 v=63
229548 Par ch=1 c=64 v=0
229558 Par ch=1 c=64 v=63
229604 Par ch=1 c=64 v=127
229738 On ch=1 n=g#3 v=0
229952 On ch=1 n=g#6 v=59
230062 On ch=1 n=d#6 v=0
230244 On ch=1 n=g#6 v=0
230340 On ch=1 n=d#7 v=66
230342 On ch=1 n=b5 v=45
230354 On ch=1 n=e5 v=34
230360 Par ch=1 c=67 v=127
230488 On ch=1 n=e5 v=0
230524 On ch=1 n=b5 v=0
230662 On ch=1 n=f#7 v=77
230666 On ch=1 n=d#7 v=0
230910 On ch=1 n=d#7 v=81
230916 On ch=1 n=e6 v=55
230918 On ch=1 n=b6 v=34
230954 On ch=1 n=f#7 v=0
231034 On ch=1 n=b6 v=0
231072 On ch=1 n=e6 v=0
231106 On ch=1 n=d#7 v=0
231166 On ch=1 n=g#6 v=70
231366 On ch=1 n=g#6 v=0
231402 On ch=1 n=e6 v=52
231406 On ch=1 n=c#6 v=70
231412 On ch=1 n=a5 v=42
231462 On ch=1 n=e6 v=0
231516 On ch=1 n=g#6 v=75
231520 On ch=1 n=a5 v=0
231530 On ch=1 n=c#6 v=0
231626 On ch=1 n=c#7 v=79
231656 On ch=1 n=g#6 v=0
231718 On ch=1 n=e7 v=70
231732 On ch=1 n=c#7 v=0
231802 Par ch=1 c=64 v=63
231812 On ch=1 n=e7 v=0
231812 Par ch=1 c=64 v=0
231816 On ch=1 n=g#3 v=79
231868 On ch=1 n=d#6 v=92
231870 Par ch=1 c=64 v=63
231886 Par ch=1 c=64 v=127
231928 On ch=1 n=g#3 v=0
232080 On ch=1 n=g#6 v=84
232102 On ch=1 n=d#6 v=0
232262 On ch=1 n=g#6 v=0
232330 On ch=1 n=d#7 v=87
232330 On ch=1 n=b5 v=57
232332 On ch=1 n=e5 v=54
232404 On ch=1 n=e5 v=0
232434 On ch=1 n=b5 v=0
232552 On ch=1 n=f#7 v=76
232576 On ch=1 n=d#7 v=0
232754 On ch=1 n=b6 v=48
232778 On ch=1 n=e6 v=54
232780 On ch=1 n=d#7 v=77
232788 On ch=1 n=f#7 v=0
232880 On ch=1 n=b6 v=0
232884 On ch=1 n=e6 v=0
232930 On ch=1 n=d#7 v=0
232992 On ch=1 n=g#6 v=72
233168 On ch=1 n=g#6 v=0
233212 On ch=1 n=e6 v=56
233216 On ch=1 n=c#6 v=63
233218 On ch=1 n=a5 v=37
233262 On ch=1 n=e6 v=0
233304 On ch=1 n=a5 v=0
233318 On ch=1 n=g#6 v=66
233324 On ch=1 n=c#6 v=0
233434 On ch=1 n=c#7 v=66
233466 On ch=1 n=g#6 v=0
233552 On ch=1 n=c#7 v=0
233564 On ch=1 n=e7 v=47
233656 On ch=1 n=e7 v=0
233694 On ch=1 n=g#3 v=57
233710 Par ch=1 c=64 v=63
233720 Par ch=1 c=64 v=0
233738 On ch=1 n=d#6 v=81
233762 Par ch=1 c=64 v=63
233790 Par ch=1 c=64 v=127
233840 On ch=1 n=g#3 v=0
233960 On ch=1 n=g#6 v=73
233968 On ch=1 n=d#6 v=0
234086 On ch=1 n=g#6 v=0
234186 On ch=1 n=d#7 v=69
234194 On ch=1 n=b5 v=56
234200 On ch=1 n=e5 v=55
234282 On ch=1 n=e5 v=0
234312 On ch=1 n=b5 v=0
234420 On ch=1 n=d#7 v=0
234420 On ch=1 n=f#7 v=54
234660 On ch=1 n=g#6 v=64
234666 On ch=1 n=f#7 v=0
234672 On ch=1 n=e6 v=39
234672 On ch=1 n=b5 v=37
234768 On ch=1 n=b5 v=0
234810 On ch=1 n=e6 v=0
234918 On ch=1 n=g#6 v=0
234920 On ch=1 n=d#7 v=68
235216 On ch=1 n=b6 v=43
235248 On ch=1 n=g#7 v=57
235252 On ch=1 n=e6 v=30
235256 On ch=1 n=d#7 v=0
235284 On ch=1 n=b6 v=0
235306 On ch=1 n=e6 v=0
235560 On ch=1 n=b7 v=39
235570 On ch=1 n=g#7 v=0
235764 On ch=1 n=b7 v=0
236032 On ch=1 n=g#2 v=54
236034 On ch=1 n=g#6 v=53
236044 On ch=1 n=g#3 v=40
236062 Par ch=1 c=64 v=63
236070 Par ch=1 c=64 v=0
236154 Par ch=1 c=64 v=63
236162 Par ch=1 c=64 v=127
236378 On ch=1 n=g#2 v=0
236418 On ch=1 n=g#3 v=0
236450 On ch=1 n=c#7 v=57
236506 On ch=1 n=g#6 v=0
236636 On ch=1 n=c#7 v=0
236800 On ch=1 n=g#7 v=67
236808 On ch=1 n=e6 v=36
236808 On ch=1 n=a5 v=35
236932 On ch=1 n=a5 v=0
236956 On ch=1 n=e6 v=0
237074 On ch=1 n=c#8 v=76
237096 On ch=1 n=g#7 v=0
237310 On ch=1 n=g#7 v=80
237312 On ch=1 n=c#8 v=0
237332 On ch=1 n=e7 v=71
237350 On ch=1 n=a6 v=51
237398 On ch=1 n=e7 v=0
237408 On ch=1 n=a6 v=0
237498 On ch=1 n=g#7 v=0
237562 On ch=1 n=c#7 v=75
237702 On ch=1 n=c#7 v=0
237740 On ch=1 n=d5 v=57
237758 On ch=1 n=f#5 v=63
237784 Par ch=1 c=64 v=63
237796 Par ch=1 c=64 v=0
237814 On ch=1 n=c6 v=69
237820 Par ch=1 c=64 v=63
237836 On ch=1 n=f#6 v=77
237850 Par ch=1 c=64 v=127
237890 On ch=1 n=c6 v=0
237920 On ch=1 n=f#5 v=0
237932 On ch=1 n=c7 v=81
237942 On ch=1 n=d5 v=0
237946 On ch=1 n=f#6 v=0
238050 On ch=1 n=e7 v=79
238058 On ch=1 n=c7 v=0
238156 On ch=1 n=g#7 v=72
238178 On ch=1 n=e7 v=0
238294 On ch=1 n=g#7 v=0
238318 On ch=1 n=g#2 v=75
238320 On ch=1 n=g#3 v=74
238334 On ch=1 n=g#6 v=77
238358 Par ch=1 c=64 v=63
238370 Par ch=1 c=64 v=0
238394 Par ch=1 c=64 v=63
238420 Par ch=1 c=64 v=127
238502 On ch=1 n=g#2 v=0
238544 On ch=1 n=g#3 v=0
238624 On ch=1 n=c#7 v=75
238644 On ch=1 n=g#6 v=0
238890 On ch=1 n=c#7 v=0
238898 On ch=1 n=e6 v=65
238898 On ch=1 n=g#7 v=77
238902 On ch=1 n=a5 v=56
239002 On ch=1 n=a5 v=0
239024 On ch=1 n=e6 v=0
239104 On ch=1 n=c#8 v=73
239136 On ch=1 n=g#7 v=0
239326 On ch=1 n=e7 v=64
239342 On ch=1 n=a6 v=48
239344 On ch=1 n=g#7 v=80
239348 On ch=1 n=c#8 v=0
239396 On ch=1 n=e7 v=0
239422 On ch=1 n=a6 v=0
239530 On ch=1 n=g#7 v=0
239564 On ch=1 n=c#7 v=76
239670 On ch=1 n=c#7 v=0
239762 On ch=1 n=d5 v=42
239774 On ch=1 n=f#5 v=60
239852 On ch=1 n=c6 v=49
239858 Par ch=1 c=64 v=63
239866 On ch=1 n=f#6 v=60
239870 Par ch=1 c=64 v=0
239910 Par ch=1 c=64 v=63
239934 Par ch=1 c=64 v=127
239960 On ch=1 n=c6 v=0
239970 On ch=1 n=c7 v=66
239976 On ch=1 n=f#6 v=0
240002 On ch=1 n=f#5 v=0
240020 On ch=1 n=d5 v=0
240106 On ch=1 n=c7 v=0
240114 On ch=1 n=e7 v=60
240232 On ch=1 n=g#7 v=61
240274 On ch=1 n=e7 v=0
240476 On ch=1 n=g#2 v=72
240482 On ch=1 n=g#7 v=0
240484 On ch=1 n=g#3 v=62
240484 Par ch=1 c=67 v=127
240722 Par ch=1 c=64 v=63
240724 Par ch=1 c=64 v=127
240748 On ch=1 n=g#2 v=0
240776 On ch=1 n=g#6 v=69
240796 On ch=1 n=g#3 v=0
240918 On ch=1 n=g#6 v=0
240930 On ch=1 n=c#7 v=83
241038 On ch=1 n=c#7 v=0
241074 On ch=1 n=g#7 v=77
241230 On ch=1 n=g#7 v=0
241248 On ch=1 n=e7 v=71
241256 On ch=1 n=a6 v=54
241260 On ch=1 n=c#8 v=78
241388 On ch=1 n=c#8 v=0
241388 On ch=1 n=e7 v=0
241404 On ch=1 n=g#7 v=83
241422 On ch=1 n=a6 v=0
241538 On ch=1 n=g#7 v=0
241540 On ch=1 n=c#7 v=84
241656 On ch=1 n=g#6 v=82
241662 On ch=1 n=c#7 v=0
241724 On ch=1 n=g#6 v=0
241780 On ch=1 n=a5 v=64
241794 On ch=1 n=e6 v=68
241922 On ch=1 n=e6 v=0
241934 On ch=1 n=c#6 v=76
242012 On ch=1 n=c#6 v=0
242038 On ch=1 n=g#6 v=87
242138 On ch=1 n=g#6 v=0
242146 On ch=1 n=c#7 v=89
242224 On ch=1 n=c#7 v=0
242250 On ch=1 n=a6 v=68
242256 On ch=1 n=e6 v=60
242282 On ch=1 n=g#7 v=94
242324 On ch=1 n=a6 v=0
242338 On ch=1 n=a5 v=0
242344 On ch=1 n=g#7 v=0
242350 On ch=1 n=e6 v=0
242406 On ch=1 n=c#7 v=86
242524 On ch=1 n=g#6 v=96
242530 On ch=1 n=c#7 v=0
242618 On ch=1 n=g#6 v=0
242632 On ch=1 n=c#6 v=80
242684 On ch=1 n=c#6 v=0
242730 On ch=1 n=e5 v=75
242732 On ch=1 n=a5 v=78
242810 On ch=1 n=g#5 v=90
242882 On ch=1 n=a5 v=0
242894 On ch=1 n=g#5 v=0
242910 On ch=1 n=c#6 v=103
242996 On ch=1 n=c#6 v=0
243008 On ch=1 n=g#6 v=100
243094 On ch=1 n=g#6 v=0
243098 On ch=1 n=e6 v=76
243100 On ch=1 n=a5 v=75
243116 On ch=1 n=c#7 v=100
243170 On ch=1 n=e6 v=0
243188 On ch=1 n=e5 v=0
243196 On ch=1 n=a5 v=0
243200 On ch=1 n=c#7 v=0
243216 On ch=1 n=g#6 v=67
243330 On ch=1 n=c#6 v=90
243340 On ch=1 n=g#6 v=0
243416 On ch=1 n=c#6 v=0
243418 On ch=1 n=g#5 v=87
243450 On ch=1 n=g#5 v=0
243512 On ch=1 n=a4 v=87
243526 On ch=1 n=e5 v=84
243592 On ch=1 n=e5 v=0
243610 On ch=1 n=c#5 v=92
243630 On ch=1 n=a4 v=0
243682 On ch=1 n=c#5 v=0
243702 On ch=1 n=g#5 v=93
243806 On ch=1 n=g#5 v=0
243808 On ch=1 n=c#6 v=105
243888 On ch=1 n=c#6 v=0
243912 On ch=1 n=a5 v=79
243918 On ch=1 n=e5 v=77
243948 On ch=1 n=g#6 v=93
243976 On ch=1 n=a5 v=0
243984 On ch=1 n=e5 v=0
244024 On ch=1 n=g#6 v=0
244074 On ch=1 n=c#6 v=85
244182 On ch=1 n=g#5 v=71
244194 On ch=1 n=c#6 v=0
244264 On ch=1 n=c#5 v=92
244266 On ch=1 n=g#5 v=0
244314 On ch=1 n=c#5 v=0
244360 On ch=1 n=a4 v=83
244366 On ch=1 n=e4 v=84
244438 On ch=1 n=g#4 v=86
244458 On ch=1 n=a4 v=0
244510 On ch=1 n=e4 v=0
244526 On ch=1 n=c#5 v=100
244532 On ch=1 n=g#4 v=0
244610 On ch=1 n=g#5 v=99
244614 On ch=1 n=c#5 v=0
244706 On ch=1 n=g#5 v=0
244712 On ch=1 n=a4 v=92
244712 On ch=1 n=e4 v=99
244728 On ch=1 n=c#6 v=95
244776 On ch=1 n=a4 v=0
244788 On ch=1 n=e4 v=0
244804 On ch=1 n=c#6 v=0
244828 On ch=1 n=g#5 v=92
244914 On ch=1 n=c#5 v=97
244922 On ch=1 n=g#5 v=0
244996 On ch=1 n=g#4 v=88
245004 On ch=1 n=c#5 v=0
245062 On ch=1 n=e4 v=98
245064 On ch=1 n=a4 v=87
245072 On ch=1 n=g#4 v=0
245142 On ch=1 n=a4 v=0
245148 On ch=1 n=e4 v=0
245152 On ch=1 n=g#4 v=86
245230 On ch=1 n=c#5 v=105
245244 On ch=1 n=g#4 v=0
245318 On ch=1 n=c#5 v=0
245328 On ch=1 n=g#5 v=104
245412 On ch=1 n=g#5 v=0
245432 On ch=1 n=a4 v=93
245438 On ch=1 n=e4 v=89
245440 On ch=1 n=c#6 v=101
245510 On ch=1 n=a4 v=0
245530 On ch=1 n=e4 v=0
245534 On ch=1 n=c#6 v=0
245538 On ch=1 n=g#5 v=91
245626 On ch=1 n=c#5 v=103
245654 On ch=1 n=g#5 v=0
245706 On ch=1 n=g#4 v=92
245726 On ch=1 n=c#5 v=0
245784 On ch=1 n=g#4 v=0
245802 On ch=1 n=g#3 v=100
245810 On ch=1 n=e4 v=80
245812 On ch=1 n=a4 v=84
245928 On ch=1 n=g#4 v=80
245998 On ch=1 n=e4 v=0
246008 On ch=1 n=g#4 v=0
246012 On ch=1 n=a4 v=0
246016 On ch=1 n=c#5 v=90
246096 On ch=1 n=c#5 v=0
246114 On ch=1 n=g#5 v=96
246216 On ch=1 n=g#5 v=0
246240 On ch=1 n=a4 v=62
246254 On ch=1 n=c#6 v=82
246260 On ch=1 n=e4 v=59
246352 On ch=1 n=c#6 v=0
246362 On ch=1 n=e4 v=0
246376 On ch=1 n=g#5 v=73
246378 On ch=1 n=a4 v=0
246484 On ch=1 n=c#5 v=76
246486 On ch=1 n=g#5 v=0
246568 On ch=1 n=g#4 v=59
246570 On ch=1 n=c#5 v=0
246646 On ch=1 n=g#4 v=0
246654 On ch=1 n=a4 v=48
246666 On ch=1 n=e4 v=61
246764 On ch=1 n=g#4 v=62
246796 On ch=1 n=e4 v=0
246806 On ch=1 n=a4 v=0
246852 On ch=1 n=g#4 v=0
246858 On ch=1 n=c#5 v=74
246938 On ch=1 n=c#5 v=0
246982 On ch=1 n=g#5 v=67
247114 On ch=1 n=g#5 v=0
247146 On ch=1 n=a4 v=55
247158 On ch=1 n=c#6 v=64
247164 On ch=1 n=e4 v=53
247252 On ch=1 n=c#6 v=0
247308 On ch=1 n=g#5 v=68
247340 On ch=1 n=e4 v=0
247354 On ch=1 n=a4 v=0
247430 On ch=1 n=g#3 v=0
247494 On ch=1 n=g#5 v=0
247500 On ch=1 n=c#5 v=59
247684 On ch=1 n=g#4 v=46
247690 On ch=1 n=c#5 v=0
247812 On ch=1 n=g#4 v=0
247980 On ch=1 n=f#3 v=55
248042 Par ch=1 c=64 v=63
248056 Par ch=1 c=64 v=0
248082 On ch=1 n=g#4 v=71
248084 On ch=1 n=d#4 v=59
248130 Par ch=1 c=64 v=63
248142 Par ch=1 c=64 v=127
248230 On ch=1 n=f#3 v=0
248248 On ch=1 n=g#4 v=0
248276 On ch=1 n=d#4 v=0
248280 On ch=1 n=e4 v=64
248400 On ch=1 n=a4 v=65
248402 On ch=1 n=e4 v=0
248500 On ch=1 n=c5 v=80
248512 On ch=1 n=a4 v=0
248596 On ch=1 n=e5 v=66
248612 On ch=1 n=c5 v=0
248668 On ch=1 n=e5 v=0
248724 On ch=1 n=f#4 v=60
248748 On ch=1 n=d#5 v=88
248788 On ch=1 n=g#5 v=88
248810 On ch=1 n=f#4 v=0
248818 On ch=1 n=d#5 v=0
248866 On ch=1 n=g#5 v=0
248906 On ch=1 n=e5 v=62
248970 On ch=1 n=a5 v=79
248986 On ch=1 n=e5 v=0
249048 On ch=1 n=c6 v=80
249078 On ch=1 n=a5 v=0
249100 On ch=1 n=e6 v=85
249124 On ch=1 n=c6 v=0
249162 On ch=1 n=e6 v=0
249194 On ch=1 n=d#6 v=96
249200 On ch=1 n=f#5 v=87
249242 On ch=1 n=g#6 v=103
249244 On ch=1 n=f#5 v=0
249254 On ch=1 n=d#6 v=0
249320 On ch=1 n=g#6 v=0
249336 On ch=1 n=e6 v=84
249414 On ch=1 n=a6 v=87
249434 On ch=1 n=e6 v=0
249502 On ch=1 n=c7 v=68
249522 On ch=1 n=a6 v=0
249540 On ch=1 n=e7 v=88
249570 On ch=1 n=c7 v=0
249608 On ch=1 n=e7 v=0
249646 On ch=1 n=d#7 v=94
249666 On ch=1 n=f#6 v=66
249694 On ch=1 n=g#7 v=103
249708 On ch=1 n=f#6 v=0
249716 On ch=1 n=d#7 v=0
249772 On ch=1 n=g#7 v=0
249796 On ch=1 n=e7 v=72
249872 On ch=1 n=a7 v=89
249880 On ch=1 n=e7 v=0
249964 On ch=1 n=c8 v=80
249978 On ch=1 n=a7 v=0
250032 On ch=1 n=e8 v=82
250054 On ch=1 n=c8 v=0
250118 On ch=1 n=e8 v=0
250224 On ch=1 n=f#7 v=80
250404 On ch=1 n=g#7 v=80
250524 On ch=1 n=d#8 v=76
250580 On ch=1 n=g#7 v=0
250582 On ch=1 n=f#7 v=0
250596 On ch=1 n=d#8 v=0
250608 On ch=1 n=a7 v=54
250662 On ch=1 n=c8 v=77
250700 On ch=1 n=a7 v=0
250742 On ch=1 n=e8 v=79
250764 On ch=1 n=c8 v=0
250812 On ch=1 n=a8 v=79
250832 On ch=1 n=e8 v=0
250884 On ch=1 n=f#7 v=76
250902 On ch=1 n=a8 v=0
250994 On ch=1 n=a#7 v=67
251048 On ch=1 n=d8 v=76
251096 On ch=1 n=a#7 v=0
251118 On ch=1 n=f#7 v=0
251132 On ch=1 n=b7 v=65
251136 On ch=1 n=d8 v=0
251168 On ch=1 n=d#8 v=77
251196 On ch=1 n=b7 v=0
251226 On ch=1 n=f#8 v=94
251256 On ch=1 n=d#8 v=0
251288 On ch=1 n=b8 v=84
251328 On ch=1 n=f#8 v=0
251362 On ch=1 n=b8 v=0
251394 On ch=1 n=e7 v=63
251452 On ch=1 n=f#7 v=76
251520 On ch=1 n=c#8 v=63
251564 On ch=1 n=e7 v=0
251582 On ch=1 n=c#8 v=0
251582 On ch=1 n=f#7 v=0
251600 On ch=1 n=g7 v=46
251656 On ch=1 n=a#7 v=86
251700 On ch=1 n=g7 v=0
251738 On ch=1 n=d8 v=76
251754 On ch=1 n=a#7 v=0
251812 On ch=1 n=g8 v=78
251828 On ch=1 n=d8 v=0
251864 On ch=1 n=e7 v=59
251946 On ch=1 n=g#7 v=78
251968 On ch=1 n=g8 v=0
252006 On ch=1 n=c8 v=72
252044 On ch=1 n=e7 v=0
252076 On ch=1 n=c8 v=0
252086 On ch=1 n=g#7 v=0
252088 On ch=1 n=a7 v=74
252118 On ch=1 n=c#8 v=76
252172 On ch=1 n=a7 v=0
252200 On ch=1 n=e8 v=82
252228 On ch=1 n=c#8 v=0
252254 On ch=1 n=a8 v=88
252290 On ch=1 n=e8 v=0
252322 On ch=1 n=a8 v=0
252352 On ch=1 n=d7 v=70
252404 On ch=1 n=e7 v=60
252456 On ch=1 n=b7 v=57
252516 On ch=1 n=d7 v=0
252526 On ch=1 n=b7 v=0
252566 On ch=1 n=f7 v=35
252592 On ch=1 n=e7 v=0
252600 On ch=1 n=g#7 v=78
252634 On ch=1 n=f7 v=0
252678 On ch=1 n=c8 v=67
252716 On ch=1 n=g#7 v=0
252744 On ch=1 n=f8 v=68
252784 On ch=1 n=c8 v=0
252836 On ch=1 n=d7 v=62
252862 On ch=1 n=f8 v=0
252892 On ch=1 n=f#7 v=59
252970 On ch=1 n=a#7 v=64
253028 On ch=1 n=f#7 v=0
253038 On ch=1 n=a#7 v=0
253046 On ch=1 n=g7 v=69
253050 On ch=1 n=d7 v=0
253098 On ch=1 n=a#7 v=84
253130 On ch=1 n=g7 v=0
253154 On ch=1 n=d8 v=84
253174 On ch=1 n=a#7 v=0
253222 On ch=1 n=g8 v=83
253246 On ch=1 n=d8 v=0
253288 On ch=1 n=c7 v=55
253292 On ch=1 n=g8 v=0
253342 On ch=1 n=d7 v=74
253404 On ch=1 n=a7 v=67
253460 On ch=1 n=c7 v=0
253488 On ch=1 n=d#7 v=78
253498 On ch=1 n=a7 v=0
253498 On ch=1 n=d7 v=0
253570 On ch=1 n=f#7 v=82
253600 On ch=1 n=d#7 v=0
253624 On ch=1 n=a#7 v=88
253662 On ch=1 n=f#7 v=0
253698 On ch=1 n=d#8 v=72
253722 On ch=1 n=a#7 v=0
253724 On ch=1 n=c7 v=60
253796 On ch=1 n=d#8 v=0
253810 On ch=1 n=e7 v=71
253884 On ch=1 n=g#7 v=73
253928 On ch=1 n=g#7 v=0
253934 On ch=1 n=c7 v=0
253934 On ch=1 n=f7 v=71
253936 On ch=1 n=e7 v=0
253978 On ch=1 n=a7 v=76
254024 On ch=1 n=f7 v=0
254046 On ch=1 n=c8 v=86
254078 On ch=1 n=a7 v=0
254098 On ch=1 n=f8 v=74
254142 On ch=1 n=c8 v=0
254170 On ch=1 n=f8 v=0
254204 On ch=1 n=a6 v=73
254278 On ch=1 n=b6 v=55
254332 On ch=1 n=f#7 v=69
254352 On ch=1 n=a6 v=0
254362 On ch=1 n=b6 v=0
254380 On ch=1 n=f#7 v=0
254394 On ch=1 n=c7 v=74
254442 On ch=1 n=d#7 v=69
254472 On ch=1 n=c7 v=0
254496 On ch=1 n=g7 v=88
254520 On ch=1 n=d#7 v=0
254542 On ch=1 n=c8 v=72
254604 On ch=1 n=g7 v=0
254606 On ch=1 n=f#6 v=71
254626 On ch=1 n=c8 v=0
254674 On ch=1 n=g#6 v=81
254752 On ch=1 n=d#7 v=89
254788 On ch=1 n=g#6 v=0
254806 On ch=1 n=a6 v=72
254814 On ch=1 n=d#7 v=0
254826 On ch=1 n=f#6 v=0
254858 On ch=1 n=c7 v=73
254896 On ch=1 n=a6 v=0
254920 On ch=1 n=e7 v=92
254946 On ch=1 n=c7 v=0
254960 On ch=1 n=a7 v=80
255006 On ch=1 n=e7 v=0
255008 On ch=1 n=d#6 v=76
255042 On ch=1 n=a7 v=0
255092 On ch=1 n=f6 v=84
255142 On ch=1 n=d#6 v=0
255150 On ch=1 n=c7 v=77
255206 On ch=1 n=f6 v=0
255234 On ch=1 n=c7 v=0
255240 On ch=1 n=f#6 v=86
255302 On ch=1 n=a#6 v=88
255332 On ch=1 n=f#6 v=0
255358 On ch=1 n=c#7 v=94
255404 On ch=1 n=a#6 v=0
255416 On ch=1 n=f#7 v=64
255452 On ch=1 n=c#7 v=0
255452 On ch=1 n=c6 v=72
255486 On ch=1 n=f#7 v=0
255500 On ch=1 n=d6 v=75
255566 On ch=1 n=a6 v=76
255624 On ch=1 n=c6 v=0
255628 On ch=1 n=d#6 v=80
255636 On ch=1 n=d6 v=0
255648 On ch=1 n=a6 v=0
255702 On ch=1 n=f#6 v=82
255752 On ch=1 n=d#6 v=0
255768 On ch=1 n=a#6 v=85
255816 On ch=1 n=f#6 v=0
255830 On ch=1 n=d#7 v=84
255880 On ch=1 n=a5 v=41
255882 On ch=1 n=a#6 v=0
255918 On ch=1 n=d#7 v=0
255976 On ch=1 n=b5 v=72
255998 On ch=1 n=a5 v=0
256058 On ch=1 n=f#6 v=75
256062 On ch=1 n=b5 v=0
256086 On ch=1 n=c6 v=76
256094 On ch=1 n=f#6 v=0
256138 On ch=1 n=e6 v=78
256172 On ch=1 n=c6 v=0
256196 On ch=1 n=g6 v=81
256228 On ch=1 n=e6 v=0
256236 On ch=1 n=c7 v=70
256294 On ch=1 n=g6 v=0
256308 On ch=1 n=c7 v=0
256314 On ch=1 n=f#5 v=82
256372 On ch=1 n=g#5 v=72
256444 On ch=1 n=d#6 v=74
256496 On ch=1 n=a5 v=63
256498 On ch=1 n=f#5 v=0
256504 On ch=1 n=g#5 v=0
256522 On ch=1 n=d#6 v=0
256546 On ch=1 n=c6 v=74
256582 On ch=1 n=a5 v=0
256606 On ch=1 n=e6 v=87
256636 On ch=1 n=c6 v=0
256648 On ch=1 n=a6 v=72
256696 On ch=1 n=d#5 v=76
256704 On ch=1 n=e6 v=0
256734 On ch=1 n=a6 v=0
256790 On ch=1 n=f5 v=61
256842 On ch=1 n=c6 v=76
256866 On ch=1 n=d#5 v=0
256914 On ch=1 n=f5 v=0
256946 On ch=1 n=c6 v=0
256948 On ch=1 n=f#5 v=82
256986 On ch=1 n=a#5 v=80
257038 On ch=1 n=f#5 v=0
257054 On ch=1 n=c#6 v=80
257090 On ch=1 n=f#6 v=71
257104 On ch=1 n=a#5 v=0
257148 On ch=1 n=c5 v=58
257152 On ch=1 n=c#6 v=0
257174 On ch=1 n=f#6 v=0
257190 On ch=1 n=d5 v=63
257246 On ch=1 n=a5 v=54
257278 On ch=1 n=c5 v=0
257308 On ch=1 n=a5 v=0
257320 On ch=1 n=d5 v=0
257326 On ch=1 n=d#5 v=79
257398 On ch=1 n=f#5 v=72
257446 On ch=1 n=d#5 v=0
257460 On ch=1 n=a#5 v=73
257504 On ch=1 n=f#5 v=0
257530 On ch=1 n=d#6 v=60
257582 On ch=1 n=d#6 v=0
257588 On ch=1 n=a#5 v=0
257608 On ch=1 n=f#4 v=78
257696 Par ch=1 c=64 v=63
257742 Par ch=1 c=64 v=127
257772 On ch=1 n=g5 v=65
257774 On ch=1 n=c6 v=70
257774 On ch=1 n=e5 v=54
257904 On ch=1 n=a#5 v=88
257938 On ch=1 n=g5 v=0
257944 On ch=1 n=c6 v=0
257990 On ch=1 n=a#5 v=0
258004 On ch=1 n=e5 v=0
258042 On ch=1 n=f#5 v=95
258096 On ch=1 n=f#5 v=0
258122 On ch=1 n=f#4 v=0
258152 On ch=1 n=g5 v=73
258156 On ch=1 n=c5 v=79
258224 On ch=1 n=g5 v=0
258226 On ch=1 n=e5 v=53
258296 On ch=1 n=a#4 v=101
258322 On ch=1 n=c5 v=0
258344 On ch=1 n=e5 v=0
258390 On ch=1 n=a#4 v=0
258392 On ch=1 n=f#4 v=84
258494 On ch=1 n=e5 v=71
258506 On ch=1 n=f#4 v=0
258510 On ch=1 n=c5 v=68
258516 On ch=1 n=g4 v=43
258604 On ch=1 n=a#4 v=90
258644 On ch=1 n=e5 v=0
258656 On ch=1 n=c5 v=0
258678 On ch=1 n=g4 v=0
258694 On ch=1 n=a#4 v=0
258704 On ch=1 n=f#5 v=92
258758 On ch=1 n=f#5 v=0
258818 On ch=1 n=c5 v=74
258836 On ch=1 n=g4 v=55
258840 On ch=1 n=e4 v=40
258928 On ch=1 n=a#4 v=83
258990 On ch=1 n=c5 v=0
259008 On ch=1 n=g4 v=0
259012 On ch=1 n=e4 v=0
259032 On ch=1 n=f#3 v=80
259050 On ch=1 n=a#4 v=0
259154 On ch=1 n=c5 v=78
259164 On ch=1 n=e4 v=51
259188 On ch=1 n=g4 v=63
259202 On ch=1 n=f#3 v=0
259256 On ch=1 n=a#4 v=77
259292 On ch=1 n=c5 v=0
259332 On ch=1 n=g4 v=0
259356 On ch=1 n=a#4 v=0
259356 On ch=1 n=e4 v=0
259384 On ch=1 n=f#4 v=88
259442 On ch=1 n=f#4 v=0
259494 On ch=1 n=c4 v=86
259494 On ch=1 n=g4 v=41
259538 On ch=1 n=e4 v=33
259586 On ch=1 n=g4 v=0
259624 On ch=1 n=c4 v=0
259628 On ch=1 n=a#3 v=88
259680 On ch=1 n=e4 v=0
259716 On ch=1 n=f#3 v=74
259728 On ch=1 n=a#3 v=0
259816 On ch=1 n=f#3 v=0
259846 On ch=1 n=e4 v=57
259852 On ch=1 n=c4 v=69
259868 On ch=1 n=g3 v=49
259954 On ch=1 n=a#3 v=81
260006 On ch=1 n=c4 v=0
260008 On ch=1 n=e4 v=0
260034 On ch=1 n=g3 v=0
260054 On ch=1 n=a#3 v=0
260058 On ch=1 n=f#4 v=85
260112 On ch=1 n=f#4 v=0
260170 On ch=1 n=c4 v=76
260200 On ch=1 n=g3 v=35
260216 On ch=1 n=e3 v=32
260296 On ch=1 n=a#3 v=76
260356 On ch=1 n=g3 v=0
260362 Par ch=1 c=67 v=127
260366 On ch=1 n=c4 v=0
260380 On ch=1 n=e3 v=0
260392 On ch=1 n=f#2 v=73
260430 On ch=1 n=a#3 v=0
260530 On ch=1 n=c4 v=51
260552 On ch=1 n=g3 v=58
260564 On ch=1 n=e3 v=20
260588 On ch=1 n=a#3 v=74
260646 On ch=1 n=c4 v=0
260654 On ch=1 n=g3 v=0
260700 On ch=1 n=a#3 v=0
260724 On ch=1 n=e3 v=0
260730 On ch=1 n=f#2 v=0
260756 On ch=1 n=f#3 v=86
260836 On ch=1 n=f#3 v=0
260880 On ch=1 n=g3 v=68
260894 On ch=1 n=c3 v=62
260924 On ch=1 n=e3 v=68
261004 On ch=1 n=c3 v=0
261016 On ch=1 n=a#2 v=80
261110 On ch=1 n=g3 v=0
261122 On ch=1 n=a#2 v=0
261132 On ch=1 n=f#2 v=65
261156 On ch=1 n=e3 v=0
261240 On ch=1 n=f#2 v=0
261280 On ch=1 n=c3 v=27
261280 On ch=1 n=e3 v=21
261390 On ch=1 n=a#2 v=70
261442 On ch=1 n=c3 v=0
261500 On ch=1 n=a#2 v=0
261502 On ch=1 n=f#3 v=57
261548 On ch=1 n=e3 v=0
261608 On ch=1 n=f#3 v=0
261652 On ch=1 n=c3 v=26
261672 On ch=1 n=g3 v=44
261678 On ch=1 n=e3 v=41
261780 On ch=1 n=a#2 v=55
261838 On ch=1 n=c3 v=0
261880 On ch=1 n=a#2 v=0
261890 On ch=1 n=f#2 v=55
261896 On ch=1 n=g3 v=0
261912 On ch=1 n=e3 v=0
262000 On ch=1 n=f#2 v=0
262052 On ch=1 n=g3 v=43
262058 On ch=1 n=c3 v=32
262072 On ch=1 n=e3 v=48
262192 On ch=1 n=a#2 v=67
262266 On ch=1 n=c3 v=0
262294 On ch=1 n=f#3 v=57
262314 On ch=1 n=g3 v=0
262318 On ch=1 n=a#2 v=0
262344 On ch=1 n=e3 v=0
262402 On ch=1 n=f#3 v=0
262480 On ch=1 n=c3 v=26
262484 On ch=1 n=g3 v=28
262496 On ch=1 n=e3 v=32
262606 On ch=1 n=a#2 v=20
262686 On ch=1 n=c3 v=0
262720 On ch=1 n=a#2 v=0
262750 On ch=1 n=g3 v=0
262752 On ch=1 n=f#2 v=36
262772 On ch=1 n=e3 v=0
262848 On ch=1 n=f#2 v=0
262922 On ch=1 n=c3 v=21
262932 On ch=1 n=g3 v=16
262950 On ch=1 n=e3 v=34
263066 On ch=1 n=a#2 v=50
263156 On ch=1 n=c3 v=0
263222 On ch=1 n=a#2 v=0
263242 On ch=1 n=f#3 v=52
263262 On ch=1 n=g3 v=0
263300 On ch=1 n=e3 v=0
263348 On ch=1 n=f#3 v=0
263440 On ch=1 n=c3 v=26
263448 On ch=1 n=g3 v=30
263464 On ch=1 n=e3 v=35
263676 On ch=1 n=a#2 v=58
263760 On ch=1 n=c3 v=0
263812 On ch=1 n=a#2 v=0
263896 On ch=1 n=e3 v=0
263918 On ch=1 n=g3 v=0
264040 On ch=1 n=f#2 v=70
264160 Par ch=1 c=64 v=63
264180 Par ch=1 c=64 v=127
264340 On ch=1 n=a#2 v=53
264432 Par ch=1 c=67 v=0
264496 On ch=1 n=c#3 v=67
264546 On ch=1 n=f#2 v=0
264558 On ch=1 n=a#2 v=0
264592 On ch=1 n=c#3 v=0
264634 On ch=1 n=c3 v=59
264748 On ch=1 n=e3 v=69
264754 On ch=1 n=c3 v=0
264808 On ch=1 n=g3 v=76
264870 On ch=1 n=e3 v=0
264914 On ch=1 n=c4 v=76
264958 On ch=1 n=g3 v=0
265000 On ch=1 n=c4 v=0
265016 On ch=1 n=f#3 v=76
265096 On ch=1 n=a#3 v=71
265142 On ch=1 n=f#3 v=0
265156 On ch=1 n=c#4 v=75
265194 On ch=1 n=a#3 v=0
265216 On ch=1 n=c#4 v=0
265250 On ch=1 n=c4 v=73
265308 On ch=1 n=e4 v=89
265336 On ch=1 n=c4 v=0
265352 On ch=1 n=g4 v=81
265402 On ch=1 n=e4 v=0
265422 On ch=1 n=c5 v=84
265456 On ch=1 n=g4 v=0
265476 On ch=1 n=f#4 v=84
265492 On ch=1 n=c5 v=0
265528 On ch=1 n=a#4 v=80
265564 On ch=1 n=f#4 v=0
265602 On ch=1 n=c#5 v=85
265620 On ch=1 n=a#4 v=0
265650 On ch=1 n=c#5 v=0
265666 On ch=1 n=c5 v=84
265724 On ch=1 n=e5 v=94
265752 On ch=1 n=c5 v=0
265780 On ch=1 n=g5 v=93
265820 On ch=1 n=e5 v=0
265838 On ch=1 n=c6 v=91
265862 On ch=1 n=f#5 v=87
265868 On ch=1 n=g5 v=0
265912 On ch=1 n=c6 v=0
265916 On ch=1 n=a#5 v=91
265954 On ch=1 n=f#5 v=0
265982 On ch=1 n=c#6 v=97
266000 On ch=1 n=a#5 v=0
266024 On ch=1 n=c6 v=97
266038 On ch=1 n=c#6 v=0
266084 On ch=1 n=e6 v=100
266114 On ch=1 n=c6 v=0
266142 On ch=1 n=g6 v=99
266184 On ch=1 n=e6 v=0
266204 On ch=1 n=c7 v=97
266236 On ch=1 n=g6 v=0
266240 On ch=1 n=f#6 v=89
266284 On ch=1 n=c7 v=0
266286 On ch=1 n=a#6 v=91
266362 On ch=1 n=c#7 v=107
266394 On ch=1 n=a#6 v=0
266396 On ch=1 n=f#6 v=0
266412 On ch=1 n=c7 v=101
266426 On ch=1 n=c#7 v=0
266472 On ch=1 n=e7 v=98
266502 On ch=1 n=c7 v=0
266536 On ch=1 n=g7 v=102
266578 On ch=1 n=e7 v=0
266600 On ch=1 n=c8 v=106
266650 On ch=1 n=g7 v=0
266706 On ch=1 n=a#7 v=108
266708 On ch=1 n=c#8 v=115
266712 On ch=1 n=c8 v=0
266718 On ch=1 n=f#7 v=99
266764 On ch=1 n=c#8 v=0
266778 On ch=1 n=a#7 v=0
266802 On ch=1 n=f#7 v=0
266832 On ch=1 n=c8 v=109
266904 On ch=1 n=g7 v=94
266950 On ch=1 n=c8 v=0
266978 On ch=1 n=e7 v=99
267012 On ch=1 n=g7 v=0
267030 On ch=1 n=c7 v=101
267056 On ch=1 n=e7 v=0
267084 On ch=1 n=c#7 v=107
267088 On ch=1 n=f#6 v=100
267088 On ch=1 n=a#6 v=100
267096 On ch=1 n=c7 v=0
267124 On ch=1 n=a#6 v=0
267128 On ch=1 n=c#7 v=0
267160 On ch=1 n=f#6 v=0
267200 On ch=1 n=c7 v=93
267266 On ch=1 n=g6 v=75
267292 On ch=1 n=c7 v=0
267320 On ch=1 n=e6 v=99
267350 On ch=1 n=g6 v=0
267374 On ch=1 n=c6 v=89
267400 On ch=1 n=e6 v=0
267432 On ch=1 n=a#5 v=107
267434 On ch=1 n=c#6 v=103
267436 On ch=1 n=f#5 v=98
267442 On ch=1 n=c6 v=0
267484 On ch=1 n=a#5 v=0
267488 On ch=1 n=c#6 v=0
267494 On ch=1 n=f#5 v=0
267502 On ch=1 n=c6 v=86
267548 On ch=1 n=e6 v=96
267588 On ch=1 n=c6 v=0
267612 On ch=1 n=g6 v=97
267652 On ch=1 n=e6 v=0
267664 On ch=1 n=c7 v=93
267698 On ch=1 n=g6 v=0
267732 On ch=1 n=c7 v=0
267736 On ch=1 n=a#6 v=99
267740 On ch=1 n=c#7 v=105
267742 On ch=1 n=f#6 v=85
267796 On ch=1 n=f#6 v=0
267798 On ch=1 n=a#6 v=0
267812 On ch=1 n=c#7 v=0
267814 On ch=1 n=c7 v=96
267878 On ch=1 n=e7 v=102
267888 On ch=1 n=c7 v=0
267934 On ch=1 n=g7 v=100
267970 On ch=1 n=e7 v=0
267994 On ch=1 n=c8 v=100
268040 On ch=1 n=g7 v=0
268046 On ch=1 n=c#8 v=108
268052 On ch=1 n=a#7 v=97
268058 On ch=1 n=f#7 v=94
268072 On ch=1 n=c8 v=0
268102 On ch=1 n=c#8 v=0
268106 On ch=1 n=a#7 v=0
268130 On ch=1 n=f#7 v=0
268140 On ch=1 n=c8 v=96
268186 On ch=1 n=g7 v=91
268236 On ch=1 n=c8 v=0
268246 On ch=1 n=e7 v=92
268284 On ch=1 n=g7 v=0
268302 On ch=1 n=c7 v=94
268320 On ch=1 n=e7 v=0
268334 On ch=1 n=c#7 v=94
268340 On ch=1 n=a#6 v=100
268358 On ch=1 n=f#6 v=83
268366 On ch=1 n=c7 v=0
268384 On ch=1 n=c#7 v=0
268402 On ch=1 n=a#6 v=0
268428 On ch=1 n=f#6 v=0
268448 On ch=1 n=c7 v=101
268502 On ch=1 n=g6 v=84
268548 On ch=1 n=c7 v=0
268554 On ch=1 n=e6 v=101
268592 On ch=1 n=g6 v=0
268614 On ch=1 n=c6 v=85
268638 On ch=1 n=e6 v=0
268654 On ch=1 n=f#5 v=104
268654 On ch=1 n=c#6 v=100
268660 On ch=1 n=a#5 v=88
268674 On ch=1 n=c6 v=0
268714 On ch=1 n=a#5 v=0
268720 On ch=1 n=c#6 v=0
268738 On ch=1 n=f#5 v=0
268742 On ch=1 n=c6 v=93
268776 On ch=1 n=e6 v=97
268816 On ch=1 n=c6 v=0
268846 On ch=1 n=g6 v=89
268882 On ch=1 n=e6 v=0
268882 On ch=1 n=c7 v=99
268962 On ch=1 n=a#6 v=100
268962 On ch=1 n=c#7 v=108
268966 On ch=1 n=g6 v=0
268976 On ch=1 n=f#6 v=83
268984 On ch=1 n=c7 v=0
269014 On ch=1 n=c#7 v=0
269022 On ch=1 n=a#6 v=0
269046 On ch=1 n=c7 v=81
269050 On ch=1 n=f#6 v=0
269086 On ch=1 n=g6 v=81
269140 On ch=1 n=c7 v=0
269152 On ch=1 n=e6 v=92
269200 On ch=1 n=g6 v=0
269216 On ch=1 n=c6 v=75
269232 On ch=1 n=e6 v=0
269246 On ch=1 n=f#5 v=94
269252 On ch=1 n=c#6 v=93
269254 On ch=1 n=a#5 v=94
269256 On ch=1 n=c6 v=0
269316 On ch=1 n=c#6 v=0
269322 On ch=1 n=a#5 v=0
269322 On ch=1 n=f#5 v=0
269332 On ch=1 n=c6 v=94
269366 On ch=1 n=e6 v=94
269394 On ch=1 n=c6 v=0
269426 On ch=1 n=g6 v=92
269470 On ch=1 n=e6 v=0
269470 On ch=1 n=c7 v=92
269552 On ch=1 n=a#6 v=96
269554 On ch=1 n=c#7 v=103
269558 On ch=1 n=g6 v=0
269566 On ch=1 n=f#6 v=80
269572 On ch=1 n=c7 v=0
269606 On ch=1 n=c#7 v=0
269618 On ch=1 n=a#6 v=0
269640 On ch=1 n=c7 v=74
269644 On ch=1 n=f#6 v=0
269682 On ch=1 n=g6 v=78
269740 On ch=1 n=c7 v=0
269750 On ch=1 n=e6 v=91
269806 On ch=1 n=g6 v=0
269812 On ch=1 n=c6 v=88
269846 On ch=1 n=e6 v=0
269868 On ch=1 n=c#6 v=94
269872 On ch=1 n=f#5 v=88
269878 On ch=1 n=c6 v=0
269878 On ch=1 n=a#5 v=93
269944 On ch=1 n=a#5 v=0
269948 On ch=1 n=c6 v=84
269950 On ch=1 n=c#6 v=0
269960 On ch=1 n=f#5 v=0
269980 On ch=1 n=e6 v=91
270020 On ch=1 n=c6 v=0
270038 On ch=1 n=g6 v=87
270090 On ch=1 n=e6 v=0
270090 On ch=1 n=c7 v=84
270170 On ch=1 n=c#7 v=98
270170 On ch=1 n=a#6 v=95
270182 On ch=1 n=g6 v=0
270188 On ch=1 n=c7 v=0
270222 On ch=1 n=c#7 v=0
270238 On ch=1 n=a#6 v=0
270250 On ch=1 n=c7 v=71
270300 On ch=1 n=g6 v=73
270360 On ch=1 n=e6 v=91
270370 On ch=1 n=c7 v=0
270424 On ch=1 n=g6 v=0
270428 On ch=1 n=c6 v=77
270460 On ch=1 n=c#6 v=84
270460 On ch=1 n=f#5 v=82
270466 On ch=1 n=e6 v=0
270466 On ch=1 n=a#5 v=86
270478 On ch=1 n=c6 v=0
270530 On ch=1 n=c#6 v=0
270540 On ch=1 n=a#5 v=0
270542 On ch=1 n=f#5 v=0
270550 On ch=1 n=c6 v=82
270584 On ch=1 n=e6 v=92
270620 On ch=1 n=c6 v=0
270646 On ch=1 n=g6 v=88
270694 On ch=1 n=c7 v=81
270696 On ch=1 n=e6 v=0
270770 On ch=1 n=c#7 v=98
270780 On ch=1 n=a#6 v=86
270782 On ch=1 n=g6 v=0
270786 On ch=1 n=f#6 v=75
270800 On ch=1 n=c7 v=0
270826 On ch=1 n=c#7 v=0
270832 On ch=1 n=a#6 v=0
270860 On ch=1 n=f#6 v=0
270866 On ch=1 n=c7 v=47
270916 On ch=1 n=g6 v=75
270964 On ch=1 n=c7 v=0
270984 On ch=1 n=e6 v=77
271030 On ch=1 n=g6 v=0
271044 On ch=1 n=c6 v=83
271062 On ch=1 n=e6 v=0
271096 On ch=1 n=f#5 v=80
271102 On ch=1 n=c6 v=0
271102 On ch=1 n=c#6 v=76
271108 On ch=1 n=a#5 v=85
271160 On ch=1 n=a#5 v=0
271162 On ch=1 n=c#6 v=0
271166 On ch=1 n=f#5 v=0
271216 On ch=1 n=g5 v=68
271272 On ch=1 n=c6 v=71
271298 On ch=1 n=g5 v=0
271330 On ch=1 n=e6 v=84
271376 On ch=1 n=g6 v=75
271396 On ch=1 n=c6 v=0
271420 On ch=1 n=a#6 v=83
271422 On ch=1 n=f#6 v=83
271446 On ch=1 n=e6 v=0
271474 On ch=1 n=a#6 v=0
271496 On ch=1 n=f#6 v=0
271552 On ch=1 n=e6 v=93
271610 On ch=1 n=g6 v=0
271620 On ch=1 n=c6 v=72
271680 On ch=1 n=e6 v=0
271680 On ch=1 n=g5 v=63
271724 On ch=1 n=f#5 v=61
271726 On ch=1 n=c6 v=0
271734 On ch=1 n=a#5 v=69
271734 On ch=1 n=c#6 v=77
271738 On ch=1 n=g5 v=0
271792 On ch=1 n=f#5 v=0
271806 On ch=1 n=a#5 v=0
271812 On ch=1 n=c#6 v=0
271820 On ch=1 n=g5 v=64
271868 On ch=1 n=c6 v=91
271894 On ch=1 n=g5 v=0
271942 On ch=1 n=e6 v=76
271974 On ch=1 n=g6 v=69
272006 On ch=1 n=c6 v=0
272038 On ch=1 n=f#6 v=77
272040 On ch=1 n=a#6 v=76
272046 On ch=1 n=e6 v=0
272076 On ch=1 n=g6 v=0
272098 On ch=1 n=a#6 v=0
272122 On ch=1 n=f#6 v=0
272156 On ch=1 n=g6 v=40
272174 On ch=1 n=e6 v=89
272224 On ch=1 n=g6 v=0
272242 On ch=1 n=c6 v=71
272296 On ch=1 n=e6 v=0
272310 On ch=1 n=g5 v=65
272346 On ch=1 n=f#5 v=52
272348 On ch=1 n=c6 v=0
272362 On ch=1 n=a#5 v=68
272364 On ch=1 n=c#6 v=73
272372 On ch=1 n=g5 v=0
272406 On ch=1 n=f#5 v=0
272414 On ch=1 n=a#5 v=0
272418 On ch=1 n=c#6 v=0
272450 On ch=1 n=g5 v=62
272494 On ch=1 n=c6 v=79
272524 On ch=1 n=g5 v=0
272580 On ch=1 n=e6 v=73
272612 On ch=1 n=g6 v=79
272622 On ch=1 n=c6 v=0
272678 On ch=1 n=e6 v=0
272694 On ch=1 n=a#6 v=74
272696 On ch=1 n=f#6 v=85
272708 On ch=1 n=g6 v=0
272734 On ch=1 n=a#6 v=0
272762 On ch=1 n=f#6 v=0
272788 On ch=1 n=g6 v=66
272852 On ch=1 n=e6 v=73
272898 On ch=1 n=g6 v=0
272904 On ch=1 n=c6 v=68
272960 On ch=1 n=e6 v=0
272998 On ch=1 n=c6 v=0
273020 On ch=1 n=f#5 v=49
273020 On ch=1 n=c#6 v=76
273032 On ch=1 n=a#5 v=70
273078 On ch=1 n=f#5 v=0
273088 On ch=1 n=c#6 v=0
273090 On ch=1 n=a#5 v=0
273112 On ch=1 n=g5 v=62
273158 On ch=1 n=c6 v=74
273190 On ch=1 n=g5 v=0
273240 On ch=1 n=e6 v=69
273268 On ch=1 n=g6 v=72
273298 On ch=1 n=c6 v=0
273344 On ch=1 n=e6 v=0
273360 On ch=1 n=a#6 v=62
273364 On ch=1 n=f#6 v=80
273376 On ch=1 n=g6 v=0
273412 On ch=1 n=a#6 v=0
273418 On ch=1 n=f#6 v=0
273458 On ch=1 n=g6 v=49
273510 On ch=1 n=e6 v=74
273584 On ch=1 n=c6 v=71
273588 On ch=1 n=g6 v=0
273642 On ch=1 n=e6 v=0
273650 On ch=1 n=g5 v=59
273684 On ch=1 n=c6 v=0
273702 On ch=1 n=f#5 v=72
273712 On ch=1 n=g5 v=0
273718 On ch=1 n=a#5 v=68
273782 On ch=1 n=a#5 v=0
273792 On ch=1 n=f#5 v=0
273800 On ch=1 n=g5 v=57
273842 On ch=1 n=c6 v=80
273878 On ch=1 n=g5 v=0
273926 On ch=1 n=e6 v=71
273962 On ch=1 n=c6 v=0
273968 On ch=1 n=g6 v=71
274034 On ch=1 n=e6 v=0
274058 On ch=1 n=f#6 v=64
274068 On ch=1 n=g6 v=0
274068 On ch=1 n=c#6 v=80
274118 On ch=1 n=f#6 v=0
274134 On ch=1 n=c#6 v=0
274158 On ch=1 n=g6 v=65
274216 On ch=1 n=e6 v=71
274268 On ch=1 n=g6 v=0
274300 On ch=1 n=c6 v=59
274352 On ch=1 n=e6 v=0
274368 On ch=1 n=g5 v=60
274398 On ch=1 n=c6 v=0
274428 On ch=1 n=g5 v=0
274430 On ch=1 n=f#5 v=60
274442 On ch=1 n=a#5 v=66
274488 On ch=1 n=a#5 v=0
274500 On ch=1 n=f#5 v=0
274524 On ch=1 n=g5 v=42
274572 On ch=1 n=c6 v=79
274596 On ch=1 n=g5 v=0
274660 On ch=1 n=e6 v=68
274700 On ch=1 n=c6 v=0
274702 On ch=1 n=g6 v=71
274758 On ch=1 n=e6 v=0
274776 On ch=1 n=f#6 v=58
274786 On ch=1 n=g6 v=0
274790 On ch=1 n=c#6 v=77
274840 On ch=1 n=f#6 v=0
274860 On ch=1 n=c#6 v=0
274876 On ch=1 n=g6 v=59
274922 On ch=1 n=e6 v=65
274970 On ch=1 n=g6 v=0
275006 On ch=1 n=c6 v=51
275050 On ch=1 n=e6 v=0
275074 On ch=1 n=g5 v=59
275110 On ch=1 n=c6 v=0
275136 On ch=1 n=g5 v=0
275136 On ch=1 n=f#5 v=68
275154 On ch=1 n=a#5 v=71
275208 On ch=1 n=a#5 v=0
275214 On ch=1 n=f#5 v=0
275240 On ch=1 n=g5 v=40
275280 On ch=1 n=c6 v=75
275304 On ch=1 n=g5 v=0
275380 On ch=1 n=e6 v=60
275420 On ch=1 n=c6 v=0
275428 On ch=1 n=g6 v=65
275490 On ch=1 n=e6 v=0
275516 On ch=1 n=g6 v=0
275526 On ch=1 n=f#6 v=51
275534 On ch=1 n=c#6 v=71
275588 On ch=1 n=f#6 v=0
275604 On ch=1 n=c#6 v=0
275622 On ch=1 n=g6 v=47
275680 On ch=1 n=e6 v=60
275724 On ch=1 n=g6 v=0
275788 On ch=1 n=c6 v=21
275838 On ch=1 n=e6 v=0
275846 On ch=1 n=g5 v=53
275894 On ch=1 n=c6 v=0
275912 On ch=1 n=f#5 v=60
275920 On ch=1 n=g5 v=0
275928 On ch=1 n=a#5 v=67
275978 On ch=1 n=a#5 v=0
275982 On ch=1 n=f#5 v=0
276014 On ch=1 n=g5 v=51
276062 On ch=1 n=c6 v=73
276098 On ch=1 n=g5 v=0
276158 On ch=1 n=e6 v=73
276196 On ch=1 n=c6 v=0
276204 On ch=1 n=g6 v=65
276272 On ch=1 n=e6 v=0
276274 On ch=1 n=f#6 v=57
276278 On ch=1 n=g6 v=0
276284 On ch=1 n=c#6 v=70
276348 On ch=1 n=f#6 v=0
276352 On ch=1 n=c#6 v=0
276390 On ch=1 n=g6 v=38
276440 On ch=1 n=e6 v=65
276480 On ch=1 n=g6 v=0
276548 On ch=1 n=c6 v=58
276594 On ch=1 n=e6 v=0
276624 On ch=1 n=g5 v=52
276660 On ch=1 n=c6 v=0
276696 On ch=1 n=g5 v=0
276700 On ch=1 n=f#5 v=55
276718 On ch=1 n=a#5 v=61
276778 On ch=1 n=a#5 v=0
276790 On ch=1 n=f#5 v=0
276802 On ch=1 n=g5 v=45
276878 On ch=1 n=c6 v=65
276914 On ch=1 n=g5 v=0
277002 On ch=1 n=e6 v=63
277032 On ch=1 n=c6 v=0
277110 On ch=1 n=e6 v=0
277120 On ch=1 n=f#6 v=70
277122 On ch=1 n=c#6 v=61
277196 On ch=1 n=c#6 v=0
277196 On ch=1 n=f#6 v=0
277232 On ch=1 n=e6 v=71
277344 On ch=1 n=c6 v=54
277386 On ch=1 n=e6 v=0
277434 On ch=1 n=g5 v=45
277460 On ch=1 n=c6 v=0
277508 On ch=1 n=g5 v=0
277528 On ch=1 n=f#5 v=48
277532 On ch=1 n=a#5 v=63
277604 On ch=1 n=f#5 v=0
277616 On ch=1 n=a#5 v=0
277624 On ch=1 n=g5 v=50
277698 On ch=1 n=c6 v=67
277732 On ch=1 n=g5 v=0
277806 On ch=1 n=e6 v=69
277834 On ch=1 n=c6 v=0
277910 On ch=1 n=f#6 v=65
277914 On ch=1 n=e6 v=0
277918 On ch=1 n=c#6 v=61
277988 On ch=1 n=f#6 v=0
277990 On ch=1 n=c#6 v=0
278022 On ch=1 n=e6 v=71
278146 On ch=1 n=c6 v=57
278196 On ch=1 n=e6 v=0
278262 On ch=1 n=g5 v=44
278278 On ch=1 n=c6 v=0
278350 On ch=1 n=g5 v=0
278370 On ch=1 n=f#5 v=42
278380 On ch=1 n=a#5 v=58
278448 On ch=1 n=a#5 v=0
278456 On ch=1 n=f#5 v=0
278482 On ch=1 n=g5 v=52
278584 On ch=1 n=c6 v=66
278594 On ch=1 n=g5 v=0
278696 On ch=1 n=e6 v=59
278720 On ch=1 n=c6 v=0
278816 On ch=1 n=e6 v=0
278820 On ch=1 n=f#6 v=60
278826 On ch=1 n=c#6 v=63
278936 On ch=1 n=c#6 v=0
278944 On ch=1 n=f#6 v=0
278958 On ch=1 n=e6 v=64
279072 On ch=1 n=c6 v=50
279120 On ch=1 n=e6 v=0
279208 On ch=1 n=g5 v=52
279220 On ch=1 n=c6 v=0
279298 On ch=1 n=g5 v=0
279360 On ch=1 n=f#5 v=26
279364 On ch=1 n=a#5 v=51
279434 On ch=1 n=f#5 v=0
279464 On ch=1 n=a#5 v=0
279504 On ch=1 n=g5 v=37
279624 On ch=1 n=g5 v=0
279632 On ch=1 n=c6 v=49
279710 Par ch=1 c=67 v=127
279814 On ch=1 n=e6 v=59
279832 On ch=1 n=c6 v=0
280008 On ch=1 n=e6 v=0
280022 On ch=1 n=f#6 v=61
280034 On ch=1 n=c#6 v=56
280164 On ch=1 n=c#6 v=0
280174 On ch=1 n=f#6 v=0
280252 On ch=1 n=e6 v=45
280502 On ch=1 n=c6 v=32
280846 On ch=1 n=g5 v=34
280976 On ch=1 n=e6 v=0
281004 On ch=1 n=c6 v=0
281172 On ch=1 n=g5 v=0
281272 Par ch=1 c=64 v=63
281344 On ch=1 n=d#6 v=41
281346 On ch=1 n=c6 v=57
281346 On ch=1 n=g6 v=46
281352 Par ch=1 c=64 v=127
281362 On ch=1 n=f5 v=18
281536 Par ch=1 c=67 v=0
281734 On ch=1 n=c6 v=0
281754 On ch=1 n=d#6 v=0
281768 On ch=1 n=d6 v=43
281776 On ch=1 n=a5 v=34
281818 On ch=1 n=g6 v=0
281830 On ch=1 n=f5 v=0
281932 On ch=1 n=d6 v=0
281940 On ch=1 n=a5 v=0
282046 On ch=1 n=d6 v=51
282048 On ch=1 n=a6 v=45
282060 On ch=1 n=a5 v=36
282068 On ch=1 n=f6 v=50
282228 On ch=1 n=f6 v=0
282248 On ch=1 n=a6 v=0
282248 On ch=1 n=d6 v=0
282304 On ch=1 n=c6 v=64
282308 On ch=1 n=a5 v=0
282338 On ch=1 n=f5 v=34
282376 On ch=1 n=c6 v=0
282408 On ch=1 n=f5 v=0
282574 On ch=1 n=c#6 v=53
282576 On ch=1 n=a#5 v=76
282576 On ch=1 n=f6 v=59
282586 On ch=1 n=d#5 v=65
282612 Par ch=1 c=64 v=63
282624 Par ch=1 c=64 v=0
282638 Par ch=1 c=64 v=63
282670 Par ch=1 c=64 v=127
282814 On ch=1 n=a#5 v=0
282824 On ch=1 n=f6 v=0
282824 On ch=1 n=c6 v=50
282848 On ch=1 n=g5 v=49
282852 On ch=1 n=d#5 v=0
282916 On ch=1 n=c#6 v=0
282946 On ch=1 n=c6 v=0
282964 On ch=1 n=g5 v=0
283046 On ch=1 n=g6 v=61
283048 On ch=1 n=c7 v=68
283060 On ch=1 n=c6 v=74
283062 On ch=1 n=g5 v=65
283132 On ch=1 n=c7 v=0
283210 On ch=1 n=g6 v=0
283268 On ch=1 n=c#6 v=61
283270 On ch=1 n=a#5 v=86
283284 On ch=1 n=g5 v=0
283284 On ch=1 n=d#5 v=72
283288 On ch=1 n=f6 v=70
283292 On ch=1 n=c6 v=0
283342 On ch=1 n=d#5 v=0
283382 On ch=1 n=a#5 v=0
283404 On ch=1 n=c#6 v=0
283434 On ch=1 n=f6 v=0
283522 On ch=1 n=c6 v=78
283526 On ch=1 n=f5 v=51
283526 On ch=1 n=d#6 v=76
283532 On ch=1 n=g6 v=76
283560 Par ch=1 c=64 v=63
283620 Par ch=1 c=64 v=127
283746 On ch=1 n=d#6 v=0
283758 On ch=1 n=d6 v=66
283760 On ch=1 n=c6 v=0
283770 On ch=1 n=a5 v=50
283814 On ch=1 n=g6 v=0
283846 On ch=1 n=f5 v=0
283874 On ch=1 n=a5 v=0
283878 On ch=1 n=d6 v=0
283992 On ch=1 n=d6 v=68
283994 On ch=1 n=a6 v=61
283996 On ch=1 n=f6 v=60
284006 On ch=1 n=a5 v=55
284124 On ch=1 n=f6 v=0
284130 On ch=1 n=a6 v=0
284164 On ch=1 n=a5 v=0
284172 On ch=1 n=d6 v=0
284222 On ch=1 n=c6 v=68
284238 On ch=1 n=f5 v=50
284284 On ch=1 n=c6 v=0
284318 On ch=1 n=f5 v=0
284466 On ch=1 n=c#6 v=56
284468 Par ch=1 c=64 v=63
284470 On ch=1 n=f6 v=60
284474 On ch=1 n=a#5 v=74
284482 Par ch=1 c=64 v=0
284492 On ch=1 n=d#5 v=57
284510 Par ch=1 c=64 v=63
284536 Par ch=1 c=64 v=127
284662 On ch=1 n=a#5 v=0
284662 On ch=1 n=f6 v=0
284702 On ch=1 n=c#6 v=0
284702 On ch=1 n=c6 v=49
284706 On ch=1 n=d#5 v=0
284724 On ch=1 n=g5 v=39
284810 On ch=1 n=c6 v=0
284814 On ch=1 n=g5 v=0
284918 On ch=1 n=c7 v=65
284920 On ch=1 n=g6 v=65
284932 On ch=1 n=c6 v=66
284938 On ch=1 n=g5 v=54
285002 On ch=1 n=c7 v=0
285078 On ch=1 n=g6 v=0
285100 On ch=1 n=g5 v=0
285102 On ch=1 n=c6 v=0
285148 On ch=1 n=a#5 v=79
285152 On ch=1 n=c#6 v=62
285162 On ch=1 n=d#5 v=62
285176 On ch=1 n=f6 v=59
285230 On ch=1 n=d#5 v=0
285254 On ch=1 n=a#5 v=0
285296 On ch=1 n=c#6 v=0
285306 On ch=1 n=f6 v=0
285444 On ch=1 n=d#6 v=63
285448 On ch=1 n=c6 v=77
285450 On ch=1 n=g6 v=68
285456 On ch=1 n=f5 v=50
285478 Par ch=1 c=64 v=63
285488 Par ch=1 c=64 v=0
285530 Par ch=1 c=64 v=63
285556 Par ch=1 c=64 v=127
285710 On ch=1 n=c6 v=0
285726 On ch=1 n=d6 v=57
285730 On ch=1 n=d#6 v=0
285750 On ch=1 n=a5 v=37
285760 On ch=1 n=g6 v=0
285776 On ch=1 n=f5 v=0
285824 On ch=1 n=d6 v=0
285834 On ch=1 n=a5 v=0
285962 On ch=1 n=d6 v=70
285966 On ch=1 n=a6 v=81
285974 On ch=1 n=a5 v=57
285984 On ch=1 n=f6 v=68
286058 On ch=1 n=f6 v=0
286078 On ch=1 n=a6 v=0
286120 On ch=1 n=d6 v=0
286140 On ch=1 n=a5 v=0
286190 On ch=1 n=c6 v=68
286208 On ch=1 n=f5 v=50
286268 On ch=1 n=c6 v=0
286292 On ch=1 n=f5 v=0
286434 On ch=1 n=f6 v=80
286448 On ch=1 n=a#5 v=76
286460 On ch=1 n=d#5 v=68
286462 On ch=1 n=c#6 v=72
286484 Par ch=1 c=64 v=63
286496 Par ch=1 c=64 v=0
286522 Par ch=1 c=64 v=63
286552 Par ch=1 c=64 v=127
286662 On ch=1 n=a#5 v=0
286664 On ch=1 n=c#6 v=0
286698 On ch=1 n=c6 v=58
286714 On ch=1 n=d#5 v=0
286714 On ch=1 n=f6 v=0
286718 On ch=1 n=g5 v=38
286808 On ch=1 n=c6 v=0
286818 On ch=1 n=g5 v=0
286966 On ch=1 n=c6 v=60
286968 On ch=1 n=g6 v=71
286972 On ch=1 n=g5 v=46
286990 On ch=1 n=d#6 v=60
287076 On ch=1 n=d#6 v=0
287078 On ch=1 n=g6 v=0
287222 On ch=1 n=c6 v=0
287222 On ch=1 n=a#5 v=65
287226 On ch=1 n=g5 v=0
287250 On ch=1 n=d#5 v=54
287310 On ch=1 n=a#5 v=0
287342 On ch=1 n=d#5 v=0
287516 On ch=1 n=d#6 v=58
287522 On ch=1 n=c#5 v=54
287526 On ch=1 n=g#5 v=74
287538 Par ch=1 c=64 v=63
287546 Par ch=1 c=64 v=0
287548 On ch=1 n=b5 v=53
287608 Par ch=1 c=64 v=63
287630 Par ch=1 c=64 v=127
287766 On ch=1 n=g#5 v=0
287794 On ch=1 n=a#5 v=62
287816 On ch=1 n=c#5 v=0
287818 On ch=1 n=b5 v=0
287828 On ch=1 n=d#6 v=0
287828 On ch=1 n=f5 v=43
287958 On ch=1 n=a#5 v=0
287982 On ch=1 n=f5 v=0
288086 On ch=1 n=a#5 v=66
288108 On ch=1 n=f6 v=44
288130 On ch=1 n=c#6 v=40
288132 On ch=1 n=f5 v=23
288242 On ch=1 n=c#6 v=0
288252 On ch=1 n=f6 v=0
288360 On ch=1 n=a#5 v=0
288372 On ch=1 n=f5 v=0
288386 On ch=1 n=g#5 v=69
288394 On ch=1 n=c#5 v=58
288492 On ch=1 n=g#5 v=0
288518 On ch=1 n=c#5 v=0
288728 On ch=1 n=c#6 v=43
288732 On ch=1 n=f#5 v=65
288744 On ch=1 n=b4 v=41
288748 On ch=1 n=a5 v=42
288800 Par ch=1 c=64 v=63
288820 Par ch=1 c=64 v=0
288846 Par ch=1 c=64 v=63
288896 Par ch=1 c=64 v=127
289032 On ch=1 n=a5 v=0
289046 On ch=1 n=f#5 v=0
289068 On ch=1 n=c#6 v=0
289080 On ch=1 n=g#5 v=49
289084 On ch=1 n=d#5 v=48
289162 On ch=1 n=b4 v=0
289252 On ch=1 n=d#5 v=0
289254 On ch=1 n=g#5 v=0
289474 On ch=1 n=g#5 v=40
289492 On ch=1 n=d#5 v=40
289510 On ch=1 n=d#6 v=16
289556 On ch=1 n=b5 v=26
289682 On ch=1 n=b5 v=0
289688 On ch=1 n=d#6 v=0
289878 On ch=1 n=g#5 v=0
289918 On ch=1 n=d#5 v=0
290044 On ch=1 n=f#5 v=38
290068 On ch=1 n=b4 v=10
290282 On ch=1 n=b4 v=0
290354 On ch=1 n=f#5 v=0
290836 Par ch=1 c=64 v=63
290858 Par ch=1 c=64 v=0
292574 On ch=1 n=f#4 v=42
292582 On ch=1 n=a4 v=30
292586 On ch=1 n=b3 v=35
292598 On ch=1 n=c#6 v=42
292612 On ch=1 n=f#5 v=50
292624 On ch=1 n=c#5 v=18
292680 Par ch=1 c=64 v=63
292706 Par ch=1 c=64 v=127
292886 On ch=1 n=c#5 v=0
292892 On ch=1 n=b3 v=0
292916 On ch=1 n=f#4 v=0
292956 On ch=1 n=f#5 v=0
292958 On ch=1 n=a4 v=0
293090 On ch=1 n=d#5 v=49
293092 On ch=1 n=g#5 v=57
293170 On ch=1 n=c#6 v=0
293182 On ch=1 n=d#5 v=0
293188 On ch=1 n=g#5 v=0
293400 On ch=1 n=d#5 v=69
293412 On ch=1 n=d#6 v=76
293416 On ch=1 n=b4 v=63
293420 On ch=1 n=e4 v=50
293428 On ch=1 n=g#5 v=69
293434 Par ch=1 c=64 v=63
293446 Par ch=1 c=64 v=127
293524 On ch=1 n=d#5 v=0
293544 On ch=1 n=b4 v=0
293566 On ch=1 n=g#5 v=0
293566 On ch=1 n=d#6 v=0
293602 On ch=1 n=e4 v=0
293710 On ch=1 n=f#5 v=78
293714 On ch=1 n=c#5 v=65
293790 On ch=1 n=c#5 v=0
293796 On ch=1 n=f#5 v=0
293978 On ch=1 n=b5 v=89
293994 On ch=1 n=e5 v=67
293996 Par ch=1 c=64 v=63
294000 On ch=1 n=b4 v=30
294000 On ch=1 n=a3 v=34
294002 On ch=1 n=g4 v=24
294006 On ch=1 n=e4 v=46
294010 Par ch=1 c=64 v=0
294034 Par ch=1 c=64 v=63
294054 Par ch=1 c=64 v=127
294090 On ch=1 n=b5 v=0
294126 On ch=1 n=b4 v=0
294134 On ch=1 n=a3 v=0
294172 On ch=1 n=e4 v=0
294188 On ch=1 n=g4 v=0
294190 On ch=1 n=e5 v=0
294270 On ch=1 n=f#5 v=80
294272 On ch=1 n=c#5 v=72
294342 On ch=1 n=c#5 v=0
294358 On ch=1 n=f#5 v=0
294494 On ch=1 n=d4 v=38
294588 On ch=1 n=a4 v=10
294592 On ch=1 n=c#5 v=57
294608 On ch=1 n=f#6 v=89
294620 On ch=1 n=f#5 v=65
294624 On ch=1 n=c#6 v=73
294684 On ch=1 n=c#6 v=0
294694 On ch=1 n=f#6 v=0
294704 On ch=1 n=f#5 v=0
294716 On ch=1 n=c#5 v=0
294754 On ch=1 n=a4 v=0
294810 On ch=1 n=d4 v=0
294990 On ch=1 n=d6 v=72
295022 On ch=1 n=a5 v=46
295090 On ch=1 n=a5 v=0
295094 On ch=1 n=d6 v=0
295370 On ch=1 n=c#6 v=65
295370 On ch=1 n=f#4 v=43
295374 On ch=1 n=a4 v=22
295378 On ch=1 n=b3 v=27
295380 On ch=1 n=c#5 v=40
295390 On ch=1 n=f#5 v=60
295418 Par ch=1 c=64 v=63
295426 Par ch=1 c=64 v=0
295472 Par ch=1 c=64 v=63
295492 Par ch=1 c=64 v=127
295564 On ch=1 n=c#5 v=0
295572 On ch=1 n=b3 v=0
295612 On ch=1 n=f#4 v=0
295638 On ch=1 n=a4 v=0
295666 On ch=1 n=f#5 v=0
295678 On ch=1 n=g#5 v=78
295690 On ch=1 n=d#5 v=61
295694 On ch=1 n=c#6 v=0
295754 On ch=1 n=d#5 v=0
295764 On ch=1 n=g#5 v=0
295964 On ch=1 n=d#5 v=67
295964 On ch=1 n=b4 v=57
295970 On ch=1 n=e4 v=46
295970 On ch=1 n=d#6 v=83
295978 On ch=1 n=g#5 v=80
296036 On ch=1 n=d#5 v=0
296054 On ch=1 n=b4 v=0
296060 On ch=1 n=g#5 v=0
296068 On ch=1 n=d#6 v=0
296096 On ch=1 n=e4 v=0
296236 On ch=1 n=f#5 v=72
296240 On ch=1 n=c#5 v=73
296316 On ch=1 n=f#5 v=0
296318 On ch=1 n=c#5 v=0
296504 On ch=1 n=b5 v=80
296512 On ch=1 n=b4 v=49
296516 On ch=1 n=g4 v=40
296524 On ch=1 n=a3 v=36
296524 On ch=1 n=e5 v=55
296532 On ch=1 n=e4 v=46
296560 Par ch=1 c=64 v=63
296566 Par ch=1 c=64 v=0
296612 Par ch=1 c=64 v=63
296630 Par ch=1 c=64 v=127
296650 On ch=1 n=b5 v=0
296654 On ch=1 n=b4 v=0
296698 On ch=1 n=a3 v=0
296730 On ch=1 n=e4 v=0
296748 On ch=1 n=g4 v=0
296752 On ch=1 n=e5 v=0
296804 On ch=1 n=c#5 v=61
296806 On ch=1 n=f#5 v=68
296858 On ch=1 n=c#5 v=0
296880 On ch=1 n=f#5 v=0
297128 On ch=1 n=f#6 v=86
297128 On ch=1 n=c#5 v=50
297130 On ch=1 n=a4 v=45
297136 On ch=1 n=d4 v=25
297138 On ch=1 n=f#5 v=62
297148 On ch=1 n=c#6 v=67
297216 On ch=1 n=c#6 v=0
297222 On ch=1 n=f#6 v=0
297270 On ch=1 n=f#5 v=0
297288 On ch=1 n=c#5 v=0
297340 On ch=1 n=a4 v=0
297404 On ch=1 n=d4 v=0
297488 On ch=1 n=d6 v=70
297518 On ch=1 n=a5 v=39
297580 On ch=1 n=a5 v=0
297588 On ch=1 n=d6 v=0
297878 On ch=1 n=f#4 v=33
297890 On ch=1 n=c#6 v=66
297894 On ch=1 n=b3 v=43
297894 On ch=1 n=a4 v=26
297902 On ch=1 n=f#5 v=56
297908 On ch=1 n=c#5 v=33
297940 Par ch=1 c=64 v=63
297946 Par ch=1 c=64 v=0
298008 Par ch=1 c=64 v=63
298026 Par ch=1 c=64 v=127
298118 On ch=1 n=b3 v=0
298140 On ch=1 n=c#5 v=0
298160 On ch=1 n=f#4 v=0
298186 On ch=1 n=a4 v=0
298210 On ch=1 n=f#5 v=0
298276 On ch=1 n=g#5 v=63
298282 On ch=1 n=d#5 v=60
298354 On ch=1 n=c#6 v=0
298362 On ch=1 n=d#5 v=0
298368 On ch=1 n=g#5 v=0
298590 On ch=1 n=e4 v=45
298592 On ch=1 n=d#5 v=58
298592 On ch=1 n=d#6 v=79
298602 On ch=1 n=b4 v=55
298608 On ch=1 n=g#5 v=69
298674 On ch=1 n=d#5 v=0
298694 On ch=1 n=b4 v=0
298694 On ch=1 n=d#6 v=0
298698 On ch=1 n=g#5 v=0
298736 On ch=1 n=e4 v=0
298898 On ch=1 n=c#5 v=62
298902 On ch=1 n=f#5 v=56
298970 On ch=1 n=f#5 v=0
298982 On ch=1 n=c#5 v=0
299190 On ch=1 n=b5 v=62
299216 On ch=1 n=g4 v=35
299218 On ch=1 n=b4 v=16
299218 On ch=1 n=a3 v=37
299226 On ch=1 n=e5 v=36
299236 On ch=1 n=e4 v=46
299256 Par ch=1 c=64 v=63
299300 Par ch=1 c=64 v=127
299386 On ch=1 n=b5 v=0
299398 On ch=1 n=b4 v=0
299424 On ch=1 n=a3 v=0
299460 On ch=1 n=e4 v=0
299482 On ch=1 n=g4 v=0
299512 On ch=1 n=e5 v=0
299528 On ch=1 n=c#5 v=70
299538 On ch=1 n=f#5 v=67
299614 On ch=1 n=c#5 v=0
299632 On ch=1 n=f#5 v=0
299858 On ch=1 n=c#6 v=75
299864 On ch=1 n=c#5 v=44
299878 On ch=1 n=f#5 v=58
299878 On ch=1 n=a4 v=38
299896 On ch=1 n=d4 v=8
299978 On ch=1 n=c#5 v=0
299990 On ch=1 n=f#5 v=0
300008 On ch=1 n=c#6 v=0
300016 On ch=1 n=a4 v=0
300098 On ch=1 n=d4 v=0
300226 On ch=1 n=e5 v=49
300228 On ch=1 n=b4 v=60
300326 On ch=1 n=b4 v=0
300344 On ch=1 n=e5 v=0
300614 On ch=1 n=a5 v=46
300626 On ch=1 n=a4 v=25
300632 On ch=1 n=d5 v=49
300640 On ch=1 n=g3 v=33
300642 On ch=1 n=f4 v=21
300650 On ch=1 n=d4 v=44
300690 Par ch=1 c=64 v=63
300704 Par ch=1 c=64 v=0
300722 Par ch=1 c=64 v=63
300752 Par ch=1 c=64 v=127
300864 On ch=1 n=a4 v=0
300918 On ch=1 n=g3 v=0
300924 On ch=1 n=a5 v=0
300956 On ch=1 n=d4 v=0
300962 On ch=1 n=f4 v=0
300982 On ch=1 n=d5 v=0
301060 On ch=1 n=e5 v=44
301068 On ch=1 n=b4 v=33
301176 On ch=1 n=e5 v=0
301254 On ch=1 n=b4 v=0
301538 On ch=1 n=b5 v=59
301544 On ch=1 n=b4 v=24
301550 On ch=1 n=g4 v=36
301556 On ch=1 n=c4 v=28
301572 On ch=1 n=e5 v=37
301862 On ch=1 n=b4 v=0
301874 On ch=1 n=g4 v=0
301922 On ch=1 n=c4 v=0
301978 On ch=1 n=b5 v=0
302222 On ch=1 n=c5 v=71
302264 On ch=1 n=e5 v=0
303310 On ch=1 n=g#5 v=46
303320 On ch=1 n=c#4 v=42
303324 On ch=1 n=a#4 v=34
303330 On ch=1 n=f#3 v=31
303370 On ch=1 n=e5 v=30
303450 Par ch=1 c=64 v=63
303518 Par ch=1 c=64 v=0
305514 Par ch=1 c=64 v=63
305626 Par ch=1 c=64 v=127
305918 On ch=1 n=c#4 v=0
305974 On ch=1 n=f#3 v=0
305980 On ch=1 n=g#5 v=0
306078 On ch=1 n=e5 v=0
306104 On ch=1 n=a#4 v=0
306116 On ch=1 n=c5 v=0
306814 Par ch=1 c=67 v=127
307082 On ch=1 n=b3 v=32
307086 On ch=1 n=b2 v=34
307224 Par ch=1 c=64 v=63
307236 Par ch=1 c=64 v=127
307294 On ch=1 n=b2 v=0
307332 On ch=1 n=a4 v=41
307336 On ch=1 n=b4 v=40
307338 On ch=1 n=b3 v=0
307452 On ch=1 n=b4 v=0
307452 On ch=1 n=a4 v=0
307464 On ch=1 n=e5 v=59
307506 On ch=1 n=f#5 v=57
307582 On ch=1 n=a5 v=55
307610 On ch=1 n=e5 v=0
307628 On ch=1 n=b5 v=63
307638 On ch=1 n=f#5 v=0
307668 On ch=1 n=a5 v=0
307678 On ch=1 n=b5 v=0
307692 On ch=1 n=c#5 v=71
307764 On ch=1 n=c#5 v=0
307770 On ch=1 n=a5 v=26
307778 On ch=1 n=b5 v=25
307832 On ch=1 n=e6 v=62
307838 On ch=1 n=a5 v=0
307848 On ch=1 n=b5 v=0
307964 On ch=1 n=e6 v=0
307966 On ch=1 n=a6 v=58
308010 On ch=1 n=b6 v=35
308022 On ch=1 n=a6 v=0
308032 On ch=1 n=c#6 v=55
308044 On ch=1 n=b6 v=0
308110 On ch=1 n=c#6 v=0
308122 On ch=1 n=a6 v=35
308146 On ch=1 n=b6 v=20
308194 On ch=1 n=b6 v=0
308196 On ch=1 n=a6 v=0
308202 On ch=1 n=e7 v=42
308274 On ch=1 n=f#7 v=53
308302 On ch=1 n=c#7 v=76
308308 On ch=1 n=e7 v=0
308310 On ch=1 n=c#6 v=72
308332 On ch=1 n=a7 v=44
308354 On ch=1 n=c#7 v=0
308358 On ch=1 n=c#6 v=0
308364 On ch=1 n=f#7 v=0
308382 On ch=1 n=a7 v=0
308426 On ch=1 n=b7 v=67
308432 On ch=1 n=a7 v=26
308524 On ch=1 n=b7 v=0
308542 On ch=1 n=e7 v=40
308574 On ch=1 n=f#7 v=29
308592 On ch=1 n=a7 v=0
308604 On ch=1 n=f#7 v=0
308624 On ch=1 n=e7 v=0
308626 On ch=1 n=a6 v=29
308658 On ch=1 n=a6 v=0
308718 On ch=1 n=b6 v=69
308762 On ch=1 n=a6 v=26
308814 On ch=1 n=b6 v=0
308848 On ch=1 n=f#6 v=45
308850 On ch=1 n=e6 v=35
308956 On ch=1 n=a5 v=39
308958 On ch=1 n=b5 v=41
308974 On ch=1 n=a6 v=0
308996 On ch=1 n=f#6 v=0
309006 On ch=1 n=e6 v=0
309010 On ch=1 n=b5 v=0
309012 On ch=1 n=a5 v=0
309050 On ch=1 n=d#6 v=88
309052 On ch=1 n=d#7 v=79
309070 On ch=1 n=a5 v=46
309070 On ch=1 n=b5 v=48
309100 On ch=1 n=d#7 v=0
309112 On ch=1 n=d#6 v=0
309156 On ch=1 n=a5 v=0
309158 On ch=1 n=e6 v=52
309176 On ch=1 n=b5 v=0
309192 On ch=1 n=f#6 v=21
309266 On ch=1 n=a6 v=59
309292 On ch=1 n=e6 v=0
309296 On ch=1 n=b6 v=50
309312 On ch=1 n=f#6 v=0
309330 On ch=1 n=a6 v=0
309340 On ch=1 n=b6 v=0
309388 On ch=1 n=b6 v=54
309390 On ch=1 n=a6 v=53
309434 On ch=1 n=a6 v=0
309478 On ch=1 n=e7 v=66
309486 On ch=1 n=b6 v=0
309590 On ch=1 n=a7 v=65
309598 On ch=1 n=f#7 v=1
309606 On ch=1 n=b7 v=61
309642 On ch=1 n=e7 v=0
309650 On ch=1 n=b7 v=0
309658 On ch=1 n=f#7 v=0
309670 On ch=1 n=a7 v=0
309704 On ch=1 n=b7 v=68
309710 On ch=1 n=a7 v=63
309714 On ch=1 n=c#7 v=83
309716 On ch=1 n=c#6 v=88
309774 On ch=1 n=c#6 v=0
309778 On ch=1 n=c#7 v=0
309790 On ch=1 n=f#7 v=3
309822 On ch=1 n=e7 v=62
309874 On ch=1 n=b7 v=0
309896 On ch=1 n=a7 v=0
309900 On ch=1 n=f#7 v=0
309916 On ch=1 n=a6 v=37
309922 On ch=1 n=b6 v=15
309924 On ch=1 n=e7 v=0
309948 On ch=1 n=a6 v=0
309952 On ch=1 n=b6 v=0
310014 On ch=1 n=b6 v=74
310110 On ch=1 n=a6 v=1
310126 On ch=1 n=g6 v=2
310128 On ch=1 n=e6 v=50
310162 On ch=1 n=f#6 v=36
310196 On ch=1 n=b6 v=0
310232 On ch=1 n=b5 v=53
310240 On ch=1 n=a6 v=0
310256 On ch=1 n=g6 v=0
310276 On ch=1 n=f#6 v=0
310290 On ch=1 n=b5 v=0
310292 On ch=1 n=e6 v=0
310352 On ch=1 n=a5 v=52
310352 On ch=1 n=b5 v=53
310378 On ch=1 n=f#6 v=88
310380 On ch=1 n=f#7 v=84
310438 On ch=1 n=a5 v=0
310446 On ch=1 n=e6 v=61
310452 On ch=1 n=b5 v=0
310488 On ch=1 n=f#7 v=0
310556 On ch=1 n=b6 v=63
310562 On ch=1 n=a6 v=49
310572 On ch=1 n=e6 v=0
310598 On ch=1 n=f#6 v=0
310610 On ch=1 n=a6 v=0
310618 On ch=1 n=b6 v=0
310658 On ch=1 n=b6 v=66
310672 On ch=1 n=d#7 v=89
310682 On ch=1 n=d#6 v=90
310744 On ch=1 n=b6 v=0
310750 On ch=1 n=d#7 v=0
310766 On ch=1 n=e7 v=70
310772 On ch=1 n=d#6 v=0
310852 On ch=1 n=f#7 v=1
310856 On ch=1 n=a7 v=51
310866 On ch=1 n=b7 v=62
310898 On ch=1 n=e7 v=0
310920 On ch=1 n=b7 v=0
310920 On ch=1 n=f#7 v=0
310934 On ch=1 n=a7 v=0
310970 On ch=1 n=b7 v=65
310970 On ch=1 n=a7 v=64
311028 On ch=1 n=c#6 v=94
311028 On ch=1 n=c#7 v=82
311064 On ch=1 n=f#7 v=30
311092 On ch=1 n=e7 v=61
311096 On ch=1 n=c#7 v=0
311098 On ch=1 n=c#6 v=0
311152 On ch=1 n=b7 v=0
311180 On ch=1 n=a7 v=0
311182 On ch=1 n=a6 v=56
311182 On ch=1 n=b6 v=47
311186 On ch=1 n=f#7 v=0
311208 On ch=1 n=e7 v=0
311224 On ch=1 n=b6 v=0
311238 On ch=1 n=a6 v=0
311296 On ch=1 n=b6 v=82
311312 On ch=1 n=a6 v=56
311422 On ch=1 n=e6 v=62
311436 On ch=1 n=f#6 v=52
311518 On ch=1 n=b6 v=0
311530 On ch=1 n=a5 v=57
311532 On ch=1 n=b5 v=60
311578 On ch=1 n=b5 v=0
311578 On ch=1 n=a5 v=0
311582 On ch=1 n=e6 v=0
311600 On ch=1 n=f#6 v=0
311600 On ch=1 n=a6 v=0
311632 On ch=1 n=g#5 v=71
311642 On ch=1 n=a5 v=53
311644 On ch=1 n=b5 v=56
311644 On ch=1 n=g#6 v=53
311708 On ch=1 n=g#6 v=0
311736 On ch=1 n=a5 v=0
311744 On ch=1 n=g#5 v=0
311748 On ch=1 n=b5 v=0
311752 On ch=1 n=e6 v=54
311786 On ch=1 n=f#6 v=19
311836 On ch=1 n=a6 v=39
311854 On ch=1 n=b6 v=60
311868 On ch=1 n=e6 v=0
311892 On ch=1 n=f#6 v=0
311910 On ch=1 n=a6 v=0
311914 On ch=1 n=b6 v=0
311960 On ch=1 n=b6 v=65
312038 On ch=1 n=b6 v=0
312064 On ch=1 n=e7 v=76
312146 On ch=1 n=e7 v=0
312170 On ch=1 n=a7 v=58
312176 On ch=1 n=b7 v=62
312186 On ch=1 n=f#7 v=35
312216 On ch=1 n=f#7 v=0
312228 On ch=1 n=b7 v=0
312242 On ch=1 n=a7 v=0
312272 On ch=1 n=g#6 v=66
312276 On ch=1 n=g#5 v=72
312278 On ch=1 n=b7 v=62
312282 On ch=1 n=a7 v=56
312348 On ch=1 n=f#7 v=9
312374 On ch=1 n=g#6 v=0
312392 On ch=1 n=g#5 v=0
312418 On ch=1 n=e7 v=60
312452 On ch=1 n=b7 v=0
312482 On ch=1 n=a7 v=0
312498 On ch=1 n=f#7 v=0
312498 On ch=1 n=a6 v=54
312500 On ch=1 n=b6 v=42
312514 On ch=1 n=e7 v=0
312528 On ch=1 n=b6 v=0
312550 On ch=1 n=a6 v=0
312610 On ch=1 n=b6 v=76
312640 On ch=1 n=a6 v=5
312730 On ch=1 n=e6 v=34
312744 On ch=1 n=f#6 v=45
312784 On ch=1 n=b6 v=0
312842 On ch=1 n=a5 v=43
312842 On ch=1 n=b5 v=45
312880 On ch=1 n=a6 v=0
312896 On ch=1 n=e6 v=0
312900 On ch=1 n=b5 v=0
312902 On ch=1 n=a5 v=0
312906 On ch=1 n=f#6 v=0
312956 On ch=1 n=a5 v=48
312958 On ch=1 n=b5 v=52
312966 On ch=1 n=f#6 v=27
312976 On ch=1 n=f#5 v=34
313038 On ch=1 n=a5 v=0
313054 On ch=1 n=b5 v=0
313062 On ch=1 n=e6 v=51
313166 On ch=1 n=a6 v=39
313170 On ch=1 n=e6 v=0
313174 On ch=1 n=b6 v=60
313224 On ch=1 n=a6 v=0
313228 On ch=1 n=b6 v=0
313228 On ch=1 n=f#6 v=0
313290 On ch=1 n=b6 v=48
313292 On ch=1 n=a6 v=51
313332 On ch=1 n=f#5 v=0
313358 On ch=1 n=a6 v=0
313364 On ch=1 n=b6 v=0
313396 On ch=1 n=e7 v=66
313472 On ch=1 n=e7 v=0
313506 On ch=1 n=a7 v=53
313516 On ch=1 n=b7 v=56
313520 On ch=1 n=f#7 v=29
313550 On ch=1 n=f#7 v=0
313560 On ch=1 n=b7 v=0
313576 On ch=1 n=a7 v=0
313614 On ch=1 n=c#5 v=85
313618 On ch=1 n=b7 v=48
313622 On ch=1 n=a7 v=54
313632 On ch=1 n=c#6 v=49
313712 On ch=1 n=f#7 v=28
313758 On ch=1 n=e7 v=46
313788 On ch=1 n=b7 v=0
313790 On ch=1 n=c#5 v=0
313814 On ch=1 n=c#6 v=0
313820 On ch=1 n=a7 v=0
313832 On ch=1 n=f#7 v=0
313846 On ch=1 n=a6 v=33
313848 On ch=1 n=b6 v=22
313850 On ch=1 n=e7 v=0
313880 On ch=1 n=a6 v=0
313882 On ch=1 n=b6 v=0
313946 On ch=1 n=b6 v=71
313964 On ch=1 n=a6 v=49
314066 On ch=1 n=e6 v=34
314086 On ch=1 n=b6 v=0
314156 On ch=1 n=f#6 v=1
314182 On ch=1 n=a5 v=45
314186 On ch=1 n=b5 v=48
314222 On ch=1 n=a6 v=0
314228 On ch=1 n=b5 v=0
314230 On ch=1 n=a5 v=0
314230 On ch=1 n=f#6 v=0
314238 On ch=1 n=e6 v=0
314294 On ch=1 n=a5 v=51
314296 On ch=1 n=b5 v=57
314310 On ch=1 n=d#6 v=91
314318 On ch=1 n=d#5 v=92
314378 On ch=1 n=a5 v=0
314388 On ch=1 n=b5 v=0
314396 On ch=1 n=e6 v=55
314414 On ch=1 n=d#6 v=0
314482 On ch=1 n=d#5 v=0
314510 On ch=1 n=f#6 v=1
314514 On ch=1 n=a6 v=58
314526 On ch=1 n=b6 v=60
314532 On ch=1 n=e6 v=0
314560 On ch=1 n=f#6 v=0
314572 On ch=1 n=a6 v=0
314578 On ch=1 n=b6 v=0
314636 On ch=1 n=b6 v=53
314636 On ch=1 n=a6 v=48
314698 On ch=1 n=a6 v=0
314702 On ch=1 n=b6 v=0
314736 On ch=1 n=e7 v=70
314830 On ch=1 n=e7 v=0
314848 On ch=1 n=f#7 v=38
314848 On ch=1 n=a7 v=48
314850 On ch=1 n=b7 v=58
314904 On ch=1 n=b7 v=0
314908 On ch=1 n=f#7 v=0
314918 On ch=1 n=a7 v=0
314962 On ch=1 n=c#6 v=99
314964 On ch=1 n=b7 v=64
314966 On ch=1 n=a7 v=53
314968 On ch=1 n=c#5 v=100
314998 On ch=1 n=f#7 v=17
315062 On ch=1 n=c#5 v=0
315084 On ch=1 n=e7 v=68
315112 On ch=1 n=c#6 v=0
315142 On ch=1 n=b7 v=0
315156 On ch=1 n=a7 v=0
315162 On ch=1 n=f#7 v=0
315176 On ch=1 n=a6 v=55
315182 On ch=1 n=b6 v=38
315188 On ch=1 n=e7 v=0
315212 On ch=1 n=b6 v=0
315220 On ch=1 n=a6 v=0
315282 On ch=1 n=b6 v=65
315292 On ch=1 n=a6 v=68
315400 On ch=1 n=f#6 v=53
315402 On ch=1 n=e6 v=60
315522 On ch=1 n=a5 v=50
315522 On ch=1 n=b5 v=48
315524 On ch=1 n=b6 v=0
315548 On ch=1 n=a6 v=0
315566 On ch=1 n=e6 v=0
315568 On ch=1 n=b5 v=0
315568 On ch=1 n=a5 v=0
315572 On ch=1 n=f#6 v=0
315618 On ch=1 n=f#6 v=89
315622 On ch=1 n=f#5 v=82
315630 On ch=1 n=a5 v=48
315632 On ch=1 n=b5 v=51
315712 On ch=1 n=a5 v=0
315728 On ch=1 n=e6 v=56
315734 On ch=1 n=b5 v=0
315748 On ch=1 n=f#6 v=0
315776 On ch=1 n=f#6 v=3
315784 On ch=1 n=f#5 v=0
315830 On ch=1 n=a6 v=40
315832 On ch=1 n=b6 v=58
315856 On ch=1 n=e6 v=0
315880 On ch=1 n=f#6 v=0
315890 On ch=1 n=a6 v=0
315896 On ch=1 n=b6 v=0
315938 On ch=1 n=a6 v=64
315946 On ch=1 n=b6 v=70
315980 On ch=1 n=d#6 v=93
315992 On ch=1 n=d#5 v=87
316016 On ch=1 n=b6 v=0
316018 On ch=1 n=a6 v=0
316054 On ch=1 n=e7 v=77
316084 On ch=1 n=d#6 v=0
316122 On ch=1 n=d#5 v=0
316154 On ch=1 n=a7 v=59
316156 On ch=1 n=b7 v=64
316164 On ch=1 n=f#7 v=44
316196 On ch=1 n=f#7 v=0
316196 On ch=1 n=e7 v=0
316222 On ch=1 n=b7 v=0
316228 On ch=1 n=a7 v=0
316274 On ch=1 n=b7 v=60
316274 On ch=1 n=a7 v=63
316312 On ch=1 n=c#6 v=84
316318 On ch=1 n=c#5 v=87
316378 On ch=1 n=f#7 v=44
316388 On ch=1 n=e7 v=58
316404 On ch=1 n=c#6 v=0
316442 On ch=1 n=c#5 v=0
316448 On ch=1 n=b7 v=0
316480 On ch=1 n=a7 v=0
316480 On ch=1 n=b6 v=32
316482 On ch=1 n=a6 v=48
316484 On ch=1 n=f#7 v=0
316496 On ch=1 n=e7 v=0
316520 On ch=1 n=b6 v=0
316530 On ch=1 n=a6 v=0
316592 On ch=1 n=b6 v=77
316608 On ch=1 n=a6 v=59
316704 On ch=1 n=e6 v=64
316728 On ch=1 n=f#6 v=46
316784 On ch=1 n=b6 v=0
316820 On ch=1 n=a5 v=58
316820 On ch=1 n=b5 v=56
316844 On ch=1 n=a6 v=0
316866 On ch=1 n=b5 v=0
316866 On ch=1 n=a5 v=0
316874 On ch=1 n=e6 v=0
316880 On ch=1 n=f#6 v=0
316924 On ch=1 n=g#5 v=84
316930 On ch=1 n=g#4 v=83
316934 On ch=1 n=a5 v=55
316934 On ch=1 n=b5 v=56
317016 On ch=1 n=a5 v=0
317022 On ch=1 n=b5 v=0
317036 On ch=1 n=g#5 v=0
317046 On ch=1 n=g#4 v=0
317046 On ch=1 n=e6 v=58
317070 On ch=1 n=f#6 v=35
317160 On ch=1 n=a6 v=53
317166 On ch=1 n=b6 v=64
317174 On ch=1 n=e6 v=0
317210 On ch=1 n=f#6 v=0
317218 On ch=1 n=a6 v=0
317226 On ch=1 n=b6 v=0
317274 On ch=1 n=b6 v=56
317348 On ch=1 n=b6 v=0
317384 On ch=1 n=e7 v=63
317484 On ch=1 n=f#7 v=1
317486 On ch=1 n=a7 v=55
317490 On ch=1 n=b7 v=56
317518 On ch=1 n=e7 v=0
317546 On ch=1 n=f#7 v=0
317548 On ch=1 n=g#5 v=70
317552 On ch=1 n=b7 v=0
317556 On ch=1 n=g#4 v=63
317562 On ch=1 n=a7 v=0
317602 On ch=1 n=b7 v=51
317608 On ch=1 n=a7 v=60
317664 On ch=1 n=g#5 v=0
317664 On ch=1 n=f#7 v=22
317696 On ch=1 n=g#4 v=0
317740 On ch=1 n=e7 v=57
317780 On ch=1 n=b7 v=0
317798 On ch=1 n=a7 v=0
317820 On ch=1 n=f#7 v=0
317822 On ch=1 n=a6 v=39
317822 On ch=1 n=b6 v=31
317838 On ch=1 n=e7 v=0
317856 On ch=1 n=b6 v=0
317870 On ch=1 n=a6 v=0
317936 On ch=1 n=b6 v=72
317970 On ch=1 n=a6 v=32
318062 On ch=1 n=e6 v=47
318080 On ch=1 n=f#6 v=47
318102 On ch=1 n=b6 v=0
318170 On ch=1 n=b5 v=36
318174 On ch=1 n=a5 v=50
318218 On ch=1 n=a5 v=0
318220 On ch=1 n=b5 v=0
318226 On ch=1 n=e6 v=0
318244 On ch=1 n=f#6 v=0
318248 On ch=1 n=a6 v=0
318262 On ch=1 n=f#5 v=61
318264 On ch=1 n=f#4 v=63
318284 On ch=1 n=b5 v=38
318286 On ch=1 n=a5 v=39
318340 On ch=1 n=f#5 v=0
318356 On ch=1 n=f#4 v=0
318366 On ch=1 n=a5 v=0
318392 On ch=1 n=b5 v=0
318392 On ch=1 n=e6 v=56
318420 On ch=1 n=f#6 v=39
318504 On ch=1 n=a6 v=52
318506 On ch=1 n=e6 v=0
318518 On ch=1 n=b6 v=60
318538 On ch=1 n=f#6 v=0
318550 On ch=1 n=a6 v=0
318568 On ch=1 n=b6 v=0
318620 On ch=1 n=b6 v=54
318620 On ch=1 n=a6 v=21
318684 On ch=1 n=a6 v=0
318710 On ch=1 n=e7 v=67
318732 On ch=1 n=b6 v=0
318796 On ch=1 n=e7 v=0
318802 On ch=1 n=a3 v=75
318808 On ch=1 n=e4 v=72
318828 On ch=1 n=a7 v=58
318830 On ch=1 n=b7 v=60
318896 On ch=1 n=b7 v=0
318900 On ch=1 n=a7 v=0
318962 Par ch=1 c=64 v=63
318974 Par ch=1 c=64 v=127
319054 Par ch=1 c=67 v=127
319058 On ch=1 n=c#5 v=70
319066 On ch=1 n=a4 v=46
319066 On ch=1 n=e5 v=60
319084 On ch=1 n=g#4 v=75
319088 On ch=1 n=a7 v=70
319172 Par ch=1 c=64 v=63
319184 Par ch=1 c=64 v=127
319216 On ch=1 n=f#7 v=80
319238 On ch=1 n=a7 v=0
319308 On ch=1 n=e7 v=78
319312 On ch=1 n=a3 v=0
319318 On ch=1 n=e4 v=0
319322 On ch=1 n=f#7 v=0
319386 On ch=1 n=c#7 v=81
319404 On ch=1 n=e7 v=0
319450 On ch=1 n=e5 v=0
319452 On ch=1 n=c#7 v=0
319460 On ch=1 n=a6 v=67
319516 On ch=1 n=a6 v=0
319550 On ch=1 n=f#6 v=93
319624 On ch=1 n=e6 v=93
319644 On ch=1 n=f#6 v=0
319694 On ch=1 n=c#6 v=98
319740 On ch=1 n=e6 v=0
319798 On ch=1 n=a5 v=83
319798 On ch=1 n=f#5 v=108
319804 On ch=1 n=c#6 v=0
319880 On ch=1 n=c#6 v=72
319896 On ch=1 n=a5 v=0
319956 On ch=1 n=e6 v=72
319990 On ch=1 n=c#6 v=0
320012 On ch=1 n=f#5 v=0
320042 On ch=1 n=f#6 v=93
320066 On ch=1 n=e6 v=0
320098 On ch=1 n=f#6 v=0
320120 On ch=1 n=e5 v=112
320154 On ch=1 n=a6 v=86
320228 On ch=1 n=a6 v=0
320236 On ch=1 n=c#5 v=0
320240 On ch=1 n=c#7 v=97
320306 On ch=1 n=a4 v=0
320316 On ch=1 n=g#4 v=0
320316 On ch=1 n=e7 v=82
320322 On ch=1 n=c#7 v=0
320380 On ch=1 n=f#7 v=95
320412 On ch=1 n=e7 v=0
320426 On ch=1 n=e5 v=0
320486 On ch=1 n=c#5 v=113
320496 On ch=1 n=a7 v=84
320498 On ch=1 n=a4 v=80
320502 On ch=1 n=f#7 v=0
320512 On ch=1 n=f#4 v=80
320538 Par ch=1 c=64 v=63
320552 Par ch=1 c=64 v=127
320602 On ch=1 n=f#7 v=78
320606 On ch=1 n=a7 v=0
320690 On ch=1 n=f#7 v=0
320690 On ch=1 n=e7 v=59
320772 On ch=1 n=c#7 v=81
320778 On ch=1 n=e7 v=0
320782 On ch=1 n=c#5 v=0
320796 On ch=1 n=a4 v=0
320830 On ch=1 n=c#7 v=0
320834 On ch=1 n=f#4 v=0
320854 On ch=1 n=a6 v=55
320898 On ch=1 n=a6 v=0
320940 On ch=1 n=f#6 v=90
321024 On ch=1 n=e6 v=82
321036 On ch=1 n=f#6 v=0
321092 On ch=1 n=c#6 v=94
321130 On ch=1 n=e6 v=0
321188 On ch=1 n=c#6 v=0
321190 On ch=1 n=a5 v=73
321190 On ch=1 n=e4 v=76
321204 On ch=1 n=a3 v=49
321264 On ch=1 n=c#6 v=74
321276 On ch=1 n=a5 v=0
321336 On ch=1 n=e6 v=73
321354 On ch=1 n=c#6 v=0
321360 On ch=1 n=a3 v=0
321384 On ch=1 n=e4 v=0
321428 On ch=1 n=f#6 v=91
321436 On ch=1 n=e6 v=0
321476 On ch=1 n=f#6 v=0
321520 On ch=1 n=a6 v=74
321586 On ch=1 n=a6 v=0
321598 On ch=1 n=c#7 v=97
321676 On ch=1 n=c#7 v=0
321676 On ch=1 n=e7 v=77
321748 On ch=1 n=f#7 v=88
321764 On ch=1 n=e7 v=0
321868 On ch=1 n=e5 v=98
321870 On ch=1 n=f#7 v=0
321876 On ch=1 n=c#5 v=87
321882 On ch=1 n=g#4 v=75
321886 On ch=1 n=a7 v=78
321906 On ch=1 n=a4 v=28
322020 On ch=1 n=a7 v=0
322020 On ch=1 n=f#7 v=76
322096 On ch=1 n=e7 v=69
322108 On ch=1 n=f#7 v=0
322178 On ch=1 n=c#7 v=83
322188 On ch=1 n=e7 v=0
322236 On ch=1 n=c#7 v=0
322242 On ch=1 n=e5 v=0
322262 On ch=1 n=a6 v=48
322304 On ch=1 n=a6 v=0
322350 On ch=1 n=f#6 v=92
322432 On ch=1 n=e6 v=85
322462 On ch=1 n=f#6 v=0
322496 On ch=1 n=c#6 v=97
322532 On ch=1 n=e6 v=0
322590 On ch=1 n=c#6 v=0
322596 On ch=1 n=a5 v=76
322602 On ch=1 n=f#5 v=114
322682 On ch=1 n=c#6 v=79
322692 On ch=1 n=a5 v=0
322734 On ch=1 n=f#5 v=0
322746 On ch=1 n=c#5 v=0
322758 On ch=1 n=e6 v=68
322774 On ch=1 n=c#6 v=0
322778 On ch=1 n=a4 v=0
322836 On ch=1 n=f#6 v=98
322864 On ch=1 n=e6 v=0
322894 On ch=1 n=f#6 v=0
322926 On ch=1 n=e5 v=111
322942 On ch=1 n=a6 v=89
323016 On ch=1 n=a6 v=0
323020 On ch=1 n=c#7 v=98
323056 On ch=1 n=g#4 v=0
323064 On ch=1 n=e5 v=0
323104 On ch=1 n=e7 v=76
323118 On ch=1 n=c#7 v=0
323166 On ch=1 n=f#7 v=100
323208 On ch=1 n=e7 v=0
323272 On ch=1 n=c#5 v=113
323280 On ch=1 n=a7 v=84
323288 On ch=1 n=a4 v=70
323290 On ch=1 n=f#4 v=69
323294 On ch=1 n=f#7 v=0
323322 Par ch=1 c=64 v=63
323352 Par ch=1 c=64 v=127
323386 On ch=1 n=f#7 v=78
323394 On ch=1 n=a7 v=0
323454 On ch=1 n=e7 v=75
323484 On ch=1 n=f#7 v=0
323492 On ch=1 n=c#5 v=0
323542 On ch=1 n=c#7 v=88
323570 On ch=1 n=e7 v=0
323614 On ch=1 n=c#7 v=0
323618 On ch=1 n=b4 v=106
323628 On ch=1 n=a6 v=68
323684 On ch=1 n=a6 v=0
323728 On ch=1 n=f#6 v=92
323812 On ch=1 n=e6 v=84
323830 On ch=1 n=f#6 v=0
323838 On ch=1 n=b4 v=0
323874 On ch=1 n=c#6 v=96
323916 On ch=1 n=e6 v=0
323972 On ch=1 n=c#5 v=105
323976 On ch=1 n=c#6 v=0
323976 On ch=1 n=a5 v=83
324046 On ch=1 n=c#5 v=0
324048 On ch=1 n=a4 v=0
324052 On ch=1 n=c#6 v=78
324070 On ch=1 n=a5 v=0
324078 On ch=1 n=f#4 v=0
324140 On ch=1 n=e6 v=74
324166 On ch=1 n=c#6 v=0
324230 On ch=1 n=f#6 v=86
324246 On ch=1 n=e6 v=0
324288 On ch=1 n=f#6 v=0
324316 On ch=1 n=a3 v=76
324320 On ch=1 n=e4 v=74
324334 On ch=1 n=a6 v=84
324354 On ch=1 n=a3 v=0
324368 On ch=1 n=e4 v=0
324410 On ch=1 n=a6 v=0
324420 On ch=1 n=c#7 v=92
324510 On ch=1 n=c#7 v=0
324524 On ch=1 n=e7 v=65
324598 On ch=1 n=f#7 v=83
324600 On ch=1 n=e7 v=0
324706 On ch=1 n=f#7 v=0
324750 On ch=1 n=e5 v=91
324766 On ch=1 n=c#5 v=80
324778 On ch=1 n=g#4 v=63
324780 On ch=1 n=a7 v=62
324782 On ch=1 n=a4 v=55
324954 Par ch=1 c=64 v=63
324962 On ch=1 n=f#7 v=77
324968 Par ch=1 c=64 v=127
324992 On ch=1 n=a7 v=0
325068 On ch=1 n=e7 v=65
325080 On ch=1 n=f#7 v=0
325148 On ch=1 n=c#7 v=76
325164 On ch=1 n=e7 v=0
325218 On ch=1 n=c#7 v=0
325228 On ch=1 n=a6 v=59
325282 On ch=1 n=a6 v=0
325314 On ch=1 n=e5 v=0
325318 On ch=1 n=f#6 v=88
325398 On ch=1 n=e6 v=73
325416 On ch=1 n=f#6 v=0
325468 On ch=1 n=c#6 v=88
325472 On ch=1 n=e6 v=0
325550 On ch=1 n=f#5 v=107
325566 On ch=1 n=c#6 v=0
325578 On ch=1 n=a5 v=78
325654 On ch=1 n=c#6 v=78
325660 On ch=1 n=a5 v=0
325738 On ch=1 n=e6 v=76
325746 On ch=1 n=c#6 v=0
325790 On ch=1 n=f#5 v=0
325802 On ch=1 n=a4 v=0
325808 On ch=1 n=c#5 v=0
325814 On ch=1 n=g#4 v=0
325822 On ch=1 n=f#6 v=91
325836 On ch=1 n=e6 v=0
325878 On ch=1 n=f#6 v=0
325930 On ch=1 n=a6 v=60
325992 On ch=1 n=a6 v=0
326014 On ch=1 n=c#7 v=89
326098 On ch=1 n=c#7 v=0
326114 On ch=1 n=e7 v=78
326244 On ch=1 n=f#4 v=61
326254 On ch=1 n=e5 v=99
326266 On ch=1 n=a4 v=54
326288 On ch=1 n=f#7 v=82
326290 On ch=1 n=e7 v=0
326410 On ch=1 n=e7 v=72
326416 On ch=1 n=f#7 v=0
326498 On ch=1 n=c#7 v=86
326502 On ch=1 n=e7 v=0
326558 On ch=1 n=c#7 v=0
326580 On ch=1 n=a6 v=65
326646 On ch=1 n=a6 v=0
326678 On ch=1 n=f#6 v=83
326740 On ch=1 n=a4 v=0
326764 On ch=1 n=f#6 v=0
326764 On ch=1 n=e6 v=45
326828 On ch=1 n=e6 v=0
326836 On ch=1 n=c#6 v=92
326866 On ch=1 n=f#4 v=0
326904 On ch=1 n=c#6 v=0
326922 On ch=1 n=a5 v=74
327002 On ch=1 n=a5 v=0
327010 On ch=1 n=c#5 v=109
327028 On ch=1 n=f#5 v=81
327034 On ch=1 n=e5 v=0
327086 On ch=1 n=f#5 v=0
327114 On ch=1 n=a5 v=68
327184 On ch=1 n=a5 v=0
327194 On ch=1 n=c#5 v=0
327210 On ch=1 n=c#6 v=80
327296 On ch=1 n=c#6 v=0
327304 On ch=1 n=e6 v=75
327406 On ch=1 n=f#6 v=83
327410 On ch=1 n=e6 v=0
327468 On ch=1 n=f#6 v=0
327526 On ch=1 n=a6 v=79
327642 On ch=1 n=g#3 v=90
327650 On ch=1 n=c#7 v=88
327652 On ch=1 n=a6 v=0
327684 Par ch=1 c=64 v=63
327692 Par ch=1 c=64 v=0
327716 On ch=1 n=e4 v=78
327722 Par ch=1 c=64 v=63
327730 On ch=1 n=g#3 v=0
327740 Par ch=1 c=64 v=127
327872 On ch=1 n=a4 v=78
327872 On ch=1 n=b4 v=90
327876 On ch=1 n=c#7 v=0
327894 On ch=1 n=e7 v=81
328050 On ch=1 n=e7 v=0
328060 On ch=1 n=c#7 v=72
328070 On ch=1 n=e4 v=0
328098 On ch=1 n=a4 v=0
328112 On ch=1 n=b4 v=0
328134 On ch=1 n=c#7 v=0
328154 On ch=1 n=a6 v=72
328218 On ch=1 n=a6 v=0
328252 On ch=1 n=f#6 v=83
328332 On ch=1 n=e6 v=76
328340 On ch=1 n=f#6 v=0
328412 On ch=1 n=c#6 v=76
328414 On ch=1 n=e6 v=0
328520 On ch=1 n=c#6 v=0
328540 On ch=1 n=a5 v=54
328592 On ch=1 n=f#5 v=76
328624 On ch=1 n=a5 v=0
328682 On ch=1 n=f#5 v=0
328690 On ch=1 n=e5 v=40
328804 On ch=1 n=f#5 v=87
328816 On ch=1 n=e5 v=0
328884 On ch=1 n=f#5 v=0
328898 On ch=1 n=a5 v=64
328976 On ch=1 n=c#6 v=69
328978 On ch=1 n=a5 v=0
329074 On ch=1 n=c#6 v=0
329086 On ch=1 n=e6 v=59
329186 On ch=1 n=f#6 v=75
329208 On ch=1 n=e6 v=0
329316 On ch=1 n=f#6 v=0
329322 On ch=1 n=a6 v=63
329344 On ch=1 n=f#3 v=78
329358 Par ch=1 c=64 v=63
329366 Par ch=1 c=64 v=0
329398 Par ch=1 c=64 v=63
329406 On ch=1 n=f#3 v=0
329408 Par ch=1 c=64 v=127
329442 On ch=1 n=e4 v=68
329540 On ch=1 n=e4 v=0
329554 On ch=1 n=a4 v=64
329688 On ch=1 n=c#5 v=108
329696 On ch=1 n=a4 v=0
329720 On ch=1 n=a6 v=0
329724 On ch=1 n=b6 v=61
329738 On ch=1 n=c#5 v=0
329910 On ch=1 n=b6 v=0
329910 On ch=1 n=a6 v=63
329994 On ch=1 n=f#6 v=80
330016 On ch=1 n=a6 v=0
330072 On ch=1 n=e6 v=55
330106 On ch=1 n=f#6 v=0
330170 On ch=1 n=c#6 v=58
330184 On ch=1 n=e6 v=0
330252 On ch=1 n=c#6 v=0
330282 On ch=1 n=a5 v=39
330352 On ch=1 n=f#5 v=75
330374 On ch=1 n=a5 v=0
330442 On ch=1 n=f#5 v=0
330454 On ch=1 n=e5 v=44
330552 On ch=1 n=e5 v=0
330554 On ch=1 n=c#5 v=64
330660 On ch=1 n=e5 v=51
330682 On ch=1 n=c#5 v=0
330752 On ch=1 n=f#5 v=65
330764 On ch=1 n=e5 v=0
330834 On ch=1 n=f#5 v=0
330844 On ch=1 n=a5 v=45
330900 On ch=1 n=a5 v=0
330948 On ch=1 n=c#6 v=61
331074 On ch=1 n=c#6 v=0
331086 On ch=1 n=e6 v=50
331228 On ch=1 n=f#6 v=63
331256 On ch=1 n=e6 v=0
331356 Par ch=1 c=64 v=63
331364 Par ch=1 c=64 v=0
331366 On ch=1 n=b3 v=50
331372 On ch=1 n=e3 v=48
331394 Par ch=1 c=64 v=63
331402 On ch=1 n=a6 v=49
331406 Par ch=1 c=64 v=127
331418 On ch=1 n=f#6 v=0
331468 On ch=1 n=e3 v=0
331480 On ch=1 n=b3 v=0
331698 On ch=1 n=a6 v=0
331720 On ch=1 n=c#6 v=66
331724 On ch=1 n=c#5 v=60
331726 On ch=1 n=b6 v=65
331854 On ch=1 n=c#6 v=0
331878 On ch=1 n=g#6 v=75
331882 On ch=1 n=b6 v=0
331890 On ch=1 n=c#5 v=0
331982 On ch=1 n=e6 v=52
331996 On ch=1 n=g#6 v=0
332050 On ch=1 n=c#6 v=50
332074 On ch=1 n=e6 v=0
332122 On ch=1 n=c#6 v=0
332178 On ch=1 n=b5 v=54
332270 On ch=1 n=b5 v=0
332272 On ch=1 n=g#5 v=54
332332 On ch=1 n=g#5 v=0
332344 On ch=1 n=e5 v=60
332426 On ch=1 n=c#5 v=69
332452 On ch=1 n=e5 v=0
332528 On ch=1 n=d#6 v=90
332530 On ch=1 n=c#5 v=0
332532 On ch=1 n=d#5 v=65
332534 On ch=1 n=b4 v=65
332612 On ch=1 n=d#5 v=0
332648 On ch=1 n=c#5 v=65
332668 On ch=1 n=b4 v=0
332676 On ch=1 n=d#6 v=0
332712 On ch=1 n=e5 v=61
332758 On ch=1 n=c#5 v=0
332802 On ch=1 n=g#5 v=86
332810 On ch=1 n=e5 v=0
332872 On ch=1 n=b5 v=73
332874 On ch=1 n=g#5 v=0
332932 On ch=1 n=b5 v=0
332970 On ch=1 n=c#6 v=80
333040 On ch=1 n=c#6 v=0
333048 On ch=1 n=e6 v=70
333156 On ch=1 n=g#6 v=72
333174 On ch=1 n=e6 v=0
333212 On ch=1 n=g#4 v=95
333212 On ch=1 n=g#5 v=91
333240 On ch=1 n=b6 v=70
333242 On ch=1 n=g#6 v=0
333286 On ch=1 n=g#4 v=0
333294 On ch=1 n=g#5 v=0
333316 On ch=1 n=g#6 v=79
333322 On ch=1 n=b6 v=0
333396 On ch=1 n=e6 v=59
333416 On ch=1 n=g#6 v=0
333474 On ch=1 n=c#6 v=78
333486 On ch=1 n=e6 v=0
333534 On ch=1 n=c#6 v=0
333596 On ch=1 n=b5 v=59
333674 On ch=1 n=b5 v=0
333678 On ch=1 n=g#5 v=70
333750 On ch=1 n=g#5 v=0
333764 On ch=1 n=e5 v=45
333834 On ch=1 n=c#5 v=72
333876 On ch=1 n=e5 v=0
333912 On ch=1 n=b5 v=94
333940 On ch=1 n=b4 v=48
333944 On ch=1 n=c#5 v=0
334024 On ch=1 n=c#5 v=52
334058 On ch=1 n=b4 v=0
334066 On ch=1 n=b5 v=0
334098 On ch=1 n=e5 v=43
334132 On ch=1 n=c#5 v=0
334182 On ch=1 n=g#5 v=77
334188 On ch=1 n=e5 v=0
334256 On ch=1 n=g#5 v=0
334256 On ch=1 n=b5 v=59
334314 On ch=1 n=b5 v=0
334330 On ch=1 n=c#6 v=81
334406 On ch=1 n=c#6 v=0
334422 On ch=1 n=e6 v=63
334512 On ch=1 n=g#6 v=74
334524 On ch=1 n=e6 v=0
334590 On ch=1 n=c#6 v=94
334604 On ch=1 n=g#6 v=0
334604 On ch=1 n=c#5 v=71
334616 On ch=1 n=b6 v=54
334626 On ch=1 n=c#5 v=0
334636 On ch=1 n=c#6 v=0
334684 On ch=1 n=g#6 v=76
334696 On ch=1 n=b6 v=0
334766 On ch=1 n=e6 v=57
334802 On ch=1 n=g#6 v=0
334846 On ch=1 n=c#6 v=84
334864 On ch=1 n=e6 v=0
334908 On ch=1 n=c#6 v=0
334968 On ch=1 n=b5 v=59
335056 On ch=1 n=g#5 v=68
335062 On ch=1 n=b5 v=0
335140 On ch=1 n=g#5 v=0
335150 On ch=1 n=e5 v=55
335218 On ch=1 n=c#5 v=79
335262 On ch=1 n=e5 v=0
335308 On ch=1 n=d#6 v=84
335308 On ch=1 n=d#5 v=75
335328 On ch=1 n=c#5 v=0
335330 On ch=1 n=b4 v=64
335366 On ch=1 n=d#5 v=0
335424 On ch=1 n=d#6 v=0
335426 On ch=1 n=c#5 v=53
335434 On ch=1 n=b4 v=0
335480 On ch=1 n=e5 v=69
335532 On ch=1 n=c#5 v=0
335582 On ch=1 n=g#5 v=81
335588 On ch=1 n=e5 v=0
335636 On ch=1 n=g#5 v=0
335646 On ch=1 n=b5 v=56
335698 On ch=1 n=b5 v=0
335724 On ch=1 n=c#6 v=70
335800 On ch=1 n=c#6 v=0
335816 On ch=1 n=e6 v=62
335906 On ch=1 n=g#6 v=77
335922 On ch=1 n=e6 v=0
335970 On ch=1 n=g#4 v=84
335972 On ch=1 n=g#5 v=76
335998 On ch=1 n=g#6 v=0
336002 On ch=1 n=b6 v=60
336030 On ch=1 n=g#5 v=0
336034 On ch=1 n=g#4 v=0
336074 On ch=1 n=g#6 v=78
336078 On ch=1 n=b6 v=0
336152 On ch=1 n=e6 v=44
336178 On ch=1 n=g#6 v=0
336234 On ch=1 n=c#6 v=69
336246 On ch=1 n=e6 v=0
336296 On ch=1 n=c#6 v=0
336344 On ch=1 n=b5 v=56
336422 On ch=1 n=g#5 v=64
336426 On ch=1 n=b5 v=0
336500 On ch=1 n=g#5 v=0
336520 On ch=1 n=e5 v=47
336596 On ch=1 n=c#5 v=66
336630 On ch=1 n=e5 v=0
336658 On ch=1 n=b5 v=75
336686 On ch=1 n=b4 v=51
336702 On ch=1 n=c#5 v=0
336782 On ch=1 n=c#5 v=35
336810 On ch=1 n=b5 v=0
336812 On ch=1 n=b4 v=0
336844 On ch=1 n=e5 v=59
336894 On ch=1 n=c#5 v=0
336948 On ch=1 n=g#5 v=76
336952 On ch=1 n=e5 v=0
337022 On ch=1 n=g#5 v=0
337026 On ch=1 n=b5 v=40
337076 On ch=1 n=b5 v=0
337094 On ch=1 n=c#6 v=63
337166 On ch=1 n=c#6 v=0
337182 On ch=1 n=e6 v=62
337268 On ch=1 n=g#6 v=72
337284 On ch=1 n=e6 v=0
337342 On ch=1 n=c#6 v=85
337350 On ch=1 n=c#5 v=70
337356 On ch=1 n=g#6 v=0
337360 On ch=1 n=b6 v=57
337398 On ch=1 n=c#5 v=0
337404 On ch=1 n=c#6 v=0
337432 On ch=1 n=g#6 v=72
337444 On ch=1 n=b6 v=0
337512 On ch=1 n=e6 v=53
337548 On ch=1 n=g#6 v=0
337592 On ch=1 n=c#6 v=67
337622 On ch=1 n=e6 v=0
337668 On ch=1 n=c#6 v=0
337698 On ch=1 n=b5 v=67
337788 On ch=1 n=g#5 v=58
337792 On ch=1 n=b5 v=0
337860 On ch=1 n=g#5 v=0
337876 On ch=1 n=e5 v=47
337950 On ch=1 n=c#5 v=69
337988 On ch=1 n=e5 v=0
338038 On ch=1 n=d#6 v=76
338040 On ch=1 n=d#5 v=61
338044 On ch=1 n=c#5 v=0
338056 On ch=1 n=b4 v=42
338112 On ch=1 n=d#5 v=0
338144 On ch=1 n=c#5 v=48
338160 On ch=1 n=b4 v=0
338166 On ch=1 n=d#6 v=0
338222 On ch=1 n=e5 v=30
338256 On ch=1 n=c#5 v=0
338308 On ch=1 n=g#5 v=74
338314 On ch=1 n=e5 v=0
338394 On ch=1 n=g#5 v=0
338396 On ch=1 n=b5 v=52
338456 On ch=1 n=b5 v=0
338474 On ch=1 n=c#6 v=58
338544 On ch=1 n=c#6 v=0
338556 On ch=1 n=e6 v=60
338650 On ch=1 n=g#6 v=71
338670 On ch=1 n=e6 v=0
338724 On ch=1 n=g#4 v=77
338726 On ch=1 n=g#5 v=68
338734 On ch=1 n=g#6 v=0
338740 On ch=1 n=b6 v=55
338782 On ch=1 n=g#4 v=0
338786 On ch=1 n=g#5 v=0
338814 On ch=1 n=g#6 v=72
338820 On ch=1 n=b6 v=0
338904 On ch=1 n=e6 v=44
338924 On ch=1 n=g#6 v=0
338984 On ch=1 n=c#6 v=70
338996 On ch=1 n=e6 v=0
339054 On ch=1 n=c#6 v=0
339090 On ch=1 n=b5 v=55
339156 On ch=1 n=g#5 v=61
339158 On ch=1 n=b5 v=0
339232 On ch=1 n=g#5 v=0
339248 On ch=1 n=e5 v=35
339328 On ch=1 n=c#5 v=63
339354 On ch=1 n=e5 v=0
339422 On ch=1 n=b5 v=70
339428 On ch=1 n=c#5 v=0
339428 On ch=1 n=b4 v=44
339504 On ch=1 n=c#5 v=43
339534 On ch=1 n=b4 v=0
339546 On ch=1 n=b5 v=0
339596 On ch=1 n=e5 v=31
339626 On ch=1 n=c#5 v=0
339670 On ch=1 n=g#5 v=76
339678 On ch=1 n=e5 v=0
339740 On ch=1 n=b5 v=44
339748 On ch=1 n=g#5 v=0
339812 On ch=1 n=b5 v=0
339822 On ch=1 n=c#6 v=65
339900 On ch=1 n=c#6 v=0
339914 On ch=1 n=e6 v=51
340006 On ch=1 n=g#6 v=64
340014 On ch=1 n=e6 v=0
340076 On ch=1 n=c#6 v=74
340086 On ch=1 n=c#5 v=56
340092 On ch=1 n=g#6 v=0
340098 On ch=1 n=b6 v=51
340130 On ch=1 n=c#5 v=0
340132 On ch=1 n=c#6 v=0
340176 On ch=1 n=g#6 v=67
340182 On ch=1 n=b6 v=0
340260 On ch=1 n=e6 v=40
340290 On ch=1 n=g#6 v=0
340334 On ch=1 n=c#6 v=56
340350 On ch=1 n=e6 v=0
340400 On ch=1 n=c#6 v=0
340454 On ch=1 n=b5 v=46
340536 On ch=1 n=b5 v=0
340536 On ch=1 n=g#5 v=54
340602 On ch=1 n=g#5 v=0
340628 On ch=1 n=e5 v=26
340698 On ch=1 n=c#5 v=70
340722 On ch=1 n=e5 v=0
340800 On ch=1 n=c#5 v=0
340802 On ch=1 n=d#6 v=76
340804 On ch=1 n=d#5 v=54
340814 On ch=1 n=b4 v=31
340856 On ch=1 n=d#5 v=0
340908 On ch=1 n=b4 v=0
340908 On ch=1 n=c#5 v=46
340922 On ch=1 n=d#6 v=0
340984 On ch=1 n=e5 v=26
341018 On ch=1 n=c#5 v=0
341070 On ch=1 n=g#5 v=67
341076 On ch=1 n=e5 v=0
341144 On ch=1 n=g#5 v=0
341144 On ch=1 n=b5 v=45
341188 On ch=1 n=b5 v=0
341218 On ch=1 n=c#6 v=58
341284 On ch=1 n=c#6 v=0
341302 On ch=1 n=e6 v=54
341388 On ch=1 n=g#6 v=67
341408 On ch=1 n=e6 v=0
341446 On ch=1 n=g#4 v=79
341456 On ch=1 n=g#5 v=52
341464 On ch=1 n=g#6 v=0
341474 On ch=1 n=b6 v=51
341514 On ch=1 n=g#4 v=0
341516 On ch=1 n=g#5 v=0
341546 On ch=1 n=g#6 v=70
341548 On ch=1 n=b6 v=0
341624 On ch=1 n=e6 v=47
341656 On ch=1 n=g#6 v=0
341716 On ch=1 n=c#6 v=61
341724 On ch=1 n=e6 v=0
341770 On ch=1 n=c#6 v=0
341814 On ch=1 n=b5 v=46
341878 On ch=1 n=b5 v=0
341878 On ch=1 n=g#5 v=63
341958 On ch=1 n=g#5 v=0
342072 On ch=1 n=c#5 v=61
342166 On ch=1 n=b5 v=66
342190 On ch=1 n=c#5 v=0
342194 On ch=1 n=b4 v=45
342256 On ch=1 n=c#5 v=51
342294 On ch=1 n=b4 v=0
342322 On ch=1 n=b5 v=0
342372 On ch=1 n=c#5 v=0
342374 On ch=1 n=e5 v=25
342440 On ch=1 n=g#5 v=64
342444 On ch=1 n=e5 v=0
342502 On ch=1 n=b5 v=52
342506 On ch=1 n=g#5 v=0
342572 On ch=1 n=b5 v=0
342588 On ch=1 n=c#6 v=57
342652 On ch=1 n=c#6 v=0
342672 On ch=1 n=e6 v=50
342746 On ch=1 n=g#6 v=72
342764 On ch=1 n=e6 v=0
342832 On ch=1 n=g#6 v=0
342838 On ch=1 n=b6 v=56
342908 On ch=1 n=g#6 v=80
342920 On ch=1 n=b6 v=0
342994 On ch=1 n=e6 v=51
343028 On ch=1 n=g#6 v=0
343070 On ch=1 n=c#6 v=60
343092 On ch=1 n=e6 v=0
343128 On ch=1 n=c#6 v=0
343188 On ch=1 n=b5 v=37
343266 On ch=1 n=g#5 v=55
343286 On ch=1 n=b5 v=0
343364 On ch=1 n=g#5 v=0
343382 On ch=1 n=e5 v=45
343466 On ch=1 n=c#5 v=65
343510 On ch=1 n=e5 v=0
343580 On ch=1 n=b3 v=52
343598 On ch=1 n=c#5 v=0
343652 On ch=1 n=c#4 v=65
343704 On ch=1 n=b3 v=0
343756 On ch=1 n=e4 v=54
343788 On ch=1 n=c#4 v=0
343872 On ch=1 n=g#4 v=23
343918 On ch=1 n=e4 v=0
343956 On ch=1 n=b4 v=48
344022 On ch=1 n=g#4 v=0
344036 On ch=1 n=c#5 v=65
344104 On ch=1 n=b4 v=0
344164 On ch=1 n=e5 v=41
344174 On ch=1 n=c#5 v=0
344230 On ch=1 n=g#5 v=57
344254 On ch=1 n=e5 v=0
344330 On ch=1 n=b4 v=67
344334 On ch=1 n=g#5 v=0
344410 On ch=1 n=c#5 v=67
344480 On ch=1 n=b4 v=0
344534 On ch=1 n=e5 v=35
344582 On ch=1 n=c#5 v=0
344584 On ch=1 n=g#5 v=60
344620 On ch=1 n=e5 v=0
344658 On ch=1 n=g#5 v=0
344672 On ch=1 n=b5 v=65
344744 On ch=1 n=c#6 v=65
344786 On ch=1 n=b5 v=0
344830 On ch=1 n=e6 v=77
344874 On ch=1 n=c#6 v=0
344930 On ch=1 n=g#6 v=76
344958 On ch=1 n=e6 v=0
345000 On ch=1 n=g#6 v=0
345036 On ch=1 n=b5 v=60
345118 On ch=1 n=c#6 v=67
345212 On ch=1 n=e6 v=58
345242 On ch=1 n=b5 v=0
345326 On ch=1 n=g#6 v=34
345338 On ch=1 n=e6 v=0
345386 On ch=1 n=g#6 v=0
345426 On ch=1 n=e7 v=39
345428 On ch=1 n=c#6 v=0
345514 On ch=1 n=g#7 v=70
345566 On ch=1 n=e7 v=0
345652 On ch=1 n=b7 v=55
345660 On ch=1 n=g#7 v=0
345754 On ch=1 n=c#8 v=72
345762 On ch=1 n=b7 v=0
345942 On ch=1 n=c#8 v=0
345980 On ch=1 n=b3 v=34
345986 On ch=1 n=d#8 v=63
345992 On ch=1 n=e3 v=28
345994 On ch=1 n=g#7 v=37
346012 On ch=1 n=d#7 v=20
347274 On ch=1 n=b3 v=0
347502 On ch=1 n=b3 v=5
347644 On ch=1 n=d#8 v=0
347660 On ch=1 n=g#7 v=0
347676 On ch=1 n=d#7 v=0
347682 On ch=1 n=e3 v=0
347692 On ch=1 n=b3 v=0
347832 Par ch=1 c=64 v=63
347866 Par ch=1 c=64 v=0
348570 Par ch=1 c=67 v=127
348702 Par ch=1 c=67 v=0
348702 Meta TrkEnd
TrkEnd
