MFile 1 2 480
MTrk
0 Tempo 500000
0 TimeSig 4/8 24 8
0 Meta TrkEnd
TrkEnd
MTrk
0 SeqSpec 43 00 01 00
0 Meta TrkName "<Master Volume>"
0 Meta 0x21 00
0 SysEx f0 41 10 42 12 40 00 7f 00 41 f7
0 SysEx f0 41 10 42 12 40 00 04 64 58 f7
192 Meta Text "<Master Reverve>"
192 SysEx f0 41 10 42 12 40 01 30 03 0c f7
192 SysEx f0 41 10 42 12 40 01 33 50 3c f7
192 SysEx f0 41 10 42 12 40 01 34 3c 4f f7
576 Par ch=1 c=0 v=0
580 Par ch=1 c=32 v=1
584 PrCh ch=1 p=0
780 Par ch=1 c=7 v=100
972 Par ch=1 c=11 v=80
1164 Par ch=1 c=10 v=64
1356 Par ch=1 c=1 v=0
1356 Meta Text "<part reverve>"
1356 Par ch=1 c=91 v=90
1452 Par ch=1 c=99 v=1
1456 Par ch=1 c=98 v=32
1460 Par ch=1 c=6 v=62
1464 Par ch=1 c=99 v=1
1468 Par ch=1 c=98 v=33
1472 Par ch=1 c=6 v=54
1476 Par ch=1 c=99 v=1
1480 Par ch=1 c=98 v=99
1484 Par ch=1 c=6 v=62
1488 Par ch=1 c=99 v=1
1492 Par ch=1 c=98 v=100
1496 Par ch=1 c=6 v=60
1500 Par ch=1 c=99 v=1
1504 Par ch=1 c=98 v=102
1508 Par ch=1 c=6 v=70
2380 Par ch=1 c=64 v=63
2384 On ch=1 n=f#6 v=93
2392 Par ch=1 c=64 v=127
2392 On ch=1 n=c#6 v=60
2398 On ch=1 n=f#5 v=65
2488 On ch=1 n=c#6 v=0
2506 On ch=1 n=a5 v=54
2546 On ch=1 n=f#5 v=0
2618 On ch=1 n=a5 v=0
2648 On ch=1 n=c#6 v=72
2688 On ch=1 n=f#6 v=0
2736 On ch=1 n=a5 v=45
2754 On ch=1 n=c#6 v=0
2832 On ch=1 n=a5 v=0
2944 On ch=1 n=c#5 v=64
2950 On ch=1 n=g#5 v=39
2958 On ch=1 n=c#6 v=92
2972 Par ch=1 c=64 v=63
2990 Par ch=1 c=64 v=127
3030 On ch=1 n=g#5 v=0
3084 On ch=1 n=e5 v=52
3208 On ch=1 n=e5 v=0
3246 On ch=1 n=g#5 v=66
3302 On ch=1 n=c#6 v=0
3302 On ch=1 n=e5 v=56
3336 On ch=1 n=g#5 v=0
3412 On ch=1 n=e5 v=0
3432 On ch=1 n=g#5 v=70
3486 On ch=1 n=g#5 v=0
3528 On ch=1 n=e5 v=59
3624 On ch=1 n=g#5 v=83
3628 On ch=1 n=e5 v=0
3706 On ch=1 n=g#5 v=0
3726 On ch=1 n=e5 v=52
3786 On ch=1 n=e5 v=0
3800 On ch=1 n=g#5 v=75
3866 On ch=1 n=g#5 v=0
3870 On ch=1 n=c#5 v=0
3884 On ch=1 n=e5 v=67
3978 On ch=1 n=e5 v=0
3980 On ch=1 n=g#5 v=89
4076 On ch=1 n=e5 v=71
4078 On ch=1 n=g#5 v=0
4150 On ch=1 n=f#5 v=85
4162 On ch=1 n=e5 v=0
4172 On ch=1 n=b4 v=65
4176 On ch=1 n=b5 v=94
4198 Par ch=1 c=64 v=63
4200 Par ch=1 c=64 v=127
4214 On ch=1 n=f#5 v=0
4274 On ch=1 n=b5 v=0
4288 On ch=1 n=d5 v=70
4342 On ch=1 n=b4 v=0
4346 On ch=1 n=c#5 v=87
4362 On ch=1 n=d5 v=0
4392 On ch=1 n=c#6 v=99
4440 On ch=1 n=c#5 v=0
4468 On ch=1 n=d5 v=59
4512 On ch=1 n=c#6 v=0
4538 On ch=1 n=d5 v=0
4586 On ch=1 n=d6 v=103
4586 On ch=1 n=d5 v=100
4620 On ch=1 n=a5 v=58
4626 Par ch=1 c=64 v=63
4664 Par ch=1 c=64 v=127
4690 On ch=1 n=f#5 v=78
4728 On ch=1 n=a5 v=0
4778 On ch=1 n=a5 v=54
4780 On ch=1 n=f#5 v=0
4836 On ch=1 n=d6 v=0
4854 On ch=1 n=f#5 v=75
4858 On ch=1 n=a5 v=0
4962 On ch=1 n=f#5 v=0
4970 On ch=1 n=e6 v=103
4978 On ch=1 n=e5 v=90
4982 On ch=1 n=b5 v=79
4996 On ch=1 n=d5 v=0
5058 On ch=1 n=b5 v=0
5072 On ch=1 n=g#5 v=86
5074 On ch=1 n=e6 v=0
5154 On ch=1 n=f#5 v=90
5166 On ch=1 n=f#6 v=113
5168 On ch=1 n=g#5 v=0
5190 On ch=1 n=e5 v=0
5260 On ch=1 n=a5 v=90
5266 On ch=1 n=f#6 v=0
5302 On ch=1 n=f#5 v=0
5336 On ch=1 n=g#5 v=65
5340 On ch=1 n=a5 v=0
5344 Par ch=1 c=64 v=63
5360 On ch=1 n=g#6 v=114
5374 On ch=1 n=c#6 v=76
5422 Par ch=1 c=64 v=127
5456 On ch=1 n=a5 v=84
5520 On ch=1 n=c#6 v=0
5550 On ch=1 n=a5 v=0
5564 On ch=1 n=g#5 v=0
5566 On ch=1 n=c#6 v=88
5648 On ch=1 n=a5 v=86
5662 On ch=1 n=g#6 v=0
5696 On ch=1 n=c#6 v=0
5758 On ch=1 n=a5 v=0
5768 On ch=1 n=e6 v=98
5784 On ch=1 n=e5 v=70
5788 On ch=1 n=c#6 v=75
5798 Par ch=1 c=64 v=63
5828 Par ch=1 c=64 v=0
5856 Par ch=1 c=64 v=63
5880 On ch=1 n=a5 v=80
5882 On ch=1 n=c#6 v=0
5900 Par ch=1 c=64 v=127
5974 On ch=1 n=e5 v=0
5998 On ch=1 n=a5 v=0
5998 On ch=1 n=c#6 v=78
6004 On ch=1 n=e6 v=0
6106 On ch=1 n=a5 v=62
6124 On ch=1 n=c#6 v=0
6220 On ch=1 n=g#5 v=65
6232 On ch=1 n=a5 v=0
6240 On ch=1 n=c#6 v=72
6258 On ch=1 n=g#6 v=93
6276 Par ch=1 c=64 v=63
6306 Par ch=1 c=64 v=0
6318 Par ch=1 c=64 v=63
6368 Par ch=1 c=64 v=127
6422 On ch=1 n=c#6 v=0
6432 On ch=1 n=a5 v=51
6496 On ch=1 n=g#5 v=0
6520 On ch=1 n=g#6 v=0
6686 On ch=1 n=c#6 v=63
6814 On ch=1 n=a5 v=0
6870 Par ch=1 c=67 v=127
6910 On ch=1 n=c#6 v=0
7006 On ch=1 n=c#6 v=45
7022 On ch=1 n=f#5 v=60
7074 Par ch=1 c=64 v=63
7076 On ch=1 n=f#6 v=84
7090 Par ch=1 c=64 v=127
7162 On ch=1 n=c#6 v=0
7208 On ch=1 n=a5 v=43
7224 On ch=1 n=f#6 v=0
7228 On ch=1 n=f#5 v=0
7300 On ch=1 n=a5 v=0
7314 On ch=1 n=c#6 v=69
7394 On ch=1 n=c#6 v=0
7406 On ch=1 n=a5 v=48
7462 On ch=1 n=a5 v=0
7550 On ch=1 n=g#5 v=49
7556 On ch=1 n=c#5 v=67
7574 On ch=1 n=c#6 v=86
7590 Par ch=1 c=64 v=63
7612 Par ch=1 c=64 v=127
7618 On ch=1 n=g#5 v=0
7662 On ch=1 n=e5 v=56
7734 On ch=1 n=c#6 v=0
7800 On ch=1 n=g#5 v=85
7806 On ch=1 n=e5 v=0
7890 On ch=1 n=e5 v=47
7892 On ch=1 n=g#5 v=0
7980 On ch=1 n=e5 v=0
7984 On ch=1 n=g#5 v=63
8038 On ch=1 n=g#5 v=0
8092 On ch=1 n=e5 v=51
8120 On ch=1 n=c#5 v=0
8188 On ch=1 n=g#5 v=78
8190 On ch=1 n=e5 v=0
8272 On ch=1 n=g#5 v=0
8300 On ch=1 n=e5 v=44
8362 On ch=1 n=g#5 v=70
8370 On ch=1 n=e5 v=0
8416 On ch=1 n=g#5 v=0
8464 On ch=1 n=e5 v=48
8556 On ch=1 n=g#5 v=80
8568 On ch=1 n=e5 v=0
8642 On ch=1 n=g#5 v=0
8652 On ch=1 n=e5 v=57
8724 On ch=1 n=f#5 v=84
8744 On ch=1 n=e5 v=0
8748 On ch=1 n=b5 v=86
8748 On ch=1 n=b4 v=65
8770 Par ch=1 c=64 v=63
8788 Par ch=1 c=64 v=127
8800 On ch=1 n=f#5 v=0
8842 On ch=1 n=b5 v=0
8858 On ch=1 n=d5 v=84
8910 On ch=1 n=b4 v=0
8928 On ch=1 n=c#5 v=86
8950 On ch=1 n=d5 v=0
8970 On ch=1 n=c#6 v=100
9016 On ch=1 n=c#5 v=0
9072 On ch=1 n=d5 v=31
9088 On ch=1 n=c#6 v=0
9126 On ch=1 n=d5 v=0
9172 On ch=1 n=d6 v=106
9176 On ch=1 n=d5 v=100
9196 On ch=1 n=a5 v=68
9228 Par ch=1 c=64 v=63
9270 Par ch=1 c=64 v=127
9290 On ch=1 n=f#5 v=50
9306 On ch=1 n=a5 v=0
9348 On ch=1 n=a5 v=69
9352 On ch=1 n=f#5 v=0
9414 On ch=1 n=d6 v=0
9434 On ch=1 n=f#5 v=79
9440 On ch=1 n=a5 v=0
9544 On ch=1 n=f#5 v=0
9552 On ch=1 n=e6 v=98
9566 On ch=1 n=e5 v=92
9566 On ch=1 n=b5 v=85
9596 On ch=1 n=d5 v=0
9644 On ch=1 n=e6 v=0
9644 On ch=1 n=g#5 v=87
9652 On ch=1 n=b5 v=0
9726 On ch=1 n=f#5 v=106
9744 On ch=1 n=f#6 v=116
9774 On ch=1 n=e5 v=0
9780 On ch=1 n=g#5 v=0
9842 On ch=1 n=a5 v=90
9856 On ch=1 n=f#6 v=0
9902 On ch=1 n=f#5 v=0
9924 On ch=1 n=a5 v=0
9928 On ch=1 n=g#6 v=114
9930 On ch=1 n=g#5 v=71
9956 On ch=1 n=c#6 v=96
9958 Par ch=1 c=64 v=63
10032 On ch=1 n=a5 v=94
10038 Par ch=1 c=64 v=127
10090 On ch=1 n=c#6 v=0
10112 On ch=1 n=g#5 v=0
10136 On ch=1 n=c#6 v=96
10138 On ch=1 n=a5 v=0
10192 On ch=1 n=g#6 v=0
10232 On ch=1 n=a5 v=88
10250 On ch=1 n=c#6 v=0
10330 On ch=1 n=a5 v=0
10354 On ch=1 n=f#6 v=107
10372 On ch=1 n=c#6 v=73
10378 On ch=1 n=f#5 v=72
10398 Par ch=1 c=67 v=0
10444 On ch=1 n=c#6 v=0
10468 On ch=1 n=a5 v=66
10474 On ch=1 n=f#5 v=0
10544 On ch=1 n=a5 v=0
10550 On ch=1 n=c#6 v=95
10618 On ch=1 n=a5 v=74
10656 On ch=1 n=c#6 v=0
10682 On ch=1 n=f#5 v=71
10702 On ch=1 n=a5 v=0
10748 On ch=1 n=a#5 v=58
10772 On ch=1 n=f#6 v=0
10900 On ch=1 n=c#7 v=95
10906 On ch=1 n=e6 v=76
10980 Par ch=1 c=64 v=63
11002 Par ch=1 c=64 v=127
11058 On ch=1 n=c#6 v=84
11164 On ch=1 n=c#6 v=0
11164 On ch=1 n=a#5 v=0
11176 On ch=1 n=g#6 v=72
11270 On ch=1 n=c#6 v=80
11288 On ch=1 n=g#6 v=0
11298 On ch=1 n=e6 v=0
11346 On ch=1 n=c#6 v=0
11374 On ch=1 n=a#5 v=84
11462 On ch=1 n=c#6 v=85
11502 On ch=1 n=a#5 v=0
11578 On ch=1 n=g#6 v=84
11580 On ch=1 n=c#6 v=0
11650 On ch=1 n=c#6 v=76
11686 On ch=1 n=g#6 v=0
11710 On ch=1 n=c#7 v=0
11720 On ch=1 n=e6 v=87
11740 On ch=1 n=c#6 v=0
11812 On ch=1 n=c#6 v=81
11842 On ch=1 n=e6 v=0
11926 On ch=1 n=c#7 v=112
11950 On ch=1 n=c#6 v=0
11950 On ch=1 n=g#6 v=85
12012 On ch=1 n=c#6 v=84
12070 On ch=1 n=c#7 v=0
12072 On ch=1 n=g#6 v=0
12088 On ch=1 n=c#6 v=0
12106 On ch=1 n=a#5 v=89
12146 On ch=1 n=d7 v=97
12152 On ch=1 n=g6 v=80
12182 On ch=1 n=f#5 v=0
12218 On ch=1 n=a#5 v=0
12250 On ch=1 n=d7 v=0
12266 On ch=1 n=e6 v=76
12314 On ch=1 n=g6 v=0
12332 On ch=1 n=e6 v=0
12358 On ch=1 n=e7 v=96
12426 On ch=1 n=g6 v=52
12454 On ch=1 n=e7 v=0
12498 On ch=1 n=g6 v=0
12530 On ch=1 n=e6 v=54
12600 On ch=1 n=e6 v=0
12640 On ch=1 n=g#5 v=70
12654 On ch=1 n=e5 v=63
12664 On ch=1 n=c#7 v=105
12666 On ch=1 n=d6 v=74
12720 Par ch=1 c=64 v=63
12754 Par ch=1 c=64 v=127
12820 On ch=1 n=c#6 v=80
12892 On ch=1 n=c#7 v=0
12914 On ch=1 n=c#6 v=0
12914 On ch=1 n=f#6 v=72
12944 On ch=1 n=d6 v=0
12986 On ch=1 n=c#6 v=76
13018 On ch=1 n=f#6 v=0
13054 On ch=1 n=c#6 v=0
13098 On ch=1 n=d6 v=80
13098 On ch=1 n=b6 v=98
13116 On ch=1 n=e6 v=84
13128 On ch=1 n=g#5 v=0
13158 On ch=1 n=e5 v=0
13168 On ch=1 n=d6 v=0
13192 On ch=1 n=b6 v=0
13226 On ch=1 n=b5 v=60
13244 On ch=1 n=e6 v=0
13284 On ch=1 n=b5 v=0
13310 On ch=1 n=g#6 v=101
13374 On ch=1 n=b5 v=71
13412 On ch=1 n=g#6 v=0
13424 On ch=1 n=b5 v=0
13506 On ch=1 n=b4 v=79
13512 On ch=1 n=f#6 v=90
13512 On ch=1 n=a5 v=79
13520 On ch=1 n=d#5 v=78
13522 Par ch=1 c=64 v=63
13546 Par ch=1 c=64 v=127
13574 On ch=1 n=d#5 v=0
13586 On ch=1 n=b4 v=0
13612 On ch=1 n=f#5 v=92
13632 On ch=1 n=a5 v=0
13662 On ch=1 n=f#6 v=0
13700 On ch=1 n=f#5 v=0
13742 On ch=1 n=c#6 v=82
13788 On ch=1 n=f#5 v=93
13838 On ch=1 n=c#6 v=0
13868 On ch=1 n=f#5 v=0
13912 On ch=1 n=d5 v=79
13916 On ch=1 n=a6 v=114
13920 On ch=1 n=f#5 v=94
13924 On ch=1 n=c6 v=87
13960 Par ch=1 c=64 v=63
13974 Par ch=1 c=64 v=127
14006 On ch=1 n=d5 v=0
14012 On ch=1 n=f#5 v=0
14014 On ch=1 n=a5 v=84
14018 On ch=1 n=a6 v=0
14028 On ch=1 n=c6 v=0
14100 On ch=1 n=a5 v=0
14104 On ch=1 n=e6 v=84
14178 On ch=1 n=a5 v=84
14236 On ch=1 n=e6 v=0
14256 On ch=1 n=a5 v=0
14296 On ch=1 n=f#5 v=67
14300 On ch=1 n=a#5 v=76
14356 On ch=1 n=c#7 v=114
14376 On ch=1 n=e6 v=86
14376 Par ch=1 c=64 v=63
14424 Par ch=1 c=64 v=127
14470 On ch=1 n=c#6 v=76
14592 On ch=1 n=a#5 v=0
14592 On ch=1 n=g#6 v=71
14594 On ch=1 n=c#6 v=0
14660 On ch=1 n=e6 v=0
14684 On ch=1 n=c#6 v=64
14720 On ch=1 n=g#6 v=0
14764 On ch=1 n=c#6 v=0
14764 On ch=1 n=a#5 v=78
14874 On ch=1 n=c#6 v=82
14888 On ch=1 n=a#5 v=0
14966 On ch=1 n=c#6 v=0
14978 On ch=1 n=g#6 v=80
15056 On ch=1 n=c#6 v=90
15084 On ch=1 n=c#7 v=0
15090 On ch=1 n=g#6 v=0
15110 On ch=1 n=e6 v=84
15154 On ch=1 n=c#6 v=0
15214 On ch=1 n=c#6 v=81
15216 On ch=1 n=e6 v=0
15318 On ch=1 n=c#7 v=114
15334 On ch=1 n=g#6 v=92
15346 On ch=1 n=c#6 v=0
15414 On ch=1 n=c#6 v=99
15468 On ch=1 n=c#7 v=0
15470 On ch=1 n=g#6 v=0
15486 On ch=1 n=c#6 v=0
15512 On ch=1 n=a#5 v=93
15538 On ch=1 n=g6 v=90
15540 On ch=1 n=d7 v=104
15588 On ch=1 n=f#5 v=0
15628 On ch=1 n=a#5 v=0
15644 On ch=1 n=e6 v=89
15646 On ch=1 n=d7 v=0
15712 On ch=1 n=g6 v=0
15722 On ch=1 n=e6 v=0
15754 On ch=1 n=e7 v=88
15794 On ch=1 n=g6 v=41
15846 On ch=1 n=e7 v=0
15882 On ch=1 n=g6 v=0
15898 On ch=1 n=e6 v=64
15960 On ch=1 n=e6 v=0
16008 On ch=1 n=g#5 v=65
16014 On ch=1 n=e5 v=59
16050 On ch=1 n=d6 v=69
16052 On ch=1 n=c#7 v=91
16070 On ch=1 n=f#6 v=88
16086 Par ch=1 c=64 v=63
16108 Par ch=1 c=64 v=127
16174 On ch=1 n=c#7 v=0
16180 On ch=1 n=c#6 v=87
16186 On ch=1 n=f#6 v=0
16230 On ch=1 n=d6 v=0
16232 On ch=1 n=c#6 v=0
16290 On ch=1 n=b6 v=82
16292 On ch=1 n=g#5 v=0
16292 On ch=1 n=e6 v=85
16364 On ch=1 n=b6 v=0
16380 On ch=1 n=b5 v=84
16418 On ch=1 n=b5 v=0
16418 On ch=1 n=e6 v=0
16490 On ch=1 n=d6 v=83
16492 On ch=1 n=c#7 v=114
16514 On ch=1 n=f#6 v=90
16542 On ch=1 n=e5 v=0
16546 On ch=1 n=d6 v=0
16590 On ch=1 n=c#7 v=0
16610 On ch=1 n=c#6 v=95
16624 On ch=1 n=f#6 v=0
16672 On ch=1 n=c#6 v=0
16724 On ch=1 n=g#6 v=98
16816 On ch=1 n=g#5 v=89
16832 On ch=1 n=g#6 v=0
16876 On ch=1 n=g#5 v=0
16902 Par ch=1 c=64 v=63
16914 On ch=1 n=b4 v=69
16922 Par ch=1 c=64 v=127
16930 On ch=1 n=a5 v=80
16934 On ch=1 n=d#5 v=81
16996 On ch=1 n=d#5 v=0
17002 On ch=1 n=b4 v=0
17014 On ch=1 n=f#5 v=99
17042 On ch=1 n=a5 v=0
17094 On ch=1 n=f#5 v=0
17124 On ch=1 n=f#6 v=97
17134 On ch=1 n=c#6 v=85
17174 On ch=1 n=f#5 v=99
17200 On ch=1 n=f#6 v=0
17230 On ch=1 n=c#6 v=0
17232 On ch=1 n=d5 v=54
17306 On ch=1 n=c6 v=96
17336 Par ch=1 c=64 v=63
17364 Par ch=1 c=64 v=127
17382 On ch=1 n=a5 v=94
17388 On ch=1 n=d5 v=0
17406 On ch=1 n=f#5 v=0
17448 On ch=1 n=c6 v=0
17466 On ch=1 n=a5 v=0
17494 On ch=1 n=e6 v=49
17500 On ch=1 n=a6 v=79
17558 On ch=1 n=a5 v=83
17570 On ch=1 n=a6 v=0
17580 On ch=1 n=e5 v=80
17590 On ch=1 n=e6 v=0
17630 On ch=1 n=a5 v=0
17650 On ch=1 n=g#5 v=91
17666 Par ch=1 c=64 v=63
17696 On ch=1 n=d6 v=98
17732 Par ch=1 c=64 v=127
17778 On ch=1 n=c#6 v=101
17874 On ch=1 n=c#7 v=105
17886 On ch=1 n=f#6 v=80
17892 On ch=1 n=c#6 v=0
17936 On ch=1 n=c#6 v=83
17966 On ch=1 n=d6 v=0
17970 On ch=1 n=c#7 v=0
18002 On ch=1 n=f#6 v=0
18020 On ch=1 n=c#6 v=0
18044 Par ch=1 c=64 v=63
18070 On ch=1 n=e6 v=96
18072 On ch=1 n=b6 v=94
18082 Par ch=1 c=64 v=127
18092 On ch=1 n=b5 v=89
18184 On ch=1 n=e5 v=0
18198 On ch=1 n=b5 v=0
18214 On ch=1 n=g#5 v=0
18230 On ch=1 n=b6 v=0
18278 On ch=1 n=e6 v=0
18284 On ch=1 n=g#6 v=95
18374 On ch=1 n=g#6 v=0
18478 On ch=1 n=b4 v=79
18498 On ch=1 n=d#5 v=80
18508 Par ch=1 c=64 v=63
18518 On ch=1 n=a5 v=92
18552 Par ch=1 c=64 v=127
18596 On ch=1 n=f#5 v=93
18602 On ch=1 n=d#5 v=0
18620 On ch=1 n=b4 v=0
18664 On ch=1 n=a5 v=0
18690 On ch=1 n=f#5 v=0
18714 On ch=1 n=f#6 v=98
18730 On ch=1 n=c#6 v=87
18776 On ch=1 n=f#5 v=100
18808 On ch=1 n=f#6 v=0
18828 On ch=1 n=c#6 v=0
18858 On ch=1 n=f#5 v=0
18858 On ch=1 n=d5 v=85
18890 On ch=1 n=f#5 v=87
18900 On ch=1 n=c6 v=100
18912 Par ch=1 c=64 v=63
18952 Par ch=1 c=64 v=127
18986 On ch=1 n=f#5 v=0
18996 On ch=1 n=a5 v=87
19004 On ch=1 n=d5 v=0
19068 On ch=1 n=c6 v=0
19080 On ch=1 n=a5 v=0
19086 On ch=1 n=e6 v=90
19094 On ch=1 n=a6 v=89
19160 On ch=1 n=a5 v=76
19180 On ch=1 n=a6 v=0
19188 On ch=1 n=e6 v=0
19192 On ch=1 n=e5 v=74
19228 On ch=1 n=a5 v=0
19274 On ch=1 n=g#5 v=80
19356 On ch=1 n=d6 v=57
19428 On ch=1 n=c#6 v=82
19432 Par ch=1 c=64 v=63
19450 Par ch=1 c=64 v=0
19488 On ch=1 n=c#7 v=113
19494 On ch=1 n=f#6 v=92
19514 Par ch=1 c=64 v=63
19546 Par ch=1 c=64 v=127
19662 On ch=1 n=f#6 v=0
19686 On ch=1 n=c#7 v=0
19688 On ch=1 n=c#6 v=0
19700 On ch=1 n=d6 v=0
19974 On ch=1 n=b6 v=80
19978 On ch=1 n=b5 v=66
19992 On ch=1 n=e6 v=65
20028 On ch=1 n=b5 v=0
20050 On ch=1 n=g#5 v=0
20056 On ch=1 n=e5 v=0
20146 On ch=1 n=e6 v=0
20162 On ch=1 n=g#6 v=88
20166 On ch=1 n=b6 v=0
20240 On ch=1 n=g#6 v=0
20388 On ch=1 n=e4 v=63
20392 On ch=1 n=g#4 v=76
20476 On ch=1 n=d5 v=78
20482 On ch=1 n=c#5 v=81
20486 Par ch=1 c=64 v=63
20506 Par ch=1 c=64 v=0
20518 Par ch=1 c=64 v=63
20532 On ch=1 n=f#5 v=76
20546 On ch=1 n=c#6 v=95
20558 Par ch=1 c=64 v=127
20722 On ch=1 n=f#5 v=0
20752 On ch=1 n=c#6 v=0
20780 On ch=1 n=c#5 v=0
20794 On ch=1 n=d5 v=0
20908 On ch=1 n=b4 v=78
20910 On ch=1 n=e4 v=0
20912 On ch=1 n=b5 v=89
20918 On ch=1 n=e5 v=84
20950 On ch=1 n=g#4 v=0
20960 On ch=1 n=b4 v=0
21024 On ch=1 n=e5 v=0
21086 On ch=1 n=g#5 v=95
21090 On ch=1 n=b5 v=0
21144 On ch=1 n=g#5 v=0
21252 On ch=1 n=e5 v=76
21300 On ch=1 n=a5 v=67
21326 Par ch=1 c=64 v=63
21336 Par ch=1 c=64 v=0
21384 On ch=1 n=d6 v=89
21434 Par ch=1 c=64 v=63
21456 Par ch=1 c=64 v=127
21486 On ch=1 n=c#6 v=80
21570 On ch=1 n=f#6 v=69
21596 On ch=1 n=c#7 v=92
21642 On ch=1 n=c#6 v=0
21690 On ch=1 n=f#6 v=0
21694 On ch=1 n=c#7 v=0
21702 On ch=1 n=d6 v=0
21718 On ch=1 n=a5 v=0
21862 On ch=1 n=b6 v=86
21878 On ch=1 n=g#5 v=73
21884 On ch=1 n=e6 v=63
21894 On ch=1 n=b5 v=33
21904 Par ch=1 c=64 v=63
21910 Par ch=1 c=64 v=127
21988 On ch=1 n=g#5 v=0
21990 On ch=1 n=e5 v=0
22000 On ch=1 n=b6 v=0
22074 On ch=1 n=b5 v=0
22126 On ch=1 n=g#6 v=79
22150 On ch=1 n=e6 v=0
22210 On ch=1 n=g#6 v=0
22354 On ch=1 n=e4 v=47
22408 On ch=1 n=a4 v=35
22464 On ch=1 n=d5 v=45
22500 Par ch=1 c=64 v=63
22550 On ch=1 n=c#5 v=71
22574 Par ch=1 c=64 v=127
22594 On ch=1 n=f#5 v=67
22664 On ch=1 n=c#6 v=74
22824 On ch=1 n=f#5 v=0
22846 On ch=1 n=c#6 v=0
22898 On ch=1 n=c#5 v=0
22938 On ch=1 n=d5 v=0
22940 On ch=1 n=a4 v=0
23126 On ch=1 n=b4 v=41
23128 On ch=1 n=b5 v=51
23142 On ch=1 n=g#4 v=39
23156 On ch=1 n=e5 v=40
23268 Par ch=1 c=64 v=63
23374 Par ch=1 c=64 v=127
23558 On ch=1 n=g#5 v=65
23578 On ch=1 n=b5 v=0
23644 On ch=1 n=e5 v=0
23676 On ch=1 n=e4 v=0
23764 On ch=1 n=b4 v=0
23788 On ch=1 n=g#5 v=0
23894 On ch=1 n=g#4 v=0
24236 On ch=1 n=b5 v=53
24372 Par ch=1 c=64 v=63
24408 Par ch=1 c=64 v=0
24980 On ch=1 n=f#5 v=55
24982 On ch=1 n=a4 v=23
25006 On ch=1 n=d4 v=36
25012 Par ch=1 c=64 v=63
25024 Par ch=1 c=64 v=127
25220 On ch=1 n=d4 v=0
25448 On ch=1 n=f#5 v=0
25474 On ch=1 n=g#4 v=42
25476 On ch=1 n=f5 v=41
25476 On ch=1 n=c#4 v=48
25508 On ch=1 n=a4 v=0
25580 Par ch=1 c=64 v=63
25596 Par ch=1 c=64 v=127
25810 On ch=1 n=c#4 v=0
25872 On ch=1 n=f5 v=0
25876 On ch=1 n=b5 v=0
25884 On ch=1 n=g#5 v=58
25896 On ch=1 n=b4 v=39
25924 On ch=1 n=e4 v=36
25962 On ch=1 n=g#4 v=0
26066 On ch=1 n=c#6 v=83
26072 On ch=1 n=g#5 v=0
26144 On ch=1 n=b4 v=0
26192 On ch=1 n=e4 v=0
26320 On ch=1 n=b5 v=81
26384 On ch=1 n=c#6 v=0
26494 Par ch=1 c=64 v=63
26570 Par ch=1 c=64 v=0
26810 On ch=1 n=a4 v=25
26810 On ch=1 n=f#5 v=61
26828 Par ch=1 c=64 v=63
26834 On ch=1 n=d4 v=35
26852 Par ch=1 c=64 v=127
27030 On ch=1 n=d4 v=0
27202 On ch=1 n=f#5 v=0
27244 On ch=1 n=c#4 v=46
27252 On ch=1 n=f5 v=48
27254 On ch=1 n=g#4 v=45
27320 On ch=1 n=a4 v=0
27348 Par ch=1 c=64 v=63
27458 Par ch=1 c=64 v=127
27642 On ch=1 n=c#4 v=0
27644 On ch=1 n=f5 v=0
27670 On ch=1 n=g#5 v=62
27694 On ch=1 n=b4 v=34
27726 On ch=1 n=e4 v=31
27758 On ch=1 n=g#4 v=0
27828 Par ch=1 c=64 v=63
27888 On ch=1 n=c#6 v=88
27900 Par ch=1 c=64 v=0
27926 On ch=1 n=b5 v=0
27930 On ch=1 n=g#5 v=0
28082 Par ch=1 c=64 v=63
28142 Par ch=1 c=64 v=127
28160 On ch=1 n=b5 v=76
28170 On ch=1 n=b4 v=0
28182 On ch=1 n=e4 v=0
28220 On ch=1 n=c#6 v=0
28596 Par ch=1 c=64 v=63
28656 On ch=1 n=a4 v=22
28658 On ch=1 n=f#5 v=64
28680 On ch=1 n=d4 v=42
28750 Par ch=1 c=64 v=127
28840 On ch=1 n=d4 v=0
29038 On ch=1 n=f#5 v=0
29082 On ch=1 n=c#4 v=43
29088 On ch=1 n=g#4 v=52
29090 On ch=1 n=f5 v=52
29102 On ch=1 n=b5 v=0
29116 On ch=1 n=a4 v=0
29296 On ch=1 n=c#6 v=80
29302 On ch=1 n=f5 v=0
29524 On ch=1 n=e6 v=80
29536 On ch=1 n=c#6 v=0
29556 On ch=1 n=e5 v=29
29574 Par ch=1 c=64 v=63
29664 Par ch=1 c=64 v=127
29734 On ch=1 n=e6 v=0
29736 On ch=1 n=c#6 v=88
29924 On ch=1 n=c#4 v=0
29926 On ch=1 n=g#4 v=0
29944 On ch=1 n=c#6 v=0
29944 On ch=1 n=a5 v=83
30000 On ch=1 n=e5 v=0
30140 Par ch=1 c=64 v=63
30188 Par ch=1 c=64 v=0
30246 Par ch=1 c=64 v=63
30312 Par ch=1 c=64 v=127
30376 On ch=1 n=b5 v=82
30382 On ch=1 n=b3 v=43
30384 On ch=1 n=a5 v=0
30388 On ch=1 n=d#5 v=63
30390 On ch=1 n=f#4 v=49
30552 On ch=1 n=c#6 v=86
30588 On ch=1 n=b5 v=0
30740 On ch=1 n=d#5 v=0
30788 On ch=1 n=c#6 v=0
30804 On ch=1 n=a5 v=66
30812 On ch=1 n=d5 v=65
30872 Par ch=1 c=64 v=63
30992 Par ch=1 c=64 v=127
31050 On ch=1 n=f#4 v=0
31078 On ch=1 n=d5 v=0
31174 On ch=1 n=b3 v=0
31258 On ch=1 n=a5 v=0
31288 On ch=1 n=g#5 v=60
31304 On ch=1 n=e4 v=40
31314 On ch=1 n=c#5 v=58
31378 Par ch=1 c=64 v=63
31508 Par ch=1 c=64 v=127
31602 On ch=1 n=c#5 v=0
31764 On ch=1 n=e4 v=0
31806 On ch=1 n=g#5 v=0
31882 On ch=1 n=b5 v=73
31978 Par ch=1 c=64 v=63
32046 Par ch=1 c=64 v=0
32312 Par ch=1 c=64 v=63
32366 Par ch=1 c=64 v=127
32466 On ch=1 n=f#5 v=65
32468 On ch=1 n=a4 v=27
32496 On ch=1 n=d4 v=21
32648 On ch=1 n=d4 v=0
32900 On ch=1 n=f#5 v=0
32924 On ch=1 n=c#4 v=44
32930 On ch=1 n=g#4 v=41
32934 On ch=1 n=f5 v=61
32942 On ch=1 n=b5 v=0
32966 On ch=1 n=a4 v=0
33142 On ch=1 n=c#6 v=80
33174 On ch=1 n=f5 v=0
33342 On ch=1 n=e6 v=82
33372 On ch=1 n=c#6 v=0
33376 On ch=1 n=e5 v=76
33438 Par ch=1 c=64 v=63
33496 Par ch=1 c=64 v=127
33528 On ch=1 n=e6 v=0
33534 On ch=1 n=c#6 v=91
33684 On ch=1 n=c#4 v=0
33690 On ch=1 n=g#4 v=0
33750 On ch=1 n=a5 v=73
33756 On ch=1 n=c#6 v=0
33790 On ch=1 n=e5 v=0
33822 Par ch=1 c=64 v=63
33902 Par ch=1 c=64 v=0
34118 Par ch=1 c=64 v=63
34170 Par ch=1 c=64 v=127
34172 On ch=1 n=a5 v=0
34176 On ch=1 n=d#5 v=67
34184 On ch=1 n=b5 v=74
34188 On ch=1 n=f#4 v=48
34194 On ch=1 n=b3 v=45
34364 On ch=1 n=c#6 v=75
34388 On ch=1 n=b5 v=0
34526 On ch=1 n=d#5 v=0
34592 On ch=1 n=c#6 v=0
34614 On ch=1 n=a5 v=70
34618 On ch=1 n=d5 v=67
34634 Par ch=1 c=64 v=63
34766 Par ch=1 c=64 v=127
34846 On ch=1 n=b3 v=0
34852 On ch=1 n=d5 v=0
34902 On ch=1 n=f#4 v=0
35014 On ch=1 n=a5 v=0
35096 On ch=1 n=g#5 v=67
35104 On ch=1 n=e4 v=44
35120 On ch=1 n=c#5 v=50
35136 Par ch=1 c=64 v=63
35236 Par ch=1 c=64 v=127
35284 On ch=1 n=g#5 v=0
35386 On ch=1 n=c#5 v=0
35444 On ch=1 n=e4 v=0
35656 On ch=1 n=f#5 v=71
35760 Par ch=1 c=64 v=63
35928 Par ch=1 c=64 v=127
36266 On ch=1 n=a4 v=22
36266 On ch=1 n=b3 v=29
36268 On ch=1 n=d5 v=48
36270 Par ch=1 c=64 v=63
36280 On ch=1 n=b2 v=46
36356 Par ch=1 c=64 v=127
36564 On ch=1 n=a4 v=0
36596 On ch=1 n=d5 v=0
36600 On ch=1 n=b2 v=0
36682 On ch=1 n=b3 v=0
36846 On ch=1 n=f#5 v=0
36938 On ch=1 n=e5 v=49
37042 Par ch=1 c=64 v=63
37116 Par ch=1 c=64 v=0
37660 Par ch=1 c=64 v=63
37742 Par ch=1 c=64 v=127
37820 On ch=1 n=c#5 v=36
37822 On ch=1 n=g#4 v=20
37826 On ch=1 n=c#4 v=16
37838 On ch=1 n=c#3 v=32
38068 On ch=1 n=c#3 v=0
38134 On ch=1 n=c#4 v=0
38160 On ch=1 n=g#4 v=0
38304 On ch=1 n=c#5 v=0
38436 On ch=1 n=e5 v=0
39068 Par ch=1 c=67 v=127
39182 On ch=1 n=f#5 v=40
39196 On ch=1 n=a6 v=55
39514 Par ch=1 c=64 v=63
39530 Par ch=1 c=64 v=127
39692 On ch=1 n=a6 v=0
39778 On ch=1 n=f#5 v=0
39984 On ch=1 n=g#6 v=70
39986 On ch=1 n=d#5 v=37
39990 On ch=1 n=f#4 v=28
40018 On ch=1 n=a5 v=22
40264 Par ch=1 c=64 v=63
40298 On ch=1 n=e6 v=72
40324 Par ch=1 c=64 v=127
40330 On ch=1 n=g#6 v=0
40568 On ch=1 n=c#6 v=75
40598 On ch=1 n=e5 v=31
40638 On ch=1 n=f#4 v=0
40662 On ch=1 n=e6 v=0
40662 On ch=1 n=d#5 v=0
40720 On ch=1 n=a5 v=0
41052 On ch=1 n=g#5 v=44
41064 Par ch=1 c=64 v=63
41068 On ch=1 n=c#5 v=45
41072 On ch=1 n=f#4 v=33
41144 Par ch=1 c=64 v=127
41206 On ch=1 n=e5 v=0
41318 On ch=1 n=g#5 v=0
41408 On ch=1 n=c#5 v=0
41536 On ch=1 n=f#4 v=0
41556 On ch=1 n=c#6 v=0
41574 Par ch=1 c=64 v=63
41590 On ch=1 n=f#5 v=52
41596 On ch=1 n=a6 v=76
41682 Par ch=1 c=64 v=127
41862 On ch=1 n=a6 v=0
41872 On ch=1 n=f#5 v=0
42090 On ch=1 n=f#4 v=33
42092 On ch=1 n=d#5 v=47
42092 On ch=1 n=g#6 v=77
42102 On ch=1 n=a5 v=46
42320 On ch=1 n=e6 v=72
42340 On ch=1 n=g#6 v=0
42578 On ch=1 n=c#6 v=68
42584 Par ch=1 c=64 v=63
42588 On ch=1 n=e5 v=34
42624 Par ch=1 c=64 v=127
42646 On ch=1 n=f#4 v=0
42648 On ch=1 n=d#5 v=0
42656 On ch=1 n=e6 v=0
42824 On ch=1 n=a5 v=0
43078 On ch=1 n=g#5 v=44
43098 On ch=1 n=c#5 v=39
43106 On ch=1 n=f#4 v=27
43132 Par ch=1 c=64 v=63
43186 Par ch=1 c=64 v=127
43200 On ch=1 n=e5 v=0
43350 On ch=1 n=g#5 v=0
43394 On ch=1 n=c#6 v=0
43404 On ch=1 n=c#5 v=0
43498 On ch=1 n=f#4 v=0
43718 On ch=1 n=f#5 v=50
43732 On ch=1 n=a6 v=55
43770 Par ch=1 c=64 v=63
43826 Par ch=1 c=64 v=127
44012 On ch=1 n=f#5 v=0
44032 On ch=1 n=a6 v=0
44356 On ch=1 n=g#6 v=54
44378 On ch=1 n=d#5 v=46
44390 On ch=1 n=a5 v=28
44416 On ch=1 n=f#4 v=17
44652 On ch=1 n=e6 v=58
44720 On ch=1 n=g#6 v=0
44946 On ch=1 n=c#6 v=65
44970 On ch=1 n=e5 v=34
44988 On ch=1 n=e6 v=0
45018 Par ch=1 c=64 v=63
45020 On ch=1 n=d#5 v=0
45032 Par ch=1 c=64 v=127
45034 On ch=1 n=f#4 v=0
45244 On ch=1 n=a5 v=0
45626 On ch=1 n=c#6 v=0
45644 On ch=1 n=g#5 v=32
45648 On ch=1 n=e6 v=47
45652 On ch=1 n=c#5 v=40
45668 On ch=1 n=f#4 v=28
45728 Par ch=1 c=64 v=63
45758 Par ch=1 c=64 v=127
45934 On ch=1 n=e5 v=0
45960 On ch=1 n=c#5 v=0
45996 On ch=1 n=f#4 v=0
46034 On ch=1 n=e6 v=0
46072 On ch=1 n=g#5 v=0
46574 On ch=1 n=e3 v=32
46618 Par ch=1 c=64 v=63
46656 On ch=1 n=b3 v=21
46674 Par ch=1 c=64 v=127
46708 On ch=1 n=e3 v=0
46820 On ch=1 n=g#5 v=51
46884 On ch=1 n=d5 v=32
46888 On ch=1 n=f#4 v=40
47058 On ch=1 n=b3 v=0
47106 On ch=1 n=f#4 v=0
47704 On ch=1 n=e6 v=48
47714 On ch=1 n=d6 v=42
47808 On ch=1 n=e6 v=0
47816 On ch=1 n=d6 v=0
48102 On ch=1 n=d5 v=0
48188 On ch=1 n=g#5 v=0
48968 On ch=1 n=c#6 v=40
48976 On ch=1 n=g#4 v=34
48994 On ch=1 n=f#5 v=32
49068 On ch=1 n=d5 v=10
49072 On ch=1 n=e5 v=10
49870 On ch=1 n=g#4 v=0
50032 On ch=1 n=c#6 v=0
50050 On ch=1 n=f#5 v=0
50328 On ch=1 n=e5 v=0
50456 On ch=1 n=d5 v=0
51596 On ch=1 n=a5 v=42
51600 On ch=1 n=c#5 v=30
51624 On ch=1 n=e4 v=37
51636 Par ch=1 c=64 v=63
51644 On ch=1 n=a3 v=24
51656 Par ch=1 c=64 v=0
51710 Par ch=1 c=64 v=63
51764 Par ch=1 c=64 v=127
51864 On ch=1 n=e4 v=0
51864 On ch=1 n=a5 v=0
51866 On ch=1 n=a3 v=0
51886 On ch=1 n=c#5 v=0
52190 On ch=1 n=e5 v=50
52190 On ch=1 n=b4 v=31
52196 On ch=1 n=d4 v=35
52198 On ch=1 n=g3 v=47
52208 On ch=1 n=d5 v=39
52226 Par ch=1 c=64 v=63
52276 Par ch=1 c=64 v=127
52374 On ch=1 n=g3 v=0
52374 On ch=1 n=d4 v=0
52814 On ch=1 n=d6 v=47
52824 On ch=1 n=e6 v=55
52938 On ch=1 n=e6 v=0
52956 On ch=1 n=d6 v=0
53338 On ch=1 n=b4 v=0
53430 On ch=1 n=d5 v=0
53460 On ch=1 n=e5 v=0
54018 On ch=1 n=e4 v=36
54024 On ch=1 n=a5 v=54
54036 On ch=1 n=c#5 v=36
54054 On ch=1 n=a3 v=18
54084 Par ch=1 c=64 v=63
54114 Par ch=1 c=64 v=127
54250 On ch=1 n=a3 v=0
54260 On ch=1 n=a5 v=0
54278 On ch=1 n=c#5 v=0
54514 On ch=1 n=e4 v=0
54532 On ch=1 n=d4 v=45
54536 On ch=1 n=b4 v=42
54538 On ch=1 n=g3 v=51
54550 On ch=1 n=e5 v=49
54558 On ch=1 n=d5 v=48
54564 Par ch=1 c=64 v=63
54608 Par ch=1 c=64 v=127
54678 On ch=1 n=g3 v=0
54688 On ch=1 n=d4 v=0
55100 On ch=1 n=e6 v=54
55106 On ch=1 n=d6 v=44
55236 On ch=1 n=e6 v=0
55258 On ch=1 n=d6 v=0
55814 On ch=1 n=b4 v=0
55904 On ch=1 n=d5 v=0
55922 On ch=1 n=e5 v=0
56364 On ch=1 n=a5 v=58
56366 On ch=1 n=c#5 v=55
56372 On ch=1 n=e4 v=38
56378 On ch=1 n=a3 v=35
56452 Par ch=1 c=64 v=63
56470 Par ch=1 c=64 v=127
56674 On ch=1 n=c#5 v=0
56682 On ch=1 n=a5 v=0
56716 On ch=1 n=e4 v=0
56872 On ch=1 n=d4 v=50
56882 On ch=1 n=a3 v=0
56892 On ch=1 n=e5 v=50
56894 On ch=1 n=b4 v=39
56902 On ch=1 n=g3 v=23
56908 On ch=1 n=d5 v=52
57180 On ch=1 n=b4 v=0
57202 On ch=1 n=g3 v=0
57240 On ch=1 n=d5 v=0
57278 On ch=1 n=e5 v=0
57522 On ch=1 n=d4 v=0
57566 On ch=1 n=f#5 v=73
57578 On ch=1 n=c#4 v=51
57588 On ch=1 n=a4 v=39
57588 On ch=1 n=f#3 v=45
57634 Par ch=1 c=64 v=63
57722 Par ch=1 c=64 v=127
57860 On ch=1 n=f#5 v=0
57882 On ch=1 n=f#3 v=0
57892 On ch=1 n=a4 v=0
58302 On ch=1 n=c#4 v=0
58334 On ch=1 n=c#5 v=60
58338 On ch=1 n=c#3 v=49
58350 On ch=1 n=e4 v=37
58356 On ch=1 n=g#4 v=48
58374 On ch=1 n=g#3 v=41
58590 Par ch=1 c=64 v=63
58814 Par ch=1 c=64 v=127
58992 On ch=1 n=c#4 v=65
59168 Par ch=1 c=67 v=0
59452 On ch=1 n=c#3 v=0
59512 On ch=1 n=g#3 v=0
59528 On ch=1 n=e4 v=0
59560 On ch=1 n=c#5 v=0
59670 On ch=1 n=g#4 v=0
59806 On ch=1 n=c#4 v=0
60200 On ch=1 n=b4 v=51
60218 On ch=1 n=b3 v=29
60226 On ch=1 n=f#4 v=39
60240 On ch=1 n=d4 v=18
60384 On ch=1 n=b4 v=0
60492 On ch=1 n=d4 v=0
60500 On ch=1 n=c#4 v=60
60508 On ch=1 n=c#5 v=83
60572 On ch=1 n=b3 v=0
60574 On ch=1 n=f#4 v=0
60636 On ch=1 n=c#5 v=0
60798 On ch=1 n=d5 v=86
60810 On ch=1 n=d4 v=51
60830 On ch=1 n=f#4 v=38
60842 On ch=1 n=c#4 v=0
60852 On ch=1 n=a4 v=34
60890 Par ch=1 c=64 v=63
60920 Par ch=1 c=64 v=127
61042 On ch=1 n=d5 v=0
61056 On ch=1 n=a4 v=0
61084 On ch=1 n=f#4 v=0
61318 On ch=1 n=e5 v=80
61322 On ch=1 n=g#4 v=70
61330 On ch=1 n=e4 v=53
61332 On ch=1 n=d4 v=0
61336 On ch=1 n=b4 v=72
61424 On ch=1 n=e5 v=0
61512 On ch=1 n=f#4 v=82
61518 On ch=1 n=f#5 v=104
61536 On ch=1 n=b4 v=0
61548 On ch=1 n=e4 v=0
61660 On ch=1 n=g#4 v=0
61688 On ch=1 n=f#5 v=0
61770 On ch=1 n=g#5 v=82
61772 On ch=1 n=c#5 v=80
61774 On ch=1 n=g#4 v=72
61794 On ch=1 n=a4 v=48
61826 On ch=1 n=f#4 v=0
61882 Par ch=1 c=64 v=63
61978 Par ch=1 c=64 v=127
62214 On ch=1 n=e5 v=86
62232 On ch=1 n=e4 v=81
62238 On ch=1 n=g#5 v=0
62256 On ch=1 n=g#4 v=0
62464 On ch=1 n=b4 v=9
62518 On ch=1 n=a4 v=0
62554 On ch=1 n=b4 v=0
62644 On ch=1 n=c#5 v=0
62728 On ch=1 n=e4 v=0
62742 On ch=1 n=g#5 v=69
62742 On ch=1 n=g#4 v=56
62798 On ch=1 n=e5 v=0
62826 On ch=1 n=g#4 v=0
62852 On ch=1 n=g#5 v=0
63402 Par ch=1 c=67 v=127
63440 On ch=1 n=f#5 v=61
63450 Par ch=1 c=64 v=63
63452 On ch=1 n=c#6 v=58
63462 Par ch=1 c=64 v=0
63472 On ch=1 n=f#6 v=84
63576 Par ch=1 c=64 v=63
63594 On ch=1 n=c#6 v=0
63594 Par ch=1 c=64 v=127
63628 On ch=1 n=a5 v=38
63696 On ch=1 n=a5 v=0
63696 On ch=1 n=f#5 v=0
63704 On ch=1 n=f#6 v=0
63710 On ch=1 n=c#6 v=68
63784 On ch=1 n=a5 v=47
63800 On ch=1 n=c#6 v=0
63862 On ch=1 n=a5 v=0
63892 On ch=1 n=g#5 v=73
63922 On ch=1 n=c#5 v=56
63934 Par ch=1 c=64 v=63
63952 On ch=1 n=c#6 v=77
63988 On ch=1 n=g#5 v=0
63996 Par ch=1 c=64 v=127
64092 On ch=1 n=e5 v=15
64176 On ch=1 n=e5 v=0
64180 On ch=1 n=g#5 v=75
64258 On ch=1 n=c#6 v=0
64268 On ch=1 n=e5 v=42
64280 On ch=1 n=g#5 v=0
64338 On ch=1 n=e5 v=0
64348 On ch=1 n=g#5 v=72
64410 On ch=1 n=g#5 v=0
64442 On ch=1 n=e5 v=55
64456 On ch=1 n=c#5 v=0
64526 On ch=1 n=g#5 v=79
64536 On ch=1 n=e5 v=0
64612 On ch=1 n=g#5 v=0
64622 On ch=1 n=e5 v=56
64690 On ch=1 n=e5 v=0
64714 On ch=1 n=g#5 v=80
64772 On ch=1 n=g#5 v=0
64784 On ch=1 n=e5 v=64
64874 On ch=1 n=e5 v=0
64880 On ch=1 n=g#5 v=91
64974 On ch=1 n=e5 v=76
64978 On ch=1 n=g#5 v=0
65050 On ch=1 n=e5 v=0
65070 On ch=1 n=f#5 v=77
65072 On ch=1 n=b5 v=88
65074 Par ch=1 c=64 v=63
65092 On ch=1 n=b4 v=63
65124 On ch=1 n=f#5 v=0
65152 Par ch=1 c=64 v=127
65156 On ch=1 n=b5 v=0
65174 On ch=1 n=d5 v=80
65238 On ch=1 n=b4 v=0
65248 On ch=1 n=d5 v=0
65260 On ch=1 n=c#5 v=96
65274 On ch=1 n=c#6 v=105
65352 On ch=1 n=c#5 v=0
65408 On ch=1 n=c#6 v=0
65458 Par ch=1 c=64 v=63
65472 Par ch=1 c=64 v=0
65478 On ch=1 n=d6 v=101
65516 On ch=1 n=e5 v=38
65526 Par ch=1 c=64 v=63
65534 On ch=1 n=a5 v=28
65554 Par ch=1 c=64 v=127
65562 On ch=1 n=f#5 v=76
65622 On ch=1 n=a5 v=0
65646 On ch=1 n=f#5 v=0
65652 On ch=1 n=a5 v=33
65700 On ch=1 n=e5 v=0
65710 On ch=1 n=d6 v=0
65716 On ch=1 n=f#5 v=67
65744 On ch=1 n=a5 v=0
65820 On ch=1 n=f#5 v=0
65848 On ch=1 n=e6 v=94
65868 On ch=1 n=e5 v=93
65872 On ch=1 n=b5 v=88
65936 On ch=1 n=g#5 v=84
65952 On ch=1 n=e6 v=0
65970 On ch=1 n=b5 v=0
66026 On ch=1 n=g#5 v=0
66038 On ch=1 n=f#6 v=114
66040 On ch=1 n=f#5 v=110
66094 On ch=1 n=e5 v=0
66146 On ch=1 n=a5 v=84
66154 On ch=1 n=f#6 v=0
66234 On ch=1 n=g#6 v=114
66236 On ch=1 n=f#5 v=0
66236 On ch=1 n=g#5 v=89
66238 On ch=1 n=a5 v=0
66244 Par ch=1 c=64 v=63
66256 On ch=1 n=c#6 v=98
66262 Par ch=1 c=64 v=0
66274 Par ch=1 c=64 v=63
66314 Par ch=1 c=64 v=127
66330 On ch=1 n=a5 v=93
66432 On ch=1 n=a5 v=0
66442 On ch=1 n=g#6 v=0
66452 On ch=1 n=g#5 v=0
66476 Par ch=1 c=67 v=0
66516 On ch=1 n=a5 v=93
66540 On ch=1 n=c#6 v=0
66602 On ch=1 n=a5 v=0
66636 On ch=1 n=f#6 v=109
66668 On ch=1 n=c#6 v=99
66682 On ch=1 n=f#5 v=77
66728 On ch=1 n=f#5 v=0
66732 On ch=1 n=c#6 v=0
66736 On ch=1 n=a5 v=73
66818 On ch=1 n=a5 v=0
66826 On ch=1 n=c#6 v=83
66878 On ch=1 n=a5 v=75
66916 On ch=1 n=f#5 v=88
66930 On ch=1 n=c#6 v=0
66956 On ch=1 n=a5 v=0
66970 On ch=1 n=a#5 v=65
67006 On ch=1 n=f#6 v=0
67092 On ch=1 n=e6 v=89
67094 On ch=1 n=c#7 v=108
67118 Par ch=1 c=64 v=63
67184 Par ch=1 c=64 v=127
67210 On ch=1 n=c#6 v=74
67320 On ch=1 n=c#6 v=0
67330 On ch=1 n=g#6 v=81
67378 On ch=1 n=a#5 v=0
67404 On ch=1 n=c#6 v=82
67438 On ch=1 n=g#6 v=0
67482 On ch=1 n=c#6 v=0
67484 On ch=1 n=e6 v=0
67508 On ch=1 n=a#5 v=94
67598 On ch=1 n=c#6 v=93
67672 On ch=1 n=a#5 v=0
67702 On ch=1 n=g#6 v=85
67704 On ch=1 n=c#6 v=0
67760 On ch=1 n=c#7 v=0
67778 On ch=1 n=c#6 v=82
67798 On ch=1 n=g#6 v=0
67852 On ch=1 n=c#6 v=0
67868 On ch=1 n=e6 v=99
67944 On ch=1 n=c#6 v=86
67966 On ch=1 n=e6 v=0
68036 On ch=1 n=c#6 v=0
68058 On ch=1 n=c#7 v=113
68084 On ch=1 n=g#6 v=85
68124 On ch=1 n=c#6 v=90
68184 On ch=1 n=g#6 v=0
68184 On ch=1 n=c#7 v=0
68212 On ch=1 n=c#6 v=0
68230 On ch=1 n=a#5 v=97
68266 On ch=1 n=d7 v=100
68270 On ch=1 n=g6 v=92
68280 On ch=1 n=f#5 v=0
68338 On ch=1 n=a#5 v=0
68364 On ch=1 n=d7 v=0
68376 On ch=1 n=e6 v=81
68412 On ch=1 n=g6 v=0
68444 On ch=1 n=e6 v=0
68464 On ch=1 n=e7 v=106
68508 On ch=1 n=g6 v=12
68550 On ch=1 n=e7 v=0
68584 On ch=1 n=e6 v=89
68594 On ch=1 n=g6 v=0
68674 On ch=1 n=e6 v=0
68686 On ch=1 n=g#5 v=66
68700 On ch=1 n=e5 v=59
68736 On ch=1 n=d6 v=74
68750 On ch=1 n=c#7 v=101
68786 Par ch=1 c=64 v=63
68854 Par ch=1 c=64 v=127
68894 On ch=1 n=c#6 v=78
68936 On ch=1 n=c#7 v=0
68976 On ch=1 n=c#6 v=0
69000 On ch=1 n=f#6 v=60
69038 On ch=1 n=d6 v=0
69046 On ch=1 n=c#6 v=80
69062 On ch=1 n=f#6 v=0
69106 On ch=1 n=c#6 v=0
69142 On ch=1 n=g#5 v=0
69158 On ch=1 n=b6 v=93
69168 On ch=1 n=d6 v=83
69180 On ch=1 n=e6 v=73
69214 On ch=1 n=e5 v=0
69222 On ch=1 n=d6 v=0
69240 On ch=1 n=b6 v=0
69260 On ch=1 n=b5 v=85
69296 On ch=1 n=e6 v=0
69334 On ch=1 n=b5 v=0
69350 On ch=1 n=g#6 v=105
69428 On ch=1 n=b5 v=61
69452 On ch=1 n=g#6 v=0
69478 On ch=1 n=b5 v=0
69542 On ch=1 n=f#6 v=90
69544 On ch=1 n=b4 v=75
69546 Par ch=1 c=64 v=63
69564 On ch=1 n=d#5 v=80
69566 On ch=1 n=a5 v=65
69594 Par ch=1 c=64 v=127
69608 On ch=1 n=f#5 v=93
69626 On ch=1 n=d#5 v=0
69634 On ch=1 n=b4 v=0
69662 On ch=1 n=a5 v=0
69694 On ch=1 n=f#5 v=0
69740 On ch=1 n=c#6 v=70
69746 On ch=1 n=f#6 v=0
69782 On ch=1 n=f#5 v=99
69826 On ch=1 n=c#6 v=0
69874 On ch=1 n=f#5 v=0
69908 On ch=1 n=d5 v=90
69922 On ch=1 n=a6 v=108
69924 On ch=1 n=f#5 v=93
69932 On ch=1 n=c6 v=92
69948 Par ch=1 c=64 v=63
69978 Par ch=1 c=64 v=127
70010 On ch=1 n=d5 v=0
70012 On ch=1 n=f#5 v=0
70014 On ch=1 n=a6 v=0
70016 On ch=1 n=a5 v=82
70054 On ch=1 n=c6 v=0
70100 On ch=1 n=a5 v=0
70100 On ch=1 n=e6 v=85
70152 On ch=1 n=a5 v=76
70208 On ch=1 n=e6 v=0
70236 On ch=1 n=a5 v=0
70290 On ch=1 n=f#5 v=66
70290 On ch=1 n=a#5 v=82
70338 Par ch=1 c=64 v=63
70354 On ch=1 n=c#7 v=114
70356 Par ch=1 c=64 v=0
70370 On ch=1 n=e6 v=87
70382 Par ch=1 c=64 v=63
70414 Par ch=1 c=64 v=127
70466 On ch=1 n=c#6 v=63
70556 On ch=1 n=a#5 v=0
70570 On ch=1 n=e6 v=0
70586 On ch=1 n=c#6 v=0
70592 On ch=1 n=g#6 v=70
70658 On ch=1 n=c#6 v=79
70698 On ch=1 n=g#6 v=0
70746 On ch=1 n=c#6 v=0
70760 On ch=1 n=a#5 v=88
70848 On ch=1 n=c#7 v=0
70854 On ch=1 n=c#6 v=93
70876 On ch=1 n=a#5 v=0
70958 On ch=1 n=c#6 v=0
70966 On ch=1 n=g#6 v=87
71034 On ch=1 n=c#6 v=88
71058 On ch=1 n=g#6 v=0
71108 On ch=1 n=e6 v=83
71126 On ch=1 n=c#6 v=0
71200 On ch=1 n=e6 v=0
71206 On ch=1 n=c#6 v=85
71278 On ch=1 n=f#5 v=0
71298 On ch=1 n=c#7 v=116
71312 On ch=1 n=g#6 v=97
71318 On ch=1 n=c#6 v=0
71382 On ch=1 n=c#6 v=96
71428 On ch=1 n=c#7 v=0
71436 On ch=1 n=g#6 v=0
71462 On ch=1 n=c#6 v=0
71516 On ch=1 n=a#5 v=95
71520 On ch=1 n=g6 v=94
71526 On ch=1 n=d7 v=93
71610 On ch=1 n=a#5 v=0
71614 On ch=1 n=d7 v=0
71620 On ch=1 n=e6 v=91
71678 On ch=1 n=g6 v=0
71706 On ch=1 n=e6 v=0
71750 On ch=1 n=e7 v=88
71778 On ch=1 n=g6 v=35
71830 On ch=1 n=e7 v=0
71870 On ch=1 n=g6 v=0
71872 On ch=1 n=e6 v=70
71964 On ch=1 n=e6 v=0
72010 On ch=1 n=g#5 v=68
72022 On ch=1 n=e5 v=60
72042 On ch=1 n=c#7 v=90
72050 On ch=1 n=d6 v=53
72068 On ch=1 n=f#6 v=79
72098 Par ch=1 c=64 v=63
72116 Par ch=1 c=64 v=127
72166 On ch=1 n=c#7 v=0
72184 On ch=1 n=c#6 v=80
72196 On ch=1 n=f#6 v=0
72238 On ch=1 n=c#6 v=0
72250 On ch=1 n=d6 v=0
72292 On ch=1 n=b6 v=92
72296 On ch=1 n=e6 v=88
72372 On ch=1 n=b6 v=0
72380 On ch=1 n=b5 v=84
72412 On ch=1 n=e6 v=0
72414 On ch=1 n=g#5 v=0
72424 On ch=1 n=b5 v=0
72488 On ch=1 n=c#7 v=114
72490 On ch=1 n=d6 v=86
72508 On ch=1 n=f#6 v=91
72548 On ch=1 n=e5 v=0
72562 On ch=1 n=d6 v=0
72580 On ch=1 n=c#7 v=0
72598 On ch=1 n=c#6 v=104
72620 On ch=1 n=f#6 v=0
72664 On ch=1 n=c#6 v=0
72712 On ch=1 n=g#6 v=105
72804 On ch=1 n=g#5 v=92
72832 On ch=1 n=g#6 v=0
72868 On ch=1 n=g#5 v=0
72906 Par ch=1 c=64 v=63
72908 On ch=1 n=b4 v=76
72922 On ch=1 n=a5 v=86
72924 On ch=1 n=d#5 v=86
72972 Par ch=1 c=64 v=127
72992 On ch=1 n=d#5 v=0
72996 On ch=1 n=b4 v=0
73016 On ch=1 n=f#5 v=103
73042 On ch=1 n=a5 v=0
73098 On ch=1 n=f#5 v=0
73124 On ch=1 n=f#6 v=99
73134 On ch=1 n=c#6 v=81
73166 On ch=1 n=f#5 v=94
73200 On ch=1 n=f#6 v=0
73212 On ch=1 n=c#6 v=0
73264 On ch=1 n=d5 v=80
73288 On ch=1 n=c6 v=104
73316 Par ch=1 c=64 v=63
73358 Par ch=1 c=64 v=127
73360 On ch=1 n=d5 v=0
73360 On ch=1 n=f#5 v=0
73380 On ch=1 n=a5 v=90
73412 On ch=1 n=c6 v=0
73452 On ch=1 n=a5 v=0
73476 On ch=1 n=e6 v=78
73488 On ch=1 n=a6 v=72
73540 On ch=1 n=a5 v=84
73546 On ch=1 n=a6 v=0
73566 On ch=1 n=e6 v=0
73594 On ch=1 n=e5 v=73
73610 On ch=1 n=a5 v=0
73636 On ch=1 n=g#5 v=86
73680 Par ch=1 c=64 v=63
73690 On ch=1 n=d6 v=97
73724 Par ch=1 c=64 v=127
73776 On ch=1 n=c#6 v=94
73876 On ch=1 n=c#7 v=106
73880 On ch=1 n=f#6 v=88
73886 On ch=1 n=c#6 v=0
73932 On ch=1 n=c#6 v=80
73950 On ch=1 n=d6 v=0
73984 On ch=1 n=c#7 v=0
73988 On ch=1 n=f#6 v=0
74022 On ch=1 n=c#6 v=0
74038 Par ch=1 c=64 v=63
74064 On ch=1 n=e6 v=98
74066 On ch=1 n=b6 v=94
74068 Par ch=1 c=64 v=127
74084 On ch=1 n=b5 v=91
74188 On ch=1 n=e5 v=0
74196 On ch=1 n=b5 v=0
74222 On ch=1 n=g#5 v=0
74242 On ch=1 n=b6 v=0
74292 On ch=1 n=g#6 v=96
74306 On ch=1 n=e6 v=0
74378 On ch=1 n=g#6 v=0
74460 On ch=1 n=b4 v=70
74484 On ch=1 n=d#5 v=93
74508 On ch=1 n=a5 v=93
74516 Par ch=1 c=64 v=63
74558 Par ch=1 c=64 v=127
74590 On ch=1 n=d#5 v=0
74592 On ch=1 n=b4 v=0
74592 On ch=1 n=f#5 v=95
74650 On ch=1 n=a5 v=0
74680 On ch=1 n=f#5 v=0
74708 On ch=1 n=f#6 v=98
74718 On ch=1 n=c#6 v=91
74774 On ch=1 n=f#5 v=101
74808 On ch=1 n=f#6 v=0
74818 On ch=1 n=c#6 v=0
74850 On ch=1 n=d5 v=65
74856 On ch=1 n=f#5 v=0
74880 On ch=1 n=f#5 v=71
74884 Par ch=1 c=64 v=63
74886 On ch=1 n=c6 v=102
74932 Par ch=1 c=64 v=127
74954 On ch=1 n=f#5 v=0
74968 On ch=1 n=d5 v=0
74978 On ch=1 n=a5 v=91
75018 On ch=1 n=c6 v=0
75060 On ch=1 n=a5 v=0
75072 On ch=1 n=e6 v=93
75082 On ch=1 n=a6 v=85
75150 On ch=1 n=a5 v=87
75160 On ch=1 n=a6 v=0
75174 On ch=1 n=e6 v=0
75220 On ch=1 n=a5 v=0
75234 On ch=1 n=e5 v=84
75270 On ch=1 n=g#5 v=92
75276 Par ch=1 c=64 v=63
75286 Par ch=1 c=64 v=0
75398 On ch=1 n=c#6 v=91
75426 On ch=1 n=d6 v=89
75444 Par ch=1 c=64 v=63
75454 Par ch=1 c=64 v=127
75484 On ch=1 n=f#6 v=100
75496 On ch=1 n=c#7 v=115
75536 On ch=1 n=c#6 v=0
75660 On ch=1 n=f#6 v=0
75678 On ch=1 n=d6 v=0
75692 On ch=1 n=c#7 v=0
75920 On ch=1 n=b6 v=93
75936 On ch=1 n=b5 v=83
75940 On ch=1 n=e6 v=76
75944 On ch=1 n=e5 v=0
75976 On ch=1 n=g#5 v=0
75998 On ch=1 n=b5 v=0
76112 On ch=1 n=g#6 v=94
76122 On ch=1 n=b6 v=0
76148 On ch=1 n=e6 v=0
76196 On ch=1 n=g#6 v=0
76324 On ch=1 n=e4 v=66
76338 On ch=1 n=g#4 v=74
76420 On ch=1 n=c#5 v=78
76430 On ch=1 n=d5 v=68
76450 Par ch=1 c=64 v=63
76460 Par ch=1 c=64 v=0
76472 On ch=1 n=f#5 v=75
76488 On ch=1 n=c#6 v=89
76546 Par ch=1 c=64 v=63
76570 Par ch=1 c=64 v=127
76662 On ch=1 n=f#5 v=0
76686 On ch=1 n=c#6 v=0
76716 On ch=1 n=d5 v=0
76744 On ch=1 n=c#5 v=0
76870 On ch=1 n=e4 v=0
76870 On ch=1 n=b5 v=83
76876 On ch=1 n=b4 v=75
76884 On ch=1 n=e5 v=82
76912 On ch=1 n=g#4 v=0
76942 On ch=1 n=b4 v=0
76986 On ch=1 n=e5 v=0
77052 On ch=1 n=b5 v=0
77052 On ch=1 n=g#5 v=89
77122 On ch=1 n=g#5 v=0
77242 On ch=1 n=e5 v=68
77314 On ch=1 n=a5 v=60
77382 Par ch=1 c=64 v=63
77392 Par ch=1 c=64 v=0
77404 On ch=1 n=d6 v=94
77468 Par ch=1 c=64 v=63
77496 Par ch=1 c=64 v=127
77602 On ch=1 n=c#6 v=77
77668 On ch=1 n=f#6 v=76
77700 On ch=1 n=c#7 v=93
77766 On ch=1 n=c#6 v=0
77784 On ch=1 n=c#7 v=0
77800 On ch=1 n=f#6 v=0
77828 On ch=1 n=d6 v=0
77858 On ch=1 n=a5 v=0
77924 On ch=1 n=b6 v=73
77926 On ch=1 n=g#5 v=78
77930 On ch=1 n=e6 v=72
77932 On ch=1 n=b5 v=38
77998 On ch=1 n=e5 v=0
78022 On ch=1 n=g#5 v=0
78048 On ch=1 n=b5 v=0
78060 On ch=1 n=b6 v=0
78152 On ch=1 n=e6 v=0
78170 On ch=1 n=g#6 v=89
78258 On ch=1 n=g#6 v=0
78442 On ch=1 n=e4 v=42
78470 On ch=1 n=a4 v=43
78498 On ch=1 n=d5 v=58
78530 Par ch=1 c=64 v=63
78544 Par ch=1 c=64 v=0
78612 Par ch=1 c=64 v=63
78654 Par ch=1 c=64 v=127
78668 On ch=1 n=c#5 v=72
78720 On ch=1 n=f#5 v=67
78756 On ch=1 n=c#6 v=84
78840 On ch=1 n=d5 v=0
78860 On ch=1 n=c#5 v=0
78898 On ch=1 n=c#6 v=0
79122 On ch=1 n=b5 v=49
79130 On ch=1 n=b4 v=35
79134 On ch=1 n=g#4 v=35
79146 On ch=1 n=f#5 v=0
79156 On ch=1 n=e5 v=48
79216 On ch=1 n=a4 v=0
79290 Par ch=1 c=64 v=63
79374 Par ch=1 c=64 v=127
79500 On ch=1 n=g#5 v=65
79552 On ch=1 n=e5 v=0
79580 On ch=1 n=b5 v=0
79700 On ch=1 n=g#5 v=0
79872 On ch=1 n=g#4 v=0
79872 On ch=1 n=e4 v=0
79904 On ch=1 n=b4 v=0
80070 On ch=1 n=b5 v=45
80152 Par ch=1 c=64 v=63
80206 Par ch=1 c=64 v=0
80850 On ch=1 n=f#5 v=49
80864 On ch=1 n=a4 v=28
80900 Par ch=1 c=64 v=63
80904 On ch=1 n=d4 v=31
80924 Par ch=1 c=64 v=127
81114 On ch=1 n=d4 v=0
81358 On ch=1 n=f#5 v=0
81382 On ch=1 n=f5 v=42
81386 On ch=1 n=g#4 v=46
81398 On ch=1 n=c#4 v=44
81414 On ch=1 n=a4 v=0
81782 On ch=1 n=c#4 v=0
81796 On ch=1 n=b5 v=0
81806 On ch=1 n=b4 v=38
81812 On ch=1 n=g#5 v=59
81848 On ch=1 n=e4 v=42
81870 On ch=1 n=g#4 v=0
81990 On ch=1 n=c#6 v=83
82102 Par ch=1 c=64 v=63
82116 On ch=1 n=b4 v=0
82126 On ch=1 n=f5 v=0
82152 On ch=1 n=e4 v=0
82176 On ch=1 n=g#5 v=0
82242 On ch=1 n=b5 v=69
82250 Par ch=1 c=64 v=0
82312 On ch=1 n=c#6 v=0
82690 On ch=1 n=a4 v=26
82694 On ch=1 n=f#5 v=61
82720 On ch=1 n=d4 v=34
82748 Par ch=1 c=64 v=63
82766 Par ch=1 c=64 v=127
82892 On ch=1 n=d4 v=0
83066 On ch=1 n=f#5 v=0
83094 On ch=1 n=c#4 v=54
83124 On ch=1 n=g#4 v=45
83130 On ch=1 n=f5 v=50
83180 On ch=1 n=a4 v=0
83220 Par ch=1 c=64 v=63
83284 Par ch=1 c=64 v=127
83514 On ch=1 n=c#4 v=0
83562 On ch=1 n=g#5 v=57
83578 On ch=1 n=f5 v=0
83582 On ch=1 n=b4 v=28
83626 On ch=1 n=e4 v=31
83632 On ch=1 n=g#4 v=0
83776 Par ch=1 c=64 v=63
83780 On ch=1 n=c#6 v=67
83808 On ch=1 n=g#5 v=0
83818 On ch=1 n=b5 v=0
83870 Par ch=1 c=64 v=0
83994 On ch=1 n=e4 v=0
84018 On ch=1 n=b4 v=0
84048 On ch=1 n=b5 v=64
84076 On ch=1 n=c#6 v=0
84480 On ch=1 n=a4 v=28
84486 On ch=1 n=f#5 v=58
84518 On ch=1 n=d4 v=33
84522 Par ch=1 c=64 v=63
84534 Par ch=1 c=64 v=127
84672 On ch=1 n=d4 v=0
84798 On ch=1 n=f#5 v=0
84956 On ch=1 n=b5 v=0
84970 On ch=1 n=c#4 v=35
84974 On ch=1 n=g#4 v=39
84988 On ch=1 n=a4 v=0
84998 On ch=1 n=f5 v=52
85206 On ch=1 n=c#6 v=76
85208 On ch=1 n=f5 v=0
85408 On ch=1 n=c#6 v=0
85454 On ch=1 n=e6 v=80
85462 On ch=1 n=e5 v=50
85664 On ch=1 n=e6 v=0
85676 On ch=1 n=c#6 v=81
85722 On ch=1 n=c#4 v=0
85756 On ch=1 n=g#4 v=0
85848 On ch=1 n=e5 v=0
85880 On ch=1 n=c#6 v=0
85902 On ch=1 n=a5 v=77
86102 Par ch=1 c=64 v=63
86144 Par ch=1 c=64 v=0
86308 On ch=1 n=a5 v=0
86308 On ch=1 n=b5 v=78
86308 On ch=1 n=d#5 v=70
86310 On ch=1 n=f#4 v=46
86326 On ch=1 n=b3 v=41
86330 Par ch=1 c=64 v=63
86362 Par ch=1 c=64 v=127
86470 On ch=1 n=c#6 v=76
86534 On ch=1 n=b5 v=0
86612 On ch=1 n=d#5 v=0
86664 On ch=1 n=c#6 v=0
86724 On ch=1 n=a5 v=66
86732 On ch=1 n=d5 v=59
86744 Par ch=1 c=64 v=63
86770 On ch=1 n=b3 v=0
86870 Par ch=1 c=64 v=127
86952 On ch=1 n=d5 v=0
86982 On ch=1 n=f#4 v=0
87132 On ch=1 n=g#5 v=63
87142 On ch=1 n=a5 v=0
87154 On ch=1 n=e4 v=44
87162 On ch=1 n=c#5 v=47
87220 Par ch=1 c=64 v=63
87344 Par ch=1 c=64 v=127
87414 On ch=1 n=c#5 v=0
87490 On ch=1 n=e4 v=0
87576 On ch=1 n=b5 v=75
87582 On ch=1 n=g#5 v=0
87614 Par ch=1 c=64 v=63
87678 Par ch=1 c=64 v=0
87794 Par ch=1 c=64 v=63
87880 Par ch=1 c=64 v=127
88038 On ch=1 n=f#5 v=65
88056 On ch=1 n=a4 v=17
88058 On ch=1 n=d4 v=38
88240 On ch=1 n=d4 v=0
88362 On ch=1 n=f#5 v=0
88450 On ch=1 n=b5 v=0
88480 On ch=1 n=f5 v=49
88482 On ch=1 n=c#4 v=18
88484 On ch=1 n=g#4 v=35
88532 On ch=1 n=a4 v=0
88672 On ch=1 n=c#6 v=76
88700 On ch=1 n=f5 v=0
88934 On ch=1 n=e6 v=64
88946 On ch=1 n=e5 v=32
88948 On ch=1 n=c#6 v=0
88982 Par ch=1 c=64 v=63
89092 Par ch=1 c=64 v=127
89160 On ch=1 n=c#6 v=81
89190 On ch=1 n=e6 v=0
89380 On ch=1 n=c#4 v=0
89388 On ch=1 n=c#6 v=0
89402 On ch=1 n=a5 v=65
89426 On ch=1 n=g#4 v=0
89462 On ch=1 n=e5 v=0
89832 On ch=1 n=a5 v=0
89844 On ch=1 n=d#5 v=62
89848 On ch=1 n=b5 v=71
89852 On ch=1 n=f#4 v=45
89872 On ch=1 n=b3 v=35
89876 Par ch=1 c=64 v=63
90040 On ch=1 n=c#6 v=78
90064 Par ch=1 c=64 v=127
90114 On ch=1 n=b5 v=0
90192 On ch=1 n=d#5 v=0
90284 On ch=1 n=a5 v=67
90290 Par ch=1 c=64 v=63
90294 On ch=1 n=c#6 v=0
90302 On ch=1 n=d5 v=52
90382 Par ch=1 c=64 v=127
90478 On ch=1 n=b3 v=0
90508 On ch=1 n=d5 v=0
90604 On ch=1 n=f#4 v=0
90710 On ch=1 n=a5 v=0
90736 On ch=1 n=g#5 v=54
90760 On ch=1 n=e4 v=48
90762 On ch=1 n=c#5 v=45
90788 Par ch=1 c=64 v=63
90876 Par ch=1 c=64 v=127
90930 On ch=1 n=g#5 v=0
91096 On ch=1 n=c#5 v=0
91154 On ch=1 n=e4 v=0
91246 On ch=1 n=f#5 v=66
91372 Par ch=1 c=64 v=63
91458 Par ch=1 c=64 v=0
91626 Par ch=1 c=64 v=63
91832 Par ch=1 c=64 v=127
91860 On ch=1 n=b3 v=28
91862 On ch=1 n=d5 v=43
91870 On ch=1 n=a4 v=21
91890 On ch=1 n=b2 v=25
92132 On ch=1 n=b2 v=0
92176 On ch=1 n=a4 v=0
92220 On ch=1 n=b3 v=0
92234 On ch=1 n=d5 v=0
92510 On ch=1 n=f#5 v=0
92566 On ch=1 n=e5 v=47
92830 Par ch=1 c=64 v=63
92946 Par ch=1 c=64 v=0
93270 Par ch=1 c=67 v=127
93526 On ch=1 n=c#4 v=27
93530 On ch=1 n=c#5 v=43
93530 On ch=1 n=g#4 v=24
93542 On ch=1 n=c#3 v=27
93652 Par ch=1 c=64 v=63
93674 Par ch=1 c=64 v=127
93804 On ch=1 n=c#3 v=0
93870 On ch=1 n=c#4 v=0
93872 On ch=1 n=g#4 v=0
93962 On ch=1 n=c#5 v=0
94040 On ch=1 n=e5 v=0
94978 On ch=1 n=a6 v=45
94984 On ch=1 n=f#5 v=27
95008 Par ch=1 c=64 v=63
95122 Par ch=1 c=64 v=127
95294 On ch=1 n=a6 v=0
95344 On ch=1 n=f#5 v=0
95726 On ch=1 n=d#5 v=25
95742 On ch=1 n=f#4 v=30
95760 On ch=1 n=g#6 v=50
95762 On ch=1 n=a5 v=32
96068 On ch=1 n=e6 v=54
96172 On ch=1 n=g#6 v=0
96330 On ch=1 n=c#6 v=72
96356 On ch=1 n=e5 v=27
96398 On ch=1 n=e6 v=0
96432 On ch=1 n=f#4 v=0
96436 Par ch=1 c=64 v=63
96438 On ch=1 n=d#5 v=0
96490 Par ch=1 c=64 v=127
96600 On ch=1 n=a5 v=0
96814 On ch=1 n=g#5 v=58
96814 On ch=1 n=c#5 v=49
96836 On ch=1 n=f#4 v=30
96902 Par ch=1 c=64 v=63
96920 Par ch=1 c=64 v=127
96970 On ch=1 n=e5 v=0
97096 On ch=1 n=g#5 v=0
97188 On ch=1 n=c#5 v=0
97282 On ch=1 n=c#6 v=0
97292 On ch=1 n=f#4 v=0
97316 On ch=1 n=f#5 v=66
97322 Par ch=1 c=64 v=63
97330 On ch=1 n=a6 v=80
97396 Par ch=1 c=64 v=127
97580 On ch=1 n=a6 v=0
97920 On ch=1 n=f#4 v=29
97926 On ch=1 n=d#5 v=43
97928 On ch=1 n=g#6 v=70
97966 On ch=1 n=a5 v=36
98108 On ch=1 n=f#5 v=0
98196 On ch=1 n=e6 v=79
98228 On ch=1 n=g#6 v=0
98446 On ch=1 n=e5 v=35
98472 On ch=1 n=c#6 v=74
98520 Par ch=1 c=64 v=63
98524 On ch=1 n=e6 v=0
98542 On ch=1 n=d#5 v=0
98588 On ch=1 n=f#4 v=0
98638 Par ch=1 c=64 v=127
98772 On ch=1 n=a5 v=0
98946 On ch=1 n=g#5 v=27
98950 On ch=1 n=c#5 v=31
98974 On ch=1 n=f#4 v=27
99134 On ch=1 n=e5 v=0
99158 On ch=1 n=g#5 v=0
99338 On ch=1 n=c#6 v=0
99444 On ch=1 n=c#5 v=0
99490 On ch=1 n=f#5 v=44
99504 On ch=1 n=f#4 v=0
99506 On ch=1 n=a6 v=63
99526 Par ch=1 c=64 v=63
99600 Par ch=1 c=64 v=127
99834 On ch=1 n=a6 v=0
99838 On ch=1 n=f#5 v=0
100148 On ch=1 n=g#6 v=62
100160 On ch=1 n=d#5 v=32
100168 On ch=1 n=f#4 v=36
100186 On ch=1 n=a5 v=27
100436 On ch=1 n=e6 v=65
100474 On ch=1 n=g#6 v=0
100704 On ch=1 n=c#6 v=75
100724 On ch=1 n=e6 v=0
100732 On ch=1 n=e5 v=38
100778 On ch=1 n=a5 v=0
100784 On ch=1 n=f#4 v=0
100796 On ch=1 n=d#5 v=0
101156 On ch=1 n=c#6 v=0
101328 On ch=1 n=c#5 v=37
101330 On ch=1 n=f#4 v=32
101342 On ch=1 n=e6 v=47
101352 On ch=1 n=g#5 v=20
101378 Par ch=1 c=64 v=63
101452 Par ch=1 c=64 v=127
101494 On ch=1 n=e5 v=0
101602 On ch=1 n=c#5 v=0
101666 On ch=1 n=f#4 v=0
101710 On ch=1 n=g#5 v=0
101790 On ch=1 n=e6 v=0
102054 On ch=1 n=e3 v=44
102122 On ch=1 n=b3 v=23
102230 On ch=1 n=e3 v=0
102384 On ch=1 n=g#5 v=53
102394 On ch=1 n=f#4 v=45
102400 On ch=1 n=d5 v=50
102782 On ch=1 n=b3 v=0
102852 On ch=1 n=f#4 v=0
103284 On ch=1 n=e6 v=42
103286 On ch=1 n=d6 v=45
103402 On ch=1 n=e6 v=0
103406 On ch=1 n=d6 v=0
103750 On ch=1 n=d5 v=0
103782 On ch=1 n=g#5 v=0
104822 On ch=1 n=c#6 v=33
104842 On ch=1 n=g#4 v=22
104858 On ch=1 n=f#5 v=26
104924 On ch=1 n=d5 v=9
104924 On ch=1 n=e5 v=9
106284 On ch=1 n=g#4 v=0
106300 On ch=1 n=c#6 v=0
106306 On ch=1 n=d5 v=0
106314 On ch=1 n=e5 v=0
106348 On ch=1 n=f#5 v=0
107620 Par ch=1 c=64 v=63
107656 On ch=1 n=a5 v=36
107656 On ch=1 n=c#5 v=28
107688 On ch=1 n=e4 v=32
107704 On ch=1 n=a3 v=19
107730 Par ch=1 c=64 v=127
107920 On ch=1 n=a5 v=0
107946 On ch=1 n=a3 v=0
107946 On ch=1 n=e4 v=0
107956 On ch=1 n=c#5 v=0
108384 On ch=1 n=b4 v=26
108390 Par ch=1 c=64 v=63
108398 On ch=1 n=e5 v=38
108400 On ch=1 n=d5 v=32
108404 On ch=1 n=d4 v=24
108410 On ch=1 n=g3 v=34
108488 Par ch=1 c=64 v=127
108592 On ch=1 n=d4 v=0
108600 On ch=1 n=g3 v=0
109014 On ch=1 n=e6 v=32
109026 On ch=1 n=d6 v=21
109156 On ch=1 n=e6 v=0
109182 On ch=1 n=d6 v=0
109666 On ch=1 n=b4 v=0
109770 On ch=1 n=d5 v=0
109800 On ch=1 n=e5 v=0
110242 On ch=1 n=a5 v=55
110256 On ch=1 n=c#5 v=48
110274 On ch=1 n=e4 v=36
110304 On ch=1 n=a3 v=22
110444 On ch=1 n=a5 v=0
110462 On ch=1 n=c#5 v=0
110468 On ch=1 n=a3 v=0
110740 On ch=1 n=e4 v=0
110752 On ch=1 n=b4 v=45
110752 On ch=1 n=g3 v=44
110770 On ch=1 n=e5 v=50
110772 On ch=1 n=d4 v=38
110776 On ch=1 n=d5 v=47
110790 Par ch=1 c=64 v=63
110798 Par ch=1 c=64 v=127
110882 On ch=1 n=g3 v=0
110886 On ch=1 n=d4 v=0
111328 On ch=1 n=e6 v=60
111334 On ch=1 n=d6 v=56
111422 On ch=1 n=e6 v=0
111434 On ch=1 n=d6 v=0
112072 On ch=1 n=b4 v=0
112218 On ch=1 n=d5 v=0
112238 On ch=1 n=e5 v=0
112614 On ch=1 n=c#5 v=68
112616 On ch=1 n=a5 v=67
112620 On ch=1 n=e4 v=46
112632 On ch=1 n=a3 v=41
112734 Par ch=1 c=64 v=63
112804 Par ch=1 c=64 v=127
112828 On ch=1 n=a5 v=0
112834 On ch=1 n=c#5 v=0
112918 On ch=1 n=e4 v=0
113060 On ch=1 n=a3 v=0
113084 On ch=1 n=d4 v=60
113086 On ch=1 n=b4 v=64
113086 On ch=1 n=e5 v=72
113096 On ch=1 n=g3 v=51
113116 On ch=1 n=d5 v=52
113164 Par ch=1 c=64 v=63
113204 Par ch=1 c=64 v=127
113320 On ch=1 n=b4 v=0
113370 On ch=1 n=g3 v=0
113398 On ch=1 n=d5 v=0
113426 On ch=1 n=e5 v=0
113602 On ch=1 n=f#5 v=75
113610 On ch=1 n=c#4 v=49
113626 On ch=1 n=a#4 v=50
113630 On ch=1 n=g3 v=41
113658 On ch=1 n=d4 v=0
113728 Par ch=1 c=64 v=63
113814 Par ch=1 c=64 v=0
113962 On ch=1 n=g3 v=0
114226 On ch=1 n=f#5 v=0
114232 On ch=1 n=c#5 v=67
114260 On ch=1 n=f#3 v=50
114368 Par ch=1 c=64 v=63
114384 Par ch=1 c=64 v=127
114420 On ch=1 n=f#3 v=0
114460 On ch=1 n=c#4 v=0
115114 On ch=1 n=e6 v=60
115130 On ch=1 n=e5 v=36
115204 On ch=1 n=e6 v=0
115232 On ch=1 n=e5 v=0
116160 On ch=1 n=a#4 v=0
116444 On ch=1 n=c#5 v=0
116546 On ch=1 n=c#4 v=43
116576 On ch=1 n=a#4 v=30
116594 On ch=1 n=g3 v=30
116596 On ch=1 n=f#5 v=48
116796 On ch=1 n=g3 v=0
117100 On ch=1 n=f#3 v=43
117114 Par ch=1 c=64 v=63
117118 On ch=1 n=c#5 v=60
117126 On ch=1 n=f#5 v=0
117216 Par ch=1 c=64 v=127
117250 On ch=1 n=f#3 v=0
117300 On ch=1 n=c#4 v=0
117912 On ch=1 n=e6 v=60
117920 On ch=1 n=e5 v=51
117982 On ch=1 n=e5 v=0
117996 On ch=1 n=e6 v=0
118208 On ch=1 n=a#4 v=0
118286 On ch=1 n=c#5 v=0
119590 On ch=1 n=e6 v=43
119608 On ch=1 n=c#6 v=44
119608 On ch=1 n=e5 v=25
119612 On ch=1 n=a#5 v=20
119936 Par ch=1 c=67 v=0
120138 On ch=1 n=a#5 v=0
120194 On ch=1 n=e6 v=0
120212 On ch=1 n=c#6 v=0
120406 On ch=1 n=e5 v=0
120676 On ch=1 n=d5 v=40
120714 On ch=1 n=c#6 v=32
120720 On ch=1 n=a#5 v=14
120734 On ch=1 n=d6 v=29
120956 On ch=1 n=d5 v=0
120974 On ch=1 n=e5 v=33
120998 On ch=1 n=e6 v=54
121114 On ch=1 n=d6 v=0
121244 On ch=1 n=f#6 v=72
121274 On ch=1 n=f#5 v=44
121288 On ch=1 n=e6 v=0
121306 On ch=1 n=e5 v=0
121398 On ch=1 n=a#5 v=0
121406 On ch=1 n=c#6 v=0
121464 On ch=1 n=f#6 v=0
121540 On ch=1 n=f#5 v=0
121700 On ch=1 n=d6 v=54
121710 On ch=1 n=d5 v=50
121720 On ch=1 n=a#5 v=37
121754 On ch=1 n=c#6 v=27
121896 On ch=1 n=c#5 v=75
121938 On ch=1 n=a#5 v=0
122006 On ch=1 n=d6 v=0
122008 On ch=1 n=d5 v=0
122018 On ch=1 n=c#6 v=0
122082 On ch=1 n=c#5 v=0
122122 On ch=1 n=e5 v=68
122152 On ch=1 n=e6 v=65
122258 On ch=1 n=e5 v=0
122278 On ch=1 n=e6 v=0
122582 On ch=1 n=e6 v=76
122590 On ch=1 n=e5 v=68
122608 On ch=1 n=a#5 v=50
122614 On ch=1 n=c#6 v=63
123042 On ch=1 n=a#5 v=0
123126 On ch=1 n=c#6 v=0
123134 On ch=1 n=e5 v=0
123150 On ch=1 n=e6 v=0
123478 On ch=1 n=e6 v=87
123496 On ch=1 n=e5 v=54
123500 On ch=1 n=a#5 v=56
123508 On ch=1 n=c#6 v=65
123854 On ch=1 n=a#5 v=0
123860 On ch=1 n=e5 v=0
123924 On ch=1 n=c#6 v=0
123952 On ch=1 n=e6 v=0
124312 On ch=1 n=d5 v=78
124312 On ch=1 n=a#5 v=61
124318 On ch=1 n=d6 v=72
124324 On ch=1 n=c#6 v=60
124504 On ch=1 n=e5 v=76
124520 On ch=1 n=e6 v=88
124604 On ch=1 n=d5 v=0
124652 On ch=1 n=d6 v=0
124742 On ch=1 n=f#6 v=92
124748 On ch=1 n=f#5 v=99
124806 On ch=1 n=e5 v=0
124824 On ch=1 n=a#5 v=0
124834 On ch=1 n=e6 v=0
124884 On ch=1 n=c#6 v=0
124898 On ch=1 n=f#6 v=0
124908 On ch=1 n=f#5 v=0
125186 On ch=1 n=d6 v=87
125186 On ch=1 n=d5 v=89
125190 On ch=1 n=a#5 v=83
125206 On ch=1 n=c#6 v=82
125430 On ch=1 n=c#5 v=101
125434 On ch=1 n=a#5 v=0
125480 On ch=1 n=d5 v=0
125502 On ch=1 n=d6 v=0
125506 On ch=1 n=c#6 v=0
125576 On ch=1 n=c#5 v=0
125646 On ch=1 n=c#5 v=86
125672 Par ch=1 c=64 v=63
125684 Par ch=1 c=64 v=0
125750 On ch=1 n=d5 v=81
125756 Par ch=1 c=64 v=63
125774 Par ch=1 c=64 v=127
125824 On ch=1 n=f#5 v=93
125946 On ch=1 n=c#5 v=0
125968 On ch=1 n=d5 v=0
125984 On ch=1 n=c#7 v=113
125990 On ch=1 n=c#6 v=96
125994 On ch=1 n=f#6 v=103
126166 On ch=1 n=f#6 v=0
126172 On ch=1 n=c#6 v=0
126178 On ch=1 n=c#7 v=0
126178 On ch=1 n=d6 v=42
126238 On ch=1 n=f#5 v=0
126250 On ch=1 n=d6 v=0
126290 On ch=1 n=f#6 v=70
126352 On ch=1 n=d6 v=72
126388 On ch=1 n=f#6 v=0
126454 On ch=1 n=d6 v=0
126472 On ch=1 n=b5 v=104
126492 On ch=1 n=f#6 v=105
126492 On ch=1 n=b6 v=101
126592 On ch=1 n=d6 v=78
126594 On ch=1 n=f#6 v=0
126634 On ch=1 n=b5 v=0
126676 On ch=1 n=d6 v=0
126678 On ch=1 n=f#6 v=67
126730 On ch=1 n=b6 v=0
126740 On ch=1 n=d6 v=75
126762 On ch=1 n=f#6 v=0
126812 On ch=1 n=d6 v=0
126894 On ch=1 n=f#5 v=114
126904 On ch=1 n=f#6 v=103
126912 On ch=1 n=c#6 v=94
126918 Par ch=1 c=64 v=63
126926 Par ch=1 c=64 v=0
126970 Par ch=1 c=64 v=63
126998 Par ch=1 c=64 v=127
127032 On ch=1 n=a5 v=52
127042 On ch=1 n=f#5 v=0
127044 On ch=1 n=c#6 v=0
127136 On ch=1 n=a5 v=0
127150 On ch=1 n=c#6 v=86
127220 On ch=1 n=a5 v=63
127264 On ch=1 n=c#6 v=0
127316 On ch=1 n=a5 v=0
127330 On ch=1 n=c#6 v=72
127336 On ch=1 n=b4 v=104
127402 On ch=1 n=a5 v=63
127444 On ch=1 n=c#6 v=0
127502 On ch=1 n=a5 v=0
127512 On ch=1 n=c#6 v=70
127588 On ch=1 n=a5 v=65
127656 On ch=1 n=c#6 v=0
127658 On ch=1 n=b4 v=0
127672 On ch=1 n=a5 v=0
127706 On ch=1 n=e4 v=113
127714 On ch=1 n=b5 v=84
127744 Par ch=1 c=64 v=63
127798 Par ch=1 c=64 v=127
127812 On ch=1 n=g5 v=80
127830 On ch=1 n=b5 v=0
127894 On ch=1 n=g5 v=0
127922 On ch=1 n=b5 v=69
127982 On ch=1 n=f#6 v=0
127996 On ch=1 n=g5 v=74
128040 On ch=1 n=b5 v=0
128048 On ch=1 n=e4 v=0
128088 On ch=1 n=g5 v=0
128120 On ch=1 n=e5 v=90
128132 On ch=1 n=b5 v=99
128134 On ch=1 n=e6 v=101
128216 On ch=1 n=g5 v=77
128248 On ch=1 n=b5 v=0
128258 On ch=1 n=e6 v=0
128314 On ch=1 n=g5 v=0
128322 On ch=1 n=f#5 v=112
128334 On ch=1 n=f#6 v=105
128336 On ch=1 n=e5 v=0
128340 On ch=1 n=b5 v=81
128422 On ch=1 n=g5 v=83
128460 On ch=1 n=b5 v=0
128462 On ch=1 n=f#6 v=0
128494 On ch=1 n=g5 v=0
128536 On ch=1 n=g5 v=108
128542 On ch=1 n=g6 v=108
128550 On ch=1 n=d6 v=100
128552 Par ch=1 c=64 v=63
128588 On ch=1 n=f#5 v=0
128604 Par ch=1 c=64 v=127
128646 On ch=1 n=b5 v=90
128688 On ch=1 n=d6 v=0
128728 On ch=1 n=b5 v=0
128742 On ch=1 n=d6 v=52
128808 On ch=1 n=b5 v=80
128844 On ch=1 n=g6 v=0
128846 On ch=1 n=d6 v=0
128848 On ch=1 n=g5 v=0
128886 On ch=1 n=b5 v=0
128916 On ch=1 n=a5 v=106
128920 On ch=1 n=a6 v=107
128938 On ch=1 n=e6 v=93
129026 On ch=1 n=c#6 v=100
129030 On ch=1 n=a5 v=0
129050 On ch=1 n=a6 v=0
129070 On ch=1 n=e6 v=0
129108 On ch=1 n=b5 v=113
129122 On ch=1 n=c#6 v=0
129132 On ch=1 n=b6 v=103
129138 On ch=1 n=f#6 v=83
129220 On ch=1 n=b6 v=0
129232 On ch=1 n=c#6 v=97
129244 On ch=1 n=b5 v=0
129250 On ch=1 n=f#6 v=0
129258 Par ch=1 c=64 v=63
129268 Par ch=1 c=64 v=0
129300 On ch=1 n=c#6 v=0
129310 Par ch=1 c=64 v=63
129326 On ch=1 n=c#7 v=116
129328 On ch=1 n=c#6 v=114
129330 Par ch=1 c=64 v=127
129368 On ch=1 n=f#6 v=91
129398 On ch=1 n=c#6 v=0
129430 On ch=1 n=d6 v=62
129456 On ch=1 n=c#7 v=0
129466 On ch=1 n=f#6 v=0
129504 On ch=1 n=d6 v=0
129548 On ch=1 n=c#7 v=10
129560 On ch=1 n=f#6 v=58
129592 On ch=1 n=c#7 v=0
129608 On ch=1 n=d6 v=90
129652 On ch=1 n=f#6 v=0
129696 On ch=1 n=d6 v=0
129722 On ch=1 n=b6 v=106
129726 On ch=1 n=b5 v=116
129792 On ch=1 n=b5 v=0
129814 On ch=1 n=d6 v=94
129884 On ch=1 n=f#6 v=90
129892 On ch=1 n=d6 v=0
129926 On ch=1 n=b6 v=0
129954 On ch=1 n=d6 v=88
129976 On ch=1 n=f#6 v=0
130026 On ch=1 n=d6 v=0
130060 Par ch=1 c=64 v=63
130076 Par ch=1 c=64 v=0
130088 Par ch=1 c=64 v=63
130094 On ch=1 n=d#6 v=121
130100 On ch=1 n=f#7 v=109
130114 Par ch=1 c=64 v=127
130152 On ch=1 n=d#6 v=0
130184 On ch=1 n=a6 v=41
130254 On ch=1 n=a6 v=0
130286 On ch=1 n=c7 v=60
130296 On ch=1 n=f#7 v=0
130358 On ch=1 n=a6 v=76
130376 On ch=1 n=c7 v=0
130450 On ch=1 n=a6 v=0
130486 On ch=1 n=c7 v=55
130502 On ch=1 n=d#7 v=113
130554 On ch=1 n=c7 v=0
130554 On ch=1 n=a6 v=68
130556 On ch=1 n=d#7 v=0
130634 On ch=1 n=a6 v=0
130666 On ch=1 n=c7 v=55
130720 On ch=1 n=a6 v=70
130728 On ch=1 n=c7 v=0
130822 On ch=1 n=a6 v=0
130866 On ch=1 n=c7 v=71
130876 On ch=1 n=d#6 v=120
130942 On ch=1 n=d#6 v=0
130954 On ch=1 n=a6 v=75
130964 On ch=1 n=c7 v=0
131048 On ch=1 n=a6 v=0
131074 On ch=1 n=f#7 v=110
131172 On ch=1 n=a6 v=81
131174 On ch=1 n=f#7 v=0
131242 On ch=1 n=a6 v=0
131280 On ch=1 n=g7 v=107
131296 On ch=1 n=b5 v=100
131368 On ch=1 n=a6 v=76
131388 On ch=1 n=g7 v=0
131436 On ch=1 n=a6 v=0
131462 On ch=1 n=a7 v=104
131526 On ch=1 n=a7 v=0
131534 On ch=1 n=a6 v=93
131600 On ch=1 n=a6 v=0
131614 Par ch=1 c=64 v=63
131632 On ch=1 n=f#7 v=114
131638 On ch=1 n=d6 v=103
131658 On ch=1 n=b5 v=0
131672 Par ch=1 c=64 v=127
131740 On ch=1 n=g6 v=57
131782 On ch=1 n=f#7 v=0
131786 On ch=1 n=d6 v=0
131822 On ch=1 n=g6 v=0
131846 On ch=1 n=b6 v=49
131908 On ch=1 n=g6 v=68
131946 On ch=1 n=b6 v=0
131992 On ch=1 n=g6 v=0
132010 On ch=1 n=b6 v=86
132026 On ch=1 n=e7 v=108
132098 On ch=1 n=b6 v=0
132136 On ch=1 n=g6 v=85
132146 On ch=1 n=e7 v=0
132226 On ch=1 n=d7 v=97
132232 On ch=1 n=g6 v=0
132310 On ch=1 n=d7 v=0
132310 On ch=1 n=g6 v=65
132374 On ch=1 n=g6 v=0
132398 On ch=1 n=d6 v=116
132416 On ch=1 n=b6 v=96
132462 On ch=1 n=d6 v=0
132498 On ch=1 n=g6 v=71
132514 On ch=1 n=b6 v=0
132588 On ch=1 n=g6 v=0
132612 On ch=1 n=b6 v=71
132688 On ch=1 n=g6 v=71
132710 On ch=1 n=b6 v=0
132776 On ch=1 n=g6 v=0
132792 On ch=1 n=d7 v=106
132816 On ch=1 n=b5 v=108
132878 On ch=1 n=g6 v=81
132882 On ch=1 n=b5 v=0
132898 On ch=1 n=d7 v=0
132958 On ch=1 n=b6 v=71
132968 On ch=1 n=g6 v=0
133028 On ch=1 n=g6 v=80
133038 On ch=1 n=b6 v=0
133052 Par ch=1 c=64 v=63
133062 Par ch=1 c=64 v=0
133110 On ch=1 n=g6 v=0
133148 On ch=1 n=d#6 v=123
133150 On ch=1 n=f#7 v=114
133150 Par ch=1 c=64 v=63
133164 Par ch=1 c=64 v=127
133202 On ch=1 n=d#6 v=0
133238 On ch=1 n=a6 v=72
133282 On ch=1 n=f#7 v=0
133316 On ch=1 n=a6 v=0
133334 On ch=1 n=c7 v=63
133422 On ch=1 n=a6 v=78
133448 On ch=1 n=c7 v=0
133518 On ch=1 n=a6 v=0
133546 On ch=1 n=c7 v=65
133546 On ch=1 n=d#7 v=107
133588 On ch=1 n=d#7 v=0
133616 On ch=1 n=c7 v=0
133616 On ch=1 n=a6 v=82
133706 On ch=1 n=a6 v=0
133722 On ch=1 n=c7 v=66
133786 On ch=1 n=a6 v=75
133802 On ch=1 n=c7 v=0
133886 On ch=1 n=a6 v=0
133914 On ch=1 n=d#6 v=120
133914 On ch=1 n=c7 v=71
133982 On ch=1 n=d#6 v=0
133990 On ch=1 n=c7 v=0
133994 On ch=1 n=a6 v=82
134082 On ch=1 n=a6 v=0
134104 On ch=1 n=f#7 v=109
134190 On ch=1 n=a6 v=90
134202 On ch=1 n=f#7 v=0
134276 On ch=1 n=a6 v=0
134292 On ch=1 n=b5 v=100
134298 On ch=1 n=g7 v=102
134386 On ch=1 n=a6 v=74
134406 On ch=1 n=g7 v=0
134454 On ch=1 n=a6 v=0
134466 On ch=1 n=a7 v=93
134544 On ch=1 n=a6 v=89
134556 On ch=1 n=a7 v=0
134586 Par ch=1 c=64 v=63
134602 Par ch=1 c=64 v=0
134618 On ch=1 n=a6 v=0
134630 Par ch=1 c=64 v=63
134656 On ch=1 n=f#7 v=108
134658 On ch=1 n=d6 v=99
134660 Par ch=1 c=64 v=127
134668 On ch=1 n=b5 v=0
134754 On ch=1 n=d6 v=0
134756 On ch=1 n=f#7 v=0
134760 On ch=1 n=g6 v=80
134838 On ch=1 n=g6 v=0
134842 On ch=1 n=e7 v=86
134920 On ch=1 n=e7 v=0
134934 On ch=1 n=g6 v=79
135000 On ch=1 n=b6 v=98
135008 On ch=1 n=g6 v=0
135020 On ch=1 n=f#7 v=112
135080 On ch=1 n=b6 v=0
135126 On ch=1 n=f#7 v=0
135126 On ch=1 n=g6 v=57
135190 On ch=1 n=d7 v=100
135208 On ch=1 n=g6 v=0
135266 On ch=1 n=g6 v=59
135286 On ch=1 n=d7 v=0
135344 On ch=1 n=g6 v=0
135378 On ch=1 n=d6 v=114
135382 On ch=1 n=b6 v=106
135436 On ch=1 n=d6 v=0
135468 On ch=1 n=g6 v=84
135480 On ch=1 n=b6 v=0
135560 On ch=1 n=g6 v=0
135572 On ch=1 n=b6 v=56
135634 On ch=1 n=g6 v=70
135662 On ch=1 n=b6 v=0
135730 On ch=1 n=g6 v=0
135756 On ch=1 n=a#5 v=119
135758 On ch=1 n=d7 v=109
135814 On ch=1 n=a#5 v=0
135836 On ch=1 n=g6 v=84
135864 On ch=1 n=d7 v=0
135936 On ch=1 n=d7 v=86
135942 On ch=1 n=g6 v=0
136014 On ch=1 n=d7 v=0
136024 On ch=1 n=g6 v=90
136100 On ch=1 n=a5 v=71
136128 On ch=1 n=g6 v=0
136206 Par ch=1 c=64 v=63
136214 Par ch=1 c=64 v=0
136240 On ch=1 n=d6 v=46
136270 On ch=1 n=g6 v=111
136274 On ch=1 n=f#7 v=108
136288 Par ch=1 c=64 v=63
136318 Par ch=1 c=64 v=127
136520 On ch=1 n=f#7 v=0
136648 On ch=1 n=g6 v=0
136706 On ch=1 n=d6 v=0
136738 On ch=1 n=e7 v=109
136742 On ch=1 n=c#6 v=107
136752 On ch=1 n=a6 v=89
136798 On ch=1 n=a5 v=0
136816 On ch=1 n=a6 v=0
136818 On ch=1 n=c#6 v=0
136898 On ch=1 n=c#7 v=108
136932 On ch=1 n=e7 v=0
136976 On ch=1 n=c#7 v=0
137114 On ch=1 n=b6 v=90
137122 On ch=1 n=e5 v=99
137124 On ch=1 n=d6 v=98
137132 On ch=1 n=g6 v=81
137152 Par ch=1 c=64 v=63
137164 Par ch=1 c=64 v=0
137206 Par ch=1 c=64 v=63
137238 Par ch=1 c=64 v=127
137332 On ch=1 n=d6 v=0
137344 On ch=1 n=b6 v=0
137400 On ch=1 n=g6 v=0
137508 On ch=1 n=e5 v=0
137520 On ch=1 n=a6 v=106
137536 On ch=1 n=c#6 v=98
137690 On ch=1 n=f#6 v=97
137708 On ch=1 n=c#6 v=0
137724 On ch=1 n=a4 v=79
137732 On ch=1 n=a6 v=0
137786 On ch=1 n=d5 v=70
137842 On ch=1 n=f#6 v=0
137880 On ch=1 n=g5 v=81
137886 On ch=1 n=f#6 v=108
137898 On ch=1 n=b5 v=96
137924 Par ch=1 c=64 v=63
137988 Par ch=1 c=64 v=127
138100 On ch=1 n=f#6 v=0
138150 On ch=1 n=g5 v=0
138152 On ch=1 n=b5 v=0
138280 On ch=1 n=d5 v=0
138290 On ch=1 n=c#5 v=95
138294 On ch=1 n=e6 v=101
138314 On ch=1 n=a5 v=72
138330 On ch=1 n=a4 v=0
138344 On ch=1 n=c#5 v=0
138470 On ch=1 n=c#6 v=100
138488 On ch=1 n=a5 v=0
138524 On ch=1 n=e6 v=0
138572 On ch=1 n=c#6 v=0
138696 On ch=1 n=e4 v=72
138716 On ch=1 n=d5 v=83
138718 On ch=1 n=g5 v=77
138728 On ch=1 n=b5 v=91
138796 Par ch=1 c=64 v=63
138894 Par ch=1 c=64 v=127
139016 On ch=1 n=d5 v=0
139028 On ch=1 n=b5 v=0
139080 On ch=1 n=g5 v=0
139200 Par ch=1 c=64 v=63
139218 On ch=1 n=a5 v=86
139218 Par ch=1 c=67 v=127
139252 On ch=1 n=c#5 v=65
139264 On ch=1 n=e4 v=0
139316 Par ch=1 c=64 v=127
139460 On ch=1 n=f#5 v=93
139550 On ch=1 n=a5 v=0
139554 On ch=1 n=c#5 v=0
139590 On ch=1 n=f#5 v=0
139796 On ch=1 n=e5 v=86
139796 On ch=1 n=b4 v=63
139802 On ch=1 n=g4 v=60
139864 Par ch=1 c=64 v=63
139882 Par ch=1 c=64 v=0
140148 Par ch=1 c=64 v=63
140158 Par ch=1 c=64 v=127
140276 On ch=1 n=d4 v=66
140280 On ch=1 n=a3 v=68
140456 On ch=1 n=a3 v=0
140574 On ch=1 n=g4 v=0
140680 On ch=1 n=e5 v=0
140702 On ch=1 n=b4 v=0
140714 On ch=1 n=e3 v=82
140714 On ch=1 n=a3 v=77
140738 On ch=1 n=d4 v=0
140804 On ch=1 n=a3 v=0
140804 On ch=1 n=e3 v=0
141096 On ch=1 n=a4 v=78
141228 On ch=1 n=a4 v=0
141262 On ch=1 n=f#5 v=104
141388 On ch=1 n=f#5 v=0
141482 On ch=1 n=e5 v=97
141484 On ch=1 n=b4 v=89
141488 On ch=1 n=g4 v=84
141604 Par ch=1 c=64 v=63
141610 Par ch=1 c=64 v=0
141746 Par ch=1 c=64 v=63
141762 Par ch=1 c=64 v=127
141908 On ch=1 n=d4 v=77
141928 On ch=1 n=a3 v=63
142064 On ch=1 n=a3 v=0
142072 On ch=1 n=g4 v=0
142140 On ch=1 n=b4 v=0
142188 On ch=1 n=e5 v=0
142326 On ch=1 n=a3 v=87
142330 On ch=1 n=e3 v=86
142352 On ch=1 n=d4 v=0
142406 On ch=1 n=a3 v=0
142412 On ch=1 n=e3 v=0
142500 On ch=1 n=f#5 v=101
142680 On ch=1 n=a4 v=77
142688 On ch=1 n=a5 v=87
142732 On ch=1 n=f#5 v=0
142790 On ch=1 n=a4 v=0
142868 On ch=1 n=f#5 v=110
142914 On ch=1 n=a5 v=0
142968 On ch=1 n=f#5 v=0
143078 On ch=1 n=d5 v=109
143098 On ch=1 n=g4 v=84
143102 On ch=1 n=b4 v=89
143132 Par ch=1 c=64 v=63
143140 Par ch=1 c=64 v=0
143232 Par ch=1 c=64 v=63
143262 Par ch=1 c=64 v=127
143480 On ch=1 n=e5 v=94
143482 On ch=1 n=d4 v=74
143500 On ch=1 n=a3 v=66
143548 On ch=1 n=d5 v=0
143550 On ch=1 n=g4 v=0
143582 On ch=1 n=e5 v=0
143612 On ch=1 n=b4 v=0
143634 On ch=1 n=f#5 v=104
143664 On ch=1 n=a3 v=0
143756 On ch=1 n=f#5 v=0
143840 On ch=1 n=d5 v=107
143852 On ch=1 n=g4 v=86
143852 On ch=1 n=b4 v=92
143852 On ch=1 n=a3 v=89
143856 Par ch=1 c=64 v=63
143860 On ch=1 n=d4 v=0
143862 On ch=1 n=e3 v=88
143868 Par ch=1 c=64 v=0
143952 Par ch=1 c=64 v=63
143972 Par ch=1 c=64 v=127
144026 On ch=1 n=a3 v=0
144038 On ch=1 n=e3 v=0
144062 On ch=1 n=b4 v=0
144066 On ch=1 n=g4 v=0
144230 On ch=1 n=a4 v=88
144234 On ch=1 n=c#5 v=115
144286 On ch=1 n=d5 v=0
144324 On ch=1 n=c#5 v=0
144348 On ch=1 n=a4 v=0
144636 On ch=1 n=a5 v=111
144656 On ch=1 n=e5 v=101
144656 On ch=1 n=c5 v=102
144702 Par ch=1 c=64 v=63
144710 Par ch=1 c=64 v=0
144876 Par ch=1 c=64 v=63
144884 Par ch=1 c=64 v=127
145106 On ch=1 n=d4 v=101
145114 On ch=1 n=a3 v=85
145236 On ch=1 n=c5 v=0
145280 On ch=1 n=a3 v=0
145288 On ch=1 n=e5 v=0
145338 On ch=1 n=a5 v=0
145474 On ch=1 n=d4 v=0
145486 On ch=1 n=a3 v=102
145490 On ch=1 n=e3 v=108
145550 On ch=1 n=e3 v=0
145554 On ch=1 n=a3 v=0
145660 On ch=1 n=b5 v=104
145842 On ch=1 n=f#5 v=107
145848 On ch=1 n=f#4 v=101
145862 On ch=1 n=d6 v=98
145904 On ch=1 n=f#5 v=0
145916 On ch=1 n=f#4 v=0
145934 On ch=1 n=b5 v=0
146020 On ch=1 n=b5 v=106
146066 On ch=1 n=d6 v=0
146108 On ch=1 n=b5 v=0
146252 Par ch=1 c=64 v=63
146262 Par ch=1 c=64 v=0
146280 On ch=1 n=g4 v=100
146290 On ch=1 n=e5 v=91
146292 On ch=1 n=g5 v=90
146294 On ch=1 n=c5 v=94
146328 Par ch=1 c=64 v=63
146358 Par ch=1 c=64 v=127
146406 On ch=1 n=g4 v=0
146536 On ch=1 n=c5 v=0
146692 On ch=1 n=d4 v=101
146698 On ch=1 n=a4 v=105
146698 On ch=1 n=a3 v=93
146704 On ch=1 n=g5 v=0
146712 On ch=1 n=e5 v=0
146840 On ch=1 n=b4 v=100
146884 On ch=1 n=a4 v=0
146908 On ch=1 n=a3 v=0
146940 On ch=1 n=b4 v=0
147002 On ch=1 n=d4 v=0
147024 On ch=1 n=g5 v=106
147028 On ch=1 n=g4 v=106
147030 On ch=1 n=e3 v=113
147032 On ch=1 n=a3 v=106
147034 On ch=1 n=c5 v=102
147036 On ch=1 n=e5 v=102
147038 Par ch=1 c=64 v=63
147046 Par ch=1 c=64 v=0
147138 On ch=1 n=a3 v=0
147148 Par ch=1 c=64 v=63
147158 On ch=1 n=e3 v=0
147162 Par ch=1 c=64 v=127
147336 On ch=1 n=g4 v=0
147432 On ch=1 n=c5 v=0
147432 On ch=1 n=f#5 v=115
147438 On ch=1 n=f#4 v=106
147500 On ch=1 n=f#5 v=0
147510 On ch=1 n=e5 v=0
147516 On ch=1 n=g5 v=0
147532 On ch=1 n=f#4 v=0
147542 Par ch=1 c=67 v=0
147916 On ch=1 n=d6 v=97
147920 On ch=1 n=b4 v=67
147934 On ch=1 n=f5 v=75
147934 On ch=1 n=a5 v=71
147942 On ch=1 n=a4 v=61
147968 Par ch=1 c=64 v=63
147986 Par ch=1 c=64 v=0
148014 Par ch=1 c=64 v=63
148060 Par ch=1 c=64 v=127
148140 On ch=1 n=a4 v=0
148154 On ch=1 n=b4 v=0
148386 On ch=1 n=a3 v=77
148392 On ch=1 n=d4 v=76
148438 On ch=1 n=a5 v=0
148538 On ch=1 n=f5 v=0
148574 On ch=1 n=e6 v=92
148600 On ch=1 n=a3 v=0
148614 On ch=1 n=d6 v=0
148742 On ch=1 n=a3 v=71
148756 On ch=1 n=e3 v=69
148768 On ch=1 n=d6 v=99
148774 On ch=1 n=d4 v=0
148782 On ch=1 n=f5 v=91
148788 On ch=1 n=a5 v=88
148810 On ch=1 n=e6 v=0
148828 On ch=1 n=e3 v=0
148832 On ch=1 n=a3 v=0
149138 On ch=1 n=b4 v=102
149140 On ch=1 n=a4 v=100
149174 On ch=1 n=a5 v=0
149196 On ch=1 n=f5 v=0
149240 On ch=1 n=a4 v=0
149270 On ch=1 n=b4 v=0
149290 On ch=1 n=e6 v=104
149318 On ch=1 n=d6 v=0
149368 On ch=1 n=e6 v=0
149510 On ch=1 n=e5 v=97
149514 On ch=1 n=g6 v=101
149516 On ch=1 n=d6 v=52
149518 On ch=1 n=d5 v=90
149530 On ch=1 n=a#5 v=97
149562 Par ch=1 c=64 v=63
149628 Par ch=1 c=64 v=127
149634 On ch=1 n=d5 v=0
149638 On ch=1 n=e5 v=0
149816 On ch=1 n=g6 v=0
149866 On ch=1 n=a#5 v=0
149882 On ch=1 n=d4 v=101
149892 On ch=1 n=a3 v=99
150036 On ch=1 n=d6 v=0
150060 On ch=1 n=a6 v=104
150116 On ch=1 n=a3 v=0
150182 On ch=1 n=a6 v=0
150226 On ch=1 n=a3 v=96
150230 On ch=1 n=e3 v=102
150236 On ch=1 n=d4 v=0
150244 On ch=1 n=g6 v=104
150254 On ch=1 n=d6 v=101
150258 On ch=1 n=a#5 v=107
150298 On ch=1 n=a3 v=0
150300 On ch=1 n=e3 v=0
150506 On ch=1 n=a#5 v=0
150554 On ch=1 n=d6 v=0
150606 On ch=1 n=e5 v=109
150606 On ch=1 n=d5 v=113
150674 On ch=1 n=d5 v=0
150686 On ch=1 n=e5 v=0
150718 On ch=1 n=g6 v=0
150768 On ch=1 n=a6 v=102
150856 On ch=1 n=a6 v=0
150990 On ch=1 n=d6 v=112
150998 On ch=1 n=b4 v=107
151002 On ch=1 n=a5 v=104
151002 On ch=1 n=f5 v=100
151004 On ch=1 n=a4 v=102
151020 Par ch=1 c=64 v=63
151028 Par ch=1 c=64 v=0
151090 Par ch=1 c=64 v=63
151120 Par ch=1 c=64 v=127
151150 On ch=1 n=a4 v=0
151160 On ch=1 n=b4 v=0
151378 On ch=1 n=d4 v=91
151382 On ch=1 n=a3 v=92
151520 On ch=1 n=e6 v=106
151562 On ch=1 n=d6 v=0
151576 On ch=1 n=f5 v=0
151594 On ch=1 n=a5 v=0
151678 On ch=1 n=e6 v=0
151680 Par ch=1 c=64 v=63
151686 On ch=1 n=a3 v=0
151688 On ch=1 n=a3 v=86
151692 On ch=1 n=e3 v=106
151700 On ch=1 n=d6 v=108
151710 On ch=1 n=f5 v=107
151712 On ch=1 n=a5 v=106
151720 On ch=1 n=d4 v=0
151728 Par ch=1 c=64 v=127
151778 On ch=1 n=a3 v=0
151784 On ch=1 n=e3 v=0
151864 On ch=1 n=e6 v=111
151934 On ch=1 n=f5 v=0
151942 On ch=1 n=a5 v=0
151956 On ch=1 n=d6 v=0
152030 On ch=1 n=d6 v=97
152032 On ch=1 n=a4 v=113
152032 On ch=1 n=b4 v=112
152038 On ch=1 n=e6 v=0
152046 On ch=1 n=a5 v=102
152048 On ch=1 n=f5 v=99
152108 On ch=1 n=a4 v=0
152126 On ch=1 n=b4 v=0
152178 On ch=1 n=e6 v=112
152202 On ch=1 n=f5 v=0
152204 On ch=1 n=a5 v=0
152238 On ch=1 n=d6 v=0
152284 On ch=1 n=e6 v=0
152364 On ch=1 n=g6 v=118
152370 On ch=1 n=d6 v=111
152372 On ch=1 n=a#5 v=118
152374 Par ch=1 c=64 v=63
152376 On ch=1 n=e5 v=109
152378 On ch=1 n=d5 v=112
152426 Par ch=1 c=64 v=127
152446 On ch=1 n=d5 v=0
152454 On ch=1 n=e5 v=0
152688 On ch=1 n=g6 v=0
152708 On ch=1 n=d4 v=118
152714 On ch=1 n=a3 v=113
152764 On ch=1 n=a#5 v=0
152802 On ch=1 n=d6 v=0
152854 On ch=1 n=a6 v=111
152930 On ch=1 n=a3 v=0
152954 On ch=1 n=a6 v=0
152984 On ch=1 n=d4 v=0
153044 On ch=1 n=g6 v=112
153046 On ch=1 n=a3 v=117
153048 On ch=1 n=e3 v=121
153050 On ch=1 n=d6 v=108
153054 On ch=1 n=a#5 v=112
153120 On ch=1 n=a#5 v=0
153142 On ch=1 n=a3 v=0
153142 On ch=1 n=g6 v=0
153148 On ch=1 n=d6 v=0
153158 On ch=1 n=e3 v=0
153220 On ch=1 n=a6 v=104
153308 On ch=1 n=a6 v=0
153390 On ch=1 n=g6 v=106
153394 On ch=1 n=d5 v=120
153398 On ch=1 n=e5 v=111
153402 On ch=1 n=d6 v=106
153404 On ch=1 n=a#5 v=109
153450 On ch=1 n=a#5 v=0
153464 On ch=1 n=d6 v=0
153464 On ch=1 n=g6 v=0
153468 On ch=1 n=e5 v=0
153470 On ch=1 n=d5 v=0
153558 On ch=1 n=a6 v=111
153638 On ch=1 n=a6 v=0
153770 On ch=1 n=c7 v=118
153770 On ch=1 n=f6 v=121
153772 On ch=1 n=c6 v=124
153840 Par ch=1 c=64 v=127
154018 Par ch=1 c=64 v=63
154022 Par ch=1 c=64 v=0
154192 Par ch=1 c=64 v=127
154202 On ch=1 n=f5 v=118
154204 On ch=1 n=e5 v=116
154266 On ch=1 n=f5 v=0
154272 On ch=1 n=e5 v=0
154366 On ch=1 n=c7 v=0
154438 On ch=1 n=c6 v=0
154594 On ch=1 n=e4 v=117
154596 On ch=1 n=e3 v=103
154656 On ch=1 n=e3 v=0
154676 On ch=1 n=e4 v=0
154720 On ch=1 n=f6 v=0
154762 On ch=1 n=d7 v=101
154838 On ch=1 n=d7 v=0
154914 On ch=1 n=e5 v=117
154920 On ch=1 n=f5 v=114
154928 On ch=1 n=b6 v=109
154936 On ch=1 n=c6 v=108
154940 On ch=1 n=f6 v=103
154986 On ch=1 n=f6 v=0
154986 On ch=1 n=f5 v=0
155000 On ch=1 n=c6 v=0
155002 On ch=1 n=e5 v=0
155048 On ch=1 n=a6 v=98
155082 On ch=1 n=b6 v=0
155150 On ch=1 n=a6 v=0
155170 Par ch=1 c=64 v=63
155182 Par ch=1 c=64 v=0
155208 On ch=1 n=c7 v=121
155210 On ch=1 n=f#6 v=120
155210 On ch=1 n=c6 v=118
155304 Par ch=1 c=64 v=63
155316 Par ch=1 c=64 v=127
155542 On ch=1 n=e5 v=122
155544 On ch=1 n=f#5 v=121
155598 On ch=1 n=f#5 v=0
155614 On ch=1 n=e5 v=0
155724 On ch=1 n=c7 v=0
155788 On ch=1 n=c6 v=0
155870 On ch=1 n=e3 v=104
155882 On ch=1 n=e4 v=108
155896 On ch=1 n=f#6 v=0
155930 On ch=1 n=e3 v=0
155944 On ch=1 n=e4 v=0
156032 On ch=1 n=d7 v=107
156110 On ch=1 n=d7 v=0
156188 On ch=1 n=f#5 v=119
156188 On ch=1 n=e5 v=112
156204 On ch=1 n=b6 v=106
156218 On ch=1 n=c6 v=103
156222 On ch=1 n=f#6 v=107
156258 On ch=1 n=e5 v=0
156258 On ch=1 n=f#5 v=0
156270 On ch=1 n=c6 v=0
156330 On ch=1 n=a6 v=103
156348 On ch=1 n=b6 v=0
156382 On ch=1 n=f#6 v=0
156432 On ch=1 n=a6 v=0
156464 Par ch=1 c=64 v=63
156468 Par ch=1 c=64 v=0
156494 On ch=1 n=g6 v=117
156494 On ch=1 n=c7 v=120
156498 On ch=1 n=c6 v=121
156586 Par ch=1 c=64 v=63
156598 Par ch=1 c=64 v=127
156830 On ch=1 n=g5 v=124
156834 On ch=1 n=e5 v=124
156894 On ch=1 n=e5 v=0
156896 On ch=1 n=g5 v=0
157010 On ch=1 n=c7 v=0
157116 On ch=1 n=c6 v=0
157196 On ch=1 n=e3 v=108
157196 On ch=1 n=e4 v=114
157258 On ch=1 n=e3 v=0
157284 On ch=1 n=e4 v=0
157332 On ch=1 n=g6 v=0
157362 On ch=1 n=d7 v=112
157466 On ch=1 n=d7 v=0
157576 On ch=1 n=b6 v=113
157576 On ch=1 n=e5 v=114
157578 On ch=1 n=g5 v=114
157584 On ch=1 n=c6 v=112
157588 On ch=1 n=g6 v=104
157644 On ch=1 n=g6 v=0
157648 On ch=1 n=c6 v=0
157706 On ch=1 n=b6 v=0
157752 On ch=1 n=a6 v=113
157780 On ch=1 n=g5 v=0
157796 On ch=1 n=e5 v=0
157906 On ch=1 n=a6 v=0
157992 On ch=1 n=c7 v=126
157996 Par ch=1 c=64 v=63
158006 Par ch=1 c=64 v=0
158090 Par ch=1 c=64 v=63
158104 Par ch=1 c=64 v=127
158396 On ch=1 n=g#5 v=114
158396 On ch=1 n=c6 v=116
158408 On ch=1 n=g#6 v=115
158454 On ch=1 n=c7 v=0
158536 On ch=1 n=g#6 v=0
158576 On ch=1 n=d7 v=113
158682 On ch=1 n=g#5 v=0
158694 On ch=1 n=d7 v=0
158744 On ch=1 n=c6 v=0
158782 On ch=1 n=f#5 v=115
158786 On ch=1 n=b6 v=109
158788 On ch=1 n=e5 v=103
158802 On ch=1 n=f#6 v=100
158908 On ch=1 n=f#6 v=0
158976 On ch=1 n=b6 v=0
159148 On ch=1 n=c6 v=108
159150 On ch=1 n=g#5 v=103
159152 On ch=1 n=g#6 v=114
159230 On ch=1 n=g#6 v=0
159300 On ch=1 n=a6 v=108
159376 On ch=1 n=f#5 v=0
159380 On ch=1 n=a6 v=0
159384 On ch=1 n=e5 v=0
159386 On ch=1 n=c6 v=0
159406 On ch=1 n=g#5 v=0
159454 On ch=1 n=c7 v=126
159796 On ch=1 n=c6 v=112
159798 On ch=1 n=g#5 v=108
159832 On ch=1 n=g#6 v=108
159852 On ch=1 n=c7 v=0
159964 On ch=1 n=d7 v=112
160052 On ch=1 n=g#6 v=0
160086 On ch=1 n=d7 v=0
160086 On ch=1 n=g#5 v=0
160140 On ch=1 n=f#5 v=113
160142 On ch=1 n=c6 v=0
160148 On ch=1 n=b6 v=107
160150 On ch=1 n=e5 v=98
160160 On ch=1 n=f#6 v=109
160334 On ch=1 n=f#6 v=0
160556 On ch=1 n=g#5 v=109
160558 On ch=1 n=c6 v=114
160574 On ch=1 n=g#6 v=84
160644 On ch=1 n=b6 v=0
160692 On ch=1 n=g#6 v=0
160752 On ch=1 n=a6 v=114
161012 On ch=1 n=c7 v=113
161064 On ch=1 n=a6 v=0
161102 Par ch=1 c=64 v=63
161106 Par ch=1 c=64 v=0
161192 Par ch=1 c=64 v=63
161208 Par ch=1 c=64 v=127
161388 On ch=1 n=c6 v=0
161408 On ch=1 n=g#5 v=0
161496 On ch=1 n=c6 v=92
161506 On ch=1 n=g#5 v=83
161518 On ch=1 n=g#6 v=96
161800 On ch=1 n=f#5 v=0
161812 On ch=1 n=e5 v=0
161932 On ch=1 n=f#5 v=94
161948 On ch=1 n=d5 v=78
161962 On ch=1 n=f#6 v=91
161992 On ch=1 n=g#5 v=0
162016 On ch=1 n=c6 v=0
162034 On ch=1 n=g#6 v=0
162156 On ch=1 n=c7 v=0
162386 On ch=1 n=g#5 v=79
162388 On ch=1 n=c6 v=79
162396 On ch=1 n=g#6 v=91
162474 On ch=1 n=f#6 v=0
162692 On ch=1 n=g#6 v=0
162766 On ch=1 n=d5 v=0
162778 On ch=1 n=c6 v=0
162782 On ch=1 n=g#5 v=0
162798 On ch=1 n=f#5 v=0
162836 On ch=1 n=b6 v=93
162850 On ch=1 n=b5 v=79
163148 On ch=1 n=b5 v=0
163384 On ch=1 n=g#5 v=71
163386 On ch=1 n=c6 v=73
163398 On ch=1 n=g#6 v=83
163450 On ch=1 n=b6 v=0
163550 On ch=1 n=g#6 v=0
163572 On ch=1 n=g#5 v=0
163638 On ch=1 n=c6 v=0
163988 On ch=1 n=a6 v=96
163994 On ch=1 n=f#5 v=63
164004 On ch=1 n=f#6 v=74
164004 On ch=1 n=a5 v=62
164026 On ch=1 n=d5 v=37
164182 Par ch=1 c=64 v=63
164244 Par ch=1 c=64 v=127
164486 On ch=1 n=a5 v=0
164540 On ch=1 n=a6 v=0
164698 On ch=1 n=g#5 v=43
164718 On ch=1 n=g#6 v=39
164718 On ch=1 n=c6 v=32
164768 On ch=1 n=f#6 v=0
164952 On ch=1 n=g#6 v=0
165036 On ch=1 n=d5 v=0
165120 On ch=1 n=c6 v=0
165238 On ch=1 n=g#5 v=0
165282 On ch=1 n=f#5 v=0
165492 On ch=1 n=g#6 v=91
165500 On ch=1 n=g#5 v=60
165536 On ch=1 n=c#5 v=52
165564 Par ch=1 c=64 v=63
165616 Par ch=1 c=64 v=127
165746 On ch=1 n=a5 v=69
165858 On ch=1 n=a5 v=0
165868 On ch=1 n=g#5 v=0
165898 On ch=1 n=c#6 v=55
165922 On ch=1 n=g#6 v=0
165976 On ch=1 n=a5 v=60
166004 On ch=1 n=c#6 v=0
166096 On ch=1 n=a5 v=0
166120 On ch=1 n=c#5 v=0
166122 On ch=1 n=f#6 v=105
166148 On ch=1 n=f#5 v=69
166262 On ch=1 n=f#5 v=0
166330 On ch=1 n=c#6 v=79
166380 On ch=1 n=f#6 v=0
166418 On ch=1 n=a5 v=60
166442 On ch=1 n=c#6 v=0
166488 On ch=1 n=a5 v=0
166576 On ch=1 n=c#5 v=72
166580 On ch=1 n=g#5 v=70
166582 On ch=1 n=c#6 v=101
166646 Par ch=1 c=64 v=63
166666 On ch=1 n=g#5 v=0
166674 Par ch=1 c=64 v=127
166714 On ch=1 n=e5 v=40
166826 On ch=1 n=e5 v=0
166836 On ch=1 n=g#5 v=76
166914 On ch=1 n=e5 v=59
166962 On ch=1 n=g#5 v=0
167002 On ch=1 n=e5 v=0
167032 On ch=1 n=g#5 v=71
167094 On ch=1 n=c#6 v=0
167096 On ch=1 n=g#5 v=0
167130 On ch=1 n=e5 v=55
167222 On ch=1 n=e5 v=0
167230 On ch=1 n=g#5 v=74
167320 On ch=1 n=g#5 v=0
167320 On ch=1 n=e5 v=60
167396 On ch=1 n=g#5 v=79
167398 On ch=1 n=e5 v=0
167440 On ch=1 n=c#5 v=0
167462 On ch=1 n=g#5 v=0
167494 On ch=1 n=e5 v=65
167574 On ch=1 n=g#5 v=78
167584 On ch=1 n=e5 v=0
167664 On ch=1 n=e5 v=70
167676 On ch=1 n=g#5 v=0
167752 On ch=1 n=e5 v=0
167758 On ch=1 n=b5 v=96
167762 On ch=1 n=f#5 v=85
167780 Par ch=1 c=64 v=63
167788 On ch=1 n=b4 v=65
167806 Par ch=1 c=64 v=127
167818 On ch=1 n=f#5 v=0
167866 On ch=1 n=b5 v=0
167866 On ch=1 n=d5 v=83
167944 On ch=1 n=d5 v=0
167968 On ch=1 n=c#6 v=105
167978 On ch=1 n=c#5 v=96
168012 On ch=1 n=b4 v=0
168040 On ch=1 n=d5 v=80
168068 On ch=1 n=c#5 v=0
168106 On ch=1 n=d5 v=0
168130 On ch=1 n=c#6 v=0
168192 On ch=1 n=d6 v=91
168204 On ch=1 n=d5 v=96
168220 On ch=1 n=a5 v=82
168240 Par ch=1 c=64 v=63
168256 Par ch=1 c=64 v=127
168276 On ch=1 n=f#5 v=21
168328 On ch=1 n=a5 v=0
168366 On ch=1 n=f#5 v=0
168380 On ch=1 n=a5 v=32
168438 On ch=1 n=d6 v=0
168440 On ch=1 n=f#5 v=68
168474 On ch=1 n=a5 v=0
168540 On ch=1 n=f#5 v=0
168582 On ch=1 n=e6 v=96
168582 On ch=1 n=e5 v=96
168582 On ch=1 n=b5 v=92
168610 On ch=1 n=d5 v=0
168640 On ch=1 n=b5 v=0
168670 On ch=1 n=e6 v=0
168674 On ch=1 n=g#5 v=79
168764 On ch=1 n=f#5 v=109
168774 On ch=1 n=f#6 v=113
168812 On ch=1 n=e5 v=0
168820 On ch=1 n=g#5 v=0
168882 On ch=1 n=f#6 v=0
168896 On ch=1 n=a5 v=73
168928 On ch=1 n=f#5 v=0
168960 On ch=1 n=g#6 v=112
168962 On ch=1 n=g#5 v=88
168962 Par ch=1 c=64 v=63
168990 On ch=1 n=c#6 v=88
168998 On ch=1 n=a5 v=0
169026 Par ch=1 c=64 v=127
169074 On ch=1 n=a5 v=84
169122 On ch=1 n=c#6 v=0
169180 On ch=1 n=c#6 v=91
169182 On ch=1 n=a5 v=0
169186 On ch=1 n=g#5 v=0
169260 On ch=1 n=g#6 v=0
169260 On ch=1 n=a5 v=79
169308 On ch=1 n=c#6 v=0
169368 On ch=1 n=a5 v=0
169370 On ch=1 n=e5 v=82
169372 On ch=1 n=e6 v=97
169382 On ch=1 n=c#6 v=72
169414 Par ch=1 c=64 v=63
169458 Par ch=1 c=64 v=127
169468 On ch=1 n=c#6 v=0
169476 On ch=1 n=e5 v=0
169480 On ch=1 n=a5 v=79
169518 On ch=1 n=e6 v=0
169590 On ch=1 n=a5 v=0
169592 On ch=1 n=c#6 v=74
169676 On ch=1 n=a5 v=65
169702 On ch=1 n=c#6 v=0
169822 On ch=1 n=a5 v=0
169834 On ch=1 n=g#5 v=52
169836 On ch=1 n=c#6 v=57
169856 On ch=1 n=g#6 v=93
169982 On ch=1 n=c#6 v=0
170022 On ch=1 n=g#5 v=0
170060 On ch=1 n=a5 v=54
170146 On ch=1 n=g#6 v=0
170292 On ch=1 n=c#6 v=48
170300 Par ch=1 c=67 v=127
170388 On ch=1 n=a5 v=0
170516 On ch=1 n=c#6 v=0
170690 On ch=1 n=f#5 v=58
170696 Par ch=1 c=64 v=63
170704 Par ch=1 c=64 v=0
170722 On ch=1 n=c#6 v=45
170750 On ch=1 n=f#6 v=85
170814 Par ch=1 c=64 v=63
170830 Par ch=1 c=64 v=127
170882 On ch=1 n=c#6 v=0
170920 On ch=1 n=a5 v=55
170962 On ch=1 n=f#5 v=0
171016 On ch=1 n=a5 v=0
171030 On ch=1 n=c#6 v=60
171044 On ch=1 n=f#6 v=0
171118 On ch=1 n=a5 v=42
171130 On ch=1 n=c#6 v=0
171182 On ch=1 n=a5 v=0
171280 On ch=1 n=g#5 v=56
171284 On ch=1 n=c#5 v=72
171306 On ch=1 n=c#6 v=88
171312 Par ch=1 c=64 v=63
171350 Par ch=1 c=64 v=127
171352 On ch=1 n=g#5 v=0
171438 On ch=1 n=e5 v=20
171530 On ch=1 n=g#5 v=74
171536 On ch=1 n=e5 v=0
171610 On ch=1 n=c#6 v=0
171634 On ch=1 n=g#5 v=0
171646 On ch=1 n=e5 v=41
171708 On ch=1 n=e5 v=0
171718 On ch=1 n=g#5 v=73
171772 On ch=1 n=g#5 v=0
171818 On ch=1 n=e5 v=55
171830 On ch=1 n=c#5 v=0
171910 On ch=1 n=e5 v=0
171926 On ch=1 n=g#5 v=76
172010 On ch=1 n=g#5 v=0
172012 On ch=1 n=e5 v=54
172084 On ch=1 n=e5 v=0
172090 On ch=1 n=g#5 v=76
172138 On ch=1 n=g#5 v=0
172168 On ch=1 n=e5 v=56
172256 On ch=1 n=g#5 v=80
172270 On ch=1 n=e5 v=0
172356 On ch=1 n=g#5 v=0
172358 On ch=1 n=e5 v=55
172434 On ch=1 n=e5 v=0
172436 On ch=1 n=f#5 v=72
172444 On ch=1 n=b5 v=84
172446 Par ch=1 c=64 v=63
172448 On ch=1 n=b4 v=69
172484 On ch=1 n=f#5 v=0
172494 Par ch=1 c=64 v=127
172528 On ch=1 n=b5 v=0
172544 On ch=1 n=d5 v=77
172602 On ch=1 n=b4 v=0
172620 On ch=1 n=d5 v=0
172632 On ch=1 n=c#5 v=88
172652 On ch=1 n=c#6 v=93
172724 On ch=1 n=d5 v=57
172730 On ch=1 n=c#5 v=0
172772 On ch=1 n=c#6 v=0
172780 On ch=1 n=d5 v=0
172852 On ch=1 n=d6 v=97
172860 On ch=1 n=d5 v=78
172880 On ch=1 n=a5 v=73
172986 On ch=1 n=a5 v=0
173024 On ch=1 n=a5 v=33
173078 On ch=1 n=d6 v=0
173110 On ch=1 n=f#5 v=83
173118 On ch=1 n=a5 v=0
173148 On ch=1 n=f#5 v=0
173200 On ch=1 n=d5 v=0
173222 On ch=1 n=e6 v=100
173228 On ch=1 n=e5 v=98
173234 On ch=1 n=b5 v=87
173298 On ch=1 n=e6 v=0
173322 On ch=1 n=b5 v=0
173328 On ch=1 n=g#5 v=87
173414 On ch=1 n=f#6 v=113
173420 On ch=1 n=f#5 v=105
173432 On ch=1 n=g#5 v=0
173472 On ch=1 n=e5 v=0
173514 On ch=1 n=f#6 v=0
173546 Par ch=1 c=64 v=63
173556 On ch=1 n=a5 v=32
173590 On ch=1 n=f#5 v=0
173594 On ch=1 n=g#6 v=115
173600 On ch=1 n=g#5 v=90
173602 Par ch=1 c=64 v=127
173618 On ch=1 n=a5 v=0
173622 On ch=1 n=c#6 v=93
173712 On ch=1 n=a5 v=85
173728 On ch=1 n=g#5 v=0
173734 On ch=1 n=c#6 v=0
173804 On ch=1 n=c#6 v=88
173808 On ch=1 n=a5 v=0
173858 On ch=1 n=g#6 v=0
173880 On ch=1 n=a5 v=81
173920 On ch=1 n=c#6 v=0
173960 Par ch=1 c=67 v=0
173986 On ch=1 n=a5 v=0
174002 On ch=1 n=f#6 v=105
174008 On ch=1 n=c#6 v=65
174014 On ch=1 n=f#5 v=62
174082 On ch=1 n=c#6 v=0
174088 On ch=1 n=f#5 v=0
174196 On ch=1 n=c#6 v=72
174238 On ch=1 n=a5 v=78
174290 On ch=1 n=c#6 v=0
174314 On ch=1 n=f#5 v=72
174322 On ch=1 n=a5 v=0
174382 On ch=1 n=f#6 v=0
174390 On ch=1 n=a#5 v=63
174504 On ch=1 n=c#7 v=96
174524 On ch=1 n=e6 v=77
174546 Par ch=1 c=64 v=63
174590 Par ch=1 c=64 v=127
174678 On ch=1 n=c#6 v=80
174772 On ch=1 n=c#6 v=0
174788 On ch=1 n=g#6 v=75
174804 On ch=1 n=a#5 v=0
174866 On ch=1 n=c#6 v=78
174890 On ch=1 n=g#6 v=0
174904 On ch=1 n=e6 v=0
174940 On ch=1 n=c#6 v=0
174956 On ch=1 n=a#5 v=94
175048 On ch=1 n=c#6 v=88
175110 On ch=1 n=a#5 v=0
175152 On ch=1 n=c#6 v=0
175164 On ch=1 n=g#6 v=80
175232 On ch=1 n=c#6 v=69
175264 On ch=1 n=c#7 v=0
175268 On ch=1 n=g#6 v=0
175296 On ch=1 n=e6 v=98
175304 On ch=1 n=c#6 v=0
175394 On ch=1 n=c#6 v=95
175420 On ch=1 n=e6 v=0
175486 On ch=1 n=c#6 v=0
175502 On ch=1 n=c#7 v=109
175528 On ch=1 n=g#6 v=80
175570 On ch=1 n=c#6 v=95
175628 On ch=1 n=c#7 v=0
175636 On ch=1 n=g#6 v=0
175640 On ch=1 n=c#6 v=0
175646 On ch=1 n=a#5 v=97
175706 On ch=1 n=f#5 v=0
175706 On ch=1 n=d7 v=100
175708 On ch=1 n=g6 v=92
175748 On ch=1 n=a#5 v=0
175794 On ch=1 n=d7 v=0
175810 On ch=1 n=e6 v=82
175854 On ch=1 n=g6 v=0
175886 On ch=1 n=e6 v=0
175900 On ch=1 n=e7 v=106
175992 On ch=1 n=e7 v=0
176014 On ch=1 n=e6 v=83
176092 On ch=1 n=e6 v=0
176124 On ch=1 n=g#5 v=72
176142 On ch=1 n=e5 v=66
176154 On ch=1 n=c#7 v=105
176156 On ch=1 n=d6 v=69
176176 Par ch=1 c=64 v=63
176260 Par ch=1 c=64 v=127
176308 On ch=1 n=c#6 v=80
176396 On ch=1 n=c#6 v=0
176410 On ch=1 n=c#7 v=0
176414 On ch=1 n=f#6 v=61
176420 On ch=1 n=d6 v=0
176460 On ch=1 n=c#6 v=77
176462 On ch=1 n=f#6 v=0
176516 On ch=1 n=c#6 v=0
176566 On ch=1 n=d6 v=84
176568 On ch=1 n=b6 v=89
176586 On ch=1 n=e6 v=73
176632 On ch=1 n=e5 v=0
176632 On ch=1 n=g#5 v=0
176636 On ch=1 n=d6 v=0
176658 On ch=1 n=b6 v=0
176696 On ch=1 n=b5 v=51
176700 On ch=1 n=e6 v=0
176748 On ch=1 n=b5 v=0
176760 On ch=1 n=g#6 v=104
176836 On ch=1 n=b5 v=67
176860 On ch=1 n=g#6 v=0
176880 On ch=1 n=b5 v=0
176932 Par ch=1 c=64 v=63
176948 On ch=1 n=f#6 v=101
176958 On ch=1 n=b4 v=84
176962 On ch=1 n=d#5 v=94
176966 On ch=1 n=a5 v=82
176992 Par ch=1 c=64 v=127
177038 On ch=1 n=d#5 v=0
177042 On ch=1 n=b4 v=0
177056 On ch=1 n=f#5 v=94
177068 On ch=1 n=a5 v=0
177124 On ch=1 n=f#5 v=0
177158 On ch=1 n=c#6 v=79
177186 On ch=1 n=f#6 v=0
177214 On ch=1 n=f#5 v=85
177240 On ch=1 n=c#6 v=0
177286 On ch=1 n=f#5 v=0
177320 Par ch=1 c=64 v=63
177324 On ch=1 n=d5 v=83
177326 On ch=1 n=a6 v=109
177360 On ch=1 n=f#5 v=64
177364 Par ch=1 c=64 v=127
177414 On ch=1 n=f#5 v=0
177428 On ch=1 n=d5 v=0
177428 On ch=1 n=a5 v=74
177434 On ch=1 n=a6 v=0
177510 On ch=1 n=e6 v=85
177518 On ch=1 n=a5 v=0
177574 On ch=1 n=a5 v=57
177636 On ch=1 n=e6 v=0
177644 On ch=1 n=a5 v=0
177680 On ch=1 n=a#5 v=72
177704 On ch=1 n=f#5 v=85
177738 On ch=1 n=c#7 v=114
177748 Par ch=1 c=64 v=63
177756 On ch=1 n=e6 v=94
177762 Par ch=1 c=64 v=0
177806 Par ch=1 c=64 v=63
177838 On ch=1 n=c#6 v=92
177840 Par ch=1 c=64 v=127
177952 On ch=1 n=c#6 v=0
177954 On ch=1 n=g#6 v=85
178028 On ch=1 n=a#5 v=0
178036 On ch=1 n=c#6 v=91
178080 On ch=1 n=g#6 v=0
178116 On ch=1 n=c#6 v=0
178122 On ch=1 n=a#5 v=107
178164 On ch=1 n=e6 v=0
178228 On ch=1 n=c#6 v=101
178336 On ch=1 n=g#6 v=92
178338 On ch=1 n=c#6 v=0
178424 On ch=1 n=c#6 v=93
178432 On ch=1 n=c#7 v=0
178468 On ch=1 n=g#6 v=0
178476 On ch=1 n=e6 v=106
178510 On ch=1 n=c#6 v=0
178522 On ch=1 n=a#5 v=0
178582 On ch=1 n=c#6 v=87
178622 On ch=1 n=e6 v=0
178682 On ch=1 n=c#7 v=110
178704 On ch=1 n=g#6 v=90
178826 On ch=1 n=g#6 v=0
178826 On ch=1 n=c#7 v=0
178846 On ch=1 n=c#6 v=0
178874 On ch=1 n=a#5 v=106
178892 On ch=1 n=f#5 v=0
178894 On ch=1 n=g6 v=88
178910 On ch=1 n=d7 v=78
178980 On ch=1 n=a#5 v=0
179006 On ch=1 n=d7 v=0
179024 On ch=1 n=e6 v=78
179084 On ch=1 n=g6 v=0
179100 On ch=1 n=e6 v=0
179118 On ch=1 n=e7 v=97
179168 On ch=1 n=g6 v=25
179216 On ch=1 n=e7 v=0
179244 On ch=1 n=e6 v=64
179258 On ch=1 n=g6 v=0
179322 On ch=1 n=e6 v=0
179394 On ch=1 n=g#5 v=67
179418 On ch=1 n=e5 v=52
179420 Par ch=1 c=64 v=63
179428 On ch=1 n=c#7 v=91
179432 On ch=1 n=d6 v=57
179464 On ch=1 n=f#6 v=61
179464 Par ch=1 c=64 v=127
179526 On ch=1 n=c#7 v=0
179546 On ch=1 n=c#6 v=84
179576 On ch=1 n=f#6 v=0
179616 On ch=1 n=c#6 v=0
179638 On ch=1 n=d6 v=0
179670 On ch=1 n=b6 v=85
179684 On ch=1 n=e6 v=86
179698 On ch=1 n=g#5 v=0
179742 On ch=1 n=b6 v=0
179752 On ch=1 n=b5 v=70
179792 On ch=1 n=e6 v=0
179810 On ch=1 n=b5 v=0
179866 On ch=1 n=c#7 v=112
179876 On ch=1 n=f#6 v=97
179884 On ch=1 n=d6 v=84
179936 On ch=1 n=e5 v=0
179938 On ch=1 n=c#7 v=0
179946 On ch=1 n=d6 v=0
179982 On ch=1 n=c#6 v=96
180000 On ch=1 n=f#6 v=0
180038 On ch=1 n=c#6 v=0
180092 On ch=1 n=g#6 v=99
180194 On ch=1 n=g#5 v=93
180212 On ch=1 n=g#6 v=0
180260 On ch=1 n=g#5 v=0
180268 Par ch=1 c=64 v=63
180294 On ch=1 n=b4 v=83
180298 On ch=1 n=a5 v=93
180298 On ch=1 n=d#5 v=98
180340 Par ch=1 c=64 v=127
180390 On ch=1 n=b4 v=0
180400 On ch=1 n=d#5 v=0
180414 On ch=1 n=f#5 v=100
180448 On ch=1 n=a5 v=0
180492 On ch=1 n=f#5 v=0
180510 On ch=1 n=f#6 v=98
180522 On ch=1 n=c#6 v=82
180564 On ch=1 n=f#5 v=98
180604 On ch=1 n=f#6 v=0
180620 On ch=1 n=c#6 v=0
180660 On ch=1 n=f#5 v=0
180676 On ch=1 n=d5 v=94
180684 Par ch=1 c=64 v=63
180686 On ch=1 n=c6 v=104
180690 On ch=1 n=f#5 v=94
180726 Par ch=1 c=64 v=127
180774 On ch=1 n=a5 v=96
180806 On ch=1 n=f#5 v=0
180814 On ch=1 n=d5 v=0
180864 On ch=1 n=a5 v=0
180886 On ch=1 n=a6 v=88
180890 On ch=1 n=c6 v=0
180890 On ch=1 n=e6 v=80
180958 On ch=1 n=a5 v=82
180960 On ch=1 n=a6 v=0
180990 On ch=1 n=e6 v=0
181016 On ch=1 n=e5 v=84
181032 On ch=1 n=a5 v=0
181036 Par ch=1 c=64 v=63
181054 On ch=1 n=g#5 v=88
181062 Par ch=1 c=64 v=0
181094 Par ch=1 c=64 v=63
181098 On ch=1 n=d6 v=93
181138 Par ch=1 c=64 v=127
181194 On ch=1 n=c#6 v=105
181290 On ch=1 n=c#7 v=108
181298 On ch=1 n=f#6 v=89
181312 On ch=1 n=c#6 v=0
181364 On ch=1 n=c#6 v=94
181398 On ch=1 n=c#7 v=0
181416 On ch=1 n=f#6 v=0
181444 On ch=1 n=c#6 v=0
181460 Par ch=1 c=64 v=63
181486 On ch=1 n=e6 v=92
181488 On ch=1 n=d6 v=0
181488 On ch=1 n=b6 v=89
181496 Par ch=1 c=64 v=0
181498 On ch=1 n=b5 v=93
181508 Par ch=1 c=64 v=63
181548 Par ch=1 c=64 v=127
181618 On ch=1 n=b5 v=0
181636 On ch=1 n=g#5 v=0
181652 On ch=1 n=e5 v=0
181654 On ch=1 n=b6 v=0
181700 On ch=1 n=g#6 v=101
181740 On ch=1 n=e6 v=0
181794 On ch=1 n=g#6 v=0
181886 Par ch=1 c=64 v=63
181898 On ch=1 n=b4 v=82
181906 On ch=1 n=d#5 v=99
181912 On ch=1 n=a5 v=93
181922 On ch=1 n=f#6 v=59
181946 Par ch=1 c=64 v=127
181968 On ch=1 n=f#6 v=0
181996 On ch=1 n=b4 v=0
182016 On ch=1 n=d#5 v=0
182016 On ch=1 n=f#5 v=97
182070 On ch=1 n=a5 v=0
182100 On ch=1 n=f#5 v=0
182120 On ch=1 n=f#6 v=93
182134 On ch=1 n=c#6 v=82
182194 On ch=1 n=f#5 v=93
182212 On ch=1 n=f#6 v=0
182244 On ch=1 n=c#6 v=0
182286 On ch=1 n=f#5 v=0
182300 On ch=1 n=d5 v=57
182310 Par ch=1 c=64 v=63
182334 On ch=1 n=f#5 v=96
182350 On ch=1 n=c6 v=86
182402 Par ch=1 c=64 v=127
182444 On ch=1 n=a5 v=89
182508 On ch=1 n=f#5 v=0
182542 On ch=1 n=a5 v=0
182556 On ch=1 n=d5 v=0
182562 On ch=1 n=e6 v=90
182564 On ch=1 n=a6 v=93
182626 On ch=1 n=c6 v=0
182644 On ch=1 n=a5 v=71
182658 On ch=1 n=e6 v=0
182664 On ch=1 n=a6 v=0
182664 On ch=1 n=b5 v=59
182704 On ch=1 n=a5 v=0
182708 On ch=1 n=e5 v=84
182716 On ch=1 n=b5 v=0
182756 On ch=1 n=g#5 v=80
182766 Par ch=1 c=64 v=63
182788 Par ch=1 c=64 v=0
182846 On ch=1 n=d6 v=96
182860 Par ch=1 c=64 v=63
182870 On ch=1 n=c#6 v=101
182890 Par ch=1 c=64 v=127
182950 On ch=1 n=f#6 v=98
182956 On ch=1 n=c#7 v=118
183170 On ch=1 n=c#7 v=0
183180 On ch=1 n=f#6 v=0
183206 On ch=1 n=d6 v=0
183220 On ch=1 n=c#6 v=0
183402 On ch=1 n=b5 v=90
183404 On ch=1 n=b6 v=98
183416 On ch=1 n=e6 v=89
183474 On ch=1 n=e5 v=0
183480 On ch=1 n=b5 v=0
183484 On ch=1 n=g#5 v=0
183554 On ch=1 n=e6 v=0
183576 On ch=1 n=g#6 v=97
183588 On ch=1 n=b6 v=0
183672 On ch=1 n=g#6 v=0
183732 On ch=1 n=b4 v=72
183768 On ch=1 n=d#5 v=71
183824 Par ch=1 c=64 v=63
183834 On ch=1 n=a5 v=84
183836 Par ch=1 c=64 v=0
183854 On ch=1 n=g#5 v=88
183888 On ch=1 n=c#6 v=87
183888 Par ch=1 c=64 v=63
183912 On ch=1 n=g#6 v=101
183924 Par ch=1 c=64 v=127
184072 On ch=1 n=g#6 v=0
184074 On ch=1 n=c#6 v=0
184142 On ch=1 n=g#5 v=0
184152 On ch=1 n=a5 v=0
184226 On ch=1 n=b4 v=0
184252 On ch=1 n=d#5 v=0
184312 On ch=1 n=f#6 v=87
184312 On ch=1 n=b5 v=78
184314 On ch=1 n=f#5 v=80
184492 On ch=1 n=f#6 v=0
184494 On ch=1 n=d#6 v=96
184530 On ch=1 n=b5 v=0
184540 On ch=1 n=f#5 v=0
184604 On ch=1 n=g#4 v=63
184622 On ch=1 n=d#6 v=0
184678 On ch=1 n=c5 v=57
184740 On ch=1 n=d#5 v=76
184744 On ch=1 n=f#5 v=80
184772 Par ch=1 c=64 v=63
184772 On ch=1 n=d#6 v=93
184774 On ch=1 n=a#5 v=75
184784 Par ch=1 c=64 v=0
184848 Par ch=1 c=64 v=63
184878 Par ch=1 c=64 v=127
185030 On ch=1 n=a#5 v=0
185032 On ch=1 n=f#5 v=0
185052 On ch=1 n=c5 v=0
185060 On ch=1 n=d#6 v=0
185082 On ch=1 n=d#5 v=0
185284 On ch=1 n=g#5 v=65
185292 On ch=1 n=c6 v=82
185316 On ch=1 n=c5 v=57
185432 On ch=1 n=c5 v=0
185484 On ch=1 n=g#4 v=0
185552 On ch=1 n=a#5 v=87
185576 On ch=1 n=c6 v=0
185578 On ch=1 n=g#5 v=0
185630 On ch=1 n=a#5 v=0
185794 On ch=1 n=c#4 v=61
185904 On ch=1 n=f4 v=38
185908 On ch=1 n=b4 v=65
185912 On ch=1 n=d#5 v=70
185940 On ch=1 n=a#5 v=88
185970 Par ch=1 c=64 v=63
185992 Par ch=1 c=64 v=0
186016 Par ch=1 c=64 v=63
186068 Par ch=1 c=64 v=127
186534 On ch=1 n=a#5 v=0
186640 On ch=1 n=g#5 v=70
186644 On ch=1 n=b4 v=0
186920 On ch=1 n=d#5 v=0
187034 On ch=1 n=f4 v=0
187084 On ch=1 n=f5 v=64
187088 On ch=1 n=g#5 v=0
187112 On ch=1 n=c#4 v=0
187268 On ch=1 n=f5 v=0
187716 On ch=1 n=g#5 v=52
188048 Par ch=1 c=64 v=63
188066 Par ch=1 c=64 v=127
188638 On ch=1 n=d#5 v=54
188666 On ch=1 n=b3 v=32
188670 On ch=1 n=f#4 v=26
188790 Par ch=1 c=64 v=63
188806 Par ch=1 c=64 v=127
189090 On ch=1 n=f#4 v=0
189140 On ch=1 n=b3 v=0
189232 On ch=1 n=d5 v=52
189252 On ch=1 n=a#3 v=43
189256 On ch=1 n=d#5 v=0
189258 On ch=1 n=f4 v=17
189522 On ch=1 n=f4 v=0
189702 On ch=1 n=d5 v=0
189726 On ch=1 n=f5 v=50
189746 On ch=1 n=c#4 v=46
189750 On ch=1 n=a#3 v=0
189756 On ch=1 n=g#4 v=28
189950 On ch=1 n=a#5 v=66
189954 On ch=1 n=f5 v=0
190004 On ch=1 n=g#5 v=0
190026 On ch=1 n=g#4 v=0
190064 On ch=1 n=c#4 v=0
190208 On ch=1 n=g#5 v=82
190234 On ch=1 n=a#5 v=0
190650 On ch=1 n=f#4 v=47
190662 On ch=1 n=d#5 v=70
190680 On ch=1 n=b3 v=43
190718 Par ch=1 c=64 v=63
190820 Par ch=1 c=64 v=127
190986 On ch=1 n=f#4 v=0
191064 On ch=1 n=b3 v=0
191082 On ch=1 n=d5 v=61
191086 On ch=1 n=d#5 v=0
191086 On ch=1 n=a#3 v=35
191092 On ch=1 n=f4 v=39
191164 Par ch=1 c=64 v=63
191204 Par ch=1 c=64 v=127
191316 On ch=1 n=f4 v=0
191554 On ch=1 n=f5 v=52
191558 On ch=1 n=g#4 v=36
191558 On ch=1 n=c#4 v=49
191570 On ch=1 n=a#3 v=0
191590 Par ch=1 c=64 v=63
191602 On ch=1 n=d5 v=0
191696 Par ch=1 c=64 v=127
191768 On ch=1 n=a#5 v=59
191790 On ch=1 n=f5 v=0
191844 On ch=1 n=g#5 v=0
191878 On ch=1 n=g#4 v=0
191900 On ch=1 n=c#4 v=0
192030 On ch=1 n=g#5 v=67
192072 On ch=1 n=a#5 v=0
192234 Par ch=1 c=64 v=63
192292 Par ch=1 c=64 v=0
192596 On ch=1 n=f#4 v=35
192602 Par ch=1 c=64 v=63
192608 On ch=1 n=d#5 v=67
192612 On ch=1 n=b3 v=39
192622 Par ch=1 c=64 v=127
192884 On ch=1 n=f#4 v=0
192944 On ch=1 n=b3 v=0
193038 On ch=1 n=d#5 v=0
193070 On ch=1 n=d5 v=76
193086 On ch=1 n=f4 v=50
193094 On ch=1 n=a#3 v=44
193194 On ch=1 n=g#5 v=0
193288 On ch=1 n=d5 v=0
193306 On ch=1 n=a#5 v=72
193530 On ch=1 n=a#5 v=0
193570 On ch=1 n=c#6 v=74
193584 On ch=1 n=c#5 v=38
193710 Par ch=1 c=64 v=63
193800 On ch=1 n=a#5 v=82
193854 Par ch=1 c=64 v=127
193866 On ch=1 n=c#6 v=0
193958 On ch=1 n=a#3 v=0
193986 On ch=1 n=f4 v=0
194044 On ch=1 n=f#5 v=90
194060 On ch=1 n=a#5 v=0
194124 Par ch=1 c=64 v=63
194148 Par ch=1 c=64 v=0
194226 Par ch=1 c=64 v=63
194260 Par ch=1 c=64 v=127
194344 On ch=1 n=c#5 v=0
194460 On ch=1 n=f#5 v=0
194502 On ch=1 n=g#5 v=81
194514 On ch=1 n=c5 v=65
194524 On ch=1 n=g#3 v=50
194530 On ch=1 n=d#4 v=59
194688 On ch=1 n=a#5 v=81
194690 Par ch=1 c=64 v=63
194718 Par ch=1 c=64 v=127
194766 On ch=1 n=g#5 v=0
194784 On ch=1 n=c5 v=0
194914 On ch=1 n=a#5 v=0
194934 On ch=1 n=f#5 v=77
194952 On ch=1 n=b4 v=57
195034 Par ch=1 c=64 v=63
195116 Par ch=1 c=64 v=127
195212 On ch=1 n=b4 v=0
195228 On ch=1 n=d#4 v=0
195254 On ch=1 n=g#3 v=0
195366 On ch=1 n=f#5 v=0
195410 On ch=1 n=f5 v=54
195418 On ch=1 n=a#4 v=44
195420 On ch=1 n=c#4 v=52
195478 Par ch=1 c=64 v=63
195604 Par ch=1 c=64 v=127
195770 On ch=1 n=a#4 v=0
195798 On ch=1 n=f5 v=0
195848 On ch=1 n=c#4 v=0
196098 On ch=1 n=g#5 v=62
196248 Par ch=1 c=64 v=63
196316 Par ch=1 c=64 v=0
196628 Par ch=1 c=64 v=63
196680 Par ch=1 c=64 v=127
196732 On ch=1 n=d#5 v=65
196752 On ch=1 n=f#4 v=26
196764 On ch=1 n=b3 v=37
196992 On ch=1 n=f#4 v=0
197048 On ch=1 n=b3 v=0
197086 On ch=1 n=d#5 v=0
197230 On ch=1 n=d5 v=61
197242 On ch=1 n=a#3 v=37
197244 On ch=1 n=f4 v=25
197246 On ch=1 n=g#5 v=0
197426 On ch=1 n=d5 v=0
197430 On ch=1 n=a#5 v=66
197632 On ch=1 n=a#5 v=0
197662 On ch=1 n=c#6 v=42
197682 On ch=1 n=c#5 v=30
197738 Par ch=1 c=64 v=63
197888 On ch=1 n=a#5 v=69
197894 Par ch=1 c=64 v=127
198032 On ch=1 n=c#6 v=0
198056 On ch=1 n=a#3 v=0
198062 On ch=1 n=f4 v=0
198086 On ch=1 n=a#5 v=0
198132 On ch=1 n=f#5 v=68
198248 Par ch=1 c=64 v=63
198280 Par ch=1 c=64 v=127
198428 On ch=1 n=c#5 v=0
198500 On ch=1 n=f#5 v=0
198602 On ch=1 n=g#5 v=65
198622 On ch=1 n=c5 v=40
198636 On ch=1 n=d#4 v=42
198640 On ch=1 n=g#3 v=28
198710 Par ch=1 c=64 v=63
198734 Par ch=1 c=64 v=127
198806 On ch=1 n=a#5 v=72
198820 On ch=1 n=g#5 v=0
198928 On ch=1 n=c5 v=0
199046 On ch=1 n=a#5 v=0
199070 On ch=1 n=f#5 v=73
199106 On ch=1 n=b4 v=40
199172 Par ch=1 c=64 v=63
199212 Par ch=1 c=64 v=127
199346 On ch=1 n=b4 v=0
199384 On ch=1 n=g#3 v=0
199400 On ch=1 n=d#4 v=0
199516 On ch=1 n=f#5 v=0
199614 On ch=1 n=c#4 v=46
199628 On ch=1 n=a#4 v=23
199634 On ch=1 n=f5 v=55
199682 Par ch=1 c=64 v=63
199718 Par ch=1 c=64 v=127
199872 On ch=1 n=f5 v=0
199988 On ch=1 n=a#4 v=0
200004 On ch=1 n=c#4 v=0
200220 On ch=1 n=d#5 v=56
200332 Par ch=1 c=64 v=63
200404 Par ch=1 c=64 v=0
200428 Par ch=1 c=64 v=63
200498 Par ch=1 c=64 v=127
200914 On ch=1 n=f#4 v=32
200936 On ch=1 n=g#2 v=28
200938 On ch=1 n=b4 v=35
200948 On ch=1 n=g#3 v=19
201284 On ch=1 n=b4 v=0
201288 On ch=1 n=f#4 v=0
201330 On ch=1 n=g#3 v=0
201334 On ch=1 n=g#2 v=0
201390 On ch=1 n=d#5 v=0
201760 On ch=1 n=c#5 v=40
201842 Par ch=1 c=64 v=63
201926 Par ch=1 c=64 v=127
202402 Par ch=1 c=67 v=127
202948 On ch=1 n=a#4 v=18
202962 On ch=1 n=a#3 v=20
202968 On ch=1 n=f4 v=15
202976 On ch=1 n=a#2 v=20
203152 Par ch=1 c=64 v=63
203208 Par ch=1 c=64 v=127
203492 On ch=1 n=a#2 v=0
203594 On ch=1 n=f4 v=0
203602 On ch=1 n=a#3 v=0
203726 On ch=1 n=a#4 v=0
203816 On ch=1 n=c#5 v=0
204616 On ch=1 n=f#6 v=58
204616 On ch=1 n=d#5 v=40
204682 Par ch=1 c=64 v=63
204764 Par ch=1 c=64 v=127
205114 On ch=1 n=f#6 v=0
205304 On ch=1 n=d#5 v=0
205352 On ch=1 n=f6 v=62
205374 On ch=1 n=d#4 v=34
205390 On ch=1 n=f#5 v=17
205416 On ch=1 n=c5 v=34
205660 On ch=1 n=f6 v=0
205660 On ch=1 n=c#6 v=68
205940 On ch=1 n=c#5 v=34
205948 On ch=1 n=a#5 v=67
206000 On ch=1 n=c#6 v=0
206030 On ch=1 n=c5 v=0
206042 Par ch=1 c=64 v=63
206136 On ch=1 n=d#4 v=0
206144 Par ch=1 c=64 v=127
206398 On ch=1 n=f#5 v=0
206476 On ch=1 n=f5 v=42
206480 On ch=1 n=a#4 v=35
206494 On ch=1 n=d#4 v=26
206614 On ch=1 n=c#5 v=0
206794 On ch=1 n=f5 v=0
207056 On ch=1 n=a#5 v=0
207126 On ch=1 n=f#6 v=73
207140 On ch=1 n=d#5 v=36
207190 On ch=1 n=a#4 v=0
207202 Par ch=1 c=64 v=63
207236 On ch=1 n=d#4 v=0
207304 Par ch=1 c=64 v=127
207480 On ch=1 n=f#6 v=0
207658 On ch=1 n=f#5 v=60
207660 On ch=1 n=f6 v=70
207664 On ch=1 n=d#4 v=35
207672 On ch=1 n=d#5 v=0
207692 On ch=1 n=c5 v=38
207898 On ch=1 n=c#6 v=78
207906 On ch=1 n=f6 v=0
208142 On ch=1 n=c#5 v=35
208168 On ch=1 n=a#5 v=69
208178 Par ch=1 c=64 v=63
208228 On ch=1 n=c#6 v=0
208236 On ch=1 n=c5 v=0
208270 Par ch=1 c=64 v=127
208306 On ch=1 n=d#4 v=0
208602 On ch=1 n=f#5 v=0
208662 On ch=1 n=a#4 v=35
208670 On ch=1 n=d#4 v=39
208672 On ch=1 n=f5 v=47
208850 On ch=1 n=c#5 v=0
208968 On ch=1 n=f5 v=0
209082 On ch=1 n=a#5 v=0
209264 Par ch=1 c=64 v=63
209280 On ch=1 n=d#4 v=0
209284 On ch=1 n=f#6 v=67
209286 On ch=1 n=d#5 v=35
209318 On ch=1 n=a#4 v=0
209368 Par ch=1 c=64 v=127
209648 On ch=1 n=f#6 v=0
209874 On ch=1 n=d#4 v=19
209876 On ch=1 n=f6 v=58
209898 On ch=1 n=f#5 v=31
209914 On ch=1 n=c5 v=31
209926 On ch=1 n=d#5 v=0
210142 On ch=1 n=f6 v=0
210168 On ch=1 n=c#6 v=63
210486 On ch=1 n=c#6 v=0
210496 On ch=1 n=a#5 v=51
210500 On ch=1 n=c#5 v=26
210586 On ch=1 n=c5 v=0
210618 Par ch=1 c=64 v=63
210720 Par ch=1 c=64 v=127
210724 On ch=1 n=d#4 v=0
210970 On ch=1 n=a#5 v=0
211054 On ch=1 n=f#5 v=0
211268 On ch=1 n=a#4 v=34
211276 On ch=1 n=c#6 v=61
211296 On ch=1 n=d#4 v=32
211298 On ch=1 n=f5 v=24
211354 Par ch=1 c=64 v=63
211368 On ch=1 n=c#5 v=0
211388 Par ch=1 c=64 v=127
211574 On ch=1 n=f5 v=0
211578 On ch=1 n=a#4 v=0
211620 On ch=1 n=d#4 v=0
211710 On ch=1 n=c#6 v=0
212256 On ch=1 n=c#3 v=44
212296 On ch=1 n=g#3 v=47
212348 On ch=1 n=b4 v=34
212358 On ch=1 n=f5 v=34
212406 Par ch=1 c=64 v=63
212484 On ch=1 n=d#4 v=5
212500 Par ch=1 c=64 v=127
212652 On ch=1 n=c#3 v=0
212704 On ch=1 n=g#3 v=0
212794 On ch=1 n=d#4 v=0
213384 On ch=1 n=c#6 v=38
213390 On ch=1 n=b5 v=56
213518 On ch=1 n=c#6 v=0
213528 On ch=1 n=b5 v=0
213876 On ch=1 n=b4 v=0
214078 On ch=1 n=f5 v=0
214930 On ch=1 n=a#5 v=27
214940 On ch=1 n=d#5 v=47
214976 On ch=1 n=c#5 v=8
214982 On ch=1 n=b4 v=20
214994 On ch=1 n=f4 v=19
216754 On ch=1 n=c#5 v=0
216776 On ch=1 n=b4 v=0
216820 On ch=1 n=f4 v=0
217076 On ch=1 n=a#5 v=0
217126 On ch=1 n=d#5 v=0
218032 Par ch=1 c=64 v=63
218048 On ch=1 n=c#4 v=37
218060 On ch=1 n=f#5 v=54
218060 On ch=1 n=f#3 v=45
218064 On ch=1 n=a#4 v=32
218182 Par ch=1 c=64 v=127
218340 On ch=1 n=f#3 v=0
218346 On ch=1 n=c#4 v=0
218366 On ch=1 n=a#4 v=0
218390 On ch=1 n=f#5 v=0
218746 On ch=1 n=c#5 v=63
218758 On ch=1 n=b3 v=31
218768 On ch=1 n=b4 v=51
218770 Par ch=1 c=64 v=63
218774 On ch=1 n=e3 v=36
218776 On ch=1 n=g#4 v=30
218852 Par ch=1 c=64 v=127
218928 On ch=1 n=e3 v=0
218940 On ch=1 n=b3 v=0
219148 On ch=1 n=g#4 v=0
219470 On ch=1 n=c#6 v=58
219482 On ch=1 n=b5 v=59
219574 On ch=1 n=c#6 v=0
219580 On ch=1 n=b5 v=0
220576 On ch=1 n=b4 v=0
220596 On ch=1 n=c#5 v=0
220970 On ch=1 n=c#4 v=52
220976 On ch=1 n=f#5 v=75
220988 On ch=1 n=a#4 v=51
220992 On ch=1 n=f#3 v=44
221068 Par ch=1 c=64 v=63
221096 Par ch=1 c=64 v=127
221236 On ch=1 n=c#4 v=0
221306 On ch=1 n=a#4 v=0
221360 On ch=1 n=f#3 v=0
221484 On ch=1 n=f#5 v=0
221544 On ch=1 n=c#5 v=72
221560 On ch=1 n=b3 v=44
221560 On ch=1 n=g#4 v=52
221566 On ch=1 n=e3 v=54
221574 On ch=1 n=b4 v=63
221598 Par ch=1 c=64 v=63
221672 Par ch=1 c=64 v=127
221760 On ch=1 n=e3 v=0
221770 On ch=1 n=b3 v=0
221908 On ch=1 n=g#4 v=0
222236 On ch=1 n=c#6 v=57
222264 On ch=1 n=b5 v=55
222400 On ch=1 n=c#6 v=0
222410 On ch=1 n=b5 v=0
223416 On ch=1 n=b4 v=0
223470 On ch=1 n=c#5 v=0
223696 On ch=1 n=c#4 v=47
223698 On ch=1 n=a#4 v=58
223700 On ch=1 n=f#5 v=68
223718 On ch=1 n=f#3 v=39
223794 Par ch=1 c=64 v=63
223878 Par ch=1 c=64 v=127
224008 On ch=1 n=c#4 v=0
224052 On ch=1 n=a#4 v=0
224244 On ch=1 n=f#3 v=0
224272 On ch=1 n=f#5 v=0
224284 On ch=1 n=c#5 v=75
224304 On ch=1 n=b3 v=46
224306 On ch=1 n=g#4 v=55
224310 On ch=1 n=e3 v=42
224314 On ch=1 n=b4 v=62
224404 Par ch=1 c=64 v=63
224498 Par ch=1 c=64 v=127
224818 On ch=1 n=b4 v=0
224946 On ch=1 n=b4 v=76
225028 On ch=1 n=c#5 v=0
225212 On ch=1 n=c#5 v=99
225294 On ch=1 n=b4 v=0
225300 On ch=1 n=b3 v=0
225366 On ch=1 n=g#4 v=0
225388 On ch=1 n=c#5 v=0
225510 On ch=1 n=d3 v=54
225522 On ch=1 n=d5 v=84
225540 On ch=1 n=c5 v=74
225544 On ch=1 n=a3 v=35
225550 On ch=1 n=e3 v=0
225554 On ch=1 n=f#4 v=51
225662 Par ch=1 c=64 v=63
225676 Par ch=1 c=64 v=0
225848 Par ch=1 c=64 v=63
225866 Par ch=1 c=64 v=127
226284 On ch=1 n=e5 v=54
226390 On ch=1 n=a3 v=0
226504 On ch=1 n=f#4 v=0
226558 On ch=1 n=d3 v=0
226664 On ch=1 n=f#5 v=56
226756 On ch=1 n=e5 v=0
226764 On ch=1 n=c5 v=0
226778 On ch=1 n=d5 v=0
226962 On ch=1 n=f#5 v=0
227194 On ch=1 n=g#5 v=63
227196 On ch=1 n=c#5 v=49
227202 On ch=1 n=a#4 v=35
227218 On ch=1 n=f#2 v=23
227230 On ch=1 n=c#3 v=38
227328 Par ch=1 c=64 v=63
227352 Par ch=1 c=64 v=0
227398 Par ch=1 c=64 v=63
227442 Par ch=1 c=64 v=127
227620 On ch=1 n=f#2 v=0
227636 On ch=1 n=c#3 v=0
228220 On ch=1 n=c#6 v=32
228230 On ch=1 n=a#5 v=54
229090 On ch=1 n=c#6 v=0
229102 On ch=1 n=a#5 v=0
229480 On ch=1 n=g#5 v=0
229532 On ch=1 n=c#5 v=0
229606 On ch=1 n=a#4 v=0
230146 On ch=1 n=a3 v=29
230152 On ch=1 n=e4 v=29
230152 On ch=1 n=c5 v=43
230152 On ch=1 n=e5 v=54
230158 On ch=1 n=a4 v=25
230186 Par ch=1 c=64 v=63
230250 Par ch=1 c=64 v=127
230492 On ch=1 n=a3 v=0
230500 On ch=1 n=a4 v=0
230514 On ch=1 n=c5 v=0
230674 On ch=1 n=e5 v=0
230720 On ch=1 n=e4 v=0
231042 On ch=1 n=g#5 v=46
231056 On ch=1 n=a#4 v=35
231066 On ch=1 n=c#5 v=56
231070 On ch=1 n=c#4 v=39
231072 On ch=1 n=f#3 v=34
231146 Par ch=1 c=64 v=63
231244 Par ch=1 c=64 v=127
231430 On ch=1 n=f#3 v=0
231434 On ch=1 n=a#4 v=0
231484 On ch=1 n=c#4 v=0
231550 On ch=1 n=c#5 v=0
231694 On ch=1 n=g#5 v=0
232226 On ch=1 n=a#5 v=40
232348 On ch=1 n=c#6 v=42
232536 On ch=1 n=a#6 v=36
232584 On ch=1 n=c#6 v=0
232680 On ch=1 n=c#7 v=39
232834 On ch=1 n=a#6 v=0
233148 On ch=1 n=c#7 v=0
234192 On ch=1 n=a#5 v=0
235456 On ch=1 n=a4 v=14
235542 On ch=1 n=e5 v=19
235572 On ch=1 n=a5 v=23
235604 Par ch=1 c=64 v=63
235612 On ch=1 n=e6 v=52
235628 On ch=1 n=c6 v=27
235650 Par ch=1 c=64 v=0
235710 Par ch=1 c=64 v=63
235752 Par ch=1 c=64 v=127
236030 On ch=1 n=a5 v=0
236202 On ch=1 n=c6 v=0
236224 On ch=1 n=f#6 v=49
236336 On ch=1 n=e6 v=0
236348 On ch=1 n=a4 v=0
236716 On ch=1 n=e5 v=0
236840 On ch=1 n=f#6 v=0
237022 On ch=1 n=f#4 v=35
237112 On ch=1 n=c#5 v=26
237188 On ch=1 n=a#5 v=15
237202 On ch=1 n=c#6 v=44
237242 On ch=1 n=g#6 v=50
237268 Par ch=1 c=64 v=63
237322 Par ch=1 c=64 v=0
237352 Par ch=1 c=64 v=63
237398 Par ch=1 c=64 v=127
238004 On ch=1 n=a#5 v=0
238018 On ch=1 n=f#4 v=0
238056 On ch=1 n=c#5 v=0
238406 On ch=1 n=c#6 v=0
238678 On ch=1 n=g#6 v=0
239370 On ch=1 n=a#6 v=36
239494 On ch=1 n=c#7 v=45
239636 On ch=1 n=a#7 v=34
239724 On ch=1 n=c#7 v=0
239832 On ch=1 n=c#8 v=47
239980 On ch=1 n=a#7 v=0
241160 On ch=1 n=a#6 v=0
244246 On ch=1 n=c#8 v=0
245086 Par ch=1 c=64 v=63
245168 Par ch=1 c=64 v=0
245360 Par ch=1 c=67 v=0
248340 Par ch=1 c=64 v=63
248416 Par ch=1 c=64 v=127
248428 On ch=1 n=g#5 v=31
248428 On ch=1 n=c#6 v=64
248444 On ch=1 n=c#5 v=43
248446 On ch=1 n=f5 v=35
248658 On ch=1 n=f5 v=0
248684 On ch=1 n=c#5 v=0
248698 On ch=1 n=g#5 v=0
248780 On ch=1 n=c#6 v=0
249096 On ch=1 n=g#6 v=91
249124 On ch=1 n=a#5 v=44
249128 On ch=1 n=g#5 v=30
249134 On ch=1 n=c#6 v=61
249146 On ch=1 n=d#5 v=50
249196 Par ch=1 c=64 v=63
249246 Par ch=1 c=64 v=127
249446 On ch=1 n=a#5 v=0
249474 On ch=1 n=g#5 v=0
249484 On ch=1 n=c#6 v=0
249504 On ch=1 n=d#5 v=0
249734 On ch=1 n=c6 v=36
249734 On ch=1 n=c#6 v=56
249740 On ch=1 n=g#5 v=40
249758 On ch=1 n=f5 v=42
249906 On ch=1 n=f5 v=0
249938 On ch=1 n=c6 v=0
249968 On ch=1 n=g#5 v=0
249996 On ch=1 n=g#6 v=0
250018 On ch=1 n=c#6 v=0
250296 On ch=1 n=c#6 v=81
250304 On ch=1 n=g#5 v=63
250334 On ch=1 n=a#5 v=39
250340 On ch=1 n=f#5 v=58
250390 Par ch=1 c=64 v=63
250470 Par ch=1 c=64 v=127
250556 On ch=1 n=f#6 v=97
250560 On ch=1 n=f#5 v=0
250564 On ch=1 n=a#5 v=0
250622 On ch=1 n=c#6 v=0
250668 On ch=1 n=g#5 v=0
250820 On ch=1 n=g#6 v=95
250836 On ch=1 n=c6 v=53
250846 On ch=1 n=f#6 v=0
250850 On ch=1 n=f5 v=43
250850 On ch=1 n=c#6 v=74
250854 On ch=1 n=g#5 v=43
250878 Par ch=1 c=64 v=63
250934 Par ch=1 c=64 v=127
251058 On ch=1 n=c6 v=0
251084 On ch=1 n=f5 v=0
251096 On ch=1 n=g#5 v=0
251120 On ch=1 n=c#6 v=0
251360 On ch=1 n=g#5 v=55
251388 On ch=1 n=c#6 v=70
251388 On ch=1 n=d#5 v=64
251398 On ch=1 n=a#5 v=51
251422 On ch=1 n=g#5 v=0
251446 On ch=1 n=g#6 v=0
251478 On ch=1 n=a#5 v=0
251490 On ch=1 n=c#6 v=0
251514 On ch=1 n=d#5 v=0
251622 On ch=1 n=c#7 v=95
251956 On ch=1 n=c#6 v=50
251962 On ch=1 n=g#5 v=47
251964 On ch=1 n=c#5 v=48
251968 On ch=1 n=f6 v=75
251974 Par ch=1 c=64 v=63
251986 On ch=1 n=f5 v=51
252072 Par ch=1 c=64 v=127
252216 On ch=1 n=c#6 v=0
252230 On ch=1 n=g#5 v=0
252232 On ch=1 n=f5 v=0
252286 On ch=1 n=c#7 v=0
252288 On ch=1 n=f6 v=0
252288 On ch=1 n=c#5 v=0
252488 On ch=1 n=c6 v=68
252496 On ch=1 n=c7 v=96
252500 On ch=1 n=g#5 v=75
252506 On ch=1 n=f6 v=77
252506 On ch=1 n=f5 v=61
252510 On ch=1 n=c5 v=29
252646 On ch=1 n=c7 v=0
252654 On ch=1 n=c6 v=0
252682 On ch=1 n=f5 v=0
252684 On ch=1 n=c5 v=0
252684 On ch=1 n=g#5 v=0
252752 On ch=1 n=c#7 v=106
252804 On ch=1 n=f6 v=0
252948 On ch=1 n=c#7 v=0
253024 On ch=1 n=g#5 v=52
253024 On ch=1 n=a#6 v=100
253026 On ch=1 n=a#5 v=79
253030 On ch=1 n=a#4 v=68
253032 On ch=1 n=f6 v=76
253044 On ch=1 n=f5 v=63
253046 Par ch=1 c=64 v=63
253080 Par ch=1 c=64 v=127
253174 On ch=1 n=a#5 v=0
253182 On ch=1 n=f5 v=0
253206 On ch=1 n=g#5 v=0
253222 On ch=1 n=a#4 v=0
253258 On ch=1 n=c7 v=97
253290 On ch=1 n=a#6 v=0
253306 On ch=1 n=f6 v=0
253362 On ch=1 n=c7 v=0
253544 On ch=1 n=f6 v=88
253562 On ch=1 n=c6 v=64
253562 On ch=1 n=d#5 v=55
253580 On ch=1 n=c5 v=56
253580 On ch=1 n=f4 v=32
253636 Par ch=1 c=64 v=63
253708 Par ch=1 c=64 v=127
253834 On ch=1 n=c6 v=0
253888 On ch=1 n=c5 v=0
253906 On ch=1 n=f6 v=0
253912 On ch=1 n=d#5 v=0
253926 On ch=1 n=f4 v=0
254124 On ch=1 n=d#5 v=58
254126 On ch=1 n=g#6 v=92
254138 On ch=1 n=g#5 v=65
254154 On ch=1 n=g#4 v=52
254158 On ch=1 n=d#6 v=70
254170 On ch=1 n=c5 v=41
254176 Par ch=1 c=64 v=63
254196 Par ch=1 c=64 v=0
254220 Par ch=1 c=64 v=63
254256 Par ch=1 c=64 v=127
254284 On ch=1 n=d#5 v=0
254296 On ch=1 n=c5 v=0
254346 On ch=1 n=g#4 v=0
254724 On ch=1 n=f3 v=70
254964 On ch=1 n=g#5 v=0
254998 On ch=1 n=g#6 v=0
255030 On ch=1 n=d#6 v=0
255060 On ch=1 n=f3 v=0
255384 On ch=1 n=a#6 v=84
255400 On ch=1 n=a#5 v=53
255402 On ch=1 n=c#6 v=74
255426 Par ch=1 c=64 v=63
255438 On ch=1 n=a#2 v=44
255442 Par ch=1 c=64 v=0
255518 Par ch=1 c=64 v=63
255540 Par ch=1 c=64 v=127
255694 On ch=1 n=a#2 v=0
255790 On ch=1 n=a#6 v=0
256102 On ch=1 n=f6 v=68
256114 On ch=1 n=f5 v=68
256182 On ch=1 n=a#5 v=0
256184 On ch=1 n=f5 v=0
256688 On ch=1 n=g#6 v=80
256698 On ch=1 n=g#5 v=49
256716 On ch=1 n=f6 v=0
256740 On ch=1 n=c#6 v=0
257208 Par ch=1 c=64 v=63
257210 On ch=1 n=g#3 v=55
257232 Par ch=1 c=64 v=0
257236 On ch=1 n=c#3 v=55
257238 On ch=1 n=c6 v=71
257280 Par ch=1 c=64 v=63
257316 Par ch=1 c=64 v=127
257396 On ch=1 n=g#6 v=0
257440 On ch=1 n=g#5 v=0
257736 On ch=1 n=c#3 v=0
257750 On ch=1 n=g#3 v=0
257756 On ch=1 n=f6 v=91
257774 On ch=1 n=f5 v=47
257922 On ch=1 n=f6 v=0
257928 On ch=1 n=c6 v=0
257948 On ch=1 n=f5 v=0
258296 On ch=1 n=c6 v=88
258316 On ch=1 n=c5 v=55
258320 On ch=1 n=f3 v=45
258322 On ch=1 n=g#5 v=58
258332 On ch=1 n=g5 v=62
258334 On ch=1 n=c4 v=39
258362 Par ch=1 c=64 v=63
258386 Par ch=1 c=64 v=0
258408 Par ch=1 c=64 v=63
258454 Par ch=1 c=64 v=127
258526 On ch=1 n=f3 v=0
258552 On ch=1 n=g5 v=0
258562 On ch=1 n=c5 v=0
258624 On ch=1 n=g#5 v=0
258692 On ch=1 n=c4 v=0
258840 On ch=1 n=g#5 v=75
258846 On ch=1 n=a#3 v=63
258852 On ch=1 n=f5 v=74
258856 On ch=1 n=g#4 v=58
258862 On ch=1 n=c#5 v=70
258936 Par ch=1 c=64 v=63
258956 Par ch=1 c=64 v=0
259002 Par ch=1 c=64 v=63
259038 Par ch=1 c=64 v=127
259152 On ch=1 n=f5 v=0
259156 On ch=1 n=g#5 v=0
259178 On ch=1 n=c#5 v=0
259258 On ch=1 n=a#3 v=0
259340 On ch=1 n=c6 v=0
259364 On ch=1 n=g#4 v=0
259370 On ch=1 n=a#5 v=92
259606 On ch=1 n=a#5 v=0
259608 On ch=1 n=c6 v=107
259898 On ch=1 n=c#6 v=101
259906 On ch=1 n=c#5 v=70
259938 Par ch=1 c=64 v=63
259940 On ch=1 n=g5 v=55
259940 On ch=1 n=d#4 v=62
259942 On ch=1 n=f5 v=58
259964 On ch=1 n=c6 v=0
260026 Par ch=1 c=64 v=127
260090 On ch=1 n=c#5 v=0
260136 On ch=1 n=d#4 v=0
260170 On ch=1 n=c#6 v=0
260178 On ch=1 n=f5 v=0
260178 On ch=1 n=g5 v=0
260520 On ch=1 n=g6 v=78
260534 On ch=1 n=g#5 v=64
260554 On ch=1 n=c4 v=51
260562 On ch=1 n=g5 v=67
260562 On ch=1 n=f3 v=35
260624 Par ch=1 c=64 v=63
260710 Par ch=1 c=64 v=127
260918 On ch=1 n=g#5 v=0
260926 On ch=1 n=g6 v=0
261122 On ch=1 n=g5 v=0
261130 On ch=1 n=f6 v=83
261160 On ch=1 n=f5 v=24
261238 On ch=1 n=f6 v=0
261276 On ch=1 n=f5 v=0
261682 On ch=1 n=c6 v=80
261702 On ch=1 n=g#5 v=60
261704 On ch=1 n=c5 v=44
261716 On ch=1 n=g5 v=50
261760 On ch=1 n=f3 v=0
261810 On ch=1 n=c4 v=0
261914 On ch=1 n=g5 v=0
261926 On ch=1 n=c5 v=0
262008 On ch=1 n=g#5 v=0
262334 On ch=1 n=a#3 v=56
262336 On ch=1 n=g#5 v=62
262346 On ch=1 n=g#4 v=43
262360 On ch=1 n=c#5 v=52
262364 On ch=1 n=f5 v=59
262426 Par ch=1 c=64 v=63
262442 Par ch=1 c=64 v=0
262556 Par ch=1 c=64 v=63
262570 Par ch=1 c=64 v=127
262770 On ch=1 n=c6 v=0
262774 On ch=1 n=c#5 v=0
262858 On ch=1 n=a#3 v=0
262898 On ch=1 n=a#5 v=82
262916 On ch=1 n=f5 v=0
262930 On ch=1 n=g#4 v=0
262998 On ch=1 n=g#5 v=0
263134 On ch=1 n=c6 v=78
263152 On ch=1 n=a#5 v=0
263418 On ch=1 n=c#5 v=55
263422 Par ch=1 c=64 v=63
263428 On ch=1 n=g5 v=57
263428 On ch=1 n=d#4 v=60
263436 On ch=1 n=f5 v=55
263498 On ch=1 n=c6 v=0
263506 Par ch=1 c=64 v=127
263558 On ch=1 n=c#5 v=0
263634 On ch=1 n=d#4 v=0
263674 On ch=1 n=f5 v=0
263984 On ch=1 n=d#5 v=61
264000 On ch=1 n=g#3 v=45
264002 On ch=1 n=c5 v=44
264008 On ch=1 n=g4 v=38
264010 Par ch=1 c=64 v=63
264034 Par ch=1 c=64 v=0
264096 Par ch=1 c=64 v=63
264130 Par ch=1 c=64 v=127
264330 On ch=1 n=c5 v=0
264462 On ch=1 n=d#5 v=0
264468 On ch=1 n=g#3 v=0
264538 On ch=1 n=g#5 v=80
264548 On ch=1 n=g4 v=0
264582 On ch=1 n=g5 v=0
264762 On ch=1 n=a#5 v=80
264774 On ch=1 n=g#5 v=0
264962 Par ch=1 c=64 v=63
264994 Par ch=1 c=64 v=127
265002 On ch=1 n=c#4 v=68
265008 On ch=1 n=g#5 v=82
265016 On ch=1 n=c5 v=49
265020 On ch=1 n=a#5 v=0
265030 On ch=1 n=f5 v=70
265050 On ch=1 n=c#5 v=52
265112 On ch=1 n=c5 v=0
265150 On ch=1 n=c#4 v=0
265158 On ch=1 n=c#5 v=0
265206 On ch=1 n=f5 v=0
265216 On ch=1 n=g#5 v=0
265238 On ch=1 n=g5 v=76
265266 On ch=1 n=c#5 v=12
265328 On ch=1 n=c#5 v=0
265344 On ch=1 n=g5 v=0
265508 On ch=1 n=f5 v=84
265524 On ch=1 n=g3 v=50
265536 On ch=1 n=c#5 v=73
265538 On ch=1 n=a#4 v=51
265594 Par ch=1 c=64 v=63
265618 Par ch=1 c=64 v=0
265668 Par ch=1 c=64 v=63
265716 Par ch=1 c=64 v=127
265766 On ch=1 n=g5 v=75
265792 On ch=1 n=f5 v=0
265866 On ch=1 n=a#4 v=0
266018 On ch=1 n=g5 v=0
266056 On ch=1 n=d#5 v=82
266068 On ch=1 n=c#5 v=0
266072 On ch=1 n=c5 v=55
266082 On ch=1 n=g3 v=0
266082 On ch=1 n=g4 v=36
266088 On ch=1 n=c4 v=34
266132 Par ch=1 c=64 v=63
266174 Par ch=1 c=64 v=0
266310 Par ch=1 c=64 v=63
266356 Par ch=1 c=64 v=127
266634 On ch=1 n=a#4 v=53
266686 On ch=1 n=c5 v=0
266746 On ch=1 n=g4 v=0
266800 On ch=1 n=a#4 v=0
266916 On ch=1 n=d#5 v=0
267042 On ch=1 n=c4 v=0
267188 On ch=1 n=f5 v=60
267208 On ch=1 n=g#4 v=41
267248 On ch=1 n=c5 v=41
267340 Par ch=1 c=64 v=63
267396 Par ch=1 c=64 v=0
267772 On ch=1 n=c3 v=51
267874 On ch=1 n=c3 v=0
268472 On ch=1 n=f2 v=38
268584 Par ch=1 c=64 v=63
268612 Par ch=1 c=64 v=127
268698 On ch=1 n=f2 v=0
269008 On ch=1 n=c5 v=0
269016 On ch=1 n=g#4 v=0
269070 On ch=1 n=f5 v=0
269502 Par ch=1 c=64 v=63
269508 On ch=1 n=c#6 v=74
269526 On ch=1 n=f5 v=43
269530 On ch=1 n=g#5 v=36
269536 On ch=1 n=c#5 v=54
269602 Par ch=1 c=64 v=0
269688 Par ch=1 c=64 v=63
269730 Par ch=1 c=64 v=127
269858 On ch=1 n=f5 v=0
269880 On ch=1 n=c#5 v=0
269908 On ch=1 n=g#5 v=0
269946 On ch=1 n=c#6 v=0
270216 On ch=1 n=g#6 v=96
270236 On ch=1 n=a#5 v=48
270256 On ch=1 n=d#5 v=51
270258 On ch=1 n=c#6 v=54
270258 On ch=1 n=g#5 v=38
270366 Par ch=1 c=64 v=63
270400 Par ch=1 c=64 v=127
270552 On ch=1 n=a#5 v=0
270642 On ch=1 n=c#6 v=0
270644 On ch=1 n=g#5 v=0
270700 On ch=1 n=d#5 v=0
270832 On ch=1 n=c6 v=57
270834 On ch=1 n=c#6 v=59
270844 On ch=1 n=g#5 v=43
270856 On ch=1 n=f5 v=52
271018 On ch=1 n=f5 v=0
271060 On ch=1 n=g#5 v=0
271080 On ch=1 n=c#6 v=0
271118 On ch=1 n=c6 v=0
271212 On ch=1 n=g#6 v=0
271344 On ch=1 n=c#6 v=90
271362 On ch=1 n=g#5 v=74
271376 On ch=1 n=f#5 v=67
271380 On ch=1 n=a#5 v=50
271404 Par ch=1 c=64 v=63
271518 Par ch=1 c=64 v=127
271590 On ch=1 n=f#6 v=101
271614 On ch=1 n=f#5 v=0
271632 On ch=1 n=a#5 v=0
271652 On ch=1 n=c#6 v=0
271692 On ch=1 n=g#5 v=0
271852 On ch=1 n=g#6 v=96
271866 On ch=1 n=c6 v=55
271882 On ch=1 n=f5 v=55
271882 On ch=1 n=c#6 v=77
271894 On ch=1 n=g#5 v=55
271896 On ch=1 n=f#6 v=0
271908 Par ch=1 c=64 v=63
271990 Par ch=1 c=64 v=127
272116 On ch=1 n=f5 v=0
272120 On ch=1 n=c6 v=0
272140 On ch=1 n=c#6 v=0
272162 On ch=1 n=g#5 v=0
272340 On ch=1 n=g#5 v=90
272358 On ch=1 n=c#6 v=85
272368 On ch=1 n=a#5 v=70
272378 On ch=1 n=d#5 v=70
272412 On ch=1 n=g#5 v=0
272424 On ch=1 n=g#6 v=0
272444 On ch=1 n=a#5 v=0
272464 On ch=1 n=c#6 v=0
272474 On ch=1 n=d#5 v=0
272594 On ch=1 n=c#7 v=103
272948 On ch=1 n=c#6 v=65
272950 On ch=1 n=g#5 v=62
272950 On ch=1 n=c#5 v=46
272972 On ch=1 n=f5 v=62
272984 On ch=1 n=f6 v=61
273000 Par ch=1 c=64 v=63
273028 Par ch=1 c=64 v=0
273098 Par ch=1 c=64 v=63
273126 Par ch=1 c=64 v=127
273290 On ch=1 n=f5 v=0
273312 On ch=1 n=c#6 v=0
273320 On ch=1 n=g#5 v=0
273336 On ch=1 n=f6 v=0
273396 On ch=1 n=c#5 v=0
273480 On ch=1 n=c#7 v=0
273542 On ch=1 n=g#5 v=71
273542 On ch=1 n=c6 v=76
273544 On ch=1 n=c7 v=97
273544 On ch=1 n=c5 v=45
273550 On ch=1 n=f5 v=63
273566 On ch=1 n=f6 v=50
273576 On ch=1 n=g6 v=34
273634 On ch=1 n=g6 v=0
273664 On ch=1 n=f6 v=0
273718 On ch=1 n=c6 v=0
273732 On ch=1 n=c5 v=0
273742 On ch=1 n=g#5 v=0
273780 On ch=1 n=f5 v=0
273794 On ch=1 n=c#7 v=107
273834 On ch=1 n=c7 v=0
273960 On ch=1 n=c#7 v=0
274056 On ch=1 n=a#4 v=76
274062 On ch=1 n=a#6 v=96
274064 On ch=1 n=f6 v=84
274068 On ch=1 n=a#5 v=81
274072 On ch=1 n=g#5 v=65
274078 On ch=1 n=f5 v=56
274216 On ch=1 n=a#5 v=0
274236 On ch=1 n=f5 v=0
274250 On ch=1 n=g#5 v=0
274260 On ch=1 n=a#4 v=0
274270 On ch=1 n=f6 v=0
274292 On ch=1 n=c7 v=100
274312 On ch=1 n=a#6 v=0
274386 On ch=1 n=c7 v=0
274542 On ch=1 n=f6 v=96
274552 On ch=1 n=c6 v=72
274566 On ch=1 n=f4 v=59
274566 On ch=1 n=d#5 v=80
274570 On ch=1 n=c5 v=64
274642 Par ch=1 c=64 v=63
274722 Par ch=1 c=64 v=127
274824 On ch=1 n=c6 v=0
274870 On ch=1 n=c5 v=0
274884 On ch=1 n=d#5 v=0
274910 On ch=1 n=f4 v=0
274946 On ch=1 n=f6 v=0
275100 On ch=1 n=d#5 v=55
275104 On ch=1 n=g#6 v=91
275116 On ch=1 n=g#4 v=53
275122 On ch=1 n=g#5 v=51
275130 On ch=1 n=d#6 v=72
275146 On ch=1 n=c5 v=41
275156 Par ch=1 c=64 v=63
275174 Par ch=1 c=64 v=0
275204 Par ch=1 c=64 v=63
275238 Par ch=1 c=64 v=127
275262 On ch=1 n=d#5 v=0
275284 On ch=1 n=c5 v=0
275346 On ch=1 n=g#4 v=0
275682 On ch=1 n=f3 v=76
275912 On ch=1 n=g#6 v=0
275920 On ch=1 n=g#5 v=0
275988 On ch=1 n=d#6 v=0
276302 On ch=1 n=f3 v=0
276322 On ch=1 n=a#6 v=71
276330 On ch=1 n=a#5 v=48
276332 On ch=1 n=a#2 v=58
276342 On ch=1 n=c#6 v=73
276382 Par ch=1 c=64 v=63
276396 Par ch=1 c=64 v=0
276494 Par ch=1 c=64 v=63
276512 Par ch=1 c=64 v=127
276622 On ch=1 n=a#2 v=0
276928 On ch=1 n=a#6 v=0
276996 On ch=1 n=f6 v=77
277010 On ch=1 n=f5 v=73
277080 On ch=1 n=f5 v=0
277136 On ch=1 n=a#5 v=0
277554 On ch=1 n=g#6 v=90
277566 On ch=1 n=g#5 v=65
277596 On ch=1 n=f6 v=0
277618 On ch=1 n=c#6 v=0
278080 Par ch=1 c=64 v=63
278086 On ch=1 n=c#3 v=67
278088 On ch=1 n=c6 v=65
278094 On ch=1 n=g#3 v=56
278094 Par ch=1 c=64 v=0
278190 Par ch=1 c=64 v=63
278208 Par ch=1 c=64 v=127
278248 On ch=1 n=g#6 v=0
278342 On ch=1 n=g#5 v=0
278604 On ch=1 n=c#3 v=0
278634 On ch=1 n=f6 v=88
278640 On ch=1 n=f5 v=59
278646 On ch=1 n=g#3 v=0
278766 On ch=1 n=f6 v=0
278780 On ch=1 n=c6 v=0
278788 On ch=1 n=f5 v=0
279124 On ch=1 n=c6 v=79
279146 On ch=1 n=c5 v=51
279148 On ch=1 n=g#5 v=64
279160 On ch=1 n=f3 v=39
279170 On ch=1 n=g5 v=41
279174 On ch=1 n=c4 v=35
279184 Par ch=1 c=64 v=63
279196 Par ch=1 c=64 v=0
279258 Par ch=1 c=64 v=63
279294 Par ch=1 c=64 v=127
279336 On ch=1 n=f3 v=0
279388 On ch=1 n=g5 v=0
279396 On ch=1 n=c5 v=0
279442 On ch=1 n=c4 v=0
279452 On ch=1 n=g#5 v=0
279654 On ch=1 n=g#5 v=55
279668 On ch=1 n=g#4 v=58
279674 On ch=1 n=f5 v=67
279690 On ch=1 n=a#3 v=54
279696 On ch=1 n=c#5 v=56
279736 Par ch=1 c=64 v=63
279756 Par ch=1 c=64 v=0
279800 Par ch=1 c=64 v=63
279836 Par ch=1 c=64 v=127
279948 On ch=1 n=c#5 v=0
279948 On ch=1 n=f5 v=0
279952 On ch=1 n=g#5 v=0
280030 On ch=1 n=a#3 v=0
280096 On ch=1 n=g#4 v=0
280142 On ch=1 n=c6 v=0
280166 On ch=1 n=a#5 v=82
280308 On ch=1 n=a#5 v=0
280400 On ch=1 n=c6 v=100
280616 On ch=1 n=c6 v=0
280648 Par ch=1 c=64 v=63
280670 On ch=1 n=c#6 v=101
280674 On ch=1 n=c#5 v=74
280700 On ch=1 n=d#4 v=64
280704 Par ch=1 c=64 v=127
280706 On ch=1 n=g5 v=60
280710 On ch=1 n=f5 v=68
280802 On ch=1 n=c#5 v=0
280848 On ch=1 n=d#4 v=0
280878 On ch=1 n=f5 v=0
280880 On ch=1 n=g5 v=0
280882 On ch=1 n=c#6 v=0
281252 On ch=1 n=g6 v=78
281260 On ch=1 n=g5 v=65
281272 On ch=1 n=g#5 v=63
281276 On ch=1 n=c4 v=48
281278 On ch=1 n=f3 v=48
281354 Par ch=1 c=64 v=63
281438 Par ch=1 c=64 v=127
281610 On ch=1 n=g#5 v=0
281618 On ch=1 n=g6 v=0
281762 On ch=1 n=g5 v=0
281858 On ch=1 n=f6 v=71
281868 On ch=1 n=f5 v=45
281980 On ch=1 n=f6 v=0
282036 On ch=1 n=f5 v=0
282318 On ch=1 n=f3 v=0
282354 On ch=1 n=c4 v=0
282444 On ch=1 n=c6 v=71
282450 On ch=1 n=c5 v=45
282474 On ch=1 n=g5 v=49
282476 On ch=1 n=g#5 v=55
282652 On ch=1 n=c5 v=0
282658 On ch=1 n=g5 v=0
282736 On ch=1 n=g#5 v=0
283130 On ch=1 n=g#5 v=58
283142 On ch=1 n=a#3 v=42
283150 On ch=1 n=c#5 v=59
283158 On ch=1 n=g#4 v=39
283160 On ch=1 n=f5 v=54
283170 Par ch=1 c=64 v=63
283190 Par ch=1 c=64 v=0
283280 Par ch=1 c=64 v=63
283304 Par ch=1 c=64 v=127
283476 On ch=1 n=c#5 v=0
283516 On ch=1 n=a#3 v=0
283526 On ch=1 n=f5 v=0
283538 On ch=1 n=g#5 v=0
283564 On ch=1 n=g#4 v=0
283574 On ch=1 n=c6 v=0
283720 On ch=1 n=a#5 v=72
283864 On ch=1 n=a#5 v=0
283978 On ch=1 n=c6 v=84
284244 Par ch=1 c=64 v=63
284244 On ch=1 n=c#5 v=69
284248 On ch=1 n=g5 v=75
284258 On ch=1 n=d#4 v=61
284276 On ch=1 n=f5 v=65
284320 Par ch=1 c=64 v=127
284332 On ch=1 n=c6 v=0
284400 On ch=1 n=c#5 v=0
284436 On ch=1 n=d#4 v=0
284464 On ch=1 n=f5 v=0
284768 On ch=1 n=d#5 v=65
284786 On ch=1 n=c5 v=40
284790 On ch=1 n=g#3 v=52
284802 On ch=1 n=g4 v=45
284838 Par ch=1 c=64 v=63
284934 Par ch=1 c=64 v=127
285056 On ch=1 n=c5 v=0
285138 On ch=1 n=d#5 v=0
285190 On ch=1 n=g5 v=0
285254 On ch=1 n=g#3 v=0
285294 On ch=1 n=g#5 v=83
285322 On ch=1 n=g4 v=0
285460 On ch=1 n=g#5 v=0
285508 On ch=1 n=a#5 v=90
285722 Par ch=1 c=64 v=63
285744 Par ch=1 c=64 v=127
285754 On ch=1 n=c#4 v=70
285754 On ch=1 n=g#5 v=88
285756 On ch=1 n=a#5 v=0
285768 On ch=1 n=c5 v=47
285780 On ch=1 n=f5 v=72
285782 On ch=1 n=c#5 v=67
285850 On ch=1 n=c5 v=0
285882 On ch=1 n=c#4 v=0
285914 On ch=1 n=c#5 v=0
285928 On ch=1 n=f5 v=0
285944 On ch=1 n=g#5 v=0
285978 On ch=1 n=g5 v=80
286076 On ch=1 n=g5 v=0
286222 On ch=1 n=f5 v=92
286242 On ch=1 n=g3 v=52
286250 On ch=1 n=a#4 v=60
286264 On ch=1 n=c#5 v=69
286298 Par ch=1 c=64 v=63
286324 Par ch=1 c=64 v=0
286414 Par ch=1 c=64 v=63
286448 Par ch=1 c=64 v=127
286464 On ch=1 n=g5 v=89
286492 On ch=1 n=a#4 v=0
286496 On ch=1 n=f5 v=0
286746 On ch=1 n=c#5 v=0
286760 On ch=1 n=d#5 v=88
286764 On ch=1 n=c5 v=49
286768 On ch=1 n=c4 v=34
286772 On ch=1 n=g4 v=35
286776 On ch=1 n=g5 v=0
286786 On ch=1 n=g3 v=0
286812 Par ch=1 c=64 v=63
286840 Par ch=1 c=64 v=0
286994 Par ch=1 c=64 v=63
287018 Par ch=1 c=64 v=127
287268 On ch=1 n=c5 v=0
287270 On ch=1 n=g4 v=0
287270 On ch=1 n=a#4 v=57
287398 On ch=1 n=a#4 v=0
287418 On ch=1 n=c4 v=0
287456 On ch=1 n=d#5 v=0
287818 On ch=1 n=f5 v=61
287838 On ch=1 n=g#4 v=41
287860 On ch=1 n=c5 v=48
287912 Par ch=1 c=64 v=63
287968 Par ch=1 c=64 v=0
288420 On ch=1 n=c3 v=44
288536 On ch=1 n=c3 v=0
289168 On ch=1 n=f2 v=37
289244 Par ch=1 c=64 v=63
289272 Par ch=1 c=64 v=127
289350 On ch=1 n=f2 v=0
289580 On ch=1 n=g#4 v=0
289618 On ch=1 n=f5 v=0
289624 On ch=1 n=c5 v=0
290274 On ch=1 n=f5 v=50
290322 Par ch=1 c=64 v=63
290324 On ch=1 n=g#5 v=40
290348 On ch=1 n=g7 v=48
290400 On ch=1 n=f7 v=48
290402 On ch=1 n=g7 v=0
290434 On ch=1 n=f7 v=0
290440 On ch=1 n=d#6 v=48
290442 Par ch=1 c=64 v=127
290500 On ch=1 n=f6 v=87
290788 On ch=1 n=d#6 v=0
290846 On ch=1 n=f5 v=0
290866 On ch=1 n=g#5 v=0
291194 On ch=1 n=c7 v=73
291314 On ch=1 n=f6 v=0
291740 On ch=1 n=f4 v=35
291770 On ch=1 n=c7 v=0
291794 On ch=1 n=f4 v=0
292202 On ch=1 n=f5 v=24
292216 On ch=1 n=e7 v=56
292226 On ch=1 n=a#5 v=47
292274 On ch=1 n=d7 v=45
292302 On ch=1 n=d6 v=31
292322 On ch=1 n=g#6 v=78
292392 Par ch=1 c=64 v=63
292442 Par ch=1 c=64 v=127
292590 On ch=1 n=a#6 v=101
292646 On ch=1 n=e7 v=0
292794 On ch=1 n=d7 v=0
292858 On ch=1 n=c7 v=101
292882 On ch=1 n=g#6 v=0
292902 On ch=1 n=a#6 v=0
292950 On ch=1 n=f5 v=0
292964 On ch=1 n=d6 v=0
292978 On ch=1 n=a#5 v=0
293344 On ch=1 n=f5 v=63
293750 On ch=1 n=d#5 v=52
293788 On ch=1 n=g#5 v=43
293832 On ch=1 n=c6 v=47
293844 Par ch=1 c=64 v=63
293862 Par ch=1 c=64 v=0
293864 On ch=1 n=f#6 v=65
293892 Par ch=1 c=64 v=63
293892 On ch=1 n=a#6 v=74
293936 Par ch=1 c=64 v=127
293980 On ch=1 n=f7 v=77
293996 On ch=1 n=c7 v=0
294132 On ch=1 n=f#6 v=0
294146 On ch=1 n=c6 v=0
294242 On ch=1 n=g#5 v=0
294270 On ch=1 n=f5 v=0
294314 On ch=1 n=d#5 v=0
294328 On ch=1 n=a#6 v=0
294330 On ch=1 n=f7 v=0
294488 On ch=1 n=f7 v=80
294596 On ch=1 n=f7 v=0
294708 On ch=1 n=f7 v=88
294952 On ch=1 n=d#7 v=100
294956 On ch=1 n=f4 v=75
295010 On ch=1 n=f7 v=0
295016 On ch=1 n=f4 v=0
295150 On ch=1 n=f7 v=86
295180 On ch=1 n=d#7 v=0
295224 On ch=1 n=f7 v=0
295442 On ch=1 n=f#5 v=37
295492 On ch=1 n=a#5 v=52
295512 On ch=1 n=e6 v=72
295514 On ch=1 n=c#5 v=59
295518 On ch=1 n=g#6 v=75
295546 Par ch=1 c=64 v=63
295554 On ch=1 n=c#7 v=88
295606 Par ch=1 c=64 v=127
295776 On ch=1 n=e6 v=0
295820 On ch=1 n=a#5 v=0
295834 On ch=1 n=g#6 v=0
295848 On ch=1 n=f#5 v=0
295896 On ch=1 n=c#7 v=0
295936 On ch=1 n=c#5 v=0
296002 On ch=1 n=c5 v=51
296048 On ch=1 n=f5 v=42
296124 On ch=1 n=a5 v=24
296126 On ch=1 n=d#6 v=53
296152 On ch=1 n=g6 v=56
296158 Par ch=1 c=64 v=63
296164 On ch=1 n=c7 v=84
296230 Par ch=1 c=64 v=127
296374 On ch=1 n=f5 v=0
296396 On ch=1 n=c5 v=0
296474 On ch=1 n=d#6 v=0
296524 On ch=1 n=g6 v=0
296706 On ch=1 n=a4 v=40
296718 On ch=1 n=d#5 v=42
296780 On ch=1 n=d#6 v=46
296784 On ch=1 n=c7 v=0
296844 On ch=1 n=f#6 v=45
296892 On ch=1 n=a5 v=0
296928 On ch=1 n=d#6 v=0
296938 On ch=1 n=a4 v=0
297068 On ch=1 n=f#6 v=0
297074 On ch=1 n=d#5 v=0
297322 On ch=1 n=a#4 v=37
297380 On ch=1 n=d5 v=45
297436 On ch=1 n=g#5 v=39
297496 Par ch=1 c=64 v=63
297500 On ch=1 n=d6 v=39
297508 On ch=1 n=c6 v=41
297512 On ch=1 n=f6 v=51
297552 Par ch=1 c=64 v=127
297624 On ch=1 n=g#5 v=0
297626 On ch=1 n=c7 v=68
297658 On ch=1 n=d5 v=0
297686 On ch=1 n=c6 v=0
297714 On ch=1 n=d6 v=0
297758 On ch=1 n=a#4 v=0
297842 On ch=1 n=f6 v=0
298002 On ch=1 n=c7 v=0
298240 On ch=1 n=f3 v=40
298242 On ch=1 n=a#6 v=81
298488 On ch=1 n=c7 v=79
298492 On ch=1 n=a#6 v=0
298744 On ch=1 n=g#6 v=90
298748 On ch=1 n=f3 v=0
298750 On ch=1 n=a#3 v=67
298792 On ch=1 n=c7 v=0
298822 On ch=1 n=a#3 v=0
298960 On ch=1 n=g6 v=93
299024 On ch=1 n=g#6 v=0
299048 On ch=1 n=g6 v=0
299268 On ch=1 n=b4 v=55
299274 On ch=1 n=d#5 v=65
299294 On ch=1 n=a#6 v=92
299302 On ch=1 n=d#6 v=81
299316 On ch=1 n=b5 v=54
299408 Par ch=1 c=64 v=63
299430 Par ch=1 c=64 v=0
299458 Par ch=1 c=64 v=63
299506 Par ch=1 c=64 v=127
299590 On ch=1 n=d#5 v=0
299824 On ch=1 n=b4 v=0
299826 On ch=1 n=f5 v=84
299826 On ch=1 n=f4 v=64
299912 On ch=1 n=d#6 v=0
299958 On ch=1 n=b5 v=0
300076 On ch=1 n=a#6 v=0
300210 On ch=1 n=f4 v=0
300330 On ch=1 n=f5 v=0
300474 On ch=1 n=f6 v=91
300738 On ch=1 n=g#6 v=97
300770 On ch=1 n=f6 v=0
300936 On ch=1 n=a#4 v=41
301002 On ch=1 n=g#6 v=0
301016 On ch=1 n=d5 v=41
301024 On ch=1 n=g#5 v=54
301028 Par ch=1 c=64 v=63
301038 Par ch=1 c=64 v=0
301054 On ch=1 n=c6 v=52
301056 On ch=1 n=f6 v=58
301056 On ch=1 n=d6 v=54
301060 On ch=1 n=c7 v=79
301086 Par ch=1 c=64 v=63
301114 Par ch=1 c=64 v=127
301190 On ch=1 n=g#5 v=0
301234 On ch=1 n=d5 v=0
301282 On ch=1 n=a#4 v=0
301342 On ch=1 n=c6 v=0
301366 On ch=1 n=d6 v=0
301480 On ch=1 n=f6 v=0
301558 On ch=1 n=c7 v=0
301626 On ch=1 n=f3 v=58
301638 On ch=1 n=a#6 v=83
301870 On ch=1 n=c7 v=88
301910 On ch=1 n=a#6 v=0
302124 On ch=1 n=g#6 v=95
302130 On ch=1 n=a#3 v=75
302160 On ch=1 n=f3 v=0
302198 On ch=1 n=c7 v=0
302208 On ch=1 n=a#3 v=0
302332 On ch=1 n=g6 v=85
302384 On ch=1 n=g#6 v=0
302410 On ch=1 n=g6 v=0
302542 On ch=1 n=b4 v=66
302632 On ch=1 n=d#5 v=55
302646 On ch=1 n=d#6 v=71
302658 On ch=1 n=b5 v=65
302666 On ch=1 n=a#6 v=86
302680 Par ch=1 c=64 v=63
302756 Par ch=1 c=64 v=127
302940 On ch=1 n=d#5 v=0
303094 On ch=1 n=b5 v=0
303110 On ch=1 n=b4 v=0
303210 On ch=1 n=d#6 v=0
303228 On ch=1 n=f5 v=76
303230 On ch=1 n=f4 v=32
303346 On ch=1 n=f4 v=0
303358 On ch=1 n=f5 v=0
303404 On ch=1 n=a#6 v=0
303556 On ch=1 n=f6 v=65
303858 On ch=1 n=g#6 v=68
303872 On ch=1 n=f6 v=0
304114 On ch=1 n=a#6 v=79
304182 On ch=1 n=g#6 v=0
304364 On ch=1 n=a#4 v=52
304442 On ch=1 n=a#6 v=0
304448 On ch=1 n=d5 v=39
304466 On ch=1 n=c6 v=51
304468 On ch=1 n=f6 v=60
304470 On ch=1 n=d6 v=55
304474 Par ch=1 c=64 v=63
304478 On ch=1 n=g#5 v=36
304488 Par ch=1 c=64 v=0
304506 On ch=1 n=c7 v=77
304528 Par ch=1 c=64 v=63
304562 Par ch=1 c=64 v=127
304658 On ch=1 n=g#5 v=0
304702 On ch=1 n=d5 v=0
304734 On ch=1 n=c7 v=0
304776 On ch=1 n=a#4 v=0
304786 On ch=1 n=f6 v=0
304816 On ch=1 n=d6 v=0
304834 On ch=1 n=c6 v=0
305146 On ch=1 n=a#5 v=65
305156 On ch=1 n=f3 v=32
305358 On ch=1 n=a#5 v=0
305404 On ch=1 n=c6 v=73
305664 On ch=1 n=g#5 v=82
305664 On ch=1 n=a#3 v=69
305734 On ch=1 n=c6 v=0
305768 On ch=1 n=f3 v=0
305822 On ch=1 n=a#3 v=0
305896 On ch=1 n=g5 v=84
305988 On ch=1 n=g5 v=0
306050 On ch=1 n=g#5 v=0
306184 On ch=1 n=a#5 v=88
306186 On ch=1 n=b4 v=54
306198 On ch=1 n=f4 v=42
306202 On ch=1 n=d#5 v=63
306326 Par ch=1 c=64 v=63
306388 Par ch=1 c=64 v=127
306568 On ch=1 n=b4 v=0
306606 On ch=1 n=d#5 v=0
306706 On ch=1 n=a#5 v=0
306748 On ch=1 n=g#5 v=82
306762 On ch=1 n=d5 v=66
306774 On ch=1 n=a#4 v=61
306880 On ch=1 n=a#4 v=0
306928 On ch=1 n=f4 v=0
307038 On ch=1 n=a#5 v=80
307072 On ch=1 n=g#5 v=0
307146 On ch=1 n=d5 v=0
307254 On ch=1 n=a#5 v=0
307358 On ch=1 n=a#3 v=53
307368 On ch=1 n=f#5 v=75
307380 On ch=1 n=g#4 v=46
307392 On ch=1 n=c5 v=46
307452 Par ch=1 c=64 v=63
307548 Par ch=1 c=64 v=127
307642 On ch=1 n=g#4 v=0
307682 On ch=1 n=f#5 v=0
307730 On ch=1 n=a#3 v=0
307736 On ch=1 n=f5 v=66
307916 On ch=1 n=c5 v=0
308014 On ch=1 n=f5 v=0
308020 On ch=1 n=d#3 v=60
308134 On ch=1 n=a#3 v=60
308182 On ch=1 n=d#3 v=0
308286 On ch=1 n=a#4 v=42
308324 On ch=1 n=f5 v=59
308350 On ch=1 n=f#4 v=35
308408 On ch=1 n=a#5 v=76
308512 Par ch=1 c=64 v=63
308540 Par ch=1 c=64 v=127
308750 On ch=1 n=a#4 v=0
308766 On ch=1 n=a#3 v=0
308818 On ch=1 n=f#4 v=0
308854 On ch=1 n=f5 v=0
308902 On ch=1 n=a#5 v=0
309150 On ch=1 n=d#5 v=67
309192 On ch=1 n=f6 v=76
309420 On ch=1 n=d#5 v=0
309718 On ch=1 n=c#5 v=87
309792 On ch=1 n=f6 v=0
310062 On ch=1 n=c#5 v=0
310236 On ch=1 n=a#4 v=90
310248 On ch=1 n=c#6 v=84
310252 On ch=1 n=f#5 v=72
310350 On ch=1 n=a#4 v=0
310414 On ch=1 n=f#5 v=0
310504 On ch=1 n=d#6 v=97
310546 On ch=1 n=c#6 v=0
310708 On ch=1 n=d#6 v=0
310774 On ch=1 n=c#5 v=87
310786 On ch=1 n=f6 v=102
310876 On ch=1 n=c#5 v=0
311268 On ch=1 n=d#5 v=103
311292 On ch=1 n=f6 v=0
311566 On ch=1 n=d#4 v=94
311602 On ch=1 n=a#4 v=72
311720 Par ch=1 c=64 v=63
311748 Par ch=1 c=64 v=127
311768 On ch=1 n=d#5 v=0
311846 On ch=1 n=a#5 v=67
311850 On ch=1 n=d#4 v=0
311868 On ch=1 n=f6 v=84
311878 On ch=1 n=f5 v=80
311896 On ch=1 n=a#6 v=99
311950 On ch=1 n=a#4 v=0
312164 On ch=1 n=a#5 v=0
312358 On ch=1 n=f6 v=0
312394 On ch=1 n=a#6 v=0
312436 On ch=1 n=d#5 v=74
312444 On ch=1 n=g#6 v=89
312598 On ch=1 n=f5 v=0
312676 On ch=1 n=a#6 v=82
312726 On ch=1 n=g#6 v=0
312854 On ch=1 n=d#5 v=0
312950 On ch=1 n=f#6 v=74
312956 On ch=1 n=a#6 v=0
312964 On ch=1 n=c#5 v=72
313008 On ch=1 n=c#5 v=0
313196 On ch=1 n=g#6 v=87
313248 On ch=1 n=f#6 v=0
313296 On ch=1 n=g#6 v=0
313356 On ch=1 n=g#3 v=39
313430 On ch=1 n=d#4 v=44
313558 On ch=1 n=f6 v=78
313566 On ch=1 n=a#4 v=49
313574 On ch=1 n=f#5 v=67
313646 Par ch=1 c=64 v=63
313714 Par ch=1 c=64 v=127
313842 On ch=1 n=g#3 v=0
313884 On ch=1 n=d#4 v=0
314224 On ch=1 n=c#5 v=65
314286 On ch=1 n=a#4 v=0
314550 On ch=1 n=f6 v=0
314550 On ch=1 n=d#6 v=70
314670 On ch=1 n=f#5 v=0
314752 On ch=1 n=c#5 v=0
314816 On ch=1 n=d#6 v=0
314982 On ch=1 n=a#5 v=63
314992 On ch=1 n=d#5 v=34
315000 On ch=1 n=f#5 v=37
315012 On ch=1 n=c5 v=52
315086 Par ch=1 c=64 v=63
315106 Par ch=1 c=64 v=127
315306 On ch=1 n=d#5 v=0
315310 Par ch=1 c=67 v=127
315352 On ch=1 n=c5 v=0
315390 On ch=1 n=f#5 v=0
315412 On ch=1 n=a#5 v=0
316028 On ch=1 n=g#5 v=60
316036 On ch=1 n=d#5 v=50
316040 On ch=1 n=g#3 v=35
316052 On ch=1 n=c#3 v=39
316074 On ch=1 n=f5 v=42
316200 Par ch=1 c=64 v=63
316218 Par ch=1 c=64 v=0
316316 Par ch=1 c=64 v=63
316340 Par ch=1 c=64 v=127
316394 On ch=1 n=a#3 v=67
316438 On ch=1 n=g#3 v=0
316672 On ch=1 n=c#3 v=0
316688 On ch=1 n=c4 v=72
316694 On ch=1 n=g#4 v=68
316722 On ch=1 n=d#5 v=0
316776 On ch=1 n=a#3 v=0
317006 On ch=1 n=g#4 v=0
317184 On ch=1 n=c#5 v=93
317240 On ch=1 n=f5 v=0
317242 On ch=1 n=g#5 v=0
317416 On ch=1 n=c#4 v=97
317460 On ch=1 n=c#5 v=0
317474 On ch=1 n=c4 v=0
317620 On ch=1 n=f3 v=67
317678 On ch=1 n=g#5 v=76
317686 On ch=1 n=c5 v=78
317688 On ch=1 n=d#4 v=92
317694 On ch=1 n=c#4 v=0
317698 On ch=1 n=f5 v=63
317732 Par ch=1 c=64 v=63
317742 Par ch=1 c=64 v=0
317848 Par ch=1 c=64 v=63
317862 Par ch=1 c=64 v=127
317972 On ch=1 n=f3 v=0
318004 On ch=1 n=c5 v=0
318122 On ch=1 n=d#4 v=0
318258 On ch=1 n=g#4 v=85
318310 On ch=1 n=g#5 v=0
318396 On ch=1 n=g#4 v=0
318480 On ch=1 n=f4 v=90
318524 On ch=1 n=f5 v=0
318706 On ch=1 n=g#4 v=88
318922 On ch=1 n=c5 v=97
318966 On ch=1 n=g#4 v=0
318982 On ch=1 n=f4 v=0
319006 On ch=1 n=c5 v=0
319124 On ch=1 n=a#3 v=88
319182 On ch=1 n=a#4 v=88
319192 Par ch=1 c=64 v=63
319200 Par ch=1 c=64 v=0
319276 Par ch=1 c=64 v=63
319302 Par ch=1 c=64 v=127
319330 On ch=1 n=a#3 v=0
319452 On ch=1 n=g#4 v=98
319518 On ch=1 n=a#4 v=0
319682 On ch=1 n=d5 v=103
319688 On ch=1 n=c5 v=96
319690 On ch=1 n=f4 v=84
319720 On ch=1 n=g#4 v=0
319814 On ch=1 n=c5 v=0
319846 On ch=1 n=d5 v=0
319884 On ch=1 n=d4 v=93
319916 On ch=1 n=f4 v=0
319968 On ch=1 n=d4 v=0
320154 On ch=1 n=a#3 v=70
320172 On ch=1 n=a#5 v=86
320182 On ch=1 n=g#5 v=73
320192 Par ch=1 c=64 v=63
320274 Par ch=1 c=64 v=127
320374 On ch=1 n=g#5 v=0
320380 On ch=1 n=a#3 v=0
320404 On ch=1 n=a#5 v=0
320712 Par ch=1 c=67 v=0
320768 On ch=1 n=c#4 v=70
320778 On ch=1 n=g#4 v=63
320804 On ch=1 n=g#6 v=80
320818 On ch=1 n=d#6 v=61
320830 On ch=1 n=f6 v=57
320872 Par ch=1 c=64 v=63
320940 Par ch=1 c=64 v=127
321060 On ch=1 n=a#4 v=75
321078 On ch=1 n=g#4 v=0
321248 On ch=1 n=c#4 v=0
321280 On ch=1 n=c5 v=90
321296 On ch=1 n=g#5 v=76
321326 On ch=1 n=d#6 v=0
321368 On ch=1 n=a#4 v=0
321672 On ch=1 n=g#5 v=0
321760 On ch=1 n=c#6 v=106
321840 On ch=1 n=g#6 v=0
321882 On ch=1 n=f6 v=0
321974 On ch=1 n=c#5 v=107
322024 On ch=1 n=c5 v=0
322044 On ch=1 n=c#6 v=0
322122 On ch=1 n=f4 v=59
322244 On ch=1 n=g#6 v=88
322246 On ch=1 n=c#5 v=0
322248 On ch=1 n=d#5 v=108
322250 On ch=1 n=c6 v=86
322252 On ch=1 n=f6 v=81
322290 Par ch=1 c=64 v=63
322304 Par ch=1 c=64 v=0
322354 Par ch=1 c=64 v=63
322384 Par ch=1 c=64 v=127
322508 On ch=1 n=c6 v=0
322556 On ch=1 n=f4 v=0
322592 On ch=1 n=g#6 v=0
322654 On ch=1 n=d#5 v=0
322716 On ch=1 n=g#5 v=99
322864 On ch=1 n=g#5 v=0
322920 On ch=1 n=f5 v=108
322954 On ch=1 n=f6 v=0
323136 On ch=1 n=g#5 v=109
323204 On ch=1 n=f5 v=0
323316 On ch=1 n=g#5 v=0
323338 On ch=1 n=c6 v=87
323426 On ch=1 n=c6 v=0
323538 On ch=1 n=a#4 v=106
323582 Par ch=1 c=64 v=63
323590 Par ch=1 c=64 v=0
323614 On ch=1 n=a#5 v=106
323656 Par ch=1 c=64 v=63
323678 Par ch=1 c=64 v=127
323776 On ch=1 n=a#5 v=0
323848 On ch=1 n=g#5 v=112
324058 On ch=1 n=g#5 v=0
324088 On ch=1 n=d6 v=117
324096 On ch=1 n=f5 v=102
324098 On ch=1 n=c6 v=107
324114 On ch=1 n=a#4 v=0
324202 On ch=1 n=d6 v=0
324208 On ch=1 n=c6 v=0
324254 On ch=1 n=f5 v=0
324292 On ch=1 n=d5 v=94
324544 On ch=1 n=a#4 v=114
324554 On ch=1 n=a#6 v=114
324554 On ch=1 n=g#6 v=110
324600 On ch=1 n=d5 v=0
324620 On ch=1 n=g#6 v=0
324632 On ch=1 n=a#4 v=0
324640 On ch=1 n=a#6 v=0
325048 On ch=1 n=g#7 v=96
325060 On ch=1 n=f7 v=87
325090 On ch=1 n=d#7 v=95
325128 Par ch=1 c=64 v=63
325134 On ch=1 n=c#3 v=63
325138 Par ch=1 c=64 v=0
325180 On ch=1 n=g#3 v=125
325194 On ch=1 n=g#7 v=0
325194 On ch=1 n=g#6 v=123
325258 On ch=1 n=f7 v=0
325264 Par ch=1 c=64 v=63
325268 Par ch=1 c=64 v=127
325284 On ch=1 n=d#7 v=0
325442 On ch=1 n=c#3 v=0
325466 On ch=1 n=g#3 v=0
325574 On ch=1 n=a#6 v=114
325604 On ch=1 n=g#6 v=0
325654 On ch=1 n=a#6 v=0
325802 On ch=1 n=f4 v=63
325890 On ch=1 n=g#4 v=67
325958 On ch=1 n=c#5 v=105
325960 On ch=1 n=c6 v=104
325960 On ch=1 n=c7 v=109
325960 On ch=1 n=f6 v=106
325960 On ch=1 n=g#6 v=104
325976 On ch=1 n=f5 v=113
326090 On ch=1 n=f4 v=0
326164 On ch=1 n=g#4 v=0
326184 On ch=1 n=c#5 v=0
326336 On ch=1 n=f5 v=0
326360 On ch=1 n=c7 v=0
326360 On ch=1 n=g#4 v=84
326374 On ch=1 n=c6 v=0
326430 On ch=1 n=c#5 v=70
326446 On ch=1 n=f6 v=0
326478 On ch=1 n=g#6 v=0
326484 On ch=1 n=f5 v=94
326488 On ch=1 n=g#4 v=0
326512 On ch=1 n=g#5 v=115
326586 On ch=1 n=c#5 v=0
326614 On ch=1 n=f5 v=0
326674 On ch=1 n=g#5 v=0
326698 On ch=1 n=c#7 v=116
326698 On ch=1 n=c#6 v=121
326812 On ch=1 n=c#6 v=0
326820 On ch=1 n=c#5 v=74
326832 On ch=1 n=c#7 v=0
326856 On ch=1 n=f5 v=64
326894 On ch=1 n=g#5 v=94
326912 On ch=1 n=d#7 v=119
326914 On ch=1 n=c#6 v=114
326918 On ch=1 n=d#6 v=116
326920 On ch=1 n=g#6 v=108
326948 On ch=1 n=c#5 v=0
326966 On ch=1 n=f5 v=0
326996 On ch=1 n=g#5 v=0
327040 On ch=1 n=c#6 v=0
327112 On ch=1 n=d#6 v=0
327168 On ch=1 n=g#6 v=0
327212 On ch=1 n=d#7 v=0
327250 On ch=1 n=f5 v=76
327284 On ch=1 n=g#5 v=88
327320 On ch=1 n=c#6 v=106
327340 On ch=1 n=f6 v=116
327352 On ch=1 n=f5 v=0
327412 On ch=1 n=f6 v=0
327416 On ch=1 n=c#6 v=0
327438 On ch=1 n=g#5 v=0
327546 On ch=1 n=f6 v=107
327546 On ch=1 n=f7 v=106
327712 On ch=1 n=f6 v=0
327738 On ch=1 n=f7 v=0
327808 On ch=1 n=g7 v=112
327812 On ch=1 n=g6 v=106
327816 On ch=1 n=c#7 v=109
327876 On ch=1 n=g6 v=0
327908 On ch=1 n=c#7 v=0
327912 On ch=1 n=g7 v=0
328060 On ch=1 n=g#7 v=115
328060 On ch=1 n=g#6 v=113
328124 On ch=1 n=g#6 v=0
328148 On ch=1 n=g#7 v=0
328414 On ch=1 n=c8 v=109
328416 On ch=1 n=a#3 v=121
328416 On ch=1 n=a#2 v=114
328420 On ch=1 n=f7 v=97
328420 On ch=1 n=c7 v=103
328436 Par ch=1 c=64 v=63
328450 Par ch=1 c=64 v=0
328526 Par ch=1 c=64 v=63
328540 Par ch=1 c=64 v=127
328594 On ch=1 n=a#2 v=0
328638 On ch=1 n=a#3 v=0
328748 On ch=1 n=g#7 v=113
328812 On ch=1 n=f7 v=0
328812 On ch=1 n=c8 v=0
328818 On ch=1 n=c7 v=0
329014 On ch=1 n=f4 v=83
329056 On ch=1 n=g#4 v=75
329078 On ch=1 n=g#7 v=0
329102 On ch=1 n=c5 v=99
329104 On ch=1 n=c8 v=107
329106 On ch=1 n=f7 v=101
329110 On ch=1 n=c7 v=102
329122 On ch=1 n=f5 v=120
329250 On ch=1 n=f4 v=0
329288 On ch=1 n=g#4 v=0
329294 On ch=1 n=c5 v=0
329474 On ch=1 n=f5 v=0
329528 On ch=1 n=g#4 v=69
329572 On ch=1 n=c5 v=71
329616 On ch=1 n=f5 v=93
329634 On ch=1 n=g#4 v=0
329648 On ch=1 n=g#5 v=116
329696 On ch=1 n=c5 v=0
329712 On ch=1 n=f5 v=0
329772 On ch=1 n=c7 v=0
329774 On ch=1 n=f7 v=0
329774 On ch=1 n=c8 v=0
329786 On ch=1 n=g#5 v=0
329830 On ch=1 n=g#7 v=107
329954 On ch=1 n=c5 v=56
329982 On ch=1 n=f5 v=71
330052 On ch=1 n=g#5 v=108
330058 On ch=1 n=c8 v=109
330060 On ch=1 n=f7 v=104
330064 On ch=1 n=c6 v=107
330066 On ch=1 n=c7 v=103
330100 On ch=1 n=c5 v=0
330116 On ch=1 n=g#7 v=0
330126 On ch=1 n=f5 v=0
330154 On ch=1 n=g#5 v=0
330234 On ch=1 n=c6 v=0
330380 On ch=1 n=f5 v=27
330418 On ch=1 n=g#5 v=80
330476 On ch=1 n=c6 v=81
330502 On ch=1 n=f6 v=117
330728 On ch=1 n=g#7 v=107
330804 On ch=1 n=c8 v=0
330808 On ch=1 n=f7 v=0
330820 On ch=1 n=c7 v=0
330890 On ch=1 n=f5 v=0
330938 On ch=1 n=g#5 v=0
330960 On ch=1 n=c6 v=0
330968 On ch=1 n=c8 v=106
330972 On ch=1 n=f7 v=96
330978 On ch=1 n=c7 v=89
331028 On ch=1 n=g#7 v=0
331164 On ch=1 n=f6 v=0
331258 On ch=1 n=g#5 v=75
331334 On ch=1 n=c6 v=75
331382 On ch=1 n=f6 v=61
331398 On ch=1 n=g#5 v=0
331464 On ch=1 n=g#6 v=105
331646 On ch=1 n=c7 v=0
331716 On ch=1 n=g#7 v=96
331756 On ch=1 n=g#6 v=0
331772 On ch=1 n=f6 v=0
331774 On ch=1 n=c7 v=8
331782 On ch=1 n=f7 v=0
331806 On ch=1 n=c8 v=0
331828 On ch=1 n=c7 v=0
331864 On ch=1 n=c6 v=0
331982 On ch=1 n=c8 v=84
331988 On ch=1 n=f7 v=75
332006 On ch=1 n=c7 v=52
332064 On ch=1 n=g#7 v=0
332356 On ch=1 n=f5 v=46
332384 On ch=1 n=g#5 v=72
332426 On ch=1 n=c6 v=66
332448 On ch=1 n=c7 v=0
332510 On ch=1 n=f6 v=89
332784 On ch=1 n=g#7 v=80
332810 On ch=1 n=f7 v=0
332844 On ch=1 n=c8 v=0
332910 On ch=1 n=f6 v=0
332978 On ch=1 n=c6 v=0
333068 On ch=1 n=f5 v=0
333080 On ch=1 n=g#5 v=0
333124 On ch=1 n=g#7 v=0
333124 On ch=1 n=c8 v=65
333130 On ch=1 n=f7 v=53
333140 On ch=1 n=c7 v=36
333536 On ch=1 n=c7 v=0
333596 On ch=1 n=c5 v=50
333618 On ch=1 n=f5 v=48
333706 On ch=1 n=g#5 v=41
333754 On ch=1 n=c8 v=0
333758 On ch=1 n=f7 v=0
333760 On ch=1 n=c6 v=55
333922 On ch=1 n=c5 v=0
334016 On ch=1 n=c6 v=0
334040 On ch=1 n=g#7 v=70
334064 On ch=1 n=g#5 v=0
334108 On ch=1 n=f5 v=0
334434 On ch=1 n=g#7 v=0
334450 On ch=1 n=c8 v=54
334466 On ch=1 n=c7 v=24
334470 On ch=1 n=f7 v=30
334790 On ch=1 n=c7 v=0
334862 On ch=1 n=c8 v=0
334868 On ch=1 n=g#7 v=64
334908 On ch=1 n=f7 v=0
335230 On ch=1 n=g#7 v=0
335508 On ch=1 n=c#8 v=50
335512 On ch=1 n=f#7 v=50
335516 On ch=1 n=e3 v=48
335538 On ch=1 n=c#7 v=24
335584 Par ch=1 c=64 v=63
335598 Par ch=1 c=64 v=0
335642 Par ch=1 c=64 v=63
335684 Par ch=1 c=64 v=127
335898 On ch=1 n=e3 v=0
335978 On ch=1 n=c#8 v=0
336032 On ch=1 n=f#7 v=0
336054 On ch=1 n=c#7 v=0
336306 On ch=1 n=d5 v=61
336372 On ch=1 n=e5 v=21
336428 On ch=1 n=g#5 v=40
336484 On ch=1 n=g#7 v=59
336492 On ch=1 n=g#6 v=33
336494 On ch=1 n=c#7 v=59
336508 On ch=1 n=c#6 v=66
336582 On ch=1 n=d5 v=0
336620 On ch=1 n=c#6 v=0
336624 On ch=1 n=g#5 v=0
336624 On ch=1 n=e5 v=0
337134 On ch=1 n=e7 v=62
337140 On ch=1 n=g#7 v=0
337188 On ch=1 n=c#7 v=0
337298 On ch=1 n=g#6 v=0
337422 On ch=1 n=f#7 v=70
337436 On ch=1 n=e7 v=0
337614 On ch=1 n=a#4 v=42
337668 On ch=1 n=c#5 v=50
337710 On ch=1 n=f#7 v=0
337742 On ch=1 n=g#5 v=76
337754 On ch=1 n=g#7 v=55
337758 On ch=1 n=c#7 v=51
337764 On ch=1 n=g#6 v=30
337800 On ch=1 n=c#5 v=0
337876 On ch=1 n=g#6 v=0
337910 On ch=1 n=c#7 v=0
337954 On ch=1 n=g#7 v=0
337990 On ch=1 n=g#5 v=0
338118 On ch=1 n=a#4 v=0
338334 On ch=1 n=c#8 v=73
338864 On ch=1 n=e3 v=25
338900 On ch=1 n=e8 v=52
338988 On ch=1 n=e3 v=0
338996 On ch=1 n=c#8 v=0
339148 On ch=1 n=e8 v=0
339396 On ch=1 n=g#4 v=37
339434 On ch=1 n=d5 v=33
339516 On ch=1 n=c#8 v=76
339540 On ch=1 n=c#7 v=41
339544 On ch=1 n=e5 v=64
339544 On ch=1 n=g#7 v=52
339696 On ch=1 n=d5 v=0
339732 On ch=1 n=c#8 v=0
339748 On ch=1 n=g#7 v=0
339782 On ch=1 n=g#4 v=0
340050 On ch=1 n=c#7 v=0
340094 On ch=1 n=f#5 v=93
340110 On ch=1 n=g#7 v=80
340168 On ch=1 n=e5 v=0
340244 On ch=1 n=g#7 v=0
340286 On ch=1 n=f#5 v=0
340338 On ch=1 n=a#4 v=63
340450 On ch=1 n=e5 v=40
340602 On ch=1 n=g#5 v=103
340630 On ch=1 n=e7 v=59
340852 On ch=1 n=f#7 v=80
340860 On ch=1 n=a#4 v=0
340870 On ch=1 n=e7 v=0
340948 On ch=1 n=e5 v=0
341100 On ch=1 n=f#7 v=0
341116 On ch=1 n=g#7 v=100
341128 On ch=1 n=g#6 v=70
341142 On ch=1 n=g#5 v=0
341142 On ch=1 n=c#7 v=68
341212 On ch=1 n=g#6 v=0
341214 On ch=1 n=c#7 v=0
341316 On ch=1 n=g#7 v=0
341636 On ch=1 n=g#5 v=67
341646 On ch=1 n=d5 v=24
341648 On ch=1 n=c#6 v=88
341648 On ch=1 n=c#8 v=94
341658 On ch=1 n=c#7 v=69
341666 On ch=1 n=f#7 v=73
341678 On ch=1 n=e5 v=39
341758 On ch=1 n=c#7 v=0
341810 On ch=1 n=f#7 v=0
341846 On ch=1 n=c#8 v=0
342074 On ch=1 n=d5 v=0
342104 On ch=1 n=e5 v=0
342112 On ch=1 n=g#5 v=0
342226 On ch=1 n=c#6 v=0
342236 On ch=1 n=e8 v=79
342250 On ch=1 n=e7 v=45
342314 On ch=1 n=e7 v=0
342376 On ch=1 n=e8 v=0
342748 On ch=1 n=g#5 v=37
342780 On ch=1 n=a#5 v=52
342816 On ch=1 n=c#6 v=51
342856 On ch=1 n=c#7 v=65
342880 On ch=1 n=c#8 v=67
342886 On ch=1 n=g#7 v=51
342898 On ch=1 n=e6 v=46
343022 On ch=1 n=g#7 v=0
343058 On ch=1 n=c#8 v=0
343118 On ch=1 n=c#7 v=0
343518 On ch=1 n=g#7 v=66
343606 On ch=1 n=g#7 v=0
343678 On ch=1 n=e6 v=0
343772 On ch=1 n=c#6 v=0
343876 On ch=1 n=a#5 v=0
343986 On ch=1 n=g#5 v=0
344022 On ch=1 n=e6 v=36
344030 On ch=1 n=g#6 v=49
344050 On ch=1 n=c#7 v=40
344082 On ch=1 n=e7 v=49
344146 On ch=1 n=g#6 v=0
344198 On ch=1 n=c#7 v=0
344252 On ch=1 n=e6 v=0
344266 On ch=1 n=e7 v=0
344602 On ch=1 n=c#7 v=65
344732 On ch=1 n=c#7 v=0
345050 On ch=1 n=g#5 v=23
345130 On ch=1 n=c#6 v=40
345232 On ch=1 n=e6 v=15
345234 On ch=1 n=g#6 v=41
345282 Par ch=1 c=67 v=127
345400 On ch=1 n=e6 v=0
345510 On ch=1 n=g#6 v=0
345624 On ch=1 n=c#6 v=0
345634 On ch=1 n=g#5 v=0
345894 On ch=1 n=e6 v=41
346020 On ch=1 n=e6 v=0
346696 On ch=1 n=c#5 v=44
346720 On ch=1 n=c#6 v=60
346800 On ch=1 n=e5 v=37
346806 On ch=1 n=d5 v=37
346944 Par ch=1 c=64 v=63
346964 Par ch=1 c=64 v=127
347336 On ch=1 n=c#5 v=0
347346 On ch=1 n=g#5 v=63
347350 On ch=1 n=c#6 v=0
347384 On ch=1 n=b4 v=39
347876 On ch=1 n=g#4 v=63
347920 On ch=1 n=d5 v=0
347928 On ch=1 n=e5 v=0
348090 On ch=1 n=g#5 v=0
348216 On ch=1 n=b4 v=0
348372 On ch=1 n=c#5 v=42
348406 On ch=1 n=e5 v=57
348408 On ch=1 n=d5 v=65
348526 Par ch=1 c=64 v=63
348548 On ch=1 n=g#4 v=0
348632 On ch=1 n=f#5 v=81
348642 Par ch=1 c=64 v=127
348880 On ch=1 n=g#5 v=88
348904 On ch=1 n=c#5 v=0
348926 On ch=1 n=g#4 v=58
348976 On ch=1 n=f#5 v=0
349084 On ch=1 n=g#4 v=0
349132 On ch=1 n=d5 v=0
349150 On ch=1 n=e5 v=0
349456 On ch=1 n=c#6 v=79
349468 On ch=1 n=e3 v=62
349514 On ch=1 n=g#5 v=0
349598 On ch=1 n=e3 v=0
349604 On ch=1 n=c#6 v=0
349738 On ch=1 n=e6 v=68
349840 On ch=1 n=e6 v=0
350066 On ch=1 n=c#5 v=53
350114 On ch=1 n=c#6 v=76
350148 On ch=1 n=d5 v=48
350148 On ch=1 n=e5 v=42
350646 On ch=1 n=g#5 v=70
350672 On ch=1 n=b4 v=43
350686 On ch=1 n=c#5 v=0
350720 On ch=1 n=c#6 v=0
350868 Par ch=1 c=64 v=63
350978 Par ch=1 c=64 v=127
351154 On ch=1 n=g#4 v=72
351392 On ch=1 n=d5 v=0
351400 On ch=1 n=e5 v=0
351554 On ch=1 n=g#4 v=0
351632 On ch=1 n=g#5 v=0
351654 On ch=1 n=b4 v=0
351672 On ch=1 n=e5 v=61
351674 On ch=1 n=d5 v=69
351674 On ch=1 n=c#5 v=54
351828 Par ch=1 c=64 v=63
351882 Par ch=1 c=64 v=127
351906 On ch=1 n=f#5 v=95
352090 On ch=1 n=c#5 v=0
352146 On ch=1 n=g#5 v=94
352174 On ch=1 n=g#4 v=81
352226 On ch=1 n=f#5 v=0
352260 On ch=1 n=g#4 v=0
352318 On ch=1 n=d5 v=0
352350 On ch=1 n=e5 v=0
352628 On ch=1 n=c#6 v=86
352630 On ch=1 n=e3 v=76
352668 On ch=1 n=g#5 v=0
352740 On ch=1 n=e3 v=0
352746 On ch=1 n=c#6 v=0
352842 On ch=1 n=e6 v=88
352952 On ch=1 n=e6 v=0
353110 On ch=1 n=c#5 v=58
353122 On ch=1 n=c#6 v=82
353158 On ch=1 n=d5 v=40
353158 On ch=1 n=e5 v=33
353414 Par ch=1 c=64 v=63
353596 Par ch=1 c=64 v=0
353614 On ch=1 n=b4 v=50
353628 On ch=1 n=g#5 v=72
353706 Par ch=1 c=64 v=63
353708 On ch=1 n=c#5 v=0
353764 Par ch=1 c=64 v=127
353832 On ch=1 n=c#6 v=0
353990 On ch=1 n=e5 v=0
354016 On ch=1 n=d5 v=0
354088 On ch=1 n=g#4 v=85
354212 On ch=1 n=g#5 v=0
354536 On ch=1 n=b4 v=0
354550 On ch=1 n=c#6 v=92
354564 On ch=1 n=d5 v=68
354570 On ch=1 n=c#5 v=58
354572 On ch=1 n=f5 v=72
354686 Par ch=1 c=64 v=63
354830 Par ch=1 c=64 v=127
355082 On ch=1 n=g#4 v=0
355084 On ch=1 n=g#5 v=88
355094 On ch=1 n=c#5 v=0
355094 On ch=1 n=b4 v=60
355104 On ch=1 n=c#6 v=0
355356 On ch=1 n=d5 v=0
355430 On ch=1 n=f5 v=0
355544 On ch=1 n=g#4 v=89
355596 On ch=1 n=g#5 v=0
355734 On ch=1 n=b4 v=0
356086 On ch=1 n=c#6 v=92
356090 On ch=1 n=c#5 v=70
356102 On ch=1 n=d#5 v=62
356102 On ch=1 n=f#5 v=90
356200 On ch=1 n=g#4 v=0
356228 Par ch=1 c=64 v=63
356266 Par ch=1 c=64 v=0
356300 Par ch=1 c=64 v=63
356368 Par ch=1 c=64 v=127
356598 On ch=1 n=g#5 v=88
356616 On ch=1 n=b4 v=48
356674 On ch=1 n=c#5 v=0
356678 On ch=1 n=c#6 v=0
357002 On ch=1 n=d#5 v=0
357036 On ch=1 n=f#5 v=0
357080 On ch=1 n=g#4 v=76
357276 On ch=1 n=g#5 v=0
357508 On ch=1 n=b4 v=0
357546 On ch=1 n=c#6 v=73
357552 On ch=1 n=c#5 v=47
357570 On ch=1 n=e5 v=48
357588 On ch=1 n=g5 v=50
357676 Par ch=1 c=64 v=63
357694 On ch=1 n=g#4 v=0
357808 Par ch=1 c=64 v=127
358060 On ch=1 n=c#6 v=0
358068 On ch=1 n=g#5 v=72
358082 On ch=1 n=e5 v=0
358098 On ch=1 n=b4 v=42
358162 On ch=1 n=c#5 v=0
358192 On ch=1 n=g5 v=0
358352 On ch=1 n=g#5 v=0
358568 On ch=1 n=g#4 v=46
358652 On ch=1 n=b4 v=0
359092 On ch=1 n=c#6 v=65
359098 On ch=1 n=g#5 v=46
359108 On ch=1 n=c#5 v=52
359118 On ch=1 n=g#4 v=0
359118 Par ch=1 c=64 v=63
359156 On ch=1 n=f5 v=11
359182 Par ch=1 c=64 v=127
359322 On ch=1 n=g#5 v=0
359354 On ch=1 n=f5 v=0
359456 On ch=1 n=c#6 v=0
359690 On ch=1 n=g#6 v=75
359698 On ch=1 n=b4 v=40
359710 On ch=1 n=c#5 v=0
359710 On ch=1 n=e5 v=27
359716 On ch=1 n=g#5 v=45
359948 Par ch=1 c=64 v=63
359984 Par ch=1 c=64 v=127
360220 On ch=1 n=c#5 v=65
360226 On ch=1 n=g#4 v=43
360266 On ch=1 n=b4 v=0
360322 On ch=1 n=e5 v=0
360338 On ch=1 n=g#6 v=0
360376 On ch=1 n=g#5 v=0
360428 On ch=1 n=c#5 v=0
360516 On ch=1 n=g#4 v=0
360698 On ch=1 n=c#6 v=85
360710 On ch=1 n=g#5 v=62
360718 On ch=1 n=c#5 v=67
360726 On ch=1 n=f5 v=28
360776 On ch=1 n=f5 v=0
360800 On ch=1 n=g#5 v=0
360832 On ch=1 n=c#6 v=0
360932 On ch=1 n=f#6 v=96
361104 On ch=1 n=f#6 v=0
361170 On ch=1 n=c#5 v=0
361184 On ch=1 n=b4 v=54
361190 On ch=1 n=g#6 v=91
361202 On ch=1 n=e5 v=35
361208 On ch=1 n=g#5 v=60
361290 Par ch=1 c=64 v=63
361380 Par ch=1 c=64 v=127
361650 On ch=1 n=g#5 v=0
361668 On ch=1 n=b4 v=0
361742 On ch=1 n=g#4 v=64
361746 On ch=1 n=c#5 v=41
361748 On ch=1 n=e5 v=0
361768 On ch=1 n=g#6 v=0
361938 On ch=1 n=g#4 v=0
361956 On ch=1 n=c#5 v=0
362052 On ch=1 n=c#7 v=88
362348 On ch=1 n=c#5 v=44
362354 On ch=1 n=g#5 v=40
362374 On ch=1 n=f6 v=59
362382 On ch=1 n=c#6 v=39
362386 On ch=1 n=f5 v=37
362392 Par ch=1 c=64 v=63
362462 Par ch=1 c=64 v=127
362622 On ch=1 n=c#6 v=0
362642 On ch=1 n=c#7 v=0
362656 On ch=1 n=c#5 v=0
362674 On ch=1 n=f5 v=0
362684 On ch=1 n=g#5 v=0
362694 On ch=1 n=f6 v=0
362794 Par ch=1 c=67 v=0
362836 On ch=1 n=g#5 v=55
362842 On ch=1 n=c7 v=88
362860 On ch=1 n=c5 v=50
362874 On ch=1 n=f5 v=47
362876 On ch=1 n=f6 v=59
362900 On ch=1 n=c6 v=19
362958 On ch=1 n=c7 v=0
362994 On ch=1 n=c6 v=0
363004 On ch=1 n=c5 v=0
363040 On ch=1 n=g#5 v=0
363054 On ch=1 n=f5 v=0
363070 On ch=1 n=c#7 v=104
363118 On ch=1 n=f6 v=0
363186 On ch=1 n=c#7 v=0
363316 On ch=1 n=a#4 v=67
363318 On ch=1 n=g#5 v=69
363318 On ch=1 n=a#6 v=88
363322 On ch=1 n=f5 v=64
363330 On ch=1 n=a#5 v=70
363346 On ch=1 n=f6 v=59
363408 On ch=1 n=a#5 v=0
363426 On ch=1 n=f5 v=0
363432 On ch=1 n=g#5 v=0
363436 On ch=1 n=a#6 v=0
363468 On ch=1 n=a#4 v=0
363476 On ch=1 n=f6 v=0
363526 On ch=1 n=c7 v=96
363612 On ch=1 n=c7 v=0
363792 On ch=1 n=f4 v=50
363794 On ch=1 n=f6 v=81
363814 On ch=1 n=c5 v=50
363818 On ch=1 n=c6 v=56
363822 On ch=1 n=d#5 v=67
363868 Par ch=1 c=64 v=63
363926 Par ch=1 c=64 v=127
364074 On ch=1 n=c6 v=0
364090 On ch=1 n=c5 v=0
364100 On ch=1 n=d#5 v=0
364146 On ch=1 n=f4 v=0
364150 On ch=1 n=f6 v=0
364358 On ch=1 n=d#5 v=53
364370 On ch=1 n=g#6 v=76
364378 On ch=1 n=g#4 v=45
364388 On ch=1 n=c5 v=42
364402 On ch=1 n=g#5 v=33
364402 On ch=1 n=d#6 v=55
364410 Par ch=1 c=64 v=63
364484 Par ch=1 c=64 v=127
364524 On ch=1 n=d#5 v=0
364546 On ch=1 n=c5 v=0
364598 On ch=1 n=g#4 v=0
364974 On ch=1 n=f3 v=67
365030 On ch=1 n=g#5 v=0
365100 On ch=1 n=g#6 v=0
365124 On ch=1 n=d#6 v=0
365264 On ch=1 n=f3 v=0
365728 On ch=1 n=a#2 v=58
365730 On ch=1 n=a#6 v=77
365736 On ch=1 n=a#5 v=49
365740 On ch=1 n=c#6 v=67
365802 Par ch=1 c=64 v=63
365832 Par ch=1 c=64 v=0
365854 Par ch=1 c=64 v=63
365906 Par ch=1 c=64 v=127
366060 On ch=1 n=a#2 v=0
366226 On ch=1 n=a#6 v=0
366408 On ch=1 n=f6 v=74
366418 On ch=1 n=f5 v=66
366518 On ch=1 n=a#5 v=0
366546 On ch=1 n=f5 v=0
366938 On ch=1 n=g#6 v=87
366944 On ch=1 n=g#5 v=67
366992 On ch=1 n=f6 v=0
367010 On ch=1 n=c#6 v=0
367462 Par ch=1 c=64 v=63
367482 On ch=1 n=g#3 v=63
367504 On ch=1 n=c#3 v=60
367534 On ch=1 n=b5 v=64
367552 Par ch=1 c=64 v=127
367806 On ch=1 n=g#6 v=0
367874 On ch=1 n=g#5 v=0
368120 On ch=1 n=f6 v=69
368136 On ch=1 n=f5 v=47
368204 On ch=1 n=b5 v=0
368246 On ch=1 n=f6 v=0
368346 On ch=1 n=f5 v=0
368634 On ch=1 n=c#3 v=0
368714 On ch=1 n=g#3 v=0
368756 On ch=1 n=c#6 v=58
368918 Par ch=1 c=64 v=63
368978 Par ch=1 c=64 v=127
369202 On ch=1 n=c#6 v=0
369352 On ch=1 n=f#3 v=32
369418 On ch=1 n=c#4 v=37
369442 On ch=1 n=f#5 v=69
369466 On ch=1 n=a#4 v=44
369592 On ch=1 n=f#5 v=0
369606 On ch=1 n=f#3 v=0
369616 On ch=1 n=a#4 v=0
369728 On ch=1 n=c#4 v=0
370016 On ch=1 n=a#5 v=86
370242 On ch=1 n=c6 v=80
370252 On ch=1 n=a#5 v=0
370472 On ch=1 n=c6 v=0
370504 On ch=1 n=c#6 v=97
370514 On ch=1 n=a#3 v=50
370516 On ch=1 n=g#4 v=55
370532 On ch=1 n=f5 v=68
370678 On ch=1 n=g#4 v=0
370694 On ch=1 n=f5 v=0
370704 On ch=1 n=c#6 v=0
370706 On ch=1 n=a#3 v=0
371022 On ch=1 n=g#6 v=88
371042 On ch=1 n=b5 v=70
371042 On ch=1 n=g#5 v=40
371044 On ch=1 n=g#3 v=58
371058 On ch=1 n=c#3 v=36
371116 Par ch=1 c=64 v=63
371150 Par ch=1 c=64 v=127
371282 On ch=1 n=g#6 v=0
371350 On ch=1 n=g#5 v=0
371532 On ch=1 n=f6 v=72
371546 On ch=1 n=f5 v=37
371650 On ch=1 n=f6 v=0
371698 On ch=1 n=f5 v=0
371740 On ch=1 n=b5 v=0
371948 On ch=1 n=c#3 v=0
372062 On ch=1 n=g#3 v=0
372144 On ch=1 n=c#6 v=69
372442 Par ch=1 c=64 v=63
372460 Par ch=1 c=64 v=127
372626 On ch=1 n=c#6 v=0
372796 On ch=1 n=f#3 v=42
372826 On ch=1 n=c#4 v=27
372830 On ch=1 n=a#4 v=38
372838 On ch=1 n=f#5 v=65
373056 On ch=1 n=f#3 v=0
373060 On ch=1 n=f#5 v=0
373078 On ch=1 n=a#4 v=0
373184 On ch=1 n=c#4 v=0
373412 On ch=1 n=a#5 v=78
373616 On ch=1 n=a#5 v=0
373650 On ch=1 n=c6 v=80
373898 On ch=1 n=g#4 v=48
373910 On ch=1 n=c6 v=0
373910 On ch=1 n=a#3 v=43
373928 On ch=1 n=f5 v=67
373934 On ch=1 n=c#5 v=56
373956 Par ch=1 c=64 v=63
374020 Par ch=1 c=64 v=127
374176 On ch=1 n=g#4 v=0
374242 On ch=1 n=c#5 v=0
374382 On ch=1 n=a#3 v=0
374432 On ch=1 n=g#3 v=35
374438 On ch=1 n=c5 v=68
374446 On ch=1 n=f#4 v=36
374482 Par ch=1 c=64 v=63
374504 On ch=1 n=f5 v=0
374536 Par ch=1 c=64 v=127
374790 On ch=1 n=c5 v=0
374962 On ch=1 n=f#5 v=79
375096 On ch=1 n=f#4 v=0
375176 On ch=1 n=f#5 v=0
375220 On ch=1 n=g#5 v=63
375452 On ch=1 n=g#5 v=0
375460 On ch=1 n=f#5 v=78
375464 On ch=1 n=g#3 v=0
375478 On ch=1 n=a#3 v=34
375480 On ch=1 n=g#4 v=46
375496 On ch=1 n=c#5 v=49
375650 On ch=1 n=g#4 v=0
375672 On ch=1 n=f5 v=79
375674 On ch=1 n=f#5 v=0
375794 On ch=1 n=f5 v=0
375812 On ch=1 n=c#5 v=0
375908 On ch=1 n=a#3 v=0
375918 On ch=1 n=c#4 v=50
375928 On ch=1 n=d#5 v=80
375938 On ch=1 n=f#3 v=46
375944 On ch=1 n=a#4 v=49
376080 Par ch=1 c=64 v=63
376104 Par ch=1 c=64 v=127
376170 On ch=1 n=f5 v=69
376180 On ch=1 n=d#5 v=0
376432 On ch=1 n=f#3 v=0
376448 On ch=1 n=c#4 v=0
376452 On ch=1 n=f5 v=0
376470 On ch=1 n=f#4 v=39
376472 On ch=1 n=g#3 v=30
376480 On ch=1 n=c5 v=59
376508 Par ch=1 c=64 v=63
376632 Par ch=1 c=64 v=127
376798 On ch=1 n=a#4 v=0
377032 On ch=1 n=g#4 v=44
377124 Par ch=1 c=64 v=63
377164 Par ch=1 c=64 v=127
377308 On ch=1 n=f#4 v=0
377342 On ch=1 n=g#4 v=0
377396 On ch=1 n=c5 v=0
377652 On ch=1 n=g#4 v=45
377670 On ch=1 n=c#5 v=65
377688 On ch=1 n=f4 v=36
377714 On ch=1 n=g#3 v=0
377782 Par ch=1 c=64 v=63
377880 Par ch=1 c=64 v=0
378332 On ch=1 n=g#3 v=50
378402 Par ch=1 c=64 v=63
378432 On ch=1 n=g#3 v=0
378454 Par ch=1 c=64 v=127
378778 On ch=1 n=f4 v=0
379220 On ch=1 n=c#3 v=42
379380 On ch=1 n=c#3 v=0
379694 On ch=1 n=g#4 v=0
379774 On ch=1 n=c#5 v=0
380416 On ch=1 n=c#5 v=10
380448 On ch=1 n=d#7 v=35
380480 On ch=1 n=c#7 v=63
380510 On ch=1 n=e5 v=39
380512 Par ch=1 c=64 v=63
380526 On ch=1 n=d#7 v=0
380566 On ch=1 n=b5 v=62
380574 Par ch=1 c=64 v=127
380614 On ch=1 n=c#7 v=0
380646 On ch=1 n=c#6 v=82
381096 On ch=1 n=b5 v=0
381168 On ch=1 n=e5 v=0
381254 On ch=1 n=c#5 v=0
381330 On ch=1 n=g#6 v=73
381620 On ch=1 n=c#6 v=0
381852 On ch=1 n=c#4 v=45
381980 On ch=1 n=c#4 v=0
382074 On ch=1 n=g#6 v=0
382334 On ch=1 n=c#5 v=53
382388 On ch=1 n=f#5 v=55
382458 On ch=1 n=a#5 v=43
382468 On ch=1 n=c7 v=61
382502 On ch=1 n=a#6 v=63
382540 On ch=1 n=e6 v=84
382678 On ch=1 n=c7 v=0
382800 On ch=1 n=f#6 v=99
382810 On ch=1 n=a#6 v=0
382914 On ch=1 n=a#5 v=0
382952 On ch=1 n=f#5 v=0
383012 On ch=1 n=c#5 v=0
383048 On ch=1 n=e6 v=0
383078 On ch=1 n=g#6 v=99
383160 On ch=1 n=f#6 v=0
383554 On ch=1 n=c#4 v=66
383586 On ch=1 n=g#6 v=0
383650 On ch=1 n=c#4 v=0
383932 On ch=1 n=b4 v=57
383992 On ch=1 n=e5 v=55
384080 On ch=1 n=g#5 v=62
384092 On ch=1 n=d6 v=59
384106 On ch=1 n=f#6 v=65
384192 On ch=1 n=c#7 v=78
384436 On ch=1 n=d6 v=0
384476 On ch=1 n=c#7 v=0
384510 On ch=1 n=f#6 v=0
384532 On ch=1 n=g#5 v=0
384572 On ch=1 n=e5 v=0
384630 On ch=1 n=b4 v=0
384712 On ch=1 n=c#7 v=91
384824 On ch=1 n=c#7 v=0
384962 On ch=1 n=c#7 v=97
385206 On ch=1 n=c#4 v=76
385210 On ch=1 n=b6 v=85
385216 On ch=1 n=c#7 v=0
385316 On ch=1 n=c#4 v=0
385442 On ch=1 n=c#7 v=91
385460 On ch=1 n=b6 v=0
385520 On ch=1 n=c#7 v=0
385642 On ch=1 n=g#4 v=50
385682 On ch=1 n=d5 v=57
385736 On ch=1 n=f5 v=51
385768 On ch=1 n=b5 v=47
385800 On ch=1 n=d6 v=57
385842 On ch=1 n=a6 v=71
385858 Par ch=1 c=64 v=63
385910 Par ch=1 c=64 v=127
386162 On ch=1 n=b5 v=0
386250 On ch=1 n=d6 v=0
386294 On ch=1 n=f5 v=0
386344 On ch=1 n=d5 v=0
386448 On ch=1 n=g#4 v=0
386456 On ch=1 n=a6 v=0
386458 On ch=1 n=g#6 v=61
387066 On ch=1 n=c#4 v=54
387140 On ch=1 n=g#6 v=0
387512 On ch=1 n=c#4 v=0
387862 On ch=1 n=g#6 v=62
387880 On ch=1 n=f#3 v=44
387882 On ch=1 n=a#5 v=36
387882 On ch=1 n=c#6 v=58
388050 Par ch=1 c=64 v=63
388182 Par ch=1 c=64 v=127
388548 On ch=1 n=f#6 v=85
388562 On ch=1 n=f#3 v=0
388564 On ch=1 n=c#4 v=53
388578 On ch=1 n=g#6 v=0
388636 On ch=1 n=c#6 v=0
388820 On ch=1 n=g#6 v=96
388968 On ch=1 n=f#6 v=0
388970 On ch=1 n=a#5 v=0
389088 On ch=1 n=e6 v=92
389096 On ch=1 n=c#5 v=80
389102 On ch=1 n=c#4 v=0
389130 On ch=1 n=g#6 v=0
389184 On ch=1 n=c#5 v=0
389298 On ch=1 n=d#6 v=98
389348 On ch=1 n=e6 v=0
389388 On ch=1 n=d#6 v=0
389570 On ch=1 n=c#6 v=81
389574 On ch=1 n=f#6 v=88
389598 On ch=1 n=c6 v=72
389606 On ch=1 n=a5 v=59
389614 On ch=1 n=c#6 v=0
390110 On ch=1 n=c#5 v=76
390182 On ch=1 n=a5 v=0
390260 On ch=1 n=c6 v=0
390274 On ch=1 n=c#5 v=0
390598 On ch=1 n=c#6 v=76
390600 On ch=1 n=c#4 v=52
390714 On ch=1 n=f#6 v=0
390828 On ch=1 n=e6 v=86
390874 On ch=1 n=c#6 v=0
391044 On ch=1 n=f#3 v=37
391110 On ch=1 n=c#6 v=70
391114 On ch=1 n=g#6 v=73
391116 On ch=1 n=c#4 v=0
391124 On ch=1 n=a#5 v=51
391172 Par ch=1 c=64 v=63
391174 On ch=1 n=e6 v=0
391192 Par ch=1 c=64 v=0
391232 Par ch=1 c=64 v=63
391282 Par ch=1 c=64 v=127
391686 On ch=1 n=c#4 v=61
391688 On ch=1 n=f#6 v=81
391738 On ch=1 n=g#6 v=0
391760 On ch=1 n=f#3 v=0
391916 On ch=1 n=g#6 v=93
391932 On ch=1 n=c#6 v=0
392002 On ch=1 n=a#5 v=0
392030 On ch=1 n=f#6 v=0
392114 On ch=1 n=c#4 v=0
392156 On ch=1 n=c#5 v=88
392164 On ch=1 n=e6 v=85
392222 On ch=1 n=g#6 v=0
392294 On ch=1 n=c#5 v=0
392356 On ch=1 n=d#6 v=100
392408 On ch=1 n=e6 v=0
392454 On ch=1 n=d#6 v=0
392616 On ch=1 n=f#6 v=94
392622 On ch=1 n=c#6 v=93
392632 On ch=1 n=c6 v=76
392638 On ch=1 n=a5 v=45
392674 On ch=1 n=c#6 v=0
393146 On ch=1 n=c#5 v=87
393148 On ch=1 n=c6 v=0
393218 On ch=1 n=c#5 v=0
393402 On ch=1 n=a5 v=0
393628 On ch=1 n=f#6 v=0
393670 On ch=1 n=c#6 v=82
393674 On ch=1 n=c#4 v=61
393870 On ch=1 n=c#4 v=0
393940 On ch=1 n=e6 v=76
393944 On ch=1 n=c#6 v=0
394220 On ch=1 n=e6 v=0
394278 On ch=1 n=f#3 v=60
394298 On ch=1 n=g#6 v=72
394300 On ch=1 n=g#5 v=63
394300 On ch=1 n=a#5 v=57
394308 On ch=1 n=c#6 v=63
394388 Par ch=1 c=64 v=63
394424 Par ch=1 c=64 v=127
394656 On ch=1 n=g#6 v=0
394686 On ch=1 n=c#6 v=0
394792 On ch=1 n=a#5 v=0
394940 On ch=1 n=c#4 v=63
394972 On ch=1 n=f#3 v=0
394994 On ch=1 n=f#5 v=55
395010 On ch=1 n=g#5 v=0
395236 On ch=1 n=g#5 v=77
395238 On ch=1 n=c#4 v=0
395250 On ch=1 n=f#5 v=0
395492 On ch=1 n=g#5 v=0
395506 On ch=1 n=c#5 v=72
395506 On ch=1 n=e5 v=76
395584 On ch=1 n=c#5 v=0
395742 On ch=1 n=d#5 v=99
395774 On ch=1 n=e5 v=0
395994 On ch=1 n=d#5 v=0
396020 On ch=1 n=c#6 v=80
396034 On ch=1 n=f#5 v=85
396050 On ch=1 n=c5 v=55
396054 On ch=1 n=a4 v=46
396104 On ch=1 n=c#6 v=0
396402 On ch=1 n=f#5 v=0
396492 On ch=1 n=a4 v=0
396510 On ch=1 n=c5 v=0
396564 On ch=1 n=c#5 v=75
396584 On ch=1 n=e5 v=73
396662 On ch=1 n=c#5 v=0
396776 On ch=1 n=f#5 v=82
396828 On ch=1 n=e5 v=0
397044 On ch=1 n=d5 v=75
397052 On ch=1 n=c#4 v=60
397088 On ch=1 n=f#5 v=0
397212 On ch=1 n=c#4 v=0
397286 On ch=1 n=c#5 v=85
397356 On ch=1 n=d5 v=0
397480 On ch=1 n=c#5 v=0
397638 On ch=1 n=e5 v=80
397660 On ch=1 n=f#3 v=67
397666 On ch=1 n=c5 v=67
397668 On ch=1 n=a4 v=27
397872 Par ch=1 c=64 v=63
397880 Par ch=1 c=64 v=127
398040 Par ch=1 c=64 v=63
398046 Par ch=1 c=64 v=0
398144 Par ch=1 c=64 v=63
398154 Par ch=1 c=64 v=127
398258 On ch=1 n=c#4 v=58
398274 On ch=1 n=d5 v=68
398314 On ch=1 n=e5 v=0
398402 On ch=1 n=f#3 v=0
398466 On ch=1 n=c#4 v=0
398568 On ch=1 n=e5 v=71
398602 On ch=1 n=c5 v=0
398608 On ch=1 n=d5 v=0
398818 On ch=1 n=a4 v=0
398858 On ch=1 n=c#5 v=89
398914 On ch=1 n=e5 v=0
399146 On ch=1 n=c5 v=92
399196 On ch=1 n=c#5 v=0
399232 On ch=1 n=c5 v=0
399574 On ch=1 n=c#6 v=76
399592 On ch=1 n=a4 v=68
399600 On ch=1 n=f#4 v=70
399702 On ch=1 n=c#6 v=0
400280 On ch=1 n=c#5 v=66
400494 On ch=1 n=a4 v=0
400530 On ch=1 n=c#5 v=0
400540 On ch=1 n=f#4 v=0
400980 On ch=1 n=c#4 v=46
400988 On ch=1 n=d4 v=45
400994 On ch=1 n=c4 v=46
401254 On ch=1 n=c#4 v=0
401746 On ch=1 n=f#3 v=50
401940 On ch=1 n=f#3 v=0
402646 On ch=1 n=c#3 v=33
402788 On ch=1 n=c#3 v=0
404006 On ch=1 n=f#2 v=20
404200 On ch=1 n=f#2 v=0
406358 On ch=1 n=c4 v=0
406368 On ch=1 n=d4 v=0
406762 On ch=1 n=c#2 v=63
407152 Par ch=1 c=64 v=63
407170 Par ch=1 c=64 v=0
407260 Par ch=1 c=64 v=63
407276 Par ch=1 c=64 v=127
407440 On ch=1 n=c#2 v=0
408004 On ch=1 n=c#5 v=57
408014 On ch=1 n=g#5 v=69
408032 On ch=1 n=c#4 v=37
408036 On ch=1 n=g#4 v=52
408042 On ch=1 n=f5 v=50
408226 On ch=1 n=c#5 v=0
408346 On ch=1 n=c#4 v=0
408368 On ch=1 n=g#4 v=0
408526 On ch=1 n=a#5 v=88
408532 On ch=1 n=a#4 v=60
408540 On ch=1 n=f5 v=0
408596 On ch=1 n=a#4 v=0
408598 On ch=1 n=g#5 v=0
408648 On ch=1 n=a#5 v=0
409002 On ch=1 n=c6 v=94
409018 On ch=1 n=c#5 v=64
409020 On ch=1 n=f5 v=50
409024 On ch=1 n=c5 v=63
409094 On ch=1 n=f5 v=0
409136 On ch=1 n=c#5 v=0
409386 On ch=1 n=c5 v=0
409610 On ch=1 n=c6 v=0
409684 On ch=1 n=a#3 v=83
409688 On ch=1 n=f4 v=84
409788 On ch=1 n=f4 v=0
409806 On ch=1 n=a#3 v=0
410056 On ch=1 n=c#6 v=106
410064 On ch=1 n=c#5 v=90
410136 On ch=1 n=c#5 v=0
410194 On ch=1 n=c#6 v=0
410446 On ch=1 n=c#5 v=75
410452 On ch=1 n=f5 v=69
410458 On ch=1 n=d#6 v=110
410470 On ch=1 n=d#5 v=93
410472 On ch=1 n=g#5 v=95
410568 Par ch=1 c=64 v=63
410622 Par ch=1 c=64 v=127
410762 On ch=1 n=f5 v=0
410798 On ch=1 n=c#5 v=0
411176 On ch=1 n=d#5 v=0
411216 On ch=1 n=c4 v=108
411218 On ch=1 n=f3 v=101
411226 On ch=1 n=g#5 v=0
411232 On ch=1 n=d#6 v=0
411528 On ch=1 n=f3 v=0
411566 On ch=1 n=c4 v=0
411676 On ch=1 n=f6 v=111
411680 On ch=1 n=f5 v=107
411860 On ch=1 n=f5 v=0
411904 On ch=1 n=f6 v=0
412256 On ch=1 n=g6 v=101
412266 On ch=1 n=g5 v=96
412266 On ch=1 n=d#6 v=98
412268 On ch=1 n=g#5 v=105
412272 On ch=1 n=d#5 v=98
412276 On ch=1 n=g#4 v=85
412286 On ch=1 n=c5 v=84
412392 On ch=1 n=g#5 v=0
412418 On ch=1 n=d#5 v=0
412430 On ch=1 n=c5 v=0
412446 On ch=1 n=g#4 v=0
412622 On ch=1 n=g5 v=0
412652 On ch=1 n=g6 v=0
412832 On ch=1 n=d#6 v=0
412962 On ch=1 n=g#6 v=113
412964 On ch=1 n=g#5 v=112
413030 On ch=1 n=g#5 v=0
413078 On ch=1 n=g#6 v=0
413442 On ch=1 n=c#3 v=108
413442 On ch=1 n=g#3 v=112
413476 Par ch=1 c=64 v=63
413488 Par ch=1 c=64 v=0
413546 Par ch=1 c=64 v=63
413564 Par ch=1 c=64 v=127
413654 On ch=1 n=c#3 v=0
413684 On ch=1 n=g#3 v=0
413990 On ch=1 n=c#7 v=109
413994 On ch=1 n=a#5 v=105
413996 On ch=1 n=f#6 v=108
414000 On ch=1 n=c#6 v=108
414004 On ch=1 n=f#5 v=100
414010 On ch=1 n=c#5 v=87
414010 On ch=1 n=d#5 v=90
415680 On ch=1 n=d#5 v=0
415690 On ch=1 n=f#5 v=0
415692 On ch=1 n=f#6 v=0
415734 On ch=1 n=a#5 v=0
415878 On ch=1 n=c#5 v=0
415890 On ch=1 n=c#6 v=0
416182 On ch=1 n=g#5 v=85
416182 On ch=1 n=c#6 v=100
416184 On ch=1 n=f6 v=100
416200 On ch=1 n=f5 v=77
416202 On ch=1 n=c5 v=74
416202 On ch=1 n=c#5 v=78
416706 On ch=1 n=f5 v=0
416710 On ch=1 n=c#6 v=0
416716 On ch=1 n=c#7 v=0
416740 On ch=1 n=c5 v=0
416740 On ch=1 n=g#5 v=0
416790 On ch=1 n=c#5 v=0
417236 On ch=1 n=f#5 v=63
417240 On ch=1 n=d#5 v=70
417250 On ch=1 n=c#5 v=65
417254 On ch=1 n=c#7 v=91
417258 On ch=1 n=c#6 v=81
417258 On ch=1 n=d#6 v=72
417260 On ch=1 n=a#4 v=45
417308 On ch=1 n=f6 v=0
417960 On ch=1 n=c#5 v=0
417996 On ch=1 n=a#4 v=0
418016 On ch=1 n=d#5 v=0
418044 On ch=1 n=f#5 v=0
418056 On ch=1 n=c#6 v=0
418078 On ch=1 n=d#6 v=0
418678 On ch=1 n=f6 v=72
418680 On ch=1 n=g#5 v=22
418680 On ch=1 n=c#5 v=63
418682 On ch=1 n=c#6 v=50
418682 On ch=1 n=g#4 v=43
418682 On ch=1 n=f5 v=40
419022 Par ch=1 c=64 v=63
419074 Par ch=1 c=64 v=0
419166 Par ch=1 c=64 v=63
419188 Par ch=1 c=64 v=127
419478 On ch=1 n=g#5 v=0
419518 On ch=1 n=f5 v=0
419542 On ch=1 n=c#5 v=0
419600 On ch=1 n=g#4 v=0
420794 On ch=1 n=c#3 v=34
420812 On ch=1 n=g#3 v=29
420978 On ch=1 n=c#3 v=0
420994 On ch=1 n=g#3 v=0
425346 On ch=1 n=c#6 v=0
425388 On ch=1 n=f6 v=0
425388 On ch=1 n=c#7 v=0
425792 Par ch=1 c=64 v=63
425874 Par ch=1 c=64 v=0
427032 On ch=1 n=c#5 v=114
427078 Par ch=1 c=64 v=127
427116 On ch=1 n=d#5 v=112
427146 On ch=1 n=c#5 v=0
427196 On ch=1 n=d#5 v=0
427214 On ch=1 n=f#5 v=95
427290 On ch=1 n=f#5 v=0
427304 On ch=1 n=a5 v=88
427372 On ch=1 n=a5 v=0
427396 On ch=1 n=c#6 v=112
427446 On ch=1 n=c#6 v=0
427478 On ch=1 n=d#6 v=99
427588 On ch=1 n=d#6 v=0
427590 On ch=1 n=c#6 v=101
427656 On ch=1 n=c#6 v=0
427670 On ch=1 n=d#6 v=103
427782 On ch=1 n=c#6 v=100
427790 On ch=1 n=d#6 v=0
427852 On ch=1 n=c#6 v=0
427870 On ch=1 n=a5 v=87
427932 On ch=1 n=a5 v=0
427970 On ch=1 n=a5 v=85
428056 On ch=1 n=a5 v=0
428066 On ch=1 n=f#5 v=99
428112 On ch=1 n=f#5 v=0
428142 Par ch=1 c=64 v=63
428146 Par ch=1 c=64 v=0
428162 On ch=1 n=c#5 v=112
428224 Par ch=1 c=64 v=63
428232 Par ch=1 c=64 v=127
428254 On ch=1 n=d#5 v=100
428276 On ch=1 n=c#5 v=0
428328 On ch=1 n=d#5 v=0
428344 On ch=1 n=f#5 v=99
428422 On ch=1 n=f#5 v=0
428442 On ch=1 n=a5 v=71
428482 On ch=1 n=a5 v=0
428526 On ch=1 n=c#6 v=118
428580 On ch=1 n=c#6 v=0
428604 On ch=1 n=d#6 v=101
428702 On ch=1 n=d#6 v=0
428706 On ch=1 n=c#6 v=101
428776 On ch=1 n=c#6 v=0
428784 On ch=1 n=d#6 v=101
428878 On ch=1 n=d#6 v=0
428902 On ch=1 n=c#6 v=107
428972 On ch=1 n=c#6 v=0
428984 On ch=1 n=a5 v=85
429046 On ch=1 n=a5 v=0
429084 On ch=1 n=a5 v=90
429172 On ch=1 n=a5 v=0
429178 On ch=1 n=f#5 v=106
429230 On ch=1 n=f#5 v=0
429244 Par ch=1 c=64 v=63
429250 Par ch=1 c=64 v=0
429278 On ch=1 n=c#5 v=115
429326 Par ch=1 c=64 v=63
429334 Par ch=1 c=64 v=127
429366 On ch=1 n=d#5 v=104
429378 On ch=1 n=c#5 v=0
429428 On ch=1 n=d#5 v=0
429454 On ch=1 n=f#5 v=95
429532 On ch=1 n=f#5 v=0
429542 On ch=1 n=a5 v=80
429598 On ch=1 n=a5 v=0
429648 On ch=1 n=c#6 v=120
429702 On ch=1 n=c#6 v=0
429730 On ch=1 n=d#6 v=100
429830 On ch=1 n=d#6 v=0
429838 On ch=1 n=c#6 v=101
429910 On ch=1 n=c#6 v=0
429914 On ch=1 n=d#6 v=104
430024 On ch=1 n=c#6 v=104
430054 On ch=1 n=d#6 v=0
430104 On ch=1 n=c#6 v=0
430120 On ch=1 n=a5 v=89
430180 On ch=1 n=a5 v=0
430220 On ch=1 n=a5 v=83
430310 On ch=1 n=a5 v=0
430314 On ch=1 n=f#5 v=108
430352 Par ch=1 c=64 v=63
430358 Par ch=1 c=64 v=0
430368 On ch=1 n=f#5 v=0
430424 On ch=1 n=c#5 v=112
430442 Par ch=1 c=64 v=63
430450 Par ch=1 c=64 v=127
430492 On ch=1 n=d#5 v=99
430526 On ch=1 n=c#5 v=0
430598 On ch=1 n=f#5 v=99
430606 On ch=1 n=d#5 v=0
430672 On ch=1 n=f#5 v=0
430678 On ch=1 n=c#6 v=104
430720 On ch=1 n=a5 v=57
430732 On ch=1 n=c#6 v=0
430776 On ch=1 n=f#6 v=118
430780 On ch=1 n=a5 v=0
430790 On ch=1 n=c#6 v=96
430880 On ch=1 n=c#6 v=0
430896 On ch=1 n=d#6 v=106
430980 On ch=1 n=d#6 v=0
430980 On ch=1 n=c#6 v=96
431048 On ch=1 n=c#6 v=0
431068 On ch=1 n=d#6 v=88
431146 On ch=1 n=c#6 v=95
431162 On ch=1 n=d#6 v=0
431194 On ch=1 n=c#6 v=0
431258 On ch=1 n=a5 v=78
431332 On ch=1 n=a5 v=0
431338 On ch=1 n=f#5 v=103
431438 On ch=1 n=d#5 v=88
431442 On ch=1 n=f#6 v=0
431454 On ch=1 n=f#5 v=0
431532 On ch=1 n=c#5 v=105
431540 On ch=1 n=d#5 v=0
431590 Par ch=1 c=64 v=63
431598 Par ch=1 c=64 v=0
431606 On ch=1 n=d#5 v=94
431644 On ch=1 n=c#5 v=0
431650 Par ch=1 c=64 v=63
431666 Par ch=1 c=64 v=127
431714 On ch=1 n=f#5 v=103
431738 On ch=1 n=d#5 v=0
431776 On ch=1 n=f#5 v=0
431798 On ch=1 n=a5 v=100
431856 On ch=1 n=a5 v=0
431882 On ch=1 n=e6 v=111
431884 On ch=1 n=c#6 v=110
431958 On ch=1 n=c#6 v=0
431990 On ch=1 n=d#6 v=105
432094 On ch=1 n=c#6 v=88
432112 On ch=1 n=d#6 v=0
432178 On ch=1 n=c#6 v=0
432184 On ch=1 n=d#6 v=88
432254 On ch=1 n=d#6 v=0
432272 On ch=1 n=c#6 v=87
432334 On ch=1 n=c#6 v=0
432386 On ch=1 n=a5 v=91
432462 On ch=1 n=a5 v=0
432470 On ch=1 n=f#5 v=100
432540 On ch=1 n=e6 v=0
432558 On ch=1 n=d#5 v=96
432570 On ch=1 n=f#5 v=0
432664 On ch=1 n=c#5 v=106
432670 On ch=1 n=d#5 v=0
432670 Par ch=1 c=64 v=63
432678 Par ch=1 c=64 v=0
432726 On ch=1 n=d#5 v=93
432754 Par ch=1 c=64 v=63
432764 Par ch=1 c=64 v=127
432770 On ch=1 n=c#5 v=0
432842 On ch=1 n=d#5 v=0
432852 On ch=1 n=a5 v=77
432910 On ch=1 n=a5 v=0
432918 On ch=1 n=f#5 v=104
432998 On ch=1 n=f#5 v=0
433016 On ch=1 n=b5 v=107
433018 On ch=1 n=d#6 v=110
433102 On ch=1 n=b5 v=0
433116 On ch=1 n=f#5 v=105
433154 On ch=1 n=d#6 v=0
433190 On ch=1 n=f#5 v=0
433228 On ch=1 n=b5 v=62
433280 On ch=1 n=b5 v=0
433308 On ch=1 n=a5 v=93
433346 Par ch=1 c=64 v=63
433352 Par ch=1 c=64 v=0
433386 On ch=1 n=c#6 v=114
433392 On ch=1 n=e6 v=109
433430 On ch=1 n=a5 v=0
433434 Par ch=1 c=64 v=63
433440 Par ch=1 c=64 v=127
433506 On ch=1 n=a5 v=76
433586 On ch=1 n=f#5 v=89
433592 On ch=1 n=a5 v=0
433686 On ch=1 n=d#5 v=79
433698 On ch=1 n=f#5 v=0
433728 Par ch=1 c=64 v=63
433732 Par ch=1 c=64 v=0
433786 On ch=1 n=d#5 v=0
433786 On ch=1 n=c#5 v=100
433798 Par ch=1 c=64 v=63
433804 Par ch=1 c=64 v=127
433808 On ch=1 n=c#6 v=0
433828 On ch=1 n=e6 v=0
433852 On ch=1 n=d#5 v=91
433888 On ch=1 n=c#5 v=0
433948 On ch=1 n=f#5 v=89
433956 On ch=1 n=d#5 v=0
434026 On ch=1 n=f#5 v=0
434048 On ch=1 n=a5 v=47
434068 On ch=1 n=c#6 v=99
434112 On ch=1 n=a5 v=0
434120 On ch=1 n=c#6 v=0
434162 On ch=1 n=c#6 v=98
434168 On ch=1 n=f#6 v=116
434250 On ch=1 n=c#6 v=0
434254 On ch=1 n=d#6 v=95
434328 On ch=1 n=c#6 v=79
434338 On ch=1 n=d#6 v=0
434416 On ch=1 n=c#6 v=0
434432 On ch=1 n=d#6 v=83
434514 On ch=1 n=c#6 v=96
434524 On ch=1 n=d#6 v=0
434566 On ch=1 n=c#6 v=0
434610 On ch=1 n=a5 v=76
434680 On ch=1 n=a5 v=0
434692 On ch=1 n=f#5 v=93
434782 On ch=1 n=d#5 v=91
434792 On ch=1 n=f#5 v=0
434868 Par ch=1 c=64 v=63
434876 Par ch=1 c=64 v=0
434890 On ch=1 n=c#5 v=108
434934 Par ch=1 c=64 v=63
434944 On ch=1 n=f#6 v=0
434946 Par ch=1 c=64 v=127
435006 On ch=1 n=c#5 v=0
435074 On ch=1 n=f#5 v=93
435100 On ch=1 n=d#5 v=0
435100 On ch=1 n=e6 v=94
435164 On ch=1 n=f#5 v=0
435164 On ch=1 n=f#6 v=104
435176 On ch=1 n=a5 v=66
435182 On ch=1 n=e6 v=0
435258 On ch=1 n=c#7 v=115
435266 On ch=1 n=c#6 v=103
435268 On ch=1 n=a5 v=0
435290 On ch=1 n=f#6 v=0
435364 On ch=1 n=d#6 v=99
435370 On ch=1 n=c#6 v=0
435442 On ch=1 n=c#6 v=85
435454 On ch=1 n=d#6 v=0
435540 On ch=1 n=c#6 v=0
435544 On ch=1 n=d#6 v=86
435638 On ch=1 n=c#6 v=90
435650 On ch=1 n=d#6 v=0
435698 On ch=1 n=c#6 v=0
435736 On ch=1 n=a5 v=70
435812 On ch=1 n=a5 v=0
435816 On ch=1 n=f#5 v=96
435904 On ch=1 n=d#5 v=87
435912 On ch=1 n=f#5 v=0
436006 On ch=1 n=c#5 v=92
436008 On ch=1 n=d#5 v=0
436010 Par ch=1 c=64 v=63
436016 On ch=1 n=f#6 v=114
436052 Par ch=1 c=64 v=127
436074 On ch=1 n=d#5 v=90
436090 On ch=1 n=c#5 v=0
436106 On ch=1 n=g#6 v=103
436118 On ch=1 n=f#6 v=0
436174 On ch=1 n=d#5 v=0
436184 On ch=1 n=f#5 v=91
436200 On ch=1 n=f#6 v=108
436226 On ch=1 n=g#6 v=0
436258 On ch=1 n=f#5 v=0
436298 On ch=1 n=f#6 v=0
436300 On ch=1 n=a5 v=59
436300 On ch=1 n=g#6 v=103
436346 On ch=1 n=c#7 v=0
436384 On ch=1 n=c#6 v=92
436386 On ch=1 n=a5 v=0
436394 On ch=1 n=f#6 v=109
436410 On ch=1 n=g#6 v=0
436466 On ch=1 n=c#6 v=0
436484 On ch=1 n=g#6 v=105
436494 On ch=1 n=d#6 v=82
436498 On ch=1 n=f#6 v=0
436580 On ch=1 n=g#6 v=0
436580 On ch=1 n=c#6 v=88
436580 On ch=1 n=f#6 v=110
436584 On ch=1 n=d#6 v=0
436660 On ch=1 n=g#6 v=104
436662 On ch=1 n=c#6 v=0
436670 On ch=1 n=d#6 v=91
436678 On ch=1 n=f#6 v=0
436764 On ch=1 n=d#6 v=0
436764 On ch=1 n=f#6 v=107
436778 On ch=1 n=c#6 v=78
436782 On ch=1 n=g#6 v=0
436828 On ch=1 n=d#6 v=76
436852 On ch=1 n=c#6 v=0
436856 On ch=1 n=g#6 v=107
436872 On ch=1 n=f#6 v=0
436912 On ch=1 n=g#6 v=0
436960 On ch=1 n=d#6 v=0
436964 On ch=1 n=b6 v=100
436964 On ch=1 n=b5 v=68
436970 Par ch=1 c=64 v=63
436978 Par ch=1 c=64 v=0
437040 On ch=1 n=b6 v=0
437040 On ch=1 n=c#6 v=98
437050 On ch=1 n=c#7 v=113
437078 On ch=1 n=b5 v=0
437150 Par ch=1 c=64 v=127
437152 On ch=1 n=g#6 v=115
437156 On ch=1 n=g#7 v=114
437160 On ch=1 n=c#6 v=0
437176 On ch=1 n=c#7 v=0
437276 On ch=1 n=c#7 v=106
437306 On ch=1 n=g#7 v=0
437330 On ch=1 n=g#6 v=0
437362 On ch=1 n=a6 v=89
437366 On ch=1 n=c#7 v=0
437438 On ch=1 n=c#7 v=98
437448 On ch=1 n=a6 v=0
437498 On ch=1 n=c#7 v=0
437532 On ch=1 n=c#6 v=113
437586 On ch=1 n=c#6 v=0
437628 On ch=1 n=g#6 v=88
437720 On ch=1 n=c#6 v=91
437766 On ch=1 n=g#6 v=0
437816 On ch=1 n=a5 v=80
437858 On ch=1 n=c#6 v=0
437902 On ch=1 n=a5 v=0
437920 On ch=1 n=g#5 v=100
437984 On ch=1 n=a5 v=83
438068 On ch=1 n=c#6 v=85
438078 On ch=1 n=a5 v=0
438144 On ch=1 n=g#6 v=97
438180 On ch=1 n=g#5 v=0
438188 On ch=1 n=c#6 v=0
438252 On ch=1 n=g#6 v=0
438286 On ch=1 n=g#5 v=118
438356 On ch=1 n=g#6 v=78
438426 On ch=1 n=g#5 v=0
438462 On ch=1 n=c#6 v=75
438524 On ch=1 n=g#6 v=0
438546 On ch=1 n=a5 v=84
438568 On ch=1 n=c#6 v=0
438618 On ch=1 n=a5 v=0
438640 On ch=1 n=c#5 v=104
438702 On ch=1 n=c#5 v=0
438752 On ch=1 n=g#5 v=74
438826 On ch=1 n=c#5 v=90
438872 On ch=1 n=g#5 v=0
438936 On ch=1 n=a4 v=76
438954 On ch=1 n=c#5 v=0
439014 On ch=1 n=a4 v=0
439032 On ch=1 n=g#4 v=88
439104 On ch=1 n=g#4 v=0
439120 On ch=1 n=a4 v=69
439224 On ch=1 n=a4 v=0
439240 On ch=1 n=c#5 v=74
439334 On ch=1 n=c#5 v=0
439350 On ch=1 n=g#5 v=89
439462 On ch=1 n=g#5 v=0
439568 On ch=1 n=d4 v=63
439568 On ch=1 n=f#3 v=57
439580 On ch=1 n=g#5 v=93
439652 Par ch=1 c=64 v=63
439714 Par ch=1 c=64 v=127
439786 On ch=1 n=c5 v=55
439914 On ch=1 n=g#5 v=0
439922 On ch=1 n=g#4 v=73
439940 On ch=1 n=c5 v=0
440008 On ch=1 n=d4 v=0
440012 On ch=1 n=g#4 v=0
440034 On ch=1 n=d#4 v=61
440050 On ch=1 n=e5 v=94
440136 Par ch=1 c=64 v=63
440146 On ch=1 n=c#5 v=93
440162 Par ch=1 c=64 v=127
440268 On ch=1 n=a4 v=71
440316 On ch=1 n=c#5 v=0
440350 On ch=1 n=e5 v=0
440360 On ch=1 n=a4 v=0
440374 On ch=1 n=d#4 v=0
440384 On ch=1 n=g#5 v=107
440384 On ch=1 n=e4 v=85
440474 Par ch=1 c=64 v=63
440492 On ch=1 n=d5 v=85
440498 Par ch=1 c=64 v=127
440598 On ch=1 n=e4 v=0
440600 On ch=1 n=a#4 v=97
440624 On ch=1 n=g#5 v=0
440630 On ch=1 n=f#3 v=0
440682 On ch=1 n=d5 v=0
440704 On ch=1 n=a#4 v=0
440730 On ch=1 n=e5 v=100
440732 On ch=1 n=f4 v=98
440742 On ch=1 n=f#3 v=97
440816 Par ch=1 c=64 v=63
440828 Par ch=1 c=64 v=127
440856 On ch=1 n=d#5 v=92
440952 On ch=1 n=f4 v=0
440972 On ch=1 n=b4 v=76
441056 On ch=1 n=d#5 v=0
441062 On ch=1 n=b4 v=0
441088 On ch=1 n=f#5 v=98
441098 On ch=1 n=e4 v=52
441136 On ch=1 n=e5 v=0
441148 Par ch=1 c=64 v=63
441194 Par ch=1 c=64 v=127
441194 On ch=1 n=d5 v=52
441294 On ch=1 n=a#4 v=76
441320 On ch=1 n=d5 v=0
441362 On ch=1 n=f#5 v=0
441390 On ch=1 n=a#4 v=0
441410 On ch=1 n=e4 v=0
441420 On ch=1 n=d#4 v=65
441452 On ch=1 n=g5 v=96
441568 On ch=1 n=d#4 v=0
441616 On ch=1 n=a4 v=49
441616 On ch=1 n=c#5 v=78
441630 On ch=1 n=g5 v=0
441644 On ch=1 n=f#3 v=0
441662 On ch=1 n=a4 v=0
441684 On ch=1 n=c#5 v=0
441726 On ch=1 n=g#5 v=80
441758 On ch=1 n=g#5 v=0
441822 On ch=1 n=g#5 v=69
441848 On ch=1 n=d4 v=60
441852 On ch=1 n=f#3 v=49
441908 Par ch=1 c=64 v=63
441968 Par ch=1 c=64 v=127
441998 On ch=1 n=c5 v=44
442064 On ch=1 n=g#4 v=80
442112 On ch=1 n=c5 v=0
442116 On ch=1 n=g#5 v=0
442120 On ch=1 n=d4 v=0
442156 On ch=1 n=g#4 v=0
442170 On ch=1 n=d#4 v=85
442176 On ch=1 n=e5 v=96
442276 On ch=1 n=c#5 v=99
442372 On ch=1 n=a4 v=74
442436 On ch=1 n=c#5 v=0
442442 On ch=1 n=e5 v=0
442462 On ch=1 n=a4 v=0
442484 On ch=1 n=g#5 v=109
442494 On ch=1 n=e4 v=84
442498 On ch=1 n=d#4 v=0
442556 On ch=1 n=f#3 v=0
442588 On ch=1 n=d5 v=79
442630 On ch=1 n=e4 v=0
442684 On ch=1 n=a#4 v=86
442688 On ch=1 n=g#5 v=0
442704 On ch=1 n=f#3 v=88
442740 On ch=1 n=d5 v=0
442768 On ch=1 n=a#4 v=0
442818 On ch=1 n=e5 v=106
442824 On ch=1 n=f4 v=87
442854 Par ch=1 c=64 v=63
442874 Par ch=1 c=64 v=0
442890 Par ch=1 c=64 v=63
442922 Par ch=1 c=64 v=127
442932 On ch=1 n=d#5 v=103
442940 On ch=1 n=f4 v=0
443054 On ch=1 n=b4 v=81
443138 On ch=1 n=b4 v=0
443144 On ch=1 n=e4 v=68
443156 On ch=1 n=d#5 v=0
443162 On ch=1 n=f#5 v=103
443232 On ch=1 n=e5 v=0
443274 On ch=1 n=d5 v=65
443392 On ch=1 n=a#4 v=82
443416 On ch=1 n=d5 v=0
443432 On ch=1 n=f#5 v=0
443470 On ch=1 n=a#4 v=0
443470 On ch=1 n=e4 v=0
443508 On ch=1 n=d#4 v=74
443520 On ch=1 n=g5 v=93
443534 Par ch=1 c=64 v=63
443584 Par ch=1 c=64 v=127
443662 On ch=1 n=g5 v=0
443662 On ch=1 n=c#5 v=73
443670 On ch=1 n=a4 v=38
443708 On ch=1 n=f#3 v=0
443718 On ch=1 n=d#4 v=0
443732 On ch=1 n=a4 v=0
443746 On ch=1 n=c#5 v=0
443772 On ch=1 n=g#5 v=86
443822 On ch=1 n=g#5 v=0
443862 On ch=1 n=g#5 v=85
443888 On ch=1 n=d4 v=51
443894 On ch=1 n=f#3 v=33
443918 Par ch=1 c=64 v=63
443940 Par ch=1 c=64 v=0
443966 Par ch=1 c=64 v=63
443996 Par ch=1 c=64 v=127
444058 On ch=1 n=c5 v=38
444116 On ch=1 n=g#5 v=0
444132 On ch=1 n=g#4 v=74
444166 On ch=1 n=d4 v=0
444172 On ch=1 n=c5 v=0
444234 On ch=1 n=d#4 v=89
444236 On ch=1 n=g#4 v=0
444256 On ch=1 n=e5 v=90
444364 On ch=1 n=c#5 v=94
444454 On ch=1 n=a4 v=78
444504 On ch=1 n=e5 v=0
444512 On ch=1 n=c#5 v=0
444534 On ch=1 n=a4 v=0
444552 On ch=1 n=d#4 v=0
444562 On ch=1 n=g#5 v=113
444566 On ch=1 n=e4 v=93
444666 On ch=1 n=d5 v=78
444670 On ch=1 n=f#3 v=0
444724 On ch=1 n=e4 v=0
444752 On ch=1 n=a#4 v=90
444754 On ch=1 n=g#5 v=0
444774 On ch=1 n=d5 v=0
444798 On ch=1 n=f#3 v=97
444824 On ch=1 n=a#4 v=0
444880 Par ch=1 c=64 v=63
444890 Par ch=1 c=64 v=0
444906 On ch=1 n=f4 v=106
444916 On ch=1 n=b5 v=113
444928 Par ch=1 c=64 v=63
444950 Par ch=1 c=64 v=127
445022 On ch=1 n=b5 v=0
445044 On ch=1 n=d#5 v=95
445058 On ch=1 n=f4 v=0
445150 On ch=1 n=b4 v=85
445186 On ch=1 n=d#5 v=0
445234 On ch=1 n=b4 v=0
445260 On ch=1 n=g#5 v=106
445268 On ch=1 n=f#4 v=114
445380 On ch=1 n=e5 v=77
445414 On ch=1 n=f#4 v=0
445418 On ch=1 n=f#3 v=0
445458 On ch=1 n=g#5 v=0
445476 On ch=1 n=c5 v=81
445490 On ch=1 n=e5 v=0
445564 On ch=1 n=c5 v=0
445630 On ch=1 n=g4 v=103
445634 On ch=1 n=b5 v=109
445748 On ch=1 n=f5 v=97
445764 On ch=1 n=b5 v=0
445790 On ch=1 n=g4 v=0
445844 On ch=1 n=f5 v=0
445888 On ch=1 n=c#5 v=100
445954 On ch=1 n=c#5 v=0
446064 On ch=1 n=b3 v=83
446068 Par ch=1 c=64 v=63
446078 Par ch=1 c=64 v=0
446110 On ch=1 n=d5 v=85
446124 On ch=1 n=f#4 v=106
446136 On ch=1 n=f#5 v=88
446156 Par ch=1 c=64 v=63
446158 On ch=1 n=c#6 v=119
446160 Par ch=1 c=64 v=127
446180 On ch=1 n=d5 v=0
446184 On ch=1 n=b3 v=0
446202 On ch=1 n=f#4 v=0
446208 On ch=1 n=f#5 v=0
446246 On ch=1 n=c#6 v=0
446470 On ch=1 n=f#6 v=108
446530 On ch=1 n=f#6 v=0
446562 On ch=1 n=b5 v=103
446564 On ch=1 n=b6 v=117
446640 On ch=1 n=d6 v=94
446662 On ch=1 n=b5 v=0
446722 On ch=1 n=d6 v=0
446746 On ch=1 n=f#6 v=81
446834 On ch=1 n=f#6 v=0
446836 On ch=1 n=d6 v=73
446934 On ch=1 n=d6 v=0
446954 On ch=1 n=f#5 v=107
447060 On ch=1 n=d6 v=77
447068 On ch=1 n=f#5 v=0
447134 On ch=1 n=d6 v=0
447150 On ch=1 n=f#6 v=77
447232 On ch=1 n=f#6 v=0
447234 On ch=1 n=d6 v=72
447298 On ch=1 n=d6 v=0
447334 On ch=1 n=f#5 v=119
447338 On ch=1 n=b6 v=0
447426 On ch=1 n=d6 v=79
447434 On ch=1 n=f#5 v=0
447510 On ch=1 n=d6 v=0
447526 On ch=1 n=f#6 v=70
447558 On ch=1 n=d6 v=93
447566 On ch=1 n=f#6 v=0
447638 On ch=1 n=d6 v=0
447674 On ch=1 n=a6 v=111
447684 On ch=1 n=f#6 v=110
447706 On ch=1 n=a5 v=89
447754 On ch=1 n=f#6 v=0
447818 On ch=1 n=a5 v=0
447830 On ch=1 n=d6 v=33
447862 On ch=1 n=f#6 v=86
447874 On ch=1 n=d6 v=0
447938 On ch=1 n=d6 v=64
447946 On ch=1 n=f#6 v=0
448052 On ch=1 n=d6 v=0
448078 On ch=1 n=b5 v=106
448166 On ch=1 n=d6 v=91
448198 On ch=1 n=b5 v=0
448246 On ch=1 n=f#6 v=80
448258 On ch=1 n=d6 v=0
448268 On ch=1 n=a6 v=0
448324 On ch=1 n=d6 v=72
448340 On ch=1 n=f#6 v=0
448410 On ch=1 n=d6 v=0
448422 Par ch=1 c=64 v=63
448432 Par ch=1 c=64 v=0
448436 On ch=1 n=c#6 v=114
448462 Par ch=1 c=64 v=63
448478 Par ch=1 c=64 v=127
448534 On ch=1 n=d6 v=84
448538 On ch=1 n=c#6 v=0
448582 On ch=1 n=f#6 v=82
448612 On ch=1 n=d6 v=0
448626 On ch=1 n=f#6 v=0
448674 On ch=1 n=b5 v=97
448742 On ch=1 n=b5 v=0
448778 On ch=1 n=e6 v=100
448782 On ch=1 n=g#6 v=112
448814 On ch=1 n=a6 v=43
448816 On ch=1 n=b5 v=85
448842 On ch=1 n=e6 v=0
448848 On ch=1 n=a6 v=0
448904 On ch=1 n=b5 v=0
448910 On ch=1 n=g#6 v=0
448924 On ch=1 n=d6 v=52
448962 On ch=1 n=d6 v=0
448970 On ch=1 n=f#6 v=86
449036 On ch=1 n=f#6 v=0
449052 On ch=1 n=d6 v=76
449152 On ch=1 n=d6 v=0
449184 On ch=1 n=a6 v=112
449184 On ch=1 n=f#6 v=112
449188 Par ch=1 c=64 v=63
449194 On ch=1 n=f#5 v=104
449200 Par ch=1 c=64 v=0
449218 Par ch=1 c=64 v=63
449238 Par ch=1 c=64 v=127
449288 On ch=1 n=f#6 v=0
449296 On ch=1 n=d6 v=54
449304 On ch=1 n=f#5 v=0
449368 On ch=1 n=d6 v=0
449374 On ch=1 n=f#6 v=82
449446 On ch=1 n=f#6 v=0
449446 On ch=1 n=d6 v=69
449540 On ch=1 n=d6 v=0
449560 On ch=1 n=f#5 v=112
449576 On ch=1 n=a6 v=0
449652 On ch=1 n=d6 v=80
449668 On ch=1 n=f#5 v=0
449740 On ch=1 n=f#6 v=61
449742 On ch=1 n=d6 v=0
449772 On ch=1 n=f#6 v=0
449824 On ch=1 n=f#6 v=94
449884 On ch=1 n=f#6 v=0
449924 On ch=1 n=b6 v=113
449928 On ch=1 n=a5 v=86
450036 On ch=1 n=d6 v=81
450066 On ch=1 n=a5 v=0
450110 On ch=1 n=d6 v=0
450120 On ch=1 n=f#6 v=88
450186 On ch=1 n=f#6 v=0
450188 On ch=1 n=d6 v=63
450298 On ch=1 n=b5 v=97
450304 On ch=1 n=d6 v=0
450372 Par ch=1 c=64 v=63
450378 On ch=1 n=d6 v=89
450410 Par ch=1 c=64 v=127
450420 On ch=1 n=b5 v=0
450458 On ch=1 n=f#6 v=86
450488 On ch=1 n=d6 v=0
450544 On ch=1 n=d6 v=75
450550 On ch=1 n=f#6 v=0
450626 On ch=1 n=d6 v=0
450640 On ch=1 n=b6 v=0
450646 On ch=1 n=c#6 v=116
450758 On ch=1 n=d6 v=80
450762 On ch=1 n=c#6 v=0
450840 On ch=1 n=f#6 v=68
450854 On ch=1 n=a6 v=93
450864 On ch=1 n=d6 v=0
450930 On ch=1 n=b6 v=94
450934 On ch=1 n=f#6 v=0
450952 On ch=1 n=a6 v=0
451018 On ch=1 n=f#7 v=112
451032 On ch=1 n=b5 v=86
451058 On ch=1 n=b6 v=0
451128 On ch=1 n=b5 v=0
451142 On ch=1 n=d6 v=54
451186 On ch=1 n=d6 v=0
451210 On ch=1 n=f#6 v=78
451278 On ch=1 n=d6 v=76
451288 On ch=1 n=f#6 v=0
451354 On ch=1 n=d6 v=0
451400 On ch=1 n=f#5 v=115
451466 On ch=1 n=d6 v=68
451484 On ch=1 n=f#5 v=0
451554 On ch=1 n=d6 v=0
451574 On ch=1 n=f#6 v=82
451652 On ch=1 n=f#6 v=0
451658 On ch=1 n=f#7 v=0
451754 On ch=1 n=f#5 v=107
451756 On ch=1 n=b6 v=112
451846 On ch=1 n=b6 v=0
451846 On ch=1 n=c#7 v=106
451860 On ch=1 n=f#5 v=0
451878 On ch=1 n=d6 v=46
451936 On ch=1 n=c#7 v=0
451936 On ch=1 n=f#6 v=75
451952 On ch=1 n=b6 v=97
451966 On ch=1 n=d6 v=0
452018 On ch=1 n=f#6 v=0
452036 On ch=1 n=c#7 v=105
452038 On ch=1 n=b6 v=0
452100 On ch=1 n=a5 v=92
452112 On ch=1 n=c#7 v=0
452116 On ch=1 n=b6 v=108
452208 On ch=1 n=b6 v=0
452210 On ch=1 n=c#7 v=106
452250 On ch=1 n=a5 v=0
452268 On ch=1 n=f#6 v=82
452302 On ch=1 n=c#7 v=0
452302 On ch=1 n=b6 v=94
452364 On ch=1 n=f#6 v=0
452388 On ch=1 n=c#7 v=107
452392 On ch=1 n=b6 v=0
452468 On ch=1 n=b6 v=102
452480 On ch=1 n=b5 v=97
452482 On ch=1 n=c#7 v=0
452564 On ch=1 n=c#7 v=110
452574 On ch=1 n=d6 v=63
452578 On ch=1 n=b5 v=0
452580 On ch=1 n=b6 v=0
452618 On ch=1 n=d6 v=0
452622 On ch=1 n=c#7 v=0
452634 On ch=1 n=f#6 v=89
452690 On ch=1 n=e7 v=112
452696 On ch=1 n=f#6 v=0
452760 On ch=1 n=c#7 v=95
452764 On ch=1 n=f#7 v=110
452768 On ch=1 n=e7 v=0
452788 On ch=1 n=c#7 v=0
452844 On ch=1 n=f#7 v=0
452868 On ch=1 n=c#8 v=110
452872 On ch=1 n=c#7 v=121
452938 On ch=1 n=c#7 v=0
452960 On ch=1 n=f#7 v=89
452994 On ch=1 n=c#8 v=0
453040 On ch=1 n=d7 v=96
453048 On ch=1 n=f#7 v=0
453122 On ch=1 n=f#7 v=108
453128 On ch=1 n=d7 v=0
453184 On ch=1 n=f#7 v=0
453234 On ch=1 n=f#6 v=124
453302 On ch=1 n=f#6 v=0
453316 On ch=1 n=c#7 v=103
453392 On ch=1 n=f#6 v=60
453424 On ch=1 n=c#7 v=0
453486 On ch=1 n=d6 v=85
453502 On ch=1 n=f#6 v=0
453572 On ch=1 n=d6 v=0
453574 On ch=1 n=c#6 v=120
453648 Par ch=1 c=64 v=63
453662 Par ch=1 c=64 v=0
453664 On ch=1 n=d6 v=86
453690 Par ch=1 c=64 v=63
453720 Par ch=1 c=64 v=127
453736 On ch=1 n=f#6 v=97
453758 On ch=1 n=d6 v=0
453816 On ch=1 n=c#7 v=100
453842 On ch=1 n=c#6 v=0
453854 On ch=1 n=f#6 v=0
453892 On ch=1 n=c#7 v=0
453928 On ch=1 n=c#6 v=123
454002 On ch=1 n=c#6 v=0
454010 On ch=1 n=c#7 v=85
454100 On ch=1 n=f#6 v=88
454160 On ch=1 n=c#7 v=0
454182 On ch=1 n=d6 v=88
454206 On ch=1 n=f#6 v=0
454250 On ch=1 n=d6 v=0
454296 On ch=1 n=f#5 v=126
454350 On ch=1 n=f#5 v=0
454388 On ch=1 n=c#6 v=80
454470 On ch=1 n=f#5 v=86
454522 On ch=1 n=c#6 v=0
454590 On ch=1 n=d5 v=67
454628 On ch=1 n=f#5 v=0
454668 On ch=1 n=d5 v=0
454688 On ch=1 n=c#5 v=94
454744 On ch=1 n=c#5 v=0
454792 On ch=1 n=d5 v=73
454884 On ch=1 n=d5 v=0
454890 On ch=1 n=f#5 v=70
454990 On ch=1 n=f#5 v=0
454990 On ch=1 n=c#6 v=77
455052 On ch=1 n=c#6 v=0
455228 On ch=1 n=c#6 v=85
455230 On ch=1 n=g#3 v=49
455234 On ch=1 n=g4 v=37
455260 Par ch=1 c=64 v=63
455276 Par ch=1 c=64 v=0
455334 Par ch=1 c=64 v=63
455358 Par ch=1 c=64 v=127
455384 On ch=1 n=f5 v=20
455440 On ch=1 n=g4 v=0
455502 On ch=1 n=c#6 v=0
455524 On ch=1 n=c#5 v=91
455582 On ch=1 n=f5 v=0
455636 On ch=1 n=c#5 v=0
455664 On ch=1 n=a5 v=93
455666 On ch=1 n=g#4 v=67
455776 On ch=1 n=f#5 v=92
455842 On ch=1 n=g#4 v=0
455874 On ch=1 n=d5 v=81
455930 On ch=1 n=f#5 v=0
455944 On ch=1 n=a5 v=0
455954 On ch=1 n=d5 v=0
455984 On ch=1 n=a4 v=72
455986 On ch=1 n=c#6 v=112
456080 On ch=1 n=g#3 v=0
456092 On ch=1 n=g5 v=76
456112 On ch=1 n=a4 v=0
456180 On ch=1 n=c#6 v=0
456190 On ch=1 n=d#5 v=93
456242 On ch=1 n=g#3 v=50
456264 On ch=1 n=g5 v=0
456280 On ch=1 n=d#5 v=0
456322 On ch=1 n=a5 v=100
456328 On ch=1 n=a#4 v=81
456368 Par ch=1 c=64 v=63
456378 Par ch=1 c=64 v=0
456416 Par ch=1 c=64 v=63
456438 On ch=1 n=g#5 v=98
456440 Par ch=1 c=64 v=127
456552 On ch=1 n=a5 v=0
456582 On ch=1 n=e5 v=88
456588 On ch=1 n=a#4 v=0
456648 On ch=1 n=g#5 v=0
456668 On ch=1 n=e5 v=0
456694 On ch=1 n=a4 v=51
456696 On ch=1 n=b5 v=97
456794 On ch=1 n=a4 v=0
456820 On ch=1 n=g5 v=36
456908 On ch=1 n=d#5 v=79
456938 On ch=1 n=g5 v=0
456944 On ch=1 n=b5 v=0
456978 On ch=1 n=d#5 v=0
457022 On ch=1 n=g#4 v=65
457038 On ch=1 n=c6 v=96
457116 On ch=1 n=g#4 v=0
457154 On ch=1 n=f#5 v=57
457158 On ch=1 n=c6 v=0
457158 On ch=1 n=g#3 v=0
457176 On ch=1 n=d5 v=79
457226 On ch=1 n=f#5 v=0
457248 On ch=1 n=d5 v=0
457270 On ch=1 n=c#6 v=101
457328 On ch=1 n=c#6 v=0
457380 On ch=1 n=c#6 v=87
457402 On ch=1 n=g#3 v=61
457412 On ch=1 n=g4 v=43
457432 Par ch=1 c=64 v=63
457444 Par ch=1 c=64 v=0
457492 Par ch=1 c=64 v=63
457512 Par ch=1 c=64 v=127
457550 On ch=1 n=f5 v=42
457568 On ch=1 n=g4 v=0
457636 On ch=1 n=c#6 v=0
457636 On ch=1 n=c#5 v=90
457686 On ch=1 n=f5 v=0
457720 On ch=1 n=c#5 v=0
457732 On ch=1 n=g#4 v=89
457736 On ch=1 n=a5 v=89
457836 On ch=1 n=f#5 v=92
457858 On ch=1 n=g#4 v=0
457922 On ch=1 n=d5 v=82
457952 On ch=1 n=a5 v=0
457980 On ch=1 n=f#5 v=0
457994 On ch=1 n=d5 v=0
458022 On ch=1 n=c#6 v=115
458028 On ch=1 n=a4 v=89
458078 On ch=1 n=g#3 v=0
458128 On ch=1 n=a4 v=0
458134 On ch=1 n=g5 v=77
458222 On ch=1 n=d#5 v=88
458238 On ch=1 n=c#6 v=0
458258 On ch=1 n=g#3 v=75
458272 On ch=1 n=g5 v=0
458292 On ch=1 n=d#5 v=0
458362 On ch=1 n=a#4 v=83
458366 Par ch=1 c=64 v=63
458368 On ch=1 n=a5 v=113
458376 Par ch=1 c=64 v=0
458420 Par ch=1 c=64 v=63
458440 Par ch=1 c=64 v=127
458474 On ch=1 n=g#5 v=98
458598 On ch=1 n=a#4 v=0
458622 On ch=1 n=e5 v=55
458672 On ch=1 n=a5 v=0
458686 On ch=1 n=g#5 v=0
458688 On ch=1 n=e5 v=0
458724 On ch=1 n=a4 v=59
458728 On ch=1 n=b5 v=98
458832 On ch=1 n=a4 v=0
458868 On ch=1 n=g5 v=27
458938 On ch=1 n=d#5 v=70
458982 On ch=1 n=g5 v=0
458982 On ch=1 n=b5 v=0
459010 On ch=1 n=d#5 v=0
459058 On ch=1 n=g#4 v=65
459082 On ch=1 n=c6 v=91
459164 On ch=1 n=g#4 v=0
459170 On ch=1 n=g#3 v=0
459206 On ch=1 n=f#5 v=58
459216 On ch=1 n=c6 v=0
459248 On ch=1 n=d5 v=78
459302 On ch=1 n=f#5 v=0
459318 On ch=1 n=d5 v=0
459340 On ch=1 n=c#6 v=94
459392 On ch=1 n=c#6 v=0
459452 On ch=1 n=c#6 v=84
459466 On ch=1 n=g#3 v=56
459472 On ch=1 n=g4 v=51
459480 Par ch=1 c=64 v=63
459492 Par ch=1 c=64 v=0
459550 Par ch=1 c=64 v=63
459570 Par ch=1 c=64 v=127
459608 On ch=1 n=f5 v=30
459644 On ch=1 n=g4 v=0
459700 On ch=1 n=c#6 v=0
459710 On ch=1 n=c#5 v=90
459748 On ch=1 n=f5 v=0
459790 On ch=1 n=c#5 v=0
459812 On ch=1 n=g#4 v=76
459814 On ch=1 n=a5 v=88
459920 On ch=1 n=f#5 v=84
459946 On ch=1 n=g#4 v=0
460014 On ch=1 n=d5 v=83
460052 On ch=1 n=a5 v=0
460068 On ch=1 n=f#5 v=0
460090 On ch=1 n=d5 v=0
460118 On ch=1 n=c#6 v=115
460126 On ch=1 n=a4 v=78
460136 On ch=1 n=g#3 v=0
460226 On ch=1 n=g5 v=79
460234 On ch=1 n=a4 v=0
460316 On ch=1 n=d#5 v=90
460328 On ch=1 n=c#6 v=0
460338 On ch=1 n=g5 v=0
460338 On ch=1 n=g#3 v=88
460382 On ch=1 n=d#5 v=0
460450 Par ch=1 c=64 v=63
460464 Par ch=1 c=64 v=0
460480 Par ch=1 c=64 v=63
460500 On ch=1 n=e6 v=104
460502 On ch=1 n=a#4 v=72
460504 Par ch=1 c=64 v=127
460642 On ch=1 n=g#5 v=88
460646 On ch=1 n=e6 v=0
460704 On ch=1 n=g#3 v=0
460770 On ch=1 n=e5 v=64
460778 On ch=1 n=a#4 v=0
460810 On ch=1 n=g#5 v=0
460848 On ch=1 n=e5 v=0
460874 On ch=1 n=b4 v=57
460878 On ch=1 n=d#6 v=97
460982 On ch=1 n=b4 v=0
460992 On ch=1 n=a5 v=67
461128 On ch=1 n=f5 v=69
461144 On ch=1 n=d#6 v=0
461170 On ch=1 n=a5 v=0
461240 On ch=1 n=c5 v=76
461322 On ch=1 n=c5 v=0
461354 On ch=1 n=g#5 v=87
461402 On ch=1 n=f5 v=0
461438 Par ch=1 c=64 v=63
461446 Par ch=1 c=64 v=0
461480 Par ch=1 c=64 v=63
461490 On ch=1 n=c#4 v=73
461492 Par ch=1 c=64 v=127
461506 On ch=1 n=f#5 v=80
461578 On ch=1 n=c#4 v=0
461598 On ch=1 n=g#5 v=0
461612 On ch=1 n=f#5 v=0
461690 On ch=1 n=e6 v=102
461694 On ch=1 n=d#5 v=68
461766 On ch=1 n=d#5 v=0
461800 On ch=1 n=e6 v=0
461838 On ch=1 n=g#5 v=80
461958 On ch=1 n=g#5 v=0
461978 On ch=1 n=e5 v=45
462044 On ch=1 n=c#5 v=101
462054 On ch=1 n=c#6 v=105
462062 On ch=1 n=e5 v=0
462150 On ch=1 n=c#5 v=0
462170 On ch=1 n=a5 v=60
462298 On ch=1 n=f5 v=65
462312 On ch=1 n=a5 v=0
462330 On ch=1 n=c#6 v=0
462392 On ch=1 n=f5 v=0
462414 On ch=1 n=c5 v=113
462432 On ch=1 n=e6 v=103
462494 On ch=1 n=c5 v=0
462536 On ch=1 n=e6 v=0
462564 On ch=1 n=a#5 v=90
462646 On ch=1 n=a#5 v=0
462694 On ch=1 n=f#5 v=90
462762 On ch=1 n=f#5 v=0
462836 On ch=1 n=b4 v=60
462874 On ch=1 n=g#6 v=94
462942 Par ch=1 c=64 v=63
462954 Par ch=1 c=64 v=0
462976 Par ch=1 c=64 v=63
463004 Par ch=1 c=64 v=127
463044 On ch=1 n=c#5 v=74
463162 On ch=1 n=g#6 v=0
463162 On ch=1 n=d#5 v=68
463250 On ch=1 n=a5 v=39
463264 On ch=1 n=f#6 v=95
463394 On ch=1 n=c#6 v=67
463402 On ch=1 n=f#6 v=0
463468 On ch=1 n=a5 v=0
463488 On ch=1 n=c#6 v=0
463502 On ch=1 n=f#5 v=68
463536 On ch=1 n=f#5 v=0
463540 On ch=1 n=d#5 v=0
463550 On ch=1 n=c#5 v=0
463564 On ch=1 n=b4 v=0
463642 On ch=1 n=b5 v=60
463774 On ch=1 n=f#5 v=65
463884 On ch=1 n=c#5 v=63
463944 On ch=1 n=f#5 v=0
463944 On ch=1 n=b5 v=0
463988 On ch=1 n=c#5 v=0
464108 On ch=1 n=e4 v=43
464114 On ch=1 n=b5 v=76
464116 Par ch=1 c=64 v=63
464124 Par ch=1 c=64 v=0
464170 Par ch=1 c=64 v=63
464186 Par ch=1 c=64 v=127
464268 On ch=1 n=b4 v=59
464272 On ch=1 n=e4 v=0
464342 On ch=1 n=b4 v=0
464376 On ch=1 n=b5 v=0
464400 On ch=1 n=e5 v=41
464488 On ch=1 n=f#5 v=81
464494 On ch=1 n=e5 v=0
464578 On ch=1 n=g#5 v=73
464590 On ch=1 n=f#5 v=0
464668 On ch=1 n=g#5 v=0
464668 On ch=1 n=b5 v=73
464736 On ch=1 n=b5 v=0
464764 On ch=1 n=e6 v=77
464850 On ch=1 n=f#6 v=92
464866 On ch=1 n=e6 v=0
464910 On ch=1 n=f#6 v=0
464944 On ch=1 n=e7 v=92
465016 On ch=1 n=e7 v=0
465074 On ch=1 n=e6 v=61
465134 On ch=1 n=f#6 v=80
465146 On ch=1 n=e6 v=0
465210 On ch=1 n=f#6 v=0
465214 On ch=1 n=e6 v=72
465290 On ch=1 n=e6 v=0
465320 On ch=1 n=e7 v=86
465388 On ch=1 n=e7 v=0
465434 On ch=1 n=e6 v=29
465512 On ch=1 n=f#6 v=76
465520 On ch=1 n=e6 v=0
465582 On ch=1 n=f#6 v=0
465592 On ch=1 n=e6 v=58
465666 On ch=1 n=e6 v=0
465706 On ch=1 n=e7 v=79
465768 On ch=1 n=e7 v=0
465804 On ch=1 n=e6 v=44
465902 On ch=1 n=f#6 v=77
465908 On ch=1 n=e6 v=0
465972 On ch=1 n=f#6 v=0
465982 On ch=1 n=e6 v=49
466050 On ch=1 n=e6 v=0
466076 On ch=1 n=e7 v=81
466144 On ch=1 n=e7 v=0
466174 On ch=1 n=e6 v=60
466276 On ch=1 n=f#6 v=77
466282 On ch=1 n=e6 v=0
466346 On ch=1 n=e6 v=34
466354 On ch=1 n=f#6 v=0
466422 On ch=1 n=e6 v=0
466442 On ch=1 n=e7 v=88
466518 On ch=1 n=e7 v=0
466554 On ch=1 n=e6 v=51
466638 On ch=1 n=f#6 v=78
466652 On ch=1 n=e6 v=0
466714 On ch=1 n=e6 v=43
466716 On ch=1 n=f#6 v=0
466790 On ch=1 n=e6 v=0
466814 On ch=1 n=e7 v=84
466880 On ch=1 n=e7 v=0
466916 On ch=1 n=e6 v=50
467010 On ch=1 n=f#6 v=74
467026 On ch=1 n=e6 v=0
467080 On ch=1 n=f#6 v=0
467080 On ch=1 n=e6 v=35
467158 On ch=1 n=e6 v=0
467198 On ch=1 n=e7 v=76
467256 On ch=1 n=e7 v=0
467296 On ch=1 n=e6 v=37
467386 On ch=1 n=e6 v=0
467388 On ch=1 n=f#6 v=57
467428 On ch=1 n=f#6 v=0
467452 On ch=1 n=e6 v=54
467546 Par ch=1 c=64 v=63
467550 On ch=1 n=e6 v=0
467558 Par ch=1 c=64 v=0
467578 Par ch=1 c=64 v=63
467598 On ch=1 n=e7 v=77
467600 Par ch=1 c=64 v=127
467606 On ch=1 n=e5 v=35
467666 On ch=1 n=e7 v=0
467684 On ch=1 n=e5 v=0
467714 On ch=1 n=e6 v=10
467794 On ch=1 n=e6 v=0
467818 On ch=1 n=f6 v=28
467868 On ch=1 n=f6 v=0
467886 On ch=1 n=e6 v=46
467956 On ch=1 n=e6 v=0
467990 On ch=1 n=g#5 v=49
467998 On ch=1 n=b6 v=74
468028 On ch=1 n=d6 v=16
468110 On ch=1 n=b6 v=0
468130 On ch=1 n=g#5 v=0
468136 On ch=1 n=d6 v=0
468152 On ch=1 n=e6 v=1
468174 On ch=1 n=f6 v=52
468184 On ch=1 n=e6 v=0
468250 On ch=1 n=f6 v=0
468284 On ch=1 n=e6 v=37
468350 On ch=1 n=e6 v=0
468376 On ch=1 n=a6 v=82
468386 On ch=1 n=f#6 v=71
468400 On ch=1 n=d6 v=50
468404 On ch=1 n=a5 v=44
468444 On ch=1 n=d6 v=0
468452 On ch=1 n=f#6 v=0
468472 On ch=1 n=a5 v=0
468472 On ch=1 n=a6 v=0
468494 On ch=1 n=e6 v=38
468544 On ch=1 n=e6 v=0
468576 On ch=1 n=b6 v=74
468666 On ch=1 n=e6 v=35
468716 On ch=1 n=b6 v=0
468750 On ch=1 n=e6 v=0
468776 On ch=1 n=d5 v=53
468778 On ch=1 n=c7 v=74
468788 Par ch=1 c=64 v=63
468804 Par ch=1 c=64 v=0
468818 Par ch=1 c=64 v=63
468844 Par ch=1 c=64 v=127
468878 On ch=1 n=e6 v=30
468960 On ch=1 n=f#6 v=56
468966 On ch=1 n=e6 v=0
469042 On ch=1 n=f#6 v=0
469048 On ch=1 n=e6 v=46
469074 On ch=1 n=c7 v=0
469130 On ch=1 n=f#5 v=61
469132 On ch=1 n=e6 v=0
469150 On ch=1 n=d7 v=73
469156 On ch=1 n=d5 v=0
469158 On ch=1 n=d6 v=20
469160 On ch=1 n=c6 v=17
469236 On ch=1 n=f#5 v=0
469238 On ch=1 n=c6 v=0
469240 On ch=1 n=d6 v=0
469252 On ch=1 n=d7 v=0
469256 On ch=1 n=e6 v=26
469314 On ch=1 n=e6 v=0
469336 On ch=1 n=e7 v=72
469412 On ch=1 n=e7 v=0
469456 On ch=1 n=e6 v=12
469476 Par ch=1 c=64 v=63
469518 Par ch=1 c=64 v=127
469520 On ch=1 n=e6 v=0
469544 On ch=1 n=e7 v=73
469546 On ch=1 n=e5 v=44
469614 On ch=1 n=e7 v=0
469646 On ch=1 n=e5 v=0
469660 On ch=1 n=e6 v=21
469760 On ch=1 n=e6 v=0
469772 On ch=1 n=f6 v=39
469816 On ch=1 n=f6 v=0
469838 On ch=1 n=e6 v=42
469910 On ch=1 n=e6 v=0
469940 On ch=1 n=g#5 v=50
469946 On ch=1 n=b6 v=73
469956 On ch=1 n=f6 v=22
469962 On ch=1 n=d6 v=31
470040 On ch=1 n=e6 v=2
470076 On ch=1 n=f6 v=0
470100 On ch=1 n=d6 v=0
470112 On ch=1 n=g#5 v=0
470114 On ch=1 n=f6 v=53
470118 On ch=1 n=b6 v=0
470124 On ch=1 n=e6 v=0
470192 On ch=1 n=f6 v=0
470216 On ch=1 n=e6 v=58
470288 On ch=1 n=e6 v=0
470324 On ch=1 n=a6 v=81
470330 On ch=1 n=f#6 v=65
470356 On ch=1 n=d6 v=16
470360 On ch=1 n=a5 v=26
470396 On ch=1 n=f#6 v=0
470402 On ch=1 n=d6 v=0
470412 On ch=1 n=a6 v=0
470418 On ch=1 n=a5 v=0
470442 On ch=1 n=e6 v=25
470510 On ch=1 n=e6 v=0
470520 On ch=1 n=b6 v=78
470624 On ch=1 n=e6 v=39
470642 On ch=1 n=b6 v=0
470704 On ch=1 n=c7 v=69
470710 On ch=1 n=e6 v=0
470714 On ch=1 n=d5 v=65
470726 Par ch=1 c=64 v=63
470734 Par ch=1 c=64 v=0
470776 Par ch=1 c=64 v=63
470794 On ch=1 n=e6 v=34
470796 Par ch=1 c=64 v=127
470890 On ch=1 n=f#6 v=49
470892 On ch=1 n=e6 v=0
470956 On ch=1 n=f#6 v=0
470964 On ch=1 n=e6 v=49
470984 On ch=1 n=c7 v=0
471058 On ch=1 n=e6 v=0
471084 On ch=1 n=d7 v=78
471086 On ch=1 n=f#5 v=58
471098 On ch=1 n=d5 v=0
471116 On ch=1 n=d6 v=17
471118 On ch=1 n=c6 v=14
471172 On ch=1 n=f#5 v=0
471174 On ch=1 n=d7 v=0
471182 On ch=1 n=e6 v=40
471190 On ch=1 n=c6 v=0
471194 On ch=1 n=d6 v=0
471248 On ch=1 n=e6 v=0
471272 On ch=1 n=e7 v=73
471344 On ch=1 n=e7 v=0
471374 On ch=1 n=e6 v=28
471414 Par ch=1 c=64 v=63
471452 On ch=1 n=e6 v=0
471460 Par ch=1 c=64 v=127
471476 On ch=1 n=e5 v=45
471478 On ch=1 n=e7 v=74
471546 On ch=1 n=e5 v=0
471548 On ch=1 n=e7 v=0
471590 On ch=1 n=e6 v=11
471674 On ch=1 n=e6 v=0
471726 On ch=1 n=f6 v=2
471776 On ch=1 n=f6 v=0
471788 On ch=1 n=e6 v=45
471852 On ch=1 n=e6 v=0
471884 On ch=1 n=g#5 v=45
471886 On ch=1 n=b6 v=68
471886 On ch=1 n=f6 v=29
471890 On ch=1 n=d6 v=43
471964 On ch=1 n=f6 v=0
471992 On ch=1 n=d6 v=0
471994 On ch=1 n=e6 v=4
471998 On ch=1 n=g#5 v=0
472072 On ch=1 n=e6 v=0
472072 On ch=1 n=f6 v=46
472172 On ch=1 n=f6 v=0
472202 On ch=1 n=e6 v=17
472268 On ch=1 n=e6 v=0
472276 On ch=1 n=f#6 v=63
472312 On ch=1 n=a5 v=25
472318 On ch=1 n=d6 v=5
472334 On ch=1 n=f#6 v=0
472358 On ch=1 n=d6 v=0
472394 On ch=1 n=a5 v=0
472394 On ch=1 n=e6 v=37
472420 On ch=1 n=b6 v=0
472472 On ch=1 n=e6 v=0
472504 On ch=1 n=c7 v=73
472630 On ch=1 n=e6 v=41
472684 On ch=1 n=c7 v=0
472726 On ch=1 n=e6 v=0
472760 On ch=1 n=d5 v=26
472790 On ch=1 n=d7 v=68
472862 Par ch=1 c=64 v=63
472874 Par ch=1 c=64 v=0
472892 Par ch=1 c=64 v=63
472922 Par ch=1 c=64 v=127
472992 On ch=1 n=f#6 v=30
473076 On ch=1 n=f#6 v=0
473152 On ch=1 n=a6 v=58
473250 On ch=1 n=d7 v=0
473298 On ch=1 n=f#5 v=45
473330 On ch=1 n=d6 v=8
473330 On ch=1 n=c6 v=11
473352 On ch=1 n=e6 v=44
473382 On ch=1 n=d6 v=0
473398 On ch=1 n=c6 v=0
473432 On ch=1 n=a6 v=0
473484 On ch=1 n=e6 v=0
473490 On ch=1 n=d5 v=0
473518 On ch=1 n=f#5 v=0
473536 On ch=1 n=a#6 v=61
473764 On ch=1 n=d6 v=16
473890 On ch=1 n=d6 v=0
474014 On ch=1 n=a#6 v=0
474072 On ch=1 n=f#4 v=38
474096 On ch=1 n=b6 v=54
474104 On ch=1 n=b3 v=25
474170 Par ch=1 c=64 v=63
474178 Par ch=1 c=64 v=0
474234 Par ch=1 c=64 v=63
474252 Par ch=1 c=64 v=127
474350 On ch=1 n=b3 v=0
474384 On ch=1 n=f#4 v=0
474424 On ch=1 n=b6 v=0
474726 On ch=1 n=f#6 v=57
474740 On ch=1 n=f#5 v=42
474746 On ch=1 n=b5 v=23
474750 On ch=1 n=d#5 v=32
474750 On ch=1 n=c6 v=18
474998 On ch=1 n=b5 v=0
475028 On ch=1 n=c6 v=0
475030 On ch=1 n=d#5 v=0
475116 On ch=1 n=f#5 v=0
475232 On ch=1 n=c#6 v=62
475238 On ch=1 n=e6 v=74
475242 On ch=1 n=a5 v=43
475246 On ch=1 n=f#6 v=0
475270 On ch=1 n=e5 v=41
475314 On ch=1 n=c#6 v=0
475332 On ch=1 n=a5 v=0
475380 On ch=1 n=e5 v=0
475464 On ch=1 n=f#6 v=91
475500 On ch=1 n=e6 v=0
475692 On ch=1 n=f#6 v=0
475722 On ch=1 n=e4 v=61
475728 On ch=1 n=g6 v=86
475738 On ch=1 n=a3 v=37
475752 Par ch=1 c=64 v=63
475762 Par ch=1 c=64 v=0
475814 Par ch=1 c=64 v=63
475830 Par ch=1 c=64 v=127
475890 On ch=1 n=a3 v=0
475902 On ch=1 n=e4 v=0
476160 On ch=1 n=g6 v=0
476184 On ch=1 n=c#5 v=47
476184 On ch=1 n=a5 v=46
476194 On ch=1 n=g5 v=44
476196 On ch=1 n=a6 v=73
476208 On ch=1 n=b5 v=56
476216 On ch=1 n=e6 v=62
476266 On ch=1 n=a5 v=0
476274 On ch=1 n=g5 v=0
476310 On ch=1 n=b5 v=0
476314 On ch=1 n=a6 v=0
476322 On ch=1 n=c#5 v=0
476350 On ch=1 n=e6 v=0
476408 On ch=1 n=b6 v=73
476564 On ch=1 n=b6 v=0
476666 On ch=1 n=f#4 v=47
476682 On ch=1 n=b6 v=69
476688 Par ch=1 c=64 v=63
476690 On ch=1 n=b3 v=48
476698 Par ch=1 c=64 v=0
476738 Par ch=1 c=64 v=63
476758 Par ch=1 c=64 v=127
476826 On ch=1 n=b3 v=0
476848 On ch=1 n=f#4 v=0
476904 On ch=1 n=b6 v=0
477172 On ch=1 n=f#6 v=67
477188 On ch=1 n=c6 v=29
477188 On ch=1 n=d#5 v=26
477192 On ch=1 n=f#5 v=30
477196 On ch=1 n=b5 v=31
477294 On ch=1 n=b5 v=0
477314 On ch=1 n=d#5 v=0
477342 On ch=1 n=f#5 v=0
477344 On ch=1 n=c6 v=0
477498 On ch=1 n=f#6 v=0
477604 On ch=1 n=c#6 v=53
477622 On ch=1 n=e6 v=66
477640 On ch=1 n=e5 v=45
477644 On ch=1 n=a5 v=9
477670 On ch=1 n=c#6 v=0
477696 On ch=1 n=a5 v=0
477742 On ch=1 n=e5 v=0
477806 On ch=1 n=e6 v=0
477808 On ch=1 n=f#6 v=88
478078 On ch=1 n=g6 v=72
478088 On ch=1 n=e4 v=34
478088 On ch=1 n=a3 v=43
478090 Par ch=1 c=64 v=63
478100 On ch=1 n=f#6 v=0
478100 Par ch=1 c=64 v=0
478144 Par ch=1 c=64 v=63
478162 Par ch=1 c=64 v=127
478226 On ch=1 n=a3 v=0
478248 On ch=1 n=e4 v=0
478486 On ch=1 n=g6 v=0
478574 On ch=1 n=c#5 v=39
478576 On ch=1 n=a6 v=56
478580 On ch=1 n=a5 v=16
478594 On ch=1 n=g5 v=26
478598 On ch=1 n=b5 v=33
478604 On ch=1 n=e6 v=48
478668 On ch=1 n=a5 v=0
478672 On ch=1 n=g5 v=0
478688 On ch=1 n=b5 v=0
478690 On ch=1 n=a6 v=0
478700 On ch=1 n=c#5 v=0
478726 On ch=1 n=e6 v=0
478808 On ch=1 n=b6 v=47
478936 On ch=1 n=b6 v=0
479138 On ch=1 n=b6 v=65
479138 On ch=1 n=f#4 v=37
479146 On ch=1 n=b3 v=44
479402 Par ch=1 c=64 v=127
479476 On ch=1 n=b3 v=0
479512 On ch=1 n=f#4 v=0
479650 On ch=1 n=b6 v=0
479804 On ch=1 n=f#6 v=72
479820 On ch=1 n=b5 v=53
479824 On ch=1 n=d#5 v=43
479826 On ch=1 n=f#5 v=50
479830 On ch=1 n=c6 v=35
480070 On ch=1 n=c6 v=0
480072 On ch=1 n=d#5 v=0
480100 On ch=1 n=f#5 v=0
480106 On ch=1 n=b5 v=0
480254 On ch=1 n=f#6 v=0
480352 On ch=1 n=c#6 v=48
480356 On ch=1 n=a5 v=36
480360 On ch=1 n=e5 v=47
480442 On ch=1 n=c#6 v=0
480476 On ch=1 n=a5 v=0
480526 On ch=1 n=e5 v=0
480616 On ch=1 n=g6 v=63
480898 On ch=1 n=g6 v=0
480934 On ch=1 n=a6 v=64
480946 On ch=1 n=e4 v=29
480954 On ch=1 n=a3 v=34
480968 Par ch=1 c=64 v=63
480978 Par ch=1 c=64 v=0
481056 Par ch=1 c=64 v=63
481068 Par ch=1 c=64 v=127
481244 On ch=1 n=a3 v=0
481264 On ch=1 n=e4 v=0
481386 On ch=1 n=e6 v=48
481390 On ch=1 n=b5 v=23
481494 On ch=1 n=a6 v=0
481608 On ch=1 n=b5 v=0
481650 On ch=1 n=a5 v=16
481652 On ch=1 n=g5 v=23
481654 On ch=1 n=c#5 v=27
481702 On ch=1 n=e6 v=0
481860 On ch=1 n=f#6 v=57
481866 On ch=1 n=g5 v=0
481870 On ch=1 n=a5 v=0
481888 On ch=1 n=c#6 v=17
481894 On ch=1 n=c#5 v=0
481952 On ch=1 n=c#6 v=0
481992 On ch=1 n=f#6 v=0
482500 On ch=1 n=g#4 v=33
482516 On ch=1 n=g#6 v=70
482550 Par ch=1 c=64 v=63
482558 Par ch=1 c=64 v=0
482612 Par ch=1 c=64 v=63
482632 Par ch=1 c=64 v=127
482742 On ch=1 n=g#6 v=0
482748 On ch=1 n=c5 v=44
482846 On ch=1 n=d#5 v=60
482914 On ch=1 n=g#4 v=0
482936 On ch=1 n=c5 v=0
482976 On ch=1 n=g#5 v=62
483040 On ch=1 n=d#5 v=0
483048 On ch=1 n=g#5 v=0
483106 On ch=1 n=d#6 v=74
483204 On ch=1 n=c6 v=55
483226 On ch=1 n=d#6 v=0
483302 On ch=1 n=g#5 v=66
483330 On ch=1 n=c6 v=0
483400 On ch=1 n=d#5 v=74
483402 On ch=1 n=g#5 v=0
483502 On ch=1 n=d#5 v=0
483508 On ch=1 n=g#5 v=90
483612 On ch=1 n=d#5 v=46
483688 On ch=1 n=d#6 v=91
483698 On ch=1 n=c5 v=60
483706 On ch=1 n=g#5 v=0
483716 On ch=1 n=d#5 v=0
483782 On ch=1 n=g#4 v=62
483826 On ch=1 n=d#6 v=0
483848 On ch=1 n=c5 v=0
483862 Par ch=1 c=64 v=63
483870 Par ch=1 c=64 v=0
483902 On ch=1 n=f#4 v=65
483910 On ch=1 n=d#6 v=93
483930 Par ch=1 c=64 v=63
483948 Par ch=1 c=64 v=127
483982 On ch=1 n=g#4 v=0
484020 On ch=1 n=c#5 v=68
484024 On ch=1 n=f#4 v=0
484084 On ch=1 n=c#5 v=0
484092 On ch=1 n=e5 v=54
484098 On ch=1 n=d#6 v=0
484168 On ch=1 n=e5 v=0
484192 On ch=1 n=a#5 v=94
484228 On ch=1 n=a#5 v=0
484272 On ch=1 n=c#6 v=91
484392 On ch=1 n=e5 v=71
484398 On ch=1 n=c#6 v=0
484474 On ch=1 n=f#5 v=72
484478 On ch=1 n=e5 v=0
484544 On ch=1 n=a#5 v=90
484556 On ch=1 n=f#5 v=0
484588 On ch=1 n=a#5 v=0
484674 On ch=1 n=g#4 v=60
484686 On ch=1 n=g#6 v=91
484718 Par ch=1 c=64 v=63
484726 Par ch=1 c=64 v=0
484784 Par ch=1 c=64 v=63
484802 Par ch=1 c=64 v=127
484820 On ch=1 n=c5 v=53
484890 On ch=1 n=d#5 v=73
484960 On ch=1 n=g#4 v=0
484966 On ch=1 n=g#6 v=0
484978 On ch=1 n=g#5 v=73
484994 On ch=1 n=c5 v=0
485048 On ch=1 n=d#5 v=0
485072 On ch=1 n=d#6 v=98
485074 On ch=1 n=g#5 v=0
485170 On ch=1 n=c6 v=71
485244 On ch=1 n=g#5 v=70
485260 On ch=1 n=d#6 v=0
485262 On ch=1 n=c6 v=0
485316 On ch=1 n=c6 v=71
485330 On ch=1 n=g#5 v=0
485376 On ch=1 n=c6 v=0
485450 On ch=1 n=c#5 v=77
485466 On ch=1 n=c#7 v=99
485474 Par ch=1 c=64 v=63
485480 Par ch=1 c=64 v=0
485522 Par ch=1 c=64 v=63
485542 Par ch=1 c=64 v=127
485592 On ch=1 n=e5 v=67
485662 On ch=1 n=g#5 v=78
485748 On ch=1 n=c#7 v=0
485750 On ch=1 n=c#5 v=0
485754 On ch=1 n=c#6 v=87
485786 On ch=1 n=e5 v=0
485836 On ch=1 n=g#5 v=0
485854 On ch=1 n=c#6 v=0
485860 On ch=1 n=g#6 v=88
485966 On ch=1 n=e6 v=53
486048 On ch=1 n=c#6 v=62
486088 On ch=1 n=e6 v=0
486122 On ch=1 n=g#6 v=0
486130 On ch=1 n=c#6 v=0
486162 On ch=1 n=g#5 v=60
486214 On ch=1 n=g#5 v=0
486382 On ch=1 n=g#4 v=28
486406 On ch=1 n=g#6 v=84
486460 Par ch=1 c=64 v=63
486470 Par ch=1 c=64 v=0
486508 Par ch=1 c=64 v=63
486534 Par ch=1 c=64 v=127
486634 On ch=1 n=c5 v=39
486672 On ch=1 n=g#6 v=0
486716 On ch=1 n=d#5 v=58
486794 On ch=1 n=c5 v=0
486798 On ch=1 n=g#5 v=47
486856 On ch=1 n=d#5 v=0
486862 On ch=1 n=g#5 v=0
486862 On ch=1 n=g#4 v=0
486912 On ch=1 n=d#6 v=70
486976 On ch=1 n=c6 v=58
487014 On ch=1 n=d#6 v=0
487056 On ch=1 n=g#5 v=66
487094 On ch=1 n=c6 v=0
487142 On ch=1 n=d#5 v=80
487156 On ch=1 n=g#5 v=0
487244 On ch=1 n=d#5 v=0
487244 On ch=1 n=g#5 v=93
487340 On ch=1 n=d#5 v=50
487418 On ch=1 n=d#6 v=98
487434 On ch=1 n=c5 v=63
487440 On ch=1 n=g#5 v=0
487456 On ch=1 n=d#5 v=0
487504 On ch=1 n=g#4 v=54
487530 On ch=1 n=d#6 v=0
487584 On ch=1 n=c5 v=0
487590 Par ch=1 c=64 v=63
487598 Par ch=1 c=64 v=0
487602 On ch=1 n=f#4 v=66
487612 On ch=1 n=d#6 v=104
487658 Par ch=1 c=64 v=63
487674 Par ch=1 c=64 v=127
487716 On ch=1 n=c#5 v=85
487722 On ch=1 n=g#4 v=0
487738 On ch=1 n=f#4 v=0
487784 On ch=1 n=c#5 v=0
487788 On ch=1 n=e5 v=67
487826 On ch=1 n=d#6 v=0
487874 On ch=1 n=e5 v=0
487882 On ch=1 n=a#5 v=97
487916 On ch=1 n=a#5 v=0
487952 On ch=1 n=c#6 v=94
488064 On ch=1 n=e5 v=60
488070 On ch=1 n=c#6 v=0
488140 On ch=1 n=f#5 v=70
488148 On ch=1 n=e5 v=0
488200 On ch=1 n=a#5 v=91
488214 On ch=1 n=f#5 v=0
488248 On ch=1 n=a#5 v=0
488322 On ch=1 n=g#4 v=81
488330 On ch=1 n=g#6 v=98
488376 Par ch=1 c=64 v=63
488390 Par ch=1 c=64 v=0
488430 Par ch=1 c=64 v=63
488450 On ch=1 n=c5 v=72
488458 Par ch=1 c=64 v=127
488520 On ch=1 n=d#5 v=83
488570 On ch=1 n=g#6 v=0
488572 On ch=1 n=g#4 v=0
488584 On ch=1 n=g#5 v=93
488610 On ch=1 n=c5 v=0
488658 On ch=1 n=d#5 v=0
488698 On ch=1 n=g#5 v=0
488716 On ch=1 n=d#6 v=99
488792 On ch=1 n=c6 v=72
488874 On ch=1 n=g#5 v=72
488884 On ch=1 n=c6 v=0
488884 On ch=1 n=d#6 v=0
488958 On ch=1 n=g#5 v=0
488958 On ch=1 n=c6 v=74
488992 On ch=1 n=c6 v=0
489076 On ch=1 n=c#5 v=87
489096 On ch=1 n=c#7 v=104
489136 Par ch=1 c=64 v=63
489142 Par ch=1 c=64 v=0
489202 On ch=1 n=e5 v=71
489208 Par ch=1 c=64 v=63
489226 Par ch=1 c=64 v=127
489278 On ch=1 n=g#5 v=80
489370 On ch=1 n=c#6 v=88
489378 On ch=1 n=c#7 v=0
489478 On ch=1 n=g#6 v=90
489484 On ch=1 n=e5 v=0
489502 On ch=1 n=g#5 v=0
489514 On ch=1 n=c#6 v=0
489518 On ch=1 n=c#5 v=0
489574 On ch=1 n=e6 v=66
489658 On ch=1 n=c#6 v=72
489696 On ch=1 n=e6 v=0
489744 On ch=1 n=c#6 v=0
489744 On ch=1 n=g#6 v=0
489762 On ch=1 n=g#5 v=58
489880 On ch=1 n=g#5 v=0
489948 On ch=1 n=c#5 v=114
489974 On ch=1 n=c#7 v=98
489992 Par ch=1 c=64 v=63
490006 Par ch=1 c=64 v=0
490022 Par ch=1 c=64 v=63
490054 Par ch=1 c=64 v=127
490124 On ch=1 n=e5 v=75
490218 On ch=1 n=g#5 v=77
490306 On ch=1 n=e5 v=0
490310 On ch=1 n=c#7 v=0
490318 On ch=1 n=c#6 v=75
490338 On ch=1 n=c#5 v=0
490404 On ch=1 n=g#5 v=0
490420 On ch=1 n=c#6 v=0
490434 On ch=1 n=g#6 v=96
490548 On ch=1 n=e6 v=58
490574 On ch=1 n=g#6 v=0
490606 On ch=1 n=c#6 v=77
490622 On ch=1 n=e6 v=0
490692 On ch=1 n=e6 v=82
490698 On ch=1 n=c#6 v=0
490764 On ch=1 n=e6 v=0
490802 On ch=1 n=c#7 v=116
490884 On ch=1 n=e5 v=76
490990 On ch=1 n=g#5 v=79
491008 On ch=1 n=c#7 v=0
491036 On ch=1 n=e5 v=0
491068 On ch=1 n=c#6 v=91
491108 On ch=1 n=g#5 v=0
491132 On ch=1 n=c#6 v=0
491200 On ch=1 n=g#6 v=98
491210 On ch=1 n=c5 v=122
491316 On ch=1 n=c5 v=0
491318 On ch=1 n=e6 v=73
491342 On ch=1 n=g#6 v=0
491394 On ch=1 n=c#6 v=83
491396 On ch=1 n=e6 v=0
491472 On ch=1 n=e6 v=84
491482 On ch=1 n=c#6 v=0
491544 On ch=1 n=e6 v=0
491572 On ch=1 n=c#7 v=118
491674 On ch=1 n=e5 v=89
491704 On ch=1 n=c#7 v=0
491776 On ch=1 n=g#5 v=91
491866 On ch=1 n=c#6 v=99
491914 On ch=1 n=g#5 v=0
491914 On ch=1 n=e5 v=0
491944 On ch=1 n=g#6 v=114
491960 On ch=1 n=c#6 v=0
492032 On ch=1 n=e6 v=77
492082 On ch=1 n=g#6 v=0
492112 On ch=1 n=c#6 v=93
492124 On ch=1 n=e6 v=0
492196 On ch=1 n=c#6 v=0
492202 On ch=1 n=e6 v=76
492238 On ch=1 n=e6 v=0
492312 On ch=1 n=b4 v=120
492322 On ch=1 n=e7 v=118
492326 Par ch=1 c=64 v=63
492334 Par ch=1 c=64 v=0
492378 Par ch=1 c=64 v=63
492398 Par ch=1 c=64 v=127
492412 On ch=1 n=e5 v=100
492438 On ch=1 n=b4 v=0
492502 On ch=1 n=e7 v=0
492520 On ch=1 n=g#5 v=100
492532 On ch=1 n=e5 v=0
492600 On ch=1 n=g#5 v=0
492626 On ch=1 n=c#6 v=80
492670 On ch=1 n=c#7 v=115
492682 On ch=1 n=c#6 v=0
492768 On ch=1 n=g#6 v=90
492802 On ch=1 n=c#7 v=0
492842 On ch=1 n=e6 v=60
492844 On ch=1 n=g#6 v=0
492920 On ch=1 n=g#6 v=100
492936 On ch=1 n=e6 v=0
492978 On ch=1 n=g#6 v=0
493014 On ch=1 n=e7 v=121
493086 On ch=1 n=e5 v=71
493202 On ch=1 n=g#5 v=72
493220 On ch=1 n=e5 v=0
493248 On ch=1 n=e7 v=0
493260 On ch=1 n=c#6 v=89
493294 On ch=1 n=g#5 v=0
493324 On ch=1 n=c#6 v=0
493352 Par ch=1 c=64 v=63
493372 On ch=1 n=c#7 v=116
493384 On ch=1 n=a#4 v=118
493394 Par ch=1 c=64 v=127
493472 On ch=1 n=a#4 v=0
493478 On ch=1 n=g#6 v=82
493534 On ch=1 n=c#7 v=0
493570 On ch=1 n=g#6 v=0
493592 On ch=1 n=e6 v=63
493650 On ch=1 n=e6 v=0
493658 On ch=1 n=g#6 v=95
493686 On ch=1 n=g#6 v=0
493762 On ch=1 n=g#7 v=118
493852 On ch=1 n=g#7 v=0
493858 On ch=1 n=e5 v=94
493952 On ch=1 n=g#5 v=98
494054 On ch=1 n=c#6 v=100
494098 On ch=1 n=g#5 v=0
494116 On ch=1 n=e7 v=124
494120 On ch=1 n=e5 v=0
494134 On ch=1 n=c#6 v=0
494216 On ch=1 n=c#7 v=108
494232 On ch=1 n=e7 v=0
494290 On ch=1 n=c#7 v=0
494308 On ch=1 n=g#6 v=91
494386 On ch=1 n=c#7 v=93
494398 On ch=1 n=g#6 v=0
494428 Par ch=1 c=64 v=63
494434 Par ch=1 c=64 v=0
494452 On ch=1 n=a#4 v=105
494460 On ch=1 n=g#7 v=119
494486 On ch=1 n=c#7 v=0
494488 Par ch=1 c=64 v=63
494500 Par ch=1 c=64 v=127
494548 On ch=1 n=e5 v=76
494566 On ch=1 n=g#7 v=0
494582 On ch=1 n=a#4 v=0
494646 On ch=1 n=g#5 v=100
494726 On ch=1 n=c6 v=99
494810 On ch=1 n=e7 v=121
494824 On ch=1 n=g#5 v=0
494834 On ch=1 n=c6 v=0
494858 On ch=1 n=e5 v=0
494892 On ch=1 n=c7 v=94
494916 On ch=1 n=e7 v=0
494980 On ch=1 n=c7 v=0
494990 On ch=1 n=g#6 v=83
495060 On ch=1 n=c7 v=87
495072 On ch=1 n=g#6 v=0
495154 On ch=1 n=a#4 v=108
495156 On ch=1 n=g#7 v=124
495188 On ch=1 n=c7 v=0
495256 On ch=1 n=e5 v=71
495284 On ch=1 n=a#4 v=0
495308 On ch=1 n=g#7 v=0
495344 On ch=1 n=g#5 v=97
495420 On ch=1 n=c6 v=89
495510 On ch=1 n=g#5 v=0
495512 On ch=1 n=e7 v=126
495514 On ch=1 n=c6 v=0
495544 On ch=1 n=e5 v=0
495596 On ch=1 n=c7 v=100
495630 On ch=1 n=e7 v=0
495694 On ch=1 n=c7 v=0
495710 On ch=1 n=g#6 v=83
495782 On ch=1 n=c7 v=84
495794 On ch=1 n=g#6 v=0
495852 On ch=1 n=a#4 v=103
495860 On ch=1 n=g#7 v=123
495904 On ch=1 n=c7 v=0
495948 On ch=1 n=e5 v=73
495980 On ch=1 n=a#4 v=0
496036 On ch=1 n=g#7 v=0
496036 On ch=1 n=g#5 v=97
496110 On ch=1 n=c6 v=91
496122 On ch=1 n=e5 v=0
496194 On ch=1 n=e7 v=111
496202 On ch=1 n=g#5 v=0
496218 On ch=1 n=c6 v=0
496256 On ch=1 n=c7 v=68
496284 On ch=1 n=e7 v=0
496352 On ch=1 n=c7 v=0
496352 On ch=1 n=g#6 v=93
496428 On ch=1 n=c7 v=83
496442 On ch=1 n=g#6 v=0
496482 Par ch=1 c=64 v=63
496490 Par ch=1 c=64 v=0
496518 On ch=1 n=g#7 v=120
496520 On ch=1 n=a#4 v=103
496544 Par ch=1 c=64 v=63
496548 On ch=1 n=c7 v=0
496554 Par ch=1 c=64 v=127
496582 On ch=1 n=e5 v=79
496592 On ch=1 n=g#7 v=0
496620 On ch=1 n=a#4 v=0
496644 On ch=1 n=g#5 v=103
496690 On ch=1 n=e5 v=0
496700 On ch=1 n=c6 v=92
496722 On ch=1 n=g#5 v=0
496762 On ch=1 n=e6 v=77
496768 On ch=1 n=c6 v=0
496830 On ch=1 n=g#6 v=107
496852 On ch=1 n=e6 v=0
496894 On ch=1 n=e7 v=113
496902 On ch=1 n=g#6 v=0
496950 On ch=1 n=e7 v=0
496978 On ch=1 n=g#6 v=89
497056 On ch=1 n=a#6 v=97
497088 On ch=1 n=g#6 v=0
497130 On ch=1 n=c7 v=84
497140 On ch=1 n=a#6 v=0
497192 On ch=1 n=e7 v=91
497206 On ch=1 n=c7 v=0
497248 On ch=1 n=g#7 v=110
497270 On ch=1 n=e7 v=0
497296 On ch=1 n=g#7 v=0
497320 On ch=1 n=e8 v=121
497386 On ch=1 n=e8 v=0
497714 Par ch=1 c=64 v=63
497726 Par ch=1 c=64 v=0
497980 On ch=1 n=a5 v=97
497980 On ch=1 n=a7 v=126
497980 On ch=1 n=a6 v=121
497982 On ch=1 n=c#6 v=112
497982 On ch=1 n=e6 v=116
498024 Par ch=1 c=64 v=127
498100 On ch=1 n=a6 v=0
498112 On ch=1 n=e7 v=92
498114 On ch=1 n=e6 v=0
498120 On ch=1 n=a5 v=0
498126 On ch=1 n=c#6 v=0
498140 On ch=1 n=a7 v=0
498228 On ch=1 n=c#7 v=100
498244 On ch=1 n=e7 v=0
498312 On ch=1 n=c#7 v=0
498326 On ch=1 n=a6 v=80
498378 On ch=1 n=a6 v=0
498410 On ch=1 n=g6 v=111
498410 On ch=1 n=d6 v=106
498412 On ch=1 n=b5 v=99
498412 On ch=1 n=g5 v=92
498422 On ch=1 n=e7 v=125
498462 On ch=1 n=d6 v=0
498464 On ch=1 n=g6 v=0
498480 On ch=1 n=b5 v=0
498496 On ch=1 n=g5 v=0
498514 On ch=1 n=b6 v=93
498556 On ch=1 n=e7 v=0
498606 On ch=1 n=b6 v=0
498612 On ch=1 n=g6 v=64
498660 On ch=1 n=e6 v=96
498664 On ch=1 n=g6 v=0
498728 On ch=1 n=e6 v=0
498772 On ch=1 n=c6 v=108
498774 On ch=1 n=a5 v=94
498778 On ch=1 n=f5 v=77
498780 On ch=1 n=f6 v=103
498782 On ch=1 n=c7 v=112
498828 On ch=1 n=f6 v=0
498828 On ch=1 n=c6 v=0
498846 On ch=1 n=a5 v=0
498858 On ch=1 n=f5 v=0
498860 On ch=1 n=a6 v=99
498878 On ch=1 n=c7 v=0
498938 On ch=1 n=a6 v=0
498968 On ch=1 n=d7 v=89
499064 On ch=1 n=a6 v=94
499066 On ch=1 n=d7 v=0
499118 On ch=1 n=a6 v=0
499122 Par ch=1 c=64 v=63
499128 On ch=1 n=a#5 v=109
499130 On ch=1 n=d#5 v=100
499130 On ch=1 n=d#6 v=120
499130 On ch=1 n=g5 v=91
499142 On ch=1 n=d#7 v=108
499146 Par ch=1 c=64 v=0
499152 Par ch=1 c=64 v=63
499178 Par ch=1 c=64 v=127
499204 On ch=1 n=d#6 v=0
499208 On ch=1 n=a#5 v=0
499208 On ch=1 n=a#6 v=95
499216 On ch=1 n=g5 v=0
499242 On ch=1 n=d#7 v=0
499244 On ch=1 n=d#5 v=0
499304 On ch=1 n=g6 v=84
499310 On ch=1 n=a#6 v=0
499376 On ch=1 n=d#6 v=100
499378 On ch=1 n=g6 v=0
499416 On ch=1 n=d#6 v=0
499470 On ch=1 n=f6 v=114
499476 On ch=1 n=c#6 v=110
499478 On ch=1 n=g#5 v=95
499480 On ch=1 n=c#5 v=92
499480 On ch=1 n=f5 v=84
499518 On ch=1 n=g#5 v=0
499530 On ch=1 n=c#6 v=0
499536 On ch=1 n=f5 v=0
499560 On ch=1 n=c#6 v=107
499570 On ch=1 n=c#5 v=0
499574 On ch=1 n=f6 v=0
499640 On ch=1 n=c#6 v=0
499646 On ch=1 n=g6 v=93
499734 On ch=1 n=c#6 v=108
499744 On ch=1 n=g6 v=0
499792 On ch=1 n=c#6 v=0
499832 Par ch=1 c=64 v=63
499840 On ch=1 n=c#5 v=106
499842 On ch=1 n=a5 v=112
499842 On ch=1 n=e5 v=107
499842 On ch=1 n=a6 v=126
499850 On ch=1 n=a4 v=91
499884 Par ch=1 c=64 v=127
499944 On ch=1 n=a5 v=0
499946 On ch=1 n=e6 v=92
499952 On ch=1 n=e5 v=0
499960 On ch=1 n=a4 v=0
499966 On ch=1 n=c#5 v=0
499984 On ch=1 n=a6 v=0
500044 On ch=1 n=c#6 v=106
500060 On ch=1 n=e6 v=0
500124 On ch=1 n=c#6 v=0
500206 On ch=1 n=e6 v=124
500206 On ch=1 n=g5 v=104
500208 On ch=1 n=d5 v=102
500210 On ch=1 n=b4 v=88
500214 On ch=1 n=g4 v=82
500260 On ch=1 n=d5 v=0
500262 On ch=1 n=g5 v=0
500288 On ch=1 n=b4 v=0
500288 On ch=1 n=b5 v=91
500304 On ch=1 n=g4 v=0
500332 On ch=1 n=e6 v=0
500368 On ch=1 n=g5 v=83
500376 On ch=1 n=b5 v=0
500432 On ch=1 n=e5 v=84
500452 On ch=1 n=g5 v=0
500502 On ch=1 n=e5 v=0
500548 On ch=1 n=c6 v=109
500550 On ch=1 n=a4 v=89
500556 On ch=1 n=c5 v=102
500556 On ch=1 n=f5 v=101
500560 On ch=1 n=f4 v=88
500582 Par ch=1 c=64 v=63
500602 Par ch=1 c=64 v=127
500606 On ch=1 n=c5 v=0
500612 On ch=1 n=f5 v=0
500630 On ch=1 n=a5 v=96
500632 On ch=1 n=a4 v=0
500648 On ch=1 n=f4 v=0
500658 On ch=1 n=c6 v=0
500716 On ch=1 n=a5 v=0
500726 On ch=1 n=d6 v=84
500796 On ch=1 n=a5 v=83
500812 On ch=1 n=d6 v=0
500856 On ch=1 n=a5 v=0
500884 On ch=1 n=d#6 v=112
500886 Par ch=1 c=64 v=63
500892 On ch=1 n=d#5 v=120
500894 On ch=1 n=d#4 v=100
500894 On ch=1 n=a#4 v=108
500894 On ch=1 n=g4 v=90
500908 Par ch=1 c=64 v=127
500956 On ch=1 n=a#5 v=98
500960 On ch=1 n=d#5 v=0
500968 On ch=1 n=a#4 v=0
500978 On ch=1 n=g4 v=0
500990 On ch=1 n=d#6 v=0
501004 On ch=1 n=d#4 v=0
501048 On ch=1 n=g5 v=79
501062 On ch=1 n=a#5 v=0
501124 On ch=1 n=d#5 v=104
501126 On ch=1 n=g5 v=0
501174 On ch=1 n=d#5 v=0
501226 On ch=1 n=f5 v=113
501230 On ch=1 n=g#4 v=106
501230 On ch=1 n=c#5 v=115
501232 On ch=1 n=f4 v=91
501236 On ch=1 n=c#4 v=85
501264 Par ch=1 c=64 v=63
501282 On ch=1 n=c#5 v=0
501282 On ch=1 n=g#4 v=0
501294 Par ch=1 c=64 v=127
501298 On ch=1 n=f4 v=0
501306 On ch=1 n=c#5 v=104
501326 On ch=1 n=f5 v=0
501328 On ch=1 n=c#4 v=0
501394 On ch=1 n=g5 v=102
501402 On ch=1 n=c#5 v=0
501468 On ch=1 n=c#5 v=109
501494 On ch=1 n=g5 v=0
501534 On ch=1 n=c#5 v=0
501544 Par ch=1 c=64 v=63
501554 Par ch=1 c=64 v=0
501576 On ch=1 n=a4 v=116
501578 On ch=1 n=e4 v=116
501578 On ch=1 n=a5 v=120
501580 On ch=1 n=a3 v=109
501596 Par ch=1 c=64 v=63
501618 Par ch=1 c=64 v=127
501698 On ch=1 n=e5 v=94
501736 On ch=1 n=a5 v=0
501752 On ch=1 n=a3 v=0
501758 On ch=1 n=a4 v=0
501760 On ch=1 n=e4 v=0
501810 On ch=1 n=c#5 v=108
501830 On ch=1 n=e5 v=0
501878 On ch=1 n=c#5 v=0
501936 On ch=1 n=d4 v=111
501936 On ch=1 n=e5 v=120
501938 On ch=1 n=g4 v=106
501944 On ch=1 n=g3 v=99
502008 On ch=1 n=g4 v=0
502018 On ch=1 n=d4 v=0
502044 On ch=1 n=b4 v=90
502054 On ch=1 n=g3 v=0
502158 On ch=1 n=g4 v=76
502162 On ch=1 n=b4 v=0
502224 Par ch=1 c=64 v=63
502234 On ch=1 n=g4 v=0
502252 Par ch=1 c=64 v=127
502258 On ch=1 n=f3 v=98
502260 On ch=1 n=c4 v=98
502260 On ch=1 n=f4 v=97
502266 On ch=1 n=c5 v=100
502306 On ch=1 n=f4 v=0
502316 On ch=1 n=c4 v=0
502346 On ch=1 n=f3 v=0
502372 On ch=1 n=g#4 v=97
502424 On ch=1 n=e5 v=0
502448 On ch=1 n=f4 v=78
502452 On ch=1 n=c5 v=0
502492 On ch=1 n=g#4 v=0
502512 On ch=1 n=f4 v=0
502582 On ch=1 n=e4 v=103
502584 On ch=1 n=a5 v=117
502586 On ch=1 n=a3 v=91
502590 On ch=1 n=a4 v=97
502596 Par ch=1 c=64 v=63
502648 Par ch=1 c=64 v=127
502678 On ch=1 n=e4 v=0
502690 On ch=1 n=a4 v=0
502692 On ch=1 n=e5 v=88
502708 On ch=1 n=a3 v=0
502736 On ch=1 n=a5 v=0
502792 On ch=1 n=c#5 v=104
502800 On ch=1 n=e5 v=0
502860 On ch=1 n=c#5 v=0
502928 On ch=1 n=g4 v=89
502930 On ch=1 n=e5 v=121
502932 On ch=1 n=d4 v=88
502936 On ch=1 n=g3 v=77
502992 On ch=1 n=d4 v=0
502994 On ch=1 n=g4 v=0
503030 On ch=1 n=g3 v=0
503032 On ch=1 n=b4 v=93
503146 On ch=1 n=b4 v=0
503146 On ch=1 n=g4 v=66
503222 On ch=1 n=g4 v=0
503236 On ch=1 n=f3 v=78
503242 On ch=1 n=f4 v=86
503242 On ch=1 n=c4 v=84
503246 Par ch=1 c=64 v=63
503252 On ch=1 n=c5 v=96
503290 Par ch=1 c=64 v=127
503300 On ch=1 n=f4 v=0
503318 On ch=1 n=c4 v=0
503328 On ch=1 n=f3 v=0
503340 On ch=1 n=g#4 v=94
503354 On ch=1 n=e5 v=0
503410 On ch=1 n=f4 v=82
503420 On ch=1 n=c5 v=0
503456 On ch=1 n=g#4 v=0
503478 On ch=1 n=f4 v=0
503550 On ch=1 n=a5 v=117
503560 On ch=1 n=e4 v=100
503562 On ch=1 n=a3 v=89
503564 On ch=1 n=a4 v=99
503574 Par ch=1 c=64 v=63
503610 Par ch=1 c=64 v=127
503660 On ch=1 n=a4 v=0
503660 On ch=1 n=e4 v=0
503678 On ch=1 n=e5 v=90
503692 On ch=1 n=a3 v=0
503730 On ch=1 n=a5 v=0
503780 On ch=1 n=c#5 v=100
503798 On ch=1 n=e5 v=0
503846 On ch=1 n=c#5 v=0
503900 On ch=1 n=g4 v=81
503904 On ch=1 n=d4 v=84
503904 On ch=1 n=g3 v=79
503906 On ch=1 n=e5 v=116
503990 On ch=1 n=g4 v=0
504008 On ch=1 n=b4 v=90
504010 On ch=1 n=d4 v=0
504050 On ch=1 n=g3 v=0
504124 On ch=1 n=g4 v=66
504128 On ch=1 n=b4 v=0
504206 On ch=1 n=g4 v=0
504222 On ch=1 n=f3 v=84
504230 On ch=1 n=c4 v=82
504232 On ch=1 n=c5 v=98
504234 On ch=1 n=f4 v=68
504248 Par ch=1 c=64 v=63
504256 Par ch=1 c=64 v=127
504272 On ch=1 n=e5 v=0
504284 On ch=1 n=f4 v=0
504312 On ch=1 n=f3 v=0
504316 On ch=1 n=c4 v=0
504334 On ch=1 n=g#4 v=88
504376 On ch=1 n=c5 v=0
504412 On ch=1 n=f4 v=79
504456 On ch=1 n=g#4 v=0
504488 On ch=1 n=f4 v=0
504564 On ch=1 n=e4 v=83
504568 On ch=1 n=a3 v=84
504574 On ch=1 n=a5 v=96
504574 On ch=1 n=a4 v=74
504610 Par ch=1 c=64 v=63
504664 Par ch=1 c=64 v=127
504680 On ch=1 n=e4 v=0
504682 On ch=1 n=a4 v=0
504698 On ch=1 n=e5 v=68
504702 On ch=1 n=a3 v=0
504720 On ch=1 n=a5 v=0
504806 On ch=1 n=c#5 v=86
504816 On ch=1 n=e5 v=0
504876 On ch=1 n=c#5 v=0
504926 On ch=1 n=g4 v=59
504932 On ch=1 n=d4 v=68
504932 On ch=1 n=g3 v=61
504938 On ch=1 n=e5 v=94
504972 Par ch=1 c=67 v=127
504986 On ch=1 n=g4 v=0
504998 On ch=1 n=d4 v=0
505026 On ch=1 n=g3 v=0
505048 On ch=1 n=b4 v=71
505154 On ch=1 n=b4 v=0
505174 On ch=1 n=g4 v=56
505262 On ch=1 n=g4 v=0
505310 On ch=1 n=f4 v=54
505322 On ch=1 n=c4 v=49
505342 On ch=1 n=c5 v=73
505344 On ch=1 n=f3 v=17
505358 On ch=1 n=f4 v=0
505370 On ch=1 n=c4 v=0
505416 On ch=1 n=f3 v=0
505480 On ch=1 n=g#4 v=70
505614 On ch=1 n=e5 v=0
505620 On ch=1 n=f4 v=50
505654 On ch=1 n=g#4 v=0
505700 On ch=1 n=f4 v=0
505720 On ch=1 n=c5 v=0
505884 On ch=1 n=a1 v=70
505906 On ch=1 n=a5 v=71
505998 Par ch=1 c=64 v=63
506002 Par ch=1 c=64 v=127
506090 On ch=1 n=c#6 v=51
506162 On ch=1 n=a1 v=0
506262 On ch=1 n=e6 v=57
506264 On ch=1 n=c#6 v=0
506326 On ch=1 n=a5 v=0
506400 On ch=1 n=c#6 v=75
506410 On ch=1 n=e6 v=0
506492 On ch=1 n=c#6 v=0
506520 On ch=1 n=g5 v=82
506620 On ch=1 n=g5 v=0
506640 On ch=1 n=c#6 v=65
506744 On ch=1 n=e6 v=63
506752 On ch=1 n=c#6 v=0
506844 On ch=1 n=c#6 v=57
506870 On ch=1 n=e6 v=0
506920 On ch=1 n=c#6 v=0
506922 On ch=1 n=e5 v=82
506996 On ch=1 n=e5 v=0
507032 On ch=1 n=c#6 v=72
507136 On ch=1 n=e6 v=62
507142 On ch=1 n=c#6 v=0
507218 On ch=1 n=c#6 v=62
507242 On ch=1 n=e6 v=0
507294 On ch=1 n=c#6 v=0
507308 On ch=1 n=a5 v=80
507384 On ch=1 n=a5 v=0
507406 On ch=1 n=c#6 v=67
507508 On ch=1 n=c#6 v=0
507524 On ch=1 n=e6 v=50
507600 On ch=1 n=c#6 v=65
507620 On ch=1 n=e6 v=0
507666 On ch=1 n=c#6 v=0
507680 On ch=1 n=g5 v=76
507748 On ch=1 n=g5 v=0
507770 On ch=1 n=c#6 v=66
507854 On ch=1 n=e6 v=59
507856 On ch=1 n=c#6 v=0
507942 On ch=1 n=c#6 v=54
507968 On ch=1 n=e6 v=0
508014 On ch=1 n=c#6 v=0
508038 On ch=1 n=e5 v=72
508118 On ch=1 n=c#6 v=70
508120 On ch=1 n=e5 v=0
508214 On ch=1 n=c#6 v=0
508216 On ch=1 n=e6 v=60
508290 On ch=1 n=c#6 v=58
508318 On ch=1 n=e6 v=0
508366 On ch=1 n=c#6 v=0
508396 On ch=1 n=a5 v=57
508452 On ch=1 n=a5 v=0
508482 On ch=1 n=c#6 v=65
508568 On ch=1 n=c#6 v=0
508574 On ch=1 n=e6 v=63
508660 On ch=1 n=c#6 v=59
508680 On ch=1 n=e6 v=0
508732 On ch=1 n=c#6 v=0
508752 On ch=1 n=g5 v=66
508814 On ch=1 n=g5 v=0
508842 On ch=1 n=c#6 v=59
508930 On ch=1 n=c#6 v=0
508934 On ch=1 n=e6 v=47
509020 On ch=1 n=c#6 v=49
509050 On ch=1 n=e6 v=0
509108 On ch=1 n=c#6 v=0
509120 On ch=1 n=e5 v=63
509210 On ch=1 n=c#6 v=63
509224 On ch=1 n=e5 v=0
509308 On ch=1 n=c#6 v=0
509316 On ch=1 n=e6 v=47
509382 On ch=1 n=c#6 v=57
509412 On ch=1 n=e6 v=0
509476 On ch=1 n=c#6 v=0
509476 On ch=1 n=a5 v=60
509542 On ch=1 n=a5 v=0
509564 On ch=1 n=c#6 v=52
509662 On ch=1 n=c#6 v=0
509670 On ch=1 n=e6 v=51
509768 On ch=1 n=c#6 v=59
509788 On ch=1 n=e6 v=0
509862 On ch=1 n=g5 v=57
509864 On ch=1 n=c#6 v=0
509914 On ch=1 n=g5 v=0
509960 On ch=1 n=c#6 v=57
510058 On ch=1 n=c#6 v=0
510062 On ch=1 n=e6 v=55
510134 On ch=1 n=c#6 v=50
510154 On ch=1 n=e6 v=0
510196 On ch=1 n=c#6 v=0
510226 On ch=1 n=e5 v=71
510306 On ch=1 n=e5 v=0
510310 On ch=1 n=c#6 v=65
510412 On ch=1 n=c#6 v=0
510430 On ch=1 n=e6 v=48
510514 On ch=1 n=c#6 v=73
510552 On ch=1 n=e6 v=0
510574 On ch=1 n=c#6 v=0
510612 On ch=1 n=a5 v=70
510692 On ch=1 n=a5 v=0
510706 On ch=1 n=c#6 v=74
510762 On ch=1 n=c#6 v=0
510844 On ch=1 n=c#6 v=85
510872 On ch=1 n=e6 v=80
510918 On ch=1 n=e6 v=0
510928 On ch=1 n=c#6 v=0
510968 On ch=1 n=g5 v=66
510968 On ch=1 n=a6 v=107
511050 On ch=1 n=g5 v=0
511164 On ch=1 n=e6 v=51
511224 On ch=1 n=c#6 v=80
511236 On ch=1 n=e6 v=0
511298 On ch=1 n=c#6 v=0
511322 On ch=1 n=e5 v=84
511386 On ch=1 n=e5 v=0
511476 On ch=1 n=c#6 v=47
511520 On ch=1 n=c#6 v=0
511552 On ch=1 n=e6 v=72
511614 On ch=1 n=c#6 v=61
511632 On ch=1 n=e6 v=0
511694 On ch=1 n=c#6 v=0
511730 On ch=1 n=a6 v=0
511740 On ch=1 n=a5 v=63
511824 On ch=1 n=a5 v=0
511844 On ch=1 n=c#6 v=62
511908 On ch=1 n=c#6 v=0
511992 On ch=1 n=c#6 v=100
512070 On ch=1 n=c#6 v=0
512072 On ch=1 n=g6 v=102
512104 On ch=1 n=g5 v=73
512192 On ch=1 n=g5 v=0
512204 On ch=1 n=c#6 v=81
512256 On ch=1 n=c#6 v=0
512286 On ch=1 n=e6 v=59
512352 On ch=1 n=c#6 v=80
512362 On ch=1 n=e6 v=0
512424 On ch=1 n=c#6 v=0
512430 On ch=1 n=e5 v=81
512490 On ch=1 n=e5 v=0
512558 On ch=1 n=c#6 v=103
512566 On ch=1 n=g6 v=0
512646 On ch=1 n=c#6 v=0
512654 On ch=1 n=e6 v=76
512720 On ch=1 n=c#6 v=84
512742 On ch=1 n=e6 v=0
512818 On ch=1 n=a5 v=88
512820 On ch=1 n=c#6 v=0
512900 On ch=1 n=c#6 v=70
512936 On ch=1 n=a5 v=0
512966 On ch=1 n=e6 v=78
512984 On ch=1 n=c#6 v=0
513024 On ch=1 n=e6 v=0
513066 On ch=1 n=a5 v=87
513142 On ch=1 n=a5 v=0
513144 On ch=1 n=f#6 v=106
513186 On ch=1 n=g5 v=73
513284 On ch=1 n=f#6 v=0
513288 On ch=1 n=g5 v=0
513294 On ch=1 n=c#6 v=70
513344 On ch=1 n=c#6 v=0
513362 On ch=1 n=e6 v=74
513406 On ch=1 n=c#6 v=72
513426 On ch=1 n=e6 v=0
513526 On ch=1 n=e5 v=75
513534 On ch=1 n=g6 v=100
513558 On ch=1 n=c#6 v=0
513588 On ch=1 n=e5 v=0
513668 On ch=1 n=c#6 v=75
513708 On ch=1 n=c#6 v=0
513748 On ch=1 n=e6 v=62
513814 On ch=1 n=c#6 v=92
513816 On ch=1 n=e6 v=0
513900 On ch=1 n=c#6 v=0
513918 On ch=1 n=a5 v=91
513956 On ch=1 n=g6 v=0
514014 On ch=1 n=a5 v=0
514036 On ch=1 n=c#6 v=50
514092 On ch=1 n=c#6 v=0
514098 On ch=1 n=e6 v=59
514140 On ch=1 n=e6 v=0
514144 On ch=1 n=c#6 v=56
514204 On ch=1 n=e6 v=91
514212 On ch=1 n=c#6 v=0
514254 On ch=1 n=g5 v=60
514286 On ch=1 n=a6 v=111
514302 On ch=1 n=e6 v=0
514354 On ch=1 n=g5 v=0
514376 On ch=1 n=c#6 v=80
514434 On ch=1 n=c#6 v=0
514540 On ch=1 n=c#6 v=77
514618 On ch=1 n=c#6 v=0
514638 On ch=1 n=e5 v=84
514706 On ch=1 n=e5 v=0
514744 On ch=1 n=c#6 v=93
514808 On ch=1 n=c#6 v=0
514844 On ch=1 n=e6 v=60
514914 On ch=1 n=c#6 v=88
514926 On ch=1 n=e6 v=0
515026 On ch=1 n=a5 v=86
515030 On ch=1 n=c#6 v=0
515120 On ch=1 n=c#6 v=72
515130 On ch=1 n=a5 v=0
515200 On ch=1 n=c#6 v=0
515212 On ch=1 n=e6 v=63
515274 On ch=1 n=c#6 v=67
515288 On ch=1 n=a6 v=0
515304 On ch=1 n=e6 v=0
515364 On ch=1 n=c#6 v=0
515394 On ch=1 n=g5 v=100
515490 On ch=1 n=c#6 v=84
515492 On ch=1 n=g5 v=0
515554 On ch=1 n=c#6 v=0
515574 On ch=1 n=g6 v=92
515590 On ch=1 n=e6 v=57
515652 On ch=1 n=a6 v=109
515658 On ch=1 n=c#6 v=58
515662 On ch=1 n=e6 v=0
515684 On ch=1 n=g6 v=0
515728 On ch=1 n=c#6 v=0
515736 On ch=1 n=e7 v=118
515752 On ch=1 n=a6 v=0
515760 On ch=1 n=e5 v=66
515812 On ch=1 n=e5 v=0
515874 On ch=1 n=c#6 v=96
515930 On ch=1 n=c#6 v=0
515956 On ch=1 n=e7 v=0
515956 On ch=1 n=e6 v=68
515994 On ch=1 n=c#6 v=60
516042 On ch=1 n=e6 v=0
516074 On ch=1 n=c#6 v=0
516104 On ch=1 n=a5 v=101
516208 On ch=1 n=a5 v=0
516230 On ch=1 n=c#6 v=88
516326 On ch=1 n=c#6 v=0
516332 On ch=1 n=e6 v=65
516406 On ch=1 n=c#6 v=79
516440 On ch=1 n=e6 v=0
516470 On ch=1 n=g5 v=103
516478 On ch=1 n=c#6 v=0
516542 On ch=1 n=g5 v=0
516576 On ch=1 n=c#6 v=84
516670 On ch=1 n=e6 v=74
516684 On ch=1 n=c#6 v=0
516748 On ch=1 n=c#6 v=67
516778 On ch=1 n=e6 v=0
516824 On ch=1 n=c#6 v=0
516828 On ch=1 n=e5 v=107
516894 On ch=1 n=e5 v=0
516916 On ch=1 n=c#6 v=89
517010 On ch=1 n=e6 v=88
517020 On ch=1 n=c#6 v=0
517086 On ch=1 n=c#6 v=82
517110 On ch=1 n=e6 v=0
517162 On ch=1 n=c#6 v=0
517170 On ch=1 n=a5 v=111
517264 On ch=1 n=a5 v=0
517268 On ch=1 n=c#6 v=99
517354 On ch=1 n=e6 v=94
517364 On ch=1 n=c#6 v=0
517424 On ch=1 n=c#6 v=92
517460 On ch=1 n=e6 v=0
517510 On ch=1 n=c#6 v=0
517534 On ch=1 n=g5 v=106
517618 On ch=1 n=c#6 v=105
517626 On ch=1 n=g5 v=0
517684 Par ch=1 c=67 v=0
517708 On ch=1 n=e6 v=91
517716 On ch=1 n=c#6 v=0
517764 On ch=1 n=c#6 v=92
517804 On ch=1 n=e6 v=0
517842 On ch=1 n=c#6 v=0
517884 On ch=1 n=e5 v=100
517950 On ch=1 n=e5 v=0
517968 On ch=1 n=c#6 v=92
518010 Par ch=1 c=67 v=127
518060 On ch=1 n=c#6 v=0
518066 On ch=1 n=e6 v=84
518154 On ch=1 n=c#6 v=63
518156 Par ch=1 c=67 v=0
518160 On ch=1 n=e6 v=0
518194 On ch=1 n=c#6 v=0
518234 Par ch=1 c=64 v=63
518244 Par ch=1 c=64 v=0
518270 On ch=1 n=a#4 v=80
518272 On ch=1 n=e5 v=83
518278 On ch=1 n=f#4 v=72
518322 Par ch=1 c=64 v=127
518410 On ch=1 n=g5 v=84
518424 On ch=1 n=e5 v=0
518448 On ch=1 n=c#5 v=79
518476 On ch=1 n=f#4 v=0
518500 On ch=1 n=a#4 v=0
518516 On ch=1 n=a#5 v=97
518526 On ch=1 n=g5 v=0
518552 On ch=1 n=c#5 v=0
518564 On ch=1 n=e5 v=77
518600 On ch=1 n=c#6 v=97
518612 On ch=1 n=a#5 v=0
518630 On ch=1 n=e5 v=0
518664 On ch=1 n=c#6 v=0
518710 On ch=1 n=e6 v=98
518716 On ch=1 n=a#5 v=101
518806 On ch=1 n=g6 v=100
518814 On ch=1 n=e6 v=0
518828 On ch=1 n=a#5 v=0
518850 On ch=1 n=c#6 v=94
518888 On ch=1 n=a#6 v=108
518906 On ch=1 n=g6 v=0
518912 On ch=1 n=c#6 v=0
518934 On ch=1 n=e6 v=80
518980 On ch=1 n=c#7 v=104
518998 On ch=1 n=a#6 v=0
519000 On ch=1 n=e6 v=0
519034 On ch=1 n=c#7 v=0
519054 On ch=1 n=a#6 v=95
519080 On ch=1 n=e7 v=114
519122 On ch=1 n=b6 v=20
519132 On ch=1 n=a#6 v=0
519164 On ch=1 n=b6 v=0
519168 On ch=1 n=g7 v=108
519172 On ch=1 n=c#7 v=95
519174 On ch=1 n=e7 v=0
519242 On ch=1 n=c#7 v=0
519246 On ch=1 n=a#7 v=110
519266 On ch=1 n=e7 v=88
519278 On ch=1 n=g7 v=0
519338 On ch=1 n=c#8 v=105
519340 On ch=1 n=e7 v=0
519368 On ch=1 n=a#7 v=0
519404 On ch=1 n=a7 v=124
519420 On ch=1 n=c#8 v=0
519466 On ch=1 n=a7 v=0
519526 On ch=1 n=a#7 v=114
519598 On ch=1 n=c#8 v=103
519604 On ch=1 n=a#7 v=0
519666 On ch=1 n=a#7 v=103
519694 On ch=1 n=c#8 v=0
519744 On ch=1 n=a#7 v=0
519754 On ch=1 n=g7 v=120
519852 On ch=1 n=a#7 v=106
519886 On ch=1 n=g7 v=0
519936 On ch=1 n=a#7 v=0
519936 On ch=1 n=c#8 v=99
520002 On ch=1 n=a#7 v=91
520034 On ch=1 n=c#8 v=0
520084 On ch=1 n=a#7 v=0
520090 On ch=1 n=e7 v=125
520160 On ch=1 n=e7 v=0
520178 On ch=1 n=a#7 v=101
520258 On ch=1 n=a#7 v=0
520258 On ch=1 n=c#8 v=99
520328 On ch=1 n=a#7 v=104
520368 On ch=1 n=c#8 v=0
520424 On ch=1 n=a#7 v=0
520426 On ch=1 n=a#6 v=110
520426 On ch=1 n=d#6 v=92
520428 On ch=1 n=d#7 v=125
520430 On ch=1 n=g6 v=91
520458 Par ch=1 c=64 v=63
520468 Par ch=1 c=64 v=0
520510 Par ch=1 c=64 v=63
520530 On ch=1 n=g7 v=93
520534 Par ch=1 c=64 v=127
520628 On ch=1 n=a#7 v=93
520630 On ch=1 n=g7 v=0
520696 On ch=1 n=g7 v=73
520712 On ch=1 n=d#7 v=0
520714 On ch=1 n=a#7 v=0
520790 On ch=1 n=g7 v=0
520802 On ch=1 n=c#7 v=120
520848 On ch=1 n=a#6 v=0
520888 On ch=1 n=g7 v=91
520952 On ch=1 n=g6 v=0
520972 On ch=1 n=a#7 v=106
520976 On ch=1 n=c#7 v=0
520986 On ch=1 n=g7 v=0
521050 On ch=1 n=g7 v=76
521052 On ch=1 n=a#7 v=0
521128 On ch=1 n=g7 v=0
521140 On ch=1 n=a#6 v=114
521204 On ch=1 n=d#6 v=0
521212 On ch=1 n=g7 v=89
521216 On ch=1 n=a#6 v=0
521294 On ch=1 n=a#7 v=103
521296 On ch=1 n=g7 v=0
521360 On ch=1 n=g7 v=89
521368 On ch=1 n=a#7 v=0
521418 On ch=1 n=g7 v=0
521542 On ch=1 n=c#6 v=95
521542 On ch=1 n=a6 v=109
521548 On ch=1 n=e6 v=87
521550 On ch=1 n=f#5 v=87
521586 Par ch=1 c=64 v=63
521596 Par ch=1 c=64 v=0
521654 Par ch=1 c=64 v=63
521672 Par ch=1 c=64 v=127
521682 On ch=1 n=a#6 v=78
521780 On ch=1 n=f#5 v=0
521800 On ch=1 n=c#7 v=82
521804 On ch=1 n=a#6 v=0
521808 On ch=1 n=e6 v=0
521866 On ch=1 n=a6 v=0
521874 On ch=1 n=a#6 v=74
521882 On ch=1 n=c#6 v=0
521912 On ch=1 n=c#7 v=0
521950 On ch=1 n=g6 v=93
521952 On ch=1 n=a#6 v=0
522038 On ch=1 n=a#6 v=91
522108 On ch=1 n=c#7 v=85
522116 On ch=1 n=a#6 v=0
522166 On ch=1 n=g6 v=0
522186 On ch=1 n=a#6 v=81
522208 On ch=1 n=c#7 v=0
522266 On ch=1 n=a#6 v=0
522286 On ch=1 n=e6 v=94
522350 On ch=1 n=e6 v=0
522376 On ch=1 n=a#6 v=91
522454 On ch=1 n=c#7 v=88
522460 On ch=1 n=a#6 v=0
522514 On ch=1 n=a#6 v=63
522560 On ch=1 n=c#7 v=0
522604 On ch=1 n=a#6 v=0
522636 On ch=1 n=d#6 v=97
522638 On ch=1 n=a#5 v=82
522650 On ch=1 n=g5 v=59
522652 On ch=1 n=d#5 v=73
522722 On ch=1 n=g6 v=71
522808 On ch=1 n=a#6 v=73
522816 On ch=1 n=g6 v=0
522836 On ch=1 n=d#6 v=0
522880 On ch=1 n=g6 v=63
522890 On ch=1 n=a#6 v=0
522956 On ch=1 n=a#5 v=0
522966 On ch=1 n=g6 v=0
522988 On ch=1 n=c#6 v=89
523058 On ch=1 n=g5 v=0
523060 On ch=1 n=g6 v=63
523096 On ch=1 n=c#6 v=0
523152 On ch=1 n=g6 v=0
523154 On ch=1 n=a#6 v=77
523234 On ch=1 n=a#6 v=0
523234 On ch=1 n=g6 v=65
523308 On ch=1 n=g6 v=0
523318 On ch=1 n=a#5 v=84
523350 On ch=1 n=d#5 v=0
523396 On ch=1 n=g6 v=66
523404 On ch=1 n=a#5 v=0
523484 On ch=1 n=g6 v=0
523494 On ch=1 n=a#6 v=83
523584 On ch=1 n=g6 v=58
523588 On ch=1 n=a#6 v=0
523656 On ch=1 n=g6 v=0
523708 On ch=1 n=a5 v=71
523794 On ch=1 n=a#5 v=90
523822 Par ch=1 c=64 v=63
523860 Par ch=1 c=64 v=127
523906 On ch=1 n=c#6 v=72
523908 On ch=1 n=a#5 v=0
524002 On ch=1 n=a#5 v=76
524018 On ch=1 n=c#6 v=0
524074 On ch=1 n=a#5 v=0
524106 On ch=1 n=g5 v=67
524120 On ch=1 n=a5 v=0
524184 On ch=1 n=a#5 v=70
524258 On ch=1 n=a#5 v=0
524278 On ch=1 n=c#6 v=57
524344 On ch=1 n=c#6 v=0
524356 On ch=1 n=a#5 v=67
524424 On ch=1 n=a#5 v=0
524426 On ch=1 n=e5 v=76
524476 On ch=1 n=g5 v=0
524516 On ch=1 n=a#5 v=75
524598 On ch=1 n=a#5 v=0
524602 On ch=1 n=c#6 v=70
524654 On ch=1 n=e5 v=0
524692 On ch=1 n=c#6 v=0
524692 On ch=1 n=a#5 v=72
524762 On ch=1 n=a#5 v=0
524780 On ch=1 n=a5 v=79
524878 On ch=1 n=a#5 v=70
524928 On ch=1 n=a5 v=0
524956 On ch=1 n=a#5 v=0
524964 On ch=1 n=c#6 v=60
525050 On ch=1 n=a#5 v=57
525056 On ch=1 n=c#6 v=0
525126 On ch=1 n=a#5 v=0
525138 On ch=1 n=g5 v=54
525224 On ch=1 n=a#5 v=63
525238 On ch=1 n=g5 v=0
525318 On ch=1 n=a#5 v=0
525322 On ch=1 n=c#6 v=62
525404 On ch=1 n=c#6 v=0
525408 On ch=1 n=a#5 v=59
525476 On ch=1 n=a#5 v=0
525522 On ch=1 n=e5 v=48
525596 Par ch=1 c=67 v=127
525600 On ch=1 n=a#5 v=66
525626 On ch=1 n=e5 v=0
525692 On ch=1 n=a#5 v=0
525706 On ch=1 n=c#6 v=65
525792 On ch=1 n=c#6 v=0
525806 On ch=1 n=a#5 v=60
525916 On ch=1 n=a#5 v=0
525942 On ch=1 n=a6 v=73
526090 On ch=1 n=a6 v=0
526094 On ch=1 n=c#6 v=69
526224 On ch=1 n=a#5 v=69
526318 On ch=1 n=c#6 v=0
526344 On ch=1 n=a#5 v=0
526346 On ch=1 n=g6 v=73
526492 On ch=1 n=c#6 v=62
526576 On ch=1 n=g6 v=0
526586 On ch=1 n=a#5 v=57
526666 On ch=1 n=c#6 v=0
526708 On ch=1 n=e6 v=71
526718 On ch=1 n=a#5 v=0
526848 On ch=1 n=c#6 v=49
526912 On ch=1 n=a#5 v=54
526982 On ch=1 n=c#6 v=0
527040 On ch=1 n=a#5 v=0
527050 On ch=1 n=a5 v=78
527086 On ch=1 n=e6 v=0
527172 On ch=1 n=a#5 v=60
527278 On ch=1 n=c#6 v=59
527324 On ch=1 n=a#5 v=0
527418 On ch=1 n=g5 v=68
527420 On ch=1 n=c#6 v=0
527456 On ch=1 n=a5 v=0
527522 On ch=1 n=a#5 v=50
527614 On ch=1 n=c#6 v=52
527672 On ch=1 n=a#5 v=0
527718 On ch=1 n=c#6 v=0
527752 On ch=1 n=e5 v=41
527878 On ch=1 n=a#5 v=52
527898 On ch=1 n=g5 v=0
527998 On ch=1 n=c#6 v=50
528002 On ch=1 n=a#5 v=0
528080 On ch=1 n=c#6 v=0
528140 On ch=1 n=a6 v=67
528234 On ch=1 n=a6 v=0
528280 On ch=1 n=c#6 v=38
528414 On ch=1 n=a#5 v=67
528514 On ch=1 n=a#5 v=0
528536 On ch=1 n=c#6 v=0
528540 On ch=1 n=g6 v=54
528600 On ch=1 n=e5 v=0
528682 On ch=1 n=c#6 v=43
528786 On ch=1 n=a#5 v=53
528834 On ch=1 n=c#6 v=0
528876 On ch=1 n=g6 v=0
528906 On ch=1 n=a#5 v=0
528916 On ch=1 n=e6 v=60
529062 On ch=1 n=c#6 v=46
529134 On ch=1 n=a#5 v=38
529200 On ch=1 n=c#6 v=0
529258 On ch=1 n=a5 v=55
529266 On ch=1 n=a#5 v=0
529356 On ch=1 n=e6 v=0
529396 On ch=1 n=a#5 v=41
529516 On ch=1 n=c#6 v=47
529522 On ch=1 n=a5 v=0
529558 On ch=1 n=a#5 v=0
529634 On ch=1 n=g5 v=38
529640 On ch=1 n=c#6 v=0
529762 On ch=1 n=a#5 v=42
529764 On ch=1 n=g5 v=0
529872 On ch=1 n=a#5 v=0
529872 On ch=1 n=c#6 v=33
529960 On ch=1 n=c#6 v=0
529988 On ch=1 n=e5 v=30
530112 On ch=1 n=a#5 v=31
530206 On ch=1 n=c#6 v=53
530220 On ch=1 n=a#5 v=0
530262 On ch=1 n=e5 v=0
530314 On ch=1 n=c#6 v=0
530348 On ch=1 n=a6 v=65
530458 On ch=1 n=a6 v=0
530496 On ch=1 n=c#6 v=29
530614 On ch=1 n=a#5 v=55
530630 On ch=1 n=c#6 v=0
530726 On ch=1 n=a#5 v=0
530744 On ch=1 n=g6 v=53
530872 On ch=1 n=c#6 v=57
530932 On ch=1 n=g6 v=0
530992 On ch=1 n=a#5 v=37
531064 On ch=1 n=c#6 v=0
531100 On ch=1 n=e6 v=56
531242 On ch=1 n=e6 v=0
531252 On ch=1 n=c#6 v=47
531332 On ch=1 n=c#5 v=52
531346 On ch=1 n=c#6 v=0
531398 On ch=1 n=c#5 v=0
531402 On ch=1 n=a#5 v=0
531496 On ch=1 n=f#5 v=92
531518 On ch=1 n=a5 v=47
531616 On ch=1 n=a#5 v=46
531658 On ch=1 n=a5 v=0
531708 On ch=1 n=a#5 v=0
531716 On ch=1 n=c#6 v=58
531860 On ch=1 n=c#6 v=0
531862 On ch=1 n=g5 v=42
531976 On ch=1 n=a#5 v=55
531980 On ch=1 n=g5 v=0
532098 On ch=1 n=a#5 v=0
532102 On ch=1 n=c#6 v=47
532228 On ch=1 n=c#6 v=0
532230 On ch=1 n=e5 v=46
532340 On ch=1 n=e5 v=0
532342 On ch=1 n=a#5 v=69
532436 On ch=1 n=c#6 v=59
532438 On ch=1 n=a#5 v=0
532478 On ch=1 n=c#6 v=0
532568 On ch=1 n=a6 v=80
532650 On ch=1 n=a6 v=0
532716 On ch=1 n=c#6 v=51
532806 On ch=1 n=c#6 v=0
532824 On ch=1 n=a#5 v=59
532970 On ch=1 n=g6 v=65
532978 On ch=1 n=a#5 v=0
533098 On ch=1 n=c#6 v=58
533108 On ch=1 n=f#5 v=0
533212 On ch=1 n=a#5 v=52
533222 On ch=1 n=g6 v=0
533226 On ch=1 n=c#6 v=0
533326 On ch=1 n=a#5 v=0
533346 On ch=1 n=e6 v=60
533476 On ch=1 n=c#6 v=63
533496 On ch=1 n=e6 v=0
533552 On ch=1 n=a#5 v=59
533580 On ch=1 n=c#6 v=0
533596 On ch=1 n=a#4 v=80
533642 On ch=1 n=a#5 v=0
533694 On ch=1 n=e5 v=97
533708 On ch=1 n=a#4 v=0
533736 On ch=1 n=a5 v=53
533846 On ch=1 n=a#5 v=41
533858 On ch=1 n=a5 v=0
533942 On ch=1 n=a#5 v=0
533954 On ch=1 n=c#6 v=48
534064 On ch=1 n=e5 v=0
534080 On ch=1 n=c#6 v=0
534080 On ch=1 n=g5 v=49
534206 On ch=1 n=a#5 v=47
534208 On ch=1 n=g5 v=0
534316 On ch=1 n=c#6 v=59
534322 On ch=1 n=a#5 v=0
534446 On ch=1 n=e5 v=57
534454 On ch=1 n=c#6 v=0
534540 On ch=1 n=e5 v=0
534540 On ch=1 n=a#5 v=71
534646 On ch=1 n=c#6 v=72
534660 On ch=1 n=a#5 v=0
534708 On ch=1 n=c#6 v=0
534796 On ch=1 n=a6 v=76
534892 On ch=1 n=a6 v=0
534934 On ch=1 n=c#6 v=46
535030 On ch=1 n=a#5 v=70
535040 On ch=1 n=c#6 v=0
535144 On ch=1 n=a#5 v=0
535146 On ch=1 n=g6 v=71
535276 On ch=1 n=c#6 v=42
535340 On ch=1 n=g6 v=0
535366 On ch=1 n=f#4 v=86
535406 On ch=1 n=a#5 v=43
535472 On ch=1 n=c#6 v=0
535478 On ch=1 n=f#4 v=0
535492 On ch=1 n=a#5 v=0
535492 On ch=1 n=e6 v=75
535496 On ch=1 n=c#5 v=100
535624 On ch=1 n=c#6 v=40
535640 On ch=1 n=e6 v=0
535690 On ch=1 n=a#5 v=67
535736 On ch=1 n=c#6 v=0
535814 On ch=1 n=a#5 v=0
535862 On ch=1 n=a5 v=71
535934 On ch=1 n=c#5 v=0
535964 On ch=1 n=a#5 v=59
536004 On ch=1 n=a5 v=0
536072 On ch=1 n=c#6 v=63
536076 On ch=1 n=a#5 v=0
536140 On ch=1 n=a#4 v=100
536194 On ch=1 n=c#6 v=0
536194 On ch=1 n=g5 v=60
536230 On ch=1 n=a#4 v=0
536236 On ch=1 n=e5 v=93
536306 On ch=1 n=g5 v=0
536320 On ch=1 n=a#5 v=60
536338 On ch=1 n=e5 v=0
536420 On ch=1 n=c#6 v=66
536434 On ch=1 n=a#5 v=0
536554 On ch=1 n=e5 v=57
536560 On ch=1 n=c#6 v=0
536652 On ch=1 n=e5 v=0
536658 On ch=1 n=a#5 v=76
536770 On ch=1 n=c#6 v=59
536776 On ch=1 n=a#5 v=0
536826 On ch=1 n=c#6 v=0
536910 On ch=1 n=a6 v=81
537016 On ch=1 n=a6 v=0
537038 On ch=1 n=c#6 v=74
537140 On ch=1 n=c#6 v=0
537154 On ch=1 n=a#5 v=65
537240 On ch=1 n=a#5 v=0
537254 On ch=1 n=g6 v=81
537362 On ch=1 n=c#6 v=71
537374 On ch=1 n=g6 v=0
537470 On ch=1 n=a#5 v=66
537490 On ch=1 n=c#6 v=0
537502 On ch=1 n=c#5 v=101
537564 On ch=1 n=a#5 v=0
537586 On ch=1 n=e6 v=71
537594 Par ch=1 c=64 v=63
537614 On ch=1 n=f#5 v=104
537622 On ch=1 n=c#5 v=0
537636 Par ch=1 c=64 v=127
537708 On ch=1 n=c#6 v=60
537734 On ch=1 n=e6 v=0
537796 On ch=1 n=a#5 v=61
537836 On ch=1 n=c#6 v=0
537938 On ch=1 n=a#5 v=0
537960 On ch=1 n=a5 v=73
538064 On ch=1 n=a#5 v=54
538126 On ch=1 n=a5 v=0
538176 On ch=1 n=c#6 v=58
538190 On ch=1 n=a#5 v=0
538306 On ch=1 n=g5 v=60
538320 On ch=1 n=c#6 v=0
538422 On ch=1 n=a#5 v=63
538442 On ch=1 n=g5 v=0
538528 On ch=1 n=c#6 v=61
538538 On ch=1 n=a#5 v=0
538650 On ch=1 n=e5 v=57
538656 On ch=1 n=c#6 v=0
538752 On ch=1 n=e5 v=0
538762 On ch=1 n=a#5 v=69
538854 On ch=1 n=c#6 v=71
538866 On ch=1 n=a#5 v=0
538924 On ch=1 n=c#6 v=0
539014 On ch=1 n=a6 v=89
539114 On ch=1 n=a6 v=0
539164 On ch=1 n=c#6 v=47
539276 On ch=1 n=a#5 v=65
539294 On ch=1 n=c#6 v=0
539388 On ch=1 n=a#5 v=0
539404 On ch=1 n=g6 v=76
539522 On ch=1 n=f#5 v=0
539538 On ch=1 n=c#6 v=51
539576 On ch=1 n=g6 v=0
539636 On ch=1 n=a#5 v=50
539690 On ch=1 n=c#6 v=0
539750 On ch=1 n=a#5 v=0
539768 On ch=1 n=e6 v=67
539890 On ch=1 n=c#6 v=37
539908 On ch=1 n=e6 v=0
539954 On ch=1 n=e5 v=59
539962 On ch=1 n=a#5 v=54
539970 On ch=1 n=c#6 v=0
540012 On ch=1 n=a#5 v=0
540052 On ch=1 n=f#5 v=75
540066 On ch=1 n=e5 v=0
540132 On ch=1 n=f#5 v=0
540224 On ch=1 n=c#6 v=92
540254 On ch=1 n=a5 v=67
540304 On ch=1 n=c#6 v=0
540416 On ch=1 n=a#5 v=54
540420 On ch=1 n=a5 v=0
540534 On ch=1 n=a#5 v=0
540536 On ch=1 n=c#6 v=60
540684 On ch=1 n=c#6 v=0
540696 On ch=1 n=g5 v=57
540796 On ch=1 n=a#5 v=65
540802 On ch=1 n=g5 v=0
540886 On ch=1 n=c#6 v=75
540908 On ch=1 n=a#5 v=0
541024 On ch=1 n=e5 v=74
541030 On ch=1 n=c#6 v=0
541140 On ch=1 n=e5 v=0
541144 On ch=1 n=a#5 v=78
541262 On ch=1 n=c#6 v=57
541276 On ch=1 n=a#5 v=0
541366 On ch=1 n=a5 v=84
541384 On ch=1 n=c#6 v=0
541474 On ch=1 n=a#5 v=85
541526 On ch=1 n=a5 v=0
541584 On ch=1 n=c#6 v=65
541626 On ch=1 n=a#5 v=0
541686 On ch=1 n=g5 v=85
541738 On ch=1 n=c#6 v=0
541800 On ch=1 n=a#5 v=90
541850 On ch=1 n=g5 v=0
541906 On ch=1 n=c#6 v=89
541956 On ch=1 n=a#5 v=0
542050 On ch=1 n=c#6 v=0
542052 On ch=1 n=e5 v=94
542182 On ch=1 n=a#5 v=101
542186 On ch=1 n=e5 v=0
542284 On ch=1 n=c#6 v=94
542318 On ch=1 n=a#5 v=0
542368 On ch=1 n=c#6 v=0
542440 On ch=1 n=c#6 v=115
542480 On ch=1 n=a5 v=84
542498 On ch=1 n=c#6 v=0
542590 On ch=1 n=a#5 v=88
542596 On ch=1 n=a5 v=0
542694 On ch=1 n=c#6 v=77
542714 On ch=1 n=a#5 v=0
542818 On ch=1 n=g5 v=83
542864 On ch=1 n=c#6 v=0
542934 On ch=1 n=a#5 v=79
542984 On ch=1 n=g5 v=0
543038 On ch=1 n=c#6 v=62
543070 On ch=1 n=a#5 v=0
543196 On ch=1 n=e5 v=65
543208 On ch=1 n=c#6 v=0
543306 On ch=1 n=a#5 v=80
543314 On ch=1 n=e5 v=0
543430 On ch=1 n=c#6 v=65
543464 On ch=1 n=a#5 v=0
543582 On ch=1 n=a5 v=76
543588 On ch=1 n=c#6 v=0
543696 On ch=1 n=a#5 v=68
543724 On ch=1 n=a5 v=0
543808 On ch=1 n=c#6 v=58
543830 On ch=1 n=a#5 v=0
543896 On ch=1 n=c#6 v=0
543978 On ch=1 n=c#6 v=88
544000 On ch=1 n=g5 v=41
544036 On ch=1 n=c#6 v=0
544106 On ch=1 n=g5 v=0
544118 On ch=1 n=a#5 v=46
544198 On ch=1 n=a#5 v=0
544208 On ch=1 n=c#6 v=53
544388 On ch=1 n=c#6 v=0
544408 On ch=1 n=e5 v=33
544524 On ch=1 n=a#5 v=65
544526 On ch=1 n=e5 v=0
544730 On ch=1 n=a#5 v=0
544740 On ch=1 n=c#6 v=52
544840 Par ch=1 c=64 v=63
544856 On ch=1 n=b4 v=42
544878 Par ch=1 c=64 v=127
544922 On ch=1 n=c#6 v=0
544962 On ch=1 n=b4 v=0
544964 On ch=1 n=f#5 v=37
545128 On ch=1 n=c#6 v=56
545148 On ch=1 n=c#7 v=61
545240 On ch=1 n=c#7 v=0
545282 On ch=1 n=c#6 v=0
545348 On ch=1 n=f#5 v=0
545360 On ch=1 n=c#7 v=45
545434 On ch=1 n=c#7 v=0
545440 On ch=1 n=d6 v=32
545522 On ch=1 n=d6 v=0
545530 On ch=1 n=b5 v=59
545536 On ch=1 n=f#6 v=77
545608 On ch=1 n=f#6 v=0
545644 On ch=1 n=d6 v=30
545688 On ch=1 n=b5 v=0
545694 On ch=1 n=d6 v=0
545704 On ch=1 n=f#6 v=59
545784 On ch=1 n=f#6 v=0
545820 On ch=1 n=d6 v=27
545894 On ch=1 n=d6 v=0
545896 On ch=1 n=f#5 v=65
545904 On ch=1 n=e6 v=68
545956 On ch=1 n=f#5 v=0
545992 On ch=1 n=e6 v=0
546014 On ch=1 n=d6 v=45
546072 On ch=1 n=d6 v=0
546098 On ch=1 n=f#6 v=69
546174 On ch=1 n=d6 v=53
546178 On ch=1 n=f#6 v=0
546258 On ch=1 n=d6 v=0
546276 On ch=1 n=g#6 v=82
546284 On ch=1 n=g#5 v=57
546294 On ch=1 n=b4 v=34
546296 Par ch=1 c=64 v=63
546318 Par ch=1 c=64 v=127
546370 On ch=1 n=e6 v=65
546428 On ch=1 n=g#6 v=0
546458 On ch=1 n=c#6 v=75
546476 On ch=1 n=e6 v=0
546544 On ch=1 n=g#5 v=0
546554 On ch=1 n=c#6 v=0
546564 On ch=1 n=e6 v=50
546612 On ch=1 n=a5 v=61
546628 On ch=1 n=a6 v=66
546640 On ch=1 n=b4 v=0
546658 On ch=1 n=e6 v=0
546692 On ch=1 n=a6 v=0
546706 On ch=1 n=e6 v=68
546768 On ch=1 n=e6 v=0
546802 On ch=1 n=c#7 v=83
546810 On ch=1 n=a5 v=0
546874 On ch=1 n=b4 v=58
546894 On ch=1 n=c#6 v=59
546900 Par ch=1 c=64 v=63
546910 On ch=1 n=c#7 v=0
546934 Par ch=1 c=64 v=127
546948 On ch=1 n=f#5 v=52
546962 On ch=1 n=b4 v=0
546990 On ch=1 n=c#6 v=0
547072 On ch=1 n=c#7 v=75
547102 On ch=1 n=c#6 v=64
547180 On ch=1 n=c#7 v=0
547206 On ch=1 n=d6 v=38
547268 On ch=1 n=d6 v=0
547292 On ch=1 n=c#7 v=72
547332 On ch=1 n=c#6 v=0
547376 On ch=1 n=c#7 v=0
547380 On ch=1 n=d6 v=49
547428 On ch=1 n=b5 v=69
547440 On ch=1 n=f#5 v=0
547458 On ch=1 n=d6 v=0
547458 On ch=1 n=f#6 v=83
547544 On ch=1 n=f#6 v=0
547550 On ch=1 n=d6 v=57
547626 On ch=1 n=d6 v=0
547626 On ch=1 n=f#6 v=81
547630 On ch=1 n=b5 v=0
547714 On ch=1 n=f#6 v=0
547726 On ch=1 n=d6 v=61
547772 On ch=1 n=f#5 v=82
547798 On ch=1 n=e6 v=81
547806 On ch=1 n=d6 v=0
547892 On ch=1 n=e6 v=0
547892 On ch=1 n=f#5 v=0
547898 On ch=1 n=d6 v=58
547974 On ch=1 n=d6 v=0
547978 On ch=1 n=f#6 v=77
548054 On ch=1 n=f#6 v=0
548054 On ch=1 n=d6 v=58
548098 Par ch=1 c=64 v=63
548098 On ch=1 n=b4 v=56
548114 On ch=1 n=g#5 v=73
548134 On ch=1 n=g#6 v=84
548138 On ch=1 n=d6 v=0
548138 Par ch=1 c=64 v=127
548238 On ch=1 n=e6 v=56
548248 On ch=1 n=g#6 v=0
548308 On ch=1 n=c#6 v=75
548320 On ch=1 n=e6 v=0
548344 On ch=1 n=g#5 v=0
548382 On ch=1 n=c#6 v=0
548398 On ch=1 n=e6 v=37
548464 On ch=1 n=a5 v=63
548466 On ch=1 n=a6 v=65
548496 On ch=1 n=e6 v=0
548540 On ch=1 n=a6 v=0
548542 On ch=1 n=b4 v=0
548548 On ch=1 n=e6 v=63
548610 On ch=1 n=e6 v=0
548642 On ch=1 n=c#7 v=79
548728 On ch=1 n=b4 v=54
548732 On ch=1 n=c#6 v=64
548734 On ch=1 n=a5 v=0
548734 Par ch=1 c=64 v=63
548750 On ch=1 n=c#7 v=0
548768 Par ch=1 c=64 v=127
548802 On ch=1 n=f#5 v=50
548822 On ch=1 n=b4 v=0
548846 On ch=1 n=c#6 v=0
548900 On ch=1 n=c#7 v=82
548930 On ch=1 n=c#6 v=76
548946 On ch=1 n=f#5 v=0
549002 On ch=1 n=c#7 v=0
549032 On ch=1 n=d6 v=38
549068 On ch=1 n=c#6 v=0
549104 On ch=1 n=d6 v=0
549110 On ch=1 n=c#7 v=68
549206 On ch=1 n=d6 v=46
549208 On ch=1 n=c#7 v=0
549288 On ch=1 n=d6 v=0
549288 On ch=1 n=f#5 v=66
549300 On ch=1 n=f#6 v=65
549372 On ch=1 n=f#5 v=0
549392 On ch=1 n=f#6 v=0
549428 On ch=1 n=d6 v=21
549486 On ch=1 n=d6 v=0
549498 On ch=1 n=f#6 v=51
549564 On ch=1 n=f#6 v=0
549590 On ch=1 n=d6 v=32
549614 On ch=1 n=a4 v=44
549680 On ch=1 n=e5 v=25
549702 On ch=1 n=d6 v=0
549768 On ch=1 n=b5 v=53
549780 Par ch=1 c=64 v=63
549808 On ch=1 n=b6 v=72
549814 Par ch=1 c=64 v=127
549908 On ch=1 n=b6 v=0
549912 On ch=1 n=c6 v=40
549986 On ch=1 n=b5 v=0
550004 On ch=1 n=c6 v=0
550008 On ch=1 n=b6 v=56
550082 On ch=1 n=b6 v=0
550086 On ch=1 n=c6 v=45
550130 On ch=1 n=e5 v=0
550158 On ch=1 n=c6 v=0
550188 On ch=1 n=a5 v=51
550190 On ch=1 n=e6 v=68
550270 On ch=1 n=e6 v=0
550286 On ch=1 n=c6 v=30
550312 On ch=1 n=a5 v=0
550358 On ch=1 n=c6 v=0
550362 On ch=1 n=e6 v=57
550458 On ch=1 n=e6 v=0
550468 On ch=1 n=c6 v=55
550540 On ch=1 n=c6 v=0
550550 On ch=1 n=e5 v=69
550556 On ch=1 n=d6 v=67
550620 On ch=1 n=a4 v=0
550640 On ch=1 n=e5 v=0
550648 On ch=1 n=d6 v=0
550652 On ch=1 n=c6 v=60
550724 On ch=1 n=e6 v=71
550730 On ch=1 n=c6 v=0
550778 On ch=1 n=a4 v=55
550804 On ch=1 n=c6 v=56
550810 On ch=1 n=e6 v=0
550886 On ch=1 n=c6 v=0
550886 On ch=1 n=f#5 v=89
550888 Par ch=1 c=64 v=63
550890 On ch=1 n=f#6 v=90
550930 Par ch=1 c=64 v=127
550982 On ch=1 n=d6 v=62
551024 On ch=1 n=f#6 v=0
551060 On ch=1 n=b5 v=48
551068 On ch=1 n=d6 v=0
551102 On ch=1 n=f#5 v=0
551152 On ch=1 n=d6 v=67
551160 On ch=1 n=b5 v=0
551224 On ch=1 n=g6 v=59
551232 On ch=1 n=g5 v=74
551244 On ch=1 n=d6 v=0
551296 On ch=1 n=g6 v=0
551304 On ch=1 n=a4 v=0
551360 On ch=1 n=g5 v=0
551406 On ch=1 n=b6 v=65
551478 On ch=1 n=b6 v=0
551480 On ch=1 n=a4 v=54
551498 On ch=1 n=b5 v=52
551556 On ch=1 n=e5 v=46
551592 On ch=1 n=b5 v=0
551622 Par ch=1 c=64 v=63
551646 On ch=1 n=b6 v=75
551650 On ch=1 n=b5 v=52
551674 Par ch=1 c=64 v=127
551768 On ch=1 n=b6 v=0
551768 On ch=1 n=c6 v=37
551858 On ch=1 n=b6 v=58
551872 On ch=1 n=c6 v=0
551872 On ch=1 n=e5 v=0
551956 On ch=1 n=b6 v=0
551956 On ch=1 n=c6 v=41
551988 On ch=1 n=b5 v=0
552018 On ch=1 n=c6 v=0
552058 On ch=1 n=e5 v=50
552062 On ch=1 n=e6 v=69
552084 On ch=1 n=a4 v=0
552116 On ch=1 n=e5 v=0
552142 On ch=1 n=e6 v=0
552176 On ch=1 n=c6 v=11
552228 On ch=1 n=c6 v=0
552232 On ch=1 n=e6 v=50
552296 On ch=1 n=g4 v=38
552330 On ch=1 n=e6 v=0
552334 On ch=1 n=c6 v=42
552368 On ch=1 n=d5 v=32
552436 On ch=1 n=c6 v=0
552478 Par ch=1 c=64 v=63
552500 On ch=1 n=a5 v=58
552514 On ch=1 n=a6 v=69
552534 Par ch=1 c=64 v=127
552650 On ch=1 n=a6 v=0
552652 On ch=1 n=a#5 v=61
552704 On ch=1 n=a5 v=0
552730 On ch=1 n=a#5 v=0
552734 On ch=1 n=a6 v=50
552828 On ch=1 n=a#5 v=52
552830 On ch=1 n=a6 v=0
552846 On ch=1 n=d5 v=0
552912 On ch=1 n=a#5 v=0
552926 On ch=1 n=g5 v=69
552962 On ch=1 n=d6 v=62
552998 On ch=1 n=g4 v=0
553058 On ch=1 n=d6 v=0
553058 On ch=1 n=a#5 v=58
553116 On ch=1 n=a#5 v=0
553142 On ch=1 n=d6 v=44
553210 On ch=1 n=a#5 v=58
553226 On ch=1 n=d6 v=0
553292 On ch=1 n=a#5 v=0
553300 On ch=1 n=f5 v=74
553324 On ch=1 n=g5 v=0
553392 On ch=1 n=a#5 v=52
553468 On ch=1 n=a#5 v=0
553482 On ch=1 n=d6 v=38
553550 On ch=1 n=a#5 v=43
553554 On ch=1 n=d6 v=0
553614 On ch=1 n=a#5 v=0
553658 On ch=1 n=e5 v=60
553704 On ch=1 n=f5 v=0
553724 On ch=1 n=a#5 v=50
553796 On ch=1 n=a#5 v=0
553826 On ch=1 n=d6 v=29
553886 On ch=1 n=d6 v=0
553894 On ch=1 n=a#5 v=58
553964 On ch=1 n=a#5 v=0
553992 On ch=1 n=d5 v=60
554032 On ch=1 n=e5 v=0
554070 On ch=1 n=a#5 v=52
554138 On ch=1 n=a#5 v=0
554162 On ch=1 n=d6 v=31
554176 On ch=1 n=c5 v=68
554216 On ch=1 n=d5 v=0
554222 On ch=1 n=d6 v=0
554230 On ch=1 n=a#5 v=54
554302 On ch=1 n=a#5 v=0
554342 On ch=1 n=e5 v=63
554380 On ch=1 n=c5 v=0
554414 Par ch=1 c=67 v=0
554428 On ch=1 n=a#5 v=56
554510 On ch=1 n=a#5 v=0
554544 On ch=1 n=d6 v=31
554596 On ch=1 n=d6 v=0
554596 On ch=1 n=e5 v=0
554598 On ch=1 n=a#5 v=67
554648 On ch=1 n=a#5 v=0
554708 On ch=1 n=d5 v=74
554772 On ch=1 n=d5 v=0
554806 On ch=1 n=a5 v=60
554942 On ch=1 n=a5 v=0
554946 On ch=1 n=a#4 v=39
555018 On ch=1 n=a5 v=36
555032 On ch=1 n=a#4 v=0
555088 On ch=1 n=a5 v=0
555098 On ch=1 n=a#4 v=76
555164 On ch=1 n=a#4 v=0
555210 On ch=1 n=d5 v=31
555284 On ch=1 n=d5 v=0
555296 On ch=1 n=a#4 v=63
555366 On ch=1 n=d5 v=54
555368 On ch=1 n=a#4 v=0
555458 On ch=1 n=d5 v=0
555464 On ch=1 n=a4 v=83
555582 On ch=1 n=d5 v=58
555604 On ch=1 n=a4 v=0
555718 On ch=1 n=a#4 v=85
555742 On ch=1 n=d5 v=0
555866 On ch=1 n=a4 v=67
555886 On ch=1 n=a#4 v=0
555990 On ch=1 n=a#4 v=63
556060 Par ch=1 c=64 v=63
556084 Par ch=1 c=64 v=127
556088 On ch=1 n=a#4 v=0
556096 On ch=1 n=d5 v=59
556158 On ch=1 n=a#4 v=53
556200 On ch=1 n=d5 v=0
556252 On ch=1 n=g4 v=83
556268 On ch=1 n=a#4 v=0
556304 On ch=1 n=a4 v=0
556340 On ch=1 n=a#4 v=52
556436 On ch=1 n=d5 v=66
556444 On ch=1 n=a#4 v=0
556500 On ch=1 n=a#4 v=66
556540 On ch=1 n=d5 v=0
556612 On ch=1 n=a#4 v=0
556618 On ch=1 n=d4 v=88
556704 On ch=1 n=a#4 v=75
556724 On ch=1 n=g4 v=0
556798 On ch=1 n=d4 v=0
556800 On ch=1 n=d5 v=79
556814 On ch=1 n=a#4 v=0
556870 On ch=1 n=a#4 v=73
556926 On ch=1 n=d5 v=0
557014 On ch=1 n=a#4 v=0
557054 On ch=1 n=e4 v=76
557064 On ch=1 n=a5 v=73
557072 On ch=1 n=g3 v=59
557172 Par ch=1 c=64 v=63
557186 Par ch=1 c=64 v=0
557208 Par ch=1 c=64 v=63
557242 On ch=1 n=d5 v=50
557244 Par ch=1 c=64 v=127
557322 On ch=1 n=a5 v=0
557360 On ch=1 n=a#4 v=65
557440 On ch=1 n=d5 v=0
557472 On ch=1 n=a#4 v=0
557500 On ch=1 n=g5 v=69
557644 On ch=1 n=d5 v=44
557680 On ch=1 n=g5 v=0
557732 On ch=1 n=a#4 v=50
557740 On ch=1 n=e4 v=0
557766 On ch=1 n=d5 v=0
557780 On ch=1 n=a#4 v=0
557920 On ch=1 n=d5 v=63
558036 On ch=1 n=a#4 v=60
558064 On ch=1 n=d5 v=0
558184 On ch=1 n=d4 v=28
558204 On ch=1 n=a#4 v=0
558296 On ch=1 n=d4 v=0
558360 On ch=1 n=a4 v=58
558366 On ch=1 n=f4 v=57
558462 Par ch=1 c=64 v=63
558504 Par ch=1 c=64 v=127
558512 On ch=1 n=a#4 v=43
558660 On ch=1 n=d5 v=38
558740 On ch=1 n=f4 v=0
558776 On ch=1 n=a#4 v=0
558804 On ch=1 n=a4 v=0
558848 On ch=1 n=g4 v=40
558928 On ch=1 n=d5 v=0
559006 On ch=1 n=a#4 v=50
559194 On ch=1 n=d5 v=39
559220 On ch=1 n=g4 v=0
559262 On ch=1 n=a#4 v=0
559358 Par ch=1 c=64 v=63
559380 On ch=1 n=d4 v=43
559390 On ch=1 n=d5 v=0
559396 Par ch=1 c=64 v=127
559578 On ch=1 n=a#4 v=28
559810 On ch=1 n=g3 v=0
559834 On ch=1 n=d5 v=10
559944 On ch=1 n=a#4 v=0
559988 On ch=1 n=d4 v=0
560004 On ch=1 n=d5 v=0
560062 On ch=1 n=e3 v=43
560086 On ch=1 n=b3 v=47
560088 On ch=1 n=g#4 v=51
560094 On ch=1 n=f#4 v=31
560140 Par ch=1 c=64 v=63
560152 Par ch=1 c=64 v=0
560178 Par ch=1 c=64 v=63
560204 Par ch=1 c=64 v=127
560348 On ch=1 n=f#4 v=0
560416 On ch=1 n=e3 v=0
560432 On ch=1 n=b3 v=0
560504 On ch=1 n=g#4 v=0
560504 On ch=1 n=b4 v=60
560684 On ch=1 n=e4 v=65
560696 On ch=1 n=e5 v=75
560712 On ch=1 n=b4 v=0
560836 On ch=1 n=g#4 v=48
560838 On ch=1 n=e4 v=0
560916 On ch=1 n=g#4 v=0
560956 On ch=1 n=b4 v=42
561066 On ch=1 n=g#4 v=56
561070 On ch=1 n=b4 v=0
561132 On ch=1 n=g#4 v=0
561156 On ch=1 n=b3 v=66
561230 On ch=1 n=b3 v=0
561288 On ch=1 n=g#4 v=62
561342 On ch=1 n=g#4 v=0
561382 On ch=1 n=b4 v=46
561476 On ch=1 n=g#4 v=77
561480 On ch=1 n=b4 v=0
561552 On ch=1 n=e5 v=0
561562 On ch=1 n=g#4 v=0
561588 On ch=1 n=f#4 v=84
561668 On ch=1 n=f#4 v=0
561682 On ch=1 n=g#4 v=66
561738 On ch=1 n=g#4 v=0
561780 On ch=1 n=b4 v=53
561840 On ch=1 n=b4 v=0
561872 On ch=1 n=g#4 v=85
561932 On ch=1 n=g#4 v=0
561974 On ch=1 n=d#5 v=90
562002 On ch=1 n=e4 v=59
562096 On ch=1 n=e4 v=0
562120 On ch=1 n=g#4 v=51
562162 On ch=1 n=g#4 v=0
562228 On ch=1 n=b4 v=33
562316 On ch=1 n=g#4 v=63
562318 On ch=1 n=b4 v=0
562372 On ch=1 n=g#4 v=0
562396 On ch=1 n=b3 v=74
562462 On ch=1 n=b3 v=0
562518 On ch=1 n=g#4 v=70
562558 On ch=1 n=g#4 v=0
562612 On ch=1 n=b4 v=52
562656 On ch=1 n=d#5 v=0
562706 On ch=1 n=b4 v=0
562706 On ch=1 n=g#4 v=78
562800 On ch=1 n=g#4 v=0
562810 Par ch=1 c=64 v=63
562810 On ch=1 n=f#4 v=83
562844 Par ch=1 c=64 v=127
562902 On ch=1 n=g#4 v=71
562918 On ch=1 n=f#4 v=0
562974 On ch=1 n=g#4 v=0
562994 On ch=1 n=b4 v=48
563046 On ch=1 n=b4 v=0
563122 On ch=1 n=e4 v=84
563184 On ch=1 n=e4 v=0
563214 On ch=1 n=d5 v=94
563230 On ch=1 n=e4 v=78
563318 On ch=1 n=d5 v=0
563354 On ch=1 n=e4 v=0
563354 On ch=1 n=g#4 v=61
563412 On ch=1 n=g#4 v=0
563436 On ch=1 n=b4 v=71
563522 On ch=1 n=b4 v=0
563544 On ch=1 n=g#4 v=89
563576 Par ch=1 c=64 v=63
563578 On ch=1 n=b3 v=77
563620 On ch=1 n=d#5 v=99
563624 On ch=1 n=g#4 v=0
563624 Par ch=1 c=64 v=127
563658 On ch=1 n=b3 v=0
563744 On ch=1 n=g#4 v=69
563818 On ch=1 n=g#4 v=0
563856 On ch=1 n=b4 v=59
563930 On ch=1 n=g#4 v=87
563942 On ch=1 n=b4 v=0
564010 On ch=1 n=g#4 v=0
564018 On ch=1 n=d#5 v=0
564036 On ch=1 n=f#4 v=102
564044 Par ch=1 c=64 v=63
564108 Par ch=1 c=64 v=127
564138 On ch=1 n=f#4 v=0
564148 On ch=1 n=g#4 v=77
564214 On ch=1 n=g#4 v=0
564230 On ch=1 n=b4 v=55
564282 On ch=1 n=b4 v=0
564302 On ch=1 n=g#4 v=81
564334 On ch=1 n=b4 v=83
564364 On ch=1 n=g#4 v=0
564400 On ch=1 n=b4 v=0
564426 On ch=1 n=e5 v=103
564444 On ch=1 n=e4 v=99
564478 Par ch=1 c=64 v=63
564516 Par ch=1 c=64 v=127
564560 On ch=1 n=g#4 v=83
564570 On ch=1 n=e4 v=0
564630 On ch=1 n=g#4 v=0
564686 On ch=1 n=b4 v=46
564766 On ch=1 n=g#4 v=52
564776 On ch=1 n=b4 v=0
564808 On ch=1 n=g#4 v=0
564864 On ch=1 n=b3 v=99
564934 On ch=1 n=b3 v=0
564980 On ch=1 n=g#4 v=87
565042 On ch=1 n=g#4 v=0
565096 On ch=1 n=b4 v=67
565182 On ch=1 n=g#4 v=88
565204 On ch=1 n=b4 v=0
565270 On ch=1 n=g#4 v=0
565270 On ch=1 n=f#4 v=105
565304 Par ch=1 c=64 v=63
565342 Par ch=1 c=64 v=127
565372 On ch=1 n=g#4 v=89
565384 On ch=1 n=f#4 v=0
565450 On ch=1 n=g#4 v=0
565470 On ch=1 n=b4 v=66
565536 On ch=1 n=g#4 v=86
565572 On ch=1 n=b4 v=0
565622 On ch=1 n=g#4 v=0
565648 On ch=1 n=e4 v=97
565766 On ch=1 n=g#4 v=95
565784 On ch=1 n=e4 v=0
565838 On ch=1 n=e5 v=0
565840 On ch=1 n=g#4 v=0
565862 On ch=1 n=b4 v=72
565960 On ch=1 n=g#4 v=94
565986 On ch=1 n=b4 v=0
566030 On ch=1 n=g#4 v=0
566066 On ch=1 n=b3 v=103
566144 On ch=1 n=b3 v=0
566168 On ch=1 n=g#4 v=99
566252 On ch=1 n=g#4 v=0
566282 On ch=1 n=d5 v=101
566284 On ch=1 n=b4 v=79
566390 On ch=1 n=g#4 v=90
566392 On ch=1 n=d5 v=0
566392 On ch=1 n=e5 v=104
566404 On ch=1 n=b4 v=0
566444 On ch=1 n=g#4 v=0
566600 On ch=1 n=e5 v=0
566620 On ch=1 n=b5 v=108
566622 On ch=1 n=d3 v=91
566628 On ch=1 n=a3 v=76
566676 Par ch=1 c=64 v=63
566684 Par ch=1 c=64 v=0
566754 Par ch=1 c=64 v=63
566768 Par ch=1 c=64 v=127
566814 On ch=1 n=e5 v=80
566832 On ch=1 n=d3 v=0
566860 On ch=1 n=a3 v=0
566878 On ch=1 n=b5 v=0
566940 On ch=1 n=c5 v=83
566992 On ch=1 n=e5 v=0
567046 On ch=1 n=c5 v=0
567072 On ch=1 n=a5 v=103
567082 On ch=1 n=e4 v=102
567234 On ch=1 n=e5 v=63
567344 On ch=1 n=c5 v=74
567358 On ch=1 n=a5 v=0
567368 On ch=1 n=e5 v=0
567432 On ch=1 n=c5 v=0
567476 On ch=1 n=f#4 v=93
567480 On ch=1 n=e5 v=103
567532 On ch=1 n=e4 v=0
567608 On ch=1 n=f#4 v=0
567638 On ch=1 n=c5 v=73
567718 On ch=1 n=c5 v=0
567720 On ch=1 n=e5 v=0
567796 On ch=1 n=f#4 v=80
567894 On ch=1 n=f#4 v=0
568010 On ch=1 n=f#5 v=94
568010 On ch=1 n=b4 v=65
568022 On ch=1 n=e5 v=71
568190 Par ch=1 c=64 v=63
568206 Par ch=1 c=64 v=0
568214 On ch=1 n=e4 v=52
568250 Par ch=1 c=64 v=63
568276 Par ch=1 c=64 v=127
568340 On ch=1 n=c4 v=59
568362 On ch=1 n=b4 v=0
568412 On ch=1 n=e4 v=0
568476 On ch=1 n=a4 v=73
568608 On ch=1 n=e4 v=53
568610 On ch=1 n=c4 v=0
568742 On ch=1 n=a4 v=0
568774 On ch=1 n=c4 v=46
568796 On ch=1 n=e4 v=0
568910 On ch=1 n=c4 v=0
568922 On ch=1 n=e4 v=61
569084 On ch=1 n=c4 v=49
569088 On ch=1 n=e4 v=0
569146 On ch=1 n=e5 v=0
569152 On ch=1 n=f#5 v=0
569268 On ch=1 n=e4 v=50
569270 On ch=1 n=c4 v=0
569472 On ch=1 n=e3 v=53
569498 On ch=1 n=e4 v=0
569546 Par ch=1 c=64 v=63
569548 On ch=1 n=f#4 v=72
569558 Par ch=1 c=64 v=0
569580 On ch=1 n=b3 v=40
569628 Par ch=1 c=64 v=63
569642 Par ch=1 c=64 v=127
569760 On ch=1 n=f#4 v=0
569774 On ch=1 n=e3 v=0
569808 On ch=1 n=b3 v=0
570076 On ch=1 n=g#5 v=72
570094 On ch=1 n=e5 v=43
570162 On ch=1 n=e5 v=0
570206 On ch=1 n=g#5 v=0
570232 On ch=1 n=e4 v=55
570246 On ch=1 n=e6 v=86
570248 On ch=1 n=b5 v=68
570366 On ch=1 n=e4 v=0
570382 On ch=1 n=g#4 v=52
570446 On ch=1 n=g#4 v=0
570496 On ch=1 n=b4 v=45
570592 On ch=1 n=g#4 v=68
570602 On ch=1 n=b4 v=0
570664 On ch=1 n=g#4 v=0
570684 On ch=1 n=b3 v=69
570744 On ch=1 n=b3 v=0
570792 On ch=1 n=g#4 v=76
570852 On ch=1 n=g#4 v=0
570890 On ch=1 n=b4 v=49
570960 On ch=1 n=g#4 v=81
570984 On ch=1 n=b4 v=0
571018 On ch=1 n=e6 v=0
571036 Par ch=1 c=64 v=63
571050 On ch=1 n=g#4 v=0
571070 Par ch=1 c=64 v=127
571072 On ch=1 n=f#4 v=96
571090 On ch=1 n=b5 v=0
571166 On ch=1 n=f#4 v=0
571186 On ch=1 n=g#4 v=45
571242 On ch=1 n=g#4 v=0
571256 On ch=1 n=b4 v=47
571346 On ch=1 n=d#5 v=87
571348 On ch=1 n=g#5 v=85
571370 On ch=1 n=b4 v=0
571400 On ch=1 n=d#5 v=0
571442 On ch=1 n=e4 v=65
571450 On ch=1 n=b5 v=82
571454 On ch=1 n=d#6 v=83
571496 On ch=1 n=g#5 v=0
571550 On ch=1 n=e4 v=0
571558 On ch=1 n=g#4 v=50
571610 On ch=1 n=g#4 v=0
571658 On ch=1 n=b4 v=38
571750 On ch=1 n=g#4 v=82
571776 On ch=1 n=b4 v=0
571830 On ch=1 n=g#4 v=0
571854 On ch=1 n=b3 v=88
571872 Par ch=1 c=64 v=63
571888 Par ch=1 c=64 v=127
571932 On ch=1 n=b3 v=0
571934 On ch=1 n=d#6 v=0
571960 On ch=1 n=g#4 v=85
572022 On ch=1 n=g#4 v=0
572070 On ch=1 n=b4 v=66
572122 On ch=1 n=g#4 v=70
572164 On ch=1 n=b4 v=0
572206 On ch=1 n=g#4 v=0
572236 On ch=1 n=b5 v=0
572240 On ch=1 n=f#4 v=108
572344 On ch=1 n=f#4 v=0
572352 On ch=1 n=g#4 v=88
572422 On ch=1 n=g#4 v=0
572430 On ch=1 n=b4 v=66
572526 On ch=1 n=d5 v=87
572526 On ch=1 n=e5 v=82
572590 On ch=1 n=d5 v=0
572592 On ch=1 n=e5 v=0
572594 On ch=1 n=b4 v=0
572614 On ch=1 n=d6 v=102
572620 On ch=1 n=g#5 v=103
572632 On ch=1 n=e4 v=81
572736 On ch=1 n=g#4 v=72
572738 On ch=1 n=e4 v=0
572780 On ch=1 n=d6 v=0
572806 On ch=1 n=g#4 v=0
572830 On ch=1 n=g#5 v=0
572834 On ch=1 n=b4 v=63
572918 On ch=1 n=d#5 v=97
572932 On ch=1 n=g#4 v=81
572956 On ch=1 n=g#5 v=62
572974 On ch=1 n=b4 v=0
572992 On ch=1 n=d#5 v=0
573014 On ch=1 n=g#4 v=0
573034 On ch=1 n=d#6 v=99
573040 Par ch=1 c=64 v=63
573042 On ch=1 n=b5 v=88
573050 On ch=1 n=b3 v=81
573086 Par ch=1 c=64 v=127
573092 On ch=1 n=g#5 v=0
573112 On ch=1 n=b3 v=0
573158 On ch=1 n=g#4 v=85
573228 On ch=1 n=g#4 v=0
573254 On ch=1 n=b4 v=69
573348 On ch=1 n=g#4 v=91
573360 On ch=1 n=d#6 v=0
573380 On ch=1 n=b4 v=0
573432 On ch=1 n=g#4 v=0
573442 Par ch=1 c=64 v=63
573448 On ch=1 n=f#4 v=105
573468 On ch=1 n=b5 v=0
573482 Par ch=1 c=64 v=127
573548 On ch=1 n=g#4 v=86
573550 On ch=1 n=f#4 v=0
573624 On ch=1 n=g#4 v=0
573628 On ch=1 n=b4 v=65
573724 On ch=1 n=g#4 v=74
573726 On ch=1 n=e5 v=77
573730 On ch=1 n=g#5 v=88
573756 On ch=1 n=b4 v=0
573780 On ch=1 n=e5 v=0
573802 On ch=1 n=g#5 v=0
573816 On ch=1 n=g#4 v=0
573830 On ch=1 n=b5 v=101
573836 On ch=1 n=e4 v=91
573838 On ch=1 n=e6 v=101
573872 Par ch=1 c=64 v=63
573900 Par ch=1 c=64 v=127
573944 On ch=1 n=g#4 v=81
573952 On ch=1 n=e4 v=0
574022 On ch=1 n=g#4 v=0
574054 On ch=1 n=b4 v=58
574138 On ch=1 n=g#4 v=85
574178 On ch=1 n=b4 v=0
574214 On ch=1 n=g#4 v=0
574242 On ch=1 n=b3 v=92
574308 On ch=1 n=b3 v=0
574348 On ch=1 n=g#4 v=89
574416 On ch=1 n=g#4 v=0
574450 On ch=1 n=b4 v=66
574550 On ch=1 n=g#4 v=93
574572 On ch=1 n=b4 v=0
574628 On ch=1 n=g#4 v=0
574628 On ch=1 n=f#4 v=105
574732 On ch=1 n=g#4 v=90
574738 On ch=1 n=f#4 v=0
574804 On ch=1 n=g#4 v=0
574816 On ch=1 n=b4 v=64
574900 On ch=1 n=g#4 v=81
574928 On ch=1 n=b4 v=0
574982 On ch=1 n=g#4 v=0
575012 On ch=1 n=e4 v=97
575118 On ch=1 n=g#4 v=93
575138 On ch=1 n=e4 v=0
575196 On ch=1 n=g#4 v=0
575218 On ch=1 n=b4 v=72
575266 On ch=1 n=b5 v=0
575292 On ch=1 n=e6 v=0
575308 On ch=1 n=g#4 v=91
575340 On ch=1 n=b4 v=0
575374 On ch=1 n=g#4 v=0
575408 On ch=1 n=b3 v=102
575486 On ch=1 n=b3 v=0
575508 On ch=1 n=g#4 v=99
575606 On ch=1 n=g#4 v=0
575618 On ch=1 n=b4 v=86
575630 On ch=1 n=d6 v=113
575718 On ch=1 n=g#4 v=99
575728 On ch=1 n=e6 v=114
575740 On ch=1 n=b4 v=0
575756 On ch=1 n=d6 v=0
575770 On ch=1 n=g#4 v=0
575842 On ch=1 n=e6 v=0
575942 On ch=1 n=b5 v=107
575942 On ch=1 n=d3 v=122
575946 On ch=1 n=b6 v=102
575958 Par ch=1 c=64 v=63
575960 Par ch=1 c=64 v=0
576046 Par ch=1 c=64 v=63
576054 Par ch=1 c=64 v=127
576078 On ch=1 n=d3 v=0
576118 On ch=1 n=b6 v=0
576152 On ch=1 n=e6 v=75
576160 On ch=1 n=b5 v=0
576256 On ch=1 n=c6 v=71
576272 On ch=1 n=e6 v=0
576350 On ch=1 n=c6 v=0
576390 On ch=1 n=e5 v=114
576392 On ch=1 n=a5 v=114
576392 On ch=1 n=e4 v=104
576392 On ch=1 n=a6 v=113
576518 On ch=1 n=e6 v=89
576536 On ch=1 n=a6 v=0
576650 On ch=1 n=c6 v=89
576668 On ch=1 n=e6 v=0
576704 On ch=1 n=e5 v=0
576740 On ch=1 n=c6 v=0
576788 On ch=1 n=e6 v=112
576790 On ch=1 n=f#4 v=116
576808 On ch=1 n=e4 v=0
576872 On ch=1 n=a5 v=0
576936 On ch=1 n=c6 v=99
576970 On ch=1 n=f#4 v=0
577006 On ch=1 n=e6 v=0
577036 On ch=1 n=c6 v=0
577068 On ch=1 n=f#5 v=70
577136 On ch=1 n=f#5 v=0
577228 On ch=1 n=f#6 v=113
577228 On ch=1 n=e6 v=102
577248 On ch=1 n=b5 v=107
577402 On ch=1 n=e5 v=87
577520 On ch=1 n=c5 v=99
577546 On ch=1 n=b5 v=0
577622 On ch=1 n=e5 v=0
577640 On ch=1 n=a5 v=108
577744 On ch=1 n=c5 v=0
577784 On ch=1 n=e5 v=83
577882 On ch=1 n=a5 v=0
577928 On ch=1 n=c5 v=91
577958 On ch=1 n=e5 v=0
578044 On ch=1 n=c5 v=0
578076 On ch=1 n=e5 v=103
578172 Par ch=1 c=67 v=127
578238 On ch=1 n=c5 v=88
578278 On ch=1 n=e5 v=0
578352 On ch=1 n=e6 v=0
578356 On ch=1 n=f#6 v=0
578412 On ch=1 n=c5 v=0
578418 On ch=1 n=f#4 v=76
578578 On ch=1 n=f#4 v=0
578672 On ch=1 n=d#5 v=109
578680 On ch=1 n=g#4 v=55
578698 On ch=1 n=c#4 v=63
578766 Par ch=1 c=64 v=63
578776 Par ch=1 c=64 v=0
578844 Par ch=1 c=64 v=63
578852 Par ch=1 c=64 v=127
578942 On ch=1 n=d#5 v=0
578962 On ch=1 n=c#4 v=0
578984 On ch=1 n=g#4 v=0
579116 On ch=1 n=g#5 v=79
579234 On ch=1 n=g#5 v=0
579238 On ch=1 n=c#5 v=86
579246 On ch=1 n=c#6 v=75
579314 On ch=1 n=c#5 v=0
579382 On ch=1 n=f5 v=39
579470 On ch=1 n=f5 v=0
579482 On ch=1 n=c#5 v=41
579518 On ch=1 n=c#5 v=0
579560 On ch=1 n=f5 v=51
579662 On ch=1 n=f5 v=0
579678 On ch=1 n=g#4 v=80
579746 On ch=1 n=g#4 v=0
579762 On ch=1 n=f5 v=52
579838 On ch=1 n=f5 v=0
579852 On ch=1 n=g#4 v=68
579960 On ch=1 n=f5 v=44
579962 On ch=1 n=g#4 v=0
580024 On ch=1 n=c#6 v=0
580050 On ch=1 n=f5 v=0
580066 On ch=1 n=d#5 v=93
580132 On ch=1 n=d#5 v=0
580160 On ch=1 n=f#5 v=84
580232 On ch=1 n=f#5 v=0
580236 On ch=1 n=d#5 v=69
580328 On ch=1 n=d#5 v=0
580342 On ch=1 n=f#5 v=95
580410 On ch=1 n=f#5 v=0
580418 On ch=1 n=b5 v=92
580460 On ch=1 n=c#5 v=76
580540 On ch=1 n=c#5 v=0
580552 On ch=1 n=f#5 v=65
580632 On ch=1 n=f#5 v=0
580644 On ch=1 n=c#5 v=62
580698 On ch=1 n=c#5 v=0
580726 On ch=1 n=f#5 v=80
580818 On ch=1 n=f#5 v=0
580836 On ch=1 n=g#4 v=91
580916 On ch=1 n=g#4 v=0
580928 On ch=1 n=f#5 v=71
581008 On ch=1 n=f#5 v=0
581018 On ch=1 n=g#4 v=68
581116 On ch=1 n=f#5 v=71
581126 On ch=1 n=g#4 v=0
581132 On ch=1 n=b5 v=0
581196 On ch=1 n=f#5 v=0
581242 On ch=1 n=d#5 v=88
581308 On ch=1 n=d#5 v=0
581332 On ch=1 n=f#5 v=80
581414 On ch=1 n=f#5 v=0
581424 On ch=1 n=d#5 v=69
581466 On ch=1 n=d#5 v=0
581504 On ch=1 n=b4 v=82
581516 On ch=1 n=d#5 v=85
581562 On ch=1 n=b4 v=0
581592 On ch=1 n=g#5 v=102
581620 On ch=1 n=c#5 v=80
581632 On ch=1 n=d#5 v=0
581688 On ch=1 n=g#5 v=0
581696 On ch=1 n=c#5 v=0
581728 On ch=1 n=f#5 v=65
581804 On ch=1 n=f#5 v=0
581814 On ch=1 n=c#5 v=51
581914 On ch=1 n=f#5 v=87
581960 On ch=1 n=c#5 v=0
581988 On ch=1 n=f#5 v=0
581996 On ch=1 n=b5 v=99
582004 Par ch=1 c=64 v=63
582012 Par ch=1 c=64 v=0
582016 On ch=1 n=g#4 v=72
582046 Par ch=1 c=64 v=63
582062 Par ch=1 c=64 v=127
582104 On ch=1 n=c#5 v=74
582120 On ch=1 n=g#4 v=0
582190 On ch=1 n=d#5 v=76
582216 On ch=1 n=c#5 v=0
582270 On ch=1 n=f#5 v=78
582276 On ch=1 n=d#5 v=0
582314 On ch=1 n=b5 v=0
582320 On ch=1 n=f#5 v=0
582340 Par ch=1 c=64 v=63
582348 Par ch=1 c=64 v=0
582356 On ch=1 n=d#5 v=102
582428 Par ch=1 c=64 v=63
582434 On ch=1 n=d#5 v=0
582434 Par ch=1 c=64 v=127
582454 On ch=1 n=f5 v=74
582552 On ch=1 n=d#5 v=77
582556 On ch=1 n=f5 v=0
582606 On ch=1 n=g#5 v=91
582628 On ch=1 n=d#5 v=0
582632 On ch=1 n=f5 v=61
582688 On ch=1 n=g#5 v=0
582722 On ch=1 n=c#6 v=104
582738 On ch=1 n=c#5 v=95
582748 On ch=1 n=f5 v=0
582822 On ch=1 n=c#5 v=0
582850 On ch=1 n=f5 v=41
582912 On ch=1 n=f5 v=0
582924 On ch=1 n=c#5 v=53
582976 On ch=1 n=c#5 v=0
583004 On ch=1 n=f5 v=58
583116 On ch=1 n=f5 v=0
583124 On ch=1 n=g#4 v=100
583210 On ch=1 n=f5 v=67
583212 On ch=1 n=g#4 v=0
583296 On ch=1 n=f5 v=0
583300 On ch=1 n=g#4 v=77
583392 On ch=1 n=f5 v=57
583396 On ch=1 n=g#4 v=0
583498 On ch=1 n=d#5 v=106
583512 On ch=1 n=f5 v=0
583586 On ch=1 n=f5 v=69
583598 On ch=1 n=d#5 v=0
583698 On ch=1 n=f5 v=0
583700 On ch=1 n=d#5 v=65
583778 On ch=1 n=d#5 v=0
583790 On ch=1 n=f5 v=53
583890 On ch=1 n=f5 v=0
583892 On ch=1 n=c#5 v=108
583992 On ch=1 n=f5 v=67
584002 On ch=1 n=c#5 v=0
584082 On ch=1 n=c#5 v=72
584094 On ch=1 n=f5 v=0
584154 On ch=1 n=c#5 v=0
584160 On ch=1 n=f5 v=66
584232 On ch=1 n=c#6 v=0
584262 On ch=1 n=g#4 v=103
584264 On ch=1 n=f5 v=0
584388 On ch=1 n=f5 v=75
584462 On ch=1 n=f5 v=0
584474 On ch=1 n=b5 v=87
584502 On ch=1 n=g#4 v=0
584570 On ch=1 n=c#6 v=102
584632 On ch=1 n=b5 v=0
584748 On ch=1 n=c#3 v=96
584750 On ch=1 n=g#6 v=102
584788 On ch=1 n=c#6 v=0
584790 Par ch=1 c=64 v=63
584796 Par ch=1 c=64 v=0
584898 Par ch=1 c=64 v=63
584902 Par ch=1 c=64 v=127
584930 On ch=1 n=c6 v=50
585002 On ch=1 n=g#6 v=0
585034 On ch=1 n=a5 v=71
585134 On ch=1 n=c6 v=0
585164 On ch=1 n=c#4 v=96
585166 On ch=1 n=a5 v=0
585172 On ch=1 n=c#3 v=0
585178 On ch=1 n=f#6 v=96
585226 On ch=1 n=c#4 v=0
585308 On ch=1 n=c6 v=52
585370 On ch=1 n=f#6 v=0
585394 On ch=1 n=a5 v=63
585446 On ch=1 n=c6 v=0
585498 On ch=1 n=a5 v=0
585528 On ch=1 n=c#5 v=95
585554 On ch=1 n=d6 v=91
585684 On ch=1 n=c6 v=81
585732 On ch=1 n=d6 v=0
585766 On ch=1 n=c6 v=0
585780 On ch=1 n=a5 v=61
585792 On ch=1 n=c#5 v=0
585884 On ch=1 n=a5 v=0
586004 On ch=1 n=g#5 v=99
586018 On ch=1 n=d6 v=85
586034 On ch=1 n=c6 v=57
586224 On ch=1 n=c5 v=62
586316 On ch=1 n=g#5 v=0
586342 On ch=1 n=a4 v=71
586388 On ch=1 n=c5 v=0
586482 On ch=1 n=f#5 v=104
586554 On ch=1 n=a4 v=0
586638 On ch=1 n=c5 v=50
586714 On ch=1 n=f#5 v=0
586734 On ch=1 n=a4 v=64
586814 On ch=1 n=c5 v=0
586900 On ch=1 n=d5 v=101
586970 On ch=1 n=a4 v=0
587068 On ch=1 n=d6 v=0
587084 On ch=1 n=c6 v=0
587102 On ch=1 n=c5 v=49
587186 On ch=1 n=d5 v=0
587258 On ch=1 n=a4 v=56
587280 On ch=1 n=c5 v=0
587324 On ch=1 n=a4 v=0
587478 On ch=1 n=c#4 v=63
587558 On ch=1 n=g#5 v=78
587696 Par ch=1 c=64 v=127
587916 On ch=1 n=c#4 v=0
587938 On ch=1 n=g#5 v=0
588020 On ch=1 n=c#6 v=83
588152 On ch=1 n=f#5 v=54
588180 On ch=1 n=f#6 v=87
588190 On ch=1 n=c#6 v=0
588294 On ch=1 n=a#5 v=69
588302 On ch=1 n=f#5 v=0
588384 On ch=1 n=a#5 v=0
588400 On ch=1 n=f#5 v=60
588460 On ch=1 n=f#5 v=0
588472 On ch=1 n=a#5 v=69
588572 On ch=1 n=a#5 v=0
588576 On ch=1 n=c#5 v=91
588660 On ch=1 n=a#5 v=73
588664 On ch=1 n=c#5 v=0
588740 On ch=1 n=a#5 v=0
588748 On ch=1 n=c#5 v=88
588840 On ch=1 n=a#5 v=78
588876 On ch=1 n=c#5 v=0
588882 Par ch=1 c=64 v=63
588900 Par ch=1 c=64 v=127
588932 On ch=1 n=f#6 v=0
588950 On ch=1 n=a#5 v=0
588950 On ch=1 n=g#5 v=94
589022 On ch=1 n=g#5 v=0
589036 On ch=1 n=a#5 v=85
589096 On ch=1 n=a#5 v=0
589112 On ch=1 n=g#5 v=86
589176 On ch=1 n=g#5 v=0
589204 On ch=1 n=a#5 v=98
589262 On ch=1 n=a#5 v=0
589300 On ch=1 n=e6 v=98
589302 On ch=1 n=c#6 v=96
589310 On ch=1 n=f#5 v=86
589380 On ch=1 n=f#5 v=0
589398 On ch=1 n=a#5 v=79
589460 On ch=1 n=a#5 v=0
589480 On ch=1 n=f#5 v=78
589526 On ch=1 n=f#5 v=0
589558 On ch=1 n=a#5 v=90
589642 On ch=1 n=a#5 v=0
589668 On ch=1 n=c#5 v=100
589748 On ch=1 n=a#5 v=88
589760 On ch=1 n=c#5 v=0
589830 On ch=1 n=a#5 v=0
589840 On ch=1 n=c#6 v=0
589842 On ch=1 n=c#5 v=95
589858 On ch=1 n=e6 v=0
589924 On ch=1 n=a#5 v=85
589962 On ch=1 n=c#5 v=0
590026 On ch=1 n=a#5 v=0
590026 Par ch=1 c=64 v=63
590052 On ch=1 n=g#5 v=102
590054 Par ch=1 c=64 v=127
590132 On ch=1 n=g#5 v=0
590144 On ch=1 n=a#5 v=94
590202 On ch=1 n=a#5 v=0
590220 On ch=1 n=g#5 v=85
590280 On ch=1 n=g#5 v=0
590318 On ch=1 n=f#5 v=96
590382 On ch=1 n=f#5 v=0
590398 On ch=1 n=a#5 v=93
590400 On ch=1 n=d#6 v=103
590426 On ch=1 n=f#5 v=76
590462 On ch=1 n=a#5 v=0
590480 On ch=1 n=f#5 v=0
590500 On ch=1 n=d#6 v=0
590514 On ch=1 n=a#5 v=74
590576 On ch=1 n=a#5 v=0
590590 On ch=1 n=f#5 v=82
590644 On ch=1 n=f#5 v=0
590660 On ch=1 n=a#5 v=87
590746 Par ch=1 c=64 v=63
590750 On ch=1 n=a#5 v=0
590754 Par ch=1 c=64 v=127
590776 On ch=1 n=c#5 v=97
590776 On ch=1 n=e6 v=99
590782 On ch=1 n=c#6 v=95
590862 On ch=1 n=a#5 v=93
590866 On ch=1 n=c#5 v=0
590932 On ch=1 n=a#5 v=0
590968 On ch=1 n=c#5 v=89
590974 On ch=1 n=c#6 v=0
591032 On ch=1 n=a#5 v=80
591052 On ch=1 n=e6 v=0
591070 On ch=1 n=c#5 v=0
591122 On ch=1 n=a#5 v=0
591140 Par ch=1 c=64 v=63
591154 On ch=1 n=g#5 v=103
591156 Par ch=1 c=64 v=127
591244 On ch=1 n=a#5 v=91
591246 On ch=1 n=g#5 v=0
591326 On ch=1 n=a#5 v=0
591334 On ch=1 n=g#5 v=88
591384 On ch=1 n=a#5 v=78
591404 On ch=1 n=g#5 v=0
591408 On ch=1 n=c#6 v=96
591438 On ch=1 n=a#5 v=0
591490 On ch=1 n=c#6 v=0
591500 Par ch=1 c=64 v=63
591512 On ch=1 n=e6 v=101
591518 On ch=1 n=a#5 v=104
591518 On ch=1 n=f#6 v=99
591520 Par ch=1 c=64 v=127
591526 On ch=1 n=f#5 v=96
591592 On ch=1 n=a#5 v=0
591618 On ch=1 n=f#5 v=0
591626 On ch=1 n=a#5 v=93
591712 On ch=1 n=e6 v=0
591720 On ch=1 n=a#5 v=0
591734 On ch=1 n=f#6 v=0
591756 On ch=1 n=f#5 v=32
591786 On ch=1 n=a#5 v=82
591802 On ch=1 n=f#5 v=0
591874 On ch=1 n=a#5 v=0
591896 On ch=1 n=c#5 v=102
591950 Par ch=1 c=67 v=0
591958 On ch=1 n=a#5 v=100
591988 On ch=1 n=c#5 v=0
592020 On ch=1 n=a#5 v=0
592072 On ch=1 n=e6 v=109
592150 On ch=1 n=f#6 v=114
592196 On ch=1 n=e6 v=0
592246 On ch=1 n=f#6 v=0
592280 On ch=1 n=c#4 v=106
592284 On ch=1 n=b6 v=112
592316 Par ch=1 c=64 v=63
592326 Par ch=1 c=64 v=0
592340 Par ch=1 c=64 v=63
592360 Par ch=1 c=64 v=127
592408 On ch=1 n=g6 v=88
592418 On ch=1 n=b6 v=0
592516 On ch=1 n=d6 v=97
592520 On ch=1 n=g6 v=0
592584 On ch=1 n=d6 v=0
592608 On ch=1 n=b5 v=87
592644 On ch=1 n=b5 v=0
592692 On ch=1 n=c#5 v=100
592708 On ch=1 n=g5 v=94
592716 On ch=1 n=c#4 v=0
592744 On ch=1 n=c#5 v=0
592778 On ch=1 n=d5 v=89
592788 On ch=1 n=g5 v=0
592844 On ch=1 n=d5 v=0
592852 On ch=1 n=b4 v=96
592950 On ch=1 n=b4 v=0
592950 On ch=1 n=d5 v=100
593030 On ch=1 n=d5 v=0
593038 On ch=1 n=g5 v=91
593082 On ch=1 n=g5 v=0
593134 On ch=1 n=b5 v=102
593210 On ch=1 n=b5 v=0
593218 On ch=1 n=d6 v=104
593298 On ch=1 n=g6 v=104
593320 On ch=1 n=d6 v=0
593344 Par ch=1 c=64 v=63
593352 Par ch=1 c=64 v=0
593360 On ch=1 n=g6 v=0
593384 On ch=1 n=c#6 v=121
593400 Par ch=1 c=64 v=63
593412 Par ch=1 c=64 v=127
593454 On ch=1 n=c#6 v=0
593484 On ch=1 n=d#6 v=104
593570 On ch=1 n=d#6 v=0
593650 On ch=1 n=d#6 v=87
593660 On ch=1 n=f#6 v=115
593706 On ch=1 n=d#6 v=0
593738 On ch=1 n=f#6 v=0
593760 On ch=1 n=a6 v=104
593764 On ch=1 n=b6 v=108
593770 On ch=1 n=b5 v=103
593772 On ch=1 n=d#6 v=110
593822 On ch=1 n=d#6 v=0
593866 On ch=1 n=b5 v=0
593870 On ch=1 n=d#6 v=87
593954 On ch=1 n=b5 v=84
593962 On ch=1 n=d#6 v=0
594008 On ch=1 n=b6 v=0
594008 On ch=1 n=a6 v=0
594032 On ch=1 n=b5 v=0
594044 On ch=1 n=d#6 v=91
594120 On ch=1 n=d#6 v=0
594126 On ch=1 n=f#5 v=116
594222 On ch=1 n=f#5 v=0
594246 On ch=1 n=d#6 v=100
594328 On ch=1 n=d#6 v=0
594334 On ch=1 n=a6 v=87
594404 On ch=1 n=b6 v=103
594430 On ch=1 n=a6 v=0
594486 On ch=1 n=b6 v=0
594500 On ch=1 n=e7 v=120
594502 On ch=1 n=c#5 v=119
594506 Par ch=1 c=64 v=63
594514 Par ch=1 c=64 v=0
594546 Par ch=1 c=64 v=63
594562 Par ch=1 c=64 v=127
594590 On ch=1 n=b6 v=99
594626 On ch=1 n=e7 v=0
594676 On ch=1 n=g6 v=92
594698 On ch=1 n=b6 v=0
594746 On ch=1 n=d6 v=98
594796 On ch=1 n=g6 v=0
594828 On ch=1 n=d6 v=0
594856 On ch=1 n=c#5 v=0
594862 On ch=1 n=c#6 v=123
594924 On ch=1 n=c#6 v=0
594932 On ch=1 n=d6 v=90
595026 On ch=1 n=d6 v=0
595026 On ch=1 n=g6 v=87
595114 On ch=1 n=b6 v=93
595124 On ch=1 n=g6 v=0
595174 On ch=1 n=b6 v=0
595214 On ch=1 n=c#6 v=98
595290 On ch=1 n=c#6 v=0
595300 On ch=1 n=c#7 v=113
595346 On ch=1 n=c#7 v=0
595392 On ch=1 n=d7 v=102
595468 On ch=1 n=e7 v=102
595488 On ch=1 n=d7 v=0
595530 On ch=1 n=e7 v=0
595548 Par ch=1 c=64 v=63
595554 Par ch=1 c=64 v=0
595564 On ch=1 n=a7 v=126
595572 On ch=1 n=c#5 v=103
595586 Par ch=1 c=64 v=63
595602 Par ch=1 c=64 v=127
595670 On ch=1 n=e7 v=93
595692 On ch=1 n=a7 v=0
595756 On ch=1 n=c#7 v=104
595762 On ch=1 n=e7 v=0
595824 On ch=1 n=g6 v=76
595834 On ch=1 n=c#7 v=0
595896 On ch=1 n=g6 v=0
595900 On ch=1 n=c#5 v=0
595908 On ch=1 n=c#6 v=118
595972 On ch=1 n=c#6 v=0
596000 On ch=1 n=g6 v=99
596082 On ch=1 n=c#7 v=105
596088 On ch=1 n=g6 v=0
596180 On ch=1 n=e7 v=99
596196 On ch=1 n=c#7 v=0
596248 On ch=1 n=e7 v=0
596272 On ch=1 n=c#6 v=113
596382 On ch=1 n=c#7 v=119
596388 On ch=1 n=c#6 v=0
596460 On ch=1 n=c#7 v=0
596486 On ch=1 n=g7 v=108
596564 On ch=1 n=a7 v=109
596608 On ch=1 n=g7 v=0
596678 On ch=1 n=a7 v=0
596696 Par ch=1 c=64 v=63
596706 Par ch=1 c=64 v=0
596758 On ch=1 n=d7 v=125
596774 On ch=1 n=c#8 v=109
596780 Par ch=1 c=64 v=63
596790 Par ch=1 c=64 v=127
596962 On ch=1 n=g#7 v=101
596988 On ch=1 n=c#8 v=0
596998 On ch=1 n=d7 v=0
597076 On ch=1 n=f7 v=96
597124 On ch=1 n=g#7 v=0
597172 On ch=1 n=b6 v=93
597194 On ch=1 n=f7 v=0
597266 On ch=1 n=b6 v=0
597292 On ch=1 n=c#7 v=126
597358 On ch=1 n=c#7 v=0
597380 On ch=1 n=b6 v=90
597478 On ch=1 n=f7 v=100
597504 On ch=1 n=b6 v=0
597562 On ch=1 n=g#7 v=109
597600 On ch=1 n=f7 v=0
597648 On ch=1 n=g#6 v=125
597670 On ch=1 n=g#7 v=0
597742 On ch=1 n=g#6 v=0
597750 On ch=1 n=g#7 v=107
597854 On ch=1 n=f7 v=101
597910 On ch=1 n=g#7 v=0
597932 On ch=1 n=b6 v=85
597954 On ch=1 n=f7 v=0
598008 On ch=1 n=d6 v=112
598010 On ch=1 n=b6 v=0
598074 On ch=1 n=d6 v=0
598114 On ch=1 n=g#6 v=112
598208 On ch=1 n=f6 v=87
598272 On ch=1 n=b5 v=88
598278 On ch=1 n=g#6 v=0
598308 On ch=1 n=f6 v=0
598368 On ch=1 n=b5 v=0
598368 On ch=1 n=c#6 v=124
598446 On ch=1 n=b5 v=93
598554 On ch=1 n=f6 v=89
598602 On ch=1 n=b5 v=0
598636 On ch=1 n=g#6 v=106
598692 On ch=1 n=f6 v=0
598724 On ch=1 n=c#6 v=0
598740 On ch=1 n=g#5 v=112
598770 On ch=1 n=g#6 v=0
598850 On ch=1 n=g#6 v=107
598954 On ch=1 n=f6 v=92
599024 On ch=1 n=b5 v=65
599038 On ch=1 n=g#6 v=0
599090 On ch=1 n=f6 v=0
599106 On ch=1 n=d6 v=100
599130 On ch=1 n=b5 v=0
599218 On ch=1 n=b5 v=69
599322 On ch=1 n=f6 v=86
599368 On ch=1 n=b5 v=0
599400 On ch=1 n=g#6 v=100
599456 On ch=1 n=f6 v=0
599474 On ch=1 n=c#6 v=100
599498 On ch=1 n=g#6 v=0
599514 On ch=1 n=d6 v=0
599516 On ch=1 n=g#5 v=0
599582 On ch=1 n=g#6 v=100
599660 On ch=1 n=f6 v=78
599740 On ch=1 n=b5 v=84
599744 On ch=1 n=g#6 v=0
599802 On ch=1 n=f6 v=0
599836 On ch=1 n=g#5 v=92
599850 On ch=1 n=b5 v=0
599910 On ch=1 n=c#6 v=0
599930 On ch=1 n=b5 v=76
600034 On ch=1 n=f6 v=63
600076 On ch=1 n=b5 v=0
600118 On ch=1 n=g#6 v=86
600166 On ch=1 n=f6 v=0
600196 On ch=1 n=d6 v=76
600214 On ch=1 n=g#6 v=0
600314 On ch=1 n=g#6 v=76
600366 On ch=1 n=g#5 v=0
600390 On ch=1 n=f6 v=73
600452 On ch=1 n=g#6 v=0
600472 On ch=1 n=b5 v=75
600520 On ch=1 n=f6 v=0
600564 On ch=1 n=c#6 v=88
600574 On ch=1 n=b5 v=0
600610 On ch=1 n=d6 v=0
600664 On ch=1 n=b5 v=60
600760 On ch=1 n=f6 v=48
600808 On ch=1 n=b5 v=0
600852 On ch=1 n=g#6 v=80
600888 On ch=1 n=f6 v=0
600922 On ch=1 n=g#5 v=69
600950 On ch=1 n=g#6 v=0
601006 On ch=1 n=c#6 v=0
601040 On ch=1 n=g#6 v=53
601122 On ch=1 n=f6 v=57
601176 On ch=1 n=g#6 v=0
601202 On ch=1 n=b5 v=51
601230 On ch=1 n=f6 v=0
601288 On ch=1 n=d6 v=63
601306 On ch=1 n=b5 v=0
601402 On ch=1 n=b5 v=54
601416 On ch=1 n=g#5 v=0
601468 On ch=1 n=d6 v=0
601504 On ch=1 n=f6 v=51
601528 On ch=1 n=b5 v=0
601612 On ch=1 n=g#6 v=74
601654 On ch=1 n=f6 v=0
601692 On ch=1 n=c#6 v=67
601702 On ch=1 n=g#6 v=0
601784 On ch=1 n=c#6 v=0
601810 On ch=1 n=g#6 v=53
601914 On ch=1 n=f6 v=46
601966 On ch=1 n=g#6 v=0
602012 On ch=1 n=b5 v=34
602050 On ch=1 n=f6 v=0
602124 On ch=1 n=b5 v=0
602156 On ch=1 n=g#5 v=57
602198 On ch=1 n=g#5 v=0
602270 On ch=1 n=b5 v=42
602400 On ch=1 n=b5 v=0
602434 On ch=1 n=f6 v=43
602606 On ch=1 n=g#6 v=59
602610 On ch=1 n=f6 v=0
602694 On ch=1 n=g#6 v=0
602898 On ch=1 n=d6 v=31
602902 Par ch=1 c=64 v=63
602906 On ch=1 n=c#7 v=70
602908 On ch=1 n=f5 v=60
602914 On ch=1 n=g#5 v=45
602942 Par ch=1 c=64 v=127
603076 On ch=1 n=c#7 v=0
603086 On ch=1 n=d6 v=0
603120 On ch=1 n=g#5 v=0
603120 On ch=1 n=c#6 v=57
603134 On ch=1 n=f5 v=0
603206 On ch=1 n=c#6 v=0
603270 On ch=1 n=d6 v=28
603372 On ch=1 n=d6 v=0
603374 On ch=1 n=c#6 v=67
603448 On ch=1 n=c#6 v=0
603478 On ch=1 n=c#5 v=45
603480 On ch=1 n=g#6 v=78
603622 On ch=1 n=c#6 v=61
603640 On ch=1 n=g#6 v=0
603668 On ch=1 n=c#5 v=0
603716 On ch=1 n=c#6 v=0
603762 On ch=1 n=d6 v=23
603834 On ch=1 n=c#6 v=67
603836 On ch=1 n=d6 v=0
603920 On ch=1 n=c#6 v=0
603956 On ch=1 n=f#6 v=62
604018 On ch=1 n=f#6 v=0
604034 On ch=1 n=c#6 v=66
604112 On ch=1 n=c#6 v=0
604134 On ch=1 n=g#6 v=82
604218 On ch=1 n=c#6 v=73
604234 On ch=1 n=g#6 v=0
604298 On ch=1 n=c#6 v=0
604330 Par ch=1 c=64 v=63
604336 On ch=1 n=a6 v=91
604340 On ch=1 n=d#6 v=70
604348 On ch=1 n=b5 v=56
604354 Par ch=1 c=64 v=127
604364 On ch=1 n=f#5 v=39
604394 On ch=1 n=d#6 v=0
604414 On ch=1 n=b5 v=0
604446 On ch=1 n=c#6 v=57
604450 On ch=1 n=f#5 v=0
604532 On ch=1 n=c#6 v=0
604542 On ch=1 n=d#6 v=69
604598 On ch=1 n=a6 v=0
604622 On ch=1 n=c#6 v=70
604624 On ch=1 n=d#6 v=0
604692 On ch=1 n=c#6 v=0
604720 On ch=1 n=b4 v=56
604726 On ch=1 n=b6 v=75
604784 On ch=1 n=b4 v=0
604808 On ch=1 n=b6 v=0
604822 On ch=1 n=c#6 v=67
604898 On ch=1 n=c#6 v=0
604916 On ch=1 n=c#7 v=90
605020 On ch=1 n=c#7 v=0
605024 On ch=1 n=c#6 v=63
605114 On ch=1 n=c#6 v=0
605120 Par ch=1 c=64 v=63
605124 On ch=1 n=g#5 v=44
605126 On ch=1 n=d6 v=48
605148 On ch=1 n=f5 v=24
605148 Par ch=1 c=64 v=127
605150 On ch=1 n=c#7 v=89
605240 On ch=1 n=d6 v=0
605244 On ch=1 n=c#6 v=66
605246 On ch=1 n=c#7 v=0
605254 On ch=1 n=g#5 v=0
605290 On ch=1 n=f5 v=0
605346 On ch=1 n=c#6 v=0
605388 On ch=1 n=d6 v=48
605474 On ch=1 n=d6 v=0
605482 On ch=1 n=c#6 v=71
605552 On ch=1 n=c#6 v=0
605576 On ch=1 n=g#6 v=80
605582 On ch=1 n=c#5 v=57
605680 On ch=1 n=c#6 v=51
605694 On ch=1 n=g#6 v=0
605770 On ch=1 n=c#6 v=0
605776 On ch=1 n=d6 v=50
605800 On ch=1 n=c#5 v=0
605852 On ch=1 n=d6 v=0
605876 On ch=1 n=c#6 v=73
605954 On ch=1 n=c#6 v=0
605984 On ch=1 n=f#6 v=76
606038 On ch=1 n=f#6 v=0
606056 On ch=1 n=c#6 v=72
606124 On ch=1 n=c#6 v=0
606154 On ch=1 n=g#6 v=85
606228 On ch=1 n=c#6 v=76
606250 On ch=1 n=g#6 v=0
606302 On ch=1 n=c#6 v=0
606342 Par ch=1 c=64 v=63
606348 On ch=1 n=a6 v=89
606348 On ch=1 n=d#6 v=72
606362 On ch=1 n=b5 v=60
606370 On ch=1 n=f#5 v=61
606374 Par ch=1 c=64 v=127
606406 On ch=1 n=d#6 v=0
606432 On ch=1 n=b5 v=0
606448 On ch=1 n=c#6 v=64
606470 On ch=1 n=f#5 v=0
606522 On ch=1 n=c#6 v=0
606552 On ch=1 n=d#6 v=52
606592 On ch=1 n=a6 v=0
606608 On ch=1 n=d#6 v=0
606628 On ch=1 n=c#6 v=70
606710 On ch=1 n=c#6 v=0
606730 On ch=1 n=b6 v=77
606734 On ch=1 n=b4 v=61
606806 On ch=1 n=b4 v=0
606820 On ch=1 n=b6 v=0
606834 On ch=1 n=c#6 v=70
606904 On ch=1 n=c#6 v=0
606924 On ch=1 n=c#7 v=88
607014 On ch=1 n=c#7 v=0
607014 On ch=1 n=c#6 v=69
607066 Par ch=1 c=64 v=63
607092 On ch=1 n=c#6 v=0
607108 Par ch=1 c=64 v=127
607110 On ch=1 n=g#5 v=57
607112 On ch=1 n=d6 v=58
607124 On ch=1 n=c#7 v=89
607124 On ch=1 n=f5 v=48
607210 On ch=1 n=c#7 v=0
607210 On ch=1 n=d6 v=0
607210 On ch=1 n=c#6 v=65
607232 On ch=1 n=g#5 v=0
607250 On ch=1 n=f5 v=0
607300 On ch=1 n=c#6 v=0
607338 On ch=1 n=d6 v=55
607420 On ch=1 n=d6 v=0
607424 On ch=1 n=c#6 v=67
607492 On ch=1 n=c#6 v=0
607524 On ch=1 n=g#6 v=84
607532 On ch=1 n=c#5 v=53
607622 On ch=1 n=c#6 v=50
607718 On ch=1 n=c#6 v=0
607738 On ch=1 n=d6 v=35
607812 On ch=1 n=d6 v=0
607820 On ch=1 n=c#6 v=56
607924 On ch=1 n=c#6 v=0
607958 On ch=1 n=d6 v=26
608012 On ch=1 n=d6 v=0
608038 On ch=1 n=c#6 v=65
608074 On ch=1 n=g#6 v=0
608094 On ch=1 n=c#5 v=0
608122 On ch=1 n=c#6 v=0
608174 On ch=1 n=a6 v=66
608270 On ch=1 n=c#6 v=65
608282 On ch=1 n=a6 v=0
608388 On ch=1 n=c#6 v=0
608430 On ch=1 n=f#5 v=47
608440 On ch=1 n=a5 v=45
608442 Par ch=1 c=64 v=63
608460 On ch=1 n=d#6 v=65
608464 On ch=1 n=b6 v=72
608488 Par ch=1 c=64 v=127
608578 On ch=1 n=d#6 v=0
608604 On ch=1 n=b6 v=0
608626 On ch=1 n=a5 v=0
608642 On ch=1 n=f#5 v=0
608668 On ch=1 n=d#6 v=58
608824 On ch=1 n=d#6 v=0
608852 On ch=1 n=f#6 v=69
609032 On ch=1 n=b4 v=33
609056 On ch=1 n=c#6 v=46
609216 On ch=1 n=b4 v=0
609244 On ch=1 n=g6 v=61
609266 On ch=1 n=c#6 v=0
609290 On ch=1 n=f#6 v=0
609496 On ch=1 n=b5 v=44
609670 On ch=1 n=b5 v=0
609860 On ch=1 n=g6 v=0
609880 On ch=1 n=g#6 v=70
609894 On ch=1 n=d#4 v=47
609916 On ch=1 n=g#3 v=45
609944 Par ch=1 c=64 v=63
609952 Par ch=1 c=64 v=0
610066 Par ch=1 c=64 v=63
610068 Par ch=1 c=64 v=127
610204 On ch=1 n=g#3 v=0
610210 On ch=1 n=d#4 v=0
610256 On ch=1 n=g#6 v=0
610518 On ch=1 n=g#5 v=53
610520 On ch=1 n=d#6 v=70
610538 On ch=1 n=a5 v=45
610548 On ch=1 n=d#5 v=60
610598 On ch=1 n=c5 v=17
610750 On ch=1 n=g#5 v=0
610776 On ch=1 n=c5 v=0
610800 On ch=1 n=a5 v=0
610850 On ch=1 n=d#5 v=0
610888 On ch=1 n=d#6 v=0
611038 On ch=1 n=a#5 v=77
611048 On ch=1 n=c#6 v=79
611048 On ch=1 n=c#5 v=65
611056 On ch=1 n=f#5 v=67
611106 On ch=1 n=a#5 v=0
611110 On ch=1 n=f#5 v=0
611158 On ch=1 n=c#5 v=0
611260 On ch=1 n=c#6 v=0
611274 On ch=1 n=d#6 v=86
611498 On ch=1 n=d#6 v=0
611506 On ch=1 n=c#4 v=72
611520 On ch=1 n=e6 v=91
611520 On ch=1 n=f#3 v=52
611542 Par ch=1 c=64 v=63
611550 Par ch=1 c=64 v=0
611600 Par ch=1 c=64 v=63
611612 Par ch=1 c=64 v=127
611630 On ch=1 n=c#4 v=0
611636 On ch=1 n=f#3 v=0
611718 On ch=1 n=e6 v=0
611956 On ch=1 n=f#5 v=58
611958 On ch=1 n=f#6 v=85
611974 On ch=1 n=g#5 v=47
611982 On ch=1 n=a#4 v=57
611982 On ch=1 n=e5 v=53
611988 On ch=1 n=c#6 v=58
612084 On ch=1 n=f#6 v=0
612084 On ch=1 n=f#5 v=0
612094 On ch=1 n=e5 v=0
612136 On ch=1 n=g#5 v=0
612160 On ch=1 n=g#6 v=94
612162 On ch=1 n=a#4 v=0
612192 On ch=1 n=c#6 v=0
612288 On ch=1 n=g#6 v=0
612408 On ch=1 n=g#6 v=82
612422 On ch=1 n=g#3 v=69
612424 On ch=1 n=d#4 v=63
612448 Par ch=1 c=64 v=63
612458 Par ch=1 c=64 v=0
612492 Par ch=1 c=64 v=63
612510 Par ch=1 c=64 v=127
612612 On ch=1 n=d#4 v=0
612620 On ch=1 n=g#3 v=0
612664 On ch=1 n=g#6 v=0
612986 On ch=1 n=d#6 v=66
612990 On ch=1 n=g#5 v=40
612990 On ch=1 n=d#5 v=53
612998 On ch=1 n=a5 v=34
613018 On ch=1 n=c5 v=39
613182 On ch=1 n=g#5 v=0
613198 On ch=1 n=c5 v=0
613236 On ch=1 n=a5 v=0
613282 On ch=1 n=d#5 v=0
613444 On ch=1 n=a#5 v=74
613454 On ch=1 n=f#5 v=63
613468 On ch=1 n=c#6 v=78
613470 On ch=1 n=d#6 v=0
613472 On ch=1 n=c#5 v=61
613518 On ch=1 n=a#5 v=0
613546 On ch=1 n=f#5 v=0
613586 On ch=1 n=c#5 v=0
613658 On ch=1 n=d#6 v=86
613678 On ch=1 n=c#6 v=0
613886 On ch=1 n=e6 v=83
613886 On ch=1 n=c#4 v=72
613894 On ch=1 n=d#6 v=0
613896 On ch=1 n=f#3 v=64
613902 Par ch=1 c=64 v=63
613910 Par ch=1 c=64 v=0
613970 Par ch=1 c=64 v=63
613982 Par ch=1 c=64 v=127
614078 On ch=1 n=f#3 v=0
614088 On ch=1 n=c#4 v=0
614152 On ch=1 n=e6 v=0
614406 On ch=1 n=f#6 v=72
614408 On ch=1 n=f#5 v=46
614434 On ch=1 n=c#6 v=63
614436 On ch=1 n=a#4 v=37
614438 On ch=1 n=g#5 v=46
614442 On ch=1 n=e5 v=44
614542 On ch=1 n=f#6 v=0
614544 On ch=1 n=f#5 v=0
614552 On ch=1 n=e5 v=0
614574 On ch=1 n=g#5 v=0
614618 On ch=1 n=a#4 v=0
614624 On ch=1 n=g#6 v=89
614644 On ch=1 n=c#6 v=0
614744 On ch=1 n=g#6 v=0
614910 On ch=1 n=g#6 v=72
614916 On ch=1 n=g#3 v=56
614916 On ch=1 n=d#4 v=61
614950 Par ch=1 c=64 v=63
614960 Par ch=1 c=64 v=0
614998 Par ch=1 c=64 v=63
615018 Par ch=1 c=64 v=127
615138 On ch=1 n=d#4 v=0
615142 On ch=1 n=g#3 v=0
615198 On ch=1 n=g#6 v=0
615464 On ch=1 n=d#6 v=70
615470 On ch=1 n=g#5 v=41
615472 On ch=1 n=d#5 v=50
615504 On ch=1 n=a5 v=33
615506 On ch=1 n=c5 v=36
615752 On ch=1 n=g#5 v=0
615756 On ch=1 n=c5 v=0
615876 On ch=1 n=a5 v=0
615878 On ch=1 n=d#5 v=0
616016 On ch=1 n=d#6 v=0
616088 On ch=1 n=a#5 v=49
616102 On ch=1 n=f#5 v=49
616104 On ch=1 n=c#5 v=31
616218 On ch=1 n=a#5 v=0
616244 On ch=1 n=f#5 v=0
616312 On ch=1 n=c#5 v=0
616394 On ch=1 n=e6 v=68
616772 On ch=1 n=e6 v=0
616780 On ch=1 n=c#4 v=33
616794 On ch=1 n=f#6 v=56
616800 On ch=1 n=f#3 v=40
616876 Par ch=1 c=64 v=63
616928 Par ch=1 c=64 v=127
617092 On ch=1 n=f#3 v=0
617100 On ch=1 n=c#4 v=0
617270 On ch=1 n=g#5 v=30
617272 On ch=1 n=c#6 v=53
617282 On ch=1 n=f#6 v=0
617534 On ch=1 n=g#5 v=0
617544 On ch=1 n=f#5 v=29
617578 On ch=1 n=a#4 v=27
617588 On ch=1 n=e5 v=24
617632 On ch=1 n=c#6 v=0
617730 Par ch=1 c=67 v=127
617746 On ch=1 n=f#5 v=0
617768 On ch=1 n=e5 v=0
617794 On ch=1 n=d#6 v=61
617802 On ch=1 n=a#5 v=37
617816 On ch=1 n=a#4 v=0
617930 On ch=1 n=a#5 v=0
618000 On ch=1 n=d#6 v=0
618422 On ch=1 n=f4 v=54
618516 On ch=1 n=f6 v=65
618722 On ch=1 n=a4 v=36
618744 Par ch=1 c=64 v=63
618746 Par ch=1 c=64 v=127
618854 On ch=1 n=c5 v=56
618938 On ch=1 n=f6 v=0
618974 On ch=1 n=f5 v=50
619076 On ch=1 n=f5 v=0
619100 On ch=1 n=c6 v=90
619116 On ch=1 n=c5 v=0
619132 On ch=1 n=a4 v=0
619198 On ch=1 n=f4 v=0
619212 On ch=1 n=a5 v=67
619250 On ch=1 n=c6 v=0
619298 On ch=1 n=f5 v=80
619326 On ch=1 n=a5 v=0
619392 On ch=1 n=c5 v=79
619396 On ch=1 n=f5 v=0
619492 On ch=1 n=c5 v=0
619492 On ch=1 n=f5 v=100
619578 On ch=1 n=c5 v=49
619652 On ch=1 n=a4 v=60
619658 On ch=1 n=f5 v=0
619688 On ch=1 n=c6 v=108
619708 On ch=1 n=c5 v=0
619774 On ch=1 n=f4 v=47
619828 On ch=1 n=a4 v=0
619848 On ch=1 n=c6 v=0
619880 On ch=1 n=d#4 v=87
619900 On ch=1 n=c6 v=106
619902 Par ch=1 c=64 v=63
619910 Par ch=1 c=64 v=0
619942 On ch=1 n=f4 v=0
619962 Par ch=1 c=64 v=63
619968 Par ch=1 c=64 v=127
619990 On ch=1 n=a#4 v=82
620012 On ch=1 n=d#4 v=0
620070 On ch=1 n=c#5 v=75
620076 On ch=1 n=a#4 v=0
620108 On ch=1 n=c#5 v=0
620122 On ch=1 n=c6 v=0
620158 On ch=1 n=g5 v=94
620224 On ch=1 n=g5 v=0
620264 On ch=1 n=a#5 v=113
620366 On ch=1 n=f5 v=78
620388 On ch=1 n=a#5 v=0
620450 On ch=1 n=g5 v=74
620462 On ch=1 n=f5 v=0
620520 On ch=1 n=a#5 v=105
620548 On ch=1 n=g5 v=0
620580 On ch=1 n=a#5 v=0
620630 On ch=1 n=f4 v=79
620646 Par ch=1 c=64 v=63
620650 On ch=1 n=f6 v=107
620656 Par ch=1 c=64 v=0
620746 On ch=1 n=a4 v=65
620752 Par ch=1 c=64 v=63
620756 Par ch=1 c=64 v=127
620820 On ch=1 n=c5 v=84
620906 On ch=1 n=f6 v=0
620912 On ch=1 n=f5 v=91
620950 On ch=1 n=a4 v=0
620950 On ch=1 n=f4 v=0
620988 On ch=1 n=c5 v=0
621000 On ch=1 n=c6 v=113
621008 On ch=1 n=f5 v=0
621094 On ch=1 n=a5 v=92
621132 On ch=1 n=c6 v=0
621150 On ch=1 n=f5 v=77
621164 On ch=1 n=a5 v=0
621230 On ch=1 n=f5 v=0
621242 On ch=1 n=a5 v=83
621278 On ch=1 n=a5 v=0
621382 On ch=1 n=a#4 v=70
621394 On ch=1 n=a#6 v=99
621434 Par ch=1 c=64 v=63
621440 Par ch=1 c=64 v=0
621512 On ch=1 n=c#5 v=80
621526 Par ch=1 c=64 v=63
621534 Par ch=1 c=64 v=127
621604 On ch=1 n=f5 v=67
621642 On ch=1 n=a#6 v=0
621690 On ch=1 n=a#5 v=85
621776 On ch=1 n=f5 v=0
621782 On ch=1 n=a#5 v=0
621814 On ch=1 n=f6 v=86
621820 On ch=1 n=c#5 v=0
621834 On ch=1 n=a#4 v=0
621928 On ch=1 n=c#6 v=76
621936 On ch=1 n=f6 v=0
621998 On ch=1 n=a#5 v=79
622038 On ch=1 n=c#6 v=0
622098 On ch=1 n=f5 v=63
622104 On ch=1 n=a#5 v=0
622194 On ch=1 n=f5 v=0
622270 On ch=1 n=f4 v=51
622346 On ch=1 n=f6 v=97
622374 Par ch=1 c=64 v=63
622380 Par ch=1 c=64 v=0
622478 Par ch=1 c=64 v=63
622480 On ch=1 n=a4 v=49
622486 Par ch=1 c=64 v=127
622598 On ch=1 n=c5 v=60
622640 On ch=1 n=f6 v=0
622694 On ch=1 n=f5 v=59
622784 On ch=1 n=f5 v=0
622832 On ch=1 n=c5 v=0
622846 On ch=1 n=c6 v=96
622848 On ch=1 n=a4 v=0
622932 On ch=1 n=f4 v=0
622952 On ch=1 n=a5 v=76
622958 On ch=1 n=c6 v=0
623020 On ch=1 n=f5 v=71
623056 On ch=1 n=a5 v=0
623118 On ch=1 n=c5 v=76
623122 On ch=1 n=f5 v=0
623216 On ch=1 n=f5 v=103
623218 On ch=1 n=c5 v=0
623328 On ch=1 n=c5 v=65
623368 On ch=1 n=c6 v=112
623378 On ch=1 n=f5 v=0
623410 On ch=1 n=a4 v=63
623460 On ch=1 n=c5 v=0
623500 On ch=1 n=c6 v=0
623526 On ch=1 n=f4 v=53
623566 On ch=1 n=c6 v=116
623570 On ch=1 n=a4 v=0
623598 Par ch=1 c=64 v=63
623598 On ch=1 n=d#4 v=95
623606 Par ch=1 c=64 v=0
623650 On ch=1 n=f4 v=0
623700 Par ch=1 c=64 v=63
623706 Par ch=1 c=64 v=127
623710 On ch=1 n=a#4 v=88
623728 On ch=1 n=d#4 v=0
623790 On ch=1 n=c#5 v=92
623800 On ch=1 n=c6 v=0
623802 On ch=1 n=a#4 v=0
623846 On ch=1 n=c#5 v=0
623890 On ch=1 n=g5 v=92
623948 On ch=1 n=g5 v=0
623964 On ch=1 n=a#5 v=113
624066 On ch=1 n=f5 v=81
624086 On ch=1 n=a#5 v=0
624152 On ch=1 n=g5 v=65
624160 On ch=1 n=f5 v=0
624222 On ch=1 n=a#5 v=106
624248 On ch=1 n=g5 v=0
624282 On ch=1 n=a#5 v=0
624324 On ch=1 n=f4 v=86
624348 On ch=1 n=f6 v=108
624438 Par ch=1 c=64 v=63
624446 On ch=1 n=a4 v=70
624448 Par ch=1 c=64 v=0
624516 Par ch=1 c=64 v=63
624524 Par ch=1 c=64 v=127
624538 On ch=1 n=c5 v=84
624618 On ch=1 n=f5 v=98
624622 On ch=1 n=f6 v=0
624644 On ch=1 n=f4 v=0
624662 On ch=1 n=a4 v=0
624702 On ch=1 n=c5 v=0
624718 On ch=1 n=f5 v=0
624726 On ch=1 n=c6 v=109
624824 On ch=1 n=a5 v=86
624846 On ch=1 n=c6 v=0
624876 On ch=1 n=f5 v=71
624888 On ch=1 n=a5 v=0
624954 On ch=1 n=f5 v=0
624962 On ch=1 n=a5 v=80
625002 On ch=1 n=a5 v=0
625110 On ch=1 n=a#4 v=79
625130 On ch=1 n=a#6 v=97
625146 Par ch=1 c=64 v=63
625152 Par ch=1 c=64 v=0
625234 On ch=1 n=c#5 v=79
625234 Par ch=1 c=64 v=63
625240 Par ch=1 c=64 v=127
625324 On ch=1 n=a#6 v=0
625332 On ch=1 n=f5 v=42
625388 On ch=1 n=a#5 v=89
625432 On ch=1 n=c#5 v=0
625458 On ch=1 n=a#4 v=0
625460 On ch=1 n=a#5 v=0
625464 On ch=1 n=f5 v=0
625528 On ch=1 n=f6 v=94
625626 On ch=1 n=c#6 v=88
625654 On ch=1 n=f6 v=0
625716 On ch=1 n=a#5 v=84
625770 On ch=1 n=c#6 v=0
625798 On ch=1 n=f5 v=77
625840 On ch=1 n=a#5 v=0
625864 On ch=1 n=f5 v=0
625998 Par ch=1 c=67 v=0
626006 On ch=1 n=a#4 v=71
626064 On ch=1 n=a#6 v=90
626250 Par ch=1 c=64 v=127
626310 On ch=1 n=c#5 v=79
626470 On ch=1 n=f5 v=50
626534 On ch=1 n=a#5 v=84
626624 On ch=1 n=a#5 v=0
626634 On ch=1 n=c#5 v=0
626650 On ch=1 n=f5 v=0
626674 On ch=1 n=f6 v=80
626722 On ch=1 n=a#6 v=0
626788 On ch=1 n=c#6 v=82
626794 On ch=1 n=a#4 v=0
626826 On ch=1 n=f6 v=0
626872 On ch=1 n=c#6 v=0
626874 On ch=1 n=a#5 v=83
626950 On ch=1 n=c#6 v=75
626958 On ch=1 n=a#5 v=0
627040 On ch=1 n=a#6 v=112
627068 On ch=1 n=c#6 v=0
627132 On ch=1 n=c#5 v=92
627242 On ch=1 n=f5 v=71
627282 On ch=1 n=c#5 v=0
627318 On ch=1 n=a#5 v=86
627344 On ch=1 n=f5 v=0
627346 On ch=1 n=a#5 v=0
627430 On ch=1 n=a4 v=113
627438 Par ch=1 c=64 v=63
627448 On ch=1 n=f6 v=80
627464 On ch=1 n=a#6 v=0
627474 Par ch=1 c=64 v=127
627552 On ch=1 n=c#6 v=80
627594 On ch=1 n=f6 v=0
627646 On ch=1 n=c#6 v=0
627646 On ch=1 n=a#5 v=80
627718 On ch=1 n=a4 v=0
627724 On ch=1 n=c#6 v=89
627738 On ch=1 n=a#5 v=0
627816 On ch=1 n=a#6 v=114
627844 On ch=1 n=c#6 v=0
627902 On ch=1 n=c#5 v=97
628002 On ch=1 n=f5 v=78
628076 On ch=1 n=a#6 v=0
628090 On ch=1 n=a#5 v=104
628168 On ch=1 n=a#5 v=0
628168 On ch=1 n=f5 v=0
628188 On ch=1 n=f6 v=94
628202 On ch=1 n=c#5 v=0
628278 On ch=1 n=c#6 v=103
628320 On ch=1 n=f6 v=0
628360 On ch=1 n=c#6 v=0
628362 On ch=1 n=a#5 v=93
628444 On ch=1 n=c#6 v=97
628450 On ch=1 n=a#5 v=0
628484 On ch=1 n=c#6 v=0
628514 Par ch=1 c=64 v=63
628514 Par ch=1 c=64 v=0
628534 On ch=1 n=g#4 v=110
628558 On ch=1 n=c#7 v=116
628596 Par ch=1 c=64 v=63
628602 Par ch=1 c=64 v=127
628628 On ch=1 n=c#5 v=99
628668 On ch=1 n=g#4 v=0
628732 On ch=1 n=f5 v=90
628796 On ch=1 n=c#7 v=0
628806 On ch=1 n=a#5 v=104
628866 On ch=1 n=c#5 v=0
628914 On ch=1 n=a#6 v=110
628916 On ch=1 n=f5 v=0
628936 On ch=1 n=a#5 v=0
629012 On ch=1 n=f6 v=75
629052 On ch=1 n=a#6 v=0
629080 On ch=1 n=c#6 v=91
629094 On ch=1 n=f6 v=0
629158 On ch=1 n=f6 v=88
629170 On ch=1 n=c#6 v=0
629236 On ch=1 n=c#7 v=120
629280 On ch=1 n=f6 v=0
629334 On ch=1 n=c#5 v=105
629410 On ch=1 n=f5 v=85
629464 On ch=1 n=c#7 v=0
629480 On ch=1 n=c#5 v=0
629486 On ch=1 n=a#5 v=104
629532 On ch=1 n=f5 v=0
629546 On ch=1 n=a#5 v=0
629594 Par ch=1 c=64 v=63
629600 On ch=1 n=a#6 v=108
629604 Par ch=1 c=64 v=0
629606 On ch=1 n=g4 v=121
629654 Par ch=1 c=64 v=63
629666 Par ch=1 c=64 v=127
629708 On ch=1 n=f6 v=82
629722 On ch=1 n=a#6 v=0
629756 On ch=1 n=c#6 v=87
629772 On ch=1 n=f6 v=0
629818 On ch=1 n=g4 v=0
629850 On ch=1 n=c#6 v=0
629856 On ch=1 n=f6 v=92
629888 On ch=1 n=f6 v=0
629960 On ch=1 n=f7 v=122
630048 On ch=1 n=f7 v=0
630060 On ch=1 n=c#5 v=94
630140 On ch=1 n=f5 v=89
630236 On ch=1 n=a#5 v=113
630272 On ch=1 n=c#5 v=0
630286 On ch=1 n=f5 v=0
630310 On ch=1 n=a#5 v=0
630312 On ch=1 n=c#7 v=115
630418 On ch=1 n=a#6 v=93
630442 On ch=1 n=c#7 v=0
630484 On ch=1 n=a#6 v=0
630484 On ch=1 n=f6 v=73
630550 On ch=1 n=a#6 v=94
630570 On ch=1 n=f6 v=0
630614 On ch=1 n=a#6 v=0
630618 Par ch=1 c=64 v=63
630620 Par ch=1 c=64 v=0
630636 On ch=1 n=g4 v=113
630646 On ch=1 n=f7 v=124
630684 Par ch=1 c=64 v=63
630694 Par ch=1 c=64 v=127
630740 On ch=1 n=g4 v=0
630764 On ch=1 n=c#5 v=107
630770 On ch=1 n=f7 v=0
630870 On ch=1 n=f5 v=90
630950 On ch=1 n=a5 v=93
631022 On ch=1 n=c#7 v=119
631040 On ch=1 n=f5 v=0
631064 On ch=1 n=a5 v=0
631110 On ch=1 n=a6 v=86
631150 On ch=1 n=c#7 v=0
631178 On ch=1 n=f6 v=81
631184 On ch=1 n=a6 v=0
631232 On ch=1 n=c#5 v=0
631254 On ch=1 n=a6 v=99
631270 On ch=1 n=f6 v=0
631310 On ch=1 n=a6 v=0
631312 Par ch=1 c=64 v=63
631322 Par ch=1 c=64 v=0
631324 On ch=1 n=g4 v=93
631336 On ch=1 n=f7 v=125
631348 Par ch=1 c=64 v=63
631358 Par ch=1 c=64 v=127
631400 On ch=1 n=c#5 v=92
631440 On ch=1 n=g4 v=0
631472 On ch=1 n=f7 v=0
631484 On ch=1 n=f5 v=96
631562 On ch=1 n=a5 v=108
631666 On ch=1 n=c#7 v=125
631692 On ch=1 n=a5 v=0
631692 On ch=1 n=f5 v=0
631760 On ch=1 n=a6 v=99
631806 On ch=1 n=c#7 v=0
631806 On ch=1 n=c#5 v=0
631826 On ch=1 n=f6 v=84
631836 On ch=1 n=a6 v=0
631904 On ch=1 n=a6 v=97
631924 On ch=1 n=f6 v=0
631968 On ch=1 n=a6 v=0
631978 Par ch=1 c=64 v=63
631986 Par ch=1 c=64 v=0
631990 On ch=1 n=g4 v=125
631996 On ch=1 n=f7 v=125
632014 Par ch=1 c=64 v=63
632024 Par ch=1 c=64 v=127
632096 On ch=1 n=c#5 v=112
632122 On ch=1 n=f7 v=0
632130 On ch=1 n=g4 v=0
632178 On ch=1 n=f5 v=97
632276 On ch=1 n=a5 v=88
632336 On ch=1 n=c#7 v=120
632398 On ch=1 n=f5 v=0
632424 On ch=1 n=a5 v=0
632424 On ch=1 n=a6 v=88
632466 On ch=1 n=c#7 v=0
632492 On ch=1 n=f6 v=84
632502 On ch=1 n=a6 v=0
632570 On ch=1 n=a6 v=98
632582 On ch=1 n=f6 v=0
632622 On ch=1 n=c#5 v=0
632640 Par ch=1 c=64 v=63
632646 On ch=1 n=a6 v=0
632650 Par ch=1 c=64 v=0
632668 On ch=1 n=g4 v=109
632678 On ch=1 n=f7 v=124
632690 Par ch=1 c=64 v=63
632702 Par ch=1 c=64 v=127
632736 On ch=1 n=c#5 v=99
632772 On ch=1 n=f7 v=0
632784 On ch=1 n=g4 v=0
632812 On ch=1 n=f5 v=98
632868 On ch=1 n=c#5 v=0
632872 On ch=1 n=a5 v=113
632906 On ch=1 n=f5 v=0
632942 On ch=1 n=a5 v=0
632952 On ch=1 n=c#6 v=105
633008 On ch=1 n=f6 v=84
633024 On ch=1 n=c#6 v=0
633066 On ch=1 n=c#7 v=110
633080 On ch=1 n=f6 v=0
633122 On ch=1 n=c#7 v=0
633156 On ch=1 n=f6 v=108
633226 On ch=1 n=g6 v=90
633274 On ch=1 n=a6 v=90
633280 On ch=1 n=f6 v=0
633332 On ch=1 n=g6 v=0
633356 On ch=1 n=c#7 v=100
633364 On ch=1 n=a6 v=0
633410 On ch=1 n=f7 v=84
633430 On ch=1 n=c#7 v=0
633482 On ch=1 n=c#8 v=121
633528 On ch=1 n=f7 v=0
633566 On ch=1 n=c#8 v=0
633846 Par ch=1 c=64 v=63
633856 Par ch=1 c=64 v=0
634016 On ch=1 n=f#7 v=119
634020 On ch=1 n=f#6 v=127
634022 On ch=1 n=c#6 v=114
634026 On ch=1 n=a#5 v=104
634026 On ch=1 n=f#5 v=108
634050 Par ch=1 c=64 v=127
634120 On ch=1 n=f#6 v=0
634124 On ch=1 n=c#6 v=0
634132 On ch=1 n=a#5 v=0
634144 On ch=1 n=f#5 v=0
634154 On ch=1 n=c#7 v=95
634170 On ch=1 n=f#7 v=0
634246 On ch=1 n=a#6 v=97
634260 On ch=1 n=c#7 v=0
634314 On ch=1 n=a#6 v=0
634326 On ch=1 n=f#6 v=101
634378 On ch=1 n=f#6 v=0
634396 Par ch=1 c=64 v=63
634404 Par ch=1 c=64 v=0
634418 On ch=1 n=e6 v=120
634420 Par ch=1 c=64 v=63
634422 On ch=1 n=g#5 v=106
634424 On ch=1 n=b5 v=107
634424 On ch=1 n=e5 v=103
634428 On ch=1 n=c#7 v=113
634438 Par ch=1 c=64 v=127
634508 On ch=1 n=g#6 v=89
634520 On ch=1 n=e6 v=0
634522 On ch=1 n=b5 v=0
634524 On ch=1 n=c#7 v=0
634530 On ch=1 n=g#5 v=0
634544 On ch=1 n=e5 v=0
634618 On ch=1 n=e6 v=49
634632 On ch=1 n=g#6 v=0
634674 On ch=1 n=c#6 v=100
634706 On ch=1 n=e6 v=0
634742 On ch=1 n=c#6 v=0
634784 Par ch=1 c=64 v=63
634786 On ch=1 n=a6 v=114
634788 On ch=1 n=d6 v=112
634790 On ch=1 n=f#5 v=104
634790 On ch=1 n=a5 v=101
634792 On ch=1 n=d5 v=99
634828 Par ch=1 c=64 v=127
634866 On ch=1 n=a5 v=0
634866 On ch=1 n=d6 v=0
634880 On ch=1 n=f#5 v=0
634882 On ch=1 n=d5 v=0
634900 On ch=1 n=f#6 v=110
634914 On ch=1 n=a6 v=0
634958 On ch=1 n=b6 v=71
634968 On ch=1 n=f#6 v=0
635048 On ch=1 n=f#6 v=113
635062 On ch=1 n=b6 v=0
635100 Par ch=1 c=64 v=63
635118 On ch=1 n=f#6 v=0
635140 Par ch=1 c=64 v=127
635142 On ch=1 n=c5 v=101
635142 On ch=1 n=c6 v=114
635144 On ch=1 n=g5 v=103
635144 On ch=1 n=e5 v=99
635146 On ch=1 n=c7 v=122
635220 On ch=1 n=c6 v=0
635230 On ch=1 n=g5 v=0
635232 On ch=1 n=g6 v=92
635248 On ch=1 n=e5 v=0
635250 On ch=1 n=c7 v=0
635254 On ch=1 n=c5 v=0
635312 On ch=1 n=g6 v=0
635318 On ch=1 n=e6 v=71
635364 On ch=1 n=e6 v=0
635382 On ch=1 n=c6 v=101
635452 On ch=1 n=c6 v=0
635490 Par ch=1 c=64 v=63
635500 On ch=1 n=a#5 v=116
635502 On ch=1 n=d6 v=114
635502 On ch=1 n=a#4 v=92
635504 On ch=1 n=d5 v=90
635504 On ch=1 n=f5 v=100
635536 Par ch=1 c=64 v=127
635556 On ch=1 n=a#5 v=0
635562 On ch=1 n=f5 v=0
635584 On ch=1 n=d5 v=0
635594 On ch=1 n=d6 v=0
635598 On ch=1 n=a#4 v=0
635604 On ch=1 n=a#5 v=99
635676 On ch=1 n=a#5 v=0
635700 On ch=1 n=e6 v=92
635738 Par ch=1 c=64 v=63
635768 On ch=1 n=a#5 v=91
635778 Par ch=1 c=64 v=0
635790 Par ch=1 c=64 v=63
635796 On ch=1 n=e6 v=0
635824 On ch=1 n=a#5 v=0
635824 Par ch=1 c=64 v=127
635848 On ch=1 n=f#6 v=118
635856 On ch=1 n=f#5 v=124
635860 On ch=1 n=a#4 v=106
635862 On ch=1 n=c#5 v=106
635866 On ch=1 n=f#4 v=98
635912 On ch=1 n=f#5 v=0
635914 On ch=1 n=c#5 v=0
635920 On ch=1 n=a#4 v=0
635948 On ch=1 n=f#4 v=0
635956 On ch=1 n=c#6 v=100
635974 On ch=1 n=f#6 v=0
636046 On ch=1 n=a#5 v=95
636054 On ch=1 n=c#6 v=0
636108 On ch=1 n=a#5 v=0
636110 On ch=1 n=f#5 v=101
636164 On ch=1 n=f#5 v=0
636194 Par ch=1 c=64 v=63
636202 On ch=1 n=e5 v=114
636202 On ch=1 n=g#4 v=105
636204 On ch=1 n=c#6 v=107
636206 On ch=1 n=b4 v=103
636208 On ch=1 n=e4 v=102
636236 Par ch=1 c=64 v=127
636268 On ch=1 n=g#5 v=98
636286 On ch=1 n=e5 v=0
636294 On ch=1 n=b4 v=0
636300 On ch=1 n=g#4 v=0
636306 On ch=1 n=c#6 v=0
636308 On ch=1 n=e4 v=0
636378 On ch=1 n=e5 v=76
636394 On ch=1 n=g#5 v=0
636444 On ch=1 n=c#5 v=106
636468 On ch=1 n=e5 v=0
636514 On ch=1 n=c#5 v=0
636536 Par ch=1 c=64 v=63
636548 On ch=1 n=a5 v=102
636552 On ch=1 n=f#4 v=108
636552 On ch=1 n=d5 v=112
636554 On ch=1 n=a4 v=99
636556 On ch=1 n=d4 v=102
636596 Par ch=1 c=64 v=127
636622 On ch=1 n=d5 v=0
636628 On ch=1 n=a4 v=0
636638 On ch=1 n=d4 v=0
636644 On ch=1 n=f#4 v=0
636646 On ch=1 n=f#5 v=113
636668 On ch=1 n=a5 v=0
636724 On ch=1 n=b5 v=96
636728 On ch=1 n=f#5 v=0
636788 On ch=1 n=f#5 v=104
636806 Par ch=1 c=64 v=63
636812 On ch=1 n=b5 v=0
636822 Par ch=1 c=64 v=0
636846 Par ch=1 c=64 v=63
636858 On ch=1 n=f#5 v=0
636868 Par ch=1 c=64 v=127
636880 On ch=1 n=c6 v=121
636884 On ch=1 n=c5 v=120
636884 On ch=1 n=e4 v=106
636886 On ch=1 n=g4 v=102
636888 On ch=1 n=c4 v=103
636950 On ch=1 n=c5 v=0
636960 On ch=1 n=g4 v=0
636974 On ch=1 n=g5 v=93
636978 On ch=1 n=e4 v=0
636990 On ch=1 n=c4 v=0
637000 On ch=1 n=c6 v=0
637064 On ch=1 n=e5 v=80
637066 On ch=1 n=g5 v=0
637122 On ch=1 n=e5 v=0
637126 On ch=1 n=c5 v=101
637188 On ch=1 n=c5 v=0
637228 On ch=1 n=d5 v=109
637232 Par ch=1 c=64 v=63
637234 On ch=1 n=a#4 v=119
637234 On ch=1 n=a#3 v=94
637236 On ch=1 n=d4 v=96
637238 On ch=1 n=f4 v=101
637276 Par ch=1 c=64 v=127
637290 On ch=1 n=a#4 v=0
637300 On ch=1 n=f4 v=0
637318 On ch=1 n=d4 v=0
637324 On ch=1 n=a#4 v=105
637330 On ch=1 n=a#3 v=0
637338 On ch=1 n=d5 v=0
637396 On ch=1 n=a#4 v=0
637418 On ch=1 n=e5 v=101
637464 Par ch=1 c=64 v=63
637484 Par ch=1 c=64 v=0
637486 On ch=1 n=a#4 v=90
637520 On ch=1 n=e5 v=0
637542 On ch=1 n=a#4 v=0
637554 Par ch=1 c=64 v=63
637564 On ch=1 n=f#5 v=119
637568 Par ch=1 c=64 v=127
637576 On ch=1 n=f#4 v=124
637578 On ch=1 n=c#4 v=115
637580 On ch=1 n=f#3 v=116
637650 On ch=1 n=c#4 v=0
637662 On ch=1 n=f#4 v=0
637686 On ch=1 n=f#3 v=0
637706 On ch=1 n=c#5 v=98
637726 On ch=1 n=f#5 v=0
637812 On ch=1 n=a#4 v=95
637832 On ch=1 n=c#5 v=0
637866 On ch=1 n=a#4 v=0
637916 On ch=1 n=c#5 v=119
637920 On ch=1 n=e4 v=107
637920 On ch=1 n=b3 v=101
637928 On ch=1 n=e3 v=91
637974 Par ch=1 c=64 v=63
638004 Par ch=1 c=64 v=127
638036 On ch=1 n=g#4 v=93
638078 On ch=1 n=e4 v=0
638110 On ch=1 n=b3 v=0
638124 On ch=1 n=e3 v=0
638156 On ch=1 n=e4 v=72
638166 On ch=1 n=c#5 v=0
638168 On ch=1 n=g#4 v=0
638210 On ch=1 n=a3 v=86
638212 On ch=1 n=d3 v=92
638212 On ch=1 n=d4 v=91
638216 On ch=1 n=e4 v=0
638238 On ch=1 n=a4 v=90
638252 On ch=1 n=a3 v=0
638254 On ch=1 n=d4 v=0
638272 On ch=1 n=d3 v=0
638310 On ch=1 n=f#4 v=105
638348 On ch=1 n=a4 v=0
638400 On ch=1 n=f#4 v=0
638402 On ch=1 n=d4 v=92
638452 On ch=1 n=d4 v=0
638526 Par ch=1 c=64 v=63
638536 Par ch=1 c=64 v=0
638544 On ch=1 n=f#5 v=113
638546 On ch=1 n=c#4 v=108
638548 On ch=1 n=f#3 v=107
638550 On ch=1 n=f#4 v=119
638586 Par ch=1 c=64 v=63
638600 Par ch=1 c=64 v=127
638626 On ch=1 n=c#4 v=0
638642 On ch=1 n=f#3 v=0
638644 On ch=1 n=f#4 v=0
638670 On ch=1 n=c#5 v=91
638718 On ch=1 n=f#5 v=0
638744 On ch=1 n=a#4 v=91
638750 On ch=1 n=c#5 v=0
638798 On ch=1 n=a#4 v=0
638852 On ch=1 n=e4 v=106
638854 On ch=1 n=b3 v=100
638858 On ch=1 n=c#5 v=119
638860 On ch=1 n=e3 v=99
638902 On ch=1 n=b3 v=0
638906 On ch=1 n=e4 v=0
638926 On ch=1 n=e3 v=0
638952 On ch=1 n=g#4 v=97
639022 On ch=1 n=c#5 v=0
639042 On ch=1 n=f4 v=84
639072 On ch=1 n=g#4 v=0
639102 On ch=1 n=f4 v=0
639130 On ch=1 n=d3 v=92
639138 On ch=1 n=a4 v=103
639140 On ch=1 n=a3 v=94
639146 On ch=1 n=d4 v=90
639152 Par ch=1 c=64 v=63
639172 Par ch=1 c=64 v=127
639178 On ch=1 n=d4 v=0
639198 On ch=1 n=a3 v=0
639222 On ch=1 n=d3 v=0
639232 On ch=1 n=f#4 v=100
639260 On ch=1 n=a4 v=0
639304 On ch=1 n=d4 v=71
639330 On ch=1 n=f#4 v=0
639360 On ch=1 n=d4 v=0
639424 Par ch=1 c=64 v=63
639438 Par ch=1 c=64 v=0
639448 On ch=1 n=f#5 v=114
639452 Par ch=1 c=64 v=63
639456 On ch=1 n=f#3 v=108
639456 On ch=1 n=f#4 v=120
639458 On ch=1 n=c#4 v=110
639470 Par ch=1 c=64 v=127
639522 On ch=1 n=c#4 v=0
639544 On ch=1 n=f#4 v=0
639548 On ch=1 n=f#3 v=0
639556 On ch=1 n=c#5 v=94
639602 On ch=1 n=f#5 v=0
639626 On ch=1 n=a#4 v=94
639642 On ch=1 n=c#5 v=0
639690 On ch=1 n=a#4 v=0
639726 On ch=1 n=e4 v=104
639728 On ch=1 n=b3 v=102
639736 On ch=1 n=e3 v=98
639750 On ch=1 n=c#5 v=110
639778 On ch=1 n=b3 v=0
639786 On ch=1 n=e4 v=0
639806 On ch=1 n=e3 v=0
639838 On ch=1 n=g#4 v=95
639888 On ch=1 n=c#5 v=0
639928 On ch=1 n=f4 v=84
639956 On ch=1 n=g#4 v=0
639998 On ch=1 n=f4 v=0
640002 On ch=1 n=d3 v=83
640012 Par ch=1 c=64 v=63
640016 On ch=1 n=a3 v=86
640022 On ch=1 n=d4 v=77
640022 On ch=1 n=a4 v=99
640056 On ch=1 n=d4 v=0
640060 On ch=1 n=a3 v=0
640072 On ch=1 n=d3 v=0
640072 Par ch=1 c=64 v=127
640118 On ch=1 n=f#4 v=99
640148 On ch=1 n=a4 v=0
640194 Par ch=1 c=64 v=63
640194 On ch=1 n=d4 v=88
640202 On ch=1 n=f#4 v=0
640208 Par ch=1 c=64 v=0
640232 On ch=1 n=d4 v=0
640294 On ch=1 n=f#5 v=104
640296 Par ch=1 c=64 v=63
640312 Par ch=1 c=64 v=127
640314 On ch=1 n=f#4 v=106
640316 On ch=1 n=f#3 v=104
640322 On ch=1 n=c#4 v=87
640334 Par ch=1 c=64 v=127
640352 On ch=1 n=c#4 v=0
640370 On ch=1 n=f#4 v=0
640380 On ch=1 n=f#3 v=0
640394 On ch=1 n=c#5 v=78
640426 On ch=1 n=f#5 v=0
640470 On ch=1 n=c#5 v=0
640472 On ch=1 n=a#4 v=84
640528 On ch=1 n=a#4 v=0
640568 On ch=1 n=c#4 v=100
640588 On ch=1 n=c#5 v=105
640644 On ch=1 n=c#4 v=0
640684 On ch=1 n=g#4 v=100
640700 On ch=1 n=c#5 v=0
640756 On ch=1 n=e4 v=87
640774 On ch=1 n=g#4 v=0
640804 On ch=1 n=e4 v=0
640814 Par ch=1 c=64 v=63
640826 Par ch=1 c=64 v=0
640864 On ch=1 n=a3 v=108
640872 On ch=1 n=e4 v=111
640886 Par ch=1 c=64 v=63
640888 On ch=1 n=a5 v=113
640900 Par ch=1 c=64 v=127
640970 On ch=1 n=e4 v=0
640974 On ch=1 n=e5 v=104
641012 On ch=1 n=a5 v=0
641050 On ch=1 n=e5 v=0
641056 On ch=1 n=c5 v=88
641098 On ch=1 n=c5 v=0
641148 On ch=1 n=a3 v=0
641152 On ch=1 n=e4 v=94
641156 On ch=1 n=e5 v=102
641194 On ch=1 n=e4 v=0
641236 On ch=1 n=b4 v=102
641282 On ch=1 n=e5 v=0
641302 On ch=1 n=g4 v=86
641320 On ch=1 n=b4 v=0
641362 On ch=1 n=g4 v=0
641374 Par ch=1 c=64 v=63
641384 Par ch=1 c=64 v=0
641426 On ch=1 n=c4 v=117
641428 On ch=1 n=g4 v=112
641430 On ch=1 n=c6 v=122
641460 Par ch=1 c=64 v=63
641472 Par ch=1 c=64 v=127
641490 On ch=1 n=g4 v=0
641504 On ch=1 n=c4 v=0
641514 On ch=1 n=g5 v=94
641590 On ch=1 n=e5 v=84
641594 On ch=1 n=c6 v=0
641628 On ch=1 n=g5 v=0
641666 On ch=1 n=e5 v=0
641668 Par ch=1 c=64 v=63
641682 On ch=1 n=a#4 v=118
641692 On ch=1 n=a#5 v=114
641694 On ch=1 n=d#4 v=110
641712 Par ch=1 c=64 v=127
641738 On ch=1 n=a#4 v=0
641750 On ch=1 n=d#4 v=0
641784 On ch=1 n=g5 v=91
641826 Par ch=1 c=64 v=63
641844 On ch=1 n=d#5 v=97
641848 Par ch=1 c=64 v=0
641854 On ch=1 n=a#5 v=0
641862 On ch=1 n=g5 v=0
641904 On ch=1 n=d#5 v=0
641932 Par ch=1 c=64 v=63
641948 Par ch=1 c=64 v=127
641986 On ch=1 n=f#6 v=118
641994 On ch=1 n=f#5 v=112
642000 On ch=1 n=c#5 v=91
642000 On ch=1 n=f#4 v=95
642026 On ch=1 n=c#5 v=0
642058 On ch=1 n=f#5 v=0
642060 On ch=1 n=f#4 v=0
642124 On ch=1 n=c#6 v=87
642160 On ch=1 n=f#6 v=0
642202 On ch=1 n=c#6 v=0
642202 On ch=1 n=a#5 v=95
642262 On ch=1 n=a#5 v=0
642332 On ch=1 n=e5 v=112
642336 On ch=1 n=b4 v=101
642338 On ch=1 n=e4 v=102
642344 On ch=1 n=c#6 v=116
642374 On ch=1 n=b4 v=0
642386 On ch=1 n=e5 v=0
642398 On ch=1 n=e4 v=0
642464 On ch=1 n=g#5 v=109
642508 On ch=1 n=c#6 v=0
642564 On ch=1 n=e5 v=87
642568 On ch=1 n=g#5 v=0
642610 On ch=1 n=e5 v=0
642642 On ch=1 n=a5 v=109
642646 On ch=1 n=d4 v=96
642652 On ch=1 n=d5 v=96
642652 On ch=1 n=a4 v=92
642692 On ch=1 n=a4 v=0
642692 On ch=1 n=d5 v=0
642706 On ch=1 n=d4 v=0
642730 On ch=1 n=f#5 v=107
642768 On ch=1 n=a5 v=0
642786 On ch=1 n=d5 v=92
642820 On ch=1 n=f#5 v=0
642844 On ch=1 n=d5 v=0
642908 Par ch=1 c=64 v=63
642922 On ch=1 n=c#5 v=104
642922 On ch=1 n=f#6 v=113
642924 On ch=1 n=f#5 v=113
642926 On ch=1 n=f#4 v=100
642964 Par ch=1 c=64 v=127
642984 On ch=1 n=c#5 v=0
642996 On ch=1 n=f#4 v=0
642996 On ch=1 n=f#5 v=0
643016 On ch=1 n=c#6 v=77
643066 On ch=1 n=f#6 v=0
643072 On ch=1 n=a#5 v=95
643094 On ch=1 n=c#6 v=0
643128 On ch=1 n=a#5 v=0
643170 On ch=1 n=c#5 v=115
643182 On ch=1 n=c#6 v=108
643244 On ch=1 n=c#5 v=0
643258 On ch=1 n=g#5 v=100
643300 On ch=1 n=c#6 v=0
643320 On ch=1 n=f5 v=97
643366 On ch=1 n=g#5 v=0
643382 On ch=1 n=f5 v=0
643414 Par ch=1 c=64 v=63
643428 On ch=1 n=a4 v=111
643436 On ch=1 n=e5 v=114
643460 On ch=1 n=a6 v=104
643478 Par ch=1 c=64 v=127
643514 On ch=1 n=e5 v=0
643536 On ch=1 n=e6 v=106
643566 On ch=1 n=a6 v=0
643604 On ch=1 n=e6 v=0
643618 On ch=1 n=c6 v=84
643668 On ch=1 n=c6 v=0
643710 On ch=1 n=e5 v=113
643718 On ch=1 n=e6 v=117
643720 On ch=1 n=a4 v=0
643772 On ch=1 n=e5 v=0
643798 On ch=1 n=b5 v=86
643858 On ch=1 n=e6 v=0
643858 On ch=1 n=g5 v=90
643892 On ch=1 n=b5 v=0
643920 On ch=1 n=g5 v=0
643924 Par ch=1 c=64 v=63
643934 Par ch=1 c=64 v=0
643972 On ch=1 n=c5 v=121
643972 On ch=1 n=g5 v=117
643986 On ch=1 n=c7 v=122
643998 Par ch=1 c=64 v=63
644012 Par ch=1 c=64 v=127
644036 On ch=1 n=g5 v=0
644048 On ch=1 n=c5 v=0
644070 On ch=1 n=g6 v=99
644136 On ch=1 n=e6 v=85
644164 On ch=1 n=c7 v=0
644186 Par ch=1 c=64 v=63
644194 On ch=1 n=g6 v=0
644198 Par ch=1 c=64 v=0
644216 On ch=1 n=e6 v=0
644238 Par ch=1 c=64 v=63
644246 On ch=1 n=a#6 v=118
644248 On ch=1 n=a#5 v=121
644254 Par ch=1 c=64 v=127
644256 On ch=1 n=d#5 v=114
644310 On ch=1 n=a#5 v=0
644330 On ch=1 n=d#5 v=0
644340 On ch=1 n=g6 v=89
644412 On ch=1 n=d#6 v=100
644444 On ch=1 n=g6 v=0
644456 On ch=1 n=a#6 v=0
644468 Par ch=1 c=64 v=63
644484 On ch=1 n=d#6 v=0
644490 Par ch=1 c=64 v=0
644586 Par ch=1 c=64 v=63
644594 Par ch=1 c=64 v=127
644604 On ch=1 n=c#6 v=109
644604 On ch=1 n=f#7 v=118
644606 On ch=1 n=f#6 v=116
644608 On ch=1 n=f#5 v=104
644660 On ch=1 n=c#6 v=0
644684 On ch=1 n=f#6 v=0
644696 On ch=1 n=f#5 v=0
644788 On ch=1 n=c#7 v=95
644802 On ch=1 n=f#7 v=0
644876 On ch=1 n=c#7 v=0
644880 On ch=1 n=a#6 v=98
644938 On ch=1 n=a#6 v=0
645016 On ch=1 n=e6 v=116
645018 On ch=1 n=c#7 v=115
645018 On ch=1 n=b5 v=111
645022 On ch=1 n=e5 v=107
645076 On ch=1 n=b5 v=0
645086 On ch=1 n=e6 v=0
645112 On ch=1 n=e5 v=0
645146 On ch=1 n=g#6 v=103
645200 On ch=1 n=c#7 v=0
645268 On ch=1 n=g#6 v=0
645268 On ch=1 n=e6 v=107
645312 On ch=1 n=e6 v=0
645338 On ch=1 n=a6 v=109
645340 On ch=1 n=d5 v=97
645354 On ch=1 n=a5 v=82
645386 On ch=1 n=a5 v=0
645414 On ch=1 n=d5 v=0
645422 On ch=1 n=f#6 v=98
645452 On ch=1 n=a6 v=0
645488 On ch=1 n=d6 v=84
645526 On ch=1 n=f#6 v=0
645538 On ch=1 n=d6 v=0
645558 Par ch=1 c=64 v=63
645568 Par ch=1 c=64 v=0
645622 On ch=1 n=f#7 v=115
645624 Par ch=1 c=64 v=63
645626 On ch=1 n=c#6 v=109
645628 On ch=1 n=f#6 v=123
645632 On ch=1 n=f#5 v=106
645638 Par ch=1 c=64 v=127
645678 On ch=1 n=c#6 v=0
645688 On ch=1 n=f#6 v=0
645702 On ch=1 n=f#5 v=0
645724 On ch=1 n=c#7 v=81
645778 On ch=1 n=f#7 v=0
645798 On ch=1 n=a#6 v=98
645808 On ch=1 n=c#7 v=0
645860 On ch=1 n=a#6 v=0
645908 On ch=1 n=e6 v=116
645912 On ch=1 n=b5 v=109
645914 On ch=1 n=e5 v=111
645924 On ch=1 n=c#7 v=110
645966 On ch=1 n=e6 v=0
645968 On ch=1 n=b5 v=0
645994 On ch=1 n=e5 v=0
646020 On ch=1 n=g#6 v=103
646064 On ch=1 n=c#7 v=0
646114 On ch=1 n=e6 v=103
646126 On ch=1 n=g#6 v=0
646150 On ch=1 n=e6 v=0
646170 On ch=1 n=a5 v=107
646172 On ch=1 n=d6 v=108
646172 On ch=1 n=d5 v=108
646176 On ch=1 n=a6 v=103
646216 On ch=1 n=d6 v=0
646220 On ch=1 n=a5 v=0
646230 On ch=1 n=d5 v=0
646254 On ch=1 n=f#6 v=104
646290 On ch=1 n=a6 v=0
646310 On ch=1 n=d6 v=91
646354 On ch=1 n=f#6 v=0
646366 Par ch=1 c=64 v=63
646376 On ch=1 n=d6 v=0
646378 Par ch=1 c=64 v=0
646422 Par ch=1 c=64 v=63
646436 On ch=1 n=f#6 v=121
646438 On ch=1 n=c#6 v=110
646438 Par ch=1 c=64 v=127
646442 On ch=1 n=f#5 v=112
646446 On ch=1 n=f#7 v=118
646486 On ch=1 n=c#6 v=0
646494 On ch=1 n=f#6 v=0
646510 On ch=1 n=f#5 v=0
646524 On ch=1 n=c#7 v=93
646572 On ch=1 n=f#7 v=0
646594 On ch=1 n=a#6 v=91
646606 On ch=1 n=c#7 v=0
646626 On ch=1 n=a#6 v=0
646700 On ch=1 n=e6 v=116
646702 On ch=1 n=c#7 v=118
646704 On ch=1 n=b5 v=109
646706 On ch=1 n=e5 v=107
646754 On ch=1 n=b5 v=0
646756 On ch=1 n=e6 v=0
646784 On ch=1 n=e5 v=0
646792 On ch=1 n=g#6 v=99
646834 On ch=1 n=c#7 v=0
646870 On ch=1 n=e6 v=88
646898 On ch=1 n=g#6 v=0
646918 On ch=1 n=e6 v=0
646930 On ch=1 n=a5 v=107
646932 On ch=1 n=d5 v=107
646932 On ch=1 n=d6 v=106
646948 On ch=1 n=a6 v=108
646972 On ch=1 n=d6 v=0
646982 On ch=1 n=a5 v=0
646992 On ch=1 n=d5 v=0
647026 On ch=1 n=f#6 v=99
647070 On ch=1 n=a6 v=0
647080 On ch=1 n=d6 v=88
647126 On ch=1 n=f#6 v=0
647134 On ch=1 n=d6 v=0
647148 Par ch=1 c=64 v=63
647164 Par ch=1 c=64 v=0
647200 Par ch=1 c=64 v=63
647204 On ch=1 n=f#6 v=126
647206 On ch=1 n=c#6 v=113
647206 On ch=1 n=f#5 v=115
647212 On ch=1 n=f#7 v=115
647216 Par ch=1 c=64 v=127
647246 On ch=1 n=c#6 v=0
647252 On ch=1 n=f#6 v=0
647266 On ch=1 n=f#5 v=0
647292 On ch=1 n=c#7 v=83
647334 On ch=1 n=f#7 v=0
647358 On ch=1 n=a#6 v=98
647370 On ch=1 n=c#7 v=0
647412 On ch=1 n=a#6 v=0
647454 On ch=1 n=e6 v=117
647460 On ch=1 n=b5 v=111
647460 On ch=1 n=e5 v=111
647470 On ch=1 n=c#7 v=108
647508 On ch=1 n=b5 v=0
647510 On ch=1 n=d7 v=34
647512 On ch=1 n=e6 v=0
647536 On ch=1 n=e5 v=0
647552 On ch=1 n=g#6 v=105
647560 On ch=1 n=d7 v=0
647588 On ch=1 n=c#7 v=0
647634 On ch=1 n=e6 v=88
647656 On ch=1 n=g#6 v=0
647700 On ch=1 n=a6 v=107
647704 On ch=1 n=d6 v=120
647706 On ch=1 n=a5 v=112
647706 On ch=1 n=d5 v=114
647716 On ch=1 n=e6 v=0
647750 On ch=1 n=d6 v=0
647758 On ch=1 n=a5 v=0
647762 On ch=1 n=d5 v=0
647786 On ch=1 n=f#6 v=98
647828 On ch=1 n=a6 v=0
647854 On ch=1 n=d6 v=94
647880 On ch=1 n=f#6 v=0
647912 On ch=1 n=d6 v=0
647958 Par ch=1 c=64 v=63
647970 Par ch=1 c=64 v=0
648040 On ch=1 n=f#5 v=109
648042 On ch=1 n=c#6 v=116
648046 On ch=1 n=f#6 v=124
648048 Par ch=1 c=64 v=63
648050 Par ch=1 c=64 v=127
648052 On ch=1 n=a#6 v=123
648054 On ch=1 n=f#7 v=109
648058 On ch=1 n=c#7 v=106
648100 On ch=1 n=a#6 v=0
648118 On ch=1 n=c#7 v=0
648124 On ch=1 n=f#7 v=0
648248 On ch=1 n=c#6 v=0
648290 On ch=1 n=f#6 v=0
648366 On ch=1 n=f#5 v=0
648712 On ch=1 n=f#4 v=103
648774 On ch=1 n=c#5 v=101
648796 On ch=1 n=f#4 v=0
648874 On ch=1 n=f#5 v=100
648926 On ch=1 n=a5 v=76
648930 On ch=1 n=c#5 v=0
648964 On ch=1 n=f#5 v=0
648992 On ch=1 n=a#5 v=95
648994 On ch=1 n=a5 v=0
649062 On ch=1 n=c#6 v=100
649126 On ch=1 n=f#6 v=93
649150 On ch=1 n=a#5 v=0
649178 On ch=1 n=a#6 v=101
649258 On ch=1 n=f#7 v=127
649264 On ch=1 n=c#7 v=110
649324 On ch=1 n=f#7 v=0
649328 On ch=1 n=c#7 v=0
650996 On ch=1 n=a#6 v=0
651020 On ch=1 n=f#6 v=0
651022 On ch=1 n=c#6 v=0
651122 Par ch=1 c=64 v=63
651132 Par ch=1 c=64 v=0
651132 Meta TrkEnd
TrkEnd
