MFile 1 2 480
MTrk
0 Tempo 500000
0 TimeSig 3/4 24 8
0 Meta TrkEnd
TrkEnd
MTrk
0 SeqSpec 43 00 01 00
0 Meta TrkName "<Master Volume>"
0 Meta 0x21 00
0 SysEx f0 41 10 42 12 40 00 7f 00 41 f7
0 SysEx f0 41 10 42 12 40 00 04 64 58 f7
192 Meta Text "<Master Reverve>"
192 SysEx f0 41 10 42 12 40 01 30 03 0c f7
192 SysEx f0 41 10 42 12 40 01 33 50 3c f7
192 SysEx f0 41 10 42 12 40 01 34 3c 4f f7
576 Par ch=1 c=0 v=0
580 Par ch=1 c=32 v=1
584 PrCh ch=1 p=0
780 Par ch=1 c=7 v=100
972 Par ch=1 c=11 v=80
1164 Par ch=1 c=10 v=64
1356 Par ch=1 c=1 v=0
1356 Meta Text "<part reverve>"
1356 Par ch=1 c=91 v=90
1452 Par ch=1 c=99 v=1
1456 Par ch=1 c=98 v=32
1460 Par ch=1 c=6 v=62
1464 Par ch=1 c=99 v=1
1468 Par ch=1 c=98 v=33
1472 Par ch=1 c=6 v=54
1476 Par ch=1 c=99 v=1
1480 Par ch=1 c=98 v=99
1484 Par ch=1 c=6 v=62
1488 Par ch=1 c=99 v=1
1492 Par ch=1 c=98 v=100
1496 Par ch=1 c=6 v=60
1500 Par ch=1 c=99 v=1
1504 Par ch=1 c=98 v=102
1508 Par ch=1 c=6 v=70
1664 On ch=1 n=b5 v=63
2250 On ch=1 n=g5 v=41
2280 On ch=1 n=c5 v=41
2280 On ch=1 n=e5 v=31
2282 On ch=1 n=a4 v=37
2306 Par ch=1 c=64 v=63
2326 Par ch=1 c=64 v=127
2546 On ch=1 n=e5 v=0
2566 On ch=1 n=c5 v=0
2596 On ch=1 n=a4 v=0
2598 On ch=1 n=g5 v=0
2620 On ch=1 n=b5 v=0
2850 On ch=1 n=b4 v=46
2852 On ch=1 n=d5 v=34
2870 On ch=1 n=a5 v=43
2872 On ch=1 n=f#5 v=45
2918 Par ch=1 c=64 v=63
2946 Par ch=1 c=64 v=0
3120 On ch=1 n=f#5 v=0
3142 On ch=1 n=a5 v=0
3168 On ch=1 n=d5 v=0
3176 On ch=1 n=b4 v=0
3478 On ch=1 n=d6 v=76
3496 Par ch=1 c=64 v=63
3506 Par ch=1 c=64 v=127
3806 On ch=1 n=d6 v=0
4062 On ch=1 n=b4 v=54
4088 On ch=1 n=d6 v=89
4092 On ch=1 n=e4 v=49
4094 On ch=1 n=f#5 v=70
4112 On ch=1 n=g5 v=54
4118 On ch=1 n=b5 v=68
4194 Par ch=1 c=64 v=63
4258 Par ch=1 c=64 v=127
4382 On ch=1 n=f#5 v=0
4410 On ch=1 n=g5 v=0
4438 On ch=1 n=b5 v=0
4438 On ch=1 n=d6 v=0
4684 On ch=1 n=g6 v=79
4694 On ch=1 n=b4 v=0
4706 On ch=1 n=e5 v=44
4792 On ch=1 n=g6 v=0
4874 On ch=1 n=e5 v=0
4896 On ch=1 n=e4 v=0
5246 Par ch=1 c=64 v=63
5268 Par ch=1 c=64 v=0
5270 On ch=1 n=d6 v=81
5284 On ch=1 n=b5 v=56
5838 On ch=1 n=e5 v=57
5846 On ch=1 n=g4 v=48
5852 On ch=1 n=c4 v=35
5912 Par ch=1 c=64 v=63
5922 Par ch=1 c=64 v=127
6044 On ch=1 n=b5 v=0
6108 On ch=1 n=d6 v=0
6410 On ch=1 n=c6 v=63
6416 On ch=1 n=a5 v=39
6504 On ch=1 n=c4 v=0
6618 On ch=1 n=a5 v=0
6674 On ch=1 n=b5 v=68
6680 On ch=1 n=c6 v=0
6680 On ch=1 n=g4 v=0
6682 On ch=1 n=e5 v=0
6688 On ch=1 n=g5 v=64
6850 On ch=1 n=g5 v=0
6868 On ch=1 n=b5 v=0
6956 On ch=1 n=g5 v=57
6966 On ch=1 n=c5 v=39
6970 On ch=1 n=d4 v=34
6978 On ch=1 n=e5 v=33
6992 Par ch=1 c=64 v=63
7024 Par ch=1 c=64 v=0
7044 Par ch=1 c=64 v=63
7100 Par ch=1 c=64 v=127
7164 On ch=1 n=c5 v=0
7196 On ch=1 n=g5 v=0
7232 On ch=1 n=a5 v=63
7234 On ch=1 n=f#5 v=67
7236 On ch=1 n=d4 v=0
7260 On ch=1 n=e5 v=0
7302 On ch=1 n=f#5 v=0
7312 On ch=1 n=a5 v=0
7526 On ch=1 n=f#5 v=69
7528 On ch=1 n=b4 v=56
7528 On ch=1 n=a5 v=55
7530 On ch=1 n=d4 v=51
7538 On ch=1 n=g3 v=42
7550 Par ch=1 c=64 v=63
7568 Par ch=1 c=64 v=0
7694 Par ch=1 c=64 v=63
7718 Par ch=1 c=64 v=127
7736 On ch=1 n=a5 v=0
7784 On ch=1 n=f#5 v=0
7960 On ch=1 n=b4 v=0
8072 On ch=1 n=g3 v=0
8088 On ch=1 n=b5 v=51
8102 On ch=1 n=g5 v=47
8114 On ch=1 n=d4 v=0
8192 On ch=1 n=g5 v=0
8200 On ch=1 n=b5 v=0
8526 Par ch=1 c=64 v=63
8538 Par ch=1 c=64 v=0
8604 On ch=1 n=f#4 v=67
8606 On ch=1 n=b3 v=63
8626 On ch=1 n=d6 v=82
8732 Par ch=1 c=64 v=63
8740 Par ch=1 c=64 v=127
8766 On ch=1 n=b3 v=0
8814 On ch=1 n=f#4 v=0
8878 On ch=1 n=e6 v=107
8932 On ch=1 n=d6 v=0
9028 On ch=1 n=e6 v=0
9098 On ch=1 n=d6 v=91
9128 On ch=1 n=d5 v=57
9134 On ch=1 n=e6 v=79
9150 On ch=1 n=f#5 v=67
9196 On ch=1 n=f#6 v=99
9210 On ch=1 n=c#6 v=88
9220 On ch=1 n=c#7 v=107
9230 On ch=1 n=d6 v=0
9248 On ch=1 n=e6 v=0
9270 On ch=1 n=f#6 v=0
9294 On ch=1 n=c#7 v=0
9354 On ch=1 n=c#6 v=0
9366 On ch=1 n=d5 v=0
9368 On ch=1 n=f#5 v=0
9744 On ch=1 n=b5 v=66
9750 On ch=1 n=b6 v=86
9766 On ch=1 n=e5 v=62
9768 On ch=1 n=c#6 v=70
9770 On ch=1 n=e6 v=73
9772 On ch=1 n=c#5 v=69
9824 On ch=1 n=c#6 v=0
9832 On ch=1 n=b5 v=0
9854 On ch=1 n=e5 v=0
9854 On ch=1 n=b6 v=0
9864 On ch=1 n=e6 v=0
9878 On ch=1 n=c#5 v=0
10266 On ch=1 n=f#4 v=88
10266 On ch=1 n=b3 v=81
10278 Par ch=1 c=64 v=63
10280 On ch=1 n=d6 v=97
10292 Par ch=1 c=64 v=0
10376 Par ch=1 c=64 v=63
10398 Par ch=1 c=64 v=127
10422 On ch=1 n=b3 v=0
10462 On ch=1 n=f#4 v=0
10506 On ch=1 n=d6 v=0
10534 On ch=1 n=e6 v=99
10672 On ch=1 n=e6 v=0
10738 On ch=1 n=d5 v=63
10738 On ch=1 n=d6 v=84
10774 On ch=1 n=e6 v=84
10778 On ch=1 n=f#5 v=70
10830 On ch=1 n=f#6 v=97
10832 On ch=1 n=c#6 v=86
10842 On ch=1 n=d6 v=0
10860 On ch=1 n=c#7 v=109
10872 On ch=1 n=e6 v=0
10910 On ch=1 n=f#6 v=0
10948 On ch=1 n=c#7 v=0
10996 On ch=1 n=c#6 v=0
10998 On ch=1 n=d5 v=0
11016 On ch=1 n=f#5 v=0
11414 On ch=1 n=b6 v=72
11416 On ch=1 n=b5 v=55
11416 On ch=1 n=c#6 v=75
11424 On ch=1 n=c#5 v=47
11432 On ch=1 n=e5 v=50
11432 On ch=1 n=e6 v=67
11472 On ch=1 n=b5 v=0
11500 On ch=1 n=b6 v=0
11514 On ch=1 n=e5 v=0
11514 On ch=1 n=c#6 v=0
11526 On ch=1 n=e6 v=0
11540 On ch=1 n=c#5 v=0
11928 On ch=1 n=f#4 v=61
11938 On ch=1 n=b3 v=51
11948 On ch=1 n=d6 v=82
11968 Par ch=1 c=64 v=63
11986 Par ch=1 c=64 v=0
12046 Par ch=1 c=64 v=63
12086 Par ch=1 c=64 v=127
12142 On ch=1 n=b3 v=0
12164 On ch=1 n=f#4 v=0
12230 On ch=1 n=e6 v=82
12234 On ch=1 n=d6 v=0
12380 On ch=1 n=e6 v=0
12406 On ch=1 n=a3 v=51
12462 On ch=1 n=d6 v=40
12470 On ch=1 n=e6 v=80
12480 On ch=1 n=e4 v=73
12552 On ch=1 n=b4 v=61
12556 Par ch=1 c=64 v=63
12568 Par ch=1 c=64 v=0
12570 On ch=1 n=g5 v=79
12570 On ch=1 n=f#6 v=100
12594 On ch=1 n=e6 v=0
12680 Par ch=1 c=64 v=63
12696 Par ch=1 c=64 v=127
12738 On ch=1 n=a3 v=0
12802 On ch=1 n=e4 v=0
12834 On ch=1 n=g5 v=0
12860 On ch=1 n=b4 v=0
12960 On ch=1 n=d6 v=0
13172 On ch=1 n=e6 v=90
13178 On ch=1 n=e5 v=46
13182 On ch=1 n=f#6 v=0
13190 On ch=1 n=g5 v=41
13204 On ch=1 n=b5 v=61
13452 On ch=1 n=f#6 v=81
13530 On ch=1 n=e6 v=0
13718 On ch=1 n=f#6 v=0
13722 On ch=1 n=b5 v=0
13754 On ch=1 n=d6 v=77
13774 On ch=1 n=g5 v=0
13836 On ch=1 n=e5 v=0
14008 On ch=1 n=c#6 v=86
14012 On ch=1 n=d6 v=0
14084 On ch=1 n=c#6 v=0
14344 On ch=1 n=a3 v=41
14350 On ch=1 n=c#6 v=63
14362 On ch=1 n=f#5 v=52
14364 On ch=1 n=d5 v=34
14368 On ch=1 n=a5 v=42
14456 Par ch=1 c=64 v=63
14576 Par ch=1 c=64 v=127
14720 On ch=1 n=c#6 v=0
14868 On ch=1 n=d5 v=0
14928 On ch=1 n=d3 v=46
14936 On ch=1 n=d6 v=54
14964 Par ch=1 c=64 v=63
14994 Par ch=1 c=64 v=0
15030 Par ch=1 c=64 v=63
15080 Par ch=1 c=64 v=127
15096 On ch=1 n=a3 v=0
15124 On ch=1 n=d3 v=0
15166 On ch=1 n=f#5 v=0
15196 On ch=1 n=d6 v=0
15232 On ch=1 n=a5 v=0
15470 Par ch=1 c=64 v=63
15556 Par ch=1 c=64 v=0
15630 On ch=1 n=b5 v=53
15652 On ch=1 n=c5 v=50
15666 On ch=1 n=g5 v=33
15668 On ch=1 n=e5 v=29
16204 On ch=1 n=a4 v=51
16264 Par ch=1 c=64 v=63
16284 Par ch=1 c=64 v=127
16420 On ch=1 n=g5 v=0
16498 On ch=1 n=c5 v=0
16546 On ch=1 n=b5 v=0
16572 On ch=1 n=a4 v=0
16592 On ch=1 n=e5 v=0
16800 On ch=1 n=a5 v=50
16818 On ch=1 n=d5 v=32
16824 On ch=1 n=f#5 v=39
16828 On ch=1 n=b4 v=28
16960 Par ch=1 c=64 v=63
17000 Par ch=1 c=64 v=0
17114 On ch=1 n=a5 v=0
17156 On ch=1 n=f#5 v=0
17202 On ch=1 n=d5 v=0
17220 On ch=1 n=b4 v=0
17368 On ch=1 n=d6 v=84
17386 Par ch=1 c=64 v=63
17398 Par ch=1 c=64 v=127
17800 On ch=1 n=d6 v=0
17890 On ch=1 n=e4 v=53
17914 On ch=1 n=b4 v=35
17952 On ch=1 n=d6 v=92
17966 On ch=1 n=f#5 v=72
17980 On ch=1 n=g5 v=63
17984 On ch=1 n=b5 v=71
18084 Par ch=1 c=64 v=63
18116 Par ch=1 c=64 v=127
18254 On ch=1 n=g5 v=0
18258 On ch=1 n=f#5 v=0
18292 On ch=1 n=b5 v=0
18302 On ch=1 n=d6 v=0
18566 On ch=1 n=g6 v=84
18584 On ch=1 n=e5 v=44
18618 On ch=1 n=b4 v=0
18678 On ch=1 n=g6 v=0
18848 On ch=1 n=e4 v=0
18892 On ch=1 n=e5 v=0
19142 On ch=1 n=d6 v=76
19154 On ch=1 n=b5 v=57
19216 Par ch=1 c=64 v=63
19248 Par ch=1 c=64 v=0
19728 On ch=1 n=c4 v=51
19730 On ch=1 n=e5 v=42
19746 On ch=1 n=g4 v=43
19790 Par ch=1 c=64 v=63
19800 Par ch=1 c=64 v=127
19942 On ch=1 n=b5 v=0
19968 On ch=1 n=d6 v=0
20160 On ch=1 n=e5 v=0
20352 On ch=1 n=c6 v=46
20378 On ch=1 n=a5 v=22
20450 On ch=1 n=g4 v=0
20516 On ch=1 n=a5 v=0
20590 On ch=1 n=c6 v=0
20604 On ch=1 n=b5 v=71
20634 On ch=1 n=g5 v=44
20772 On ch=1 n=g5 v=0
20808 On ch=1 n=b5 v=0
20874 On ch=1 n=c4 v=0
20890 On ch=1 n=g5 v=63
20900 On ch=1 n=c5 v=48
20920 On ch=1 n=d4 v=23
20954 Par ch=1 c=64 v=63
20968 On ch=1 n=e5 v=11
21036 Par ch=1 c=64 v=127
21100 On ch=1 n=c5 v=0
21160 On ch=1 n=a5 v=79
21172 On ch=1 n=f#5 v=72
21178 On ch=1 n=d4 v=0
21184 On ch=1 n=g5 v=0
21186 On ch=1 n=e5 v=0
21230 On ch=1 n=f#5 v=0
21244 On ch=1 n=a5 v=0
21468 On ch=1 n=a5 v=70
21474 On ch=1 n=f#5 v=77
21480 On ch=1 n=d4 v=45
21482 On ch=1 n=b4 v=55
21488 On ch=1 n=g3 v=39
21532 Par ch=1 c=64 v=63
21556 Par ch=1 c=64 v=0
21644 Par ch=1 c=64 v=63
21666 Par ch=1 c=64 v=127
21746 On ch=1 n=a5 v=0
21808 On ch=1 n=f#5 v=0
21896 On ch=1 n=b4 v=0
22048 On ch=1 n=b5 v=55
22058 On ch=1 n=g5 v=48
22074 On ch=1 n=g3 v=0
22104 On ch=1 n=d4 v=0
22176 On ch=1 n=g5 v=0
22186 On ch=1 n=b5 v=0
22534 Par ch=1 c=64 v=63
22548 Par ch=1 c=64 v=0
22632 On ch=1 n=d6 v=69
22632 On ch=1 n=f#4 v=58
22652 On ch=1 n=b3 v=51
22740 Par ch=1 c=64 v=63
22750 Par ch=1 c=64 v=127
22778 On ch=1 n=b3 v=0
22820 On ch=1 n=f#4 v=0
22880 On ch=1 n=d6 v=0
22926 On ch=1 n=e6 v=88
23050 On ch=1 n=e6 v=0
23148 On ch=1 n=d6 v=74
23192 On ch=1 n=d5 v=56
23202 On ch=1 n=e6 v=71
23216 On ch=1 n=f#5 v=54
23260 On ch=1 n=f#6 v=88
23262 On ch=1 n=d6 v=0
23280 On ch=1 n=c#7 v=104
23284 On ch=1 n=c#6 v=69
23290 On ch=1 n=e6 v=0
23328 On ch=1 n=f#6 v=0
23358 On ch=1 n=c#7 v=0
23398 On ch=1 n=d5 v=0
23412 On ch=1 n=c#6 v=0
23422 On ch=1 n=f#5 v=0
23866 On ch=1 n=b6 v=71
23870 On ch=1 n=b5 v=59
23882 On ch=1 n=c#6 v=44
23892 On ch=1 n=c#5 v=40
23894 On ch=1 n=e6 v=54
23900 On ch=1 n=e5 v=38
23950 On ch=1 n=b5 v=0
23952 On ch=1 n=c#6 v=0
23988 On ch=1 n=b6 v=0
23996 On ch=1 n=e5 v=0
24022 On ch=1 n=c#5 v=0
24032 On ch=1 n=e6 v=0
24382 Par ch=1 c=64 v=63
24396 Par ch=1 c=64 v=0
24406 On ch=1 n=f#4 v=71
24406 On ch=1 n=b3 v=55
24436 On ch=1 n=d6 v=79
24478 Par ch=1 c=64 v=63
24510 Par ch=1 c=64 v=127
24526 On ch=1 n=b3 v=0
24558 On ch=1 n=f#4 v=0
24612 On ch=1 n=d6 v=0
24654 On ch=1 n=e6 v=96
24772 On ch=1 n=e6 v=0
24852 On ch=1 n=d6 v=84
24894 On ch=1 n=d5 v=58
24896 On ch=1 n=e6 v=81
24920 On ch=1 n=f#5 v=60
24960 On ch=1 n=d6 v=0
24960 On ch=1 n=f#6 v=96
24978 On ch=1 n=c#6 v=75
24986 On ch=1 n=c#7 v=100
24998 On ch=1 n=e6 v=0
25036 On ch=1 n=f#6 v=0
25070 On ch=1 n=c#7 v=0
25104 On ch=1 n=c#6 v=0
25108 On ch=1 n=d5 v=0
25114 On ch=1 n=f#5 v=0
25532 On ch=1 n=b6 v=73
25532 On ch=1 n=b5 v=63
25538 On ch=1 n=c#5 v=70
25542 On ch=1 n=c#6 v=69
25546 On ch=1 n=e6 v=71
25554 On ch=1 n=e5 v=47
25594 On ch=1 n=b5 v=0
25614 On ch=1 n=b6 v=0
25618 On ch=1 n=c#6 v=0
25620 On ch=1 n=e6 v=0
25636 On ch=1 n=e5 v=0
25672 On ch=1 n=c#5 v=0
26078 On ch=1 n=f#4 v=64
26084 Par ch=1 c=64 v=63
26096 On ch=1 n=b3 v=55
26098 On ch=1 n=d6 v=83
26104 Par ch=1 c=64 v=0
26178 Par ch=1 c=64 v=63
26212 Par ch=1 c=64 v=127
26296 On ch=1 n=b3 v=0
26310 On ch=1 n=f#4 v=0
26356 On ch=1 n=e6 v=96
26402 On ch=1 n=d6 v=0
26518 On ch=1 n=e6 v=0
26560 On ch=1 n=a3 v=61
26564 On ch=1 n=d6 v=48
26620 On ch=1 n=e6 v=85
26628 On ch=1 n=e4 v=49
26668 Par ch=1 c=64 v=63
26686 Par ch=1 c=64 v=0
26688 On ch=1 n=b4 v=60
26694 On ch=1 n=g5 v=70
26704 On ch=1 n=f#6 v=101
26730 On ch=1 n=e6 v=0
26792 Par ch=1 c=64 v=63
26808 Par ch=1 c=64 v=127
26864 On ch=1 n=a3 v=0
26932 On ch=1 n=e4 v=0
26946 On ch=1 n=g5 v=0
26992 On ch=1 n=b4 v=0
27110 On ch=1 n=d6 v=0
27282 On ch=1 n=f#6 v=0
27326 On ch=1 n=e6 v=75
27334 On ch=1 n=g5 v=41
27338 On ch=1 n=e5 v=50
27340 On ch=1 n=b5 v=62
27610 On ch=1 n=f#6 v=91
27682 On ch=1 n=e6 v=0
27712 On ch=1 n=b5 v=0
27768 On ch=1 n=g5 v=0
27850 On ch=1 n=e5 v=0
27886 On ch=1 n=d6 v=87
27926 On ch=1 n=f#6 v=0
28120 On ch=1 n=c#6 v=95
28152 On ch=1 n=d6 v=0
28192 On ch=1 n=c#6 v=0
28428 On ch=1 n=a3 v=46
28434 On ch=1 n=c#6 v=76
28452 On ch=1 n=a5 v=57
28458 On ch=1 n=f#5 v=69
28460 On ch=1 n=d5 v=33
28568 Par ch=1 c=64 v=63
28676 Par ch=1 c=64 v=127
28802 On ch=1 n=c#6 v=0
29062 On ch=1 n=d3 v=33
29068 On ch=1 n=d6 v=62
29104 Par ch=1 c=64 v=63
29126 Par ch=1 c=64 v=0
29200 Par ch=1 c=64 v=63
29234 Par ch=1 c=64 v=127
29236 On ch=1 n=d5 v=0
29262 On ch=1 n=a3 v=0
29330 On ch=1 n=d3 v=0
29334 On ch=1 n=d6 v=0
29354 On ch=1 n=f#5 v=0
29378 On ch=1 n=a5 v=0
29858 On ch=1 n=b4 v=67
29864 On ch=1 n=c5 v=51
29888 Par ch=1 c=64 v=63
29928 Par ch=1 c=64 v=0
30042 Par ch=1 c=64 v=63
30072 Par ch=1 c=64 v=127
30150 On ch=1 n=d5 v=51
30166 On ch=1 n=c5 v=0
30350 On ch=1 n=d5 v=0
30446 On ch=1 n=c5 v=41
30470 On ch=1 n=d5 v=35
30562 On ch=1 n=e5 v=50
30564 On ch=1 n=d5 v=0
30672 Par ch=1 c=64 v=63
30716 Par ch=1 c=64 v=0
30820 Par ch=1 c=64 v=63
30868 Par ch=1 c=64 v=127
31098 On ch=1 n=a4 v=59
31212 On ch=1 n=b4 v=0
31406 On ch=1 n=e5 v=0
31656 On ch=1 n=d4 v=71
31672 On ch=1 n=f#5 v=74
31720 On ch=1 n=a4 v=0
31936 On ch=1 n=g5 v=75
31972 On ch=1 n=f#5 v=0
32002 On ch=1 n=c5 v=0
32038 On ch=1 n=d4 v=0
32112 On ch=1 n=g5 v=0
32198 On ch=1 n=f#5 v=79
32218 On ch=1 n=b4 v=51
32248 On ch=1 n=d4 v=60
32268 On ch=1 n=g5 v=70
32332 On ch=1 n=a5 v=80
32386 On ch=1 n=g5 v=0
32422 Par ch=1 c=64 v=63
32470 Par ch=1 c=64 v=0
32652 Par ch=1 c=64 v=63
32698 Par ch=1 c=64 v=127
32834 On ch=1 n=g3 v=86
33014 On ch=1 n=b4 v=0
33122 On ch=1 n=f#5 v=0
33130 On ch=1 n=a5 v=0
33174 On ch=1 n=d4 v=0
33418 On ch=1 n=b5 v=87
33434 On ch=1 n=g5 v=71
33536 On ch=1 n=g3 v=0
33674 On ch=1 n=g5 v=0
33688 On ch=1 n=a5 v=79
33690 On ch=1 n=c#6 v=99
33732 On ch=1 n=b5 v=0
33856 On ch=1 n=a5 v=0
33882 On ch=1 n=c#6 v=0
33952 On ch=1 n=g5 v=84
33972 On ch=1 n=b5 v=70
33976 On ch=1 n=f#5 v=72
34028 On ch=1 n=d6 v=94
34428 On ch=1 n=g5 v=0
34520 On ch=1 n=f#5 v=0
34538 On ch=1 n=d6 v=0
34572 On ch=1 n=d5 v=89
34836 On ch=1 n=e6 v=86
35010 On ch=1 n=e6 v=0
35026 On ch=1 n=d5 v=0
35052 On ch=1 n=b5 v=0
35120 On ch=1 n=c#6 v=88
35132 On ch=1 n=d5 v=97
35138 On ch=1 n=a5 v=47
35188 On ch=1 n=e5 v=9
35358 On ch=1 n=e5 v=0
35394 On ch=1 n=b5 v=84
35454 On ch=1 n=c#6 v=0
35624 On ch=1 n=a5 v=0
35660 On ch=1 n=a4 v=81
35664 On ch=1 n=d5 v=0
35676 On ch=1 n=d6 v=84
35712 On ch=1 n=f#5 v=57
36086 On ch=1 n=f#5 v=0
36118 On ch=1 n=d6 v=0
36194 On ch=1 n=a4 v=0
36234 On ch=1 n=b4 v=77
36504 On ch=1 n=e6 v=71
36614 On ch=1 n=b5 v=0
36728 On ch=1 n=e6 v=0
36796 On ch=1 n=c#6 v=81
36820 On ch=1 n=e5 v=39
36832 On ch=1 n=a5 v=23
37048 On ch=1 n=b5 v=84
37056 On ch=1 n=e5 v=0
37094 On ch=1 n=c#6 v=0
37156 On ch=1 n=a5 v=0
37336 On ch=1 n=g4 v=46
37338 On ch=1 n=d6 v=81
37352 On ch=1 n=f#5 v=63
37486 Par ch=1 c=64 v=63
37524 Par ch=1 c=64 v=0
37746 Par ch=1 c=64 v=63
37772 Par ch=1 c=64 v=127
37908 On ch=1 n=f#5 v=0
37916 On ch=1 n=c#5 v=93
37932 On ch=1 n=d6 v=0
38196 On ch=1 n=e6 v=86
38328 On ch=1 n=b5 v=0
38480 On ch=1 n=d5 v=88
38488 On ch=1 n=c#6 v=96
38500 On ch=1 n=e6 v=0
38556 On ch=1 n=c#5 v=0
38634 On ch=1 n=b4 v=0
38728 On ch=1 n=b5 v=89
38774 On ch=1 n=c#6 v=0
38808 On ch=1 n=b5 v=0
38848 On ch=1 n=d5 v=0
39040 On ch=1 n=a5 v=77
39042 On ch=1 n=e5 v=65
39060 On ch=1 n=c#5 v=70
39170 Par ch=1 c=64 v=63
39224 Par ch=1 c=64 v=0
39270 Par ch=1 c=64 v=63
39298 On ch=1 n=b5 v=73
39316 Par ch=1 c=64 v=127
39354 On ch=1 n=a5 v=0
39418 On ch=1 n=c#5 v=0
39446 On ch=1 n=e5 v=0
39500 On ch=1 n=b5 v=0
39584 On ch=1 n=b4 v=52
39586 On ch=1 n=f#5 v=82
39606 Par ch=1 c=64 v=63
39636 On ch=1 n=d5 v=60
39648 Par ch=1 c=64 v=0
39718 Par ch=1 c=64 v=63
39772 Par ch=1 c=64 v=127
39898 On ch=1 n=g4 v=0
40166 On ch=1 n=c#5 v=69
40178 On ch=1 n=a4 v=53
40202 On ch=1 n=f#4 v=55
40208 Par ch=1 c=64 v=63
40224 On ch=1 n=d5 v=0
40244 Par ch=1 c=64 v=0
40252 On ch=1 n=b4 v=0
40316 Par ch=1 c=64 v=63
40356 Par ch=1 c=64 v=127
40442 On ch=1 n=c#5 v=0
40738 On ch=1 n=a5 v=64
40746 On ch=1 n=c#5 v=55
40752 On ch=1 n=f#5 v=0
40754 Par ch=1 c=64 v=63
40766 On ch=1 n=e5 v=51
40840 Par ch=1 c=64 v=127
40894 On ch=1 n=a5 v=0
40924 On ch=1 n=c#5 v=0
41026 On ch=1 n=b5 v=68
41030 On ch=1 n=f#4 v=0
41050 On ch=1 n=e5 v=0
41106 On ch=1 n=a4 v=0
41126 On ch=1 n=b5 v=0
41326 On ch=1 n=d#5 v=65
41328 On ch=1 n=f#5 v=67
41328 On ch=1 n=b4 v=48
41330 On ch=1 n=b3 v=46
41406 Par ch=1 c=64 v=63
41438 Par ch=1 c=64 v=0
41470 Par ch=1 c=64 v=63
41526 Par ch=1 c=64 v=127
41640 On ch=1 n=b4 v=0
41944 On ch=1 n=c#5 v=53
41968 On ch=1 n=a4 v=37
42082 On ch=1 n=d#5 v=0
42208 On ch=1 n=a4 v=0
42208 On ch=1 n=b3 v=0
42256 On ch=1 n=c#5 v=0
42272 On ch=1 n=f#5 v=0
42648 On ch=1 n=a5 v=41
42648 On ch=1 n=e3 v=52
42650 On ch=1 n=c#5 v=36
42674 On ch=1 n=e5 v=45
42758 Par ch=1 c=64 v=63
42796 Par ch=1 c=64 v=0
42882 Par ch=1 c=64 v=63
42916 Par ch=1 c=64 v=127
42974 On ch=1 n=b5 v=54
43028 On ch=1 n=a5 v=0
43180 On ch=1 n=b5 v=0
43286 On ch=1 n=b3 v=57
43288 On ch=1 n=f#5 v=76
43290 On ch=1 n=e3 v=0
43566 On ch=1 n=c#5 v=0
43626 On ch=1 n=e5 v=0
43644 On ch=1 n=f#5 v=0
43854 On ch=1 n=g5 v=69
43864 On ch=1 n=b4 v=69
43866 On ch=1 n=d#5 v=50
43968 On ch=1 n=b3 v=0
44086 On ch=1 n=d#5 v=0
44148 On ch=1 n=a5 v=76
44194 On ch=1 n=g5 v=0
44272 On ch=1 n=a5 v=0
44518 On ch=1 n=g5 v=73
44542 On ch=1 n=d5 v=90
44548 On ch=1 n=a5 v=67
44656 On ch=1 n=b5 v=68
44676 On ch=1 n=a5 v=0
44996 On ch=1 n=g5 v=0
45202 On ch=1 n=g5 v=90
45408 On ch=1 n=b5 v=0
45648 On ch=1 n=g5 v=0
45770 On ch=1 n=g5 v=94
45780 On ch=1 n=c#6 v=89
45816 On ch=1 n=d5 v=0
45866 On ch=1 n=b4 v=0
46010 On ch=1 n=d6 v=93
46018 On ch=1 n=c#6 v=0
46028 On ch=1 n=g5 v=0
46158 On ch=1 n=d5 v=79
46160 On ch=1 n=d6 v=0
46222 On ch=1 n=g5 v=65
46234 On ch=1 n=c#6 v=88
46280 On ch=1 n=d6 v=83
46308 On ch=1 n=c#6 v=0
46356 On ch=1 n=e6 v=101
46386 On ch=1 n=c#6 v=97
46408 On ch=1 n=d6 v=0
46912 On ch=1 n=c#6 v=0
46970 On ch=1 n=b5 v=97
46978 On ch=1 n=e6 v=0
47028 On ch=1 n=d5 v=0
47552 On ch=1 n=f#6 v=101
47812 On ch=1 n=g6 v=106
47864 On ch=1 n=f#6 v=0
47932 On ch=1 n=g5 v=0
47970 On ch=1 n=b5 v=0
48066 On ch=1 n=c#5 v=87
48096 On ch=1 n=g6 v=0
48098 On ch=1 n=f5 v=75
48116 On ch=1 n=f#6 v=82
48190 On ch=1 n=g6 v=88
48200 On ch=1 n=b5 v=79
48220 On ch=1 n=f#6 v=0
48244 On ch=1 n=g#6 v=109
48276 Par ch=1 c=64 v=63
48288 Par ch=1 c=64 v=0
48312 On ch=1 n=g6 v=0
48470 Par ch=1 c=64 v=63
48480 Par ch=1 c=64 v=127
48904 On ch=1 n=d#6 v=88
49132 On ch=1 n=b5 v=0
49150 On ch=1 n=f5 v=0
49196 On ch=1 n=c#5 v=0
49196 On ch=1 n=a#6 v=103
49230 On ch=1 n=d#6 v=0
49276 On ch=1 n=g#6 v=0
49480 On ch=1 n=f6 v=90
49484 On ch=1 n=a#6 v=0
49494 On ch=1 n=d#6 v=109
49566 On ch=1 n=d#6 v=0
49754 On ch=1 n=d#6 v=105
49774 On ch=1 n=f6 v=0
50072 On ch=1 n=a#5 v=88
50088 On ch=1 n=g#6 v=108
50618 On ch=1 n=b5 v=96
50676 On ch=1 n=a#5 v=0
50796 On ch=1 n=d#6 v=0
50910 On ch=1 n=a#6 v=100
50914 On ch=1 n=b5 v=0
50992 On ch=1 n=g#6 v=0
51160 On ch=1 n=a#6 v=0
51196 On ch=1 n=f6 v=84
51432 On ch=1 n=d#6 v=94
51444 On ch=1 n=f6 v=0
51526 On ch=1 n=d#6 v=0
51730 On ch=1 n=c#4 v=62
51784 On ch=1 n=d6 v=59
51786 On ch=1 n=g6 v=78
51800 On ch=1 n=b5 v=64
51808 On ch=1 n=g5 v=45
51986 Par ch=1 c=64 v=63
52006 Par ch=1 c=64 v=0
52152 Par ch=1 c=64 v=63
52166 Par ch=1 c=64 v=127
52396 On ch=1 n=d5 v=86
52444 On ch=1 n=g5 v=0
52478 On ch=1 n=g6 v=0
52522 On ch=1 n=b5 v=0
52672 On ch=1 n=d6 v=0
52700 On ch=1 n=a6 v=84
52736 On ch=1 n=d5 v=0
52982 On ch=1 n=f#6 v=81
52986 On ch=1 n=d5 v=71
52992 On ch=1 n=a6 v=0
53240 On ch=1 n=e6 v=76
53258 On ch=1 n=d5 v=0
53302 On ch=1 n=f#6 v=0
53344 On ch=1 n=e6 v=0
53546 On ch=1 n=a4 v=72
53580 On ch=1 n=d6 v=49
53582 On ch=1 n=g6 v=58
53594 On ch=1 n=b5 v=51
53598 On ch=1 n=g5 v=23
53788 Par ch=1 c=64 v=63
53812 Par ch=1 c=64 v=0
53918 Par ch=1 c=64 v=63
53940 Par ch=1 c=64 v=127
54156 On ch=1 n=g5 v=0
54166 On ch=1 n=b4 v=80
54216 On ch=1 n=a4 v=0
54266 On ch=1 n=g6 v=0
54334 On ch=1 n=b5 v=0
54436 On ch=1 n=d6 v=0
54466 On ch=1 n=a6 v=80
54764 On ch=1 n=f#6 v=72
54814 On ch=1 n=a6 v=0
55024 On ch=1 n=c#4 v=0
55026 On ch=1 n=b4 v=0
55048 On ch=1 n=e6 v=59
55132 On ch=1 n=f#6 v=0
55340 On ch=1 n=c#4 v=37
55396 On ch=1 n=c#6 v=70
55406 On ch=1 n=g#5 v=53
55418 On ch=1 n=b4 v=37
55426 On ch=1 n=e6 v=0
55446 Par ch=1 c=64 v=63
55464 Par ch=1 c=64 v=0
55536 Par ch=1 c=64 v=63
55564 Par ch=1 c=64 v=127
55684 On ch=1 n=b4 v=0
55786 On ch=1 n=c#4 v=0
55892 On ch=1 n=c#6 v=0
56012 On ch=1 n=d#5 v=65
56240 On ch=1 n=g#5 v=0
56288 On ch=1 n=a#5 v=50
56292 On ch=1 n=d#6 v=66
56326 On ch=1 n=d#5 v=0
56572 On ch=1 n=d#5 v=58
56582 On ch=1 n=a#5 v=0
56584 On ch=1 n=d#6 v=0
56588 On ch=1 n=f5 v=56
56708 On ch=1 n=d#5 v=0
56864 On ch=1 n=d#5 v=73
56894 On ch=1 n=f5 v=0
57110 On ch=1 n=d#5 v=0
57148 On ch=1 n=c#6 v=57
57148 On ch=1 n=a#4 v=56
57152 On ch=1 n=g#5 v=57
57534 On ch=1 n=g#5 v=0
57538 On ch=1 n=c#6 v=0
57708 On ch=1 n=b4 v=47
57732 On ch=1 n=a#4 v=0
57988 On ch=1 n=a#5 v=55
57994 On ch=1 n=d#6 v=54
58056 On ch=1 n=b4 v=0
58252 On ch=1 n=d#6 v=0
58280 On ch=1 n=a#5 v=0
58324 On ch=1 n=f5 v=48
58626 On ch=1 n=d#5 v=46
58636 On ch=1 n=f5 v=0
58720 On ch=1 n=d#5 v=0
59028 On ch=1 n=a#4 v=51
59034 On ch=1 n=c5 v=63
59042 On ch=1 n=f#3 v=46
59054 On ch=1 n=g5 v=55
59090 On ch=1 n=e5 v=54
59112 Par ch=1 c=67 v=127
59170 Par ch=1 c=64 v=63
59194 Par ch=1 c=64 v=0
59304 Par ch=1 c=64 v=63
59320 Par ch=1 c=64 v=127
59468 On ch=1 n=f#3 v=0
59576 On ch=1 n=a#4 v=0
59690 On ch=1 n=g5 v=0
59768 On ch=1 n=e5 v=0
59784 On ch=1 n=g4 v=58
60066 On ch=1 n=c5 v=0
60090 On ch=1 n=a5 v=58
60238 On ch=1 n=g4 v=0
60366 On ch=1 n=a5 v=0
60366 On ch=1 n=f#5 v=78
60370 On ch=1 n=g4 v=53
60628 On ch=1 n=e5 v=76
60668 On ch=1 n=f#5 v=0
60900 On ch=1 n=g4 v=0
60936 On ch=1 n=a#4 v=47
60942 On ch=1 n=d4 v=67
60950 On ch=1 n=g5 v=58
60956 On ch=1 n=c5 v=43
61288 On ch=1 n=a#4 v=0
61348 On ch=1 n=g5 v=0
61410 On ch=1 n=d4 v=0
61550 On ch=1 n=e4 v=76
61832 On ch=1 n=c5 v=0
61836 On ch=1 n=a5 v=59
61892 On ch=1 n=e5 v=0
62148 On ch=1 n=f#5 v=80
62154 On ch=1 n=a5 v=0
62410 On ch=1 n=e5 v=68
62456 On ch=1 n=f#5 v=0
62684 On ch=1 n=f#3 v=53
62716 On ch=1 n=g5 v=68
62718 On ch=1 n=a#4 v=58
62788 Par ch=1 c=64 v=63
62810 Par ch=1 c=64 v=0
62888 Par ch=1 c=64 v=63
62912 Par ch=1 c=64 v=127
63038 On ch=1 n=e4 v=0
63232 On ch=1 n=a#4 v=0
63330 On ch=1 n=g5 v=0
63372 On ch=1 n=g4 v=58
63390 On ch=1 n=f#3 v=0
63616 Par ch=1 c=67 v=127
63680 On ch=1 n=a5 v=54
63740 On ch=1 n=e5 v=0
63962 On ch=1 n=a#4 v=62
63974 On ch=1 n=f#5 v=73
63978 On ch=1 n=a5 v=0
64114 On ch=1 n=g4 v=0
64236 On ch=1 n=e5 v=78
64372 On ch=1 n=f#5 v=0
64408 On ch=1 n=e5 v=0
64492 On ch=1 n=c5 v=57
64508 On ch=1 n=g5 v=71
64516 On ch=1 n=e5 v=43
64580 On ch=1 n=a#4 v=0
64776 On ch=1 n=c5 v=0
64800 On ch=1 n=e5 v=0
64802 On ch=1 n=g5 v=0
64806 On ch=1 n=a5 v=61
65022 On ch=1 n=a5 v=0
65056 On ch=1 n=f#5 v=80
65070 On ch=1 n=a#4 v=60
65096 On ch=1 n=c5 v=38
65176 On ch=1 n=a#4 v=0
65258 On ch=1 n=c5 v=0
65316 On ch=1 n=e5 v=73
65322 On ch=1 n=f#5 v=0
65416 On ch=1 n=e5 v=0
65590 On ch=1 n=d#5 v=70
65596 On ch=1 n=g4 v=38
65614 On ch=1 n=a#4 v=44
65800 On ch=1 n=g4 v=0
65836 On ch=1 n=d#5 v=0
65848 On ch=1 n=a#4 v=0
65866 On ch=1 n=e5 v=54
66132 On ch=1 n=e5 v=0
66146 On ch=1 n=d5 v=74
66146 On ch=1 n=g4 v=45
66150 On ch=1 n=e4 v=40
66352 On ch=1 n=d5 v=0
66406 On ch=1 n=c5 v=73
66434 On ch=1 n=e4 v=0
66502 On ch=1 n=c5 v=0
66544 On ch=1 n=g4 v=0
66690 On ch=1 n=g4 v=65
66710 On ch=1 n=e4 v=52
66712 On ch=1 n=a#3 v=53
66932 On ch=1 n=a#3 v=0
66974 On ch=1 n=a4 v=56
66980 On ch=1 n=g4 v=0
67018 On ch=1 n=e4 v=0
67260 On ch=1 n=a4 v=0
67284 On ch=1 n=f#3 v=46
67292 On ch=1 n=d4 v=48
67294 On ch=1 n=e4 v=44
67382 Par ch=1 c=64 v=63
67428 Par ch=1 c=64 v=127
67630 On ch=1 n=c4 v=47
67680 On ch=1 n=f#3 v=0
67702 On ch=1 n=d4 v=0
68044 On ch=1 n=c4 v=0
68138 On ch=1 n=b2 v=46
68142 On ch=1 n=e4 v=0
68156 Par ch=1 c=64 v=63
68168 Par ch=1 c=64 v=127
68500 Par ch=1 c=64 v=63
68558 Par ch=1 c=64 v=0
68934 On ch=1 n=b3 v=47
69074 Par ch=1 c=64 v=63
69086 Par ch=1 c=64 v=127
69200 Par ch=1 c=67 v=0
69306 On ch=1 n=b2 v=0
69392 On ch=1 n=b3 v=0
69724 On ch=1 n=a#4 v=56
69748 On ch=1 n=d7 v=82
69754 On ch=1 n=d6 v=55
69762 On ch=1 n=d#4 v=53
69764 On ch=1 n=f#6 v=69
69770 On ch=1 n=a6 v=60
69780 On ch=1 n=a4 v=32
70322 On ch=1 n=b4 v=76
70362 On ch=1 n=a#4 v=0
70428 On ch=1 n=d7 v=0
70466 On ch=1 n=a6 v=0
70516 On ch=1 n=f#6 v=0
70548 On ch=1 n=d6 v=0
70682 On ch=1 n=a4 v=0
70716 On ch=1 n=d#4 v=0
70750 On ch=1 n=b4 v=0
70902 On ch=1 n=a#4 v=73
70906 On ch=1 n=c5 v=73
70918 On ch=1 n=c7 v=72
70920 On ch=1 n=c6 v=62
70926 On ch=1 n=g6 v=63
70928 On ch=1 n=e6 v=68
70934 On ch=1 n=e4 v=58
71060 On ch=1 n=c7 v=0
71082 On ch=1 n=g6 v=0
71092 On ch=1 n=e6 v=0
71112 On ch=1 n=c6 v=0
71220 On ch=1 n=a#4 v=0
71226 On ch=1 n=c5 v=0
71470 On ch=1 n=e4 v=0
71490 On ch=1 n=b4 v=63
71492 On ch=1 n=c#5 v=85
71496 On ch=1 n=g6 v=82
71500 On ch=1 n=g5 v=71
71504 On ch=1 n=b5 v=76
71506 On ch=1 n=e6 v=76
71538 On ch=1 n=f4 v=39
71868 On ch=1 n=c#5 v=0
72096 On ch=1 n=d5 v=91
72126 On ch=1 n=g6 v=0
72166 On ch=1 n=g5 v=0
72174 On ch=1 n=b5 v=0
72184 On ch=1 n=e6 v=0
72254 On ch=1 n=b4 v=0
72356 On ch=1 n=d5 v=0
72424 On ch=1 n=f4 v=0
72628 On ch=1 n=d#5 v=95
72644 On ch=1 n=c5 v=65
72648 On ch=1 n=f#6 v=83
72650 On ch=1 n=f#4 v=67
72654 On ch=1 n=d#6 v=83
72658 On ch=1 n=a5 v=67
72664 On ch=1 n=f#5 v=62
72680 On ch=1 n=c5 v=0
72686 On ch=1 n=d#5 v=0
72730 On ch=1 n=f#4 v=0
72818 On ch=1 n=a5 v=0
72826 On ch=1 n=f#5 v=0
72854 On ch=1 n=d#6 v=0
72878 On ch=1 n=f#6 v=0
72910 On ch=1 n=b2 v=103
72994 On ch=1 n=b2 v=0
73262 On ch=1 n=d5 v=80
73264 On ch=1 n=d#5 v=91
73268 On ch=1 n=c7 v=89
73274 On ch=1 n=g6 v=75
73274 On ch=1 n=e6 v=71
73284 On ch=1 n=g#4 v=70
73288 On ch=1 n=c6 v=44
73842 On ch=1 n=d#5 v=0
73848 On ch=1 n=e5 v=100
73984 On ch=1 n=c7 v=0
73998 On ch=1 n=g6 v=0
74030 On ch=1 n=e6 v=0
74062 On ch=1 n=c6 v=0
74140 On ch=1 n=d5 v=0
74324 On ch=1 n=e5 v=0
74382 On ch=1 n=g#4 v=0
74412 On ch=1 n=b6 v=79
74414 On ch=1 n=f6 v=86
74418 On ch=1 n=b5 v=71
74422 On ch=1 n=d#6 v=89
74422 On ch=1 n=d#5 v=95
74426 On ch=1 n=f5 v=97
74446 On ch=1 n=a4 v=77
74528 On ch=1 n=b6 v=0
74550 On ch=1 n=f6 v=0
74562 On ch=1 n=d#6 v=0
74574 On ch=1 n=b5 v=0
74688 On ch=1 n=a4 v=0
74688 On ch=1 n=f5 v=0
74702 On ch=1 n=d#5 v=0
74982 On ch=1 n=e6 v=97
74990 On ch=1 n=g5 v=83
74992 On ch=1 n=b5 v=85
74998 On ch=1 n=f5 v=75
75000 On ch=1 n=e5 v=77
75004 On ch=1 n=b4 v=69
75312 On ch=1 n=g5 v=0
75590 On ch=1 n=g#5 v=100
75738 On ch=1 n=e6 v=0
75776 On ch=1 n=g#5 v=0
75778 On ch=1 n=e5 v=0
75784 On ch=1 n=f5 v=0
75868 On ch=1 n=b5 v=0
76064 On ch=1 n=b4 v=0
76132 On ch=1 n=f#5 v=105
76142 On ch=1 n=d6 v=93
76146 On ch=1 n=a5 v=84
76152 On ch=1 n=d5 v=78
76180 On ch=1 n=c5 v=48
76192 On ch=1 n=f#5 v=0
76226 On ch=1 n=c5 v=0
76370 On ch=1 n=d5 v=0
76406 On ch=1 n=b2 v=101
76424 On ch=1 n=a5 v=0
76452 On ch=1 n=d6 v=0
76458 On ch=1 n=b2 v=0
76770 On ch=1 n=b6 v=98
76774 On ch=1 n=b5 v=90
76778 On ch=1 n=f#6 v=92
76786 On ch=1 n=d#5 v=56
76800 On ch=1 n=a5 v=72
77286 On ch=1 n=b5 v=0
77372 On ch=1 n=c6 v=103
77628 On ch=1 n=b6 v=0
77760 On ch=1 n=a5 v=0
77866 On ch=1 n=f#6 v=0
77938 On ch=1 n=g6 v=86
77940 On ch=1 n=a6 v=89
77942 On ch=1 n=c#6 v=88
77944 On ch=1 n=a5 v=73
77946 On ch=1 n=e5 v=77
77956 On ch=1 n=d#5 v=0
78002 On ch=1 n=c6 v=0
78190 On ch=1 n=a6 v=0
78194 On ch=1 n=g6 v=0
78260 On ch=1 n=c#6 v=0
78322 On ch=1 n=a5 v=0
78446 On ch=1 n=e5 v=0
78550 On ch=1 n=d6 v=86
78566 On ch=1 n=c6 v=80
78570 On ch=1 n=f#5 v=83
78688 On ch=1 n=f#5 v=0
78922 On ch=1 n=c6 v=0
79068 On ch=1 n=d6 v=0
79176 On ch=1 n=b2 v=91
79182 On ch=1 n=d6 v=91
79192 On ch=1 n=b5 v=85
79196 On ch=1 n=a5 v=75
79366 Par ch=1 c=64 v=63
79382 Par ch=1 c=64 v=0
79522 Par ch=1 c=64 v=63
79536 Par ch=1 c=64 v=127
79618 On ch=1 n=a5 v=0
79800 On ch=1 n=g6 v=80
79808 On ch=1 n=g5 v=57
79870 On ch=1 n=d6 v=0
80022 On ch=1 n=g6 v=0
80092 On ch=1 n=b5 v=0
80102 On ch=1 n=g5 v=0
80400 On ch=1 n=d6 v=92
80418 On ch=1 n=f#5 v=77
80420 On ch=1 n=b5 v=63
80520 On ch=1 n=b2 v=0
80762 On ch=1 n=f#5 v=0
80982 Par ch=1 c=64 v=63
81008 Par ch=1 c=64 v=127
81020 On ch=1 n=a2 v=85
81030 On ch=1 n=e5 v=60
81182 Par ch=1 c=64 v=63
81210 Par ch=1 c=64 v=0
81314 Par ch=1 c=64 v=63
81332 Par ch=1 c=64 v=127
81450 On ch=1 n=b5 v=0
81476 On ch=1 n=d6 v=0
81686 On ch=1 n=a5 v=63
81688 On ch=1 n=c6 v=65
81972 On ch=1 n=b5 v=78
81976 On ch=1 n=g5 v=78
82008 On ch=1 n=a5 v=0
82022 On ch=1 n=c6 v=0
82086 On ch=1 n=e5 v=0
82122 On ch=1 n=b5 v=0
82132 On ch=1 n=g5 v=0
82194 On ch=1 n=a2 v=0
82236 Par ch=1 c=64 v=63
82248 Par ch=1 c=64 v=0
82250 On ch=1 n=g5 v=74
82266 On ch=1 n=c5 v=68
82266 On ch=1 n=e5 v=69
82268 On ch=1 n=d3 v=62
82354 Par ch=1 c=64 v=63
82366 Par ch=1 c=64 v=63
82382 Par ch=1 c=64 v=0
82388 Par ch=1 c=64 v=127
82466 Par ch=1 c=64 v=63
82500 Par ch=1 c=64 v=127
82552 On ch=1 n=f#5 v=71
82556 On ch=1 n=a5 v=74
82608 On ch=1 n=g5 v=0
82758 On ch=1 n=c5 v=0
82762 On ch=1 n=d3 v=0
82774 On ch=1 n=e5 v=0
82790 On ch=1 n=a5 v=0
82822 On ch=1 n=f#5 v=0
82880 Par ch=1 c=64 v=63
82896 On ch=1 n=f#5 v=72
82904 On ch=1 n=a5 v=72
82910 On ch=1 n=g2 v=64
82918 On ch=1 n=b4 v=59
82934 Par ch=1 c=64 v=127
82980 Par ch=1 c=64 v=63
82996 Par ch=1 c=64 v=0
83128 Par ch=1 c=64 v=63
83144 Par ch=1 c=64 v=127
83224 On ch=1 n=a5 v=0
83278 On ch=1 n=f#5 v=0
83380 On ch=1 n=b4 v=0
83452 On ch=1 n=g2 v=0
83494 On ch=1 n=b5 v=59
83498 On ch=1 n=g5 v=50
83628 On ch=1 n=g5 v=0
83652 On ch=1 n=b5 v=0
83996 On ch=1 n=g3 v=58
84020 Par ch=1 c=64 v=63
84026 Par ch=1 c=64 v=0
84044 On ch=1 n=d4 v=70
84076 On ch=1 n=f6 v=104
84212 Par ch=1 c=64 v=63
84216 Par ch=1 c=64 v=127
84330 On ch=1 n=g3 v=0
84332 On ch=1 n=f6 v=0
84350 On ch=1 n=g6 v=108
84362 On ch=1 n=d4 v=0
84506 On ch=1 n=g6 v=0
84576 On ch=1 n=f6 v=96
84646 On ch=1 n=g6 v=82
84666 On ch=1 n=f6 v=0
84716 On ch=1 n=g6 v=0
84742 On ch=1 n=f5 v=81
84746 On ch=1 n=b4 v=71
84752 On ch=1 n=a5 v=80
84760 On ch=1 n=e7 v=103
84762 On ch=1 n=e6 v=98
84782 On ch=1 n=a6 v=76
84824 On ch=1 n=a6 v=0
84832 On ch=1 n=e6 v=0
84856 On ch=1 n=e7 v=0
84882 On ch=1 n=b4 v=0
84894 On ch=1 n=f5 v=0
84944 On ch=1 n=a5 v=0
85338 On ch=1 n=d7 v=97
85344 On ch=1 n=b5 v=76
85346 On ch=1 n=d6 v=83
85352 On ch=1 n=g5 v=65
85354 On ch=1 n=g6 v=88
85358 On ch=1 n=d5 v=55
85402 On ch=1 n=b5 v=0
85412 On ch=1 n=g5 v=0
85414 On ch=1 n=d6 v=0
85432 On ch=1 n=g6 v=0
85434 On ch=1 n=d7 v=0
85460 On ch=1 n=d5 v=0
85854 On ch=1 n=g3 v=77
85898 Par ch=1 c=64 v=63
85910 Par ch=1 c=64 v=0
85922 On ch=1 n=d4 v=87
85940 On ch=1 n=f6 v=99
86068 Par ch=1 c=64 v=63
86072 Par ch=1 c=64 v=127
86108 On ch=1 n=g3 v=0
86140 On ch=1 n=d4 v=0
86160 On ch=1 n=f6 v=0
86206 On ch=1 n=g6 v=99
86328 On ch=1 n=g6 v=0
86392 On ch=1 n=f6 v=92
86434 On ch=1 n=g6 v=83
86474 On ch=1 n=f6 v=0
86506 On ch=1 n=g6 v=0
86536 On ch=1 n=b4 v=71
86546 On ch=1 n=a6 v=109
86546 On ch=1 n=f5 v=82
86552 On ch=1 n=a5 v=73
86556 On ch=1 n=e6 v=111
86572 On ch=1 n=e7 v=76
86618 On ch=1 n=e6 v=0
86624 On ch=1 n=f5 v=0
86624 On ch=1 n=a6 v=0
86636 On ch=1 n=b4 v=0
86644 On ch=1 n=e7 v=0
86662 On ch=1 n=a5 v=0
87128 On ch=1 n=d7 v=97
87130 On ch=1 n=b5 v=75
87144 On ch=1 n=g6 v=78
87144 On ch=1 n=d5 v=60
87146 On ch=1 n=g5 v=50
87148 On ch=1 n=d6 v=65
87172 On ch=1 n=b5 v=0
87194 On ch=1 n=d6 v=0
87198 On ch=1 n=g5 v=0
87218 On ch=1 n=d7 v=0
87220 On ch=1 n=g6 v=0
87228 On ch=1 n=d5 v=0
87514 Par ch=1 c=64 v=63
87524 On ch=1 n=c4 v=69
87530 Par ch=1 c=64 v=0
87574 On ch=1 n=g4 v=78
87654 Par ch=1 c=64 v=63
87664 On ch=1 n=c4 v=0
87664 Par ch=1 c=64 v=127
87672 On ch=1 n=c7 v=101
87678 On ch=1 n=c6 v=99
87718 On ch=1 n=e5 v=73
87756 On ch=1 n=c7 v=0
87910 On ch=1 n=c6 v=0
87944 On ch=1 n=d6 v=98
87994 On ch=1 n=e5 v=0
88016 On ch=1 n=d6 v=0
88110 On ch=1 n=e4 v=62
88138 On ch=1 n=g4 v=0
88226 On ch=1 n=d5 v=67
88258 On ch=1 n=c6 v=90
88270 On ch=1 n=g#5 v=90
88292 On ch=1 n=d6 v=86
88346 Par ch=1 c=64 v=63
88354 Par ch=1 c=64 v=0
88362 On ch=1 n=e6 v=86
88492 On ch=1 n=d6 v=0
88546 Par ch=1 c=64 v=63
88556 Par ch=1 c=64 v=127
88810 On ch=1 n=g#5 v=0
88878 On ch=1 n=c6 v=0
88884 On ch=1 n=e6 v=0
88932 On ch=1 n=f#5 v=75
88936 On ch=1 n=b5 v=76
88948 On ch=1 n=d5 v=0
89060 On ch=1 n=e4 v=0
89086 On ch=1 n=f#5 v=0
89138 On ch=1 n=b5 v=0
89218 On ch=1 n=c6 v=81
89380 On ch=1 n=c6 v=0
89450 On ch=1 n=a3 v=65
89514 On ch=1 n=e5 v=68
89524 On ch=1 n=c5 v=59
89538 On ch=1 n=g4 v=48
89602 Par ch=1 c=64 v=63
89612 Par ch=1 c=64 v=0
89656 Par ch=1 c=64 v=63
89684 Par ch=1 c=64 v=127
89742 On ch=1 n=a3 v=0
89788 On ch=1 n=g5 v=88
89812 On ch=1 n=c5 v=0
89814 On ch=1 n=g4 v=0
89828 On ch=1 n=e5 v=0
89876 On ch=1 n=g5 v=0
90052 On ch=1 n=e4 v=55
90152 On ch=1 n=d5 v=55
90166 On ch=1 n=e6 v=63
90172 On ch=1 n=c6 v=70
90178 On ch=1 n=g#5 v=56
90274 Par ch=1 c=64 v=63
90292 Par ch=1 c=64 v=0
90382 Par ch=1 c=64 v=63
90402 Par ch=1 c=64 v=127
90556 On ch=1 n=g#5 v=0
90610 On ch=1 n=e6 v=0
90680 On ch=1 n=c6 v=0
90800 On ch=1 n=b5 v=71
90802 On ch=1 n=d5 v=0
90818 On ch=1 n=f#5 v=57
90946 On ch=1 n=e4 v=0
90986 On ch=1 n=f#5 v=0
91060 On ch=1 n=b5 v=0
91124 On ch=1 n=c6 v=72
91264 On ch=1 n=c6 v=0
91392 On ch=1 n=a3 v=35
91480 On ch=1 n=e5 v=65
91498 On ch=1 n=c5 v=41
91502 On ch=1 n=g4 v=37
91548 Par ch=1 c=64 v=63
91560 Par ch=1 c=64 v=0
91624 Par ch=1 c=64 v=63
91654 Par ch=1 c=64 v=127
91832 On ch=1 n=g4 v=0
91850 On ch=1 n=c5 v=0
91856 On ch=1 n=g5 v=57
91908 On ch=1 n=e5 v=0
91928 On ch=1 n=a3 v=0
92328 On ch=1 n=d#3 v=58
92356 On ch=1 n=g5 v=0
92400 On ch=1 n=c6 v=61
92406 On ch=1 n=c#5 v=49
92422 On ch=1 n=f5 v=52
92498 Par ch=1 c=64 v=63
92508 Par ch=1 c=64 v=0
92642 Par ch=1 c=64 v=63
92652 Par ch=1 c=64 v=127
92842 On ch=1 n=d#3 v=0
93152 On ch=1 n=c6 v=0
93160 On ch=1 n=g4 v=66
93162 On ch=1 n=a#5 v=65
93506 On ch=1 n=c6 v=78
93532 On ch=1 n=f5 v=0
93610 On ch=1 n=a#5 v=0
93660 On ch=1 n=c6 v=0
93734 On ch=1 n=c#5 v=0
93812 On ch=1 n=g4 v=0
93842 On ch=1 n=g#3 v=66
93848 On ch=1 n=d#5 v=94
93866 On ch=1 n=c5 v=65
94220 On ch=1 n=c5 v=0
94312 On ch=1 n=g#3 v=0
94388 On ch=1 n=d#5 v=0
94522 On ch=1 n=d3 v=65
94586 On ch=1 n=e5 v=79
94592 On ch=1 n=b4 v=57
94606 On ch=1 n=c5 v=57
94730 Par ch=1 c=64 v=63
94738 Par ch=1 c=64 v=0
94840 Par ch=1 c=64 v=63
94852 Par ch=1 c=64 v=127
94932 On ch=1 n=d3 v=0
95316 On ch=1 n=a4 v=66
95496 On ch=1 n=b4 v=0
95586 On ch=1 n=c5 v=0
95688 On ch=1 n=a4 v=0
95950 On ch=1 n=e5 v=0
96012 On ch=1 n=f#5 v=76
96014 On ch=1 n=d4 v=58
96046 On ch=1 n=d5 v=51
96468 On ch=1 n=d4 v=0
96482 On ch=1 n=d5 v=0
96566 On ch=1 n=f#5 v=0
96792 On ch=1 n=f#5 v=65
96816 On ch=1 n=d4 v=42
96824 On ch=1 n=d5 v=48
96826 On ch=1 n=b4 v=44
97508 On ch=1 n=g3 v=52
97574 Par ch=1 c=64 v=63
97690 Par ch=1 c=64 v=127
98006 On ch=1 n=d4 v=0
98278 On ch=1 n=f#5 v=0
98382 On ch=1 n=g5 v=55
98902 On ch=1 n=g3 v=0
99580 On ch=1 n=g2 v=30
101740 On ch=1 n=g2 v=0
101744 On ch=1 n=b4 v=0
101748 On ch=1 n=g5 v=0
101754 On ch=1 n=d5 v=0
101804 Par ch=1 c=64 v=63
101870 Par ch=1 c=64 v=0
101870 Meta TrkEnd
TrkEnd
