MFile 1 2 480
MTrk
0 Tempo 500000
0 TimeSig 3/4 24 8
0 Meta TrkEnd
TrkEnd
MTrk
0 SeqSpec 43 00 01 00
0 Meta TrkName "<Master Volume>"
0 Meta 0x21 00
0 SysEx f0 41 10 42 12 40 00 7f 00 41 f7
0 SysEx f0 41 10 42 12 40 00 04 64 58 f7
192 Meta Text "<Master Reverve>"
192 SysEx f0 41 10 42 12 40 01 30 03 0c f7
192 SysEx f0 41 10 42 12 40 01 33 50 3c f7
192 SysEx f0 41 10 42 12 40 01 34 3c 4f f7
576 Par ch=1 c=0 v=0
580 Par ch=1 c=32 v=1
584 PrCh ch=1 p=0
780 Par ch=1 c=7 v=100
972 Par ch=1 c=11 v=80
1164 Par ch=1 c=10 v=64
1356 Par ch=1 c=1 v=0
1356 Meta Text "<part reverve>"
1356 Par ch=1 c=91 v=90
1452 Par ch=1 c=99 v=1
1456 Par ch=1 c=98 v=32
1460 Par ch=1 c=6 v=62
1464 Par ch=1 c=99 v=1
1468 Par ch=1 c=98 v=33
1472 Par ch=1 c=6 v=54
1476 Par ch=1 c=99 v=1
1480 Par ch=1 c=98 v=99
1484 Par ch=1 c=6 v=62
1488 Par ch=1 c=99 v=1
1492 Par ch=1 c=98 v=100
1496 Par ch=1 c=6 v=60
1500 Par ch=1 c=99 v=1
1504 Par ch=1 c=98 v=102
1508 Par ch=1 c=6 v=70
3656 On ch=1 n=c#4 v=40
3664 On ch=1 n=a#4 v=57
3678 On ch=1 n=f#4 v=45
3730 Par ch=1 c=64 v=63
3750 Par ch=1 c=64 v=127
3838 On ch=1 n=f#4 v=0
3920 On ch=1 n=c#4 v=0
4020 On ch=1 n=a#4 v=0
4050 On ch=1 n=g#4 v=64
4130 On ch=1 n=g#4 v=0
4202 On ch=1 n=f5 v=66
4350 On ch=1 n=f5 v=0
4380 On ch=1 n=f#4 v=58
4382 On ch=1 n=a#4 v=62
4750 On ch=1 n=g#3 v=72
4828 Par ch=1 c=64 v=63
4866 Par ch=1 c=64 v=0
4894 On ch=1 n=f5 v=61
4962 On ch=1 n=f#4 v=0
5066 On ch=1 n=a#4 v=0
5088 On ch=1 n=f5 v=0
5100 On ch=1 n=f#4 v=53
5108 On ch=1 n=c5 v=76
5236 Par ch=1 c=64 v=63
5258 Par ch=1 c=64 v=127
5444 On ch=1 n=f#4 v=0
5642 On ch=1 n=c5 v=0
5650 On ch=1 n=g#3 v=0
5660 On ch=1 n=f5 v=76
5776 On ch=1 n=f5 v=0
5848 On ch=1 n=c#5 v=85
5868 On ch=1 n=c#4 v=65
5880 On ch=1 n=f4 v=55
5916 Par ch=1 c=64 v=63
5934 Par ch=1 c=64 v=0
6042 Par ch=1 c=64 v=63
6068 Par ch=1 c=64 v=127
6186 On ch=1 n=g#4 v=72
6262 On ch=1 n=f4 v=0
6346 On ch=1 n=f5 v=86
6402 On ch=1 n=c#5 v=0
6470 On ch=1 n=g#4 v=0
6492 On ch=1 n=c#4 v=0
6520 On ch=1 n=f5 v=0
6542 On ch=1 n=c#5 v=88
6560 On ch=1 n=f4 v=55
6906 On ch=1 n=g#3 v=83
7056 On ch=1 n=f5 v=55
7124 On ch=1 n=f4 v=0
7230 On ch=1 n=f5 v=0
7266 On ch=1 n=c5 v=72
7270 Par ch=1 c=64 v=63
7272 On ch=1 n=f4 v=41
7308 Par ch=1 c=64 v=0
7320 On ch=1 n=c#5 v=0
7574 Par ch=1 c=64 v=63
7588 Par ch=1 c=64 v=127
7686 On ch=1 n=f4 v=0
7806 On ch=1 n=g#3 v=0
7856 On ch=1 n=f5 v=64
7864 On ch=1 n=c5 v=0
7988 On ch=1 n=f5 v=0
8064 On ch=1 n=f#4 v=61
8064 On ch=1 n=a#4 v=72
8066 On ch=1 n=c#4 v=58
8102 Par ch=1 c=64 v=63
8118 Par ch=1 c=64 v=0
8226 Par ch=1 c=64 v=63
8244 Par ch=1 c=64 v=127
8316 On ch=1 n=f#4 v=0
8446 On ch=1 n=g#4 v=66
8578 On ch=1 n=g#4 v=0
8586 On ch=1 n=a#4 v=0
8590 On ch=1 n=f5 v=73
8688 On ch=1 n=c#4 v=0
8768 On ch=1 n=f5 v=0
8776 On ch=1 n=a#4 v=76
8780 On ch=1 n=f#4 v=71
9140 On ch=1 n=g#3 v=79
9202 On ch=1 n=f#4 v=0
9282 On ch=1 n=f5 v=74
9448 Par ch=1 c=64 v=63
9488 On ch=1 n=f#4 v=64
9494 On ch=1 n=c5 v=79
9498 On ch=1 n=f5 v=0
9498 Par ch=1 c=64 v=0
9526 On ch=1 n=a#4 v=0
9786 Par ch=1 c=64 v=63
9796 Par ch=1 c=64 v=127
9888 On ch=1 n=f#4 v=0
9938 On ch=1 n=g#3 v=0
10014 On ch=1 n=c5 v=0
10058 On ch=1 n=f5 v=76
10184 On ch=1 n=f5 v=0
10246 On ch=1 n=c#5 v=85
10262 On ch=1 n=c#4 v=67
10280 On ch=1 n=f4 v=55
10346 Par ch=1 c=64 v=63
10362 Par ch=1 c=64 v=0
10454 Par ch=1 c=64 v=63
10484 Par ch=1 c=64 v=127
10610 On ch=1 n=g#4 v=80
10694 On ch=1 n=f4 v=0
10758 On ch=1 n=f5 v=81
10796 On ch=1 n=c#5 v=0
10936 On ch=1 n=f5 v=0
10946 On ch=1 n=c#5 v=96
10972 On ch=1 n=f4 v=55
11008 On ch=1 n=g#4 v=0
11298 On ch=1 n=g#3 v=88
11302 On ch=1 n=c#4 v=0
11410 On ch=1 n=f4 v=0
11416 Par ch=1 c=64 v=63
11434 Par ch=1 c=64 v=0
11470 Par ch=1 c=64 v=63
11484 On ch=1 n=d#5 v=90
11516 Par ch=1 c=64 v=127
11572 On ch=1 n=c#5 v=0
11682 On ch=1 n=d#5 v=0
11696 On ch=1 n=f5 v=96
11708 On ch=1 n=c5 v=79
11966 On ch=1 n=c5 v=0
11972 On ch=1 n=f5 v=0
11984 On ch=1 n=g#3 v=0
12252 On ch=1 n=a#5 v=91
12394 On ch=1 n=a#5 v=0
12436 On ch=1 n=c#4 v=62
12436 On ch=1 n=g#5 v=88
12444 On ch=1 n=d#5 v=66
12446 On ch=1 n=b4 v=48
12540 Par ch=1 c=64 v=63
12554 Par ch=1 c=64 v=0
12690 Par ch=1 c=64 v=63
12704 Par ch=1 c=64 v=127
12810 On ch=1 n=c#5 v=81
12934 On ch=1 n=a#5 v=98
12974 On ch=1 n=g#5 v=0
12976 On ch=1 n=b4 v=0
13000 On ch=1 n=d#5 v=0
13058 On ch=1 n=c#5 v=0
13068 On ch=1 n=c#4 v=0
13120 On ch=1 n=g#5 v=95
13126 On ch=1 n=d#5 v=79
13128 On ch=1 n=b4 v=79
13138 On ch=1 n=a#5 v=0
13482 On ch=1 n=c#4 v=91
13646 On ch=1 n=a#5 v=91
13682 On ch=1 n=b4 v=0
13692 On ch=1 n=d#5 v=0
13780 On ch=1 n=g#5 v=0
13818 On ch=1 n=a#5 v=0
13822 On ch=1 n=b4 v=65
13828 On ch=1 n=f5 v=74
13840 On ch=1 n=d5 v=82
13870 Par ch=1 c=64 v=63
13896 Par ch=1 c=64 v=0
14106 Par ch=1 c=64 v=63
14120 Par ch=1 c=64 v=127
14218 On ch=1 n=b4 v=0
14262 On ch=1 n=d5 v=0
14278 On ch=1 n=c#4 v=0
14388 On ch=1 n=g#5 v=79
14390 On ch=1 n=f5 v=0
14568 On ch=1 n=c#4 v=72
14572 On ch=1 n=a#4 v=66
14580 On ch=1 n=g#5 v=0
14580 On ch=1 n=f#5 v=82
14586 On ch=1 n=d#5 v=69
14588 Par ch=1 c=64 v=63
14598 Par ch=1 c=64 v=0
14718 Par ch=1 c=64 v=63
14736 Par ch=1 c=64 v=127
14892 On ch=1 n=a#4 v=0
14952 On ch=1 n=d#5 v=0
14954 On ch=1 n=c#5 v=87
15038 On ch=1 n=c#4 v=0
15094 On ch=1 n=f#5 v=0
15096 On ch=1 n=g#5 v=86
15102 On ch=1 n=c#5 v=0
15284 On ch=1 n=a#4 v=72
15290 On ch=1 n=d#5 v=80
15296 On ch=1 n=f#5 v=87
15326 On ch=1 n=g#5 v=0
15652 On ch=1 n=c#4 v=85
15790 Par ch=1 c=64 v=63
15800 On ch=1 n=g#5 v=82
15880 On ch=1 n=d#5 v=0
15882 Par ch=1 c=64 v=0
15896 On ch=1 n=a#4 v=0
15926 On ch=1 n=f#5 v=0
15982 On ch=1 n=a#4 v=71
15990 On ch=1 n=d#5 v=71
16022 On ch=1 n=g#5 v=0
16154 Par ch=1 c=64 v=63
16174 Par ch=1 c=64 v=127
16398 On ch=1 n=c#4 v=0
16540 On ch=1 n=f#5 v=80
16600 On ch=1 n=a#4 v=0
16728 On ch=1 n=d#5 v=0
16730 On ch=1 n=f#5 v=0
16738 On ch=1 n=c#4 v=54
16746 On ch=1 n=c5 v=68
16750 On ch=1 n=f5 v=67
16816 Par ch=1 c=64 v=63
16840 Par ch=1 c=64 v=0
16930 Par ch=1 c=64 v=63
16960 Par ch=1 c=64 v=127
17128 On ch=1 n=a4 v=69
17192 On ch=1 n=c5 v=0
17248 On ch=1 n=f5 v=0
17282 On ch=1 n=f#5 v=87
17460 On ch=1 n=f#5 v=0
17474 On ch=1 n=d#5 v=85
17482 On ch=1 n=f#4 v=80
17504 On ch=1 n=c#4 v=0
17832 On ch=1 n=c#4 v=91
17980 On ch=1 n=f5 v=74
18036 On ch=1 n=f#4 v=0
18042 On ch=1 n=d#5 v=0
18102 Par ch=1 c=64 v=63
18134 Par ch=1 c=64 v=0
18162 On ch=1 n=f#4 v=55
18170 On ch=1 n=f5 v=0
18170 On ch=1 n=c5 v=76
18318 Par ch=1 c=64 v=63
18344 Par ch=1 c=64 v=127
18378 On ch=1 n=a4 v=0
18662 On ch=1 n=d#5 v=85
18666 On ch=1 n=c5 v=0
18754 On ch=1 n=f#4 v=0
18866 On ch=1 n=c#5 v=80
18870 On ch=1 n=f4 v=55
18902 Par ch=1 c=64 v=63
18920 On ch=1 n=d#5 v=0
18926 Par ch=1 c=64 v=0
19030 Par ch=1 c=64 v=63
19062 Par ch=1 c=64 v=127
19238 On ch=1 n=a#4 v=63
19310 On ch=1 n=c#5 v=0
19328 On ch=1 n=f4 v=0
19348 On ch=1 n=a#4 v=0
19410 On ch=1 n=c5 v=84
19570 On ch=1 n=c#4 v=0
19598 On ch=1 n=a#4 v=74
19598 On ch=1 n=f4 v=46
19640 On ch=1 n=c5 v=0
19896 Par ch=1 c=64 v=63
19942 Par ch=1 c=64 v=0
19974 On ch=1 n=g#3 v=67
20044 Par ch=1 c=67 v=127
20132 Par ch=1 c=64 v=63
20162 Par ch=1 c=64 v=127
20292 On ch=1 n=f4 v=0
20336 On ch=1 n=c#4 v=55
20350 On ch=1 n=g#3 v=0
20438 On ch=1 n=a#4 v=0
20686 On ch=1 n=c#4 v=0
20702 On ch=1 n=g#4 v=37
20808 On ch=1 n=g#4 v=0
21062 Par ch=1 c=64 v=63
21070 On ch=1 n=a#5 v=63
21090 On ch=1 n=f#5 v=47
21096 On ch=1 n=c#5 v=43
21100 Par ch=1 c=64 v=0
21156 Par ch=1 c=64 v=63
21170 Par ch=1 c=64 v=127
21264 On ch=1 n=f#5 v=0
21424 On ch=1 n=g#5 v=70
21518 On ch=1 n=g#5 v=0
21518 On ch=1 n=c#5 v=0
21580 On ch=1 n=a#5 v=0
21590 On ch=1 n=f6 v=76
21732 On ch=1 n=f6 v=0
21782 On ch=1 n=a#5 v=77
21786 On ch=1 n=f#5 v=67
22116 On ch=1 n=g#3 v=79
22138 Par ch=1 c=64 v=63
22160 Par ch=1 c=64 v=0
22256 On ch=1 n=f6 v=73
22322 Par ch=1 c=64 v=63
22340 Par ch=1 c=64 v=127
22350 On ch=1 n=f#5 v=0
22434 On ch=1 n=a#5 v=0
22442 On ch=1 n=f6 v=0
22458 On ch=1 n=c6 v=87
22464 On ch=1 n=f#5 v=51
22464 On ch=1 n=c#4 v=66
22554 Par ch=1 c=64 v=63
22574 Par ch=1 c=64 v=0
22608 Par ch=1 c=64 v=63
22652 Par ch=1 c=64 v=127
22816 On ch=1 n=g#3 v=0
22820 On ch=1 n=g#4 v=90
22858 On ch=1 n=c#4 v=0
22902 On ch=1 n=f#5 v=0
22906 On ch=1 n=g#4 v=0
22966 On ch=1 n=f6 v=87
22996 On ch=1 n=c6 v=0
23102 On ch=1 n=f6 v=0
23160 On ch=1 n=c#6 v=92
23172 On ch=1 n=c#5 v=67
23182 On ch=1 n=f5 v=57
23316 Par ch=1 c=64 v=63
23336 Par ch=1 c=64 v=0
23442 Par ch=1 c=64 v=63
23462 Par ch=1 c=64 v=127
23534 On ch=1 n=g#5 v=61
23620 On ch=1 n=f5 v=0
23654 On ch=1 n=g#5 v=0
23678 On ch=1 n=f6 v=77
23718 On ch=1 n=c#6 v=0
23748 On ch=1 n=c#5 v=0
23846 On ch=1 n=f6 v=0
23860 On ch=1 n=c#6 v=78
23882 On ch=1 n=f5 v=32
24218 On ch=1 n=g#3 v=67
24282 Par ch=1 c=64 v=63
24296 Par ch=1 c=64 v=0
24364 On ch=1 n=f6 v=76
24412 Par ch=1 c=64 v=63
24440 Par ch=1 c=64 v=127
24476 On ch=1 n=f5 v=0
24524 On ch=1 n=c#6 v=0
24534 On ch=1 n=f6 v=0
24562 On ch=1 n=c#4 v=70
24566 On ch=1 n=c6 v=89
24572 On ch=1 n=f5 v=60
24678 On ch=1 n=g#3 v=0
24820 On ch=1 n=f5 v=0
24916 On ch=1 n=g#4 v=78
24940 On ch=1 n=c#4 v=0
24998 On ch=1 n=g#4 v=0
25054 On ch=1 n=c6 v=0
25056 On ch=1 n=f6 v=77
25238 On ch=1 n=f6 v=0
25274 On ch=1 n=f#5 v=70
25274 On ch=1 n=c#5 v=49
25284 On ch=1 n=a#5 v=84
25342 Par ch=1 c=64 v=63
25358 Par ch=1 c=64 v=0
25452 Par ch=1 c=64 v=63
25480 Par ch=1 c=64 v=127
25550 On ch=1 n=f#5 v=0
25636 On ch=1 n=g#5 v=56
25732 On ch=1 n=g#5 v=0
25734 On ch=1 n=c#5 v=0
25772 On ch=1 n=a#5 v=0
25800 On ch=1 n=f6 v=57
25978 On ch=1 n=f6 v=0
25988 On ch=1 n=a#5 v=76
26014 On ch=1 n=f#5 v=58
26370 On ch=1 n=g#3 v=63
26476 Par ch=1 c=64 v=63
26494 Par ch=1 c=64 v=0
26508 On ch=1 n=f6 v=71
26550 On ch=1 n=a#5 v=0
26576 On ch=1 n=f#5 v=0
26658 Par ch=1 c=64 v=63
26682 Par ch=1 c=64 v=127
26706 On ch=1 n=c#4 v=78
26708 On ch=1 n=c6 v=85
26726 On ch=1 n=f#5 v=59
26778 On ch=1 n=f6 v=0
26954 On ch=1 n=f#5 v=0
27018 On ch=1 n=g#3 v=0
27056 On ch=1 n=g#4 v=82
27086 On ch=1 n=c#4 v=0
27144 On ch=1 n=g#4 v=0
27186 On ch=1 n=f6 v=88
27246 On ch=1 n=c6 v=0
27366 On ch=1 n=f6 v=0
27370 On ch=1 n=c#6 v=100
27378 On ch=1 n=c#5 v=81
27392 On ch=1 n=f5 v=75
27516 Par ch=1 c=64 v=63
27530 Par ch=1 c=64 v=0
27658 Par ch=1 c=64 v=63
27680 Par ch=1 c=64 v=127
27728 On ch=1 n=g#5 v=76
27842 On ch=1 n=f6 v=87
27872 On ch=1 n=g#5 v=0
27876 On ch=1 n=f5 v=0
27922 On ch=1 n=c#6 v=0
27986 On ch=1 n=c#5 v=0
28044 On ch=1 n=c#6 v=105
28048 On ch=1 n=f5 v=70
28058 On ch=1 n=f6 v=0
28408 On ch=1 n=g#3 v=83
28478 Par ch=1 c=64 v=63
28492 Par ch=1 c=64 v=0
28496 On ch=1 n=f5 v=0
28562 On ch=1 n=d#6 v=103
28620 Par ch=1 c=64 v=63
28642 Par ch=1 c=64 v=127
28724 On ch=1 n=c#6 v=0
28774 On ch=1 n=c#4 v=80
28780 On ch=1 n=d#6 v=0
28782 On ch=1 n=f6 v=102
28788 On ch=1 n=c6 v=92
28986 On ch=1 n=g#3 v=0
29004 On ch=1 n=c6 v=0
29010 On ch=1 n=f6 v=0
29156 On ch=1 n=g#4 v=96
29192 On ch=1 n=c#4 v=0
29248 On ch=1 n=g#4 v=0
29306 On ch=1 n=a#6 v=106
29474 On ch=1 n=a#6 v=0
29496 On ch=1 n=g#6 v=99
29496 On ch=1 n=c#5 v=79
29508 On ch=1 n=d#6 v=76
29518 On ch=1 n=b5 v=62
29678 Par ch=1 c=64 v=63
29694 Par ch=1 c=64 v=0
29764 Par ch=1 c=64 v=63
29794 Par ch=1 c=64 v=127
29864 On ch=1 n=b5 v=0
29920 On ch=1 n=c#6 v=95
30026 On ch=1 n=c#5 v=0
30052 On ch=1 n=c#6 v=0
30060 On ch=1 n=d#6 v=0
30070 On ch=1 n=a#6 v=92
30092 On ch=1 n=g#6 v=0
30262 On ch=1 n=g#6 v=92
30268 On ch=1 n=d#6 v=87
30276 On ch=1 n=a#6 v=0
30276 On ch=1 n=b5 v=71
30626 On ch=1 n=g#3 v=78
30742 On ch=1 n=a#6 v=85
30782 On ch=1 n=d#6 v=0
30826 On ch=1 n=g#6 v=0
30832 On ch=1 n=b5 v=0
30912 On ch=1 n=a#6 v=0
30944 On ch=1 n=f6 v=78
30944 On ch=1 n=c#4 v=76
30954 On ch=1 n=b5 v=65
30960 On ch=1 n=d6 v=77
30984 Par ch=1 c=64 v=63
30992 Par ch=1 c=64 v=0
31038 On ch=1 n=g#3 v=0
31114 Par ch=1 c=64 v=63
31132 Par ch=1 c=64 v=127
31268 On ch=1 n=b5 v=0
31302 On ch=1 n=g#4 v=72
31336 On ch=1 n=d6 v=0
31346 On ch=1 n=c#4 v=0
31388 On ch=1 n=g#4 v=0
31426 On ch=1 n=f6 v=0
31436 On ch=1 n=g#6 v=82
31642 On ch=1 n=g#6 v=0
31642 On ch=1 n=c#5 v=75
31642 On ch=1 n=f#6 v=80
31644 On ch=1 n=d#6 v=73
31654 On ch=1 n=a#5 v=60
31748 Par ch=1 c=64 v=63
31764 Par ch=1 c=64 v=0
31812 Par ch=1 c=64 v=63
31848 Par ch=1 c=64 v=127
31944 On ch=1 n=a#5 v=0
32016 On ch=1 n=c#6 v=72
32026 On ch=1 n=c#5 v=0
32088 On ch=1 n=c#6 v=0
32102 On ch=1 n=d#6 v=0
32104 On ch=1 n=f#6 v=0
32142 On ch=1 n=g#6 v=86
32350 On ch=1 n=a#5 v=63
32350 On ch=1 n=f#6 v=76
32354 On ch=1 n=d#6 v=70
32362 On ch=1 n=g#6 v=0
32716 On ch=1 n=g#3 v=71
32774 Par ch=1 c=64 v=63
32788 Par ch=1 c=64 v=0
32858 On ch=1 n=g#6 v=75
32884 On ch=1 n=d#6 v=0
32910 On ch=1 n=f#6 v=0
32912 Par ch=1 c=64 v=63
32924 On ch=1 n=a#5 v=0
32934 Par ch=1 c=64 v=127
33046 On ch=1 n=d#6 v=84
33050 On ch=1 n=a#5 v=66
33054 On ch=1 n=g#6 v=0
33058 On ch=1 n=c#4 v=61
33126 On ch=1 n=g#3 v=0
33298 On ch=1 n=a#5 v=0
33354 On ch=1 n=c#4 v=0
33392 On ch=1 n=g#4 v=68
33454 On ch=1 n=g#4 v=0
33548 On ch=1 n=f#6 v=78
33576 On ch=1 n=d#6 v=0
33754 On ch=1 n=c#5 v=54
33756 On ch=1 n=f#6 v=0
33770 On ch=1 n=c6 v=63
33772 On ch=1 n=f6 v=71
33886 Par ch=1 c=64 v=63
33902 Par ch=1 c=64 v=0
33976 Par ch=1 c=64 v=63
34012 Par ch=1 c=64 v=127
34166 On ch=1 n=a5 v=60
34178 On ch=1 n=c6 v=0
34260 On ch=1 n=f6 v=0
34290 On ch=1 n=f#6 v=88
34472 On ch=1 n=f#6 v=0
34490 On ch=1 n=d#6 v=84
34494 On ch=1 n=f#5 v=76
34756 On ch=1 n=c#5 v=0
34852 On ch=1 n=c5 v=81
34878 Par ch=1 c=64 v=63
34896 Par ch=1 c=64 v=0
34920 Par ch=1 c=64 v=63
34954 On ch=1 n=a5 v=0
34956 Par ch=1 c=64 v=127
34990 On ch=1 n=c5 v=0
35002 On ch=1 n=f6 v=77
35058 On ch=1 n=f#5 v=0
35060 On ch=1 n=d#6 v=0
35190 On ch=1 n=f6 v=0
35212 On ch=1 n=c6 v=80
35222 On ch=1 n=f#5 v=55
35234 On ch=1 n=f4 v=63
35292 On ch=1 n=f4 v=0
35400 On ch=1 n=f#5 v=0
35480 On ch=1 n=c6 v=0
35604 On ch=1 n=d#5 v=70
35606 On ch=1 n=a5 v=46
35660 On ch=1 n=a5 v=0
35670 On ch=1 n=d#5 v=0
35746 On ch=1 n=d#6 v=81
35950 On ch=1 n=c#6 v=77
35978 On ch=1 n=f5 v=41
35982 On ch=1 n=d#6 v=0
35982 On ch=1 n=a#3 v=52
36040 Par ch=1 c=64 v=63
36050 Par ch=1 c=64 v=0
36136 Par ch=1 c=64 v=63
36174 Par ch=1 c=64 v=127
36332 On ch=1 n=a#4 v=67
36432 On ch=1 n=c#6 v=0
36436 On ch=1 n=a#4 v=0
36496 On ch=1 n=c6 v=64
36662 On ch=1 n=f5 v=0
36678 On ch=1 n=a#3 v=0
36686 On ch=1 n=a#4 v=49
36690 On ch=1 n=a#5 v=60
36740 On ch=1 n=c6 v=0
36788 On ch=1 n=a#4 v=0
37068 On ch=1 n=a#4 v=37
37206 On ch=1 n=a#5 v=0
37326 Par ch=1 c=67 v=0
37434 On ch=1 n=a#5 v=40
37536 On ch=1 n=a#5 v=0
37814 On ch=1 n=a#5 v=40
37930 On ch=1 n=a#4 v=0
37966 On ch=1 n=a#5 v=0
38162 On ch=1 n=d#7 v=74
38174 On ch=1 n=f#6 v=44
38176 On ch=1 n=a#6 v=63
38180 On ch=1 n=a#4 v=16
38396 On ch=1 n=f#6 v=0
38562 On ch=1 n=a#5 v=42
38568 On ch=1 n=a#4 v=0
38568 On ch=1 n=f7 v=74
38570 On ch=1 n=a#6 v=0
38592 On ch=1 n=d#7 v=0
38692 On ch=1 n=a#5 v=0
38730 On ch=1 n=f7 v=0
38936 On ch=1 n=a#5 v=76
39026 On ch=1 n=a#5 v=0
39102 On ch=1 n=d#7 v=86
39234 On ch=1 n=d#7 v=0
39252 On ch=1 n=a#4 v=44
39266 On ch=1 n=d7 v=71
39276 On ch=1 n=f#6 v=47
39292 On ch=1 n=a#6 v=68
39430 On ch=1 n=c#7 v=90
39436 On ch=1 n=d7 v=0
39494 On ch=1 n=f#6 v=0
39514 On ch=1 n=a#6 v=0
39524 On ch=1 n=c#7 v=0
39582 On ch=1 n=c7 v=82
39584 On ch=1 n=a#5 v=58
39668 On ch=1 n=a#5 v=0
39712 On ch=1 n=c7 v=0
39944 On ch=1 n=b6 v=84
39948 On ch=1 n=a#4 v=0
39950 On ch=1 n=a#5 v=57
40028 On ch=1 n=b6 v=0
40034 On ch=1 n=a#5 v=0
40260 On ch=1 n=a#4 v=48
40270 On ch=1 n=a#6 v=79
40280 On ch=1 n=f#6 v=61
40308 On ch=1 n=d#6 v=61
40470 On ch=1 n=d#6 v=0
40644 On ch=1 n=c7 v=76
40646 On ch=1 n=a#5 v=61
40722 On ch=1 n=f#6 v=0
40768 On ch=1 n=a#6 v=0
40792 On ch=1 n=a#5 v=0
40864 On ch=1 n=c7 v=0
41022 On ch=1 n=a#5 v=62
41032 On ch=1 n=a#4 v=0
41098 On ch=1 n=a#5 v=0
41180 On ch=1 n=a#6 v=80
41314 On ch=1 n=a#4 v=60
41336 On ch=1 n=a6 v=80
41338 On ch=1 n=d#6 v=58
41344 On ch=1 n=a#6 v=0
41462 On ch=1 n=d#6 v=0
41480 On ch=1 n=g#6 v=88
41542 On ch=1 n=a6 v=0
41594 On ch=1 n=g#6 v=0
41648 On ch=1 n=a#5 v=65
41656 On ch=1 n=g6 v=88
41734 On ch=1 n=a#5 v=0
41752 On ch=1 n=g6 v=0
42012 On ch=1 n=f#6 v=88
42022 On ch=1 n=a#5 v=59
42032 On ch=1 n=a#4 v=0
42074 On ch=1 n=a#5 v=0
42092 On ch=1 n=f#6 v=0
42358 On ch=1 n=d#6 v=84
42360 On ch=1 n=a#4 v=57
42376 On ch=1 n=f#5 v=58
42412 Par ch=1 c=64 v=63
42508 Par ch=1 c=64 v=127
42630 On ch=1 n=f#5 v=0
42714 On ch=1 n=f6 v=92
42714 On ch=1 n=a#5 v=58
42760 On ch=1 n=d#6 v=0
42816 On ch=1 n=a#5 v=0
42968 On ch=1 n=f6 v=0
43076 On ch=1 n=a#5 v=80
43134 On ch=1 n=a#5 v=0
43166 On ch=1 n=a#4 v=0
43224 On ch=1 n=d#6 v=87
43392 On ch=1 n=d6 v=91
43392 On ch=1 n=a#4 v=60
43406 On ch=1 n=d#6 v=0
43416 On ch=1 n=f#5 v=55
43494 Par ch=1 c=64 v=63
43582 Par ch=1 c=64 v=127
43730 On ch=1 n=a#5 v=67
43736 On ch=1 n=d#6 v=101
43792 On ch=1 n=d6 v=0
43848 On ch=1 n=a#5 v=0
43934 On ch=1 n=f#5 v=0
44060 On ch=1 n=d#6 v=0
44078 On ch=1 n=a#5 v=87
44148 On ch=1 n=a#5 v=0
44190 On ch=1 n=a#4 v=0
44216 On ch=1 n=d6 v=93
44396 On ch=1 n=c#6 v=100
44402 On ch=1 n=a#4 v=76
44406 On ch=1 n=g5 v=65
44428 On ch=1 n=d6 v=0
44448 Par ch=1 c=64 v=63
44466 Par ch=1 c=64 v=0
44498 Par ch=1 c=64 v=63
44542 Par ch=1 c=64 v=127
44758 On ch=1 n=d#6 v=100
44772 On ch=1 n=a#5 v=79
44788 On ch=1 n=c#6 v=0
44806 On ch=1 n=g5 v=0
44820 On ch=1 n=a#5 v=0
44872 On ch=1 n=d#6 v=0
45092 On ch=1 n=a#5 v=107
45112 On ch=1 n=g5 v=65
45126 On ch=1 n=e5 v=57
45186 On ch=1 n=g5 v=0
45186 On ch=1 n=a#4 v=0
45210 On ch=1 n=e5 v=0
45236 On ch=1 n=a#5 v=0
45440 On ch=1 n=b5 v=86
45440 On ch=1 n=a#4 v=76
45446 On ch=1 n=g#5 v=79
45452 On ch=1 n=d#5 v=68
45458 Par ch=1 c=64 v=63
45468 Par ch=1 c=64 v=0
45532 Par ch=1 c=64 v=63
45564 Par ch=1 c=64 v=127
45576 On ch=1 n=d#5 v=0
45606 On ch=1 n=a#5 v=93
45612 On ch=1 n=g#5 v=0
45644 On ch=1 n=b5 v=0
45732 On ch=1 n=a#5 v=0
45772 On ch=1 n=g#5 v=88
45932 On ch=1 n=a#5 v=88
45938 On ch=1 n=a#4 v=0
45946 On ch=1 n=g#5 v=0
46060 On ch=1 n=a#5 v=0
46094 On ch=1 n=b5 v=89
46246 On ch=1 n=d#6 v=106
46500 On ch=1 n=a#3 v=80
46522 On ch=1 n=g#6 v=89
46970 On ch=1 n=a#6 v=99
46972 On ch=1 n=a#4 v=63
47022 On ch=1 n=g#6 v=0
47022 Par ch=1 c=64 v=63
47042 Par ch=1 c=64 v=127
47088 On ch=1 n=a#3 v=0
47196 On ch=1 n=b5 v=0
47228 On ch=1 n=a#4 v=0
47290 On ch=1 n=d#6 v=0
47348 On ch=1 n=a#4 v=80
47438 On ch=1 n=a#4 v=0
47520 On ch=1 n=g#6 v=89
47544 On ch=1 n=a#6 v=0
47626 On ch=1 n=g#6 v=0
47660 On ch=1 n=a#3 v=76
47674 On ch=1 n=g6 v=93
47686 On ch=1 n=d#6 v=82
47696 On ch=1 n=b5 v=73
47720 Par ch=1 c=64 v=63
47730 Par ch=1 c=64 v=0
47794 Par ch=1 c=64 v=63
47830 On ch=1 n=f#6 v=97
47832 Par ch=1 c=64 v=127
47884 On ch=1 n=g6 v=0
47952 On ch=1 n=f#6 v=0
47994 On ch=1 n=f6 v=103
48006 On ch=1 n=a#4 v=76
48034 On ch=1 n=a#3 v=0
48054 On ch=1 n=d#6 v=0
48106 On ch=1 n=b5 v=0
48120 On ch=1 n=a#4 v=0
48342 On ch=1 n=e6 v=100
48346 On ch=1 n=f6 v=0
48360 On ch=1 n=a#4 v=85
48418 On ch=1 n=e6 v=0
48450 On ch=1 n=a#4 v=0
48696 On ch=1 n=a#3 v=71
48700 On ch=1 n=d#6 v=96
48708 On ch=1 n=b5 v=86
48716 On ch=1 n=g#5 v=83
48746 Par ch=1 c=64 v=63
48774 Par ch=1 c=64 v=0
48804 Par ch=1 c=64 v=63
48844 Par ch=1 c=64 v=127
48986 On ch=1 n=g#5 v=0
49070 On ch=1 n=f6 v=99
49086 On ch=1 n=a#4 v=79
49096 On ch=1 n=d#6 v=0
49096 On ch=1 n=a#3 v=0
49110 On ch=1 n=b5 v=0
49184 On ch=1 n=a#4 v=0
49206 On ch=1 n=f6 v=0
49442 On ch=1 n=a#4 v=80
49522 On ch=1 n=a#4 v=0
49584 On ch=1 n=d#6 v=96
49696 On ch=1 n=d#6 v=0
49744 On ch=1 n=a#3 v=73
49760 On ch=1 n=d6 v=93
49774 On ch=1 n=g#5 v=68
49784 Par ch=1 c=64 v=63
49804 Par ch=1 c=64 v=0
49856 Par ch=1 c=64 v=63
49888 Par ch=1 c=64 v=127
49928 On ch=1 n=c#6 v=91
49976 On ch=1 n=d6 v=0
50010 On ch=1 n=g#5 v=0
50024 On ch=1 n=c#6 v=0
50098 On ch=1 n=c6 v=92
50102 On ch=1 n=a#4 v=71
50130 On ch=1 n=a#3 v=0
50196 On ch=1 n=a#4 v=0
50260 On ch=1 n=c6 v=0
50422 On ch=1 n=b5 v=87
50434 On ch=1 n=a#4 v=74
50482 On ch=1 n=b5 v=0
50514 On ch=1 n=a#4 v=0
50794 On ch=1 n=g#5 v=99
50802 On ch=1 n=d#5 v=88
50802 On ch=1 n=b4 v=80
50806 On ch=1 n=a#3 v=88
50828 Par ch=1 c=64 v=63
50842 Par ch=1 c=64 v=0
50932 Par ch=1 c=64 v=63
50956 Par ch=1 c=64 v=127
51120 On ch=1 n=b4 v=0
51178 On ch=1 n=a#5 v=101
51178 On ch=1 n=a#4 v=74
51218 On ch=1 n=a#3 v=0
51226 On ch=1 n=g#5 v=0
51254 On ch=1 n=d#5 v=0
51284 On ch=1 n=a#4 v=0
51522 On ch=1 n=a#4 v=103
51554 On ch=1 n=a#5 v=0
51624 On ch=1 n=a#4 v=0
51660 On ch=1 n=g#5 v=101
51780 On ch=1 n=g#5 v=0
51834 On ch=1 n=a#3 v=93
51842 On ch=1 n=g5 v=101
51860 On ch=1 n=d5 v=93
51862 On ch=1 n=b4 v=78
51932 Par ch=1 c=64 v=63
51942 Par ch=1 c=64 v=0
52016 Par ch=1 c=64 v=63
52038 Par ch=1 c=64 v=127
52204 On ch=1 n=b4 v=0
52210 On ch=1 n=a#4 v=106
52218 On ch=1 n=g#5 v=109
52254 On ch=1 n=a#3 v=0
52274 On ch=1 n=g5 v=0
52276 On ch=1 n=d5 v=0
52304 On ch=1 n=a#4 v=0
52498 On ch=1 n=g#5 v=0
52560 On ch=1 n=a#4 v=110
52666 On ch=1 n=a#4 v=0
52700 On ch=1 n=g5 v=97
52790 On ch=1 n=g5 v=0
52878 On ch=1 n=a#3 v=106
52880 On ch=1 n=f#5 v=114
52882 Par ch=1 c=64 v=63
52886 Par ch=1 c=64 v=0
52900 On ch=1 n=c#5 v=105
52902 On ch=1 n=a#4 v=90
52974 On ch=1 n=a#3 v=0
52990 Par ch=1 c=64 v=63
53004 Par ch=1 c=64 v=127
53178 On ch=1 n=a#4 v=0
53246 On ch=1 n=g#5 v=108
53258 On ch=1 n=e5 v=96
53278 On ch=1 n=c#5 v=0
53280 On ch=1 n=f#5 v=0
53342 On ch=1 n=e5 v=0
53360 On ch=1 n=g#5 v=0
53592 On ch=1 n=e4 v=104
53592 On ch=1 n=c#5 v=113
53594 On ch=1 n=g#4 v=100
53636 On ch=1 n=g#4 v=0
53650 On ch=1 n=e4 v=0
53676 On ch=1 n=c#5 v=0
53896 Par ch=1 c=64 v=63
53900 Par ch=1 c=64 v=0
53966 On ch=1 n=c#5 v=112
53968 On ch=1 n=g4 v=109
53972 On ch=1 n=a#3 v=115
53974 On ch=1 n=d#5 v=112
54020 Par ch=1 c=64 v=63
54024 Par ch=1 c=64 v=127
54054 On ch=1 n=c#5 v=0
54086 On ch=1 n=d#5 v=0
54214 On ch=1 n=g5 v=88
54328 On ch=1 n=g4 v=0
54372 On ch=1 n=a#5 v=109
54386 On ch=1 n=g5 v=0
54460 On ch=1 n=a#3 v=0
54530 On ch=1 n=d#6 v=110
54556 On ch=1 n=a#5 v=0
54622 On ch=1 n=d#6 v=0
54706 On ch=1 n=g6 v=104
54854 On ch=1 n=a#6 v=116
54892 On ch=1 n=g6 v=0
54956 On ch=1 n=a#6 v=0
55138 On ch=1 n=g#2 v=116
55150 On ch=1 n=d#7 v=116
55152 On ch=1 n=f#6 v=112
55152 On ch=1 n=a#6 v=110
55242 Par ch=1 c=64 v=63
55252 Par ch=1 c=64 v=0
55568 On ch=1 n=d#7 v=0
55568 Par ch=1 c=64 v=127
55596 On ch=1 n=f7 v=99
55608 On ch=1 n=g#3 v=104
55666 On ch=1 n=g#2 v=0
55706 On ch=1 n=g#3 v=0
55888 On ch=1 n=f7 v=0
55998 On ch=1 n=g#4 v=104
56148 On ch=1 n=d#7 v=98
56268 On ch=1 n=f#6 v=0
56286 On ch=1 n=d#7 v=0
56302 On ch=1 n=a#6 v=0
56338 On ch=1 n=g#4 v=0
56344 On ch=1 n=g#3 v=113
56352 On ch=1 n=a#6 v=97
56358 On ch=1 n=d7 v=103
56366 On ch=1 n=f#6 v=108
56408 Par ch=1 c=64 v=63
56414 Par ch=1 c=64 v=0
56480 On ch=1 n=d7 v=0
56504 Par ch=1 c=64 v=63
56512 Par ch=1 c=64 v=127
56522 On ch=1 n=c#7 v=104
56638 On ch=1 n=f#6 v=0
56650 On ch=1 n=c#7 v=0
56654 On ch=1 n=a#6 v=0
56686 On ch=1 n=c7 v=101
56698 On ch=1 n=g#4 v=113
56712 On ch=1 n=g#3 v=0
56772 On ch=1 n=g#4 v=0
56804 On ch=1 n=c7 v=0
57012 On ch=1 n=b6 v=103
57012 On ch=1 n=g#5 v=114
57062 On ch=1 n=g#5 v=0
57098 On ch=1 n=b6 v=0
57374 On ch=1 n=g#2 v=106
57374 On ch=1 n=a#6 v=113
57380 On ch=1 n=f#6 v=100
57382 On ch=1 n=d#6 v=104
57454 Par ch=1 c=64 v=63
57462 Par ch=1 c=64 v=0
57600 Par ch=1 c=64 v=63
57606 Par ch=1 c=64 v=127
57730 On ch=1 n=d#6 v=0
57742 On ch=1 n=a#6 v=0
57776 On ch=1 n=c7 v=101
57778 On ch=1 n=g#3 v=107
57816 On ch=1 n=g#2 v=0
57830 On ch=1 n=f#6 v=0
57846 On ch=1 n=g#3 v=0
57882 On ch=1 n=c7 v=0
58134 On ch=1 n=g#4 v=101
58278 On ch=1 n=a#6 v=97
58398 On ch=1 n=a#6 v=0
58402 On ch=1 n=g#4 v=0
58442 Par ch=1 c=64 v=63
58446 On ch=1 n=g#3 v=107
58456 Par ch=1 c=64 v=0
58460 On ch=1 n=a6 v=106
58468 On ch=1 n=d#6 v=103
58556 Par ch=1 c=64 v=63
58566 Par ch=1 c=64 v=127
58600 On ch=1 n=g#6 v=98
58644 On ch=1 n=d#6 v=0
58644 On ch=1 n=a6 v=0
58696 On ch=1 n=g#6 v=0
58776 On ch=1 n=g#4 v=106
58780 On ch=1 n=g#3 v=0
58782 On ch=1 n=g6 v=104
58844 On ch=1 n=g#4 v=0
58864 On ch=1 n=g6 v=0
59132 On ch=1 n=g#5 v=97
59132 On ch=1 n=f#6 v=100
59142 On ch=1 n=a#5 v=97
59160 On ch=1 n=g#5 v=0
59176 On ch=1 n=a#5 v=0
59222 On ch=1 n=f#6 v=0
59488 On ch=1 n=f6 v=107
59492 On ch=1 n=c6 v=102
59494 On ch=1 n=g#2 v=105
59498 On ch=1 n=a5 v=94
59540 Par ch=1 c=64 v=63
59548 Par ch=1 c=64 v=0
59680 Par ch=1 c=64 v=63
59694 Par ch=1 c=64 v=127
59886 On ch=1 n=g#3 v=94
59886 On ch=1 n=f#6 v=105
59912 On ch=1 n=g#2 v=0
59950 On ch=1 n=g#3 v=0
59954 On ch=1 n=a5 v=0
59954 On ch=1 n=c6 v=0
59962 On ch=1 n=f6 v=0
60176 On ch=1 n=f#6 v=0
60216 On ch=1 n=g#4 v=90
60344 On ch=1 n=f6 v=79
60438 On ch=1 n=f6 v=0
60472 On ch=1 n=g#4 v=0
60508 On ch=1 n=g#3 v=104
60510 On ch=1 n=e6 v=108
60528 On ch=1 n=g#5 v=89
60540 On ch=1 n=b5 v=75
60584 Par ch=1 c=64 v=63
60590 Par ch=1 c=64 v=0
60694 Par ch=1 c=64 v=63
60704 Par ch=1 c=64 v=127
60872 On ch=1 n=g#4 v=103
60882 On ch=1 n=g#3 v=0
60900 On ch=1 n=f#6 v=112
60920 On ch=1 n=g#5 v=0
60950 On ch=1 n=g#4 v=0
60950 On ch=1 n=b5 v=0
60962 On ch=1 n=e6 v=0
61110 On ch=1 n=f#6 v=0
61228 On ch=1 n=g#5 v=113
61286 On ch=1 n=g#5 v=0
61374 On ch=1 n=e6 v=107
61478 On ch=1 n=e6 v=0
61552 On ch=1 n=d#6 v=113
61558 On ch=1 n=g5 v=97
61560 On ch=1 n=g#2 v=97
61560 On ch=1 n=a#5 v=104
61644 Par ch=1 c=64 v=63
61652 Par ch=1 c=64 v=0
61758 Par ch=1 c=64 v=63
61774 Par ch=1 c=64 v=127
61898 On ch=1 n=e6 v=103
61920 On ch=1 n=a#5 v=0
61920 On ch=1 n=d#6 v=0
61920 On ch=1 n=g#3 v=109
61930 On ch=1 n=g5 v=0
61948 On ch=1 n=g#2 v=0
61984 On ch=1 n=g#3 v=0
61994 On ch=1 n=e6 v=0
62248 On ch=1 n=c6 v=96
62254 On ch=1 n=g#4 v=104
62256 On ch=1 n=f#5 v=103
62256 On ch=1 n=a5 v=91
62350 On ch=1 n=a5 v=0
62354 On ch=1 n=g#4 v=0
62382 On ch=1 n=c6 v=0
62386 On ch=1 n=f#5 v=0
62446 Par ch=1 c=64 v=63
62450 On ch=1 n=g#3 v=81
62460 Par ch=1 c=64 v=0
62558 On ch=1 n=g#3 v=0
62588 On ch=1 n=f4 v=83
62614 Par ch=1 c=64 v=63
62618 Par ch=1 c=64 v=127
62630 On ch=1 n=a#4 v=105
62632 On ch=1 n=c#6 v=106
62632 On ch=1 n=f5 v=103
62640 On ch=1 n=a#5 v=97
62728 On ch=1 n=f5 v=0
62812 On ch=1 n=d#6 v=98
62814 On ch=1 n=a#5 v=0
62834 On ch=1 n=c#6 v=0
62880 On ch=1 n=d#6 v=0
62964 On ch=1 n=f6 v=97
62988 On ch=1 n=a#4 v=0
63076 On ch=1 n=f4 v=0
63124 On ch=1 n=a#6 v=115
63150 On ch=1 n=f6 v=0
63294 On ch=1 n=c#7 v=105
63320 On ch=1 n=a#6 v=0
63378 On ch=1 n=c#7 v=0
63444 On ch=1 n=f7 v=106
63514 On ch=1 n=f7 v=0
63670 Par ch=1 c=64 v=63
63680 Par ch=1 c=64 v=0
63752 On ch=1 n=b3 v=116
63754 On ch=1 n=b2 v=114
63756 On ch=1 n=g#7 v=118
63762 On ch=1 n=d#7 v=112
63762 On ch=1 n=g#6 v=113
63982 Par ch=1 c=64 v=127
64030 On ch=1 n=g#7 v=0
64076 On ch=1 n=g#6 v=0
64124 On ch=1 n=b2 v=0
64204 On ch=1 n=b3 v=0
64224 On ch=1 n=a#7 v=104
64234 On ch=1 n=a#6 v=104
64282 On ch=1 n=d#7 v=0
64334 On ch=1 n=a#7 v=0
64590 On ch=1 n=d5 v=120
64598 On ch=1 n=d7 v=98
64640 On ch=1 n=a#6 v=0
64664 On ch=1 n=d5 v=0
64776 On ch=1 n=g#7 v=98
64794 On ch=1 n=g#6 v=99
64894 On ch=1 n=g#6 v=0
64896 On ch=1 n=g#7 v=0
65014 On ch=1 n=a#2 v=98
65018 On ch=1 n=a#3 v=116
65028 On ch=1 n=f#7 v=112
65032 On ch=1 n=f#6 v=113
65054 Par ch=1 c=64 v=63
65064 Par ch=1 c=64 v=0
65106 Par ch=1 c=64 v=63
65122 Par ch=1 c=64 v=127
65138 On ch=1 n=f#6 v=0
65152 On ch=1 n=f#7 v=0
65162 On ch=1 n=d7 v=0
65166 On ch=1 n=a#2 v=0
65204 On ch=1 n=a#3 v=0
65216 On ch=1 n=f7 v=97
65232 On ch=1 n=f6 v=77
65278 On ch=1 n=f7 v=0
65294 On ch=1 n=f6 v=0
65398 On ch=1 n=c#5 v=123
65408 On ch=1 n=d#7 v=101
65408 On ch=1 n=c#7 v=112
65412 On ch=1 n=d#6 v=114
65464 On ch=1 n=c#5 v=0
65466 On ch=1 n=d#6 v=0
65508 On ch=1 n=c#7 v=0
65514 On ch=1 n=d#7 v=0
65738 On ch=1 n=e7 v=112
65744 On ch=1 n=e6 v=102
65756 On ch=1 n=a3 v=115
65762 On ch=1 n=a2 v=113
65790 On ch=1 n=a2 v=0
65804 On ch=1 n=e6 v=0
65806 On ch=1 n=e7 v=0
65822 On ch=1 n=a3 v=0
66074 Par ch=1 c=64 v=63
66078 On ch=1 n=c7 v=106
66080 On ch=1 n=f7 v=107
66082 On ch=1 n=f6 v=109
66082 On ch=1 n=c5 v=122
66098 Par ch=1 c=64 v=0
66118 Par ch=1 c=64 v=63
66134 Par ch=1 c=64 v=127
66148 On ch=1 n=c5 v=0
66204 On ch=1 n=f7 v=0
66268 On ch=1 n=f6 v=0
66412 On ch=1 n=c7 v=0
66448 On ch=1 n=g#2 v=115
66448 On ch=1 n=g#3 v=120
66450 On ch=1 n=f#7 v=110
66456 On ch=1 n=f#6 v=115
66502 On ch=1 n=g#2 v=0
66518 On ch=1 n=g#3 v=0
66606 On ch=1 n=f#6 v=0
66612 On ch=1 n=f#7 v=0
66802 On ch=1 n=b4 v=116
66814 On ch=1 n=b6 v=101
66870 On ch=1 n=b4 v=0
66942 On ch=1 n=b6 v=0
66956 On ch=1 n=f7 v=101
66966 On ch=1 n=f6 v=84
67036 On ch=1 n=f7 v=0
67046 On ch=1 n=f6 v=0
67162 On ch=1 n=d#7 v=109
67168 On ch=1 n=d#6 v=110
67170 On ch=1 n=g2 v=123
67174 On ch=1 n=g3 v=120
67200 On ch=1 n=g2 v=0
67222 On ch=1 n=d#6 v=0
67234 On ch=1 n=g3 v=0
67236 On ch=1 n=d#7 v=0
67328 On ch=1 n=c#7 v=95
67336 On ch=1 n=c#6 v=99
67392 On ch=1 n=c#6 v=0
67420 On ch=1 n=c#7 v=0
67504 On ch=1 n=c7 v=106
67506 On ch=1 n=c6 v=107
67508 On ch=1 n=a#4 v=121
67510 On ch=1 n=a#6 v=103
67536 Par ch=1 c=64 v=63
67566 Par ch=1 c=64 v=127
67572 On ch=1 n=c6 v=0
67604 On ch=1 n=a#4 v=0
67628 On ch=1 n=c7 v=0
67708 On ch=1 n=a#6 v=0
67810 On ch=1 n=f#3 v=115
67822 Par ch=1 c=64 v=63
67826 Par ch=1 c=64 v=127
67890 On ch=1 n=f#3 v=0
67912 On ch=1 n=c#7 v=114
67914 On ch=1 n=c#6 v=119
67920 On ch=1 n=a6 v=97
67922 On ch=1 n=a4 v=106
68038 On ch=1 n=a6 v=0
68038 On ch=1 n=c#7 v=0
68072 On ch=1 n=c#6 v=0
68186 On ch=1 n=a4 v=0
68376 On ch=1 n=g#6 v=107
68382 On ch=1 n=f3 v=108
68382 On ch=1 n=g#5 v=99
68388 On ch=1 n=c#6 v=103
68588 Par ch=1 c=64 v=63
68616 Par ch=1 c=64 v=0
68852 On ch=1 n=d#6 v=100
68866 On ch=1 n=c#4 v=88
68924 On ch=1 n=c#6 v=0
69008 Par ch=1 c=64 v=63
69012 Par ch=1 c=64 v=127
69028 On ch=1 n=f3 v=0
69176 On ch=1 n=g#5 v=0
69226 On ch=1 n=c#4 v=0
69260 On ch=1 n=g#4 v=101
69348 On ch=1 n=g#4 v=0
69418 On ch=1 n=c#6 v=110
69428 On ch=1 n=g#6 v=0
69514 On ch=1 n=d#6 v=0
69580 On ch=1 n=g#6 v=106
69586 On ch=1 n=d5 v=92
69586 On ch=1 n=b5 v=103
69630 On ch=1 n=c#6 v=0
69960 On ch=1 n=c#6 v=103
70114 On ch=1 n=b5 v=0
70218 On ch=1 n=d5 v=0
70412 On ch=1 n=g#6 v=0
70498 On ch=1 n=c#6 v=0
70524 On ch=1 n=b5 v=84
70712 On ch=1 n=b5 v=0
70762 On ch=1 n=f#3 v=88
70778 On ch=1 n=d#6 v=93
70780 On ch=1 n=a#5 v=84
70822 Par ch=1 c=64 v=63
70832 Par ch=1 c=64 v=0
70888 Par ch=1 c=64 v=63
70908 Par ch=1 c=64 v=127
70980 On ch=1 n=f#3 v=0
71210 On ch=1 n=d#5 v=92
71218 On ch=1 n=c6 v=92
71252 On ch=1 n=a#5 v=0
71374 On ch=1 n=d#5 v=0
71548 On ch=1 n=d#6 v=0
71586 On ch=1 n=a#4 v=101
71646 On ch=1 n=a#4 v=0
71668 On ch=1 n=c6 v=0
71714 On ch=1 n=a#5 v=108
71876 On ch=1 n=a#5 v=0
71890 On ch=1 n=g#3 v=99
71918 On ch=1 n=f6 v=104
71928 On ch=1 n=a5 v=85
71946 Par ch=1 c=64 v=63
71956 Par ch=1 c=64 v=0
71994 Par ch=1 c=64 v=63
72012 Par ch=1 c=64 v=127
72056 On ch=1 n=g#3 v=0
72284 On ch=1 n=b5 v=99
72328 On ch=1 n=a5 v=0
72328 On ch=1 n=f#5 v=65
72628 On ch=1 n=f#5 v=0
72742 On ch=1 n=c5 v=53
72828 On ch=1 n=f6 v=0
72844 On ch=1 n=a5 v=86
72862 On ch=1 n=b5 v=0
72912 On ch=1 n=a5 v=0
73034 On ch=1 n=c5 v=0
73088 On ch=1 n=f5 v=73
73098 On ch=1 n=c#6 v=78
73116 On ch=1 n=c#5 v=80
73120 On ch=1 n=g#5 v=77
73224 Par ch=1 c=64 v=63
73246 Par ch=1 c=64 v=0
73256 Par ch=1 c=64 v=63
73294 Par ch=1 c=64 v=127
73500 On ch=1 n=c#6 v=0
73552 On ch=1 n=f5 v=0
73592 On ch=1 n=d#5 v=91
73692 On ch=1 n=c#5 v=0
73956 On ch=1 n=g#4 v=89
74002 On ch=1 n=g#4 v=0
74056 On ch=1 n=g#5 v=0
74096 On ch=1 n=c#5 v=93
74186 On ch=1 n=d#5 v=0
74208 On ch=1 n=c#5 v=0
74268 On ch=1 n=f3 v=73
74272 On ch=1 n=b4 v=92
74280 On ch=1 n=g#5 v=94
74524 Par ch=1 c=64 v=63
74562 Par ch=1 c=64 v=0
74668 Par ch=1 c=64 v=63
74678 On ch=1 n=c#5 v=86
74720 Par ch=1 c=64 v=127
74888 On ch=1 n=b4 v=0
75044 On ch=1 n=d4 v=78
75072 On ch=1 n=f3 v=0
75164 On ch=1 n=d4 v=0
75192 On ch=1 n=g#5 v=0
75204 On ch=1 n=c#5 v=0
75214 On ch=1 n=b4 v=84
75418 On ch=1 n=f#3 v=59
75430 On ch=1 n=a#4 v=86
75430 On ch=1 n=d#5 v=86
75460 On ch=1 n=b4 v=0
75526 Par ch=1 c=64 v=63
75560 Par ch=1 c=64 v=0
75692 Par ch=1 c=64 v=63
75720 Par ch=1 c=64 v=127
75798 On ch=1 n=a#4 v=0
75812 On ch=1 n=c5 v=76
76126 On ch=1 n=f#3 v=0
76136 On ch=1 n=d#5 v=0
76156 On ch=1 n=d#4 v=67
76166 On ch=1 n=c5 v=0
76210 On ch=1 n=d#4 v=0
76298 On ch=1 n=a#4 v=70
76412 On ch=1 n=a#4 v=0
76534 Par ch=1 c=64 v=63
76544 Par ch=1 c=64 v=0
76566 On ch=1 n=f5 v=79
76570 On ch=1 n=g#3 v=76
76576 On ch=1 n=a4 v=69
77002 Par ch=1 c=64 v=63
77028 Par ch=1 c=64 v=127
77058 On ch=1 n=b4 v=67
77146 On ch=1 n=g#3 v=0
77174 On ch=1 n=a4 v=0
77380 On ch=1 n=b4 v=0
77616 On ch=1 n=f5 v=0
77616 On ch=1 n=c5 v=51
77624 On ch=1 n=f#4 v=50
77708 On ch=1 n=c5 v=0
77756 On ch=1 n=f#4 v=0
77954 On ch=1 n=a4 v=63
78078 On ch=1 n=a4 v=0
78374 On ch=1 n=c#3 v=58
78412 On ch=1 n=c#5 v=63
78412 On ch=1 n=f4 v=58
78732 Par ch=1 c=64 v=63
78772 Par ch=1 c=64 v=0
78972 On ch=1 n=g#3 v=46
78990 Par ch=1 c=64 v=63
79012 Par ch=1 c=64 v=127
79304 On ch=1 n=c#3 v=0
79324 On ch=1 n=c#4 v=54
79394 On ch=1 n=g#3 v=0
79410 On ch=1 n=c#4 v=0
79442 On ch=1 n=f4 v=0
79524 On ch=1 n=c#5 v=0
79738 On ch=1 n=f#4 v=65
79744 On ch=1 n=a#4 v=58
79756 On ch=1 n=g#4 v=37
79922 On ch=1 n=g#4 v=0
79996 On ch=1 n=f#4 v=0
80142 On ch=1 n=g#3 v=59
80190 On ch=1 n=a#4 v=0
80198 On ch=1 n=g#3 v=0
80278 On ch=1 n=f5 v=63
80420 On ch=1 n=f5 v=0
80446 On ch=1 n=a#4 v=64
80462 On ch=1 n=f#4 v=59
80790 On ch=1 n=g#2 v=81
80944 Par ch=1 c=64 v=63
80944 On ch=1 n=f5 v=51
80974 Par ch=1 c=64 v=0
80978 On ch=1 n=f#4 v=0
81062 On ch=1 n=a#4 v=0
81130 On ch=1 n=f5 v=0
81154 On ch=1 n=f#4 v=57
81162 On ch=1 n=c5 v=66
81176 On ch=1 n=g#3 v=63
81202 Par ch=1 c=64 v=63
81210 On ch=1 n=g#2 v=0
81212 Par ch=1 c=64 v=127
81270 On ch=1 n=g#3 v=0
81364 On ch=1 n=f#4 v=0
81526 On ch=1 n=g#4 v=62
81616 On ch=1 n=c5 v=0
81676 On ch=1 n=f5 v=63
81788 On ch=1 n=f5 v=0
81872 On ch=1 n=c#4 v=56
81884 On ch=1 n=c#5 v=78
81904 On ch=1 n=f4 v=58
81956 Par ch=1 c=64 v=63
81966 Par ch=1 c=64 v=0
82012 Par ch=1 c=64 v=63
82036 Par ch=1 c=64 v=127
82194 On ch=1 n=c#5 v=0
82260 On ch=1 n=g#3 v=46
82404 On ch=1 n=c5 v=84
82412 On ch=1 n=f4 v=0
82574 On ch=1 n=c5 v=0
82580 On ch=1 n=a#4 v=75
82594 On ch=1 n=f4 v=48
82658 Par ch=1 c=64 v=63
82668 Par ch=1 c=64 v=0
82776 Par ch=1 c=64 v=63
82794 Par ch=1 c=64 v=127
82836 On ch=1 n=g#3 v=0
82924 On ch=1 n=g#4 v=0
82924 On ch=1 n=g#3 v=52
82966 On ch=1 n=c#4 v=0
83272 On ch=1 n=f4 v=0
83274 On ch=1 n=c#4 v=62
83444 On ch=1 n=a#4 v=0
83472 Par ch=1 c=67 v=127
83650 On ch=1 n=g#4 v=58
83668 On ch=1 n=g#3 v=0
83698 On ch=1 n=c#4 v=0
83738 On ch=1 n=g#4 v=0
84096 On ch=1 n=a#5 v=72
84110 On ch=1 n=f#5 v=58
84114 On ch=1 n=g#5 v=40
84194 Par ch=1 c=64 v=63
84212 Par ch=1 c=64 v=0
84270 Par ch=1 c=64 v=63
84310 Par ch=1 c=64 v=127
84522 On ch=1 n=g#4 v=48
84532 On ch=1 n=g#5 v=0
84532 On ch=1 n=f#5 v=0
84654 On ch=1 n=g#4 v=0
84658 On ch=1 n=a#5 v=0
84676 On ch=1 n=f6 v=66
84822 On ch=1 n=f6 v=0
84854 On ch=1 n=a#5 v=70
84864 On ch=1 n=f#5 v=53
85188 On ch=1 n=g#3 v=62
85240 Par ch=1 c=64 v=63
85256 Par ch=1 c=64 v=0
85350 On ch=1 n=f6 v=65
85370 Par ch=1 c=64 v=63
85410 Par ch=1 c=64 v=127
85442 On ch=1 n=f#5 v=0
85494 On ch=1 n=a#5 v=0
85514 On ch=1 n=f6 v=0
85544 On ch=1 n=g#4 v=67
85548 On ch=1 n=c6 v=83
85556 On ch=1 n=f#5 v=50
85640 On ch=1 n=g#3 v=0
85676 On ch=1 n=g#4 v=0
85762 On ch=1 n=f#5 v=0
85930 On ch=1 n=g#5 v=80
86050 On ch=1 n=c6 v=0
86088 On ch=1 n=f6 v=58
86264 On ch=1 n=f6 v=0
86282 On ch=1 n=c#6 v=80
86284 On ch=1 n=c#5 v=61
86300 On ch=1 n=f5 v=25
86384 Par ch=1 c=64 v=63
86466 Par ch=1 c=64 v=127
86666 On ch=1 n=c#6 v=0
86686 On ch=1 n=g#4 v=45
86762 On ch=1 n=g#5 v=0
86844 On ch=1 n=c6 v=76
86876 On ch=1 n=c#5 v=0
86906 On ch=1 n=f5 v=0
87004 On ch=1 n=g#4 v=0
87030 On ch=1 n=a#5 v=78
87032 On ch=1 n=f5 v=51
87060 On ch=1 n=c6 v=0
87394 On ch=1 n=g#4 v=57
87450 Par ch=1 c=64 v=63
87490 Par ch=1 c=64 v=0
87678 Par ch=1 c=64 v=63
87710 Par ch=1 c=64 v=127
87752 On ch=1 n=c#4 v=58
88114 On ch=1 n=f5 v=0
88174 On ch=1 n=g#4 v=0
88204 On ch=1 n=g#3 v=52
88206 On ch=1 n=a#5 v=0
88482 On ch=1 n=c#4 v=0
88638 Par ch=1 c=67 v=0
88798 On ch=1 n=a#4 v=76
88800 On ch=1 n=f#3 v=65
88802 On ch=1 n=c#4 v=49
88844 On ch=1 n=g#3 v=0
89126 Par ch=1 c=64 v=63
89146 Par ch=1 c=64 v=0
89242 Par ch=1 c=64 v=63
89262 Par ch=1 c=64 v=127
89490 On ch=1 n=f5 v=75
89604 On ch=1 n=a#4 v=0
89672 On ch=1 n=a#4 v=73
89772 On ch=1 n=f5 v=0
90256 On ch=1 n=f5 v=66
90414 On ch=1 n=a#4 v=0
90458 On ch=1 n=f5 v=0
90460 On ch=1 n=a4 v=41
90464 On ch=1 n=d#5 v=81
90486 On ch=1 n=c4 v=44
90542 On ch=1 n=c#4 v=0
90630 Par ch=1 c=64 v=63
90644 Par ch=1 c=64 v=0
90728 Par ch=1 c=64 v=63
90752 Par ch=1 c=64 v=127
90948 On ch=1 n=f#3 v=0
91000 On ch=1 n=c4 v=0
91030 On ch=1 n=a4 v=0
91122 On ch=1 n=d#5 v=0
91138 On ch=1 n=f5 v=54
91230 On ch=1 n=f5 v=0
91488 On ch=1 n=f#4 v=52
91496 On ch=1 n=c#5 v=58
91518 On ch=1 n=a#5 v=69
91626 Par ch=1 c=64 v=63
91646 Par ch=1 c=64 v=0
91782 Par ch=1 c=64 v=63
91798 Par ch=1 c=64 v=127
92086 On ch=1 n=f6 v=70
92170 On ch=1 n=a#5 v=0
92258 On ch=1 n=a#5 v=60
92318 On ch=1 n=f6 v=0
92458 Par ch=1 c=64 v=63
92476 Par ch=1 c=64 v=0
92516 Par ch=1 c=64 v=63
92550 Par ch=1 c=64 v=127
92938 On ch=1 n=f6 v=63
92986 On ch=1 n=c#5 v=0
93084 On ch=1 n=a#5 v=0
93230 On ch=1 n=f6 v=0
93244 On ch=1 n=d#6 v=58
93280 On ch=1 n=c5 v=38
93288 On ch=1 n=a5 v=55
93380 Par ch=1 c=64 v=63
93406 Par ch=1 c=64 v=0
93476 Par ch=1 c=64 v=63
93510 Par ch=1 c=64 v=127
93746 On ch=1 n=a5 v=0
93850 On ch=1 n=c5 v=0
93858 On ch=1 n=f#4 v=0
94184 On ch=1 n=f6 v=54
94210 On ch=1 n=d#6 v=0
94366 On ch=1 n=f6 v=0
94516 Par ch=1 c=67 v=127
94686 On ch=1 n=c#6 v=40
94692 On ch=1 n=f6 v=60
94698 On ch=1 n=c#5 v=53
94700 On ch=1 n=f5 v=30
94716 On ch=1 n=a5 v=40
94832 Par ch=1 c=64 v=63
94858 Par ch=1 c=64 v=0
95078 On ch=1 n=a#5 v=56
95150 On ch=1 n=a5 v=0
95250 Par ch=1 c=64 v=63
95266 Par ch=1 c=64 v=127
95566 On ch=1 n=a#5 v=0
95624 On ch=1 n=a5 v=45
95632 On ch=1 n=f5 v=0
95768 On ch=1 n=a5 v=0
95774 On ch=1 n=g#5 v=59
95948 On ch=1 n=g#5 v=0
95960 On ch=1 n=g5 v=57
96104 On ch=1 n=f#5 v=67
96110 On ch=1 n=g5 v=0
96242 On ch=1 n=f6 v=0
96330 On ch=1 n=c#6 v=0
96440 On ch=1 n=c#5 v=0
96466 On ch=1 n=f5 v=52
96470 On ch=1 n=f#5 v=0
96824 On ch=1 n=f5 v=0
96838 On ch=1 n=g#5 v=51
96840 On ch=1 n=g#6 v=67
96850 On ch=1 n=c#6 v=60
96868 On ch=1 n=e5 v=39
96890 Par ch=1 c=64 v=63
96914 Par ch=1 c=64 v=0
97096 Par ch=1 c=64 v=63
97122 Par ch=1 c=64 v=127
97190 On ch=1 n=f5 v=53
97240 On ch=1 n=e5 v=0
97358 On ch=1 n=g#5 v=0
97372 On ch=1 n=f5 v=0
97382 On ch=1 n=c#6 v=0
97422 On ch=1 n=g#6 v=0
97768 On ch=1 n=e5 v=42
97928 On ch=1 n=e5 v=0
97952 On ch=1 n=d#5 v=64
97964 On ch=1 n=c#7 v=70
97976 On ch=1 n=f6 v=65
97982 On ch=1 n=c#6 v=40
98020 Par ch=1 c=64 v=63
98094 On ch=1 n=d#5 v=0
98112 On ch=1 n=d5 v=59
98144 Par ch=1 c=64 v=127
98260 On ch=1 n=c#5 v=63
98280 On ch=1 n=d5 v=0
98364 On ch=1 n=c#6 v=0
98438 On ch=1 n=f6 v=0
98530 On ch=1 n=c#7 v=0
98606 On ch=1 n=c#5 v=0
98640 On ch=1 n=c5 v=39
98960 On ch=1 n=c5 v=0
99022 On ch=1 n=c#7 v=56
99026 On ch=1 n=b4 v=53
99028 On ch=1 n=f7 v=65
99038 On ch=1 n=f6 v=43
99052 Par ch=1 c=64 v=63
99094 Par ch=1 c=64 v=0
99114 Par ch=1 c=64 v=63
99184 Par ch=1 c=64 v=127
99400 On ch=1 n=c5 v=48
99430 On ch=1 n=b4 v=0
99538 On ch=1 n=c5 v=0
99574 On ch=1 n=f6 v=0
99636 On ch=1 n=f7 v=0
99660 On ch=1 n=c#7 v=0
99950 On ch=1 n=b4 v=47
100122 On ch=1 n=a#4 v=67
100128 On ch=1 n=g#7 v=70
100130 On ch=1 n=b4 v=0
100152 On ch=1 n=g#6 v=39
100166 On ch=1 n=e7 v=60
100178 Par ch=1 c=64 v=63
100226 Par ch=1 c=64 v=0
100296 Par ch=1 c=64 v=63
100354 Par ch=1 c=64 v=127
100492 On ch=1 n=b4 v=52
100510 On ch=1 n=a#4 v=0
100572 On ch=1 n=g#6 v=0
100660 On ch=1 n=g#7 v=0
100668 On ch=1 n=e7 v=0
101024 On ch=1 n=b4 v=0
101038 On ch=1 n=a#4 v=53
101224 On ch=1 n=a#4 v=0
101232 Par ch=1 c=64 v=63
101258 On ch=1 n=a4 v=47
101268 On ch=1 n=c#8 v=59
101274 On ch=1 n=c#7 v=40
101286 On ch=1 n=a7 v=55
101330 Par ch=1 c=64 v=127
101658 On ch=1 n=a#4 v=48
101688 On ch=1 n=c#7 v=0
101694 On ch=1 n=a4 v=0
101724 On ch=1 n=a7 v=0
101766 On ch=1 n=c#8 v=0
101794 On ch=1 n=a#4 v=0
102280 On ch=1 n=a4 v=37
102334 On ch=1 n=a4 v=0
102508 Par ch=1 c=64 v=63
102512 On ch=1 n=c#8 v=55
102536 On ch=1 n=e8 v=46
102538 On ch=1 n=g4 v=23
102552 On ch=1 n=e7 v=32
102572 Par ch=1 c=64 v=127
102712 On ch=1 n=g4 v=0
102730 On ch=1 n=e4 v=42
102896 On ch=1 n=e4 v=0
102904 On ch=1 n=c#4 v=33
102990 On ch=1 n=c#4 v=0
103092 On ch=1 n=a3 v=39
103298 On ch=1 n=a3 v=0
103308 On ch=1 n=g3 v=51
103406 On ch=1 n=e7 v=0
103450 On ch=1 n=g3 v=0
103488 On ch=1 n=c#8 v=0
103514 On ch=1 n=e3 v=47
103546 On ch=1 n=e8 v=0
103802 On ch=1 n=c#3 v=36
103814 On ch=1 n=c#8 v=53
103816 On ch=1 n=e3 v=0
103838 On ch=1 n=f8 v=39
103838 On ch=1 n=f7 v=27
103898 Par ch=1 c=64 v=63
103932 Par ch=1 c=64 v=0
104830 Par ch=1 c=64 v=63
104842 Par ch=1 c=64 v=127
104950 On ch=1 n=c#3 v=0
104958 On ch=1 n=f8 v=0
104998 On ch=1 n=f7 v=0
105006 On ch=1 n=c#8 v=0
105806 On ch=1 n=f6 v=45
105808 On ch=1 n=c#6 v=25
105810 On ch=1 n=g#6 v=47
105818 On ch=1 n=f5 v=43
105930 On ch=1 n=f5 v=0
107782 Par ch=1 c=67 v=0
107868 On ch=1 n=c#6 v=0
107896 On ch=1 n=f6 v=0
107904 On ch=1 n=g#6 v=0
108120 Par ch=1 c=64 v=63
108158 Par ch=1 c=64 v=0
108158 Meta TrkEnd
TrkEnd
