MFile 1 2 480
MTrk
0 Tempo 500000
0 TimeSig 6/8 24 8
0 Meta TrkEnd
TrkEnd
MTrk
0 SeqSpec 43 00 01 00
0 Meta TrkName "<Master Volume>"
0 Meta 0x21 00
0 SysEx f0 41 10 42 12 40 00 7f 00 41 f7
0 SysEx f0 41 10 42 12 40 00 04 64 58 f7
192 Meta Text "<Master Reverve>"
192 SysEx f0 41 10 42 12 40 01 30 03 0c f7
192 SysEx f0 41 10 42 12 40 01 33 50 3c f7
192 SysEx f0 41 10 42 12 40 01 34 3c 4f f7
576 Par ch=1 c=0 v=0
580 Par ch=1 c=32 v=1
584 PrCh ch=1 p=0
780 Par ch=1 c=7 v=100
972 Par ch=1 c=11 v=80
1164 Par ch=1 c=10 v=64
1356 Par ch=1 c=1 v=0
1356 Meta Text "<part reverve>"
1356 Par ch=1 c=91 v=90
1452 Par ch=1 c=99 v=1
1456 Par ch=1 c=98 v=32
1460 Par ch=1 c=6 v=62
1464 Par ch=1 c=99 v=1
1468 Par ch=1 c=98 v=33
1472 Par ch=1 c=6 v=54
1476 Par ch=1 c=99 v=1
1480 Par ch=1 c=98 v=99
1484 Par ch=1 c=6 v=62
1488 Par ch=1 c=99 v=1
1492 Par ch=1 c=98 v=100
1496 Par ch=1 c=6 v=60
1500 Par ch=1 c=99 v=1
1504 Par ch=1 c=98 v=102
1508 Par ch=1 c=6 v=70
2970 On ch=1 n=f5 v=32
2980 On ch=1 n=g5 v=33
2992 Par ch=1 c=64 v=63
3016 Par ch=1 c=64 v=127
3166 On ch=1 n=f5 v=0
3178 On ch=1 n=g5 v=0
3336 On ch=1 n=g5 v=42
3346 On ch=1 n=f5 v=44
3476 On ch=1 n=f5 v=0
3494 On ch=1 n=g5 v=0
3590 On ch=1 n=g5 v=47
3600 On ch=1 n=f5 v=50
3732 On ch=1 n=f5 v=0
3758 On ch=1 n=g5 v=0
3832 On ch=1 n=g5 v=51
3840 On ch=1 n=f5 v=50
3950 On ch=1 n=f5 v=0
3960 On ch=1 n=g5 v=0
4064 On ch=1 n=g5 v=48
4072 On ch=1 n=f5 v=49
4196 On ch=1 n=f5 v=0
4214 On ch=1 n=g5 v=0
4296 On ch=1 n=g5 v=55
4302 On ch=1 n=f5 v=44
4422 On ch=1 n=f5 v=0
4438 On ch=1 n=g5 v=0
4536 On ch=1 n=g4 v=71
4536 On ch=1 n=g5 v=52
4548 On ch=1 n=f5 v=35
4694 On ch=1 n=f5 v=0
4720 On ch=1 n=g5 v=0
4778 On ch=1 n=a4 v=74
4788 On ch=1 n=g5 v=46
4796 On ch=1 n=f5 v=52
4854 On ch=1 n=g4 v=0
4930 On ch=1 n=f5 v=0
4954 On ch=1 n=g5 v=0
4990 On ch=1 n=b4 v=90
5000 On ch=1 n=g5 v=33
5014 On ch=1 n=f5 v=55
5050 On ch=1 n=a4 v=0
5114 On ch=1 n=f5 v=0
5144 On ch=1 n=g5 v=0
5210 On ch=1 n=g4 v=84
5222 On ch=1 n=g5 v=56
5238 On ch=1 n=f5 v=56
5256 On ch=1 n=b4 v=0
5338 On ch=1 n=f5 v=0
5364 On ch=1 n=g5 v=0
5432 On ch=1 n=e4 v=88
5438 On ch=1 n=g5 v=62
5454 On ch=1 n=f5 v=59
5480 On ch=1 n=g4 v=0
5578 On ch=1 n=f5 v=0
5594 On ch=1 n=g5 v=0
5598 On ch=1 n=e4 v=0
5676 On ch=1 n=g5 v=59
5684 On ch=1 n=e4 v=98
5688 On ch=1 n=f5 v=59
5738 Par ch=1 c=64 v=63
5760 Par ch=1 c=64 v=0
5836 On ch=1 n=f5 v=0
5846 On ch=1 n=g5 v=0
5862 Par ch=1 c=64 v=63
5898 Par ch=1 c=64 v=127
5922 On ch=1 n=g5 v=65
5928 On ch=1 n=f5 v=58
6042 On ch=1 n=f5 v=0
6064 On ch=1 n=g5 v=0
6146 On ch=1 n=g5 v=54
6160 On ch=1 n=f5 v=47
6266 On ch=1 n=f5 v=0
6296 On ch=1 n=g5 v=0
6374 On ch=1 n=d4 v=86
6390 On ch=1 n=g5 v=52
6410 On ch=1 n=f5 v=50
6450 On ch=1 n=e4 v=0
6460 Par ch=1 c=64 v=63
6534 On ch=1 n=f5 v=0
6556 On ch=1 n=g5 v=0
6602 Par ch=1 c=64 v=127
6626 On ch=1 n=g5 v=51
6642 On ch=1 n=f5 v=44
6746 On ch=1 n=f5 v=0
6768 On ch=1 n=g5 v=0
6852 On ch=1 n=g5 v=56
6870 On ch=1 n=f5 v=53
6876 On ch=1 n=d4 v=0
6976 On ch=1 n=f5 v=0
7002 On ch=1 n=g5 v=0
7098 On ch=1 n=g5 v=52
7112 On ch=1 n=f5 v=49
7194 Par ch=1 c=64 v=63
7230 Par ch=1 c=64 v=0
7268 On ch=1 n=f5 v=0
7290 On ch=1 n=g5 v=0
7298 Par ch=1 c=64 v=63
7340 Par ch=1 c=64 v=127
7358 On ch=1 n=b4 v=78
7360 On ch=1 n=g5 v=56
7370 On ch=1 n=f5 v=53
7528 On ch=1 n=f5 v=0
7548 On ch=1 n=g5 v=0
7602 On ch=1 n=c5 v=85
7624 On ch=1 n=g5 v=75
7628 On ch=1 n=f5 v=54
7668 On ch=1 n=b4 v=0
7750 On ch=1 n=f5 v=0
7772 On ch=1 n=g5 v=0
7816 On ch=1 n=d5 v=89
7844 On ch=1 n=g5 v=73
7856 On ch=1 n=f5 v=43
7860 On ch=1 n=c5 v=0
7944 On ch=1 n=f5 v=0
7974 On ch=1 n=g5 v=0
8024 On ch=1 n=b4 v=97
8042 On ch=1 n=g5 v=64
8054 On ch=1 n=d5 v=0
8054 On ch=1 n=f5 v=73
8158 On ch=1 n=f5 v=0
8182 On ch=1 n=g5 v=0
8224 On ch=1 n=b4 v=0
8244 On ch=1 n=a4 v=101
8250 On ch=1 n=g5 v=65
8262 On ch=1 n=f5 v=64
8370 On ch=1 n=f5 v=0
8386 On ch=1 n=g5 v=0
8416 On ch=1 n=a4 v=0
8460 On ch=1 n=g5 v=60
8466 On ch=1 n=a4 v=88
8470 On ch=1 n=f5 v=63
8576 On ch=1 n=f5 v=0
8596 On ch=1 n=g5 v=0
8608 Par ch=1 c=64 v=63
8634 Par ch=1 c=64 v=0
8676 On ch=1 n=g5 v=58
8682 On ch=1 n=f5 v=68
8724 Par ch=1 c=64 v=63
8762 Par ch=1 c=64 v=127
8778 On ch=1 n=f5 v=0
8800 On ch=1 n=g5 v=0
8878 On ch=1 n=g5 v=62
8892 On ch=1 n=f5 v=70
8988 On ch=1 n=f5 v=0
9014 On ch=1 n=g5 v=0
9078 On ch=1 n=a4 v=0
9094 On ch=1 n=g5 v=57
9104 On ch=1 n=g4 v=74
9106 On ch=1 n=f5 v=63
9184 Par ch=1 c=64 v=63
9226 On ch=1 n=f5 v=0
9244 On ch=1 n=g5 v=0
9286 Par ch=1 c=64 v=127
9314 On ch=1 n=g5 v=66
9326 On ch=1 n=f5 v=53
9436 On ch=1 n=f5 v=0
9452 On ch=1 n=g5 v=0
9532 On ch=1 n=g5 v=60
9536 On ch=1 n=g4 v=0
9542 On ch=1 n=f5 v=70
9630 On ch=1 n=f5 v=0
9650 On ch=1 n=g5 v=0
9758 On ch=1 n=g5 v=74
9778 On ch=1 n=f5 v=55
9892 On ch=1 n=g5 v=0
9898 On ch=1 n=f5 v=0
10062 On ch=1 n=f5 v=107
10094 On ch=1 n=g5 v=57
10158 On ch=1 n=g5 v=0
10392 On ch=1 n=g5 v=102
10512 On ch=1 n=f5 v=0
10638 On ch=1 n=g5 v=0
10696 On ch=1 n=a5 v=96
10718 On ch=1 n=g5 v=49
10736 On ch=1 n=f5 v=50
10788 On ch=1 n=f5 v=0
10804 On ch=1 n=g5 v=0
10980 On ch=1 n=a5 v=0
10998 On ch=1 n=g5 v=96
11020 On ch=1 n=f5 v=87
11114 On ch=1 n=f5 v=0
11240 On ch=1 n=g5 v=0
11276 On ch=1 n=f5 v=97
11292 On ch=1 n=g5 v=86
11550 On ch=1 n=b4 v=91
11674 On ch=1 n=f5 v=0
11686 On ch=1 n=g5 v=0
11804 On ch=1 n=a4 v=94
11820 On ch=1 n=b4 v=0
11880 On ch=1 n=g5 v=63
11888 On ch=1 n=f5 v=65
12050 On ch=1 n=g5 v=0
12056 On ch=1 n=f5 v=0
12102 On ch=1 n=g4 v=85
12136 On ch=1 n=f5 v=61
12138 On ch=1 n=g5 v=68
12150 On ch=1 n=a4 v=0
12430 On ch=1 n=f4 v=84
12436 On ch=1 n=g4 v=0
12504 On ch=1 n=f5 v=0
12522 On ch=1 n=g5 v=0
12698 On ch=1 n=b3 v=78
12752 On ch=1 n=f4 v=0
12792 On ch=1 n=g5 v=59
12798 On ch=1 n=f5 v=57
12864 Par ch=1 c=64 v=63
12906 Par ch=1 c=64 v=0
12956 On ch=1 n=a3 v=87
12972 Par ch=1 c=64 v=63
12994 On ch=1 n=f5 v=0
13002 On ch=1 n=g5 v=0
13026 Par ch=1 c=64 v=127
13030 On ch=1 n=b3 v=0
13082 On ch=1 n=g5 v=66
13092 On ch=1 n=f5 v=55
13178 On ch=1 n=b3 v=70
13246 On ch=1 n=a3 v=0
13464 On ch=1 n=a3 v=84
13514 On ch=1 n=f5 v=0
13530 On ch=1 n=g5 v=0
13552 On ch=1 n=b3 v=0
13870 Par ch=1 c=64 v=63
13890 On ch=1 n=g5 v=53
13892 On ch=1 n=f#5 v=59
13896 On ch=1 n=d#5 v=61
14008 Par ch=1 c=64 v=127
14138 On ch=1 n=d#5 v=0
14142 On ch=1 n=g5 v=0
14144 On ch=1 n=f#5 v=0
14250 On ch=1 n=f#5 v=50
14256 On ch=1 n=d#5 v=50
14258 On ch=1 n=g5 v=59
14590 On ch=1 n=f#5 v=0
14598 On ch=1 n=b2 v=64
14636 On ch=1 n=d#5 v=0
14644 On ch=1 n=a3 v=0
14660 On ch=1 n=g5 v=0
14772 Par ch=1 c=64 v=63
14970 Par ch=1 c=64 v=127
15030 On ch=1 n=f5 v=31
15030 On ch=1 n=g5 v=29
15038 On ch=1 n=d5 v=37
15230 On ch=1 n=f5 v=0
15240 On ch=1 n=d5 v=0
15260 On ch=1 n=g5 v=0
15590 On ch=1 n=g5 v=25
15606 On ch=1 n=f5 v=34
15610 On ch=1 n=d5 v=29
16104 On ch=1 n=d5 v=0
16290 On ch=1 n=f5 v=0
16318 On ch=1 n=c3 v=44
16320 On ch=1 n=g5 v=0
16322 On ch=1 n=b2 v=0
16506 Par ch=1 c=64 v=63
16564 Par ch=1 c=64 v=0
16648 Par ch=1 c=64 v=63
16712 Par ch=1 c=64 v=127
17068 On ch=1 n=c3 v=0
17070 On ch=1 n=g5 v=25
17096 On ch=1 n=c5 v=19
17100 On ch=1 n=e5 v=31
17308 On ch=1 n=e5 v=0
17318 On ch=1 n=c5 v=0
17578 On ch=1 n=c5 v=24
17584 On ch=1 n=e5 v=28
17804 On ch=1 n=e5 v=0
17836 On ch=1 n=c5 v=0
17968 On ch=1 n=b4 v=68
17994 On ch=1 n=g5 v=0
18054 On ch=1 n=e5 v=20
18238 On ch=1 n=e5 v=0
18456 On ch=1 n=e5 v=29
18464 On ch=1 n=c5 v=22
18606 On ch=1 n=c5 v=0
18616 On ch=1 n=e5 v=0
18834 On ch=1 n=e5 v=38
18844 On ch=1 n=c5 v=24
19080 On ch=1 n=c5 v=0
19118 On ch=1 n=a4 v=76
19146 On ch=1 n=e5 v=0
19168 On ch=1 n=b4 v=0
19552 On ch=1 n=e5 v=46
19560 On ch=1 n=c6 v=76
19564 On ch=1 n=c5 v=47
19730 On ch=1 n=c5 v=0
19734 On ch=1 n=e5 v=0
19884 On ch=1 n=c5 v=57
19884 On ch=1 n=d6 v=89
19900 On ch=1 n=e5 v=41
19954 On ch=1 n=c6 v=0
20138 On ch=1 n=g4 v=51
20166 On ch=1 n=e6 v=93
20224 Par ch=1 c=64 v=63
20260 On ch=1 n=d6 v=0
20270 Par ch=1 c=64 v=0
20272 On ch=1 n=a4 v=0
20322 Par ch=1 c=64 v=63
20342 On ch=1 n=c5 v=0
20358 Par ch=1 c=64 v=127
20386 On ch=1 n=e5 v=0
20596 On ch=1 n=c5 v=43
20602 On ch=1 n=b5 v=82
20608 On ch=1 n=e5 v=23
20632 On ch=1 n=e6 v=0
20780 On ch=1 n=c5 v=0
20822 On ch=1 n=e5 v=0
20942 On ch=1 n=a5 v=86
20964 On ch=1 n=e5 v=48
20970 On ch=1 n=c5 v=59
21002 On ch=1 n=b5 v=0
21022 On ch=1 n=e5 v=0
21024 On ch=1 n=c5 v=0
21038 On ch=1 n=a5 v=0
21054 On ch=1 n=g4 v=0
21328 On ch=1 n=c4 v=50
21378 On ch=1 n=g5 v=73
21676 Par ch=1 c=64 v=63
21710 Par ch=1 c=64 v=0
21792 Par ch=1 c=64 v=63
21830 Par ch=1 c=64 v=127
21860 On ch=1 n=g4 v=51
21860 On ch=1 n=c5 v=62
21860 On ch=1 n=e5 v=51
22032 On ch=1 n=c5 v=0
22046 On ch=1 n=g4 v=0
22100 On ch=1 n=e5 v=0
22156 On ch=1 n=c4 v=0
22188 On ch=1 n=e5 v=41
22192 On ch=1 n=g4 v=43
22210 On ch=1 n=c5 v=61
22440 On ch=1 n=g3 v=84
22484 On ch=1 n=c5 v=0
22526 On ch=1 n=g4 v=0
22538 On ch=1 n=e5 v=0
22686 On ch=1 n=c5 v=82
22690 On ch=1 n=g4 v=55
22838 On ch=1 n=g5 v=0
22868 On ch=1 n=g4 v=0
22898 On ch=1 n=c5 v=0
22968 On ch=1 n=e5 v=101
23002 On ch=1 n=g4 v=46
23004 On ch=1 n=c5 v=74
23018 On ch=1 n=g3 v=0
23064 On ch=1 n=g4 v=0
23084 On ch=1 n=c5 v=0
23306 On ch=1 n=d4 v=75
23430 On ch=1 n=g#4 v=93
23486 On ch=1 n=g5 v=50
23502 On ch=1 n=e5 v=0
23672 Par ch=1 c=64 v=63
23694 Par ch=1 c=64 v=0
23764 Par ch=1 c=64 v=63
23792 Par ch=1 c=64 v=127
23832 On ch=1 n=g5 v=0
23946 On ch=1 n=g5 v=60
23948 On ch=1 n=f5 v=76
24078 On ch=1 n=g#4 v=0
24162 On ch=1 n=g5 v=0
24178 On ch=1 n=f5 v=0
24256 On ch=1 n=g5 v=63
24260 On ch=1 n=f5 v=55
24316 On ch=1 n=d4 v=0
24510 On ch=1 n=a4 v=87
24522 On ch=1 n=g3 v=68
24704 On ch=1 n=f5 v=0
24706 On ch=1 n=g5 v=0
24836 On ch=1 n=g5 v=76
24838 On ch=1 n=f5 v=75
24868 On ch=1 n=g3 v=0
25132 On ch=1 n=f5 v=0
25134 On ch=1 n=g5 v=0
25206 On ch=1 n=a4 v=0
25252 On ch=1 n=d5 v=87
25270 On ch=1 n=g5 v=59
25280 On ch=1 n=f5 v=51
25672 On ch=1 n=d5 v=0
25706 On ch=1 n=f5 v=0
25742 On ch=1 n=g5 v=0
25790 On ch=1 n=c4 v=52
25808 On ch=1 n=d5 v=85
25836 On ch=1 n=e5 v=71
25992 Par ch=1 c=64 v=63
26010 Par ch=1 c=64 v=127
26210 On ch=1 n=e5 v=0
26260 On ch=1 n=g5 v=64
26276 On ch=1 n=e5 v=36
26492 On ch=1 n=e5 v=0
26494 On ch=1 n=g5 v=0
26584 On ch=1 n=g4 v=65
26610 On ch=1 n=g5 v=43
26614 On ch=1 n=d5 v=0
26626 On ch=1 n=e5 v=28
26776 On ch=1 n=c4 v=0
26826 On ch=1 n=g4 v=0
26880 On ch=1 n=e5 v=0
26884 On ch=1 n=g5 v=0
26902 On ch=1 n=b3 v=76
27214 On ch=1 n=e5 v=63
27224 On ch=1 n=g4 v=42
27392 On ch=1 n=g4 v=0
27394 On ch=1 n=e5 v=0
27514 On ch=1 n=g4 v=50
27524 On ch=1 n=e5 v=55
27754 On ch=1 n=g4 v=0
27804 On ch=1 n=a3 v=79
27862 On ch=1 n=e5 v=0
27908 On ch=1 n=b3 v=0
28018 Par ch=1 c=64 v=63
28028 Par ch=1 c=64 v=0
28072 Par ch=1 c=64 v=63
28098 Par ch=1 c=64 v=127
28318 On ch=1 n=c6 v=90
28320 On ch=1 n=a3 v=0
28664 On ch=1 n=c6 v=0
28710 On ch=1 n=e5 v=71
28746 On ch=1 n=g4 v=46
28754 On ch=1 n=c6 v=103
28790 On ch=1 n=e5 v=0
28806 On ch=1 n=g4 v=0
28996 On ch=1 n=c6 v=0
29044 On ch=1 n=g3 v=93
29046 On ch=1 n=c6 v=101
29162 On ch=1 n=g3 v=0
29346 On ch=1 n=b5 v=107
29414 On ch=1 n=c6 v=0
29582 On ch=1 n=e5 v=82
29590 On ch=1 n=g4 v=66
29604 On ch=1 n=c6 v=113
29652 On ch=1 n=e5 v=0
29672 On ch=1 n=b5 v=0
29704 On ch=1 n=g4 v=0
29930 On ch=1 n=d6 v=100
30012 Par ch=1 c=64 v=63
30020 Par ch=1 c=64 v=0
30024 On ch=1 n=c6 v=0
30126 Par ch=1 c=64 v=63
30136 Par ch=1 c=64 v=127
30314 On ch=1 n=d6 v=0
30326 On ch=1 n=a3 v=78
30328 On ch=1 n=d3 v=80
30520 On ch=1 n=d3 v=0
30530 On ch=1 n=a3 v=0
30706 On ch=1 n=c5 v=63
30712 On ch=1 n=f#4 v=40
30712 On ch=1 n=e5 v=46
30988 On ch=1 n=a5 v=91
31018 On ch=1 n=c5 v=0
31070 On ch=1 n=f#4 v=0
31118 On ch=1 n=e5 v=0
31220 On ch=1 n=a5 v=0
31284 On ch=1 n=c5 v=57
31294 On ch=1 n=f#4 v=40
31296 On ch=1 n=e5 v=59
31394 On ch=1 n=f#4 v=0
31452 On ch=1 n=c5 v=0
31560 On ch=1 n=e5 v=0
31682 On ch=1 n=e6 v=60
31712 On ch=1 n=c6 v=56
31720 On ch=1 n=f#5 v=63
32260 On ch=1 n=e7 v=54
32268 On ch=1 n=f#6 v=49
32288 On ch=1 n=c7 v=38
32330 On ch=1 n=f#6 v=0
32460 On ch=1 n=c7 v=0
32470 On ch=1 n=e7 v=0
32556 On ch=1 n=e6 v=0
32758 On ch=1 n=f#5 v=0
32830 On ch=1 n=c6 v=0
33088 On ch=1 n=d6 v=55
33402 On ch=1 n=d6 v=0
33518 On ch=1 n=d6 v=91
33712 On ch=1 n=d6 v=0
33822 On ch=1 n=d6 v=99
34116 On ch=1 n=c6 v=104
34200 On ch=1 n=d6 v=0
34376 On ch=1 n=d6 v=103
34444 On ch=1 n=c6 v=0
34542 Par ch=1 c=64 v=63
34564 Par ch=1 c=64 v=0
34686 On ch=1 n=e6 v=103
34744 On ch=1 n=d6 v=0
34798 Par ch=1 c=64 v=63
34802 Par ch=1 c=64 v=127
34996 On ch=1 n=e6 v=0
35048 On ch=1 n=e3 v=80
35050 On ch=1 n=b3 v=83
35184 On ch=1 n=e3 v=0
35208 On ch=1 n=b3 v=0
35416 On ch=1 n=f#5 v=70
35436 On ch=1 n=d5 v=49
35444 On ch=1 n=g#4 v=40
35760 On ch=1 n=b5 v=86
35878 On ch=1 n=f#5 v=0
35882 On ch=1 n=g#4 v=0
35886 On ch=1 n=d5 v=0
36176 On ch=1 n=f#5 v=53
36184 On ch=1 n=b5 v=0
36198 On ch=1 n=g#4 v=26
36198 On ch=1 n=d5 v=43
36424 On ch=1 n=g#4 v=0
36618 On ch=1 n=d5 v=0
36642 On ch=1 n=f#6 v=39
36644 On ch=1 n=d6 v=31
36648 On ch=1 n=f#5 v=0
36680 On ch=1 n=g#5 v=36
37414 On ch=1 n=f#7 v=39
37440 On ch=1 n=d7 v=25
37528 On ch=1 n=d7 v=0
37550 On ch=1 n=f#7 v=0
37790 On ch=1 n=f#6 v=0
37920 On ch=1 n=d6 v=0
38162 On ch=1 n=g#5 v=0
38626 On ch=1 n=a5 v=39
38778 Par ch=1 c=64 v=63
38894 Par ch=1 c=64 v=0
39118 On ch=1 n=b5 v=65
39228 On ch=1 n=a5 v=0
39494 On ch=1 n=c6 v=72
39562 On ch=1 n=b5 v=0
39770 On ch=1 n=d6 v=91
39876 On ch=1 n=c6 v=0
40042 On ch=1 n=e6 v=102
40106 On ch=1 n=d6 v=0
40324 On ch=1 n=f#6 v=100
40384 On ch=1 n=e6 v=0
40550 Par ch=1 c=64 v=63
40550 On ch=1 n=c#3 v=70
40554 Par ch=1 c=64 v=127
40660 On ch=1 n=c#3 v=0
40970 On ch=1 n=c5 v=71
40982 On ch=1 n=a#4 v=57
41002 On ch=1 n=f#4 v=44
41242 On ch=1 n=c5 v=0
41374 On ch=1 n=c#5 v=99
41550 On ch=1 n=c#5 v=0
41650 On ch=1 n=f#6 v=0
41650 On ch=1 n=d#5 v=106
41750 On ch=1 n=a#4 v=0
41836 On ch=1 n=d#5 v=0
41920 On ch=1 n=f#4 v=0
41924 On ch=1 n=f6 v=94
41926 On ch=1 n=f5 v=91
41942 On ch=1 n=a#4 v=52
41954 On ch=1 n=c#5 v=71
42088 On ch=1 n=f5 v=0
42168 On ch=1 n=c#5 v=0
42212 On ch=1 n=d#6 v=112
42218 On ch=1 n=f#5 v=104
42240 On ch=1 n=f6 v=0
42250 On ch=1 n=c#5 v=49
42300 On ch=1 n=c#5 v=0
42300 On ch=1 n=f#5 v=0
42304 On ch=1 n=d#6 v=0
42318 On ch=1 n=a#4 v=0
42584 On ch=1 n=b4 v=51
42590 On ch=1 n=c#6 v=93
42596 On ch=1 n=f4 v=54
42612 On ch=1 n=c#5 v=65
42614 On ch=1 n=g#5 v=79
43046 On ch=1 n=c#4 v=87
43062 Par ch=1 c=64 v=63
43078 Par ch=1 c=64 v=0
43132 On ch=1 n=f4 v=0
43210 Par ch=1 c=64 v=63
43232 Par ch=1 c=64 v=127
43316 On ch=1 n=d#4 v=77
43344 On ch=1 n=f#5 v=89
43406 On ch=1 n=g#5 v=0
43550 On ch=1 n=g#5 v=95
43562 On ch=1 n=f4 v=61
43628 On ch=1 n=f#5 v=0
43668 On ch=1 n=d#4 v=0
43694 On ch=1 n=f#4 v=84
43702 On ch=1 n=a#5 v=96
43728 On ch=1 n=f4 v=0
43774 On ch=1 n=g#5 v=0
43900 On ch=1 n=f4 v=74
43908 On ch=1 n=g#5 v=95
43936 Par ch=1 c=64 v=63
43970 Par ch=1 c=64 v=0
43982 On ch=1 n=a#5 v=0
43990 On ch=1 n=f#4 v=0
44096 Par ch=1 c=64 v=63
44120 Par ch=1 c=64 v=127
44136 On ch=1 n=b4 v=0
44218 On ch=1 n=b4 v=73
44356 Par ch=1 c=64 v=63
44392 Par ch=1 c=64 v=0
44654 On ch=1 n=f5 v=76
44670 Par ch=1 c=64 v=63
44684 Par ch=1 c=64 v=127
44808 On ch=1 n=g#5 v=0
44816 On ch=1 n=c#6 v=0
44840 On ch=1 n=f4 v=0
44884 On ch=1 n=c#4 v=0
44894 On ch=1 n=b4 v=0
44898 On ch=1 n=c#5 v=0
45242 On ch=1 n=a5 v=63
45244 On ch=1 n=c#4 v=38
45250 On ch=1 n=b4 v=48
45278 On ch=1 n=g3 v=37
45598 On ch=1 n=c#4 v=0
45702 On ch=1 n=c#4 v=86
45810 Par ch=1 c=64 v=63
45850 Par ch=1 c=64 v=0
45904 Par ch=1 c=64 v=63
45950 Par ch=1 c=64 v=127
46084 On ch=1 n=a5 v=0
46126 On ch=1 n=d4 v=84
46132 On ch=1 n=g5 v=88
46208 On ch=1 n=c#4 v=0
46304 Par ch=1 c=64 v=63
46322 Par ch=1 c=64 v=127
46458 On ch=1 n=e4 v=84
46546 On ch=1 n=d4 v=0
46592 Par ch=1 c=64 v=63
46702 Par ch=1 c=64 v=127
46870 On ch=1 n=d4 v=60
46978 On ch=1 n=e4 v=0
47020 On ch=1 n=g3 v=0
47404 On ch=1 n=g3 v=48
47456 Par ch=1 c=64 v=63
47490 Par ch=1 c=64 v=0
47524 On ch=1 n=d4 v=0
47600 Par ch=1 c=64 v=63
47650 Par ch=1 c=64 v=127
47798 On ch=1 n=g3 v=0
47906 On ch=1 n=b4 v=0
48250 On ch=1 n=c3 v=67
48344 On ch=1 n=f5 v=0
48454 On ch=1 n=g5 v=0
48700 Par ch=1 c=64 v=63
48704 Par ch=1 c=64 v=127
48830 On ch=1 n=c3 v=0
49180 On ch=1 n=c5 v=63
49664 On ch=1 n=g6 v=65
49936 On ch=1 n=d5 v=51
49938 On ch=1 n=e6 v=60
49962 On ch=1 n=g5 v=55
50104 On ch=1 n=g5 v=0
50186 On ch=1 n=g6 v=0
50188 On ch=1 n=e6 v=0
50394 On ch=1 n=e5 v=55
50440 On ch=1 n=c5 v=0
50466 On ch=1 n=d5 v=0
50484 On ch=1 n=e7 v=91
50612 On ch=1 n=e7 v=0
50910 On ch=1 n=e5 v=0
50918 On ch=1 n=b4 v=50
50992 On ch=1 n=b6 v=88
51224 On ch=1 n=b6 v=0
51342 On ch=1 n=b4 v=0
51600 On ch=1 n=a4 v=44
51616 On ch=1 n=a6 v=57
51832 On ch=1 n=a4 v=0
51872 On ch=1 n=b6 v=64
51940 On ch=1 n=a6 v=0
52042 On ch=1 n=a6 v=87
52138 On ch=1 n=b6 v=0
52198 On ch=1 n=c4 v=57
52240 On ch=1 n=g6 v=80
52268 On ch=1 n=g4 v=54
52330 On ch=1 n=a6 v=0
52360 Par ch=1 c=64 v=63
52372 Par ch=1 c=64 v=0
52416 Par ch=1 c=64 v=63
52440 Par ch=1 c=64 v=127
52856 On ch=1 n=g5 v=48
52860 On ch=1 n=e5 v=46
52974 On ch=1 n=g5 v=0
52982 On ch=1 n=e5 v=0
53000 On ch=1 n=c4 v=0
53148 On ch=1 n=g5 v=47
53166 On ch=1 n=e5 v=27
53310 On ch=1 n=e5 v=0
53334 On ch=1 n=g5 v=0
53392 On ch=1 n=g3 v=84
53506 On ch=1 n=g4 v=0
53510 On ch=1 n=g6 v=0
53644 On ch=1 n=g5 v=60
53648 On ch=1 n=e5 v=64
53652 On ch=1 n=g4 v=29
53710 On ch=1 n=g5 v=0
53722 On ch=1 n=g4 v=0
53746 On ch=1 n=e5 v=0
53916 On ch=1 n=e4 v=99
53928 On ch=1 n=e6 v=98
53940 On ch=1 n=g3 v=0
54018 On ch=1 n=e6 v=0
54314 On ch=1 n=g4 v=92
54346 On ch=1 n=d4 v=57
54364 On ch=1 n=g6 v=83
54374 On ch=1 n=e4 v=0
54452 Par ch=1 c=64 v=63
54462 Par ch=1 c=64 v=0
54488 Par ch=1 c=64 v=63
54512 Par ch=1 c=64 v=127
54690 On ch=1 n=g6 v=0
54762 On ch=1 n=f5 v=57
54762 On ch=1 n=g5 v=56
54764 On ch=1 n=d4 v=0
54866 On ch=1 n=f5 v=0
54868 On ch=1 n=g5 v=0
54890 On ch=1 n=g4 v=0
55012 On ch=1 n=f5 v=71
55012 On ch=1 n=g5 v=68
55102 On ch=1 n=g3 v=76
55204 On ch=1 n=f5 v=0
55206 On ch=1 n=g5 v=0
55226 On ch=1 n=g3 v=0
55250 On ch=1 n=g#4 v=101
55332 On ch=1 n=g#4 v=0
55530 On ch=1 n=a4 v=85
55560 On ch=1 n=f5 v=53
55560 On ch=1 n=g5 v=55
55620 On ch=1 n=g5 v=0
55622 On ch=1 n=f5 v=0
55628 On ch=1 n=a4 v=0
55844 On ch=1 n=d5 v=99
55848 On ch=1 n=d6 v=102
55952 On ch=1 n=d6 v=0
56030 On ch=1 n=d5 v=0
56204 On ch=1 n=d5 v=89
56208 On ch=1 n=c4 v=73
56238 On ch=1 n=e6 v=96
56356 Par ch=1 c=64 v=63
56364 Par ch=1 c=64 v=0
56412 Par ch=1 c=64 v=63
56438 Par ch=1 c=64 v=127
56558 On ch=1 n=g5 v=67
56566 On ch=1 n=g4 v=80
56568 On ch=1 n=d5 v=0
56574 On ch=1 n=e5 v=51
56736 On ch=1 n=g4 v=0
56742 On ch=1 n=e5 v=0
56762 On ch=1 n=b4 v=74
56774 On ch=1 n=g5 v=0
56814 On ch=1 n=g5 v=37
56826 On ch=1 n=e5 v=57
56846 On ch=1 n=a4 v=79
56872 On ch=1 n=b4 v=0
57048 On ch=1 n=c4 v=0
57152 On ch=1 n=g4 v=96
57164 On ch=1 n=a4 v=0
57304 On ch=1 n=e5 v=0
57316 On ch=1 n=g5 v=0
57460 On ch=1 n=g5 v=62
57466 On ch=1 n=b3 v=66
57468 On ch=1 n=e5 v=60
57692 On ch=1 n=e5 v=0
57716 On ch=1 n=g5 v=0
57794 On ch=1 n=g5 v=64
57802 On ch=1 n=e5 v=70
57902 On ch=1 n=g4 v=0
57952 On ch=1 n=e5 v=0
58066 On ch=1 n=g5 v=0
58154 On ch=1 n=e6 v=0
58202 On ch=1 n=a3 v=92
58278 On ch=1 n=b3 v=0
58304 Par ch=1 c=64 v=63
58314 Par ch=1 c=64 v=0
58372 Par ch=1 c=64 v=63
58394 Par ch=1 c=64 v=127
58496 On ch=1 n=a3 v=0
58766 On ch=1 n=c5 v=63
58780 On ch=1 n=c7 v=86
58994 On ch=1 n=c5 v=0
58998 On ch=1 n=c7 v=0
59228 On ch=1 n=e5 v=71
59230 On ch=1 n=c5 v=71
59230 On ch=1 n=c7 v=98
59232 On ch=1 n=g5 v=69
59288 On ch=1 n=g5 v=0
59302 On ch=1 n=e5 v=0
59316 On ch=1 n=c5 v=0
59398 On ch=1 n=c7 v=0
59606 On ch=1 n=c7 v=102
59614 On ch=1 n=g3 v=99
59706 On ch=1 n=g3 v=0
59970 On ch=1 n=b4 v=93
59972 On ch=1 n=b6 v=102
60052 On ch=1 n=c7 v=0
60440 On ch=1 n=b4 v=0
60464 On ch=1 n=c7 v=101
60472 On ch=1 n=c5 v=78
60472 On ch=1 n=e5 v=84
60478 On ch=1 n=g5 v=76
60524 On ch=1 n=b6 v=0
60712 On ch=1 n=g5 v=0
60876 On ch=1 n=e5 v=0
61042 On ch=1 n=c5 v=0
61100 On ch=1 n=c7 v=0
61114 On ch=1 n=d5 v=92
61146 On ch=1 n=d7 v=99
61222 Par ch=1 c=64 v=63
61230 Par ch=1 c=64 v=0
61304 Par ch=1 c=64 v=63
61320 Par ch=1 c=64 v=127
61444 On ch=1 n=d5 v=0
61516 On ch=1 n=d7 v=0
61828 On ch=1 n=d3 v=83
62192 On ch=1 n=a3 v=66
62422 On ch=1 n=f#4 v=69
62624 On ch=1 n=d3 v=0
62650 On ch=1 n=c5 v=75
62662 On ch=1 n=f#4 v=0
62684 On ch=1 n=a3 v=0
62842 On ch=1 n=d5 v=75
62898 On ch=1 n=c5 v=0
63022 On ch=1 n=e5 v=74
63092 On ch=1 n=d5 v=0
63168 On ch=1 n=e5 v=0
63192 On ch=1 n=a4 v=53
63330 On ch=1 n=c5 v=55
63410 On ch=1 n=d5 v=72
63446 On ch=1 n=c5 v=0
63448 On ch=1 n=a4 v=0
63486 On ch=1 n=d5 v=0
63530 On ch=1 n=f#5 v=72
63602 On ch=1 n=f#5 v=0
63632 On ch=1 n=c6 v=52
63682 On ch=1 n=d6 v=67
63746 On ch=1 n=e6 v=77
63750 On ch=1 n=c6 v=0
63816 On ch=1 n=d6 v=0
63826 On ch=1 n=a6 v=102
63856 On ch=1 n=e6 v=0
63916 On ch=1 n=a6 v=0
64136 On ch=1 n=a5 v=62
64300 On ch=1 n=c6 v=60
64382 On ch=1 n=d6 v=68
64430 On ch=1 n=a5 v=0
64438 On ch=1 n=c6 v=0
64468 On ch=1 n=d6 v=0
64472 On ch=1 n=f#6 v=67
64568 On ch=1 n=f#6 v=0
64570 On ch=1 n=c7 v=60
64644 On ch=1 n=d7 v=73
64744 On ch=1 n=e7 v=83
64910 On ch=1 n=d7 v=0
64972 On ch=1 n=d8 v=51
64982 On ch=1 n=a7 v=68
64994 On ch=1 n=c8 v=38
65034 On ch=1 n=c8 v=0
65054 On ch=1 n=d8 v=0
65074 On ch=1 n=a7 v=0
65682 On ch=1 n=c7 v=0
65718 On ch=1 n=e7 v=0
66106 On ch=1 n=d7 v=72
66114 On ch=1 n=d5 v=65
66374 On ch=1 n=d5 v=0
66462 On ch=1 n=d7 v=0
66526 On ch=1 n=d5 v=84
66538 On ch=1 n=d7 v=90
66696 On ch=1 n=d7 v=0
66708 On ch=1 n=d5 v=0
66848 On ch=1 n=d5 v=89
66852 On ch=1 n=d7 v=106
67160 On ch=1 n=c5 v=103
67162 On ch=1 n=c7 v=99
67204 On ch=1 n=d5 v=0
67260 On ch=1 n=d7 v=0
67428 Par ch=1 c=64 v=63
67478 Par ch=1 c=64 v=0
67480 On ch=1 n=d7 v=101
67490 On ch=1 n=d5 v=101
67536 On ch=1 n=c7 v=0
67558 On ch=1 n=c5 v=0
67884 On ch=1 n=e5 v=92
67894 On ch=1 n=d7 v=0
67914 On ch=1 n=d5 v=0
67926 On ch=1 n=e7 v=100
68032 Par ch=1 c=64 v=63
68036 Par ch=1 c=64 v=127
68138 On ch=1 n=e5 v=0
68236 On ch=1 n=e7 v=0
68458 On ch=1 n=e3 v=87
68726 On ch=1 n=b3 v=85
68794 On ch=1 n=e3 v=0
68876 On ch=1 n=b3 v=0
68912 On ch=1 n=g#4 v=82
69056 On ch=1 n=d5 v=80
69064 On ch=1 n=g#4 v=0
69156 On ch=1 n=e5 v=81
69224 On ch=1 n=d5 v=0
69278 On ch=1 n=f#5 v=88
69342 On ch=1 n=e5 v=0
69384 On ch=1 n=f#5 v=0
69406 On ch=1 n=b4 v=90
69536 On ch=1 n=d5 v=82
69614 On ch=1 n=b4 v=0
69638 On ch=1 n=e5 v=81
69652 On ch=1 n=d5 v=0
69702 On ch=1 n=e5 v=0
69708 On ch=1 n=g#5 v=76
69774 On ch=1 n=d6 v=70
69794 On ch=1 n=g#5 v=0
69840 On ch=1 n=e6 v=68
69878 On ch=1 n=f#6 v=88
69888 On ch=1 n=d6 v=0
69928 On ch=1 n=e6 v=0
69956 On ch=1 n=f#6 v=0
69974 On ch=1 n=b5 v=76
70060 On ch=1 n=d6 v=84
70094 On ch=1 n=b5 v=0
70128 On ch=1 n=e6 v=81
70132 On ch=1 n=d6 v=0
70174 On ch=1 n=e6 v=0
70206 On ch=1 n=g#6 v=79
70258 On ch=1 n=d7 v=73
70356 On ch=1 n=e7 v=71
70372 On ch=1 n=g#6 v=0
70416 On ch=1 n=f#7 v=93
70672 On ch=1 n=b7 v=60
70672 On ch=1 n=e8 v=60
70738 On ch=1 n=f#7 v=0
70740 On ch=1 n=e8 v=0
70742 On ch=1 n=b7 v=0
70830 On ch=1 n=f#7 v=23
71298 On ch=1 n=d7 v=0
71300 On ch=1 n=e7 v=0
71306 On ch=1 n=f#7 v=0
72104 On ch=1 n=a6 v=73
72112 On ch=1 n=a5 v=56
72116 On ch=1 n=e6 v=71
72118 On ch=1 n=g5 v=63
72118 On ch=1 n=c#5 v=70
72306 Par ch=1 c=64 v=127
72438 On ch=1 n=a5 v=0
72456 On ch=1 n=a6 v=0
72464 On ch=1 n=e6 v=0
72628 On ch=1 n=c#5 v=0
72714 On ch=1 n=b6 v=93
72714 On ch=1 n=d5 v=84
72720 On ch=1 n=b5 v=85
72720 On ch=1 n=f6 v=90
72784 Par ch=1 c=64 v=63
72802 Par ch=1 c=64 v=127
72912 On ch=1 n=b5 v=0
72930 On ch=1 n=g5 v=0
72932 On ch=1 n=b6 v=0
73080 On ch=1 n=f6 v=0
73104 On ch=1 n=c7 v=98
73108 On ch=1 n=c6 v=92
73118 On ch=1 n=g6 v=90
73134 On ch=1 n=a#5 v=92
73148 On ch=1 n=e5 v=76
73156 On ch=1 n=d5 v=0
73252 On ch=1 n=c6 v=0
73268 On ch=1 n=g6 v=0
73274 On ch=1 n=c7 v=0
73310 On ch=1 n=e5 v=0
73400 On ch=1 n=a#5 v=0
73492 On ch=1 n=d7 v=97
73502 On ch=1 n=d6 v=81
73504 On ch=1 n=a5 v=85
73504 On ch=1 n=a6 v=91
73504 On ch=1 n=f#5 v=88
73568 Par ch=1 c=64 v=63
73584 Par ch=1 c=64 v=127
73764 On ch=1 n=d6 v=0
73766 On ch=1 n=d7 v=0
73796 On ch=1 n=f#5 v=0
73798 On ch=1 n=a5 v=0
73926 On ch=1 n=a6 v=0
74018 On ch=1 n=e7 v=96
74022 On ch=1 n=e6 v=84
74024 On ch=1 n=b6 v=88
74030 On ch=1 n=g#5 v=70
74030 On ch=1 n=d6 v=75
74160 Par ch=1 c=64 v=63
74210 Par ch=1 c=64 v=127
74366 On ch=1 n=d6 v=0
74374 On ch=1 n=e6 v=0
74412 On ch=1 n=g#5 v=0
74460 On ch=1 n=b6 v=0
74476 On ch=1 n=e7 v=0
74788 On ch=1 n=g5 v=29
74874 On ch=1 n=a#5 v=51
74874 Par ch=1 c=64 v=63
74886 Par ch=1 c=64 v=0
74946 On ch=1 n=d#6 v=37
75004 Par ch=1 c=64 v=63
75016 Par ch=1 c=64 v=127
75016 On ch=1 n=g6 v=38
75074 On ch=1 n=a#6 v=48
75144 On ch=1 n=d#7 v=47
75176 On ch=1 n=d#6 v=0
75196 On ch=1 n=a#5 v=0
75206 On ch=1 n=g7 v=64
75244 On ch=1 n=g5 v=0
75754 On ch=1 n=a2 v=60
76064 On ch=1 n=a2 v=0
76110 On ch=1 n=a#2 v=54
76120 On ch=1 n=a#3 v=58
76392 On ch=1 n=a#2 v=0
76398 On ch=1 n=a#3 v=0
76402 On ch=1 n=a2 v=63
76500 On ch=1 n=g7 v=0
76556 On ch=1 n=g6 v=0
76660 On ch=1 n=a#6 v=0
76668 On ch=1 n=a#2 v=76
76672 On ch=1 n=a2 v=0
76690 On ch=1 n=a#3 v=65
76708 On ch=1 n=d#7 v=0
76946 On ch=1 n=a#2 v=0
76950 On ch=1 n=a#3 v=0
76976 On ch=1 n=a2 v=41
77018 On ch=1 n=f7 v=78
77028 On ch=1 n=a#6 v=62
77028 On ch=1 n=g6 v=57
77030 On ch=1 n=f6 v=59
77388 On ch=1 n=g6 v=0
77392 On ch=1 n=f6 v=0
77406 On ch=1 n=f7 v=0
77410 On ch=1 n=a2 v=0
77414 On ch=1 n=a#2 v=58
77430 On ch=1 n=a#3 v=58
77488 On ch=1 n=a#6 v=0
77750 On ch=1 n=a#3 v=0
77766 On ch=1 n=a#2 v=0
77766 On ch=1 n=a2 v=53
77770 On ch=1 n=d#7 v=93
77770 On ch=1 n=d#6 v=89
77842 On ch=1 n=d#6 v=0
77882 On ch=1 n=d#7 v=0
78034 On ch=1 n=d7 v=97
78038 On ch=1 n=a2 v=0
78046 On ch=1 n=a#2 v=67
78050 On ch=1 n=d6 v=61
78060 On ch=1 n=a#3 v=58
78092 On ch=1 n=d7 v=0
78120 On ch=1 n=d6 v=0
78302 On ch=1 n=a#3 v=0
78322 On ch=1 n=a#2 v=0
78326 On ch=1 n=d#6 v=71
78338 On ch=1 n=c7 v=67
78342 On ch=1 n=g6 v=62
78344 On ch=1 n=a2 v=62
78362 On ch=1 n=c6 v=65
78438 On ch=1 n=d#6 v=0
78452 On ch=1 n=c7 v=0
78460 On ch=1 n=c6 v=0
78516 On ch=1 n=g6 v=0
78614 On ch=1 n=a#6 v=89
78618 On ch=1 n=a2 v=0
78620 On ch=1 n=a#5 v=91
78630 On ch=1 n=a#3 v=57
78642 On ch=1 n=a#2 v=41
78688 On ch=1 n=a#5 v=0
78694 On ch=1 n=a#6 v=0
78856 On ch=1 n=a#3 v=0
78880 On ch=1 n=a2 v=74
78888 On ch=1 n=a#2 v=0
78894 On ch=1 n=d#6 v=90
78896 On ch=1 n=d#5 v=96
78948 On ch=1 n=d#5 v=0
78968 On ch=1 n=d#6 v=0
79184 On ch=1 n=a#2 v=55
79212 On ch=1 n=a#3 v=32
79222 On ch=1 n=g#6 v=92
79238 On ch=1 n=g#5 v=60
79250 On ch=1 n=c6 v=76
79256 On ch=1 n=a2 v=0
79376 Par ch=1 c=64 v=63
79436 Par ch=1 c=64 v=127
79582 On ch=1 n=a2 v=59
79640 On ch=1 n=a#2 v=0
79644 On ch=1 n=a#3 v=0
79818 On ch=1 n=a2 v=0
79820 On ch=1 n=a#2 v=71
79832 On ch=1 n=a#3 v=60
79834 On ch=1 n=g#6 v=0
79848 On ch=1 n=c6 v=0
80110 On ch=1 n=a#3 v=0
80112 On ch=1 n=a2 v=48
80116 On ch=1 n=g#5 v=0
80128 On ch=1 n=a#5 v=64
80132 On ch=1 n=a#2 v=0
80180 On ch=1 n=a#5 v=0
80402 On ch=1 n=a2 v=0
80406 On ch=1 n=a#2 v=55
80416 On ch=1 n=a#3 v=51
80422 On ch=1 n=g6 v=87
80446 On ch=1 n=g5 v=27
80522 On ch=1 n=g6 v=0
80540 On ch=1 n=g5 v=0
80666 On ch=1 n=f6 v=97
80688 On ch=1 n=f5 v=35
80726 On ch=1 n=f5 v=0
80738 On ch=1 n=a#2 v=0
80750 On ch=1 n=f6 v=0
80758 On ch=1 n=a#3 v=0
80760 On ch=1 n=a2 v=53
80864 On ch=1 n=g6 v=93
80872 On ch=1 n=g5 v=61
80934 On ch=1 n=g6 v=0
80940 On ch=1 n=g5 v=0
81078 On ch=1 n=a#2 v=61
81090 On ch=1 n=f6 v=101
81092 On ch=1 n=a2 v=0
81106 On ch=1 n=a#5 v=81
81110 On ch=1 n=a#3 v=48
81118 On ch=1 n=f5 v=41
81128 On ch=1 n=g5 v=33
81190 On ch=1 n=f6 v=0
81220 On ch=1 n=g5 v=0
81246 On ch=1 n=f5 v=0
81372 On ch=1 n=a#5 v=0
81422 On ch=1 n=a#3 v=0
81432 On ch=1 n=a2 v=56
81436 On ch=1 n=d#6 v=91
81446 On ch=1 n=d#5 v=81
81450 On ch=1 n=a#2 v=0
81554 On ch=1 n=d#5 v=0
81594 On ch=1 n=d#6 v=0
81710 On ch=1 n=d6 v=93
81724 On ch=1 n=a#2 v=66
81738 On ch=1 n=d5 v=51
81740 On ch=1 n=a2 v=0
81742 On ch=1 n=a#3 v=54
81780 On ch=1 n=d6 v=0
81806 On ch=1 n=d5 v=0
82060 On ch=1 n=c6 v=72
82076 On ch=1 n=g5 v=57
82078 On ch=1 n=d#5 v=46
82082 On ch=1 n=c5 v=48
82192 On ch=1 n=c5 v=0
82206 On ch=1 n=c6 v=0
82326 On ch=1 n=g5 v=0
82416 On ch=1 n=a#5 v=90
82438 On ch=1 n=a#4 v=71
82444 On ch=1 n=a2 v=36
82474 On ch=1 n=a#2 v=0
82478 On ch=1 n=d#5 v=0
82536 On ch=1 n=a#5 v=0
82542 On ch=1 n=a#3 v=0
82560 On ch=1 n=a#4 v=0
82924 On ch=1 n=d#5 v=76
82934 On ch=1 n=a2 v=0
82936 On ch=1 n=a#3 v=38
82938 On ch=1 n=a#2 v=52
82944 On ch=1 n=d#4 v=54
83132 Par ch=1 c=64 v=63
83156 Par ch=1 c=64 v=0
83294 Par ch=1 c=64 v=63
83332 Par ch=1 c=64 v=127
83346 On ch=1 n=a#2 v=0
83354 On ch=1 n=d#4 v=0
83452 On ch=1 n=d#5 v=0
83496 On ch=1 n=a#3 v=0
83586 Par ch=1 c=64 v=63
83612 Par ch=1 c=64 v=0
84890 On ch=1 n=g3 v=46
85126 Par ch=1 c=64 v=63
85150 Par ch=1 c=64 v=127
85506 On ch=1 n=g5 v=53
85506 On ch=1 n=g4 v=37
85522 On ch=1 n=f5 v=54
85868 On ch=1 n=g4 v=0
85880 On ch=1 n=f5 v=0
86042 On ch=1 n=f5 v=61
86080 On ch=1 n=g4 v=20
86264 On ch=1 n=g4 v=0
86268 On ch=1 n=f5 v=0
86434 On ch=1 n=f5 v=39
86476 On ch=1 n=g4 v=28
86698 On ch=1 n=g4 v=0
86768 On ch=1 n=g3 v=0
86802 On ch=1 n=g5 v=0
86858 On ch=1 n=f5 v=0
87048 On ch=1 n=f5 v=57
87052 On ch=1 n=f3 v=34
87068 On ch=1 n=g5 v=53
87398 On ch=1 n=g5 v=0
87438 On ch=1 n=f5 v=0
87518 On ch=1 n=e5 v=84
87520 On ch=1 n=e3 v=54
87522 On ch=1 n=g5 v=68
87568 On ch=1 n=f3 v=0
87976 On ch=1 n=d5 v=89
88010 On ch=1 n=d3 v=57
88096 On ch=1 n=e3 v=0
88246 On ch=1 n=g5 v=0
88284 On ch=1 n=e5 v=0
88456 On ch=1 n=g5 v=52
88460 On ch=1 n=f5 v=43
88794 On ch=1 n=f5 v=0
88842 On ch=1 n=g5 v=0
89116 On ch=1 n=g2 v=47
89124 On ch=1 n=g4 v=58
89152 On ch=1 n=g5 v=22
89158 On ch=1 n=d3 v=0
89162 On ch=1 n=f5 v=53
89254 Par ch=1 c=64 v=63
89334 Par ch=1 c=64 v=127
89494 On ch=1 n=d5 v=0
89798 On ch=1 n=d5 v=60
89800 On ch=1 n=d3 v=34
89848 On ch=1 n=g2 v=0
89854 On ch=1 n=f5 v=0
89878 On ch=1 n=g4 v=0
89904 On ch=1 n=g5 v=0
89996 Par ch=1 c=64 v=63
90074 Par ch=1 c=64 v=127
90404 On ch=1 n=g5 v=39
90404 On ch=1 n=g4 v=25
90452 On ch=1 n=e5 v=31
90646 On ch=1 n=g5 v=0
90650 On ch=1 n=g4 v=0
90692 On ch=1 n=e5 v=0
90800 On ch=1 n=g5 v=38
90810 On ch=1 n=g4 v=19
90814 On ch=1 n=e5 v=27
91084 On ch=1 n=d5 v=0
91132 On ch=1 n=d3 v=0
91172 On ch=1 n=c3 v=51
91262 Par ch=1 c=64 v=63
91270 Par ch=1 c=64 v=0
91360 Par ch=1 c=64 v=63
91376 Par ch=1 c=64 v=127
91488 On ch=1 n=c3 v=0
91636 On ch=1 n=g4 v=0
91882 On ch=1 n=c6 v=59
92262 On ch=1 n=g5 v=0
92302 On ch=1 n=e5 v=0
92352 On ch=1 n=d6 v=71
92594 On ch=1 n=c6 v=0
92706 On ch=1 n=e6 v=74
92752 On ch=1 n=d6 v=0
93014 On ch=1 n=b5 v=84
93284 On ch=1 n=e6 v=0
93290 On ch=1 n=a5 v=84
93376 On ch=1 n=b5 v=0
93654 On ch=1 n=g5 v=78
93794 On ch=1 n=a5 v=0
94088 Par ch=1 c=64 v=63
94138 Par ch=1 c=64 v=0
94462 On ch=1 n=e6 v=49
94686 Par ch=1 c=64 v=63
94740 Par ch=1 c=64 v=127
94880 On ch=1 n=b5 v=50
94958 On ch=1 n=e6 v=0
95272 On ch=1 n=f#5 v=66
95576 On ch=1 n=c6 v=88
95660 On ch=1 n=b5 v=0
95822 On ch=1 n=g5 v=0
95878 On ch=1 n=g5 v=15
95884 On ch=1 n=f5 v=64
95900 On ch=1 n=b5 v=41
95904 On ch=1 n=c#6 v=100
95946 On ch=1 n=c6 v=0
96112 Par ch=1 c=64 v=63
96138 Par ch=1 c=64 v=0
96144 On ch=1 n=f#5 v=0
96250 Par ch=1 c=64 v=63
96270 Par ch=1 c=64 v=127
96496 On ch=1 n=f5 v=0
96630 On ch=1 n=g5 v=0
96668 On ch=1 n=c#6 v=0
96710 On ch=1 n=d6 v=78
96830 Par ch=1 c=64 v=63
96850 On ch=1 n=g4 v=70
96870 Par ch=1 c=64 v=127
96880 On ch=1 n=b5 v=0
96890 On ch=1 n=d6 v=0
96932 On ch=1 n=f5 v=55
96946 On ch=1 n=g4 v=0
97062 On ch=1 n=b5 v=17
97098 On ch=1 n=g5 v=39
97100 On ch=1 n=f6 v=50
97108 On ch=1 n=f5 v=0
97214 On ch=1 n=b5 v=0
97232 On ch=1 n=f#6 v=75
97288 On ch=1 n=f6 v=0
97612 On ch=1 n=g6 v=91
97750 On ch=1 n=f#6 v=0
97918 On ch=1 n=g6 v=0
97998 On ch=1 n=b6 v=49
98076 On ch=1 n=a6 v=71
98126 On ch=1 n=b6 v=0
98646 On ch=1 n=a6 v=0
98704 On ch=1 n=g6 v=54
98732 On ch=1 n=e5 v=34
98758 On ch=1 n=c6 v=24
98880 Par ch=1 c=64 v=63
98988 Par ch=1 c=64 v=127
99454 On ch=1 n=c6 v=0
99492 On ch=1 n=g5 v=0
99580 On ch=1 n=g6 v=0
99588 On ch=1 n=e5 v=0
99588 On ch=1 n=c5 v=40
100028 On ch=1 n=d5 v=64
100222 Par ch=1 c=64 v=63
100356 On ch=1 n=e5 v=58
100364 Par ch=1 c=64 v=0
100388 On ch=1 n=d5 v=0
100394 On ch=1 n=c5 v=0
100644 On ch=1 n=b4 v=69
100726 On ch=1 n=e5 v=0
100930 On ch=1 n=a4 v=75
100998 On ch=1 n=b4 v=0
101292 On ch=1 n=g4 v=72
101434 On ch=1 n=a4 v=0
101972 On ch=1 n=e6 v=74
102304 On ch=1 n=b5 v=68
102336 On ch=1 n=e6 v=0
102574 On ch=1 n=g5 v=65
102596 On ch=1 n=e5 v=69
102928 Par ch=1 c=64 v=63
102928 On ch=1 n=c6 v=96
102944 Par ch=1 c=64 v=127
103180 On ch=1 n=e5 v=0
103334 On ch=1 n=f5 v=49
103342 On ch=1 n=c#6 v=87
103420 On ch=1 n=c6 v=0
103430 Par ch=1 c=64 v=63
103454 Par ch=1 c=64 v=0
103584 Par ch=1 c=64 v=63
103602 Par ch=1 c=64 v=127
103924 On ch=1 n=c#6 v=0
104044 On ch=1 n=b5 v=0
104428 On ch=1 n=f5 v=0
104430 On ch=1 n=d6 v=51
104440 On ch=1 n=g5 v=0
104530 On ch=1 n=d6 v=0
104552 On ch=1 n=g4 v=0
104562 On ch=1 n=e6 v=51
104660 On ch=1 n=e6 v=0
104662 On ch=1 n=d6 v=50
104760 On ch=1 n=d6 v=0
104778 On ch=1 n=c#6 v=54
104874 On ch=1 n=d6 v=66
104906 On ch=1 n=c#6 v=0
104928 On ch=1 n=d6 v=0
105024 On ch=1 n=g4 v=26
105218 On ch=1 n=b6 v=62
105236 On ch=1 n=g5 v=30
105240 On ch=1 n=f5 v=31
105244 On ch=1 n=b5 v=47
105266 On ch=1 n=f6 v=57
105276 Par ch=1 c=64 v=63
105286 On ch=1 n=a6 v=74
105296 Par ch=1 c=64 v=0
105364 On ch=1 n=b6 v=0
105376 Par ch=1 c=64 v=63
105408 Par ch=1 c=64 v=127
105530 On ch=1 n=g4 v=0
105548 On ch=1 n=f5 v=0
105552 On ch=1 n=g5 v=0
105564 On ch=1 n=a6 v=0
105582 On ch=1 n=b5 v=0
105604 On ch=1 n=f6 v=0
105830 On ch=1 n=f6 v=44
105832 On ch=1 n=b5 v=38
105834 On ch=1 n=g6 v=61
105844 Par ch=1 c=64 v=63
105846 On ch=1 n=g5 v=26
105848 On ch=1 n=f5 v=25
105880 On ch=1 n=g4 v=6
105924 Par ch=1 c=64 v=127
106112 On ch=1 n=f6 v=0
106114 On ch=1 n=f5 v=0
106114 On ch=1 n=g5 v=0
106118 On ch=1 n=g4 v=0
106140 On ch=1 n=b5 v=0
106142 On ch=1 n=g6 v=0
106478 On ch=1 n=b5 v=48
106498 On ch=1 n=g4 v=12
106498 On ch=1 n=g5 v=28
106500 On ch=1 n=f5 v=28
106516 Par ch=1 c=64 v=63
106546 Par ch=1 c=64 v=0
106620 Par ch=1 c=64 v=63
106660 Par ch=1 c=64 v=127
106782 On ch=1 n=b5 v=0
106818 On ch=1 n=g4 v=0
106820 On ch=1 n=g5 v=0
106824 On ch=1 n=f5 v=0
107418 On ch=1 n=d6 v=40
107418 On ch=1 n=g5 v=32
107440 On ch=1 n=e5 v=32
107596 Par ch=1 c=64 v=63
107664 Par ch=1 c=64 v=0
108118 On ch=1 n=c3 v=41
108286 Par ch=1 c=64 v=63
108326 Par ch=1 c=64 v=127
108656 On ch=1 n=f#3 v=61
108760 On ch=1 n=c3 v=0
109042 On ch=1 n=g3 v=54
109130 On ch=1 n=f#3 v=0
109346 On ch=1 n=g3 v=0
109376 On ch=1 n=e4 v=48
109394 Par ch=1 c=64 v=63
109412 Par ch=1 c=64 v=0
109426 Par ch=1 c=64 v=63
109458 Par ch=1 c=64 v=127
109704 On ch=1 n=g4 v=36
109794 On ch=1 n=e4 v=0
110058 On ch=1 n=c6 v=65
110090 On ch=1 n=d6 v=0
110182 Par ch=1 c=64 v=63
110228 Par ch=1 c=64 v=127
110406 On ch=1 n=f#4 v=61
110460 On ch=1 n=g4 v=0
110780 Par ch=1 c=64 v=63
110796 On ch=1 n=f#4 v=0
110812 On ch=1 n=g4 v=28
110826 Par ch=1 c=64 v=127
111124 Par ch=1 c=64 v=63
111174 Par ch=1 c=64 v=127
111228 On ch=1 n=d6 v=65
111292 On ch=1 n=c6 v=0
111528 On ch=1 n=e5 v=0
111570 On ch=1 n=g5 v=0
111648 On ch=1 n=e5 v=45
112098 On ch=1 n=g5 v=31
112422 Par ch=1 c=67 v=127
112588 On ch=1 n=g4 v=0
112678 On ch=1 n=e6 v=64
112748 On ch=1 n=e5 v=0
112856 On ch=1 n=g5 v=0
112972 On ch=1 n=d6 v=0
113342 On ch=1 n=e6 v=0
113428 On ch=1 n=e6 v=55
113438 On ch=1 n=f#6 v=57
114096 On ch=1 n=g6 v=63
115260 On ch=1 n=g7 v=36
115268 On ch=1 n=e7 v=31
115278 On ch=1 n=c7 v=12
116606 On ch=1 n=f#6 v=0
116610 On ch=1 n=e6 v=0
116630 On ch=1 n=g6 v=0
118012 On ch=1 n=e7 v=0
118014 On ch=1 n=c7 v=0
118030 On ch=1 n=g7 v=0
118078 Par ch=1 c=64 v=63
118090 Par ch=1 c=64 v=0
119306 Par ch=1 c=67 v=0
119306 Meta TrkEnd
TrkEnd
