MFile 1 9 480
MTrk
0 Meta SeqName "Die Jahreszeiten"
0 Meta SeqName "April"
0 Meta Copyright "Copyright \xffffffa9 2000 by Bernd Krueger"
0 Meta Text "Peter Tschaikowsky"
0 Meta Text "Allegro con moto e un poco rubato"
0 Meta Text "Fertiggestellt am 19.8.2000\n"
0 Meta Text "Normierung: 23.12.2002\n"
0 Meta Text "Dauer: 2:17 Minuten\n"
0 SMPTE 96 0 3 0 0
0 TimeSig 6/8 12 8
0 KeySig -2 major
0 Tempo 463858
1200 Tempo 519481
1440 Tempo 493827
1680 Tempo 497925
1920 Tempo 506329
2160 Tempo 495868
2640 Tempo 506372
2880 Tempo 493827
4080 Tempo 506372
4320 Tempo 492328
4800 Tempo 503525
5040 Tempo 492328
5520 Tempo 509381
5760 Tempo 495050
6960 Tempo 512208
7200 Tempo 497967
7680 Tempo 512208
7920 Tempo 495050
8400 Tempo 515774
8640 Tempo 500417
9120 Tempo 515287
9360 Tempo 497967
9840 Tempo 518224
10080 Tempo 509381
10560 Tempo 524430
10800 Tempo 508475
11280 Tempo 527519
11760 Tempo 538117
12480 Tempo 550459
12720 Tempo 513128
12960 Tempo 500000
13440 Tempo 500668
13680 Tempo 492328
13920 Tempo 506372
14160 Tempo 506372
14400 Tempo 492328
15600 Tempo 506372
15840 Tempo 492328
16320 Tempo 503525
16560 Tempo 492328
17040 Tempo 509381
17280 Tempo 495050
18480 Tempo 512208
18720 Tempo 497967
19200 Tempo 512208
19440 Tempo 495050
19920 Tempo 515774
20160 Tempo 500417
20640 Tempo 515287
20880 Tempo 497967
21360 Tempo 518224
21600 Tempo 509381
22080 Tempo 524430
22320 Tempo 497967
22800 Tempo 527519
24240 Tempo 513128
24480 Tempo 504202
24960 Tempo 500668
25200 Tempo 492328
25440 Tempo 506372
25680 Tempo 506372
25920 Tempo 492328
27120 Tempo 506372
27360 Tempo 492328
27840 Tempo 503525
28080 Tempo 492328
28560 Tempo 509381
28800 Tempo 495050
30000 Tempo 512208
30240 Tempo 497967
30720 Tempo 512208
30960 Tempo 495050
31440 Tempo 515774
31680 Tempo 500417
32160 Tempo 515287
32400 Tempo 497967
32880 Tempo 518224
33120 Tempo 509381
33600 Tempo 524430
33840 Tempo 497967
34320 Tempo 527519
35040 Tempo 535714
35280 Tempo 550459
35760 Tempo 594059
36000 Tempo 519481
36240 Tempo 508475
36480 Tempo 517241
36720 Tempo 497925
37200 Tempo 506372
37400 Tempo 495868
37520 Tempo 493827
37600 Tempo 491803
37680 Tempo 489796
37800 Tempo 487805
37880 Tempo 485830
37960 Tempo 483871
38040 Tempo 481928
38160 Tempo 480000
38240 Tempo 478088
38320 Tempo 476190
38400 Tempo 474308
38640 Tempo 547945
38880 Tempo 491803
39120 Tempo 497925
39360 Tempo 512821
39600 Tempo 497925
40080 Tempo 506372
40280 Tempo 495868
40400 Tempo 493827
40480 Tempo 491803
40560 Tempo 489796
40680 Tempo 487805
40760 Tempo 485830
40840 Tempo 483871
40920 Tempo 481928
41040 Tempo 480000
41120 Tempo 478088
41140 Tempo 476190
41160 Tempo 478088
41180 Tempo 481928
41200 Tempo 483871
41220 Tempo 487805
41240 Tempo 489796
41260 Tempo 493827
41280 Tempo 474308
41520 Tempo 535714
41760 Tempo 487805
42000 Tempo 495868
42240 Tempo 504202
42480 Tempo 493827
42960 Tempo 506372
43160 Tempo 495868
43280 Tempo 493827
43360 Tempo 491803
43440 Tempo 489796
43560 Tempo 487805
43640 Tempo 485830
43720 Tempo 483871
43800 Tempo 481928
43920 Tempo 480000
44000 Tempo 478088
44080 Tempo 476190
44160 Tempo 474308
44400 Tempo 538117
44640 Tempo 502092
45120 Tempo 512821
45360 Tempo 497925
45840 Tempo 506372
46040 Tempo 495868
46160 Tempo 493827
46240 Tempo 491803
46320 Tempo 489796
46440 Tempo 487805
46520 Tempo 485830
46600 Tempo 483871
46680 Tempo 481928
46800 Tempo 480000
46880 Tempo 478088
46900 Tempo 476190
46920 Tempo 478088
46940 Tempo 481928
46960 Tempo 483871
46980 Tempo 487805
47000 Tempo 489796
47020 Tempo 493827
47040 Tempo 474308
47280 Tempo 526316
47520 Tempo 497925
47760 Tempo 508475
48000 Tempo 515021
48240 Tempo 502092
48720 Tempo 515021
48960 Tempo 500000
49320 Tempo 493827
49400 Tempo 491803
49480 Tempo 489796
49560 Tempo 487805
49640 Tempo 485830
49680 Tempo 483871
50160 Tempo 538117
50400 Tempo 504202
50880 Tempo 515021
51120 Tempo 502092
51600 Tempo 515021
51840 Tempo 500000
52200 Tempo 493827
52280 Tempo 491803
52360 Tempo 489796
52440 Tempo 487805
52520 Tempo 485830
52560 Tempo 483871
53040 Tempo 538117
53280 Tempo 500000
53520 Tempo 508475
53760 Tempo 515021
54000 Tempo 502092
54480 Tempo 515021
54720 Tempo 500000
54960 Tempo 506329
55200 Tempo 515021
55440 Tempo 502092
55920 Tempo 515021
56160 Tempo 510638
56520 Tempo 493827
56880 Tempo 506329
57360 Tempo 538117
57600 Tempo 524017
57960 Tempo 515021
58320 Tempo 545455
58800 Tempo 655738
59040 Tempo 519481
59280 Tempo 512821
59520 Tempo 517241
59760 Tempo 502092
60240 Tempo 506372
60440 Tempo 495868
60560 Tempo 493827
60640 Tempo 491803
60720 Tempo 489796
60840 Tempo 487805
60920 Tempo 485830
61000 Tempo 483871
61080 Tempo 481928
61200 Tempo 480000
61280 Tempo 478088
61360 Tempo 476190
61440 Tempo 474308
61680 Tempo 547945
61920 Tempo 491803
62160 Tempo 500000
62400 Tempo 512821
62640 Tempo 497925
63120 Tempo 506372
63320 Tempo 495868
63440 Tempo 493827
63520 Tempo 491803
63600 Tempo 489796
63720 Tempo 487805
63800 Tempo 485830
63880 Tempo 483871
63960 Tempo 481928
64080 Tempo 480000
64160 Tempo 478088
64180 Tempo 476190
64200 Tempo 478088
64220 Tempo 481928
64240 Tempo 483871
64260 Tempo 487805
64280 Tempo 489796
64300 Tempo 493827
64320 Tempo 474308
64560 Tempo 526316
64800 Tempo 495868
65280 Tempo 504202
65520 Tempo 493827
66000 Tempo 506372
66200 Tempo 495868
66320 Tempo 493827
66400 Tempo 491803
66480 Tempo 489796
66600 Tempo 487805
66680 Tempo 485830
66760 Tempo 483871
66840 Tempo 481928
66960 Tempo 480000
67040 Tempo 478088
67120 Tempo 476190
67200 Tempo 474308
67440 Tempo 538117
67680 Tempo 497925
67920 Tempo 502092
68160 Tempo 512821
68400 Tempo 497925
68880 Tempo 506372
69080 Tempo 495868
69200 Tempo 493827
69280 Tempo 491803
69360 Tempo 489796
69480 Tempo 487805
69560 Tempo 485830
69640 Tempo 483871
69720 Tempo 481928
69840 Tempo 480000
69920 Tempo 478088
69940 Tempo 476190
69960 Tempo 478088
69980 Tempo 481928
70000 Tempo 483871
70020 Tempo 487805
70040 Tempo 489796
70060 Tempo 493827
70080 Tempo 474308
70320 Tempo 526316
70560 Tempo 497925
70800 Tempo 508475
71040 Tempo 515021
71280 Tempo 502092
71760 Tempo 515021
72000 Tempo 500000
72360 Tempo 493827
72440 Tempo 491803
72520 Tempo 489796
72600 Tempo 487805
72680 Tempo 485830
72720 Tempo 483871
73200 Tempo 538117
73440 Tempo 504202
73920 Tempo 515021
74160 Tempo 502092
74640 Tempo 515021
74880 Tempo 500000
75240 Tempo 493827
75320 Tempo 491803
75400 Tempo 489796
75480 Tempo 487805
75560 Tempo 485830
75600 Tempo 483871
76080 Tempo 521739
76320 Tempo 512821
76560 Tempo 500000
76640 Tempo 497925
76720 Tempo 495868
76800 Tempo 493827
76840 Tempo 491803
76920 Tempo 489796
77000 Tempo 487805
77040 Tempo 485830
77520 Tempo 538117
77760 Tempo 512821
78120 Tempo 497925
78200 Tempo 495868
78240 Tempo 493827
78280 Tempo 491803
78360 Tempo 489796
78400 Tempo 487805
78440 Tempo 485830
78480 Tempo 483871
78960 Tempo 524017
79200 Tempo 510638
79520 Tempo 504202
79600 Tempo 502092
79680 Tempo 500000
79720 Tempo 497925
79800 Tempo 495868
79880 Tempo 493827
79920 Tempo 491803
80400 Tempo 538117
80640 Tempo 512821
81000 Tempo 504202
81080 Tempo 502092
81160 Tempo 500000
81240 Tempo 497925
81320 Tempo 495868
81360 Tempo 493827
81840 Tempo 533333
82080 Tempo 515021
82560 Tempo 533333
82800 Tempo 517241
83280 Tempo 547945
83520 Tempo 530973
84000 Tempo 582524
84240 Tempo 571429
84480 Tempo 591133
84720 Tempo 535714
84960 Tempo 506329
85200 Tempo 519481
85440 Tempo 510638
85680 Tempo 500000
86160 Tempo 512821
86400 Tempo 497925
87600 Tempo 506372
87840 Tempo 493827
88320 Tempo 503525
88560 Tempo 492328
89040 Tempo 509381
89280 Tempo 495050
90480 Tempo 512208
90720 Tempo 497967
91200 Tempo 512208
91440 Tempo 495050
91920 Tempo 515774
92160 Tempo 500417
92640 Tempo 515287
92880 Tempo 497967
93360 Tempo 518224
93600 Tempo 509381
94080 Tempo 524430
94320 Tempo 508475
94800 Tempo 527519
95280 Tempo 538117
96000 Tempo 550459
96240 Tempo 513128
96480 Tempo 500000
96960 Tempo 500668
97200 Tempo 492328
97440 Tempo 506372
97680 Tempo 506372
97920 Tempo 492328
99120 Tempo 506372
99360 Tempo 492328
99840 Tempo 503525
100080 Tempo 492328
100560 Tempo 509381
100800 Tempo 495050
102000 Tempo 512208
102240 Tempo 497967
102720 Tempo 512208
102960 Tempo 495050
103440 Tempo 515774
103680 Tempo 500417
104160 Tempo 515287
104400 Tempo 497967
104880 Tempo 518224
105120 Tempo 509381
105600 Tempo 524430
105840 Tempo 497967
106320 Tempo 527519
107040 Tempo 535714
107280 Tempo 550459
107760 Tempo 594059
108000 Tempo 515021
108480 Tempo 533333
108720 Tempo 517241
109200 Tempo 547945
109440 Tempo 515021
109920 Tempo 533333
110160 Tempo 517241
110640 Tempo 547945
110880 Tempo 526316
111360 Tempo 547945
111600 Tempo 530973
112080 Tempo 566038
112320 Tempo 540541
112800 Tempo 568720
113040 Tempo 545455
113520 Tempo 563380
113760 Tempo 524017
114240 Tempo 540541
114480 Tempo 526316
114960 Tempo 547945
115200 Tempo 521739
115680 Tempo 542986
115920 Tempo 526316
116400 Tempo 547945
116640 Tempo 535714
117120 Tempo 558140
117360 Tempo 540541
117840 Tempo 566038
118080 Tempo 550459
118560 Tempo 568720
118800 Tempo 552995
119280 Tempo 563380
119520 Tempo 550459
120000 Tempo 568720
120240 Tempo 552995
120720 Tempo 574163
120960 Tempo 560748
121440 Tempo 582524
121680 Tempo 563380
122160 Tempo 576923
122400 Tempo 634921
122880 Tempo 615385
123360 Tempo 655738
123840 Tempo 670391
124320 Tempo 740741
126720 Tempo 857143
126720 Meta TrkEnd
TrkEnd
MTrk
0 Meta 0x21 00
0 Meta TrkName "Piano right"
0 PrCh ch=1 p=0
0 Par ch=1 c=7 v=100
0 Par ch=1 c=91 v=127
0 Meta Text "bdca426d104a26ac9dcb070447587523"
960 Par ch=1 c=91 v=127
1200 On ch=1 n=f5 v=51
1440 On ch=1 n=f5 v=0
1440 On ch=1 n=g5 v=55
2160 On ch=1 n=g5 v=0
2160 On ch=1 n=a5 v=56
2640 On ch=1 n=a5 v=0
2640 On ch=1 n=a#5 v=55
2880 On ch=1 n=a#5 v=0
2880 On ch=1 n=d6 v=61
3600 On ch=1 n=d6 v=0
3600 On ch=1 n=c6 v=55
4080 On ch=1 n=c6 v=0
4080 On ch=1 n=f5 v=52
4320 On ch=1 n=f5 v=0
4320 On ch=1 n=b5 v=55
5040 On ch=1 n=b5 v=0
5040 On ch=1 n=c6 v=59
5520 On ch=1 n=c6 v=0
5520 On ch=1 n=d6 v=56
5760 On ch=1 n=d6 v=0
5760 On ch=1 n=f6 v=63
6480 On ch=1 n=f6 v=0
6480 On ch=1 n=d#6 v=60
6960 On ch=1 n=d#6 v=0
6960 On ch=1 n=d#6 v=66
7200 On ch=1 n=d#6 v=0
7200 On ch=1 n=e6 v=70
7920 On ch=1 n=e6 v=0
7920 On ch=1 n=a#6 v=66
8400 On ch=1 n=a#6 v=0
8400 On ch=1 n=a6 v=61
8640 On ch=1 n=a6 v=0
8640 On ch=1 n=a5 v=60
9360 On ch=1 n=a5 v=0
9360 On ch=1 n=a#6 v=64
9840 On ch=1 n=a#6 v=0
9840 On ch=1 n=a6 v=58
10080 On ch=1 n=a6 v=0
10080 On ch=1 n=a5 v=54
10800 On ch=1 n=a5 v=0
10800 On ch=1 n=a#6 v=57
11280 On ch=1 n=a#6 v=0
11280 On ch=1 n=a6 v=53
11520 On ch=1 n=a6 v=0
11520 On ch=1 n=a5 v=50
11760 On ch=1 n=d5 v=35
11760 On ch=1 n=f5 v=35
12000 On ch=1 n=f5 v=0
12000 On ch=1 n=d5 v=0
12000 On ch=1 n=d5 v=31
12000 On ch=1 n=f5 v=31
12240 On ch=1 n=f5 v=0
12240 On ch=1 n=d5 v=0
12240 On ch=1 n=f5 v=31
12240 On ch=1 n=d5 v=31
12480 On ch=1 n=d5 v=0
12480 On ch=1 n=f5 v=0
12480 On ch=1 n=d5 v=31
12480 On ch=1 n=f5 v=31
12720 On ch=1 n=f5 v=0
12720 On ch=1 n=d5 v=0
12720 On ch=1 n=a5 v=0
12720 On ch=1 n=f4 v=52
12960 On ch=1 n=f4 v=0
12960 On ch=1 n=g4 v=55
13680 On ch=1 n=g4 v=0
13680 On ch=1 n=a4 v=55
14160 On ch=1 n=a4 v=0
14160 On ch=1 n=a#4 v=52
14400 On ch=1 n=a#4 v=0
14400 On ch=1 n=g4 v=59
15120 On ch=1 n=g4 v=0
15120 On ch=1 n=f4 v=55
15600 On ch=1 n=f4 v=0
15600 On ch=1 n=g4 v=52
15840 On ch=1 n=g4 v=0
15840 On ch=1 n=a4 v=58
16560 On ch=1 n=a4 v=0
16560 On ch=1 n=b4 v=59
17040 On ch=1 n=b4 v=0
17040 On ch=1 n=d5 v=54
17280 On ch=1 n=d5 v=0
17280 On ch=1 n=g#4 v=63
18000 On ch=1 n=g#4 v=0
18000 On ch=1 n=g4 v=60
18480 On ch=1 n=g4 v=0
18480 On ch=1 n=c5 v=66
18720 On ch=1 n=c5 v=0
18720 On ch=1 n=c#5 v=69
19440 On ch=1 n=c6 v=66
19920 On ch=1 n=c6 v=0
19920 On ch=1 n=a#5 v=61
20160 On ch=1 n=a#5 v=0
20160 On ch=1 n=c#5 v=0
20160 On ch=1 n=d5 v=68
20880 On ch=1 n=a5 v=64
21360 On ch=1 n=a5 v=0
21360 On ch=1 n=g5 v=58
21600 On ch=1 n=g5 v=0
21600 On ch=1 n=d5 v=0
21600 On ch=1 n=g#4 v=54
22080 On ch=1 n=g#4 v=0
22080 On ch=1 n=a4 v=50
22320 On ch=1 n=a4 v=0
22320 On ch=1 n=d5 v=56
22800 On ch=1 n=d5 v=0
22800 On ch=1 n=a4 v=53
23040 On ch=1 n=a4 v=0
23040 On ch=1 n=a4 v=50
23760 On ch=1 n=a4 v=0
23760 On ch=1 n=a#4 v=46
24240 On ch=1 n=a#4 v=0
24240 On ch=1 n=a4 v=52
24480 On ch=1 n=a4 v=0
24480 On ch=1 n=g4 v=55
25200 On ch=1 n=g4 v=0
25200 On ch=1 n=a4 v=56
25680 On ch=1 n=a4 v=0
25680 On ch=1 n=c5 v=53
25920 On ch=1 n=c5 v=0
25920 On ch=1 n=g4 v=59
26640 On ch=1 n=g4 v=0
26640 On ch=1 n=f4 v=55
27120 On ch=1 n=f4 v=0
27120 On ch=1 n=g4 v=52
27360 On ch=1 n=g4 v=0
27360 On ch=1 n=a4 v=55
28080 On ch=1 n=a4 v=0
28080 On ch=1 n=b4 v=59
28560 On ch=1 n=b4 v=0
28560 On ch=1 n=d5 v=55
28800 On ch=1 n=d5 v=0
28800 On ch=1 n=g#4 v=63
29520 On ch=1 n=g#4 v=0
29520 On ch=1 n=g4 v=60
30000 On ch=1 n=g4 v=0
30000 On ch=1 n=c5 v=66
30240 On ch=1 n=c5 v=0
30240 On ch=1 n=c#5 v=70
30960 On ch=1 n=c6 v=66
31440 On ch=1 n=c6 v=0
31440 On ch=1 n=a#5 v=61
31680 On ch=1 n=a#5 v=0
31680 On ch=1 n=c#5 v=0
31680 On ch=1 n=d5 v=68
32400 On ch=1 n=a5 v=64
32880 On ch=1 n=a5 v=0
32880 On ch=1 n=g5 v=58
33120 On ch=1 n=g5 v=0
33120 On ch=1 n=d5 v=0
33120 On ch=1 n=g#4 v=54
33600 On ch=1 n=g#4 v=0
33600 On ch=1 n=a4 v=50
33840 On ch=1 n=a4 v=0
33840 On ch=1 n=d5 v=56
34320 On ch=1 n=d5 v=0
34320 On ch=1 n=a4 v=53
34560 On ch=1 n=a4 v=0
34560 On ch=1 n=c5 v=50
35280 On ch=1 n=c5 v=0
35280 On ch=1 n=a#4 v=46
35760 On ch=1 n=a#4 v=0
36000 On ch=1 n=d5 v=55
36720 On ch=1 n=d5 v=0
36720 On ch=1 n=f5 v=64
36960 On ch=1 n=a4 v=36
36960 On ch=1 n=c#5 v=36
37200 On ch=1 n=c#5 v=0
37200 On ch=1 n=a4 v=0
37200 On ch=1 n=f5 v=0
37200 On ch=1 n=a4 v=34
37200 On ch=1 n=c#5 v=34
37200 On ch=1 n=e5 v=58
37440 On ch=1 n=e5 v=0
37440 On ch=1 n=c#5 v=0
37440 On ch=1 n=a4 v=0
37440 On ch=1 n=c#5 v=51
37560 On ch=1 n=c#5 v=0
37560 On ch=1 n=d5 v=53
37680 On ch=1 n=d5 v=0
37680 On ch=1 n=e5 v=55
37800 On ch=1 n=e5 v=0
37800 On ch=1 n=f5 v=58
37920 On ch=1 n=f5 v=0
37920 On ch=1 n=g#5 v=60
38040 On ch=1 n=g#5 v=0
38040 On ch=1 n=a5 v=63
38160 On ch=1 n=a5 v=0
38160 On ch=1 n=c#6 v=66
38280 On ch=1 n=c#6 v=0
38280 On ch=1 n=d6 v=68
38400 On ch=1 n=d6 v=0
38400 On ch=1 n=f6 v=74
38520 On ch=1 n=f6 v=0
38880 On ch=1 n=d5 v=56
39600 On ch=1 n=d5 v=0
39600 On ch=1 n=f5 v=64
39840 On ch=1 n=a4 v=36
39840 On ch=1 n=c#5 v=36
40080 On ch=1 n=c#5 v=0
40080 On ch=1 n=a4 v=0
40080 On ch=1 n=f5 v=0
40080 On ch=1 n=a4 v=34
40080 On ch=1 n=c#5 v=34
40080 On ch=1 n=e5 v=58
40320 On ch=1 n=e5 v=0
40320 On ch=1 n=c#5 v=0
40320 On ch=1 n=a4 v=0
40320 On ch=1 n=c#5 v=51
40440 On ch=1 n=c#5 v=0
40440 On ch=1 n=d5 v=53
40560 On ch=1 n=d5 v=0
40560 On ch=1 n=e5 v=55
40680 On ch=1 n=e5 v=0
40680 On ch=1 n=f5 v=58
40800 On ch=1 n=f5 v=0
40800 On ch=1 n=g#5 v=60
40920 On ch=1 n=g#5 v=0
40920 On ch=1 n=a5 v=63
41040 On ch=1 n=a5 v=0
41040 On ch=1 n=c#6 v=66
41160 On ch=1 n=c#6 v=0
41160 On ch=1 n=d6 v=68
41280 On ch=1 n=d6 v=0
41280 On ch=1 n=a6 v=73
41400 On ch=1 n=a6 v=0
41760 On ch=1 n=d5 v=57
42480 On ch=1 n=d5 v=0
42480 On ch=1 n=f5 v=64
42720 On ch=1 n=c#5 v=36
42720 On ch=1 n=a4 v=36
42960 On ch=1 n=a4 v=0
42960 On ch=1 n=c#5 v=0
42960 On ch=1 n=f5 v=0
42960 On ch=1 n=e5 v=58
42960 On ch=1 n=a4 v=34
42960 On ch=1 n=c#5 v=34
43200 On ch=1 n=c#5 v=0
43200 On ch=1 n=a4 v=0
43200 On ch=1 n=e5 v=0
43200 On ch=1 n=c#5 v=51
43320 On ch=1 n=c#5 v=0
43320 On ch=1 n=d5 v=53
43440 On ch=1 n=d5 v=0
43440 On ch=1 n=e5 v=55
43560 On ch=1 n=e5 v=0
43560 On ch=1 n=f5 v=58
43680 On ch=1 n=f5 v=0
43680 On ch=1 n=g#5 v=60
43800 On ch=1 n=g#5 v=0
43800 On ch=1 n=a5 v=63
43920 On ch=1 n=a5 v=0
43920 On ch=1 n=c#6 v=66
44040 On ch=1 n=c#6 v=0
44040 On ch=1 n=d6 v=68
44160 On ch=1 n=d6 v=0
44160 On ch=1 n=f6 v=74
44280 On ch=1 n=f6 v=0
44640 On ch=1 n=d5 v=58
45360 On ch=1 n=d5 v=0
45360 On ch=1 n=f5 v=63
45600 On ch=1 n=c#5 v=36
45600 On ch=1 n=a4 v=36
45840 On ch=1 n=a4 v=0
45840 On ch=1 n=c#5 v=0
45840 On ch=1 n=f5 v=0
45840 On ch=1 n=e5 v=58
45840 On ch=1 n=a4 v=34
45840 On ch=1 n=c#5 v=34
46080 On ch=1 n=c#5 v=0
46080 On ch=1 n=a4 v=0
46080 On ch=1 n=e5 v=0
46080 On ch=1 n=c#5 v=51
46200 On ch=1 n=c#5 v=0
46200 On ch=1 n=d5 v=53
46320 On ch=1 n=d5 v=0
46320 On ch=1 n=e5 v=55
46440 On ch=1 n=e5 v=0
46440 On ch=1 n=f5 v=58
46560 On ch=1 n=f5 v=0
46560 On ch=1 n=g#5 v=60
46680 On ch=1 n=g#5 v=0
46680 On ch=1 n=a5 v=63
46800 On ch=1 n=a5 v=0
46800 On ch=1 n=c#6 v=66
46920 On ch=1 n=c#6 v=0
46920 On ch=1 n=d6 v=68
47040 On ch=1 n=d6 v=0
47040 On ch=1 n=a6 v=74
47160 On ch=1 n=a6 v=0
47520 On ch=1 n=d7 v=85
48240 On ch=1 n=d7 v=0
48240 On ch=1 n=d6 v=72
48960 On ch=1 n=d6 v=0
48960 On ch=1 n=c5 v=57
49320 On ch=1 n=c5 v=0
49320 On ch=1 n=d5 v=54
49440 On ch=1 n=d5 v=0
49440 On ch=1 n=d#5 v=57
49560 On ch=1 n=d#5 v=0
49560 On ch=1 n=e5 v=59
49680 On ch=1 n=e5 v=0
49680 On ch=1 n=g5 v=62
49920 On ch=1 n=a4 v=46
49920 On ch=1 n=c5 v=46
50040 On ch=1 n=c5 v=0
50040 On ch=1 n=a4 v=0
50160 On ch=1 n=g5 v=0
50160 On ch=1 n=c5 v=42
50160 On ch=1 n=a4 v=42
50160 On ch=1 n=f5 v=59
50280 On ch=1 n=a4 v=0
50280 On ch=1 n=c5 v=0
50400 On ch=1 n=f5 v=0
50400 On ch=1 n=a#6 v=74
51120 On ch=1 n=a#6 v=0
51120 On ch=1 n=a#5 v=67
51840 On ch=1 n=a#5 v=0
51840 On ch=1 n=a4 v=57
52200 On ch=1 n=a4 v=0
52200 On ch=1 n=a#4 v=49
52320 On ch=1 n=a#4 v=0
52320 On ch=1 n=b4 v=52
52440 On ch=1 n=b4 v=0
52440 On ch=1 n=c#5 v=55
52560 On ch=1 n=c#5 v=0
52560 On ch=1 n=e5 v=58
52800 On ch=1 n=f4 v=46
52920 On ch=1 n=f4 v=0
53040 On ch=1 n=e5 v=0
53040 On ch=1 n=d5 v=56
53040 On ch=1 n=f4 v=42
53160 On ch=1 n=f4 v=0
53280 On ch=1 n=d5 v=0
53520 On ch=1 n=g5 v=41
53520 On ch=1 n=a#4 v=36
53520 On ch=1 n=d5 v=41
53760 On ch=1 n=d5 v=0
53760 On ch=1 n=a#4 v=0
53760 On ch=1 n=g5 v=0
53760 On ch=1 n=g5 v=35
53760 On ch=1 n=a#4 v=30
53760 On ch=1 n=d5 v=35
54000 On ch=1 n=d5 v=0
54000 On ch=1 n=a#4 v=0
54000 On ch=1 n=g5 v=0
54000 On ch=1 n=a6 v=70
54480 On ch=1 n=a6 v=0
54480 On ch=1 n=a5 v=59
54720 On ch=1 n=a5 v=0
54960 On ch=1 n=d5 v=41
54960 On ch=1 n=a#4 v=36
54960 On ch=1 n=g5 v=41
55200 On ch=1 n=g5 v=0
55200 On ch=1 n=a#4 v=0
55200 On ch=1 n=d5 v=0
55200 On ch=1 n=d5 v=35
55200 On ch=1 n=a#4 v=30
55200 On ch=1 n=g5 v=35
55440 On ch=1 n=g5 v=0
55440 On ch=1 n=a#4 v=0
55440 On ch=1 n=d5 v=0
55440 On ch=1 n=a6 v=69
55920 On ch=1 n=a6 v=0
55920 On ch=1 n=a5 v=59
56160 On ch=1 n=a5 v=0
56160 On ch=1 n=e5 v=50
56520 On ch=1 n=e5 v=0
56520 On ch=1 n=d#5 v=45
56640 On ch=1 n=d#5 v=0
56640 On ch=1 n=e5 v=48
56760 On ch=1 n=e5 v=0
56760 On ch=1 n=f5 v=51
56880 On ch=1 n=f5 v=0
56880 On ch=1 n=a5 v=54
57360 On ch=1 n=a5 v=0
57360 On ch=1 n=g5 v=52
57600 On ch=1 n=g5 v=0
57840 On ch=1 n=d5 v=39
57840 On ch=1 n=a#4 v=39
57840 On ch=1 n=g4 v=36
58320 On ch=1 n=g4 v=0
58320 On ch=1 n=a#4 v=0
58320 On ch=1 n=d5 v=0
58560 On ch=1 n=e4 v=32
58560 On ch=1 n=g4 v=32
58560 On ch=1 n=c#5 v=36
59040 On ch=1 n=c#5 v=0
59040 On ch=1 n=g4 v=0
59040 On ch=1 n=e4 v=0
59040 On ch=1 n=d5 v=58
59760 On ch=1 n=d5 v=0
59760 On ch=1 n=f5 v=64
60000 On ch=1 n=c#5 v=36
60000 On ch=1 n=a4 v=36
60240 On ch=1 n=a4 v=0
60240 On ch=1 n=c#5 v=0
60240 On ch=1 n=f5 v=0
60240 On ch=1 n=e5 v=58
60240 On ch=1 n=a4 v=34
60240 On ch=1 n=c#5 v=34
60480 On ch=1 n=c#5 v=0
60480 On ch=1 n=a4 v=0
60480 On ch=1 n=e5 v=0
60480 On ch=1 n=c#5 v=51
60600 On ch=1 n=c#5 v=0
60600 On ch=1 n=d5 v=53
60720 On ch=1 n=d5 v=0
60720 On ch=1 n=e5 v=55
60840 On ch=1 n=e5 v=0
60840 On ch=1 n=f5 v=58
60960 On ch=1 n=f5 v=0
60960 On ch=1 n=g#5 v=60
61080 On ch=1 n=g#5 v=0
61080 On ch=1 n=a5 v=63
61200 On ch=1 n=a5 v=0
61200 On ch=1 n=c#6 v=66
61320 On ch=1 n=c#6 v=0
61320 On ch=1 n=d6 v=68
61440 On ch=1 n=d6 v=0
61440 On ch=1 n=f6 v=75
61560 On ch=1 n=f6 v=0
61920 On ch=1 n=d5 v=58
62640 On ch=1 n=d5 v=0
62640 On ch=1 n=f5 v=64
62880 On ch=1 n=a4 v=36
62880 On ch=1 n=c#5 v=36
63120 On ch=1 n=c#5 v=0
63120 On ch=1 n=a4 v=0
63120 On ch=1 n=f5 v=0
63120 On ch=1 n=c#5 v=34
63120 On ch=1 n=e5 v=58
63120 On ch=1 n=a4 v=34
63360 On ch=1 n=a4 v=0
63360 On ch=1 n=e5 v=0
63360 On ch=1 n=c#5 v=0
63360 On ch=1 n=c#5 v=51
63480 On ch=1 n=c#5 v=0
63480 On ch=1 n=d5 v=53
63600 On ch=1 n=d5 v=0
63600 On ch=1 n=e5 v=55
63720 On ch=1 n=e5 v=0
63720 On ch=1 n=f5 v=58
63840 On ch=1 n=f5 v=0
63840 On ch=1 n=g#5 v=60
63960 On ch=1 n=g#5 v=0
63960 On ch=1 n=a5 v=63
64080 On ch=1 n=a5 v=0
64080 On ch=1 n=c#6 v=66
64200 On ch=1 n=c#6 v=0
64200 On ch=1 n=d6 v=68
64320 On ch=1 n=d6 v=0
64320 On ch=1 n=a6 v=74
64440 On ch=1 n=a6 v=0
64800 On ch=1 n=d5 v=59
65520 On ch=1 n=d5 v=0
65520 On ch=1 n=f5 v=64
65760 On ch=1 n=c#5 v=36
65760 On ch=1 n=a4 v=36
66000 On ch=1 n=a4 v=0
66000 On ch=1 n=c#5 v=0
66000 On ch=1 n=f5 v=0
66000 On ch=1 n=e5 v=58
66000 On ch=1 n=a4 v=34
66000 On ch=1 n=c#5 v=34
66240 On ch=1 n=c#5 v=0
66240 On ch=1 n=a4 v=0
66240 On ch=1 n=e5 v=0
66240 On ch=1 n=c#5 v=51
66360 On ch=1 n=c#5 v=0
66360 On ch=1 n=d5 v=53
66480 On ch=1 n=d5 v=0
66480 On ch=1 n=e5 v=55
66600 On ch=1 n=e5 v=0
66600 On ch=1 n=f5 v=58
66720 On ch=1 n=f5 v=0
66720 On ch=1 n=g#5 v=60
66840 On ch=1 n=g#5 v=0
66840 On ch=1 n=a5 v=63
66960 On ch=1 n=a5 v=0
66960 On ch=1 n=c#6 v=66
67080 On ch=1 n=c#6 v=0
67080 On ch=1 n=d6 v=68
67200 On ch=1 n=d6 v=0
67200 On ch=1 n=f6 v=73
67320 On ch=1 n=f6 v=0
67680 On ch=1 n=d5 v=58
68400 On ch=1 n=d5 v=0
68400 On ch=1 n=f5 v=63
68640 On ch=1 n=c#5 v=36
68640 On ch=1 n=a4 v=36
68880 On ch=1 n=a4 v=0
68880 On ch=1 n=c#5 v=0
68880 On ch=1 n=f5 v=0
68880 On ch=1 n=e5 v=58
68880 On ch=1 n=a4 v=34
68880 On ch=1 n=c#5 v=34
69120 On ch=1 n=c#5 v=0
69120 On ch=1 n=a4 v=0
69120 On ch=1 n=e5 v=0
69120 On ch=1 n=c#5 v=51
69240 On ch=1 n=c#5 v=0
69240 On ch=1 n=d5 v=53
69360 On ch=1 n=d5 v=0
69360 On ch=1 n=e5 v=55
69480 On ch=1 n=e5 v=0
69480 On ch=1 n=f5 v=58
69600 On ch=1 n=f5 v=0
69600 On ch=1 n=g#5 v=60
69720 On ch=1 n=g#5 v=0
69720 On ch=1 n=a5 v=63
69840 On ch=1 n=a5 v=0
69840 On ch=1 n=c#6 v=66
69960 On ch=1 n=c#6 v=0
69960 On ch=1 n=d6 v=68
70080 On ch=1 n=d6 v=0
70080 On ch=1 n=a6 v=74
70200 On ch=1 n=a6 v=0
70560 On ch=1 n=d7 v=86
71280 On ch=1 n=d7 v=0
71280 On ch=1 n=d6 v=72
72000 On ch=1 n=d6 v=0
72000 On ch=1 n=c5 v=57
72360 On ch=1 n=c5 v=0
72360 On ch=1 n=d5 v=54
72480 On ch=1 n=d5 v=0
72480 On ch=1 n=d#5 v=57
72600 On ch=1 n=d#5 v=0
72600 On ch=1 n=e5 v=59
72720 On ch=1 n=e5 v=0
72720 On ch=1 n=g5 v=62
72960 On ch=1 n=c5 v=46
72960 On ch=1 n=a4 v=46
73080 On ch=1 n=a4 v=0
73080 On ch=1 n=c5 v=0
73200 On ch=1 n=g5 v=0
73200 On ch=1 n=c5 v=42
73200 On ch=1 n=f5 v=59
73200 On ch=1 n=a4 v=42
73320 On ch=1 n=a4 v=0
73320 On ch=1 n=c5 v=0
73440 On ch=1 n=f5 v=0
73440 On ch=1 n=a#6 v=72
74160 On ch=1 n=a#6 v=0
74160 On ch=1 n=a#5 v=62
74880 On ch=1 n=a#5 v=0
74880 On ch=1 n=a#4 v=51
75240 On ch=1 n=a#4 v=0
75240 On ch=1 n=b4 v=43
75360 On ch=1 n=b4 v=0
75360 On ch=1 n=c5 v=46
75480 On ch=1 n=c5 v=0
75480 On ch=1 n=d5 v=48
75600 On ch=1 n=d5 v=0
75600 On ch=1 n=f5 v=51
76080 On ch=1 n=f5 v=0
76080 On ch=1 n=d#5 v=48
76320 On ch=1 n=d#5 v=0
76560 On ch=1 n=f4 v=30
76560 On ch=1 n=f5 v=33
76560 On ch=1 n=d#5 v=33
76740 On ch=1 n=d#5 v=0
76740 On ch=1 n=f5 v=0
76740 On ch=1 n=f4 v=0
76800 On ch=1 n=d#5 v=30
76800 On ch=1 n=f4 v=27
76800 On ch=1 n=f5 v=30
76980 On ch=1 n=f5 v=0
76980 On ch=1 n=f4 v=0
76980 On ch=1 n=d#5 v=0
77280 On ch=1 n=d#5 v=29
77280 On ch=1 n=f4 v=26
77280 On ch=1 n=f5 v=29
77460 On ch=1 n=f5 v=0
77460 On ch=1 n=f4 v=0
77460 On ch=1 n=d#5 v=0
77520 On ch=1 n=d#5 v=26
77520 On ch=1 n=f4 v=23
77520 On ch=1 n=f5 v=26
77700 On ch=1 n=f5 v=0
77700 On ch=1 n=f4 v=0
77700 On ch=1 n=d#5 v=0
77760 On ch=1 n=g#5 v=51
78120 On ch=1 n=g#5 v=0
78120 On ch=1 n=a5 v=43
78240 On ch=1 n=a5 v=0
78240 On ch=1 n=g#5 v=46
78360 On ch=1 n=g#5 v=0
78360 On ch=1 n=a5 v=48
78480 On ch=1 n=a5 v=0
78480 On ch=1 n=d6 v=51
78720 On ch=1 n=d6 v=0
78720 On ch=1 n=d#5 v=35
78720 On ch=1 n=b5 v=51
78900 On ch=1 n=d#5 v=0
78960 On ch=1 n=b5 v=0
78960 On ch=1 n=c6 v=48
78960 On ch=1 n=d#5 v=31
79140 On ch=1 n=d#5 v=0
79200 On ch=1 n=c6 v=0
79440 On ch=1 n=f5 v=33
79440 On ch=1 n=f4 v=30
79440 On ch=1 n=d#5 v=33
79620 On ch=1 n=d#5 v=0
79620 On ch=1 n=f4 v=0
79620 On ch=1 n=f5 v=0
79680 On ch=1 n=f5 v=30
79680 On ch=1 n=f4 v=27
79680 On ch=1 n=d#5 v=30
79860 On ch=1 n=d#5 v=0
79860 On ch=1 n=f4 v=0
79860 On ch=1 n=f5 v=0
80160 On ch=1 n=f5 v=29
80160 On ch=1 n=f4 v=26
80160 On ch=1 n=d#5 v=29
80340 On ch=1 n=d#5 v=0
80340 On ch=1 n=f4 v=0
80340 On ch=1 n=f5 v=0
80400 On ch=1 n=f4 v=23
80400 On ch=1 n=d#5 v=26
80400 On ch=1 n=f5 v=26
80580 On ch=1 n=f5 v=0
80580 On ch=1 n=d#5 v=0
80580 On ch=1 n=f4 v=0
80640 On ch=1 n=g#5 v=51
81000 On ch=1 n=g#5 v=0
81000 On ch=1 n=a5 v=43
81120 On ch=1 n=a5 v=0
81120 On ch=1 n=g#5 v=46
81240 On ch=1 n=g#5 v=0
81240 On ch=1 n=a5 v=48
81360 On ch=1 n=a5 v=0
81360 On ch=1 n=d6 v=51
81600 On ch=1 n=d6 v=0
81600 On ch=1 n=b5 v=51
81600 On ch=1 n=d#5 v=35
81780 On ch=1 n=d#5 v=0
81840 On ch=1 n=b5 v=0
81840 On ch=1 n=c6 v=48
81840 On ch=1 n=d#5 v=31
82020 On ch=1 n=d#5 v=0
82080 On ch=1 n=c6 v=0
82080 On ch=1 n=g5 v=51
82560 On ch=1 n=g5 v=0
82560 On ch=1 n=c6 v=46
82800 On ch=1 n=c6 v=0
82800 On ch=1 n=f#5 v=51
83040 On ch=1 n=f#5 v=0
83040 On ch=1 n=c5 v=35
83040 On ch=1 n=d#5 v=35
83220 On ch=1 n=d#5 v=0
83220 On ch=1 n=c5 v=0
83280 On ch=1 n=d#5 v=31
83280 On ch=1 n=c5 v=31
83280 On ch=1 n=f5 v=48
83460 On ch=1 n=c5 v=0
83460 On ch=1 n=d#5 v=0
83520 On ch=1 n=f5 v=0
83520 On ch=1 n=g5 v=48
84000 On ch=1 n=g5 v=0
84000 On ch=1 n=c6 v=42
84240 On ch=1 n=c6 v=0
84240 On ch=1 n=f#5 v=45
84480 On ch=1 n=f#5 v=0
84480 On ch=1 n=d#5 v=31
84480 On ch=1 n=c5 v=31
84660 On ch=1 n=c5 v=0
84660 On ch=1 n=d#5 v=0
84720 On ch=1 n=f5 v=41
84720 On ch=1 n=c5 v=26
84720 On ch=1 n=d#5 v=26
84900 On ch=1 n=d#5 v=0
84900 On ch=1 n=c5 v=0
84960 On ch=1 n=f5 v=0
84960 On ch=1 n=g5 v=51
85680 On ch=1 n=g5 v=0
85680 On ch=1 n=a5 v=53
86160 On ch=1 n=a5 v=0
86160 On ch=1 n=a#5 v=54
86400 On ch=1 n=a#5 v=0
86400 On ch=1 n=d6 v=61
87120 On ch=1 n=d6 v=0
87120 On ch=1 n=c6 v=55
87600 On ch=1 n=c6 v=0
87600 On ch=1 n=f5 v=52
87840 On ch=1 n=f5 v=0
87840 On ch=1 n=b5 v=55
88560 On ch=1 n=b5 v=0
88560 On ch=1 n=c6 v=59
89040 On ch=1 n=c6 v=0
89040 On ch=1 n=d6 v=57
89280 On ch=1 n=d6 v=0
89280 On ch=1 n=f6 v=63
90000 On ch=1 n=f6 v=0
90000 On ch=1 n=d#6 v=60
90480 On ch=1 n=d#6 v=0
90480 On ch=1 n=d#6 v=66
90720 On ch=1 n=d#6 v=0
90720 On ch=1 n=e6 v=70
91440 On ch=1 n=e6 v=0
91440 On ch=1 n=a#6 v=66
91920 On ch=1 n=a#6 v=0
91920 On ch=1 n=a6 v=61
92160 On ch=1 n=a6 v=0
92160 On ch=1 n=a5 v=60
92880 On ch=1 n=a5 v=0
92880 On ch=1 n=a#6 v=64
93360 On ch=1 n=a#6 v=0
93360 On ch=1 n=a6 v=58
93600 On ch=1 n=a6 v=0
93600 On ch=1 n=a5 v=54
94320 On ch=1 n=a5 v=0
94320 On ch=1 n=a#6 v=57
94800 On ch=1 n=a#6 v=0
94800 On ch=1 n=a6 v=53
95040 On ch=1 n=a6 v=0
95040 On ch=1 n=a5 v=50
95280 On ch=1 n=d5 v=35
95280 On ch=1 n=f5 v=35
95520 On ch=1 n=f5 v=0
95520 On ch=1 n=d5 v=0
95520 On ch=1 n=f5 v=31
95520 On ch=1 n=d5 v=31
95760 On ch=1 n=d5 v=0
95760 On ch=1 n=f5 v=0
95760 On ch=1 n=d5 v=31
95760 On ch=1 n=f5 v=31
96000 On ch=1 n=f5 v=0
96000 On ch=1 n=d5 v=0
96000 On ch=1 n=f5 v=31
96000 On ch=1 n=d5 v=31
96240 On ch=1 n=d5 v=0
96240 On ch=1 n=f5 v=0
96240 On ch=1 n=a5 v=0
96240 On ch=1 n=f4 v=52
96480 On ch=1 n=f4 v=0
96480 On ch=1 n=g4 v=55
97200 On ch=1 n=g4 v=0
97200 On ch=1 n=a4 v=56
97680 On ch=1 n=a4 v=0
97680 On ch=1 n=a#4 v=52
97920 On ch=1 n=a#4 v=0
97920 On ch=1 n=g4 v=59
98640 On ch=1 n=g4 v=0
98640 On ch=1 n=f4 v=55
99120 On ch=1 n=f4 v=0
99120 On ch=1 n=g4 v=52
99360 On ch=1 n=g4 v=0
99360 On ch=1 n=a4 v=55
100080 On ch=1 n=a4 v=0
100080 On ch=1 n=b4 v=57
100560 On ch=1 n=b4 v=0
100560 On ch=1 n=d5 v=53
100800 On ch=1 n=d5 v=0
100800 On ch=1 n=g#4 v=63
101520 On ch=1 n=g#4 v=0
101520 On ch=1 n=g4 v=60
102000 On ch=1 n=g4 v=0
102000 On ch=1 n=c5 v=66
102240 On ch=1 n=c5 v=0
102240 On ch=1 n=c#5 v=70
102960 On ch=1 n=c6 v=66
103440 On ch=1 n=c6 v=0
103440 On ch=1 n=a#5 v=61
103680 On ch=1 n=a#5 v=0
103680 On ch=1 n=c#5 v=0
103680 On ch=1 n=d5 v=68
104400 On ch=1 n=a5 v=64
104880 On ch=1 n=a5 v=0
104880 On ch=1 n=g5 v=58
105120 On ch=1 n=g5 v=0
105120 On ch=1 n=d5 v=0
105120 On ch=1 n=g#4 v=54
105600 On ch=1 n=g#4 v=0
105600 On ch=1 n=a4 v=50
105840 On ch=1 n=a4 v=0
105840 On ch=1 n=d5 v=56
106320 On ch=1 n=d5 v=0
106320 On ch=1 n=a4 v=53
106560 On ch=1 n=a4 v=0
106560 On ch=1 n=c5 v=50
107280 On ch=1 n=c5 v=0
107280 On ch=1 n=a#4 v=46
107760 On ch=1 n=a#4 v=0
108000 On ch=1 n=g#5 v=45
108480 On ch=1 n=g#5 v=0
108480 On ch=1 n=a5 v=39
108720 On ch=1 n=a5 v=0
108720 On ch=1 n=d6 v=45
109200 On ch=1 n=d6 v=0
109200 On ch=1 n=a5 v=39
109440 On ch=1 n=a5 v=0
109440 On ch=1 n=c6 v=45
110160 On ch=1 n=c6 v=0
110160 On ch=1 n=a#5 v=45
110880 On ch=1 n=a#5 v=0
110880 On ch=1 n=c#5 v=50
111600 On ch=1 n=c#5 v=0
111600 On ch=1 n=d5 v=47
112320 On ch=1 n=d5 v=0
112320 On ch=1 n=a4 v=44
113040 On ch=1 n=a4 v=0
113040 On ch=1 n=a#4 v=36
113760 On ch=1 n=a#4 v=0
113760 On ch=1 n=g#6 v=45
114240 On ch=1 n=g#6 v=0
114240 On ch=1 n=a6 v=39
114480 On ch=1 n=a6 v=0
114480 On ch=1 n=d7 v=45
114960 On ch=1 n=d7 v=0
114960 On ch=1 n=a6 v=39
115200 On ch=1 n=a6 v=0
115200 On ch=1 n=c7 v=45
115920 On ch=1 n=c7 v=0
115920 On ch=1 n=a#6 v=45
116640 On ch=1 n=a#6 v=0
116640 On ch=1 n=c#6 v=50
117360 On ch=1 n=c#6 v=0
117360 On ch=1 n=d6 v=47
118080 On ch=1 n=d6 v=0
118080 On ch=1 n=a5 v=44
118800 On ch=1 n=a5 v=0
118800 On ch=1 n=a#5 v=36
119520 On ch=1 n=a#5 v=0
119520 On ch=1 n=a5 v=44
120240 On ch=1 n=a5 v=0
120240 On ch=1 n=a#5 v=36
120960 On ch=1 n=a#5 v=0
120960 On ch=1 n=a5 v=44
121680 On ch=1 n=a5 v=0
121680 On ch=1 n=a#5 v=36
122389 On ch=1 n=a5 v=44
122400 On ch=1 n=a#5 v=0
123349 On ch=1 n=a5 v=0
123360 On ch=1 n=g#5 v=39
123480 On ch=1 n=g#5 v=0
123480 On ch=1 n=a5 v=33
123600 On ch=1 n=a5 v=0
123600 On ch=1 n=a#5 v=37
123720 On ch=1 n=a#5 v=0
123720 On ch=1 n=a5 v=31
123840 On ch=1 n=a5 v=0
123840 On ch=1 n=d6 v=42
124320 On ch=1 n=d6 v=0
124320 On ch=1 n=c6 v=38
124560 On ch=1 n=c6 v=0
124560 On ch=1 n=a#5 v=34
124560 On ch=1 n=d5 v=23
124560 On ch=1 n=f5 v=28
125280 On ch=1 n=f5 v=0
125280 On ch=1 n=d5 v=0
125280 On ch=1 n=a#5 v=0
125280 Meta TrkEnd
TrkEnd
MTrk
0 Meta 0x21 00
0 Meta TrkName "Piano left"
0 PrCh ch=1 p=0
0 Par ch=1 c=7 v=100
0 Par ch=1 c=64 v=0
960 Par ch=1 c=91 v=127
1440 On ch=1 n=a#4 v=30
1440 On ch=1 n=d5 v=30
1440 On ch=1 n=f5 v=36
1440 Par ch=1 c=64 v=127
1680 On ch=1 n=f5 v=0
1680 On ch=1 n=d5 v=0
1680 On ch=1 n=a#4 v=0
1680 On ch=1 n=a#4 v=31
1680 On ch=1 n=f5 v=35
1680 On ch=1 n=d5 v=31
1920 On ch=1 n=d5 v=0
1920 On ch=1 n=f5 v=0
1920 On ch=1 n=a#4 v=0
1920 On ch=1 n=a#4 v=28
1920 On ch=1 n=f5 v=32
1920 On ch=1 n=d5 v=28
2160 On ch=1 n=d5 v=0
2160 On ch=1 n=f5 v=0
2160 On ch=1 n=a#4 v=0
2160 On ch=1 n=d5 v=31
2160 On ch=1 n=f5 v=35
2160 On ch=1 n=a#4 v=31
2200 Par ch=1 c=64 v=0
2267 Par ch=1 c=64 v=127
2400 On ch=1 n=a#4 v=0
2400 On ch=1 n=f5 v=0
2400 On ch=1 n=d5 v=0
2400 On ch=1 n=d5 v=24
2400 On ch=1 n=f5 v=32
2400 On ch=1 n=a#4 v=24
2493 Par ch=1 c=64 v=0
2640 On ch=1 n=a#4 v=0
2640 On ch=1 n=f5 v=0
2640 On ch=1 n=d5 v=0
2918 Par ch=1 c=64 v=127
3120 On ch=1 n=f5 v=36
3120 On ch=1 n=d#5 v=36
3120 On ch=1 n=a4 v=30
3360 On ch=1 n=a4 v=0
3360 On ch=1 n=d#5 v=0
3360 On ch=1 n=f5 v=0
3360 On ch=1 n=d#5 v=36
3360 On ch=1 n=a4 v=30
3360 On ch=1 n=f5 v=36
3562 Par ch=1 c=64 v=0
3600 On ch=1 n=f5 v=0
3600 On ch=1 n=a4 v=0
3600 On ch=1 n=d#5 v=0
3600 On ch=1 n=a4 v=30
3600 On ch=1 n=f5 v=36
3600 On ch=1 n=d#5 v=36
3651 Par ch=1 c=64 v=127
3840 On ch=1 n=d#5 v=0
3840 On ch=1 n=f5 v=0
3840 On ch=1 n=a4 v=0
3840 On ch=1 n=d#5 v=36
3840 On ch=1 n=a4 v=30
3840 On ch=1 n=f5 v=36
4004 Par ch=1 c=64 v=0
4070 On ch=1 n=f5 v=0
4070 On ch=1 n=a4 v=0
4070 On ch=1 n=d#5 v=0
4423 Par ch=1 c=64 v=127
4560 On ch=1 n=d5 v=30
4560 On ch=1 n=g#4 v=30
4560 On ch=1 n=f5 v=36
4800 On ch=1 n=f5 v=0
4800 On ch=1 n=g#4 v=0
4800 On ch=1 n=d5 v=0
4800 On ch=1 n=g#4 v=30
4800 On ch=1 n=f5 v=36
4800 On ch=1 n=d5 v=30
4949 Par ch=1 c=64 v=0
5040 On ch=1 n=d5 v=0
5040 On ch=1 n=f5 v=0
5040 On ch=1 n=g#4 v=0
5040 On ch=1 n=g#4 v=33
5040 Par ch=1 c=64 v=127
5040 On ch=1 n=f5 v=39
5040 On ch=1 n=d5 v=33
5280 On ch=1 n=d5 v=0
5280 On ch=1 n=f5 v=0
5280 On ch=1 n=g#4 v=0
5280 On ch=1 n=g#4 v=33
5280 On ch=1 n=f5 v=39
5280 On ch=1 n=d5 v=33
5383 Par ch=1 c=64 v=0
5520 On ch=1 n=d5 v=0
5520 On ch=1 n=f5 v=0
5520 On ch=1 n=g#4 v=0
5853 Par ch=1 c=64 v=127
6000 On ch=1 n=g4 v=36
6000 On ch=1 n=d#5 v=45
6000 On ch=1 n=c5 v=36
6240 On ch=1 n=c5 v=0
6240 On ch=1 n=d#5 v=0
6240 On ch=1 n=g4 v=0
6240 On ch=1 n=c5 v=36
6240 On ch=1 n=d#5 v=45
6240 On ch=1 n=g4 v=36
6400 Par ch=1 c=64 v=0
6480 On ch=1 n=g4 v=0
6480 On ch=1 n=d#5 v=0
6480 On ch=1 n=c5 v=0
6480 On ch=1 n=g4 v=36
6480 On ch=1 n=d#5 v=45
6480 On ch=1 n=c5 v=36
6493 Par ch=1 c=64 v=127
6720 On ch=1 n=c5 v=0
6720 On ch=1 n=d#5 v=0
6720 On ch=1 n=g4 v=0
6720 On ch=1 n=c5 v=36
6720 On ch=1 n=g4 v=36
6720 On ch=1 n=d#5 v=45
6840 Par ch=1 c=64 v=0
6960 On ch=1 n=d#5 v=0
6960 On ch=1 n=g4 v=0
6960 On ch=1 n=c5 v=0
7266 Par ch=1 c=64 v=127
7440 On ch=1 n=a4 v=41
7440 On ch=1 n=g4 v=40
7440 On ch=1 n=e5 v=45
7440 On ch=1 n=c#5 v=45
7680 On ch=1 n=c#5 v=0
7680 On ch=1 n=a4 v=0
7680 On ch=1 n=g4 v=0
7680 On ch=1 n=e5 v=0
7680 On ch=1 n=g4 v=35
7680 On ch=1 n=c#5 v=41
7680 On ch=1 n=a4 v=35
7680 On ch=1 n=e5 v=41
7854 Par ch=1 c=64 v=0
7920 On ch=1 n=e5 v=0
7920 On ch=1 n=g4 v=0
7920 On ch=1 n=c#5 v=0
7920 On ch=1 n=a4 v=0
7920 On ch=1 n=g4 v=38
7920 On ch=1 n=c#5 v=46
7920 On ch=1 n=a4 v=38
7920 On ch=1 n=e5 v=46
7970 Par ch=1 c=64 v=127
8160 On ch=1 n=e5 v=0
8160 On ch=1 n=g4 v=0
8160 On ch=1 n=c#5 v=0
8160 On ch=1 n=a4 v=0
8160 On ch=1 n=a4 v=38
8160 On ch=1 n=g4 v=38
8160 On ch=1 n=e5 v=46
8160 On ch=1 n=c#5 v=46
8309 Par ch=1 c=64 v=0
8400 On ch=1 n=c#5 v=0
8400 On ch=1 n=a4 v=0
8400 On ch=1 n=g4 v=0
8400 On ch=1 n=e5 v=0
8827 Par ch=1 c=64 v=127
8880 On ch=1 n=f4 v=34
8880 On ch=1 n=a4 v=34
8880 On ch=1 n=d5 v=40
9120 On ch=1 n=d5 v=0
9120 On ch=1 n=a4 v=0
9120 On ch=1 n=f4 v=0
9120 On ch=1 n=d5 v=40
9120 On ch=1 n=a4 v=34
9120 On ch=1 n=f4 v=34
9307 Par ch=1 c=64 v=0
9360 On ch=1 n=f4 v=0
9360 On ch=1 n=a4 v=0
9360 On ch=1 n=d5 v=0
9360 On ch=1 n=f4 v=34
9360 On ch=1 n=a4 v=34
9360 On ch=1 n=d5 v=40
9440 Par ch=1 c=64 v=127
9600 On ch=1 n=d5 v=0
9600 On ch=1 n=a4 v=0
9600 On ch=1 n=f4 v=0
9600 On ch=1 n=d5 v=40
9600 On ch=1 n=f4 v=34
9600 On ch=1 n=a4 v=34
9747 Par ch=1 c=64 v=0
9840 On ch=1 n=a4 v=0
9840 On ch=1 n=f4 v=0
9840 On ch=1 n=d5 v=0
10229 Par ch=1 c=64 v=127
10320 On ch=1 n=g4 v=36
10320 On ch=1 n=e4 v=30
10320 On ch=1 n=a4 v=36
10320 On ch=1 n=c#5 v=36
10560 On ch=1 n=c#5 v=0
10560 On ch=1 n=g4 v=0
10560 On ch=1 n=e4 v=0
10560 On ch=1 n=a4 v=0
10560 On ch=1 n=e4 v=30
10560 On ch=1 n=c#5 v=36
10560 On ch=1 n=g4 v=30
10560 On ch=1 n=a4 v=36
10800 On ch=1 n=a4 v=0
10800 On ch=1 n=e4 v=0
10800 On ch=1 n=c#5 v=0
10800 On ch=1 n=g4 v=0
10800 On ch=1 n=e4 v=30
10800 Par ch=1 c=64 v=0
10800 On ch=1 n=c#5 v=36
10800 On ch=1 n=g4 v=30
10800 On ch=1 n=a4 v=36
10858 Par ch=1 c=64 v=127
11040 On ch=1 n=a4 v=0
11040 On ch=1 n=e4 v=0
11040 On ch=1 n=c#5 v=0
11040 On ch=1 n=g4 v=0
11040 On ch=1 n=e4 v=30
11040 On ch=1 n=c#5 v=36
11040 On ch=1 n=g4 v=30
11040 On ch=1 n=a4 v=36
11156 Par ch=1 c=64 v=0
11280 On ch=1 n=a4 v=0
11280 On ch=1 n=e4 v=0
11280 On ch=1 n=c#5 v=0
11280 On ch=1 n=g4 v=0
11693 Par ch=1 c=64 v=127
11760 On ch=1 n=a4 v=33
11760 On ch=1 n=d4 v=28
12000 On ch=1 n=d4 v=0
12000 On ch=1 n=a4 v=0
12000 On ch=1 n=a4 v=29
12000 On ch=1 n=d4 v=25
12240 On ch=1 n=d4 v=0
12240 On ch=1 n=a4 v=0
12240 On ch=1 n=d4 v=25
12240 On ch=1 n=a4 v=29
12480 On ch=1 n=a4 v=0
12480 On ch=1 n=d4 v=0
12480 On ch=1 n=d4 v=25
12480 On ch=1 n=a4 v=29
12653 Par ch=1 c=64 v=0
12720 On ch=1 n=a4 v=0
12720 On ch=1 n=d4 v=0
12960 On ch=1 n=c4 v=30
12960 On ch=1 n=f4 v=30
12960 Par ch=1 c=64 v=127
12960 On ch=1 n=f5 v=36
12960 On ch=1 n=d#5 v=30
13200 On ch=1 n=d#5 v=0
13200 On ch=1 n=c4 v=0
13200 On ch=1 n=f4 v=0
13200 On ch=1 n=f5 v=0
13200 On ch=1 n=c4 v=31
13200 On ch=1 n=d#5 v=35
13200 On ch=1 n=f4 v=31
13200 On ch=1 n=f5 v=35
13440 On ch=1 n=f5 v=0
13440 On ch=1 n=c4 v=0
13440 On ch=1 n=d#5 v=0
13440 On ch=1 n=f4 v=0
13440 On ch=1 n=f4 v=29
13440 On ch=1 n=c4 v=29
13440 On ch=1 n=f5 v=33
13440 On ch=1 n=d#5 v=33
13680 On ch=1 n=d#5 v=0
13680 On ch=1 n=f4 v=0
13680 On ch=1 n=c4 v=0
13680 On ch=1 n=f5 v=0
13680 On ch=1 n=f4 v=35
13680 On ch=1 n=d#5 v=35
13680 On ch=1 n=f5 v=35
13680 On ch=1 n=c4 v=35
13720 Par ch=1 c=64 v=0
13787 Par ch=1 c=64 v=127
13920 On ch=1 n=c4 v=0
13920 On ch=1 n=f4 v=0
13920 On ch=1 n=d#5 v=0
13920 On ch=1 n=f5 v=0
13920 On ch=1 n=f4 v=27
13920 On ch=1 n=c4 v=27
13920 On ch=1 n=f5 v=32
13920 On ch=1 n=d#5 v=27
14013 Par ch=1 c=64 v=0
14160 On ch=1 n=d#5 v=0
14160 On ch=1 n=f4 v=0
14160 On ch=1 n=c4 v=0
14160 On ch=1 n=f5 v=0
14438 Par ch=1 c=64 v=127
14640 On ch=1 n=a#3 v=30
14640 On ch=1 n=d5 v=36
14640 On ch=1 n=f5 v=36
14880 On ch=1 n=f5 v=0
14880 On ch=1 n=d5 v=0
14880 On ch=1 n=a#3 v=0
14880 On ch=1 n=d5 v=36
14880 On ch=1 n=f5 v=36
14880 On ch=1 n=a#3 v=30
15082 Par ch=1 c=64 v=0
15120 On ch=1 n=a#3 v=0
15120 On ch=1 n=f5 v=0
15120 On ch=1 n=d5 v=0
15120 On ch=1 n=a#3 v=30
15120 On ch=1 n=f5 v=36
15120 On ch=1 n=d5 v=36
15171 Par ch=1 c=64 v=127
15360 On ch=1 n=d5 v=0
15360 On ch=1 n=f5 v=0
15360 On ch=1 n=a#3 v=0
15360 On ch=1 n=d5 v=36
15360 On ch=1 n=a#3 v=30
15360 On ch=1 n=f5 v=36
15524 Par ch=1 c=64 v=0
15600 On ch=1 n=f5 v=0
15600 On ch=1 n=a#3 v=0
15600 On ch=1 n=d5 v=0
15943 Par ch=1 c=64 v=127
16080 On ch=1 n=g4 v=30
16080 On ch=1 n=d4 v=30
16080 On ch=1 n=g5 v=36
16080 On ch=1 n=f5 v=30
16320 On ch=1 n=f5 v=0
16320 On ch=1 n=g4 v=0
16320 On ch=1 n=d4 v=0
16320 On ch=1 n=g5 v=0
16320 On ch=1 n=g4 v=30
16320 On ch=1 n=f5 v=30
16320 On ch=1 n=g5 v=36
16320 On ch=1 n=d4 v=30
16469 Par ch=1 c=64 v=0
16560 On ch=1 n=d4 v=0
16560 On ch=1 n=g4 v=0
16560 On ch=1 n=f5 v=0
16560 On ch=1 n=g5 v=0
16560 Par ch=1 c=64 v=127
16560 On ch=1 n=g4 v=33
16560 On ch=1 n=f5 v=33
16560 On ch=1 n=g5 v=39
16560 On ch=1 n=d4 v=33
16800 On ch=1 n=d4 v=0
16800 On ch=1 n=g4 v=0
16800 On ch=1 n=f5 v=0
16800 On ch=1 n=g5 v=0
16800 On ch=1 n=g4 v=33
16800 On ch=1 n=f5 v=33
16800 On ch=1 n=g5 v=39
16800 On ch=1 n=d4 v=33
16903 Par ch=1 c=64 v=0
17040 On ch=1 n=d4 v=0
17040 On ch=1 n=g4 v=0
17040 On ch=1 n=f5 v=0
17040 On ch=1 n=g5 v=0
17373 Par ch=1 c=64 v=127
17520 On ch=1 n=c5 v=36
17520 On ch=1 n=c4 v=36
17520 On ch=1 n=d#5 v=45
17760 On ch=1 n=d#5 v=0
17760 On ch=1 n=c4 v=0
17760 On ch=1 n=c5 v=0
17760 On ch=1 n=c4 v=36
17760 On ch=1 n=d#5 v=45
17760 On ch=1 n=c5 v=36
17920 Par ch=1 c=64 v=0
18000 On ch=1 n=c5 v=0
18000 On ch=1 n=d#5 v=0
18000 On ch=1 n=c4 v=0
18000 On ch=1 n=c5 v=36
18000 On ch=1 n=c4 v=36
18000 On ch=1 n=d#5 v=45
18013 Par ch=1 c=64 v=127
18240 On ch=1 n=d#5 v=0
18240 On ch=1 n=c4 v=0
18240 On ch=1 n=c5 v=0
18240 On ch=1 n=c4 v=36
18240 On ch=1 n=d#5 v=45
18240 On ch=1 n=c5 v=36
18360 Par ch=1 c=64 v=0
18470 On ch=1 n=c5 v=0
18470 On ch=1 n=d#5 v=0
18470 On ch=1 n=c4 v=0
18800 Par ch=1 c=64 v=127
18960 On ch=1 n=g4 v=40
18960 On ch=1 n=e5 v=50
18960 On ch=1 n=a#4 v=50
19200 On ch=1 n=a#4 v=0
19200 On ch=1 n=e5 v=0
19200 On ch=1 n=g4 v=0
19200 On ch=1 n=a#4 v=41
19200 On ch=1 n=e5 v=41
19200 On ch=1 n=g4 v=35
19374 Par ch=1 c=64 v=0
19440 On ch=1 n=g4 v=0
19440 On ch=1 n=e5 v=0
19440 On ch=1 n=a#4 v=0
19440 On ch=1 n=g4 v=38
19440 On ch=1 n=e5 v=46
19440 On ch=1 n=a#4 v=46
19490 Par ch=1 c=64 v=127
19680 On ch=1 n=a#4 v=0
19680 On ch=1 n=e5 v=0
19680 On ch=1 n=g4 v=0
19680 On ch=1 n=a#4 v=46
19680 On ch=1 n=g4 v=38
19680 On ch=1 n=e5 v=46
19829 Par ch=1 c=64 v=0
19920 On ch=1 n=e5 v=0
19920 On ch=1 n=g4 v=0
19920 On ch=1 n=a#4 v=0
20347 Par ch=1 c=64 v=127
20400 On ch=1 n=f5 v=40
20400 On ch=1 n=f4 v=34
20400 On ch=1 n=a#4 v=34
20640 On ch=1 n=a#4 v=0
20640 On ch=1 n=f4 v=0
20640 On ch=1 n=f5 v=0
20640 On ch=1 n=f5 v=40
20640 On ch=1 n=f4 v=34
20640 On ch=1 n=a#4 v=34
20827 Par ch=1 c=64 v=0
20880 On ch=1 n=a#4 v=0
20880 On ch=1 n=f4 v=0
20880 On ch=1 n=f5 v=0
20880 On ch=1 n=f5 v=40
20880 On ch=1 n=a#4 v=34
20880 On ch=1 n=f4 v=34
20960 Par ch=1 c=64 v=127
21120 On ch=1 n=f4 v=0
21120 On ch=1 n=a#4 v=0
21120 On ch=1 n=f5 v=0
21120 On ch=1 n=f4 v=34
21120 On ch=1 n=a#4 v=34
21120 On ch=1 n=f5 v=40
21267 Par ch=1 c=64 v=0
21360 On ch=1 n=f5 v=0
21360 On ch=1 n=a#4 v=0
21360 On ch=1 n=f4 v=0
21749 Par ch=1 c=64 v=127
21840 On ch=1 n=f3 v=36
21840 On ch=1 n=d#4 v=36
22080 On ch=1 n=d#4 v=0
22080 On ch=1 n=f3 v=0
22080 On ch=1 n=d#4 v=36
22080 On ch=1 n=f3 v=30
22320 On ch=1 n=f3 v=0
22320 On ch=1 n=d#4 v=0
22320 Par ch=1 c=64 v=0
22378 Par ch=1 c=64 v=127
22560 On ch=1 n=f#3 v=30
22560 On ch=1 n=d4 v=36
22676 Par ch=1 c=64 v=0
22800 On ch=1 n=d4 v=0
22800 On ch=1 n=f#3 v=0
22800 On ch=1 n=f#3 v=30
22800 On ch=1 n=d4 v=36
23040 On ch=1 n=d4 v=0
23040 On ch=1 n=f#3 v=0
23213 Par ch=1 c=64 v=127
23280 On ch=1 n=g3 v=28
23280 On ch=1 n=d4 v=33
23280 On ch=1 n=g4 v=36
23520 On ch=1 n=g4 v=0
23520 On ch=1 n=d4 v=0
23520 On ch=1 n=g3 v=0
23520 On ch=1 n=g3 v=25
23520 On ch=1 n=g4 v=32
23520 On ch=1 n=d4 v=29
23707 Par ch=1 c=64 v=0
23760 On ch=1 n=d4 v=0
23760 On ch=1 n=g4 v=0
23760 On ch=1 n=g3 v=0
23760 On ch=1 n=g4 v=32
23760 On ch=1 n=d4 v=29
23760 On ch=1 n=g3 v=25
23813 Par ch=1 c=64 v=127
24000 On ch=1 n=g3 v=0
24000 On ch=1 n=d4 v=0
24000 On ch=1 n=g4 v=0
24000 On ch=1 n=g3 v=25
24000 On ch=1 n=g4 v=32
24000 On ch=1 n=d4 v=29
24173 Par ch=1 c=64 v=0
24240 On ch=1 n=d4 v=0
24240 On ch=1 n=g4 v=0
24240 On ch=1 n=g3 v=0
24480 Par ch=1 c=64 v=127
24480 On ch=1 n=f4 v=27
24480 On ch=1 n=d#5 v=30
24480 On ch=1 n=f5 v=36
24480 On ch=1 n=c4 v=27
24720 On ch=1 n=c4 v=0
24720 On ch=1 n=f4 v=0
24720 On ch=1 n=d#5 v=0
24720 On ch=1 n=f5 v=0
24720 On ch=1 n=f4 v=32
24720 On ch=1 n=d#5 v=36
24720 On ch=1 n=f5 v=36
24720 On ch=1 n=c4 v=32
24960 On ch=1 n=c4 v=0
24960 On ch=1 n=f4 v=0
24960 On ch=1 n=d#5 v=0
24960 On ch=1 n=f5 v=0
24960 On ch=1 n=c4 v=30
24960 On ch=1 n=d#5 v=34
24960 On ch=1 n=f5 v=34
24960 On ch=1 n=f4 v=30
25200 On ch=1 n=f4 v=0
25200 On ch=1 n=c4 v=0
25200 On ch=1 n=d#5 v=0
25200 On ch=1 n=f5 v=0
25200 On ch=1 n=f4 v=32
25200 On ch=1 n=c4 v=32
25200 On ch=1 n=f5 v=36
25200 On ch=1 n=d#5 v=36
25240 Par ch=1 c=64 v=0
25307 Par ch=1 c=64 v=127
25440 On ch=1 n=d#5 v=0
25440 On ch=1 n=f4 v=0
25440 On ch=1 n=c4 v=0
25440 On ch=1 n=f5 v=0
25440 On ch=1 n=c4 v=30
25440 On ch=1 n=d#5 v=34
25440 On ch=1 n=f5 v=34
25440 On ch=1 n=f4 v=30
25533 Par ch=1 c=64 v=0
25680 On ch=1 n=f4 v=0
25680 On ch=1 n=c4 v=0
25680 On ch=1 n=d#5 v=0
25680 On ch=1 n=f5 v=0
25958 Par ch=1 c=64 v=127
26160 On ch=1 n=d5 v=36
26160 On ch=1 n=a#4 v=36
26160 On ch=1 n=a#3 v=30
26400 On ch=1 n=a#3 v=0
26400 On ch=1 n=a#4 v=0
26400 On ch=1 n=d5 v=0
26400 On ch=1 n=a#4 v=36
26400 On ch=1 n=a#3 v=30
26400 On ch=1 n=d5 v=36
26602 Par ch=1 c=64 v=0
26640 On ch=1 n=d5 v=0
26640 On ch=1 n=a#3 v=0
26640 On ch=1 n=a#4 v=0
26640 On ch=1 n=a#3 v=30
26640 On ch=1 n=d5 v=36
26640 On ch=1 n=a#4 v=36
26691 Par ch=1 c=64 v=127
26880 On ch=1 n=a#4 v=0
26880 On ch=1 n=d5 v=0
26880 On ch=1 n=a#3 v=0
26880 On ch=1 n=a#4 v=36
26880 On ch=1 n=a#3 v=30
26880 On ch=1 n=d5 v=36
27044 Par ch=1 c=64 v=0
27120 On ch=1 n=d5 v=0
27120 On ch=1 n=a#3 v=0
27120 On ch=1 n=a#4 v=0
27463 Par ch=1 c=64 v=127
27600 On ch=1 n=g4 v=30
27600 On ch=1 n=d4 v=30
27600 On ch=1 n=g5 v=36
27600 On ch=1 n=f5 v=30
27840 On ch=1 n=f5 v=0
27840 On ch=1 n=g4 v=0
27840 On ch=1 n=d4 v=0
27840 On ch=1 n=g5 v=0
27840 On ch=1 n=g4 v=30
27840 On ch=1 n=f5 v=30
27840 On ch=1 n=g5 v=36
27840 On ch=1 n=d4 v=30
27989 Par ch=1 c=64 v=0
28080 On ch=1 n=d4 v=0
28080 On ch=1 n=g4 v=0
28080 On ch=1 n=f5 v=0
28080 On ch=1 n=g5 v=0
28080 Par ch=1 c=64 v=127
28080 On ch=1 n=g4 v=33
28080 On ch=1 n=f5 v=33
28080 On ch=1 n=g5 v=39
28080 On ch=1 n=d4 v=33
28320 On ch=1 n=d4 v=0
28320 On ch=1 n=g4 v=0
28320 On ch=1 n=f5 v=0
28320 On ch=1 n=g5 v=0
28320 On ch=1 n=g4 v=33
28320 On ch=1 n=f5 v=33
28320 On ch=1 n=g5 v=39
28320 On ch=1 n=d4 v=33
28423 Par ch=1 c=64 v=0
28560 On ch=1 n=d4 v=0
28560 On ch=1 n=g4 v=0
28560 On ch=1 n=f5 v=0
28560 On ch=1 n=g5 v=0
28893 Par ch=1 c=64 v=127
29040 On ch=1 n=c4 v=36
29040 On ch=1 n=d#5 v=45
29040 On ch=1 n=c5 v=36
29280 On ch=1 n=c5 v=0
29280 On ch=1 n=d#5 v=0
29280 On ch=1 n=c4 v=0
29280 On ch=1 n=c4 v=36
29280 On ch=1 n=d#5 v=45
29280 On ch=1 n=c5 v=36
29440 Par ch=1 c=64 v=0
29520 On ch=1 n=c5 v=0
29520 On ch=1 n=d#5 v=0
29520 On ch=1 n=c4 v=0
29520 On ch=1 n=c5 v=36
29520 On ch=1 n=c4 v=36
29520 On ch=1 n=d#5 v=45
29533 Par ch=1 c=64 v=127
29760 On ch=1 n=d#5 v=0
29760 On ch=1 n=c4 v=0
29760 On ch=1 n=c5 v=0
29760 On ch=1 n=c5 v=36
29760 On ch=1 n=d#5 v=45
29760 On ch=1 n=c4 v=36
29880 Par ch=1 c=64 v=0
29990 On ch=1 n=c4 v=0
29990 On ch=1 n=d#5 v=0
29990 On ch=1 n=c5 v=0
30354 Par ch=1 c=64 v=127
30480 On ch=1 n=a#4 v=46
30480 On ch=1 n=e5 v=46
30480 On ch=1 n=g4 v=37
30720 On ch=1 n=g4 v=0
30720 On ch=1 n=e5 v=0
30720 On ch=1 n=a#4 v=0
30720 On ch=1 n=a#4 v=41
30720 On ch=1 n=g4 v=35
30720 On ch=1 n=e5 v=41
30894 Par ch=1 c=64 v=0
30960 On ch=1 n=e5 v=0
30960 On ch=1 n=g4 v=0
30960 On ch=1 n=a#4 v=0
30960 On ch=1 n=g4 v=38
30960 On ch=1 n=e5 v=46
30960 On ch=1 n=a#4 v=46
31010 Par ch=1 c=64 v=127
31200 On ch=1 n=a#4 v=0
31200 On ch=1 n=e5 v=0
31200 On ch=1 n=g4 v=0
31200 On ch=1 n=a#4 v=46
31200 On ch=1 n=g4 v=38
31200 On ch=1 n=e5 v=46
31349 Par ch=1 c=64 v=0
31440 On ch=1 n=e5 v=0
31440 On ch=1 n=g4 v=0
31440 On ch=1 n=a#4 v=0
31867 Par ch=1 c=64 v=127
31920 On ch=1 n=f5 v=40
31920 On ch=1 n=f4 v=34
31920 On ch=1 n=a#4 v=34
32160 On ch=1 n=a#4 v=0
32160 On ch=1 n=f4 v=0
32160 On ch=1 n=f5 v=0
32160 On ch=1 n=f4 v=34
32160 On ch=1 n=a#4 v=34
32160 On ch=1 n=f5 v=40
32347 Par ch=1 c=64 v=0
32400 On ch=1 n=f5 v=0
32400 On ch=1 n=a#4 v=0
32400 On ch=1 n=f4 v=0
32400 On ch=1 n=f5 v=40
32400 On ch=1 n=f4 v=34
32400 On ch=1 n=a#4 v=34
32480 Par ch=1 c=64 v=127
32640 On ch=1 n=a#4 v=0
32640 On ch=1 n=f4 v=0
32640 On ch=1 n=f5 v=0
32640 On ch=1 n=f4 v=34
32640 On ch=1 n=a#4 v=34
32640 On ch=1 n=f5 v=40
32787 Par ch=1 c=64 v=0
32880 On ch=1 n=f5 v=0
32880 On ch=1 n=a#4 v=0
32880 On ch=1 n=f4 v=0
33269 Par ch=1 c=64 v=127
33360 On ch=1 n=c4 v=36
33360 On ch=1 n=d#4 v=36
33600 On ch=1 n=d#4 v=0
33600 On ch=1 n=c4 v=0
33600 On ch=1 n=c4 v=30
33600 On ch=1 n=d#4 v=36
33840 On ch=1 n=d#4 v=0
33840 On ch=1 n=c4 v=0
33840 Par ch=1 c=64 v=0
33898 Par ch=1 c=64 v=127
34080 On ch=1 n=d#4 v=36
34080 On ch=1 n=f3 v=30
34080 On ch=1 n=a4 v=36
34080 On ch=1 n=f4 v=36
34196 Par ch=1 c=64 v=0
34320 On ch=1 n=f4 v=0
34320 On ch=1 n=d#4 v=0
34320 On ch=1 n=f3 v=0
34320 On ch=1 n=a4 v=0
34320 On ch=1 n=d#4 v=36
34320 On ch=1 n=f3 v=30
34320 On ch=1 n=a4 v=36
34320 On ch=1 n=f4 v=36
34560 On ch=1 n=f4 v=0
34560 On ch=1 n=d#4 v=0
34560 On ch=1 n=f3 v=0
34560 On ch=1 n=a4 v=0
34733 Par ch=1 c=64 v=127
34800 On ch=1 n=a4 v=36
34800 On ch=1 n=f#4 v=36
34800 On ch=1 n=a#3 v=33
34800 On ch=1 n=d#4 v=36
35040 On ch=1 n=d#4 v=0
35040 On ch=1 n=a4 v=0
35040 On ch=1 n=f#4 v=0
35040 On ch=1 n=a#3 v=0
35040 On ch=1 n=f#4 v=32
35040 On ch=1 n=d#4 v=32
35040 On ch=1 n=a4 v=32
35040 On ch=1 n=a#3 v=29
35227 Par ch=1 c=64 v=0
35280 On ch=1 n=a#3 v=0
35280 On ch=1 n=f#4 v=0
35280 On ch=1 n=d#4 v=0
35280 On ch=1 n=a4 v=0
35280 On ch=1 n=f4 v=29
35280 On ch=1 n=a#3 v=29
35280 On ch=1 n=d#4 v=32
35333 Par ch=1 c=64 v=127
35520 On ch=1 n=d#4 v=0
35520 On ch=1 n=c#4 v=32
35693 Par ch=1 c=64 v=0
35760 On ch=1 n=c#4 v=0
35760 On ch=1 n=a#3 v=0
35760 On ch=1 n=f4 v=0
35760 On ch=1 n=d4 v=32
36000 On ch=1 n=d4 v=0
36000 Par ch=1 c=64 v=127
36240 On ch=1 n=g4 v=31
36240 On ch=1 n=f5 v=36
36240 On ch=1 n=a#4 v=31
36480 On ch=1 n=a#4 v=0
36480 On ch=1 n=f5 v=0
36480 On ch=1 n=g4 v=0
36480 On ch=1 n=f5 v=36
36480 On ch=1 n=g4 v=31
36480 On ch=1 n=a#4 v=31
36710 On ch=1 n=a#4 v=0
36710 On ch=1 n=g4 v=0
36710 On ch=1 n=f5 v=0
36760 Par ch=1 c=64 v=0
36827 Par ch=1 c=64 v=127
36960 On ch=1 n=a3 v=34
36960 On ch=1 n=g4 v=34
37053 Par ch=1 c=64 v=0
37200 On ch=1 n=g4 v=0
37200 On ch=1 n=a3 v=0
37200 On ch=1 n=g4 v=34
37200 On ch=1 n=a3 v=34
37440 On ch=1 n=a3 v=0
37440 On ch=1 n=g4 v=0
37478 Par ch=1 c=64 v=127
37680 On ch=1 n=d5 v=36
37680 On ch=1 n=f4 v=30
37680 On ch=1 n=a4 v=36
37800 On ch=1 n=a4 v=0
37800 On ch=1 n=f4 v=0
37800 On ch=1 n=d5 v=0
37920 On ch=1 n=d4 v=30
38040 On ch=1 n=d4 v=0
38122 Par ch=1 c=64 v=0
38160 On ch=1 n=d5 v=44
38160 On ch=1 n=a4 v=44
38160 On ch=1 n=f5 v=44
38211 Par ch=1 c=64 v=127
38280 On ch=1 n=f5 v=0
38280 On ch=1 n=a4 v=0
38280 On ch=1 n=d5 v=0
38400 On ch=1 n=d4 v=40
38520 On ch=1 n=d4 v=0
38640 On ch=1 n=f5 v=50
38640 On ch=1 n=d5 v=50
38640 On ch=1 n=a5 v=50
38669 Par ch=1 c=64 v=0
38760 On ch=1 n=a5 v=0
38760 On ch=1 n=d5 v=0
38760 On ch=1 n=f5 v=0
38880 Par ch=1 c=64 v=127
39120 On ch=1 n=a#4 v=31
39120 On ch=1 n=g4 v=31
39120 On ch=1 n=f5 v=36
39360 On ch=1 n=f5 v=0
39360 On ch=1 n=g4 v=0
39360 On ch=1 n=a#4 v=0
39360 On ch=1 n=a#4 v=31
39360 On ch=1 n=f5 v=36
39360 On ch=1 n=g4 v=31
39590 On ch=1 n=g4 v=0
39590 On ch=1 n=f5 v=0
39590 On ch=1 n=a#4 v=0
39640 Par ch=1 c=64 v=0
39707 Par ch=1 c=64 v=127
39840 On ch=1 n=g4 v=34
39840 On ch=1 n=a3 v=34
39933 Par ch=1 c=64 v=0
40080 On ch=1 n=a3 v=0
40080 On ch=1 n=g4 v=0
40080 On ch=1 n=a3 v=34
40080 On ch=1 n=g4 v=34
40320 On ch=1 n=g4 v=0
40320 On ch=1 n=a3 v=0
40358 Par ch=1 c=64 v=127
40560 On ch=1 n=f4 v=30
40560 On ch=1 n=a4 v=36
40560 On ch=1 n=d5 v=36
40680 On ch=1 n=d5 v=0
40680 On ch=1 n=a4 v=0
40680 On ch=1 n=f4 v=0
40800 On ch=1 n=d4 v=30
40920 On ch=1 n=d4 v=0
41002 Par ch=1 c=64 v=0
41040 On ch=1 n=a4 v=44
41040 On ch=1 n=f5 v=44
41040 On ch=1 n=d5 v=44
41091 Par ch=1 c=64 v=127
41160 On ch=1 n=d5 v=0
41160 On ch=1 n=f5 v=0
41160 On ch=1 n=a4 v=0
41280 On ch=1 n=d4 v=38
41400 On ch=1 n=d4 v=0
41520 On ch=1 n=d5 v=51
41520 On ch=1 n=a5 v=51
41520 On ch=1 n=f5 v=51
41549 Par ch=1 c=64 v=0
41640 On ch=1 n=f5 v=0
41640 On ch=1 n=a5 v=0
41640 On ch=1 n=d5 v=0
41760 Par ch=1 c=64 v=127
42000 On ch=1 n=g4 v=31
42000 On ch=1 n=f5 v=36
42000 On ch=1 n=a#4 v=31
42240 On ch=1 n=a#4 v=0
42240 On ch=1 n=f5 v=0
42240 On ch=1 n=g4 v=0
42240 On ch=1 n=a#4 v=31
42240 On ch=1 n=g4 v=31
42240 On ch=1 n=f5 v=36
42470 On ch=1 n=f5 v=0
42470 On ch=1 n=g4 v=0
42470 On ch=1 n=a#4 v=0
42520 Par ch=1 c=64 v=0
42587 Par ch=1 c=64 v=127
42720 On ch=1 n=g4 v=34
42720 On ch=1 n=a3 v=34
42813 Par ch=1 c=64 v=0
42960 On ch=1 n=a3 v=0
42960 On ch=1 n=g4 v=0
42960 On ch=1 n=g4 v=34
42960 On ch=1 n=a3 v=34
43200 On ch=1 n=a3 v=0
43200 On ch=1 n=g4 v=0
43238 Par ch=1 c=64 v=127
43440 On ch=1 n=d5 v=36
43440 On ch=1 n=f4 v=30
43440 On ch=1 n=a4 v=36
43560 On ch=1 n=a4 v=0
43560 On ch=1 n=f4 v=0
43560 On ch=1 n=d5 v=0
43680 On ch=1 n=d4 v=30
43800 On ch=1 n=d4 v=0
43920 On ch=1 n=d5 v=44
43920 On ch=1 n=f5 v=44
43920 On ch=1 n=a4 v=44
43926 Par ch=1 c=64 v=0
43971 Par ch=1 c=64 v=127
44040 On ch=1 n=a4 v=0
44040 On ch=1 n=f5 v=0
44040 On ch=1 n=d5 v=0
44160 On ch=1 n=d4 v=40
44280 On ch=1 n=d4 v=0
44400 On ch=1 n=d5 v=50
44400 On ch=1 n=a5 v=50
44400 On ch=1 n=f5 v=50
44429 Par ch=1 c=64 v=0
44520 On ch=1 n=f5 v=0
44520 On ch=1 n=a5 v=0
44520 On ch=1 n=d5 v=0
44640 Par ch=1 c=64 v=127
44880 On ch=1 n=g4 v=31
44880 On ch=1 n=f5 v=36
44880 On ch=1 n=a#4 v=31
45120 On ch=1 n=a#4 v=0
45120 On ch=1 n=f5 v=0
45120 On ch=1 n=g4 v=0
45120 On ch=1 n=f5 v=36
45120 On ch=1 n=g4 v=31
45120 On ch=1 n=a#4 v=31
45350 On ch=1 n=a#4 v=0
45350 On ch=1 n=g4 v=0
45350 On ch=1 n=f5 v=0
45400 Par ch=1 c=64 v=0
45467 Par ch=1 c=64 v=127
45600 On ch=1 n=a3 v=34
45600 On ch=1 n=g4 v=34
45693 Par ch=1 c=64 v=0
45840 On ch=1 n=g4 v=0
45840 On ch=1 n=a3 v=0
45840 On ch=1 n=g4 v=34
45840 On ch=1 n=a3 v=34
46080 On ch=1 n=a3 v=0
46080 On ch=1 n=g4 v=0
46118 Par ch=1 c=64 v=127
46320 On ch=1 n=d5 v=36
46320 On ch=1 n=f4 v=30
46320 On ch=1 n=a4 v=36
46440 On ch=1 n=a4 v=0
46440 On ch=1 n=f4 v=0
46440 On ch=1 n=d5 v=0
46560 On ch=1 n=d4 v=30
46680 On ch=1 n=d4 v=0
46800 Par ch=1 c=64 v=0
46800 On ch=1 n=d5 v=44
46800 On ch=1 n=a4 v=44
46800 On ch=1 n=f5 v=44
46851 Par ch=1 c=64 v=127
46920 On ch=1 n=f5 v=0
46920 On ch=1 n=a4 v=0
46920 On ch=1 n=d5 v=0
47040 On ch=1 n=d4 v=38
47160 On ch=1 n=d4 v=0
47280 On ch=1 n=f5 v=51
47280 On ch=1 n=d5 v=51
47280 On ch=1 n=a5 v=51
47309 Par ch=1 c=64 v=0
47400 On ch=1 n=a5 v=0
47400 On ch=1 n=d5 v=0
47400 On ch=1 n=f5 v=0
47520 Par ch=1 c=64 v=127
47760 On ch=1 n=d5 v=41
47760 On ch=1 n=c5 v=41
47760 On ch=1 n=a#5 v=46
47760 On ch=1 n=f#5 v=46
47880 On ch=1 n=f#5 v=0
47880 On ch=1 n=d5 v=0
47880 On ch=1 n=c5 v=0
47880 On ch=1 n=a#5 v=0
48000 On ch=1 n=c5 v=34
48000 On ch=1 n=f#5 v=39
48000 On ch=1 n=a5 v=39
48000 On ch=1 n=d5 v=34
48120 On ch=1 n=d5 v=0
48120 On ch=1 n=c5 v=0
48120 On ch=1 n=f#5 v=0
48120 On ch=1 n=a5 v=0
48280 Par ch=1 c=64 v=0
48347 Par ch=1 c=64 v=127
48480 On ch=1 n=d5 v=40
48480 On ch=1 n=a#4 v=40
48480 On ch=1 n=a5 v=44
48600 On ch=1 n=a5 v=0
48600 On ch=1 n=a#4 v=0
48600 On ch=1 n=d5 v=0
48720 On ch=1 n=a#4 v=34
48720 Par ch=1 c=64 v=0
48720 On ch=1 n=g5 v=39
48720 On ch=1 n=d5 v=34
48840 On ch=1 n=d5 v=0
48840 On ch=1 n=g5 v=0
48840 On ch=1 n=a#4 v=0
48998 Par ch=1 c=64 v=127
49200 On ch=1 n=g4 v=40
49200 On ch=1 n=a#4 v=44
49320 On ch=1 n=a#4 v=0
49320 On ch=1 n=g4 v=0
49440 On ch=1 n=a#4 v=41
49440 On ch=1 n=g4 v=36
49560 On ch=1 n=g4 v=0
49560 On ch=1 n=a#4 v=0
49642 Par ch=1 c=64 v=0
49731 Par ch=1 c=64 v=127
49920 On ch=1 n=f3 v=36
49920 On ch=1 n=c4 v=41
50040 On ch=1 n=c4 v=0
50040 On ch=1 n=f3 v=0
50160 On ch=1 n=f3 v=33
50160 On ch=1 n=c4 v=37
50189 Par ch=1 c=64 v=0
50280 On ch=1 n=c4 v=0
50280 On ch=1 n=f3 v=0
50400 Par ch=1 c=64 v=127
50640 On ch=1 n=d5 v=46
50640 On ch=1 n=g#4 v=41
50640 On ch=1 n=g5 v=46
50760 On ch=1 n=g5 v=0
50760 On ch=1 n=g#4 v=0
50760 On ch=1 n=d5 v=0
50880 On ch=1 n=d5 v=39
50880 On ch=1 n=f5 v=39
50880 On ch=1 n=g#4 v=34
51000 On ch=1 n=g#4 v=0
51000 On ch=1 n=f5 v=0
51000 On ch=1 n=d5 v=0
51160 Par ch=1 c=64 v=0
51227 Par ch=1 c=64 v=127
51360 On ch=1 n=d5 v=40
51360 On ch=1 n=g4 v=40
51360 On ch=1 n=f5 v=44
51480 On ch=1 n=f5 v=0
51480 On ch=1 n=g4 v=0
51480 On ch=1 n=d5 v=0
51600 On ch=1 n=d5 v=34
51600 On ch=1 n=e5 v=39
51600 On ch=1 n=g4 v=34
51720 On ch=1 n=g4 v=0
51720 On ch=1 n=e5 v=0
51720 On ch=1 n=d5 v=0
51840 Par ch=1 c=64 v=0
51920 Par ch=1 c=64 v=127
52080 On ch=1 n=e4 v=40
52080 On ch=1 n=g4 v=44
52200 On ch=1 n=g4 v=0
52200 On ch=1 n=e4 v=0
52320 On ch=1 n=g4 v=41
52320 On ch=1 n=e4 v=36
52440 On ch=1 n=e4 v=0
52440 On ch=1 n=g4 v=0
52480 Par ch=1 c=64 v=0
52611 Par ch=1 c=64 v=127
52800 On ch=1 n=a#3 v=36
52800 On ch=1 n=d4 v=41
52920 On ch=1 n=d4 v=0
52920 On ch=1 n=a#3 v=0
53040 On ch=1 n=d4 v=37
53040 On ch=1 n=a#3 v=33
53160 On ch=1 n=a#3 v=0
53160 On ch=1 n=d4 v=0
53280 Par ch=1 c=64 v=0
53280 On ch=1 n=e5 v=66
53417 Par ch=1 c=64 v=127
53760 On ch=1 n=e5 v=0
53760 On ch=1 n=e4 v=40
54000 On ch=1 n=e4 v=0
54040 Par ch=1 c=64 v=0
54107 Par ch=1 c=64 v=127
54240 On ch=1 n=a4 v=40
54240 On ch=1 n=g5 v=44
54240 On ch=1 n=c#5 v=40
54480 On ch=1 n=c#5 v=0
54480 On ch=1 n=g5 v=0
54480 On ch=1 n=a4 v=0
54480 Par ch=1 c=64 v=0
54480 On ch=1 n=c#5 v=34
54480 On ch=1 n=a4 v=34
54480 On ch=1 n=g5 v=39
54720 On ch=1 n=g5 v=0
54720 On ch=1 n=a4 v=0
54720 On ch=1 n=c#5 v=0
54720 Par ch=1 c=64 v=127
54720 On ch=1 n=e5 v=66
55200 On ch=1 n=e5 v=0
55200 On ch=1 n=e4 v=40
55440 On ch=1 n=e4 v=0
55480 Par ch=1 c=64 v=0
55547 Par ch=1 c=64 v=127
55680 On ch=1 n=c#5 v=40
55680 On ch=1 n=a4 v=40
55680 On ch=1 n=g5 v=44
55920 On ch=1 n=g5 v=0
55920 On ch=1 n=a4 v=0
55920 On ch=1 n=c#5 v=0
55920 Par ch=1 c=64 v=0
55920 On ch=1 n=c#5 v=34
55920 On ch=1 n=g5 v=39
55920 On ch=1 n=a4 v=34
56160 On ch=1 n=a4 v=0
56160 On ch=1 n=g5 v=0
56160 On ch=1 n=c#5 v=0
56198 Par ch=1 c=64 v=127
56400 On ch=1 n=d5 v=39
56400 On ch=1 n=g4 v=36
56400 On ch=1 n=a#4 v=39
56842 Par ch=1 c=64 v=0
56880 On ch=1 n=a#4 v=0
56880 On ch=1 n=g4 v=0
56880 On ch=1 n=d5 v=0
56931 Par ch=1 c=64 v=127
57120 On ch=1 n=e4 v=32
57120 On ch=1 n=d5 v=36
57120 On ch=1 n=a#4 v=32
57389 Par ch=1 c=64 v=0
57600 On ch=1 n=a#4 v=0
57600 On ch=1 n=d5 v=0
57600 On ch=1 n=e4 v=0
57600 On ch=1 n=e3 v=46
57629 Par ch=1 c=64 v=127
57960 On ch=1 n=e3 v=0
57960 On ch=1 n=d#3 v=40
58080 On ch=1 n=d#3 v=0
58080 On ch=1 n=e3 v=42
58200 On ch=1 n=e3 v=0
58200 On ch=1 n=g3 v=44
58280 Par ch=1 c=64 v=0
58320 On ch=1 n=g3 v=0
58320 On ch=1 n=a#3 v=46
58331 Par ch=1 c=64 v=127
58800 On ch=1 n=a#3 v=0
58800 On ch=1 n=a3 v=43
58880 Par ch=1 c=64 v=0
59040 On ch=1 n=a3 v=0
59200 Par ch=1 c=64 v=127
59280 On ch=1 n=g4 v=31
59280 On ch=1 n=f5 v=36
59280 On ch=1 n=a#4 v=31
59520 On ch=1 n=a#4 v=0
59520 On ch=1 n=f5 v=0
59520 On ch=1 n=g4 v=0
59520 On ch=1 n=f5 v=36
59520 On ch=1 n=g4 v=31
59520 On ch=1 n=a#4 v=31
59750 On ch=1 n=a#4 v=0
59750 On ch=1 n=g4 v=0
59750 On ch=1 n=f5 v=0
59800 Par ch=1 c=64 v=0
59867 Par ch=1 c=64 v=127
60000 On ch=1 n=a3 v=34
60000 On ch=1 n=g4 v=34
60093 Par ch=1 c=64 v=0
60240 On ch=1 n=g4 v=0
60240 On ch=1 n=a3 v=0
60240 On ch=1 n=g4 v=34
60240 On ch=1 n=a3 v=34
60480 On ch=1 n=a3 v=0
60480 On ch=1 n=g4 v=0
60518 Par ch=1 c=64 v=127
60720 On ch=1 n=d5 v=36
60720 On ch=1 n=f4 v=30
60720 On ch=1 n=a4 v=36
60840 On ch=1 n=a4 v=0
60840 On ch=1 n=f4 v=0
60840 On ch=1 n=d5 v=0
60960 On ch=1 n=d4 v=30
61080 On ch=1 n=d4 v=0
61200 On ch=1 n=d5 v=44
61200 On ch=1 n=a4 v=44
61200 On ch=1 n=f5 v=44
61217 Par ch=1 c=64 v=0
61251 Par ch=1 c=64 v=127
61320 On ch=1 n=f5 v=0
61320 On ch=1 n=a4 v=0
61320 On ch=1 n=d5 v=0
61440 On ch=1 n=d4 v=40
61560 On ch=1 n=d4 v=0
61680 On ch=1 n=f5 v=50
61680 On ch=1 n=d5 v=50
61680 On ch=1 n=a5 v=50
61709 Par ch=1 c=64 v=0
61800 On ch=1 n=a5 v=0
61800 On ch=1 n=d5 v=0
61800 On ch=1 n=f5 v=0
61920 Par ch=1 c=64 v=127
62160 On ch=1 n=a#4 v=31
62160 On ch=1 n=g4 v=31
62160 On ch=1 n=f5 v=36
62400 On ch=1 n=f5 v=0
62400 On ch=1 n=g4 v=0
62400 On ch=1 n=a#4 v=0
62400 On ch=1 n=f5 v=36
62400 On ch=1 n=g4 v=31
62400 On ch=1 n=a#4 v=31
62630 On ch=1 n=a#4 v=0
62630 On ch=1 n=g4 v=0
62630 On ch=1 n=f5 v=0
62680 Par ch=1 c=64 v=0
62747 Par ch=1 c=64 v=127
62880 On ch=1 n=a3 v=34
62880 On ch=1 n=g4 v=34
62973 Par ch=1 c=64 v=0
63120 On ch=1 n=g4 v=0
63120 On ch=1 n=a3 v=0
63120 On ch=1 n=a3 v=34
63120 On ch=1 n=g4 v=34
63360 On ch=1 n=g4 v=0
63360 On ch=1 n=a3 v=0
63398 Par ch=1 c=64 v=127
63600 On ch=1 n=d5 v=36
63600 On ch=1 n=a4 v=36
63600 On ch=1 n=f4 v=30
63720 On ch=1 n=f4 v=0
63720 On ch=1 n=a4 v=0
63720 On ch=1 n=d5 v=0
63840 On ch=1 n=d4 v=30
63960 On ch=1 n=d4 v=0
64080 Par ch=1 c=64 v=0
64080 On ch=1 n=d5 v=44
64080 On ch=1 n=f5 v=44
64080 On ch=1 n=a4 v=44
64131 Par ch=1 c=64 v=127
64200 On ch=1 n=a4 v=0
64200 On ch=1 n=f5 v=0
64200 On ch=1 n=d5 v=0
64320 On ch=1 n=d4 v=38
64440 On ch=1 n=d4 v=0
64560 On ch=1 n=f5 v=51
64560 On ch=1 n=a5 v=51
64560 On ch=1 n=d5 v=51
64589 Par ch=1 c=64 v=0
64680 On ch=1 n=d5 v=0
64680 On ch=1 n=a5 v=0
64680 On ch=1 n=f5 v=0
64800 Par ch=1 c=64 v=127
65040 On ch=1 n=a#4 v=31
65040 On ch=1 n=f5 v=36
65040 On ch=1 n=g4 v=31
65280 On ch=1 n=g4 v=0
65280 On ch=1 n=f5 v=0
65280 On ch=1 n=a#4 v=0
65280 On ch=1 n=a#4 v=31
65280 On ch=1 n=f5 v=36
65280 On ch=1 n=g4 v=31
65510 On ch=1 n=g4 v=0
65510 On ch=1 n=f5 v=0
65510 On ch=1 n=a#4 v=0
65560 Par ch=1 c=64 v=0
65627 Par ch=1 c=64 v=127
65760 On ch=1 n=g4 v=34
65760 On ch=1 n=a3 v=34
65853 Par ch=1 c=64 v=0
66000 On ch=1 n=a3 v=0
66000 On ch=1 n=g4 v=0
66000 On ch=1 n=g4 v=34
66000 On ch=1 n=a3 v=34
66240 On ch=1 n=a3 v=0
66240 On ch=1 n=g4 v=0
66278 Par ch=1 c=64 v=127
66480 On ch=1 n=f4 v=30
66480 On ch=1 n=a4 v=36
66480 On ch=1 n=d5 v=36
66600 On ch=1 n=d5 v=0
66600 On ch=1 n=a4 v=0
66600 On ch=1 n=f4 v=0
66720 On ch=1 n=d4 v=30
66840 On ch=1 n=d4 v=0
66960 On ch=1 n=a4 v=44
66960 On ch=1 n=f5 v=44
66960 On ch=1 n=d5 v=44
66971 Par ch=1 c=64 v=0
67011 Par ch=1 c=64 v=127
67080 On ch=1 n=d5 v=0
67080 On ch=1 n=f5 v=0
67080 On ch=1 n=a4 v=0
67200 On ch=1 n=d4 v=40
67320 On ch=1 n=d4 v=0
67440 On ch=1 n=d5 v=50
67440 On ch=1 n=a5 v=50
67440 On ch=1 n=f5 v=50
67469 Par ch=1 c=64 v=0
67560 On ch=1 n=f5 v=0
67560 On ch=1 n=a5 v=0
67560 On ch=1 n=d5 v=0
67680 Par ch=1 c=64 v=127
67920 On ch=1 n=g4 v=31
67920 On ch=1 n=f5 v=36
67920 On ch=1 n=a#4 v=31
68160 On ch=1 n=a#4 v=0
68160 On ch=1 n=f5 v=0
68160 On ch=1 n=g4 v=0
68160 On ch=1 n=f5 v=36
68160 On ch=1 n=g4 v=31
68160 On ch=1 n=a#4 v=31
68390 On ch=1 n=a#4 v=0
68390 On ch=1 n=g4 v=0
68390 On ch=1 n=f5 v=0
68440 Par ch=1 c=64 v=0
68507 Par ch=1 c=64 v=127
68640 On ch=1 n=a3 v=34
68640 On ch=1 n=g4 v=34
68733 Par ch=1 c=64 v=0
68880 On ch=1 n=g4 v=0
68880 On ch=1 n=a3 v=0
68880 On ch=1 n=g4 v=34
68880 On ch=1 n=a3 v=34
69120 On ch=1 n=a3 v=0
69120 On ch=1 n=g4 v=0
69158 Par ch=1 c=64 v=127
69360 On ch=1 n=d5 v=36
69360 On ch=1 n=f4 v=30
69360 On ch=1 n=a4 v=36
69480 On ch=1 n=a4 v=0
69480 On ch=1 n=f4 v=0
69480 On ch=1 n=d5 v=0
69600 On ch=1 n=d4 v=30
69720 On ch=1 n=d4 v=0
69840 On ch=1 n=a4 v=44
69840 On ch=1 n=f5 v=44
69840 On ch=1 n=d5 v=44
69846 Par ch=1 c=64 v=0
69891 Par ch=1 c=64 v=127
69960 On ch=1 n=d5 v=0
69960 On ch=1 n=f5 v=0
69960 On ch=1 n=a4 v=0
70080 On ch=1 n=d4 v=38
70200 On ch=1 n=d4 v=0
70320 On ch=1 n=d5 v=51
70320 On ch=1 n=a5 v=51
70320 On ch=1 n=f5 v=51
70349 Par ch=1 c=64 v=0
70440 On ch=1 n=f5 v=0
70440 On ch=1 n=a5 v=0
70440 On ch=1 n=d5 v=0
70560 Par ch=1 c=64 v=127
70800 On ch=1 n=c5 v=41
70800 On ch=1 n=f#5 v=46
70800 On ch=1 n=d5 v=41
70800 On ch=1 n=a#5 v=46
70920 On ch=1 n=a#5 v=0
70920 On ch=1 n=c5 v=0
70920 On ch=1 n=f#5 v=0
70920 On ch=1 n=d5 v=0
71040 On ch=1 n=a5 v=39
71040 On ch=1 n=c5 v=34
71040 On ch=1 n=d5 v=34
71040 On ch=1 n=f#5 v=39
71160 On ch=1 n=f#5 v=0
71160 On ch=1 n=a5 v=0
71160 On ch=1 n=c5 v=0
71160 On ch=1 n=d5 v=0
71320 Par ch=1 c=64 v=0
71387 Par ch=1 c=64 v=127
71520 On ch=1 n=a#4 v=40
71520 On ch=1 n=a5 v=44
71520 On ch=1 n=d5 v=40
71640 On ch=1 n=d5 v=0
71640 On ch=1 n=a5 v=0
71640 On ch=1 n=a#4 v=0
71760 On ch=1 n=a#4 v=34
71760 On ch=1 n=d5 v=34
71760 On ch=1 n=g5 v=39
71880 On ch=1 n=g5 v=0
71880 On ch=1 n=d5 v=0
71880 On ch=1 n=a#4 v=0
72000 Par ch=1 c=64 v=0
72091 Par ch=1 c=64 v=127
72240 On ch=1 n=g4 v=40
72240 On ch=1 n=a#4 v=44
72360 On ch=1 n=a#4 v=0
72360 On ch=1 n=g4 v=0
72480 On ch=1 n=g4 v=36
72480 On ch=1 n=a#4 v=41
72600 On ch=1 n=a#4 v=0
72600 On ch=1 n=g4 v=0
72682 Par ch=1 c=64 v=0
72771 Par ch=1 c=64 v=127
72960 On ch=1 n=c4 v=41
72960 On ch=1 n=f3 v=36
73080 On ch=1 n=f3 v=0
73080 On ch=1 n=c4 v=0
73200 On ch=1 n=c4 v=37
73200 On ch=1 n=f3 v=33
73229 Par ch=1 c=64 v=0
73320 On ch=1 n=f3 v=0
73320 On ch=1 n=c4 v=0
73482 Par ch=1 c=64 v=127
73680 On ch=1 n=a#4 v=38
73680 On ch=1 n=d5 v=43
73680 On ch=1 n=g#4 v=38
73680 On ch=1 n=g5 v=43
73800 On ch=1 n=g5 v=0
73800 On ch=1 n=a#4 v=0
73800 On ch=1 n=d5 v=0
73800 On ch=1 n=g#4 v=0
73920 On ch=1 n=f5 v=36
73920 On ch=1 n=a#4 v=31
73920 On ch=1 n=g#4 v=31
73920 On ch=1 n=d5 v=36
74040 On ch=1 n=d5 v=0
74040 On ch=1 n=f5 v=0
74040 On ch=1 n=a#4 v=0
74040 On ch=1 n=g#4 v=0
74200 Par ch=1 c=64 v=0
74267 Par ch=1 c=64 v=127
74400 On ch=1 n=g4 v=36
74400 On ch=1 n=f5 v=40
74400 On ch=1 n=a#4 v=36
74520 On ch=1 n=a#4 v=0
74520 On ch=1 n=f5 v=0
74520 On ch=1 n=g4 v=0
74640 On ch=1 n=g4 v=30
74640 On ch=1 n=a#4 v=30
74640 On ch=1 n=d#5 v=35
74760 On ch=1 n=d#5 v=0
74760 On ch=1 n=a#4 v=0
74760 On ch=1 n=g4 v=0
74880 Par ch=1 c=64 v=0
74989 Par ch=1 c=64 v=127
75120 On ch=1 n=f4 v=36
75120 On ch=1 n=g#4 v=39
75240 On ch=1 n=g#4 v=0
75240 On ch=1 n=f4 v=0
75360 On ch=1 n=f4 v=32
75360 On ch=1 n=g#4 v=36
75480 On ch=1 n=g#4 v=0
75480 On ch=1 n=f4 v=0
75562 Par ch=1 c=64 v=0
75651 Par ch=1 c=64 v=127
75840 On ch=1 n=g4 v=31
75840 On ch=1 n=c4 v=31
75840 On ch=1 n=c5 v=35
75960 On ch=1 n=c5 v=0
75960 On ch=1 n=c4 v=0
75960 On ch=1 n=g4 v=0
76080 On ch=1 n=c4 v=28
76080 On ch=1 n=c5 v=31
76080 On ch=1 n=g4 v=28
76109 Par ch=1 c=64 v=0
76200 On ch=1 n=g4 v=0
76200 On ch=1 n=c5 v=0
76200 On ch=1 n=c4 v=0
76320 On ch=1 n=g#3 v=51
76364 Par ch=1 c=64 v=127
76680 On ch=1 n=g#3 v=0
76680 On ch=1 n=a3 v=43
76800 On ch=1 n=a3 v=0
76800 On ch=1 n=g#3 v=46
76920 On ch=1 n=g#3 v=0
76920 On ch=1 n=a3 v=48
76964 Par ch=1 c=64 v=0
77040 On ch=1 n=a3 v=0
77040 On ch=1 n=d4 v=51
77103 Par ch=1 c=64 v=127
77280 On ch=1 n=d4 v=0
77280 On ch=1 n=b3 v=42
77501 Par ch=1 c=64 v=0
77520 On ch=1 n=b3 v=0
77520 On ch=1 n=c4 v=48
77760 On ch=1 n=c4 v=0
77798 Par ch=1 c=64 v=127
78000 On ch=1 n=d#5 v=39
78000 On ch=1 n=f#4 v=36
78000 On ch=1 n=c5 v=36
78180 On ch=1 n=c5 v=0
78180 On ch=1 n=f#4 v=0
78180 On ch=1 n=d#5 v=0
78240 On ch=1 n=c5 v=32
78240 On ch=1 n=f#4 v=32
78240 On ch=1 n=d#5 v=36
78420 On ch=1 n=d#5 v=0
78420 On ch=1 n=f#4 v=0
78420 On ch=1 n=c5 v=0
78442 Par ch=1 c=64 v=0
78531 Par ch=1 c=64 v=127
78720 On ch=1 n=a4 v=35
78720 On ch=1 n=f4 v=31
78900 On ch=1 n=f4 v=0
78900 On ch=1 n=a4 v=0
78960 On ch=1 n=a4 v=31
78960 On ch=1 n=f4 v=28
78989 Par ch=1 c=64 v=0
79140 On ch=1 n=f4 v=0
79140 On ch=1 n=a4 v=0
79200 On ch=1 n=g#3 v=51
79244 Par ch=1 c=64 v=127
79560 On ch=1 n=g#3 v=0
79560 On ch=1 n=a3 v=43
79680 On ch=1 n=a3 v=0
79680 On ch=1 n=g#3 v=46
79800 On ch=1 n=g#3 v=0
79800 On ch=1 n=a3 v=48
79844 Par ch=1 c=64 v=0
79920 On ch=1 n=a3 v=0
79920 On ch=1 n=d4 v=51
79983 Par ch=1 c=64 v=127
80160 On ch=1 n=d4 v=0
80160 On ch=1 n=b3 v=42
80381 Par ch=1 c=64 v=0
80400 On ch=1 n=b3 v=0
80400 On ch=1 n=c4 v=48
80640 On ch=1 n=c4 v=0
80678 Par ch=1 c=64 v=127
80880 On ch=1 n=d#5 v=39
80880 On ch=1 n=f#4 v=36
80880 On ch=1 n=c5 v=36
81060 On ch=1 n=c5 v=0
81060 On ch=1 n=f#4 v=0
81060 On ch=1 n=d#5 v=0
81120 On ch=1 n=c5 v=32
81120 On ch=1 n=f#4 v=32
81120 On ch=1 n=d#5 v=36
81300 On ch=1 n=d#5 v=0
81300 On ch=1 n=f#4 v=0
81300 On ch=1 n=c5 v=0
81322 Par ch=1 c=64 v=0
81411 Par ch=1 c=64 v=127
81600 On ch=1 n=a4 v=35
81600 On ch=1 n=f4 v=31
81780 On ch=1 n=f4 v=0
81780 On ch=1 n=a4 v=0
81840 On ch=1 n=a4 v=31
81840 On ch=1 n=f4 v=28
81869 Par ch=1 c=64 v=0
82020 On ch=1 n=f4 v=0
82020 On ch=1 n=a4 v=0
82118 Par ch=1 c=64 v=127
82320 On ch=1 n=a#4 v=36
82320 On ch=1 n=c5 v=36
82320 On ch=1 n=d#5 v=39
82500 On ch=1 n=d#5 v=0
82500 On ch=1 n=c5 v=0
82500 On ch=1 n=a#4 v=0
82560 On ch=1 n=c5 v=32
82560 On ch=1 n=d#5 v=36
82560 On ch=1 n=a#4 v=32
82740 On ch=1 n=a#4 v=0
82740 On ch=1 n=d#5 v=0
82740 On ch=1 n=c5 v=0
82762 Par ch=1 c=64 v=0
82851 Par ch=1 c=64 v=127
83040 On ch=1 n=a4 v=35
83040 On ch=1 n=f4 v=31
83220 On ch=1 n=f4 v=0
83220 On ch=1 n=a4 v=0
83280 On ch=1 n=f4 v=28
83280 On ch=1 n=a4 v=31
83309 Par ch=1 c=64 v=0
83460 On ch=1 n=a4 v=0
83460 On ch=1 n=f4 v=0
83558 Par ch=1 c=64 v=127
83760 On ch=1 n=d#5 v=36
83760 On ch=1 n=a#4 v=33
83760 On ch=1 n=c5 v=33
83940 On ch=1 n=c5 v=0
83940 On ch=1 n=a#4 v=0
83940 On ch=1 n=d#5 v=0
84000 On ch=1 n=a#4 v=29
84000 On ch=1 n=d#5 v=33
84000 On ch=1 n=c5 v=29
84180 On ch=1 n=c5 v=0
84180 On ch=1 n=d#5 v=0
84180 On ch=1 n=a#4 v=0
84202 Par ch=1 c=64 v=0
84291 Par ch=1 c=64 v=127
84480 On ch=1 n=f4 v=27
84480 On ch=1 n=a4 v=31
84660 On ch=1 n=a4 v=0
84660 On ch=1 n=f4 v=0
84685 Par ch=1 c=64 v=0
84720 On ch=1 n=f4 v=24
84720 On ch=1 n=a4 v=26
84900 On ch=1 n=a4 v=0
84900 On ch=1 n=f4 v=0
84960 Par ch=1 c=64 v=127
84960 On ch=1 n=d5 v=30
84960 On ch=1 n=f5 v=36
84960 On ch=1 n=a#4 v=30
85200 On ch=1 n=a#4 v=0
85200 On ch=1 n=f5 v=0
85200 On ch=1 n=d5 v=0
85200 On ch=1 n=d5 v=31
85200 On ch=1 n=a#4 v=31
85200 On ch=1 n=f5 v=35
85440 On ch=1 n=f5 v=0
85440 On ch=1 n=a#4 v=0
85440 On ch=1 n=d5 v=0
85440 On ch=1 n=d5 v=28
85440 On ch=1 n=a#4 v=28
85440 On ch=1 n=f5 v=32
85680 On ch=1 n=f5 v=0
85680 On ch=1 n=a#4 v=0
85680 On ch=1 n=d5 v=0
85680 On ch=1 n=a#4 v=30
85680 On ch=1 n=f5 v=34
85680 On ch=1 n=d5 v=30
85720 Par ch=1 c=64 v=0
85787 Par ch=1 c=64 v=127
85920 On ch=1 n=d5 v=0
85920 On ch=1 n=f5 v=0
85920 On ch=1 n=a#4 v=0
85920 On ch=1 n=d5 v=28
85920 On ch=1 n=a#4 v=28
85920 On ch=1 n=f5 v=32
86013 Par ch=1 c=64 v=0
86160 On ch=1 n=f5 v=0
86160 On ch=1 n=a#4 v=0
86160 On ch=1 n=d5 v=0
86438 Par ch=1 c=64 v=127
86640 On ch=1 n=f5 v=36
86640 On ch=1 n=a4 v=30
86640 On ch=1 n=d#5 v=36
86880 On ch=1 n=d#5 v=0
86880 On ch=1 n=a4 v=0
86880 On ch=1 n=f5 v=0
86880 On ch=1 n=d#5 v=36
86880 On ch=1 n=a4 v=30
86880 On ch=1 n=f5 v=36
87082 Par ch=1 c=64 v=0
87120 On ch=1 n=f5 v=0
87120 On ch=1 n=a4 v=0
87120 On ch=1 n=d#5 v=0
87120 On ch=1 n=d#5 v=36
87120 On ch=1 n=f5 v=36
87120 On ch=1 n=a4 v=30
87171 Par ch=1 c=64 v=127
87360 On ch=1 n=a4 v=0
87360 On ch=1 n=f5 v=0
87360 On ch=1 n=d#5 v=0
87360 On ch=1 n=a4 v=30
87360 On ch=1 n=f5 v=36
87360 On ch=1 n=d#5 v=36
87524 Par ch=1 c=64 v=0
87590 On ch=1 n=d#5 v=0
87590 On ch=1 n=f5 v=0
87590 On ch=1 n=a4 v=0
87943 Par ch=1 c=64 v=127
88080 On ch=1 n=g#4 v=30
88080 On ch=1 n=f5 v=36
88080 On ch=1 n=d5 v=30
88320 On ch=1 n=d5 v=0
88320 On ch=1 n=f5 v=0
88320 On ch=1 n=g#4 v=0
88320 On ch=1 n=g#4 v=30
88320 On ch=1 n=f5 v=36
88320 On ch=1 n=d5 v=30
88469 Par ch=1 c=64 v=0
88560 On ch=1 n=d5 v=0
88560 On ch=1 n=f5 v=0
88560 On ch=1 n=g#4 v=0
88560 On ch=1 n=g#4 v=33
88560 Par ch=1 c=64 v=127
88560 On ch=1 n=f5 v=39
88560 On ch=1 n=d5 v=33
88800 On ch=1 n=d5 v=0
88800 On ch=1 n=f5 v=0
88800 On ch=1 n=g#4 v=0
88800 On ch=1 n=d5 v=33
88800 On ch=1 n=f5 v=39
88800 On ch=1 n=g#4 v=33
88903 Par ch=1 c=64 v=0
89040 On ch=1 n=g#4 v=0
89040 On ch=1 n=f5 v=0
89040 On ch=1 n=d5 v=0
89373 Par ch=1 c=64 v=127
89520 On ch=1 n=c5 v=36
89520 On ch=1 n=d#5 v=45
89520 On ch=1 n=g4 v=36
89760 On ch=1 n=g4 v=0
89760 On ch=1 n=d#5 v=0
89760 On ch=1 n=c5 v=0
89760 On ch=1 n=c5 v=36
89760 On ch=1 n=g4 v=36
89760 On ch=1 n=d#5 v=45
89920 Par ch=1 c=64 v=0
90000 On ch=1 n=d#5 v=0
90000 On ch=1 n=g4 v=0
90000 On ch=1 n=c5 v=0
90000 On ch=1 n=g4 v=36
90000 On ch=1 n=d#5 v=45
90000 On ch=1 n=c5 v=36
90013 Par ch=1 c=64 v=127
90240 On ch=1 n=c5 v=0
90240 On ch=1 n=d#5 v=0
90240 On ch=1 n=g4 v=0
90240 On ch=1 n=c5 v=36
90240 On ch=1 n=g4 v=36
90240 On ch=1 n=d#5 v=45
90360 Par ch=1 c=64 v=0
90480 On ch=1 n=d#5 v=0
90480 On ch=1 n=g4 v=0
90480 On ch=1 n=c5 v=0
90728 Par ch=1 c=64 v=127
90960 On ch=1 n=a4 v=37
90960 On ch=1 n=g4 v=37
90960 On ch=1 n=e5 v=46
90960 On ch=1 n=c#5 v=46
91200 On ch=1 n=c#5 v=0
91200 On ch=1 n=a4 v=0
91200 On ch=1 n=g4 v=0
91200 On ch=1 n=e5 v=0
91200 On ch=1 n=a4 v=35
91200 On ch=1 n=c#5 v=41
91200 On ch=1 n=e5 v=41
91200 On ch=1 n=g4 v=35
91374 Par ch=1 c=64 v=0
91440 On ch=1 n=g4 v=0
91440 On ch=1 n=a4 v=0
91440 On ch=1 n=c#5 v=0
91440 On ch=1 n=e5 v=0
91440 On ch=1 n=a4 v=38
91440 On ch=1 n=c#5 v=46
91440 On ch=1 n=e5 v=46
91440 On ch=1 n=g4 v=38
91490 Par ch=1 c=64 v=127
91680 On ch=1 n=g4 v=0
91680 On ch=1 n=a4 v=0
91680 On ch=1 n=c#5 v=0
91680 On ch=1 n=e5 v=0
91680 On ch=1 n=a4 v=38
91680 On ch=1 n=c#5 v=46
91680 On ch=1 n=e5 v=46
91680 On ch=1 n=g4 v=38
91829 Par ch=1 c=64 v=0
91920 On ch=1 n=g4 v=0
91920 On ch=1 n=a4 v=0
91920 On ch=1 n=c#5 v=0
91920 On ch=1 n=e5 v=0
92347 Par ch=1 c=64 v=127
92400 On ch=1 n=d5 v=40
92400 On ch=1 n=f4 v=34
92400 On ch=1 n=a4 v=34
92640 On ch=1 n=a4 v=0
92640 On ch=1 n=f4 v=0
92640 On ch=1 n=d5 v=0
92640 On ch=1 n=f4 v=34
92640 On ch=1 n=a4 v=34
92640 On ch=1 n=d5 v=40
92827 Par ch=1 c=64 v=0
92880 On ch=1 n=d5 v=0
92880 On ch=1 n=a4 v=0
92880 On ch=1 n=f4 v=0
92880 On ch=1 n=d5 v=40
92880 On ch=1 n=f4 v=34
92880 On ch=1 n=a4 v=34
92960 Par ch=1 c=64 v=127
93120 On ch=1 n=a4 v=0
93120 On ch=1 n=f4 v=0
93120 On ch=1 n=d5 v=0
93120 On ch=1 n=d5 v=40
93120 On ch=1 n=a4 v=34
93120 On ch=1 n=f4 v=34
93267 Par ch=1 c=64 v=0
93360 On ch=1 n=f4 v=0
93360 On ch=1 n=a4 v=0
93360 On ch=1 n=d5 v=0
93749 Par ch=1 c=64 v=127
93840 On ch=1 n=g4 v=36
93840 On ch=1 n=c#5 v=36
93840 On ch=1 n=a4 v=36
93840 On ch=1 n=e4 v=30
94080 On ch=1 n=e4 v=0
94080 On ch=1 n=g4 v=0
94080 On ch=1 n=c#5 v=0
94080 On ch=1 n=a4 v=0
94080 On ch=1 n=e4 v=30
94080 On ch=1 n=c#5 v=36
94080 On ch=1 n=a4 v=36
94080 On ch=1 n=g4 v=30
94320 On ch=1 n=g4 v=0
94320 On ch=1 n=e4 v=0
94320 On ch=1 n=c#5 v=0
94320 On ch=1 n=a4 v=0
94320 On ch=1 n=e4 v=30
94320 Par ch=1 c=64 v=0
94320 On ch=1 n=c#5 v=36
94320 On ch=1 n=a4 v=36
94320 On ch=1 n=g4 v=30
94378 Par ch=1 c=64 v=127
94560 On ch=1 n=g4 v=0
94560 On ch=1 n=e4 v=0
94560 On ch=1 n=c#5 v=0
94560 On ch=1 n=a4 v=0
94560 On ch=1 n=e4 v=30
94560 On ch=1 n=c#5 v=36
94560 On ch=1 n=a4 v=36
94560 On ch=1 n=g4 v=30
94676 Par ch=1 c=64 v=0
94800 On ch=1 n=g4 v=0
94800 On ch=1 n=e4 v=0
94800 On ch=1 n=c#5 v=0
94800 On ch=1 n=a4 v=0
95213 Par ch=1 c=64 v=127
95280 On ch=1 n=a4 v=33
95280 On ch=1 n=d4 v=28
95520 On ch=1 n=d4 v=0
95520 On ch=1 n=a4 v=0
95520 On ch=1 n=d4 v=25
95520 On ch=1 n=a4 v=29
95760 On ch=1 n=a4 v=0
95760 On ch=1 n=d4 v=0
95760 On ch=1 n=d4 v=25
95760 On ch=1 n=a4 v=29
96000 On ch=1 n=a4 v=0
96000 On ch=1 n=d4 v=0
96000 On ch=1 n=a4 v=29
96000 On ch=1 n=d4 v=25
96173 Par ch=1 c=64 v=0
96240 On ch=1 n=d4 v=0
96240 On ch=1 n=a4 v=0
96480 On ch=1 n=c4 v=27
96480 On ch=1 n=f4 v=27
96480 On ch=1 n=d#5 v=30
96480 On ch=1 n=f5 v=36
96480 Par ch=1 c=64 v=127
96720 On ch=1 n=f5 v=0
96720 On ch=1 n=c4 v=0
96720 On ch=1 n=f4 v=0
96720 On ch=1 n=d#5 v=0
96720 On ch=1 n=c4 v=31
96720 On ch=1 n=d#5 v=35
96720 On ch=1 n=f5 v=35
96720 On ch=1 n=f4 v=31
96960 On ch=1 n=f4 v=0
96960 On ch=1 n=c4 v=0
96960 On ch=1 n=d#5 v=0
96960 On ch=1 n=f5 v=0
96960 On ch=1 n=f4 v=28
96960 On ch=1 n=c4 v=28
96960 On ch=1 n=f5 v=32
96960 On ch=1 n=d#5 v=32
97200 On ch=1 n=d#5 v=0
97200 On ch=1 n=f4 v=0
97200 On ch=1 n=c4 v=0
97200 On ch=1 n=f5 v=0
97200 On ch=1 n=c4 v=31
97200 On ch=1 n=d#5 v=35
97200 On ch=1 n=f4 v=31
97200 On ch=1 n=f5 v=35
97240 Par ch=1 c=64 v=0
97307 Par ch=1 c=64 v=127
97440 On ch=1 n=f5 v=0
97440 On ch=1 n=c4 v=0
97440 On ch=1 n=d#5 v=0
97440 On ch=1 n=f4 v=0
97440 On ch=1 n=f4 v=29
97440 On ch=1 n=c4 v=29
97440 On ch=1 n=f5 v=33
97440 On ch=1 n=d#5 v=33
97533 Par ch=1 c=64 v=0
97680 On ch=1 n=d#5 v=0
97680 On ch=1 n=f4 v=0
97680 On ch=1 n=c4 v=0
97680 On ch=1 n=f5 v=0
97958 Par ch=1 c=64 v=127
98160 On ch=1 n=a#3 v=30
98160 On ch=1 n=a#4 v=36
98160 On ch=1 n=d5 v=36
98400 On ch=1 n=d5 v=0
98400 On ch=1 n=a#4 v=0
98400 On ch=1 n=a#3 v=0
98400 On ch=1 n=a#3 v=30
98400 On ch=1 n=d5 v=36
98400 On ch=1 n=a#4 v=36
98602 Par ch=1 c=64 v=0
98640 On ch=1 n=a#4 v=0
98640 On ch=1 n=d5 v=0
98640 On ch=1 n=a#3 v=0
98640 On ch=1 n=a#4 v=36
98640 On ch=1 n=a#3 v=30
98640 On ch=1 n=d5 v=36
98691 Par ch=1 c=64 v=127
98880 On ch=1 n=d5 v=0
98880 On ch=1 n=a#3 v=0
98880 On ch=1 n=a#4 v=0
98880 On ch=1 n=a#4 v=36
98880 On ch=1 n=d5 v=36
98880 On ch=1 n=a#3 v=30
99044 Par ch=1 c=64 v=0
99120 On ch=1 n=a#3 v=0
99120 On ch=1 n=d5 v=0
99120 On ch=1 n=a#4 v=0
99463 Par ch=1 c=64 v=127
99600 On ch=1 n=g4 v=30
99600 On ch=1 n=f5 v=30
99600 On ch=1 n=g5 v=36
99600 On ch=1 n=d4 v=30
99840 On ch=1 n=d4 v=0
99840 On ch=1 n=g4 v=0
99840 On ch=1 n=f5 v=0
99840 On ch=1 n=g5 v=0
99840 On ch=1 n=g4 v=30
99840 On ch=1 n=d4 v=30
99840 On ch=1 n=g5 v=36
99840 On ch=1 n=f5 v=30
99989 Par ch=1 c=64 v=0
100080 On ch=1 n=f5 v=0
100080 On ch=1 n=g4 v=0
100080 On ch=1 n=d4 v=0
100080 On ch=1 n=g5 v=0
100080 Par ch=1 c=64 v=127
100080 On ch=1 n=d4 v=33
100080 On ch=1 n=f5 v=33
100080 On ch=1 n=g5 v=39
100080 On ch=1 n=g4 v=33
100320 On ch=1 n=g4 v=0
100320 On ch=1 n=d4 v=0
100320 On ch=1 n=f5 v=0
100320 On ch=1 n=g5 v=0
100320 On ch=1 n=g4 v=33
100320 On ch=1 n=d4 v=33
100320 On ch=1 n=g5 v=39
100320 On ch=1 n=f5 v=33
100423 Par ch=1 c=64 v=0
100560 On ch=1 n=f5 v=0
100560 On ch=1 n=g4 v=0
100560 On ch=1 n=d4 v=0
100560 On ch=1 n=g5 v=0
100893 Par ch=1 c=64 v=127
101040 On ch=1 n=c4 v=36
101040 On ch=1 n=d#5 v=45
101040 On ch=1 n=c5 v=36
101280 On ch=1 n=c5 v=0
101280 On ch=1 n=d#5 v=0
101280 On ch=1 n=c4 v=0
101280 On ch=1 n=c4 v=36
101280 On ch=1 n=d#5 v=45
101280 On ch=1 n=c5 v=36
101440 Par ch=1 c=64 v=0
101520 On ch=1 n=c5 v=0
101520 On ch=1 n=d#5 v=0
101520 On ch=1 n=c4 v=0
101520 On ch=1 n=c5 v=36
101520 On ch=1 n=c4 v=36
101520 On ch=1 n=d#5 v=45
101533 Par ch=1 c=64 v=127
101760 On ch=1 n=d#5 v=0
101760 On ch=1 n=c4 v=0
101760 On ch=1 n=c5 v=0
101760 On ch=1 n=c5 v=36
101760 On ch=1 n=d#5 v=45
101760 On ch=1 n=c4 v=36
101880 Par ch=1 c=64 v=0
101990 On ch=1 n=c4 v=0
101990 On ch=1 n=d#5 v=0
101990 On ch=1 n=c5 v=0
102331 Par ch=1 c=64 v=127
102480 On ch=1 n=a#4 v=50
102480 On ch=1 n=e5 v=50
102480 On ch=1 n=g4 v=40
102720 On ch=1 n=g4 v=0
102720 On ch=1 n=e5 v=0
102720 On ch=1 n=a#4 v=0
102720 On ch=1 n=a#4 v=41
102720 On ch=1 n=g4 v=35
102720 On ch=1 n=e5 v=41
102894 Par ch=1 c=64 v=0
102960 On ch=1 n=e5 v=0
102960 On ch=1 n=g4 v=0
102960 On ch=1 n=a#4 v=0
102960 On ch=1 n=g4 v=38
102960 On ch=1 n=e5 v=46
102960 On ch=1 n=a#4 v=46
103010 Par ch=1 c=64 v=127
103200 On ch=1 n=a#4 v=0
103200 On ch=1 n=e5 v=0
103200 On ch=1 n=g4 v=0
103200 On ch=1 n=a#4 v=46
103200 On ch=1 n=g4 v=38
103200 On ch=1 n=e5 v=46
103349 Par ch=1 c=64 v=0
103440 On ch=1 n=e5 v=0
103440 On ch=1 n=g4 v=0
103440 On ch=1 n=a#4 v=0
103867 Par ch=1 c=64 v=127
103920 On ch=1 n=f5 v=40
103920 On ch=1 n=f4 v=34
103920 On ch=1 n=a#4 v=34
104160 On ch=1 n=a#4 v=0
104160 On ch=1 n=f4 v=0
104160 On ch=1 n=f5 v=0
104160 On ch=1 n=f4 v=34
104160 On ch=1 n=a#4 v=34
104160 On ch=1 n=f5 v=40
104347 Par ch=1 c=64 v=0
104400 On ch=1 n=f5 v=0
104400 On ch=1 n=a#4 v=0
104400 On ch=1 n=f4 v=0
104400 On ch=1 n=f5 v=40
104400 On ch=1 n=f4 v=34
104400 On ch=1 n=a#4 v=34
104480 Par ch=1 c=64 v=127
104640 On ch=1 n=a#4 v=0
104640 On ch=1 n=f4 v=0
104640 On ch=1 n=f5 v=0
104640 On ch=1 n=f4 v=34
104640 On ch=1 n=a#4 v=34
104640 On ch=1 n=f5 v=40
104787 Par ch=1 c=64 v=0
104880 On ch=1 n=f5 v=0
104880 On ch=1 n=a#4 v=0
104880 On ch=1 n=f4 v=0
105269 Par ch=1 c=64 v=127
105360 On ch=1 n=c4 v=36
105360 On ch=1 n=d#4 v=36
105600 On ch=1 n=d#4 v=0
105600 On ch=1 n=c4 v=0
105600 On ch=1 n=c4 v=30
105600 On ch=1 n=d#4 v=36
105840 On ch=1 n=d#4 v=0
105840 On ch=1 n=c4 v=0
105840 Par ch=1 c=64 v=0
105898 Par ch=1 c=64 v=127
106080 On ch=1 n=d#4 v=36
106080 On ch=1 n=f3 v=30
106080 On ch=1 n=a4 v=36
106080 On ch=1 n=f4 v=36
106196 Par ch=1 c=64 v=0
106320 On ch=1 n=f4 v=0
106320 On ch=1 n=d#4 v=0
106320 On ch=1 n=f3 v=0
106320 On ch=1 n=a4 v=0
106320 On ch=1 n=d#4 v=36
106320 On ch=1 n=f3 v=30
106320 On ch=1 n=a4 v=36
106320 On ch=1 n=f4 v=36
106560 On ch=1 n=f4 v=0
106560 On ch=1 n=d#4 v=0
106560 On ch=1 n=f3 v=0
106560 On ch=1 n=a4 v=0
106733 Par ch=1 c=64 v=127
106800 On ch=1 n=a4 v=36
106800 On ch=1 n=f#4 v=36
106800 On ch=1 n=a#3 v=33
106800 On ch=1 n=d#4 v=36
107040 On ch=1 n=d#4 v=0
107040 On ch=1 n=a4 v=0
107040 On ch=1 n=f#4 v=0
107040 On ch=1 n=a#3 v=0
107040 On ch=1 n=a4 v=32
107040 On ch=1 n=d#4 v=32
107040 On ch=1 n=a#3 v=29
107040 On ch=1 n=f#4 v=32
107227 Par ch=1 c=64 v=0
107280 On ch=1 n=f#4 v=0
107280 On ch=1 n=a4 v=0
107280 On ch=1 n=d#4 v=0
107280 On ch=1 n=a#3 v=0
107280 On ch=1 n=d#4 v=32
107280 On ch=1 n=a#3 v=29
107280 On ch=1 n=f4 v=29
107333 Par ch=1 c=64 v=127
107520 On ch=1 n=d#4 v=0
107520 On ch=1 n=c#4 v=32
107693 Par ch=1 c=64 v=0
107760 On ch=1 n=c#4 v=0
107760 On ch=1 n=f4 v=0
107760 On ch=1 n=a#3 v=0
107760 On ch=1 n=d4 v=32
108000 On ch=1 n=d4 v=0
108038 Par ch=1 c=64 v=127
108240 On ch=1 n=d#5 v=30
108240 On ch=1 n=f#4 v=27
108240 On ch=1 n=c5 v=27
108420 On ch=1 n=c5 v=0
108420 On ch=1 n=f#4 v=0
108420 On ch=1 n=d#5 v=0
108480 On ch=1 n=c5 v=24
108480 On ch=1 n=f#4 v=24
108480 On ch=1 n=d#5 v=27
108660 On ch=1 n=d#5 v=0
108660 On ch=1 n=f#4 v=0
108660 On ch=1 n=c5 v=0
108674 Par ch=1 c=64 v=0
108720 On ch=1 n=f#4 v=27
108720 On ch=1 n=c5 v=27
108720 On ch=1 n=d5 v=31
108771 Par ch=1 c=64 v=127
108900 On ch=1 n=d5 v=0
108900 On ch=1 n=c5 v=0
108900 On ch=1 n=f#4 v=0
108960 On ch=1 n=d5 v=28
108960 On ch=1 n=c5 v=25
108960 On ch=1 n=f#4 v=25
109140 On ch=1 n=f#4 v=0
109140 On ch=1 n=c5 v=0
109140 On ch=1 n=d5 v=0
109440 Par ch=1 c=64 v=0
109546 Par ch=1 c=64 v=127
109680 On ch=1 n=g4 v=27
109680 On ch=1 n=a#4 v=27
109680 On ch=1 n=d5 v=30
109860 On ch=1 n=d5 v=0
109860 On ch=1 n=a#4 v=0
109860 On ch=1 n=g4 v=0
109920 On ch=1 n=g4 v=24
109920 On ch=1 n=d5 v=27
109920 On ch=1 n=a#4 v=24
110100 On ch=1 n=a#4 v=0
110100 On ch=1 n=d5 v=0
110100 On ch=1 n=g4 v=0
110178 Par ch=1 c=64 v=0
110248 Par ch=1 c=64 v=127
110400 On ch=1 n=g4 v=27
110400 On ch=1 n=d#5 v=31
110400 On ch=1 n=a#4 v=27
110580 On ch=1 n=a#4 v=0
110580 On ch=1 n=d#5 v=0
110580 On ch=1 n=g4 v=0
110640 On ch=1 n=a#4 v=25
110640 On ch=1 n=d#5 v=28
110640 On ch=1 n=g4 v=25
110820 On ch=1 n=g4 v=0
110820 On ch=1 n=d#5 v=0
110820 On ch=1 n=a#4 v=0
110880 Par ch=1 c=64 v=0
110989 Par ch=1 c=64 v=127
111120 On ch=1 n=e5 v=30
111120 On ch=1 n=a#4 v=27
111120 On ch=1 n=f#4 v=27
111300 On ch=1 n=f#4 v=0
111300 On ch=1 n=a#4 v=0
111300 On ch=1 n=e5 v=0
111360 On ch=1 n=a#4 v=24
111360 On ch=1 n=f#4 v=24
111360 On ch=1 n=e5 v=27
111540 On ch=1 n=e5 v=0
111540 On ch=1 n=f#4 v=0
111540 On ch=1 n=a#4 v=0
111614 Par ch=1 c=64 v=0
111651 Par ch=1 c=64 v=127
111840 On ch=1 n=a#4 v=27
111840 On ch=1 n=f4 v=27
111840 On ch=1 n=f5 v=31
112020 On ch=1 n=f5 v=0
112020 On ch=1 n=f4 v=0
112020 On ch=1 n=a#4 v=0
112080 On ch=1 n=a#4 v=25
112080 On ch=1 n=f4 v=25
112080 On ch=1 n=f5 v=28
112109 Par ch=1 c=64 v=0
112260 On ch=1 n=f5 v=0
112260 On ch=1 n=f4 v=0
112260 On ch=1 n=a#4 v=0
112469 Par ch=1 c=64 v=127
112800 On ch=1 n=f#4 v=27
112800 On ch=1 n=d#4 v=27
113002 Par ch=1 c=64 v=0
113040 On ch=1 n=d#4 v=0
113040 On ch=1 n=f#4 v=0
113091 Par ch=1 c=64 v=127
113520 On ch=1 n=d4 v=20
113520 On ch=1 n=f4 v=26
113520 On ch=1 n=a#3 v=20
113549 Par ch=1 c=64 v=0
113760 On ch=1 n=a#3 v=0
113760 On ch=1 n=f4 v=0
113760 On ch=1 n=d4 v=0
113841 Par ch=1 c=64 v=127
114000 On ch=1 n=d#6 v=27
114000 On ch=1 n=c6 v=24
114000 On ch=1 n=f#5 v=24
114180 On ch=1 n=f#5 v=0
114180 On ch=1 n=c6 v=0
114180 On ch=1 n=d#6 v=0
114240 On ch=1 n=c6 v=21
114240 On ch=1 n=f#5 v=21
114240 On ch=1 n=d#6 v=24
114420 On ch=1 n=d#6 v=0
114420 On ch=1 n=f#5 v=0
114420 On ch=1 n=c6 v=0
114442 Par ch=1 c=64 v=0
114531 Par ch=1 c=64 v=127
114720 On ch=1 n=f#5 v=24
114720 On ch=1 n=d6 v=27
114720 On ch=1 n=c6 v=24
114900 On ch=1 n=c6 v=0
114900 On ch=1 n=d6 v=0
114900 On ch=1 n=f#5 v=0
114960 On ch=1 n=c6 v=22
114960 On ch=1 n=d6 v=25
114960 On ch=1 n=f#5 v=22
114989 Par ch=1 c=64 v=0
115140 On ch=1 n=f#5 v=0
115140 On ch=1 n=d6 v=0
115140 On ch=1 n=c6 v=0
115238 Par ch=1 c=64 v=127
115440 On ch=1 n=d6 v=27
115440 On ch=1 n=a#5 v=24
115440 On ch=1 n=g5 v=24
115620 On ch=1 n=g5 v=0
115620 On ch=1 n=a#5 v=0
115620 On ch=1 n=d6 v=0
115680 On ch=1 n=a#5 v=21
115680 On ch=1 n=g5 v=21
115680 On ch=1 n=d6 v=24
115860 On ch=1 n=d6 v=0
115860 On ch=1 n=g5 v=0
115860 On ch=1 n=a#5 v=0
115913 Par ch=1 c=64 v=0
115971 Par ch=1 c=64 v=127
116160 On ch=1 n=a#5 v=24
116160 On ch=1 n=g5 v=24
116160 On ch=1 n=d#6 v=27
116340 On ch=1 n=d#6 v=0
116340 On ch=1 n=g5 v=0
116340 On ch=1 n=a#5 v=0
116400 On ch=1 n=a#5 v=22
116400 On ch=1 n=g5 v=22
116400 On ch=1 n=d#6 v=25
116429 Par ch=1 c=64 v=0
116580 On ch=1 n=d#6 v=0
116580 On ch=1 n=g5 v=0
116580 On ch=1 n=a#5 v=0
116678 Par ch=1 c=64 v=127
116880 On ch=1 n=e6 v=27
116880 On ch=1 n=f#5 v=24
116880 On ch=1 n=a#5 v=24
117060 On ch=1 n=a#5 v=0
117060 On ch=1 n=f#5 v=0
117060 On ch=1 n=e6 v=0
117120 On ch=1 n=f#5 v=21
117120 On ch=1 n=e6 v=24
117120 On ch=1 n=a#5 v=21
117300 On ch=1 n=a#5 v=0
117300 On ch=1 n=e6 v=0
117300 On ch=1 n=f#5 v=0
117322 Par ch=1 c=64 v=0
117411 Par ch=1 c=64 v=127
117600 On ch=1 n=f5 v=24
117600 On ch=1 n=f6 v=27
117600 On ch=1 n=a#5 v=24
117780 On ch=1 n=a#5 v=0
117780 On ch=1 n=f6 v=0
117780 On ch=1 n=f5 v=0
117840 On ch=1 n=f5 v=22
117840 On ch=1 n=f6 v=25
117840 On ch=1 n=a#5 v=22
118013 Par ch=1 c=64 v=0
118020 On ch=1 n=a#5 v=0
118020 On ch=1 n=f6 v=0
118020 On ch=1 n=f5 v=0
118118 Par ch=1 c=64 v=127
118560 On ch=1 n=d#5 v=24
118560 On ch=1 n=f#5 v=24
118762 Par ch=1 c=64 v=0
118800 On ch=1 n=f#5 v=0
118800 On ch=1 n=d#5 v=0
118851 Par ch=1 c=64 v=127
119280 On ch=1 n=d5 v=18
119280 On ch=1 n=a#4 v=18
119280 On ch=1 n=f5 v=23
119520 On ch=1 n=f5 v=0
119520 On ch=1 n=a#4 v=0
119520 On ch=1 n=d5 v=0
119520 Par ch=1 c=64 v=0
119657 Par ch=1 c=64 v=127
120000 On ch=1 n=f#5 v=24
120000 On ch=1 n=d#5 v=24
120202 Par ch=1 c=64 v=0
120240 On ch=1 n=d#5 v=0
120240 On ch=1 n=f#5 v=0
120291 Par ch=1 c=64 v=127
120720 On ch=1 n=d5 v=18
120720 On ch=1 n=f5 v=23
120720 On ch=1 n=a#4 v=18
120960 On ch=1 n=a#4 v=0
120960 On ch=1 n=f5 v=0
120960 On ch=1 n=d5 v=0
120960 Par ch=1 c=64 v=0
121086 Par ch=1 c=64 v=127
121440 On ch=1 n=f#5 v=24
121440 On ch=1 n=d#5 v=24
121642 Par ch=1 c=64 v=0
121680 On ch=1 n=d#5 v=0
121680 On ch=1 n=f#5 v=0
121731 Par ch=1 c=64 v=127
122160 On ch=1 n=a#4 v=18
122160 On ch=1 n=f5 v=23
122160 On ch=1 n=d5 v=18
122400 On ch=1 n=d5 v=0
122400 On ch=1 n=f5 v=0
122400 On ch=1 n=a#4 v=0
122400 Par ch=1 c=64 v=0
122480 Par ch=1 c=64 v=127
123071 Par ch=1 c=64 v=0
123120 On ch=1 n=f#5 v=24
123120 On ch=1 n=d#5 v=24
123160 Par ch=1 c=64 v=127
123840 On ch=1 n=d#5 v=0
123840 On ch=1 n=f#5 v=0
123840 Par ch=1 c=64 v=0
123987 Par ch=1 c=64 v=127
124480 Par ch=1 c=64 v=0
124560 On ch=1 n=f4 v=22
124560 On ch=1 n=a#3 v=18
124640 Par ch=1 c=64 v=127
125000 Par ch=1 c=64 v=0
125280 On ch=1 n=a#3 v=0
125280 On ch=1 n=f4 v=0
125280 Meta TrkEnd
TrkEnd
MTrk
0 Meta 0x21 00
0 Meta TrkName "Tschaikowsky: The Seasons: April"
0 Meta TrkEnd
TrkEnd
MTrk
0 Meta 0x21 00
0 Meta TrkName "Copyright \xffffffa9 2000 by Bernd Kr\xfffffffcger"
0 Meta TrkEnd
TrkEnd
MTrk
0 Meta 0x21 00
0 Meta TrkName "email: bernd.krueger@piano-midi.de"
0 Meta TrkEnd
TrkEnd
MTrk
0 Meta 0x21 00
0 Meta TrkName "http://www.piano-midi.de"
0 Meta TrkEnd
TrkEnd
MTrk
0 Meta 0x21 00
0 Meta TrkName "Edition: 21.8.00"
0 Meta TrkEnd
TrkEnd
MTrk
0 Meta 0x21 00
0 Meta TrkEnd
TrkEnd
