MFile 1 9 480
MTrk
0 Meta SeqName "Die Jahreszeiten"
0 Meta SeqName "Juli"
0 Meta Copyright "Copyright \xffffffa9 2000 by Bernd Krueger"
0 Meta Text "Peter Tschaikowsky"
0 Meta Text "Allegro moderato con moto"
0 Meta Text "Fertiggestellt am 22.10.2000\n"
0 Meta Text "Normierung: 23.12.2002\n"
0 Meta Text "Dauer: 1:54 Minuten\n"
0 SMPTE 96 0 3 0 0
0 TimeSig 4/4 24 8
0 KeySig -3 major
0 Tempo 506971
40 Tempo 504371
720 Tempo 494153
960 Tempo 504371
1440 Tempo 494153
1680 Tempo 515066
1920 Tempo 506971
2880 Tempo 483871
3120 Tempo 491521
3360 Tempo 483871
3600 Tempo 499168
3840 Tempo 504371
6480 Tempo 496648
6720 Tempo 504371
7200 Tempo 491602
7440 Tempo 509641
7680 Tempo 504371
8640 Tempo 487805
8880 Tempo 499917
9120 Tempo 493583
9360 Tempo 515066
9600 Tempo 504371
10560 Tempo 495663
10800 Tempo 502050
11040 Tempo 497760
11280 Tempo 504202
11520 Tempo 504371
12480 Tempo 497760
12720 Tempo 504202
12960 Tempo 497760
13200 Tempo 522102
13440 Tempo 506971
13480 Tempo 504371
14160 Tempo 494153
14400 Tempo 504371
14880 Tempo 494153
15120 Tempo 515066
15360 Tempo 506971
16320 Tempo 483871
16560 Tempo 491521
16800 Tempo 483871
17040 Tempo 499168
17280 Tempo 504371
19920 Tempo 496648
20160 Tempo 504371
20640 Tempo 491602
20880 Tempo 509641
21120 Tempo 504371
22080 Tempo 493583
22320 Tempo 499917
22560 Tempo 493583
22800 Tempo 515066
23040 Tempo 504371
24000 Tempo 495663
24240 Tempo 502050
24480 Tempo 497760
24720 Tempo 504202
24960 Tempo 510769
25920 Tempo 487013
26160 Tempo 480769
26400 Tempo 470588
27120 Tempo 454545
27360 Tempo 458015
27600 Tempo 462000
27840 Tempo 454545
28080 Tempo 449438
28320 Tempo 452830
28560 Tempo 455858
28800 Tempo 460087
29040 Tempo 452830
29280 Tempo 447761
29520 Tempo 458120
30240 Tempo 452250
30720 Tempo 459524
30960 Tempo 446961
31200 Tempo 452455
31440 Tempo 462000
31680 Tempo 452455
31920 Tempo 452455
32160 Tempo 450586
32400 Tempo 455858
32640 Tempo 462000
32880 Tempo 448699
33120 Tempo 452455
33360 Tempo 457666
33600 Tempo 452455
33840 Tempo 452455
34080 Tempo 450586
34320 Tempo 458015
34560 Tempo 456274
34800 Tempo 447761
35040 Tempo 452455
35280 Tempo 458015
35520 Tempo 447761
35760 Tempo 447761
36000 Tempo 450586
36240 Tempo 456274
36480 Tempo 452830
36720 Tempo 449438
36960 Tempo 444444
37200 Tempo 442804
37440 Tempo 449438
37680 Tempo 447761
37920 Tempo 450586
38160 Tempo 458015
38400 Tempo 456274
38640 Tempo 446097
38880 Tempo 447761
39120 Tempo 445071
39360 Tempo 452455
39600 Tempo 452455
39840 Tempo 450586
40080 Tempo 462000
40081 Tempo 484535
40320 Tempo 472553
40560 Tempo 484535
41280 Tempo 489796
41760 Tempo 483871
42240 Tempo 474533
42480 Tempo 484535
43200 Tempo 489796
43680 Tempo 490838
44457 Tempo 501379
44584 Tempo 515021
44640 Tempo 450450
45600 Tempo 454064
46320 Tempo 467253
46560 Tempo 454064
46880 Tempo 455892
47160 Tempo 457771
47480 Tempo 459629
47760 Tempo 461538
48000 Tempo 472553
48240 Tempo 484535
48960 Tempo 489796
49440 Tempo 483871
49920 Tempo 474533
50160 Tempo 484535
50880 Tempo 489796
51360 Tempo 490838
52137 Tempo 501379
52320 Tempo 452386
52680 Tempo 450586
53040 Tempo 448799
53400 Tempo 447061
53720 Tempo 445302
53760 Tempo 447061
54000 Tempo 454201
54240 Tempo 450586
55440 Tempo 463535
55680 Tempo 472553
55920 Tempo 484535
56640 Tempo 489796
56680 Tempo 485830
57120 Tempo 483871
57600 Tempo 474533
57840 Tempo 484535
58560 Tempo 485830
59040 Tempo 490838
59520 Tempo 448766
59760 Tempo 454133
60000 Tempo 452318
61200 Tempo 465333
61440 Tempo 448766
61680 Tempo 454133
61920 Tempo 452318
63120 Tempo 465333
63360 Tempo 448766
63600 Tempo 454133
63840 Tempo 452318
65040 Tempo 465333
65280 Tempo 448766
65520 Tempo 454133
65760 Tempo 452318
66960 Tempo 465333
67200 Tempo 480000
68160 Tempo 478088
68280 Tempo 480000
68400 Tempo 481928
68520 Tempo 483871
68600 Tempo 485830
68720 Tempo 487805
68840 Tempo 489796
68960 Tempo 491803
69040 Tempo 493827
69120 Tempo 506971
69160 Tempo 504371
69840 Tempo 494153
70080 Tempo 504371
70560 Tempo 494153
70800 Tempo 515066
71040 Tempo 506971
72000 Tempo 483871
72240 Tempo 491521
72480 Tempo 483871
72720 Tempo 499168
72960 Tempo 504371
73920 Tempo 495868
74080 Tempo 493827
74240 Tempo 491803
74400 Tempo 489796
74520 Tempo 487805
74640 Tempo 504202
74880 Tempo 504202
75600 Tempo 496648
75840 Tempo 504371
76320 Tempo 491602
76560 Tempo 509641
76800 Tempo 504371
77760 Tempo 487805
78000 Tempo 499917
78240 Tempo 493583
78480 Tempo 515066
78720 Tempo 504371
79680 Tempo 495663
79920 Tempo 502050
80160 Tempo 497760
80400 Tempo 504202
80640 Tempo 510638
81120 Tempo 502092
81600 Tempo 495868
81800 Tempo 493827
81960 Tempo 491803
82120 Tempo 489796
82280 Tempo 487805
82320 Tempo 515021
82560 Tempo 506971
82600 Tempo 504371
83280 Tempo 494153
83520 Tempo 504371
84000 Tempo 494153
84240 Tempo 515066
84480 Tempo 506971
85440 Tempo 483871
85680 Tempo 491521
85920 Tempo 483871
86160 Tempo 499168
86400 Tempo 504371
87360 Tempo 495868
87520 Tempo 493827
87680 Tempo 491803
87840 Tempo 489796
87960 Tempo 487805
88080 Tempo 504202
88320 Tempo 495868
88560 Tempo 502092
89040 Tempo 496648
89280 Tempo 504371
89760 Tempo 491602
90000 Tempo 509641
90240 Tempo 495868
90480 Tempo 502092
90520 Tempo 502092
91200 Tempo 487805
91440 Tempo 499917
91680 Tempo 493583
91920 Tempo 515066
92160 Tempo 497925
92400 Tempo 502092
93120 Tempo 495663
93360 Tempo 502050
93600 Tempo 497760
93840 Tempo 504202
94080 Tempo 495868
94320 Tempo 502092
95040 Tempo 495663
95280 Tempo 502050
95520 Tempo 497760
95760 Tempo 504202
96000 Tempo 493827
96480 Tempo 500000
96720 Tempo 504202
97920 Tempo 495868
98400 Tempo 502092
98640 Tempo 504202
99600 Tempo 504202
99840 Tempo 495868
100080 Tempo 502092
100320 Tempo 495868
100560 Tempo 502092
100800 Tempo 495663
101040 Tempo 502050
101280 Tempo 497760
101520 Tempo 504202
101760 Tempo 495868
102000 Tempo 504202
102240 Tempo 495868
102480 Tempo 504202
102720 Tempo 495663
102960 Tempo 502050
103200 Tempo 497760
103440 Tempo 504202
103680 Tempo 504371
103920 Tempo 510638
104160 Tempo 502092
104400 Tempo 510638
104640 Tempo 510638
104880 Tempo 521739
105120 Tempo 510638
105360 Tempo 519481
105600 Tempo 1071429
106080 Tempo 1000000
107520 Tempo 500000
107520 Meta TrkEnd
TrkEnd
MTrk
0 Meta 0x21 00
0 Meta TrkName "Piano right"
0 PrCh ch=1 p=0
0 Par ch=1 c=7 v=100
0 On ch=1 n=g5 v=72
0 On ch=1 n=d#6 v=88
0 Par ch=1 c=91 v=127
0 Meta Text "bdca426d104a26ac9dcb070447587523"
720 On ch=1 n=d#6 v=0
720 On ch=1 n=g5 v=0
720 On ch=1 n=g5 v=73
960 On ch=1 n=g5 v=0
960 On ch=1 n=a#5 v=84
960 On ch=1 n=g5 v=70
960 On ch=1 n=d#5 v=70
1440 On ch=1 n=d#5 v=0
1440 On ch=1 n=g5 v=0
1440 On ch=1 n=a#5 v=0
1440 On ch=1 n=c6 v=78
1440 On ch=1 n=g5 v=64
1440 On ch=1 n=d#5 v=64
1680 On ch=1 n=g5 v=0
1680 On ch=1 n=c6 v=0
1680 On ch=1 n=g5 v=73
1920 On ch=1 n=g5 v=0
1920 On ch=1 n=d#5 v=0
1920 On ch=1 n=a#5 v=80
1920 On ch=1 n=d#5 v=67
1920 On ch=1 n=g5 v=67
2880 On ch=1 n=g5 v=0
2880 On ch=1 n=d#5 v=0
2880 On ch=1 n=a#5 v=0
2880 On ch=1 n=d#5 v=62
2880 On ch=1 n=g5 v=66
2880 On ch=1 n=a#5 v=81
3120 On ch=1 n=a#5 v=0
3120 On ch=1 n=c6 v=70
3360 On ch=1 n=c6 v=0
3360 On ch=1 n=g5 v=0
3360 On ch=1 n=d#5 v=0
3360 On ch=1 n=d#5 v=68
3360 On ch=1 n=g5 v=81
3600 On ch=1 n=g5 v=0
3600 On ch=1 n=c6 v=68
3840 On ch=1 n=c6 v=0
3840 On ch=1 n=d#5 v=0
3840 On ch=1 n=a#5 v=80
3840 On ch=1 n=g5 v=67
3840 On ch=1 n=d#5 v=67
4800 On ch=1 n=d#5 v=0
4800 On ch=1 n=g5 v=0
4800 On ch=1 n=a#5 v=0
4800 On ch=1 n=d#5 v=68
4800 On ch=1 n=g5 v=68
4800 On ch=1 n=a#5 v=81
5760 On ch=1 n=a#5 v=0
5760 On ch=1 n=g5 v=0
5760 On ch=1 n=d#5 v=0
5760 On ch=1 n=f6 v=84
5760 On ch=1 n=f5 v=70
5760 On ch=1 n=a#5 v=70
6480 On ch=1 n=f5 v=0
6480 On ch=1 n=f6 v=0
6480 On ch=1 n=g6 v=77
6480 On ch=1 n=g5 v=64
6720 On ch=1 n=g5 v=0
6720 On ch=1 n=g6 v=0
6720 On ch=1 n=f5 v=70
6720 On ch=1 n=f6 v=84
7200 On ch=1 n=f6 v=0
7200 On ch=1 n=f5 v=0
7200 On ch=1 n=a#5 v=0
7200 On ch=1 n=g#5 v=68
7200 On ch=1 n=c5 v=68
7200 On ch=1 n=c6 v=81
7440 On ch=1 n=c6 v=0
7440 On ch=1 n=c5 v=0
7440 On ch=1 n=d5 v=66
7440 On ch=1 n=d6 v=78
7680 On ch=1 n=d6 v=0
7680 On ch=1 n=d5 v=0
7680 On ch=1 n=g#5 v=0
7680 On ch=1 n=d#6 v=84
7680 On ch=1 n=d#5 v=70
7680 On ch=1 n=g5 v=70
8640 On ch=1 n=g5 v=0
8640 On ch=1 n=d#5 v=0
8640 On ch=1 n=d#6 v=0
8640 On ch=1 n=d#5 v=67
8640 On ch=1 n=g5 v=67
8640 On ch=1 n=d#6 v=80
8880 On ch=1 n=d#6 v=0
8880 On ch=1 n=d#5 v=0
8880 On ch=1 n=d5 v=58
8880 On ch=1 n=d6 v=69
9120 On ch=1 n=d6 v=0
9120 On ch=1 n=d5 v=0
9120 On ch=1 n=g5 v=0
9120 On ch=1 n=c6 v=75
9120 On ch=1 n=c5 v=63
9120 On ch=1 n=g#5 v=63
9360 On ch=1 n=c5 v=0
9360 On ch=1 n=c6 v=0
9360 On ch=1 n=d6 v=64
9360 On ch=1 n=d5 v=53
9600 On ch=1 n=d5 v=0
9600 On ch=1 n=d6 v=0
9600 On ch=1 n=g#5 v=0
9600 On ch=1 n=g5 v=65
9600 On ch=1 n=d#5 v=65
9600 On ch=1 n=a#4 v=65
9600 On ch=1 n=a#5 v=77
10560 On ch=1 n=a#4 v=0
10560 On ch=1 n=a#4 v=72
11040 On ch=1 n=g5 v=0
11040 On ch=1 n=a#5 v=0
11040 On ch=1 n=d#5 v=0
11040 On ch=1 n=a#5 v=71
11040 On ch=1 n=g#5 v=59
11040 On ch=1 n=f5 v=59
11520 On ch=1 n=f5 v=0
11520 On ch=1 n=a#4 v=0
11520 On ch=1 n=a#5 v=0
11520 On ch=1 n=g#5 v=0
11520 On ch=1 n=g5 v=62
11520 On ch=1 n=a#5 v=73
11520 On ch=1 n=a#4 v=60
11520 On ch=1 n=d#5 v=60
12480 On ch=1 n=a#4 v=0
12480 On ch=1 n=a#4 v=72
12960 On ch=1 n=g5 v=0
12960 On ch=1 n=d#5 v=0
12960 On ch=1 n=a#5 v=0
12960 On ch=1 n=f5 v=59
12960 On ch=1 n=g#5 v=59
12960 On ch=1 n=a#5 v=71
13440 On ch=1 n=a#5 v=0
13440 On ch=1 n=a#4 v=0
13440 On ch=1 n=f5 v=0
13440 On ch=1 n=g#5 v=0
13440 On ch=1 n=g5 v=73
13440 On ch=1 n=d#6 v=88
14160 On ch=1 n=d#6 v=0
14160 On ch=1 n=g5 v=0
14160 On ch=1 n=g5 v=73
14400 On ch=1 n=g5 v=0
14400 On ch=1 n=a#5 v=84
14400 On ch=1 n=g5 v=70
14400 On ch=1 n=d#5 v=70
14880 On ch=1 n=d#5 v=0
14880 On ch=1 n=g5 v=0
14880 On ch=1 n=a#5 v=0
14880 On ch=1 n=c6 v=78
14880 On ch=1 n=g5 v=64
14880 On ch=1 n=d#5 v=64
15120 On ch=1 n=g5 v=0
15120 On ch=1 n=c6 v=0
15120 On ch=1 n=g5 v=73
15360 On ch=1 n=g5 v=0
15360 On ch=1 n=d#5 v=0
15360 On ch=1 n=a#5 v=80
15360 On ch=1 n=g5 v=67
15360 On ch=1 n=d#5 v=67
16320 On ch=1 n=d#5 v=0
16320 On ch=1 n=g5 v=0
16320 On ch=1 n=a#5 v=0
16320 On ch=1 n=g5 v=66
16320 On ch=1 n=d#5 v=62
16320 On ch=1 n=a#5 v=81
16560 On ch=1 n=a#5 v=0
16560 On ch=1 n=c6 v=70
16800 On ch=1 n=c6 v=0
16800 On ch=1 n=d#5 v=0
16800 On ch=1 n=g5 v=0
16800 On ch=1 n=d#5 v=68
16800 On ch=1 n=g5 v=81
17040 On ch=1 n=g5 v=0
17040 On ch=1 n=c6 v=68
17280 On ch=1 n=c6 v=0
17280 On ch=1 n=d#5 v=0
17280 On ch=1 n=d#5 v=67
17280 On ch=1 n=a#5 v=80
17280 On ch=1 n=g5 v=67
18240 On ch=1 n=g5 v=0
18240 On ch=1 n=a#5 v=0
18240 On ch=1 n=d#5 v=0
18240 On ch=1 n=a#5 v=81
18240 On ch=1 n=g5 v=68
18240 On ch=1 n=d#5 v=68
19200 On ch=1 n=d#5 v=0
19200 On ch=1 n=g5 v=0
19200 On ch=1 n=a#5 v=0
19200 On ch=1 n=f6 v=84
19200 On ch=1 n=f5 v=70
19200 On ch=1 n=a#5 v=70
19920 On ch=1 n=f5 v=0
19920 On ch=1 n=f6 v=0
19920 On ch=1 n=g5 v=64
19920 On ch=1 n=g6 v=77
20160 On ch=1 n=g6 v=0
20160 On ch=1 n=g5 v=0
20160 On ch=1 n=f5 v=70
20160 On ch=1 n=f6 v=84
20640 On ch=1 n=f6 v=0
20640 On ch=1 n=f5 v=0
20640 On ch=1 n=a#5 v=0
20640 On ch=1 n=c6 v=81
20640 On ch=1 n=c5 v=68
20640 On ch=1 n=g#5 v=68
20880 On ch=1 n=c5 v=0
20880 On ch=1 n=c6 v=0
20880 On ch=1 n=d5 v=66
20880 On ch=1 n=d6 v=78
21120 On ch=1 n=d6 v=0
21120 On ch=1 n=d5 v=0
21120 On ch=1 n=g#5 v=0
21120 On ch=1 n=g5 v=70
21120 On ch=1 n=d#5 v=70
21120 On ch=1 n=d#6 v=84
22080 On ch=1 n=d#6 v=0
22080 On ch=1 n=d#5 v=0
22080 On ch=1 n=g5 v=0
22080 On ch=1 n=d#5 v=67
22080 On ch=1 n=g5 v=67
22080 On ch=1 n=d#6 v=80
22320 On ch=1 n=d#6 v=0
22320 On ch=1 n=d#5 v=0
22320 On ch=1 n=d5 v=58
22320 On ch=1 n=d6 v=69
22560 On ch=1 n=d6 v=0
22560 On ch=1 n=d5 v=0
22560 On ch=1 n=g5 v=0
22560 On ch=1 n=c6 v=75
22560 On ch=1 n=c5 v=63
22560 On ch=1 n=g#5 v=63
22800 On ch=1 n=c5 v=0
22800 On ch=1 n=c6 v=0
22800 On ch=1 n=d6 v=64
22800 On ch=1 n=d5 v=53
23040 On ch=1 n=d5 v=0
23040 On ch=1 n=d6 v=0
23040 On ch=1 n=g#5 v=0
23040 On ch=1 n=a#5 v=73
23040 On ch=1 n=g5 v=62
23040 On ch=1 n=d#5 v=62
24000 On ch=1 n=d#5 v=0
24000 On ch=1 n=d#5 v=70
24240 On ch=1 n=d#5 v=0
24240 On ch=1 n=d5 v=66
24480 On ch=1 n=d5 v=0
24480 On ch=1 n=g5 v=0
24480 On ch=1 n=a#5 v=0
24480 On ch=1 n=f#5 v=59
24480 On ch=1 n=c6 v=71
24480 On ch=1 n=c5 v=61
24720 On ch=1 n=c5 v=0
24720 On ch=1 n=d5 v=58
24960 On ch=1 n=d5 v=0
24960 On ch=1 n=c6 v=0
24960 On ch=1 n=f#5 v=0
24960 On ch=1 n=g5 v=74
24960 On ch=1 n=c5 v=62
24960 On ch=1 n=d5 v=62
25920 On ch=1 n=c5 v=0
25920 On ch=1 n=b4 v=63
26160 On ch=1 n=b4 v=0
26160 On ch=1 n=d5 v=0
26160 On ch=1 n=g5 v=0
26400 On ch=1 n=g4 v=80
26880 On ch=1 n=g4 v=0
26880 On ch=1 n=c5 v=75
27000 On ch=1 n=c5 v=0
27360 On ch=1 n=d#5 v=66
27360 On ch=1 n=g5 v=80
27360 On ch=1 n=c5 v=61
27840 On ch=1 n=c5 v=0
27840 On ch=1 n=g5 v=0
27840 On ch=1 n=d#5 v=0
27840 On ch=1 n=d5 v=67
28080 On ch=1 n=d5 v=0
28320 On ch=1 n=f5 v=67
28320 On ch=1 n=g5 v=81
28320 On ch=1 n=d5 v=62
28800 On ch=1 n=d5 v=0
28800 On ch=1 n=g5 v=0
28800 On ch=1 n=f5 v=0
28800 On ch=1 n=d#5 v=73
29040 On ch=1 n=d#5 v=0
29280 On ch=1 n=d5 v=58
29280 On ch=1 n=f5 v=58
29280 On ch=1 n=g5 v=69
29520 On ch=1 n=d5 v=0
29520 On ch=1 n=c5 v=71
29760 On ch=1 n=c5 v=0
29760 On ch=1 n=g5 v=0
29760 On ch=1 n=f5 v=0
29760 On ch=1 n=b4 v=66
30000 On ch=1 n=b4 v=0
30240 On ch=1 n=g5 v=80
30240 On ch=1 n=g4 v=60
30240 On ch=1 n=f5 v=63
30720 On ch=1 n=f5 v=0
30720 On ch=1 n=g4 v=0
30720 On ch=1 n=g5 v=0
30720 On ch=1 n=c5 v=75
30960 On ch=1 n=c5 v=0
31200 On ch=1 n=c5 v=66
31200 On ch=1 n=g5 v=80
31200 On ch=1 n=d#5 v=66
31680 On ch=1 n=d#5 v=0
31680 On ch=1 n=g5 v=0
31680 On ch=1 n=c5 v=0
31680 On ch=1 n=a4 v=67
31920 On ch=1 n=a4 v=0
32160 On ch=1 n=a4 v=66
32160 On ch=1 n=f5 v=66
32160 On ch=1 n=g5 v=81
32400 On ch=1 n=a4 v=0
32400 On ch=1 n=b4 v=67
32640 On ch=1 n=b4 v=0
32640 On ch=1 n=g5 v=0
32640 On ch=1 n=f5 v=0
32640 On ch=1 n=c5 v=75
32880 On ch=1 n=c5 v=0
33120 On ch=1 n=d#5 v=66
33120 On ch=1 n=g5 v=80
33120 On ch=1 n=c5 v=66
33600 On ch=1 n=c5 v=0
33600 On ch=1 n=g5 v=0
33600 On ch=1 n=d#5 v=0
33600 On ch=1 n=d#6 v=71
33600 On ch=1 n=g6 v=85
33600 On ch=1 n=g5 v=71
33600 On ch=1 n=c6 v=71
33840 On ch=1 n=c6 v=0
33840 On ch=1 n=d#6 v=0
33840 On ch=1 n=g6 v=0
33840 On ch=1 n=g5 v=0
34080 On ch=1 n=g5 v=81
34080 On ch=1 n=g4 v=67
34560 On ch=1 n=g4 v=0
34560 On ch=1 n=g5 v=0
34560 On ch=1 n=c6 v=75
34560 On ch=1 n=g5 v=75
34560 On ch=1 n=d#5 v=75
34560 On ch=1 n=c5 v=75
34800 On ch=1 n=c5 v=0
34800 On ch=1 n=c6 v=0
34800 On ch=1 n=g5 v=0
34800 On ch=1 n=d#5 v=0
35040 On ch=1 n=c5 v=66
35040 On ch=1 n=c6 v=80
35520 On ch=1 n=c6 v=0
35520 On ch=1 n=c5 v=0
35520 On ch=1 n=d5 v=66
35520 On ch=1 n=d6 v=80
35520 On ch=1 n=b5 v=66
35520 On ch=1 n=g5 v=66
35760 On ch=1 n=g5 v=0
35760 On ch=1 n=d5 v=0
35760 On ch=1 n=d6 v=0
35760 On ch=1 n=b5 v=0
36000 On ch=1 n=d5 v=67
36000 On ch=1 n=d6 v=81
36480 On ch=1 n=d6 v=0
36480 On ch=1 n=d5 v=0
36480 On ch=1 n=g5 v=75
36480 On ch=1 n=d#5 v=75
36480 On ch=1 n=d#6 v=75
36480 On ch=1 n=c6 v=75
36720 On ch=1 n=c6 v=0
36720 On ch=1 n=g5 v=0
36720 On ch=1 n=d#5 v=0
36720 On ch=1 n=d#6 v=0
36960 On ch=1 n=d5 v=66
36960 On ch=1 n=d6 v=80
37200 On ch=1 n=d6 v=0
37200 On ch=1 n=d5 v=0
37200 On ch=1 n=c6 v=80
37200 On ch=1 n=c5 v=66
37440 On ch=1 n=c5 v=0
37440 On ch=1 n=c6 v=0
37440 On ch=1 n=d5 v=66
37440 On ch=1 n=g5 v=66
37440 On ch=1 n=b5 v=66
37440 On ch=1 n=d6 v=80
37680 On ch=1 n=d6 v=0
37680 On ch=1 n=d5 v=0
37680 On ch=1 n=g5 v=0
37680 On ch=1 n=b5 v=0
37920 On ch=1 n=g4 v=67
37920 On ch=1 n=g5 v=81
38400 On ch=1 n=g5 v=0
38400 On ch=1 n=g4 v=0
38400 On ch=1 n=c5 v=79
38400 On ch=1 n=c6 v=79
38640 On ch=1 n=c6 v=0
38640 On ch=1 n=c5 v=0
38880 On ch=1 n=d#6 v=74
38880 On ch=1 n=g6 v=88
38880 On ch=1 n=g5 v=74
38880 On ch=1 n=c6 v=74
39360 On ch=1 n=c6 v=0
39360 On ch=1 n=d#6 v=0
39360 On ch=1 n=g6 v=0
39360 On ch=1 n=g5 v=0
39360 On ch=1 n=d#5 v=71
39360 On ch=1 n=d#6 v=85
39600 On ch=1 n=d#6 v=0
39600 On ch=1 n=d#5 v=0
39840 On ch=1 n=d5 v=72
39840 On ch=1 n=g5 v=72
39840 On ch=1 n=b5 v=72
39840 On ch=1 n=d6 v=86
40080 On ch=1 n=d6 v=0
40080 On ch=1 n=d5 v=0
40080 On ch=1 n=g5 v=0
40080 On ch=1 n=b5 v=0
40080 On ch=1 n=d#6 v=86
40080 On ch=1 n=d#5 v=72
40320 On ch=1 n=d#5 v=0
40320 On ch=1 n=d#6 v=0
40320 On ch=1 n=c5 v=73
40320 On ch=1 n=c6 v=86
40560 On ch=1 n=c6 v=0
40560 On ch=1 n=c5 v=0
40560 On ch=1 n=d#6 v=99
40560 On ch=1 n=g6 v=99
40560 On ch=1 n=g5 v=83
40560 On ch=1 n=c6 v=83
40800 On ch=1 n=c6 v=0
40800 On ch=1 n=d#6 v=0
40800 On ch=1 n=g6 v=0
40800 On ch=1 n=g5 v=0
40800 On ch=1 n=f6 v=100
40800 On ch=1 n=g#6 v=100
40800 On ch=1 n=g#5 v=83
40800 On ch=1 n=c6 v=83
41760 On ch=1 n=c6 v=0
41760 On ch=1 n=f6 v=0
41760 On ch=1 n=g#6 v=0
41760 On ch=1 n=g#5 v=0
41760 On ch=1 n=a#5 v=81
41760 On ch=1 n=d6 v=81
41760 On ch=1 n=f6 v=96
41760 On ch=1 n=a#6 v=96
42240 On ch=1 n=a#6 v=0
42240 On ch=1 n=a#5 v=0
42240 On ch=1 n=d6 v=0
42240 On ch=1 n=f6 v=0
42240 On ch=1 n=g5 v=78
42240 On ch=1 n=a#5 v=78
42240 On ch=1 n=g6 v=92
42240 On ch=1 n=d#6 v=92
42480 On ch=1 n=d#6 v=0
42480 On ch=1 n=g5 v=0
42480 On ch=1 n=a#5 v=0
42480 On ch=1 n=g6 v=0
42480 On ch=1 n=d#6 v=92
42480 On ch=1 n=c6 v=78
42480 On ch=1 n=g5 v=78
42480 On ch=1 n=g6 v=92
42720 On ch=1 n=g6 v=0
42720 On ch=1 n=d#6 v=0
42720 On ch=1 n=c6 v=0
42720 On ch=1 n=g5 v=0
42720 On ch=1 n=f6 v=99
42720 On ch=1 n=c6 v=83
42720 On ch=1 n=g#5 v=83
42720 On ch=1 n=g#6 v=99
43680 On ch=1 n=g#6 v=0
43680 On ch=1 n=f6 v=0
43680 On ch=1 n=c6 v=0
43680 On ch=1 n=g#5 v=0
43680 On ch=1 n=f6 v=99
43680 On ch=1 n=a#6 v=99
43680 On ch=1 n=d6 v=83
43680 On ch=1 n=a#5 v=83
44160 On ch=1 n=a#5 v=0
44160 On ch=1 n=f6 v=0
44160 On ch=1 n=a#6 v=0
44160 On ch=1 n=d6 v=0
44160 On ch=1 n=g5 v=81
44160 On ch=1 n=a#5 v=81
44160 On ch=1 n=d#6 v=96
44160 On ch=1 n=g6 v=96
44400 On ch=1 n=g6 v=0
44400 On ch=1 n=g5 v=0
44400 On ch=1 n=a#5 v=0
44400 On ch=1 n=d#6 v=0
44640 On ch=1 n=d#7 v=79
44640 On ch=1 n=g6 v=79
44760 On ch=1 n=g6 v=0
44760 On ch=1 n=d#7 v=0
44760 On ch=1 n=d#6 v=70
44880 On ch=1 n=d#6 v=0
45000 On ch=1 n=d#6 v=70
45120 On ch=1 n=d#6 v=0
45120 On ch=1 n=d7 v=79
45120 On ch=1 n=g6 v=79
45240 On ch=1 n=g6 v=0
45240 On ch=1 n=d7 v=0
45240 On ch=1 n=d6 v=62
45360 On ch=1 n=d6 v=0
45480 On ch=1 n=d6 v=63
45600 On ch=1 n=d6 v=0
45600 On ch=1 n=c7 v=77
45600 On ch=1 n=f#6 v=77
45720 On ch=1 n=f#6 v=0
45720 On ch=1 n=c7 v=0
45720 On ch=1 n=c6 v=63
45840 On ch=1 n=c6 v=0
45960 On ch=1 n=c6 v=63
46080 On ch=1 n=c6 v=0
46080 On ch=1 n=d6 v=75
46080 On ch=1 n=g6 v=75
46080 On ch=1 n=b6 v=75
46200 On ch=1 n=b6 v=0
46200 On ch=1 n=g6 v=0
46200 On ch=1 n=d6 v=0
46200 On ch=1 n=b5 v=62
46320 On ch=1 n=b5 v=0
46440 On ch=1 n=b5 v=62
46560 On ch=1 n=b5 v=0
46560 On ch=1 n=g#6 v=77
46560 On ch=1 n=d6 v=77
46560 On ch=1 n=b5 v=77
46680 On ch=1 n=b5 v=0
46680 On ch=1 n=d6 v=0
46680 On ch=1 n=g#6 v=0
46680 On ch=1 n=g#5 v=60
46800 On ch=1 n=g#5 v=0
46920 On ch=1 n=g#5 v=61
47040 On ch=1 n=g#5 v=0
47040 On ch=1 n=c6 v=75
47040 On ch=1 n=g6 v=75
47160 On ch=1 n=g6 v=0
47160 On ch=1 n=c6 v=0
47160 On ch=1 n=g5 v=58
47280 On ch=1 n=g5 v=0
47400 On ch=1 n=g5 v=58
47520 On ch=1 n=g5 v=0
47520 On ch=1 n=g5 v=73
47520 On ch=1 n=b5 v=73
47520 On ch=1 n=f6 v=73
47640 On ch=1 n=f6 v=0
47640 On ch=1 n=b5 v=0
47640 On ch=1 n=g5 v=0
47640 On ch=1 n=f5 v=57
47760 On ch=1 n=f5 v=0
47880 On ch=1 n=f5 v=57
48000 On ch=1 n=f5 v=0
48000 On ch=1 n=d#5 v=73
48000 On ch=1 n=d#6 v=86
48000 On ch=1 n=g5 v=73
48000 On ch=1 n=c6 v=73
48240 On ch=1 n=c6 v=0
48240 On ch=1 n=d#5 v=0
48240 On ch=1 n=d#6 v=0
48240 On ch=1 n=g5 v=0
48240 On ch=1 n=g5 v=83
48240 On ch=1 n=c6 v=83
48240 On ch=1 n=d#6 v=99
48240 On ch=1 n=g6 v=99
48480 On ch=1 n=g6 v=0
48480 On ch=1 n=g5 v=0
48480 On ch=1 n=c6 v=0
48480 On ch=1 n=d#6 v=0
48480 On ch=1 n=g#5 v=83
48480 On ch=1 n=c6 v=83
48480 On ch=1 n=g#6 v=100
48480 On ch=1 n=f6 v=100
49440 On ch=1 n=f6 v=0
49440 On ch=1 n=g#5 v=0
49440 On ch=1 n=c6 v=0
49440 On ch=1 n=g#6 v=0
49440 On ch=1 n=f6 v=96
49440 On ch=1 n=d6 v=81
49440 On ch=1 n=a#5 v=81
49440 On ch=1 n=a#6 v=96
49920 On ch=1 n=a#6 v=0
49920 On ch=1 n=f6 v=0
49920 On ch=1 n=d6 v=0
49920 On ch=1 n=a#5 v=0
49920 On ch=1 n=d#6 v=92
49920 On ch=1 n=a#5 v=78
49920 On ch=1 n=g5 v=78
49920 On ch=1 n=g6 v=92
50160 On ch=1 n=g6 v=0
50160 On ch=1 n=d#6 v=0
50160 On ch=1 n=a#5 v=0
50160 On ch=1 n=g5 v=0
50160 On ch=1 n=d#6 v=92
50160 On ch=1 n=g6 v=92
50160 On ch=1 n=g5 v=78
50160 On ch=1 n=c6 v=78
50400 On ch=1 n=c6 v=0
50400 On ch=1 n=d#6 v=0
50400 On ch=1 n=g6 v=0
50400 On ch=1 n=g5 v=0
50400 On ch=1 n=g#5 v=83
50400 On ch=1 n=g#6 v=99
50400 On ch=1 n=f6 v=99
50400 On ch=1 n=c6 v=83
51360 On ch=1 n=c6 v=0
51360 On ch=1 n=g#5 v=0
51360 On ch=1 n=g#6 v=0
51360 On ch=1 n=f6 v=0
51360 On ch=1 n=a#5 v=83
51360 On ch=1 n=a#6 v=99
51360 On ch=1 n=d6 v=83
51360 On ch=1 n=f6 v=99
51840 On ch=1 n=f6 v=0
51840 On ch=1 n=a#5 v=0
51840 On ch=1 n=a#6 v=0
51840 On ch=1 n=d6 v=0
51840 On ch=1 n=g5 v=81
51840 On ch=1 n=a#5 v=81
51840 On ch=1 n=d#6 v=96
51840 On ch=1 n=g6 v=96
52080 On ch=1 n=g6 v=0
52080 On ch=1 n=g5 v=0
52080 On ch=1 n=a#5 v=0
52080 On ch=1 n=d#6 v=0
52320 On ch=1 n=g6 v=79
52320 On ch=1 n=d#6 v=79
52440 On ch=1 n=d#6 v=0
52440 On ch=1 n=g6 v=0
52440 On ch=1 n=g5 v=70
52560 On ch=1 n=g5 v=0
52680 On ch=1 n=g5 v=70
52800 On ch=1 n=g5 v=0
52800 On ch=1 n=g#6 v=79
52800 On ch=1 n=d#6 v=79
52920 On ch=1 n=d#6 v=0
52920 On ch=1 n=g#6 v=0
52920 On ch=1 n=g#5 v=62
53040 On ch=1 n=g#5 v=0
53160 On ch=1 n=g#5 v=63
53280 On ch=1 n=g#5 v=0
53280 On ch=1 n=a#6 v=77
53280 On ch=1 n=d#6 v=77
53400 On ch=1 n=d#6 v=0
53400 On ch=1 n=a#6 v=0
53400 On ch=1 n=a#5 v=63
53520 On ch=1 n=a#5 v=0
53640 On ch=1 n=a#5 v=63
53760 On ch=1 n=a#5 v=0
53760 On ch=1 n=c7 v=75
53760 On ch=1 n=d#6 v=75
53880 On ch=1 n=d#6 v=0
53880 On ch=1 n=c7 v=0
53880 On ch=1 n=c6 v=62
54000 On ch=1 n=c6 v=0
54120 On ch=1 n=c6 v=62
54240 On ch=1 n=c6 v=0
54240 On ch=1 n=g6 v=77
54240 On ch=1 n=b6 v=77
54360 On ch=1 n=b6 v=0
54360 On ch=1 n=g6 v=0
54360 On ch=1 n=b5 v=60
54480 On ch=1 n=b5 v=0
54600 On ch=1 n=b5 v=61
54720 On ch=1 n=b5 v=0
54720 On ch=1 n=c7 v=75
54720 On ch=1 n=g6 v=75
54840 On ch=1 n=g6 v=0
54840 On ch=1 n=c7 v=0
54840 On ch=1 n=c6 v=58
54960 On ch=1 n=c6 v=0
55080 On ch=1 n=c6 v=58
55200 On ch=1 n=c6 v=0
55200 On ch=1 n=d7 v=73
55200 On ch=1 n=g6 v=73
55320 On ch=1 n=g6 v=0
55320 On ch=1 n=d7 v=0
55320 On ch=1 n=d6 v=57
55440 On ch=1 n=d6 v=0
55560 On ch=1 n=d6 v=57
55680 On ch=1 n=d6 v=0
55680 On ch=1 n=g6 v=73
55680 On ch=1 n=d#6 v=73
55680 On ch=1 n=d#7 v=86
55920 On ch=1 n=d#7 v=0
55920 On ch=1 n=d#6 v=0
55920 On ch=1 n=g6 v=0
55920 On ch=1 n=d#6 v=83
55920 On ch=1 n=g6 v=83
55920 On ch=1 n=d#7 v=99
55920 On ch=1 n=c7 v=99
56160 On ch=1 n=c7 v=0
56160 On ch=1 n=d#6 v=0
56160 On ch=1 n=g6 v=0
56160 On ch=1 n=d#7 v=0
56160 On ch=1 n=f7 v=100
56160 On ch=1 n=c7 v=100
56160 On ch=1 n=f6 v=83
57120 On ch=1 n=f6 v=0
57120 On ch=1 n=c7 v=0
57120 On ch=1 n=f7 v=0
57120 On ch=1 n=c#7 v=96
57120 On ch=1 n=f6 v=96
57120 On ch=1 n=c#6 v=81
57600 On ch=1 n=c#6 v=0
57600 On ch=1 n=f6 v=0
57600 On ch=1 n=c#7 v=0
57600 On ch=1 n=d6 v=78
57600 On ch=1 n=d7 v=92
57600 On ch=1 n=f6 v=92
57840 On ch=1 n=f6 v=0
57840 On ch=1 n=d7 v=0
57840 On ch=1 n=d6 v=0
57840 On ch=1 n=c7 v=92
57840 On ch=1 n=d#7 v=92
57840 On ch=1 n=d#6 v=78
57840 On ch=1 n=g6 v=78
58080 On ch=1 n=g6 v=0
58080 On ch=1 n=c7 v=0
58080 On ch=1 n=d#7 v=0
58080 On ch=1 n=d#6 v=0
58080 On ch=1 n=f6 v=83
58080 On ch=1 n=c7 v=99
58080 On ch=1 n=f7 v=99
59040 On ch=1 n=f7 v=0
59040 On ch=1 n=c7 v=0
59040 On ch=1 n=f6 v=0
59040 On ch=1 n=c#6 v=83
59040 On ch=1 n=f6 v=99
59040 On ch=1 n=c#7 v=99
59520 On ch=1 n=c#7 v=0
59520 On ch=1 n=f6 v=0
59520 On ch=1 n=c#6 v=0
59520 On ch=1 n=d7 v=75
59520 On ch=1 n=a#6 v=75
59520 On ch=1 n=f6 v=75
59640 On ch=1 n=f6 v=0
59640 On ch=1 n=a#6 v=0
59640 On ch=1 n=d7 v=0
59640 On ch=1 n=d6 v=62
59760 On ch=1 n=d6 v=0
59880 On ch=1 n=d6 v=62
60000 On ch=1 n=d6 v=0
60000 On ch=1 n=f#6 v=77
60000 On ch=1 n=a6 v=77
60120 On ch=1 n=a6 v=0
60120 On ch=1 n=f#6 v=0
60120 On ch=1 n=a5 v=60
60240 On ch=1 n=a5 v=0
60360 On ch=1 n=a5 v=61
60480 On ch=1 n=a5 v=0
60480 On ch=1 n=a#6 v=75
60480 On ch=1 n=f6 v=75
60600 On ch=1 n=f6 v=0
60600 On ch=1 n=a#6 v=0
60600 On ch=1 n=a#5 v=58
60720 On ch=1 n=a#5 v=0
60840 On ch=1 n=a#5 v=58
60960 On ch=1 n=a#5 v=0
60960 On ch=1 n=f#6 v=73
60960 On ch=1 n=a5 v=73
61080 On ch=1 n=a5 v=0
61080 On ch=1 n=f#6 v=0
61080 On ch=1 n=f#5 v=57
61200 On ch=1 n=f#5 v=0
61320 On ch=1 n=f#5 v=57
61440 On ch=1 n=f#5 v=0
61440 On ch=1 n=f6 v=72
61440 On ch=1 n=a#5 v=72
61560 On ch=1 n=a#5 v=0
61560 On ch=1 n=f6 v=0
61560 On ch=1 n=f5 v=56
61680 On ch=1 n=f5 v=0
61800 On ch=1 n=f5 v=56
61920 On ch=1 n=f5 v=0
61920 On ch=1 n=f#5 v=69
61920 On ch=1 n=a5 v=69
62040 On ch=1 n=a5 v=0
62040 On ch=1 n=f#5 v=0
62040 On ch=1 n=d#5 v=57
62160 On ch=1 n=d#5 v=0
62280 On ch=1 n=d#5 v=53
62400 On ch=1 n=d#5 v=0
62400 On ch=1 n=a#5 v=68
62400 On ch=1 n=f5 v=68
62520 On ch=1 n=f5 v=0
62520 On ch=1 n=a#5 v=0
62520 On ch=1 n=d5 v=56
62640 On ch=1 n=d5 v=0
62760 On ch=1 n=d5 v=57
62880 On ch=1 n=d5 v=0
62880 On ch=1 n=d#5 v=64
62880 On ch=1 n=a4 v=64
63000 On ch=1 n=a4 v=0
63000 On ch=1 n=d#5 v=0
63000 On ch=1 n=f#4 v=56
63120 On ch=1 n=f#4 v=0
63240 On ch=1 n=f#4 v=56
63360 On ch=1 n=f#4 v=0
63360 On ch=1 n=f5 v=67
63360 On ch=1 n=a#4 v=67
63480 On ch=1 n=a#4 v=0
63480 On ch=1 n=f5 v=0
63480 On ch=1 n=f4 v=51
63600 On ch=1 n=f4 v=0
63720 On ch=1 n=f4 v=51
63840 On ch=1 n=f4 v=0
63840 On ch=1 n=f#4 v=63
63840 On ch=1 n=a4 v=63
63960 On ch=1 n=a4 v=0
63960 On ch=1 n=f#4 v=0
63960 On ch=1 n=d#4 v=52
64080 On ch=1 n=d#4 v=0
64200 On ch=1 n=d#4 v=49
64320 On ch=1 n=d#4 v=0
64320 On ch=1 n=a#4 v=62
64320 On ch=1 n=f4 v=62
64440 On ch=1 n=f4 v=0
64440 On ch=1 n=a#4 v=0
64440 On ch=1 n=d4 v=51
64560 On ch=1 n=d4 v=0
64680 On ch=1 n=d4 v=52
64800 On ch=1 n=d4 v=0
64800 On ch=1 n=a4 v=59
64800 On ch=1 n=d#4 v=59
64920 On ch=1 n=d#4 v=0
64920 On ch=1 n=a4 v=0
64920 On ch=1 n=c4 v=51
65040 On ch=1 n=c4 v=0
65160 On ch=1 n=c4 v=51
65280 On ch=1 n=c4 v=0
65280 On ch=1 n=d4 v=59
65280 On ch=1 n=a#4 v=59
65400 On ch=1 n=a#4 v=0
65400 On ch=1 n=d4 v=0
65400 On ch=1 n=a#3 v=46
65520 On ch=1 n=a#3 v=0
65640 On ch=1 n=a#3 v=46
65760 On ch=1 n=a#3 v=0
65760 On ch=1 n=d#4 v=57
65760 On ch=1 n=a4 v=57
65880 On ch=1 n=a4 v=0
65880 On ch=1 n=d#4 v=0
65880 On ch=1 n=c4 v=47
66000 On ch=1 n=c4 v=0
66120 On ch=1 n=c4 v=44
66240 On ch=1 n=c4 v=0
66240 On ch=1 n=d4 v=56
66240 On ch=1 n=a#4 v=56
66360 On ch=1 n=a#4 v=0
66360 On ch=1 n=d4 v=0
66360 On ch=1 n=a#3 v=46
66480 On ch=1 n=a#3 v=0
66600 On ch=1 n=a#3 v=47
66720 On ch=1 n=a#3 v=0
66720 On ch=1 n=a4 v=52
66720 On ch=1 n=d#4 v=52
66840 On ch=1 n=d#4 v=0
66840 On ch=1 n=a4 v=0
66840 On ch=1 n=c4 v=46
66960 On ch=1 n=c4 v=0
67080 On ch=1 n=c4 v=46
67200 On ch=1 n=c4 v=0
67200 On ch=1 n=d4 v=59
67200 On ch=1 n=a#4 v=59
67440 On ch=1 n=a#4 v=0
67440 On ch=1 n=d4 v=0
67680 On ch=1 n=d4 v=49
67840 On ch=1 n=d4 v=0
67840 On ch=1 n=f4 v=51
68000 On ch=1 n=f4 v=0
68000 On ch=1 n=a#4 v=49
68160 On ch=1 n=a#4 v=0
68160 On ch=1 n=d5 v=52
68320 On ch=1 n=d5 v=0
68320 On ch=1 n=a#4 v=54
68480 On ch=1 n=a#4 v=0
68480 On ch=1 n=d5 v=56
68640 On ch=1 n=d5 v=0
68640 On ch=1 n=f5 v=58
68800 On ch=1 n=f5 v=0
68800 On ch=1 n=a#5 v=60
68960 On ch=1 n=a#5 v=0
68960 On ch=1 n=d6 v=61
69120 On ch=1 n=d6 v=0
69120 On ch=1 n=d#5 v=64
69120 On ch=1 n=d#6 v=79
69120 On ch=1 n=g5 v=64
69840 On ch=1 n=g5 v=0
69840 On ch=1 n=d#6 v=0
69840 On ch=1 n=g5 v=68
70080 On ch=1 n=g5 v=0
70080 On ch=1 n=d#5 v=0
70080 On ch=1 n=d#5 v=56
70080 On ch=1 n=g5 v=56
70080 On ch=1 n=a#5 v=71
70560 On ch=1 n=a#5 v=0
70560 On ch=1 n=g5 v=0
70560 On ch=1 n=d#5 v=0
70560 On ch=1 n=c6 v=70
70560 On ch=1 n=g5 v=57
70560 On ch=1 n=d#5 v=57
70800 On ch=1 n=g5 v=0
70800 On ch=1 n=c6 v=0
70800 On ch=1 n=g5 v=65
71040 On ch=1 n=g5 v=0
71040 On ch=1 n=d#5 v=0
71040 On ch=1 n=a#5 v=71
71040 On ch=1 n=g5 v=60
71040 On ch=1 n=d#5 v=60
72000 On ch=1 n=d#5 v=0
72000 On ch=1 n=g5 v=0
72000 On ch=1 n=a#5 v=0
72000 On ch=1 n=d#5 v=53
72000 On ch=1 n=g5 v=57
72000 On ch=1 n=a#5 v=70
72240 On ch=1 n=c6 v=61
72260 On ch=1 n=a#5 v=0
72480 On ch=1 n=d#5 v=0
72480 On ch=1 n=g5 v=0
72480 On ch=1 n=c6 v=0
72480 On ch=1 n=d#5 v=59
72480 On ch=1 n=g5 v=70
72720 On ch=1 n=c6 v=59
72740 On ch=1 n=g5 v=0
72960 On ch=1 n=c6 v=0
72960 On ch=1 n=d#5 v=0
72960 On ch=1 n=g5 v=60
72960 On ch=1 n=d#5 v=60
72960 On ch=1 n=a#5 v=71
74080 On ch=1 n=a#5 v=0
74080 On ch=1 n=d#5 v=0
74080 On ch=1 n=g5 v=0
74080 On ch=1 n=d5 v=57
74240 On ch=1 n=d5 v=0
74240 On ch=1 n=d#5 v=57
74400 On ch=1 n=d#5 v=0
74400 On ch=1 n=g5 v=58
74560 On ch=1 n=g5 v=0
74560 On ch=1 n=a#5 v=62
74720 On ch=1 n=a#5 v=0
74720 On ch=1 n=d#6 v=66
74880 On ch=1 n=d#6 v=0
74880 On ch=1 n=f6 v=75
74880 On ch=1 n=f5 v=63
74880 On ch=1 n=a#5 v=63
75600 On ch=1 n=g6 v=69
75600 On ch=1 n=g5 v=57
75620 On ch=1 n=f5 v=0
75620 On ch=1 n=f6 v=0
75840 On ch=1 n=f5 v=63
75840 On ch=1 n=f6 v=75
75860 On ch=1 n=g6 v=0
75860 On ch=1 n=g5 v=0
76320 On ch=1 n=f5 v=0
76320 On ch=1 n=a#5 v=0
76320 On ch=1 n=f6 v=0
76320 On ch=1 n=c6 v=72
76320 On ch=1 n=c5 v=61
76320 On ch=1 n=g#5 v=61
76560 On ch=1 n=c6 v=0
76560 On ch=1 n=d5 v=59
76560 On ch=1 n=d6 v=70
76580 On ch=1 n=c5 v=0
76800 On ch=1 n=d6 v=0
76800 On ch=1 n=d5 v=0
76800 On ch=1 n=d#5 v=63
76800 On ch=1 n=g5 v=63
76800 On ch=1 n=d#6 v=75
76820 On ch=1 n=g#5 v=0
77760 On ch=1 n=d#5 v=0
77760 On ch=1 n=g5 v=0
77760 On ch=1 n=d#6 v=0
77760 On ch=1 n=g5 v=60
77760 On ch=1 n=d#5 v=60
77760 On ch=1 n=d#6 v=72
78000 On ch=1 n=d5 v=52
78000 On ch=1 n=d6 v=62
78020 On ch=1 n=d#6 v=0
78020 On ch=1 n=d#5 v=0
78240 On ch=1 n=g5 v=0
78240 On ch=1 n=c6 v=67
78240 On ch=1 n=c5 v=56
78240 On ch=1 n=g#5 v=56
78260 On ch=1 n=d6 v=0
78260 On ch=1 n=d5 v=0
78480 On ch=1 n=d5 v=47
78480 On ch=1 n=d6 v=57
78500 On ch=1 n=c5 v=0
78500 On ch=1 n=c6 v=0
78720 On ch=1 n=g#5 v=0
78720 On ch=1 n=d5 v=0
78720 On ch=1 n=d6 v=0
78720 On ch=1 n=d#5 v=55
78720 On ch=1 n=g5 v=55
78720 On ch=1 n=a#5 v=69
79200 On ch=1 n=a#5 v=0
79200 On ch=1 n=g5 v=0
79200 On ch=1 n=d#5 v=0
79200 On ch=1 n=d#5 v=53
79200 On ch=1 n=g5 v=53
79200 On ch=1 n=a#5 v=66
79920 On ch=1 n=d#5 v=0
79920 On ch=1 n=d5 v=56
80160 On ch=1 n=d5 v=0
80160 On ch=1 n=a#5 v=0
80160 On ch=1 n=g5 v=0
80160 On ch=1 n=g#5 v=50
80160 On ch=1 n=a#5 v=63
80160 On ch=1 n=c5 v=53
80160 On ch=1 n=f5 v=50
80400 On ch=1 n=c5 v=0
80400 On ch=1 n=d5 v=50
80640 On ch=1 n=d5 v=0
80640 On ch=1 n=f5 v=0
80640 On ch=1 n=a#5 v=0
80640 On ch=1 n=g#5 v=0
80640 On ch=1 n=d#5 v=53
80640 On ch=1 n=g5 v=55
80640 On ch=1 n=a#5 v=65
81120 On ch=1 n=a#5 v=0
81120 On ch=1 n=g5 v=0
81120 On ch=1 n=d#5 v=0
81120 On ch=1 n=a#5 v=63
81120 On ch=1 n=d#5 v=51
81120 On ch=1 n=g5 v=53
81760 On ch=1 n=a#5 v=0
81760 On ch=1 n=c6 v=59
81920 On ch=1 n=c6 v=0
81920 On ch=1 n=a5 v=58
82080 On ch=1 n=a5 v=0
82080 On ch=1 n=g5 v=0
82080 On ch=1 n=d#5 v=0
82080 On ch=1 n=g#5 v=53
82080 On ch=1 n=a#5 v=63
82080 On ch=1 n=d5 v=53
82240 On ch=1 n=a#5 v=0
82240 On ch=1 n=c6 v=63
82400 On ch=1 n=c6 v=0
82400 On ch=1 n=d6 v=66
82560 On ch=1 n=d6 v=0
82560 On ch=1 n=d5 v=0
82560 On ch=1 n=g#5 v=0
82560 On ch=1 n=d#6 v=79
82560 On ch=1 n=g5 v=64
83280 On ch=1 n=g5 v=0
83280 On ch=1 n=d#6 v=0
83280 On ch=1 n=g5 v=68
83520 On ch=1 n=g5 v=0
83520 On ch=1 n=d#5 v=56
83520 On ch=1 n=g5 v=56
83520 On ch=1 n=a#5 v=71
84000 On ch=1 n=a#5 v=0
84000 On ch=1 n=g5 v=0
84000 On ch=1 n=d#5 v=0
84000 On ch=1 n=c6 v=70
84000 On ch=1 n=g5 v=57
84000 On ch=1 n=d#5 v=57
84240 On ch=1 n=g5 v=0
84240 On ch=1 n=g5 v=65
84260 On ch=1 n=c6 v=0
84480 On ch=1 n=g5 v=0
84480 On ch=1 n=d#5 v=0
84480 On ch=1 n=a#5 v=71
84480 On ch=1 n=g5 v=60
84480 On ch=1 n=d#5 v=60
85440 On ch=1 n=d#5 v=0
85440 On ch=1 n=g5 v=0
85440 On ch=1 n=a#5 v=0
85440 On ch=1 n=d#5 v=53
85440 On ch=1 n=g5 v=57
85440 On ch=1 n=a#5 v=70
85680 On ch=1 n=c6 v=61
85700 On ch=1 n=a#5 v=0
85920 On ch=1 n=d#5 v=0
85920 On ch=1 n=g5 v=0
85920 On ch=1 n=c6 v=0
85920 On ch=1 n=d#5 v=59
85920 On ch=1 n=g5 v=70
86160 On ch=1 n=c6 v=59
86180 On ch=1 n=g5 v=0
86400 On ch=1 n=c6 v=0
86400 On ch=1 n=d#5 v=0
86400 On ch=1 n=g5 v=57
86400 On ch=1 n=d#5 v=56
86400 On ch=1 n=a#5 v=71
87520 On ch=1 n=a#5 v=0
87520 On ch=1 n=d#5 v=0
87520 On ch=1 n=g5 v=0
87520 On ch=1 n=d5 v=57
87680 On ch=1 n=d5 v=0
87680 On ch=1 n=d#5 v=57
87840 On ch=1 n=d#5 v=0
87840 On ch=1 n=g5 v=58
88000 On ch=1 n=g5 v=0
88000 On ch=1 n=a#5 v=62
88160 On ch=1 n=a#5 v=0
88160 On ch=1 n=d#6 v=66
88320 On ch=1 n=d#6 v=0
88320 On ch=1 n=f6 v=75
88320 On ch=1 n=f5 v=63
88320 On ch=1 n=a#5 v=63
89040 On ch=1 n=g6 v=69
89040 On ch=1 n=g5 v=57
89060 On ch=1 n=f5 v=0
89060 On ch=1 n=f6 v=0
89280 On ch=1 n=f5 v=63
89280 On ch=1 n=f6 v=75
89300 On ch=1 n=g6 v=0
89300 On ch=1 n=g5 v=0
89760 On ch=1 n=f5 v=0
89760 On ch=1 n=a#5 v=0
89760 On ch=1 n=f6 v=0
89760 On ch=1 n=c6 v=72
89760 On ch=1 n=c5 v=59
89760 On ch=1 n=g#5 v=57
90000 On ch=1 n=d5 v=59
90000 On ch=1 n=d6 v=70
90020 On ch=1 n=c5 v=0
90020 On ch=1 n=c6 v=0
90240 On ch=1 n=d5 v=0
90240 On ch=1 n=g#5 v=0
90240 On ch=1 n=d6 v=0
90240 On ch=1 n=d#5 v=63
90240 On ch=1 n=g5 v=63
90240 On ch=1 n=d#6 v=75
91200 On ch=1 n=d#6 v=0
91200 On ch=1 n=g5 v=0
91200 On ch=1 n=d#5 v=0
91200 On ch=1 n=g5 v=60
91200 On ch=1 n=d#5 v=60
91200 On ch=1 n=d#6 v=72
91440 On ch=1 n=d5 v=52
91440 On ch=1 n=d6 v=62
91460 On ch=1 n=d#6 v=0
91460 On ch=1 n=d#5 v=0
91680 On ch=1 n=g5 v=0
91680 On ch=1 n=c6 v=67
91680 On ch=1 n=c5 v=56
91680 On ch=1 n=g#5 v=56
91700 On ch=1 n=d6 v=0
91700 On ch=1 n=d5 v=0
91920 On ch=1 n=d5 v=47
91920 On ch=1 n=d6 v=57
91940 On ch=1 n=c5 v=0
91940 On ch=1 n=c6 v=0
92160 On ch=1 n=g#5 v=0
92160 On ch=1 n=d5 v=0
92160 On ch=1 n=d6 v=0
92160 On ch=1 n=d#5 v=55
92160 On ch=1 n=g5 v=55
92160 On ch=1 n=a#5 v=69
92640 On ch=1 n=a#5 v=0
92640 On ch=1 n=g5 v=0
92640 On ch=1 n=d#5 v=0
92640 On ch=1 n=d#5 v=53
92640 On ch=1 n=g5 v=53
92640 On ch=1 n=a#5 v=66
93360 On ch=1 n=d#5 v=0
93360 On ch=1 n=d5 v=56
93600 On ch=1 n=d5 v=0
93600 On ch=1 n=a#5 v=0
93600 On ch=1 n=g5 v=0
93600 On ch=1 n=g#5 v=53
93600 On ch=1 n=a#5 v=63
93600 On ch=1 n=c5 v=53
93840 On ch=1 n=c5 v=0
93840 On ch=1 n=d5 v=50
94080 On ch=1 n=d5 v=0
94080 On ch=1 n=a#5 v=0
94080 On ch=1 n=g#5 v=0
94080 On ch=1 n=a#5 v=66
94080 On ch=1 n=g5 v=58
94080 On ch=1 n=d#5 v=55
94560 On ch=1 n=d#5 v=0
94560 On ch=1 n=g5 v=0
94560 On ch=1 n=a#5 v=0
94560 On ch=1 n=a#5 v=64
94560 On ch=1 n=g5 v=52
94560 On ch=1 n=d#5 v=52
95280 On ch=1 n=d#5 v=0
95280 On ch=1 n=d5 v=53
95520 On ch=1 n=d5 v=0
95520 On ch=1 n=g5 v=0
95520 On ch=1 n=a#5 v=0
95520 On ch=1 n=g#5 v=49
95520 On ch=1 n=a#5 v=59
95520 On ch=1 n=c5 v=49
95760 On ch=1 n=c5 v=0
95760 On ch=1 n=d5 v=46
96000 On ch=1 n=d5 v=0
96000 On ch=1 n=a#5 v=0
96000 On ch=1 n=g#5 v=0
96000 On ch=1 n=a#5 v=63
96000 On ch=1 n=g5 v=53
96000 On ch=1 n=d#5 v=53
96240 On ch=1 n=d#5 v=0
96240 On ch=1 n=g5 v=0
96240 On ch=1 n=a#5 v=0
96480 On ch=1 n=a#5 v=59
96480 On ch=1 n=d#5 v=50
96480 On ch=1 n=g5 v=50
98160 On ch=1 n=g5 v=0
98160 On ch=1 n=d#5 v=0
98160 On ch=1 n=a#5 v=0
98400 On ch=1 n=d#5 v=43
98400 On ch=1 n=g5 v=43
98400 On ch=1 n=a#5 v=54
100080 On ch=1 n=a#5 v=0
100080 On ch=1 n=g5 v=0
100080 On ch=1 n=d#5 v=0
100960 On ch=1 n=d5 v=37
101120 On ch=1 n=d5 v=0
101120 On ch=1 n=f5 v=36
101280 On ch=1 n=f5 v=0
101280 On ch=1 n=f5 v=40
101440 On ch=1 n=f5 v=0
101440 On ch=1 n=d5 v=36
101600 On ch=1 n=d5 v=0
101600 On ch=1 n=f5 v=36
101760 On ch=1 n=f5 v=0
101760 On ch=1 n=d#5 v=40
102000 On ch=1 n=d#5 v=0
102880 On ch=1 n=a5 v=37
103020 On ch=1 n=a#5 v=36
103040 On ch=1 n=a5 v=0
103180 On ch=1 n=a#5 v=0
103200 On ch=1 n=c6 v=40
103360 On ch=1 n=c6 v=0
103360 On ch=1 n=a5 v=36
103520 On ch=1 n=a5 v=0
103520 On ch=1 n=c6 v=36
103680 On ch=1 n=c6 v=0
103680 On ch=1 n=a#5 v=40
103920 On ch=1 n=a#5 v=0
104800 On ch=1 n=f#6 v=37
104940 On ch=1 n=g6 v=36
104960 On ch=1 n=f#6 v=0
105100 On ch=1 n=g6 v=0
105120 On ch=1 n=a6 v=40
105280 On ch=1 n=a6 v=0
105280 On ch=1 n=a#6 v=36
105440 On ch=1 n=a#6 v=0
105440 On ch=1 n=d7 v=36
105600 On ch=1 n=d7 v=0
105600 On ch=1 n=d#7 v=40
106080 On ch=1 n=d#6 v=30
106080 On ch=1 n=g6 v=30
106560 On ch=1 n=g6 v=0
106560 On ch=1 n=d#6 v=0
106560 On ch=1 n=d#6 v=30
106560 On ch=1 n=g6 v=30
107520 On ch=1 n=g6 v=0
107520 On ch=1 n=d#6 v=0
107520 On ch=1 n=d#7 v=0
107520 Meta TrkEnd
TrkEnd
MTrk
0 Meta 0x21 00
0 Meta TrkName "Piano left"
0 PrCh ch=1 p=0
0 Par ch=1 c=7 v=100
0 Par ch=1 c=64 v=127
0 On ch=1 n=d#4 v=58
0 On ch=1 n=a#4 v=70
1398 Par ch=1 c=64 v=0
1440 On ch=1 n=a#4 v=0
1440 On ch=1 n=d#4 v=0
1440 On ch=1 n=d#4 v=44
1440 On ch=1 n=a#4 v=52
1440 On ch=1 n=a#3 v=44
1567 Par ch=1 c=64 v=127
1920 On ch=1 n=a#3 v=0
1920 On ch=1 n=a#4 v=0
1920 On ch=1 n=d#4 v=0
1920 Par ch=1 c=64 v=0
1920 On ch=1 n=a#4 v=64
1920 On ch=1 n=d#4 v=53
2047 Par ch=1 c=64 v=127
2725 Par ch=1 c=64 v=0
3021 Par ch=1 c=64 v=127
3360 On ch=1 n=d#4 v=0
3360 On ch=1 n=a#4 v=0
3360 On ch=1 n=d#4 v=49
3360 On ch=1 n=a#4 v=58
3360 On ch=1 n=a#3 v=49
3840 On ch=1 n=a#3 v=0
3840 On ch=1 n=a#4 v=0
3840 On ch=1 n=d#4 v=0
3840 Par ch=1 c=64 v=0
3840 On ch=1 n=d#4 v=54
3840 On ch=1 n=a#4 v=65
4053 Par ch=1 c=64 v=127
5280 On ch=1 n=a#4 v=0
5280 On ch=1 n=d#4 v=0
5280 On ch=1 n=a#3 v=50
5280 On ch=1 n=a#4 v=61
5280 On ch=1 n=d#4 v=50
5440 Par ch=1 c=64 v=0
5760 On ch=1 n=d#4 v=0
5760 On ch=1 n=a#4 v=0
5760 On ch=1 n=a#3 v=0
5760 On ch=1 n=d5 v=67
5760 On ch=1 n=a#4 v=56
5760 On ch=1 n=d#4 v=56
6060 Par ch=1 c=64 v=127
7144 Par ch=1 c=64 v=0
7200 On ch=1 n=d#4 v=0
7200 On ch=1 n=a#4 v=0
7200 On ch=1 n=d5 v=0
7200 On ch=1 n=f4 v=56
7200 On ch=1 n=a#3 v=46
7271 Par ch=1 c=64 v=127
7680 On ch=1 n=a#3 v=0
7680 On ch=1 n=f4 v=0
7680 Par ch=1 c=64 v=0
7680 On ch=1 n=d#4 v=56
7680 On ch=1 n=a#4 v=67
7962 Par ch=1 c=64 v=127
8711 Par ch=1 c=64 v=0
8838 Par ch=1 c=64 v=127
9120 On ch=1 n=a#4 v=0
9120 On ch=1 n=d#4 v=0
9120 On ch=1 n=a#3 v=46
9120 On ch=1 n=f4 v=56
9600 On ch=1 n=f4 v=0
9600 On ch=1 n=a#3 v=0
9600 Par ch=1 c=64 v=0
9600 On ch=1 n=d#4 v=65
9769 Par ch=1 c=64 v=127
10673 Par ch=1 c=64 v=0
10786 Par ch=1 c=64 v=127
10800 On ch=1 n=d#4 v=0
10800 On ch=1 n=d4 v=63
11040 On ch=1 n=d4 v=0
11040 On ch=1 n=c4 v=59
11040 On ch=1 n=a#3 v=50
11280 On ch=1 n=c4 v=0
11280 On ch=1 n=d4 v=56
11520 On ch=1 n=d4 v=0
11520 On ch=1 n=a#3 v=0
11520 Par ch=1 c=64 v=0
11520 On ch=1 n=d#4 v=60
11675 Par ch=1 c=64 v=127
12480 Par ch=1 c=64 v=0
12593 Par ch=1 c=64 v=127
12720 On ch=1 n=d#4 v=0
12720 On ch=1 n=d4 v=63
12960 On ch=1 n=d4 v=0
12960 On ch=1 n=a#3 v=50
12960 On ch=1 n=c4 v=59
13200 On ch=1 n=c4 v=0
13200 On ch=1 n=d4 v=56
13440 On ch=1 n=d4 v=0
13440 On ch=1 n=a#3 v=0
13440 Par ch=1 c=64 v=0
13440 On ch=1 n=a#4 v=70
13440 On ch=1 n=d#4 v=58
13680 Par ch=1 c=64 v=127
14809 Par ch=1 c=64 v=0
14880 On ch=1 n=d#4 v=0
14880 On ch=1 n=a#4 v=0
14880 On ch=1 n=a#3 v=44
14880 On ch=1 n=a#4 v=52
14880 On ch=1 n=d#4 v=44
15007 Par ch=1 c=64 v=127
15360 On ch=1 n=d#4 v=0
15360 On ch=1 n=a#4 v=0
15360 On ch=1 n=a#3 v=0
15360 On ch=1 n=d#4 v=53
15360 On ch=1 n=a#4 v=64
15360 Par ch=1 c=64 v=0
15487 Par ch=1 c=64 v=127
16165 Par ch=1 c=64 v=0
16461 Par ch=1 c=64 v=127
16800 On ch=1 n=a#4 v=0
16800 On ch=1 n=d#4 v=0
16800 On ch=1 n=d#4 v=49
16800 On ch=1 n=a#3 v=49
16800 On ch=1 n=a#4 v=58
17280 On ch=1 n=a#4 v=0
17280 On ch=1 n=a#3 v=0
17280 On ch=1 n=d#4 v=0
17280 Par ch=1 c=64 v=0
17280 On ch=1 n=a#4 v=65
17280 On ch=1 n=d#4 v=54
17493 Par ch=1 c=64 v=127
18720 On ch=1 n=d#4 v=0
18720 On ch=1 n=a#4 v=0
18720 On ch=1 n=d#4 v=50
18720 On ch=1 n=a#3 v=50
18720 On ch=1 n=a#4 v=61
18880 Par ch=1 c=64 v=0
19200 On ch=1 n=a#4 v=0
19200 On ch=1 n=a#3 v=0
19200 On ch=1 n=d#4 v=0
19200 On ch=1 n=d#4 v=56
19200 On ch=1 n=a#4 v=56
19200 On ch=1 n=d5 v=67
19500 Par ch=1 c=64 v=127
20626 Par ch=1 c=64 v=0
20640 On ch=1 n=d5 v=0
20640 On ch=1 n=a#4 v=0
20640 On ch=1 n=d#4 v=0
20640 On ch=1 n=f4 v=56
20640 On ch=1 n=a#3 v=46
20711 Par ch=1 c=64 v=127
21120 On ch=1 n=a#3 v=0
21120 On ch=1 n=f4 v=0
21120 Par ch=1 c=64 v=0
21120 On ch=1 n=a#4 v=67
21120 On ch=1 n=d#4 v=56
21261 Par ch=1 c=64 v=127
22151 Par ch=1 c=64 v=0
22278 Par ch=1 c=64 v=127
22560 On ch=1 n=d#4 v=0
22560 On ch=1 n=a#4 v=0
22560 On ch=1 n=f4 v=56
22560 On ch=1 n=a#3 v=46
23040 On ch=1 n=a#3 v=0
23040 On ch=1 n=f4 v=0
23040 Par ch=1 c=64 v=0
23040 On ch=1 n=d#4 v=62
23040 On ch=1 n=a#4 v=62
23209 Par ch=1 c=64 v=127
24113 Par ch=1 c=64 v=0
24226 Par ch=1 c=64 v=127
24480 On ch=1 n=a#4 v=0
24480 On ch=1 n=d#4 v=0
24480 On ch=1 n=g#3 v=50
24480 On ch=1 n=d4 v=50
24960 On ch=1 n=d4 v=0
24960 On ch=1 n=g#3 v=0
24960 Par ch=1 c=64 v=0
24960 On ch=1 n=g3 v=52
24960 On ch=1 n=d4 v=62
25211 Par ch=1 c=64 v=127
26046 Par ch=1 c=64 v=0
26160 On ch=1 n=d4 v=0
26160 On ch=1 n=g3 v=0
26160 On ch=1 n=f3 v=63
26400 On ch=1 n=f3 v=0
26400 On ch=1 n=d#3 v=63
26640 On ch=1 n=d#3 v=0
26640 On ch=1 n=d3 v=63
26880 On ch=1 n=d3 v=0
26880 On ch=1 n=c3 v=67
27000 On ch=1 n=c3 v=0
27120 On ch=1 n=g3 v=61
27240 On ch=1 n=g3 v=0
27360 On ch=1 n=c4 v=63
27388 Par ch=1 c=64 v=127
27480 On ch=1 n=c4 v=0
27600 On ch=1 n=g3 v=59
27720 On ch=1 n=g3 v=0
27840 On ch=1 n=c3 v=67
27896 Par ch=1 c=64 v=0
27960 On ch=1 n=c3 v=0
28080 On ch=1 n=g3 v=59
28200 On ch=1 n=g3 v=0
28320 On ch=1 n=c4 v=62
28405 Par ch=1 c=64 v=127
28440 On ch=1 n=c4 v=0
28560 On ch=1 n=g3 v=59
28680 On ch=1 n=g3 v=0
28800 On ch=1 n=c3 v=68
28856 Par ch=1 c=64 v=0
28920 On ch=1 n=c3 v=0
29040 On ch=1 n=g3 v=60
29160 On ch=1 n=g3 v=0
29280 On ch=1 n=c4 v=63
29400 On ch=1 n=c4 v=0
29520 On ch=1 n=g3 v=60
29640 On ch=1 n=g3 v=0
29760 On ch=1 n=c3 v=67
29880 On ch=1 n=c3 v=0
30000 On ch=1 n=g3 v=60
30120 On ch=1 n=g3 v=0
30240 On ch=1 n=c4 v=63
30325 Par ch=1 c=64 v=127
30360 On ch=1 n=c4 v=0
30480 On ch=1 n=g3 v=59
30600 On ch=1 n=g3 v=0
30720 Par ch=1 c=64 v=0
30720 On ch=1 n=c3 v=67
30840 On ch=1 n=c3 v=0
30960 On ch=1 n=g3 v=61
31080 On ch=1 n=g3 v=0
31200 On ch=1 n=c4 v=63
31271 Par ch=1 c=64 v=127
31320 On ch=1 n=c4 v=0
31440 On ch=1 n=g3 v=59
31560 On ch=1 n=g3 v=0
31680 On ch=1 n=c3 v=67
31758 Par ch=1 c=64 v=0
31800 On ch=1 n=c3 v=0
31920 On ch=1 n=g3 v=59
32040 On ch=1 n=g3 v=0
32160 On ch=1 n=c4 v=62
32209 Par ch=1 c=64 v=127
32280 On ch=1 n=c4 v=0
32400 On ch=1 n=g3 v=59
32520 On ch=1 n=g3 v=0
32591 Par ch=1 c=64 v=0
32640 On ch=1 n=c3 v=67
32760 On ch=1 n=c3 v=0
32880 On ch=1 n=g3 v=61
33000 On ch=1 n=g3 v=0
33099 Par ch=1 c=64 v=127
33120 On ch=1 n=c4 v=63
33240 On ch=1 n=c4 v=0
33360 On ch=1 n=g3 v=59
33480 On ch=1 n=g3 v=0
33600 On ch=1 n=c3 v=67
33699 Par ch=1 c=64 v=0
33720 On ch=1 n=c3 v=0
33840 On ch=1 n=g3 v=59
33960 On ch=1 n=g3 v=0
34080 On ch=1 n=c4 v=62
34144 Par ch=1 c=64 v=127
34200 On ch=1 n=c4 v=0
34320 On ch=1 n=g3 v=59
34440 On ch=1 n=g3 v=0
34560 Par ch=1 c=64 v=0
34560 On ch=1 n=c3 v=67
34680 On ch=1 n=c3 v=0
34800 On ch=1 n=g3 v=61
34920 On ch=1 n=g3 v=0
35040 On ch=1 n=c4 v=63
35096 Par ch=1 c=64 v=127
35160 On ch=1 n=c4 v=0
35280 On ch=1 n=g4 v=59
35400 On ch=1 n=g4 v=0
35520 On ch=1 n=g4 v=67
35640 On ch=1 n=g4 v=0
35654 Par ch=1 c=64 v=0
35760 On ch=1 n=c4 v=59
35880 On ch=1 n=c4 v=0
36000 On ch=1 n=g3 v=62
36078 Par ch=1 c=64 v=127
36120 On ch=1 n=g3 v=0
36240 On ch=1 n=c3 v=59
36360 On ch=1 n=c3 v=0
36480 On ch=1 n=c3 v=67
36558 Par ch=1 c=64 v=0
36600 On ch=1 n=c3 v=0
36720 On ch=1 n=g3 v=61
36840 On ch=1 n=g3 v=0
36960 On ch=1 n=c4 v=63
37016 Par ch=1 c=64 v=127
37080 On ch=1 n=c4 v=0
37200 On ch=1 n=g4 v=59
37320 On ch=1 n=g4 v=0
37440 On ch=1 n=g4 v=67
37511 Par ch=1 c=64 v=0
37560 On ch=1 n=g4 v=0
37680 On ch=1 n=c4 v=59
37800 On ch=1 n=c4 v=0
37920 On ch=1 n=g3 v=62
37976 Par ch=1 c=64 v=127
38040 On ch=1 n=g3 v=0
38160 On ch=1 n=c3 v=59
38280 On ch=1 n=c3 v=0
38400 On ch=1 n=c3 v=70
38400 Par ch=1 c=64 v=0
38520 On ch=1 n=c3 v=0
38640 On ch=1 n=g3 v=63
38760 On ch=1 n=g3 v=0
38880 On ch=1 n=c4 v=67
38979 Par ch=1 c=64 v=127
39000 On ch=1 n=c4 v=0
39120 On ch=1 n=g4 v=62
39240 On ch=1 n=g4 v=0
39360 On ch=1 n=g4 v=72
39480 On ch=1 n=g4 v=0
39572 Par ch=1 c=64 v=0
39600 On ch=1 n=c4 v=62
39720 On ch=1 n=c4 v=0
39840 On ch=1 n=g3 v=65
39960 On ch=1 n=g3 v=0
40080 On ch=1 n=c3 v=62
40200 On ch=1 n=c3 v=0
40320 On ch=1 n=c3 v=64
40433 Par ch=1 c=64 v=127
40560 On ch=1 n=c3 v=0
40560 On ch=1 n=d#4 v=59
40560 On ch=1 n=g4 v=70
40560 On ch=1 n=c5 v=70
40560 On ch=1 n=c4 v=59
40772 Par ch=1 c=64 v=0
40800 On ch=1 n=c4 v=0
40800 On ch=1 n=d#4 v=0
40800 On ch=1 n=g4 v=0
40800 On ch=1 n=c5 v=0
40800 On ch=1 n=g#4 v=59
40800 On ch=1 n=f5 v=70
40800 On ch=1 n=c5 v=70
40800 On ch=1 n=f4 v=59
41026 Par ch=1 c=64 v=127
41562 Par ch=1 c=64 v=0
41670 On ch=1 n=f4 v=0
41670 On ch=1 n=g#4 v=0
41670 On ch=1 n=f5 v=0
41670 On ch=1 n=c5 v=0
41670 On ch=1 n=a#3 v=53
41700 On ch=1 n=f4 v=53
41730 On ch=1 n=a#4 v=63
41742 Par ch=1 c=64 v=127
41760 On ch=1 n=d5 v=63
42155 Par ch=1 c=64 v=0
42240 On ch=1 n=d5 v=0
42240 On ch=1 n=a#3 v=0
42240 On ch=1 n=f4 v=0
42240 On ch=1 n=a#4 v=0
42240 On ch=1 n=d#5 v=66
42240 On ch=1 n=g4 v=56
42240 On ch=1 n=a#4 v=66
42240 On ch=1 n=d#4 v=56
42395 Par ch=1 c=64 v=127
42480 On ch=1 n=d#4 v=0
42480 On ch=1 n=d#5 v=0
42480 On ch=1 n=g4 v=0
42480 On ch=1 n=a#4 v=0
42480 On ch=1 n=d#5 v=66
42480 On ch=1 n=c5 v=66
42664 Par ch=1 c=64 v=0
42720 On ch=1 n=c5 v=0
42720 On ch=1 n=d#5 v=0
42720 On ch=1 n=g#4 v=59
42720 On ch=1 n=f4 v=59
42720 On ch=1 n=f5 v=70
42720 On ch=1 n=c5 v=70
43016 Par ch=1 c=64 v=127
43482 Par ch=1 c=64 v=0
43590 On ch=1 n=c5 v=0
43590 On ch=1 n=g#4 v=0
43590 On ch=1 n=f4 v=0
43590 On ch=1 n=f5 v=0
43590 On ch=1 n=a#3 v=61
43609 Par ch=1 c=64 v=127
43620 On ch=1 n=f4 v=61
43650 On ch=1 n=a#4 v=73
43680 On ch=1 n=d5 v=73
44160 On ch=1 n=d5 v=0
44160 On ch=1 n=a#3 v=0
44160 On ch=1 n=f4 v=0
44160 On ch=1 n=a#4 v=0
44160 Par ch=1 c=64 v=0
44160 On ch=1 n=a#4 v=66
44160 On ch=1 n=g4 v=56
44160 On ch=1 n=d#4 v=56
44160 On ch=1 n=d#5 v=66
44287 Par ch=1 c=64 v=127
44400 On ch=1 n=d#5 v=0
44400 On ch=1 n=a#4 v=0
44400 On ch=1 n=g4 v=0
44400 On ch=1 n=d#4 v=0
44456 Par ch=1 c=64 v=0
44640 On ch=1 n=g5 v=73
44640 On ch=1 n=c5 v=73
44760 On ch=1 n=c5 v=0
44760 On ch=1 n=g5 v=0
44880 On ch=1 n=c6 v=67
45000 On ch=1 n=c6 v=0
45120 On ch=1 n=d5 v=74
45120 On ch=1 n=b4 v=74
45240 On ch=1 n=b4 v=0
45240 On ch=1 n=d5 v=0
45360 On ch=1 n=b5 v=67
45480 On ch=1 n=b5 v=0
45600 On ch=1 n=d5 v=72
45600 On ch=1 n=g#4 v=72
45720 On ch=1 n=g#4 v=0
45720 On ch=1 n=d5 v=0
45840 On ch=1 n=g#5 v=62
45960 On ch=1 n=g#5 v=0
46080 On ch=1 n=g4 v=71
46080 On ch=1 n=d5 v=71
46200 On ch=1 n=d5 v=0
46200 On ch=1 n=g4 v=0
46320 On ch=1 n=g5 v=59
46440 On ch=1 n=g5 v=0
46560 On ch=1 n=f4 v=70
46680 On ch=1 n=f4 v=0
46800 On ch=1 n=f5 v=57
46920 On ch=1 n=f5 v=0
47040 On ch=1 n=d#4 v=67
47160 On ch=1 n=d#4 v=0
47280 On ch=1 n=d#5 v=56
47400 On ch=1 n=d#5 v=0
47520 On ch=1 n=d4 v=63
47640 On ch=1 n=d4 v=0
47760 On ch=1 n=d5 v=58
47880 On ch=1 n=d5 v=0
48000 On ch=1 n=c4 v=64
48113 Par ch=1 c=64 v=127
48240 On ch=1 n=c4 v=0
48240 On ch=1 n=d#5 v=70
48240 On ch=1 n=c5 v=70
48452 Par ch=1 c=64 v=0
48480 On ch=1 n=c5 v=0
48480 On ch=1 n=d#5 v=0
48480 On ch=1 n=g#4 v=59
48480 On ch=1 n=f5 v=70
48480 On ch=1 n=c5 v=70
48480 On ch=1 n=f4 v=59
48706 Par ch=1 c=64 v=127
49242 Par ch=1 c=64 v=0
49350 On ch=1 n=f4 v=0
49350 On ch=1 n=g#4 v=0
49350 On ch=1 n=f5 v=0
49350 On ch=1 n=c5 v=0
49350 On ch=1 n=a#3 v=53
49380 On ch=1 n=f4 v=53
49410 On ch=1 n=a#4 v=63
49422 Par ch=1 c=64 v=127
49440 On ch=1 n=d5 v=63
49835 Par ch=1 c=64 v=0
49920 On ch=1 n=d5 v=0
49920 On ch=1 n=a#3 v=0
49920 On ch=1 n=f4 v=0
49920 On ch=1 n=a#4 v=0
49920 On ch=1 n=d#5 v=66
49920 On ch=1 n=g4 v=56
49920 On ch=1 n=a#4 v=66
49920 On ch=1 n=d#4 v=56
50075 Par ch=1 c=64 v=127
50160 On ch=1 n=d#4 v=0
50160 On ch=1 n=d#5 v=0
50160 On ch=1 n=g4 v=0
50160 On ch=1 n=a#4 v=0
50160 On ch=1 n=c5 v=66
50160 On ch=1 n=d#5 v=66
50344 Par ch=1 c=64 v=0
50400 On ch=1 n=d#5 v=0
50400 On ch=1 n=c5 v=0
50400 On ch=1 n=g#4 v=59
50400 On ch=1 n=c5 v=70
50400 On ch=1 n=f5 v=70
50400 On ch=1 n=f4 v=59
50696 Par ch=1 c=64 v=127
51162 Par ch=1 c=64 v=0
51270 On ch=1 n=f4 v=0
51270 On ch=1 n=g#4 v=0
51270 On ch=1 n=c5 v=0
51270 On ch=1 n=f5 v=0
51270 On ch=1 n=a#3 v=61
51289 Par ch=1 c=64 v=127
51300 On ch=1 n=f4 v=61
51330 On ch=1 n=a#4 v=73
51360 On ch=1 n=d5 v=73
51840 On ch=1 n=d5 v=0
51840 On ch=1 n=a#3 v=0
51840 On ch=1 n=f4 v=0
51840 On ch=1 n=a#4 v=0
51840 On ch=1 n=d#5 v=66
51840 On ch=1 n=a#4 v=66
51840 On ch=1 n=g4 v=56
51840 On ch=1 n=d#4 v=56
51840 Par ch=1 c=64 v=0
51967 Par ch=1 c=64 v=127
52080 On ch=1 n=d#4 v=0
52080 On ch=1 n=d#5 v=0
52080 On ch=1 n=a#4 v=0
52080 On ch=1 n=g4 v=0
52136 Par ch=1 c=64 v=0
52320 On ch=1 n=d#4 v=73
52320 On ch=1 n=a#4 v=73
52440 On ch=1 n=a#4 v=0
52440 On ch=1 n=d#4 v=0
52560 On ch=1 n=d#5 v=67
52680 On ch=1 n=d#5 v=0
52800 On ch=1 n=a#4 v=74
52800 On ch=1 n=f4 v=74
52920 On ch=1 n=f4 v=0
52920 On ch=1 n=a#4 v=0
53040 On ch=1 n=f5 v=67
53160 On ch=1 n=f5 v=0
53280 On ch=1 n=a#4 v=72
53280 On ch=1 n=g4 v=72
53400 On ch=1 n=g4 v=0
53400 On ch=1 n=a#4 v=0
53520 On ch=1 n=f5 v=62
53640 On ch=1 n=f5 v=0
53760 On ch=1 n=g#4 v=71
53760 On ch=1 n=d#5 v=71
53880 On ch=1 n=d#5 v=0
53880 On ch=1 n=g#4 v=0
54000 On ch=1 n=g#5 v=59
54120 On ch=1 n=g#5 v=0
54240 On ch=1 n=g4 v=70
54240 On ch=1 n=d5 v=70
54360 On ch=1 n=d5 v=0
54360 On ch=1 n=g4 v=0
54480 On ch=1 n=g5 v=57
54600 On ch=1 n=g5 v=0
54720 On ch=1 n=d5 v=67
54720 On ch=1 n=a4 v=67
54840 On ch=1 n=a4 v=0
54840 On ch=1 n=d5 v=0
54960 On ch=1 n=a5 v=56
55080 On ch=1 n=a5 v=0
55200 On ch=1 n=d5 v=63
55200 On ch=1 n=b4 v=63
55320 On ch=1 n=b4 v=0
55320 On ch=1 n=d5 v=0
55440 On ch=1 n=b5 v=58
55560 On ch=1 n=b5 v=0
55680 On ch=1 n=c5 v=70
55680 Par ch=1 c=64 v=127
55680 On ch=1 n=c6 v=70
55680 On ch=1 n=g5 v=70
55920 On ch=1 n=g5 v=0
55920 On ch=1 n=c6 v=0
55920 On ch=1 n=c5 v=0
55920 On ch=1 n=c5 v=63
55920 On ch=1 n=a#5 v=63
55920 On ch=1 n=a#4 v=63
56160 On ch=1 n=a#4 v=0
56160 On ch=1 n=a#5 v=0
56160 On ch=1 n=c5 v=0
56160 On ch=1 n=a4 v=70
56160 On ch=1 n=a5 v=70
56160 On ch=1 n=c5 v=70
56236 Par ch=1 c=64 v=0
56349 Par ch=1 c=64 v=127
56880 On ch=1 n=c5 v=0
56880 On ch=1 n=a5 v=0
56880 On ch=1 n=a4 v=0
56880 On ch=1 n=f4 v=59
56880 On ch=1 n=f5 v=59
57082 Par ch=1 c=64 v=0
57120 On ch=1 n=f5 v=0
57120 On ch=1 n=f4 v=0
57120 On ch=1 n=g5 v=62
57120 On ch=1 n=g4 v=62
57183 Par ch=1 c=64 v=127
57360 On ch=1 n=g4 v=0
57360 On ch=1 n=g5 v=0
57360 On ch=1 n=a5 v=66
57360 On ch=1 n=a4 v=66
57423 Par ch=1 c=64 v=0
57600 On ch=1 n=a4 v=0
57600 On ch=1 n=a5 v=0
57600 On ch=1 n=a#5 v=69
57600 On ch=1 n=a#4 v=69
57714 Par ch=1 c=64 v=127
57840 On ch=1 n=a#4 v=0
57840 On ch=1 n=a#5 v=0
57840 On ch=1 n=c5 v=63
57840 On ch=1 n=a#5 v=63
57840 On ch=1 n=a#4 v=63
58080 On ch=1 n=a#4 v=0
58080 On ch=1 n=a#5 v=0
58080 On ch=1 n=c5 v=0
58080 On ch=1 n=c5 v=69
58080 On ch=1 n=a5 v=69
58080 On ch=1 n=a4 v=69
58168 Par ch=1 c=64 v=0
58282 Par ch=1 c=64 v=127
58800 On ch=1 n=a4 v=0
58800 On ch=1 n=a5 v=0
58800 On ch=1 n=c5 v=0
58800 On ch=1 n=f5 v=61
58800 On ch=1 n=f4 v=61
58901 Par ch=1 c=64 v=0
59040 On ch=1 n=f4 v=0
59040 On ch=1 n=f5 v=0
59040 On ch=1 n=g5 v=63
59040 On ch=1 n=g4 v=63
59053 Par ch=1 c=64 v=127
59280 On ch=1 n=g4 v=0
59280 On ch=1 n=g5 v=0
59280 On ch=1 n=a4 v=64
59280 On ch=1 n=a5 v=64
59368 Par ch=1 c=64 v=0
59520 On ch=1 n=a5 v=0
59520 On ch=1 n=a4 v=0
59520 On ch=1 n=a#4 v=71
59520 On ch=1 n=f5 v=71
59640 On ch=1 n=f5 v=0
59640 On ch=1 n=a#4 v=0
59760 On ch=1 n=a#5 v=59
59880 On ch=1 n=a#5 v=0
60000 On ch=1 n=d#5 v=70
60000 On ch=1 n=a#4 v=70
60120 On ch=1 n=a#4 v=0
60120 On ch=1 n=d#5 v=0
60240 On ch=1 n=f#5 v=57
60360 On ch=1 n=f#5 v=0
60480 On ch=1 n=d5 v=67
60480 On ch=1 n=a#4 v=67
60600 On ch=1 n=a#4 v=0
60600 On ch=1 n=d5 v=0
60720 On ch=1 n=f5 v=56
60840 On ch=1 n=f5 v=0
60960 On ch=1 n=a#3 v=63
61080 On ch=1 n=a#3 v=0
61200 On ch=1 n=d#5 v=58
61320 On ch=1 n=d#5 v=0
61440 On ch=1 n=a#3 v=64
61560 On ch=1 n=a#3 v=0
61680 On ch=1 n=d5 v=55
61800 On ch=1 n=d5 v=0
61920 On ch=1 n=a#3 v=63
62040 On ch=1 n=a#3 v=0
62160 On ch=1 n=c5 v=55
62280 On ch=1 n=c5 v=0
62400 On ch=1 n=a#3 v=63
62520 On ch=1 n=a#3 v=0
62640 On ch=1 n=a#4 v=55
62760 On ch=1 n=a#4 v=0
62880 On ch=1 n=a#2 v=62
63000 On ch=1 n=a#2 v=0
63120 On ch=1 n=d#4 v=56
63240 On ch=1 n=d#4 v=0
63360 On ch=1 n=a#2 v=59
63480 On ch=1 n=a#2 v=0
63600 On ch=1 n=d4 v=50
63720 On ch=1 n=d4 v=0
63840 On ch=1 n=a#2 v=58
63960 On ch=1 n=a#2 v=0
64080 On ch=1 n=c4 v=50
64200 On ch=1 n=c4 v=0
64320 On ch=1 n=a#2 v=58
64440 On ch=1 n=a#2 v=0
64560 On ch=1 n=a#3 v=50
64680 On ch=1 n=a#3 v=0
64800 On ch=1 n=a#2 v=58
64920 On ch=1 n=a#2 v=0
65040 On ch=1 n=f#3 v=51
65160 On ch=1 n=f#3 v=0
65280 On ch=1 n=a#2 v=52
65400 On ch=1 n=a#2 v=0
65520 On ch=1 n=f3 v=45
65640 On ch=1 n=f3 v=0
65760 On ch=1 n=a#2 v=51
65880 On ch=1 n=a#2 v=0
66000 On ch=1 n=f#3 v=45
66120 On ch=1 n=f#3 v=0
66240 On ch=1 n=a#2 v=51
66360 On ch=1 n=a#2 v=0
66480 On ch=1 n=f3 v=45
66600 On ch=1 n=f3 v=0
66720 On ch=1 n=a#2 v=51
66840 On ch=1 n=a#2 v=0
66960 On ch=1 n=f#3 v=46
67080 On ch=1 n=f#3 v=0
67200 On ch=1 n=a#2 v=45
67249 Par ch=1 c=64 v=127
67360 On ch=1 n=a#2 v=0
67360 On ch=1 n=f3 v=43
67520 On ch=1 n=f3 v=0
67520 On ch=1 n=a#3 v=43
67666 Par ch=1 c=64 v=0
67680 On ch=1 n=a#3 v=0
67736 Par ch=1 c=64 v=127
69049 Par ch=1 c=64 v=0
69120 On ch=1 n=d#4 v=45
69120 On ch=1 n=a#4 v=56
69280 On ch=1 n=a#4 v=0
69280 On ch=1 n=a4 v=45
69388 Par ch=1 c=64 v=127
69440 On ch=1 n=a4 v=0
69440 On ch=1 n=a#4 v=45
69600 On ch=1 n=a#4 v=0
69600 On ch=1 n=c5 v=51
69674 Par ch=1 c=64 v=0
69703 Par ch=1 c=64 v=127
69760 On ch=1 n=c5 v=0
69760 On ch=1 n=a4 v=46
69920 On ch=1 n=a4 v=0
69920 On ch=1 n=c5 v=46
70080 On ch=1 n=c5 v=0
70080 On ch=1 n=a#4 v=55
70543 Par ch=1 c=64 v=0
70560 On ch=1 n=d#4 v=0
70560 On ch=1 n=a#3 v=39
70687 Par ch=1 c=64 v=127
71040 On ch=1 n=a#3 v=0
71040 On ch=1 n=a#4 v=0
71040 On ch=1 n=a#4 v=51
71040 On ch=1 n=d#4 v=46
71040 Par ch=1 c=64 v=0
71167 Par ch=1 c=64 v=127
71200 On ch=1 n=a#4 v=0
71200 On ch=1 n=a4 v=45
71360 On ch=1 n=a4 v=0
71360 On ch=1 n=a#4 v=45
71520 On ch=1 n=a#4 v=0
71520 On ch=1 n=c5 v=49
71531 Par ch=1 c=64 v=0
71571 Par ch=1 c=64 v=127
71680 On ch=1 n=c5 v=0
71680 On ch=1 n=a4 v=46
71840 On ch=1 n=a4 v=0
71840 On ch=1 n=c5 v=46
72000 On ch=1 n=c5 v=0
72000 On ch=1 n=a#4 v=56
72063 Par ch=1 c=64 v=0
72141 Par ch=1 c=64 v=127
72480 On ch=1 n=d#4 v=0
72480 On ch=1 n=a#3 v=44
72748 Par ch=1 c=64 v=0
72960 On ch=1 n=a#3 v=0
72960 On ch=1 n=a#4 v=0
72960 On ch=1 n=d#4 v=41
72960 On ch=1 n=a#4 v=51
73120 On ch=1 n=a#4 v=0
73120 On ch=1 n=a4 v=45
73173 Par ch=1 c=64 v=127
73280 On ch=1 n=a4 v=0
73280 On ch=1 n=a#4 v=45
73440 On ch=1 n=a#4 v=0
73440 On ch=1 n=c5 v=51
73451 Par ch=1 c=64 v=0
73497 Par ch=1 c=64 v=127
73600 On ch=1 n=c5 v=0
73600 On ch=1 n=a4 v=47
73760 On ch=1 n=a4 v=0
73760 On ch=1 n=c5 v=47
73863 Par ch=1 c=64 v=0
73920 On ch=1 n=c5 v=0
73920 On ch=1 n=a#4 v=57
73971 Par ch=1 c=64 v=127
74400 On ch=1 n=d#4 v=0
74400 On ch=1 n=a#3 v=45
74760 Par ch=1 c=64 v=0
74880 On ch=1 n=a#3 v=0
74880 On ch=1 n=a#4 v=0
74880 On ch=1 n=d5 v=50
74880 On ch=1 n=a#4 v=46
74880 On ch=1 n=d#4 v=46
75040 On ch=1 n=d5 v=0
75040 On ch=1 n=c#5 v=45
75120 On ch=1 n=d#4 v=0
75120 On ch=1 n=a#4 v=0
75180 Par ch=1 c=64 v=127
75200 On ch=1 n=c#5 v=0
75200 On ch=1 n=d5 v=45
75360 On ch=1 n=d5 v=0
75360 On ch=1 n=d#5 v=49
75371 Par ch=1 c=64 v=0
75423 Par ch=1 c=64 v=127
75520 On ch=1 n=d#5 v=0
75520 On ch=1 n=c#5 v=46
75680 On ch=1 n=c#5 v=0
75680 On ch=1 n=d#5 v=46
75840 On ch=1 n=d#5 v=0
75840 On ch=1 n=d5 v=57
76080 On ch=1 n=d5 v=0
76291 Par ch=1 c=64 v=0
76320 On ch=1 n=a#3 v=41
76320 On ch=1 n=a#4 v=50
76391 Par ch=1 c=64 v=127
76687 Par ch=1 c=64 v=0
76800 On ch=1 n=a#4 v=0
76800 On ch=1 n=a#3 v=0
76800 On ch=1 n=d#4 v=45
76800 On ch=1 n=a#4 v=51
76941 Par ch=1 c=64 v=127
76960 On ch=1 n=a#4 v=0
76960 On ch=1 n=a4 v=45
77120 On ch=1 n=a4 v=0
77120 On ch=1 n=a#4 v=45
77280 On ch=1 n=a#4 v=0
77280 On ch=1 n=c5 v=49
77360 Par ch=1 c=64 v=0
77394 Par ch=1 c=64 v=127
77440 On ch=1 n=c5 v=0
77440 On ch=1 n=a4 v=45
77600 On ch=1 n=a4 v=0
77600 On ch=1 n=c5 v=45
77760 On ch=1 n=c5 v=0
77760 On ch=1 n=a#4 v=57
77783 Par ch=1 c=64 v=0
77958 Par ch=1 c=64 v=127
78000 On ch=1 n=a#4 v=0
78240 On ch=1 n=d#4 v=0
78240 On ch=1 n=a#4 v=50
78240 On ch=1 n=a#3 v=41
78720 On ch=1 n=a#3 v=0
78720 On ch=1 n=a#4 v=0
78720 Par ch=1 c=64 v=0
78720 On ch=1 n=a#4 v=49
78720 On ch=1 n=d#4 v=46
78880 On ch=1 n=a#4 v=0
78880 On ch=1 n=a4 v=45
78889 Par ch=1 c=64 v=127
79040 On ch=1 n=a4 v=0
79040 On ch=1 n=a#4 v=45
79200 On ch=1 n=a#4 v=0
79200 On ch=1 n=c5 v=49
79223 Par ch=1 c=64 v=0
79263 Par ch=1 c=64 v=127
79360 On ch=1 n=c5 v=0
79360 On ch=1 n=a4 v=47
79520 On ch=1 n=a4 v=0
79520 On ch=1 n=c5 v=47
79680 On ch=1 n=c5 v=0
79680 On ch=1 n=a#4 v=57
79840 Par ch=1 c=64 v=0
79906 Par ch=1 c=64 v=127
80160 On ch=1 n=d#4 v=0
80160 On ch=1 n=a#3 v=45
80471 Par ch=1 c=64 v=0
80640 On ch=1 n=a#3 v=0
80640 On ch=1 n=a#4 v=0
80640 On ch=1 n=a#4 v=48
80640 On ch=1 n=d#4 v=49
80795 Par ch=1 c=64 v=127
80800 On ch=1 n=a#4 v=0
80800 On ch=1 n=a4 v=44
80960 On ch=1 n=a4 v=0
80960 On ch=1 n=a#4 v=44
81120 On ch=1 n=a#4 v=0
81120 On ch=1 n=c5 v=47
81145 Par ch=1 c=64 v=0
81176 Par ch=1 c=64 v=127
81280 On ch=1 n=c5 v=0
81280 On ch=1 n=a4 v=43
81440 On ch=1 n=a4 v=0
81440 On ch=1 n=c5 v=42
81600 On ch=1 n=c5 v=0
81600 On ch=1 n=a#4 v=55
81611 Par ch=1 c=64 v=0
81713 Par ch=1 c=64 v=127
81840 On ch=1 n=d#4 v=0
82080 On ch=1 n=a#4 v=0
82080 On ch=1 n=a#4 v=52
82080 On ch=1 n=a#3 v=45
82278 Par ch=1 c=64 v=0
82560 On ch=1 n=a#3 v=0
82560 On ch=1 n=a#4 v=0
82560 On ch=1 n=a#4 v=56
82560 On ch=1 n=d#4 v=45
82720 On ch=1 n=a#4 v=0
82720 On ch=1 n=a4 v=45
82828 Par ch=1 c=64 v=127
82880 On ch=1 n=a4 v=0
82880 On ch=1 n=a#4 v=45
83040 On ch=1 n=a#4 v=0
83040 On ch=1 n=c5 v=51
83114 Par ch=1 c=64 v=0
83143 Par ch=1 c=64 v=127
83200 On ch=1 n=c5 v=0
83200 On ch=1 n=a4 v=46
83360 On ch=1 n=a4 v=0
83360 On ch=1 n=c5 v=46
83520 On ch=1 n=c5 v=0
83520 On ch=1 n=a#4 v=55
83874 Par ch=1 c=64 v=0
84000 On ch=1 n=d#4 v=0
84000 On ch=1 n=a#3 v=39
84127 Par ch=1 c=64 v=127
84480 On ch=1 n=a#3 v=0
84480 On ch=1 n=a#4 v=0
84480 Par ch=1 c=64 v=0
84480 On ch=1 n=a#4 v=51
84480 On ch=1 n=d#4 v=46
84607 Par ch=1 c=64 v=127
84640 On ch=1 n=a#4 v=0
84640 On ch=1 n=a4 v=45
84800 On ch=1 n=a4 v=0
84800 On ch=1 n=a#4 v=45
84960 On ch=1 n=a#4 v=0
84960 On ch=1 n=c5 v=49
84971 Par ch=1 c=64 v=0
85011 Par ch=1 c=64 v=127
85120 On ch=1 n=c5 v=0
85120 On ch=1 n=a4 v=46
85280 On ch=1 n=a4 v=0
85280 On ch=1 n=c5 v=46
85440 On ch=1 n=c5 v=0
85440 On ch=1 n=a#4 v=56
85480 Par ch=1 c=64 v=0
85581 Par ch=1 c=64 v=127
85920 On ch=1 n=d#4 v=0
85920 On ch=1 n=a#3 v=44
86400 On ch=1 n=a#3 v=0
86400 On ch=1 n=a#4 v=0
86400 Par ch=1 c=64 v=0
86400 On ch=1 n=a#4 v=51
86400 On ch=1 n=d#4 v=41
86560 On ch=1 n=a#4 v=0
86560 On ch=1 n=a4 v=45
86613 Par ch=1 c=64 v=127
86720 On ch=1 n=a4 v=0
86720 On ch=1 n=a#4 v=45
86880 On ch=1 n=a#4 v=0
86880 On ch=1 n=c5 v=51
86891 Par ch=1 c=64 v=0
86937 Par ch=1 c=64 v=127
87040 On ch=1 n=c5 v=0
87040 On ch=1 n=a4 v=47
87200 On ch=1 n=a4 v=0
87200 On ch=1 n=c5 v=47
87343 Par ch=1 c=64 v=0
87360 On ch=1 n=c5 v=0
87360 On ch=1 n=a#4 v=57
87411 Par ch=1 c=64 v=127
87840 On ch=1 n=d#4 v=0
87840 On ch=1 n=a#3 v=45
88320 On ch=1 n=a#3 v=0
88320 On ch=1 n=a#4 v=0
88320 Par ch=1 c=64 v=0
88320 On ch=1 n=d#4 v=46
88320 On ch=1 n=d5 v=50
88320 On ch=1 n=a#4 v=46
88480 On ch=1 n=d5 v=0
88480 On ch=1 n=c#5 v=45
88560 On ch=1 n=a#4 v=0
88560 On ch=1 n=d#4 v=0
88620 Par ch=1 c=64 v=127
88640 On ch=1 n=c#5 v=0
88640 On ch=1 n=d5 v=45
88800 On ch=1 n=d5 v=0
88800 On ch=1 n=d#5 v=49
88811 Par ch=1 c=64 v=0
88863 Par ch=1 c=64 v=127
88960 On ch=1 n=d#5 v=0
88960 On ch=1 n=c#5 v=46
89120 On ch=1 n=c#5 v=0
89120 On ch=1 n=d#5 v=46
89280 On ch=1 n=d#5 v=0
89280 On ch=1 n=d5 v=57
89520 On ch=1 n=d5 v=0
89760 On ch=1 n=a#3 v=41
89760 On ch=1 n=a#4 v=50
89767 Par ch=1 c=64 v=0
89831 Par ch=1 c=64 v=127
90240 On ch=1 n=a#4 v=0
90240 On ch=1 n=a#3 v=0
90240 Par ch=1 c=64 v=0
90240 On ch=1 n=d#4 v=45
90240 On ch=1 n=a#4 v=51
90381 Par ch=1 c=64 v=127
90400 On ch=1 n=a#4 v=0
90400 On ch=1 n=a4 v=45
90560 On ch=1 n=a4 v=0
90560 On ch=1 n=a#4 v=45
90720 On ch=1 n=a#4 v=0
90720 On ch=1 n=c5 v=49
90800 Par ch=1 c=64 v=0
90834 Par ch=1 c=64 v=127
90880 On ch=1 n=c5 v=0
90880 On ch=1 n=a4 v=45
91040 On ch=1 n=a4 v=0
91040 On ch=1 n=c5 v=45
91200 On ch=1 n=c5 v=0
91200 On ch=1 n=a#4 v=57
91274 Par ch=1 c=64 v=0
91398 Par ch=1 c=64 v=127
91440 On ch=1 n=a#4 v=0
91680 On ch=1 n=d#4 v=0
91680 On ch=1 n=a#4 v=50
91680 On ch=1 n=a#3 v=41
92160 On ch=1 n=a#3 v=0
92160 On ch=1 n=a#4 v=0
92160 Par ch=1 c=64 v=0
92160 On ch=1 n=d#4 v=46
92160 On ch=1 n=a#4 v=49
92320 On ch=1 n=a#4 v=0
92320 On ch=1 n=a4 v=45
92329 Par ch=1 c=64 v=127
92480 On ch=1 n=a4 v=0
92480 On ch=1 n=a#4 v=45
92640 On ch=1 n=a#4 v=0
92640 On ch=1 n=c5 v=49
92663 Par ch=1 c=64 v=0
92703 Par ch=1 c=64 v=127
92800 On ch=1 n=c5 v=0
92800 On ch=1 n=a4 v=47
92960 On ch=1 n=a4 v=0
92960 On ch=1 n=c5 v=47
93120 On ch=1 n=c5 v=0
93120 On ch=1 n=a#4 v=57
93274 Par ch=1 c=64 v=0
93346 Par ch=1 c=64 v=127
93600 On ch=1 n=d#4 v=0
93600 On ch=1 n=a#3 v=45
93911 Par ch=1 c=64 v=0
94080 On ch=1 n=a#3 v=0
94080 On ch=1 n=a#4 v=0
94080 On ch=1 n=d#4 v=46
94080 On ch=1 n=a#4 v=49
94240 On ch=1 n=a#4 v=0
94240 On ch=1 n=a4 v=45
94249 Par ch=1 c=64 v=127
94400 On ch=1 n=a4 v=0
94400 On ch=1 n=a#4 v=44
94560 On ch=1 n=a#4 v=0
94560 On ch=1 n=c5 v=48
94583 Par ch=1 c=64 v=0
94623 Par ch=1 c=64 v=127
94720 On ch=1 n=c5 v=0
94720 On ch=1 n=a4 v=46
94880 On ch=1 n=a4 v=0
94880 On ch=1 n=c5 v=45
95040 On ch=1 n=c5 v=0
95040 On ch=1 n=a#4 v=54
95206 Par ch=1 c=64 v=0
95266 Par ch=1 c=64 v=127
95520 On ch=1 n=d#4 v=0
95520 On ch=1 n=a#3 v=42
95831 Par ch=1 c=64 v=0
96000 On ch=1 n=a#3 v=0
96000 On ch=1 n=a#4 v=0
96000 On ch=1 n=d#4 v=42
96000 On ch=1 n=a#4 v=45
96160 On ch=1 n=a#4 v=0
96160 On ch=1 n=a4 v=40
96169 Par ch=1 c=64 v=127
96320 On ch=1 n=a4 v=0
96320 On ch=1 n=a#4 v=40
96480 On ch=1 n=a#4 v=0
96480 On ch=1 n=c5 v=44
96503 Par ch=1 c=64 v=0
96543 Par ch=1 c=64 v=127
96640 On ch=1 n=c5 v=0
96640 On ch=1 n=a4 v=41
96800 On ch=1 n=a4 v=0
96800 On ch=1 n=c5 v=41
96960 On ch=1 n=c5 v=0
96960 On ch=1 n=a#4 v=50
97057 Par ch=1 c=64 v=0
97186 Par ch=1 c=64 v=127
97440 On ch=1 n=d#4 v=0
97440 On ch=1 n=a#3 v=47
97751 Par ch=1 c=64 v=0
97920 On ch=1 n=a#3 v=0
97920 On ch=1 n=a#4 v=0
97920 On ch=1 n=a#4 v=41
97920 On ch=1 n=d#4 v=38
98080 On ch=1 n=a#4 v=0
98080 On ch=1 n=a4 v=37
98089 Par ch=1 c=64 v=127
98240 On ch=1 n=a4 v=0
98240 On ch=1 n=a#4 v=36
98400 On ch=1 n=a#4 v=0
98400 On ch=1 n=c5 v=40
98423 Par ch=1 c=64 v=0
98463 Par ch=1 c=64 v=127
98560 On ch=1 n=c5 v=0
98560 On ch=1 n=a4 v=38
98720 On ch=1 n=a4 v=0
98720 On ch=1 n=c5 v=37
98880 On ch=1 n=c5 v=0
98880 On ch=1 n=a#4 v=45
98977 Par ch=1 c=64 v=0
99106 Par ch=1 c=64 v=127
99360 On ch=1 n=d#4 v=0
99360 On ch=1 n=a#3 v=40
99671 Par ch=1 c=64 v=0
99840 On ch=1 n=a#3 v=0
99840 On ch=1 n=a#4 v=0
99840 On ch=1 n=a#4 v=36
99840 On ch=1 n=d#4 v=34
100000 On ch=1 n=a#4 v=0
100000 On ch=1 n=a4 v=33
100009 Par ch=1 c=64 v=127
100080 On ch=1 n=d#4 v=0
100160 On ch=1 n=a4 v=0
100160 On ch=1 n=a#4 v=33
100320 On ch=1 n=a#4 v=0
100320 On ch=1 n=c5 v=35
100343 Par ch=1 c=64 v=0
100383 Par ch=1 c=64 v=127
100480 On ch=1 n=c5 v=0
100480 On ch=1 n=a4 v=34
100640 On ch=1 n=a4 v=0
100640 On ch=1 n=c5 v=33
100800 On ch=1 n=c5 v=0
100800 On ch=1 n=a#4 v=40
100897 Par ch=1 c=64 v=0
101026 Par ch=1 c=64 v=127
101040 On ch=1 n=a#4 v=0
101591 Par ch=1 c=64 v=0
101920 On ch=1 n=f#5 v=33
101929 Par ch=1 c=64 v=127
102080 On ch=1 n=f#5 v=0
102080 On ch=1 n=g5 v=33
102240 On ch=1 n=g5 v=0
102240 On ch=1 n=g#5 v=35
102263 Par ch=1 c=64 v=0
102303 Par ch=1 c=64 v=127
102400 On ch=1 n=g#5 v=0
102400 On ch=1 n=f#5 v=34
102560 On ch=1 n=f#5 v=0
102560 On ch=1 n=g#5 v=33
102720 On ch=1 n=g#5 v=0
102720 On ch=1 n=g5 v=40
102817 Par ch=1 c=64 v=0
102946 Par ch=1 c=64 v=127
102960 On ch=1 n=g5 v=0
103511 Par ch=1 c=64 v=0
103840 On ch=1 n=d6 v=33
103849 Par ch=1 c=64 v=127
104000 On ch=1 n=d6 v=0
104000 On ch=1 n=d#6 v=33
104160 On ch=1 n=d#6 v=0
104160 On ch=1 n=f6 v=35
104183 Par ch=1 c=64 v=0
104223 Par ch=1 c=64 v=127
104320 On ch=1 n=f6 v=0
104320 On ch=1 n=d6 v=34
104480 On ch=1 n=d6 v=0
104480 On ch=1 n=f6 v=33
104640 On ch=1 n=f6 v=0
104640 On ch=1 n=d#6 v=40
104737 Par ch=1 c=64 v=0
104866 Par ch=1 c=64 v=127
104880 On ch=1 n=d#6 v=0
105600 Par ch=1 c=64 v=0
105787 Par ch=1 c=64 v=127
106080 On ch=1 n=a#5 v=26
106080 On ch=1 n=d#5 v=26
106560 On ch=1 n=d#5 v=0
106560 On ch=1 n=a#5 v=0
106560 On ch=1 n=d#5 v=26
106560 On ch=1 n=a#5 v=26
106960 Par ch=1 c=64 v=0
107520 On ch=1 n=a#5 v=0
107520 On ch=1 n=d#5 v=0
107520 Meta TrkEnd
TrkEnd
MTrk
0 Meta 0x21 00
0 Meta TrkName "Tschaikowsky: The Seasons: July"
0 Meta TrkEnd
TrkEnd
MTrk
0 Meta 0x21 00
0 Meta TrkName "Copyright \xffffffa9 2000 by Bernd Kr\xfffffffcger"
0 Meta TrkEnd
TrkEnd
MTrk
0 Meta 0x21 00
0 Meta TrkName "email: bernd.krueger@piano-midi.de"
0 Meta TrkEnd
TrkEnd
MTrk
0 Meta 0x21 00
0 Meta TrkName "http://www.piano-midi.de"
0 Meta TrkEnd
TrkEnd
MTrk
0 Meta 0x21 00
0 Meta TrkName "Edition: 22.10.00"
0 Meta TrkEnd
TrkEnd
MTrk
0 Meta 0x21 00
0 Meta TrkEnd
TrkEnd
