MFile 1 7 120
MTrk
0 Meta SeqName ""
0 TimeSig 3/4 24 8
0 KeySig -5 major
0 Tempo 267857
18360 Tempo 340909
29520 Tempo 357143
30240 Tempo 267857
48960 Tempo 272727
49080 Tempo 277778
49200 Tempo 283019
49320 Tempo 288462
49440 Tempo 294118
49560 Tempo 300000
49680 Tempo 306122
49680 Meta TrkEnd
TrkEnd
MTrk
0 Meta 0x21 00
0 Meta TrkName "Upper Treble"
0 PrCh ch=1 p=0
0 On ch=1 n=g#5 v=60
20 On ch=1 n=a#5 v=60
25 On ch=1 n=g#5 v=0
45 On ch=1 n=a#5 v=0
45 On ch=1 n=g#5 v=60
70 On ch=1 n=g#5 v=0
72 On ch=1 n=a#5 v=60
95 On ch=1 n=g#5 v=60
97 On ch=1 n=a#5 v=0
120 On ch=1 n=g#5 v=0
120 On ch=1 n=g5 v=60
180 On ch=1 n=g5 v=0
180 On ch=1 n=g#5 v=60
240 On ch=1 n=g#5 v=0
240 On ch=1 n=c6 v=60
300 On ch=1 n=c6 v=0
300 On ch=1 n=a#5 v=60
360 On ch=1 n=a#5 v=0
360 On ch=1 n=g5 v=60
420 On ch=1 n=g5 v=0
420 On ch=1 n=g#5 v=60
480 On ch=1 n=g#5 v=0
480 On ch=1 n=a#5 v=60
540 On ch=1 n=a#5 v=0
540 On ch=1 n=g#5 v=60
600 On ch=1 n=g#5 v=0
600 On ch=1 n=c6 v=60
660 On ch=1 n=c6 v=0
660 On ch=1 n=a#5 v=60
720 On ch=1 n=a#5 v=0
720 On ch=1 n=g5 v=60
780 On ch=1 n=g5 v=0
780 On ch=1 n=g#5 v=60
840 On ch=1 n=g#5 v=0
840 On ch=1 n=c6 v=60
900 On ch=1 n=c6 v=0
900 On ch=1 n=a#5 v=60
960 On ch=1 n=a#5 v=0
960 On ch=1 n=g5 v=60
1020 On ch=1 n=g5 v=0
1020 On ch=1 n=g#5 v=60
1080 On ch=1 n=g#5 v=0
1080 On ch=1 n=c6 v=60
1140 On ch=1 n=c6 v=0
1140 On ch=1 n=a#5 v=60
1200 On ch=1 n=a#5 v=0
1200 On ch=1 n=g5 v=60
1260 On ch=1 n=g5 v=0
1260 On ch=1 n=g#5 v=60
1320 On ch=1 n=g#5 v=0
1320 On ch=1 n=c6 v=60
1380 On ch=1 n=c6 v=0
1380 On ch=1 n=a#5 v=60
1440 On ch=1 n=a#5 v=0
1440 On ch=1 n=g5 v=60
1500 On ch=1 n=g5 v=0
1500 On ch=1 n=g#5 v=61
1560 On ch=1 n=g#5 v=0
1560 On ch=1 n=c6 v=63
1620 On ch=1 n=c6 v=0
1620 On ch=1 n=a#5 v=65
1680 On ch=1 n=a#5 v=0
1680 On ch=1 n=g5 v=66
1740 On ch=1 n=g5 v=0
1740 On ch=1 n=g#5 v=68
1800 On ch=1 n=g#5 v=0
1800 On ch=1 n=c6 v=70
1860 On ch=1 n=c6 v=0
1860 On ch=1 n=a#5 v=71
1920 On ch=1 n=a#5 v=0
1920 On ch=1 n=g5 v=73
1980 On ch=1 n=g5 v=0
1980 On ch=1 n=g#5 v=75
2040 On ch=1 n=g#5 v=0
2040 On ch=1 n=c6 v=77
2100 On ch=1 n=c6 v=0
2100 On ch=1 n=a#5 v=78
2160 On ch=1 n=a#5 v=0
2160 On ch=1 n=g5 v=80
2220 On ch=1 n=g5 v=0
2220 On ch=1 n=g#5 v=82
2280 On ch=1 n=g#5 v=0
2280 On ch=1 n=c6 v=83
2340 On ch=1 n=c6 v=0
2340 On ch=1 n=a#5 v=85
2400 On ch=1 n=a#5 v=0
2400 On ch=1 n=g5 v=87
2460 On ch=1 n=g5 v=0
2460 On ch=1 n=g#5 v=89
2520 On ch=1 n=g#5 v=0
2520 On ch=1 n=a#5 v=90
2580 On ch=1 n=a#5 v=0
2580 On ch=1 n=c6 v=92
2640 On ch=1 n=c6 v=0
2640 On ch=1 n=c#6 v=94
2700 On ch=1 n=c#6 v=0
2700 On ch=1 n=d#6 v=95
2760 On ch=1 n=d#6 v=0
2760 On ch=1 n=f6 v=97
2820 On ch=1 n=f6 v=0
2820 On ch=1 n=f#6 v=99
2880 On ch=1 n=f#6 v=0
2880 On ch=1 n=a#6 v=100
3060 On ch=1 n=a#6 v=0
3060 On ch=1 n=g#6 v=95
3120 On ch=1 n=g#6 v=0
3120 On ch=1 n=f#6 v=93
3180 On ch=1 n=f#6 v=0
3180 On ch=1 n=f6 v=92
3240 On ch=1 n=f6 v=0
3240 On ch=1 n=f6 v=90
3300 On ch=1 n=f6 v=0
3300 On ch=1 n=d#6 v=88
3330 On ch=1 n=d#6 v=87
3345 On ch=1 n=d#6 v=0
3345 On ch=1 n=f6 v=87
3360 On ch=1 n=f6 v=0
3360 On ch=1 n=d#6 v=0
3360 On ch=1 n=d#6 v=86
3420 On ch=1 n=d#6 v=0
3420 On ch=1 n=d6 v=85
3480 On ch=1 n=d6 v=0
3480 On ch=1 n=d#6 v=83
3600 On ch=1 n=d#6 v=0
3600 On ch=1 n=a#6 v=80
3780 On ch=1 n=a#6 v=0
3780 On ch=1 n=g#6 v=75
3840 On ch=1 n=g#6 v=0
3840 On ch=1 n=f#6 v=73
3900 On ch=1 n=f#6 v=0
3900 On ch=1 n=f6 v=72
3960 On ch=1 n=f6 v=0
3960 On ch=1 n=f6 v=70
3990 On ch=1 n=d#6 v=69
4005 On ch=1 n=d#6 v=0
4005 On ch=1 n=f6 v=69
4020 On ch=1 n=f6 v=0
4020 On ch=1 n=f6 v=0
4020 On ch=1 n=d#6 v=68
4080 On ch=1 n=d#6 v=0
4080 On ch=1 n=d6 v=66
4140 On ch=1 n=d6 v=0
4140 On ch=1 n=d#6 v=65
4200 On ch=1 n=d#6 v=0
4200 On ch=1 n=f6 v=63
4260 On ch=1 n=f6 v=0
4260 On ch=1 n=a#5 v=61
4320 On ch=1 n=a#5 v=0
4320 On ch=1 n=g5 v=60
4380 On ch=1 n=g5 v=0
4380 On ch=1 n=g#5 v=60
4440 On ch=1 n=g#5 v=0
4440 On ch=1 n=c6 v=60
4500 On ch=1 n=c6 v=0
4500 On ch=1 n=a#5 v=60
4560 On ch=1 n=a#5 v=0
4560 On ch=1 n=g5 v=60
4620 On ch=1 n=g5 v=0
4620 On ch=1 n=g#5 v=60
4680 On ch=1 n=g#5 v=0
4680 On ch=1 n=c6 v=60
4740 On ch=1 n=c6 v=0
4740 On ch=1 n=a#5 v=60
4800 On ch=1 n=a#5 v=0
4800 On ch=1 n=g5 v=60
4860 On ch=1 n=g5 v=0
4860 On ch=1 n=g#5 v=60
4920 On ch=1 n=g#5 v=0
4920 On ch=1 n=c6 v=60
4980 On ch=1 n=c6 v=0
4980 On ch=1 n=a#5 v=60
5040 On ch=1 n=a#5 v=0
5040 On ch=1 n=g5 v=60
5100 On ch=1 n=g5 v=0
5100 On ch=1 n=g#5 v=61
5160 On ch=1 n=g#5 v=0
5160 On ch=1 n=c6 v=63
5220 On ch=1 n=c6 v=0
5220 On ch=1 n=a#5 v=65
5280 On ch=1 n=a#5 v=0
5280 On ch=1 n=g5 v=67
5340 On ch=1 n=g5 v=0
5340 On ch=1 n=g#5 v=68
5400 On ch=1 n=g#5 v=0
5400 On ch=1 n=a#5 v=70
5460 On ch=1 n=a#5 v=0
5460 On ch=1 n=c6 v=72
5520 On ch=1 n=c6 v=0
5520 On ch=1 n=c#6 v=74
5580 On ch=1 n=c#6 v=0
5580 On ch=1 n=d#6 v=75
5640 On ch=1 n=d#6 v=0
5640 On ch=1 n=f6 v=77
5700 On ch=1 n=f6 v=0
5700 On ch=1 n=f#6 v=79
5760 On ch=1 n=f#6 v=0
5760 On ch=1 n=a#6 v=80
5940 On ch=1 n=a#6 v=0
5940 On ch=1 n=g#6 v=75
6000 On ch=1 n=g#6 v=0
6000 On ch=1 n=f#6 v=73
6060 On ch=1 n=f#6 v=0
6060 On ch=1 n=f6 v=72
6120 On ch=1 n=f6 v=0
6120 On ch=1 n=f6 v=70
6180 On ch=1 n=f6 v=0
6180 On ch=1 n=d#6 v=68
6210 On ch=1 n=d#6 v=67
6225 On ch=1 n=d#6 v=0
6225 On ch=1 n=f6 v=67
6240 On ch=1 n=f6 v=0
6240 On ch=1 n=d#6 v=0
6240 On ch=1 n=d#6 v=66
6300 On ch=1 n=d#6 v=0
6300 On ch=1 n=d6 v=65
6360 On ch=1 n=d6 v=0
6360 On ch=1 n=d#6 v=63
6480 On ch=1 n=d#6 v=0
6480 On ch=1 n=a#6 v=60
6660 On ch=1 n=a#6 v=0
6660 On ch=1 n=g#6 v=60
6720 On ch=1 n=g#6 v=0
6720 On ch=1 n=f#6 v=60
6780 On ch=1 n=f#6 v=0
6780 On ch=1 n=f6 v=60
6840 On ch=1 n=f6 v=0
6840 On ch=1 n=d#6 v=60
6900 On ch=1 n=d#6 v=0
6900 On ch=1 n=f6 v=61
6930 On ch=1 n=d#6 v=62
6945 On ch=1 n=d#6 v=0
6945 On ch=1 n=f6 v=63
6960 On ch=1 n=f6 v=0
6960 On ch=1 n=f6 v=0
6960 On ch=1 n=d#6 v=63
7020 On ch=1 n=d#6 v=0
7020 On ch=1 n=d6 v=65
7080 On ch=1 n=d6 v=0
7080 On ch=1 n=d#6 v=67
7140 On ch=1 n=d#6 v=0
7140 On ch=1 n=e6 v=69
7200 On ch=1 n=e6 v=0
7200 On ch=1 n=f6 v=70
7240 On ch=1 n=f6 v=0
7240 On ch=1 n=f#6 v=70
7280 On ch=1 n=f#6 v=0
7280 On ch=1 n=f6 v=71
7320 On ch=1 n=f6 v=0
7320 On ch=1 n=e6 v=72
7380 On ch=1 n=e6 v=0
7380 On ch=1 n=f6 v=73
7440 On ch=1 n=f6 v=0
7440 On ch=1 n=g#6 v=75
7500 On ch=1 n=g#6 v=0
7500 On ch=1 n=f#6 v=76
7560 On ch=1 n=f#6 v=0
7560 On ch=1 n=f6 v=77
7620 On ch=1 n=f6 v=0
7620 On ch=1 n=f#6 v=79
7680 On ch=1 n=f#6 v=0
7680 On ch=1 n=f6 v=80
7740 On ch=1 n=f6 v=0
7740 On ch=1 n=e6 v=81
7800 On ch=1 n=e6 v=0
7800 On ch=1 n=f6 v=83
7860 On ch=1 n=f6 v=0
7860 On ch=1 n=a#6 v=84
7920 On ch=1 n=a#6 v=0
7920 On ch=1 n=g#6 v=85
7960 On ch=1 n=g#6 v=0
7960 On ch=1 n=a#6 v=86
8000 On ch=1 n=a#6 v=0
8000 On ch=1 n=g#6 v=87
8040 On ch=1 n=g#6 v=0
8040 On ch=1 n=g6 v=88
8100 On ch=1 n=g6 v=0
8100 On ch=1 n=g#6 v=89
8160 On ch=1 n=g#6 v=0
8160 On ch=1 n=c7 v=90
8220 On ch=1 n=c7 v=0
8220 On ch=1 n=a#6 v=92
8280 On ch=1 n=a#6 v=0
8280 On ch=1 n=g#6 v=93
8340 On ch=1 n=g#6 v=0
8340 On ch=1 n=a#6 v=94
8400 On ch=1 n=a#6 v=0
8400 On ch=1 n=g#6 v=96
8460 On ch=1 n=g#6 v=0
8460 On ch=1 n=g6 v=97
8520 On ch=1 n=g6 v=0
8520 On ch=1 n=g#6 v=98
8580 On ch=1 n=g#6 v=0
8580 On ch=1 n=c#7 v=99
8640 On ch=1 n=c#7 v=0
8640 On ch=1 n=c7 v=100
8700 On ch=1 n=c7 v=0
8700 On ch=1 n=a#6 v=99
8760 On ch=1 n=a#6 v=0
8760 On ch=1 n=g#6 v=97
8820 On ch=1 n=g#6 v=0
8820 On ch=1 n=f#6 v=95
8880 On ch=1 n=f#6 v=0
8880 On ch=1 n=f6 v=93
8940 On ch=1 n=f6 v=0
8940 On ch=1 n=d#6 v=92
9000 On ch=1 n=d#6 v=0
9000 On ch=1 n=c#6 v=90
9060 On ch=1 n=c#6 v=0
9060 On ch=1 n=c6 v=88
9120 On ch=1 n=c6 v=0
9120 On ch=1 n=a#5 v=86
9180 On ch=1 n=a#5 v=0
9180 On ch=1 n=g#5 v=85
9240 On ch=1 n=g#5 v=0
9240 On ch=1 n=f#5 v=83
9300 On ch=1 n=f#5 v=0
9300 On ch=1 n=f5 v=81
9360 On ch=1 n=f5 v=0
9360 On ch=1 n=d#5 v=80
9420 On ch=1 n=d#5 v=0
9420 On ch=1 n=c#5 v=80
9480 On ch=1 n=c#5 v=0
9480 On ch=1 n=c5 v=80
9540 On ch=1 n=c5 v=0
9540 On ch=1 n=d#5 v=80
9600 On ch=1 n=d#5 v=0
9600 On ch=1 n=a#5 v=80
9660 On ch=1 n=a#5 v=0
9660 On ch=1 n=g#5 v=80
9720 On ch=1 n=g#5 v=0
9720 On ch=1 n=g5 v=80
9780 On ch=1 n=g5 v=0
9780 On ch=1 n=g#5 v=81
9840 On ch=1 n=g#5 v=0
9840 On ch=1 n=a#5 v=83
9900 On ch=1 n=a#5 v=0
9900 On ch=1 n=c6 v=85
9960 On ch=1 n=c6 v=0
9960 On ch=1 n=c#6 v=87
10020 On ch=1 n=c#6 v=0
10020 On ch=1 n=d#6 v=89
10080 On ch=1 n=d#6 v=0
10080 On ch=1 n=f6 v=90
10120 On ch=1 n=f6 v=0
10120 On ch=1 n=f#6 v=90
10160 On ch=1 n=f#6 v=0
10160 On ch=1 n=f6 v=90
10200 On ch=1 n=f6 v=0
10200 On ch=1 n=e6 v=90
10260 On ch=1 n=e6 v=0
10260 On ch=1 n=f6 v=90
10320 On ch=1 n=f6 v=0
10320 On ch=1 n=g#6 v=90
10380 On ch=1 n=g#6 v=0
10380 On ch=1 n=f#6 v=90
10440 On ch=1 n=f#6 v=0
10440 On ch=1 n=f6 v=90
10500 On ch=1 n=f6 v=0
10500 On ch=1 n=f#6 v=90
10560 On ch=1 n=f#6 v=0
10560 On ch=1 n=f6 v=90
10620 On ch=1 n=f6 v=0
10620 On ch=1 n=e6 v=90
10680 On ch=1 n=e6 v=0
10680 On ch=1 n=f6 v=90
10740 On ch=1 n=f6 v=0
10740 On ch=1 n=a#6 v=90
10800 On ch=1 n=a#6 v=0
10800 On ch=1 n=g#6 v=90
10840 On ch=1 n=g#6 v=0
10840 On ch=1 n=a#6 v=90
10880 On ch=1 n=a#6 v=0
10880 On ch=1 n=g#6 v=91
10920 On ch=1 n=g#6 v=0
10920 On ch=1 n=g6 v=91
10980 On ch=1 n=g6 v=0
10980 On ch=1 n=g#6 v=92
11040 On ch=1 n=g#6 v=0
11040 On ch=1 n=c7 v=93
11100 On ch=1 n=c7 v=0
11100 On ch=1 n=a#6 v=94
11160 On ch=1 n=a#6 v=0
11160 On ch=1 n=g#6 v=95
11220 On ch=1 n=g#6 v=0
11220 On ch=1 n=a#6 v=96
11280 On ch=1 n=a#6 v=0
11280 On ch=1 n=g#6 v=97
11340 On ch=1 n=g#6 v=0
11340 On ch=1 n=g6 v=98
11400 On ch=1 n=g6 v=0
11400 On ch=1 n=g#6 v=99
11460 On ch=1 n=g#6 v=0
11460 On ch=1 n=f7 v=100
11520 On ch=1 n=f7 v=0
11520 On ch=1 n=d#7 v=100
11580 On ch=1 n=d#7 v=0
11580 On ch=1 n=c#7 v=99
11640 On ch=1 n=c#7 v=0
11640 On ch=1 n=c7 v=98
11700 On ch=1 n=c7 v=0
11700 On ch=1 n=a#6 v=97
11760 On ch=1 n=a#6 v=0
11760 On ch=1 n=g#6 v=95
11820 On ch=1 n=g#6 v=0
11820 On ch=1 n=f#6 v=94
11880 On ch=1 n=f#6 v=0
11880 On ch=1 n=f6 v=93
11940 On ch=1 n=f6 v=0
11940 On ch=1 n=d#6 v=91
12000 On ch=1 n=d#6 v=0
12000 On ch=1 n=c#6 v=90
12060 On ch=1 n=c#6 v=0
12060 On ch=1 n=c6 v=89
12120 On ch=1 n=c6 v=0
12120 On ch=1 n=a#5 v=87
12180 On ch=1 n=a#5 v=0
12180 On ch=1 n=g#5 v=86
12240 On ch=1 n=g#5 v=0
12240 On ch=1 n=a5 v=85
12300 On ch=1 n=a5 v=0
12300 On ch=1 n=c6 v=84
12360 On ch=1 n=c6 v=0
12360 On ch=1 n=a#5 v=82
12420 On ch=1 n=a#5 v=0
12420 On ch=1 n=f5 v=81
12480 On ch=1 n=f5 v=0
12480 On ch=1 n=f#5 v=80
12540 On ch=1 n=f#5 v=0
12540 On ch=1 n=c5 v=78
12600 On ch=1 n=c5 v=0
12600 On ch=1 n=c#5 v=77
12720 On ch=1 n=c#5 v=0
12840 On ch=1 n=f6 v=72
13000 On ch=1 n=f6 v=0
13000 On ch=1 n=f#6 v=70
13040 On ch=1 n=f#6 v=0
13040 On ch=1 n=f6 v=71
13080 On ch=1 n=f6 v=0
13080 On ch=1 n=e6 v=72
13140 On ch=1 n=e6 v=0
13140 On ch=1 n=f6 v=73
13200 On ch=1 n=f6 v=0
13200 On ch=1 n=g#6 v=75
13260 On ch=1 n=g#6 v=0
13260 On ch=1 n=f#6 v=76
13320 On ch=1 n=f#6 v=0
13320 On ch=1 n=f6 v=77
13380 On ch=1 n=f6 v=0
13380 On ch=1 n=f#6 v=79
13440 On ch=1 n=f#6 v=0
13440 On ch=1 n=f6 v=80
13500 On ch=1 n=f6 v=0
13500 On ch=1 n=e6 v=81
13560 On ch=1 n=e6 v=0
13560 On ch=1 n=f6 v=83
13620 On ch=1 n=f6 v=0
13620 On ch=1 n=a#6 v=84
13680 On ch=1 n=a#6 v=0
13680 On ch=1 n=g#6 v=85
13720 On ch=1 n=g#6 v=0
13720 On ch=1 n=a#6 v=86
13760 On ch=1 n=a#6 v=0
13760 On ch=1 n=g#6 v=87
13800 On ch=1 n=g#6 v=0
13800 On ch=1 n=g6 v=88
13860 On ch=1 n=g6 v=0
13860 On ch=1 n=g#6 v=89
13920 On ch=1 n=g#6 v=0
13920 On ch=1 n=c7 v=90
13980 On ch=1 n=c7 v=0
13980 On ch=1 n=a#6 v=92
14040 On ch=1 n=a#6 v=0
14040 On ch=1 n=g#6 v=93
14100 On ch=1 n=g#6 v=0
14100 On ch=1 n=a#6 v=94
14160 On ch=1 n=a#6 v=0
14160 On ch=1 n=g#6 v=96
14220 On ch=1 n=g#6 v=0
14220 On ch=1 n=g6 v=97
14280 On ch=1 n=g6 v=0
14280 On ch=1 n=g#6 v=98
14340 On ch=1 n=g#6 v=0
14340 On ch=1 n=c#7 v=99
14400 On ch=1 n=c#7 v=0
14400 On ch=1 n=c7 v=100
14460 On ch=1 n=c7 v=0
14460 On ch=1 n=a#6 v=99
14520 On ch=1 n=a#6 v=0
14520 On ch=1 n=g#6 v=97
14580 On ch=1 n=g#6 v=0
14580 On ch=1 n=f#6 v=95
14640 On ch=1 n=f#6 v=0
14640 On ch=1 n=f6 v=93
14700 On ch=1 n=f6 v=0
14700 On ch=1 n=d#6 v=92
14760 On ch=1 n=d#6 v=0
14760 On ch=1 n=c#6 v=90
14820 On ch=1 n=c#6 v=0
14820 On ch=1 n=c6 v=88
14880 On ch=1 n=c6 v=0
14880 On ch=1 n=a#5 v=86
14940 On ch=1 n=a#5 v=0
14940 On ch=1 n=g#5 v=85
15000 On ch=1 n=g#5 v=0
15000 On ch=1 n=f#5 v=83
15060 On ch=1 n=f#5 v=0
15060 On ch=1 n=f5 v=81
15120 On ch=1 n=f5 v=0
15120 On ch=1 n=d#5 v=80
15180 On ch=1 n=d#5 v=0
15180 On ch=1 n=c#5 v=80
15240 On ch=1 n=c#5 v=0
15240 On ch=1 n=c5 v=80
15300 On ch=1 n=c5 v=0
15300 On ch=1 n=d#5 v=80
15360 On ch=1 n=d#5 v=0
15360 On ch=1 n=a#5 v=80
15420 On ch=1 n=a#5 v=0
15420 On ch=1 n=g#5 v=80
15480 On ch=1 n=g#5 v=0
15480 On ch=1 n=g5 v=80
15540 On ch=1 n=g5 v=0
15540 On ch=1 n=g#5 v=81
15600 On ch=1 n=g#5 v=0
15600 On ch=1 n=a#5 v=83
15660 On ch=1 n=a#5 v=0
15660 On ch=1 n=c6 v=85
15720 On ch=1 n=c6 v=0
15720 On ch=1 n=c#6 v=87
15780 On ch=1 n=c#6 v=0
15780 On ch=1 n=d#6 v=89
15840 On ch=1 n=d#6 v=0
15840 On ch=1 n=f6 v=90
15880 On ch=1 n=f6 v=0
15880 On ch=1 n=f#6 v=90
15920 On ch=1 n=f#6 v=0
15920 On ch=1 n=f6 v=90
15960 On ch=1 n=f6 v=0
15960 On ch=1 n=e6 v=90
16020 On ch=1 n=e6 v=0
16020 On ch=1 n=f6 v=90
16080 On ch=1 n=f6 v=0
16080 On ch=1 n=g#6 v=90
16140 On ch=1 n=g#6 v=0
16140 On ch=1 n=f#6 v=90
16200 On ch=1 n=f#6 v=0
16200 On ch=1 n=f6 v=90
16260 On ch=1 n=f6 v=0
16260 On ch=1 n=f#6 v=90
16320 On ch=1 n=f#6 v=0
16320 On ch=1 n=f6 v=90
16380 On ch=1 n=f6 v=0
16380 On ch=1 n=e6 v=90
16440 On ch=1 n=e6 v=0
16440 On ch=1 n=f6 v=90
16500 On ch=1 n=f6 v=0
16500 On ch=1 n=a#6 v=90
16560 On ch=1 n=a#6 v=0
16560 On ch=1 n=g#6 v=90
16600 On ch=1 n=g#6 v=0
16600 On ch=1 n=a#6 v=90
16640 On ch=1 n=a#6 v=0
16640 On ch=1 n=g#6 v=91
16680 On ch=1 n=g#6 v=0
16680 On ch=1 n=g6 v=91
16740 On ch=1 n=g6 v=0
16740 On ch=1 n=g#6 v=92
16800 On ch=1 n=g#6 v=0
16800 On ch=1 n=c7 v=93
16860 On ch=1 n=c7 v=0
16860 On ch=1 n=a#6 v=94
16920 On ch=1 n=a#6 v=0
16920 On ch=1 n=g#6 v=95
16980 On ch=1 n=g#6 v=0
16980 On ch=1 n=a#6 v=96
17040 On ch=1 n=a#6 v=0
17040 On ch=1 n=g#6 v=97
17100 On ch=1 n=g#6 v=0
17100 On ch=1 n=g6 v=98
17160 On ch=1 n=g6 v=0
17160 On ch=1 n=g#6 v=99
17220 On ch=1 n=g#6 v=0
17220 On ch=1 n=f7 v=100
17280 On ch=1 n=f7 v=0
17280 On ch=1 n=d#7 v=100
17340 On ch=1 n=d#7 v=0
17340 On ch=1 n=c#7 v=99
17400 On ch=1 n=c#7 v=0
17400 On ch=1 n=c7 v=97
17460 On ch=1 n=c7 v=0
17460 On ch=1 n=a#6 v=95
17520 On ch=1 n=a#6 v=0
17520 On ch=1 n=g#6 v=93
17580 On ch=1 n=g#6 v=0
17580 On ch=1 n=f#6 v=91
17640 On ch=1 n=f#6 v=0
17640 On ch=1 n=f6 v=89
17700 On ch=1 n=f6 v=0
17700 On ch=1 n=d#6 v=87
17760 On ch=1 n=d#6 v=0
17760 On ch=1 n=c#6 v=86
17820 On ch=1 n=c#6 v=0
17820 On ch=1 n=c6 v=84
17880 On ch=1 n=c6 v=0
17880 On ch=1 n=a#5 v=82
17940 On ch=1 n=a#5 v=0
17940 On ch=1 n=g#5 v=80
18000 On ch=1 n=g#5 v=0
18000 On ch=1 n=a5 v=78
18060 On ch=1 n=a5 v=0
18060 On ch=1 n=c6 v=76
18120 On ch=1 n=c6 v=0
18120 On ch=1 n=a#5 v=74
18180 On ch=1 n=a#5 v=0
18180 On ch=1 n=f5 v=72
18240 On ch=1 n=f5 v=0
18240 On ch=1 n=f#5 v=71
18300 On ch=1 n=f#5 v=0
18300 On ch=1 n=c5 v=69
18360 On ch=1 n=c5 v=0
18360 On ch=1 n=c#5 v=67
18480 On ch=1 n=c#5 v=0
18600 On ch=1 n=g#5 v=60
18960 On ch=1 n=g#5 v=0
18960 On ch=1 n=d#5 v=60
19080 On ch=1 n=d#5 v=0
19080 On ch=1 n=g#5 v=60
19320 On ch=1 n=g#5 v=0
19320 On ch=1 n=e5 v=60
19440 On ch=1 n=e5 v=0
19440 On ch=1 n=g#5 v=60
19680 On ch=1 n=g#5 v=0
19680 On ch=1 n=f5 v=67
19800 On ch=1 n=f5 v=0
19800 On ch=1 n=f6 v=70
20040 On ch=1 n=f6 v=0
20040 On ch=1 n=f6 v=77
20400 On ch=1 n=f6 v=0
20400 On ch=1 n=a#5 v=80
20520 On ch=1 n=a#5 v=0
20520 On ch=1 n=f6 v=80
20760 On ch=1 n=f6 v=0
20760 On ch=1 n=c6 v=80
20880 On ch=1 n=c6 v=0
20880 On ch=1 n=d#6 v=80
21120 On ch=1 n=d#6 v=0
21120 On ch=1 n=c#6 v=73
21240 On ch=1 n=c#6 v=0
21240 On ch=1 n=c6 v=70
21330 On ch=1 n=c6 v=0
21330 On ch=1 n=d#6 v=67
21420 On ch=1 n=d#6 v=0
21420 On ch=1 n=c#6 v=65
21510 On ch=1 n=c#6 v=0
21510 On ch=1 n=a#5 v=62
21600 On ch=1 n=a#5 v=0
21600 On ch=1 n=g#5 v=60
21840 On ch=1 n=g#5 v=0
21840 On ch=1 n=d#5 v=63
21960 On ch=1 n=d#5 v=0
21960 On ch=1 n=g#5 v=65
22200 On ch=1 n=g#5 v=0
22200 On ch=1 n=e5 v=68
22320 On ch=1 n=e5 v=0
22320 On ch=1 n=g#5 v=70
22560 On ch=1 n=g#5 v=0
22560 On ch=1 n=f5 v=74
22680 On ch=1 n=f5 v=0
22680 On ch=1 n=f6 v=75
23040 On ch=1 n=f6 v=0
23040 On ch=1 n=c6 v=80
23080 On ch=1 n=c6 v=0
23080 On ch=1 n=c#6 v=80
23120 On ch=1 n=c#6 v=0
23120 On ch=1 n=c6 v=80
23160 On ch=1 n=c6 v=0
23160 On ch=1 n=b5 v=80
23280 On ch=1 n=b5 v=0
23280 On ch=1 n=c6 v=80
23400 On ch=1 n=c6 v=0
23400 On ch=1 n=g#6 v=80
23520 On ch=1 n=g#6 v=0
23520 On ch=1 n=a#5 v=80
23640 On ch=1 n=a#5 v=0
23640 On ch=1 n=g6 v=80
23760 On ch=1 n=g6 v=0
23760 On ch=1 n=a5 v=80
23880 On ch=1 n=a5 v=0
23880 On ch=1 n=f#6 v=78
24000 On ch=1 n=f#6 v=0
24000 On ch=1 n=g#5 v=75
24120 On ch=1 n=g#5 v=0
24120 On ch=1 n=f6 v=73
24240 On ch=1 n=f6 v=0
24240 On ch=1 n=f5 v=70
24360 On ch=1 n=f5 v=0
24360 On ch=1 n=a#5 v=67
24480 On ch=1 n=a#5 v=0
24480 On ch=1 n=g#5 v=65
24720 On ch=1 n=g#5 v=0
24720 On ch=1 n=d#5 v=60
24825 On ch=1 n=g#6 v=60
24840 On ch=1 n=g#6 v=0
24840 On ch=1 n=d#5 v=0
24840 On ch=1 n=g#5 v=60
25080 On ch=1 n=g#5 v=0
25080 On ch=1 n=e5 v=60
25185 On ch=1 n=g#6 v=60
25200 On ch=1 n=g#6 v=0
25200 On ch=1 n=e5 v=0
25200 On ch=1 n=g#5 v=60
25440 On ch=1 n=g#5 v=0
25440 On ch=1 n=f5 v=60
25545 On ch=1 n=g#6 v=60
25560 On ch=1 n=g#6 v=0
25560 On ch=1 n=f5 v=0
25560 On ch=1 n=f6 v=60
25800 On ch=1 n=f6 v=0
25800 On ch=1 n=f6 v=60
25905 On ch=1 n=g#6 v=60
25920 On ch=1 n=g#6 v=0
25920 On ch=1 n=f6 v=0
25920 On ch=1 n=f6 v=60
26160 On ch=1 n=f6 v=0
26160 On ch=1 n=a#5 v=60
26265 On ch=1 n=g#6 v=60
26280 On ch=1 n=g#6 v=0
26280 On ch=1 n=a#5 v=0
26280 On ch=1 n=f6 v=60
26520 On ch=1 n=f6 v=0
26520 On ch=1 n=c6 v=60
26625 On ch=1 n=g#6 v=60
26640 On ch=1 n=g#6 v=0
26640 On ch=1 n=c6 v=0
26640 On ch=1 n=d#6 v=60
26760 On ch=1 n=d#6 v=0
26760 On ch=1 n=c#6 v=60
26880 On ch=1 n=c#6 v=0
26880 On ch=1 n=c6 v=60
26985 On ch=1 n=g#6 v=60
27000 On ch=1 n=g#6 v=0
27000 On ch=1 n=c6 v=0
27000 On ch=1 n=d#6 v=60
27120 On ch=1 n=d#6 v=0
27120 On ch=1 n=c#6 v=60
27300 On ch=1 n=c#6 v=0
27300 On ch=1 n=a#5 v=60
27345 On ch=1 n=g#6 v=60
27360 On ch=1 n=g#6 v=0
27360 On ch=1 n=a#5 v=0
27360 On ch=1 n=g#5 v=60
27600 On ch=1 n=g#5 v=0
27600 On ch=1 n=d#5 v=60
27705 On ch=1 n=g#6 v=60
27720 On ch=1 n=g#6 v=0
27720 On ch=1 n=d#5 v=0
27720 On ch=1 n=g#5 v=60
27960 On ch=1 n=g#5 v=0
27960 On ch=1 n=e5 v=60
28065 On ch=1 n=g#6 v=60
28080 On ch=1 n=g#6 v=0
28080 On ch=1 n=e5 v=0
28080 On ch=1 n=g#5 v=60
28320 On ch=1 n=g#5 v=0
28320 On ch=1 n=f5 v=68
28440 On ch=1 n=f5 v=0
28440 On ch=1 n=f6 v=72
28800 On ch=1 n=f6 v=0
28800 On ch=1 n=f6 v=80
29040 On ch=1 n=f6 v=0
29040 On ch=1 n=a#5 v=73
29160 On ch=1 n=a#5 v=0
29160 On ch=1 n=d#6 v=70
29400 On ch=1 n=d#6 v=0
29400 On ch=1 n=a5 v=63
29520 On ch=1 n=a5 v=0
29520 On ch=1 n=d#6 v=60
29640 On ch=1 n=d#6 v=0
29640 On ch=1 n=g#5 v=62
29760 On ch=1 n=g#5 v=0
29760 On ch=1 n=d6 v=64
29880 On ch=1 n=d6 v=0
29880 On ch=1 n=f6 v=66
30000 On ch=1 n=f6 v=0
30000 On ch=1 n=d#6 v=68
30120 On ch=1 n=d#6 v=0
30120 On ch=1 n=g#6 v=70
30240 On ch=1 n=g#6 v=0
30240 On ch=1 n=g#5 v=60
30300 On ch=1 n=g#5 v=0
30300 On ch=1 n=a#5 v=60
30360 On ch=1 n=a#5 v=0
30360 On ch=1 n=g#5 v=60
30400 On ch=1 n=g#5 v=0
30400 On ch=1 n=a#5 v=60
30440 On ch=1 n=a#5 v=0
30440 On ch=1 n=g#5 v=60
30480 On ch=1 n=g#5 v=0
30480 On ch=1 n=a#5 v=60
30510 On ch=1 n=a#5 v=0
30510 On ch=1 n=g#5 v=60
30540 On ch=1 n=g#5 v=0
30540 On ch=1 n=a#5 v=60
30570 On ch=1 n=a#5 v=0
30570 On ch=1 n=g#5 v=60
30600 On ch=1 n=g#5 v=0
30600 On ch=1 n=a#5 v=60
30630 On ch=1 n=a#5 v=0
30630 On ch=1 n=g#5 v=60
30660 On ch=1 n=g#5 v=0
30660 On ch=1 n=a#5 v=60
30690 On ch=1 n=a#5 v=0
30690 On ch=1 n=g#5 v=60
30720 On ch=1 n=g#5 v=0
30720 On ch=1 n=a#5 v=60
30750 On ch=1 n=a#5 v=0
30750 On ch=1 n=g#5 v=60
30780 On ch=1 n=g#5 v=0
30780 On ch=1 n=a#5 v=60
30810 On ch=1 n=a#5 v=0
30810 On ch=1 n=g#5 v=60
30840 On ch=1 n=g#5 v=0
30840 On ch=1 n=a#5 v=60
30870 On ch=1 n=a#5 v=0
30870 On ch=1 n=g#5 v=60
30900 On ch=1 n=g#5 v=0
30900 On ch=1 n=a#5 v=60
30930 On ch=1 n=a#5 v=0
30930 On ch=1 n=g#5 v=60
30960 On ch=1 n=g#5 v=0
30960 On ch=1 n=a#5 v=60
30990 On ch=1 n=a#5 v=0
30990 On ch=1 n=g#5 v=60
31020 On ch=1 n=g#5 v=0
31020 On ch=1 n=a#5 v=61
31050 On ch=1 n=a#5 v=0
31050 On ch=1 n=g#5 v=61
31080 On ch=1 n=g#5 v=0
31080 On ch=1 n=a#5 v=62
31110 On ch=1 n=a#5 v=0
31110 On ch=1 n=g#5 v=62
31140 On ch=1 n=g#5 v=0
31140 On ch=1 n=a#5 v=63
31170 On ch=1 n=a#5 v=0
31170 On ch=1 n=g#5 v=64
31200 On ch=1 n=g#5 v=0
31200 On ch=1 n=a#5 v=64
31230 On ch=1 n=a#5 v=0
31230 On ch=1 n=g#5 v=65
31260 On ch=1 n=g#5 v=0
31260 On ch=1 n=a#5 v=65
31290 On ch=1 n=a#5 v=0
31290 On ch=1 n=g#5 v=66
31320 On ch=1 n=g#5 v=0
31320 On ch=1 n=a#5 v=66
31350 On ch=1 n=a#5 v=0
31350 On ch=1 n=g#5 v=67
31380 On ch=1 n=g#5 v=0
31380 On ch=1 n=a#5 v=68
31410 On ch=1 n=a#5 v=0
31410 On ch=1 n=g#5 v=68
31440 On ch=1 n=g#5 v=0
31440 On ch=1 n=a#5 v=69
31480 On ch=1 n=a#5 v=0
31480 On ch=1 n=g#5 v=69
31520 On ch=1 n=g#5 v=0
31520 On ch=1 n=a#5 v=70
31560 On ch=1 n=a#5 v=0
31560 On ch=1 n=g#5 v=71
31600 On ch=1 n=g#5 v=0
31600 On ch=1 n=a#5 v=72
31640 On ch=1 n=a#5 v=0
31640 On ch=1 n=g#5 v=73
31680 On ch=1 n=g#5 v=0
31680 On ch=1 n=g5 v=73
31740 On ch=1 n=g5 v=0
31740 On ch=1 n=g#5 v=74
31800 On ch=1 n=g#5 v=0
31800 On ch=1 n=c6 v=76
31860 On ch=1 n=c6 v=0
31860 On ch=1 n=a#5 v=77
31920 On ch=1 n=a#5 v=0
31920 On ch=1 n=g5 v=78
31980 On ch=1 n=g5 v=0
31980 On ch=1 n=g#5 v=79
32040 On ch=1 n=g#5 v=0
32040 On ch=1 n=c6 v=80
32100 On ch=1 n=c6 v=0
32100 On ch=1 n=a#5 v=81
32160 On ch=1 n=a#5 v=0
32160 On ch=1 n=g5 v=83
32220 On ch=1 n=g5 v=0
32220 On ch=1 n=g#5 v=84
32280 On ch=1 n=g#5 v=0
32280 On ch=1 n=c6 v=85
32340 On ch=1 n=c6 v=0
32340 On ch=1 n=a#5 v=86
32400 On ch=1 n=a#5 v=0
32400 On ch=1 n=g5 v=87
32460 On ch=1 n=g5 v=0
32460 On ch=1 n=g#5 v=88
32520 On ch=1 n=g#5 v=0
32520 On ch=1 n=c6 v=89
32580 On ch=1 n=c6 v=0
32580 On ch=1 n=a#5 v=91
32640 On ch=1 n=a#5 v=0
32640 On ch=1 n=g5 v=92
32700 On ch=1 n=g5 v=0
32700 On ch=1 n=g#5 v=93
32760 On ch=1 n=g#5 v=0
32760 On ch=1 n=c6 v=94
32820 On ch=1 n=c6 v=0
32820 On ch=1 n=a#5 v=95
32880 On ch=1 n=a#5 v=0
32880 On ch=1 n=g5 v=96
32940 On ch=1 n=g5 v=0
32940 On ch=1 n=g#5 v=98
33000 On ch=1 n=g#5 v=0
33000 On ch=1 n=c6 v=99
33060 On ch=1 n=c6 v=0
33060 On ch=1 n=a#5 v=100
33120 On ch=1 n=a#5 v=0
33120 On ch=1 n=g5 v=100
33180 On ch=1 n=g5 v=0
33180 On ch=1 n=g#5 v=100
33240 On ch=1 n=g#5 v=0
33240 On ch=1 n=c6 v=100
33300 On ch=1 n=c6 v=0
33300 On ch=1 n=a#5 v=100
33360 On ch=1 n=a#5 v=0
33360 On ch=1 n=g5 v=100
33420 On ch=1 n=g5 v=0
33420 On ch=1 n=g#5 v=100
33480 On ch=1 n=g#5 v=0
33480 On ch=1 n=c6 v=100
33540 On ch=1 n=c6 v=0
33540 On ch=1 n=a#5 v=100
33600 On ch=1 n=a#5 v=0
33600 On ch=1 n=g5 v=100
33660 On ch=1 n=g5 v=0
33660 On ch=1 n=g#5 v=100
33720 On ch=1 n=g#5 v=0
33720 On ch=1 n=c6 v=100
33780 On ch=1 n=c6 v=0
33780 On ch=1 n=a#5 v=100
33840 On ch=1 n=a#5 v=0
33840 On ch=1 n=g5 v=100
33900 On ch=1 n=g5 v=0
33900 On ch=1 n=g#5 v=100
33960 On ch=1 n=g#5 v=0
33960 On ch=1 n=c6 v=100
34020 On ch=1 n=c6 v=0
34020 On ch=1 n=a#5 v=100
34080 On ch=1 n=a#5 v=0
34080 On ch=1 n=g5 v=100
34140 On ch=1 n=g5 v=0
34140 On ch=1 n=g#5 v=100
34200 On ch=1 n=g#5 v=0
34200 On ch=1 n=a#5 v=100
34260 On ch=1 n=a#5 v=0
34260 On ch=1 n=c6 v=100
34320 On ch=1 n=c6 v=0
34320 On ch=1 n=c#6 v=100
34380 On ch=1 n=c#6 v=0
34380 On ch=1 n=d#6 v=100
34440 On ch=1 n=d#6 v=0
34440 On ch=1 n=f6 v=100
34500 On ch=1 n=f6 v=0
34500 On ch=1 n=f#6 v=100
34560 On ch=1 n=f#6 v=0
34560 On ch=1 n=a#6 v=100
34740 On ch=1 n=a#6 v=0
34740 On ch=1 n=g#6 v=95
34800 On ch=1 n=g#6 v=0
34800 On ch=1 n=f#6 v=94
34860 On ch=1 n=f#6 v=0
34860 On ch=1 n=f6 v=92
34920 On ch=1 n=f6 v=0
34920 On ch=1 n=f6 v=90
34980 On ch=1 n=f6 v=0
34980 On ch=1 n=d#6 v=89
35010 On ch=1 n=d#6 v=88
35025 On ch=1 n=d#6 v=0
35025 On ch=1 n=f6 v=87
35040 On ch=1 n=f6 v=0
35040 On ch=1 n=d#6 v=0
35040 On ch=1 n=d#6 v=87
35100 On ch=1 n=d#6 v=0
35100 On ch=1 n=d6 v=85
35160 On ch=1 n=d6 v=0
35160 On ch=1 n=d#6 v=83
35280 On ch=1 n=d#6 v=0
35280 On ch=1 n=a#6 v=80
35460 On ch=1 n=a#6 v=0
35460 On ch=1 n=g#6 v=75
35520 On ch=1 n=g#6 v=0
35520 On ch=1 n=f#6 v=73
35580 On ch=1 n=f#6 v=0
35580 On ch=1 n=f6 v=71
35640 On ch=1 n=f6 v=0
35640 On ch=1 n=f6 v=70
35670 On ch=1 n=d#6 v=69
35685 On ch=1 n=d#6 v=0
35685 On ch=1 n=f6 v=68
35700 On ch=1 n=f6 v=0
35700 On ch=1 n=f6 v=0
35700 On ch=1 n=d#6 v=68
35760 On ch=1 n=d#6 v=0
35760 On ch=1 n=d6 v=66
35820 On ch=1 n=d6 v=0
35820 On ch=1 n=d#6 v=65
35880 On ch=1 n=d#6 v=0
35880 On ch=1 n=f6 v=63
35940 On ch=1 n=f6 v=0
35940 On ch=1 n=a#5 v=61
36000 On ch=1 n=a#5 v=0
36000 On ch=1 n=g5 v=60
36060 On ch=1 n=g5 v=0
36060 On ch=1 n=g#5 v=60
36120 On ch=1 n=g#5 v=0
36120 On ch=1 n=c6 v=60
36180 On ch=1 n=c6 v=0
36180 On ch=1 n=a#5 v=60
36240 On ch=1 n=a#5 v=0
36240 On ch=1 n=g5 v=60
36300 On ch=1 n=g5 v=0
36300 On ch=1 n=g#5 v=60
36360 On ch=1 n=g#5 v=0
36360 On ch=1 n=c6 v=60
36420 On ch=1 n=c6 v=0
36420 On ch=1 n=a#5 v=60
36480 On ch=1 n=a#5 v=0
36480 On ch=1 n=g5 v=60
36540 On ch=1 n=g5 v=0
36540 On ch=1 n=g#5 v=60
36600 On ch=1 n=g#5 v=0
36600 On ch=1 n=c6 v=60
36660 On ch=1 n=c6 v=0
36660 On ch=1 n=a#5 v=60
36720 On ch=1 n=a#5 v=0
36720 On ch=1 n=g5 v=60
36780 On ch=1 n=g5 v=0
36780 On ch=1 n=g#5 v=61
36840 On ch=1 n=g#5 v=0
36840 On ch=1 n=c6 v=63
36900 On ch=1 n=c6 v=0
36900 On ch=1 n=a#5 v=65
36960 On ch=1 n=a#5 v=0
36960 On ch=1 n=g5 v=67
37020 On ch=1 n=g5 v=0
37020 On ch=1 n=g#5 v=68
37080 On ch=1 n=g#5 v=0
37080 On ch=1 n=a#5 v=70
37140 On ch=1 n=a#5 v=0
37140 On ch=1 n=c6 v=72
37200 On ch=1 n=c6 v=0
37200 On ch=1 n=c#6 v=74
37260 On ch=1 n=c#6 v=0
37260 On ch=1 n=d#6 v=75
37320 On ch=1 n=d#6 v=0
37320 On ch=1 n=f6 v=77
37380 On ch=1 n=f6 v=0
37380 On ch=1 n=f#6 v=79
37440 On ch=1 n=f#6 v=0
37440 On ch=1 n=a#6 v=80
37620 On ch=1 n=a#6 v=0
37620 On ch=1 n=g#6 v=77
37680 On ch=1 n=g#6 v=0
37680 On ch=1 n=f#6 v=76
37740 On ch=1 n=f#6 v=0
37740 On ch=1 n=f6 v=75
37800 On ch=1 n=f6 v=0
37800 On ch=1 n=f6 v=73
37860 On ch=1 n=f6 v=0
37860 On ch=1 n=d#6 v=72
37890 On ch=1 n=d#6 v=72
37905 On ch=1 n=d#6 v=0
37905 On ch=1 n=f6 v=71
37920 On ch=1 n=f6 v=0
37920 On ch=1 n=d#6 v=0
37920 On ch=1 n=d#6 v=71
37980 On ch=1 n=d#6 v=0
37980 On ch=1 n=d6 v=70
38040 On ch=1 n=d6 v=0
38040 On ch=1 n=d#6 v=69
38160 On ch=1 n=d#6 v=0
38160 On ch=1 n=a#6 v=66
38340 On ch=1 n=a#6 v=0
38340 On ch=1 n=g#6 v=63
38400 On ch=1 n=g#6 v=0
38400 On ch=1 n=f#6 v=62
38460 On ch=1 n=f#6 v=0
38460 On ch=1 n=f6 v=61
38520 On ch=1 n=f6 v=0
38520 On ch=1 n=d#6 v=60
38580 On ch=1 n=d#6 v=0
38580 On ch=1 n=f6 v=61
38610 On ch=1 n=d#6 v=62
38625 On ch=1 n=d#6 v=0
38625 On ch=1 n=f6 v=62
38640 On ch=1 n=f6 v=0
38640 On ch=1 n=f6 v=0
38640 On ch=1 n=d#6 v=62
38700 On ch=1 n=d#6 v=0
38700 On ch=1 n=d6 v=64
38760 On ch=1 n=d6 v=0
38760 On ch=1 n=d#6 v=65
38820 On ch=1 n=d#6 v=0
38820 On ch=1 n=e6 v=67
38880 On ch=1 n=e6 v=0
38880 On ch=1 n=f6 v=68
38920 On ch=1 n=f6 v=0
38920 On ch=1 n=f#6 v=69
38960 On ch=1 n=f#6 v=0
38960 On ch=1 n=f6 v=70
39000 On ch=1 n=f6 v=0
39000 On ch=1 n=e6 v=71
39060 On ch=1 n=e6 v=0
39060 On ch=1 n=f6 v=72
39120 On ch=1 n=f6 v=0
39120 On ch=1 n=g#6 v=74
39180 On ch=1 n=g#6 v=0
39180 On ch=1 n=f#6 v=75
39240 On ch=1 n=f#6 v=0
39240 On ch=1 n=f6 v=77
39300 On ch=1 n=f6 v=0
39300 On ch=1 n=f#6 v=78
39360 On ch=1 n=f#6 v=0
39360 On ch=1 n=f6 v=79
39420 On ch=1 n=f6 v=0
39420 On ch=1 n=e6 v=81
39480 On ch=1 n=e6 v=0
39480 On ch=1 n=f6 v=82
39540 On ch=1 n=f6 v=0
39540 On ch=1 n=a#6 v=84
39600 On ch=1 n=a#6 v=0
39600 On ch=1 n=g#6 v=85
39640 On ch=1 n=g#6 v=0
39640 On ch=1 n=a#6 v=86
39680 On ch=1 n=a#6 v=0
39680 On ch=1 n=g#6 v=87
39720 On ch=1 n=g#6 v=0
39720 On ch=1 n=g6 v=88
39780 On ch=1 n=g6 v=0
39780 On ch=1 n=g#6 v=89
39840 On ch=1 n=g#6 v=0
39840 On ch=1 n=c7 v=91
39900 On ch=1 n=c7 v=0
39900 On ch=1 n=a#6 v=92
39960 On ch=1 n=a#6 v=0
39960 On ch=1 n=g#6 v=94
40020 On ch=1 n=g#6 v=0
40020 On ch=1 n=a#6 v=95
40080 On ch=1 n=a#6 v=0
40080 On ch=1 n=g#6 v=97
40140 On ch=1 n=g#6 v=0
40140 On ch=1 n=g6 v=98
40200 On ch=1 n=g6 v=0
40200 On ch=1 n=g#6 v=99
40260 On ch=1 n=g#6 v=0
40260 On ch=1 n=c#7 v=100
40320 On ch=1 n=c#7 v=0
40320 On ch=1 n=c7 v=100
40380 On ch=1 n=c7 v=0
40380 On ch=1 n=a#6 v=97
40440 On ch=1 n=a#6 v=0
40440 On ch=1 n=g#6 v=93
40500 On ch=1 n=g#6 v=0
40500 On ch=1 n=f#6 v=90
40560 On ch=1 n=f#6 v=0
40560 On ch=1 n=f6 v=86
40620 On ch=1 n=f6 v=0
40620 On ch=1 n=d#6 v=83
40680 On ch=1 n=d#6 v=0
40680 On ch=1 n=c#6 v=79
40740 On ch=1 n=c#6 v=0
40740 On ch=1 n=c6 v=76
40800 On ch=1 n=c6 v=0
40800 On ch=1 n=a#5 v=72
40860 On ch=1 n=a#5 v=0
40860 On ch=1 n=g#5 v=69
40920 On ch=1 n=g#5 v=0
40920 On ch=1 n=f#5 v=65
40980 On ch=1 n=f#5 v=0
40980 On ch=1 n=f5 v=62
41040 On ch=1 n=f5 v=0
41040 On ch=1 n=d#5 v=60
41100 On ch=1 n=d#5 v=0
41100 On ch=1 n=c#5 v=60
41160 On ch=1 n=c#5 v=0
41160 On ch=1 n=c5 v=60
41220 On ch=1 n=c5 v=0
41220 On ch=1 n=d#5 v=60
41280 On ch=1 n=d#5 v=0
41280 On ch=1 n=a#5 v=60
41340 On ch=1 n=a#5 v=0
41340 On ch=1 n=g#5 v=60
41400 On ch=1 n=g#5 v=0
41400 On ch=1 n=g5 v=60
41460 On ch=1 n=g5 v=0
41460 On ch=1 n=g#5 v=61
41520 On ch=1 n=g#5 v=0
41520 On ch=1 n=a#5 v=63
41580 On ch=1 n=a#5 v=0
41580 On ch=1 n=c6 v=65
41640 On ch=1 n=c6 v=0
41640 On ch=1 n=c#6 v=66
41700 On ch=1 n=c#6 v=0
41700 On ch=1 n=d#6 v=68
41760 On ch=1 n=d#6 v=0
41760 On ch=1 n=f6 v=70
41800 On ch=1 n=f6 v=0
41800 On ch=1 n=f#6 v=71
41840 On ch=1 n=f#6 v=0
41840 On ch=1 n=f6 v=72
41880 On ch=1 n=f6 v=0
41880 On ch=1 n=e6 v=73
41940 On ch=1 n=e6 v=0
41940 On ch=1 n=f6 v=75
42000 On ch=1 n=f6 v=0
42000 On ch=1 n=g#6 v=77
42060 On ch=1 n=g#6 v=0
42060 On ch=1 n=f#6 v=78
42120 On ch=1 n=f#6 v=0
42120 On ch=1 n=f6 v=80
42180 On ch=1 n=f6 v=0
42180 On ch=1 n=f#6 v=82
42240 On ch=1 n=f#6 v=0
42240 On ch=1 n=f6 v=83
42300 On ch=1 n=f6 v=0
42300 On ch=1 n=e6 v=85
42360 On ch=1 n=e6 v=0
42360 On ch=1 n=f6 v=87
42420 On ch=1 n=f6 v=0
42420 On ch=1 n=a#6 v=89
42480 On ch=1 n=a#6 v=0
42480 On ch=1 n=g#6 v=90
42520 On ch=1 n=g#6 v=0
42520 On ch=1 n=a#6 v=91
42560 On ch=1 n=a#6 v=0
42560 On ch=1 n=g#6 v=93
42600 On ch=1 n=g#6 v=0
42600 On ch=1 n=g6 v=94
42660 On ch=1 n=g6 v=0
42660 On ch=1 n=g#6 v=95
42720 On ch=1 n=g#6 v=0
42720 On ch=1 n=c7 v=97
42780 On ch=1 n=c7 v=0
42780 On ch=1 n=a#6 v=99
42840 On ch=1 n=a#6 v=0
42840 On ch=1 n=g#6 v=100
42900 On ch=1 n=g#6 v=0
42900 On ch=1 n=a#6 v=100
42960 On ch=1 n=a#6 v=0
42960 On ch=1 n=g#6 v=100
43020 On ch=1 n=g#6 v=0
43020 On ch=1 n=g6 v=100
43080 On ch=1 n=g6 v=0
43080 On ch=1 n=g#6 v=100
43140 On ch=1 n=g#6 v=0
43140 On ch=1 n=f7 v=100
43200 On ch=1 n=f7 v=0
43200 On ch=1 n=d#7 v=100
43260 On ch=1 n=d#7 v=0
43260 On ch=1 n=c#7 v=98
43320 On ch=1 n=c#7 v=0
43320 On ch=1 n=c7 v=96
43380 On ch=1 n=c7 v=0
43380 On ch=1 n=a#6 v=94
43440 On ch=1 n=a#6 v=0
43440 On ch=1 n=g#6 v=91
43500 On ch=1 n=g#6 v=0
43500 On ch=1 n=f#6 v=89
43560 On ch=1 n=f#6 v=0
43560 On ch=1 n=f6 v=87
43620 On ch=1 n=f6 v=0
43620 On ch=1 n=d#6 v=84
43680 On ch=1 n=d#6 v=0
43680 On ch=1 n=c#6 v=82
43740 On ch=1 n=c#6 v=0
43740 On ch=1 n=c6 v=80
43800 On ch=1 n=c6 v=0
43800 On ch=1 n=a#5 v=77
43860 On ch=1 n=a#5 v=0
43860 On ch=1 n=g#5 v=75
43920 On ch=1 n=g#5 v=0
43920 On ch=1 n=a5 v=73
43980 On ch=1 n=a5 v=0
43980 On ch=1 n=c6 v=71
44040 On ch=1 n=c6 v=0
44040 On ch=1 n=a#5 v=68
44100 On ch=1 n=a#5 v=0
44100 On ch=1 n=f5 v=66
44160 On ch=1 n=f5 v=0
44160 On ch=1 n=f#5 v=64
44220 On ch=1 n=f#5 v=0
44220 On ch=1 n=c5 v=61
44280 On ch=1 n=c5 v=0
44280 On ch=1 n=c#5 v=60
44400 On ch=1 n=c#5 v=0
44520 On ch=1 n=f6 v=60
44680 On ch=1 n=f6 v=0
44680 On ch=1 n=f#6 v=61
44720 On ch=1 n=f#6 v=0
44720 On ch=1 n=f6 v=62
44760 On ch=1 n=f6 v=0
44760 On ch=1 n=e6 v=63
44820 On ch=1 n=e6 v=0
44820 On ch=1 n=f6 v=65
44880 On ch=1 n=f6 v=0
44880 On ch=1 n=g#6 v=66
44940 On ch=1 n=g#6 v=0
44940 On ch=1 n=f#6 v=68
45000 On ch=1 n=f#6 v=0
45000 On ch=1 n=f6 v=70
45060 On ch=1 n=f6 v=0
45060 On ch=1 n=f#6 v=71
45120 On ch=1 n=f#6 v=0
45120 On ch=1 n=f6 v=73
45180 On ch=1 n=f6 v=0
45180 On ch=1 n=e6 v=75
45240 On ch=1 n=e6 v=0
45240 On ch=1 n=f6 v=77
45300 On ch=1 n=f6 v=0
45300 On ch=1 n=a#6 v=78
45360 On ch=1 n=a#6 v=0
45360 On ch=1 n=g#6 v=80
45400 On ch=1 n=g#6 v=0
45400 On ch=1 n=a#6 v=81
45440 On ch=1 n=a#6 v=0
45440 On ch=1 n=g#6 v=82
45480 On ch=1 n=g#6 v=0
45480 On ch=1 n=g6 v=83
45540 On ch=1 n=g6 v=0
45540 On ch=1 n=g#6 v=85
45600 On ch=1 n=g#6 v=0
45600 On ch=1 n=c7 v=87
45660 On ch=1 n=c7 v=0
45660 On ch=1 n=a#6 v=89
45720 On ch=1 n=a#6 v=0
45720 On ch=1 n=g#6 v=90
45780 On ch=1 n=g#6 v=0
45780 On ch=1 n=a#6 v=92
45840 On ch=1 n=a#6 v=0
45840 On ch=1 n=g#6 v=94
45900 On ch=1 n=g#6 v=0
45900 On ch=1 n=g6 v=95
45960 On ch=1 n=g6 v=0
45960 On ch=1 n=g#6 v=97
46020 On ch=1 n=g#6 v=0
46020 On ch=1 n=c#7 v=99
46080 On ch=1 n=c#7 v=0
46080 On ch=1 n=c7 v=100
46140 On ch=1 n=c7 v=0
46140 On ch=1 n=a#6 v=100
46200 On ch=1 n=a#6 v=0
46200 On ch=1 n=g#6 v=100
46260 On ch=1 n=g#6 v=0
46260 On ch=1 n=f#6 v=100
46320 On ch=1 n=f#6 v=0
46320 On ch=1 n=f6 v=100
46380 On ch=1 n=f6 v=0
46380 On ch=1 n=d#6 v=100
46440 On ch=1 n=d#6 v=0
46440 On ch=1 n=c#6 v=100
46500 On ch=1 n=c#6 v=0
46500 On ch=1 n=c6 v=97
46560 On ch=1 n=c6 v=0
46560 On ch=1 n=a#5 v=93
46620 On ch=1 n=a#5 v=0
46620 On ch=1 n=g#5 v=90
46680 On ch=1 n=g#5 v=0
46680 On ch=1 n=f#5 v=86
46740 On ch=1 n=f#5 v=0
46740 On ch=1 n=f5 v=83
46800 On ch=1 n=f5 v=0
46800 On ch=1 n=d#5 v=80
46860 On ch=1 n=d#5 v=0
46860 On ch=1 n=c#5 v=80
46920 On ch=1 n=c#5 v=0
46920 On ch=1 n=c5 v=80
46980 On ch=1 n=c5 v=0
46980 On ch=1 n=d#5 v=80
47040 On ch=1 n=d#5 v=0
47040 On ch=1 n=a#5 v=80
47100 On ch=1 n=a#5 v=0
47100 On ch=1 n=g#5 v=80
47160 On ch=1 n=g#5 v=0
47160 On ch=1 n=g5 v=80
47220 On ch=1 n=g5 v=0
47220 On ch=1 n=g#5 v=81
47280 On ch=1 n=g#5 v=0
47280 On ch=1 n=a#5 v=83
47340 On ch=1 n=a#5 v=0
47340 On ch=1 n=c6 v=84
47400 On ch=1 n=c6 v=0
47400 On ch=1 n=c#6 v=86
47460 On ch=1 n=c#6 v=0
47460 On ch=1 n=d#6 v=88
47520 On ch=1 n=d#6 v=0
47520 On ch=1 n=f6 v=89
47560 On ch=1 n=f6 v=0
47560 On ch=1 n=f#6 v=91
47600 On ch=1 n=f#6 v=0
47600 On ch=1 n=f6 v=92
47640 On ch=1 n=f6 v=0
47640 On ch=1 n=e6 v=93
47700 On ch=1 n=e6 v=0
47700 On ch=1 n=f6 v=94
47760 On ch=1 n=f6 v=0
47760 On ch=1 n=g#6 v=96
47820 On ch=1 n=g#6 v=0
47820 On ch=1 n=f#6 v=98
47880 On ch=1 n=f#6 v=0
47880 On ch=1 n=f6 v=99
47940 On ch=1 n=f6 v=0
47940 On ch=1 n=f#6 v=101
48000 On ch=1 n=f#6 v=0
48000 On ch=1 n=f6 v=103
48060 On ch=1 n=f6 v=0
48060 On ch=1 n=e6 v=104
48120 On ch=1 n=e6 v=0
48120 On ch=1 n=f6 v=106
48180 On ch=1 n=f6 v=0
48180 On ch=1 n=a#6 v=108
48240 On ch=1 n=a#6 v=0
48240 On ch=1 n=g#6 v=109
48280 On ch=1 n=g#6 v=0
48280 On ch=1 n=a#6 v=111
48320 On ch=1 n=a#6 v=0
48320 On ch=1 n=g#6 v=112
48360 On ch=1 n=g#6 v=0
48360 On ch=1 n=g6 v=113
48420 On ch=1 n=g6 v=0
48420 On ch=1 n=g#6 v=114
48480 On ch=1 n=g#6 v=0
48480 On ch=1 n=c7 v=116
48540 On ch=1 n=c7 v=0
48540 On ch=1 n=a#6 v=118
48600 On ch=1 n=a#6 v=0
48600 On ch=1 n=g#6 v=119
48660 On ch=1 n=g#6 v=0
48660 On ch=1 n=a#6 v=121
48720 On ch=1 n=a#6 v=0
48720 On ch=1 n=g#6 v=123
48780 On ch=1 n=g#6 v=0
48780 On ch=1 n=g6 v=124
48840 On ch=1 n=g6 v=0
48840 On ch=1 n=g#6 v=126
48900 On ch=1 n=g#6 v=0
48900 On ch=1 n=f8 v=127
48960 On ch=1 n=f8 v=0
48960 On ch=1 n=d#8 v=127
49000 On ch=1 n=d#8 v=0
49000 On ch=1 n=c#8 v=125
49040 On ch=1 n=c#8 v=0
49040 On ch=1 n=c8 v=123
49080 On ch=1 n=c8 v=0
49080 On ch=1 n=a#7 v=120
49120 On ch=1 n=a#7 v=0
49120 On ch=1 n=g#7 v=118
49160 On ch=1 n=g#7 v=0
49160 On ch=1 n=f#7 v=116
49200 On ch=1 n=f#7 v=0
49200 On ch=1 n=f7 v=113
49240 On ch=1 n=f7 v=0
49240 On ch=1 n=d#7 v=111
49280 On ch=1 n=d#7 v=0
49280 On ch=1 n=c#7 v=109
49320 On ch=1 n=c#7 v=0
49320 On ch=1 n=c7 v=106
49360 On ch=1 n=c7 v=0
49360 On ch=1 n=a#6 v=104
49400 On ch=1 n=a#6 v=0
49400 On ch=1 n=g#6 v=102
49440 On ch=1 n=g#6 v=0
49440 On ch=1 n=f#6 v=99
49480 On ch=1 n=f#6 v=0
49480 On ch=1 n=f6 v=97
49520 On ch=1 n=f6 v=0
49520 On ch=1 n=d#6 v=95
49560 On ch=1 n=d#6 v=0
49560 On ch=1 n=c#6 v=92
49600 On ch=1 n=c#6 v=0
49600 On ch=1 n=c6 v=90
49640 On ch=1 n=c6 v=0
49640 On ch=1 n=a#5 v=90
49680 On ch=1 n=a#5 v=0
49680 On ch=1 n=a5 v=90
49740 On ch=1 n=a5 v=0
49740 On ch=1 n=c6 v=91
49800 On ch=1 n=c6 v=0
49800 On ch=1 n=a#5 v=92
49860 On ch=1 n=a#5 v=0
49860 On ch=1 n=f5 v=94
49920 On ch=1 n=f5 v=0
49920 On ch=1 n=f#5 v=95
49980 On ch=1 n=f#5 v=0
49980 On ch=1 n=c5 v=96
50040 On ch=1 n=c5 v=0
50040 On ch=1 n=c#5 v=98
50280 On ch=1 n=c#5 v=0
50280 Meta TrkEnd
TrkEnd
MTrk
0 Meta 0x21 00
0 Meta TrkName "Lower Treble"
0 PrCh ch=1 p=0
10080 On ch=1 n=a4 v=100
10200 On ch=1 n=f5 v=90
10200 On ch=1 n=d#5 v=90
10320 On ch=1 n=d#5 v=0
10320 On ch=1 n=f5 v=0
10320 On ch=1 n=d#5 v=90
10320 On ch=1 n=f5 v=90
10440 On ch=1 n=f5 v=0
10440 On ch=1 n=d#5 v=0
10440 On ch=1 n=a4 v=0
10440 On ch=1 n=a#4 v=100
10560 On ch=1 n=c#5 v=90
10560 On ch=1 n=f5 v=90
10680 On ch=1 n=f5 v=0
10680 On ch=1 n=c#5 v=0
10680 On ch=1 n=c#5 v=90
10680 On ch=1 n=f5 v=90
10800 On ch=1 n=f5 v=0
10800 On ch=1 n=c#5 v=0
10800 On ch=1 n=a#4 v=0
10800 On ch=1 n=c5 v=100
10920 On ch=1 n=g#5 v=91
10920 On ch=1 n=f#5 v=91
11040 On ch=1 n=f#5 v=0
11040 On ch=1 n=g#5 v=0
11040 On ch=1 n=f#5 v=93
11040 On ch=1 n=g#5 v=93
11160 On ch=1 n=g#5 v=0
11160 On ch=1 n=f#5 v=0
11160 On ch=1 n=c5 v=0
11160 On ch=1 n=c#5 v=105
11280 On ch=1 n=c#5 v=0
11280 On ch=1 n=g#5 v=97
11280 On ch=1 n=f5 v=97
11400 On ch=1 n=f5 v=0
11400 On ch=1 n=g#5 v=0
11520 On ch=1 n=f#4 v=110
11640 On ch=1 n=f#4 v=0
11640 On ch=1 n=a#5 v=98
11640 On ch=1 n=c#5 v=98
11640 On ch=1 n=d#5 v=98
11760 On ch=1 n=d#5 v=0
11760 On ch=1 n=c#5 v=0
11760 On ch=1 n=a#5 v=0
15840 On ch=1 n=a4 v=100
15960 On ch=1 n=f5 v=90
15960 On ch=1 n=d#5 v=90
16080 On ch=1 n=d#5 v=0
16080 On ch=1 n=f5 v=0
16080 On ch=1 n=d#5 v=90
16080 On ch=1 n=f5 v=90
16200 On ch=1 n=f5 v=0
16200 On ch=1 n=d#5 v=0
16200 On ch=1 n=a4 v=0
16200 On ch=1 n=a#4 v=100
16320 On ch=1 n=c#5 v=90
16320 On ch=1 n=f5 v=90
16440 On ch=1 n=f5 v=0
16440 On ch=1 n=c#5 v=0
16440 On ch=1 n=c#5 v=90
16440 On ch=1 n=f5 v=90
16560 On ch=1 n=f5 v=0
16560 On ch=1 n=c#5 v=0
16560 On ch=1 n=a#4 v=0
16560 On ch=1 n=c5 v=100
16680 On ch=1 n=g#5 v=91
16680 On ch=1 n=f#5 v=91
16800 On ch=1 n=f#5 v=0
16800 On ch=1 n=g#5 v=0
16800 On ch=1 n=f#5 v=93
16800 On ch=1 n=g#5 v=93
16920 On ch=1 n=g#5 v=0
16920 On ch=1 n=f#5 v=0
16920 On ch=1 n=c5 v=0
16920 On ch=1 n=c#5 v=105
17040 On ch=1 n=c#5 v=0
17040 On ch=1 n=g#5 v=97
17040 On ch=1 n=f5 v=97
17160 On ch=1 n=f5 v=0
17160 On ch=1 n=g#5 v=0
17280 On ch=1 n=f#4 v=110
17400 On ch=1 n=f#4 v=0
17400 On ch=1 n=a#5 v=97
17400 On ch=1 n=c#5 v=97
17400 On ch=1 n=d#5 v=97
17520 On ch=1 n=d#5 v=0
17520 On ch=1 n=c#5 v=0
17520 On ch=1 n=a#5 v=0
41760 On ch=1 n=a4 v=80
41880 On ch=1 n=f5 v=73
41880 On ch=1 n=d#5 v=73
42000 On ch=1 n=d#5 v=0
42000 On ch=1 n=f5 v=0
42000 On ch=1 n=d#5 v=77
42000 On ch=1 n=f5 v=77
42120 On ch=1 n=f5 v=0
42120 On ch=1 n=d#5 v=0
42120 On ch=1 n=a4 v=0
42120 On ch=1 n=a#4 v=90
42240 On ch=1 n=c#5 v=83
42240 On ch=1 n=f5 v=83
42360 On ch=1 n=f5 v=0
42360 On ch=1 n=c#5 v=0
42360 On ch=1 n=c#5 v=87
42360 On ch=1 n=f5 v=87
42480 On ch=1 n=f5 v=0
42480 On ch=1 n=c#5 v=0
42480 On ch=1 n=a#4 v=0
42480 On ch=1 n=c5 v=100
42600 On ch=1 n=g#5 v=94
42600 On ch=1 n=f#5 v=94
42720 On ch=1 n=f#5 v=0
42720 On ch=1 n=g#5 v=0
42720 On ch=1 n=f#5 v=97
42720 On ch=1 n=g#5 v=97
42840 On ch=1 n=g#5 v=0
42840 On ch=1 n=f#5 v=0
42840 On ch=1 n=c5 v=0
42840 On ch=1 n=c#5 v=110
42960 On ch=1 n=c#5 v=0
42960 On ch=1 n=g#5 v=100
42960 On ch=1 n=f5 v=100
43080 On ch=1 n=f5 v=0
43080 On ch=1 n=g#5 v=0
43200 On ch=1 n=f#4 v=110
43320 On ch=1 n=f#4 v=0
43320 On ch=1 n=a#5 v=96
43320 On ch=1 n=d#5 v=96
43320 On ch=1 n=c#5 v=96
43440 On ch=1 n=c#5 v=0
43440 On ch=1 n=d#5 v=0
43440 On ch=1 n=a#5 v=0
47520 On ch=1 n=a4 v=99
47640 On ch=1 n=f5 v=93
47640 On ch=1 n=d#5 v=93
47760 On ch=1 n=d#5 v=0
47760 On ch=1 n=f5 v=0
47760 On ch=1 n=d#5 v=96
47760 On ch=1 n=f5 v=96
47880 On ch=1 n=f5 v=0
47880 On ch=1 n=d#5 v=0
47880 On ch=1 n=a4 v=0
47880 On ch=1 n=a#4 v=109
48000 On ch=1 n=c#5 v=103
48000 On ch=1 n=f5 v=103
48120 On ch=1 n=f5 v=0
48120 On ch=1 n=c#5 v=0
48120 On ch=1 n=c#5 v=106
48120 On ch=1 n=f5 v=106
48240 On ch=1 n=f5 v=0
48240 On ch=1 n=c#5 v=0
48240 On ch=1 n=a#4 v=0
48240 On ch=1 n=c5 v=119
48360 On ch=1 n=g#5 v=113
48360 On ch=1 n=f#5 v=113
48480 On ch=1 n=f#5 v=0
48480 On ch=1 n=g#5 v=0
48480 On ch=1 n=g#5 v=116
48480 On ch=1 n=f#5 v=116
48600 On ch=1 n=f#5 v=0
48600 On ch=1 n=g#5 v=0
48600 On ch=1 n=c5 v=0
48600 On ch=1 n=c#5 v=127
48720 On ch=1 n=c#5 v=0
48720 On ch=1 n=g#5 v=123
48720 On ch=1 n=f5 v=123
48840 On ch=1 n=f5 v=0
48840 On ch=1 n=g#5 v=0
49080 On ch=1 n=a#5 v=120
49080 On ch=1 n=c#5 v=120
49080 On ch=1 n=d#5 v=120
49200 On ch=1 n=d#5 v=0
49200 On ch=1 n=c#5 v=0
49200 On ch=1 n=a#5 v=0
49200 Meta TrkEnd
TrkEnd
MTrk
0 Meta 0x21 00
0 Meta TrkName "Lower Bass"
0 PrCh ch=1 p=0
1440 On ch=1 n=c#4 v=70
1560 On ch=1 n=c#4 v=0
1560 On ch=1 n=f5 v=63
1560 On ch=1 n=c#5 v=63
1560 On ch=1 n=g#4 v=63
1680 On ch=1 n=g#4 v=0
1680 On ch=1 n=c#5 v=0
1680 On ch=1 n=f5 v=0
1680 On ch=1 n=g#4 v=66
1680 On ch=1 n=c#5 v=66
1680 On ch=1 n=f5 v=66
1800 On ch=1 n=f5 v=0
1800 On ch=1 n=c#5 v=0
1800 On ch=1 n=g#4 v=0
1800 On ch=1 n=f4 v=80
1920 On ch=1 n=f4 v=0
1920 On ch=1 n=f5 v=73
1920 On ch=1 n=c#5 v=73
1920 On ch=1 n=g#4 v=73
2040 On ch=1 n=g#4 v=0
2040 On ch=1 n=c#5 v=0
2040 On ch=1 n=f5 v=0
2040 On ch=1 n=c#5 v=77
2040 On ch=1 n=f5 v=77
2040 On ch=1 n=g#4 v=77
2160 On ch=1 n=g#4 v=0
2160 On ch=1 n=f5 v=0
2160 On ch=1 n=c#5 v=0
2160 On ch=1 n=c#4 v=90
2280 On ch=1 n=c#4 v=0
2280 On ch=1 n=f5 v=83
2280 On ch=1 n=c#5 v=83
2280 On ch=1 n=g#4 v=83
2400 On ch=1 n=g#4 v=0
2400 On ch=1 n=c#5 v=0
2400 On ch=1 n=f5 v=0
2400 On ch=1 n=g#4 v=87
2400 On ch=1 n=c#5 v=87
2400 On ch=1 n=f5 v=87
2520 On ch=1 n=f5 v=0
2520 On ch=1 n=c#5 v=0
2520 On ch=1 n=g#4 v=0
2520 On ch=1 n=f4 v=100
2640 On ch=1 n=f4 v=0
2640 On ch=1 n=f5 v=94
2640 On ch=1 n=c#5 v=94
2640 On ch=1 n=g#4 v=94
2760 On ch=1 n=g#4 v=0
2760 On ch=1 n=c#5 v=0
2760 On ch=1 n=f5 v=0
2760 On ch=1 n=c#5 v=97
2760 On ch=1 n=f5 v=97
2760 On ch=1 n=g#4 v=97
2880 On ch=1 n=g#4 v=0
2880 On ch=1 n=f5 v=0
2880 On ch=1 n=c#5 v=0
2880 On ch=1 n=g#3 v=110
3000 On ch=1 n=g#3 v=0
3000 On ch=1 n=f#5 v=97
3000 On ch=1 n=c5 v=97
3000 On ch=1 n=g#4 v=97
3120 On ch=1 n=g#4 v=0
3120 On ch=1 n=c5 v=0
3120 On ch=1 n=f#5 v=0
3120 On ch=1 n=g#4 v=93
3120 On ch=1 n=c5 v=93
3120 On ch=1 n=f#5 v=93
3240 On ch=1 n=f#5 v=0
3240 On ch=1 n=c5 v=0
3240 On ch=1 n=g#4 v=0
3240 On ch=1 n=d#4 v=100
3360 On ch=1 n=d#4 v=0
3360 On ch=1 n=f#5 v=86
3360 On ch=1 n=c5 v=86
3360 On ch=1 n=g#4 v=86
3480 On ch=1 n=g#4 v=0
3480 On ch=1 n=c5 v=0
3480 On ch=1 n=f#5 v=0
3480 On ch=1 n=g#4 v=83
3480 On ch=1 n=c5 v=83
3480 On ch=1 n=f#5 v=83
3600 On ch=1 n=f#5 v=0
3600 On ch=1 n=c5 v=0
3600 On ch=1 n=g#4 v=0
3600 On ch=1 n=g#3 v=90
3720 On ch=1 n=g#3 v=0
3720 On ch=1 n=f#5 v=77
3720 On ch=1 n=c5 v=77
3840 On ch=1 n=c5 v=0
3840 On ch=1 n=f#5 v=0
3840 On ch=1 n=c5 v=73
3840 On ch=1 n=f#5 v=73
3960 On ch=1 n=f#5 v=0
3960 On ch=1 n=c5 v=0
3960 On ch=1 n=g#4 v=80
4080 On ch=1 n=g#4 v=0
4080 On ch=1 n=f#5 v=66
4080 On ch=1 n=c5 v=66
4200 On ch=1 n=c5 v=0
4200 On ch=1 n=f#5 v=0
4200 On ch=1 n=c5 v=63
4200 On ch=1 n=f#5 v=63
4320 On ch=1 n=f#5 v=0
4320 On ch=1 n=c5 v=0
4320 On ch=1 n=c#4 v=70
4440 On ch=1 n=c#4 v=0
4440 On ch=1 n=f5 v=60
4440 On ch=1 n=c#5 v=60
4440 On ch=1 n=g#4 v=60
4560 On ch=1 n=g#4 v=0
4560 On ch=1 n=c#5 v=0
4560 On ch=1 n=f5 v=0
4560 On ch=1 n=g#4 v=60
4560 On ch=1 n=c#5 v=60
4560 On ch=1 n=f5 v=60
4680 On ch=1 n=f5 v=0
4680 On ch=1 n=c#5 v=0
4680 On ch=1 n=g#4 v=0
4680 On ch=1 n=f4 v=70
4800 On ch=1 n=f4 v=0
4800 On ch=1 n=f5 v=60
4800 On ch=1 n=c#5 v=60
4800 On ch=1 n=g#4 v=60
4920 On ch=1 n=g#4 v=0
4920 On ch=1 n=c#5 v=0
4920 On ch=1 n=f5 v=0
4920 On ch=1 n=c#5 v=60
4920 On ch=1 n=f5 v=60
4920 On ch=1 n=g#4 v=60
5040 On ch=1 n=g#4 v=0
5040 On ch=1 n=f5 v=0
5040 On ch=1 n=c#5 v=0
5040 On ch=1 n=c#4 v=70
5160 On ch=1 n=c#4 v=0
5160 On ch=1 n=f5 v=63
5160 On ch=1 n=c#5 v=63
5160 On ch=1 n=g#4 v=63
5280 On ch=1 n=g#4 v=0
5280 On ch=1 n=c#5 v=0
5280 On ch=1 n=f5 v=0
5280 On ch=1 n=g#4 v=67
5280 On ch=1 n=c#5 v=67
5280 On ch=1 n=f5 v=67
5400 On ch=1 n=f5 v=0
5400 On ch=1 n=c#5 v=0
5400 On ch=1 n=g#4 v=0
5400 On ch=1 n=f4 v=80
5520 On ch=1 n=f4 v=0
5520 On ch=1 n=f5 v=74
5520 On ch=1 n=c#5 v=74
5520 On ch=1 n=g#4 v=74
5640 On ch=1 n=g#4 v=0
5640 On ch=1 n=c#5 v=0
5640 On ch=1 n=f5 v=0
5640 On ch=1 n=c#5 v=77
5640 On ch=1 n=f5 v=77
5640 On ch=1 n=g#4 v=77
5760 On ch=1 n=g#4 v=0
5760 On ch=1 n=f5 v=0
5760 On ch=1 n=c#5 v=0
5760 On ch=1 n=g#3 v=90
5880 On ch=1 n=g#3 v=0
5880 On ch=1 n=f#5 v=77
5880 On ch=1 n=c5 v=77
5880 On ch=1 n=g#4 v=77
6000 On ch=1 n=g#4 v=0
6000 On ch=1 n=c5 v=0
6000 On ch=1 n=f#5 v=0
6000 On ch=1 n=g#4 v=73
6000 On ch=1 n=c5 v=73
6000 On ch=1 n=f#5 v=73
6120 On ch=1 n=f#5 v=0
6120 On ch=1 n=c5 v=0
6120 On ch=1 n=g#4 v=0
6120 On ch=1 n=d#4 v=80
6240 On ch=1 n=d#4 v=0
6240 On ch=1 n=f#5 v=66
6240 On ch=1 n=c5 v=66
6240 On ch=1 n=g#4 v=66
6360 On ch=1 n=g#4 v=0
6360 On ch=1 n=c5 v=0
6360 On ch=1 n=f#5 v=0
6360 On ch=1 n=g#4 v=63
6360 On ch=1 n=c5 v=63
6360 On ch=1 n=f#5 v=63
6480 On ch=1 n=f#5 v=0
6480 On ch=1 n=c5 v=0
6480 On ch=1 n=g#4 v=0
6480 On ch=1 n=g#3 v=70
6600 On ch=1 n=g#3 v=0
6600 On ch=1 n=f#5 v=60
6600 On ch=1 n=c5 v=60
6600 On ch=1 n=g#4 v=60
6720 On ch=1 n=g#4 v=0
6720 On ch=1 n=c5 v=0
6720 On ch=1 n=f#5 v=0
6720 On ch=1 n=g#4 v=60
6720 On ch=1 n=c5 v=60
6720 On ch=1 n=f#5 v=60
6840 On ch=1 n=f#5 v=0
6840 On ch=1 n=c5 v=0
6840 On ch=1 n=g#4 v=0
6840 On ch=1 n=g#4 v=60
6870 On ch=1 n=g#4 v=0
6960 On ch=1 n=f#5 v=63
6960 On ch=1 n=c5 v=63
6990 On ch=1 n=c5 v=0
6990 On ch=1 n=f#5 v=0
7080 On ch=1 n=g#3 v=67
7110 On ch=1 n=g#3 v=0
7200 On ch=1 n=a3 v=80
7320 On ch=1 n=a3 v=0
7320 On ch=1 n=d#5 v=72
7320 On ch=1 n=c5 v=72
7320 On ch=1 n=f4 v=72
7440 On ch=1 n=f4 v=0
7440 On ch=1 n=c5 v=0
7440 On ch=1 n=d#5 v=0
7440 On ch=1 n=c5 v=75
7440 On ch=1 n=d#5 v=75
7440 On ch=1 n=f4 v=75
7560 On ch=1 n=f4 v=0
7560 On ch=1 n=d#5 v=0
7560 On ch=1 n=c5 v=0
7560 On ch=1 n=a#3 v=87
7680 On ch=1 n=a#3 v=0
7680 On ch=1 n=c#5 v=80
7680 On ch=1 n=f4 v=80
7800 On ch=1 n=f4 v=0
7800 On ch=1 n=c#5 v=0
7800 On ch=1 n=c#5 v=83
7800 On ch=1 n=f4 v=83
7920 On ch=1 n=f4 v=0
7920 On ch=1 n=c#5 v=0
7920 On ch=1 n=c4 v=95
8040 On ch=1 n=c4 v=0
8040 On ch=1 n=f#5 v=88
8040 On ch=1 n=d#5 v=88
8040 On ch=1 n=g#4 v=88
8160 On ch=1 n=g#4 v=0
8160 On ch=1 n=d#5 v=0
8160 On ch=1 n=f#5 v=0
8160 On ch=1 n=f#5 v=90
8160 On ch=1 n=d#5 v=90
8160 On ch=1 n=g#4 v=90
8280 On ch=1 n=g#4 v=0
8280 On ch=1 n=d#5 v=0
8280 On ch=1 n=f#5 v=0
8280 On ch=1 n=c#4 v=103
8400 On ch=1 n=c#4 v=0
8400 On ch=1 n=f5 v=96
8400 On ch=1 n=g#4 v=96
8520 On ch=1 n=g#4 v=0
8520 On ch=1 n=f5 v=0
8640 On ch=1 n=f#4 v=110
8760 On ch=1 n=f#4 v=0
8760 On ch=1 n=d#5 v=97
8760 On ch=1 n=a#4 v=97
8880 On ch=1 n=a#4 v=0
8880 On ch=1 n=d#5 v=0
9000 On ch=1 n=g#3 v=100
9120 On ch=1 n=g#3 v=0
9120 On ch=1 n=c#5 v=86
9120 On ch=1 n=g#4 v=86
9120 On ch=1 n=f4 v=86
9240 On ch=1 n=f4 v=0
9240 On ch=1 n=g#4 v=0
9240 On ch=1 n=c#5 v=0
9360 On ch=1 n=g#3 v=90
9480 On ch=1 n=g#3 v=0
9480 On ch=1 n=g#4 v=80
9480 On ch=1 n=f#4 v=80
9600 On ch=1 n=f#4 v=0
9600 On ch=1 n=g#4 v=0
9600 On ch=1 n=c5 v=80
9600 On ch=1 n=g#4 v=80
9600 On ch=1 n=f#4 v=80
9720 On ch=1 n=f#4 v=0
9720 On ch=1 n=g#4 v=0
9720 On ch=1 n=c5 v=0
9720 On ch=1 n=c#4 v=90
9840 On ch=1 n=c#4 v=0
9840 On ch=1 n=f5 v=83
9840 On ch=1 n=c#5 v=83
9840 On ch=1 n=g#4 v=83
9960 On ch=1 n=g#4 v=0
9960 On ch=1 n=c#5 v=0
9960 On ch=1 n=f5 v=0
11880 On ch=1 n=g#3 v=103
12000 On ch=1 n=g#3 v=0
12000 On ch=1 n=c#5 v=90
12000 On ch=1 n=g#4 v=90
12000 On ch=1 n=f4 v=90
12120 On ch=1 n=f4 v=0
12120 On ch=1 n=g#4 v=0
12120 On ch=1 n=c#5 v=0
12240 On ch=1 n=g#3 v=95
12360 On ch=1 n=g#3 v=0
12360 On ch=1 n=g#4 v=82
12360 On ch=1 n=f#4 v=82
12480 On ch=1 n=f#4 v=0
12480 On ch=1 n=g#4 v=0
12480 On ch=1 n=f#4 v=80
12480 On ch=1 n=g#4 v=80
12600 On ch=1 n=g#4 v=0
12600 On ch=1 n=f#4 v=0
12600 On ch=1 n=c#4 v=87
12720 On ch=1 n=c#4 v=0
12720 On ch=1 n=f5 v=74
12720 On ch=1 n=g#4 v=74
12840 On ch=1 n=g#4 v=0
12840 On ch=1 n=f5 v=0
12960 On ch=1 n=a3 v=80
13080 On ch=1 n=a3 v=0
13080 On ch=1 n=d#5 v=72
13080 On ch=1 n=c5 v=72
13080 On ch=1 n=f4 v=72
13200 On ch=1 n=f4 v=0
13200 On ch=1 n=c5 v=0
13200 On ch=1 n=d#5 v=0
13200 On ch=1 n=c5 v=75
13200 On ch=1 n=d#5 v=75
13200 On ch=1 n=f4 v=75
13320 On ch=1 n=f4 v=0
13320 On ch=1 n=d#5 v=0
13320 On ch=1 n=c5 v=0
13320 On ch=1 n=a#3 v=87
13440 On ch=1 n=a#3 v=0
13440 On ch=1 n=c#5 v=80
13440 On ch=1 n=f4 v=80
13560 On ch=1 n=f4 v=0
13560 On ch=1 n=c#5 v=0
13560 On ch=1 n=c#5 v=83
13560 On ch=1 n=f4 v=83
13680 On ch=1 n=f4 v=0
13680 On ch=1 n=c#5 v=0
13680 On ch=1 n=c4 v=95
13800 On ch=1 n=c4 v=0
13800 On ch=1 n=f#5 v=88
13800 On ch=1 n=d#5 v=88
13800 On ch=1 n=g#4 v=88
13920 On ch=1 n=g#4 v=0
13920 On ch=1 n=d#5 v=0
13920 On ch=1 n=f#5 v=0
13920 On ch=1 n=f#5 v=90
13920 On ch=1 n=d#5 v=90
13920 On ch=1 n=g#4 v=90
14040 On ch=1 n=g#4 v=0
14040 On ch=1 n=d#5 v=0
14040 On ch=1 n=f#5 v=0
14040 On ch=1 n=c#4 v=103
14160 On ch=1 n=c#4 v=0
14160 On ch=1 n=f5 v=96
14160 On ch=1 n=g#4 v=96
14280 On ch=1 n=g#4 v=0
14280 On ch=1 n=f5 v=0
14400 On ch=1 n=f#4 v=110
14520 On ch=1 n=f#4 v=0
14520 On ch=1 n=d#5 v=97
14520 On ch=1 n=a#4 v=97
14640 On ch=1 n=a#4 v=0
14640 On ch=1 n=d#5 v=0
14760 On ch=1 n=g#3 v=100
14880 On ch=1 n=g#3 v=0
14880 On ch=1 n=c#5 v=86
14880 On ch=1 n=g#4 v=86
14880 On ch=1 n=f4 v=86
15000 On ch=1 n=f4 v=0
15000 On ch=1 n=g#4 v=0
15000 On ch=1 n=c#5 v=0
15120 On ch=1 n=g#3 v=90
15240 On ch=1 n=g#3 v=0
15240 On ch=1 n=g#4 v=80
15240 On ch=1 n=f#4 v=80
15360 On ch=1 n=f#4 v=0
15360 On ch=1 n=g#4 v=0
15360 On ch=1 n=c5 v=80
15360 On ch=1 n=g#4 v=80
15360 On ch=1 n=f#4 v=80
15480 On ch=1 n=f#4 v=0
15480 On ch=1 n=g#4 v=0
15480 On ch=1 n=c5 v=0
15480 On ch=1 n=c#4 v=90
15600 On ch=1 n=c#4 v=0
15600 On ch=1 n=f5 v=83
15600 On ch=1 n=c#5 v=83
15600 On ch=1 n=g#4 v=83
15720 On ch=1 n=g#4 v=0
15720 On ch=1 n=c#5 v=0
15720 On ch=1 n=f5 v=0
17640 On ch=1 n=g#3 v=99
17760 On ch=1 n=g#3 v=0
17760 On ch=1 n=c#5 v=86
17760 On ch=1 n=g#4 v=86
17760 On ch=1 n=f4 v=86
17880 On ch=1 n=f4 v=0
17880 On ch=1 n=g#4 v=0
17880 On ch=1 n=c#5 v=0
18000 On ch=1 n=g#3 v=88
18120 On ch=1 n=g#3 v=0
18120 On ch=1 n=g#4 v=74
18120 On ch=1 n=f#4 v=74
18240 On ch=1 n=f#4 v=0
18240 On ch=1 n=g#4 v=0
18240 On ch=1 n=f#4 v=71
18240 On ch=1 n=g#4 v=71
18360 On ch=1 n=g#4 v=0
18360 On ch=1 n=f#4 v=0
18360 On ch=1 n=c#4 v=77
18480 On ch=1 n=c#4 v=0
18480 On ch=1 n=f5 v=63
18480 On ch=1 n=g#4 v=63
18600 On ch=1 n=g#4 v=0
18600 On ch=1 n=f5 v=0
18720 On ch=1 n=g#3 v=70
18840 On ch=1 n=g#3 v=0
18840 On ch=1 n=c5 v=60
18840 On ch=1 n=f#4 v=60
18840 On ch=1 n=g#4 v=60
18960 On ch=1 n=g#4 v=0
18960 On ch=1 n=f#4 v=0
18960 On ch=1 n=c5 v=0
18960 On ch=1 n=c5 v=60
18960 On ch=1 n=g#4 v=60
18960 On ch=1 n=f#4 v=60
19080 On ch=1 n=f#4 v=0
19080 On ch=1 n=g#4 v=0
19080 On ch=1 n=c5 v=0
19080 On ch=1 n=f#4 v=60
19080 On ch=1 n=g#4 v=60
19080 On ch=1 n=c5 v=60
19200 On ch=1 n=c5 v=0
19200 On ch=1 n=g#4 v=0
19200 On ch=1 n=f#4 v=0
19200 On ch=1 n=f#4 v=60
19200 On ch=1 n=g#4 v=60
19200 On ch=1 n=c5 v=60
19320 On ch=1 n=c5 v=0
19320 On ch=1 n=g#4 v=0
19320 On ch=1 n=f#4 v=0
19320 On ch=1 n=f#4 v=60
19320 On ch=1 n=g#4 v=60
19320 On ch=1 n=c5 v=60
19440 On ch=1 n=c5 v=0
19440 On ch=1 n=g#4 v=0
19440 On ch=1 n=f#4 v=0
19440 On ch=1 n=c#4 v=70
19560 On ch=1 n=c#4 v=0
19560 On ch=1 n=c#5 v=63
19560 On ch=1 n=g#4 v=63
19680 On ch=1 n=g#4 v=0
19680 On ch=1 n=c#5 v=0
19680 On ch=1 n=c#5 v=67
19680 On ch=1 n=g#4 v=67
19800 On ch=1 n=g#4 v=0
19800 On ch=1 n=c#5 v=0
19800 On ch=1 n=g#3 v=80
19920 On ch=1 n=g#3 v=0
19920 On ch=1 n=f5 v=74
19920 On ch=1 n=c#5 v=74
19920 On ch=1 n=g#4 v=74
20040 On ch=1 n=g#4 v=0
20040 On ch=1 n=c#5 v=0
20040 On ch=1 n=f5 v=0
20040 On ch=1 n=f5 v=77
20040 On ch=1 n=c#5 v=77
20040 On ch=1 n=g#4 v=77
20160 On ch=1 n=g#4 v=0
20160 On ch=1 n=c#5 v=0
20160 On ch=1 n=f5 v=0
20160 On ch=1 n=d#4 v=90
20280 On ch=1 n=d#4 v=0
20280 On ch=1 n=f#5 v=80
20280 On ch=1 n=c5 v=80
20280 On ch=1 n=g#4 v=80
20400 On ch=1 n=g#4 v=0
20400 On ch=1 n=c5 v=0
20400 On ch=1 n=f#5 v=0
20400 On ch=1 n=g#4 v=80
20400 On ch=1 n=c5 v=80
20400 On ch=1 n=f#5 v=80
20520 On ch=1 n=f#5 v=0
20520 On ch=1 n=c5 v=0
20520 On ch=1 n=g#4 v=0
20520 On ch=1 n=g#3 v=90
20640 On ch=1 n=g#3 v=0
20640 On ch=1 n=f#5 v=80
20640 On ch=1 n=d#5 v=80
20640 On ch=1 n=g#4 v=80
20760 On ch=1 n=g#4 v=0
20760 On ch=1 n=d#5 v=0
20760 On ch=1 n=f#5 v=0
20760 On ch=1 n=d#5 v=80
20760 On ch=1 n=f#5 v=80
20760 On ch=1 n=g#4 v=80
20880 On ch=1 n=g#4 v=0
20880 On ch=1 n=f#5 v=0
20880 On ch=1 n=d#5 v=0
20880 On ch=1 n=c#4 v=90
21000 On ch=1 n=c#4 v=0
21000 On ch=1 n=f5 v=77
21000 On ch=1 n=c#5 v=77
21000 On ch=1 n=g#4 v=77
21120 On ch=1 n=g#4 v=0
21120 On ch=1 n=c#5 v=0
21120 On ch=1 n=f5 v=0
21120 On ch=1 n=g#4 v=73
21120 On ch=1 n=c#5 v=73
21120 On ch=1 n=f5 v=73
21240 On ch=1 n=f5 v=0
21240 On ch=1 n=c#5 v=0
21240 On ch=1 n=g#4 v=0
21240 On ch=1 n=f4 v=80
21360 On ch=1 n=f4 v=0
21360 On ch=1 n=f5 v=66
21360 On ch=1 n=c#5 v=66
21360 On ch=1 n=g#4 v=66
21480 On ch=1 n=g#4 v=0
21480 On ch=1 n=c#5 v=0
21480 On ch=1 n=f5 v=0
21480 On ch=1 n=g#4 v=63
21480 On ch=1 n=c#5 v=63
21480 On ch=1 n=f5 v=63
21600 On ch=1 n=f5 v=0
21600 On ch=1 n=c#5 v=0
21600 On ch=1 n=g#4 v=0
21600 On ch=1 n=c4 v=70
21720 On ch=1 n=c4 v=0
21720 On ch=1 n=g#4 v=61
21720 On ch=1 n=f#4 v=61
21840 On ch=1 n=f#4 v=0
21840 On ch=1 n=g#4 v=0
21840 On ch=1 n=f#4 v=63
21840 On ch=1 n=g#4 v=63
21960 On ch=1 n=g#4 v=0
21960 On ch=1 n=f#4 v=0
21960 On ch=1 n=g#3 v=75
22080 On ch=1 n=g#3 v=0
22080 On ch=1 n=c5 v=67
22080 On ch=1 n=g#4 v=67
22080 On ch=1 n=f#4 v=67
22200 On ch=1 n=f#4 v=0
22200 On ch=1 n=g#4 v=0
22200 On ch=1 n=c5 v=0
22200 On ch=1 n=f#4 v=68
22200 On ch=1 n=g#4 v=68
22200 On ch=1 n=c5 v=68
22320 On ch=1 n=c5 v=0
22320 On ch=1 n=g#4 v=0
22320 On ch=1 n=f#4 v=0
22320 On ch=1 n=c#4 v=80
22440 On ch=1 n=c#4 v=0
22440 On ch=1 n=c#5 v=72
22440 On ch=1 n=g#4 v=72
22560 On ch=1 n=g#4 v=0
22560 On ch=1 n=c#5 v=0
22560 On ch=1 n=g#4 v=74
22560 On ch=1 n=c#5 v=74
22680 On ch=1 n=c#5 v=0
22680 On ch=1 n=g#4 v=0
22680 On ch=1 n=b3 v=85
22800 On ch=1 n=b3 v=0
22800 On ch=1 n=f5 v=77
22800 On ch=1 n=c#5 v=77
22800 On ch=1 n=g#4 v=77
22920 On ch=1 n=g#4 v=0
22920 On ch=1 n=c#5 v=0
22920 On ch=1 n=f5 v=0
22920 On ch=1 n=c#5 v=79
22920 On ch=1 n=f5 v=79
22920 On ch=1 n=g#4 v=79
23040 On ch=1 n=g#4 v=0
23040 On ch=1 n=f5 v=0
23040 On ch=1 n=c#5 v=0
23040 On ch=1 n=c4 v=90
23160 On ch=1 n=c4 v=0
23160 On ch=1 n=f5 v=80
23160 On ch=1 n=c5 v=80
23160 On ch=1 n=g#4 v=80
23280 On ch=1 n=g#4 v=0
23280 On ch=1 n=c5 v=0
23280 On ch=1 n=f5 v=0
23280 On ch=1 n=g#4 v=80
23280 On ch=1 n=c5 v=80
23280 On ch=1 n=f5 v=80
23400 On ch=1 n=f5 v=0
23400 On ch=1 n=c5 v=0
23400 On ch=1 n=g#4 v=0
23400 On ch=1 n=c3 v=90
23520 On ch=1 n=c3 v=0
23520 On ch=1 n=e5 v=80
23520 On ch=1 n=c5 v=80
23520 On ch=1 n=g4 v=80
23640 On ch=1 n=g4 v=0
23640 On ch=1 n=c5 v=0
23640 On ch=1 n=e5 v=0
23760 On ch=1 n=f3 v=80
23880 On ch=1 n=f3 v=0
24000 On ch=1 n=c5 v=75
24000 On ch=1 n=f4 v=75
24120 On ch=1 n=f4 v=0
24120 On ch=1 n=c5 v=0
24480 On ch=1 n=c4 v=75
24600 On ch=1 n=c4 v=0
24600 On ch=1 n=g#4 v=62
24600 On ch=1 n=f#4 v=62
24720 On ch=1 n=f#4 v=0
24720 On ch=1 n=g#4 v=0
24720 On ch=1 n=f#4 v=60
24720 On ch=1 n=g#4 v=60
24840 On ch=1 n=g#4 v=0
24840 On ch=1 n=f#4 v=0
24840 On ch=1 n=g#3 v=70
24960 On ch=1 n=g#3 v=0
24960 On ch=1 n=c5 v=60
24960 On ch=1 n=g#4 v=60
24960 On ch=1 n=f#4 v=60
25080 On ch=1 n=f#4 v=0
25080 On ch=1 n=g#4 v=0
25080 On ch=1 n=c5 v=0
25080 On ch=1 n=c5 v=60
25080 On ch=1 n=g#4 v=60
25080 On ch=1 n=f#4 v=60
25200 On ch=1 n=f#4 v=0
25200 On ch=1 n=g#4 v=0
25200 On ch=1 n=c5 v=0
25200 On ch=1 n=c#4 v=70
25320 On ch=1 n=c#4 v=0
25320 On ch=1 n=c#5 v=60
25320 On ch=1 n=g#4 v=60
25440 On ch=1 n=g#4 v=0
25440 On ch=1 n=c#5 v=0
25440 On ch=1 n=g#4 v=60
25440 On ch=1 n=c#5 v=60
25560 On ch=1 n=c#5 v=0
25560 On ch=1 n=g#4 v=0
25560 On ch=1 n=g#3 v=70
25680 On ch=1 n=g#3 v=0
25680 On ch=1 n=f5 v=60
25680 On ch=1 n=c#5 v=60
25680 On ch=1 n=g#4 v=60
25800 On ch=1 n=g#4 v=0
25800 On ch=1 n=c#5 v=0
25800 On ch=1 n=f5 v=0
25800 On ch=1 n=c#5 v=60
25800 On ch=1 n=f5 v=60
25800 On ch=1 n=g#4 v=60
25920 On ch=1 n=g#4 v=0
25920 On ch=1 n=f5 v=0
25920 On ch=1 n=c#5 v=0
25920 On ch=1 n=d#4 v=70
26040 On ch=1 n=d#4 v=0
26040 On ch=1 n=f#5 v=60
26040 On ch=1 n=c5 v=60
26040 On ch=1 n=g#4 v=60
26160 On ch=1 n=g#4 v=0
26160 On ch=1 n=c5 v=0
26160 On ch=1 n=f#5 v=0
26160 On ch=1 n=g#4 v=60
26160 On ch=1 n=c5 v=60
26160 On ch=1 n=f#5 v=60
26280 On ch=1 n=f#5 v=0
26280 On ch=1 n=c5 v=0
26280 On ch=1 n=g#4 v=0
26280 On ch=1 n=g#3 v=70
26400 On ch=1 n=g#3 v=0
26400 On ch=1 n=f#5 v=60
26400 On ch=1 n=d#5 v=60
26400 On ch=1 n=g#4 v=60
26520 On ch=1 n=g#4 v=0
26520 On ch=1 n=d#5 v=0
26520 On ch=1 n=f#5 v=0
26520 On ch=1 n=d#5 v=60
26520 On ch=1 n=f#5 v=60
26520 On ch=1 n=g#4 v=60
26640 On ch=1 n=g#4 v=0
26640 On ch=1 n=f#5 v=0
26640 On ch=1 n=d#5 v=0
26640 On ch=1 n=c#4 v=70
26760 On ch=1 n=c#4 v=0
26760 On ch=1 n=f5 v=60
26760 On ch=1 n=c#5 v=60
26760 On ch=1 n=g#4 v=60
26880 On ch=1 n=g#4 v=0
26880 On ch=1 n=c#5 v=0
26880 On ch=1 n=f5 v=0
26880 On ch=1 n=g#4 v=60
26880 On ch=1 n=c#5 v=60
26880 On ch=1 n=f5 v=60
27000 On ch=1 n=f5 v=0
27000 On ch=1 n=c#5 v=0
27000 On ch=1 n=g#4 v=0
27000 On ch=1 n=f4 v=70
27120 On ch=1 n=f4 v=0
27120 On ch=1 n=f5 v=60
27120 On ch=1 n=c#5 v=60
27120 On ch=1 n=g#4 v=60
27240 On ch=1 n=g#4 v=0
27240 On ch=1 n=c#5 v=0
27240 On ch=1 n=f5 v=0
27240 On ch=1 n=g#4 v=60
27240 On ch=1 n=c#5 v=60
27240 On ch=1 n=f5 v=60
27360 On ch=1 n=f5 v=0
27360 On ch=1 n=c#5 v=0
27360 On ch=1 n=g#4 v=0
27360 On ch=1 n=c4 v=70
27480 On ch=1 n=g#4 v=60
27480 On ch=1 n=f#4 v=60
27600 On ch=1 n=f#4 v=0
27600 On ch=1 n=g#4 v=0
27600 On ch=1 n=f#4 v=60
27600 On ch=1 n=g#4 v=60
27720 On ch=1 n=g#4 v=0
27720 On ch=1 n=f#4 v=0
27720 On ch=1 n=c4 v=0
27720 On ch=1 n=g#3 v=70
27840 On ch=1 n=g#3 v=0
27840 On ch=1 n=c5 v=60
27840 On ch=1 n=g#4 v=60
27840 On ch=1 n=f#4 v=60
27960 On ch=1 n=f#4 v=0
27960 On ch=1 n=g#4 v=0
27960 On ch=1 n=c5 v=0
27960 On ch=1 n=c5 v=60
27960 On ch=1 n=g#4 v=60
27960 On ch=1 n=f#4 v=60
28080 On ch=1 n=f#4 v=0
28080 On ch=1 n=g#4 v=0
28080 On ch=1 n=c5 v=0
28080 On ch=1 n=b3 v=70
28200 On ch=1 n=b3 v=0
28200 On ch=1 n=d#5 v=64
28200 On ch=1 n=g#4 v=64
28200 On ch=1 n=f4 v=64
28320 On ch=1 n=f4 v=0
28320 On ch=1 n=g#4 v=0
28320 On ch=1 n=d#5 v=0
28320 On ch=1 n=f4 v=68
28320 On ch=1 n=g#4 v=68
28320 On ch=1 n=d#5 v=68
28440 On ch=1 n=d#5 v=0
28440 On ch=1 n=g#4 v=0
28440 On ch=1 n=f4 v=0
28440 On ch=1 n=a#3 v=82
28560 On ch=1 n=a#3 v=0
28560 On ch=1 n=d5 v=77
28560 On ch=1 n=g#4 v=77
28560 On ch=1 n=f4 v=77
28680 On ch=1 n=f4 v=0
28680 On ch=1 n=g#4 v=0
28680 On ch=1 n=d5 v=0
28680 On ch=1 n=f4 v=80
28680 On ch=1 n=g#4 v=80
28680 On ch=1 n=d5 v=80
28800 On ch=1 n=d5 v=0
28800 On ch=1 n=g#4 v=0
28800 On ch=1 n=f4 v=0
28800 On ch=1 n=d#4 v=90
28920 On ch=1 n=d#4 v=0
28920 On ch=1 n=g5 v=77
28920 On ch=1 n=c#5 v=77
29040 On ch=1 n=c#5 v=0
29040 On ch=1 n=g5 v=0
29040 On ch=1 n=g5 v=73
29040 On ch=1 n=c#5 v=73
29160 On ch=1 n=c#5 v=0
29160 On ch=1 n=g5 v=0
29280 On ch=1 n=g5 v=66
29280 On ch=1 n=c#5 v=66
29400 On ch=1 n=c#5 v=0
29400 On ch=1 n=g5 v=0
29400 On ch=1 n=g5 v=63
29400 On ch=1 n=c#5 v=63
29520 On ch=1 n=c#5 v=0
29520 On ch=1 n=g5 v=0
29520 On ch=1 n=g#4 v=70
29640 On ch=1 n=f#5 v=62
29640 On ch=1 n=c5 v=62
29760 On ch=1 n=c5 v=0
29760 On ch=1 n=f#5 v=0
29760 On ch=1 n=g#4 v=0
33120 On ch=1 n=c#3 v=110
33240 On ch=1 n=c#3 v=0
33240 On ch=1 n=f5 v=100
33240 On ch=1 n=c#5 v=100
33240 On ch=1 n=g#4 v=100
33360 On ch=1 n=g#4 v=0
33360 On ch=1 n=c#5 v=0
33360 On ch=1 n=f5 v=0
33360 On ch=1 n=c#5 v=100
33360 On ch=1 n=f5 v=100
33360 On ch=1 n=g#4 v=100
33480 On ch=1 n=g#4 v=0
33480 On ch=1 n=f5 v=0
33480 On ch=1 n=c#5 v=0
33480 On ch=1 n=f4 v=110
33600 On ch=1 n=f4 v=0
33600 On ch=1 n=f5 v=100
33600 On ch=1 n=c#5 v=100
33600 On ch=1 n=g#4 v=100
33720 On ch=1 n=g#4 v=0
33720 On ch=1 n=c#5 v=0
33720 On ch=1 n=f5 v=0
33720 On ch=1 n=g#4 v=100
33720 On ch=1 n=c#5 v=100
33720 On ch=1 n=f5 v=100
33840 On ch=1 n=f5 v=0
33840 On ch=1 n=c#5 v=0
33840 On ch=1 n=g#4 v=0
33840 On ch=1 n=c#4 v=110
33960 On ch=1 n=c#4 v=0
33960 On ch=1 n=f5 v=100
33960 On ch=1 n=c#5 v=100
33960 On ch=1 n=g#4 v=100
34080 On ch=1 n=g#4 v=0
34080 On ch=1 n=c#5 v=0
34080 On ch=1 n=f5 v=0
34080 On ch=1 n=c#5 v=100
34080 On ch=1 n=f5 v=100
34080 On ch=1 n=g#4 v=100
34200 On ch=1 n=g#4 v=0
34200 On ch=1 n=f5 v=0
34200 On ch=1 n=c#5 v=0
34200 On ch=1 n=f4 v=110
34320 On ch=1 n=f4 v=0
34320 On ch=1 n=f5 v=100
34320 On ch=1 n=c#5 v=100
34320 On ch=1 n=g#4 v=100
34440 On ch=1 n=g#4 v=0
34440 On ch=1 n=c#5 v=0
34440 On ch=1 n=f5 v=0
34440 On ch=1 n=c#5 v=100
34440 On ch=1 n=f5 v=100
34440 On ch=1 n=g#4 v=100
34560 On ch=1 n=g#4 v=0
34560 On ch=1 n=f5 v=0
34560 On ch=1 n=c#5 v=0
34560 On ch=1 n=g#3 v=110
34680 On ch=1 n=g#3 v=0
34680 On ch=1 n=f#5 v=97
34680 On ch=1 n=c5 v=97
34680 On ch=1 n=g#4 v=97
34800 On ch=1 n=g#4 v=0
34800 On ch=1 n=c5 v=0
34800 On ch=1 n=f#5 v=0
34800 On ch=1 n=g#4 v=94
34800 On ch=1 n=c5 v=94
34800 On ch=1 n=f#5 v=94
34920 On ch=1 n=f#5 v=0
34920 On ch=1 n=c5 v=0
34920 On ch=1 n=g#4 v=0
34920 On ch=1 n=d#4 v=100
35040 On ch=1 n=d#4 v=0
35040 On ch=1 n=f#5 v=87
35040 On ch=1 n=c5 v=87
35040 On ch=1 n=g#4 v=87
35160 On ch=1 n=g#4 v=0
35160 On ch=1 n=c5 v=0
35160 On ch=1 n=f#5 v=0
35160 On ch=1 n=g#4 v=83
35160 On ch=1 n=c5 v=83
35160 On ch=1 n=f#5 v=83
35280 On ch=1 n=f#5 v=0
35280 On ch=1 n=c5 v=0
35280 On ch=1 n=g#4 v=0
35280 On ch=1 n=g#3 v=90
35400 On ch=1 n=g#3 v=0
35400 On ch=1 n=f#5 v=77
35400 On ch=1 n=c5 v=77
35520 On ch=1 n=c5 v=0
35520 On ch=1 n=f#5 v=0
35520 On ch=1 n=c5 v=73
35520 On ch=1 n=f#5 v=73
35640 On ch=1 n=f#5 v=0
35640 On ch=1 n=c5 v=0
35640 On ch=1 n=g#4 v=80
35760 On ch=1 n=g#4 v=0
35760 On ch=1 n=f#5 v=66
35760 On ch=1 n=c5 v=66
35880 On ch=1 n=c5 v=0
35880 On ch=1 n=f#5 v=0
35880 On ch=1 n=c5 v=63
35880 On ch=1 n=f#5 v=63
36000 On ch=1 n=f#5 v=0
36000 On ch=1 n=c5 v=0
36000 On ch=1 n=c#4 v=70
36120 On ch=1 n=c#4 v=0
36120 On ch=1 n=f5 v=60
36120 On ch=1 n=c#5 v=60
36120 On ch=1 n=g#4 v=60
36240 On ch=1 n=g#4 v=0
36240 On ch=1 n=c#5 v=0
36240 On ch=1 n=f5 v=0
36240 On ch=1 n=g#4 v=60
36240 On ch=1 n=c#5 v=60
36240 On ch=1 n=f5 v=60
36360 On ch=1 n=f5 v=0
36360 On ch=1 n=c#5 v=0
36360 On ch=1 n=g#4 v=0
36360 On ch=1 n=f4 v=70
36480 On ch=1 n=f4 v=0
36480 On ch=1 n=f5 v=60
36480 On ch=1 n=c#5 v=60
36480 On ch=1 n=g#4 v=60
36600 On ch=1 n=g#4 v=0
36600 On ch=1 n=c#5 v=0
36600 On ch=1 n=f5 v=0
36600 On ch=1 n=g#4 v=60
36600 On ch=1 n=c#5 v=60
36600 On ch=1 n=f5 v=60
36720 On ch=1 n=f5 v=0
36720 On ch=1 n=c#5 v=0
36720 On ch=1 n=g#4 v=0
36720 On ch=1 n=c#4 v=70
36840 On ch=1 n=c#4 v=0
36840 On ch=1 n=f5 v=63
36840 On ch=1 n=c#5 v=63
36840 On ch=1 n=g#4 v=63
36960 On ch=1 n=g#4 v=0
36960 On ch=1 n=c#5 v=0
36960 On ch=1 n=f5 v=0
36960 On ch=1 n=g#4 v=67
36960 On ch=1 n=c#5 v=67
36960 On ch=1 n=f5 v=67
37080 On ch=1 n=f5 v=0
37080 On ch=1 n=c#5 v=0
37080 On ch=1 n=g#4 v=0
37080 On ch=1 n=f4 v=80
37200 On ch=1 n=f4 v=0
37200 On ch=1 n=f5 v=74
37200 On ch=1 n=c#5 v=74
37200 On ch=1 n=g#4 v=74
37320 On ch=1 n=g#4 v=0
37320 On ch=1 n=c#5 v=0
37320 On ch=1 n=f5 v=0
37320 On ch=1 n=g#4 v=77
37320 On ch=1 n=c#5 v=77
37320 On ch=1 n=f5 v=77
37440 On ch=1 n=f5 v=0
37440 On ch=1 n=c#5 v=0
37440 On ch=1 n=g#4 v=0
37440 On ch=1 n=g#3 v=90
37560 On ch=1 n=g#3 v=0
37560 On ch=1 n=f#5 v=78
37560 On ch=1 n=c5 v=78
37560 On ch=1 n=g#4 v=78
37680 On ch=1 n=g#4 v=0
37680 On ch=1 n=c5 v=0
37680 On ch=1 n=f#5 v=0
37680 On ch=1 n=g#4 v=76
37680 On ch=1 n=c5 v=76
37680 On ch=1 n=f#5 v=76
37800 On ch=1 n=f#5 v=0
37800 On ch=1 n=c5 v=0
37800 On ch=1 n=g#4 v=0
37800 On ch=1 n=d#4 v=83
37920 On ch=1 n=d#4 v=0
37920 On ch=1 n=f#5 v=71
37920 On ch=1 n=c5 v=71
37920 On ch=1 n=g#4 v=71
38040 On ch=1 n=g#4 v=0
38040 On ch=1 n=c5 v=0
38040 On ch=1 n=f#5 v=0
38040 On ch=1 n=g#4 v=69
38040 On ch=1 n=c5 v=69
38040 On ch=1 n=f#5 v=69
38160 On ch=1 n=f#5 v=0
38160 On ch=1 n=c5 v=0
38160 On ch=1 n=g#4 v=0
38160 On ch=1 n=g#3 v=76
38280 On ch=1 n=g#3 v=0
38280 On ch=1 n=f#5 v=64
38280 On ch=1 n=c5 v=64
38280 On ch=1 n=g#4 v=64
38400 On ch=1 n=g#4 v=0
38400 On ch=1 n=c5 v=0
38400 On ch=1 n=f#5 v=0
38400 On ch=1 n=g#4 v=62
38400 On ch=1 n=c5 v=62
38400 On ch=1 n=f#5 v=62
38520 On ch=1 n=f#5 v=0
38520 On ch=1 n=c5 v=0
38520 On ch=1 n=g#4 v=0
38520 On ch=1 n=d#4 v=60
38550 On ch=1 n=d#4 v=0
38640 On ch=1 n=f#5 v=62
38640 On ch=1 n=c5 v=62
38640 On ch=1 n=g#4 v=62
38670 On ch=1 n=g#4 v=0
38670 On ch=1 n=c5 v=0
38670 On ch=1 n=f#5 v=0
38760 On ch=1 n=g#3 v=65
38790 On ch=1 n=g#3 v=0
38880 On ch=1 n=a3 v=78
39000 On ch=1 n=a3 v=0
39000 On ch=1 n=d#5 v=71
39000 On ch=1 n=c5 v=71
39000 On ch=1 n=f4 v=71
39120 On ch=1 n=f4 v=0
39120 On ch=1 n=c5 v=0
39120 On ch=1 n=d#5 v=0
39120 On ch=1 n=c5 v=74
39120 On ch=1 n=d#5 v=74
39120 On ch=1 n=f4 v=74
39240 On ch=1 n=f4 v=0
39240 On ch=1 n=d#5 v=0
39240 On ch=1 n=c5 v=0
39240 On ch=1 n=a#3 v=87
39360 On ch=1 n=a#3 v=0
39360 On ch=1 n=c#5 v=79
39360 On ch=1 n=f4 v=79
39480 On ch=1 n=f4 v=0
39480 On ch=1 n=c#5 v=0
39480 On ch=1 n=c#5 v=82
39480 On ch=1 n=f4 v=82
39600 On ch=1 n=f4 v=0
39600 On ch=1 n=c#5 v=0
39600 On ch=1 n=c4 v=95
39720 On ch=1 n=c4 v=0
39720 On ch=1 n=f#5 v=88
39720 On ch=1 n=d#5 v=88
39720 On ch=1 n=g#4 v=88
39840 On ch=1 n=g#4 v=0
39840 On ch=1 n=d#5 v=0
39840 On ch=1 n=f#5 v=0
39840 On ch=1 n=d#5 v=91
39840 On ch=1 n=f#5 v=91
39840 On ch=1 n=g#4 v=91
39960 On ch=1 n=g#4 v=0
39960 On ch=1 n=f#5 v=0
39960 On ch=1 n=d#5 v=0
39960 On ch=1 n=c#4 v=104
40080 On ch=1 n=c#4 v=0
40080 On ch=1 n=f5 v=97
40080 On ch=1 n=g#4 v=97
40200 On ch=1 n=g#4 v=0
40200 On ch=1 n=f5 v=0
40320 On ch=1 n=f#4 v=110
40440 On ch=1 n=f#4 v=0
40440 On ch=1 n=d#5 v=93
40440 On ch=1 n=a#4 v=93
40560 On ch=1 n=a#4 v=0
40560 On ch=1 n=d#5 v=0
40680 On ch=1 n=g#3 v=89
40800 On ch=1 n=g#3 v=0
40800 On ch=1 n=c#5 v=72
40800 On ch=1 n=g#4 v=72
40800 On ch=1 n=f4 v=72
40920 On ch=1 n=f4 v=0
40920 On ch=1 n=g#4 v=0
40920 On ch=1 n=c#5 v=0
41040 On ch=1 n=g#3 v=70
41160 On ch=1 n=g#3 v=0
41160 On ch=1 n=g#4 v=60
41160 On ch=1 n=f#4 v=60
41280 On ch=1 n=f#4 v=0
41280 On ch=1 n=g#4 v=0
41280 On ch=1 n=c5 v=60
41280 On ch=1 n=g#4 v=60
41280 On ch=1 n=f#4 v=60
41400 On ch=1 n=f#4 v=0
41400 On ch=1 n=g#4 v=0
41400 On ch=1 n=c5 v=0
41400 On ch=1 n=c#4 v=70
41520 On ch=1 n=c#4 v=0
41520 On ch=1 n=f5 v=63
41520 On ch=1 n=c#5 v=63
41520 On ch=1 n=g#4 v=63
41640 On ch=1 n=g#4 v=0
41640 On ch=1 n=c#5 v=0
41640 On ch=1 n=f5 v=0
43560 On ch=1 n=g#3 v=97
43680 On ch=1 n=g#3 v=0
43680 On ch=1 n=c#5 v=82
43680 On ch=1 n=g#4 v=82
43680 On ch=1 n=f4 v=82
43800 On ch=1 n=f4 v=0
43800 On ch=1 n=g#4 v=0
43800 On ch=1 n=c#5 v=0
43920 On ch=1 n=g#3 v=83
44040 On ch=1 n=g#3 v=0
44040 On ch=1 n=g#4 v=68
44040 On ch=1 n=f#4 v=68
44160 On ch=1 n=f#4 v=0
44160 On ch=1 n=g#4 v=0
44160 On ch=1 n=f#4 v=64
44160 On ch=1 n=g#4 v=64
44280 On ch=1 n=g#4 v=0
44280 On ch=1 n=f#4 v=0
44280 On ch=1 n=c#4 v=70
44400 On ch=1 n=c#4 v=0
44400 On ch=1 n=f5 v=60
44400 On ch=1 n=g#4 v=60
44520 On ch=1 n=g#4 v=0
44520 On ch=1 n=f5 v=0
44640 On ch=1 n=a3 v=70
44760 On ch=1 n=a3 v=0
44760 On ch=1 n=d#5 v=63
44760 On ch=1 n=c5 v=63
44760 On ch=1 n=f4 v=63
44880 On ch=1 n=f4 v=0
44880 On ch=1 n=c5 v=0
44880 On ch=1 n=d#5 v=0
44880 On ch=1 n=c5 v=66
44880 On ch=1 n=d#5 v=66
44880 On ch=1 n=f4 v=66
45000 On ch=1 n=f4 v=0
45000 On ch=1 n=d#5 v=0
45000 On ch=1 n=c5 v=0
45000 On ch=1 n=a#3 v=80
45120 On ch=1 n=a#3 v=0
45120 On ch=1 n=c#5 v=73
45120 On ch=1 n=f4 v=73
45240 On ch=1 n=f4 v=0
45240 On ch=1 n=c#5 v=0
45240 On ch=1 n=f4 v=77
45240 On ch=1 n=c#5 v=77
45360 On ch=1 n=c#5 v=0
45360 On ch=1 n=f4 v=0
45360 On ch=1 n=c4 v=90
45480 On ch=1 n=c4 v=0
45480 On ch=1 n=f#5 v=83
45480 On ch=1 n=d#5 v=83
45480 On ch=1 n=g#4 v=83
45600 On ch=1 n=g#4 v=0
45600 On ch=1 n=d#5 v=0
45600 On ch=1 n=f#5 v=0
45600 On ch=1 n=f#5 v=87
45600 On ch=1 n=d#5 v=87
45600 On ch=1 n=g#4 v=87
45720 On ch=1 n=g#4 v=0
45720 On ch=1 n=d#5 v=0
45720 On ch=1 n=f#5 v=0
45720 On ch=1 n=c#4 v=100
45840 On ch=1 n=c#4 v=0
45840 On ch=1 n=f5 v=94
45840 On ch=1 n=g#4 v=94
45960 On ch=1 n=g#4 v=0
45960 On ch=1 n=f5 v=0
46080 On ch=1 n=f#4 v=110
46200 On ch=1 n=f#4 v=0
46200 On ch=1 n=d#5 v=100
46200 On ch=1 n=a#4 v=100
46320 On ch=1 n=a#4 v=0
46320 On ch=1 n=d#5 v=0
46440 On ch=1 n=g#3 v=110
46560 On ch=1 n=g#3 v=0
46560 On ch=1 n=c#5 v=93
46560 On ch=1 n=g#4 v=93
46560 On ch=1 n=f4 v=93
46680 On ch=1 n=f4 v=0
46680 On ch=1 n=g#4 v=0
46680 On ch=1 n=c#5 v=0
46800 On ch=1 n=g#3 v=90
46920 On ch=1 n=g#3 v=0
46920 On ch=1 n=g#4 v=80
46920 On ch=1 n=f#4 v=80
47040 On ch=1 n=f#4 v=0
47040 On ch=1 n=g#4 v=0
47040 On ch=1 n=c5 v=80
47040 On ch=1 n=g#4 v=80
47040 On ch=1 n=f#4 v=80
47160 On ch=1 n=f#4 v=0
47160 On ch=1 n=g#4 v=0
47160 On ch=1 n=c5 v=0
47160 On ch=1 n=c#4 v=90
47280 On ch=1 n=c#4 v=0
47280 On ch=1 n=f5 v=83
47280 On ch=1 n=c#5 v=83
47280 On ch=1 n=g#4 v=83
47400 On ch=1 n=g#4 v=0
47400 On ch=1 n=c#5 v=0
47400 On ch=1 n=f5 v=0
48960 On ch=1 n=f#3 v=127
49080 On ch=1 n=f#3 v=0
49680 On ch=1 n=g#3 v=100
49800 On ch=1 n=g#3 v=0
49800 On ch=1 n=g#4 v=92
49800 On ch=1 n=f#4 v=92
49920 On ch=1 n=f#4 v=0
49920 On ch=1 n=g#4 v=0
49920 On ch=1 n=f#4 v=95
49920 On ch=1 n=g#4 v=95
50040 On ch=1 n=g#4 v=0
50040 On ch=1 n=f#4 v=0
50040 On ch=1 n=c#3 v=108
50160 On ch=1 n=c#3 v=0
50160 On ch=1 n=f5 v=100
50160 On ch=1 n=g#4 v=100
50160 On ch=1 n=f4 v=100
50280 On ch=1 n=f4 v=0
50280 On ch=1 n=g#4 v=0
50280 On ch=1 n=f5 v=0
50280 Meta TrkEnd
TrkEnd
MTrk
0 Meta 0x21 00
0 Meta TrkName "Pedal"
0 PrCh ch=1 p=0
1440 Par ch=1 c=64 v=127
1680 Par ch=1 c=64 v=0
1800 Par ch=1 c=64 v=127
2040 Par ch=1 c=64 v=0
2160 Par ch=1 c=64 v=127
2400 Par ch=1 c=64 v=0
2520 Par ch=1 c=64 v=127
2760 Par ch=1 c=64 v=0
2880 Par ch=1 c=64 v=127
3120 Par ch=1 c=64 v=0
3240 Par ch=1 c=64 v=127
3480 Par ch=1 c=64 v=0
3600 Par ch=1 c=64 v=127
4200 Par ch=1 c=64 v=0
4320 Par ch=1 c=64 v=127
4560 Par ch=1 c=64 v=0
4680 Par ch=1 c=64 v=127
4920 Par ch=1 c=64 v=0
5040 Par ch=1 c=64 v=127
5280 Par ch=1 c=64 v=0
5400 Par ch=1 c=64 v=127
5640 Par ch=1 c=64 v=0
5760 Par ch=1 c=64 v=127
6000 Par ch=1 c=64 v=0
6120 Par ch=1 c=64 v=127
6360 Par ch=1 c=64 v=0
6480 Par ch=1 c=64 v=127
6720 Par ch=1 c=64 v=0
6840 Par ch=1 c=64 v=127
7080 Par ch=1 c=64 v=0
7200 Par ch=1 c=64 v=127
7440 Par ch=1 c=64 v=0
7560 Par ch=1 c=64 v=127
7800 Par ch=1 c=64 v=0
7920 Par ch=1 c=64 v=127
8160 Par ch=1 c=64 v=0
8280 Par ch=1 c=64 v=127
8520 Par ch=1 c=64 v=0
8640 Par ch=1 c=64 v=127
8880 Par ch=1 c=64 v=0
9000 Par ch=1 c=64 v=127
9240 Par ch=1 c=64 v=0
9360 Par ch=1 c=64 v=127
9600 Par ch=1 c=64 v=0
9720 Par ch=1 c=64 v=127
9960 Par ch=1 c=64 v=0
11520 Par ch=1 c=64 v=127
11760 Par ch=1 c=64 v=0
11880 Par ch=1 c=64 v=127
12120 Par ch=1 c=64 v=0
12240 Par ch=1 c=64 v=127
12480 Par ch=1 c=64 v=0
12600 Par ch=1 c=64 v=127
12840 Par ch=1 c=64 v=0
12960 Par ch=1 c=64 v=127
13200 Par ch=1 c=64 v=0
13320 Par ch=1 c=64 v=127
13560 Par ch=1 c=64 v=0
13680 Par ch=1 c=64 v=127
13920 Par ch=1 c=64 v=0
14040 Par ch=1 c=64 v=127
14280 Par ch=1 c=64 v=0
14400 Par ch=1 c=64 v=127
14640 Par ch=1 c=64 v=0
14760 Par ch=1 c=64 v=127
15000 Par ch=1 c=64 v=0
15120 Par ch=1 c=64 v=127
15360 Par ch=1 c=64 v=0
15480 Par ch=1 c=64 v=127
15720 Par ch=1 c=64 v=0
17280 Par ch=1 c=64 v=127
17520 Par ch=1 c=64 v=0
17640 Par ch=1 c=64 v=127
17880 Par ch=1 c=64 v=0
18000 Par ch=1 c=64 v=127
18240 Par ch=1 c=64 v=0
18360 Par ch=1 c=64 v=127
18480 Par ch=1 c=64 v=0
18720 Par ch=1 c=64 v=127
19200 Par ch=1 c=64 v=0
19440 Par ch=1 c=64 v=127
19680 Par ch=1 c=64 v=0
19800 Par ch=1 c=64 v=127
20040 Par ch=1 c=64 v=0
20160 Par ch=1 c=64 v=127
20400 Par ch=1 c=64 v=0
20520 Par ch=1 c=64 v=127
20760 Par ch=1 c=64 v=0
20880 Par ch=1 c=64 v=127
21120 Par ch=1 c=64 v=0
21240 Par ch=1 c=64 v=127
21480 Par ch=1 c=64 v=0
21600 Par ch=1 c=64 v=127
21840 Par ch=1 c=64 v=0
21960 Par ch=1 c=64 v=127
22200 Par ch=1 c=64 v=0
22320 Par ch=1 c=64 v=127
22560 Par ch=1 c=64 v=0
22680 Par ch=1 c=64 v=127
22920 Par ch=1 c=64 v=0
23040 Par ch=1 c=64 v=127
23280 Par ch=1 c=64 v=0
23400 Par ch=1 c=64 v=127
23640 Par ch=1 c=64 v=0
23760 Par ch=1 c=64 v=127
23880 Par ch=1 c=64 v=0
24480 Par ch=1 c=64 v=127
24720 Par ch=1 c=64 v=0
24840 Par ch=1 c=64 v=127
25080 Par ch=1 c=64 v=0
25200 Par ch=1 c=64 v=127
25440 Par ch=1 c=64 v=0
25560 Par ch=1 c=64 v=127
25800 Par ch=1 c=64 v=0
25920 Par ch=1 c=64 v=127
26160 Par ch=1 c=64 v=0
26280 Par ch=1 c=64 v=127
26520 Par ch=1 c=64 v=0
26640 Par ch=1 c=64 v=127
26880 Par ch=1 c=64 v=0
27000 Par ch=1 c=64 v=127
27240 Par ch=1 c=64 v=0
27360 Par ch=1 c=64 v=127
27600 Par ch=1 c=64 v=0
27720 Par ch=1 c=64 v=127
27960 Par ch=1 c=64 v=0
28080 Par ch=1 c=64 v=127
28320 Par ch=1 c=64 v=0
28440 Par ch=1 c=64 v=127
28680 Par ch=1 c=64 v=0
28800 Par ch=1 c=64 v=127
29040 Par ch=1 c=64 v=0
33120 Par ch=1 c=64 v=127
33360 Par ch=1 c=64 v=0
33480 Par ch=1 c=64 v=127
33720 Par ch=1 c=64 v=0
33840 Par ch=1 c=64 v=127
34080 Par ch=1 c=64 v=0
34200 Par ch=1 c=64 v=127
34440 Par ch=1 c=64 v=0
34560 Par ch=1 c=64 v=127
34800 Par ch=1 c=64 v=0
34920 Par ch=1 c=64 v=127
35160 Par ch=1 c=64 v=0
35280 Par ch=1 c=64 v=127
35880 Par ch=1 c=64 v=0
36000 Par ch=1 c=64 v=127
36240 Par ch=1 c=64 v=0
36360 Par ch=1 c=64 v=127
36600 Par ch=1 c=64 v=0
36720 Par ch=1 c=64 v=127
36960 Par ch=1 c=64 v=0
37080 Par ch=1 c=64 v=127
37320 Par ch=1 c=64 v=0
37440 Par ch=1 c=64 v=127
37680 Par ch=1 c=64 v=0
37800 Par ch=1 c=64 v=127
38040 Par ch=1 c=64 v=0
38160 Par ch=1 c=64 v=127
38400 Par ch=1 c=64 v=0
38520 Par ch=1 c=64 v=127
38760 Par ch=1 c=64 v=0
38880 Par ch=1 c=64 v=127
39120 Par ch=1 c=64 v=0
39240 Par ch=1 c=64 v=127
39480 Par ch=1 c=64 v=0
39600 Par ch=1 c=64 v=127
39840 Par ch=1 c=64 v=0
39960 Par ch=1 c=64 v=127
40200 Par ch=1 c=64 v=0
40320 Par ch=1 c=64 v=127
40560 Par ch=1 c=64 v=0
40680 Par ch=1 c=64 v=127
40920 Par ch=1 c=64 v=0
41040 Par ch=1 c=64 v=127
41280 Par ch=1 c=64 v=0
41400 Par ch=1 c=64 v=127
41640 Par ch=1 c=64 v=0
43200 Par ch=1 c=64 v=127
43440 Par ch=1 c=64 v=0
43560 Par ch=1 c=64 v=127
43800 Par ch=1 c=64 v=0
43920 Par ch=1 c=64 v=127
44160 Par ch=1 c=64 v=0
44280 Par ch=1 c=64 v=127
44520 Par ch=1 c=64 v=0
44640 Par ch=1 c=64 v=127
44880 Par ch=1 c=64 v=0
45000 Par ch=1 c=64 v=127
45240 Par ch=1 c=64 v=0
45360 Par ch=1 c=64 v=127
45600 Par ch=1 c=64 v=0
45720 Par ch=1 c=64 v=127
45960 Par ch=1 c=64 v=0
46080 Par ch=1 c=64 v=127
46320 Par ch=1 c=64 v=0
46440 Par ch=1 c=64 v=127
46680 Par ch=1 c=64 v=0
46800 Par ch=1 c=64 v=127
47040 Par ch=1 c=64 v=0
47160 Par ch=1 c=64 v=127
47400 Par ch=1 c=64 v=0
48600 Par ch=1 c=64 v=127
48840 Par ch=1 c=64 v=0
48960 Par ch=1 c=64 v=127
49200 Par ch=1 c=64 v=0
49680 Par ch=1 c=64 v=127
49920 Par ch=1 c=64 v=0
50040 Par ch=1 c=64 v=127
50280 Par ch=1 c=64 v=0
50280 Meta TrkEnd
TrkEnd
MTrk
0 Meta 0x21 00
0 Meta TrkName "F. Chopin Valse No. 06 in Db Op. 64-1"
0 Meta TrkEnd
TrkEnd
MTrk
0 Meta 0x21 00
0 Meta TrkName "Jeruen E. Dery jawjaw@hotmail.com"
0 Meta TrkEnd
TrkEnd
