MFile 1 6 120
MTrk
0 Meta SeqName ""
0 Meta Text "\n"
0 TimeSig 3/4 24 8
0 KeySig -5 major
0 Tempo 555556
11880 KeySig -6 major
23400 KeySig -5 major
29160 KeySig -6 major
34920 KeySig -5 major
45720 Tempo 652174
46080 Tempo 681818
46080 Meta TrkEnd
TrkEnd
MTrk
0 Meta 0x21 00
0 Meta TrkName "Upper Treble"
0 PrCh ch=1 p=0
240 On ch=1 n=a#5 v=60
300 On ch=1 n=a#5 v=0
300 On ch=1 n=g#5 v=60
360 On ch=1 n=g#5 v=0
360 On ch=1 n=f6 v=60
420 On ch=1 n=f5 v=60
480 On ch=1 n=f5 v=0
480 On ch=1 n=f#5 v=60
540 On ch=1 n=f#5 v=0
540 On ch=1 n=g5 v=60
600 On ch=1 n=g5 v=0
600 On ch=1 n=g#5 v=60
660 On ch=1 n=f6 v=0
660 On ch=1 n=f#6 v=60
720 On ch=1 n=f#6 v=0
720 On ch=1 n=f6 v=60
780 On ch=1 n=g#5 v=0
780 On ch=1 n=g5 v=60
840 On ch=1 n=g5 v=0
840 On ch=1 n=g#5 v=60
900 On ch=1 n=g#5 v=0
900 On ch=1 n=f6 v=0
900 On ch=1 n=f6 v=60
900 On ch=1 n=a5 v=60
960 On ch=1 n=a5 v=0
960 On ch=1 n=f6 v=0
960 On ch=1 n=d#6 v=60
960 On ch=1 n=g#5 v=60
1020 On ch=1 n=g#5 v=0
1020 On ch=1 n=f#5 v=60
1080 On ch=1 n=d#6 v=0
1080 On ch=1 n=c#6 v=60
1140 On ch=1 n=f#5 v=0
1140 On ch=1 n=f5 v=60
1200 On ch=1 n=f5 v=0
1200 On ch=1 n=g#5 v=60
1260 On ch=1 n=c#6 v=0
1260 On ch=1 n=c6 v=60
1320 On ch=1 n=c6 v=0
1320 On ch=1 n=g#5 v=0
1320 On ch=1 n=a#5 v=60
1320 On ch=1 n=g5 v=60
1380 On ch=1 n=a#5 v=0
1380 On ch=1 n=d#6 v=60
1440 On ch=1 n=d#6 v=0
1440 On ch=1 n=g5 v=0
1440 On ch=1 n=c#6 v=60
1440 On ch=1 n=f#5 v=60
1460 On ch=1 n=c#6 v=0
1460 On ch=1 n=d#6 v=60
1480 On ch=1 n=d#6 v=0
1480 On ch=1 n=c#6 v=60
1500 On ch=1 n=c#6 v=0
1500 On ch=1 n=c6 v=60
1560 On ch=1 n=c6 v=0
1560 On ch=1 n=a#5 v=60
1620 On ch=1 n=a#5 v=0
1620 On ch=1 n=c6 v=60
1680 On ch=1 n=c6 v=0
1680 On ch=1 n=f#5 v=0
1680 On ch=1 n=g#5 v=60
1680 On ch=1 n=f#5 v=60
1800 On ch=1 n=f#5 v=0
1800 On ch=1 n=g#5 v=0
1800 On ch=1 n=f6 v=60
1860 On ch=1 n=f5 v=60
1920 On ch=1 n=f5 v=0
1920 On ch=1 n=f#5 v=60
1980 On ch=1 n=f#5 v=0
1980 On ch=1 n=g5 v=60
2040 On ch=1 n=g5 v=0
2040 On ch=1 n=g#5 v=60
2100 On ch=1 n=f6 v=0
2100 On ch=1 n=f#6 v=60
2160 On ch=1 n=f#6 v=0
2160 On ch=1 n=f6 v=60
2220 On ch=1 n=g#5 v=0
2220 On ch=1 n=g#5 v=60
2280 On ch=1 n=g#5 v=0
2280 On ch=1 n=a5 v=60
2340 On ch=1 n=f6 v=0
2340 On ch=1 n=f6 v=60
2400 On ch=1 n=f6 v=0
2400 On ch=1 n=a5 v=0
2400 On ch=1 n=d#6 v=60
2400 On ch=1 n=g#5 v=60
2460 On ch=1 n=g#5 v=0
2460 On ch=1 n=f#5 v=60
2520 On ch=1 n=f#5 v=0
2520 On ch=1 n=f5 v=60
2580 On ch=1 n=d#6 v=0
2580 On ch=1 n=c#6 v=60
2640 On ch=1 n=c#6 v=0
2640 On ch=1 n=f5 v=0
2640 On ch=1 n=a#5 v=60
2700 On ch=1 n=c7 v=60
2760 On ch=1 n=c7 v=0
2760 On ch=1 n=a#6 v=60
2820 On ch=1 n=a#6 v=0
2820 On ch=1 n=a#5 v=0
2820 On ch=1 n=c6 v=60
2880 On ch=1 n=c6 v=0
2880 On ch=1 n=c#6 v=60
2940 On ch=1 n=f5 v=60
3000 On ch=1 n=f5 v=0
3000 On ch=1 n=c#6 v=0
3000 On ch=1 n=f#5 v=60
3060 On ch=1 n=f#5 v=0
3060 On ch=1 n=g5 v=60
3120 On ch=1 n=g5 v=0
3120 On ch=1 n=a#5 v=60
3180 On ch=1 n=a#5 v=0
3180 On ch=1 n=g#5 v=60
3240 On ch=1 n=g#5 v=0
3240 On ch=1 n=f6 v=60
3300 On ch=1 n=f5 v=60
3360 On ch=1 n=f5 v=0
3360 On ch=1 n=f#5 v=60
3420 On ch=1 n=f#5 v=0
3420 On ch=1 n=g5 v=60
3480 On ch=1 n=g5 v=0
3480 On ch=1 n=g#5 v=60
3540 On ch=1 n=f6 v=0
3540 On ch=1 n=f#6 v=60
3600 On ch=1 n=f#6 v=0
3600 On ch=1 n=f6 v=60
3660 On ch=1 n=g#5 v=0
3660 On ch=1 n=g5 v=60
3720 On ch=1 n=g5 v=0
3720 On ch=1 n=g#5 v=60
3780 On ch=1 n=g#5 v=0
3780 On ch=1 n=f6 v=0
3780 On ch=1 n=f6 v=60
3780 On ch=1 n=a5 v=60
3840 On ch=1 n=a5 v=0
3840 On ch=1 n=f6 v=0
3840 On ch=1 n=d#6 v=60
3840 On ch=1 n=g#5 v=60
3900 On ch=1 n=g#5 v=0
3900 On ch=1 n=f#5 v=60
3960 On ch=1 n=d#6 v=0
3960 On ch=1 n=c#6 v=60
4020 On ch=1 n=f#5 v=0
4020 On ch=1 n=f5 v=60
4080 On ch=1 n=f5 v=0
4080 On ch=1 n=g#5 v=60
4140 On ch=1 n=c#6 v=0
4140 On ch=1 n=c6 v=60
4200 On ch=1 n=c6 v=0
4200 On ch=1 n=g#5 v=0
4200 On ch=1 n=a#5 v=60
4200 On ch=1 n=g5 v=60
4260 On ch=1 n=a#5 v=0
4260 On ch=1 n=d#6 v=60
4320 On ch=1 n=d#6 v=0
4320 On ch=1 n=g5 v=0
4320 On ch=1 n=c#6 v=60
4320 On ch=1 n=f#5 v=60
4340 On ch=1 n=c#6 v=0
4340 On ch=1 n=d#6 v=60
4360 On ch=1 n=d#6 v=0
4360 On ch=1 n=c#6 v=60
4380 On ch=1 n=c#6 v=0
4380 On ch=1 n=c6 v=60
4440 On ch=1 n=c6 v=0
4440 On ch=1 n=a#5 v=60
4500 On ch=1 n=a#5 v=0
4500 On ch=1 n=c6 v=60
4560 On ch=1 n=c6 v=0
4560 On ch=1 n=f#5 v=0
4560 On ch=1 n=g#5 v=60
4560 On ch=1 n=f#5 v=60
4680 On ch=1 n=f#5 v=0
4680 On ch=1 n=g#5 v=0
4680 On ch=1 n=f6 v=60
4740 On ch=1 n=f5 v=60
4800 On ch=1 n=f5 v=0
4800 On ch=1 n=f#5 v=60
4860 On ch=1 n=f#5 v=0
4860 On ch=1 n=g5 v=60
4920 On ch=1 n=g5 v=0
4920 On ch=1 n=g#5 v=60
4980 On ch=1 n=f6 v=0
4980 On ch=1 n=f#6 v=60
5040 On ch=1 n=f#6 v=0
5040 On ch=1 n=f6 v=60
5100 On ch=1 n=g#5 v=0
5100 On ch=1 n=g#5 v=60
5160 On ch=1 n=g#5 v=0
5160 On ch=1 n=a5 v=60
5220 On ch=1 n=f6 v=0
5220 On ch=1 n=f6 v=60
5280 On ch=1 n=f6 v=0
5280 On ch=1 n=a5 v=0
5280 On ch=1 n=d#6 v=60
5280 On ch=1 n=g#5 v=60
5340 On ch=1 n=g#5 v=0
5340 On ch=1 n=f#5 v=60
5400 On ch=1 n=f#5 v=0
5400 On ch=1 n=f5 v=60
5460 On ch=1 n=d#6 v=0
5460 On ch=1 n=c#6 v=60
5520 On ch=1 n=c#6 v=0
5520 On ch=1 n=f5 v=0
5520 On ch=1 n=a#5 v=60
5580 On ch=1 n=c7 v=60
5640 On ch=1 n=c7 v=0
5640 On ch=1 n=a#6 v=60
5700 On ch=1 n=a#6 v=0
5700 On ch=1 n=a#5 v=0
5700 On ch=1 n=c6 v=60
5760 On ch=1 n=c6 v=0
5760 On ch=1 n=c#6 v=60
5820 On ch=1 n=f5 v=60
5880 On ch=1 n=f5 v=0
5880 On ch=1 n=c#6 v=0
5880 On ch=1 n=f#5 v=60
5940 On ch=1 n=f#5 v=0
5940 On ch=1 n=g5 v=60
6000 On ch=1 n=g5 v=0
6000 On ch=1 n=g#5 v=60
6060 On ch=1 n=g#5 v=0
6060 On ch=1 n=c6 v=60
6120 On ch=1 n=c6 v=0
6120 On ch=1 n=f6 v=80
6120 On ch=1 n=c#6 v=80
6300 On ch=1 n=c#6 v=0
6300 On ch=1 n=f6 v=0
6300 On ch=1 n=g5 v=80
6300 On ch=1 n=d#6 v=80
6360 On ch=1 n=d#6 v=0
6360 On ch=1 n=g5 v=0
6360 On ch=1 n=c#6 v=80
6360 On ch=1 n=f6 v=80
6420 On ch=1 n=f6 v=0
6420 On ch=1 n=c#6 v=0
6420 On ch=1 n=g5 v=80
6420 On ch=1 n=d#6 v=80
6480 On ch=1 n=d#6 v=0
6480 On ch=1 n=g5 v=0
6480 On ch=1 n=c6 v=80
6480 On ch=1 n=f6 v=80
6540 On ch=1 n=f6 v=0
6540 On ch=1 n=c6 v=0
6540 On ch=1 n=g#5 v=80
6540 On ch=1 n=d#6 v=80
6600 On ch=1 n=d#6 v=0
6600 On ch=1 n=g#5 v=0
6600 On ch=1 n=c6 v=80
6600 On ch=1 n=f6 v=80
6660 On ch=1 n=f6 v=0
6660 On ch=1 n=c6 v=0
6660 On ch=1 n=g#5 v=80
6660 On ch=1 n=d#6 v=80
6720 On ch=1 n=d#6 v=0
6720 On ch=1 n=g#5 v=0
6720 On ch=1 n=c6 v=80
6720 On ch=1 n=f6 v=80
6780 On ch=1 n=f6 v=0
6780 On ch=1 n=c6 v=0
6780 On ch=1 n=g#5 v=80
6780 On ch=1 n=d#6 v=80
6840 On ch=1 n=d#6 v=0
6840 On ch=1 n=g#5 v=0
6840 On ch=1 n=b5 v=80
6840 On ch=1 n=d#6 v=80
7020 On ch=1 n=d#6 v=0
7020 On ch=1 n=b5 v=0
7020 On ch=1 n=f5 v=80
7020 On ch=1 n=c#6 v=80
7080 On ch=1 n=c#6 v=0
7080 On ch=1 n=f5 v=0
7080 On ch=1 n=b5 v=80
7080 On ch=1 n=d#6 v=80
7140 On ch=1 n=d#6 v=0
7140 On ch=1 n=b5 v=0
7140 On ch=1 n=f5 v=80
7140 On ch=1 n=c#6 v=80
7200 On ch=1 n=c#6 v=0
7200 On ch=1 n=f5 v=0
7200 On ch=1 n=a#5 v=80
7200 On ch=1 n=d#6 v=80
7260 On ch=1 n=d#6 v=0
7260 On ch=1 n=a#5 v=0
7260 On ch=1 n=f#5 v=80
7260 On ch=1 n=c#6 v=80
7320 On ch=1 n=c#6 v=0
7320 On ch=1 n=f#5 v=0
7320 On ch=1 n=a#5 v=80
7320 On ch=1 n=d#6 v=80
7380 On ch=1 n=d#6 v=0
7380 On ch=1 n=a#5 v=0
7380 On ch=1 n=f#5 v=80
7380 On ch=1 n=c#6 v=80
7440 On ch=1 n=c#6 v=0
7440 On ch=1 n=f#5 v=0
7440 On ch=1 n=a#5 v=80
7440 On ch=1 n=d#6 v=80
7500 On ch=1 n=d#6 v=0
7500 On ch=1 n=a#5 v=0
7500 On ch=1 n=f#5 v=80
7500 On ch=1 n=c#6 v=80
7560 On ch=1 n=c#6 v=0
7560 On ch=1 n=f#5 v=0
7560 On ch=1 n=a5 v=80
7560 On ch=1 n=c#6 v=80
7620 On ch=1 n=c#6 v=0
7620 On ch=1 n=a5 v=0
7620 On ch=1 n=f#5 v=81
7620 On ch=1 n=d#6 v=81
7680 On ch=1 n=d#6 v=0
7680 On ch=1 n=f#5 v=0
7680 On ch=1 n=c#6 v=83
7680 On ch=1 n=a5 v=83
7700 On ch=1 n=c#6 v=0
7700 On ch=1 n=d#6 v=84
7720 On ch=1 n=d#6 v=0
7720 On ch=1 n=c#6 v=84
7740 On ch=1 n=c#6 v=0
7740 On ch=1 n=a5 v=0
7740 On ch=1 n=c6 v=85
7740 On ch=1 n=f#5 v=85
7800 On ch=1 n=f#5 v=0
7800 On ch=1 n=c6 v=0
7800 On ch=1 n=a5 v=87
7800 On ch=1 n=c#6 v=87
7860 On ch=1 n=c#6 v=0
7860 On ch=1 n=a5 v=0
7860 On ch=1 n=f#5 v=89
7860 On ch=1 n=d#6 v=89
7920 On ch=1 n=d#6 v=0
7920 On ch=1 n=f#5 v=0
7920 On ch=1 n=g#5 v=90
7920 On ch=1 n=f6 v=90
7980 On ch=1 n=g#5 v=0
7980 On ch=1 n=f5 v=90
8040 On ch=1 n=f5 v=0
8040 On ch=1 n=f6 v=0
8040 On ch=1 n=g#5 v=90
8040 On ch=1 n=d#6 v=90
8100 On ch=1 n=d#6 v=0
8100 On ch=1 n=g#5 v=0
8100 On ch=1 n=f5 v=90
8100 On ch=1 n=c#6 v=90
8160 On ch=1 n=c#6 v=0
8160 On ch=1 n=f5 v=0
8160 On ch=1 n=e5 v=90
8160 On ch=1 n=c6 v=90
8220 On ch=1 n=c6 v=0
8220 On ch=1 n=e5 v=0
8220 On ch=1 n=c#5 v=90
8220 On ch=1 n=a#5 v=90
8280 On ch=1 n=a#5 v=0
8280 On ch=1 n=c#5 v=0
8280 On ch=1 n=f5 v=90
8280 On ch=1 n=a#5 v=90
8340 On ch=1 n=a#5 v=0
8340 On ch=1 n=f5 v=0
8340 On ch=1 n=c5 v=90
8340 On ch=1 n=g#5 v=90
8400 On ch=1 n=g#5 v=0
8400 On ch=1 n=c5 v=0
8400 On ch=1 n=f#5 v=89
8400 On ch=1 n=a#5 v=89
8460 On ch=1 n=a#5 v=0
8460 On ch=1 n=f#5 v=0
8460 On ch=1 n=c5 v=88
8460 On ch=1 n=g#5 v=88
8520 On ch=1 n=g#5 v=0
8520 On ch=1 n=c5 v=0
8520 On ch=1 n=f#5 v=87
8520 On ch=1 n=a#5 v=87
8580 On ch=1 n=a#5 v=0
8580 On ch=1 n=f#5 v=0
8580 On ch=1 n=c5 v=86
8580 On ch=1 n=g#5 v=86
8640 On ch=1 n=g#5 v=0
8640 On ch=1 n=c5 v=0
8640 On ch=1 n=c#6 v=85
8640 On ch=1 n=f5 v=85
8820 On ch=1 n=f5 v=0
8820 On ch=1 n=c#6 v=0
8820 On ch=1 n=c6 v=82
8880 On ch=1 n=c6 v=0
8880 On ch=1 n=c#6 v=81
8940 On ch=1 n=c#6 v=0
8940 On ch=1 n=d6 v=80
9000 On ch=1 n=d6 v=0
9000 On ch=1 n=f6 v=80
9000 On ch=1 n=c#6 v=80
9180 On ch=1 n=c#6 v=0
9180 On ch=1 n=f6 v=0
9180 On ch=1 n=g5 v=80
9180 On ch=1 n=d#6 v=80
9240 On ch=1 n=d#6 v=0
9240 On ch=1 n=g5 v=0
9240 On ch=1 n=c#6 v=80
9240 On ch=1 n=f6 v=80
9300 On ch=1 n=f6 v=0
9300 On ch=1 n=c#6 v=0
9300 On ch=1 n=g5 v=80
9300 On ch=1 n=d#6 v=80
9360 On ch=1 n=d#6 v=0
9360 On ch=1 n=g5 v=0
9360 On ch=1 n=c6 v=80
9360 On ch=1 n=f6 v=80
9420 On ch=1 n=f6 v=0
9420 On ch=1 n=c6 v=0
9420 On ch=1 n=g#5 v=80
9420 On ch=1 n=d#6 v=80
9480 On ch=1 n=d#6 v=0
9480 On ch=1 n=g#5 v=0
9480 On ch=1 n=c6 v=80
9480 On ch=1 n=f6 v=80
9540 On ch=1 n=f6 v=0
9540 On ch=1 n=c6 v=0
9540 On ch=1 n=g#5 v=80
9540 On ch=1 n=d#6 v=80
9600 On ch=1 n=d#6 v=0
9600 On ch=1 n=g#5 v=0
9600 On ch=1 n=c6 v=80
9600 On ch=1 n=f6 v=80
9660 On ch=1 n=f6 v=0
9660 On ch=1 n=c6 v=0
9660 On ch=1 n=g#5 v=80
9660 On ch=1 n=d#6 v=80
9720 On ch=1 n=d#6 v=0
9720 On ch=1 n=g#5 v=0
9720 On ch=1 n=b5 v=80
9720 On ch=1 n=d#6 v=80
9900 On ch=1 n=d#6 v=0
9900 On ch=1 n=b5 v=0
9900 On ch=1 n=f5 v=80
9900 On ch=1 n=c#6 v=80
9960 On ch=1 n=c#6 v=0
9960 On ch=1 n=f5 v=0
9960 On ch=1 n=b5 v=80
9960 On ch=1 n=d#6 v=80
10020 On ch=1 n=d#6 v=0
10020 On ch=1 n=b5 v=0
10020 On ch=1 n=f5 v=80
10020 On ch=1 n=c#6 v=80
10080 On ch=1 n=c#6 v=0
10080 On ch=1 n=f5 v=0
10080 On ch=1 n=a#5 v=80
10080 On ch=1 n=d#6 v=80
10140 On ch=1 n=d#6 v=0
10140 On ch=1 n=a#5 v=0
10140 On ch=1 n=f#5 v=80
10140 On ch=1 n=c#6 v=80
10200 On ch=1 n=c#6 v=0
10200 On ch=1 n=f#5 v=0
10200 On ch=1 n=a#5 v=80
10200 On ch=1 n=d#6 v=80
10260 On ch=1 n=d#6 v=0
10260 On ch=1 n=a#5 v=0
10260 On ch=1 n=f#5 v=80
10260 On ch=1 n=c#6 v=80
10320 On ch=1 n=c#6 v=0
10320 On ch=1 n=f#5 v=0
10320 On ch=1 n=a#5 v=80
10320 On ch=1 n=d#6 v=80
10380 On ch=1 n=d#6 v=0
10380 On ch=1 n=a#5 v=0
10380 On ch=1 n=f#5 v=80
10380 On ch=1 n=c#6 v=80
10440 On ch=1 n=c#6 v=0
10440 On ch=1 n=f#5 v=0
10440 On ch=1 n=a5 v=80
10440 On ch=1 n=c#6 v=80
10500 On ch=1 n=c#6 v=0
10500 On ch=1 n=a5 v=0
10500 On ch=1 n=f#5 v=81
10500 On ch=1 n=d#6 v=81
10560 On ch=1 n=d#6 v=0
10560 On ch=1 n=f#5 v=0
10560 On ch=1 n=c#6 v=83
10560 On ch=1 n=a5 v=83
10580 On ch=1 n=c#6 v=0
10580 On ch=1 n=d#6 v=84
10600 On ch=1 n=d#6 v=0
10600 On ch=1 n=c#6 v=84
10620 On ch=1 n=c#6 v=0
10620 On ch=1 n=a5 v=0
10620 On ch=1 n=c6 v=85
10620 On ch=1 n=f#5 v=85
10680 On ch=1 n=f#5 v=0
10680 On ch=1 n=c6 v=0
10680 On ch=1 n=a5 v=87
10680 On ch=1 n=c#6 v=87
10740 On ch=1 n=c#6 v=0
10740 On ch=1 n=a5 v=0
10740 On ch=1 n=f#5 v=89
10740 On ch=1 n=d#6 v=89
10800 On ch=1 n=d#6 v=0
10800 On ch=1 n=f#5 v=0
10800 On ch=1 n=g#5 v=90
10800 On ch=1 n=f6 v=90
10860 On ch=1 n=g#5 v=0
10860 On ch=1 n=f5 v=89
10920 On ch=1 n=f5 v=0
10920 On ch=1 n=f6 v=0
10920 On ch=1 n=g#5 v=87
10920 On ch=1 n=d#6 v=87
10980 On ch=1 n=d#6 v=0
10980 On ch=1 n=g#5 v=0
10980 On ch=1 n=f5 v=85
10980 On ch=1 n=c#6 v=85
11040 On ch=1 n=c#6 v=0
11040 On ch=1 n=f5 v=0
11040 On ch=1 n=e5 v=83
11040 On ch=1 n=c6 v=83
11100 On ch=1 n=c6 v=0
11100 On ch=1 n=e5 v=0
11100 On ch=1 n=c#5 v=81
11100 On ch=1 n=a#5 v=81
11160 On ch=1 n=a#5 v=0
11160 On ch=1 n=c#5 v=0
11160 On ch=1 n=f5 v=79
11160 On ch=1 n=a#5 v=79
11220 On ch=1 n=a#5 v=0
11220 On ch=1 n=f5 v=0
11220 On ch=1 n=c5 v=77
11220 On ch=1 n=g#5 v=77
11280 On ch=1 n=g#5 v=0
11280 On ch=1 n=c5 v=0
11280 On ch=1 n=f#5 v=75
11280 On ch=1 n=a#5 v=75
11340 On ch=1 n=a#5 v=0
11340 On ch=1 n=f#5 v=0
11340 On ch=1 n=c5 v=73
11340 On ch=1 n=g#5 v=73
11400 On ch=1 n=g#5 v=0
11400 On ch=1 n=c5 v=0
11400 On ch=1 n=f#5 v=71
11400 On ch=1 n=a#5 v=71
11460 On ch=1 n=a#5 v=0
11460 On ch=1 n=f#5 v=0
11460 On ch=1 n=c5 v=69
11460 On ch=1 n=g#5 v=69
11520 On ch=1 n=g#5 v=0
11520 On ch=1 n=c5 v=0
11520 On ch=1 n=c#6 v=67
11520 On ch=1 n=f5 v=67
11640 On ch=1 n=f5 v=0
11640 On ch=1 n=c#6 v=0
11760 On ch=1 n=c#5 v=60
11880 On ch=1 n=c#5 v=0
11880 On ch=1 n=a#5 v=60
12000 On ch=1 n=a#4 v=60
12000 On ch=1 n=c#5 v=60
12120 On ch=1 n=c#5 v=0
12120 On ch=1 n=a#4 v=0
12120 On ch=1 n=a#4 v=61
12120 On ch=1 n=c#5 v=61
12240 On ch=1 n=c#5 v=0
12240 On ch=1 n=a#4 v=0
12240 On ch=1 n=a#5 v=0
12240 On ch=1 n=f#5 v=62
12360 On ch=1 n=c#5 v=63
12480 On ch=1 n=c#5 v=0
12480 On ch=1 n=f#5 v=0
12480 On ch=1 n=c#5 v=64
12480 On ch=1 n=f5 v=64
12600 On ch=1 n=f5 v=0
12600 On ch=1 n=c#5 v=0
12600 On ch=1 n=g#5 v=65
12720 On ch=1 n=c#5 v=66
12840 On ch=1 n=c#5 v=0
12840 On ch=1 n=g#5 v=0
12840 On ch=1 n=c#5 v=67
12840 On ch=1 n=g5 v=67
12960 On ch=1 n=g5 v=0
12960 On ch=1 n=c#5 v=0
12960 On ch=1 n=a#5 v=68
13080 On ch=1 n=d#5 v=69
13080 On ch=1 n=g5 v=69
13200 On ch=1 n=g5 v=0
13200 On ch=1 n=d#5 v=0
13200 On ch=1 n=d#5 v=70
13200 On ch=1 n=g5 v=70
13320 On ch=1 n=g5 v=0
13320 On ch=1 n=d#5 v=0
13320 On ch=1 n=a#5 v=0
13320 On ch=1 n=g#5 v=70
13320 On ch=1 n=d#6 v=70
13440 On ch=1 n=g#5 v=0
13440 On ch=1 n=d#5 v=71
13440 On ch=1 n=g#5 v=71
13560 On ch=1 n=g#5 v=0
13560 On ch=1 n=d#5 v=0
13560 On ch=1 n=d#6 v=0
13560 On ch=1 n=d#5 v=72
13560 On ch=1 n=c#6 v=72
13560 On ch=1 n=g5 v=72
13680 On ch=1 n=g5 v=0
13680 On ch=1 n=c#6 v=0
13680 On ch=1 n=d#5 v=0
13680 On ch=1 n=d#5 v=73
13680 On ch=1 n=g#5 v=73
13680 On ch=1 n=b5 v=73
13800 On ch=1 n=g#5 v=0
13800 On ch=1 n=d#5 v=0
13800 On ch=1 n=d#5 v=74
13800 On ch=1 n=g#5 v=74
13920 On ch=1 n=g#5 v=0
13920 On ch=1 n=d#5 v=0
13920 On ch=1 n=b5 v=0
13920 On ch=1 n=d#5 v=75
13920 On ch=1 n=c6 v=75
13920 On ch=1 n=a5 v=75
14040 On ch=1 n=a5 v=0
14040 On ch=1 n=c6 v=0
14040 On ch=1 n=d#5 v=0
14040 On ch=1 n=c#5 v=76
14040 On ch=1 n=g#5 v=76
14040 On ch=1 n=c#6 v=76
14160 On ch=1 n=g#5 v=0
14160 On ch=1 n=c#5 v=0
14160 On ch=1 n=c#5 v=77
14160 On ch=1 n=g#5 v=77
14280 On ch=1 n=g#5 v=0
14280 On ch=1 n=c#5 v=0
14280 On ch=1 n=c#6 v=0
14280 On ch=1 n=f#5 v=78
14280 On ch=1 n=g#5 v=78
14280 On ch=1 n=c6 v=78
14400 On ch=1 n=c6 v=0
14400 On ch=1 n=g#5 v=0
14400 On ch=1 n=f#5 v=0
14400 On ch=1 n=f#5 v=79
14400 On ch=1 n=b5 v=79
14400 On ch=1 n=d#6 v=79
14520 On ch=1 n=d#6 v=0
14520 On ch=1 n=b5 v=0
14520 On ch=1 n=f#5 v=0
14520 On ch=1 n=f5 v=80
14520 On ch=1 n=a#5 v=80
14520 On ch=1 n=c#6 v=80
14580 On ch=1 n=f5 v=0
14580 On ch=1 n=d#5 v=80
14640 On ch=1 n=d#5 v=0
14640 On ch=1 n=c#6 v=0
14640 On ch=1 n=a#5 v=0
14640 On ch=1 n=f5 v=81
14640 On ch=1 n=g#5 v=81
14640 On ch=1 n=b5 v=81
14760 On ch=1 n=b5 v=0
14760 On ch=1 n=g#5 v=0
14760 On ch=1 n=f5 v=0
14760 On ch=1 n=a#5 v=81
14760 On ch=1 n=f#5 v=81
14880 On ch=1 n=a#4 v=82
14880 On ch=1 n=c#5 v=82
15000 On ch=1 n=c#5 v=0
15000 On ch=1 n=a#4 v=0
15000 On ch=1 n=a#4 v=83
15000 On ch=1 n=c#5 v=83
15120 On ch=1 n=c#5 v=0
15120 On ch=1 n=a#5 v=0
15120 On ch=1 n=f#5 v=0
15120 On ch=1 n=a#4 v=0
15120 On ch=1 n=f#5 v=84
15240 On ch=1 n=c#5 v=85
15360 On ch=1 n=c#5 v=0
15360 On ch=1 n=f#5 v=0
15360 On ch=1 n=c#5 v=86
15360 On ch=1 n=f5 v=86
15480 On ch=1 n=f5 v=0
15480 On ch=1 n=c#5 v=0
15480 On ch=1 n=g#5 v=87
15600 On ch=1 n=c#5 v=88
15720 On ch=1 n=c#5 v=0
15720 On ch=1 n=g#5 v=0
15720 On ch=1 n=c#5 v=89
15720 On ch=1 n=g5 v=89
15840 On ch=1 n=g5 v=0
15840 On ch=1 n=c#5 v=0
15840 On ch=1 n=a#5 v=90
15960 On ch=1 n=d#5 v=91
15960 On ch=1 n=g5 v=91
16080 On ch=1 n=g5 v=0
16080 On ch=1 n=d#5 v=0
16080 On ch=1 n=d#5 v=92
16080 On ch=1 n=g5 v=92
16200 On ch=1 n=g5 v=0
16200 On ch=1 n=d#5 v=0
16200 On ch=1 n=a#5 v=0
16200 On ch=1 n=g#5 v=92
16200 On ch=1 n=d#6 v=92
16320 On ch=1 n=g#5 v=0
16320 On ch=1 n=d#5 v=93
16320 On ch=1 n=g#5 v=93
16440 On ch=1 n=g#5 v=0
16440 On ch=1 n=d#5 v=0
16440 On ch=1 n=d#6 v=0
16440 On ch=1 n=d#5 v=94
16440 On ch=1 n=c#6 v=94
16440 On ch=1 n=g5 v=94
16560 On ch=1 n=g5 v=0
16560 On ch=1 n=c#6 v=0
16560 On ch=1 n=d#5 v=0
16560 On ch=1 n=d#5 v=95
16560 On ch=1 n=g#5 v=95
16560 On ch=1 n=b5 v=95
16680 On ch=1 n=g#5 v=0
16680 On ch=1 n=d#5 v=0
16680 On ch=1 n=d#5 v=96
16680 On ch=1 n=g#5 v=96
16800 On ch=1 n=g#5 v=0
16800 On ch=1 n=d#5 v=0
16800 On ch=1 n=b5 v=0
16800 On ch=1 n=d#5 v=97
16800 On ch=1 n=c6 v=97
16800 On ch=1 n=a5 v=97
16920 On ch=1 n=a5 v=0
16920 On ch=1 n=c6 v=0
16920 On ch=1 n=d#5 v=0
16920 On ch=1 n=c#5 v=98
16920 On ch=1 n=g#5 v=98
16920 On ch=1 n=c#6 v=98
17040 On ch=1 n=c#6 v=0
17040 On ch=1 n=g#5 v=0
17040 On ch=1 n=c#5 v=0
17160 On ch=1 n=c#6 v=100
17160 On ch=1 n=b5 v=100
17160 On ch=1 n=f5 v=100
17280 On ch=1 n=f5 v=0
17280 On ch=1 n=b5 v=0
17280 On ch=1 n=c#6 v=0
17280 On ch=1 n=f#5 v=100
17280 On ch=1 n=a#5 v=100
17280 On ch=1 n=f#6 v=100
17400 On ch=1 n=f#6 v=0
17400 On ch=1 n=a#5 v=0
17400 On ch=1 n=f#5 v=0
17520 On ch=1 n=c#5 v=60
17640 On ch=1 n=c#5 v=0
17640 On ch=1 n=a#5 v=60
17760 On ch=1 n=a#4 v=60
17760 On ch=1 n=c#5 v=60
17880 On ch=1 n=c#5 v=0
17880 On ch=1 n=a#4 v=0
17880 On ch=1 n=a#4 v=61
17880 On ch=1 n=c#5 v=61
18000 On ch=1 n=c#5 v=0
18000 On ch=1 n=a#4 v=0
18000 On ch=1 n=a#5 v=0
18000 On ch=1 n=f#5 v=62
18120 On ch=1 n=c#5 v=63
18240 On ch=1 n=c#5 v=0
18240 On ch=1 n=f#5 v=0
18240 On ch=1 n=c#5 v=64
18240 On ch=1 n=f5 v=64
18360 On ch=1 n=f5 v=0
18360 On ch=1 n=c#5 v=0
18360 On ch=1 n=g#5 v=65
18480 On ch=1 n=c#5 v=66
18600 On ch=1 n=c#5 v=0
18600 On ch=1 n=g#5 v=0
18600 On ch=1 n=c#5 v=67
18600 On ch=1 n=g5 v=67
18720 On ch=1 n=g5 v=0
18720 On ch=1 n=c#5 v=0
18720 On ch=1 n=a#5 v=68
18840 On ch=1 n=d#5 v=69
18840 On ch=1 n=g5 v=69
18960 On ch=1 n=g5 v=0
18960 On ch=1 n=d#5 v=0
18960 On ch=1 n=d#5 v=70
18960 On ch=1 n=g5 v=70
19080 On ch=1 n=g5 v=0
19080 On ch=1 n=d#5 v=0
19080 On ch=1 n=a#5 v=0
19080 On ch=1 n=g#5 v=70
19080 On ch=1 n=d#6 v=70
19200 On ch=1 n=g#5 v=0
19200 On ch=1 n=d#5 v=71
19200 On ch=1 n=g#5 v=71
19320 On ch=1 n=g#5 v=0
19320 On ch=1 n=d#5 v=0
19320 On ch=1 n=d#6 v=0
19320 On ch=1 n=d#5 v=72
19320 On ch=1 n=c#6 v=72
19320 On ch=1 n=g5 v=72
19440 On ch=1 n=g5 v=0
19440 On ch=1 n=c#6 v=0
19440 On ch=1 n=d#5 v=0
19440 On ch=1 n=d#5 v=73
19440 On ch=1 n=g#5 v=73
19440 On ch=1 n=b5 v=73
19560 On ch=1 n=g#5 v=0
19560 On ch=1 n=d#5 v=0
19560 On ch=1 n=d#5 v=74
19560 On ch=1 n=g#5 v=74
19680 On ch=1 n=g#5 v=0
19680 On ch=1 n=d#5 v=0
19680 On ch=1 n=b5 v=0
19680 On ch=1 n=d#5 v=75
19680 On ch=1 n=c6 v=75
19680 On ch=1 n=a5 v=75
19800 On ch=1 n=a5 v=0
19800 On ch=1 n=c6 v=0
19800 On ch=1 n=d#5 v=0
19800 On ch=1 n=c#5 v=76
19800 On ch=1 n=g#5 v=76
19800 On ch=1 n=c#6 v=76
19920 On ch=1 n=g#5 v=0
19920 On ch=1 n=c#5 v=0
19920 On ch=1 n=c#5 v=77
19920 On ch=1 n=g#5 v=77
20040 On ch=1 n=g#5 v=0
20040 On ch=1 n=c#5 v=0
20040 On ch=1 n=c#6 v=0
20040 On ch=1 n=f#5 v=78
20040 On ch=1 n=g#5 v=78
20040 On ch=1 n=c6 v=78
20160 On ch=1 n=c6 v=0
20160 On ch=1 n=g#5 v=0
20160 On ch=1 n=f#5 v=0
20160 On ch=1 n=f#5 v=79
20160 On ch=1 n=b5 v=79
20160 On ch=1 n=d#6 v=79
20280 On ch=1 n=d#6 v=0
20280 On ch=1 n=b5 v=0
20280 On ch=1 n=f#5 v=0
20280 On ch=1 n=f5 v=80
20280 On ch=1 n=a#5 v=80
20280 On ch=1 n=c#6 v=80
20340 On ch=1 n=f5 v=0
20340 On ch=1 n=d#5 v=80
20400 On ch=1 n=d#5 v=0
20400 On ch=1 n=c#6 v=0
20400 On ch=1 n=a#5 v=0
20400 On ch=1 n=f5 v=81
20400 On ch=1 n=g#5 v=81
20400 On ch=1 n=b5 v=81
20520 On ch=1 n=b5 v=0
20520 On ch=1 n=g#5 v=0
20520 On ch=1 n=f5 v=0
20520 On ch=1 n=a#5 v=81
20520 On ch=1 n=f#5 v=81
20640 On ch=1 n=a#4 v=82
20640 On ch=1 n=c#5 v=82
20760 On ch=1 n=c#5 v=0
20760 On ch=1 n=a#4 v=0
20760 On ch=1 n=a#4 v=83
20760 On ch=1 n=c#5 v=83
20880 On ch=1 n=c#5 v=0
20880 On ch=1 n=a#5 v=0
20880 On ch=1 n=f#5 v=0
20880 On ch=1 n=a#4 v=0
20880 On ch=1 n=f#5 v=84
21000 On ch=1 n=c#5 v=85
21120 On ch=1 n=c#5 v=0
21120 On ch=1 n=f#5 v=0
21120 On ch=1 n=c#5 v=86
21120 On ch=1 n=f5 v=86
21240 On ch=1 n=f5 v=0
21240 On ch=1 n=c#5 v=0
21240 On ch=1 n=g#5 v=87
21360 On ch=1 n=c#5 v=88
21480 On ch=1 n=c#5 v=0
21480 On ch=1 n=g#5 v=0
21480 On ch=1 n=c#5 v=89
21480 On ch=1 n=g5 v=89
21600 On ch=1 n=g5 v=0
21600 On ch=1 n=c#5 v=0
21600 On ch=1 n=a#5 v=90
21720 On ch=1 n=d#5 v=91
21720 On ch=1 n=g5 v=91
21840 On ch=1 n=g5 v=0
21840 On ch=1 n=d#5 v=0
21840 On ch=1 n=d#5 v=92
21840 On ch=1 n=g5 v=92
21960 On ch=1 n=g5 v=0
21960 On ch=1 n=d#5 v=0
21960 On ch=1 n=a#5 v=0
21960 On ch=1 n=g#5 v=92
21960 On ch=1 n=d#6 v=92
22080 On ch=1 n=g#5 v=0
22080 On ch=1 n=d#5 v=93
22080 On ch=1 n=g#5 v=93
22200 On ch=1 n=g#5 v=0
22200 On ch=1 n=d#5 v=0
22200 On ch=1 n=d#6 v=0
22200 On ch=1 n=d#5 v=94
22200 On ch=1 n=c#6 v=94
22200 On ch=1 n=g5 v=94
22320 On ch=1 n=g5 v=0
22320 On ch=1 n=c#6 v=0
22320 On ch=1 n=d#5 v=0
22320 On ch=1 n=d#5 v=95
22320 On ch=1 n=g#5 v=95
22320 On ch=1 n=b5 v=95
22440 On ch=1 n=g#5 v=0
22440 On ch=1 n=d#5 v=0
22440 On ch=1 n=d#5 v=96
22440 On ch=1 n=g#5 v=96
22560 On ch=1 n=g#5 v=0
22560 On ch=1 n=d#5 v=0
22560 On ch=1 n=b5 v=0
22560 On ch=1 n=d#5 v=97
22560 On ch=1 n=c6 v=97
22560 On ch=1 n=a5 v=97
22680 On ch=1 n=a5 v=0
22680 On ch=1 n=c6 v=0
22680 On ch=1 n=d#5 v=0
22680 On ch=1 n=c#5 v=98
22680 On ch=1 n=g#5 v=98
22680 On ch=1 n=c#6 v=98
22800 On ch=1 n=c#6 v=0
22800 On ch=1 n=g#5 v=0
22800 On ch=1 n=c#5 v=0
22920 On ch=1 n=c#6 v=100
22920 On ch=1 n=b5 v=100
22920 On ch=1 n=f5 v=100
23040 On ch=1 n=f5 v=0
23040 On ch=1 n=b5 v=0
23040 On ch=1 n=c#6 v=0
23040 On ch=1 n=f#5 v=100
23040 On ch=1 n=a#5 v=100
23040 On ch=1 n=f#6 v=100
23160 On ch=1 n=f#6 v=0
23160 On ch=1 n=a#5 v=0
23160 On ch=1 n=f#5 v=0
23280 On ch=1 n=a#5 v=60
23280 On ch=1 n=f#5 v=60
23400 On ch=1 n=f#5 v=0
23400 On ch=1 n=a#5 v=0
23400 On ch=1 n=f#5 v=60
23400 On ch=1 n=a#5 v=60
23580 On ch=1 n=a#5 v=0
23580 On ch=1 n=f#5 v=0
23580 On ch=1 n=c5 v=60
23580 On ch=1 n=g#5 v=60
23640 On ch=1 n=g#5 v=0
23640 On ch=1 n=c5 v=0
23640 On ch=1 n=f#5 v=60
23640 On ch=1 n=a#5 v=60
23700 On ch=1 n=a#5 v=0
23700 On ch=1 n=f#5 v=0
23700 On ch=1 n=c5 v=60
23700 On ch=1 n=g#5 v=60
23760 On ch=1 n=g#5 v=0
23760 On ch=1 n=c5 v=0
23760 On ch=1 n=c#5 v=60
23760 On ch=1 n=f5 v=60
23880 On ch=1 n=f5 v=0
23880 On ch=1 n=c#5 v=0
23880 On ch=1 n=g#5 v=60
23880 On ch=1 n=f5 v=60
23940 On ch=1 n=g#5 v=0
23940 On ch=1 n=g#5 v=60
23940 On ch=1 n=c#6 v=60
24000 On ch=1 n=c#6 v=0
24000 On ch=1 n=f6 v=60
24000 On ch=1 n=c#6 v=60
24120 On ch=1 n=c#6 v=0
24120 On ch=1 n=f5 v=0
24120 On ch=1 n=g#5 v=0
24120 On ch=1 n=f6 v=0
24120 On ch=1 n=f#5 v=60
24120 On ch=1 n=g#5 v=60
24120 On ch=1 n=f6 v=60
24120 On ch=1 n=c6 v=60
24300 On ch=1 n=f6 v=0
24300 On ch=1 n=f#5 v=0
24300 On ch=1 n=g#5 v=0
24300 On ch=1 n=f#5 v=60
24300 On ch=1 n=d#6 v=60
24360 On ch=1 n=d#6 v=0
24360 On ch=1 n=f#5 v=0
24360 On ch=1 n=c6 v=0
24360 On ch=1 n=g#5 v=60
24360 On ch=1 n=f6 v=60
24360 On ch=1 n=c6 v=60
24420 On ch=1 n=f6 v=0
24420 On ch=1 n=g#5 v=0
24420 On ch=1 n=f#5 v=60
24420 On ch=1 n=d#6 v=60
24480 On ch=1 n=d#6 v=0
24480 On ch=1 n=f#5 v=0
24480 On ch=1 n=c6 v=0
24480 On ch=1 n=f5 v=60
24480 On ch=1 n=c#6 v=60
24600 On ch=1 n=c#6 v=0
24600 On ch=1 n=f5 v=0
24600 On ch=1 n=g#5 v=60
24600 On ch=1 n=c6 v=60
24660 On ch=1 n=c6 v=0
24660 On ch=1 n=g#5 v=0
24660 On ch=1 n=f#5 v=60
24660 On ch=1 n=a#5 v=60
24720 On ch=1 n=a#5 v=0
24720 On ch=1 n=f#5 v=0
24720 On ch=1 n=f5 v=60
24720 On ch=1 n=g#5 v=60
24840 On ch=1 n=g#5 v=0
24840 On ch=1 n=f5 v=0
24840 On ch=1 n=f#5 v=60
24840 On ch=1 n=a#5 v=60
25020 On ch=1 n=a#5 v=0
25020 On ch=1 n=f#5 v=0
25020 On ch=1 n=c5 v=60
25020 On ch=1 n=g#5 v=60
25080 On ch=1 n=g#5 v=0
25080 On ch=1 n=c5 v=0
25080 On ch=1 n=f#5 v=60
25080 On ch=1 n=a#5 v=60
25140 On ch=1 n=a#5 v=0
25140 On ch=1 n=f#5 v=0
25140 On ch=1 n=c5 v=60
25140 On ch=1 n=g#5 v=60
25200 On ch=1 n=g#5 v=0
25200 On ch=1 n=c5 v=0
25200 On ch=1 n=c#5 v=60
25200 On ch=1 n=f5 v=60
25320 On ch=1 n=f5 v=0
25320 On ch=1 n=c#5 v=0
25320 On ch=1 n=g#5 v=60
25320 On ch=1 n=f5 v=60
25380 On ch=1 n=g#5 v=0
25380 On ch=1 n=g#5 v=60
25380 On ch=1 n=c#6 v=60
25440 On ch=1 n=c#6 v=0
25440 On ch=1 n=f6 v=60
25440 On ch=1 n=c#6 v=60
25560 On ch=1 n=c#6 v=0
25560 On ch=1 n=f5 v=0
25560 On ch=1 n=g#5 v=0
25560 On ch=1 n=f6 v=0
25560 On ch=1 n=g#5 v=60
25560 On ch=1 n=f6 v=60
25560 On ch=1 n=c6 v=60
25740 On ch=1 n=f6 v=0
25740 On ch=1 n=g#5 v=0
25740 On ch=1 n=f#5 v=60
25740 On ch=1 n=d#6 v=60
25800 On ch=1 n=d#6 v=0
25800 On ch=1 n=f#5 v=0
25800 On ch=1 n=c6 v=0
25800 On ch=1 n=g#5 v=60
25800 On ch=1 n=f6 v=60
25860 On ch=1 n=f6 v=0
25860 On ch=1 n=g#5 v=0
25860 On ch=1 n=f#5 v=60
25860 On ch=1 n=d#6 v=60
25920 On ch=1 n=d#6 v=0
25920 On ch=1 n=f#5 v=0
25920 On ch=1 n=f5 v=60
25920 On ch=1 n=c#6 v=60
26160 On ch=1 n=c#6 v=0
26160 On ch=1 n=f5 v=0
26160 On ch=1 n=f5 v=60
26160 On ch=1 n=g#5 v=60
26280 On ch=1 n=g#5 v=0
26280 On ch=1 n=f5 v=0
26280 On ch=1 n=f#5 v=60
26280 On ch=1 n=a#5 v=60
26460 On ch=1 n=a#5 v=0
26460 On ch=1 n=f#5 v=0
26460 On ch=1 n=c5 v=60
26460 On ch=1 n=g#5 v=60
26520 On ch=1 n=g#5 v=0
26520 On ch=1 n=c5 v=0
26520 On ch=1 n=f#5 v=60
26520 On ch=1 n=a#5 v=60
26580 On ch=1 n=a#5 v=0
26580 On ch=1 n=f#5 v=0
26580 On ch=1 n=c5 v=60
26580 On ch=1 n=g#5 v=60
26640 On ch=1 n=g#5 v=0
26640 On ch=1 n=c5 v=0
26640 On ch=1 n=c#5 v=60
26640 On ch=1 n=f5 v=60
26760 On ch=1 n=f5 v=0
26760 On ch=1 n=c#5 v=0
26760 On ch=1 n=g#5 v=60
26760 On ch=1 n=f5 v=60
26820 On ch=1 n=g#5 v=0
26820 On ch=1 n=g#5 v=60
26820 On ch=1 n=c#6 v=60
26880 On ch=1 n=c#6 v=0
26880 On ch=1 n=f6 v=60
26880 On ch=1 n=c#6 v=60
27000 On ch=1 n=c#6 v=0
27000 On ch=1 n=f5 v=0
27000 On ch=1 n=g#5 v=0
27000 On ch=1 n=f6 v=0
27000 On ch=1 n=f#5 v=60
27000 On ch=1 n=g#5 v=60
27000 On ch=1 n=f6 v=60
27000 On ch=1 n=c6 v=60
27180 On ch=1 n=f6 v=0
27180 On ch=1 n=f#5 v=0
27180 On ch=1 n=g#5 v=0
27180 On ch=1 n=f#5 v=60
27180 On ch=1 n=d#6 v=60
27240 On ch=1 n=d#6 v=0
27240 On ch=1 n=f#5 v=0
27240 On ch=1 n=c6 v=0
27240 On ch=1 n=g#5 v=60
27240 On ch=1 n=f6 v=60
27240 On ch=1 n=c6 v=60
27300 On ch=1 n=f6 v=0
27300 On ch=1 n=g#5 v=0
27300 On ch=1 n=f#5 v=60
27300 On ch=1 n=d#6 v=60
27360 On ch=1 n=d#6 v=0
27360 On ch=1 n=f#5 v=0
27360 On ch=1 n=c6 v=0
27360 On ch=1 n=f5 v=60
27360 On ch=1 n=c#6 v=60
27480 On ch=1 n=c#6 v=0
27480 On ch=1 n=f5 v=0
27480 On ch=1 n=g#5 v=60
27480 On ch=1 n=c6 v=60
27540 On ch=1 n=c6 v=0
27540 On ch=1 n=g#5 v=0
27540 On ch=1 n=f#5 v=60
27540 On ch=1 n=a#5 v=60
27600 On ch=1 n=a#5 v=0
27600 On ch=1 n=f#5 v=0
27600 On ch=1 n=f5 v=60
27600 On ch=1 n=g#5 v=60
27720 On ch=1 n=g#5 v=0
27720 On ch=1 n=f5 v=0
27720 On ch=1 n=f#5 v=60
27720 On ch=1 n=a#5 v=60
27900 On ch=1 n=a#5 v=0
27900 On ch=1 n=f#5 v=0
27900 On ch=1 n=c5 v=60
27900 On ch=1 n=g#5 v=60
27960 On ch=1 n=g#5 v=0
27960 On ch=1 n=c5 v=0
27960 On ch=1 n=f#5 v=60
27960 On ch=1 n=a#5 v=60
28020 On ch=1 n=a#5 v=0
28020 On ch=1 n=f#5 v=0
28020 On ch=1 n=c5 v=60
28020 On ch=1 n=g#5 v=60
28080 On ch=1 n=g#5 v=0
28080 On ch=1 n=c5 v=0
28080 On ch=1 n=c#5 v=60
28080 On ch=1 n=f5 v=60
28200 On ch=1 n=f5 v=0
28200 On ch=1 n=c#5 v=0
28200 On ch=1 n=g#5 v=60
28200 On ch=1 n=f5 v=60
28260 On ch=1 n=g#5 v=0
28260 On ch=1 n=g#5 v=60
28260 On ch=1 n=c#6 v=60
28320 On ch=1 n=c#6 v=0
28320 On ch=1 n=f6 v=60
28320 On ch=1 n=c#6 v=60
28440 On ch=1 n=c#6 v=0
28440 On ch=1 n=f5 v=0
28440 On ch=1 n=g#5 v=0
28440 On ch=1 n=f6 v=0
28440 On ch=1 n=g#5 v=60
28440 On ch=1 n=f6 v=60
28440 On ch=1 n=c6 v=60
28620 On ch=1 n=f6 v=0
28620 On ch=1 n=g#5 v=0
28620 On ch=1 n=f#5 v=60
28620 On ch=1 n=d#6 v=60
28680 On ch=1 n=d#6 v=0
28680 On ch=1 n=f#5 v=0
28680 On ch=1 n=c6 v=0
28680 On ch=1 n=g#5 v=60
28680 On ch=1 n=f6 v=60
28740 On ch=1 n=f6 v=0
28740 On ch=1 n=g#5 v=0
28740 On ch=1 n=f#5 v=60
28740 On ch=1 n=d#6 v=60
28800 On ch=1 n=d#6 v=0
28800 On ch=1 n=f#5 v=0
28800 On ch=1 n=c#6 v=60
28800 On ch=1 n=f5 v=60
28920 On ch=1 n=f5 v=0
28920 On ch=1 n=c#6 v=0
29040 On ch=1 n=c#5 v=60
29160 On ch=1 n=c#5 v=0
29160 On ch=1 n=a#5 v=60
29280 On ch=1 n=a#4 v=60
29280 On ch=1 n=c#5 v=60
29400 On ch=1 n=c#5 v=0
29400 On ch=1 n=a#4 v=0
29400 On ch=1 n=a#4 v=61
29400 On ch=1 n=c#5 v=61
29520 On ch=1 n=c#5 v=0
29520 On ch=1 n=a#4 v=0
29520 On ch=1 n=a#5 v=0
29520 On ch=1 n=f#5 v=62
29640 On ch=1 n=c#5 v=63
29760 On ch=1 n=c#5 v=0
29760 On ch=1 n=f#5 v=0
29760 On ch=1 n=c#5 v=64
29760 On ch=1 n=f5 v=64
29880 On ch=1 n=f5 v=0
29880 On ch=1 n=c#5 v=0
29880 On ch=1 n=g#5 v=65
30000 On ch=1 n=c#5 v=66
30120 On ch=1 n=c#5 v=0
30120 On ch=1 n=g#5 v=0
30120 On ch=1 n=c#5 v=67
30120 On ch=1 n=g5 v=67
30240 On ch=1 n=g5 v=0
30240 On ch=1 n=c#5 v=0
30240 On ch=1 n=a#5 v=68
30360 On ch=1 n=d#5 v=69
30360 On ch=1 n=g5 v=69
30480 On ch=1 n=g5 v=0
30480 On ch=1 n=d#5 v=0
30480 On ch=1 n=d#5 v=70
30480 On ch=1 n=g5 v=70
30600 On ch=1 n=g5 v=0
30600 On ch=1 n=d#5 v=0
30600 On ch=1 n=a#5 v=0
30600 On ch=1 n=g#5 v=70
30600 On ch=1 n=d#6 v=70
30720 On ch=1 n=g#5 v=0
30720 On ch=1 n=d#5 v=71
30720 On ch=1 n=g#5 v=71
30840 On ch=1 n=g#5 v=0
30840 On ch=1 n=d#5 v=0
30840 On ch=1 n=d#6 v=0
30840 On ch=1 n=d#5 v=72
30840 On ch=1 n=c#6 v=72
30840 On ch=1 n=g5 v=72
30960 On ch=1 n=g5 v=0
30960 On ch=1 n=c#6 v=0
30960 On ch=1 n=d#5 v=0
30960 On ch=1 n=d#5 v=73
30960 On ch=1 n=g#5 v=73
30960 On ch=1 n=b5 v=73
31080 On ch=1 n=g#5 v=0
31080 On ch=1 n=d#5 v=0
31080 On ch=1 n=d#5 v=74
31080 On ch=1 n=g#5 v=74
31200 On ch=1 n=g#5 v=0
31200 On ch=1 n=d#5 v=0
31200 On ch=1 n=b5 v=0
31200 On ch=1 n=d#5 v=75
31200 On ch=1 n=c6 v=75
31200 On ch=1 n=a5 v=75
31320 On ch=1 n=a5 v=0
31320 On ch=1 n=c6 v=0
31320 On ch=1 n=d#5 v=0
31320 On ch=1 n=c#5 v=76
31320 On ch=1 n=g#5 v=76
31320 On ch=1 n=c#6 v=76
31440 On ch=1 n=g#5 v=0
31440 On ch=1 n=c#5 v=0
31440 On ch=1 n=c#5 v=77
31440 On ch=1 n=g#5 v=77
31560 On ch=1 n=g#5 v=0
31560 On ch=1 n=c#5 v=0
31560 On ch=1 n=c#6 v=0
31560 On ch=1 n=f#5 v=78
31560 On ch=1 n=g#5 v=78
31560 On ch=1 n=c6 v=78
31680 On ch=1 n=c6 v=0
31680 On ch=1 n=g#5 v=0
31680 On ch=1 n=f#5 v=0
31680 On ch=1 n=f#5 v=79
31680 On ch=1 n=b5 v=79
31680 On ch=1 n=d#6 v=79
31800 On ch=1 n=d#6 v=0
31800 On ch=1 n=b5 v=0
31800 On ch=1 n=f#5 v=0
31800 On ch=1 n=f5 v=80
31800 On ch=1 n=a#5 v=80
31800 On ch=1 n=c#6 v=80
31860 On ch=1 n=f5 v=0
31860 On ch=1 n=d#5 v=80
31920 On ch=1 n=d#5 v=0
31920 On ch=1 n=c#6 v=0
31920 On ch=1 n=a#5 v=0
31920 On ch=1 n=f5 v=81
31920 On ch=1 n=g#5 v=81
31920 On ch=1 n=b5 v=81
32040 On ch=1 n=b5 v=0
32040 On ch=1 n=g#5 v=0
32040 On ch=1 n=f5 v=0
32040 On ch=1 n=a#5 v=81
32040 On ch=1 n=f#5 v=81
32160 On ch=1 n=a#4 v=82
32160 On ch=1 n=c#5 v=82
32280 On ch=1 n=c#5 v=0
32280 On ch=1 n=a#4 v=0
32280 On ch=1 n=a#4 v=83
32280 On ch=1 n=c#5 v=83
32400 On ch=1 n=c#5 v=0
32400 On ch=1 n=a#5 v=0
32400 On ch=1 n=f#5 v=0
32400 On ch=1 n=a#4 v=0
32400 On ch=1 n=f#5 v=84
32520 On ch=1 n=c#5 v=85
32640 On ch=1 n=c#5 v=0
32640 On ch=1 n=f#5 v=0
32640 On ch=1 n=c#5 v=86
32640 On ch=1 n=f5 v=86
32760 On ch=1 n=f5 v=0
32760 On ch=1 n=c#5 v=0
32760 On ch=1 n=g#5 v=87
32880 On ch=1 n=c#5 v=88
33000 On ch=1 n=c#5 v=0
33000 On ch=1 n=g#5 v=0
33000 On ch=1 n=c#5 v=89
33000 On ch=1 n=g5 v=89
33120 On ch=1 n=g5 v=0
33120 On ch=1 n=c#5 v=0
33120 On ch=1 n=a#5 v=90
33240 On ch=1 n=d#5 v=91
33240 On ch=1 n=g5 v=91
33360 On ch=1 n=g5 v=0
33360 On ch=1 n=d#5 v=0
33360 On ch=1 n=d#5 v=92
33360 On ch=1 n=g5 v=92
33480 On ch=1 n=g5 v=0
33480 On ch=1 n=d#5 v=0
33480 On ch=1 n=a#5 v=0
33480 On ch=1 n=g#5 v=92
33480 On ch=1 n=d#6 v=92
33600 On ch=1 n=g#5 v=0
33600 On ch=1 n=d#5 v=93
33600 On ch=1 n=g#5 v=93
33720 On ch=1 n=g#5 v=0
33720 On ch=1 n=d#5 v=0
33720 On ch=1 n=d#6 v=0
33720 On ch=1 n=d#5 v=94
33720 On ch=1 n=c#6 v=94
33720 On ch=1 n=g5 v=94
33840 On ch=1 n=g5 v=0
33840 On ch=1 n=c#6 v=0
33840 On ch=1 n=d#5 v=0
33840 On ch=1 n=d#5 v=95
33840 On ch=1 n=g#5 v=95
33840 On ch=1 n=b5 v=95
33960 On ch=1 n=g#5 v=0
33960 On ch=1 n=d#5 v=0
33960 On ch=1 n=d#5 v=96
33960 On ch=1 n=g#5 v=96
34080 On ch=1 n=g#5 v=0
34080 On ch=1 n=d#5 v=0
34080 On ch=1 n=b5 v=0
34080 On ch=1 n=d#5 v=97
34080 On ch=1 n=c6 v=97
34080 On ch=1 n=a5 v=97
34200 On ch=1 n=a5 v=0
34200 On ch=1 n=c6 v=0
34200 On ch=1 n=d#5 v=0
34200 On ch=1 n=c#5 v=98
34200 On ch=1 n=g#5 v=98
34200 On ch=1 n=c#6 v=98
34320 On ch=1 n=c#6 v=0
34320 On ch=1 n=g#5 v=0
34320 On ch=1 n=c#5 v=0
34440 On ch=1 n=c#6 v=100
34440 On ch=1 n=b5 v=100
34440 On ch=1 n=f5 v=100
34560 On ch=1 n=f5 v=0
34560 On ch=1 n=b5 v=0
34560 On ch=1 n=c#6 v=0
34560 On ch=1 n=f#5 v=100
34560 On ch=1 n=a#5 v=100
34560 On ch=1 n=f#6 v=100
34680 On ch=1 n=f#6 v=0
34680 On ch=1 n=a#5 v=0
34680 On ch=1 n=f#5 v=0
34800 On ch=1 n=a#5 v=60
34860 On ch=1 n=a#5 v=0
34860 On ch=1 n=g#5 v=60
34920 On ch=1 n=g#5 v=0
34920 On ch=1 n=f6 v=60
34980 On ch=1 n=f5 v=60
35040 On ch=1 n=f5 v=0
35040 On ch=1 n=f#5 v=60
35100 On ch=1 n=f#5 v=0
35100 On ch=1 n=g5 v=60
35160 On ch=1 n=g5 v=0
35160 On ch=1 n=g#5 v=60
35220 On ch=1 n=f6 v=0
35220 On ch=1 n=f#6 v=60
35280 On ch=1 n=f#6 v=0
35280 On ch=1 n=f6 v=60
35340 On ch=1 n=g#5 v=0
35340 On ch=1 n=g5 v=60
35400 On ch=1 n=g5 v=0
35400 On ch=1 n=g#5 v=60
35460 On ch=1 n=g#5 v=0
35460 On ch=1 n=f6 v=0
35460 On ch=1 n=f6 v=60
35460 On ch=1 n=a5 v=60
35520 On ch=1 n=a5 v=0
35520 On ch=1 n=f6 v=0
35520 On ch=1 n=d#6 v=60
35520 On ch=1 n=g#5 v=60
35580 On ch=1 n=g#5 v=0
35580 On ch=1 n=f#5 v=60
35640 On ch=1 n=d#6 v=0
35640 On ch=1 n=c#6 v=60
35700 On ch=1 n=f#5 v=0
35700 On ch=1 n=f5 v=60
35760 On ch=1 n=f5 v=0
35760 On ch=1 n=g#5 v=60
35820 On ch=1 n=c#6 v=0
35820 On ch=1 n=c6 v=60
35880 On ch=1 n=c6 v=0
35880 On ch=1 n=g#5 v=0
35880 On ch=1 n=a#5 v=60
35880 On ch=1 n=g5 v=60
35940 On ch=1 n=a#5 v=0
35940 On ch=1 n=d#6 v=60
36000 On ch=1 n=d#6 v=0
36000 On ch=1 n=g5 v=0
36000 On ch=1 n=c#6 v=60
36000 On ch=1 n=f#5 v=60
36020 On ch=1 n=c#6 v=0
36020 On ch=1 n=d#6 v=60
36040 On ch=1 n=d#6 v=0
36040 On ch=1 n=c#6 v=60
36060 On ch=1 n=c#6 v=0
36060 On ch=1 n=c6 v=60
36120 On ch=1 n=c6 v=0
36120 On ch=1 n=a#5 v=60
36180 On ch=1 n=a#5 v=0
36180 On ch=1 n=c6 v=60
36240 On ch=1 n=c6 v=0
36240 On ch=1 n=f#5 v=0
36240 On ch=1 n=g#5 v=60
36240 On ch=1 n=f#5 v=60
36360 On ch=1 n=f#5 v=0
36360 On ch=1 n=g#5 v=0
36360 On ch=1 n=f6 v=60
36420 On ch=1 n=f5 v=60
36480 On ch=1 n=f5 v=0
36480 On ch=1 n=f#5 v=60
36540 On ch=1 n=f#5 v=0
36540 On ch=1 n=g5 v=60
36600 On ch=1 n=g5 v=0
36600 On ch=1 n=g#5 v=60
36660 On ch=1 n=f6 v=0
36660 On ch=1 n=f#6 v=60
36720 On ch=1 n=f#6 v=0
36720 On ch=1 n=f6 v=60
36780 On ch=1 n=g#5 v=0
36780 On ch=1 n=g#5 v=60
36840 On ch=1 n=g#5 v=0
36840 On ch=1 n=a5 v=60
36900 On ch=1 n=f6 v=0
36900 On ch=1 n=f6 v=60
36960 On ch=1 n=f6 v=0
36960 On ch=1 n=a5 v=0
36960 On ch=1 n=d#6 v=60
36960 On ch=1 n=g#5 v=60
37020 On ch=1 n=g#5 v=0
37020 On ch=1 n=f#5 v=60
37080 On ch=1 n=f#5 v=0
37080 On ch=1 n=f5 v=60
37140 On ch=1 n=d#6 v=0
37140 On ch=1 n=c#6 v=60
37200 On ch=1 n=c#6 v=0
37200 On ch=1 n=f5 v=0
37200 On ch=1 n=a#5 v=60
37260 On ch=1 n=c7 v=60
37320 On ch=1 n=c7 v=0
37320 On ch=1 n=a#6 v=60
37380 On ch=1 n=a#6 v=0
37380 On ch=1 n=a#5 v=0
37380 On ch=1 n=c6 v=60
37440 On ch=1 n=c6 v=0
37440 On ch=1 n=c#6 v=60
37500 On ch=1 n=f5 v=60
37560 On ch=1 n=f5 v=0
37560 On ch=1 n=c#6 v=0
37560 On ch=1 n=f#5 v=60
37620 On ch=1 n=f#5 v=0
37620 On ch=1 n=g5 v=60
37680 On ch=1 n=g5 v=0
37680 On ch=1 n=a#5 v=60
37740 On ch=1 n=a#5 v=0
37740 On ch=1 n=g#5 v=60
37800 On ch=1 n=g#5 v=0
37800 On ch=1 n=f6 v=60
37860 On ch=1 n=f5 v=60
37920 On ch=1 n=f5 v=0
37920 On ch=1 n=f#5 v=60
37980 On ch=1 n=f#5 v=0
37980 On ch=1 n=g5 v=60
38040 On ch=1 n=g5 v=0
38040 On ch=1 n=g#5 v=60
38100 On ch=1 n=f6 v=0
38100 On ch=1 n=f#6 v=60
38160 On ch=1 n=f#6 v=0
38160 On ch=1 n=f6 v=60
38220 On ch=1 n=g#5 v=0
38220 On ch=1 n=g5 v=60
38280 On ch=1 n=g5 v=0
38280 On ch=1 n=g#5 v=60
38340 On ch=1 n=g#5 v=0
38340 On ch=1 n=f6 v=0
38340 On ch=1 n=f6 v=60
38340 On ch=1 n=a5 v=60
38400 On ch=1 n=a5 v=0
38400 On ch=1 n=f6 v=0
38400 On ch=1 n=d#6 v=60
38400 On ch=1 n=g#5 v=60
38460 On ch=1 n=g#5 v=0
38460 On ch=1 n=f#5 v=60
38520 On ch=1 n=d#6 v=0
38520 On ch=1 n=c#6 v=60
38580 On ch=1 n=f#5 v=0
38580 On ch=1 n=f5 v=60
38640 On ch=1 n=f5 v=0
38640 On ch=1 n=g#5 v=60
38700 On ch=1 n=c#6 v=0
38700 On ch=1 n=c6 v=60
38760 On ch=1 n=c6 v=0
38760 On ch=1 n=g#5 v=0
38760 On ch=1 n=a#5 v=60
38760 On ch=1 n=g5 v=60
38820 On ch=1 n=a#5 v=0
38820 On ch=1 n=d#6 v=60
38880 On ch=1 n=d#6 v=0
38880 On ch=1 n=g5 v=0
38880 On ch=1 n=c#6 v=60
38880 On ch=1 n=f#5 v=60
38900 On ch=1 n=c#6 v=0
38900 On ch=1 n=d#6 v=60
38920 On ch=1 n=d#6 v=0
38920 On ch=1 n=c#6 v=60
38940 On ch=1 n=c#6 v=0
38940 On ch=1 n=c6 v=60
39000 On ch=1 n=c6 v=0
39000 On ch=1 n=a#5 v=60
39060 On ch=1 n=a#5 v=0
39060 On ch=1 n=c6 v=60
39120 On ch=1 n=c6 v=0
39120 On ch=1 n=f#5 v=0
39120 On ch=1 n=g#5 v=60
39120 On ch=1 n=f#5 v=60
39240 On ch=1 n=f#5 v=0
39240 On ch=1 n=g#5 v=0
39240 On ch=1 n=f6 v=60
39300 On ch=1 n=f5 v=60
39360 On ch=1 n=f5 v=0
39360 On ch=1 n=f#5 v=60
39420 On ch=1 n=f#5 v=0
39420 On ch=1 n=g5 v=60
39480 On ch=1 n=g5 v=0
39480 On ch=1 n=g#5 v=60
39540 On ch=1 n=f6 v=0
39540 On ch=1 n=f#6 v=60
39600 On ch=1 n=f#6 v=0
39600 On ch=1 n=f6 v=60
39660 On ch=1 n=g#5 v=0
39660 On ch=1 n=g#5 v=60
39720 On ch=1 n=g#5 v=0
39720 On ch=1 n=a5 v=60
39780 On ch=1 n=f6 v=0
39780 On ch=1 n=f6 v=60
39840 On ch=1 n=f6 v=0
39840 On ch=1 n=a5 v=0
39840 On ch=1 n=d#6 v=60
39840 On ch=1 n=g#5 v=60
39900 On ch=1 n=g#5 v=0
39900 On ch=1 n=f#5 v=60
39960 On ch=1 n=f#5 v=0
39960 On ch=1 n=f5 v=60
40020 On ch=1 n=d#6 v=0
40020 On ch=1 n=c#6 v=60
40080 On ch=1 n=c#6 v=0
40080 On ch=1 n=f5 v=0
40080 On ch=1 n=a#5 v=60
40140 On ch=1 n=c7 v=60
40200 On ch=1 n=c7 v=0
40200 On ch=1 n=a#6 v=60
40260 On ch=1 n=a#6 v=0
40260 On ch=1 n=a#5 v=0
40260 On ch=1 n=c6 v=60
40320 On ch=1 n=c6 v=0
40320 On ch=1 n=c#6 v=60
40380 On ch=1 n=f5 v=60
40440 On ch=1 n=f5 v=0
40440 On ch=1 n=c#6 v=0
40440 On ch=1 n=f#5 v=60
40500 On ch=1 n=f#5 v=0
40500 On ch=1 n=g5 v=60
40560 On ch=1 n=g5 v=0
40560 On ch=1 n=g#5 v=60
40620 On ch=1 n=g#5 v=0
40620 On ch=1 n=c6 v=60
40680 On ch=1 n=c6 v=0
40680 On ch=1 n=f6 v=80
40680 On ch=1 n=c#6 v=80
40860 On ch=1 n=c#6 v=0
40860 On ch=1 n=f6 v=0
40860 On ch=1 n=g5 v=80
40860 On ch=1 n=d#6 v=80
40920 On ch=1 n=d#6 v=0
40920 On ch=1 n=g5 v=0
40920 On ch=1 n=c#6 v=80
40920 On ch=1 n=f6 v=80
40980 On ch=1 n=f6 v=0
40980 On ch=1 n=c#6 v=0
40980 On ch=1 n=g5 v=80
40980 On ch=1 n=d#6 v=80
41040 On ch=1 n=d#6 v=0
41040 On ch=1 n=g5 v=0
41040 On ch=1 n=c6 v=80
41040 On ch=1 n=f6 v=80
41100 On ch=1 n=f6 v=0
41100 On ch=1 n=c6 v=0
41100 On ch=1 n=g#5 v=80
41100 On ch=1 n=d#6 v=80
41160 On ch=1 n=d#6 v=0
41160 On ch=1 n=g#5 v=0
41160 On ch=1 n=c6 v=80
41160 On ch=1 n=f6 v=80
41220 On ch=1 n=f6 v=0
41220 On ch=1 n=c6 v=0
41220 On ch=1 n=g#5 v=80
41220 On ch=1 n=d#6 v=80
41280 On ch=1 n=d#6 v=0
41280 On ch=1 n=g#5 v=0
41280 On ch=1 n=c6 v=80
41280 On ch=1 n=f6 v=80
41340 On ch=1 n=f6 v=0
41340 On ch=1 n=c6 v=0
41340 On ch=1 n=g#5 v=80
41340 On ch=1 n=d#6 v=80
41400 On ch=1 n=d#6 v=0
41400 On ch=1 n=g#5 v=0
41400 On ch=1 n=b5 v=80
41400 On ch=1 n=d#6 v=80
41580 On ch=1 n=d#6 v=0
41580 On ch=1 n=b5 v=0
41580 On ch=1 n=f5 v=80
41580 On ch=1 n=c#6 v=80
41640 On ch=1 n=c#6 v=0
41640 On ch=1 n=f5 v=0
41640 On ch=1 n=b5 v=80
41640 On ch=1 n=d#6 v=80
41700 On ch=1 n=d#6 v=0
41700 On ch=1 n=b5 v=0
41700 On ch=1 n=f5 v=80
41700 On ch=1 n=c#6 v=80
41760 On ch=1 n=c#6 v=0
41760 On ch=1 n=f5 v=0
41760 On ch=1 n=a#5 v=80
41760 On ch=1 n=d#6 v=80
41820 On ch=1 n=d#6 v=0
41820 On ch=1 n=a#5 v=0
41820 On ch=1 n=f#5 v=80
41820 On ch=1 n=c#6 v=80
41880 On ch=1 n=c#6 v=0
41880 On ch=1 n=f#5 v=0
41880 On ch=1 n=a#5 v=80
41880 On ch=1 n=d#6 v=80
41940 On ch=1 n=d#6 v=0
41940 On ch=1 n=a#5 v=0
41940 On ch=1 n=f#5 v=80
41940 On ch=1 n=c#6 v=80
42000 On ch=1 n=c#6 v=0
42000 On ch=1 n=f#5 v=0
42000 On ch=1 n=a#5 v=80
42000 On ch=1 n=d#6 v=80
42060 On ch=1 n=d#6 v=0
42060 On ch=1 n=a#5 v=0
42060 On ch=1 n=f#5 v=80
42060 On ch=1 n=c#6 v=80
42120 On ch=1 n=c#6 v=0
42120 On ch=1 n=f#5 v=0
42120 On ch=1 n=a5 v=80
42120 On ch=1 n=c#6 v=80
42180 On ch=1 n=c#6 v=0
42180 On ch=1 n=a5 v=0
42180 On ch=1 n=f#5 v=81
42180 On ch=1 n=d#6 v=81
42240 On ch=1 n=d#6 v=0
42240 On ch=1 n=f#5 v=0
42240 On ch=1 n=c#6 v=83
42240 On ch=1 n=a5 v=83
42260 On ch=1 n=c#6 v=0
42260 On ch=1 n=d#6 v=84
42280 On ch=1 n=d#6 v=0
42280 On ch=1 n=c#6 v=84
42300 On ch=1 n=c#6 v=0
42300 On ch=1 n=a5 v=0
42300 On ch=1 n=c6 v=85
42300 On ch=1 n=f#5 v=85
42360 On ch=1 n=f#5 v=0
42360 On ch=1 n=c6 v=0
42360 On ch=1 n=a5 v=87
42360 On ch=1 n=c#6 v=87
42420 On ch=1 n=c#6 v=0
42420 On ch=1 n=a5 v=0
42420 On ch=1 n=f#5 v=89
42420 On ch=1 n=d#6 v=89
42480 On ch=1 n=d#6 v=0
42480 On ch=1 n=f#5 v=0
42480 On ch=1 n=g#5 v=90
42480 On ch=1 n=f6 v=90
42540 On ch=1 n=g#5 v=0
42540 On ch=1 n=f5 v=90
42600 On ch=1 n=f5 v=0
42600 On ch=1 n=f6 v=0
42600 On ch=1 n=g#5 v=89
42600 On ch=1 n=d#6 v=89
42660 On ch=1 n=d#6 v=0
42660 On ch=1 n=g#5 v=0
42660 On ch=1 n=f5 v=89
42660 On ch=1 n=c#6 v=89
42720 On ch=1 n=c#6 v=0
42720 On ch=1 n=f5 v=0
42720 On ch=1 n=e5 v=88
42720 On ch=1 n=c6 v=88
42780 On ch=1 n=c6 v=0
42780 On ch=1 n=e5 v=0
42780 On ch=1 n=c#5 v=87
42780 On ch=1 n=a#5 v=87
42840 On ch=1 n=a#5 v=0
42840 On ch=1 n=c#5 v=0
42840 On ch=1 n=f5 v=87
42840 On ch=1 n=a#5 v=87
42900 On ch=1 n=a#5 v=0
42900 On ch=1 n=f5 v=0
42900 On ch=1 n=c5 v=86
42900 On ch=1 n=g#5 v=86
42960 On ch=1 n=g#5 v=0
42960 On ch=1 n=c5 v=0
42960 On ch=1 n=f#5 v=86
42960 On ch=1 n=a#5 v=86
43020 On ch=1 n=a#5 v=0
43020 On ch=1 n=f#5 v=0
43020 On ch=1 n=c5 v=85
43020 On ch=1 n=g#5 v=85
43080 On ch=1 n=g#5 v=0
43080 On ch=1 n=c5 v=0
43080 On ch=1 n=f#5 v=84
43080 On ch=1 n=a#5 v=84
43140 On ch=1 n=a#5 v=0
43140 On ch=1 n=f#5 v=0
43140 On ch=1 n=c5 v=84
43140 On ch=1 n=g#5 v=84
43200 On ch=1 n=g#5 v=0
43200 On ch=1 n=c5 v=0
43200 On ch=1 n=c#6 v=83
43200 On ch=1 n=f5 v=83
43380 On ch=1 n=f5 v=0
43380 On ch=1 n=c#6 v=0
43380 On ch=1 n=c6 v=81
43440 On ch=1 n=c6 v=0
43440 On ch=1 n=c#6 v=81
43500 On ch=1 n=c#6 v=0
43500 On ch=1 n=d6 v=80
43560 On ch=1 n=d6 v=0
43560 On ch=1 n=f6 v=80
43560 On ch=1 n=c#6 v=80
43740 On ch=1 n=c#6 v=0
43740 On ch=1 n=f6 v=0
43740 On ch=1 n=g5 v=80
43740 On ch=1 n=d#6 v=80
43800 On ch=1 n=d#6 v=0
43800 On ch=1 n=g5 v=0
43800 On ch=1 n=c#6 v=80
43800 On ch=1 n=f6 v=80
43860 On ch=1 n=f6 v=0
43860 On ch=1 n=c#6 v=0
43860 On ch=1 n=g5 v=80
43860 On ch=1 n=d#6 v=80
43920 On ch=1 n=d#6 v=0
43920 On ch=1 n=g5 v=0
43920 On ch=1 n=c6 v=80
43920 On ch=1 n=f6 v=80
43980 On ch=1 n=f6 v=0
43980 On ch=1 n=c6 v=0
43980 On ch=1 n=g#5 v=80
43980 On ch=1 n=d#6 v=80
44040 On ch=1 n=d#6 v=0
44040 On ch=1 n=g#5 v=0
44040 On ch=1 n=c6 v=80
44040 On ch=1 n=f6 v=80
44100 On ch=1 n=f6 v=0
44100 On ch=1 n=c6 v=0
44100 On ch=1 n=g#5 v=80
44100 On ch=1 n=d#6 v=80
44160 On ch=1 n=d#6 v=0
44160 On ch=1 n=g#5 v=0
44160 On ch=1 n=c6 v=80
44160 On ch=1 n=f6 v=80
44220 On ch=1 n=f6 v=0
44220 On ch=1 n=c6 v=0
44220 On ch=1 n=g#5 v=80
44220 On ch=1 n=d#6 v=80
44280 On ch=1 n=d#6 v=0
44280 On ch=1 n=g#5 v=0
44280 On ch=1 n=b5 v=80
44280 On ch=1 n=d#6 v=80
44460 On ch=1 n=d#6 v=0
44460 On ch=1 n=b5 v=0
44460 On ch=1 n=f5 v=80
44460 On ch=1 n=c#6 v=80
44520 On ch=1 n=c#6 v=0
44520 On ch=1 n=f5 v=0
44520 On ch=1 n=b5 v=80
44520 On ch=1 n=d#6 v=80
44580 On ch=1 n=d#6 v=0
44580 On ch=1 n=b5 v=0
44580 On ch=1 n=f5 v=80
44580 On ch=1 n=c#6 v=80
44640 On ch=1 n=c#6 v=0
44640 On ch=1 n=f5 v=0
44640 On ch=1 n=a#5 v=80
44640 On ch=1 n=d#6 v=80
44700 On ch=1 n=d#6 v=0
44700 On ch=1 n=a#5 v=0
44700 On ch=1 n=f#5 v=80
44700 On ch=1 n=c#6 v=80
44760 On ch=1 n=c#6 v=0
44760 On ch=1 n=f#5 v=0
44760 On ch=1 n=a#5 v=80
44760 On ch=1 n=d#6 v=80
44820 On ch=1 n=d#6 v=0
44820 On ch=1 n=a#5 v=0
44820 On ch=1 n=f#5 v=80
44820 On ch=1 n=c#6 v=80
44880 On ch=1 n=c#6 v=0
44880 On ch=1 n=f#5 v=0
44880 On ch=1 n=a#5 v=80
44880 On ch=1 n=d#6 v=80
44940 On ch=1 n=d#6 v=0
44940 On ch=1 n=a#5 v=0
44940 On ch=1 n=f#5 v=80
44940 On ch=1 n=c#6 v=80
45000 On ch=1 n=c#6 v=0
45000 On ch=1 n=f#5 v=0
45000 On ch=1 n=a5 v=80
45000 On ch=1 n=c#6 v=80
45060 On ch=1 n=c#6 v=0
45060 On ch=1 n=a5 v=0
45060 On ch=1 n=f#5 v=81
45060 On ch=1 n=d#6 v=81
45120 On ch=1 n=d#6 v=0
45120 On ch=1 n=f#5 v=0
45120 On ch=1 n=c#6 v=83
45120 On ch=1 n=a5 v=83
45140 On ch=1 n=c#6 v=0
45140 On ch=1 n=d#6 v=84
45160 On ch=1 n=d#6 v=0
45160 On ch=1 n=c#6 v=84
45180 On ch=1 n=c#6 v=0
45180 On ch=1 n=a5 v=0
45180 On ch=1 n=c6 v=85
45180 On ch=1 n=f#5 v=85
45240 On ch=1 n=f#5 v=0
45240 On ch=1 n=c6 v=0
45240 On ch=1 n=a5 v=87
45240 On ch=1 n=c#6 v=87
45300 On ch=1 n=c#6 v=0
45300 On ch=1 n=a5 v=0
45300 On ch=1 n=f#5 v=89
45300 On ch=1 n=d#6 v=89
45360 On ch=1 n=d#6 v=0
45360 On ch=1 n=f#5 v=0
45360 On ch=1 n=g#5 v=90
45360 On ch=1 n=f6 v=90
45420 On ch=1 n=g#5 v=0
45420 On ch=1 n=f5 v=90
45480 On ch=1 n=f5 v=0
45480 On ch=1 n=f6 v=0
45480 On ch=1 n=g#5 v=89
45480 On ch=1 n=d#6 v=89
45540 On ch=1 n=d#6 v=0
45540 On ch=1 n=g#5 v=0
45540 On ch=1 n=f5 v=88
45540 On ch=1 n=c#6 v=88
45600 On ch=1 n=c#6 v=0
45600 On ch=1 n=f5 v=0
45600 On ch=1 n=e5 v=87
45600 On ch=1 n=c6 v=87
45660 On ch=1 n=c6 v=0
45660 On ch=1 n=e5 v=0
45660 On ch=1 n=c#5 v=87
45660 On ch=1 n=a#5 v=87
45720 On ch=1 n=a#5 v=0
45720 On ch=1 n=c#5 v=0
45720 On ch=1 n=f5 v=86
45720 On ch=1 n=a#5 v=86
45780 On ch=1 n=a#5 v=0
45780 On ch=1 n=f5 v=0
45780 On ch=1 n=c5 v=85
45780 On ch=1 n=g#5 v=85
45840 On ch=1 n=g#5 v=0
45840 On ch=1 n=c5 v=0
45840 On ch=1 n=f#5 v=84
45840 On ch=1 n=a#5 v=84
45900 On ch=1 n=a#5 v=0
45900 On ch=1 n=f#5 v=0
45900 On ch=1 n=c5 v=83
45900 On ch=1 n=g#5 v=83
45960 On ch=1 n=g#5 v=0
45960 On ch=1 n=c5 v=0
45960 On ch=1 n=f#5 v=83
45960 On ch=1 n=a#5 v=83
46020 On ch=1 n=a#5 v=0
46020 On ch=1 n=f#5 v=0
46020 On ch=1 n=c5 v=82
46020 On ch=1 n=g#5 v=82
46080 On ch=1 n=g#5 v=0
46080 On ch=1 n=c5 v=0
46080 On ch=1 n=c#6 v=81
46080 On ch=1 n=f5 v=81
46200 On ch=1 n=f5 v=0
46200 On ch=1 n=c#6 v=0
46200 Meta TrkEnd
TrkEnd
MTrk
0 Meta 0x21 00
0 Meta TrkName "Lower Treble"
0 PrCh ch=1 p=0
360 On ch=1 n=c#4 v=60
480 On ch=1 n=c#4 v=0
480 On ch=1 n=c#5 v=60
480 On ch=1 n=g#4 v=60
480 On ch=1 n=f4 v=60
600 On ch=1 n=f4 v=0
600 On ch=1 n=g#4 v=0
600 On ch=1 n=c#5 v=0
600 On ch=1 n=f4 v=60
600 On ch=1 n=g#4 v=60
600 On ch=1 n=c#5 v=60
720 On ch=1 n=c#5 v=0
720 On ch=1 n=g#4 v=0
720 On ch=1 n=f4 v=0
720 On ch=1 n=g#3 v=60
840 On ch=1 n=g#3 v=0
840 On ch=1 n=c5 v=60
840 On ch=1 n=f#4 v=60
840 On ch=1 n=d#4 v=60
960 On ch=1 n=d#4 v=0
960 On ch=1 n=f#4 v=0
960 On ch=1 n=c5 v=0
960 On ch=1 n=d#4 v=60
960 On ch=1 n=f#4 v=60
960 On ch=1 n=c5 v=60
1080 On ch=1 n=c5 v=0
1080 On ch=1 n=f#4 v=0
1080 On ch=1 n=d#4 v=0
1080 On ch=1 n=a#3 v=60
1200 On ch=1 n=c#5 v=60
1200 On ch=1 n=a#4 v=60
1320 On ch=1 n=a#4 v=0
1320 On ch=1 n=c#5 v=0
1320 On ch=1 n=a#3 v=0
1320 On ch=1 n=c#5 v=60
1320 On ch=1 n=a#4 v=60
1320 On ch=1 n=d#4 v=60
1440 On ch=1 n=d#4 v=0
1440 On ch=1 n=a#4 v=0
1440 On ch=1 n=c#5 v=0
1440 On ch=1 n=g#3 v=60
1560 On ch=1 n=g#3 v=0
1560 On ch=1 n=d#5 v=60
1560 On ch=1 n=g#4 v=60
1680 On ch=1 n=g#4 v=0
1680 On ch=1 n=d#5 v=0
1680 On ch=1 n=d#5 v=60
1680 On ch=1 n=g#4 v=60
1800 On ch=1 n=g#4 v=0
1800 On ch=1 n=d#5 v=0
1800 On ch=1 n=c#4 v=60
1920 On ch=1 n=c#4 v=0
1920 On ch=1 n=c#5 v=60
1920 On ch=1 n=g#4 v=60
1920 On ch=1 n=f4 v=60
2040 On ch=1 n=f4 v=0
2040 On ch=1 n=g#4 v=0
2040 On ch=1 n=c#5 v=0
2040 On ch=1 n=f4 v=60
2040 On ch=1 n=g#4 v=60
2040 On ch=1 n=c#5 v=60
2160 On ch=1 n=c#5 v=0
2160 On ch=1 n=g#4 v=0
2160 On ch=1 n=f4 v=0
2160 On ch=1 n=g#3 v=60
2280 On ch=1 n=g#3 v=0
2280 On ch=1 n=c5 v=60
2280 On ch=1 n=f#4 v=60
2280 On ch=1 n=d#4 v=60
2400 On ch=1 n=d#4 v=0
2400 On ch=1 n=f#4 v=0
2400 On ch=1 n=c5 v=0
2400 On ch=1 n=a3 v=60
2520 On ch=1 n=a3 v=0
2520 On ch=1 n=a#3 v=60
2640 On ch=1 n=a#3 v=0
2640 On ch=1 n=d#5 v=60
2640 On ch=1 n=a#4 v=60
2640 On ch=1 n=f#4 v=60
2760 On ch=1 n=f#4 v=0
2760 On ch=1 n=a#4 v=0
2760 On ch=1 n=d#5 v=0
2760 On ch=1 n=f#5 v=60
2760 On ch=1 n=d#5 v=60
2760 On ch=1 n=g#4 v=60
2880 On ch=1 n=g#4 v=0
2880 On ch=1 n=d#5 v=0
2880 On ch=1 n=f#5 v=0
2880 On ch=1 n=f5 v=60
2880 On ch=1 n=c#5 v=60
3000 On ch=1 n=c#5 v=0
3000 On ch=1 n=f5 v=0
3240 On ch=1 n=c#4 v=60
3360 On ch=1 n=c#4 v=0
3360 On ch=1 n=c#5 v=60
3360 On ch=1 n=g#4 v=60
3360 On ch=1 n=f4 v=60
3480 On ch=1 n=f4 v=0
3480 On ch=1 n=g#4 v=0
3480 On ch=1 n=c#5 v=0
3480 On ch=1 n=f4 v=60
3480 On ch=1 n=g#4 v=60
3480 On ch=1 n=c#5 v=60
3600 On ch=1 n=c#5 v=0
3600 On ch=1 n=g#4 v=0
3600 On ch=1 n=f4 v=0
3600 On ch=1 n=g#3 v=60
3720 On ch=1 n=g#3 v=0
3720 On ch=1 n=c5 v=60
3720 On ch=1 n=f#4 v=60
3720 On ch=1 n=d#4 v=60
3840 On ch=1 n=d#4 v=0
3840 On ch=1 n=f#4 v=0
3840 On ch=1 n=c5 v=0
3840 On ch=1 n=d#4 v=60
3840 On ch=1 n=f#4 v=60
3840 On ch=1 n=c5 v=60
3960 On ch=1 n=c5 v=0
3960 On ch=1 n=f#4 v=0
3960 On ch=1 n=d#4 v=0
3960 On ch=1 n=a#3 v=60
4080 On ch=1 n=c#5 v=60
4080 On ch=1 n=a#4 v=60
4200 On ch=1 n=a#4 v=0
4200 On ch=1 n=c#5 v=0
4200 On ch=1 n=a#3 v=0
4200 On ch=1 n=a#4 v=60
4200 On ch=1 n=c#5 v=60
4200 On ch=1 n=d#4 v=60
4320 On ch=1 n=d#4 v=0
4320 On ch=1 n=c#5 v=0
4320 On ch=1 n=a#4 v=0
4320 On ch=1 n=g#3 v=60
4440 On ch=1 n=g#3 v=0
4440 On ch=1 n=d#5 v=60
4440 On ch=1 n=g#4 v=60
4560 On ch=1 n=g#4 v=0
4560 On ch=1 n=d#5 v=0
4560 On ch=1 n=d#5 v=60
4560 On ch=1 n=g#4 v=60
4680 On ch=1 n=g#4 v=0
4680 On ch=1 n=d#5 v=0
4680 On ch=1 n=c#4 v=60
4800 On ch=1 n=c#4 v=0
4800 On ch=1 n=c#5 v=60
4800 On ch=1 n=g#4 v=60
4800 On ch=1 n=f4 v=60
4920 On ch=1 n=f4 v=0
4920 On ch=1 n=g#4 v=0
4920 On ch=1 n=c#5 v=0
4920 On ch=1 n=f4 v=60
4920 On ch=1 n=g#4 v=60
4920 On ch=1 n=c#5 v=60
5040 On ch=1 n=c#5 v=0
5040 On ch=1 n=g#4 v=0
5040 On ch=1 n=f4 v=0
5040 On ch=1 n=g#3 v=60
5160 On ch=1 n=g#3 v=0
5160 On ch=1 n=c5 v=60
5160 On ch=1 n=f#4 v=60
5160 On ch=1 n=d#4 v=60
5280 On ch=1 n=d#4 v=0
5280 On ch=1 n=f#4 v=0
5280 On ch=1 n=c5 v=0
5280 On ch=1 n=a3 v=60
5400 On ch=1 n=a3 v=0
5400 On ch=1 n=a#3 v=60
5520 On ch=1 n=a#3 v=0
5520 On ch=1 n=d#5 v=60
5520 On ch=1 n=a#4 v=60
5520 On ch=1 n=f#4 v=60
5640 On ch=1 n=f#4 v=0
5640 On ch=1 n=a#4 v=0
5640 On ch=1 n=d#5 v=0
5640 On ch=1 n=f#5 v=60
5640 On ch=1 n=d#5 v=60
5640 On ch=1 n=g#4 v=60
5760 On ch=1 n=g#4 v=0
5760 On ch=1 n=d#5 v=0
5760 On ch=1 n=f#5 v=0
5760 On ch=1 n=f5 v=60
5760 On ch=1 n=c#5 v=60
5880 On ch=1 n=c#5 v=0
5880 On ch=1 n=f5 v=0
6120 On ch=1 n=d#3 v=80
6120 On ch=1 n=d#4 v=80
6240 On ch=1 n=d#4 v=0
6240 On ch=1 n=d#3 v=0
6240 On ch=1 n=d#5 v=80
6240 On ch=1 n=d#4 v=80
6360 On ch=1 n=d#4 v=0
6360 On ch=1 n=d#5 v=0
6360 On ch=1 n=d#5 v=80
6360 On ch=1 n=d#4 v=80
6480 On ch=1 n=d#4 v=0
6480 On ch=1 n=d#5 v=0
6480 On ch=1 n=g#3 v=80
6480 On ch=1 n=g#4 v=80
6600 On ch=1 n=g#4 v=0
6600 On ch=1 n=g#3 v=0
6600 On ch=1 n=d#5 v=80
6600 On ch=1 n=g#4 v=80
6720 On ch=1 n=g#4 v=0
6720 On ch=1 n=d#5 v=0
6840 On ch=1 n=c#3 v=80
6840 On ch=1 n=c#4 v=80
6960 On ch=1 n=c#4 v=0
6960 On ch=1 n=c#3 v=0
6960 On ch=1 n=c#5 v=80
6960 On ch=1 n=c#4 v=80
7080 On ch=1 n=c#4 v=0
7080 On ch=1 n=c#5 v=0
7080 On ch=1 n=c#5 v=80
7080 On ch=1 n=c#4 v=80
7200 On ch=1 n=c#4 v=0
7200 On ch=1 n=c#5 v=0
7200 On ch=1 n=f#3 v=80
7320 On ch=1 n=f#3 v=0
7320 On ch=1 n=c#5 v=80
7320 On ch=1 n=a#4 v=80
7320 On ch=1 n=f#4 v=80
7440 On ch=1 n=f#4 v=0
7440 On ch=1 n=a#4 v=0
7440 On ch=1 n=c#5 v=0
7560 On ch=1 n=f#3 v=80
7680 On ch=1 n=f#3 v=0
7680 On ch=1 n=c#5 v=83
7680 On ch=1 n=a4 v=83
7680 On ch=1 n=f#4 v=83
7800 On ch=1 n=f#4 v=0
7800 On ch=1 n=a4 v=0
7800 On ch=1 n=c#5 v=0
7800 On ch=1 n=f#4 v=87
7800 On ch=1 n=a4 v=87
7800 On ch=1 n=c#5 v=87
7920 On ch=1 n=c#5 v=0
7920 On ch=1 n=a4 v=0
7920 On ch=1 n=f#4 v=0
7920 On ch=1 n=c#4 v=90
8040 On ch=1 n=c#4 v=0
8040 On ch=1 n=c#5 v=90
8040 On ch=1 n=g#4 v=90
8040 On ch=1 n=f4 v=90
8160 On ch=1 n=f4 v=0
8160 On ch=1 n=g#4 v=0
8160 On ch=1 n=c#5 v=0
8160 On ch=1 n=g3 v=90
8280 On ch=1 n=g3 v=0
8280 On ch=1 n=g#3 v=90
8400 On ch=1 n=g#3 v=0
8400 On ch=1 n=g#4 v=89
8520 On ch=1 n=g#4 v=0
8520 On ch=1 n=g#3 v=87
8520 On ch=1 n=g#4 v=87
8640 On ch=1 n=g#4 v=0
8640 On ch=1 n=g#3 v=0
8640 On ch=1 n=g#4 v=85
8640 On ch=1 n=c#4 v=85
8760 On ch=1 n=c#4 v=0
8760 On ch=1 n=g#4 v=0
8760 On ch=1 n=c#3 v=83
8880 On ch=1 n=c#3 v=0
9000 On ch=1 n=d#3 v=80
9000 On ch=1 n=d#4 v=80
9120 On ch=1 n=d#4 v=0
9120 On ch=1 n=d#3 v=0
9120 On ch=1 n=d#5 v=80
9120 On ch=1 n=d#4 v=80
9240 On ch=1 n=d#4 v=0
9240 On ch=1 n=d#5 v=0
9240 On ch=1 n=d#5 v=80
9240 On ch=1 n=d#4 v=80
9360 On ch=1 n=d#4 v=0
9360 On ch=1 n=d#5 v=0
9360 On ch=1 n=g#3 v=80
9360 On ch=1 n=g#4 v=80
9480 On ch=1 n=g#4 v=0
9480 On ch=1 n=g#3 v=0
9480 On ch=1 n=d#5 v=80
9480 On ch=1 n=g#4 v=80
9600 On ch=1 n=g#4 v=0
9600 On ch=1 n=d#5 v=0
9720 On ch=1 n=c#3 v=80
9720 On ch=1 n=c#4 v=80
9840 On ch=1 n=c#4 v=0
9840 On ch=1 n=c#3 v=0
9840 On ch=1 n=c#5 v=80
9840 On ch=1 n=c#4 v=80
9960 On ch=1 n=c#4 v=0
9960 On ch=1 n=c#5 v=0
9960 On ch=1 n=c#5 v=80
9960 On ch=1 n=c#4 v=80
10080 On ch=1 n=c#4 v=0
10080 On ch=1 n=c#5 v=0
10080 On ch=1 n=f#3 v=80
10200 On ch=1 n=f#3 v=0
10200 On ch=1 n=c#5 v=80
10200 On ch=1 n=a#4 v=80
10200 On ch=1 n=f#4 v=80
10320 On ch=1 n=f#4 v=0
10320 On ch=1 n=a#4 v=0
10320 On ch=1 n=c#5 v=0
10440 On ch=1 n=f#3 v=80
10560 On ch=1 n=f#3 v=0
10560 On ch=1 n=c#5 v=83
10560 On ch=1 n=a4 v=83
10560 On ch=1 n=f#4 v=83
10680 On ch=1 n=f#4 v=0
10680 On ch=1 n=a4 v=0
10680 On ch=1 n=c#5 v=0
10680 On ch=1 n=f#4 v=87
10680 On ch=1 n=a4 v=87
10680 On ch=1 n=c#5 v=87
10800 On ch=1 n=c#5 v=0
10800 On ch=1 n=a4 v=0
10800 On ch=1 n=f#4 v=0
10800 On ch=1 n=c#4 v=90
10920 On ch=1 n=c#4 v=0
10920 On ch=1 n=c#5 v=87
10920 On ch=1 n=g#4 v=87
10920 On ch=1 n=f4 v=87
11040 On ch=1 n=f4 v=0
11040 On ch=1 n=g#4 v=0
11040 On ch=1 n=c#5 v=0
11040 On ch=1 n=g3 v=83
11160 On ch=1 n=g3 v=0
11160 On ch=1 n=g#3 v=79
11280 On ch=1 n=g#3 v=0
11280 On ch=1 n=g#4 v=75
11400 On ch=1 n=g#4 v=0
11400 On ch=1 n=g#3 v=71
11400 On ch=1 n=g#4 v=71
11520 On ch=1 n=g#4 v=0
11520 On ch=1 n=g#3 v=0
11520 On ch=1 n=g#4 v=67
11520 On ch=1 n=c#4 v=67
11640 On ch=1 n=c#4 v=0
11640 On ch=1 n=g#4 v=0
11640 On ch=1 n=c#3 v=63
11760 On ch=1 n=c#3 v=0
11880 On ch=1 n=f#3 v=60
11940 On ch=1 n=f#3 v=0
11940 On ch=1 n=c#4 v=60
12000 On ch=1 n=c#4 v=0
12000 On ch=1 n=d#4 v=60
12060 On ch=1 n=d#4 v=0
12060 On ch=1 n=f4 v=61
12120 On ch=1 n=f4 v=0
12120 On ch=1 n=f#4 v=61
12180 On ch=1 n=f#4 v=0
12180 On ch=1 n=g#4 v=62
12240 On ch=1 n=g#4 v=0
12240 On ch=1 n=a#4 v=62
12480 On ch=1 n=a#4 v=0
12480 On ch=1 n=g#4 v=64
12600 On ch=1 n=g#4 v=0
12600 On ch=1 n=b4 v=65
12840 On ch=1 n=b4 v=0
12840 On ch=1 n=a#4 v=67
12960 On ch=1 n=a#4 v=0
12960 On ch=1 n=d#5 v=68
13200 On ch=1 n=d#5 v=0
13200 On ch=1 n=c#5 v=70
13320 On ch=1 n=c#5 v=0
13320 On ch=1 n=b4 v=70
13440 On ch=1 n=b4 v=0
13440 On ch=1 n=c#5 v=71
13500 On ch=1 n=c#5 v=0
13500 On ch=1 n=b4 v=72
13560 On ch=1 n=b4 v=0
13560 On ch=1 n=a#4 v=72
13680 On ch=1 n=a#4 v=0
13680 On ch=1 n=g#4 v=73
13800 On ch=1 n=g#4 v=0
13800 On ch=1 n=a#4 v=74
13860 On ch=1 n=a#4 v=0
13860 On ch=1 n=g#4 v=75
13920 On ch=1 n=g#4 v=0
13920 On ch=1 n=f#4 v=75
14040 On ch=1 n=f#4 v=0
14040 On ch=1 n=f4 v=76
14160 On ch=1 n=f4 v=0
14160 On ch=1 n=f#4 v=77
14220 On ch=1 n=f#4 v=0
14220 On ch=1 n=f4 v=77
14280 On ch=1 n=f4 v=0
14280 On ch=1 n=d#4 v=78
14400 On ch=1 n=d#4 v=0
14400 On ch=1 n=c#4 v=79
14430 On ch=1 n=c#4 v=0
14430 On ch=1 n=d#4 v=79
14460 On ch=1 n=d#4 v=0
14460 On ch=1 n=c#4 v=79
14480 On ch=1 n=c#4 v=0
14480 On ch=1 n=d#4 v=79
14500 On ch=1 n=d#4 v=0
14500 On ch=1 n=c#4 v=79
14520 On ch=1 n=c#4 v=0
14520 On ch=1 n=d#4 v=80
14540 On ch=1 n=d#4 v=0
14540 On ch=1 n=c#4 v=80
14560 On ch=1 n=c#4 v=0
14560 On ch=1 n=d#4 v=80
14580 On ch=1 n=d#4 v=0
14580 On ch=1 n=c#4 v=80
14600 On ch=1 n=c#4 v=0
14600 On ch=1 n=d#4 v=80
14620 On ch=1 n=d#4 v=0
14620 On ch=1 n=c#4 v=80
14640 On ch=1 n=c#4 v=0
14640 On ch=1 n=d#4 v=81
14670 On ch=1 n=d#4 v=0
14670 On ch=1 n=c#4 v=81
14700 On ch=1 n=c#4 v=0
14700 On ch=1 n=c4 v=81
14730 On ch=1 n=c4 v=0
14730 On ch=1 n=c#4 v=81
14760 On ch=1 n=c#4 v=0
14760 On ch=1 n=f#3 v=81
14820 On ch=1 n=f#3 v=0
14820 On ch=1 n=c#4 v=82
14880 On ch=1 n=c#4 v=0
14880 On ch=1 n=d#4 v=82
14940 On ch=1 n=d#4 v=0
14940 On ch=1 n=f4 v=83
15000 On ch=1 n=f4 v=0
15000 On ch=1 n=f#4 v=83
15060 On ch=1 n=f#4 v=0
15060 On ch=1 n=g#4 v=84
15120 On ch=1 n=g#4 v=0
15120 On ch=1 n=a#4 v=84
15360 On ch=1 n=a#4 v=0
15360 On ch=1 n=g#4 v=86
15480 On ch=1 n=g#4 v=0
15480 On ch=1 n=b4 v=87
15720 On ch=1 n=b4 v=0
15720 On ch=1 n=a#4 v=89
15840 On ch=1 n=a#4 v=0
15840 On ch=1 n=d#5 v=90
16080 On ch=1 n=d#5 v=0
16080 On ch=1 n=c#5 v=92
16200 On ch=1 n=c#5 v=0
16200 On ch=1 n=b4 v=92
16320 On ch=1 n=b4 v=0
16320 On ch=1 n=c#5 v=93
16380 On ch=1 n=c#5 v=0
16380 On ch=1 n=b4 v=94
16440 On ch=1 n=b4 v=0
16440 On ch=1 n=a#4 v=94
16560 On ch=1 n=a#4 v=0
16560 On ch=1 n=g#4 v=95
16680 On ch=1 n=g#4 v=0
16680 On ch=1 n=a#4 v=96
16740 On ch=1 n=a#4 v=0
16740 On ch=1 n=g#4 v=97
16800 On ch=1 n=g#4 v=0
16800 On ch=1 n=f#4 v=97
16920 On ch=1 n=f#4 v=0
16920 On ch=1 n=f4 v=98
16980 On ch=1 n=f4 v=0
16980 On ch=1 n=d#4 v=98
17040 On ch=1 n=d#4 v=0
17040 On ch=1 n=c#4 v=99
17100 On ch=1 n=c#4 v=0
17100 On ch=1 n=b3 v=99
17160 On ch=1 n=b3 v=0
17160 On ch=1 n=a#3 v=100
17220 On ch=1 n=a#3 v=0
17220 On ch=1 n=g#3 v=100
17280 On ch=1 n=g#3 v=0
17280 On ch=1 n=f#3 v=100
17400 On ch=1 n=f#3 v=0
17640 On ch=1 n=f#3 v=60
17700 On ch=1 n=f#3 v=0
17700 On ch=1 n=c#4 v=60
17760 On ch=1 n=c#4 v=0
17760 On ch=1 n=d#4 v=60
17820 On ch=1 n=d#4 v=0
17820 On ch=1 n=f4 v=61
17880 On ch=1 n=f4 v=0
17880 On ch=1 n=f#4 v=61
17940 On ch=1 n=f#4 v=0
17940 On ch=1 n=g#4 v=62
18000 On ch=1 n=g#4 v=0
18000 On ch=1 n=a#4 v=62
18240 On ch=1 n=a#4 v=0
18240 On ch=1 n=g#4 v=64
18360 On ch=1 n=g#4 v=0
18360 On ch=1 n=b4 v=65
18600 On ch=1 n=b4 v=0
18600 On ch=1 n=a#4 v=67
18720 On ch=1 n=a#4 v=0
18720 On ch=1 n=d#5 v=68
18960 On ch=1 n=d#5 v=0
18960 On ch=1 n=c#5 v=70
19080 On ch=1 n=c#5 v=0
19080 On ch=1 n=b4 v=70
19200 On ch=1 n=b4 v=0
19200 On ch=1 n=c#5 v=71
19260 On ch=1 n=c#5 v=0
19260 On ch=1 n=b4 v=72
19320 On ch=1 n=b4 v=0
19320 On ch=1 n=a#4 v=72
19440 On ch=1 n=a#4 v=0
19440 On ch=1 n=g#4 v=73
19560 On ch=1 n=g#4 v=0
19560 On ch=1 n=a#4 v=74
19620 On ch=1 n=a#4 v=0
19620 On ch=1 n=g#4 v=75
19680 On ch=1 n=g#4 v=0
19680 On ch=1 n=f#4 v=75
19800 On ch=1 n=f#4 v=0
19800 On ch=1 n=f4 v=76
19920 On ch=1 n=f4 v=0
19920 On ch=1 n=f#4 v=77
19980 On ch=1 n=f#4 v=0
19980 On ch=1 n=f4 v=77
20040 On ch=1 n=f4 v=0
20040 On ch=1 n=d#4 v=78
20160 On ch=1 n=d#4 v=0
20160 On ch=1 n=c#4 v=79
20190 On ch=1 n=c#4 v=0
20190 On ch=1 n=d#4 v=79
20220 On ch=1 n=d#4 v=0
20220 On ch=1 n=c#4 v=79
20240 On ch=1 n=c#4 v=0
20240 On ch=1 n=d#4 v=79
20260 On ch=1 n=d#4 v=0
20260 On ch=1 n=c#4 v=79
20280 On ch=1 n=c#4 v=0
20280 On ch=1 n=d#4 v=80
20300 On ch=1 n=d#4 v=0
20300 On ch=1 n=c#4 v=80
20320 On ch=1 n=c#4 v=0
20320 On ch=1 n=d#4 v=80
20340 On ch=1 n=d#4 v=0
20340 On ch=1 n=c#4 v=80
20360 On ch=1 n=c#4 v=0
20360 On ch=1 n=d#4 v=80
20380 On ch=1 n=d#4 v=0
20380 On ch=1 n=c#4 v=80
20400 On ch=1 n=c#4 v=0
20400 On ch=1 n=d#4 v=81
20430 On ch=1 n=d#4 v=0
20430 On ch=1 n=c#4 v=81
20460 On ch=1 n=c#4 v=0
20460 On ch=1 n=c4 v=81
20490 On ch=1 n=c4 v=0
20490 On ch=1 n=c#4 v=81
20520 On ch=1 n=c#4 v=0
20520 On ch=1 n=f#3 v=81
20580 On ch=1 n=f#3 v=0
20580 On ch=1 n=c#4 v=82
20640 On ch=1 n=c#4 v=0
20640 On ch=1 n=d#4 v=82
20700 On ch=1 n=d#4 v=0
20700 On ch=1 n=f4 v=83
20760 On ch=1 n=f4 v=0
20760 On ch=1 n=f#4 v=83
20820 On ch=1 n=f#4 v=0
20820 On ch=1 n=g#4 v=84
20880 On ch=1 n=g#4 v=0
20880 On ch=1 n=a#4 v=84
21120 On ch=1 n=a#4 v=0
21120 On ch=1 n=g#4 v=86
21240 On ch=1 n=g#4 v=0
21240 On ch=1 n=b4 v=87
21480 On ch=1 n=b4 v=0
21480 On ch=1 n=a#4 v=89
21600 On ch=1 n=a#4 v=0
21600 On ch=1 n=d#5 v=90
21840 On ch=1 n=d#5 v=0
21840 On ch=1 n=c#5 v=92
21960 On ch=1 n=c#5 v=0
21960 On ch=1 n=b4 v=92
22080 On ch=1 n=b4 v=0
22080 On ch=1 n=c#5 v=93
22140 On ch=1 n=c#5 v=0
22140 On ch=1 n=b4 v=94
22200 On ch=1 n=b4 v=0
22200 On ch=1 n=a#4 v=94
22320 On ch=1 n=a#4 v=0
22320 On ch=1 n=g#4 v=95
22440 On ch=1 n=g#4 v=0
22440 On ch=1 n=a#4 v=96
22500 On ch=1 n=a#4 v=0
22500 On ch=1 n=g#4 v=97
22560 On ch=1 n=g#4 v=0
22560 On ch=1 n=f#4 v=97
22680 On ch=1 n=f#4 v=0
22680 On ch=1 n=f4 v=98
22740 On ch=1 n=f4 v=0
22740 On ch=1 n=d#4 v=98
22800 On ch=1 n=d#4 v=0
22800 On ch=1 n=c#4 v=99
22860 On ch=1 n=c#4 v=0
22860 On ch=1 n=b3 v=99
22920 On ch=1 n=b3 v=0
22920 On ch=1 n=a#3 v=100
22980 On ch=1 n=a#3 v=0
22980 On ch=1 n=g#3 v=100
23040 On ch=1 n=g#3 v=0
23040 On ch=1 n=f#3 v=100
23160 On ch=1 n=f#3 v=0
23400 On ch=1 n=g#2 v=60
23400 On ch=1 n=g#3 v=60
23520 On ch=1 n=g#3 v=0
23520 On ch=1 n=g#2 v=0
23520 On ch=1 n=g#4 v=60
23520 On ch=1 n=g#3 v=60
23640 On ch=1 n=g#3 v=0
23640 On ch=1 n=g#4 v=0
23640 On ch=1 n=g#4 v=60
23640 On ch=1 n=g#3 v=60
23760 On ch=1 n=g#3 v=0
23760 On ch=1 n=g#4 v=0
23760 On ch=1 n=c#3 v=60
23760 On ch=1 n=c#4 v=60
23880 On ch=1 n=c#4 v=0
23880 On ch=1 n=c#3 v=0
23880 On ch=1 n=g#4 v=60
23880 On ch=1 n=c#4 v=60
24000 On ch=1 n=c#4 v=0
24000 On ch=1 n=g#4 v=0
24120 On ch=1 n=g#3 v=60
24120 On ch=1 n=g#4 v=60
24240 On ch=1 n=g#4 v=0
24240 On ch=1 n=g#3 v=0
24240 On ch=1 n=d#5 v=60
24240 On ch=1 n=g#4 v=60
24360 On ch=1 n=g#4 v=0
24360 On ch=1 n=d#5 v=0
24360 On ch=1 n=d#5 v=60
24360 On ch=1 n=g#4 v=60
24480 On ch=1 n=g#4 v=0
24480 On ch=1 n=d#5 v=0
24480 On ch=1 n=c#4 v=60
24600 On ch=1 n=c#4 v=0
24600 On ch=1 n=c#5 v=60
24600 On ch=1 n=g#4 v=60
24600 On ch=1 n=f4 v=60
24720 On ch=1 n=f4 v=0
24720 On ch=1 n=g#4 v=0
24720 On ch=1 n=c#5 v=0
24840 On ch=1 n=g#2 v=60
24840 On ch=1 n=g#3 v=60
24960 On ch=1 n=g#3 v=0
24960 On ch=1 n=g#2 v=0
24960 On ch=1 n=g#4 v=60
24960 On ch=1 n=g#3 v=60
25080 On ch=1 n=g#3 v=0
25080 On ch=1 n=g#4 v=0
25080 On ch=1 n=g#4 v=60
25080 On ch=1 n=g#3 v=60
25200 On ch=1 n=g#3 v=0
25200 On ch=1 n=g#4 v=0
25200 On ch=1 n=c#3 v=60
25200 On ch=1 n=c#4 v=60
25320 On ch=1 n=c#4 v=0
25320 On ch=1 n=c#3 v=0
25320 On ch=1 n=g#4 v=60
25320 On ch=1 n=c#4 v=60
25440 On ch=1 n=c#4 v=0
25440 On ch=1 n=g#4 v=0
25560 On ch=1 n=g#3 v=60
25560 On ch=1 n=g#4 v=60
25680 On ch=1 n=g#4 v=0
25680 On ch=1 n=g#3 v=0
25680 On ch=1 n=d#5 v=60
25680 On ch=1 n=g#4 v=60
25800 On ch=1 n=g#4 v=0
25800 On ch=1 n=d#5 v=0
25800 On ch=1 n=d#5 v=60
25800 On ch=1 n=g#4 v=60
25920 On ch=1 n=g#4 v=0
25920 On ch=1 n=d#5 v=0
25920 On ch=1 n=c#4 v=60
26040 On ch=1 n=c#4 v=0
26040 On ch=1 n=c#5 v=60
26040 On ch=1 n=g#4 v=60
26040 On ch=1 n=f4 v=60
26160 On ch=1 n=f4 v=0
26160 On ch=1 n=g#4 v=0
26160 On ch=1 n=c#5 v=0
26280 On ch=1 n=g#2 v=60
26280 On ch=1 n=g#3 v=60
26400 On ch=1 n=g#3 v=0
26400 On ch=1 n=g#2 v=0
26400 On ch=1 n=g#4 v=60
26400 On ch=1 n=g#3 v=60
26520 On ch=1 n=g#3 v=0
26520 On ch=1 n=g#4 v=0
26520 On ch=1 n=g#4 v=60
26520 On ch=1 n=g#3 v=60
26640 On ch=1 n=g#3 v=0
26640 On ch=1 n=g#4 v=0
26640 On ch=1 n=c#3 v=60
26640 On ch=1 n=c#4 v=60
26760 On ch=1 n=c#4 v=0
26760 On ch=1 n=c#3 v=0
26760 On ch=1 n=g#4 v=60
26760 On ch=1 n=c#4 v=60
26880 On ch=1 n=c#4 v=0
26880 On ch=1 n=g#4 v=0
27000 On ch=1 n=g#3 v=60
27000 On ch=1 n=g#4 v=60
27120 On ch=1 n=g#4 v=0
27120 On ch=1 n=g#3 v=0
27120 On ch=1 n=d#5 v=60
27120 On ch=1 n=g#4 v=60
27240 On ch=1 n=g#4 v=0
27240 On ch=1 n=d#5 v=0
27240 On ch=1 n=d#5 v=60
27240 On ch=1 n=g#4 v=60
27360 On ch=1 n=g#4 v=0
27360 On ch=1 n=d#5 v=0
27360 On ch=1 n=c#4 v=60
27480 On ch=1 n=c#4 v=0
27480 On ch=1 n=c#5 v=60
27480 On ch=1 n=g#4 v=60
27480 On ch=1 n=f4 v=60
27600 On ch=1 n=f4 v=0
27600 On ch=1 n=g#4 v=0
27600 On ch=1 n=c#5 v=0
27720 On ch=1 n=g#2 v=60
27720 On ch=1 n=g#3 v=60
27840 On ch=1 n=g#3 v=0
27840 On ch=1 n=g#2 v=0
27840 On ch=1 n=g#4 v=60
27840 On ch=1 n=g#3 v=60
27960 On ch=1 n=g#3 v=0
27960 On ch=1 n=g#4 v=0
27960 On ch=1 n=g#4 v=60
27960 On ch=1 n=g#3 v=60
28080 On ch=1 n=g#3 v=0
28080 On ch=1 n=g#4 v=0
28080 On ch=1 n=c#3 v=60
28080 On ch=1 n=c#4 v=60
28200 On ch=1 n=c#4 v=0
28200 On ch=1 n=c#3 v=0
28200 On ch=1 n=g#4 v=60
28200 On ch=1 n=c#4 v=60
28320 On ch=1 n=c#4 v=0
28320 On ch=1 n=g#4 v=0
28440 On ch=1 n=g#3 v=60
28440 On ch=1 n=g#4 v=60
28560 On ch=1 n=g#4 v=0
28560 On ch=1 n=g#3 v=0
28560 On ch=1 n=d#5 v=60
28560 On ch=1 n=g#4 v=60
28680 On ch=1 n=g#4 v=0
28680 On ch=1 n=d#5 v=0
28680 On ch=1 n=d#5 v=60
28680 On ch=1 n=g#4 v=60
28800 On ch=1 n=g#4 v=0
28800 On ch=1 n=d#5 v=0
28800 On ch=1 n=c#4 v=60
28920 On ch=1 n=c#4 v=0
28920 On ch=1 n=c#5 v=60
28920 On ch=1 n=g#4 v=60
28920 On ch=1 n=f4 v=60
29040 On ch=1 n=f4 v=0
29040 On ch=1 n=g#4 v=0
29040 On ch=1 n=c#5 v=0
29160 On ch=1 n=f#3 v=60
29220 On ch=1 n=f#3 v=0
29220 On ch=1 n=c#4 v=60
29280 On ch=1 n=c#4 v=0
29280 On ch=1 n=d#4 v=60
29340 On ch=1 n=d#4 v=0
29340 On ch=1 n=f4 v=61
29400 On ch=1 n=f4 v=0
29400 On ch=1 n=f#4 v=61
29460 On ch=1 n=f#4 v=0
29460 On ch=1 n=g#4 v=62
29520 On ch=1 n=g#4 v=0
29520 On ch=1 n=a#4 v=62
29760 On ch=1 n=a#4 v=0
29760 On ch=1 n=g#4 v=64
29880 On ch=1 n=g#4 v=0
29880 On ch=1 n=b4 v=65
30120 On ch=1 n=b4 v=0
30120 On ch=1 n=a#4 v=67
30240 On ch=1 n=a#4 v=0
30240 On ch=1 n=d#5 v=68
30480 On ch=1 n=d#5 v=0
30480 On ch=1 n=c#5 v=70
30600 On ch=1 n=c#5 v=0
30600 On ch=1 n=b4 v=70
30720 On ch=1 n=b4 v=0
30720 On ch=1 n=c#5 v=71
30780 On ch=1 n=c#5 v=0
30780 On ch=1 n=b4 v=72
30840 On ch=1 n=b4 v=0
30840 On ch=1 n=a#4 v=72
30960 On ch=1 n=a#4 v=0
30960 On ch=1 n=g#4 v=73
31080 On ch=1 n=g#4 v=0
31080 On ch=1 n=a#4 v=74
31140 On ch=1 n=a#4 v=0
31140 On ch=1 n=g#4 v=75
31200 On ch=1 n=g#4 v=0
31200 On ch=1 n=f#4 v=75
31320 On ch=1 n=f#4 v=0
31320 On ch=1 n=f4 v=76
31440 On ch=1 n=f4 v=0
31440 On ch=1 n=f#4 v=77
31500 On ch=1 n=f#4 v=0
31500 On ch=1 n=f4 v=77
31560 On ch=1 n=f4 v=0
31560 On ch=1 n=d#4 v=78
31680 On ch=1 n=d#4 v=0
31680 On ch=1 n=c#4 v=79
31710 On ch=1 n=c#4 v=0
31710 On ch=1 n=d#4 v=79
31740 On ch=1 n=d#4 v=0
31740 On ch=1 n=c#4 v=79
31760 On ch=1 n=c#4 v=0
31760 On ch=1 n=d#4 v=79
31780 On ch=1 n=d#4 v=0
31780 On ch=1 n=c#4 v=79
31800 On ch=1 n=c#4 v=0
31800 On ch=1 n=d#4 v=80
31820 On ch=1 n=d#4 v=0
31820 On ch=1 n=c#4 v=80
31840 On ch=1 n=c#4 v=0
31840 On ch=1 n=d#4 v=80
31860 On ch=1 n=d#4 v=0
31860 On ch=1 n=c#4 v=80
31880 On ch=1 n=c#4 v=0
31880 On ch=1 n=d#4 v=80
31900 On ch=1 n=d#4 v=0
31900 On ch=1 n=c#4 v=80
31920 On ch=1 n=c#4 v=0
31920 On ch=1 n=d#4 v=81
31950 On ch=1 n=d#4 v=0
31950 On ch=1 n=c#4 v=81
31980 On ch=1 n=c#4 v=0
31980 On ch=1 n=c4 v=81
32010 On ch=1 n=c4 v=0
32010 On ch=1 n=c#4 v=81
32040 On ch=1 n=c#4 v=0
32040 On ch=1 n=f#3 v=81
32100 On ch=1 n=f#3 v=0
32100 On ch=1 n=c#4 v=82
32160 On ch=1 n=c#4 v=0
32160 On ch=1 n=d#4 v=82
32220 On ch=1 n=d#4 v=0
32220 On ch=1 n=f4 v=83
32280 On ch=1 n=f4 v=0
32280 On ch=1 n=f#4 v=83
32340 On ch=1 n=f#4 v=0
32340 On ch=1 n=g#4 v=84
32400 On ch=1 n=g#4 v=0
32400 On ch=1 n=a#4 v=84
32640 On ch=1 n=a#4 v=0
32640 On ch=1 n=g#4 v=86
32760 On ch=1 n=g#4 v=0
32760 On ch=1 n=b4 v=87
33000 On ch=1 n=b4 v=0
33000 On ch=1 n=a#4 v=89
33120 On ch=1 n=a#4 v=0
33120 On ch=1 n=d#5 v=90
33360 On ch=1 n=d#5 v=0
33360 On ch=1 n=c#5 v=92
33480 On ch=1 n=c#5 v=0
33480 On ch=1 n=b4 v=92
33600 On ch=1 n=b4 v=0
33600 On ch=1 n=c#5 v=93
33660 On ch=1 n=c#5 v=0
33660 On ch=1 n=b4 v=94
33720 On ch=1 n=b4 v=0
33720 On ch=1 n=a#4 v=94
33840 On ch=1 n=a#4 v=0
33840 On ch=1 n=g#4 v=95
33960 On ch=1 n=g#4 v=0
33960 On ch=1 n=a#4 v=96
34020 On ch=1 n=a#4 v=0
34020 On ch=1 n=g#4 v=97
34080 On ch=1 n=g#4 v=0
34080 On ch=1 n=f#4 v=97
34200 On ch=1 n=f#4 v=0
34200 On ch=1 n=f4 v=98
34260 On ch=1 n=f4 v=0
34260 On ch=1 n=d#4 v=98
34320 On ch=1 n=d#4 v=0
34320 On ch=1 n=c#4 v=99
34380 On ch=1 n=c#4 v=0
34380 On ch=1 n=b3 v=99
34440 On ch=1 n=b3 v=0
34440 On ch=1 n=a#3 v=100
34500 On ch=1 n=a#3 v=0
34500 On ch=1 n=g#3 v=100
34560 On ch=1 n=g#3 v=0
34560 On ch=1 n=f#3 v=100
34680 On ch=1 n=f#3 v=0
34920 On ch=1 n=c#4 v=60
35040 On ch=1 n=c#4 v=0
35040 On ch=1 n=c#5 v=60
35040 On ch=1 n=g#4 v=60
35040 On ch=1 n=f4 v=60
35160 On ch=1 n=f4 v=0
35160 On ch=1 n=g#4 v=0
35160 On ch=1 n=c#5 v=0
35160 On ch=1 n=f4 v=60
35160 On ch=1 n=g#4 v=60
35160 On ch=1 n=c#5 v=60
35280 On ch=1 n=c#5 v=0
35280 On ch=1 n=g#4 v=0
35280 On ch=1 n=f4 v=0
35280 On ch=1 n=g#3 v=60
35400 On ch=1 n=g#3 v=0
35400 On ch=1 n=c5 v=60
35400 On ch=1 n=f#4 v=60
35400 On ch=1 n=d#4 v=60
35520 On ch=1 n=d#4 v=0
35520 On ch=1 n=f#4 v=0
35520 On ch=1 n=c5 v=0
35520 On ch=1 n=d#4 v=60
35520 On ch=1 n=f#4 v=60
35520 On ch=1 n=c5 v=60
35640 On ch=1 n=c5 v=0
35640 On ch=1 n=f#4 v=0
35640 On ch=1 n=d#4 v=0
35640 On ch=1 n=a#3 v=60
35760 On ch=1 n=c#5 v=60
35760 On ch=1 n=a#4 v=60
35880 On ch=1 n=a#4 v=0
35880 On ch=1 n=c#5 v=0
35880 On ch=1 n=a#3 v=0
35880 On ch=1 n=c#5 v=60
35880 On ch=1 n=a#4 v=60
35880 On ch=1 n=d#4 v=60
36000 On ch=1 n=d#4 v=0
36000 On ch=1 n=a#4 v=0
36000 On ch=1 n=c#5 v=0
36000 On ch=1 n=g#3 v=60
36120 On ch=1 n=g#3 v=0
36120 On ch=1 n=d#5 v=60
36120 On ch=1 n=g#4 v=60
36240 On ch=1 n=g#4 v=0
36240 On ch=1 n=d#5 v=0
36240 On ch=1 n=d#5 v=60
36240 On ch=1 n=g#4 v=60
36360 On ch=1 n=g#4 v=0
36360 On ch=1 n=d#5 v=0
36360 On ch=1 n=c#4 v=60
36480 On ch=1 n=c#4 v=0
36480 On ch=1 n=c#5 v=60
36480 On ch=1 n=g#4 v=60
36480 On ch=1 n=f4 v=60
36600 On ch=1 n=f4 v=0
36600 On ch=1 n=g#4 v=0
36600 On ch=1 n=c#5 v=0
36600 On ch=1 n=f4 v=60
36600 On ch=1 n=g#4 v=60
36600 On ch=1 n=c#5 v=60
36720 On ch=1 n=c#5 v=0
36720 On ch=1 n=g#4 v=0
36720 On ch=1 n=f4 v=0
36720 On ch=1 n=g#3 v=60
36840 On ch=1 n=g#3 v=0
36840 On ch=1 n=c5 v=60
36840 On ch=1 n=f#4 v=60
36840 On ch=1 n=d#4 v=60
36960 On ch=1 n=d#4 v=0
36960 On ch=1 n=f#4 v=0
36960 On ch=1 n=c5 v=0
36960 On ch=1 n=a3 v=60
37080 On ch=1 n=a3 v=0
37080 On ch=1 n=a#3 v=60
37200 On ch=1 n=a#3 v=0
37200 On ch=1 n=d#5 v=60
37200 On ch=1 n=a#4 v=60
37200 On ch=1 n=f#4 v=60
37320 On ch=1 n=f#4 v=0
37320 On ch=1 n=a#4 v=0
37320 On ch=1 n=d#5 v=0
37320 On ch=1 n=f#5 v=60
37320 On ch=1 n=d#5 v=60
37320 On ch=1 n=g#4 v=60
37440 On ch=1 n=g#4 v=0
37440 On ch=1 n=d#5 v=0
37440 On ch=1 n=f#5 v=0
37440 On ch=1 n=f5 v=60
37440 On ch=1 n=c#5 v=60
37560 On ch=1 n=c#5 v=0
37560 On ch=1 n=f5 v=0
37800 On ch=1 n=c#4 v=60
37920 On ch=1 n=c#4 v=0
37920 On ch=1 n=c#5 v=60
37920 On ch=1 n=g#4 v=60
37920 On ch=1 n=f4 v=60
38040 On ch=1 n=f4 v=0
38040 On ch=1 n=g#4 v=0
38040 On ch=1 n=c#5 v=0
38040 On ch=1 n=f4 v=60
38040 On ch=1 n=g#4 v=60
38040 On ch=1 n=c#5 v=60
38160 On ch=1 n=c#5 v=0
38160 On ch=1 n=g#4 v=0
38160 On ch=1 n=f4 v=0
38160 On ch=1 n=g#3 v=60
38280 On ch=1 n=g#3 v=0
38280 On ch=1 n=c5 v=60
38280 On ch=1 n=f#4 v=60
38280 On ch=1 n=d#4 v=60
38400 On ch=1 n=d#4 v=0
38400 On ch=1 n=f#4 v=0
38400 On ch=1 n=c5 v=0
38400 On ch=1 n=d#4 v=60
38400 On ch=1 n=f#4 v=60
38400 On ch=1 n=c5 v=60
38520 On ch=1 n=c5 v=0
38520 On ch=1 n=f#4 v=0
38520 On ch=1 n=d#4 v=0
38520 On ch=1 n=a#3 v=60
38640 On ch=1 n=c#5 v=60
38640 On ch=1 n=a#4 v=60
38760 On ch=1 n=a#4 v=0
38760 On ch=1 n=c#5 v=0
38760 On ch=1 n=a#3 v=0
38760 On ch=1 n=a#4 v=60
38760 On ch=1 n=c#5 v=60
38760 On ch=1 n=d#4 v=60
38880 On ch=1 n=d#4 v=0
38880 On ch=1 n=c#5 v=0
38880 On ch=1 n=a#4 v=0
38880 On ch=1 n=g#3 v=60
39000 On ch=1 n=g#3 v=0
39000 On ch=1 n=d#5 v=60
39000 On ch=1 n=g#4 v=60
39120 On ch=1 n=g#4 v=0
39120 On ch=1 n=d#5 v=0
39120 On ch=1 n=d#5 v=60
39120 On ch=1 n=g#4 v=60
39240 On ch=1 n=g#4 v=0
39240 On ch=1 n=d#5 v=0
39240 On ch=1 n=c#4 v=60
39360 On ch=1 n=c#4 v=0
39360 On ch=1 n=c#5 v=60
39360 On ch=1 n=g#4 v=60
39360 On ch=1 n=f4 v=60
39480 On ch=1 n=f4 v=0
39480 On ch=1 n=g#4 v=0
39480 On ch=1 n=c#5 v=0
39480 On ch=1 n=f4 v=60
39480 On ch=1 n=g#4 v=60
39480 On ch=1 n=c#5 v=60
39600 On ch=1 n=c#5 v=0
39600 On ch=1 n=g#4 v=0
39600 On ch=1 n=f4 v=0
39600 On ch=1 n=g#3 v=60
39720 On ch=1 n=g#3 v=0
39720 On ch=1 n=c5 v=60
39720 On ch=1 n=f#4 v=60
39720 On ch=1 n=d#4 v=60
39840 On ch=1 n=d#4 v=0
39840 On ch=1 n=f#4 v=0
39840 On ch=1 n=c5 v=0
39840 On ch=1 n=a3 v=60
39960 On ch=1 n=a3 v=0
39960 On ch=1 n=a#3 v=60
40080 On ch=1 n=a#3 v=0
40080 On ch=1 n=d#5 v=60
40080 On ch=1 n=a#4 v=60
40080 On ch=1 n=f#4 v=60
40200 On ch=1 n=f#4 v=0
40200 On ch=1 n=a#4 v=0
40200 On ch=1 n=d#5 v=0
40200 On ch=1 n=f#5 v=60
40200 On ch=1 n=d#5 v=60
40200 On ch=1 n=g#4 v=60
40320 On ch=1 n=g#4 v=0
40320 On ch=1 n=d#5 v=0
40320 On ch=1 n=f#5 v=0
40320 On ch=1 n=f5 v=60
40320 On ch=1 n=c#5 v=60
40440 On ch=1 n=c#5 v=0
40440 On ch=1 n=f5 v=0
40680 On ch=1 n=d#3 v=80
40680 On ch=1 n=d#4 v=80
40800 On ch=1 n=d#4 v=0
40800 On ch=1 n=d#3 v=0
40800 On ch=1 n=d#5 v=80
40800 On ch=1 n=d#4 v=80
40920 On ch=1 n=d#4 v=0
40920 On ch=1 n=d#5 v=0
40920 On ch=1 n=d#5 v=80
40920 On ch=1 n=d#4 v=80
41040 On ch=1 n=d#4 v=0
41040 On ch=1 n=d#5 v=0
41040 On ch=1 n=g#3 v=80
41040 On ch=1 n=g#4 v=80
41160 On ch=1 n=g#4 v=0
41160 On ch=1 n=g#3 v=0
41160 On ch=1 n=d#5 v=80
41160 On ch=1 n=g#4 v=80
41280 On ch=1 n=g#4 v=0
41280 On ch=1 n=d#5 v=0
41400 On ch=1 n=c#3 v=80
41400 On ch=1 n=c#4 v=80
41520 On ch=1 n=c#4 v=0
41520 On ch=1 n=c#3 v=0
41520 On ch=1 n=c#5 v=80
41520 On ch=1 n=c#4 v=80
41640 On ch=1 n=c#4 v=0
41640 On ch=1 n=c#5 v=0
41640 On ch=1 n=c#5 v=80
41640 On ch=1 n=c#4 v=80
41760 On ch=1 n=c#4 v=0
41760 On ch=1 n=c#5 v=0
41760 On ch=1 n=f#3 v=80
41880 On ch=1 n=f#3 v=0
41880 On ch=1 n=c#5 v=80
41880 On ch=1 n=a#4 v=80
41880 On ch=1 n=f#4 v=80
42000 On ch=1 n=f#4 v=0
42000 On ch=1 n=a#4 v=0
42000 On ch=1 n=c#5 v=0
42120 On ch=1 n=f#3 v=80
42240 On ch=1 n=f#3 v=0
42240 On ch=1 n=c#5 v=83
42240 On ch=1 n=a4 v=83
42240 On ch=1 n=f#4 v=83
42360 On ch=1 n=f#4 v=0
42360 On ch=1 n=a4 v=0
42360 On ch=1 n=c#5 v=0
42360 On ch=1 n=f#4 v=87
42360 On ch=1 n=a4 v=87
42360 On ch=1 n=c#5 v=87
42480 On ch=1 n=c#5 v=0
42480 On ch=1 n=a4 v=0
42480 On ch=1 n=f#4 v=0
42480 On ch=1 n=c#4 v=90
42600 On ch=1 n=c#4 v=0
42600 On ch=1 n=c#5 v=89
42600 On ch=1 n=g#4 v=89
42600 On ch=1 n=f4 v=89
42720 On ch=1 n=f4 v=0
42720 On ch=1 n=g#4 v=0
42720 On ch=1 n=c#5 v=0
42720 On ch=1 n=g3 v=88
42840 On ch=1 n=g3 v=0
42840 On ch=1 n=g#3 v=87
42960 On ch=1 n=g#3 v=0
42960 On ch=1 n=g#4 v=86
43080 On ch=1 n=g#4 v=0
43080 On ch=1 n=g#3 v=84
43080 On ch=1 n=g#4 v=84
43200 On ch=1 n=g#4 v=0
43200 On ch=1 n=g#3 v=0
43200 On ch=1 n=g#4 v=83
43200 On ch=1 n=c#4 v=83
43320 On ch=1 n=c#4 v=0
43320 On ch=1 n=g#4 v=0
43320 On ch=1 n=c#3 v=82
43440 On ch=1 n=c#3 v=0
43560 On ch=1 n=d#3 v=80
43560 On ch=1 n=d#4 v=80
43680 On ch=1 n=d#4 v=0
43680 On ch=1 n=d#3 v=0
43680 On ch=1 n=d#5 v=80
43680 On ch=1 n=d#4 v=80
43800 On ch=1 n=d#4 v=0
43800 On ch=1 n=d#5 v=0
43800 On ch=1 n=d#5 v=80
43800 On ch=1 n=d#4 v=80
43920 On ch=1 n=d#4 v=0
43920 On ch=1 n=d#5 v=0
43920 On ch=1 n=g#3 v=80
43920 On ch=1 n=g#4 v=80
44040 On ch=1 n=g#4 v=0
44040 On ch=1 n=g#3 v=0
44040 On ch=1 n=d#5 v=80
44040 On ch=1 n=g#4 v=80
44160 On ch=1 n=g#4 v=0
44160 On ch=1 n=d#5 v=0
44280 On ch=1 n=c#3 v=80
44280 On ch=1 n=c#4 v=80
44400 On ch=1 n=c#4 v=0
44400 On ch=1 n=c#3 v=0
44400 On ch=1 n=c#5 v=80
44400 On ch=1 n=c#4 v=80
44520 On ch=1 n=c#4 v=0
44520 On ch=1 n=c#5 v=0
44520 On ch=1 n=c#5 v=80
44520 On ch=1 n=c#4 v=80
44640 On ch=1 n=c#4 v=0
44640 On ch=1 n=c#5 v=0
44640 On ch=1 n=f#3 v=80
44760 On ch=1 n=f#3 v=0
44760 On ch=1 n=c#5 v=80
44760 On ch=1 n=a#4 v=80
44760 On ch=1 n=f#4 v=80
44880 On ch=1 n=f#4 v=0
44880 On ch=1 n=a#4 v=0
44880 On ch=1 n=c#5 v=0
45000 On ch=1 n=f#3 v=80
45120 On ch=1 n=f#3 v=0
45120 On ch=1 n=c#5 v=83
45120 On ch=1 n=a4 v=83
45120 On ch=1 n=f#4 v=83
45240 On ch=1 n=f#4 v=0
45240 On ch=1 n=a4 v=0
45240 On ch=1 n=c#5 v=0
45240 On ch=1 n=f#4 v=87
45240 On ch=1 n=a4 v=87
45240 On ch=1 n=c#5 v=87
45360 On ch=1 n=c#5 v=0
45360 On ch=1 n=a4 v=0
45360 On ch=1 n=f#4 v=0
45360 On ch=1 n=c#4 v=90
45480 On ch=1 n=c#4 v=0
45480 On ch=1 n=c#5 v=89
45480 On ch=1 n=g#4 v=89
45480 On ch=1 n=f4 v=89
45600 On ch=1 n=f4 v=0
45600 On ch=1 n=g#4 v=0
45600 On ch=1 n=c#5 v=0
45600 On ch=1 n=g3 v=87
45720 On ch=1 n=g3 v=0
45720 On ch=1 n=g#3 v=86
45840 On ch=1 n=g#3 v=0
45840 On ch=1 n=g#4 v=84
45960 On ch=1 n=g#4 v=0
45960 On ch=1 n=g#3 v=83
45960 On ch=1 n=g#4 v=83
46080 On ch=1 n=g#4 v=0
46080 On ch=1 n=g#3 v=0
46080 On ch=1 n=g#4 v=81
46080 On ch=1 n=c#4 v=81
46200 On ch=1 n=c#4 v=0
46200 On ch=1 n=g#4 v=0
46200 On ch=1 n=c#3 v=80
46320 On ch=1 n=c#3 v=0
46320 Meta TrkEnd
TrkEnd
MTrk
0 Meta 0x21 00
0 Meta TrkName "Pedal"
0 PrCh ch=1 p=0
1080 Par ch=1 c=64 v=127
1260 Par ch=1 c=64 v=0
3960 Par ch=1 c=64 v=127
4140 Par ch=1 c=64 v=0
6120 Par ch=1 c=64 v=127
6360 Par ch=1 c=64 v=0
6480 Par ch=1 c=64 v=127
6720 Par ch=1 c=64 v=0
6840 Par ch=1 c=64 v=127
7080 Par ch=1 c=64 v=0
7200 Par ch=1 c=64 v=127
7440 Par ch=1 c=64 v=0
7560 Par ch=1 c=64 v=127
7800 Par ch=1 c=64 v=0
7920 Par ch=1 c=64 v=127
8160 Par ch=1 c=64 v=0
8640 Par ch=1 c=64 v=127
8820 Par ch=1 c=64 v=0
9000 Par ch=1 c=64 v=127
9240 Par ch=1 c=64 v=0
9360 Par ch=1 c=64 v=127
9600 Par ch=1 c=64 v=0
9720 Par ch=1 c=64 v=127
9960 Par ch=1 c=64 v=0
10080 Par ch=1 c=64 v=127
10320 Par ch=1 c=64 v=0
10440 Par ch=1 c=64 v=127
10680 Par ch=1 c=64 v=0
10800 Par ch=1 c=64 v=127
11040 Par ch=1 c=64 v=0
11520 Par ch=1 c=64 v=127
11700 Par ch=1 c=64 v=0
23400 Par ch=1 c=64 v=127
23640 Par ch=1 c=64 v=0
23760 Par ch=1 c=64 v=127
24000 Par ch=1 c=64 v=0
24840 Par ch=1 c=64 v=127
25080 Par ch=1 c=64 v=0
25200 Par ch=1 c=64 v=127
25440 Par ch=1 c=64 v=0
26280 Par ch=1 c=64 v=127
26520 Par ch=1 c=64 v=0
26640 Par ch=1 c=64 v=127
26880 Par ch=1 c=64 v=0
27720 Par ch=1 c=64 v=127
27960 Par ch=1 c=64 v=0
28080 Par ch=1 c=64 v=127
28320 Par ch=1 c=64 v=0
34560 Par ch=1 c=64 v=127
34680 Par ch=1 c=64 v=0
35640 Par ch=1 c=64 v=127
35820 Par ch=1 c=64 v=0
38520 Par ch=1 c=64 v=127
38700 Par ch=1 c=64 v=0
40680 Par ch=1 c=64 v=127
40920 Par ch=1 c=64 v=0
41040 Par ch=1 c=64 v=127
41280 Par ch=1 c=64 v=0
41400 Par ch=1 c=64 v=127
41640 Par ch=1 c=64 v=0
41760 Par ch=1 c=64 v=127
42000 Par ch=1 c=64 v=0
42120 Par ch=1 c=64 v=127
42360 Par ch=1 c=64 v=0
42480 Par ch=1 c=64 v=127
42720 Par ch=1 c=64 v=0
43200 Par ch=1 c=64 v=127
43380 Par ch=1 c=64 v=0
43560 Par ch=1 c=64 v=127
43800 Par ch=1 c=64 v=0
43920 Par ch=1 c=64 v=127
44160 Par ch=1 c=64 v=0
44280 Par ch=1 c=64 v=127
44520 Par ch=1 c=64 v=0
44640 Par ch=1 c=64 v=127
44880 Par ch=1 c=64 v=0
45000 Par ch=1 c=64 v=127
45240 Par ch=1 c=64 v=0
45360 Par ch=1 c=64 v=127
45600 Par ch=1 c=64 v=0
46080 Par ch=1 c=64 v=127
46320 Par ch=1 c=64 v=0
46320 Meta TrkEnd
TrkEnd
MTrk
0 Meta 0x21 00
0 Meta TrkName "F. Chopin Valse No. 13 in Db Op. 70-3"
0 Meta TrkEnd
TrkEnd
MTrk
0 Meta 0x21 00
0 Meta TrkName "Jeruen E. Dery jawjaw@hotmail.com"
0 Meta TrkEnd
TrkEnd
