MFile 1 6 120
MTrk
0 Meta SeqName ""
0 Meta Text "\n"
0 TimeSig 3/4 24 8
0 KeySig 2 major
0 Tempo 394737
5040 Tempo 416667
5160 Tempo 434783
5280 Tempo 454545
5400 Tempo 476190
5520 Tempo 500000
5640 Tempo 517241
6120 Tempo 394737
10800 Tempo 416667
10920 Tempo 434783
11040 Tempo 454545
11160 Tempo 476190
11280 Tempo 500000
11400 Tempo 517241
11640 Tempo 394737
14400 Tempo 434783
14520 Tempo 476190
14640 Tempo 517241
14760 Tempo 394737
22320 Tempo 416667
22440 Tempo 434783
22560 Tempo 476190
22680 Tempo 500000
22800 Tempo 517241
23160 Tempo 394737
25920 Tempo 434783
26040 Tempo 476190
26160 Tempo 517241
26280 Tempo 394737
33840 Tempo 416667
33960 Tempo 434783
34080 Tempo 454545
34200 Tempo 476190
34320 Tempo 500000
34440 Tempo 517241
34560 Tempo 394737
34920 KeySig 5 major
46440 KeySig 2 major
51120 Tempo 416667
51240 Tempo 434783
51360 Tempo 454545
51480 Tempo 476190
51600 Tempo 500000
51720 Tempo 517241
51960 Tempo 394737
54720 Tempo 434783
54840 Tempo 476190
54960 Tempo 517241
55080 Tempo 394737
62640 Tempo 416667
62760 Tempo 434783
62880 Tempo 454545
63000 Tempo 476190
63120 Tempo 500000
63240 Tempo 517241
63240 Meta TrkEnd
TrkEnd
MTrk
0 Meta 0x21 00
0 Meta TrkName "Right Treble"
0 PrCh ch=1 p=0
240 On ch=1 n=f#6 v=60
420 On ch=1 n=f#6 v=0
420 On ch=1 n=g6 v=60
480 On ch=1 n=g6 v=0
480 On ch=1 n=f#6 v=60
540 On ch=1 n=f#6 v=0
540 On ch=1 n=c#6 v=60
600 On ch=1 n=c#6 v=0
600 On ch=1 n=d6 v=60
660 On ch=1 n=d6 v=0
660 On ch=1 n=b5 v=60
720 On ch=1 n=b5 v=0
720 On ch=1 n=a#5 v=60
960 On ch=1 n=a#5 v=0
960 On ch=1 n=f#6 v=60
1140 On ch=1 n=f#6 v=0
1140 On ch=1 n=g6 v=60
1200 On ch=1 n=g6 v=0
1200 On ch=1 n=f#6 v=60
1260 On ch=1 n=f#6 v=0
1260 On ch=1 n=c#6 v=60
1320 On ch=1 n=c#6 v=0
1320 On ch=1 n=e6 v=60
1380 On ch=1 n=e6 v=0
1380 On ch=1 n=d6 v=60
1440 On ch=1 n=d6 v=0
1440 On ch=1 n=b5 v=60
1680 On ch=1 n=b5 v=0
1680 On ch=1 n=f#6 v=60
1860 On ch=1 n=f#6 v=0
1860 On ch=1 n=g6 v=67
1920 On ch=1 n=g6 v=0
1920 On ch=1 n=f6 v=74
1980 On ch=1 n=f6 v=0
1980 On ch=1 n=f#6 v=82
2040 On ch=1 n=f#6 v=0
2040 On ch=1 n=b6 v=89
2100 On ch=1 n=b6 v=0
2100 On ch=1 n=d7 v=97
2160 On ch=1 n=d7 v=0
2160 On ch=1 n=d7 v=100
2220 On ch=1 n=d7 v=0
2280 On ch=1 n=f6 v=100
2400 On ch=1 n=f6 v=0
2400 On ch=1 n=d7 v=100
2640 On ch=1 n=d7 v=0
2640 On ch=1 n=e6 v=100
2760 On ch=1 n=e6 v=0
2760 On ch=1 n=c#7 v=100
2940 On ch=1 n=c#7 v=0
2940 On ch=1 n=b6 v=93
3000 On ch=1 n=b6 v=0
3000 On ch=1 n=a#6 v=86
3060 On ch=1 n=a#6 v=0
3060 On ch=1 n=g6 v=78
3120 On ch=1 n=g6 v=0
3120 On ch=1 n=f#6 v=71
3180 On ch=1 n=f#6 v=0
3180 On ch=1 n=c#6 v=63
3240 On ch=1 n=c#6 v=0
3240 On ch=1 n=d6 v=60
3300 On ch=1 n=d6 v=0
3300 On ch=1 n=g6 v=60
3360 On ch=1 n=g6 v=0
3360 On ch=1 n=f#6 v=60
3420 On ch=1 n=f#6 v=0
3420 On ch=1 n=c#6 v=60
3480 On ch=1 n=c#6 v=0
3480 On ch=1 n=d6 v=60
3540 On ch=1 n=d6 v=0
3540 On ch=1 n=b5 v=60
3600 On ch=1 n=b5 v=0
3600 On ch=1 n=a#5 v=60
3840 On ch=1 n=a#5 v=0
3840 On ch=1 n=f#6 v=60
4020 On ch=1 n=f#6 v=0
4020 On ch=1 n=g6 v=60
4080 On ch=1 n=g6 v=0
4080 On ch=1 n=f#6 v=60
4140 On ch=1 n=f#6 v=0
4140 On ch=1 n=c#6 v=60
4200 On ch=1 n=c#6 v=0
4200 On ch=1 n=e6 v=60
4260 On ch=1 n=e6 v=0
4260 On ch=1 n=d6 v=60
4320 On ch=1 n=d6 v=0
4320 On ch=1 n=b5 v=60
4560 On ch=1 n=b5 v=0
4560 On ch=1 n=f#6 v=60
4740 On ch=1 n=f#6 v=0
4740 On ch=1 n=f#7 v=60
4800 On ch=1 n=f#7 v=0
4800 On ch=1 n=c#7 v=60
4860 On ch=1 n=c#7 v=0
4860 On ch=1 n=d7 v=60
4920 On ch=1 n=d7 v=0
4920 On ch=1 n=a#6 v=60
4980 On ch=1 n=a#6 v=0
4980 On ch=1 n=b6 v=60
5040 On ch=1 n=b6 v=0
5040 On ch=1 n=a6 v=60
5100 On ch=1 n=a6 v=0
5100 On ch=1 n=g6 v=60
5160 On ch=1 n=g6 v=0
5160 On ch=1 n=b5 v=60
5220 On ch=1 n=b5 v=0
5220 On ch=1 n=c#6 v=60
5280 On ch=1 n=c#6 v=0
5280 On ch=1 n=d6 v=60
5340 On ch=1 n=d6 v=0
5340 On ch=1 n=e6 v=60
5400 On ch=1 n=e6 v=0
5400 On ch=1 n=g6 v=60
5460 On ch=1 n=g6 v=0
5460 On ch=1 n=f#6 v=60
5520 On ch=1 n=f#6 v=0
5520 On ch=1 n=b5 v=60
5580 On ch=1 n=b5 v=0
5580 On ch=1 n=d6 v=60
5640 On ch=1 n=d6 v=0
5640 On ch=1 n=c#6 v=60
5700 On ch=1 n=c#6 v=0
5700 On ch=1 n=f#5 v=60
5760 On ch=1 n=f#5 v=0
5760 On ch=1 n=b5 v=60
5820 On ch=1 n=b5 v=0
5820 On ch=1 n=f5 v=60
5880 On ch=1 n=f5 v=0
5880 On ch=1 n=f#5 v=60
5940 On ch=1 n=f#5 v=0
5940 On ch=1 n=a#5 v=60
6000 On ch=1 n=a#5 v=0
6000 On ch=1 n=b5 v=60
6060 On ch=1 n=b5 v=0
6060 On ch=1 n=c#6 v=60
6120 On ch=1 n=c#6 v=0
6120 On ch=1 n=d6 v=60
6180 On ch=1 n=d6 v=0
6180 On ch=1 n=g6 v=60
6240 On ch=1 n=g6 v=0
6240 On ch=1 n=f#6 v=60
6300 On ch=1 n=f#6 v=0
6300 On ch=1 n=c#6 v=60
6360 On ch=1 n=c#6 v=0
6360 On ch=1 n=d6 v=60
6420 On ch=1 n=d6 v=0
6420 On ch=1 n=b5 v=60
6480 On ch=1 n=b5 v=0
6480 On ch=1 n=a#5 v=60
6720 On ch=1 n=a#5 v=0
6720 On ch=1 n=f#6 v=60
6900 On ch=1 n=f#6 v=0
6900 On ch=1 n=g6 v=60
6960 On ch=1 n=g6 v=0
6960 On ch=1 n=f#6 v=60
7020 On ch=1 n=f#6 v=0
7020 On ch=1 n=c#6 v=60
7080 On ch=1 n=c#6 v=0
7080 On ch=1 n=e6 v=60
7140 On ch=1 n=e6 v=0
7140 On ch=1 n=d6 v=60
7200 On ch=1 n=d6 v=0
7200 On ch=1 n=b5 v=60
7440 On ch=1 n=b5 v=0
7440 On ch=1 n=f#6 v=60
7620 On ch=1 n=f#6 v=0
7620 On ch=1 n=g6 v=67
7680 On ch=1 n=g6 v=0
7680 On ch=1 n=f6 v=74
7740 On ch=1 n=f6 v=0
7740 On ch=1 n=f#6 v=82
7800 On ch=1 n=f#6 v=0
7800 On ch=1 n=b6 v=89
7860 On ch=1 n=b6 v=0
7860 On ch=1 n=d7 v=97
7920 On ch=1 n=d7 v=0
7920 On ch=1 n=d7 v=100
7980 On ch=1 n=d7 v=0
8040 On ch=1 n=f6 v=100
8160 On ch=1 n=f6 v=0
8160 On ch=1 n=d7 v=100
8400 On ch=1 n=d7 v=0
8400 On ch=1 n=e6 v=100
8520 On ch=1 n=e6 v=0
8520 On ch=1 n=c#7 v=100
8700 On ch=1 n=c#7 v=0
8700 On ch=1 n=b6 v=93
8760 On ch=1 n=b6 v=0
8760 On ch=1 n=a#6 v=86
8820 On ch=1 n=a#6 v=0
8820 On ch=1 n=g6 v=78
8880 On ch=1 n=g6 v=0
8880 On ch=1 n=f#6 v=71
8940 On ch=1 n=f#6 v=0
8940 On ch=1 n=c#6 v=63
9000 On ch=1 n=c#6 v=0
9000 On ch=1 n=d6 v=60
9060 On ch=1 n=d6 v=0
9060 On ch=1 n=g6 v=60
9120 On ch=1 n=g6 v=0
9120 On ch=1 n=f#6 v=60
9180 On ch=1 n=f#6 v=0
9180 On ch=1 n=c#6 v=60
9240 On ch=1 n=c#6 v=0
9240 On ch=1 n=d6 v=60
9300 On ch=1 n=d6 v=0
9300 On ch=1 n=b5 v=60
9360 On ch=1 n=b5 v=0
9360 On ch=1 n=a#5 v=60
9600 On ch=1 n=a#5 v=0
9600 On ch=1 n=f#6 v=60
9780 On ch=1 n=f#6 v=0
9780 On ch=1 n=g6 v=60
9840 On ch=1 n=g6 v=0
9840 On ch=1 n=f#6 v=60
9900 On ch=1 n=f#6 v=0
9900 On ch=1 n=c#6 v=60
9960 On ch=1 n=c#6 v=0
9960 On ch=1 n=e6 v=60
10020 On ch=1 n=e6 v=0
10020 On ch=1 n=d6 v=60
10080 On ch=1 n=d6 v=0
10080 On ch=1 n=b5 v=60
10320 On ch=1 n=b5 v=0
10320 On ch=1 n=f#6 v=60
10440 On ch=1 n=f#6 v=0
10440 On ch=1 n=f#7 v=60
10500 On ch=1 n=f#7 v=0
10500 On ch=1 n=c#7 v=60
10560 On ch=1 n=c#7 v=0
10560 On ch=1 n=d7 v=60
10620 On ch=1 n=d7 v=0
10620 On ch=1 n=a#6 v=60
10680 On ch=1 n=a#6 v=0
10680 On ch=1 n=b6 v=60
10740 On ch=1 n=b6 v=0
10740 On ch=1 n=f#6 v=60
10800 On ch=1 n=f#6 v=0
10800 On ch=1 n=a6 v=60
10860 On ch=1 n=a6 v=0
10860 On ch=1 n=g6 v=60
10920 On ch=1 n=g6 v=0
10920 On ch=1 n=b5 v=60
10980 On ch=1 n=b5 v=0
10980 On ch=1 n=c#6 v=60
11040 On ch=1 n=c#6 v=0
11040 On ch=1 n=e6 v=60
11100 On ch=1 n=e6 v=0
11100 On ch=1 n=g6 v=60
11160 On ch=1 n=g6 v=0
11160 On ch=1 n=g6 v=60
11220 On ch=1 n=g6 v=0
11220 On ch=1 n=f#6 v=60
11280 On ch=1 n=f#6 v=0
11280 On ch=1 n=b5 v=60
11340 On ch=1 n=b5 v=0
11340 On ch=1 n=d6 v=60
11400 On ch=1 n=d6 v=0
11400 On ch=1 n=c#6 v=60
11460 On ch=1 n=c#6 v=0
11460 On ch=1 n=f#5 v=60
11520 On ch=1 n=f#5 v=0
11520 On ch=1 n=b5 v=60
11700 On ch=1 n=b5 v=0
11700 On ch=1 n=f#5 v=60
11760 On ch=1 n=f#5 v=0
11760 On ch=1 n=b5 v=60
11820 On ch=1 n=b5 v=0
11820 On ch=1 n=a#5 v=60
11880 On ch=1 n=a#5 v=0
11880 On ch=1 n=a#5 v=60
12060 On ch=1 n=a#5 v=0
12060 On ch=1 n=a5 v=60
12120 On ch=1 n=a5 v=0
12120 On ch=1 n=c#6 v=60
12180 On ch=1 n=c#6 v=0
12180 On ch=1 n=e6 v=60
12240 On ch=1 n=e6 v=0
12240 On ch=1 n=g6 v=60
12420 On ch=1 n=g6 v=0
12420 On ch=1 n=f#6 v=60
12480 On ch=1 n=f#6 v=0
12480 On ch=1 n=c#6 v=60
12540 On ch=1 n=c#6 v=0
12540 On ch=1 n=d6 v=60
12600 On ch=1 n=d6 v=0
12600 On ch=1 n=f#6 v=60
12780 On ch=1 n=f#6 v=0
12780 On ch=1 n=e6 v=60
12840 On ch=1 n=e6 v=0
12840 On ch=1 n=b5 v=60
12900 On ch=1 n=b5 v=0
12900 On ch=1 n=c#6 v=60
12960 On ch=1 n=c#6 v=0
12960 On ch=1 n=e6 v=60
13140 On ch=1 n=e6 v=0
13140 On ch=1 n=d6 v=60
13200 On ch=1 n=d6 v=0
13200 On ch=1 n=c#6 v=60
13260 On ch=1 n=c#6 v=0
13260 On ch=1 n=b5 v=60
13320 On ch=1 n=b5 v=0
13320 On ch=1 n=b5 v=60
13500 On ch=1 n=b5 v=0
13500 On ch=1 n=a5 v=60
13560 On ch=1 n=a5 v=0
13560 On ch=1 n=c#6 v=60
13620 On ch=1 n=c#6 v=0
13620 On ch=1 n=e6 v=60
13680 On ch=1 n=e6 v=0
13680 On ch=1 n=g6 v=60
13860 On ch=1 n=g6 v=0
13860 On ch=1 n=f#6 v=60
13920 On ch=1 n=f#6 v=0
13920 On ch=1 n=c#6 v=60
13980 On ch=1 n=c#6 v=0
13980 On ch=1 n=d6 v=60
14040 On ch=1 n=d6 v=0
14040 On ch=1 n=f#6 v=60
14220 On ch=1 n=f#6 v=0
14220 On ch=1 n=e6 v=60
14280 On ch=1 n=e6 v=0
14280 On ch=1 n=b5 v=60
14340 On ch=1 n=b5 v=0
14340 On ch=1 n=c#6 v=60
14400 On ch=1 n=c#6 v=0
14400 On ch=1 n=a#5 v=60
14580 On ch=1 n=a#5 v=0
14580 On ch=1 n=c#6 v=60
14640 On ch=1 n=c#6 v=0
14640 On ch=1 n=g5 v=60
14700 On ch=1 n=c#6 v=60
14760 On ch=1 n=c#6 v=0
14760 On ch=1 n=g5 v=0
14760 On ch=1 n=f#5 v=60
14940 On ch=1 n=f#5 v=0
14940 On ch=1 n=a#5 v=60
15000 On ch=1 n=a#5 v=0
15000 On ch=1 n=c#6 v=60
15060 On ch=1 n=c#6 v=0
15060 On ch=1 n=e6 v=60
15120 On ch=1 n=e6 v=0
15120 On ch=1 n=g6 v=60
15300 On ch=1 n=g6 v=0
15300 On ch=1 n=f#6 v=59
15360 On ch=1 n=f#6 v=0
15360 On ch=1 n=c#6 v=58
15420 On ch=1 n=c#6 v=0
15420 On ch=1 n=d6 v=57
15480 On ch=1 n=d6 v=0
15480 On ch=1 n=f#6 v=57
15660 On ch=1 n=f#6 v=0
15660 On ch=1 n=e6 v=55
15720 On ch=1 n=e6 v=0
15720 On ch=1 n=b5 v=54
15780 On ch=1 n=b5 v=0
15780 On ch=1 n=c#6 v=53
15840 On ch=1 n=c#6 v=0
15840 On ch=1 n=e6 v=53
16020 On ch=1 n=e6 v=0
16020 On ch=1 n=d6 v=51
16080 On ch=1 n=d6 v=0
16080 On ch=1 n=c#6 v=50
16140 On ch=1 n=c#6 v=0
16140 On ch=1 n=b5 v=49
16200 On ch=1 n=b5 v=0
16200 On ch=1 n=b5 v=49
16380 On ch=1 n=b5 v=0
16380 On ch=1 n=a5 v=47
16440 On ch=1 n=a5 v=0
16440 On ch=1 n=c#6 v=46
16500 On ch=1 n=c#6 v=0
16500 On ch=1 n=e6 v=45
16560 On ch=1 n=e6 v=0
16560 On ch=1 n=g6 v=45
16740 On ch=1 n=g6 v=0
16740 On ch=1 n=f#6 v=43
16800 On ch=1 n=f#6 v=0
16800 On ch=1 n=c#6 v=42
16860 On ch=1 n=c#6 v=0
16860 On ch=1 n=d6 v=41
16920 On ch=1 n=d6 v=0
16920 On ch=1 n=f#6 v=41
17100 On ch=1 n=f#6 v=0
17100 On ch=1 n=e6 v=100
17160 On ch=1 n=e6 v=0
17160 On ch=1 n=f#7 v=100
17220 On ch=1 n=f#7 v=0
17220 On ch=1 n=e7 v=100
17280 On ch=1 n=e7 v=0
17280 On ch=1 n=d7 v=100
17340 On ch=1 n=d7 v=0
17340 On ch=1 n=c#7 v=100
17400 On ch=1 n=c#7 v=0
17400 On ch=1 n=c7 v=100
17460 On ch=1 n=c7 v=0
17460 On ch=1 n=b6 v=100
17520 On ch=1 n=b6 v=0
17520 On ch=1 n=a#6 v=100
17580 On ch=1 n=a#6 v=0
17580 On ch=1 n=a6 v=100
17640 On ch=1 n=a6 v=0
17640 On ch=1 n=g#6 v=100
17700 On ch=1 n=g#6 v=0
17700 On ch=1 n=g6 v=100
17760 On ch=1 n=g6 v=0
17760 On ch=1 n=f#6 v=100
17820 On ch=1 n=f#6 v=0
17820 On ch=1 n=c#6 v=100
17880 On ch=1 n=c#6 v=0
17880 On ch=1 n=d6 v=100
17940 On ch=1 n=d6 v=0
17940 On ch=1 n=b5 v=100
18000 On ch=1 n=b5 v=0
18000 On ch=1 n=a#5 v=100
18120 On ch=1 n=a#5 v=0
18240 On ch=1 n=a6 v=100
18360 On ch=1 n=a6 v=0
18360 On ch=1 n=g#6 v=100
18420 On ch=1 n=g#6 v=0
18420 On ch=1 n=g6 v=100
18480 On ch=1 n=g6 v=0
18480 On ch=1 n=f#6 v=100
18540 On ch=1 n=f#6 v=0
18540 On ch=1 n=c#6 v=100
18600 On ch=1 n=c#6 v=0
18600 On ch=1 n=e6 v=100
18660 On ch=1 n=e6 v=0
18660 On ch=1 n=d6 v=100
18720 On ch=1 n=d6 v=0
18720 On ch=1 n=b5 v=100
18840 On ch=1 n=b5 v=0
18960 On ch=1 n=a6 v=100
19080 On ch=1 n=a6 v=0
19080 On ch=1 n=g#6 v=100
19140 On ch=1 n=g#6 v=0
19140 On ch=1 n=g6 v=100
19200 On ch=1 n=g6 v=0
19200 On ch=1 n=f6 v=100
19260 On ch=1 n=f6 v=0
19260 On ch=1 n=f#6 v=100
19320 On ch=1 n=f#6 v=0
19320 On ch=1 n=b6 v=100
19380 On ch=1 n=b6 v=0
19380 On ch=1 n=d7 v=100
19440 On ch=1 n=d7 v=0
19440 On ch=1 n=d7 v=100
19500 On ch=1 n=d7 v=0
19560 On ch=1 n=f6 v=100
19680 On ch=1 n=f6 v=0
19680 On ch=1 n=d7 v=100
19920 On ch=1 n=d7 v=0
19920 On ch=1 n=e6 v=100
20040 On ch=1 n=e6 v=0
20040 On ch=1 n=c#7 v=100
20160 On ch=1 n=c#7 v=0
20160 On ch=1 n=c7 v=100
20220 On ch=1 n=c7 v=0
20220 On ch=1 n=b6 v=100
20280 On ch=1 n=b6 v=0
20280 On ch=1 n=a#6 v=100
20340 On ch=1 n=a#6 v=0
20340 On ch=1 n=a6 v=100
20400 On ch=1 n=a6 v=0
20400 On ch=1 n=g#6 v=100
20460 On ch=1 n=g#6 v=0
20460 On ch=1 n=g6 v=100
20520 On ch=1 n=g6 v=0
20520 On ch=1 n=f#6 v=100
20580 On ch=1 n=f#6 v=0
20580 On ch=1 n=f6 v=100
20640 On ch=1 n=f6 v=0
20640 On ch=1 n=e6 v=100
20700 On ch=1 n=e6 v=0
20700 On ch=1 n=d6 v=100
20760 On ch=1 n=d6 v=0
20760 On ch=1 n=c#6 v=100
20820 On ch=1 n=c#6 v=0
20820 On ch=1 n=b5 v=100
20880 On ch=1 n=b5 v=0
20880 On ch=1 n=a#5 v=100
21120 On ch=1 n=a#5 v=0
21120 On ch=1 n=g6 v=100
21240 On ch=1 n=g6 v=0
21240 On ch=1 n=f#6 v=100
21300 On ch=1 n=f#6 v=0
21300 On ch=1 n=g6 v=100
21360 On ch=1 n=g6 v=0
21360 On ch=1 n=f#6 v=100
21420 On ch=1 n=f#6 v=0
21420 On ch=1 n=c#6 v=100
21480 On ch=1 n=c#6 v=0
21480 On ch=1 n=e6 v=100
21540 On ch=1 n=e6 v=0
21540 On ch=1 n=d6 v=100
21600 On ch=1 n=d6 v=0
21600 On ch=1 n=b5 v=100
21840 On ch=1 n=b5 v=0
21840 On ch=1 n=f#6 v=100
21960 On ch=1 n=f#6 v=0
21960 On ch=1 n=f#7 v=100
22020 On ch=1 n=f#7 v=0
22020 On ch=1 n=c#7 v=100
22080 On ch=1 n=c#7 v=0
22080 On ch=1 n=d7 v=100
22140 On ch=1 n=d7 v=0
22140 On ch=1 n=a#6 v=100
22200 On ch=1 n=a#6 v=0
22200 On ch=1 n=b6 v=100
22260 On ch=1 n=b6 v=0
22260 On ch=1 n=f#6 v=100
22320 On ch=1 n=f#6 v=0
22320 On ch=1 n=a6 v=100
22380 On ch=1 n=a6 v=0
22380 On ch=1 n=g6 v=100
22440 On ch=1 n=g6 v=0
22440 On ch=1 n=b5 v=100
22500 On ch=1 n=b5 v=0
22500 On ch=1 n=c#6 v=100
22560 On ch=1 n=c#6 v=0
22560 On ch=1 n=e6 v=100
22620 On ch=1 n=e6 v=0
22620 On ch=1 n=g6 v=100
22680 On ch=1 n=g6 v=0
22680 On ch=1 n=g6 v=100
22740 On ch=1 n=g6 v=0
22740 On ch=1 n=f#6 v=97
22800 On ch=1 n=f#6 v=0
22800 On ch=1 n=b5 v=93
22860 On ch=1 n=b5 v=0
22860 On ch=1 n=d6 v=90
22920 On ch=1 n=d6 v=0
22920 On ch=1 n=c#6 v=86
22980 On ch=1 n=c#6 v=0
22980 On ch=1 n=f#5 v=83
23040 On ch=1 n=f#5 v=0
23040 On ch=1 n=b5 v=79
23220 On ch=1 n=b5 v=0
23220 On ch=1 n=f#5 v=69
23280 On ch=1 n=f#5 v=0
23280 On ch=1 n=b5 v=65
23340 On ch=1 n=b5 v=0
23340 On ch=1 n=a#5 v=62
23400 On ch=1 n=a#5 v=0
23400 On ch=1 n=a#5 v=60
23580 On ch=1 n=a#5 v=0
23580 On ch=1 n=a5 v=60
23640 On ch=1 n=a5 v=0
23640 On ch=1 n=c#6 v=60
23700 On ch=1 n=c#6 v=0
23700 On ch=1 n=e6 v=60
23760 On ch=1 n=e6 v=0
23760 On ch=1 n=g6 v=60
23940 On ch=1 n=g6 v=0
23940 On ch=1 n=f#6 v=60
24000 On ch=1 n=f#6 v=0
24000 On ch=1 n=c#6 v=60
24060 On ch=1 n=c#6 v=0
24060 On ch=1 n=d6 v=60
24120 On ch=1 n=d6 v=0
24120 On ch=1 n=f#6 v=60
24300 On ch=1 n=f#6 v=0
24300 On ch=1 n=e6 v=60
24360 On ch=1 n=e6 v=0
24360 On ch=1 n=b5 v=60
24420 On ch=1 n=b5 v=0
24420 On ch=1 n=c#6 v=60
24480 On ch=1 n=c#6 v=0
24480 On ch=1 n=e6 v=60
24660 On ch=1 n=e6 v=0
24660 On ch=1 n=d6 v=60
24720 On ch=1 n=d6 v=0
24720 On ch=1 n=c#6 v=60
24780 On ch=1 n=c#6 v=0
24780 On ch=1 n=b5 v=60
24840 On ch=1 n=b5 v=0
24840 On ch=1 n=b5 v=60
25020 On ch=1 n=b5 v=0
25020 On ch=1 n=a5 v=60
25080 On ch=1 n=a5 v=0
25080 On ch=1 n=c#6 v=60
25140 On ch=1 n=c#6 v=0
25140 On ch=1 n=e6 v=60
25200 On ch=1 n=e6 v=0
25200 On ch=1 n=g6 v=60
25380 On ch=1 n=g6 v=0
25380 On ch=1 n=f#6 v=60
25440 On ch=1 n=f#6 v=0
25440 On ch=1 n=c#6 v=60
25500 On ch=1 n=c#6 v=0
25500 On ch=1 n=d6 v=60
25560 On ch=1 n=d6 v=0
25560 On ch=1 n=f#6 v=60
25740 On ch=1 n=f#6 v=0
25740 On ch=1 n=e6 v=60
25800 On ch=1 n=e6 v=0
25800 On ch=1 n=b5 v=60
25860 On ch=1 n=b5 v=0
25860 On ch=1 n=c#6 v=60
25920 On ch=1 n=c#6 v=0
25920 On ch=1 n=a#5 v=60
26100 On ch=1 n=a#5 v=0
26100 On ch=1 n=c#6 v=60
26160 On ch=1 n=c#6 v=0
26160 On ch=1 n=g5 v=60
26220 On ch=1 n=c#6 v=60
26280 On ch=1 n=c#6 v=0
26280 On ch=1 n=g5 v=0
26280 On ch=1 n=f#5 v=60
26460 On ch=1 n=f#5 v=0
26460 On ch=1 n=a#5 v=60
26520 On ch=1 n=a#5 v=0
26520 On ch=1 n=c#6 v=60
26580 On ch=1 n=c#6 v=0
26580 On ch=1 n=e6 v=60
26640 On ch=1 n=e6 v=0
26640 On ch=1 n=g6 v=60
26820 On ch=1 n=g6 v=0
26820 On ch=1 n=f#6 v=59
26880 On ch=1 n=f#6 v=0
26880 On ch=1 n=c#6 v=58
26940 On ch=1 n=c#6 v=0
26940 On ch=1 n=d6 v=57
27000 On ch=1 n=d6 v=0
27000 On ch=1 n=f#6 v=57
27180 On ch=1 n=f#6 v=0
27180 On ch=1 n=e6 v=55
27240 On ch=1 n=e6 v=0
27240 On ch=1 n=b5 v=54
27300 On ch=1 n=b5 v=0
27300 On ch=1 n=c#6 v=53
27360 On ch=1 n=c#6 v=0
27360 On ch=1 n=e6 v=53
27540 On ch=1 n=e6 v=0
27540 On ch=1 n=d6 v=51
27600 On ch=1 n=d6 v=0
27600 On ch=1 n=c#6 v=50
27660 On ch=1 n=c#6 v=0
27660 On ch=1 n=b5 v=49
27720 On ch=1 n=b5 v=0
27720 On ch=1 n=b5 v=49
27900 On ch=1 n=b5 v=0
27900 On ch=1 n=a5 v=47
27960 On ch=1 n=a5 v=0
27960 On ch=1 n=c#6 v=46
28020 On ch=1 n=c#6 v=0
28020 On ch=1 n=e6 v=45
28080 On ch=1 n=e6 v=0
28080 On ch=1 n=g6 v=45
28260 On ch=1 n=g6 v=0
28260 On ch=1 n=f#6 v=43
28320 On ch=1 n=f#6 v=0
28320 On ch=1 n=c#6 v=42
28380 On ch=1 n=c#6 v=0
28380 On ch=1 n=d6 v=41
28440 On ch=1 n=d6 v=0
28440 On ch=1 n=f#6 v=41
28620 On ch=1 n=f#6 v=0
28620 On ch=1 n=e6 v=100
28680 On ch=1 n=e6 v=0
28680 On ch=1 n=f#7 v=100
28740 On ch=1 n=f#7 v=0
28740 On ch=1 n=e7 v=100
28800 On ch=1 n=e7 v=0
28800 On ch=1 n=d7 v=100
28860 On ch=1 n=d7 v=0
28860 On ch=1 n=c#7 v=100
28920 On ch=1 n=c#7 v=0
28920 On ch=1 n=c7 v=100
28980 On ch=1 n=c7 v=0
28980 On ch=1 n=b6 v=100
29040 On ch=1 n=b6 v=0
29040 On ch=1 n=a#6 v=100
29100 On ch=1 n=a#6 v=0
29100 On ch=1 n=a6 v=100
29160 On ch=1 n=a6 v=0
29160 On ch=1 n=g#6 v=100
29220 On ch=1 n=g#6 v=0
29220 On ch=1 n=g6 v=100
29280 On ch=1 n=g6 v=0
29280 On ch=1 n=f#6 v=100
29340 On ch=1 n=f#6 v=0
29340 On ch=1 n=c#6 v=100
29400 On ch=1 n=c#6 v=0
29400 On ch=1 n=d6 v=100
29460 On ch=1 n=d6 v=0
29460 On ch=1 n=b5 v=100
29520 On ch=1 n=b5 v=0
29520 On ch=1 n=a#5 v=100
29640 On ch=1 n=a#5 v=0
29760 On ch=1 n=a6 v=100
29880 On ch=1 n=a6 v=0
29880 On ch=1 n=g#6 v=100
29940 On ch=1 n=g#6 v=0
29940 On ch=1 n=g6 v=100
30000 On ch=1 n=g6 v=0
30000 On ch=1 n=f#6 v=100
30060 On ch=1 n=f#6 v=0
30060 On ch=1 n=c#6 v=100
30120 On ch=1 n=c#6 v=0
30120 On ch=1 n=e6 v=100
30180 On ch=1 n=e6 v=0
30180 On ch=1 n=d6 v=100
30240 On ch=1 n=d6 v=0
30240 On ch=1 n=b5 v=100
30360 On ch=1 n=b5 v=0
30480 On ch=1 n=a6 v=100
30600 On ch=1 n=a6 v=0
30600 On ch=1 n=g#6 v=100
30660 On ch=1 n=g#6 v=0
30660 On ch=1 n=g6 v=100
30720 On ch=1 n=g6 v=0
30720 On ch=1 n=f6 v=100
30780 On ch=1 n=f6 v=0
30780 On ch=1 n=f#6 v=100
30840 On ch=1 n=f#6 v=0
30840 On ch=1 n=b6 v=100
30900 On ch=1 n=b6 v=0
30900 On ch=1 n=d7 v=100
30960 On ch=1 n=d7 v=0
30960 On ch=1 n=d7 v=100
31020 On ch=1 n=d7 v=0
31080 On ch=1 n=f6 v=100
31200 On ch=1 n=f6 v=0
31200 On ch=1 n=d7 v=100
31440 On ch=1 n=d7 v=0
31440 On ch=1 n=e6 v=100
31560 On ch=1 n=e6 v=0
31560 On ch=1 n=c#7 v=100
31680 On ch=1 n=c#7 v=0
31680 On ch=1 n=c7 v=100
31740 On ch=1 n=c7 v=0
31740 On ch=1 n=b6 v=100
31800 On ch=1 n=b6 v=0
31800 On ch=1 n=a#6 v=100
31860 On ch=1 n=a#6 v=0
31860 On ch=1 n=a6 v=100
31920 On ch=1 n=a6 v=0
31920 On ch=1 n=g#6 v=100
31980 On ch=1 n=g#6 v=0
31980 On ch=1 n=g6 v=100
32040 On ch=1 n=g6 v=0
32040 On ch=1 n=f#6 v=100
32100 On ch=1 n=f#6 v=0
32100 On ch=1 n=f6 v=100
32160 On ch=1 n=f6 v=0
32160 On ch=1 n=e6 v=100
32220 On ch=1 n=e6 v=0
32220 On ch=1 n=d6 v=100
32280 On ch=1 n=d6 v=0
32280 On ch=1 n=c#6 v=100
32340 On ch=1 n=c#6 v=0
32340 On ch=1 n=b5 v=100
32400 On ch=1 n=b5 v=0
32400 On ch=1 n=a#5 v=100
32640 On ch=1 n=a#5 v=0
32640 On ch=1 n=g6 v=100
32760 On ch=1 n=g6 v=0
32760 On ch=1 n=f#6 v=100
32820 On ch=1 n=f#6 v=0
32820 On ch=1 n=g6 v=100
32880 On ch=1 n=g6 v=0
32880 On ch=1 n=f#6 v=100
32940 On ch=1 n=f#6 v=0
32940 On ch=1 n=c#6 v=100
33000 On ch=1 n=c#6 v=0
33000 On ch=1 n=e6 v=100
33060 On ch=1 n=e6 v=0
33060 On ch=1 n=d6 v=100
33120 On ch=1 n=d6 v=0
33120 On ch=1 n=b5 v=100
33360 On ch=1 n=b5 v=0
33360 On ch=1 n=f#6 v=100
33480 On ch=1 n=f#6 v=0
33480 On ch=1 n=f#7 v=100
33540 On ch=1 n=f#7 v=0
33540 On ch=1 n=c#7 v=100
33600 On ch=1 n=c#7 v=0
33600 On ch=1 n=d7 v=100
33660 On ch=1 n=d7 v=0
33660 On ch=1 n=a#6 v=100
33720 On ch=1 n=a#6 v=0
33720 On ch=1 n=b6 v=100
33780 On ch=1 n=b6 v=0
33780 On ch=1 n=f#6 v=100
33840 On ch=1 n=f#6 v=0
33840 On ch=1 n=a6 v=100
33900 On ch=1 n=a6 v=0
33900 On ch=1 n=g6 v=100
33960 On ch=1 n=g6 v=0
33960 On ch=1 n=b5 v=100
34020 On ch=1 n=b5 v=0
34020 On ch=1 n=c#6 v=100
34080 On ch=1 n=c#6 v=0
34080 On ch=1 n=e6 v=100
34140 On ch=1 n=e6 v=0
34140 On ch=1 n=g6 v=100
34200 On ch=1 n=g6 v=0
34200 On ch=1 n=g6 v=100
34260 On ch=1 n=g6 v=0
34260 On ch=1 n=f#6 v=99
34320 On ch=1 n=f#6 v=0
34320 On ch=1 n=b5 v=97
34380 On ch=1 n=b5 v=0
34380 On ch=1 n=d6 v=95
34440 On ch=1 n=d6 v=0
34440 On ch=1 n=c#6 v=93
34500 On ch=1 n=c#6 v=0
34500 On ch=1 n=f#5 v=92
34560 On ch=1 n=f#5 v=0
34560 On ch=1 n=b5 v=90
34680 On ch=1 n=b5 v=0
34800 On ch=1 n=f#5 v=83
34920 On ch=1 n=f#5 v=0
34920 On ch=1 n=d#6 v=80
34980 On ch=1 n=d#6 v=0
34980 On ch=1 n=e6 v=80
35040 On ch=1 n=e6 v=0
35040 On ch=1 n=d#6 v=80
35100 On ch=1 n=d#6 v=0
35100 On ch=1 n=c#6 v=80
35160 On ch=1 n=c#6 v=0
35160 On ch=1 n=d#6 v=80
35220 On ch=1 n=d#6 v=0
35220 On ch=1 n=e6 v=80
35280 On ch=1 n=e6 v=0
35280 On ch=1 n=g#6 v=80
35520 On ch=1 n=g#6 v=0
35520 On ch=1 n=f#6 v=80
35640 On ch=1 n=f#6 v=0
35640 On ch=1 n=d#6 v=80
35700 On ch=1 n=d#6 v=0
35700 On ch=1 n=e6 v=80
35760 On ch=1 n=e6 v=0
35760 On ch=1 n=d#6 v=80
35820 On ch=1 n=d#6 v=0
35820 On ch=1 n=c#6 v=80
35880 On ch=1 n=c#6 v=0
35880 On ch=1 n=d#6 v=80
35940 On ch=1 n=d#6 v=0
35940 On ch=1 n=e6 v=80
36000 On ch=1 n=e6 v=0
36000 On ch=1 n=g#6 v=80
36240 On ch=1 n=g#6 v=0
36240 On ch=1 n=f#6 v=80
36360 On ch=1 n=f#6 v=0
36360 On ch=1 n=f#6 v=80
36480 On ch=1 n=f#6 v=0
36480 On ch=1 n=d#7 v=80
36570 On ch=1 n=d#7 v=0
36570 On ch=1 n=d#7 v=80
36600 On ch=1 n=d#7 v=0
36600 On ch=1 n=d#7 v=80
36720 On ch=1 n=d#7 v=0
36720 On ch=1 n=c#7 v=80
36840 On ch=1 n=c#7 v=0
36840 On ch=1 n=e6 v=80
36930 On ch=1 n=e6 v=0
36930 On ch=1 n=e6 v=80
36960 On ch=1 n=e6 v=0
36960 On ch=1 n=e6 v=80
37080 On ch=1 n=e6 v=0
37080 On ch=1 n=d#6 v=80
37200 On ch=1 n=d#6 v=0
37200 On ch=1 n=b6 v=80
37290 On ch=1 n=b6 v=0
37290 On ch=1 n=b6 v=80
37320 On ch=1 n=b6 v=0
37320 On ch=1 n=b6 v=80
37440 On ch=1 n=b6 v=0
37440 On ch=1 n=a#6 v=80
37560 On ch=1 n=a#6 v=0
37560 On ch=1 n=c#6 v=80
37650 On ch=1 n=c#6 v=0
37650 On ch=1 n=c#6 v=80
37680 On ch=1 n=c#6 v=0
37680 On ch=1 n=e6 v=80
37800 On ch=1 n=e6 v=0
37800 On ch=1 n=d#6 v=80
37860 On ch=1 n=d#6 v=0
37860 On ch=1 n=e6 v=80
37920 On ch=1 n=e6 v=0
37920 On ch=1 n=d#6 v=80
37980 On ch=1 n=d#6 v=0
37980 On ch=1 n=c#6 v=80
38040 On ch=1 n=c#6 v=0
38040 On ch=1 n=d#6 v=80
38100 On ch=1 n=d#6 v=0
38100 On ch=1 n=e6 v=80
38160 On ch=1 n=e6 v=0
38160 On ch=1 n=g#6 v=80
38400 On ch=1 n=g#6 v=0
38400 On ch=1 n=f#6 v=80
38520 On ch=1 n=f#6 v=0
38520 On ch=1 n=d#6 v=80
38580 On ch=1 n=d#6 v=0
38580 On ch=1 n=e6 v=80
38640 On ch=1 n=e6 v=0
38640 On ch=1 n=d#6 v=80
38700 On ch=1 n=d#6 v=0
38700 On ch=1 n=c#6 v=80
38760 On ch=1 n=c#6 v=0
38760 On ch=1 n=d#6 v=80
38820 On ch=1 n=d#6 v=0
38820 On ch=1 n=e6 v=80
38880 On ch=1 n=e6 v=0
38880 On ch=1 n=g#6 v=80
39120 On ch=1 n=g#6 v=0
39120 On ch=1 n=f#6 v=80
39240 On ch=1 n=f#6 v=0
39240 On ch=1 n=d#6 v=80
39360 On ch=1 n=d#6 v=0
39360 On ch=1 n=b6 v=80
39450 On ch=1 n=b6 v=0
39450 On ch=1 n=b6 v=80
39480 On ch=1 n=b6 v=0
39480 On ch=1 n=b6 v=80
39600 On ch=1 n=b6 v=0
39600 On ch=1 n=a#6 v=80
39720 On ch=1 n=a#6 v=0
39720 On ch=1 n=c#6 v=80
39810 On ch=1 n=c#6 v=0
39810 On ch=1 n=c#6 v=80
39840 On ch=1 n=c#6 v=0
39840 On ch=1 n=c#6 v=80
39960 On ch=1 n=c#6 v=0
39960 On ch=1 n=b5 v=80
40080 On ch=1 n=b5 v=0
40080 On ch=1 n=g#6 v=80
40170 On ch=1 n=g#6 v=0
40170 On ch=1 n=g#6 v=80
40200 On ch=1 n=g#6 v=0
40200 On ch=1 n=g#6 v=80
40320 On ch=1 n=g#6 v=0
40320 On ch=1 n=f#6 v=80
40440 On ch=1 n=f#6 v=0
40440 On ch=1 n=a#5 v=80
40530 On ch=1 n=a#5 v=0
40530 On ch=1 n=a#5 v=80
40560 On ch=1 n=a#5 v=0
40560 On ch=1 n=e6 v=80
40680 On ch=1 n=e6 v=0
40680 On ch=1 n=b5 v=80
40680 On ch=1 n=d#6 v=80
40740 On ch=1 n=d#6 v=0
40740 On ch=1 n=b5 v=0
40740 On ch=1 n=c#6 v=80
40740 On ch=1 n=e6 v=80
40800 On ch=1 n=e6 v=0
40800 On ch=1 n=c#6 v=0
40800 On ch=1 n=b5 v=80
40800 On ch=1 n=d#6 v=80
40860 On ch=1 n=d#6 v=0
40860 On ch=1 n=b5 v=0
40860 On ch=1 n=f#5 v=80
40860 On ch=1 n=c#6 v=80
40920 On ch=1 n=c#6 v=0
40920 On ch=1 n=f#5 v=0
40920 On ch=1 n=b5 v=80
40920 On ch=1 n=d#6 v=80
40980 On ch=1 n=d#6 v=0
40980 On ch=1 n=b5 v=0
40980 On ch=1 n=c#6 v=80
40980 On ch=1 n=e6 v=80
41040 On ch=1 n=e6 v=0
41040 On ch=1 n=c#6 v=0
41040 On ch=1 n=a#5 v=80
41040 On ch=1 n=g#6 v=80
41280 On ch=1 n=g#6 v=0
41280 On ch=1 n=a#5 v=0
41280 On ch=1 n=a#5 v=80
41280 On ch=1 n=f#6 v=80
41400 On ch=1 n=f#6 v=0
41400 On ch=1 n=a#5 v=0
41400 On ch=1 n=b5 v=80
41400 On ch=1 n=d#6 v=80
41460 On ch=1 n=d#6 v=0
41460 On ch=1 n=b5 v=0
41460 On ch=1 n=c#6 v=80
41460 On ch=1 n=e6 v=80
41520 On ch=1 n=e6 v=0
41520 On ch=1 n=c#6 v=0
41520 On ch=1 n=b5 v=80
41520 On ch=1 n=d#6 v=80
41580 On ch=1 n=d#6 v=0
41580 On ch=1 n=b5 v=0
41580 On ch=1 n=f#5 v=80
41580 On ch=1 n=c#6 v=80
41640 On ch=1 n=c#6 v=0
41640 On ch=1 n=f#5 v=0
41640 On ch=1 n=b5 v=80
41640 On ch=1 n=d#6 v=80
41700 On ch=1 n=d#6 v=0
41700 On ch=1 n=b5 v=0
41700 On ch=1 n=c#6 v=80
41700 On ch=1 n=e6 v=80
41760 On ch=1 n=e6 v=0
41760 On ch=1 n=c#6 v=0
41760 On ch=1 n=a#5 v=80
41760 On ch=1 n=g#6 v=80
42000 On ch=1 n=g#6 v=0
42000 On ch=1 n=a#5 v=0
42000 On ch=1 n=a#5 v=80
42000 On ch=1 n=f#6 v=80
42120 On ch=1 n=f#6 v=0
42120 On ch=1 n=a#5 v=0
42120 On ch=1 n=d#6 v=80
42120 On ch=1 n=f#6 v=80
42240 On ch=1 n=f#6 v=0
42240 On ch=1 n=d#6 v=0
42240 On ch=1 n=f#6 v=80
42240 On ch=1 n=d#7 v=80
42330 On ch=1 n=d#7 v=0
42330 On ch=1 n=f#6 v=0
42330 On ch=1 n=f#6 v=80
42330 On ch=1 n=d#7 v=80
42360 On ch=1 n=d#7 v=0
42360 On ch=1 n=f#6 v=0
42360 On ch=1 n=f#6 v=80
42360 On ch=1 n=d#7 v=80
42480 On ch=1 n=d#7 v=0
42480 On ch=1 n=f#6 v=0
42480 On ch=1 n=e6 v=80
42480 On ch=1 n=c#7 v=80
42600 On ch=1 n=c#7 v=0
42600 On ch=1 n=e6 v=0
42600 On ch=1 n=c#6 v=80
42600 On ch=1 n=e6 v=80
42690 On ch=1 n=e6 v=0
42690 On ch=1 n=c#6 v=0
42690 On ch=1 n=c#6 v=80
42690 On ch=1 n=e6 v=80
42720 On ch=1 n=e6 v=0
42720 On ch=1 n=c#6 v=0
42720 On ch=1 n=c#6 v=80
42720 On ch=1 n=e6 v=80
42840 On ch=1 n=e6 v=0
42840 On ch=1 n=c#6 v=0
42840 On ch=1 n=b5 v=80
42840 On ch=1 n=d#6 v=80
42960 On ch=1 n=d#6 v=0
42960 On ch=1 n=b5 v=0
42960 On ch=1 n=d#6 v=80
42960 On ch=1 n=b6 v=80
43050 On ch=1 n=b6 v=0
43050 On ch=1 n=d#6 v=0
43050 On ch=1 n=d#6 v=80
43050 On ch=1 n=b6 v=80
43080 On ch=1 n=b6 v=0
43080 On ch=1 n=d#6 v=0
43080 On ch=1 n=d#6 v=80
43080 On ch=1 n=b6 v=80
43200 On ch=1 n=b6 v=0
43200 On ch=1 n=d#6 v=0
43200 On ch=1 n=c#6 v=80
43200 On ch=1 n=a#6 v=80
43320 On ch=1 n=a#6 v=0
43320 On ch=1 n=c#6 v=0
43320 On ch=1 n=a#5 v=80
43320 On ch=1 n=c#6 v=80
43410 On ch=1 n=c#6 v=0
43410 On ch=1 n=a#5 v=0
43410 On ch=1 n=a#5 v=80
43410 On ch=1 n=c#6 v=80
43440 On ch=1 n=c#6 v=0
43440 On ch=1 n=a#5 v=0
43440 On ch=1 n=c#6 v=80
43440 On ch=1 n=e6 v=80
43560 On ch=1 n=e6 v=0
43560 On ch=1 n=c#6 v=0
43560 On ch=1 n=b5 v=80
43560 On ch=1 n=d6 v=80
43620 On ch=1 n=d6 v=0
43620 On ch=1 n=b5 v=0
43620 On ch=1 n=c#6 v=80
43620 On ch=1 n=e6 v=80
43680 On ch=1 n=e6 v=0
43680 On ch=1 n=c#6 v=0
43680 On ch=1 n=b5 v=81
43680 On ch=1 n=d6 v=81
43740 On ch=1 n=d6 v=0
43740 On ch=1 n=b5 v=0
43740 On ch=1 n=f#5 v=82
43740 On ch=1 n=c#6 v=82
43800 On ch=1 n=c#6 v=0
43800 On ch=1 n=f#5 v=0
43800 On ch=1 n=b5 v=83
43800 On ch=1 n=d6 v=83
43860 On ch=1 n=d6 v=0
43860 On ch=1 n=b5 v=0
43860 On ch=1 n=c#6 v=84
43860 On ch=1 n=e6 v=84
43920 On ch=1 n=e6 v=0
43920 On ch=1 n=c#6 v=0
43920 On ch=1 n=a#5 v=85
43920 On ch=1 n=g6 v=85
44160 On ch=1 n=g6 v=0
44160 On ch=1 n=a#5 v=0
44160 On ch=1 n=a#5 v=88
44160 On ch=1 n=f#6 v=88
44280 On ch=1 n=f#6 v=0
44280 On ch=1 n=a#5 v=0
44280 On ch=1 n=b5 v=90
44280 On ch=1 n=d6 v=90
44340 On ch=1 n=d6 v=0
44340 On ch=1 n=b5 v=0
44340 On ch=1 n=c#6 v=91
44340 On ch=1 n=e6 v=91
44400 On ch=1 n=e6 v=0
44400 On ch=1 n=c#6 v=0
44400 On ch=1 n=b5 v=92
44400 On ch=1 n=d6 v=92
44460 On ch=1 n=d6 v=0
44460 On ch=1 n=b5 v=0
44460 On ch=1 n=f#5 v=93
44460 On ch=1 n=c#6 v=93
44520 On ch=1 n=c#6 v=0
44520 On ch=1 n=f#5 v=0
44520 On ch=1 n=b5 v=94
44520 On ch=1 n=d6 v=94
44580 On ch=1 n=d6 v=0
44580 On ch=1 n=b5 v=0
44580 On ch=1 n=c#6 v=94
44580 On ch=1 n=e6 v=94
44640 On ch=1 n=e6 v=0
44640 On ch=1 n=c#6 v=0
44640 On ch=1 n=a#5 v=95
44640 On ch=1 n=g6 v=95
44880 On ch=1 n=g6 v=0
44880 On ch=1 n=a#5 v=0
44880 On ch=1 n=a#5 v=99
44880 On ch=1 n=f#6 v=99
45000 On ch=1 n=f#6 v=0
45000 On ch=1 n=a#5 v=0
45000 On ch=1 n=d6 v=100
45000 On ch=1 n=f#6 v=100
45120 On ch=1 n=f#6 v=0
45120 On ch=1 n=d6 v=0
45120 On ch=1 n=f#5 v=93
45120 On ch=1 n=e6 v=93
45180 On ch=1 n=e6 v=0
45180 On ch=1 n=f#5 v=0
45210 On ch=1 n=f#5 v=88
45210 On ch=1 n=e6 v=88
45240 On ch=1 n=e6 v=0
45240 On ch=1 n=f#5 v=0
45240 On ch=1 n=b5 v=86
45240 On ch=1 n=d6 v=86
45360 On ch=1 n=d6 v=0
45360 On ch=1 n=b5 v=0
45360 On ch=1 n=b5 v=79
45360 On ch=1 n=d6 v=79
45480 On ch=1 n=d6 v=0
45480 On ch=1 n=b5 v=0
45480 On ch=1 n=f5 v=72
45480 On ch=1 n=c#6 v=72
45540 On ch=1 n=c#6 v=0
45540 On ch=1 n=f5 v=0
45570 On ch=1 n=f5 v=67
45570 On ch=1 n=c#6 v=67
45600 On ch=1 n=c#6 v=0
45600 On ch=1 n=f5 v=0
45600 On ch=1 n=f5 v=65
45600 On ch=1 n=b5 v=65
45720 On ch=1 n=b5 v=0
45720 On ch=1 n=f5 v=0
45720 On ch=1 n=f#5 v=60
45720 On ch=1 n=a#5 v=60
45840 On ch=1 n=a#5 v=0
45840 On ch=1 n=c#6 v=60
46200 On ch=1 n=c#6 v=0
46200 On ch=1 n=f#5 v=0
46200 On ch=1 n=f#5 v=60
46320 On ch=1 n=f#5 v=0
46320 On ch=1 n=f#6 v=60
46500 On ch=1 n=f#6 v=0
46500 On ch=1 n=g6 v=100
46560 On ch=1 n=g6 v=0
46560 On ch=1 n=f#6 v=100
46620 On ch=1 n=f#6 v=0
46620 On ch=1 n=c#6 v=100
46680 On ch=1 n=c#6 v=0
46680 On ch=1 n=d6 v=100
46740 On ch=1 n=d6 v=0
46740 On ch=1 n=b5 v=100
46800 On ch=1 n=b5 v=0
46800 On ch=1 n=a#5 v=100
47040 On ch=1 n=a#5 v=0
47040 On ch=1 n=f#6 v=100
47220 On ch=1 n=f#6 v=0
47220 On ch=1 n=g6 v=100
47280 On ch=1 n=g6 v=0
47280 On ch=1 n=f#6 v=100
47340 On ch=1 n=f#6 v=0
47340 On ch=1 n=c#6 v=100
47400 On ch=1 n=c#6 v=0
47400 On ch=1 n=e6 v=100
47460 On ch=1 n=e6 v=0
47460 On ch=1 n=d6 v=100
47520 On ch=1 n=d6 v=0
47520 On ch=1 n=b5 v=100
47760 On ch=1 n=b5 v=0
47760 On ch=1 n=f#6 v=100
47940 On ch=1 n=f#6 v=0
47940 On ch=1 n=g6 v=100
48000 On ch=1 n=g6 v=0
48000 On ch=1 n=f6 v=100
48060 On ch=1 n=f6 v=0
48060 On ch=1 n=f#6 v=100
48120 On ch=1 n=f#6 v=0
48120 On ch=1 n=b6 v=100
48180 On ch=1 n=b6 v=0
48180 On ch=1 n=d7 v=100
48240 On ch=1 n=d7 v=0
48240 On ch=1 n=d7 v=100
48300 On ch=1 n=d7 v=0
48360 On ch=1 n=f6 v=100
48480 On ch=1 n=f6 v=0
48480 On ch=1 n=d7 v=100
48720 On ch=1 n=d7 v=0
48720 On ch=1 n=e6 v=100
48840 On ch=1 n=e6 v=0
48840 On ch=1 n=c#7 v=100
49020 On ch=1 n=c#7 v=0
49020 On ch=1 n=b6 v=93
49080 On ch=1 n=b6 v=0
49080 On ch=1 n=a#6 v=86
49140 On ch=1 n=a#6 v=0
49140 On ch=1 n=g6 v=78
49200 On ch=1 n=g6 v=0
49200 On ch=1 n=f#6 v=71
49260 On ch=1 n=f#6 v=0
49260 On ch=1 n=c#6 v=63
49320 On ch=1 n=c#6 v=0
49320 On ch=1 n=d6 v=60
49380 On ch=1 n=d6 v=0
49380 On ch=1 n=g6 v=60
49440 On ch=1 n=g6 v=0
49440 On ch=1 n=f#6 v=60
49500 On ch=1 n=f#6 v=0
49500 On ch=1 n=c#6 v=60
49560 On ch=1 n=c#6 v=0
49560 On ch=1 n=d6 v=60
49620 On ch=1 n=d6 v=0
49620 On ch=1 n=b5 v=60
49680 On ch=1 n=b5 v=0
49680 On ch=1 n=a#5 v=60
49920 On ch=1 n=a#5 v=0
49920 On ch=1 n=f#6 v=60
50100 On ch=1 n=f#6 v=0
50100 On ch=1 n=g6 v=60
50160 On ch=1 n=g6 v=0
50160 On ch=1 n=f#6 v=60
50220 On ch=1 n=f#6 v=0
50220 On ch=1 n=c#6 v=60
50280 On ch=1 n=c#6 v=0
50280 On ch=1 n=e6 v=60
50340 On ch=1 n=e6 v=0
50340 On ch=1 n=d6 v=60
50400 On ch=1 n=d6 v=0
50400 On ch=1 n=b5 v=60
50640 On ch=1 n=b5 v=0
50640 On ch=1 n=f#6 v=60
50820 On ch=1 n=f#6 v=0
50820 On ch=1 n=f#7 v=60
50880 On ch=1 n=f#7 v=0
50880 On ch=1 n=c#7 v=60
50940 On ch=1 n=c#7 v=0
50940 On ch=1 n=d7 v=60
51000 On ch=1 n=d7 v=0
51000 On ch=1 n=a#6 v=60
51060 On ch=1 n=a#6 v=0
51060 On ch=1 n=b6 v=60
51120 On ch=1 n=b6 v=0
51120 On ch=1 n=a6 v=60
51180 On ch=1 n=a6 v=0
51180 On ch=1 n=g6 v=60
51240 On ch=1 n=g6 v=0
51240 On ch=1 n=b5 v=60
51300 On ch=1 n=b5 v=0
51300 On ch=1 n=c#6 v=60
51360 On ch=1 n=c#6 v=0
51360 On ch=1 n=d6 v=60
51420 On ch=1 n=d6 v=0
51420 On ch=1 n=e6 v=60
51480 On ch=1 n=e6 v=0
51480 On ch=1 n=g6 v=60
51540 On ch=1 n=g6 v=0
51540 On ch=1 n=f#6 v=60
51600 On ch=1 n=f#6 v=0
51600 On ch=1 n=b5 v=60
51660 On ch=1 n=b5 v=0
51660 On ch=1 n=d6 v=60
51720 On ch=1 n=d6 v=0
51720 On ch=1 n=c#6 v=60
51780 On ch=1 n=c#6 v=0
51780 On ch=1 n=f#5 v=60
51840 On ch=1 n=f#5 v=0
51840 On ch=1 n=b5 v=60
52020 On ch=1 n=b5 v=0
52020 On ch=1 n=f#5 v=60
52080 On ch=1 n=f#5 v=0
52080 On ch=1 n=b5 v=60
52140 On ch=1 n=b5 v=0
52140 On ch=1 n=a#5 v=60
52200 On ch=1 n=a#5 v=0
52200 On ch=1 n=a#5 v=60
52380 On ch=1 n=a#5 v=0
52380 On ch=1 n=a5 v=60
52440 On ch=1 n=a5 v=0
52440 On ch=1 n=c#6 v=60
52500 On ch=1 n=c#6 v=0
52500 On ch=1 n=e6 v=60
52560 On ch=1 n=e6 v=0
52560 On ch=1 n=g6 v=60
52740 On ch=1 n=g6 v=0
52740 On ch=1 n=f#6 v=60
52800 On ch=1 n=f#6 v=0
52800 On ch=1 n=c#6 v=60
52860 On ch=1 n=c#6 v=0
52860 On ch=1 n=d6 v=60
52920 On ch=1 n=d6 v=0
52920 On ch=1 n=f#6 v=60
53100 On ch=1 n=f#6 v=0
53100 On ch=1 n=e6 v=60
53160 On ch=1 n=e6 v=0
53160 On ch=1 n=b5 v=60
53220 On ch=1 n=b5 v=0
53220 On ch=1 n=c#6 v=60
53280 On ch=1 n=c#6 v=0
53280 On ch=1 n=e6 v=60
53460 On ch=1 n=e6 v=0
53460 On ch=1 n=d6 v=60
53520 On ch=1 n=d6 v=0
53520 On ch=1 n=c#6 v=60
53580 On ch=1 n=c#6 v=0
53580 On ch=1 n=b5 v=60
53640 On ch=1 n=b5 v=0
53640 On ch=1 n=b5 v=60
53820 On ch=1 n=b5 v=0
53820 On ch=1 n=a5 v=60
53880 On ch=1 n=a5 v=0
53880 On ch=1 n=c#6 v=60
53940 On ch=1 n=c#6 v=0
53940 On ch=1 n=e6 v=60
54000 On ch=1 n=e6 v=0
54000 On ch=1 n=g6 v=60
54180 On ch=1 n=g6 v=0
54180 On ch=1 n=f#6 v=60
54240 On ch=1 n=f#6 v=0
54240 On ch=1 n=c#6 v=60
54300 On ch=1 n=c#6 v=0
54300 On ch=1 n=d6 v=60
54360 On ch=1 n=d6 v=0
54360 On ch=1 n=f#6 v=60
54540 On ch=1 n=f#6 v=0
54540 On ch=1 n=e6 v=60
54600 On ch=1 n=e6 v=0
54600 On ch=1 n=b5 v=60
54660 On ch=1 n=b5 v=0
54660 On ch=1 n=c#6 v=60
54720 On ch=1 n=c#6 v=0
54720 On ch=1 n=a#5 v=60
54900 On ch=1 n=a#5 v=0
54900 On ch=1 n=c#6 v=60
54960 On ch=1 n=c#6 v=0
54960 On ch=1 n=g5 v=60
55020 On ch=1 n=c#6 v=60
55080 On ch=1 n=c#6 v=0
55080 On ch=1 n=g5 v=0
55080 On ch=1 n=f#5 v=60
55260 On ch=1 n=f#5 v=0
55260 On ch=1 n=a#5 v=60
55320 On ch=1 n=a#5 v=0
55320 On ch=1 n=c#6 v=60
55380 On ch=1 n=c#6 v=0
55380 On ch=1 n=e6 v=60
55440 On ch=1 n=e6 v=0
55440 On ch=1 n=g6 v=60
55620 On ch=1 n=g6 v=0
55620 On ch=1 n=f#6 v=59
55680 On ch=1 n=f#6 v=0
55680 On ch=1 n=c#6 v=58
55740 On ch=1 n=c#6 v=0
55740 On ch=1 n=d6 v=57
55800 On ch=1 n=d6 v=0
55800 On ch=1 n=f#6 v=57
55980 On ch=1 n=f#6 v=0
55980 On ch=1 n=e6 v=55
56040 On ch=1 n=e6 v=0
56040 On ch=1 n=b5 v=54
56100 On ch=1 n=b5 v=0
56100 On ch=1 n=c#6 v=53
56160 On ch=1 n=c#6 v=0
56160 On ch=1 n=e6 v=53
56340 On ch=1 n=e6 v=0
56340 On ch=1 n=d6 v=51
56400 On ch=1 n=d6 v=0
56400 On ch=1 n=c#6 v=50
56460 On ch=1 n=c#6 v=0
56460 On ch=1 n=b5 v=49
56520 On ch=1 n=b5 v=0
56520 On ch=1 n=b5 v=49
56700 On ch=1 n=b5 v=0
56700 On ch=1 n=a5 v=47
56760 On ch=1 n=a5 v=0
56760 On ch=1 n=c#6 v=46
56820 On ch=1 n=c#6 v=0
56820 On ch=1 n=e6 v=45
56880 On ch=1 n=e6 v=0
56880 On ch=1 n=g6 v=45
57060 On ch=1 n=g6 v=0
57060 On ch=1 n=f#6 v=43
57120 On ch=1 n=f#6 v=0
57120 On ch=1 n=c#6 v=42
57180 On ch=1 n=c#6 v=0
57180 On ch=1 n=d6 v=41
57240 On ch=1 n=d6 v=0
57240 On ch=1 n=f#6 v=41
57420 On ch=1 n=f#6 v=0
57420 On ch=1 n=e6 v=100
57480 On ch=1 n=e6 v=0
57480 On ch=1 n=f#7 v=100
57540 On ch=1 n=f#7 v=0
57540 On ch=1 n=e7 v=100
57600 On ch=1 n=e7 v=0
57600 On ch=1 n=d7 v=100
57660 On ch=1 n=d7 v=0
57660 On ch=1 n=c#7 v=100
57720 On ch=1 n=c#7 v=0
57720 On ch=1 n=c7 v=100
57780 On ch=1 n=c7 v=0
57780 On ch=1 n=b6 v=100
57840 On ch=1 n=b6 v=0
57840 On ch=1 n=a#6 v=100
57900 On ch=1 n=a#6 v=0
57900 On ch=1 n=a6 v=100
57960 On ch=1 n=a6 v=0
57960 On ch=1 n=g#6 v=100
58020 On ch=1 n=g#6 v=0
58020 On ch=1 n=g6 v=100
58080 On ch=1 n=g6 v=0
58080 On ch=1 n=f#6 v=100
58140 On ch=1 n=f#6 v=0
58140 On ch=1 n=c#6 v=100
58200 On ch=1 n=c#6 v=0
58200 On ch=1 n=d6 v=100
58260 On ch=1 n=d6 v=0
58260 On ch=1 n=b5 v=100
58320 On ch=1 n=b5 v=0
58320 On ch=1 n=a#5 v=100
58440 On ch=1 n=a#5 v=0
58560 On ch=1 n=a6 v=100
58680 On ch=1 n=a6 v=0
58680 On ch=1 n=g#6 v=100
58740 On ch=1 n=g#6 v=0
58740 On ch=1 n=g6 v=100
58800 On ch=1 n=g6 v=0
58800 On ch=1 n=f#6 v=100
58860 On ch=1 n=f#6 v=0
58860 On ch=1 n=c#6 v=100
58920 On ch=1 n=c#6 v=0
58920 On ch=1 n=e6 v=100
58980 On ch=1 n=e6 v=0
58980 On ch=1 n=d6 v=100
59040 On ch=1 n=d6 v=0
59040 On ch=1 n=b5 v=100
59160 On ch=1 n=b5 v=0
59280 On ch=1 n=a6 v=100
59400 On ch=1 n=a6 v=0
59400 On ch=1 n=g#6 v=100
59460 On ch=1 n=g#6 v=0
59460 On ch=1 n=g6 v=100
59520 On ch=1 n=g6 v=0
59520 On ch=1 n=f6 v=100
59580 On ch=1 n=f6 v=0
59580 On ch=1 n=f#6 v=100
59640 On ch=1 n=f#6 v=0
59640 On ch=1 n=b6 v=100
59700 On ch=1 n=b6 v=0
59700 On ch=1 n=d7 v=100
59760 On ch=1 n=d7 v=0
59760 On ch=1 n=d7 v=100
59820 On ch=1 n=d7 v=0
59880 On ch=1 n=f6 v=100
60000 On ch=1 n=f6 v=0
60000 On ch=1 n=d7 v=100
60240 On ch=1 n=d7 v=0
60240 On ch=1 n=e6 v=100
60360 On ch=1 n=e6 v=0
60360 On ch=1 n=c#7 v=100
60480 On ch=1 n=c#7 v=0
60480 On ch=1 n=c7 v=100
60540 On ch=1 n=c7 v=0
60540 On ch=1 n=b6 v=100
60600 On ch=1 n=b6 v=0
60600 On ch=1 n=a#6 v=100
60660 On ch=1 n=a#6 v=0
60660 On ch=1 n=a6 v=100
60720 On ch=1 n=a6 v=0
60720 On ch=1 n=g#6 v=100
60780 On ch=1 n=g#6 v=0
60780 On ch=1 n=g6 v=100
60840 On ch=1 n=g6 v=0
60840 On ch=1 n=f#6 v=100
60900 On ch=1 n=f#6 v=0
60900 On ch=1 n=f6 v=100
60960 On ch=1 n=f6 v=0
60960 On ch=1 n=e6 v=100
61020 On ch=1 n=e6 v=0
61020 On ch=1 n=d6 v=100
61080 On ch=1 n=d6 v=0
61080 On ch=1 n=c#6 v=100
61140 On ch=1 n=c#6 v=0
61140 On ch=1 n=b5 v=100
61200 On ch=1 n=b5 v=0
61200 On ch=1 n=a#5 v=100
61440 On ch=1 n=a#5 v=0
61440 On ch=1 n=g6 v=100
61560 On ch=1 n=g6 v=0
61560 On ch=1 n=f#6 v=100
61620 On ch=1 n=f#6 v=0
61620 On ch=1 n=g6 v=100
61680 On ch=1 n=g6 v=0
61680 On ch=1 n=f#6 v=100
61740 On ch=1 n=f#6 v=0
61740 On ch=1 n=c#6 v=100
61800 On ch=1 n=c#6 v=0
61800 On ch=1 n=e6 v=100
61860 On ch=1 n=e6 v=0
61860 On ch=1 n=d6 v=100
61920 On ch=1 n=d6 v=0
61920 On ch=1 n=b5 v=100
62160 On ch=1 n=b5 v=0
62160 On ch=1 n=f#6 v=100
62280 On ch=1 n=f#6 v=0
62280 On ch=1 n=f#7 v=100
62340 On ch=1 n=f#7 v=0
62340 On ch=1 n=c#7 v=97
62400 On ch=1 n=c#7 v=0
62400 On ch=1 n=d7 v=94
62460 On ch=1 n=d7 v=0
62460 On ch=1 n=a#6 v=91
62520 On ch=1 n=a#6 v=0
62520 On ch=1 n=b6 v=88
62580 On ch=1 n=b6 v=0
62580 On ch=1 n=f#6 v=85
62640 On ch=1 n=f#6 v=0
62640 On ch=1 n=a6 v=82
62700 On ch=1 n=a6 v=0
62700 On ch=1 n=g6 v=78
62760 On ch=1 n=g6 v=0
62760 On ch=1 n=b5 v=75
62820 On ch=1 n=b5 v=0
62820 On ch=1 n=c#6 v=72
62880 On ch=1 n=c#6 v=0
62880 On ch=1 n=e6 v=69
62940 On ch=1 n=e6 v=0
62940 On ch=1 n=g6 v=66
63000 On ch=1 n=g6 v=0
63000 On ch=1 n=g6 v=63
63060 On ch=1 n=g6 v=0
63060 On ch=1 n=f#6 v=59
63120 On ch=1 n=f#6 v=0
63120 On ch=1 n=b5 v=56
63180 On ch=1 n=b5 v=0
63180 On ch=1 n=d6 v=53
63240 On ch=1 n=d6 v=0
63240 On ch=1 n=c#6 v=50
63300 On ch=1 n=c#6 v=0
63300 On ch=1 n=f#5 v=47
63360 On ch=1 n=f#5 v=0
63360 On ch=1 n=b5 v=44
63480 On ch=1 n=b5 v=0
63480 Meta TrkEnd
TrkEnd
MTrk
0 Meta 0x21 00
0 Meta TrkName "Left Bass"
0 PrCh ch=1 p=0
360 On ch=1 n=b3 v=60
480 On ch=1 n=b3 v=0
480 On ch=1 n=d5 v=60
480 On ch=1 n=f#4 v=60
480 On ch=1 n=b4 v=60
600 On ch=1 n=b4 v=0
600 On ch=1 n=f#4 v=0
600 On ch=1 n=d5 v=0
600 On ch=1 n=d5 v=60
600 On ch=1 n=b4 v=60
600 On ch=1 n=f#4 v=60
720 On ch=1 n=f#4 v=0
720 On ch=1 n=b4 v=0
720 On ch=1 n=d5 v=0
720 On ch=1 n=c#4 v=60
840 On ch=1 n=c#4 v=0
840 On ch=1 n=e5 v=60
840 On ch=1 n=c#5 v=60
840 On ch=1 n=f#4 v=60
960 On ch=1 n=f#4 v=0
960 On ch=1 n=c#5 v=0
960 On ch=1 n=e5 v=0
960 On ch=1 n=c#5 v=60
960 On ch=1 n=e5 v=60
960 On ch=1 n=f#4 v=60
1080 On ch=1 n=f#4 v=0
1080 On ch=1 n=e5 v=0
1080 On ch=1 n=c#5 v=0
1080 On ch=1 n=a#3 v=60
1200 On ch=1 n=a#3 v=0
1200 On ch=1 n=e5 v=60
1200 On ch=1 n=c#5 v=60
1200 On ch=1 n=f#4 v=60
1320 On ch=1 n=f#4 v=0
1320 On ch=1 n=c#5 v=0
1320 On ch=1 n=e5 v=0
1320 On ch=1 n=e5 v=60
1320 On ch=1 n=a#4 v=60
1320 On ch=1 n=f#4 v=60
1440 On ch=1 n=f#4 v=0
1440 On ch=1 n=a#4 v=0
1440 On ch=1 n=e5 v=0
1440 On ch=1 n=b3 v=60
1560 On ch=1 n=b3 v=0
1560 On ch=1 n=d5 v=60
1560 On ch=1 n=b4 v=60
1560 On ch=1 n=f#4 v=60
1680 On ch=1 n=f#4 v=0
1680 On ch=1 n=b4 v=0
1680 On ch=1 n=d5 v=0
1680 On ch=1 n=f#4 v=60
1680 On ch=1 n=b4 v=60
1680 On ch=1 n=d5 v=60
1800 On ch=1 n=d5 v=0
1800 On ch=1 n=b4 v=0
1800 On ch=1 n=f#4 v=0
1800 On ch=1 n=b3 v=60
1920 On ch=1 n=b3 v=0
1920 On ch=1 n=d5 v=74
1920 On ch=1 n=b4 v=74
1920 On ch=1 n=f#4 v=74
2040 On ch=1 n=f#4 v=0
2040 On ch=1 n=b4 v=0
2040 On ch=1 n=d5 v=0
2040 On ch=1 n=d5 v=89
2040 On ch=1 n=b4 v=89
2040 On ch=1 n=f#4 v=89
2160 On ch=1 n=f#4 v=0
2160 On ch=1 n=b4 v=0
2160 On ch=1 n=d5 v=0
2160 On ch=1 n=b3 v=100
2280 On ch=1 n=b3 v=0
2280 On ch=1 n=d5 v=100
2280 On ch=1 n=b4 v=100
2280 On ch=1 n=g#4 v=100
2400 On ch=1 n=g#4 v=0
2400 On ch=1 n=b4 v=0
2400 On ch=1 n=d5 v=0
2400 On ch=1 n=g#4 v=100
2400 On ch=1 n=b4 v=100
2400 On ch=1 n=d5 v=100
2520 On ch=1 n=d5 v=0
2520 On ch=1 n=b4 v=0
2520 On ch=1 n=g#4 v=0
2520 On ch=1 n=b3 v=100
2640 On ch=1 n=b3 v=0
2640 On ch=1 n=e5 v=100
2640 On ch=1 n=b4 v=100
2640 On ch=1 n=g4 v=100
2760 On ch=1 n=g4 v=0
2760 On ch=1 n=b4 v=0
2760 On ch=1 n=e5 v=0
2760 On ch=1 n=g4 v=100
2760 On ch=1 n=b4 v=100
2760 On ch=1 n=e5 v=100
2880 On ch=1 n=e5 v=0
2880 On ch=1 n=b4 v=0
2880 On ch=1 n=g4 v=0
2880 On ch=1 n=b3 v=100
3000 On ch=1 n=b3 v=0
3000 On ch=1 n=e5 v=86
3000 On ch=1 n=c#5 v=86
3000 On ch=1 n=f#4 v=86
3120 On ch=1 n=f#4 v=0
3120 On ch=1 n=c#5 v=0
3120 On ch=1 n=e5 v=0
3120 On ch=1 n=a#4 v=71
3120 On ch=1 n=e5 v=71
3120 On ch=1 n=f#4 v=71
3240 On ch=1 n=f#4 v=0
3240 On ch=1 n=e5 v=0
3240 On ch=1 n=a#4 v=0
3240 On ch=1 n=b3 v=60
3360 On ch=1 n=b3 v=0
3360 On ch=1 n=d5 v=60
3360 On ch=1 n=b4 v=60
3360 On ch=1 n=f#4 v=60
3480 On ch=1 n=f#4 v=0
3480 On ch=1 n=b4 v=0
3480 On ch=1 n=d5 v=0
3480 On ch=1 n=b4 v=60
3480 On ch=1 n=d5 v=60
3480 On ch=1 n=f#4 v=60
3600 On ch=1 n=f#4 v=0
3600 On ch=1 n=d5 v=0
3600 On ch=1 n=b4 v=0
3600 On ch=1 n=c#4 v=60
3720 On ch=1 n=c#4 v=0
3720 On ch=1 n=e5 v=60
3720 On ch=1 n=c#5 v=60
3720 On ch=1 n=f#4 v=60
3840 On ch=1 n=f#4 v=0
3840 On ch=1 n=c#5 v=0
3840 On ch=1 n=e5 v=0
3840 On ch=1 n=c#5 v=60
3840 On ch=1 n=e5 v=60
3840 On ch=1 n=f#4 v=60
3960 On ch=1 n=f#4 v=0
3960 On ch=1 n=e5 v=0
3960 On ch=1 n=c#5 v=0
3960 On ch=1 n=f#3 v=60
4080 On ch=1 n=f#3 v=0
4080 On ch=1 n=e5 v=60
4080 On ch=1 n=a#4 v=60
4080 On ch=1 n=f#4 v=60
4200 On ch=1 n=f#4 v=0
4200 On ch=1 n=a#4 v=0
4200 On ch=1 n=e5 v=0
4200 On ch=1 n=c#5 v=60
4200 On ch=1 n=e5 v=60
4200 On ch=1 n=f#4 v=60
4320 On ch=1 n=f#4 v=0
4320 On ch=1 n=e5 v=0
4320 On ch=1 n=c#5 v=0
4320 On ch=1 n=b3 v=60
4440 On ch=1 n=b3 v=0
4440 On ch=1 n=d5 v=60
4440 On ch=1 n=b4 v=60
4440 On ch=1 n=f#4 v=60
4560 On ch=1 n=f#4 v=0
4560 On ch=1 n=b4 v=0
4560 On ch=1 n=d5 v=0
4560 On ch=1 n=b4 v=60
4560 On ch=1 n=d5 v=60
4560 On ch=1 n=f#4 v=60
4680 On ch=1 n=f#4 v=0
4680 On ch=1 n=d5 v=0
4680 On ch=1 n=b4 v=0
4680 On ch=1 n=d4 v=60
4800 On ch=1 n=d4 v=0
4800 On ch=1 n=d5 v=60
4800 On ch=1 n=b4 v=60
4800 On ch=1 n=f#4 v=60
4920 On ch=1 n=f#4 v=0
4920 On ch=1 n=b4 v=0
4920 On ch=1 n=d5 v=0
4920 On ch=1 n=b4 v=60
4920 On ch=1 n=d5 v=60
4920 On ch=1 n=f#4 v=60
5040 On ch=1 n=f#4 v=0
5040 On ch=1 n=d5 v=0
5040 On ch=1 n=b4 v=0
5040 On ch=1 n=e4 v=60
5160 On ch=1 n=e4 v=0
5160 On ch=1 n=g5 v=60
5160 On ch=1 n=c#5 v=60
5160 On ch=1 n=b4 v=60
5280 On ch=1 n=b4 v=0
5280 On ch=1 n=c#5 v=0
5280 On ch=1 n=g5 v=0
5400 On ch=1 n=f#4 v=60
5520 On ch=1 n=d5 v=60
5520 On ch=1 n=b4 v=60
5640 On ch=1 n=b4 v=0
5640 On ch=1 n=d5 v=0
5640 On ch=1 n=e5 v=60
5640 On ch=1 n=a#4 v=60
5760 On ch=1 n=a#4 v=0
5760 On ch=1 n=e5 v=0
5760 On ch=1 n=f#4 v=0
5760 On ch=1 n=d5 v=60
5760 On ch=1 n=b4 v=60
5880 On ch=1 n=b4 v=0
5880 On ch=1 n=d5 v=0
5880 On ch=1 n=b3 v=60
6000 On ch=1 n=b3 v=0
6120 On ch=1 n=b3 v=60
6240 On ch=1 n=b3 v=0
6240 On ch=1 n=d5 v=60
6240 On ch=1 n=f#4 v=60
6240 On ch=1 n=b4 v=60
6360 On ch=1 n=b4 v=0
6360 On ch=1 n=f#4 v=0
6360 On ch=1 n=d5 v=0
6360 On ch=1 n=d5 v=60
6360 On ch=1 n=b4 v=60
6360 On ch=1 n=f#4 v=60
6480 On ch=1 n=f#4 v=0
6480 On ch=1 n=b4 v=0
6480 On ch=1 n=d5 v=0
6480 On ch=1 n=c#4 v=60
6600 On ch=1 n=c#4 v=0
6600 On ch=1 n=e5 v=60
6600 On ch=1 n=c#5 v=60
6600 On ch=1 n=f#4 v=60
6720 On ch=1 n=f#4 v=0
6720 On ch=1 n=c#5 v=0
6720 On ch=1 n=e5 v=0
6720 On ch=1 n=c#5 v=60
6720 On ch=1 n=e5 v=60
6720 On ch=1 n=f#4 v=60
6840 On ch=1 n=f#4 v=0
6840 On ch=1 n=e5 v=0
6840 On ch=1 n=c#5 v=0
6840 On ch=1 n=a#3 v=60
6960 On ch=1 n=a#3 v=0
6960 On ch=1 n=e5 v=60
6960 On ch=1 n=c#5 v=60
6960 On ch=1 n=f#4 v=60
7080 On ch=1 n=f#4 v=0
7080 On ch=1 n=c#5 v=0
7080 On ch=1 n=e5 v=0
7080 On ch=1 n=e5 v=60
7080 On ch=1 n=a#4 v=60
7080 On ch=1 n=f#4 v=60
7200 On ch=1 n=f#4 v=0
7200 On ch=1 n=a#4 v=0
7200 On ch=1 n=e5 v=0
7200 On ch=1 n=b3 v=60
7320 On ch=1 n=b3 v=0
7320 On ch=1 n=d5 v=60
7320 On ch=1 n=b4 v=60
7320 On ch=1 n=f#4 v=60
7440 On ch=1 n=f#4 v=0
7440 On ch=1 n=b4 v=0
7440 On ch=1 n=d5 v=0
7440 On ch=1 n=f#4 v=60
7440 On ch=1 n=b4 v=60
7440 On ch=1 n=d5 v=60
7560 On ch=1 n=d5 v=0
7560 On ch=1 n=b4 v=0
7560 On ch=1 n=f#4 v=0
7560 On ch=1 n=b3 v=60
7680 On ch=1 n=b3 v=0
7680 On ch=1 n=d5 v=74
7680 On ch=1 n=b4 v=74
7680 On ch=1 n=f#4 v=74
7800 On ch=1 n=f#4 v=0
7800 On ch=1 n=b4 v=0
7800 On ch=1 n=d5 v=0
7800 On ch=1 n=d5 v=89
7800 On ch=1 n=b4 v=89
7800 On ch=1 n=f#4 v=89
7920 On ch=1 n=f#4 v=0
7920 On ch=1 n=b4 v=0
7920 On ch=1 n=d5 v=0
7920 On ch=1 n=b3 v=100
8040 On ch=1 n=b3 v=0
8040 On ch=1 n=d5 v=100
8040 On ch=1 n=b4 v=100
8040 On ch=1 n=g#4 v=100
8160 On ch=1 n=g#4 v=0
8160 On ch=1 n=b4 v=0
8160 On ch=1 n=d5 v=0
8160 On ch=1 n=g#4 v=100
8160 On ch=1 n=b4 v=100
8160 On ch=1 n=d5 v=100
8280 On ch=1 n=d5 v=0
8280 On ch=1 n=b4 v=0
8280 On ch=1 n=g#4 v=0
8280 On ch=1 n=b3 v=100
8400 On ch=1 n=b3 v=0
8400 On ch=1 n=e5 v=100
8400 On ch=1 n=b4 v=100
8400 On ch=1 n=g4 v=100
8520 On ch=1 n=g4 v=0
8520 On ch=1 n=b4 v=0
8520 On ch=1 n=e5 v=0
8520 On ch=1 n=g4 v=100
8520 On ch=1 n=b4 v=100
8520 On ch=1 n=e5 v=100
8640 On ch=1 n=e5 v=0
8640 On ch=1 n=b4 v=0
8640 On ch=1 n=g4 v=0
8640 On ch=1 n=b3 v=100
8760 On ch=1 n=b3 v=0
8760 On ch=1 n=e5 v=86
8760 On ch=1 n=c#5 v=86
8760 On ch=1 n=f#4 v=86
8880 On ch=1 n=f#4 v=0
8880 On ch=1 n=c#5 v=0
8880 On ch=1 n=e5 v=0
8880 On ch=1 n=a#4 v=71
8880 On ch=1 n=e5 v=71
8880 On ch=1 n=f#4 v=71
9000 On ch=1 n=f#4 v=0
9000 On ch=1 n=e5 v=0
9000 On ch=1 n=a#4 v=0
9000 On ch=1 n=b3 v=60
9120 On ch=1 n=b3 v=0
9120 On ch=1 n=d5 v=60
9120 On ch=1 n=b4 v=60
9120 On ch=1 n=f#4 v=60
9240 On ch=1 n=f#4 v=0
9240 On ch=1 n=b4 v=0
9240 On ch=1 n=d5 v=0
9240 On ch=1 n=b4 v=60
9240 On ch=1 n=d5 v=60
9240 On ch=1 n=f#4 v=60
9360 On ch=1 n=f#4 v=0
9360 On ch=1 n=d5 v=0
9360 On ch=1 n=b4 v=0
9360 On ch=1 n=c#4 v=60
9480 On ch=1 n=c#4 v=0
9480 On ch=1 n=e5 v=60
9480 On ch=1 n=c#5 v=60
9480 On ch=1 n=f#4 v=60
9600 On ch=1 n=f#4 v=0
9600 On ch=1 n=c#5 v=0
9600 On ch=1 n=e5 v=0
9600 On ch=1 n=c#5 v=60
9600 On ch=1 n=e5 v=60
9600 On ch=1 n=f#4 v=60
9720 On ch=1 n=f#4 v=0
9720 On ch=1 n=e5 v=0
9720 On ch=1 n=c#5 v=0
9720 On ch=1 n=f#3 v=60
9840 On ch=1 n=f#3 v=0
9840 On ch=1 n=e5 v=60
9840 On ch=1 n=a#4 v=60
9840 On ch=1 n=f#4 v=60
9960 On ch=1 n=f#4 v=0
9960 On ch=1 n=a#4 v=0
9960 On ch=1 n=e5 v=0
9960 On ch=1 n=c#5 v=60
9960 On ch=1 n=e5 v=60
9960 On ch=1 n=f#4 v=60
10080 On ch=1 n=f#4 v=0
10080 On ch=1 n=e5 v=0
10080 On ch=1 n=c#5 v=0
10080 On ch=1 n=b3 v=60
10200 On ch=1 n=b3 v=0
10200 On ch=1 n=d5 v=60
10200 On ch=1 n=b4 v=60
10200 On ch=1 n=f#4 v=60
10320 On ch=1 n=f#4 v=0
10320 On ch=1 n=b4 v=0
10320 On ch=1 n=d5 v=0
10320 On ch=1 n=b4 v=60
10320 On ch=1 n=d5 v=60
10320 On ch=1 n=f#4 v=60
10440 On ch=1 n=f#4 v=0
10440 On ch=1 n=d5 v=0
10440 On ch=1 n=b4 v=0
10440 On ch=1 n=d4 v=60
10560 On ch=1 n=d4 v=0
10560 On ch=1 n=d5 v=60
10560 On ch=1 n=b4 v=60
10560 On ch=1 n=f#4 v=60
10680 On ch=1 n=f#4 v=0
10680 On ch=1 n=b4 v=0
10680 On ch=1 n=d5 v=0
10680 On ch=1 n=b4 v=60
10680 On ch=1 n=d5 v=60
10680 On ch=1 n=f#4 v=60
10800 On ch=1 n=f#4 v=0
10800 On ch=1 n=d5 v=0
10800 On ch=1 n=b4 v=0
10800 On ch=1 n=e4 v=60
10920 On ch=1 n=e4 v=0
10920 On ch=1 n=c#5 v=60
10920 On ch=1 n=g4 v=60
11040 On ch=1 n=g4 v=0
11040 On ch=1 n=c#5 v=0
11160 On ch=1 n=f#4 v=60
11280 On ch=1 n=d5 v=60
11280 On ch=1 n=b4 v=60
11400 On ch=1 n=b4 v=0
11400 On ch=1 n=d5 v=0
11400 On ch=1 n=e5 v=60
11400 On ch=1 n=a#4 v=60
11520 On ch=1 n=a#4 v=0
11520 On ch=1 n=e5 v=0
11520 On ch=1 n=f#4 v=0
11520 On ch=1 n=b3 v=60
11580 On ch=1 n=b3 v=0
11640 On ch=1 n=d5 v=60
11640 On ch=1 n=f#4 v=60
11700 On ch=1 n=f#4 v=0
11700 On ch=1 n=d5 v=0
11760 On ch=1 n=d4 v=60
11880 On ch=1 n=d4 v=0
11880 On ch=1 n=c#4 v=60
12000 On ch=1 n=c#4 v=0
12000 On ch=1 n=e5 v=60
12000 On ch=1 n=g4 v=60
12000 On ch=1 n=a4 v=60
12120 On ch=1 n=a4 v=0
12120 On ch=1 n=g4 v=0
12120 On ch=1 n=e5 v=0
12120 On ch=1 n=e5 v=60
12120 On ch=1 n=g4 v=60
12120 On ch=1 n=a4 v=60
12240 On ch=1 n=a4 v=0
12240 On ch=1 n=g4 v=0
12240 On ch=1 n=e5 v=0
12240 On ch=1 n=d4 v=60
12360 On ch=1 n=d4 v=0
12360 On ch=1 n=d5 v=60
12360 On ch=1 n=a4 v=60
12360 On ch=1 n=f#4 v=60
12480 On ch=1 n=f#4 v=0
12480 On ch=1 n=a4 v=0
12480 On ch=1 n=d5 v=0
12480 On ch=1 n=f#4 v=60
12480 On ch=1 n=a4 v=60
12480 On ch=1 n=d5 v=60
12600 On ch=1 n=d5 v=0
12600 On ch=1 n=a4 v=0
12600 On ch=1 n=f#4 v=0
12600 On ch=1 n=a3 v=60
12720 On ch=1 n=a3 v=0
12720 On ch=1 n=g5 v=60
12720 On ch=1 n=c#5 v=60
12720 On ch=1 n=a4 v=60
12840 On ch=1 n=a4 v=0
12840 On ch=1 n=c#5 v=0
12840 On ch=1 n=g5 v=0
12840 On ch=1 n=a4 v=60
12840 On ch=1 n=e5 v=60
12840 On ch=1 n=g5 v=60
12960 On ch=1 n=g5 v=0
12960 On ch=1 n=e5 v=0
12960 On ch=1 n=a4 v=0
12960 On ch=1 n=d4 v=60
13080 On ch=1 n=d4 v=0
13080 On ch=1 n=f#5 v=60
13080 On ch=1 n=d5 v=60
13080 On ch=1 n=a4 v=60
13200 On ch=1 n=a4 v=0
13200 On ch=1 n=d5 v=0
13200 On ch=1 n=f#5 v=0
13200 On ch=1 n=a4 v=60
13200 On ch=1 n=d5 v=60
13200 On ch=1 n=f#5 v=60
13320 On ch=1 n=f#5 v=0
13320 On ch=1 n=d5 v=0
13320 On ch=1 n=a4 v=0
13320 On ch=1 n=c#4 v=60
13440 On ch=1 n=c#4 v=0
13440 On ch=1 n=g5 v=60
13440 On ch=1 n=e5 v=60
13440 On ch=1 n=a4 v=60
13560 On ch=1 n=a4 v=0
13560 On ch=1 n=e5 v=0
13560 On ch=1 n=g5 v=0
13560 On ch=1 n=a4 v=60
13560 On ch=1 n=e5 v=60
13560 On ch=1 n=g5 v=60
13680 On ch=1 n=g5 v=0
13680 On ch=1 n=e5 v=0
13680 On ch=1 n=a4 v=0
13680 On ch=1 n=d4 v=60
13800 On ch=1 n=d4 v=0
13800 On ch=1 n=f#5 v=60
13800 On ch=1 n=d5 v=60
13800 On ch=1 n=a4 v=60
13920 On ch=1 n=a4 v=0
13920 On ch=1 n=d5 v=0
13920 On ch=1 n=f#5 v=0
13920 On ch=1 n=a4 v=60
13920 On ch=1 n=d5 v=60
13920 On ch=1 n=f#5 v=60
14040 On ch=1 n=f#5 v=0
14040 On ch=1 n=d5 v=0
14040 On ch=1 n=a4 v=0
14040 On ch=1 n=g3 v=60
14160 On ch=1 n=g3 v=0
14160 On ch=1 n=e5 v=60
14160 On ch=1 n=b4 v=60
14160 On ch=1 n=g4 v=60
14280 On ch=1 n=g4 v=0
14280 On ch=1 n=b4 v=0
14280 On ch=1 n=e5 v=0
14280 On ch=1 n=g4 v=60
14280 On ch=1 n=b4 v=60
14280 On ch=1 n=e5 v=60
14400 On ch=1 n=e5 v=0
14400 On ch=1 n=b4 v=0
14400 On ch=1 n=g4 v=0
14400 On ch=1 n=f#4 v=60
14400 On ch=1 n=f#3 v=60
14520 On ch=1 n=f#3 v=0
14520 On ch=1 n=f#4 v=0
14520 On ch=1 n=e5 v=60
14520 On ch=1 n=c#5 v=60
14520 On ch=1 n=f#4 v=60
14640 On ch=1 n=f#4 v=0
14640 On ch=1 n=c#5 v=0
14640 On ch=1 n=e5 v=0
14640 On ch=1 n=b4 v=60
14640 On ch=1 n=e5 v=60
14640 On ch=1 n=f#4 v=60
14760 On ch=1 n=f#4 v=0
14760 On ch=1 n=e5 v=0
14760 On ch=1 n=b4 v=0
14760 On ch=1 n=f#3 v=60
14760 On ch=1 n=f#4 v=60
14880 On ch=1 n=f#4 v=0
14880 On ch=1 n=f#3 v=0
14880 On ch=1 n=e5 v=60
14880 On ch=1 n=c#5 v=60
14880 On ch=1 n=f#4 v=60
15000 On ch=1 n=f#4 v=0
15000 On ch=1 n=c#5 v=0
15000 On ch=1 n=e5 v=0
15000 On ch=1 n=a#4 v=60
15000 On ch=1 n=e5 v=60
15000 On ch=1 n=f#4 v=60
15120 On ch=1 n=f#4 v=0
15120 On ch=1 n=e5 v=0
15120 On ch=1 n=a#4 v=0
15120 On ch=1 n=b3 v=60
15240 On ch=1 n=b3 v=0
15240 On ch=1 n=d5 v=59
15240 On ch=1 n=b4 v=59
15240 On ch=1 n=f#4 v=59
15360 On ch=1 n=f#4 v=0
15360 On ch=1 n=b4 v=0
15360 On ch=1 n=d5 v=0
15360 On ch=1 n=f#4 v=58
15360 On ch=1 n=b4 v=58
15360 On ch=1 n=d5 v=58
15480 On ch=1 n=d5 v=0
15480 On ch=1 n=b4 v=0
15480 On ch=1 n=f#4 v=0
15480 On ch=1 n=a3 v=57
15600 On ch=1 n=a3 v=0
15600 On ch=1 n=g5 v=55
15600 On ch=1 n=c#5 v=55
15600 On ch=1 n=a4 v=55
15720 On ch=1 n=a4 v=0
15720 On ch=1 n=c#5 v=0
15720 On ch=1 n=g5 v=0
15720 On ch=1 n=a4 v=54
15720 On ch=1 n=e5 v=54
15720 On ch=1 n=g5 v=54
15840 On ch=1 n=g5 v=0
15840 On ch=1 n=e5 v=0
15840 On ch=1 n=a4 v=0
15840 On ch=1 n=d4 v=53
15960 On ch=1 n=d4 v=0
15960 On ch=1 n=f#5 v=51
15960 On ch=1 n=d5 v=51
15960 On ch=1 n=a4 v=51
16080 On ch=1 n=a4 v=0
16080 On ch=1 n=d5 v=0
16080 On ch=1 n=f#5 v=0
16080 On ch=1 n=a4 v=50
16080 On ch=1 n=d5 v=50
16080 On ch=1 n=f#5 v=50
16200 On ch=1 n=f#5 v=0
16200 On ch=1 n=d5 v=0
16200 On ch=1 n=a4 v=0
16200 On ch=1 n=c#4 v=49
16320 On ch=1 n=c#4 v=0
16320 On ch=1 n=g5 v=47
16320 On ch=1 n=e5 v=47
16320 On ch=1 n=a4 v=47
16440 On ch=1 n=a4 v=0
16440 On ch=1 n=e5 v=0
16440 On ch=1 n=g5 v=0
16440 On ch=1 n=a4 v=46
16440 On ch=1 n=e5 v=46
16440 On ch=1 n=g5 v=46
16560 On ch=1 n=g5 v=0
16560 On ch=1 n=e5 v=0
16560 On ch=1 n=a4 v=0
16560 On ch=1 n=d4 v=45
16680 On ch=1 n=d4 v=0
16680 On ch=1 n=f#5 v=43
16680 On ch=1 n=d5 v=43
16680 On ch=1 n=a4 v=43
16800 On ch=1 n=a4 v=0
16800 On ch=1 n=d5 v=0
16800 On ch=1 n=f#5 v=0
16800 On ch=1 n=a4 v=42
16800 On ch=1 n=d5 v=42
16800 On ch=1 n=f#5 v=42
16920 On ch=1 n=f#5 v=0
16920 On ch=1 n=d5 v=0
16920 On ch=1 n=a4 v=0
16920 On ch=1 n=g3 v=41
17040 On ch=1 n=g3 v=0
17040 On ch=1 n=e5 v=40
17040 On ch=1 n=g4 v=40
17160 On ch=1 n=g4 v=0
17160 On ch=1 n=e5 v=0
17280 On ch=1 n=f#3 v=100
17400 On ch=1 n=f#3 v=0
17400 On ch=1 n=e5 v=100
17400 On ch=1 n=f#4 v=100
17520 On ch=1 n=f#4 v=0
17520 On ch=1 n=e5 v=0
17520 On ch=1 n=a#3 v=100
17640 On ch=1 n=a#3 v=0
17640 On ch=1 n=b3 v=100
17760 On ch=1 n=b3 v=0
17760 On ch=1 n=d5 v=100
17760 On ch=1 n=f#4 v=100
17880 On ch=1 n=f#4 v=0
17880 On ch=1 n=d5 v=0
17880 On ch=1 n=d5 v=100
17880 On ch=1 n=f#4 v=100
18000 On ch=1 n=f#4 v=0
18000 On ch=1 n=d5 v=0
18000 On ch=1 n=c#4 v=100
18120 On ch=1 n=c#4 v=0
18120 On ch=1 n=e5 v=100
18120 On ch=1 n=c#5 v=100
18120 On ch=1 n=f#4 v=100
18240 On ch=1 n=f#4 v=0
18240 On ch=1 n=c#5 v=0
18240 On ch=1 n=e5 v=0
18240 On ch=1 n=c#5 v=100
18240 On ch=1 n=e5 v=100
18240 On ch=1 n=f#4 v=100
18360 On ch=1 n=f#4 v=0
18360 On ch=1 n=e5 v=0
18360 On ch=1 n=c#5 v=0
18360 On ch=1 n=a#3 v=100
18480 On ch=1 n=a#3 v=0
18480 On ch=1 n=e5 v=100
18480 On ch=1 n=c#5 v=100
18480 On ch=1 n=f#4 v=100
18600 On ch=1 n=f#4 v=0
18600 On ch=1 n=c#5 v=0
18600 On ch=1 n=e5 v=0
18600 On ch=1 n=c#5 v=100
18600 On ch=1 n=e5 v=100
18600 On ch=1 n=f#4 v=100
18720 On ch=1 n=f#4 v=0
18720 On ch=1 n=e5 v=0
18720 On ch=1 n=c#5 v=0
18720 On ch=1 n=b3 v=100
18840 On ch=1 n=b3 v=0
18840 On ch=1 n=d5 v=100
18840 On ch=1 n=b4 v=100
18840 On ch=1 n=f#4 v=100
18960 On ch=1 n=f#4 v=0
18960 On ch=1 n=b4 v=0
18960 On ch=1 n=d5 v=0
18960 On ch=1 n=d5 v=100
18960 On ch=1 n=b4 v=100
18960 On ch=1 n=f#4 v=100
19080 On ch=1 n=f#4 v=0
19080 On ch=1 n=b4 v=0
19080 On ch=1 n=d5 v=0
19080 On ch=1 n=b3 v=100
19200 On ch=1 n=b3 v=0
19200 On ch=1 n=d5 v=100
19200 On ch=1 n=b4 v=100
19200 On ch=1 n=f#4 v=100
19320 On ch=1 n=f#4 v=0
19320 On ch=1 n=b4 v=0
19320 On ch=1 n=d5 v=0
19320 On ch=1 n=b4 v=100
19320 On ch=1 n=d5 v=100
19320 On ch=1 n=f#4 v=100
19440 On ch=1 n=f#4 v=0
19440 On ch=1 n=d5 v=0
19440 On ch=1 n=b4 v=0
19440 On ch=1 n=b3 v=100
19560 On ch=1 n=b3 v=0
19560 On ch=1 n=d5 v=100
19560 On ch=1 n=b4 v=100
19560 On ch=1 n=g#4 v=100
19680 On ch=1 n=g#4 v=0
19680 On ch=1 n=b4 v=0
19680 On ch=1 n=d5 v=0
19680 On ch=1 n=g#4 v=100
19680 On ch=1 n=b4 v=100
19680 On ch=1 n=d5 v=100
19800 On ch=1 n=d5 v=0
19800 On ch=1 n=b4 v=0
19800 On ch=1 n=g#4 v=0
19800 On ch=1 n=b3 v=100
19920 On ch=1 n=b3 v=0
19920 On ch=1 n=e5 v=100
19920 On ch=1 n=b4 v=100
19920 On ch=1 n=g4 v=100
20040 On ch=1 n=g4 v=0
20040 On ch=1 n=b4 v=0
20040 On ch=1 n=e5 v=0
20040 On ch=1 n=g4 v=100
20040 On ch=1 n=b4 v=100
20040 On ch=1 n=e5 v=100
20160 On ch=1 n=e5 v=0
20160 On ch=1 n=b4 v=0
20160 On ch=1 n=g4 v=0
20160 On ch=1 n=b3 v=100
20280 On ch=1 n=b3 v=0
20280 On ch=1 n=e5 v=100
20280 On ch=1 n=a#4 v=100
20280 On ch=1 n=f#4 v=100
20400 On ch=1 n=f#4 v=0
20400 On ch=1 n=a#4 v=0
20400 On ch=1 n=e5 v=0
20400 On ch=1 n=f#4 v=100
20400 On ch=1 n=a#4 v=100
20400 On ch=1 n=e5 v=100
20520 On ch=1 n=e5 v=0
20520 On ch=1 n=a#4 v=0
20520 On ch=1 n=f#4 v=0
20520 On ch=1 n=b3 v=100
20640 On ch=1 n=b3 v=0
20640 On ch=1 n=d5 v=100
20640 On ch=1 n=b4 v=100
20640 On ch=1 n=f#4 v=100
20760 On ch=1 n=f#4 v=0
20760 On ch=1 n=b4 v=0
20760 On ch=1 n=d5 v=0
20760 On ch=1 n=f#4 v=100
20760 On ch=1 n=b4 v=100
20760 On ch=1 n=d5 v=100
20880 On ch=1 n=d5 v=0
20880 On ch=1 n=b4 v=0
20880 On ch=1 n=f#4 v=0
20880 On ch=1 n=c#4 v=100
21000 On ch=1 n=c#4 v=0
21000 On ch=1 n=e5 v=100
21000 On ch=1 n=c#5 v=100
21000 On ch=1 n=f#4 v=100
21120 On ch=1 n=f#4 v=0
21120 On ch=1 n=c#5 v=0
21120 On ch=1 n=e5 v=0
21120 On ch=1 n=c#5 v=100
21120 On ch=1 n=e5 v=100
21120 On ch=1 n=f#4 v=100
21240 On ch=1 n=f#4 v=0
21240 On ch=1 n=e5 v=0
21240 On ch=1 n=c#5 v=0
21240 On ch=1 n=a#3 v=100
21360 On ch=1 n=a#3 v=0
21360 On ch=1 n=e5 v=100
21360 On ch=1 n=a#4 v=100
21360 On ch=1 n=f#4 v=100
21480 On ch=1 n=f#4 v=0
21480 On ch=1 n=a#4 v=0
21480 On ch=1 n=e5 v=0
21480 On ch=1 n=c#5 v=100
21480 On ch=1 n=e5 v=100
21480 On ch=1 n=f#4 v=100
21600 On ch=1 n=f#4 v=0
21600 On ch=1 n=e5 v=0
21600 On ch=1 n=c#5 v=0
21600 On ch=1 n=b3 v=100
21720 On ch=1 n=b3 v=0
21720 On ch=1 n=d5 v=100
21720 On ch=1 n=b4 v=100
21720 On ch=1 n=f#4 v=100
21840 On ch=1 n=f#4 v=0
21840 On ch=1 n=b4 v=0
21840 On ch=1 n=d5 v=0
21840 On ch=1 n=b4 v=100
21840 On ch=1 n=d5 v=100
21840 On ch=1 n=f#4 v=100
21960 On ch=1 n=f#4 v=0
21960 On ch=1 n=d5 v=0
21960 On ch=1 n=b4 v=0
21960 On ch=1 n=d4 v=100
22080 On ch=1 n=d4 v=0
22080 On ch=1 n=d5 v=100
22080 On ch=1 n=b4 v=100
22080 On ch=1 n=f#4 v=100
22200 On ch=1 n=f#4 v=0
22200 On ch=1 n=b4 v=0
22200 On ch=1 n=d5 v=0
22200 On ch=1 n=f#4 v=100
22200 On ch=1 n=b4 v=100
22200 On ch=1 n=d5 v=100
22320 On ch=1 n=d5 v=0
22320 On ch=1 n=b4 v=0
22320 On ch=1 n=f#4 v=0
22320 On ch=1 n=e4 v=100
22440 On ch=1 n=e4 v=0
22440 On ch=1 n=c#5 v=100
22440 On ch=1 n=g4 v=100
22560 On ch=1 n=g4 v=0
22560 On ch=1 n=c#5 v=0
22680 On ch=1 n=f#4 v=100
22800 On ch=1 n=d5 v=93
22800 On ch=1 n=b4 v=93
22920 On ch=1 n=b4 v=0
22920 On ch=1 n=d5 v=0
22920 On ch=1 n=e5 v=86
22920 On ch=1 n=a#4 v=86
23040 On ch=1 n=a#4 v=0
23040 On ch=1 n=e5 v=0
23040 On ch=1 n=f#4 v=0
23040 On ch=1 n=b3 v=79
23100 On ch=1 n=b3 v=0
23160 On ch=1 n=d5 v=72
23160 On ch=1 n=f#4 v=72
23220 On ch=1 n=f#4 v=0
23220 On ch=1 n=d5 v=0
23280 On ch=1 n=d4 v=65
23400 On ch=1 n=d4 v=0
23400 On ch=1 n=c#4 v=60
23520 On ch=1 n=c#4 v=0
23520 On ch=1 n=e5 v=60
23520 On ch=1 n=g4 v=60
23520 On ch=1 n=a4 v=60
23640 On ch=1 n=a4 v=0
23640 On ch=1 n=g4 v=0
23640 On ch=1 n=e5 v=0
23640 On ch=1 n=e5 v=60
23640 On ch=1 n=g4 v=60
23640 On ch=1 n=a4 v=60
23760 On ch=1 n=a4 v=0
23760 On ch=1 n=g4 v=0
23760 On ch=1 n=e5 v=0
23760 On ch=1 n=d4 v=60
23880 On ch=1 n=d4 v=0
23880 On ch=1 n=d5 v=60
23880 On ch=1 n=a4 v=60
23880 On ch=1 n=f#4 v=60
24000 On ch=1 n=f#4 v=0
24000 On ch=1 n=a4 v=0
24000 On ch=1 n=d5 v=0
24000 On ch=1 n=f#4 v=60
24000 On ch=1 n=a4 v=60
24000 On ch=1 n=d5 v=60
24120 On ch=1 n=d5 v=0
24120 On ch=1 n=a4 v=0
24120 On ch=1 n=f#4 v=0
24120 On ch=1 n=a3 v=60
24240 On ch=1 n=a3 v=0
24240 On ch=1 n=g5 v=60
24240 On ch=1 n=c#5 v=60
24240 On ch=1 n=a4 v=60
24360 On ch=1 n=a4 v=0
24360 On ch=1 n=c#5 v=0
24360 On ch=1 n=g5 v=0
24360 On ch=1 n=a4 v=60
24360 On ch=1 n=e5 v=60
24360 On ch=1 n=g5 v=60
24480 On ch=1 n=g5 v=0
24480 On ch=1 n=e5 v=0
24480 On ch=1 n=a4 v=0
24480 On ch=1 n=d4 v=60
24600 On ch=1 n=d4 v=0
24600 On ch=1 n=f#5 v=60
24600 On ch=1 n=d5 v=60
24600 On ch=1 n=a4 v=60
24720 On ch=1 n=a4 v=0
24720 On ch=1 n=d5 v=0
24720 On ch=1 n=f#5 v=0
24720 On ch=1 n=a4 v=60
24720 On ch=1 n=d5 v=60
24720 On ch=1 n=f#5 v=60
24840 On ch=1 n=f#5 v=0
24840 On ch=1 n=d5 v=0
24840 On ch=1 n=a4 v=0
24840 On ch=1 n=c#4 v=60
24960 On ch=1 n=c#4 v=0
24960 On ch=1 n=g5 v=60
24960 On ch=1 n=e5 v=60
24960 On ch=1 n=a4 v=60
25080 On ch=1 n=a4 v=0
25080 On ch=1 n=e5 v=0
25080 On ch=1 n=g5 v=0
25080 On ch=1 n=a4 v=60
25080 On ch=1 n=e5 v=60
25080 On ch=1 n=g5 v=60
25200 On ch=1 n=g5 v=0
25200 On ch=1 n=e5 v=0
25200 On ch=1 n=a4 v=0
25200 On ch=1 n=d4 v=60
25320 On ch=1 n=d4 v=0
25320 On ch=1 n=f#5 v=60
25320 On ch=1 n=d5 v=60
25320 On ch=1 n=a4 v=60
25440 On ch=1 n=a4 v=0
25440 On ch=1 n=d5 v=0
25440 On ch=1 n=f#5 v=0
25440 On ch=1 n=a4 v=60
25440 On ch=1 n=d5 v=60
25440 On ch=1 n=f#5 v=60
25560 On ch=1 n=f#5 v=0
25560 On ch=1 n=d5 v=0
25560 On ch=1 n=a4 v=0
25560 On ch=1 n=g3 v=60
25680 On ch=1 n=g3 v=0
25680 On ch=1 n=e5 v=60
25680 On ch=1 n=b4 v=60
25680 On ch=1 n=g4 v=60
25800 On ch=1 n=g4 v=0
25800 On ch=1 n=b4 v=0
25800 On ch=1 n=e5 v=0
25800 On ch=1 n=g4 v=60
25800 On ch=1 n=b4 v=60
25800 On ch=1 n=e5 v=60
25920 On ch=1 n=e5 v=0
25920 On ch=1 n=b4 v=0
25920 On ch=1 n=g4 v=0
25920 On ch=1 n=f#4 v=60
25920 On ch=1 n=f#3 v=60
26040 On ch=1 n=f#3 v=0
26040 On ch=1 n=f#4 v=0
26040 On ch=1 n=e5 v=60
26040 On ch=1 n=c#5 v=60
26040 On ch=1 n=f#4 v=60
26160 On ch=1 n=f#4 v=0
26160 On ch=1 n=c#5 v=0
26160 On ch=1 n=e5 v=0
26160 On ch=1 n=b4 v=60
26160 On ch=1 n=e5 v=60
26160 On ch=1 n=f#4 v=60
26280 On ch=1 n=f#4 v=0
26280 On ch=1 n=e5 v=0
26280 On ch=1 n=b4 v=0
26280 On ch=1 n=f#3 v=60
26280 On ch=1 n=f#4 v=60
26400 On ch=1 n=f#4 v=0
26400 On ch=1 n=f#3 v=0
26400 On ch=1 n=e5 v=60
26400 On ch=1 n=c#5 v=60
26400 On ch=1 n=f#4 v=60
26520 On ch=1 n=f#4 v=0
26520 On ch=1 n=c#5 v=0
26520 On ch=1 n=e5 v=0
26520 On ch=1 n=a#4 v=60
26520 On ch=1 n=e5 v=60
26520 On ch=1 n=f#4 v=60
26640 On ch=1 n=f#4 v=0
26640 On ch=1 n=e5 v=0
26640 On ch=1 n=a#4 v=0
26640 On ch=1 n=b3 v=60
26760 On ch=1 n=b3 v=0
26760 On ch=1 n=d5 v=59
26760 On ch=1 n=b4 v=59
26760 On ch=1 n=f#4 v=59
26880 On ch=1 n=f#4 v=0
26880 On ch=1 n=b4 v=0
26880 On ch=1 n=d5 v=0
26880 On ch=1 n=f#4 v=58
26880 On ch=1 n=b4 v=58
26880 On ch=1 n=d5 v=58
27000 On ch=1 n=d5 v=0
27000 On ch=1 n=b4 v=0
27000 On ch=1 n=f#4 v=0
27000 On ch=1 n=a3 v=57
27120 On ch=1 n=a3 v=0
27120 On ch=1 n=g5 v=55
27120 On ch=1 n=c#5 v=55
27120 On ch=1 n=a4 v=55
27240 On ch=1 n=a4 v=0
27240 On ch=1 n=c#5 v=0
27240 On ch=1 n=g5 v=0
27240 On ch=1 n=a4 v=54
27240 On ch=1 n=e5 v=54
27240 On ch=1 n=g5 v=54
27360 On ch=1 n=g5 v=0
27360 On ch=1 n=e5 v=0
27360 On ch=1 n=a4 v=0
27360 On ch=1 n=d4 v=53
27480 On ch=1 n=d4 v=0
27480 On ch=1 n=f#5 v=51
27480 On ch=1 n=d5 v=51
27480 On ch=1 n=a4 v=51
27600 On ch=1 n=a4 v=0
27600 On ch=1 n=d5 v=0
27600 On ch=1 n=f#5 v=0
27600 On ch=1 n=a4 v=50
27600 On ch=1 n=d5 v=50
27600 On ch=1 n=f#5 v=50
27720 On ch=1 n=f#5 v=0
27720 On ch=1 n=d5 v=0
27720 On ch=1 n=a4 v=0
27720 On ch=1 n=c#4 v=49
27840 On ch=1 n=c#4 v=0
27840 On ch=1 n=g5 v=47
27840 On ch=1 n=e5 v=47
27840 On ch=1 n=a4 v=47
27960 On ch=1 n=a4 v=0
27960 On ch=1 n=e5 v=0
27960 On ch=1 n=g5 v=0
27960 On ch=1 n=a4 v=46
27960 On ch=1 n=e5 v=46
27960 On ch=1 n=g5 v=46
28080 On ch=1 n=g5 v=0
28080 On ch=1 n=e5 v=0
28080 On ch=1 n=a4 v=0
28080 On ch=1 n=d4 v=45
28200 On ch=1 n=d4 v=0
28200 On ch=1 n=f#5 v=43
28200 On ch=1 n=d5 v=43
28200 On ch=1 n=a4 v=43
28320 On ch=1 n=a4 v=0
28320 On ch=1 n=d5 v=0
28320 On ch=1 n=f#5 v=0
28320 On ch=1 n=a4 v=42
28320 On ch=1 n=d5 v=42
28320 On ch=1 n=f#5 v=42
28440 On ch=1 n=f#5 v=0
28440 On ch=1 n=d5 v=0
28440 On ch=1 n=a4 v=0
28440 On ch=1 n=g3 v=41
28560 On ch=1 n=g3 v=0
28560 On ch=1 n=e5 v=40
28560 On ch=1 n=g4 v=40
28680 On ch=1 n=g4 v=0
28680 On ch=1 n=e5 v=0
28800 On ch=1 n=f#3 v=100
28920 On ch=1 n=f#3 v=0
28920 On ch=1 n=e5 v=100
28920 On ch=1 n=f#4 v=100
29040 On ch=1 n=f#4 v=0
29040 On ch=1 n=e5 v=0
29040 On ch=1 n=a#3 v=100
29160 On ch=1 n=a#3 v=0
29160 On ch=1 n=b3 v=100
29280 On ch=1 n=b3 v=0
29280 On ch=1 n=d5 v=100
29280 On ch=1 n=f#4 v=100
29400 On ch=1 n=f#4 v=0
29400 On ch=1 n=d5 v=0
29400 On ch=1 n=d5 v=100
29400 On ch=1 n=f#4 v=100
29520 On ch=1 n=f#4 v=0
29520 On ch=1 n=d5 v=0
29520 On ch=1 n=c#4 v=100
29640 On ch=1 n=c#4 v=0
29640 On ch=1 n=e5 v=100
29640 On ch=1 n=c#5 v=100
29640 On ch=1 n=f#4 v=100
29760 On ch=1 n=f#4 v=0
29760 On ch=1 n=c#5 v=0
29760 On ch=1 n=e5 v=0
29760 On ch=1 n=c#5 v=100
29760 On ch=1 n=e5 v=100
29760 On ch=1 n=f#4 v=100
29880 On ch=1 n=f#4 v=0
29880 On ch=1 n=e5 v=0
29880 On ch=1 n=c#5 v=0
29880 On ch=1 n=a#3 v=100
30000 On ch=1 n=a#3 v=0
30000 On ch=1 n=e5 v=100
30000 On ch=1 n=c#5 v=100
30000 On ch=1 n=f#4 v=100
30120 On ch=1 n=f#4 v=0
30120 On ch=1 n=c#5 v=0
30120 On ch=1 n=e5 v=0
30120 On ch=1 n=c#5 v=100
30120 On ch=1 n=e5 v=100
30120 On ch=1 n=f#4 v=100
30240 On ch=1 n=f#4 v=0
30240 On ch=1 n=e5 v=0
30240 On ch=1 n=c#5 v=0
30240 On ch=1 n=b3 v=100
30360 On ch=1 n=b3 v=0
30360 On ch=1 n=d5 v=100
30360 On ch=1 n=b4 v=100
30360 On ch=1 n=f#4 v=100
30480 On ch=1 n=f#4 v=0
30480 On ch=1 n=b4 v=0
30480 On ch=1 n=d5 v=0
30480 On ch=1 n=d5 v=100
30480 On ch=1 n=b4 v=100
30480 On ch=1 n=f#4 v=100
30600 On ch=1 n=f#4 v=0
30600 On ch=1 n=b4 v=0
30600 On ch=1 n=d5 v=0
30600 On ch=1 n=b3 v=100
30720 On ch=1 n=b3 v=0
30720 On ch=1 n=d5 v=100
30720 On ch=1 n=b4 v=100
30720 On ch=1 n=f#4 v=100
30840 On ch=1 n=f#4 v=0
30840 On ch=1 n=b4 v=0
30840 On ch=1 n=d5 v=0
30840 On ch=1 n=b4 v=100
30840 On ch=1 n=d5 v=100
30840 On ch=1 n=f#4 v=100
30960 On ch=1 n=f#4 v=0
30960 On ch=1 n=d5 v=0
30960 On ch=1 n=b4 v=0
30960 On ch=1 n=b3 v=100
31080 On ch=1 n=b3 v=0
31080 On ch=1 n=d5 v=100
31080 On ch=1 n=b4 v=100
31080 On ch=1 n=g#4 v=100
31200 On ch=1 n=g#4 v=0
31200 On ch=1 n=b4 v=0
31200 On ch=1 n=d5 v=0
31200 On ch=1 n=g#4 v=100
31200 On ch=1 n=b4 v=100
31200 On ch=1 n=d5 v=100
31320 On ch=1 n=d5 v=0
31320 On ch=1 n=b4 v=0
31320 On ch=1 n=g#4 v=0
31320 On ch=1 n=b3 v=100
31440 On ch=1 n=b3 v=0
31440 On ch=1 n=e5 v=100
31440 On ch=1 n=b4 v=100
31440 On ch=1 n=g4 v=100
31560 On ch=1 n=g4 v=0
31560 On ch=1 n=b4 v=0
31560 On ch=1 n=e5 v=0
31560 On ch=1 n=g4 v=100
31560 On ch=1 n=b4 v=100
31560 On ch=1 n=e5 v=100
31680 On ch=1 n=e5 v=0
31680 On ch=1 n=b4 v=0
31680 On ch=1 n=g4 v=0
31680 On ch=1 n=b3 v=100
31800 On ch=1 n=b3 v=0
31800 On ch=1 n=e5 v=100
31800 On ch=1 n=a#4 v=100
31800 On ch=1 n=f#4 v=100
31920 On ch=1 n=f#4 v=0
31920 On ch=1 n=a#4 v=0
31920 On ch=1 n=e5 v=0
31920 On ch=1 n=f#4 v=100
31920 On ch=1 n=a#4 v=100
31920 On ch=1 n=e5 v=100
32040 On ch=1 n=e5 v=0
32040 On ch=1 n=a#4 v=0
32040 On ch=1 n=f#4 v=0
32040 On ch=1 n=b3 v=100
32160 On ch=1 n=b3 v=0
32160 On ch=1 n=d5 v=100
32160 On ch=1 n=b4 v=100
32160 On ch=1 n=f#4 v=100
32280 On ch=1 n=f#4 v=0
32280 On ch=1 n=b4 v=0
32280 On ch=1 n=d5 v=0
32280 On ch=1 n=f#4 v=100
32280 On ch=1 n=b4 v=100
32280 On ch=1 n=d5 v=100
32400 On ch=1 n=d5 v=0
32400 On ch=1 n=b4 v=0
32400 On ch=1 n=f#4 v=0
32400 On ch=1 n=c#4 v=100
32520 On ch=1 n=c#4 v=0
32520 On ch=1 n=e5 v=100
32520 On ch=1 n=c#5 v=100
32520 On ch=1 n=f#4 v=100
32640 On ch=1 n=f#4 v=0
32640 On ch=1 n=c#5 v=0
32640 On ch=1 n=e5 v=0
32640 On ch=1 n=c#5 v=100
32640 On ch=1 n=e5 v=100
32640 On ch=1 n=f#4 v=100
32760 On ch=1 n=f#4 v=0
32760 On ch=1 n=e5 v=0
32760 On ch=1 n=c#5 v=0
32760 On ch=1 n=a#3 v=100
32880 On ch=1 n=a#3 v=0
32880 On ch=1 n=e5 v=100
32880 On ch=1 n=a#4 v=100
32880 On ch=1 n=f#4 v=100
33000 On ch=1 n=f#4 v=0
33000 On ch=1 n=a#4 v=0
33000 On ch=1 n=e5 v=0
33000 On ch=1 n=c#5 v=100
33000 On ch=1 n=e5 v=100
33000 On ch=1 n=f#4 v=100
33120 On ch=1 n=f#4 v=0
33120 On ch=1 n=e5 v=0
33120 On ch=1 n=c#5 v=0
33120 On ch=1 n=b3 v=100
33240 On ch=1 n=b3 v=0
33240 On ch=1 n=d5 v=100
33240 On ch=1 n=b4 v=100
33240 On ch=1 n=f#4 v=100
33360 On ch=1 n=f#4 v=0
33360 On ch=1 n=b4 v=0
33360 On ch=1 n=d5 v=0
33360 On ch=1 n=b4 v=100
33360 On ch=1 n=d5 v=100
33360 On ch=1 n=f#4 v=100
33480 On ch=1 n=f#4 v=0
33480 On ch=1 n=d5 v=0
33480 On ch=1 n=b4 v=0
33480 On ch=1 n=d4 v=100
33600 On ch=1 n=d4 v=0
33600 On ch=1 n=d5 v=100
33600 On ch=1 n=b4 v=100
33600 On ch=1 n=f#4 v=100
33720 On ch=1 n=f#4 v=0
33720 On ch=1 n=b4 v=0
33720 On ch=1 n=d5 v=0
33720 On ch=1 n=f#4 v=100
33720 On ch=1 n=b4 v=100
33720 On ch=1 n=d5 v=100
33840 On ch=1 n=d5 v=0
33840 On ch=1 n=b4 v=0
33840 On ch=1 n=f#4 v=0
33840 On ch=1 n=e4 v=100
33960 On ch=1 n=e4 v=0
33960 On ch=1 n=c#5 v=100
33960 On ch=1 n=g4 v=100
34080 On ch=1 n=g4 v=0
34080 On ch=1 n=c#5 v=0
34200 On ch=1 n=f#4 v=100
34320 On ch=1 n=d5 v=97
34320 On ch=1 n=b4 v=97
34440 On ch=1 n=b4 v=0
34440 On ch=1 n=d5 v=0
34440 On ch=1 n=e5 v=93
34440 On ch=1 n=a#4 v=93
34560 On ch=1 n=a#4 v=0
34560 On ch=1 n=e5 v=0
34560 On ch=1 n=f#4 v=0
34560 On ch=1 n=d5 v=90
34560 On ch=1 n=b4 v=90
34680 On ch=1 n=b4 v=0
34680 On ch=1 n=d5 v=0
34680 On ch=1 n=b3 v=86
34800 On ch=1 n=b3 v=0
34920 On ch=1 n=b3 v=80
35040 On ch=1 n=b3 v=0
35040 On ch=1 n=d#5 v=80
35040 On ch=1 n=b4 v=80
35040 On ch=1 n=f#4 v=80
35160 On ch=1 n=f#4 v=0
35160 On ch=1 n=b4 v=0
35160 On ch=1 n=d#5 v=0
35160 On ch=1 n=b4 v=80
35160 On ch=1 n=d#5 v=80
35160 On ch=1 n=f#4 v=80
35280 On ch=1 n=f#4 v=0
35280 On ch=1 n=d#5 v=0
35280 On ch=1 n=b4 v=0
35280 On ch=1 n=a#3 v=80
35400 On ch=1 n=a#3 v=0
35400 On ch=1 n=e5 v=80
35400 On ch=1 n=c#5 v=80
35400 On ch=1 n=f#4 v=80
35520 On ch=1 n=f#4 v=0
35520 On ch=1 n=c#5 v=0
35520 On ch=1 n=e5 v=0
35520 On ch=1 n=c#5 v=80
35520 On ch=1 n=e5 v=80
35520 On ch=1 n=f#4 v=80
35640 On ch=1 n=f#4 v=0
35640 On ch=1 n=e5 v=0
35640 On ch=1 n=c#5 v=0
35640 On ch=1 n=b3 v=80
35760 On ch=1 n=b3 v=0
35760 On ch=1 n=d#5 v=80
35760 On ch=1 n=b4 v=80
35760 On ch=1 n=f#4 v=80
35880 On ch=1 n=f#4 v=0
35880 On ch=1 n=b4 v=0
35880 On ch=1 n=d#5 v=0
35880 On ch=1 n=b4 v=80
35880 On ch=1 n=d#5 v=80
35880 On ch=1 n=f#4 v=80
36000 On ch=1 n=f#4 v=0
36000 On ch=1 n=d#5 v=0
36000 On ch=1 n=b4 v=0
36000 On ch=1 n=a#3 v=80
36120 On ch=1 n=a#3 v=0
36120 On ch=1 n=e5 v=80
36120 On ch=1 n=c#5 v=80
36120 On ch=1 n=f#4 v=80
36240 On ch=1 n=f#4 v=0
36240 On ch=1 n=c#5 v=0
36240 On ch=1 n=e5 v=0
36240 On ch=1 n=c#5 v=80
36240 On ch=1 n=e5 v=80
36240 On ch=1 n=f#4 v=80
36360 On ch=1 n=f#4 v=0
36360 On ch=1 n=e5 v=0
36360 On ch=1 n=c#5 v=0
36360 On ch=1 n=b3 v=80
36480 On ch=1 n=b3 v=0
36480 On ch=1 n=d#5 v=80
36480 On ch=1 n=b4 v=80
36480 On ch=1 n=f#4 v=80
36600 On ch=1 n=f#4 v=0
36600 On ch=1 n=b4 v=0
36600 On ch=1 n=d#5 v=0
36600 On ch=1 n=b4 v=80
36600 On ch=1 n=d#5 v=80
36600 On ch=1 n=f#4 v=80
36720 On ch=1 n=f#4 v=0
36720 On ch=1 n=d#5 v=0
36720 On ch=1 n=b4 v=0
36720 On ch=1 n=f#3 v=80
36840 On ch=1 n=f#3 v=0
36840 On ch=1 n=e5 v=80
36840 On ch=1 n=a#4 v=80
36840 On ch=1 n=f#4 v=80
36960 On ch=1 n=f#4 v=0
36960 On ch=1 n=a#4 v=0
36960 On ch=1 n=e5 v=0
36960 On ch=1 n=a#4 v=80
36960 On ch=1 n=e5 v=80
36960 On ch=1 n=f#4 v=80
37080 On ch=1 n=f#4 v=0
37080 On ch=1 n=e5 v=0
37080 On ch=1 n=a#4 v=0
37080 On ch=1 n=b3 v=80
37200 On ch=1 n=b3 v=0
37200 On ch=1 n=d#5 v=80
37200 On ch=1 n=b4 v=80
37200 On ch=1 n=f#4 v=80
37320 On ch=1 n=f#4 v=0
37320 On ch=1 n=b4 v=0
37320 On ch=1 n=d#5 v=0
37320 On ch=1 n=b4 v=80
37320 On ch=1 n=d#5 v=80
37320 On ch=1 n=f#4 v=80
37440 On ch=1 n=f#4 v=0
37440 On ch=1 n=d#5 v=0
37440 On ch=1 n=b4 v=0
37440 On ch=1 n=f#3 v=80
37560 On ch=1 n=f#3 v=0
37560 On ch=1 n=e5 v=80
37560 On ch=1 n=a#4 v=80
37560 On ch=1 n=f#4 v=80
37680 On ch=1 n=f#4 v=0
37680 On ch=1 n=a#4 v=0
37680 On ch=1 n=e5 v=0
37680 On ch=1 n=a#4 v=80
37680 On ch=1 n=e5 v=80
37680 On ch=1 n=f#4 v=80
37800 On ch=1 n=f#4 v=0
37800 On ch=1 n=e5 v=0
37800 On ch=1 n=a#4 v=0
37800 On ch=1 n=b3 v=80
37920 On ch=1 n=b3 v=0
37920 On ch=1 n=d#5 v=80
37920 On ch=1 n=b4 v=80
37920 On ch=1 n=f#4 v=80
38040 On ch=1 n=f#4 v=0
38040 On ch=1 n=b4 v=0
38040 On ch=1 n=d#5 v=0
38040 On ch=1 n=b4 v=80
38040 On ch=1 n=d#5 v=80
38040 On ch=1 n=f#4 v=80
38160 On ch=1 n=f#4 v=0
38160 On ch=1 n=d#5 v=0
38160 On ch=1 n=b4 v=0
38160 On ch=1 n=a#3 v=80
38280 On ch=1 n=a#3 v=0
38280 On ch=1 n=e5 v=80
38280 On ch=1 n=c#5 v=80
38280 On ch=1 n=f#4 v=80
38400 On ch=1 n=f#4 v=0
38400 On ch=1 n=c#5 v=0
38400 On ch=1 n=e5 v=0
38400 On ch=1 n=c#5 v=80
38400 On ch=1 n=e5 v=80
38400 On ch=1 n=f#4 v=80
38520 On ch=1 n=f#4 v=0
38520 On ch=1 n=e5 v=0
38520 On ch=1 n=c#5 v=0
38520 On ch=1 n=b3 v=80
38640 On ch=1 n=b3 v=0
38640 On ch=1 n=d#5 v=80
38640 On ch=1 n=b4 v=80
38640 On ch=1 n=f#4 v=80
38760 On ch=1 n=f#4 v=0
38760 On ch=1 n=b4 v=0
38760 On ch=1 n=d#5 v=0
38760 On ch=1 n=b4 v=80
38760 On ch=1 n=d#5 v=80
38760 On ch=1 n=f#4 v=80
38880 On ch=1 n=f#4 v=0
38880 On ch=1 n=d#5 v=0
38880 On ch=1 n=b4 v=0
38880 On ch=1 n=a#3 v=80
39000 On ch=1 n=a#3 v=0
39000 On ch=1 n=e5 v=80
39000 On ch=1 n=c#5 v=80
39000 On ch=1 n=f#4 v=80
39120 On ch=1 n=f#4 v=0
39120 On ch=1 n=c#5 v=0
39120 On ch=1 n=e5 v=0
39120 On ch=1 n=c#5 v=80
39120 On ch=1 n=e5 v=80
39120 On ch=1 n=f#4 v=80
39240 On ch=1 n=f#4 v=0
39240 On ch=1 n=e5 v=0
39240 On ch=1 n=c#5 v=0
39240 On ch=1 n=b3 v=80
39360 On ch=1 n=b3 v=0
39360 On ch=1 n=d#5 v=80
39360 On ch=1 n=b4 v=80
39360 On ch=1 n=f#4 v=80
39480 On ch=1 n=f#4 v=0
39480 On ch=1 n=b4 v=0
39480 On ch=1 n=d#5 v=0
39480 On ch=1 n=g#4 v=80
39480 On ch=1 n=b4 v=80
39480 On ch=1 n=d#5 v=80
39600 On ch=1 n=d#5 v=0
39600 On ch=1 n=b4 v=0
39600 On ch=1 n=g#4 v=0
39600 On ch=1 n=c#4 v=80
39720 On ch=1 n=c#4 v=0
39720 On ch=1 n=f#5 v=80
39720 On ch=1 n=c#5 v=80
39720 On ch=1 n=a#4 v=80
39840 On ch=1 n=a#4 v=0
39840 On ch=1 n=c#5 v=0
39840 On ch=1 n=f#5 v=0
39840 On ch=1 n=a#4 v=80
39840 On ch=1 n=c#5 v=80
39840 On ch=1 n=f#5 v=80
39960 On ch=1 n=f#5 v=0
39960 On ch=1 n=c#5 v=0
39960 On ch=1 n=a#4 v=0
39960 On ch=1 n=c#4 v=80
40080 On ch=1 n=c#4 v=0
40080 On ch=1 n=f5 v=80
40080 On ch=1 n=c#5 v=80
40080 On ch=1 n=g#4 v=80
40200 On ch=1 n=g#4 v=0
40200 On ch=1 n=c#5 v=0
40200 On ch=1 n=f5 v=0
40200 On ch=1 n=g#4 v=80
40200 On ch=1 n=c#5 v=80
40200 On ch=1 n=f5 v=80
40320 On ch=1 n=f5 v=0
40320 On ch=1 n=c#5 v=0
40320 On ch=1 n=g#4 v=0
40320 On ch=1 n=f#3 v=80
40440 On ch=1 n=f#3 v=0
40440 On ch=1 n=e5 v=80
40440 On ch=1 n=c#5 v=80
40440 On ch=1 n=f#4 v=80
40560 On ch=1 n=f#4 v=0
40560 On ch=1 n=c#5 v=0
40560 On ch=1 n=e5 v=0
40560 On ch=1 n=c#5 v=80
40560 On ch=1 n=e5 v=80
40560 On ch=1 n=f#4 v=80
40680 On ch=1 n=f#4 v=0
40680 On ch=1 n=e5 v=0
40680 On ch=1 n=c#5 v=0
40680 On ch=1 n=b3 v=80
40800 On ch=1 n=b3 v=0
40800 On ch=1 n=d#5 v=80
40800 On ch=1 n=b4 v=80
40800 On ch=1 n=f#4 v=80
40920 On ch=1 n=f#4 v=0
40920 On ch=1 n=b4 v=0
40920 On ch=1 n=d#5 v=0
40920 On ch=1 n=b4 v=80
40920 On ch=1 n=d#5 v=80
40920 On ch=1 n=f#4 v=80
41040 On ch=1 n=f#4 v=0
41040 On ch=1 n=d#5 v=0
41040 On ch=1 n=b4 v=0
41040 On ch=1 n=a#3 v=80
41160 On ch=1 n=a#3 v=0
41160 On ch=1 n=e5 v=80
41160 On ch=1 n=c#5 v=80
41160 On ch=1 n=f#4 v=80
41280 On ch=1 n=f#4 v=0
41280 On ch=1 n=c#5 v=0
41280 On ch=1 n=e5 v=0
41280 On ch=1 n=c#5 v=80
41280 On ch=1 n=e5 v=80
41280 On ch=1 n=f#4 v=80
41400 On ch=1 n=f#4 v=0
41400 On ch=1 n=e5 v=0
41400 On ch=1 n=c#5 v=0
41400 On ch=1 n=b3 v=80
41520 On ch=1 n=b3 v=0
41520 On ch=1 n=d#5 v=80
41520 On ch=1 n=b4 v=80
41520 On ch=1 n=f#4 v=80
41640 On ch=1 n=f#4 v=0
41640 On ch=1 n=b4 v=0
41640 On ch=1 n=d#5 v=0
41640 On ch=1 n=b4 v=80
41640 On ch=1 n=d#5 v=80
41640 On ch=1 n=f#4 v=80
41760 On ch=1 n=f#4 v=0
41760 On ch=1 n=d#5 v=0
41760 On ch=1 n=b4 v=0
41760 On ch=1 n=a#3 v=80
41880 On ch=1 n=a#3 v=0
41880 On ch=1 n=e5 v=80
41880 On ch=1 n=c#5 v=80
41880 On ch=1 n=f#4 v=80
42000 On ch=1 n=f#4 v=0
42000 On ch=1 n=c#5 v=0
42000 On ch=1 n=e5 v=0
42000 On ch=1 n=c#5 v=80
42000 On ch=1 n=e5 v=80
42000 On ch=1 n=f#4 v=80
42120 On ch=1 n=f#4 v=0
42120 On ch=1 n=e5 v=0
42120 On ch=1 n=c#5 v=0
42120 On ch=1 n=b3 v=80
42240 On ch=1 n=b3 v=0
42240 On ch=1 n=d#5 v=80
42240 On ch=1 n=b4 v=80
42240 On ch=1 n=f#4 v=80
42360 On ch=1 n=f#4 v=0
42360 On ch=1 n=b4 v=0
42360 On ch=1 n=d#5 v=0
42360 On ch=1 n=b4 v=80
42360 On ch=1 n=d#5 v=80
42360 On ch=1 n=f#4 v=80
42480 On ch=1 n=f#4 v=0
42480 On ch=1 n=d#5 v=0
42480 On ch=1 n=b4 v=0
42480 On ch=1 n=f#3 v=80
42600 On ch=1 n=f#3 v=0
42600 On ch=1 n=e5 v=80
42600 On ch=1 n=a#4 v=80
42600 On ch=1 n=f#4 v=80
42720 On ch=1 n=f#4 v=0
42720 On ch=1 n=a#4 v=0
42720 On ch=1 n=e5 v=0
42720 On ch=1 n=a#4 v=80
42720 On ch=1 n=e5 v=80
42720 On ch=1 n=f#4 v=80
42840 On ch=1 n=f#4 v=0
42840 On ch=1 n=e5 v=0
42840 On ch=1 n=a#4 v=0
42840 On ch=1 n=b3 v=80
42960 On ch=1 n=b3 v=0
42960 On ch=1 n=d#5 v=80
42960 On ch=1 n=b4 v=80
42960 On ch=1 n=f#4 v=80
43080 On ch=1 n=f#4 v=0
43080 On ch=1 n=b4 v=0
43080 On ch=1 n=d#5 v=0
43080 On ch=1 n=b4 v=80
43080 On ch=1 n=d#5 v=80
43080 On ch=1 n=f#4 v=80
43200 On ch=1 n=f#4 v=0
43200 On ch=1 n=d#5 v=0
43200 On ch=1 n=b4 v=0
43200 On ch=1 n=f#3 v=80
43320 On ch=1 n=f#3 v=0
43320 On ch=1 n=e5 v=80
43320 On ch=1 n=a#4 v=80
43320 On ch=1 n=f#4 v=80
43440 On ch=1 n=f#4 v=0
43440 On ch=1 n=a#4 v=0
43440 On ch=1 n=e5 v=0
43440 On ch=1 n=a#4 v=80
43440 On ch=1 n=e5 v=80
43440 On ch=1 n=f#4 v=80
43560 On ch=1 n=f#4 v=0
43560 On ch=1 n=e5 v=0
43560 On ch=1 n=a#4 v=0
43560 On ch=1 n=b3 v=80
43680 On ch=1 n=b3 v=0
43680 On ch=1 n=d5 v=81
43680 On ch=1 n=b4 v=81
43680 On ch=1 n=f#4 v=81
43800 On ch=1 n=f#4 v=0
43800 On ch=1 n=b4 v=0
43800 On ch=1 n=d5 v=0
43800 On ch=1 n=b4 v=83
43800 On ch=1 n=d5 v=83
43800 On ch=1 n=f#4 v=83
43920 On ch=1 n=f#4 v=0
43920 On ch=1 n=d5 v=0
43920 On ch=1 n=b4 v=0
43920 On ch=1 n=f#3 v=85
44040 On ch=1 n=f#3 v=0
44040 On ch=1 n=e5 v=87
44040 On ch=1 n=c#5 v=87
44040 On ch=1 n=f#4 v=87
44160 On ch=1 n=f#4 v=0
44160 On ch=1 n=c#5 v=0
44160 On ch=1 n=e5 v=0
44160 On ch=1 n=f#4 v=88
44160 On ch=1 n=c#5 v=88
44160 On ch=1 n=e5 v=88
44280 On ch=1 n=e5 v=0
44280 On ch=1 n=c#5 v=0
44280 On ch=1 n=f#4 v=0
44280 On ch=1 n=b3 v=90
44400 On ch=1 n=b3 v=0
44400 On ch=1 n=d5 v=92
44400 On ch=1 n=b4 v=92
44400 On ch=1 n=f#4 v=92
44520 On ch=1 n=f#4 v=0
44520 On ch=1 n=b4 v=0
44520 On ch=1 n=d5 v=0
44520 On ch=1 n=b4 v=94
44520 On ch=1 n=d5 v=94
44520 On ch=1 n=f#4 v=94
44640 On ch=1 n=f#4 v=0
44640 On ch=1 n=d5 v=0
44640 On ch=1 n=b4 v=0
44640 On ch=1 n=f#3 v=95
44760 On ch=1 n=f#3 v=0
44760 On ch=1 n=e5 v=97
44760 On ch=1 n=c#5 v=97
44760 On ch=1 n=f#4 v=97
44880 On ch=1 n=f#4 v=0
44880 On ch=1 n=c#5 v=0
44880 On ch=1 n=e5 v=0
44880 On ch=1 n=f#4 v=99
44880 On ch=1 n=c#5 v=99
44880 On ch=1 n=e5 v=99
45000 On ch=1 n=e5 v=0
45000 On ch=1 n=c#5 v=0
45000 On ch=1 n=f#4 v=0
45000 On ch=1 n=b3 v=100
45120 On ch=1 n=b3 v=0
45120 On ch=1 n=d5 v=93
45120 On ch=1 n=b4 v=93
45120 On ch=1 n=f#4 v=93
45240 On ch=1 n=f#4 v=0
45240 On ch=1 n=b4 v=0
45240 On ch=1 n=d5 v=0
45240 On ch=1 n=b3 v=86
45360 On ch=1 n=b3 v=0
45360 On ch=1 n=g3 v=79
45480 On ch=1 n=g3 v=0
45480 On ch=1 n=b4 v=72
45480 On ch=1 n=f4 v=72
45480 On ch=1 n=c#4 v=72
45600 On ch=1 n=c#4 v=0
45600 On ch=1 n=f4 v=0
45600 On ch=1 n=b4 v=0
45600 On ch=1 n=c#4 v=65
45600 On ch=1 n=f4 v=65
45600 On ch=1 n=b4 v=65
45720 On ch=1 n=b4 v=0
45720 On ch=1 n=f4 v=0
45720 On ch=1 n=c#4 v=0
45720 On ch=1 n=f#3 v=60
45840 On ch=1 n=f#3 v=0
45840 On ch=1 n=a#4 v=60
45840 On ch=1 n=f#4 v=60
45840 On ch=1 n=c#4 v=60
45960 On ch=1 n=c#4 v=0
45960 On ch=1 n=f#4 v=0
45960 On ch=1 n=a#4 v=0
45960 On ch=1 n=c#4 v=60
45960 On ch=1 n=f#4 v=60
45960 On ch=1 n=a#4 v=60
46080 On ch=1 n=a#4 v=0
46080 On ch=1 n=f#4 v=0
46080 On ch=1 n=c#4 v=0
46080 On ch=1 n=f#3 v=60
46200 On ch=1 n=f#3 v=0
46200 On ch=1 n=e5 v=60
46200 On ch=1 n=a#4 v=60
46200 On ch=1 n=f#4 v=60
46320 On ch=1 n=f#4 v=0
46320 On ch=1 n=a#4 v=0
46320 On ch=1 n=e5 v=0
46320 On ch=1 n=f#4 v=60
46320 On ch=1 n=a#4 v=60
46320 On ch=1 n=e5 v=60
46440 On ch=1 n=e5 v=0
46440 On ch=1 n=a#4 v=0
46440 On ch=1 n=f#4 v=0
46440 On ch=1 n=b2 v=100
46560 On ch=1 n=b2 v=0
46560 On ch=1 n=d5 v=100
46560 On ch=1 n=f#4 v=100
46560 On ch=1 n=b4 v=100
46680 On ch=1 n=b4 v=0
46680 On ch=1 n=f#4 v=0
46680 On ch=1 n=d5 v=0
46680 On ch=1 n=d5 v=100
46680 On ch=1 n=b4 v=100
46680 On ch=1 n=f#4 v=100
46800 On ch=1 n=f#4 v=0
46800 On ch=1 n=b4 v=0
46800 On ch=1 n=d5 v=0
46800 On ch=1 n=c#4 v=100
46920 On ch=1 n=c#4 v=0
46920 On ch=1 n=e5 v=100
46920 On ch=1 n=c#5 v=100
46920 On ch=1 n=f#4 v=100
47040 On ch=1 n=f#4 v=0
47040 On ch=1 n=c#5 v=0
47040 On ch=1 n=e5 v=0
47040 On ch=1 n=c#5 v=100
47040 On ch=1 n=e5 v=100
47040 On ch=1 n=f#4 v=100
47160 On ch=1 n=f#4 v=0
47160 On ch=1 n=e5 v=0
47160 On ch=1 n=c#5 v=0
47160 On ch=1 n=a#3 v=100
47280 On ch=1 n=a#3 v=0
47280 On ch=1 n=e5 v=100
47280 On ch=1 n=c#5 v=100
47280 On ch=1 n=f#4 v=100
47400 On ch=1 n=f#4 v=0
47400 On ch=1 n=c#5 v=0
47400 On ch=1 n=e5 v=0
47400 On ch=1 n=e5 v=100
47400 On ch=1 n=a#4 v=100
47400 On ch=1 n=f#4 v=100
47520 On ch=1 n=f#4 v=0
47520 On ch=1 n=a#4 v=0
47520 On ch=1 n=e5 v=0
47520 On ch=1 n=b3 v=100
47640 On ch=1 n=b3 v=0
47640 On ch=1 n=d5 v=100
47640 On ch=1 n=b4 v=100
47640 On ch=1 n=f#4 v=100
47760 On ch=1 n=f#4 v=0
47760 On ch=1 n=b4 v=0
47760 On ch=1 n=d5 v=0
47760 On ch=1 n=f#4 v=100
47760 On ch=1 n=b4 v=100
47760 On ch=1 n=d5 v=100
47880 On ch=1 n=d5 v=0
47880 On ch=1 n=b4 v=0
47880 On ch=1 n=f#4 v=0
47880 On ch=1 n=b3 v=100
48000 On ch=1 n=b3 v=0
48000 On ch=1 n=d5 v=100
48000 On ch=1 n=b4 v=100
48000 On ch=1 n=f#4 v=100
48120 On ch=1 n=f#4 v=0
48120 On ch=1 n=b4 v=0
48120 On ch=1 n=d5 v=0
48120 On ch=1 n=d5 v=100
48120 On ch=1 n=b4 v=100
48120 On ch=1 n=f#4 v=100
48240 On ch=1 n=f#4 v=0
48240 On ch=1 n=b4 v=0
48240 On ch=1 n=d5 v=0
48240 On ch=1 n=b3 v=100
48360 On ch=1 n=b3 v=0
48360 On ch=1 n=d5 v=100
48360 On ch=1 n=b4 v=100
48360 On ch=1 n=g#4 v=100
48480 On ch=1 n=g#4 v=0
48480 On ch=1 n=b4 v=0
48480 On ch=1 n=d5 v=0
48480 On ch=1 n=g#4 v=100
48480 On ch=1 n=b4 v=100
48480 On ch=1 n=d5 v=100
48600 On ch=1 n=d5 v=0
48600 On ch=1 n=b4 v=0
48600 On ch=1 n=g#4 v=0
48600 On ch=1 n=b3 v=100
48720 On ch=1 n=b3 v=0
48720 On ch=1 n=e5 v=100
48720 On ch=1 n=b4 v=100
48720 On ch=1 n=g4 v=100
48840 On ch=1 n=g4 v=0
48840 On ch=1 n=b4 v=0
48840 On ch=1 n=e5 v=0
48840 On ch=1 n=g4 v=100
48840 On ch=1 n=b4 v=100
48840 On ch=1 n=e5 v=100
48960 On ch=1 n=e5 v=0
48960 On ch=1 n=b4 v=0
48960 On ch=1 n=g4 v=0
48960 On ch=1 n=b3 v=100
49080 On ch=1 n=b3 v=0
49080 On ch=1 n=e5 v=86
49080 On ch=1 n=c#5 v=86
49080 On ch=1 n=f#4 v=86
49200 On ch=1 n=f#4 v=0
49200 On ch=1 n=c#5 v=0
49200 On ch=1 n=e5 v=0
49200 On ch=1 n=a#4 v=71
49200 On ch=1 n=e5 v=71
49200 On ch=1 n=f#4 v=71
49320 On ch=1 n=f#4 v=0
49320 On ch=1 n=e5 v=0
49320 On ch=1 n=a#4 v=0
49320 On ch=1 n=b3 v=60
49440 On ch=1 n=b3 v=0
49440 On ch=1 n=d5 v=60
49440 On ch=1 n=b4 v=60
49440 On ch=1 n=f#4 v=60
49560 On ch=1 n=f#4 v=0
49560 On ch=1 n=b4 v=0
49560 On ch=1 n=d5 v=0
49560 On ch=1 n=b4 v=60
49560 On ch=1 n=d5 v=60
49560 On ch=1 n=f#4 v=60
49680 On ch=1 n=f#4 v=0
49680 On ch=1 n=d5 v=0
49680 On ch=1 n=b4 v=0
49680 On ch=1 n=c#4 v=60
49800 On ch=1 n=c#4 v=0
49800 On ch=1 n=e5 v=60
49800 On ch=1 n=c#5 v=60
49800 On ch=1 n=f#4 v=60
49920 On ch=1 n=f#4 v=0
49920 On ch=1 n=c#5 v=0
49920 On ch=1 n=e5 v=0
49920 On ch=1 n=c#5 v=60
49920 On ch=1 n=e5 v=60
49920 On ch=1 n=f#4 v=60
50040 On ch=1 n=f#4 v=0
50040 On ch=1 n=e5 v=0
50040 On ch=1 n=c#5 v=0
50040 On ch=1 n=f#3 v=60
50160 On ch=1 n=f#3 v=0
50160 On ch=1 n=e5 v=60
50160 On ch=1 n=a#4 v=60
50160 On ch=1 n=f#4 v=60
50280 On ch=1 n=f#4 v=0
50280 On ch=1 n=a#4 v=0
50280 On ch=1 n=e5 v=0
50280 On ch=1 n=c#5 v=60
50280 On ch=1 n=e5 v=60
50280 On ch=1 n=f#4 v=60
50400 On ch=1 n=f#4 v=0
50400 On ch=1 n=e5 v=0
50400 On ch=1 n=c#5 v=0
50400 On ch=1 n=b3 v=60
50520 On ch=1 n=b3 v=0
50520 On ch=1 n=d5 v=60
50520 On ch=1 n=b4 v=60
50520 On ch=1 n=f#4 v=60
50640 On ch=1 n=f#4 v=0
50640 On ch=1 n=b4 v=0
50640 On ch=1 n=d5 v=0
50640 On ch=1 n=b4 v=60
50640 On ch=1 n=d5 v=60
50640 On ch=1 n=f#4 v=60
50760 On ch=1 n=f#4 v=0
50760 On ch=1 n=d5 v=0
50760 On ch=1 n=b4 v=0
50760 On ch=1 n=d4 v=60
50880 On ch=1 n=d4 v=0
50880 On ch=1 n=d5 v=60
50880 On ch=1 n=b4 v=60
50880 On ch=1 n=f#4 v=60
51000 On ch=1 n=f#4 v=0
51000 On ch=1 n=b4 v=0
51000 On ch=1 n=d5 v=0
51000 On ch=1 n=b4 v=60
51000 On ch=1 n=d5 v=60
51000 On ch=1 n=f#4 v=60
51120 On ch=1 n=f#4 v=0
51120 On ch=1 n=d5 v=0
51120 On ch=1 n=b4 v=0
51120 On ch=1 n=e4 v=60
51240 On ch=1 n=e4 v=0
51240 On ch=1 n=g5 v=60
51240 On ch=1 n=c#5 v=60
51240 On ch=1 n=b4 v=60
51360 On ch=1 n=b4 v=0
51360 On ch=1 n=c#5 v=0
51360 On ch=1 n=g5 v=0
51480 On ch=1 n=f#4 v=60
51600 On ch=1 n=d5 v=60
51600 On ch=1 n=b4 v=60
51720 On ch=1 n=b4 v=0
51720 On ch=1 n=d5 v=0
51720 On ch=1 n=e5 v=60
51720 On ch=1 n=a#4 v=60
51840 On ch=1 n=a#4 v=0
51840 On ch=1 n=e5 v=0
51840 On ch=1 n=f#4 v=0
51840 On ch=1 n=b3 v=60
51900 On ch=1 n=b3 v=0
51960 On ch=1 n=d5 v=60
51960 On ch=1 n=f#4 v=60
52020 On ch=1 n=f#4 v=0
52020 On ch=1 n=d5 v=0
52080 On ch=1 n=d4 v=60
52200 On ch=1 n=d4 v=0
52200 On ch=1 n=c#4 v=60
52320 On ch=1 n=c#4 v=0
52320 On ch=1 n=e5 v=60
52320 On ch=1 n=g4 v=60
52320 On ch=1 n=a4 v=60
52440 On ch=1 n=a4 v=0
52440 On ch=1 n=g4 v=0
52440 On ch=1 n=e5 v=0
52440 On ch=1 n=e5 v=60
52440 On ch=1 n=g4 v=60
52440 On ch=1 n=a4 v=60
52560 On ch=1 n=a4 v=0
52560 On ch=1 n=g4 v=0
52560 On ch=1 n=e5 v=0
52560 On ch=1 n=d4 v=60
52680 On ch=1 n=d4 v=0
52680 On ch=1 n=d5 v=60
52680 On ch=1 n=a4 v=60
52680 On ch=1 n=f#4 v=60
52800 On ch=1 n=f#4 v=0
52800 On ch=1 n=a4 v=0
52800 On ch=1 n=d5 v=0
52800 On ch=1 n=f#4 v=60
52800 On ch=1 n=a4 v=60
52800 On ch=1 n=d5 v=60
52920 On ch=1 n=d5 v=0
52920 On ch=1 n=a4 v=0
52920 On ch=1 n=f#4 v=0
52920 On ch=1 n=a3 v=60
53040 On ch=1 n=a3 v=0
53040 On ch=1 n=g5 v=60
53040 On ch=1 n=c#5 v=60
53040 On ch=1 n=a4 v=60
53160 On ch=1 n=a4 v=0
53160 On ch=1 n=c#5 v=0
53160 On ch=1 n=g5 v=0
53160 On ch=1 n=a4 v=60
53160 On ch=1 n=e5 v=60
53160 On ch=1 n=g5 v=60
53280 On ch=1 n=g5 v=0
53280 On ch=1 n=e5 v=0
53280 On ch=1 n=a4 v=0
53280 On ch=1 n=d4 v=60
53400 On ch=1 n=d4 v=0
53400 On ch=1 n=f#5 v=60
53400 On ch=1 n=d5 v=60
53400 On ch=1 n=a4 v=60
53520 On ch=1 n=a4 v=0
53520 On ch=1 n=d5 v=0
53520 On ch=1 n=f#5 v=0
53520 On ch=1 n=a4 v=60
53520 On ch=1 n=d5 v=60
53520 On ch=1 n=f#5 v=60
53640 On ch=1 n=f#5 v=0
53640 On ch=1 n=d5 v=0
53640 On ch=1 n=a4 v=0
53640 On ch=1 n=c#4 v=60
53760 On ch=1 n=c#4 v=0
53760 On ch=1 n=g5 v=60
53760 On ch=1 n=e5 v=60
53760 On ch=1 n=a4 v=60
53880 On ch=1 n=a4 v=0
53880 On ch=1 n=e5 v=0
53880 On ch=1 n=g5 v=0
53880 On ch=1 n=a4 v=60
53880 On ch=1 n=e5 v=60
53880 On ch=1 n=g5 v=60
54000 On ch=1 n=g5 v=0
54000 On ch=1 n=e5 v=0
54000 On ch=1 n=a4 v=0
54000 On ch=1 n=d4 v=60
54120 On ch=1 n=d4 v=0
54120 On ch=1 n=f#5 v=60
54120 On ch=1 n=d5 v=60
54120 On ch=1 n=a4 v=60
54240 On ch=1 n=a4 v=0
54240 On ch=1 n=d5 v=0
54240 On ch=1 n=f#5 v=0
54240 On ch=1 n=a4 v=60
54240 On ch=1 n=d5 v=60
54240 On ch=1 n=f#5 v=60
54360 On ch=1 n=f#5 v=0
54360 On ch=1 n=d5 v=0
54360 On ch=1 n=a4 v=0
54360 On ch=1 n=g3 v=60
54480 On ch=1 n=g3 v=0
54480 On ch=1 n=e5 v=60
54480 On ch=1 n=b4 v=60
54480 On ch=1 n=g4 v=60
54600 On ch=1 n=g4 v=0
54600 On ch=1 n=b4 v=0
54600 On ch=1 n=e5 v=0
54600 On ch=1 n=g4 v=60
54600 On ch=1 n=b4 v=60
54600 On ch=1 n=e5 v=60
54720 On ch=1 n=e5 v=0
54720 On ch=1 n=b4 v=0
54720 On ch=1 n=g4 v=0
54720 On ch=1 n=f#4 v=60
54720 On ch=1 n=f#3 v=60
54840 On ch=1 n=f#3 v=0
54840 On ch=1 n=f#4 v=0
54840 On ch=1 n=e5 v=60
54840 On ch=1 n=c#5 v=60
54840 On ch=1 n=f#4 v=60
54960 On ch=1 n=f#4 v=0
54960 On ch=1 n=c#5 v=0
54960 On ch=1 n=e5 v=0
54960 On ch=1 n=b4 v=60
54960 On ch=1 n=e5 v=60
54960 On ch=1 n=f#4 v=60
55080 On ch=1 n=f#4 v=0
55080 On ch=1 n=e5 v=0
55080 On ch=1 n=b4 v=0
55080 On ch=1 n=f#3 v=60
55080 On ch=1 n=f#4 v=60
55200 On ch=1 n=f#4 v=0
55200 On ch=1 n=f#3 v=0
55200 On ch=1 n=e5 v=60
55200 On ch=1 n=c#5 v=60
55200 On ch=1 n=f#4 v=60
55320 On ch=1 n=f#4 v=0
55320 On ch=1 n=c#5 v=0
55320 On ch=1 n=e5 v=0
55320 On ch=1 n=a#4 v=60
55320 On ch=1 n=e5 v=60
55320 On ch=1 n=f#4 v=60
55440 On ch=1 n=f#4 v=0
55440 On ch=1 n=e5 v=0
55440 On ch=1 n=a#4 v=0
55440 On ch=1 n=b3 v=60
55560 On ch=1 n=b3 v=0
55560 On ch=1 n=d5 v=59
55560 On ch=1 n=b4 v=59
55560 On ch=1 n=f#4 v=59
55680 On ch=1 n=f#4 v=0
55680 On ch=1 n=b4 v=0
55680 On ch=1 n=d5 v=0
55680 On ch=1 n=f#4 v=58
55680 On ch=1 n=b4 v=58
55680 On ch=1 n=d5 v=58
55800 On ch=1 n=d5 v=0
55800 On ch=1 n=b4 v=0
55800 On ch=1 n=f#4 v=0
55800 On ch=1 n=a3 v=57
55920 On ch=1 n=a3 v=0
55920 On ch=1 n=g5 v=55
55920 On ch=1 n=c#5 v=55
55920 On ch=1 n=a4 v=55
56040 On ch=1 n=a4 v=0
56040 On ch=1 n=c#5 v=0
56040 On ch=1 n=g5 v=0
56040 On ch=1 n=a4 v=54
56040 On ch=1 n=e5 v=54
56040 On ch=1 n=g5 v=54
56160 On ch=1 n=g5 v=0
56160 On ch=1 n=e5 v=0
56160 On ch=1 n=a4 v=0
56160 On ch=1 n=d4 v=53
56280 On ch=1 n=d4 v=0
56280 On ch=1 n=f#5 v=51
56280 On ch=1 n=d5 v=51
56280 On ch=1 n=a4 v=51
56400 On ch=1 n=a4 v=0
56400 On ch=1 n=d5 v=0
56400 On ch=1 n=f#5 v=0
56400 On ch=1 n=a4 v=50
56400 On ch=1 n=d5 v=50
56400 On ch=1 n=f#5 v=50
56520 On ch=1 n=f#5 v=0
56520 On ch=1 n=d5 v=0
56520 On ch=1 n=a4 v=0
56520 On ch=1 n=c#4 v=49
56640 On ch=1 n=c#4 v=0
56640 On ch=1 n=g5 v=47
56640 On ch=1 n=e5 v=47
56640 On ch=1 n=a4 v=47
56760 On ch=1 n=a4 v=0
56760 On ch=1 n=e5 v=0
56760 On ch=1 n=g5 v=0
56760 On ch=1 n=a4 v=46
56760 On ch=1 n=e5 v=46
56760 On ch=1 n=g5 v=46
56880 On ch=1 n=g5 v=0
56880 On ch=1 n=e5 v=0
56880 On ch=1 n=a4 v=0
56880 On ch=1 n=d4 v=45
57000 On ch=1 n=d4 v=0
57000 On ch=1 n=f#5 v=43
57000 On ch=1 n=d5 v=43
57000 On ch=1 n=a4 v=43
57120 On ch=1 n=a4 v=0
57120 On ch=1 n=d5 v=0
57120 On ch=1 n=f#5 v=0
57120 On ch=1 n=a4 v=42
57120 On ch=1 n=d5 v=42
57120 On ch=1 n=f#5 v=42
57240 On ch=1 n=f#5 v=0
57240 On ch=1 n=d5 v=0
57240 On ch=1 n=a4 v=0
57240 On ch=1 n=g3 v=41
57360 On ch=1 n=g3 v=0
57360 On ch=1 n=e5 v=40
57360 On ch=1 n=g4 v=40
57480 On ch=1 n=g4 v=0
57480 On ch=1 n=e5 v=0
57600 On ch=1 n=f#3 v=100
57720 On ch=1 n=f#3 v=0
57720 On ch=1 n=e5 v=100
57720 On ch=1 n=f#4 v=100
57840 On ch=1 n=f#4 v=0
57840 On ch=1 n=e5 v=0
57840 On ch=1 n=a#3 v=100
57960 On ch=1 n=a#3 v=0
57960 On ch=1 n=b3 v=100
58080 On ch=1 n=b3 v=0
58080 On ch=1 n=d5 v=100
58080 On ch=1 n=f#4 v=100
58200 On ch=1 n=f#4 v=0
58200 On ch=1 n=d5 v=0
58200 On ch=1 n=d5 v=100
58200 On ch=1 n=f#4 v=100
58320 On ch=1 n=f#4 v=0
58320 On ch=1 n=d5 v=0
58320 On ch=1 n=c#4 v=100
58440 On ch=1 n=c#4 v=0
58440 On ch=1 n=e5 v=100
58440 On ch=1 n=c#5 v=100
58440 On ch=1 n=f#4 v=100
58560 On ch=1 n=f#4 v=0
58560 On ch=1 n=c#5 v=0
58560 On ch=1 n=e5 v=0
58560 On ch=1 n=c#5 v=100
58560 On ch=1 n=e5 v=100
58560 On ch=1 n=f#4 v=100
58680 On ch=1 n=f#4 v=0
58680 On ch=1 n=e5 v=0
58680 On ch=1 n=c#5 v=0
58680 On ch=1 n=a#3 v=100
58800 On ch=1 n=a#3 v=0
58800 On ch=1 n=e5 v=100
58800 On ch=1 n=c#5 v=100
58800 On ch=1 n=f#4 v=100
58920 On ch=1 n=f#4 v=0
58920 On ch=1 n=c#5 v=0
58920 On ch=1 n=e5 v=0
58920 On ch=1 n=c#5 v=100
58920 On ch=1 n=e5 v=100
58920 On ch=1 n=f#4 v=100
59040 On ch=1 n=f#4 v=0
59040 On ch=1 n=e5 v=0
59040 On ch=1 n=c#5 v=0
59040 On ch=1 n=b3 v=100
59160 On ch=1 n=b3 v=0
59160 On ch=1 n=d5 v=100
59160 On ch=1 n=b4 v=100
59160 On ch=1 n=f#4 v=100
59280 On ch=1 n=f#4 v=0
59280 On ch=1 n=b4 v=0
59280 On ch=1 n=d5 v=0
59280 On ch=1 n=d5 v=100
59280 On ch=1 n=b4 v=100
59280 On ch=1 n=f#4 v=100
59400 On ch=1 n=f#4 v=0
59400 On ch=1 n=b4 v=0
59400 On ch=1 n=d5 v=0
59400 On ch=1 n=b3 v=100
59520 On ch=1 n=b3 v=0
59520 On ch=1 n=d5 v=100
59520 On ch=1 n=b4 v=100
59520 On ch=1 n=f#4 v=100
59640 On ch=1 n=f#4 v=0
59640 On ch=1 n=b4 v=0
59640 On ch=1 n=d5 v=0
59640 On ch=1 n=b4 v=100
59640 On ch=1 n=d5 v=100
59640 On ch=1 n=f#4 v=100
59760 On ch=1 n=f#4 v=0
59760 On ch=1 n=d5 v=0
59760 On ch=1 n=b4 v=0
59760 On ch=1 n=b3 v=100
59880 On ch=1 n=b3 v=0
59880 On ch=1 n=d5 v=100
59880 On ch=1 n=b4 v=100
59880 On ch=1 n=g#4 v=100
60000 On ch=1 n=g#4 v=0
60000 On ch=1 n=b4 v=0
60000 On ch=1 n=d5 v=0
60000 On ch=1 n=g#4 v=100
60000 On ch=1 n=b4 v=100
60000 On ch=1 n=d5 v=100
60120 On ch=1 n=d5 v=0
60120 On ch=1 n=b4 v=0
60120 On ch=1 n=g#4 v=0
60120 On ch=1 n=b3 v=100
60240 On ch=1 n=b3 v=0
60240 On ch=1 n=e5 v=100
60240 On ch=1 n=b4 v=100
60240 On ch=1 n=g4 v=100
60360 On ch=1 n=g4 v=0
60360 On ch=1 n=b4 v=0
60360 On ch=1 n=e5 v=0
60360 On ch=1 n=g4 v=100
60360 On ch=1 n=b4 v=100
60360 On ch=1 n=e5 v=100
60480 On ch=1 n=e5 v=0
60480 On ch=1 n=b4 v=0
60480 On ch=1 n=g4 v=0
60480 On ch=1 n=b3 v=100
60600 On ch=1 n=b3 v=0
60600 On ch=1 n=e5 v=100
60600 On ch=1 n=a#4 v=100
60600 On ch=1 n=f#4 v=100
60720 On ch=1 n=f#4 v=0
60720 On ch=1 n=a#4 v=0
60720 On ch=1 n=e5 v=0
60720 On ch=1 n=f#4 v=100
60720 On ch=1 n=a#4 v=100
60720 On ch=1 n=e5 v=100
60840 On ch=1 n=e5 v=0
60840 On ch=1 n=a#4 v=0
60840 On ch=1 n=f#4 v=0
60840 On ch=1 n=b3 v=100
60960 On ch=1 n=b3 v=0
60960 On ch=1 n=d5 v=100
60960 On ch=1 n=b4 v=100
60960 On ch=1 n=f#4 v=100
61080 On ch=1 n=f#4 v=0
61080 On ch=1 n=b4 v=0
61080 On ch=1 n=d5 v=0
61080 On ch=1 n=f#4 v=100
61080 On ch=1 n=b4 v=100
61080 On ch=1 n=d5 v=100
61200 On ch=1 n=d5 v=0
61200 On ch=1 n=b4 v=0
61200 On ch=1 n=f#4 v=0
61200 On ch=1 n=c#4 v=100
61320 On ch=1 n=c#4 v=0
61320 On ch=1 n=e5 v=100
61320 On ch=1 n=c#5 v=100
61320 On ch=1 n=f#4 v=100
61440 On ch=1 n=f#4 v=0
61440 On ch=1 n=c#5 v=0
61440 On ch=1 n=e5 v=0
61440 On ch=1 n=c#5 v=100
61440 On ch=1 n=e5 v=100
61440 On ch=1 n=f#4 v=100
61560 On ch=1 n=f#4 v=0
61560 On ch=1 n=e5 v=0
61560 On ch=1 n=c#5 v=0
61560 On ch=1 n=a#3 v=100
61680 On ch=1 n=a#3 v=0
61680 On ch=1 n=e5 v=100
61680 On ch=1 n=a#4 v=100
61680 On ch=1 n=f#4 v=100
61800 On ch=1 n=f#4 v=0
61800 On ch=1 n=a#4 v=0
61800 On ch=1 n=e5 v=0
61800 On ch=1 n=c#5 v=100
61800 On ch=1 n=e5 v=100
61800 On ch=1 n=f#4 v=100
61920 On ch=1 n=f#4 v=0
61920 On ch=1 n=e5 v=0
61920 On ch=1 n=c#5 v=0
61920 On ch=1 n=b3 v=100
62040 On ch=1 n=b3 v=0
62040 On ch=1 n=d5 v=100
62040 On ch=1 n=b4 v=100
62040 On ch=1 n=f#4 v=100
62160 On ch=1 n=f#4 v=0
62160 On ch=1 n=b4 v=0
62160 On ch=1 n=d5 v=0
62160 On ch=1 n=b4 v=100
62160 On ch=1 n=d5 v=100
62160 On ch=1 n=f#4 v=100
62280 On ch=1 n=f#4 v=0
62280 On ch=1 n=d5 v=0
62280 On ch=1 n=b4 v=0
62280 On ch=1 n=d4 v=100
62400 On ch=1 n=d4 v=0
62400 On ch=1 n=d5 v=94
62400 On ch=1 n=b4 v=94
62400 On ch=1 n=f#4 v=94
62520 On ch=1 n=f#4 v=0
62520 On ch=1 n=b4 v=0
62520 On ch=1 n=d5 v=0
62520 On ch=1 n=f#4 v=88
62520 On ch=1 n=b4 v=88
62520 On ch=1 n=d5 v=88
62640 On ch=1 n=d5 v=0
62640 On ch=1 n=b4 v=0
62640 On ch=1 n=f#4 v=0
62640 On ch=1 n=e4 v=82
62760 On ch=1 n=e4 v=0
62760 On ch=1 n=c#5 v=75
62760 On ch=1 n=g4 v=75
62880 On ch=1 n=g4 v=0
62880 On ch=1 n=c#5 v=0
63000 On ch=1 n=f#4 v=63
63120 On ch=1 n=d5 v=56
63120 On ch=1 n=b4 v=56
63240 On ch=1 n=b4 v=0
63240 On ch=1 n=d5 v=0
63240 On ch=1 n=e5 v=50
63240 On ch=1 n=a#4 v=50
63360 On ch=1 n=a#4 v=0
63360 On ch=1 n=e5 v=0
63360 On ch=1 n=f#4 v=0
63360 On ch=1 n=d5 v=44
63360 On ch=1 n=b4 v=44
63480 On ch=1 n=b4 v=0
63480 On ch=1 n=d5 v=0
63480 On ch=1 n=b3 v=40
63600 On ch=1 n=b3 v=0
63600 Meta TrkEnd
TrkEnd
MTrk
0 Meta 0x21 00
0 Meta TrkName "Pedal"
0 PrCh ch=1 p=0
360 Par ch=1 c=64 v=127
600 Par ch=1 c=64 v=0
720 Par ch=1 c=64 v=127
960 Par ch=1 c=64 v=0
1080 Par ch=1 c=64 v=127
1320 Par ch=1 c=64 v=0
1440 Par ch=1 c=64 v=127
1680 Par ch=1 c=64 v=0
1800 Par ch=1 c=64 v=127
2040 Par ch=1 c=64 v=0
2160 Par ch=1 c=64 v=127
2400 Par ch=1 c=64 v=0
2520 Par ch=1 c=64 v=127
2760 Par ch=1 c=64 v=0
2880 Par ch=1 c=64 v=127
3120 Par ch=1 c=64 v=0
3240 Par ch=1 c=64 v=127
3480 Par ch=1 c=64 v=0
3600 Par ch=1 c=64 v=127
3840 Par ch=1 c=64 v=0
3960 Par ch=1 c=64 v=127
4200 Par ch=1 c=64 v=0
4320 Par ch=1 c=64 v=127
4560 Par ch=1 c=64 v=0
4680 Par ch=1 c=64 v=127
4920 Par ch=1 c=64 v=0
5040 Par ch=1 c=64 v=127
5280 Par ch=1 c=64 v=0
6120 Par ch=1 c=64 v=127
6360 Par ch=1 c=64 v=0
6480 Par ch=1 c=64 v=127
6720 Par ch=1 c=64 v=0
6840 Par ch=1 c=64 v=127
7080 Par ch=1 c=64 v=0
7200 Par ch=1 c=64 v=127
7440 Par ch=1 c=64 v=0
7560 Par ch=1 c=64 v=127
7800 Par ch=1 c=64 v=0
7920 Par ch=1 c=64 v=127
8160 Par ch=1 c=64 v=0
8280 Par ch=1 c=64 v=127
8520 Par ch=1 c=64 v=0
8640 Par ch=1 c=64 v=127
8880 Par ch=1 c=64 v=0
9000 Par ch=1 c=64 v=127
9240 Par ch=1 c=64 v=0
9360 Par ch=1 c=64 v=127
9600 Par ch=1 c=64 v=0
9720 Par ch=1 c=64 v=127
9960 Par ch=1 c=64 v=0
10080 Par ch=1 c=64 v=127
10320 Par ch=1 c=64 v=0
10440 Par ch=1 c=64 v=127
10680 Par ch=1 c=64 v=0
10800 Par ch=1 c=64 v=127
11040 Par ch=1 c=64 v=0
11880 Par ch=1 c=64 v=127
12120 Par ch=1 c=64 v=0
12240 Par ch=1 c=64 v=127
12480 Par ch=1 c=64 v=0
12600 Par ch=1 c=64 v=127
12840 Par ch=1 c=64 v=0
12960 Par ch=1 c=64 v=127
13200 Par ch=1 c=64 v=0
13320 Par ch=1 c=64 v=127
13560 Par ch=1 c=64 v=0
13680 Par ch=1 c=64 v=127
13920 Par ch=1 c=64 v=0
14040 Par ch=1 c=64 v=127
14280 Par ch=1 c=64 v=0
14400 Par ch=1 c=64 v=127
14640 Par ch=1 c=64 v=0
14760 Par ch=1 c=64 v=127
15000 Par ch=1 c=64 v=0
15120 Par ch=1 c=64 v=127
15360 Par ch=1 c=64 v=0
15480 Par ch=1 c=64 v=127
15720 Par ch=1 c=64 v=0
15840 Par ch=1 c=64 v=127
16080 Par ch=1 c=64 v=0
16200 Par ch=1 c=64 v=127
16440 Par ch=1 c=64 v=0
16560 Par ch=1 c=64 v=127
16800 Par ch=1 c=64 v=0
16920 Par ch=1 c=64 v=127
17160 Par ch=1 c=64 v=0
17280 Par ch=1 c=64 v=127
17520 Par ch=1 c=64 v=0
17640 Par ch=1 c=64 v=127
17880 Par ch=1 c=64 v=0
18000 Par ch=1 c=64 v=127
18240 Par ch=1 c=64 v=0
18360 Par ch=1 c=64 v=127
18600 Par ch=1 c=64 v=0
18720 Par ch=1 c=64 v=127
18960 Par ch=1 c=64 v=0
19080 Par ch=1 c=64 v=127
19320 Par ch=1 c=64 v=0
19440 Par ch=1 c=64 v=127
19680 Par ch=1 c=64 v=0
19800 Par ch=1 c=64 v=127
20040 Par ch=1 c=64 v=0
20160 Par ch=1 c=64 v=127
20400 Par ch=1 c=64 v=0
20520 Par ch=1 c=64 v=127
20760 Par ch=1 c=64 v=0
20880 Par ch=1 c=64 v=127
21120 Par ch=1 c=64 v=0
21240 Par ch=1 c=64 v=127
21480 Par ch=1 c=64 v=0
21600 Par ch=1 c=64 v=127
21840 Par ch=1 c=64 v=0
21960 Par ch=1 c=64 v=127
22200 Par ch=1 c=64 v=0
22320 Par ch=1 c=64 v=127
22560 Par ch=1 c=64 v=0
23400 Par ch=1 c=64 v=127
23640 Par ch=1 c=64 v=0
23760 Par ch=1 c=64 v=127
24000 Par ch=1 c=64 v=0
24120 Par ch=1 c=64 v=127
24360 Par ch=1 c=64 v=0
24480 Par ch=1 c=64 v=127
24720 Par ch=1 c=64 v=0
24840 Par ch=1 c=64 v=127
25080 Par ch=1 c=64 v=0
25200 Par ch=1 c=64 v=127
25440 Par ch=1 c=64 v=0
25560 Par ch=1 c=64 v=127
25800 Par ch=1 c=64 v=0
25920 Par ch=1 c=64 v=127
26160 Par ch=1 c=64 v=0
26280 Par ch=1 c=64 v=127
26520 Par ch=1 c=64 v=0
26640 Par ch=1 c=64 v=127
26880 Par ch=1 c=64 v=0
27000 Par ch=1 c=64 v=127
27240 Par ch=1 c=64 v=0
27360 Par ch=1 c=64 v=127
27600 Par ch=1 c=64 v=0
27720 Par ch=1 c=64 v=127
27960 Par ch=1 c=64 v=0
28080 Par ch=1 c=64 v=127
28320 Par ch=1 c=64 v=0
28440 Par ch=1 c=64 v=127
28680 Par ch=1 c=64 v=0
28800 Par ch=1 c=64 v=127
29040 Par ch=1 c=64 v=0
29160 Par ch=1 c=64 v=127
29400 Par ch=1 c=64 v=0
29520 Par ch=1 c=64 v=127
29760 Par ch=1 c=64 v=0
29880 Par ch=1 c=64 v=127
30120 Par ch=1 c=64 v=0
30240 Par ch=1 c=64 v=127
30480 Par ch=1 c=64 v=0
30600 Par ch=1 c=64 v=127
30840 Par ch=1 c=64 v=0
30960 Par ch=1 c=64 v=127
31200 Par ch=1 c=64 v=0
31320 Par ch=1 c=64 v=127
31560 Par ch=1 c=64 v=0
31680 Par ch=1 c=64 v=127
31920 Par ch=1 c=64 v=0
32040 Par ch=1 c=64 v=127
32280 Par ch=1 c=64 v=0
32400 Par ch=1 c=64 v=127
32640 Par ch=1 c=64 v=0
32760 Par ch=1 c=64 v=127
33000 Par ch=1 c=64 v=0
33120 Par ch=1 c=64 v=127
33360 Par ch=1 c=64 v=0
33480 Par ch=1 c=64 v=127
33720 Par ch=1 c=64 v=0
33840 Par ch=1 c=64 v=127
34080 Par ch=1 c=64 v=0
34920 Par ch=1 c=64 v=127
35160 Par ch=1 c=64 v=0
35280 Par ch=1 c=64 v=127
35520 Par ch=1 c=64 v=0
35640 Par ch=1 c=64 v=127
35880 Par ch=1 c=64 v=0
36000 Par ch=1 c=64 v=127
36240 Par ch=1 c=64 v=0
36360 Par ch=1 c=64 v=127
36600 Par ch=1 c=64 v=0
36720 Par ch=1 c=64 v=127
36960 Par ch=1 c=64 v=0
37080 Par ch=1 c=64 v=127
37320 Par ch=1 c=64 v=0
37440 Par ch=1 c=64 v=127
37680 Par ch=1 c=64 v=0
37800 Par ch=1 c=64 v=127
38040 Par ch=1 c=64 v=0
38160 Par ch=1 c=64 v=127
38400 Par ch=1 c=64 v=0
38520 Par ch=1 c=64 v=127
38760 Par ch=1 c=64 v=0
38880 Par ch=1 c=64 v=127
39120 Par ch=1 c=64 v=0
39240 Par ch=1 c=64 v=127
39480 Par ch=1 c=64 v=0
39600 Par ch=1 c=64 v=127
39840 Par ch=1 c=64 v=0
39960 Par ch=1 c=64 v=127
40200 Par ch=1 c=64 v=0
40320 Par ch=1 c=64 v=127
40560 Par ch=1 c=64 v=0
40680 Par ch=1 c=64 v=127
40920 Par ch=1 c=64 v=0
41040 Par ch=1 c=64 v=127
41280 Par ch=1 c=64 v=0
41400 Par ch=1 c=64 v=127
41640 Par ch=1 c=64 v=0
41760 Par ch=1 c=64 v=127
42000 Par ch=1 c=64 v=0
42120 Par ch=1 c=64 v=127
42360 Par ch=1 c=64 v=0
42480 Par ch=1 c=64 v=127
42720 Par ch=1 c=64 v=0
42840 Par ch=1 c=64 v=127
43080 Par ch=1 c=64 v=0
43200 Par ch=1 c=64 v=127
43440 Par ch=1 c=64 v=0
43560 Par ch=1 c=64 v=127
43800 Par ch=1 c=64 v=0
43920 Par ch=1 c=64 v=127
44160 Par ch=1 c=64 v=0
44280 Par ch=1 c=64 v=127
44520 Par ch=1 c=64 v=0
44640 Par ch=1 c=64 v=127
44880 Par ch=1 c=64 v=0
45000 Par ch=1 c=64 v=127
45240 Par ch=1 c=64 v=0
45360 Par ch=1 c=64 v=127
45600 Par ch=1 c=64 v=0
45720 Par ch=1 c=64 v=127
45960 Par ch=1 c=64 v=0
46080 Par ch=1 c=64 v=127
46320 Par ch=1 c=64 v=0
46440 Par ch=1 c=64 v=127
46680 Par ch=1 c=64 v=0
46800 Par ch=1 c=64 v=127
47040 Par ch=1 c=64 v=0
47160 Par ch=1 c=64 v=127
47400 Par ch=1 c=64 v=0
47520 Par ch=1 c=64 v=127
47760 Par ch=1 c=64 v=0
47880 Par ch=1 c=64 v=127
48120 Par ch=1 c=64 v=0
48240 Par ch=1 c=64 v=127
48480 Par ch=1 c=64 v=0
48600 Par ch=1 c=64 v=127
48840 Par ch=1 c=64 v=0
48960 Par ch=1 c=64 v=127
49200 Par ch=1 c=64 v=0
49320 Par ch=1 c=64 v=127
49560 Par ch=1 c=64 v=0
49680 Par ch=1 c=64 v=127
49920 Par ch=1 c=64 v=0
50040 Par ch=1 c=64 v=127
50280 Par ch=1 c=64 v=0
50400 Par ch=1 c=64 v=127
50640 Par ch=1 c=64 v=0
50760 Par ch=1 c=64 v=127
51000 Par ch=1 c=64 v=0
51120 Par ch=1 c=64 v=127
51360 Par ch=1 c=64 v=0
52200 Par ch=1 c=64 v=127
52440 Par ch=1 c=64 v=0
52560 Par ch=1 c=64 v=127
52800 Par ch=1 c=64 v=0
52920 Par ch=1 c=64 v=127
53160 Par ch=1 c=64 v=0
53280 Par ch=1 c=64 v=127
53520 Par ch=1 c=64 v=0
53640 Par ch=1 c=64 v=127
53880 Par ch=1 c=64 v=0
54000 Par ch=1 c=64 v=127
54240 Par ch=1 c=64 v=0
54360 Par ch=1 c=64 v=127
54600 Par ch=1 c=64 v=0
54720 Par ch=1 c=64 v=127
54960 Par ch=1 c=64 v=0
55080 Par ch=1 c=64 v=127
55320 Par ch=1 c=64 v=0
55440 Par ch=1 c=64 v=127
55680 Par ch=1 c=64 v=0
55800 Par ch=1 c=64 v=127
56040 Par ch=1 c=64 v=0
56160 Par ch=1 c=64 v=127
56400 Par ch=1 c=64 v=0
56520 Par ch=1 c=64 v=127
56760 Par ch=1 c=64 v=0
56880 Par ch=1 c=64 v=127
57120 Par ch=1 c=64 v=0
57240 Par ch=1 c=64 v=127
57480 Par ch=1 c=64 v=0
57600 Par ch=1 c=64 v=127
57840 Par ch=1 c=64 v=0
57960 Par ch=1 c=64 v=127
58200 Par ch=1 c=64 v=0
58320 Par ch=1 c=64 v=127
58560 Par ch=1 c=64 v=0
58680 Par ch=1 c=64 v=127
58920 Par ch=1 c=64 v=0
59040 Par ch=1 c=64 v=127
59280 Par ch=1 c=64 v=0
59400 Par ch=1 c=64 v=127
59640 Par ch=1 c=64 v=0
59760 Par ch=1 c=64 v=127
60000 Par ch=1 c=64 v=0
60120 Par ch=1 c=64 v=127
60360 Par ch=1 c=64 v=0
60480 Par ch=1 c=64 v=127
60720 Par ch=1 c=64 v=0
60840 Par ch=1 c=64 v=127
61080 Par ch=1 c=64 v=0
61200 Par ch=1 c=64 v=127
61440 Par ch=1 c=64 v=0
61560 Par ch=1 c=64 v=127
61800 Par ch=1 c=64 v=0
61920 Par ch=1 c=64 v=127
62160 Par ch=1 c=64 v=0
62280 Par ch=1 c=64 v=127
62520 Par ch=1 c=64 v=0
62640 Par ch=1 c=64 v=127
62880 Par ch=1 c=64 v=0
63600 Par ch=1 c=64 v=127
63840 Par ch=1 c=64 v=0
63840 Meta TrkEnd
TrkEnd
MTrk
0 Meta 0x21 00
0 Meta TrkName "F. Chopin Valse No. 10 in B- Op. 69-2"
0 Meta TrkEnd
TrkEnd
MTrk
0 Meta 0x21 00
0 Meta TrkName "Jeruen E. Dery jawjaw@hotmail.com"
0 Meta TrkEnd
TrkEnd
