MFile 1 7 120
MTrk
0 Meta SeqName ""
0 TimeSig 3/4 24 8
0 KeySig -4 major
0 Tempo 416667
7320 Tempo 535714
7560 Tempo 416667
7560 Meta TrkEnd
TrkEnd
MTrk
0 Meta 0x21 00
0 Meta TrkName "Upper Treble"
0 PrCh ch=1 p=0
240 On ch=1 n=c6 v=80
480 On ch=1 n=c6 v=0
480 On ch=1 n=c#6 v=75
540 On ch=1 n=c#6 v=0
540 On ch=1 n=c6 v=74
600 On ch=1 n=c6 v=0
600 On ch=1 n=a#5 v=72
660 On ch=1 n=a#5 v=0
660 On ch=1 n=g#5 v=71
720 On ch=1 n=g#5 v=0
720 On ch=1 n=g5 v=70
900 On ch=1 n=g5 v=0
900 On ch=1 n=f5 v=70
960 On ch=1 n=f5 v=0
960 On ch=1 n=f5 v=70
1080 On ch=1 n=f5 v=0
1080 On ch=1 n=f6 v=70
1200 On ch=1 n=f6 v=0
1200 On ch=1 n=a#5 v=73
1260 On ch=1 n=a#5 v=0
1260 On ch=1 n=c6 v=75
1320 On ch=1 n=c6 v=0
1320 On ch=1 n=d#6 v=77
1380 On ch=1 n=d#6 v=0
1380 On ch=1 n=c#6 v=79
1395 On ch=1 n=c6 v=79
1410 On ch=1 n=c6 v=0
1410 On ch=1 n=c#6 v=80
1425 On ch=1 n=c#6 v=0
1425 On ch=1 n=d#6 v=80
1440 On ch=1 n=d#6 v=0
1440 On ch=1 n=c#6 v=0
1440 On ch=1 n=c#6 v=80
1620 On ch=1 n=c#6 v=0
1620 On ch=1 n=c6 v=80
1680 On ch=1 n=c6 v=0
1680 On ch=1 n=c6 v=80
1800 On ch=1 n=c6 v=0
1800 On ch=1 n=b5 v=80
1860 On ch=1 n=b5 v=0
1860 On ch=1 n=c6 v=80
1905 On ch=1 n=d#6 v=80
1920 On ch=1 n=d#6 v=0
1920 On ch=1 n=c6 v=0
1920 On ch=1 n=c#6 v=80
1980 On ch=1 n=c#6 v=0
1980 On ch=1 n=c6 v=81
2040 On ch=1 n=c6 v=0
2040 On ch=1 n=f6 v=81
2100 On ch=1 n=f6 v=0
2100 On ch=1 n=g6 v=82
2160 On ch=1 n=g6 v=0
2160 On ch=1 n=g#6 v=82
2220 On ch=1 n=g#6 v=0
2220 On ch=1 n=g#5 v=83
2280 On ch=1 n=g#5 v=0
2280 On ch=1 n=e6 v=83
2340 On ch=1 n=e6 v=0
2340 On ch=1 n=g6 v=83
2400 On ch=1 n=g6 v=0
2400 On ch=1 n=f6 v=84
2460 On ch=1 n=f6 v=0
2460 On ch=1 n=f5 v=84
2520 On ch=1 n=f5 v=0
2520 On ch=1 n=c6 v=85
2580 On ch=1 n=c6 v=0
2580 On ch=1 n=d#6 v=85
2640 On ch=1 n=d#6 v=0
2640 On ch=1 n=c#6 v=86
2700 On ch=1 n=c#6 v=0
2700 On ch=1 n=c#5 v=86
2760 On ch=1 n=c#5 v=0
2760 On ch=1 n=c6 v=87
2820 On ch=1 n=c6 v=0
2820 On ch=1 n=a#5 v=87
2880 On ch=1 n=a#5 v=0
2880 On ch=1 n=g5 v=87
2940 On ch=1 n=g5 v=0
2940 On ch=1 n=c6 v=88
3000 On ch=1 n=c6 v=0
3000 On ch=1 n=b5 v=88
3060 On ch=1 n=b5 v=0
3060 On ch=1 n=c6 v=89
3120 On ch=1 n=c6 v=0
3120 On ch=1 n=c#6 v=89
3180 On ch=1 n=c#6 v=0
3180 On ch=1 n=d6 v=90
3240 On ch=1 n=d6 v=0
3240 On ch=1 n=d#6 v=90
3360 On ch=1 n=d#6 v=0
3360 On ch=1 n=f6 v=91
3420 On ch=1 n=f6 v=0
3420 On ch=1 n=d#6 v=91
3480 On ch=1 n=d#6 v=0
3480 On ch=1 n=c#6 v=92
3540 On ch=1 n=c#6 v=0
3540 On ch=1 n=c6 v=92
3600 On ch=1 n=c6 v=0
3600 On ch=1 n=a#5 v=93
3780 On ch=1 n=a#5 v=0
3780 On ch=1 n=g#5 v=94
3840 On ch=1 n=g#5 v=0
3840 On ch=1 n=g#5 v=94
3960 On ch=1 n=g#5 v=0
3960 On ch=1 n=g#6 v=95
4080 On ch=1 n=g#6 v=0
4080 On ch=1 n=c6 v=96
4140 On ch=1 n=c6 v=0
4140 On ch=1 n=d#6 v=97
4200 On ch=1 n=d#6 v=0
4200 On ch=1 n=g6 v=97
4260 On ch=1 n=g6 v=0
4260 On ch=1 n=f6 v=97
4320 On ch=1 n=f6 v=0
4320 On ch=1 n=d#6 v=98
4500 On ch=1 n=d#6 v=0
4500 On ch=1 n=d6 v=99
4560 On ch=1 n=d6 v=0
4560 On ch=1 n=d6 v=100
4680 On ch=1 n=d6 v=0
4680 On ch=1 n=c7 v=100
4860 On ch=1 n=c7 v=0
4860 On ch=1 n=a#6 v=95
4920 On ch=1 n=a#6 v=0
4920 On ch=1 n=a6 v=94
4980 On ch=1 n=a6 v=0
4980 On ch=1 n=g#6 v=92
5040 On ch=1 n=g#6 v=0
5040 On ch=1 n=g#6 v=90
5100 On ch=1 n=g#6 v=0
5100 On ch=1 n=g6 v=89
5160 On ch=1 n=g6 v=0
5160 On ch=1 n=f6 v=87
5220 On ch=1 n=f6 v=0
5220 On ch=1 n=d#6 v=85
5280 On ch=1 n=d#6 v=0
5280 On ch=1 n=d6 v=83
5340 On ch=1 n=d6 v=0
5340 On ch=1 n=c6 v=82
5400 On ch=1 n=c6 v=0
5400 On ch=1 n=c6 v=80
5460 On ch=1 n=c6 v=0
5460 On ch=1 n=a#5 v=78
5520 On ch=1 n=a#5 v=0
5520 On ch=1 n=a5 v=77
5580 On ch=1 n=a5 v=0
5580 On ch=1 n=a#5 v=75
5625 On ch=1 n=d6 v=74
5640 On ch=1 n=d6 v=0
5640 On ch=1 n=a#5 v=0
5640 On ch=1 n=c6 v=73
5700 On ch=1 n=c6 v=0
5700 On ch=1 n=a#5 v=71
5760 On ch=1 n=a#5 v=0
5760 On ch=1 n=c6 v=70
5820 On ch=1 n=c6 v=0
5820 On ch=1 n=a#5 v=68
5880 On ch=1 n=a#5 v=0
5880 On ch=1 n=a5 v=66
5940 On ch=1 n=a5 v=0
5940 On ch=1 n=a#5 v=65
5985 On ch=1 n=d6 v=63
6000 On ch=1 n=d6 v=0
6000 On ch=1 n=a#5 v=0
6000 On ch=1 n=c6 v=63
6060 On ch=1 n=c6 v=0
6060 On ch=1 n=a#5 v=61
6120 On ch=1 n=a#5 v=0
6120 On ch=1 n=a#5 v=60
6240 On ch=1 n=a#5 v=0
6240 On ch=1 n=c7 v=60
6300 On ch=1 n=c7 v=0
6300 On ch=1 n=a#6 v=60
6360 On ch=1 n=a#6 v=0
6360 On ch=1 n=a6 v=60
6420 On ch=1 n=a6 v=0
6420 On ch=1 n=g#6 v=60
6480 On ch=1 n=g#6 v=0
6480 On ch=1 n=f#6 v=60
6540 On ch=1 n=f#6 v=0
6540 On ch=1 n=g6 v=60
6600 On ch=1 n=g6 v=0
6600 On ch=1 n=d6 v=60
6660 On ch=1 n=d6 v=0
6660 On ch=1 n=d#6 v=60
6720 On ch=1 n=d#6 v=0
6720 On ch=1 n=d#5 v=60
6780 On ch=1 n=d#5 v=0
6780 On ch=1 n=c6 v=60
6840 On ch=1 n=c6 v=0
6840 On ch=1 n=a#5 v=60
6900 On ch=1 n=a#5 v=0
6900 On ch=1 n=a#4 v=60
6960 On ch=1 n=a#4 v=0
6960 On ch=1 n=g5 v=60
7020 On ch=1 n=g5 v=0
7020 On ch=1 n=a#5 v=60
7080 On ch=1 n=a#5 v=0
7080 On ch=1 n=f5 v=60
7140 On ch=1 n=f5 v=0
7140 On ch=1 n=a#5 v=60
7200 On ch=1 n=a#5 v=0
7200 On ch=1 n=d#5 v=60
7380 On ch=1 n=c#6 v=60
7395 On ch=1 n=c6 v=60
7410 On ch=1 n=c6 v=0
7410 On ch=1 n=c#6 v=60
7425 On ch=1 n=c#6 v=0
7425 On ch=1 n=d#6 v=60
7440 On ch=1 n=d#6 v=0
7440 On ch=1 n=c#6 v=0
7440 On ch=1 n=d#5 v=0
7440 On ch=1 n=c#6 v=60
7500 On ch=1 n=c#6 v=0
7500 On ch=1 n=c6 v=60
7560 On ch=1 n=c6 v=0
7560 On ch=1 n=c6 v=80
7680 On ch=1 n=c6 v=0
7680 On ch=1 n=c#6 v=77
7740 On ch=1 n=c#6 v=0
7740 On ch=1 n=c6 v=75
7800 On ch=1 n=c6 v=0
7800 On ch=1 n=a#5 v=73
7860 On ch=1 n=a#5 v=0
7860 On ch=1 n=g#5 v=71
7920 On ch=1 n=g#5 v=0
7920 On ch=1 n=g5 v=70
8100 On ch=1 n=g5 v=0
8100 On ch=1 n=f5 v=70
8160 On ch=1 n=f5 v=0
8160 On ch=1 n=f5 v=70
8280 On ch=1 n=f5 v=0
8280 On ch=1 n=f6 v=70
8400 On ch=1 n=f6 v=0
8400 On ch=1 n=a#5 v=73
8460 On ch=1 n=a#5 v=0
8460 On ch=1 n=c6 v=75
8520 On ch=1 n=c6 v=0
8520 On ch=1 n=d#6 v=77
8580 On ch=1 n=d#6 v=0
8580 On ch=1 n=c#6 v=79
8595 On ch=1 n=c6 v=79
8610 On ch=1 n=c6 v=0
8610 On ch=1 n=c#6 v=80
8625 On ch=1 n=c#6 v=0
8625 On ch=1 n=d#6 v=80
8640 On ch=1 n=d#6 v=0
8640 On ch=1 n=c#6 v=0
8640 On ch=1 n=c#6 v=80
8820 On ch=1 n=c#6 v=0
8820 On ch=1 n=c6 v=81
8880 On ch=1 n=c6 v=0
8880 On ch=1 n=c6 v=81
9000 On ch=1 n=c6 v=0
9000 On ch=1 n=b5 v=82
9060 On ch=1 n=b5 v=0
9060 On ch=1 n=c6 v=82
9105 On ch=1 n=d#6 v=83
9120 On ch=1 n=d#6 v=0
9120 On ch=1 n=c6 v=0
9120 On ch=1 n=c#6 v=83
9180 On ch=1 n=c#6 v=0
9180 On ch=1 n=c6 v=83
9240 On ch=1 n=c6 v=0
9240 On ch=1 n=f6 v=83
9300 On ch=1 n=f6 v=0
9300 On ch=1 n=g6 v=84
9360 On ch=1 n=g6 v=0
9360 On ch=1 n=g#6 v=84
9420 On ch=1 n=g#6 v=0
9420 On ch=1 n=g#5 v=85
9480 On ch=1 n=g#5 v=0
9480 On ch=1 n=e6 v=85
9540 On ch=1 n=e6 v=0
9540 On ch=1 n=g6 v=85
9600 On ch=1 n=g6 v=0
9600 On ch=1 n=f6 v=86
9660 On ch=1 n=f6 v=0
9660 On ch=1 n=f5 v=86
9720 On ch=1 n=f5 v=0
9720 On ch=1 n=c6 v=87
9780 On ch=1 n=c6 v=0
9780 On ch=1 n=d#6 v=87
9840 On ch=1 n=d#6 v=0
9840 On ch=1 n=c#6 v=87
9900 On ch=1 n=c#6 v=0
9900 On ch=1 n=c#5 v=88
9960 On ch=1 n=c#5 v=0
9960 On ch=1 n=c6 v=88
10020 On ch=1 n=c6 v=0
10020 On ch=1 n=a#5 v=88
10080 On ch=1 n=a#5 v=0
10080 On ch=1 n=g5 v=89
10140 On ch=1 n=g5 v=0
10140 On ch=1 n=c6 v=89
10200 On ch=1 n=c6 v=0
10200 On ch=1 n=b5 v=90
10260 On ch=1 n=b5 v=0
10260 On ch=1 n=c6 v=90
10320 On ch=1 n=c6 v=0
10320 On ch=1 n=c#6 v=90
10380 On ch=1 n=c#6 v=0
10380 On ch=1 n=d6 v=91
10440 On ch=1 n=d6 v=0
10440 On ch=1 n=d#6 v=91
10560 On ch=1 n=d#6 v=0
10560 On ch=1 n=f6 v=92
10620 On ch=1 n=f6 v=0
10620 On ch=1 n=d#6 v=92
10680 On ch=1 n=d#6 v=0
10680 On ch=1 n=c#6 v=93
10740 On ch=1 n=c#6 v=0
10740 On ch=1 n=c6 v=93
10800 On ch=1 n=c6 v=0
10800 On ch=1 n=a#5 v=94
10980 On ch=1 n=a#5 v=0
10980 On ch=1 n=g#5 v=95
11040 On ch=1 n=g#5 v=0
11040 On ch=1 n=g#5 v=95
11160 On ch=1 n=g#5 v=0
11160 On ch=1 n=g#6 v=96
11280 On ch=1 n=g#6 v=0
11280 On ch=1 n=c6 v=97
11340 On ch=1 n=c6 v=0
11340 On ch=1 n=d#6 v=97
11400 On ch=1 n=d#6 v=0
11400 On ch=1 n=g6 v=97
11460 On ch=1 n=g6 v=0
11460 On ch=1 n=f6 v=98
11520 On ch=1 n=f6 v=0
11520 On ch=1 n=d#6 v=98
11700 On ch=1 n=d#6 v=0
11700 On ch=1 n=d6 v=99
11760 On ch=1 n=d6 v=0
11760 On ch=1 n=d6 v=100
11880 On ch=1 n=d6 v=0
11880 On ch=1 n=c7 v=100
12060 On ch=1 n=c7 v=0
12060 On ch=1 n=a#6 v=95
12120 On ch=1 n=a#6 v=0
12120 On ch=1 n=a6 v=94
12180 On ch=1 n=a6 v=0
12180 On ch=1 n=g#6 v=92
12240 On ch=1 n=g#6 v=0
12240 On ch=1 n=g#6 v=90
12300 On ch=1 n=g#6 v=0
12300 On ch=1 n=g6 v=89
12360 On ch=1 n=g6 v=0
12360 On ch=1 n=f6 v=87
12420 On ch=1 n=f6 v=0
12420 On ch=1 n=d#6 v=85
12480 On ch=1 n=d#6 v=0
12480 On ch=1 n=d6 v=83
12540 On ch=1 n=d6 v=0
12540 On ch=1 n=c6 v=82
12600 On ch=1 n=c6 v=0
12600 On ch=1 n=c6 v=80
12660 On ch=1 n=c6 v=0
12660 On ch=1 n=a#5 v=78
12720 On ch=1 n=a#5 v=0
12720 On ch=1 n=a5 v=77
12780 On ch=1 n=a5 v=0
12780 On ch=1 n=a#5 v=75
12825 On ch=1 n=d6 v=74
12840 On ch=1 n=d6 v=0
12840 On ch=1 n=a#5 v=0
12840 On ch=1 n=c6 v=73
12900 On ch=1 n=c6 v=0
12900 On ch=1 n=a#5 v=71
12960 On ch=1 n=a#5 v=0
12960 On ch=1 n=c6 v=70
13020 On ch=1 n=c6 v=0
13020 On ch=1 n=a#5 v=68
13080 On ch=1 n=a#5 v=0
13080 On ch=1 n=a5 v=66
13140 On ch=1 n=a5 v=0
13140 On ch=1 n=a#5 v=65
13185 On ch=1 n=d6 v=63
13200 On ch=1 n=d6 v=0
13200 On ch=1 n=a#5 v=0
13200 On ch=1 n=c6 v=63
13260 On ch=1 n=c6 v=0
13260 On ch=1 n=a#5 v=61
13320 On ch=1 n=a#5 v=0
13320 On ch=1 n=a#5 v=60
13440 On ch=1 n=a#5 v=0
13440 On ch=1 n=c7 v=60
13500 On ch=1 n=c7 v=0
13500 On ch=1 n=a#6 v=60
13560 On ch=1 n=a#6 v=0
13560 On ch=1 n=a6 v=60
13620 On ch=1 n=a6 v=0
13620 On ch=1 n=g#6 v=60
13680 On ch=1 n=g#6 v=0
13680 On ch=1 n=f#6 v=60
13740 On ch=1 n=f#6 v=0
13740 On ch=1 n=g6 v=60
13800 On ch=1 n=g6 v=0
13800 On ch=1 n=d6 v=60
13860 On ch=1 n=d6 v=0
13860 On ch=1 n=d#6 v=60
13920 On ch=1 n=d#6 v=0
13920 On ch=1 n=d#5 v=60
13980 On ch=1 n=d#5 v=0
13980 On ch=1 n=c6 v=60
14040 On ch=1 n=c6 v=0
14040 On ch=1 n=a#5 v=60
14100 On ch=1 n=a#5 v=0
14100 On ch=1 n=a#4 v=60
14160 On ch=1 n=a#4 v=0
14160 On ch=1 n=g5 v=60
14220 On ch=1 n=g5 v=0
14220 On ch=1 n=a#5 v=60
14280 On ch=1 n=a#5 v=0
14280 On ch=1 n=f5 v=60
14340 On ch=1 n=f5 v=0
14340 On ch=1 n=a#5 v=60
14400 On ch=1 n=a#5 v=0
14400 On ch=1 n=d#5 v=60
14640 On ch=1 n=d#5 v=0
14640 On ch=1 n=e5 v=60
14760 On ch=1 n=e5 v=0
14760 On ch=1 n=f5 v=60
15000 On ch=1 n=f5 v=0
15000 On ch=1 n=g5 v=60
15090 On ch=1 n=g#5 v=60
15105 On ch=1 n=g#5 v=0
15105 On ch=1 n=a#5 v=60
15120 On ch=1 n=a#5 v=0
15120 On ch=1 n=g5 v=0
15120 On ch=1 n=g#5 v=60
15240 On ch=1 n=g#5 v=0
15240 On ch=1 n=g5 v=60
15300 On ch=1 n=g5 v=0
15300 On ch=1 n=g#5 v=60
15360 On ch=1 n=g#5 v=0
15360 On ch=1 n=c6 v=60
15420 On ch=1 n=c6 v=0
15420 On ch=1 n=a#5 v=60
15480 On ch=1 n=a#5 v=0
15600 On ch=1 n=d5 v=60
15660 On ch=1 n=d5 v=0
15660 On ch=1 n=f5 v=60
15720 On ch=1 n=f5 v=0
15720 On ch=1 n=d#5 v=60
15780 On ch=1 n=d#5 v=0
15780 On ch=1 n=g#5 v=60
15840 On ch=1 n=g#5 v=0
15840 On ch=1 n=c5 v=60
16200 On ch=1 n=c5 v=0
16200 On ch=1 n=g4 v=60
16260 On ch=1 n=g4 v=0
16260 On ch=1 n=c#5 v=67
16320 On ch=1 n=c#5 v=0
16320 On ch=1 n=d#5 v=74
16380 On ch=1 n=d#5 v=0
16380 On ch=1 n=g5 v=82
16440 On ch=1 n=g5 v=0
16440 On ch=1 n=c#6 v=89
16500 On ch=1 n=c#6 v=0
16500 On ch=1 n=f6 v=97
16545 On ch=1 n=c#6 v=100
16560 On ch=1 n=f6 v=0
16560 On ch=1 n=f6 v=100
16800 On ch=1 n=f6 v=0
16800 On ch=1 n=c#6 v=0
16800 On ch=1 n=c#6 v=100
16800 On ch=1 n=d#6 v=100
16890 On ch=1 n=d#6 v=100
16905 On ch=1 n=d#6 v=0
16905 On ch=1 n=f6 v=100
16920 On ch=1 n=f6 v=0
16920 On ch=1 n=d#6 v=0
16920 On ch=1 n=c#6 v=0
16920 On ch=1 n=c6 v=100
16920 On ch=1 n=d#6 v=100
17040 On ch=1 n=d#6 v=0
17040 On ch=1 n=c6 v=0
17040 On ch=1 n=b5 v=100
17040 On ch=1 n=d6 v=100
17100 On ch=1 n=d6 v=0
17100 On ch=1 n=b5 v=0
17100 On ch=1 n=d#6 v=100
17100 On ch=1 n=c6 v=100
17160 On ch=1 n=c6 v=0
17160 On ch=1 n=d#6 v=0
17160 On ch=1 n=f6 v=100
17160 On ch=1 n=c#6 v=100
17220 On ch=1 n=c#6 v=0
17220 On ch=1 n=f6 v=0
17220 On ch=1 n=c6 v=100
17220 On ch=1 n=d#6 v=100
17280 On ch=1 n=d#6 v=0
17280 On ch=1 n=c6 v=0
17280 On ch=1 n=c6 v=100
17280 On ch=1 n=g#6 v=100
17520 On ch=1 n=g#6 v=0
17520 On ch=1 n=c6 v=0
17520 On ch=1 n=g5 v=60
17640 On ch=1 n=g5 v=0
17640 On ch=1 n=f5 v=60
17880 On ch=1 n=f5 v=0
17880 On ch=1 n=g5 v=60
17970 On ch=1 n=g#5 v=60
17985 On ch=1 n=g#5 v=0
17985 On ch=1 n=a#5 v=60
18000 On ch=1 n=a#5 v=0
18000 On ch=1 n=g5 v=0
18000 On ch=1 n=g#5 v=60
18120 On ch=1 n=g#5 v=0
18120 On ch=1 n=g5 v=60
18180 On ch=1 n=g5 v=0
18180 On ch=1 n=g#5 v=60
18240 On ch=1 n=g#5 v=0
18240 On ch=1 n=c6 v=60
18300 On ch=1 n=c6 v=0
18300 On ch=1 n=a#5 v=60
18360 On ch=1 n=a#5 v=0
18480 On ch=1 n=d5 v=60
18540 On ch=1 n=d5 v=0
18540 On ch=1 n=f5 v=60
18600 On ch=1 n=f5 v=0
18600 On ch=1 n=d#5 v=60
18660 On ch=1 n=d#5 v=0
18660 On ch=1 n=g#5 v=60
18720 On ch=1 n=g#5 v=0
18720 On ch=1 n=c5 v=60
19080 On ch=1 n=c5 v=0
19080 On ch=1 n=g4 v=100
19140 On ch=1 n=g4 v=0
19140 On ch=1 n=c5 v=100
19200 On ch=1 n=c5 v=0
19200 On ch=1 n=d#5 v=100
19260 On ch=1 n=d#5 v=0
19260 On ch=1 n=g5 v=100
19320 On ch=1 n=g5 v=0
19320 On ch=1 n=c6 v=100
19410 On ch=1 n=c6 v=0
19410 On ch=1 n=d#6 v=100
19425 On ch=1 n=g5 v=100
19440 On ch=1 n=d#6 v=0
19440 On ch=1 n=d#6 v=100
19680 On ch=1 n=d#6 v=0
19680 On ch=1 n=g5 v=0
19680 On ch=1 n=f5 v=100
19680 On ch=1 n=d6 v=100
20010 On ch=1 n=d6 v=0
20010 On ch=1 n=f5 v=0
20010 On ch=1 n=d#5 v=59
20010 On ch=1 n=c6 v=59
20040 On ch=1 n=c6 v=0
20040 On ch=1 n=d#5 v=0
20040 On ch=1 n=d#5 v=53
20040 On ch=1 n=c6 v=53
20370 On ch=1 n=c6 v=0
20370 On ch=1 n=d#5 v=0
20370 On ch=1 n=d#5 v=40
20370 On ch=1 n=c6 v=40
20400 On ch=1 n=c6 v=0
20400 On ch=1 n=d#5 v=0
20400 On ch=1 n=d#5 v=40
20400 On ch=1 n=c6 v=40
20520 On ch=1 n=d#5 v=0
20640 On ch=1 n=c6 v=0
20640 On ch=1 n=f5 v=60
20760 On ch=1 n=f5 v=0
20760 On ch=1 n=g5 v=60
20850 On ch=1 n=g#5 v=60
20865 On ch=1 n=g#5 v=0
20865 On ch=1 n=a#5 v=60
20880 On ch=1 n=a#5 v=0
20880 On ch=1 n=g5 v=0
20880 On ch=1 n=g#5 v=60
21000 On ch=1 n=g#5 v=0
21000 On ch=1 n=g5 v=60
21060 On ch=1 n=g5 v=0
21060 On ch=1 n=g#5 v=60
21120 On ch=1 n=g#5 v=0
21120 On ch=1 n=c6 v=60
21180 On ch=1 n=c6 v=0
21180 On ch=1 n=a#5 v=60
21240 On ch=1 n=a#5 v=0
21360 On ch=1 n=d5 v=60
21420 On ch=1 n=d5 v=0
21420 On ch=1 n=f5 v=60
21480 On ch=1 n=f5 v=0
21480 On ch=1 n=d#5 v=60
21540 On ch=1 n=d#5 v=0
21540 On ch=1 n=g#5 v=60
21600 On ch=1 n=g#5 v=0
21600 On ch=1 n=c5 v=60
21960 On ch=1 n=c5 v=0
21960 On ch=1 n=g4 v=60
22020 On ch=1 n=g4 v=0
22020 On ch=1 n=c#5 v=67
22080 On ch=1 n=c#5 v=0
22080 On ch=1 n=d#5 v=74
22140 On ch=1 n=d#5 v=0
22140 On ch=1 n=g5 v=82
22200 On ch=1 n=g5 v=0
22200 On ch=1 n=c#6 v=89
22260 On ch=1 n=c#6 v=0
22260 On ch=1 n=f6 v=97
22305 On ch=1 n=c#6 v=100
22320 On ch=1 n=f6 v=0
22320 On ch=1 n=f6 v=100
22560 On ch=1 n=f6 v=0
22560 On ch=1 n=c#6 v=0
22560 On ch=1 n=c#6 v=100
22560 On ch=1 n=d#6 v=100
22650 On ch=1 n=d#6 v=100
22665 On ch=1 n=d#6 v=0
22665 On ch=1 n=f6 v=100
22680 On ch=1 n=f6 v=0
22680 On ch=1 n=d#6 v=0
22680 On ch=1 n=c#6 v=0
22680 On ch=1 n=c6 v=100
22680 On ch=1 n=d#6 v=100
22800 On ch=1 n=d#6 v=0
22800 On ch=1 n=c6 v=0
22800 On ch=1 n=b5 v=100
22800 On ch=1 n=d6 v=100
22860 On ch=1 n=d6 v=0
22860 On ch=1 n=b5 v=0
22860 On ch=1 n=d#6 v=100
22860 On ch=1 n=c6 v=100
22920 On ch=1 n=c6 v=0
22920 On ch=1 n=d#6 v=0
22920 On ch=1 n=f6 v=100
22920 On ch=1 n=c#6 v=100
22980 On ch=1 n=c#6 v=0
22980 On ch=1 n=f6 v=0
22980 On ch=1 n=c6 v=100
22980 On ch=1 n=d#6 v=100
23040 On ch=1 n=d#6 v=0
23040 On ch=1 n=c6 v=0
23040 On ch=1 n=c6 v=100
23040 On ch=1 n=g#6 v=100
23280 On ch=1 n=g#6 v=0
23280 On ch=1 n=c6 v=0
23280 On ch=1 n=g5 v=60
23400 On ch=1 n=g5 v=0
23400 On ch=1 n=f5 v=60
23640 On ch=1 n=f5 v=0
23640 On ch=1 n=g5 v=60
23730 On ch=1 n=g#5 v=60
23745 On ch=1 n=g#5 v=0
23745 On ch=1 n=a#5 v=60
23760 On ch=1 n=a#5 v=0
23760 On ch=1 n=g5 v=0
23760 On ch=1 n=g#5 v=60
23880 On ch=1 n=g#5 v=0
23880 On ch=1 n=g5 v=60
23940 On ch=1 n=g5 v=0
23940 On ch=1 n=g#5 v=60
24000 On ch=1 n=g#5 v=0
24000 On ch=1 n=c6 v=60
24060 On ch=1 n=c6 v=0
24060 On ch=1 n=a#5 v=60
24120 On ch=1 n=a#5 v=0
24240 On ch=1 n=d5 v=60
24300 On ch=1 n=d5 v=0
24300 On ch=1 n=f5 v=60
24360 On ch=1 n=f5 v=0
24360 On ch=1 n=d#5 v=60
24420 On ch=1 n=d#5 v=0
24420 On ch=1 n=g#5 v=60
24480 On ch=1 n=g#5 v=0
24480 On ch=1 n=c5 v=60
24840 On ch=1 n=c5 v=0
24960 On ch=1 n=d5 v=63
25020 On ch=1 n=d5 v=0
25020 On ch=1 n=d#5 v=65
25080 On ch=1 n=d#5 v=0
25080 On ch=1 n=f5 v=67
25140 On ch=1 n=f5 v=0
25140 On ch=1 n=g5 v=69
25200 On ch=1 n=g5 v=0
25200 On ch=1 n=f5 v=71
25224 On ch=1 n=f5 v=0
25224 On ch=1 n=g5 v=71
25248 On ch=1 n=g5 v=0
25248 On ch=1 n=f5 v=72
25272 On ch=1 n=f5 v=0
25272 On ch=1 n=g5 v=73
25296 On ch=1 n=g5 v=0
25296 On ch=1 n=f5 v=74
25320 On ch=1 n=f5 v=0
25320 On ch=1 n=e5 v=74
25380 On ch=1 n=e5 v=0
25380 On ch=1 n=f5 v=76
25440 On ch=1 n=f5 v=0
25440 On ch=1 n=g5 v=78
25500 On ch=1 n=g5 v=0
25500 On ch=1 n=g#5 v=80
25560 On ch=1 n=g#5 v=0
25560 On ch=1 n=g#5 v=82
25584 On ch=1 n=g#5 v=0
25584 On ch=1 n=a#5 v=83
25608 On ch=1 n=a#5 v=0
25608 On ch=1 n=g#5 v=83
25632 On ch=1 n=g#5 v=0
25632 On ch=1 n=a#5 v=84
25656 On ch=1 n=a#5 v=0
25656 On ch=1 n=g#5 v=85
25680 On ch=1 n=g#5 v=0
25680 On ch=1 n=g5 v=86
25740 On ch=1 n=g5 v=0
25740 On ch=1 n=g#5 v=88
25800 On ch=1 n=g#5 v=0
25800 On ch=1 n=a#5 v=89
25860 On ch=1 n=a#5 v=0
25860 On ch=1 n=c6 v=91
25920 On ch=1 n=c6 v=0
25920 On ch=1 n=g#5 v=93
26160 On ch=1 n=g#5 v=0
26160 On ch=1 n=c6 v=100
26400 On ch=1 n=c6 v=0
26400 On ch=1 n=c#6 v=80
26460 On ch=1 n=c#6 v=0
26460 On ch=1 n=c6 v=80
26520 On ch=1 n=c6 v=0
26520 On ch=1 n=a#5 v=80
26580 On ch=1 n=a#5 v=0
26580 On ch=1 n=g#5 v=80
26640 On ch=1 n=g#5 v=0
26640 On ch=1 n=g5 v=80
26820 On ch=1 n=g5 v=0
26820 On ch=1 n=f5 v=80
26880 On ch=1 n=f5 v=0
26880 On ch=1 n=f5 v=80
27000 On ch=1 n=f5 v=0
27000 On ch=1 n=f6 v=80
27120 On ch=1 n=f6 v=0
27120 On ch=1 n=a#5 v=80
27180 On ch=1 n=a#5 v=0
27180 On ch=1 n=c6 v=80
27240 On ch=1 n=c6 v=0
27240 On ch=1 n=d#6 v=80
27300 On ch=1 n=d#6 v=0
27300 On ch=1 n=c#6 v=80
27315 On ch=1 n=c6 v=80
27330 On ch=1 n=c6 v=0
27330 On ch=1 n=c#6 v=80
27345 On ch=1 n=c#6 v=0
27345 On ch=1 n=d#6 v=80
27360 On ch=1 n=d#6 v=0
27360 On ch=1 n=c#6 v=0
27360 On ch=1 n=c#6 v=80
27540 On ch=1 n=c#6 v=0
27540 On ch=1 n=c6 v=80
27600 On ch=1 n=c6 v=0
27600 On ch=1 n=c6 v=80
27720 On ch=1 n=c6 v=0
27720 On ch=1 n=b5 v=80
27780 On ch=1 n=b5 v=0
27780 On ch=1 n=c6 v=80
27825 On ch=1 n=d#6 v=80
27840 On ch=1 n=d#6 v=0
27840 On ch=1 n=c6 v=0
27840 On ch=1 n=c#6 v=80
27900 On ch=1 n=c#6 v=0
27900 On ch=1 n=c6 v=81
27960 On ch=1 n=c6 v=0
27960 On ch=1 n=f6 v=81
28020 On ch=1 n=f6 v=0
28020 On ch=1 n=g6 v=82
28080 On ch=1 n=g6 v=0
28080 On ch=1 n=g#6 v=82
28140 On ch=1 n=g#6 v=0
28140 On ch=1 n=g#5 v=83
28200 On ch=1 n=g#5 v=0
28200 On ch=1 n=e6 v=83
28260 On ch=1 n=e6 v=0
28260 On ch=1 n=g6 v=83
28320 On ch=1 n=g6 v=0
28320 On ch=1 n=f6 v=84
28380 On ch=1 n=f6 v=0
28380 On ch=1 n=f5 v=84
28440 On ch=1 n=f5 v=0
28440 On ch=1 n=c6 v=85
28500 On ch=1 n=c6 v=0
28500 On ch=1 n=d#6 v=85
28560 On ch=1 n=d#6 v=0
28560 On ch=1 n=c#6 v=86
28620 On ch=1 n=c#6 v=0
28620 On ch=1 n=c#5 v=86
28680 On ch=1 n=c#5 v=0
28680 On ch=1 n=c6 v=87
28740 On ch=1 n=c6 v=0
28740 On ch=1 n=a#5 v=87
28800 On ch=1 n=a#5 v=0
28800 On ch=1 n=g5 v=87
28860 On ch=1 n=g5 v=0
28860 On ch=1 n=c6 v=88
28920 On ch=1 n=c6 v=0
28920 On ch=1 n=b5 v=88
28980 On ch=1 n=b5 v=0
28980 On ch=1 n=c6 v=89
29040 On ch=1 n=c6 v=0
29040 On ch=1 n=c#6 v=89
29100 On ch=1 n=c#6 v=0
29100 On ch=1 n=d6 v=90
29160 On ch=1 n=d6 v=0
29160 On ch=1 n=d#6 v=90
29280 On ch=1 n=d#6 v=0
29280 On ch=1 n=f6 v=91
29340 On ch=1 n=f6 v=0
29340 On ch=1 n=d#6 v=91
29400 On ch=1 n=d#6 v=0
29400 On ch=1 n=c#6 v=92
29460 On ch=1 n=c#6 v=0
29460 On ch=1 n=c6 v=92
29520 On ch=1 n=c6 v=0
29520 On ch=1 n=a#5 v=93
29700 On ch=1 n=a#5 v=0
29700 On ch=1 n=g#5 v=94
29760 On ch=1 n=g#5 v=0
29760 On ch=1 n=g#5 v=94
29880 On ch=1 n=g#5 v=0
29880 On ch=1 n=g#6 v=95
30000 On ch=1 n=g#6 v=0
30000 On ch=1 n=c6 v=96
30060 On ch=1 n=c6 v=0
30060 On ch=1 n=d#6 v=97
30120 On ch=1 n=d#6 v=0
30120 On ch=1 n=g6 v=97
30180 On ch=1 n=g6 v=0
30180 On ch=1 n=f6 v=97
30240 On ch=1 n=f6 v=0
30240 On ch=1 n=d#6 v=98
30420 On ch=1 n=d#6 v=0
30420 On ch=1 n=d6 v=99
30480 On ch=1 n=d6 v=0
30480 On ch=1 n=d6 v=100
30600 On ch=1 n=d6 v=0
30600 On ch=1 n=c7 v=100
30780 On ch=1 n=c7 v=0
30780 On ch=1 n=a#6 v=95
30840 On ch=1 n=a#6 v=0
30840 On ch=1 n=a6 v=94
30900 On ch=1 n=a6 v=0
30900 On ch=1 n=g#6 v=92
30960 On ch=1 n=g#6 v=0
30960 On ch=1 n=g#6 v=90
31020 On ch=1 n=g#6 v=0
31020 On ch=1 n=g6 v=89
31080 On ch=1 n=g6 v=0
31080 On ch=1 n=f6 v=87
31140 On ch=1 n=f6 v=0
31140 On ch=1 n=d#6 v=85
31200 On ch=1 n=d#6 v=0
31200 On ch=1 n=d6 v=83
31260 On ch=1 n=d6 v=0
31260 On ch=1 n=c6 v=82
31320 On ch=1 n=c6 v=0
31320 On ch=1 n=c6 v=80
31380 On ch=1 n=c6 v=0
31380 On ch=1 n=a#5 v=78
31440 On ch=1 n=a#5 v=0
31440 On ch=1 n=a5 v=77
31500 On ch=1 n=a5 v=0
31500 On ch=1 n=a#5 v=75
31545 On ch=1 n=d6 v=74
31560 On ch=1 n=d6 v=0
31560 On ch=1 n=a#5 v=0
31560 On ch=1 n=c6 v=73
31620 On ch=1 n=c6 v=0
31620 On ch=1 n=a#5 v=71
31680 On ch=1 n=a#5 v=0
31680 On ch=1 n=c6 v=70
31740 On ch=1 n=c6 v=0
31740 On ch=1 n=a#5 v=68
31800 On ch=1 n=a#5 v=0
31800 On ch=1 n=a5 v=66
31860 On ch=1 n=a5 v=0
31860 On ch=1 n=a#5 v=65
31905 On ch=1 n=d6 v=63
31920 On ch=1 n=d6 v=0
31920 On ch=1 n=a#5 v=0
31920 On ch=1 n=c6 v=63
31980 On ch=1 n=c6 v=0
31980 On ch=1 n=a#5 v=61
32040 On ch=1 n=a#5 v=0
32040 On ch=1 n=a#5 v=60
32160 On ch=1 n=a#5 v=0
32160 On ch=1 n=c7 v=60
32220 On ch=1 n=c7 v=0
32220 On ch=1 n=a#6 v=60
32280 On ch=1 n=a#6 v=0
32280 On ch=1 n=a6 v=60
32340 On ch=1 n=a6 v=0
32340 On ch=1 n=g#6 v=60
32400 On ch=1 n=g#6 v=0
32400 On ch=1 n=f#6 v=60
32460 On ch=1 n=f#6 v=0
32460 On ch=1 n=g6 v=60
32520 On ch=1 n=g6 v=0
32520 On ch=1 n=d6 v=60
32580 On ch=1 n=d6 v=0
32580 On ch=1 n=d#6 v=60
32640 On ch=1 n=d#6 v=0
32640 On ch=1 n=d#5 v=60
32700 On ch=1 n=d#5 v=0
32700 On ch=1 n=c6 v=60
32760 On ch=1 n=c6 v=0
32760 On ch=1 n=a#5 v=60
32820 On ch=1 n=a#5 v=0
32820 On ch=1 n=a#4 v=60
32880 On ch=1 n=a#4 v=0
32880 On ch=1 n=g5 v=60
32940 On ch=1 n=g5 v=0
32940 On ch=1 n=a#5 v=60
33000 On ch=1 n=a#5 v=0
33000 On ch=1 n=f5 v=60
33060 On ch=1 n=f5 v=0
33060 On ch=1 n=a#5 v=60
33120 On ch=1 n=a#5 v=0
33120 On ch=1 n=d#5 v=60
33360 On ch=1 n=d#5 v=0
33360 On ch=1 n=e5 v=60
33480 On ch=1 n=e5 v=0
33480 On ch=1 n=f5 v=60
33720 On ch=1 n=f5 v=0
33720 On ch=1 n=g5 v=60
33810 On ch=1 n=g#5 v=60
33825 On ch=1 n=g#5 v=0
33825 On ch=1 n=a#5 v=60
33840 On ch=1 n=a#5 v=0
33840 On ch=1 n=g5 v=0
33840 On ch=1 n=g#5 v=60
33960 On ch=1 n=g#5 v=0
33960 On ch=1 n=g5 v=60
34020 On ch=1 n=g5 v=0
34020 On ch=1 n=g#5 v=60
34080 On ch=1 n=g#5 v=0
34080 On ch=1 n=c6 v=60
34140 On ch=1 n=c6 v=0
34140 On ch=1 n=a#5 v=60
34200 On ch=1 n=a#5 v=0
34320 On ch=1 n=d5 v=60
34380 On ch=1 n=d5 v=0
34380 On ch=1 n=f5 v=60
34440 On ch=1 n=f5 v=0
34440 On ch=1 n=d#5 v=60
34500 On ch=1 n=d#5 v=0
34500 On ch=1 n=g#5 v=60
34560 On ch=1 n=g#5 v=0
34560 On ch=1 n=c5 v=60
34920 On ch=1 n=c5 v=0
34920 On ch=1 n=g4 v=60
34980 On ch=1 n=g4 v=0
34980 On ch=1 n=c#5 v=67
35040 On ch=1 n=c#5 v=0
35040 On ch=1 n=d#5 v=74
35100 On ch=1 n=d#5 v=0
35100 On ch=1 n=g5 v=82
35160 On ch=1 n=g5 v=0
35160 On ch=1 n=c#6 v=89
35220 On ch=1 n=c#6 v=0
35220 On ch=1 n=f6 v=97
35265 On ch=1 n=c#6 v=100
35280 On ch=1 n=f6 v=0
35280 On ch=1 n=f6 v=100
35520 On ch=1 n=f6 v=0
35520 On ch=1 n=c#6 v=0
35520 On ch=1 n=c#6 v=100
35520 On ch=1 n=d#6 v=100
35610 On ch=1 n=d#6 v=100
35625 On ch=1 n=d#6 v=0
35625 On ch=1 n=f6 v=100
35640 On ch=1 n=f6 v=0
35640 On ch=1 n=d#6 v=0
35640 On ch=1 n=c#6 v=0
35640 On ch=1 n=c6 v=100
35640 On ch=1 n=d#6 v=100
35760 On ch=1 n=d#6 v=0
35760 On ch=1 n=c6 v=0
35760 On ch=1 n=b5 v=100
35760 On ch=1 n=d6 v=100
35820 On ch=1 n=d6 v=0
35820 On ch=1 n=b5 v=0
35820 On ch=1 n=d#6 v=100
35820 On ch=1 n=c6 v=100
35880 On ch=1 n=c6 v=0
35880 On ch=1 n=d#6 v=0
35880 On ch=1 n=f6 v=100
35880 On ch=1 n=c#6 v=100
35940 On ch=1 n=c#6 v=0
35940 On ch=1 n=f6 v=0
35940 On ch=1 n=c6 v=100
35940 On ch=1 n=d#6 v=100
36000 On ch=1 n=d#6 v=0
36000 On ch=1 n=c6 v=0
36000 On ch=1 n=c6 v=100
36000 On ch=1 n=g#6 v=100
36240 On ch=1 n=g#6 v=0
36240 On ch=1 n=c6 v=0
36240 On ch=1 n=g5 v=60
36360 On ch=1 n=g5 v=0
36360 On ch=1 n=f5 v=60
36600 On ch=1 n=f5 v=0
36600 On ch=1 n=g5 v=60
36690 On ch=1 n=g#5 v=60
36705 On ch=1 n=g#5 v=0
36705 On ch=1 n=a#5 v=60
36720 On ch=1 n=a#5 v=0
36720 On ch=1 n=g5 v=0
36720 On ch=1 n=g#5 v=60
36840 On ch=1 n=g#5 v=0
36840 On ch=1 n=g5 v=60
36900 On ch=1 n=g5 v=0
36900 On ch=1 n=g#5 v=60
36960 On ch=1 n=g#5 v=0
36960 On ch=1 n=c6 v=60
37020 On ch=1 n=c6 v=0
37020 On ch=1 n=a#5 v=60
37080 On ch=1 n=a#5 v=0
37200 On ch=1 n=d5 v=60
37260 On ch=1 n=d5 v=0
37260 On ch=1 n=f5 v=60
37320 On ch=1 n=f5 v=0
37320 On ch=1 n=d#5 v=60
37380 On ch=1 n=d#5 v=0
37380 On ch=1 n=g#5 v=60
37440 On ch=1 n=g#5 v=0
37440 On ch=1 n=c5 v=60
37800 On ch=1 n=c5 v=0
37800 On ch=1 n=g4 v=100
37860 On ch=1 n=g4 v=0
37860 On ch=1 n=c5 v=100
37920 On ch=1 n=c5 v=0
37920 On ch=1 n=d#5 v=100
37980 On ch=1 n=d#5 v=0
37980 On ch=1 n=g5 v=100
38040 On ch=1 n=g5 v=0
38040 On ch=1 n=c6 v=100
38130 On ch=1 n=c6 v=0
38130 On ch=1 n=d#6 v=100
38145 On ch=1 n=g5 v=100
38160 On ch=1 n=d#6 v=0
38160 On ch=1 n=d#6 v=100
38400 On ch=1 n=d#6 v=0
38400 On ch=1 n=g5 v=0
38400 On ch=1 n=f5 v=100
38400 On ch=1 n=d6 v=100
38730 On ch=1 n=d6 v=0
38730 On ch=1 n=f5 v=0
38730 On ch=1 n=d#5 v=59
38730 On ch=1 n=c6 v=59
38760 On ch=1 n=c6 v=0
38760 On ch=1 n=d#5 v=0
38760 On ch=1 n=d#5 v=53
38760 On ch=1 n=c6 v=53
39090 On ch=1 n=c6 v=0
39090 On ch=1 n=d#5 v=0
39090 On ch=1 n=d#5 v=40
39090 On ch=1 n=c6 v=40
39120 On ch=1 n=c6 v=0
39120 On ch=1 n=d#5 v=0
39120 On ch=1 n=d#5 v=40
39120 On ch=1 n=c6 v=40
39240 On ch=1 n=d#5 v=0
39360 On ch=1 n=c6 v=0
39360 On ch=1 n=f5 v=60
39480 On ch=1 n=f5 v=0
39480 On ch=1 n=g5 v=60
39570 On ch=1 n=g#5 v=60
39585 On ch=1 n=g#5 v=0
39585 On ch=1 n=a#5 v=60
39600 On ch=1 n=a#5 v=0
39600 On ch=1 n=g5 v=0
39600 On ch=1 n=g#5 v=60
39720 On ch=1 n=g#5 v=0
39720 On ch=1 n=g5 v=60
39780 On ch=1 n=g5 v=0
39780 On ch=1 n=g#5 v=60
39840 On ch=1 n=g#5 v=0
39840 On ch=1 n=c6 v=60
39900 On ch=1 n=c6 v=0
39900 On ch=1 n=a#5 v=60
39960 On ch=1 n=a#5 v=0
40080 On ch=1 n=d5 v=60
40140 On ch=1 n=d5 v=0
40140 On ch=1 n=f5 v=60
40200 On ch=1 n=f5 v=0
40200 On ch=1 n=d#5 v=60
40260 On ch=1 n=d#5 v=0
40260 On ch=1 n=g#5 v=60
40320 On ch=1 n=g#5 v=0
40320 On ch=1 n=c5 v=60
40680 On ch=1 n=c5 v=0
40680 On ch=1 n=g4 v=60
40740 On ch=1 n=g4 v=0
40740 On ch=1 n=c#5 v=67
40800 On ch=1 n=c#5 v=0
40800 On ch=1 n=d#5 v=74
40860 On ch=1 n=d#5 v=0
40860 On ch=1 n=g5 v=82
40920 On ch=1 n=g5 v=0
40920 On ch=1 n=c#6 v=89
40980 On ch=1 n=c#6 v=0
40980 On ch=1 n=f6 v=97
41025 On ch=1 n=c#6 v=100
41040 On ch=1 n=f6 v=0
41040 On ch=1 n=f6 v=100
41280 On ch=1 n=f6 v=0
41280 On ch=1 n=c#6 v=0
41280 On ch=1 n=c#6 v=100
41280 On ch=1 n=d#6 v=100
41370 On ch=1 n=d#6 v=100
41385 On ch=1 n=d#6 v=0
41385 On ch=1 n=f6 v=100
41400 On ch=1 n=f6 v=0
41400 On ch=1 n=d#6 v=0
41400 On ch=1 n=c#6 v=0
41400 On ch=1 n=c6 v=100
41400 On ch=1 n=d#6 v=100
41520 On ch=1 n=d#6 v=0
41520 On ch=1 n=c6 v=0
41520 On ch=1 n=b5 v=100
41520 On ch=1 n=d6 v=100
41580 On ch=1 n=d6 v=0
41580 On ch=1 n=b5 v=0
41580 On ch=1 n=d#6 v=100
41580 On ch=1 n=c6 v=100
41640 On ch=1 n=c6 v=0
41640 On ch=1 n=d#6 v=0
41640 On ch=1 n=f6 v=100
41640 On ch=1 n=c#6 v=100
41700 On ch=1 n=c#6 v=0
41700 On ch=1 n=f6 v=0
41700 On ch=1 n=c6 v=100
41700 On ch=1 n=d#6 v=100
41760 On ch=1 n=d#6 v=0
41760 On ch=1 n=c6 v=0
41760 On ch=1 n=c6 v=100
41760 On ch=1 n=g#6 v=100
42000 On ch=1 n=g#6 v=0
42000 On ch=1 n=c6 v=0
42000 On ch=1 n=g5 v=60
42120 On ch=1 n=g5 v=0
42120 On ch=1 n=f5 v=60
42360 On ch=1 n=f5 v=0
42360 On ch=1 n=g5 v=60
42450 On ch=1 n=g#5 v=60
42465 On ch=1 n=g#5 v=0
42465 On ch=1 n=a#5 v=60
42480 On ch=1 n=a#5 v=0
42480 On ch=1 n=g5 v=0
42480 On ch=1 n=g#5 v=60
42600 On ch=1 n=g#5 v=0
42600 On ch=1 n=g5 v=60
42660 On ch=1 n=g5 v=0
42660 On ch=1 n=g#5 v=60
42720 On ch=1 n=g#5 v=0
42720 On ch=1 n=c6 v=60
42780 On ch=1 n=c6 v=0
42780 On ch=1 n=a#5 v=60
42840 On ch=1 n=a#5 v=0
42960 On ch=1 n=d5 v=60
43020 On ch=1 n=d5 v=0
43020 On ch=1 n=f5 v=60
43080 On ch=1 n=f5 v=0
43080 On ch=1 n=d#5 v=60
43140 On ch=1 n=d#5 v=0
43140 On ch=1 n=g#5 v=60
43200 On ch=1 n=g#5 v=0
43200 On ch=1 n=c5 v=60
43560 On ch=1 n=c5 v=0
43680 On ch=1 n=d5 v=64
43740 On ch=1 n=d5 v=0
43740 On ch=1 n=d#5 v=66
43800 On ch=1 n=d#5 v=0
43800 On ch=1 n=f5 v=68
43860 On ch=1 n=f5 v=0
43860 On ch=1 n=g5 v=70
43920 On ch=1 n=g5 v=0
43920 On ch=1 n=f5 v=72
43944 On ch=1 n=f5 v=0
43944 On ch=1 n=g5 v=73
43968 On ch=1 n=g5 v=0
43968 On ch=1 n=f5 v=74
43992 On ch=1 n=f5 v=0
43992 On ch=1 n=g5 v=74
44016 On ch=1 n=g5 v=0
44016 On ch=1 n=f5 v=75
44040 On ch=1 n=f5 v=0
44040 On ch=1 n=e5 v=76
44100 On ch=1 n=e5 v=0
44100 On ch=1 n=f5 v=78
44160 On ch=1 n=f5 v=0
44160 On ch=1 n=g5 v=80
44220 On ch=1 n=g5 v=0
44220 On ch=1 n=g#5 v=82
44280 On ch=1 n=g#5 v=0
44280 On ch=1 n=g#5 v=84
44304 On ch=1 n=g#5 v=0
44304 On ch=1 n=a#5 v=85
44328 On ch=1 n=a#5 v=0
44328 On ch=1 n=g#5 v=86
44352 On ch=1 n=g#5 v=0
44352 On ch=1 n=a#5 v=87
44376 On ch=1 n=a#5 v=0
44376 On ch=1 n=g#5 v=88
44400 On ch=1 n=g#5 v=0
44400 On ch=1 n=g5 v=88
44460 On ch=1 n=g5 v=0
44460 On ch=1 n=g#5 v=91
44520 On ch=1 n=g#5 v=0
44520 On ch=1 n=a#5 v=93
44580 On ch=1 n=a#5 v=0
44580 On ch=1 n=c6 v=95
44640 On ch=1 n=c6 v=0
44640 On ch=1 n=g#5 v=97
44880 On ch=1 n=g#5 v=0
44880 Meta TrkEnd
TrkEnd
MTrk
0 Meta 0x21 00
0 Meta TrkName "Lower Treble"
0 PrCh ch=1 p=0
1560 On ch=1 n=g#5 v=80
1560 On ch=1 n=c5 v=80
1680 On ch=1 n=c5 v=0
1680 On ch=1 n=g#5 v=0
1680 On ch=1 n=g#5 v=80
1680 On ch=1 n=c5 v=80
1800 On ch=1 n=c5 v=0
1800 On ch=1 n=g#5 v=0
8760 On ch=1 n=g#5 v=80
8760 On ch=1 n=c5 v=80
8880 On ch=1 n=c5 v=0
8880 On ch=1 n=g#5 v=0
8880 On ch=1 n=g#5 v=81
8880 On ch=1 n=c5 v=81
9000 On ch=1 n=c5 v=0
9000 On ch=1 n=g#5 v=0
16680 On ch=1 n=g5 v=100
16680 On ch=1 n=d#5 v=100
16680 On ch=1 n=c#5 v=100
16800 On ch=1 n=c#5 v=0
16800 On ch=1 n=d#5 v=0
16800 On ch=1 n=g5 v=0
16800 On ch=1 n=g5 v=100
16800 On ch=1 n=d#5 v=100
16800 On ch=1 n=c#5 v=100
16920 On ch=1 n=c#5 v=0
16920 On ch=1 n=d#5 v=0
16920 On ch=1 n=g5 v=0
17040 On ch=1 n=g#5 v=100
17040 On ch=1 n=d#5 v=100
17160 On ch=1 n=d#5 v=0
17160 On ch=1 n=g#5 v=0
17160 On ch=1 n=g#5 v=100
17160 On ch=1 n=d#5 v=100
17280 On ch=1 n=d#5 v=0
17280 On ch=1 n=g#5 v=0
22440 On ch=1 n=d#5 v=100
22440 On ch=1 n=c#5 v=100
22440 On ch=1 n=g5 v=100
22560 On ch=1 n=g5 v=0
22560 On ch=1 n=c#5 v=0
22560 On ch=1 n=d#5 v=0
22560 On ch=1 n=d#5 v=100
22560 On ch=1 n=c#5 v=100
22560 On ch=1 n=g5 v=100
22680 On ch=1 n=g5 v=0
22680 On ch=1 n=c#5 v=0
22680 On ch=1 n=d#5 v=0
22800 On ch=1 n=g#5 v=100
22800 On ch=1 n=d#5 v=100
22920 On ch=1 n=d#5 v=0
22920 On ch=1 n=g#5 v=0
22920 On ch=1 n=g#5 v=100
22920 On ch=1 n=d#5 v=100
23040 On ch=1 n=d#5 v=0
23040 On ch=1 n=g#5 v=0
27480 On ch=1 n=g#5 v=80
27480 On ch=1 n=c5 v=80
27600 On ch=1 n=c5 v=0
27600 On ch=1 n=g#5 v=0
27600 On ch=1 n=g#5 v=80
27600 On ch=1 n=c5 v=80
27720 On ch=1 n=c5 v=0
27720 On ch=1 n=g#5 v=0
35400 On ch=1 n=c#5 v=100
35400 On ch=1 n=d#5 v=100
35400 On ch=1 n=g5 v=100
35520 On ch=1 n=g5 v=0
35520 On ch=1 n=d#5 v=0
35520 On ch=1 n=c#5 v=0
35520 On ch=1 n=c#5 v=100
35520 On ch=1 n=d#5 v=100
35520 On ch=1 n=g5 v=100
35640 On ch=1 n=g5 v=0
35640 On ch=1 n=d#5 v=0
35640 On ch=1 n=c#5 v=0
35760 On ch=1 n=d#5 v=100
35760 On ch=1 n=g#5 v=100
35880 On ch=1 n=g#5 v=0
35880 On ch=1 n=d#5 v=0
35880 On ch=1 n=d#5 v=100
35880 On ch=1 n=g#5 v=100
36000 On ch=1 n=g#5 v=0
36000 On ch=1 n=d#5 v=0
41160 On ch=1 n=d#5 v=100
41160 On ch=1 n=c#5 v=100
41160 On ch=1 n=g5 v=100
41280 On ch=1 n=g5 v=0
41280 On ch=1 n=c#5 v=0
41280 On ch=1 n=d#5 v=0
41280 On ch=1 n=d#5 v=100
41280 On ch=1 n=c#5 v=100
41280 On ch=1 n=g5 v=100
41400 On ch=1 n=g5 v=0
41400 On ch=1 n=c#5 v=0
41400 On ch=1 n=d#5 v=0
41520 On ch=1 n=d#5 v=100
41520 On ch=1 n=g#5 v=100
41640 On ch=1 n=g#5 v=0
41640 On ch=1 n=d#5 v=0
41640 On ch=1 n=d#5 v=100
41640 On ch=1 n=g#5 v=100
41760 On ch=1 n=g#5 v=0
41760 On ch=1 n=d#5 v=0
41760 Meta TrkEnd
TrkEnd
MTrk
0 Meta 0x21 00
0 Meta TrkName "Lower Bass"
0 PrCh ch=1 p=0
360 On ch=1 n=f4 v=88
480 On ch=1 n=c5 v=75
480 On ch=1 n=g#4 v=75
600 On ch=1 n=g#4 v=0
600 On ch=1 n=c5 v=0
600 On ch=1 n=g#4 v=72
600 On ch=1 n=c5 v=72
720 On ch=1 n=c5 v=0
720 On ch=1 n=g#4 v=0
720 On ch=1 n=f4 v=0
720 On ch=1 n=d#4 v=80
840 On ch=1 n=c5 v=70
840 On ch=1 n=g#4 v=70
840 On ch=1 n=f4 v=70
960 On ch=1 n=f4 v=0
960 On ch=1 n=g#4 v=0
960 On ch=1 n=c5 v=0
960 On ch=1 n=f4 v=70
960 On ch=1 n=g#4 v=70
960 On ch=1 n=c5 v=70
1080 On ch=1 n=c5 v=0
1080 On ch=1 n=d#4 v=0
1080 On ch=1 n=f4 v=0
1080 On ch=1 n=g#4 v=0
1080 On ch=1 n=c#4 v=80
1200 On ch=1 n=a#4 v=73
1200 On ch=1 n=f4 v=73
1320 On ch=1 n=c#4 v=0
1320 On ch=1 n=a#3 v=77
1440 On ch=1 n=a#3 v=0
1440 On ch=1 n=f4 v=0
1440 On ch=1 n=a#4 v=0
1440 On ch=1 n=f3 v=90
1560 On ch=1 n=f3 v=0
1800 On ch=1 n=e4 v=90
1920 On ch=1 n=g5 v=80
1920 On ch=1 n=c5 v=80
1920 On ch=1 n=a#4 v=80
2040 On ch=1 n=a#4 v=0
2040 On ch=1 n=c5 v=0
2040 On ch=1 n=g5 v=0
2040 On ch=1 n=g5 v=81
2040 On ch=1 n=c5 v=81
2040 On ch=1 n=a#4 v=81
2160 On ch=1 n=a#4 v=0
2160 On ch=1 n=e4 v=0
2160 On ch=1 n=g5 v=0
2160 On ch=1 n=c5 v=0
2160 On ch=1 n=f4 v=92
2280 On ch=1 n=f5 v=83
2280 On ch=1 n=c5 v=83
2280 On ch=1 n=g#4 v=83
2400 On ch=1 n=g#4 v=0
2400 On ch=1 n=f4 v=0
2400 On ch=1 n=f5 v=0
2400 On ch=1 n=c5 v=0
2400 On ch=1 n=g#3 v=84
2520 On ch=1 n=g#3 v=0
2520 On ch=1 n=a#3 v=95
2640 On ch=1 n=c#5 v=86
2640 On ch=1 n=g4 v=86
2640 On ch=1 n=f4 v=86
2760 On ch=1 n=f4 v=0
2760 On ch=1 n=a#3 v=0
2760 On ch=1 n=c#5 v=0
2760 On ch=1 n=g4 v=0
2760 On ch=1 n=a#2 v=87
2880 On ch=1 n=a#2 v=0
2880 On ch=1 n=c3 v=97
3000 On ch=1 n=c3 v=0
3000 On ch=1 n=c4 v=88
3010 On ch=1 n=g4 v=88
3020 On ch=1 n=e5 v=88
3120 On ch=1 n=e5 v=0
3120 On ch=1 n=g4 v=0
3120 On ch=1 n=c4 v=0
3240 On ch=1 n=g#4 v=100
3360 On ch=1 n=d#5 v=91
3360 On ch=1 n=c5 v=91
3480 On ch=1 n=c5 v=0
3480 On ch=1 n=d#5 v=0
3480 On ch=1 n=d#5 v=92
3480 On ch=1 n=c5 v=92
3600 On ch=1 n=c5 v=0
3600 On ch=1 n=d#5 v=0
3600 On ch=1 n=g#4 v=0
3600 On ch=1 n=g4 v=103
3720 On ch=1 n=d#5 v=94
3720 On ch=1 n=c5 v=94
3720 On ch=1 n=g#4 v=94
3840 On ch=1 n=g#4 v=0
3840 On ch=1 n=c5 v=0
3840 On ch=1 n=d#5 v=0
3840 On ch=1 n=g#4 v=94
3840 On ch=1 n=c5 v=94
3840 On ch=1 n=d#5 v=94
3960 On ch=1 n=d#5 v=0
3960 On ch=1 n=g4 v=0
3960 On ch=1 n=g#4 v=0
3960 On ch=1 n=c5 v=0
3960 On ch=1 n=f4 v=105
4080 On ch=1 n=d#5 v=96
4080 On ch=1 n=c5 v=96
4080 On ch=1 n=g#4 v=96
4200 On ch=1 n=g#4 v=0
4200 On ch=1 n=c5 v=0
4200 On ch=1 n=d#5 v=0
4200 On ch=1 n=g#4 v=97
4200 On ch=1 n=c5 v=97
4200 On ch=1 n=d#5 v=97
4320 On ch=1 n=d#5 v=0
4320 On ch=1 n=f4 v=0
4320 On ch=1 n=g#4 v=0
4320 On ch=1 n=c5 v=0
4320 On ch=1 n=a#3 v=108
4440 On ch=1 n=d5 v=99
4440 On ch=1 n=a#4 v=99
4440 On ch=1 n=g#4 v=99
4560 On ch=1 n=g#4 v=0
4560 On ch=1 n=a#4 v=0
4560 On ch=1 n=d5 v=0
4560 On ch=1 n=g#4 v=100
4560 On ch=1 n=a#4 v=100
4560 On ch=1 n=d5 v=100
4680 On ch=1 n=d5 v=0
4680 On ch=1 n=a#3 v=0
4680 On ch=1 n=g#4 v=0
4680 On ch=1 n=a#4 v=0
4680 On ch=1 n=a#3 v=110
4800 On ch=1 n=f5 v=97
4800 On ch=1 n=a#4 v=97
4800 On ch=1 n=g#4 v=97
4920 On ch=1 n=g#4 v=0
4920 On ch=1 n=a#4 v=0
4920 On ch=1 n=f5 v=0
4920 On ch=1 n=f5 v=94
4920 On ch=1 n=g#4 v=94
4920 On ch=1 n=a#4 v=94
5040 On ch=1 n=a#4 v=0
5040 On ch=1 n=a#3 v=0
5040 On ch=1 n=f5 v=0
5040 On ch=1 n=g#4 v=0
5040 On ch=1 n=a#3 v=100
5160 On ch=1 n=d#5 v=87
5160 On ch=1 n=a#4 v=87
5160 On ch=1 n=g4 v=87
5280 On ch=1 n=g4 v=0
5280 On ch=1 n=a#4 v=0
5280 On ch=1 n=d#5 v=0
5280 On ch=1 n=g4 v=83
5280 On ch=1 n=a#4 v=83
5280 On ch=1 n=d#5 v=83
5400 On ch=1 n=d#5 v=0
5400 On ch=1 n=a#3 v=0
5400 On ch=1 n=g4 v=0
5400 On ch=1 n=a#4 v=0
5400 On ch=1 n=a#3 v=90
5520 On ch=1 n=f5 v=77
5520 On ch=1 n=a#4 v=77
5520 On ch=1 n=g#4 v=77
5640 On ch=1 n=g#4 v=0
5640 On ch=1 n=a#4 v=0
5640 On ch=1 n=f5 v=0
5640 On ch=1 n=f5 v=73
5640 On ch=1 n=a#4 v=73
5640 On ch=1 n=g#4 v=73
5760 On ch=1 n=g#4 v=0
5760 On ch=1 n=a#3 v=0
5760 On ch=1 n=f5 v=0
5760 On ch=1 n=a#4 v=0
5760 On ch=1 n=a#3 v=80
5880 On ch=1 n=d#5 v=66
5880 On ch=1 n=a#4 v=66
5880 On ch=1 n=g4 v=66
6000 On ch=1 n=g4 v=0
6000 On ch=1 n=a#4 v=0
6000 On ch=1 n=d#5 v=0
6000 On ch=1 n=g4 v=63
6000 On ch=1 n=a#4 v=63
6000 On ch=1 n=d#5 v=63
6120 On ch=1 n=d#5 v=0
6120 On ch=1 n=a#3 v=0
6120 On ch=1 n=g4 v=0
6120 On ch=1 n=a#4 v=0
6120 On ch=1 n=a#3 v=70
6240 On ch=1 n=d5 v=60
6240 On ch=1 n=a#4 v=60
6240 On ch=1 n=g#4 v=60
6360 On ch=1 n=g#4 v=0
6360 On ch=1 n=a#4 v=0
6360 On ch=1 n=d5 v=0
6360 On ch=1 n=d5 v=60
6360 On ch=1 n=g#4 v=60
6360 On ch=1 n=a#4 v=60
6480 On ch=1 n=a#4 v=0
6480 On ch=1 n=a#3 v=0
6480 On ch=1 n=d5 v=0
6480 On ch=1 n=g#4 v=0
6480 On ch=1 n=d#4 v=70
6600 On ch=1 n=d#4 v=0
6600 On ch=1 n=g5 v=60
6600 On ch=1 n=d#5 v=60
6600 On ch=1 n=a#4 v=60
6720 On ch=1 n=a#4 v=0
6720 On ch=1 n=d#5 v=0
6720 On ch=1 n=g5 v=0
6720 On ch=1 n=a4 v=60
6720 On ch=1 n=c5 v=60
6720 On ch=1 n=f#5 v=60
6840 On ch=1 n=f#5 v=0
6840 On ch=1 n=c5 v=0
6840 On ch=1 n=a4 v=0
6840 On ch=1 n=a#3 v=70
6960 On ch=1 n=a#3 v=0
6960 On ch=1 n=d#5 v=60
6960 On ch=1 n=a#4 v=60
7080 On ch=1 n=a#4 v=0
7080 On ch=1 n=d#5 v=0
7080 On ch=1 n=g#4 v=60
7080 On ch=1 n=d5 v=60
7200 On ch=1 n=d5 v=0
7200 On ch=1 n=g#4 v=0
7200 On ch=1 n=d#4 v=70
7320 On ch=1 n=a#4 v=60
7320 On ch=1 n=g4 v=60
7440 On ch=1 n=g4 v=0
7440 On ch=1 n=a#4 v=0
7440 On ch=1 n=d#4 v=0
7440 On ch=1 n=c4 v=60
7450 On ch=1 n=g4 v=60
7460 On ch=1 n=a#4 v=60
7470 On ch=1 n=e5 v=60
7560 On ch=1 n=e5 v=0
7560 On ch=1 n=c4 v=0
7560 On ch=1 n=g4 v=0
7560 On ch=1 n=a#4 v=0
7560 On ch=1 n=f4 v=90
7680 On ch=1 n=c5 v=77
7680 On ch=1 n=g#4 v=77
7800 On ch=1 n=g#4 v=0
7800 On ch=1 n=c5 v=0
7800 On ch=1 n=g#4 v=73
7800 On ch=1 n=c5 v=73
7920 On ch=1 n=c5 v=0
7920 On ch=1 n=g#4 v=0
7920 On ch=1 n=f4 v=0
7920 On ch=1 n=d#4 v=80
8040 On ch=1 n=f4 v=70
8040 On ch=1 n=g#4 v=70
8040 On ch=1 n=c5 v=70
8160 On ch=1 n=c5 v=0
8160 On ch=1 n=g#4 v=0
8160 On ch=1 n=f4 v=0
8160 On ch=1 n=c5 v=70
8160 On ch=1 n=g#4 v=70
8160 On ch=1 n=f4 v=70
8280 On ch=1 n=f4 v=0
8280 On ch=1 n=d#4 v=0
8280 On ch=1 n=c5 v=0
8280 On ch=1 n=g#4 v=0
8280 On ch=1 n=c#4 v=80
8400 On ch=1 n=a#4 v=73
8400 On ch=1 n=f4 v=73
8520 On ch=1 n=c#4 v=0
8520 On ch=1 n=a#3 v=77
8640 On ch=1 n=a#3 v=0
8640 On ch=1 n=f4 v=0
8640 On ch=1 n=a#4 v=0
8640 On ch=1 n=f3 v=90
8760 On ch=1 n=f3 v=0
9000 On ch=1 n=e4 v=92
9120 On ch=1 n=g5 v=83
9120 On ch=1 n=c5 v=83
9120 On ch=1 n=a#4 v=83
9240 On ch=1 n=a#4 v=0
9240 On ch=1 n=c5 v=0
9240 On ch=1 n=g5 v=0
9240 On ch=1 n=g5 v=83
9240 On ch=1 n=c5 v=83
9240 On ch=1 n=a#4 v=83
9360 On ch=1 n=a#4 v=0
9360 On ch=1 n=e4 v=0
9360 On ch=1 n=g5 v=0
9360 On ch=1 n=c5 v=0
9360 On ch=1 n=f4 v=94
9480 On ch=1 n=f5 v=85
9480 On ch=1 n=c5 v=85
9480 On ch=1 n=g#4 v=85
9600 On ch=1 n=g#4 v=0
9600 On ch=1 n=f4 v=0
9600 On ch=1 n=f5 v=0
9600 On ch=1 n=c5 v=0
9600 On ch=1 n=g#3 v=86
9720 On ch=1 n=g#3 v=0
9720 On ch=1 n=a#3 v=97
9840 On ch=1 n=c#5 v=87
9840 On ch=1 n=g4 v=87
9840 On ch=1 n=f4 v=87
9960 On ch=1 n=f4 v=0
9960 On ch=1 n=a#3 v=0
9960 On ch=1 n=c#5 v=0
9960 On ch=1 n=g4 v=0
9960 On ch=1 n=a#2 v=88
10080 On ch=1 n=a#2 v=0
10080 On ch=1 n=c3 v=99
10200 On ch=1 n=c3 v=0
10200 On ch=1 n=c4 v=90
10210 On ch=1 n=g4 v=90
10220 On ch=1 n=e5 v=90
10320 On ch=1 n=e5 v=0
10320 On ch=1 n=g4 v=0
10320 On ch=1 n=c4 v=0
10440 On ch=1 n=g#4 v=101
10560 On ch=1 n=d#5 v=92
10560 On ch=1 n=c5 v=92
10680 On ch=1 n=c5 v=0
10680 On ch=1 n=d#5 v=0
10680 On ch=1 n=d#5 v=93
10680 On ch=1 n=c5 v=93
10800 On ch=1 n=c5 v=0
10800 On ch=1 n=d#5 v=0
10800 On ch=1 n=g#4 v=0
10800 On ch=1 n=g4 v=104
10920 On ch=1 n=d#5 v=94
10920 On ch=1 n=c5 v=94
10920 On ch=1 n=g#4 v=94
11040 On ch=1 n=g#4 v=0
11040 On ch=1 n=c5 v=0
11040 On ch=1 n=d#5 v=0
11040 On ch=1 n=g#4 v=95
11040 On ch=1 n=c5 v=95
11040 On ch=1 n=d#5 v=95
11160 On ch=1 n=d#5 v=0
11160 On ch=1 n=g4 v=0
11160 On ch=1 n=g#4 v=0
11160 On ch=1 n=c5 v=0
11160 On ch=1 n=f4 v=106
11280 On ch=1 n=d#5 v=97
11280 On ch=1 n=c5 v=97
11280 On ch=1 n=g#4 v=97
11400 On ch=1 n=g#4 v=0
11400 On ch=1 n=c5 v=0
11400 On ch=1 n=d#5 v=0
11400 On ch=1 n=g#4 v=97
11400 On ch=1 n=c5 v=97
11400 On ch=1 n=d#5 v=97
11520 On ch=1 n=d#5 v=0
11520 On ch=1 n=f4 v=0
11520 On ch=1 n=g#4 v=0
11520 On ch=1 n=c5 v=0
11520 On ch=1 n=a#3 v=108
11640 On ch=1 n=d5 v=99
11640 On ch=1 n=a#4 v=99
11640 On ch=1 n=g#4 v=99
11760 On ch=1 n=g#4 v=0
11760 On ch=1 n=a#4 v=0
11760 On ch=1 n=d5 v=0
11760 On ch=1 n=g#4 v=100
11760 On ch=1 n=a#4 v=100
11760 On ch=1 n=d5 v=100
11880 On ch=1 n=d5 v=0
11880 On ch=1 n=a#3 v=0
11880 On ch=1 n=g#4 v=0
11880 On ch=1 n=a#4 v=0
11880 On ch=1 n=a#3 v=110
12000 On ch=1 n=f5 v=97
12000 On ch=1 n=a#4 v=97
12000 On ch=1 n=g#4 v=97
12120 On ch=1 n=g#4 v=0
12120 On ch=1 n=a#4 v=0
12120 On ch=1 n=f5 v=0
12120 On ch=1 n=f5 v=94
12120 On ch=1 n=g#4 v=94
12120 On ch=1 n=a#4 v=94
12240 On ch=1 n=a#4 v=0
12240 On ch=1 n=a#3 v=0
12240 On ch=1 n=f5 v=0
12240 On ch=1 n=g#4 v=0
12240 On ch=1 n=a#3 v=100
12360 On ch=1 n=d#5 v=87
12360 On ch=1 n=a#4 v=87
12360 On ch=1 n=g4 v=87
12480 On ch=1 n=g4 v=0
12480 On ch=1 n=a#4 v=0
12480 On ch=1 n=d#5 v=0
12480 On ch=1 n=g4 v=83
12480 On ch=1 n=a#4 v=83
12480 On ch=1 n=d#5 v=83
12600 On ch=1 n=d#5 v=0
12600 On ch=1 n=a#3 v=0
12600 On ch=1 n=g4 v=0
12600 On ch=1 n=a#4 v=0
12600 On ch=1 n=a#3 v=90
12720 On ch=1 n=f5 v=77
12720 On ch=1 n=a#4 v=77
12720 On ch=1 n=g#4 v=77
12840 On ch=1 n=g#4 v=0
12840 On ch=1 n=a#4 v=0
12840 On ch=1 n=f5 v=0
12840 On ch=1 n=f5 v=73
12840 On ch=1 n=a#4 v=73
12840 On ch=1 n=g#4 v=73
12960 On ch=1 n=g#4 v=0
12960 On ch=1 n=a#3 v=0
12960 On ch=1 n=f5 v=0
12960 On ch=1 n=a#4 v=0
12960 On ch=1 n=a#3 v=80
13080 On ch=1 n=d#5 v=66
13080 On ch=1 n=a#4 v=66
13080 On ch=1 n=g4 v=66
13200 On ch=1 n=g4 v=0
13200 On ch=1 n=a#4 v=0
13200 On ch=1 n=d#5 v=0
13200 On ch=1 n=g4 v=63
13200 On ch=1 n=a#4 v=63
13200 On ch=1 n=d#5 v=63
13320 On ch=1 n=d#5 v=0
13320 On ch=1 n=a#3 v=0
13320 On ch=1 n=g4 v=0
13320 On ch=1 n=a#4 v=0
13320 On ch=1 n=a#3 v=70
13440 On ch=1 n=d5 v=60
13440 On ch=1 n=a#4 v=60
13440 On ch=1 n=g#4 v=60
13560 On ch=1 n=g#4 v=0
13560 On ch=1 n=a#4 v=0
13560 On ch=1 n=d5 v=0
13560 On ch=1 n=d5 v=60
13560 On ch=1 n=g#4 v=60
13560 On ch=1 n=a#4 v=60
13680 On ch=1 n=a#4 v=0
13680 On ch=1 n=a#3 v=0
13680 On ch=1 n=d5 v=0
13680 On ch=1 n=g#4 v=0
13680 On ch=1 n=d#4 v=70
13800 On ch=1 n=d#4 v=0
13800 On ch=1 n=g5 v=60
13800 On ch=1 n=d#5 v=60
13800 On ch=1 n=a#4 v=60
13920 On ch=1 n=a#4 v=0
13920 On ch=1 n=d#5 v=0
13920 On ch=1 n=g5 v=0
13920 On ch=1 n=a4 v=60
13920 On ch=1 n=c5 v=60
13920 On ch=1 n=f#5 v=60
14040 On ch=1 n=f#5 v=0
14040 On ch=1 n=c5 v=0
14040 On ch=1 n=a4 v=0
14040 On ch=1 n=a#3 v=70
14160 On ch=1 n=a#3 v=0
14160 On ch=1 n=d#5 v=60
14160 On ch=1 n=a#4 v=60
14280 On ch=1 n=a#4 v=0
14280 On ch=1 n=d#5 v=0
14280 On ch=1 n=g#4 v=60
14280 On ch=1 n=d5 v=60
14400 On ch=1 n=d5 v=0
14400 On ch=1 n=g#4 v=0
14400 On ch=1 n=d#4 v=70
14520 On ch=1 n=d#5 v=60
14520 On ch=1 n=a#4 v=60
14520 On ch=1 n=g4 v=60
14640 On ch=1 n=g4 v=0
14640 On ch=1 n=d#4 v=0
14640 On ch=1 n=d#5 v=0
14640 On ch=1 n=a#4 v=0
14760 On ch=1 n=c#4 v=70
14880 On ch=1 n=c#5 v=60
14880 On ch=1 n=a#4 v=60
14880 On ch=1 n=f4 v=60
15000 On ch=1 n=f4 v=0
15000 On ch=1 n=a#4 v=0
15000 On ch=1 n=c#5 v=0
15000 On ch=1 n=c#5 v=60
15000 On ch=1 n=a#4 v=60
15000 On ch=1 n=f4 v=60
15120 On ch=1 n=f4 v=0
15120 On ch=1 n=c#4 v=0
15120 On ch=1 n=c#5 v=0
15120 On ch=1 n=a#4 v=0
15120 On ch=1 n=a#3 v=70
15240 On ch=1 n=c#5 v=60
15240 On ch=1 n=g#4 v=60
15240 On ch=1 n=f4 v=60
15360 On ch=1 n=f4 v=0
15360 On ch=1 n=a#3 v=0
15360 On ch=1 n=c#5 v=0
15360 On ch=1 n=g#4 v=0
15360 On ch=1 n=d#4 v=60
15360 On ch=1 n=g4 v=60
15360 On ch=1 n=c#5 v=60
15480 On ch=1 n=c#5 v=0
15480 On ch=1 n=g4 v=0
15480 On ch=1 n=d#4 v=0
15480 On ch=1 n=d#4 v=70
15600 On ch=1 n=c5 v=60
15600 On ch=1 n=g#4 v=60
15720 On ch=1 n=g#4 v=0
15720 On ch=1 n=c5 v=0
15720 On ch=1 n=g#4 v=60
15720 On ch=1 n=c5 v=60
15840 On ch=1 n=c5 v=0
15840 On ch=1 n=g#4 v=0
15840 On ch=1 n=d#4 v=0
15840 On ch=1 n=d#3 v=70
15960 On ch=1 n=g#4 v=60
15960 On ch=1 n=d#4 v=60
16080 On ch=1 n=d#4 v=0
16080 On ch=1 n=g#4 v=0
16080 On ch=1 n=g#4 v=60
16080 On ch=1 n=d#4 v=60
16200 On ch=1 n=d#4 v=0
16200 On ch=1 n=g#4 v=0
16200 On ch=1 n=d#3 v=0
16200 On ch=1 n=d#3 v=70
16320 On ch=1 n=d#3 v=0
16320 On ch=1 n=c#5 v=74
16320 On ch=1 n=g4 v=74
16320 On ch=1 n=d#4 v=74
16440 On ch=1 n=d#4 v=0
16440 On ch=1 n=g4 v=0
16440 On ch=1 n=c#5 v=0
16440 On ch=1 n=g4 v=89
16440 On ch=1 n=a#4 v=89
16440 On ch=1 n=d#5 v=89
16560 On ch=1 n=d#5 v=0
16560 On ch=1 n=a#4 v=0
16560 On ch=1 n=g4 v=0
16560 On ch=1 n=d#4 v=110
16680 On ch=1 n=d#4 v=0
16920 On ch=1 n=g#3 v=110
17040 On ch=1 n=g#3 v=0
17280 On ch=1 n=g#3 v=110
17400 On ch=1 n=g#3 v=0
17400 On ch=1 n=c5 v=100
17400 On ch=1 n=g#4 v=100
17400 On ch=1 n=d#4 v=100
17520 On ch=1 n=d#4 v=0
17520 On ch=1 n=g#4 v=0
17520 On ch=1 n=c5 v=0
17520 On ch=1 n=g#4 v=60
17520 On ch=1 n=c5 v=60
17520 On ch=1 n=d#4 v=60
17640 On ch=1 n=d#4 v=0
17640 On ch=1 n=c5 v=0
17640 On ch=1 n=g#4 v=0
17640 On ch=1 n=c#4 v=70
17760 On ch=1 n=c#5 v=60
17760 On ch=1 n=a#4 v=60
17760 On ch=1 n=f4 v=60
17880 On ch=1 n=f4 v=0
17880 On ch=1 n=a#4 v=0
17880 On ch=1 n=c#5 v=0
17880 On ch=1 n=a#4 v=60
17880 On ch=1 n=c#5 v=60
17880 On ch=1 n=f4 v=60
18000 On ch=1 n=f4 v=0
18000 On ch=1 n=c#4 v=0
18000 On ch=1 n=a#4 v=0
18000 On ch=1 n=c#5 v=0
18000 On ch=1 n=a#3 v=70
18120 On ch=1 n=c#5 v=60
18120 On ch=1 n=f4 v=60
18240 On ch=1 n=f4 v=0
18240 On ch=1 n=c#5 v=0
18240 On ch=1 n=a#3 v=0
18240 On ch=1 n=d#4 v=60
18240 On ch=1 n=g4 v=60
18240 On ch=1 n=c#5 v=60
18360 On ch=1 n=c#5 v=0
18360 On ch=1 n=g4 v=0
18360 On ch=1 n=d#4 v=0
18360 On ch=1 n=g#3 v=70
18480 On ch=1 n=c5 v=60
18480 On ch=1 n=g#4 v=60
18480 On ch=1 n=d#4 v=60
18600 On ch=1 n=d#4 v=0
18600 On ch=1 n=g#4 v=0
18600 On ch=1 n=c5 v=0
18600 On ch=1 n=g#4 v=60
18600 On ch=1 n=c5 v=60
18600 On ch=1 n=d#4 v=60
18720 On ch=1 n=d#4 v=0
18720 On ch=1 n=g#3 v=0
18720 On ch=1 n=g#4 v=0
18720 On ch=1 n=c5 v=0
18720 On ch=1 n=g#3 v=70
18840 On ch=1 n=f4 v=60
18840 On ch=1 n=d4 v=60
18960 On ch=1 n=d4 v=0
18960 On ch=1 n=f4 v=0
18960 On ch=1 n=d4 v=60
18960 On ch=1 n=f4 v=60
19080 On ch=1 n=f4 v=0
19080 On ch=1 n=d4 v=0
19080 On ch=1 n=g#3 v=0
19080 On ch=1 n=g3 v=110
19200 On ch=1 n=g3 v=0
19200 On ch=1 n=c5 v=100
19200 On ch=1 n=g4 v=100
19200 On ch=1 n=d#4 v=100
19320 On ch=1 n=d#4 v=0
19320 On ch=1 n=g4 v=0
19320 On ch=1 n=c5 v=0
19320 On ch=1 n=d#4 v=100
19320 On ch=1 n=g4 v=100
19320 On ch=1 n=c5 v=100
19440 On ch=1 n=c5 v=0
19440 On ch=1 n=g4 v=0
19440 On ch=1 n=d#4 v=0
19440 On ch=1 n=g3 v=110
19560 On ch=1 n=g3 v=0
19560 On ch=1 n=g5 v=100
19560 On ch=1 n=b4 v=100
19560 On ch=1 n=g4 v=100
19680 On ch=1 n=g4 v=0
19680 On ch=1 n=b4 v=0
19680 On ch=1 n=g5 v=0
19680 On ch=1 n=g4 v=100
19680 On ch=1 n=b4 v=100
19680 On ch=1 n=g5 v=100
19800 On ch=1 n=g5 v=0
19800 On ch=1 n=b4 v=0
19800 On ch=1 n=g4 v=0
19800 On ch=1 n=c4 v=110
19920 On ch=1 n=c4 v=0
19920 On ch=1 n=g5 v=77
19920 On ch=1 n=c5 v=77
19920 On ch=1 n=g4 v=77
20040 On ch=1 n=g4 v=0
20040 On ch=1 n=c5 v=0
20040 On ch=1 n=g5 v=0
20040 On ch=1 n=g4 v=53
20040 On ch=1 n=c5 v=53
20040 On ch=1 n=g5 v=53
20160 On ch=1 n=g5 v=0
20160 On ch=1 n=c5 v=0
20160 On ch=1 n=g4 v=0
20160 On ch=1 n=c4 v=50
20280 On ch=1 n=c4 v=0
20280 On ch=1 n=g5 v=40
20280 On ch=1 n=c5 v=40
20280 On ch=1 n=g4 v=40
20400 On ch=1 n=g4 v=0
20400 On ch=1 n=c5 v=0
20400 On ch=1 n=g5 v=0
20400 On ch=1 n=g5 v=40
20400 On ch=1 n=c5 v=40
20400 On ch=1 n=g4 v=40
20520 On ch=1 n=g4 v=0
20520 On ch=1 n=c5 v=0
20520 On ch=1 n=g5 v=0
20520 On ch=1 n=c#4 v=70
20640 On ch=1 n=g#4 v=60
20640 On ch=1 n=a#4 v=60
20760 On ch=1 n=a#4 v=0
20760 On ch=1 n=g#4 v=0
20760 On ch=1 n=g#4 v=60
20760 On ch=1 n=a#4 v=60
20880 On ch=1 n=a#4 v=0
20880 On ch=1 n=g#4 v=0
20880 On ch=1 n=c#4 v=0
20880 On ch=1 n=a#3 v=70
21000 On ch=1 n=f4 v=60
21000 On ch=1 n=g#4 v=60
21000 On ch=1 n=c#5 v=60
21120 On ch=1 n=c#5 v=0
21120 On ch=1 n=a#3 v=0
21120 On ch=1 n=f4 v=0
21120 On ch=1 n=g#4 v=0
21120 On ch=1 n=d#4 v=60
21120 On ch=1 n=g4 v=60
21120 On ch=1 n=c#5 v=60
21240 On ch=1 n=c#5 v=0
21240 On ch=1 n=g4 v=0
21240 On ch=1 n=d#4 v=0
21240 On ch=1 n=d#4 v=70
21360 On ch=1 n=c5 v=60
21360 On ch=1 n=g#4 v=60
21480 On ch=1 n=g#4 v=0
21480 On ch=1 n=c5 v=0
21480 On ch=1 n=c5 v=60
21480 On ch=1 n=g#4 v=60
21600 On ch=1 n=g#4 v=0
21600 On ch=1 n=c5 v=0
21600 On ch=1 n=d#4 v=0
21600 On ch=1 n=d#3 v=70
21720 On ch=1 n=d#4 v=60
21720 On ch=1 n=g#4 v=60
21840 On ch=1 n=g#4 v=0
21840 On ch=1 n=d#4 v=0
21840 On ch=1 n=d#4 v=60
21840 On ch=1 n=g#4 v=60
21960 On ch=1 n=g#4 v=0
21960 On ch=1 n=d#4 v=0
21960 On ch=1 n=d#3 v=0
21960 On ch=1 n=d#3 v=70
22080 On ch=1 n=d#3 v=0
22080 On ch=1 n=c#5 v=74
22080 On ch=1 n=g4 v=74
22080 On ch=1 n=d#4 v=74
22200 On ch=1 n=d#4 v=0
22200 On ch=1 n=g4 v=0
22200 On ch=1 n=c#5 v=0
22200 On ch=1 n=d#5 v=89
22200 On ch=1 n=a#4 v=89
22200 On ch=1 n=g4 v=89
22320 On ch=1 n=g4 v=0
22320 On ch=1 n=a#4 v=0
22320 On ch=1 n=d#5 v=0
22320 On ch=1 n=d#4 v=110
22440 On ch=1 n=d#4 v=0
22680 On ch=1 n=g#3 v=110
22800 On ch=1 n=g#3 v=0
23040 On ch=1 n=g#3 v=110
23160 On ch=1 n=g#3 v=0
23160 On ch=1 n=c5 v=100
23160 On ch=1 n=g#4 v=100
23160 On ch=1 n=d#4 v=100
23280 On ch=1 n=d#4 v=0
23280 On ch=1 n=g#4 v=0
23280 On ch=1 n=c5 v=0
23280 On ch=1 n=g#4 v=60
23280 On ch=1 n=c5 v=60
23280 On ch=1 n=d#4 v=60
23400 On ch=1 n=d#4 v=0
23400 On ch=1 n=c5 v=0
23400 On ch=1 n=g#4 v=0
23400 On ch=1 n=c#4 v=70
23520 On ch=1 n=c#5 v=60
23520 On ch=1 n=a#4 v=60
23520 On ch=1 n=f4 v=60
23640 On ch=1 n=f4 v=0
23640 On ch=1 n=a#4 v=0
23640 On ch=1 n=c#5 v=0
23640 On ch=1 n=a#4 v=60
23640 On ch=1 n=c#5 v=60
23640 On ch=1 n=f4 v=60
23760 On ch=1 n=f4 v=0
23760 On ch=1 n=c#4 v=0
23760 On ch=1 n=a#4 v=0
23760 On ch=1 n=c#5 v=0
23760 On ch=1 n=a#3 v=70
23880 On ch=1 n=f4 v=60
23880 On ch=1 n=c#5 v=60
24000 On ch=1 n=c#5 v=0
24000 On ch=1 n=f4 v=0
24000 On ch=1 n=a#3 v=0
24000 On ch=1 n=d#4 v=60
24000 On ch=1 n=g4 v=60
24000 On ch=1 n=c#5 v=60
24120 On ch=1 n=c#5 v=0
24120 On ch=1 n=g4 v=0
24120 On ch=1 n=d#4 v=0
24120 On ch=1 n=g#3 v=70
24240 On ch=1 n=d#4 v=60
24240 On ch=1 n=g#4 v=60
24240 On ch=1 n=c5 v=60
24360 On ch=1 n=c5 v=0
24360 On ch=1 n=g#4 v=0
24360 On ch=1 n=d#4 v=0
24360 On ch=1 n=d#4 v=60
24360 On ch=1 n=g#4 v=60
24360 On ch=1 n=c5 v=60
24480 On ch=1 n=c5 v=0
24480 On ch=1 n=g#3 v=0
24480 On ch=1 n=d#4 v=0
24480 On ch=1 n=g#4 v=0
24480 On ch=1 n=d#3 v=70
24600 On ch=1 n=g#4 v=60
24600 On ch=1 n=d#4 v=60
24720 On ch=1 n=d#4 v=0
24720 On ch=1 n=g#4 v=0
24720 On ch=1 n=g#4 v=60
24720 On ch=1 n=d#4 v=60
24840 On ch=1 n=d#4 v=0
24840 On ch=1 n=g#4 v=0
24840 On ch=1 n=d#3 v=0
24840 On ch=1 n=d#4 v=70
24960 On ch=1 n=g#4 v=63
24960 On ch=1 n=a#4 v=63
25080 On ch=1 n=a#4 v=0
25080 On ch=1 n=g#4 v=0
25080 On ch=1 n=g#4 v=67
25080 On ch=1 n=a#4 v=67
25200 On ch=1 n=a#4 v=0
25200 On ch=1 n=g#4 v=0
25200 On ch=1 n=d#4 v=0
25200 On ch=1 n=d#4 v=81
25320 On ch=1 n=g#4 v=74
25320 On ch=1 n=a#4 v=74
25320 On ch=1 n=d5 v=74
25440 On ch=1 n=d5 v=0
25440 On ch=1 n=a#4 v=0
25440 On ch=1 n=g#4 v=0
25440 On ch=1 n=g#4 v=78
25440 On ch=1 n=a#4 v=78
25440 On ch=1 n=d5 v=78
25560 On ch=1 n=d5 v=0
25560 On ch=1 n=d#4 v=0
25560 On ch=1 n=g#4 v=0
25560 On ch=1 n=a#4 v=0
25560 On ch=1 n=d#4 v=92
25680 On ch=1 n=c#5 v=86
25680 On ch=1 n=d#5 v=86
25800 On ch=1 n=d#5 v=0
25800 On ch=1 n=c#5 v=0
25800 On ch=1 n=c#5 v=89
25800 On ch=1 n=d#5 v=89
25920 On ch=1 n=d#5 v=0
25920 On ch=1 n=c#5 v=0
25920 On ch=1 n=d#4 v=0
25920 On ch=1 n=g#3 v=103
26040 On ch=1 n=d#4 v=97
26040 On ch=1 n=g#4 v=97
26040 On ch=1 n=c5 v=97
26160 On ch=1 n=c5 v=0
26160 On ch=1 n=g#4 v=0
26160 On ch=1 n=d#4 v=0
26160 On ch=1 n=c5 v=100
26160 On ch=1 n=g#4 v=100
26160 On ch=1 n=e4 v=100
26280 On ch=1 n=e4 v=0
26280 On ch=1 n=g#3 v=0
26280 On ch=1 n=f4 v=90
26400 On ch=1 n=g#4 v=0
26400 On ch=1 n=c5 v=0
26400 On ch=1 n=c5 v=80
26400 On ch=1 n=g#4 v=80
26520 On ch=1 n=g#4 v=0
26520 On ch=1 n=c5 v=0
26520 On ch=1 n=g#4 v=80
26520 On ch=1 n=c5 v=80
26640 On ch=1 n=c5 v=0
26640 On ch=1 n=g#4 v=0
26640 On ch=1 n=f4 v=0
26640 On ch=1 n=d#4 v=90
26760 On ch=1 n=c5 v=80
26760 On ch=1 n=g#4 v=80
26760 On ch=1 n=f4 v=80
26880 On ch=1 n=f4 v=0
26880 On ch=1 n=g#4 v=0
26880 On ch=1 n=c5 v=0
26880 On ch=1 n=f4 v=80
26880 On ch=1 n=g#4 v=80
26880 On ch=1 n=c5 v=80
27000 On ch=1 n=c5 v=0
27000 On ch=1 n=d#4 v=0
27000 On ch=1 n=f4 v=0
27000 On ch=1 n=g#4 v=0
27000 On ch=1 n=c#4 v=90
27120 On ch=1 n=a#4 v=80
27120 On ch=1 n=f4 v=80
27240 On ch=1 n=c#4 v=0
27240 On ch=1 n=a#3 v=80
27360 On ch=1 n=a#3 v=0
27360 On ch=1 n=f4 v=0
27360 On ch=1 n=a#4 v=0
27360 On ch=1 n=f3 v=90
27480 On ch=1 n=f3 v=0
27720 On ch=1 n=e4 v=90
27840 On ch=1 n=a#4 v=80
27840 On ch=1 n=c5 v=80
27840 On ch=1 n=g5 v=80
27960 On ch=1 n=g5 v=0
27960 On ch=1 n=c5 v=0
27960 On ch=1 n=a#4 v=0
27960 On ch=1 n=a#4 v=81
27960 On ch=1 n=c5 v=81
27960 On ch=1 n=g5 v=81
28080 On ch=1 n=g5 v=0
28080 On ch=1 n=e4 v=0
28080 On ch=1 n=a#4 v=0
28080 On ch=1 n=c5 v=0
28080 On ch=1 n=f4 v=92
28200 On ch=1 n=f5 v=83
28200 On ch=1 n=c5 v=83
28200 On ch=1 n=g#4 v=83
28320 On ch=1 n=g#4 v=0
28320 On ch=1 n=f4 v=0
28320 On ch=1 n=f5 v=0
28320 On ch=1 n=c5 v=0
28320 On ch=1 n=g#3 v=84
28440 On ch=1 n=g#3 v=0
28440 On ch=1 n=a#3 v=95
28560 On ch=1 n=c#5 v=86
28560 On ch=1 n=f4 v=86
28560 On ch=1 n=g4 v=86
28680 On ch=1 n=g4 v=0
28680 On ch=1 n=a#3 v=0
28680 On ch=1 n=c#5 v=0
28680 On ch=1 n=f4 v=0
28680 On ch=1 n=a#2 v=87
28800 On ch=1 n=a#2 v=0
28800 On ch=1 n=c3 v=97
28920 On ch=1 n=c3 v=0
28920 On ch=1 n=c4 v=88
28930 On ch=1 n=g4 v=88
28940 On ch=1 n=e5 v=88
29040 On ch=1 n=e5 v=0
29040 On ch=1 n=g4 v=0
29040 On ch=1 n=c4 v=0
29160 On ch=1 n=g#4 v=100
29280 On ch=1 n=d#5 v=91
29280 On ch=1 n=c5 v=91
29400 On ch=1 n=c5 v=0
29400 On ch=1 n=d#5 v=0
29400 On ch=1 n=d#5 v=92
29400 On ch=1 n=c5 v=92
29520 On ch=1 n=c5 v=0
29520 On ch=1 n=d#5 v=0
29520 On ch=1 n=g#4 v=0
29520 On ch=1 n=g4 v=103
29640 On ch=1 n=d#5 v=94
29640 On ch=1 n=c5 v=94
29640 On ch=1 n=g#4 v=94
29760 On ch=1 n=g#4 v=0
29760 On ch=1 n=c5 v=0
29760 On ch=1 n=d#5 v=0
29760 On ch=1 n=g#4 v=94
29760 On ch=1 n=c5 v=94
29760 On ch=1 n=d#5 v=94
29880 On ch=1 n=d#5 v=0
29880 On ch=1 n=g4 v=0
29880 On ch=1 n=g#4 v=0
29880 On ch=1 n=c5 v=0
29880 On ch=1 n=f4 v=105
30000 On ch=1 n=d#5 v=96
30000 On ch=1 n=c5 v=96
30000 On ch=1 n=g#4 v=96
30120 On ch=1 n=g#4 v=0
30120 On ch=1 n=c5 v=0
30120 On ch=1 n=d#5 v=0
30120 On ch=1 n=g#4 v=97
30120 On ch=1 n=c5 v=97
30120 On ch=1 n=d#5 v=97
30240 On ch=1 n=d#5 v=0
30240 On ch=1 n=f4 v=0
30240 On ch=1 n=g#4 v=0
30240 On ch=1 n=c5 v=0
30240 On ch=1 n=a#3 v=108
30360 On ch=1 n=d5 v=99
30360 On ch=1 n=a#4 v=99
30360 On ch=1 n=g#4 v=99
30480 On ch=1 n=g#4 v=0
30480 On ch=1 n=a#4 v=0
30480 On ch=1 n=d5 v=0
30480 On ch=1 n=g#4 v=100
30480 On ch=1 n=a#4 v=100
30480 On ch=1 n=d5 v=100
30600 On ch=1 n=d5 v=0
30600 On ch=1 n=a#3 v=0
30600 On ch=1 n=g#4 v=0
30600 On ch=1 n=a#4 v=0
30600 On ch=1 n=a#3 v=110
30720 On ch=1 n=f5 v=97
30720 On ch=1 n=a#4 v=97
30720 On ch=1 n=g#4 v=97
30840 On ch=1 n=g#4 v=0
30840 On ch=1 n=a#4 v=0
30840 On ch=1 n=f5 v=0
30840 On ch=1 n=f5 v=94
30840 On ch=1 n=g#4 v=94
30840 On ch=1 n=a#4 v=94
30960 On ch=1 n=a#4 v=0
30960 On ch=1 n=a#3 v=0
30960 On ch=1 n=f5 v=0
30960 On ch=1 n=g#4 v=0
30960 On ch=1 n=a#3 v=100
31080 On ch=1 n=d#5 v=87
31080 On ch=1 n=a#4 v=87
31080 On ch=1 n=g4 v=87
31200 On ch=1 n=g4 v=0
31200 On ch=1 n=a#4 v=0
31200 On ch=1 n=d#5 v=0
31200 On ch=1 n=g4 v=83
31200 On ch=1 n=a#4 v=83
31200 On ch=1 n=d#5 v=83
31320 On ch=1 n=d#5 v=0
31320 On ch=1 n=a#3 v=0
31320 On ch=1 n=g4 v=0
31320 On ch=1 n=a#4 v=0
31320 On ch=1 n=a#3 v=90
31440 On ch=1 n=f5 v=77
31440 On ch=1 n=a#4 v=77
31440 On ch=1 n=g#4 v=77
31560 On ch=1 n=g#4 v=0
31560 On ch=1 n=a#4 v=0
31560 On ch=1 n=f5 v=0
31560 On ch=1 n=f5 v=73
31560 On ch=1 n=a#4 v=73
31560 On ch=1 n=g#4 v=73
31680 On ch=1 n=g#4 v=0
31680 On ch=1 n=a#3 v=0
31680 On ch=1 n=f5 v=0
31680 On ch=1 n=a#4 v=0
31680 On ch=1 n=a#3 v=80
31800 On ch=1 n=d#5 v=66
31800 On ch=1 n=a#4 v=66
31800 On ch=1 n=g4 v=66
31920 On ch=1 n=g4 v=0
31920 On ch=1 n=a#4 v=0
31920 On ch=1 n=d#5 v=0
31920 On ch=1 n=g4 v=63
31920 On ch=1 n=a#4 v=63
31920 On ch=1 n=d#5 v=63
32040 On ch=1 n=d#5 v=0
32040 On ch=1 n=a#3 v=0
32040 On ch=1 n=g4 v=0
32040 On ch=1 n=a#4 v=0
32040 On ch=1 n=a#3 v=70
32160 On ch=1 n=d5 v=60
32160 On ch=1 n=a#4 v=60
32160 On ch=1 n=g#4 v=60
32280 On ch=1 n=g#4 v=0
32280 On ch=1 n=a#4 v=0
32280 On ch=1 n=d5 v=0
32280 On ch=1 n=d5 v=60
32280 On ch=1 n=g#4 v=60
32280 On ch=1 n=a#4 v=60
32400 On ch=1 n=a#4 v=0
32400 On ch=1 n=a#3 v=0
32400 On ch=1 n=d5 v=0
32400 On ch=1 n=g#4 v=0
32400 On ch=1 n=d#4 v=70
32520 On ch=1 n=d#4 v=0
32520 On ch=1 n=g5 v=60
32520 On ch=1 n=d#5 v=60
32520 On ch=1 n=a#4 v=60
32640 On ch=1 n=a#4 v=0
32640 On ch=1 n=d#5 v=0
32640 On ch=1 n=g5 v=0
32640 On ch=1 n=a4 v=60
32640 On ch=1 n=c5 v=60
32640 On ch=1 n=f#5 v=60
32760 On ch=1 n=f#5 v=0
32760 On ch=1 n=c5 v=0
32760 On ch=1 n=a4 v=0
32760 On ch=1 n=a#3 v=70
32880 On ch=1 n=a#3 v=0
32880 On ch=1 n=d#5 v=60
32880 On ch=1 n=a#4 v=60
33000 On ch=1 n=a#4 v=0
33000 On ch=1 n=d#5 v=0
33000 On ch=1 n=g#4 v=60
33000 On ch=1 n=d5 v=60
33120 On ch=1 n=d5 v=0
33120 On ch=1 n=g#4 v=0
33120 On ch=1 n=d#4 v=70
33240 On ch=1 n=d#5 v=60
33240 On ch=1 n=a#4 v=60
33240 On ch=1 n=g4 v=60
33360 On ch=1 n=g4 v=0
33360 On ch=1 n=d#4 v=0
33360 On ch=1 n=d#5 v=0
33360 On ch=1 n=a#4 v=0
33480 On ch=1 n=c#4 v=70
33600 On ch=1 n=c#5 v=60
33600 On ch=1 n=a#4 v=60
33600 On ch=1 n=f4 v=60
33720 On ch=1 n=f4 v=0
33720 On ch=1 n=a#4 v=0
33720 On ch=1 n=c#5 v=0
33720 On ch=1 n=a#4 v=60
33720 On ch=1 n=c#5 v=60
33720 On ch=1 n=f4 v=60
33840 On ch=1 n=f4 v=0
33840 On ch=1 n=c#4 v=0
33840 On ch=1 n=a#4 v=0
33840 On ch=1 n=c#5 v=0
33840 On ch=1 n=a#3 v=70
33960 On ch=1 n=c#5 v=60
33960 On ch=1 n=g#4 v=60
33960 On ch=1 n=f4 v=60
34080 On ch=1 n=f4 v=0
34080 On ch=1 n=a#3 v=0
34080 On ch=1 n=c#5 v=0
34080 On ch=1 n=g#4 v=0
34080 On ch=1 n=d#4 v=60
34080 On ch=1 n=g4 v=60
34080 On ch=1 n=c#5 v=60
34200 On ch=1 n=c#5 v=0
34200 On ch=1 n=g4 v=0
34200 On ch=1 n=d#4 v=0
34200 On ch=1 n=d#4 v=70
34320 On ch=1 n=c5 v=60
34320 On ch=1 n=g#4 v=60
34440 On ch=1 n=g#4 v=0
34440 On ch=1 n=c5 v=0
34440 On ch=1 n=g#4 v=60
34440 On ch=1 n=c5 v=60
34560 On ch=1 n=c5 v=0
34560 On ch=1 n=g#4 v=0
34560 On ch=1 n=d#4 v=0
34560 On ch=1 n=d#3 v=70
34680 On ch=1 n=g#4 v=60
34680 On ch=1 n=d#4 v=60
34800 On ch=1 n=d#4 v=0
34800 On ch=1 n=g#4 v=0
34800 On ch=1 n=g#4 v=60
34800 On ch=1 n=d#4 v=60
34920 On ch=1 n=d#4 v=0
34920 On ch=1 n=g#4 v=0
34920 On ch=1 n=d#3 v=0
34920 On ch=1 n=d#3 v=70
35040 On ch=1 n=d#3 v=0
35040 On ch=1 n=c#5 v=74
35040 On ch=1 n=g4 v=74
35040 On ch=1 n=d#4 v=74
35160 On ch=1 n=d#4 v=0
35160 On ch=1 n=g4 v=0
35160 On ch=1 n=c#5 v=0
35160 On ch=1 n=g4 v=89
35160 On ch=1 n=a#4 v=89
35160 On ch=1 n=d#5 v=89
35280 On ch=1 n=d#5 v=0
35280 On ch=1 n=a#4 v=0
35280 On ch=1 n=g4 v=0
35280 On ch=1 n=d#4 v=110
35400 On ch=1 n=d#4 v=0
35640 On ch=1 n=g#3 v=110
35760 On ch=1 n=g#3 v=0
36000 On ch=1 n=g#3 v=110
36120 On ch=1 n=g#3 v=0
36120 On ch=1 n=d#4 v=100
36120 On ch=1 n=g#4 v=100
36120 On ch=1 n=c5 v=100
36240 On ch=1 n=c5 v=0
36240 On ch=1 n=g#4 v=0
36240 On ch=1 n=d#4 v=0
36240 On ch=1 n=c5 v=60
36240 On ch=1 n=g#4 v=60
36240 On ch=1 n=d#4 v=60
36360 On ch=1 n=d#4 v=0
36360 On ch=1 n=g#4 v=0
36360 On ch=1 n=c5 v=0
36360 On ch=1 n=c#4 v=70
36480 On ch=1 n=c#5 v=60
36480 On ch=1 n=a#4 v=60
36480 On ch=1 n=f4 v=60
36600 On ch=1 n=f4 v=0
36600 On ch=1 n=a#4 v=0
36600 On ch=1 n=c#5 v=0
36600 On ch=1 n=a#4 v=60
36600 On ch=1 n=c#5 v=60
36600 On ch=1 n=f4 v=60
36720 On ch=1 n=f4 v=0
36720 On ch=1 n=c#4 v=0
36720 On ch=1 n=a#4 v=0
36720 On ch=1 n=c#5 v=0
36720 On ch=1 n=a#3 v=70
36840 On ch=1 n=c#5 v=60
36840 On ch=1 n=f4 v=60
36960 On ch=1 n=f4 v=0
36960 On ch=1 n=c#5 v=0
36960 On ch=1 n=a#3 v=0
36960 On ch=1 n=d#4 v=60
36960 On ch=1 n=g4 v=60
36960 On ch=1 n=c#5 v=60
37080 On ch=1 n=c#5 v=0
37080 On ch=1 n=g4 v=0
37080 On ch=1 n=d#4 v=0
37080 On ch=1 n=g#3 v=70
37200 On ch=1 n=d#4 v=60
37200 On ch=1 n=g#4 v=60
37200 On ch=1 n=c5 v=60
37320 On ch=1 n=c5 v=0
37320 On ch=1 n=g#4 v=0
37320 On ch=1 n=d#4 v=0
37320 On ch=1 n=d#4 v=60
37320 On ch=1 n=g#4 v=60
37320 On ch=1 n=c5 v=60
37440 On ch=1 n=c5 v=0
37440 On ch=1 n=g#3 v=0
37440 On ch=1 n=d#4 v=0
37440 On ch=1 n=g#4 v=0
37440 On ch=1 n=g#3 v=70
37560 On ch=1 n=f4 v=60
37560 On ch=1 n=d4 v=60
37680 On ch=1 n=d4 v=0
37680 On ch=1 n=f4 v=0
37680 On ch=1 n=d4 v=60
37680 On ch=1 n=f4 v=60
37800 On ch=1 n=f4 v=0
37800 On ch=1 n=d4 v=0
37800 On ch=1 n=g#3 v=0
37800 On ch=1 n=g3 v=110
37920 On ch=1 n=g3 v=0
37920 On ch=1 n=c5 v=100
37920 On ch=1 n=g4 v=100
37920 On ch=1 n=d#4 v=100
38040 On ch=1 n=d#4 v=0
38040 On ch=1 n=g4 v=0
38040 On ch=1 n=c5 v=0
38040 On ch=1 n=d#4 v=100
38040 On ch=1 n=g4 v=100
38040 On ch=1 n=c5 v=100
38160 On ch=1 n=c5 v=0
38160 On ch=1 n=g4 v=0
38160 On ch=1 n=d#4 v=0
38160 On ch=1 n=g3 v=110
38280 On ch=1 n=g3 v=0
38280 On ch=1 n=g5 v=100
38280 On ch=1 n=b4 v=100
38280 On ch=1 n=g4 v=100
38400 On ch=1 n=g4 v=0
38400 On ch=1 n=b4 v=0
38400 On ch=1 n=g5 v=0
38400 On ch=1 n=g4 v=100
38400 On ch=1 n=b4 v=100
38400 On ch=1 n=g5 v=100
38520 On ch=1 n=g5 v=0
38520 On ch=1 n=b4 v=0
38520 On ch=1 n=g4 v=0
38520 On ch=1 n=c4 v=110
38640 On ch=1 n=c4 v=0
38640 On ch=1 n=g5 v=77
38640 On ch=1 n=c5 v=77
38640 On ch=1 n=g4 v=77
38760 On ch=1 n=g4 v=0
38760 On ch=1 n=c5 v=0
38760 On ch=1 n=g5 v=0
38760 On ch=1 n=g4 v=53
38760 On ch=1 n=c5 v=53
38760 On ch=1 n=g5 v=53
38880 On ch=1 n=g5 v=0
38880 On ch=1 n=c5 v=0
38880 On ch=1 n=g4 v=0
38880 On ch=1 n=c4 v=50
39000 On ch=1 n=c4 v=0
39000 On ch=1 n=g5 v=40
39000 On ch=1 n=c5 v=40
39000 On ch=1 n=g4 v=40
39120 On ch=1 n=g4 v=0
39120 On ch=1 n=c5 v=0
39120 On ch=1 n=g5 v=0
39120 On ch=1 n=g5 v=40
39120 On ch=1 n=c5 v=40
39120 On ch=1 n=g4 v=40
39240 On ch=1 n=g4 v=0
39240 On ch=1 n=c5 v=0
39240 On ch=1 n=g5 v=0
39240 On ch=1 n=c#4 v=70
39360 On ch=1 n=g#4 v=60
39360 On ch=1 n=a#4 v=60
39480 On ch=1 n=a#4 v=0
39480 On ch=1 n=g#4 v=0
39480 On ch=1 n=g#4 v=60
39480 On ch=1 n=a#4 v=60
39600 On ch=1 n=a#4 v=0
39600 On ch=1 n=g#4 v=0
39600 On ch=1 n=c#4 v=0
39600 On ch=1 n=a#3 v=70
39720 On ch=1 n=f4 v=60
39720 On ch=1 n=g#4 v=60
39720 On ch=1 n=c#5 v=60
39840 On ch=1 n=c#5 v=0
39840 On ch=1 n=a#3 v=0
39840 On ch=1 n=f4 v=0
39840 On ch=1 n=g#4 v=0
39840 On ch=1 n=d#4 v=60
39840 On ch=1 n=g4 v=60
39840 On ch=1 n=c#5 v=60
39960 On ch=1 n=c#5 v=0
39960 On ch=1 n=g4 v=0
39960 On ch=1 n=d#4 v=0
39960 On ch=1 n=d#4 v=70
40080 On ch=1 n=c5 v=60
40080 On ch=1 n=g#4 v=60
40200 On ch=1 n=g#4 v=0
40200 On ch=1 n=c5 v=0
40200 On ch=1 n=g#4 v=60
40200 On ch=1 n=c5 v=60
40320 On ch=1 n=c5 v=0
40320 On ch=1 n=g#4 v=0
40320 On ch=1 n=d#4 v=0
40320 On ch=1 n=d#3 v=70
40440 On ch=1 n=d#4 v=60
40440 On ch=1 n=g#4 v=60
40560 On ch=1 n=g#4 v=0
40560 On ch=1 n=d#4 v=0
40560 On ch=1 n=d#4 v=60
40560 On ch=1 n=g#4 v=60
40680 On ch=1 n=g#4 v=0
40680 On ch=1 n=d#4 v=0
40680 On ch=1 n=d#3 v=0
40680 On ch=1 n=d#3 v=70
40800 On ch=1 n=d#3 v=0
40800 On ch=1 n=c#5 v=74
40800 On ch=1 n=g4 v=74
40800 On ch=1 n=d#4 v=74
40920 On ch=1 n=d#4 v=0
40920 On ch=1 n=g4 v=0
40920 On ch=1 n=c#5 v=0
40920 On ch=1 n=g4 v=89
40920 On ch=1 n=a#4 v=89
40920 On ch=1 n=d#5 v=89
41040 On ch=1 n=d#5 v=0
41040 On ch=1 n=a#4 v=0
41040 On ch=1 n=g4 v=0
41040 On ch=1 n=d#4 v=110
41160 On ch=1 n=d#4 v=0
41400 On ch=1 n=g#3 v=110
41520 On ch=1 n=g#3 v=0
41760 On ch=1 n=g#3 v=110
41880 On ch=1 n=g#3 v=0
41880 On ch=1 n=c5 v=100
41880 On ch=1 n=g#4 v=100
41880 On ch=1 n=d#4 v=100
42000 On ch=1 n=d#4 v=0
42000 On ch=1 n=g#4 v=0
42000 On ch=1 n=c5 v=0
42000 On ch=1 n=d#4 v=60
42000 On ch=1 n=g#4 v=60
42000 On ch=1 n=c5 v=60
42120 On ch=1 n=c5 v=0
42120 On ch=1 n=g#4 v=0
42120 On ch=1 n=d#4 v=0
42120 On ch=1 n=c#4 v=70
42240 On ch=1 n=c#5 v=60
42240 On ch=1 n=a#4 v=60
42240 On ch=1 n=f4 v=60
42360 On ch=1 n=f4 v=0
42360 On ch=1 n=a#4 v=0
42360 On ch=1 n=c#5 v=0
42360 On ch=1 n=a#4 v=60
42360 On ch=1 n=c#5 v=60
42360 On ch=1 n=f4 v=60
42480 On ch=1 n=f4 v=0
42480 On ch=1 n=c#4 v=0
42480 On ch=1 n=a#4 v=0
42480 On ch=1 n=c#5 v=0
42480 On ch=1 n=a#3 v=70
42600 On ch=1 n=c#5 v=60
42600 On ch=1 n=f4 v=60
42720 On ch=1 n=f4 v=0
42720 On ch=1 n=c#5 v=0
42720 On ch=1 n=a#3 v=0
42720 On ch=1 n=d#4 v=60
42720 On ch=1 n=g4 v=60
42720 On ch=1 n=c#5 v=60
42840 On ch=1 n=c#5 v=0
42840 On ch=1 n=g4 v=0
42840 On ch=1 n=d#4 v=0
42840 On ch=1 n=g#3 v=70
42960 On ch=1 n=d#4 v=60
42960 On ch=1 n=g#4 v=60
42960 On ch=1 n=c5 v=60
43080 On ch=1 n=c5 v=0
43080 On ch=1 n=g#4 v=0
43080 On ch=1 n=d#4 v=0
43080 On ch=1 n=d#4 v=60
43080 On ch=1 n=g#4 v=60
43080 On ch=1 n=c5 v=60
43200 On ch=1 n=c5 v=0
43200 On ch=1 n=g#3 v=0
43200 On ch=1 n=d#4 v=0
43200 On ch=1 n=g#4 v=0
43200 On ch=1 n=d#3 v=70
43320 On ch=1 n=g#4 v=60
43320 On ch=1 n=d#4 v=60
43440 On ch=1 n=d#4 v=0
43440 On ch=1 n=g#4 v=0
43440 On ch=1 n=g#4 v=60
43440 On ch=1 n=d#4 v=60
43560 On ch=1 n=d#4 v=0
43560 On ch=1 n=g#4 v=0
43560 On ch=1 n=d#3 v=0
43560 On ch=1 n=d#4 v=70
43680 On ch=1 n=g#4 v=64
43680 On ch=1 n=a#4 v=64
43800 On ch=1 n=a#4 v=0
43800 On ch=1 n=g#4 v=0
43800 On ch=1 n=g#4 v=68
43800 On ch=1 n=a#4 v=68
43920 On ch=1 n=a#4 v=0
43920 On ch=1 n=g#4 v=0
43920 On ch=1 n=d#4 v=0
43920 On ch=1 n=d#4 v=82
44040 On ch=1 n=a#4 v=76
44040 On ch=1 n=g#4 v=76
44040 On ch=1 n=d5 v=76
44160 On ch=1 n=d5 v=0
44160 On ch=1 n=g#4 v=0
44160 On ch=1 n=a#4 v=0
44160 On ch=1 n=a#4 v=80
44160 On ch=1 n=g#4 v=80
44160 On ch=1 n=d5 v=80
44280 On ch=1 n=d5 v=0
44280 On ch=1 n=d#4 v=0
44280 On ch=1 n=a#4 v=0
44280 On ch=1 n=g#4 v=0
44280 On ch=1 n=d#4 v=94
44400 On ch=1 n=c#5 v=88
44400 On ch=1 n=d#5 v=88
44520 On ch=1 n=d#5 v=0
44520 On ch=1 n=c#5 v=0
44520 On ch=1 n=c#5 v=93
44520 On ch=1 n=d#5 v=93
44640 On ch=1 n=d#5 v=0
44640 On ch=1 n=c#5 v=0
44640 On ch=1 n=d#4 v=0
44640 On ch=1 n=g#3 v=107
44760 On ch=1 n=d#4 v=100
44760 On ch=1 n=c5 v=100
44880 On ch=1 n=c5 v=0
44880 On ch=1 n=d#4 v=0
44880 On ch=1 n=g#3 v=0
44880 Meta TrkEnd
TrkEnd
MTrk
0 Meta 0x21 00
0 Meta TrkName "Pedal"
0 PrCh ch=1 p=0
360 Par ch=1 c=64 v=127
600 Par ch=1 c=64 v=0
720 Par ch=1 c=64 v=127
960 Par ch=1 c=64 v=0
1440 Par ch=1 c=64 v=127
1680 Par ch=1 c=64 v=0
1800 Par ch=1 c=64 v=127
2040 Par ch=1 c=64 v=0
2160 Par ch=1 c=64 v=127
2400 Par ch=1 c=64 v=0
2520 Par ch=1 c=64 v=127
2760 Par ch=1 c=64 v=0
2880 Par ch=1 c=64 v=127
3120 Par ch=1 c=64 v=0
3240 Par ch=1 c=64 v=127
3480 Par ch=1 c=64 v=0
3600 Par ch=1 c=64 v=127
3840 Par ch=1 c=64 v=0
3960 Par ch=1 c=64 v=127
4200 Par ch=1 c=64 v=0
4320 Par ch=1 c=64 v=127
4560 Par ch=1 c=64 v=0
4680 Par ch=1 c=64 v=127
4920 Par ch=1 c=64 v=0
5040 Par ch=1 c=64 v=127
5280 Par ch=1 c=64 v=0
5400 Par ch=1 c=64 v=127
5640 Par ch=1 c=64 v=0
5760 Par ch=1 c=64 v=127
6000 Par ch=1 c=64 v=0
6120 Par ch=1 c=64 v=127
6360 Par ch=1 c=64 v=0
6480 Par ch=1 c=64 v=127
6720 Par ch=1 c=64 v=0
6840 Par ch=1 c=64 v=127
7080 Par ch=1 c=64 v=0
7440 Par ch=1 c=64 v=127
7500 Par ch=1 c=64 v=0
7560 Par ch=1 c=64 v=127
7800 Par ch=1 c=64 v=0
7920 Par ch=1 c=64 v=127
8160 Par ch=1 c=64 v=0
8640 Par ch=1 c=64 v=127
8880 Par ch=1 c=64 v=0
9000 Par ch=1 c=64 v=127
9240 Par ch=1 c=64 v=0
9360 Par ch=1 c=64 v=127
9600 Par ch=1 c=64 v=0
9720 Par ch=1 c=64 v=127
9960 Par ch=1 c=64 v=0
10080 Par ch=1 c=64 v=127
10320 Par ch=1 c=64 v=0
10440 Par ch=1 c=64 v=127
10680 Par ch=1 c=64 v=0
10800 Par ch=1 c=64 v=127
11040 Par ch=1 c=64 v=0
11160 Par ch=1 c=64 v=127
11400 Par ch=1 c=64 v=0
11520 Par ch=1 c=64 v=127
11760 Par ch=1 c=64 v=0
11880 Par ch=1 c=64 v=127
12120 Par ch=1 c=64 v=0
12240 Par ch=1 c=64 v=127
12480 Par ch=1 c=64 v=0
12600 Par ch=1 c=64 v=127
12840 Par ch=1 c=64 v=0
12960 Par ch=1 c=64 v=127
13200 Par ch=1 c=64 v=0
13320 Par ch=1 c=64 v=127
13560 Par ch=1 c=64 v=0
13680 Par ch=1 c=64 v=127
13920 Par ch=1 c=64 v=0
14040 Par ch=1 c=64 v=127
14220 Par ch=1 c=64 v=0
14760 Par ch=1 c=64 v=127
15000 Par ch=1 c=64 v=0
15120 Par ch=1 c=64 v=127
15360 Par ch=1 c=64 v=0
15480 Par ch=1 c=64 v=127
15720 Par ch=1 c=64 v=0
15840 Par ch=1 c=64 v=127
16080 Par ch=1 c=64 v=0
16200 Par ch=1 c=64 v=127
16440 Par ch=1 c=64 v=0
16560 Par ch=1 c=64 v=127
16800 Par ch=1 c=64 v=0
16920 Par ch=1 c=64 v=127
17160 Par ch=1 c=64 v=0
17280 Par ch=1 c=64 v=127
17520 Par ch=1 c=64 v=0
17640 Par ch=1 c=64 v=127
17880 Par ch=1 c=64 v=0
18000 Par ch=1 c=64 v=127
18240 Par ch=1 c=64 v=0
18360 Par ch=1 c=64 v=127
18600 Par ch=1 c=64 v=0
18720 Par ch=1 c=64 v=127
18960 Par ch=1 c=64 v=0
19080 Par ch=1 c=64 v=127
19320 Par ch=1 c=64 v=0
19440 Par ch=1 c=64 v=127
19680 Par ch=1 c=64 v=0
19800 Par ch=1 c=64 v=127
20040 Par ch=1 c=64 v=0
20160 Par ch=1 c=64 v=127
20400 Par ch=1 c=64 v=0
20520 Par ch=1 c=64 v=127
20760 Par ch=1 c=64 v=0
20880 Par ch=1 c=64 v=127
21120 Par ch=1 c=64 v=0
21240 Par ch=1 c=64 v=127
21480 Par ch=1 c=64 v=0
21600 Par ch=1 c=64 v=127
21840 Par ch=1 c=64 v=0
21960 Par ch=1 c=64 v=127
22200 Par ch=1 c=64 v=0
22320 Par ch=1 c=64 v=127
22560 Par ch=1 c=64 v=0
22680 Par ch=1 c=64 v=127
22920 Par ch=1 c=64 v=0
23040 Par ch=1 c=64 v=127
23280 Par ch=1 c=64 v=0
23400 Par ch=1 c=64 v=127
23640 Par ch=1 c=64 v=0
23760 Par ch=1 c=64 v=127
24000 Par ch=1 c=64 v=0
24120 Par ch=1 c=64 v=127
24360 Par ch=1 c=64 v=0
24480 Par ch=1 c=64 v=127
24720 Par ch=1 c=64 v=0
24840 Par ch=1 c=64 v=127
25080 Par ch=1 c=64 v=0
25200 Par ch=1 c=64 v=127
25440 Par ch=1 c=64 v=0
25560 Par ch=1 c=64 v=127
25800 Par ch=1 c=64 v=0
25920 Par ch=1 c=64 v=127
26160 Par ch=1 c=64 v=0
26280 Par ch=1 c=64 v=127
26520 Par ch=1 c=64 v=0
26640 Par ch=1 c=64 v=127
26880 Par ch=1 c=64 v=0
27360 Par ch=1 c=64 v=127
27600 Par ch=1 c=64 v=0
27720 Par ch=1 c=64 v=127
27960 Par ch=1 c=64 v=0
28080 Par ch=1 c=64 v=127
28320 Par ch=1 c=64 v=0
28440 Par ch=1 c=64 v=127
28680 Par ch=1 c=64 v=0
28800 Par ch=1 c=64 v=127
29040 Par ch=1 c=64 v=0
29160 Par ch=1 c=64 v=127
29400 Par ch=1 c=64 v=0
29520 Par ch=1 c=64 v=127
29760 Par ch=1 c=64 v=0
29880 Par ch=1 c=64 v=127
30120 Par ch=1 c=64 v=0
30240 Par ch=1 c=64 v=127
30480 Par ch=1 c=64 v=0
30600 Par ch=1 c=64 v=127
30840 Par ch=1 c=64 v=0
30960 Par ch=1 c=64 v=127
31200 Par ch=1 c=64 v=0
31320 Par ch=1 c=64 v=127
31560 Par ch=1 c=64 v=0
31680 Par ch=1 c=64 v=127
31920 Par ch=1 c=64 v=0
32040 Par ch=1 c=64 v=127
32280 Par ch=1 c=64 v=0
32400 Par ch=1 c=64 v=127
32640 Par ch=1 c=64 v=0
32760 Par ch=1 c=64 v=127
33000 Par ch=1 c=64 v=0
33480 Par ch=1 c=64 v=127
33720 Par ch=1 c=64 v=0
33840 Par ch=1 c=64 v=127
34080 Par ch=1 c=64 v=0
34200 Par ch=1 c=64 v=127
34440 Par ch=1 c=64 v=0
34560 Par ch=1 c=64 v=127
34800 Par ch=1 c=64 v=0
34920 Par ch=1 c=64 v=127
35160 Par ch=1 c=64 v=0
35280 Par ch=1 c=64 v=127
35520 Par ch=1 c=64 v=0
35640 Par ch=1 c=64 v=127
35880 Par ch=1 c=64 v=0
36000 Par ch=1 c=64 v=127
36240 Par ch=1 c=64 v=0
36360 Par ch=1 c=64 v=127
36600 Par ch=1 c=64 v=0
36720 Par ch=1 c=64 v=127
36960 Par ch=1 c=64 v=0
37080 Par ch=1 c=64 v=127
37320 Par ch=1 c=64 v=0
37440 Par ch=1 c=64 v=127
37680 Par ch=1 c=64 v=0
37800 Par ch=1 c=64 v=127
38040 Par ch=1 c=64 v=0
38160 Par ch=1 c=64 v=127
38400 Par ch=1 c=64 v=0
38520 Par ch=1 c=64 v=127
38760 Par ch=1 c=64 v=0
38880 Par ch=1 c=64 v=127
39120 Par ch=1 c=64 v=0
39240 Par ch=1 c=64 v=127
39480 Par ch=1 c=64 v=0
39600 Par ch=1 c=64 v=127
39840 Par ch=1 c=64 v=0
39960 Par ch=1 c=64 v=127
40200 Par ch=1 c=64 v=0
40320 Par ch=1 c=64 v=127
40560 Par ch=1 c=64 v=0
40680 Par ch=1 c=64 v=127
40920 Par ch=1 c=64 v=0
41040 Par ch=1 c=64 v=127
41280 Par ch=1 c=64 v=0
41400 Par ch=1 c=64 v=127
41640 Par ch=1 c=64 v=0
41760 Par ch=1 c=64 v=127
42000 Par ch=1 c=64 v=0
42120 Par ch=1 c=64 v=127
42360 Par ch=1 c=64 v=0
42480 Par ch=1 c=64 v=127
42720 Par ch=1 c=64 v=0
42840 Par ch=1 c=64 v=127
43080 Par ch=1 c=64 v=0
43200 Par ch=1 c=64 v=127
43440 Par ch=1 c=64 v=0
43560 Par ch=1 c=64 v=127
43800 Par ch=1 c=64 v=0
43920 Par ch=1 c=64 v=127
44160 Par ch=1 c=64 v=0
44280 Par ch=1 c=64 v=127
44520 Par ch=1 c=64 v=0
44640 Par ch=1 c=64 v=127
45000 Par ch=1 c=64 v=0
45000 Meta TrkEnd
TrkEnd
MTrk
0 Meta 0x21 00
0 Meta TrkName "F. Chopin Valse No. 12 in F- Op. 70-2"
0 Meta TrkEnd
TrkEnd
MTrk
0 Meta 0x21 00
0 Meta TrkName "Jeruen E. Dery jawjaw@hotmail.com"
0 Meta TrkEnd
TrkEnd
